# onset,offset,note,velocity
0.719047619047619	0.8119274376417234	69	127
0.719047619047619	0.8119274376417234	57	127
0.719047619047619	0.8119274376417234	57	127
0.9164172335600907	0.986077097505669	64	127
0.997687074829932	1.0789569160997732	64	127
1.1137868480725623	2.3444444444444446	61	127
1.2066666666666668	1.287936507936508	52	127
1.322766439909297	1.3924263038548752	54	127
1.4272562358276644	1.4969160997732427	52	127
1.5317460317460319	2.135442176870748	57	127
1.624625850340136	1.7058956916099772	76	127
1.7291156462585033	1.7871655328798186	78	127
1.8219954648526078	1.914875283446712	76	127
1.9497052154195011	2.460521541950113	81	127
2.0425850340136056	2.112222222222222	64	127
2.147074829931973	2.3444444444444446	52	127
2.147074829931973	2.205124716553288	66	127
2.2399546485260773	2.3212244897959184	64	127
2.3560544217687074	2.5650340136054424	49	127
2.3560544217687074	2.5650340136054424	64	127
2.3560544217687074	2.5650340136054424	69	127
2.460521541950113	2.5418140589569163	85	127
2.576643990929705	2.6463038548752835	83	127
2.576643990929705	2.774013605442177	73	127
2.576643990929705	2.774013605442177	61	127
2.576643990929705	2.774013605442177	45	127
2.6811337868480725	2.750793650793651	81	127
2.7856009070294783	3.2268027210884354	40	127
2.7856009070294783	2.8901133786848074	81	127
2.7856009070294783	3.133922902494331	74	127
2.7856009070294783	3.133922902494331	59	127
2.8901133786848074	2.9713832199546486	80	127
3.0062131519274375	3.099092970521542	78	127
3.133922902494331	3.2268027210884354	71	127
3.133922902494331	3.2268027210884354	62	127
3.133922902494331	3.2151927437641725	80	127
3.2268027210884354	3.5402721088435376	57	127
3.2268027210884354	3.644761904761905	45	127
3.2268027210884354	3.2964625850340137	81	127
3.2268027210884354	3.5402721088435376	73	127
3.3312925170068026	3.412562358276644	85	127
3.447392290249433	3.5170521541950115	83	127
3.5402721088435376	3.644761904761905	69	127
3.5402721088435376	3.644761904761905	61	127
3.5402721088435376	3.6215419501133788	81	127
3.6563718820861677	3.9350113378684806	59	127
3.6563718820861677	3.9582312925170067	40	127
3.6563718820861677	3.749251700680272	81	127
3.6563718820861677	3.9350113378684806	74	127
3.749251700680272	3.8305215419501133	80	127
3.8653514739229027	3.9234013605442177	78	127
3.9350113378684806	3.9582312925170067	62	127
3.9350113378684806	3.9582312925170067	71	127
3.9350113378684806	3.9582312925170067	80	127
3.96984126984127	4.294897959183674	73	127
3.96984126984127	4.399410430839002	45	127
3.96984126984127	4.039501133786848	81	127
3.96984126984127	4.294897959183674	57	127
4.074308390022676	4.155600907029479	85	127
4.190430839002268	4.260090702947846	83	127
4.294897959183674	4.399410430839002	69	127
4.294897959183674	4.376190476190477	81	127
4.294897959183674	4.399410430839002	61	127
4.399410430839002	4.50390022675737	81	127
4.399410430839002	4.608390022675737	40	127
4.399410430839002	4.608390022675737	59	127
4.399410430839002	4.608390022675737	68	127
4.50390022675737	4.573560090702948	80	127
4.608390022675737	4.689659863945578	78	127
4.608390022675737	4.817369614512471	52	127
4.608390022675737	4.817369614512471	59	127
4.608390022675737	4.817369614512471	68	127
4.7128798185941045	4.794149659863946	76	127
4.828979591836735	5.072766439909297	59	127
4.828979591836735	5.072766439909297	47	127
4.828979591836735	4.945056689342404	75	127
4.828979591836735	5.072766439909297	69	127
4.945056689342404	5.0495691609977325	76	127
5.084399092970521	5.397868480725624	47	127
5.084399092970521	5.1656689342403626	78	127
5.084399092970521	5.397868480725624	69	127
5.084399092970521	5.397868480725624	59	127
5.246916099773243	5.351428571428571	80	127
5.409478458049887	6.535646258503402	76	127
5.409478458049887	6.535646258503402	59	127
5.409478458049887	6.535646258503402	68	127
5.409478458049887	6.535646258503402	52	127
6.9071655328798185	6.98843537414966	83	127
7.023265306122449	8.532562358276644	74	127
7.13936507936508	7.2090249433106575	71	127
7.232244897959184	7.313514739229025	70	127
7.348344671201814	7.429614512471655	71	127
7.464444444444444	8.161043083900227	62	127
7.580544217687075	7.661814058956916	59	127
7.708253968253969	7.7779138321995465	58	127
7.812743764172335	7.894013605442177	59	127
7.928843537414966	8.404852607709751	52	127
8.05655328798186	8.1378231292517	47	127
8.172630385487528	8.404852607709751	56	127
8.172630385487528	8.253922902494331	46	127
8.28875283446712	8.370022675736962	47	127
8.404852607709751	8.637052154195011	56	127
8.404852607709751	8.811201814058958	40	127
8.404852607709751	8.637052154195011	59	127
8.532562358276644	8.613832199546485	78	127
8.648639455782313	8.718321995464853	76	127
8.648639455782313	8.811201814058958	62	127
8.648639455782313	8.811201814058958	59	127
8.729931972789116	8.799591836734693	74	127
8.811201814058958	8.927301587301587	74	127
8.811201814058958	9.240770975056689	45	127
8.811201814058958	9.147891156462585	57	127
8.811201814058958	9.147891156462585	61	127
8.927301587301587	9.008571428571429	73	127
9.031791383219955	9.113061224489796	71	127
9.147891156462585	9.240770975056689	52	127
9.147891156462585	9.217528344671202	69	127
9.147891156462585	9.240770975056689	64	127
9.240770975056689	9.333650793650794	68	127
9.240770975056689	9.519410430839002	59	127
9.240770975056689	9.519410430839002	62	127
9.240770975056689	9.612290249433107	52	127
9.333650793650794	9.403310657596371	69	127
9.426530612244898	9.496190476190476	71	127
9.519410430839002	9.612290249433107	52	127
9.519410430839002	9.612290249433107	64	127
9.519410430839002	9.600657596371882	73	127
9.612290249433107	10.041836734693877	45	127
9.612290249433107	9.705170068027211	69	127
9.612290249433107	9.914149659863945	61	127
9.612290249433107	9.914149659863945	57	127
9.705170068027211	9.786439909297052	73	127
9.809659863945578	9.89092970521542	76	127
9.914149659863945	10.041836734693877	64	127
9.914149659863945	10.041836734693877	52	127
9.914149659863945	9.995419501133787	76	127
10.041836734693877	10.35532879818594	56	127
10.041836734693877	10.436598639455783	40	127
10.041836734693877	10.15795918367347	76	127
10.041836734693877	10.35532879818594	59	127
10.15795918367347	10.239229024943311	78	127
10.250839002267574	10.332108843537416	76	127
10.35532879818594	10.436598639455783	64	127
10.35532879818594	10.436598639455783	52	127
10.35532879818594	10.413378684807256	74	127
10.436598639455783	10.703628117913832	57	127
10.436598639455783	10.8081179138322	45	127
10.436598639455783	10.552698412698414	74	127
10.436598639455783	10.703628117913832	61	127
10.552698412698414	10.622358276643991	73	127
10.633968253968254	10.680408163265307	71	127
10.703628117913832	10.8081179138322	52	127
10.703628117913832	10.8081179138322	64	127
10.703628117913832	10.784897959183674	69	127
10.8081179138322	11.109977324263038	62	127
10.8081179138322	11.19124716553288	52	127
10.8081179138322	10.912607709750567	68	127
10.8081179138322	11.109977324263038	59	127
10.912607709750567	10.982267573696145	69	127
10.993854875283446	11.07514739229025	71	127
11.109977324263038	11.19124716553288	64	127
11.109977324263038	11.168027210884354	73	127
11.109977324263038	11.19124716553288	52	127
11.19124716553288	11.411836734693878	45	127
11.19124716553288	11.30734693877551	52	127
11.19124716553288	11.911065759637188	61	127
11.19124716553288	11.911065759637188	69	127
11.30734693877551	11.388616780045352	64	127
11.411836734693878	11.516326530612245	66	127
11.551156462585034	11.632426303854876	64	127
11.6556462585034	12.131655328798185	76	127
11.911065759637188	12.131655328798185	68	127
11.911065759637188	12.131655328798185	71	127
12.131655328798185	12.363854875283447	69	127
12.131655328798185	12.363854875283447	73	127
12.363854875283447	12.584444444444445	68	127
12.363854875283447	12.584444444444445	71	127
12.584444444444445	12.781814058956916	74	127
12.584444444444445	12.781814058956916	71	127
12.781814058956916	13.014013605442177	69	127
12.781814058956916	13.014013605442177	73	127
13.014013605442177	13.722222222222221	68	127
13.014013605442177	13.722222222222221	71	127
13.130113378684808	13.211383219954648	52	127
13.246213151927437	13.327482993197279	54	127
13.37392290249433	13.455192743764172	52	127
13.478412698412699	13.94281179138322	64	127
13.722222222222221	13.94281179138322	73	127
13.722222222222221	13.94281179138322	70	127
13.94281179138322	14.151791383219955	74	127
13.94281179138322	14.151791383219955	71	127
14.151791383219955	14.372380952380952	70	127
14.151791383219955	14.372380952380952	73	127
14.372380952380952	14.558140589569161	73	127
14.372380952380952	14.558140589569161	76	127
14.558140589569161	14.767120181405895	74	127
14.558140589569161	14.767120181405895	71	127
14.767120181405895	14.894829931972788	69	127
14.767120181405895	14.999319727891157	73	127
14.767120181405895	15.452108843537415	49	127
14.767120181405895	15.452108843537415	57	127
14.894829931972788	14.97609977324263	64	127
14.999319727891157	15.080589569160997	66	127
15.115419501133786	15.196689342403628	64	127
15.219909297052155	15.672698412698413	76	127
15.452108843537415	15.672698412698413	52	127
15.452108843537415	15.672698412698413	59	127
15.672698412698413	15.904897959183673	61	127
15.672698412698413	15.904897959183673	57	127
15.788798185941044	15.881678004535148	76	127
15.904897959183673	15.986167800453515	78	127
15.904897959183673	16.11387755102041	59	127
15.904897959183673	16.11387755102041	56	127
16.02097505668934	16.102267573696146	76	127
16.11387755102041	16.555056689342404	88	127
16.11387755102041	16.334444444444443	59	127
16.11387755102041	16.334444444444443	62	127
16.334444444444443	16.555056689342404	57	127
16.334444444444443	16.555056689342404	61	127
16.555056689342404	17.27487528344671	52	127
16.555056689342404	17.27487528344671	59	127
16.682766439909297	16.764036281179138	64	127
16.787256235827666	16.89174603174603	66	127
16.938185941043084	17.019455782312924	64	127
17.042675736961453	17.49546485260771	76	127
17.27487528344671	17.49546485260771	57	127
17.27487528344671	17.49546485260771	61	127
17.49546485260771	17.72766439909297	59	127
17.49546485260771	17.72766439909297	62	127
17.61156462585034	17.704444444444444	76	127
17.72766439909297	17.808934240362813	78	127
17.72766439909297	17.94825396825397	61	127
17.72766439909297	17.94825396825397	58	127
17.8437641723356	17.92501133786848	76	127
17.94825396825397	18.377823129251702	88	127
17.94825396825397	18.168843537414965	64	127
17.94825396825397	18.168843537414965	61	127
18.168843537414965	18.377823129251702	62	127
18.168843537414965	18.377823129251702	59	127
18.377823129251702	18.598412698412698	57	127
18.377823129251702	18.598412698412698	61	127
18.49390022675737	18.575192743764173	73	127
18.598412698412698	18.656462585034014	74	127
18.691292517006804	18.772562358276645	73	127
18.79578231292517	19.666530612244898	78	127
18.9118820861678	18.99315192743764	85	127
18.9118820861678	18.99315192743764	69	127
19.01637188208617	19.09764172335601	86	127
19.01637188208617	19.09764172335601	71	127
19.1324716553288	19.21374149659864	85	127
19.1324716553288	19.21374149659864	69	127
19.236961451247165	19.457551020408165	68	127
19.236961451247165	19.318208616780044	83	127
19.353061224489796	19.434331065759636	83	127
19.457551020408165	19.538820861678005	85	127
19.57362811791383	19.643310657596373	87	127
19.666530612244898	20.212199546485262	76	127
19.666530612244898	19.771020408163267	88	127
19.771020408163267	19.852290249433107	56	127
19.771020408163267	19.852290249433107	87	127
19.875510204081632	19.956780045351476	57	127
19.875510204081632	19.956780045351476	85	127
19.991609977324263	20.072879818594103	56	127
19.991609977324263	20.072879818594103	83	127
20.09609977324263	20.618548752834467	81	127
20.09609977324263	20.305079365079365	54	127
20.212199546485262	20.293469387755103	76	127
20.305079365079365	20.374739229024943	78	127
20.409569160997734	20.47922902494331	76	127
20.502448979591836	21.280294784580498	75	127
20.618548752834467	20.699818594104308	66	127
20.618548752834467	20.699818594104308	81	127
20.723038548752836	20.804308390022676	83	127
20.723038548752836	20.804308390022676	68	127
20.839115646258502	20.920408163265307	81	127
20.839115646258502	20.920408163265307	66	127
20.943628117913832	21.024897959183672	80	127
20.943628117913832	21.16421768707483	64	127
21.059727891156463	21.140997732426303	80	127
21.16421768707483	21.245487528344672	81	127
21.280294784580498	21.373197278911565	85	127
21.280294784580498	21.767936507936508	73	127
21.373197278911565	21.41963718820862	52	127
21.373197278911565	21.41963718820862	83	127
21.442857142857143	21.524126984126983	81	127
21.442857142857143	21.524126984126983	54	127
21.558956916099774	21.640226757369614	80	127
21.558956916099774	21.640226757369614	52	127
21.651836734693877	21.872426303854876	51	127
21.651836734693877	22.19750566893424	78	127
21.767936507936508	21.849206349206348	73	127
21.872426303854876	21.953696145124717	75	127
21.988526077097507	22.058185941043085	73	127
22.08140589569161	22.603854875283446	71	127
22.19750566893424	22.255555555555556	63	127
22.19750566893424	22.255555555555556	78	127
22.27877551020408	22.36002267573696	80	127
22.27877551020408	22.36002267573696	64	127
22.394875283446712	22.46453514739229	78	127
22.394875283446712	22.46453514739229	63	127
22.487732426303854	23.03342403628118	76	127
22.487732426303854	22.696734693877552	61	127
22.603854875283446	22.673514739229024	71	127
22.696734693877552	22.778004535147392	73	127
22.812834467120183	22.894104308390023	71	127
22.917324263038548	23.31204081632653	70	127
23.03342403628118	23.091473922902495	76	127
23.03342403628118	23.091473922902495	49	127
23.103083900226757	23.172743764172335	78	127
23.103083900226757	23.172743764172335	51	127
23.207573696145126	23.288843537414966	76	127
23.207573696145126	23.288843537414966	49	127
23.31204081632653	23.4978231292517	75	127
23.31204081632653	23.4978231292517	47	127
23.31204081632653	23.393333333333334	71	127
23.41655328798186	23.4978231292517	71	127
23.4978231292517	23.939002267573695	47	127
23.4978231292517	23.579092970521543	73	127
23.590702947845806	23.671972789115646	71	127
23.69517006802721	23.776462585034015	70	127
23.69517006802721	24.554331065759637	78	127
23.8112925170068	23.939002267573695	69	127
23.939002267573695	24.02027210884354	71	127
23.939002267573695	24.055102040816326	49	127
24.055102040816326	24.136371882086166	69	127
24.055102040816326	24.159591836734695	51	127
24.159591836734695	24.240861678004535	68	127
24.159591836734695	24.322131519274375	52	127
24.275691609977326	24.36857142857143	68	127
24.36857142857143	24.41501133786848	69	127
24.36857142857143	24.49628117913832	54	127
24.44984126984127	24.531111111111112	68	127
24.554331065759637	24.995510204081633	76	127
24.554331065759637	24.728480725623584	55	127
24.554331065759637	24.64721088435374	67	127
24.68204081632653	24.7865306122449	67	127
24.7865306122449	24.86780045351474	69	127
24.7865306122449	24.937460317460317	52	127
24.891020408163264	24.972290249433108	67	127
24.995510204081633	25.227709750566895	66	127
24.995510204081633	25.1	59	127
24.995510204081633	25.227709750566895	59	127
24.995510204081633	25.076780045351473	75	127
25.111609977324264	25.227709750566895	83	127
25.227709750566895	25.66888888888889	59	127
25.227709750566895	25.308979591836735	85	127
25.343809523809522	25.425079365079366	83	127
25.44829931972789	26.28421768707483	78	127
25.44829931972789	25.52956916099773	82	127
25.564399092970522	25.66888888888889	81	127
25.66888888888889	25.75015873015873	83	127
25.66888888888889	25.773378684807255	61	127
25.784988662131518	25.877868480725624	63	127
25.784988662131518	25.854648526077096	81	127
25.877868480725624	25.959138321995464	80	127
25.877868480725624	26.040408163265305	64	127
25.993968253968255	26.09845804988662	80	127
26.09845804988662	26.226167800453513	66	127
26.09845804988662	26.179727891156464	81	127
26.21455782312925	26.260997732426304	80	127
26.28421768707483	26.725396825396825	76	127
26.28421768707483	26.365487528344673	79	127
26.28421768707483	26.446757369614513	67	127
26.40031746031746	26.50480725623583	79	127
26.50480725623583	26.58607709750567	81	127
26.50480725623583	26.66734693877551	64	127
26.62090702947846	26.7021768707483	79	127
26.725396825396825	26.841496598639456	71	127
26.725396825396825	26.841496598639456	78	127
26.725396825396825	26.80666666666667	75	127
26.841496598639456	26.922766439909296	73	127
26.841496598639456	27.294285714285714	47	127
26.957596371882087	27.038866213151927	71	127
27.062086167800455	27.143356009070295	70	127
27.062086167800455	27.863174603174603	78	127
27.178185941043083	27.294285714285714	69	127
27.294285714285714	27.398775510204082	49	127
27.294285714285714	27.375555555555554	71	127
27.410385487528345	27.445215419501135	69	127
27.410385487528345	27.46843537414966	51	127
27.46843537414966	27.538095238095238	68	127
27.46843537414966	27.61936507936508	52	127
27.57292517006803	27.677414965986394	68	127
27.677414965986394	27.805124716553287	54	127
27.677414965986394	27.74707482993197	69	127
27.7702947845805	27.839954648526078	68	127
27.863174603174603	27.93283446712018	67	127
27.863174603174603	28.014104308390024	55	127
27.863174603174603	28.281133786848073	76	127
27.96766439909297	28.072154195011336	67	127
28.072154195011336	28.223083900226758	52	127
28.072154195011336	28.15342403628118	69	127
28.176643990929705	28.257913832199545	67	127
28.281133786848073	28.50172335600907	59	127
28.281133786848073	28.362403628117914	75	127
28.281133786848073	28.50172335600907	66	127
28.397233560090704	28.50172335600907	83	127
28.50172335600907	28.861632653061225	59	127
28.50172335600907	28.861632653061225	47	127
28.50172335600907	28.548163265306123	85	127
28.571383219954647	28.65265306122449	83	127
28.664263038548754	29.45374149659864	78	127
28.664263038548754	28.72231292517007	82	127
28.757142857142856	28.861632653061225	81	127
28.861632653061225	28.966122448979593	61	127
28.861632653061225	28.966122448979593	49	127
28.861632653061225	28.942902494331065	83	127
28.977732426303856	29.059002267573696	81	127
28.977732426303856	29.08222222222222	63	127
28.977732426303856	29.08222222222222	51	127
29.08222222222222	29.233151927437643	64	127
29.08222222222222	29.233151927437643	52	127
29.08222222222222	29.1518820861678	80	127
29.18671201814059	29.26798185941043	80	127
29.26798185941043	29.41891156462585	66	127
29.26798185941043	29.41891156462585	54	127
29.26798185941043	29.349251700680274	81	127
29.38408163265306	29.430521541950114	80	127
29.45374149659864	29.60467120181406	67	127
29.45374149659864	29.535011337868482	79	127
29.45374149659864	29.860090702947847	76	127
29.45374149659864	29.60467120181406	55	127
29.558231292517007	29.662721088435376	79	127
29.662721088435376	29.813650793650794	64	127
29.662721088435376	29.743990929705216	81	127
29.662721088435376	29.813650793650794	52	127
29.778820861678003	29.83687074829932	79	127
29.860090702947847	30.06907029478458	59	127
29.860090702947847	29.929750566893425	78	127
29.860090702947847	29.929750566893425	75	127
29.860090702947847	30.011020408163265	71	127
29.95297052154195	30.06907029478458	78	127
29.95297052154195	30.06907029478458	75	127
30.06907029478458	30.266439909297052	52	127
30.06907029478458	30.17356009070295	78	127
30.06907029478458	30.17356009070295	81	127
30.06907029478458	30.208390022675736	64	127
30.17356009070295	30.231609977324265	79	127
30.17356009070295	30.231609977324265	76	127
30.266439909297052	30.359319727891158	78	127
30.266439909297052	30.440589569161	71	127
30.266439909297052	30.510249433106576	59	127
30.266439909297052	30.359319727891158	75	127
30.394149659863945	30.510249433106576	75	127
30.394149659863945	30.510249433106576	78	127
30.510249433106576	30.626349206349207	78	127
30.510249433106576	30.7540589569161	52	127
30.510249433106576	30.626349206349207	81	127
30.510249433106576	30.696009070294785	64	127
30.63795918367347	30.7540589569161	76	127
30.63795918367347	30.7540589569161	79	127
30.765668934240363	31.02108843537415	78	127
30.765668934240363	31.02108843537415	71	127
30.765668934240363	31.02108843537415	59	127
30.765668934240363	31.02108843537415	75	127
31.97310657596372	32.913492063492065	52	127
31.97310657596372	32.913492063492065	59	127
31.97310657596372	32.913492063492065	68	127
32.913492063492065	33.84231292517007	73	127
32.913492063492065	33.84231292517007	46	127
32.913492063492065	33.84231292517007	55	127
32.913492063492065	33.84231292517007	64	127
33.84231292517007	34.8059410430839	45	127
33.84231292517007	34.8059410430839	60	127
33.84231292517007	34.8059410430839	63	127
33.84231292517007	34.8059410430839	66	127
34.8175283446712	35.75795918367347	44	127
34.8175283446712	35.75795918367347	62	127
34.8175283446712	35.75795918367347	71	127
34.8175283446712	35.75795918367347	53	127
35.76956916099773	36.28040816326531	61	127
35.76956916099773	36.28040816326531	58	127
35.76956916099773	36.28040816326531	43	127
35.76956916099773	36.28040816326531	64	127
36.28040816326531	36.709977324263036	62	127
36.28040816326531	37.1627664399093	42	127
36.28040816326531	37.1627664399093	57	127
36.28040816326531	37.1627664399093	69	127
36.709977324263036	37.1627664399093	63	127
37.17437641723356	37.534285714285716	40	127
37.17437641723356	37.754875283446715	68	127
37.17437641723356	37.534285714285716	64	127
37.17437641723356	37.534285714285716	59	127
37.534285714285716	37.97546485260771	45	127
37.534285714285716	37.97546485260771	57	127
37.534285714285716	37.97546485260771	61	127
37.754875283446715	38.21927437641723	66	127
37.98705215419501	38.47469387755102	46	127
37.98705215419501	38.47469387755102	54	127
37.98705215419501	38.47469387755102	61	127
38.230884353741494	38.77655328798186	64	127
38.48630385487528	38.77655328798186	47	127
38.48630385487528	38.77655328798186	54	127
38.48630385487528	38.77655328798186	59	127
38.77655328798186	39.02036281179139	63	127
39.02036281179139	39.19451247165533	66	127
39.264149659863946	39.496371882086166	71	127
39.56603174603175	40.29746031746032	80	127
39.56603174603175	39.78662131519275	80	127
39.56603174603175	39.78662131519275	76	127
39.79823129251701	39.89108843537415	75	127
39.79823129251701	39.89108843537415	78	127
39.89108843537415	40.08848072562358	73	127
39.89108843537415	40.08848072562358	76	127
40.08848072562358	40.29746031746032	75	127
40.08848072562358	40.29746031746032	71	127
40.29746031746032	40.51804988662131	73	127
40.29746031746032	40.51804988662131	69	127
40.29746031746032	41.15659863945578	85	127
40.52963718820862	40.66897959183674	71	127
40.52963718820862	40.66897959183674	68	127
40.680589569161	40.924399092970525	69	127
40.680589569161	40.924399092970525	66	127
40.924399092970525	41.15659863945578	64	127
40.924399092970525	41.15659863945578	68	127
41.15659863945578	42.073786848072565	66	127
41.15659863945578	41.400408163265304	63	127
41.15659863945578	41.400408163265304	66	127
41.15659863945578	42.073786848072565	78	127
41.400408163265304	41.632607709750566	61	127
41.400408163265304	41.632607709750566	64	127
41.64421768707483	41.86480725623583	59	127
41.64421768707483	41.86480725623583	63	127
41.87641723356009	42.073786848072565	61	127
41.87641723356009	42.073786848072565	57	127
42.08539682539683	42.29437641723356	59	127
42.08539682539683	42.29437641723356	56	127
42.08539682539683	42.86326530612245	83	127
42.08539682539683	42.86326530612245	71	127
42.29437641723356	42.49174603174603	57	127
42.29437641723356	42.49174603174603	54	127
42.49174603174603	42.68909297052154	56	127
42.49174603174603	42.68909297052154	52	127
42.68909297052154	42.86326530612245	54	127
42.68909297052154	42.86326530612245	51	127
42.87487528344671	43.09546485260771	49	127
42.87487528344671	43.09546485260771	52	127
42.87487528344671	43.09546485260771	64	127
42.87487528344671	43.32764172335601	76	127
43.107074829931975	43.490204081632655	61	127
43.107074829931975	43.32764172335601	49	127
43.32764172335601	43.490204081632655	54	127
43.32764172335601	44.1055328798186	81	127
43.490204081632655	43.72240362811792	52	127
43.490204081632655	43.72240362811792	57	127
43.72240362811792	44.337709750566894	59	127
43.72240362811792	43.96621315192744	51	127
43.9778231292517	44.1055328798186	47	127
43.9778231292517	44.337709750566894	66	127
44.11714285714286	44.337709750566894	52	127
44.11714285714286	44.802131519274376	80	127
44.337709750566894	44.569931972789114	59	127
44.337709750566894	44.569931972789114	64	127
44.337709750566894	44.569931972789114	44	127
44.569931972789114	44.802131519274376	57	127
44.569931972789114	44.802131519274376	45	127
44.569931972789114	44.802131519274376	61	127
44.802131519274376	45.03433106575964	73	127
44.802131519274376	45.03433106575964	78	127
44.802131519274376	45.03433106575964	42	127
44.802131519274376	45.03433106575964	69	127
45.0459410430839	45.27814058956916	68	127
45.0459410430839	45.27814058956916	47	127
45.0459410430839	45.27814058956916	76	127
45.0459410430839	45.27814058956916	71	127
45.289750566893424	45.49873015873016	66	127
45.289750566893424	45.49873015873016	47	127
45.289750566893424	45.49873015873016	75	127
45.289750566893424	45.49873015873016	69	127
45.510340136054424	45.75414965986395	64	127
45.510340136054424	45.75414965986395	76	127
45.510340136054424	45.75414965986395	40	127
45.510340136054424	45.75414965986395	68	127
45.75414965986395	46.84548752834467	59	127
45.99795918367347	46.19532879818594	56	127
45.99795918367347	46.19532879818594	71	127
46.19532879818594	46.40430839002268	54	127
46.19532879818594	46.40430839002268	69	127
46.40430839002268	46.601678004535145	68	127
46.40430839002268	46.601678004535145	52	127
46.61326530612245	46.84548752834467	51	127
46.61326530612245	46.84548752834467	66	127
46.84548752834467	47.11251700680272	57	127
46.84548752834467	47.11251700680272	63	127
46.84548752834467	47.11251700680272	73	127
46.84548752834467	47.11251700680272	47	127
47.11251700680272	47.33310657596372	56	127
47.11251700680272	47.33310657596372	49	127
47.11251700680272	47.33310657596372	71	127
47.11251700680272	47.33310657596372	64	127
47.33310657596372	47.57691609977324	66	127
47.33310657596372	47.57691609977324	54	127
47.33310657596372	47.57691609977324	51	127
47.33310657596372	47.57691609977324	69	127
47.588526077097505	47.79750566893424	68	127
47.588526077097505	47.79750566893424	52	127
47.588526077097505	47.79750566893424	52	127
47.809115646258505	47.98326530612245	56	127
47.809115646258505	48.63342403628118	59	127
47.809115646258505	47.98326530612245	71	127
47.98326530612245	48.21546485260771	69	127
47.98326530612245	48.21546485260771	54	127
48.21546485260771	48.43605442176871	52	127
48.21546485260771	48.43605442176871	68	127
48.43605442176871	48.63342403628118	51	127
48.43605442176871	48.63342403628118	66	127
48.64503401360544	48.85401360544218	63	127
48.64503401360544	48.85401360544218	73	127
48.64503401360544	48.85401360544218	57	127
48.64503401360544	48.85401360544218	47	127
48.86562358276644	49.062993197278914	71	127
48.86562358276644	49.062993197278914	49	127
48.86562358276644	49.062993197278914	56	127
48.86562358276644	49.062993197278914	64	127
49.074603174603176	49.30680272108844	69	127
49.074603174603176	49.30680272108844	51	127
49.074603174603176	49.30680272108844	54	127
49.074603174603176	49.30680272108844	66	127
49.30680272108844	49.53900226757369	52	127
49.30680272108844	49.53900226757369	52	127
49.30680272108844	49.53900226757369	68	127
49.53900226757369	49.73637188208617	49	127
49.53900226757369	49.73637188208617	74	127
49.53900226757369	49.73637188208617	65	127
49.53900226757369	49.73637188208617	59	127
49.73637188208617	49.95696145124717	73	127
49.73637188208617	49.95696145124717	51	127
49.73637188208617	49.95696145124717	57	127
49.73637188208617	49.95696145124717	66	127
49.96857142857143	50.14272108843537	71	127
49.96857142857143	50.14272108843537	53	127
49.96857142857143	50.14272108843537	56	127
49.96857142857143	50.14272108843537	68	127
50.154331065759635	50.36331065759637	54	127
50.154331065759635	50.36331065759637	54	127
50.154331065759635	50.36331065759637	69	127
50.36331065759637	50.57229024943311	62	127
50.36331065759637	50.57229024943311	78	127
50.36331065759637	50.57229024943311	68	127
50.36331065759637	50.57229024943311	52	127
50.57229024943311	50.7928798185941	61	127
50.57229024943311	50.7928798185941	76	127
50.57229024943311	50.7928798185941	69	127
50.57229024943311	50.7928798185941	54	127
50.7928798185941	51.04829931972789	74	127
50.7928798185941	51.04829931972789	56	127
50.7928798185941	51.04829931972789	59	127
50.7928798185941	51.04829931972789	71	127
51.05990929705215	51.28049886621315	57	127
51.05990929705215	51.28049886621315	57	127
51.05990929705215	51.28049886621315	64	127
51.05990929705215	51.28049886621315	73	127
51.28049886621315	51.50108843537415	59	127
51.28049886621315	51.50108843537415	64	127
51.28049886621315	51.50108843537415	68	127
51.28049886621315	51.50108843537415	71	127
51.50108843537415	51.83777777777778	69	127
51.50108843537415	51.686848072562356	61	127
51.50108843537415	51.686848072562356	64	127
51.50108843537415	51.686848072562356	64	127
51.69845804988662	51.83777777777778	59	127
51.69845804988662	51.83777777777778	63	127
51.69845804988662	51.83777777777778	66	127
51.84938775510204	52.04675736961451	64	127
51.84938775510204	52.04675736961451	59	127
51.84938775510204	52.3021768707483	68	127
52.04675736961451	52.3021768707483	59	127
52.04675736961451	52.3021768707483	47	127
52.04675736961451	52.3021768707483	64	127
52.3021768707483	52.557596371882084	63	127
52.3021768707483	52.557596371882084	66	127
52.3021768707483	52.557596371882084	59	127
52.56920634920635	52.7433560090703	64	127
52.56920634920635	52.7433560090703	68	127
52.80140589569161	52.96394557823129	66	127
52.80140589569161	52.96394557823129	63	127
53.02199546485261	53.161315192743764	69	127
53.02199546485261	53.161315192743764	64	127
53.02199546485261	53.161315192743764	61	127
53.219365079365076	53.41673469387755	59	127
53.219365079365076	53.41673469387755	68	127
53.219365079365076	53.41673469387755	64	127
53.47478458049886	53.63732426303855	64	127
53.47478458049886	53.63732426303855	57	127
53.47478458049886	53.63732426303855	73	127
53.706984126984125	53.86952380952381	56	127
53.706984126984125	53.86952380952381	71	127
53.706984126984125	53.86952380952381	64	127
53.927573696145124	54.090113378684805	54	127
53.927573696145124	54.090113378684805	75	127
53.927573696145124	54.090113378684805	59	127
53.927573696145124	54.090113378684805	69	127
54.159773242630386	54.310702947845805	76	127
54.159773242630386	54.310702947845805	68	127
54.159773242630386	54.310702947845805	59	127
54.159773242630386	54.310702947845805	52	127
54.368752834467124	55.20467120181406	66	127
54.368752834467124	54.89120181405896	81	127
54.368752834467124	55.413650793650795	59	127
54.368752834467124	55.20467120181406	51	127
54.89120181405896	55.00730158730159	78	127
55.00730158730159	55.11179138321995	75	127
55.123401360544214	55.20467120181406	69	127
55.21628117913832	55.297551020408164	68	127
55.21628117913832	55.413650793650795	59	127
55.21628117913832	55.413650793650795	52	127
55.297551020408164	55.378820861678	71	127
55.413650793650795	55.47170068027211	69	127
55.413650793650795	55.599410430839	61	127
55.413650793650795	55.599410430839	45	127
55.506530612244894	55.576190476190476	66	127
55.61102040816326	55.71551020408163	64	127
55.61102040816326	55.82	56	127
55.61102040816326	55.82	47	127
55.727120181405894	55.80839002267574	68	127
55.82	55.88965986394558	66	127
55.82	56.040589569161	47	127
55.82	56.040589569161	57	127
55.92448979591837	56.005759637188206	63	127
56.040589569161	56.20312925170068	68	127
56.040589569161	56.20312925170068	64	127
56.27278911564626	56.43532879818594	66	127
56.27278911564626	56.43532879818594	63	127
56.48176870748299	56.64430839002267	81	127
56.48176870748299	56.64430839002267	69	127
56.48176870748299	56.64430839002267	64	127
56.48176870748299	56.64430839002267	61	127
56.713968253968254	56.876507936507934	80	127
56.713968253968254	56.876507936507934	59	127
56.713968253968254	56.876507936507934	64	127
56.713968253968254	56.876507936507934	68	127
56.93455782312925	57.108707482993196	85	127
56.93455782312925	57.108707482993196	57	127
56.93455782312925	57.108707482993196	64	127
56.93455782312925	57.108707482993196	73	127
57.27124716553288	57.44539682539683	83	127
57.27124716553288	57.44539682539683	64	127
57.27124716553288	57.44539682539683	71	127
57.27124716553288	57.44539682539683	56	127
57.5150566893424	57.80530612244898	54	127
57.5150566893424	57.80530612244898	87	127
57.5150566893424	57.80530612244898	69	127
57.5150566893424	57.80530612244898	59	127
57.87496598639456	58.095555555555556	88	127
57.87496598639456	58.095555555555556	52	127
57.87496598639456	58.095555555555556	59	127
57.87496598639456	58.095555555555556	68	127
58.1768253968254	58.45546485260771	69	127
58.1768253968254	58.45546485260771	51	127
58.1768253968254	58.45546485260771	60	127
58.1768253968254	59.09401360544218	90	127
59.09401360544218	59.186893424036285	88	127
59.19850340136055	59.395873015873015	87	127
59.40748299319728	59.58163265306123	85	127
59.58163265306123	60.046031746031744	56	127
59.58163265306123	59.81383219954648	78	127
59.58163265306123	59.81383219954648	69	127
59.58163265306123	59.81383219954648	84	127
59.81383219954648	60.046031746031744	87	127
59.81383219954648	60.046031746031744	75	127
59.81383219954648	60.046031746031744	66	127
60.046031746031744	60.24340136054422	73	127
60.046031746031744	60.24340136054422	88	127
60.046031746031744	60.45238095238095	61	127
60.046031746031744	60.24340136054422	64	127
60.24340136054422	60.45238095238095	68	127
60.24340136054422	60.68458049886621	76	127
60.24340136054422	60.45238095238095	85	127
60.46399092970522	60.94	54	127
60.46399092970522	60.68458049886621	67	127
60.46399092970522	60.68458049886621	82	127
60.69619047619047	60.94	64	127
60.69619047619047	60.94	85	127
60.69619047619047	60.94	73	127
60.94	61.160589569161	71	127
60.94	61.160589569161	86	127
60.94	61.39278911564626	59	127
60.94	61.160589569161	62	127
61.160589569161	61.39278911564626	66	127
61.160589569161	61.601768707483	74	127
61.160589569161	61.39278911564626	83	127
61.39278911564626	61.601768707483	80	127
61.39278911564626	61.601768707483	65	127
61.39278911564626	61.7875283446712	52	127
61.61337868480726	61.7875283446712	83	127
61.61337868480726	61.7875283446712	71	127
61.61337868480726	61.7875283446712	62	127
61.799138321995464	62.228707482993194	57	127
61.799138321995464	62.019727891156464	85	127
61.799138321995464	62.019727891156464	69	127
61.799138321995464	62.019727891156464	61	127
62.019727891156464	62.44929705215419	64	127
62.019727891156464	62.228707482993194	73	127
62.019727891156464	62.228707482993194	81	127
62.228707482993194	62.44929705215419	68	127
62.228707482993194	62.62344671201814	59	127
62.228707482993194	62.44929705215419	80	127
62.44929705215419	62.62344671201814	71	127
62.44929705215419	62.62344671201814	83	127
62.44929705215419	62.62344671201814	59	127
62.635056689342406	63.09945578231292	47	127
62.635056689342406	62.8556462585034	63	127
62.635056689342406	62.8556462585034	69	127
62.635056689342406	62.8556462585034	78	127
62.8556462585034	63.09945578231292	59	127
62.8556462585034	63.09945578231292	83	127
62.8556462585034	63.09945578231292	71	127
63.111065759637185	63.36648526077097	52	127
63.111065759637185	63.25038548752835	64	127
63.111065759637185	63.36648526077097	68	127
63.111065759637185	63.36648526077097	59	127
63.25038548752835	63.331655328798185	68	127
63.36648526077097	63.447755102040816	71	127
63.4825850340136	63.57546485260771	68	127
63.610294784580496	63.69156462585034	76	127
63.714784580498865	63.784444444444446	71	127
63.81927437641723	63.90054421768708	80	127
63.91215419501134	63.9237641723356	76	127
63.94698412698413	64.5622902494331	83	127
64.13274376417233	64.29528344671202	59	127
64.13274376417233	64.29528344671202	56	127
64.13274376417233	64.29528344671202	62	127
64.35333333333334	64.51587301587301	62	127
64.35333333333334	64.51587301587301	59	127
64.35333333333334	64.51587301587301	56	127
64.57392290249433	64.79451247165532	65	127
64.57392290249433	64.73646258503402	62	127
64.57392290249433	64.73646258503402	59	127
64.57392290249433	64.73646258503402	56	127
64.8061224489796	65.02671201814059	57	127
64.8061224489796	65.02671201814059	57	127
64.8061224489796	65.02671201814059	66	127
64.8061224489796	65.02671201814059	61	127
65.03832199546486	65.14281179138322	69	127
65.14281179138322	65.24730158730159	73	127
65.25891156462585	65.36340136054422	78	127
65.36340136054422	65.46789115646258	80	127
65.47950113378685	65.57238095238095	81	127
65.57238095238095	65.67687074829932	83	127
65.68845804988662	66.25736961451247	85	127
65.83938775510204	66.00195011337868	69	127
65.83938775510204	66.00195011337868	66	127
65.83938775510204	66.00195011337868	59	127
66.06	66.22251700680272	59	127
66.06	66.22251700680272	69	127
66.06	66.22251700680272	66	127
66.26897959183674	66.43151927437641	59	127
66.26897959183674	66.501179138322	75	127
66.26897959183674	66.43151927437641	66	127
66.26897959183674	66.43151927437641	69	127
66.51278911564626	66.73335600907029	68	127
66.51278911564626	66.73335600907029	52	127
66.51278911564626	66.6288888888889	64	127
66.51278911564626	66.73335600907029	59	127
66.6288888888889	66.71013605442177	68	127
66.74498866213152	66.82625850340136	71	127
66.83784580498866	66.91913832199546	68	127
66.95396825396826	67.0352380952381	76	127
67.05845804988662	67.13972789115647	71	127
67.17455782312925	67.25582766439909	80	127
67.27904761904762	67.34868480725623	76	127
67.38353741496599	67.8827664399093	83	127
67.55768707482993	67.68539682539682	44	127
67.55768707482993	67.68539682539682	74	127
67.55768707482993	67.68539682539682	59	127
67.69700680272109	67.83632653061224	59	127
67.69700680272109	67.83632653061224	44	127
67.69700680272109	67.83632653061224	74	127
67.89437641723356	68.1033560090703	65	127
67.89437641723356	68.04530612244898	74	127
67.89437641723356	68.04530612244898	59	127
67.89437641723356	68.04530612244898	44	127
68.1149433106576	68.32394557823129	45	127
68.1149433106576	68.32394557823129	66	127
68.1149433106576	68.32394557823129	73	127
68.1149433106576	68.32394557823129	57	127
68.35877551020408	68.53292517006803	69	127
68.53292517006803	68.62578231292517	73	127
68.6374149659864	68.74190476190476	78	127
68.74190476190476	68.84639455782313	80	127
68.85800453514739	68.96249433106576	81	127
68.96249433106576	69.05537414965987	83	127
69.06698412698412	69.62424036281179	85	127
69.24111111111111	69.40367346938775	69	127
69.24111111111111	69.40367346938775	47	127
69.24111111111111	69.40367346938775	54	127
69.46172335600907	69.62424036281179	47	127
69.46172335600907	69.62424036281179	69	127
69.46172335600907	69.62424036281179	54	127
69.62424036281179	69.78680272108843	54	127
69.62424036281179	69.83324263038548	75	127
69.62424036281179	69.78680272108843	69	127
69.62424036281179	69.78680272108843	47	127
69.84485260770975	70.04222222222222	52	127
69.84485260770975	70.04222222222222	68	127
69.84485260770975	70.04222222222222	76	127
69.84485260770975	69.93773242630385	52	127
69.93773242630385	70.04222222222222	56	127
70.05383219954649	70.15829931972789	59	127
70.15829931972789	70.25120181405896	64	127
70.26278911564626	70.35569160997733	68	127
70.35569160997733	70.43696145124717	64	127
70.47179138321995	70.56467120181406	68	127
70.58789115646259	70.66916099773243	64	127
70.69238095238096	71.69083900226758	71	127
70.88975056689343	71.02904761904762	63	127
70.88975056689343	70.97102040816327	81	127
70.97102040816327	71.07551020408164	78	127
71.0871201814059	71.19160997732426	81	127
71.0871201814059	71.23804988662131	63	127
71.19160997732426	71.2844671201814	78	127
71.29609977324263	71.37736961451247	81	127
71.29609977324263	71.42380952380952	63	127
71.37736961451247	71.47024943310657	78	127
71.48185941043084	71.69083900226758	80	127
71.48185941043084	71.58634920634921	64	127
71.58634920634921	71.69083900226758	68	127
71.70244897959184	71.8069387755102	71	127
71.8069387755102	71.91142857142857	76	127
71.92301587301587	72.0275283446712	80	127
72.0275283446712	72.10879818594104	76	127
72.14362811791383	72.22489795918368	71	127
72.2481179138322	72.32938775510205	68	127
72.35260770975057	73.26979591836735	69	127
72.57319727891156	72.67768707482993	78	127
72.57319727891156	72.73573696145125	47	127
72.67768707482993	72.7937641723356	75	127
72.81698412698412	72.99115646258504	47	127
72.81698412698412	72.92147392290249	78	127
72.92147392290249	73.03759637188209	75	127
73.04918367346939	73.21174603174603	47	127
73.04918367346939	73.15369614512471	78	127
73.15369614512471	73.26979591836735	75	127
73.2814058956916	73.49038548752834	76	127
73.2814058956916	73.49038548752834	52	127
73.2814058956916	73.49038548752834	68	127
73.2814058956916	73.39750566893424	52	127
73.39750566893424	73.49038548752834	56	127
73.50199546485261	73.58324263038548	59	127
73.58324263038548	73.66453514739229	64	127
73.67614512471656	73.78063492063492	68	127
73.78063492063492	73.87351473922902	64	127
73.90834467120182	73.98961451247166	68	127
74.01283446712019	74.09410430839003	64	127
74.12893424036281	75.11578231292518	71	127
74.33791383219955	74.47723356009071	63	127
74.33791383219955	74.41918367346939	69	127
74.41918367346939	74.52367346938776	66	127
74.53528344671201	74.67460317460318	63	127
74.53528344671201	74.61655328798186	69	127
74.61655328798186	74.709410430839	66	127
74.72104308390023	74.80231292517007	69	127
74.72104308390023	74.86036281179139	63	127
74.80231292517007	74.90680272108844	66	127
74.9184126984127	75.11578231292518	68	127
74.9184126984127	75.01129251700681	64	127
75.01129251700681	75.11578231292518	68	127
75.12739229024943	75.2318820861678	71	127
75.2318820861678	75.33637188208617	76	127
75.33637188208617	75.41764172335601	80	127
75.41764172335601	75.49891156462586	76	127
75.52213151927438	75.59179138321996	71	127
75.59179138321996	75.6730612244898	68	127
75.70789115646258	76.6134693877551	69	127
75.96328798185941	76.13746031746032	47	127
75.96328798185941	76.079410430839	78	127
76.079410430839	76.18390022675737	75	127
76.19551020408163	76.3	78	127
76.19551020408163	76.35804988662132	47	127
76.3	76.40448979591837	75	127
76.41609977324264	76.520589569161	78	127
76.41609977324264	76.56702947845805	47	127
76.520589569161	76.6134693877551	75	127
76.6250566893424	76.82244897959184	76	127
76.6250566893424	76.82244897959184	52	127
76.6250566893424	76.82244897959184	68	127
76.8340589569161	76.91532879818594	59	127
76.91532879818594	77.00818594104308	58	127
77.01981859410431	77.11267573696145	59	127
77.11267573696145	77.20557823129252	58	127
77.21718820861678	77.32167800453514	59	127
77.32167800453514	77.43777777777778	58	127
77.44938775510204	78.33174603174604	47	127
77.44938775510204	78.5639455782313	59	127
77.6815873015873	77.77446712018141	78	127
77.6815873015873	77.77446712018141	69	127
77.77446712018141	77.86734693877551	66	127
77.77446712018141	77.86734693877551	75	127
77.87893424036281	77.98344671201814	69	127
77.87893424036281	77.98344671201814	78	127
77.98344671201814	78.0879365079365	66	127
77.98344671201814	78.0879365079365	75	127
78.09954648526077	78.20403628117914	78	127
78.09954648526077	78.20403628117914	69	127
78.20403628117914	78.33174603174604	66	127
78.20403628117914	78.33174603174604	75	127
78.34335600907029	78.5639455782313	76	127
78.34335600907029	78.5639455782313	52	127
78.34335600907029	78.5639455782313	68	127
78.57555555555555	78.68004535147392	59	127
78.68004535147392	78.77290249433106	58	127
78.78453514739229	78.88902494331066	59	127
78.88902494331066	78.99351473922903	58	127
79.00512471655328	79.10961451247165	59	127
79.10961451247165	79.21410430839002	58	127
79.22571428571429	80.56083900226757	59	127
79.22571428571429	80.09646258503402	47	127
79.43469387755103	79.53916099773242	78	127
79.43469387755103	79.53916099773242	69	127
79.53916099773242	79.6320634920635	66	127
79.53916099773242	79.6320634920635	75	127
79.64365079365079	79.74816326530612	69	127
79.64365079365079	79.74816326530612	78	127
79.74816326530612	79.87587301587301	66	127
79.74816326530612	79.87587301587301	75	127
79.88748299319728	79.99197278911565	69	127
79.88748299319728	79.99197278911565	78	127
79.99197278911565	80.09646258503402	66	127
79.99197278911565	80.09646258503402	75	127
80.11968253968254	81.00204081632653	76	127
80.11968253968254	80.3518820861678	52	127
80.11968253968254	80.56083900226757	68	127
80.36349206349206	80.45637188208617	40	127
80.45637188208617	80.56083900226757	39	127
80.5724716553288	81.47804988662132	52	127
80.5724716553288	80.67696145124717	40	127
80.5724716553288	81.47804988662132	56	127
80.67696145124717	80.78145124716553	39	127
80.79303854875283	80.89755102040816	40	127
80.89755102040816	81.00204081632653	39	127
81.0136507936508	81.11814058956917	40	127
81.0136507936508	81.47804988662132	74	127
81.12975056689342	81.23424036281179	39	127
81.24585034013606	81.36195011337868	40	127
81.37356009070295	81.47804988662132	39	127
81.48965986394558	81.60575963718821	40	127
81.48965986394558	82.01210884353742	71	127
81.48965986394558	82.01210884353742	59	127
81.48965986394558	82.01210884353742	56	127
81.60575963718821	81.72185941043084	39	127
81.72185941043084	81.861179138322	40	127
81.87278911564626	82.01210884353742	39	127
82.02371882086167	84.728820861678	40	127
82.02371882086167	84.728820861678	68	127
82.02371882086167	84.728820861678	59	127
82.02371882086167	84.728820861678	62	127
85.29773242630385	85.3790022675737	64	127
85.41383219954649	85.49507936507936	66	127
85.52993197278911	85.61120181405896	64	127
85.63442176870748	86.88829931972789	61	127
85.75049886621315	85.83179138321995	52	127
85.85501133786848	85.93628117913832	54	127
85.97111111111111	86.05238095238096	52	127
86.08721088435374	86.67931972789115	57	127
86.21492063492063	86.29619047619047	76	127
86.319410430839	86.40068027210884	78	127
86.40068027210884	86.42390022675737	76	127
86.4471201814059	86.99278911564626	81	127
86.57482993197279	86.65609977324263	64	127
86.67931972789115	86.74895691609977	66	127
86.67931972789115	86.88829931972789	52	127
86.78380952380952	86.86507936507937	64	127
86.88829931972789	87.10888888888888	69	127
86.88829931972789	87.10888888888888	49	127
86.88829931972789	87.10888888888888	64	127
87.00437641723356	87.08566893424036	85	127
87.10888888888888	87.32947845804989	73	127
87.10888888888888	87.19015873015873	83	127
87.10888888888888	87.32947845804989	61	127
87.10888888888888	87.32947845804989	45	127
87.22498866213152	87.30625850340137	81	127
87.32947845804989	87.75904761904762	40	127
87.32947845804989	87.65455782312925	74	127
87.32947845804989	87.65455782312925	59	127
87.32947845804989	87.43396825396826	81	127
87.44557823129252	87.52684807256236	80	127
87.55006802721088	87.63133786848073	78	127
87.66614512471655	87.7358276643991	80	127
87.66614512471655	87.75904761904762	62	127
87.66614512471655	87.75904761904762	71	127
87.75904761904762	87.84031746031746	81	127
87.75904761904762	88.06090702947846	73	127
87.75904761904762	88.1421768707483	45	127
87.75904761904762	88.06090702947846	57	127
87.87514739229024	87.94480725623583	85	127
87.96802721088436	88.03768707482993	83	127
88.07251700680273	88.13056689342403	81	127
88.07251700680273	88.1421768707483	61	127
88.07251700680273	88.1421768707483	69	127
88.1421768707483	88.4556462585034	59	127
88.1421768707483	88.24666666666667	81	127
88.1421768707483	88.56013605442178	40	127
88.1421768707483	88.4556462585034	74	127
88.25827664399092	88.33954648526077	80	127
88.3627664399093	88.43242630385488	78	127
88.46725623582766	88.53689342403628	80	127
88.46725623582766	88.56013605442178	62	127
88.46725623582766	88.56013605442178	71	127
88.56013605442178	88.82716553287982	57	127
88.56013605442178	88.6414058956916	81	127
88.56013605442178	88.82716553287982	73	127
88.56013605442178	88.92002267573696	45	127
88.6762358276644	88.72267573696145	85	127
88.74589569160997	88.80394557823129	83	127
88.83877551020409	88.90843537414966	81	127
88.83877551020409	88.92002267573696	69	127
88.83877551020409	88.92002267573696	61	127
88.92002267573696	89.03614512471655	81	127
88.92002267573696	89.15224489795918	40	127
88.92002267573696	89.15224489795918	59	127
88.92002267573696	89.15224489795918	68	127
89.03614512471655	89.1174149659864	80	127
89.15224489795918	89.22190476190477	78	127
89.15224489795918	89.34961451247166	52	127
89.15224489795918	89.34961451247166	59	127
89.15224489795918	89.34961451247166	68	127
89.24512471655329	89.31478458049887	76	127
89.34961451247166	89.47732426303855	75	127
89.34961451247166	89.58181405895692	47	127
89.34961451247166	89.58181405895692	59	127
89.34961451247166	89.58181405895692	69	127
89.47732426303855	89.54698412698413	76	127
89.58181405895692	89.67469387755102	78	127
89.58181405895692	89.84884353741496	69	127
89.58181405895692	89.84884353741496	59	127
89.58181405895692	89.84884353741496	47	127
89.72113378684807	89.82562358276644	80	127
89.86045351473923	91.05628117913832	76	127
89.86045351473923	91.05628117913832	68	127
89.86045351473923	91.05628117913832	52	127
89.86045351473923	91.05628117913832	59	127
91.41619047619048	91.4742403628118	83	127
91.50907029478458	91.54390022675737	82	127
91.5787074829932	91.66	83	127
91.69482993197279	93.06480725623582	74	127
91.81092970521541	91.91541950113378	71	127
91.95024943310658	92.03151927437642	70	127
92.05473922902495	92.13600907029479	71	127
92.13600907029479	92.69328798185941	62	127
92.25210884353741	92.26371882086168	59	127
92.29854875283446	92.37981859410431	58	127
92.39142857142858	92.43786848072563	59	127
92.47267573696145	92.93709750566893	52	127
92.57718820861678	92.65845804988662	47	127
92.69328798185941	92.93709750566893	56	127
92.69328798185941	92.77455782312926	46	127
92.8209977324263	92.90226757369615	47	127
92.93709750566893	93.18090702947846	56	127
92.93709750566893	93.41310657596372	40	127
92.93709750566893	93.18090702947846	59	127
93.06480725623582	93.14607709750567	78	127
93.18090702947846	93.41310657596372	62	127
93.18090702947846	93.27378684807256	76	127
93.18090702947846	93.41310657596372	59	127
93.29700680272109	93.3898866213152	74	127
93.42471655328798	93.86589569160998	45	127
93.42471655328798	93.76140589569161	57	127
93.42471655328798	93.76140589569161	61	127
93.42471655328798	93.52920634920635	74	127
93.52920634920635	93.61047619047619	73	127
93.64530612244899	93.72655328798186	71	127
93.76140589569161	93.86589569160998	52	127
93.76140589569161	93.86589569160998	64	127
93.76140589569161	93.84267573696145	69	127
93.87748299319728	94.28385487528345	52	127
93.87748299319728	94.17936507936508	59	127
93.87748299319728	93.98197278911564	68	127
93.87748299319728	94.17936507936508	62	127
93.98197278911564	94.04004535147392	69	127
94.07487528344672	94.14453514739229	71	127
94.17936507936508	94.28385487528345	52	127
94.17936507936508	94.26061224489796	73	127
94.17936507936508	94.28385487528345	64	127
94.29546485260771	94.72503401360544	45	127
94.29546485260771	94.62052154195011	61	127
94.29546485260771	94.39995464852608	69	127
94.29546485260771	94.62052154195011	57	127
94.39995464852608	94.46961451247165	73	127
94.50444444444445	94.58571428571429	76	127
94.62052154195011	94.70181405895691	76	127
94.62052154195011	94.72503401360544	64	127
94.62052154195011	94.72503401360544	52	127
94.73664399092971	95.06172335600907	56	127
94.73664399092971	95.13138321995464	40	127
94.73664399092971	95.06172335600907	59	127
94.73664399092971	94.8295238095238	76	127
94.8295238095238	94.92240362811792	78	127
94.9572335600907	95.03850340136054	76	127
95.06172335600907	95.13138321995464	64	127
95.06172335600907	95.13138321995464	52	127
95.06172335600907	95.10816326530612	74	127
95.14299319727891	95.24748299319728	74	127
95.14299319727891	95.54934240362812	45	127
95.14299319727891	95.44485260770975	57	127
95.14299319727891	95.44485260770975	61	127
95.24748299319728	95.29392290249433	73	127
95.32875283446712	95.3984126984127	71	127
95.44485260770975	95.54934240362812	64	127
95.44485260770975	95.54934240362812	52	127
95.44485260770975	95.52612244897959	69	127
95.56095238095239	95.67705215419501	68	127
95.56095238095239	95.897641723356	62	127
95.56095238095239	95.897641723356	59	127
95.56095238095239	96.00213151927437	52	127
95.67705215419501	95.75832199546485	69	127
95.79315192743765	95.86281179138322	71	127
95.897641723356	96.00213151927437	64	127
95.897641723356	96.00213151927437	52	127
95.897641723356	95.97891156462585	73	127
96.01374149659864	96.21111111111111	45	127
96.01374149659864	96.61746031746031	69	127
96.01374149659864	96.61746031746031	61	127
96.01374149659864	96.10662131519274	52	127
96.10662131519274	96.18789115646258	64	127
96.22272108843538	96.28077097505668	66	127
96.31560090702948	96.39687074829932	64	127
96.43170068027212	96.8148299319728	76	127
96.62907029478458	96.8148299319728	71	127
96.62907029478458	96.8148299319728	68	127
96.82643990929705	97.04702947845804	69	127
96.82643990929705	97.04702947845804	73	127
97.05863945578231	97.2792290249433	71	127
97.05863945578231	97.2792290249433	68	127
97.29083900226757	97.46498866213152	74	127
97.29083900226757	97.46498866213152	71	127
97.47659863945579	97.65074829931973	73	127
97.47659863945579	97.65074829931973	69	127
97.66235827664399	98.32412698412699	68	127
97.66235827664399	98.32412698412699	71	127
97.76684807256235	97.8481179138322	52	127
97.88294784580499	97.95260770975057	54	127
97.98743764172336	98.08031746031746	52	127
98.11514739229025	98.54471655328798	64	127
98.33573696145125	98.54471655328798	73	127
98.33573696145125	98.54471655328798	70	127
98.55632653061224	98.76530612244898	71	127
98.55632653061224	98.76530612244898	74	127
98.77691609977325	98.99750566893424	70	127
98.77691609977325	98.99750566893424	73	127
99.00911564625851	99.1948752834467	73	127
99.00911564625851	99.1948752834467	76	127
99.20648526077098	99.38063492063492	71	127
99.20648526077098	99.38063492063492	74	127
99.39224489795919	100.1120634920635	57	127
99.39224489795919	100.1120634920635	49	127
99.39224489795919	99.61283446712018	73	127
99.39224489795919	99.49673469387756	69	127
99.49673469387756	99.58961451247166	64	127
99.62444444444445	99.72893424036282	66	127
99.7637641723356	99.85664399092971	64	127
99.90308390022676	100.27460317460317	76	127
100.12367346938775	100.27460317460317	52	127
100.12367346938775	100.27460317460317	59	127
100.28621315192744	100.50680272108843	57	127
100.28621315192744	100.50680272108843	61	127
100.40231292517007	100.48358276643991	76	127
100.5184126984127	100.72739229024943	59	127
100.5184126984127	100.72739229024943	56	127
100.5184126984127	100.58807256235828	78	127
100.62290249433107	100.7041723356009	76	127
100.7390022675737	100.93637188208616	59	127
100.7390022675737	101.13374149659865	88	127
100.7390022675737	100.93637188208616	62	127
100.94798185941043	101.13374149659865	61	127
100.94798185941043	101.13374149659865	57	127
101.1453514739229	101.81873015873016	59	127
101.1453514739229	101.81873015873016	52	127
101.24984126984127	101.33111111111111	64	127
101.37755102040816	101.44721088435374	66	127
101.48204081632653	101.5517006802721	64	127
101.5865306122449	102.06253968253968	76	127
101.83034013605442	102.06253968253968	57	127
101.83034013605442	102.06253968253968	61	127
102.07414965986395	102.31795918367347	62	127
102.07414965986395	102.31795918367347	59	127
102.20185941043084	102.29473922902494	76	127
102.32956916099774	102.55015873015873	58	127
102.32956916099774	102.55015873015873	61	127
102.32956916099774	102.39922902494331	78	127
102.4340589569161	102.5269387755102	76	127
102.561768707483	102.77074829931973	61	127
102.561768707483	102.77074829931973	64	127
102.561768707483	102.99133786848073	88	127
102.78235827664399	102.99133786848073	59	127
102.78235827664399	102.99133786848073	62	127
103.00294784580498	103.22353741496599	61	127
103.00294784580498	103.22353741496599	57	127
103.10743764172335	103.20031746031746	73	127
103.23514739229024	103.30480725623583	74	127
103.33963718820861	103.43251700680273	73	127
103.4673469387755	104.31487528344671	78	127
103.57183673469387	103.64149659863945	85	127
103.57183673469387	103.64149659863945	69	127
103.67632653061224	103.74598639455782	71	127
103.67632653061224	103.74598639455782	86	127
103.78081632653061	103.86208616780046	69	127
103.78081632653061	103.86208616780046	85	127
103.89691609977324	104.10589569160997	68	127
103.89691609977324	103.96657596371882	83	127
104.0014058956916	104.08267573696145	83	127
104.11750566893424	104.17555555555556	85	127
104.21038548752834	104.29165532879819	87	127
104.32648526077098	104.43097505668935	88	127
104.32648526077098	104.87215419501133	76	127
104.43097505668935	104.51224489795918	87	127
104.43097505668935	104.51224489795918	56	127
104.54707482993197	104.61673469387755	57	127
104.54707482993197	104.61673469387755	85	127
104.65156462585034	104.73283446712018	56	127
104.65156462585034	104.73283446712018	83	127
104.76766439909296	105.30172335600908	81	127
104.76766439909296	104.9766439909297	54	127
104.87215419501133	104.95342403628118	76	127
104.98825396825397	105.05791383219955	78	127
105.09274376417234	105.17401360544218	76	127
105.20884353741496	105.94027210884354	75	127
105.30172335600908	105.3829931972789	81	127
105.30172335600908	105.3829931972789	66	127
105.4178231292517	105.48748299319728	83	127
105.4178231292517	105.48748299319728	68	127
105.52231292517007	105.60358276643991	81	127
105.52231292517007	105.60358276643991	66	127
105.6384126984127	105.84739229024943	64	127
105.6384126984127	105.70807256235828	80	127
105.74290249433106	105.8241723356009	80	127
105.8590022675737	105.87061224489796	81	127
105.90544217687075	105.94027210884354	83	127
105.94027210884354	106.42789115646258	73	127
105.94027210884354	106.02154195011337	85	127
106.02154195011337	106.10281179138322	83	127
106.02154195011337	106.10281179138322	52	127
106.13764172335601	106.20730158730159	81	127
106.13764172335601	106.20730158730159	54	127
106.20730158730159	106.28857142857143	52	127
106.20730158730159	106.28857142857143	80	127
106.32340136054422	106.82263038548753	78	127
106.32340136054422	106.53238095238095	51	127
106.42789115646258	106.50916099773242	73	127
106.54399092970522	106.61365079365079	75	127
106.64848072562359	106.72975056689343	73	127
106.76458049886621	107.240589569161	71	127
106.82263038548753	106.8922902494331	78	127
106.82263038548753	106.8922902494331	63	127
106.9271201814059	106.99678004535147	64	127
106.9271201814059	106.99678004535147	80	127
107.03160997732427	107.11287981859411	78	127
107.03160997732427	107.11287981859411	63	127
107.14770975056689	107.68176870748299	76	127
107.14770975056689	107.34507936507937	61	127
107.240589569161	107.32185941043083	71	127
107.35668934240363	107.4263492063492	73	127
107.461179138322	107.54244897959184	71	127
107.57727891156462	107.9952380952381	70	127
107.68176870748299	107.76303854875283	76	127
107.68176870748299	107.76303854875283	49	127
107.79786848072563	107.8675283446712	78	127
107.79786848072563	107.8675283446712	51	127
107.89074829931972	107.97201814058957	76	127
107.89074829931972	107.97201814058957	49	127
108.00684807256236	108.20421768707483	75	127
108.00684807256236	108.20421768707483	47	127
108.00684807256236	108.07650793650794	71	127
108.09972789115646	108.20421768707483	71	127
108.21582766439909	108.61056689342404	47	127
108.21582766439909	108.28548752834467	73	127
108.32031746031745	108.38997732426304	71	127
108.4015873015873	109.21428571428571	78	127
108.4015873015873	108.47124716553287	70	127
108.50607709750567	108.61056689342404	69	127
108.6221768707483	108.72666666666667	49	127
108.6221768707483	108.69183673469388	71	127
108.72666666666667	108.8079365079365	69	127
108.72666666666667	108.81954648526077	51	127
108.83115646258503	108.98208616780046	52	127
108.83115646258503	108.90081632653062	68	127
108.9356462585034	109.02852607709751	68	127
109.04013605442177	109.1562358276644	54	127
109.04013605442177	109.07496598639456	69	127
109.10979591836735	109.19106575963718	68	127
109.22589569160998	109.30716553287982	67	127
109.22589569160998	109.65546485260771	76	127
109.22589569160998	109.38843537414967	55	127
109.3419954648526	109.44648526077097	67	127
109.45809523809524	109.59741496598639	52	127
109.45809523809524	109.51614512471656	69	127
109.55097505668934	109.63224489795918	67	127
109.66707482993198	109.85283446712018	66	127
109.66707482993198	109.75995464852608	59	127
109.66707482993198	109.72512471655328	75	127
109.66707482993198	109.85283446712018	59	127
109.75995464852608	109.85283446712018	83	127
109.86444444444444	109.93410430839002	85	127
109.86444444444444	110.29401360544217	59	127
109.96893424036281	110.05020408163266	83	127
110.08503401360544	110.87451247165532	78	127
110.08503401360544	110.15469387755103	82	127
110.1895238095238	110.29401360544217	81	127
110.30562358276644	110.41011337868481	61	127
110.30562358276644	110.37528344671202	83	127
110.41011337868481	110.51460317460318	63	127
110.41011337868481	110.49138321995464	81	127
110.52621315192744	110.54943310657596	80	127
110.52621315192744	110.60748299319728	64	127
110.56104308390023	110.6655328798186	80	127
110.67714285714285	110.74680272108843	81	127
110.67714285714285	110.82807256235827	66	127
110.78163265306122	110.8512925170068	80	127
110.88612244897959	111.03705215419501	67	127
110.88612244897959	111.30408163265307	76	127
110.88612244897959	110.95578231292517	79	127
110.99061224489796	111.09510204081633	79	127
111.10671201814058	111.17637188208617	81	127
111.10671201814058	111.257641723356	64	127
111.21120181405895	111.2924716553288	79	127
111.31569160997732	111.52467120181406	78	127
111.31569160997732	111.46662131519274	71	127
111.31569160997732	111.3853514739229	75	127
111.42018140589569	111.52467120181406	71	127
111.53628117913833	111.94263038548753	47	127
111.53628117913833	111.6059410430839	73	127
111.64077097505668	111.698820861678	71	127
111.7336507936508	112.55795918367347	78	127
111.7336507936508	111.80331065759637	70	127
111.83814058956916	111.94263038548753	69	127
111.95424036281179	112.03551020408163	71	127
111.95424036281179	112.07034013605443	49	127
112.07034013605443	112.16321995464853	69	127
112.07034013605443	112.18643990929705	51	127
112.19804988662132	112.24448979591837	68	127
112.19804988662132	112.31414965986394	52	127
112.27931972789116	112.37219954648526	68	127
112.38380952380952	112.53473922902495	54	127
112.38380952380952	112.4534693877551	69	127
112.48829931972789	112.55795918367347	68	127
112.55795918367347	112.95269841269841	76	127
112.55795918367347	112.59278911564626	67	127
112.55795918367347	112.66244897959184	55	127
112.62761904761905	112.72049886621315	67	127
112.73210884353742	112.89464852607709	52	127
112.73210884353742	112.81337868480726	69	127
112.84820861678004	112.92947845804989	67	127
112.96430839002268	113.03396825396825	75	127
112.96430839002268	113.16167800453515	66	127
112.96430839002268	113.16167800453515	59	127
113.06879818594105	113.16167800453515	83	127
113.17328798185942	113.54480725623583	59	127
113.17328798185942	113.24294784580499	85	127
113.17328798185942	113.54480725623583	47	127
113.27777777777777	113.33582766439909	83	127
113.37065759637188	113.4287074829932	82	127
113.37065759637188	114.17174603174603	78	127
113.46353741496598	113.54480725623583	81	127
113.5564172335601	113.62607709750567	83	127
113.5564172335601	113.66090702947845	49	127
113.5564172335601	113.66090702947845	61	127
113.66090702947845	113.75378684807256	63	127
113.66090702947845	113.75378684807256	51	127
113.66090702947845	113.7421768707483	81	127
113.76539682539682	113.91632653061224	64	127
113.76539682539682	113.91632653061224	52	127
113.76539682539682	113.83505668934241	80	127
113.86988662131519	113.95115646258503	80	127
113.9627664399093	114.11369614512472	66	127
113.9627664399093	114.11369614512472	54	127
113.9627664399093	114.03242630385488	81	127
114.06725623582767	114.1485260770975	80	127
114.1833560090703	114.57809523809524	76	127
114.1833560090703	114.33428571428571	55	127
114.1833560090703	114.25301587301587	79	127
114.1833560090703	114.33428571428571	67	127
114.28784580498866	114.38072562358276	79	127
114.39233560090703	114.53165532879818	64	127
114.39233560090703	114.4619954648526	81	127
114.39233560090703	114.53165532879818	52	127
114.4968253968254	114.5548752834467	79	127
114.5897052154195	114.65936507936507	75	127
114.5897052154195	114.65936507936507	78	127
114.5897052154195	114.81029478458049	59	127
114.5897052154195	114.75224489795919	71	127
114.69419501133787	114.81029478458049	78	127
114.69419501133787	114.81029478458049	75	127
114.81029478458049	114.96122448979592	64	127
114.81029478458049	114.91478458049886	81	127
114.81029478458049	114.91478458049886	78	127
114.81029478458049	115.01927437641723	52	127
114.92639455782313	114.9960544217687	79	127
114.92639455782313	114.9960544217687	76	127
115.0308843537415	115.23986394557824	59	127
115.0308843537415	115.18181405895692	71	127
115.0308843537415	115.11215419501134	75	127
115.0308843537415	115.11215419501134	78	127
115.14698412698412	115.23986394557824	75	127
115.14698412698412	115.23986394557824	78	127
115.25147392290249	115.36757369614513	78	127
115.25147392290249	115.42562358276643	64	127
115.25147392290249	115.36757369614513	81	127
115.25147392290249	115.48367346938775	52	127
115.36757369614513	115.48367346938775	76	127
115.36757369614513	115.48367346938775	79	127
115.49528344671202	115.73909297052154	75	127
115.49528344671202	115.73909297052154	71	127
115.49528344671202	115.73909297052154	78	127
115.49528344671202	115.73909297052154	59	127
116.76077097505669	117.65473922902494	59	127
116.76077097505669	117.65473922902494	52	127
116.76077097505669	117.65473922902494	68	127
117.66634920634921	118.65319727891156	46	127
117.66634920634921	118.65319727891156	73	127
117.66634920634921	118.65319727891156	64	127
117.66634920634921	118.65319727891156	55	127
118.66480725623583	119.54716553287982	60	127
118.66480725623583	119.54716553287982	66	127
118.66480725623583	119.54716553287982	63	127
118.66480725623583	119.54716553287982	45	127
119.54716553287982	120.44113378684807	53	127
119.54716553287982	120.44113378684807	71	127
119.54716553287982	120.44113378684807	62	127
119.54716553287982	120.44113378684807	44	127
120.44113378684807	120.91714285714286	58	127
120.44113378684807	120.91714285714286	61	127
120.44113378684807	120.91714285714286	64	127
120.44113378684807	120.91714285714286	43	127
120.91714285714286	121.88077097505669	57	127
120.91714285714286	121.41637188208617	62	127
120.91714285714286	121.88077097505669	69	127
120.91714285714286	121.88077097505669	42	127
121.42798185941044	121.88077097505669	63	127
121.88077097505669	122.33356009070295	40	127
121.88077097505669	122.54253968253968	68	127
121.88077097505669	122.33356009070295	64	127
121.88077097505669	122.33356009070295	59	127
122.34517006802722	122.7863492063492	57	127
122.34517006802722	122.7863492063492	45	127
122.34517006802722	122.7863492063492	61	127
122.55414965986395	123.0069387755102	66	127
122.7863492063492	123.29718820861677	54	127
122.7863492063492	123.29718820861677	46	127
122.7863492063492	123.29718820861677	61	127
123.0069387755102	123.51777777777778	64	127
123.29718820861677	123.51777777777778	59	127
123.29718820861677	123.51777777777778	47	127
123.29718820861677	123.51777777777778	54	127
123.52938775510204	123.78480725623582	63	127
123.79641723356009	123.97056689342404	66	127
124.04022675736961	124.21437641723357	71	127
124.27242630385487	125.06190476190476	80	127
124.27242630385487	124.49301587301588	80	127
124.27242630385487	124.49301587301588	76	127
124.49301587301588	124.66716553287982	78	127
124.49301587301588	124.66716553287982	75	127
124.66716553287982	124.87614512471656	76	127
124.66716553287982	124.87614512471656	73	127
124.88775510204081	125.06190476190476	75	127
124.88775510204081	125.06190476190476	71	127
125.07351473922903	125.93265306122449	85	127
125.07351473922903	125.30571428571429	73	127
125.07351473922903	125.30571428571429	69	127
125.30571428571429	125.51469387755103	68	127
125.30571428571429	125.51469387755103	71	127
125.51469387755103	125.70045351473922	69	127
125.51469387755103	125.70045351473922	66	127
125.70045351473922	125.93265306122449	68	127
125.70045351473922	125.93265306122449	64	127
125.94426303854875	126.84984126984126	66	127
125.94426303854875	126.17646258503402	66	127
125.94426303854875	126.17646258503402	63	127
125.94426303854875	126.84984126984126	78	127
126.18807256235827	126.42027210884353	64	127
126.18807256235827	126.42027210884353	61	127
126.42027210884353	126.62925170068027	63	127
126.42027210884353	126.62925170068027	59	127
126.62925170068027	126.84984126984126	57	127
126.62925170068027	126.84984126984126	61	127
126.84984126984126	127.70897959183674	71	127
126.84984126984126	127.058820861678	59	127
126.84984126984126	127.058820861678	56	127
126.84984126984126	127.70897959183674	83	127
127.07043083900227	127.29102040816326	57	127
127.07043083900227	127.29102040816326	54	127
127.30263038548753	127.5	56	127
127.30263038548753	127.5	52	127
127.51160997732427	127.70897959183674	51	127
127.51160997732427	127.70897959183674	54	127
127.70897959183674	127.92956916099773	52	127
127.70897959183674	128.11532879818594	76	127
127.70897959183674	127.92956916099773	64	127
127.70897959183674	127.92956916099773	49	127
127.92956916099773	128.33591836734695	61	127
127.92956916099773	128.11532879818594	49	127
128.11532879818594	128.33591836734695	54	127
128.11532879818594	128.99768707482994	81	127
128.34750566893425	128.5681179138322	52	127
128.34750566893425	128.5681179138322	57	127
128.57972789115647	129.18344671201814	59	127
128.57972789115647	128.77709750566893	51	127
128.77709750566893	128.99768707482994	47	127
128.77709750566893	129.18344671201814	66	127
128.99768707482994	129.18344671201814	52	127
128.99768707482994	129.6710657596372	80	127
129.18344671201814	129.42725623582766	44	127
129.18344671201814	129.42725623582766	64	127
129.18344671201814	129.42725623582766	59	127
129.43886621315193	129.6710657596372	57	127
129.43886621315193	129.6710657596372	61	127
129.43886621315193	129.6710657596372	45	127
129.68267573696144	129.926485260771	69	127
129.68267573696144	129.926485260771	73	127
129.68267573696144	129.926485260771	42	127
129.68267573696144	129.926485260771	78	127
129.926485260771	130.15868480725624	71	127
129.926485260771	130.15868480725624	47	127
129.926485260771	130.15868480725624	76	127
129.926485260771	130.15868480725624	68	127
130.15868480725624	130.37927437641724	69	127
130.15868480725624	130.37927437641724	47	127
130.15868480725624	130.37927437641724	75	127
130.15868480725624	130.37927437641724	66	127
130.37927437641724	130.58825396825398	64	127
130.37927437641724	130.58825396825398	40	127
130.37927437641724	130.58825396825398	76	127
130.37927437641724	130.58825396825398	68	127
130.58825396825398	131.79569160997733	59	127
130.8320634920635	131.06426303854875	71	127
130.8320634920635	131.06426303854875	56	127
131.07587301587301	131.34290249433107	69	127
131.07587301587301	131.34290249433107	54	127
131.34290249433107	131.57510204081632	68	127
131.34290249433107	131.57510204081632	52	127
131.57510204081632	131.79569160997733	66	127
131.57510204081632	131.79569160997733	51	127
131.79569160997733	132.01628117913833	63	127
131.79569160997733	132.01628117913833	47	127
131.79569160997733	132.01628117913833	73	127
131.79569160997733	132.01628117913833	57	127
132.02786848072563	132.22526077097507	64	127
132.02786848072563	132.22526077097507	49	127
132.02786848072563	132.22526077097507	71	127
132.02786848072563	132.22526077097507	56	127
132.2368707482993	132.45746031746032	69	127
132.2368707482993	132.45746031746032	66	127
132.2368707482993	132.45746031746032	54	127
132.2368707482993	132.45746031746032	51	127
132.45746031746032	132.67804988662132	68	127
132.45746031746032	132.67804988662132	52	127
132.45746031746032	132.67804988662132	52	127
132.67804988662132	133.58362811791383	59	127
132.67804988662132	132.89861678004536	71	127
132.67804988662132	132.89861678004536	56	127
132.89861678004536	133.1192290249433	69	127
132.89861678004536	133.1192290249433	54	127
133.13083900226758	133.35142857142858	68	127
133.13083900226758	133.35142857142858	52	127
133.36303854875283	133.58362811791383	66	127
133.36303854875283	133.58362811791383	51	127
133.58362811791383	133.79260770975057	63	127
133.58362811791383	133.79260770975057	47	127
133.58362811791383	133.79260770975057	73	127
133.58362811791383	133.79260770975057	57	127
133.79260770975057	134.02480725623582	64	127
133.79260770975057	134.02480725623582	49	127
133.79260770975057	134.02480725623582	71	127
133.79260770975057	134.02480725623582	56	127
134.02480725623582	134.26861678004536	66	127
134.02480725623582	134.26861678004536	51	127
134.02480725623582	134.26861678004536	69	127
134.02480725623582	134.26861678004536	54	127
134.26861678004536	134.4775963718821	52	127
134.26861678004536	134.4775963718821	68	127
134.26861678004536	134.4775963718821	52	127
134.48920634920634	134.69818594104308	49	127
134.48920634920634	134.69818594104308	74	127
134.48920634920634	134.69818594104308	65	127
134.48920634920634	134.69818594104308	59	127
134.70979591836735	134.95360544217687	57	127
134.70979591836735	134.95360544217687	73	127
134.70979591836735	134.95360544217687	51	127
134.70979591836735	134.95360544217687	66	127
134.95360544217687	135.18580498866214	71	127
134.95360544217687	135.18580498866214	68	127
134.95360544217687	135.18580498866214	56	127
134.95360544217687	135.18580498866214	53	127
135.18580498866214	135.3831746031746	54	127
135.18580498866214	135.3831746031746	54	127
135.18580498866214	135.3831746031746	69	127
135.3831746031746	135.60374149659864	68	127
135.3831746031746	135.60374149659864	52	127
135.3831746031746	135.60374149659864	78	127
135.3831746031746	135.60374149659864	62	127
135.61537414965986	135.83596371882086	69	127
135.61537414965986	135.83596371882086	54	127
135.61537414965986	135.83596371882086	76	127
135.61537414965986	135.83596371882086	61	127
135.84757369614513	136.07977324263038	71	127
135.84757369614513	136.07977324263038	56	127
135.84757369614513	136.07977324263038	74	127
135.84757369614513	136.07977324263038	59	127
136.07977324263038	136.27714285714285	64	127
136.07977324263038	136.27714285714285	57	127
136.07977324263038	136.27714285714285	73	127
136.07977324263038	136.27714285714285	57	127
136.27714285714285	136.49773242630386	68	127
136.27714285714285	136.49773242630386	59	127
136.27714285714285	136.49773242630386	71	127
136.27714285714285	136.49773242630386	64	127
136.49773242630386	136.72990929705216	64	127
136.49773242630386	136.9505215419501	69	127
136.49773242630386	136.72990929705216	64	127
136.49773242630386	136.72990929705216	61	127
136.72990929705216	136.9505215419501	66	127
136.72990929705216	136.9505215419501	59	127
136.72990929705216	136.9505215419501	63	127
136.9505215419501	137.40331065759636	68	127
136.9505215419501	137.1827210884354	59	127
136.9505215419501	137.1827210884354	64	127
137.19433106575963	137.40331065759636	64	127
137.19433106575963	137.40331065759636	59	127
137.19433106575963	137.40331065759636	47	127
137.40331065759636	137.6006575963719	63	127
137.40331065759636	137.6006575963719	59	127
137.40331065759636	137.6006575963719	66	127
137.6122902494331	137.78643990929706	64	127
137.6122902494331	137.78643990929706	68	127
137.84448979591838	138.0070068027211	66	127
137.84448979591838	138.0070068027211	63	127
138.05346938775511	138.20439909297053	69	127
138.05346938775511	138.20439909297053	61	127
138.05346938775511	138.20439909297053	64	127
138.25083900226758	138.41337868480727	68	127
138.25083900226758	138.41337868480727	59	127
138.25083900226758	138.41337868480727	64	127
138.47142857142856	138.63396825396825	73	127
138.47142857142856	138.63396825396825	57	127
138.47142857142856	138.63396825396825	64	127
138.70362811791384	138.86616780045352	71	127
138.70362811791384	138.86616780045352	56	127
138.70362811791384	138.86616780045352	64	127
138.92421768707484	139.063537414966	69	127
138.92421768707484	139.063537414966	54	127
138.92421768707484	139.063537414966	75	127
138.92421768707484	139.063537414966	59	127
139.1215873015873	139.28410430839003	68	127
139.1215873015873	139.28410430839003	52	127
139.1215873015873	139.28410430839003	76	127
139.1215873015873	139.28410430839003	59	127
139.3421768707483	139.88784580498867	81	127
139.3421768707483	140.21292517006802	51	127
139.3421768707483	140.43351473922903	59	127
139.3421768707483	140.21292517006802	66	127
139.88784580498867	140.00392290249434	78	127
140.00392290249434	140.12004535147392	75	127
140.12004535147392	140.21292517006802	69	127
140.2245351473923	140.43351473922903	52	127
140.2245351473923	140.43351473922903	59	127
140.2245351473923	140.32902494331066	68	127
140.34063492063493	140.39868480725625	71	127
140.43351473922903	140.64249433106576	61	127
140.43351473922903	140.5147619047619	69	127
140.43351473922903	140.64249433106576	45	127
140.54961451247166	140.61927437641722	66	127
140.64249433106576	140.86308390022677	56	127
140.64249433106576	140.74698412698413	64	127
140.64249433106576	140.86308390022677	47	127
140.7585941043084	140.83986394557823	68	127
140.86308390022677	141.08367346938775	57	127
140.86308390022677	140.93274376417233	66	127
140.86308390022677	141.08367346938775	47	127
140.96757369614514	141.04884353741497	63	127
141.08367346938775	141.23460317460317	68	127
141.08367346938775	141.23460317460317	64	127
141.30426303854875	141.46680272108844	66	127
141.30426303854875	141.46680272108844	63	127
141.52485260770976	141.6990022675737	64	127
141.52485260770976	141.6990022675737	81	127
141.52485260770976	141.6990022675737	69	127
141.52485260770976	141.6990022675737	61	127
141.757052154195	141.93120181405897	64	127
141.757052154195	141.93120181405897	80	127
141.757052154195	141.93120181405897	68	127
141.757052154195	141.93120181405897	59	127
141.98925170068028	142.17501133786848	57	127
141.98925170068028	142.17501133786848	85	127
141.98925170068028	142.17501133786848	73	127
141.98925170068028	142.17501133786848	64	127
142.26789115646258	142.44204081632654	56	127
142.26789115646258	142.44204081632654	83	127
142.26789115646258	142.44204081632654	71	127
142.26789115646258	142.44204081632654	64	127
142.50009070294786	142.77873015873016	59	127
142.50009070294786	142.77873015873016	87	127
142.50009070294786	142.77873015873016	69	127
142.50009070294786	142.77873015873016	54	127
142.86	143.10380952380953	59	127
142.86	143.10380952380953	88	127
142.86	143.10380952380953	68	127
142.86	143.10380952380953	52	127
143.18507936507936	144.26480725623583	90	127
143.18507936507936	143.47530612244898	69	127
143.18507936507936	143.47530612244898	60	127
143.18507936507936	143.47530612244898	51	127
144.26480725623583	144.47378684807256	87	127
144.48539682539683	144.70596371882087	85	127
144.71759637188208	145.1239455782313	56	127
144.71759637188208	144.9381859410431	84	127
144.71759637188208	144.9381859410431	78	127
144.71759637188208	144.9381859410431	69	127
144.9381859410431	145.1239455782313	87	127
144.9381859410431	145.1239455782313	75	127
144.9381859410431	145.1239455782313	66	127
145.1239455782313	145.5767120181406	61	127
145.1239455782313	145.3445351473923	88	127
145.1239455782313	145.3445351473923	73	127
145.1239455782313	145.3445351473923	64	127
145.3445351473923	145.5767120181406	85	127
145.3445351473923	145.5767120181406	68	127
145.3445351473923	145.78571428571428	76	127
145.5767120181406	146.01791383219955	54	127
145.5767120181406	145.78571428571428	82	127
145.5767120181406	145.78571428571428	67	127
145.79732426303855	146.01791383219955	73	127
145.79732426303855	146.01791383219955	85	127
145.79732426303855	146.01791383219955	64	127
146.02952380952382	146.21528344671202	62	127
146.02952380952382	146.21528344671202	86	127
146.02952380952382	146.21528344671202	71	127
146.02952380952382	146.44748299319727	59	127
146.21528344671202	146.656462585034	74	127
146.21528344671202	146.44748299319727	83	127
146.21528344671202	146.44748299319727	66	127
146.44748299319727	146.656462585034	80	127
146.44748299319727	146.656462585034	65	127
146.44748299319727	146.877052154195	52	127
146.656462585034	146.877052154195	83	127
146.656462585034	146.877052154195	71	127
146.656462585034	146.877052154195	62	127
146.88866213151928	147.28340136054422	57	127
146.88866213151928	147.09764172335602	85	127
146.88866213151928	147.09764172335602	69	127
146.88866213151928	147.09764172335602	61	127
147.09764172335602	147.28340136054422	81	127
147.09764172335602	147.50399092970522	64	127
147.09764172335602	147.28340136054422	73	127
147.28340136054422	147.7245804988662	59	127
147.28340136054422	147.50399092970522	80	127
147.28340136054422	147.50399092970522	68	127
147.50399092970522	147.7245804988662	83	127
147.50399092970522	147.7245804988662	71	127
147.50399092970522	147.7245804988662	59	127
147.7245804988662	148.25863945578232	47	127
147.7245804988662	147.98	78	127
147.7245804988662	147.98	69	127
147.7245804988662	147.98	63	127
148.00321995464853	148.25863945578232	71	127
148.00321995464853	148.25863945578232	83	127
148.00321995464853	148.25863945578232	59	127
148.25863945578232	148.4443990929705	59	127
148.25863945578232	148.35151927437641	64	127
148.25863945578232	148.4443990929705	52	127
148.25863945578232	148.4443990929705	68	127
148.36312925170068	148.43278911564627	68	127
148.45600907029478	148.5140589569161	71	127
148.54888888888888	148.63015873015874	68	127
148.65337868480725	148.72303854875284	76	127
148.75786848072562	148.83913832199548	71	127
148.87396825396826	148.94362811791385	80	127
148.97845804988663	149.03650793650795	76	127
149.07133786848073	149.60539682539684	83	127
149.29192743764173	149.43124716553288	62	127
149.29192743764173	149.43124716553288	59	127
149.29192743764173	149.43124716553288	56	127
149.47768707482993	149.54734693877552	59	127
149.47768707482993	149.54734693877552	62	127
149.47768707482993	149.54734693877552	56	127
149.61700680272108	149.86081632653062	65	127
149.61700680272108	149.76791383219955	62	127
149.61700680272108	149.76791383219955	59	127
149.61700680272108	149.76791383219955	56	127
149.87242630385487	150.13945578231292	57	127
149.87242630385487	150.13945578231292	66	127
149.87242630385487	150.13945578231292	61	127
149.87242630385487	150.13945578231292	57	127
150.1510657596372	150.29038548752834	69	127
150.29038548752834	150.38326530612244	73	127
150.3948752834467	150.49936507936508	78	127
150.49936507936508	150.60385487528345	80	127
150.61546485260772	150.71995464852608	81	127
150.71995464852608	150.82444444444445	83	127
150.83603174603175	151.42816326530613	85	127
151.0566439909297	151.20757369614512	69	127
151.0566439909297	151.20757369614512	66	127
151.0566439909297	151.20757369614512	59	127
151.24240362811793	151.3701133786848	66	127
151.24240362811793	151.3701133786848	69	127
151.24240362811793	151.3701133786848	59	127
151.4397732426304	151.64875283446713	75	127
151.4397732426304	151.57909297052154	69	127
151.4397732426304	151.57909297052154	66	127
151.4397732426304	151.57909297052154	59	127
151.66036281179137	151.8461224489796	59	127
151.66036281179137	151.76485260770974	64	127
151.66036281179137	151.8461224489796	52	127
151.66036281179137	151.8461224489796	68	127
151.76485260770974	151.82290249433106	68	127
151.85773242630387	151.92739229024943	71	127
151.96219954648527	152.04349206349207	68	127
152.07832199546485	152.14798185941044	76	127
152.18281179138322	152.28730158730158	71	127
152.32210884353742	152.39179138321995	80	127
152.4265986394558	152.5078911564626	76	127
152.54272108843537	153.11160997732426	83	127
152.74009070294784	152.86780045351475	74	127
152.74009070294784	152.86780045351475	59	127
152.74009070294784	152.86780045351475	44	127
152.92585034013607	153.06517006802721	74	127
152.92585034013607	153.06517006802721	59	127
152.92585034013607	153.06517006802721	44	127
153.12321995464853	153.2392970521542	44	127
153.12321995464853	153.2392970521542	74	127
153.12321995464853	153.2392970521542	59	127
153.12321995464853	153.320589569161	65	127
153.34378684807257	153.56439909297052	57	127
153.34378684807257	153.56439909297052	66	127
153.34378684807257	153.56439909297052	73	127
153.34378684807257	153.56439909297052	45	127
153.58761904761906	153.71532879818594	69	127
153.71532879818594	153.8198185941043	73	127
153.83142857142857	153.92430839002267	78	127
153.92430839002267	154.02879818594104	80	127
154.0404081632653	154.1332879818594	81	127
154.1332879818594	154.23777777777778	83	127
154.24938775510205	154.78344671201813	85	127
154.43514739229025	154.55124716553289	54	127
154.43514739229025	154.55124716553289	47	127
154.43514739229025	154.55124716553289	69	127
154.6208843537415	154.74861678004535	69	127
154.6208843537415	154.74861678004535	54	127
154.6208843537415	154.74861678004535	47	127
154.7950566893424	154.94598639455782	47	127
154.7950566893424	154.94598639455782	69	127
154.7950566893424	154.94598639455782	54	127
154.7950566893424	155.00403628117914	75	127
155.0156462585034	155.24784580498866	52	127
155.0156462585034	155.1433560090703	52	127
155.0156462585034	155.24784580498866	76	127
155.0156462585034	155.24784580498866	68	127
155.1433560090703	155.24784580498866	56	127
155.25945578231293	155.37555555555556	59	127
155.37555555555556	155.49163265306123	64	127
155.50326530612244	155.61936507936508	68	127
155.61936507936508	155.7006349206349	64	127
155.73546485260772	155.80512471655328	68	127
155.8399546485261	155.89798185941044	64	127
155.9328344671202	156.97773242630385	71	127
156.1185941043084	156.22308390022675	81	127
156.1185941043084	156.2695238095238	63	127
156.22308390022675	156.32757369614512	78	127
156.3391836734694	156.44367346938776	81	127
156.3391836734694	156.4901133786848	63	127
156.44367346938776	156.54816326530613	78	127
156.5597732426304	156.64104308390023	81	127
156.5597732426304	156.68748299319728	63	127
156.64104308390023	156.7455328798186	78	127
156.75714285714287	156.87321995464853	64	127
156.75714285714287	156.97773242630385	80	127
156.87321995464853	156.97773242630385	68	127
156.98934240362811	157.09383219954648	71	127
157.09383219954648	157.18671201814058	76	127
157.19832199546485	157.30281179138322	80	127
157.30281179138322	157.36086167800454	76	127
157.39569160997732	157.4653514739229	71	127
157.5001814058957	157.58145124716555	68	127
157.61628117913833	158.49863945578232	69	127
157.8717006802721	158.02263038548753	47	127
157.8717006802721	157.97619047619048	78	127
157.97619047619048	158.08068027210885	75	127
158.09229024943312	158.19675736961452	78	127
158.09229024943312	158.24321995464854	47	127
158.19675736961452	158.2896598639456	75	127
158.30124716553289	158.39414965986396	78	127
158.30124716553289	158.440589569161	47	127
158.39414965986396	158.49863945578232	75	127
158.52185941043084	158.73083900226757	52	127
158.52185941043084	158.6263492063492	52	127
158.52185941043084	158.73083900226757	76	127
158.52185941043084	158.73083900226757	68	127
158.6263492063492	158.73083900226757	56	127
158.74244897959184	158.8469387755102	59	127
158.8469387755102	158.95142857142858	64	127
158.96303854875285	159.06750566893425	68	127
159.06750566893425	159.14879818594105	64	127
159.18362811791383	159.24167800453515	68	127
159.27648526077098	159.35777777777778	64	127
159.39260770975056	160.3562358276644	71	127
159.56675736961452	159.64802721088435	69	127
159.56675736961452	159.6944671201814	63	127
159.64802721088435	159.75251700680272	66	127
159.764126984127	159.8570068027211	69	127
159.764126984127	159.90344671201814	63	127
159.8570068027211	159.96149659863946	66	127
159.97310657596373	160.05437641723356	69	127
159.97310657596373	160.1008163265306	63	127
160.05437641723356	160.14725623582765	66	127
160.15886621315192	160.25174603174602	64	127
160.15886621315192	160.3562358276644	68	127
160.25174603174602	160.3562358276644	68	127
160.36784580498866	160.46072562358276	71	127
160.46072562358276	160.56521541950113	76	127
160.5768253968254	160.6697052154195	80	127
160.6697052154195	160.75097505668936	76	127
160.7625850340136	160.78580498866214	71	127
160.82063492063492	160.90190476190477	68	127
160.93673469387755	161.8655328798186	69	127
161.15732426303856	161.26181405895693	78	127
161.15732426303856	161.30825396825398	47	127
161.26181405895693	161.37791383219954	75	127
161.3895238095238	161.51723356009072	78	127
161.3895238095238	161.57526077097506	47	127
161.51723356009072	161.6449433106576	75	127
161.65655328798186	161.76104308390023	78	127
161.65655328798186	161.81909297052155	47	127
161.76104308390023	161.8655328798186	75	127
161.8771201814059	162.07451247165534	68	127
161.8771201814059	162.07451247165534	76	127
161.8771201814059	162.07451247165534	52	127
162.08609977324264	162.1790022675737	59	127
162.1790022675737	162.28349206349208	58	127
162.29510204081632	162.3995918367347	59	127
162.3995918367347	162.50408163265305	58	127
162.51569160997732	162.6201814058957	59	127
162.6201814058957	162.7130612244898	58	127
162.72467120181406	163.71151927437643	59	127
162.72467120181406	163.514126984127	47	127
162.94526077097507	163.04975056689344	69	127
162.94526077097507	163.04975056689344	78	127
163.04975056689344	163.16585034013605	75	127
163.04975056689344	163.16585034013605	66	127
163.17746031746032	163.27034013605441	78	127
163.17746031746032	163.27034013605441	69	127
163.27034013605441	163.35160997732427	66	127
163.27034013605441	163.35160997732427	75	127
163.36319727891157	163.4328798185941	69	127
163.36319727891157	163.4328798185941	78	127
163.4328798185941	163.514126984127	75	127
163.4328798185941	163.514126984127	66	127
163.5257596371882	163.71151927437643	52	127
163.5257596371882	163.71151927437643	76	127
163.5257596371882	163.71151927437643	68	127
163.73473922902494	163.82761904761904	59	127
163.82761904761904	163.92049886621317	58	127
163.9321088435374	164.03659863945578	59	127
164.03659863945578	164.14108843537414	58	127
164.1526984126984	164.26879818594105	59	127
164.26879818594105	164.43133786848074	58	127
164.44294784580498	165.8593650793651	59	127
164.44294784580498	165.42979591836735	47	127
164.68675736961453	164.79122448979592	69	127
164.68675736961453	164.79122448979592	78	127
164.79122448979592	164.8957142857143	66	127
164.79122448979592	164.8957142857143	75	127
164.9073469387755	165.01183673469387	69	127
164.9073469387755	165.01183673469387	78	127
165.01183673469387	165.15113378684808	66	127
165.01183673469387	165.15113378684808	75	127
165.1627664399093	165.3020634920635	78	127
165.1627664399093	165.3020634920635	69	127
165.3020634920635	165.42979591836735	75	127
165.3020634920635	165.42979591836735	66	127
165.44140589569162	165.63877551020408	52	127
165.44140589569162	165.8593650793651	68	127
165.44140589569162	166.2657142857143	76	127
165.65038548752835	165.75487528344672	40	127
165.75487528344672	165.8593650793651	39	127
165.87097505668933	166.73011337868482	52	127
165.87097505668933	165.9754648526077	40	127
165.87097505668933	166.73011337868482	56	127
165.9754648526077	166.0451247165533	39	127
166.0451247165533	166.16122448979593	40	127
166.16122448979593	166.2657142857143	39	127
166.2773015873016	166.37020408163266	40	127
166.2773015873016	166.73011337868482	74	127
166.38179138321996	166.49791383219954	39	127
166.49791383219954	166.61401360544218	40	127
166.61401360544218	166.73011337868482	39	127
166.74172335600906	167.25256235827663	59	127
166.74172335600906	166.84621315192743	40	127
166.74172335600906	167.25256235827663	56	127
166.74172335600906	167.25256235827663	71	127
166.8578231292517	166.97392290249434	39	127
166.97392290249434	167.11324263038549	40	127
167.11324263038549	167.25256235827663	39	127
167.2641723356009	170.8284126984127	68	127
167.2641723356009	168.65736961451248	62	127
167.2641723356009	168.65736961451248	40	127
167.2641723356009	170.8284126984127	59	127
168.66897959183675	170.8284126984127	41	127
168.66897959183675	170.8284126984127	61	127
171.5714739229025	171.65274376417233	61	127
171.68757369614514	171.76884353741497	62	127
171.7920634920635	171.86172335600907	61	127
171.8965306122449	172.84857142857143	57	127
172.00102040816327	172.11714285714285	49	127
172.1519501133787	172.27968253968254	50	127
172.30290249433108	172.3841723356009	49	127
172.4190022675737	173.06916099773244	54	127
172.53510204081633	172.60476190476192	73	127
172.6395918367347	172.70925170068028	74	127
172.7324716553288	172.81374149659865	73	127
172.84857142857143	173.4522902494331	61	127
172.84857142857143	173.33619047619047	78	127
172.9530612244898	173.03433106575963	61	127
173.06916099773244	173.15043083900227	62	127
173.06916099773244	173.2781179138322	49	127
173.1736507936508	173.24331065759637	61	127
173.2781179138322	173.4522902494331	45	127
173.2781179138322	173.4522902494331	66	127
173.33619047619047	173.41746031746032	81	127
173.4522902494331	173.6728798185941	49	127
173.4522902494331	173.533537414966	80	127
173.4522902494331	173.6728798185941	42	127
173.4522902494331	173.6728798185941	69	127
173.55678004535147	173.63802721088436	78	127
173.6728798185941	174.07922902494332	37	127
173.6728798185941	173.75414965986394	78	127
173.6728798185941	173.96312925170068	56	127
173.6728798185941	174.07922902494332	71	127
173.75414965986394	173.82380952380953	77	127
173.8586394557823	173.93990929705217	75	127
173.96312925170068	174.07922902494332	49	127
173.96312925170068	174.04437641723356	77	127
174.07922902494332	174.53201814058957	42	127
174.07922902494332	174.16049886621315	78	127
174.07922902494332	174.41591836734693	54	127
174.07922902494332	174.53201814058957	69	127
174.18371882086169	174.27659863945578	81	127
174.31142857142856	174.39269841269842	80	127
174.41591836734693	174.53201814058957	49	127
174.41591836734693	174.4971882086168	78	127
174.53201814058957	174.93836734693878	37	127
174.53201814058957	174.63650793650794	78	127
174.53201814058957	174.82226757369614	56	127
174.53201814058957	174.93836734693878	71	127
174.63650793650794	174.71777777777777	77	127
174.75260770975058	174.81063492063493	75	127
174.82226757369614	174.903537414966	77	127
174.82226757369614	174.93836734693878	49	127
174.93836734693878	175.36793650793652	42	127
174.93836734693878	175.01961451247166	78	127
174.93836734693878	175.25183673469388	54	127
174.93836734693878	175.36793650793652	69	127
175.04285714285714	175.12412698412697	81	127
175.15895691609978	175.2402267573696	80	127
175.25183673469388	175.36793650793652	49	127
175.25183673469388	175.3331065759637	78	127
175.36793650793652	175.51886621315194	37	127
175.36793650793652	175.4724263038549	78	127
175.36793650793652	175.51886621315194	64	127
175.36793650793652	175.51886621315194	56	127
175.4724263038549	175.54208616780045	76	127
175.565306122449	175.72784580498868	49	127
175.565306122449	175.64657596371882	75	127
175.565306122449	175.72784580498868	68	127
175.565306122449	175.72784580498868	64	127
175.66979591836736	175.75106575963719	73	127
175.78587301587302	175.94843537414965	44	127
175.78587301587302	175.86716553287982	72	127
175.78587301587302	175.94843537414965	68	127
175.78587301587302	175.94843537414965	66	127
175.89038548752833	175.9948752834467	73	127
176.0297052154195	176.18063492063493	44	127
176.0297052154195	176.11097505668934	75	127
176.0297052154195	176.18063492063493	68	127
176.0297052154195	176.18063492063493	66	127
176.1225850340136	176.20385487528344	76	127
176.23868480725625	178.09628117913832	64	127
176.23868480725625	177.1907029478458	68	127
176.23868480725625	177.1907029478458	49	127
176.23868480725625	178.09628117913832	73	127
177.1907029478458	177.7595918367347	45	127
177.1907029478458	178.09628117913832	67	127
177.7595918367347	177.84086167800453	45	127
177.87569160997734	177.95696145124717	47	127
177.98015873015873	178.06145124716554	45	127
178.09628117913832	178.18913832199547	62	127
178.09628117913832	179.1643990929705	50	127
178.09628117913832	178.29365079365078	74	127
178.09628117913832	178.29365079365078	66	127
178.18913832199547	178.258820861678	57	127
178.29365079365078	178.37492063492064	59	127
178.39814058956915	178.4909977324263	57	127
178.52585034013606	179.1643990929705	54	127
178.61873015873016	178.69997732426305	69	127
178.7348299319728	178.80448979591836	71	127
178.8277097505669	178.90897959183673	69	127
178.93219954648526	179.1643990929705	74	127
179.03668934240363	179.11795918367346	81	127
179.1643990929705	179.60557823129253	62	127
179.1643990929705	179.24566893424037	83	127
179.1643990929705	179.3269387755102	45	127
179.1643990929705	179.60557823129253	66	127
179.26888888888888	179.35015873015874	81	127
179.38498866213152	179.4662358276644	86	127
179.38498866213152	179.5475283446712	42	127
179.4894784580499	179.57074829931972	90	127
179.60557823129253	179.8261678004535	69	127
179.60557823129253	179.68684807256236	88	127
179.60557823129253	179.7681179138322	38	127
179.60557823129253	179.8261678004535	66	127
179.7100680272109	179.79133786848072	86	127
179.8261678004535	180.1396371882086	67	127
179.8261678004535	180.25573696145125	45	127
179.8261678004535	179.93065759637187	86	127
179.8261678004535	180.1396371882086	64	127
179.93065759637187	180.01192743764173	85	127
180.03514739229024	180.1164172335601	83	127
180.1396371882086	180.22090702947847	85	127
180.1396371882086	180.25573696145125	69	127
180.1396371882086	180.25573696145125	57	127
180.25573696145125	180.5227664399093	62	127
180.25573696145125	180.63884353741497	50	127
180.25573696145125	180.32539682539684	86	127
180.25573696145125	180.5227664399093	66	127
180.34861678004535	180.41827664399094	90	127
180.41827664399094	180.49954648526077	88	127
180.5227664399093	180.63884353741497	69	127
180.5227664399093	180.60403628117913	86	127
180.5227664399093	180.63884353741497	57	127
180.63884353741497	180.95233560090702	67	127
180.63884353741497	181.0916553287982	45	127
180.63884353741497	180.74333333333334	86	127
180.63884353741497	180.95233560090702	64	127
180.74333333333334	180.81301587301587	85	127
180.8478231292517	180.9291156462585	83	127
180.95233560090702	181.0916553287982	69	127
180.95233560090702	181.0568253968254	85	127
180.95233560090702	181.0916553287982	57	127
181.0916553287982	181.39351473922903	66	127
181.0916553287982	181.48639455782313	50	127
181.0916553287982	181.17292517006803	86	127
181.0916553287982	181.39351473922903	62	127
181.1845351473923	181.26580498866213	90	127
181.30063492063493	181.3702947845805	88	127
181.39351473922903	181.48639455782313	69	127
181.39351473922903	181.45156462585035	86	127
181.39351473922903	181.48639455782313	57	127
181.48639455782313	181.78825396825397	64	127
181.48639455782313	181.56766439909296	86	127
181.48639455782313	181.78825396825397	67	127
181.48639455782313	181.9043537414966	45	127
181.56766439909296	181.64893424036282	85	127
181.6837641723356	181.7650113378685	83	127
181.78825396825397	181.86950113378686	85	127
181.78825396825397	181.9043537414966	57	127
181.78825396825397	181.9043537414966	69	127
181.9043537414966	182.13655328798185	50	127
181.9043537414966	181.98562358276644	86	127
181.9043537414966	182.13655328798185	66	127
181.9043537414966	182.13655328798185	62	127
182.00884353741498	182.10172335600907	90	127
182.13655328798185	182.3455328798186	78	127
182.13655328798185	182.3455328798186	74	127
182.13655328798185	182.20621315192744	88	127
182.22943310657595	182.3107029478458	86	127
182.3455328798186	182.78668934240363	79	127
182.3455328798186	182.78668934240363	76	127
182.3455328798186	182.45002267573696	86	127
182.45002267573696	182.53126984126985	85	127
182.5661224489796	182.64739229024943	84	127
182.67061224489797	182.7518820861678	85	127
182.78668934240363	183.2278911564626	78	127
182.78668934240363	183.2278911564626	74	127
182.78668934240363	182.891179138322	85	127
182.891179138322	182.9724716553288	83	127
183.00730158730158	183.08857142857144	82	127
183.11179138321995	183.1930612244898	83	127
183.2278911564626	183.64585034013606	76	127
183.2278911564626	183.64585034013606	73	127
183.2278911564626	183.3207709750567	83	127
183.3207709750567	183.40201814058958	81	127
183.3207709750567	183.40201814058958	45	127
183.43687074829933	183.50650793650794	80	127
183.43687074829933	183.50650793650794	47	127
183.52975056689343	183.61102040816326	81	127
183.52975056689343	183.61102040816326	45	127
183.64585034013606	184.05219954648527	71	127
183.64585034013606	184.48176870748298	74	127
183.64585034013606	183.7271201814059	81	127
183.64585034013606	183.8548299319728	57	127
183.7271201814059	183.82	79	127
183.8548299319728	183.93609977324263	78	127
183.95931972789117	184.01734693877552	79	127
184.05219954648527	184.48176870748298	69	127
184.05219954648527	184.15668934240364	79	127
184.15668934240364	184.23795918367347	78	127
184.15668934240364	184.23795918367347	45	127
184.2727664399093	184.34244897959184	77	127
184.2727664399093	184.34244897959184	47	127
184.36566893424038	184.4469387755102	78	127
184.36566893424038	184.4469387755102	45	127
184.48176870748298	184.91133786848073	67	127
184.48176870748298	184.56303854875284	57	127
184.48176870748298	184.58625850340135	78	127
184.48176870748298	184.91133786848073	73	127
184.58625850340135	184.6675283446712	76	127
184.58625850340135	184.6675283446712	57	127
184.702358276644	184.78360544217688	75	127
184.702358276644	184.78360544217688	59	127
184.80684807256236	184.87650793650795	76	127
184.80684807256236	184.87650793650795	57	127
184.91133786848073	185.13192743764174	62	127
184.91133786848073	185.0158276643991	69	127
184.91133786848073	185.13192743764174	74	127
184.91133786848073	185.13192743764174	65	127
185.0158276643991	185.09709750566893	74	127
185.13192743764174	185.22480725623583	73	127
185.24802721088435	185.3292970521542	74	127
185.36412698412698	185.80528344671202	65	127
185.36412698412698	185.80528344671202	69	127
185.36412698412698	185.46861678004535	74	127
185.46861678004535	185.54986394557824	77	127
185.584716553288	185.66598639455782	76	127
185.68920634920636	185.7704761904762	74	127
185.80528344671202	185.90979591836734	74	127
185.80528344671202	186.18843537414966	64	127
185.80528344671202	186.18843537414966	67	127
185.90979591836734	185.9910657596372	72	127
186.0142857142857	186.03750566893424	71	127
186.0607029478458	186.15360544217688	72	127
186.18843537414966	186.6180045351474	65	127
186.18843537414966	186.6180045351474	62	127
186.18843537414966	186.28131519274376	72	127
186.28131519274376	186.36258503401362	70	127
186.3974149659864	186.47868480725623	69	127
186.50190476190477	186.5831746031746	70	127
186.6180045351474	186.9895238095238	64	127
186.6180045351474	186.9895238095238	60	127
186.6180045351474	186.7108843537415	70	127
186.7108843537415	186.74571428571429	69	127
186.78054421768707	186.86181405895692	70	127
186.78054421768707	186.86181405895692	68	127
186.88503401360543	186.95469387755102	69	127
186.9895238095238	187.8718820861678	62	127
186.9895238095238	187.09401360544217	69	127
186.9895238095238	187.2101133786848	81	127
186.9895238095238	187.4422902494331	58	127
187.09401360544217	187.17528344671203	67	127
187.2101133786848	187.29138321995464	66	127
187.32621315192745	187.40748299319728	67	127
187.4422902494331	187.8718820861678	57	127
187.4422902494331	187.54680272108843	67	127
187.54680272108843	187.61646258503401	69	127
187.54680272108843	187.61646258503401	65	127
187.6512925170068	187.74414965986395	70	127
187.6512925170068	187.74414965986395	64	127
187.76739229024943	187.83705215419502	69	127
187.76739229024943	187.83705215419502	65	127
187.8718820861678	187.97637188208617	65	127
187.8718820861678	188.3594784580499	55	127
187.8718820861678	187.9531292517007	81	127
187.8718820861678	188.3594784580499	61	127
187.97637188208617	188.06925170068027	81	127
187.97637188208617	188.06925170068027	64	127
188.1040589569161	188.1853514739229	82	127
188.1040589569161	188.1853514739229	62	127
188.20854875283447	188.32467120181406	81	127
188.20854875283447	188.32467120181406	64	127
188.3594784580499	188.5917006802721	86	127
188.3594784580499	188.5917006802721	62	127
188.3594784580499	188.47560090702947	53	127
188.3594784580499	188.5917006802721	62	127
188.47560090702947	188.55687074829933	50	127
188.5917006802721	188.6845804988662	52	127
188.70780045351475	188.80068027210885	50	127
188.83551020408163	190.042947845805	62	127
188.94	189.02124716553288	75	127
188.94	189.02124716553288	60	127
189.05609977324264	189.13736961451247	59	127
189.05609977324264	189.13736961451247	74	127
189.160589569161	189.23022675736962	75	127
189.160589569161	189.23022675736962	60	127
189.26507936507937	189.29990929705215	75	127
189.26507936507937	189.29990929705215	60	127
189.29990929705215	189.36956916099774	58	127
189.29990929705215	189.36956916099774	74	127
189.40439909297052	189.4740589569161	73	127
189.40439909297052	189.4740589569161	57	127
189.49727891156462	189.57854875283448	74	127
189.49727891156462	189.57854875283448	58	127
189.61337868480726	189.71786848072563	74	127
189.61337868480726	189.71786848072563	58	127
189.71786848072563	189.79913832199546	72	127
189.71786848072563	189.79913832199546	57	127
189.83396825396827	189.9152380952381	71	127
189.83396825396827	189.9152380952381	56	127
189.92684807256236	190.0081179138322	57	127
189.92684807256236	190.0081179138322	72	127
190.042947845805	190.26353741496598	55	127
190.042947845805	190.26353741496598	55	127
190.042947845805	190.12421768707483	73	127
190.1474149659864	190.2287074829932	67	127
190.26353741496598	190.33319727891157	69	127
190.35641723356008	190.43768707482994	67	127
190.47251700680272	191.67995464852606	79	127
190.58861678004536	190.6698866213152	69	127
190.58861678004536	190.6698866213152	65	127
190.704716553288	190.78598639455782	68	127
190.704716553288	190.78598639455782	64	127
190.80920634920636	190.8904761904762	69	127
190.80920634920636	190.8904761904762	65	127
190.93691609977324	191.0414058956916	69	127
190.93691609977324	191.0414058956916	65	127
191.0414058956916	191.12267573696144	67	127
191.0414058956916	191.12267573696144	64	127
191.15750566893425	191.23877551020408	66	127
191.15750566893425	191.23877551020408	63	127
191.26199546485262	191.30843537414967	67	127
191.26199546485262	191.30843537414967	64	127
191.30843537414967	191.3897052154195	67	127
191.30843537414967	191.3897052154195	64	127
191.3897052154195	191.44775510204082	65	127
191.3897052154195	191.44775510204082	62	127
191.4825850340136	191.55224489795918	64	127
191.4825850340136	191.55224489795918	61	127
191.57546485260772	191.65673469387755	65	127
191.57546485260772	191.65673469387755	62	127
191.67995464852606	191.90054421768707	60	127
191.67995464852606	191.90054421768707	84	127
191.67995464852606	191.90054421768707	64	127
191.78444444444443	191.8657142857143	48	127
191.90054421768707	191.98181405895693	50	127
192.00503401360544	192.07469387755103	48	127
192.12113378684808	193.42145124716552	60	127
192.22562358276645	192.30689342403628	58	127
192.22562358276645	192.30689342403628	74	127
192.34172335600908	192.4229931972789	73	127
192.34172335600908	192.4229931972789	57	127
192.44621315192742	192.52748299319728	74	127
192.44621315192742	192.52748299319728	58	127
192.5507029478458	192.65519274376416	74	127
192.5507029478458	192.65519274376416	58	127
192.65519274376416	192.73646258503402	72	127
192.65519274376416	192.73646258503402	57	127
192.7712925170068	192.8409523809524	70	127
192.7712925170068	192.8409523809524	56	127
192.8641723356009	192.94544217687076	57	127
192.8641723356009	192.94544217687076	72	127
192.98027210884354	193.0847619047619	72	127
192.98027210884354	193.0847619047619	57	127
193.0847619047619	193.16603174603173	70	127
193.0847619047619	193.16603174603173	55	127
193.20086167800454	193.28213151927437	54	127
193.20086167800454	193.28213151927437	69	127
193.3053514739229	193.38662131519274	70	127
193.3053514739229	193.38662131519274	55	127
193.42145124716552	193.61882086167802	53	127
193.42145124716552	193.4911111111111	69	127
193.42145124716552	193.61882086167802	53	127
193.51433106575965	193.5839909297052	69	127
193.61882086167802	193.71170068027212	70	127
193.73492063492063	193.80458049886622	69	127
193.839410430839	195.13972789115647	81	127
193.94390022675736	194.02517006802722	67	127
193.94390022675736	194.02517006802722	76	127
194.06	194.14126984126983	75	127
194.06	194.14126984126983	66	127
194.16448979591837	194.2457596371882	76	127
194.16448979591837	194.2457596371882	67	127
194.280589569161	194.38507936507938	76	127
194.280589569161	194.38507936507938	68	127
194.280589569161	194.69854875283445	53	127
194.38507936507938	194.4663492063492	74	127
194.38507936507938	194.4663492063492	65	127
194.501179138322	194.58244897959185	73	127
194.501179138322	194.58244897959185	64	127
194.5940589569161	194.67532879818594	74	127
194.5940589569161	194.67532879818594	65	127
194.71015873015872	194.8146485260771	74	127
194.71015873015872	194.8146485260771	65	127
194.71015873015872	195.13972789115647	54	127
194.8146485260771	194.89591836734695	72	127
194.8146485260771	194.89591836734695	64	127
194.93074829931973	195.01201814058956	71	127
194.93074829931973	195.01201814058956	63	127
195.0352380952381	195.11650793650793	64	127
195.0352380952381	195.11650793650793	72	127
195.13972789115647	195.33709750566894	62	127
195.13972789115647	195.33709750566894	55	127
195.13972789115647	195.2209977324263	79	127
195.13972789115647	195.2209977324263	71	127
195.24421768707484	195.3138775510204	74	127
195.24421768707484	195.3138775510204	71	127
195.3487074829932	195.42997732426304	72	127
195.3487074829932	195.42997732426304	76	127
195.45319727891157	195.5344671201814	74	127
195.45319727891157	195.5344671201814	71	127
195.54607709750567	196.08013605442176	77	127
195.54607709750567	196.08013605442176	74	127
195.63895691609977	195.7202267573696	55	127
195.7550566893424	195.83632653061224	57	127
195.85954648526078	195.9408163265306	55	127
195.9756462585034	196.46326530612245	67	127
196.08013605442176	196.16140589569162	76	127
196.08013605442176	196.16140589569162	72	127
196.18462585034013	196.24267573696144	77	127
196.18462585034013	196.24267573696144	74	127
196.25428571428571	196.33555555555554	72	127
196.25428571428571	196.33555555555554	76	127
196.37038548752835	196.8928344671202	79	127
196.37038548752835	196.8928344671202	76	127
196.46326530612245	196.53292517006804	55	127
196.56775510204082	196.64902494331065	57	127
196.6722448979592	196.75351473922902	55	127
196.78834467120183	196.8928344671202	67	127
196.8928344671202	196.97410430839003	77	127
196.8928344671202	196.99732426303854	55	127
196.8928344671202	196.97410430839003	74	127
197.0089342403628	197.05537414965985	79	127
197.0089342403628	197.0785941043084	67	127
197.0089342403628	197.05537414965985	76	127
197.0785941043084	197.14825396825398	77	127
197.0785941043084	197.1714739229025	55	127
197.0785941043084	197.14825396825398	74	127
197.18308390022676	197.2991836734694	77	127
197.18308390022676	197.2991836734694	81	127
197.18308390022676	197.2643537414966	67	127
197.2643537414966	197.36884353741496	55	127
197.38045351473923	197.51977324263038	76	127
197.38045351473923	197.53138321995465	79	127
197.38045351473923	197.49655328798187	67	127
197.49655328798187	197.60104308390024	55	127
197.61265306122448	197.71714285714285	75	127
197.61265306122448	197.71714285714285	78	127
197.61265306122448	197.69392290249434	67	127
197.69392290249434	197.78680272108843	55	127
197.7984126984127	197.90290249433107	67	127
197.7984126984127	197.93773242630385	77	127
197.7984126984127	197.92612244897958	74	127
197.90290249433107	198.00739229024944	55	127
198.01900226757368	198.15832199546486	73	127
198.01900226757368	198.12349206349205	67	127
198.01900226757368	198.15832199546486	76	127
198.12349206349205	198.22798185941042	55	127
198.2395918367347	198.34408163265306	72	127
198.2395918367347	198.35569160997733	75	127
198.2395918367347	198.32086167800455	67	127
198.32086167800455	198.42535147392292	55	127
198.43696145124716	198.6459410430839	74	127
198.43696145124716	198.6459410430839	43	127
198.43696145124716	198.5530612244898	71	127
198.43696145124716	198.5530612244898	67	127
198.5530612244898	198.62272108843538	74	127
198.5530612244898	198.62272108843538	59	127
198.65755102040816	198.738820861678	60	127
198.65755102040816	198.738820861678	76	127
198.76204081632653	198.84331065759636	74	127
198.76204081632653	198.84331065759636	59	127
198.87814058956917	199.40058956916099	77	127
198.87814058956917	199.40058956916099	62	127
198.97102040816327	199.0522902494331	79	127
199.0871201814059	199.16839002267574	81	127
199.0871201814059	199.29609977324262	55	127
199.19160997732428	199.2728798185941	79	127
199.3077097505669	199.81854875283446	91	127
199.3077097505669	199.50507936507935	43	127
199.40058956916099	199.48185941043084	76	127
199.40058956916099	199.48185941043084	60	127
199.51668934240362	199.59795918367348	62	127
199.51668934240362	199.59795918367348	77	127
199.621179138322	199.6792290249433	76	127
199.621179138322	199.6792290249433	60	127
199.7140589569161	200.2713378684807	79	127
199.7140589569161	200.2713378684807	64	127
199.81854875283446	199.89981859410432	79	127
199.9346485260771	200.1552380952381	55	127
199.9346485260771	200.01591836734693	81	127
200.05074829931974	200.13201814058957	79	127
200.16684807256235	200.38743764172335	43	127
200.16684807256235	200.2713378684807	91	127
200.2713378684807	200.35260770975057	62	127
200.2713378684807	200.35260770975057	77	127
200.2713378684807	200.38743764172335	79	127
200.39904761904762	200.48031746031745	80	127
200.39904761904762	200.49192743764172	91	127
200.39904761904762	200.48031746031745	64	127
200.49192743764172	200.5615873015873	77	127
200.49192743764172	200.58480725623582	79	127
200.49192743764172	200.5615873015873	62	127
200.5964172335601	200.67768707482992	91	127
200.5964172335601	200.70090702947846	81	127
200.5964172335601	200.70090702947846	65	127
200.67768707482992	200.75895691609978	79	127
200.77056689342405	200.9679365079365	55	127
200.77056689342405	200.86344671201815	91	127
200.77056689342405	200.9098866213152	80	127
200.77056689342405	200.9098866213152	64	127
200.86344671201815	200.9679365079365	79	127
200.97954648526078	201.1304761904762	63	127
200.97954648526078	201.1304761904762	43	127
200.97954648526078	201.08403628117915	91	127
200.97954648526078	201.1304761904762	78	127
201.08403628117915	201.1885260770975	79	127
201.20013605442176	201.35106575963718	55	127
201.20013605442176	201.35106575963718	62	127
201.20013605442176	201.30462585034013	91	127
201.20013605442176	201.35106575963718	77	127
201.30462585034013	201.42072562358277	79	127
201.43233560090704	201.5368253968254	91	127
201.43233560090704	201.58326530612246	76	127
201.43233560090704	201.58326530612246	61	127
201.43233560090704	201.58326530612246	43	127
201.5368253968254	201.64131519274378	79	127
201.65292517006802	201.7922448979592	55	127
201.65292517006802	201.74580498866214	90	127
201.65292517006802	201.7922448979592	75	127
201.65292517006802	201.7922448979592	60	127
201.75741496598638	201.86190476190475	79	127
201.86190476190475	202.02444444444444	74	127
201.86190476190475	202.02444444444444	43	127
201.86190476190475	202.02444444444444	91	127
201.86190476190475	202.02444444444444	59	127
202.09410430839003	202.24503401360545	72	127
202.09410430839003	202.24503401360545	50	127
202.09410430839003	202.24503401360545	78	127
202.09410430839003	202.24503401360545	69	127
202.314693877551	202.4772335600907	71	127
202.314693877551	202.4772335600907	55	127
202.314693877551	202.4772335600907	79	127
202.314693877551	202.4772335600907	67	127
202.55850340136055	202.73265306122448	72	127
202.55850340136055	202.73265306122448	50	127
202.55850340136055	202.73265306122448	78	127
202.55850340136055	202.73265306122448	69	127
202.82553287981858	203.20866213151928	71	127
202.82553287981858	203.20866213151928	55	127
202.82553287981858	203.20866213151928	79	127
202.82553287981858	203.20866213151928	67	127
203.97492063492064	204.86888888888888	55	127
203.97492063492064	205.82090702947846	60	127
203.97492063492064	204.86888888888888	64	127
203.97492063492064	204.86888888888888	48	127
204.86888888888888	205.82090702947846	41	127
204.86888888888888	205.82090702947846	69	127
204.86888888888888	205.82090702947846	53	127
205.82090702947846	206.86580498866212	62	127
205.82090702947846	206.86580498866212	59	127
205.82090702947846	206.45945578231292	43	127
205.82090702947846	206.86580498866212	55	127
206.47106575963718	206.58716553287982	45	127
206.61038548752833	206.72648526077097	43	127
206.73809523809524	206.86580498866212	41	127
206.86580498866212	207.13283446712018	55	127
206.86580498866212	207.5043537414966	67	127
206.86580498866212	207.13283446712018	60	127
206.86580498866212	207.13283446712018	40	127
207.5043537414966	207.62045351473924	67	127
207.63206349206348	207.70172335600907	69	127
207.71333333333334	207.8178231292517	67	127
207.8178231292517	207.92231292517008	60	127
207.8178231292517	208.317052154195	76	127
207.93392290249434	208.02680272108844	67	127
208.03841269841269	208.11968253968254	59	127
208.03841269841269	208.11968253968254	69	127
208.11968253968254	208.21256235827664	67	127
208.21256235827664	208.317052154195	57	127
208.21256235827664	208.758231292517	72	127
208.317052154195	208.43315192743765	76	127
208.43315192743765	208.54925170068026	55	127
208.43315192743765	208.54925170068026	77	127
208.54925170068026	208.6421315192744	76	127
208.6421315192744	208.758231292517	53	127
208.6421315192744	209.22263038548752	81	127
208.758231292517	208.86272108843536	72	127
208.87433106575963	208.978820861678	74	127
208.87433106575963	208.978820861678	52	127
208.99043083900227	209.09492063492064	72	127
209.1065306122449	209.7915192743764	77	127
209.1065306122449	209.22263038548752	50	127
209.22263038548752	209.33873015873016	81	127
209.33873015873016	209.4548299319728	48	127
209.33873015873016	209.4548299319728	83	127
209.4548299319728	209.55931972789116	81	127
209.55931972789116	210.05854875283447	79	127
209.55931972789116	209.67541950113377	47	127
209.7915192743764	209.9540589569161	59	127
209.7915192743764	209.90761904761905	43	127
209.97727891156464	210.05854875283447	45	127
209.97727891156464	210.10498866213152	60	127
210.07015873015874	210.16303854875284	77	127
210.1746485260771	210.25591836734694	47	127
210.1746485260771	210.29074829931972	62	127
210.1746485260771	210.25591836734694	76	127
210.2675283446712	210.37201814058957	74	127
210.37201814058957	210.4881179138322	48	127
210.37201814058957	210.89446712018142	76	127
210.37201814058957	210.51133786848072	64	127
210.56938775510204	210.6738775510204	40	127
210.56938775510204	210.7087074829932	68	127
210.77836734693878	210.89446712018142	42	127
210.77836734693878	210.94090702947847	69	127
210.89446712018142	210.9989569160998	74	127
210.9989569160998	211.10344671201815	44	127
210.9989569160998	211.13827664399093	71	127
210.9989569160998	211.10344671201815	72	127
211.1150566893424	211.2079365079365	71	127
211.21954648526076	211.7768253968254	72	127
211.21954648526076	211.27759637188208	69	127
211.21954648526076	211.30081632653062	45	127
211.31242630385486	211.41691609977323	64	127
211.4285260770975	211.54462585034014	65	127
211.4285260770975	211.54462585034014	55	127
211.54462585034014	211.66072562358278	64	127
211.66072562358278	211.7768253968254	53	127
211.66072562358278	212.2180045351474	69	127
211.7768253968254	211.88131519274376	72	127
211.88131519274376	211.9974149659864	52	127
211.88131519274376	211.9974149659864	74	127
211.9974149659864	212.11351473922903	72	127
212.11351473922903	212.68240362811792	77	127
212.11351473922903	212.2180045351474	50	127
212.22961451247164	212.32249433106577	69	127
212.33410430839	212.43859410430838	48	127
212.33410430839	212.43859410430838	71	127
212.45020408163265	212.55469387755102	69	127
212.5663038548753	212.68240362811792	47	127
212.5663038548753	213.10036281179137	74	127
212.68240362811792	212.7868934240363	77	127
212.7868934240363	212.8797732426304	45	127
212.7868934240363	212.8797732426304	79	127
212.8797732426304	213.43705215419502	76	127
212.8797732426304	212.98426303854876	44	127
213.10036281179137	213.20485260770974	68	127
213.10036281179137	213.20485260770974	40	127
213.33256235827665	213.43705215419502	69	127
213.33256235827665	213.43705215419502	42	127
213.44866213151928	213.54154195011338	74	127
213.54154195011338	213.63442176870748	72	127
213.54154195011338	213.63442176870748	44	127
213.54154195011338	213.63442176870748	71	127
213.64603174603175	213.76213151927436	71	127
213.76213151927436	213.9130612244898	72	127
213.76213151927436	213.9130612244898	45	127
213.76213151927436	213.878231292517	72	127
213.878231292517	213.9711111111111	71	127
213.9711111111111	214.1336507936508	74	127
213.9711111111111	214.1336507936508	47	127
213.9711111111111	214.08721088435374	69	127
214.08721088435374	214.1917006802721	68	127
214.1917006802721	214.30780045351474	76	127
214.1917006802721	214.27297052154196	69	127
214.1917006802721	214.30780045351474	48	127
214.27297052154196	214.3774603174603	73	127
214.38907029478457	214.54	50	127
214.38907029478457	214.49356009070294	71	127
214.38907029478457	214.54	78	127
214.5051700680272	214.58643990929704	69	127
214.5980498866213	214.73736961451246	52	127
214.5980498866213	215.14371882086166	79	127
214.5980498866213	214.6677097505669	67	127
214.70253968253968	214.80702947845805	71	127
214.81863945578232	214.95795918367347	50	127
214.81863945578232	214.9231292517007	72	127
214.9231292517007	215.02761904761905	71	127
215.02761904761905	215.19015873015874	48	127
215.02761904761905	215.86353741496598	76	127
215.14371882086166	215.2598185941043	79	127
215.2598185941043	215.37591836734694	47	127
215.2598185941043	215.37591836734694	81	127
215.37591836734694	216.22344671201813	84	127
215.37591836734694	215.52684807256236	45	127
215.49201814058958	215.58489795918368	57	127
215.58489795918368	215.67777777777778	59	127
215.58489795918368	215.68938775510205	48	127
215.67777777777778	215.74743764172337	57	127
215.7590476190476	216.33954648526077	69	127
215.7590476190476	215.89836734693878	52	127
215.86353741496598	215.9796371882086	76	127
215.9796371882086	216.09573696145125	78	127
215.9796371882086	216.13056689342403	57	127
216.09573696145125	216.22344671201813	76	127
216.22344671201813	217.16385487528345	75	127
216.22344671201813	216.38598639455782	59	127
216.22344671201813	216.79233560090702	78	127
216.33954648526077	216.4556462585034	69	127
216.4556462585034	216.57174603174604	71	127
216.4556462585034	216.6181859410431	54	127
216.5833560090703	216.67623582766439	69	127
216.68784580498865	216.83877551020407	51	127
216.68784580498865	217.37283446712019	57	127
216.8039455782313	216.92004535147393	78	127
216.93165532879817	217.03614512471654	79	127
216.93165532879817	217.08258503401362	47	127
217.0477551020408	217.16385487528345	78	127
217.16385487528345	217.58181405895692	74	127
217.16385487528345	217.98816326530613	83	127
217.16385487528345	217.3031746031746	40	127
217.37283446712019	217.53537414965987	44	127
217.37283446712019	217.5469841269841	56	127
217.5469841269841	217.62825396825397	47	127
217.58181405895692	217.67469387755102	74	127
217.67469387755102	217.8024036281179	52	127
217.67469387755102	217.75596371882085	76	127
217.67469387755102	217.8720634920635	68	127
217.76757369614512	217.8720634920635	74	127
217.88367346938776	218.34807256235828	73	127
217.88367346938776	218.03460317460318	45	127
217.88367346938776	218.10426303854877	67	127
217.9997732426304	218.10426303854877	76	127
218.115873015873	218.34807256235828	69	127
218.115873015873	218.23197278911564	78	127
218.115873015873	218.26680272108842	55	127
218.23197278911564	218.34807256235828	76	127
218.34807256235828	218.46417233560092	72	127
218.34807256235828	218.91696145124718	81	127
218.34807256235828	218.51061224489797	54	127
218.34807256235828	218.58027210884353	62	127
218.46417233560092	218.58027210884353	72	127
218.58027210884353	218.69637188208617	74	127
218.58027210884353	218.8124716553288	66	127
218.58027210884353	218.74281179138322	50	127
218.69637188208617	218.8124716553288	72	127
218.8124716553288	218.96340136054422	43	127
218.8124716553288	219.02145124716554	65	127
218.8124716553288	219.3813605442177	71	127
218.92857142857142	219.02145124716554	74	127
219.03306122448978	219.2536507936508	67	127
219.03306122448978	219.13755102040815	76	127
219.03306122448978	219.1839909297052	53	127
219.14916099773242	219.2536507936508	74	127
219.26526077097506	219.4974603174603	60	127
219.26526077097506	219.76448979591837	79	127
219.26526077097506	219.41619047619048	52	127
219.3813605442177	219.4974603174603	70	127
219.4974603174603	219.67160997732427	65	127
219.4974603174603	219.61356009070295	72	127
219.4974603174603	219.64839002267573	48	127
219.61356009070295	219.69482993197278	70	127
219.69482993197278	219.81092970521541	41	127
219.69482993197278	220.1940589569161	69	127
219.69482993197278	219.81092970521541	65	127
219.76448979591837	219.86897959183673	72	127
219.86897959183673	220.01990929705215	53	127
219.86897959183673	219.9734693877551	74	127
219.86897959183673	220.01990929705215	53	127
219.98507936507937	220.08956916099774	72	127
220.10117913832198	220.24049886621316	40	127
220.10117913832198	220.58879818594104	77	127
220.10117913832198	220.24049886621316	64	127
220.20566893424035	220.31015873015872	69	127
220.321768707483	220.43786848072563	52	127
220.321768707483	220.39142857142858	68	127
220.321768707483	220.43786848072563	52	127
220.40303854875285	220.51913832199546	69	127
220.51913832199546	220.62362811791382	38	127
220.51913832199546	220.62362811791382	71	127
220.51913832199546	220.62362811791382	62	127
220.58879818594104	220.70489795918368	76	127
220.70489795918368	220.8558276643991	50	127
220.70489795918368	221.1344671201814	65	127
220.70489795918368	220.8209977324263	74	127
220.70489795918368	220.8558276643991	50	127
220.8209977324263	220.91387755102042	72	127
220.91387755102042	221.06480725623584	50	127
220.91387755102042	221.0183673469388	71	127
220.91387755102042	221.06480725623584	62	127
221.0183673469388	221.1344671201814	72	127
221.14607709750567	221.30861678004536	51	127
221.14607709750567	221.37827664399094	66	127
221.14607709750567	221.23895691609977	69	127
221.14607709750567	221.30861678004536	60	127
221.2621768707483	221.37827664399094	71	127
221.38988662131518	221.6104761904762	68	127
221.38988662131518	221.6104761904762	59	127
221.38988662131518	221.5408163265306	52	127
221.38988662131518	221.6104761904762	64	127
221.62208616780046	221.7962358276644	52	127
221.87750566893425	222.04004535147394	52	127
221.99360544217686	222.09809523809523	76	127
222.09809523809523	222.21419501133786	74	127
222.09809523809523	222.2606349206349	52	127
222.21419501133786	222.3302947845805	76	127
222.3302947845805	223.1778231292517	68	127
222.3302947845805	222.45800453514738	52	127
222.3302947845805	222.88757369614513	77	127
222.3302947845805	223.1778231292517	62	127
222.53927437641724	222.69020408163266	52	127
222.7714739229025	222.9224036281179	52	127
222.88757369614513	223.00367346938776	77	127
223.00367346938776	223.07333333333332	79	127
223.00367346938776	223.10816326530613	52	127
223.07333333333332	223.1778231292517	77	127
223.1778231292517	224.0253514739229	69	127
223.1778231292517	224.0253514739229	60	127
223.1778231292517	223.34036281179138	52	127
223.1778231292517	223.66544217687076	76	127
223.41002267573697	223.5609523809524	52	127
223.59578231292517	223.7118820861678	52	127
223.67705215419502	223.78154195011336	76	127
223.79315192743763	223.897641723356	77	127
223.79315192743763	223.94408163265305	52	127
223.90925170068027	224.0253514739229	76	127
224.0253514739229	224.1878911564626	72	127
224.0253514739229	224.1878911564626	52	127
224.0253514739229	224.1878911564626	75	127
224.0253514739229	224.1878911564626	57	127
224.25755102040816	224.38526077097507	72	127
224.25755102040816	224.38526077097507	52	127
224.25755102040816	224.38526077097507	75	127
224.25755102040816	224.38526077097507	57	127
224.45492063492063	224.6174603174603	72	127
224.45492063492063	224.6174603174603	52	127
224.45492063492063	224.6174603174603	75	127
224.45492063492063	224.6174603174603	57	127
224.69873015873017	224.8728798185941	72	127
224.69873015873017	224.8728798185941	52	127
224.69873015873017	224.8728798185941	75	127
224.69873015873017	224.8728798185941	57	127
224.9425396825397	225.16312925170067	71	127
224.9425396825397	225.0934693877551	56	127
224.9425396825397	225.0934693877551	52	127
224.9425396825397	225.16312925170067	76	127
225.17473922902494	225.32566893424035	52	127
225.4069387755102	225.5694784580499	52	127
225.52303854875282	225.63913832199546	64	127
225.63913832199546	225.79006802721088	52	127
225.63913832199546	225.74362811791383	63	127
225.74362811791383	225.85972789115647	64	127
225.85972789115647	226.6956462585034	80	127
225.85972789115647	226.6956462585034	62	127
225.85972789115647	226.01065759637189	52	127
225.85972789115647	226.40539682539682	65	127
226.08031746031747	226.21963718820862	52	127
226.30090702947845	226.4402267573696	52	127
226.40539682539682	226.49827664399092	65	127
226.49827664399092	226.61437641723356	67	127
226.49827664399092	226.64920634920634	52	127
226.61437641723356	226.6956462585034	65	127
226.6956462585034	227.55478458049888	81	127
226.6956462585034	227.55478458049888	60	127
226.6956462585034	226.85818594104308	52	127
226.6956462585034	227.21809523809523	64	127
226.92784580498866	227.03233560090703	52	127
227.11360544217686	227.26453514739228	52	127
227.2297052154195	227.31097505668933	64	127
227.3225850340136	227.42707482993197	65	127
227.3225850340136	227.47351473922902	52	127
227.43868480725624	227.55478458049888	64	127
227.55478458049888	227.71732426303853	63	127
227.55478458049888	227.71732426303853	69	127
227.55478458049888	227.71732426303853	84	127
227.55478458049888	227.71732426303853	52	127
227.7637641723356	227.93791383219954	69	127
227.7637641723356	227.93791383219954	84	127
227.7637641723356	227.93791383219954	63	127
227.7637641723356	227.93791383219954	52	127
227.99596371882086	228.17011337868482	52	127
227.99596371882086	228.17011337868482	84	127
227.99596371882086	228.17011337868482	63	127
227.99596371882086	228.17011337868482	69	127
228.2049433106576	228.35587301587302	69	127
228.2049433106576	228.35587301587302	63	127
228.2049433106576	228.35587301587302	84	127
228.2049433106576	228.35587301587302	52	127
228.4255328798186	228.62290249433107	64	127
228.4255328798186	228.58807256235826	68	127
228.4255328798186	228.62290249433107	83	127
228.4255328798186	228.62290249433107	52	127
228.62290249433107	228.78544217687076	64	127
228.84349206349205	228.97120181405896	64	127
228.91315192743764	229.017641723356	76	127
229.017641723356	229.24984126984128	71	127
229.017641723356	229.13374149659865	77	127
229.017641723356	229.19179138321996	64	127
229.017641723356	229.24984126984128	68	127
229.13374149659865	229.24984126984128	76	127
229.24984126984128	229.4239909297052	69	127
229.24984126984128	229.4239909297052	75	127
229.24984126984128	229.4239909297052	72	127
229.24984126984128	229.4239909297052	64	127
229.50526077097507	229.6561904761905	69	127
229.50526077097507	229.6561904761905	75	127
229.50526077097507	229.6561904761905	72	127
229.50526077097507	229.6561904761905	64	127
229.71424036281178	229.87678004535147	69	127
229.71424036281178	229.87678004535147	75	127
229.71424036281178	229.87678004535147	72	127
229.71424036281178	229.87678004535147	64	127
229.94643990929706	230.10897959183674	69	127
229.94643990929706	230.10897959183674	75	127
229.94643990929706	230.10897959183674	72	127
229.94643990929706	230.10897959183674	64	127
230.1554195011338	230.38761904761904	68	127
230.1554195011338	230.32956916099772	64	127
230.1554195011338	230.38761904761904	76	127
230.1554195011338	230.38761904761904	71	127
230.38761904761904	230.561768707483	52	127
230.63142857142856	230.7475283446712	52	127
230.70108843537415	230.782358276644	64	127
230.79396825396825	230.94489795918366	56	127
230.79396825396825	230.82879818594105	65	127
230.79396825396825	230.8752380952381	52	127
230.79396825396825	230.94489795918366	83	127
230.8404081632653	230.94489795918366	64	127
230.94489795918366	231.09582766439908	57	127
230.94489795918366	231.09582766439908	84	127
230.94489795918366	231.09582766439908	63	127
230.94489795918366	231.09582766439908	52	127
231.1538775510204	231.30480725623582	57	127
231.1538775510204	231.30480725623582	84	127
231.1538775510204	231.30480725623582	63	127
231.1538775510204	231.30480725623582	52	127
231.36285714285714	231.54861678004536	57	127
231.36285714285714	231.54861678004536	84	127
231.36285714285714	231.54861678004536	63	127
231.36285714285714	231.54861678004536	52	127
231.60666666666665	231.80403628117915	57	127
231.60666666666665	231.80403628117915	84	127
231.60666666666665	231.80403628117915	63	127
231.60666666666665	231.80403628117915	52	127
231.89691609977325	232.81410430839003	56	127
231.89691609977325	232.81410430839003	83	127
231.89691609977325	232.81410430839003	64	127
231.89691609977325	232.81410430839003	52	127
232.81410430839003	233.9867120181406	59	127
232.81410430839003	233.9867120181406	86	127
232.81410430839003	233.9867120181406	68	127
232.81410430839003	233.9867120181406	40	127
233.9867120181406	237.3187755102041	62	127
233.9867120181406	237.3187755102041	80	127
233.9867120181406	237.3187755102041	71	127
233.9867120181406	237.3187755102041	52	127
233.9867120181406	237.3187755102041	40	127
237.82961451247166	237.89927437641722	64	127
237.93410430839003	238.0037641723356	66	127
238.0385941043084	238.11986394557823	64	127
238.154693877551	239.39696145124717	61	127
238.27079365079365	238.35206349206348	52	127
238.3868934240363	238.45655328798185	54	127
238.49138321995466	238.56104308390022	52	127
238.58426303854876	239.17637188208616	57	127
238.65392290249434	238.7003628117914	76	127
238.73519274376417	238.816462585034	78	127
238.8512925170068	238.92095238095237	76	127
238.95578231292518	239.478231292517	81	127
239.0718820861678	239.14154195011338	64	127
239.17637188208616	239.25764172335602	66	127
239.17637188208616	239.39696145124717	52	127
239.2924716553288	239.36213151927439	64	127
239.39696145124717	239.59433106575963	64	127
239.39696145124717	239.59433106575963	49	127
239.39696145124717	239.59433106575963	69	127
239.48984126984126	239.55950113378685	85	127
239.59433106575963	239.80331065759637	61	127
239.59433106575963	239.6756009070295	83	127
239.59433106575963	239.80331065759637	45	127
239.59433106575963	239.80331065759637	73	127
239.71043083900227	239.78009070294786	81	127
239.80331065759637	240.22126984126984	40	127
239.80331065759637	239.89619047619047	81	127
239.80331065759637	240.11678004535148	74	127
239.80331065759637	240.11678004535148	59	127
239.90780045351474	239.97746031746033	80	127
240.0122902494331	240.09356009070294	78	127
240.12839002267575	240.22126984126984	71	127
240.12839002267575	240.22126984126984	62	127
240.12839002267575	240.18643990929706	80	127
240.22126984126984	240.54634920634922	57	127
240.22126984126984	240.30253968253967	81	127
240.22126984126984	240.65083900226756	45	127
240.22126984126984	240.54634920634922	73	127
240.33736961451248	240.40702947845804	85	127
240.4534693877551	240.53473922902495	83	127
240.55795918367346	240.62761904761905	81	127
240.55795918367346	240.65083900226756	69	127
240.55795918367346	240.65083900226756	61	127
240.65083900226756	240.92947845804989	59	127
240.65083900226756	240.75532879818593	81	127
240.65083900226756	241.04557823129252	40	127
240.65083900226756	240.92947845804989	74	127
240.7669387755102	240.82498866213152	80	127
240.82498866213152	240.90625850340135	78	127
240.94108843537416	241.01074829931972	80	127
240.94108843537416	241.04557823129252	71	127
240.94108843537416	241.04557823129252	62	127
241.04557823129252	241.34743764172336	73	127
241.04557823129252	241.45192743764173	45	127
241.04557823129252	241.12684807256235	81	127
241.04557823129252	241.34743764172336	57	127
241.16167800453513	241.23133786848072	85	127
241.2661678004535	241.3358276643991	83	127
241.35904761904763	241.41709750566892	81	127
241.35904761904763	241.45192743764173	69	127
241.35904761904763	241.45192743764173	61	127
241.45192743764173	241.6492970521542	68	127
241.45192743764173	241.54480725623583	81	127
241.45192743764173	241.6492970521542	59	127
241.45192743764173	241.6492970521542	40	127
241.5564172335601	241.61446712018142	80	127
241.6492970521542	241.84666666666666	68	127
241.6492970521542	241.84666666666666	59	127
241.6492970521542	241.73056689342403	78	127
241.6492970521542	241.84666666666666	52	127
241.76539682539683	241.82344671201815	76	127
241.84666666666666	242.0556462585034	59	127
241.84666666666666	241.95115646258503	75	127
241.84666666666666	242.0556462585034	69	127
241.84666666666666	242.0556462585034	47	127
241.95115646258503	242.02081632653062	76	127
242.0556462585034	242.32267573696146	47	127
242.0556462585034	242.1485260770975	78	127
242.0556462585034	242.32267573696146	69	127
242.0556462585034	242.32267573696146	59	127
242.1833560090703	242.28784580498865	80	127
242.33428571428573	243.51850340136053	52	127
242.33428571428573	243.51850340136053	76	127
242.33428571428573	243.51850340136053	68	127
242.33428571428573	243.51850340136053	59	127
243.90163265306123	243.98290249433106	83	127
244.0061224489796	244.06417233560092	82	127
244.08739229024943	244.16866213151928	83	127
244.20349206349206	245.6663492063492	74	127
244.33120181405894	244.38925170068026	71	127
244.42408163265307	244.5053514739229	70	127
244.54018140589568	244.6330612244898	71	127
244.6678911564626	245.30643990929704	62	127
244.80721088435374	244.83043083900228	59	127
244.83043083900228	244.90009070294784	58	127
244.93492063492064	245.01619047619047	59	127
245.06263038548752	245.5502494331066	52	127
245.17873015873016	245.27160997732426	47	127
245.30643990929704	245.3877097505669	46	127
245.30643990929704	245.5502494331066	56	127
245.42253968253968	245.51541950113378	47	127
245.5502494331066	246.0146485260771	40	127
245.5502494331066	245.78244897959183	59	127
245.5502494331066	245.78244897959183	56	127
245.6663492063492	245.75922902494332	78	127
245.78244897959183	246.0146485260771	59	127
245.78244897959183	245.87532879818593	76	127
245.78244897959183	246.0146485260771	62	127
245.91015873015874	245.99142857142857	74	127
246.02625850340135	246.44421768707483	45	127
246.02625850340135	246.13074829931972	74	127
246.02625850340135	246.35133786848073	61	127
246.02625850340135	246.35133786848073	57	127
246.13074829931972	246.21201814058958	73	127
246.24684807256236	246.31650793650795	71	127
246.35133786848073	246.42099773242631	69	127
246.35133786848073	246.44421768707483	64	127
246.35133786848073	246.44421768707483	52	127
246.4558276643991	246.75768707482993	59	127
246.4558276643991	246.57192743764173	68	127
246.4558276643991	246.83895691609976	52	127
246.4558276643991	246.75768707482993	62	127
246.57192743764173	246.65319727891156	69	127
246.68802721088434	246.74607709750566	71	127
246.75768707482993	246.81573696145125	73	127
246.75768707482993	246.83895691609976	64	127
246.75768707482993	246.83895691609976	52	127
246.85056689342403	247.14081632653063	57	127
246.85056689342403	246.92022675736962	69	127
246.85056689342403	247.24530612244897	45	127
246.85056689342403	247.14081632653063	61	127
246.92022675736962	247.00149659863945	73	127
247.03632653061226	247.09437641723355	76	127
247.14081632653063	247.22208616780046	76	127
247.14081632653063	247.24530612244897	64	127
247.14081632653063	247.24530612244897	52	127
247.25691609977324	247.57038548752834	56	127
247.25691609977324	247.62843537414966	40	127
247.25691609977324	247.3614058956916	76	127
247.25691609977324	247.57038548752834	59	127
247.3614058956916	247.44267573696146	78	127
247.47750566893424	247.54716553287983	76	127
247.57038548752834	247.62843537414966	74	127
247.57038548752834	247.62843537414966	64	127
247.57038548752834	247.62843537414966	52	127
247.64004535147393	247.75614512471654	74	127
247.64004535147393	247.95351473922904	61	127
247.64004535147393	247.95351473922904	57	127
247.64004535147393	248.04639455782313	45	127
247.75614512471654	247.8374149659864	73	127
247.84902494331067	247.91868480725623	71	127
247.95351473922904	248.0231746031746	69	127
247.95351473922904	248.04639455782313	64	127
247.95351473922904	248.04639455782313	52	127
248.0580045351474	248.34825396825397	59	127
248.0580045351474	248.1508843537415	68	127
248.0580045351474	248.45274376417234	52	127
248.0580045351474	248.34825396825397	62	127
248.1508843537415	248.20893424036282	69	127
248.2437641723356	248.3134240362812	71	127
248.34825396825397	248.4295238095238	73	127
248.34825396825397	248.45274376417234	64	127
248.34825396825397	248.45274376417234	52	127
248.4643537414966	249.1261224489796	69	127
248.4643537414966	248.56884353741498	52	127
248.4643537414966	248.67333333333335	45	127
248.4643537414966	249.1261224489796	61	127
248.56884353741498	248.6501133786848	64	127
248.6849433106576	248.75460317460318	66	127
248.78943310657596	248.8707029478458	64	127
248.91714285714286	249.34671201814058	76	127
249.13773242630384	249.34671201814058	71	127
249.13773242630384	249.34671201814058	68	127
249.35832199546485	249.59052154195012	73	127
249.35832199546485	249.59052154195012	69	127
249.60213151927437	249.7878911564626	71	127
249.60213151927437	249.7878911564626	68	127
249.79950113378686	249.98526077097506	74	127
249.79950113378686	249.98526077097506	71	127
249.99687074829933	250.1942403628118	73	127
249.99687074829933	250.1942403628118	69	127
250.20585034013607	250.92566893424035	68	127
250.20585034013607	250.92566893424035	71	127
250.35678004535148	250.44965986394558	52	127
250.48448979591836	250.55414965986395	54	127
250.58897959183673	250.67024943310656	52	127
250.71668934240364	251.1694784580499	64	127
250.93727891156462	251.1694784580499	73	127
250.93727891156462	251.1694784580499	70	127
251.18108843537414	251.4132879818594	71	127
251.18108843537414	251.4132879818594	74	127
251.42489795918368	251.63387755102042	70	127
251.42489795918368	251.63387755102042	73	127
251.64548752834466	251.79641723356008	76	127
251.64548752834466	251.79641723356008	73	127
251.80802721088435	252.00539682539682	71	127
251.80802721088435	252.00539682539682	74	127
252.01700680272108	252.7368253968254	57	127
252.01700680272108	252.13310657596372	73	127
252.01700680272108	252.7368253968254	57	127
252.01700680272108	252.24920634920636	69	127
252.13310657596372	252.22598639455782	69	127
252.2608163265306	252.3304761904762	71	127
252.36530612244897	252.4581859410431	69	127
252.49301587301588	253.955873015873	81	127
252.74843537414966	252.9574149659864	61	127
252.74843537414966	252.9574149659864	64	127
252.96902494331067	253.17800453514738	62	127
252.96902494331067	253.17800453514738	66	127
253.18961451247165	253.3985941043084	61	127
253.18961451247165	253.3985941043084	64	127
253.41020408163266	253.6191836734694	64	127
253.41020408163266	253.6191836734694	67	127
253.63079365079366	253.83977324263037	62	127
253.63079365079366	253.83977324263037	66	127
253.85138321995464	254.55959183673468	61	127
253.85138321995464	254.55959183673468	64	127
253.955873015873	254.03714285714287	69	127
254.07197278911565	254.14163265306124	71	127
254.17646258503402	254.29256235827665	69	127
254.3390022675737	255.46517006802722	81	127
254.57120181405895	254.79179138321996	63	127
254.57120181405895	254.79179138321996	66	127
254.80340136054423	255.01238095238097	64	127
254.80340136054423	255.01238095238097	67	127
255.0239909297052	255.23297052154194	63	127
255.0239909297052	255.23297052154194	66	127
255.2445804988662	255.46517006802722	66	127
255.2445804988662	255.46517006802722	69	127
255.47678004535146	255.69736961451247	64	127
255.47678004535146	255.69736961451247	85	127
255.47678004535146	255.69736961451247	67	127
255.70897959183674	256.38235827664397	74	127
255.70897959183674	256.38235827664397	66	127
255.70897959183674	255.8482993197279	62	127
255.70897959183674	256.38235827664397	86	127
255.8482993197279	255.94117913832198	50	127
255.9760090702948	256.05727891156465	52	127
256.0921088435374	256.1733560090703	50	127
256.20820861678004	257.6362358276644	62	127
256.39396825396824	256.602947845805	88	127
256.39396825396824	256.602947845805	73	127
256.39396825396824	256.602947845805	67	127
256.61455782312925	256.8467573696145	90	127
256.61455782312925	256.8467573696145	74	127
256.61455782312925	256.8467573696145	66	127
256.8583673469388	257.06734693877553	88	127
256.8583673469388	257.06734693877553	73	127
256.8583673469388	257.06734693877553	67	127
257.0789569160998	257.27632653061227	91	127
257.0789569160998	257.27632653061227	76	127
257.0789569160998	257.27632653061227	61	127
257.28793650793654	257.4968934240363	74	127
257.28793650793654	257.4968934240363	90	127
257.28793650793654	257.4968934240363	62	127
257.5085260770975	258.15868480725624	67	127
257.5085260770975	258.15868480725624	88	127
257.5085260770975	258.15868480725624	73	127
257.6362358276644	257.7175056689342	50	127
257.75233560090703	257.8219954648526	52	127
257.8568253968254	257.93809523809523	50	127
257.97292517006804	259.56349206349205	62	127
258.1702947845805	258.37927437641724	90	127
258.1702947845805	258.37927437641724	74	127
258.1702947845805	258.37927437641724	66	127
258.3908843537415	258.6114739229025	91	127
258.3908843537415	258.6114739229025	76	127
258.3908843537415	258.6114739229025	61	127
258.6114739229025	258.8320408163265	90	127
258.6114739229025	258.8320408163265	74	127
258.6114739229025	258.8320408163265	62	127
258.84367346938774	259.075873015873	78	127
258.84367346938774	259.075873015873	59	127
258.84367346938774	259.075873015873	93	127
259.075873015873	259.3428798185941	61	127
259.075873015873	259.3428798185941	91	127
259.075873015873	259.3428798185941	76	127
259.3428798185941	259.4590022675737	74	127
259.3428798185941	259.56349206349205	90	127
259.3428798185941	259.56349206349205	62	127
259.4590022675737	259.54024943310657	78	127
259.56349206349205	259.63315192743767	79	127
259.6679818594104	259.7492290249433	78	127
259.7724716553288	260.62	83	127
259.9001814058957	259.9814512471655	90	127
259.9001814058957	259.9814512471655	74	127
260.00467120181406	260.0859410430839	91	127
260.00467120181406	260.0859410430839	76	127
260.1207709750567	260.20204081632653	74	127
260.1207709750567	260.20204081632653	90	127
260.22526077097507	260.3065306122449	88	127
260.22526077097507	260.4458503401361	73	127
260.3413605442177	260.42263038548754	88	127
260.4458503401361	260.50390022675737	90	127
260.5271201814059	260.59678004535147	92	127
260.62	261.17725623582766	81	127
260.62	260.73609977324264	93	127
260.73609977324264	260.8173696145125	61	127
260.73609977324264	260.8173696145125	92	127
260.840589569161	260.92185941043084	62	127
260.840589569161	260.92185941043084	90	127
260.95668934240365	261.0379591836735	61	127
260.95668934240365	261.0379591836735	88	127
261.061179138322	261.6184580498866	86	127
261.061179138322	261.281746031746	59	127
261.17725623582766	261.2585487528345	81	127
261.281746031746	261.36303854875285	83	127
261.3978684807256	261.4791383219955	81	127
261.502358276644	262.32666666666665	80	127
261.6184580498866	261.69972789115644	86	127
261.6184580498866	261.69972789115644	71	127
261.722947845805	261.7925850340136	88	127
261.722947845805	261.7925850340136	73	127
261.82743764172335	261.89707482993197	86	127
261.82743764172335	261.89707482993197	71	127
261.92031746031745	262.00156462585034	81	127
261.92031746031745	262.00156462585034	85	127
261.92031746031745	262.14090702947846	69	127
262.0364172335601	262.1176870748299	85	127
262.14090702947846	262.210566893424	86	127
262.2453968253968	262.30342403628117	88	127
262.32666666666665	262.40791383219954	90	127
262.32666666666665	262.81426303854875	78	127
262.40791383219954	262.46598639455783	57	127
262.40791383219954	262.46598639455783	88	127
262.4775963718821	262.54725623582766	86	127
262.4775963718821	262.54725623582766	59	127
262.58208616780047	262.6633560090703	85	127
262.58208616780047	262.6633560090703	57	127
262.68657596371884	263.23224489795916	83	127
262.68657596371884	262.9187528344671	56	127
262.81426303854875	262.8955555555556	78	127
262.9187528344671	263.00004535147394	80	127
263.0348752834467	263.1161451247166	78	127
263.12773242630385	263.65020408163264	76	127
263.23224489795916	263.3019047619048	83	127
263.23224489795916	263.3019047619048	68	127
263.3251020408163	263.40639455782315	85	127
263.3251020408163	263.40639455782315	69	127
263.4412244897959	263.5224943310658	83	127
263.4412244897959	263.5224943310658	68	127
263.54571428571427	264.03333333333336	81	127
263.54571428571427	263.754693877551	66	127
263.65020408163264	263.7314512471655	76	127
263.754693877551	263.8359410430839	78	127
263.8591836734694	263.94043083900226	76	127
263.96367346938774	264.3235827664399	75	127
264.03333333333336	264.0797732426304	81	127
264.03333333333336	264.0797732426304	54	127
264.1029931972789	264.18426303854875	83	127
264.1029931972789	264.18426303854875	56	127
264.21909297052156	264.3003628117914	81	127
264.21909297052156	264.3003628117914	54	127
264.3235827664399	264.3932426303855	76	127
264.3235827664399	264.53256235827666	80	127
264.3235827664399	264.53256235827666	52	127
264.4280725623583	264.53256235827666	76	127
264.53256235827666	264.6486621315193	78	127
264.53256235827666	264.9853514739229	52	127
264.6486621315193	264.71832199546486	76	127
264.7415419501134	265.62390022675737	83	127
264.7415419501134	264.82281179138323	75	127
264.85761904761904	264.9853514739229	74	127
264.9853514739229	265.078231292517	76	127
264.9853514739229	265.078231292517	54	127
265.078231292517	265.1595011337869	74	127
265.078231292517	265.18272108843536	56	127
265.18272108843536	265.3336507936508	57	127
265.18272108843536	265.26396825396824	73	127
265.298820861678	265.40331065759636	73	127
265.40331065759636	265.519410430839	74	127
265.40331065759636	265.5542403628118	59	127
265.519410430839	265.60068027210883	73	127
265.62390022675737	266.0534693877551	81	127
265.62390022675737	265.7051700680272	72	127
265.62390022675737	265.76321995464855	60	127
265.72839002267574	265.8328798185941	72	127
265.8328798185941	265.94897959183675	74	127
265.8328798185941	265.98378684807255	57	127
265.94897959183675	266.0302494331066	72	127
266.0534693877551	266.2740589569161	64	127
266.0534693877551	266.13473922902494	80	127
266.0534693877551	266.2740589569161	71	127
266.16956916099775	266.2740589569161	88	127
266.2740589569161	266.66879818594106	64	127
266.2740589569161	266.3785487528345	90	127
266.3785487528345	266.4598185941043	88	127
266.48303854875286	266.5294784580499	87	127
266.48303854875286	267.30734693877554	83	127
266.5643083900227	266.66879818594106	86	127
266.66879818594106	266.7848979591837	88	127
266.66879818594106	266.7848979591837	66	127
266.7848979591837	266.88938775510206	68	127
266.7848979591837	266.8661678004535	86	127
266.88938775510206	266.9590476190476	85	127
266.88938775510206	267.0287074829932	69	127
266.99387755102043	267.0983673469388	85	127
267.0983673469388	267.21444444444444	86	127
267.0983673469388	267.2376870748299	71	127
267.21444444444444	267.284126984127	85	127
267.30734693877554	267.40022675736964	72	127
267.30734693877554	267.3770068027211	84	127
267.30734693877554	267.7020861678005	81	127
267.3770068027211	267.4698866213152	84	127
267.4698866213152	267.58598639455784	86	127
267.4698866213152	267.63242630385486	69	127
267.58598639455784	267.67886621315193	84	127
267.7020861678005	267.93426303854875	83	127
267.7020861678005	267.7833560090703	80	127
267.7020861678005	267.93426303854875	76	127
267.8181859410431	267.93426303854875	76	127
267.93426303854875	268.36385487528344	52	127
267.93426303854875	268.05038548752833	78	127
268.05038548752833	268.1316326530612	76	127
268.1548752834467	268.2245351473923	75	127
268.1548752834467	268.9675736961451	83	127
268.25936507936507	268.36385487528344	74	127
268.36385487528344	268.4799546485261	76	127
268.36385487528344	268.4799546485261	54	127
268.4799546485261	268.5612244897959	74	127
268.4799546485261	268.58444444444444	56	127
268.58444444444444	268.65410430839	73	127
268.58444444444444	268.7005442176871	57	127
268.6657142857143	268.7585941043084	73	127
268.7585941043084	268.86308390022674	74	127
268.7585941043084	268.89791383219955	59	127
268.86308390022674	268.9443310657596	73	127
268.9675736961451	269.11850340136056	60	127
268.9675736961451	269.048820861678	72	127
268.9675736961451	269.4087528344671	81	127
269.08367346938775	269.1881632653061	72	127
269.1881632653061	269.30426303854875	74	127
269.1881632653061	269.33909297052156	57	127
269.30426303854875	269.3855328798186	72	127
269.4087528344671	269.61773242630386	71	127
269.4087528344671	269.49002267573695	80	127
269.4087528344671	269.5712925170068	64	127
269.52485260770976	269.61773242630386	88	127
269.61773242630386	270.02408163265306	52	127
269.61773242630386	270.02408163265306	64	127
269.61773242630386	269.72222222222223	90	127
269.72222222222223	269.80349206349206	88	127
269.8267120181406	269.9079818594104	87	127
269.8267120181406	270.6510204081633	83	127
269.93120181405897	270.02408163265306	86	127
270.02408163265306	270.12857142857143	54	127
270.02408163265306	270.12857142857143	88	127
270.02408163265306	270.12857142857143	66	127
270.12857142857143	270.198231292517	86	127
270.12857142857143	270.22145124716553	68	127
270.12857142857143	270.22145124716553	56	127
270.22145124716553	270.30272108843536	85	127
270.22145124716553	270.372380952381	69	127
270.22145124716553	270.372380952381	57	127
270.33755102040817	270.44204081632654	85	127
270.44204081632654	270.5465306122449	86	127
270.44204081632654	270.5813378684807	71	127
270.44204081632654	270.5813378684807	59	127
270.5465306122449	270.62780045351474	85	127
270.6510204081633	271.03414965986394	81	127
270.6510204081633	270.6974603174603	84	127
270.6510204081633	270.7671201814059	72	127
270.6510204081633	270.7671201814059	60	127
270.7322902494331	270.8367800453515	84	127
270.8367800453515	270.94126984126984	86	127
270.8367800453515	270.97609977324265	69	127
270.8367800453515	270.97609977324265	57	127
270.94126984126984	271.0109297052154	84	127
271.03414965986394	271.1154195011338	83	127
271.03414965986394	271.2663492063492	64	127
271.03414965986394	271.1154195011338	80	127
271.03414965986394	271.2663492063492	76	127
271.1502494331066	271.2663492063492	80	127
271.1502494331066	271.2663492063492	83	127
271.2663492063492	271.34761904761905	86	127
271.2663492063492	271.34761904761905	83	127
271.2663492063492	271.4637188208617	69	127
271.2663492063492	271.4637188208617	57	127
271.3592290249433	271.4637188208617	81	127
271.3592290249433	271.4637188208617	84	127
271.47532879818596	271.5565986394558	80	127
271.47532879818596	271.6726984126984	76	127
271.47532879818596	271.6726984126984	64	127
271.47532879818596	271.5565986394558	83	127
271.5914285714286	271.6726984126984	83	127
271.5914285714286	271.6726984126984	80	127
271.6843083900227	271.91648526077097	57	127
271.6843083900227	271.80040816326533	86	127
271.6843083900227	271.80040816326533	83	127
271.6843083900227	271.91648526077097	69	127
271.80040816326533	271.91648526077097	84	127
271.80040816326533	271.91648526077097	81	127
271.9281179138322	272.20675736961454	76	127
271.9281179138322	272.20675736961454	83	127
271.9281179138322	272.20675736961454	80	127
271.9281179138322	272.20675736961454	64	127
273.01945578231295	274.11079365079365	45	127
273.01945578231295	274.11079365079365	61	127
273.01945578231295	274.11079365079365	52	127
274.1340136054422	275.0744217687075	57	127
274.1340136054422	275.0744217687075	66	127
274.1340136054422	275.0744217687075	50	127
274.1340136054422	275.0744217687075	38	127
275.0744217687075	276.15414965986395	40	127
275.0744217687075	276.15414965986395	59	127
275.0744217687075	276.15414965986395	56	127
275.0744217687075	276.15414965986395	52	127
276.15414965986395	277.082947845805	37	127
276.15414965986395	277.082947845805	64	127
276.15414965986395	277.082947845805	58	127
276.15414965986395	277.303537414966	55	127
277.082947845805	277.5473469387755	42	127
277.082947845805	277.5473469387755	58	127
277.082947845805	277.5473469387755	61	127
277.303537414966	277.5473469387755	54	127
277.5473469387755	278.5341950113379	54	127
277.5473469387755	278.5341950113379	62	127
277.5473469387755	278.5341950113379	59	127
277.5473469387755	278.5341950113379	47	127
278.5341950113379	278.9985941043084	49	127
278.5341950113379	278.9985941043084	57	127
278.5341950113379	278.9985941043084	52	127
278.5341950113379	279.2424036281179	61	127
278.9985941043084	279.4745804988662	50	127
278.9985941043084	279.2424036281179	66	127
278.9985941043084	279.4745804988662	54	127
279.2540136054422	279.76485260770977	59	127
279.4861904761905	279.99702947845805	51	127
279.4861904761905	279.76485260770977	66	127
279.4861904761905	279.99702947845805	54	127
279.76485260770977	280.24086167800453	57	127
279.99702947845805	280.24086167800453	52	127
279.99702947845805	280.24086167800453	59	127
279.99702947845805	280.24086167800453	59	127
280.24086167800453	280.4846712018141	56	127
280.49628117913835	280.7168707482993	59	127
280.74009070294784	280.9839002267574	64	127
280.9839002267574	281.2044897959184	69	127
280.9839002267574	281.90108843537416	73	127
281.2044897959184	281.4366893424036	68	127
281.4366893424036	281.6688888888889	66	127
281.68049886621316	281.90108843537416	64	127
281.91269841269843	282.6673469387755	78	127
281.91269841269843	282.1448752834467	62	127
282.1448752834467	282.28421768707483	61	127
282.28421768707483	282.4351473922903	59	127
282.4351473922903	282.6673469387755	57	127
282.6673469387755	283.7122448979592	56	127
282.6673469387755	282.91115646258504	71	127
282.6673469387755	282.91115646258504	56	127
282.6673469387755	283.7122448979592	83	127
282.9227664399093	283.22462585034015	54	127
282.9227664399093	283.22462585034015	81	127
283.2362358276644	283.4800453514739	52	127
283.2362358276644	283.4800453514739	80	127
283.4800453514739	283.7122448979592	50	127
283.4800453514739	283.7122448979592	78	127
283.7122448979592	283.94444444444446	49	127
283.7122448979592	284.6526530612245	61	127
283.7122448979592	283.94444444444446	76	127
283.7122448979592	284.6526530612245	88	127
283.94444444444446	284.17664399092973	74	127
283.94444444444446	284.17664399092973	47	127
284.188231292517	284.40884353741495	73	127
284.188231292517	284.40884353741495	45	127
284.4204535147392	284.6526530612245	71	127
284.4204535147392	284.6526530612245	44	127
284.6526530612245	284.8848526077098	69	127
284.6526530612245	284.8848526077098	54	127
284.6526530612245	284.8848526077098	42	127
284.6526530612245	285.117052154195	81	127
284.8848526077098	285.117052154195	50	127
284.8848526077098	285.32603174603173	66	127
285.117052154195	285.32603174603173	47	127
285.117052154195	285.999410430839	86	127
285.337641723356	285.558231292517	65	127
285.337641723356	285.558231292517	45	127
285.5698412698413	285.80204081632655	44	127
285.5698412698413	286.2432199546485	64	127
285.80204081632655	286.2432199546485	71	127
285.80204081632655	285.999410430839	40	127
285.999410430839	286.2432199546485	45	127
285.999410430839	286.70761904761906	85	127
286.2432199546485	286.48702947845806	64	127
286.2432199546485	286.48702947845806	69	127
286.2432199546485	286.48702947845806	49	127
286.48702947845806	286.70761904761906	62	127
286.48702947845806	286.70761904761906	66	127
286.48702947845806	286.70761904761906	50	127
286.71922902494333	286.93979591836734	83	127
286.71922902494333	286.93979591836734	66	127
286.71922902494333	286.93979591836734	62	127
286.71922902494333	286.93979591836734	47	127
286.95142857142855	287.1836281179138	61	127
286.95142857142855	287.1836281179138	81	127
286.95142857142855	287.1836281179138	64	127
286.95142857142855	287.1836281179138	52	127
287.1836281179138	287.4158276643991	62	127
287.1836281179138	287.4158276643991	59	127
287.1836281179138	287.4158276643991	80	127
287.1836281179138	287.4158276643991	40	127
287.4158276643991	287.65961451247165	57	127
287.4158276643991	287.65961451247165	81	127
287.4158276643991	287.65961451247165	61	127
287.4158276643991	287.65961451247165	45	127
287.65961451247165	288.7974149659864	64	127
287.8685941043084	288.08920634920634	76	127
287.8685941043084	288.08920634920634	61	127
288.1008163265306	288.3330158730159	74	127
288.1008163265306	288.3330158730159	59	127
288.3330158730159	288.56521541950116	73	127
288.3330158730159	288.56521541950116	57	127
288.56521541950116	288.7974149659864	71	127
288.56521541950116	288.7974149659864	56	127
288.7974149659864	289.0180045351474	78	127
288.7974149659864	289.0180045351474	68	127
288.7974149659864	289.0180045351474	62	127
288.7974149659864	289.0180045351474	52	127
289.02961451247165	289.26181405895693	76	127
289.02961451247165	289.26181405895693	69	127
289.02961451247165	289.26181405895693	61	127
289.02961451247165	289.26181405895693	54	127
289.2734240362812	289.4939909297052	74	127
289.2734240362812	289.4939909297052	71	127
289.2734240362812	289.4939909297052	59	127
289.2734240362812	289.4939909297052	56	127
289.4939909297052	289.7262131519274	73	127
289.4939909297052	289.7262131519274	57	127
289.4939909297052	289.7262131519274	57	127
289.7262131519274	289.9119501133787	61	127
289.7262131519274	289.9119501133787	76	127
289.7262131519274	290.57374149659864	64	127
289.9119501133787	290.12095238095236	59	127
289.9119501133787	290.12095238095236	74	127
290.12095238095236	290.34154195011337	57	127
290.12095238095236	290.34154195011337	73	127
290.35315192743764	290.57374149659864	71	127
290.35315192743764	290.57374149659864	56	127
290.5853514739229	290.8059410430839	78	127
290.5853514739229	290.8059410430839	68	127
290.5853514739229	290.8059410430839	52	127
290.5853514739229	290.8059410430839	62	127
290.8059410430839	291.0381179138322	69	127
290.8059410430839	291.0381179138322	76	127
290.8059410430839	291.0381179138322	61	127
290.8059410430839	291.0381179138322	54	127
291.0381179138322	291.25873015873015	59	127
291.0381179138322	291.25873015873015	71	127
291.0381179138322	291.25873015873015	56	127
291.0381179138322	291.25873015873015	74	127
291.25873015873015	291.4909297052154	73	127
291.25873015873015	291.4909297052154	57	127
291.25873015873015	291.4909297052154	57	127
291.5025396825397	291.7115192743764	79	127
291.5025396825397	291.7115192743764	70	127
291.5025396825397	291.7115192743764	64	127
291.5025396825397	291.7115192743764	54	127
291.7231292517007	291.9437188208617	78	127
291.7231292517007	291.9437188208617	71	127
291.7231292517007	291.9437188208617	62	127
291.7231292517007	291.9437188208617	56	127
291.9437188208617	292.1875283446712	76	127
291.9437188208617	292.1875283446712	73	127
291.9437188208617	292.1875283446712	61	127
291.9437188208617	292.1875283446712	58	127
292.1875283446712	292.41972789115647	74	127
292.1875283446712	292.41972789115647	59	127
292.1875283446712	292.41972789115647	59	127
292.41972789115647	292.65192743764175	83	127
292.41972789115647	292.65192743764175	73	127
292.41972789115647	292.65192743764175	67	127
292.41972789115647	292.65192743764175	45	127
292.663514739229	292.87249433106575	81	127
292.663514739229	292.87249433106575	74	127
292.663514739229	292.87249433106575	66	127
292.663514739229	292.87249433106575	47	127
292.88412698412696	293.104716553288	79	127
292.88412698412696	293.104716553288	64	127
292.88412698412696	293.4994557823129	69	127
292.88412698412696	293.104716553288	49	127
293.104716553288	293.29047619047617	78	127
293.104716553288	293.29047619047617	62	127
293.104716553288	293.29047619047617	50	127
293.29047619047617	293.4994557823129	76	127
293.29047619047617	293.4994557823129	61	127
293.29047619047617	293.4994557823129	52	127
293.4994557823129	293.74326530612245	69	127
293.4994557823129	293.74326530612245	57	127
293.4994557823129	293.74326530612245	54	127
293.4994557823129	293.9058049886621	74	127
293.74326530612245	293.9058049886621	64	127
293.74326530612245	293.9058049886621	59	127
293.74326530612245	293.9058049886621	56	127
293.9174149659864	294.11478458049885	64	127
293.9174149659864	294.11478458049885	57	127
293.9174149659864	294.11478458049885	57	127
293.9174149659864	294.37020408163266	73	127
294.11478458049885	294.37020408163266	69	127
294.11478458049885	294.37020408163266	64	127
294.11478458049885	294.37020408163266	52	127
294.37020408163266	294.6720634920635	71	127
294.37020408163266	294.6720634920635	68	127
294.37020408163266	294.6720634920635	64	127
294.37020408163266	294.6720634920635	40	127
294.68367346938777	294.86943310657597	73	127
294.68367346938777	294.86943310657597	69	127
294.96231292517007	295.06680272108844	71	127
294.96231292517007	295.06680272108844	69	127
295.1248299319728	295.28739229024944	74	127
295.1248299319728	295.28739229024944	69	127
295.1248299319728	295.28739229024944	66	127
295.357052154195	295.5195918367347	73	127
295.357052154195	295.5195918367347	69	127
295.357052154195	295.5195918367347	64	127
295.577641723356	295.7401587301587	78	127
295.577641723356	295.7401587301587	69	127
295.577641723356	295.7401587301587	62	127
295.798231292517	295.9607709750567	76	127
295.798231292517	295.9607709750567	69	127
295.798231292517	295.9607709750567	61	127
296.04201814058956	296.2045804988662	80	127
296.04201814058956	296.2045804988662	62	127
296.04201814058956	296.2045804988662	59	127
296.28585034013605	296.46	81	127
296.28585034013605	296.46	61	127
296.28585034013605	296.46	57	127
296.54126984126987	297.5281179138322	64	127
296.54126984126987	297.05210884353744	83	127
296.54126984126987	297.342358276644	59	127
296.54126984126987	297.342358276644	56	127
297.05210884353744	297.1681859410431	80	127
297.1681859410431	297.28430839002266	76	127
297.28430839002266	297.4004081632653	74	127
297.41201814058957	297.51650793650794	73	127
297.41201814058957	297.6558276643991	57	127
297.41201814058957	297.6558276643991	57	127
297.5281179138322	297.6209977324263	76	127
297.6674376417234	297.77192743764175	74	127
297.6674376417234	297.92285714285714	66	127
297.6674376417234	297.92285714285714	50	127
297.8067573696145	297.8880045351474	71	127
297.92285714285714	298.14344671201815	52	127
297.92285714285714	298.0273469387755	69	127
297.92285714285714	298.14344671201815	61	127
298.0273469387755	298.10861678004534	73	127
298.14344671201815	298.3524263038549	62	127
298.14344671201815	298.2131065759637	71	127
298.14344671201815	298.3524263038549	40	127
298.23632653061225	298.3175963718821	68	127
298.3524263038549	298.51496598639454	69	127
298.3524263038549	298.51496598639454	73	127
298.60784580498864	298.7587755102041	71	127
298.60784580498864	298.7587755102041	68	127
298.8400453514739	298.9677551020408	86	127
298.8400453514739	298.9677551020408	69	127
298.8400453514739	298.9677551020408	66	127
299.04902494331066	299.1999546485261	85	127
299.04902494331066	299.1999546485261	69	127
299.04902494331066	299.1999546485261	64	127
299.28122448979593	299.45537414965986	90	127
299.28122448979593	299.45537414965986	69	127
299.28122448979593	299.45537414965986	62	127
299.5366439909297	299.6991836734694	88	127
299.5366439909297	299.6991836734694	69	127
299.5366439909297	299.6991836734694	61	127
299.78045351473924	299.9429931972789	92	127
299.78045351473924	299.9429931972789	74	127
299.78045351473924	299.9429931972789	64	127
299.78045351473924	299.9429931972789	59	127
300.0242403628118	300.3261224489796	93	127
300.0242403628118	300.3261224489796	73	127
300.0242403628118	300.3261224489796	64	127
300.0242403628118	300.3261224489796	57	127
300.46544217687074	300.7556916099773	73	127
300.46544217687074	300.7556916099773	65	127
300.46544217687074	300.7556916099773	56	127
300.46544217687074	301.82380952380953	95	127
301.82380952380953	301.9282993197279	93	127
301.9282993197279	302.1488888888889	89	127
301.9282993197279	302.1488888888889	83	127
301.9282993197279	302.1488888888889	74	127
301.9282993197279	302.3810657596372	61	127
302.1604988662132	302.3810657596372	80	127
302.1604988662132	302.3810657596372	92	127
302.1604988662132	302.3810657596372	71	127
302.3810657596372	302.6132879818594	69	127
302.3810657596372	302.6132879818594	78	127
302.3810657596372	302.8454875283447	66	127
302.3810657596372	302.6132879818594	93	127
302.6132879818594	302.8454875283447	73	127
302.6132879818594	303.07768707482995	81	127
302.6132879818594	302.8454875283447	90	127
302.8454875283447	303.07768707482995	72	127
302.8454875283447	303.07768707482995	87	127
302.8454875283447	303.3331065759637	59	127
303.0892970521542	303.3331065759637	90	127
303.0892970521542	303.3331065759637	78	127
303.0892970521542	303.3331065759637	69	127
303.344716553288	303.80909297052153	64	127
303.344716553288	303.565306122449	91	127
303.344716553288	303.565306122449	76	127
303.344716553288	303.565306122449	67	127
303.57691609977326	303.80909297052153	71	127
303.57691609977326	304.04131519274375	79	127
303.57691609977326	303.80909297052153	88	127
303.80909297052153	304.04131519274375	85	127
303.80909297052153	304.04131519274375	70	127
303.80909297052153	304.27351473922903	57	127
304.04131519274375	304.27351473922903	67	127
304.04131519274375	304.27351473922903	76	127
304.04131519274375	304.27351473922903	88	127
304.27351473922903	304.48249433106577	74	127
304.27351473922903	304.48249433106577	90	127
304.27351473922903	304.48249433106577	66	127
304.27351473922903	304.7030839002268	62	127
304.49410430839004	304.93526077097505	69	127
304.49410430839004	304.7030839002268	86	127
304.49410430839004	304.7030839002268	78	127
304.71469387755104	304.93526077097505	73	127
304.71469387755104	304.93526077097505	85	127
304.71469387755104	305.0978231292517	64	127
304.94689342403626	305.0978231292517	88	127
304.94689342403626	305.0978231292517	76	127
304.94689342403626	305.0978231292517	64	127
305.0978231292517	305.52739229024945	52	127
305.0978231292517	305.3532199546485	83	127
305.0978231292517	305.3532199546485	74	127
305.0978231292517	305.3532199546485	68	127
305.3532199546485	305.52739229024945	76	127
305.3532199546485	305.52739229024945	64	127
305.3532199546485	305.52739229024945	88	127
305.5390022675737	305.74798185941046	57	127
305.5390022675737	305.6434920634921	69	127
305.5390022675737	305.74798185941046	73	127
305.5390022675737	305.74798185941046	64	127
305.6434920634921	305.7247619047619	73	127
305.7828117913832	305.8524489795918	76	127
305.8873015873016	305.9801814058957	73	127
306.0150113378685	306.0962811791383	81	127
306.1311111111111	306.21238095238095	76	127
306.24721088435376	306.3168707482993	85	127
306.35170068027213	306.43297052154196	81	127
306.46777777777777	306.99024943310656	88	127
306.65356009070297	306.7928798185941	61	127
306.65356009070297	306.7928798185941	67	127
306.65356009070297	306.7928798185941	64	127
306.7928798185941	306.93219954648526	64	127
306.7928798185941	306.93219954648526	61	127
306.7928798185941	306.93219954648526	67	127
307.0018594104308	307.15278911564627	67	127
307.0018594104308	307.15278911564627	64	127
307.0018594104308	307.15278911564627	61	127
307.0018594104308	307.2340589569161	70	127
307.24566893424037	307.4894557823129	66	127
307.24566893424037	307.4894557823129	71	127
307.24566893424037	307.4894557823129	62	127
307.24566893424037	307.4894557823129	62	127
307.50108843537413	307.62879818594104	74	127
307.62879818594104	307.7448979591837	78	127
307.75650793650794	307.9306575963719	83	127
307.9306575963719	308.03514739229024	85	127
308.0467573696145	308.1512471655329	86	127
308.1512471655329	308.25573696145125	88	127
308.2673469387755	308.7433560090703	90	127
308.3370068027211	308.464716553288	62	127
308.3370068027211	308.464716553288	59	127
308.3370068027211	308.464716553288	52	127
308.53437641723355	308.685306122449	59	127
308.53437641723355	308.685306122449	62	127
308.53437641723355	308.685306122449	52	127
308.75496598639455	308.91750566893427	62	127
308.75496598639455	308.91750566893427	59	127
308.75496598639455	308.91750566893427	52	127
308.75496598639455	308.97555555555556	68	127
308.9871655328798	309.0916553287982	69	127
308.9871655328798	309.20775510204084	61	127
308.9871655328798	309.20775510204084	57	127
308.9871655328798	309.20775510204084	57	127
309.0916553287982	309.1845351473923	73	127
309.2193650793651	309.30063492063493	76	127
309.33544217687074	309.4167346938776	73	127
309.4515646258503	309.52122448979594	81	127
309.5560544217687	309.6373015873016	76	127
309.67215419501133	309.7302040816327	85	127
309.76503401360543	309.8462811791383	81	127
309.88113378684807	310.496462585034	88	127
310.06689342403627	310.2178231292517	79	127
310.06689342403627	310.2178231292517	64	127
310.06689342403627	310.2178231292517	49	127
310.2874829931973	310.4384126984127	49	127
310.2874829931973	310.4384126984127	79	127
310.2874829931973	310.4384126984127	64	127
310.5080725623583	310.6589795918367	79	127
310.5080725623583	310.6589795918367	49	127
310.5080725623583	310.717052154195	70	127
310.5080725623583	310.6589795918367	64	127
310.7286621315193	310.937641723356	71	127
310.7286621315193	310.937641723356	78	127
310.7286621315193	310.937641723356	62	127
310.7286621315193	310.937641723356	50	127
310.9492517006803	311.0769387755102	74	127
311.0769387755102	311.1814512471655	78	127
311.1930612244898	311.29755102040815	83	127
311.29755102040815	311.4020408163265	85	127
311.4136507936508	311.51814058956916	86	127
311.51814058956916	311.61102040816326	88	127
311.61102040816326	312.12185941043083	90	127
311.75034013605443	311.8896371882086	59	127
311.75034013605443	311.8896371882086	74	127
311.75034013605443	311.8896371882086	52	127
311.93609977324263	312.0754195011338	74	127
311.93609977324263	312.0754195011338	52	127
311.93609977324263	312.0754195011338	59	127
312.1334693877551	312.28439909297055	52	127
312.1334693877551	312.34244897959184	68	127
312.1334693877551	312.28439909297055	74	127
312.1334693877551	312.28439909297055	59	127
312.3540589569161	312.4585487528345	57	127
312.3540589569161	312.56303854875284	69	127
312.3540589569161	312.56303854875284	73	127
312.3540589569161	312.56303854875284	45	127
312.4585487528345	312.56303854875284	61	127
312.5862585034014	312.7139455782313	64	127
312.7139455782313	312.8184580498866	69	127
312.83006802721087	312.93455782312924	73	127
312.93455782312924	313.0158049886621	69	127
313.0506575963719	313.1202947845805	73	127
313.143537414966	313.22478458049886	69	127
313.2596371882086	314.3045351473923	76	127
313.4802267573696	313.584716553288	74	127
313.4802267573696	313.63113378684807	56	127
313.584716553288	313.68920634920636	71	127
313.7008163265306	313.7936961451247	74	127
313.7008163265306	313.82850340136054	56	127
313.7936961451247	313.8865759637188	71	127
313.8981859410431	313.9910657596372	74	127
313.8981859410431	314.0374829931973	56	127
313.9910657596372	314.09555555555556	71	127
314.10716553287983	314.3045351473923	73	127
314.10716553287983	314.20004535147393	57	127
314.20004535147393	314.3045351473923	61	127
314.31614512471657	314.42063492063494	64	127
314.42063492063494	314.51351473922904	69	127
314.5251247165533	314.6296145124717	73	127
314.6296145124717	314.7108843537415	69	127
314.7457142857143	314.8153741496599	64	127
314.8501814058957	314.908253968254	61	127
314.9430839002268	315.7557823129252	62	127
315.1172335600907	315.26814058956916	52	127
315.1172335600907	315.2217233560091	71	127
315.2217233560091	315.32621315192745	68	127
315.3378231292517	315.47714285714284	52	127
315.3378231292517	315.4307029478458	71	127
315.4307029478458	315.5351927437642	68	127
315.54680272108845	315.63968253968255	71	127
315.54680272108845	315.6861224489796	52	127
315.63968253968255	315.7557823129252	68	127
315.77897959183673	315.9995918367347	61	127
315.77897959183673	315.8834693877551	57	127
315.77897959183673	315.9995918367347	69	127
315.77897959183673	315.9995918367347	45	127
315.8834693877551	315.9995918367347	61	127
316.01120181405895	316.1156916099773	64	127
316.1156916099773	316.23179138321996	69	127
316.2434013605442	316.3478911564626	73	127
316.3478911564626	316.4291609977324	69	127
316.46399092970523	316.5336507936508	73	127
316.5684807256236	316.64975056689343	69	127
316.68458049886624	317.7643083900227	76	127
316.91678004535146	317.0677097505669	68	127
316.91678004535146	317.0212698412698	86	127
317.0212698412698	317.1257596371882	83	127
317.13736961451247	317.2882993197279	68	127
317.13736961451247	317.24185941043083	86	127
317.24185941043083	317.3463492063492	83	127
317.3579591836735	317.46244897959184	86	127
317.3579591836735	317.5088662131519	68	127
317.46244897959184	317.5669387755102	83	127
317.5785487528345	317.68303854875285	69	127
317.5785487528345	317.7643083900227	85	127
317.68303854875285	317.7643083900227	73	127
317.77591836734695	317.8804081632653	76	127
317.8804081632653	317.9848979591837	81	127
317.99650793650795	318.1009977324263	85	127
318.1009977324263	318.14743764172334	81	127
318.1706575963719	318.22868480725623	76	127
318.263537414966	318.3331746031746	73	127
318.36802721088435	319.19233560090703	74	127
318.58861678004536	318.7395238095238	52	127
318.58861678004536	318.6931065759637	83	127
318.6931065759637	318.7859863945578	80	127
318.7975963718821	318.90208616780046	83	127
318.7975963718821	318.93691609977327	52	127
318.90208616780046	318.9833560090703	80	127
318.99496598639456	319.13428571428574	52	127
318.99496598639456	319.08784580498866	83	127
319.08784580498866	319.19233560090703	80	127
319.2039455782313	319.41292517006804	81	127
319.2039455782313	319.41292517006804	73	127
319.2039455782313	319.41292517006804	45	127
319.4245351473923	319.5290249433107	64	127
319.5290249433107	319.63351473922904	63	127
319.6451247165533	319.7496145124717	64	127
319.7496145124717	319.85410430839005	63	127
319.8656916099773	319.9818140589569	64	127
319.9818140589569	320.09791383219954	63	127
320.1095238095238	320.957052154195	52	127
320.1095238095238	321.22408163265305	64	127
320.3301133786848	320.4346031746032	71	127
320.3301133786848	320.4346031746032	59	127
320.4346031746032	320.53909297052155	56	127
320.4346031746032	320.53909297052155	68	127
320.5507029478458	320.6551927437642	71	127
320.5507029478458	320.6551927437642	59	127
320.6551927437642	320.75968253968256	56	127
320.6551927437642	320.75968253968256	68	127
320.7712925170068	320.85256235827666	71	127
320.7712925170068	320.85256235827666	59	127
320.85256235827666	320.957052154195	56	127
320.85256235827666	320.957052154195	68	127
320.9686621315193	321.22408163265305	69	127
320.9686621315193	321.22408163265305	61	127
320.9686621315193	321.22408163265305	57	127
321.2356916099773	321.36340136054423	52	127
321.36340136054423	321.4678911564626	51	127
321.47950113378687	321.58399092970524	52	127
321.58399092970524	321.7465306122449	51	127
321.75814058956917	321.8742403628118	52	127
321.8742403628118	322.04839002267573	51	127
322.06	324.1962358276644	52	127
322.06	324.56773242630385	40	127
322.2921995464853	322.3850793650794	59	127
322.2921995464853	322.3850793650794	71	127
322.3850793650794	322.48956916099775	68	127
322.3850793650794	322.48956916099775	56	127
322.501179138322	322.61727891156465	71	127
322.501179138322	322.61727891156465	59	127
322.61727891156465	322.7333560090703	68	127
322.61727891156465	322.7333560090703	56	127
322.7449886621315	322.8146485260771	71	127
322.7449886621315	322.8146485260771	59	127
322.8146485260771	322.9191383219955	68	127
322.8146485260771	322.9191383219955	56	127
322.93072562358276	323.0352154195011	74	127
322.93072562358276	323.0352154195011	71	127
323.0352154195011	323.11650793650796	71	127
323.0352154195011	323.11650793650796	68	127
323.1281179138322	323.2209977324263	74	127
323.1281179138322	323.2209977324263	71	127
323.2209977324263	323.3138775510204	71	127
323.2209977324263	323.3138775510204	68	127
323.3254875283447	323.39514739229026	74	127
323.3254875283447	323.39514739229026	71	127
323.39514739229026	323.4764172335601	71	127
323.39514739229026	323.4764172335601	68	127
323.48802721088435	323.58090702947845	74	127
323.48802721088435	323.58090702947845	71	127
323.58090702947845	323.6853968253968	71	127
323.58090702947845	323.6853968253968	68	127
323.6853968253968	323.76666666666665	74	127
323.6853968253968	323.76666666666665	71	127
323.76666666666665	323.85954648526075	68	127
323.76666666666665	323.85954648526075	71	127
323.85954648526075	323.9640362811791	74	127
323.85954648526075	323.9640362811791	71	127
323.9756462585034	324.08013605442176	71	127
323.9756462585034	324.08013605442176	68	127
324.091746031746	324.1962358276644	74	127
324.091746031746	324.1962358276644	71	127
324.20784580498866	324.31233560090703	71	127
324.20784580498866	324.31233560090703	68	127
324.20784580498866	324.2891156462585	64	127
324.3239455782313	324.44004535147394	74	127
324.3239455782313	324.44004535147394	71	127
324.3239455782313	324.40521541950113	66	127
324.44004535147394	324.56773242630385	71	127
324.44004535147394	324.5445351473923	64	127
324.44004535147394	324.56773242630385	68	127
324.57936507936506	324.6954648526077	45	127
324.57936507936506	324.8231746031746	73	127
324.57936507936506	324.8231746031746	69	127
324.57936507936506	325.9028798185941	61	127
324.6954648526077	324.79995464852607	52	127
324.8347845804989	324.93927437641725	54	127
324.97408163265305	325.06698412698415	52	127
325.1018140589569	325.7055328798186	57	127
325.194693877551	325.2759637188209	76	127
325.2991836734694	325.368843537415	78	127
325.40367346938774	325.47333333333336	76	127
325.5081632653061	326.0073922902494	81	127
325.6010430839002	325.6823129251701	64	127
325.71714285714285	325.9028798185941	52	127
325.71714285714285	325.7751927437642	66	127
325.79839002267573	325.87968253968256	64	127
325.9145124716553	326.1118820861678	69	127
325.9145124716553	326.1118820861678	64	127
325.9145124716553	326.1118820861678	49	127
326.0073922902494	326.0886621315193	85	127
326.12349206349205	326.3324716553288	61	127
326.12349206349205	326.19315192743767	83	127
326.12349206349205	326.3324716553288	73	127
326.12349206349205	326.3324716553288	45	127
326.2279818594104	326.3092290249433	81	127
326.34408163265306	326.6459410430839	59	127
326.34408163265306	326.43696145124716	81	127
326.34408163265306	326.75043083900226	40	127
326.34408163265306	326.6459410430839	74	127
326.43696145124716	326.5065986394558	80	127
326.5414512471655	326.61108843537414	78	127
326.6459410430839	326.75043083900226	71	127
326.6459410430839	326.7272108843537	80	127
326.6459410430839	326.75043083900226	62	127
326.76204081632653	327.18	45	127
326.76204081632653	326.8200680272109	81	127
326.76204081632653	327.07551020408164	73	127
326.76204081632653	327.07551020408164	57	127
326.85492063492063	326.93619047619046	85	127
326.97102040816327	327.04068027210883	83	127
327.07551020408164	327.18	61	127
327.07551020408164	327.15678004535147	81	127
327.07551020408164	327.18	69	127
327.1916099773243	327.3077097505669	81	127
327.1916099773243	327.5979591836735	40	127
327.1916099773243	327.51668934240365	74	127
327.1916099773243	327.51668934240365	59	127
327.3077097505669	327.38897959183674	80	127
327.4121995464853	327.48185941043084	78	127
327.51668934240365	327.5979591836735	62	127
327.51668934240365	327.57473922902494	80	127
327.51668934240365	327.5979591836735	71	127
327.60956916099775	327.6792290249433	81	127
327.60956916099775	327.9114285714286	73	127
327.60956916099775	327.9114285714286	57	127
327.60956916099775	327.9926984126984	45	127
327.7140589569161	327.7837188208617	85	127
327.8185487528345	327.88820861678005	83	127
327.9114285714286	327.98108843537415	81	127
327.9114285714286	327.9926984126984	69	127
327.9114285714286	327.9926984126984	61	127
327.9926984126984	328.0971882086168	81	127
327.9926984126984	328.2132879818594	68	127
327.9926984126984	328.2132879818594	59	127
327.9926984126984	328.2132879818594	40	127
328.0971882086168	328.1784580498866	80	127
328.2132879818594	328.3990476190476	68	127
328.2132879818594	328.29455782312925	78	127
328.2132879818594	328.3990476190476	59	127
328.2132879818594	328.3990476190476	52	127
328.3061678004535	328.38743764172335	76	127
328.4106575963719	328.6312471655329	47	127
328.4106575963719	328.51514739229026	75	127
328.4106575963719	328.6312471655329	69	127
328.4106575963719	328.6312471655329	59	127
328.51514739229026	328.60802721088436	76	127
328.64285714285717	328.73573696145127	78	127
328.64285714285717	328.9563265306123	69	127
328.64285714285717	328.9563265306123	59	127
328.64285714285717	328.9563265306123	47	127
328.7821768707483	328.92149659863946	80	127
328.9563265306123	330.488843537415	76	127
328.9563265306123	330.488843537415	68	127
328.9563265306123	330.488843537415	59	127
328.9563265306123	330.488843537415	52	127
330.79070294784583	330.87197278911566	83	127
330.90678004535147	330.96485260770976	81	127
330.99968253968257	331.0693424036281	79	127
331.10414965986394	331.2202721088435	79	127
331.2202721088435	331.3015419501134	78	127
331.33637188208615	331.41761904761904	76	127
331.4524716553288	331.5453514739229	74	127
331.56857142857143	331.87043083900227	67	127
331.56857142857143	331.68467120181407	73	127
331.56857142857143	331.9865306122449	45	127
331.56857142857143	331.87043083900227	64	127
331.68467120181407	331.7659410430839	74	127
331.8007709750567	331.84721088435373	76	127
331.88204081632654	331.9865306122449	69	127
331.88204081632654	331.96331065759637	78	127
331.88204081632654	331.9865306122449	57	127
331.9981405895692	332.16068027210883	62	127
331.9981405895692	332.05619047619047	74	127
331.9981405895692	332.16068027210883	66	127
331.9981405895692	332.16068027210883	50	127
332.05619047619047	332.13743764172335	78	127
332.16068027210883	332.23031746031745	81	127
332.25356009070293	332.3348072562358	81	127
332.36965986394557	332.47414965986394	81	127
332.4857596371882	332.5786394557823	83	127
332.5786394557823	332.6250793650794	81	127
332.6250793650794	332.72956916099776	79	127
332.72956916099776	332.8340589569161	79	127
332.8456462585034	332.8921088435374	78	127
332.9269387755102	332.9965986394558	76	127
333.0314285714286	333.1126984126984	74	127
333.14752834467123	333.5654648526077	45	127
333.14752834467123	333.2519954648526	73	127
333.14752834467123	333.47260770975055	67	127
333.14752834467123	333.47260770975055	64	127
333.26360544217687	333.3448979591837	74	127
333.3681179138322	333.44938775510207	76	127
333.47260770975055	333.54226757369617	78	127
333.47260770975055	333.5654648526077	69	127
333.47260770975055	333.5654648526077	57	127
333.5654648526077	333.78607709750565	50	127
333.5654648526077	333.6815873015873	74	127
333.5654648526077	333.78607709750565	66	127
333.5654648526077	333.78607709750565	62	127
333.6815873015873	333.7628344671202	78	127
333.7976870748299	333.87895691609975	78	127
333.91378684807256	333.9950566893424	78	127
334.01827664399093	334.0879365079365	78	127
334.0879365079365	334.19242630385486	78	127
334.19242630385486	334.2504761904762	76	127
334.2504761904762	334.3549659863946	74	127
334.36657596371884	334.45945578231294	74	127
334.45945578231294	334.5407256235828	73	127
334.5639455782313	334.64521541950114	71	127
334.68004535147395	334.7613151927438	69	127
334.7961224489796	334.8774149659864	68	127
334.7961224489796	335.0979818594104	62	127
334.7961224489796	335.0979818594104	59	127
334.7961224489796	335.2024716553288	52	127
334.8774149659864	334.95868480725625	69	127
334.99349206349206	335.0747845804989	71	127
335.0979818594104	335.2024716553288	64	127
335.0979818594104	335.17927437641725	73	127
335.0979818594104	335.2024716553288	52	127
335.21410430839	335.4463038548753	57	127
335.21410430839	335.4463038548753	61	127
335.21410430839	335.3418140589569	69	127
335.21410430839	335.4463038548753	45	127
335.3534240362812	335.42308390022674	73	127
335.4463038548753	335.5275736961451	76	127
335.5624036281179	335.64367346938775	76	127
335.6668934240363	335.77138321995466	76	127
335.7829931972789	335.8410430839002	78	127
335.8410430839002	335.91068027210883	76	127
335.91068027210883	335.9455328798186	74	127
335.9455328798186	336.0616326530612	74	127
336.0616326530612	336.14290249433105	73	127
336.17773242630386	336.2473922902494	71	127
336.27061224489796	336.31705215419504	69	127
336.3518820861678	336.46798185941043	68	127
336.3518820861678	336.6537414965986	62	127
336.3518820861678	336.6537414965986	59	127
336.3518820861678	336.76984126984127	40	127
336.46798185941043	336.54925170068026	69	127
336.58408163265307	336.63049886621314	71	127
336.6653514739229	336.7466213151927	73	127
336.6653514739229	336.76984126984127	64	127
336.6653514739229	336.76984126984127	52	127
336.76984126984127	337.00204081632654	45	127
336.76984126984127	336.8511111111111	61	127
336.76984126984127	337.00204081632654	69	127
336.76984126984127	337.00204081632654	52	127
336.8859410430839	336.96721088435373	64	127
337.00204081632654	337.08331065759637	66	127
337.1181405895692	337.199410430839	64	127
337.2342403628118	337.7915192743764	69	127
337.35031746031746	337.42	69	127
337.35031746031746	337.42	49	127
337.4548072562358	337.53609977324265	52	127
337.4548072562358	337.6173696145125	49	127
337.4548072562358	337.53609977324265	71	127
337.5709297052154	337.6521768707483	57	127
337.5709297052154	337.6521768707483	69	127
337.68702947845804	338.18625850340135	76	127
337.68702947845804	337.84956916099776	49	127
337.68702947845804	337.84956916099776	37	127
337.8031292517007	337.87278911564624	64	127
337.8960090702948	337.9540362811791	66	127
337.9888888888889	338.0585260770975	64	127
338.081768707483	338.66226757369617	69	127
338.1978684807256	338.2907482993197	76	127
338.1978684807256	338.2907482993197	49	127
338.31396825396826	338.40684807256235	74	127
338.31396825396826	338.40684807256235	52	127
338.31396825396826	338.5113378684807	49	127
338.45328798185943	338.522947845805	57	127
338.45328798185943	338.522947845805	73	127
338.5577777777778	338.743537414966	38	127
338.5577777777778	339.0221768707483	71	127
338.5577777777778	338.743537414966	50	127
338.67385487528344	338.7783446712018	66	127
338.81319727891156	338.8944671201814	68	127
338.9176870748299	338.99895691609976	66	127
339.0221768707483	339.40530612244896	71	127
339.0221768707483	339.0570068027211	50	127
339.0221768707483	339.0570068027211	71	127
339.09183673469386	339.1614965986395	54	127
339.09183673469386	339.2427664399093	50	127
339.09183673469386	339.1614965986395	73	127
339.1963265306122	339.2775963718821	59	127
339.1963265306122	339.2775963718821	71	127
339.3008163265306	339.4633560090703	52	127
339.3008163265306	339.4633560090703	40	127
339.3008163265306	339.846485260771	74	127
339.40530612244896	339.48657596371885	68	127
339.5214058956916	339.5910430839002	71	127
339.62589569160997	339.7071655328798	68	127
339.7419954648526	340.17156462585035	62	127
339.846485260771	339.9393650793651	52	127
339.846485260771	339.9393650793651	74	127
339.9625850340136	340.04385487528344	59	127
339.9625850340136	340.11349206349206	52	127
339.9625850340136	340.04385487528344	71	127
340.07868480725625	340.1483446712018	59	127
340.07868480725625	340.1483446712018	68	127
340.1831746031746	340.33410430839	45	127
340.1831746031746	340.2528344671202	69	127
340.1831746031746	340.2528344671202	57	127
340.1831746031746	340.39215419501136	61	127
340.2760544217687	340.35732426303855	64	127
340.2760544217687	340.35732426303855	76	127
340.39215419501136	340.4734240362812	78	127
340.39215419501136	340.4734240362812	61	127
340.508253968254	340.57791383219956	76	127
340.508253968254	340.57791383219956	57	127
340.61272108843536	341.1584126984127	81	127
340.61272108843536	340.8333333333333	52	127
340.72884353741495	340.81011337868483	69	127
340.72884353741495	340.81011337868483	37	127
340.8333333333333	340.90299319727893	71	127
340.8333333333333	340.90299319727893	40	127
340.9378231292517	341.01909297052157	69	127
340.9378231292517	341.01909297052157	45	127
341.0539229024943	341.2745124716553	37	127
341.0539229024943	341.57637188208616	76	127
341.17002267573696	341.2512925170068	76	127
341.17002267573696	341.2512925170068	64	127
341.2861224489796	341.35578231292516	61	127
341.2861224489796	341.35578231292516	78	127
341.39061224489797	341.4718820861678	57	127
341.39061224489797	341.4718820861678	76	127
341.5067120181406	341.66925170068026	52	127
341.5067120181406	341.99433106575964	81	127
341.57637188208616	341.6460090702948	76	127
341.57637188208616	341.6460090702948	37	127
341.68086167800453	341.7505215419501	40	127
341.68086167800453	341.7505215419501	74	127
341.77374149659863	341.85501133786846	73	127
341.77374149659863	341.85501133786846	45	127
341.88984126984127	342.3542176870748	71	127
341.88984126984127	342.098820861678	38	127
341.99433106575964	342.07560090702947	66	127
341.99433106575964	342.07560090702947	78	127
342.1104308390023	342.1917006802721	80	127
342.1104308390023	342.1917006802721	62	127
342.2381405895692	342.4703401360544	54	127
342.2381405895692	342.80702947845805	86	127
342.3542176870748	342.43551020408165	71	127
342.3542176870748	342.43551020408165	38	127
342.4703401360544	342.54	73	127
342.4703401360544	342.54	42	127
342.5748299319728	342.65609977324266	71	127
342.5748299319728	342.65609977324266	47	127
342.6909297052154	342.9231292517007	40	127
342.6909297052154	343.28301587301587	74	127
342.80702947845805	342.89990929705215	56	127
342.80702947845805	342.9231292517007	86	127
342.93473922902496	343.0508390022676	83	127
342.93473922902496	343.0160090702948	59	127
343.0508390022676	343.1321088435374	61	127
343.0508390022676	343.16693877551023	81	127
343.16693877551023	343.24820861678006	62	127
343.16693877551023	343.28301587301587	80	127
343.28301587301587	343.39913832199545	86	127
343.28301587301587	343.37589569160997	74	127
343.28301587301587	343.37589569160997	52	127
343.28301587301587	343.37589569160997	40	127
343.4107482993197	343.5036281179138	71	127
343.4107482993197	343.5036281179138	62	127
343.4107482993197	343.5036281179138	52	127
343.4107482993197	343.53845804988663	83	127
343.53845804988663	343.65455782312927	68	127
343.53845804988663	343.65455782312927	62	127
343.53845804988663	343.65455782312927	52	127
343.53845804988663	343.6893650793651	80	127
343.6893650793651	344.0028571428571	81	127
343.6893650793651	344.0028571428571	69	127
343.6893650793651	344.0028571428571	61	127
343.6893650793651	344.0028571428571	45	127
344.40920634920633	344.52530612244897	64	127
344.52530612244897	344.6414058956916	66	127
344.6414058956916	344.75750566893424	64	127
344.75750566893424	345.70952380952383	56	127
344.75750566893424	345.3380045351474	71	127
344.75750566893424	345.70952380952383	74	127
345.34961451247165	345.47732426303855	64	127
345.47732426303855	345.5934240362812	66	127
345.5934240362812	345.70952380952383	64	127
345.70952380952383	346.3248526077098	69	127
345.70952380952383	346.67315192743763	73	127
345.70952380952383	346.67315192743763	57	127
346.33646258503404	346.4409297052154	64	127
346.4525623582766	346.557052154195	66	127
346.56866213151926	346.67315192743763	64	127
346.67315192743763	347.6019501133787	62	127
346.67315192743763	346.78925170068027	68	127
346.67315192743763	347.6019501133787	52	127
346.67315192743763	347.6019501133787	71	127
346.78925170068027	346.9053514739229	64	127
346.9169614512472	347.02145124716554	66	127
347.02145124716554	347.11433106575964	64	127
347.1259410430839	347.24204081632655	68	127
347.24204081632655	347.36972789115646	64	127
347.36972789115646	347.46260770975056	66	127
347.4742176870748	347.6019501133787	64	127
347.6019501133787	347.8457596371882	69	127
347.6019501133787	347.8457596371882	61	127
347.6019501133787	347.8457596371882	57	127
348.27532879818597	348.4030385487528	76	127
348.4030385487528	348.5075283446712	78	127
348.51913832199546	348.61201814058956	76	127
348.6236281179138	349.19251700680275	83	127
348.6236281179138	349.52920634920633	74	127
348.6236281179138	349.52920634920633	56	127
348.6236281179138	350.53925170068027	64	127
349.19251700680275	349.28539682539684	76	127
349.28539682539684	349.4014965986395	78	127
349.41308390022675	349.52920634920633	76	127
349.5408163265306	350.53925170068027	57	127
349.5408163265306	350.1677551020408	81	127
349.5408163265306	350.53925170068027	73	127
350.1793650793651	350.2954648526077	76	127
350.2954648526077	350.42317460317463	78	127
350.42317460317463	350.53925170068027	76	127
350.5508843537415	351.54934240362815	71	127
350.5508843537415	350.65537414965985	80	127
350.5508843537415	351.54934240362815	52	127
350.5508843537415	351.54934240362815	62	127
350.6669841269841	350.7714739229025	76	127
350.7714739229025	350.8875736961451	78	127
350.8875736961451	351.00367346938776	76	127
351.01528344671203	351.14297052154194	80	127
351.1545804988662	351.2707029478458	76	127
351.2707029478458	351.3984126984127	78	127
351.3984126984127	351.54934240362815	76	127
351.54934240362815	351.79315192743763	69	127
351.54934240362815	351.79315192743763	61	127
351.54934240362815	351.79315192743763	57	127
351.54934240362815	352.0253514739229	81	127
352.0253514739229	352.1298412698413	76	127
352.14145124716555	352.2459410430839	78	127
352.2575510204082	352.38526077097504	76	127
352.38526077097504	352.77997732426303	85	127
352.77997732426303	352.8960997732426	81	127
352.9077097505669	353.0702494331066	83	127
353.08185941043087	353.221179138322	81	127
353.221179138322	355.0787755102041	61	127
353.221179138322	353.41854875283445	45	127
353.221179138322	353.81326530612245	88	127
353.221179138322	355.0787755102041	76	127
353.48820861678007	353.6275283446712	57	127
353.6971882086168	353.85972789115647	52	127
353.82489795918366	353.929387755102	85	127
353.929387755102	354.0106349206349	86	127
353.929387755102	354.0803174603175	49	127
354.0222675736961	354.13836734693876	85	127
354.13836734693876	354.21961451247165	88	127
354.13836734693876	354.3009070294785	45	127
354.2544671201814	354.35895691609977	85	127
354.35895691609977	354.5331065759637	40	127
354.35895691609977	354.4750566893424	86	127
354.4750566893424	354.5331065759637	85	127
354.54471655328797	354.63759637188207	88	127
354.54471655328797	354.71886621315195	45	127
354.6724263038549	354.7885260770975	85	127
354.8001360544218	355.0091156462585	40	127
354.8001360544218	354.9278231292517	86	127
354.9394557823129	355.0787755102041	85	127
355.09038548752835	357.1801587301587	76	127
355.09038548752835	355.3574149659864	45	127
355.09038548752835	357.1801587301587	61	127
355.09038548752835	357.1801587301587	88	127
355.69410430839	355.84503401360547	52	127
355.84503401360547	355.9843537414966	54	127
355.9843537414966	356.13528344671204	52	127
356.13528344671204	356.40231292517007	57	127
356.50680272108843	356.6577324263039	40	127
356.66931972789115	356.8434920634921	42	127
356.85510204081635	357.1801587301587	40	127
357.19179138321994	359.49056689342405	57	127
357.19179138321994	359.49056689342405	85	127
357.19179138321994	359.49056689342405	64	127
357.19179138321994	359.49056689342405	73	127
357.19179138321994	359.49056689342405	45	127
361.2668707482993	361.3597732426304	69	127
