# onset,offset,note,velocity
0.9628571428571429	1.0673469387755101	53	127
0.9628571428571429	1.0673469387755101	65	127
0.9628571428571429	1.0673469387755101	41	127
1.0673469387755101	1.1486167800453515	67	127
1.0673469387755101	1.1486167800453515	55	127
1.0673469387755101	1.1486167800453515	43	127
1.1486167800453515	1.2531065759637188	68	127
1.1486167800453515	1.2531065759637188	56	127
1.1486167800453515	1.2531065759637188	44	127
1.2531065759637188	1.3575963718820863	67	127
1.2531065759637188	1.3575963718820863	55	127
1.2531065759637188	1.3575963718820863	43	127
1.3575963718820863	1.5317460317460319	65	127
1.3575963718820863	1.5317460317460319	53	127
1.3575963718820863	1.5317460317460319	41	127
1.60140589569161	1.7523356009070294	63	127
1.60140589569161	1.7523356009070294	51	127
1.60140589569161	1.7523356009070294	39	127
1.8219954648526078	1.9845351473922903	61	127
1.8219954648526078	1.9845351473922903	49	127
1.8219954648526078	1.9845351473922903	37	127
2.0425850340136056	2.181904761904762	60	127
2.0425850340136056	2.181904761904762	48	127
2.0425850340136056	2.181904761904762	36	127
2.2399546485260773	2.3908843537414968	62	127
2.2399546485260773	2.3908843537414968	50	127
2.2399546485260773	2.3908843537414968	38	127
2.448934240362812	2.5882539682539685	64	127
2.448934240362812	2.5882539682539685	52	127
2.448934240362812	2.5882539682539685	40	127
2.6579138321995464	3.041043083900227	65	127
2.6579138321995464	3.041043083900227	53	127
2.6579138321995464	3.041043083900227	41	127
4.515510204081632	5.061179138321996	55	127
4.515510204081632	5.061179138321996	52	127
4.515510204081632	5.061179138321996	48	127
4.933469387755102	5.061179138321996	72	127
5.061179138321996	5.7345578231292516	84	127
5.421065759637188	5.525578231292517	55	127
5.421065759637188	5.525578231292517	48	127
5.421065759637188	5.525578231292517	52	127
5.525578231292517	5.931927437641724	56	127
5.525578231292517	5.931927437641724	48	127
5.525578231292517	5.931927437641724	53	127
5.850634920634921	5.931927437641724	84	127
5.931927437641724	6.6401360544217685	72	127
6.291836734693877	6.396326530612245	56	127
6.291836734693877	6.396326530612245	48	127
6.291836734693877	6.396326530612245	53	127
6.396326530612245	6.6401360544217685	55	127
6.396326530612245	6.6401360544217685	52	127
6.396326530612245	6.6401360544217685	48	127
6.744625850340136	6.860725623582766	72	127
6.744625850340136	6.860725623582766	64	127
6.744625850340136	6.860725623582766	55	127
6.744625850340136	6.860725623582766	48	127
6.860725623582766	7.081315192743764	60	127
6.860725623582766	7.081315192743764	65	127
6.860725623582766	7.081315192743764	56	127
6.860725623582766	7.081315192743764	53	127
7.197414965986394	7.290294784580499	60	127
7.197414965986394	7.290294784580499	65	127
7.197414965986394	7.290294784580499	56	127
7.197414965986394	7.290294784580499	53	127
7.290294784580499	7.52249433106576	72	127
7.290294784580499	7.52249433106576	64	127
7.290294784580499	7.52249433106576	55	127
7.290294784580499	7.52249433106576	48	127
7.650204081632653	7.766303854875283	72	127
7.650204081632653	7.766303854875283	67	127
7.650204081632653	7.766303854875283	64	127
7.650204081632653	7.766303854875283	48	127
7.766303854875283	8.02172335600907	84	127
7.766303854875283	8.02172335600907	68	127
7.766303854875283	8.02172335600907	65	127
7.766303854875283	8.02172335600907	41	127
8.149433106575964	8.300340136054421	72	127
8.149433106575964	8.300340136054421	68	127
8.149433106575964	8.300340136054421	65	127
8.149433106575964	8.300340136054421	41	127
8.300340136054421	8.55578231292517	84	127
8.300340136054421	8.55578231292517	67	127
8.300340136054421	8.55578231292517	64	127
8.300340136054421	8.55578231292517	36	127
8.683492063492064	8.82281179138322	60	127
8.683492063492064	8.82281179138322	48	127
8.683492063492064	8.82281179138322	72	127
8.683492063492064	8.82281179138322	60	127
8.82281179138322	9.380090702947847	60	127
8.82281179138322	9.380090702947847	48	127
8.82281179138322	9.380090702947847	48	127
10.239229024943311	10.332108843537416	54	127
10.332108843537416	10.436598639455783	56	127
10.436598639455783	10.54108843537415	58	127
10.54108843537415	10.645555555555555	56	127
10.645555555555555	12.932743764172336	73	127
10.645555555555555	10.750068027210885	54	127
10.645555555555555	11.911065759637188	66	127
10.645555555555555	12.932743764172336	70	127
10.8081179138322	10.959047619047618	53	127
11.017097505668934	11.179637188208616	51	127
11.237687074829932	11.411836734693878	49	127
11.469863945578231	11.632426303854876	51	127
11.690453514739229	11.853015873015874	53	127
11.911065759637188	12.932743764172336	61	127
11.911065759637188	13.873151927437641	54	127
12.932743764172336	13.873151927437641	66	127
12.932743764172336	13.873151927437641	58	127
12.932743764172336	13.873151927437641	78	127
13.884761904761906	15.254739229024944	71	127
13.884761904761906	15.97455782312925	65	127
13.884761904761906	15.97455782312925	59	127
13.884761904761906	15.97455782312925	56	127
15.266349206349206	17.031043083900226	73	127
15.986167800453515	18.11077097505669	55	127
15.986167800453515	18.11077097505669	64	127
15.986167800453515	18.11077097505669	58	127
17.042675736961453	18.11077097505669	72	127
18.11077097505669	18.586802721088436	36	127
18.11077097505669	20.08448979591837	72	127
18.11077097505669	20.5256462585034	70	127
18.11077097505669	20.5256462585034	64	127
18.11077097505669	20.5256462585034	48	127
18.11077097505669	20.5256462585034	55	127
18.586802721088436	18.79578231292517	40	127
18.80736961451247	18.958321995464853	43	127
18.958321995464853	19.062789115646257	46	127
19.062789115646257	19.271791383219956	48	127
19.271791383219956	19.445918367346938	52	127
19.457551020408165	19.56204081632653	55	127
19.57362811791383	20.08448979591837	58	127
20.09609977324263	21.466077097505668	77	127
20.537278911564627	22.58063492063492	43	127
20.537278911564627	22.58063492063492	61	127
20.537278911564627	22.58063492063492	58	127
20.537278911564627	22.58063492063492	36	127
21.47766439909297	22.58063492063492	76	127
22.58063492063492	25.007120181405895	64	127
22.58063492063492	22.905714285714286	36	127
22.58063492063492	24.507891156462584	76	127
22.58063492063492	25.471519274376416	58	127
22.58063492063492	25.471519274376416	48	127
22.58063492063492	25.007120181405895	73	127
22.917324263038548	23.091473922902495	40	127
23.103083900226757	23.300453514739228	43	127
23.300453514739228	23.509433106575965	46	127
23.509433106575965	23.625532879818593	48	127
23.63714285714286	23.73002267573696	52	127
23.741632653061224	23.88095238095238	55	127
23.88095238095238	24.136371882086166	58	127
24.136371882086166	24.33374149659864	60	127
24.345351473922904	24.507891156462584	64	127
24.507891156462584	25.007120181405895	85	127
24.507891156462584	25.471519274376416	67	127
25.018730158730158	25.471519274376416	64	127
25.018730158730158	26.43514739229025	84	127
25.48312925170068	25.59922902494331	48	127
25.48312925170068	25.970748299319727	64	127
25.48312925170068	25.970748299319727	67	127
25.59922902494331	25.703718820861678	50	127
25.703718820861678	25.843038548752833	52	127
25.843038548752833	25.970748299319727	50	127
25.982358276643993	26.43514739229025	64	127
25.982358276643993	26.43514739229025	67	127
25.982358276643993	26.43514739229025	48	127
26.446757369614513	26.88793650793651	60	127
26.446757369614513	26.88793650793651	82	127
26.446757369614513	26.88793650793651	67	127
26.89954648526077	27.375555555555554	80	127
26.89954648526077	27.375555555555554	60	127
26.89954648526077	27.375555555555554	53	127
26.89954648526077	27.375555555555554	65	127
27.38716553287982	27.93283446712018	77	127
27.38716553287982	27.93283446712018	56	127
27.38716553287982	27.93283446712018	53	127
27.38716553287982	27.93283446712018	65	127
27.944444444444443	28.374013605442176	73	127
27.944444444444443	28.374013605442176	58	127
27.944444444444443	28.374013605442176	55	127
27.944444444444443	28.374013605442176	64	127
28.38562358276644	28.606213151927438	72	127
28.38562358276644	28.606213151927438	60	127
28.38562358276644	28.606213151927438	56	127
28.38562358276644	28.606213151927438	65	127
28.606213151927438	28.861632653061225	85	127
28.606213151927438	28.861632653061225	65	127
28.606213151927438	28.861632653061225	55	127
28.606213151927438	28.861632653061225	68	127
28.861632653061225	29.360861678004536	67	127
28.861632653061225	29.360861678004536	64	127
28.861632653061225	29.360861678004536	48	127
28.861632653061225	30.278049886621314	84	127
29.360861678004536	29.813650793650794	64	127
29.360861678004536	29.813650793650794	67	127
29.360861678004536	29.4653514739229	48	127
29.476961451247167	29.581451247165532	50	127
29.581451247165532	29.697551020408163	52	127
29.709160997732425	29.813650793650794	50	127
29.813650793650794	30.278049886621314	64	127
29.813650793650794	30.278049886621314	67	127
29.813650793650794	30.278049886621314	48	127
30.278049886621314	30.74244897959184	82	127
30.278049886621314	30.74244897959184	60	127
30.278049886621314	30.74244897959184	67	127
30.74244897959184	31.32294784580499	65	127
30.74244897959184	31.32294784580499	49	127
30.74244897959184	31.32294784580499	65	127
30.74244897959184	31.75251700680272	80	127
31.32294784580499	31.43904761904762	49	127
31.32294784580499	31.75251700680272	65	127
31.32294784580499	31.75251700680272	53	127
31.43904761904762	31.543537414965986	51	127
31.543537414965986	31.659637188208617	53	127
31.659637188208617	31.75251700680272	51	127
31.75251700680272	32.20530612244898	55	127
31.75251700680272	32.20530612244898	67	127
31.75251700680272	32.70453514739229	77	127
31.75251700680272	32.20530612244898	49	127
32.20530612244898	32.34462585034014	49	127
32.20530612244898	32.70453514739229	56	127
32.20530612244898	32.70453514739229	68	127
32.34462585034014	32.46072562358277	51	127
32.46072562358277	32.5768253968254	53	127
32.5768253968254	32.70453514739229	49	127
32.70453514739229	33.145714285714284	50	127
32.70453514739229	33.61011337868481	43	127
32.70453514739229	33.145714285714284	59	127
32.70453514739229	33.61011337868481	71	127
33.145714285714284	33.61011337868481	65	127
33.145714285714284	33.261814058956915	50	127
33.261814058956915	33.366303854875284	51	127
33.366303854875284	33.50562358276644	53	127
33.50562358276644	33.61011337868481	50	127
33.61011337868481	34.55052154195011	36	127
33.61011337868481	34.07451247165533	64	127
33.61011337868481	34.07451247165533	55	127
33.61011337868481	34.42281179138322	72	127
34.086122448979594	34.190589569161	48	127
34.086122448979594	34.55052154195011	72	127
34.190589569161	34.30668934240363	49	127
34.30668934240363	34.43439909297052	51	127
34.43439909297052	34.562108843537416	48	127
34.43439909297052	34.55052154195011	72	127
34.562108843537416	34.65501133786848	65	127
34.562108843537416	34.65501133786848	53	127
34.562108843537416	34.65501133786848	41	127
34.65501133786848	34.75950113378685	43	127
34.65501133786848	34.75950113378685	67	127
34.65501133786848	34.75950113378685	55	127
34.75950113378685	34.86399092970522	68	127
34.75950113378685	34.86399092970522	56	127
34.75950113378685	34.86399092970522	44	127
34.86399092970522	34.98009070294785	67	127
34.86399092970522	34.98009070294785	55	127
34.86399092970522	34.98009070294785	43	127
34.98009070294785	35.119410430839004	65	127
34.98009070294785	35.119410430839004	53	127
34.98009070294785	35.119410430839004	41	127
35.18907029478458	35.351609977324266	63	127
35.18907029478458	35.351609977324266	51	127
35.18907029478458	35.351609977324266	39	127
35.42126984126984	35.54897959183673	61	127
35.42126984126984	35.54897959183673	49	127
35.42126984126984	35.54897959183673	37	127
35.618639455782315	35.74634920634921	60	127
35.618639455782315	35.74634920634921	48	127
35.618639455782315	35.74634920634921	36	127
35.80439909297052	35.943718820861676	62	127
35.80439909297052	35.943718820861676	50	127
35.80439909297052	35.943718820861676	38	127
36.02498866213152	36.1875283446712	64	127
36.02498866213152	36.1875283446712	52	127
36.02498866213152	36.1875283446712	40	127
36.25718820861678	36.37328798185941	65	127
36.25718820861678	36.37328798185941	53	127
36.25718820861678	36.37328798185941	41	127
36.37328798185941	36.489387755102044	67	127
36.37328798185941	36.489387755102044	55	127
36.37328798185941	36.489387755102044	43	127
36.489387755102044	36.59385487528345	68	127
36.489387755102044	36.59385487528345	56	127
36.489387755102044	36.59385487528345	44	127
36.59385487528345	36.709977324263036	67	127
36.59385487528345	36.709977324263036	55	127
36.59385487528345	36.709977324263036	43	127
36.709977324263036	36.91895691609977	65	127
36.709977324263036	36.91895691609977	53	127
36.709977324263036	36.91895691609977	41	127
37.13954648526077	37.24403628117914	66	127
37.13954648526077	37.24403628117914	54	127
37.13954648526077	37.24403628117914	42	127
37.24403628117914	37.36011337868481	68	127
37.24403628117914	37.36011337868481	56	127
37.24403628117914	37.36011337868481	44	127
37.36011337868481	37.464625850340134	70	127
37.36011337868481	37.464625850340134	58	127
37.36011337868481	37.464625850340134	46	127
37.464625850340134	37.5691156462585	68	127
37.464625850340134	37.5691156462585	56	127
37.464625850340134	37.5691156462585	44	127
37.5691156462585	37.7897052154195	66	127
37.5691156462585	37.7897052154195	54	127
37.5691156462585	37.7897052154195	42	127
38.03351473922903	38.114761904761906	67	127
38.03351473922903	38.114761904761906	55	127
38.03351473922903	38.114761904761906	43	127
38.114761904761906	38.21927437641723	68	127
38.114761904761906	38.21927437641723	56	127
38.114761904761906	38.21927437641723	44	127
38.21927437641723	38.33537414965986	70	127
38.21927437641723	38.33537414965986	58	127
38.21927437641723	38.33537414965986	46	127
38.33537414965986	38.43986394557823	72	127
38.33537414965986	38.43986394557823	60	127
38.33537414965986	38.43986394557823	48	127
38.43986394557823	38.5443537414966	73	127
38.43986394557823	38.5443537414966	61	127
38.43986394557823	38.5443537414966	49	127
38.5443537414966	38.66045351473923	75	127
38.5443537414966	38.66045351473923	63	127
38.5443537414966	38.66045351473923	51	127
38.66045351473923	38.77655328798186	61	127
38.66045351473923	38.77655328798186	49	127
38.66045351473923	38.77655328798186	73	127
38.77655328798186	38.881020408163266	72	127
38.77655328798186	38.881020408163266	60	127
38.77655328798186	38.881020408163266	48	127
38.881020408163266	38.97392290249433	70	127
38.881020408163266	38.97392290249433	58	127
38.881020408163266	38.97392290249433	46	127
38.97392290249433	39.0784126984127	72	127
38.97392290249433	39.0784126984127	60	127
38.97392290249433	39.0784126984127	48	127
39.0784126984127	39.18290249433107	70	127
39.0784126984127	39.18290249433107	58	127
39.0784126984127	39.18290249433107	46	127
39.18290249433107	39.287392290249436	44	127
39.18290249433107	39.287392290249436	68	127
39.18290249433107	39.287392290249436	56	127
39.287392290249436	39.39185941043084	55	127
39.287392290249436	39.39185941043084	43	127
39.287392290249436	39.39185941043084	67	127
39.39185941043084	39.496371882086166	65	127
39.39185941043084	39.496371882086166	53	127
39.39185941043084	39.496371882086166	41	127
39.496371882086166	39.6124716553288	39	127
39.496371882086166	39.6124716553288	63	127
39.496371882086166	39.6124716553288	51	127
39.6124716553288	39.74018140589569	61	127
39.6124716553288	39.74018140589569	49	127
39.6124716553288	39.74018140589569	37	127
39.74018140589569	40.47160997732426	48	127
39.74018140589569	40.47160997732426	60	127
39.74018140589569	40.47160997732426	36	127
40.19297052154195	40.47160997732426	68	127
40.47160997732426	41.41199546485261	80	127
40.9127664399093	41.41199546485261	56	127
40.9127664399093	41.41199546485261	60	127
41.42360544217687	42.015736961451246	78	127
41.42360544217687	41.667414965986396	58	127
41.42360544217687	41.667414965986396	61	127
41.667414965986396	42.015736961451246	60	127
41.667414965986396	42.015736961451246	63	127
42.02734693877551	42.549795918367344	65	127
42.02734693877551	42.549795918367344	49	127
42.02734693877551	45.951519274376416	61	127
42.02734693877551	42.549795918367344	77	127
42.549795918367344	42.75877551020408	66	127
42.549795918367344	42.75877551020408	51	127
42.549795918367344	42.75877551020408	73	127
42.770385487528344	43.01419501133787	72	127
42.770385487528344	43.01419501133787	68	127
42.770385487528344	43.01419501133787	53	127
43.02580498866213	43.54825396825397	70	127
43.02580498866213	44.639591836734695	70	127
43.02580498866213	44.639591836734695	54	127
43.54825396825397	45.951519274376416	63	127
44.67442176870748	45.243310657596375	68	127
44.67442176870748	45.243310657596375	56	127
45.243310657596375	45.951519274376416	57	127
45.243310657596375	45.951519274376416	67	127
45.96312925170068	46.53201814058957	60	127
45.96312925170068	46.53201814058957	68	127
45.96312925170068	46.53201814058957	63	127
45.96312925170068	46.53201814058957	56	127
46.53201814058957	47.11251700680272	65	127
46.53201814058957	48.98172335600907	68	127
46.53201814058957	47.751065759637186	49	127
46.53201814058957	47.11251700680272	56	127
47.124104308390024	48.05292517006803	56	127
47.76267573696145	47.90199546485261	53	127
47.91360544217687	48.05292517006803	54	127
48.05292517006803	48.52893424036281	65	127
48.05292517006803	48.679863945578234	56	127
48.52893424036281	48.98172335600907	56	127
48.691473922902496	48.83079365079365	60	127
48.842403628117914	48.98172335600907	61	127
48.99333333333333	49.446122448979594	66	127
48.99333333333333	49.59705215419501	63	127
48.99333333333333	50.83931972789116	80	127
49.446122448979594	49.89891156462585	56	127
49.59705215419501	49.74798185941043	62	127
49.75959183673469	49.89891156462585	63	127
49.91052154195011	50.35170068027211	66	127
49.91052154195011	50.50263038548753	61	127
50.35170068027211	50.83931972789116	36	127
50.35170068027211	50.83931972789116	56	127
50.50263038548753	50.67678004535147	60	127
50.67678004535147	50.83931972789116	58	127
50.85092970521542	51.477868480725625	65	127
50.85092970521542	51.477868480725625	56	127
50.85092970521542	51.77972789115646	37	127
50.85092970521542	52.60403628117914	80	127
51.477868480725625	52.11641723356009	56	127
51.477868480725625	52.11641723356009	61	127
51.77972789115646	51.953877551020405	41	127
51.953877551020405	52.11641723356009	42	127
52.11641723356009	52.60403628117914	61	127
52.11641723356009	52.60403628117914	65	127
52.11641723356009	52.847845804988665	44	127
52.66208616780045	53.161315192743764	61	127
52.66208616780045	53.161315192743764	89	127
52.66208616780045	53.161315192743764	56	127
52.847845804988665	53.010385487528346	48	127
53.010385487528346	53.161315192743764	49	127
53.161315192743764	53.64893424036281	60	127
53.161315192743764	53.64893424036281	66	127
53.161315192743764	53.81147392290249	51	127
53.161315192743764	53.64893424036281	89	127
53.67215419501134	54.11333333333334	87	127
53.67215419501134	54.11333333333334	56	127
53.67215419501134	54.11333333333334	60	127
53.81147392290249	53.96240362811791	53	127
53.96240362811791	54.11333333333334	54	127
54.11333333333334	54.647392290249435	63	127
54.11333333333334	54.647392290249435	85	127
54.11333333333334	54.647392290249435	60	127
54.11333333333334	54.86798185941043	56	127
54.6590022675737	54.99569160997732	63	127
54.6590022675737	55.22789115646258	84	127
54.6590022675737	55.22789115646258	56	127
54.8795918367347	55.0653514739229	56	127
54.99569160997732	55.22789115646258	68	127
55.0653514739229	55.22789115646258	54	127
55.22789115646258	56.02897959183674	85	127
55.22789115646258	56.02897959183674	68	127
55.22789115646258	56.02897959183674	53	127
55.22789115646258	56.179909297052156	61	127
56.02897959183674	58.908253968253966	80	127
56.02897959183674	56.609478458049885	56	127
56.19151927437642	56.43532879818594	65	127
56.446938775510205	56.609478458049885	66	127
56.609478458049885	57.213197278911565	68	127
56.609478458049885	57.07387755102041	65	127
57.07387755102041	57.5150566893424	56	127
57.22480725623583	57.36412698412698	72	127
57.375736961451246	57.5150566893424	73	127
57.526666666666664	57.94462585034014	66	127
57.526666666666664	58.095555555555556	75	127
57.94462585034014	58.38580498866213	56	127
58.095555555555556	58.23487528344671	74	127
58.246485260770974	58.38580498866213	75	127
58.38580498866213	59.09401360544218	73	127
58.38580498866213	58.908253968253966	66	127
58.908253968253966	59.41909297052154	80	127
58.908253968253966	59.41909297052154	56	127
58.908253968253966	59.41909297052154	48	127
59.09401360544218	59.25655328798186	72	127
59.25655328798186	59.41909297052154	70	127
59.465532879818596	59.941541950113375	65	127
59.465532879818596	59.941541950113375	68	127
59.465532879818596	60.707800453514736	80	127
59.465532879818596	60.13891156462585	49	127
59.941541950113375	60.46399092970522	65	127
59.941541950113375	60.46399092970522	56	127
60.13891156462585	60.30145124716553	53	127
60.30145124716553	60.46399092970522	54	127
60.46399092970522	60.95160997732426	65	127
60.46399092970522	61.160589569161	56	127
60.46399092970522	61.160589569161	53	127
60.707800453514736	60.89356009070295	85	127
60.96321995464853	61.18380952380952	89	127
60.96321995464853	61.61337868480726	61	127
61.160589569161	61.39278911564626	54	127
61.160589569161	61.39278911564626	58	127
61.29990929705215	62.06616780045351	92	127
61.39278911564626	61.61337868480726	59	127
61.39278911564626	61.61337868480726	56	127
61.61337868480726	62.21709750566893	54	127
61.61337868480726	62.06616780045351	58	127
62.077777777777776	62.21709750566893	58	127
62.077777777777776	63.02979591836735	70	127
62.077777777777776	62.21709750566893	92	127
62.228707482993194	62.36802721088436	59	127
62.228707482993194	62.36802721088436	56	127
62.228707482993194	62.36802721088436	90	127
62.36802721088436	62.518956916099775	89	127
62.36802721088436	62.518956916099775	61	127
62.36802721088436	62.518956916099775	58	127
62.518956916099775	62.71632653061224	89	127
62.518956916099775	63.18072562358277	54	127
62.71632653061224	62.87886621315193	87	127
62.87886621315193	63.02979591836735	85	127
63.04140589569161	63.18072562358277	58	127
63.04140589569161	63.52902494331066	58	127
63.04140589569161	63.18072562358277	85	127
63.19233560090703	63.35487528344671	84	127
63.19233560090703	63.35487528344671	60	127
63.19233560090703	63.35487528344671	56	127
63.36648526077097	63.52902494331066	61	127
63.36648526077097	63.52902494331066	82	127
63.36648526077097	63.52902494331066	58	127
63.52902494331066	64.22562358276645	56	127
63.52902494331066	63.72639455782313	82	127
63.52902494331066	64.06308390022676	60	127
63.72639455782313	63.9237641723356	80	127
63.9237641723356	64.06308390022676	79	127
64.06308390022676	64.22562358276645	60	127
64.06308390022676	65.01510204081633	72	127
64.06308390022676	64.22562358276645	82	127
64.22562358276645	64.38816326530612	80	127
64.22562358276645	64.38816326530612	61	127
64.22562358276645	64.38816326530612	58	127
64.38816326530612	64.52748299319728	60	127
64.38816326530612	64.52748299319728	78	127
64.38816326530612	64.52748299319728	63	127
64.53909297052154	65.18925170068027	57	127
64.53909297052154	64.69	78	127
64.69	64.85256235827664	77	127
64.85256235827664	65.01510204081633	76	127
65.01510204081633	65.18925170068027	60	127
65.01510204081633	65.46789115646258	60	127
65.01510204081633	65.18925170068027	78	127
65.18925170068027	65.32854875283446	77	127
65.18925170068027	65.32854875283446	61	127
65.18925170068027	65.32854875283446	58	127
65.32854875283446	65.46789115646258	75	127
65.32854875283446	65.46789115646258	63	127
65.32854875283446	65.46789115646258	60	127
65.47950113378685	65.618820861678	75	127
65.47950113378685	66.09480725623582	58	127
65.47950113378685	65.90907029478458	61	127
65.618820861678	65.75814058956917	73	127
65.75814058956917	65.90907029478458	72	127
65.90907029478458	66.09480725623582	73	127
65.90907029478458	66.09480725623582	61	127
66.09480725623582	66.26897959183674	63	127
66.09480725623582	66.26897959183674	72	127
66.09480725623582	66.26897959183674	60	127
66.26897959183674	66.41990929705216	65	127
66.26897959183674	66.41990929705216	61	127
66.26897959183674	66.43151927437641	70	127
66.43151927437641	67.05845804988662	58	127
66.43151927437641	66.91913832199546	61	127
66.43151927437641	66.58242630385487	72	127
66.58242630385487	66.74498866213152	70	127
66.74498866213152	66.93074829931973	68	127
66.93074829931973	67.05845804988662	70	127
66.93074829931973	67.05845804988662	61	127
67.05845804988662	67.18616780045352	68	127
67.05845804988662	67.18616780045352	63	127
67.05845804988662	67.18616780045352	60	127
67.18616780045352	67.34868480725623	67	127
67.18616780045352	67.34868480725623	61	127
67.18616780045352	67.34868480725623	65	127
67.36031746031746	67.68539682539682	48	127
67.36031746031746	67.49963718820862	70	127
67.36031746031746	67.68539682539682	60	127
67.36031746031746	67.68539682539682	63	127
67.49963718820862	67.65056689342404	68	127
67.65056689342404	67.81310657596372	67	127
67.82471655328798	69.21791383219954	56	127
67.82471655328798	67.96403628117913	66	127
67.82471655328798	68.84639455782313	63	127
67.82471655328798	68.84639455782313	75	127
67.82471655328798	71.42380952380952	36	127
67.82471655328798	71.42380952380952	44	127
67.82471655328798	69.21791383219954	48	127
67.96403628117913	68.1149433106576	56	127
68.1149433106576	68.24265306122449	68	127
68.25428571428571	68.39360544217688	66	127
68.39360544217688	68.57936507936508	56	127
68.57936507936508	68.7302947845805	68	127
68.74190476190476	68.88120181405895	66	127
68.84639455782313	68.97410430839003	77	127
68.88120181405895	69.0437641723356	56	127
68.97410430839003	69.0785941043084	78	127
69.0437641723356	69.21791383219954	68	127
69.0785941043084	69.21791383219954	77	127
69.21791383219954	70.91297052154195	75	127
69.21791383219954	69.34562358276644	51	127
69.21791383219954	69.38045351473923	66	127
69.34562358276644	69.4501133786848	53	127
69.38045351473923	69.50816326530612	56	127
69.4501133786848	69.54299319727892	54	127
69.50816326530612	69.64746031746031	68	127
69.54299319727892	69.64746031746031	53	127
69.64746031746031	69.75195011337868	51	127
69.64746031746031	69.78680272108843	66	127
69.75195011337868	69.84485260770975	53	127
69.78680272108843	69.9261224489796	56	127
69.84485260770975	69.96095238095238	54	127
69.9261224489796	70.06544217687075	68	127
69.96095238095238	70.06544217687075	53	127
70.06544217687075	70.16993197278912	51	127
70.06544217687075	70.21637188208616	66	127
70.16993197278912	70.28600907029478	53	127
70.21637188208616	70.37891156462585	56	127
70.28600907029478	70.41371882086167	54	127
70.37891156462585	70.52984126984127	68	127
70.41371882086167	70.52984126984127	53	127
70.52984126984127	70.63433106575964	51	127
70.52984126984127	70.66916099773243	66	127
70.63433106575964	70.73882086167801	53	127
70.66916099773243	70.80848072562358	56	127
70.73882086167801	70.84331065759638	54	127
70.80848072562358	70.93619047619048	68	127
70.84331065759638	70.93619047619048	53	127
70.93619047619048	71.29609977324263	51	127
70.93619047619048	71.02904761904762	67	127
70.93619047619048	71.29609977324263	63	127
71.02904761904762	71.16839002267574	68	127
71.16839002267574	71.3077097505669	66	127
71.3077097505669	71.42380952380952	56	127
71.42380952380952	72.7821768707483	56	127
71.42380952380952	71.56312925170069	66	127
71.42380952380952	72.44548752834467	63	127
71.42380952380952	72.44548752834467	75	127
71.42380952380952	72.7821768707483	48	127
71.42380952380952	74.19857142857143	36	127
71.42380952380952	74.19857142857143	44	127
71.56312925170069	71.70244897959184	56	127
71.70244897959184	71.841768707483	68	127
71.841768707483	72.03913832199547	66	127
72.03913832199547	72.19006802721088	56	127
72.19006802721088	72.32938775510205	68	127
72.3409977324263	72.49192743764172	66	127
72.44548752834467	72.57319727891156	77	127
72.49192743764172	72.64285714285714	56	127
72.57319727891156	72.68927437641723	78	127
72.64285714285714	72.7821768707483	68	127
72.68927437641723	72.7937641723356	77	127
72.7937641723356	74.17537414965986	75	127
72.7937641723356	72.93310657596372	51	127
72.7937641723356	72.96793650793651	66	127
72.93310657596372	73.03759637188209	53	127
72.96793650793651	73.10725623582766	56	127
73.03759637188209	73.14208616780046	54	127
73.10725623582766	73.25818594104308	68	127
73.14208616780046	73.2814058956916	53	127
73.2814058956916	73.42072562358277	66	127
73.2814058956916	73.38589569160997	51	127
73.38589569160997	73.49038548752834	53	127
73.42072562358277	73.56002267573696	56	127
73.49038548752834	73.59487528344671	54	127
73.56002267573696	73.71095238095238	68	127
73.59487528344671	73.7225850340136	53	127
73.7225850340136	73.86190476190477	66	127
73.7225850340136	73.82707482993197	51	127
73.82707482993197	73.96639455782314	53	127
73.86190476190477	74.03605442176871	56	127
73.96639455782314	74.08249433106576	54	127
74.03605442176871	74.19857142857143	68	127
74.08249433106576	74.19857142857143	53	127
74.19857142857143	74.32628117913832	56	127
74.19857142857143	74.37274376417234	80	127
74.19857142857143	74.37274376417234	56	127
74.19857142857143	74.37274376417234	44	127
74.32628117913832	74.44240362811792	68	127
74.44240362811792	74.53528344671201	56	127
74.44240362811792	74.5817006802721	56	127
74.44240362811792	74.5817006802721	56	127
74.44240362811792	74.5817006802721	44	127
74.53528344671201	74.65138321995465	68	127
74.65138321995465	74.93002267573696	57	127
74.65138321995465	75.17383219954648	57	127
74.65138321995465	75.17383219954648	45	127
74.94163265306122	75.06934240362811	59	127
75.06934240362811	75.17383219954648	61	127
75.17383219954648	75.28993197278912	62	127
75.28993197278912	75.39442176870749	64	127
75.39442176870749	75.49891156462586	66	127
75.49891156462586	75.61501133786848	68	127
75.61501133786848	75.85879818594104	69	127
75.61501133786848	75.85879818594104	57	127
75.61501133786848	75.85879818594104	45	127
75.85879818594104	75.98650793650793	47	127
75.85879818594104	75.98650793650793	71	127
75.85879818594104	75.98650793650793	59	127
75.98650793650793	76.10263038548753	73	127
75.98650793650793	76.10263038548753	61	127
75.98650793650793	76.10263038548753	49	127
76.10263038548753	76.2187074829932	74	127
76.10263038548753	76.2187074829932	62	127
76.10263038548753	76.2187074829932	50	127
76.2187074829932	76.32321995464852	76	127
76.2187074829932	76.32321995464852	64	127
76.2187074829932	76.32321995464852	64	127
76.2187074829932	76.32321995464852	52	127
76.32321995464852	76.45092970521542	78	127
76.32321995464852	76.45092970521542	66	127
76.32321995464852	76.45092970521542	66	127
76.32321995464852	76.45092970521542	54	127
76.45092970521542	76.56702947845805	80	127
76.45092970521542	76.56702947845805	68	127
76.45092970521542	76.56702947845805	68	127
76.45092970521542	76.56702947845805	56	127
76.56702947845805	76.82244897959184	81	127
76.56702947845805	76.82244897959184	69	127
76.56702947845805	76.82244897959184	57	127
76.56702947845805	76.82244897959184	69	127
76.56702947845805	76.82244897959184	45	127
77.17074829931973	77.42616780045351	86	127
77.17074829931973	77.42616780045351	74	127
77.17074829931973	77.42616780045351	62	127
77.17074829931973	77.42616780045351	50	127
79.42308390022676	80.11968253968254	86	127
79.42308390022676	80.11968253968254	74	127
80.1312925170068	81.11814058956917	75	127
80.1312925170068	81.11814058956917	87	127
80.1312925170068	81.11814058956917	58	127
80.1312925170068	81.72185941043084	54	127
81.12975056689342	81.72185941043084	70	127
81.12975056689342	81.72185941043084	66	127
81.12975056689342	81.72185941043084	82	127
81.73346938775511	82.05854875283447	70	127
81.73346938775511	82.05854875283447	82	127
82.07013605442177	83.13827664399093	81	127
82.07013605442177	83.13827664399093	69	127
82.60421768707484	83.13827664399093	56	127
82.60421768707484	83.13827664399093	65	127
82.60421768707484	83.13827664399093	61	127
83.14988662131519	83.74199546485261	80	127
83.14988662131519	83.74199546485261	68	127
83.14988662131519	83.74199546485261	56	127
83.14988662131519	83.74199546485261	66	127
83.14988662131519	83.74199546485261	63	127
83.74199546485261	84.1831746031746	70	127
83.74199546485261	84.1831746031746	82	127
84.1831746031746	85.17002267573696	69	127
84.1831746031746	85.17002267573696	81	127
84.68240362811791	85.17002267573696	56	127
84.68240362811791	85.17002267573696	65	127
84.68240362811791	85.17002267573696	61	127
85.18163265306123	85.44866213151927	63	127
85.18163265306123	85.44866213151927	68	127
85.18163265306123	85.44866213151927	56	127
85.18163265306123	85.44866213151927	66	127
85.18163265306123	85.6924716553288	80	127
85.44866213151927	85.6924716553288	51	127
85.44866213151927	85.6924716553288	60	127
85.44866213151927	85.6924716553288	42	127
85.70408163265306	85.8201814058957	53	127
85.70408163265306	85.8201814058957	61	127
85.70408163265306	87.63133786848073	80	127
85.70408163265306	87.63133786848073	37	127
85.8201814058957	85.95950113378684	63	127
85.8201814058957	85.95950113378684	54	127
85.95950113378684	86.11043083900226	56	127
85.95950113378684	86.11043083900226	65	127
86.11043083900226	86.27297052154195	63	127
86.11043083900226	86.27297052154195	54	127
86.27297052154195	86.37746031746032	61	127
86.27297052154195	86.37746031746032	53	127
86.37746031746032	86.47034013605442	63	127
86.37746031746032	86.47034013605442	54	127
86.47034013605442	86.58643990929706	65	127
86.47034013605442	86.58643990929706	56	127
86.58643990929706	86.7257596371882	63	127
86.58643990929706	86.7257596371882	54	127
86.7257596371882	86.84185941043084	61	127
86.7257596371882	86.84185941043084	53	127
86.84185941043084	86.95795918367347	63	127
86.84185941043084	86.95795918367347	54	127
86.95795918367347	87.06244897959184	56	127
86.95795918367347	87.06244897959184	65	127
87.06244897959184	87.1669387755102	63	127
87.06244897959184	87.1669387755102	54	127
87.1669387755102	87.28301587301587	61	127
87.1669387755102	87.28301587301587	53	127
87.28301587301587	87.38750566893424	54	127
87.28301587301587	87.38750566893424	63	127
87.38750566893424	87.50362811791383	65	127
87.38750566893424	87.50362811791383	56	127
87.50362811791383	87.63133786848073	63	127
87.50362811791383	87.63133786848073	54	127
87.63133786848073	89.09419501133787	51	127
87.63133786848073	87.7358276643991	37	127
87.63133786848073	88.09573696145125	80	127
87.63133786848073	89.09419501133787	60	127
87.7358276643991	87.85192743764172	39	127
87.85192743764172	87.95641723356009	37	127
87.95641723356009	88.09573696145125	39	127
88.09573696145125	88.6414058956916	78	127
88.09573696145125	88.20022675736962	37	127
88.20022675736962	88.42081632653061	39	127
88.42081632653061	88.52530612244898	37	127
88.52530612244898	88.6414058956916	39	127
88.6414058956916	89.09419501133787	75	127
88.6414058956916	88.7691156462585	37	127
88.7691156462585	88.88521541950114	39	127
88.88521541950114	88.9897052154195	37	127
88.9897052154195	89.09419501133787	39	127
89.09419501133787	89.2102947845805	37	127
89.09419501133787	89.39605442176871	72	127
89.09419501133787	89.39605442176871	63	127
89.09419501133787	89.39605442176871	54	127
89.2102947845805	89.39605442176871	39	127
89.39605442176871	89.51215419501133	37	127
89.39605442176871	89.6166439909297	80	127
89.39605442176871	89.6166439909297	60	127
89.39605442176871	89.6166439909297	51	127
89.51215419501133	89.6166439909297	39	127
89.6166439909297	91.41619047619048	37	127
89.6166439909297	89.7443537414966	53	127
89.6166439909297	90.74281179138322	80	127
89.6166439909297	89.7443537414966	61	127
89.7443537414966	89.84884353741496	54	127
89.7443537414966	89.84884353741496	63	127
89.84884353741496	89.9649433106576	65	127
89.84884353741496	89.9649433106576	56	127
89.9649433106576	90.069410430839	63	127
89.9649433106576	90.069410430839	54	127
90.069410430839	90.17390022675737	61	127
90.069410430839	90.17390022675737	53	127
90.17390022675737	90.29002267573696	63	127
90.17390022675737	90.29002267573696	54	127
90.29002267573696	90.41773242630386	65	127
90.29002267573696	90.41773242630386	56	127
90.41773242630386	90.53383219954648	54	127
90.41773242630386	90.53383219954648	63	127
90.53383219954648	90.63832199546485	61	127
90.53383219954648	90.63832199546485	53	127
90.63832199546485	90.74281179138322	54	127
90.63832199546485	90.74281179138322	63	127
90.74281179138322	90.96337868480725	80	127
90.74281179138322	90.84730158730159	65	127
90.74281179138322	90.84730158730159	56	127
90.84730158730159	90.96337868480725	54	127
90.84730158730159	90.96337868480725	63	127
90.96337868480725	91.19557823129252	82	127
90.96337868480725	91.07950113378685	61	127
90.96337868480725	91.07950113378685	53	127
91.07950113378685	91.19557823129252	54	127
91.07950113378685	91.19557823129252	63	127
91.19557823129252	91.30009070294784	65	127
91.19557823129252	91.30009070294784	56	127
91.19557823129252	91.41619047619048	80	127
91.30009070294784	91.42780045351473	54	127
91.30009070294784	91.42780045351473	63	127
91.42780045351473	91.5322902494331	37	127
91.42780045351473	91.90380952380953	80	127
91.42780045351473	92.79777777777778	60	127
91.42780045351473	92.79777777777778	51	127
91.5322902494331	91.64839002267574	39	127
91.64839002267574	91.76448979591837	37	127
91.76448979591837	91.90380952380953	39	127
91.90380952380953	92.03151927437642	37	127
91.90380952380953	92.34496598639456	78	127
92.03151927437642	92.13600907029479	39	127
92.13600907029479	92.24049886621316	37	127
92.24049886621316	92.34496598639456	39	127
92.34496598639456	92.79777777777778	75	127
92.34496598639456	92.46108843537415	37	127
92.46108843537415	92.56557823129252	39	127
92.56557823129252	92.69328798185941	37	127
92.69328798185941	92.79777777777778	39	127
92.79777777777778	92.93709750566893	37	127
92.79777777777778	93.0415873015873	72	127
92.79777777777778	93.0415873015873	63	127
92.79777777777778	93.0415873015873	54	127
92.93709750566893	93.0764172335601	39	127
93.0764172335601	93.28539682539683	80	127
93.0764172335601	93.18090702947846	37	127
93.0764172335601	93.28539682539683	60	127
93.0764172335601	93.28539682539683	51	127
93.18090702947846	93.28539682539683	39	127
93.28539682539683	93.40149659863945	37	127
93.28539682539683	93.97038548752835	53	127
93.28539682539683	93.97038548752835	80	127
93.28539682539683	93.97038548752835	61	127
93.40149659863945	93.52920634920635	39	127
93.52920634920635	93.63369614512472	37	127
93.63369614512472	93.73818594104308	39	127
93.73818594104308	93.84267573696145	37	127
93.84267573696145	93.98197278911564	39	127
93.98197278911564	94.13290249433106	37	127
94.13290249433106	94.3302947845805	39	127
94.3302947845805	95.06172335600907	56	127
94.3302947845805	94.49281179138322	37	127
94.3302947845805	95.06172335600907	53	127
94.3302947845805	95.06172335600907	68	127
94.49281179138322	94.60893424036281	39	127
94.60893424036281	94.71342403628118	37	127
94.71342403628118	94.84113378684808	39	127
94.84113378684808	94.9572335600907	37	127
94.9572335600907	95.07333333333334	39	127
95.07333333333334	95.18943310657596	37	127
95.18943310657596	95.29392290249433	39	127
95.29392290249433	95.4332426303855	37	127
95.29392290249433	96.21111111111111	53	127
95.29392290249433	96.21111111111111	68	127
95.29392290249433	96.21111111111111	61	127
95.4332426303855	95.59578231292517	39	127
95.59578231292517	95.70027210884354	37	127
95.70027210884354	95.9324716553288	39	127
95.9324716553288	96.08340136054422	37	127
96.08340136054422	96.21111111111111	39	127
96.21111111111111	96.35043083900227	37	127
96.35043083900227	96.48975056689342	39	127
96.48975056689342	96.62907029478458	73	127
96.48975056689342	96.62907029478458	61	127
96.48975056689342	96.62907029478458	49	127
96.48975056689342	96.62907029478458	37	127
96.62907029478458	96.78	73	127
96.62907029478458	96.78	61	127
96.62907029478458	96.78	49	127
96.62907029478458	96.78	37	127
96.78	96.91931972789115	73	127
96.78	96.91931972789115	61	127
96.78	96.91931972789115	49	127
96.78	96.91931972789115	37	127
96.93092970521542	97.0934693877551	73	127
96.93092970521542	97.0934693877551	61	127
96.93092970521542	97.0934693877551	49	127
96.93092970521542	97.0934693877551	37	127
97.10507936507936	97.26761904761905	73	127
97.10507936507936	97.26761904761905	61	127
97.10507936507936	97.26761904761905	49	127
97.10507936507936	97.26761904761905	37	127
97.2792290249433	97.49981859410431	73	127
97.2792290249433	97.49981859410431	61	127
97.2792290249433	97.49981859410431	49	127
97.2792290249433	97.49981859410431	37	127
97.49981859410431	98.71886621315193	74	127
97.49981859410431	98.71886621315193	62	127
97.49981859410431	98.71886621315193	50	127
97.49981859410431	98.71886621315193	38	127
98.71886621315193	98.83496598639456	76	127
98.71886621315193	98.83496598639456	64	127
98.71886621315193	98.83496598639456	52	127
98.71886621315193	98.83496598639456	40	127
98.83496598639456	98.93945578231292	78	127
98.83496598639456	98.93945578231292	66	127
98.83496598639456	98.93945578231292	54	127
98.83496598639456	98.93945578231292	42	127
98.93945578231292	99.05555555555556	79	127
98.93945578231292	99.05555555555556	67	127
98.93945578231292	99.05555555555556	55	127
98.93945578231292	99.05555555555556	43	127
99.05555555555556	99.16004535147393	81	127
99.05555555555556	99.16004535147393	69	127
99.05555555555556	99.16004535147393	57	127
99.05555555555556	99.16004535147393	45	127
99.16004535147393	99.27614512471655	83	127
99.16004535147393	99.27614512471655	71	127
99.16004535147393	99.27614512471655	59	127
99.16004535147393	99.27614512471655	47	127
99.27614512471655	99.38063492063492	49	127
99.27614512471655	99.38063492063492	85	127
99.27614512471655	99.38063492063492	73	127
99.27614512471655	99.38063492063492	61	127
99.38063492063492	99.86825396825397	74	127
99.38063492063492	99.86825396825397	62	127
99.38063492063492	99.86825396825397	50	127
99.38063492063492	99.86825396825397	86	127
101.78390022675737	102.31795918367347	86	127
101.78390022675737	102.31795918367347	74	127
102.31795918367347	103.95496598639455	54	127
102.31795918367347	103.32802721088436	87	127
102.31795918367347	103.32802721088436	75	127
102.31795918367347	103.32802721088436	58	127
103.32802721088436	103.95496598639455	70	127
103.32802721088436	103.95496598639455	66	127
103.32802721088436	103.95496598639455	82	127
103.95496598639455	104.40775510204081	82	127
103.95496598639455	104.40775510204081	70	127
104.40775510204081	105.35977324263038	81	127
104.40775510204081	105.35977324263038	69	127
104.89537414965986	105.35977324263038	56	127
104.89537414965986	105.35977324263038	65	127
104.89537414965986	105.35977324263038	61	127
105.35977324263038	105.9518820861678	80	127
105.35977324263038	105.9518820861678	68	127
105.35977324263038	105.9518820861678	56	127
105.35977324263038	105.9518820861678	66	127
105.35977324263038	105.9518820861678	63	127
105.9518820861678	106.34662131519275	70	127
105.9518820861678	106.34662131519275	82	127
106.34662131519275	107.27541950113378	81	127
106.34662131519275	107.27541950113378	69	127
106.799410430839	107.27541950113378	56	127
106.799410430839	107.27541950113378	65	127
106.799410430839	107.27541950113378	61	127
107.27541950113378	107.8326984126984	80	127
107.27541950113378	107.49600907029479	68	127
107.27541950113378	107.49600907029479	56	127
107.27541950113378	107.49600907029479	66	127
107.27541950113378	107.49600907029479	63	127
107.50761904761904	107.8326984126984	42	127
107.50761904761904	107.8326984126984	60	127
107.50761904761904	107.8326984126984	51	127
107.8326984126984	107.9604081632653	61	127
107.8326984126984	107.9604081632653	53	127
107.8326984126984	109.73673469387755	37	127
107.8326984126984	109.73673469387755	80	127
107.9604081632653	108.07650793650794	54	127
107.9604081632653	108.07650793650794	63	127
108.07650793650794	108.19260770975056	65	127
108.07650793650794	108.19260770975056	56	127
108.19260770975056	108.3087074829932	54	127
108.19260770975056	108.3087074829932	63	127
108.3087074829932	108.44802721088435	61	127
108.3087074829932	108.44802721088435	53	127
108.44802721088435	108.55251700680272	63	127
108.44802721088435	108.55251700680272	54	127
108.55251700680272	108.76149659863945	65	127
108.55251700680272	108.76149659863945	56	127
108.76149659863945	108.86598639455782	63	127
108.76149659863945	108.86598639455782	54	127
108.86598639455782	108.95886621315192	53	127
108.86598639455782	108.95886621315192	61	127
108.95886621315192	109.06335600907029	63	127
108.95886621315192	109.06335600907029	54	127
109.06335600907029	109.17945578231293	56	127
109.06335600907029	109.17945578231293	65	127
109.17945578231293	109.2839455782313	63	127
109.17945578231293	109.2839455782313	54	127
109.2839455782313	109.40004535147392	61	127
109.2839455782313	109.40004535147392	53	127
109.40004535147392	109.52775510204081	54	127
109.40004535147392	109.52775510204081	63	127
109.52775510204081	109.63224489795918	65	127
109.52775510204081	109.63224489795918	56	127
109.63224489795918	109.73673469387755	63	127
109.63224489795918	109.73673469387755	54	127
109.73673469387755	110.24757369614512	80	127
109.73673469387755	109.86444444444444	37	127
109.73673469387755	111.18798185941043	60	127
109.73673469387755	111.18798185941043	51	127
109.86444444444444	110.00376417233561	39	127
110.00376417233561	110.11986394557823	37	127
110.11986394557823	110.24757369614512	39	127
110.24757369614512	110.70036281179138	78	127
110.24757369614512	110.3520634920635	37	127
110.3520634920635	110.46816326530612	39	127
110.46816326530612	110.57265306122449	37	127
110.57265306122449	110.70036281179138	39	127
110.70036281179138	110.8512925170068	37	127
110.70036281179138	111.18798185941043	75	127
110.8512925170068	110.97900226757369	39	127
110.97900226757369	111.09510204081633	37	127
111.09510204081633	111.18798185941043	39	127
111.18798185941043	111.30408163265307	37	127
111.18798185941043	111.42018140589569	72	127
111.18798185941043	111.42018140589569	63	127
111.18798185941043	111.42018140589569	54	127
111.30408163265307	111.42018140589569	39	127
111.42018140589569	111.53628117913833	37	127
111.42018140589569	111.64077097505668	80	127
111.42018140589569	111.64077097505668	60	127
111.42018140589569	111.64077097505668	51	127
111.53628117913833	111.64077097505668	39	127
111.64077097505668	111.74526077097505	53	127
111.64077097505668	111.74526077097505	61	127
111.64077097505668	112.2328798185941	80	127
111.64077097505668	113.44031746031746	37	127
111.74526077097505	111.84975056689342	54	127
111.74526077097505	111.84975056689342	63	127
111.84975056689342	111.96585034013606	56	127
111.84975056689342	111.96585034013606	65	127
111.96585034013606	112.03551020408163	63	127
111.96585034013606	112.03551020408163	54	127
112.03551020408163	112.12839002267573	61	127
112.03551020408163	112.12839002267573	53	127
112.12839002267573	112.2328798185941	54	127
112.12839002267573	112.2328798185941	63	127
112.2328798185941	112.6740589569161	68	127
112.2328798185941	112.33736961451247	65	127
112.2328798185941	112.33736961451247	56	127
112.33736961451247	112.44185941043084	54	127
112.33736961451247	112.44185941043084	63	127
112.44185941043084	112.55795918367347	61	127
112.44185941043084	112.55795918367347	53	127
112.55795918367347	112.6740589569161	54	127
112.55795918367347	112.6740589569161	63	127
112.6740589569161	112.90625850340136	68	127
112.6740589569161	112.77854875283447	65	127
112.6740589569161	112.77854875283447	56	127
112.77854875283447	112.90625850340136	54	127
112.77854875283447	112.90625850340136	63	127
112.90625850340136	113.02235827664398	61	127
112.90625850340136	113.02235827664398	53	127
112.90625850340136	113.16167800453515	70	127
113.02235827664398	113.16167800453515	63	127
113.02235827664398	113.16167800453515	54	127
113.16167800453515	113.31260770975057	56	127
113.16167800453515	113.44031746031746	68	127
113.16167800453515	113.31260770975057	65	127
113.31260770975057	113.45192743764173	63	127
113.31260770975057	113.45192743764173	54	127
113.45192743764173	113.89310657596371	68	127
113.45192743764173	113.5564172335601	37	127
113.45192743764173	114.83351473922903	60	127
113.45192743764173	114.83351473922903	51	127
113.5564172335601	113.67251700680272	39	127
113.67251700680272	113.77700680272109	37	127
113.77700680272109	113.89310657596371	39	127
113.89310657596371	114.34589569160998	66	127
113.89310657596371	114.0208163265306	37	127
114.0208163265306	114.13691609977325	39	127
114.13691609977325	114.24140589569161	37	127
114.24140589569161	114.34589569160998	39	127
114.34589569160998	114.4619954648526	37	127
114.34589569160998	114.83351473922903	63	127
114.4619954648526	114.5897052154195	39	127
114.5897052154195	114.69419501133787	37	127
114.69419501133787	114.83351473922903	39	127
114.83351473922903	115.0308843537415	63	127
114.83351473922903	114.94961451247165	37	127
114.83351473922903	115.0308843537415	60	127
114.83351473922903	115.0308843537415	54	127
114.94961451247165	115.04249433106575	39	127
115.04249433106575	115.17020408163265	37	127
115.04249433106575	115.27469387755102	56	127
115.04249433106575	115.27469387755102	60	127
115.04249433106575	115.27469387755102	51	127
115.17020408163265	115.27469387755102	39	127
115.27469387755102	115.59977324263039	37	127
115.27469387755102	115.83197278911565	61	127
115.27469387755102	115.83197278911565	56	127
115.27469387755102	115.83197278911565	53	127
115.59977324263039	115.71587301587302	56	127
115.71587301587302	115.83197278911565	58	127
115.83197278911565	115.94807256235828	56	127
115.94807256235828	116.08739229024944	58	127
116.08739229024944	116.1918820861678	56	127
116.1918820861678	116.34281179138323	58	127
116.34281179138323	116.84204081632653	63	127
116.34281179138323	116.84204081632653	60	127
116.34281179138323	116.84204081632653	56	127
117.51541950113379	117.93337868480725	61	127
117.51541950113379	117.93337868480725	65	127
117.51541950113379	117.93337868480725	49	127
117.74761904761905	117.82888888888888	56	127
117.82888888888888	117.94498866213152	58	127
117.94498866213152	118.02625850340137	56	127
118.02625850340137	118.14235827664399	58	127
118.14235827664399	118.25845804988663	56	127
118.25845804988663	118.35133786848073	58	127
118.35133786848073	118.87378684807257	63	127
118.35133786848073	118.87378684807257	72	127
118.35133786848073	118.87378684807257	56	127
118.35133786848073	118.87378684807257	44	127
119.60521541950114	119.76775510204082	41	127
119.60521541950114	119.86063492063492	65	127
119.60521541950114	121.46281179138322	72	127
119.60521541950114	121.46281179138322	69	127
119.60521541950114	120.95197278911564	72	127
119.60521541950114	121.46281179138322	65	127
119.60521541950114	121.46281179138322	77	127
119.76775510204082	119.87224489795918	43	127
119.87224489795918	119.98834467120182	45	127
119.98834467120182	120.09283446712018	43	127
120.09283446712018	120.25537414965986	41	127
120.31342403628118	120.47596371882086	40	127
120.53401360544218	120.69655328798186	38	127
120.75460317460318	120.91714285714286	36	127
120.97519274376417	121.07968253968254	72	127
120.97519274376417	121.1841723356009	38	127
121.07968253968254	121.25383219954648	73	127
121.25383219954648	121.42798185941044	40	127
121.25383219954648	121.38154195011337	72	127
121.38154195011337	121.48603174603174	70	127
121.48603174603174	121.59052154195011	65	127
121.48603174603174	121.59052154195011	69	127
121.48603174603174	121.91560090702947	41	127
121.48603174603174	121.91560090702947	77	127
121.59052154195011	121.70662131519275	67	127
121.59052154195011	121.70662131519275	70	127
121.70662131519275	121.81111111111112	69	127
121.70662131519275	121.81111111111112	72	127
121.81111111111112	121.91560090702947	67	127
121.81111111111112	121.91560090702947	70	127
121.91560090702947	122.0665306122449	69	127
121.91560090702947	122.32195011337869	81	127
121.91560090702947	122.0665306122449	65	127
122.32195011337869	122.7282993197279	84	127
122.32195011337869	122.42643990929706	65	127
122.32195011337869	122.42643990929706	69	127
122.42643990929706	122.51931972789116	70	127
122.42643990929706	122.51931972789116	67	127
122.51931972789116	122.63541950113378	72	127
122.51931972789116	122.63541950113378	69	127
122.63541950113378	122.73990929705215	70	127
122.63541950113378	122.73990929705215	67	127
122.73990929705215	122.90244897959184	65	127
122.73990929705215	122.90244897959184	69	127
122.73990929705215	123.18108843537415	89	127
123.19269841269842	124.91097505668934	60	127
123.19269841269842	123.29718820861677	51	127
123.19269841269842	123.62226757369615	57	127
123.19269841269842	123.62226757369615	66	127
123.19269841269842	124.49301587301588	75	127
123.19269841269842	124.91097505668934	90	127
123.19269841269842	124.91097505668934	63	127
123.29718820861677	123.40167800453514	53	127
123.40167800453514	123.50616780045351	54	127
123.50616780045351	123.6338775510204	53	127
123.6338775510204	123.79641723356009	51	127
123.85446712018141	124.01700680272108	49	127
124.0750566893424	124.23759637188209	48	127
124.2956462585034	124.44657596371881	46	127
124.50462585034013	124.62072562358277	75	127
124.50462585034013	124.66716553287982	48	127
124.62072562358277	124.72521541950114	77	127
124.72521541950114	124.8297052154195	75	127
124.72521541950114	124.87614512471656	49	127
124.8297052154195	124.93419501133786	73	127
124.93419501133786	125.38698412698413	78	127
124.93419501133786	125.38698412698413	51	127
124.93419501133786	125.0502947845805	72	127
124.93419501133786	125.0502947845805	69	127
125.0502947845805	125.15478458049887	70	127
125.0502947845805	125.15478458049887	73	127
125.15478458049887	125.28249433106576	72	127
125.15478458049887	125.28249433106576	75	127
125.28249433106576	125.38698412698413	73	127
125.28249433106576	125.38698412698413	70	127
125.38698412698413	125.80494331065759	84	127
125.38698412698413	125.56113378684807	72	127
125.38698412698413	125.56113378684807	69	127
125.80494331065759	125.8978231292517	72	127
125.80494331065759	125.8978231292517	69	127
125.80494331065759	126.2112925170068	87	127
125.8978231292517	126.00231292517007	70	127
125.8978231292517	126.00231292517007	73	127
126.00231292517007	126.10680272108844	75	127
126.00231292517007	126.10680272108844	72	127
126.10680272108844	126.2112925170068	70	127
126.10680272108844	126.2112925170068	73	127
126.2112925170068	126.36222222222223	72	127
126.2112925170068	126.36222222222223	69	127
126.2112925170068	126.62925170068027	90	127
126.62925170068027	126.73374149659864	58	127
126.62925170068027	127.85990929705216	61	127
126.62925170068027	128.30108843537414	91	127
126.62925170068027	128.30108843537414	79	127
126.62925170068027	128.30108843537414	64	127
126.62925170068027	128.30108843537414	70	127
126.73374149659864	126.83823129251701	60	127
126.83823129251701	126.94272108843538	61	127
126.94272108843538	127.04721088435375	60	127
127.04721088435375	127.19814058956916	58	127
127.24458049886621	127.39551020408163	56	127
127.45356009070295	127.60448979591837	55	127
127.66253968253969	127.82507936507936	53	127
127.88312925170068	128.0340589569161	55	127
127.88312925170068	127.98761904761905	61	127
127.98761904761905	128.09208616780046	63	127
128.09208616780046	128.19657596371883	61	127
128.09208616780046	128.26625850340136	56	127
128.19657596371883	128.32430839002268	60	127
128.32430839002268	128.42879818594105	67	127
128.32430839002268	128.77709750566893	79	127
128.32430839002268	128.77709750566893	58	127
128.32430839002268	128.42879818594105	58	127
128.42879818594105	128.55650793650793	68	127
128.42879818594105	128.55650793650793	60	127
128.55650793650793	128.67260770975057	70	127
128.55650793650793	128.67260770975057	60	127
128.55650793650793	128.67260770975057	61	127
128.67260770975057	128.7887074829932	60	127
128.67260770975057	128.7887074829932	68	127
128.7887074829932	128.93963718820862	67	127
128.7887074829932	128.93963718820862	58	127
128.7887074829932	128.89319727891157	46	127
128.7887074829932	129.20666666666668	82	127
128.89319727891157	128.99768707482994	48	127
128.99768707482994	129.1021768707483	46	127
129.1021768707483	129.21825396825398	44	127
129.21825396825398	129.3227664399093	43	127
129.21825396825398	129.3227664399093	58	127
129.21825396825398	129.3227664399093	55	127
129.21825396825398	129.61301587301588	88	127
129.3227664399093	129.42725623582766	56	127
129.3227664399093	129.42725623582766	44	127
129.3227664399093	129.42725623582766	60	127
129.42725623582766	129.5085260770975	58	127
129.42725623582766	129.5085260770975	46	127
129.42725623582766	129.5085260770975	61	127
129.5085260770975	129.61301587301588	44	127
129.5085260770975	129.61301587301588	60	127
129.5085260770975	129.61301587301588	56	127
129.61301587301588	129.72909297052155	55	127
129.61301587301588	129.72909297052155	58	127
129.61301587301588	129.72909297052155	43	127
129.61301587301588	130.2631746031746	91	127
129.72909297052155	129.81038548752835	56	127
129.72909297052155	129.81038548752835	44	127
129.72909297052155	129.81038548752835	60	127
129.81038548752835	129.91487528344672	55	127
129.81038548752835	129.91487528344672	43	127
129.81038548752835	129.91487528344672	58	127
129.91487528344672	130.0193650793651	53	127
129.91487528344672	130.0193650793651	41	127
129.91487528344672	130.0193650793651	56	127
130.0193650793651	130.89011337868482	52	127
130.0193650793651	130.89011337868482	40	127
130.0193650793651	130.89011337868482	55	127
130.40249433106575	130.53020408163266	91	127
130.53020408163266	131.1687528344671	79	127
130.89011337868482	130.98299319727892	40	127
130.89011337868482	130.98299319727892	67	127
130.89011337868482	130.98299319727892	55	127
130.98299319727892	131.737641723356	67	127
130.98299319727892	131.737641723356	55	127
130.98299319727892	131.737641723356	40	127
131.28485260770975	131.37773242630385	79	127
131.37773242630385	131.85374149659864	67	127
131.74925170068028	131.85374149659864	67	127
131.74925170068028	131.85374149659864	55	127
131.74925170068028	131.85374149659864	40	127
131.85374149659864	132.56195011337869	56	127
131.85374149659864	132.56195011337869	68	127
131.85374149659864	132.56195011337869	41	127
132.2136507936508	132.35297052154195	77	127
132.35297052154195	132.74770975056688	65	127
132.67804988662132	132.74770975056688	41	127
132.67804988662132	132.74770975056688	68	127
132.67804988662132	132.74770975056688	56	127
132.75931972789115	133.4675283446712	58	127
132.75931972789115	133.4675283446712	70	127
132.75931972789115	133.4675283446712	42	127
133.13083900226758	133.24693877551022	76	127
133.24693877551022	133.66487528344672	64	127
133.56038548752835	133.66487528344672	70	127
133.56038548752835	133.66487528344672	58	127
133.56038548752835	133.66487528344672	42	127
133.67650793650793	134.33827664399092	43	127
133.67650793650793	134.33827664399092	70	127
133.67650793650793	134.33827664399092	58	127
134.0015873015873	134.11768707482995	85	127
134.11768707482995	134.5820634920635	73	127
134.45437641723356	134.5820634920635	70	127
134.45437641723356	134.5820634920635	58	127
134.45437641723356	134.5820634920635	43	127
134.5936961451247	135.2322448979592	58	127
134.5936961451247	135.2322448979592	70	127
134.5936961451247	135.2322448979592	43	127
134.90716553287982	135.01165532879818	73	127
135.01165532879818	135.49927437641725	61	127
135.37156462585034	135.49927437641725	43	127
135.37156462585034	135.49927437641725	70	127
135.37156462585034	135.49927437641725	58	127
135.49927437641725	136.1378231292517	60	127
135.49927437641725	136.1378231292517	72	127
135.49927437641725	136.1378231292517	44	127
135.8243537414966	135.92884353741496	72	127
135.92884353741496	136.38163265306122	60	127
136.25392290249434	136.38163265306122	72	127
136.25392290249434	136.38163265306122	60	127
136.25392290249434	136.38163265306122	44	127
136.38163265306122	137.12467120181407	46	127
136.38163265306122	137.12467120181407	73	127
136.38163265306122	137.12467120181407	61	127
136.81120181405896	136.9273015873016	70	127
136.9273015873016	137.35687074829931	58	127
137.25238095238095	137.35687074829931	61	127
137.25238095238095	137.35687074829931	73	127
137.25238095238095	137.35687074829931	46	127
137.35687074829931	138.181179138322	59	127
137.35687074829931	137.4265306122449	47	127
137.35687074829931	138.181179138322	74	127
137.35687074829931	138.181179138322	62	127
137.4265306122449	137.53102040816327	48	127
137.53102040816327	137.64709750566894	50	127
137.64709750566894	137.76321995464852	48	127
137.64709750566894	137.76321995464852	68	127
137.76321995464852	138.19278911564626	47	127
137.76321995464852	138.19278911564626	56	127
138.20439909297053	138.3088888888889	74	127
138.20439909297053	138.3088888888889	59	127
138.3088888888889	138.41337868480727	75	127
138.3088888888889	138.41337868480727	60	127
138.41337868480727	138.52947845804988	77	127
138.41337868480727	138.52947845804988	62	127
138.52947845804988	138.61074829931974	68	127
138.52947845804988	138.61074829931974	75	127
138.52947845804988	138.61074829931974	60	127
138.61074829931974	139.02868480725624	56	127
138.61074829931974	139.02868480725624	74	127
138.61074829931974	139.02868480725624	59	127
139.04031746031745	140.00392290249434	62	127
139.04031746031745	139.20285714285714	47	127
139.04031746031745	140.00392290249434	62	127
139.04031746031745	140.00392290249434	74	127
139.04031746031745	140.00392290249434	59	127
139.20285714285714	139.31895691609978	48	127
139.31895691609978	139.42344671201815	50	127
139.42344671201815	139.5395238095238	48	127
139.42344671201815	139.5395238095238	68	127
139.5395238095238	140.01555555555555	47	127
139.5395238095238	140.01555555555555	56	127
140.02716553287982	140.1316553287982	74	127
140.02716553287982	140.1316553287982	59	127
140.1316553287982	140.24775510204083	75	127
140.1316553287982	140.24775510204083	60	127
140.24775510204083	140.36385487528344	62	127
140.24775510204083	140.36385487528344	77	127
140.36385487528344	140.47995464852607	75	127
140.36385487528344	140.47995464852607	60	127
140.36385487528344	140.47995464852607	68	127
140.47995464852607	141.09528344671202	59	127
140.47995464852607	141.09528344671202	56	127
140.47995464852607	141.09528344671202	74	127
141.09528344671202	141.23460317460317	68	127
141.23460317460317	141.36231292517007	56	127
141.37392290249434	141.49002267573695	68	127
141.49002267573695	141.62934240362813	56	127
141.64095238095237	141.757052154195	68	127
141.757052154195	141.89637188208616	56	127
141.89637188208616	142.02408163265306	68	127
142.02408163265306	142.12857142857143	56	127
142.1401814058957	142.26789115646258	68	127
142.26789115646258	142.37238095238095	56	127
142.37238095238095	142.46526077097505	68	127
142.46526077097505	142.56975056689342	56	127
142.5813605442177	142.72068027210884	68	127
142.72068027210884	142.83678004535147	56	127
142.83678004535147	142.9528798185941	68	127
142.9528798185941	143.05736961451248	56	127
143.06895691609978	144.7756462585034	50	127
143.06895691609978	143.17344671201815	71	127
143.06895691609978	144.7756462585034	71	127
143.06895691609978	144.7756462585034	79	127
143.06895691609978	144.7756462585034	65	127
143.06895691609978	144.7756462585034	43	127
143.17344671201815	143.27795918367346	59	127
143.27795918367346	143.38244897959183	71	127
143.38244897959183	143.4869387755102	59	127
143.4869387755102	143.60303854875283	71	127
143.60303854875283	143.7075283446712	59	127
143.7075283446712	143.8004081632653	71	127
143.8004081632653	143.90489795918367	59	127
143.90489795918367	144.03260770975058	71	127
144.03260770975058	144.12548752834468	59	127
144.13709750566895	144.24156462585034	71	127
144.24156462585034	144.3460544217687	59	127
144.3460544217687	144.45054421768708	71	127
144.45054421768708	144.5550566893424	59	127
144.56666666666666	144.67115646258503	71	127
144.67115646258503	144.7756462585034	59	127
144.7756462585034	144.88013605442177	82	127
144.7756462585034	146.62163265306123	36	127
144.7756462585034	146.62163265306123	48	127
144.7756462585034	146.62163265306123	70	127
144.7756462585034	146.62163265306123	79	127
144.7756462585034	146.62163265306123	64	127
144.7756462585034	146.62163265306123	73	127
144.88013605442177	144.98462585034014	70	127
144.9962358276644	145.11231292517007	82	127
145.11231292517007	145.21680272108844	70	127
145.21680272108844	145.32131519274375	82	127
145.32131519274375	145.42580498866212	70	127
145.4374149659864	145.54190476190476	82	127
145.54190476190476	145.6580045351474	70	127
145.6580045351474	145.77410430839004	82	127
145.77410430839004	145.89020408163265	70	127
145.89020408163265	146.01791383219955	82	127
146.01791383219955	146.12240362811792	70	127
146.12240362811792	146.2268934240363	82	127
146.2268934240363	146.33138321995466	70	127
146.33138321995466	146.44748299319727	82	127
146.44748299319727	146.62163265306123	70	127
146.6332426303855	146.77256235827664	46	127
146.77256235827664	146.88866213151928	48	127
146.88866213151928	147.01637188208616	49	127
147.01637188208616	147.10922902494332	85	127
147.01637188208616	147.10922902494332	48	127
147.10922902494332	147.50399092970522	73	127
147.10922902494332	147.50399092970522	46	127
147.51557823129252	147.6200680272109	79	127
147.51557823129252	147.6200680272109	58	127
147.51557823129252	148.37473922902495	64	127
147.6200680272109	147.7245804988662	60	127
147.6200680272109	147.7245804988662	80	127
147.7245804988662	147.82907029478457	82	127
147.7245804988662	147.82907029478457	61	127
147.82907029478457	147.9451700680272	73	127
147.82907029478457	147.9451700680272	80	127
147.82907029478457	147.9451700680272	60	127
147.9451700680272	148.37473922902495	61	127
147.9451700680272	148.37473922902495	79	127
147.9451700680272	148.37473922902495	58	127
148.37473922902495	148.49083900226756	44	127
148.49083900226756	148.6069387755102	46	127
148.6069387755102	148.72303854875284	48	127
148.72303854875284	148.8275283446712	46	127
148.72303854875284	148.8275283446712	84	127
148.8275283446712	149.29192743764173	44	127
148.8275283446712	149.29192743764173	72	127
149.29192743764173	149.46607709750566	56	127
149.29192743764173	150.40648526077098	65	127
149.29192743764173	149.46607709750566	77	127
149.46607709750566	149.5821768707483	58	127
149.46607709750566	149.5821768707483	79	127
149.5821768707483	149.69827664399094	80	127
149.5821768707483	149.69827664399094	60	127
149.69827664399094	149.82598639455782	72	127
149.69827664399094	149.82598639455782	79	127
149.69827664399094	149.82598639455782	58	127
149.82598639455782	150.40648526077098	77	127
149.82598639455782	150.40648526077098	56	127
149.82598639455782	150.40648526077098	60	127
150.41809523809525	150.5341723356009	72	127
150.41809523809525	150.5341723356009	48	127
150.5341723356009	150.66190476190476	60	127
150.5341723356009	150.66190476190476	49	127
150.66190476190476	150.7780045351474	51	127
150.66190476190476	150.7780045351474	72	127
150.7780045351474	150.89410430839	60	127
150.7780045351474	150.89410430839	49	127
150.89410430839	151.0334240362812	51	127
150.89410430839	152.17120181405895	48	127
150.89410430839	151.0334240362812	72	127
151.0334240362812	151.13791383219956	53	127
151.0334240362812	151.13791383219956	60	127
151.13791383219956	151.25401360544217	55	127
151.13791383219956	151.25401360544217	72	127
151.25401360544217	151.35850340136054	53	127
151.25401360544217	151.34687074829932	60	127
151.35850340136054	151.73002267573696	84	127
151.35850340136054	151.4629931972789	72	127
151.35850340136054	152.17120181405895	51	127
151.4629931972789	151.55585034013606	60	127
151.55585034013606	151.66036281179137	72	127
151.66036281179137	151.73002267573696	60	127
151.74163265306123	151.8461224489796	72	127
151.74163265306123	152.17120181405895	72	127
151.8461224489796	151.95061224489797	60	127
151.95061224489797	152.05510204081634	72	127
152.05510204081634	152.17120181405895	60	127
152.18281179138322	152.32210884353742	53	127
152.18281179138322	152.32210884353742	72	127
152.18281179138322	153.08836734693878	73	127
152.18281179138322	153.20448979591836	41	127
152.32210884353742	152.4265986394558	55	127
152.32210884353742	152.4265986394558	60	127
152.4265986394558	152.5311111111111	72	127
152.4265986394558	152.5311111111111	56	127
152.5311111111111	152.63560090702947	55	127
152.5311111111111	152.62399092970523	60	127
152.63560090702947	152.74009070294784	72	127
152.63560090702947	153.08836734693878	53	127
152.74009070294784	152.87941043083902	60	127
152.87941043083902	152.9838775510204	72	127
152.9838775510204	153.08836734693878	60	127
153.1	153.20448979591836	72	127
153.1	153.5063492063492	71	127
153.1	153.5063492063492	74	127
153.20448979591836	153.28575963718822	60	127
153.20448979591836	153.29736961451246	43	127
153.29736961451246	153.40185941043083	72	127
153.29736961451246	153.40185941043083	44	127
153.40185941043083	153.5063492063492	60	127
153.40185941043083	153.51795918367347	41	127
153.51795918367347	153.99396825396826	72	127
153.51795918367347	153.62244897959184	72	127
153.51795918367347	153.99396825396826	76	127
153.51795918367347	153.99396825396826	36	127
153.62244897959184	153.75013605442177	60	127
153.75013605442177	153.86625850340135	72	127
153.86625850340135	153.99396825396826	60	127
153.99396825396826	154.12167800453514	48	127
153.99396825396826	154.12167800453514	72	127
154.12167800453514	154.23777777777778	60	127
154.12167800453514	154.23777777777778	49	127
154.23777777777778	154.35387755102042	72	127
154.23777777777778	154.35387755102042	51	127
154.35387755102042	154.4583673469388	60	127
154.35387755102042	154.46995464852608	49	127
154.46995464852608	155.87478458049887	48	127
154.46995464852608	154.55124716553289	72	127
154.46995464852608	154.55124716553289	51	127
154.55124716553289	154.65573696145125	53	127
154.55124716553289	154.65573696145125	60	127
154.65573696145125	154.76022675736962	72	127
154.65573696145125	154.76022675736962	55	127
154.76022675736962	154.864716553288	60	127
154.76022675736962	154.8763038548753	53	127
154.8763038548753	154.99242630385487	72	127
154.8763038548753	155.39877551020408	84	127
154.8763038548753	155.87478458049887	51	127
154.99242630385487	155.12013605442178	60	127
155.12013605442178	155.2942857142857	72	127
155.2942857142857	155.39877551020408	60	127
155.39877551020408	155.87478458049887	72	127
155.39877551020408	155.5148752834467	72	127
155.5148752834467	155.61936507936508	60	127
155.61936507936508	155.73546485260772	72	127
155.73546485260772	155.87478458049887	60	127
155.87478458049887	156.94290249433107	41	127
155.87478458049887	156.04893424036283	72	127
155.87478458049887	156.04893424036283	53	127
155.87478458049887	156.82680272108843	73	127
156.04893424036283	156.15340136054422	55	127
156.04893424036283	156.14181405895692	60	127
156.15340136054422	156.2695238095238	72	127
156.15340136054422	156.2695238095238	56	127
156.2695238095238	156.37401360544217	60	127
156.2695238095238	156.37401360544217	55	127
156.37401360544217	156.51331065759638	72	127
156.37401360544217	156.82680272108843	53	127
156.51331065759638	156.60621315192745	60	127
156.61780045351475	156.72231292517006	72	127
156.72231292517006	156.82680272108843	60	127
156.82680272108843	156.94290249433107	72	127
156.82680272108843	157.3144217687075	74	127
156.82680272108843	157.3144217687075	71	127
156.94290249433107	157.0590022675737	43	127
156.94290249433107	157.04739229024943	60	127
157.0590022675737	157.18671201814058	72	127
157.0590022675737	157.18671201814058	44	127
157.18671201814058	157.3144217687075	41	127
157.18671201814058	157.3144217687075	60	127
157.3144217687075	157.83687074829933	72	127
157.3144217687075	157.4653514739229	72	127
157.3144217687075	157.83687074829933	84	127
157.3144217687075	157.83687074829933	76	127
157.4653514739229	157.58145124716555	60	127
157.5930612244898	157.73238095238096	72	127
157.73238095238096	157.83687074829933	60	127
157.83687074829933	158.70761904761906	37	127
157.83687074829933	157.94133786848073	72	127
157.83687074829933	158.70761904761906	84	127
157.94133786848073	158.06907029478458	60	127
158.06907029478458	158.24321995464854	65	127
158.06907029478458	158.18517006802722	72	127
158.18517006802722	158.30124716553289	60	127
158.30124716553289	158.40573696145125	72	127
158.30124716553289	158.40573696145125	53	127
158.40573696145125	158.51024943310657	55	127
158.40573696145125	158.51024943310657	60	127
158.51024943310657	158.6263492063492	56	127
158.51024943310657	158.6263492063492	72	127
158.6263492063492	158.7192290249433	60	127
158.6263492063492	158.73083900226757	53	127
158.73083900226757	159.63641723356008	40	127
158.73083900226757	158.83532879818594	72	127
158.73083900226757	159.63641723356008	82	127
158.83532879818594	158.95142857142858	60	127
158.96303854875285	159.1255782312925	67	127
158.96303854875285	159.06750566893425	72	127
159.06750566893425	159.1719954648526	60	127
159.18362811791383	159.29972789115646	72	127
159.18362811791383	159.29972789115646	55	127
159.29972789115646	159.4158276643991	56	127
159.29972789115646	159.40421768707483	60	127
159.4158276643991	159.53190476190477	58	127
159.4158276643991	159.53190476190477	72	127
159.53190476190477	159.65963718820862	60	127
159.53190476190477	159.65963718820862	55	127
159.65963718820862	159.764126984127	53	127
159.65963718820862	159.764126984127	65	127
159.65963718820862	159.764126984127	41	127
159.764126984127	159.88022675736963	43	127
159.764126984127	159.88022675736963	67	127
159.764126984127	159.88022675736963	55	127
159.88022675736963	159.97310657596373	56	127
159.88022675736963	159.97310657596373	68	127
159.88022675736963	159.97310657596373	44	127
159.97310657596373	160.0775963718821	67	127
159.97310657596373	160.0775963718821	55	127
159.97310657596373	160.0775963718821	43	127
160.0775963718821	160.21691609977324	65	127
160.0775963718821	160.21691609977324	53	127
160.0775963718821	160.21691609977324	41	127
160.29816326530613	160.46072562358276	63	127
160.29816326530613	160.46072562358276	51	127
160.29816326530613	160.46072562358276	39	127
160.54199546485262	160.69292517006804	61	127
160.54199546485262	160.69292517006804	49	127
160.54199546485262	160.69292517006804	37	127
160.77419501133787	160.92512471655328	60	127
160.77419501133787	160.92512471655328	48	127
160.77419501133787	160.92512471655328	36	127
160.99478458049887	161.12249433106575	62	127
160.99478458049887	161.12249433106575	50	127
160.99478458049887	161.12249433106575	38	127
161.19215419501134	161.34308390022676	64	127
161.19215419501134	161.34308390022676	52	127
161.19215419501134	161.34308390022676	40	127
161.3895238095238	161.61011337868482	65	127
161.3895238095238	161.61011337868482	53	127
161.3895238095238	161.61011337868482	41	127
163.31678004535146	163.45609977324264	65	127
163.31678004535146	163.45609977324264	53	127
163.31678004535146	163.45609977324264	41	127
163.45609977324264	163.560589569161	67	127
163.45609977324264	163.560589569161	55	127
163.45609977324264	163.560589569161	43	127
163.560589569161	163.6882993197279	68	127
163.560589569161	163.6882993197279	56	127
163.560589569161	163.6882993197279	44	127
163.6882993197279	163.79278911564626	67	127
163.6882993197279	163.79278911564626	55	127
163.6882993197279	163.79278911564626	43	127
163.79278911564626	164.01337868480726	65	127
163.79278911564626	164.01337868480726	53	127
163.79278911564626	164.01337868480726	41	127
164.222358276644	164.30362811791383	66	127
164.222358276644	164.30362811791383	54	127
164.222358276644	164.30362811791383	42	127
164.30362811791383	164.4081179138322	68	127
164.30362811791383	164.4081179138322	56	127
164.30362811791383	164.4081179138322	44	127
164.4081179138322	164.52421768707484	70	127
164.4081179138322	164.52421768707484	58	127
164.4081179138322	164.52421768707484	46	127
164.52421768707484	164.6287074829932	68	127
164.52421768707484	164.6287074829932	56	127
164.52421768707484	164.6287074829932	44	127
164.6287074829932	164.86090702947845	66	127
164.6287074829932	164.86090702947845	54	127
164.6287074829932	164.86090702947845	42	127
165.08149659863946	165.18598639455783	67	127
165.08149659863946	165.18598639455783	55	127
165.08149659863946	165.18598639455783	43	127
165.18598639455783	165.3136961451247	68	127
165.18598639455783	165.3136961451247	56	127
165.18598639455783	165.3136961451247	44	127
165.3136961451247	165.41818594104308	70	127
165.3136961451247	165.41818594104308	58	127
165.3136961451247	165.41818594104308	46	127
165.41818594104308	165.52267573696145	72	127
165.41818594104308	165.52267573696145	60	127
165.41818594104308	165.52267573696145	48	127
165.52267573696145	165.62716553287981	73	127
165.52267573696145	165.62716553287981	61	127
165.52267573696145	165.62716553287981	49	127
165.62716553287981	165.75487528344672	75	127
165.62716553287981	165.75487528344672	63	127
165.62716553287981	165.75487528344672	51	127
165.75487528344672	165.87097505668933	73	127
165.75487528344672	165.87097505668933	61	127
165.75487528344672	165.87097505668933	49	127
165.87097505668933	165.96385487528346	72	127
165.87097505668933	165.96385487528346	60	127
165.87097505668933	165.96385487528346	48	127
165.96385487528346	166.05673469387756	58	127
165.96385487528346	166.05673469387756	46	127
165.96385487528346	166.05673469387756	70	127
166.05673469387756	166.14961451247166	72	127
166.05673469387756	166.14961451247166	60	127
166.05673469387756	166.14961451247166	48	127
166.14961451247166	166.24249433106576	70	127
166.14961451247166	166.24249433106576	58	127
166.14961451247166	166.24249433106576	46	127
166.24249433106576	166.33537414965986	68	127
166.24249433106576	166.33537414965986	56	127
166.24249433106576	166.33537414965986	44	127
166.33537414965986	166.43986394557822	67	127
166.33537414965986	166.43986394557822	55	127
166.33537414965986	166.43986394557822	43	127
166.43986394557822	166.55596371882086	53	127
166.43986394557822	166.55596371882086	65	127
166.43986394557822	166.55596371882086	41	127
166.55596371882086	166.6720634920635	63	127
166.55596371882086	166.6720634920635	51	127
166.55596371882086	166.6720634920635	39	127
166.6720634920635	166.8346031746032	61	127
166.6720634920635	166.8346031746032	49	127
166.6720634920635	166.8346031746032	37	127
166.8346031746032	167.5195918367347	60	127
166.8346031746032	167.5195918367347	48	127
166.8346031746032	167.5195918367347	36	127
167.1712925170068	167.5195918367347	68	127
167.53120181405896	168.44839002267574	80	127
167.97238095238095	168.44839002267574	60	127
167.97238095238095	168.44839002267574	56	127
168.44839002267574	168.68056689342404	61	127
168.44839002267574	168.68056689342404	58	127
168.44839002267574	168.93598639455783	78	127
168.68056689342404	168.93598639455783	63	127
168.68056689342404	168.93598639455783	60	127
168.93598639455783	172.8601814058957	61	127
168.93598639455783	169.42362811791384	77	127
168.93598639455783	169.42362811791384	65	127
168.93598639455783	169.42362811791384	49	127
169.42362811791384	169.67904761904762	51	127
169.42362811791384	169.67904761904762	73	127
169.42362811791384	169.67904761904762	66	127
169.67904761904762	169.98090702947846	68	127
169.67904761904762	169.98090702947846	53	127
169.67904761904762	169.98090702947846	72	127
169.98090702947846	171.59467120181407	70	127
169.98090702947846	171.59467120181407	54	127
169.98090702947846	170.48013605442176	70	127
170.48013605442176	172.8601814058957	63	127
171.59467120181407	172.18680272108844	56	127
171.59467120181407	172.18680272108844	68	127
172.18680272108844	172.8601814058957	67	127
172.18680272108844	172.8601814058957	57	127
172.8601814058957	173.55678004535147	68	127
172.8601814058957	173.55678004535147	63	127
172.8601814058957	173.55678004535147	60	127
172.8601814058957	173.55678004535147	56	127
173.55678004535147	175.2170068027211	65	127
173.55678004535147	175.2170068027211	56	127
173.55678004535147	175.4724263038549	49	127
173.55678004535147	176.63342403628118	68	127
175.2170068027211	175.75106575963719	56	127
175.48403628117913	175.6233560090703	53	127
175.63496598639455	175.75106575963719	54	127
175.75106575963719	176.33156462585035	56	127
175.75106575963719	176.20385487528344	65	127
176.20385487528344	176.63342403628118	56	127
176.34317460317462	176.48249433106577	60	127
176.49410430839004	176.63342403628118	61	127
176.63342403628118	178.0846485260771	80	127
176.63342403628118	177.0978231292517	66	127
176.63342403628118	177.2255328798186	63	127
177.0978231292517	177.46931972789116	56	127
177.23714285714286	177.376462585034	62	127
177.38807256235827	177.46931972789116	63	127
177.46931972789116	177.597052154195	66	127
177.46931972789116	177.77120181405897	61	127
177.597052154195	178.0846485260771	48	127
177.597052154195	178.0846485260771	56	127
177.7828117913832	177.9221315192744	60	127
177.93371882086169	178.0846485260771	58	127
178.0846485260771	178.58390022675738	56	127
178.0846485260771	178.7348299319728	49	127
178.0846485260771	179.75650793650794	80	127
178.0846485260771	178.58390022675738	65	127
178.58390022675738	179.10632653061225	56	127
178.58390022675738	179.10632653061225	61	127
178.7464172335601	178.920589569161	53	127
178.93219954648526	179.10632653061225	54	127
179.10632653061225	179.75650793650794	65	127
179.10632653061225	179.75650793650794	61	127
179.10632653061225	179.91904761904763	56	127
179.75650793650794	180.25573696145125	89	127
179.75650793650794	180.25573696145125	56	127
179.75650793650794	180.25573696145125	61	127
179.93065759637187	180.09319727891156	60	127
180.10480725623583	180.25573696145125	61	127
180.25573696145125	180.685306122449	89	127
180.25573696145125	180.685306122449	65	127
180.25573696145125	180.685306122449	65	127
180.25573696145125	180.685306122449	60	127
180.685306122449	181.19614512471657	60	127
180.685306122449	181.19614512471657	87	127
180.685306122449	181.19614512471657	57	127
180.685306122449	181.19614512471657	53	127
181.19614512471657	181.85791383219956	53	127
181.19614512471657	181.85791383219956	85	127
181.19614512471657	181.85791383219956	58	127
181.19614512471657	181.85791383219956	58	127
181.85791383219956	182.39197278911564	55	127
181.85791383219956	182.39197278911564	52	127
181.85791383219956	182.0901133786848	70	127
181.85791383219956	182.39197278911564	84	127
181.85791383219956	182.39197278911564	52	127
182.0901133786848	182.39197278911564	67	127
182.39197278911564	182.9724716553288	53	127
182.39197278911564	183.2511111111111	57	127
182.39197278911564	183.2511111111111	65	127
182.39197278911564	184.80684807256236	53	127
182.39197278911564	184.80684807256236	57	127
182.39197278911564	186.43224489795918	84	127
182.9724716553288	183.68068027210884	48	127
183.2511111111111	183.42526077097506	69	127
183.42526077097506	183.68068027210884	70	127
183.68068027210884	184.24956916099774	57	127
183.68068027210884	184.4469387755102	72	127
184.24956916099774	184.80684807256236	48	127
184.4469387755102	184.6094784580499	76	127
184.6094784580499	184.80684807256236	77	127
184.80684807256236	187.01274376417234	55	127
184.80684807256236	185.3408843537415	58	127
184.80684807256236	185.5150566893424	79	127
184.80684807256236	187.01274376417234	52	127
185.3408843537415	185.81691609977324	48	127
185.5150566893424	185.66598639455782	78	127
185.66598639455782	185.81691609977324	79	127
185.81691609977324	186.43224489795918	58	127
185.81691609977324	186.5831746031746	77	127
186.43224489795918	187.01274376417234	48	127
186.43224489795918	187.01274376417234	84	127
186.5831746031746	186.74571428571429	76	127
186.74571428571429	187.01274376417234	74	127
187.01274376417234	187.54680272108843	57	127
187.01274376417234	187.54680272108843	57	127
187.01274376417234	187.74414965986395	53	127
187.01274376417234	188.78907029478458	84	127
187.01274376417234	187.54680272108843	72	127
187.54680272108843	188.1040589569161	48	127
187.54680272108843	189.26507936507937	57	127
187.54680272108843	189.26507936507937	65	127
187.74414965986395	187.91832199546485	57	127
187.91832199546485	188.1040589569161	60	127
188.1040589569161	188.78907029478458	57	127
188.1040589569161	188.96321995464854	65	127
188.78907029478458	189.26507936507937	48	127
188.78907029478458	189.26507936507937	93	127
188.96321995464854	189.11414965986395	69	127
189.11414965986395	189.26507936507937	70	127
189.26507936507937	189.78752834467122	58	127
189.26507936507937	189.78752834467122	93	127
189.26507936507937	189.95006802721088	72	127
189.26507936507937	191.4825850340136	55	127
189.26507936507937	191.4825850340136	64	127
189.78752834467122	190.2519274376417	48	127
189.78752834467122	190.2519274376417	91	127
189.95006802721088	190.08938775510205	71	127
190.08938775510205	190.2519274376417	72	127
190.2519274376417	191.01818594104307	60	127
190.2519274376417	190.83242630385487	58	127
190.2519274376417	190.83242630385487	89	127
190.83242630385487	191.4825850340136	48	127
190.83242630385487	191.4825850340136	88	127
191.01818594104307	191.30843537414967	59	127
191.30843537414967	191.4825850340136	60	127
191.4825850340136	191.97020408163266	48	127
191.4825850340136	192.12113378684808	65	127
191.4825850340136	191.97020408163266	89	127
191.4825850340136	191.97020408163266	57	127
191.4825850340136	191.97020408163266	60	127
191.97020408163266	193.61882086167802	57	127
191.97020408163266	192.59714285714287	36	127
191.97020408163266	193.11959183673468	84	127
191.97020408163266	193.61882086167802	53	127
192.12113378684808	192.3301133786848	69	127
192.3301133786848	192.59714285714287	70	127
192.59714285714287	193.11959183673468	48	127
192.59714285714287	193.2705215419501	72	127
193.11959183673468	193.61882086167802	84	127
193.11959183673468	193.61882086167802	36	127
193.2705215419501	193.45628117913833	76	127
193.45628117913833	193.61882086167802	77	127
193.61882086167802	193.68848072562358	84	127
193.61882086167802	194.09482993197278	48	127
193.61882086167802	194.2457596371882	79	127
193.61882086167802	195.11650793650793	52	127
193.61882086167802	195.11650793650793	58	127
193.68848072562358	193.80458049886622	86	127
193.80458049886622	193.8742403628118	84	127
193.8742403628118	193.94390022675736	86	127
193.94390022675736	194.02517006802722	84	127
194.02517006802722	194.09482993197278	86	127
194.09482993197278	194.16448979591837	84	127
194.09482993197278	194.6288888888889	36	127
194.16448979591837	194.2457596371882	86	127
194.2457596371882	194.38507936507938	84	127
194.2457596371882	194.45473922902494	78	127
194.38507936507938	194.45473922902494	86	127
194.45473922902494	194.6288888888889	79	127
194.45473922902494	194.54761904761904	84	127
194.54761904761904	194.6288888888889	86	127
194.6288888888889	195.2906575963719	77	127
194.6288888888889	194.69854875283445	84	127
194.6288888888889	195.11650793650793	48	127
194.69854875283445	194.80303854875282	86	127
194.80303854875282	194.8726984126984	84	127
194.8726984126984	194.9655782312925	86	127
194.9655782312925	195.04684807256237	84	127
195.04684807256237	195.11650793650793	86	127
195.11650793650793	195.8827664399093	55	127
195.11650793650793	195.18616780045352	84	127
195.11650793650793	195.8827664399093	36	127
195.11650793650793	195.8827664399093	52	127
195.18616780045352	195.2906575963719	86	127
195.2906575963719	195.42997732426304	84	127
195.2906575963719	195.56929705215418	76	127
195.42997732426304	195.65056689342404	83	127
195.56929705215418	195.8827664399093	74	127
195.65056689342404	195.8827664399093	84	127
195.8827664399093	196.3819954648526	72	127
195.8827664399093	196.3819954648526	53	127
195.8827664399093	196.3819954648526	57	127
195.8827664399093	196.53292517006804	41	127
195.8827664399093	197.15986394557822	84	127
196.3819954648526	196.53292517006804	57	127
196.3819954648526	196.53292517006804	48	127
196.53292517006804	196.74190476190475	45	127
196.53292517006804	196.74190476190475	60	127
196.53292517006804	196.74190476190475	53	127
196.74190476190475	196.8928344671202	48	127
196.74190476190475	196.8928344671202	65	127
196.74190476190475	196.8928344671202	57	127
196.8928344671202	197.60104308390024	53	127
196.8928344671202	197.42689342403628	69	127
196.8928344671202	197.42689342403628	60	127
197.15986394557822	197.3224036281179	89	127
197.42689342403628	197.60104308390024	69	127
197.42689342403628	197.61265306122448	93	127
197.42689342403628	197.8912925170068	65	127
197.60104308390024	197.74036281179139	70	127
197.60104308390024	197.74036281179139	55	127
197.6707029478458	198.37891156462584	96	127
197.74036281179139	197.8912925170068	57	127
197.74036281179139	197.8912925170068	72	127
197.8912925170068	198.37891156462584	74	127
197.8912925170068	198.37891156462584	62	127
197.8912925170068	198.52984126984126	58	127
198.37891156462584	198.52984126984126	62	127
198.37891156462584	199.31931972789116	74	127
198.37891156462584	198.52984126984126	96	127
198.52984126984126	198.66916099773243	94	127
198.52984126984126	198.66916099773243	64	127
198.52984126984126	198.66916099773243	60	127
198.66916099773243	198.82009070294785	62	127
198.66916099773243	198.82009070294785	93	127
198.66916099773243	198.82009070294785	65	127
198.82009070294785	199.0290702947846	93	127
198.82009070294785	199.47024943310657	58	127
199.0290702947846	199.16839002267574	91	127
199.16839002267574	199.31931972789116	89	127
199.31931972789116	199.47024943310657	62	127
199.31931972789116	199.7721088435374	74	127
199.31931972789116	199.47024943310657	89	127
199.47024943310657	199.60956916099772	88	127
199.47024943310657	199.60956916099772	64	127
199.47024943310657	199.60956916099772	60	127
199.60956916099772	199.7721088435374	86	127
199.60956916099772	199.7721088435374	62	127
199.60956916099772	199.7721088435374	65	127
199.7721088435374	200.35260770975057	60	127
199.7721088435374	200.19006802721088	64	127
199.7721088435374	199.92303854875283	86	127
199.92303854875283	200.05074829931974	84	127
200.05074829931974	200.19006802721088	83	127
200.19006802721088	200.35260770975057	64	127
200.19006802721088	201.16530612244898	76	127
200.19006802721088	200.35260770975057	86	127
200.35260770975057	200.51514739229026	84	127
200.35260770975057	200.51514739229026	65	127
200.35260770975057	200.51514739229026	62	127
200.51514739229026	200.70090702947846	82	127
200.51514739229026	200.70090702947846	64	127
200.51514739229026	200.70090702947846	67	127
200.70090702947846	200.85183673469388	82	127
200.70090702947846	201.33945578231294	61	127
200.85183673469388	200.99115646258502	81	127
200.99115646258502	201.16530612244898	80	127
201.16530612244898	201.33945578231294	82	127
201.16530612244898	201.33945578231294	64	127
201.16530612244898	201.67614512471656	76	127
201.33945578231294	201.5019954648526	65	127
201.33945578231294	201.5019954648526	81	127
201.33945578231294	201.5019954648526	62	127
201.5019954648526	201.67614512471656	67	127
201.5019954648526	201.67614512471656	64	127
201.5019954648526	201.67614512471656	79	127
201.67614512471656	202.33791383219955	62	127
201.67614512471656	201.83868480725624	79	127
201.67614512471656	202.1289342403628	65	127
201.83868480725624	201.9780045351474	77	127
201.9780045351474	202.1289342403628	76	127
202.1289342403628	202.33791383219955	77	127
202.1289342403628	202.33791383219955	65	127
202.1289342403628	202.33791383219955	71	127
202.33791383219955	202.4772335600907	72	127
202.33791383219955	202.4772335600907	76	127
202.33791383219955	202.4772335600907	67	127
202.33791383219955	202.4772335600907	64	127
202.4772335600907	202.66299319727892	65	127
202.4772335600907	202.66299319727892	74	127
202.4772335600907	202.66299319727892	74	127
202.4772335600907	202.66299319727892	68	127
202.66299319727892	203.30154195011337	62	127
202.66299319727892	202.82553287981858	76	127
202.66299319727892	203.1390022675737	65	127
202.82553287981858	202.976462585034	74	127
202.976462585034	203.1390022675737	72	127
203.1390022675737	203.30154195011337	74	127
203.1390022675737	203.30154195011337	65	127
203.1390022675737	203.30154195011337	71	127
203.30154195011337	203.46408163265306	72	127
203.30154195011337	203.46408163265306	67	127
203.30154195011337	203.46408163265306	72	127
203.30154195011337	203.46408163265306	64	127
203.46408163265306	203.63823129251702	68	127
203.46408163265306	203.63823129251702	74	127
203.46408163265306	203.63823129251702	65	127
203.46408163265306	203.63823129251702	71	127
203.63823129251702	204.02136054421769	67	127
203.63823129251702	203.77755102040817	71	127
203.63823129251702	204.00975056689342	67	127
203.63823129251702	204.02136054421769	64	127
203.77755102040817	203.90526077097505	72	127
203.90526077097505	204.02136054421769	70	127
204.02136054421769	204.16068027210883	55	127
204.16068027210883	205.63514739229024	79	127
204.16068027210883	204.2651700680272	70	127
204.16068027210883	205.13591836734693	52	127
204.16068027210883	205.63514739229024	70	127
204.16068027210883	207.7829931972789	43	127
204.16068027210883	207.7829931972789	36	127
204.32321995464852	204.46253968253967	55	127
204.46253968253967	204.60185941043085	72	127
204.60185941043085	204.69473922902495	70	127
204.72956916099773	204.89210884353741	55	127
204.89210884353741	205.03142857142856	72	127
205.03142857142856	205.13591836734693	70	127
205.13591836734693	205.2404081632653	53	127
205.17074829931974	205.3681179138322	55	127
205.2404081632653	205.402947845805	55	127
205.3681179138322	205.5306575963719	72	127
205.402947845805	205.5306575963719	53	127
205.5306575963719	207.7829931972789	52	127
205.5306575963719	205.63514739229024	70	127
205.63514739229024	205.75124716553287	81	127
205.66997732426304	205.83251700680273	55	127
205.75124716553287	205.87895691609978	82	127
205.83251700680273	205.97183673469388	72	127
205.87895691609978	205.98344671201815	81	127
205.98344671201815	206.11115646258503	79	127
205.98344671201815	206.11115646258503	70	127
206.11115646258503	206.25047619047618	81	127
206.18081632653062	206.32013605442177	55	127
206.25047619047618	206.37818594104309	82	127
206.32013605442177	206.47106575963718	72	127
206.37818594104309	206.48267573696145	81	127
206.48267573696145	206.5987755102041	70	127
206.48267573696145	206.5987755102041	79	127
206.5987755102041	206.70326530612246	81	127
206.63360544217687	206.7845351473923	55	127
206.70326530612246	206.81936507936507	82	127
206.7845351473923	206.9354648526077	72	127
206.81936507936507	206.94707482993198	81	127
206.94707482993198	207.05156462585035	79	127
206.94707482993198	207.05156462585035	70	127
207.05156462585035	207.15605442176872	81	127
207.08639455782313	207.22571428571428	55	127
207.15605442176872	207.26054421768708	82	127
207.22571428571428	207.36503401360545	72	127
207.26054421768708	207.3766439909297	81	127
207.3766439909297	207.67850340136056	79	127
207.3766439909297	207.48113378684806	71	127
207.48113378684806	207.5740136054422	72	127
207.5740136054422	207.67850340136056	70	127
207.67850340136056	207.79460317460317	55	127
207.79460317460317	209.3271201814059	79	127
207.79460317460317	210.5461678004535	36	127
207.79460317460317	208.89755102040817	52	127
207.79460317460317	207.89909297052154	70	127
207.79460317460317	209.3271201814059	70	127
207.79460317460317	210.5461678004535	43	127
207.95714285714286	208.11968253968254	55	127
208.11968253968254	208.2590022675737	72	127
208.2590022675737	208.39832199546484	70	127
208.44476190476192	208.61891156462585	55	127
208.61891156462585	208.76984126984127	72	127
208.76984126984127	208.8859410430839	70	127
208.89755102040817	209.01365079365078	53	127
208.93238095238095	209.08331065759637	55	127
209.01365079365078	209.11814058956915	55	127
209.08331065759637	209.22263038548752	72	127
209.11814058956915	209.22263038548752	53	127
209.22263038548752	210.5461678004535	52	127
209.22263038548752	209.3271201814059	70	127
209.3271201814059	209.44321995464853	81	127
209.37356009070294	209.52448979591836	55	127
209.44321995464853	209.55931972789116	82	127
209.52448979591836	209.66380952380953	72	127
209.55931972789116	209.66380952380953	81	127
209.66380952380953	209.7682993197279	79	127
209.66380952380953	209.7682993197279	70	127
209.7682993197279	209.89600907029478	81	127
209.80312925170068	209.96566893424037	55	127
209.89600907029478	209.98888888888888	82	127
209.96566893424037	210.09337868480725	72	127
209.98888888888888	210.09337868480725	81	127
210.09337868480725	210.19786848072562	70	127
210.09337868480725	210.19786848072562	79	127
210.19786848072562	210.32557823129252	81	127
210.24430839002267	210.39523809523808	55	127
210.32557823129252	210.4300680272109	82	127
210.39523809523808	210.5461678004535	72	127
210.4300680272109	210.5461678004535	81	127
210.5461678004535	210.68548752834468	60	127
210.5461678004535	210.75514739229024	84	127
210.5461678004535	210.75514739229024	48	127
210.5461678004535	210.75514739229024	36	127
210.68548752834468	210.81319727891156	72	127
210.81319727891156	210.9989569160998	49	127
210.81319727891156	210.9525170068027	61	127
210.81319727891156	210.9989569160998	73	127
210.81319727891156	210.9989569160998	37	127
210.9525170068027	211.1498866213152	73	127
211.1498866213152	211.405306122449	62	127
211.1498866213152	211.405306122449	74	127
211.1498866213152	211.405306122449	50	127
211.1498866213152	211.405306122449	38	127
211.405306122449	211.5562358276644	64	127
211.405306122449	211.5562358276644	52	127
211.5562358276644	211.66072562358278	66	127
211.5562358276644	211.66072562358278	54	127
211.66072562358278	211.76521541950115	67	127
211.66072562358278	211.76521541950115	55	127
211.76521541950115	211.86970521541951	69	127
211.76521541950115	211.86970521541951	57	127
211.86970521541951	211.98580498866212	58	127
211.86970521541951	211.98580498866212	70	127
211.98580498866212	212.0902947845805	60	127
211.98580498866212	212.0902947845805	72	127
212.0902947845805	212.34571428571428	38	127
212.0902947845805	212.2180045351474	62	127
212.0902947845805	212.34571428571428	74	127
212.0902947845805	212.34571428571428	62	127
212.2180045351474	212.34571428571428	50	127
212.34571428571428	212.4966439909297	64	127
212.34571428571428	212.4966439909297	76	127
212.34571428571428	212.4966439909297	52	127
212.34571428571428	212.4966439909297	40	127
212.4966439909297	212.61274376417234	78	127
212.4966439909297	212.61274376417234	66	127
212.4966439909297	212.61274376417234	54	127
212.4966439909297	212.61274376417234	42	127
212.61274376417234	212.70562358276644	79	127
212.61274376417234	212.70562358276644	67	127
212.61274376417234	212.70562358276644	55	127
212.61274376417234	212.70562358276644	43	127
212.70562358276644	212.82172335600907	57	127
212.70562358276644	212.82172335600907	81	127
212.70562358276644	212.82172335600907	69	127
212.70562358276644	212.82172335600907	45	127
212.82172335600907	212.9378231292517	82	127
212.82172335600907	212.9378231292517	70	127
212.82172335600907	212.9378231292517	58	127
212.82172335600907	212.9378231292517	46	127
212.9378231292517	213.08875283446713	84	127
212.9378231292517	213.08875283446713	72	127
212.9378231292517	213.08875283446713	60	127
212.9378231292517	213.08875283446713	48	127
213.08875283446713	213.42544217687075	86	127
213.08875283446713	213.42544217687075	74	127
213.08875283446713	213.42544217687075	62	127
213.08875283446713	213.42544217687075	50	127
213.70408163265307	214.38907029478457	91	127
213.70408163265307	214.38907029478457	79	127
213.70408163265307	214.38907029478457	67	127
213.70408163265307	214.38907029478457	55	127
215.63133786848073	216.1421768707483	90	127
215.63133786848073	216.1421768707483	78	127
216.1653968253968	217.2102947845805	91	127
216.1653968253968	217.2102947845805	79	127
216.1653968253968	217.2102947845805	62	127
216.1653968253968	217.7443537414966	58	127
217.2102947845805	217.7443537414966	70	127
217.2102947845805	217.7443537414966	86	127
217.2102947845805	217.7443537414966	74	127
217.7443537414966	218.41773242630384	86	127
217.7443537414966	218.41773242630384	74	127
218.41773242630384	219.23043083900228	85	127
218.41773242630384	219.23043083900228	73	127
218.76603174603176	219.23043083900228	65	127
218.76603174603176	219.23043083900228	69	127
218.76603174603176	219.23043083900228	60	127
219.23043083900228	219.7528798185941	84	127
219.23043083900228	219.7528798185941	72	127
219.23043083900228	219.7528798185941	67	127
219.23043083900228	219.7528798185941	70	127
219.23043083900228	219.7528798185941	60	127
219.7528798185941	220.29854875283448	86	127
219.7528798185941	220.29854875283448	74	127
220.29854875283448	221.15768707482994	85	127
220.29854875283448	221.15768707482994	73	127
220.6932879818594	221.15768707482994	65	127
220.6932879818594	221.15768707482994	69	127
220.6932879818594	221.15768707482994	60	127
221.15768707482994	221.40149659863945	72	127
221.15768707482994	221.40149659863945	67	127
221.15768707482994	221.40149659863945	70	127
221.15768707482994	221.64530612244897	84	127
221.15768707482994	221.64530612244897	48	127
221.40149659863945	221.64530612244897	55	127
221.40149659863945	221.64530612244897	64	127
221.64530612244897	221.8310657596372	65	127
221.64530612244897	221.8310657596372	57	127
221.64530612244897	223.59578231292517	41	127
221.64530612244897	223.59578231292517	84	127
221.8310657596372	221.9471655328798	58	127
221.8310657596372	221.9471655328798	67	127
221.9471655328798	222.07487528344672	69	127
221.9471655328798	222.07487528344672	60	127
222.07487528344672	222.16775510204081	67	127
222.07487528344672	222.16775510204081	58	127
222.16775510204081	222.28385487528345	65	127
222.16775510204081	222.28385487528345	57	127
222.28385487528345	222.38834467120182	67	127
222.28385487528345	222.38834467120182	58	127
222.38834467120182	222.50444444444443	69	127
222.38834467120182	222.50444444444443	60	127
222.50444444444443	222.62054421768707	67	127
222.50444444444443	222.62054421768707	58	127
222.62054421768707	222.74825396825398	65	127
222.62054421768707	222.74825396825398	57	127
222.74825396825398	222.8643537414966	58	127
222.74825396825398	222.8643537414966	67	127
222.8643537414966	222.98045351473922	69	127
222.8643537414966	222.98045351473922	60	127
222.98045351473922	223.09655328798186	67	127
222.98045351473922	223.09655328798186	58	127
223.09655328798186	223.235873015873	65	127
223.09655328798186	223.235873015873	57	127
223.235873015873	223.35197278911565	58	127
223.235873015873	223.35197278911565	67	127
223.35197278911565	223.4912925170068	60	127
223.35197278911565	223.4912925170068	69	127
223.4912925170068	223.59578231292517	67	127
223.4912925170068	223.59578231292517	58	127
223.59578231292517	225.000589569161	64	127
223.59578231292517	223.73510204081632	41	127
223.59578231292517	224.09501133786847	84	127
223.59578231292517	225.000589569161	55	127
223.73510204081632	223.83959183673468	43	127
223.83959183673468	223.95569160997732	41	127
223.95569160997732	224.09501133786847	43	127
224.09501133786847	224.2111111111111	41	127
224.09501133786847	224.57102040816326	82	127
224.2111111111111	224.35043083900226	43	127
224.35043083900226	224.4665306122449	41	127
224.4665306122449	224.57102040816326	43	127
224.57102040816326	225.000589569161	79	127
224.57102040816326	224.6871201814059	41	127
224.6871201814059	224.79160997732427	43	127
224.79160997732427	224.90770975056688	41	127
224.90770975056688	225.000589569161	43	127
225.000589569161	225.11668934240362	41	127
225.000589569161	225.23278911564626	76	127
225.000589569161	225.23278911564626	67	127
225.000589569161	225.23278911564626	58	127
225.11668934240362	225.23278911564626	43	127
225.23278911564626	225.47659863945577	64	127
225.23278911564626	225.36049886621316	41	127
225.23278911564626	225.47659863945577	84	127
225.23278911564626	225.47659863945577	55	127
225.36049886621316	225.47659863945577	43	127
225.47659863945577	225.5926984126984	65	127
225.47659863945577	225.5926984126984	57	127
225.47659863945577	227.3225850340136	41	127
225.47659863945577	226.6608163265306	84	127
225.5926984126984	225.70879818594105	57	127
225.5926984126984	225.70879818594105	53	127
225.70879818594105	225.85972789115647	60	127
225.70879818594105	225.85972789115647	57	127
225.85972789115647	225.96421768707484	58	127
225.85972789115647	225.96421768707484	55	127
225.96421768707484	226.09192743764171	57	127
225.96421768707484	226.09192743764171	53	127
226.09192743764171	226.21963718820862	58	127
226.09192743764171	226.21963718820862	55	127
226.21963718820862	226.33573696145126	57	127
226.21963718820862	226.33573696145126	60	127
226.33573696145126	226.4402267573696	58	127
226.33573696145126	226.4402267573696	55	127
226.4402267573696	226.55632653061224	53	127
226.4402267573696	226.55632653061224	57	127
226.55632653061224	226.6608163265306	55	127
226.55632653061224	226.6608163265306	58	127
226.6608163265306	226.77691609977325	57	127
226.6608163265306	226.89301587301588	84	127
226.6608163265306	226.77691609977325	60	127
226.77691609977325	226.89301587301588	55	127
226.77691609977325	226.89301587301588	58	127
226.89301587301588	227.0091156462585	53	127
226.89301587301588	227.11360544217686	86	127
226.89301587301588	227.0091156462585	57	127
227.0091156462585	227.11360544217686	55	127
227.0091156462585	227.11360544217686	58	127
227.11360544217686	227.21809523809523	60	127
227.11360544217686	227.21809523809523	57	127
227.11360544217686	227.3225850340136	84	127
227.21809523809523	227.3225850340136	58	127
227.21809523809523	227.3225850340136	55	127
227.3225850340136	227.43868480725624	41	127
227.3225850340136	227.74054421768707	84	127
227.3225850340136	228.58807256235826	58	127
227.3225850340136	228.58807256235826	55	127
227.43868480725624	227.5431746031746	43	127
227.5431746031746	227.64766439909297	41	127
227.64766439909297	227.74054421768707	43	127
227.74054421768707	227.8566439909297	41	127
227.74054421768707	228.14689342403628	82	127
227.8566439909297	227.96113378684808	43	127
227.96113378684808	228.0772335600907	41	127
228.0772335600907	228.14689342403628	43	127
228.14689342403628	228.26299319727892	41	127
228.14689342403628	228.58807256235826	79	127
228.26299319727892	228.36748299319729	43	127
228.36748299319729	228.48358276643992	41	127
228.48358276643992	228.58807256235826	43	127
228.58807256235826	228.69256235827663	41	127
228.58807256235826	228.78544217687076	76	127
228.58807256235826	228.78544217687076	58	127
228.58807256235826	228.78544217687076	55	127
228.69256235827663	228.78544217687076	43	127
228.78544217687076	229.00603174603174	55	127
228.78544217687076	228.90154195011337	41	127
228.78544217687076	229.00603174603174	84	127
228.78544217687076	229.00603174603174	52	127
228.90154195011337	229.00603174603174	43	127
229.00603174603174	229.12213151927438	41	127
229.00603174603174	229.63297052154195	84	127
229.00603174603174	229.63297052154195	57	127
229.00603174603174	229.63297052154195	53	127
229.12213151927438	229.19179138321996	43	127
229.19179138321996	229.30789115646257	41	127
229.30789115646257	229.41238095238094	43	127
229.41238095238094	229.52848072562358	41	127
229.52848072562358	229.63297052154195	43	127
229.63297052154195	229.7490702947846	41	127
229.7490702947846	229.85356009070296	43	127
229.85356009070296	229.96965986394557	41	127
229.85356009070296	230.5849886621315	72	127
229.85356009070296	230.5849886621315	65	127
229.85356009070296	230.5849886621315	57	127
229.85356009070296	230.5849886621315	53	127
229.96965986394557	230.07414965986393	43	127
230.07414965986393	230.19024943310657	41	127
230.19024943310657	230.31795918367348	43	127
230.31795918367348	230.4688888888889	41	127
230.4688888888889	230.5849886621315	43	127
230.5849886621315	230.71269841269842	41	127
230.71269841269842	230.85201814058956	43	127
230.85201814058956	231.61827664399092	65	127
230.85201814058956	230.97972789115647	41	127
230.85201814058956	231.61827664399092	72	127
230.85201814058956	231.61827664399092	57	127
230.85201814058956	231.61827664399092	53	127
230.97972789115647	231.09582766439908	43	127
231.09582766439908	231.20031746031745	41	127
231.20031746031745	231.35124716553287	43	127
231.35124716553287	231.51378684807256	41	127
231.51378684807256	231.6298866213152	43	127
231.6298866213152	231.74598639455783	41	127
231.74598639455783	231.8736961451247	43	127
231.8736961451247	232.08267573696145	53	127
231.8736961451247	232.08267573696145	77	127
231.8736961451247	232.08267573696145	65	127
231.8736961451247	232.08267573696145	41	127
232.08267573696145	232.23360544217687	77	127
232.08267573696145	232.23360544217687	65	127
232.08267573696145	232.23360544217687	53	127
232.08267573696145	232.23360544217687	41	127
232.24521541950114	232.43097505668933	77	127
232.24521541950114	232.43097505668933	65	127
232.24521541950114	232.43097505668933	41	127
232.24521541950114	232.43097505668933	53	127
232.45419501133787	232.6051247165533	42	127
232.45419501133787	232.6051247165533	78	127
232.45419501133787	232.6051247165533	66	127
232.45419501133787	232.6051247165533	54	127
232.61673469387756	232.7908843537415	66	127
232.61673469387756	232.7908843537415	78	127
232.61673469387756	232.7908843537415	54	127
232.61673469387756	232.7908843537415	42	127
232.80249433106576	232.99986394557823	78	127
232.80249433106576	232.99986394557823	66	127
232.80249433106576	232.99986394557823	54	127
232.80249433106576	232.99986394557823	42	127
233.0114739229025	234.2073015873016	79	127
233.0114739229025	234.2073015873016	67	127
233.0114739229025	234.2073015873016	55	127
233.0114739229025	234.2073015873016	43	127
234.21891156462584	234.33501133786848	81	127
234.21891156462584	234.33501133786848	69	127
234.21891156462584	234.33501133786848	57	127
234.21891156462584	234.33501133786848	45	127
234.33501133786848	234.4627210884354	82	127
234.33501133786848	234.4627210884354	70	127
234.33501133786848	234.4627210884354	58	127
234.33501133786848	234.4627210884354	46	127
234.4627210884354	234.56721088435373	84	127
234.4627210884354	234.56721088435373	72	127
234.4627210884354	234.56721088435373	60	127
234.4627210884354	234.56721088435373	48	127
234.56721088435373	234.68331065759637	86	127
234.56721088435373	234.68331065759637	74	127
234.56721088435373	234.68331065759637	62	127
234.56721088435373	234.68331065759637	50	127
234.68331065759637	234.78780045351473	76	127
234.68331065759637	234.78780045351473	64	127
234.68331065759637	234.78780045351473	88	127
234.68331065759637	234.78780045351473	52	127
234.78780045351473	234.90390022675737	90	127
234.78780045351473	234.90390022675737	78	127
234.78780045351473	234.90390022675737	66	127
234.78780045351473	234.90390022675737	54	127
234.90390022675737	235.69337868480724	67	127
234.90390022675737	235.69337868480724	91	127
234.90390022675737	235.69337868480724	79	127
234.90390022675737	235.69337868480724	55	127
237.07496598639455	237.57419501133788	78	127
237.07496598639455	237.57419501133788	90	127
237.57419501133788	238.50299319727893	79	127
237.57419501133788	238.50299319727893	62	127
237.57419501133788	238.9441723356009	58	127
237.57419501133788	238.50299319727893	91	127
238.50299319727893	238.9441723356009	74	127
238.50299319727893	238.9441723356009	70	127
238.50299319727893	238.9441723356009	86	127
238.9441723356009	239.71043083900227	74	127
238.9441723356009	239.71043083900227	86	127
239.71043083900227	240.61600907029478	73	127
239.71043083900227	240.61600907029478	85	127
240.05873015873016	240.61600907029478	65	127
240.05873015873016	240.61600907029478	69	127
240.05873015873016	240.61600907029478	60	127
240.61600907029478	241.2081179138322	84	127
240.61600907029478	241.2081179138322	72	127
240.61600907029478	241.2081179138322	67	127
240.61600907029478	241.2081179138322	70	127
240.61600907029478	241.2081179138322	60	127
241.2081179138322	241.70734693877552	86	127
241.2081179138322	241.70734693877552	74	127
241.70734693877552	242.4968253968254	85	127
241.70734693877552	242.4968253968254	73	127
241.99759637188208	242.4968253968254	69	127
241.99759637188208	242.4968253968254	60	127
241.99759637188208	242.4968253968254	65	127
242.4968253968254	242.76385487528344	70	127
242.4968253968254	243.06571428571428	84	127
242.4968253968254	243.06571428571428	48	127
242.4968253968254	242.76385487528344	72	127
242.4968253968254	242.76385487528344	67	127
242.7754648526077	243.06571428571428	55	127
242.7754648526077	243.06571428571428	64	127
243.06571428571428	243.18181405895692	57	127
243.06571428571428	243.18181405895692	65	127
243.06571428571428	244.86526077097506	41	127
243.06571428571428	244.86526077097506	84	127
243.18181405895692	243.29791383219955	58	127
243.18181405895692	243.29791383219955	67	127
243.29791383219955	243.40240362811792	69	127
243.29791383219955	243.40240362811792	60	127
243.40240362811792	243.5301133786848	67	127
243.40240362811792	243.5301133786848	58	127
243.5301133786848	243.63460317460317	65	127
243.5301133786848	243.63460317460317	57	127
243.63460317460317	243.7507029478458	67	127
243.63460317460317	243.7507029478458	58	127
243.7507029478458	243.85519274376418	69	127
243.7507029478458	243.85519274376418	60	127
243.85519274376418	243.98290249433106	67	127
243.85519274376418	243.98290249433106	58	127
243.98290249433106	244.08739229024943	65	127
243.98290249433106	244.08739229024943	57	127
244.08739229024943	244.20349206349206	58	127
244.08739229024943	244.20349206349206	67	127
244.20349206349206	244.30798185941043	69	127
244.20349206349206	244.30798185941043	60	127
244.30798185941043	244.4124716553288	67	127
244.30798185941043	244.4124716553288	58	127
244.4124716553288	244.52857142857144	57	127
244.4124716553288	244.52857142857144	65	127
244.52857142857144	244.6330612244898	58	127
244.52857142857144	244.6330612244898	67	127
244.6330612244898	244.7607709750567	60	127
244.6330612244898	244.7607709750567	69	127
244.7607709750567	244.86526077097506	67	127
244.7607709750567	244.86526077097506	58	127
244.86526077097506	246.15396825396826	55	127
244.86526077097506	244.9813605442177	41	127
244.86526077097506	245.28321995464853	84	127
244.86526077097506	246.15396825396826	64	127
244.9813605442177	245.0742403628118	43	127
245.0742403628118	245.17873015873016	41	127
245.17873015873016	245.28321995464853	43	127
245.28321995464853	245.3877097505669	41	127
245.28321995464853	245.701179138322	82	127
245.3877097505669	245.49219954648527	43	127
245.49219954648527	245.59668934240364	41	127
245.59668934240364	245.701179138322	43	127
245.701179138322	246.15396825396826	79	127
245.701179138322	245.8172789115646	41	127
245.8172789115646	245.92176870748298	43	127
245.92176870748298	246.0494784580499	41	127
246.0494784580499	246.15396825396826	43	127
246.15396825396826	246.362947845805	67	127
246.15396825396826	246.2700680272109	41	127
246.15396825396826	246.362947845805	76	127
246.15396825396826	246.362947845805	58	127
246.2700680272109	246.37455782312927	43	127
246.37455782312927	246.6067573696145	84	127
246.37455782312927	246.6067573696145	64	127
246.37455782312927	246.49065759637188	41	127
246.37455782312927	246.6067573696145	55	127
246.49065759637188	246.6067573696145	43	127
246.6067573696145	246.71124716553288	65	127
246.6067573696145	247.22208616780046	84	127
246.6067573696145	248.34825396825397	41	127
246.6067573696145	246.71124716553288	57	127
246.71124716553288	246.82734693877552	53	127
246.71124716553288	246.82734693877552	57	127
246.82734693877552	246.92022675736962	57	127
246.82734693877552	246.92022675736962	60	127
246.92022675736962	247.024716553288	58	127
246.92022675736962	247.024716553288	55	127
247.024716553288	247.14081632653063	57	127
247.024716553288	247.14081632653063	53	127
247.14081632653063	247.23369614512472	55	127
247.14081632653063	247.23369614512472	58	127
247.23369614512472	247.3381859410431	57	127
247.23369614512472	247.3381859410431	60	127
247.23369614512472	247.69809523809525	72	127
247.3381859410431	247.4542857142857	55	127
247.3381859410431	247.4542857142857	58	127
247.4542857142857	247.55877551020407	57	127
247.4542857142857	247.55877551020407	53	127
247.55877551020407	247.7097052154195	58	127
247.55877551020407	247.7097052154195	55	127
247.7097052154195	247.81419501133786	57	127
247.7097052154195	247.91868480725623	72	127
247.7097052154195	247.81419501133786	60	127
247.81419501133786	247.91868480725623	58	127
247.81419501133786	247.91868480725623	55	127
247.91868480725623	248.0231746031746	53	127
247.91868480725623	248.0231746031746	57	127
247.91868480725623	248.12766439909296	74	127
248.0231746031746	248.13927437641723	55	127
248.0231746031746	248.13927437641723	58	127
248.13927437641723	248.2437641723356	57	127
248.13927437641723	248.34825396825397	72	127
248.13927437641723	248.2437641723356	60	127
248.2437641723356	248.34825396825397	58	127
248.2437641723356	248.34825396825397	55	127
248.34825396825397	249.72984126984127	55	127
248.34825396825397	248.45274376417234	41	127
248.34825396825397	248.80104308390023	72	127
248.34825396825397	249.72984126984127	58	127
248.45274376417234	248.56884353741498	43	127
248.56884353741498	248.6849433106576	41	127
248.6849433106576	248.80104308390023	43	127
248.80104308390023	248.94036281179137	41	127
248.80104308390023	249.26544217687075	70	127
248.94036281179137	249.04485260770974	43	127
249.04485260770974	249.16095238095238	41	127
249.16095238095238	249.27705215419502	43	127
249.27705215419502	249.3815419501134	41	127
249.27705215419502	249.72984126984127	67	127
249.3815419501134	249.50925170068027	43	127
249.50925170068027	249.63696145124717	41	127
249.63696145124717	249.74145124716554	43	127
249.74145124716554	249.82272108843537	41	127
249.74145124716554	249.92721088435374	64	127
249.74145124716554	249.92721088435374	58	127
249.74145124716554	249.92721088435374	55	127
249.82272108843537	249.938820861678	43	127
249.938820861678	250.0665306122449	41	127
249.938820861678	250.2174603174603	60	127
249.938820861678	250.2174603174603	55	127
249.938820861678	250.2174603174603	52	127
250.0665306122449	250.22907029478458	43	127
250.22907029478458	250.77473922902493	65	127
250.22907029478458	250.5309297052154	41	127
250.22907029478458	250.77473922902493	60	127
250.22907029478458	250.77473922902493	56	127
250.54253968253968	250.65863945578232	60	127
250.65863945578232	250.77473922902493	62	127
250.77473922902493	250.89083900226757	60	127
250.89083900226757	251.01854875283448	62	127
251.01854875283448	251.15786848072563	60	127
251.15786848072563	251.27396825396826	62	127
251.27396825396826	251.7615873015873	67	127
251.27396825396826	251.7615873015873	64	127
251.27396825396826	251.7615873015873	60	127
252.30725623582765	252.78326530612244	60	127
252.30725623582765	252.78326530612244	69	127
252.30725623582765	252.78326530612244	65	127
252.30725623582765	252.78326530612244	53	127
252.53945578231293	252.65555555555557	48	127
252.65555555555557	252.78326530612244	50	127
252.78326530612244	252.91097505668935	48	127
252.91097505668935	253.06190476190477	50	127
253.06190476190477	253.18961451247165	48	127
253.18961451247165	253.3057142857143	50	127
253.3057142857143	253.85138321995464	48	127
253.3057142857143	253.85138321995464	72	127
253.3057142857143	253.85138321995464	64	127
253.3057142857143	253.85138321995464	48	127
254.36222222222221	256.1037188208617	61	127
254.36222222222221	254.48993197278912	49	127
254.36222222222221	254.7105215419501	65	127
254.36222222222221	254.7105215419501	73	127
254.36222222222221	256.1037188208617	77	127
254.36222222222221	256.1037188208617	56	127
254.36222222222221	256.1037188208617	65	127
254.48993197278912	254.5944217687075	51	127
254.5944217687075	254.7105215419501	53	127
254.7105215419501	254.82662131519274	51	127
254.82662131519274	255.0007709750567	49	127
255.04721088435375	255.19814058956916	48	127
255.25619047619048	255.4303401360544	46	127
255.48839002267573	255.63931972789115	44	127
255.69736961451247	255.83668934240362	46	127
255.89473922902494	256.0688662131519	48	127
256.1269387755102	256.2314285714286	61	127
256.1269387755102	256.2314285714286	49	127
256.1269387755102	258.25156462585034	65	127
256.1269387755102	258.25156462585034	80	127
256.2314285714286	256.3243083900227	63	127
256.2314285714286	256.3243083900227	51	127
256.3243083900227	256.42879818594105	65	127
256.3243083900227	256.42879818594105	53	127
256.42879818594105	256.5332879818594	51	127
256.42879818594105	256.5332879818594	63	127
256.5332879818594	256.68419501133786	61	127
256.5332879818594	256.68419501133786	49	127
256.74226757369615	256.9048072562358	60	127
256.74226757369615	256.9048072562358	48	127
256.96285714285716	257.11378684807255	46	127
256.96285714285716	257.11378684807255	58	127
257.1718367346939	257.3227664399093	44	127
257.1718367346939	257.3227664399093	56	127
257.38081632653063	257.531746031746	46	127
257.38081632653063	257.531746031746	58	127
257.60138321995464	257.77555555555557	60	127
257.60138321995464	257.77555555555557	48	127
257.83360544217686	257.9845351473923	49	127
257.83360544217686	257.9845351473923	61	127
258.0425850340136	258.2051247165533	65	127
258.0425850340136	258.2051247165533	53	127
258.2631746031746	258.41408163265305	68	127
258.2631746031746	258.41408163265305	56	127
258.2631746031746	260.00467120181406	65	127
258.2631746031746	260.00467120181406	80	127
258.47215419501134	258.59986394557825	73	127
258.47215419501134	258.59986394557825	61	127
258.65791383219954	258.82045351473926	65	127
258.65791383219954	258.82045351473926	41	127
258.87850340136055	259.0526530612245	68	127
258.87850340136055	259.0526530612245	44	127
259.1107029478458	259.2732426303855	73	127
259.1107029478458	259.2732426303855	49	127
259.33129251700683	259.50544217687076	53	127
259.33129251700683	259.50544217687076	77	127
259.56349206349205	259.72603174603177	44	127
259.56349206349205	259.72603174603177	68	127
259.7956916099773	259.9466213151928	73	127
259.7956916099773	259.9466213151928	49	127
260.00467120181406	261.6648979591837	80	127
260.00467120181406	260.1672108843537	77	127
260.00467120181406	260.1672108843537	53	127
260.00467120181406	261.6648979591837	65	127
260.22526077097507	260.3878004535147	56	127
260.22526077097507	260.3878004535147	80	127
260.4342403628118	260.59678004535147	85	127
260.4342403628118	260.59678004535147	61	127
260.6548299319728	260.8057596371882	80	127
260.6548299319728	260.8057596371882	56	127
260.8521995464853	261.00312925170067	77	127
260.8521995464853	261.00312925170067	53	127
261.061179138322	261.20049886621314	49	127
261.061179138322	261.20049886621314	73	127
261.23532879818595	261.3862358276644	71	127
261.23532879818595	261.3862358276644	47	127
261.4443083900227	261.6184580498866	50	127
261.4443083900227	261.6184580498866	74	127
261.67650793650796	263.35995464852607	65	127
261.67650793650796	263.35995464852607	80	127
261.67650793650796	261.8390476190476	77	127
261.67650793650796	261.8390476190476	53	127
261.89707482993197	262.04802721088436	59	127
261.89707482993197	262.04802721088436	83	127
262.1060544217687	262.2453968253968	86	127
262.1060544217687	262.2453968253968	62	127
262.30342403628117	262.45437641723356	59	127
262.30342403628117	262.45437641723356	83	127
262.5124036281179	262.6633560090703	77	127
262.5124036281179	262.6633560090703	53	127
262.7214058956916	262.8839455782313	74	127
262.7214058956916	262.8839455782313	50	127
262.9419954648526	263.09292517006804	43	127
262.9419954648526	263.09292517006804	55	127
263.15097505668933	263.3019047619048	74	127
263.15097505668933	263.3019047619048	50	127
263.35995464852607	263.53408163265306	55	127
263.35995464852607	265.03179138321997	79	127
263.35995464852607	263.53408163265306	79	127
263.35995464852607	264.195873015873	65	127
263.59215419501135	263.7430612244898	83	127
263.59215419501135	263.7430612244898	59	127
263.8011337868481	263.9520634920635	86	127
263.8011337868481	263.9520634920635	62	127
264.0101133786848	264.13782312925173	59	127
264.0101133786848	264.13782312925173	83	127
264.195873015873	265.03179138321997	60	127
264.195873015873	264.3584126984127	88	127
264.195873015873	264.3584126984127	64	127
264.195873015873	265.03179138321997	64	127
264.3932426303855	264.54417233560093	84	127
264.3932426303855	264.54417233560093	60	127
264.6022222222222	264.76473922902494	36	127
264.6022222222222	264.76473922902494	88	127
264.82281179138323	264.9737414965986	40	127
264.82281179138323	264.9737414965986	84	127
265.03179138321997	265.1943310657596	43	127
265.03179138321997	265.1943310657596	79	127
265.03179138321997	265.472947845805	79	127
265.03179138321997	265.472947845805	64	127
265.03179138321997	265.472947845805	72	127
265.252380952381	265.41492063492063	48	127
265.252380952381	265.41492063492063	76	127
265.472947845805	266.72684807256235	66	127
265.472947845805	265.62390022675737	75	127
265.472947845805	265.62390022675737	36	127
265.472947845805	266.72684807256235	81	127
265.6819274376417	265.82126984126984	39	127
265.6819274376417	265.82126984126984	72	127
265.8792970521542	266.0302494331066	45	127
265.8792970521542	266.0302494331066	69	127
266.0882766439909	266.2508390022676	48	127
266.0882766439909	266.2508390022676	63	127
266.3088888888889	266.4598185941043	36	127
266.3088888888889	266.4598185941043	78	127
266.5178684807256	266.6804081632653	75	127
266.5178684807256	266.6804081632653	39	127
266.7384580498866	267.10995464852607	81	127
266.7384580498866	266.8777777777778	69	127
266.7384580498866	266.8777777777778	45	127
266.7384580498866	267.10995464852607	66	127
266.9242176870748	267.063537414966	48	127
266.9242176870748	267.063537414966	67	127
267.1215873015873	267.26090702947846	79	127
267.1215873015873	267.26090702947846	46	127
267.1215873015873	268.36385487528344	67	127
267.1215873015873	268.36385487528344	82	127
267.3189342403628	267.48149659863947	49	127
267.3189342403628	267.48149659863947	73	127
267.53954648526076	267.6904761904762	70	127
267.53954648526076	267.6904761904762	55	127
267.7369160997732	267.89945578231294	67	127
267.7369160997732	267.89945578231294	58	127
267.95750566893423	268.1084353741497	46	127
267.95750566893423	268.1084353741497	79	127
268.16648526077097	268.3174149659864	73	127
268.16648526077097	268.3174149659864	49	127
268.36385487528344	268.5147845804989	70	127
268.36385487528344	268.7818140589569	67	127
268.36385487528344	268.7818140589569	82	127
268.36385487528344	268.5147845804989	55	127
268.5728344671202	268.7237641723356	58	127
268.5728344671202	268.7237641723356	67	127
268.7818140589569	268.9443310657596	77	127
268.7818140589569	268.9443310657596	48	127
268.7818140589569	269.2229931972789	80	127
268.7818140589569	269.2229931972789	65	127
269.0024036281179	269.1649433106576	60	127
269.0024036281179	269.1649433106576	72	127
269.2229931972789	269.3855328798186	84	127
269.2229931972789	269.3855328798186	36	127
269.2229931972789	269.66414965986394	79	127
269.2229931972789	269.66414965986394	64	127
269.44358276643993	269.61773242630386	72	127
269.44358276643993	269.61773242630386	48	127
269.66414965986394	269.7802721088435	77	127
269.66414965986394	269.7802721088435	53	127
269.66414965986394	269.7802721088435	84	127
269.66414965986394	269.7802721088435	41	127
269.7802721088435	269.89637188208616	55	127
269.7802721088435	269.89637188208616	79	127
269.89637188208616	270.0008616780045	56	127
269.89637188208616	270.1053514739229	80	127
269.89637188208616	270.1053514739229	44	127
269.89637188208616	270.0008616780045	80	127
270.0008616780045	270.11696145124716	79	127
270.0008616780045	270.11696145124716	55	127
270.11696145124716	270.30272108843536	77	127
270.11696145124716	270.30272108843536	53	127
270.11696145124716	270.30272108843536	48	127
270.30272108843536	270.50009070294783	72	127
270.30272108843536	270.50009070294783	53	127
270.50009070294783	270.6045804988662	84	127
270.50009070294783	270.6045804988662	41	127
270.50009070294783	270.61619047619047	75	127
270.50009070294783	270.61619047619047	51	127
270.61619047619047	270.72068027210884	77	127
270.61619047619047	270.72068027210884	53	127
270.72068027210884	270.79031746031745	78	127
270.72068027210884	270.79031746031745	54	127
270.72068027210884	270.8716099773243	81	127
270.72068027210884	270.8716099773243	45	127
270.79031746031745	270.8716099773243	77	127
270.79031746031745	270.8716099773243	53	127
270.8716099773243	271.0573696145125	75	127
270.8716099773243	271.0573696145125	51	127
270.8716099773243	271.0573696145125	48	127
271.06897959183675	271.25473922902495	72	127
271.06897959183675	271.25473922902495	53	127
271.25473922902495	271.3592290249433	84	127
271.25473922902495	271.3592290249433	41	127
271.25473922902495	271.3708390022676	73	127
271.25473922902495	271.3708390022676	49	127
271.3708390022676	271.47532879818596	75	127
271.3708390022676	271.47532879818596	51	127
271.47532879818596	271.5798185941043	77	127
271.47532879818596	271.5798185941043	53	127
271.47532879818596	271.6494784580499	77	127
271.47532879818596	271.6494784580499	46	127
271.5798185941043	271.6494784580499	75	127
271.5798185941043	271.6494784580499	51	127
271.6494784580499	271.8584580498866	73	127
271.6494784580499	271.8584580498866	49	127
271.6494784580499	271.8584580498866	49	127
271.8700680272109	272.0906575963719	70	127
271.8700680272109	272.0906575963719	53	127
272.0906575963719	272.19514739229027	58	127
272.0906575963719	272.19514739229027	82	127
272.0906575963719	272.19514739229027	41	127
272.0906575963719	272.19514739229027	70	127
272.19514739229027	272.29963718820864	60	127
272.19514739229027	272.29963718820864	72	127
272.29963718820864	272.404126984127	73	127
272.29963718820864	272.404126984127	61	127
272.29963718820864	272.48539682539683	76	127
272.29963718820864	272.48539682539683	46	127
272.404126984127	272.48539682539683	72	127
272.404126984127	272.48539682539683	60	127
272.48539682539683	272.6827664399093	73	127
272.48539682539683	272.6827664399093	70	127
272.48539682539683	272.6827664399093	58	127
272.48539682539683	272.6827664399093	49	127
272.69437641723357	272.9033560090703	67	127
272.69437641723357	272.9033560090703	53	127
272.9033560090703	273.0078458049887	53	127
272.9033560090703	273.1239455782313	82	127
272.9033560090703	273.1239455782313	79	127
272.9033560090703	273.35614512471653	41	127
273.0078458049887	273.1239455782313	55	127
273.1239455782313	273.25165532879817	56	127
273.1239455782313	273.56512471655327	80	127
273.1239455782313	273.56512471655327	77	127
273.25165532879817	273.35614512471653	55	127
273.35614512471653	273.56512471655327	53	127
273.56512471655327	273.6579818594104	77	127
273.56512471655327	273.6579818594104	80	127
273.66961451247164	273.77410430839	53	127
273.77410430839	273.8785941043084	55	127
273.8785941043084	274.29655328798185	79	127
273.8785941043084	274.29655328798185	76	127
273.8785941043084	273.98308390022675	56	127
273.98308390022675	274.0875736961451	55	127
274.0875736961451	274.29655328798185	53	127
274.29655328798185	274.48231292517005	80	127
274.29655328798185	274.48231292517005	77	127
274.4939229024943	274.5984126984127	53	127
274.5984126984127	274.70290249433106	55	127
274.70290249433106	275.097641723356	82	127
274.70290249433106	274.78414965986394	56	127
274.70290249433106	275.097641723356	79	127
274.78414965986394	274.9002721088435	55	127
274.9002721088435	275.097641723356	53	127
275.097641723356	275.27179138322	84	127
275.097641723356	275.27179138322	80	127
275.27179138322	276.09609977324266	64	127
275.27179138322	275.37628117913835	53	127
275.37628117913835	275.4807709750567	55	127
275.4807709750567	275.5852607709751	56	127
275.4807709750567	275.8987074829932	84	127
275.4807709750567	275.8987074829932	75	127
275.5852607709751	275.68975056689345	55	127
275.68975056689345	275.8987074829932	53	127
275.8987074829932	276.09609977324266	75	127
275.8987074829932	276.09609977324266	79	127
276.09609977324266	276.5488888888889	65	127
276.09609977324266	276.2121768707483	53	127
276.2121768707483	276.31666666666666	55	127
276.31666666666666	276.421179138322	56	127
276.31666666666666	276.7578684807256	82	127
276.31666666666666	276.7578684807256	79	127
276.421179138322	276.5488888888889	55	127
276.5488888888889	276.7578684807256	53	127
276.7694784580499	276.8507482993197	77	127
276.7694784580499	276.8507482993197	80	127
276.8507482993197	276.9552380952381	53	127
276.9552380952381	277.082947845805	55	127
277.082947845805	277.524126984127	79	127
277.082947845805	277.524126984127	76	127
277.082947845805	277.18743764172336	56	127
277.18743764172336	277.31514739229027	55	127
277.31514739229027	277.524126984127	53	127
277.524126984127	277.744693877551	80	127
277.524126984127	277.744693877551	77	127
277.744693877551	277.8491836734694	53	127
277.8491836734694	277.9420634920635	55	127
277.9420634920635	278.3484353741497	82	127
277.9420634920635	278.05818594104306	56	127
277.9420634920635	278.3484353741497	79	127
278.05818594104306	278.13945578231295	55	127
278.13945578231295	278.3484353741497	53	127
278.3484353741497	278.51097505668935	80	127
278.3484353741497	278.51097505668935	84	127
278.5225850340136	278.627074829932	53	127
278.5225850340136	279.3468934240363	64	127
278.627074829932	278.73156462585035	55	127
278.73156462585035	278.8360544217687	56	127
278.73156462585035	279.1263038548753	85	127
278.73156462585035	279.1263038548753	82	127
278.8360544217687	278.9289342403628	55	127
278.9289342403628	279.1263038548753	53	127
279.1263038548753	279.3468934240363	79	127
279.1263038548753	279.3468934240363	88	127
279.3468934240363	279.74163265306123	65	127
279.3468934240363	279.46299319727893	53	127
279.46299319727893	279.54426303854876	55	127
279.54426303854876	279.9390022675737	89	127
279.54426303854876	279.64875283446713	56	127
279.54426303854876	279.9390022675737	80	127
279.64875283446713	279.74163265306123	55	127
279.74163265306123	279.86934240362814	53	127
279.74163265306123	281.32056689342403	60	127
279.86934240362814	279.9390022675737	55	127
279.9390022675737	280.1247619047619	77	127
279.9390022675737	280.0318820861678	56	127
280.0318820861678	280.1247619047619	55	127
280.1247619047619	280.22925170068027	53	127
280.22925170068027	280.33374149659863	55	127
280.33374149659863	280.4498412698413	56	127
280.4498412698413	280.55433106575964	55	127
280.55433106575964	280.658820861678	53	127
280.55433106575964	280.658820861678	65	127
280.658820861678	280.7517006802721	55	127
280.658820861678	280.7517006802721	67	127
280.7517006802721	280.8445804988662	56	127
280.7517006802721	280.8445804988662	68	127
280.8445804988662	280.9490702947846	55	127
280.8445804988662	280.9490702947846	67	127
280.9490702947846	281.12319727891156	65	127
280.9490702947846	281.12319727891156	53	127
281.32056689342403	281.4366893424036	65	127
281.32056689342403	281.4366893424036	53	127
281.32056689342403	282.94598639455785	56	127
281.4366893424036	281.541179138322	55	127
281.4366893424036	281.541179138322	67	127
281.541179138322	281.64566893424035	56	127
281.541179138322	281.64566893424035	68	127
281.64566893424035	281.72691609977323	55	127
281.64566893424035	281.72691609977323	67	127
281.72691609977323	281.95913832199545	53	127
281.72691609977323	281.95913832199545	65	127
282.1565079365079	282.2377551020408	53	127
282.1565079365079	282.2377551020408	65	127
282.2377551020408	282.31904761904764	55	127
282.2377551020408	282.31904761904764	67	127
282.31904761904764	282.423537414966	68	127
282.31904761904764	282.423537414966	56	127
282.423537414966	282.5280272108844	67	127
282.423537414966	282.5280272108844	55	127
282.5280272108844	282.64410430839	53	127
282.5280272108844	282.64410430839	65	127
282.64410430839	282.7485941043084	67	127
282.64410430839	282.7485941043084	55	127
282.7485941043084	282.8414965986395	56	127
282.7485941043084	282.8414965986395	68	127
282.8414965986395	282.94598639455785	67	127
282.8414965986395	282.94598639455785	55	127
282.94598639455785	283.66580498866216	53	127
282.94598639455785	283.1085260770975	65	127
282.94598639455785	283.1085260770975	53	127
283.1433560090703	283.2478458049887	51	127
283.1433560090703	283.2478458049887	63	127
283.30589569161	283.4568253968254	61	127
283.30589569161	283.4568253968254	49	127
283.5148752834467	283.6193650793651	60	127
283.5148752834467	283.6193650793651	48	127
283.66580498866216	283.81673469387755	62	127
283.66580498866216	283.81673469387755	50	127
283.66580498866216	284.49009070294784	48	127
283.8631746031746	284.01410430839	52	127
283.8631746031746	284.01410430839	64	127
284.08374149659863	284.188231292517	65	127
284.08374149659863	284.188231292517	53	127
284.188231292517	284.2811111111111	67	127
284.188231292517	284.2811111111111	55	127
284.2811111111111	284.38560090702947	56	127
284.2811111111111	284.38560090702947	68	127
284.38560090702947	284.50172335600905	67	127
284.38560090702947	284.50172335600905	55	127
284.50172335600905	284.6526530612245	65	127
284.50172335600905	284.6526530612245	53	127
284.50172335600905	285.3143990929705	44	127
284.7107029478458	284.8384126984127	63	127
284.7107029478458	284.8384126984127	51	127
284.90807256235826	285.04739229024943	49	127
284.90807256235826	285.04739229024943	61	127
285.12866213151926	285.2447619047619	48	127
285.12866213151926	285.2447619047619	60	127
285.3143990929705	285.5001814058957	62	127
285.3143990929705	285.5001814058957	50	127
285.3143990929705	286.3709297052154	41	127
285.5698412698413	285.7904308390023	52	127
285.5698412698413	285.7904308390023	64	127
285.86009070294784	286.3709297052154	53	127
285.86009070294784	286.3709297052154	65	127
286.3825396825397	286.84691609977324	41	127
286.85854875283445	287.21845804988664	37	127
287.21845804988664	287.6364172335601	67	127
287.21845804988664	287.6364172335601	58	127
287.21845804988664	287.6364172335601	52	127
287.21845804988664	287.6364172335601	36	127
287.6364172335601	288.07759637188207	65	127
287.6364172335601	288.07759637188207	56	127
287.6364172335601	288.07759637188207	53	127
288.07759637188207	288.5187755102041	41	127
288.53038548752835	288.98315192743763	37	127
288.9947619047619	289.48240362811794	58	127
288.9947619047619	289.48240362811794	52	127
288.9947619047619	289.48240362811794	36	127
288.9947619047619	289.48240362811794	67	127
289.4939909297052	290.94526077097504	67	127
289.4939909297052	290.94526077097504	58	127
289.4939909297052	290.94526077097504	52	127
289.97002267573697	290.44603174603174	37	127
290.44603174603174	290.94526077097504	36	127
290.94526077097504	291.60702947845806	72	127
290.94526077097504	291.60702947845806	60	127
290.94526077097504	291.60702947845806	60	127
290.94526077097504	291.60702947845806	48	127
291.61863945578233	292.0482086167801	65	127
291.61863945578233	292.0482086167801	53	127
291.61863945578233	292.0482086167801	41	127
295.5892517006803	295.9607709750567	65	127
