# onset,offset,note,velocity
0.6726077097505669	0.8815873015873016	53	127
0.6726077097505669	0.8815873015873016	53	127
0.6726077097505669	0.8815873015873016	65	127
1.5317460317460319	2.3444444444444446	51	127
1.5317460317460319	3.145532879818594	60	127
1.5317460317460319	2.112222222222222	60	127
1.5317460317460319	2.3444444444444446	55	127
2.112222222222222	2.3444444444444446	72	127
2.3444444444444446	3.400952380952381	56	127
2.3444444444444446	3.400952380952381	53	127
2.3444444444444446	3.400952380952381	68	127
3.145532879818594	3.412562358276644	61	127
3.424172335600907	4.434240362811791	58	127
3.424172335600907	4.434240362811791	55	127
3.424172335600907	4.434240362811791	64	127
3.424172335600907	4.434240362811791	60	127
6.582086167800454	7.824353741496599	52	127
6.582086167800454	8.787981859410431	60	127
6.582086167800454	7.568934240362812	60	127
6.582086167800454	7.824353741496599	55	127
7.568934240362812	7.847573696145124	72	127
7.847573696145124	9.020181405895691	56	127
7.847573696145124	9.020181405895691	53	127
7.847573696145124	9.020181405895691	68	127
8.787981859410431	9.031791383219955	61	127
9.043401360544218	10.216009070294785	60	127
9.043401360544218	10.216009070294785	64	127
9.043401360544218	10.216009070294785	58	127
9.043401360544218	10.216009070294785	55	127
12.619274376417234	15.045759637188208	65	127
12.619274376417234	13.664172335600908	65	127
12.619274376417234	14.05891156462585	60	127
12.619274376417234	14.05891156462585	57	127
13.664172335600908	14.082131519274377	72	127
14.082131519274377	15.51015873015873	61	127
14.082131519274377	14.732290249433106	75	127
14.082131519274377	15.51015873015873	58	127
14.755510204081633	15.51015873015873	73	127
15.045759637188208	15.521768707482993	70	127
15.521768707482993	17.07750566893424	68	127
15.521768707482993	17.07750566893424	60	127
15.521768707482993	17.07750566893424	72	127
15.521768707482993	17.07750566893424	65	127
17.089115646258502	18.540362811791383	65	127
17.089115646258502	20.09609977324263	61	127
17.089115646258502	17.913424036281178	68	127
17.089115646258502	18.819002267573698	71	127
17.94825396825397	18.540362811791383	65	127
18.56358276643991	20.09609977324263	71	127
18.56358276643991	19.10925170068027	64	127
18.819002267573698	19.10925170068027	80	127
19.19049886621315	20.09609977324263	65	127
19.19049886621315	19.701337868480724	79	127
19.724580498866214	20.09609977324263	77	127
20.13092970521542	21.8027664399093	77	127
20.13092970521542	21.8027664399093	68	127
20.13092970521542	22.1162358276644	72	127
20.13092970521542	21.257097505668934	60	127
21.280294784580498	22.894104308390023	60	127
21.8027664399093	22.139455782312925	67	127
21.8027664399093	22.139455782312925	76	127
22.139455782312925	22.49936507936508	72	127
22.139455782312925	22.49936507936508	68	127
22.139455782312925	22.49936507936508	77	127
22.49936507936508	22.894104308390023	71	127
22.49936507936508	22.894104308390023	65	127
22.49936507936508	22.894104308390023	68	127
22.917324263038548	23.68358276643991	71	127
22.917324263038548	23.68358276643991	65	127
22.917324263038548	23.68358276643991	68	127
22.917324263038548	24.554331065759637	60	127
23.68358276643991	24.577551020408162	72	127
23.68358276643991	24.577551020408162	64	127
23.68358276643991	24.577551020408162	67	127
24.577551020408162	24.902630385487527	53	127
24.577551020408162	24.902630385487527	65	127
24.902630385487527	25.28575963718821	52	127
24.902630385487527	25.28575963718821	64	127
25.28575963718821	25.657278911564624	65	127
25.28575963718821	25.657278911564624	53	127
25.657278911564624	25.982358276643993	59	127
25.657278911564624	25.982358276643993	47	127
26.005578231292517	27.073696145124718	47	127
26.005578231292517	27.073696145124718	59	127
27.096916099773242	28.72231292517007	60	127
27.096916099773242	28.72231292517007	48	127
28.791972789115647	29.593061224489794	48	127
28.791972789115647	29.87170068027211	40	127
28.791972789115647	30.48702947845805	72	127
29.60467120181406	29.87170068027211	60	127
29.894920634920634	30.788888888888888	61	127
29.894920634920634	31.172018140589568	56	127
29.894920634920634	31.172018140589568	41	127
30.510249433106576	31.172018140589568	73	127
30.80049886621315	31.172018140589568	73	127
31.195238095238096	32.5768253968254	73	127
31.195238095238096	34.16739229024943	43	127
31.195238095238096	32.182086167800456	73	127
31.195238095238096	34.16739229024943	48	127
31.195238095238096	34.16739229024943	58	127
32.20530612244898	32.5768253968254	85	127
32.60004535147392	33.319863945578234	83	127
32.60004535147392	33.319863945578234	71	127
33.34308390022676	34.16739229024943	84	127
33.34308390022676	34.16739229024943	72	127
34.202222222222225	35.76956916099773	40	127
34.202222222222225	35.444489795918365	48	127
34.202222222222225	36.55904761904762	72	127
35.4677097505669	35.76956916099773	60	127
35.79278911564626	36.884126984126986	61	127
35.79278911564626	37.151156462585035	56	127
35.79278911564626	37.151156462585035	41	127
36.58226757369614	37.151156462585035	73	127
36.90734693877551	37.151156462585035	73	127
37.17437641723356	40.19297052154195	43	127
37.17437641723356	38.5443537414966	73	127
37.17437641723356	38.881020408163266	73	127
37.17437641723356	40.19297052154195	58	127
37.17437641723356	40.19297052154195	48	127
38.567573696145125	38.881020408163266	85	127
38.904263038548756	39.50795918367347	71	127
38.904263038548756	39.50795918367347	83	127
39.53120181405896	40.19297052154195	84	127
39.53120181405896	40.19297052154195	72	127
40.21619047619048	42.619455782312926	58	127
40.21619047619048	42.619455782312926	48	127
40.21619047619048	42.619455782312926	43	127
41.551315192743765	42.073786848072565	83	127
41.551315192743765	42.073786848072565	71	127
42.09700680272109	42.619455782312926	72	127
42.09700680272109	42.619455782312926	84	127
42.64267573696145	44.50027210884354	48	127
42.64267573696145	44.50027210884354	58	127
42.64267573696145	44.50027210884354	43	127
43.85011337868481	44.18680272108843	83	127
43.85011337868481	44.18680272108843	71	127
44.198412698412696	44.50027210884354	84	127
44.198412698412696	44.50027210884354	72	127
44.5118820861678	44.94145124716553	48	127
44.5118820861678	44.94145124716553	58	127
44.5118820861678	44.94145124716553	43	127
44.94145124716553	45.220068027210885	83	127
44.94145124716553	45.220068027210885	71	127
45.23167800453515	45.405850340136055	84	127
45.23167800453515	45.405850340136055	72	127
45.405850340136055	45.87024943310658	48	127
45.405850340136055	45.87024943310658	58	127
45.405850340136055	45.87024943310658	43	127
45.88185941043084	46.021179138322	83	127
45.88185941043084	46.021179138322	71	127
46.03278911564626	46.16049886621315	72	127
46.03278911564626	46.16049886621315	84	127
46.16049886621315	46.41591836734694	48	127
46.16049886621315	46.41591836734694	43	127
46.16049886621315	46.28820861678005	83	127
46.16049886621315	46.28820861678005	71	127
46.16049886621315	46.41591836734694	58	127
46.28820861678005	46.41591836734694	72	127
46.28820861678005	46.41591836734694	84	127
46.41591836734694	46.752585034013606	43	127
46.41591836734694	46.57845804988662	83	127
46.41591836734694	46.57845804988662	71	127
46.41591836734694	46.752585034013606	58	127
46.41591836734694	46.752585034013606	48	127
46.59006802721088	46.752585034013606	72	127
46.59006802721088	46.752585034013606	84	127
46.76421768707483	46.8802947845805	83	127
46.76421768707483	46.8802947845805	71	127
46.76421768707483	47.00800453514739	58	127
46.76421768707483	47.00800453514739	48	127
46.76421768707483	47.00800453514739	43	127
46.8802947845805	47.00800453514739	72	127
46.8802947845805	47.00800453514739	84	127
47.00800453514739	47.158956916099775	83	127
47.00800453514739	47.158956916099775	71	127
47.00800453514739	47.28666666666667	48	127
47.00800453514739	47.28666666666667	41	127
47.00800453514739	47.28666666666667	56	127
47.158956916099775	47.28666666666667	84	127
47.158956916099775	47.28666666666667	72	127
47.28666666666667	47.425986394557825	83	127
47.28666666666667	47.425986394557825	71	127
47.28666666666667	47.60013605442177	55	127
47.28666666666667	47.60013605442177	48	127
47.28666666666667	47.60013605442177	40	127
47.425986394557825	47.60013605442177	84	127
47.425986394557825	47.60013605442177	72	127
47.61174603174603	47.73945578231292	84	127
47.61174603174603	47.855555555555554	56	127
47.61174603174603	47.855555555555554	48	127
47.61174603174603	47.73945578231292	72	127
47.61174603174603	47.855555555555554	41	127
47.73945578231292	47.855555555555554	68	127
47.73945578231292	47.855555555555554	80	127
47.86716553287982	48.1225850340136	56	127
47.86716553287982	48.1225850340136	53	127
48.1225850340136	48.3431746031746	56	127
48.1225850340136	48.3431746031746	60	127
48.354784580498865	48.48249433106576	80	127
48.354784580498865	48.48249433106576	68	127
48.48249433106576	48.621814058956915	77	127
48.48249433106576	48.621814058956915	65	127
48.621814058956915	48.8772335600907	56	127
48.621814058956915	48.8772335600907	53	127
48.888843537414964	49.14426303854875	60	127
48.888843537414964	49.14426303854875	56	127
49.14426303854875	49.295192743764176	84	127
49.14426303854875	49.295192743764176	72	127
49.295192743764176	49.46934240362812	80	127
49.295192743764176	49.46934240362812	68	127
49.48095238095238	49.73637188208617	53	127
49.48095238095238	49.73637188208617	56	127
49.73637188208617	50.02662131519274	56	127
49.73637188208617	50.02662131519274	60	127
50.038231292517004	50.18916099773243	80	127
50.038231292517004	50.18916099773243	68	127
50.18916099773243	50.30526077097505	77	127
50.18916099773243	50.30526077097505	65	127
50.30526077097505	50.61873015873016	56	127
50.30526077097505	50.61873015873016	53	127
50.63034013605442	50.89736961451247	77	127
50.63034013605442	50.89736961451247	65	127
50.63034013605442	50.89736961451247	60	127
50.63034013605442	50.89736961451247	56	127
50.89736961451247	51.22244897959184	70	127
50.89736961451247	51.22244897959184	82	127
51.2340589569161	51.43142857142857	72	127
51.2340589569161	51.48947845804989	58	127
51.2340589569161	51.43142857142857	84	127
51.2340589569161	51.48947845804989	53	127
51.48947845804989	51.82616780045351	61	127
51.48947845804989	51.75650793650794	85	127
51.48947845804989	51.75650793650794	73	127
51.48947845804989	51.82616780045351	58	127
51.82616780045351	52.38344671201814	84	127
51.82616780045351	52.38344671201814	72	127
52.11641723356009	52.38344671201814	56	127
52.11641723356009	52.38344671201814	53	127
52.38344671201814	52.65047619047619	77	127
52.38344671201814	52.65047619047619	65	127
52.38344671201814	52.65047619047619	60	127
52.38344671201814	52.65047619047619	56	127
52.673696145124715	52.98716553287982	70	127
52.673696145124715	52.98716553287982	82	127
52.98716553287982	53.18453514739229	72	127
52.98716553287982	53.18453514739229	84	127
52.98716553287982	53.24258503401361	58	127
52.98716553287982	53.24258503401361	53	127
53.26580498866213	53.439954648526076	85	127
53.26580498866213	53.439954648526076	73	127
53.26580498866213	53.544444444444444	61	127
53.26580498866213	53.544444444444444	58	127
53.544444444444444	54.13655328798186	84	127
53.544444444444444	54.13655328798186	72	127
53.881133786848075	54.13655328798186	53	127
53.881133786848075	54.13655328798186	56	127
54.13655328798186	54.4384126984127	77	127
54.13655328798186	54.4384126984127	65	127
54.13655328798186	54.4384126984127	60	127
54.13655328798186	54.4384126984127	56	127
54.473242630385485	54.77510204081633	77	127
54.473242630385485	54.77510204081633	68	127
54.473242630385485	54.77510204081633	48	127
54.77510204081633	55.04213151927438	76	127
54.77510204081633	55.04213151927438	67	127
54.77510204081633	55.04213151927438	48	127
55.05374149659864	55.33238095238095	77	127
55.05374149659864	55.33238095238095	65	127
55.05374149659864	55.33238095238095	60	127
55.33238095238095	55.599410430839	80	127
55.33238095238095	55.599410430839	65	127
55.61102040816326	55.88965986394558	79	127
55.61102040816326	55.88965986394558	64	127
55.61102040816326	55.88965986394558	48	127
55.88965986394558	56.16829931972789	80	127
55.88965986394558	56.16829931972789	65	127
55.88965986394558	56.16829931972789	60	127
55.88965986394558	56.16829931972789	68	127
56.16829931972789	56.226349206349205	79	127
56.16829931972789	56.42371882086168	64	127
56.16829931972789	56.42371882086168	67	127
56.226349206349205	56.67913832199547	84	127
56.43532879818594	56.67913832199547	67	127
56.43532879818594	56.67913832199547	48	127
56.43532879818594	56.67913832199547	64	127
56.67913832199547	56.876507936507934	82	127
56.67913832199547	57.06226757369615	64	127
56.67913832199547	57.06226757369615	60	127
56.67913832199547	57.06226757369615	67	127
56.876507936507934	57.07387755102041	79	127
57.07387755102041	57.35251700680272	82	127
57.07387755102041	57.35251700680272	68	127
57.07387755102041	57.35251700680272	65	127
57.35251700680272	57.549886621315196	80	127
57.35251700680272	57.60793650793651	56	127
57.35251700680272	57.60793650793651	48	127
57.35251700680272	57.60793650793651	53	127
57.61954648526077	57.87496598639456	60	127
57.61954648526077	57.79369614512472	77	127
57.61954648526077	57.87496598639456	56	127
57.61954648526077	57.87496598639456	53	127
57.87496598639456	58.141995464852606	58	127
57.87496598639456	58.141995464852606	55	127
57.87496598639456	57.94462585034014	77	127
57.87496598639456	58.141995464852606	48	127
57.94462585034014	58.00267573696145	79	127
58.00267573696145	58.15360544217687	77	127
58.15360544217687	58.39741496598639	76	127
58.15360544217687	58.39741496598639	70	127
58.15360544217687	58.39741496598639	55	127
58.15360544217687	58.39741496598639	49	127
58.39741496598639	58.65283446712018	53	127
58.39741496598639	58.65283446712018	77	127
58.39741496598639	58.65283446712018	68	127
58.39741496598639	58.65283446712018	48	127
58.66444444444444	58.72249433106576	80	127
58.66444444444444	58.91986394557823	68	127
58.66444444444444	58.91986394557823	53	127
58.66444444444444	58.91986394557823	41	127
58.72249433106576	58.792154195011335	82	127
58.792154195011335	58.91986394557823	80	127
58.91986394557823	59.19850340136055	79	127
58.91986394557823	59.19850340136055	73	127
58.91986394557823	59.19850340136055	58	127
58.91986394557823	59.19850340136055	40	127
59.21011337868481	59.47714285714286	41	127
59.21011337868481	59.47714285714286	80	127
59.21011337868481	59.47714285714286	72	127
59.21011337868481	59.47714285714286	56	127
59.47714285714286	59.570022675736965	79	127
59.47714285714286	59.74417233560091	67	127
59.47714285714286	59.74417233560091	55	127
59.47714285714286	59.74417233560091	40	127
59.570022675736965	60.02281179138322	84	127
59.75578231292517	60.02281179138322	64	127
59.75578231292517	60.02281179138322	76	127
59.75578231292517	60.02281179138322	37	127
60.02281179138322	60.17374149659864	82	127
60.02281179138322	60.17374149659864	79	127
60.02281179138322	60.17374149659864	67	127
60.02281179138322	60.34789115646259	36	127
60.17374149659864	60.34789115646259	79	127
60.17374149659864	60.34789115646259	64	127
60.17374149659864	60.34789115646259	76	127
60.34789115646259	60.59170068027211	82	127
60.34789115646259	60.59170068027211	79	127
60.34789115646259	60.59170068027211	64	127
60.34789115646259	60.59170068027211	41	127
60.603310657596374	60.78907029478458	80	127
60.603310657596374	60.8471201814059	77	127
60.603310657596374	60.8471201814059	72	127
60.603310657596374	60.8471201814059	44	127
60.8471201814059	61.02126984126984	77	127
60.8471201814059	61.09092970521542	56	127
60.8471201814059	61.09092970521542	53	127
60.8471201814059	61.09092970521542	47	127
61.102539682539685	61.218639455782316	84	127
61.102539682539685	61.218639455782316	55	127
61.102539682539685	61.218639455782316	52	127
61.102539682539685	61.218639455782316	48	127
61.218639455782316	61.34634920634921	52	127
61.218639455782316	61.34634920634921	55	127
61.218639455782316	61.34634920634921	48	127
61.218639455782316	61.34634920634921	82	127
61.34634920634921	61.45083900226757	56	127
61.34634920634921	61.45083900226757	53	127
61.34634920634921	61.45083900226757	48	127
61.34634920634921	61.462448979591834	79	127
61.462448979591834	61.55532879818594	56	127
61.462448979591834	61.55532879818594	53	127
61.462448979591834	61.55532879818594	48	127
61.462448979591834	61.5669387755102	80	127
61.5669387755102	61.694648526077096	56	127
61.5669387755102	61.694648526077096	53	127
61.5669387755102	61.694648526077096	48	127
61.5669387755102	61.694648526077096	76	127
61.694648526077096	61.82235827664399	56	127
61.694648526077096	61.82235827664399	53	127
61.694648526077096	61.82235827664399	48	127
61.694648526077096	61.82235827664399	77	127
61.82235827664399	61.93845804988662	55	127
61.82235827664399	61.93845804988662	52	127
61.82235827664399	61.93845804988662	48	127
61.82235827664399	61.93845804988662	71	127
61.93845804988662	62.05455782312925	55	127
61.93845804988662	62.05455782312925	52	127
61.93845804988662	62.05455782312925	48	127
61.93845804988662	62.06616780045351	72	127
62.06616780045351	62.17065759637188	53	127
62.06616780045351	62.17065759637188	56	127
62.06616780045351	62.17065759637188	48	127
62.06616780045351	62.17065759637188	67	127
62.17065759637188	62.298367346938775	53	127
62.17065759637188	62.298367346938775	56	127
62.17065759637188	62.298367346938775	48	127
62.17065759637188	62.298367346938775	68	127
62.298367346938775	62.42607709750567	56	127
62.298367346938775	62.42607709750567	53	127
62.298367346938775	62.42607709750567	48	127
62.298367346938775	62.42607709750567	64	127
62.42607709750567	62.5421768707483	56	127
62.42607709750567	62.5421768707483	53	127
62.42607709750567	62.5421768707483	48	127
62.42607709750567	62.55378684807256	65	127
62.55378684807256	63.08784580498866	55	127
62.55378684807256	62.71632653061224	60	127
62.55378684807256	63.08784580498866	48	127
62.55378684807256	63.08784580498866	52	127
62.71632653061224	62.832426303854874	61	127
62.832426303854874	62.96013605442177	62	127
62.96013605442177	63.09945578231292	63	127
63.09945578231292	63.227165532879816	64	127
63.227165532879816	63.35487528344671	65	127
63.35487528344671	63.47097505668934	66	127
63.47097505668934	63.598684807256234	67	127
63.598684807256234	63.72639455782313	68	127
63.72639455782313	63.85410430839002	69	127
63.85410430839002	63.95859410430839	70	127
63.95859410430839	64.07469387755103	71	127
64.07469387755103	64.22562358276645	72	127
64.22562358276645	64.35333333333334	73	127
64.35333333333334	64.44621315192744	74	127
64.44621315192744	64.59714285714286	75	127
64.59714285714286	64.70163265306122	76	127
64.70163265306122	64.82934240362812	77	127
64.82934240362812	64.94541950113378	79	127
64.94541950113378	65.09637188208617	80	127
65.09637188208617	65.24730158730159	72	127
65.09637188208617	65.24730158730159	60	127
65.09637188208617	65.24730158730159	60	127
65.09637188208617	65.24730158730159	81	127
65.24730158730159	65.36340136054422	60	127
65.24730158730159	65.36340136054422	72	127
65.24730158730159	65.36340136054422	60	127
65.24730158730159	65.36340136054422	82	127
65.36340136054422	65.47950113378685	72	127
65.36340136054422	65.47950113378685	60	127
65.36340136054422	65.47950113378685	60	127
65.36340136054422	65.47950113378685	83	127
65.47950113378685	65.64204081632653	72	127
65.47950113378685	65.64204081632653	60	127
65.47950113378685	65.64204081632653	60	127
65.47950113378685	65.64204081632653	84	127
65.64204081632653	66.22251700680272	85	127
65.64204081632653	66.22251700680272	73	127
65.64204081632653	66.22251700680272	61	127
65.64204081632653	66.22251700680272	61	127
67.62734693877552	70.71560090702948	67	127
67.62734693877552	70.71560090702948	70	127
68.75349206349206	70.71560090702948	52	127
68.75349206349206	70.71560090702948	61	127
71.4121768707483	71.53988662131519	60	127
71.4121768707483	71.65600907029479	41	127
71.4121768707483	72.19006802721088	56	127
71.4121768707483	71.53988662131519	72	127
71.4121768707483	72.19006802721088	65	127
71.53988662131519	71.66759637188208	68	127
71.53988662131519	71.66759637188208	56	127
71.66759637188208	71.92301587301587	41	127
71.92301587301587	72.19006802721088	44	127
72.21328798185941	72.38743764172335	68	127
72.21328798185941	72.38743764172335	77	127
72.21328798185941	72.38743764172335	56	127
72.38743764172335	72.59641723356009	65	127
72.38743764172335	72.59641723356009	80	127
72.38743764172335	72.59641723356009	53	127
72.59641723356009	72.72412698412698	79	127
72.59641723356009	72.85183673469388	41	127
72.72412698412698	72.86344671201815	77	127
72.86344671201815	72.99115646258504	76	127
72.86344671201815	73.10725623582766	44	127
72.99115646258504	73.10725623582766	77	127
73.10725623582766	73.2814058956916	72	127
73.10725623582766	73.2814058956916	60	127
73.10725623582766	73.39750566893424	41	127
73.10725623582766	73.94315192743764	65	127
73.10725623582766	73.94315192743764	56	127
73.2814058956916	73.4091156462585	68	127
73.2814058956916	73.4091156462585	56	127
73.4091156462585	73.67614512471656	41	127
73.67614512471656	73.94315192743764	44	127
73.95478458049887	74.08249433106576	77	127
73.95478458049887	74.08249433106576	68	127
73.95478458049887	74.08249433106576	56	127
74.08249433106576	74.26825396825397	65	127
74.08249433106576	74.26825396825397	80	127
74.08249433106576	74.26825396825397	53	127
74.26825396825397	74.40757369614512	79	127
74.26825396825397	74.53528344671201	41	127
74.40757369614512	74.53528344671201	77	127
74.53528344671201	74.77909297052155	44	127
74.53528344671201	74.67460317460318	76	127
74.53528344671201	74.77909297052155	53	127
74.67460317460318	74.7907029478458	77	127
74.7907029478458	75.01129251700681	70	127
74.7907029478458	75.01129251700681	58	127
75.01129251700681	75.12739229024943	76	127
75.01129251700681	75.18544217687075	72	127
75.01129251700681	75.18544217687075	60	127
75.01129251700681	75.24349206349207	41	127
75.12739229024943	75.25510204081633	82	127
75.25510204081633	75.34795918367347	79	127
75.25510204081633	75.40603174603174	73	127
75.25510204081633	75.40603174603174	61	127
75.25510204081633	75.47566893424036	46	127
75.34795918367347	75.47566893424036	76	127
75.47566893424036	75.97492063492064	72	127
75.47566893424036	75.97492063492064	60	127
75.73108843537415	75.84721088435374	77	127
75.73108843537415	75.97492063492064	41	127
75.84721088435374	75.97492063492064	84	127
75.97492063492064	76.2187074829932	65	127
75.97492063492064	76.2187074829932	53	127
75.97492063492064	76.2187074829932	44	127
75.97492063492064	76.10263038548753	80	127
76.10263038548753	76.23034013605442	77	127
76.23034013605442	76.49734693877551	70	127
76.23034013605442	76.49734693877551	58	127
76.49734693877551	76.741179138322	41	127
76.49734693877551	76.6250566893424	76	127
76.49734693877551	76.68312925170068	72	127
76.49734693877551	76.68312925170068	60	127
76.6250566893424	76.7527664399093	82	127
76.7527664399093	76.88047619047619	79	127
76.7527664399093	76.91532879818594	73	127
76.7527664399093	76.91532879818594	61	127
76.7527664399093	76.97337868480726	46	127
76.88047619047619	76.97337868480726	76	127
76.97337868480726	77.66997732426304	72	127
76.97337868480726	77.66997732426304	60	127
77.41455782312926	77.5538775510204	77	127
77.41455782312926	77.66997732426304	41	127
77.5538775510204	77.66997732426304	84	127
77.66997732426304	77.91378684807256	44	127
77.66997732426304	77.79768707482994	80	127
77.66997732426304	77.91378684807256	65	127
77.66997732426304	77.91378684807256	53	127
77.79768707482994	77.92539682539683	77	127
77.92539682539683	78.14598639455782	53	127
77.92539682539683	78.14598639455782	36	127
77.92539682539683	78.14598639455782	65	127
78.14598639455782	78.27369614512472	79	127
78.14598639455782	78.41301587301588	64	127
78.14598639455782	78.41301587301588	52	127
78.14598639455782	78.41301587301588	36	127
78.27369614512472	78.41301587301588	84	127
78.41301587301588	78.54072562358277	80	127
78.41301587301588	78.6568253968254	65	127
78.41301587301588	78.6568253968254	53	127
78.41301587301588	78.6568253968254	48	127
78.66843537414967	78.91224489795918	68	127
78.66843537414967	78.91224489795918	56	127
78.91224489795918	79.14444444444445	76	127
78.91224489795918	79.31859410430839	67	127
78.91224489795918	79.31859410430839	55	127
78.91224489795918	79.31859410430839	36	127
79.14444444444445	79.33020408163266	84	127
79.33020408163266	79.45791383219955	77	127
79.33020408163266	79.58562358276644	68	127
79.33020408163266	79.58562358276644	56	127
79.33020408163266	79.58562358276644	48	127
79.58562358276644	79.84104308390023	76	127
79.58562358276644	80.10807256235827	72	127
79.58562358276644	80.10807256235827	60	127
79.86426303854876	80.10807256235827	36	127
79.86426303854876	80.61891156462585	88	127
80.10807256235827	80.24739229024944	70	127
80.10807256235827	80.24739229024944	58	127
80.10807256235827	80.36349206349206	48	127
80.24739229024944	80.37510204081633	67	127
80.24739229024944	80.37510204081633	55	127
80.37510204081633	80.61891156462585	70	127
80.37510204081633	80.61891156462585	58	127
80.61891156462585	80.79303854875283	56	127
80.61891156462585	80.79303854875283	68	127
80.61891156462585	80.79303854875283	89	127
80.61891156462585	80.85111111111111	36	127
80.86272108843538	81.04845804988662	65	127
80.86272108843538	81.04845804988662	80	127
80.86272108843538	81.04845804988662	53	127
80.86272108843538	81.11814058956917	48	127
81.11814058956917	81.42	65	127
81.11814058956917	81.42	53	127
81.4315873015873	81.57092970521542	79	127
81.4315873015873	81.71024943310658	64	127
81.4315873015873	81.71024943310658	52	127
81.4315873015873	81.71024943310658	36	127
81.57092970521542	81.71024943310658	84	127
81.71024943310658	81.87278911564626	80	127
81.71024943310658	82.00049886621315	65	127
81.71024943310658	82.00049886621315	53	127
81.71024943310658	82.00049886621315	48	127
82.01210884353742	82.25591836734694	68	127
82.01210884353742	82.25591836734694	56	127
82.25591836734694	82.55777777777777	36	127
82.25591836734694	82.40684807256235	76	127
82.25591836734694	82.55777777777777	67	127
82.25591836734694	82.55777777777777	55	127
82.40684807256235	82.55777777777777	84	127
82.55777777777777	82.83639455782313	48	127
82.55777777777777	82.83639455782313	69	127
82.55777777777777	82.72031746031746	60	127
82.72031746031746	82.83639455782313	63	127
82.84802721088435	82.96410430839002	61	127
82.84802721088435	83.12666666666667	72	127
82.96410430839002	83.12666666666667	65	127
83.12666666666667	83.25437641723356	61	127
83.12666666666667	83.3704761904762	70	127
83.25437641723356	83.38208616780045	65	127
83.38208616780045	83.49818594104309	62	127
83.38208616780045	83.62589569160998	71	127
83.49818594104309	83.62589569160998	65	127
83.62589569160998	83.7768253968254	63	127
83.62589569160998	83.9045351473923	74	127
83.7768253968254	83.91614512471655	67	127
83.91614512471655	84.03224489795919	63	127
83.91614512471655	84.14834467120181	72	127
84.03224489795919	84.14834467120181	67	127
84.14834467120181	84.39215419501134	40	127
84.14834467120181	84.39215419501134	73	127
84.14834467120181	84.65918367346939	48	127
84.2760544217687	84.39215419501134	60	127
84.4037641723356	84.51986394557824	56	127
84.4037641723356	84.65918367346939	75	127
84.4037641723356	84.65918367346939	41	127
84.51986394557824	84.65918367346939	60	127
84.65918367346939	84.78689342403628	48	127
84.65918367346939	84.78689342403628	56	127
84.65918367346939	84.91460317460317	74	127
84.65918367346939	84.91460317460317	41	127
84.78689342403628	84.92621315192744	60	127
84.78689342403628	84.92621315192744	60	127
84.92621315192744	85.05392290249434	48	127
84.92621315192744	85.19324263038548	76	127
84.92621315192744	85.19324263038548	43	127
84.92621315192744	85.05392290249434	58	127
85.05392290249434	85.19324263038548	60	127
85.05392290249434	85.19324263038548	60	127
85.19324263038548	85.30934240362812	60	127
85.19324263038548	85.30934240362812	48	127
85.19324263038548	85.41383219954649	79	127
85.19324263038548	85.41383219954649	44	127
85.30934240362812	85.42544217687075	60	127
85.30934240362812	85.42544217687075	65	127
85.42544217687075	85.55315192743764	60	127
85.42544217687075	85.55315192743764	48	127
85.42544217687075	85.66925170068028	77	127
85.42544217687075	85.66925170068028	44	127
85.55315192743764	85.66925170068028	65	127
85.55315192743764	85.66925170068028	60	127
85.66925170068028	85.84340136054422	60	127
85.66925170068028	85.84340136054422	48	127
85.66925170068028	85.95950113378684	78	127
85.66925170068028	85.95950113378684	45	127
85.84340136054422	85.97111111111111	66	127
85.84340136054422	85.97111111111111	60	127
85.97111111111111	86.11043083900226	62	127
85.97111111111111	86.11043083900226	50	127
85.97111111111111	86.2265306122449	80	127
85.97111111111111	86.2265306122449	47	127
86.11043083900226	86.2265306122449	55	127
86.11043083900226	86.2265306122449	67	127
86.2265306122449	86.36582766439909	62	127
86.2265306122449	86.36582766439909	50	127
86.2265306122449	86.51675736961451	79	127
86.2265306122449	86.51675736961451	47	127
86.36582766439909	86.51675736961451	67	127
86.36582766439909	86.51675736961451	55	127
86.51675736961451	86.62124716553288	63	127
86.51675736961451	86.62124716553288	51	127
86.51675736961451	86.7257596371882	80	127
86.51675736961451	86.7257596371882	48	127
86.62124716553288	86.73736961451247	55	127
86.62124716553288	86.73736961451247	67	127
86.73736961451247	86.8534693877551	69	127
86.73736961451247	86.8534693877551	66	127
86.73736961451247	86.8534693877551	51	127
86.73736961451247	87.21337868480725	69	127
86.73736961451247	87.21337868480725	81	127
86.73736961451247	87.21337868480725	36	127
86.73736961451247	87.21337868480725	48	127
86.8534693877551	86.98117913832199	57	127
86.8534693877551	86.98117913832199	54	127
86.98117913832199	87.09727891156463	60	127
86.98117913832199	87.09727891156463	57	127
87.10888888888888	87.21337868480725	60	127
87.10888888888888	87.21337868480725	57	127
87.22498866213152	87.35269841269842	60	127
87.22498866213152	87.35269841269842	57	127
87.35269841269842	87.48040816326531	57	127
87.35269841269842	87.48040816326531	60	127
87.48040816326531	87.58489795918368	60	127
87.48040816326531	87.58489795918368	57	127
87.59650793650793	87.71260770975057	57	127
87.59650793650793	87.71260770975057	54	127
87.72421768707483	87.8287074829932	60	127
87.72421768707483	87.8287074829932	57	127
87.8287074829932	87.95641723356009	60	127
87.8287074829932	87.95641723356009	57	127
87.95641723356009	88.08412698412698	60	127
87.95641723356009	88.08412698412698	57	127
88.09573696145125	88.21183673469388	57	127
88.09573696145125	88.21183673469388	60	127
88.1537641723356	88.29310657596372	75	127
88.22344671201814	88.35115646258504	60	127
88.22344671201814	88.35115646258504	57	127
88.22344671201814	88.80394557823129	48	127
88.22344671201814	88.80394557823129	87	127
88.22344671201814	88.80394557823129	36	127
88.35115646258504	88.49047619047619	57	127
88.35115646258504	88.49047619047619	54	127
88.49047619047619	88.6762358276644	57	127
88.49047619047619	88.6762358276644	60	127
88.6762358276644	88.80394557823129	60	127
88.6762358276644	88.80394557823129	57	127
88.81555555555556	88.93165532879819	60	127
88.81555555555556	88.93165532879819	57	127
88.94326530612246	89.05936507936508	57	127
88.94326530612246	89.05936507936508	60	127
89.05936507936508	89.18707482993197	60	127
89.05936507936508	89.18707482993197	57	127
89.18707482993197	89.19868480725624	57	127
89.18707482993197	89.19868480725624	54	127
89.19868480725624	89.27995464852607	60	127
89.19868480725624	89.27995464852607	57	127
89.27995464852607	89.37283446712019	60	127
89.27995464852607	89.37283446712019	57	127
89.37283446712019	89.48893424036281	60	127
89.37283446712019	89.48893424036281	57	127
89.48893424036281	89.60503401360545	57	127
89.48893424036281	89.60503401360545	60	127
89.6166439909297	89.72113378684807	60	127
89.6166439909297	89.72113378684807	57	127
89.6166439909297	90.069410430839	57	127
89.6166439909297	90.069410430839	36	127
89.6166439909297	90.069410430839	48	127
89.73274376417234	89.84884353741496	57	127
89.73274376417234	89.84884353741496	54	127
89.84884353741496	89.9417006802721	57	127
89.84884353741496	89.9417006802721	60	127
89.9417006802721	90.069410430839	60	127
89.9417006802721	90.069410430839	57	127
90.069410430839	90.1855328798186	60	127
90.069410430839	90.1855328798186	57	127
90.1971201814059	90.31324263038549	57	127
90.1971201814059	90.31324263038549	60	127
90.25519274376417	90.37129251700681	75	127
90.32482993197279	90.44095238095238	60	127
90.32482993197279	90.44095238095238	57	127
90.32482993197279	90.80086167800454	87	127
90.32482993197279	90.80086167800454	39	127
90.44095238095238	90.56866213151928	57	127
90.44095238095238	90.56866213151928	54	127
90.56866213151928	90.68473922902494	57	127
90.56866213151928	90.68473922902494	60	127
90.69637188208617	90.80086167800454	57	127
90.69637188208617	90.80086167800454	60	127
90.81244897959184	90.92857142857143	60	127
90.81244897959184	90.92857142857143	57	127
90.92857142857143	91.05628117913832	57	127
90.92857142857143	91.05628117913832	60	127
90.998231292517	91.11433106575964	57	127
91.05628117913832	91.19557823129252	60	127
91.05628117913832	91.19557823129252	57	127
91.05628117913832	91.5671201814059	69	127
91.05628117913832	91.5671201814059	48	127
91.20721088435374	91.32328798185941	57	127
91.20721088435374	91.32328798185941	54	127
91.33492063492064	91.4509977324263	57	127
91.33492063492064	91.4509977324263	60	127
91.4509977324263	91.5671201814059	57	127
91.4509977324263	91.5671201814059	60	127
91.5671201814059	91.64839002267574	60	127
91.5671201814059	91.64839002267574	57	127
91.66	91.75287981859411	57	127
91.66	91.75287981859411	60	127
91.76448979591837	91.880589569161	62	127
91.76448979591837	91.880589569161	59	127
91.76448979591837	91.880589569161	56	127
91.880589569161	92.0082993197279	56	127
91.880589569161	92.0082993197279	62	127
91.880589569161	92.0082993197279	53	127
92.0082993197279	92.14761904761905	59	127
92.0082993197279	92.14761904761905	62	127
92.0082993197279	92.14761904761905	56	127
92.14761904761905	92.26371882086168	59	127
92.14761904761905	92.26371882086168	62	127
92.14761904761905	92.26371882086168	56	127
92.27532879818594	92.39142857142858	59	127
92.27532879818594	92.39142857142858	62	127
92.27532879818594	92.39142857142858	56	127
92.40303854875283	92.5075283446712	59	127
92.40303854875283	92.5075283446712	62	127
92.40303854875283	92.5075283446712	56	127
92.5075283446712	93.01836734693877	47	127
92.5075283446712	93.01836734693877	74	127
92.5075283446712	93.01836734693877	65	127
92.5075283446712	92.6352380952381	59	127
92.5075283446712	92.6352380952381	62	127
92.5075283446712	92.6352380952381	56	127
92.5075283446712	93.01836734693877	80	127
92.6352380952381	92.75133786848073	62	127
92.6352380952381	92.75133786848073	56	127
92.6352380952381	92.75133786848073	53	127
92.76294784580499	92.87904761904763	62	127
92.76294784580499	92.87904761904763	56	127
92.76294784580499	92.87904761904763	59	127
92.89065759637188	93.01836734693877	59	127
92.89065759637188	93.01836734693877	62	127
92.89065759637188	93.01836734693877	56	127
93.01836734693877	93.14607709750567	62	127
93.01836734693877	93.14607709750567	59	127
93.01836734693877	93.14607709750567	56	127
93.14607709750567	93.25056689342404	59	127
93.14607709750567	93.25056689342404	62	127
93.14607709750567	93.25056689342404	56	127
93.2621768707483	93.37827664399093	59	127
93.2621768707483	93.37827664399093	62	127
93.2621768707483	93.37827664399093	56	127
93.3898866213152	93.4943537414966	56	127
93.3898866213152	93.4943537414966	62	127
93.3898866213152	93.4943537414966	53	127
93.4943537414966	93.5756462585034	59	127
93.4943537414966	93.5756462585034	62	127
93.4943537414966	93.5756462585034	56	127
93.5756462585034	93.69174603174604	59	127
93.5756462585034	93.69174603174604	62	127
93.5756462585034	93.69174603174604	56	127
93.69174603174604	93.78462585034013	59	127
93.69174603174604	93.78462585034013	62	127
93.69174603174604	93.78462585034013	56	127
93.7962358276644	93.91233560090703	59	127
93.7962358276644	93.91233560090703	62	127
93.7962358276644	93.91233560090703	56	127
93.85426303854875	93.97038548752835	74	127
93.91233560090703	94.04004535147392	59	127
93.91233560090703	94.04004535147392	62	127
93.91233560090703	94.04004535147392	56	127
93.91233560090703	94.38832199546485	89	127
93.91233560090703	94.38832199546485	47	127
94.04004535147392	94.15614512471656	53	127
94.04004535147392	94.15614512471656	56	127
94.04004535147392	94.15614512471656	62	127
94.15614512471656	94.27224489795918	56	127
94.15614512471656	94.27224489795918	59	127
94.15614512471656	94.27224489795918	62	127
94.28385487528345	94.38832199546485	56	127
94.28385487528345	94.38832199546485	59	127
94.28385487528345	94.38832199546485	62	127
94.39995464852608	94.50444444444445	59	127
94.39995464852608	94.50444444444445	62	127
94.39995464852608	94.50444444444445	56	127
94.50444444444445	94.62052154195011	59	127
94.50444444444445	94.62052154195011	62	127
94.50444444444445	94.62052154195011	56	127
94.62052154195011	94.71342403628118	59	127
94.62052154195011	94.71342403628118	62	127
94.62052154195011	94.71342403628118	56	127
94.72503401360544	94.84113378684808	56	127
94.72503401360544	94.84113378684808	62	127
94.72503401360544	94.84113378684808	53	127
94.85274376417233	94.96884353741497	59	127
94.85274376417233	94.96884353741497	62	127
94.85274376417233	94.96884353741497	56	127
94.96884353741497	95.09655328798186	59	127
94.96884353741497	95.09655328798186	62	127
94.96884353741497	95.09655328798186	56	127
95.09655328798186	95.20104308390023	56	127
95.09655328798186	95.20104308390023	62	127
95.09655328798186	95.20104308390023	59	127
95.20104308390023	95.22426303854876	56	127
95.20104308390023	95.22426303854876	62	127
95.20104308390023	95.22426303854876	59	127
95.23587301587301	95.35197278911565	56	127
95.23587301587301	95.67705215419501	59	127
95.23587301587301	95.35197278911565	59	127
95.23587301587301	95.35197278911565	62	127
95.23587301587301	95.67705215419501	68	127
95.35197278911565	95.47968253968254	53	127
95.35197278911565	95.47968253968254	56	127
95.35197278911565	95.47968253968254	62	127
95.47968253968254	95.56095238095239	62	127
95.47968253968254	95.56095238095239	59	127
95.47968253968254	95.56095238095239	56	127
95.56095238095239	95.67705215419501	62	127
95.56095238095239	95.67705215419501	56	127
95.56095238095239	95.67705215419501	59	127
95.68866213151928	95.8047619047619	59	127
95.68866213151928	95.8047619047619	62	127
95.68866213151928	95.8047619047619	56	127
95.81637188208617	95.94408163265307	59	127
95.81637188208617	95.94408163265307	62	127
95.81637188208617	95.94408163265307	56	127
95.88603174603175	95.97891156462585	62	127
95.94408163265307	96.04857142857144	59	127
95.94408163265307	96.04857142857144	56	127
95.94408163265307	96.338820861678	77	127
95.94408163265307	96.338820861678	47	127
95.94408163265307	96.04857142857144	62	127
96.04857142857144	96.15306122448979	53	127
96.04857142857144	96.15306122448979	56	127
96.04857142857144	96.15306122448979	62	127
96.15306122448979	96.25755102040816	56	127
96.15306122448979	96.25755102040816	59	127
96.15306122448979	96.25755102040816	62	127
96.26916099773243	96.338820861678	62	127
96.26916099773243	96.338820861678	56	127
96.26916099773243	96.338820861678	59	127
96.338820861678	96.43170068027212	59	127
96.338820861678	96.43170068027212	56	127
96.338820861678	96.43170068027212	62	127
96.43170068027212	96.53619047619047	62	127
96.43170068027212	96.53619047619047	56	127
96.43170068027212	96.53619047619047	59	127
96.48975056689342	96.60585034013606	59	127
96.54780045351474	96.80321995464853	47	127
96.54780045351474	96.66390022675736	59	127
96.54780045351474	96.66390022675736	62	127
96.54780045351474	96.66390022675736	56	127
96.54780045351474	97.07024943310658	71	127
96.67551020408163	96.80321995464853	56	127
96.67551020408163	96.80321995464853	53	127
96.67551020408163	96.80321995464853	62	127
96.80321995464853	96.94253968253969	65	127
96.80321995464853	96.94253968253969	68	127
96.80321995464853	96.94253968253969	62	127
96.94253968253969	97.07024943310658	65	127
96.94253968253969	97.07024943310658	62	127
96.94253968253969	97.07024943310658	68	127
97.07024943310658	97.1863492063492	65	127
97.07024943310658	97.1863492063492	62	127
97.07024943310658	97.1863492063492	68	127
97.19795918367348	97.3140589569161	62	127
97.19795918367348	97.3140589569161	68	127
97.19795918367348	97.3140589569161	65	127
97.3140589569161	97.43015873015872	67	127
97.3140589569161	97.55786848072562	65	127
97.3140589569161	97.55786848072562	62	127
97.3140589569161	98.20802721088435	79	127
97.43015873015872	97.55786848072562	71	127
97.55786848072562	97.68557823129251	74	127
97.55786848072562	97.80167800453515	65	127
97.55786848072562	97.80167800453515	62	127
97.68557823129251	97.8132879818594	71	127
97.8132879818594	98.09192743764173	63	127
97.8132879818594	98.09192743764173	60	127
97.8132879818594	97.96421768707484	72	127
97.96421768707484	98.09192743764173	75	127
98.09192743764173	98.33573696145125	67	127
98.09192743764173	98.33573696145125	62	127
98.09192743764173	98.33573696145125	59	127
98.21963718820862	98.34734693877552	83	127
98.34734693877552	98.6027664399093	53	127
98.34734693877552	98.46344671201814	86	127
98.34734693877552	98.6027664399093	43	127
98.34734693877552	98.90462585034014	79	127
98.46344671201814	98.6027664399093	83	127
98.6027664399093	98.90462585034014	51	127
98.6027664399093	98.90462585034014	48	127
98.6027664399093	98.77691609977325	84	127
98.77691609977325	98.9162358276644	87	127
98.9162358276644	99.04394557823129	67	127
98.9162358276644	99.1948752834467	65	127
98.9162358276644	99.83342403628117	79	127
98.9162358276644	99.1948752834467	62	127
99.04394557823129	99.1948752834467	71	127
99.1948752834467	99.3225850340136	74	127
99.1948752834467	99.43868480725624	65	127
99.1948752834467	99.43868480725624	62	127
99.3225850340136	99.45029478458049	71	127
99.45029478458049	99.69410430839002	60	127
99.45029478458049	99.57800453514739	72	127
99.45029478458049	99.69410430839002	63	127
99.57800453514739	99.69410430839002	75	127
99.69410430839002	99.94952380952381	67	127
99.69410430839002	99.94952380952381	62	127
99.69410430839002	99.94952380952381	59	127
99.83342403628117	99.96113378684807	83	127
99.96113378684807	100.44875283446711	79	127
99.96113378684807	100.08884353741496	86	127
99.96113378684807	100.2049433106576	53	127
99.96113378684807	100.2049433106576	43	127
100.08884353741496	100.2049433106576	83	127
100.2049433106576	100.34426303854875	84	127
100.2049433106576	100.34426303854875	51	127
100.2049433106576	100.34426303854875	48	127
100.34426303854875	100.44875283446711	87	127
100.34426303854875	100.44875283446711	63	127
100.34426303854875	100.44875283446711	60	127
100.46036281179138	100.55324263038548	80	127
100.46036281179138	100.55324263038548	60	127
100.46036281179138	100.55324263038548	62	127
100.46036281179138	100.55324263038548	53	127
100.46036281179138	100.56485260770975	84	127
100.56485260770975	100.68095238095238	68	127
100.56485260770975	100.68095238095238	60	127
100.56485260770975	100.68095238095238	62	127
100.56485260770975	100.68095238095238	53	127
100.56485260770975	100.68095238095238	79	127
100.68095238095238	100.80866213151927	68	127
100.68095238095238	100.80866213151927	60	127
100.68095238095238	100.80866213151927	62	127
100.68095238095238	100.80866213151927	53	127
100.68095238095238	100.80866213151927	80	127
100.80866213151927	100.92476190476191	68	127
100.80866213151927	100.92476190476191	60	127
100.80866213151927	100.92476190476191	62	127
100.80866213151927	100.92476190476191	53	127
100.80866213151927	100.92476190476191	79	127
100.92476190476191	101.04086167800453	68	127
100.92476190476191	101.04086167800453	60	127
100.92476190476191	101.04086167800453	62	127
100.92476190476191	101.04086167800453	53	127
100.92476190476191	101.0524716553288	80	127
101.0524716553288	101.13374149659865	60	127
101.0524716553288	101.13374149659865	68	127
101.0524716553288	101.13374149659865	62	127
101.0524716553288	101.13374149659865	53	127
101.0524716553288	101.13374149659865	76	127
101.13374149659865	101.26145124716554	60	127
101.13374149659865	101.26145124716554	62	127
101.13374149659865	101.26145124716554	53	127
101.13374149659865	101.26145124716554	68	127
101.13374149659865	101.26145124716554	77	127
101.26145124716554	101.3659410430839	68	127
101.26145124716554	101.3659410430839	60	127
101.26145124716554	101.3659410430839	62	127
101.26145124716554	101.3659410430839	53	127
101.26145124716554	101.3659410430839	73	127
101.3659410430839	101.42399092970521	68	127
101.3659410430839	101.42399092970521	60	127
101.3659410430839	101.42399092970521	62	127
101.3659410430839	101.42399092970521	53	127
101.3659410430839	101.43560090702948	74	127
101.43560090702948	101.5517006802721	68	127
101.43560090702948	101.5517006802721	60	127
101.43560090702948	101.5517006802721	62	127
101.43560090702948	101.5517006802721	53	127
101.43560090702948	101.56331065759638	77	127
101.56331065759638	101.679410430839	68	127
101.56331065759638	101.679410430839	60	127
101.56331065759638	101.679410430839	62	127
101.56331065759638	101.679410430839	53	127
101.56331065759638	101.679410430839	79	127
101.679410430839	101.80712018140589	53	127
101.679410430839	101.80712018140589	68	127
101.679410430839	101.80712018140589	60	127
101.679410430839	101.80712018140589	62	127
101.679410430839	101.80712018140589	80	127
101.80712018140589	101.94643990929706	79	127
101.80712018140589	102.31795918367347	67	127
101.80712018140589	102.31795918367347	60	127
101.80712018140589	102.31795918367347	63	127
101.80712018140589	102.31795918367347	55	127
101.94643990929706	102.07414965986395	80	127
102.07414965986395	102.19024943310657	81	127
102.19024943310657	102.31795918367347	82	127
102.31795918367347	102.44566893424036	83	127
102.44566893424036	102.57337868480725	84	127
102.57337868480725	102.72430839002267	85	127
102.72430839002267	102.84040816326531	86	127
102.84040816326531	102.9681179138322	87	127
102.9681179138322	103.0958276643991	88	127
103.0958276643991	103.20031746031746	89	127
103.20031746031746	103.32802721088436	90	127
103.32802721088436	103.89691609977324	67	127
103.32802721088436	103.47895691609978	91	127
103.32802721088436	103.89691609977324	51	127
103.47895691609978	103.61827664399092	79	127
103.6298866213152	103.75759637188209	91	127
103.76920634920634	103.89691609977324	91	127
103.89691609977324	104.02462585034013	91	127
103.89691609977324	104.14072562358277	51	127
103.89691609977324	104.14072562358277	67	127
104.02462585034013	104.14072562358277	91	127
104.15233560090702	104.26843537414966	91	127
104.15233560090702	104.39614512471655	67	127
104.15233560090702	104.65156462585034	51	127
104.28004535147392	104.39614512471655	79	127
104.39614512471655	104.52385487528345	91	127
104.39614512471655	104.65156462585034	72	127
104.52385487528345	104.65156462585034	91	127
104.6631746031746	104.8837641723356	75	127
104.6631746031746	104.76766439909296	91	127
104.6631746031746	104.8837641723356	51	127
104.77927437641723	104.8837641723356	91	127
104.8837641723356	105.4178231292517	53	127
104.8837641723356	104.9766439909297	91	127
104.8837641723356	105.4178231292517	74	127
104.9766439909297	105.1043537414966	79	127
105.1043537414966	105.4178231292517	55	127
105.1043537414966	105.24367346938776	91	127
105.25528344671201	105.4178231292517	91	127
105.42943310657597	105.5455328798186	91	127
105.42943310657597	105.68485260770976	71	127
105.42943310657597	105.68485260770976	50	127
105.42943310657597	105.68485260770976	59	127
105.5455328798186	105.68485260770976	91	127
105.68485260770976	106.18408163265306	59	127
105.68485260770976	105.80095238095238	91	127
105.68485260770976	105.92866213151927	62	127
105.68485260770976	106.18408163265306	67	127
105.81256235827665	105.92866213151927	79	127
105.94027210884354	106.05637188208617	91	127
105.94027210884354	106.18408163265306	67	127
106.05637188208617	106.18408163265306	83	127
106.18408163265306	106.43950113378685	59	127
106.18408163265306	106.30018140589569	91	127
106.18408163265306	106.43950113378685	65	127
106.31179138321995	106.43950113378685	86	127
106.45111111111112	106.95034013605442	67	127
106.45111111111112	106.7065306122449	60	127
106.45111111111112	106.7065306122449	63	127
106.45111111111112	106.56721088435374	91	127
106.56721088435374	106.7065306122449	79	127
106.7065306122449	106.95034013605442	62	127
106.7065306122449	106.82263038548753	91	127
106.7065306122449	106.95034013605442	51	127
106.8342403628118	106.95034013605442	91	127
106.96195011337869	107.20575963718821	51	127
106.96195011337869	107.07804988662132	91	127
106.96195011337869	107.20575963718821	67	127
106.96195011337869	107.20575963718821	60	127
107.07804988662132	107.20575963718821	91	127
107.20575963718821	107.70498866213151	51	127
107.20575963718821	107.44956916099773	67	127
107.20575963718821	107.3334693877551	91	127
107.3334693877551	107.44956916099773	79	127
107.461179138322	107.70498866213151	72	127
107.461179138322	107.57727891156462	91	127
107.58888888888889	107.70498866213151	91	127
107.70498866213151	107.9604081632653	48	127
107.70498866213151	107.84430839002268	91	127
107.70498866213151	107.9604081632653	75	127
107.84430839002268	107.9604081632653	91	127
107.97201814058957	108.47124716553287	74	127
107.97201814058957	108.08811791383219	91	127
107.97201814058957	108.47124716553287	53	127
108.09972789115646	108.21582766439909	79	127
108.21582766439909	108.47124716553287	55	127
108.21582766439909	108.35514739229025	91	127
108.35514739229025	108.47124716553287	91	127
108.48285714285714	108.77310657596372	50	127
108.48285714285714	108.77310657596372	59	127
108.48285714285714	108.6221768707483	91	127
108.48285714285714	108.77310657596372	71	127
108.63378684807256	108.77310657596372	91	127
108.77310657596372	109.02852607709751	62	127
108.77310657596372	108.90081632653062	91	127
108.77310657596372	109.02852607709751	67	127
108.77310657596372	109.02852607709751	59	127
108.90081632653062	109.02852607709751	79	127
109.02852607709751	109.14462585034013	67	127
109.02852607709751	109.1562358276644	91	127
109.02852607709751	109.27233560090703	65	127
109.02852607709751	109.27233560090703	62	127
109.1562358276644	109.27233560090703	83	127
109.27233560090703	109.40004535147392	91	127
109.27233560090703	110.82807256235827	55	127
109.27233560090703	109.51614512471656	62	127
109.27233560090703	109.51614512471656	71	127
109.27233560090703	109.51614512471656	43	127
109.40004535147392	109.51614512471656	91	127
109.51614512471656	110.82807256235827	72	127
109.51614512471656	109.64385487528345	91	127
109.51614512471656	110.82807256235827	63	127
109.51614512471656	110.82807256235827	48	127
109.64385487528345	109.77156462585035	79	127
109.77156462585035	109.88766439909297	91	127
109.88766439909297	110.01537414965986	89	127
110.01537414965986	110.14308390022676	87	127
110.14308390022676	110.28240362811792	86	127
110.28240362811792	110.42172335600907	84	127
110.42172335600907	110.54943310657596	82	127
110.54943310657596	110.70036281179138	80	127
110.70036281179138	110.83968253968254	79	127
110.83968253968254	111.33891156462585	60	127
110.83968253968254	110.95578231292517	77	127
110.83968253968254	111.33891156462585	36	127
110.83968253968254	111.33891156462585	48	127
110.95578231292517	111.08349206349206	75	127
111.08349206349206	111.21120181405895	74	127
111.21120181405895	111.35052154195012	72	127
111.35052154195012	111.50145124716553	71	127
111.50145124716553	111.61755102040816	72	127
111.61755102040816	111.74526077097505	75	127
111.74526077097505	111.86136054421769	72	127
111.86136054421769	111.98907029478458	76	127
111.98907029478458	112.07034013605443	72	127
112.07034013605443	112.1748299319728	77	127
112.1748299319728	112.29092970521542	72	127
112.29092970521542	112.39541950113379	78	127
112.29092970521542	112.79015873015874	72	127
112.39541950113379	112.51151927437641	72	127
112.51151927437641	112.6392290249433	79	127
112.6392290249433	112.79015873015874	72	127
112.79015873015874	112.94108843537416	80	127
112.94108843537416	113.05718820861678	72	127
113.05718820861678	113.19650793650794	81	127
113.19650793650794	113.32421768707484	72	127
113.32421768707484	113.47514739229025	58	127
113.32421768707484	113.47514739229025	82	127
113.47514739229025	113.59124716553288	72	127
113.47514739229025	113.59124716553288	55	127
113.59124716553288	113.70734693877552	83	127
113.59124716553288	113.70734693877552	52	127
113.70734693877552	113.84666666666666	72	127
113.70734693877552	113.84666666666666	48	127
113.84666666666666	113.9627664399093	46	127
113.84666666666666	113.9627664399093	84	127
113.84666666666666	114.9031746031746	60	127
113.9627664399093	114.12530612244898	43	127
113.9627664399093	114.12530612244898	72	127
114.12530612244898	114.24140589569161	84	127
114.12530612244898	114.9031746031746	53	127
114.12530612244898	114.9031746031746	56	127
114.12530612244898	114.3691156462585	41	127
114.24140589569161	114.3691156462585	80	127
114.3691156462585	114.6245351473923	41	127
114.63614512471655	114.9031746031746	44	127
114.9031746031746	115.04249433106575	80	127
114.9031746031746	115.04249433106575	60	127
114.9031746031746	115.04249433106575	56	127
115.04249433106575	115.19342403628117	65	127
115.04249433106575	115.19342403628117	77	127
115.04249433106575	115.19342403628117	60	127
115.19342403628117	115.44884353741497	41	127
115.44884353741497	115.69265306122449	44	127
115.44884353741497	116.47052154195012	60	127
115.44884353741497	116.47052154195012	53	127
115.44884353741497	116.47052154195012	56	127
115.71587301587302	115.85519274376418	84	127
115.85519274376418	115.98290249433107	80	127
115.98290249433107	116.22671201814059	41	127
116.23832199546486	116.47052154195012	44	127
116.47052154195012	116.67950113378684	80	127
116.47052154195012	116.67950113378684	56	127
116.47052154195012	116.67950113378684	60	127
116.67950113378684	116.80721088435374	65	127
116.67950113378684	116.80721088435374	77	127
116.67950113378684	116.80721088435374	60	127
116.80721088435374	117.039410430839	41	127
117.05102040816327	117.31804988662131	77	127
117.05102040816327	117.31804988662131	44	127
117.31804988662131	117.4457596371882	61	127
117.31804988662131	117.4457596371882	58	127
117.31804988662131	117.56185941043084	82	127
117.4457596371882	117.5734693877551	65	127
117.4457596371882	117.5734693877551	61	127
117.5734693877551	117.75922902494331	84	127
117.5734693877551	117.82888888888888	41	127
117.82888888888888	118.00303854875284	85	127
117.82888888888888	118.06108843537415	46	127
118.07269841269841	118.20040816326531	60	127
118.07269841269841	118.20040816326531	56	127
118.07269841269841	118.56031746031746	84	127
118.20040816326531	118.31650793650793	60	127
118.20040816326531	118.31650793650793	65	127
118.31650793650793	118.56031746031746	41	127
118.57192743764172	118.81573696145125	77	127
118.57192743764172	118.81573696145125	44	127
118.81573696145125	118.97827664399092	61	127
118.81573696145125	118.97827664399092	58	127
118.81573696145125	119.11759637188209	82	127
118.97827664399092	119.12920634920636	65	127
118.97827664399092	119.12920634920636	61	127
119.12920634920636	119.3033560090703	84	127
119.12920634920636	119.37301587301587	41	127
119.37301587301587	119.57038548752834	85	127
119.37301587301587	119.66326530612245	46	127
119.67487528344671	119.86063492063492	60	127
119.67487528344671	119.86063492063492	56	127
119.67487528344671	120.23215419501133	84	127
119.86063492063492	119.98834467120182	60	127
119.86063492063492	119.98834467120182	65	127
119.98834467120182	120.23215419501133	41	127
120.2437641723356	120.58045351473923	48	127
120.2437641723356	120.58045351473923	44	127
120.58045351473923	120.89392290249432	51	127
120.58045351473923	120.89392290249432	48	127
120.89392290249432	121.11451247165533	53	127
120.89392290249432	121.11451247165533	49	127
121.1841723356009	121.39315192743764	54	127
121.1841723356009	121.39315192743764	51	127
121.48603174603174	122.12458049886621	53	127
121.48603174603174	122.12458049886621	49	127
122.12458049886621	122.38	65	127
122.12458049886621	122.38	61	127
122.40321995464852	122.64702947845805	66	127
122.40321995464852	122.64702947845805	63	127
122.6586394557823	122.821179138322	68	127
122.6586394557823	122.821179138322	65	127
122.89083900226757	123.0998185941043	70	127
122.89083900226757	123.0998185941043	66	127
123.19269841269842	123.74997732426304	68	127
123.19269841269842	123.74997732426304	65	127
123.7615873015873	124.01700680272108	60	127
123.7615873015873	124.01700680272108	56	127
124.01700680272108	124.33047619047619	61	127
124.01700680272108	124.33047619047619	58	127
124.34208616780046	124.55106575963718	63	127
124.34208616780046	124.55106575963718	60	127
124.63233560090703	124.84131519274376	65	127
124.63233560090703	124.84131519274376	61	127
124.93419501133786	125.47986394557823	63	127
124.93419501133786	125.47986394557823	60	127
125.4914739229025	125.74689342403629	75	127
125.4914739229025	125.74689342403629	72	127
125.74689342403629	126.00231292517007	77	127
125.74689342403629	126.00231292517007	73	127
126.01392290249433	126.2112925170068	78	127
126.01392290249433	126.2112925170068	75	127
126.28095238095239	126.48993197278912	77	127
126.28095238095239	126.48993197278912	80	127
126.28095238095239	126.5595918367347	60	127
126.57120181405895	127.11687074829932	78	127
126.57120181405895	127.11687074829932	75	127
126.57120181405895	126.83823129251701	63	127
126.83823129251701	127.11687074829932	65	127
127.12848072562359	127.96439909297052	57	127
127.12848072562359	127.96439909297052	66	127
127.12848072562359	127.44195011337868	78	127
127.12848072562359	127.44195011337868	45	127
127.12848072562359	127.96439909297052	60	127
127.12848072562359	127.96439909297052	63	127
127.44195011337868	127.72058956916099	48	127
127.44195011337868	127.72058956916099	75	127
127.73219954648526	127.9063492063492	49	127
127.73219954648526	127.9063492063492	73	127
127.96439909297052	128.15015873015872	72	127
127.96439909297052	128.15015873015872	51	127
127.96439909297052	128.20820861678004	60	127
128.2198185941043	128.51006802721088	63	127
128.51006802721088	128.84675736961452	65	127
128.85834467120182	129.62460317460318	63	127
128.85834467120182	129.62460317460318	66	127
128.85834467120182	129.1137641723356	78	127
128.85834467120182	129.1137641723356	45	127
128.85834467120182	129.62460317460318	60	127
128.85834467120182	129.62460317460318	57	127
129.1137641723356	129.3808163265306	48	127
129.1137641723356	129.3808163265306	75	127
129.39242630385488	129.56657596371883	49	127
129.39242630385488	129.56657596371883	73	127
129.62460317460318	129.86843537414967	60	127
129.62460317460318	129.79877551020408	72	127
129.62460317460318	129.79877551020408	51	127
129.86843537414967	130.14707482993197	62	127
130.1702947845805	130.4953514739229	63	127
130.4953514739229	131.3080725623583	62	127
130.4953514739229	131.3080725623583	65	127
130.4953514739229	130.78562358276645	77	127
130.4953514739229	130.78562358276645	44	127
130.4953514739229	131.3080725623583	59	127
130.4953514739229	131.3080725623583	56	127
130.79721088435375	131.0526530612245	47	127
130.79721088435375	131.0526530612245	74	127
131.0526530612245	131.2384126984127	48	127
131.0526530612245	131.2384126984127	72	127
131.3080725623583	131.48222222222222	71	127
131.3080725623583	131.48222222222222	50	127
131.3080725623583	131.57510204081632	59	127
131.57510204081632	131.81891156462586	62	127
131.8305215419501	132.1207709750567	63	127
132.1207709750567	132.9334693877551	65	127
132.1207709750567	132.399410430839	77	127
132.1207709750567	132.399410430839	44	127
132.1207709750567	132.9334693877551	59	127
132.1207709750567	132.9334693877551	62	127
132.1207709750567	132.9334693877551	56	127
132.41102040816327	132.66643990929705	47	127
132.41102040816327	132.66643990929705	74	127
132.66643990929705	132.8754195011338	72	127
132.66643990929705	132.8754195011338	48	127
132.9450566893424	133.16566893424036	71	127
132.9450566893424	133.16566893424036	50	127
132.9450566893424	133.22371882086168	59	127
132.9450566893424	133.22371882086168	62	127
133.22371882086168	133.5255782312925	62	127
133.22371882086168	133.5255782312925	65	127
133.53718820861678	133.79260770975057	63	127
133.53718820861678	133.79260770975057	66	127
133.79260770975057	134.5936961451247	59	127
133.79260770975057	134.5936961451247	65	127
133.79260770975057	134.04802721088436	80	127
133.79260770975057	134.04802721088436	41	127
133.79260770975057	134.5936961451247	68	127
133.79260770975057	134.5936961451247	62	127
134.04802721088436	134.29183673469387	44	127
134.04802721088436	134.29183673469387	77	127
134.30344671201814	134.52403628117915	46	127
134.30344671201814	134.52403628117915	75	127
134.5936961451247	134.77945578231294	74	127
134.5936961451247	134.77945578231294	47	127
134.5936961451247	134.83748299319728	59	127
134.5936961451247	134.83748299319728	62	127
134.8491156462585	135.19739229024944	62	127
134.8491156462585	135.19739229024944	65	127
135.19739229024944	135.52249433106576	63	127
135.19739229024944	135.52249433106576	66	127
135.53410430839003	136.40485260770976	65	127
135.53410430839003	135.77791383219954	80	127
135.53410430839003	135.77791383219954	41	127
135.53410430839003	136.40485260770976	62	127
135.53410430839003	136.40485260770976	59	127
135.53410430839003	136.40485260770976	68	127
135.77791383219954	136.03333333333333	44	127
135.77791383219954	136.03333333333333	77	127
136.0449433106576	136.32356009070295	46	127
136.0449433106576	136.32356009070295	75	127
136.40485260770976	136.59061224489795	47	127
136.40485260770976	136.59061224489795	74	127
136.40485260770976	136.64866213151927	65	127
136.40485260770976	136.64866213151927	62	127
136.6718820861678	137.0434013605442	68	127
136.6718820861678	137.0434013605442	65	127
137.0434013605442	137.298820861678	70	127
137.0434013605442	137.298820861678	66	127
137.31043083900227	138.4946485260771	68	127
137.31043083900227	137.62390022675737	80	127
137.31043083900227	138.4946485260771	71	127
137.31043083900227	138.4946485260771	41	127
137.31043083900227	138.4946485260771	61	127
137.62390022675737	137.93736961451248	77	127
137.94897959183675	138.21600907029477	75	127
138.21600907029477	138.35532879818595	73	127
138.35532879818595	138.4946485260771	85	127
138.50625850340137	138.6571882086168	70	127
138.50625850340137	138.78489795918367	85	127
138.50625850340137	138.6571882086168	61	127
138.50625850340137	138.6571882086168	42	127
138.6571882086168	138.78489795918367	70	127
138.6571882086168	138.78489795918367	61	127
138.6571882086168	138.78489795918367	54	127
138.78489795918367	138.91260770975057	61	127
138.78489795918367	138.91260770975057	54	127
138.78489795918367	138.91260770975057	70	127
138.78489795918367	139.1331746031746	80	127
138.92421768707484	139.1331746031746	70	127
138.92421768707484	139.1331746031746	61	127
138.92421768707484	139.1331746031746	54	127
139.14480725623582	139.29573696145124	70	127
139.14480725623582	139.29573696145124	61	127
139.14480725623582	139.29573696145124	54	127
139.14480725623582	139.42344671201815	82	127
139.29573696145124	139.42344671201815	70	127
139.29573696145124	139.42344671201815	61	127
139.29573696145124	139.42344671201815	54	127
139.42344671201815	139.5627664399093	77	127
139.42344671201815	139.94589569161	70	127
139.42344671201815	139.94589569161	63	127
139.42344671201815	139.94589569161	54	127
139.5627664399093	139.70208616780045	78	127
139.70208616780045	139.82979591836735	74	127
139.82979591836735	139.94589569161	75	127
139.94589569161	140.07360544217687	78	127
140.07360544217687	140.20131519274378	82	127
140.20131519274378	140.70054421768708	66	127
140.20131519274378	140.32902494331066	77	127
140.20131519274378	140.70054421768708	75	127
140.20131519274378	140.70054421768708	70	127
140.32902494331066	140.45673469387756	78	127
140.45673469387756	140.58444444444444	74	127
140.58444444444444	140.71215419501135	75	127
140.71215419501135	140.874693877551	78	127
140.874693877551	140.99079365079365	82	127
140.99079365079365	141.14172335600907	73	127
140.99079365079365	141.14172335600907	80	127
140.99079365079365	141.14172335600907	77	127
140.99079365079365	141.28102040816327	68	127
141.14172335600907	141.28102040816327	77	127
141.14172335600907	141.28102040816327	73	127
141.14172335600907	141.28102040816327	68	127
141.28102040816327	141.52485260770976	56	127
141.52485260770976	141.757052154195	61	127
141.757052154195	141.88476190476192	77	127
141.757052154195	141.88476190476192	73	127
141.757052154195	141.88476190476192	68	127
141.88476190476192	142.0124716553288	73	127
141.88476190476192	142.0124716553288	68	127
141.88476190476192	142.0124716553288	65	127
142.0124716553288	142.26789115646258	56	127
142.26789115646258	142.52331065759637	61	127
142.53492063492064	142.65102040816328	78	127
142.53492063492064	142.65102040816328	72	127
142.53492063492064	142.65102040816328	68	127
142.65102040816328	142.79034013605443	75	127
142.65102040816328	142.79034013605443	68	127
142.65102040816328	142.79034013605443	66	127
142.79034013605443	143.0457596371882	56	127
143.05736961451248	143.28956916099773	63	127
143.28956916099773	143.41727891156464	68	127
143.28956916099773	143.41727891156464	84	127
143.28956916099773	143.41727891156464	72	127
143.41727891156464	143.60303854875283	75	127
143.41727891156464	143.60303854875283	68	127
143.41727891156464	143.60303854875283	66	127
143.60303854875283	143.84684807256235	56	127
143.84684807256235	144.09063492063493	63	127
144.10226757369614	144.2996371882086	85	127
144.10226757369614	144.2996371882086	68	127
144.10226757369614	144.2996371882086	65	127
144.2996371882086	144.41573696145124	77	127
144.2996371882086	144.41573696145124	65	127
144.2996371882086	144.41573696145124	61	127
144.41573696145124	144.6827664399093	61	127
144.69437641723357	144.9381859410431	65	127
144.9381859410431	145.06589569160997	86	127
144.9381859410431	145.06589569160997	70	127
144.9381859410431	145.06589569160997	68	127
145.06589569160997	145.19360544217687	77	127
145.06589569160997	145.19360544217687	68	127
145.06589569160997	145.19360544217687	65	127
145.19360544217687	145.5302947845805	58	127
145.5302947845805	145.77410430839004	65	127
145.77410430839004	145.90181405895692	87	127
145.77410430839004	145.90181405895692	70	127
145.77410430839004	145.90181405895692	66	127
145.90181405895692	146.02952380952382	78	127
145.90181405895692	146.02952380952382	66	127
145.90181405895692	146.02952380952382	63	127
146.02952380952382	146.30816326530612	63	127
146.30816326530612	146.5403628117914	66	127
146.55197278911564	146.67968253968255	89	127
146.55197278911564	146.67968253968255	77	127
146.55197278911564	146.67968253968255	72	127
146.67968253968255	146.8190022675737	73	127
146.67968253968255	146.8190022675737	77	127
146.67968253968255	146.8190022675737	69	127
146.8190022675737	147.09764172335602	57	127
147.09764172335602	147.34145124716554	69	127
147.34145124716554	147.49238095238096	89	127
147.34145124716554	147.49238095238096	77	127
147.34145124716554	147.49238095238096	73	127
147.34145124716554	147.6084807256236	58	127
147.49238095238096	147.6200680272109	77	127
147.49238095238096	147.6200680272109	73	127
147.49238095238096	147.6200680272109	70	127
147.6200680272109	147.89873015873016	74	127
147.6200680272109	147.89873015873016	77	127
147.6200680272109	147.89873015873016	70	127
147.89873015873016	148.28183673469388	80	127
147.89873015873016	148.28183673469388	77	127
147.89873015873016	148.28183673469388	70	127
147.89873015873016	148.28183673469388	82	127
148.2934693877551	149.3267573696145	70	127
148.2934693877551	148.5837188208617	87	127
148.2934693877551	148.5837188208617	78	127
148.2934693877551	148.5837188208617	75	127
148.5837188208617	148.7694784580499	77	127
148.5837188208617	148.7694784580499	69	127
148.5837188208617	148.7694784580499	89	127
148.85074829931972	149.03650793650795	75	127
148.85074829931972	149.03650793650795	90	127
148.85074829931972	149.03650793650795	69	127
149.09455782312926	149.3267573696145	70	127
149.09455782312926	149.3267573696145	73	127
149.09455782312926	149.61700680272108	89	127
149.3267573696145	149.61700680272108	77	127
149.3267573696145	149.61700680272108	74	127
149.3267573696145	149.61700680272108	70	127
149.62861678004535	149.69827664399094	82	127
149.62861678004535	149.90725623582767	80	127
149.62861678004535	149.90725623582767	77	127
149.62861678004535	149.90725623582767	70	127
149.69827664399094	149.77954648526077	84	127
149.77954648526077	149.84920634920636	82	127
149.84920634920636	149.90725623582767	84	127
149.90725623582767	151.33528344671203	70	127
149.90725623582767	150.26716553287983	87	127
149.90725623582767	150.26716553287983	78	127
149.90725623582767	150.26716553287983	75	127
150.27875283446713	150.45292517006803	77	127
150.27875283446713	150.45292517006803	69	127
150.27875283446713	150.45292517006803	89	127
150.54580498866213	150.7431746031746	69	127
150.54580498866213	150.7431746031746	90	127
150.54580498866213	150.7431746031746	75	127
150.83603174603175	151.33528344671203	89	127
150.83603174603175	151.09145124716554	70	127
150.83603174603175	151.09145124716554	73	127
151.09145124716554	151.33528344671203	76	127
151.09145124716554	151.33528344671203	73	127
151.34687074829932	151.5907029478458	73	127
151.34687074829932	151.5907029478458	82	127
151.34687074829932	151.5907029478458	77	127
151.34687074829932	151.5907029478458	70	127
151.5907029478458	151.6835827664399	82	127
151.5907029478458	151.8693424036281	77	127
151.5907029478458	151.8693424036281	73	127
151.5907029478458	151.8693424036281	70	127
151.6835827664399	151.74163265306123	84	127
151.74163265306123	151.88095238095238	82	127
151.88095238095238	152.21761904761905	81	127
151.88095238095238	152.21761904761905	77	127
151.88095238095238	152.21761904761905	75	127
151.88095238095238	152.21761904761905	72	127
152.21761904761905	152.48467120181405	82	127
152.21761904761905	152.48467120181405	77	127
152.21761904761905	152.48467120181405	73	127
152.21761904761905	152.48467120181405	70	127
152.49628117913832	152.72845804988663	85	127
152.49628117913832	152.72845804988663	73	127
152.49628117913832	152.72845804988663	65	127
152.49628117913832	152.72845804988663	70	127
152.72845804988663	153.0071201814059	84	127
152.72845804988663	153.0071201814059	75	127
152.72845804988663	153.0071201814059	66	127
152.72845804988663	153.0071201814059	69	127
153.01873015873016	153.27414965986395	70	127
153.01873015873016	153.21609977324263	85	127
153.01873015873016	153.27414965986395	73	127
153.01873015873016	153.27414965986395	65	127
153.21609977324263	153.34378684807257	84	127
153.27414965986395	153.80820861678004	89	127
153.27414965986395	153.80820861678004	75	127
153.27414965986395	153.56439909297052	53	127
153.27414965986395	154.11004535147393	69	127
153.56439909297052	153.80820861678004	54	127
153.8198185941043	153.9591156462585	87	127
153.8198185941043	154.11004535147393	65	127
153.8198185941043	154.11004535147393	72	127
153.8198185941043	154.11004535147393	53	127
153.9591156462585	154.11004535147393	84	127
154.11004535147393	154.36546485260772	58	127
154.11004535147393	154.36546485260772	87	127
154.11004535147393	154.36546485260772	65	127
154.11004535147393	154.36546485260772	73	127
154.11004535147393	154.36546485260772	70	127
154.37709750566893	154.64412698412698	85	127
154.37709750566893	154.64412698412698	73	127
154.37709750566893	154.64412698412698	55	127
154.37709750566893	154.64412698412698	70	127
154.64412698412698	154.93437641723355	84	127
154.64412698412698	154.93437641723355	72	127
154.64412698412698	154.93437641723355	52	127
154.64412698412698	154.93437641723355	67	127
154.94598639455782	155.21301587301588	84	127
154.94598639455782	155.21301587301588	72	127
154.94598639455782	155.21301587301588	52	127
154.94598639455782	155.21301587301588	67	127
155.21301587301588	155.48004535147393	82	127
155.21301587301588	155.48004535147393	70	127
155.21301587301588	155.48004535147393	48	127
155.21301587301588	155.48004535147393	67	127
155.49163265306123	155.75868480725623	60	127
155.49163265306123	155.75868480725623	68	127
155.49163265306123	155.75868480725623	80	127
155.49163265306123	155.75868480725623	65	127
155.75868480725623	156.09537414965988	68	127
155.75868480725623	155.87478458049887	65	127
155.75868480725623	156.09537414965988	80	127
155.75868480725623	156.09537414965988	48	127
155.87478458049887	155.94444444444446	67	127
155.94444444444446	156.10696145124717	65	127
156.10696145124717	156.36238095238096	48	127
156.10696145124717	156.36238095238096	79	127
156.10696145124717	156.36238095238096	58	127
156.10696145124717	156.36238095238096	64	127
156.36238095238096	156.61780045351475	77	127
156.36238095238096	156.61780045351475	56	127
156.36238095238096	156.61780045351475	60	127
156.36238095238096	156.61780045351475	65	127
156.62943310657596	156.94290249433107	77	127
156.62943310657596	156.94290249433107	60	127
156.62943310657596	156.94290249433107	68	127
156.94290249433107	157.23315192743763	76	127
156.94290249433107	157.23315192743763	73	127
156.94290249433107	157.23315192743763	48	127
156.94290249433107	157.23315192743763	67	127
157.2447619047619	157.5001814058957	77	127
157.2447619047619	157.5001814058957	72	127
157.2447619047619	157.5001814058957	60	127
157.2447619047619	157.5001814058957	68	127
157.5001814058957	157.778820861678	77	127
157.5001814058957	157.778820861678	68	127
157.5001814058957	158.0458276643991	72	127
157.778820861678	158.0458276643991	67	127
157.778820861678	158.0458276643991	76	127
157.778820861678	158.0458276643991	48	127
158.0574603174603	158.17356009070295	70	127
158.0574603174603	158.30124716553289	88	127
158.0574603174603	158.30124716553289	79	127
158.0574603174603	158.30124716553289	60	127
158.17356009070295	158.30124716553289	67	127
158.30124716553289	158.7888888888889	80	127
158.30124716553289	158.54507936507937	70	127
158.30124716553289	158.7888888888889	89	127
158.55666666666667	158.7888888888889	48	127
158.55666666666667	158.7888888888889	68	127
158.7888888888889	159.20684807256237	65	127
158.7888888888889	159.20684807256237	53	127
159.21845804988664	159.53190476190477	65	127
159.21845804988664	159.53190476190477	53	127
159.21845804988664	159.53190476190477	36	127
159.53190476190477	159.81056689342404	64	127
159.53190476190477	159.81056689342404	52	127
159.53190476190477	159.81056689342404	36	127
159.8221768707483	160.12403628117914	65	127
159.8221768707483	160.12403628117914	53	127
159.8221768707483	160.12403628117914	48	127
160.12403628117914	160.3910657596372	68	127
160.12403628117914	160.3910657596372	56	127
160.40267573696144	160.72775510204082	36	127
160.40267573696144	160.72775510204082	55	127
160.40267573696144	160.72775510204082	67	127
160.72775510204082	160.9831746031746	56	127
160.72775510204082	160.9831746031746	48	127
160.72775510204082	160.9831746031746	76	127
160.72775510204082	160.9831746031746	68	127
160.99478458049887	161.2385941043084	76	127
160.99478458049887	161.4591836734694	72	127
160.99478458049887	161.4591836734694	60	127
161.2385941043084	161.4591836734694	74	127
161.2385941043084	161.4591836734694	36	127
161.4591836734694	161.58689342403628	70	127
161.4591836734694	161.58689342403628	58	127
161.4591836734694	161.70299319727891	76	127
161.4591836734694	161.70299319727891	48	127
161.58689342403628	161.70299319727891	67	127
161.58689342403628	161.70299319727891	55	127
161.70299319727891	162.03968253968253	79	127
161.70299319727891	162.03968253968253	70	127
161.70299319727891	162.03968253968253	58	127
162.03968253968253	162.3067120181406	77	127
162.03968253968253	162.3067120181406	68	127
162.03968253968253	162.3067120181406	56	127
162.03968253968253	162.3067120181406	36	127
162.31832199546486	162.5853514739229	48	127
162.31832199546486	162.4344217687075	60	127
162.31832199546486	162.5853514739229	79	127
162.4344217687075	162.5853514739229	64	127
162.5853514739229	162.7130612244898	60	127
162.5853514739229	162.82916099773243	80	127
162.7130612244898	162.8407709750567	65	127
162.8407709750567	162.95684807256237	60	127
162.8407709750567	163.08458049886622	79	127
162.95684807256237	163.08458049886622	65	127
163.08458049886622	163.21226757369615	60	127
163.08458049886622	163.32839002267573	81	127
163.21226757369615	163.34	65	127
163.34	163.44448979591837	61	127
163.34	163.57219954648525	84	127
163.44448979591837	163.57219954648525	65	127
163.57219954648525	163.69990929705216	61	127
163.57219954648525	163.82761904761904	82	127
163.69990929705216	163.8392290249433	65	127
163.8392290249433	163.96693877551022	53	127
163.8392290249433	164.08303854875282	83	127
163.8392290249433	164.08303854875282	71	127
163.8392290249433	164.08303854875282	38	127
163.96693877551022	164.08303854875282	55	127
164.08303854875282	164.2339455782313	48	127
164.08303854875282	164.38487528344672	85	127
164.08303854875282	164.38487528344672	73	127
164.08303854875282	164.38487528344672	40	127
164.2339455782313	164.39650793650793	60	127
164.39650793650793	164.52421768707484	48	127
164.39650793650793	164.663537414966	84	127
164.39650793650793	164.663537414966	72	127
164.39650793650793	164.663537414966	40	127
164.52421768707484	164.663537414966	60	127
164.663537414966	164.8144671201814	48	127
164.663537414966	164.9421768707483	86	127
164.663537414966	164.9421768707483	74	127
164.663537414966	164.9421768707483	41	127
164.8144671201814	164.95378684807255	60	127
164.95378684807255	165.0698866213152	48	127
164.95378684807255	165.1975963718821	87	127
164.95378684807255	165.1975963718821	75	127
164.95378684807255	165.1975963718821	43	127
165.0698866213152	165.1975963718821	60	127
165.1975963718821	165.32530612244898	48	127
165.1975963718821	165.44140589569162	86	127
165.1975963718821	165.44140589569162	74	127
165.1975963718821	165.44140589569162	43	127
165.32530612244898	165.4530158730159	60	127
165.4530158730159	165.58072562358277	48	127
165.4530158730159	165.6968253968254	88	127
165.4530158730159	165.6968253968254	76	127
165.4530158730159	165.6968253968254	43	127
165.58072562358277	165.6968253968254	60	127
165.6968253968254	165.82453514739228	48	127
165.6968253968254	165.96385487528346	89	127
165.6968253968254	165.96385487528346	77	127
165.6968253968254	165.96385487528346	44	127
165.82453514739228	165.96385487528346	60	127
165.96385487528346	166.20766439909298	56	127
165.96385487528346	166.09156462585034	48	127
165.96385487528346	166.20766439909298	88	127
165.96385487528346	166.20766439909298	76	127
166.09156462585034	166.21927437641725	60	127
166.21927437641725	166.4514739229025	89	127
166.21927437641725	166.4514739229025	77	127
166.21927437641725	166.4514739229025	56	127
166.21927437641725	166.31215419501135	48	127
166.31215419501135	166.4514739229025	60	127
166.38179138321996	166.5095238095238	80	127
166.4514739229025	166.5791836734694	80	127
166.4514739229025	166.97392290249434	92	127
166.4514739229025	166.56757369614513	53	127
166.4514739229025	166.97392290249434	47	127
166.5791836734694	166.70689342403628	56	127
166.5791836734694	166.70689342403628	53	127
166.5791836734694	166.70689342403628	62	127
166.71850340136055	166.84621315192743	62	127
166.71850340136055	166.84621315192743	59	127
166.71850340136055	166.84621315192743	56	127
166.84621315192743	166.97392290249434	62	127
166.84621315192743	166.97392290249434	56	127
166.84621315192743	166.97392290249434	59	127
166.97392290249434	167.0784126984127	59	127
166.97392290249434	167.0784126984127	62	127
166.97392290249434	167.0784126984127	56	127
167.09002267573698	167.19448979591837	59	127
167.09002267573698	167.19448979591837	62	127
167.09002267573698	167.19448979591837	56	127
167.19448979591837	167.31061224489795	56	127
167.19448979591837	167.31061224489795	59	127
167.19448979591837	167.31061224489795	62	127
167.31061224489795	167.4267120181406	62	127
167.31061224489795	167.4267120181406	53	127
167.31061224489795	167.4267120181406	56	127
167.4267120181406	167.55439909297053	59	127
167.4267120181406	167.55439909297053	62	127
167.4267120181406	167.55439909297053	56	127
167.55439909297053	167.6588888888889	59	127
167.55439909297053	167.6588888888889	62	127
167.55439909297053	167.6588888888889	56	127
167.6705215419501	167.78662131519275	59	127
167.6705215419501	167.78662131519275	62	127
167.6705215419501	167.78662131519275	56	127
167.79823129251702	167.90272108843538	56	127
167.79823129251702	167.90272108843538	59	127
167.79823129251702	167.90272108843538	62	127
167.90272108843538	168.04204081632653	59	127
167.90272108843538	168.04204081632653	62	127
167.90272108843538	168.04204081632653	56	127
167.90272108843538	168.39034013605442	56	127
167.90272108843538	168.39034013605442	65	127
167.90272108843538	168.39034013605442	74	127
167.90272108843538	168.39034013605442	47	127
168.04204081632653	168.15814058956917	56	127
168.04204081632653	168.15814058956917	62	127
168.04204081632653	168.15814058956917	53	127
168.16972789115647	168.28585034013605	62	127
168.16972789115647	168.28585034013605	56	127
168.16972789115647	168.28585034013605	59	127
168.29746031746032	168.39034013605442	56	127
168.29746031746032	168.39034013605442	59	127
168.29746031746032	168.39034013605442	62	127
168.39034013605442	168.52965986394557	56	127
168.39034013605442	168.52965986394557	62	127
168.39034013605442	168.52965986394557	59	127
168.52965986394557	168.6457596371882	59	127
168.52965986394557	168.6457596371882	62	127
168.52965986394557	168.6457596371882	56	127
168.65736961451248	168.7734693877551	59	127
168.65736961451248	168.7734693877551	62	127
168.65736961451248	168.7734693877551	56	127
168.78507936507935	168.901179138322	56	127
168.78507936507935	168.901179138322	62	127
168.78507936507935	168.901179138322	53	127
168.901179138322	169.0288888888889	59	127
168.901179138322	169.0288888888889	62	127
168.901179138322	169.0288888888889	56	127
169.0288888888889	169.1449886621315	59	127
169.0288888888889	169.1449886621315	62	127
169.0288888888889	169.1449886621315	56	127
169.15659863945578	169.27269841269842	59	127
169.15659863945578	169.27269841269842	62	127
169.15659863945578	169.27269841269842	56	127
169.2843083900227	169.4004081632653	59	127
169.2843083900227	169.4004081632653	62	127
169.2843083900227	169.4004081632653	56	127
169.4004081632653	169.5281179138322	59	127
169.4004081632653	169.5281179138322	62	127
169.4004081632653	169.5281179138322	56	127
169.4004081632653	169.89963718820863	59	127
169.4004081632653	169.89963718820863	77	127
169.5281179138322	169.65582766439908	62	127
169.5281179138322	169.65582766439908	56	127
169.5281179138322	169.65582766439908	53	127
169.65582766439908	169.77192743764172	56	127
169.65582766439908	169.77192743764172	62	127
169.65582766439908	169.77192743764172	59	127
169.783537414966	169.89963718820863	59	127
169.783537414966	169.89963718820863	62	127
169.783537414966	169.89963718820863	56	127
169.91124716553287	170.0273469387755	59	127
169.91124716553287	170.0273469387755	62	127
169.91124716553287	170.0273469387755	56	127
170.0273469387755	170.14344671201815	59	127
170.0273469387755	170.14344671201815	62	127
170.0273469387755	170.14344671201815	56	127
170.08539682539683	170.20149659863947	74	127
170.14344671201815	170.24793650793652	59	127
170.14344671201815	170.24793650793652	62	127
170.14344671201815	170.24793650793652	56	127
170.14344671201815	170.61943310657597	86	127
170.14344671201815	170.61943310657597	47	127
170.25954648526078	170.3756462585034	53	127
170.25954648526078	170.3756462585034	56	127
170.25954648526078	170.3756462585034	62	127
170.38725623582766	170.5033560090703	59	127
170.38725623582766	170.5033560090703	62	127
170.38725623582766	170.5033560090703	56	127
170.5033560090703	170.61943310657597	56	127
170.5033560090703	170.61943310657597	59	127
170.5033560090703	170.61943310657597	62	127
170.61943310657597	170.73555555555555	59	127
170.61943310657597	170.73555555555555	62	127
170.61943310657597	170.73555555555555	56	127
170.74716553287982	170.8516553287982	59	127
170.74716553287982	170.8516553287982	56	127
170.74716553287982	170.8516553287982	62	127
170.79360544217687	170.92131519274378	62	127
170.86326530612246	170.97934240362812	59	127
170.86326530612246	171.3160544217687	47	127
170.86326530612246	171.3160544217687	74	127
170.86326530612246	170.97934240362812	62	127
170.86326530612246	170.97934240362812	56	127
170.97934240362812	171.10707482993197	53	127
170.97934240362812	171.10707482993197	62	127
170.97934240362812	171.10707482993197	56	127
171.10707482993197	171.1883446712018	65	127
171.10707482993197	171.1883446712018	68	127
171.1883446712018	171.3160544217687	65	127
171.1883446712018	171.3160544217687	68	127
171.3160544217687	171.45537414965986	68	127
171.3160544217687	171.45537414965986	65	127
171.45537414965986	171.58308390022677	68	127
171.45537414965986	171.58308390022677	65	127
171.59467120181407	171.64111111111112	67	127
171.59467120181407	171.64111111111112	64	127
171.64111111111112	171.74560090702948	55	127
171.64111111111112	171.74560090702948	64	127
171.64111111111112	171.74560090702948	58	127
171.74560090702948	171.87333333333333	58	127
171.74560090702948	171.87333333333333	64	127
171.74560090702948	171.87333333333333	61	127
171.87333333333333	172.00102040816327	58	127
171.87333333333333	172.00102040816327	64	127
171.87333333333333	172.00102040816327	61	127
172.00102040816327	172.12875283446712	64	127
172.00102040816327	172.12875283446712	58	127
172.00102040816327	172.12875283446712	61	127
172.1403628117914	172.26807256235827	58	127
172.1403628117914	172.26807256235827	64	127
172.1403628117914	172.26807256235827	61	127
172.27968253968254	172.81374149659865	43	127
172.27968253968254	172.40736961451248	58	127
172.27968253968254	172.40736961451248	64	127
172.27968253968254	172.40736961451248	61	127
172.27968253968254	172.81374149659865	85	127
172.27968253968254	172.81374149659865	76	127
172.27968253968254	172.81374149659865	67	127
172.40736961451248	172.55832199546487	64	127
172.40736961451248	172.55832199546487	55	127
172.40736961451248	172.55832199546487	58	127
172.55832199546487	172.68603174603174	58	127
172.55832199546487	172.68603174603174	61	127
172.55832199546487	172.68603174603174	64	127
172.697641723356	172.81374149659865	61	127
172.697641723356	172.81374149659865	64	127
172.697641723356	172.81374149659865	58	127
172.8253514739229	172.91823129251702	61	127
172.8253514739229	172.91823129251702	58	127
172.8253514739229	172.91823129251702	64	127
172.91823129251702	173.0459410430839	58	127
172.91823129251702	173.0459410430839	64	127
172.91823129251702	173.0459410430839	61	127
173.0459410430839	173.16204081632654	58	127
173.0459410430839	173.16204081632654	64	127
173.0459410430839	173.16204081632654	61	127
173.16204081632654	173.2781179138322	55	127
173.16204081632654	173.2781179138322	64	127
173.16204081632654	173.2781179138322	58	127
173.28975056689342	173.3942403628118	58	127
173.28975056689342	173.3942403628118	64	127
173.28975056689342	173.3942403628118	61	127
173.3942403628118	173.51034013605442	58	127
173.3942403628118	173.51034013605442	64	127
173.3942403628118	173.51034013605442	61	127
173.51034013605442	173.62643990929706	58	127
173.51034013605442	173.62643990929706	64	127
173.51034013605442	173.62643990929706	61	127
173.62643990929706	173.74251700680273	58	127
173.62643990929706	173.74251700680273	64	127
173.62643990929706	173.74251700680273	61	127
173.75414965986394	173.8586394557823	58	127
173.75414965986394	173.8586394557823	64	127
173.75414965986394	173.8586394557823	61	127
173.75414965986394	174.19532879818595	55	127
173.75414965986394	174.19532879818595	64	127
173.75414965986394	174.19532879818595	55	127
173.87024943310658	173.99793650793652	58	127
173.87024943310658	173.99793650793652	64	127
173.87024943310658	173.99793650793652	55	127
173.99793650793652	174.1140589569161	58	127
173.99793650793652	174.1140589569161	64	127
173.99793650793652	174.1140589569161	61	127
174.1140589569161	174.19532879818595	64	127
174.1140589569161	174.19532879818595	61	127
174.1140589569161	174.19532879818595	58	127
174.2069387755102	174.32303854875283	58	127
174.2069387755102	174.32303854875283	64	127
174.2069387755102	174.32303854875283	61	127
174.3346485260771	174.45074829931974	58	127
174.3346485260771	174.45074829931974	64	127
174.3346485260771	174.45074829931974	61	127
174.45074829931974	174.57845804988662	58	127
174.45074829931974	174.57845804988662	64	127
174.45074829931974	174.57845804988662	61	127
174.57845804988662	174.682947845805	55	127
174.57845804988662	174.682947845805	64	127
174.57845804988662	174.682947845805	58	127
174.69455782312926	174.81063492063493	58	127
174.69455782312926	174.81063492063493	64	127
174.69455782312926	174.81063492063493	61	127
174.82226757369614	174.84548752834468	58	127
174.82226757369614	174.84548752834468	64	127
174.82226757369614	174.84548752834468	61	127
174.84548752834468	174.88031746031746	61	127
174.84548752834468	174.88031746031746	64	127
174.84548752834468	174.88031746031746	58	127
174.88031746031746	174.9964172335601	64	127
174.88031746031746	174.9964172335601	58	127
174.88031746031746	174.9964172335601	61	127
175.00802721088436	175.12412698412697	58	127
175.00802721088436	175.39115646258503	76	127
175.00802721088436	175.39115646258503	55	127
175.00802721088436	175.12412698412697	61	127
175.00802721088436	175.12412698412697	64	127
175.12412698412697	175.15895691609978	58	127
175.12412698412697	175.15895691609978	55	127
175.12412698412697	175.15895691609978	64	127
175.15895691609978	175.28666666666666	61	127
175.15895691609978	175.28666666666666	58	127
175.15895691609978	175.28666666666666	64	127
175.28666666666666	175.39115646258503	64	127
175.28666666666666	175.39115646258503	61	127
175.28666666666666	175.39115646258503	58	127
175.39115646258503	175.4956462585034	58	127
175.39115646258503	175.4956462585034	64	127
175.39115646258503	175.4956462585034	61	127
175.50725623582767	175.6233560090703	58	127
175.50725623582767	175.6233560090703	64	127
175.50725623582767	175.6233560090703	61	127
175.565306122449	175.66979591836736	73	127
175.63496598639455	175.73945578231292	58	127
175.63496598639455	175.73945578231292	64	127
175.63496598639455	175.73945578231292	61	127
175.63496598639455	176.0297052154195	85	127
175.63496598639455	176.0297052154195	43	127
175.73945578231292	175.78587301587302	58	127
175.73945578231292	175.78587301587302	55	127
175.73945578231292	175.78587301587302	64	127
175.78587301587302	175.9019954648526	64	127
175.78587301587302	175.9019954648526	58	127
175.78587301587302	175.9019954648526	61	127
175.91360544217687	176.0297052154195	61	127
175.91360544217687	176.0297052154195	58	127
175.91360544217687	176.0297052154195	64	127
176.0412925170068	176.14580498866212	58	127
176.0412925170068	176.14580498866212	64	127
176.0412925170068	176.14580498866212	61	127
176.14580498866212	176.27351473922903	58	127
176.14580498866212	176.27351473922903	64	127
176.14580498866212	176.27351473922903	61	127
176.2154648526077	176.33156462585035	61	127
176.27351473922903	176.3780045351474	61	127
176.27351473922903	176.3780045351474	58	127
176.27351473922903	176.3780045351474	64	127
176.27351473922903	176.50571428571428	43	127
176.27351473922903	176.73791383219955	73	127
176.38961451247167	176.50571428571428	58	127
176.38961451247167	176.50571428571428	55	127
176.38961451247167	176.50571428571428	64	127
176.51732426303855	176.62181405895691	58	127
176.51732426303855	176.62181405895691	55	127
176.51732426303855	176.62181405895691	61	127
176.63342403628118	176.73791383219955	55	127
176.63342403628118	176.73791383219955	61	127
176.63342403628118	176.73791383219955	58	127
176.74952380952382	176.8772335600907	55	127
176.74952380952382	176.8772335600907	61	127
176.74952380952382	176.8772335600907	58	127
176.88884353741497	177.0049433106576	55	127
176.88884353741497	177.0049433106576	58	127
176.88884353741497	177.0049433106576	61	127
177.0049433106576	177.30680272108845	55	127
177.0049433106576	177.9221315192744	72	127
177.0049433106576	177.14426303854876	60	127
177.0049433106576	177.30680272108845	58	127
177.14426303854876	177.31839002267574	64	127
177.31839002267574	177.55061224489796	70	127
177.31839002267574	177.55061224489796	60	127
177.31839002267574	177.43451247165532	67	127
177.43451247165532	177.55061224489796	64	127
177.55061224489796	177.6667120181406	65	127
177.55061224489796	177.79442176870748	68	127
177.55061224489796	177.79442176870748	65	127
177.6667120181406	177.79442176870748	68	127
177.79442176870748	178.0846485260771	67	127
177.79442176870748	178.0846485260771	64	127
177.79442176870748	178.0846485260771	60	127
177.9221315192744	178.09628117913832	76	127
178.09628117913832	178.36331065759637	48	127
178.09628117913832	178.22399092970522	79	127
178.09628117913832	178.36331065759637	58	127
178.09628117913832	178.59548752834468	72	127
178.22399092970522	178.36331065759637	76	127
178.36331065759637	178.479410430839	77	127
178.36331065759637	178.59548752834468	53	127
178.36331065759637	178.59548752834468	56	127
178.479410430839	178.6071201814059	80	127
178.6071201814059	178.83931972789117	58	127
178.6071201814059	178.72321995464853	60	127
178.6071201814059	178.83931972789117	52	127
178.6071201814059	179.5475283446712	72	127
178.72321995464853	178.83931972789117	64	127
178.83931972789117	179.10632653061225	70	127
178.83931972789117	179.10632653061225	60	127
178.83931972789117	178.99024943310658	67	127
178.99024943310658	179.11795918367346	64	127
179.11795918367346	179.25725623582767	65	127
179.11795918367346	179.4198185941043	68	127
179.11795918367346	179.4198185941043	65	127
179.25725623582767	179.4198185941043	68	127
179.4198185941043	179.62879818594104	67	127
179.4198185941043	179.62879818594104	60	127
179.4198185941043	179.62879818594104	64	127
179.5475283446712	179.6404081632653	76	127
179.6404081632653	179.8725850340136	48	127
179.6404081632653	180.1280045351474	72	127
179.6404081632653	179.8725850340136	58	127
179.6404081632653	179.7681179138322	79	127
179.7681179138322	179.8725850340136	76	127
179.8725850340136	180.01192743764173	77	127
179.8725850340136	180.00031746031746	53	127
179.8725850340136	180.01192743764173	56	127
180.01192743764173	180.1280045351474	65	127
180.01192743764173	180.1280045351474	53	127
180.01192743764173	180.1280045351474	80	127
180.1280045351474	180.25573696145125	58	127
180.1280045351474	180.25573696145125	73	127
180.1280045351474	180.25573696145125	61	127
180.1280045351474	180.25573696145125	65	127
180.1280045351474	180.25573696145125	77	127
180.25573696145125	180.38342403628118	61	127
180.25573696145125	180.38342403628118	67	127
180.25573696145125	180.38342403628118	65	127
180.25573696145125	180.38342403628118	58	127
180.25573696145125	180.3950566893424	72	127
180.3950566893424	180.51115646258503	67	127
180.3950566893424	180.51115646258503	61	127
180.3950566893424	180.51115646258503	65	127
180.3950566893424	180.51115646258503	58	127
180.3950566893424	180.5227664399093	73	127
180.5227664399093	180.62725623582767	67	127
180.5227664399093	180.62725623582767	61	127
180.5227664399093	180.62725623582767	65	127
180.5227664399093	180.62725623582767	58	127
180.5227664399093	180.62725623582767	72	127
180.62725623582767	180.73174603174604	67	127
180.62725623582767	180.73174603174604	61	127
180.62725623582767	180.73174603174604	65	127
180.62725623582767	180.73174603174604	58	127
180.62725623582767	180.73174603174604	73	127
180.73174603174604	180.8478231292517	67	127
180.73174603174604	180.8478231292517	61	127
180.73174603174604	180.8478231292517	65	127
180.73174603174604	180.8478231292517	58	127
180.73174603174604	180.8478231292517	69	127
180.8478231292517	180.9639455782313	67	127
180.8478231292517	180.9639455782313	61	127
180.8478231292517	180.9639455782313	65	127
180.8478231292517	180.9639455782313	58	127
180.8478231292517	180.97555555555556	70	127
180.97555555555556	181.1032426303855	73	127
180.97555555555556	181.1032426303855	61	127
180.97555555555556	181.1032426303855	65	127
180.97555555555556	181.1032426303855	58	127
180.97555555555556	181.1148752834467	66	127
181.1148752834467	181.23097505668935	61	127
181.1148752834467	181.23097505668935	65	127
181.1148752834467	181.23097505668935	73	127
181.1148752834467	181.23097505668935	58	127
181.1148752834467	181.23097505668935	67	127
181.23097505668935	181.35866213151928	73	127
181.23097505668935	181.35866213151928	61	127
181.23097505668935	181.35866213151928	65	127
181.23097505668935	181.35866213151928	58	127
181.23097505668935	181.35866213151928	70	127
181.35866213151928	181.4631746031746	65	127
181.35866213151928	181.4631746031746	73	127
181.35866213151928	181.4631746031746	61	127
181.35866213151928	181.4631746031746	58	127
181.35866213151928	181.47478458049886	72	127
181.47478458049886	181.5908843537415	61	127
181.47478458049886	181.5908843537415	67	127
181.47478458049886	181.5908843537415	65	127
181.47478458049886	181.5908843537415	58	127
181.47478458049886	181.60249433106577	73	127
181.60249433106577	182.05528344671202	65	127
181.60249433106577	181.71859410430838	72	127
181.60249433106577	182.05528344671202	60	127
181.60249433106577	182.05528344671202	68	127
181.71859410430838	181.85791383219956	73	127
181.85791383219956	181.96240362811793	74	127
181.96240362811793	182.0668934240363	75	127
182.0668934240363	182.1829931972789	76	127
182.1829931972789	182.29909297052154	77	127
182.29909297052154	182.42678004535148	78	127
182.42678004535148	182.55451247165533	79	127
182.55451247165533	182.68219954648526	80	127
182.68219954648526	182.80993197278912	81	127
182.80993197278912	182.94925170068026	82	127
182.94925170068026	183.08857142857144	83	127
183.08857142857144	183.59941043083901	56	127
183.08857142857144	183.21628117913832	84	127
183.08857142857144	183.59941043083901	60	127
183.21628117913832	183.35560090702947	72	127
183.35560090702947	183.48331065759638	84	127
183.48331065759638	183.59941043083901	84	127
183.61102040816326	183.86643990929704	60	127
183.61102040816326	183.86643990929704	56	127
183.61102040816326	183.7271201814059	84	127
183.73873015873016	183.86643990929704	84	127
183.86643990929704	184.36566893424038	56	127
183.86643990929704	183.99414965986395	84	127
183.86643990929704	184.1102494331066	60	127
183.99414965986395	184.1102494331066	72	127
184.12185941043083	184.23795918367347	84	127
184.12185941043083	184.36566893424038	65	127
184.24956916099774	184.36566893424038	84	127
184.36566893424038	184.6326984126984	53	127
184.36566893424038	184.49337868480725	84	127
184.36566893424038	184.6326984126984	68	127
184.49337868480725	184.6326984126984	84	127
184.64430839002267	184.7604081632653	84	127
184.64430839002267	185.2364172335601	58	127
184.64430839002267	185.2364172335601	67	127
184.77201814058958	184.922947845805	72	127
184.922947845805	185.2364172335601	72	127
184.922947845805	185.07387755102042	84	127
185.07387755102042	185.2364172335601	84	127
185.2364172335601	185.36412698412698	84	127
185.2364172335601	185.4918367346939	76	127
185.2364172335601	185.4918367346939	64	127
185.2364172335601	185.4918367346939	55	127
185.37573696145125	185.4918367346939	84	127
185.50344671201813	185.61954648526077	84	127
185.50344671201813	185.7356462585034	79	127
185.50344671201813	185.9910657596372	64	127
185.50344671201813	185.9910657596372	60	127
185.61954648526077	185.7356462585034	72	127
185.7356462585034	185.9910657596372	84	127
185.7356462585034	185.87496598639456	84	127
185.87496598639456	186.00267573696146	76	127
186.00267573696146	186.11877551020407	84	127
186.00267573696146	186.24648526077098	82	127
186.00267573696146	186.24648526077098	52	127
186.11877551020407	186.24648526077098	79	127
186.24648526077098	186.50190476190477	53	127
186.24648526077098	186.37419501133786	84	127
186.24648526077098	186.50190476190477	80	127
186.24648526077098	186.75732426303856	60	127
186.38580498866213	186.50190476190477	72	127
186.51351473922904	186.62961451247165	84	127
186.51351473922904	186.75732426303856	79	127
186.51351473922904	186.75732426303856	56	127
186.62961451247165	186.75732426303856	84	127
186.75732426303856	187.01274376417234	60	127
186.75732426303856	186.8734240362812	84	127
186.75732426303856	187.01274376417234	77	127
186.75732426303856	187.01274376417234	56	127
186.88503401360543	187.01274376417234	84	127
187.0243537414966	187.57002267573696	56	127
187.0243537414966	187.12884353741498	84	127
187.0243537414966	187.26816326530613	60	127
187.12884353741498	187.26816326530613	72	127
187.26816326530613	187.45392290249433	84	127
187.26816326530613	187.57002267573696	65	127
187.45392290249433	187.57002267573696	84	127
187.58163265306123	187.7093424036281	84	127
187.58163265306123	187.82544217687075	53	127
187.58163265306123	187.82544217687075	68	127
187.72095238095238	187.82544217687075	84	127
187.82544217687075	188.32467120181406	67	127
187.82544217687075	187.92993197278912	84	127
187.82544217687075	188.32467120181406	58	127
187.92993197278912	188.04603174603176	72	127
188.057641723356	188.32467120181406	72	127
188.057641723356	188.17374149659864	84	127
188.1853514739229	188.32467120181406	84	127
188.32467120181406	188.5917006802721	55	127
188.32467120181406	188.46396825396826	84	127
188.32467120181406	188.5917006802721	76	127
188.32467120181406	188.5917006802721	64	127
188.47560090702947	188.5917006802721	84	127
188.60331065759638	188.87031746031747	79	127
188.60331065759638	188.87031746031747	64	127
188.60331065759638	188.87031746031747	60	127
188.60331065759638	188.73102040816326	84	127
188.73102040816326	188.87031746031747	72	127
188.87031746031747	189.02124716553288	84	127
188.87031746031747	189.09092970521542	84	127
188.87031746031747	189.160589569161	52	127
188.87031746031747	189.160589569161	36	127
189.02124716553288	189.17219954648527	76	127
189.17219954648527	190.28675736961452	60	127
189.17219954648527	189.3463492063492	84	127
189.17219954648527	189.49727891156462	55	127
189.17219954648527	189.49727891156462	64	127
189.17219954648527	189.49727891156462	36	127
189.3463492063492	189.49727891156462	79	127
189.49727891156462	189.64820861678004	41	127
189.49727891156462	189.64820861678004	84	127
189.49727891156462	190.28675736961452	56	127
189.49727891156462	190.28675736961452	65	127
189.64820861678004	189.77591836734695	80	127
189.64820861678004	189.77591836734695	44	127
189.77591836734695	189.9152380952381	48	127
189.9152380952381	190.042947845805	53	127
190.042947845805	190.1590476190476	56	127
190.1590476190476	190.28675736961452	60	127
190.28675736961452	190.4144671201814	56	127
190.28675736961452	190.4144671201814	80	127
190.28675736961452	190.4144671201814	53	127
190.4144671201814	190.5421768707483	77	127
190.4144671201814	190.5421768707483	60	127
190.4144671201814	190.5421768707483	56	127
190.5421768707483	190.6698866213152	65	127
190.5421768707483	190.6698866213152	60	127
190.6698866213152	190.7975963718821	68	127
190.6698866213152	190.7975963718821	65	127
190.7975963718821	190.9485260770975	72	127
190.7975963718821	190.9485260770975	68	127
190.9485260770975	191.09945578231293	68	127
190.9485260770975	191.09945578231293	68	127
191.09945578231293	191.21555555555557	84	127
191.09945578231293	191.21555555555557	41	127
191.09945578231293	191.8889342403628	56	127
191.09945578231293	191.8889342403628	65	127
191.09945578231293	191.8889342403628	60	127
191.21555555555557	191.35487528344672	80	127
191.21555555555557	191.35487528344672	44	127
191.35487528344672	191.49419501133787	48	127
191.49419501133787	191.62190476190477	53	127
191.62190476190477	191.73800453514738	56	127
191.73800453514738	191.8889342403628	60	127
191.8889342403628	192.00503401360544	53	127
191.8889342403628	192.00503401360544	56	127
191.8889342403628	192.00503401360544	80	127
192.00503401360544	192.13274376417235	60	127
192.00503401360544	192.13274376417235	77	127
192.00503401360544	192.13274376417235	56	127
192.13274376417235	192.2720634920635	65	127
192.13274376417235	192.2720634920635	60	127
192.2720634920635	192.39977324263037	68	127
192.2720634920635	192.39977324263037	65	127
192.39977324263037	192.52748299319728	72	127
192.39977324263037	192.52748299319728	68	127
192.39977324263037	192.66680272108843	77	127
192.52748299319728	192.6784126984127	72	127
192.52748299319728	192.6784126984127	69	127
192.6784126984127	193.47950113378684	67	127
192.6784126984127	193.47950113378684	64	127
192.6784126984127	192.8409523809524	41	127
192.6784126984127	192.96866213151927	82	127
192.6784126984127	193.47950113378684	73	127
192.6784126984127	193.47950113378684	70	127
192.8409523809524	192.96866213151927	46	127
192.96866213151927	193.14281179138322	84	127
192.96866213151927	193.0847619047619	49	127
193.0847619047619	193.21247165532878	53	127
193.21247165532878	193.3401814058957	58	127
193.21247165532878	193.398231292517	85	127
193.3401814058957	193.47950113378684	61	127
193.47950113378684	193.9903401360544	84	127
193.47950113378684	193.61882086167802	56	127
193.47950113378684	193.61882086167802	53	127
193.61882086167802	193.76975056689344	56	127
193.61882086167802	193.76975056689344	60	127
193.76975056689344	193.8742403628118	60	127
193.76975056689344	193.8742403628118	65	127
193.8742403628118	193.9903401360544	65	127
193.8742403628118	193.9903401360544	68	127
193.9903401360544	194.25736961451247	77	127
193.9903401360544	194.11804988662132	72	127
193.9903401360544	194.11804988662132	68	127
194.11804988662132	194.25736961451247	72	127
194.11804988662132	194.25736961451247	69	127
194.25736961451247	195.09328798185942	73	127
194.25736961451247	195.09328798185942	70	127
194.25736961451247	194.39668934240362	41	127
194.25736961451247	194.51278911564626	82	127
194.25736961451247	195.09328798185942	64	127
194.25736961451247	195.09328798185942	67	127
194.39668934240362	194.51278911564626	46	127
194.51278911564626	194.6521088435374	49	127
194.51278911564626	194.71015873015872	84	127
194.6521088435374	194.79142857142858	53	127
194.79142857142858	194.91913832199546	58	127
194.79142857142858	194.97718820861678	85	127
194.91913832199546	195.10489795918366	61	127
195.10489795918366	195.2209977324263	56	127
195.10489795918366	195.2209977324263	53	127
195.10489795918366	195.604126984127	84	127
195.2209977324263	195.36031746031745	56	127
195.2209977324263	195.36031746031745	60	127
195.36031746031745	195.48802721088435	65	127
195.36031746031745	195.48802721088435	60	127
195.48802721088435	195.61573696145123	68	127
195.48802721088435	195.61573696145123	65	127
195.61573696145123	195.89437641723356	65	127
195.61573696145123	195.89437641723356	84	127
195.61573696145123	195.73183673469387	68	127
195.61573696145123	195.73183673469387	72	127
195.73183673469387	195.89437641723356	68	127
195.73183673469387	195.89437641723356	68	127
195.73183673469387	195.89437641723356	53	127
195.89437641723356	196.0336961451247	68	127
195.89437641723356	196.18462585034013	84	127
195.89437641723356	196.18462585034013	48	127
195.89437641723356	196.18462585034013	65	127
196.0336961451247	196.1962358276644	72	127
196.1962358276644	196.4400453514739	82	127
196.1962358276644	196.31233560090703	67	127
196.1962358276644	196.4400453514739	48	127
196.1962358276644	196.4400453514739	64	127
196.31233560090703	196.4400453514739	72	127
196.4400453514739	196.56775510204082	68	127
196.4400453514739	196.6954648526077	80	127
196.4400453514739	196.6954648526077	60	127
196.4400453514739	196.6954648526077	65	127
196.56775510204082	196.70707482993197	72	127
196.70707482993197	196.83478458049888	65	127
196.70707482993197	196.96249433106576	80	127
196.70707482993197	196.96249433106576	68	127
196.83478458049888	196.96249433106576	72	127
196.96249433106576	197.25274376417232	79	127
196.96249433106576	197.11342403628117	64	127
196.96249433106576	197.25274376417232	48	127
196.96249433106576	197.25274376417232	67	127
197.11342403628117	197.2643537414966	72	127
197.2643537414966	197.51977324263038	77	127
197.2643537414966	197.40367346938777	65	127
197.2643537414966	197.51977324263038	60	127
197.2643537414966	197.51977324263038	68	127
197.40367346938777	197.51977324263038	72	127
197.51977324263038	197.99578231292517	72	127
197.51977324263038	197.63587301587302	67	127
197.51977324263038	197.75197278911565	76	127
197.63587301587302	197.7635827664399	72	127
197.7635827664399	197.99578231292517	84	127
197.7635827664399	197.99578231292517	48	127
197.7635827664399	197.8912925170068	64	127
197.8912925170068	197.99578231292517	72	127
197.99578231292517	198.26281179138323	60	127
197.99578231292517	198.1467120181406	67	127
197.99578231292517	198.1467120181406	70	127
197.99578231292517	198.26281179138323	88	127
198.1467120181406	198.27442176870747	72	127
198.1467120181406	198.27442176870747	67	127
198.27442176870747	198.40213151927438	67	127
198.27442176870747	198.54145124716553	88	127
198.27442176870747	198.54145124716553	48	127
198.27442176870747	198.54145124716553	70	127
198.40213151927438	198.54145124716553	72	127
198.54145124716553	198.83170068027212	53	127
198.54145124716553	198.6807709750567	65	127
198.54145124716553	198.83170068027212	89	127
198.54145124716553	198.83170068027212	68	127
198.6807709750567	198.84331065759636	72	127
198.84331065759636	198.98263038548754	68	127
198.84331065759636	199.13356009070296	72	127
198.84331065759636	199.13356009070296	53	127
198.84331065759636	199.13356009070296	65	127
198.98263038548754	199.13356009070296	72	127
199.13356009070296	199.37736961451247	65	127
199.13356009070296	199.64439909297053	72	127
199.13356009070296	199.64439909297053	69	127
199.13356009070296	199.64439909297053	51	127
199.40058956916099	199.64439909297053	64	127
199.64439909297053	199.95786848072564	65	127
199.95786848072564	200.23650793650793	68	127
200.2481179138322	200.51514739229026	67	127
200.51514739229026	200.82861678004537	69	127
200.8402267573696	201.10725623582766	65	127
200.8402267573696	201.42072562358277	77	127
200.8402267573696	201.42072562358277	65	127
200.8402267573696	201.42072562358277	70	127
200.8402267573696	201.42072562358277	49	127
201.10725623582766	201.42072562358277	64	127
201.43233560090704	201.71097505668934	65	127
201.71097505668934	201.9431746031746	72	127
201.95478458049885	202.24503401360545	70	127
202.24503401360545	202.53528344671201	71	127
202.54689342403628	203.09256235827664	65	127
202.54689342403628	202.81392290249434	68	127
202.54689342403628	203.09256235827664	74	127
202.54689342403628	203.09256235827664	71	127
202.81392290249434	203.09256235827664	66	127
203.1041723356009	203.4524716553288	67	127
203.4524716553288	203.78916099773244	72	127
203.80077097505668	204.09102040816327	70	127
204.09102040816327	204.3580498866213	71	127
204.3580498866213	205.19396825396825	72	127
204.3580498866213	204.8340589569161	67	127
204.3580498866213	205.19396825396825	79	127
204.3580498866213	205.19396825396825	64	127
204.84566893424036	205.19396825396825	66	127
205.19396825396825	205.44938775510204	67	127
205.4609977324263	205.75124716553287	74	127
205.75124716553287	205.9950566893424	71	127
206.00666666666666	206.56394557823128	72	127
206.56394557823128	206.6916553287982	73	127
206.56394557823128	209.97727891156464	37	127
206.6916553287982	206.8425850340136	70	127
207.33020408163264	207.45791383219955	70	127
207.45791383219955	207.5740136054422	67	127
208.10807256235827	209.97727891156464	76	127
208.10807256235827	208.23578231292518	73	127
208.10807256235827	209.97727891156464	52	127
208.10807256235827	209.97727891156464	55	127
208.23578231292518	208.36349206349206	70	127
209.00204081632654	209.17619047619047	70	127
209.17619047619047	209.30390022675738	67	127
209.8263492063492	209.89600907029478	65	127
209.89600907029478	209.97727891156464	68	127
209.97727891156464	211.70716553287983	53	127
209.97727891156464	210.87124716553288	77	127
209.97727891156464	211.70716553287983	65	127
209.97727891156464	211.70716553287983	37	127
209.97727891156464	211.70716553287983	56	127
210.87124716553288	210.9989569160998	80	127
210.9989569160998	211.1498866213152	77	127
211.16149659863945	211.41691609977323	77	127
211.70716553287983	213.49510204081633	46	127
211.70716553287983	213.49510204081633	53	127
211.70716553287983	213.49510204081633	58	127
211.70716553287983	212.5663038548753	77	127
211.70716553287983	212.5663038548753	70	127
211.70716553287983	213.49510204081633	61	127
211.70716553287983	213.49510204081633	65	127
212.57791383219956	212.72884353741497	82	127
212.72884353741497	212.89138321995466	77	127
212.89138321995466	213.18163265306123	77	127
213.50671201814058	215.2598185941043	72	127
213.50671201814058	214.48195011337867	65	127
213.50671201814058	214.48195011337867	72	127
213.50671201814058	214.48195011337867	77	127
213.50671201814058	215.2598185941043	45	127
213.50671201814058	215.2598185941043	60	127
213.50671201814058	215.2598185941043	65	127
213.50671201814058	215.2598185941043	53	127
214.48195011337867	214.60965986394558	84	127
214.60965986394558	214.73736961451246	77	127
214.73736961451246	215.01600907029479	77	127
215.2598185941043	215.65455782312924	46	127
215.2598185941043	215.65455782312924	65	127
215.2598185941043	215.65455782312924	73	127
215.2598185941043	215.65455782312924	53	127
215.2598185941043	215.65455782312924	58	127
215.2598185941043	215.39913832199545	85	127
215.39913832199545	215.53845804988663	77	127
215.5500680272109	215.81709750566893	77	127
216.0725170068027	216.17700680272108	84	127
216.0725170068027	216.37437641723355	64	127
216.0725170068027	216.37437641723355	72	127
216.0725170068027	216.37437641723355	60	127
216.0725170068027	216.37437641723355	48	127
216.0725170068027	216.37437641723355	48	127
216.17700680272108	216.304716553288	76	127
216.304716553288	216.5485260770975	76	127
216.81555555555556	218.44095238095238	56	127
216.81555555555556	217.09419501133786	61	127
216.81555555555556	218.44095238095238	65	127
216.81555555555556	218.44095238095238	53	127
216.81555555555556	218.44095238095238	49	127
217.46571428571428	218.15070294784582	77	127
218.29002267573696	218.45256235827665	77	127
218.45256235827665	218.6847619047619	56	127
218.45256235827665	218.6847619047619	65	127
218.45256235827665	218.6847619047619	53	127
218.45256235827665	218.6847619047619	49	127
218.45256235827665	218.58027210884353	80	127
218.58027210884353	218.6847619047619	77	127
218.6847619047619	220.10117913832198	53	127
218.6847619047619	218.98662131519274	58	127
218.6847619047619	220.10117913832198	61	127
218.6847619047619	220.10117913832198	65	127
218.6847619047619	220.10117913832198	58	127
218.6847619047619	220.10117913832198	46	127
219.35814058956916	219.8457596371882	77	127
219.96185941043083	220.10117913832198	77	127
220.10117913832198	220.33337868480726	61	127
220.10117913832198	220.33337868480726	65	127
220.10117913832198	220.33337868480726	53	127
220.10117913832198	220.33337868480726	58	127
220.10117913832198	220.33337868480726	46	127
220.10117913832198	220.21727891156462	82	127
220.21727891156462	220.34498866213153	77	127
220.34498866213153	220.6004081632653	57	127
220.34498866213153	221.68013605442178	60	127
220.34498866213153	221.68013605442178	45	127
220.34498866213153	221.68013605442178	65	127
220.34498866213153	221.68013605442178	72	127
220.34498866213153	221.68013605442178	53	127
220.8558276643991	221.37827664399094	77	127
221.56403628117914	221.68013605442178	77	127
221.68013605442178	221.95877551020408	60	127
221.68013605442178	221.80784580498866	84	127
221.68013605442178	221.95877551020408	65	127
221.68013605442178	221.95877551020408	72	127
221.68013605442178	221.95877551020408	53	127
221.68013605442178	221.95877551020408	45	127
221.80784580498866	221.95877551020408	77	127
221.97038548752835	222.5160544217687	55	127
221.97038548752835	222.2606349206349	77	127
221.97038548752835	222.5160544217687	65	127
221.97038548752835	222.5160544217687	73	127
221.97038548752835	222.5160544217687	46	127
222.2606349206349	222.5160544217687	77	127
222.52766439909297	222.6785941043084	85	127
222.52766439909297	222.8063038548753	65	127
222.52766439909297	222.8063038548753	55	127
222.52766439909297	222.8063038548753	46	127
222.52766439909297	222.8063038548753	73	127
222.6785941043084	222.8063038548753	77	127
222.8063038548753	223.34036281179138	48	127
222.8063038548753	223.0849433106576	76	127
222.8063038548753	223.34036281179138	64	127
222.8063038548753	223.34036281179138	72	127
222.8063038548753	223.34036281179138	67	127
223.0849433106576	223.34036281179138	76	127
223.35197278911565	223.51451247165534	84	127
223.35197278911565	223.64222222222222	64	127
223.35197278911565	223.64222222222222	72	127
223.35197278911565	223.64222222222222	67	127
223.35197278911565	223.64222222222222	48	127
223.51451247165534	223.64222222222222	76	127
223.64222222222222	223.90925170068027	77	127
223.64222222222222	224.1878911564626	61	127
223.64222222222222	224.1878911564626	53	127
223.64222222222222	224.1878911564626	55	127
223.64222222222222	224.1878911564626	46	127
223.92086167800454	224.1878911564626	77	127
224.1878911564626	224.43170068027212	53	127
224.1878911564626	224.31560090702948	85	127
224.1878911564626	224.43170068027212	61	127
224.1878911564626	224.43170068027212	55	127
224.1878911564626	224.43170068027212	46	127
224.31560090702948	224.44331065759638	77	127
224.44331065759638	224.67551020408163	76	127
224.44331065759638	224.93092970521542	60	127
224.44331065759638	224.93092970521542	52	127
224.44331065759638	224.93092970521542	55	127
224.44331065759638	224.93092970521542	48	127
224.67551020408163	224.93092970521542	76	127
224.93092970521542	225.05863945578233	84	127
224.93092970521542	225.19795918367348	60	127
224.93092970521542	225.19795918367348	52	127
224.93092970521542	225.19795918367348	55	127
224.93092970521542	225.19795918367348	48	127
225.05863945578233	225.20956916099775	76	127
225.20956916099775	225.60430839002268	65	127
225.20956916099775	225.9177777777778	61	127
225.20956916099775	225.9177777777778	53	127
225.20956916099775	225.9177777777778	55	127
225.20956916099775	225.9177777777778	46	127
225.60430839002268	225.9177777777778	65	127
225.92938775510203	226.17319727891157	46	127
225.92938775510203	226.04548752834467	73	127
225.92938775510203	226.17319727891157	61	127
225.92938775510203	226.17319727891157	53	127
225.92938775510203	226.17319727891157	55	127
226.04548752834467	226.17319727891157	65	127
226.17319727891157	226.70725623582766	53	127
226.17319727891157	226.4402267573696	65	127
226.17319727891157	226.70725623582766	61	127
226.17319727891157	226.70725623582766	55	127
226.17319727891157	226.70725623582766	46	127
226.45183673469387	226.70725623582766	65	127
226.70725623582766	226.8814058956916	73	127
226.70725623582766	227.1368253968254	61	127
226.70725623582766	227.1368253968254	53	127
226.70725623582766	227.1368253968254	55	127
226.70725623582766	227.1368253968254	46	127
226.8814058956916	227.1368253968254	65	127
227.1368253968254	228.66934240362812	73	127
229.00603174603174	229.59814058956917	48	127
229.00603174603174	229.28467120181406	64	127
229.00603174603174	229.59814058956917	60	127
229.00603174603174	229.59814058956917	52	127
229.00603174603174	229.59814058956917	55	127
229.29628117913833	229.59814058956917	64	127
229.59814058956917	229.73746031746032	72	127
229.59814058956917	229.8651700680272	60	127
229.59814058956917	229.8651700680272	52	127
229.59814058956917	229.8651700680272	55	127
229.59814058956917	229.8651700680272	48	127
229.73746031746032	229.8651700680272	64	127
229.87678004535147	230.19024943310657	64	127
229.87678004535147	230.51532879818595	60	127
229.87678004535147	230.51532879818595	48	127
229.87678004535147	230.51532879818595	52	127
229.87678004535147	230.51532879818595	55	127
230.19024943310657	230.51532879818595	64	127
230.51532879818595	230.86362811791383	60	127
230.51532879818595	230.66625850340137	72	127
230.51532879818595	230.86362811791383	52	127
230.51532879818595	230.86362811791383	55	127
230.51532879818595	230.86362811791383	48	127
230.66625850340137	230.86362811791383	64	127
230.86362811791383	233.034693877551	72	127
233.034693877551	233.30172335600906	53	127
233.034693877551	234.6136507936508	72	127
233.034693877551	233.56875283446712	41	127
233.31333333333333	233.56875283446712	52	127
233.56875283446712	233.8241723356009	53	127
233.8241723356009	234.35823129251702	41	127
233.8241723356009	234.06798185941042	57	127
233.8241723356009	234.06798185941042	54	127
234.06798185941042	234.35823129251702	53	127
234.06798185941042	234.35823129251702	57	127
234.36984126984126	234.49755102040817	63	127
234.36984126984126	234.6136507936508	54	127
234.49755102040817	234.6136507936508	57	127
234.6136507936508	234.92712018140588	51	127
234.6136507936508	235.2057596371882	41	127
234.6136507936508	235.48439909297053	73	127
234.92712018140588	235.2057596371882	50	127
235.21736961451248	235.48439909297053	51	127
235.49600907029478	236.26226757369614	79	127
235.49600907029478	235.76303854875283	70	127
235.49600907029478	235.76303854875283	52	127
235.49600907029478	236.0300680272109	41	127
235.76303854875283	236.0300680272109	51	127
235.76303854875283	236.0300680272109	70	127
236.0300680272109	236.26226757369614	52	127
236.0300680272109	236.16938775510204	73	127
236.16938775510204	236.2738775510204	70	127
236.2738775510204	236.50607709750568	53	127
236.2738775510204	237.99215419501132	72	127
236.2738775510204	236.78471655328798	41	127
236.51768707482992	236.78471655328798	52	127
236.78471655328798	237.20267573696145	53	127
237.21428571428572	237.45809523809524	54	127
237.21428571428572	237.45809523809524	57	127
237.21428571428572	237.73673469387754	41	127
237.4697052154195	237.73673469387754	57	127
237.4697052154195	237.73673469387754	53	127
237.73673469387754	237.99215419501132	54	127
237.73673469387754	237.86444444444444	63	127
237.86444444444444	237.99215419501132	57	127
237.99215419501132	238.23596371882087	51	127
237.99215419501132	238.46816326530612	41	127
237.99215419501132	238.73519274376417	73	127
238.24757369614514	238.46816326530612	50	127
238.4797732426304	238.73519274376417	51	127
238.73519274376417	239.0138321995465	52	127
238.73519274376417	239.0138321995465	70	127
238.73519274376417	239.2924716553288	41	127
238.73519274376417	239.55950113378685	79	127
239.0138321995465	239.2924716553288	70	127
239.0138321995465	239.2924716553288	51	127
239.30408163265307	239.55950113378685	52	127
239.30408163265307	239.43179138321995	73	127
239.43179138321995	239.55950113378685	70	127
239.55950113378685	239.81492063492064	53	127
239.55950113378685	240.12839002267575	41	127
239.55950113378685	240.46507936507936	72	127
239.55950113378685	240.46507936507936	68	127
239.81492063492064	240.12839002267575	52	127
240.14	240.46507936507936	41	127
240.14	240.46507936507936	53	127
240.47668934240363	240.801768707483	58	127
240.47668934240363	240.801768707483	53	127
240.47668934240363	241.12684807256235	73	127
240.47668934240363	241.12684807256235	41	127
240.801768707483	241.12684807256235	58	127
240.801768707483	241.12684807256235	52	127
241.12684807256235	241.3009977324263	58	127
241.12684807256235	241.41709750566892	79	127
241.12684807256235	241.41709750566892	53	127
241.12684807256235	241.41709750566892	41	127
241.3009977324263	241.41709750566892	55	127
241.4287074829932	241.67251700680274	53	127
241.4287074829932	242.02081632653062	56	127
241.4287074829932	242.02081632653062	41	127
241.4287074829932	242.2762358276644	72	127
241.68412698412698	242.02081632653062	52	127
242.02081632653062	242.2762358276644	53	127
242.02081632653062	242.2762358276644	68	127
242.02081632653062	242.2762358276644	41	127
242.2762358276644	242.87995464852608	41	127
242.2762358276644	242.48521541950115	70	127
242.2762358276644	242.54326530612244	53	127
242.2762358276644	242.87995464852608	73	127
242.5548752834467	242.79868480725622	70	127
242.5548752834467	242.87995464852608	52	127
242.87995464852608	243.22825396825397	79	127
242.87995464852608	243.01927437641723	70	127
242.87995464852608	243.22825396825397	41	127
242.87995464852608	243.22825396825397	53	127
243.01927437641723	243.22825396825397	67	127
243.22825396825397	243.54172335600907	53	127
243.22825396825397	243.54172335600907	41	127
243.22825396825397	244.13383219954648	72	127
243.22825396825397	244.13383219954648	68	127
243.55333333333334	243.79714285714286	52	127
243.55333333333334	243.79714285714286	40	127
243.80875283446713	244.13383219954648	53	127
243.80875283446713	244.13383219954648	41	127
244.13383219954648	244.42408163265307	72	127
244.13383219954648	244.42408163265307	65	127
244.13383219954648	244.42408163265307	68	127
244.42408163265307	244.6911111111111	73	127
244.42408163265307	244.6911111111111	64	127
244.42408163265307	244.6911111111111	70	127
244.70272108843537	245.039410430839	72	127
244.70272108843537	245.039410430839	65	127
244.70272108843537	245.039410430839	68	127
245.05102040816325	245.34126984126985	53	127
245.05102040816325	245.34126984126985	41	127
245.34126984126985	245.58507936507937	52	127
245.34126984126985	245.58507936507937	40	127
245.59668934240364	245.8869387755102	53	127
245.59668934240364	245.8869387755102	41	127
245.89854875283447	246.18879818594104	65	127
246.21201814058958	246.58353741496597	64	127
246.6067573696145	247.25691609977324	65	127
247.25691609977324	248.92875283446713	65	127
247.25691609977324	248.92875283446713	53	127
247.25691609977324	248.92875283446713	41	127
248.92875283446713	250.821179138322	48	127
248.92875283446713	250.821179138322	65	127
248.92875283446713	250.821179138322	56	127
248.92875283446713	250.821179138322	60	127
248.92875283446713	250.821179138322	41	127
251.9473469387755	252.3304761904762	63	127
251.9473469387755	252.06344671201813	48	127
251.9473469387755	252.3304761904762	66	127
251.9473469387755	252.3304761904762	57	127
252.0750566893424	252.144716553288	60	127
252.144716553288	252.21437641723355	60	127
252.21437641723355	252.3304761904762	60	127
252.3304761904762	252.77165532879818	58	127
252.3304761904762	252.43496598639456	60	127
252.3304761904762	252.6671655328798	67	127
252.3304761904762	252.77165532879818	64	127
252.44657596371883	252.5510657596372	60	127
252.56267573696144	252.6671655328798	60	127
252.6671655328798	252.77165532879818	68	127
252.6671655328798	252.77165532879818	60	127
252.77165532879818	252.8645351473923	69	127
252.77165532879818	252.8645351473923	65	127
252.77165532879818	252.8645351473923	60	127
252.77165532879818	252.8645351473923	60	127
252.87614512471654	252.96902494331067	69	127
252.87614512471654	252.96902494331067	64	127
252.87614512471654	252.96902494331067	65	127
252.87614512471654	252.96902494331067	60	127
252.9806349206349	253.06190476190477	69	127
252.9806349206349	253.06190476190477	65	127
252.9806349206349	253.06190476190477	65	127
252.9806349206349	253.06190476190477	60	127
253.06190476190477	253.16639455782314	62	127
253.06190476190477	253.16639455782314	69	127
253.06190476190477	253.16639455782314	65	127
253.06190476190477	253.16639455782314	60	127
253.16639455782314	253.2360544217687	60	127
253.16639455782314	253.2360544217687	70	127
253.16639455782314	253.2360544217687	67	127
253.16639455782314	253.2360544217687	60	127
253.24766439909297	253.34054421768707	62	127
253.24766439909297	253.34054421768707	70	127
253.24766439909297	253.34054421768707	67	127
253.24766439909297	253.34054421768707	60	127
253.34054421768707	253.41020408163266	64	127
253.34054421768707	253.41020408163266	70	127
253.34054421768707	253.41020408163266	67	127
253.34054421768707	253.41020408163266	60	127
253.42181405895693	253.51469387755103	65	127
253.42181405895693	253.51469387755103	70	127
253.42181405895693	253.51469387755103	67	127
253.42181405895693	253.51469387755103	60	127
253.51469387755103	253.6191836734694	67	127
253.51469387755103	253.6191836734694	70	127
253.51469387755103	253.6191836734694	67	127
253.51469387755103	253.6191836734694	60	127
253.6191836734694	253.7120634920635	69	127
253.6191836734694	253.7120634920635	70	127
253.6191836734694	253.7120634920635	67	127
253.6191836734694	253.7120634920635	60	127
253.72367346938776	253.8049433106576	70	127
253.72367346938776	253.8049433106576	67	127
253.72367346938776	253.8049433106576	60	127
253.8049433106576	253.88621315192745	72	127
253.8049433106576	253.88621315192745	70	127
253.8049433106576	253.88621315192745	67	127
253.8049433106576	253.88621315192745	60	127
253.88621315192745	253.97909297052155	74	127
253.88621315192745	253.97909297052155	70	127
253.88621315192745	253.97909297052155	67	127
253.88621315192745	253.97909297052155	60	127
253.97909297052155	254.07197278911565	76	127
253.97909297052155	254.07197278911565	70	127
253.97909297052155	254.07197278911565	67	127
253.97909297052155	254.07197278911565	60	127
254.07197278911565	254.16485260770975	77	127
254.07197278911565	254.16485260770975	70	127
254.07197278911565	254.16485260770975	67	127
254.07197278911565	254.16485260770975	60	127
254.17646258503402	254.28095238095239	79	127
254.17646258503402	254.28095238095239	70	127
254.17646258503402	254.28095238095239	67	127
254.17646258503402	254.28095238095239	60	127
254.28095238095239	254.38544217687075	65	127
254.28095238095239	254.38544217687075	81	127
254.28095238095239	254.38544217687075	69	127
254.28095238095239	254.38544217687075	60	127
254.38544217687075	254.47832199546485	82	127
254.38544217687075	254.47832199546485	79	127
254.38544217687075	254.47832199546485	72	127
254.38544217687075	254.47832199546485	60	127
254.48993197278912	254.55959183673468	84	127
254.48993197278912	254.55959183673468	81	127
254.48993197278912	254.55959183673468	72	127
254.48993197278912	254.55959183673468	60	127
254.55959183673468	254.6524716553288	86	127
254.55959183673468	254.6524716553288	82	127
254.55959183673468	254.6524716553288	72	127
254.55959183673468	254.6524716553288	60	127
254.66408163265305	254.76857142857142	84	127
254.66408163265305	254.76857142857142	81	127
254.66408163265305	254.76857142857142	72	127
254.66408163265305	254.76857142857142	60	127
254.76857142857142	254.84984126984128	81	127
254.76857142857142	254.84984126984128	77	127
254.76857142857142	254.84984126984128	72	127
254.76857142857142	254.84984126984128	60	127
254.84984126984128	254.95433106575965	82	127
254.84984126984128	254.95433106575965	79	127
254.84984126984128	254.95433106575965	72	127
254.84984126984128	254.95433106575965	60	127
254.9659410430839	255.07043083900226	79	127
254.9659410430839	255.07043083900226	76	127
254.9659410430839	255.07043083900226	70	127
254.9659410430839	255.07043083900226	60	127
255.07043083900226	255.17492063492062	77	127
255.07043083900226	255.17492063492062	72	127
255.07043083900226	255.17492063492062	65	127
255.07043083900226	255.279410430839	69	127
255.1865306122449	255.279410430839	69	127
255.1865306122449	255.279410430839	65	127
255.1865306122449	255.279410430839	72	127
255.279410430839	255.38390022675736	72	127
255.279410430839	255.38390022675736	69	127
255.279410430839	255.38390022675736	65	127
255.38390022675736	255.47678004535146	72	127
255.38390022675736	255.47678004535146	69	127
255.38390022675736	255.47678004535146	65	127
255.48839002267573	255.58126984126983	77	127
255.48839002267573	255.58126984126983	69	127
255.48839002267573	255.58126984126983	65	127
255.58126984126983	255.67414965986396	73	127
255.58126984126983	255.67414965986396	69	127
255.58126984126983	255.67414965986396	65	127
255.6857596371882	255.74380952380952	73	127
255.6857596371882	255.74380952380952	69	127
255.6857596371882	255.74380952380952	65	127
255.74380952380952	255.82507936507938	73	127
255.74380952380952	255.82507936507938	69	127
255.74380952380952	255.82507936507938	65	127
255.82507936507938	255.89473922902494	77	127
255.82507936507938	255.89473922902494	74	127
255.82507936507938	255.89473922902494	65	127
255.82507936507938	255.89473922902494	65	127
255.9063492063492	255.9760090702948	70	127
255.9063492063492	255.9760090702948	74	127
255.9063492063492	255.9760090702948	70	127
255.9063492063492	255.9760090702948	65	127
255.9760090702948	256.05727891156465	74	127
255.9760090702948	256.05727891156465	70	127
255.9760090702948	256.05727891156465	70	127
255.9760090702948	256.05727891156465	65	127
256.0688662131519	256.1269387755102	74	127
256.0688662131519	256.1269387755102	70	127
256.0688662131519	256.1269387755102	70	127
256.0688662131519	256.1269387755102	65	127
256.1269387755102	256.2314285714286	82	127
256.1269387755102	256.2314285714286	76	127
256.1269387755102	256.2314285714286	67	127
256.1269387755102	256.2314285714286	65	127
256.2314285714286	256.3243083900227	76	127
256.2314285714286	256.3243083900227	70	127
256.2314285714286	256.3243083900227	72	127
256.2314285714286	256.3243083900227	65	127
256.33591836734695	256.42879818594105	76	127
256.33591836734695	256.42879818594105	70	127
256.33591836734695	256.42879818594105	72	127
256.33591836734695	256.42879818594105	65	127
256.42879818594105	256.5332879818594	76	127
256.42879818594105	256.5332879818594	70	127
256.42879818594105	256.5332879818594	72	127
256.42879818594105	256.5332879818594	65	127
256.5332879818594	256.6261678004535	79	127
256.5332879818594	256.6261678004535	72	127
256.5332879818594	256.6261678004535	69	127
256.5332879818594	256.6261678004535	65	127
256.6377777777778	256.7306575963719	77	127
256.6377777777778	256.7306575963719	69	127
256.6377777777778	256.7306575963719	72	127
256.6377777777778	256.7306575963719	65	127
256.7306575963719	256.8467573696145	69	127
256.7306575963719	256.8467573696145	72	127
256.7306575963719	256.8467573696145	65	127
256.7306575963719	256.8467573696145	77	127
256.8583673469388	256.9396371882086	77	127
256.8583673469388	256.9396371882086	69	127
256.8583673469388	256.9396371882086	72	127
256.8583673469388	256.9396371882086	65	127
256.9396371882086	257.06734693877553	69	127
256.9396371882086	257.044126984127	77	127
256.9396371882086	257.044126984127	72	127
256.9396371882086	257.044126984127	65	127
257.044126984127	257.06734693877553	73	127
257.044126984127	257.06734693877553	69	127
257.044126984127	257.06734693877553	65	127
257.06734693877553	257.14861678004536	73	127
257.06734693877553	257.14861678004536	69	127
257.06734693877553	257.14861678004536	65	127
257.14861678004536	257.24149659863946	73	127
257.14861678004536	257.24149659863946	69	127
257.14861678004536	257.24149659863946	65	127
257.2531065759637	257.3459863945578	77	127
257.2531065759637	257.3459863945578	74	127
257.2531065759637	257.3459863945578	65	127
257.2531065759637	257.3459863945578	65	127
257.3459863945578	257.4504761904762	74	127
257.3459863945578	257.4504761904762	70	127
257.3459863945578	257.4504761904762	70	127
257.3459863945578	257.4504761904762	65	127
257.4504761904762	257.5433560090703	70	127
257.4504761904762	257.5433560090703	70	127
257.4504761904762	257.5433560090703	65	127
257.4504761904762	257.5433560090703	74	127
257.55496598639456	257.6362358276644	74	127
257.55496598639456	257.6362358276644	70	127
257.55496598639456	257.6362358276644	70	127
257.55496598639456	257.6362358276644	65	127
257.6362358276644	257.74072562358276	82	127
257.6362358276644	257.74072562358276	70	127
257.6362358276644	257.74072562358276	67	127
257.6362358276644	257.74072562358276	65	127
257.74072562358276	257.84521541950113	76	127
257.74072562358276	257.84521541950113	70	127
257.74072562358276	257.84521541950113	72	127
257.74072562358276	257.84521541950113	65	127
257.84521541950113	257.9497052154195	76	127
257.84521541950113	257.9497052154195	70	127
257.84521541950113	257.9497052154195	72	127
257.84521541950113	257.9497052154195	65	127
257.9497052154195	258.0425850340136	76	127
257.9497052154195	258.0425850340136	70	127
257.9497052154195	258.0425850340136	72	127
257.9497052154195	258.0425850340136	65	127
258.05419501133787	258.15868480725624	69	127
258.05419501133787	258.15868480725624	72	127
258.05419501133787	258.367664399093	84	127
258.05419501133787	258.15868480725624	65	127
258.15868480725624	258.2631746031746	77	127
258.15868480725624	258.2631746031746	69	127
258.15868480725624	258.2631746031746	65	127
258.2631746031746	258.367664399093	77	127
258.2631746031746	258.367664399093	69	127
258.2631746031746	258.367664399093	65	127
258.37927437641724	258.47215419501134	89	127
258.37927437641724	258.47215419501134	77	127
258.37927437641724	258.47215419501134	69	127
258.37927437641724	258.47215419501134	65	127
258.47215419501134	258.56503401360544	89	127
258.47215419501134	258.56503401360544	79	127
258.47215419501134	258.56503401360544	70	127
258.47215419501134	258.56503401360544	64	127
258.5766439909297	258.6695238095238	88	127
258.5766439909297	258.6695238095238	79	127
258.5766439909297	258.6695238095238	70	127
258.5766439909297	258.6695238095238	64	127
258.6695238095238	258.7740136054422	86	127
258.6695238095238	258.7740136054422	79	127
258.6695238095238	258.7740136054422	70	127
258.6695238095238	258.7740136054422	64	127
258.7740136054422	258.8668934240363	84	127
258.7740136054422	258.8668934240363	79	127
258.7740136054422	258.8668934240363	70	127
258.7740136054422	258.8668934240363	64	127
258.87850340136055	258.97138321995465	69	127
258.87850340136055	258.97138321995465	77	127
258.87850340136055	258.97138321995465	65	127
258.87850340136055	259.1687528344671	84	127
258.97138321995465	259.06426303854875	65	127
258.97138321995465	259.06426303854875	77	127
258.97138321995465	259.06426303854875	69	127
259.075873015873	259.1687528344671	77	127
259.075873015873	259.1687528344671	69	127
259.075873015873	259.1687528344671	65	127
259.1687528344671	259.2616326530612	89	127
259.1687528344671	259.2616326530612	77	127
259.1687528344671	259.2616326530612	69	127
259.1687528344671	259.2616326530612	65	127
259.2616326530612	259.3545124716553	64	127
259.2616326530612	259.3545124716553	89	127
259.2616326530612	259.3545124716553	79	127
259.2616326530612	259.3545124716553	70	127
259.3661224489796	259.4590022675737	88	127
259.3661224489796	259.4590022675737	79	127
259.3661224489796	259.4590022675737	70	127
259.3661224489796	259.4590022675737	64	127
259.4590022675737	259.5518820861678	86	127
259.4590022675737	259.5518820861678	79	127
259.4590022675737	259.5518820861678	70	127
259.4590022675737	259.5518820861678	64	127
259.5518820861678	259.64473922902494	84	127
259.5518820861678	259.64473922902494	79	127
259.5518820861678	259.64473922902494	70	127
259.5518820861678	259.64473922902494	64	127
259.65637188208615	259.7492290249433	65	127
259.65637188208615	259.7492290249433	77	127
259.65637188208615	259.7492290249433	69	127
259.65637188208615	259.8885714285714	84	127
259.7492290249433	259.81891156462586	69	127
259.7492290249433	259.81891156462586	65	127
259.7492290249433	259.81891156462586	77	127
259.83052154195013	259.8885714285714	77	127
259.83052154195013	259.8885714285714	69	127
259.83052154195013	259.8885714285714	65	127
259.8885714285714	259.9814512471655	89	127
259.8885714285714	259.9814512471655	77	127
259.8885714285714	259.9814512471655	69	127
259.8885714285714	259.9814512471655	65	127
259.9814512471655	260.0743310657596	89	127
259.9814512471655	260.0743310657596	79	127
259.9814512471655	260.0743310657596	70	127
259.9814512471655	260.0743310657596	64	127
260.0859410430839	260.178820861678	88	127
260.0859410430839	260.178820861678	79	127
260.0859410430839	260.178820861678	70	127
260.0859410430839	260.178820861678	64	127
260.178820861678	260.2717006802721	86	127
260.178820861678	260.2717006802721	79	127
260.178820861678	260.2717006802721	70	127
260.178820861678	260.2717006802721	64	127
260.28331065759636	260.37619047619046	84	127
260.28331065759636	260.37619047619046	79	127
260.28331065759636	260.37619047619046	70	127
260.28331065759636	260.37619047619046	64	127
260.37619047619046	260.4690476190476	69	127
260.37619047619046	260.4690476190476	77	127
260.37619047619046	260.4690476190476	65	127
260.37619047619046	260.6664172335601	84	127
260.4690476190476	260.5619274376417	65	127
260.4690476190476	260.5619274376417	69	127
260.4690476190476	260.5619274376417	77	127
260.573537414966	260.6664172335601	77	127
260.573537414966	260.6664172335601	69	127
260.573537414966	260.6664172335601	65	127
260.6664172335601	260.77090702947845	89	127
260.6664172335601	260.77090702947845	77	127
260.6664172335601	260.77090702947845	69	127
260.6664172335601	260.77090702947845	65	127
260.77090702947845	260.86380952380955	89	127
260.77090702947845	260.86380952380955	76	127
260.77090702947845	260.86380952380955	67	127
260.77090702947845	260.86380952380955	64	127
260.86380952380955	260.9682993197279	88	127
260.86380952380955	260.9682993197279	76	127
260.86380952380955	260.9682993197279	67	127
260.86380952380955	260.9682993197279	64	127
260.9682993197279	261.061179138322	86	127
260.9682993197279	261.061179138322	76	127
260.9682993197279	261.061179138322	67	127
260.9682993197279	261.061179138322	64	127
261.0727664399093	261.1656689342404	84	127
261.0727664399093	261.1656689342404	76	127
261.0727664399093	261.1656689342404	67	127
261.0727664399093	261.1656689342404	64	127
261.1656689342404	261.27015873015876	71	127
261.1656689342404	261.27015873015876	89	127
261.1656689342404	261.27015873015876	65	127
261.1656689342404	261.27015873015876	62	127
261.27015873015876	261.36303854875285	89	127
261.27015873015876	261.36303854875285	65	127
261.27015873015876	261.36303854875285	59	127
261.27015873015876	261.36303854875285	50	127
261.3746485260771	261.4675283446712	88	127
261.3746485260771	261.4675283446712	65	127
261.3746485260771	261.4675283446712	59	127
261.3746485260771	261.4675283446712	50	127
261.4675283446712	261.5604081632653	86	127
261.4675283446712	261.5604081632653	65	127
261.4675283446712	261.5604081632653	59	127
261.4675283446712	261.5604081632653	50	127
261.5720181405896	261.6532879818594	84	127
261.5720181405896	261.6532879818594	65	127
261.5720181405896	261.6532879818594	59	127
261.5720181405896	261.6532879818594	50	127
261.6532879818594	261.7577777777778	83	127
261.6532879818594	261.7577777777778	65	127
261.6532879818594	261.7577777777778	59	127
261.6532879818594	261.7577777777778	50	127
261.7577777777778	261.8506575963719	81	127
261.7577777777778	261.8506575963719	65	127
261.7577777777778	261.8506575963719	59	127
261.7577777777778	261.8506575963719	50	127
261.86226757369616	261.943537414966	50	127
261.86226757369616	261.943537414966	79	127
261.86226757369616	261.943537414966	65	127
261.86226757369616	261.943537414966	59	127
261.943537414966	262.0364172335601	77	127
261.943537414966	262.0364172335601	62	127
261.943537414966	262.0364172335601	59	127
261.943537414966	262.0364172335601	43	127
262.04802721088436	262.1060544217687	76	127
262.04802721088436	262.1060544217687	62	127
262.04802721088436	262.1060544217687	59	127
262.04802721088436	262.1060544217687	43	127
262.1060544217687	262.17573696145126	74	127
262.1060544217687	262.17573696145126	62	127
262.1060544217687	262.17573696145126	59	127
262.1060544217687	262.17573696145126	43	127
262.17573696145126	262.26861678004536	72	127
262.17573696145126	262.26861678004536	62	127
262.17573696145126	262.26861678004536	59	127
262.17573696145126	262.26861678004536	43	127
262.28022675736963	262.37310657596373	71	127
262.28022675736963	262.37310657596373	62	127
262.28022675736963	262.37310657596373	59	127
262.28022675736963	262.37310657596373	43	127
262.37310657596373	262.45437641723356	69	127
262.37310657596373	262.45437641723356	62	127
262.37310657596373	262.45437641723356	59	127
262.37310657596373	262.45437641723356	43	127
262.45437641723356	262.54725623582766	67	127
262.45437641723356	262.54725623582766	62	127
262.45437641723356	262.54725623582766	59	127
262.45437641723356	262.54725623582766	43	127
262.55886621315193	262.6285260770975	65	127
262.55886621315193	262.6285260770975	62	127
262.55886621315193	262.6285260770975	59	127
262.55886621315193	262.6285260770975	43	127
262.6285260770975	262.7097732426304	64	127
262.6285260770975	262.7097732426304	55	127
262.6285260770975	262.7097732426304	48	127
262.7214058956916	262.81426303854875	67	127
262.7214058956916	262.81426303854875	64	127
262.7214058956916	262.81426303854875	55	127
262.7214058956916	262.81426303854875	48	127
262.81426303854875	262.90716553287984	70	127
262.81426303854875	262.90716553287984	64	127
262.81426303854875	262.90716553287984	55	127
262.81426303854875	262.90716553287984	48	127
262.90716553287984	263.00004535147394	72	127
262.90716553287984	263.00004535147394	64	127
262.90716553287984	263.00004535147394	55	127
262.90716553287984	263.00004535147394	48	127
263.0116553287982	263.1045351473923	76	127
263.0116553287982	263.1045351473923	58	127
263.0116553287982	263.1045351473923	64	127
263.0116553287982	263.1045351473923	55	127
263.0116553287982	263.1045351473923	48	127
263.1045351473923	263.2090249433107	79	127
263.1045351473923	263.2090249433107	58	127
263.1045351473923	263.2090249433107	64	127
263.1045351473923	263.2090249433107	55	127
263.1045351473923	263.2090249433107	48	127
263.22061224489795	263.31351473922905	82	127
263.22061224489795	263.31351473922905	58	127
263.22061224489795	263.31351473922905	64	127
263.22061224489795	263.31351473922905	55	127
263.22061224489795	263.31351473922905	48	127
263.31351473922905	263.4180045351474	82	127
263.31351473922905	263.4180045351474	58	127
263.31351473922905	263.4180045351474	64	127
263.31351473922905	263.4180045351474	55	127
263.31351473922905	263.4180045351474	48	127
263.4180045351474	263.53408163265306	82	127
263.4180045351474	263.53408163265306	57	127
263.4180045351474	263.53408163265306	65	127
263.4180045351474	263.53408163265306	53	127
263.4180045351474	263.53408163265306	50	127
263.54571428571427	263.6385714285714	81	127
263.54571428571427	263.6385714285714	57	127
263.54571428571427	263.6385714285714	65	127
263.54571428571427	263.6385714285714	53	127
263.54571428571427	263.6385714285714	50	127
263.6385714285714	263.7430612244898	82	127
263.6385714285714	263.7430612244898	57	127
263.6385714285714	263.7430612244898	65	127
263.6385714285714	263.7430612244898	53	127
263.6385714285714	263.7430612244898	50	127
263.7430612244898	263.8359410430839	84	127
263.7430612244898	263.8359410430839	57	127
263.7430612244898	263.8359410430839	65	127
263.7430612244898	263.8359410430839	53	127
263.7430612244898	263.8359410430839	50	127
263.8359410430839	263.94043083900226	86	127
263.8359410430839	263.94043083900226	62	127
263.8359410430839	263.94043083900226	65	127
263.8359410430839	263.94043083900226	58	127
263.8359410430839	263.94043083900226	46	127
263.94043083900226	264.0101133786848	88	127
263.94043083900226	264.0101133786848	62	127
263.94043083900226	264.0101133786848	65	127
263.94043083900226	264.0101133786848	58	127
263.94043083900226	264.0101133786848	46	127
264.0217233560091	264.1146031746032	89	127
264.0217233560091	264.1146031746032	62	127
264.0217233560091	264.1146031746032	65	127
264.0217233560091	264.1146031746032	58	127
264.0217233560091	264.1146031746032	46	127
264.1146031746032	264.195873015873	89	127
264.1146031746032	264.195873015873	62	127
264.1146031746032	264.195873015873	65	127
264.1146031746032	264.195873015873	58	127
264.1146031746032	264.195873015873	46	127
264.195873015873	264.2887528344671	65	127
264.195873015873	264.2887528344671	69	127
264.195873015873	264.2887528344671	60	127
264.195873015873	264.2887528344671	48	127
264.195873015873	264.3235827664399	89	127
264.3003628117914	264.37002267573695	69	127
264.3003628117914	264.37002267573695	77	127
264.3003628117914	264.37002267573695	60	127
264.3003628117914	264.37002267573695	48	127
264.37002267573695	264.46290249433105	69	127
264.37002267573695	264.46290249433105	77	127
264.37002267573695	264.46290249433105	60	127
264.37002267573695	264.46290249433105	48	127
264.37002267573695	264.5093424036281	91	127
264.4745124716553	264.5093424036281	77	127
264.4745124716553	264.5093424036281	69	127
264.4745124716553	264.5093424036281	60	127
264.4745124716553	264.5093424036281	48	127
264.5093424036281	264.6138321995465	69	127
264.5093424036281	264.6138321995465	77	127
264.5093424036281	264.6138321995465	60	127
264.5093424036281	264.6138321995465	48	127
264.5093424036281	264.66024943310657	93	127
264.6138321995465	264.7067120181406	69	127
264.6138321995465	264.7067120181406	77	127
264.6138321995465	264.7067120181406	60	127
264.6138321995465	264.7067120181406	48	127
264.71832199546486	264.81120181405896	69	127
264.71832199546486	264.81120181405896	77	127
264.71832199546486	264.81120181405896	60	127
264.71832199546486	264.81120181405896	48	127
264.71832199546486	264.85761904761904	94	127
264.81120181405896	264.8808616780045	69	127
264.81120181405896	264.8808616780045	77	127
264.81120181405896	264.8808616780045	60	127
264.81120181405896	264.8808616780045	48	127
264.8924716553288	264.9621088435374	96	127
264.8924716553288	264.9853514739229	67	127
264.8924716553288	264.9853514739229	76	127
264.8924716553288	264.9853514739229	48	127
264.8924716553288	264.9853514739229	60	127
264.8924716553288	264.9853514739229	36	127
264.9853514739229	265.08984126984126	76	127
264.9853514739229	265.08984126984126	67	127
264.9853514739229	265.08984126984126	48	127
264.9853514739229	265.08984126984126	60	127
264.9853514739229	265.08984126984126	36	127
265.08984126984126	265.18272108843536	86	127
265.08984126984126	265.18272108843536	67	127
265.08984126984126	265.18272108843536	76	127
265.08984126984126	265.18272108843536	48	127
265.08984126984126	265.18272108843536	60	127
265.08984126984126	265.18272108843536	36	127
265.1943310657596	265.2872108843537	84	127
265.1943310657596	265.2872108843537	67	127
265.1943310657596	265.2872108843537	76	127
265.1943310657596	265.2872108843537	48	127
265.1943310657596	265.2872108843537	60	127
265.1943310657596	265.2872108843537	36	127
265.2872108843537	265.3684580498866	84	127
265.2872108843537	265.3684580498866	67	127
265.2872108843537	265.3684580498866	76	127
265.2872108843537	265.3684580498866	48	127
265.2872108843537	265.3684580498866	60	127
265.2872108843537	265.3684580498866	36	127
265.3684580498866	265.4613605442177	82	127
265.3684580498866	265.4613605442177	67	127
265.3684580498866	265.4613605442177	76	127
265.3684580498866	265.4613605442177	48	127
265.3684580498866	265.4613605442177	60	127
265.3684580498866	265.4613605442177	36	127
265.472947845805	265.57743764172335	81	127
265.472947845805	265.57743764172335	67	127
265.472947845805	265.57743764172335	76	127
265.472947845805	265.57743764172335	48	127
265.472947845805	265.57743764172335	60	127
265.472947845805	265.57743764172335	36	127
265.57743764172335	265.6819274376417	79	127
265.57743764172335	265.6819274376417	67	127
265.57743764172335	265.6819274376417	76	127
265.57743764172335	265.6819274376417	48	127
265.57743764172335	265.6819274376417	60	127
265.57743764172335	265.6819274376417	36	127
265.69356009070293	265.8909297052154	77	127
265.69356009070293	265.8909297052154	69	127
265.69356009070293	265.8909297052154	53	127
265.69356009070293	265.8909297052154	60	127
265.69356009070293	265.8909297052154	41	127
266.0882766439909	266.29725623582766	81	127
266.0882766439909	266.29725623582766	75	127
266.0882766439909	266.29725623582766	65	127
266.0882766439909	266.29725623582766	41	127
266.401768707483	266.48303854875286	81	127
266.401768707483	266.48303854875286	75	127
266.401768707483	266.48303854875286	53	127
266.401768707483	266.48303854875286	41	127
266.4946258503401	266.6804081632653	82	127
266.4946258503401	266.6804081632653	74	127
266.4946258503401	266.6804081632653	58	127
266.4946258503401	266.6804081632653	46	127
266.8777777777778	267.07514739229026	81	127
266.8777777777778	267.07514739229026	75	127
266.8777777777778	267.07514739229026	65	127
266.8777777777778	267.07514739229026	41	127
267.17963718820863	267.27251700680273	81	127
267.17963718820863	267.27251700680273	75	127
267.17963718820863	267.27251700680273	53	127
267.17963718820863	267.27251700680273	41	127
267.27251700680273	267.4582766439909	82	127
267.27251700680273	267.4582766439909	74	127
267.27251700680273	267.4582766439909	58	127
267.27251700680273	267.4582766439909	46	127
267.67886621315193	267.8762358276644	83	127
267.67886621315193	267.8762358276644	74	127
267.67886621315193	267.8762358276644	67	127
267.67886621315193	267.8762358276644	43	127
267.99233560090704	268.08521541950114	83	127
267.99233560090704	268.08521541950114	74	127
267.99233560090704	268.08521541950114	55	127
267.99233560090704	268.08521541950114	43	127
268.08521541950114	268.3290249433107	84	127
268.08521541950114	268.3290249433107	76	127
268.08521541950114	268.3290249433107	67	127
268.08521541950114	268.3290249433107	36	127
268.5728344671202	268.77020408163264	89	127
268.5728344671202	268.77020408163264	74	127
268.5728344671202	268.77020408163264	71	127
268.5728344671202	268.77020408163264	43	127
268.874693877551	268.9675736961451	74	127
268.874693877551	268.9675736961451	89	127
268.874693877551	268.9675736961451	71	127
268.874693877551	268.9675736961451	43	127
268.9675736961451	269.2346031746032	36	127
268.9675736961451	269.0720634920635	88	127
268.9675736961451	269.2346031746032	72	127
268.9675736961451	269.2346031746032	76	127
268.9675736961451	269.2346031746032	64	127
268.9675736961451	269.2346031746032	72	127
269.0720634920635	269.2346031746032	84	127
269.25780045351473	269.35070294784583	84	127
269.35070294784583	269.4551927437642	84	127
269.46678004535147	269.55965986394557	84	127
269.55965986394557	269.5712925170068	84	127
269.5712925170068	269.6061224489796	84	127
269.6061224489796	269.74544217687077	82	127
269.6061224489796	270.0124716553288	54	127
269.80349206349206	270.1749886621315	82	127
270.0124716553288	270.2678911564626	55	127
270.1749886621315	270.30272108843536	76	127
270.2678911564626	270.372380952381	56	127
270.372380952381	270.4652607709751	57	127
270.372380952381	270.5117006802721	77	127
270.47687074829935	270.56975056689345	52	127
270.56975056689345	270.6742403628118	53	127
270.56975056689345	270.88321995464855	77	127
270.6742403628118	270.7671201814059	50	127
270.7787301587302	270.86	48	127
270.86	270.88321995464855	50	127
270.8948072562358	271.0225396825397	72	127
270.8948072562358	270.9877097505669	52	127
270.9877097505669	271.0921768707483	53	127
271.0921768707483	271.1850793650794	55	127
271.0921768707483	271.21990929705214	70	127
271.19666666666666	271.28956916099776	57	127
271.28956916099776	271.69591836734696	70	127
271.28956916099776	271.38244897959186	58	127
271.3940589569161	271.4869387755102	60	127
271.4869387755102	271.5914285714286	62	127
271.5914285714286	271.69591836734696	64	127
271.70750566893423	271.8352380952381	64	127
271.70750566893423	271.80040816326533	65	127
271.80040816326533	271.9048979591837	67	127
271.9048979591837	272.02097505668934	69	127
271.9048979591837	272.0558276643991	65	127
272.03260770975055	272.1254648526077	70	127
272.1254648526077	272.2183446712018	72	127
272.1254648526077	272.52022675736964	65	127
272.229977324263	272.3228344671202	74	127
272.3228344671202	272.52022675736964	72	127
272.5318140589569	272.65954648526076	60	127
272.7291836734694	272.83367346938775	70	127
272.7291836734694	272.83367346938775	82	127
272.7291836734694	273.1007256235828	42	127
272.9033560090703	273.286485260771	82	127
272.9033560090703	273.286485260771	70	127
273.1007256235828	273.39097505668934	43	127
273.286485260771	273.4374149659864	76	127
273.286485260771	273.4374149659864	64	127
273.39097505668934	273.507074829932	44	127
273.51868480725625	273.9018140589569	80	127
273.51868480725625	273.61156462585035	45	127
273.51868480725625	273.64639455782316	65	127
273.51868480725625	273.64639455782316	77	127
273.61156462585035	273.7160544217687	40	127
273.7160544217687	274.0991836734694	65	127
273.7160544217687	273.79732426303855	41	127
273.7160544217687	274.0991836734694	77	127
273.8089342403628	273.9018140589569	38	127
273.9018140589569	274.0991836734694	81	127
273.9018140589569	273.994693877551	36	127
274.0063038548753	274.0991836734694	38	127
274.0991836734694	274.23850340136056	72	127
274.0991836734694	274.20367346938775	40	127
274.0991836734694	274.23850340136056	60	127
274.0991836734694	274.29655328798185	77	127
274.20367346938775	274.29655328798185	41	127
274.3081632653061	274.4010430839002	43	127
274.3081632653061	274.4474829931973	70	127
274.3081632653061	274.4474829931973	58	127
274.4010430839002	274.51714285714286	45	127
274.5287528344671	274.6216326530612	46	127
274.5287528344671	274.9002721088435	70	127
274.5287528344671	274.9002721088435	58	127
274.6216326530612	274.7261224489796	48	127
274.7261224489796	274.8073922902494	50	127
274.8073922902494	274.9002721088435	52	127
274.9002721088435	275.05120181405897	64	127
274.9002721088435	275.0047619047619	53	127
274.9002721088435	275.05120181405897	52	127
275.0047619047619	275.097641723356	55	127
275.10925170068026	275.24857142857144	65	127
275.10925170068026	275.24857142857144	53	127
275.10925170068026	275.20213151927436	57	127
275.10925170068026	275.43433106575964	88	127
275.20213151927436	275.2949886621315	58	127
275.30662131519273	275.62009070294783	53	127
275.30662131519273	275.3878684807256	60	127
275.30662131519273	275.62009070294783	65	127
275.3878684807256	275.43433106575964	62	127
275.43433106575964	275.62009070294783	89	127
275.43433106575964	275.62009070294783	60	127
275.6317006802721	275.78263038548755	48	127
275.6317006802721	275.78263038548755	60	127
275.6317006802721	275.84068027210884	84	127
275.84068027210884	276.2121768707483	66	127
275.84068027210884	275.9451700680272	52	127
275.84068027210884	275.9916099773243	46	127
275.84068027210884	276.2121768707483	78	127
275.9451700680272	276.0380498866213	48	127
276.0496598639456	276.1309297052154	52	127
276.0496598639456	276.421179138322	46	127
276.1309297052154	276.2121768707483	48	127
276.2238095238095	276.3050793650794	52	127
276.2238095238095	276.51403628117913	79	127
276.2238095238095	276.51403628117913	67	127
276.3050793650794	276.421179138322	48	127
276.421179138322	276.51403628117913	52	127
276.421179138322	276.5721088435374	36	127
276.52566893424034	276.60693877551023	48	127
276.52566893424034	276.60693877551023	68	127
276.52566893424034	276.60693877551023	80	127
276.60693877551023	276.74625850340135	45	127
276.60693877551023	276.7114285714286	81	127
276.60693877551023	276.7114285714286	69	127
276.60693877551023	276.7114285714286	53	127
276.7114285714286	276.78108843537416	76	127
276.7114285714286	276.78108843537416	64	127
276.7114285714286	276.78108843537416	48	127
276.7926984126984	276.8855782312925	77	127
276.7926984126984	276.8855782312925	65	127
276.7926984126984	276.8855782312925	53	127
276.7926984126984	277.18743764172336	45	127
276.8855782312925	276.9784580498866	74	127
276.8855782312925	276.9784580498866	62	127
276.8855782312925	276.9784580498866	48	127
276.9900680272109	277.0713378684807	60	127
276.9900680272109	277.0713378684807	53	127
276.9900680272109	277.0713378684807	72	127
277.0713378684807	277.18743764172336	48	127
277.0713378684807	277.18743764172336	62	127
277.0713378684807	277.18743764172336	74	127
277.18743764172336	277.28031746031746	53	127
277.18743764172336	277.28031746031746	76	127
277.18743764172336	277.32675736961454	36	127
277.18743764172336	277.28031746031746	64	127
277.29192743764173	277.37319727891156	48	127
277.29192743764173	277.37319727891156	77	127
277.29192743764173	277.37319727891156	65	127
277.37319727891156	277.46607709750566	52	127
277.37319727891156	277.50090702947847	46	127
277.37319727891156	277.744693877551	78	127
277.37319727891156	277.744693877551	66	127
277.47768707482993	277.5473469387755	48	127
277.5473469387755	277.95367346938775	46	127
277.5473469387755	277.65183673469386	52	127
277.65183673469386	277.744693877551	48	127
277.7563265306122	277.8491836734694	52	127
277.7563265306122	278.05818594104306	79	127
277.7563265306122	278.05818594104306	67	127
277.8491836734694	277.95367346938775	48	127
277.95367346938775	278.10462585034014	36	127
277.95367346938775	278.05818594104306	52	127
278.06979591836733	278.16267573696143	80	127
278.06979591836733	278.16267573696143	68	127
278.06979591836733	278.16267573696143	48	127
278.16267573696143	278.2555328798186	81	127
278.16267573696143	278.2555328798186	69	127
278.16267573696143	278.2555328798186	53	127
278.16267573696143	278.3019954648526	45	127
278.2671655328798	278.3484353741497	76	127
278.2671655328798	278.3484353741497	64	127
278.2671655328798	278.3484353741497	48	127
278.3484353741497	278.45290249433106	77	127
278.3484353741497	278.45290249433106	65	127
278.3484353741497	278.45290249433106	53	127
278.3484353741497	278.7431746031746	45	127
278.45290249433106	278.54580498866216	74	127
278.45290249433106	278.54580498866216	62	127
278.45290249433106	278.54580498866216	48	127
278.5573922902494	278.6502947845805	60	127
278.5573922902494	278.6502947845805	53	127
278.5573922902494	278.6502947845805	72	127
278.6502947845805	278.7431746031746	48	127
278.6502947845805	278.7431746031746	74	127
278.6502947845805	278.7431746031746	62	127
278.7547845804989	278.85927437641726	53	127
278.7547845804989	278.85927437641726	76	127
278.7547845804989	278.91732426303855	36	127
278.7547845804989	278.85927437641726	64	127
278.87086167800453	278.96374149659863	48	127
278.87086167800453	278.96374149659863	77	127
278.87086167800453	278.96374149659863	65	127
278.96374149659863	279.335283446712	78	127
278.96374149659863	279.335283446712	66	127
278.96374149659863	279.335283446712	54	127
278.96374149659863	279.335283446712	42	127
279.335283446712	279.6139229024943	79	127
279.335283446712	279.6139229024943	67	127
279.335283446712	279.6139229024943	55	127
279.335283446712	279.6139229024943	43	127
279.6139229024943	279.7068027210884	80	127
279.6139229024943	279.7068027210884	68	127
279.6139229024943	279.7068027210884	56	127
279.6139229024943	279.7068027210884	44	127
279.7068027210884	279.8112925170068	69	127
279.7068027210884	279.8112925170068	81	127
279.7068027210884	279.8112925170068	57	127
279.7068027210884	279.8112925170068	45	127
279.8112925170068	279.91578231292516	76	127
279.8112925170068	279.91578231292516	64	127
279.8112925170068	279.91578231292516	52	127
279.8112925170068	279.91578231292516	40	127
279.91578231292516	279.99702947845805	77	127
279.91578231292516	279.99702947845805	65	127
279.91578231292516	279.99702947845805	53	127
279.91578231292516	279.99702947845805	41	127
280.00866213151926	280.10154195011336	74	127
280.00866213151926	280.10154195011336	62	127
280.00866213151926	280.10154195011336	50	127
280.00866213151926	280.10154195011336	38	127
280.1131519274376	280.1943990929705	72	127
280.1131519274376	280.1943990929705	60	127
280.1131519274376	280.1943990929705	48	127
280.1131519274376	280.1943990929705	36	127
280.2060317460317	280.2873015873016	74	127
280.2060317460317	280.2873015873016	62	127
280.2060317460317	280.2873015873016	50	127
280.2060317460317	280.2873015873016	38	127
280.2873015873016	280.3801814058957	76	127
280.2873015873016	280.3801814058957	64	127
280.2873015873016	280.3801814058957	52	127
280.2873015873016	280.3801814058957	40	127
280.3801814058957	280.4846712018141	41	127
280.3801814058957	280.4846712018141	77	127
280.3801814058957	280.4846712018141	65	127
280.3801814058957	280.4846712018141	53	127
280.4846712018141	280.58916099773245	67	127
280.4846712018141	280.58916099773245	55	127
280.4846712018141	280.58916099773245	79	127
280.4846712018141	280.58916099773245	43	127
280.58916099773245	280.68204081632655	81	127
280.58916099773245	280.68204081632655	69	127
280.58916099773245	280.68204081632655	57	127
280.58916099773245	280.68204081632655	45	127
280.6936507936508	280.7981405895692	82	127
280.6936507936508	280.7981405895692	70	127
280.6936507936508	280.7981405895692	58	127
280.6936507936508	280.7981405895692	46	127
280.80972789115646	280.90263038548756	84	127
280.80972789115646	280.90263038548756	72	127
280.80972789115646	280.90263038548756	60	127
280.80972789115646	280.90263038548756	48	127
280.90263038548756	281.0187074829932	86	127
280.90263038548756	281.0187074829932	74	127
280.90263038548756	281.0187074829932	60	127
280.90263038548756	281.0187074829932	48	127
281.0187074829932	281.12319727891156	88	127
281.0187074829932	281.12319727891156	72	127
281.0187074829932	281.12319727891156	60	127
281.0187074829932	281.12319727891156	48	127
281.12319727891156	281.2277097505669	89	127
281.12319727891156	281.2277097505669	74	127
281.12319727891156	281.2277097505669	60	127
281.12319727891156	281.2277097505669	48	127
281.2277097505669	281.33219954648524	91	127
281.2277097505669	281.33219954648524	76	127
281.2277097505669	281.33219954648524	60	127
281.2277097505669	281.33219954648524	48	127
281.33219954648524	281.5063492063492	93	127
281.33219954648524	281.5643990929705	77	127
281.33219954648524	281.5643990929705	60	127
281.33219954648524	281.5643990929705	53	127
281.5760090702948	281.7037188208617	94	127
281.7501587301587	281.7849886621315	96	127
282.00557823129253	282.1100680272109	64	127
282.00557823129253	282.1100680272109	58	127
282.00557823129253	282.1100680272109	55	127
282.1100680272109	282.202947845805	65	127
282.1100680272109	282.202947845805	60	127
282.1100680272109	282.202947845805	57	127
282.202947845805	282.30743764172337	67	127
282.202947845805	282.30743764172337	62	127
282.202947845805	282.30743764172337	58	127
282.30743764172337	282.40031746031747	69	127
282.30743764172337	282.40031746031747	64	127
282.30743764172337	282.40031746031747	60	127
282.41192743764174	282.5164172335601	70	127
282.41192743764174	282.5164172335601	65	127
282.41192743764174	282.5164172335601	62	127
282.5164172335601	282.6209070294785	72	127
282.5164172335601	282.6209070294785	67	127
282.5164172335601	282.6209070294785	64	127
282.6209070294785	282.72539682539684	65	127
282.6209070294785	282.72539682539684	74	127
282.6209070294785	282.72539682539684	69	127
282.7370068027211	282.81827664399094	76	127
282.7370068027211	282.81827664399094	70	127
282.7370068027211	282.81827664399094	67	127
282.8298866213152	282.94598639455785	72	127
282.8298866213152	282.91115646258504	65	127
282.8298866213152	283.00403628117914	69	127
282.8298866213152	282.94598639455785	77	127
282.91115646258504	283.00403628117914	67	127
283.00403628117914	283.08530612244897	69	127
283.00403628117914	283.13174603174605	79	127
283.00403628117914	283.13174603174605	74	127
283.08530612244897	283.1549433106576	70	127
283.16655328798186	283.28267573696144	81	127
283.16655328798186	283.2478458049887	72	127
283.16655328798186	283.28267573696144	76	127
283.2478458049887	283.35233560090705	74	127
283.35233560090705	283.4568253968254	76	127
283.4568253968254	283.5497052154195	77	127
283.5613151927438	283.66580498866216	76	127
283.5613151927438	283.66580498866216	67	127
283.5613151927438	283.66580498866216	55	127
283.5613151927438	283.66580498866216	48	127
283.66580498866216	283.7702721088435	77	127
283.66580498866216	283.7702721088435	69	127
283.66580498866216	283.7702721088435	57	127
283.66580498866216	283.7702721088435	46	127
283.78190476190474	283.8747619047619	58	127
283.78190476190474	283.8747619047619	79	127
283.78190476190474	283.8747619047619	70	127
283.78190476190474	283.8747619047619	45	127
283.8747619047619	283.97925170068027	81	127
283.8747619047619	283.97925170068027	72	127
283.8747619047619	283.97925170068027	60	127
283.8747619047619	283.97925170068027	43	127
283.9908843537415	284.09537414965985	82	127
283.9908843537415	284.09537414965985	74	127
283.9908843537415	284.09537414965985	62	127
283.9908843537415	284.09537414965985	41	127
284.1069841269841	284.188231292517	84	127
284.1069841269841	284.188231292517	76	127
284.1069841269841	284.188231292517	64	127
284.1069841269841	284.188231292517	40	127
284.188231292517	284.31596371882085	86	127
284.188231292517	284.31596371882085	77	127
284.188231292517	284.31596371882085	65	127
284.188231292517	284.31596371882085	38	127
284.31596371882085	284.54816326530613	88	127
284.31596371882085	284.54816326530613	79	127
284.31596371882085	284.54816326530613	67	127
284.31596371882085	284.54816326530613	36	127
284.54816326530613	284.9312925170068	89	127
284.54816326530613	284.9312925170068	69	127
284.54816326530613	284.9312925170068	77	127
284.54816326530613	284.9312925170068	57	127
284.54816326530613	284.9312925170068	65	127
284.54816326530613	284.9312925170068	41	127
290.75950113378684	290.8175510204082	65	127
