# onset,offset,note,velocity
0.6958276643990929	0.9744671201814059	48	127
0.6958276643990929	0.9744671201814059	48	127
0.6958276643990929	0.9744671201814059	72	127
1.6478458049886622	2.808843537414966	67	127
2.820453514739229	5.606848072562358	72	127
2.820453514739229	5.606848072562358	67	127
2.820453514739229	5.606848072562358	64	127
2.820453514739229	5.606848072562358	36	127
5.606848072562358	6.477596371882086	67	127
5.606848072562358	6.477596371882086	64	127
5.606848072562358	6.477596371882086	60	127
5.606848072562358	6.477596371882086	40	127
6.477596371882086	7.4760544217687075	64	127
6.477596371882086	7.4760544217687075	60	127
6.477596371882086	7.4760544217687075	55	127
6.477596371882086	7.4760544217687075	43	127
7.4760544217687075	8.43968253968254	52	127
7.4760544217687075	8.43968253968254	60	127
7.4760544217687075	8.43968253968254	55	127
7.4760544217687075	8.43968253968254	48	127
8.451292517006802	10.204399092970522	60	127
8.451292517006802	11.829795918367347	55	127
8.451292517006802	11.829795918367347	53	127
8.451292517006802	11.829795918367347	50	127
10.216009070294785	11.829795918367347	59	127
11.84140589569161	13.733832199546486	52	127
11.84140589569161	12.932743764172336	60	127
11.84140589569161	13.733832199546486	55	127
11.84140589569161	13.733832199546486	48	127
12.944353741496599	13.14172335600907	62	127
13.14172335600907	13.339092970521541	60	127
13.339092970521541	13.52485260770975	59	127
13.52485260770975	13.861541950113379	60	127
13.861541950113379	14.720680272108844	55	127
13.861541950113379	15.614648526077097	64	127
13.861541950113379	15.614648526077097	60	127
13.861541950113379	16.53183673469388	43	127
14.732290249433106	15.614648526077097	54	127
15.637868480725624	16.53183673469388	55	127
15.637868480725624	16.53183673469388	59	127
15.637868480725624	16.53183673469388	62	127
19.283401360544218	20.293469387755103	65	127
20.316689342403627	22.998571428571427	77	127
20.316689342403627	22.998571428571427	62	127
20.316689342403627	22.998571428571427	59	127
20.316689342403627	22.998571428571427	43	127
23.010204081632654	23.904172335600908	74	127
23.010204081632654	23.904172335600908	65	127
23.010204081632654	23.904172335600908	59	127
23.010204081632654	23.904172335600908	55	127
23.927392290249433	24.821360544217686	71	127
23.927392290249433	24.821360544217686	65	127
23.927392290249433	24.821360544217686	62	127
23.927392290249433	24.821360544217686	56	127
24.844580498866215	26.226167800453513	64	127
24.844580498866215	26.226167800453513	72	127
24.844580498866215	26.226167800453513	60	127
24.844580498866215	26.226167800453513	57	127
26.249387755102042	28.083764172335602	62	127
26.249387755102042	28.490113378684807	57	127
26.249387755102042	28.490113378684807	53	127
26.249387755102042	30.208390022675736	57	127
28.106984126984127	28.31596371882086	62	127
28.31596371882086	28.513333333333332	65	127
28.513333333333332	30.208390022675736	38	127
28.513333333333332	30.208390022675736	53	127
28.513333333333332	30.672789115646257	69	127
30.231609977324265	32.15884353741497	53	127
30.231609977324265	32.15884353741497	43	127
30.231609977324265	32.15884353741497	59	127
30.696009070294785	30.963038548752834	67	127
30.963038548752834	31.334557823129252	65	127
31.334557823129252	31.555147392290248	64	127
31.555147392290248	31.764126984126985	62	127
31.764126984126985	31.97310657596372	60	127
31.97310657596372	32.182086167800456	59	127
32.182086167800456	35.04975056689342	36	127
32.182086167800456	34.03968253968254	62	127
32.182086167800456	34.03968253968254	59	127
32.182086167800456	33.56367346938776	53	127
33.58689342403628	33.79587301587301	55	127
33.79587301587301	34.0512925170068	53	127
34.0512925170068	35.04975056689342	60	127
34.0512925170068	35.04975056689342	55	127
34.0512925170068	35.04975056689342	52	127
35.86244897959184	36.90734693877551	60	127
36.90734693877551	37.36011337868481	64	127
37.36011337868481	37.87095238095238	67	127
37.87095238095238	38.497891156462586	72	127
38.497891156462586	40.87795918367347	64	127
38.497891156462586	40.34390022675737	76	127
38.497891156462586	40.87795918367347	48	127
38.497891156462586	40.87795918367347	55	127
38.497891156462586	40.87795918367347	60	127
40.34390022675737	40.52963718820862	74	127
40.52963718820862	40.71541950113379	72	127
40.71541950113379	40.9127664399093	71	127
40.9127664399093	41.12176870748299	72	127
41.12176870748299	41.400408163265304	74	127
41.400408163265304	41.65582766439909	76	127
41.65582766439909	41.899637188208615	77	127
41.899637188208615	42.073786848072565	79	127
42.073786848072565	42.25954648526077	78	127
42.25954648526077	42.44530612244898	81	127
42.44530612244898	42.723945578231294	79	127
42.723945578231294	42.96775510204082	77	127
42.96775510204082	43.21156462585034	76	127
43.21156462585034	43.385714285714286	74	127
43.385714285714286	43.73401360544218	72	127
43.73401360544218	44.686031746031745	64	127
43.73401360544218	44.686031746031745	55	127
43.73401360544218	44.686031746031745	48	127
43.73401360544218	45.63804988662132	76	127
44.70922902494331	45.63804988662132	67	127
44.70922902494331	45.63804988662132	60	127
44.70922902494331	45.63804988662132	52	127
45.66126984126984	46.63650793650794	74	127
45.66126984126984	46.63650793650794	62	127
45.66126984126984	46.63650793650794	59	127
45.66126984126984	46.63650793650794	55	127
47.57691609977324	47.98326530612245	60	127
47.98326530612245	48.401224489795915	64	127
48.401224489795915	48.795963718820865	67	127
48.795963718820865	49.48095238095238	72	127
49.48095238095238	51.46625850340136	76	127
49.48095238095238	52.011927437641724	55	127
49.48095238095238	52.011927437641724	64	127
49.48095238095238	52.011927437641724	60	127
49.48095238095238	52.011927437641724	48	127
51.46625850340136	51.65201814058957	72	127
51.65201814058957	51.83777777777778	79	127
51.83777777777778	52.023537414965986	78	127
52.023537414965986	52.244126984126986	79	127
52.244126984126986	52.453106575963716	76	127
52.453106575963716	52.63886621315193	84	127
52.63886621315193	52.824625850340134	83	127
52.824625850340134	53.02199546485261	84	127
53.02199546485261	53.26580498866213	79	127
53.26580498866213	53.47478458049886	88	127
53.47478458049886	53.660544217687075	84	127
53.660544217687075	53.89274376417234	79	127
53.89274376417234	54.2178231292517	76	127
54.2178231292517	54.40358276643991	74	127
54.40358276643991	54.8447619047619	72	127
54.8447619047619	55.83160997732426	48	127
54.8447619047619	55.343990929705214	76	127
54.8447619047619	55.83160997732426	64	127
54.8447619047619	55.83160997732426	55	127
55.355600907029476	55.49492063492063	77	127
55.49492063492063	55.69229024943311	76	127
55.69229024943311	55.85482993197279	74	127
55.85482993197279	56.73718820861678	67	127
55.85482993197279	56.08702947845805	76	127
55.85482993197279	56.73718820861678	60	127
55.85482993197279	56.73718820861678	52	127
56.08702947845805	56.30761904761905	77	127
56.30761904761905	56.52820861678005	78	127
56.52820861678005	56.7604081632653	79	127
56.7604081632653	57.68920634920635	62	127
56.7604081632653	57.68920634920635	74	127
56.7604081632653	57.68920634920635	59	127
56.7604081632653	57.68920634920635	55	127
57.72403628117914	58.60639455782313	62	127
58.61800453514739	59.395873015873015	59	127
58.61800453514739	58.7108843537415	73	127
58.7108843537415	59.395873015873015	74	127
59.40748299319728	60.48721088435374	55	127
59.40748299319728	59.48875283446712	73	127
59.48875283446712	60.48721088435374	74	127
60.498820861678006	63.23877551020408	74	127
60.498820861678006	61.49727891156463	66	127
60.498820861678006	61.49727891156463	57	127
60.498820861678006	62.39124716553288	48	127
61.52049886621315	62.17065759637188	69	127
61.52049886621315	62.17065759637188	54	127
62.182267573696144	62.39124716553288	66	127
62.182267573696144	62.39124716553288	50	127
62.402857142857144	63.23877551020408	71	127
62.402857142857144	63.23877551020408	55	127
62.402857142857144	63.23877551020408	47	127
63.25038548752835	63.9237641723356	76	127
63.935374149659864	64.10952380952381	74	127
64.12113378684808	64.73646258503402	79	127
64.74807256235827	64.96866213151928	74	127
64.98027210884354	65.618820861678	83	127
65.64204081632653	65.80458049886622	74	127
66.17609977324263	66.96555555555555	66	127
66.17609977324263	66.96555555555555	57	127
66.17609977324263	68.89283446712018	74	127
66.17609977324263	68.02208616780045	48	127
66.97718820861678	67.75505668934241	69	127
66.97718820861678	67.75505668934241	54	127
67.77827664399094	68.02208616780045	50	127
67.77827664399094	68.02208616780045	66	127
68.03369614512472	68.89283446712018	71	127
68.03369614512472	68.89283446712018	55	127
68.03369614512472	69.7984126984127	47	127
68.9160544217687	69.55460317460317	76	127
68.9160544217687	71.00585034013605	62	127
68.9160544217687	71.00585034013605	55	127
69.5778231292517	69.7984126984127	74	127
69.81002267573696	72.2481179138322	47	127
69.81002267573696	70.51820861678004	79	127
70.5530612244898	71.00585034013605	74	127
71.02904761904762	72.2481179138322	63	127
71.02904761904762	72.2481179138322	55	127
71.02904761904762	71.88820861678005	83	127
71.8998185941043	72.2481179138322	75	127
72.25972789115646	74.10571428571428	64	127
72.25972789115646	72.49192743764172	78	127
72.25972789115646	72.72412698412698	55	127
72.25972789115646	74.10571428571428	48	127
72.49192743764172	72.72412698412698	76	127
72.72412698412698	73.36267573696145	56	127
72.72412698412698	73.03759637188209	74	127
73.03759637188209	73.36267573696145	72	127
73.36267573696145	73.57165532879819	71	127
73.36267573696145	74.17537414965986	57	127
73.57165532879819	74.17537414965986	69	127
74.17537414965986	74.98807256235828	58	127
74.17537414965986	74.6049433106576	76	127
74.17537414965986	74.97646258503401	67	127
74.17537414965986	74.97646258503401	49	127
74.68621315192743	74.93002267573696	76	127
74.98807256235828	76.24192743764172	67	127
74.98807256235828	77.43777777777778	50	127
74.98807256235828	76.24192743764172	59	127
74.98807256235828	76.24192743764172	76	127
76.25356009070295	78.1575963718821	67	127
76.25356009070295	77.43777777777778	62	127
76.25356009070295	77.43777777777778	59	127
77.49580498866213	79.9222902494331	57	127
77.49580498866213	79.9222902494331	60	127
77.49580498866213	81.33873015873016	38	127
78.25047619047619	78.33174603174604	69	127
78.33174603174604	78.50589569160998	67	127
78.50589569160998	78.63360544217687	66	127
78.63360544217687	79.43469387755103	67	127
79.43469387755103	79.5159410430839	69	127
79.5159410430839	79.65528344671202	71	127
79.65528344671202	79.74816326530612	72	127
79.74816326530612	79.95714285714286	74	127
79.95714285714286	80.83950113378685	76	127
79.95714285714286	81.33873015873016	60	127
79.95714285714286	81.33873015873016	57	127
81.07170068027212	81.33873015873016	66	127
81.35034013605443	82.97573696145125	60	127
81.35034013605443	84.86816326530612	43	127
81.35034013605443	83.49818594104309	69	127
82.49972789115647	83.49818594104309	54	127
82.99895691609977	83.2427664399093	62	127
83.2427664399093	83.50979591836735	60	127
83.50979591836735	84.86816326530612	59	127
83.50979591836735	84.86816326530612	67	127
83.50979591836735	84.86816326530612	55	127
84.89138321995465	85.88984126984127	55	127
85.90145124716554	86.81863945578232	59	127
85.90145124716554	86.81863945578232	67	127
86.8534693877551	87.80548752834467	67	127
86.8534693877551	87.80548752834467	62	127
87.81709750566894	90.26680272108844	71	127
87.81709750566894	90.26680272108844	67	127
87.81709750566894	90.26680272108844	62	127
87.81709750566894	90.26680272108844	65	127
90.2784126984127	91.14916099773242	64	127
90.2784126984127	91.14916099773242	72	127
90.2784126984127	91.14916099773242	67	127
90.2784126984127	91.14916099773242	60	127
91.20721088435374	92.03151927437642	74	127
91.20721088435374	92.03151927437642	67	127
91.20721088435374	92.03151927437642	65	127
91.20721088435374	92.03151927437642	59	127
92.04312925170068	92.85580498866213	76	127
92.04312925170068	92.85580498866213	67	127
92.04312925170068	92.85580498866213	64	127
92.04312925170068	92.85580498866213	60	127
92.87904761904763	93.08802721088435	72	127
92.87904761904763	93.08802721088435	67	127
92.87904761904763	93.08802721088435	64	127
93.09963718820862	93.73818594104308	67	127
93.09963718820862	94.15614512471656	67	127
93.09963718820862	95.13138321995464	76	127
93.09963718820862	95.13138321995464	72	127
93.73818594104308	94.17936507936508	66	127
94.17936507936508	95.13138321995464	55	127
94.17936507936508	94.62052154195011	67	127
94.62052154195011	95.15460317460318	66	127
95.15460317460318	96.338820861678	55	127
95.15460317460318	96.338820861678	67	127
95.15460317460318	96.338820861678	74	127
95.15460317460318	96.338820861678	71	127
96.36204081632653	97.26761904761905	55	127
96.36204081632653	97.26761904761905	43	127
97.29083900226757	98.17319727891156	79	127
97.29083900226757	98.17319727891156	67	127
97.29083900226757	98.17319727891156	59	127
97.29083900226757	98.17319727891156	47	127
98.1964172335601	99.14843537414966	50	127
98.1964172335601	99.14843537414966	79	127
98.1964172335601	99.14843537414966	67	127
98.1964172335601	99.14843537414966	62	127
99.18326530612245	101.80712018140589	83	127
99.18326530612245	101.80712018140589	71	127
99.18326530612245	101.80712018140589	55	127
99.18326530612245	101.80712018140589	67	127
99.18326530612245	101.80712018140589	53	127
101.83034013605442	102.72430839002267	84	127
101.83034013605442	102.72430839002267	72	127
101.83034013605442	102.72430839002267	55	127
101.83034013605442	102.72430839002267	67	127
101.83034013605442	102.72430839002267	52	127
102.73591836734694	103.61827664399092	86	127
102.73591836734694	103.61827664399092	74	127
102.73591836734694	103.61827664399092	55	127
102.73591836734694	103.61827664399092	65	127
102.73591836734694	103.61827664399092	47	127
103.66471655328799	104.45419501133787	88	127
103.66471655328799	104.45419501133787	76	127
103.66471655328799	104.93020408163265	55	127
103.66471655328799	104.93020408163265	64	127
103.66471655328799	104.93020408163265	48	127
104.46580498866213	104.93020408163265	72	127
104.46580498866213	104.93020408163265	84	127
104.94181405895692	107.57727891156462	77	127
104.94181405895692	107.57727891156462	89	127
104.94181405895692	107.94879818594104	62	127
104.94181405895692	107.94879818594104	43	127
104.94181405895692	107.94879818594104	55	127
107.58888888888889	107.94879818594104	86	127
107.58888888888889	107.94879818594104	74	127
107.9604081632653	108.34353741496598	71	127
107.9604081632653	108.34353741496598	83	127
108.35514739229025	108.76149659863945	79	127
108.35514739229025	108.76149659863945	67	127
108.78471655328798	109.16784580498866	80	127
108.78471655328798	109.16784580498866	68	127
109.19106575963718	109.82961451247165	81	127
109.19106575963718	109.82961451247165	69	127
109.85283446712018	110.29401360544217	82	127
109.85283446712018	110.29401360544217	70	127
110.3172335600907	110.81646258503402	83	127
110.3172335600907	110.81646258503402	71	127
110.83968253968254	113.37065759637188	48	127
110.83968253968254	113.37065759637188	48	127
110.83968253968254	111.68721088435375	72	127
110.83968253968254	113.37065759637188	84	127
110.83968253968254	113.37065759637188	60	127
111.698820861678	113.37065759637188	55	127
111.698820861678	113.37065759637188	64	127
113.4287074829932	114.24140589569161	48	127
113.4287074829932	114.24140589569161	79	127
113.4287074829932	114.24140589569161	55	127
113.4287074829932	114.24140589569161	64	127
113.4287074829932	114.24140589569161	60	127
113.4287074829932	114.24140589569161	48	127
114.25301587301587	115.33274376417233	64	127
114.25301587301587	115.33274376417233	55	127
114.25301587301587	115.33274376417233	48	127
114.25301587301587	115.33274376417233	76	127
114.25301587301587	115.33274376417233	60	127
114.25301587301587	115.33274376417233	48	127
115.35596371882086	117.14390022675737	72	127
115.35596371882086	117.14390022675737	55	127
115.35596371882086	117.14390022675737	64	127
115.35596371882086	117.14390022675737	48	127
115.35596371882086	117.14390022675737	60	127
115.35596371882086	117.14390022675737	48	127
117.16712018140589	120.56884353741496	48	127
117.16712018140589	120.56884353741496	84	127
117.16712018140589	120.56884353741496	60	127
117.16712018140589	120.56884353741496	46	127
118.79251700680273	120.56884353741496	55	127
118.79251700680273	120.56884353741496	64	127
120.58045351473923	121.36993197278912	55	127
120.58045351473923	121.36993197278912	64	127
120.58045351473923	121.36993197278912	48	127
120.58045351473923	121.36993197278912	60	127
120.58045351473923	121.36993197278912	46	127
120.58045351473923	121.36993197278912	79	127
121.39315192743764	122.43804988662131	76	127
121.39315192743764	122.43804988662131	55	127
121.39315192743764	122.43804988662131	64	127
121.39315192743764	122.43804988662131	48	127
121.39315192743764	122.43804988662131	60	127
121.39315192743764	122.43804988662131	46	127
122.44965986394558	124.2956462585034	48	127
122.44965986394558	124.2956462585034	72	127
122.44965986394558	124.2956462585034	55	127
122.44965986394558	124.2956462585034	64	127
122.44965986394558	124.2956462585034	60	127
122.44965986394558	124.2956462585034	46	127
124.34208616780046	126.73374149659864	65	127
124.34208616780046	126.73374149659864	48	127
124.34208616780046	126.73374149659864	60	127
124.34208616780046	126.73374149659864	45	127
124.34208616780046	126.73374149659864	84	127
126.74535147392291	128.46362811791383	45	127
126.74535147392291	128.46362811791383	65	127
126.74535147392291	128.46362811791383	48	127
126.74535147392291	128.46362811791383	60	127
126.74535147392291	128.46362811791383	86	127
128.4752380952381	130.43732426303856	44	127
128.4752380952381	130.43732426303856	75	127
128.4752380952381	130.43732426303856	87	127
128.4752380952381	130.43732426303856	66	127
128.4752380952381	130.43732426303856	48	127
128.4752380952381	130.43732426303856	60	127
130.4489342403628	134.5820634920635	43	127
130.4489342403628	131.4590022675737	67	127
130.4489342403628	131.4590022675737	48	127
130.4489342403628	131.4590022675737	60	127
130.4489342403628	132.66643990929705	76	127
130.4489342403628	132.95668934240362	88	127
130.4489342403628	131.4590022675737	55	127
131.48222222222222	132.66643990929705	55	127
131.48222222222222	132.66643990929705	52	127
132.67804988662132	133.74616780045352	60	127
132.67804988662132	133.74616780045352	55	127
132.95668934240362	133.16566893424036	87	127
133.16566893424036	133.45589569160998	89	127
133.45589569160998	133.7577777777778	88	127
133.7577777777778	134.5820634920635	60	127
133.7577777777778	133.96673469387756	86	127
133.7577777777778	134.5820634920635	64	127
133.96673469387756	134.15251700680273	84	127
134.15251700680273	134.37310657596373	83	127
134.37310657596373	134.60530612244898	81	127
134.60530612244898	136.42807256235827	43	127
134.60530612244898	134.83748299319728	79	127
134.60530612244898	135.60374149659864	65	127
134.60530612244898	135.60374149659864	59	127
134.83748299319728	135.09290249433107	80	127
135.09290249433107	135.3251247165533	83	127
135.3251247165533	135.61537414965986	81	127
135.61537414965986	136.42807256235827	59	127
135.61537414965986	136.42807256235827	53	127
135.61537414965986	135.8243537414966	79	127
135.8243537414966	136.01011337868482	77	127
136.01011337868482	136.2074829931973	76	127
136.2074829931973	136.4512925170068	74	127
136.4512925170068	137.4265306122449	72	127
136.4512925170068	137.4265306122449	60	127
136.4512925170068	137.4265306122449	52	127
136.4512925170068	137.4265306122449	48	127
140.34063492063493	140.7237641723356	71	127
140.34063492063493	140.7237641723356	62	127
140.34063492063493	140.7237641723356	55	127
140.34063492063493	140.7237641723356	53	127
140.74698412698413	141.15333333333334	71	127
140.74698412698413	141.15333333333334	62	127
140.74698412698413	141.15333333333334	55	127
140.74698412698413	141.15333333333334	53	127
141.1649433106576	141.54807256235827	69	127
141.1649433106576	141.54807256235827	60	127
141.1649433106576	141.54807256235827	55	127
141.1649433106576	141.54807256235827	53	127
141.55968253968254	141.97764172335602	55	127
141.55968253968254	141.97764172335602	67	127
141.55968253968254	141.97764172335602	59	127
141.55968253968254	141.97764172335602	53	127
141.98925170068028	142.69746031746033	72	127
141.98925170068028	142.69746031746033	60	127
141.98925170068028	142.69746031746033	55	127
141.98925170068028	142.69746031746033	52	127
145.35614512471656	145.79732426303855	67	127
145.35614512471656	145.79732426303855	55	127
145.35614512471656	145.79732426303855	65	127
145.35614512471656	145.79732426303855	62	127
145.35614512471656	145.79732426303855	47	127
145.8437641723356	146.27333333333334	67	127
145.8437641723356	146.27333333333334	55	127
145.8437641723356	146.27333333333334	65	127
145.8437641723356	146.27333333333334	62	127
145.8437641723356	146.27333333333334	47	127
146.29655328798185	146.73773242630386	67	127
146.29655328798185	146.73773242630386	55	127
146.29655328798185	146.73773242630386	65	127
146.29655328798185	146.73773242630386	60	127
146.29655328798185	146.73773242630386	45	127
146.76095238095238	147.24857142857144	67	127
146.76095238095238	147.24857142857144	55	127
146.76095238095238	147.24857142857144	65	127
146.76095238095238	147.24857142857144	59	127
146.76095238095238	147.24857142857144	43	127
147.26015873015874	147.93356009070294	67	127
147.26015873015874	147.93356009070294	55	127
147.26015873015874	147.93356009070294	64	127
147.26015873015874	147.93356009070294	60	127
147.26015873015874	147.93356009070294	48	127
150.58061224489796	151.34687074829932	64	127
150.58061224489796	151.34687074829932	60	127
150.58061224489796	151.34687074829932	55	127
150.58061224489796	151.34687074829932	36	127
152.18281179138322	152.9142403628118	55	127
152.18281179138322	152.9142403628118	60	127
152.18281179138322	152.9142403628118	52	127
152.18281179138322	152.9142403628118	36	127
155.31750566893425	155.4219954648526	72	127
155.48004535147393	155.56131519274376	72	127
155.6077551020408	155.72385487528345	70	127
155.75868480725623	155.8399546485261	69	127
155.87478458049887	156.09537414965988	74	127
156.2578911564626	156.3391836734694	70	127
156.3391836734694	156.4320634920635	70	127
156.45528344671203	156.53655328798186	69	127
156.5829931972789	156.675873015873	67	127
156.68748299319728	156.94290249433107	72	127
157.2215419501134	157.30281179138322	72	127
157.30281179138322	157.36086167800454	72	127
157.36086167800454	157.44213151927437	70	127
157.44213151927437	157.53498866213152	69	127
157.53498866213152	157.76721088435374	53	127
157.53498866213152	157.6511111111111	69	127
157.53498866213152	157.6511111111111	60	127
157.53498866213152	158.59151927437642	60	127
157.68591836734694	157.76721088435374	60	127
157.68591836734694	157.76721088435374	69	127
157.76721088435374	157.778820861678	58	127
157.76721088435374	157.778820861678	67	127
157.778820861678	157.89489795918368	65	127
157.778820861678	157.89489795918368	57	127
157.89489795918368	158.13873015873017	53	127
157.89489795918368	157.98780045351475	65	127
157.89489795918368	157.98780045351475	57	127
158.02263038548753	158.13873015873017	57	127
158.02263038548753	158.13873015873017	65	127
158.15031746031747	158.24321995464854	64	127
158.15031746031747	158.26643990929705	55	127
158.26643990929705	158.3477097505669	65	127
158.26643990929705	158.37092970521542	53	127
158.3825396825397	158.51024943310657	66	127
158.3825396825397	158.59151927437642	52	127
158.3825396825397	158.59151927437642	48	127
158.52185941043084	158.55666666666667	67	127
158.59151927437642	158.68439909297052	67	127
158.73083900226757	158.82371882086167	67	127
158.87015873015872	158.95142857142858	74	127
158.99786848072563	159.06750566893425	74	127
159.06750566893425	159.14879818594105	72	127
159.16040816326532	159.26489795918368	70	127
159.26489795918368	160.29816326530613	60	127
159.26489795918368	159.35777777777778	70	127
159.26489795918368	159.35777777777778	62	127
159.26489795918368	159.48548752834466	36	127
159.40421768707483	159.48548752834466	70	127
159.40421768707483	159.48548752834466	62	127
159.49709750566893	159.6015873015873	69	127
159.49709750566893	159.6015873015873	60	127
159.6015873015873	159.6944671201814	67	127
159.6015873015873	159.6944671201814	58	127
159.6944671201814	159.9150566893424	48	127
159.6944671201814	159.764126984127	67	127
159.6944671201814	159.764126984127	58	127
159.78732426303856	159.9150566893424	58	127
159.78732426303856	159.9150566893424	67	127
159.9150566893424	160.0079365079365	66	127
159.9150566893424	160.0079365079365	57	127
160.0079365079365	160.06598639455783	67	127
160.0079365079365	160.06598639455783	55	127
160.06598639455783	160.29816326530613	53	127
160.06598639455783	160.19367346938776	68	127
160.06598639455783	160.29816326530613	41	127
160.19367346938776	160.27496598639456	69	127
160.29816326530613	160.3910657596372	69	127
160.42589569160998	160.53038548752835	69	127
160.56521541950113	160.65809523809523	69	127
160.56521541950113	160.65809523809523	77	127
160.56521541950113	161.01800453514738	53	127
160.56521541950113	161.2037641723356	60	127
160.68131519274377	160.78580498866214	69	127
160.68131519274377	160.78580498866214	77	127
160.78580498866214	160.90190476190477	67	127
160.78580498866214	160.90190476190477	79	127
160.90190476190477	161.01800453514738	65	127
160.90190476190477	161.01800453514738	81	127
161.01800453514738	161.0528344671202	79	127
161.01800453514738	161.0528344671202	64	127
161.01800453514738	161.2037641723356	48	127
161.09927437641724	161.2037641723356	64	127
161.09927437641724	161.2037641723356	79	127
161.2153514739229	161.34308390022676	77	127
161.2153514739229	161.34308390022676	65	127
161.35469387755103	161.4707709750567	76	127
161.35469387755103	161.4707709750567	67	127
161.4824036281179	161.7726530612245	59	127
161.4824036281179	161.5520634920635	74	127
161.4824036281179	161.5520634920635	65	127
161.4824036281179	161.7726530612245	43	127
161.5520634920635	161.6449433106576	76	127
161.5520634920635	161.6449433106576	64	127
161.65655328798186	161.7726530612245	77	127
161.65655328798186	161.7726530612245	62	127
161.78426303854874	162.01646258503402	60	127
161.78426303854874	161.8655328798186	76	127
161.78426303854874	161.8655328798186	60	127
161.78426303854874	162.01646258503402	48	127
161.90036281179138	162.01646258503402	60	127
161.90036281179138	162.01646258503402	76	127
162.0280725623583	162.13256235827666	74	127
162.0280725623583	162.13256235827666	62	127
162.1441723356009	162.2138321995465	72	127
162.1441723356009	162.2138321995465	64	127
162.22544217687076	162.31832199546486	53	127
162.22544217687076	162.31832199546486	77	127
162.22544217687076	162.31832199546486	62	127
162.22544217687076	162.31832199546486	57	127
162.34151927437642	162.457641723356	57	127
162.34151927437642	162.457641723356	77	127
162.34151927437642	162.457641723356	62	127
162.34151927437642	162.457641723356	53	127
162.457641723356	162.56213151927437	55	127
162.457641723356	162.56213151927437	79	127
162.457641723356	162.56213151927437	64	127
162.457641723356	162.56213151927437	52	127
162.56213151927437	162.68984126984128	53	127
162.56213151927437	162.68984126984128	81	127
162.56213151927437	162.68984126984128	65	127
162.56213151927437	162.68984126984128	50	127
162.68984126984128	162.9336507936508	55	127
162.68984126984128	162.7711111111111	79	127
162.68984126984128	162.7711111111111	64	127
162.68984126984128	162.7711111111111	60	127
162.8059410430839	162.9336507936508	79	127
162.8059410430839	162.9336507936508	64	127
162.8059410430839	162.9336507936508	60	127
162.9336507936508	163.03814058956917	62	127
162.9336507936508	163.03814058956917	77	127
162.9336507936508	163.03814058956917	59	127
163.03814058956917	163.07297052154195	60	127
163.03814058956917	163.07297052154195	76	127
163.03814058956917	163.07297052154195	60	127
163.07297052154195	163.17746031746032	55	127
163.07297052154195	163.1542403628118	74	127
163.07297052154195	163.1542403628118	47	127
163.07297052154195	163.17746031746032	65	127
163.17746031746032	163.28195011337868	65	127
163.17746031746032	163.28195011337868	74	127
163.17746031746032	163.28195011337868	55	127
163.17746031746032	163.28195011337868	47	127
163.28195011337868	163.42126984126983	45	127
163.28195011337868	163.42126984126983	79	127
163.28195011337868	163.42126984126983	65	127
163.28195011337868	163.42126984126983	55	127
163.42126984126983	163.5257596371882	55	127
163.42126984126983	163.5257596371882	71	127
163.42126984126983	163.5257596371882	65	127
163.42126984126983	163.5257596371882	43	127
163.5257596371882	164.03659863945578	48	127
163.5257596371882	164.03659863945578	72	127
163.5257596371882	164.03659863945578	64	127
163.5257596371882	164.03659863945578	55	127
164.04820861678004	164.08303854875282	72	127
164.11786848072563	164.222358276644	72	127
164.2339455782313	164.3384580498866	70	127
164.35006802721088	164.43133786848074	69	127
164.43133786848074	165.52267573696145	60	127
164.43133786848074	164.663537414966	53	127
164.43133786848074	164.52421768707484	60	127
164.43133786848074	164.52421768707484	69	127
164.54743764172335	164.663537414966	60	127
164.54743764172335	164.663537414966	69	127
164.67514739229026	164.77963718820862	67	127
164.67514739229026	164.77963718820862	58	127
164.79122448979592	164.86090702947845	65	127
164.79122448979592	164.86090702947845	57	127
164.87251700680272	164.95378684807255	65	127
164.87251700680272	165.10471655328797	53	127
164.87251700680272	164.95378684807255	57	127
164.98861678004536	165.10471655328797	57	127
164.98861678004536	165.10471655328797	65	127
165.11632653061224	165.1975963718821	64	127
165.11632653061224	165.23242630385488	55	127
165.24403628117915	165.33691609977325	53	127
165.24403628117915	165.3136961451247	65	127
165.34852607709752	165.42979591836735	66	127
165.34852607709752	165.52267573696145	52	127
165.34852607709752	165.52267573696145	48	127
165.42979591836735	165.52267573696145	67	127
165.52267573696145	165.61555555555555	67	127
165.65038548752835	165.74326530612245	67	127
165.77809523809523	165.7897052154195	74	127
165.7897052154195	165.90580498866214	74	127
165.90580498866214	166.0218820861678	72	127
166.0218820861678	166.12639455782312	70	127
166.12639455782312	167.15968253968254	60	127
166.12639455782312	166.2308843537415	70	127
166.12639455782312	166.2308843537415	62	127
166.12639455782312	166.37020408163266	36	127
166.25410430839003	166.37020408163266	62	127
166.25410430839003	166.37020408163266	70	127
166.37020408163266	166.39342403628117	60	127
166.37020408163266	166.39342403628117	69	127
166.39342403628117	166.49791383219954	67	127
166.39342403628117	166.49791383219954	58	127
166.49791383219954	166.70689342403628	48	127
166.49791383219954	166.5791836734694	67	127
166.49791383219954	166.5791836734694	58	127
166.61401360544218	166.70689342403628	67	127
166.61401360544218	166.70689342403628	58	127
166.71850340136055	166.7649433106576	66	127
166.71850340136055	166.79977324263038	57	127
166.81138321995465	166.93907029478459	55	127
166.81138321995465	166.90426303854875	67	127
166.9507029478458	167.06680272108844	68	127
166.9507029478458	167.15968253968254	41	127
166.9507029478458	167.15968253968254	53	127
167.06680272108844	167.14804988662132	69	127
167.1712925170068	167.25256235827663	69	127
167.28739229024944	167.36866213151927	69	127
167.41510204081632	167.84467120181407	53	127
167.41510204081632	167.50798185941042	77	127
167.41510204081632	167.50798185941042	69	127
167.41510204081632	168.03043083900226	60	127
167.5195918367347	167.6124716553288	69	127
167.5195918367347	167.6124716553288	77	127
167.62408163265306	167.71696145124716	79	127
167.62408163265306	167.71696145124716	67	127
167.72857142857143	167.84467120181407	81	127
167.72857142857143	167.84467120181407	65	127
167.85628117913834	168.03043083900226	48	127
167.90272108843538	168.03043083900226	79	127
167.90272108843538	168.03043083900226	64	127
168.04204081632653	168.13492063492063	77	127
168.04204081632653	168.13492063492063	65	127
168.1465306122449	168.25102040816327	76	127
168.1465306122449	168.25102040816327	67	127
168.25102040816327	168.3206575963719	65	127
168.25102040816327	168.6457596371882	43	127
168.25102040816327	168.3206575963719	74	127
168.25102040816327	168.6457596371882	59	127
168.35551020408164	168.46	65	127
168.35551020408164	168.46	74	127
168.46	168.57607709750567	76	127
168.46	168.57607709750567	64	127
168.57607709750567	168.6457596371882	77	127
168.57607709750567	168.6457596371882	62	127
168.6457596371882	168.85473922902494	48	127
168.6457596371882	168.7386394557823	76	127
168.6457596371882	168.7386394557823	60	127
168.6457596371882	168.85473922902494	60	127
168.7734693877551	168.85473922902494	60	127
168.7734693877551	168.85473922902494	76	127
168.85473922902494	168.97083900226758	74	127
168.85473922902494	168.97083900226758	62	127
168.97083900226758	169.08691609977325	64	127
168.97083900226758	169.08691609977325	72	127
169.08691609977325	169.09854875283446	57	127
169.08691609977325	169.09854875283446	77	127
169.08691609977325	169.09854875283446	62	127
169.08691609977325	169.09854875283446	53	127
169.09854875283446	169.17981859410432	57	127
169.09854875283446	169.17981859410432	77	127
169.09854875283446	169.17981859410432	62	127
169.09854875283446	169.17981859410432	53	127
169.17981859410432	169.2843083900227	55	127
169.17981859410432	169.2843083900227	79	127
169.17981859410432	169.2843083900227	64	127
169.17981859410432	169.2843083900227	52	127
169.2843083900227	169.3771882086168	53	127
169.2843083900227	169.3771882086168	81	127
169.2843083900227	169.3771882086168	65	127
169.2843083900227	169.3771882086168	50	127
169.3771882086168	169.63260770975057	55	127
169.3771882086168	169.48167800453515	79	127
169.3771882086168	169.48167800453515	64	127
169.3771882086168	169.48167800453515	60	127
169.51650793650794	169.63260770975057	79	127
169.51650793650794	169.63260770975057	64	127
169.51650793650794	169.63260770975057	60	127
169.64421768707484	169.77192743764172	62	127
169.64421768707484	169.77192743764172	77	127
169.64421768707484	169.77192743764172	59	127
169.783537414966	169.88802721088436	60	127
169.783537414966	169.88802721088436	76	127
169.783537414966	169.88802721088436	60	127
169.89963718820863	169.98090702947846	47	127
169.89963718820863	169.98090702947846	74	127
169.89963718820863	170.01573696145124	65	127
169.89963718820863	170.01573696145124	55	127
170.01573696145124	170.07378684807256	47	127
170.01573696145124	170.07378684807256	74	127
170.01573696145124	170.07378684807256	65	127
170.01573696145124	170.07378684807256	55	127
170.08539682539683	170.20149659863947	55	127
170.08539682539683	170.20149659863947	79	127
170.08539682539683	170.20149659863947	65	127
170.08539682539683	170.20149659863947	45	127
170.20149659863947	170.2827664399093	55	127
170.20149659863947	170.2827664399093	71	127
170.20149659863947	170.2827664399093	65	127
170.20149659863947	170.2827664399093	43	127
170.2827664399093	170.77038548752836	55	127
170.2827664399093	170.77038548752836	72	127
170.2827664399093	170.77038548752836	64	127
170.2827664399093	170.77038548752836	48	127
170.77038548752836	170.8516553287982	75	127
170.89809523809524	171.02580498866214	75	127
171.0374149659864	171.1651247165533	74	127
171.17673469387756	171.28122448979593	72	127
171.28122448979593	171.3160544217687	72	127
171.28122448979593	171.3160544217687	69	127
171.36249433106576	171.46698412698413	72	127
171.36249433106576	171.46698412698413	69	127
171.4785941043084	171.54825396825396	70	127
171.4785941043084	171.54825396825396	67	127
171.54825396825396	171.64111111111112	69	127
171.54825396825396	171.64111111111112	66	127
171.65274376417233	171.74560090702948	72	127
171.65274376417233	171.74560090702948	78	127
171.65274376417233	171.74560090702948	69	127
171.65274376417233	171.74560090702948	63	127
171.78045351473924	171.86172335600907	69	127
171.78045351473924	171.86172335600907	78	127
171.78045351473924	171.86172335600907	72	127
171.78045351473924	171.86172335600907	63	127
171.86172335600907	171.94299319727892	62	127
171.86172335600907	171.94299319727892	79	127
171.86172335600907	171.94299319727892	70	127
171.86172335600907	171.94299319727892	70	127
171.94299319727892	172.05909297052153	72	127
171.94299319727892	172.05909297052153	81	127
171.94299319727892	172.05909297052153	69	127
171.94299319727892	172.05909297052153	60	127
172.05909297052153	172.1635827664399	58	127
172.05909297052153	172.1635827664399	82	127
172.05909297052153	172.2912925170068	74	127
172.05909297052153	172.1635827664399	62	127
172.1984126984127	172.2912925170068	62	127
172.1984126984127	172.2912925170068	82	127
172.1984126984127	172.2912925170068	58	127
172.2912925170068	172.4190022675737	60	127
172.2912925170068	172.4190022675737	84	127
172.2912925170068	172.4190022675737	57	127
172.4190022675737	172.51185941043084	58	127
172.4190022675737	172.51185941043084	86	127
172.4190022675737	172.51185941043084	55	127
172.51185941043084	172.6163492063492	74	127
172.65120181405896	172.7905215419501	74	127
172.7905215419501	172.871768707483	72	127
172.871768707483	172.9762811791383	70	127
172.9762811791383	173.01111111111112	70	127
172.9762811791383	173.01111111111112	67	127
173.01111111111112	173.1156009070295	70	127
173.01111111111112	173.1156009070295	67	127
173.1156009070295	173.25492063492064	65	127
173.1156009070295	173.25492063492064	69	127
173.2665306122449	173.38260770975057	67	127
173.2665306122449	173.38260770975057	64	127
173.3942403628118	173.48709750566894	76	127
173.3942403628118	173.48709750566894	67	127
173.3942403628118	173.48709750566894	70	127
173.3942403628118	173.48709750566894	61	127
173.5219501133787	173.60321995464852	61	127
173.5219501133787	173.60321995464852	76	127
173.5219501133787	173.60321995464852	67	127
173.5219501133787	173.60321995464852	70	127
173.6148299319728	173.7077097505669	60	127
173.6148299319728	173.7077097505669	77	127
173.6148299319728	173.7077097505669	69	127
173.6148299319728	173.7077097505669	69	127
173.71931972789116	173.7657596371882	58	127
173.71931972789116	173.7657596371882	79	127
173.71931972789116	173.7657596371882	70	127
173.71931972789116	173.7657596371882	67	127
173.7657596371882	173.8586394557823	57	127
173.7657596371882	173.8586394557823	81	127
173.7657596371882	173.8586394557823	60	127
173.7657596371882	173.98634920634922	72	127
173.89344671201815	173.98634920634922	60	127
173.89344671201815	173.98634920634922	81	127
173.89344671201815	173.98634920634922	57	127
173.99793650793652	174.1140589569161	58	127
173.99793650793652	174.1140589569161	82	127
173.99793650793652	174.1140589569161	55	127
174.12566893424037	174.19532879818595	57	127
174.12566893424037	174.19532879818595	84	127
174.12566893424037	174.19532879818595	53	127
174.2069387755102	174.45074829931974	48	127
174.2069387755102	174.28820861678005	81	127
174.2069387755102	174.28820861678005	69	127
174.2069387755102	174.28820861678005	53	127
174.3346485260771	174.45074829931974	81	127
174.3346485260771	174.45074829931974	69	127
174.3346485260771	174.45074829931974	53	127
174.46235827664398	174.60167800453516	55	127
174.46235827664398	174.60167800453516	79	127
174.46235827664398	174.60167800453516	67	127
174.46235827664398	174.71777777777777	60	127
174.6132879818594	174.71777777777777	65	127
174.6132879818594	174.71777777777777	57	127
174.6132879818594	174.71777777777777	77	127
174.71777777777777	174.81063492063493	52	127
174.71777777777777	174.94997732426305	48	127
174.71777777777777	174.81063492063493	82	127
174.71777777777777	174.81063492063493	70	127
174.82226757369614	174.94997732426305	82	127
174.82226757369614	174.94997732426305	70	127
174.82226757369614	174.94997732426305	52	127
174.94997732426305	175.01961451247166	60	127
174.94997732426305	174.97319727891156	81	127
174.94997732426305	174.97319727891156	69	127
174.94997732426305	174.97319727891156	53	127
174.97319727891156	175.01961451247166	67	127
174.97319727891156	175.01961451247166	55	127
174.97319727891156	175.01961451247166	79	127
175.01961451247166	175.12412698412697	53	127
175.01961451247166	175.29827664399093	48	127
175.01961451247166	175.12412698412697	81	127
175.01961451247166	175.12412698412697	69	127
175.15895691609978	175.29827664399093	81	127
175.15895691609978	175.29827664399093	69	127
175.15895691609978	175.29827664399093	53	127
175.29827664399093	175.55369614512472	60	127
175.29827664399093	175.41437641723357	79	127
175.29827664399093	175.41437641723357	67	127
175.29827664399093	175.41437641723357	55	127
175.41437641723357	175.55369614512472	77	127
175.41437641723357	175.55369614512472	65	127
175.41437641723357	175.55369614512472	57	127
175.55369614512472	175.8091156462585	48	127
175.55369614512472	175.63496598639455	76	127
175.55369614512472	175.63496598639455	64	127
175.55369614512472	175.96004535147392	58	127
175.66979591836736	175.8091156462585	76	127
175.66979591836736	175.8091156462585	64	127
175.8091156462585	175.96004535147392	60	127
175.8091156462585	175.8787755102041	62	127
175.8091156462585	175.8787755102041	74	127
175.8787755102041	175.96004535147392	72	127
175.8787755102041	175.96004535147392	60	127
175.96004535147392	176.19222222222223	48	127
175.96004535147392	176.0645351473923	81	127
175.96004535147392	176.0645351473923	69	127
175.96004535147392	176.0645351473923	41	127
176.08775510204083	176.19222222222223	81	127
176.08775510204083	176.19222222222223	69	127
176.08775510204083	176.19222222222223	41	127
176.19222222222223	176.4012244897959	60	127
176.19222222222223	176.2967120181406	79	127
176.19222222222223	176.2967120181406	67	127
176.19222222222223	176.2967120181406	43	127
176.2967120181406	176.4012244897959	77	127
176.2967120181406	176.4012244897959	65	127
176.2967120181406	176.4012244897959	45	127
176.41283446712018	176.5985941043084	48	127
176.41283446712018	176.45927437641723	82	127
176.41283446712018	176.45927437641723	70	127
176.41283446712018	176.45927437641723	40	127
176.48249433106577	176.5985941043084	82	127
176.48249433106577	176.5985941043084	70	127
176.48249433106577	176.5985941043084	40	127
176.61020408163265	176.7843537414966	60	127
176.61020408163265	176.73791383219955	81	127
176.61020408163265	176.73791383219955	69	127
176.61020408163265	176.73791383219955	41	127
176.74952380952382	176.7843537414966	79	127
176.74952380952382	176.7843537414966	67	127
176.74952380952382	176.7843537414966	43	127
176.7843537414966	176.86562358276643	81	127
176.7843537414966	176.86562358276643	69	127
176.7843537414966	176.86562358276643	41	127
176.7843537414966	177.02816326530612	48	127
176.90045351473924	177.02816326530612	69	127
176.90045351473924	177.02816326530612	81	127
176.90045351473924	177.02816326530612	41	127
177.0397732426304	177.16746031746032	40	127
177.0397732426304	177.2255328798186	60	127
177.0397732426304	177.16746031746032	79	127
177.0397732426304	177.16746031746032	67	127
177.17909297052154	177.2255328798186	77	127
177.17909297052154	177.2255328798186	65	127
177.17909297052154	177.2255328798186	41	127
177.2255328798186	179.5475283446712	84	127
177.2255328798186	177.376462585034	48	127
177.2255328798186	177.376462585034	36	127
177.2255328798186	177.57380952380953	72	127
177.57380952380953	177.6667120181406	72	127
177.57380952380953	180.90589569160997	60	127
177.57380952380953	178.23557823129252	60	127
177.71315192743765	177.84086167800453	72	127
177.8524716553288	177.98015873015873	70	127
177.99179138321995	178.10789115646259	69	127
178.11950113378686	178.20077097505668	69	127
178.24721088435373	178.3284807256236	60	127
178.24721088435373	178.3284807256236	69	127
178.3400680272109	178.46780045351474	58	127
178.3400680272109	178.46780045351474	67	127
178.479410430839	178.59548752834468	65	127
178.479410430839	178.59548752834468	57	127
178.59548752834468	178.68839002267575	57	127
178.59548752834468	178.68839002267575	65	127
178.69997732426305	178.76965986394558	65	127
178.69997732426305	178.76965986394558	57	127
178.76965986394558	178.85090702947846	64	127
178.76965986394558	178.88575963718822	55	127
178.89736961451248	178.97863945578231	65	127
178.89736961451248	179.0134693877551	53	127
179.02507936507936	179.28049886621315	52	127
179.02507936507936	179.141179138322	66	127
179.141179138322	179.24566893424037	67	127
179.28049886621315	179.37337868480725	67	127
179.40820861678006	179.51269841269843	67	127
179.5475283446712	179.582358276644	86	127
179.5475283446712	179.582358276644	74	127
179.59396825396826	179.68684807256236	86	127
179.59396825396826	179.68684807256236	74	127
179.68684807256236	179.7100680272109	84	127
179.68684807256236	179.7100680272109	72	127
179.7100680272109	179.8261678004535	82	127
179.7100680272109	179.8261678004535	70	127
179.8261678004535	179.91904761904763	70	127
179.8261678004535	179.91904761904763	82	127
179.8261678004535	179.91904761904763	62	127
179.9538775510204	180.03514739229024	82	127
179.9538775510204	180.03514739229024	70	127
179.9538775510204	180.03514739229024	62	127
180.03514739229024	180.16285714285715	81	127
180.03514739229024	180.16285714285715	69	127
180.03514739229024	180.16285714285715	60	127
180.16285714285715	180.25573696145125	79	127
180.16285714285715	180.25573696145125	67	127
180.16285714285715	180.25573696145125	58	127
180.25573696145125	180.32539682539684	79	127
180.25573696145125	180.32539682539684	67	127
180.25573696145125	180.32539682539684	58	127
180.34861678004535	180.3718367346939	79	127
180.34861678004535	180.3718367346939	67	127
180.34861678004535	180.3718367346939	58	127
180.3718367346939	180.46471655328799	77	127
180.3718367346939	180.46471655328799	65	127
180.3718367346939	180.49954648526077	57	127
180.51115646258503	180.60403628117913	67	127
180.51115646258503	180.62725623582767	55	127
180.51115646258503	180.60403628117913	79	127
180.63884353741497	180.90589569160997	53	127
180.63884353741497	180.76657596371882	80	127
180.63884353741497	180.73174603174604	69	127
180.7781859410431	180.8710657596372	81	127
180.7781859410431	180.90589569160997	65	127
180.91750566893424	180.98716553287983	81	127
180.91750566893424	181.01038548752834	64	127
181.0219954648526	181.06843537414966	81	127
181.0219954648526	181.1032426303855	63	127
181.1148752834467	181.2077551020408	62	127
181.1148752834467	181.2077551020408	82	127
181.1148752834467	181.48639455782313	58	127
181.1148752834467	181.66052154195012	65	127
181.24258503401362	181.3354648526077	82	127
181.24258503401362	181.3354648526077	74	127
181.3354648526077	181.40510204081633	84	127
181.3354648526077	181.40510204081633	72	127
181.41673469387754	181.48639455782313	70	127
181.41673469387754	181.48639455782313	86	127
181.48639455782313	181.55605442176872	84	127
181.48639455782313	181.55605442176872	69	127
181.48639455782313	181.66052154195012	53	127
181.5908843537415	181.66052154195012	84	127
181.5908843537415	181.66052154195012	69	127
181.67215419501133	181.79986394557824	82	127
181.67215419501133	181.79986394557824	70	127
181.8114739229025	181.86950113378686	72	127
181.8114739229025	181.86950113378686	81	127
181.86950113378686	181.97401360544217	70	127
181.86950113378686	181.97401360544217	79	127
181.86950113378686	182.3455328798186	64	127
182.00884353741498	182.13655328798185	79	127
182.00884353741498	182.13655328798185	70	127
182.13655328798185	182.24104308390022	81	127
182.13655328798185	182.24104308390022	69	127
182.24104308390022	182.3455328798186	82	127
182.24104308390022	182.3455328798186	67	127
182.3455328798186	182.5661224489796	53	127
182.3455328798186	182.45002267573696	81	127
182.3455328798186	182.45002267573696	65	127
182.3455328798186	182.45002267573696	65	127
182.4732426303855	182.5661224489796	81	127
182.4732426303855	182.5661224489796	65	127
182.4732426303855	182.5661224489796	65	127
182.5661224489796	182.6590022675737	67	127
182.5661224489796	182.6590022675737	79	127
182.5661224489796	182.6590022675737	64	127
182.6590022675737	182.79832199546485	69	127
182.6590022675737	182.79832199546485	77	127
182.6590022675737	182.79832199546485	63	127
182.79832199546485	182.90281179138321	62	127
182.79832199546485	182.90281179138321	82	127
182.79832199546485	182.90281179138321	70	127
182.79832199546485	182.90281179138321	46	127
182.93764172335602	183.03052154195012	62	127
182.93764172335602	183.03052154195012	82	127
182.93764172335602	183.03052154195012	67	127
182.93764172335602	183.03052154195012	46	127
183.03052154195012	183.1350113378685	60	127
183.03052154195012	183.1350113378685	84	127
183.03052154195012	183.1350113378685	69	127
183.03052154195012	183.1350113378685	45	127
183.1350113378685	183.23950113378686	58	127
183.1350113378685	183.23950113378686	86	127
183.1350113378685	183.23950113378686	70	127
183.1350113378685	183.23950113378686	43	127
183.23950113378686	183.33238095238096	84	127
183.23950113378686	183.33238095238096	69	127
183.23950113378686	183.36721088435374	60	127
183.23950113378686	183.46009070294784	48	127
183.36721088435374	183.46009070294784	84	127
183.36721088435374	183.46009070294784	69	127
183.36721088435374	183.46009070294784	60	127
183.4717006802721	183.49492063492065	82	127
183.4717006802721	183.49492063492065	67	127
183.4717006802721	183.49492063492065	60	127
183.50650793650794	183.59941043083901	81	127
183.50650793650794	183.59941043083901	65	127
183.50650793650794	183.59941043083901	60	127
183.61102040816326	183.73873015873016	48	127
183.61102040816326	183.70390022675738	79	127
183.61102040816326	183.70390022675738	40	127
183.61102040816326	183.73873015873016	70	127
183.61102040816326	183.73873015873016	60	127
183.75034013605443	183.80836734693878	79	127
183.75034013605443	183.80836734693878	70	127
183.75034013605443	183.80836734693878	48	127
183.75034013605443	183.80836734693878	60	127
183.75034013605443	183.80836734693878	40	127
183.82	183.92448979591836	84	127
183.82	183.92448979591836	70	127
183.82	183.92448979591836	48	127
183.82	183.92448979591836	60	127
183.82	183.92448979591836	38	127
183.93609977324263	184.040589569161	76	127
183.93609977324263	184.040589569161	70	127
183.93609977324263	184.040589569161	36	127
183.93609977324263	184.040589569161	48	127
183.93609977324263	184.040589569161	60	127
184.05219954648527	184.58625850340135	41	127
184.05219954648527	184.58625850340135	77	127
184.05219954648527	184.58625850340135	69	127
184.05219954648527	184.58625850340135	53	127
184.59786848072562	184.64430839002267	75	127
184.6791156462585	184.7952380952381	75	127
184.80684807256236	184.84167800453514	74	127
184.84167800453514	184.95777777777778	72	127
184.95777777777778	185.06226757369615	72	127
184.95777777777778	185.06226757369615	69	127
185.0854648526077	185.14353741496598	72	127
185.0854648526077	185.14353741496598	69	127
185.14353741496598	185.25963718820861	70	127
185.14353741496598	185.25963718820861	67	127
185.25963718820861	185.38734693877552	69	127
185.25963718820861	185.38734693877552	66	127
185.38734693877552	185.46861678004535	78	127
185.38734693877552	185.46861678004535	69	127
185.38734693877552	185.46861678004535	72	127
185.38734693877552	185.46861678004535	63	127
185.46861678004535	185.57310657596372	78	127
185.46861678004535	185.57310657596372	69	127
185.46861678004535	185.57310657596372	72	127
185.46861678004535	185.57310657596372	63	127
185.57310657596372	185.71242630385487	79	127
185.57310657596372	185.71242630385487	70	127
185.57310657596372	185.71242630385487	70	127
185.57310657596372	185.71242630385487	62	127
185.71242630385487	185.85172335600907	81	127
185.71242630385487	185.85172335600907	72	127
185.71242630385487	185.85172335600907	69	127
185.71242630385487	185.85172335600907	60	127
185.85172335600907	185.94462585034015	82	127
185.85172335600907	185.94462585034015	62	127
185.85172335600907	185.94462585034015	58	127
185.85172335600907	186.09555555555556	74	127
185.96784580498866	186.09555555555556	58	127
185.96784580498866	186.09555555555556	82	127
185.96784580498866	186.09555555555556	62	127
186.09555555555556	186.2348752834467	84	127
186.09555555555556	186.2348752834467	60	127
186.09555555555556	186.2348752834467	57	127
186.2348752834467	186.37419501133786	86	127
186.2348752834467	186.37419501133786	58	127
186.2348752834467	186.37419501133786	55	127
186.37419501133786	186.44385487528345	74	127
186.4902947845805	186.57154195011339	74	127
186.57154195011339	186.66444444444446	72	127
186.6760544217687	186.79215419501134	70	127
186.79215419501134	186.8734240362812	70	127
186.79215419501134	186.8734240362812	67	127
186.8734240362812	186.90825396825397	70	127
186.8734240362812	186.90825396825397	67	127
186.90825396825397	187.04757369614512	69	127
186.90825396825397	187.04757369614512	65	127
187.0591836734694	187.18687074829933	67	127
187.0591836734694	187.18687074829933	64	127
187.19850340136054	187.2797732426304	76	127
187.19850340136054	187.2797732426304	67	127
187.19850340136054	187.2797732426304	70	127
187.19850340136054	187.2797732426304	61	127
187.32621315192745	187.43070294784582	76	127
187.32621315192745	187.43070294784582	67	127
187.32621315192745	187.43070294784582	70	127
187.32621315192745	187.43070294784582	61	127
187.4422902494331	187.54680272108843	77	127
187.4422902494331	187.54680272108843	69	127
187.4422902494331	187.54680272108843	69	127
187.4422902494331	187.54680272108843	60	127
187.5584126984127	187.61646258503401	79	127
187.5584126984127	187.61646258503401	70	127
187.5584126984127	187.61646258503401	67	127
187.5584126984127	187.61646258503401	58	127
187.62807256235828	187.7093424036281	81	127
187.62807256235828	187.7093424036281	60	127
187.62807256235828	187.7093424036281	57	127
187.62807256235828	187.8718820861678	72	127
187.75578231292516	187.8718820861678	60	127
187.75578231292516	187.8718820861678	57	127
187.75578231292516	187.8718820861678	81	127
187.8718820861678	187.90671201814058	55	127
187.8718820861678	187.90671201814058	82	127
187.8718820861678	187.90671201814058	58	127
187.90671201814058	188.02281179138322	84	127
187.90671201814058	188.02281179138322	57	127
187.90671201814058	188.02281179138322	53	127
188.02281179138322	188.24340136054423	48	127
188.02281179138322	188.11569160997732	81	127
188.02281179138322	188.11569160997732	69	127
188.02281179138322	188.11569160997732	53	127
188.15052154195013	188.24340136054423	69	127
188.15052154195013	188.24340136054423	53	127
188.15052154195013	188.24340136054423	81	127
188.24340136054423	188.3594784580499	55	127
188.24340136054423	188.3594784580499	79	127
188.24340136054423	188.3594784580499	67	127
188.24340136054423	188.41755102040815	60	127
188.3594784580499	188.41755102040815	65	127
188.3594784580499	188.41755102040815	57	127
188.3594784580499	188.41755102040815	77	127
188.41755102040815	188.52204081632652	52	127
188.41755102040815	188.52204081632652	82	127
188.41755102040815	188.69619047619048	48	127
188.41755102040815	188.52204081632652	70	127
188.55687074829933	188.69619047619048	52	127
188.55687074829933	188.69619047619048	82	127
188.55687074829933	188.69619047619048	70	127
188.69619047619048	188.82390022675736	81	127
188.69619047619048	188.82390022675736	69	127
188.69619047619048	188.82390022675736	53	127
188.69619047619048	188.96321995464854	60	127
188.82390022675736	188.96321995464854	79	127
188.82390022675736	188.96321995464854	67	127
188.82390022675736	188.96321995464854	55	127
188.96321995464854	189.0677097505669	81	127
188.96321995464854	189.0677097505669	53	127
188.96321995464854	189.0677097505669	69	127
188.96321995464854	189.24185941043083	48	127
189.10253968253969	189.24185941043083	69	127
189.10253968253969	189.24185941043083	81	127
189.10253968253969	189.24185941043083	53	127
189.24185941043083	189.38115646258504	60	127
189.24185941043083	189.31151927437642	79	127
189.24185941043083	189.31151927437642	67	127
189.24185941043083	189.31151927437642	55	127
189.31151927437642	189.38115646258504	65	127
189.31151927437642	189.38115646258504	57	127
189.31151927437642	189.38115646258504	77	127
189.39278911564625	189.4740589569161	76	127
189.39278911564625	189.4740589569161	64	127
189.39278911564625	189.64820861678004	48	127
189.39278911564625	189.88040816326532	58	127
189.52049886621316	189.64820861678004	64	127
189.52049886621316	189.64820861678004	76	127
189.6598185941043	189.88040816326532	60	127
189.6598185941043	189.7526984126984	62	127
189.6598185941043	189.7526984126984	74	127
189.7526984126984	189.88040816326532	60	127
189.7526984126984	189.88040816326532	72	127
189.8919954648526	190.1358276643991	48	127
189.8919954648526	189.98489795918368	41	127
189.8919954648526	189.98489795918368	81	127
189.8919954648526	189.98489795918368	69	127
190.03133786848073	190.1358276643991	41	127
190.03133786848073	190.1358276643991	81	127
190.03133786848073	190.1358276643991	69	127
190.1358276643991	190.17065759637188	79	127
190.1358276643991	190.17065759637188	43	127
190.1358276643991	190.24031746031747	60	127
190.1358276643991	190.17065759637188	67	127
190.17065759637188	190.24031746031747	65	127
190.17065759637188	190.24031746031747	45	127
190.17065759637188	190.24031746031747	77	127
190.2519274376417	190.3215873015873	82	127
190.2519274376417	190.3215873015873	70	127
190.2519274376417	190.3215873015873	40	127
190.2519274376417	190.4492970521542	48	127
190.34480725623584	190.4492970521542	40	127
190.34480725623584	190.4492970521542	70	127
190.34480725623584	190.4492970521542	82	127
190.4492970521542	190.5770068027211	41	127
190.4492970521542	190.5770068027211	81	127
190.4492970521542	190.5770068027211	69	127
190.4492970521542	190.6698866213152	60	127
190.58861678004536	190.6698866213152	79	127
190.58861678004536	190.6698866213152	67	127
190.58861678004536	190.6698866213152	43	127
190.6698866213152	190.75115646258504	69	127
190.6698866213152	190.9136961451247	48	127
190.6698866213152	190.75115646258504	41	127
190.6698866213152	190.75115646258504	81	127
190.78598639455782	190.9136961451247	81	127
190.78598639455782	190.9136961451247	69	127
190.78598639455782	190.9136961451247	41	127
190.9136961451247	190.9833560090703	79	127
190.9136961451247	190.9833560090703	67	127
190.9136961451247	190.9833560090703	40	127
190.9136961451247	191.05301587301588	60	127
190.9833560090703	191.05301587301588	65	127
190.9833560090703	191.05301587301588	41	127
190.9833560090703	191.05301587301588	77	127
191.06462585034015	191.37809523809523	48	127
191.06462585034015	191.37809523809523	36	127
191.06462585034015	191.5174149659864	72	127
191.06462585034015	193.44467120181406	84	127
191.5174149659864	192.09791383219954	60	127
191.5174149659864	191.6102947845805	72	127
191.5174149659864	194.73337868480726	60	127
191.65673469387755	191.76122448979592	72	127
191.76122448979592	191.84249433106575	70	127
191.85410430839002	191.98181405895693	69	127
191.98181405895693	192.06308390022676	69	127
192.09791383219954	192.23723356009071	69	127
192.09791383219954	192.23723356009071	60	127
192.23723356009071	192.37655328798186	67	127
192.23723356009071	192.37655328798186	58	127
192.37655328798186	192.46943310657596	65	127
192.37655328798186	192.46943310657596	57	127
192.46943310657596	192.5507029478458	65	127
192.46943310657596	192.5507029478458	57	127
192.56231292517006	192.6784126984127	65	127
192.56231292517006	192.6784126984127	57	127
192.6784126984127	192.78290249433107	64	127
192.6784126984127	192.81773242630385	55	127
192.81773242630385	192.91061224489795	65	127
192.81773242630385	192.9338321995465	53	127
192.9338321995465	193.06154195011337	66	127
192.9338321995465	193.16603174603173	52	127
193.06154195011337	193.16603174603173	67	127
193.16603174603173	193.2705215419501	67	127
193.3053514739229	193.40984126984128	67	127
193.44467120181406	193.50272108843538	74	127
193.44467120181406	193.50272108843538	86	127
193.50272108843538	193.60721088435375	84	127
193.50272108843538	193.60721088435375	72	127
193.61882086167802	193.7465306122449	82	127
193.61882086167802	193.7465306122449	70	127
193.75814058956917	193.839410430839	62	127
193.75814058956917	193.839410430839	82	127
193.75814058956917	193.839410430839	70	127
193.839410430839	193.88585034013605	82	127
193.839410430839	193.88585034013605	70	127
193.839410430839	193.88585034013605	62	127
193.89746031746031	194.02517006802722	69	127
193.89746031746031	194.02517006802722	60	127
193.89746031746031	194.02517006802722	81	127
194.02517006802722	194.1528798185941	67	127
194.02517006802722	194.1528798185941	58	127
194.02517006802722	194.1528798185941	79	127
194.1528798185941	194.23414965986396	79	127
194.1528798185941	194.23414965986396	67	127
194.1528798185941	194.23414965986396	58	127
194.25736961451247	194.3734693877551	58	127
194.25736961451247	194.3734693877551	79	127
194.25736961451247	194.3734693877551	67	127
194.38507936507938	194.41990929705216	77	127
194.38507936507938	194.41990929705216	65	127
194.38507936507938	194.45473922902494	57	127
194.4663492063492	194.51278911564626	67	127
194.4663492063492	194.5360090702948	55	127
194.4663492063492	194.51278911564626	79	127
194.54761904761904	194.61727891156463	69	127
194.54761904761904	194.6288888888889	80	127
194.54761904761904	194.73337868480726	53	127
194.64049886621316	194.721768707483	81	127
194.64049886621316	194.73337868480726	65	127
194.74498866213153	194.83786848072563	81	127
194.74498866213153	194.8726984126984	64	127
194.8726984126984	194.95396825396824	81	127
194.8726984126984	194.97718820861678	63	127
194.97718820861678	195.07006802721088	62	127
194.97718820861678	195.07006802721088	82	127
194.97718820861678	195.42997732426304	58	127
194.97718820861678	195.604126984127	65	127
195.10489795918366	195.2209977324263	74	127
195.10489795918366	195.2209977324263	82	127
195.2209977324263	195.3487074829932	84	127
195.2209977324263	195.3487074829932	72	127
195.3487074829932	195.42997732426304	70	127
195.3487074829932	195.42997732426304	86	127
195.42997732426304	195.46480725623582	84	127
195.42997732426304	195.46480725623582	69	127
195.42997732426304	195.604126984127	53	127
195.49963718820862	195.604126984127	84	127
195.49963718820862	195.604126984127	69	127
195.604126984127	195.7202267573696	82	127
195.604126984127	195.7202267573696	70	127
195.7202267573696	195.80149659863946	81	127
195.7202267573696	195.80149659863946	72	127
195.80149659863946	195.85954648526078	79	127
195.80149659863946	195.85954648526078	70	127
195.80149659863946	196.2891156462585	64	127
195.87115646258502	196.0104761904762	79	127
195.87115646258502	196.0104761904762	70	127
196.0104761904762	196.14979591836735	81	127
196.0104761904762	196.14979591836735	69	127
196.14979591836735	196.2891156462585	82	127
196.14979591836735	196.2891156462585	67	127
196.2891156462585	196.49809523809523	53	127
196.2891156462585	196.3819954648526	81	127
196.2891156462585	196.3819954648526	65	127
196.2891156462585	196.3819954648526	65	127
196.3819954648526	196.49809523809523	65	127
196.3819954648526	196.49809523809523	65	127
196.3819954648526	196.49809523809523	81	127
196.5097052154195	196.61419501133787	64	127
196.5097052154195	196.61419501133787	79	127
196.5097052154195	196.61419501133787	67	127
196.62580498866214	196.7302947845805	69	127
196.62580498866214	196.7302947845805	63	127
196.62580498866214	196.7302947845805	77	127
196.7302947845805	196.7651247165533	46	127
196.7302947845805	196.7651247165533	70	127
196.7302947845805	196.7651247165533	62	127
196.7302947845805	196.7651247165533	82	127
196.81156462585034	196.93927437641725	82	127
196.81156462585034	196.93927437641725	67	127
196.81156462585034	196.93927437641725	62	127
196.81156462585034	196.93927437641725	46	127
196.9508843537415	197.06698412698412	84	127
196.9508843537415	197.06698412698412	69	127
196.9508843537415	197.06698412698412	60	127
196.9508843537415	197.06698412698412	45	127
197.06698412698412	197.1366439909297	70	127
197.06698412698412	197.1366439909297	86	127
197.06698412698412	197.1366439909297	58	127
197.06698412698412	197.1366439909297	43	127
197.14825396825398	197.2295238095238	84	127
197.14825396825398	197.2295238095238	69	127
197.14825396825398	197.2295238095238	60	127
197.14825396825398	197.3572335600907	48	127
197.24113378684808	197.3572335600907	69	127
197.24113378684808	197.3572335600907	60	127
197.24113378684808	197.3572335600907	84	127
197.36884353741496	197.49655328798187	82	127
197.36884353741496	197.49655328798187	67	127
197.36884353741496	197.49655328798187	60	127
197.5081632653061	197.53138321995465	81	127
197.5081632653061	197.53138321995465	65	127
197.5081632653061	197.53138321995465	60	127
197.54299319727892	197.6707029478458	48	127
197.54299319727892	197.63587301587302	79	127
197.54299319727892	197.63587301587302	40	127
197.54299319727892	197.6707029478458	70	127
197.54299319727892	197.6707029478458	60	127
197.68231292517007	197.82163265306122	79	127
197.68231292517007	197.82163265306122	70	127
197.68231292517007	197.82163265306122	48	127
197.68231292517007	197.82163265306122	60	127
197.68231292517007	197.82163265306122	40	127
197.82163265306122	197.9609523809524	84	127
197.82163265306122	197.9609523809524	70	127
197.82163265306122	197.9609523809524	48	127
197.82163265306122	197.9609523809524	60	127
197.82163265306122	197.9609523809524	38	127
197.9609523809524	197.99578231292517	76	127
197.9609523809524	197.99578231292517	70	127
197.9609523809524	197.99578231292517	48	127
197.9609523809524	197.99578231292517	60	127
197.9609523809524	197.99578231292517	36	127
198.00739229024944	198.5530612244898	77	127
198.00739229024944	198.5530612244898	69	127
198.00739229024944	198.5530612244898	53	127
198.00739229024944	198.5530612244898	41	127
198.56467120181406	198.65755102040816	81	127
198.7039909297052	198.76204081632653	81	127
198.76204081632653	198.83170068027212	79	127
198.83170068027212	198.84331065759636	77	127
198.84331065759636	198.9361904761905	77	127
198.84331065759636	198.9361904761905	69	127
198.97102040816327	199.07551020408164	77	127
198.97102040816327	199.07551020408164	69	127
199.07551020408164	199.16839002267574	76	127
199.07551020408164	199.16839002267574	67	127
199.16839002267574	199.28448979591838	74	127
199.16839002267574	199.28448979591838	65	127
199.28448979591838	199.35414965986394	74	127
199.28448979591838	199.35414965986394	65	127
199.28448979591838	199.35414965986394	69	127
199.38897959183674	199.47024943310657	69	127
199.38897959183674	199.47024943310657	74	127
199.38897959183674	199.47024943310657	65	127
199.47024943310657	199.59795918367348	72	127
199.47024943310657	199.59795918367348	64	127
199.47024943310657	199.59795918367348	67	127
199.59795918367348	199.69083900226758	71	127
199.59795918367348	199.69083900226758	62	127
199.59795918367348	199.69083900226758	65	127
199.69083900226758	199.73727891156463	71	127
199.69083900226758	199.73727891156463	62	127
199.69083900226758	199.73727891156463	65	127
199.7721088435374	199.91142857142856	71	127
199.7721088435374	199.91142857142856	62	127
199.7721088435374	199.91142857142856	65	127
199.91142857142856	200.05074829931974	69	127
199.91142857142856	200.05074829931974	60	127
199.91142857142856	200.05074829931974	64	127
200.05074829931974	200.16684807256235	67	127
200.05074829931974	200.16684807256235	59	127
200.05074829931974	200.16684807256235	62	127
200.16684807256235	200.3177777777778	67	127
200.16684807256235	200.3177777777778	59	127
200.16684807256235	200.3177777777778	62	127
200.19006802721088	200.3177777777778	57	127
200.32938775510203	200.45709750566894	55	127
200.4687074829932	200.5267573696145	53	127
200.53836734693877	200.61963718820863	53	127
200.53836734693877	200.75895691609978	71	127
200.53836734693877	200.75895691609978	62	127
200.53836734693877	200.75895691609978	67	127
200.6544671201814	200.75895691609978	53	127
200.77056689342405	200.88666666666666	52	127
200.88666666666666	200.97954648526078	50	127
200.99115646258502	201.07242630385488	50	127
200.99115646258502	201.23496598639457	74	127
200.99115646258502	201.23496598639457	67	127
200.99115646258502	201.23496598639457	71	127
201.10725623582766	201.23496598639457	50	127
201.2465759637188	201.33945578231294	48	127
201.35106575963718	201.46716553287982	47	127
201.4787755102041	201.52521541950114	47	127
201.4787755102041	201.6297052154195	77	127
201.4787755102041	201.6297052154195	74	127
201.4787755102041	201.6297052154195	67	127
201.52521541950114	201.6297052154195	47	127
201.64131519274378	201.76902494331065	45	127
201.76902494331065	201.87351473922902	43	127
201.87351473922902	201.95478458049885	47	127
201.87351473922902	202.11732426303854	83	127
201.87351473922902	202.11732426303854	74	127
201.87351473922902	202.11732426303854	67	127
201.98961451247166	202.11732426303854	47	127
202.11732426303854	202.23342403628118	45	127
202.23342403628118	202.33791383219955	43	127
202.33791383219955	202.40757369614514	47	127
202.33791383219955	202.54689342403628	86	127
202.33791383219955	202.54689342403628	77	127
202.33791383219955	202.54689342403628	67	127
202.45401360544219	202.54689342403628	47	127
202.54689342403628	202.68621315192743	45	127
202.6978231292517	202.82553287981858	43	127
202.83714285714285	202.94163265306122	47	127
202.83714285714285	203.12739229024945	89	127
202.83714285714285	203.12739229024945	74	127
202.83714285714285	203.12739229024945	67	127
202.98807256235827	203.12739229024945	47	127
203.1390022675737	203.30154195011337	45	127
203.30154195011337	203.48730158730157	43	127
203.48730158730157	203.64984126984126	47	127
203.48730158730157	205.51904761904763	62	127
203.48730158730157	205.51904761904763	59	127
203.48730158730157	205.51904761904763	55	127
203.48730158730157	205.51904761904763	65	127
203.6962811791383	203.90526077097505	47	127
203.91687074829932	204.09102040816327	45	127
204.09102040816327	205.51904761904763	43	127
207.0283446712018	208.74662131519275	55	127
208.758231292517	211.38208616780045	60	127
209.640589569161	210.40684807256235	60	127
209.640589569161	210.40684807256235	55	127
209.640589569161	210.40684807256235	64	127
210.40684807256235	211.38208616780045	67	127
210.40684807256235	211.38208616780045	64	127
210.40684807256235	211.38208616780045	60	127
211.38208616780045	212.3108843537415	55	127
211.38208616780045	212.3108843537415	72	127
211.38208616780045	212.3108843537415	67	127
211.38208616780045	212.3108843537415	64	127
212.3108843537415	213.17002267573696	76	127
212.3108843537415	213.17002267573696	72	127
212.3108843537415	213.17002267573696	67	127
212.3108843537415	213.17002267573696	52	127
213.17002267573696	214.07560090702947	79	127
213.17002267573696	214.07560090702947	76	127
213.17002267573696	214.07560090702947	72	127
213.17002267573696	214.07560090702947	48	127
214.08721088435374	215.77065759637188	48	127
214.08721088435374	217.34961451247165	79	127
214.08721088435374	217.34961451247165	77	127
214.08721088435374	217.34961451247165	74	127
215.78226757369615	217.34961451247165	47	127
217.36122448979592	220.0431292517007	60	127
217.36122448979592	219.1259410430839	48	127
217.36122448979592	220.0431292517007	67	127
217.36122448979592	220.0431292517007	64	127
219.13755102040815	219.4045804988662	50	127
219.4045804988662	219.60195011337868	48	127
219.60195011337868	219.85736961451246	47	127
219.85736961451246	220.0431292517007	48	127
220.0663492063492	223.22426303854874	67	127
220.0663492063492	222.13292517006803	61	127
220.0663492063492	222.13292517006803	58	127
220.0663492063492	222.13292517006803	52	127
222.15614512471655	223.22426303854874	65	127
222.15614512471655	223.22426303854874	59	127
222.15614512471655	223.22426303854874	50	127
223.235873015873	224.118231292517	55	127
224.12984126984128	225.0934693877551	59	127
225.11668934240362	226.12675736961452	62	127
225.11668934240362	226.12675736961452	50	127
226.13836734693876	228.78544217687076	65	127
226.13836734693876	228.78544217687076	53	127
226.9162358276644	227.86825396825398	71	127
227.87986394557822	228.78544217687076	80	127
228.797052154195	229.71424036281178	50	127
228.797052154195	230.75913832199547	65	127
228.797052154195	231.25836734693877	79	127
228.797052154195	229.71424036281178	59	127
229.73746031746032	230.75913832199547	47	127
229.73746031746032	230.75913832199547	62	127
230.77074829931973	231.8504761904762	60	127
230.77074829931973	231.8504761904762	48	127
230.77074829931973	231.8504761904762	64	127
231.2815873015873	231.57183673469387	77	127
231.57183673469387	231.8504761904762	76	127
231.8736961451247	232.81410430839003	76	127
231.8736961451247	233.70807256235827	69	127
231.8736961451247	233.70807256235827	53	127
231.8736961451247	233.70807256235827	41	127
232.8257142857143	233.70807256235827	74	127
233.71968253968254	235.82108843537415	50	127
233.71968253968254	234.76458049886622	77	127
233.71968253968254	235.82108843537415	65	127
233.71968253968254	236.2506575963719	69	127
234.799410430839	236.63378684807256	81	127
235.83269841269842	237.95732426303854	55	127
235.83269841269842	236.63378684807256	59	127
236.2738775510204	236.4596371882086	67	127
236.4596371882086	236.6570068027211	65	127
236.6570068027211	238.16630385487528	71	127
236.6570068027211	236.86598639455784	64	127
236.6570068027211	237.95732426303854	65	127
236.86598639455784	237.4116553287982	62	127
237.4116553287982	237.77156462585035	60	127
237.77156462585035	237.9689342403628	59	127
237.9689342403628	240.2328798185941	62	127
237.9689342403628	241.59124716553288	48	127
237.9689342403628	240.2328798185941	65	127
238.16630385487528	238.51460317460317	72	127
238.51460317460317	238.73519274376417	74	127
238.73519274376417	238.93256235827664	76	127
238.93256235827664	239.15315192743765	77	127
239.15315192743765	239.39696145124717	67	127
239.39696145124717	239.98907029478457	69	127
239.98907029478457	240.25609977324262	71	127
240.25609977324262	241.59124716553288	60	127
240.25609977324262	241.59124716553288	72	127
240.25609977324262	241.59124716553288	64	127
242.56648526077097	242.92639455782313	60	127
242.94961451247167	243.36757369614512	64	127
243.37918367346938	243.79714285714286	67	127
243.80875283446713	244.47052154195012	72	127
244.52857142857144	247.0827664399093	64	127
244.52857142857144	245.12068027210884	36	127
244.52857142857144	246.5487074829932	76	127
244.52857142857144	247.0827664399093	55	127
244.52857142857144	247.0827664399093	60	127
245.14390022675738	245.53863945578232	48	127
245.5502494331066	245.91015873015874	52	127
245.93337868480725	246.33972789115646	55	127
246.35133786848073	247.0827664399093	60	127
246.5487074829932	246.72285714285715	74	127
246.72285714285715	246.90861678004535	72	127
246.90861678004535	247.09437641723355	71	127
247.09437641723355	247.30335600907028	72	127
247.30335600907028	247.5239455782313	74	127
247.5239455782313	247.72131519274376	76	127
247.72131519274376	247.89546485260772	77	127
247.89546485260772	248.08122448979591	79	127
248.08122448979591	248.29020408163265	78	127
248.29020408163265	248.4991836734694	81	127
248.4991836734694	248.8126530612245	79	127
248.8126530612245	249.01002267573696	77	127
249.01002267573696	249.26544217687075	76	127
249.26544217687075	249.42798185941044	74	127
249.42798185941044	249.74145124716554	72	127
249.74145124716554	250.64702947845805	64	127
249.74145124716554	250.64702947845805	55	127
249.74145124716554	250.64702947845805	48	127
249.74145124716554	251.21591836734694	76	127
250.65863945578232	251.7383673469388	67	127
250.65863945578232	251.7383673469388	60	127
250.65863945578232	251.7383673469388	52	127
251.21591836734694	251.47133786848073	77	127
251.47133786848073	251.74997732426303	76	127
251.74997732426303	252.62072562358276	74	127
251.74997732426303	252.62072562358276	62	127
251.74997732426303	252.62072562358276	59	127
251.74997732426303	252.62072562358276	55	127
253.53791383219954	253.73528344671203	55	127
253.73528344671203	253.9326530612245	60	127
253.9326530612245	254.1184126984127	64	127
254.1184126984127	254.32739229024943	60	127
254.32739229024943	254.55959183673468	67	127
254.55959183673468	254.81501133786847	64	127
254.81501133786847	255.08204081632653	72	127
255.08204081632653	255.26780045351475	67	127
255.32585034013604	257.9032426303855	64	127
255.32585034013604	255.61609977324264	36	127
255.32585034013604	257.06734693877553	76	127
255.32585034013604	257.9032426303855	60	127
255.32585034013604	257.9032426303855	55	127
255.61609977324264	255.83668934240362	43	127
255.83668934240362	256.0456689342404	48	127
256.0456689342404	256.2546485260771	43	127
256.2546485260771	256.46362811791386	52	127
256.46362811791386	256.6377777777778	48	127
256.6377777777778	256.823537414966	55	127
256.823537414966	257.06734693877553	52	127
257.06734693877553	257.9032426303855	60	127
257.1602267573696	257.2531065759637	74	127
257.2531065759637	257.36920634920637	72	127
257.36920634920637	257.5085260770975	71	127
257.5085260770975	257.60138321995464	72	127
257.60138321995464	257.74072562358276	74	127
257.74072562358276	257.83360544217686	76	127
257.83360544217686	257.9845351473923	77	127
257.9845351473923	258.10063492063495	81	127
258.10063492063495	258.3560544217687	79	127
258.3560544217687	258.588253968254	77	127
258.588253968254	258.69274376417235	76	127
258.69274376417235	258.808843537415	77	127
258.808843537415	258.91333333333336	79	127
258.91333333333336	259.0178231292517	81	127
259.0178231292517	259.1107029478458	83	127
259.1107029478458	259.2035827664399	84	127
259.2035827664399	259.31968253968256	83	127
259.31968253968256	259.5751020408163	88	127
259.5751020408163	259.6795918367347	86	127
259.6795918367347	259.78408163265306	84	127
259.78408163265306	259.9001814058957	83	127
259.9001814058957	259.9814512471655	81	127
259.9814512471655	260.0743310657596	79	127
260.0743310657596	260.20204081632653	78	127
260.20204081632653	260.399410430839	79	127
260.399410430839	260.59678004535147	81	127
260.59678004535147	260.68965986394556	79	127
260.68965986394556	260.78253968253966	77	127
260.78253968253966	260.9450793650794	76	127
260.9450793650794	261.0379591836735	74	127
261.0379591836735	261.3165986394558	72	127
261.32820861678005	262.1989342403628	55	127
261.32820861678005	261.7577777777778	76	127
261.32820861678005	262.1989342403628	48	127
261.32820861678005	262.1989342403628	64	127
261.78099773242633	261.9087074829932	77	127
261.9087074829932	262.0596371882086	76	127
262.0596371882086	262.210566893424	74	127
262.210566893424	262.4427664399093	76	127
262.210566893424	263.1161451247166	52	127
262.210566893424	263.1161451247166	67	127
262.210566893424	263.1161451247166	60	127
262.4427664399093	262.64013605442176	77	127
262.64013605442176	262.8839455782313	78	127
262.8839455782313	263.13936507936506	79	127
263.13936507936506	264.149410430839	62	127
263.13936507936506	263.5689342403628	55	127
263.13936507936506	264.149410430839	59	127
263.13936507936506	264.149410430839	74	127
263.5689342403628	263.7663038548753	43	127
263.7663038548753	263.96367346938774	47	127
263.96367346938774	264.1610430839002	50	127
264.1610430839002	264.40485260770976	55	127
264.1610430839002	265.0665986394558	62	127
264.40485260770976	264.62544217687076	59	127
264.62544217687076	264.8344217687075	62	127
264.8344217687075	265.078231292517	60	127
265.078231292517	265.17108843537414	73	127
265.078231292517	265.26396825396824	59	127
265.078231292517	265.8792970521542	59	127
265.17108843537414	265.8792970521542	74	127
265.26396825396824	265.4613605442177	57	127
265.4613605442177	265.71678004535147	55	127
265.71678004535147	265.90253968253967	54	127
265.90253968253967	267.08675736961453	55	127
265.90253968253967	266.00702947845804	73	127
265.90253968253967	266.1115192743764	55	127
266.00702947845804	267.08675736961453	74	127
266.1115192743764	266.4249886621315	50	127
266.4249886621315	266.76167800453516	47	127
266.76167800453516	267.0983673469388	43	127
267.0983673469388	268.02714285714285	66	127
267.0983673469388	268.02714285714285	57	127
267.0983673469388	269.0720634920635	48	127
267.0983673469388	269.94281179138324	74	127
268.05038548752833	268.8514512471655	69	127
268.05038548752833	268.8514512471655	54	127
268.86308390022674	269.0720634920635	50	127
268.86308390022674	269.0720634920635	66	127
269.08367346938775	269.94281179138324	71	127
269.08367346938775	269.94281179138324	55	127
269.08367346938775	270.9877097505669	47	127
269.9544217687075	270.56975056689345	76	127
270.592947845805	270.7787301587302	74	127
270.79031746031745	271.38244897959186	79	127
270.9877097505669	271.1734693877551	50	127
271.1734693877551	271.3940589569161	49	127
271.3940589569161	271.6378684807256	74	127
271.3940589569161	271.6494784580499	50	127
271.6494784580499	272.4157369614513	83	127
271.6494784580499	271.9281179138322	48	127
271.9281179138322	272.183537414966	47	127
272.183537414966	272.43895691609976	45	127
272.43895691609976	272.76403628117913	74	127
272.43895691609976	272.78725623582767	43	127
272.78725623582767	274.6796598639456	48	127
272.78725623582767	273.76249433106574	66	127
272.78725623582767	273.76249433106574	57	127
272.78725623582767	274.9467120181406	74	127
273.77410430839	274.0063038548753	54	127
273.77410430839	274.0063038548753	69	127
274.0063038548753	274.2617006802721	50	127
274.0063038548753	274.2617006802721	66	127
274.2617006802721	274.5055328798186	69	127
274.2617006802721	274.5055328798186	54	127
274.5055328798186	274.6912925170068	66	127
274.5055328798186	274.6912925170068	50	127
274.6912925170068	276.7578684807256	47	127
274.6912925170068	275.62009070294783	71	127
274.6912925170068	275.62009070294783	55	127
274.95832199546487	275.12086167800453	74	127
275.1789115646259	275.3530612244898	74	127
275.43433106575964	275.56204081632654	74	127
275.6433106575964	277.3964172335601	55	127
275.6433106575964	275.87551020408165	76	127
275.6433106575964	277.3964172335601	62	127
275.87551020408165	275.9916099773243	74	127
276.15414965986395	276.31666666666666	74	127
276.37473922902495	276.50244897959186	74	127
276.56049886621315	276.7578684807256	79	127
276.7578684807256	276.9436281179138	50	127
276.7578684807256	276.8855782312925	74	127
276.9436281179138	277.15260770975055	49	127
276.9436281179138	277.082947845805	74	127
277.15260770975055	277.29192743764173	74	127
277.15260770975055	277.41963718820864	50	127
277.41963718820864	278.5806349206349	55	127
277.41963718820864	277.6286167800454	83	127
277.41963718820864	277.6286167800454	48	127
277.41963718820864	278.5806349206349	63	127
277.6286167800454	277.88403628117914	47	127
277.6286167800454	277.8027664399093	75	127
277.88403628117914	278.18589569160997	75	127
277.88403628117914	278.3368253968254	45	127
278.3368253968254	278.5341950113379	75	127
278.3368253968254	278.5922448979592	43	127
278.5922448979592	279.04503401360546	55	127
278.5922448979592	280.171201814059	64	127
278.5922448979592	278.8012244897959	78	127
278.5922448979592	280.171201814059	48	127
278.8012244897959	279.04503401360546	76	127
279.04503401360546	279.5907029478458	56	127
279.04503401360546	279.28884353741495	74	127
279.28884353741495	279.5907029478458	72	127
279.5907029478458	279.8112925170068	71	127
279.5907029478458	280.18281179138324	57	127
279.8112925170068	280.18281179138324	69	127
280.18281179138324	280.9839002267574	49	127
280.18281179138324	280.99551020408165	58	127
280.18281179138324	280.46145124716554	76	127
280.18281179138324	280.9839002267574	67	127
280.5659410430839	280.879410430839	76	127
280.99551020408165	282.3422448979592	67	127
280.99551020408165	282.3422448979592	76	127
280.99551020408165	282.3422448979592	59	127
280.99551020408165	283.2942857142857	50	127
282.3538775510204	283.2942857142857	59	127
282.3538775510204	284.3972335600907	67	127
282.3538775510204	283.2942857142857	62	127
283.31750566893425	286.76566893424035	38	127
283.31750566893425	285.6627210884354	60	127
283.31750566893425	285.6627210884354	57	127
284.44367346938776	284.6178231292517	69	127
284.6178231292517	284.81519274376416	67	127
284.81519274376416	284.90807256235826	66	127
284.90807256235826	285.0009297052154	67	127
285.0009297052154	285.25637188208617	69	127
285.25637188208617	285.34925170068027	71	127
285.34925170068027	285.511768707483	72	127
285.511768707483	285.6859410430839	74	127
285.6859410430839	286.76566893424035	57	127
285.6859410430839	286.13873015873014	76	127
285.6859410430839	286.76566893424035	60	127
286.4638095238095	286.76566893424035	66	127
286.7772789115646	289.25020408163266	43	127
286.7772789115646	288.97156462585036	69	127
287.0094784580499	287.2300680272109	60	127
287.2300680272109	287.4738775510204	59	127
287.4738775510204	287.8570068027211	60	127
287.8570068027211	288.1356462585034	59	127
287.8570068027211	288.97156462585036	54	127
288.1356462585034	288.43750566893425	60	127
288.43750566893425	288.7277551020408	62	127
288.7277551020408	288.9947619047619	60	127
288.9947619047619	290.3182993197279	67	127
288.9947619047619	290.3182993197279	55	127
288.9947619047619	290.3182993197279	59	127
289.25020408163266	289.5172335600907	43	127
289.5172335600907	289.9119501133787	47	127
289.9119501133787	290.3299319727891	50	127
290.3299319727891	290.53891156462583	55	127
290.53891156462583	290.7246485260771	47	127
290.7246485260771	290.9568707482993	50	127
290.9568707482993	291.1774603174603	55	127
291.1774603174603	292.07142857142856	67	127
291.1774603174603	291.3980498866213	59	127
291.3980498866213	291.61863945578233	50	127
291.61863945578233	291.8508163265306	55	127
291.8508163265306	292.0830385487528	59	127
292.0830385487528	292.3152380952381	62	127
292.0830385487528	293.0814739229025	67	127
292.3152380952381	292.5358276643991	55	127
292.5358276643991	292.80285714285714	59	127
292.80285714285714	293.0931065759637	62	127
293.0931065759637	295.8678911564626	71	127
293.0931065759637	295.8678911564626	67	127
293.0931065759637	295.8678911564626	62	127
293.0931065759637	295.8678911564626	65	127
295.87950113378685	296.854716553288	72	127
295.87950113378685	296.854716553288	67	127
295.87950113378685	296.854716553288	60	127
295.87950113378685	296.854716553288	64	127
296.86632653061224	297.81836734693877	74	127
296.86632653061224	297.81836734693877	67	127
296.86632653061224	297.81836734693877	65	127
296.86632653061224	297.81836734693877	59	127
297.82997732426304	298.51496598639454	76	127
297.82997732426304	298.51496598639454	67	127
297.82997732426304	298.51496598639454	64	127
297.82997732426304	298.51496598639454	60	127
298.5265759637188	298.8516553287982	72	127
298.5265759637188	298.8516553287982	67	127
298.5265759637188	298.8516553287982	64	127
298.86326530612246	300.8950113378685	72	127
298.86326530612246	299.76884353741497	67	127
298.86326530612246	300.0126530612245	67	127
298.86326530612246	300.8950113378685	76	127
299.7920634920635	300.8950113378685	55	127
300.0126530612245	300.2912925170068	66	127
300.2912925170068	300.6395691609977	67	127
300.6395691609977	300.90662131519275	66	127
300.90662131519275	302.0095691609977	74	127
300.90662131519275	301.27814058956915	67	127
300.90662131519275	302.0095691609977	71	127
300.90662131519275	302.0095691609977	55	127
301.27814058956915	301.6148299319728	43	127
301.6148299319728	301.82380952380953	47	127
301.82380952380953	302.021179138322	50	127
302.021179138322	302.26498866213154	55	127
302.26498866213154	302.49718820861676	47	127
302.49718820861676	302.7061678004535	50	127
302.7061678004535	302.9383673469388	55	127
302.9383673469388	303.8439455782313	67	127
302.9383673469388	303.20537414965986	59	127
302.9383673469388	303.8439455782313	79	127
303.20537414965986	303.41437641723354	50	127
303.41437641723354	303.63496598639455	55	127
303.63496598639455	303.85555555555555	59	127
303.85555555555555	304.94689342403626	67	127
303.85555555555555	304.0645351473923	62	127
303.85555555555555	304.94689342403626	79	127
304.0645351473923	304.3431746031746	55	127
304.3431746031746	304.6334013605442	59	127
304.6334013605442	304.95850340136053	62	127
304.95850340136053	307.69843537414965	67	127
304.95850340136053	307.69843537414965	83	127
304.95850340136053	307.69843537414965	71	127
304.95850340136053	307.69843537414965	65	127
307.71006802721087	308.685306122449	84	127
307.71006802721087	308.685306122449	72	127
307.71006802721087	308.685306122449	67	127
307.71006802721087	308.685306122449	64	127
308.69691609977326	309.52122448979594	86	127
308.69691609977326	309.52122448979594	74	127
308.69691609977326	309.52122448979594	67	127
308.69691609977326	309.52122448979594	59	127
309.5328117913832	310.5429024943311	88	127
309.5328117913832	310.5429024943311	76	127
309.5328117913832	310.5429024943311	67	127
309.5328117913832	310.86795918367346	60	127
310.55448979591836	310.86795918367346	64	127
310.55448979591836	310.86795918367346	72	127
310.55448979591836	310.86795918367346	84	127
310.8795918367347	311.93609977324263	62	127
310.8795918367347	311.93609977324263	55	127
310.8795918367347	313.2364172335601	89	127
310.8795918367347	313.2364172335601	77	127
312.8532879818594	315.09401360544217	43	127
312.8532879818594	313.84013605442175	55	127
313.24802721088435	313.84013605442175	86	127
313.24802721088435	313.84013605442175	74	127
313.851746031746	314.3625850340136	83	127
313.851746031746	314.3625850340136	71	127
314.37419501133786	314.82698412698414	79	127
314.37419501133786	314.82698412698414	67	127
314.8385941043084	315.3029931972789	80	127
314.8385941043084	315.3029931972789	68	127
315.09401360544217	315.3146031746032	42	127
315.3146031746032	315.6280725623583	43	127
315.3146031746032	315.82544217687075	81	127
315.3146031746032	315.82544217687075	69	127
315.6280725623583	315.837052154195	42	127
315.837052154195	316.08083900226757	43	127
315.837052154195	316.2898185941043	82	127
315.837052154195	316.2898185941043	70	127
316.08083900226757	316.3014512471655	41	127
316.3014512471655	316.54526077097506	40	127
316.3014512471655	316.8122902494331	83	127
316.3014512471655	316.8122902494331	71	127
316.54526077097506	316.83551020408163	38	127
316.83551020408163	321.0615419501134	72	127
316.83551020408163	317.05609977324264	36	127
316.83551020408163	321.0615419501134	64	127
316.83551020408163	319.7496145124717	84	127
317.1721995464853	317.381179138322	36	127
317.381179138322	317.601768707483	40	127
317.601768707483	317.81074829931976	43	127
317.81074829931976	318.0777777777778	48	127
318.0777777777778	318.3331746031746	43	127
318.3331746031746	318.5770068027211	40	127
318.5770068027211	318.77437641723355	36	127
318.77437641723355	322.52437641723355	48	127
318.9833560090703	319.2387755102041	48	127
319.2387755102041	319.49419501133787	52	127
319.49419501133787	319.77283446712016	55	127
319.77283446712016	320.17918367346937	60	127
319.77283446712016	320.81773242630385	79	127
320.17918367346937	320.41138321995464	55	127
320.41138321995464	320.6203628117914	52	127
320.6203628117914	320.8409523809524	48	127
320.8409523809524	324.62580498866214	60	127
320.8409523809524	321.6420408163265	76	127
321.0615419501134	321.25891156462586	60	127
321.25891156462586	321.4678911564626	64	127
321.4678911564626	321.66526077097507	67	127
321.66526077097507	321.8742403628118	72	127
321.66526077097507	322.52437641723355	72	127
321.8742403628118	322.0716099773243	67	127
322.0716099773243	322.30380952380955	64	127
322.30380952380955	322.6288662131519	60	127
322.6288662131519	322.8262358276644	46	127
322.6288662131519	326.43696145124716	76	127
322.6288662131519	325.21791383219954	84	127
322.9191383219955	323.1397052154195	46	127
323.1397052154195	323.3487074829932	52	127
323.3487074829932	323.5460544217687	55	127
323.5460544217687	323.76666666666665	58	127
323.76666666666665	323.94081632653064	55	127
323.94081632653064	324.1381859410431	52	127
324.1381859410431	324.4284353741497	46	127
324.4284353741497	326.16993197278913	58	127
324.62580498866214	324.8231746031746	48	127
324.8231746031746	325.0205442176871	52	127
325.0205442176871	325.2411337868481	55	127
325.2411337868481	325.5081632653061	60	127
325.2411337868481	326.16993197278913	79	127
325.5081632653061	325.7287528344671	55	127
325.7287528344671	325.9609523809524	52	127
325.9609523809524	326.21637188208615	48	127
326.21637188208615	328.2248979591837	46	127
326.21637188208615	327.11034013605445	76	127
326.21637188208615	329.14208616780047	60	127
326.43696145124716	326.6807709750567	60	127
326.6807709750567	326.88975056689344	64	127
326.88975056689344	327.13356009070293	67	127
327.13356009070293	327.3773696145125	72	127
327.13356009070293	328.2248979591837	72	127
327.3773696145125	327.5863492063492	67	127
327.5863492063492	327.98108843537415	64	127
327.98108843537415	328.24809523809523	60	127
328.24809523809523	330.05927437641725	45	127
328.24809523809523	330.05927437641725	84	127
328.4454875283447	328.73573696145127	60	127
328.73573696145127	328.944716553288	65	127
328.944716553288	329.165283446712	69	127
329.165283446712	331.0461224489796	60	127
329.165283446712	329.3510657596372	72	127
329.165283446712	331.0461224489796	48	127
329.3510657596372	329.61809523809524	69	127
329.61809523809524	329.827074829932	65	127
329.827074829932	330.0824716553288	60	127
330.0824716553288	332.5902494331066	86	127
330.0824716553288	332.5902494331066	45	127
330.3843537414966	330.65138321995465	60	127
330.65138321995465	330.83714285714285	65	127
330.83714285714285	331.05773242630386	69	127
331.05773242630386	333.44938775510207	48	127
331.05773242630386	331.2667120181406	72	127
331.05773242630386	333.44938775510207	60	127
331.2667120181406	331.47569160997733	69	127
331.47569160997733	331.9517006802721	65	127
331.9517006802721	332.6134693877551	60	127
332.6134693877551	334.33174603174604	75	127
332.6134693877551	334.33174603174604	44	127
332.6134693877551	334.33174603174604	87	127
332.82244897959185	333.0778684807256	60	127
333.0778684807256	333.2752380952381	72	127
333.2752380952381	333.46097505668934	60	127
333.46097505668934	333.69319727891155	72	127
333.46097505668934	334.33174603174604	54	127
333.69319727891155	333.890566893424	60	127
333.890566893424	334.09954648526076	72	127
334.09954648526076	334.3433560090703	60	127
334.3433560090703	336.45637188208616	88	127
334.3433560090703	335.36503401360545	55	127
334.3433560090703	335.36503401360545	43	127
334.3433560090703	336.2473922902494	76	127
334.6336054421769	334.92385487528344	60	127
334.92385487528344	335.1908843537415	64	127
335.1908843537415	335.388253968254	67	127
335.388253968254	336.2473922902494	55	127
335.388253968254	335.58562358276646	72	127
335.388253968254	336.2473922902494	48	127
335.58562358276646	335.7829931972789	67	127
335.7829931972789	336.0616326530612	64	127
336.0616326530612	336.2590022675737	60	127
336.2590022675737	337.12975056689345	60	127
336.2590022675737	337.12975056689345	52	127
336.45637188208616	336.7349886621315	87	127
336.45637188208616	336.7349886621315	60	127
336.7349886621315	336.94396825396825	64	127
336.7349886621315	336.94396825396825	89	127
336.94396825396825	337.1413378684807	67	127
336.94396825396825	337.1413378684807	88	127
337.1413378684807	337.42	86	127
337.1413378684807	337.42	72	127
337.1413378684807	338.1165986394558	55	127
337.1413378684807	338.1165986394558	64	127
337.42	337.6986394557823	67	127
337.42	337.6986394557823	84	127
337.6986394557823	337.94244897959186	64	127
337.6986394557823	337.94244897959186	83	127
337.94244897959186	338.12820861678006	81	127
337.94244897959186	338.12820861678006	60	127
338.12820861678006	338.3371882086168	79	127
338.12820861678006	339.8697052154195	43	127
338.12820861678006	338.964126984127	65	127
338.3371882086168	338.5577777777778	80	127
338.3371882086168	338.5577777777778	59	127
338.5577777777778	338.76675736961454	62	127
338.5577777777778	338.76675736961454	83	127
338.76675736961454	338.9757369614513	59	127
338.76675736961454	338.9757369614513	81	127
338.9757369614513	339.17310657596374	79	127
338.9757369614513	339.8697052154195	53	127
338.9757369614513	339.17310657596374	62	127
339.17310657596374	339.3820861678005	59	127
339.17310657596374	339.3820861678005	77	127
339.3820861678005	339.6142857142857	62	127
339.3820861678005	339.6142857142857	76	127
339.6142857142857	339.9045124716553	74	127
339.6142857142857	339.9045124716553	59	127
339.9045124716553	340.5663038548753	72	127
339.9045124716553	340.5663038548753	60	127
339.9045124716553	340.5663038548753	52	127
339.9045124716553	340.5663038548753	48	127
343.5500680272109	343.93319727891156	71	127
343.5500680272109	343.93319727891156	62	127
343.5500680272109	343.93319727891156	55	127
343.5500680272109	343.93319727891156	53	127
343.9564172335601	344.33954648526077	71	127
343.9564172335601	344.33954648526077	62	127
343.9564172335601	344.33954648526077	55	127
343.9564172335601	344.33954648526077	53	127
344.3627664399093	344.75750566893424	69	127
344.3627664399093	344.75750566893424	60	127
344.3627664399093	344.75750566893424	55	127
344.3627664399093	344.75750566893424	53	127
344.7807256235828	345.233514739229	67	127
344.7807256235828	345.233514739229	59	127
344.7807256235828	345.233514739229	55	127
344.7807256235828	345.233514739229	53	127
345.25673469387755	345.9997732426304	72	127
345.25673469387755	345.9997732426304	60	127
345.25673469387755	345.9997732426304	55	127
345.25673469387755	345.9997732426304	52	127
348.83260770975056	349.23895691609977	67	127
348.83260770975056	349.23895691609977	55	127
348.83260770975056	349.23895691609977	65	127
348.83260770975056	349.23895691609977	62	127
348.83260770975056	349.23895691609977	47	127
349.2621768707483	349.7149433106576	67	127
349.2621768707483	349.7149433106576	55	127
349.2621768707483	349.7149433106576	65	127
349.2621768707483	349.7149433106576	62	127
349.2621768707483	349.7149433106576	47	127
349.73818594104307	350.2141950113379	60	127
349.73818594104307	350.2141950113379	67	127
349.73818594104307	350.2141950113379	55	127
349.73818594104307	350.2141950113379	65	127
349.73818594104307	350.2141950113379	45	127
350.2374149659864	350.78308390022676	67	127
350.2374149659864	350.78308390022676	55	127
350.2374149659864	350.78308390022676	65	127
350.2374149659864	350.78308390022676	59	127
350.2374149659864	350.78308390022676	43	127
350.8063038548753	351.68866213151927	67	127
350.8063038548753	351.68866213151927	55	127
350.8063038548753	351.68866213151927	64	127
350.8063038548753	351.68866213151927	60	127
350.8063038548753	351.68866213151927	48	127
352.6639002267574	353.04702947845806	60	127
353.0702494331066	353.51142857142855	60	127
353.55786848072563	353.9758276643991	58	127
354.0106349206349	354.42861678004533	56	127
354.46344671201814	354.90462585034015	65	127
354.46344671201814	354.90462585034015	60	127
354.46344671201814	354.90462585034015	56	127
354.46344671201814	354.90462585034015	48	127
354.9278231292517	355.40385487528346	65	127
354.9278231292517	355.40385487528346	60	127
354.9278231292517	355.40385487528346	56	127
354.9278231292517	355.40385487528346	48	127
355.4502947845805	355.96113378684805	67	127
355.4502947845805	355.96113378684805	64	127
355.4502947845805	355.96113378684805	55	127
355.4502947845805	355.96113378684805	48	127
356.0191836734694	356.6461224489796	68	127
356.0191836734694	356.6461224489796	65	127
356.0191836734694	356.6461224489796	53	127
356.0191836734694	356.6461224489796	48	127
356.68095238095236	357.5168707482993	67	127
356.68095238095236	357.5168707482993	64	127
356.68095238095236	357.5168707482993	60	127
356.68095238095236	357.5168707482993	48	127
359.11902494331065	359.5602267573696	48	127
359.61827664399095	360.0362358276644	48	127
360.0942857142857	360.70961451247166	46	127
360.75603174603174	361.22045351473923	44	127
361.2436734693878	361.7661224489796	60	127
361.2436734693878	361.7661224489796	53	127
361.2436734693878	361.7661224489796	44	127
361.7893424036281	362.2421315192744	60	127
361.7893424036281	362.2421315192744	53	127
361.7893424036281	362.2421315192744	44	127
362.25374149659865	362.7297505668934	60	127
362.25374149659865	362.7297505668934	55	127
362.25374149659865	362.7297505668934	52	127
362.25374149659865	362.7297505668934	43	127
362.75297052154195	363.3682993197279	60	127
362.75297052154195	363.3682993197279	56	127
362.75297052154195	363.3682993197279	53	127
362.75297052154195	363.3682993197279	41	127
363.39151927437644	364.1345351473923	60	127
363.39151927437644	364.1345351473923	55	127
363.39151927437644	364.1345351473923	52	127
363.39151927437644	364.1345351473923	48	127
367.6407709750567	369.4983673469388	60	127
367.6407709750567	369.4983673469388	55	127
367.6407709750567	369.4983673469388	52	127
367.6407709750567	369.4983673469388	36	127
369.5215873015873	369.8002267573696	60	127
369.5215873015873	369.8002267573696	55	127
369.5215873015873	369.8002267573696	52	127
369.5215873015873	369.8002267573696	36	127
369.82344671201815	373.87532879818593	60	127
369.82344671201815	373.87532879818593	55	127
369.82344671201815	373.87532879818593	52	127
369.82344671201815	373.87532879818593	36	127
377.85755102040815	377.9620408163265	60	127
