# onset,offset,note,velocity
0.6145578231292517	0.8583673469387755	50	127
0.6145578231292517	0.8583673469387755	67	127
0.6145578231292517	0.8583673469387755	55	127
1.0673469387755101	1.2531065759637188	55	127
1.4040362811791383	1.938095238095238	59	127
1.9497052154195011	2.0425850340136056	57	127
2.0541950113378684	2.135442176870748	55	127
2.147074829931973	2.25156462585034	54	127
2.2980045351473923	2.437301587301587	55	127
2.4837641723356008	2.6346938775510202	57	127
2.715963718820862	2.855283446712018	59	127
2.9017233560090703	3.110702947845805	60	127
3.6099319727891155	3.784081632653061	59	127
3.6099319727891155	3.784081632653061	55	127
3.6099319727891155	3.784081632653061	62	127
3.6099319727891155	3.784081632653061	59	127
3.9582312925170067	4.155600907029479	55	127
3.9582312925170067	4.155600907029479	62	127
3.9582312925170067	4.155600907029479	59	127
3.9582312925170067	4.155600907029479	67	127
4.35297052154195	4.88702947845805	52	127
4.35297052154195	4.88702947845805	55	127
4.35297052154195	4.88702947845805	71	127
4.35297052154195	4.88702947845805	67	127
4.88702947845805	4.968299319727891	57	127
4.88702947845805	4.968299319727891	69	127
4.88702947845805	4.968299319727891	66	127
4.88702947845805	4.968299319727891	54	127
4.968299319727891	5.061179138321996	67	127
4.968299319727891	5.061179138321996	55	127
4.968299319727891	5.061179138321996	64	127
4.968299319727891	5.061179138321996	59	127
5.061179138321996	5.2004761904761905	57	127
5.061179138321996	5.2004761904761905	66	127
5.061179138321996	5.2004761904761905	62	127
5.061179138321996	5.2004761904761905	57	127
5.246916099773243	5.374625850340136	69	127
5.246916099773243	5.374625850340136	54	127
5.246916099773243	5.374625850340136	45	127
5.246916099773243	5.374625850340136	62	127
5.409478458049887	5.548775510204082	67	127
5.409478458049887	5.548775510204082	52	127
5.409478458049887	5.548775510204082	61	127
5.409478458049887	5.548775510204082	45	127
5.606848072562358	5.746167800453515	45	127
5.606848072562358	5.746167800453515	64	127
5.606848072562358	5.746167800453515	61	127
5.606848072562358	5.746167800453515	55	127
5.80421768707483	5.955147392290249	62	127
5.80421768707483	5.955147392290249	54	127
5.80421768707483	5.955147392290249	50	127
6.512426303854875	6.686575963718821	50	127
6.895555555555555	7.058095238095238	57	127
7.301904761904762	7.835963718820862	60	127
7.847573696145124	7.940453514739229	59	127
7.940453514739229	8.02172335600907	57	127
8.02172335600907	8.172630385487528	55	127
8.219092970521542	8.346802721088435	56	127
8.393219954648526	8.486122448979591	57	127
8.532562358276644	8.660272108843538	58	127
8.718321995464853	8.927301587301587	59	127
9.484580498866213	9.670340136054422	69	127
9.484580498866213	9.670340136054422	59	127
9.484580498866213	9.670340136054422	66	127
9.484580498866213	9.670340136054422	75	127
9.856099773242631	10.041836734693877	59	127
9.856099773242631	10.041836734693877	69	127
9.856099773242631	10.041836734693877	78	127
9.856099773242631	10.041836734693877	75	127
10.239229024943311	10.796507936507936	72	127
10.239229024943311	10.796507936507936	59	127
10.239229024943311	10.796507936507936	81	127
10.239229024943311	10.796507936507936	75	127
10.796507936507936	10.877777777777778	79	127
10.796507936507936	10.877777777777778	71	127
10.796507936507936	10.959047619047618	75	127
10.796507936507936	10.959047619047618	59	127
10.877777777777778	10.959047619047618	78	127
10.877777777777778	10.959047619047618	69	127
10.959047619047618	11.063537414965987	67	127
10.959047619047618	11.063537414965987	76	127
10.959047619047618	11.063537414965987	64	127
10.959047619047618	11.063537414965987	71	127
11.086757369614512	11.202857142857143	64	127
11.086757369614512	11.202857142857143	67	127
11.086757369614512	11.202857142857143	79	127
11.086757369614512	11.202857142857143	71	127
11.260907029478458	11.400226757369614	69	127
11.260907029478458	11.400226757369614	59	127
11.260907029478458	11.400226757369614	72	127
11.260907029478458	11.400226757369614	78	127
11.446666666666667	11.597573696145124	71	127
11.446666666666667	11.597573696145124	69	127
11.446666666666667	11.597573696145124	59	127
11.446666666666667	11.597573696145124	75	127
11.644036281179138	11.818163265306122	52	127
11.644036281179138	11.818163265306122	76	127
11.644036281179138	11.818163265306122	71	127
11.644036281179138	11.818163265306122	67	127
12.445124716553288	13.211383219954648	65	127
12.445124716553288	12.816643990929705	77	127
12.445124716553288	13.211383219954648	55	127
12.445124716553288	13.211383219954648	62	127
12.816643990929705	12.90952380952381	76	127
12.921133786848072	13.014013605442177	74	127
13.014013605442177	13.106893424036281	72	127
13.118503401360543	13.211383219954648	71	127
13.211383219954648	13.594512471655328	64	127
13.211383219954648	13.594512471655328	48	127
13.211383219954648	13.269433106575963	74	127
13.211383219954648	13.594512471655328	60	127
13.269433106575963	13.315873015873017	72	127
13.315873015873017	13.420362811791383	71	127
13.420362811791383	13.513242630385488	72	127
13.513242630385488	13.594512471655328	74	127
13.594512471655328	13.780272108843537	76	127
13.931201814058957	14.813560090702948	50	127
13.931201814058957	14.813560090702948	57	127
13.931201814058957	14.813560090702948	66	127
13.931201814058957	14.418820861678004	84	127
14.430430839002268	14.534920634920635	81	127
14.534920634920635	14.604580498866213	78	127
14.604580498866213	14.767120181405895	74	127
14.82517006802721	14.964489795918368	74	127
14.82517006802721	14.964489795918368	54	127
14.82517006802721	14.964489795918368	48	127
14.82517006802721	14.964489795918368	57	127
15.022539682539682	15.150249433106575	55	127
15.022539682539682	15.150249433106575	47	127
15.022539682539682	15.150249433106575	74	127
15.022539682539682	15.150249433106575	59	127
15.196689342403628	15.336009070294784	60	127
15.196689342403628	15.336009070294784	74	127
15.196689342403628	15.336009070294784	57	127
15.196689342403628	15.336009070294784	45	127
15.382448979591837	15.579818594104308	74	127
15.382448979591837	15.533378684807257	43	127
15.382448979591837	15.533378684807257	59	127
15.382448979591837	15.579818594104308	62	127
15.579818594104308	15.719138321995464	55	127
15.579818594104308	15.719138321995464	59	127
15.765578231292517	15.951337868480726	79	127
15.765578231292517	15.904897959183673	59	127
15.765578231292517	15.904897959183673	55	127
15.765578231292517	15.951337868480726	67	127
15.962947845804988	16.090657596371884	59	127
15.962947845804988	16.090657596371884	55	127
16.171927437641724	16.717573696145124	71	127
16.171927437641724	16.717573696145124	83	127
16.171927437641724	16.322857142857142	55	127
16.171927437641724	16.322857142857142	59	127
16.369297052154195	16.50861678004535	59	127
16.369297052154195	16.50861678004535	55	127
16.555056689342404	16.671156462585035	59	127
16.555056689342404	16.671156462585035	55	127
16.717573696145124	16.79886621315193	69	127
16.717573696145124	16.79886621315193	81	127
16.717573696145124	16.845283446712017	55	127
16.717573696145124	16.845283446712017	59	127
16.79886621315193	16.89174603174603	67	127
16.79886621315193	16.89174603174603	79	127
16.89174603174603	17.031043083900226	66	127
16.89174603174603	17.031043083900226	60	127
16.89174603174603	17.031043083900226	78	127
16.89174603174603	17.031043083900226	57	127
17.07750566893424	17.216825396825396	67	127
17.07750566893424	17.216825396825396	60	127
17.07750566893424	17.216825396825396	57	127
17.07750566893424	17.216825396825396	79	127
17.27487528344671	17.390975056689342	60	127
17.27487528344671	17.390975056689342	69	127
17.27487528344671	17.390975056689342	81	127
17.27487528344671	17.390975056689342	57	127
17.437414965986395	17.57673469387755	57	127
17.437414965986395	17.57673469387755	60	127
17.437414965986395	17.57673469387755	71	127
17.437414965986395	17.57673469387755	83	127
17.623174603174604	17.808934240362813	72	127
17.623174603174604	17.76249433106576	60	127
17.623174603174604	17.76249433106576	57	127
17.623174603174604	17.808934240362813	84	127
17.808934240362813	17.94825396825397	55	127
17.808934240362813	17.94825396825397	59	127
17.994693877551022	18.122403628117915	57	127
17.994693877551022	18.122403628117915	54	127
18.157233560090702	18.26172335600907	55	127
18.157233560090702	18.26172335600907	52	127
18.308163265306124	18.470702947845805	62	127
18.308163265306124	18.42426303854875	54	127
18.308163265306124	18.42426303854875	50	127
18.308163265306124	18.470702947845805	74	127
18.49390022675737	18.61002267573696	50	127
18.49390022675737	18.61002267573696	54	127
18.668072562358276	18.819002267573698	50	127
18.668072562358276	18.819002267573698	54	127
18.668072562358276	18.865442176870747	81	127
18.668072562358276	18.865442176870747	69	127
18.865442176870747	19.004761904761907	54	127
18.865442176870747	19.004761904761907	50	127
19.051201814058956	19.59687074829932	72	127
19.051201814058956	19.19049886621315	50	127
19.051201814058956	19.59687074829932	84	127
19.051201814058956	19.19049886621315	54	127
19.236961451247165	19.37628117913832	54	127
19.236961451247165	19.37628117913832	50	127
19.422721088435374	19.550430839002267	50	127
19.422721088435374	19.550430839002267	54	127
19.608480725623583	19.736190476190476	48	127
19.608480725623583	19.689750566893423	83	127
19.608480725623583	19.689750566893423	71	127
19.608480725623583	19.736190476190476	62	127
19.701337868480724	19.78263038548753	81	127
19.701337868480724	19.78263038548753	69	127
19.79424036281179	19.89873015873016	47	127
19.79424036281179	19.89873015873016	62	127
19.79424036281179	19.89873015873016	74	127
19.79424036281179	19.89873015873016	86	127
19.94517006802721	20.06126984126984	67	127
19.94517006802721	20.06126984126984	52	127
19.94517006802721	20.06126984126984	83	127
19.94517006802721	20.06126984126984	71	127
20.107709750566894	20.235419501133787	72	127
20.107709750566894	20.235419501133787	64	127
20.107709750566894	20.235419501133787	84	127
20.107709750566894	20.235419501133787	48	127
20.270226757369613	20.409569160997734	66	127
20.270226757369613	20.409569160997734	81	127
20.270226757369613	20.409569160997734	69	127
20.270226757369613	20.409569160997734	50	127
20.46761904761905	20.606938775510205	79	127
20.46761904761905	20.8275283446712	67	127
20.46761904761905	20.8275283446712	59	127
20.46761904761905	20.8275283446712	43	127
20.653356009070293	20.7346485260771	83	127
20.74625850340136	20.8275283446712	79	127
20.839115646258502	21.349954648526076	74	127
21.01328798185941	21.175827664399094	71	127
21.01328798185941	21.175827664399094	67	127
21.175827664399094	21.535714285714285	66	127
21.175827664399094	21.535714285714285	72	127
21.349954648526076	21.442857142857143	74	127
21.442857142857143	21.535714285714285	73	127
21.535714285714285	22.034965986394557	74	127
21.69827664399093	21.88403628117914	66	127
21.69827664399093	21.88403628117914	72	127
21.8956462585034	21.988526077097507	67	127
21.8956462585034	21.988526077097507	71	127
22.046553287981858	22.16267573696145	71	127
22.046553287981858	22.16267573696145	65	127
22.046553287981858	22.1162358276644	74	127
22.127845804988663	22.220725623582766	76	127
22.220725623582766	22.36002267573696	72	127
22.220725623582766	22.36002267573696	67	127
22.220725623582766	22.36002267573696	64	127
22.406485260770975	22.487732426303854	72	127
22.406485260770975	22.534195011337868	66	127
22.406485260770975	22.534195011337868	69	127
22.487732426303854	22.58063492063492	74	127
22.58063492063492	22.719954648526077	67	127
22.58063492063492	22.719954648526077	71	127
22.754784580498868	22.859274376417233	64	127
22.754784580498868	22.836054421768708	71	127
22.754784580498868	22.859274376417233	67	127
22.836054421768708	22.905714285714286	72	127
22.905714285714286	23.04503401360544	60	127
22.905714285714286	23.04503401360544	64	127
22.905714285714286	23.04503401360544	69	127
23.103083900226757	23.23079365079365	62	127
23.103083900226757	23.23079365079365	66	127
23.103083900226757	23.184331065759636	69	127
23.195963718820863	23.277233560090703	71	127
23.288843537414966	23.64875283446712	43	127
23.288843537414966	23.474603174603175	67	127
23.288843537414966	23.64875283446712	59	127
23.288843537414966	23.64875283446712	55	127
23.474603174603175	23.555873015873015	71	127
23.555873015873015	23.64875283446712	67	127
23.64875283446712	24.159591836734695	62	127
23.79968253968254	23.99705215419501	55	127
23.79968253968254	23.99705215419501	55	127
23.79968253968254	23.99705215419501	59	127
23.99705215419501	24.345351473922904	60	127
23.99705215419501	24.345351473922904	57	127
23.99705215419501	24.345351473922904	54	127
24.159591836734695	24.26408163265306	62	127
24.26408163265306	24.356961451247166	61	127
24.356961451247166	24.914240362811793	62	127
24.542721088435375	24.728480725623584	57	127
24.542721088435375	24.728480725623584	60	127
24.542721088435375	24.728480725623584	54	127
24.728480725623584	24.914240362811793	55	127
24.728480725623584	24.914240362811793	43	127
24.728480725623584	24.914240362811793	59	127
24.914240362811793	25.05356009070295	62	127
24.914240362811793	25.05356009070295	59	127
24.914240362811793	25.05356009070295	55	127
24.914240362811793	24.98390022675737	62	127
24.98390022675737	25.05356009070295	60	127
25.05356009070295	25.239319727891157	62	127
25.05356009070295	25.239319727891157	55	127
25.05356009070295	25.14643990929705	59	127
25.05356009070295	25.239319727891157	59	127
25.14643990929705	25.239319727891157	60	127
25.239319727891157	25.33219954648526	59	127
25.239319727891157	25.425079365079366	62	127
25.239319727891157	25.425079365079366	59	127
25.239319727891157	25.425079365079366	55	127
25.33219954648526	25.425079365079366	57	127
25.43668934240363	25.564399092970522	55	127
25.43668934240363	25.610839002267575	59	127
25.43668934240363	25.610839002267575	40	127
25.43668934240363	25.610839002267575	67	127
25.622448979591837	25.796598639455784	52	127
25.622448979591837	25.71532879818594	67	127
25.622448979591837	25.796598639455784	67	127
25.622448979591837	25.796598639455784	59	127
25.71532879818594	25.81981859410431	66	127
25.81981859410431	26.005578231292517	57	127
25.81981859410431	25.924308390022677	67	127
25.81981859410431	26.005578231292517	52	127
25.81981859410431	26.005578231292517	67	127
25.924308390022677	26.005578231292517	69	127
26.005578231292517	26.191337868480726	67	127
26.005578231292517	26.191337868480726	57	127
26.005578231292517	26.191337868480726	52	127
26.005578231292517	26.09845804988662	71	127
26.09845804988662	26.191337868480726	73	127
26.191337868480726	26.66734693877551	66	127
26.191337868480726	26.66734693877551	57	127
26.191337868480726	26.388707482993198	74	127
26.191337868480726	26.66734693877551	50	127
26.4815873015873	26.574467120181406	74	127
26.574467120181406	26.66734693877551	73	127
26.66734693877551	26.771836734693878	74	127
26.771836734693878	26.876326530612246	76	127
26.876326530612246	26.96920634920635	78	127
26.96920634920635	27.05047619047619	74	127
27.062086167800455	27.131746031746033	79	127
27.16657596371882	27.224625850340136	79	127
27.224625850340136	27.294285714285714	78	127
27.294285714285714	27.35233560090703	79	127
27.35233560090703	27.421995464852607	81	127
27.421995464852607	27.514875283446713	83	127
27.514875283446713	27.596145124716553	85	127
27.596145124716553	27.689024943310656	86	127
27.596145124716553	27.874784580498865	38	127
27.689024943310656	27.874784580498865	62	127
27.689024943310656	27.874784580498865	65	127
27.689024943310656	27.874784580498865	57	127
27.88639455782313	28.072154195011336	62	127
27.88639455782313	28.072154195011336	57	127
27.88639455782313	28.072154195011336	65	127
27.88639455782313	28.292743764172336	50	127
28.095374149659865	28.292743764172336	65	127
28.095374149659865	28.292743764172336	57	127
28.095374149659865	28.292743764172336	62	127
28.292743764172336	28.8384126984127	53	127
28.292743764172336	28.478503401360545	65	127
28.292743764172336	28.478503401360545	62	127
28.292743764172336	28.478503401360545	57	127
28.478503401360545	28.664263038548754	62	127
28.478503401360545	28.664263038548754	65	127
28.478503401360545	28.664263038548754	57	127
28.664263038548754	28.8384126984127	65	127
28.664263038548754	28.8384126984127	62	127
28.664263038548754	28.8384126984127	57	127
28.8384126984127	29.024172335600905	65	127
28.8384126984127	29.024172335600905	57	127
28.8384126984127	29.024172335600905	62	127
28.8384126984127	28.931292517006803	52	127
28.931292517006803	29.024172335600905	50	127
29.047392290249434	29.976190476190474	81	127
29.047392290249434	29.22154195011338	64	127
29.047392290249434	29.175102040816327	49	127
29.047392290249434	29.22154195011338	57	127
29.047392290249434	29.22154195011338	67	127
29.233151927437643	29.360861678004536	50	127
29.233151927437643	29.40730158730159	64	127
29.233151927437643	29.40730158730159	67	127
29.233151927437643	29.40730158730159	57	127
29.41891156462585	29.60467120181406	64	127
29.41891156462585	29.558231292517007	52	127
29.41891156462585	29.60467120181406	57	127
29.41891156462585	29.60467120181406	67	127
29.60467120181406	29.743990929705216	53	127
29.60467120181406	29.79043083900227	64	127
29.60467120181406	29.79043083900227	57	127
29.60467120181406	29.79043083900227	67	127
29.79043083900227	29.976190476190474	67	127
29.79043083900227	29.976190476190474	57	127
29.79043083900227	29.976190476190474	64	127
29.79043083900227	29.976190476190474	55	127
29.976190476190474	30.161950113378683	67	127
29.976190476190474	30.161950113378683	64	127
29.976190476190474	30.161950113378683	57	127
29.976190476190474	30.161950113378683	82	127
30.161950113378683	30.347709750566892	81	127
30.161950113378683	30.347709750566892	64	127
30.161950113378683	30.347709750566892	67	127
30.161950113378683	30.347709750566892	57	127
30.347709750566892	30.510249433106576	67	127
30.347709750566892	30.510249433106576	64	127
30.347709750566892	30.510249433106576	82	127
30.347709750566892	30.510249433106576	57	127
30.52185941043084	30.707619047619048	61	127
30.52185941043084	30.893378684807256	45	127
30.52185941043084	30.707619047619048	64	127
30.52185941043084	30.707619047619048	57	127
30.52185941043084	30.707619047619048	81	127
30.707619047619048	30.893378684807256	64	127
30.707619047619048	30.893378684807256	57	127
30.707619047619048	30.893378684807256	61	127
30.893378684807256	31.079138321995465	64	127
30.893378684807256	31.079138321995465	57	127
30.893378684807256	31.264897959183674	52	127
30.893378684807256	31.079138321995465	61	127
31.079138321995465	31.264897959183674	61	127
31.079138321995465	31.264897959183674	64	127
31.079138321995465	31.264897959183674	57	127
31.264897959183674	31.450657596371883	61	127
31.264897959183674	31.450657596371883	64	127
31.264897959183674	31.8221768707483	55	127
31.264897959183674	31.450657596371883	57	127
31.450657596371883	31.636417233560092	64	127
31.450657596371883	31.636417233560092	57	127
31.450657596371883	31.636417233560092	61	127
31.648027210884354	31.8221768707483	57	127
31.648027210884354	31.8221768707483	61	127
31.648027210884354	31.8221768707483	64	127
31.833786848072563	32.007936507936506	61	127
31.833786848072563	32.007936507936506	57	127
31.833786848072563	31.926666666666666	53	127
31.833786848072563	32.007936507936506	64	127
31.926666666666666	32.007936507936506	52	127
32.007936507936506	32.8902947845805	86	127
32.007936507936506	32.170476190476194	62	127
32.007936507936506	32.1356462585034	50	127
32.007936507936506	32.170476190476194	65	127
32.007936507936506	32.170476190476194	57	127
32.170476190476194	32.28655328798186	52	127
32.170476190476194	32.333015873015874	65	127
32.170476190476194	32.333015873015874	62	127
32.333015873015874	32.50716553287982	62	127
32.333015873015874	32.46072562358277	53	127
32.333015873015874	32.50716553287982	65	127
32.50716553287982	32.70453514739229	62	127
32.50716553287982	32.64648526077097	55	127
32.50716553287982	32.70453514739229	65	127
32.716145124716554	32.8902947845805	62	127
32.716145124716554	32.8902947845805	57	127
32.716145124716554	32.8902947845805	65	127
32.90190476190476	33.07605442176871	62	127
32.90190476190476	33.07605442176871	65	127
32.90190476190476	33.07605442176871	85	127
33.08766439909297	33.27342403628118	62	127
33.08766439909297	33.27342403628118	65	127
33.08766439909297	33.27342403628118	86	127
33.27342403628118	33.435963718820865	85	127
33.27342403628118	33.435963718820865	65	127
33.27342403628118	33.435963718820865	62	127
33.435963718820865	33.57528344671202	65	127
33.435963718820865	33.54045351473923	46	127
33.435963718820865	33.57528344671202	62	127
33.435963718820865	33.57528344671202	86	127
33.57528344671202	33.761043083900226	62	127
33.57528344671202	33.761043083900226	65	127
33.57528344671202	33.71460317460318	48	127
33.761043083900226	33.90036281179138	50	127
33.761043083900226	33.94680272108844	62	127
33.761043083900226	33.94680272108844	65	127
33.761043083900226	34.32993197278912	89	127
33.9584126984127	34.086122448979594	51	127
33.9584126984127	34.132562358276644	62	127
33.9584126984127	34.132562358276644	65	127
34.144172335600906	34.32993197278912	65	127
34.144172335600906	34.32993197278912	53	127
34.144172335600906	34.32993197278912	62	127
34.32993197278912	34.515691609977324	88	127
34.32993197278912	34.515691609977324	62	127
34.32993197278912	34.515691609977324	65	127
34.515691609977324	34.70142857142857	62	127
34.515691609977324	34.70142857142857	65	127
34.515691609977324	34.70142857142857	89	127
34.70142857142857	34.8175283446712	88	127
34.70142857142857	34.8175283446712	65	127
34.70142857142857	34.8175283446712	62	127
34.8175283446712	34.93365079365079	44	127
34.8175283446712	34.98009070294785	62	127
34.8175283446712	35.07294784580499	89	127
34.8175283446712	34.98009070294785	65	127
34.98009070294785	35.119410430839004	45	127
34.98009070294785	35.177460317460316	65	127
34.98009070294785	35.177460317460316	62	127
35.18907029478458	35.32836734693878	47	127
35.18907029478458	35.37482993197279	62	127
35.18907029478458	35.37482993197279	65	127
35.18907029478458	35.76956916099773	77	127
35.38643990929705	35.57219954648526	62	127
35.38643990929705	35.57219954648526	65	127
35.38643990929705	35.52575963718821	49	127
35.57219954648526	35.86244897959184	50	127
35.57219954648526	35.76956916099773	65	127
35.57219954648526	35.76956916099773	62	127
35.76956916099773	35.90888888888889	76	127
35.76956916099773	35.96691609977324	64	127
35.76956916099773	35.96691609977324	61	127
35.96691609977324	36.15269841269841	62	127
35.96691609977324	36.24557823129252	44	127
35.96691609977324	36.15269841269841	65	127
35.96691609977324	36.106258503401364	77	127
36.15269841269841	36.35004535147392	62	127
36.15269841269841	36.35004535147392	65	127
36.15269841269841	36.29201814058957	77	127
36.36167800453515	36.53582766439909	45	127
36.36167800453515	36.53582766439909	61	127
36.36167800453515	36.53582766439909	64	127
36.36167800453515	36.489387755102044	76	127
36.547437641723356	36.67514739229025	69	127
36.73319727891157	37.27886621315193	81	127
36.90734693877551	37.035056689342404	73	127
36.90734693877551	37.035056689342404	69	127
36.90734693877551	37.035056689342404	57	127
37.081496598639454	37.27886621315193	62	127
37.081496598639454	37.27886621315193	45	127
37.081496598639454	37.27886621315193	68	127
37.27886621315193	37.418185941043085	71	127
37.464625850340134	38.03351473922903	83	127
37.66199546485261	37.7897052154195	57	127
37.66199546485261	37.7897052154195	74	127
37.66199546485261	37.7897052154195	68	127
37.847755102040814	38.03351473922903	64	127
37.847755102040814	38.03351473922903	45	127
37.847755102040814	38.03351473922903	67	127
38.03351473922903	38.17283446712018	73	127
38.21927437641723	38.81138321995465	85	127
38.39342403628118	38.55596371882086	76	127
38.39342403628118	38.55596371882086	57	127
38.39342403628118	38.55596371882086	67	127
38.60240362811791	38.81138321995465	66	127
38.60240362811791	38.81138321995465	45	127
38.60240362811791	38.81138321995465	66	127
38.81138321995465	38.97392290249433	74	127
39.03197278911565	39.635668934240364	86	127
39.217732426303854	39.36866213151927	78	127
39.217732426303854	39.36866213151927	57	127
39.217732426303854	39.36866213151927	66	127
39.41510204081633	39.821451247165534	61	127
39.41510204081633	39.821451247165534	67	127
39.41510204081633	39.821451247165534	45	127
39.635668934240364	39.821451247165534	76	127
39.821451247165534	40.03040816326531	88	127
40.03040816326531	40.07687074829932	86	127
40.07687074829932	40.19297052154195	85	127
40.251020408163264	40.28585034013606	83	127
40.33229024943311	40.483219954648526	81	127
40.52963718820862	40.69219954648526	79	127
40.750249433106575	40.88956916099773	62	127
40.750249433106575	40.93600907029479	78	127
40.93600907029479	41.086938775510205	66	127
40.93600907029479	41.307528344671205	78	127
41.133378684807255	41.26108843537415	69	127
41.31913832199547	41.4352380952381	73	127
41.31913832199547	41.59777777777778	78	127
41.4352380952381	41.551315192743765	74	127
41.60938775510204	41.80673469387755	78	127
41.60938775510204	41.76031746031746	73	127
41.80673469387755	41.91124716553288	79	127
41.80673469387755	41.957687074829934	74	127
41.92283446712018	42.004126984126984	78	127
42.015736961451246	42.1550566893424	71	127
42.015736961451246	42.10861678004535	76	127
42.10861678004535	42.20149659863946	78	127
42.20149659863946	42.398866213151926	67	127
42.20149659863946	42.398866213151926	79	127
42.398866213151926	42.573015873015876	76	127
42.58462585034014	42.770385487528344	78	127
42.58462585034014	42.770385487528344	68	127
42.770385487528344	42.96775510204082	74	127
42.96775510204082	43.30444444444444	69	127
42.96775510204082	43.1302947845805	74	127
43.1302947845805	43.30444444444444	73	127
43.31603174603175	43.47859410430839	71	127
43.47859410430839	43.69916099773243	69	127
43.69916099773243	43.83850340136055	66	127
43.69916099773243	43.83850340136055	62	127
43.69916099773243	43.89655328798186	81	127
43.89655328798186	44.04748299319728	69	127
43.89655328798186	44.04748299319728	66	127
43.89655328798186	44.26807256235828	81	127
44.093922902494334	44.23324263038549	69	127
44.093922902494334	44.23324263038549	74	127
44.27968253968254	44.39578231292517	76	127
44.27968253968254	44.581541950113376	81	127
44.27968253968254	44.39578231292517	73	127
44.40739229024943	44.53510204081633	74	127
44.40739229024943	44.53510204081633	78	127
44.59312925170068	44.77891156462585	81	127
44.59312925170068	44.7324716553288	73	127
44.59312925170068	44.7324716553288	76	127
44.77891156462585	44.91823129251701	74	127
44.77891156462585	44.87179138321996	83	127
44.77891156462585	44.91823129251701	78	127
44.88340136054422	44.97625850340136	81	127
44.97625850340136	45.08077097505669	74	127
44.97625850340136	45.08077097505669	71	127
44.97625850340136	45.069160997732425	79	127
45.069160997732425	45.127210884353744	81	127
45.127210884353744	45.27814058956916	83	127
45.127210884353744	45.27814058956916	67	127
45.127210884353744	45.27814058956916	71	127
45.289750566893424	45.38263038548753	71	127
45.289750566893424	45.38263038548753	64	127
45.289750566893424	45.38263038548753	79	127
45.44068027210884	45.58	76	127
45.44068027210884	45.58	67	127
45.44068027210884	45.58	69	127
45.626439909297055	45.76575963718821	64	127
45.626439909297055	45.76575963718821	57	127
45.626439909297055	45.76575963718821	73	127
45.82380952380952	45.986326530612246	66	127
45.82380952380952	45.986326530612246	74	127
45.82380952380952	45.893469387755104	62	127
45.893469387755104	45.986326530612246	66	127
45.986326530612246	46.07922902494331	64	127
46.09083900226757	46.172108843537416	62	127
46.18371882086168	46.26498866213152	61	127
46.26498866213152	46.34625850340136	59	127
46.34625850340136	46.439138321995465	57	127
46.45074829931973	46.56684807256236	55	127
46.56684807256236	46.717777777777776	54	127
46.56684807256236	46.706167800453514	38	127
46.717777777777776	47.07768707482993	54	127
46.717777777777776	46.83387755102041	42	127
46.8802947845805	47.03124716553288	45	127
47.089297052154194	47.21700680272109	49	127
47.089297052154194	47.41437641723356	54	127
47.263446712018144	47.367936507936506	50	127
47.425986394557825	47.55369614512472	49	127
47.425986394557825	47.60013605442177	54	127
47.60013605442177	47.73945578231292	50	127
47.60013605442177	47.693015873015874	55	127
47.704625850340136	47.79750566893424	54	127
47.79750566893424	47.9368253968254	50	127
47.79750566893424	47.89038548752834	52	127
47.89038548752834	47.99487528344671	54	127
47.99487528344671	48.134195011337866	61	127
47.99487528344671	48.36639455782313	52	127
47.99487528344671	48.134195011337866	79	127
47.99487528344671	48.36639455782313	55	127
48.18063492063492	48.33156462585034	76	127
48.18063492063492	48.33156462585034	64	127
48.37800453514739	48.517324263038546	73	127
48.37800453514739	48.517324263038546	67	127
48.5637641723356	48.70308390022676	73	127
48.5637641723356	48.70308390022676	67	127
48.74952380952381	48.8772335600907	76	127
48.74952380952381	48.8772335600907	67	127
48.92367346938776	49.062993197278914	64	127
48.92367346938776	49.062993197278914	67	127
49.121043083900226	49.26036281179138	64	127
49.121043083900226	49.21392290249433	69	127
49.21392290249433	49.30680272108844	67	127
49.30680272108844	49.37646258503401	66	127
49.30680272108844	49.39968253968254	64	127
49.37646258503401	49.457732426303856	67	127
49.457732426303856	49.80603174603175	69	127
49.457732426303856	49.57383219954649	42	127
49.457732426303856	49.62027210884354	57	127
49.457732426303856	49.80603174603175	57	127
49.6318820861678	49.75959183673469	45	127
49.6318820861678	49.98018140589569	57	127
49.80603174603175	49.93374149659864	50	127
49.991791383219955	50.374920634920635	57	127
49.991791383219955	50.13111111111111	52	127
50.17755102040816	50.328480725623585	54	127
50.3865306122449	50.51424036281179	53	127
50.3865306122449	50.56068027210885	57	127
50.56068027210885	50.7	54	127
50.56068027210885	50.653560090702946	59	127
50.66517006802721	50.758049886621315	57	127
50.758049886621315	50.86253968253968	55	127
50.758049886621315	50.90897959183673	52	127
50.86253968253968	50.94380952380953	57	127
50.94380952380953	51.07151927437642	83	127
50.94380952380953	51.303718820861675	59	127
50.94380952380953	51.303718820861675	55	127
50.94380952380953	51.07151927437642	55	127
51.11795918367347	51.257278911564626	79	127
51.11795918367347	51.257278911564626	59	127
51.31532879818594	51.4546485260771	74	127
51.31532879818594	51.4546485260771	62	127
51.50108843537415	51.640408163265306	71	127
51.50108843537415	51.640408163265306	67	127
51.744897959183675	51.88421768707483	71	127
51.744897959183675	51.88421768707483	67	127
51.91904761904762	52.011927437641724	73	127
51.91904761904762	52.05836734693877	67	127
52.011927437641724	52.10480725623583	71	127
52.10480725623583	52.19768707482993	69	127
52.10480725623583	52.23251700680272	67	127
52.19768707482993	52.290566893424035	71	127
52.290566893424035	52.66208616780045	67	127
52.290566893424035	52.41827664399093	73	127
52.290566893424035	52.66208616780045	57	127
52.47632653061225	52.6156462585034	73	127
52.66208616780045	52.76657596371882	74	127
52.66208616780045	53.056825396825396	67	127
52.66208616780045	53.056825396825396	64	127
52.76657596371882	52.87106575963719	73	127
52.87106575963719	52.96394557823129	71	127
52.96394557823129	53.056825396825396	73	127
53.056825396825396	53.498004535147395	57	127
53.056825396825396	53.18453514739229	74	127
53.25419501133787	53.41673469387755	74	127
53.498004535147395	53.84630385487528	66	127
53.498004535147395	53.84630385487528	62	127
53.498004535147395	53.602494331065756	76	127
53.602494331065756	53.69537414965986	74	127
53.69537414965986	53.75342403628118	73	127
53.75342403628118	53.84630385487528	74	127
53.84630385487528	53.974013605442174	76	127
53.84630385487528	54.194603174603174	57	127
54.02045351473923	54.159773242630386	76	127
54.206213151927436	54.50807256235828	61	127
54.206213151927436	54.50807256235828	64	127
54.206213151927436	54.29909297052154	78	127
54.29909297052154	54.39197278911565	76	127
54.39197278911565	54.426802721088436	74	127
54.426802721088436	54.50807256235828	76	127
54.51968253968254	54.960861678004534	57	127
54.51968253968254	54.6590022675737	78	127
54.71705215419501	54.86798185941043	78	127
54.960861678004534	55.05374149659864	79	127
54.960861678004534	55.36721088435374	62	127
54.960861678004534	55.36721088435374	59	127
55.05374149659864	55.15823129251701	78	127
55.15823129251701	55.26272108843538	76	127
55.26272108843538	55.36721088435374	78	127
55.378820861678	55.75034013605442	79	127
55.378820861678	56.16829931972789	45	127
55.378820861678	56.16829931972789	61	127
55.378820861678	56.16829931972789	57	127
55.76195011337869	56.16829931972789	76	127
56.16829931972789	56.92294784580499	73	127
56.16829931972789	56.51659863945578	58	127
56.16829931972789	56.51659863945578	67	127
56.16829931972789	56.51659863945578	46	127
56.51659863945578	56.92294784580499	55	127
56.51659863945578	56.92294784580499	64	127
56.51659863945578	56.92294784580499	43	127
56.92294784580499	57.375736961451246	85	127
56.92294784580499	57.758866213151926	57	127
56.92294784580499	57.758866213151926	61	127
56.92294784580499	57.758866213151926	45	127
57.375736961451246	57.758866213151926	79	127
57.758866213151926	58.13038548752834	67	127
57.758866213151926	58.13038548752834	58	127
57.758866213151926	58.4902947845805	76	127
57.758866213151926	58.13038548752834	46	127
58.141995464852606	58.4902947845805	64	127
58.141995464852606	58.4902947845805	55	127
58.141995464852606	58.4902947845805	43	127
58.50190476190476	59.291383219954646	45	127
58.50190476190476	58.88503401360544	88	127
58.50190476190476	59.291383219954646	61	127
58.50190476190476	59.291383219954646	57	127
58.896643990929704	59.291383219954646	85	127
59.291383219954646	59.674512471655326	67	127
59.291383219954646	59.674512471655326	46	127
59.291383219954646	60.046031746031744	79	127
59.291383219954646	59.674512471655326	58	127
59.674512471655326	60.046031746031744	55	127
59.674512471655326	60.046031746031744	64	127
59.674512471655326	60.046031746031744	43	127
60.046031746031744	60.82390022675737	45	127
60.046031746031744	60.82390022675737	57	127
60.046031746031744	60.44077097505669	91	127
60.046031746031744	60.82390022675737	61	127
60.44077097505669	60.82390022675737	88	127
60.82390022675737	61.18380952380952	58	127
60.82390022675737	61.18380952380952	67	127
60.82390022675737	61.18380952380952	46	127
60.82390022675737	61.59015873015873	85	127
61.195419501133784	61.59015873015873	64	127
61.195419501133784	61.59015873015873	55	127
61.195419501133784	61.59015873015873	43	127
61.59015873015873	62.60022675736961	62	127
61.59015873015873	62.60022675736961	56	127
61.59015873015873	62.60022675736961	59	127
61.59015873015873	61.7875283446712	89	127
61.59015873015873	61.7875283446712	44	127
61.7875283446712	62.019727891156464	47	127
61.7875283446712	62.019727891156464	86	127
62.031337868480726	62.21709750566893	83	127
62.031337868480726	62.21709750566893	50	127
62.21709750566893	62.414467120181406	53	127
62.21709750566893	62.414467120181406	80	127
62.414467120181406	62.60022675736961	77	127
62.414467120181406	62.785986394557824	56	127
62.611836734693874	62.785986394557824	74	127
62.611836734693874	62.97174603174603	62	127
62.611836734693874	62.785986394557824	59	127
62.785986394557824	62.97174603174603	62	127
62.785986394557824	62.97174603174603	71	127
62.97174603174603	63.34326530612245	62	127
62.97174603174603	63.169115646258504	68	127
62.97174603174603	63.169115646258504	65	127
62.97174603174603	63.169115646258504	47	127
63.169115646258504	63.34326530612245	66	127
63.169115646258504	63.34326530612245	45	127
63.169115646258504	63.69156462585034	69	127
63.34326530612245	63.45936507936508	54	127
63.34326530612245	63.505804988662135	45	127
63.34326530612245	63.45936507936508	62	127
63.505804988662135	63.67995464852608	45	127
63.505804988662135	63.65673469387755	54	127
63.505804988662135	63.65673469387755	62	127
63.69156462585034	63.784444444444446	66	127
63.69156462585034	63.830884353741496	54	127
63.69156462585034	63.830884353741496	62	127
63.69156462585034	63.9237641723356	45	127
63.784444444444446	63.9237641723356	62	127
63.9237641723356	63.993424036281176	64	127
63.9237641723356	64.08630385487528	61	127
63.9237641723356	64.08630385487528	55	127
63.9237641723356	64.08630385487528	45	127
63.993424036281176	64.02825396825396	66	127
64.02825396825396	64.08630385487528	64	127
64.08630385487528	64.2372335600907	45	127
64.08630385487528	64.15596371882086	66	127
64.08630385487528	64.2372335600907	61	127
64.08630385487528	64.2372335600907	55	127
64.15596371882086	64.20240362811792	64	127
64.20240362811792	64.2372335600907	66	127
64.2372335600907	64.30687074829932	64	127
64.2372335600907	64.45782312925171	55	127
64.2372335600907	64.45782312925171	45	127
64.2372335600907	64.45782312925171	61	127
64.30687074829932	64.38816326530612	66	127
64.38816326530612	64.46943310657596	64	127
64.46943310657596	64.70163265306122	61	127
64.46943310657596	64.5507029478458	66	127
64.46943310657596	64.70163265306122	55	127
64.46943310657596	64.70163265306122	45	127
64.5507029478458	64.63197278911565	64	127
64.63197278911565	64.70163265306122	66	127
64.70163265306122	65.09637188208617	73	127
64.70163265306122	65.47950113378685	57	127
65.10798185941043	65.47950113378685	67	127
65.49111111111111	66.1992970521542	64	127
65.49111111111111	65.81616780045351	58	127
65.49111111111111	65.81616780045351	67	127
65.82780045351474	66.1992970521542	64	127
65.82780045351474	66.1992970521542	55	127
66.1992970521542	67.0352380952381	57	127
66.1992970521542	66.6056462585034	67	127
66.1992970521542	66.6056462585034	76	127
66.6056462585034	67.0352380952381	73	127
66.6056462585034	67.0352380952381	64	127
67.0352380952381	67.42997732426304	58	127
67.0352380952381	67.42997732426304	67	127
67.0352380952381	67.81310657596372	67	127
67.42997732426304	67.81310657596372	64	127
67.42997732426304	67.81310657596372	55	127
67.81310657596372	68.23106575963719	76	127
67.81310657596372	68.62578231292517	57	127
67.81310657596372	68.23106575963719	79	127
68.24265306122449	68.62578231292517	76	127
68.24265306122449	68.62578231292517	73	127
68.6374149659864	69.46172335600907	73	127
68.6374149659864	69.05537414965987	58	127
68.6374149659864	69.05537414965987	67	127
69.05537414965987	69.46172335600907	55	127
69.05537414965987	69.46172335600907	64	127
69.46172335600907	69.8912925170068	57	127
69.46172335600907	69.68231292517007	79	127
69.69392290249434	69.8912925170068	76	127
69.8912925170068	70.27442176870748	73	127
69.8912925170068	70.07705215419502	58	127
70.08866213151927	70.27442176870748	55	127
70.27442176870748	70.52984126984127	82	127
70.27442176870748	70.72721088435374	52	127
70.54145124716554	70.72721088435374	79	127
70.72721088435374	71.18	58	127
70.72721088435374	71.42380952380952	76	127
70.72721088435374	71.18	55	127
71.18	71.42380952380952	52	127
71.18	71.42380952380952	55	127
71.42380952380952	72.25972789115646	52	127
71.42380952380952	71.66759637188208	55	127
71.42380952380952	72.25972789115646	82	127
71.42380952380952	77.03142857142858	48	127
71.66759637188208	71.87659863945578	60	127
71.88820861678005	72.07396825396826	55	127
72.07396825396826	72.25972789115646	60	127
72.27133786848073	73.04918367346939	53	127
72.27133786848073	72.45709750566894	57	127
72.27133786848073	72.45709750566894	81	127
72.45709750566894	72.65446712018141	60	127
72.45709750566894	72.65446712018141	80	127
72.65446712018141	72.85183673469388	57	127
72.65446712018141	72.85183673469388	81	127
72.85183673469388	73.04918367346939	77	127
72.85183673469388	73.04918367346939	60	127
73.04918367346939	73.81544217687075	55	127
73.04918367346939	73.21174603174603	58	127
73.04918367346939	73.21174603174603	76	127
73.2233560090703	73.4091156462585	60	127
73.4091156462585	73.61809523809524	58	127
73.4091156462585	73.61809523809524	76	127
73.6297052154195	73.81544217687075	60	127
73.81544217687075	74.46562358276644	77	127
73.81544217687075	74.66299319727891	53	127
73.81544217687075	74.04766439909297	57	127
74.05927437641724	74.24503401360545	60	127
74.24503401360545	74.46562358276644	57	127
74.46562358276644	74.66299319727891	60	127
74.46562358276644	74.57011337868481	79	127
74.57011337868481	74.66299319727891	81	127
74.67460317460318	75.40603174603174	82	127
74.67460317460318	74.86036281179139	55	127
74.67460317460318	75.40603174603174	52	127
74.86036281179139	75.04612244897959	60	127
75.05773242630386	75.2318820861678	55	127
75.2318820861678	75.40603174603174	60	127
75.41764172335601	75.60337868480725	57	127
75.41764172335601	75.60337868480725	81	127
75.41764172335601	76.18390022675737	53	127
75.60337868480725	75.8007709750567	80	127
75.60337868480725	75.8007709750567	60	127
75.8007709750567	75.98650793650793	81	127
75.8007709750567	75.98650793650793	57	127
75.98650793650793	76.18390022675737	60	127
75.98650793650793	76.18390022675737	77	127
76.18390022675737	76.36963718820861	58	127
76.18390022675737	77.03142857142858	55	127
76.18390022675737	76.36963718820861	76	127
76.38126984126984	76.59024943310658	60	127
76.59024943310658	76.77600907029479	58	127
76.59024943310658	76.77600907029479	76	127
76.78761904761905	77.03142857142858	60	127
77.03142857142858	77.77446712018141	53	127
77.03142857142858	77.77446712018141	53	127
77.03142857142858	77.60031746031746	77	127
77.03142857142858	77.21718820861678	57	127
77.21718820861678	77.40294784580499	60	127
77.40294784580499	77.60031746031746	57	127
77.60031746031746	77.77446712018141	76	127
77.60031746031746	77.77446712018141	60	127
77.78607709750567	77.94861678004536	60	127
77.78607709750567	77.94861678004536	57	127
77.78607709750567	77.94861678004536	54	127
77.78607709750567	79.17927437641724	75	127
77.94861678004536	78.1343537414966	54	127
77.94861678004536	78.1343537414966	60	127
77.94861678004536	78.1343537414966	57	127
78.14598639455782	78.29691609977324	54	127
78.14598639455782	78.29691609977324	57	127
78.14598639455782	78.29691609977324	60	127
78.29691609977324	78.44784580498866	60	127
78.29691609977324	78.44784580498866	54	127
78.29691609977324	78.44784580498866	57	127
78.45945578231293	78.63360544217687	57	127
78.45945578231293	78.63360544217687	54	127
78.45945578231293	78.63360544217687	60	127
78.63360544217687	78.83097505668934	60	127
78.63360544217687	78.83097505668934	57	127
78.63360544217687	78.83097505668934	54	127
78.83097505668934	78.99351473922903	60	127
78.83097505668934	78.99351473922903	54	127
78.83097505668934	78.99351473922903	57	127
78.99351473922903	79.17927437641724	54	127
78.99351473922903	79.17927437641724	57	127
78.99351473922903	79.17927437641724	60	127
79.17927437641724	79.35342403628118	61	127
79.17927437641724	79.71333333333334	76	127
79.17927437641724	79.35342403628118	57	127
79.17927437641724	79.35342403628118	52	127
79.36503401360544	79.52757369614513	61	127
79.36503401360544	79.52757369614513	52	127
79.36503401360544	79.52757369614513	57	127
79.52757369614513	79.71333333333334	52	127
79.52757369614513	79.71333333333334	57	127
79.52757369614513	79.71333333333334	61	127
79.7249433106576	79.85265306122449	57	127
79.7249433106576	79.85265306122449	52	127
79.7249433106576	79.75977324263039	73	127
79.7249433106576	79.85265306122449	61	127
79.75977324263039	79.85265306122449	69	127
79.85265306122449	80.0384126984127	56	127
79.85265306122449	79.9107029478458	71	127
79.85265306122449	80.0384126984127	52	127
79.85265306122449	80.0384126984127	62	127
79.9107029478458	79.96875283446713	73	127
79.96875283446713	80.0384126984127	71	127
80.0384126984127	80.22417233560091	56	127
80.0384126984127	80.22417233560091	52	127
80.0384126984127	80.22417233560091	62	127
80.0384126984127	80.09646258503402	73	127
80.09646258503402	80.16612244897959	71	127
80.16612244897959	80.22417233560091	73	127
80.22417233560091	80.40990929705215	52	127
80.22417233560091	80.40990929705215	62	127
80.22417233560091	80.29383219954649	71	127
80.22417233560091	80.40990929705215	56	127
80.29383219954649	80.34027210884354	73	127
80.34027210884354	80.40990929705215	71	127
80.40990929705215	80.58408163265307	62	127
80.40990929705215	80.50281179138322	69	127
80.40990929705215	80.58408163265307	56	127
80.40990929705215	80.58408163265307	52	127
80.50281179138322	80.58408163265307	71	127
80.59569160997732	80.64213151927437	73	127
80.59569160997732	80.76984126984127	64	127
80.59569160997732	80.76984126984127	55	127
80.59569160997732	80.76984126984127	45	127
80.64213151927437	80.71179138321996	74	127
80.71179138321996	80.76984126984127	73	127
80.76984126984127	80.83950113378685	74	127
80.76984126984127	80.95560090702948	57	127
80.76984126984127	80.95560090702948	67	127
80.76984126984127	80.95560090702948	64	127
80.83950113378685	80.89755102040816	73	127
80.89755102040816	80.96721088435375	74	127
80.96721088435375	81.02526077097505	73	127
80.96721088435375	81.15297052154195	67	127
80.96721088435375	81.15297052154195	57	127
80.96721088435375	81.15297052154195	64	127
81.02526077097505	81.09492063492064	74	127
81.09492063492064	81.15297052154195	73	127
81.15297052154195	81.33873015873016	67	127
81.15297052154195	81.33873015873016	57	127
81.15297052154195	81.22263038548753	74	127
81.15297052154195	81.33873015873016	64	127
81.22263038548753	81.28068027210884	73	127
81.28068027210884	81.35034013605443	74	127
81.35034013605443	81.52448979591837	64	127
81.35034013605443	81.52448979591837	67	127
81.35034013605443	81.40839002267573	73	127
81.35034013605443	81.52448979591837	58	127
81.40839002267573	81.46643990929705	74	127
81.46643990929705	81.52448979591837	73	127
81.52448979591837	81.57092970521542	74	127
81.52448979591837	81.69863945578231	67	127
81.52448979591837	81.69863945578231	64	127
81.52448979591837	81.69863945578231	58	127
81.57092970521542	81.62897959183674	73	127
81.62897959183674	81.69863945578231	74	127
81.69863945578231	81.87278911564626	58	127
81.69863945578231	81.87278911564626	64	127
81.69863945578231	81.75668934240363	73	127
81.69863945578231	81.87278911564626	67	127
81.75668934240363	81.8263492063492	74	127
81.8263492063492	81.88439909297053	73	127
81.88439909297053	82.05854875283447	58	127
81.88439909297053	81.96566893424037	71	127
81.88439909297053	82.05854875283447	67	127
81.88439909297053	82.05854875283447	64	127
81.97727891156462	82.05854875283447	73	127
82.05854875283447	82.24430839002268	59	127
82.05854875283447	82.24430839002268	62	127
82.05854875283447	82.24430839002268	66	127
82.05854875283447	82.12820861678004	74	127
82.12820861678004	82.18625850340136	76	127
82.18625850340136	82.25591836734694	74	127
82.25591836734694	82.44167800453515	66	127
82.25591836734694	82.44167800453515	62	127
82.25591836734694	82.34879818594105	73	127
82.25591836734694	82.44167800453515	59	127
82.34879818594105	82.44167800453515	74	127
82.44167800453515	82.62743764172336	71	127
82.44167800453515	82.62743764172336	62	127
82.44167800453515	82.62743764172336	56	127
82.44167800453515	82.51133786848072	76	127
82.51133786848072	82.56938775510204	78	127
82.56938775510204	82.63904761904762	76	127
82.63904761904762	82.8015873015873	56	127
82.63904761904762	82.8015873015873	71	127
82.63904761904762	82.8015873015873	62	127
82.63904761904762	82.70868480725623	74	127
82.70868480725623	82.8015873015873	76	127
82.8015873015873	83.0221768707483	69	127
82.8015873015873	83.0221768707483	62	127
82.8015873015873	83.12666666666667	78	127
82.8015873015873	83.0221768707483	57	127
83.0221768707483	83.2195238095238	62	127
83.0221768707483	83.2195238095238	57	127
83.0221768707483	83.2195238095238	69	127
83.2195238095238	83.39369614512472	45	127
83.2195238095238	83.39369614512472	61	127
83.2195238095238	83.4749433106576	76	127
83.2195238095238	83.39369614512472	67	127
83.39369614512472	83.54462585034014	45	127
83.39369614512472	83.54462585034014	61	127
83.39369614512472	83.54462585034014	67	127
83.5562358276644	83.64911564625851	50	127
83.5562358276644	83.84648526077098	62	127
83.5562358276644	83.84648526077098	66	127
83.5562358276644	83.93936507936507	74	127
83.64911564625851	83.74199546485261	52	127
83.74199546485261	83.84648526077098	54	127
83.84648526077098	83.93936507936507	55	127
83.95097505668934	84.22961451247166	62	127
83.95097505668934	84.04385487528344	57	127
83.95097505668934	84.22961451247166	74	127
84.04385487528344	84.13673469387756	55	127
84.13673469387756	84.22961451247166	54	127
84.24120181405895	84.32249433106576	52	127
84.33410430839002	84.89138321995465	78	127
84.33410430839002	84.42698412698412	50	127
84.33410430839002	84.89138321995465	66	127
84.42698412698412	84.51986394557824	52	127
84.51986394557824	84.60111111111111	54	127
84.61274376417234	84.70562358276644	55	127
84.70562358276644	84.79850340136055	57	127
84.79850340136055	84.89138321995465	59	127
84.90299319727892	84.94943310657597	61	127
84.90299319727892	84.94943310657597	64	127
84.90299319727892	84.94943310657597	76	127
84.96104308390022	85.05392290249434	74	127
84.96104308390022	85.05392290249434	62	127
84.96104308390022	85.05392290249434	62	127
85.05392290249434	85.21646258503401	61	127
85.05392290249434	85.21646258503401	50	127
85.05392290249434	85.12358276643991	73	127
85.05392290249434	85.21646258503401	81	127
85.12358276643991	85.21646258503401	74	127
85.22807256235828	85.41383219954649	50	127
85.22807256235828	85.41383219954649	67	127
85.22807256235828	85.32095238095238	76	127
85.32095238095238	85.41383219954649	78	127
85.41383219954649	85.59959183673469	50	127
85.41383219954649	85.59959183673469	88	127
85.41383219954649	85.50671201814059	79	127
85.41383219954649	85.59959183673469	67	127
85.51832199546486	85.59959183673469	78	127
85.61120181405896	85.7853514739229	67	127
85.61120181405896	85.7853514739229	50	127
85.61120181405896	85.6924716553288	76	127
85.6924716553288	85.7853514739229	74	127
85.7853514739229	86.33102040816327	91	127
85.7853514739229	85.97111111111111	67	127
85.7853514739229	85.87820861678004	73	127
85.7853514739229	85.97111111111111	50	127
85.88984126984127	85.97111111111111	74	127
85.97111111111111	86.14526077097506	67	127
85.97111111111111	86.05238095238096	76	127
85.97111111111111	86.14526077097506	50	127
86.05238095238096	86.14526077097506	74	127
86.14526077097506	86.23814058956916	73	127
86.14526077097506	86.33102040816327	67	127
86.14526077097506	86.33102040816327	50	127
86.24975056689343	86.33102040816327	69	127
86.33102040816327	86.42390022675737	71	127
86.33102040816327	86.42390022675737	90	127
86.33102040816327	86.51675736961451	67	127
86.33102040816327	86.51675736961451	50	127
86.42390022675737	86.51675736961451	88	127
86.42390022675737	86.51675736961451	73	127
86.52839002267574	86.70253968253968	66	127
86.52839002267574	86.70253968253968	74	127
86.52839002267574	86.88829931972789	86	127
86.52839002267574	86.62124716553288	50	127
86.62124716553288	86.70253968253968	52	127
86.70253968253968	86.88829931972789	69	127
86.70253968253968	86.88829931972789	57	127
86.70253968253968	86.7954195011338	54	127
86.7954195011338	86.88829931972789	55	127
86.89988662131519	86.99278911564626	57	127
86.89988662131519	87.08566893424036	74	127
86.89988662131519	87.08566893424036	62	127
86.99278911564626	87.08566893424036	55	127
87.08566893424036	87.27142857142857	74	127
87.08566893424036	87.1669387755102	54	127
87.08566893424036	87.27142857142857	62	127
87.17854875283447	87.27142857142857	52	127
87.27142857142857	87.80548752834467	66	127
87.27142857142857	87.36430839002267	50	127
87.27142857142857	87.80548752834467	78	127
87.36430839002267	87.44557823129252	52	127
87.44557823129252	87.53843537414966	54	127
87.53843537414966	87.61972789115646	55	127
87.61972789115646	87.71260770975057	57	127
87.71260770975057	87.80548752834467	59	127
87.81709750566894	87.89834467120181	76	127
87.81709750566894	87.89834467120181	64	127
87.81709750566894	87.89834467120181	61	127
87.90997732426304	87.99124716553288	62	127
87.90997732426304	87.99124716553288	74	127
87.90997732426304	87.99124716553288	62	127
87.99124716553288	88.08412698412698	73	127
87.99124716553288	88.16539682539683	38	127
87.99124716553288	88.16539682539683	81	127
87.99124716553288	88.08412698412698	61	127
88.08412698412698	88.16539682539683	62	127
88.08412698412698	88.16539682539683	74	127
88.1770068027211	88.25827664399092	76	127
88.1770068027211	88.25827664399092	64	127
88.1770068027211	88.33954648526077	81	127
88.1770068027211	88.33954648526077	50	127
88.25827664399092	88.33954648526077	78	127
88.25827664399092	88.33954648526077	66	127
88.33954648526077	88.43242630385488	79	127
88.33954648526077	88.53689342403628	50	127
88.33954648526077	88.43242630385488	67	127
88.33954648526077	88.53689342403628	88	127
88.44403628117914	88.53689342403628	66	127
88.44403628117914	88.53689342403628	78	127
88.5485260770975	88.73428571428572	50	127
88.5485260770975	88.73428571428572	88	127
88.5485260770975	88.6414058956916	76	127
88.5485260770975	88.6414058956916	64	127
88.6414058956916	88.73428571428572	74	127
88.6414058956916	88.73428571428572	62	127
88.73428571428572	88.82716553287982	61	127
88.73428571428572	88.82716553287982	73	127
88.73428571428572	88.92002267573696	50	127
88.73428571428572	89.22190476190477	91	127
88.83877551020409	88.92002267573696	62	127
88.83877551020409	88.92002267573696	74	127
88.92002267573696	88.9897052154195	64	127
88.92002267573696	89.0825850340136	50	127
88.92002267573696	88.9897052154195	76	127
88.9897052154195	89.0825850340136	62	127
88.9897052154195	89.0825850340136	74	127
89.09419501133787	89.15224489795918	73	127
89.09419501133787	89.15224489795918	61	127
89.09419501133787	89.22190476190477	50	127
89.16385487528345	89.22190476190477	69	127
89.16385487528345	89.22190476190477	57	127
89.22190476190477	89.29156462585034	71	127
89.22190476190477	89.29156462585034	59	127
89.22190476190477	89.38444444444444	50	127
89.22190476190477	89.29156462585034	90	127
89.29156462585034	89.38444444444444	73	127
89.29156462585034	89.38444444444444	88	127
89.29156462585034	89.38444444444444	61	127
89.39605442176871	89.55857142857143	74	127
89.39605442176871	89.55857142857143	62	127
89.39605442176871	89.51215419501133	86	127
89.39605442176871	89.55857142857143	38	127
89.55857142857143	89.6514739229025	88	127
89.55857142857143	89.9417006802721	73	127
89.55857142857143	89.9417006802721	67	127
89.55857142857143	89.7443537414966	50	127
89.6514739229025	89.7443537414966	90	127
89.75596371882087	89.89528344671201	91	127
89.75596371882087	89.9417006802721	50	127
89.9417006802721	90.01138321995465	90	127
89.9417006802721	90.10426303854875	50	127
89.9417006802721	90.10426303854875	67	127
89.9417006802721	90.10426303854875	73	127
90.02299319727891	90.10426303854875	88	127
90.10426303854875	90.30160997732426	38	127
90.10426303854875	90.30160997732426	74	127
90.10426303854875	90.30160997732426	66	127
90.10426303854875	90.24358276643991	86	127
90.30160997732426	90.70795918367347	61	127
90.30160997732426	90.4990022675737	50	127
90.30160997732426	90.39451247165533	88	127
90.30160997732426	90.70795918367347	55	127
90.40612244897959	90.4990022675737	90	127
90.4990022675737	90.64993197278912	91	127
90.4990022675737	90.70795918367347	50	127
90.70795918367347	90.85891156462586	50	127
90.70795918367347	90.76603174603174	90	127
90.70795918367347	90.85891156462586	55	127
90.70795918367347	90.85891156462586	61	127
90.76603174603174	90.85891156462586	88	127
90.87052154195011	91.24204081632654	38	127
90.87052154195011	91.05628117913832	86	127
90.87052154195011	91.05628117913832	62	127
90.87052154195011	91.24204081632654	54	127
91.24204081632654	91.439410430839	69	127
91.24204081632654	91.439410430839	81	127
91.63678004535147	92.40303854875283	78	127
91.63678004535147	91.83412698412698	69	127
91.63678004535147	91.83412698412698	57	127
91.63678004535147	92.40303854875283	66	127
92.03151927437642	92.24049886621316	66	127
92.03151927437642	92.24049886621316	54	127
92.40303854875283	92.57718820861678	81	127
92.40303854875283	93.20412698412699	50	127
92.40303854875283	93.20412698412699	62	127
92.40303854875283	92.57718820861678	69	127
92.78616780045351	92.97192743764172	66	127
92.78616780045351	92.97192743764172	78	127
93.21571428571428	93.94716553287982	74	127
93.21571428571428	93.41310657596372	54	127
93.21571428571428	93.94716553287982	62	127
93.21571428571428	93.41310657596372	66	127
93.58725623582767	93.77301587301588	62	127
93.58725623582767	93.77301587301588	50	127
93.94716553287982	94.73664399092971	57	127
93.94716553287982	94.12131519274377	78	127
93.94716553287982	94.12131519274377	66	127
93.94716553287982	94.73664399092971	45	127
94.35351473922903	94.53927437641724	62	127
94.35351473922903	94.53927437641724	74	127
94.748231292517	95.45646258503402	69	127
94.748231292517	94.93401360544217	62	127
94.748231292517	95.45646258503402	57	127
94.748231292517	94.93401360544217	50	127
95.11977324263039	95.3055328798186	57	127
95.11977324263039	95.3055328798186	45	127
95.45646258503402	95.81637188208617	54	127
95.45646258503402	95.81637188208617	42	127
95.45646258503402	95.60739229024944	74	127
95.45646258503402	95.81637188208617	62	127
95.65383219954649	95.76993197278911	69	127
95.82798185941043	96.21111111111111	66	127
95.82798185941043	96.60585034013606	54	127
95.82798185941043	96.60585034013606	57	127
95.82798185941043	95.96730158730159	57	127
96.01374149659864	96.16467120181406	54	127
96.21111111111111	96.3736507936508	69	127
96.21111111111111	96.60585034013606	50	127
96.43170068027212	96.55941043083901	66	127
96.60585034013606	97.39532879818594	54	127
96.60585034013606	96.7451700680272	54	127
96.60585034013606	97.39532879818594	57	127
96.60585034013606	97.000589569161	62	127
96.80321995464853	96.95414965986394	50	127
97.01219954648526	97.16312925170068	66	127
97.01219954648526	97.39532879818594	45	127
97.20956916099773	97.3488888888889	62	127
97.4069387755102	97.7204081632653	57	127
97.4069387755102	97.51142857142857	50	127
97.4069387755102	98.08031746031746	57	127
97.4069387755102	98.08031746031746	54	127
97.54625850340136	97.67396825396825	45	127
97.7204081632653	97.85972789115647	69	127
97.7204081632653	98.08031746031746	42	127
97.91777777777777	98.03387755102041	66	127
98.08031746031746	98.84657596371882	57	127
98.08031746031746	98.84657596371882	54	127
98.08031746031746	98.21963718820862	45	127
98.08031746031746	98.44022675736962	62	127
98.26607709750567	98.39378684807257	42	127
98.45183673469388	98.84657596371882	38	127
98.45183673469388	98.59115646258503	69	127
98.63759637188208	98.80013605442177	66	127
98.84657596371882	99.21809523809524	62	127
98.84657596371882	98.98589569160998	45	127
98.84657596371882	99.58961451247166	54	127
98.84657596371882	99.58961451247166	57	127
99.04394557823129	99.17165532879818	42	127
99.21809523809524	99.3574149659864	69	127
99.21809523809524	99.58961451247166	38	127
99.40385487528344	99.5431746031746	66	127
99.60122448979592	99.96113378684807	62	127
99.60122448979592	100.35587301587302	54	127
99.60122448979592	100.35587301587302	57	127
99.60122448979592	99.74054421768707	45	127
99.77537414965987	99.91469387755102	42	127
99.97274376417234	100.10045351473923	69	127
99.97274376417234	100.75061224489797	38	127
100.15850340136055	100.30943310657597	66	127
100.35587301587302	101.94643990929706	57	127
100.35587301587302	101.52848072562358	62	127
100.35587301587302	101.94643990929706	54	127
100.75061224489797	100.90154195011338	45	127
100.94798185941043	101.09891156462585	42	127
101.1453514739229	102.32956916099774	38	127
101.52848072562358	101.66780045351474	69	127
101.73746031746032	101.88839002267574	66	127
101.94643990929706	103.64149659863945	57	127
101.94643990929706	103.17709750566894	62	127
101.94643990929706	103.64149659863945	54	127
102.34117913832199	102.48049886621315	45	127
102.55015873015873	102.70108843537415	42	127
102.7475283446712	104.05945578231292	38	127
103.1887074829932	103.36285714285714	69	127
103.4092970521542	103.58344671201814	66	127
103.64149659863945	106.20730158730159	57	127
103.64149659863945	106.20730158730159	60	127
103.64149659863945	106.20730158730159	54	127
104.05945578231292	104.22199546485261	45	127
104.28004535147392	104.43097505668935	42	127
104.48902494331065	106.20730158730159	38	127
106.63687074829932	106.82263038548753	55	127
106.63687074829932	106.82263038548753	58	127
106.63687074829932	106.82263038548753	39	127
106.63687074829932	106.82263038548753	55	127
107.00839002267574	107.19414965986394	55	127
107.00839002267574	107.19414965986394	58	127
107.00839002267574	107.19414965986394	63	127
107.00839002267574	107.19414965986394	51	127
107.3682993197279	107.98362811791384	51	127
107.3682993197279	107.98362811791384	67	127
107.3682993197279	107.98362811791384	55	127
107.3682993197279	107.98362811791384	58	127
107.98362811791384	108.19260770975056	58	127
107.98362811791384	108.07650793650794	65	127
107.98362811791384	108.19260770975056	51	127
107.98362811791384	108.19260770975056	55	127
108.07650793650794	108.19260770975056	63	127
108.19260770975056	108.33192743764172	53	127
108.19260770975056	108.33192743764172	62	127
108.19260770975056	108.33192743764172	56	127
108.19260770975056	108.33192743764172	58	127
108.37836734693877	108.51768707482994	55	127
108.37836734693877	108.51768707482994	58	127
108.37836734693877	108.51768707482994	63	127
108.37836734693877	108.51768707482994	51	127
108.57573696145124	108.72666666666667	65	127
108.57573696145124	108.72666666666667	50	127
108.57573696145124	108.72666666666667	53	127
108.57573696145124	108.72666666666667	58	127
108.77310657596372	108.90081632653062	58	127
108.77310657596372	108.90081632653062	51	127
108.77310657596372	108.90081632653062	48	127
108.77310657596372	108.90081632653062	67	127
108.95886621315192	109.13301587301588	58	127
108.95886621315192	109.13301587301588	68	127
108.95886621315192	109.13301587301588	50	127
108.95886621315192	109.13301587301588	46	127
109.71351473922903	109.89927437641724	62	127
109.71351473922903	109.89927437641724	70	127
109.71351473922903	109.89927437641724	58	127
109.71351473922903	109.89927437641724	65	127
110.0966439909297	110.28240362811792	62	127
110.0966439909297	110.28240362811792	58	127
110.0966439909297	110.28240362811792	70	127
110.0966439909297	110.28240362811792	77	127
110.49138321995464	111.08349206349206	80	127
110.49138321995464	111.08349206349206	70	127
110.49138321995464	111.08349206349206	65	127
110.49138321995464	111.08349206349206	58	127
111.08349206349206	111.17637188208617	79	127
111.08349206349206	111.257641723356	70	127
111.08349206349206	111.17637188208617	63	127
111.08349206349206	111.257641723356	56	127
111.17637188208617	111.257641723356	62	127
111.17637188208617	111.257641723356	77	127
111.257641723356	111.40857142857143	67	127
111.257641723356	111.40857142857143	82	127
111.257641723356	111.40857142857143	70	127
111.257641723356	111.40857142857143	55	127
111.45501133786848	111.59433106575963	63	127
111.45501133786848	111.59433106575963	70	127
111.45501133786848	111.59433106575963	60	127
111.45501133786848	111.59433106575963	79	127
111.64077097505668	111.75687074829932	65	127
111.64077097505668	111.75687074829932	80	127
111.64077097505668	111.75687074829932	70	127
111.64077097505668	111.75687074829932	56	127
111.81492063492064	111.88458049886621	68	127
111.81492063492064	111.88458049886621	62	127
111.81492063492064	111.88458049886621	58	127
111.81492063492064	111.88458049886621	77	127
111.91941043083901	112.05873015873016	75	127
111.91941043083901	112.2677097505669	51	127
111.91941043083901	112.2677097505669	63	127
111.91941043083901	112.2677097505669	67	127
112.1051700680272	112.19804988662132	79	127
112.19804988662132	112.2677097505669	75	127
112.2677097505669	112.82498866213152	70	127
112.4534693877551	112.6392290249433	63	127
112.4534693877551	112.6392290249433	67	127
112.65083900226757	112.99913832199546	62	127
112.65083900226757	112.99913832199546	68	127
112.83659863945579	112.92947845804989	70	127
112.92947845804989	112.99913832199546	69	127
112.99913832199546	113.5215873015873	70	127
113.17328798185942	113.35904761904762	62	127
113.17328798185942	113.35904761904762	68	127
113.35904761904762	113.47514739229025	67	127
113.35904761904762	113.47514739229025	63	127
113.5215873015873	113.66090702947845	64	127
113.5215873015873	113.66090702947845	67	127
113.5215873015873	113.6144671201814	70	127
113.6144671201814	113.70734693877552	72	127
113.71895691609977	113.81183673469388	68	127
113.71895691609977	113.81183673469388	65	127
113.71895691609977	113.81183673469388	60	127
113.86988662131519	113.95115646258503	68	127
113.86988662131519	113.99759637188208	65	127
113.86988662131519	113.99759637188208	62	127
113.9627664399093	114.04403628117913	70	127
114.0556462585034	114.19496598639456	63	127
114.0556462585034	114.19496598639456	67	127
114.0556462585034	114.19496598639456	58	127
114.24140589569161	114.33428571428571	67	127
114.24140589569161	114.38072562358276	60	127
114.24140589569161	114.38072562358276	63	127
114.33428571428571	114.42716553287981	68	127
114.42716553287981	114.56648526077097	65	127
114.42716553287981	114.56648526077097	56	127
114.42716553287981	114.56648526077097	63	127
114.61292517006802	114.75224489795919	62	127
114.61292517006802	114.75224489795919	58	127
114.61292517006802	114.70580498866214	65	127
114.70580498866214	114.79868480725624	67	127
114.79868480725624	115.18181405895692	55	127
114.79868480725624	115.18181405895692	51	127
114.79868480725624	114.94961451247165	63	127
115.00766439909297	115.08893424036282	67	127
115.10054421768707	115.18181405895692	63	127
115.19342403628117	115.72748299319728	58	127
115.37918367346938	115.55333333333333	51	127
115.37918367346938	115.55333333333333	55	127
115.37918367346938	115.55333333333333	51	127
115.55333333333333	115.86680272108843	50	127
115.55333333333333	115.86680272108843	53	127
115.55333333333333	115.86680272108843	56	127
115.72748299319728	115.78553287981859	58	127
115.78553287981859	115.86680272108843	57	127
115.86680272108843	116.47052154195012	58	127
116.05256235827665	116.27315192743764	50	127
116.05256235827665	116.27315192743764	53	127
116.05256235827665	116.27315192743764	56	127
116.28476190476191	116.64467120181406	51	127
116.28476190476191	116.64467120181406	55	127
116.28476190476191	116.64467120181406	51	127
116.47052154195012	116.56340136054422	58	127
116.56340136054422	116.64467120181406	57	127
116.64467120181406	117.15551020408164	58	127
116.79560090702948	116.9813605442177	51	127
116.79560090702948	116.9813605442177	58	127
116.79560090702948	116.9813605442177	55	127
116.9813605442177	117.36448979591837	65	127
116.9813605442177	117.36448979591837	49	127
116.9813605442177	117.36448979591837	53	127
117.16712018140589	117.26	58	127
117.26	117.36448979591837	57	127
117.36448979591837	117.51541950113379	58	127
117.56185941043084	117.7940589569161	65	127
117.56185941043084	117.7940589569161	49	127
117.56185941043084	117.7940589569161	53	127
117.56185941043084	117.73600907029478	59	127
117.80566893424036	118.21201814058956	64	127
117.80566893424036	118.21201814058956	55	127
117.80566893424036	117.96820861678005	60	127
117.80566893424036	118.21201814058956	48	127
118.02625850340137	118.13074829931973	60	127
118.13074829931973	118.21201814058956	59	127
118.21201814058956	118.35133786848073	60	127
118.4209977324263	118.5487074829932	62	127
118.4209977324263	118.5487074829932	72	127
118.4209977324263	118.5487074829932	48	127
118.4209977324263	118.5487074829932	53	127
118.60675736961451	118.78090702947846	55	127
118.60675736961451	118.78090702947846	48	127
118.60675736961451	118.7344671201814	63	127
118.60675736961451	118.78090702947846	72	127
118.78090702947846	118.87378684807257	63	127
118.87378684807257	118.96666666666667	62	127
118.96666666666667	119.09437641723356	63	127
119.14081632653061	119.2685260770975	55	127
119.14081632653061	119.2685260770975	64	127
119.14081632653061	119.2685260770975	46	127
119.14081632653061	119.2685260770975	72	127
119.31496598639455	119.50072562358277	44	127
119.31496598639455	119.45428571428572	65	127
119.31496598639455	119.50072562358277	72	127
119.31496598639455	119.50072562358277	56	127
119.51233560090704	119.59360544217687	65	127
119.60521541950114	119.68648526077098	64	127
119.69809523809523	119.82580498866213	65	127
119.88385487528345	120.02317460317461	67	127
119.88385487528345	120.06961451247166	60	127
119.88385487528345	120.06961451247166	60	127
119.88385487528345	120.06961451247166	52	127
120.06961451247166	120.20893424036281	68	127
120.06961451247166	120.42952380952381	65	127
120.06961451247166	120.42952380952381	60	127
120.06961451247166	120.42952380952381	53	127
120.25537414965986	120.3366439909297	68	127
120.3366439909297	120.42952380952381	67	127
120.42952380952381	120.56884353741496	68	127
120.62689342403628	120.7778231292517	51	127
120.62689342403628	120.7778231292517	60	127
120.62689342403628	120.75460317460318	69	127
120.62689342403628	120.7778231292517	65	127
120.78943310657597	121.13773242630386	62	127
120.78943310657597	120.89392290249432	70	127
120.78943310657597	121.13773242630386	50	127
120.78943310657597	121.13773242630386	65	127
120.94036281179139	121.02163265306122	70	127
121.03324263038549	121.13773242630386	69	127
121.13773242630386	121.30027210884354	70	127
121.3467120181406	121.54408163265306	53	127
121.3467120181406	121.49764172335601	71	127
121.3467120181406	121.54408163265306	62	127
121.3467120181406	121.54408163265306	67	127
121.54408163265306	121.92721088435374	51	127
121.54408163265306	121.68340136054422	72	127
121.54408163265306	121.92721088435374	63	127
121.54408163265306	121.92721088435374	67	127
121.74145124716553	121.83433106575964	72	127
121.83433106575964	121.92721088435374	71	127
121.92721088435374	122.0665306122449	72	127
122.12458049886621	122.26390022675737	74	127
122.12458049886621	122.32195011337869	67	127
122.12458049886621	122.32195011337869	65	127
122.12458049886621	122.32195011337869	47	127
122.33356009070295	122.70507936507937	67	127
122.33356009070295	122.70507936507937	48	127
122.33356009070295	122.47287981859411	75	127
122.33356009070295	122.70507936507937	63	127
122.51931972789116	122.61219954648526	75	127
122.61219954648526	122.70507936507937	74	127
122.70507936507937	122.83278911564626	75	127
122.87922902494331	123.04176870748299	72	127
122.87922902494331	123.0069387755102	76	127
122.87922902494331	123.04176870748299	60	127
122.87922902494331	123.04176870748299	46	127
123.04176870748299	123.15786848072563	77	127
123.04176870748299	123.37845804988662	72	127
123.04176870748299	123.37845804988662	45	127
123.04176870748299	123.37845804988662	60	127
123.21591836734694	123.29718820861677	77	127
123.30879818594104	123.37845804988662	76	127
123.39006802721089	123.51777777777778	77	127
123.5758276643991	123.71514739229025	78	127
123.5758276643991	123.7615873015873	44	127
123.5758276643991	123.7615873015873	60	127
123.5758276643991	123.7615873015873	72	127
123.7615873015873	124.00539682539683	71	127
123.7615873015873	123.94734693877551	79	127
123.7615873015873	124.00539682539683	59	127
123.7615873015873	123.94734693877551	43	127
123.94734693877551	124.13310657596372	47	127
123.94734693877551	124.04022675736961	78	127
124.04022675736961	124.13310657596372	79	127
124.13310657596372	124.23759637188209	83	127
124.13310657596372	124.40013605442176	59	127
124.13310657596372	124.40013605442176	62	127
124.13310657596372	124.33047619047619	50	127
124.23759637188209	124.33047619047619	79	127
124.33047619047619	124.42335600907029	78	127
124.33047619047619	124.5162358276644	55	127
124.42335600907029	124.5162358276644	79	127
124.52784580498866	124.59750566893425	84	127
124.52784580498866	124.69038548752835	43	127
124.6091156462585	124.69038548752835	79	127
124.7019954648526	124.89936507936508	48	127
124.7019954648526	124.78326530612244	78	127
124.79487528344671	124.89936507936508	79	127
124.89936507936508	125.16639455782312	63	127
124.89936507936508	125.16639455782312	60	127
124.89936507936508	125.09673469387755	51	127
124.89936507936508	125.00385487528345	77	127
125.00385487528345	125.09673469387755	75	127
125.09673469387755	125.29410430839002	55	127
125.09673469387755	125.20122448979592	74	127
125.20122448979592	125.29410430839002	72	127
125.29410430839002	125.4914739229025	43	127
125.29410430839002	125.4914739229025	71	127
125.4914739229025	125.5843537414966	66	127
125.4914739229025	125.6772335600907	47	127
125.5843537414966	125.6772335600907	67	127
125.6772335600907	125.86299319727891	50	127
125.6772335600907	125.93265306122449	59	127
125.6772335600907	125.77011337868481	71	127
125.6772335600907	125.93265306122449	74	127
125.6772335600907	125.93265306122449	67	127
125.78172335600907	125.86299319727891	67	127
125.87460317460318	126.0255328798186	55	127
125.87460317460318	125.95587301587301	66	127
125.96748299319728	126.0255328798186	67	127
126.0255328798186	126.19968253968254	43	127
126.0255328798186	126.1184126984127	72	127
126.1184126984127	126.19968253968254	67	127
126.19968253968254	126.37383219954648	48	127
126.19968253968254	126.28095238095239	66	127
126.28095238095239	126.37383219954648	67	127
126.37383219954648	126.62925170068027	60	127
126.37383219954648	126.46671201814058	65	127
126.37383219954648	126.5595918367347	51	127
126.37383219954648	126.62925170068027	67	127
126.37383219954648	126.62925170068027	75	127
126.46671201814058	126.5595918367347	63	127
126.5595918367347	126.6524716553288	62	127
126.5595918367347	126.74535147392291	55	127
126.6524716553288	126.74535147392291	60	127
126.74535147392291	126.95433106575963	43	127
126.74535147392291	126.95433106575963	55	127
126.9659410430839	127.04721088435375	78	127
126.9659410430839	127.14009070294784	47	127
127.058820861678	127.14009070294784	79	127
127.15170068027211	127.39551020408163	62	127
127.15170068027211	127.32585034013606	50	127
127.15170068027211	127.23297052154194	83	127
127.15170068027211	127.39551020408163	59	127
127.24458049886621	127.32585034013606	79	127
127.33746031746031	127.52321995464852	55	127
127.33746031746031	127.43034013605443	83	127
127.43034013605443	127.52321995464852	79	127
127.52321995464852	127.61609977324262	84	127
127.52321995464852	127.70897959183674	43	127
127.61609977324262	127.70897959183674	79	127
127.70897959183674	127.9063492063492	48	127
127.70897959183674	127.8134693877551	78	127
127.8134693877551	127.9063492063492	79	127
127.9063492063492	128.17337868480726	63	127
127.9063492063492	128.01083900226757	77	127
127.9063492063492	128.10371882086167	51	127
127.9063492063492	128.17337868480726	60	127
128.01083900226757	128.10371882086167	75	127
128.10371882086167	128.19657596371883	74	127
128.10371882086167	128.2894784580499	55	127
128.19657596371883	128.2894784580499	72	127
128.30108843537414	128.4752380952381	43	127
128.30108843537414	128.4752380952381	71	127
128.48684807256237	128.67260770975057	47	127
128.48684807256237	128.5681179138322	66	127
128.57972789115647	128.67260770975057	67	127
128.67260770975057	128.76548752834466	71	127
128.67260770975057	128.92802721088435	59	127
128.67260770975057	128.92802721088435	67	127
128.67260770975057	128.92802721088435	74	127
128.67260770975057	128.86997732426303	50	127
128.76548752834466	128.86997732426303	67	127
128.86997732426303	128.9512471655329	71	127
128.86997732426303	129.03251700680272	55	127
128.9512471655329	129.03251700680272	67	127
129.03251700680272	129.21825396825398	43	127
129.03251700680272	129.12539682539682	72	127
129.12539682539682	129.21825396825398	67	127
129.21825396825398	129.41564625850341	48	127
129.21825396825398	129.3227664399093	66	127
129.3227664399093	129.41564625850341	67	127
129.41564625850341	129.6710657596372	75	127
129.41564625850341	129.5085260770975	65	127
129.41564625850341	129.6710657596372	60	127
129.41564625850341	129.6710657596372	67	127
129.41564625850341	129.6014058956916	51	127
129.5201133786848	129.6014058956916	63	127
129.61301587301588	129.6942857142857	62	127
129.61301587301588	129.7755328798186	55	127
129.70589569160998	129.7755328798186	60	127
129.7871655328798	130.12385487528346	43	127
129.7871655328798	130.12385487528346	67	127
129.7871655328798	130.12385487528346	55	127
129.7871655328798	130.12385487528346	74	127
129.7871655328798	130.12385487528346	59	127
130.12385487528346	130.50698412698412	59	127
130.12385487528346	130.21673469387756	71	127
130.12385487528346	130.50698412698412	55	127
130.21673469387756	130.32122448979592	67	127
130.32122448979592	130.41410430839002	66	127
130.41410430839002	130.50698412698412	67	127
130.50698412698412	130.59986394557822	71	127
130.59986394557822	130.7043537414966	67	127
130.7043537414966	130.79721088435375	66	127
130.79721088435375	130.89011337868482	67	127
130.89011337868482	130.98299319727892	71	127
130.98299319727892	131.07587301587301	67	127
131.07587301587301	131.1687528344671	66	127
131.1687528344671	131.26160997732427	67	127
131.26160997732427	131.62151927437642	43	127
131.26160997732427	131.35451247165534	74	127
131.35451247165534	131.43578231292517	71	127
131.43578231292517	131.52866213151927	70	127
131.52866213151927	131.62151927437642	71	127
131.62151927437642	132.03950113378684	59	127
131.62151927437642	131.737641723356	74	127
131.62151927437642	132.03950113378684	62	127
131.737641723356	131.8305215419501	71	127
131.8305215419501	131.92337868480726	70	127
131.92337868480726	132.0511111111111	71	127
132.0511111111111	132.15560090702948	74	127
132.15560090702948	132.20204081632653	71	127
132.20204081632653	132.28328798185942	70	127
132.28328798185942	132.34136054421768	71	127
132.34136054421768	132.43421768707483	74	127
132.43421768707483	132.5387074829932	71	127
132.5387074829932	132.63160997732427	70	127
132.63160997732427	132.72448979591837	71	127
132.72448979591837	132.82897959183674	77	127
132.72448979591837	133.14244897959185	43	127
132.82897959183674	132.92185941043084	74	127
132.92185941043084	133.03795918367348	73	127
133.03795918367348	133.14244897959185	74	127
133.14244897959185	133.51396825396824	65	127
133.14244897959185	133.24693877551022	77	127
133.14244897959185	133.51396825396824	62	127
133.24693877551022	133.33981859410432	74	127
133.33981859410432	133.43269841269841	73	127
133.43269841269841	133.5255782312925	74	127
133.5255782312925	133.63006802721088	77	127
133.63006802721088	133.72294784580498	74	127
133.72294784580498	133.81580498866214	73	127
133.81580498866214	133.89709750566894	74	127
133.89709750566894	133.943537414966	77	127
133.943537414966	134.0015873015873	74	127
134.0015873015873	134.05963718820863	73	127
134.05963718820863	134.14090702947846	74	127
134.14090702947846	134.23378684807255	81	127
134.23378684807255	134.3266439909297	77	127
134.3266439909297	134.4079365079365	76	127
134.4079365079365	134.51242630385488	77	127
134.51242630385488	134.60530612244898	81	127
134.60530612244898	134.69818594104308	79	127
134.69818594104308	134.80267573696145	77	127
134.80267573696145	134.87233560090704	76	127
134.87233560090704	134.96521541950113	74	127
134.96521541950113	135.03487528344672	72	127
135.03487528344672	135.11614512471655	71	127
135.11614512471655	135.20902494331065	69	127
135.20902494331065	135.2902947845805	67	127
135.2902947845805	135.37156462585034	65	127
135.37156462585034	135.4760544217687	64	127
135.4760544217687	135.5573015873016	62	127
135.5573015873016	135.74308390022676	52	127
135.5573015873016	135.74308390022676	60	127
135.5573015873016	135.74308390022676	36	127
135.5573015873016	135.74308390022676	55	127
135.74308390022676	135.92884353741496	52	127
135.74308390022676	135.92884353741496	55	127
135.74308390022676	135.92884353741496	48	127
135.94045351473923	136.10299319727892	52	127
135.94045351473923	136.10299319727892	55	127
135.94045351473923	136.10299319727892	60	127
135.94045351473923	136.10299319727892	48	127
136.11458049886622	136.3003628117914	48	127
136.11458049886622	136.3003628117914	52	127
136.11458049886622	136.3003628117914	55	127
136.3003628117914	136.4861224489796	52	127
136.3003628117914	136.4861224489796	48	127
136.3003628117914	136.84603174603174	64	127
136.3003628117914	136.4861224489796	55	127
136.4861224489796	136.66027210884354	55	127
136.4861224489796	136.66027210884354	48	127
136.4861224489796	136.66027210884354	52	127
136.66027210884354	136.84603174603174	48	127
136.66027210884354	136.84603174603174	55	127
136.66027210884354	136.84603174603174	52	127
136.84603174603174	136.9273015873016	62	127
136.84603174603174	137.00857142857143	55	127
136.84603174603174	137.00857142857143	52	127
136.84603174603174	137.00857142857143	48	127
136.9273015873016	137.00857142857143	60	127
137.0201814058957	137.1827210884354	53	127
137.0201814058957	137.1827210884354	48	127
137.0201814058957	137.13625850340136	59	127
137.0201814058957	137.1827210884354	55	127
137.19433106575963	137.3336507936508	60	127
137.19433106575963	137.38009070294785	53	127
137.19433106575963	137.38009070294785	55	127
137.19433106575963	137.38009070294785	48	127
137.38009070294785	137.56585034013605	53	127
137.38009070294785	137.56585034013605	48	127
137.38009070294785	137.519410430839	62	127
137.38009070294785	137.56585034013605	55	127
137.56585034013605	137.74	48	127
137.56585034013605	137.7051700680272	64	127
137.56585034013605	137.74	55	127
137.56585034013605	137.74	53	127
137.74	137.91414965986394	53	127
137.74	137.91414965986394	55	127
137.74	137.8677097505669	77	127
137.74	137.91414965986394	65	127
137.74	137.91414965986394	48	127
137.91414965986394	138.05346938775511	76	127
137.91414965986394	138.09990929705216	53	127
137.91414965986394	138.09990929705216	55	127
137.91414965986394	138.09990929705216	48	127
138.09990929705216	138.2740589569161	55	127
138.09990929705216	138.2740589569161	53	127
138.09990929705216	138.2740589569161	48	127
138.09990929705216	138.22761904761904	74	127
138.28566893424036	138.48303854875283	48	127
138.28566893424036	138.48303854875283	53	127
138.28566893424036	138.4249886621315	72	127
138.28566893424036	138.48303854875283	55	127
138.4946485260771	138.69201814058957	48	127
138.4946485260771	138.69201814058957	53	127
138.4946485260771	138.69201814058957	55	127
138.4946485260771	138.69201814058957	71	127
138.4946485260771	138.69201814058957	55	127
138.69201814058957	138.87775510204082	48	127
138.69201814058957	138.87775510204082	55	127
138.69201814058957	138.87775510204082	53	127
138.87775510204082	139.05192743764172	48	127
138.87775510204082	139.05192743764172	53	127
138.87775510204082	139.05192743764172	55	127
138.87775510204082	139.05192743764172	62	127
139.05192743764172	139.22607709750568	53	127
139.05192743764172	139.22607709750568	48	127
139.05192743764172	139.22607709750568	55	127
139.22607709750568	139.4002267573696	48	127
139.22607709750568	139.4002267573696	53	127
139.22607709750568	139.72530612244898	65	127
139.22607709750568	139.4002267573696	55	127
139.4002267573696	139.5627664399093	55	127
139.4002267573696	139.5627664399093	48	127
139.4002267573696	139.5627664399093	53	127
139.57437641723357	139.72530612244898	53	127
139.57437641723357	139.72530612244898	55	127
139.57437641723357	139.72530612244898	48	127
139.73691609977325	139.82979591836735	64	127
139.73691609977325	139.92267573696145	48	127
139.73691609977325	139.92267573696145	55	127
139.73691609977325	139.92267573696145	53	127
139.82979591836735	139.92267573696145	62	127
139.92267573696145	140.10843537414965	55	127
139.92267573696145	140.10843537414965	52	127
139.92267573696145	140.10843537414965	48	127
139.92267573696145	140.0619954648526	67	127
140.10843537414965	140.23614512471656	64	127
140.10843537414965	140.2825850340136	48	127
140.10843537414965	140.2825850340136	52	127
140.10843537414965	140.2825850340136	55	127
140.2825850340136	140.49156462585034	48	127
140.2825850340136	140.49156462585034	52	127
140.2825850340136	140.49156462585034	55	127
140.2825850340136	140.4451247165533	67	127
140.49156462585034	140.6308843537415	64	127
140.49156462585034	140.67732426303854	55	127
140.49156462585034	140.67732426303854	52	127
140.49156462585034	140.67732426303854	48	127
140.6889342403628	140.86308390022677	60	127
140.6889342403628	140.86308390022677	52	127
140.6889342403628	140.86308390022677	55	127
140.6889342403628	140.86308390022677	48	127
140.6889342403628	140.81662131519275	79	127
140.874693877551	141.04884353741497	52	127
140.874693877551	141.04884353741497	48	127
140.874693877551	141.04884353741497	55	127
140.874693877551	140.99079365079365	76	127
141.06045351473924	141.24621315192744	55	127
141.06045351473924	141.24621315192744	48	127
141.06045351473924	141.21138321995466	79	127
141.06045351473924	141.24621315192744	52	127
141.24621315192744	141.4319501133787	52	127
141.24621315192744	141.4319501133787	48	127
141.24621315192744	141.4319501133787	55	127
141.24621315192744	141.38553287981858	76	127
141.4319501133787	141.68736961451248	72	127
141.4319501133787	141.68736961451248	43	127
141.4319501133787	141.61773242630386	52	127
141.4319501133787	141.61773242630386	55	127
141.61773242630386	141.78027210884355	67	127
141.61773242630386	141.78027210884355	55	127
141.78027210884355	142.0124716553288	67	127
141.78027210884355	141.94278911564626	55	127
141.78027210884355	141.94278911564626	67	127
141.78027210884355	142.0124716553288	48	127
141.95442176870748	142.1634013605442	67	127
141.95442176870748	142.1634013605442	55	127
142.17501133786848	142.36077097505668	67	127
142.17501133786848	142.36077097505668	55	127
142.17501133786848	142.7322902494331	52	127
142.17501133786848	142.43043083900227	72	127
142.36077097505668	142.5581179138322	55	127
142.36077097505668	142.5581179138322	67	127
142.5581179138322	142.7322902494331	67	127
142.5581179138322	142.7322902494331	55	127
142.5581179138322	143.05736961451248	76	127
142.7322902494331	142.813537414966	50	127
142.7322902494331	142.8948299319728	55	127
142.7322902494331	142.8948299319728	67	127
142.813537414966	142.8948299319728	48	127
142.8948299319728	143.05736961451248	67	127
142.8948299319728	143.01092970521543	47	127
142.8948299319728	143.05736961451248	55	127
143.05736961451248	143.1386394557823	74	127
143.05736961451248	143.2315192743764	67	127
143.05736961451248	143.2315192743764	55	127
143.05736961451248	143.18507936507936	48	127
143.15024943310658	143.2315192743764	72	127
143.24312925170068	143.41727891156464	67	127
143.24312925170068	143.3708390022676	71	127
143.24312925170068	143.41727891156464	55	127
143.24312925170068	143.3708390022676	50	127
143.42886621315193	143.55659863945579	72	127
143.42886621315193	143.60303854875283	67	127
143.42886621315193	143.55659863945579	52	127
143.42886621315193	143.60303854875283	55	127
143.60303854875283	143.78879818594103	55	127
143.60303854875283	143.74235827664398	83	127
143.60303854875283	143.78879818594103	67	127
143.60303854875283	143.74235827664398	74	127
143.60303854875283	143.78879818594103	53	127
143.78879818594103	143.97455782312926	55	127
143.78879818594103	143.9281179138322	84	127
143.78879818594103	143.9281179138322	76	127
143.78879818594103	143.97455782312926	67	127
143.97455782312926	144.1138775510204	86	127
143.97455782312926	144.1138775510204	77	127
143.97455782312926	144.13709750566895	55	127
143.97455782312926	144.13709750566895	67	127
144.13709750566895	144.2996371882086	67	127
144.13709750566895	144.2996371882086	55	127
144.13709750566895	144.25319727891156	88	127
144.31124716553288	144.5550566893424	43	127
144.31124716553288	144.48539682539683	67	127
144.31124716553288	144.48539682539683	89	127
144.31124716553288	144.48539682539683	55	127
144.49698412698413	144.67115646258503	67	127
144.49698412698413	144.67115646258503	55	127
144.6827664399093	144.88013605442177	67	127
144.6827664399093	144.9381859410431	50	127
144.6827664399093	144.9381859410431	67	127
144.6827664399093	144.88013605442177	55	127
144.88013605442177	145.05428571428573	67	127
144.88013605442177	145.05428571428573	55	127
145.05428571428573	145.2516553287982	67	127
145.05428571428573	145.61156462585035	53	127
145.05428571428573	145.32131519274375	74	127
145.05428571428573	145.2516553287982	55	127
145.2516553287982	145.4374149659864	55	127
145.2516553287982	145.4374149659864	67	127
145.4374149659864	145.61156462585035	67	127
145.4374149659864	145.99469387755101	77	127
145.4374149659864	145.61156462585035	55	127
145.62315192743765	145.79732426303855	55	127
145.62315192743765	145.79732426303855	67	127
145.62315192743765	145.70444444444445	52	127
145.71605442176872	145.79732426303855	50	127
145.80893424036282	145.9366439909297	48	127
145.80893424036282	145.99469387755101	55	127
145.80893424036282	145.99469387755101	67	127
145.99469387755101	146.08755102040817	76	127
145.99469387755101	146.13399092970522	50	127
145.99469387755101	146.16884353741497	55	127
145.99469387755101	146.16884353741497	67	127
146.08755102040817	146.16884353741497	74	127
146.16884353741497	146.35460317460317	67	127
146.16884353741497	146.35460317460317	55	127
146.16884353741497	146.30816326530612	72	127
146.16884353741497	146.30816326530612	52	127
146.35460317460317	146.49390022675738	74	127
146.35460317460317	146.5403628117914	67	127
146.35460317460317	146.5403628117914	55	127
146.35460317460317	146.49390022675738	53	127
146.5403628117914	147.3878911564626	55	127
146.5403628117914	146.66807256235828	76	127
146.5403628117914	146.66807256235828	84	127
146.5403628117914	146.71451247165533	55	127
146.5403628117914	146.71451247165533	67	127
146.71451247165533	146.84222222222223	86	127
146.71451247165533	146.84222222222223	77	127
146.71451247165533	146.88866213151928	67	127
146.71451247165533	146.88866213151928	55	127
146.88866213151928	147.01637188208616	60	127
146.88866213151928	147.01637188208616	79	127
146.88866213151928	147.01637188208616	88	127
147.07442176870748	147.21374149659863	62	127
147.07442176870748	147.21374149659863	89	127
147.26015873015874	147.96839002267575	91	127
147.26015873015874	147.39950113378686	64	127
147.43433106575964	147.56204081632654	53	127
147.43433106575964	147.56204081632654	65	127
147.6084807256236	147.74780045351474	79	127
147.6084807256236	147.74780045351474	67	127
147.6084807256236	147.74780045351474	52	127
147.78263038548752	147.82907029478457	50	127
147.78263038548752	147.82907029478457	77	127
147.8522902494331	147.98	76	127
147.8522902494331	148.6069387755102	48	127
148.0380498866213	148.17734693877551	74	127
148.0380498866213	148.17734693877551	89	127
148.24702947845805	148.38632653061225	88	127
148.24702947845805	148.38632653061225	57	127
148.24702947845805	148.43278911564627	72	127
148.43278911564627	148.56049886621315	59	127
148.43278911564627	148.56049886621315	86	127
148.6069387755102	149.3615873015873	84	127
148.6069387755102	148.75786848072562	60	127
148.6069387755102	148.75786848072562	52	127
148.80430839002267	148.94362811791385	62	127
148.80430839002267	148.94362811791385	50	127
148.9900680272109	149.12938775510204	48	127
148.9900680272109	149.12938775510204	76	127
148.9900680272109	149.1758276643991	64	127
149.18743764172336	149.31514739229024	74	127
149.18743764172336	149.31514739229024	47	127
149.37319727891156	149.50090702947847	88	127
149.37319727891156	150.0814058956916	45	127
149.37319727891156	149.50090702947847	72	127
149.57056689342403	149.7098866213152	71	127
149.57056689342403	149.7098866213152	86	127
149.75632653061226	149.87242630385487	54	127
149.75632653061226	149.91884353741497	69	127
149.75632653061226	149.87242630385487	84	127
149.91884353741497	150.03496598639455	55	127
149.91884353741497	150.03496598639455	83	127
150.0814058956916	150.22072562358278	48	127
150.0814058956916	150.81283446712018	81	127
150.0814058956916	150.22072562358278	57	127
150.26716553287983	150.38326530612244	59	127
150.26716553287983	150.38326530612244	47	127
150.44131519274376	150.56902494331067	72	127
150.44131519274376	150.61546485260772	60	127
150.44131519274376	150.56902494331067	45	127
150.62707482993198	150.76639455782313	43	127
150.62707482993198	150.76639455782313	71	127
150.81283446712018	150.95215419501133	84	127
150.81283446712018	151.50943310657595	42	127
150.81283446712018	150.95215419501133	69	127
150.99859410430838	151.11469387755102	83	127
150.99859410430838	151.11469387755102	67	127
151.16113378684807	151.33528344671203	66	127
151.16113378684807	151.28884353741498	81	127
151.16113378684807	151.28884353741498	50	127
151.33528344671203	151.47460317460317	79	127
151.33528344671203	151.47460317460317	52	127
151.52104308390022	151.64875283446713	45	127
151.52104308390022	152.21761904761905	78	127
151.52104308390022	151.64875283446713	54	127
151.6835827664399	151.81126984126985	55	127
151.6835827664399	151.81126984126985	43	127
151.8693424036281	151.99705215419502	69	127
151.8693424036281	151.99705215419502	42	127
151.8693424036281	152.04349206349207	57	127
152.04349206349207	152.17120181405895	40	127
152.04349206349207	152.17120181405895	67	127
152.21761904761905	152.33374149659863	81	127
152.21761904761905	152.93743764172336	38	127
152.21761904761905	152.33374149659863	66	127
152.38018140589568	152.51950113378686	79	127
152.38018140589568	152.51950113378686	64	127
152.5659410430839	152.70526077097506	50	127
152.5659410430839	152.7517006802721	62	127
152.5659410430839	152.70526077097506	78	127
152.76331065759638	152.89102040816326	76	127
152.76331065759638	152.89102040816326	52	127
152.93743764172336	153.04195011337868	54	127
152.93743764172336	153.04195011337868	38	127
152.93743764172336	153.6688888888889	74	127
153.07678004535148	153.21609977324263	40	127
153.07678004535148	153.21609977324263	55	127
153.27414965986395	153.4134693877551	42	127
153.27414965986395	153.4134693877551	57	127
153.45990929705215	153.62244897959184	59	127
153.45990929705215	153.62244897959184	43	127
153.6688888888889	155.49163265306123	48	127
153.6688888888889	153.84303854875284	45	127
153.6688888888889	155.49163265306123	60	127
153.8894784580499	154.02879818594104	47	127
154.08684807256236	154.202947845805	48	127
154.24938775510205	154.3887074829932	47	127
154.43514739229025	154.55124716553289	48	127
154.59768707482993	154.73700680272108	47	127
154.78344671201813	154.93437641723355	45	127
154.98079365079366	155.12013605442178	43	127
155.16657596371883	155.2942857142857	42	127
155.16657596371883	155.34072562358276	74	127
155.35233560090703	155.44521541950112	40	127
155.50326530612244	155.7006349206349	78	127
155.50326530612244	155.65419501133786	38	127
155.50326530612244	155.65419501133786	50	127
155.7006349206349	155.82834467120182	37	127
155.7006349206349	155.82834467120182	52	127
155.87478458049887	156.5597732426304	81	127
155.87478458049887	156.0024716553288	54	127
155.87478458049887	156.0024716553288	38	127
156.03732426303856	156.16503401360544	55	127
156.03732426303856	156.16503401360544	40	127
156.21147392290248	156.3391836734694	42	127
156.21147392290248	156.3391836734694	57	127
156.38562358276644	156.51331065759638	59	127
156.38562358276644	156.51331065759638	43	127
156.57138321995464	156.69909297052155	45	127
156.57138321995464	158.440589569161	48	127
156.57138321995464	158.440589569161	60	127
156.75714285714287	156.87321995464853	47	127
156.91965986394558	157.04739229024943	48	127
157.09383219954648	157.2447619047619	47	127
157.29120181405895	157.43049886621316	48	127
157.47696145124718	157.6278911564626	47	127
157.68591836734694	157.83687074829933	45	127
157.89489795918368	158.0342403628118	43	127
158.08068027210885	158.26643990929705	78	127
158.08068027210885	158.26643990929705	62	127
158.08068027210885	158.22	42	127
158.26643990929705	158.40573696145125	40	127
158.440589569161	158.6263492063492	81	127
158.440589569161	158.57990929705215	38	127
158.440589569161	158.6263492063492	66	127
158.440589569161	158.57990929705215	50	127
158.6263492063492	158.76566893424035	52	127
158.6263492063492	158.76566893424035	37	127
158.83532879818594	158.96303854875285	38	127
158.83532879818594	158.96303854875285	54	127
158.83532879818594	159.54353741496598	84	127
158.83532879818594	159.54353741496598	69	127
159.02108843537414	159.14879818594105	40	127
159.02108843537414	159.14879818594105	55	127
159.20684807256237	159.33455782312924	42	127
159.20684807256237	159.33455782312924	57	127
159.35777777777778	159.49709750566893	43	127
159.35777777777778	159.49709750566893	59	127
159.54353741496598	161.7378231292517	60	127
159.54353741496598	159.6712471655329	45	127
159.54353741496598	161.7378231292517	48	127
159.71768707482994	159.8570068027211	47	127
159.89183673469387	160.01954648526078	48	127
160.0775963718821	160.18208616780046	49	127
160.2285260770975	160.36784580498866	50	127
160.40267573696144	160.54199546485262	49	127
160.58843537414967	160.72775510204082	50	127
160.77419501133787	160.91351473922902	49	127
160.94834467120182	161.0644217687075	50	127
160.94834467120182	161.11086167800454	81	127
160.94834467120182	161.11086167800454	66	127
161.12249433106575	161.26181405895693	49	127
161.31984126984128	161.4591836734694	50	127
161.31984126984128	161.50562358276645	69	127
161.31984126984128	161.50562358276645	84	127
161.51723356009072	161.66816326530613	49	127
161.7378231292517	162.1790022675737	87	127
161.7378231292517	161.9584126984127	54	127
161.7378231292517	172.01265306122448	50	127
161.7378231292517	162.56213151927437	72	127
162.1790022675737	162.37637188208618	57	127
162.1790022675737	162.56213151927437	84	127
162.56213151927437	162.95684807256237	60	127
162.56213151927437	162.95684807256237	63	127
162.56213151927437	163.34	81	127
162.96848072562358	163.34	57	127
162.96848072562358	163.34	60	127
163.35160997732427	164.17591836734695	54	127
163.35160997732427	164.17591836734695	57	127
163.35160997732427	163.781179138322	84	127
163.781179138322	164.17591836734695	81	127
164.17591836734695	164.55904761904762	63	127
164.17591836734695	164.55904761904762	72	127
164.17591836734695	164.96539682539682	78	127
164.55904761904762	164.96539682539682	60	127
164.55904761904762	164.96539682539682	69	127
164.96539682539682	165.33691609977325	84	127
164.96539682539682	165.33691609977325	66	127
164.96539682539682	165.33691609977325	57	127
165.33691609977325	165.7200453514739	72	127
165.33691609977325	165.7200453514739	75	127
165.33691609977325	165.7200453514739	81	127
165.73165532879818	166.11478458049888	78	127
165.73165532879818	166.11478458049888	72	127
165.73165532879818	166.11478458049888	69	127
166.12639455782312	166.5095238095238	66	127
166.12639455782312	166.5095238095238	75	127
166.12639455782312	166.5095238095238	69	127
166.52113378684808	166.88104308390024	66	127
166.52113378684808	166.88104308390024	72	127
166.52113378684808	166.88104308390024	63	127
166.88104308390024	167.27578231292517	63	127
166.88104308390024	167.27578231292517	60	127
166.88104308390024	167.27578231292517	69	127
167.27578231292517	167.6588888888889	70	127
167.27578231292517	167.6588888888889	64	127
167.27578231292517	167.6588888888889	61	127
167.6588888888889	168.0652380952381	58	127
167.6588888888889	168.0652380952381	61	127
167.6588888888889	168.0652380952381	67	127
168.0652380952381	168.41356009070296	57	127
168.0652380952381	168.41356009070296	66	127
168.0652380952381	168.41356009070296	62	127
168.41356009070296	168.79668934240362	81	127
168.41356009070296	168.79668934240362	72	127
168.41356009070296	168.79668934240362	75	127
168.8082993197279	169.17981859410432	72	127
168.8082993197279	169.17981859410432	69	127
168.8082993197279	169.17981859410432	78	127
169.19140589569162	169.56294784580498	75	127
169.19140589569162	169.56294784580498	69	127
169.19140589569162	169.56294784580498	66	127
169.57455782312925	169.9344671201814	66	127
169.57455782312925	169.9344671201814	63	127
169.57455782312925	169.9344671201814	72	127
169.94607709750568	170.29437641723356	60	127
169.94607709750568	170.29437641723356	69	127
169.94607709750568	170.29437641723356	63	127
170.30598639455783	170.74716553287982	61	127
170.30598639455783	170.74716553287982	70	127
170.30598639455783	170.74716553287982	64	127
170.7587755102041	171.17673469387756	67	127
170.7587755102041	171.17673469387756	58	127
170.7587755102041	171.17673469387756	61	127
171.1883446712018	172.01265306122448	57	127
171.1883446712018	172.01265306122448	66	127
171.1883446712018	172.01265306122448	62	127
172.02426303854875	172.77891156462584	67	127
172.02426303854875	172.77891156462584	55	127
172.02426303854875	172.77891156462584	51	127
172.02426303854875	172.77891156462584	61	127
172.7905215419501	173.59160997732425	62	127
172.7905215419501	173.59160997732425	50	127
172.7905215419501	173.59160997732425	57	127
172.7905215419501	173.59160997732425	66	127
173.60321995464852	174.48557823129252	55	127
173.60321995464852	174.48557823129252	67	127
173.60321995464852	174.48557823129252	61	127
173.60321995464852	174.48557823129252	51	127
174.48557823129252	175.3331065759637	57	127
174.48557823129252	175.3331065759637	50	127
174.48557823129252	175.3331065759637	66	127
174.48557823129252	175.3331065759637	62	127
175.3331065759637	177.06297052154196	61	127
175.3331065759637	177.06297052154196	55	127
175.3331065759637	180.05836734693878	51	127
175.3331065759637	180.05836734693878	67	127
177.07460317460317	180.05836734693878	58	127
177.07460317460317	180.05836734693878	61	127
180.66208616780045	180.8478231292517	51	127
180.66208616780045	180.8478231292517	44	127
180.66208616780045	180.8478231292517	60	127
180.66208616780045	180.8478231292517	63	127
181.06843537414966	181.26580498866213	44	127
181.06843537414966	181.26580498866213	68	127
181.06843537414966	181.26580498866213	60	127
181.06843537414966	181.26580498866213	51	127
181.47478458049886	182.12492063492064	72	127
181.47478458049886	182.12492063492064	44	127
181.47478458049886	182.12492063492064	51	127
181.47478458049886	182.12492063492064	60	127
182.13655328798185	182.29909297052154	44	127
182.13655328798185	182.29909297052154	60	127
182.13655328798185	182.22943310657595	70	127
182.13655328798185	182.29909297052154	51	127
182.22943310657595	182.29909297052154	68	127
182.29909297052154	182.42678004535148	67	127
182.29909297052154	182.42678004535148	61	127
182.29909297052154	182.42678004535148	51	127
182.29909297052154	182.42678004535148	46	127
182.496462585034	182.64739229024943	61	127
182.496462585034	182.64739229024943	51	127
182.496462585034	182.64739229024943	68	127
182.496462585034	182.64739229024943	46	127
182.69383219954648	182.85637188208617	46	127
182.69383219954648	182.85637188208617	61	127
182.69383219954648	182.85637188208617	70	127
182.69383219954648	182.85637188208617	51	127
182.90281179138321	183.04210884353742	46	127
182.90281179138321	183.04210884353742	72	127
182.90281179138321	183.04210884353742	61	127
182.90281179138321	183.04210884353742	51	127
183.08857142857144	183.2859410430839	73	127
183.08857142857144	183.2859410430839	46	127
183.08857142857144	183.2859410430839	51	127
183.08857142857144	183.2859410430839	61	127
183.80836734693878	183.9477097505669	58	127
183.80836734693878	183.9477097505669	64	127
183.80836734693878	183.9477097505669	67	127
183.98253968253968	184.12185941043083	68	127
183.98253968253968	184.12185941043083	58	127
183.98253968253968	184.12185941043083	64	127
183.98253968253968	184.12185941043083	67	127
184.15668934240364	184.23795918367347	58	127
184.15668934240364	184.23795918367347	67	127
184.15668934240364	184.23795918367347	70	127
184.15668934240364	184.23795918367347	64	127
184.28439909297052	184.4469387755102	67	127
184.28439909297052	184.4469387755102	64	127
184.28439909297052	184.4469387755102	72	127
184.28439909297052	184.4469387755102	58	127
184.50498866213152	184.6791156462585	58	127
184.50498866213152	184.6791156462585	73	127
184.50498866213152	184.6791156462585	67	127
184.50498866213152	184.6791156462585	64	127
185.2364172335601	185.36412698412698	64	127
185.2364172335601	185.36412698412698	67	127
185.2364172335601	185.36412698412698	57	127
185.2364172335601	185.36412698412698	73	127
185.4221768707483	185.56149659863945	64	127
185.4221768707483	185.56149659863945	57	127
185.4221768707483	185.56149659863945	74	127
185.4221768707483	185.56149659863945	67	127
185.584716553288	185.75886621315192	67	127
185.584716553288	185.75886621315192	76	127
185.584716553288	185.75886621315192	64	127
185.584716553288	185.75886621315192	57	127
185.81691609977324	185.9910657596372	64	127
185.81691609977324	185.9910657596372	57	127
185.81691609977324	185.9910657596372	78	127
185.81691609977324	185.9910657596372	67	127
185.9910657596372	186.18843537414966	67	127
185.9910657596372	186.18843537414966	64	127
185.9910657596372	186.18843537414966	57	127
185.9910657596372	186.18843537414966	79	127
186.85020408163265	187.03596371882085	57	127
186.85020408163265	187.03596371882085	72	127
186.85020408163265	187.03596371882085	62	127
186.85020408163265	187.03596371882085	78	127
187.2797732426304	187.51197278911565	71	127
187.2797732426304	187.51197278911565	55	127
187.2797732426304	187.51197278911565	62	127
187.2797732426304	187.51197278911565	79	127
187.74414965986395	187.98798185941044	69	127
187.74414965986395	187.98798185941044	62	127
187.74414965986395	187.98798185941044	54	127
187.74414965986395	187.98798185941044	81	127
188.1853514739229	188.74263038548753	83	127
188.1853514739229	188.74263038548753	67	127
188.1853514739229	188.74263038548753	62	127
188.1853514739229	188.74263038548753	52	127
188.7774603174603	192.39977324263037	50	127
188.7774603174603	192.39977324263037	62	127
188.7774603174603	192.39977324263037	84	127
188.7774603174603	192.39977324263037	66	127
193.1544217687075	193.36340136054423	50	127
193.57238095238094	193.81619047619049	55	127
193.9903401360544	194.5360090702948	59	127
194.5360090702948	194.61727891156463	57	127
194.6288888888889	194.6869387755102	55	127
194.69854875283445	194.80303854875282	54	127
194.84947845804987	194.98879818594105	55	127
195.0352380952381	195.17455782312925	57	127
195.0352380952381	195.17455782312925	66	127
195.20938775510203	195.3487074829932	59	127
195.20938775510203	195.3487074829932	67	127
195.39514739229026	195.5344671201814	69	127
195.39514739229026	195.58090702947845	60	127
195.58090702947845	195.73183673469387	71	127
195.7898866213152	195.9175963718821	72	127
195.96403628117915	196.09174603174603	73	127
196.16140589569162	196.37038548752835	59	127
196.16140589569162	196.3239455782313	74	127
196.16140589569162	196.37038548752835	55	127
196.16140589569162	196.37038548752835	62	127
196.37038548752835	196.5097052154195	76	127
196.54453514739228	196.6722448979592	78	127
196.54453514739228	196.70707482993197	67	127
196.54453514739228	196.70707482993197	59	127
196.54453514739228	196.70707482993197	55	127
196.70707482993197	196.84639455782312	79	127
196.86961451247166	197.42689342403628	67	127
196.86961451247166	196.99732426303854	81	127
196.86961451247166	197.42689342403628	71	127
196.86961451247166	197.42689342403628	52	127
197.05537414965985	197.18308390022676	82	127
197.24113378684808	197.38045351473923	83	127
197.42689342403628	197.58943310657597	79	127
197.42689342403628	197.54299319727892	54	127
197.42689342403628	197.54299319727892	66	127
197.42689342403628	197.54299319727892	69	127
197.54299319727892	197.63587301587302	67	127
197.54299319727892	197.63587301587302	55	127
197.54299319727892	197.63587301587302	64	127
197.63587301587302	197.75197278911565	78	127
197.63587301587302	197.75197278911565	66	127
197.63587301587302	197.75197278911565	57	127
197.63587301587302	197.75197278911565	62	127
197.7984126984127	197.92612244897958	66	127
197.7984126984127	197.92612244897958	69	127
197.7984126984127	197.92612244897958	57	127
197.7984126984127	197.92612244897958	81	127
197.9609523809524	198.10027210884354	67	127
197.9609523809524	198.10027210884354	64	127
197.9609523809524	198.10027210884354	79	127
197.9609523809524	198.10027210884354	45	127
198.15832199546486	198.28603174603174	64	127
198.15832199546486	198.28603174603174	61	127
198.15832199546486	198.28603174603174	76	127
198.15832199546486	198.28603174603174	45	127
198.34408163265306	198.47179138321997	74	127
198.34408163265306	198.50662131519275	62	127
198.34408163265306	198.50662131519275	50	127
198.34408163265306	198.50662131519275	66	127
198.51823129251702	198.65755102040816	66	127
198.7039909297052	198.83170068027212	69	127
198.87814058956917	199.00585034013605	62	127
199.0522902494331	199.31931972789116	50	127
199.5515192743764	199.72566893424036	57	127
199.9346485260771	200.38743764172335	60	127
200.1204081632653	200.23650793650793	81	127
200.25972789115647	200.35260770975057	78	127
200.38743764172335	200.5267573696145	75	127
200.38743764172335	200.48031746031745	59	127
200.48031746031745	200.57319727891158	57	127
200.57319727891158	200.71251700680273	76	127
200.57319727891158	200.71251700680273	55	127
200.77056689342405	200.89827664399093	79	127
200.77056689342405	200.89827664399093	55	127
200.9679365079365	201.0956462585034	57	127
200.9679365079365	201.0956462585034	78	127
201.11886621315193	201.2465759637188	58	127
201.11886621315193	201.2465759637188	76	127
201.29301587301586	201.43233560090704	75	127
201.29301587301586	201.4787755102041	59	127
201.4787755102041	201.60648526077097	73	127
201.65292517006802	201.7922448979592	71	127
201.8502947845805	201.9431746031746	73	127
202.00122448979593	202.14054421768708	59	127
202.00122448979593	202.14054421768708	66	127
202.00122448979593	202.1057142857143	75	127
202.00122448979593	202.14054421768708	63	127
202.15215419501135	202.2914739229025	76	127
202.33791383219955	202.4772335600907	78	127
202.33791383219955	202.52367346938775	66	127
202.33791383219955	202.52367346938775	59	127
202.33791383219955	202.52367346938775	69	127
202.52367346938775	202.65138321995465	79	127
202.6978231292517	203.2667120181406	59	127
202.6978231292517	203.2667120181406	69	127
202.6978231292517	202.83714285714285	81	127
202.6978231292517	203.2667120181406	72	127
202.87197278911566	203.0112925170068	83	127
203.06934240362813	203.22027210884355	85	127
203.27832199546486	203.3595918367347	71	127
203.27832199546486	203.3595918367347	67	127
203.27832199546486	203.46408163265306	59	127
203.27832199546486	203.40603174603174	87	127
203.37120181405896	203.46408163265306	66	127
203.37120181405896	203.46408163265306	69	127
203.46408163265306	203.6034013605442	88	127
203.46408163265306	203.6034013605442	67	127
203.46408163265306	203.6034013605442	64	127
203.46408163265306	203.6034013605442	64	127
203.63823129251702	203.77755102040817	67	127
203.63823129251702	203.77755102040817	71	127
203.63823129251702	203.77755102040817	91	127
203.63823129251702	203.77755102040817	64	127
203.82399092970522	203.96331065759637	90	127
203.82399092970522	203.96331065759637	69	127
203.82399092970522	203.96331065759637	59	127
203.82399092970522	203.96331065759637	72	127
204.00975056689342	204.1490702947846	71	127
204.00975056689342	204.1490702947846	59	127
204.00975056689342	204.1490702947846	69	127
204.00975056689342	204.1490702947846	87	127
204.19551020408164	204.38126984126984	71	127
204.19551020408164	204.38126984126984	55	127
204.19551020408164	204.3348299319728	88	127
204.19551020408164	204.38126984126984	67	127
204.3928798185941	204.520589569161	79	127
204.5786394557823	204.71795918367346	83	127
204.76439909297054	204.89210884353741	76	127
204.93854875283446	205.66997732426304	43	127
204.93854875283446	205.66997732426304	50	127
204.93854875283446	205.32167800453516	65	127
204.93854875283446	205.08947845804988	77	127
205.13591836734693	205.2752380952381	71	127
205.32167800453516	205.402947845805	64	127
205.32167800453516	205.44938775510204	74	127
205.402947845805	205.4958276643991	62	127
205.50743764172336	205.623537414966	65	127
205.50743764172336	205.57709750566895	60	127
205.5887074829932	205.66997732426304	59	127
205.6815873015873	205.72802721088436	62	127
205.6815873015873	205.8092970521542	64	127
205.6815873015873	205.85573696145124	52	127
205.6815873015873	205.85573696145124	48	127
205.72802721088436	205.7744671201814	60	127
205.7744671201814	205.85573696145124	59	127
205.8673469387755	205.97183673469388	60	127
205.8673469387755	206.01827664399093	72	127
205.97183673469388	206.06471655328798	62	127
206.06471655328798	206.22725623582767	64	127
206.06471655328798	206.1924263038549	67	127
206.22725623582767	206.3433560090703	76	127
206.38979591836735	206.91224489795917	72	127
206.38979591836735	207.26054421768708	54	127
206.38979591836735	207.26054421768708	50	127
206.38979591836735	206.50589569160996	84	127
206.55233560090704	206.68004535147392	78	127
206.73809523809524	206.86580498866212	81	127
206.91224489795917	206.99351473922903	69	127
206.91224489795917	207.0283446712018	72	127
206.99351473922903	207.07478458049886	66	127
207.07478458049886	207.21410430839003	78	127
207.07478458049886	207.21410430839003	62	127
207.27215419501132	207.4114739229025	48	127
207.27215419501132	207.4114739229025	69	127
207.27215419501132	207.4114739229025	62	127
207.27215419501132	207.4114739229025	40	127
207.45791383219955	207.62045351473924	62	127
207.45791383219955	207.62045351473924	47	127
207.45791383219955	207.62045351473924	72	127
207.45791383219955	207.62045351473924	62	127
207.67850340136056	207.80621315192744	66	127
207.67850340136056	207.80621315192744	60	127
207.67850340136056	207.80621315192744	62	127
207.67850340136056	207.80621315192744	45	127
207.8526530612245	207.99197278911564	59	127
207.8526530612245	207.99197278911564	43	127
207.8526530612245	208.03841269841269	62	127
207.8526530612245	208.03841269841269	74	127
208.03841269841269	208.15451247165532	59	127
208.03841269841269	208.15451247165532	55	127
208.20095238095237	208.39832199546484	67	127
208.20095238095237	208.39832199546484	79	127
208.20095238095237	208.3518820861678	55	127
208.20095238095237	208.3518820861678	59	127
208.4099319727891	208.53764172335602	59	127
208.4099319727891	208.53764172335602	55	127
208.59569160997734	209.15297052154196	71	127
208.59569160997734	209.15297052154196	83	127
208.59569160997734	208.72340136054422	55	127
208.59569160997734	208.72340136054422	59	127
208.78145124716553	208.92077097505668	55	127
208.78145124716553	208.92077097505668	59	127
208.96721088435373	209.1065306122449	55	127
208.96721088435373	209.1065306122449	59	127
209.15297052154196	209.24585034013606	81	127
209.15297052154196	209.2922902494331	55	127
209.15297052154196	209.2922902494331	59	127
209.15297052154196	209.24585034013606	69	127
209.24585034013606	209.33873015873016	67	127
209.24585034013606	209.33873015873016	79	127
209.33873015873016	209.46643990929707	78	127
209.33873015873016	209.46643990929707	60	127
209.33873015873016	209.46643990929707	57	127
209.33873015873016	209.46643990929707	66	127
209.48965986394558	209.62897959183672	55	127
209.48965986394558	209.62897959183672	79	127
209.48965986394558	209.62897959183672	67	127
209.48965986394558	209.62897959183672	59	127
209.68702947845804	209.77990929705214	69	127
209.68702947845804	209.77990929705214	57	127
209.68702947845804	209.77990929705214	54	127
209.68702947845804	209.77990929705214	81	127
209.83795918367346	209.97727891156464	52	127
209.83795918367346	209.97727891156464	55	127
209.83795918367346	209.97727891156464	71	127
209.83795918367346	209.97727891156464	83	127
210.0237188208617	210.19786848072562	84	127
210.0237188208617	210.10498866213152	50	127
210.0237188208617	210.19786848072562	72	127
210.0237188208617	210.10498866213152	54	127
210.10498866213152	210.19786848072562	54	127
210.10498866213152	210.19786848072562	57	127
210.19786848072562	210.29074829931972	62	127
210.19786848072562	210.29074829931972	57	127
210.29074829931972	210.38362811791384	62	127
210.29074829931972	210.38362811791384	66	127
210.38362811791384	210.46489795918367	69	127
210.38362811791384	210.46489795918367	66	127
210.46489795918367	210.53455782312926	66	127
210.46489795918367	210.53455782312926	62	127
210.53455782312926	210.62743764172336	57	127
210.53455782312926	210.62743764172336	62	127
210.62743764172336	210.743537414966	59	127
210.62743764172336	210.743537414966	54	127
210.743537414966	210.88285714285715	50	127
210.743537414966	210.9292970521542	62	127
210.743537414966	210.9292970521542	74	127
210.743537414966	210.88285714285715	54	127
210.94090702947847	211.04539682539684	54	127
210.94090702947847	211.04539682539684	50	127
211.10344671201815	211.2427664399093	50	127
211.10344671201815	211.2427664399093	54	127
211.10344671201815	211.28920634920635	81	127
211.10344671201815	211.28920634920635	69	127
211.28920634920635	211.4285260770975	54	127
211.28920634920635	211.4285260770975	50	127
211.47496598639455	211.9974149659864	84	127
211.47496598639455	211.60267573696146	54	127
211.47496598639455	211.60267573696146	50	127
211.47496598639455	211.9974149659864	72	127
211.6491156462585	211.7768253968254	50	127
211.6491156462585	211.7768253968254	54	127
211.82326530612244	211.95097505668934	54	127
211.82326530612244	211.95097505668934	50	127
212.00902494331066	212.0902947845805	83	127
212.00902494331066	212.13673469387754	48	127
212.00902494331066	212.13673469387754	54	127
212.00902494331066	212.0902947845805	71	127
212.10190476190476	212.1831746031746	69	127
212.10190476190476	212.1831746031746	81	127
212.19478458049886	212.32249433106577	86	127
212.19478458049886	212.32249433106577	74	127
212.19478458049886	212.32249433106577	55	127
212.19478458049886	212.32249433106577	47	127
212.35732426303855	212.4734240362812	67	127
212.35732426303855	212.4734240362812	52	127
212.35732426303855	212.4734240362812	83	127
212.35732426303855	212.4734240362812	71	127
212.51986394557824	212.65918367346939	84	127
212.51986394557824	212.65918367346939	72	127
212.51986394557824	212.65918367346939	50	127
212.51986394557824	212.65918367346939	67	127
212.70562358276644	212.84494331065758	50	127
212.70562358276644	212.84494331065758	66	127
212.70562358276644	212.84494331065758	81	127
212.70562358276644	212.84494331065758	69	127
212.89138321995466	213.01909297052154	79	127
212.89138321995466	213.23968253968255	67	127
212.89138321995466	213.23968253968255	59	127
212.89138321995466	213.23968253968255	43	127
213.0655328798186	213.1584126984127	83	127
213.1584126984127	213.23968253968255	79	127
213.2512925170068	213.77374149659863	74	127
213.42544217687075	213.5995918367347	67	127
213.42544217687075	213.5995918367347	71	127
213.5995918367347	213.93628117913832	66	127
213.5995918367347	213.93628117913832	72	127
213.77374149659863	213.86662131519273	74	127
213.86662131519273	213.93628117913832	73	127
213.93628117913832	214.49356009070294	74	127
214.12204081632652	214.29619047619047	72	127
214.12204081632652	214.29619047619047	66	127
214.29619047619047	214.4471201814059	67	127
214.29619047619047	214.4471201814059	71	127
214.5051700680272	214.62126984126985	71	127
214.5051700680272	214.62126984126985	65	127
214.5051700680272	214.5748299319728	74	127
214.58643990929704	214.67931972789117	76	127
214.6909297052154	214.81863945578232	72	127
214.6909297052154	214.81863945578232	67	127
214.6909297052154	214.81863945578232	64	127
214.86507936507937	214.981179138322	66	127
214.86507936507937	214.9463492063492	72	127
214.86507936507937	214.981179138322	69	127
214.9463492063492	215.01600907029479	74	127
215.01600907029479	215.12049886621315	67	127
215.01600907029479	215.12049886621315	71	127
215.1669387755102	215.30625850340135	67	127
215.1669387755102	215.30625850340135	64	127
215.1669387755102	215.2598185941043	71	127
215.2598185941043	215.3526984126984	72	127
215.3526984126984	215.5152380952381	60	127
215.3526984126984	215.5152380952381	64	127
215.3526984126984	215.5152380952381	69	127
215.5732879818594	215.65455782312924	69	127
215.5732879818594	215.70099773242632	62	127
215.5732879818594	215.70099773242632	66	127
215.6661678004535	215.74743764172337	71	127
215.7590476190476	216.11895691609976	55	127
215.7590476190476	216.11895691609976	59	127
215.7590476190476	216.11895691609976	43	127
215.7590476190476	215.9215873015873	67	127
215.93319727891156	216.02607709750566	71	127
216.02607709750566	216.11895691609976	67	127
216.11895691609976	216.65301587301587	62	127
216.304716553288	216.46725623582768	55	127
216.304716553288	216.46725623582768	55	127
216.304716553288	216.46725623582768	59	127
216.46725623582768	216.83877551020407	54	127
216.46725623582768	216.83877551020407	60	127
216.46725623582768	216.83877551020407	57	127
216.65301587301587	216.75750566893424	62	127
216.7691156462585	216.83877551020407	61	127
216.85038548752834	217.38444444444445	62	127
217.0245351473923	217.19868480725623	60	127
217.0245351473923	217.19868480725623	54	127
217.0245351473923	217.19868480725623	57	127
217.19868480725623	217.38444444444445	55	127
217.19868480725623	217.38444444444445	43	127
217.19868480725623	217.38444444444445	59	127
217.38444444444445	217.5469841269841	59	127
217.38444444444445	217.5469841269841	62	127
217.38444444444445	217.5469841269841	55	127
217.38444444444445	217.47732426303855	62	127
217.47732426303855	217.5469841269841	61	127
217.5469841269841	217.73274376417234	62	127
217.5469841269841	217.73274376417234	59	127
217.5469841269841	217.63986394557824	62	127
217.5469841269841	217.73274376417234	55	127
217.63986394557824	217.73274376417234	60	127
217.73274376417234	217.94172335600908	55	127
217.73274376417234	217.94172335600908	59	127
217.73274376417234	217.94172335600908	62	127
217.73274376417234	217.8372335600907	59	127
217.8372335600907	217.94172335600908	57	127
217.94172335600908	218.10426303854877	55	127
217.94172335600908	218.15070294784582	59	127
217.94172335600908	218.15070294784582	67	127
217.94172335600908	218.15070294784582	40	127
218.16231292517006	218.25519274376418	67	127
218.16231292517006	218.32485260770974	59	127
218.16231292517006	218.32485260770974	52	127
218.16231292517006	218.32485260770974	67	127
218.25519274376418	218.336462585034	66	127
218.336462585034	218.5222222222222	52	127
218.336462585034	218.5222222222222	57	127
218.336462585034	218.4293424036281	67	127
218.336462585034	218.5222222222222	67	127
218.4293424036281	218.5222222222222	69	127
218.5222222222222	218.69637188208617	52	127
218.5222222222222	218.69637188208617	67	127
218.5222222222222	218.69637188208617	57	127
218.5222222222222	218.61510204081634	71	127
218.61510204081634	218.69637188208617	73	127
218.69637188208617	218.8473015873016	74	127
218.69637188208617	219.07950113378683	66	127
218.69637188208617	219.07950113378683	57	127
218.69637188208617	219.07950113378683	50	127
218.89374149659864	218.98662131519274	74	127
218.98662131519274	219.07950113378683	73	127
219.07950113378683	219.17238095238096	74	127
219.17238095238096	219.27687074829933	76	127
219.27687074829933	219.36975056689343	78	127
219.36975056689343	219.46263038548753	74	127
219.46263038548753	219.5903401360544	79	127
219.64839002267573	219.76448979591837	79	127
219.76448979591837	219.8457596371882	78	127
219.8457596371882	219.92702947845805	79	127
219.92702947845805	219.99668934240364	81	127
219.99668934240364	220.03151927437642	83	127
220.03151927437642	220.12439909297052	85	127
220.12439909297052	220.49591836734695	86	127
220.12439909297052	220.31015873015872	38	127
220.31015873015872	220.49591836734695	55	127
220.31015873015872	220.49591836734695	58	127
220.31015873015872	220.49591836734695	62	127
220.50752834467121	220.6932879818594	55	127
220.50752834467121	220.6932879818594	43	127
220.50752834467121	220.6932879818594	58	127
220.50752834467121	220.6932879818594	62	127
220.70489795918368	220.90226757369615	55	127
220.70489795918368	220.90226757369615	62	127
220.70489795918368	220.90226757369615	58	127
220.90226757369615	221.08802721088435	62	127
220.90226757369615	221.08802721088435	55	127
220.90226757369615	221.48276643990928	46	127
220.90226757369615	221.08802721088435	58	127
221.08802721088435	221.29700680272109	55	127
221.08802721088435	221.29700680272109	62	127
221.08802721088435	221.29700680272109	58	127
221.29700680272109	221.48276643990928	62	127
221.29700680272109	221.48276643990928	55	127
221.29700680272109	221.48276643990928	58	127
221.48276643990928	221.6685260770975	55	127
221.48276643990928	221.6685260770975	58	127
221.48276643990928	221.5756462585034	45	127
221.48276643990928	221.6685260770975	62	127
221.5756462585034	221.6685260770975	43	127
221.6685260770975	221.8542857142857	57	127
221.6685260770975	221.80784580498866	42	127
221.6685260770975	222.6437641723356	74	127
221.6685260770975	221.8542857142857	60	127
221.6685260770975	221.8542857142857	62	127
221.86589569160998	222.05165532879818	57	127
221.86589569160998	222.00521541950113	43	127
221.86589569160998	222.05165532879818	60	127
221.86589569160998	222.05165532879818	62	127
222.06326530612245	222.2025850340136	45	127
222.06326530612245	222.2606349206349	62	127
222.06326530612245	222.2606349206349	57	127
222.06326530612245	222.2606349206349	60	127
222.2606349206349	222.44639455782314	62	127
222.2606349206349	222.3999546485261	46	127
222.2606349206349	222.44639455782314	60	127
222.2606349206349	222.44639455782314	57	127
222.44639455782314	222.6437641723356	62	127
222.44639455782314	222.6437641723356	57	127
222.44639455782314	222.6437641723356	48	127
222.44639455782314	222.6437641723356	60	127
222.6437641723356	222.8295238095238	60	127
222.6437641723356	222.8295238095238	62	127
222.6437641723356	222.8295238095238	75	127
222.6437641723356	222.8295238095238	57	127
222.8295238095238	223.00367346938776	57	127
222.8295238095238	223.00367346938776	62	127
222.8295238095238	223.00367346938776	74	127
222.8295238095238	223.00367346938776	60	127
223.015283446712	223.2126530612245	62	127
223.015283446712	223.2126530612245	60	127
223.015283446712	223.2126530612245	57	127
223.015283446712	223.2126530612245	75	127
223.22426303854874	223.3984126984127	54	127
223.22426303854874	223.3984126984127	38	127
223.22426303854874	223.3984126984127	57	127
223.22426303854874	223.3984126984127	74	127
223.22426303854874	223.3984126984127	62	127
223.41002267573697	223.5841723356009	54	127
223.41002267573697	223.5841723356009	57	127
223.41002267573697	223.5841723356009	62	127
223.5841723356009	223.78154195011336	54	127
223.5841723356009	223.78154195011336	57	127
223.5841723356009	223.78154195011336	45	127
223.5841723356009	223.78154195011336	62	127
223.78154195011336	223.97891156462586	54	127
223.78154195011336	223.97891156462586	57	127
223.78154195011336	223.97891156462586	62	127
223.97891156462586	224.54780045351475	48	127
223.97891156462586	224.16467120181406	57	127
223.97891156462586	224.16467120181406	62	127
223.97891156462586	224.16467120181406	54	127
224.16467120181406	224.36204081632653	57	127
224.16467120181406	224.36204081632653	54	127
224.16467120181406	224.36204081632653	62	127
224.3736507936508	224.54780045351475	54	127
224.3736507936508	224.54780045351475	62	127
224.3736507936508	224.54780045351475	57	127
224.559410430839	224.75678004535146	57	127
224.559410430839	224.75678004535146	62	127
224.559410430839	224.6522902494331	46	127
224.559410430839	224.75678004535146	54	127
224.66390022675736	224.75678004535146	45	127
224.75678004535146	224.90770975056688	43	127
224.75678004535146	224.95414965986396	62	127
224.75678004535146	224.95414965986396	58	127
224.75678004535146	225.70879818594105	79	127
224.75678004535146	224.95414965986396	55	127
224.95414965986396	225.15151927437643	55	127
224.95414965986396	225.15151927437643	62	127
224.95414965986396	225.10507936507938	45	127
224.95414965986396	225.15151927437643	58	127
225.15151927437643	225.33727891156462	58	127
225.15151927437643	225.33727891156462	55	127
225.15151927437643	225.33727891156462	62	127
225.15151927437643	225.29083900226757	46	127
225.33727891156462	225.52303854875282	62	127
225.33727891156462	225.52303854875282	58	127
225.33727891156462	225.47659863945577	48	127
225.33727891156462	225.52303854875282	55	127
225.52303854875282	225.70879818594105	62	127
225.52303854875282	225.70879818594105	55	127
225.52303854875282	225.70879818594105	50	127
225.52303854875282	225.70879818594105	58	127
225.72040816326532	225.90616780045352	55	127
225.72040816326532	225.90616780045352	58	127
225.72040816326532	225.90616780045352	62	127
225.72040816326532	225.90616780045352	78	127
225.9177777777778	226.10353741496598	55	127
225.9177777777778	226.10353741496598	58	127
225.9177777777778	226.10353741496598	62	127
225.9177777777778	226.10353741496598	79	127
226.10353741496598	226.27768707482994	55	127
226.10353741496598	226.27768707482994	58	127
226.10353741496598	226.27768707482994	78	127
226.10353741496598	226.27768707482994	62	127
226.27768707482994	226.4402267573696	58	127
226.27768707482994	226.4402267573696	67	127
226.27768707482994	226.4402267573696	79	127
226.27768707482994	226.4402267573696	55	127
226.27768707482994	226.40539682539682	51	127
226.4402267573696	226.62598639455783	58	127
226.4402267573696	226.57954648526078	53	127
226.4402267573696	226.62598639455783	63	127
226.4402267573696	226.62598639455783	67	127
226.62598639455783	226.81174603174603	63	127
226.62598639455783	226.76530612244898	55	127
226.62598639455783	226.81174603174603	67	127
226.62598639455783	226.81174603174603	58	127
226.62598639455783	227.17165532879818	82	127
226.8233560090703	226.99750566893425	63	127
226.8233560090703	226.96267573696144	56	127
226.8233560090703	226.99750566893425	67	127
226.8233560090703	226.99750566893425	58	127
227.0091156462585	227.17165532879818	58	127
227.0091156462585	227.17165532879818	58	127
227.0091156462585	227.17165532879818	63	127
227.0091156462585	227.17165532879818	67	127
227.18326530612245	227.25292517006804	63	127
227.18326530612245	227.25292517006804	67	127
227.18326530612245	227.25292517006804	81	127
227.18326530612245	227.25292517006804	58	127
227.25292517006804	227.43868480725624	58	127
227.25292517006804	227.43868480725624	63	127
227.25292517006804	227.43868480725624	82	127
227.25292517006804	227.43868480725624	67	127
227.43868480725624	227.5780045351474	81	127
227.43868480725624	227.5780045351474	63	127
227.43868480725624	227.5780045351474	67	127
227.43868480725624	227.5780045351474	58	127
227.5780045351474	227.7057142857143	49	127
227.5780045351474	227.75215419501134	58	127
227.5780045351474	227.75215419501134	67	127
227.5780045351474	227.75215419501134	82	127
227.5780045351474	227.7057142857143	64	127
227.75215419501134	227.8914739229025	50	127
227.75215419501134	227.8914739229025	62	127
227.96113378684808	228.50680272108843	70	127
227.96113378684808	228.08884353741496	64	127
227.96113378684808	228.50680272108843	67	127
227.96113378684808	228.08884353741496	52	127
228.14689342403628	228.28621315192743	54	127
228.14689342403628	228.28621315192743	66	127
228.33265306122448	228.7041723356009	55	127
228.33265306122448	228.7041723356009	67	127
228.50680272108843	228.65773242630385	69	127
228.50680272108843	228.65773242630385	66	127
228.7041723356009	229.1105215419501	61	127
228.7041723356009	229.1105215419501	49	127
228.7041723356009	228.8667120181406	67	127
228.7041723356009	228.8667120181406	70	127
228.91315192743764	229.0524716553288	70	127
228.91315192743764	229.0524716553288	67	127
229.1105215419501	229.47043083900226	66	127
229.1105215419501	229.47043083900226	50	127
229.1105215419501	229.24984126984128	69	127
229.1105215419501	229.47043083900226	62	127
229.29628117913833	229.4239909297052	62	127
229.48204081632653	230.09736961451247	74	127
229.679410430839	229.81873015873015	62	127
229.679410430839	229.81873015873015	50	127
229.679410430839	229.81873015873015	66	127
229.91160997732428	230.09736961451247	55	127
229.91160997732428	230.09736961451247	38	127
229.91160997732428	230.09736961451247	61	127
230.09736961451247	230.23668934240362	64	127
230.28312925170067	230.88684807256234	76	127
230.4921088435374	230.61981859410432	50	127
230.4921088435374	230.61981859410432	61	127
230.4921088435374	230.61981859410432	67	127
230.67786848072564	230.88684807256234	38	127
230.67786848072564	230.88684807256234	57	127
230.67786848072564	230.88684807256234	60	127
230.8984580498866	231.0377777777778	66	127
231.08421768707484	231.61827664399092	78	127
231.21192743764172	231.36285714285714	50	127
231.21192743764172	231.36285714285714	60	127
231.21192743764172	231.36285714285714	69	127
231.42090702947846	231.61827664399092	59	127
231.42090702947846	231.61827664399092	38	127
231.42090702947846	231.61827664399092	59	127
231.6298866213152	231.75759637188207	67	127
231.80403628117915	232.33809523809524	79	127
231.95496598639457	232.09428571428572	71	127
231.95496598639457	232.09428571428572	50	127
231.95496598639457	232.09428571428572	59	127
232.15233560090704	232.33809523809524	38	127
232.15233560090704	232.33809523809524	54	127
232.15233560090704	232.33809523809524	60	127
232.3497052154195	232.50063492063492	69	127
232.55868480725624	232.70961451247166	81	127
232.7560544217687	232.8837641723356	79	127
232.89537414965986	232.99986394557823	78	127
233.05791383219955	233.18562358276645	76	127
233.1972335600907	233.33655328798187	74	127
233.39460317460316	233.54553287981858	72	127
233.6035827664399	233.74290249433108	71	127
233.6035827664399	233.74290249433108	55	127
233.78934240362813	234.1724716553288	71	127
233.78934240362813	233.92866213151927	59	127
233.9867120181406	234.12603174603174	62	127
234.18408163265306	234.53238095238095	71	127
234.18408163265306	234.31179138321994	66	127
234.34662131519275	234.4859410430839	67	127
234.54399092970522	234.6717006802721	71	127
234.54399092970522	234.6717006802721	66	127
234.7065306122449	234.78780045351473	72	127
234.7065306122449	234.83424036281178	67	127
234.78780045351473	234.8690702947846	71	127
234.88068027210883	235.00839002267574	64	127
234.88068027210883	234.9619501133787	69	127
234.9619501133787	235.04321995464852	71	127
235.04321995464852	235.22897959183675	72	127
235.04321995464852	235.22897959183675	60	127
235.22897959183675	235.41473922902495	69	127
235.41473922902495	235.63532879818595	61	127
235.41473922902495	235.63532879818595	71	127
235.63532879818595	235.8443083900227	67	127
235.85591836734693	236.0300680272109	62	127
235.85591836734693	236.0300680272109	67	127
236.0300680272109	236.2158276643991	66	127
236.22743764172336	236.37836734693877	64	127
236.37836734693877	236.4944671201814	62	127
236.4944671201814	236.6221768707483	55	127
236.4944671201814	236.66861678004534	74	127
236.4944671201814	236.6221768707483	59	127
236.66861678004534	237.0285260770975	74	127
236.66861678004534	236.79632653061225	62	127
236.66861678004534	236.79632653061225	59	127
236.85437641723357	236.99369614512472	67	127
236.85437641723357	236.99369614512472	62	127
237.04013605442177	237.21428571428572	66	127
237.04013605442177	237.44648526077097	74	127
237.04013605442177	237.21428571428572	69	127
237.26072562358277	237.40004535147392	71	127
237.26072562358277	237.40004535147392	67	127
237.45809523809524	237.5974149659864	74	127
237.45809523809524	237.5974149659864	66	127
237.45809523809524	237.5974149659864	69	127
237.64385487528344	237.73673469387754	71	127
237.64385487528344	237.73673469387754	67	127
237.64385487528344	237.6902947845805	76	127
237.70190476190476	237.7483446712018	74	127
237.75995464852608	237.89927437641722	67	127
237.75995464852608	237.85283446712018	73	127
237.75995464852608	237.89927437641722	64	127
237.85283446712018	237.93410430839003	74	127
237.93410430839003	238.07342403628118	64	127
237.93410430839003	238.07342403628118	76	127
237.93410430839003	238.07342403628118	60	127
238.1314739229025	238.27079365079365	72	127
238.1314739229025	238.27079365079365	57	127
238.1314739229025	238.27079365079365	64	127
238.3172335600907	238.46816326530612	60	127
238.3172335600907	238.46816326530612	62	127
238.3172335600907	238.46816326530612	69	127
238.51460317460317	238.64231292517007	57	127
238.51460317460317	238.64231292517007	66	127
238.51460317460317	238.64231292517007	50	127
238.7003628117914	238.80485260770976	59	127
238.7003628117914	238.90934240362813	67	127
238.7003628117914	238.90934240362813	55	127
238.80485260770976	238.90934240362813	71	127
238.90934240362813	239.00222222222223	69	127
239.00222222222223	239.1067120181406	67	127
239.1067120181406	239.1995918367347	66	127
239.1995918367347	239.2924716553288	64	127
239.2924716553288	239.3853514739229	62	127
239.3853514739229	239.478231292517	60	127
239.478231292517	239.61755102040817	43	127
239.478231292517	239.61755102040817	59	127
239.61755102040817	239.98907029478457	59	127
239.61755102040817	239.75687074829932	47	127
239.80331065759637	239.94263038548752	50	127
240.00068027210884	240.40702947845804	59	127
240.00068027210884	240.16321995464853	54	127
240.22126984126984	240.40702947845804	55	127
240.4186394557823	240.581179138322	59	127
240.4186394557823	240.581179138322	54	127
240.581179138322	240.7669387755102	55	127
240.581179138322	240.68566893424037	60	127
240.68566893424037	240.77854875283447	59	127
240.77854875283447	240.96430839002267	55	127
240.77854875283447	240.87142857142857	57	127
240.87142857142857	240.96430839002267	59	127
240.96430839002267	241.3358276643991	60	127
240.96430839002267	241.10362811791384	84	127
240.96430839002267	241.10362811791384	57	127
240.96430839002267	241.3358276643991	57	127
241.1500680272109	241.28938775510204	81	127
241.1500680272109	241.28938775510204	60	127
241.34743764172336	241.4867573696145	78	127
241.34743764172336	241.4867573696145	66	127
241.53319727891156	241.67251700680274	72	127
241.53319727891156	241.67251700680274	67	127
241.73056689342403	241.8698866213152	72	127
241.73056689342403	241.8698866213152	69	127
241.8698866213152	241.97437641723357	72	127
241.8698866213152	241.97437641723357	57	127
241.9859863945578	242.17174603174604	57	127
241.9859863945578	242.07886621315194	74	127
242.07886621315194	242.17174603174604	72	127
242.17174603174604	242.26462585034014	71	127
242.17174603174604	242.35750566893424	57	127
242.26462585034014	242.35750566893424	72	127
242.35750566893424	242.48521541950115	47	127
242.35750566893424	242.5316553287982	59	127
242.35750566893424	242.5316553287982	62	127
242.35750566893424	242.5316553287982	74	127
242.5316553287982	242.91478458049886	62	127
242.5316553287982	242.6825850340136	50	127
242.72902494331066	242.8683446712018	55	127
242.92639455782313	243.27469387755102	62	127
242.92639455782313	243.07732426303855	57	127
243.1005442176871	243.27469387755102	59	127
243.28630385487529	243.47206349206348	62	127
243.28630385487529	243.47206349206348	58	127
243.47206349206348	243.66943310657595	59	127
243.47206349206348	243.57655328798185	64	127
243.57655328798185	243.66943310657595	62	127
243.66943310657595	243.86680272108845	59	127
243.66943310657595	243.77392290249432	60	127
243.77392290249432	243.86680272108845	62	127
243.86680272108845	244.2267120181406	60	127
243.86680272108845	244.2267120181406	64	127
243.86680272108845	244.0061224489796	76	127
243.86680272108845	244.0061224489796	48	127
244.05256235827665	244.1918820861678	52	127
244.05256235827665	244.1918820861678	72	127
244.23832199546484	244.37764172335602	55	127
244.23832199546484	244.37764172335602	67	127
244.42408163265307	244.54018140589568	64	127
244.42408163265307	244.54018140589568	59	127
244.598231292517	244.77238095238096	64	127
244.598231292517	244.77238095238096	60	127
244.77238095238096	244.93492063492064	64	127
244.77238095238096	244.93492063492064	60	127
244.94653061224489	245.039410430839	66	127
244.94653061224489	245.10907029478457	60	127
245.039410430839	245.10907029478457	64	127
245.10907029478457	245.30643990929704	60	127
245.10907029478457	245.21356009070294	63	127
245.21356009070294	245.30643990929704	64	127
245.30643990929704	245.45736961451246	66	127
245.30643990929704	245.71278911564625	60	127
245.30643990929704	245.71278911564625	50	127
245.50380952380954	245.6663492063492	66	127
245.71278911564625	246.08430839002267	60	127
245.71278911564625	245.80566893424037	67	127
245.71278911564625	246.08430839002267	57	127
245.80566893424037	245.91015873015874	66	127
245.91015873015874	246.00303854875284	64	127
246.00303854875284	246.08430839002267	66	127
246.08430839002267	246.4790476190476	50	127
246.08430839002267	246.22362811791382	67	127
246.2932879818594	246.43260770975056	67	127
246.4790476190476	246.57192743764173	69	127
246.4790476190476	246.8621768707483	59	127
246.4790476190476	246.8621768707483	55	127
246.57192743764173	246.66480725623583	67	127
246.66480725623583	246.75768707482993	66	127
246.75768707482993	246.8621768707483	67	127
246.8621768707483	247.24530612244897	50	127
246.8621768707483	247.01310657596372	69	127
247.05954648526077	247.19886621315192	69	127
247.25691609977324	247.34979591836733	71	127
247.25691609977324	247.62843537414966	57	127
247.25691609977324	247.62843537414966	54	127
247.34979591836733	247.44267573696146	69	127
247.44267573696146	247.53555555555556	68	127
247.53555555555556	247.64004535147393	69	127
247.64004535147393	248.03478458049887	50	127
247.64004535147393	247.77936507936508	71	127
247.8374149659864	247.97673469387755	71	127
248.04639455782313	248.1508843537415	72	127
248.04639455782313	248.4643537414966	52	127
248.04639455782313	248.4643537414966	67	127
248.1508843537415	248.25537414965987	71	127
248.25537414965987	248.35986394557824	69	127
248.35986394557824	248.4643537414966	71	127
248.4643537414966	248.8707029478458	72	127
248.4643537414966	249.26544217687075	38	127
248.4643537414966	249.26544217687075	50	127
248.4643537414966	248.8707029478458	66	127
248.8707029478458	249.26544217687075	69	127
249.27705215419502	250.05492063492065	66	127
249.27705215419502	249.64857142857142	51	127
249.27705215419502	249.64857142857142	60	127
249.27705215419502	249.64857142857142	39	127
249.66018140589568	250.05492063492065	36	127
249.66018140589568	250.05492063492065	57	127
249.66018140589568	250.05492063492065	48	127
250.05492063492065	250.7863492063492	38	127
250.05492063492065	250.7863492063492	66	127
250.05492063492065	250.7863492063492	50	127
250.05492063492065	250.40321995464853	78	127
250.40321995464853	250.7863492063492	72	127
250.7863492063492	251.21591836734694	60	127
250.7863492063492	251.5990476190476	69	127
250.7863492063492	251.21591836734694	39	127
250.7863492063492	251.21591836734694	51	127
251.21591836734694	251.5990476190476	48	127
251.21591836734694	251.5990476190476	36	127
251.21591836734694	251.5990476190476	57	127
251.5990476190476	251.97056689342404	81	127
251.5990476190476	252.35369614512473	66	127
251.5990476190476	252.35369614512473	50	127
251.5990476190476	252.35369614512473	38	127
251.9821768707483	252.35369614512473	78	127
252.36530612244897	253.18961451247165	72	127
252.36530612244897	252.76004535147393	51	127
252.36530612244897	252.76004535147393	39	127
252.36530612244897	252.76004535147393	60	127
252.77165532879818	253.18961451247165	36	127
252.77165532879818	253.18961451247165	48	127
252.77165532879818	253.18961451247165	57	127
253.18961451247165	253.96748299319728	66	127
253.18961451247165	253.96748299319728	38	127
253.18961451247165	253.96748299319728	50	127
253.18961451247165	253.58435374149659	84	127
253.58435374149659	253.96748299319728	81	127
253.96748299319728	254.39705215419502	39	127
253.96748299319728	254.39705215419502	51	127
253.96748299319728	254.39705215419502	60	127
253.96748299319728	254.7801814058957	78	127
254.39705215419502	254.7801814058957	36	127
254.39705215419502	254.7801814058957	48	127
254.39705215419502	254.7801814058957	57	127
254.7801814058957	255.7554195011338	67	127
254.7801814058957	255.7554195011338	58	127
254.7801814058957	254.9659410430839	49	127
254.7801814058957	254.9659410430839	37	127
254.7801814058957	254.9659410430839	82	127
254.9659410430839	255.1517006802721	40	127
254.9659410430839	255.1517006802721	52	127
254.9659410430839	255.1517006802721	79	127
255.17492063492062	255.36068027210885	76	127
255.17492063492062	255.36068027210885	43	127
255.17492063492062	255.36068027210885	55	127
255.36068027210885	255.55804988662132	73	127
255.36068027210885	255.55804988662132	58	127
255.36068027210885	255.55804988662132	46	127
255.5696598639456	255.7554195011338	61	127
255.5696598639456	255.7554195011338	49	127
255.5696598639456	255.7554195011338	70	127
255.7554195011338	255.94117913832198	58	127
255.7554195011338	255.94117913832198	52	127
255.7554195011338	255.94117913832198	64	127
255.7554195011338	255.94117913832198	67	127
255.95278911564625	256.1269387755102	67	127
255.95278911564625	256.1269387755102	55	127
255.95278911564625	256.1269387755102	58	127
255.95278911564625	256.1269387755102	64	127
255.95278911564625	256.1269387755102	67	127
256.1269387755102	256.3243083900227	64	127
256.1269387755102	256.3243083900227	58	127
256.1269387755102	256.3243083900227	67	127
256.1269387755102	256.3243083900227	61	127
256.1269387755102	256.3243083900227	52	127
256.3243083900227	256.4752154195011	67	127
256.3243083900227	256.4752154195011	62	127
256.3243083900227	256.4752154195011	50	127
256.3243083900227	256.8583673469388	62	127
256.3243083900227	256.4752154195011	59	127
256.4752154195011	256.70743764172335	55	127
256.4752154195011	256.70743764172335	59	127
256.4752154195011	256.70743764172335	50	127
256.70743764172335	256.8583673469388	50	127
256.70743764172335	256.8583673469388	55	127
256.70743764172335	256.8583673469388	59	127
256.8583673469388	257.02090702947845	55	127
256.8583673469388	256.92802721088435	59	127
256.8583673469388	257.02090702947845	50	127
256.8583673469388	257.02090702947845	59	127
256.92802721088435	257.0325170068027	55	127
257.0325170068027	257.20666666666665	54	127
257.0325170068027	257.1021768707483	57	127
257.0325170068027	257.20666666666665	60	127
257.0325170068027	257.20666666666665	50	127
257.1021768707483	257.1602267573696	59	127
257.1602267573696	257.2182766439909	57	127
257.2182766439909	257.4388662131519	50	127
257.2182766439909	257.27632653061227	59	127
257.2182766439909	257.4388662131519	54	127
257.2182766439909	257.4388662131519	60	127
257.27632653061227	257.3459863945578	57	127
257.3459863945578	257.4388662131519	59	127
257.4388662131519	257.6362358276644	54	127
257.4388662131519	257.5085260770975	57	127
257.4388662131519	257.6362358276644	60	127
257.4388662131519	257.6362358276644	50	127
257.5085260770975	257.5897959183674	59	127
257.5897959183674	257.64784580498866	57	127
257.64784580498866	257.88004535147394	54	127
257.64784580498866	257.88004535147394	50	127
257.64784580498866	257.7291156462585	59	127
257.64784580498866	257.88004535147394	60	127
257.7291156462585	257.7987755102041	57	127
257.7987755102041	257.88004535147394	59	127
257.88004535147394	258.6114739229025	62	127
257.88004535147394	258.25156462585034	72	127
258.25156462585034	258.6114739229025	69	127
258.6114739229025	259.41256235827666	66	127
258.6114739229025	259.00621315192745	63	127
258.6114739229025	259.00621315192745	72	127
259.0178231292517	259.41256235827666	60	127
259.0178231292517	259.41256235827666	69	127
259.42417233560093	259.83052154195013	72	127
259.42417233560093	259.83052154195013	78	127
259.42417233560093	260.2484807256236	62	127
259.83052154195013	260.2484807256236	69	127
259.83052154195013	260.2484807256236	72	127
260.2484807256236	260.64321995464854	63	127
260.2484807256236	261.04956916099775	69	127
260.2484807256236	260.64321995464854	72	127
260.64321995464854	261.04956916099775	69	127
260.64321995464854	261.04956916099775	60	127
261.04956916099775	261.89707482993197	62	127
261.04956916099775	261.45591836734695	81	127
261.04956916099775	261.45591836734695	72	127
261.45591836734695	261.89707482993197	69	127
261.45591836734695	261.89707482993197	78	127
261.89707482993197	262.7562358276644	72	127
261.89707482993197	262.30342403628117	72	127
261.89707482993197	262.30342403628117	63	127
262.3150566893424	262.7562358276644	69	127
262.3150566893424	262.7562358276644	60	127
262.76784580498867	262.96521541950113	84	127
262.76784580498867	263.1741950113379	62	127
262.96521541950113	263.1741950113379	81	127
263.1741950113379	263.3831746031746	63	127
263.1741950113379	263.6153741496599	78	127
263.3831746031746	263.6153741496599	60	127
263.6153741496599	264.195873015873	57	127
263.6153741496599	263.928843537415	87	127
263.6153741496599	264.195873015873	60	127
263.94043083900226	264.195873015873	84	127
264.195873015873	264.63705215419503	81	127
264.195873015873	264.416462585034	60	127
264.195873015873	264.416462585034	63	127
264.4280725623583	264.63705215419503	60	127
264.4280725623583	264.63705215419503	57	127
264.63705215419503	265.74	87	127
264.63705215419503	264.85761904761904	60	127
264.63705215419503	265.74	57	127
264.63705215419503	270.53492063492064	53	127
264.86925170068025	265.31043083900227	65	127
265.31043083900227	265.5542403628118	60	127
265.5542403628118	265.74	65	127
265.7516099773243	266.622358276644	58	127
265.7516099773243	265.94897959183675	86	127
265.7516099773243	265.94897959183675	62	127
265.94897959183675	266.1463492063492	85	127
265.94897959183675	266.1463492063492	65	127
266.1579591836735	266.35532879818595	62	127
266.1579591836735	266.35532879818595	86	127
266.35532879818595	266.622358276644	82	127
266.35532879818595	266.622358276644	65	127
266.63396825396825	266.9358276643991	81	127
266.63396825396825	266.842947845805	63	127
266.63396825396825	267.4234240362812	60	127
266.842947845805	267.0519274376417	65	127
267.0519274376417	267.2376870748299	63	127
267.0519274376417	267.330566893424	81	127
267.2376870748299	267.4234240362812	65	127
267.4234240362812	268.2245351473923	58	127
267.4234240362812	267.6440362811791	62	127
267.4234240362812	268.02714285714285	82	127
267.6556462585034	267.8414058956916	65	127
267.8414058956916	268.02714285714285	62	127
268.03877551020406	268.1316326530612	84	127
268.03877551020406	268.2245351473923	65	127
268.1316326530612	268.2245351473923	86	127
268.2245351473923	268.4219047619048	60	127
268.2245351473923	269.0024036281179	57	127
268.2245351473923	269.0024036281179	87	127
268.4219047619048	268.61927437641725	65	127
268.61927437641725	268.80503401360545	60	127
268.80503401360545	269.0024036281179	65	127
269.0140136054422	269.1881632653061	62	127
269.0140136054422	269.1881632653061	86	127
269.0140136054422	269.75705215419504	58	127
269.1881632653061	269.3739229024943	65	127
269.1881632653061	269.3739229024943	85	127
269.3855328798186	269.5712925170068	86	127
269.3855328798186	269.5712925170068	62	127
269.5712925170068	269.75705215419504	65	127
269.5712925170068	269.75705215419504	82	127
269.7686394557823	270.53492063492064	60	127
269.7686394557823	269.9544217687075	63	127
269.7686394557823	270.0473015873016	81	127
269.9544217687075	270.15179138322	65	127
270.15179138322	270.43043083900227	81	127
270.15179138322	270.33755102040817	63	127
270.33755102040817	270.53492063492064	65	127
270.53492063492064	271.521768707483	46	127
270.53492063492064	270.7322902494331	62	127
270.53492063492064	271.3243990929705	58	127
270.53492063492064	271.1386394557823	82	127
270.7439002267574	270.9528798185941	65	127
270.9528798185941	271.1386394557823	62	127
271.1502494331066	271.3243990929705	65	127
271.1502494331066	271.3243990929705	81	127
271.3243990929705	272.8685260770975	80	127
271.3243990929705	271.521768707483	58	127
271.3243990929705	271.521768707483	65	127
271.3243990929705	271.521768707483	58	127
271.521768707483	271.70750566893423	62	127
271.521768707483	271.70750566893423	65	127
271.521768707483	271.70750566893423	58	127
271.70750566893423	271.9048979591837	62	127
271.70750566893423	271.9048979591837	65	127
271.70750566893423	271.9048979591837	58	127
271.9048979591837	272.10226757369617	58	127
271.9048979591837	272.10226757369617	65	127
271.9048979591837	272.10226757369617	62	127
272.11385487528344	272.29963718820864	65	127
272.11385487528344	272.29963718820864	62	127
272.11385487528344	272.29963718820864	58	127
272.29963718820864	272.48539682539683	58	127
272.29963718820864	272.48539682539683	65	127
272.29963718820864	272.48539682539683	62	127
272.4970068027211	272.6827664399093	65	127
272.4970068027211	272.6827664399093	58	127
272.4970068027211	272.6827664399093	62	127
272.6827664399093	272.8685260770975	58	127
272.6827664399093	272.8685260770975	62	127
272.6827664399093	272.8685260770975	65	127
272.88013605442177	273.4025850340136	81	127
272.88013605442177	273.06589569160997	57	127
272.88013605442177	273.06589569160997	66	127
272.88013605442177	273.06589569160997	62	127
273.06589569160997	273.25165532879817	62	127
273.06589569160997	273.25165532879817	57	127
273.06589569160997	273.25165532879817	66	127
273.25165532879817	273.4025850340136	66	127
273.25165532879817	273.4025850340136	57	127
273.25165532879817	273.4025850340136	62	127
273.4141950113379	273.48385487528344	78	127
273.4141950113379	273.57673469387754	62	127
273.4141950113379	273.57673469387754	66	127
273.4141950113379	273.57673469387754	57	127
273.4954648526077	273.57673469387754	74	127
273.57673469387754	273.64639455782316	76	127
273.57673469387754	273.77410430839	61	127
273.57673469387754	273.77410430839	57	127
273.57673469387754	273.77410430839	67	127
273.64639455782316	273.7160544217687	78	127
273.7160544217687	273.7857142857143	76	127
273.7857142857143	274.01791383219955	61	127
273.7857142857143	274.01791383219955	57	127
273.7857142857143	273.8669841269841	78	127
273.7857142857143	274.01791383219955	67	127
273.8669841269841	273.95984126984126	76	127
273.95984126984126	274.01791383219955	78	127
274.01791383219955	274.20367346938775	67	127
274.01791383219955	274.20367346938775	61	127
274.01791383219955	274.0875736961451	76	127
274.01791383219955	274.20367346938775	57	127
274.0875736961451	274.14562358276646	78	127
274.14562358276646	274.215283446712	76	127
274.215283446712	274.4010430839002	67	127
274.215283446712	274.4010430839002	57	127
274.215283446712	274.4010430839002	61	127
274.215283446712	274.3081632653061	74	127
274.3081632653061	274.4010430839002	76	127
274.4010430839002	274.48231292517005	78	127
274.4010430839002	274.5984126984127	50	127
274.4010430839002	274.5984126984127	60	127
274.4010430839002	274.5984126984127	69	127
274.48231292517005	274.5403628117914	79	127
274.5403628117914	274.5984126984127	78	127
274.5984126984127	274.65646258503403	79	127
274.5984126984127	274.7725396825397	60	127
274.5984126984127	274.7725396825397	57	127
274.5984126984127	274.7725396825397	50	127
274.65646258503403	274.7261224489796	78	127
274.7261224489796	274.7725396825397	79	127
274.7725396825397	274.84222222222223	78	127
274.7725396825397	274.9815192743764	60	127
274.7725396825397	274.9815192743764	50	127
274.7725396825397	274.9815192743764	57	127
274.84222222222223	274.9118820861678	79	127
274.9118820861678	274.9815192743764	78	127
274.9815192743764	275.1789115646259	50	127
274.9815192743764	275.1789115646259	60	127
274.9815192743764	275.05120181405897	79	127
274.9815192743764	275.1789115646259	57	127
275.05120181405897	275.12086167800453	78	127
275.12086167800453	275.19049886621315	79	127
275.19049886621315	275.24857142857144	78	127
275.19049886621315	275.37628117913835	60	127
275.19049886621315	275.37628117913835	51	127
275.19049886621315	275.37628117913835	57	127
275.24857142857144	275.318231292517	79	127
275.318231292517	275.37628117913835	78	127
275.37628117913835	275.56204081632654	57	127
275.37628117913835	275.56204081632654	60	127
275.37628117913835	275.56204081632654	51	127
275.37628117913835	275.4459410430839	79	127
275.4459410430839	275.5039909297052	78	127
275.5039909297052	275.5736507936508	79	127
275.5736507936508	275.74780045351474	57	127
275.5736507936508	275.74780045351474	51	127
275.5736507936508	275.74780045351474	60	127
275.5736507936508	275.6317006802721	78	127
275.6317006802721	275.68975056689345	79	127
275.68975056689345	275.74780045351474	78	127
275.74780045351474	275.9103401360544	51	127
275.74780045351474	275.9103401360544	57	127
275.74780045351474	275.9103401360544	60	127
275.74780045351474	275.8522902494331	76	127
275.8522902494331	275.9103401360544	78	127
275.9103401360544	276.0844897959184	59	127
275.9103401360544	275.96839002267575	79	127
275.9103401360544	276.0844897959184	55	127
275.9103401360544	276.0844897959184	52	127
275.96839002267575	276.0380498866213	81	127
276.0380498866213	276.0844897959184	79	127
276.0844897959184	276.1773696145125	78	127
276.0844897959184	276.2586394557823	52	127
276.0844897959184	276.2586394557823	55	127
276.0844897959184	276.2586394557823	59	127
276.1773696145125	276.2586394557823	79	127
276.2586394557823	276.43278911564624	49	127
276.2586394557823	276.43278911564624	64	127
276.2586394557823	276.43278911564624	64	127
276.2586394557823	276.3050793650794	81	127
276.3050793650794	276.37473922902495	83	127
276.37473922902495	276.4443990929705	81	127
276.4443990929705	276.51403628117913	79	127
276.4443990929705	276.60693877551023	64	127
276.4443990929705	276.60693877551023	64	127
276.4443990929705	276.60693877551023	49	127
276.51403628117913	276.60693877551023	81	127
276.60693877551023	276.7694784580499	50	127
276.60693877551023	276.82750566893424	83	127
276.60693877551023	276.7694784580499	62	127
276.60693877551023	276.7694784580499	67	127
276.78108843537416	276.9552380952381	62	127
276.78108843537416	276.9552380952381	50	127
276.78108843537416	276.9552380952381	67	127
276.9552380952381	277.1293650793651	60	127
276.9552380952381	277.1293650793651	66	127
276.9552380952381	277.15260770975055	81	127
276.9552380952381	277.1293650793651	38	127
277.1293650793651	277.3383446712018	66	127
277.1293650793651	277.3383446712018	38	127
277.1293650793651	277.3383446712018	60	127
277.349977324263	277.4428571428571	43	127
277.349977324263	277.73310657596375	59	127
277.349977324263	277.5473469387755	67	127
277.349977324263	277.73310657596375	79	127
277.4428571428571	277.5473469387755	45	127
277.5473469387755	277.64020408163265	47	127
277.64020408163265	277.73310657596375	48	127
277.73310657596375	277.9420634920635	67	127
277.73310657596375	277.8375963718821	50	127
277.8375963718821	277.9420634920635	48	127
277.9420634920635	278.0233560090703	47	127
278.0233560090703	278.1162358276644	45	127
278.1162358276644	278.18589569160997	43	127
278.1162358276644	278.673514739229	71	127
278.18589569160997	278.27877551020407	45	127
278.29038548752834	278.37165532879817	47	127
278.38326530612244	278.4877551020408	48	127
278.4993650793651	278.5806349206349	50	127
278.5922448979592	278.673514739229	52	127
278.6851247165533	278.76637188208616	54	127
278.6851247165533	278.76637188208616	69	127
278.76637188208616	278.847664399093	67	127
278.76637188208616	278.847664399093	55	127
278.847664399093	278.9289342403628	66	127
278.847664399093	279.0218140589569	60	127
278.847664399093	279.0218140589569	43	127
278.847664399093	279.0218140589569	74	127
278.9289342403628	279.0218140589569	67	127
279.0218140589569	279.2075736961451	60	127
279.0218140589569	279.2075736961451	55	127
279.0218140589569	279.114693877551	69	127
279.114693877551	279.2075736961451	71	127
279.2075736961451	279.3120634920635	72	127
279.2075736961451	279.4049433106576	81	127
279.2075736961451	279.4049433106576	55	127
279.2075736961451	279.4049433106576	60	127
279.3120634920635	279.4049433106576	71	127
279.4049433106576	279.5907029478458	55	127
279.4049433106576	279.5907029478458	60	127
279.4049433106576	279.4978231292517	69	127
279.4978231292517	279.5907029478458	67	127
279.60231292517005	280.1595918367347	84	127
279.60231292517005	279.77646258503404	55	127
279.60231292517005	279.68356009070294	66	127
279.60231292517005	279.77646258503404	60	127
279.69519274376415	279.77646258503404	67	127
279.7880498866213	279.86934240362814	69	127
279.7880498866213	279.9738321995465	60	127
279.7880498866213	279.9738321995465	55	127
279.8809523809524	279.9738321995465	67	127
279.9738321995465	280.1595918367347	55	127
279.9738321995465	280.0667120181406	66	127
279.9738321995465	280.1595918367347	60	127
280.0667120181406	280.1595918367347	62	127
280.1595918367347	280.3453514739229	55	127
280.1595918367347	280.3453514739229	60	127
280.1595918367347	280.2524716553288	64	127
280.1595918367347	280.2524716553288	83	127
280.2524716553288	280.3453514739229	66	127
280.2524716553288	280.3453514739229	81	127
280.3453514739229	280.5311111111111	59	127
280.3453514739229	280.7052380952381	79	127
280.3453514739229	280.438231292517	43	127
280.3453514739229	280.4846712018141	67	127
280.438231292517	280.5311111111111	45	127
280.5311111111111	280.7052380952381	62	127
280.5311111111111	280.658820861678	74	127
280.5311111111111	280.6239909297052	47	127
280.6239909297052	280.7052380952381	48	127
280.7052380952381	280.7981405895692	50	127
280.7052380952381	280.8910204081633	67	127
280.7052380952381	280.8445804988662	79	127
280.80972789115646	280.8910204081633	48	127
280.90263038548756	280.9839002267574	47	127
280.90263038548756	281.0303401360544	79	127
280.90263038548756	281.0767800453515	67	127
280.99551020408165	281.0767800453515	45	127
281.08839002267575	281.63403628117914	71	127
281.08839002267575	281.63403628117914	83	127
281.08839002267575	281.1696598639456	43	127
281.18126984126985	281.2625396825397	45	127
281.2625396825397	281.3554195011338	47	127
281.3554195011338	281.4482993197279	48	127
281.4482993197279	281.541179138322	50	127
281.541179138322	281.63403628117914	52	127
281.63403628117914	281.72691609977323	54	127
281.63403628117914	281.72691609977323	81	127
281.63403628117914	281.72691609977323	69	127
281.72691609977323	281.7965986394558	67	127
281.72691609977323	281.7965986394558	79	127
281.72691609977323	281.7965986394558	55	127
281.7965986394558	281.8894784580499	66	127
281.7965986394558	281.93589569160997	74	127
281.7965986394558	281.8894784580499	78	127
281.7965986394558	281.982358276644	43	127
281.99396825396826	282.1681179138322	43	127
281.99396825396826	282.0752380952381	57	127
281.99396825396826	282.12167800453517	74	127
281.99396825396826	282.0752380952381	69	127
282.08684807256236	282.1681179138322	71	127
282.08684807256236	282.1681179138322	59	127
282.17972789115646	282.3422448979592	43	127
282.17972789115646	282.2609977324263	60	127
282.17972789115646	282.2958276643991	81	127
282.17972789115646	282.2609977324263	72	127
282.2609977324263	282.3422448979592	59	127
282.2609977324263	282.3422448979592	71	127
282.3538775510204	282.44673469387754	57	127
282.3538775510204	282.53963718820864	43	127
282.3538775510204	282.44673469387754	69	127
282.3538775510204	282.49319727891157	81	127
282.44673469387754	282.53963718820864	55	127
282.44673469387754	282.53963718820864	67	127
282.53963718820864	283.0620634920635	84	127
282.53963718820864	282.63251700680274	54	127
282.53963718820864	282.63251700680274	66	127
282.53963718820864	282.72539682539684	43	127
282.63251700680274	282.72539682539684	55	127
282.63251700680274	282.72539682539684	67	127
282.72539682539684	282.81827664399094	57	127
282.72539682539684	282.87632653061223	43	127
282.72539682539684	282.81827664399094	69	127
282.81827664399094	282.87632653061223	55	127
282.81827664399094	282.87632653061223	67	127
282.87632653061223	282.96920634920633	54	127
282.87632653061223	283.0620634920635	43	127
282.87632653061223	282.96920634920633	66	127
282.96920634920633	283.0620634920635	62	127
282.96920634920633	283.0620634920635	50	127
283.0620634920635	283.1549433106576	52	127
283.0620634920635	283.1549433106576	83	127
283.0620634920635	283.2478458049887	43	127
283.0620634920635	283.1549433106576	64	127
283.1549433106576	283.2478458049887	54	127
283.1549433106576	283.2478458049887	66	127
283.1549433106576	283.2478458049887	81	127
283.25943310657595	283.3871655328798	79	127
283.25943310657595	283.4336054421769	55	127
283.25943310657595	283.4336054421769	67	127
283.25943310657595	283.4336054421769	43	127
283.44521541950115	283.8051247165533	60	127
283.44521541950115	283.63097505668935	55	127
283.44521541950115	283.8051247165533	66	127
283.44521541950115	283.526485260771	81	127
283.53809523809525	283.63097505668935	83	127
283.63097505668935	283.7702721088435	84	127
283.63097505668935	283.8051247165533	55	127
283.8051247165533	283.9908843537415	66	127
283.8051247165533	283.9908843537415	55	127
283.8051247165533	283.9908843537415	60	127
283.8051247165533	283.8980045351474	83	127
283.8980045351474	283.9908843537415	81	127
283.9908843537415	284.17664399092973	43	127
283.9908843537415	284.17664399092973	67	127
283.9908843537415	284.13020408163266	79	127
283.9908843537415	284.17664399092973	59	127
284.17664399092973	284.36240362811793	55	127
284.17664399092973	284.53655328798186	60	127
284.17664399092973	284.26952380952383	81	127
284.17664399092973	284.53655328798186	66	127
284.26952380952383	284.36240362811793	83	127
284.36240362811793	284.49009070294784	84	127
284.36240362811793	284.53655328798186	55	127
284.54816326530613	284.72231292517006	66	127
284.54816326530613	284.62943310657596	83	127
284.54816326530613	284.72231292517006	60	127
284.54816326530613	284.72231292517006	55	127
284.64104308390023	284.72231292517006	81	127
284.7339229024943	284.8848526077098	59	127
284.7339229024943	284.8848526077098	43	127
284.7339229024943	284.81519274376416	79	127
284.7339229024943	284.8848526077098	67	127
284.9312925170068	285.0241723356009	57	127
284.9312925170068	285.0241723356009	42	127
284.9312925170068	285.0241723356009	69	127
284.9312925170068	285.30278911564625	86	127
285.0241723356009	285.117052154195	40	127
285.0241723356009	285.117052154195	71	127
285.0241723356009	285.117052154195	59	127
285.117052154195	285.25637188208617	38	127
285.117052154195	285.25637188208617	60	127
285.117052154195	285.25637188208617	72	127
285.30278911564625	285.39569160997735	40	127
285.30278911564625	285.39569160997735	71	127
285.30278911564625	285.39569160997735	59	127
285.30278911564625	285.67433106575965	86	127
285.39569160997735	285.48857142857145	57	127
285.39569160997735	285.48857142857145	69	127
285.39569160997735	285.48857142857145	42	127
285.48857142857145	285.62789115646257	43	127
285.48857142857145	285.62789115646257	55	127
285.48857142857145	285.62789115646257	67	127
285.6859410430839	286.04585034013604	86	127
285.6859410430839	285.7556009070295	57	127
285.6859410430839	285.7556009070295	42	127
285.6859410430839	285.7556009070295	69	127
285.76721088435374	285.8484807256236	71	127
285.76721088435374	285.8484807256236	40	127
285.76721088435374	285.8484807256236	59	127
285.86009070294784	285.98780045351475	38	127
285.86009070294784	285.98780045351475	60	127
285.86009070294784	285.98780045351475	72	127
286.0574603174603	286.440589569161	86	127
286.0574603174603	286.1503401360544	59	127
286.0574603174603	286.1503401360544	40	127
286.0574603174603	286.1503401360544	71	127
286.1503401360544	286.2432199546485	42	127
286.1503401360544	286.2432199546485	57	127
286.1503401360544	286.2432199546485	69	127
286.2432199546485	286.440589569161	67	127
286.2432199546485	286.440589569161	55	127
286.2432199546485	286.440589569161	43	127
286.62634920634923	286.81210884353743	83	127
286.62634920634923	286.81210884353743	71	127
287.0094784580499	287.1836281179138	62	127
287.0094784580499	287.1836281179138	74	127
287.0094784580499	287.8221768707483	79	127
287.0094784580499	287.8221768707483	67	127
287.40421768707483	287.62480725623584	71	127
287.40421768707483	287.62480725623584	59	127
287.8221768707483	288.0079365079365	83	127
287.8221768707483	288.6116553287982	67	127
287.8221768707483	288.0079365079365	71	127
287.8221768707483	288.6116553287982	55	127
288.25174603174605	288.43750566893425	67	127
288.25174603174605	288.43750566893425	79	127
288.62326530612245	289.38952380952384	74	127
288.62326530612245	289.38952380952384	62	127
288.62326530612245	288.80902494331065	59	127
288.62326530612245	288.80902494331065	71	127
288.9947619047619	289.2037641723356	55	127
288.9947619047619	289.2037641723356	67	127
289.38952380952384	289.5868934240363	79	127
289.38952380952384	290.12095238095236	62	127
289.38952380952384	290.12095238095236	50	127
289.38952380952384	289.5868934240363	67	127
289.7842630385488	289.94680272108843	62	127
289.7842630385488	289.94680272108843	74	127
290.12095238095236	290.29510204081635	55	127
290.12095238095236	290.84077097505667	59	127
290.12095238095236	290.84077097505667	71	127
290.12095238095236	290.29510204081635	67	127
290.4692517006803	290.6550113378685	62	127
290.4692517006803	290.6550113378685	50	127
290.85238095238094	291.2122902494331	47	127
290.85238095238094	291.2122902494331	62	127
290.85238095238094	290.9684807256236	74	127
290.85238095238094	291.2122902494331	59	127
291.0265306122449	291.1542403628118	71	127
291.2122902494331	291.955306122449	59	127
291.2122902494331	291.35160997732424	62	127
291.2122902494331	291.5838095238095	67	127
291.2122902494331	291.955306122449	62	127
291.3980498866213	291.5373696145125	59	127
291.5838095238095	291.7115192743764	71	127
291.5838095238095	291.955306122449	55	127
291.75795918367345	291.8972789115646	67	127
291.955306122449	292.74480725623584	62	127
291.955306122449	292.10625850340136	59	127
291.955306122449	292.3732879818594	62	127
291.955306122449	292.74480725623584	59	127
292.1759183673469	292.32684807256237	55	127
292.38489795918366	292.74480725623584	50	127
292.38489795918366	292.52421768707484	67	127
292.55904761904765	292.69836734693877	62	127
292.74480725623584	293.1395464852608	59	127
292.74480725623584	293.5342857142857	59	127
292.74480725623584	293.5342857142857	62	127
292.74480725623584	292.89573696145123	55	127
292.9421768707483	293.0814739229025	50	127
293.1395464852608	293.27884353741496	62	127
293.1395464852608	293.5342857142857	47	127
293.3485260770975	293.4878231292517	59	127
293.54589569161	294.3005215419501	59	127
293.54589569161	293.9406349206349	55	127
293.54589569161	294.3005215419501	62	127
293.54589569161	293.68521541950116	50	127
293.7548752834467	293.8941723356009	47	127
293.9406349206349	294.0799546485261	62	127
293.9406349206349	294.3005215419501	43	127
294.11478458049885	294.25410430839	59	127
294.3005215419501	295.0319727891156	59	127
294.3005215419501	294.66045351473923	55	127
294.3005215419501	295.0319727891156	62	127
294.3005215419501	294.4166439909297	50	127
294.46308390022676	294.6139909297052	47	127
294.6720634920635	294.7997732426304	62	127
294.6720634920635	295.0319727891156	43	127
294.84621315192743	294.9855328798186	59	127
295.0319727891156	295.798231292517	59	127
295.0319727891156	295.43832199546483	55	127
295.0319727891156	295.1712925170068	50	127
295.0319727891156	295.798231292517	62	127
295.24095238095236	295.3918820861678	47	127
295.43832199546483	295.577641723356	62	127
295.43832199546483	296.1233106575964	43	127
295.63566893424036	295.7750113378685	59	127
295.798231292517	297.33074829931974	59	127
295.798231292517	297.33074829931974	62	127
295.798231292517	296.901179138322	55	127
296.1233106575964	296.22780045351476	50	127
296.28585034013605	296.41356009070296	47	127
296.4832199546485	297.8531972789116	43	127
296.901179138322	297.0753287981859	62	127
297.121768707483	297.27267573696145	59	127
297.33074829931974	299.107052154195	59	127
297.33074829931974	298.7007029478458	55	127
297.33074829931974	299.107052154195	62	127
297.8531972789116	298.01573696145124	50	127
298.0737868480726	298.224716553288	47	127
298.2827664399093	299.55986394557823	43	127
298.7007029478458	298.8400453514739	65	127
298.89809523809527	299.0606349206349	62	127
299.1186848072562	301.9282993197279	59	127
299.1186848072562	301.9282993197279	55	127
299.1186848072562	301.9282993197279	62	127
299.55986394557823	299.7456235827664	53	127
299.7920634920635	300.14036281179136	50	127
300.14036281179136	301.9282993197279	43	127
302.5552380952381	302.7526077097506	60	127
302.5552380952381	302.7526077097506	67	127
302.5552380952381	302.7526077097506	64	127
302.5552380952381	302.7526077097506	48	127
302.9615873015873	303.1473469387755	64	127
302.9615873015873	303.1473469387755	72	127
302.9615873015873	303.1473469387755	67	127
302.9615873015873	303.1473469387755	60	127
303.35632653061225	303.90199546485263	67	127
303.35632653061225	303.90199546485263	60	127
303.35632653061225	303.90199546485263	76	127
303.35632653061225	303.90199546485263	64	127
303.9135827664399	304.0993650793651	67	127
303.9135827664399	304.006485260771	74	127
303.9135827664399	304.0993650793651	60	127
303.9135827664399	304.0993650793651	64	127
304.006485260771	304.0993650793651	72	127
304.11097505668937	304.2502947845805	62	127
304.11097505668937	304.2502947845805	65	127
304.11097505668937	304.2502947845805	71	127
304.11097505668937	304.2502947845805	67	127
304.30834467120184	304.4360544217687	72	127
304.30834467120184	304.4360544217687	64	127
304.30834467120184	304.4360544217687	60	127
304.30834467120184	304.4360544217687	67	127
304.49410430839004	304.62181405895694	74	127
304.49410430839004	304.62181405895694	59	127
304.49410430839004	304.62181405895694	62	127
304.49410430839004	304.62181405895694	67	127
304.67986394557823	304.8307709750567	67	127
304.67986394557823	304.8307709750567	76	127
304.67986394557823	304.8307709750567	57	127
304.67986394557823	304.8307709750567	60	127
304.88884353741497	305.08621315192744	77	127
304.88884353741497	305.08621315192744	67	127
304.88884353741497	305.08621315192744	59	127
304.88884353741497	305.08621315192744	55	127
305.6899319727891	305.8756916099773	48	127
305.6899319727891	305.8756916099773	64	127
305.6899319727891	305.8756916099773	67	127
306.08467120181405	306.25882086167803	67	127
306.08467120181405	306.25882086167803	64	127
306.08467120181405	306.25882086167803	60	127
306.08467120181405	306.25882086167803	72	127
306.44458049886623	307.21083900226756	64	127
306.44458049886623	307.21083900226756	60	127
306.44458049886623	307.21083900226756	67	127
306.44458049886623	307.21083900226756	76	127
307.22244897959183	307.4198185941043	42	127
307.22244897959183	307.4198185941043	57	127
307.22244897959183	307.4198185941043	62	127
307.66362811791385	307.9074149659864	62	127
307.66362811791385	307.9074149659864	57	127
307.66362811791385	307.9074149659864	54	127
307.66362811791385	307.9074149659864	69	127
308.11641723356007	308.7201133786848	54	127
308.11641723356007	308.7201133786848	57	127
308.11641723356007	308.92909297052154	72	127
308.11641723356007	308.92909297052154	62	127
308.731746031746	308.92909297052154	54	127
308.731746031746	308.92909297052154	50	127
308.92909297052154	309.16131519274376	71	127
308.92909297052154	309.16131519274376	55	127
308.92909297052154	309.16131519274376	62	127
308.92909297052154	309.16131519274376	59	127
309.38190476190476	309.5560544217687	79	127
309.38190476190476	309.5560544217687	67	127
309.38190476190476	309.5560544217687	71	127
309.38190476190476	309.5560544217687	74	127
309.70698412698414	310.2526303854875	83	127
309.70698412698414	310.2526303854875	71	127
309.70698412698414	310.2526303854875	67	127
309.70698412698414	310.2526303854875	74	127
310.2526303854875	310.4035827664399	74	127
310.2526303854875	310.3455328798186	81	127
310.2526303854875	310.4035827664399	67	127
310.3455328798186	310.4035827664399	79	127
310.4151927437642	310.5660997732426	74	127
310.4151927437642	310.5660997732426	78	127
310.4151927437642	310.5660997732426	72	127
310.4151927437642	310.5660997732426	69	127
310.6241723356009	310.7634693877551	67	127
310.6241723356009	310.7634693877551	71	127
310.6241723356009	310.7634693877551	74	127
310.6241723356009	310.7634693877551	79	127
310.8215419501134	310.98408163265304	66	127
310.8215419501134	310.98408163265304	81	127
310.8215419501134	310.98408163265304	74	127
310.8215419501134	310.98408163265304	69	127
311.0421315192744	311.1814512471655	67	127
311.0421315192744	311.1814512471655	83	127
311.0421315192744	311.1814512471655	74	127
311.0421315192744	311.1814512471655	64	127
311.23950113378686	311.39043083900225	62	127
311.23950113378686	311.39043083900225	66	127
311.23950113378686	311.39043083900225	74	127
311.23950113378686	311.39043083900225	84	127
312.05219954648527	312.24956916099774	69	127
312.05219954648527	312.24956916099774	74	127
312.05219954648527	312.24956916099774	50	127
312.05219954648527	312.24956916099774	66	127
312.4469387755102	312.6443083900227	74	127
312.4469387755102	312.6443083900227	81	127
312.4469387755102	312.6443083900227	66	127
312.4469387755102	312.6443083900227	62	127
312.8532879818594	313.28285714285715	84	127
312.8532879818594	313.28285714285715	74	127
312.8532879818594	313.28285714285715	66	127
312.8532879818594	313.28285714285715	62	127
313.28285714285715	313.46861678004535	66	127
313.28285714285715	313.46861678004535	74	127
313.28285714285715	313.46861678004535	60	127
313.4802267573696	313.63113378684807	59	127
313.4802267573696	313.63113378684807	74	127
313.4802267573696	313.63113378684807	86	127
313.4802267573696	313.63113378684807	67	127
313.68920634920636	313.84013605442175	83	127
313.68920634920636	313.84013605442175	64	127
313.68920634920636	313.84013605442175	67	127
313.68920634920636	313.84013605442175	71	127
313.8981859410431	314.0374829931973	84	127
313.8981859410431	314.0374829931973	72	127
313.8981859410431	314.0374829931973	60	127
313.8981859410431	314.0374829931973	69	127
314.0839455782313	314.23485260770974	67	127
314.0839455782313	314.23485260770974	69	127
314.0839455782313	314.23485260770974	62	127
314.0839455782313	314.23485260770974	81	127
314.28131519274376	314.4322448979592	86	127
314.28131519274376	314.4322448979592	67	127
314.28131519274376	314.4322448979592	74	127
314.28131519274376	314.4322448979592	59	127
314.46707482993196	314.6180045351474	71	127
314.46707482993196	314.6180045351474	67	127
314.46707482993196	314.6180045351474	64	127
314.46707482993196	314.6180045351474	83	127
314.6644444444444	314.79215419501134	84	127
314.6644444444444	314.79215419501134	72	127
314.6644444444444	314.79215419501134	69	127
314.6644444444444	314.79215419501134	60	127
314.8501814058957	314.97791383219953	69	127
314.8501814058957	314.97791383219953	62	127
314.8501814058957	314.97791383219953	81	127
314.8501814058957	314.97791383219953	67	127
315.0359637188209	315.175283446712	59	127
315.0359637188209	315.175283446712	67	127
315.0359637188209	315.175283446712	74	127
315.0359637188209	315.175283446712	86	127
315.23333333333335	315.3378231292517	52	127
315.23333333333335	315.3378231292517	83	127
315.23333333333335	315.3378231292517	79	127
315.23333333333335	315.3378231292517	67	127
315.395873015873	315.5235827664399	64	127
315.395873015873	315.5235827664399	48	127
315.395873015873	315.5235827664399	84	127
315.395873015873	315.5235827664399	76	127
315.57	315.69773242630384	78	127
315.57	315.69773242630384	66	127
315.57	315.69773242630384	50	127
315.57	315.69773242630384	81	127
315.7441723356009	315.8951020408163	79	127
315.7441723356009	315.8951020408163	67	127
315.7441723356009	315.8951020408163	47	127
315.7441723356009	315.8951020408163	86	127
315.95315192743766	316.0924716553288	67	127
315.95315192743766	316.0924716553288	52	127
315.95315192743766	316.0924716553288	79	127
315.95315192743766	316.0924716553288	83	127
316.13891156462586	316.26662131519276	48	127
316.13891156462586	316.26662131519276	76	127
316.13891156462586	316.26662131519276	64	127
316.13891156462586	316.26662131519276	84	127
316.3130612244898	316.4407709750567	50	127
316.3130612244898	316.4407709750567	81	127
316.3130612244898	316.4407709750567	66	127
316.3130612244898	316.4407709750567	78	127
316.498820861678	316.59167800453514	67	127
316.498820861678	316.59167800453514	47	127
316.498820861678	316.59167800453514	86	127
316.498820861678	316.59167800453514	79	127
316.59167800453514	316.68458049886624	67	127
316.59167800453514	316.68458049886624	47	127
316.59167800453514	316.68458049886624	79	127
316.59167800453514	316.68458049886624	86	127
316.68458049886624	316.77746031746034	52	127
316.68458049886624	316.77746031746034	79	127
316.68458049886624	316.77746031746034	83	127
316.68458049886624	316.77746031746034	67	127
316.77746031746034	316.87034013605444	67	127
316.77746031746034	316.87034013605444	79	127
316.77746031746034	316.87034013605444	52	127
316.77746031746034	316.87034013605444	83	127
316.87034013605444	316.96321995464854	48	127
316.87034013605444	316.96321995464854	76	127
316.87034013605444	316.96321995464854	84	127
316.87034013605444	316.96321995464854	64	127
316.96321995464854	317.05609977324264	64	127
316.96321995464854	317.05609977324264	48	127
316.96321995464854	317.05609977324264	76	127
316.96321995464854	317.05609977324264	84	127
317.05609977324264	317.14897959183673	78	127
317.05609977324264	317.14897959183673	66	127
317.05609977324264	317.14897959183673	50	127
317.05609977324264	317.14897959183673	81	127
317.14897959183673	317.2534693877551	50	127
317.14897959183673	317.2534693877551	78	127
317.14897959183673	317.2534693877551	81	127
317.14897959183673	317.2534693877551	66	127
317.2534693877551	317.3463492063492	79	127
317.2534693877551	317.3463492063492	47	127
317.2534693877551	317.3463492063492	67	127
317.2534693877551	317.3463492063492	86	127
317.3463492063492	317.4392290249433	67	127
317.3463492063492	317.4392290249433	47	127
317.3463492063492	317.4392290249433	79	127
317.3463492063492	317.4392290249433	86	127
317.45083900226757	317.5321088435374	67	127
317.45083900226757	317.5321088435374	83	127
317.45083900226757	317.5321088435374	79	127
317.45083900226757	317.5321088435374	52	127
317.54371882086167	317.601768707483	79	127
317.54371882086167	317.601768707483	67	127
317.54371882086167	317.601768707483	52	127
317.54371882086167	317.601768707483	83	127
317.6133560090703	317.6946485260771	64	127
317.6133560090703	317.6946485260771	76	127
317.6133560090703	317.6946485260771	48	127
317.6133560090703	317.6946485260771	84	127
317.7062585034014	317.7991383219955	64	127
317.7062585034014	317.7991383219955	84	127
317.7062585034014	317.7991383219955	76	127
317.7062585034014	317.7991383219955	48	127
317.7991383219955	317.8920181405896	78	127
317.7991383219955	317.8920181405896	81	127
317.7991383219955	317.8920181405896	66	127
317.7991383219955	317.8920181405896	50	127
317.8920181405896	317.9732879818594	50	127
317.8920181405896	317.9732879818594	78	127
317.8920181405896	317.9732879818594	81	127
317.8920181405896	317.9732879818594	66	127
317.9732879818594	318.0661678004535	67	127
317.9732879818594	318.1126077097506	79	127
317.9732879818594	318.0661678004535	86	127
317.9732879818594	318.1590476190476	43	127
318.0661678004535	318.1590476190476	86	127
318.0661678004535	318.1590476190476	67	127
318.1590476190476	318.2519274376417	83	127
318.1590476190476	318.2519274376417	71	127
318.1590476190476	318.2519274376417	71	127
318.1590476190476	318.3448072562358	59	127
318.2519274376417	318.3448072562358	83	127
318.2519274376417	318.3448072562358	71	127
318.2519274376417	318.3448072562358	71	127
318.3448072562358	318.53054421768707	55	127
318.3448072562358	318.43766439909297	67	127
318.3448072562358	318.43766439909297	67	127
318.3448072562358	318.43766439909297	79	127
318.43766439909297	318.53054421768707	67	127
318.43766439909297	318.53054421768707	79	127
318.43766439909297	318.53054421768707	67	127
318.53054421768707	318.62344671201816	74	127
318.53054421768707	318.71632653061226	50	127
318.53054421768707	318.62344671201816	62	127
318.53054421768707	318.62344671201816	62	127
318.63503401360543	318.71632653061226	62	127
318.63503401360543	318.71632653061226	74	127
318.63503401360543	318.71632653061226	62	127
318.72793650793653	318.80920634920636	59	127
318.72793650793653	318.90208616780046	47	127
318.72793650793653	318.80920634920636	71	127
318.72793650793653	318.80920634920636	59	127
318.82081632653063	318.90208616780046	71	127
318.82081632653063	318.90208616780046	59	127
318.82081632653063	318.90208616780046	59	127
318.90208616780046	319.08784580498866	43	127
318.90208616780046	318.99496598639456	55	127
318.90208616780046	318.99496598639456	67	127
318.90208616780046	318.99496598639456	55	127
318.99496598639456	319.08784580498866	67	127
318.99496598639456	319.08784580498866	55	127
318.99496598639456	319.08784580498866	55	127
319.08784580498866	319.1691156462585	62	127
319.08784580498866	319.27360544217686	50	127
319.08784580498866	319.1691156462585	62	127
319.08784580498866	319.22716553287984	62	127
319.18072562358276	319.27360544217686	62	127
319.18072562358276	319.27360544217686	62	127
319.27360544217686	319.36648526077096	72	127
319.27360544217686	319.4245351473923	78	127
319.27360544217686	319.4709750566893	38	127
319.27360544217686	319.36648526077096	50	127
319.27360544217686	319.4245351473923	69	127
319.3780952380952	319.4709750566893	72	127
319.3780952380952	319.4709750566893	50	127
319.4709750566893	319.77283446712016	43	127
319.4709750566893	319.77283446712016	62	127
319.4709750566893	319.77283446712016	79	127
319.4709750566893	319.77283446712016	71	127
319.4709750566893	319.77283446712016	55	127
320.2720408163265	320.57390022675736	83	127
320.2720408163265	320.57390022675736	71	127
320.2720408163265	320.57390022675736	67	127
320.2720408163265	320.57390022675736	79	127
320.2720408163265	320.57390022675736	74	127
320.2720408163265	320.57390022675736	55	127
320.2720408163265	320.57390022675736	67	127
321.1079818594104	321.5143310657596	55	127
321.1079818594104	321.5143310657596	43	127
321.1079818594104	321.5143310657596	55	127
324.045306122449	324.1497959183674	67	127
