# onset,offset,note,velocity
1.3924263038548752	1.5665759637188208	60	127
1.3924263038548752	1.7871655328798186	48	127
1.3924263038548752	1.5665759637188208	57	127
1.5781859410430839	1.7871655328798186	60	127
1.5781859410430839	1.7871655328798186	57	127
1.7871655328798186	2.007755102040816	57	127
1.7871655328798186	2.007755102040816	60	127
1.7871655328798186	2.181904761904762	50	127
2.007755102040816	2.181904761904762	60	127
2.007755102040816	2.181904761904762	57	127
2.181904761904762	2.3444444444444446	57	127
2.181904761904762	2.576643990929705	52	127
2.181904761904762	2.3444444444444446	60	127
2.3444444444444446	2.576643990929705	60	127
2.3444444444444446	2.576643990929705	57	127
2.576643990929705	2.750793650793651	57	127
2.576643990929705	2.750793650793651	60	127
2.576643990929705	2.9713832199546486	53	127
2.762380952380952	2.9713832199546486	60	127
2.762380952380952	2.9713832199546486	57	127
2.9829931972789114	4.0859410430839	48	127
2.9829931972789114	3.1687528344671203	60	127
2.9829931972789114	3.1687528344671203	57	127
3.1687528344671203	3.3545124716553287	57	127
3.1687528344671203	3.3545124716553287	60	127
3.3545124716553287	3.5286621315192743	60	127
3.3545124716553287	3.5286621315192743	57	127
3.5286621315192743	3.714421768707483	57	127
3.5286621315192743	3.714421768707483	60	127
3.714421768707483	3.9001814058956916	57	127
3.714421768707483	3.9001814058956916	60	127
3.9117913832199545	4.0859410430839	57	127
3.9117913832199545	4.0859410430839	60	127
4.097551020408163	4.271700680272109	57	127
4.097551020408163	4.271700680272109	60	127
4.097551020408163	4.271700680272109	50	127
4.283310657596372	4.46907029478458	60	127
4.283310657596372	4.46907029478458	57	127
4.283310657596372	4.46907029478458	48	127
4.46907029478458	4.631609977324263	46	127
4.46907029478458	4.631609977324263	60	127
4.46907029478458	4.631609977324263	57	127
4.631609977324263	4.770907029478458	48	127
4.631609977324263	4.817369614512471	60	127
4.631609977324263	4.817369614512471	57	127
4.817369614512471	4.979909297052155	45	127
4.817369614512471	5.037959183673469	60	127
4.817369614512471	5.037959183673469	57	127
5.037959183673469	5.177278911564626	43	127
5.037959183673469	5.223718820861678	60	127
5.037959183673469	5.223718820861678	57	127
5.235328798185941	5.409478458049887	60	127
5.235328798185941	5.409478458049887	57	127
5.235328798185941	5.606848072562358	41	127
5.421065759637188	5.606848072562358	60	127
5.421065759637188	5.606848072562358	57	127
5.606848072562358	5.850634920634921	60	127
5.606848072562358	6.082857142857143	50	127
5.606848072562358	5.850634920634921	57	127
5.850634920634921	6.082857142857143	60	127
5.850634920634921	6.082857142857143	57	127
6.082857142857143	6.280226757369615	57	127
6.082857142857143	6.280226757369615	60	127
6.082857142857143	7.545714285714285	48	127
6.280226757369615	6.4543764172335605	60	127
6.280226757369615	6.4543764172335605	57	127
6.4543764172335605	6.628526077097506	60	127
6.4543764172335605	6.628526077097506	57	127
6.6401360544217685	6.802675736961452	60	127
6.6401360544217685	6.802675736961452	57	127
6.814285714285714	7.000045351473923	57	127
6.814285714285714	7.000045351473923	60	127
7.000045351473923	7.185804988662132	60	127
7.000045351473923	7.185804988662132	57	127
7.185804988662132	7.359954648526077	60	127
7.185804988662132	7.359954648526077	57	127
7.359954648526077	7.545714285714285	60	127
7.359954648526077	7.545714285714285	57	127
7.545714285714285	7.7430839002267575	60	127
7.545714285714285	7.928843537414966	50	127
7.545714285714285	7.7430839002267575	57	127
7.754693877551021	7.928843537414966	60	127
7.754693877551021	7.928843537414966	57	127
7.940453514739229	8.1378231292517	60	127
7.940453514739229	8.1378231292517	57	127
7.940453514739229	8.370022675736962	52	127
8.149433106575964	8.370022675736962	60	127
8.149433106575964	8.370022675736962	57	127
8.370022675736962	8.764761904761905	53	127
8.370022675736962	8.579002267573696	60	127
8.370022675736962	8.579002267573696	57	127
8.579002267573696	8.764761904761905	57	127
8.579002267573696	8.764761904761905	60	127
8.764761904761905	8.915691609977324	57	127
8.764761904761905	9.113061224489796	55	127
8.764761904761905	8.915691609977324	60	127
8.915691609977324	9.113061224489796	57	127
8.915691609977324	9.113061224489796	60	127
9.113061224489796	9.287210884353742	60	127
9.113061224489796	10.204399092970522	53	127
9.113061224489796	9.287210884353742	57	127
9.298820861678005	9.461360544217687	57	127
9.298820861678005	9.461360544217687	60	127
9.461360544217687	9.62390022675737	57	127
9.461360544217687	9.62390022675737	60	127
9.62390022675737	9.809659863945578	57	127
9.62390022675737	9.809659863945578	60	127
9.809659863945578	10.00702947845805	60	127
9.809659863945578	10.00702947845805	57	127
10.00702947845805	10.204399092970522	60	127
10.00702947845805	10.204399092970522	57	127
10.204399092970522	10.401768707482994	52	127
10.204399092970522	10.401768707482994	57	127
10.204399092970522	10.401768707482994	60	127
10.413378684807256	10.587528344671203	57	127
10.413378684807256	10.587528344671203	60	127
10.413378684807256	10.587528344671203	50	127
10.599138321995465	10.784897959183674	60	127
10.599138321995465	10.784897959183674	57	127
10.599138321995465	10.784897959183674	48	127
10.784897959183674	10.912607709750567	50	127
10.784897959183674	10.959047619047618	57	127
10.784897959183674	10.959047619047618	60	127
10.959047619047618	11.133197278911565	57	127
10.959047619047618	11.133197278911565	60	127
10.959047619047618	11.086757369614512	52	127
11.133197278911565	11.260907029478458	53	127
11.133197278911565	11.30734693877551	57	127
11.133197278911565	11.30734693877551	60	127
11.30734693877551	11.678866213151927	55	127
11.30734693877551	11.481496598639456	60	127
11.30734693877551	11.481496598639456	58	127
11.504716553287983	11.678866213151927	58	127
11.504716553287983	11.678866213151927	60	127
11.690453514739229	11.84140589569161	58	127
11.690453514739229	12.027165532879819	57	127
11.690453514739229	11.84140589569161	60	127
11.84140589569161	12.027165532879819	60	127
11.84140589569161	12.027165532879819	58	127
12.027165532879819	13.501632653061224	55	127
12.027165532879819	12.212925170068027	60	127
12.027165532879819	12.212925170068027	58	127
12.212925170068027	12.387074829931972	60	127
12.212925170068027	12.387074829931972	58	127
12.387074829931972	12.572834467120181	58	127
12.387074829931972	12.572834467120181	60	127
12.572834467120181	12.75859410430839	60	127
12.572834467120181	12.75859410430839	58	127
12.770204081632652	12.944353741496599	58	127
12.770204081632652	12.944353741496599	60	127
12.955963718820861	13.14172335600907	60	127
12.955963718820861	13.14172335600907	58	127
13.14172335600907	13.315873015873017	58	127
13.14172335600907	13.315873015873017	60	127
13.315873015873017	13.501632653061224	58	127
13.315873015873017	13.501632653061224	60	127
13.501632653061224	13.687392290249432	55	127
13.501632653061224	13.687392290249432	60	127
13.501632653061224	13.873151927437641	74	127
13.501632653061224	13.687392290249432	58	127
13.687392290249432	13.873151927437641	60	127
13.687392290249432	13.873151927437641	58	127
13.687392290249432	13.873151927437641	55	127
13.873151927437641	14.05891156462585	60	127
13.873151927437641	14.244671201814059	76	127
13.873151927437641	14.05891156462585	55	127
13.873151927437641	14.05891156462585	58	127
14.070521541950113	14.244671201814059	55	127
14.070521541950113	14.244671201814059	60	127
14.070521541950113	14.244671201814059	58	127
14.256281179138321	14.62780045351474	77	127
14.256281179138321	14.44204081632653	60	127
14.256281179138321	14.44204081632653	58	127
14.256281179138321	14.44204081632653	55	127
14.44204081632653	14.62780045351474	60	127
14.44204081632653	14.62780045351474	55	127
14.44204081632653	14.62780045351474	58	127
14.62780045351474	14.813560090702948	55	127
14.62780045351474	14.813560090702948	58	127
14.62780045351474	14.813560090702948	60	127
14.62780045351474	14.987709750566893	79	127
14.813560090702948	14.987709750566893	60	127
14.813560090702948	14.987709750566893	55	127
14.813560090702948	14.987709750566893	58	127
14.987709750566893	15.16185941043084	60	127
14.987709750566893	16.079024943310657	77	127
14.987709750566893	15.16185941043084	58	127
14.987709750566893	15.16185941043084	55	127
15.173469387755102	15.347619047619048	58	127
15.173469387755102	15.347619047619048	55	127
15.173469387755102	15.347619047619048	60	127
15.35922902494331	15.533378684807257	58	127
15.35922902494331	15.533378684807257	55	127
15.35922902494331	15.533378684807257	60	127
15.54498866213152	15.730748299319728	55	127
15.54498866213152	15.730748299319728	58	127
15.54498866213152	15.730748299319728	60	127
15.730748299319728	15.89328798185941	60	127
15.730748299319728	15.89328798185941	58	127
15.730748299319728	15.89328798185941	55	127
15.89328798185941	16.079024943310657	60	127
15.89328798185941	16.079024943310657	55	127
15.89328798185941	16.079024943310657	58	127
16.079024943310657	16.264807256235827	60	127
16.079024943310657	16.264807256235827	55	127
16.079024943310657	16.264807256235827	58	127
16.079024943310657	16.264807256235827	76	127
16.264807256235827	16.462154195011337	58	127
16.264807256235827	16.462154195011337	74	127
16.264807256235827	16.462154195011337	60	127
16.264807256235827	16.462154195011337	55	127
16.473786848072564	16.659546485260773	58	127
16.473786848072564	16.659546485260773	72	127
16.473786848072564	16.659546485260773	60	127
16.473786848072564	16.659546485260773	55	127
16.671156462585035	16.79886621315193	74	127
16.671156462585035	16.856916099773244	60	127
16.671156462585035	16.856916099773244	58	127
16.671156462585035	16.856916099773244	55	127
16.856916099773244	17.031043083900226	60	127
16.856916099773244	16.984625850340137	76	127
16.856916099773244	17.031043083900226	58	127
16.856916099773244	17.031043083900226	55	127
17.031043083900226	17.18199546485261	77	127
17.031043083900226	17.228412698412697	55	127
17.031043083900226	17.228412698412697	58	127
17.031043083900226	17.228412698412697	60	127
17.228412698412697	17.634784580498867	79	127
17.228412698412697	17.449024943310658	55	127
17.228412698412697	17.449024943310658	58	127
17.228412698412697	17.449024943310658	60	127
17.449024943310658	17.634784580498867	55	127
17.449024943310658	17.634784580498867	60	127
17.449024943310658	17.634784580498867	58	127
17.634784580498867	17.820544217687075	55	127
17.634784580498867	18.017913832199547	81	127
17.634784580498867	17.820544217687075	60	127
17.634784580498867	17.820544217687075	58	127
17.832154195011338	18.017913832199547	58	127
17.832154195011338	18.017913832199547	60	127
17.832154195011338	18.017913832199547	55	127
18.02952380952381	19.56204081632653	79	127
18.02952380952381	18.23848072562358	55	127
18.02952380952381	18.23848072562358	58	127
18.02952380952381	18.23848072562358	60	127
18.02952380952381	18.23848072562358	64	127
18.23848072562358	18.435873015873018	58	127
18.23848072562358	18.435873015873018	60	127
18.23848072562358	18.435873015873018	64	127
18.23848072562358	18.435873015873018	55	127
18.435873015873018	18.621609977324262	60	127
18.435873015873018	18.621609977324262	55	127
18.435873015873018	18.621609977324262	64	127
18.435873015873018	18.621609977324262	58	127
18.621609977324262	18.79578231292517	64	127
18.621609977324262	18.79578231292517	60	127
18.621609977324262	18.79578231292517	55	127
18.621609977324262	18.79578231292517	58	127
18.79578231292517	18.981541950113378	60	127
18.79578231292517	18.981541950113378	64	127
18.79578231292517	18.981541950113378	55	127
18.79578231292517	18.981541950113378	58	127
18.99315192743764	19.17891156462585	60	127
18.99315192743764	19.17891156462585	64	127
18.99315192743764	19.17891156462585	55	127
18.99315192743764	19.17891156462585	58	127
19.19049886621315	19.36467120181406	58	127
19.19049886621315	19.36467120181406	64	127
19.19049886621315	19.36467120181406	55	127
19.19049886621315	19.36467120181406	60	127
19.37628117913832	19.56204081632653	64	127
19.37628117913832	19.56204081632653	60	127
19.37628117913832	19.56204081632653	55	127
19.37628117913832	19.56204081632653	58	127
19.56204081632653	19.736190476190476	58	127
19.56204081632653	19.736190476190476	60	127
19.56204081632653	19.736190476190476	64	127
19.56204081632653	19.921950113378685	79	127
19.56204081632653	19.736190476190476	55	127
19.736190476190476	19.921950113378685	64	127
19.736190476190476	19.921950113378685	60	127
19.736190476190476	19.921950113378685	58	127
19.736190476190476	19.921950113378685	55	127
19.921950113378685	20.107709750566894	64	127
19.921950113378685	20.107709750566894	60	127
19.921950113378685	20.107709750566894	58	127
19.921950113378685	20.107709750566894	55	127
19.921950113378685	20.293469387755103	81	127
20.107709750566894	20.293469387755103	55	127
20.107709750566894	20.293469387755103	64	127
20.107709750566894	20.293469387755103	60	127
20.107709750566894	20.293469387755103	58	127
20.305079365079365	20.490839002267574	64	127
20.305079365079365	20.676598639455783	82	127
20.305079365079365	20.490839002267574	60	127
20.305079365079365	20.490839002267574	58	127
20.305079365079365	20.490839002267574	55	127
20.502448979591836	20.676598639455783	60	127
20.502448979591836	20.676598639455783	64	127
20.502448979591836	20.676598639455783	55	127
20.502448979591836	20.676598639455783	58	127
20.676598639455783	20.86235827664399	64	127
20.676598639455783	21.0481179138322	84	127
20.676598639455783	20.86235827664399	55	127
20.676598639455783	20.86235827664399	58	127
20.676598639455783	20.86235827664399	60	127
20.86235827664399	21.0481179138322	55	127
20.86235827664399	21.0481179138322	58	127
20.86235827664399	21.0481179138322	60	127
20.86235827664399	21.0481179138322	64	127
21.0481179138322	21.23387755102041	60	127
21.0481179138322	22.139455782312925	82	127
21.0481179138322	21.23387755102041	55	127
21.0481179138322	21.23387755102041	58	127
21.0481179138322	21.23387755102041	64	127
21.23387755102041	21.41963718820862	60	127
21.23387755102041	21.41963718820862	64	127
21.23387755102041	21.41963718820862	58	127
21.23387755102041	21.41963718820862	55	127
21.41963718820862	21.605396825396827	60	127
21.41963718820862	21.605396825396827	55	127
21.41963718820862	21.605396825396827	58	127
21.41963718820862	21.605396825396827	64	127
21.61700680272109	21.79113378684807	55	127
21.61700680272109	21.79113378684807	64	127
21.61700680272109	21.79113378684807	60	127
21.61700680272109	21.79113378684807	58	127
21.8027664399093	21.97691609977324	60	127
21.8027664399093	21.97691609977324	64	127
21.8027664399093	21.97691609977324	55	127
21.8027664399093	21.97691609977324	58	127
21.97691609977324	22.139455782312925	58	127
21.97691609977324	22.139455782312925	64	127
21.97691609977324	22.139455782312925	60	127
21.97691609977324	22.139455782312925	55	127
22.139455782312925	22.313605442176872	81	127
22.139455782312925	22.313605442176872	64	127
22.139455782312925	22.313605442176872	60	127
22.139455782312925	22.313605442176872	58	127
22.139455782312925	22.313605442176872	55	127
22.313605442176872	22.487732426303854	64	127
22.313605442176872	22.487732426303854	79	127
22.313605442176872	22.487732426303854	60	127
22.313605442176872	22.487732426303854	58	127
22.313605442176872	22.487732426303854	55	127
22.487732426303854	22.68512471655329	77	127
22.487732426303854	22.68512471655329	64	127
22.487732426303854	22.68512471655329	60	127
22.487732426303854	22.68512471655329	58	127
22.487732426303854	22.68512471655329	55	127
22.696734693877552	22.824444444444445	79	127
22.696734693877552	22.859274376417233	64	127
22.696734693877552	22.859274376417233	60	127
22.696734693877552	22.859274376417233	58	127
22.696734693877552	22.859274376417233	55	127
22.870861678004534	23.04503401360544	55	127
22.870861678004534	22.998571428571427	81	127
22.870861678004534	23.04503401360544	64	127
22.870861678004534	23.04503401360544	60	127
22.870861678004534	23.04503401360544	58	127
23.056621315192743	23.253990929705214	64	127
23.056621315192743	23.253990929705214	60	127
23.056621315192743	23.207573696145126	82	127
23.056621315192743	23.253990929705214	58	127
23.056621315192743	23.253990929705214	55	127
23.253990929705214	23.439750566893423	64	127
23.253990929705214	23.439750566893423	60	127
23.253990929705214	23.439750566893423	58	127
23.253990929705214	23.439750566893423	55	127
23.253990929705214	23.63714285714286	84	127
23.439750566893423	23.63714285714286	64	127
23.439750566893423	23.63714285714286	60	127
23.439750566893423	23.63714285714286	58	127
23.439750566893423	23.63714285714286	55	127
23.63714285714286	23.83451247165533	58	127
23.63714285714286	23.83451247165533	64	127
23.63714285714286	23.83451247165533	60	127
23.63714285714286	23.83451247165533	55	127
23.63714285714286	24.02027210884354	86	127
23.83451247165533	24.02027210884354	60	127
23.83451247165533	24.02027210884354	58	127
23.83451247165533	24.02027210884354	64	127
23.83451247165533	24.02027210884354	55	127
24.0318820861678	24.206031746031748	58	127
24.0318820861678	24.206031746031748	64	127
24.0318820861678	24.206031746031748	60	127
24.0318820861678	24.206031746031748	55	127
24.0318820861678	25.471519274376416	84	127
24.21764172335601	24.40340136054422	60	127
24.21764172335601	24.40340136054422	58	127
24.21764172335601	24.40340136054422	55	127
24.21764172335601	24.40340136054422	64	127
24.40340136054422	24.577551020408162	55	127
24.40340136054422	24.577551020408162	64	127
24.40340136054422	24.577551020408162	60	127
24.40340136054422	24.577551020408162	58	127
24.577551020408162	24.740090702947846	60	127
24.577551020408162	24.740090702947846	58	127
24.577551020408162	24.740090702947846	64	127
24.577551020408162	24.740090702947846	55	127
24.740090702947846	24.925850340136055	58	127
24.740090702947846	24.925850340136055	60	127
24.740090702947846	24.925850340136055	64	127
24.740090702947846	24.925850340136055	55	127
24.925850340136055	25.088390022675735	55	127
24.925850340136055	25.088390022675735	64	127
24.925850340136055	25.088390022675735	60	127
24.925850340136055	25.088390022675735	58	127
25.088390022675735	25.28575963718821	60	127
25.088390022675735	25.28575963718821	58	127
25.088390022675735	25.28575963718821	55	127
25.088390022675735	25.28575963718821	64	127
25.297369614512473	25.471519274376416	64	127
25.297369614512473	25.471519274376416	60	127
25.297369614512473	25.471519274376416	58	127
25.297369614512473	25.471519274376416	55	127
25.48312925170068	25.66888888888889	48	127
25.48312925170068	26.945986394557824	86	127
25.48312925170068	25.66888888888889	70	127
25.48312925170068	25.66888888888889	64	127
25.48312925170068	25.66888888888889	58	127
25.48312925170068	25.66888888888889	55	127
25.66888888888889	25.83142857142857	64	127
25.66888888888889	25.83142857142857	58	127
25.66888888888889	25.83142857142857	48	127
25.66888888888889	25.83142857142857	55	127
25.66888888888889	25.83142857142857	70	127
25.83142857142857	26.01718820861678	64	127
25.83142857142857	26.01718820861678	58	127
25.83142857142857	26.01718820861678	48	127
25.83142857142857	26.01718820861678	55	127
25.83142857142857	26.01718820861678	70	127
26.01718820861678	26.21455782312925	64	127
26.01718820861678	26.21455782312925	58	127
26.01718820861678	26.21455782312925	48	127
26.01718820861678	26.21455782312925	55	127
26.01718820861678	26.21455782312925	70	127
26.21455782312925	26.40031746031746	64	127
26.21455782312925	26.40031746031746	58	127
26.21455782312925	26.40031746031746	48	127
26.21455782312925	26.40031746031746	55	127
26.21455782312925	26.40031746031746	70	127
26.411927437641722	26.574467120181406	55	127
26.411927437641722	26.574467120181406	70	127
26.411927437641722	26.574467120181406	64	127
26.411927437641722	26.574467120181406	58	127
26.411927437641722	26.574467120181406	48	127
26.58607709750567	26.748616780045353	64	127
26.58607709750567	26.748616780045353	55	127
26.58607709750567	26.748616780045353	70	127
26.58607709750567	26.748616780045353	58	127
26.58607709750567	26.748616780045353	48	127
26.760226757369615	26.945986394557824	48	127
26.760226757369615	26.945986394557824	55	127
26.760226757369615	26.945986394557824	64	127
26.760226757369615	26.945986394557824	58	127
26.760226757369615	26.945986394557824	70	127
26.945986394557824	27.131746031746033	36	127
26.945986394557824	27.131746031746033	48	127
26.945986394557824	28.408843537414967	88	127
26.945986394557824	27.131746031746033	67	127
26.945986394557824	27.131746031746033	70	127
26.945986394557824	27.131746031746033	60	127
26.945986394557824	27.131746031746033	64	127
26.945986394557824	28.408843537414967	76	127
27.143356009070295	27.329115646258504	60	127
27.143356009070295	27.329115646258504	64	127
27.143356009070295	27.329115646258504	36	127
27.143356009070295	27.329115646258504	48	127
27.143356009070295	27.329115646258504	70	127
27.143356009070295	27.329115646258504	67	127
27.329115646258504	27.480045351473922	60	127
27.329115646258504	27.480045351473922	67	127
27.329115646258504	27.480045351473922	70	127
27.329115646258504	27.480045351473922	64	127
27.329115646258504	27.480045351473922	36	127
27.329115646258504	27.480045351473922	48	127
27.491655328798185	27.677414965986394	60	127
27.491655328798185	27.677414965986394	64	127
27.491655328798185	27.677414965986394	36	127
27.491655328798185	27.677414965986394	48	127
27.491655328798185	27.677414965986394	67	127
27.491655328798185	27.677414965986394	70	127
27.677414965986394	27.85156462585034	60	127
27.677414965986394	27.85156462585034	64	127
27.677414965986394	27.85156462585034	36	127
27.677414965986394	27.85156462585034	48	127
27.677414965986394	27.85156462585034	67	127
27.677414965986394	27.85156462585034	70	127
27.85156462585034	28.014104308390024	60	127
27.85156462585034	28.014104308390024	64	127
27.85156462585034	28.014104308390024	36	127
27.85156462585034	28.014104308390024	48	127
27.85156462585034	28.014104308390024	70	127
27.85156462585034	28.014104308390024	67	127
28.014104308390024	28.211473922902496	67	127
28.014104308390024	28.211473922902496	70	127
28.014104308390024	28.211473922902496	60	127
28.014104308390024	28.211473922902496	64	127
28.014104308390024	28.211473922902496	36	127
28.014104308390024	28.211473922902496	48	127
28.211473922902496	28.408843537414967	67	127
28.211473922902496	28.408843537414967	70	127
28.211473922902496	28.408843537414967	60	127
28.211473922902496	28.408843537414967	64	127
28.211473922902496	28.408843537414967	36	127
28.211473922902496	28.408843537414967	48	127
28.42045351473923	29.627891156462585	60	127
28.42045351473923	29.627891156462585	41	127
28.42045351473923	29.627891156462585	89	127
28.42045351473923	29.627891156462585	77	127
28.42045351473923	29.627891156462585	65	127
28.42045351473923	29.627891156462585	69	127
29.627891156462585	30.05746031746032	65	127
29.627891156462585	30.05746031746032	60	127
29.627891156462585	30.05746031746032	53	127
29.627891156462585	30.05746031746032	45	127
30.06907029478458	30.208390022675736	74	127
30.06907029478458	30.208390022675736	62	127
30.06907029478458	30.208390022675736	65	127
30.06907029478458	30.208390022675736	53	127
30.06907029478458	30.208390022675736	46	127
30.475419501133786	30.614739229024945	70	127
30.475419501133786	30.614739229024945	58	127
30.475419501133786	30.614739229024945	53	127
30.475419501133786	30.614739229024945	50	127
30.858548752834466	31.717687074829932	69	127
30.858548752834466	31.717687074829932	60	127
30.858548752834466	31.717687074829932	53	127
30.858548752834466	31.717687074829932	48	127
31.717687074829932	31.845396825396826	74	127
31.717687074829932	31.845396825396826	62	127
31.717687074829932	31.845396825396826	58	127
32.112426303854875	32.228526077097506	70	127
32.112426303854875	32.228526077097506	65	127
32.112426303854875	32.228526077097506	62	127
32.48394557823129	33.2037641723356	69	127
32.48394557823129	33.2037641723356	65	127
32.48394557823129	33.2037641723356	60	127
33.215374149659866	33.366303854875284	74	127
33.215374149659866	33.366303854875284	62	127
33.215374149659866	33.366303854875284	53	127
33.215374149659866	33.366303854875284	46	127
33.63333333333333	33.77265306122449	65	127
33.63333333333333	33.77265306122449	70	127
33.63333333333333	33.77265306122449	58	127
33.63333333333333	33.77265306122449	50	127
34.062879818594105	34.88721088435374	65	127
34.062879818594105	34.88721088435374	68	127
34.062879818594105	34.88721088435374	59	127
34.062879818594105	34.88721088435374	50	127
34.88721088435374	35.781179138321995	67	127
34.88721088435374	35.781179138321995	64	127
34.88721088435374	35.781179138321995	60	127
34.88721088435374	35.781179138321995	52	127
35.781179138321995	36.64031746031746	76	127
35.781179138321995	36.64031746031746	67	127
35.781179138321995	36.64031746031746	52	127
35.781179138321995	36.64031746031746	48	127
36.651927437641724	36.79124716553288	79	127
36.651927437641724	36.79124716553288	70	127
36.651927437641724	36.79124716553288	52	127
36.651927437641724	36.79124716553288	49	127
37.035056689342404	37.17437641723356	70	127
37.035056689342404	37.17437641723356	67	127
37.035056689342404	37.17437641723356	61	127
37.035056689342404	37.17437641723356	52	127
37.40657596371882	38.138004535147395	53	127
37.40657596371882	38.138004535147395	69	127
37.40657596371882	38.881020408163266	65	127
37.40657596371882	38.881020408163266	62	127
38.138004535147395	38.881020408163266	56	127
38.138004535147395	38.881020408163266	71	127
38.881020408163266	39.78662131519275	77	127
38.881020408163266	39.78662131519275	68	127
38.881020408163266	39.78662131519275	59	127
38.881020408163266	39.78662131519275	53	127
39.78662131519275	39.9259410430839	64	127
39.78662131519275	39.9259410430839	82	127
39.78662131519275	39.9259410430839	58	127
39.78662131519275	39.9259410430839	55	127
40.204580498866214	40.37873015873016	73	127
40.204580498866214	40.37873015873016	67	127
40.204580498866214	40.37873015873016	64	127
40.204580498866214	40.37873015873016	58	127
40.69219954648526	41.60938775510204	57	127
40.69219954648526	41.60938775510204	72	127
40.69219954648526	41.60938775510204	66	127
40.69219954648526	42.48013605442177	63	127
41.620997732426304	42.48013605442177	60	127
41.620997732426304	42.48013605442177	78	127
41.620997732426304	42.48013605442177	69	127
42.48013605442177	43.432154195011336	67	127
42.48013605442177	45.15043083900227	79	127
42.48013605442177	43.432154195011336	62	127
42.48013605442177	43.432154195011336	59	127
43.432154195011336	45.15043083900227	67	127
43.432154195011336	44.31451247165533	61	127
43.432154195011336	44.31451247165533	58	127
44.31451247165533	45.15043083900227	58	127
44.31451247165533	46.85709750566893	55	127
45.15043083900227	46.85709750566893	72	127
45.15043083900227	46.85709750566893	64	127
45.15043083900227	46.85709750566893	48	127
45.15043083900227	46.85709750566893	58	127
46.91514739229025	53.1497052154195	41	127
46.91514739229025	48.18063492063492	72	127
46.91514739229025	48.18063492063492	69	127
46.91514739229025	53.1497052154195	48	127
46.91514739229025	51.67523809523809	57	127
48.18063492063492	48.38961451247165	74	127
48.18063492063492	48.38961451247165	70	127
48.401224489795915	48.59859410430839	69	127
48.401224489795915	48.59859410430839	72	127
48.61020408163265	48.795963718820865	67	127
48.61020408163265	48.795963718820865	70	127
48.795963718820865	48.98172335600907	69	127
48.795963718820865	48.98172335600907	72	127
48.98172335600907	49.16748299319728	69	127
48.98172335600907	49.16748299319728	65	127
49.16748299319728	49.35324263038549	67	127
49.16748299319728	49.35324263038549	60	127
49.35324263038549	49.53900226757369	65	127
49.35324263038549	49.53900226757369	69	127
49.53900226757369	49.724761904761905	60	127
49.53900226757369	49.724761904761905	67	127
49.73637188208617	49.92213151927437	65	127
49.73637188208617	49.92213151927437	57	127
49.93374149659864	50.11950113378685	60	127
49.93374149659864	50.11950113378685	67	127
50.11950113378685	50.30526077097505	65	127
50.11950113378685	50.30526077097505	69	127
50.30526077097505	50.51424036281179	67	127
50.30526077097505	50.51424036281179	70	127
50.51424036281179	50.7	69	127
50.51424036281179	50.7	72	127
50.7	50.89736961451247	70	127
50.7	50.89736961451247	74	127
50.90897959183673	51.094739229024945	69	127
50.90897959183673	51.094739229024945	72	127
51.10634920634921	51.29210884353741	70	127
51.10634920634921	51.29210884353741	74	127
51.29210884353741	51.48947845804989	67	127
51.29210884353741	51.48947845804989	76	127
51.48947845804989	51.67523809523809	69	127
51.48947845804989	51.67523809523809	77	127
51.67523809523809	51.87260770975057	67	127
51.67523809523809	51.87260770975057	76	127
51.67523809523809	53.1497052154195	58	127
51.87260770975057	52.023537414965986	70	127
51.87260770975057	52.023537414965986	79	127
52.0815873015873	52.23251700680272	67	127
52.0815873015873	52.23251700680272	70	127
52.290566893424035	52.41827664399093	67	127
52.290566893424035	52.41827664399093	70	127
52.464716553287985	52.627256235827666	67	127
52.464716553287985	52.627256235827666	70	127
52.627256235827666	52.76657596371882	69	127
52.627256235827666	52.76657596371882	72	127
52.81301587301587	52.940725623582765	64	127
52.81301587301587	52.940725623582765	67	127
52.98716553287982	53.10326530612245	67	127
52.98716553287982	53.10326530612245	64	127
53.1497052154195	54.41519274376417	57	127
53.1497052154195	53.53283446712018	69	127
53.1497052154195	53.53283446712018	65	127
53.1497052154195	54.41519274376417	60	127
54.41519274376417	54.62417233560091	62	127
54.41519274376417	54.62417233560091	58	127
54.62417233560091	54.856371882086165	60	127
54.62417233560091	54.856371882086165	57	127
54.86798185941043	55.0653514739229	58	127
54.86798185941043	55.0653514739229	55	127
55.076961451247165	55.26272108843538	60	127
55.076961451247165	55.26272108843538	57	127
55.26272108843538	55.44848072562358	57	127
55.26272108843538	55.44848072562358	53	127
55.44848072562358	55.622630385487525	55	127
55.44848072562358	55.622630385487525	48	127
55.622630385487525	55.78517006802721	57	127
55.622630385487525	55.78517006802721	53	127
55.78517006802721	55.97092970521542	55	127
55.78517006802721	55.97092970521542	48	127
55.97092970521542	56.15668934240363	53	127
55.97092970521542	56.15668934240363	45	127
56.16829931972789	56.330839002267574	55	127
56.16829931972789	56.330839002267574	48	127
56.342448979591836	56.53981859410431	57	127
56.342448979591836	56.53981859410431	53	127
56.53981859410431	56.73718820861678	58	127
56.53981859410431	56.73718820861678	55	127
56.73718820861678	56.92294784580499	60	127
56.73718820861678	56.92294784580499	57	127
56.92294784580499	57.097097505668934	62	127
56.92294784580499	57.097097505668934	58	127
57.097097505668934	57.29446712018141	60	127
57.097097505668934	57.29446712018141	57	127
57.29446712018141	57.46861678004535	62	127
57.29446712018141	57.46861678004535	58	127
57.480226757369614	57.66598639455783	64	127
57.480226757369614	57.66598639455783	55	127
57.67759637188209	57.863356009070294	65	127
57.67759637188209	57.863356009070294	57	127
57.863356009070294	58.06072562358277	64	127
57.863356009070294	58.06072562358277	55	127
58.06072562358277	58.22326530612245	67	127
58.06072562358277	58.22326530612245	58	127
58.2697052154195	58.39741496598639	58	127
58.2697052154195	58.39741496598639	55	127
58.44385487528345	58.583174603174605	58	127
58.44385487528345	58.583174603174605	55	127
58.64122448979592	58.82698412698413	58	127
58.64122448979592	58.82698412698413	55	127
58.83859410430839	58.966303854875285	57	127
58.83859410430839	58.966303854875285	60	127
59.0243537414966	59.14045351473923	52	127
59.0243537414966	59.14045351473923	55	127
59.186893424036285	59.36104308390023	55	127
59.186893424036285	59.36104308390023	52	127
59.40748299319728	59.81383219954648	57	127
59.40748299319728	59.81383219954648	53	127
59.81383219954648	60.20857142857143	58	127
59.81383219954648	60.20857142857143	55	127
60.220181405895694	60.603310657596374	60	127
60.220181405895694	60.603310657596374	57	127
60.603310657596374	60.986439909297054	58	127
60.603310657596374	60.986439909297054	62	127
60.603310657596374	61.381179138322	77	127
60.986439909297054	62.57700680272109	58	127
60.986439909297054	62.57700680272109	55	127
61.40439909297052	61.82235827664399	76	127
61.82235827664399	62.20548752834467	74	127
62.20548752834467	62.57700680272109	79	127
62.58861678004535	63.90054421768708	77	127
62.58861678004535	63.018185941043086	60	127
62.58861678004535	63.018185941043086	57	127
63.018185941043086	63.42453514739229	58	127
63.018185941043086	63.42453514739229	62	127
63.42453514739229	63.90054421768708	60	127
63.42453514739229	63.90054421768708	64	127
63.90054421768708	64.31850340136054	65	127
63.90054421768708	64.69	89	127
63.90054421768708	64.69	77	127
63.90054421768708	64.31850340136054	62	127
64.33011337868481	65.93229024943311	62	127
64.33011337868481	65.93229024943311	58	127
64.69	65.06154195011338	88	127
64.69	65.06154195011338	76	127
65.06154195011338	65.54916099773243	86	127
65.06154195011338	65.54916099773243	74	127
65.56074829931973	68.57936507936508	79	127
65.56074829931973	67.05845804988662	91	127
65.93229024943311	66.30380952380952	64	127
65.93229024943311	66.30380952380952	60	127
66.30380952380952	66.67532879818594	62	127
66.30380952380952	66.67532879818594	65	127
66.6869387755102	67.05845804988662	64	127
66.6869387755102	67.05845804988662	67	127
67.05845804988662	67.46480725623583	65	127
67.05845804988662	67.17455782312925	89	127
67.05845804988662	67.46480725623583	69	127
67.18616780045352	67.31387755102041	88	127
67.31387755102041	67.46480725623583	86	127
67.46480725623583	67.83632653061224	65	127
67.46480725623583	67.59251700680272	84	127
67.46480725623583	67.83632653061224	62	127
67.59251700680272	67.70861678004535	83	127
67.72022675736962	67.83632653061224	81	127
67.83632653061224	67.96403628117913	79	127
67.83632653061224	68.20784580498866	67	127
67.83632653061224	68.20784580498866	64	127
67.96403628117913	68.09174603174603	77	127
68.09174603174603	68.20784580498866	76	127
68.21945578231292	68.57936507936508	65	127
68.21945578231292	68.33555555555556	74	127
68.21945578231292	68.57936507936508	69	127
68.34716553287981	68.45165532879818	72	127
68.45165532879818	68.57936507936508	71	127
68.57936507936508	68.96249433106576	65	127
68.57936507936508	68.69546485260771	77	127
68.57936507936508	69.39204081632653	67	127
68.57936507936508	68.96249433106576	71	127
68.71868480725624	68.83478458049886	74	127
68.84639455782313	68.96249433106576	71	127
68.96249433106576	69.39204081632653	72	127
68.96249433106576	69.39204081632653	64	127
68.96249433106576	69.39204081632653	72	127
69.40367346938775	69.83324263038548	74	127
69.40367346938775	69.83324263038548	69	127
69.40367346938775	69.83324263038548	65	127
69.83324263038548	70.20476190476191	71	127
69.83324263038548	70.20476190476191	76	127
69.83324263038548	70.20476190476191	67	127
70.20476190476191	70.56467120181406	72	127
70.20476190476191	70.56467120181406	69	127
70.20476190476191	70.97102040816327	53	127
70.20476190476191	70.56467120181406	77	127
70.57628117913832	70.97102040816327	69	127
70.57628117913832	70.97102040816327	65	127
70.57628117913832	70.97102040816327	74	127
70.97102040816327	71.4121768707483	76	127
70.97102040816327	71.4121768707483	71	127
70.97102040816327	71.4121768707483	67	127
70.97102040816327	71.4121768707483	52	127
71.4121768707483	71.78371882086168	77	127
71.4121768707483	71.78371882086168	72	127
71.4121768707483	71.78371882086168	69	127
71.4121768707483	71.78371882086168	50	127
71.78371882086168	72.15523809523809	79	127
71.78371882086168	72.15523809523809	74	127
71.78371882086168	72.93310657596372	62	127
71.78371882086168	72.15523809523809	71	127
72.16684807256236	72.54997732426304	81	127
72.16684807256236	72.54997732426304	76	127
72.16684807256236	72.54997732426304	72	127
72.54997732426304	72.93310657596372	77	127
72.54997732426304	72.93310657596372	83	127
72.54997732426304	72.93310657596372	74	127
72.93310657596372	73.36267573696145	79	127
72.93310657596372	73.36267573696145	76	127
72.93310657596372	73.10725623582766	60	127
72.93310657596372	73.36267573696145	84	127
73.10725623582766	73.23496598639456	59	127
73.23496598639456	73.36267573696145	57	127
73.37428571428572	73.78063492063492	86	127
73.37428571428572	73.49038548752834	55	127
73.37428571428572	73.78063492063492	71	127
73.37428571428572	74.1637641723356	79	127
73.49038548752834	73.61809523809524	54	127
73.61809523809524	73.78063492063492	52	127
73.78063492063492	74.55850340136054	72	127
73.78063492063492	73.90834467120182	50	127
73.78063492063492	74.55850340136054	88	127
73.90834467120182	74.03605442176871	48	127
74.03605442176871	74.1637641723356	47	127
74.1637641723356	74.2914739229025	45	127
74.1637641723356	75.02290249433106	81	127
74.2914739229025	74.43079365079365	43	127
74.43079365079365	74.55850340136054	42	127
74.55850340136054	75.4524716553288	90	127
74.55850340136054	74.68621315192743	40	127
74.55850340136054	75.02290249433106	60	127
74.6978231292517	74.89519274376417	38	127
74.89519274376417	75.02290249433106	37	127
75.03451247165533	75.17383219954648	38	127
75.03451247165533	75.4524716553288	81	127
75.03451247165533	75.4524716553288	72	127
75.17383219954648	75.31315192743764	50	127
75.31315192743764	75.4524716553288	50	127
75.46408163265306	75.85879818594104	79	127
75.46408163265306	75.85879818594104	91	127
75.46408163265306	75.85879818594104	55	127
75.46408163265306	75.85879818594104	62	127
75.46408163265306	75.85879818594104	71	127
75.46408163265306	76.31160997732427	43	127
76.31160997732427	76.45092970521542	45	127
76.45092970521542	76.59024943310658	47	127
76.59024943310658	76.76439909297052	48	127
76.76439909297052	76.89210884353741	50	127
76.90371882086168	77.01981859410431	52	127
77.01981859410431	77.17074829931973	54	127
77.17074829931973	78.01827664399093	55	127
78.0298866213152	78.16920634920635	57	127
78.18081632653062	78.32013605442177	55	127
78.32013605442177	78.44784580498866	54	127
78.44784580498866	78.58716553287982	59	127
78.59877551020408	78.72648526077097	57	127
78.73809523809524	78.90061224489796	55	127
78.90061224489796	79.79458049886621	60	127
79.79458049886621	79.93392290249433	59	127
79.9455328798186	80.06163265306122	57	127
80.06163265306122	80.20095238095239	55	127
80.20095238095239	80.32866213151928	54	127
80.32866213151928	80.45637188208617	52	127
80.46798185941043	80.5724716553288	50	127
80.58408163265307	80.78145124716553	48	127
81.04845804988662	81.28068027210884	47	127
81.48965986394558	81.69863945578231	45	127
81.94242630385487	82.19784580498866	50	127
82.41845804988662	82.65065759637189	43	127
82.9292970521542	83.12666666666667	55	127
83.32401360544218	83.53301587301587	59	127
83.71877551020408	83.92775510204082	62	127
84.1831746031746	85.83179138321995	63	127
84.1831746031746	84.46181405895692	68	127
84.1831746031746	85.83179138321995	60	127
84.1831746031746	86.26133786848072	67	127
84.68240362811791	84.8565306122449	72	127
85.05392290249434	85.23965986394558	75	127
85.41383219954649	85.64603174603175	78	127
85.87820861678004	87.42235827664399	59	127
85.87820861678004	87.42235827664399	79	127
85.87820861678004	87.42235827664399	62	127
86.27297052154195	86.67931972789115	67	127
86.67931972789115	87.05083900226758	66	127
87.05083900226758	87.42235827664399	67	127
87.43396825396826	89.25673469387755	61	127
87.43396825396826	87.64292517006803	67	127
87.43396825396826	89.25673469387755	58	127
87.43396825396826	89.77918367346939	67	127
87.89834467120181	88.18861678004535	70	127
88.38598639455782	88.5833560090703	73	127
88.79231292517007	89.02453514739229	76	127
89.30315192743764	90.98662131519275	77	127
89.30315192743764	90.98662131519275	60	127
89.30315192743764	90.98662131519275	57	127
89.77918367346939	90.1855328798186	67	127
90.1971201814059	90.5918820861678	66	127
90.60349206349207	90.98662131519275	67	127
90.98662131519275	92.71650793650794	65	127
90.98662131519275	91.17238095238095	65	127
90.98662131519275	92.68167800453514	56	127
90.98662131519275	92.93709750566893	67	127
90.98662131519275	94.05165532879819	60	127
91.38136054421769	91.63678004535147	68	127
91.85736961451248	92.11278911564627	71	127
92.33337868480726	92.51913832199547	74	127
92.71650793650794	92.93709750566893	76	127
92.71650793650794	94.46961451247165	55	127
92.71650793650794	94.05165532879819	64	127
93.13446712018141	93.56403628117914	67	127
93.56403628117914	94.05165532879819	66	127
94.05165532879819	94.46961451247165	64	127
94.05165532879819	94.46961451247165	67	127
94.05165532879819	94.46961451247165	60	127
94.48122448979592	94.8991836734694	67	127
94.48122448979592	96.0253514739229	43	127
94.48122448979592	96.0253514739229	59	127
94.48122448979592	96.0253514739229	62	127
94.91079365079365	95.34036281179138	69	127
95.34036281179138	96.0253514739229	67	127
96.0253514739229	96.84965986394558	55	127
96.0253514739229	96.2459410430839	45	127
96.0253514739229	96.43170068027212	65	127
96.0253514739229	96.43170068027212	62	127
96.25755102040816	96.43170068027212	47	127
96.44331065759637	96.84965986394558	60	127
96.44331065759637	99.33419501133787	48	127
96.44331065759637	97.67396825396825	64	127
96.84965986394558	97.23278911564626	57	127
96.84965986394558	97.67396825396825	60	127
97.23278911564626	97.67396825396825	55	127
97.68557823129251	98.17319727891156	62	127
97.68557823129251	98.17319727891156	59	127
97.68557823129251	98.17319727891156	53	127
98.17319727891156	98.75369614512472	52	127
98.17319727891156	100.80866213151927	60	127
98.17319727891156	98.75369614512472	60	127
98.75369614512472	99.11360544217688	62	127
98.75369614512472	99.11360544217688	50	127
99.12521541950113	100.80866213151927	48	127
99.12521541950113	99.51995464852608	64	127
99.34580498866214	99.51995464852608	47	127
99.53156462585034	99.71732426303855	65	127
99.53156462585034	99.71732426303855	45	127
99.71732426303855	99.92630385487529	67	127
99.71732426303855	99.92630385487529	43	127
99.92630385487529	100.72739229024943	69	127
99.92630385487529	100.36748299319729	41	127
100.36748299319729	100.80866213151927	40	127
100.72739229024943	100.80866213151927	71	127
100.82027210884354	101.73746031746032	65	127
100.82027210884354	100.88993197278911	71	127
100.82027210884354	101.24984126984127	38	127
100.82027210884354	101.73746031746032	50	127
100.88993197278911	100.98281179138321	72	127
100.98281179138321	101.06408163265306	71	127
101.06408163265306	101.13374149659865	72	127
101.13374149659865	101.19179138321995	71	127
101.19179138321995	101.26145124716554	72	127
101.26145124716554	101.34272108843537	71	127
101.26145124716554	101.73746031746032	43	127
101.34272108843537	101.40077097505669	72	127
101.40077097505669	101.47043083900226	71	127
101.47043083900226	101.6213605442177	69	127
101.6213605442177	101.73746031746032	71	127
101.73746031746032	102.13219954648527	67	127
101.73746031746032	102.13219954648527	52	127
101.73746031746032	102.13219954648527	36	127
101.73746031746032	102.13219954648527	72	127
102.16702947845805	102.64303854875284	81	127
102.16702947845805	102.64303854875284	69	127
102.16702947845805	102.64303854875284	53	127
102.16702947845805	102.64303854875284	60	127
102.64303854875284	103.10743764172335	67	127
102.64303854875284	103.10743764172335	79	127
102.64303854875284	103.10743764172335	59	127
102.64303854875284	103.10743764172335	55	127
103.10743764172335	103.5021768707483	59	127
103.10743764172335	103.5021768707483	74	127
103.10743764172335	103.5021768707483	77	127
103.10743764172335	103.88530612244898	67	127
103.5021768707483	106.34662131519275	60	127
103.5021768707483	104.68639455782314	76	127
103.5021768707483	104.68639455782314	72	127
103.89691609977324	104.32648526077098	69	127
104.32648526077098	104.68639455782314	67	127
104.68639455782314	105.08113378684807	74	127
104.68639455782314	105.08113378684807	65	127
104.68639455782314	105.08113378684807	71	127
105.09274376417234	106.12603174603174	72	127
105.09274376417234	105.23206349206349	72	127
105.09274376417234	105.71968253968254	64	127
105.23206349206349	105.37138321995465	74	127
105.37138321995465	105.5107029478458	72	127
105.5107029478458	105.62680272108844	71	127
105.6384126984127	105.81256235827665	72	127
105.71968253968254	105.94027210884354	62	127
105.8241723356009	105.94027210884354	74	127
105.94027210884354	106.34662131519275	60	127
105.94027210884354	106.03315192743764	76	127
106.03315192743764	106.12603174603174	77	127
106.12603174603174	106.25374149659864	76	127
106.12603174603174	106.34662131519275	71	127
106.2653514739229	106.34662131519275	74	127
106.36984126984127	106.59043083900227	69	127
106.36984126984127	107.69337868480726	72	127
106.36984126984127	106.59043083900227	62	127
106.36984126984127	106.53238095238095	76	127
106.53238095238095	106.66009070294784	77	127
106.60204081632654	106.78780045351473	67	127
106.60204081632654	106.78780045351473	64	127
106.66009070294784	106.78780045351473	79	127
106.78780045351473	107.31024943310658	65	127
106.78780045351473	107.31024943310658	65	127
106.78780045351473	107.60049886621316	81	127
107.31024943310658	107.69337868480726	67	127
107.31024943310658	107.69337868480726	64	127
107.60049886621316	107.69337868480726	83	127
107.69337868480726	108.12294784580499	62	127
107.69337868480726	107.7746485260771	83	127
107.69337868480726	108.12294784580499	65	127
107.69337868480726	108.55251700680272	77	127
107.7746485260771	107.8675283446712	84	127
107.8675283446712	107.92557823129252	83	127
107.92557823129252	108.00684807256236	84	127
108.00684807256236	108.06489795918367	83	127
108.06489795918367	108.13455782312926	84	127
108.13455782312926	108.55251700680272	74	127
108.13455782312926	108.20421768707483	83	127
108.13455782312926	108.55251700680272	67	127
108.20421768707483	108.2738775510204	84	127
108.2738775510204	108.34353741496598	83	127
108.34353741496598	108.44802721088435	81	127
108.44802721088435	108.55251700680272	83	127
108.55251700680272	109.02852607709751	76	127
108.55251700680272	109.02852607709751	72	127
108.55251700680272	109.22589569160998	84	127
108.55251700680272	108.7498866213152	60	127
109.02852607709751	109.42326530612245	74	127
109.02852607709751	109.42326530612245	77	127
109.22589569160998	109.31877551020408	83	127
109.31877551020408	109.44648526077097	81	127
109.44648526077097	109.71351473922903	79	127
109.44648526077097	109.94571428571429	79	127
109.44648526077097	109.94571428571429	76	127
109.95732426303854	110.32884353741497	77	127
109.95732426303854	110.01537414965986	79	127
109.95732426303854	110.32884353741497	74	127
110.01537414965986	110.08503401360544	81	127
110.08503401360544	110.14308390022676	79	127
110.14308390022676	110.24757369614512	78	127
110.24757369614512	110.32884353741497	79	127
110.34045351473922	110.7235827664399	72	127
110.34045351473922	110.7235827664399	76	127
110.34045351473922	110.89773242630386	84	127
110.7235827664399	111.09510204081633	77	127
110.7235827664399	111.09510204081633	74	127
110.90934240362812	111.00222222222222	83	127
111.00222222222222	111.09510204081633	81	127
111.09510204081633	111.2924716553288	79	127
111.09510204081633	111.48984126984126	79	127
111.09510204081633	111.48984126984126	76	127
111.48984126984126	111.97746031746031	62	127
111.48984126984126	111.55950113378685	83	127
111.48984126984126	111.55950113378685	79	127
111.48984126984126	111.97746031746031	65	127
111.55950113378685	111.61755102040816	84	127
111.55950113378685	111.61755102040816	81	127
111.61755102040816	111.72204081632653	79	127
111.61755102040816	111.72204081632653	83	127
111.72204081632653	111.81492063492064	81	127
111.72204081632653	111.81492063492064	78	127
111.81492063492064	111.97746031746031	79	127
111.81492063492064	111.97746031746031	83	127
111.97746031746031	112.56956916099773	84	127
111.97746031746031	112.360589569161	64	127
111.97746031746031	112.360589569161	60	127
111.97746031746031	112.56956916099773	88	127
112.360589569161	112.75532879818594	65	127
112.360589569161	112.75532879818594	62	127
112.56956916099773	112.66244897959184	83	127
112.56956916099773	112.66244897959184	86	127
112.66244897959184	112.7669387755102	81	127
112.66244897959184	112.7669387755102	84	127
112.7669387755102	112.97591836734694	83	127
112.7669387755102	112.97591836734694	79	127
112.7669387755102	113.24294784580499	67	127
112.7669387755102	113.24294784580499	64	127
113.26616780045352	113.76539682539682	65	127
113.26616780045352	113.35904761904762	83	127
113.26616780045352	113.35904761904762	79	127
113.26616780045352	113.76539682539682	62	127
113.35904761904762	113.44031746031746	81	127
113.35904761904762	113.44031746031746	84	127
113.44031746031746	113.50997732426303	83	127
113.44031746031746	113.50997732426303	79	127
113.50997732426303	113.63768707482993	81	127
113.50997732426303	113.63768707482993	78	127
113.63768707482993	113.76539682539682	83	127
113.63768707482993	113.76539682539682	79	127
113.77700680272109	114.19496598639456	60	127
113.77700680272109	114.19496598639456	64	127
113.77700680272109	114.39233560090703	88	127
113.77700680272109	114.39233560090703	84	127
114.19496598639456	114.5897052154195	62	127
114.19496598639456	114.5897052154195	65	127
114.39233560090703	114.4968253968254	86	127
114.39233560090703	114.4968253968254	83	127
114.4968253968254	114.5897052154195	81	127
114.4968253968254	114.5897052154195	84	127
114.5897052154195	114.79868480725624	83	127
114.5897052154195	114.79868480725624	79	127
114.5897052154195	115.06571428571428	67	127
114.5897052154195	115.06571428571428	64	127
115.06571428571428	115.13537414965987	83	127
115.06571428571428	115.13537414965987	79	127
115.06571428571428	115.5649433106576	65	127
115.06571428571428	115.5649433106576	62	127
115.13537414965987	115.21664399092971	81	127
115.13537414965987	115.21664399092971	84	127
115.21664399092971	115.32113378684807	79	127
115.21664399092971	115.32113378684807	83	127
115.32113378684807	115.46045351473923	81	127
115.32113378684807	115.46045351473923	78	127
115.46045351473923	115.5649433106576	83	127
115.46045351473923	115.5649433106576	79	127
115.57655328798187	115.99451247165533	88	127
115.57655328798187	116.377641723356	64	127
115.57655328798187	116.377641723356	60	127
115.57655328798187	119.14081632653061	91	127
115.99451247165533	116.14544217687074	86	127
116.1918820861678	116.33120181405896	84	127
116.38925170068028	117.17873015873016	65	127
116.38925170068028	116.59823129251701	84	127
116.38925170068028	117.17873015873016	62	127
116.59823129251701	116.73755102040816	83	127
116.79560090702948	116.93492063492063	83	127
116.9813605442177	117.12068027210884	86	127
117.17873015873016	117.37609977324263	86	127
117.17873015873016	117.95659863945578	67	127
117.17873015873016	117.95659863945578	64	127
117.37609977324263	117.52702947845805	84	127
117.5734693877551	117.71278911564626	83	127
117.77083900226758	117.91015873015873	81	127
117.95659863945578	119.14081632653061	65	127
117.95659863945578	118.74607709750566	69	127
117.95659863945578	118.15396825396826	81	127
118.15396825396826	118.30489795918368	79	127
118.35133786848073	118.49065759637188	77	127
118.5487074829932	118.71124716553288	76	127
118.75768707482993	119.14081632653061	74	127
118.75768707482993	119.14081632653061	71	127
119.14081632653061	119.28013605442177	86	127
119.28013605442177	119.40784580498867	84	127
119.40784580498867	119.53555555555556	83	127
119.53555555555556	119.66326530612245	81	127
119.66326530612245	119.79097505668935	83	127
119.79097505668935	119.91868480725624	79	127
119.91868480725624	120.31342403628118	91	127
120.31342403628118	120.69655328798186	76	127
120.31342403628118	120.69655328798186	72	127
120.31342403628118	120.69655328798186	64	127
120.69655328798186	120.80104308390023	79	127
120.80104308390023	120.94036281179139	77	127
120.94036281179139	121.06807256235828	76	127
121.06807256235828	121.19578231292518	74	127
121.19578231292518	121.32349206349207	76	127
121.32349206349207	121.45120181405896	72	127
121.45120181405896	121.82272108843537	84	127
121.83433106575964	122.20585034013605	53	127
121.83433106575964	122.20585034013605	67	127
121.83433106575964	122.20585034013605	59	127
121.83433106575964	122.20585034013605	62	127
122.20585034013605	122.36839002267574	74	127
122.36839002267574	122.49609977324263	72	127
122.49609977324263	122.61219954648526	71	127
122.61219954648526	122.73990929705215	69	127
122.73990929705215	122.86761904761904	71	127
122.86761904761904	122.99532879818594	67	127
122.99532879818594	123.37845804988662	79	127
123.37845804988662	123.81963718820862	67	127
123.37845804988662	123.81963718820862	60	127
123.37845804988662	123.81963718820862	64	127
123.37845804988662	123.81963718820862	52	127
123.81963718820862	123.97056689342404	67	127
123.97056689342404	124.1098866213152	65	127
124.1098866213152	124.23759637188209	64	127
124.23759637188209	124.35369614512472	62	127
124.35369614512472	124.48140589569161	64	127
124.48140589569161	124.6091156462585	60	127
124.6091156462585	125.35215419501134	72	127
124.6091156462585	124.71360544217687	60	127
124.72521541950114	124.8297052154195	59	127
124.84131519274376	124.96902494331066	57	127
124.96902494331066	131.19197278911565	45	127
124.96902494331066	125.10834467120182	55	127
124.96902494331066	131.19197278911565	54	127
125.10834467120182	125.23605442176871	57	127
125.23605442176871	125.35215419501134	54	127
125.35215419501134	125.47986394557823	72	127
125.35215419501134	126.13002267573697	50	127
125.47986394557823	125.63079365079365	71	127
125.63079365079365	125.75850340136054	69	127
125.75850340136054	125.88621315192744	67	127
125.75850340136054	125.88621315192744	72	127
125.88621315192744	126.01392290249433	69	127
125.88621315192744	126.01392290249433	78	127
126.01392290249433	126.13002267573697	66	127
126.01392290249433	126.13002267573697	81	127
126.13002267573697	126.25773242630386	60	127
126.13002267573697	126.50154195011338	62	127
126.13002267573697	126.50154195011338	84	127
126.25773242630386	126.37383219954648	59	127
126.37383219954648	126.50154195011338	57	127
126.50154195011338	126.62925170068027	55	127
126.62925170068027	126.75696145124716	57	127
126.75696145124716	126.93111111111111	54	127
126.94272108843538	127.68575963718821	50	127
126.94272108843538	127.058820861678	72	127
127.07043083900227	127.1865306122449	71	127
127.19814058956916	127.31424036281179	69	127
127.32585034013606	127.44195011337868	67	127
127.32585034013606	127.44195011337868	72	127
127.45356009070295	127.55804988662132	69	127
127.45356009070295	127.55804988662132	78	127
127.56965986394557	127.68575963718821	81	127
127.56965986394557	127.68575963718821	66	127
127.69736961451247	128.05727891156462	84	127
127.69736961451247	128.05727891156462	62	127
127.69736961451247	127.79024943310658	60	127
127.80185941043084	127.91795918367347	59	127
127.92956916099773	128.05727891156462	57	127
128.05727891156462	128.18498866213153	55	127
128.18498866213153	128.30108843537414	57	127
128.30108843537414	128.41718820861678	54	127
128.41718820861678	128.52167800453515	50	127
128.5448979591837	128.64938775510205	54	127
128.67260770975057	128.76548752834466	57	127
128.7887074829932	128.86997732426303	60	127
128.8815873015873	128.98607709750567	62	127
129.00927437641724	129.12539682539682	66	127
129.14861678004536	129.25310657596373	69	127
129.27632653061224	129.3808163265306	72	127
129.40403628117915	129.5201133786848	74	127
129.5433560090703	129.6942857142857	78	127
129.6942857142857	129.88002267573697	81	127
129.88002267573697	130.00775510204082	84	127
130.00775510204082	130.12385487528346	81	127
130.13544217687075	130.25156462585034	78	127
130.2631746031746	130.39086167800454	74	127
130.40249433106575	130.5185941043084	72	127
130.53020408163266	130.64628117913833	69	127
130.65791383219954	130.77401360544218	66	127
130.78562358276645	130.9249433106576	62	127
130.93655328798187	131.06426303854875	64	127
131.06426303854875	131.19197278911565	60	127
131.19197278911565	134.26861678004536	53	127
131.19197278911565	131.3312925170068	62	127
131.19197278911565	131.5867120181406	59	127
131.19197278911565	134.26861678004536	43	127
131.3312925170068	131.47061224489795	60	127
131.47061224489795	131.5867120181406	59	127
131.5867120181406	131.70281179138323	57	127
131.70281179138323	131.84213151927437	59	127
131.84213151927437	131.98145124716552	55	127
131.98145124716552	132.06272108843538	59	127
132.07433106575965	132.17879818594105	62	127
132.20204081632653	132.32975056689344	67	127
132.35297052154195	132.44585034013605	71	127
132.44585034013605	132.56195011337869	74	127
132.56195011337869	132.68963718820862	79	127
132.68963718820862	132.82897959183674	83	127
132.82897959183674	132.9450566893424	86	127
132.95668934240362	133.07278911564626	89	127
133.08439909297053	133.2121088435374	86	127
133.22371882086168	133.33981859410432	83	127
133.35142857142858	133.49074829931973	79	127
133.502358276644	133.63006802721088	77	127
133.64167800453515	133.7577777777778	74	127
133.76938775510203	133.88548752834467	71	127
133.89709750566894	134.02480725623582	67	127
134.02480725623582	134.14090702947846	69	127
134.14090702947846	134.26861678004536	65	127
134.26861678004536	134.39632653061224	55	127
134.26861678004536	134.39632653061224	43	127
134.26861678004536	134.67496598639457	64	127
134.39632653061224	134.52403628117915	41	127
134.39632653061224	134.52403628117915	53	127
134.52403628117915	134.67496598639457	52	127
134.52403628117915	134.67496598639457	40	127
134.67496598639457	134.81428571428572	50	127
134.67496598639457	134.81428571428572	38	127
134.81428571428572	134.95360544217687	52	127
134.81428571428572	134.95360544217687	40	127
134.95360544217687	135.08131519274377	36	127
134.95360544217687	135.08131519274377	48	127
135.08131519274377	135.20902494331065	52	127
135.08131519274377	135.20902494331065	40	127
135.2322448979592	135.34832199546486	55	127
135.2322448979592	135.34832199546486	43	127
135.37156462585034	135.46444444444444	60	127
135.37156462585034	135.46444444444444	48	127
135.48766439909298	135.60374149659864	52	127
135.48766439909298	135.62698412698413	79	127
135.48766439909298	135.62698412698413	67	127
135.48766439909298	135.62698412698413	64	127
135.62698412698413	135.71986394557823	55	127
135.62698412698413	135.74308390022676	77	127
135.62698412698413	135.74308390022676	65	127
135.62698412698413	135.74308390022676	67	127
135.74308390022676	135.84757369614513	60	127
135.74308390022676	135.87079365079364	76	127
135.74308390022676	135.87079365079364	64	127
135.74308390022676	135.87079365079364	72	127
135.87079365079364	135.9636507936508	60	127
135.87079365079364	135.9636507936508	48	127
135.87079365079364	135.98689342403628	74	127
135.87079365079364	135.98689342403628	62	127
135.98689342403628	136.07977324263038	52	127
135.98689342403628	136.07977324263038	64	127
135.98689342403628	136.10299319727892	76	127
135.98689342403628	136.10299319727892	64	127
136.11458049886622	136.2074829931973	67	127
136.11458049886622	136.2074829931973	55	127
136.11458049886622	136.2307029478458	72	127
136.11458049886622	136.2307029478458	60	127
136.24231292517007	136.34680272108844	76	127
136.24231292517007	136.34680272108844	64	127
136.24231292517007	136.37	64	127
136.24231292517007	136.37	52	127
136.3932426303855	136.4861224489796	79	127
136.3932426303855	136.4861224489796	67	127
136.3932426303855	136.50934240362812	60	127
136.3932426303855	136.50934240362812	48	127
136.5209523809524	136.6138321995465	84	127
136.5209523809524	136.6138321995465	72	127
136.5209523809524	136.637052154195	55	127
136.5209523809524	136.637052154195	43	127
136.64866213151927	136.77637188208618	88	127
136.64866213151927	136.77637188208618	76	127
136.64866213151927	136.77637188208618	52	127
136.64866213151927	136.77637188208618	40	127
136.77637188208618	136.93891156462584	91	127
136.77637188208618	136.93891156462584	79	127
136.77637188208618	136.93891156462584	64	127
136.77637188208618	136.93891156462584	36	127
136.9505215419501	137.08981859410432	91	127
136.9505215419501	137.08981859410432	84	127
136.9505215419501	137.08981859410432	67	127
136.9505215419501	137.08981859410432	48	127
137.08981859410432	137.27560090702949	91	127
137.08981859410432	137.27560090702949	88	127
137.08981859410432	137.27560090702949	72	127
137.08981859410432	137.27560090702949	48	127
137.27560090702949	137.43814058956917	91	127
137.27560090702949	137.43814058956917	88	127
137.27560090702949	137.43814058956917	72	127
137.27560090702949	137.43814058956917	48	127
137.43814058956917	137.67034013605442	91	127
137.43814058956917	137.67034013605442	88	127
137.43814058956917	137.67034013605442	72	127
137.43814058956917	137.67034013605442	48	127
137.67034013605442	138.22761904761904	91	127
137.67034013605442	138.22761904761904	88	127
138.22761904761904	139.1331746031746	61	127
138.22761904761904	139.1331746031746	57	127
139.1331746031746	139.9691156462585	62	127
139.1331746031746	139.9691156462585	55	127
139.1331746031746	139.9691156462585	65	127
139.1331746031746	139.9691156462585	59	127
139.9691156462585	140.7818140589569	43	127
140.7818140589569	141.59451247165532	91	127
140.7818140589569	141.59451247165532	88	127
141.59451247165532	142.43043083900227	57	127
141.59451247165532	142.43043083900227	61	127
142.43043083900227	143.24312925170068	55	127
142.43043083900227	143.24312925170068	65	127
142.43043083900227	143.24312925170068	59	127
142.43043083900227	143.24312925170068	62	127
143.24312925170068	144.06743764172336	43	127
144.06743764172336	144.5898866213152	91	127
144.06743764172336	144.5898866213152	88	127
144.06743764172336	144.5898866213152	61	127
144.97301587301587	145.62315192743765	64	127
144.97301587301587	145.62315192743765	73	127
144.97301587301587	145.62315192743765	69	127
144.97301587301587	145.62315192743765	67	127
144.97301587301587	145.62315192743765	57	127
145.8205442176871	146.5055328798186	77	127
145.8205442176871	146.5055328798186	62	127
145.8205442176871	146.5055328798186	74	127
145.8205442176871	146.5055328798186	65	127
145.8205442176871	146.5055328798186	50	127
146.7261224489796	147.3646485260771	89	127
146.7261224489796	147.3646485260771	74	127
146.7261224489796	147.3646485260771	65	127
146.7261224489796	147.3646485260771	77	127
146.7261224489796	147.3646485260771	62	127
146.7261224489796	147.3646485260771	71	127
146.7261224489796	147.3646485260771	44	127
147.57365079365078	151.26562358276644	43	127
147.57365079365078	149.19904761904763	67	127
147.57365079365078	149.19904761904763	62	127
147.57365079365078	149.19904761904763	59	127
149.19904761904763	149.6518367346939	64	127
149.19904761904763	149.6518367346939	60	127
149.19904761904763	149.6518367346939	69	127
149.6518367346939	150.0581859410431	71	127
149.6518367346939	150.85927437641723	62	127
149.6518367346939	151.26562358276644	65	127
150.0697732426304	150.4645351473923	72	127
150.47614512471657	150.85927437641723	74	127
150.88249433106577	151.26562358276644	59	127
150.88249433106577	151.26562358276644	76	127
151.26562358276644	158.13873015873017	36	127
151.26562358276644	151.74163265306123	64	127
151.26562358276644	151.74163265306123	60	127
151.26562358276644	152.5659410430839	72	127
151.26562358276644	158.13873015873017	43	127
151.74163265306123	152.18281179138322	65	127
151.74163265306123	152.18281179138322	62	127
152.18281179138322	152.5659410430839	67	127
152.18281179138322	152.5659410430839	64	127
152.5659410430839	152.94907029478458	69	127
152.5659410430839	152.94907029478458	65	127
152.5659410430839	152.76331065759638	74	127
152.76331065759638	152.94907029478458	72	127
152.94907029478458	154.14489795918368	62	127
152.94907029478458	153.1580498866213	71	127
152.94907029478458	154.14489795918368	65	127
153.1580498866213	153.30897959183673	72	127
153.36702947845805	153.51795918367347	71	127
153.56439909297052	153.70369614512472	72	127
153.761768707483	153.9475283446712	74	127
153.9475283446712	154.08684807256236	76	127
154.15650793650795	154.56285714285715	65	127
154.15650793650795	154.56285714285715	59	127
154.15650793650795	154.3190476190476	74	127
154.36546485260772	154.50480725623584	76	127
154.56285714285715	155.89798185941044	72	127
154.56285714285715	154.74861678004535	64	127
154.56285714285715	154.74861678004535	60	127
154.74861678004535	154.94598639455782	62	127
154.74861678004535	154.94598639455782	65	127
154.99242630385487	155.15496598639456	60	127
154.99242630385487	155.15496598639456	64	127
155.23621315192744	155.4219954648526	65	127
155.23621315192744	155.4219954648526	62	127
155.46843537414966	155.68902494331067	64	127
155.46843537414966	155.68902494331067	67	127
155.7006349206349	155.8515419501134	65	127
155.7006349206349	155.8515419501134	69	127
155.89798185941044	156.1185941043084	74	127
155.89798185941044	156.06054421768707	67	127
155.89798185941044	156.06054421768707	64	127
156.1185941043084	156.31596371882085	72	127
156.1185941043084	156.2695238095238	69	127
156.1185941043084	156.2695238095238	65	127
156.31596371882085	157.91814058956916	62	127
156.31596371882085	156.54816326530613	71	127
156.31596371882085	157.91814058956916	65	127
156.54816326530613	156.68748299319728	72	127
156.73392290249433	156.88485260770975	74	127
156.9312925170068	157.07061224489797	76	127
157.12863945578232	157.3144217687075	77	127
157.3144217687075	157.45374149659864	81	127
157.52340136054423	157.67433106575965	79	127
157.7207709750567	157.86009070294784	71	127
157.91814058956916	166.88104308390024	48	127
157.91814058956916	158.3477097505669	64	127
157.91814058956916	166.88104308390024	60	127
157.91814058956916	159.6828344671202	72	127
158.16195011337868	158.30124716553289	45	127
158.3477097505669	158.49863945578232	43	127
158.55666666666667	158.67278911564625	45	127
158.7192290249433	158.89337868480726	47	127
158.90498866213153	159.04430839002268	48	127
159.09074829931973	159.23006802721088	47	127
159.2881179138322	159.4274149659864	48	127
159.47387755102042	161.12249433106575	46	127
159.6828344671202	159.8337641723356	76	127
159.89183673469387	160.03115646258505	74	127
160.0891836734694	160.21691609977324	76	127
160.27496598639456	160.46072562358276	77	127
160.27496598639456	160.46072562358276	62	127
160.46072562358276	160.61165532879818	64	127
160.46072562358276	160.61165532879818	79	127
160.6697052154195	160.85544217687075	62	127
160.6697052154195	160.85544217687075	77	127
160.90190476190477	161.0644217687075	64	127
160.90190476190477	161.0644217687075	79	127
161.12249433106575	161.26181405895693	65	127
161.12249433106575	162.72467120181406	45	127
161.12249433106575	161.4824036281179	77	127
161.2966439909297	161.4824036281179	64	127
161.49401360544218	161.69138321995464	65	127
161.69138321995464	161.8887528344671	64	127
161.8887528344671	162.09773242630385	65	127
162.10934240362812	162.29510204081632	79	127
162.29510204081632	162.51569160997732	77	127
162.51569160997732	162.72467120181406	79	127
162.73628117913833	164.35006802721088	46	127
162.73628117913833	162.91043083900226	77	127
162.91043083900226	163.119410430839	62	127
163.13102040816327	163.35160997732427	60	127
163.35160997732427	163.58380952380952	62	127
163.58380952380952	163.79278911564626	60	127
163.80439909297053	163.99015873015873	76	127
163.99015873015873	164.17591836734695	77	127
164.17591836734695	164.35006802721088	76	127
164.36167800453515	164.54743764172335	77	127
164.36167800453515	165.54589569160999	45	127
164.54743764172335	164.7215873015873	64	127
164.7215873015873	164.91895691609977	65	127
164.93056689342404	165.1627664399093	64	127
165.1627664399093	165.34852607709752	65	127
165.34852607709752	165.54589569160999	79	127
165.55750566893425	165.90580498866214	46	127
165.55750566893425	165.74326530612245	77	127
165.74326530612245	165.90580498866214	79	127
165.90580498866214	166.09156462585034	77	127
165.90580498866214	166.88104308390024	45	127
166.1031746031746	166.30054421768708	62	127
166.30054421768708	166.52113378684808	60	127
166.53272108843538	166.70689342403628	62	127
166.70689342403628	166.88104308390024	60	127
166.88104308390024	167.03197278911566	46	127
166.88104308390024	167.09002267573698	60	127
166.88104308390024	167.09002267573698	55	127
167.10163265306122	167.22934240362812	45	127
167.10163265306122	167.27578231292517	60	127
167.10163265306122	167.27578231292517	57	127
167.27578231292517	167.43832199546486	46	127
167.27578231292517	167.4847619047619	60	127
167.27578231292517	167.4847619047619	57	127
167.49637188208618	167.69374149659865	57	127
167.49637188208618	167.69374149659865	60	127
167.49637188208618	167.90272108843538	48	127
167.70532879818595	167.90272108843538	57	127
167.70532879818595	167.90272108843538	60	127
167.90272108843538	168.10009070294785	57	127
167.90272108843538	168.29746031746032	50	127
167.90272108843538	168.10009070294785	60	127
168.10009070294785	168.29746031746032	57	127
168.10009070294785	168.29746031746032	60	127
168.29746031746032	168.51804988662133	60	127
168.29746031746032	168.51804988662133	57	127
168.29746031746032	168.69219954648526	52	127
168.51804988662133	168.69219954648526	57	127
168.51804988662133	168.69219954648526	60	127
168.70380952380953	168.901179138322	57	127
168.70380952380953	168.901179138322	60	127
168.70380952380953	169.09854875283446	53	127
168.91278911564626	169.09854875283446	60	127
168.91278911564626	169.09854875283446	57	127
169.11015873015873	169.3075283446712	60	127
169.11015873015873	169.3075283446712	57	127
169.11015873015873	170.24793650793652	48	127
169.3075283446712	169.50489795918367	57	127
169.3075283446712	169.50489795918367	60	127
169.50489795918367	169.6906575963719	60	127
169.50489795918367	169.6906575963719	57	127
169.6906575963719	169.89963718820863	60	127
169.6906575963719	169.89963718820863	57	127
169.89963718820863	170.07378684807256	60	127
169.89963718820863	170.07378684807256	57	127
170.08539682539683	170.24793650793652	57	127
170.08539682539683	170.24793650793652	60	127
170.25954648526078	170.44530612244898	57	127
170.25954648526078	170.44530612244898	60	127
170.25954648526078	170.44530612244898	50	127
170.44530612244898	170.64267573696145	60	127
170.44530612244898	170.64267573696145	57	127
170.44530612244898	170.64267573696145	48	127
170.64267573696145	170.7819954648526	60	127
170.64267573696145	170.7819954648526	57	127
170.64267573696145	170.7819954648526	46	127
170.7819954648526	170.93292517006802	48	127
170.7819954648526	170.97934240362812	60	127
170.7819954648526	170.97934240362812	57	127
170.97934240362812	171.13027210884354	45	127
170.97934240362812	171.1883446712018	60	127
170.97934240362812	171.1883446712018	57	127
171.1883446712018	171.32766439909298	43	127
171.1883446712018	171.39732426303854	60	127
171.1883446712018	171.39732426303854	57	127
171.4089342403628	171.58308390022677	60	127
171.4089342403628	171.58308390022677	57	127
171.4089342403628	171.78045351473924	41	127
171.59467120181407	171.78045351473924	57	127
171.59467120181407	171.78045351473924	60	127
171.78045351473924	171.9778231292517	57	127
171.78045351473924	171.9778231292517	60	127
171.78045351473924	172.22163265306122	50	127
171.9778231292517	172.22163265306122	60	127
171.9778231292517	172.22163265306122	57	127
172.22163265306122	173.71931972789116	48	127
172.22163265306122	172.4190022675737	60	127
172.22163265306122	172.4190022675737	57	127
172.4190022675737	172.62798185941043	57	127
172.4190022675737	172.62798185941043	60	127
172.6395918367347	172.81374149659865	57	127
172.6395918367347	172.81374149659865	60	127
172.8253514739229	172.98789115646258	57	127
172.8253514739229	172.98789115646258	60	127
172.99950113378685	173.19687074829932	57	127
172.99950113378685	173.19687074829932	60	127
173.19687074829932	173.37102040816328	57	127
173.19687074829932	173.37102040816328	60	127
173.37102040816328	173.5451700680272	60	127
173.37102040816328	173.5451700680272	57	127
173.5451700680272	173.71931972789116	60	127
173.5451700680272	173.71931972789116	57	127
173.71931972789116	173.89344671201815	57	127
173.71931972789116	173.89344671201815	60	127
173.71931972789116	173.89344671201815	48	127
173.90507936507936	174.04437641723356	50	127
173.90507936507936	174.10244897959183	60	127
173.90507936507936	174.10244897959183	57	127
174.1140589569161	174.23015873015873	48	127
174.1140589569161	174.28820861678005	60	127
174.1140589569161	174.28820861678005	57	127
174.28820861678005	174.41591836734693	50	127
174.28820861678005	174.46235827664398	60	127
174.28820861678005	174.46235827664398	57	127
174.46235827664398	174.6481179138322	60	127
174.46235827664398	174.6481179138322	57	127
174.46235827664398	174.6481179138322	52	127
174.6481179138322	174.78743764172336	53	127
174.6481179138322	174.8338775510204	60	127
174.6481179138322	174.8338775510204	57	127
174.8338775510204	175.01961451247166	60	127
174.8338775510204	174.97319727891156	52	127
174.8338775510204	175.01961451247166	57	127
175.01961451247166	175.19378684807256	60	127
175.01961451247166	175.1473469387755	53	127
175.01961451247166	175.19378684807256	57	127
175.20539682539683	175.37954648526076	59	127
175.20539682539683	179.90743764172336	54	127
175.39115646258503	175.53045351473924	60	127
175.57689342403629	175.72784580498868	59	127
175.77428571428572	175.89038548752833	60	127
175.93680272108844	176.13419501133788	62	127
176.13419501133788	176.27351473922903	63	127
176.35478458049886	176.48249433106577	62	127
176.54054421768708	176.65662131519275	63	127
176.714693877551	176.90045351473924	59	127
176.714693877551	176.90045351473924	71	127
176.90045351473924	177.05138321995466	60	127
176.90045351473924	177.05138321995466	72	127
177.0978231292517	177.2255328798186	59	127
177.0978231292517	177.2255328798186	71	127
177.27197278911564	177.39968253968254	60	127
177.27197278911564	177.39968253968254	72	127
177.4461224489796	177.6318820861678	62	127
177.4461224489796	177.6318820861678	74	127
177.64349206349206	177.77120181405897	63	127
177.64349206349206	177.77120181405897	75	127
177.82922902494332	177.96857142857144	74	127
177.82922902494332	177.96857142857144	62	127
178.038231292517	178.18913832199547	75	127
178.038231292517	178.18913832199547	63	127
178.23557823129252	178.43297052154196	83	127
178.23557823129252	181.4283446712018	75	127
178.23557823129252	181.4283446712018	63	127
178.43297052154196	178.5722902494331	84	127
178.61873015873016	178.7580498866213	83	127
178.80448979591836	178.94380952380953	84	127
179.0134693877551	179.21081632653062	86	127
179.21081632653062	179.35015873015874	87	127
179.40820861678006	179.5475283446712	86	127
179.65201814058958	179.84938775510204	87	127
179.90743764172336	181.4283446712018	53	127
179.90743764172336	180.29056689342403	89	127
180.3021768707483	180.685306122449	91	127
180.685306122449	181.06843537414966	93	127
181.06843537414966	181.4283446712018	94	127
181.43995464852608	182.67061224489797	89	127
181.43995464852608	181.73020408163265	74	127
181.43995464852608	181.92757369614512	62	127
181.43995464852608	181.92757369614512	46	127
181.74181405895692	181.92757369614512	58	127
181.74181405895692	181.92757369614512	62	127
181.92757369614512	182.11333333333334	58	127
181.92757369614512	182.11333333333334	62	127
182.11333333333334	182.29909297052154	58	127
182.11333333333334	182.29909297052154	62	127
182.29909297052154	182.48485260770974	62	127
182.29909297052154	182.48485260770974	58	127
182.48485260770974	182.67061224489797	58	127
182.48485260770974	182.67061224489797	62	127
182.68219954648526	182.85637188208617	91	127
182.68219954648526	182.85637188208617	58	127
182.68219954648526	182.85637188208617	62	127
182.86798185941043	183.04210884353742	89	127
182.86798185941043	183.04210884353742	58	127
182.86798185941043	183.04210884353742	62	127
183.04210884353742	183.2278911564626	87	127
183.04210884353742	183.2278911564626	58	127
183.04210884353742	183.2278911564626	62	127
183.2278911564626	183.36721088435374	89	127
183.2278911564626	183.4136507936508	58	127
183.2278911564626	183.4136507936508	62	127
183.4136507936508	183.5645804988662	86	127
183.4136507936508	183.61102040816326	58	127
183.4136507936508	183.61102040816326	62	127
183.61102040816326	183.75034013605443	84	127
183.61102040816326	183.79678004535148	58	127
183.61102040816326	183.79678004535148	62	127
183.79678004535148	183.9709297052154	62	127
183.79678004535148	183.9709297052154	58	127
183.79678004535148	184.14507936507937	82	127
183.98253968253968	184.14507936507937	58	127
183.98253968253968	184.14507936507937	62	127
184.15668934240364	184.34244897959184	62	127
184.15668934240364	184.5281859410431	91	127
184.15668934240364	184.34244897959184	58	127
184.34244897959184	184.5281859410431	58	127
184.34244897959184	184.5281859410431	62	127
184.5281859410431	186.20004535147393	89	127
184.5281859410431	184.6675283446712	46	127
184.5281859410431	184.72557823129253	58	127
184.5281859410431	184.72557823129253	62	127
184.6675283446712	184.7952380952381	50	127
184.72557823129253	184.91133786848073	62	127
184.72557823129253	184.91133786848073	58	127
184.7952380952381	184.91133786848073	53	127
184.91133786848073	185.09709750566893	58	127
184.91133786848073	185.09709750566893	62	127
184.91133786848073	185.03902494331066	58	127
185.03902494331066	185.16675736961452	62	127
185.09709750566893	185.27124716553288	58	127
185.09709750566893	185.27124716553288	62	127
185.16675736961452	185.28285714285715	58	127
185.28285714285715	185.45700680272108	58	127
185.28285714285715	185.39895691609976	53	127
185.28285714285715	185.45700680272108	62	127
185.39895691609976	185.52666666666667	58	127
185.46861678004535	185.65437641723355	62	127
185.46861678004535	185.65437641723355	58	127
185.52666666666667	185.65437641723355	53	127
185.65437641723355	185.88657596371883	58	127
185.65437641723355	185.88657596371883	62	127
185.65437641723355	185.8285260770975	50	127
185.8285260770975	185.94462585034015	53	127
185.88657596371883	186.07233560090702	62	127
185.88657596371883	186.07233560090702	58	127
185.94462585034015	186.07233560090702	50	127
186.07233560090702	186.25809523809525	58	127
186.07233560090702	186.25809523809525	62	127
186.07233560090702	186.44385487528345	70	127
186.07233560090702	186.44385487528345	46	127
186.20004535147393	186.3277551020408	86	127
186.25809523809525	186.44385487528345	62	127
186.25809523809525	186.44385487528345	58	127
186.3277551020408	186.45546485260772	82	127
186.45546485260772	186.82696145124717	72	127
186.45546485260772	186.57154195011339	77	127
186.45546485260772	186.62961451247165	58	127
186.45546485260772	186.62961451247165	62	127
186.57154195011339	186.69927437641724	74	127
186.64122448979592	186.82696145124717	58	127
186.64122448979592	186.82696145124717	62	127
186.69927437641724	186.83859410430838	70	127
186.83859410430838	187.22172335600908	74	127
186.83859410430838	187.0243537414966	58	127
186.83859410430838	187.0243537414966	62	127
186.83859410430838	186.9663038548753	65	127
186.9663038548753	187.09401360544217	62	127
187.0243537414966	187.22172335600908	62	127
187.0243537414966	187.22172335600908	58	127
187.09401360544217	187.22172335600908	58	127
187.22172335600908	187.40748299319728	63	127
187.22172335600908	187.34943310657596	57	127
187.22172335600908	187.40748299319728	60	127
187.22172335600908	187.61646258503401	75	127
187.34943310657596	187.47714285714287	60	127
187.40748299319728	187.61646258503401	60	127
187.40748299319728	187.61646258503401	63	127
187.47714285714287	187.61646258503401	66	127
187.61646258503401	187.82544217687075	55	127
187.61646258503401	187.82544217687075	66	127
187.61646258503401	187.82544217687075	60	127
187.61646258503401	187.82544217687075	63	127
187.61646258503401	188.78907029478458	72	127
187.83705215419502	188.01120181405895	66	127
187.83705215419502	188.01120181405895	55	127
187.83705215419502	188.01120181405895	60	127
187.83705215419502	188.01120181405895	63	127
188.02281179138322	188.23179138321996	63	127
188.02281179138322	188.23179138321996	66	127
188.02281179138322	188.23179138321996	55	127
188.02281179138322	188.23179138321996	60	127
188.23179138321996	188.41755102040815	66	127
188.23179138321996	188.41755102040815	55	127
188.23179138321996	188.41755102040815	60	127
188.23179138321996	188.41755102040815	63	127
188.41755102040815	188.60331065759638	63	127
188.41755102040815	188.60331065759638	55	127
188.41755102040815	188.60331065759638	66	127
188.41755102040815	188.60331065759638	60	127
188.60331065759638	188.78907029478458	66	127
188.60331065759638	188.78907029478458	60	127
188.60331065759638	188.78907029478458	63	127
188.60331065759638	188.78907029478458	55	127
188.78907029478458	188.97480725623583	55	127
188.78907029478458	188.97480725623583	66	127
188.78907029478458	188.97480725623583	60	127
188.78907029478458	188.97480725623583	63	127
188.78907029478458	188.97480725623583	74	127
188.97480725623583	189.160589569161	55	127
188.97480725623583	189.160589569161	66	127
188.97480725623583	189.160589569161	60	127
188.97480725623583	189.160589569161	63	127
188.97480725623583	189.160589569161	72	127
189.17219954648527	189.3463492063492	66	127
189.17219954648527	189.3463492063492	60	127
189.17219954648527	189.3463492063492	57	127
189.17219954648527	189.3463492063492	63	127
189.17219954648527	189.3463492063492	70	127
189.35795918367347	189.49727891156462	72	127
189.35795918367347	189.54371882086167	57	127
189.35795918367347	189.54371882086167	66	127
189.35795918367347	189.54371882086167	60	127
189.35795918367347	189.54371882086167	63	127
189.54371882086167	189.67142857142858	69	127
189.54371882086167	189.70625850340136	57	127
189.54371882086167	189.70625850340136	66	127
189.54371882086167	189.70625850340136	60	127
189.54371882086167	189.70625850340136	63	127
189.70625850340136	189.8455782312925	67	127
189.70625850340136	189.8919954648526	57	127
189.70625850340136	189.8919954648526	66	127
189.70625850340136	189.8919954648526	60	127
189.70625850340136	189.8919954648526	63	127
189.8919954648526	190.07777777777778	60	127
189.8919954648526	190.07777777777778	57	127
189.8919954648526	190.07777777777778	66	127
189.8919954648526	190.07777777777778	63	127
189.8919954648526	190.26353741496598	66	127
190.07777777777778	190.26353741496598	66	127
190.07777777777778	190.26353741496598	60	127
190.07777777777778	190.26353741496598	63	127
190.07777777777778	190.26353741496598	57	127
190.27514739229025	190.46090702947845	57	127
190.27514739229025	190.46090702947845	66	127
190.27514739229025	190.46090702947845	60	127
190.27514739229025	190.46090702947845	63	127
190.27514739229025	190.64666666666668	75	127
190.47251700680272	190.64666666666668	66	127
190.47251700680272	190.64666666666668	60	127
190.47251700680272	190.64666666666668	63	127
190.47251700680272	190.64666666666668	57	127
190.65827664399092	190.84403628117914	62	127
190.65827664399092	190.84403628117914	57	127
190.65827664399092	190.84403628117914	66	127
190.65827664399092	190.77437641723355	45	127
190.65827664399092	190.84403628117914	60	127
190.65827664399092	192.24884353741496	74	127
190.78598639455782	190.90208616780046	48	127
190.84403628117914	191.01818594104307	57	127
190.84403628117914	191.01818594104307	66	127
190.84403628117914	191.01818594104307	62	127
190.84403628117914	191.01818594104307	60	127
190.90208616780046	191.01818594104307	54	127
191.01818594104307	191.2039455782313	66	127
191.01818594104307	191.2039455782313	62	127
191.01818594104307	191.2039455782313	60	127
191.01818594104307	191.14589569160998	57	127
191.01818594104307	191.2039455782313	57	127
191.14589569160998	191.26199546485262	60	127
191.2039455782313	191.3897052154195	66	127
191.2039455782313	191.3897052154195	62	127
191.2039455782313	191.3897052154195	60	127
191.2039455782313	191.3897052154195	57	127
191.27360544217686	191.3897052154195	57	127
191.3897052154195	191.57546485260772	57	127
191.3897052154195	191.57546485260772	66	127
191.3897052154195	191.57546485260772	62	127
191.3897052154195	191.57546485260772	60	127
191.3897052154195	191.5174149659864	54	127
191.5174149659864	191.64512471655328	57	127
191.58707482993196	191.78444444444443	57	127
191.58707482993196	191.78444444444443	66	127
191.58707482993196	191.78444444444443	62	127
191.58707482993196	191.78444444444443	60	127
191.64512471655328	191.78444444444443	54	127
191.7960544217687	191.9585941043084	57	127
191.7960544217687	191.90054421768707	48	127
191.7960544217687	191.9585941043084	66	127
191.7960544217687	191.9585941043084	62	127
191.7960544217687	191.9585941043084	60	127
191.90054421768707	192.0166439909297	54	127
191.9585941043084	192.13274376417235	62	127
191.9585941043084	192.13274376417235	60	127
191.9585941043084	192.13274376417235	66	127
191.9585941043084	192.13274376417235	57	127
192.0166439909297	192.13274376417235	48	127
192.13274376417235	192.52748299319728	45	127
192.13274376417235	192.34172335600908	57	127
192.13274376417235	192.34172335600908	66	127
192.13274376417235	192.52748299319728	74	127
192.28367346938776	192.39977324263037	72	127
192.34172335600908	192.52748299319728	57	127
192.34172335600908	192.52748299319728	66	127
192.41138321995464	192.52748299319728	69	127
192.52748299319728	192.64358276643992	60	127
192.52748299319728	192.7016326530612	57	127
192.52748299319728	192.7016326530612	66	127
192.52748299319728	192.91061224489795	76	127
192.64358276643992	192.78290249433107	57	127
192.7016326530612	192.91061224489795	66	127
192.7016326530612	192.91061224489795	57	127
192.78290249433107	192.91061224489795	62	127
192.92222222222222	193.09637188208617	57	127
192.92222222222222	193.09637188208617	66	127
192.92222222222222	193.03832199546486	60	127
192.92222222222222	193.3053514739229	78	127
193.03832199546486	193.16603174603173	57	127
193.10798185941044	193.3053514739229	66	127
193.10798185941044	193.3053514739229	57	127
193.16603174603173	193.3053514739229	62	127
193.3053514739229	193.42145124716552	60	127
193.3053514739229	193.4911111111111	55	127
193.3053514739229	193.4911111111111	67	127
193.3053514739229	193.6768707482993	79	127
193.4330612244898	193.54916099773243	57	127
193.4911111111111	193.6768707482993	55	127
193.4911111111111	193.6768707482993	67	127
193.54916099773243	193.6768707482993	62	127
193.6768707482993	193.90907029478458	55	127
193.6768707482993	193.90907029478458	55	127
193.6768707482993	193.90907029478458	67	127
193.6768707482993	193.839410430839	43	127
193.6768707482993	193.90907029478458	58	127
193.6768707482993	194.88430839002268	74	127
193.839410430839	193.9903401360544	46	127
193.90907029478458	194.11804988662132	55	127
193.90907029478458	194.11804988662132	67	127
193.90907029478458	194.11804988662132	58	127
193.90907029478458	194.11804988662132	62	127
194.00195011337868	194.11804988662132	50	127
194.14126984126983	194.3154195011338	55	127
194.14126984126983	194.3154195011338	67	127
194.14126984126983	194.3154195011338	58	127
194.14126984126983	194.3154195011338	62	127
194.14126984126983	194.25736961451247	55	127
194.25736961451247	194.38507936507938	58	127
194.32702947845806	194.501179138322	67	127
194.32702947845806	194.501179138322	58	127
194.32702947845806	194.501179138322	62	127
194.32702947845806	194.501179138322	55	127
194.38507936507938	194.501179138322	55	127
194.51278911564626	194.71015873015872	55	127
194.51278911564626	194.71015873015872	67	127
194.51278911564626	194.6288888888889	50	127
194.51278911564626	194.71015873015872	62	127
194.51278911564626	194.71015873015872	58	127
194.64049886621316	194.76820861678004	55	127
194.71015873015872	194.88430839002268	55	127
194.71015873015872	194.88430839002268	67	127
194.71015873015872	194.88430839002268	58	127
194.71015873015872	194.88430839002268	62	127
194.76820861678004	194.88430839002268	50	127
194.88430839002268	195.0584580498866	67	127
194.88430839002268	195.0584580498866	75	127
194.88430839002268	195.01201814058956	46	127
194.88430839002268	195.0584580498866	58	127
194.88430839002268	195.0584580498866	62	127
194.88430839002268	195.0584580498866	55	127
195.01201814058956	195.11650793650793	50	127
195.0584580498866	195.26743764172335	55	127
195.0584580498866	195.26743764172335	67	127
195.0584580498866	195.26743764172335	74	127
195.0584580498866	195.26743764172335	58	127
195.0584580498866	195.26743764172335	62	127
195.1281179138322	195.26743764172335	46	127
195.26743764172335	195.45319727891157	55	127
195.26743764172335	195.45319727891157	67	127
195.26743764172335	195.45319727891157	72	127
195.26743764172335	195.45319727891157	58	127
195.26743764172335	195.45319727891157	62	127
195.26743764172335	195.63895691609977	43	127
195.46480725623582	195.63895691609977	62	127
195.46480725623582	195.59251700680272	74	127
195.46480725623582	195.63895691609977	55	127
195.46480725623582	195.63895691609977	67	127
195.46480725623582	195.63895691609977	58	127
195.65056689342404	195.77827664399092	70	127
195.65056689342404	195.83632653061224	55	127
195.65056689342404	195.83632653061224	67	127
195.65056689342404	195.83632653061224	58	127
195.65056689342404	195.83632653061224	62	127
195.83632653061224	195.96403628117915	69	127
195.83632653061224	196.02208616780047	55	127
195.83632653061224	196.02208616780047	67	127
195.83632653061224	196.02208616780047	58	127
195.83632653061224	196.02208616780047	62	127
196.02208616780047	196.20784580498866	58	127
196.02208616780047	196.20784580498866	62	127
196.02208616780047	196.40521541950113	55	127
196.02208616780047	196.40521541950113	67	127
196.20784580498866	196.40521541950113	58	127
196.20784580498866	196.40521541950113	62	127
196.40521541950113	196.59097505668933	58	127
196.40521541950113	196.59097505668933	62	127
196.40521541950113	196.77673469387756	57	127
196.40521541950113	196.77673469387756	77	127
196.59097505668933	196.77673469387756	58	127
196.59097505668933	196.77673469387756	62	127
196.78834467120183	197.18308390022676	58	127
196.78834467120183	197.18308390022676	55	127
196.78834467120183	198.4601814058957	76	127
197.18308390022676	197.56621315192743	57	127
197.18308390022676	197.56621315192743	60	127
197.56621315192743	197.9609523809524	58	127
197.56621315192743	197.9609523809524	58	127
197.56621315192743	197.9609523809524	67	127
197.97256235827663	198.3324716553288	69	127
197.97256235827663	198.3324716553288	60	127
198.34408163265306	199.42380952380952	58	127
198.34408163265306	198.71560090702948	79	127
198.34408163265306	198.71560090702948	70	127
198.47179138321997	198.58789115646258	70	127
198.58789115646258	198.71560090702948	67	127
198.71560090702948	199.0522902494331	72	127
198.71560090702948	199.0522902494331	81	127
198.71560090702948	198.84331065759636	64	127
198.84331065759636	198.9361904761905	58	127
198.94780045351473	199.0522902494331	55	127
199.0522902494331	199.18	64	127
199.0522902494331	199.42380952380952	82	127
199.0522902494331	199.42380952380952	70	127
199.18	199.3077097505669	58	127
199.3077097505669	199.42380952380952	55	127
199.4354195011338	199.5515192743764	64	127
199.4354195011338	199.56312925170067	69	127
199.4354195011338	199.56312925170067	60	127
199.4354195011338	200.17845804988661	82	127
199.5515192743764	199.6792290249433	58	127
199.621179138322	199.76049886621314	67	127
199.621179138322	199.76049886621314	58	127
199.6792290249433	199.8069387755102	55	127
199.8069387755102	200.17845804988661	67	127
199.8069387755102	199.99269841269842	65	127
199.8069387755102	199.99269841269842	57	127
199.99269841269842	200.13201814058957	58	127
199.99269841269842	200.13201814058957	67	127
200.17845804988661	200.3409977324263	64	127
200.17845804988661	200.3409977324263	55	127
200.17845804988661	200.57319727891158	69	127
200.17845804988661	200.9679365079365	82	127
200.38743764172335	200.5267573696145	62	127
200.38743764172335	200.5267573696145	53	127
200.58480725623582	200.9679365079365	61	127
200.58480725623582	200.9679365079365	52	127
200.58480725623582	200.9679365079365	70	127
200.9679365079365	201.10725623582766	84	127
200.9679365079365	201.10725623582766	79	127
200.9679365079365	201.10725623582766	64	127
201.1536961451247	201.29301587301586	77	127
201.1536961451247	201.29301587301586	82	127
201.1536961451247	201.29301587301586	62	127
201.33945578231294	201.52521541950114	81	127
201.33945578231294	201.52521541950114	76	127
201.33945578231294	201.52521541950114	61	127
201.52521541950114	201.65292517006802	82	127
201.52521541950114	201.65292517006802	77	127
201.52521541950114	201.65292517006802	62	127
201.71097505668934	201.83868480725624	79	127
201.71097505668934	201.83868480725624	74	127
201.71097505668934	201.83868480725624	64	127
201.71097505668934	201.83868480725624	58	127
201.89673469387756	202.02444444444444	77	127
201.89673469387756	202.02444444444444	72	127
201.89673469387756	202.02444444444444	65	127
201.89673469387756	202.02444444444444	57	127
202.08249433106576	202.39596371882087	76	127
202.08249433106576	202.48884353741497	70	127
202.08249433106576	202.48884353741497	67	127
202.08249433106576	202.48884353741497	55	127
202.48884353741497	202.6281632653061	79	127
202.48884353741497	202.6281632653061	88	127
202.48884353741497	202.6281632653061	55	127
202.48884353741497	202.6281632653061	40	127
202.67460317460316	202.80231292517007	77	127
202.67460317460316	202.80231292517007	86	127
202.67460317460316	202.80231292517007	57	127
202.67460317460316	202.80231292517007	41	127
202.84875283446712	203.30154195011337	58	127
202.84875283446712	203.08095238095237	85	127
202.84875283446712	203.30154195011337	76	127
202.84875283446712	203.30154195011337	43	127
203.09256235827664	203.25510204081633	88	127
203.30154195011337	203.4524716553288	82	127
203.49891156462584	203.62662131519275	81	127
203.6730612244898	203.84721088435373	79	127
203.84721088435373	203.9517006802721	82	127
203.99814058956918	204.13746031746032	76	127
204.18390022675737	204.31160997732425	74	127
204.36965986394557	204.54380952380953	73	127
204.56702947845804	204.69473922902495	76	127
204.741179138322	204.85727891156463	70	127
204.90371882086168	205.04303854875283	69	127
205.08947845804988	205.26362811791384	67	127
205.2752380952381	205.42616780045353	70	127
205.47260770975058	205.623537414966	64	127
205.66997732426304	205.82090702947846	62	127
205.8673469387755	206.07632653061225	61	127
205.8673469387755	206.07632653061225	61	127
206.08793650793652	206.2156462585034	64	127
206.26208616780045	206.4014058956916	64	127
206.26208616780045	206.4014058956916	61	127
206.26208616780045	206.4014058956916	58	127
206.44784580498867	206.57555555555555	65	127
206.44784580498867	206.57555555555555	62	127
206.44784580498867	206.57555555555555	57	127
206.6219954648526	206.79614512471656	67	127
206.6219954648526	206.79614512471656	64	127
206.6219954648526	206.79614512471656	55	127
206.80775510204083	206.94707482993198	58	127
207.01673469387754	207.15605442176872	73	127
207.01673469387754	207.15605442176872	64	127
207.01673469387754	207.15605442176872	52	127
207.20249433106576	207.35342403628118	74	127
207.20249433106576	207.35342403628118	65	127
207.20249433106576	207.35342403628118	50	127
207.39986394557823	207.63206349206348	76	127
207.39986394557823	207.63206349206348	67	127
207.39986394557823	207.63206349206348	49	127
207.64367346938775	207.77138321995466	52	127
207.8178231292517	207.93392290249434	79	127
207.8178231292517	207.93392290249434	76	127
207.8178231292517	207.93392290249434	46	127
207.9803628117914	208.1312925170068	81	127
207.9803628117914	208.1312925170068	77	127
207.9803628117914	208.1312925170068	45	127
208.17773242630386	208.3518820861678	82	127
208.17773242630386	208.3518820861678	79	127
208.17773242630386	208.3518820861678	43	127
208.36349206349206	208.52603174603175	46	127
208.5724716553288	208.758231292517	85	127
208.5724716553288	208.758231292517	79	127
208.5724716553288	208.758231292517	67	127
208.5724716553288	208.758231292517	69	127
208.5724716553288	208.758231292517	40	127
208.80467120181405	208.94399092970522	85	127
208.80467120181405	208.94399092970522	76	127
208.80467120181405	208.94399092970522	67	127
208.80467120181405	208.94399092970522	69	127
208.80467120181405	208.94399092970522	45	127
208.99043083900227	209.39678004535148	69	127
208.99043083900227	209.17619047619047	86	127
208.99043083900227	209.39678004535148	69	127
208.99043083900227	209.39678004535148	81	127
208.99043083900227	209.39678004535148	65	127
208.99043083900227	209.39678004535148	41	127
209.18780045351474	209.3271201814059	89	127
209.40839002267575	209.53609977324263	81	127
209.58253968253968	209.72185941043085	79	127
209.7682993197279	209.94244897959183	77	127
209.9540589569161	210.08176870748298	81	127
210.1398185941043	210.2675283446712	74	127
210.31396825396826	210.4532879818594	73	127
210.49972789115645	210.6738775510204	74	127
210.68548752834468	210.81319727891156	77	127
210.87124716553288	211.01056689342403	69	127
211.05700680272108	211.18471655328798	67	127
211.23115646258503	211.38208616780045	65	127
211.39369614512472	211.5214058956916	69	127
211.57945578231292	211.69555555555556	62	127
211.7419954648526	211.89292517006803	61	127
211.9625850340136	212.17156462585035	62	127
211.9625850340136	212.17156462585035	62	127
212.17156462585035	212.3108843537415	65	127
212.3805442176871	212.5314739229025	65	127
212.3805442176871	212.5314739229025	62	127
212.3805442176871	212.5314739229025	57	127
212.57791383219956	212.7172335600907	67	127
212.57791383219956	212.7172335600907	64	127
212.57791383219956	212.7172335600907	55	127
212.76367346938775	213.01909297052154	69	127
212.76367346938775	213.01909297052154	65	127
212.76367346938775	213.01909297052154	53	127
213.01909297052154	213.14680272108845	57	127
213.20485260770974	213.35578231292516	74	127
213.20485260770974	213.35578231292516	53	127
213.20485260770974	213.35578231292516	50	127
213.40222222222224	213.54154195011338	76	127
213.40222222222224	213.54154195011338	57	127
213.40222222222224	213.54154195011338	49	127
213.58798185941043	213.79696145124717	78	127
213.58798185941043	213.79696145124717	57	127
213.58798185941043	213.79696145124717	48	127
213.79696145124717	213.92467120181405	51	127
213.98272108843537	214.11043083900228	78	127
213.98272108843537	214.11043083900228	69	127
213.98272108843537	214.11043083900228	45	127
214.15687074829933	214.29619047619047	79	127
214.15687074829933	214.29619047619047	70	127
214.15687074829933	214.29619047619047	43	127
214.34263038548752	214.52839002267575	81	127
214.34263038548752	214.52839002267575	72	127
214.34263038548752	214.52839002267575	42	127
214.52839002267575	214.65609977324263	45	127
214.73736961451246	214.87668934240364	81	127
214.73736961451246	214.87668934240364	66	127
214.73736961451246	214.87668934240364	39	127
214.9231292517007	215.06244897959184	67	127
214.9231292517007	215.06244897959184	82	127
214.9231292517007	215.06244897959184	38	127
215.10888888888888	215.52684807256236	66	127
215.10888888888888	215.30625850340135	84	127
215.10888888888888	215.52684807256236	75	127
215.10888888888888	215.52684807256236	69	127
215.10888888888888	215.52684807256236	36	127
215.30625850340135	215.4804081632653	87	127
215.53845804988663	215.7358276643991	81	127
215.78226757369615	215.9215873015873	79	127
215.96802721088434	216.1421768707483	78	127
216.1421768707483	216.26988662131518	81	127
216.3279365079365	216.43242630385487	75	127
216.4556462585034	216.59496598639456	74	127
216.6414058956916	216.82716553287983	72	127
216.82716553287983	216.96648526077098	75	127
217.0245351473923	217.17546485260772	69	127
217.23351473922904	217.36122448979592	67	127
217.40766439909297	217.5934240362812	66	127
217.5934240362812	217.73274376417234	69	127
217.7791836734694	217.91850340136054	63	127
217.97655328798186	218.10426303854877	62	127
218.16231292517006	218.35968253968255	60	127
218.16231292517006	218.35968253968255	60	127
218.35968253968255	218.48739229024943	63	127
218.54544217687075	218.67315192743763	69	127
218.54544217687075	218.67315192743763	66	127
218.54544217687075	218.67315192743763	57	127
218.73120181405895	218.85891156462586	70	127
218.73120181405895	218.85891156462586	67	127
218.73120181405895	218.85891156462586	55	127
218.9053514739229	219.11433106575964	72	127
218.9053514739229	219.11433106575964	69	127
218.9053514739229	219.11433106575964	54	127
219.11433106575964	219.26526077097506	57	127
219.3117006802721	219.439410430839	78	127
219.3117006802721	219.439410430839	57	127
219.3117006802721	219.439410430839	51	127
219.4974603174603	219.62517006802722	79	127
219.4974603174603	219.62517006802722	58	127
219.4974603174603	219.62517006802722	50	127
219.67160997732427	219.85736961451246	81	127
219.67160997732427	219.85736961451246	60	127
219.67160997732427	219.85736961451246	48	127
219.85736961451246	219.99668934240364	51	127
220.05473922902493	220.18244897959184	81	127
220.05473922902493	220.18244897959184	66	127
220.05473922902493	220.18244897959184	45	127
220.24049886621316	220.35659863945577	82	127
220.24049886621316	220.35659863945577	67	127
220.24049886621316	220.35659863945577	43	127
220.39142857142858	220.5655782312925	84	127
220.39142857142858	220.5655782312925	69	127
220.39142857142858	220.5655782312925	42	127
220.5655782312925	220.70489795918368	45	127
220.762947845805	220.89065759637188	86	127
220.762947845805	220.89065759637188	66	127
220.762947845805	220.89065759637188	69	127
220.762947845805	220.89065759637188	36	127
220.9719274376417	221.1344671201814	86	127
220.9719274376417	221.1344671201814	66	127
220.9719274376417	221.1344671201814	69	127
220.9719274376417	221.1344671201814	48	127
221.2273469387755	221.5175963718821	86	127
221.2273469387755	221.71496598639456	62	127
221.2273469387755	221.71496598639456	74	127
221.2273469387755	221.71496598639456	67	127
221.2273469387755	221.71496598639456	70	127
221.2273469387755	221.71496598639456	46	127
221.5175963718821	221.6685260770975	91	127
221.71496598639456	221.84267573696144	86	127
221.71496598639456	221.84267573696144	74	127
221.90072562358276	222.02843537414967	84	127
221.90072562358276	222.02843537414967	72	127
222.07487528344672	222.15614512471655	82	127
222.07487528344672	222.15614512471655	70	127
222.15614512471655	222.29546485260772	86	127
222.34190476190477	222.46961451247165	82	127
222.34190476190477	222.46961451247165	58	127
222.52766439909297	222.65537414965988	81	127
222.52766439909297	222.65537414965988	57	127
222.70181405895693	222.88757369614513	79	127
222.70181405895693	222.88757369614513	55	127
222.88757369614513	223.02689342403627	82	127
223.07333333333332	223.20104308390023	74	127
223.25909297052155	223.38680272108843	72	127
223.43324263038548	223.64222222222222	70	127
223.43324263038548	223.64222222222222	46	127
223.64222222222222	223.79315192743763	74	127
223.83959183673468	223.9673015873016	75	127
223.83959183673468	223.9673015873016	87	127
223.83959183673468	223.9673015873016	75	127
223.83959183673468	223.9673015873016	63	127
224.08340136054423	224.2111111111111	86	127
224.08340136054423	224.2111111111111	74	127
224.08340136054423	224.2111111111111	74	127
224.08340136054423	224.2111111111111	62	127
224.25755102040816	224.45492063492063	87	127
224.25755102040816	224.45492063492063	75	127
224.25755102040816	224.45492063492063	75	127
224.25755102040816	224.45492063492063	63	127
224.45492063492063	224.5942403628118	91	127
224.45492063492063	224.5942403628118	79	127
224.45492063492063	224.5942403628118	79	127
224.45492063492063	224.5942403628118	67	127
224.64068027210885	224.76839002267573	82	127
224.64068027210885	224.76839002267573	70	127
224.64068027210885	224.76839002267573	70	127
224.64068027210885	224.76839002267573	58	127
224.82643990929705	224.93092970521542	80	127
224.82643990929705	224.93092970521542	68	127
224.82643990929705	224.93092970521542	68	127
224.82643990929705	224.93092970521542	56	127
224.97736961451247	225.1863492063492	79	127
224.97736961451247	225.1863492063492	67	127
224.97736961451247	225.1863492063492	67	127
224.97736961451247	225.1863492063492	55	127
225.1863492063492	225.32566893424035	82	127
225.1863492063492	225.32566893424035	70	127
225.1863492063492	225.32566893424035	70	127
225.1863492063492	225.32566893424035	58	127
225.3721088435374	225.48820861678004	75	127
225.3721088435374	225.48820861678004	63	127
225.3721088435374	225.48820861678004	63	127
225.3721088435374	225.48820861678004	51	127
225.54625850340136	225.69718820861678	74	127
225.54625850340136	225.69718820861678	62	127
225.54625850340136	225.69718820861678	62	127
225.54625850340136	225.69718820861678	50	127
225.76684807256237	225.92938775510203	75	127
225.76684807256237	225.92938775510203	63	127
225.76684807256237	225.92938775510203	63	127
225.76684807256237	225.92938775510203	51	127
225.92938775510203	226.0687074829932	79	127
225.92938775510203	226.0687074829932	67	127
225.92938775510203	226.0687074829932	67	127
225.92938775510203	226.0687074829932	55	127
226.11514739229025	226.2544671201814	70	127
226.11514739229025	226.2544671201814	58	127
226.11514739229025	226.2544671201814	58	127
226.11514739229025	226.2544671201814	46	127
226.30090702947845	226.4170068027211	56	127
226.30090702947845	226.4170068027211	68	127
226.30090702947845	226.4170068027211	56	127
226.30090702947845	226.4170068027211	44	127
226.4750566893424	226.6375963718821	67	127
226.4750566893424	226.6375963718821	55	127
226.4750566893424	226.6375963718821	55	127
226.4750566893424	226.6375963718821	43	127
226.6375963718821	226.77691609977325	70	127
226.6375963718821	226.77691609977325	58	127
226.6375963718821	226.77691609977325	58	127
226.6375963718821	226.77691609977325	46	127
226.83496598639456	226.96267573696144	63	127
226.83496598639456	226.96267573696144	51	127
226.83496598639456	226.96267573696144	39	127
227.0091156462585	227.1600453514739	62	127
227.0091156462585	227.1600453514739	50	127
227.0091156462585	227.1600453514739	38	127
227.2297052154195	227.42707482993197	63	127
227.2297052154195	227.42707482993197	51	127
227.2297052154195	227.42707482993197	39	127
227.42707482993197	227.56639455782312	67	127
227.42707482993197	227.56639455782312	55	127
227.42707482993197	227.56639455782312	43	127
227.6128344671202	227.7289342403628	58	127
227.6128344671202	227.7289342403628	58	127
227.6128344671202	227.7289342403628	46	127
227.77537414965985	227.91469387755103	56	127
227.77537414965985	227.91469387755103	56	127
227.77537414965985	227.91469387755103	44	127
227.97274376417235	228.1120634920635	55	127
227.97274376417235	228.1120634920635	55	127
227.97274376417235	228.1120634920635	43	127
228.15850340136055	228.30943310657597	58	127
228.15850340136055	228.30943310657597	58	127
228.15850340136055	228.30943310657597	46	127
228.35587301587302	228.49519274376416	63	127
228.35587301587302	228.49519274376416	63	127
228.35587301587302	228.49519274376416	51	127
228.5416326530612	228.66934240362812	67	127
228.5416326530612	228.66934240362812	55	127
228.5416326530612	228.66934240362812	67	127
228.5416326530612	228.66934240362812	55	127
228.7390022675737	228.8667120181406	70	127
228.7390022675737	228.8667120181406	58	127
228.7390022675737	228.8667120181406	70	127
228.7390022675737	228.8667120181406	58	127
228.91315192743764	229.06408163265306	75	127
228.91315192743764	229.06408163265306	58	127
228.91315192743764	229.06408163265306	55	127
228.91315192743764	229.1105215419501	63	127
229.1105215419501	229.24984126984128	79	127
229.1105215419501	229.24984126984128	63	127
229.1105215419501	229.24984126984128	58	127
229.1105215419501	229.29628117913833	58	127
229.29628117913833	229.43560090702948	82	127
229.29628117913833	229.43560090702948	67	127
229.29628117913833	229.43560090702948	63	127
229.29628117913833	229.48204081632653	55	127
229.48204081632653	229.6561904761905	87	127
229.48204081632653	229.6561904761905	70	127
229.48204081632653	229.6561904761905	67	127
229.48204081632653	229.70263038548754	51	127
229.70263038548754	229.8419501133787	91	127
229.70263038548754	229.8419501133787	75	127
229.70263038548754	229.8419501133787	70	127
229.70263038548754	229.88839002267574	46	127
229.9	230.03931972789115	91	127
229.9	230.03931972789115	79	127
229.9	230.03931972789115	75	127
229.9	230.0857596371882	43	127
230.09736961451247	230.27151927437643	91	127
230.09736961451247	230.27151927437643	82	127
230.09736961451247	230.27151927437643	75	127
230.09736961451247	230.32956916099772	43	127
230.32956916099772	230.95650793650793	88	127
230.32956916099772	230.95650793650793	73	127
231.1538775510204	231.76920634920634	61	127
231.1538775510204	231.76920634920634	64	127
231.95496598639457	232.55868480725624	56	127
231.95496598639457	232.55868480725624	65	127
231.95496598639457	232.55868480725624	59	127
231.95496598639457	232.55868480725624	62	127
232.74444444444444	233.45265306122448	44	127
233.68485260770976	234.14925170068028	88	127
233.68485260770976	234.14925170068028	73	127
234.28857142857143	234.8690702947846	61	127
234.28857142857143	234.8690702947846	64	127
235.07804988662133	235.69337868480724	56	127
235.07804988662133	235.69337868480724	65	127
235.07804988662133	235.69337868480724	59	127
235.07804988662133	235.69337868480724	62	127
235.87913832199547	236.61056689342405	44	127
236.83115646258503	237.27233560090704	86	127
236.83115646258503	237.27233560090704	71	127
237.44648526077097	238.05020408163264	59	127
237.44648526077097	238.05020408163264	62	127
238.23596371882087	238.80485260770976	60	127
238.23596371882087	238.80485260770976	63	127
239.00222222222223	239.57111111111112	42	127
239.74526077097505	240.31414965986394	84	127
239.74526077097505	240.31414965986394	81	127
239.74526077097505	240.31414965986394	53	127
240.53473922902495	241.2081179138322	65	127
240.53473922902495	241.2081179138322	60	127
240.53473922902495	241.2081179138322	57	127
240.53473922902495	241.2081179138322	72	127
240.53473922902495	241.2081179138322	53	127
241.463537414966	242.1833560090703	61	127
241.463537414966	242.1833560090703	58	127
241.463537414966	242.1833560090703	65	127
241.463537414966	242.1833560090703	73	127
241.463537414966	242.1833560090703	46	127
242.4039455782313	243.2166439909297	41	127
242.4039455782313	243.2166439909297	73	127
242.4039455782313	243.2166439909297	65	127
242.4039455782313	243.2166439909297	70	127
242.4039455782313	243.2166439909297	58	127
243.4372335600907	243.8435827664399	72	127
243.4372335600907	253.00385487528345	67	127
243.4372335600907	253.00385487528345	40	127
243.4372335600907	253.00385487528345	55	127
243.4372335600907	253.00385487528345	48	127
243.8435827664399	244.21510204081633	74	127
244.21510204081633	244.58662131519273	76	127
244.598231292517	245.02780045351474	77	127
245.02780045351474	246.39777777777778	76	127
246.40938775510205	246.6415873015873	77	127
246.6415873015873	246.82734693877552	76	127
246.82734693877552	247.01310657596372	74	127
247.01310657596372	247.2104761904762	76	127
247.28013605442177	247.41945578231292	72	127
247.51233560090702	247.6516553287982	71	127
247.69809523809525	247.88385487528345	74	127
247.88385487528345	248.01156462585033	72	127
248.0580045351474	248.19732426303855	67	127
248.2437641723356	248.38308390022675	65	127
248.44113378684807	248.63850340136054	69	127
248.63850340136054	248.77782312925171	67	127
248.835873015873	248.98680272108842	64	127
249.0332426303855	249.1493424036281	62	127
249.20739229024943	249.4047619047619	65	127
249.41637188208617	249.54408163265308	64	127
249.59052154195012	249.72984126984127	60	127
249.7878911564626	249.92721088435374	59	127
249.9736507936508	250.11297052154194	62	127
250.17102040816326	250.27551020408163	60	127
250.32195011337868	250.44965986394558	65	127
250.49609977324263	250.64702947845805	64	127
250.6934693877551	250.821179138322	69	127
250.8792290249433	250.98371882086167	67	127
251.03015873015872	251.18108843537414	74	127
251.2275283446712	251.37845804988663	72	127
251.42489795918368	251.5758276643991	77	127
251.63387755102042	251.7615873015873	76	127
251.80802721088435	251.93573696145125	81	127
251.9821768707483	252.13310657596372	79	127
252.17954648526077	252.35369614512473	84	127
252.41174603174602	252.56267573696144	83	127
252.62072562358276	252.76004535147393	85	127
252.80648526077098	252.9574149659864	84	127
253.00385487528345	259.0178231292517	68	127
253.00385487528345	253.18961451247165	82	127
253.00385487528345	259.0178231292517	56	127
253.00385487528345	259.0178231292517	41	127
253.00385487528345	255.9992290249433	48	127
253.20122448979592	253.31732426303856	80	127
253.3637641723356	253.50308390022676	77	127
253.56113378684807	253.70045351473922	76	127
253.74689342403627	253.9326530612245	79	127
253.94426303854874	254.08358276643992	77	127
254.13002267573697	254.29256235827665	72	127
254.3390022675737	254.48993197278912	71	127
254.53637188208617	254.7105215419501	73	127
254.72213151927437	254.84984126984128	72	127
254.89628117913833	255.04721088435375	68	127
255.0936507936508	255.23297052154194	67	127
255.279410430839	255.44195011337868	70	127
255.45356009070295	255.58126984126983	68	127
255.6277097505669	255.76702947845806	65	127
255.8134693877551	255.95278911564625	64	127
255.9992290249433	256.1385487528345	67	127
255.9992290249433	261.3398185941043	49	127
256.1965986394558	256.3475283446712	65	127
256.39396825396824	256.5448979591837	70	127
256.5913378684807	256.7306575963719	68	127
256.77709750566896	256.9164172335601	73	127
256.97446712018143	257.11378684807255	72	127
257.1718367346939	257.311156462585	75	127
257.3575963718821	257.4968934240363	73	127
257.5433560090703	257.68267573696147	78	127
257.7291156462585	257.8568253968254	77	127
257.91485260770975	258.0425850340136	82	127
258.0890249433107	258.2283446712018	80	127
258.2747845804989	258.41408163265305	85	127
258.4605442176871	258.588253968254	84	127
258.64630385487527	258.78562358276645	87	127
258.8320408163265	258.97138321995465	85	127
259.0178231292517	259.15714285714284	84	127
259.0178231292517	260.59678004535147	58	127
259.0178231292517	262.0712471655329	42	127
259.2035827664399	259.31968253968256	82	127
259.37773242630385	259.5286621315193	80	127
259.5751020408163	259.7144217687075	78	127
259.7608616780045	259.9001814058957	77	127
259.95820861678004	260.13238095238097	75	127
260.19043083900226	260.352970521542	73	127
260.399410430839	260.55034013605444	72	127
260.59678004535147	260.73609977324264	70	127
260.59678004535147	262.0712471655329	70	127
260.78253968253966	260.9334693877551	68	127
260.9915192743764	261.1308390022676	66	127
261.17725623582766	261.29337868480724	65	127
261.3398185941043	261.4791383219955	75	127
261.3398185941043	262.0712471655329	51	127
261.5255782312925	261.6532879818594	73	127
261.722947845805	261.8506575963719	87	127
261.89707482993197	262.0248072562358	85	127
262.0712471655329	264.27714285714285	51	127
262.0712471655329	262.210566893424	84	127
262.0712471655329	265.078231292517	44	127
262.0712471655329	263.5689342403628	60	127
262.2570068027211	262.39632653061227	82	127
262.4427664399093	262.54725623582766	80	127
262.59369614512474	262.7446258503401	78	127
262.8026757369615	262.9768253968254	77	127
263.0232426303855	263.12773242630385	75	127
263.1974149659864	263.31351473922905	73	127
263.35995464852607	263.5224943310658	72	127
263.5689342403628	265.078231292517	72	127
263.5689342403628	263.6966439909297	70	127
263.7430612244898	263.87079365079364	68	127
263.90562358276645	264.05655328798184	66	127
264.1029931972789	264.2307029478458	65	127
264.27714285714285	264.416462585034	78	127
264.27714285714285	265.8444897959184	53	127
264.4861224489796	264.63705215419503	77	127
264.6951020408163	264.82281179138323	89	127
264.8924716553288	265.03179138321997	87	127
265.078231292517	266.622358276644	46	127
265.078231292517	265.21755102040817	85	127
265.078231292517	265.8444897959184	61	127
265.26396825396824	265.40331065759636	84	127
265.4613605442177	265.60068027210883	82	127
265.6587301587302	265.7980498866213	80	127
265.8444897959184	266.00702947845804	78	127
265.8444897959184	266.622358276644	73	127
265.8444897959184	267.35378684807256	54	127
266.0534693877551	266.1927664399093	77	127
266.22761904761904	266.35532879818595	90	127
266.41337868480724	266.5643083900227	89	127
266.622358276644	269.6061224489796	48	127
266.622358276644	266.76167800453516	87	127
266.622358276644	267.35378684807256	63	127
266.80809523809523	266.94743764172335	85	127
266.99387755102043	267.13319727891155	84	127
267.1912471655329	267.3189342403628	82	127
267.35378684807256	268.1084353741497	75	127
267.35378684807256	271.4869387755102	56	127
267.35378684807256	267.49310657596374	80	127
267.53954648526076	267.6904761904762	78	127
267.7369160997732	267.8762358276644	77	127
267.93426303854875	268.0619954648526	75	127
268.1084353741497	268.27097505668934	73	127
268.1084353741497	269.2229931972789	75	127
268.3174149659864	268.4799546485261	72	127
268.52639455782315	268.65410430839	70	127
268.7005442176871	268.8166439909297	68	127
268.86308390022674	269.0024036281179	66	127
269.048820861678	269.1881632653061	65	127
269.2229931972789	269.3622902494331	63	127
269.2229931972789	270.0124716553288	63	127
269.4203628117914	269.5480725623583	61	127
269.6061224489796	269.74544217687077	60	127
269.6061224489796	270.0124716553288	48	127
269.80349206349206	269.9660317460318	56	127
270.0124716553288	270.1401814058957	58	127
270.0124716553288	270.372380952381	65	127
270.0124716553288	270.372380952381	49	127
270.198231292517	270.3259410430839	56	127
270.372380952381	270.7322902494331	66	127
270.372380952381	270.5117006802721	58	127
270.372380952381	270.7322902494331	51	127
270.5581405895692	270.6858276643991	56	127
270.7322902494331	270.88321995464855	63	127
270.7322902494331	271.1154195011338	68	127
270.7322902494331	271.1154195011338	53	127
270.94126984126984	271.06897959183675	61	127
271.1154195011338	271.25473922902495	66	127
271.1154195011338	272.67115646258503	65	127
271.1154195011338	272.67115646258503	49	127
271.301156462585	271.44049886621315	65	127
271.4869387755102	271.6494784580499	70	127
271.4869387755102	271.89328798185943	58	127
271.71913832199544	271.84684807256235	68	127
271.89328798185943	272.28802721088437	60	127
271.89328798185943	272.0558276643991	70	127
272.10226757369617	272.229977324263	68	127
272.28802721088437	272.42732426303854	75	127
272.28802721088437	272.67115646258503	61	127
272.48539682539683	272.61310657596374	73	127
272.67115646258503	273.0542857142857	48	127
272.67115646258503	272.8104761904762	70	127
272.67115646258503	273.0542857142857	63	127
272.67115646258503	274.5403628117914	56	127
272.8685260770975	273.0078458049887	68	127
273.0542857142857	273.4490022675737	65	127
273.0542857142857	273.4490022675737	49	127
273.0542857142857	273.20521541950114	70	127
273.26326530612243	273.4025850340136	68	127
273.4606349206349	273.5999546485261	73	127
273.4606349206349	273.83215419501136	66	127
273.4606349206349	273.83215419501136	51	127
273.64639455782316	273.7857142857143	72	127
273.83215419501136	274.1920634920635	53	127
273.83215419501136	273.9714739229025	75	127
273.83215419501136	274.1920634920635	68	127
274.01791383219955	274.14562358276646	73	127
274.20367346938775	275.60848072562356	65	127
274.20367346938775	275.2601814058957	49	127
274.20367346938775	274.3197732426304	78	127
274.36619047619047	274.4939229024943	77	127
274.5403628117914	274.65646258503403	80	127
274.5403628117914	274.8654421768708	58	127
274.6912925170068	274.8190022675737	78	127
274.87702947845804	275.01637188208616	82	127
274.87702947845804	275.2601814058957	60	127
275.0744217687075	275.21374149659863	80	127
275.2601814058957	275.3995011337868	87	127
275.2601814058957	275.60848072562356	61	127
275.2601814058957	275.60848072562356	56	127
275.4459410430839	275.56204081632654	85	127
275.62009070294783	275.98	53	127
275.62009070294783	275.7361904761905	84	127
275.62009070294783	275.98	62	127
275.62009070294783	275.98	56	127
275.78263038548755	275.93356009070294	82	127
275.98	276.3863492063492	54	127
275.98	276.1309297052154	89	127
275.98	276.3863492063492	63	127
275.98	276.3863492063492	58	127
276.18897959183676	276.33990929705215	87	127
276.3979591836735	276.52566893424034	90	127
276.3979591836735	276.8043083900227	65	127
276.3979591836735	276.8043083900227	62	127
276.3979591836735	276.8043083900227	56	127
276.5837188208617	276.7578684807256	89	127
276.8043083900227	277.1642176870748	58	127
276.8043083900227	276.9436281179138	92	127
276.8043083900227	277.1642176870748	66	127
276.8043083900227	277.1642176870748	63	127
276.9900680272109	277.1177777777778	90	127
277.1758276643991	277.303537414966	94	127
277.1758276643991	278.29038548752834	56	127
277.1758276643991	278.29038548752834	65	127
277.1758276643991	278.29038548752834	61	127
277.349977324263	277.4892970521542	92	127
277.5357142857143	277.68666666666667	94	127
277.73310657596375	277.8608163265306	92	127
277.91886621315194	278.04655328798185	94	127
278.10462585034014	278.2439455782313	92	127
278.29038548752834	278.4645124716553	54	127
278.29038548752834	278.41809523809525	94	127
278.29038548752834	278.4645124716553	63	127
278.29038548752834	278.4645124716553	60	127
278.4645124716553	278.63868480725625	61	127
278.4645124716553	278.63868480725625	65	127
278.4645124716553	278.63868480725625	53	127
278.4645124716553	278.5806349206349	92	127
278.6502947845805	279.01020408163265	51	127
278.6502947845805	278.78961451247164	94	127
278.6502947845805	279.01020408163265	66	127
278.6502947845805	279.01020408163265	63	127
278.8360544217687	278.96374149659863	92	127
279.01020408163265	279.82290249433106	56	127
279.01020408163265	279.1495238095238	90	127
279.01020408163265	279.19596371882085	63	127
279.01020408163265	279.19596371882085	60	127
279.19596371882085	279.35850340136057	65	127
279.19596371882085	279.35850340136057	61	127
279.19596371882085	279.3120634920635	89	127
279.37011337868483	279.55587301587303	66	127
279.37011337868483	279.55587301587303	63	127
279.37011337868483	279.4978231292517	87	127
279.55587301587303	279.74163265306123	85	127
279.55587301587303	279.82290249433106	68	127
279.55587301587303	279.82290249433106	65	127
279.82290249433106	279.96222222222224	84	127
279.82290249433106	280.00866213151926	70	127
279.82290249433106	280.00866213151926	66	127
279.82290249433106	280.18281179138324	54	127
280.00866213151926	280.13637188208617	87	127
280.00866213151926	280.18281179138324	72	127
280.00866213151926	280.18281179138324	68	127
280.1943990929705	281.8546485260771	53	127
280.1943990929705	280.61238095238093	80	127
280.1943990929705	281.36702947845805	73	127
280.1943990929705	281.36702947845805	68	127
280.61238095238093	280.9839002267574	82	127
280.99551020408165	281.36702947845805	84	127
281.36702947845805	282.28421768707483	68	127
281.36702947845805	281.8546485260771	85	127
281.36702947845805	281.8546485260771	61	127
281.86625850340135	283.41038548752834	54	127
281.86625850340135	283.41038548752834	82	127
281.86625850340135	282.28421768707483	62	127
282.28421768707483	282.64410430839	63	127
282.28421768707483	282.64410430839	66	127
282.6557142857143	283.0272562358277	65	127
282.6557142857143	283.0272562358277	65	127
283.0272562358277	283.41038548752834	63	127
283.0272562358277	283.41038548752834	66	127
283.41038548752834	283.7702721088435	64	127
283.41038548752834	284.6062131519274	80	127
283.41038548752834	285.1867120181406	61	127
283.41038548752834	286.80049886621316	56	127
283.7702721088435	284.13020408163266	65	127
284.13020408163266	284.6062131519274	66	127
284.6062131519274	284.8732426303855	78	127
284.6062131519274	285.1867120181406	68	127
284.8732426303855	285.1867120181406	77	127
285.1867120181406	285.25637188208617	60	127
285.1867120181406	285.25637188208617	66	127
285.1867120181406	285.25637188208617	75	127
285.25637188208617	285.3143990929705	77	127
285.25637188208617	285.3143990929705	68	127
285.25637188208617	285.3143990929705	61	127
285.3143990929705	285.39569160997735	60	127
285.3143990929705	285.39569160997735	75	127
285.3143990929705	285.39569160997735	66	127
285.39569160997735	285.45374149659864	61	127
285.39569160997735	285.45374149659864	68	127
285.39569160997735	285.45374149659864	77	127
285.45374149659864	285.558231292517	75	127
285.45374149659864	285.558231292517	60	127
285.45374149659864	285.558231292517	66	127
285.558231292517	285.62789115646257	77	127
285.558231292517	285.62789115646257	61	127
285.558231292517	285.62789115646257	68	127
285.62789115646257	285.6975510204082	75	127
285.62789115646257	285.6975510204082	60	127
285.62789115646257	285.6975510204082	66	127
285.6975510204082	285.80204081632655	77	127
285.6975510204082	285.80204081632655	61	127
285.6975510204082	285.80204081632655	68	127
285.80204081632655	285.86009070294784	75	127
285.80204081632655	285.86009070294784	60	127
285.80204081632655	285.86009070294784	66	127
285.86009070294784	285.9181179138322	77	127
285.86009070294784	285.9181179138322	61	127
285.86009070294784	285.9181179138322	68	127
285.9181179138322	285.999410430839	75	127
285.9181179138322	285.999410430839	60	127
285.9181179138322	285.999410430839	66	127
285.999410430839	286.0690702947846	77	127
285.999410430839	286.0690702947846	61	127
285.999410430839	286.0690702947846	68	127
286.0690702947846	286.1270975056689	75	127
286.0690702947846	286.1270975056689	60	127
286.0690702947846	286.1270975056689	66	127
286.1270975056689	286.1851700680272	77	127
286.1270975056689	286.1851700680272	61	127
286.1270975056689	286.1851700680272	68	127
286.1851700680272	286.2548299319728	75	127
286.1851700680272	286.2548299319728	60	127
286.1851700680272	286.2548299319728	66	127
286.2548299319728	286.3128798185941	77	127
286.2548299319728	286.3128798185941	61	127
286.2548299319728	286.3128798185941	68	127
286.3128798185941	286.3709297052154	75	127
286.3128798185941	286.3709297052154	60	127
286.3128798185941	286.3709297052154	66	127
286.3709297052154	286.45219954648525	77	127
286.3709297052154	286.45219954648525	61	127
286.3709297052154	286.45219954648525	68	127
286.45219954648525	286.52185941043086	75	127
286.45219954648525	286.52185941043086	60	127
286.45219954648525	286.52185941043086	66	127
286.52185941043086	286.5915192743764	77	127
286.52185941043086	286.5915192743764	61	127
286.52185941043086	286.5915192743764	68	127
286.5915192743764	286.661179138322	75	127
286.5915192743764	286.661179138322	60	127
286.5915192743764	286.661179138322	66	127
286.661179138322	286.7540589569161	73	127
286.661179138322	286.7540589569161	58	127
286.661179138322	286.7540589569161	65	127
286.7540589569161	286.881768707483	60	127
286.7540589569161	286.881768707483	75	127
286.7540589569161	286.881768707483	66	127
286.881768707483	288.43750566893425	61	127
286.881768707483	287.25326530612244	61	127
286.881768707483	287.25326530612244	65	127
286.881768707483	288.43750566893425	73	127
287.25326530612244	287.67124716553286	66	127
287.25326530612244	287.67124716553286	63	127
287.67124716553286	288.06596371882085	68	127
287.67124716553286	288.06596371882085	65	127
288.06596371882085	288.25174603174605	70	127
288.06596371882085	288.25174603174605	66	127
288.25174603174605	288.43750566893425	68	127
288.25174603174605	288.43750566893425	65	127
288.43750566893425	289.65655328798186	66	127
288.43750566893425	288.8554648526077	72	127
288.43750566893425	288.8554648526077	56	127
288.43750566893425	289.65655328798186	63	127
288.8554648526077	289.2269841269841	73	127
288.8554648526077	289.2269841269841	54	127
289.2269841269841	289.65655328798186	75	127
289.2269841269841	289.65655328798186	53	127
289.66816326530613	289.85392290249433	51	127
289.66816326530613	289.85392290249433	77	127
289.66816326530613	290.0512925170068	68	127
289.66816326530613	290.0512925170068	60	127
289.85392290249433	290.0512925170068	56	127
289.85392290249433	290.0512925170068	75	127
290.0512925170068	291.1890702947846	56	127
290.0512925170068	291.57219954648525	73	127
290.0512925170068	290.24866213151927	65	127
290.0512925170068	290.24866213151927	61	127
290.2718820861678	290.3995918367347	66	127
290.2718820861678	290.3995918367347	63	127
290.457641723356	290.5853514739229	65	127
290.457641723356	290.5853514739229	61	127
290.60857142857145	290.7362811791383	63	127
290.60857142857145	290.7362811791383	66	127
290.7827210884354	290.9684807256236	65	127
290.7827210884354	290.9684807256236	68	127
290.98009070294785	291.1426303854875	70	127
290.98009070294785	291.1426303854875	66	127
291.20068027210885	291.33997732426303	68	127
291.20068027210885	291.33997732426303	65	127
291.20068027210885	291.93210884353743	44	127
291.38643990929705	291.52575963718823	70	127
291.38643990929705	291.52575963718823	66	127
291.57219954648525	292.70997732426304	63	127
291.57219954648525	291.74632653061224	72	127
291.57219954648525	292.70997732426304	66	127
291.75795918367345	291.88566893424036	73	127
291.9437188208617	292.33845804988664	42	127
291.9437188208617	292.07142857142856	72	127
292.11786848072563	292.2804081632653	73	127
292.33845804988664	292.5358276643991	75	127
292.33845804988664	292.70997732426304	41	127
292.5358276643991	292.663514739229	77	127
292.7215873015873	293.1743537414966	66	127
292.7215873015873	292.8609070294785	75	127
292.7215873015873	292.93056689342404	39	127
292.7215873015873	293.1743537414966	68	127
292.93056689342404	293.1743537414966	44	127
292.93056689342404	293.11632653061224	77	127
293.1743537414966	293.65038548752835	70	127
293.1743537414966	293.3833333333333	74	127
293.1743537414966	293.65038548752835	65	127
293.1743537414966	293.65038548752835	46	127
293.3833333333333	293.59231292517006	75	127
293.6619954648526	293.78968253968253	74	127
293.83614512471655	293.97546485260773	75	127
294.0102947845805	294.19605442176874	77	127
294.19605442176874	294.3237641723356	78	127
294.38181405895693	294.4863038548753	77	127
294.52113378684805	294.66045351473923	78	127
294.7068934240363	294.8926530612245	75	127
294.8926530612245	295.0203401360544	77	127
295.0784126984127	295.2177324263039	75	127
295.2641723356009	295.3918820861678	77	127
295.4266893424036	296.8895691609977	75	127
295.4266893424036	295.6124716553288	78	127
295.6124716553288	295.7401587301587	80	127
295.798231292517	295.9027210884354	78	127
295.9491609977324	296.0884807256236	80	127
296.13492063492066	296.32068027210886	77	127
296.32068027210886	296.44836734693877	78	127
296.50643990929706	296.63414965986397	77	127
296.680589569161	296.81990929705216	78	127
296.8895691609977	297.6558276643991	74	127
296.8895691609977	297.0753287981859	80	127
297.0753287981859	297.20303854875283	82	127
297.2610884353742	297.4004081632653	80	127
297.45845804988664	297.60938775510203	82	127
297.6558276643991	297.8415873015873	78	127
297.6558276643991	297.9344671201814	75	127
297.8415873015873	297.9808843537415	80	127
298.0273469387755	298.1550566893424	78	127
298.0273469387755	298.3756462585034	70	127
298.2131065759637	298.42208616780044	80	127
298.4685260770975	299.9429931972789	78	127
298.4685260770975	298.6542857142857	82	127
298.6542857142857	298.7936054421769	83	127
298.8400453514739	298.9677551020408	82	127
299.0258049886621	299.1651247165533	83	127
299.21154195011337	299.39732426303857	81	127
299.39732426303857	299.5366439909297	82	127
299.58308390022677	299.7107936507937	81	127
299.76884353741497	299.8965532879819	82	127
299.9429931972789	301.0807709750567	77	127
299.9429931972789	300.12873015873015	84	127
300.12873015873015	300.26807256235827	85	127
300.31451247165535	300.44219954648526	84	127
300.50027210884355	300.65120181405894	85	127
300.697641723356	300.8950113378685	87	127
300.8950113378685	301.03433106575966	85	127
301.0807709750567	301.2084807256236	84	127
301.0807709750567	301.25489795918367	75	127
301.2665306122449	301.45229024943313	73	127
301.2665306122449	301.3942403628118	82	127
301.45229024943313	301.59160997732425	81	127
301.45229024943313	301.81219954648526	72	127
301.63804988662133	301.77736961451245	82	127
301.81219954648526	302.17208616780044	77	127
301.81219954648526	301.93990929705217	84	127
301.99795918367346	302.12566893424037	81	127
302.17208616780044	302.53201814058957	82	127
302.17208616780044	302.3462585034014	70	127
302.3462585034014	302.48555555555555	72	127
302.53201814058957	302.6597278911565	70	127
302.71777777777777	302.85709750566895	72	127
302.90353741496597	303.0892970521542	73	127
302.90353741496597	304.48249433106577	70	127
303.0892970521542	303.26344671201815	75	127
303.35632653061225	303.48403628117916	73	127
303.54208616780045	303.66979591836736	75	127
303.71621315192743	303.89038548752836	72	127
303.89038548752836	304.01807256235827	73	127
304.0645351473923	304.21546485260774	72	127
304.27351473922903	304.4360544217687	73	127
304.48249433106577	305.2255328798186	69	127
304.48249433106577	304.66825396825396	75	127
304.66825396825396	304.80757369614514	77	127
304.8424036281179	304.9701133786848	75	127
305.05138321995463	305.17909297052154	77	127
305.2371428571429	305.4229024943311	73	127
305.2371428571429	305.5157823129252	70	127
305.4229024943311	305.5622222222222	75	127
305.6086621315193	305.9105215419501	65	127
305.6086621315193	305.74798185941046	73	127
305.7944217687075	305.9685714285714	75	127
306.02662131519276	307.47786848072565	73	127
306.02662131519276	306.2007709750567	77	127
306.2007709750567	306.34009070294786	78	127
306.3865306122449	306.52585034013606	77	127
306.57226757369614	306.71160997732426	78	127
306.7696598639456	306.93219954648526	75	127
306.93219954648526	307.07151927437644	77	127
307.11795918367346	307.25727891156464	75	127
307.30371882086166	307.43142857142857	77	127
307.4894557823129	308.3718367346939	71	127
307.4894557823129	307.6404081632653	78	127
307.6404081632653	307.7797278911565	80	127
307.8261678004535	307.9654875283447	78	127
308.0119274376417	308.1396371882086	80	127
308.19768707482996	308.3718367346939	74	127
308.3718367346939	308.51113378684806	75	127
308.3718367346939	308.51113378684806	70	127
308.5575963718821	308.69691609977326	77	127
308.5575963718821	308.69691609977326	68	127
308.7433560090703	308.8710657596372	78	127
308.7433560090703	308.8710657596372	66	127
308.92909297052154	309.2658049886621	65	127
308.92909297052154	309.0568253968254	80	127
309.10326530612247	309.2309523809524	82	127
309.2658049886621	309.4051247165533	83	127
309.2658049886621	309.6489342403628	70	127
309.4515646258503	309.57927437641723	74	127
309.66054421768706	310.02045351473924	75	127
309.66054421768706	309.83469387755105	63	127
309.83469387755105	309.97401360544217	65	127
310.02045351473924	310.15977324263037	63	127
310.20621315192744	310.33392290249435	65	127
310.4035827664399	311.773560090703	75	127
310.4035827664399	310.55448979591836	70	127
310.4035827664399	310.55448979591836	66	127
310.55448979591836	310.67061224489794	71	127
310.55448979591836	310.67061224489794	68	127
310.717052154195	310.8447619047619	70	127
310.717052154195	310.8447619047619	66	127
310.89120181405895	311.01891156462585	71	127
310.89120181405895	311.01891156462585	68	127
311.05374149659866	311.4136507936508	68	127
311.05374149659866	311.2278911564626	65	127
311.2278911564626	311.36721088435377	66	127
311.4136507936508	311.55297052154197	65	127
311.599410430839	311.7271201814059	66	127
311.78514739229024	311.95931972789117	68	127
311.78514739229024	312.481768707483	74	127
311.78514739229024	311.95931972789117	65	127
311.95931972789117	312.0870294784581	66	127
311.95931972789117	312.0870294784581	70	127
312.1334693877551	312.2727891156463	68	127
312.1334693877551	312.2727891156463	65	127
312.3192290249433	312.4469387755102	66	127
312.3192290249433	312.4469387755102	70	127
312.4933786848073	312.87650793650795	63	127
312.4933786848073	312.6675283446712	66	127
312.4933786848073	312.7604081632653	75	127
312.6675283446712	312.8068253968254	68	127
312.87650793650795	313.0158049886621	66	127
312.87650793650795	313.15514739229025	70	127
313.06226757369615	313.18997732426305	68	127
313.2596371882086	314.73410430839004	63	127
313.2596371882086	313.4453968253968	70	127
313.2596371882086	314.73410430839004	78	127
313.4570068027211	313.584716553288	71	127
313.6427664399093	313.78208616780046	70	127
313.82850340136054	313.96784580498866	71	127
314.01428571428573	314.18843537414966	69	127
314.20004535147393	314.32775510204084	70	127
314.37419501133786	314.51351473922904	72	127
314.55995464852606	314.69927437641724	69	127
314.7457142857143	315.8138321995465	77	127
314.7457142857143	316.1621315192744	46	127
314.7457142857143	315.8138321995465	61	127
314.7457142857143	314.87342403628116	70	127
314.9430839002268	315.07079365079363	65	127
315.1172335600907	315.2565532879819	61	127
315.29138321995464	315.41909297052155	58	127
315.4655102040816	315.6280725623583	54	127
315.63968253968255	315.76739229024946	56	127
315.8138321995465	316.5220408163265	60	127
315.8138321995465	315.9415419501134	54	127
315.8138321995465	315.9879818594104	75	127
315.9879818594104	316.1621315192744	73	127
315.9879818594104	316.1273015873016	53	127
316.1621315192744	316.893537414966	45	127
316.1621315192744	316.2898185941043	51	127
316.1621315192744	316.5220408163265	72	127
316.3362811791383	316.4756009070295	49	127
316.5220408163265	317.6714285714286	72	127
316.5220408163265	316.64975056689343	48	127
316.5220408163265	316.893537414966	77	127
316.6961678004535	316.83551020408163	60	127
316.893537414966	317.18380952380954	46	127
316.893537414966	317.0793197278912	73	127
316.893537414966	317.31149659863945	53	127
317.09092970521544	317.23024943310656	75	127
317.31149659863945	317.59015873015875	41	127
317.31149659863945	317.45083900226757	73	127
317.49727891156465	317.6249886621315	75	127
317.6714285714286	318.7975963718821	70	127
317.6714285714286	319.1575056689342	49	127
317.6714285714286	317.86879818594105	77	127
317.8804081632653	318.0081179138322	78	127
318.05455782312924	318.1938775510204	77	127
318.24031746031744	318.3564172335601	78	127
318.40285714285716	318.5770068027211	76	127
318.58861678004536	318.751156462585	77	127
318.7975963718821	318.93691609977327	67	127
318.7975963718821	318.93691609977327	76	127
318.971746031746	319.1110657596372	77	127
318.971746031746	319.1110657596372	68	127
319.1575056689342	320.28367346938774	48	127
319.1575056689342	319.3432653061225	64	127
319.1575056689342	319.3432653061225	79	127
319.35485260770974	319.50580498866213	80	127
319.35485260770974	319.50580498866213	65	127
319.5522222222222	319.67995464852606	79	127
319.5522222222222	319.67995464852606	64	127
319.72639455782314	319.87732426303853	80	127
319.72639455782314	319.87732426303853	65	127
319.9237641723356	320.09791383219954	67	127
319.9237641723356	320.09791383219954	82	127
320.1095238095238	320.2372335600907	84	127
320.1095238095238	320.2372335600907	68	127
320.28367346938774	320.44621315192745	46	127
320.28367346938774	320.41138321995464	82	127
320.28367346938774	320.41138321995464	67	127
320.44621315192745	320.58551020408163	84	127
320.44621315192745	320.63197278911565	44	127
320.44621315192745	320.58551020408163	68	127
320.63197278911565	322.12965986394556	70	127
320.63197278911565	320.8293424036281	86	127
320.63197278911565	320.8293424036281	70	127
320.63197278911565	321.0267120181406	43	127
320.8409523809524	320.98027210884356	72	127
320.8409523809524	320.98027210884356	88	127
321.03832199546486	321.39820861678004	48	127
321.03832199546486	321.16603174603176	86	127
321.03832199546486	321.16603174603176	72	127
321.2124716553288	321.35179138321996	72	127
321.2124716553288	321.35179138321996	88	127
321.39820861678004	321.7465306122449	89	127
321.39820861678004	321.57238095238097	41	127
321.39820861678004	321.7465306122449	72	127
321.58399092970524	321.7000680272109	43	127
321.75814058956917	321.8858503401361	41	127
321.9322902494331	322.08321995464854	43	127
322.12965986394556	322.3153968253968	44	127
322.12965986394556	322.9191383219955	68	127
322.12965986394556	323.65054421768707	77	127
322.12965986394556	323.65054421768707	65	127
322.32702947845803	322.4663492063492	46	127
322.52437641723355	322.6637188208617	44	127
322.71015873015875	322.8726984126984	46	127
322.9191383219955	323.11650793650796	43	127
323.11650793650796	323.24419501133787	44	127
323.2790476190476	323.4067573696145	43	127
323.45319727891155	323.58090702947845	44	127
323.65054421768707	324.44004535147394	76	127
323.65054421768707	324.44004535147394	64	127
323.65054421768707	325.28755102040816	55	127
323.65054421768707	323.83632653061227	46	127
323.83632653061227	323.9756462585034	48	127
324.0568934240363	324.1962358276644	46	127
324.2426757369615	324.39360544217686	48	127
324.44004535147394	324.75351473922905	65	127
324.44004535147394	324.75351473922905	77	127
324.44004535147394	324.62580498866214	44	127
324.62580498866214	324.81156462585034	46	127
324.8695918367347	325.194693877551	72	127
324.8695918367347	325.194693877551	60	127
324.8695918367347	325.0089342403628	44	127
325.0785714285714	325.2411337868481	46	127
325.28755102040816	326.76204081632653	68	127
325.28755102040816	326.03061224489795	53	127
325.28755102040816	326.76204081632653	80	127
325.28755102040816	325.47333333333336	48	127
325.47333333333336	325.6010430839002	49	127
325.65909297052156	325.78680272108846	48	127
325.8332426303855	325.98417233560093	49	127
326.03061224489795	326.29764172335604	54	127
326.03061224489795	326.21637188208615	46	127
326.21637188208615	326.34408163265306	48	127
326.4021088435374	326.66916099773243	49	127
326.4021088435374	326.52984126984126	46	127
326.57628117913833	326.7155782312925	48	127
326.76204081632653	327.5050793650794	78	127
326.76204081632653	327.5050793650794	66	127
326.76204081632653	328.24809523809523	58	127
326.76204081632653	326.93619047619046	49	127
326.93619047619046	327.07551020408164	51	127
327.13356009070293	327.2728798185941	49	127
327.33090702947845	327.4586394557823	51	127
327.5050793650794	327.6908390022676	48	127
327.5050793650794	327.79532879818595	69	127
327.5050793650794	327.79532879818595	81	127
327.6908390022676	327.8185487528345	49	127
327.8765986394558	328.14360544217686	63	127
327.8765986394558	328.14360544217686	75	127
327.8765986394558	328.0043083900227	48	127
328.0507482993197	328.20167800453515	49	127
328.24809523809523	328.991156462585	57	127
328.24809523809523	329.78061224489795	72	127
328.24809523809523	329.78061224489795	84	127
328.24809523809523	328.43387755102043	51	127
328.43387755102043	328.5615873015873	53	127
328.6312471655329	328.7589342403628	51	127
328.8170068027211	328.944716553288	53	127
328.991156462585	329.2697732426304	59	127
328.991156462585	329.1769160997732	50	127
329.1769160997732	329.3162358276644	51	127
329.37426303854875	329.51360544217687	50	127
329.37426303854875	329.65292517006804	53	127
329.5716326530612	329.7225850340136	51	127
329.78061224489795	330.535283446712	83	127
329.78061224489795	331.28993197278913	62	127
329.78061224489795	330.535283446712	71	127
329.78061224489795	329.96639455782315	53	127
329.96639455782315	330.11732426303854	55	127
330.1637641723356	330.2914512471655	53	127
330.3495238095238	330.488843537415	55	127
330.535283446712	330.8255328798186	72	127
330.535283446712	330.8255328798186	84	127
330.535283446712	330.7210430839002	52	127
330.7210430839002	330.88358276643993	53	127
330.93002267573695	331.19705215419503	67	127
330.93002267573695	331.19705215419503	79	127
330.93002267573695	331.05773242630386	52	127
331.1157596371882	331.24349206349206	53	127
331.28993197278913	331.47569160997733	55	127
331.28993197278913	332.8340589569161	76	127
331.28993197278913	332.06780045351474	60	127
331.28993197278913	332.8340589569161	88	127
331.47569160997733	331.6150113378685	56	127
331.66145124716553	331.78916099773244	55	127
331.84721088435373	332.0213605442177	56	127
332.06780045351474	335.9803628117914	59	127
332.06780045351474	338.63904761904763	53	127
332.06780045351474	335.9803628117914	68	127
332.8340589569161	334.45945578231294	74	127
332.8340589569161	334.45945578231294	86	127
334.45945578231294	335.9803628117914	71	127
334.45945578231294	335.9803628117914	83	127
335.9803628117914	338.63904761904763	62	127
335.9803628117914	337.17619047619047	80	127
335.9803628117914	337.17619047619047	68	127
335.9803628117914	338.63904761904763	59	127
337.17619047619047	337.90761904761905	77	127
337.17619047619047	337.90761904761905	65	127
337.90761904761905	338.63904761904763	74	127
337.90761904761905	338.63904761904763	62	127
338.63904761904763	339.3820861678005	71	127
338.63904761904763	339.3820861678005	59	127
339.3820861678005	340.1018820861678	56	127
339.3820861678005	340.1018820861678	68	127
340.1018820861678	340.8681632653061	65	127
340.1018820861678	340.8681632653061	53	127
340.8681632653061	341.6460090702948	62	127
340.8681632653061	341.6460090702948	50	127
341.6460090702948	342.4122902494331	47	127
341.6460090702948	342.4122902494331	59	127
341.6460090702948	342.4122902494331	59	127
342.4122902494331	343.1437188208617	56	127
342.4122902494331	343.1437188208617	44	127
342.4122902494331	343.1437188208617	56	127
343.1437188208617	344.0028571428571	55	127
343.1437188208617	344.0028571428571	55	127
343.1437188208617	344.0028571428571	43	127
344.0028571428571	344.3975736961451	43	127
344.0028571428571	344.3975736961451	55	127
344.0028571428571	344.3975736961451	55	127
344.4208163265306	348.92548752834466	55	127
344.4208163265306	351.9440816326531	43	127
344.4208163265306	346.74281179138325	55	127
346.7543990929705	347.1839909297052	59	127
346.7543990929705	347.1839909297052	50	127
347.1839909297052	347.7644897959184	60	127
347.1839909297052	347.7644897959184	52	127
347.77607709750566	348.33337868480726	53	127
347.77607709750566	348.33337868480726	62	127
348.33337868480726	348.7977551020408	55	127
348.33337868480726	348.7977551020408	64	127
348.7977551020408	349.9819954648526	60	127
348.7977551020408	349.9819954648526	52	127
348.92548752834466	349.05319727891157	60	127
349.05319727891157	349.15768707482994	64	127
349.15768707482994	349.28539682539684	67	127
349.28539682539684	349.43632653061223	72	127
349.43632653061223	349.5872562358277	76	127
349.5872562358277	349.7149433106576	79	127
349.7149433106576	349.8542857142857	76	127
349.8542857142857	349.9819954648526	72	127
349.9819954648526	350.1097052154195	67	127
349.9819954648526	350.1677551020408	62	127
349.9819954648526	350.1677551020408	53	127
350.1097052154195	350.2374149659864	64	127
350.1677551020408	350.3999546485261	60	127
350.1677551020408	350.3999546485261	52	127
350.2374149659864	350.3999546485261	60	127
350.3999546485261	350.5857142857143	59	127
350.3999546485261	351.9440816326531	55	127
350.3999546485261	350.5857142857143	50	127
350.59732426303856	350.73662131519274	60	127
350.59732426303856	350.73662131519274	52	127
350.78308390022676	350.9340136054422	59	127
350.78308390022676	350.9340136054422	50	127
350.9804535147392	351.1197732426304	60	127
350.9804535147392	351.1197732426304	52	127
351.1778231292517	351.37519274376416	62	127
351.1778231292517	351.37519274376416	53	127
351.38680272108843	351.5261224489796	64	127
351.38680272108843	351.5261224489796	55	127
351.5725623582766	351.7118820861678	62	127
351.5725623582766	351.7118820861678	53	127
351.7582993197279	351.897641723356	55	127
351.7582993197279	351.897641723356	64	127
351.9440816326531	352.3504308390023	60	127
351.9440816326531	352.3504308390023	52	127
351.9440816326531	352.3504308390023	48	127
352.3504308390023	352.4897505668934	79	127
352.4897505668934	352.60585034013604	77	127
352.60585034013604	352.73356009070295	76	127
352.73356009070295	352.8496598639456	74	127
352.8496598639456	352.9773696145125	76	127
352.9773696145125	353.09344671201814	72	127
353.09344671201814	353.46498866213153	84	127
353.46498866213153	353.82489795918366	60	127
353.46498866213153	353.82489795918366	69	127
353.46498866213153	353.82489795918366	66	127
353.82489795918366	353.9758276643991	81	127
353.9758276643991	354.103537414966	79	127
354.103537414966	354.21961451247165	78	127
354.21961451247165	354.33573696145123	76	127
354.33573696145123	354.45183673469387	78	127
354.45183673469387	354.5795464852608	74	127
354.5795464852608	354.9394557823129	86	127
354.9394557823129	355.3225850340136	58	127
354.9394557823129	355.3225850340136	55	127
355.3341723356009	355.75213151927437	60	127
355.3341723356009	355.75213151927437	57	127
355.3341723356009	355.4502947845805	74	127
355.4502947845805	355.6128344671202	72	127
355.6128344671202	355.75213151927437	70	127
355.75213151927437	356.22816326530614	62	127
355.75213151927437	356.22816326530614	58	127
355.75213151927437	355.9263038548753	69	127
355.9263038548753	356.0656235827664	70	127
356.0656235827664	356.2397732426304	67	127
356.2397732426304	356.7041723356009	60	127
356.2397732426304	357.07566893424035	79	127
356.2397732426304	356.7041723356009	63	127
356.7041723356009	357.88839002267576	62	127
356.7041723356009	357.88839002267576	58	127
357.08730158730157	357.22662131519274	74	127
357.22662131519274	357.3659410430839	72	127
357.3659410430839	357.48201814058956	70	127
357.48201814058956	357.6561904761905	69	127
357.6561904761905	357.7722902494331	70	127
357.7722902494331	357.89997732426303	67	127
357.89997732426303	358.71267573696144	74	127
357.89997732426303	358.3295691609977	58	127
357.89997732426303	358.3295691609977	55	127
358.3295691609977	358.71267573696144	54	127
358.3295691609977	358.71267573696144	50	127
358.72430839002266	358.86362811791383	81	127
358.72430839002266	359.11902494331065	55	127
358.72430839002266	359.11902494331065	52	127
358.86362811791383	358.99133786848074	79	127
358.99133786848074	359.11902494331065	78	127
359.11902494331065	359.49056689342405	54	127
359.11902494331065	359.49056689342405	57	127
359.11902494331065	359.2467573696145	76	127
359.2467573696145	359.3744671201814	78	127
359.3744671201814	359.5021768707483	74	127
359.5021768707483	359.95496598639454	55	127
359.5021768707483	359.95496598639454	58	127
359.5021768707483	360.326485260771	86	127
359.95496598639454	361.16238095238094	53	127
359.95496598639454	361.16238095238094	57	127
360.326485260771	360.4774149659864	81	127
360.4774149659864	360.6051247165533	79	127
360.6051247165533	360.74444444444447	77	127
360.74444444444447	360.8721541950113	76	127
360.8721541950113	360.9998639455782	77	127
360.9998639455782	361.16238095238094	74	127
361.16238095238094	361.696462585034	50	127
361.16238095238094	362.06798185941045	81	127
361.16238095238094	361.696462585034	53	127
361.696462585034	362.06798185941045	85	127
362.0795918367347	362.4511111111111	83	127
362.0795918367347	362.4511111111111	86	127
362.0795918367347	362.19566893424036	64	127
362.19566893424036	362.31179138321994	62	127
362.3234013605442	362.4511111111111	61	127
362.4511111111111	362.81102040816324	88	127
362.4511111111111	362.81102040816324	85	127
362.4511111111111	362.56721088435376	59	127
362.578820861678	362.69489795918366	61	127
362.69489795918366	362.81102040816324	57	127
362.8226303854875	363.5424489795918	69	127
362.8226303854875	363.1825396825397	89	127
362.8226303854875	363.1825396825397	86	127
363.1825396825397	364.2854875283447	88	127
363.1825396825397	364.2854875283447	84	127
363.5540589569161	363.67015873015873	52	127
363.67015873015873	363.8094784580499	50	127
363.8094784580499	363.92555555555555	48	127
363.92555555555555	364.0532879818594	47	127
364.0532879818594	364.16938775510204	48	127
364.16938775510204	364.29709750566894	45	127
364.29709750566894	364.70344671201815	84	127
364.29709750566894	365.1214058956916	52	127
364.29709750566894	364.70344671201815	81	127
364.70344671201815	365.1214058956916	56	127
365.14462585034016	365.55097505668937	57	127
365.14462585034016	365.55097505668937	54	127
365.14462585034016	365.2839455782313	83	127
365.2839455782313	365.43487528344673	81	127
365.43487528344673	365.55097505668937	80	127
365.55097505668937	366.02698412698413	59	127
365.55097505668937	366.02698412698413	56	127
365.55097505668937	365.73673469387757	78	127
365.73673469387757	365.8528344671202	80	127
365.8528344671202	366.0385941043084	76	127
366.0385941043084	366.42172335600907	57	127
366.0385941043084	366.42172335600907	60	127
366.0385941043084	366.78163265306125	88	127
366.42172335600907	367.65238095238095	59	127
366.42172335600907	367.65238095238095	55	127
366.7932199546485	366.9209523809524	71	127
366.9209523809524	367.1415419501134	69	127
367.1415419501134	367.257641723356	67	127
367.257641723356	367.3853514739229	66	127
367.3853514739229	367.50142857142856	67	127
367.50142857142856	367.6639909297052	64	127
367.6639909297052	368.56956916099773	76	127
367.6639909297052	368.15160997732426	52	127
367.6639909297052	368.15160997732426	55	127
368.15160997732426	368.56956916099773	79	127
368.581179138322	368.9526984126984	81	127
368.581179138322	368.9526984126984	77	127
368.581179138322	368.69727891156464	55	127
368.69727891156464	368.8365759637188	53	127
368.8365759637188	368.9526984126984	52	127
368.9526984126984	369.0920181405896	50	127
368.9526984126984	369.32421768707485	82	127
368.9526984126984	369.32421768707485	79	127
369.0920181405896	369.2081179138322	52	127
369.2081179138322	369.3358276643991	48	127
369.3358276643991	369.7073469387755	84	127
369.3358276643991	370.10208616780045	60	127
369.3358276643991	369.7073469387755	81	127
369.7073469387755	370.85673469387757	79	127
369.7073469387755	370.85673469387757	82	127
370.1136961451247	370.2530158730159	43	127
370.2530158730159	370.392335600907	41	127
370.392335600907	370.50843537414966	40	127
370.50843537414966	370.6245351473923	38	127
370.6245351473923	370.74063492063493	40	127
370.74063492063493	370.86834467120184	36	127
370.86834467120184	371.6926303854875	76	127
370.86834467120184	371.6926303854875	79	127
370.86834467120184	371.6926303854875	48	127
371.23986394557824	371.3791836734694	55	127
371.3791836734694	371.49526077097505	53	127
371.49526077097505	371.7042403628118	52	127
371.7042403628118	372.1918820861678	81	127
371.7042403628118	372.1918820861678	77	127
371.7042403628118	371.9480725623583	50	127
371.9480725623583	372.0757823129252	52	127
372.0757823129252	372.1918820861678	48	127
372.1918820861678	372.3195918367347	60	127
372.1918820861678	372.5634013605442	82	127
372.1918820861678	372.5634013605442	79	127
372.3195918367347	372.4356916099773	60	127
372.4356916099773	372.5634013605442	60	127
372.5634013605442	372.9232879818594	84	127
372.5634013605442	372.9232879818594	81	127
372.5634013605442	372.67950113378686	60	127
372.67950113378686	372.80721088435376	60	127
372.80721088435376	372.9232879818594	60	127
372.9232879818594	374.08430839002267	79	127
372.9232879818594	374.08430839002267	82	127
372.9232879818594	373.05102040816325	43	127
372.9232879818594	373.3412698412698	60	127
373.05102040816325	373.1671201814059	41	127
373.1671201814059	373.3412698412698	40	127
373.3412698412698	373.45736961451246	38	127
373.45736961451246	373.58507936507937	40	127
373.58507936507937	373.7127891156463	36	127
373.7127891156463	373.8404761904762	48	127
373.8404761904762	373.95659863945576	48	127
373.95659863945576	374.08430839002267	48	127
374.08430839002267	374.5487074829932	76	127
374.08430839002267	374.5487074829932	79	127
374.08430839002267	374.2120181405896	48	127
374.2120181405896	374.362925170068	48	127
374.362925170068	374.5487074829932	48	127
374.5487074829932	374.6996371882086	82	127
374.5487074829932	380.07505668934243	48	127
374.6996371882086	374.8389569160998	81	127
374.8389569160998	374.9782766439909	79	127
374.9782766439909	375.8025850340136	64	127
374.9782766439909	375.1408163265306	77	127
374.9782766439909	375.8025850340136	67	127
375.1408163265306	375.291746031746	79	127
375.291746031746	375.4194557823129	76	127
375.4194557823129	375.5587755102041	77	127
375.5587755102041	375.66326530612247	79	127
375.66326530612247	375.8025850340136	76	127
375.8025850340136	376.5572335600907	69	127
375.8025850340136	375.9302947845805	79	127
375.8025850340136	376.5572335600907	65	127
375.9302947845805	376.04639455782313	81	127
376.04639455782313	376.1624943310658	77	127
376.1624943310658	376.31342403628116	79	127
376.31342403628116	376.41791383219953	81	127
376.41791383219953	376.5572335600907	77	127
376.5572335600907	377.2886621315193	67	127
376.5572335600907	377.2886621315193	70	127
376.5572335600907	376.67333333333335	81	127
376.67333333333335	376.8126303854875	82	127
376.8126303854875	376.9287528344671	79	127
376.9287528344671	377.056462585034	81	127
377.056462585034	377.17256235827665	82	127
377.17256235827665	377.2886621315193	79	127
377.2886621315193	378.08975056689343	69	127
377.2886621315193	378.08975056689343	72	127
377.2886621315193	377.4047619047619	82	127
377.4047619047619	377.5556916099773	84	127
377.5556916099773	377.71823129251703	81	127
377.7298185941043	377.8459410430839	82	127
377.8459410430839	377.9620408163265	84	127
377.9736507936508	378.08975056689343	81	127
378.08975056689343	378.4496371882086	74	127
378.08975056689343	378.4496371882086	58	127
378.08975056689343	378.20585034013607	84	127
378.21746031746034	378.333560090703	86	127
378.333560090703	378.4496371882086	82	127
378.4612698412698	378.821179138322	76	127
378.4612698412698	378.821179138322	60	127
378.4612698412698	378.57736961451246	86	127
378.57736961451246	378.6934693877551	88	127
378.70507936507937	378.821179138322	84	127
378.821179138322	378.93727891156465	88	127
378.821179138322	379.2391383219955	77	127
378.821179138322	379.2391383219955	62	127
378.9488888888889	379.1114285714286	89	127
379.1114285714286	379.2391383219955	86	127
379.25074829931975	379.3900680272109	89	127
379.25074829931975	379.703537414966	64	127
379.25074829931975	379.703537414966	79	127
379.3900680272109	379.5061678004535	91	127
379.5177777777778	379.703537414966	88	127
379.703537414966	379.8312471655329	91	127
379.703537414966	380.07505668934243	65	127
379.703537414966	380.07505668934243	81	127
379.8312471655329	379.9589569160998	93	127
379.9589569160998	380.07505668934243	89	127
380.0866439909297	380.46979591836737	60	127
380.0866439909297	380.46979591836737	82	127
380.0866439909297	380.2027664399093	93	127
380.0866439909297	380.46979591836737	67	127
380.21437641723355	380.34208616780046	94	127
380.34208616780046	380.46979591836737	91	127
380.48140589569164	381.0502947845805	67	127
380.48140589569164	381.0502947845805	64	127
380.48140589569164	380.62072562358276	93	127
380.48140589569164	381.0502947845805	70	127
380.48140589569164	381.0502947845805	60	127
380.62072562358276	380.7716553287982	94	127
380.7832653061225	381.0502947845805	91	127
381.06190476190477	381.44503401360544	60	127
381.06190476190477	381.44503401360544	70	127
381.06190476190477	381.44503401360544	64	127
381.06190476190477	382.93111111111114	94	127
381.06190476190477	381.44503401360544	67	127
382.93111111111114	384.7538775510204	95	127
384.7538775510204	386.1238548752834	57	127
384.7538775510204	386.1238548752834	72	127
384.7538775510204	386.1238548752834	96	127
384.7538775510204	386.1238548752834	77	127
384.7538775510204	386.1238548752834	69	127
386.1238548752834	386.53020408163263	60	127
386.1238548752834	386.53020408163263	57	127
386.1238548752834	386.53020408163263	65	127
386.1238548752834	386.53020408163263	65	127
386.53020408163263	386.7043537414966	58	127
386.53020408163263	386.7043537414966	74	127
386.53020408163263	386.7043537414966	62	127
387.075873015873	387.22680272108846	70	127
387.075873015873	387.22680272108846	62	127
387.075873015873	387.22680272108846	65	127
387.5402721088435	388.28331065759636	60	127
387.5402721088435	388.28331065759636	69	127
387.5402721088435	388.28331065759636	65	127
387.9350113378685	388.28331065759636	65	127
388.29492063492063	388.42263038548754	77	127
388.29492063492063	388.42263038548754	74	127
388.29492063492063	388.42263038548754	70	127
388.6780498866213	388.840589569161	77	127
388.6780498866213	388.840589569161	74	127
388.6780498866213	388.840589569161	70	127
389.07278911564623	389.8738775510204	77	127
389.07278911564623	389.4675283446712	72	127
389.07278911564623	389.8738775510204	69	127
389.4791383219955	390.0712471655329	65	127
389.8854875283447	390.0248072562358	74	127
389.8854875283447	390.0248072562358	58	127
390.28022675736963	390.4427664399093	65	127
390.28022675736963	390.4427664399093	70	127
390.28022675736963	390.4427664399093	62	127
390.7446258503401	391.6037641723356	62	127
390.7446258503401	391.6037641723356	71	127
390.7446258503401	391.6037641723356	65	127
390.7446258503401	391.6037641723356	68	127
391.6037641723356	393.252380952381	67	127
391.6037641723356	392.37002267573695	61	127
391.6037641723356	392.37002267573695	76	127
391.6037641723356	392.37002267573695	64	127
391.6037641723356	393.252380952381	70	127
392.37002267573695	393.252380952381	64	127
392.37002267573695	393.252380952381	67	127
392.37002267573695	393.252380952381	73	127
393.252380952381	393.3917006802721	66	127
393.252380952381	393.3917006802721	63	127
393.252380952381	393.3917006802721	78	127
393.63551020408164	393.7980498866213	75	127
393.63551020408164	393.7980498866213	69	127
393.63551020408164	393.7980498866213	72	127
393.63551020408164	393.7980498866213	66	127
394.07668934240365	394.8777777777778	74	127
394.07668934240365	394.8777777777778	71	127
394.07668934240365	394.8777777777778	69	127
394.07668934240365	394.8777777777778	65	127
394.8777777777778	395.04031746031745	79	127
394.8777777777778	395.04031746031745	64	127
394.8777777777778	395.04031746031745	70	127
394.8777777777778	395.04031746031745	67	127
395.3421768707483	395.4698866213152	67	127
395.3421768707483	395.4698866213152	76	127
395.3421768707483	395.4698866213152	73	127
395.3421768707483	395.4698866213152	70	127
395.71369614512474	396.86308390022674	66	127
395.71369614512474	396.86308390022674	69	127
395.71369614512474	396.64249433106573	75	127
395.71369614512474	396.86308390022674	72	127
396.64249433106573	396.7934240362812	81	127
397.095283446712	397.2346031746032	78	127
397.095283446712	397.2346031746032	72	127
397.095283446712	397.2346031746032	69	127
397.4784126984127	397.61773242630386	68	127
397.4784126984127	397.61773242630386	74	127
397.4784126984127	397.61773242630386	83	127
397.4784126984127	397.61773242630386	77	127
397.8615419501134	398.0124716553288	71	127
397.8615419501134	398.0124716553288	74	127
397.8615419501134	398.0124716553288	80	127
397.8615419501134	398.0124716553288	77	127
398.2911111111111	401.5302947845805	74	127
398.2911111111111	401.1355555555556	89	127
398.2911111111111	401.5302947845805	71	127
398.2911111111111	401.5302947845805	68	127
398.2911111111111	401.5302947845805	77	127
401.1355555555556	401.33292517006805	88	127
401.33292517006805	401.5302947845805	86	127
401.5419047619048	403.51560090702947	69	127
401.5419047619048	403.097641723356	69	127
401.5419047619048	403.51560090702947	84	127
401.5419047619048	403.51560090702947	72	127
403.097641723356	403.51560090702947	36	127
403.52721088435374	403.6665306122449	38	127
403.52721088435374	403.6665306122449	82	127
403.52721088435374	403.6665306122449	70	127
403.52721088435374	403.6665306122449	67	127
403.7245804988662	403.89873015873013	40	127
403.7245804988662	403.89873015873013	81	127
403.7245804988662	403.89873015873013	69	127
403.7245804988662	403.89873015873013	65	127
403.9567800453515	404.1425396825397	41	127
403.9567800453515	404.1425396825397	79	127
403.9567800453515	404.1425396825397	67	127
403.9567800453515	404.1425396825397	64	127
404.1425396825397	404.2934693877551	65	127
404.1425396825397	404.2934693877551	62	127
404.1425396825397	404.2934693877551	77	127
404.1425396825397	404.2934693877551	43	127
404.3515192743764	404.46761904761905	45	127
404.3515192743764	404.46761904761905	64	127
404.3515192743764	404.46761904761905	76	127
404.3515192743764	404.46761904761905	60	127
404.5140589569161	404.641768707483	46	127
404.5140589569161	404.641768707483	74	127
404.5140589569161	404.641768707483	62	127
404.5140589569161	404.641768707483	58	127
404.68820861678006	404.8971882086168	57	127
404.68820861678006	404.8971882086168	60	127
404.68820861678006	405.0713378684807	72	127
404.68820861678006	405.0713378684807	48	127
404.8971882086168	405.0713378684807	57	127
404.8971882086168	405.0713378684807	60	127
405.0713378684807	405.19904761904763	70	127
405.0713378684807	405.2338775510204	57	127
405.0713378684807	405.2338775510204	60	127
405.0713378684807	405.43124716553285	50	127
405.24548752834465	405.37319727891156	69	127
405.24548752834465	405.43124716553285	57	127
405.24548752834465	405.43124716553285	60	127
405.4428571428571	405.8956462585034	52	127
405.4428571428571	405.6750566893424	67	127
405.4428571428571	405.6750566893424	57	127
405.4428571428571	405.6750566893424	60	127
405.68666666666667	405.8956462585034	57	127
405.68666666666667	405.8956462585034	60	127
405.68666666666667	405.82598639455784	65	127
405.8956462585034	406.0814058956916	60	127
405.8956462585034	406.27877551020407	53	127
405.8956462585034	406.0349659863946	64	127
405.8956462585034	406.0814058956916	57	127
406.0814058956916	406.27877551020407	60	127
406.0814058956916	406.23233560090705	62	127
406.0814058956916	406.27877551020407	57	127
406.27877551020407	407.35850340136057	48	127
406.27877551020407	406.46453514739227	57	127
406.27877551020407	406.6502947845805	57	127
406.27877551020407	406.46453514739227	60	127
406.46453514739227	406.6502947845805	60	127
406.46453514739227	406.6502947845805	57	127
406.66190476190474	406.8360544217687	57	127
406.66190476190474	406.8360544217687	60	127
406.847664399093	407.0334240362812	60	127
406.847664399093	407.0334240362812	57	127
407.0334240362812	407.1727437641723	57	127
407.0334240362812	407.1727437641723	60	127
407.1727437641723	407.35850340136057	57	127
407.1727437641723	407.35850340136057	60	127
407.35850340136057	407.54426303854876	50	127
407.35850340136057	407.54426303854876	57	127
407.35850340136057	407.54426303854876	60	127
407.54426303854876	407.7184126984127	60	127
407.54426303854876	407.7184126984127	57	127
407.54426303854876	407.7184126984127	48	127
407.7184126984127	407.9041723356009	57	127
407.7184126984127	407.9041723356009	60	127
407.7184126984127	407.9041723356009	46	127
407.91578231292516	408.0899319727891	48	127
407.91578231292516	408.13637188208617	60	127
407.91578231292516	408.13637188208617	57	127
408.14798185941044	408.3569614512472	57	127
408.14798185941044	408.3105215419501	45	127
408.14798185941044	408.3569614512472	60	127
408.3569614512472	408.49628117913835	43	127
408.3569614512472	408.5659410430839	60	127
408.3569614512472	408.5659410430839	57	127
408.5659410430839	408.77492063492065	57	127
408.5659410430839	408.77492063492065	60	127
408.5659410430839	408.9722902494331	41	127
408.77492063492065	408.9722902494331	60	127
408.77492063492065	408.9722902494331	57	127
408.9722902494331	409.1580498866213	57	127
408.9722902494331	409.1580498866213	60	127
408.9722902494331	409.3438095238095	50	127
409.1580498866213	409.3438095238095	60	127
409.1580498866213	409.3438095238095	57	127
409.3554195011338	409.541179138322	57	127
409.3554195011338	410.89954648526077	48	127
409.3554195011338	409.541179138322	60	127
409.55278911564625	409.7965986394558	57	127
409.55278911564625	409.7965986394558	60	127
409.7965986394558	409.99396825396826	60	127
409.7965986394558	409.99396825396826	57	127
409.99396825396826	410.17972789115646	57	127
409.99396825396826	410.17972789115646	60	127
410.17972789115646	410.36548752834466	60	127
410.17972789115646	410.36548752834466	57	127
410.36548752834466	410.5744671201814	60	127
410.36548752834466	410.5744671201814	57	127
410.58607709750567	410.7137868480726	60	127
410.58607709750567	410.7137868480726	57	127
410.72539682539684	410.89954648526077	57	127
410.72539682539684	410.89954648526077	60	127
410.89954648526077	411.28267573696144	50	127
410.89954648526077	411.08530612244897	57	127
410.89954648526077	411.08530612244897	60	127
411.08530612244897	411.28267573696144	57	127
411.08530612244897	411.28267573696144	60	127
411.28267573696144	411.44521541950115	57	127
411.28267573696144	411.44521541950115	60	127
411.28267573696144	411.6193650793651	52	127
411.44521541950115	411.6193650793651	57	127
411.44521541950115	411.6193650793651	60	127
411.6193650793651	411.9908843537415	53	127
411.6193650793651	411.8051247165533	60	127
411.6193650793651	411.8051247165533	57	127
411.81673469387755	411.9908843537415	57	127
411.81673469387755	411.9908843537415	60	127
412.00249433106575	412.2114739229025	57	127
412.00249433106575	412.3972335600907	55	127
412.00249433106575	412.2114739229025	60	127
412.2114739229025	412.3972335600907	57	127
412.2114739229025	412.3972335600907	60	127
412.3972335600907	413.48857142857145	53	127
412.3972335600907	412.58299319727894	60	127
412.3972335600907	412.58299319727894	57	127
412.58299319727894	412.76875283446714	60	127
412.58299319727894	412.76875283446714	57	127
412.76875283446714	412.95451247165533	57	127
412.76875283446714	412.95451247165533	60	127
412.95451247165533	413.1518820861678	60	127
412.95451247165533	413.1518820861678	57	127
413.1634920634921	413.31442176870746	57	127
413.1634920634921	413.31442176870746	60	127
413.32603174603173	413.48857142857145	60	127
413.32603174603173	413.48857142857145	57	127
413.48857142857145	413.6511111111111	52	127
413.48857142857145	413.6511111111111	60	127
413.48857142857145	413.6511111111111	57	127
413.6511111111111	413.8484807256236	57	127
413.6511111111111	413.8484807256236	60	127
413.6511111111111	413.8484807256236	50	127
413.8484807256236	414.0226303854875	48	127
413.8484807256236	414.0226303854875	60	127
413.8484807256236	414.0226303854875	57	127
414.0226303854875	414.17356009070295	50	127
414.0226303854875	414.22	60	127
414.0226303854875	414.22	57	127
414.23160997732424	414.4057596371882	57	127
414.23160997732424	414.35931972789115	52	127
414.23160997732424	414.4057596371882	60	127
414.4173696145125	414.5915192743764	57	127
414.4173696145125	414.5915192743764	60	127
414.4173696145125	414.5334693877551	53	127
414.5915192743764	414.9398185941043	55	127
414.5915192743764	414.76566893424035	60	127
414.5915192743764	414.76566893424035	58	127
414.76566893424035	414.9398185941043	60	127
414.76566893424035	414.9398185941043	58	127
414.9398185941043	415.12557823129254	60	127
414.9398185941043	415.31133786848073	57	127
414.9398185941043	415.12557823129254	58	127
415.12557823129254	415.31133786848073	58	127
415.12557823129254	415.31133786848073	60	127
415.31133786848073	416.8554648526077	55	127
415.31133786848073	415.49709750566893	60	127
415.31133786848073	415.49709750566893	58	127
415.5087074829932	415.68285714285713	60	127
415.5087074829932	415.68285714285713	58	127
415.5087074829932	415.6364172335601	62	127
415.6944671201814	415.8337868480726	64	127
415.6944671201814	415.8802267573696	60	127
415.6944671201814	415.8802267573696	58	127
415.8802267573696	416.0195464852608	65	127
415.8802267573696	416.0659863945578	60	127
415.8802267573696	416.0659863945578	58	127
416.0659863945578	416.2401360544218	67	127
416.0659863945578	416.2401360544218	60	127
416.0659863945578	416.2401360544218	58	127
416.2401360544218	416.42589569161	58	127
416.2401360544218	416.42589569161	60	127
416.2401360544218	416.3794557823129	69	127
416.42589569161	416.62326530612245	70	127
416.42589569161	416.6697052154195	60	127
416.42589569161	416.6697052154195	58	127
416.6697052154195	416.80902494331065	72	127
416.6697052154195	416.8554648526077	60	127
416.6697052154195	416.8554648526077	58	127
416.867074829932	417.02961451247165	58	127
416.867074829932	417.02961451247165	60	127
416.867074829932	417.02961451247165	55	127
416.867074829932	417.2269841269841	74	127
417.0412244897959	417.2269841269841	60	127
417.0412244897959	417.2269841269841	58	127
417.0412244897959	417.2269841269841	55	127
417.2269841269841	417.4243537414966	60	127
417.2269841269841	417.4243537414966	58	127
417.2269841269841	417.4243537414966	55	127
417.2269841269841	417.6101133786848	76	127
417.4243537414966	417.6101133786848	58	127
417.4243537414966	417.6101133786848	60	127
417.4243537414966	417.6101133786848	55	127
417.6101133786848	417.9932426303855	77	127
417.6101133786848	417.80748299319725	55	127
417.6101133786848	417.80748299319725	60	127
417.6101133786848	417.80748299319725	58	127
417.80748299319725	417.9932426303855	55	127
417.80748299319725	417.9932426303855	58	127
417.80748299319725	417.9932426303855	60	127
418.0048526077097	418.190612244898	60	127
418.0048526077097	418.190612244898	58	127
418.0048526077097	418.190612244898	55	127
418.0048526077097	418.3763718820862	79	127
418.20222222222225	418.3763718820862	58	127
418.20222222222225	418.3763718820862	60	127
418.20222222222225	418.3763718820862	55	127
418.3763718820862	418.5505215419501	58	127
418.3763718820862	419.4677097505669	77	127
418.3763718820862	418.5505215419501	55	127
418.3763718820862	418.5505215419501	60	127
418.5505215419501	418.7362811791383	60	127
418.5505215419501	418.7362811791383	58	127
418.5505215419501	418.7362811791383	55	127
418.7362811791383	418.92204081632656	60	127
418.7362811791383	418.92204081632656	55	127
418.7362811791383	418.92204081632656	58	127
418.92204081632656	419.13102040816324	58	127
418.92204081632656	419.13102040816324	55	127
418.92204081632656	419.13102040816324	60	127
419.13102040816324	419.3167800453515	55	127
419.13102040816324	419.3167800453515	60	127
419.13102040816324	419.3167800453515	58	127
419.32839002267576	419.4677097505669	60	127
419.32839002267576	419.4677097505669	58	127
419.32839002267576	419.4677097505669	55	127
419.47931972789115	419.6534693877551	76	127
419.47931972789115	419.6534693877551	60	127
419.47931972789115	419.6534693877551	58	127
419.47931972789115	419.6534693877551	55	127
419.6534693877551	419.85083900226755	60	127
419.6534693877551	419.85083900226755	74	127
419.6534693877551	419.85083900226755	58	127
419.6534693877551	419.85083900226755	55	127
419.85083900226755	420.0365986394558	72	127
419.85083900226755	420.0365986394558	60	127
419.85083900226755	420.0365986394558	58	127
419.85083900226755	420.0365986394558	55	127
420.0365986394558	420.1759183673469	74	127
420.0365986394558	420.222358276644	58	127
420.0365986394558	420.222358276644	60	127
420.0365986394558	420.222358276644	55	127
420.222358276644	420.4081179138322	58	127
420.222358276644	420.3616780045351	76	127
420.222358276644	420.4081179138322	55	127
420.222358276644	420.4081179138322	60	127
420.4081179138322	420.60548752834467	60	127
420.4081179138322	420.60548752834467	55	127
420.4081179138322	420.55904761904765	77	127
420.4081179138322	420.60548752834467	58	127
420.61709750566894	421.0002267573696	79	127
420.61709750566894	420.80285714285714	60	127
420.61709750566894	420.80285714285714	58	127
420.61709750566894	420.80285714285714	55	127
420.8144671201814	421.0002267573696	58	127
420.8144671201814	421.0002267573696	60	127
420.8144671201814	421.0002267573696	55	127
421.0002267573696	421.1859863945578	55	127
421.0002267573696	421.1859863945578	60	127
421.0002267573696	421.1859863945578	58	127
421.0002267573696	421.37174603174606	81	127
421.1859863945578	421.37174603174606	55	127
421.1859863945578	421.37174603174606	60	127
421.1859863945578	421.37174603174606	58	127
421.37174603174606	421.54589569161	60	127
421.37174603174606	422.9042630385488	79	127
421.37174603174606	421.54589569161	64	127
421.37174603174606	421.54589569161	58	127
421.37174603174606	421.54589569161	55	127
421.54589569161	421.74326530612245	55	127
421.54589569161	421.74326530612245	60	127
421.54589569161	421.74326530612245	58	127
421.54589569161	421.74326530612245	64	127
421.7548752834467	421.92902494331065	55	127
421.7548752834467	421.92902494331065	60	127
421.7548752834467	421.92902494331065	58	127
421.7548752834467	421.92902494331065	64	127
421.9406349206349	422.1380045351474	55	127
421.9406349206349	422.1380045351474	60	127
421.9406349206349	422.1380045351474	58	127
421.9406349206349	422.1380045351474	64	127
422.1380045351474	422.3237641723356	60	127
422.1380045351474	422.3237641723356	58	127
422.1380045351474	422.3237641723356	55	127
422.1380045351474	422.3237641723356	64	127
422.3237641723356	422.5095238095238	55	127
422.3237641723356	422.5095238095238	60	127
422.3237641723356	422.5095238095238	58	127
422.3237641723356	422.5095238095238	64	127
422.5095238095238	422.7068934240363	60	127
422.5095238095238	422.7068934240363	58	127
422.5095238095238	422.7068934240363	64	127
422.5095238095238	422.7068934240363	55	127
422.7068934240363	422.9042630385488	58	127
422.7068934240363	422.9042630385488	64	127
422.7068934240363	422.9042630385488	60	127
422.7068934240363	422.9042630385488	55	127
422.9042630385488	423.090022675737	64	127
422.9042630385488	423.090022675737	60	127
422.9042630385488	423.090022675737	58	127
422.9042630385488	423.090022675737	55	127
422.9042630385488	423.2757823129252	79	127
423.10163265306124	423.2757823129252	60	127
423.10163265306124	423.2757823129252	64	127
423.10163265306124	423.2757823129252	58	127
423.10163265306124	423.2757823129252	55	127
423.28739229024944	423.47315192743764	60	127
423.28739229024944	423.47315192743764	64	127
423.28739229024944	423.47315192743764	58	127
423.28739229024944	423.47315192743764	55	127
423.28739229024944	423.65891156462584	80	127
423.47315192743764	423.65891156462584	64	127
423.47315192743764	423.65891156462584	60	127
423.47315192743764	423.65891156462584	58	127
423.47315192743764	423.65891156462584	55	127
423.65891156462584	424.0304308390023	82	127
423.65891156462584	423.84467120181404	64	127
423.65891156462584	423.84467120181404	60	127
423.65891156462584	423.84467120181404	58	127
423.65891156462584	423.84467120181404	55	127
423.84467120181404	424.0304308390023	55	127
423.84467120181404	424.0304308390023	64	127
423.84467120181404	424.0304308390023	60	127
423.84467120181404	424.0304308390023	58	127
424.0304308390023	424.2161904761905	55	127
424.0304308390023	424.2161904761905	64	127
424.0304308390023	424.2161904761905	60	127
424.0304308390023	424.2161904761905	58	127
424.0304308390023	424.41356009070296	84	127
424.2161904761905	424.41356009070296	64	127
424.2161904761905	424.41356009070296	60	127
424.2161904761905	424.41356009070296	58	127
424.2161904761905	424.41356009070296	55	127
424.4251700680272	424.6225396825397	58	127
424.4251700680272	424.6225396825397	64	127
424.4251700680272	424.6225396825397	60	127
424.4251700680272	424.6225396825397	55	127
424.4251700680272	425.5745578231292	82	127
424.63414965986397	424.83151927437643	64	127
424.63414965986397	424.83151927437643	60	127
424.63414965986397	424.83151927437643	58	127
424.63414965986397	424.83151927437643	55	127
424.83151927437643	425.01727891156463	58	127
424.83151927437643	425.01727891156463	60	127
424.83151927437643	425.01727891156463	64	127
424.83151927437643	425.01727891156463	55	127
425.01727891156463	425.20303854875283	60	127
425.01727891156463	425.20303854875283	64	127
425.01727891156463	425.20303854875283	58	127
425.01727891156463	425.20303854875283	55	127
425.20303854875283	425.388798185941	64	127
425.20303854875283	425.388798185941	55	127
425.20303854875283	425.388798185941	60	127
425.20303854875283	425.388798185941	58	127
425.388798185941	425.5745578231292	60	127
425.388798185941	425.5745578231292	64	127
425.388798185941	425.5745578231292	58	127
425.388798185941	425.5745578231292	55	127
425.5861678004535	425.77192743764175	64	127
425.5861678004535	425.77192743764175	80	127
425.5861678004535	425.77192743764175	60	127
425.5861678004535	425.77192743764175	58	127
425.5861678004535	425.77192743764175	55	127
425.78353741496596	425.98090702947843	55	127
425.78353741496596	425.98090702947843	60	127
425.78353741496596	425.98090702947843	79	127
425.78353741496596	425.98090702947843	64	127
425.78353741496596	425.98090702947843	58	127
425.98090702947843	426.1666666666667	58	127
425.98090702947843	426.1666666666667	77	127
425.98090702947843	426.1666666666667	64	127
425.98090702947843	426.1666666666667	60	127
425.98090702947843	426.1666666666667	55	127
426.1666666666667	426.36403628117915	60	127
426.1666666666667	426.3175963718821	79	127
426.1666666666667	426.36403628117915	64	127
426.1666666666667	426.36403628117915	58	127
426.1666666666667	426.36403628117915	55	127
426.36403628117915	426.5033560090703	80	127
426.36403628117915	426.54979591836735	64	127
426.36403628117915	426.54979591836735	60	127
426.36403628117915	426.54979591836735	58	127
426.36403628117915	426.54979591836735	55	127
426.54979591836735	426.68911564625853	82	127
426.54979591836735	426.73555555555555	55	127
426.54979591836735	426.73555555555555	64	127
426.54979591836735	426.73555555555555	60	127
426.54979591836735	426.73555555555555	58	127
426.73555555555555	426.92131519274375	55	127
426.73555555555555	426.92131519274375	64	127
426.73555555555555	426.92131519274375	60	127
426.73555555555555	426.92131519274375	58	127
426.73555555555555	427.10707482993195	84	127
426.932925170068	427.10707482993195	60	127
426.932925170068	427.10707482993195	58	127
426.932925170068	427.10707482993195	55	127
426.932925170068	427.10707482993195	64	127
427.1186848072562	427.2928344671202	55	127
427.1186848072562	427.2928344671202	60	127
427.1186848072562	427.2928344671202	58	127
427.1186848072562	427.50181405895694	85	127
427.1186848072562	427.2928344671202	64	127
427.2928344671202	427.50181405895694	60	127
427.2928344671202	427.50181405895694	64	127
427.2928344671202	427.50181405895694	58	127
427.2928344671202	427.50181405895694	55	127
427.50181405895694	427.68757369614514	60	127
427.50181405895694	427.68757369614514	57	127
427.50181405895694	427.68757369614514	54	127
427.50181405895694	427.68757369614514	63	127
427.50181405895694	428.96467120181404	84	127
427.68757369614514	427.87333333333333	60	127
427.68757369614514	427.87333333333333	57	127
427.68757369614514	427.87333333333333	54	127
427.68757369614514	427.87333333333333	63	127
427.87333333333333	428.05909297052153	63	127
427.87333333333333	428.05909297052153	60	127
427.87333333333333	428.05909297052153	57	127
427.87333333333333	428.05909297052153	54	127
428.05909297052153	428.24485260770973	57	127
428.05909297052153	428.24485260770973	54	127
428.05909297052153	428.24485260770973	63	127
428.05909297052153	428.24485260770973	60	127
428.256462585034	428.4422222222222	57	127
428.256462585034	428.4422222222222	54	127
428.256462585034	428.4422222222222	63	127
428.256462585034	428.4422222222222	60	127
428.4422222222222	428.62798185941045	60	127
428.4422222222222	428.62798185941045	57	127
428.4422222222222	428.62798185941045	54	127
428.4422222222222	428.62798185941045	63	127
428.62798185941045	428.7905215419501	57	127
428.62798185941045	428.7905215419501	54	127
428.62798185941045	428.7905215419501	63	127
428.62798185941045	428.7905215419501	60	127
428.7905215419501	428.96467120181404	63	127
428.7905215419501	428.96467120181404	60	127
428.7905215419501	428.96467120181404	54	127
428.7905215419501	428.96467120181404	57	127
428.96467120181404	429.15043083900224	60	127
428.96467120181404	429.15043083900224	54	127
428.96467120181404	429.15043083900224	63	127
428.96467120181404	429.3361904761905	84	127
428.96467120181404	429.15043083900224	57	127
429.15043083900224	429.3361904761905	63	127
429.15043083900224	429.3361904761905	60	127
429.15043083900224	429.3361904761905	57	127
429.15043083900224	429.3361904761905	54	127
429.34780045351476	429.53356009070296	63	127
429.34780045351476	429.53356009070296	60	127
429.34780045351476	429.53356009070296	57	127
429.34780045351476	429.73092970521543	85	127
429.34780045351476	429.53356009070296	54	127
429.54517006802723	429.73092970521543	63	127
429.54517006802723	429.73092970521543	60	127
429.54517006802723	429.73092970521543	54	127
429.54517006802723	429.73092970521543	57	127
429.73092970521543	429.93990929705217	63	127
429.73092970521543	429.93990929705217	60	127
429.73092970521543	429.93990929705217	57	127
429.73092970521543	429.93990929705217	54	127
429.73092970521543	430.1488888888889	87	127
429.93990929705217	430.1488888888889	60	127
429.93990929705217	430.1488888888889	57	127
429.93990929705217	430.1488888888889	54	127
429.93990929705217	430.1488888888889	63	127
430.1488888888889	430.3346485260771	60	127
430.1488888888889	430.3346485260771	54	127
430.1488888888889	430.5204081632653	89	127
430.1488888888889	430.3346485260771	63	127
430.1488888888889	430.3346485260771	57	127
430.3346485260771	430.5204081632653	60	127
430.3346485260771	430.5204081632653	57	127
430.3346485260771	430.5204081632653	54	127
430.3346485260771	430.5204081632653	63	127
430.5204081632653	431.6465759637188	87	127
430.5204081632653	430.7061678004535	63	127
430.5204081632653	430.7061678004535	60	127
430.5204081632653	430.7061678004535	57	127
430.5204081632653	430.7061678004535	54	127
430.71777777777777	430.8919274376417	60	127
430.71777777777777	430.8919274376417	57	127
430.71777777777777	430.8919274376417	54	127
430.71777777777777	430.8919274376417	63	127
430.90353741496597	431.07768707482995	60	127
430.90353741496597	431.07768707482995	57	127
430.90353741496597	431.07768707482995	54	127
430.90353741496597	431.07768707482995	63	127
431.07768707482995	431.2750566893424	63	127
431.07768707482995	431.2750566893424	60	127
431.07768707482995	431.2750566893424	57	127
431.07768707482995	431.2750566893424	54	127
431.2750566893424	431.4608163265306	60	127
431.2750566893424	431.4608163265306	57	127
431.2750566893424	431.4608163265306	54	127
431.2750566893424	431.4608163265306	63	127
431.4608163265306	431.6465759637188	63	127
431.4608163265306	431.6465759637188	60	127
431.4608163265306	431.6465759637188	57	127
431.4608163265306	431.6465759637188	54	127
431.6465759637188	431.78589569161	87	127
431.6465759637188	431.832335600907	63	127
431.6465759637188	431.832335600907	60	127
431.6465759637188	431.832335600907	54	127
431.6465759637188	431.832335600907	57	127
431.832335600907	431.9716553287982	85	127
431.832335600907	432.0180952380952	63	127
431.832335600907	432.0180952380952	60	127
431.832335600907	432.0180952380952	57	127
431.832335600907	432.0180952380952	54	127
432.04131519274375	432.20385487528347	84	127
432.04131519274375	432.20385487528347	60	127
432.04131519274375	432.20385487528347	57	127
432.04131519274375	432.20385487528347	54	127
432.04131519274375	432.20385487528347	63	127
432.21546485260774	432.38961451247167	57	127
432.21546485260774	432.38961451247167	63	127
432.21546485260774	432.3431746031746	85	127
432.21546485260774	432.38961451247167	60	127
432.21546485260774	432.38961451247167	54	127
432.38961451247167	432.5521541950113	57	127
432.38961451247167	432.5521541950113	60	127
432.38961451247167	432.5521541950113	63	127
432.38961451247167	432.5057142857143	87	127
432.38961451247167	432.5521541950113	54	127
432.5521541950113	432.7379138321995	60	127
432.5521541950113	432.7379138321995	57	127
432.5521541950113	432.6914739229025	89	127
432.5521541950113	432.7379138321995	63	127
432.5521541950113	432.7379138321995	54	127
432.7379138321995	432.9236734693878	54	127
432.7379138321995	433.0165532879819	87	127
432.7379138321995	432.9236734693878	60	127
432.7379138321995	432.9236734693878	63	127
432.7379138321995	432.9236734693878	57	127
432.9236734693878	433.109433106576	60	127
432.9236734693878	433.109433106576	57	127
432.9236734693878	433.109433106576	54	127
432.9236734693878	433.109433106576	63	127
433.12104308390025	433.2487528344671	87	127
433.12104308390025	433.2951927437642	60	127
433.12104308390025	433.2951927437642	57	127
433.12104308390025	433.2951927437642	63	127
433.12104308390025	433.2951927437642	54	127
433.30680272108845	433.4809523809524	57	127
433.30680272108845	433.43451247165535	85	127
433.30680272108845	433.4809523809524	60	127
433.30680272108845	433.4809523809524	54	127
433.30680272108845	433.4809523809524	63	127
433.4809523809524	433.6667120181406	63	127
433.4809523809524	433.6667120181406	54	127
433.4809523809524	433.6667120181406	56	127
433.4809523809524	433.6667120181406	84	127
433.4809523809524	433.6667120181406	60	127
433.6667120181406	433.85247165532877	63	127
433.6667120181406	433.80603174603175	85	127
433.6667120181406	433.85247165532877	60	127
433.6667120181406	433.85247165532877	54	127
433.6667120181406	433.85247165532877	56	127
433.85247165532877	434.0150113378685	63	127
433.85247165532877	434.0150113378685	56	127
433.85247165532877	433.9685714285714	87	127
433.85247165532877	434.0150113378685	60	127
433.85247165532877	434.0150113378685	54	127
434.0150113378685	434.15433106575966	89	127
434.0150113378685	434.2007709750567	54	127
434.0150113378685	434.2007709750567	60	127
434.0150113378685	434.2007709750567	63	127
434.0150113378685	434.2007709750567	56	127
434.2007709750567	434.3865306122449	63	127
434.2007709750567	434.3865306122449	60	127
434.2007709750567	434.3865306122449	54	127
434.2007709750567	434.479410430839	90	127
434.2007709750567	434.3865306122449	56	127
434.39814058956915	434.5722902494331	63	127
434.39814058956915	434.5722902494331	56	127
434.39814058956915	434.5722902494331	54	127
434.39814058956915	434.5722902494331	60	127
434.58390022675735	434.7232199546485	90	127
434.58390022675735	434.7696598639456	60	127
434.58390022675735	434.7696598639456	54	127
434.58390022675735	434.7696598639456	56	127
434.58390022675735	434.7696598639456	63	127
434.7696598639456	434.9554195011338	63	127
434.7696598639456	434.9554195011338	60	127
434.7696598639456	434.9554195011338	56	127
434.7696598639456	434.9554195011338	54	127
434.7696598639456	434.9089795918367	89	127
434.9554195011338	435.12956916099773	87	127
434.9554195011338	435.12956916099773	54	127
434.9554195011338	435.12956916099773	63	127
434.9554195011338	435.12956916099773	60	127
434.9554195011338	435.12956916099773	56	127
435.12956916099773	435.31532879818593	63	127
435.12956916099773	435.31532879818593	56	127
435.12956916099773	435.2688888888889	89	127
435.12956916099773	435.31532879818593	54	127
435.12956916099773	435.31532879818593	60	127
435.31532879818593	435.5126984126984	60	127
435.31532879818593	435.5126984126984	56	127
435.31532879818593	435.5126984126984	54	127
435.31532879818593	435.4662585034014	90	127
435.31532879818593	435.5126984126984	63	127
435.5126984126984	435.6984580498866	56	127
435.5126984126984	435.6984580498866	60	127
435.5126984126984	435.6984580498866	63	127
435.5126984126984	435.6984580498866	54	127
435.5126984126984	435.6520181405896	92	127
435.71006802721087	435.88421768707485	63	127
435.71006802721087	435.88421768707485	56	127
435.71006802721087	435.9887074829932	90	127
435.71006802721087	435.88421768707485	60	127
435.71006802721087	435.88421768707485	54	127
435.8958276643991	436.0815873015873	54	127
435.8958276643991	436.0815873015873	60	127
435.8958276643991	436.0815873015873	63	127
435.8958276643991	436.0815873015873	56	127
436.0815873015873	436.22090702947844	89	127
436.0815873015873	436.2673469387755	63	127
436.0815873015873	436.2673469387755	56	127
436.0815873015873	436.2673469387755	54	127
436.0815873015873	436.2673469387755	60	127
436.2673469387755	436.4531065759637	60	127
436.2673469387755	436.4531065759637	54	127
436.2673469387755	436.4531065759637	56	127
436.2673469387755	436.4066666666667	87	127
436.2673469387755	436.4531065759637	63	127
436.4531065759637	436.6388662131519	63	127
436.4531065759637	436.6388662131519	56	127
436.4531065759637	436.6388662131519	85	127
436.4531065759637	436.6388662131519	60	127
436.4531065759637	436.6388662131519	54	127
436.6504761904762	436.8246258503401	63	127
436.6504761904762	436.8246258503401	56	127
436.6504761904762	436.78979591836736	84	127
436.6504761904762	436.8246258503401	54	127
436.6504761904762	436.8246258503401	60	127
436.8246258503401	437.01038548752837	63	127
436.8246258503401	437.01038548752837	56	127
436.8246258503401	436.9639455782313	82	127
436.8246258503401	437.01038548752837	54	127
436.8246258503401	437.01038548752837	60	127
437.0219954648526	437.16131519274376	80	127
437.0219954648526	437.19614512471657	60	127
437.0219954648526	437.19614512471657	54	127
437.0219954648526	437.19614512471657	56	127
437.0219954648526	437.19614512471657	63	127
437.19614512471657	437.3702947845805	54	127
437.19614512471657	437.3702947845805	56	127
437.19614512471657	437.3702947845805	60	127
437.19614512471657	437.4515646258503	78	127
437.19614512471657	437.3702947845805	63	127
437.38190476190476	437.53283446712015	63	127
437.38190476190476	437.53283446712015	60	127
437.38190476190476	437.53283446712015	56	127
437.38190476190476	437.53283446712015	54	127
437.53283446712015	437.66054421768706	77	127
437.53283446712015	437.7185941043084	60	127
437.53283446712015	437.7185941043084	54	127
437.53283446712015	437.7185941043084	63	127
437.53283446712015	437.7185941043084	56	127
437.7185941043084	437.9159637188209	56	127
437.7185941043084	437.9159637188209	54	127
437.7185941043084	437.9159637188209	63	127
437.7185941043084	437.8695238095238	75	127
437.7185941043084	437.9159637188209	60	127
437.9159637188209	438.11333333333334	56	127
437.9159637188209	438.11333333333334	54	127
437.9159637188209	438.11333333333334	73	127
437.9159637188209	438.11333333333334	60	127
437.9159637188209	438.11333333333334	63	127
438.11333333333334	438.3107029478458	56	127
438.11333333333334	438.3107029478458	63	127
438.11333333333334	438.3107029478458	60	127
438.11333333333334	438.3107029478458	54	127
438.11333333333334	438.26426303854873	72	127
438.3223129251701	438.4384126984127	70	127
438.3223129251701	438.496462585034	54	127
438.3223129251701	438.496462585034	60	127
438.3223129251701	438.496462585034	63	127
438.3223129251701	438.496462585034	56	127
438.496462585034	438.67061224489794	63	127
438.496462585034	438.61256235827665	68	127
438.496462585034	438.67061224489794	56	127
438.496462585034	438.67061224489794	54	127
438.496462585034	438.67061224489794	60	127
438.67061224489794	441.8633560090703	66	127
438.67061224489794	442.51351473922904	63	127
438.67061224489794	442.51351473922904	60	127
438.67061224489794	439.07696145124714	56	127
438.67061224489794	439.07696145124714	54	127
439.07696145124714	439.2278911564626	65	127
439.2859410430839	439.42526077097506	63	127
439.47170068027214	439.6342403628118	61	127
439.6342403628118	439.7851700680272	60	127
439.82	439.93609977324263	58	127
439.9941496598639	440.1334693877551	56	127
440.1799092970522	440.5862585034014	54	127
440.59786848072565	440.7604081632653	53	127
440.8184580498866	440.9577777777778	51	127
441.01582766439907	441.2248072562358	49	127
441.2364172335601	441.3873469387755	48	127
441.4453968253968	441.631156462585	46	127
441.6775963718821	441.8633560090703	44	127
441.9446258503401	442.60639455782314	44	127
441.9446258503401	443.5351927437642	68	127
442.60639455782314	443.57002267573694	63	127
442.60639455782314	443.57002267573694	42	127
442.60639455782314	443.57002267573694	60	127
443.5816326530612	444.5684807256236	65	127
443.5816326530612	443.97637188208614	41	127
443.5816326530612	443.97637188208614	61	127
443.5816326530612	444.5684807256236	68	127
444.5684807256236	444.7542403628118	70	127
444.5684807256236	444.7542403628118	66	127
444.7542403628118	444.94	65	127
444.7542403628118	444.94	68	127
444.94	445.1257596371882	66	127
444.94	445.1257596371882	63	127
445.13736961451247	445.3115192743764	65	127
445.13736961451247	445.3115192743764	68	127
445.32312925170066	445.52049886621313	62	127
445.32312925170066	445.52049886621313	65	127
445.52049886621313	445.7062585034014	56	127
445.52049886621313	445.7062585034014	63	127
445.7062585034014	445.8920181405896	62	127
445.7062585034014	445.8920181405896	65	127
445.8920181405896	446.05455782312924	63	127
445.8920181405896	446.05455782312924	56	127
446.05455782312924	446.2287074829932	61	127
446.05455782312924	446.2287074829932	65	127
446.24031746031744	446.4260770975057	63	127
446.24031746031744	446.4260770975057	60	127
446.4376870748299	446.62344671201816	65	127
446.4376870748299	446.62344671201816	61	127
446.62344671201816	446.77437641723355	63	127
446.62344671201816	446.77437641723355	66	127
446.77437641723355	446.9485260770975	65	127
446.77437641723355	446.9485260770975	68	127
446.9485260770975	447.12267573696147	66	127
446.9485260770975	447.12267573696147	70	127
447.12267573696147	447.30843537414967	65	127
447.12267573696147	447.30843537414967	68	127
447.30843537414967	447.50580498866213	66	127
447.30843537414967	447.50580498866213	70	127
447.5174149659864	447.69156462585033	72	127
447.5174149659864	447.69156462585033	63	127
447.7031746031746	447.8889342403628	65	127
447.7031746031746	447.8889342403628	73	127
447.8889342403628	448.074693877551	72	127
447.8889342403628	448.074693877551	63	127
448.074693877551	448.2140136054422	66	127
448.074693877551	448.2140136054422	75	127
448.26045351473925	448.3997732426304	63	127
448.26045351473925	448.3997732426304	66	127
448.44621315192745	448.59714285714284	63	127
448.44621315192745	448.59714285714284	66	127
448.63197278911565	448.8293424036281	63	127
448.63197278911565	448.8293424036281	66	127
448.8293424036281	448.98027210884356	65	127
448.8293424036281	448.98027210884356	68	127
449.03832199546486	449.17764172335603	63	127
449.03832199546486	449.17764172335603	60	127
449.2356916099773	449.3750113378685	60	127
449.2356916099773	449.3750113378685	63	127
449.4330612244898	450.67532879818594	53	127
449.4330612244898	449.86263038548753	65	127
449.4330612244898	450.67532879818594	56	127
449.4330612244898	449.86263038548753	61	127
450.67532879818594	450.8726984126984	54	127
450.67532879818594	450.8726984126984	58	127
450.8726984126984	451.0932879818594	53	127
450.8726984126984	451.0932879818594	56	127
451.0932879818594	451.2906575963719	51	127
451.0932879818594	451.2906575963719	54	127
451.2906575963719	451.4996371882086	53	127
451.2906575963719	451.4996371882086	56	127
451.4996371882086	451.67378684807255	53	127
451.4996371882086	451.67378684807255	50	127
451.67378684807255	451.90598639455783	44	127
451.67378684807255	451.90598639455783	51	127
451.90598639455783	452.091746031746	53	127
451.90598639455783	452.091746031746	50	127
452.091746031746	452.2775056689342	44	127
452.091746031746	452.2775056689342	51	127
452.2775056689342	452.4632653061224	41	127
452.2775056689342	452.4632653061224	49	127
452.4632653061224	452.66063492063495	51	127
452.4632653061224	452.66063492063495	44	127
452.66063492063495	452.8347845804989	49	127
452.66063492063495	452.8347845804989	53	127
452.8347845804989	452.98571428571427	51	127
452.8347845804989	452.98571428571427	54	127
452.98571428571427	453.18308390022673	56	127
452.98571428571427	453.18308390022673	53	127
453.18308390022673	453.3804535147392	54	127
453.18308390022673	453.3804535147392	58	127
453.3804535147392	453.56621315192746	56	127
453.3804535147392	453.56621315192746	53	127
453.56621315192746	453.7751927437642	54	127
453.56621315192746	453.7751927437642	58	127
453.7751927437642	453.9493424036281	51	127
453.7751927437642	453.9493424036281	60	127
453.9493424036281	454.15832199546486	53	127
453.9493424036281	454.15832199546486	61	127
454.15832199546486	454.37891156462587	51	127
454.15832199546486	454.37891156462587	60	127
454.37891156462587	454.52984126984126	54	127
454.37891156462587	454.52984126984126	63	127
454.57628117913833	454.738820861678	51	127
454.57628117913833	454.738820861678	54	127
454.79687074829934	454.98263038548754	51	127
454.79687074829934	454.98263038548754	54	127
455.04068027210883	455.20321995464855	54	127
455.04068027210883	455.20321995464855	51	127
455.2148299319728	455.34253968253967	56	127
455.2148299319728	455.34253968253967	53	127
455.400589569161	455.53990929705213	48	127
455.400589569161	455.53990929705213	51	127
455.5863492063492	455.7256689342404	48	127
455.5863492063492	455.7256689342404	51	127
455.7837188208617	457.49038548752833	49	127
455.7837188208617	457.49038548752833	53	127
455.9694784580499	456.0855782312925	73	127
455.9694784580499	456.0855782312925	70	127
456.1320181405896	456.2713378684807	61	127
456.1320181405896	456.2713378684807	65	127
456.32938775510206	456.4570975056689	65	127
456.32938775510206	456.4570975056689	61	127
456.51514739229026	456.70090702947846	65	127
456.51514739229026	456.70090702947846	61	127
456.70090702947846	456.8518367346939	63	127
456.70090702947846	456.8518367346939	66	127
456.8982766439909	457.0492063492064	61	127
456.8982766439909	457.0492063492064	58	127
457.0956462585034	457.2697959183673	58	127
457.0956462585034	457.2697959183673	61	127
457.3162358276644	457.6761451247165	63	127
457.3162358276644	457.6761451247165	60	127
457.49038548752833	457.6297052154195	51	127
457.49038548752833	457.6297052154195	60	127
457.6877551020408	457.8154648526077	51	127
457.6877551020408	457.8154648526077	48	127
457.8619047619048	458.0012244897959	48	127
457.8619047619048	458.0012244897959	51	127
458.02444444444444	458.21020408163264	48	127
458.02444444444444	458.21020408163264	51	127
458.21020408163264	458.33791383219955	49	127
458.21020408163264	458.33791383219955	53	127
458.3843537414966	458.5120634920635	45	127
458.3843537414966	458.5120634920635	48	127
458.55850340136055	458.6978231292517	48	127
458.55850340136055	458.6978231292517	45	127
458.7674829931973	460.5902494331066	49	127
458.7674829931973	460.5902494331066	46	127
458.9880725623583	459.1390022675737	73	127
458.9880725623583	459.1390022675737	70	127
459.18544217687077	459.3247619047619	65	127
459.18544217687077	459.3247619047619	61	127
459.37120181405896	459.49891156462587	61	127
459.37120181405896	459.49891156462587	65	127
459.5453514739229	459.74272108843536	65	127
459.5453514739229	459.74272108843536	61	127
459.74272108843536	459.9052607709751	65	127
459.74272108843536	459.9052607709751	70	127
459.96331065759637	460.10263038548754	70	127
459.96331065759637	460.10263038548754	65	127
460.16068027210883	460.32321995464855	65	127
460.16068027210883	460.32321995464855	70	127
460.38126984126984	460.7760090702948	70	127
460.38126984126984	460.7760090702948	64	127
460.5902494331066	460.72956916099776	48	127
460.5902494331066	460.72956916099776	43	127
460.7760090702948	460.9501587301587	48	127
460.7760090702948	460.9501587301587	43	127
460.9965986394558	461.13591836734696	43	127
460.9965986394558	461.13591836734696	48	127
461.182358276644	461.3565079365079	43	127
461.182358276644	461.3565079365079	48	127
461.3565079365079	461.47260770975055	46	127
461.3565079365079	461.47260770975055	49	127
461.5306575963719	461.69319727891155	49	127
461.5306575963719	461.69319727891155	46	127
461.7744671201814	461.91378684807256	49	127
461.7744671201814	461.91378684807256	46	127
461.94861678004537	463.5740136054422	49	127
461.94861678004537	463.5740136054422	46	127
462.14598639455784	462.28530612244896	73	127
462.14598639455784	462.28530612244896	70	127
462.33174603174604	462.45945578231294	61	127
462.33174603174604	462.45945578231294	65	127
462.4942857142857	462.6219954648526	65	127
462.4942857142857	462.6219954648526	61	127
462.68004535147395	462.83097505668934	61	127
462.68004535147395	462.83097505668934	65	127
462.8425850340136	462.9702947845805	70	127
462.8425850340136	462.9702947845805	65	127
463.0283446712018	463.167664399093	65	127
463.0283446712018	463.167664399093	70	127
463.21410430839	463.3534240362812	65	127
463.21410430839	463.3534240362812	70	127
463.3998639455782	463.7597732426304	64	127
463.3998639455782	463.7597732426304	70	127
463.5740136054422	463.7133333333333	48	127
463.5740136054422	463.7133333333333	43	127
463.7597732426304	463.9455328798186	43	127
463.7597732426304	463.9455328798186	48	127
464.00358276643993	464.1312925170068	43	127
464.00358276643993	464.1312925170068	48	127
464.17773242630386	464.36349206349206	48	127
464.17773242630386	464.36349206349206	43	127
464.36349206349206	464.49120181405897	49	127
464.36349206349206	464.49120181405897	46	127
464.54925170068026	464.68857142857144	70	127
464.54925170068026	464.68857142857144	46	127
464.54925170068026	464.68857142857144	49	127
464.54925170068026	464.68857142857144	65	127
464.73501133786846	464.87433106575963	46	127
464.73501133786846	464.87433106575963	70	127
464.73501133786846	464.87433106575963	49	127
464.73501133786846	464.87433106575963	65	127
464.9207709750567	465.2922902494331	70	127
464.9207709750567	465.09492063492064	49	127
464.9207709750567	465.2922902494331	64	127
464.9207709750567	465.09492063492064	46	127
465.1065306122449	465.24585034013603	43	127
465.1065306122449	465.24585034013603	48	127
465.3039002267574	465.4316099773243	70	127
465.3039002267574	465.4316099773243	65	127
465.3039002267574	465.4316099773243	49	127
465.3039002267574	465.4316099773243	46	127
465.4896598639456	465.62897959183675	65	127
465.4896598639456	465.62897959183675	49	127
465.4896598639456	465.62897959183675	70	127
465.4896598639456	465.62897959183675	46	127
465.68702947845804	465.8263492063492	49	127
465.68702947845804	465.8263492063492	46	127
465.68702947845804	466.0121088435374	70	127
465.68702947845804	466.0121088435374	64	127
465.8263492063492	465.95405895691607	43	127
465.8263492063492	465.95405895691607	48	127
466.0121088435374	466.12820861678006	46	127
466.0121088435374	466.12820861678006	49	127
466.0121088435374	466.12820861678006	70	127
466.0121088435374	466.12820861678006	65	127
466.1746485260771	466.31396825396826	70	127
466.1746485260771	466.31396825396826	46	127
466.1746485260771	466.31396825396826	49	127
466.1746485260771	466.31396825396826	65	127
466.36040816326533	466.7087074829932	64	127
466.36040816326533	466.522947845805	49	127
466.36040816326533	466.7087074829932	70	127
466.36040816326533	466.522947845805	46	127
466.522947845805	466.66226757369617	43	127
466.522947845805	466.66226757369617	48	127
466.7087074829932	466.84802721088437	70	127
466.7087074829932	466.84802721088437	49	127
466.7087074829932	466.84802721088437	67	127
466.7087074829932	466.84802721088437	43	127
466.90607709750566	467.04539682539684	70	127
466.90607709750566	467.04539682539684	49	127
466.90607709750566	467.04539682539684	67	127
466.90607709750566	467.04539682539684	40	127
467.1034467120181	467.2427664399093	68	127
467.1034467120181	467.2427664399093	44	127
467.1034467120181	467.2427664399093	65	127
467.1034467120181	467.2427664399093	48	127
467.2892063492063	467.4285260770975	68	127
467.2892063492063	467.4285260770975	65	127
467.2892063492063	467.4285260770975	41	127
467.2892063492063	467.4285260770975	48	127
467.48657596371885	467.62589569160997	71	127
467.48657596371885	467.62589569160997	65	127
467.48657596371885	467.62589569160997	38	127
467.48657596371885	467.62589569160997	48	127
467.69555555555553	467.8697052154195	71	127
467.69555555555553	467.8697052154195	48	127
467.69555555555553	467.8697052154195	43	127
467.69555555555553	467.8697052154195	65	127
467.9277551020408	468.31088435374147	72	127
467.9277551020408	468.775283446712	36	127
467.9277551020408	468.31088435374147	64	127
467.9277551020408	468.775283446712	48	127
468.775283446712	468.9262131519274	38	127
468.775283446712	468.9262131519274	50	127
468.9262131519274	469.04231292517005	52	127
468.9262131519274	469.0539229024943	40	127
469.0539229024943	469.21646258503404	53	127
469.0539229024943	469.21646258503404	41	127
469.21646258503404	469.3790022675737	43	127
469.21646258503404	469.3790022675737	55	127
469.3790022675737	469.49510204081633	45	127
469.3790022675737	469.49510204081633	57	127
469.49510204081633	469.63442176870745	47	127
469.49510204081633	469.62281179138324	59	127
469.63442176870745	470.5167800453515	48	127
469.63442176870745	470.5167800453515	60	127
470.5167800453515	470.6444897959184	50	127
470.5167800453515	470.6444897959184	62	127
470.6444897959184	470.7954195011338	48	127
470.6444897959184	470.7954195011338	60	127
470.7954195011338	470.9463492063492	59	127
470.7954195011338	470.9463492063492	47	127
470.9463492063492	471.02761904761905	52	127
470.9463492063492	471.02761904761905	64	127
471.02761904761905	471.15532879818596	62	127
471.02761904761905	471.15532879818596	50	127
471.15532879818596	471.27142857142854	48	127
471.15532879818596	471.27142857142854	60	127
471.27142857142854	472.03768707482993	53	127
471.27142857142854	472.03768707482993	65	127
472.0492970521542	472.1886167800454	64	127
472.0492970521542	472.1886167800454	52	127
472.1886167800454	472.38598639455785	50	127
472.1886167800454	472.38598639455785	62	127
472.38598639455785	472.52530612244897	48	127
472.38598639455785	472.52530612244897	60	127
472.52530612244897	472.66462585034014	59	127
472.52530612244897	472.66462585034014	47	127
472.66462585034014	472.79233560090705	45	127
472.66462585034014	472.79233560090705	57	127
472.79233560090705	472.9200453514739	55	127
472.79233560090705	472.9200453514739	43	127
472.9200453514739	473.1754648526077	41	127
472.9200453514739	473.1754648526077	53	127
473.3612244897959	473.5934240362812	52	127
473.3612244897959	473.5934240362812	40	127
473.7791836734694	474.03460317460315	38	127
473.7791836734694	474.03460317460315	50	127
474.29002267573696	474.52222222222224	55	127
474.29002267573696	474.52222222222224	43	127
474.76603174603173	474.9517913832199	48	127
474.76603174603173	474.9517913832199	36	127
475.2304308390023	475.4161904761905	60	127
475.6251700680272	475.8225396825397	64	127
476.01990929705215	476.2172789115646	67	127
476.4146485260771	478.12131519274374	65	127
476.4146485260771	478.12131519274374	68	127
476.4146485260771	478.527664399093	72	127
476.4146485260771	476.6004081632653	74	127
476.79777777777775	477.02997732426303	77	127
477.25056689342404	477.4479365079365	80	127
477.65691609977324	477.8542857142857	83	127
478.12131519274374	479.677052154195	84	127
478.12131519274374	479.677052154195	64	127
478.12131519274374	479.677052154195	67	127
478.527664399093	478.91079365079366	72	127
478.91079365079366	479.29392290249433	71	127
479.29392290249433	479.677052154195	72	127
479.68866213151927	481.4301587301587	66	127
479.68866213151927	481.8132879818594	72	127
479.68866213151927	481.4301587301587	63	127
479.68866213151927	479.88603174603173	72	127
480.09501133786847	480.338820861678	75	127
480.5826303854875	480.79160997732424	78	127
481.0354195011338	481.23278911564626	81	127
481.4301587301587	482.90462585034015	65	127
481.4301587301587	482.9510657596372	82	127
481.4301587301587	482.90462585034015	62	127
481.8132879818594	482.18480725623584	72	127
482.18480725623584	482.5679365079365	71	127
482.5795464852608	482.9510657596372	72	127
482.96267573696144	484.59968253968253	61	127
482.96267573696144	485.9580498866213	72	127
482.96267573696144	485.19179138321994	65	127
482.96267573696144	483.14843537414964	70	127
483.36902494331065	483.5780045351474	73	127
483.77537414965985	483.96113378684805	76	127
484.2049433106576	484.40231292517007	79	127
484.59968253968253	485.7026303854875	81	127
484.59968253968253	485.9580498866213	65	127
484.59968253968253	486.38761904761907	60	127
485.19179138321994	485.57492063492066	72	127
485.57492063492066	485.9580498866213	71	127
485.7026303854875	485.8303401360544	77	127
485.8303401360544	485.9696598639456	72	127
485.9696598639456	486.38761904761907	57	127
485.9696598639456	486.09736961451244	69	127
485.9696598639456	486.38761904761907	72	127
486.09736961451244	486.25990929705216	65	127
486.25990929705216	486.38761904761907	60	127
486.41083900226755	486.5153287981859	58	127
486.41083900226755	487.61827664399095	48	127
486.41083900226755	487.4092970521542	55	127
486.41083900226755	486.77074829931973	72	127
486.5269387755102	486.6430385487528	60	127
486.6546485260771	486.77074829931973	64	127
486.782358276644	487.21192743764175	74	127
486.782358276644	486.89845804988664	55	127
486.9100680272109	487.04938775510203	58	127
487.04938775510203	487.21192743764175	64	127
487.21192743764175	487.61827664399095	72	127
487.21192743764175	487.35124716553287	55	127
487.35124716553287	487.49056689342405	58	127
487.4092970521542	487.61827664399095	64	127
487.49056689342405	487.61827664399095	64	127
487.61827664399095	487.7459863945578	55	127
487.61827664399095	487.86208616780044	65	127
487.61827664399095	487.86208616780044	50	127
487.61827664399095	488.04784580498864	70	127
487.7459863945578	487.93174603174606	58	127
487.8736961451247	488.04784580498864	67	127
487.8736961451247	488.04784580498864	52	127
487.93174603174606	488.04784580498864	64	127
488.04784580498864	489.22045351473923	69	127
488.04784580498864	488.152335600907	57	127
488.04784580498864	488.4077551020408	60	127
488.04784580498864	490.9271201814059	53	127
488.152335600907	488.2800453514739	60	127
488.2800453514739	488.4077551020408	65	127
488.4077551020408	488.53546485260773	64	127
488.53546485260773	488.6863945578231	65	127
488.6863945578231	488.8257142857143	60	127
488.8257142857143	488.9534240362812	57	127
488.9534240362812	489.0927437641723	60	127
489.1043537414966	489.22045351473923	65	127
489.2320634920635	489.66163265306125	67	127
489.2320634920635	489.3713832199546	58	127
489.3829931972789	489.49909297052153	60	127
489.5107029478458	489.66163265306125	64	127
489.67324263038546	490.30018140589567	65	127
489.67324263038546	489.7893424036281	57	127
489.80095238095237	489.917052154195	60	127
489.9286621315193	490.0447619047619	65	127
490.0563718820862	490.2073015873016	58	127
490.2073015873016	490.38145124716556	60	127
490.30018140589567	490.5091609977324	67	127
490.38145124716556	490.5091609977324	64	127
490.5091609977324	490.6368707482993	57	127
490.5091609977324	490.9271201814059	69	127
490.6368707482993	490.799410430839	60	127
490.799410430839	490.9271201814059	65	127
490.9271201814059	491.10126984126987	70	127
490.9271201814059	491.10126984126987	55	127
490.9271201814059	491.0432199546485	65	127
491.0432199546485	491.1709297052154	65	127
491.1128798185941	491.28702947845807	57	127
491.1128798185941	491.28702947845807	72	127
491.1709297052154	491.28702947845807	65	127
491.28702947845807	491.4031292517007	65	127
491.28702947845807	492.03006802721086	74	127
491.28702947845807	491.681768707483	58	127
491.4031292517007	491.5192290249433	70	127
491.5192290249433	491.681768707483	74	127
491.681768707483	492.122947845805	57	127
491.681768707483	491.84430839002266	65	127
491.84430839002266	491.9952380952381	70	127
491.9952380952381	492.122947845805	74	127
492.03006802721086	492.122947845805	76	127
492.122947845805	492.5292970521542	55	127
492.122947845805	492.26226757369614	67	127
492.122947845805	492.1926077097506	76	127
492.1926077097506	492.26226757369614	77	127
492.26226757369614	492.38997732426304	70	127
492.26226757369614	492.3319274376417	76	127
492.3319274376417	492.4015873015873	77	127
492.4015873015873	492.5292970521542	72	127
492.4015873015873	492.4596371882086	76	127
492.4596371882086	492.54090702947843	77	127
492.54090702947843	492.61056689342405	76	127
492.54090702947843	492.66861678004534	67	127
492.54090702947843	492.92403628117916	60	127
492.61056689342405	492.6802267573696	77	127
492.6802267573696	492.79632653061225	70	127
492.6802267573696	492.73827664399096	76	127
492.73827664399096	492.83115646258506	74	127
492.8079365079365	492.92403628117916	72	127
492.83115646258506	492.9356462585034	76	127
492.9356462585034	493.3187755102041	77	127
492.9356462585034	493.3187755102041	53	127
492.9356462585034	493.051746031746	69	127
493.0633560090703	493.1910657596372	72	127
493.20267573696145	493.3187755102041	77	127
493.33038548752836	493.7831746031746	58	127
493.33038548752836	493.7831746031746	74	127
493.33038548752836	493.51614512471656	70	127
493.33038548752836	493.7831746031746	86	127
493.51614512471656	493.65546485260774	77	127
493.65546485260774	493.7831746031746	70	127
493.7831746031746	494.1779138321995	84	127
493.7831746031746	493.9108843537415	77	127
493.7831746031746	494.1779138321995	60	127
493.7831746031746	494.1779138321995	72	127
493.9108843537415	494.0385941043084	69	127
494.0385941043084	494.1779138321995	77	127
494.1779138321995	494.56104308390024	70	127
494.1779138321995	494.56104308390024	64	127
494.1779138321995	494.56104308390024	82	127
494.1779138321995	494.29401360544216	72	127
494.29401360544216	494.42172335600907	67	127
494.42172335600907	494.56104308390024	72	127
494.56104308390024	497.28938775510204	65	127
494.56104308390024	494.6887528344671	72	127
494.56104308390024	495.7336507936508	81	127
494.56104308390024	495.7336507936508	69	127
494.6887528344671	494.8280725623583	57	127
494.8280725623583	494.9557823129252	60	127
494.9557823129252	495.0834920634921	65	127
495.0834920634921	495.21120181405894	69	127
495.21120181405894	495.3505215419501	72	127
495.3505215419501	495.478231292517	77	127
495.4898412698413	495.6059410430839	72	127
495.61755102040814	495.7336507936508	69	127
495.74526077097505	495.87297052154196	70	127
495.74526077097505	496.14	79	127
495.74526077097505	496.14	67	127
495.8845804988662	496.0122902494331	72	127
496.02390022675735	496.14	76	127
496.1632199546485	496.29092970521543	77	127
496.1632199546485	496.5347392290249	77	127
496.1632199546485	496.5347392290249	69	127
496.29092970521543	496.41863945578234	79	127
496.41863945578234	496.5347392290249	77	127
496.5347392290249	496.69727891156464	72	127
496.5347392290249	496.65083900226756	76	127
496.5347392290249	496.69727891156464	76	127
496.65083900226756	496.7669387755102	77	127
496.69727891156464	496.8946485260771	70	127
496.69727891156464	496.8946485260771	74	127
496.7669387755102	496.8946485260771	79	127
496.8946485260771	496.9991383219955	81	127
496.8946485260771	497.28938775510204	72	127
496.8946485260771	497.28938775510204	69	127
496.9991383219955	497.10362811791384	82	127
497.10362811791384	497.19650793650794	81	127
497.19650793650794	497.28938775510204	79	127
497.28938775510204	497.41709750566895	81	127
497.28938775510204	497.47514739229024	67	127
497.28938775510204	497.47514739229024	70	127
497.28938775510204	497.47514739229024	67	127
497.41709750566895	497.5448072562358	82	127
497.4867573696145	497.6725170068027	69	127
497.4867573696145	497.6725170068027	69	127
497.4867573696145	497.6725170068027	65	127
497.5448072562358	497.6725170068027	84	127
497.6725170068027	497.8466666666667	70	127
497.6725170068027	498.10208616780045	58	127
497.6725170068027	498.392335600907	86	127
497.6725170068027	498.392335600907	77	127
497.8466666666667	497.97437641723354	72	127
497.97437641723354	498.10208616780045	74	127
498.10208616780045	498.22979591836736	72	127
498.10208616780045	498.4852154195011	55	127
498.22979591836736	498.35750566893427	70	127
498.35750566893427	498.4968253968254	69	127
498.4968253968254	498.6245351473923	67	127
498.4968253968254	498.55487528344673	88	127
498.4968253968254	498.55487528344673	79	127
498.4968253968254	498.86834467120184	48	127
498.55487528344673	498.612925170068	81	127
498.55487528344673	498.6245351473923	89	127
498.6245351473923	498.6825850340136	79	127
498.6245351473923	498.7522448979592	69	127
498.6245351473923	498.6825850340136	88	127
498.6825850340136	498.7522448979592	89	127
498.6825850340136	498.74063492063493	81	127
498.7522448979592	498.8102947845805	79	127
498.7522448979592	498.87995464852605	70	127
498.7522448979592	498.8102947845805	88	127
498.8102947845805	498.86834467120184	81	127
498.8102947845805	498.87995464852605	89	127
498.87995464852605	498.9960544217687	72	127
498.87995464852605	498.9380045351474	88	127
498.87995464852605	498.9380045351474	79	127
498.87995464852605	499.23986394557824	60	127
498.9380045351474	498.9844444444444	81	127
498.9380045351474	498.9960544217687	89	127
498.9960544217687	499.05410430839004	88	127
498.9960544217687	499.05410430839004	79	127
498.9960544217687	499.1237641723356	70	127
499.05410430839004	499.14698412698414	86	127
499.05410430839004	499.14698412698414	77	127
499.1237641723356	499.2514739229025	72	127
499.14698412698414	499.2514739229025	88	127
499.14698412698414	499.2514739229025	79	127
499.2514739229025	499.6578231292517	81	127
499.2514739229025	499.6578231292517	53	127
499.2514739229025	499.6578231292517	69	127
499.2514739229025	499.8435827664399	89	127
499.6578231292517	500.0409523809524	67	127
499.6578231292517	500.0409523809524	70	127
499.8435827664399	499.9480725623583	88	127
499.9480725623583	500.0409523809524	86	127
500.0409523809524	500.49374149659866	72	127
500.0409523809524	500.23832199546484	84	127
500.0409523809524	500.49374149659866	69	127
500.49374149659866	500.9349206349206	67	127
500.49374149659866	500.9349206349206	70	127
500.49374149659866	500.5634013605442	84	127
500.5634013605442	500.6562811791383	86	127
500.6562811791383	500.7259410430839	84	127
500.7259410430839	500.818820861678	83	127
500.818820861678	500.9349206349206	84	127
500.9349206349206	501.3412698412698	65	127
500.9349206349206	501.5386394557823	89	127
500.9349206349206	501.3412698412698	69	127
501.3412698412698	501.7592290249433	70	127
501.3412698412698	501.7592290249433	67	127
501.5386394557823	501.63151927437644	88	127
501.63151927437644	501.77083900226756	86	127
501.77083900226756	502.1655782312925	69	127
501.77083900226756	501.95659863945576	84	127
501.77083900226756	502.1655782312925	72	127
502.17718820861677	502.2352380952381	88	127
502.17718820861677	502.2352380952381	72	127
502.17718820861677	502.5719274376417	70	127
502.17718820861677	502.5719274376417	67	127
502.2352380952381	502.3048979591837	89	127
502.2352380952381	502.3048979591837	74	127
502.3048979591837	502.3861678004535	72	127
502.3048979591837	502.3861678004535	88	127
502.3861678004535	502.4790476190476	71	127
502.3861678004535	502.4790476190476	86	127
502.4790476190476	502.583537414966	72	127
502.4790476190476	502.583537414966	88	127
502.583537414966	502.9550566893424	69	127
502.583537414966	502.9550566893424	65	127
502.583537414966	503.1524263038549	77	127
502.583537414966	503.1524263038549	93	127
502.9550566893424	503.37301587301585	70	127
502.9550566893424	503.37301587301585	67	127
503.1524263038549	503.28013605442175	76	127
503.1524263038549	503.28013605442175	91	127
503.28013605442175	503.37301587301585	74	127
503.28013605442175	503.37301587301585	89	127
503.37301587301585	503.75614512471657	69	127
503.37301587301585	503.5587755102041	72	127
503.37301587301585	503.75614512471657	72	127
503.37301587301585	503.5587755102041	88	127
503.75614512471657	504.1624943310658	67	127
503.75614512471657	503.8258049886621	88	127
503.75614512471657	504.1624943310658	70	127
503.75614512471657	503.8258049886621	72	127
503.8258049886621	503.8954648526077	74	127
503.8258049886621	503.8954648526077	89	127
503.8954648526077	503.9767346938776	72	127
503.8954648526077	503.9767346938776	88	127
503.9767346938776	504.0696145124717	86	127
503.9767346938776	504.0696145124717	71	127
504.0696145124717	504.1624943310658	72	127
504.0696145124717	504.1624943310658	88	127
504.1624943310658	504.76621315192745	77	127
504.1624943310658	504.568843537415	65	127
504.1624943310658	504.76621315192745	93	127
504.1624943310658	504.568843537415	69	127
504.568843537415	504.9751927437642	67	127
504.568843537415	504.9751927437642	70	127
504.76621315192745	504.8823129251701	91	127
504.76621315192745	504.8823129251701	76	127
504.8823129251701	504.98680272108845	74	127
504.8823129251701	504.98680272108845	89	127
504.98680272108845	505.1841723356009	72	127
504.98680272108845	505.1841723356009	88	127
504.98680272108845	505.4163718820862	69	127
504.98680272108845	505.4163718820862	72	127
505.4279818594104	505.48603174603176	88	127
505.4279818594104	505.48603174603176	72	127
505.4279818594104	505.8691609977324	67	127
505.4279818594104	505.8691609977324	70	127
505.48603174603176	505.6021315192744	89	127
505.48603174603176	505.6021315192744	74	127
505.6021315192744	505.6834013605442	72	127
505.6021315192744	505.6834013605442	88	127
505.6834013605442	505.7878911564626	71	127
505.6834013605442	505.7878911564626	86	127
505.7878911564626	505.8807709750567	88	127
505.7878911564626	505.8807709750567	72	127
505.8807709750567	506.2871201814059	96	127
505.8807709750567	506.68185941043083	69	127
505.8807709750567	507.84285714285716	84	127
505.8807709750567	506.68185941043083	65	127
506.2871201814059	506.43804988662134	94	127
506.48448979591836	506.6354195011338	93	127
506.68185941043083	507.4597278911565	70	127
506.68185941043083	506.86761904761903	93	127
506.68185941043083	507.4597278911565	67	127
506.8792290249433	507.0185487528345	91	127
507.07659863945577	507.21591836734694	89	127
507.27396825396823	507.4132879818594	88	127
507.4597278911565	507.65709750566896	91	127
507.4597278911565	508.21437641723355	69	127
507.4597278911565	508.21437641723355	72	127
507.65709750566896	507.7964172335601	89	127
507.84285714285716	507.9821768707483	84	127
507.84285714285716	507.9821768707483	88	127
508.02861678004535	508.16793650793653	86	127
508.02861678004535	508.16793650793653	82	127
508.2259863945578	508.44657596371883	86	127
508.2259863945578	509.06190476190477	70	127
508.2259863945578	509.06190476190477	74	127
508.2259863945578	508.44657596371883	82	127
508.44657596371883	508.58589569161	84	127
508.44657596371883	508.58589569161	81	127
508.632335600907	508.7716553287982	82	127
508.632335600907	508.7716553287982	79	127
508.8297052154195	509.0154648526077	81	127
508.8297052154195	509.0154648526077	77	127
509.07351473922904	509.468253968254	67	127
509.07351473922904	509.468253968254	76	127
509.07351473922904	509.468253968254	79	127
509.07351473922904	509.468253968254	70	127
509.468253968254	509.5959637188209	79	127
509.5959637188209	509.72367346938773	77	127
509.72367346938773	509.85138321995464	76	127
509.85138321995464	509.9907029478458	74	127
509.9907029478458	510.1184126984127	76	127
510.1184126984127	510.2345124716553	72	127
510.2345124716553	510.61764172335603	84	127
510.61764172335603	511.0356009070295	57	127
510.61764172335603	511.0356009070295	65	127
510.61764172335603	511.0356009070295	69	127
511.0356009070295	511.1749206349206	84	127
511.1749206349206	511.30263038548753	82	127
511.30263038548753	511.41873015873017	81	127
511.41873015873017	511.5	79	127
511.5	511.6277097505669	81	127
511.6277097505669	511.7554195011338	77	127
511.7554195011338	512.1385487528345	89	127
512.1385487528345	512.5797278911565	46	127
512.1385487528345	512.5797278911565	60	127
512.1385487528345	512.5797278911565	52	127
512.5797278911565	512.7190476190476	79	127
512.7190476190476	512.8467346938776	77	127
512.8467346938776	512.9744671201814	76	127
512.9744671201814	513.1021768707483	74	127
513.1021768707483	513.1950566893424	76	127
513.1950566893424	513.311156462585	72	127
513.311156462585	513.6826757369614	84	127
513.6826757369614	514.0773922902495	45	127
513.6826757369614	514.0773922902495	57	127
513.6826757369614	514.0773922902495	53	127
513.6826757369614	514.0773922902495	60	127
514.0773922902495	514.2399546485261	72	127
514.2399546485261	514.367664399093	70	127
514.367664399093	514.4953741496598	69	127
514.4953741496598	514.5998639455782	67	127
514.5998639455782	514.7275736961451	69	127
514.7275736961451	514.8320634920635	65	127
514.8320634920635	515.5751020408163	77	127
514.8320634920635	514.9597732426304	65	127
514.9597732426304	515.0874603174603	64	127
515.0874603174603	515.1919727891157	62	127
515.1919727891157	521.4033106575964	47	127
515.1919727891157	515.3196825396825	60	127
515.1919727891157	521.4033106575964	38	127
515.3196825396825	515.4473922902495	62	127
515.4473922902495	515.5751020408163	59	127
515.5751020408163	516.3529705215419	55	127
515.5751020408163	515.7027891156463	65	127
515.7027891156463	515.8769614512472	64	127
515.8769614512472	515.9930612244898	62	127
515.9930612244898	516.1207482993198	77	127
515.9930612244898	516.1207482993198	60	127
516.1207482993198	516.2368707482993	83	127
516.1207482993198	516.2368707482993	62	127
516.2368707482993	516.3529705215419	86	127
516.2368707482993	516.3529705215419	59	127
516.3529705215419	516.7360770975057	55	127
516.3529705215419	516.7360770975057	89	127
516.3529705215419	516.4922902494332	65	127
516.4922902494332	516.6083900226757	64	127
516.6083900226757	516.7360770975057	62	127
516.7360770975057	516.8638095238096	60	127
516.8638095238096	516.9915192743764	62	127
516.9915192743764	517.1308163265306	59	127
517.1308163265306	517.9319274376418	55	127
517.1308163265306	517.2469387755102	65	127
517.2469387755102	517.3630385487528	64	127
517.3630385487528	517.502358276644	62	127
517.502358276644	517.6532879818594	60	127
517.502358276644	517.6532879818594	77	127
517.6532879818594	517.8042176870748	83	127
517.6532879818594	517.8042176870748	62	127
517.8042176870748	517.943514739229	86	127
517.8042176870748	517.943514739229	59	127
517.943514739229	518.3266666666667	55	127
517.943514739229	518.3266666666667	89	127
517.943514739229	518.0712471655329	65	127
518.0712471655329	518.1989569160997	64	127
518.1989569160997	518.3266666666667	62	127
518.3266666666667	518.4543764172336	60	127
518.4543764172336	518.5820861678004	62	127
518.5820861678004	518.7214058956916	59	127
518.7214058956916	518.8491156462585	55	127
518.872335600907	518.9884126984127	59	127
519.0116553287982	519.1161451247166	62	127
519.1393650793651	519.313514739229	65	127
519.3367346938776	519.4412244897959	67	127
519.4644444444444	519.5805215419501	71	127
519.6037641723356	519.708253968254	74	127
519.7314739229025	519.8243537414966	77	127
519.8475736961451	519.9404535147393	79	127
519.9636734693878	520.0797732426304	83	127
520.0797732426304	520.2190929705215	86	127
520.2190929705215	520.3351927437642	83	127
520.3468027210885	520.4396825396825	79	127
520.4512925170068	520.5557823129252	77	127
520.5557823129252	520.6718820861678	74	127
520.683492063492	520.7763718820862	71	127
520.7879818594105	520.8924716553288	67	127
520.9040816326531	521.031768707483	65	127
521.0434013605442	521.1362811791383	62	127
521.1478911564626	521.2756009070295	67	127
521.2756009070295	521.4033106575964	65	127
521.4033106575964	524.3986848072562	36	127
521.4033106575964	521.6935600907029	64	127
521.4033106575964	521.5078004535147	67	127
521.4033106575964	524.3986848072562	46	127
521.5078004535147	521.5890702947846	65	127
521.5890702947846	521.6935600907029	64	127
521.6935600907029	521.7980498866214	62	127
521.7980498866214	521.9257596371882	64	127
521.9257596371882	522.0534467120182	60	127
522.0534467120182	522.1579591836735	64	127
522.181179138322	522.2972789115646	67	127
522.3204988662131	522.4133786848073	70	127
522.4365986394558	522.5643083900227	72	127
522.5991383219955	522.7036281179138	76	127
522.7268480725623	522.842947845805	79	127
522.8661451247166	522.9590476190476	82	127
522.9590476190476	523.063514739229	79	127
523.0983673469387	523.1912471655329	76	127
523.2260770975057	523.3189569160998	72	127
523.3537868480726	523.4698639455783	70	127
523.504716553288	523.5975963718821	67	127
523.6092063492064	523.678843537415	64	127
523.7136961451247	523.7949659863946	60	127
523.8297959183674	523.9342857142857	58	127
523.9691156462585	524.0619954648527	55	127
524.0968027210885	524.212925170068	60	127
524.2477551020409	524.3638548752834	58	127
524.3986848072562	524.7934240362812	57	127
524.3986848072562	524.5496145124716	60	127
524.3986848072562	524.5496145124716	48	127
524.5496145124716	524.6889115646259	58	127
524.5496145124716	524.6889115646259	46	127
524.6889115646259	524.7934240362812	45	127
524.6889115646259	524.7934240362812	57	127
524.7934240362812	524.921133786848	55	127
524.7934240362812	524.921133786848	43	127
524.921133786848	525.0604535147393	45	127
524.921133786848	525.0604535147393	57	127
525.0604535147393	525.1765532879818	53	127
525.0604535147393	525.1765532879818	41	127
525.1765532879818	525.2810430839003	45	127
525.1765532879818	525.2810430839003	57	127
525.3042403628118	525.4203628117914	48	127
525.3042403628118	525.4203628117914	60	127
525.4551927437642	525.5712925170068	55	127
525.4551927437642	525.5712925170068	67	127
525.5945124716553	525.6990022675737	48	127
525.5945124716553	525.7221995464853	84	127
525.5945124716553	525.7221995464853	72	127
525.5945124716553	525.6990022675737	60	127
525.7221995464853	525.8267120181406	70	127
525.7221995464853	525.8267120181406	82	127
525.7221995464853	525.8034920634921	65	127
525.7221995464853	525.8034920634921	53	127
525.8267120181406	525.9544217687074	69	127
525.8267120181406	525.931179138322	57	127
525.8267120181406	525.9544217687074	81	127
525.8267120181406	525.931179138322	69	127
525.9544217687074	526.0589115646259	65	127
525.9544217687074	526.0589115646259	53	127
525.9544217687074	526.0821315192744	79	127
525.9544217687074	526.0821315192744	67	127
526.0937414965987	526.1866213151927	57	127
526.0937414965987	526.1866213151927	69	127
526.0937414965987	526.2098412698413	69	127
526.0937414965987	526.2098412698413	81	127
526.2214512471655	526.3491383219955	77	127
526.2214512471655	526.325918367347	72	127
526.2214512471655	526.3491383219955	65	127
526.2214512471655	526.325918367347	60	127
526.3607709750567	526.4536507936508	69	127
526.3607709750567	526.4536507936508	69	127
526.3607709750567	526.4536507936508	57	127
526.3607709750567	526.4536507936508	81	127
526.4884807256236	526.5929705215419	65	127
526.4884807256236	526.5929705215419	84	127
526.4884807256236	526.5929705215419	72	127
526.4884807256236	526.5929705215419	53	127
526.6161904761905	526.7206802721089	77	127
526.6161904761905	526.7206802721089	60	127
526.6161904761905	526.7206802721089	48	127
526.6161904761905	526.7206802721089	89	127
526.7554875283447	526.86	45	127
526.7554875283447	526.86	57	127
526.7554875283447	526.86	93	127
526.7554875283447	526.86	81	127
526.8948299319728	526.9993197278911	81	127
526.8948299319728	526.9993197278911	53	127
526.8948299319728	526.9993197278911	65	127
526.8948299319728	526.9993197278911	96	127
527.0225396825397	527.1270294784581	81	127
527.0225396825397	527.1270294784581	60	127
527.0225396825397	527.1270294784581	96	127
527.0225396825397	527.1270294784581	48	127
527.1618367346939	527.2663492063492	57	127
527.1618367346939	527.2663492063492	81	127
527.1618367346939	527.2663492063492	45	127
527.1618367346939	527.2663492063492	96	127
527.2895691609978	527.4056689342403	48	127
527.2895691609978	527.4056689342403	96	127
527.2895691609978	527.4056689342403	60	127
527.2895691609978	527.4056689342403	81	127
527.4288888888889	527.5449886621316	81	127
527.4288888888889	527.5449886621316	41	127
527.4288888888889	527.5449886621316	53	127
527.4288888888889	527.5449886621316	96	127
527.5798185941043	528.3228571428572	81	127
527.5798185941043	528.3228571428572	96	127
528.3228571428572	529.1703854875284	62	127
528.3228571428572	529.1703854875284	66	127
529.1703854875284	529.9830839002268	61	127
529.1703854875284	529.9830839002268	70	127
529.1703854875284	529.9830839002268	64	127
529.1703854875284	529.9830839002268	67	127
529.9946938775511	530.9583219954649	36	127
530.9699319727891	531.5852607709751	81	127
530.9699319727891	531.5852607709751	84	127
531.5852607709751	532.3863492063492	66	127
532.3863492063492	533.2687074829932	67	127
532.3863492063492	533.2687074829932	61	127
532.3863492063492	533.2687074829932	70	127
532.3863492063492	533.2687074829932	64	127
533.2802947845805	534.0697959183674	36	127
534.0930158730159	534.6735147392291	81	127
534.0930158730159	534.6735147392291	84	127
534.8824943310658	535.4978231292517	66	127
534.8824943310658	535.4978231292517	62	127
534.8824943310658	535.4978231292517	72	127
534.8824943310658	535.4978231292517	62	127
534.8824943310658	535.4978231292517	69	127
535.7184126984127	536.438231292517	55	127
535.7184126984127	536.438231292517	62	127
535.7184126984127	536.438231292517	67	127
535.7184126984127	536.438231292517	70	127
535.7184126984127	536.438231292517	55	127
536.6820408163265	537.3786167800454	70	127
536.6820408163265	537.3786167800454	79	127
536.6820408163265	537.3786167800454	82	127
536.6820408163265	537.3786167800454	49	127
536.6820408163265	537.3786167800454	64	127
536.6820408163265	537.3786167800454	76	127
537.6224489795918	539.352335600907	64	127
537.6224489795918	541.2215419501134	70	127
537.6224489795918	538.8995464852608	72	127
537.6224489795918	541.2215419501134	36	127
537.6224489795918	541.2215419501134	48	127
538.8995464852608	539.352335600907	74	127
539.352335600907	539.7354648526077	76	127
539.352335600907	540.6410204081633	67	127
539.7586848072563	540.1650340136055	77	127
540.1650340136055	540.6410204081633	79	127
540.6410204081633	541.2215419501134	64	127
540.6410204081633	541.2215419501134	81	127
541.2215419501134	542.394149659864	77	127
541.2215419501134	541.6162811791384	69	127
541.2215419501134	541.6162811791384	65	127
541.2215419501134	544.4723356009071	48	127
541.2215419501134	544.4723356009071	41	127
541.6278911564626	542.0110204081633	70	127
541.6278911564626	542.0110204081633	67	127
542.0110204081633	542.394149659864	69	127
542.0110204081633	542.394149659864	72	127
542.394149659864	542.8585487528345	74	127
542.394149659864	542.6031292517007	79	127
542.394149659864	542.8585487528345	70	127
542.6031292517007	542.8585487528345	77	127
542.8701587301588	544.0892063492064	67	127
542.8701587301588	543.0443083900227	76	127
542.8701587301588	544.0892063492064	70	127
543.055918367347	543.2648979591837	77	127
543.322947845805	543.4622675736962	76	127
543.5086848072563	543.6480272108844	77	127
543.7060544217687	543.9034467120182	79	127
543.9034467120182	544.0427664399093	81	127
544.1008163265307	544.4723356009071	64	127
544.1008163265307	544.2285260770975	70	127
544.1008163265307	544.2285260770975	79	127
544.2865759637189	544.4142857142857	81	127
544.2865759637189	544.4142857142857	72	127
544.4723356009071	544.6697052154195	65	127
544.4723356009071	544.6697052154195	69	127
544.4723356009071	546.3995918367347	48	127
544.4723356009071	545.5985034013605	77	127
544.4723356009071	546.3995918367347	41	127
544.6697052154195	544.8090249433106	67	127
544.6697052154195	544.8090249433106	70	127
544.8554648526077	544.9947845804988	65	127
544.8554648526077	544.9947845804988	69	127
545.0412244897959	545.180544217687	70	127
545.0412244897959	545.180544217687	67	127
545.2269841269841	545.4127437641723	69	127
545.2269841269841	545.4127437641723	72	127
545.4243537414966	545.5520408163266	74	127
545.4243537414966	545.5520408163266	70	127
545.6101133786848	545.7610204081633	72	127
545.6101133786848	545.7610204081633	69	127
545.6101133786848	545.8074829931973	79	127
545.8074829931973	545.9468027210885	70	127
545.8074829931973	545.9468027210885	74	127
545.8074829931973	545.9932426303855	77	127
545.9932426303855	546.1906122448979	76	127
545.9932426303855	546.1906122448979	67	127
545.9932426303855	546.1906122448979	70	127
546.1906122448979	546.3531519274377	72	127
546.1906122448979	546.3531519274377	69	127
546.1906122448979	546.3531519274377	77	127
546.3995918367347	546.5389115646259	70	127
546.3995918367347	547.1774603174604	41	127
546.3995918367347	547.1774603174604	48	127
546.3995918367347	546.5389115646259	67	127
546.3995918367347	546.5389115646259	76	127
546.585328798186	546.7362811791384	69	127
546.585328798186	546.7362811791384	72	127
546.585328798186	546.7362811791384	77	127
546.7943083900227	546.9684807256236	70	127
546.7943083900227	546.9684807256236	74	127
546.7943083900227	546.9684807256236	79	127
546.9800680272109	547.1310204081633	76	127
546.9800680272109	547.1310204081633	72	127
546.9800680272109	547.1310204081633	81	127
547.1774603174604	547.9204988662132	41	127
547.1774603174604	547.3167800453515	70	127
547.1774603174604	547.3167800453515	79	127
547.1774603174604	547.3167800453515	74	127
547.1774603174604	547.9204988662132	48	127
547.3632199546486	547.4909297052154	72	127
547.3632199546486	547.4909297052154	81	127
547.3632199546486	547.4909297052154	76	127
547.5373696145125	547.7231292517007	77	127
547.5373696145125	547.7231292517007	69	127
547.5373696145125	547.7231292517007	72	127
547.7231292517007	547.8624489795918	76	127
547.7231292517007	547.8624489795918	79	127
547.7231292517007	547.8624489795918	72	127
547.9321088435374	548.0714285714286	77	127
547.9321088435374	548.0714285714286	72	127
547.9321088435374	548.6867573696145	48	127
547.9321088435374	548.6867573696145	41	127
547.9321088435374	548.0714285714286	69	127
548.1294784580499	548.2571882086168	79	127
548.1294784580499	548.2571882086168	76	127
548.1294784580499	548.2571882086168	72	127
548.3152380952381	548.5009977324263	81	127
548.3152380952381	548.5009977324263	77	127
548.3152380952381	548.4545578231292	72	127
548.5009977324263	548.6403174603174	79	127
548.5009977324263	548.6403174603174	72	127
548.5009977324263	548.6403174603174	82	127
548.6867573696145	549.4181859410431	41	127
548.6867573696145	549.4181859410431	48	127
548.6867573696145	548.8260544217687	72	127
548.6867573696145	548.8260544217687	81	127
548.6867573696145	548.8260544217687	77	127
548.8725170068027	549.0118367346939	82	127
548.8725170068027	549.0118367346939	79	127
548.8725170068027	549.0118367346939	72	127
549.0582766439909	549.2324036281179	76	127
549.0582766439909	549.1859863945579	72	127
549.0582766439909	549.2324036281179	79	127
549.2440136054422	549.371746031746	77	127
549.2440136054422	549.371746031746	81	127
549.2440136054422	549.371746031746	72	127
549.4297732426304	549.5807256235828	76	127
549.4297732426304	549.5807256235828	79	127
549.4297732426304	550.1728344671202	48	127
549.4297732426304	549.5807256235828	72	127
549.4297732426304	550.1728344671202	41	127
549.6387528344671	549.7780952380953	81	127
549.6387528344671	549.7780952380953	72	127
549.6387528344671	549.7780952380953	77	127
549.8245351473923	549.987074829932	82	127
549.8245351473923	549.987074829932	77	127
549.8245351473923	549.987074829932	74	127
549.987074829932	550.1263945578231	76	127
549.987074829932	550.1263945578231	79	127
549.987074829932	550.1263945578231	84	127
550.1728344671202	550.7533333333333	41	127
550.1728344671202	550.3121541950113	77	127
550.1728344671202	550.7533333333333	48	127
550.1728344671202	550.3121541950113	74	127
550.1728344671202	550.3121541950113	82	127
550.3585941043084	550.4979138321995	76	127
550.3585941043084	550.4979138321995	84	127
550.3585941043084	550.4979138321995	79	127
550.5559637188209	550.7533333333333	81	127
550.5559637188209	550.7533333333333	77	127
550.5559637188209	550.7533333333333	77	127
550.7649433106576	550.9042630385487	65	127
550.7649433106576	550.9042630385487	82	127
550.7649433106576	550.9042630385487	69	127
550.7649433106576	550.9042630385487	79	127
550.9971428571429	551.136462585034	69	127
550.9971428571429	551.136462585034	65	127
550.9971428571429	551.136462585034	81	127
550.9971428571429	551.136462585034	77	127
551.1829024943311	551.3222222222222	79	127
551.1829024943311	551.3222222222222	64	127
551.1829024943311	551.3222222222222	82	127
551.1829024943311	551.3222222222222	67	127
551.3686621315193	551.5079818594104	69	127
551.3686621315193	551.5079818594104	84	127
551.3686621315193	551.5079818594104	65	127
551.3686621315193	551.5079818594104	81	127
551.5544217687075	551.6937188208617	82	127
551.5544217687075	551.6937188208617	67	127
551.5544217687075	551.6937188208617	64	127
551.5544217687075	551.6937188208617	86	127
551.7634013605442	551.8910884353742	65	127
551.7634013605442	551.8910884353742	81	127
551.7634013605442	551.8910884353742	69	127
551.7634013605442	551.8910884353742	84	127
551.9491609977324	552.0768707482994	82	127
551.9491609977324	552.0768707482994	64	127
551.9491609977324	552.0768707482994	67	127
551.9491609977324	552.0768707482994	86	127
552.1349206349206	552.2858503401361	81	127
552.1349206349206	552.2858503401361	69	127
552.1349206349206	552.2858503401361	65	127
552.1349206349206	552.2858503401361	84	127
552.3322902494331	552.5064172335601	82	127
552.3322902494331	552.5064172335601	86	127
552.3322902494331	552.5064172335601	65	127
552.3322902494331	552.5064172335601	69	127
552.5528798185941	552.7618594104308	60	127
552.5528798185941	552.7618594104308	81	127
552.5528798185941	552.7618594104308	65	127
552.5528798185941	552.7618594104308	84	127
552.8431292517007	553.0056689342404	82	127
552.8431292517007	553.0056689342404	57	127
552.8431292517007	553.0056689342404	86	127
552.8431292517007	553.0056689342404	60	127
553.0637188208617	553.2030385487528	57	127
553.0637188208617	553.2030385487528	81	127
553.0637188208617	553.2030385487528	84	127
553.0637188208617	553.2030385487528	53	127
553.2610884353742	553.4004081632653	86	127
553.2610884353742	553.4004081632653	82	127
553.2610884353742	553.4004081632653	69	127
553.2610884353742	553.4004081632653	53	127
553.4700680272109	553.6209977324263	81	127
553.4700680272109	553.6209977324263	48	127
553.4700680272109	553.6209977324263	65	127
553.4700680272109	553.6209977324263	84	127
553.6790476190477	553.8531972789116	45	127
553.6790476190477	553.8531972789116	82	127
553.6790476190477	553.8531972789116	60	127
553.6790476190477	553.8531972789116	86	127
553.9112471655329	554.4220861678004	81	127
553.9112471655329	554.4220861678004	57	127
553.9112471655329	554.4220861678004	84	127
553.9112471655329	554.4220861678004	41	127
554.4336961451247	554.8400453514739	48	127
554.4336961451247	554.8400453514739	82	127
554.4336961451247	554.8400453514739	55	127
554.4336961451247	554.8400453514739	86	127
554.4336961451247	554.8400453514739	41	127
554.8516553287982	555.327664399093	88	127
554.8516553287982	555.327664399093	41	127
554.8516553287982	555.327664399093	58	127
554.8516553287982	555.327664399093	48	127
554.8516553287982	555.327664399093	79	127
555.327664399093	555.7920408163266	81	127
555.327664399093	555.7920408163266	89	127
555.327664399093	555.7920408163266	48	127
555.327664399093	555.7920408163266	41	127
555.327664399093	555.7920408163266	57	127
555.7920408163266	556.9646712018141	81	127
555.7920408163266	556.9646712018141	57	127
555.7920408163266	556.9646712018141	48	127
555.7920408163266	556.9646712018141	41	127
555.7920408163266	556.9646712018141	84	127
556.9646712018141	557.1156009070295	52	127
556.9646712018141	557.1156009070295	48	127
556.9646712018141	557.1156009070295	82	127
556.9646712018141	557.1156009070295	41	127
556.9646712018141	557.1156009070295	86	127
557.1736507936508	557.312970521542	41	127
557.1736507936508	557.312970521542	84	127
557.1736507936508	557.312970521542	53	127
557.1736507936508	557.312970521542	48	127
557.1736507936508	557.312970521542	81	127
557.3826303854876	557.5567800453515	50	127
557.3826303854876	558.1488888888889	41	127
557.3826303854876	557.5567800453515	82	127
557.3826303854876	557.5567800453515	77	127
557.3826303854876	558.1488888888889	48	127
557.5683900226758	557.7309297052154	79	127
557.5683900226758	557.7309297052154	84	127
557.5683900226758	557.7309297052154	52	127
557.7773696145125	557.9166893424036	53	127
557.7773696145125	557.9166893424036	72	127
557.7773696145125	557.9166893424036	81	127
557.9631292517007	558.1024489795918	70	127
557.9631292517007	558.1024489795918	52	127
557.9631292517007	558.1024489795918	79	127
558.1488888888889	558.6016780045352	41	127
558.1488888888889	558.6016780045352	48	127
558.1488888888889	558.6016780045352	77	127
558.1488888888889	558.6016780045352	69	127
558.1488888888889	558.6016780045352	53	127
558.636485260771	559.124126984127	76	127
558.636485260771	559.124126984127	86	127
558.636485260771	559.124126984127	48	127
558.636485260771	559.124126984127	43	127
558.636485260771	559.124126984127	58	127
559.1357369614512	560.7263038548753	77	127
559.1357369614512	560.7263038548753	53	127
559.1357369614512	560.7263038548753	84	127
559.1357369614512	560.7263038548753	45	127
559.1357369614512	560.7263038548753	48	127
560.7263038548753	561.1790929705215	74	127
560.7263038548753	561.1790929705215	50	127
560.7263038548753	561.1790929705215	47	127
560.7263038548753	561.1790929705215	86	127
560.7263038548753	561.1790929705215	65	127
561.1790929705215	561.6086621315193	47	127
561.1790929705215	561.6086621315193	88	127
561.1790929705215	561.6086621315193	55	127
561.1790929705215	561.6086621315193	74	127
561.1790929705215	561.6086621315193	65	127
561.6202721088436	562.0846712018141	55	127
561.6202721088436	562.0846712018141	47	127
561.6202721088436	562.0846712018141	74	127
561.6202721088436	562.0846712018141	65	127
561.6202721088436	562.0846712018141	89	127
562.0846712018141	562.5258276643991	74	127
562.0846712018141	562.5258276643991	55	127
562.0846712018141	562.5258276643991	65	127
562.0846712018141	562.5258276643991	47	127
562.0846712018141	562.5258276643991	91	127
562.5258276643991	563.8726077097506	74	127
562.5258276643991	563.8726077097506	55	127
562.5258276643991	563.8726077097506	47	127
562.5258276643991	563.8726077097506	89	127
562.5258276643991	563.8726077097506	65	127
563.8726077097506	564.0119274376417	53	127
563.8726077097506	564.0119274376417	47	127
563.8726077097506	564.0119274376417	55	127
563.8726077097506	564.0119274376417	88	127
563.8726077097506	564.0119274376417	76	127
564.0583673469388	564.1976870748299	86	127
564.0583673469388	564.1976870748299	47	127
564.0583673469388	564.1976870748299	53	127
564.0583673469388	564.1976870748299	55	127
564.0583673469388	564.1976870748299	74	127
564.2673469387755	564.4531065759637	72	127
564.2673469387755	564.4531065759637	84	127
564.2673469387755	564.4531065759637	52	127
564.2673469387755	564.4066666666666	48	127
564.2673469387755	564.4531065759637	55	127
564.464716553288	564.5924263038548	55	127
564.464716553288	564.5924263038548	70	127
564.464716553288	564.5924263038548	86	127
564.464716553288	564.5924263038548	48	127
564.6504761904762	564.7781632653061	60	127
564.6504761904762	564.7781632653061	88	127
564.6504761904762	564.7781632653061	72	127
564.6504761904762	564.7781632653061	48	127
564.8362358276644	564.9871428571429	58	127
564.8362358276644	564.9871428571429	89	127
564.8362358276644	564.9871428571429	74	127
564.8362358276644	564.9871428571429	48	127
565.0336054421768	565.439954648526	58	127
565.0336054421768	565.439954648526	76	127
565.0336054421768	565.439954648526	91	127
565.0336054421768	565.439954648526	48	127
565.439954648526	565.9043537414966	57	127
565.439954648526	565.9043537414966	77	127
565.439954648526	565.9043537414966	48	127
565.439954648526	565.9043537414966	93	127
565.9159637188209	567.1466213151928	76	127
565.9159637188209	567.1466213151928	91	127
565.9159637188209	567.1466213151928	48	127
565.9159637188209	567.1466213151928	58	127
567.158231292517	567.2859410430839	67	127
567.158231292517	567.2859410430839	76	127
567.158231292517	567.2859410430839	64	127
567.158231292517	567.2859410430839	91	127
567.3439909297052	567.4717006802721	89	127
567.3439909297052	567.4717006802721	74	127
567.3439909297052	567.4717006802721	69	127
567.3439909297052	567.4717006802721	65	127
567.5297505668934	567.7155102040816	72	127
567.5297505668934	567.7155102040816	70	127
567.5297505668934	567.7155102040816	67	127
567.5297505668934	567.7155102040816	88	127
567.7155102040816	567.8548072562359	69	127
567.7155102040816	567.8548072562359	74	127
567.7155102040816	567.8548072562359	89	127
567.7155102040816	567.8548072562359	65	127
567.9477097505669	568.1102494331066	67	127
567.9477097505669	568.1102494331066	76	127
567.9477097505669	568.1102494331066	91	127
567.9477097505669	568.1102494331066	64	127
568.1566893424036	568.307619047619	77	127
568.1566893424036	568.307619047619	65	127
568.1566893424036	568.307619047619	62	127
568.1566893424036	568.307619047619	93	127
568.3540589569161	568.7604081632653	79	127
568.3540589569161	568.7604081632653	60	127
568.3540589569161	568.7604081632653	94	127
568.3540589569161	568.7604081632653	64	127
568.7720181405896	569.143537414966	60	127
568.7720181405896	569.143537414966	62	127
568.7720181405896	569.143537414966	81	127
568.7720181405896	569.143537414966	96	127
569.143537414966	573.5785260770975	60	127
569.143537414966	570.3161451247165	79	127
569.143537414966	573.5785260770975	64	127
569.143537414966	570.3161451247165	94	127
570.3161451247165	570.4554648526077	77	127
570.3161451247165	570.4554648526077	93	127
570.5018820861678	570.6760544217688	76	127
570.5018820861678	570.6760544217688	91	127
570.8153741496599	571.0011337868481	89	127
570.8153741496599	571.0011337868481	74	127
571.0127437641723	571.1520634920635	72	127
571.0127437641723	571.1520634920635	88	127
571.1985034013605	571.3494331065759	70	127
571.1985034013605	571.3494331065759	86	127
571.4074829931973	571.5700226757369	84	127
571.4074829931973	571.5700226757369	69	127
571.616462585034	571.9067120181406	82	127
571.616462585034	571.9067120181406	67	127
571.9995918367347	572.1388888888889	81	127
571.9995918367347	572.1388888888889	65	127
572.1853514739229	572.3246712018141	79	127
572.1853514739229	572.3246712018141	64	127
572.3711111111111	572.5917006802721	62	127
572.3711111111111	572.5917006802721	77	127
572.5917006802721	572.7426077097506	60	127
572.5917006802721	572.7426077097506	76	127
572.8006802721088	572.94	74	127
572.8006802721088	572.94	58	127
572.9980498866213	573.1489569160998	72	127
572.9980498866213	573.1489569160998	57	127
573.2186394557823	573.6133786848072	55	127
573.2186394557823	573.6133786848072	70	127
573.6249886621315	573.7642857142857	69	127
573.6249886621315	573.7642857142857	65	127
573.822358276644	573.9732653061225	64	127
573.822358276644	573.9732653061225	67	127
574.0313378684807	574.2403174603174	62	127
574.0313378684807	574.2403174603174	65	127
574.2519274376417	574.4028571428571	64	127
574.2519274376417	574.4028571428571	60	127
574.4725170068027	574.6350566893424	58	127
574.4725170068027	574.6350566893424	62	127
574.6814965986395	574.8324263038548	60	127
574.6814965986395	574.8324263038548	57	127
574.8904761904762	575.2271655328798	58	127
574.8904761904762	575.2271655328798	55	127
575.3548752834467	575.4825850340136	53	127
575.3548752834467	575.4825850340136	60	127
575.3548752834467	575.4825850340136	72	127
575.3548752834467	575.4825850340136	57	127
575.5290249433107	575.6799546485261	55	127
575.5290249433107	575.6799546485261	74	127
575.5290249433107	575.6799546485261	52	127
575.5290249433107	575.6799546485261	62	127
575.7380045351474	575.9005442176871	53	127
575.7380045351474	575.9005442176871	50	127
575.7380045351474	575.9005442176871	76	127
575.7380045351474	575.9005442176871	64	127
575.9005442176871	576.0398639455782	77	127
575.9005442176871	576.0398639455782	52	127
575.9005442176871	576.0398639455782	65	127
575.9005442176871	576.0398639455782	48	127
576.0863038548753	576.2256009070295	79	127
576.0863038548753	576.2256009070295	46	127
576.0863038548753	576.2256009070295	50	127
576.0863038548753	576.2256009070295	67	127
576.2836734693877	576.422970521542	45	127
576.2836734693877	576.422970521542	81	127
576.2836734693877	576.422970521542	48	127
576.2836734693877	576.422970521542	69	127
576.4694331065759	576.8409297052154	48	127
576.4694331065759	576.8409297052154	43	127
576.4694331065759	576.8409297052154	82	127
576.4694331065759	576.8409297052154	70	127
576.8525396825397	577.2124716553288	44	127
576.8525396825397	577.2124716553288	48	127
576.8525396825397	577.2124716553288	71	127
576.8525396825397	577.2124716553288	83	127
577.2124716553288	578.9655782312925	45	127
577.2124716553288	578.9655782312925	53	127
577.2124716553288	578.9655782312925	84	127
577.2124716553288	578.9655782312925	72	127
578.9655782312925	580.6838548752835	53	127
578.9655782312925	580.6838548752835	46	127
578.9655782312925	580.6838548752835	86	127
578.9655782312925	580.6838548752835	74	127
580.7419047619047	581.6126530612245	60	127
580.7419047619047	583.8069160997733	48	127
580.7419047619047	582.0190022675737	69	127
580.7419047619047	582.0190022675737	65	127
581.6126530612245	582.0190022675737	57	127
582.0190022675737	582.4834013605442	53	127
582.0190022675737	582.1234920634921	70	127
582.0190022675737	582.1234920634921	67	127
582.1234920634921	582.2279818594104	69	127
582.1234920634921	582.2279818594104	65	127
582.2279818594104	582.3672789115647	64	127
582.2279818594104	582.3672789115647	67	127
582.3672789115647	582.4834013605442	65	127
582.3672789115647	582.4834013605442	69	127
582.4834013605442	583.1799773242631	67	127
582.4834013605442	583.1799773242631	52	127
582.4834013605442	583.1799773242631	70	127
583.1799773242631	583.354149659864	64	127
583.1799773242631	583.354149659864	67	127
583.1799773242631	583.354149659864	55	127
583.3657596371883	583.574739229025	64	127
583.3657596371883	583.574739229025	58	127
583.3657596371883	583.8069160997733	72	127
583.5979365079365	583.8069160997733	60	127
583.5979365079365	583.8069160997733	55	127
583.8185487528344	584.2248979591836	46	127
583.8185487528344	584.2248979591836	72	127
583.8185487528344	584.0159183673469	52	127
583.8185487528344	584.0159183673469	67	127
584.0159183673469	584.2248979591836	64	127
584.0159183673469	584.2248979591836	48	127
584.2365079365079	585.9780045351474	72	127
584.2365079365079	585.9780045351474	45	127
584.2365079365079	585.9780045351474	69	127
584.2365079365079	585.9780045351474	53	127
585.9780045351474	587.812380952381	65	127
585.9780045351474	587.812380952381	46	127
585.9780045351474	587.3944217687075	74	127
585.9780045351474	587.812380952381	74	127
585.9780045351474	587.812380952381	56	127
587.3944217687075	587.6150113378685	76	127
587.6150113378685	587.812380952381	77	127
587.812380952381	588.7179591836734	77	127
587.812380952381	588.2187301587302	65	127
587.812380952381	588.2187301587302	72	127
587.812380952381	588.2187301587302	48	127
587.812380952381	588.2187301587302	57	127
588.7295691609977	588.8456689342404	77	127
588.8456689342404	588.9733786848072	74	127
588.9733786848072	589.1010657596372	81	127
589.1010657596372	589.2171882086168	77	127
589.2287981859411	589.3448979591836	74	127
589.3448979591836	589.7396371882086	72	127
589.4726077097506	589.6119274376417	65	127
589.6119274376417	589.7396371882086	62	127
589.7512471655328	589.8905668934241	69	127
589.9021768707483	590.0182766439909	65	127
590.0182766439909	590.1924263038549	62	127
590.1924263038549	590.6103854875283	60	127
590.3201360544218	590.4478458049887	41	127
590.3201360544218	590.4478458049887	53	127
590.4710657596372	590.6103854875283	52	127
590.4710657596372	590.6103854875283	38	127
590.6103854875283	590.7613151927437	45	127
590.6103854875283	590.7613151927437	57	127
590.7613151927437	590.900634920635	41	127
590.7613151927437	590.900634920635	53	127
590.900634920635	591.0167346938775	50	127
590.900634920635	591.0167346938775	38	127
591.0283446712018	591.5507936507937	36	127
591.0283446712018	591.5507936507937	48	127
591.5507936507937	592.3866893424037	64	127
591.5507936507937	592.3866893424037	55	127
591.5507936507937	592.3866893424037	58	127
592.1196825396826	592.2473922902494	79	127
592.270612244898	592.3866893424037	76	127
592.3983219954648	592.5144217687075	82	127
592.5144217687075	592.6421315192744	79	127
592.6421315192744	592.758231292517	76	127
592.7698412698413	593.1297505668934	70	127
592.8975510204082	593.0020181405896	67	127
593.0020181405896	593.1297505668934	64	127
593.1297505668934	593.2690702947846	70	127
593.2690702947846	593.3851700680273	67	127
593.3967573696145	593.5360997732427	64	127
593.5360997732427	593.9308390022676	58	127
593.6638095238095	593.814716553288	43	127
593.6638095238095	593.814716553288	55	127
593.814716553288	593.9308390022676	40	127
593.814716553288	593.9308390022676	52	127
593.9424489795919	594.0701587301587	46	127
593.9424489795919	594.0701587301587	58	127
594.0701587301587	594.2443083900226	55	127
594.0701587301587	594.2443083900226	43	127
594.2443083900226	594.3720181405896	40	127
594.2443083900226	594.3720181405896	52	127
594.3720181405896	594.8596371882086	48	127
594.3720181405896	594.8596371882086	36	127
594.8596371882086	595.6839455782313	60	127
594.8596371882086	595.6839455782313	65	127
594.8596371882086	595.6839455782313	57	127
595.405306122449	595.5562358276644	81	127
595.5562358276644	595.6839455782313	77	127
595.6839455782313	595.800045351474	84	127
595.8116553287982	595.9277551020408	81	127
595.9277551020408	596.0438548752835	77	127
596.0438548752835	597.9362811791383	48	127
596.0438548752835	596.1715646258504	72	127
596.1715646258504	596.2876643990929	77	127
596.2992743764172	596.4153741496599	72	127
596.4269841269842	596.5430839002267	81	127
596.5430839002267	596.6940136054421	77	127
596.6940136054421	596.8101133786848	72	127
596.8217233560091	596.9378231292517	69	127
596.949433106576	597.0771201814059	72	127
597.0771201814059	597.2048526077098	69	127
597.2048526077098	597.3325623582766	77	127
597.3325623582766	597.4254421768708	72	127
597.437052154195	597.5647619047619	69	127
597.5647619047619	599.5384353741497	41	127
597.5647619047619	597.7156916099773	65	127
597.7156916099773	597.8201814058957	69	127
597.8201814058957	597.9362811791383	65	127
597.9478911564626	598.3774603174603	50	127
597.9478911564626	598.0639909297053	72	127
598.0639909297053	598.2033106575964	69	127
598.2033106575964	598.3774603174603	65	127
598.3774603174603	598.760589569161	52	127
598.3774603174603	598.493560090703	60	127
598.5051473922903	598.6212698412699	65	127
598.6328798185941	598.760589569161	60	127
598.760589569161	599.1553287981859	53	127
598.760589569161	598.8882993197279	69	127
598.8882993197279	599.0160090702948	65	127
599.0160090702948	599.1553287981859	60	127
599.1669387755102	599.5384353741497	57	127
599.1669387755102	599.2830385487529	69	127
599.1669387755102	601.0709750566893	48	127
599.2830385487529	599.4107482993197	72	127
599.4107482993197	599.5384353741497	69	127
599.5384353741497	599.9099773242631	43	127
599.5384353741497	599.642947845805	77	127
599.6545578231293	599.7706575963718	72	127
599.7706575963718	599.9099773242631	69	127
599.9099773242631	600.3163265306123	45	127
599.9099773242631	600.0609070294785	65	127
600.0609070294785	600.1886167800453	69	127
600.1886167800453	600.3163265306123	65	127
600.3279365079366	600.4440362811791	72	127
600.3279365079366	600.6878458049887	46	127
600.4440362811791	600.5717233560091	69	127
600.5717233560091	600.6878458049887	65	127
600.699455782313	601.0709750566893	64	127
600.699455782313	600.8271655328798	70	127
600.699455782313	602.5686621315193	43	127
600.8387755102041	600.9548752834468	76	127
600.9548752834468	601.0709750566893	70	127
601.0709750566893	601.3960544217687	52	127
601.0709750566893	601.1638321995465	79	127
601.1638321995465	601.2799546485261	76	127
601.2915646258504	601.3960544217687	70	127
601.3960544217687	601.7791609977324	53	127
601.3960544217687	601.5237641723356	67	127
601.5237641723356	601.6514739229025	70	127
601.6514739229025	601.7791609977324	67	127
601.7907709750567	602.1623129251701	55	127
601.7907709750567	601.9068934240363	76	127
601.9068934240363	602.0462131519274	70	127
602.0462131519274	602.1623129251701	67	127
602.1623129251701	604.1127891156463	48	127
602.1623129251701	602.5686621315193	64	127
602.1623129251701	602.2784126984127	64	127
602.290022675737	602.4293424036281	67	127
602.4409523809524	602.5686621315193	64	127
602.5686621315193	602.9169614512472	45	127
602.5686621315193	602.7079818594104	70	127
602.7079818594104	602.824081632653	67	127
602.824081632653	602.9169614512472	64	127
602.9285714285714	603.3233106575964	46	127
602.9285714285714	603.0562811791383	58	127
603.0562811791383	603.172380952381	64	127
603.172380952381	603.3233106575964	58	127
603.3233106575964	603.439410430839	67	127
603.3233106575964	603.6832199546485	48	127
603.4510204081632	603.5555102040817	64	127
603.5555102040817	603.6832199546485	58	127
603.6832199546485	604.1127891156463	72	127
603.6832199546485	604.1127891156463	57	127
603.6832199546485	603.8573696145124	53	127
603.8573696145124	603.9850793650794	57	127
603.9966893424037	604.1127891156463	53	127
604.1243990929705	604.2520861678005	60	127
604.1243990929705	604.542358276644	74	127
604.2520861678005	604.4030385487529	57	127
604.4030385487529	604.542358276644	53	127
604.5887981859411	604.7165079365079	48	127
604.5887981859411	605.0067573696145	76	127
604.7397278911565	604.8674149659864	53	127
604.8674149659864	605.0067573696145	48	127
605.0067573696145	605.1344671201814	57	127
605.0067573696145	605.4014965986395	77	127
605.1344671201814	605.2621541950114	53	127
605.2737641723356	605.4014965986395	48	127
605.4014965986395	607.3751927437642	72	127
605.4014965986395	605.5292063492063	65	127
605.4014965986395	605.8542857142858	60	127
605.4014965986395	605.8542857142858	41	127
605.5292063492063	605.691746031746	69	127
605.691746031746	605.8542857142858	65	127
605.865873015873	606.2374149659864	62	127
605.865873015873	605.9936054421769	72	127
605.9936054421769	606.1097052154195	69	127
606.1097052154195	606.2374149659864	65	127
606.2374149659864	606.6205442176871	64	127
606.2374149659864	606.3651247165533	60	127
606.3767346938776	606.4928117913832	65	127
606.5044444444444	606.6205442176871	60	127
606.6205442176871	606.9920634920635	65	127
606.6205442176871	606.748253968254	69	127
606.748253968254	606.8759637188209	65	127
606.8759637188209	606.9920634920635	60	127
607.0036734693878	607.3751927437642	58	127
607.0036734693878	608.9309297052155	60	127
607.0036734693878	607.1197732426303	43	127
607.1197732426303	607.2474829931973	55	127
607.2474829931973	607.3751927437642	52	127
607.3751927437642	607.4912925170069	58	127
607.3751927437642	607.7351020408163	76	127
607.4912925170069	607.6073922902494	55	127
607.6073922902494	607.7351020408163	52	127
607.7351020408163	608.1298185941043	77	127
607.7351020408163	607.8628117913833	46	127
607.8628117913833	608.0021315192744	52	127
608.0137414965986	608.1298185941043	46	127
608.1414512471655	608.2575510204082	55	127
608.1414512471655	608.4897505668935	79	127
608.2575510204082	608.3736507936508	52	127
608.3736507936508	608.4897505668935	46	127
608.5013605442177	608.9309297052155	43	127
608.5013605442177	608.6174603174603	58	127
608.5013605442177	610.498276643991	72	127
608.6290702947846	608.78	64	127
608.78	608.9309297052155	58	127
608.9309297052155	609.0702494331066	67	127
608.9309297052155	609.348866213152	64	127
609.0702494331066	609.1979591836734	64	127
609.2095691609977	609.348866213152	58	127
609.348866213152	609.7320181405896	65	127
609.348866213152	609.4882086167801	55	127
609.4882086167801	609.6159183673469	58	127
609.6159183673469	609.7320181405896	55	127
609.7436281179139	610.1267573696146	67	127
609.7436281179139	609.8597278911565	64	127
609.8597278911565	609.9990476190476	58	127
609.9990476190476	610.1267573696146	55	127
610.1267573696146	610.498276643991	60	127
610.1267573696146	610.2428571428571	57	127
610.1267573696146	610.2428571428571	45	127
610.2544671201814	610.3705442176871	60	127
610.2544671201814	610.3705442176871	72	127
610.3821541950114	610.498276643991	69	127
610.3821541950114	610.498276643991	57	127
610.498276643991	610.6259863945578	65	127
610.498276643991	610.8697959183673	65	127
610.498276643991	610.8697959183673	77	127
610.498276643991	610.6259863945578	53	127
610.6259863945578	610.7536961451248	57	127
610.6259863945578	610.7536961451248	69	127
610.7536961451248	610.8697959183673	53	127
610.7536961451248	610.8697959183673	65	127
610.8814058956916	611.2645351473923	67	127
610.8814058956916	611.2645351473923	79	127
610.8814058956916	610.9974829931973	48	127
610.8814058956916	610.9974829931973	60	127
610.9974829931973	611.1368253968254	53	127
610.9974829931973	611.1368253968254	65	127
611.1368253968254	611.2645351473923	60	127
611.1368253968254	611.2645351473923	48	127
611.2645351473923	611.380634920635	57	127
611.2645351473923	611.380634920635	45	127
611.2645351473923	611.647664399093	81	127
611.2645351473923	611.647664399093	69	127
611.3922222222222	611.5199546485261	48	127
611.3922222222222	611.5199546485261	60	127
611.5199546485261	611.647664399093	45	127
611.5199546485261	611.647664399093	57	127
611.647664399093	612.0656235827664	60	127
611.647664399093	611.7985714285714	43	127
611.647664399093	612.0656235827664	72	127
611.647664399093	611.7985714285714	55	127
611.7985714285714	611.914693877551	58	127
611.7985714285714	611.914693877551	70	127
611.9263038548753	612.0656235827664	55	127
611.9263038548753	612.0656235827664	67	127
612.0772335600907	612.1933333333334	64	127
612.0772335600907	612.1933333333334	52	127
612.0772335600907	612.4255102040817	79	127
612.0772335600907	612.4255102040817	67	127
612.1933333333334	612.3210430839002	67	127
612.1933333333334	612.3210430839002	55	127
612.3210430839002	612.4255102040817	52	127
612.3210430839002	612.4255102040817	64	127
612.4371428571428	612.8667120181406	69	127
612.4371428571428	612.8667120181406	81	127
612.4371428571428	612.5880725623583	58	127
612.4371428571428	612.5880725623583	46	127
612.5996825396826	612.7157823129252	52	127
612.5996825396826	612.7157823129252	64	127
612.7157823129252	612.8667120181406	46	127
612.7157823129252	612.8667120181406	58	127
612.8667120181406	613.0176417233561	43	127
612.8667120181406	613.284671201814	82	127
612.8667120181406	613.0176417233561	55	127
612.8667120181406	613.284671201814	70	127
613.0176417233561	613.1337414965986	58	127
613.0176417233561	613.1337414965986	43	127
613.1453514739229	613.284671201814	43	127
613.1453514739229	613.284671201814	58	127
613.284671201814	613.412380952381	48	127
613.284671201814	613.412380952381	43	127
613.284671201814	613.412380952381	58	127
613.284671201814	613.7142403628118	84	127
613.284671201814	613.7142403628118	72	127
613.412380952381	613.5633106575964	43	127
613.412380952381	613.5633106575964	58	127
613.412380952381	613.5633106575964	48	127
613.5633106575964	613.7142403628118	58	127
613.5633106575964	613.7142403628118	48	127
613.5633106575964	613.7142403628118	43	127
613.725850340136	614.1554195011338	86	127
613.725850340136	613.8419274376417	58	127
613.725850340136	613.8419274376417	48	127
613.725850340136	613.8419274376417	43	127
613.725850340136	614.1554195011338	74	127
613.8419274376417	614.0044897959184	58	127
613.8419274376417	614.0044897959184	48	127
613.8419274376417	614.0044897959184	43	127
614.0044897959184	614.1554195011338	43	127
614.0044897959184	614.1554195011338	48	127
614.0044897959184	614.1554195011338	58	127
614.1554195011338	614.2714965986395	43	127
614.1554195011338	614.2714965986395	48	127
614.1554195011338	614.5269387755102	88	127
614.1554195011338	614.5269387755102	76	127
614.1554195011338	614.2714965986395	58	127
614.2831292517006	614.3992290249433	48	127
614.2831292517006	614.3992290249433	58	127
614.2831292517006	614.3992290249433	43	127
614.4108390022676	614.5269387755102	58	127
614.4108390022676	614.5269387755102	48	127
614.4108390022676	614.5269387755102	43	127
614.5269387755102	614.9100680272109	77	127
614.5269387755102	614.9100680272109	89	127
614.5269387755102	614.6546485260772	48	127
614.5269387755102	614.6546485260772	43	127
614.5269387755102	614.6546485260772	58	127
614.6546485260772	614.7939682539683	43	127
614.6546485260772	614.7939682539683	48	127
614.6546485260772	614.7939682539683	58	127
614.7939682539683	614.9100680272109	48	127
614.7939682539683	614.9100680272109	58	127
614.7939682539683	614.9100680272109	43	127
614.9216780045351	615.2931746031746	91	127
614.9216780045351	618.7181405895692	43	127
614.9216780045351	618.7181405895692	58	127
614.9216780045351	618.7181405895692	48	127
614.9216780045351	615.2931746031746	79	127
615.2931746031746	615.6879138321996	93	127
615.2931746031746	615.6879138321996	81	127
615.6879138321996	616.1755555555555	82	127
615.6879138321996	616.1755555555555	94	127
616.1871655328798	616.8373242630386	83	127
616.1871655328798	616.8373242630386	95	127
616.8373242630386	618.1492290249433	84	127
616.8373242630386	625.730566893424	96	127
618.1492290249433	619.1709070294785	72	127
618.752947845805	620.4480272108843	48	127
618.752947845805	620.4480272108843	57	127
618.752947845805	620.4480272108843	41	127
619.1825396825396	619.6004988662131	74	127
619.6004988662131	620.0068480725623	76	127
620.0068480725623	620.4480272108843	77	127
620.4480272108843	622.0269614512472	72	127
620.4480272108843	622.0269614512472	48	127
620.4480272108843	622.0269614512472	58	127
620.4480272108843	620.6105442176871	43	127
620.6221768707483	620.738276643991	45	127
620.7498866213152	620.8659863945578	43	127
620.8775963718821	620.9936961451248	41	127
620.9936961451248	621.1214058956916	40	127
621.1214058956916	621.2491156462585	38	127
621.2491156462585	621.3884353741497	36	127
621.3884353741497	621.5161451247166	38	127
621.5161451247166	621.6554648526077	40	127
621.6554648526077	621.7831746031746	41	127
621.7831746031746	621.8992743764172	43	127
621.9108843537415	622.0385714285715	40	127
622.0502040816326	622.328843537415	60	127
622.0502040816326	623.6639682539683	41	127
622.0502040816326	623.6639682539683	57	127
622.0502040816326	623.6639682539683	48	127
622.328843537415	622.4681632653061	62	127
622.5146031746032	622.6539002267574	60	127
622.7119727891156	622.8512698412699	62	127
622.8977324263038	623.083492063492	64	127
623.083492063492	623.2344217687075	65	127
623.2924716553288	623.43179138322	64	127
623.478231292517	623.6175510204082	65	127
623.6755782312925	623.8497505668935	43	127
623.6755782312925	625.730566893424	60	127
623.6755782312925	625.3474376417233	48	127
623.6755782312925	625.3474376417233	58	127
623.8497505668935	623.9774603174603	45	127
623.9774603174603	624.1051700680272	43	127
624.1051700680272	624.2328798185941	41	127
624.2328798185941	624.360589569161	40	127
624.360589569161	624.488276643991	38	127
624.488276643991	624.6160090702948	36	127
624.6276190476191	624.7437188208617	38	127
624.7553287981859	624.8714285714286	40	127
624.8830158730159	624.9991383219955	41	127
625.0107482993197	625.2313378684808	43	127
625.2313378684808	625.3590476190476	40	127
625.3590476190476	630.1307482993197	48	127
625.3590476190476	630.1307482993197	57	127
625.3590476190476	630.142358276644	41	127
625.7653968253968	626.2297959183674	62	127
625.7653968253968	625.9279138321996	94	127
626.0092063492064	626.171746031746	93	127
626.2414058956916	626.6245351473923	64	127
626.2414058956916	626.4271655328798	91	127
626.4271655328798	626.566485260771	89	127
626.6245351473923	626.787074829932	88	127
626.6245351473923	627.0308843537415	65	127
626.8451247165533	626.9844444444444	86	127
627.0308843537415	627.4256235827664	57	127
627.0308843537415	627.4256235827664	84	127
627.4256235827664	627.5533106575964	82	127
627.4256235827664	627.7855328798186	58	127
627.5997732426304	627.7390929705216	81	127
627.7971428571428	628.1686394557823	60	127
627.7971428571428	627.982902494331	79	127
627.982902494331	628.1222222222223	77	127
628.1802721088435	628.3195918367347	76	127
628.1802721088435	628.3660090702948	62	127
628.3660090702948	628.5053514739229	74	127
628.3660090702948	628.5633786848073	64	127
628.5633786848073	630.142358276644	57	127
628.5633786848073	628.9117006802721	72	127
628.5633786848073	630.142358276644	65	127
628.9117006802721	629.0626303854875	70	127
629.1090702947846	629.2483900226757	69	127
629.3064399092971	629.5038095238095	67	127
629.5038095238095	629.6547392290249	65	127
629.7127891156463	629.8753287981859	64	127
629.921768707483	630.0843083900227	62	127
630.142358276644	630.7692970521542	60	127
630.142358276644	630.7692970521542	41	127
630.142358276644	630.7692970521542	65	127
630.142358276644	630.7692970521542	57	127
630.142358276644	630.7692970521542	48	127
630.142358276644	630.7692970521542	57	127
630.978276643991	631.7561451247166	48	127
630.978276643991	631.7561451247166	41	127
630.978276643991	631.7561451247166	60	127
630.978276643991	631.7561451247166	57	127
630.978276643991	631.7561451247166	57	127
630.978276643991	631.7561451247166	65	127
631.9883446712018	633.9620408163265	48	127
631.9883446712018	633.9620408163265	65	127
631.9883446712018	633.9620408163265	41	127
631.9883446712018	633.9620408163265	57	127
631.9883446712018	633.9620408163265	60	127
631.9883446712018	633.9620408163265	57	127
633.9620408163265	634.5773696145125	62	127
633.9620408163265	634.5773696145125	69	127
633.9620408163265	634.5773696145125	65	127
634.7863492063492	635.4597278911565	81	127
634.7863492063492	635.4597278911565	69	127
634.7863492063492	635.4597278911565	65	127
634.7863492063492	635.4597278911565	62	127
635.6803174603175	638.2345124716553	65	127
635.6803174603175	638.2345124716553	69	127
635.6803174603175	638.2345124716553	81	127
635.6803174603175	638.2345124716553	62	127
638.2345124716553	640.0572789115646	72	127
638.2345124716553	640.0572789115646	76	127
638.2345124716553	640.0572789115646	60	127
638.2345124716553	640.0572789115646	84	127
638.2345124716553	640.0572789115646	67	127
640.0572789115646	640.4520181405895	89	127
640.0572789115646	640.4520181405895	72	127
640.0572789115646	640.4520181405895	53	127
640.0572789115646	640.4520181405895	77	127
640.0572789115646	640.4520181405895	69	127
640.99768707483	641.3808163265306	64	127
640.99768707483	641.3808163265306	60	127
640.99768707483	641.3808163265306	70	127
640.99768707483	641.3808163265306	48	127
640.99768707483	641.3808163265306	60	127
640.99768707483	641.3808163265306	67	127
640.99768707483	641.3808163265306	76	127
640.99768707483	641.3808163265306	48	127
642.0657823129252	642.6114739229025	57	127
642.0657823129252	642.6114739229025	41	127
642.0657823129252	642.6114739229025	53	127
642.0657823129252	642.6114739229025	77	127
642.0657823129252	642.6114739229025	69	127
642.0657823129252	642.6114739229025	65	127
647.6850340136054	647.928843537415	65	127
