# onset,offset,note,velocity
0.13854875283446713	0.4868480725623583	46	127
0.5332879818594104	0.6609977324263039	46	127
0.719047619047619	0.9744671201814059	46	127
1.0673469387755101	1.3575963718820863	46	127
1.4504761904761905	1.5781859410430839	46	127
1.624625850340136	1.7639455782312925	46	127
1.8103854875283447	2.0541950113378684	46	127
2.147074829931973	2.3908843537414968	46	127
2.4837641723356008	2.6114512471655327	46	127
2.6579138321995464	2.774013605442177	46	127
2.8436734693877552	2.9597732426303853	46	127
3.0062131519274375	3.122312925170068	46	127
3.1687528344671203	3.3080725623582765	46	127
3.3545124716553287	3.4938321995464854	46	127
3.5518820861678004	4.585170068027211	46	127
4.0859410430839	4.202040816326531	65	127
4.260090702947846	4.364580498866213	70	127
4.411020408163266	4.55031746031746	74	127
4.5967573696145125	4.7128798185941045	72	127
4.759319727891157	4.875419501133787	70	127
4.921859410430839	5.0495691609977325	69	127
5.096009070294785	5.212108843537415	67	127
5.258548752834467	5.374625850340136	69	127
5.409478458049887	5.525578231292517	65	127
5.572018140589569	5.688117913832199	70	127
5.7345578231292516	5.850634920634921	74	127
5.897074829931973	6.396326530612245	77	127
6.396326530612245	6.512426303854875	74	127
6.558866213151927	6.674965986394557	72	127
6.72140589569161	6.837505668934241	69	127
6.883945578231293	7.000045351473923	70	127
7.046485260770975	7.1741950113378685	67	127
7.220634920634921	7.348344671201814	72	127
7.394784580498866	7.534104308390023	64	127
7.580544217687075	8.683492063492064	65	127
8.683492063492064	8.846031746031747	56	127
8.927301587301587	9.05501133786848	56	127
9.101451247165533	9.345238095238095	56	127
9.43814058956916	9.681950113378685	56	127
9.763219954648527	9.89092970521542	56	127
9.937369614512471	10.053469387755102	56	127
10.099909297052154	10.343718820861678	56	127
10.436598639455783	10.69201814058957	56	127
10.784897959183674	10.900975056689342	56	127
10.947437641723356	11.063537414965987	56	127
11.109977324263038	11.237687074829932	56	127
11.284126984126985	11.400226757369614	56	127
11.45827664399093	11.57437641723356	56	127
11.632426303854876	11.76013605442177	56	127
11.818163265306122	12.839863945578232	56	127
12.34063492063492	12.456734693877552	75	127
12.503174603174603	12.630884353741497	80	127
12.677324263038548	12.793424036281179	84	127
12.839863945578232	12.955963718820861	82	127
13.014013605442177	13.118503401360543	80	127
13.164943310657597	13.281043083900228	79	127
13.327482993197279	13.44358276643991	77	127
13.501632653061224	13.617732426303855	79	127
13.664172335600908	13.780272108843537	75	127
13.815102040816326	13.931201814058957	80	127
13.989251700680272	14.070521541950113	84	127
14.116961451247166	14.616190476190477	87	127
14.616190476190477	14.732290249433106	84	127
14.77873015873016	14.906439909297053	82	127
14.952879818594104	15.068979591836735	79	127
15.115419501133786	15.24312925170068	80	127
15.289569160997733	15.405668934240364	77	127
15.452108843537415	15.568208616780046	82	127
15.62625850340136	15.753968253968255	74	127
15.812018140589569	16.926575963718822	75	127
16.938185941043084	17.065895691609978	59	127
16.938185941043084	17.065895691609978	63	127
17.11233560090703	17.472244897959182	59	127
17.11233560090703	17.472244897959182	63	127
17.518684807256236	17.774104308390022	63	127
17.518684807256236	17.774104308390022	59	127
17.87859410430839	18.122403628117915	63	127
17.87859410430839	18.122403628117915	59	127
18.215283446712018	18.33138321995465	63	127
18.215283446712018	18.33138321995465	71	127
18.215283446712018	18.33138321995465	59	127
18.377823129251702	18.49390022675737	59	127
18.377823129251702	18.49390022675737	71	127
18.377823129251702	18.49390022675737	63	127
18.551972789115645	18.80736961451247	63	127
18.551972789115645	18.80736961451247	71	127
18.551972789115645	18.80736961451247	59	127
18.900272108843538	19.144081632653062	59	127
18.900272108843538	19.144081632653062	71	127
18.900272108843538	19.144081632653062	63	127
19.236961451247165	19.353061224489796	59	127
19.236961451247165	19.353061224489796	78	127
19.236961451247165	19.353061224489796	71	127
19.236961451247165	19.353061224489796	63	127
19.39950113378685	19.527210884353742	78	127
19.39950113378685	19.527210884353742	71	127
19.39950113378685	19.527210884353742	63	127
19.39950113378685	19.527210884353742	59	127
19.57362811791383	19.79424036281179	63	127
19.57362811791383	19.79424036281179	78	127
19.57362811791383	19.79424036281179	71	127
19.57362811791383	19.79424036281179	59	127
19.875510204081632	20.119319727891156	78	127
19.875510204081632	20.119319727891156	59	127
19.875510204081632	20.119319727891156	63	127
19.875510204081632	20.119319727891156	71	127
20.200589569160996	20.293469387755103	59	127
20.200589569160996	20.293469387755103	78	127
20.200589569160996	20.293469387755103	71	127
20.200589569160996	20.293469387755103	63	127
20.339909297052156	20.46761904761905	78	127
20.339909297052156	20.46761904761905	71	127
20.339909297052156	20.46761904761905	63	127
20.339909297052156	20.46761904761905	59	127
20.5140589569161	20.606938775510205	59	127
20.5140589569161	20.606938775510205	78	127
20.5140589569161	20.606938775510205	71	127
20.5140589569161	20.606938775510205	63	127
20.63015873015873	20.7346485260771	78	127
20.63015873015873	20.7346485260771	71	127
20.63015873015873	20.7346485260771	63	127
20.63015873015873	20.7346485260771	59	127
20.74625850340136	20.85074829931973	78	127
20.74625850340136	20.85074829931973	71	127
20.74625850340136	20.85074829931973	63	127
20.74625850340136	20.85074829931973	59	127
20.908798185941045	20.990068027210885	59	127
20.908798185941045	20.990068027210885	63	127
20.908798185941045	20.990068027210885	71	127
20.908798185941045	20.990068027210885	78	127
21.0481179138322	22.9637641723356	60	127
21.0481179138322	22.9637641723356	77	127
21.0481179138322	22.9637641723356	69	127
21.0481179138322	22.9637641723356	63	127
23.021814058956917	23.370113378684806	74	127
23.021814058956917	23.370113378684806	70	127
23.021814058956917	23.370113378684806	65	127
23.021814058956917	23.370113378684806	58	127
23.370113378684806	23.69517006802721	53	127
23.370113378684806	23.69517006802721	72	127
23.370113378684806	23.69517006802721	69	127
23.370113378684806	23.69517006802721	63	127
23.706802721088437	24.02027210884354	70	127
23.706802721088437	24.02027210884354	55	127
23.706802721088437	24.02027210884354	62	127
23.706802721088437	24.02027210884354	67	127
24.0318820861678	24.36857142857143	51	127
24.0318820861678	24.275691609977326	55	127
24.0318820861678	24.36857142857143	67	127
24.0318820861678	24.275691609977326	75	127
24.275691609977326	24.36857142857143	60	127
24.275691609977326	24.36857142857143	72	127
24.36857142857143	24.68204081632653	53	127
24.36857142857143	24.68204081632653	70	127
24.36857142857143	24.68204081632653	65	127
24.36857142857143	24.68204081632653	62	127
24.693650793650793	25.041950113378686	69	127
24.693650793650793	25.041950113378686	51	127
24.693650793650793	25.041950113378686	60	127
24.693650793650793	25.041950113378686	63	127
25.05356009070295	25.425079365079366	50	127
25.05356009070295	25.425079365079366	77	127
25.05356009070295	25.425079365079366	65	127
25.05356009070295	25.425079365079366	58	127
25.44829931972789	25.773378684807255	75	127
25.44829931972789	25.773378684807255	63	127
25.44829931972789	25.773378684807255	57	127
25.44829931972789	25.773378684807255	48	127
25.773378684807255	26.168117913832198	46	127
25.773378684807255	26.168117913832198	74	127
25.773378684807255	26.168117913832198	62	127
25.773378684807255	26.168117913832198	58	127
26.179727891156464	26.43514739229025	79	127
26.179727891156464	26.43514739229025	67	127
26.179727891156464	26.43514739229025	63	127
26.179727891156464	26.528027210884353	39	127
26.43514739229025	26.539637188208616	75	127
26.43514739229025	26.539637188208616	63	127
26.43514739229025	26.539637188208616	60	127
26.539637188208616	26.876326530612246	74	127
26.539637188208616	26.876326530612246	41	127
26.539637188208616	26.876326530612246	58	127
26.539637188208616	26.876326530612246	62	127
26.876326530612246	27.18979591836735	39	127
26.876326530612246	27.18979591836735	72	127
26.876326530612246	27.18979591836735	60	127
26.876326530612246	27.18979591836735	57	127
27.20140589569161	27.514875283446713	65	127
27.20140589569161	27.526485260770976	77	127
27.20140589569161	27.526485260770976	38	127
27.20140589569161	27.526485260770976	58	127
27.526485260770976	27.607755102040816	62	127
27.526485260770976	27.607755102040816	74	127
27.526485260770976	27.607755102040816	65	127
27.526485260770976	27.607755102040816	46	127
27.607755102040816	27.898004535147393	51	127
27.607755102040816	27.898004535147393	72	127
27.607755102040816	27.898004535147393	67	127
27.607755102040816	27.898004535147393	55	127
28.757142857142856	29.175102040816327	60	127
28.757142857142856	29.175102040816327	69	127
28.757142857142856	29.175102040816327	63	127
28.757142857142856	29.175102040816327	53	127
29.56984126984127	29.6859410430839	62	127
29.56984126984127	29.6859410430839	70	127
29.56984126984127	29.6859410430839	53	127
29.56984126984127	29.6859410430839	58	127
29.56984126984127	29.6859410430839	46	127
29.732380952380954	29.860090702947847	62	127
29.732380952380954	29.860090702947847	70	127
29.732380952380954	29.860090702947847	58	127
29.732380952380954	29.860090702947847	53	127
29.732380952380954	29.860090702947847	46	127
29.906530612244897	30.17356009070295	46	127
29.906530612244897	30.17356009070295	62	127
29.906530612244897	30.17356009070295	70	127
29.906530612244897	30.17356009070295	58	127
29.906530612244897	30.17356009070295	53	127
30.312879818594105	30.55668934240363	53	127
30.312879818594105	30.55668934240363	62	127
30.312879818594105	30.55668934240363	70	127
30.312879818594105	30.55668934240363	58	127
30.312879818594105	30.55668934240363	46	127
30.649569160997732	30.80049886621315	53	127
30.649569160997732	30.80049886621315	62	127
30.649569160997732	30.80049886621315	70	127
30.649569160997732	30.80049886621315	58	127
30.649569160997732	30.80049886621315	46	127
30.858548752834466	30.974648526077097	46	127
30.858548752834466	30.974648526077097	62	127
30.858548752834466	30.974648526077097	70	127
30.858548752834466	30.974648526077097	58	127
30.858548752834466	30.974648526077097	53	127
31.02108843537415	31.276507936507937	46	127
31.02108843537415	31.276507936507937	62	127
31.02108843537415	31.276507936507937	70	127
31.02108843537415	31.276507936507937	58	127
31.02108843537415	31.276507936507937	53	127
31.36938775510204	31.624807256235826	53	127
31.36938775510204	31.624807256235826	62	127
31.36938775510204	31.624807256235826	70	127
31.36938775510204	31.624807256235826	58	127
31.36938775510204	31.624807256235826	46	127
31.729297052154195	31.949886621315194	53	127
31.729297052154195	31.949886621315194	62	127
31.729297052154195	31.949886621315194	70	127
31.729297052154195	31.949886621315194	58	127
31.729297052154195	31.949886621315194	46	127
31.996326530612244	32.112426303854875	53	127
31.996326530612244	32.112426303854875	62	127
31.996326530612244	32.112426303854875	70	127
31.996326530612244	32.112426303854875	58	127
31.996326530612244	32.112426303854875	46	127
32.15884353741497	32.274965986394555	58	127
32.15884353741497	32.274965986394555	53	127
32.15884353741497	32.274965986394555	46	127
32.15884353741497	32.274965986394555	70	127
32.15884353741497	32.274965986394555	62	127
32.32140589569161	32.47233560090703	46	127
32.32140589569161	32.47233560090703	62	127
32.32140589569161	32.47233560090703	70	127
32.32140589569161	32.47233560090703	58	127
32.32140589569161	32.47233560090703	53	127
32.51877551020408	32.63487528344671	53	127
32.51877551020408	32.63487528344671	62	127
32.51877551020408	32.63487528344671	70	127
32.51877551020408	32.63487528344671	58	127
32.51877551020408	32.63487528344671	46	127
32.68131519274377	32.797392290249434	53	127
32.68131519274377	32.797392290249434	62	127
32.68131519274377	32.797392290249434	70	127
32.68131519274377	32.797392290249434	58	127
32.68131519274377	32.797392290249434	46	127
32.84385487528345	33.85392290249433	65	127
32.84385487528345	33.85392290249433	86	127
32.84385487528345	33.85392290249433	70	127
32.84385487528345	33.85392290249433	58	127
33.865532879818595	34.00485260770975	45	127
33.865532879818595	34.00485260770975	62	127
33.865532879818595	34.00485260770975	72	127
33.865532879818595	34.00485260770975	60	127
33.865532879818595	34.00485260770975	54	127
34.062879818594105	34.17900226757369	45	127
34.062879818594105	34.17900226757369	62	127
34.062879818594105	34.17900226757369	72	127
34.062879818594105	34.17900226757369	60	127
34.062879818594105	34.17900226757369	54	127
34.248662131519275	34.37637188208617	54	127
34.248662131519275	34.37637188208617	62	127
34.248662131519275	34.37637188208617	72	127
34.248662131519275	34.37637188208617	60	127
34.248662131519275	34.37637188208617	45	127
34.42281179138322	34.52730158730159	62	127
34.42281179138322	34.52730158730159	45	127
34.42281179138322	34.52730158730159	72	127
34.42281179138322	34.52730158730159	60	127
34.42281179138322	34.52730158730159	54	127
34.57371882086168	34.678231292517005	60	127
34.57371882086168	34.678231292517005	62	127
34.57371882086168	34.678231292517005	72	127
34.57371882086168	34.678231292517005	54	127
34.57371882086168	34.678231292517005	45	127
34.72467120181406	34.852380952380955	45	127
34.72467120181406	34.852380952380955	62	127
34.72467120181406	34.852380952380955	72	127
34.72467120181406	34.852380952380955	60	127
34.72467120181406	34.852380952380955	54	127
34.898820861678004	35.827619047619045	66	127
34.898820861678004	35.827619047619045	86	127
34.898820861678004	35.827619047619045	72	127
34.898820861678004	35.827619047619045	57	127
35.83920634920635	35.95532879818594	67	127
35.83920634920635	35.95532879818594	70	127
36.001768707482995	36.117868480725626	67	127
36.001768707482995	36.117868480725626	70	127
36.17591836734694	36.29201814058957	67	127
36.17591836734694	36.29201814058957	70	127
36.33843537414966	36.45455782312925	67	127
36.33843537414966	36.45455782312925	70	127
36.500997732426306	36.61709750566894	67	127
36.500997732426306	36.61709750566894	70	127
36.67514739229025	36.79124716553288	67	127
36.67514739229025	36.79124716553288	70	127
36.83768707482993	36.95378684807256	76	127
36.83768707482993	36.95378684807256	73	127
37.00022675736962	37.081496598639454	73	127
37.00022675736962	37.081496598639454	76	127
37.11632653061225	37.232403628117915	73	127
37.11632653061225	37.232403628117915	76	127
37.27886621315193	37.3833560090703	76	127
37.27886621315193	37.3833560090703	73	127
37.418185941043085	37.54589569160998	73	127
37.418185941043085	37.54589569160998	76	127
37.580725623582765	37.696825396825396	73	127
37.580725623582765	37.696825396825396	76	127
37.731632653061226	37.847755102040814	61	127
37.731632653061226	37.847755102040814	64	127
37.90580498866213	38.021904761904764	61	127
37.90580498866213	38.021904761904764	64	127
38.068344671201814	38.184444444444445	61	127
38.068344671201814	38.184444444444445	64	127
38.230884353741494	38.33537414965986	61	127
38.230884353741494	38.33537414965986	64	127
38.39342403628118	38.50952380952381	61	127
38.39342403628118	38.50952380952381	64	127
38.55596371882086	38.69528344671202	64	127
38.55596371882086	38.69528344671202	61	127
38.74172335600907	38.8578231292517	45	127
38.91587301587302	39.02036281179139	45	127
39.066802721088436	39.171292517006805	45	127
39.217732426303854	39.34544217687075	45	127
39.39185941043084	39.51956916099773	45	127
39.57764172335601	39.716961451247165	45	127
39.77498866213152	39.89108843537415	62	127
39.77498866213152	40.100090702947846	62	127
39.77498866213152	39.89108843537415	65	127
39.77498866213152	40.100090702947846	38	127
39.937551020408165	40.053650793650796	62	127
39.937551020408165	40.053650793650796	65	127
40.100090702947846	40.262630385487526	65	127
40.100090702947846	40.262630385487526	62	127
40.29746031746032	40.401927437641724	65	127
40.29746031746032	40.401927437641724	69	127
40.29746031746032	40.401927437641724	62	127
40.436780045351476	40.55287981859411	65	127
40.436780045351476	40.55287981859411	74	127
40.436780045351476	40.55287981859411	62	127
40.59931972789116	40.72702947845805	65	127
40.59931972789116	40.72702947845805	77	127
40.59931972789116	40.72702947845805	62	127
40.7734693877551	40.88956916099773	64	127
40.7734693877551	40.88956916099773	67	127
40.7734693877551	40.924399092970525	77	127
40.924399092970525	41.086938775510205	76	127
40.924399092970525	41.04047619047619	67	127
40.924399092970525	41.04047619047619	64	127
41.09854875283447	41.2146485260771	67	127
41.09854875283447	41.2146485260771	64	127
41.09854875283447	41.249478458049886	76	127
41.26108843537415	41.37718820861678	67	127
41.26108843537415	41.37718820861678	64	127
41.34235827664399	41.400408163265304	74	127
41.42360544217687	41.5397052154195	64	127
41.42360544217687	41.5397052154195	67	127
41.42360544217687	41.58616780045352	73	127
41.59777777777778	41.71387755102041	64	127
41.59777777777778	41.71387755102041	67	127
41.67902494331066	41.737097505668935	70	127
41.76031746031746	41.86480725623583	69	127
41.76031746031746	42.03895691609977	74	127
41.76031746031746	41.86480725623583	65	127
41.899637188208615	42.004126984126984	69	127
41.899637188208615	42.004126984126984	65	127
41.899637188208615	42.004126984126984	57	127
42.050544217687076	42.166666666666664	65	127
42.050544217687076	42.166666666666664	69	127
42.050544217687076	42.35242630385488	77	127
42.050544217687076	42.166666666666664	53	127
42.21310657596372	42.30596371882086	69	127
42.21310657596372	42.30596371882086	50	127
42.21310657596372	42.30596371882086	65	127
42.35242630385488	42.48013605442177	45	127
42.35242630385488	42.48013605442177	69	127
42.35242630385488	42.48013605442177	65	127
42.35242630385488	42.840045351473925	81	127
42.52657596371882	42.63106575963719	65	127
42.52657596371882	42.63106575963719	41	127
42.52657596371882	42.63106575963719	69	127
42.67750566893424	43.002585034013606	43	127
42.67750566893424	42.79360544217687	70	127
42.67750566893424	42.79360544217687	64	127
42.840045351473925	42.96775510204082	70	127
42.840045351473925	42.96775510204082	64	127
42.840045351473925	43.002585034013606	79	127
43.01419501133787	43.3508843537415	55	127
43.01419501133787	43.1302947845805	70	127
43.01419501133787	43.1302947845805	64	127
43.01419501133787	43.17673469387755	79	127
43.17673469387755	43.29283446712018	70	127
43.17673469387755	43.29283446712018	64	127
43.25800453514739	43.31603174603175	77	127
43.36249433106576	43.68757369614512	56	127
43.36249433106576	43.47859410430839	71	127
43.36249433106576	43.47859410430839	64	127
43.36249433106576	43.51342403628118	76	127
43.52503401360544	43.64113378684807	71	127
43.52503401360544	43.64113378684807	64	127
43.606303854875286	43.6643537414966	74	127
43.68757369614512	43.8849433106576	74	127
43.68757369614512	44.04748299319728	64	127
43.68757369614512	44.04748299319728	69	127
43.68757369614512	44.04748299319728	57	127
43.8849433106576	44.05909297052154	73	127
44.05909297052154	44.17519274376417	73	127
44.22163265306123	44.337709750566894	74	127
44.39578231292517	44.5118820861678	76	127
44.55832199546485	44.744081632653064	62	127
44.55832199546485	44.69764172335601	70	127
44.55832199546485	44.744081632653064	65	127
44.744081632653064	45.0459410430839	64	127
44.744081632653064	44.89501133786848	70	127
44.744081632653064	45.0459410430839	61	127
44.89501133786848	45.05755102040816	69	127
45.05755102040816	45.17365079365079	69	127
45.220068027210885	45.336190476190474	68	127
45.38263038548753	45.49873015873016	69	127
45.55678004535147	45.742539682539686	50	127
45.55678004535147	45.69609977324263	68	127
45.55678004535147	45.742539682539686	46	127
45.75414965986395	46.11403628117914	49	127
45.75414965986395	45.85861678004535	69	127
45.75414965986395	46.11403628117914	45	127
45.90507936507937	46.04439909297052	70	127
46.11403628117914	46.24174603174603	69	127
46.28820861678005	46.4275283446712	70	127
46.48555555555556	46.601678004535145	69	127
46.659727891156464	46.78743764172336	70	127
46.83387755102041	47.855555555555554	65	127
46.83387755102041	47.100907029478456	69	127
46.83387755102041	47.855555555555554	62	127
47.19378684807256	47.507233560090704	69	127
47.51886621315193	47.61174603174603	71	127
47.61174603174603	47.693015873015874	72	127
47.693015873015874	47.78589569160998	69	127
47.78589569160998	47.86716553287982	71	127
47.86716553287982	48.308344671201816	60	127
47.86716553287982	48.1574149659864	72	127
47.86716553287982	48.308344671201816	64	127
47.86716553287982	48.308344671201816	60	127
48.1574149659864	48.48249433106576	72	127
48.308344671201816	48.49410430839002	64	127
48.308344671201816	48.49410430839002	67	127
48.308344671201816	48.49410430839002	58	127
48.49410430839002	48.6566439909297	57	127
48.49410430839002	48.6566439909297	65	127
48.49410430839002	48.6566439909297	62	127
48.49410430839002	48.8772335600907	72	127
48.6566439909297	48.8772335600907	55	127
48.6566439909297	48.8772335600907	70	127
48.6566439909297	48.8772335600907	64	127
48.8772335600907	49.388072562358275	72	127
48.8772335600907	49.55061224489796	69	127
48.8772335600907	49.55061224489796	65	127
48.8772335600907	49.55061224489796	53	127
49.388072562358275	49.562222222222225	73	127
49.562222222222225	49.74798185941043	65	127
49.562222222222225	49.74798185941043	74	127
49.562222222222225	49.74798185941043	69	127
49.562222222222225	49.74798185941043	53	127
49.74798185941043	49.91052154195011	62	127
49.74798185941043	49.91052154195011	70	127
49.74798185941043	49.91052154195011	67	127
49.74798185941043	49.91052154195011	55	127
49.91052154195011	50.270430839002266	61	127
49.91052154195011	50.270430839002266	69	127
49.91052154195011	50.270430839002266	64	127
49.91052154195011	50.444580498866216	57	127
50.28204081632653	50.61873015873016	61	127
50.28204081632653	50.61873015873016	69	127
50.28204081632653	50.61873015873016	64	127
50.444580498866216	50.63034013605442	55	127
50.63034013605442	51.00185941043084	61	127
50.63034013605442	50.804489795918364	53	127
50.63034013605442	51.00185941043084	69	127
50.63034013605442	51.00185941043084	64	127
50.804489795918364	51.00185941043084	52	127
51.00185941043084	51.71006802721089	69	127
51.00185941043084	51.37337868480726	62	127
51.00185941043084	51.71006802721089	65	127
51.00185941043084	52.069977324263036	50	127
51.38498866213152	51.71006802721089	57	127
51.72167800453515	51.77972789115646	59	127
51.72167800453515	52.244126984126986	77	127
51.77972789115646	51.83777777777778	60	127
51.83777777777778	51.89582766439909	59	127
51.89582766439909	51.97709750566894	57	127
51.97709750566894	52.069977324263036	59	127
52.069977324263036	52.58081632653061	48	127
52.069977324263036	52.395056689342404	60	127
52.244126984126986	52.406666666666666	74	127
52.406666666666666	52.789795918367346	72	127
52.406666666666666	52.58081632653061	76	127
52.406666666666666	52.789795918367346	60	127
52.58081632653061	52.789795918367346	79	127
52.58081632653061	52.789795918367346	46	127
52.789795918367346	53.1497052154195	72	127
52.789795918367346	52.98716553287982	77	127
52.789795918367346	52.98716553287982	45	127
52.789795918367346	53.1497052154195	60	127
52.98716553287982	53.161315192743764	82	127
52.98716553287982	53.161315192743764	43	127
53.161315192743764	53.660544217687075	72	127
53.161315192743764	53.323854875283445	81	127
53.161315192743764	53.660544217687075	60	127
53.161315192743764	53.83469387755102	41	127
53.323854875283445	53.498004535147395	76	127
53.498004535147395	53.67215419501134	77	127
53.67215419501134	53.83469387755102	73	127
53.67215419501134	54.02045351473923	69	127
53.67215419501134	54.02045351473923	57	127
53.83469387755102	54.02045351473923	74	127
53.83469387755102	54.02045351473923	41	127
54.02045351473923	54.22943310657596	55	127
54.02045351473923	54.24104308390023	43	127
54.02045351473923	54.22943310657596	62	127
54.02045351473923	54.24104308390023	70	127
54.24104308390023	54.751882086167804	52	127
54.24104308390023	54.751882086167804	45	127
54.24104308390023	54.56612244897959	69	127
54.24104308390023	54.751882086167804	61	127
54.577732426303854	54.92603174603175	69	127
54.763492063492066	54.92603174603175	57	127
54.763492063492066	54.93764172335601	43	127
54.763492063492066	54.93764172335601	61	127
54.93764172335601	55.11179138321995	41	127
54.93764172335601	55.11179138321995	57	127
54.93764172335601	55.27433106575964	69	127
54.93764172335601	55.11179138321995	62	127
55.11179138321995	55.2859410430839	61	127
55.11179138321995	55.2859410430839	64	127
55.11179138321995	55.2859410430839	40	127
55.2859410430839	55.40204081632653	65	127
55.2859410430839	55.796780045351476	38	127
55.2859410430839	55.40204081632653	69	127
55.2859410430839	55.40204081632653	62	127
55.44848072562358	55.576190476190476	64	127
55.44848072562358	55.576190476190476	69	127
55.44848072562358	55.576190476190476	61	127
55.63424036281179	56.74879818594104	65	127
55.63424036281179	56.74879818594104	69	127
55.63424036281179	56.74879818594104	62	127
55.80839002267574	55.947709750566894	45	127
55.99414965986394	56.74879818594104	50	127
56.74879818594104	56.92294784580499	64	127
56.74879818594104	56.92294784580499	45	127
56.74879818594104	56.92294784580499	69	127
56.74879818594104	56.92294784580499	61	127
56.96938775510204	57.097097505668934	65	127
56.96938775510204	57.097097505668934	38	127
56.96938775510204	57.097097505668934	69	127
56.96938775510204	57.097097505668934	62	127
57.143537414965984	57.909795918367344	45	127
57.143537414965984	57.909795918367344	69	127
57.143537414965984	57.909795918367344	64	127
57.143537414965984	57.909795918367344	61	127
57.909795918367344	58.03750566893424	38	127
57.909795918367344	58.03750566893424	57	127
57.909795918367344	58.03750566893424	69	127
57.909795918367344	58.03750566893424	62	127
57.909795918367344	58.03750566893424	62	127
58.083945578231294	58.23487528344671	64	127
58.083945578231294	58.23487528344671	61	127
58.083945578231294	58.23487528344671	45	127
58.083945578231294	58.23487528344671	57	127
58.083945578231294	58.23487528344671	69	127
58.083945578231294	58.23487528344671	67	127
58.292925170068024	59.0243537414966	65	127
58.292925170068024	59.0243537414966	50	127
58.292925170068024	59.0243537414966	57	127
58.292925170068024	59.0243537414966	69	127
58.292925170068024	59.0243537414966	62	127
59.0243537414966	59.15206349206349	61	127
59.0243537414966	59.15206349206349	45	127
59.0243537414966	59.15206349206349	57	127
59.0243537414966	59.15206349206349	69	127
59.0243537414966	59.15206349206349	67	127
59.0243537414966	59.15206349206349	64	127
59.21011337868481	59.3378231292517	38	127
59.21011337868481	59.3378231292517	65	127
59.21011337868481	59.3378231292517	69	127
59.21011337868481	59.3378231292517	57	127
59.21011337868481	59.3378231292517	62	127
59.395873015873015	59.82544217687075	45	127
59.395873015873015	60.220181405895694	69	127
59.395873015873015	59.82544217687075	64	127
59.395873015873015	59.82544217687075	61	127
59.395873015873015	60.220181405895694	57	127
59.837052154195014	60.220181405895694	62	127
59.837052154195014	60.220181405895694	38	127
59.837052154195014	60.220181405895694	65	127
60.23179138321996	61.49727891156463	55	127
60.23179138321996	61.49727891156463	63	127
60.23179138321996	61.49727891156463	67	127
60.23179138321996	61.485668934240366	58	127
60.23179138321996	61.485668934240366	39	127
61.5669387755102	61.92684807256236	55	127
61.5669387755102	61.92684807256236	64	127
61.5669387755102	61.92684807256236	61	127
61.5669387755102	61.92684807256236	45	127
61.93845804988662	62.27514739229025	53	127
61.93845804988662	62.27514739229025	65	127
61.93845804988662	62.27514739229025	62	127
61.93845804988662	62.27514739229025	38	127
62.28675736961451	62.58861678004535	50	127
62.28675736961451	62.58861678004535	62	127
62.28675736961451	62.58861678004535	50	127
62.58861678004535	62.70471655328798	58	127
62.58861678004535	62.70471655328798	67	127
62.58861678004535	62.70471655328798	65	127
62.58861678004535	62.70471655328798	51	127
62.71632653061224	63.23877551020408	65	127
62.71632653061224	64.08630385487528	51	127
62.71632653061224	64.09791383219955	55	127
62.71632653061224	64.09791383219955	67	127
62.71632653061224	64.09791383219955	58	127
63.25038548752835	64.09791383219955	63	127
64.1443537414966	64.49265306122449	45	127
64.1443537414966	64.49265306122449	64	127
64.1443537414966	64.49265306122449	61	127
64.1443537414966	64.49265306122449	55	127
64.50426303854876	64.86417233560091	53	127
64.50426303854876	64.86417233560091	65	127
64.50426303854876	64.86417233560091	62	127
64.50426303854876	64.86417233560091	50	127
64.86417233560091	65.01510204081633	62	127
64.86417233560091	65.01510204081633	50	127
64.86417233560091	65.01510204081633	38	127
65.02671201814059	65.2124716553288	62	127
65.02671201814059	65.2124716553288	38	127
65.02671201814059	65.2124716553288	50	127
65.2124716553288	65.58396825396825	62	127
65.2124716553288	65.58396825396825	38	127
65.2124716553288	65.58396825396825	50	127
65.59560090702948	65.9438775510204	62	127
65.59560090702948	65.9438775510204	50	127
65.59560090702948	65.9438775510204	38	127
65.95551020408163	66.11804988662132	38	127
65.95551020408163	66.11804988662132	62	127
65.95551020408163	66.11804988662132	50	127
66.12965986394558	66.29219954648526	50	127
66.12965986394558	66.29219954648526	62	127
66.12965986394558	66.29219954648526	38	127
66.29219954648526	66.6869387755102	50	127
66.29219954648526	66.6869387755102	62	127
66.29219954648526	66.6869387755102	38	127
66.69854875283447	67.08167800453515	50	127
66.69854875283447	67.08167800453515	62	127
66.69854875283447	67.08167800453515	38	127
67.09326530612245	67.25582766439909	50	127
67.09326530612245	67.25582766439909	62	127
67.09326530612245	67.25582766439909	38	127
67.26743764172336	67.42997732426304	50	127
67.26743764172336	67.42997732426304	62	127
67.26743764172336	67.42997732426304	38	127
67.42997732426304	67.61573696145125	50	127
67.42997732426304	67.61573696145125	38	127
67.42997732426304	67.61573696145125	62	127
67.62734693877552	67.80149659863946	38	127
67.62734693877552	67.80149659863946	62	127
67.62734693877552	67.80149659863946	50	127
67.81310657596372	67.9756462585034	38	127
67.81310657596372	67.9756462585034	62	127
67.81310657596372	67.9756462585034	50	127
67.9872335600907	68.16140589569162	38	127
67.9872335600907	68.16140589569162	62	127
67.9872335600907	68.16140589569162	50	127
68.17301587301587	69.27596371882086	38	127
68.17301587301587	69.27596371882086	62	127
68.17301587301587	69.27596371882086	50	127
69.27596371882086	70.40213151927438	60	127
69.27596371882086	70.40213151927438	48	127
69.27596371882086	70.40213151927438	36	127
70.40213151927438	71.09873015873016	66	127
70.40213151927438	71.09873015873016	54	127
70.40213151927438	71.09873015873016	42	127
71.09873015873016	71.44702947845805	53	127
71.09873015873016	71.44702947845805	41	127
71.09873015873016	71.44702947845805	65	127
71.45863945578232	71.98108843537415	58	127
71.45863945578232	71.98108843537415	58	127
71.45863945578232	71.55151927437642	46	127
71.58634920634921	71.67922902494331	46	127
71.72566893424036	71.88820861678005	46	127
71.98108843537415	72.21328798185941	46	127
72.30614512471655	72.39904761904762	46	127
72.44548752834467	72.51514739229025	46	127
72.57319727891156	72.8750566893424	46	127
72.95632653061224	73.21174603174603	46	127
73.30460317460317	73.45553287981859	46	127
73.50199546485261	73.6297052154195	46	127
73.67614512471656	73.80385487528345	46	127
73.8502947845805	73.96639455782314	46	127
74.01283446712019	74.12893424036281	46	127
74.17537414965986	74.27986394557823	46	127
74.32628117913832	75.1390022675737	46	127
75.51052154195011	75.62662131519275	65	127
75.68467120181406	75.8007709750567	70	127
75.84721088435374	75.96328798185941	74	127
76.00975056689343	76.13746031746032	70	127
76.18390022675737	76.3	72	127
76.34641723356009	76.46253968253968	69	127
76.53219954648526	76.78761904761905	70	127
76.89210884353741	77.5887074829932	65	127
77.60031746031746	77.7164172335601	67	127
77.76285714285714	77.87893424036281	65	127
77.92539682539683	78.04149659863945	63	127
78.09954648526077	78.2156462585034	62	127
78.26206349206349	78.37818594104309	60	127
78.42462585034014	78.55233560090703	65	127
78.59877551020408	78.83097505668934	62	127
78.92385487528345	79.56240362811792	58	127
79.57401360544218	79.69011337868481	62	127
79.73655328798186	79.86426303854876	65	127
79.9222902494331	80.0384126984127	70	127
80.08485260770975	80.18934240362812	74	127
80.23578231292517	80.3518820861678	72	127
80.40990929705215	80.50281179138322	69	127
80.54925170068027	80.66532879818594	70	127
80.71179138321996	80.83950113378685	74	127
80.8859410430839	81.35034013605443	77	127
81.36195011337868	81.5128798185941	79	127
81.5128798185941	81.62897959183674	77	127
81.67541950113379	81.83795918367348	62	127
81.67541950113379	81.80312925170068	74	127
81.67541950113379	81.83795918367348	65	127
81.67541950113379	81.83795918367348	55	127
81.84956916099773	82.01210884353742	65	127
81.84956916099773	82.01210884353742	55	127
81.84956916099773	81.96566893424037	70	127
81.84956916099773	82.01210884353742	62	127
82.01210884353742	82.16303854875284	62	127
82.01210884353742	82.16303854875284	55	127
82.01210884353742	82.11659863945579	72	127
82.01210884353742	82.16303854875284	65	127
82.17464852607709	82.49972789115647	65	127
82.17464852607709	82.22108843537416	70	127
82.17464852607709	82.49972789115647	62	127
82.17464852607709	82.49972789115647	55	127
82.22108843537416	82.27913832199546	72	127
82.27913832199546	82.33718820861678	70	127
82.33718820861678	82.41845804988662	69	127
82.41845804988662	82.49972789115647	70	127
82.49972789115647	86.56321995464853	64	127
82.49972789115647	86.56321995464853	69	127
82.49972789115647	82.65065759637189	57	127
82.49972789115647	86.56321995464853	61	127
82.66226757369614	82.82480725623583	57	127
82.83639455782313	83.16149659863946	57	127
83.17310657596371	83.52140589569161	57	127
83.52140589569161	83.68394557823129	57	127
83.69555555555556	83.8697052154195	57	127
83.8697052154195	84.21798185941043	57	127
84.22961451247166	84.55469387755102	57	127
84.56630385487529	84.728820861678	57	127
84.74045351473923	84.90299319727892	57	127
84.90299319727892	85.06553287981859	57	127
85.07714285714286	85.22807256235828	57	127
85.23965986394558	85.3790022675737	57	127
85.3790022675737	85.54154195011338	57	127
85.55315192743764	86.56321995464853	57	127
86.57482993197279	86.69092970521542	76	127
86.73736961451247	86.88829931972789	81	127
86.93473922902494	87.06244897959184	85	127
87.10888888888888	87.22498866213152	81	127
87.27142857142857	87.38750566893424	83	127
87.44557823129252	87.56167800453515	80	127
87.6081179138322	87.85192743764172	81	127
87.94480725623583	88.62979591836735	76	127
88.6414058956916	88.75750566893424	78	127
88.80394557823129	88.93165532879819	76	127
88.9897052154195	89.10580498866213	74	127
89.15224489795918	89.26834467120182	73	127
89.31478458049887	89.44249433106576	71	127
89.48893424036281	89.60503401360545	76	127
89.6514739229025	89.88367346938776	73	127
89.97655328798186	90.68473922902494	69	127
90.68473922902494	90.80086167800454	89	127
90.85891156462586	90.97501133786848	88	127
91.02145124716553	91.13755102040817	86	127
91.18399092970522	91.31170068027211	84	127
91.35814058956916	91.4742403628118	83	127
91.52068027210885	91.63678004535147	86	127
91.68321995464852	91.81092970521541	80	127
91.85736961451248	91.9734693877551	83	127
92.01990929705215	92.13600907029479	77	127
92.1940589569161	92.29854875283446	76	127
92.34496598639456	92.46108843537415	70	127
92.34496598639456	92.46108843537415	82	127
92.5075283446712	92.62362811791384	81	127
92.5075283446712	92.62362811791384	69	127
92.67006802721089	92.78616780045351	67	127
92.67006802721089	92.78616780045351	79	127
92.80938775510204	92.92548752834468	77	127
92.80938775510204	92.92548752834468	65	127
92.97192743764172	93.08802721088435	64	127
92.97192743764172	93.08802721088435	76	127
93.14607709750567	93.22734693877551	74	127
93.14607709750567	93.22734693877551	62	127
93.27378684807256	93.37827664399093	61	127
93.27378684807256	93.37827664399093	73	127
93.27378684807256	93.37827664399093	61	127
93.42471655328798	93.55242630385487	76	127
93.42471655328798	93.55242630385487	64	127
93.42471655328798	93.55242630385487	64	127
93.59884353741496	93.64530612244899	72	127
93.59884353741496	93.64530612244899	60	127
93.64530612244899	93.73818594104308	58	127
93.64530612244899	93.73818594104308	70	127
93.73818594104308	93.90072562358277	69	127
93.73818594104308	93.90072562358277	57	127
93.90072562358277	93.95877551020408	48	127
93.90072562358277	93.95877551020408	60	127
93.95877551020408	94.09809523809524	58	127
93.95877551020408	94.09809523809524	46	127
94.09809523809524	94.28385487528345	45	127
94.09809523809524	94.28385487528345	57	127
94.29546485260771	94.35351473922903	60	127
94.29546485260771	94.35351473922903	48	127
94.35351473922903	94.48122448979592	46	127
94.35351473922903	94.48122448979592	58	127
94.48122448979592	94.67859410430839	57	127
94.48122448979592	94.67859410430839	45	127
94.69020408163266	94.80630385487528	62	127
94.69020408163266	94.8643537414966	50	127
94.8643537414966	95.02689342403629	50	127
94.8643537414966	94.9920634920635	62	127
95.03850340136054	95.28231292517007	62	127
95.03850340136054	95.18943310657596	50	127
95.37519274376417	95.59578231292517	62	127
95.66544217687076	95.8395918367347	66	127
95.66544217687076	95.8395918367347	60	127
95.66544217687076	95.79315192743765	62	127
95.66544217687076	95.8395918367347	75	127
95.85120181405895	96.00213151927437	75	127
95.85120181405895	96.00213151927437	60	127
95.85120181405895	95.96730158730159	62	127
95.85120181405895	96.00213151927437	66	127
96.01374149659864	96.18789115646258	60	127
96.01374149659864	96.29238095238095	62	127
96.01374149659864	96.18789115646258	75	127
96.01374149659864	96.18789115646258	66	127
96.38526077097505	96.60585034013606	62	127
96.6871201814059	96.84965986394558	74	127
96.6871201814059	96.84965986394558	58	127
96.6871201814059	96.8148299319728	62	127
96.6871201814059	96.84965986394558	67	127
96.86126984126984	97.04702947845804	74	127
96.86126984126984	97.04702947845804	58	127
96.86126984126984	97.000589569161	62	127
96.86126984126984	97.04702947845804	67	127
97.04702947845804	97.20956916099773	67	127
97.04702947845804	97.20956916099773	74	127
97.04702947845804	97.20956916099773	58	127
97.04702947845804	97.30244897959183	62	127
97.38371882086167	97.67396825396825	62	127
97.76684807256235	98.71886621315193	58	127
97.76684807256235	97.88294784580499	62	127
97.76684807256235	98.71886621315193	50	127
97.76684807256235	98.71886621315193	79	127
97.76684807256235	98.71886621315193	73	127
97.9409977324263	98.04548752834467	62	127
98.09192743764173	98.1964172335601	62	127
98.2544671201814	98.37056689342404	62	127
98.41700680272109	98.50988662131519	62	127
98.55632653061224	98.67242630385488	62	127
98.7304761904762	99.02072562358276	74	127
98.7304761904762	99.02072562358276	57	127
98.7304761904762	98.84657596371882	62	127
98.7304761904762	98.84657596371882	74	127
98.7304761904762	99.02072562358276	78	127
98.7304761904762	99.02072562358276	50	127
98.89301587301587	98.97428571428571	62	127
98.89301587301587	98.97428571428571	74	127
99.02072562358276	99.2645351473923	74	127
99.02072562358276	99.14843537414966	66	127
99.02072562358276	99.2645351473923	62	127
99.02072562358276	99.14843537414966	81	127
99.1948752834467	99.31097505668934	66	127
99.1948752834467	99.31097505668934	81	127
99.34580498866214	99.57800453514739	62	127
99.34580498866214	99.46190476190476	50	127
99.34580498866214	99.57800453514739	74	127
99.49673469387756	99.62444444444445	50	127
99.6708843537415	99.78698412698412	81	127
99.6708843537415	99.78698412698412	66	127
99.6708843537415	99.78698412698412	62	127
99.6708843537415	99.78698412698412	74	127
99.83342403628117	99.96113378684807	74	127
99.83342403628117	99.96113378684807	66	127
99.83342403628117	99.96113378684807	62	127
99.83342403628117	99.96113378684807	81	127
100.01918367346939	100.26299319727892	62	127
100.01918367346939	100.26299319727892	74	127
100.01918367346939	100.14689342403628	48	127
100.19333333333333	100.30943310657597	48	127
100.35587301587302	100.54163265306123	74	127
100.35587301587302	100.44875283446711	66	127
100.35587301587302	100.54163265306123	62	127
100.35587301587302	100.44875283446711	81	127
100.47197278911564	100.58807256235828	66	127
100.47197278911564	100.58807256235828	81	127
100.63451247165533	100.75061224489797	62	127
100.63451247165533	100.75061224489797	74	127
100.63451247165533	100.75061224489797	46	127
100.82027210884354	100.95959183673469	74	127
100.82027210884354	100.95959183673469	46	127
100.82027210884354	100.95959183673469	62	127
101.01764172335601	101.26145124716554	74	127
101.01764172335601	101.13374149659865	67	127
101.01764172335601	101.26145124716554	62	127
101.01764172335601	101.13374149659865	82	127
101.1801814058957	101.29628117913832	67	127
101.1801814058957	101.29628117913832	82	127
101.35433106575964	101.6213605442177	62	127
101.35433106575964	101.6213605442177	74	127
101.35433106575964	101.50526077097506	43	127
101.5517006802721	101.66780045351474	43	127
101.7142403628118	101.83034013605442	43	127
101.7142403628118	101.83034013605442	70	127
101.7142403628118	101.83034013605442	62	127
101.7142403628118	101.83034013605442	74	127
101.7142403628118	101.83034013605442	76	127
101.7142403628118	101.83034013605442	85	127
101.7142403628118	101.83034013605442	50	127
101.7142403628118	101.83034013605442	67	127
101.87678004535148	102.01609977324263	43	127
101.87678004535148	102.01609977324263	62	127
101.87678004535148	102.01609977324263	74	127
101.87678004535148	102.01609977324263	76	127
101.87678004535148	102.01609977324263	85	127
101.87678004535148	102.01609977324263	67	127
101.87678004535148	102.01609977324263	70	127
101.87678004535148	102.01609977324263	50	127
102.05092970521542	102.15541950113379	43	127
102.05092970521542	102.15541950113379	50	127
102.05092970521542	102.15541950113379	62	127
102.05092970521542	102.15541950113379	74	127
102.05092970521542	102.15541950113379	76	127
102.05092970521542	102.15541950113379	85	127
102.05092970521542	102.15541950113379	67	127
102.05092970521542	102.15541950113379	70	127
102.20185941043084	102.32956916099774	70	127
102.20185941043084	102.32956916099774	50	127
102.20185941043084	102.32956916099774	62	127
102.20185941043084	102.32956916099774	74	127
102.20185941043084	102.32956916099774	76	127
102.20185941043084	102.32956916099774	85	127
102.20185941043084	102.32956916099774	67	127
102.20185941043084	102.32956916099774	43	127
102.37600907029478	102.48049886621315	70	127
102.37600907029478	102.48049886621315	50	127
102.37600907029478	102.48049886621315	62	127
102.37600907029478	102.48049886621315	74	127
102.37600907029478	102.48049886621315	76	127
102.37600907029478	102.48049886621315	85	127
102.37600907029478	102.48049886621315	67	127
102.37600907029478	102.48049886621315	43	127
102.5269387755102	102.6546485260771	43	127
102.5269387755102	102.6546485260771	62	127
102.5269387755102	102.6546485260771	74	127
102.5269387755102	102.6546485260771	76	127
102.5269387755102	102.6546485260771	85	127
102.5269387755102	102.6546485260771	67	127
102.5269387755102	102.6546485260771	70	127
102.5269387755102	102.6546485260771	50	127
102.70108843537415	103.00294784580498	62	127
102.70108843537415	103.00294784580498	74	127
102.70108843537415	102.82879818594104	86	127
102.70108843537415	102.82879818594104	50	127
102.70108843537415	102.82879818594104	38	127
102.87523809523809	102.95650793650793	62	127
102.87523809523809	102.95650793650793	50	127
102.87523809523809	102.95650793650793	38	127
103.00294784580498	103.11904761904762	62	127
103.00294784580498	103.11904761904762	38	127
103.00294784580498	103.11904761904762	50	127
103.17709750566894	103.30480725623583	38	127
103.17709750566894	103.30480725623583	62	127
103.17709750566894	103.30480725623583	50	127
103.35124716553288	103.4673469387755	50	127
103.35124716553288	103.4673469387755	38	127
103.35124716553288	103.4673469387755	62	127
103.51378684807256	103.6298866213152	38	127
103.51378684807256	103.6298866213152	50	127
103.51378684807256	103.6298866213152	62	127
103.68793650793651	103.78081632653061	36	127
103.68793650793651	103.78081632653061	60	127
103.68793650793651	103.78081632653061	48	127
103.8156462585034	103.93174603174603	60	127
103.8156462585034	103.93174603174603	48	127
103.8156462585034	103.93174603174603	36	127
103.97818594104308	104.10589569160997	66	127
103.97818594104308	104.10589569160997	54	127
103.97818594104308	104.10589569160997	42	127
104.15233560090702	104.26843537414966	66	127
104.15233560090702	104.26843537414966	42	127
104.15233560090702	104.26843537414966	54	127
104.31487528344671	104.4425850340136	41	127
104.31487528344671	104.48902494331065	77	127
104.31487528344671	104.4425850340136	65	127
104.31487528344671	104.4425850340136	53	127
104.31487528344671	104.48902494331065	75	127
104.48902494331065	104.61673469387755	41	127
104.48902494331065	104.65156462585034	77	127
104.48902494331065	104.61673469387755	65	127
104.48902494331065	104.61673469387755	53	127
104.48902494331065	104.65156462585034	75	127
104.6631746031746	104.76766439909296	53	127
104.6631746031746	104.76766439909296	77	127
104.6631746031746	104.76766439909296	65	127
104.6631746031746	104.76766439909296	65	127
104.6631746031746	104.76766439909296	46	127
104.6631746031746	104.76766439909296	50	127
104.81410430839003	104.91859410430838	46	127
104.81410430839003	104.91859410430838	50	127
104.81410430839003	104.91859410430838	82	127
104.81410430839003	104.91859410430838	70	127
104.81410430839003	104.91859410430838	53	127
104.81410430839003	104.91859410430838	65	127
104.96503401360545	105.20884353741496	50	127
104.96503401360545	105.20884353741496	65	127
104.96503401360545	105.20884353741496	46	127
104.96503401360545	105.09274376417234	86	127
104.96503401360545	105.09274376417234	74	127
104.96503401360545	105.20884353741496	53	127
105.13918367346939	105.25528344671201	70	127
105.13918367346939	105.25528344671201	82	127
105.30172335600908	105.52231292517007	65	127
105.30172335600908	105.52231292517007	50	127
105.30172335600908	105.40621315192743	84	127
105.30172335600908	105.52231292517007	53	127
105.30172335600908	105.52231292517007	46	127
105.30172335600908	105.40621315192743	72	127
105.46426303854875	105.56875283446712	69	127
105.46426303854875	105.56875283446712	81	127
105.61519274376417	105.7312925170068	65	127
105.61519274376417	105.7312925170068	53	127
105.61519274376417	105.7312925170068	46	127
105.61519274376417	105.7312925170068	50	127
105.61519274376417	105.8590022675737	82	127
105.61519274376417	105.8590022675737	70	127
105.77773242630386	105.89383219954648	53	127
105.77773242630386	105.89383219954648	65	127
105.77773242630386	105.89383219954648	46	127
105.77773242630386	105.89383219954648	50	127
105.9518820861678	106.17247165532879	53	127
105.9518820861678	106.17247165532879	65	127
105.9518820861678	106.61365079365079	77	127
105.9518820861678	106.61365079365079	65	127
105.9518820861678	106.06798185941044	46	127
105.9518820861678	106.06798185941044	50	127
106.10281179138322	106.20730158730159	46	127
106.10281179138322	106.20730158730159	50	127
106.2653514739229	106.38145124716553	46	127
106.2653514739229	106.38145124716553	50	127
106.2653514739229	106.52077097505669	53	127
106.2653514739229	106.52077097505669	65	127
106.45111111111112	106.57882086167801	46	127
106.45111111111112	106.57882086167801	50	127
106.62526077097506	106.74136054421768	46	127
106.62526077097506	106.74136054421768	79	127
106.62526077097506	106.74136054421768	67	127
106.62526077097506	106.74136054421768	53	127
106.62526077097506	106.74136054421768	65	127
106.62526077097506	106.74136054421768	51	127
106.78780045351473	106.9271201814059	46	127
106.78780045351473	106.9271201814059	51	127
106.78780045351473	106.9271201814059	65	127
106.78780045351473	106.9271201814059	77	127
106.78780045351473	106.9271201814059	53	127
106.78780045351473	106.9271201814059	65	127
106.97356009070295	107.08965986394558	65	127
106.97356009070295	107.08965986394558	51	127
106.97356009070295	107.08965986394558	75	127
106.97356009070295	107.08965986394558	63	127
106.97356009070295	107.08965986394558	53	127
106.97356009070295	107.08965986394558	46	127
107.12448979591836	107.240589569161	65	127
107.12448979591836	107.240589569161	51	127
107.12448979591836	107.240589569161	74	127
107.12448979591836	107.240589569161	62	127
107.12448979591836	107.240589569161	53	127
107.12448979591836	107.240589569161	46	127
107.28702947845805	107.41473922902495	72	127
107.28702947845805	107.41473922902495	60	127
107.28702947845805	107.41473922902495	65	127
107.28702947845805	107.41473922902495	51	127
107.28702947845805	107.41473922902495	46	127
107.28702947845805	107.41473922902495	53	127
107.461179138322	107.57727891156462	65	127
107.461179138322	107.57727891156462	77	127
107.461179138322	107.57727891156462	65	127
107.461179138322	107.57727891156462	53	127
107.461179138322	107.57727891156462	46	127
107.461179138322	107.57727891156462	51	127
107.62371882086168	107.85591836734694	62	127
107.62371882086168	107.72820861678005	50	127
107.62371882086168	107.85591836734694	74	127
107.62371882086168	107.72820861678005	53	127
107.62371882086168	107.72820861678005	65	127
107.62371882086168	107.72820861678005	46	127
107.78625850340136	107.91396825396825	53	127
107.78625850340136	107.91396825396825	58	127
107.97201814058957	108.61056689342404	70	127
107.97201814058957	108.61056689342404	58	127
107.97201814058957	108.08811791383219	62	127
107.97201814058957	108.08811791383219	58	127
108.14616780045351	108.26226757369615	65	127
108.14616780045351	108.26226757369615	62	127
108.32031746031745	108.41319727891157	63	127
108.32031746031745	108.41319727891157	60	127
108.45963718820862	108.57573696145124	60	127
108.45963718820862	108.57573696145124	57	127
108.61056689342404	108.72666666666667	62	127
108.61056689342404	108.72666666666667	58	127
108.61056689342404	108.72666666666667	74	127
108.61056689342404	108.72666666666667	62	127
108.78471655328798	108.90081632653062	65	127
108.78471655328798	108.90081632653062	77	127
108.78471655328798	108.90081632653062	58	127
108.78471655328798	108.90081632653062	53	127
108.94725623582767	109.06335600907029	53	127
108.94725623582767	109.06335600907029	50	127
108.94725623582767	109.06335600907029	82	127
108.94725623582767	109.06335600907029	70	127
109.09818594104308	109.22589569160998	74	127
109.09818594104308	109.22589569160998	46	127
109.09818594104308	109.22589569160998	86	127
109.09818594104308	109.22589569160998	50	127
109.26072562358277	109.3768253968254	72	127
109.26072562358277	109.3768253968254	51	127
109.26072562358277	109.3768253968254	84	127
109.26072562358277	109.3768253968254	53	127
109.42326530612245	109.52775510204081	69	127
109.42326530612245	109.52775510204081	51	127
109.42326530612245	109.52775510204081	81	127
109.42326530612245	109.52775510204081	53	127
109.56258503401361	109.6902947845805	70	127
109.56258503401361	109.6902947845805	50	127
109.56258503401361	109.6902947845805	82	127
109.56258503401361	109.6902947845805	53	127
109.73673469387755	109.84122448979592	58	127
109.73673469387755	109.84122448979592	74	127
109.73673469387755	109.84122448979592	53	127
109.73673469387755	109.84122448979592	86	127
109.88766439909297	110.00376417233561	62	127
109.88766439909297	110.00376417233561	58	127
109.88766439909297	110.38689342403629	89	127
109.88766439909297	110.38689342403629	77	127
110.05020408163266	110.17791383219955	65	127
110.05020408163266	110.17791383219955	62	127
110.2243537414966	110.34045351473922	63	127
110.2243537414966	110.34045351473922	60	127
110.38689342403629	110.50299319727891	57	127
110.38689342403629	110.54943310657596	79	127
110.38689342403629	110.50299319727891	60	127
110.38689342403629	110.54943310657596	91	127
110.56104308390023	110.67714285714285	77	127
110.56104308390023	110.67714285714285	58	127
110.56104308390023	110.67714285714285	89	127
110.56104308390023	110.67714285714285	62	127
110.7235827664399	110.83968253968254	74	127
110.7235827664399	110.83968253968254	46	127
110.7235827664399	110.83968253968254	86	127
110.7235827664399	110.83968253968254	50	127
110.88612244897959	110.97900226757369	70	127
110.88612244897959	110.97900226757369	58	127
110.88612244897959	110.97900226757369	82	127
110.88612244897959	110.97900226757369	62	127
111.03705215419501	111.15315192743765	58	127
111.03705215419501	111.15315192743765	84	127
111.03705215419501	111.15315192743765	72	127
111.03705215419501	111.15315192743765	62	127
111.18798185941043	111.30408163265307	62	127
111.18798185941043	111.30408163265307	58	127
111.18798185941043	111.24603174603175	82	127
111.18798185941043	111.24603174603175	70	127
111.24603174603175	111.30408163265307	84	127
111.24603174603175	111.30408163265307	72	127
111.30408163265307	111.35052154195012	82	127
111.30408163265307	111.35052154195012	70	127
111.35052154195012	111.43179138321996	58	127
111.35052154195012	111.43179138321996	69	127
111.35052154195012	111.43179138321996	62	127
111.35052154195012	111.43179138321996	81	127
111.44340136054421	112.1051700680272	69	127
111.44340136054421	112.1051700680272	81	127
111.44340136054421	111.55950113378685	64	127
111.44340136054421	111.55950113378685	61	127
111.6059410430839	111.72204081632653	64	127
111.6059410430839	111.72204081632653	61	127
111.76848072562358	111.89619047619047	64	127
111.76848072562358	111.89619047619047	61	127
111.94263038548753	112.05873015873016	61	127
111.94263038548753	112.05873015873016	64	127
112.1051700680272	112.22126984126984	81	127
112.1051700680272	112.22126984126984	64	127
112.1051700680272	112.22126984126984	61	127
112.2677097505669	112.40702947845806	61	127
112.2677097505669	112.40702947845806	82	127
112.2677097505669	112.40702947845806	64	127
112.4534693877551	112.56956916099773	81	127
112.4534693877551	112.56956916099773	65	127
112.4534693877551	112.56956916099773	62	127
112.61600907029478	112.73210884353742	65	127
112.61600907029478	112.73210884353742	62	127
112.61600907029478	112.73210884353742	77	127
112.80176870748299	112.91786848072563	74	127
112.80176870748299	112.91786848072563	62	127
112.80176870748299	112.91786848072563	65	127
112.96430839002268	113.06879818594105	76	127
112.96430839002268	113.06879818594105	62	127
112.96430839002268	113.06879818594105	65	127
113.13845804988662	113.25455782312925	65	127
113.13845804988662	113.19650793650794	74	127
113.13845804988662	113.25455782312925	62	127
113.19650793650794	113.25455782312925	76	127
113.25455782312925	113.31260770975057	74	127
113.31260770975057	113.4287074829932	65	127
113.31260770975057	113.4287074829932	62	127
113.31260770975057	113.39387755102041	72	127
113.39387755102041	113.47514739229025	74	127
113.47514739229025	113.59124716553288	64	127
113.47514739229025	113.59124716553288	67	127
113.47514739229025	114.13691609977325	72	127
113.63768707482993	113.75378684807256	67	127
113.63768707482993	113.75378684807256	64	127
113.81183673469388	113.92793650793651	67	127
113.81183673469388	113.92793650793651	64	127
113.97437641723356	114.0904761904762	64	127
113.97437641723356	114.0904761904762	67	127
114.13691609977325	114.26462585034014	72	127
114.13691609977325	114.26462585034014	64	127
114.13691609977325	114.26462585034014	84	127
114.13691609977325	114.26462585034014	67	127
114.31106575963719	114.38072562358276	74	127
114.31106575963719	114.38072562358276	64	127
114.31106575963719	114.38072562358276	86	127
114.31106575963719	114.38072562358276	67	127
114.42716553287981	114.54326530612245	72	127
114.42716553287981	114.5897052154195	65	127
114.42716553287981	114.54326530612245	84	127
114.42716553287981	114.5897052154195	69	127
114.5897052154195	114.71741496598639	81	127
114.5897052154195	114.71741496598639	69	127
114.5897052154195	114.6825850340136	57	127
114.5897052154195	114.6825850340136	53	127
114.6825850340136	114.75224489795919	55	127
114.6825850340136	114.75224489795919	58	127
114.75224489795919	114.86834467120181	65	127
114.75224489795919	114.86834467120181	77	127
114.75224489795919	114.86834467120181	60	127
114.75224489795919	114.86834467120181	57	127
114.91478458049886	115.04249433106575	57	127
114.91478458049886	115.04249433106575	53	127
114.91478458049886	115.04249433106575	79	127
114.91478458049886	115.04249433106575	67	127
115.10054421768707	115.21664399092971	59	127
115.10054421768707	115.14698412698412	77	127
115.10054421768707	115.14698412698412	65	127
115.10054421768707	115.21664399092971	62	127
115.14698412698412	115.20503401360544	79	127
115.14698412698412	115.20503401360544	67	127
115.20503401360544	115.26308390022676	65	127
115.20503401360544	115.26308390022676	77	127
115.26308390022676	115.36757369614513	55	127
115.26308390022676	115.3443537414966	64	127
115.26308390022676	115.36757369614513	59	127
115.26308390022676	115.3443537414966	76	127
115.3443537414966	115.41401360544218	65	127
115.3443537414966	115.41401360544218	77	127
115.41401360544218	115.76231292517006	60	127
115.41401360544218	115.5301133786848	76	127
115.41401360544218	115.5301133786848	64	127
115.41401360544218	115.76231292517006	64	127
115.58816326530612	115.71587301587302	60	127
115.58816326530612	115.71587301587302	72	127
115.77392290249433	115.90163265306123	69	127
115.94807256235828	116.04095238095238	67	127
116.0990022675737	116.21510204081633	64	127
116.26154195011338	116.377641723356	60	127
116.42408163265306	116.55179138321995	57	127
116.59823129251701	116.71433106575964	55	127
116.77238095238096	116.88848072562358	52	127
116.9465306122449	117.07424036281179	48	127
117.12068027210884	117.26	45	127
117.28321995464853	117.42253968253968	43	127
117.480589569161	118.66480725623583	36	127
118.67641723356009	118.92022675736962	65	127
118.92022675736962	119.02471655328799	67	127
119.02471655328799	119.34979591836735	68	127
119.34979591836735	119.7097052154195	70	127
119.72131519274376	120.38308390022675	72	127
120.05800453514739	121.56730158730159	53	127
120.05800453514739	120.7429931972789	60	127
120.05800453514739	120.7429931972789	57	127
120.38308390022675	120.7429931972789	73	127
120.7429931972789	121.56730158730159	61	127
120.7429931972789	120.9055328798186	75	127
120.7429931972789	121.56730158730159	58	127
120.95197278911564	121.14934240362811	73	127
121.19578231292518	121.33510204081632	72	127
121.38154195011337	121.50925170068027	70	127
121.57891156462586	121.718231292517	68	127
121.57891156462586	121.92721088435374	64	127
121.57891156462586	122.31034013605442	60	127
121.57891156462586	122.31034013605442	53	127
121.76467120181405	121.88077097505669	67	127
121.92721088435374	122.07814058956916	68	127
121.92721088435374	122.31034013605442	65	127
122.13619047619048	122.27551020408163	67	127
122.32195011337869	122.43804988662131	65	127
122.48448979591836	122.600589569161	73	127
122.6586394557823	122.77473922902495	72	127
122.821179138322	122.93727891156463	70	127
122.98371882086168	123.25074829931972	77	127
122.98371882086168	123.12303854875283	68	127
123.16947845804988	123.28557823129252	67	127
123.25074829931972	123.33201814058957	79	127
123.33201814058957	123.68031746031745	80	127
123.33201814058957	123.68031746031745	65	127
123.49455782312926	123.64548752834467	61	127
123.69192743764172	124.02861678004535	82	127
123.69192743764172	124.02861678004535	65	127
123.69192743764172	123.81963718820862	60	127
123.69192743764172	124.02861678004535	77	127
123.86607709750567	123.9821768707483	58	127
124.04022675736961	124.66716553287982	84	127
124.04022675736961	124.66716553287982	65	127
124.04022675736961	124.15632653061225	56	127
124.04022675736961	124.37691609977324	77	127
124.2027664399093	124.31886621315192	55	127
124.37691609977324	124.66716553287982	68	127
124.37691609977324	124.49301587301588	53	127
124.53945578231293	124.63233560090703	51	127
124.67877551020408	125.02707482993198	85	127
124.67877551020408	125.02707482993198	65	127
124.67877551020408	124.79487528344671	49	127
124.67877551020408	125.02707482993198	68	127
124.85292517006803	124.96902494331066	48	127
125.03868480725623	125.38698412698413	46	127
125.03868480725623	125.5495238095238	67	127
125.03868480725623	125.15478458049887	87	127
125.03868480725623	125.38698412698413	65	127
125.22444444444444	125.34054421768707	85	127
125.38698412698413	125.51469387755103	84	127
125.38698412698413	125.51469387755103	64	127
125.38698412698413	126.14163265306122	48	127
125.56113378684807	125.6772335600907	55	127
125.56113378684807	125.6772335600907	82	127
125.56113378684807	125.6772335600907	70	127
125.72367346938775	125.87460317460318	68	127
125.72367346938775	125.87460317460318	80	127
125.72367346938775	125.87460317460318	60	127
125.93265306122449	126.0835827664399	58	127
125.93265306122449	126.0835827664399	79	127
125.93265306122449	126.0835827664399	64	127
125.93265306122449	126.0835827664399	72	127
126.14163265306122	126.47832199546485	41	127
126.14163265306122	126.47832199546485	77	127
126.14163265306122	126.47832199546485	65	127
126.14163265306122	126.47832199546485	56	127
126.48993197278912	126.8730612244898	53	127
126.88467120181406	127.26780045351474	68	127
126.88467120181406	127.26780045351474	53	127
126.88467120181406	127.26780045351474	56	127
127.26780045351474	127.6277097505669	55	127
127.26780045351474	127.6277097505669	52	127
127.26780045351474	127.5348299319728	36	127
127.26780045351474	127.5348299319728	67	127
127.5348299319728	127.63931972789116	65	127
127.63931972789116	128.02244897959184	64	127
127.63931972789116	128.02244897959184	55	127
127.63931972789116	127.92956916099773	48	127
127.63931972789116	128.02244897959184	58	127
128.02244897959184	128.44040816326532	67	127
128.02244897959184	128.44040816326532	52	127
128.02244897959184	128.35913832199546	48	127
128.02244897959184	128.44040816326532	58	127
128.45199546485262	129.18344671201814	53	127
128.45199546485262	128.80031746031747	53	127
128.45199546485262	129.18344671201814	65	127
128.45199546485262	129.18344671201814	56	127
128.8119274376417	129.18344671201814	41	127
129.18344671201814	129.56657596371883	56	127
129.18344671201814	129.56657596371883	38	127
129.18344671201814	129.56657596371883	72	127
129.18344671201814	129.56657596371883	60	127
129.57818594104307	129.91487528344672	55	127
129.57818594104307	129.91487528344672	39	127
129.57818594104307	129.84521541950113	70	127
129.57818594104307	129.91487528344672	58	127
129.84521541950113	129.96131519274377	68	127
129.96131519274377	130.30961451247165	67	127
129.96131519274377	130.30961451247165	58	127
129.96131519274377	130.22834467120182	51	127
129.96131519274377	130.30961451247165	61	127
130.30961451247165	130.6695238095238	70	127
130.30961451247165	130.6695238095238	55	127
130.30961451247165	130.58825396825398	51	127
130.30961451247165	130.6695238095238	61	127
130.68113378684808	131.4009523809524	60	127
130.68113378684808	131.4009523809524	56	127
130.68113378684808	130.93655328798187	56	127
130.68113378684808	131.4009523809524	68	127
131.0526530612245	131.4009523809524	44	127
131.4009523809524	131.8073015873016	60	127
131.4009523809524	131.8073015873016	63	127
131.4009523809524	131.8073015873016	42	127
131.4009523809524	131.8073015873016	75	127
131.81891156462586	132.2136507936508	59	127
131.81891156462586	132.0859410430839	74	127
131.81891156462586	132.2136507936508	62	127
131.81891156462586	132.2136507936508	43	127
132.0859410430839	132.2136507936508	72	127
132.2136507936508	132.58517006802722	65	127
132.2136507936508	132.58517006802722	62	127
132.2136507936508	132.4922902494331	55	127
132.2136507936508	132.58517006802722	71	127
132.58517006802722	132.95668934240362	74	127
132.58517006802722	132.95668934240362	65	127
132.58517006802722	132.8754195011338	55	127
132.58517006802722	132.95668934240362	71	127
132.9682993197279	133.38625850340136	62	127
132.9682993197279	133.38625850340136	48	127
132.9682993197279	133.29337868480727	72	127
132.9682993197279	133.38625850340136	72	127
133.29337868480727	133.38625850340136	74	127
133.38625850340136	133.73455782312925	84	127
133.38625850340136	133.73455782312925	60	127
133.38625850340136	133.73455782312925	75	127
133.74616780045352	134.10607709750568	84	127
133.74616780045352	134.10607709750568	62	127
133.74616780045352	134.10607709750568	77	127
134.11768707482995	134.82589569161	63	127
134.11768707482995	134.82589569161	84	127
134.11768707482995	134.82589569161	79	127
134.83748299319728	135.34832199546486	84	127
134.83748299319728	135.17419501133787	80	127
134.83748299319728	135.17419501133787	65	127
135.18580498866214	135.3018820861678	67	127
135.18580498866214	135.3018820861678	82	127
135.34832199546486	135.4760544217687	80	127
135.34832199546486	135.4760544217687	65	127
135.34832199546486	135.4760544217687	84	127
135.34832199546486	135.4760544217687	60	127
135.52249433106576	135.6385941043084	79	127
135.52249433106576	135.6385941043084	63	127
135.52249433106576	135.6385941043084	84	127
135.52249433106576	135.6385941043084	72	127
135.69664399092972	135.81272108843538	77	127
135.69664399092972	135.81272108843538	56	127
135.69664399092972	135.81272108843538	84	127
135.69664399092972	135.81272108843538	60	127
135.87079365079364	135.99850340136055	75	127
135.87079365079364	135.99850340136055	55	127
135.87079365079364	135.99850340136055	84	127
135.87079365079364	135.99850340136055	67	127
136.0449433106576	136.16104308390024	83	127
136.0449433106576	136.16104308390024	65	127
136.0449433106576	136.16104308390024	43	127
136.0449433106576	136.16104308390024	74	127
136.2074829931973	136.32356009070295	64	127
136.2074829931973	136.32356009070295	84	127
136.2074829931973	136.32356009070295	72	127
136.2074829931973	136.32356009070295	48	127
136.38163265306122	136.46290249433108	73	127
136.38163265306122	136.46290249433108	60	127
136.38163265306122	136.46290249433108	82	127
136.38163265306122	136.46290249433108	77	127
136.50934240362812	136.6254195011338	75	127
136.50934240362812	136.6254195011338	60	127
136.50934240362812	136.6254195011338	80	127
136.50934240362812	136.6254195011338	72	127
136.68349206349205	136.77637188208618	73	127
136.68349206349205	136.77637188208618	60	127
136.68349206349205	136.77637188208618	79	127
136.68349206349205	136.77637188208618	70	127
136.82281179138323	136.9505215419501	72	127
136.82281179138323	136.9505215419501	60	127
136.82281179138323	136.9505215419501	77	127
136.82281179138323	136.9505215419501	68	127
136.99696145124716	137.14789115646258	70	127
136.99696145124716	137.14789115646258	60	127
136.99696145124716	137.14789115646258	76	127
136.99696145124716	137.14789115646258	67	127
137.2059410430839	137.4497505668934	72	127
137.2059410430839	137.69356009070296	65	127
137.2059410430839	137.4497505668934	77	127
137.2059410430839	137.4497505668934	68	127
137.4497505668934	137.53102040816327	70	127
137.4497505668934	137.53102040816327	79	127
137.4497505668934	137.53102040816327	67	127
137.53102040816327	137.69356009070296	65	127
137.53102040816327	137.69356009070296	68	127
137.53102040816327	137.87931972789116	80	127
137.7051700680272	137.87931972789116	77	127
137.7051700680272	137.87931972789116	65	127
137.7051700680272	137.84448979591838	61	127
137.89092970521543	138.05346938775511	77	127
137.89092970521543	138.21600907029477	82	127
137.89092970521543	138.0070068027211	60	127
137.89092970521543	138.05346938775511	65	127
138.05346938775511	138.181179138322	58	127
138.05346938775511	138.21600907029477	77	127
138.05346938775511	138.21600907029477	65	127
138.22761904761904	138.39015873015873	77	127
138.22761904761904	138.9009977324263	84	127
138.22761904761904	138.35532879818595	56	127
138.22761904761904	138.39015873015873	65	127
138.41337868480727	138.57591836734693	68	127
138.41337868480727	138.52947845804988	55	127
138.41337868480727	138.57591836734693	65	127
138.57591836734693	138.73845804988662	65	127
138.57591836734693	138.73845804988662	68	127
138.57591836734693	138.70362811791384	53	127
138.7500680272109	138.9009977324263	68	127
138.7500680272109	138.9009977324263	65	127
138.7500680272109	138.85455782312926	51	127
138.9009977324263	139.01709750566894	49	127
138.9009977324263	139.063537414966	68	127
138.9009977324263	139.063537414966	65	127
138.9009977324263	139.2492970521542	85	127
139.07514739229026	139.2492970521542	68	127
139.07514739229026	139.2144671201814	48	127
139.07514739229026	139.2492970521542	65	127
139.26090702947846	139.41183673469388	65	127
139.26090702947846	139.41183673469388	67	127
139.26090702947846	139.58598639455784	46	127
139.26090702947846	139.36539682539683	87	127
139.41183673469388	139.58598639455784	67	127
139.41183673469388	139.5395238095238	85	127
139.41183673469388	139.58598639455784	65	127
139.59759637188208	139.74850340136055	67	127
139.59759637188208	140.29419501133788	48	127
139.59759637188208	139.71369614512471	84	127
139.59759637188208	139.74850340136055	64	127
139.74850340136055	139.91106575963718	72	127
139.74850340136055	139.8762358276644	82	127
139.74850340136055	139.91106575963718	64	127
139.74850340136055	139.91106575963718	67	127
139.92267573696145	140.0968253968254	64	127
139.92267573696145	140.0968253968254	67	127
139.92267573696145	140.0503628117914	80	127
139.92267573696145	140.0968253968254	72	127
140.0968253968254	140.24775510204083	79	127
140.0968253968254	140.29419501133788	64	127
140.0968253968254	140.29419501133788	72	127
140.0968253968254	140.29419501133788	67	127
140.29419501133788	140.41027210884354	77	127
140.29419501133788	140.61927437641722	65	127
140.29419501133788	140.61927437641722	72	127
140.29419501133788	140.61927437641722	41	127
140.29419501133788	140.61927437641722	68	127
140.4683446712018	140.58444444444444	60	127
140.6308843537415	140.7585941043084	60	127
140.80503401360545	140.93274376417233	60	127
140.97918367346938	141.30426303854875	56	127
140.97918367346938	141.09528344671202	60	127
141.14172335600907	141.2578231292517	60	127
141.30426303854875	141.4319501133787	58	127
141.30426303854875	141.55968253968254	55	127
141.4784126984127	141.59451247165532	60	127
141.55968253968254	141.64095238095237	53	127
141.64095238095237	142.03569160997733	52	127
141.64095238095237	141.757052154195	55	127
141.80349206349206	142.00086167800453	60	127
142.04727891156463	142.22145124716553	72	127
142.04727891156463	142.418820861678	58	127
142.04727891156463	142.418820861678	64	127
142.04727891156463	142.418820861678	55	127
142.2562811791383	142.37238095238095	72	127
142.43043083900227	142.53492063492064	72	127
142.43043083900227	142.68585034013606	65	127
142.43043083900227	142.68585034013606	56	127
142.43043083900227	143.10380952380953	53	127
142.5813605442177	142.72068027210884	72	127
142.68585034013606	142.7671201814059	67	127
142.68585034013606	142.7671201814059	55	127
142.7671201814059	143.10380952380953	68	127
142.7671201814059	142.88321995464852	72	127
142.7671201814059	143.10380952380953	53	127
142.9528798185941	143.06895691609978	72	127
143.1154195011338	143.45210884353742	60	127
143.1154195011338	143.2315192743764	63	127
143.27795918367346	143.41727891156464	63	127
143.47530612244898	143.60303854875283	61	127
143.47530612244898	143.75396825396825	58	127
143.64947845804988	143.78879818594103	63	127
143.75396825396825	143.84684807256235	56	127
143.84684807256235	144.22997732426305	55	127
143.84684807256235	144.00938775510204	58	127
144.0558276643991	144.183537414966	63	127
144.22997732426305	144.5550566893424	67	127
144.22997732426305	144.5550566893424	58	127
144.22997732426305	144.5550566893424	61	127
144.22997732426305	144.3460544217687	75	127
144.39251700680273	144.5202267573696	75	127
144.57827664399093	144.83369614512472	68	127
144.57827664399093	144.70596371882087	75	127
144.57827664399093	144.83369614512472	60	127
144.57827664399093	145.2748752834467	56	127
144.75240362811792	144.8685260770975	75	127
144.83369614512472	144.92657596371882	70	127
144.92657596371882	145.2748752834467	72	127
144.92657596371882	145.2748752834467	56	127
144.92657596371882	145.06589569160997	75	127
145.11231292517007	145.22843537414965	75	127
145.2748752834467	145.59995464852608	63	127
145.2748752834467	145.39097505668934	67	127
145.46063492063493	145.5651247165533	67	127
145.61156462585035	145.72764172335602	65	127
145.61156462585035	145.85537414965987	62	127
145.77410430839004	145.89020408163265	67	127
145.85537414965987	145.95986394557823	60	127
145.95986394557823	146.2849433106576	59	127
145.95986394557823	146.07596371882087	62	127
146.12240362811792	146.2384807256236	67	127
146.2849433106576	146.6448299319728	71	127
146.2849433106576	146.6448299319728	65	127
146.2849433106576	146.6448299319728	62	127
146.2849433106576	146.44748299319727	79	127
146.49390022675738	146.61002267573696	79	127
146.656462585034	146.92349206349206	60	127
146.656462585034	146.92349206349206	63	127
146.656462585034	146.77256235827664	79	127
146.656462585034	146.92349206349206	72	127
146.8190022675737	146.95832199546484	84	127
146.92349206349206	147.00473922902495	62	127
146.92349206349206	147.00473922902495	71	127
146.92349206349206	147.00473922902495	65	127
147.00473922902495	147.37628117913832	72	127
147.00473922902495	147.37628117913832	67	127
147.00473922902495	147.37628117913832	63	127
147.00473922902495	147.16730158730158	84	127
147.21374149659863	147.32984126984127	84	127
147.3878911564626	147.7245804988662	74	127
147.3878911564626	147.7245804988662	68	127
147.3878911564626	147.7245804988662	65	127
147.3878911564626	147.51557823129252	84	127
147.56204081632654	147.67814058956915	84	127
147.7245804988662	148.46761904761905	76	127
147.7245804988662	148.46761904761905	70	127
147.7245804988662	148.46761904761905	67	127
147.7245804988662	147.84068027210884	84	127
147.92192743764173	148.06126984126985	84	127
148.1077097505669	148.24702947845805	84	127
148.30507936507937	148.421179138322	84	127
148.47922902494332	148.81591836734694	77	127
148.47922902494332	148.81591836734694	72	127
148.47922902494332	148.81591836734694	68	127
148.47922902494332	148.59532879818593	84	127
148.64174603174604	148.7694784580499	84	127
148.81591836734694	148.94362811791385	84	127
148.81591836734694	148.94362811791385	70	127
148.81591836734694	148.94362811791385	73	127
148.81591836734694	148.94362811791385	79	127
148.9900680272109	149.1061678004535	84	127
148.9900680272109	149.1061678004535	77	127
148.9900680272109	149.1061678004535	72	127
148.9900680272109	149.1061678004535	68	127
149.1525850340136	149.24548752834468	75	127
149.1525850340136	149.24548752834468	70	127
149.1525850340136	149.24548752834468	67	127
149.1525850340136	149.24548752834468	84	127
149.29192743764173	149.4196371882086	84	127
149.29192743764173	149.4196371882086	68	127
149.29192743764173	149.4196371882086	65	127
149.29192743764173	149.4196371882086	74	127
149.46607709750566	149.57056689342403	84	127
149.46607709750566	149.57056689342403	67	127
149.46607709750566	149.57056689342403	63	127
149.46607709750566	149.57056689342403	72	127
149.61700680272108	149.73310657596372	84	127
149.61700680272108	149.73310657596372	65	127
149.61700680272108	149.73310657596372	62	127
149.61700680272108	149.73310657596372	71	127
149.77954648526077	149.88403628117914	84	127
149.77954648526077	149.88403628117914	67	127
149.77954648526077	149.88403628117914	63	127
149.77954648526077	149.88403628117914	72	127
149.93047619047618	150.04657596371882	65	127
149.93047619047618	150.04657596371882	61	127
149.93047619047618	150.04657596371882	72	127
149.93047619047618	150.04657596371882	70	127
150.10462585034014	150.22072562358278	68	127
150.10462585034014	150.22072562358278	63	127
150.10462585034014	150.22072562358278	72	127
150.10462585034014	150.22072562358278	60	127
150.25555555555556	150.3716553287982	61	127
150.25555555555556	150.3716553287982	72	127
150.25555555555556	150.3716553287982	67	127
150.25555555555556	150.3716553287982	58	127
150.41809523809525	150.54580498866213	65	127
150.41809523809525	150.54580498866213	60	127
150.41809523809525	150.54580498866213	56	127
150.41809523809525	150.54580498866213	74	127
150.59224489795918	150.70834467120181	76	127
150.59224489795918	150.70834467120181	58	127
150.59224489795918	150.70834467120181	55	127
150.59224489795918	150.70834467120181	64	127
150.76639455782313	150.88249433106577	60	127
150.76639455782313	151.0334240362812	65	127
150.76639455782313	151.0334240362812	77	127
150.76639455782313	150.88249433106577	56	127
150.92893424036282	151.06825396825397	58	127
150.92893424036282	151.06825396825397	55	127
151.0334240362812	151.1263038548753	79	127
151.0334240362812	151.1263038548753	67	127
151.1263038548753	151.24240362811793	56	127
151.1263038548753	151.4513605442177	80	127
151.1263038548753	151.4513605442177	68	127
151.1263038548753	151.24240362811793	53	127
151.30043083900227	151.41655328798186	65	127
151.30043083900227	151.41655328798186	61	127
151.4629931972789	151.55585034013606	63	127
151.4629931972789	151.76485260770974	70	127
151.4629931972789	151.76485260770974	82	127
151.4629931972789	151.55585034013606	60	127
151.6022902494331	151.73002267573696	62	127
151.6022902494331	151.73002267573696	58	127
151.776462585034	152.44984126984127	72	127
151.776462585034	151.90417233560092	60	127
151.776462585034	151.90417233560092	56	127
151.776462585034	152.44984126984127	84	127
151.95061224489797	152.06668934240363	58	127
151.95061224489797	152.06668934240363	55	127
152.11315192743766	152.24086167800453	56	127
152.11315192743766	152.24086167800453	53	127
152.28730158730158	152.40340136054422	51	127
152.28730158730158	152.40340136054422	55	127
152.44984126984127	152.55433106575964	53	127
152.44984126984127	152.76331065759638	85	127
152.44984126984127	152.76331065759638	73	127
152.44984126984127	152.55433106575964	49	127
152.61238095238096	152.72845804988663	51	127
152.61238095238096	152.72845804988663	48	127
152.77492063492065	152.86780045351475	87	127
152.77492063492065	152.86780045351475	49	127
152.77492063492065	152.86780045351475	46	127
152.77492063492065	152.86780045351475	75	127
152.9142403628118	153.01873015873016	85	127
152.9142403628118	153.01873015873016	53	127
152.9142403628118	153.01873015873016	43	127
152.9142403628118	153.01873015873016	73	127
153.08836734693878	153.20448979591836	84	127
153.08836734693878	153.20448979591836	52	127
153.08836734693878	153.20448979591836	48	127
153.08836734693878	153.20448979591836	72	127
153.2509297052154	153.40185941043083	82	127
153.2509297052154	153.40185941043083	55	127
153.2509297052154	153.40185941043083	36	127
153.2509297052154	153.40185941043083	70	127
153.44827664399094	153.56439909297052	60	127
153.44827664399094	153.56439909297052	80	127
153.44827664399094	153.56439909297052	68	127
153.44827664399094	153.56439909297052	38	127
153.6340589569161	153.7965986394558	67	127
153.6340589569161	153.7965986394558	79	127
153.6340589569161	153.7965986394558	60	127
153.6340589569161	153.7965986394558	40	127
153.84303854875284	154.15650793650795	68	127
153.84303854875284	154.15650793650795	41	127
153.84303854875284	154.15650793650795	53	127
153.84303854875284	153.9475283446712	80	127
153.99396825396826	154.12167800453514	79	127
154.1681179138322	154.2958276643991	77	127
154.34226757369615	154.4583673469388	73	127
154.50480725623584	154.63251700680271	72	127
154.67895691609976	154.7950566893424	70	127
154.84149659863945	154.9575963718821	68	127
154.84149659863945	155.16657596371883	65	127
155.0156462585034	155.13172335600908	67	127
155.1781859410431	155.2942857142857	65	127
155.34072562358276	155.4568253968254	61	127
155.5148752834467	155.63097505668935	60	127
155.7006349206349	155.8631746031746	48	127
155.7006349206349	155.81673469387755	58	127
155.8631746031746	155.96766439909297	56	127
155.8631746031746	156.1766439909297	53	127
156.0257142857143	156.14181405895692	55	127
156.18825396825397	156.3043537414966	53	127
156.36238095238096	156.47850340136054	49	127
156.5249433106576	156.64104308390023	48	127
156.69909297052155	156.8151927437642	46	127
156.69909297052155	156.86163265306124	72	127
156.87321995464853	156.9661224489796	60	127
156.87321995464853	156.9661224489796	77	127
156.87321995464853	156.9661224489796	56	127
156.87321995464853	156.9661224489796	44	127
157.02414965986395	157.14027210884353	65	127
157.02414965986395	157.14027210884353	60	127
157.02414965986395	157.14027210884353	43	127
157.02414965986395	157.14027210884353	68	127
157.19832199546485	157.4653514739229	68	127
157.19832199546485	157.4653514739229	60	127
157.19832199546485	157.4653514739229	41	127
157.19832199546485	157.4653514739229	65	127
157.558231292517	157.7904081632653	68	127
157.558231292517	157.7904081632653	61	127
157.558231292517	157.7904081632653	49	127
157.558231292517	157.7904081632653	65	127
157.88331065759638	157.999410430839	67	127
157.88331065759638	157.999410430839	61	127
157.88331065759638	157.999410430839	46	127
157.88331065759638	157.999410430839	65	127
158.0574603174603	158.17356009070295	67	127
158.0574603174603	158.17356009070295	61	127
158.0574603174603	158.17356009070295	46	127
158.0574603174603	158.17356009070295	65	127
158.22	158.47541950113379	67	127
158.22	158.47541950113379	43	127
158.22	158.47541950113379	58	127
158.22	158.47541950113379	65	127
158.56829931972788	158.8469387755102	58	127
158.56829931972788	158.8469387755102	67	127
158.56829931972788	158.8469387755102	64	127
158.56829931972788	158.8469387755102	48	127
158.95142857142858	159.07913832199546	53	127
158.95142857142858	159.07913832199546	68	127
158.95142857142858	159.07913832199546	65	127
158.95142857142858	159.07913832199546	60	127
159.1255782312925	159.25328798185942	77	127
159.1255782312925	159.25328798185942	80	127
159.1255782312925	159.25328798185942	60	127
159.1255782312925	159.25328798185942	53	127
159.29972789115646	159.4158276643991	77	127
159.29972789115646	159.4158276643991	61	127
159.29972789115646	159.4158276643991	49	127
159.29972789115646	159.4158276643991	80	127
159.47387755102042	159.57834467120182	80	127
159.47387755102042	159.57834467120182	65	127
159.47387755102042	159.57834467120182	49	127
159.47387755102042	159.57834467120182	73	127
159.6015873015873	159.7292970521542	82	127
159.6015873015873	159.7292970521542	46	127
159.6015873015873	159.7292970521542	65	127
159.6015873015873	159.7292970521542	73	127
159.77573696145126	159.89183673469387	46	127
159.77573696145126	159.89183673469387	82	127
159.77573696145126	159.89183673469387	73	127
159.77573696145126	159.89183673469387	65	127
159.9498866213152	160.06598639455783	73	127
159.9498866213152	160.06598639455783	63	127
159.9498866213152	160.06598639455783	42	127
159.9498866213152	160.06598639455783	82	127
160.11242630385487	160.2285260770975	42	127
160.11242630385487	160.2285260770975	82	127
160.11242630385487	160.2285260770975	73	127
160.11242630385487	160.2285260770975	63	127
160.27496598639456	160.3910657596372	82	127
160.27496598639456	160.3910657596372	73	127
160.27496598639456	160.3910657596372	66	127
160.27496598639456	160.3910657596372	39	127
160.44909297052155	160.55358276643992	72	127
160.44909297052155	160.55358276643992	82	127
160.44909297052155	160.55358276643992	66	127
160.44909297052155	160.55358276643992	39	127
160.58843537414967	160.70451247165533	44	127
160.58843537414967	160.70451247165533	80	127
160.58843537414967	160.70451247165533	72	127
160.58843537414967	160.70451247165533	66	127
160.75097505668936	160.87868480725623	80	127
160.75097505668936	160.87868480725623	72	127
160.75097505668936	160.87868480725623	66	127
160.75097505668936	160.87868480725623	44	127
160.92512471655328	161.02961451247165	37	127
160.92512471655328	162.3995918367347	80	127
160.92512471655328	161.41274376417235	73	127
160.92512471655328	161.02961451247165	65	127
161.0760544217687	161.19215419501134	65	127
161.0760544217687	161.19215419501134	61	127
161.2385941043084	161.37791383219954	61	127
161.2385941043084	161.37791383219954	65	127
161.4243537414966	161.54045351473923	68	127
161.4243537414966	161.54045351473923	61	127
161.4243537414966	161.54045351473923	65	127
161.58689342403628	161.70299319727891	61	127
161.58689342403628	161.70299319727891	73	127
161.58689342403628	161.70299319727891	65	127
161.74943310657596	161.8771201814059	77	127
161.74943310657596	161.8771201814059	65	127
161.74943310657596	161.8771201814059	61	127
161.92358276643992	162.03968253968253	63	127
161.92358276643992	162.03968253968253	75	127
161.92358276643992	162.03968253968253	66	127
162.08609977324264	162.20222222222222	63	127
162.08609977324264	162.20222222222222	66	127
162.08609977324264	162.20222222222222	73	127
162.26027210884354	162.37637188208618	63	127
162.26027210884354	162.37637188208618	66	127
162.26027210884354	162.37637188208618	72	127
162.41120181405896	162.5273015873016	70	127
162.41120181405896	162.5273015873016	80	127
162.41120181405896	162.5273015873016	66	127
162.41120181405896	162.5273015873016	63	127
162.57374149659864	162.678231292517	63	127
162.57374149659864	162.678231292517	87	127
162.57374149659864	162.678231292517	72	127
162.57374149659864	162.678231292517	66	127
162.73628117913833	162.852358276644	90	127
162.73628117913833	162.852358276644	63	127
162.73628117913833	162.852358276644	66	127
162.73628117913833	162.852358276644	68	127
162.89882086167802	163.20068027210885	61	127
162.89882086167802	163.00328798185942	80	127
162.89882086167802	163.00328798185942	73	127
162.89882086167802	163.00328798185942	68	127
163.04975056689344	163.1542403628118	85	127
163.04975056689344	163.1542403628118	77	127
163.04975056689344	163.1542403628118	56	127
163.21226757369615	163.32839002267573	80	127
163.21226757369615	163.32839002267573	61	127
163.21226757369615	163.32839002267573	89	127
163.37482993197278	163.49092970521542	65	127
163.37482993197278	163.69990929705216	92	127
163.37482993197278	163.49092970521542	68	127
163.37482993197278	163.49092970521542	44	127
163.53736961451247	163.66507936507938	65	127
163.53736961451247	163.66507936507938	49	127
163.71151927437643	164.01337868480726	92	127
163.71151927437643	163.82761904761904	61	127
163.71151927437643	163.82761904761904	53	127
163.87403628117914	163.99015873015873	51	127
163.87403628117914	163.99015873015873	60	127
164.01337868480726	164.36167800453515	90	127
164.01337868480726	164.14108843537414	63	127
164.01337868480726	164.14108843537414	56	127
164.01337868480726	164.14108843537414	49	127
164.1875283446712	164.3152380952381	56	127
164.1875283446712	164.3152380952381	63	127
164.1875283446712	164.3152380952381	48	127
164.36167800453515	164.4777777777778	46	127
164.36167800453515	164.68675736961453	90	127
164.36167800453515	164.4777777777778	75	127
164.36167800453515	164.4777777777778	66	127
164.53580498866214	164.65192743764172	63	127
164.53580498866214	164.65192743764172	48	127
164.69836734693877	164.84929705215418	44	127
164.69836734693877	165.05827664399092	90	127
164.69836734693877	165.05827664399092	68	127
164.69836734693877	164.84929705215418	60	127
164.8957142857143	165.01183673469387	37	127
164.8957142857143	165.05827664399092	61	127
165.0698866213152	165.18598639455783	41	127
165.0698866213152	165.44140589569162	61	127
165.0698866213152	165.44140589569162	68	127
165.0698866213152	165.44140589569162	89	127
165.23242630385488	165.39496598639457	44	127
165.44140589569162	165.76646258503402	68	127
165.44140589569162	165.55750566893425	49	127
165.44140589569162	165.76646258503402	89	127
165.61555555555555	165.73165532879818	53	127
165.77809523809523	166.1031746031746	89	127
165.77809523809523	165.89419501133787	56	127
165.77809523809523	165.94063492063492	68	127
165.94063492063492	166.06834467120183	61	127
166.11478458049888	166.43986394557822	89	127
166.11478458049888	166.2308843537415	65	127
166.2773015873016	166.39342403628117	68	127
166.43986394557822	166.56757369614513	73	127
166.43986394557822	166.56757369614513	77	127
166.61401360544218	166.73011337868482	80	127
166.77655328798187	166.88104308390024	85	127
166.90426303854875	167.06680272108844	72	127
166.90426303854875	167.06680272108844	68	127
166.90426303854875	167.06680272108844	89	127
166.90426303854875	167.03197278911566	36	127
167.0784126984127	167.47315192743764	72	127
167.0784126984127	167.21773242630385	41	127
167.0784126984127	167.47315192743764	89	127
167.0784126984127	167.47315192743764	68	127
167.29897959183674	167.4267120181406	44	127
167.4847619047619	167.8098185941043	89	127
167.4847619047619	167.8098185941043	68	127
167.4847619047619	167.8098185941043	72	127
167.4847619047619	167.60086167800455	48	127
167.6473015873016	167.7634013605442	53	127
167.8098185941043	167.9259410430839	56	127
167.8098185941043	168.1465306122449	89	127
167.8098185941043	167.97238095238095	72	127
167.8098185941043	167.97238095238095	68	127
167.98399092970521	168.11170068027212	60	127
168.15814058956917	168.4948299319728	89	127
168.15814058956917	168.28585034013605	65	127
168.3322902494331	168.46	68	127
168.50643990929706	168.6225396825397	72	127
168.50643990929706	168.6225396825397	77	127
168.66897959183675	168.78507936507935	80	127
168.83149659863946	168.9592290249433	84	127
169.00566893424036	169.16820861678005	74	127
169.00566893424036	169.16820861678005	68	127
169.00566893424036	169.16820861678005	89	127
169.00566893424036	169.121768707483	47	127
169.16820861678005	169.57455782312925	89	127
169.16820861678005	169.57455782312925	74	127
169.16820861678005	169.29591836734693	50	127
169.16820861678005	169.57455782312925	68	127
169.34233560090703	169.53972789115647	53	127
169.58616780045352	169.91124716553287	89	127
169.58616780045352	169.91124716553287	74	127
169.58616780045352	169.7022448979592	59	127
169.58616780045352	169.91124716553287	68	127
169.7487074829932	169.86480725623582	62	127
169.92285714285714	170.07378684807256	74	127
169.92285714285714	170.24793650793652	89	127
169.92285714285714	170.03895691609978	65	127
169.92285714285714	170.07378684807256	68	127
170.08539682539683	170.20149659863947	71	127
170.24793650793652	170.36401360544218	74	127
170.24793650793652	170.54979591836735	89	127
170.42208616780044	170.51496598639457	77	127
170.56140589569162	170.66589569161	77	127
170.71233560090704	170.8284126984127	83	127
170.88648526077097	171.0025850340136	86	127
171.06063492063493	171.19995464852607	89	127
171.06063492063493	171.19995464852607	74	127
171.06063492063493	171.19995464852607	77	127
171.06063492063493	171.19995464852607	44	127
171.2580045351474	171.60630385487528	89	127
171.2580045351474	171.60630385487528	77	127
171.2580045351474	171.4089342403628	50	127
171.2580045351474	171.60630385487528	74	127
171.45537414965986	171.5714739229025	53	127
171.61791383219955	171.94299319727892	89	127
171.61791383219955	171.94299319727892	77	127
171.61791383219955	171.7340136054422	56	127
171.61791383219955	171.94299319727892	74	127
171.78045351473924	171.90816326530611	62	127
171.95460317460316	172.27968253968254	89	127
171.95460317460316	172.0707029478458	74	127
171.95460317460316	172.0707029478458	77	127
171.95460317460316	172.0707029478458	65	127
172.11714285714285	172.2332426303855	71	127
172.2912925170068	172.40736961451248	74	127
172.2912925170068	172.6163492063492	89	127
172.4538321995465	172.5699319727891	77	127
172.6163492063492	172.7324716553288	77	127
172.7905215419501	172.90662131519275	83	127
172.9530612244898	173.06916099773244	86	127
173.1271882086168	173.24331065759637	71	127
173.1271882086168	173.24331065759637	43	127
173.1271882086168	173.24331065759637	89	127
173.1271882086168	173.24331065759637	62	127
173.1271882086168	173.24331065759637	55	127
173.3013605442177	173.63802721088436	62	127
173.3013605442177	173.63802721088436	55	127
173.3013605442177	173.4290702947846	55	127
173.3013605442177	173.4290702947846	47	127
173.3013605442177	173.63802721088436	71	127
173.47551020408164	173.59160997732425	50	127
173.47551020408164	173.59160997732425	59	127
173.63802721088436	173.91668934240363	55	127
173.63802721088436	173.91668934240363	62	127
173.63802721088436	174.23015873015873	62	127
173.63802721088436	174.23015873015873	71	127
173.63802721088436	174.23015873015873	55	127
174.03278911564627	174.19532879818595	65	127
174.03278911564627	174.19532879818595	59	127
174.241768707483	174.62489795918367	55	127
174.241768707483	174.62489795918367	62	127
174.241768707483	174.36947845804988	71	127
174.241768707483	174.36947845804988	62	127
174.46235827664398	174.5900680272109	74	127
174.46235827664398	174.5900680272109	62	127
174.46235827664398	174.5900680272109	71	127
174.63650793650794	174.75260770975058	71	127
174.63650793650794	174.75260770975058	59	127
174.63650793650794	174.75260770975058	77	127
174.63650793650794	174.75260770975058	62	127
174.63650793650794	174.75260770975058	55	127
174.79904761904763	174.9267573696145	71	127
174.79904761904763	174.9267573696145	55	127
174.79904761904763	174.9267573696145	83	127
174.79904761904763	174.9267573696145	62	127
174.79904761904763	174.9267573696145	55	127
174.97319727891156	175.11251700680273	50	127
174.97319727891156	175.11251700680273	86	127
174.97319727891156	175.11251700680273	62	127
174.97319727891156	175.11251700680273	71	127
174.97319727891156	175.11251700680273	55	127
175.15895691609978	175.3214739229025	55	127
175.15895691609978	175.3214739229025	47	127
175.15895691609978	175.3214739229025	89	127
175.15895691609978	175.3214739229025	62	127
175.15895691609978	175.3214739229025	71	127
175.39115646258503	175.53045351473924	71	127
175.39115646258503	175.53045351473924	43	127
175.39115646258503	175.53045351473924	89	127
175.39115646258503	175.53045351473924	62	127
175.39115646258503	175.53045351473924	55	127
175.57689342403629	175.70462585034014	66	127
175.57689342403629	175.70462585034014	42	127
175.57689342403629	175.70462585034014	78	127
175.57689342403629	175.70462585034014	90	127
175.57689342403629	175.70462585034014	54	127
175.75106575963719	175.89038548752833	66	127
175.75106575963719	175.89038548752833	42	127
175.75106575963719	175.89038548752833	78	127
175.75106575963719	175.89038548752833	90	127
175.75106575963719	175.89038548752833	54	127
175.94843537414965	176.31995464852608	90	127
175.94843537414965	176.31995464852608	54	127
175.94843537414965	176.31995464852608	42	127
175.94843537414965	176.31995464852608	78	127
175.94843537414965	176.31995464852608	66	127
177.9453514739229	178.27043083900227	66	127
177.9453514739229	178.27043083900227	75	127
177.9453514739229	178.27043083900227	59	127
177.9453514739229	178.27043083900227	59	127
178.27043083900227	178.61873015873016	58	127
178.27043083900227	178.61873015873016	54	127
178.27043083900227	178.61873015873016	73	127
178.27043083900227	178.61873015873016	64	127
178.6419501133787	179.08312925170068	63	127
178.6419501133787	179.08312925170068	56	127
178.6419501133787	179.08312925170068	71	127
178.6419501133787	179.08312925170068	59	127
179.08312925170068	179.50108843537416	56	127
179.08312925170068	179.50108843537416	52	127
179.08312925170068	179.4198185941043	76	127
179.08312925170068	179.50108843537416	68	127
179.4198185941043	179.51269841269843	73	127
179.51269841269843	179.8261678004535	66	127
179.51269841269843	179.8261678004535	54	127
179.51269841269843	179.8261678004535	71	127
179.51269841269843	179.8261678004535	63	127
179.83777777777777	180.24412698412698	66	127
179.83777777777777	180.24412698412698	52	127
179.83777777777777	180.24412698412698	70	127
179.83777777777777	180.24412698412698	61	127
180.24412698412698	180.59240362811792	59	127
180.24412698412698	180.59240362811792	78	127
180.24412698412698	180.59240362811792	66	127
180.24412698412698	180.59240362811792	51	127
180.60403628117913	180.91750566893424	58	127
180.60403628117913	180.91750566893424	54	127
180.60403628117913	180.91750566893424	76	127
180.60403628117913	180.91750566893424	73	127
180.9291156462585	181.30063492063493	71	127
180.9291156462585	181.30063492063493	56	127
180.9291156462585	181.30063492063493	75	127
180.9291156462585	181.30063492063493	59	127
181.30063492063493	181.54444444444445	76	127
181.30063492063493	181.62571428571428	52	127
181.30063492063493	181.54444444444445	80	127
181.30063492063493	181.62571428571428	56	127
181.54444444444445	181.62571428571428	76	127
181.54444444444445	181.62571428571428	73	127
181.62571428571428	181.9972335600907	54	127
181.62571428571428	181.9972335600907	75	127
181.62571428571428	181.9972335600907	71	127
181.62571428571428	181.9972335600907	54	127
181.9972335600907	182.39197278911564	66	127
181.9972335600907	182.39197278911564	73	127
181.9972335600907	182.39197278911564	70	127
181.9972335600907	182.39197278911564	52	127
182.39197278911564	182.70544217687075	78	127
182.39197278911564	182.78668934240363	66	127
182.39197278911564	182.78668934240363	71	127
182.39197278911564	182.70544217687075	51	127
182.70544217687075	182.79832199546485	75	127
182.70544217687075	182.79832199546485	47	127
182.79832199546485	183.20467120181405	52	127
182.79832199546485	183.20467120181405	73	127
182.79832199546485	183.20467120181405	68	127
182.79832199546485	183.20467120181405	64	127
184.1102494331066	184.57462585034014	61	127
184.1102494331066	184.57462585034014	70	127
184.1102494331066	184.57462585034014	64	127
184.1102494331066	184.57462585034014	54	127
185.02743764172337	186.25809523809525	47	127
185.02743764172337	185.24802721088435	75	127
185.02743764172337	185.24802721088435	59	127
185.29444444444445	185.41056689342403	75	127
185.29444444444445	185.41056689342403	54	127
185.45700680272108	185.61954648526077	59	127
185.45700680272108	185.78208616780046	75	127
185.66598639455782	185.85172335600907	54	127
185.90979591836734	186.03750566893424	59	127
185.90979591836734	186.1768253968254	75	127
186.0839455782313	186.21163265306123	54	127
186.2697052154195	187.33780045351475	46	127
186.2697052154195	186.3974149659864	66	127
186.2697052154195	186.3974149659864	61	127
186.2697052154195	187.33780045351475	76	127
186.47868480725623	186.60639455782314	54	127
186.47868480725623	186.60639455782314	66	127
186.6528344671202	186.76893424036282	61	127
186.6528344671202	186.91986394557824	66	127
186.82696145124717	186.9663038548753	54	127
187.01274376417234	187.25655328798186	66	127
187.01274376417234	187.12884353741498	61	127
187.17528344671203	187.29138321995464	54	127
187.34943310657596	187.4655328798186	59	127
187.34943310657596	188.3711111111111	47	127
187.34943310657596	187.4655328798186	75	127
187.51197278911565	187.62807256235828	75	127
187.51197278911565	187.62807256235828	54	127
187.67451247165533	187.79061224489797	59	127
187.67451247165533	187.89510204081634	75	127
187.82544217687075	187.9531292517007	54	127
188.01120181405895	188.26662131519274	75	127
188.01120181405895	188.1273015873016	59	127
188.17374149659864	188.33628117913833	54	127
188.38272108843537	189.42761904761906	73	127
188.38272108843537	188.54526077097506	66	127
188.38272108843537	188.54526077097506	58	127
188.38272108843537	189.42761904761906	42	127
188.5917006802721	188.70780045351475	66	127
188.5917006802721	188.70780045351475	54	127
188.7542403628118	188.87031746031747	58	127
188.7542403628118	188.98643990929705	66	127
188.9167800453515	189.0328798185941	54	127
189.09092970521542	189.3463492063492	66	127
189.09092970521542	189.21863945578232	58	127
189.27666666666667	189.39278911564625	54	127
189.4392290249433	190.46090702947845	44	127
189.4392290249433	189.55532879818594	56	127
189.4392290249433	189.55532879818594	71	127
189.601768707483	189.7294784580499	71	127
189.601768707483	189.7294784580499	51	127
189.78752834467122	189.92684807256236	63	127
189.78752834467122	189.92684807256236	56	127
189.78752834467122	190.05455782312924	71	127
189.99648526077098	190.08938775510205	63	127
189.99648526077098	190.08938775510205	51	127
190.1358276643991	190.36802721088435	63	127
190.1358276643991	190.2287074829932	56	127
190.1358276643991	190.36802721088435	71	127
190.2983673469388	190.42607709750567	51	127
190.47251700680272	191.81927437641724	39	127
190.47251700680272	190.58861678004536	70	127
190.47251700680272	190.58861678004536	63	127
190.47251700680272	190.58861678004536	54	127
190.61183673469387	190.75115646258504	70	127
190.61183673469387	190.75115646258504	63	127
190.61183673469387	190.75115646258504	51	127
190.7975963718821	190.9485260770975	70	127
190.7975963718821	190.9485260770975	63	127
190.7975963718821	190.9485260770975	54	127
190.99496598639456	191.25038548752835	63	127
190.99496598639456	191.25038548752835	70	127
190.99496598639456	191.25038548752835	51	127
191.30843537414967	191.54063492063491	70	127
191.30843537414967	191.54063492063491	63	127
191.30843537414967	191.54063492063491	54	127
191.58707482993196	191.76122448979592	70	127
191.58707482993196	191.76122448979592	63	127
191.58707482993196	191.76122448979592	51	127
191.81927437641724	194.501179138322	46	127
191.81927437641724	193.09637188208617	62	127
191.81927437641724	194.501179138322	70	127
191.81927437641724	194.501179138322	53	127
193.09637188208617	194.501179138322	61	127
194.501179138322	194.61727891156463	42	127
194.501179138322	194.61727891156463	82	127
194.501179138322	194.61727891156463	70	127
194.501179138322	194.61727891156463	54	127
194.67532879818594	194.80303854875282	82	127
194.67532879818594	194.80303854875282	70	127
194.67532879818594	194.80303854875282	61	127
194.67532879818594	194.80303854875282	58	127
194.84947845804987	195.08167800453515	82	127
194.84947845804987	195.08167800453515	70	127
194.84947845804987	194.9655782312925	58	127
194.84947845804987	194.9655782312925	54	127
195.01201814058956	195.11650793650793	58	127
195.01201814058956	195.11650793650793	61	127
195.17455782312925	195.2906575963719	54	127
195.17455782312925	195.2906575963719	58	127
195.17455782312925	195.41836734693877	82	127
195.17455782312925	195.41836734693877	70	127
195.33709750566894	195.45319727891157	58	127
195.33709750566894	195.45319727891157	61	127
195.49963718820862	196.52131519274377	71	127
195.49963718820862	195.63895691609977	56	127
195.49963718820862	195.63895691609977	53	127
195.49963718820862	196.52131519274377	83	127
195.6970068027211	195.81310657596373	56	127
195.6970068027211	195.81310657596373	61	127
195.85954648526078	195.9756462585034	53	127
195.85954648526078	195.9756462585034	56	127
196.02208616780047	196.14979591836735	56	127
196.02208616780047	196.14979591836735	61	127
196.1962358276644	196.31233560090703	56	127
196.1962358276644	196.31233560090703	53	127
196.35877551020408	196.47487528344672	61	127
196.35877551020408	196.47487528344672	56	127
196.52131519274377	196.66063492063492	58	127
196.52131519274377	196.66063492063492	82	127
196.52131519274377	196.66063492063492	70	127
196.52131519274377	196.66063492063492	54	127
196.70707482993197	196.83478458049888	58	127
196.70707482993197	196.83478458049888	82	127
196.70707482993197	196.83478458049888	70	127
196.70707482993197	196.83478458049888	54	127
196.88122448979593	197.1366439909297	82	127
196.88122448979593	197.0089342403628	54	127
196.88122448979593	197.0089342403628	51	127
196.88122448979593	197.1366439909297	70	127
197.06698412698412	197.18308390022676	58	127
197.06698412698412	197.18308390022676	54	127
197.2295238095238	197.5081632653061	82	127
197.2295238095238	197.36884353741496	54	127
197.2295238095238	197.36884353741496	51	127
197.2295238095238	197.5081632653061	70	127
197.42689342403628	197.54299319727892	58	127
197.42689342403628	197.54299319727892	54	127
197.60104308390024	197.72875283446712	53	127
197.60104308390024	197.72875283446712	50	127
197.60104308390024	198.62272108843538	80	127
197.60104308390024	198.62272108843538	68	127
197.77519274376417	197.8912925170068	53	127
197.77519274376417	197.8912925170068	58	127
197.94934240362812	198.06544217687076	50	127
197.94934240362812	198.06544217687076	53	127
198.12349206349205	198.2395918367347	53	127
198.12349206349205	198.2395918367347	58	127
198.28603174603174	198.40213151927438	53	127
198.28603174603174	198.40213151927438	50	127
198.4601814058957	198.58789115646258	58	127
198.4601814058957	198.58789115646258	53	127
198.63433106575962	198.75043083900226	54	127
198.63433106575962	198.75043083900226	78	127
198.63433106575962	198.75043083900226	66	127
198.63433106575962	198.75043083900226	51	127
198.80848072562358	198.94780045351473	54	127
198.80848072562358	198.94780045351473	78	127
198.80848072562358	198.94780045351473	66	127
198.80848072562358	198.94780045351473	51	127
198.99424036281178	199.24965986394557	78	127
198.99424036281178	199.13356009070296	51	127
198.99424036281178	199.13356009070296	46	127
198.99424036281178	199.24965986394557	66	127
199.18	199.29609977324262	54	127
199.18	199.29609977324262	51	127
199.35414965986394	199.621179138322	78	127
199.35414965986394	199.4934693877551	51	127
199.35414965986394	199.4934693877551	46	127
199.35414965986394	199.621179138322	66	127
199.5515192743764	199.66761904761904	54	127
199.5515192743764	199.66761904761904	51	127
199.7140589569161	199.841768707483	65	127
199.7140589569161	199.841768707483	77	127
199.7140589569161	199.841768707483	49	127
199.7140589569161	199.841768707483	46	127
199.88820861678005	200.08557823129252	49	127
199.88820861678005	200.08557823129252	65	127
199.88820861678005	200.08557823129252	77	127
199.88820861678005	200.08557823129252	53	127
200.14362811791383	200.3177777777778	49	127
200.14362811791383	200.3177777777778	77	127
200.14362811791383	200.3177777777778	65	127
200.14362811791383	200.3177777777778	46	127
200.38743764172335	200.5267573696145	49	127
200.38743764172335	200.5267573696145	77	127
200.38743764172335	200.5267573696145	65	127
200.38743764172335	200.5267573696145	53	127
200.58480725623582	200.70090702947846	46	127
200.58480725623582	200.70090702947846	77	127
200.58480725623582	200.70090702947846	65	127
200.58480725623582	200.70090702947846	49	127
200.75895691609978	200.99115646258502	53	127
200.75895691609978	200.99115646258502	77	127
200.75895691609978	200.99115646258502	65	127
200.75895691609978	200.99115646258502	49	127
201.1304761904762	203.38281179138323	48	127
201.1304761904762	203.38281179138323	64	127
201.1304761904762	203.38281179138323	55	127
201.1304761904762	203.55696145124716	76	127
203.38281179138323	206.2156462585034	55	127
203.38281179138323	203.5105215419501	36	127
203.38281179138323	203.5105215419501	48	127
203.38281179138323	206.2156462585034	48	127
203.38281179138323	206.2156462585034	64	127
203.38281179138323	206.2156462585034	55	127
203.56857142857143	203.68467120181407	36	127
203.56857142857143	203.68467120181407	48	127
203.56857142857143	203.73111111111112	76	127
203.7427210884354	203.90526077097505	79	127
203.7427210884354	204.02136054421769	48	127
203.7427210884354	204.02136054421769	36	127
203.90526077097505	204.10263038548752	84	127
204.11424036281178	204.36965986394557	36	127
204.11424036281178	204.36965986394557	48	127
204.11424036281178	204.27678004535147	88	127
204.28839002267574	204.45092970521543	72	127
204.45092970521543	204.6134693877551	76	127
204.45092970521543	204.5786394557823	36	127
204.45092970521543	204.5786394557823	48	127
204.63668934240363	204.78761904761905	79	127
204.63668934240363	204.75278911564627	48	127
204.63668934240363	204.75278911564627	36	127
204.78761904761905	204.95015873015873	84	127
204.78761904761905	205.03142857142856	36	127
204.78761904761905	205.03142857142856	48	127
204.95015873015873	205.11269841269842	67	127
205.12430839002266	205.35650793650794	48	127
205.12430839002266	205.35650793650794	36	127
205.12430839002266	205.2752380952381	72	127
205.2752380952381	205.43777777777777	76	127
205.44938775510204	205.60031746031746	64	127
205.44938775510204	205.56548752834468	36	127
205.44938775510204	205.56548752834468	48	127
205.61192743764173	205.72802721088436	36	127
205.61192743764173	205.72802721088436	48	127
205.61192743764173	205.78607709750568	67	127
205.78607709750568	205.98344671201815	72	127
205.78607709750568	205.9370068027211	48	127
205.78607709750568	205.9370068027211	36	127
205.9950566893424	206.16920634920635	48	127
205.9950566893424	206.2156462585034	60	127
205.9950566893424	206.16920634920635	36	127
206.22725623582767	206.57555555555555	48	127
206.22725623582767	206.57555555555555	55	127
206.22725623582767	206.3433560090703	36	127
206.22725623582767	206.3433560090703	48	127
206.22725623582767	206.38979591836735	63	127
206.22725623582767	206.57555555555555	55	127
206.22725623582767	206.57555555555555	63	127
206.38979591836735	206.50589569160996	36	127
206.38979591836735	206.50589569160996	48	127
206.38979591836735	206.57555555555555	67	127
206.58716553287982	207.22571428571428	63	127
206.58716553287982	206.7148752834467	72	127
206.58716553287982	207.22571428571428	67	127
206.58716553287982	207.58562358276643	36	127
206.58716553287982	207.58562358276643	48	127
206.76131519274375	206.8774149659864	75	127
206.92385487528344	207.03995464852608	79	127
207.08639455782313	207.1908843537415	84	127
207.23732426303854	207.35342403628118	87	127
207.23732426303854	207.58562358276643	69	127
207.23732426303854	207.58562358276643	66	127
207.42308390022677	207.55079365079365	84	127
207.5972335600907	210.33718820861677	83	127
207.5972335600907	207.71333333333334	55	127
207.5972335600907	207.71333333333334	67	127
207.5972335600907	207.71333333333334	43	127
207.5972335600907	207.92231292517008	62	127
207.7597732426304	207.87587301587303	55	127
207.7597732426304	207.87587301587303	67	127
207.7597732426304	207.87587301587303	55	127
207.93392290249434	208.05002267573695	59	127
207.93392290249434	208.1661224489796	55	127
207.93392290249434	208.1661224489796	67	127
208.096462585034	208.21256235827664	62	127
208.2590022675737	208.37510204081633	67	127
208.2590022675737	208.5028117913832	55	127
208.2590022675737	208.5028117913832	67	127
208.43315192743765	208.5724716553288	50	127
208.61891156462585	208.73501133786849	55	127
208.61891156462585	210.33718820861677	71	127
208.61891156462585	210.33718820861677	67	127
208.61891156462585	208.73501133786849	55	127
208.61891156462585	208.73501133786849	67	127
208.78145124716553	208.89755102040817	55	127
208.78145124716553	208.89755102040817	59	127
208.78145124716553	208.89755102040817	67	127
208.96721088435373	209.2342403628118	55	127
208.96721088435373	209.2342403628118	67	127
208.96721088435373	209.09492063492064	62	127
209.1413605442177	209.26907029478457	47	127
209.31551020408162	209.55931972789116	55	127
209.31551020408162	209.55931972789116	67	127
209.31551020408162	209.44321995464853	50	127
209.48965986394558	209.6057596371882	55	127
209.65219954648526	209.7682993197279	43	127
209.65219954648526	209.7682993197279	55	127
209.65219954648526	209.7682993197279	67	127
209.81473922902495	209.94244897959183	67	127
209.81473922902495	209.94244897959183	55	127
209.81473922902495	209.94244897959183	47	127
209.98888888888888	210.1165986394558	50	127
209.98888888888888	210.1165986394558	55	127
209.98888888888888	210.1165986394558	67	127
210.16303854875284	210.29074829931972	55	127
210.16303854875284	210.29074829931972	55	127
210.16303854875284	210.29074829931972	67	127
210.33718820861677	210.4881179138322	50	127
210.33718820861677	210.4881179138322	55	127
210.33718820861677	210.4881179138322	67	127
210.33718820861677	210.69709750566892	82	127
210.33718820861677	210.69709750566892	67	127
210.33718820861677	210.69709750566892	70	127
210.53455782312926	210.65065759637187	67	127
210.53455782312926	210.65065759637187	55	127
210.53455782312926	210.65065759637187	46	127
210.69709750566892	211.73038548752834	55	127
210.69709750566892	210.81319727891156	43	127
210.69709750566892	211.39369614512472	62	127
210.69709750566892	211.39369614512472	70	127
210.69709750566892	211.73038548752834	67	127
210.87124716553288	210.9989569160998	46	127
211.04539682539684	211.16149659863945	43	127
211.2079365079365	211.3356462585034	41	127
211.405306122449	211.73038548752834	73	127
211.405306122449	211.5214058956916	40	127
211.405306122449	211.73038548752834	64	127
211.56784580498865	211.6839455782313	45	127
211.73038548752834	214.54	65	127
211.73038548752834	211.84648526077098	62	127
211.73038548752834	211.84648526077098	74	127
211.73038548752834	214.54	38	127
211.9045351473923	212.02063492063493	74	127
211.9045351473923	212.02063492063493	65	127
211.9045351473923	212.02063492063493	62	127
212.0902947845805	212.39215419501133	62	127
212.0902947845805	212.2412244897959	69	127
212.0902947845805	212.39215419501133	74	127
212.28766439909296	212.43859410430838	74	127
212.48503401360543	212.61274376417234	77	127
212.48503401360543	212.75206349206348	62	127
212.48503401360543	212.75206349206348	74	127
212.67079365079366	212.7868934240363	62	127
212.83333333333334	212.96104308390022	74	127
212.83333333333334	212.96104308390022	65	127
212.83333333333334	212.96104308390022	62	127
213.00748299319727	213.14680272108845	74	127
213.00748299319727	213.14680272108845	69	127
213.00748299319727	213.14680272108845	62	127
213.1932426303855	213.43705215419502	62	127
213.1932426303855	213.43705215419502	74	127
213.1932426303855	213.3093424036281	57	127
213.36739229024943	213.48349206349206	62	127
213.52993197278911	213.7853514739229	62	127
213.52993197278911	213.7853514739229	74	127
213.52993197278911	213.64603174603175	65	127
213.6924716553288	213.82018140589568	53	127
213.88984126984127	214.01755102040818	74	127
213.88984126984127	214.01755102040818	56	127
213.88984126984127	214.01755102040818	62	127
214.06399092970523	214.1917006802721	62	127
214.06399092970523	214.1917006802721	74	127
214.06399092970523	214.1917006802721	59	127
214.23814058956916	214.36585034013606	74	127
214.23814058956916	214.36585034013606	62	127
214.23814058956916	214.36585034013606	62	127
214.42390022675738	214.52839002267575	65	127
214.42390022675738	214.52839002267575	62	127
214.42390022675738	214.52839002267575	74	127
214.55160997732426	214.64448979591836	68	127
214.55160997732426	214.8302494331066	65	127
214.55160997732426	214.64448979591836	62	127
214.55160997732426	214.64448979591836	74	127
214.55160997732426	214.8302494331066	38	127
214.6909297052154	214.79541950113378	74	127
214.6909297052154	214.79541950113378	71	127
214.6909297052154	214.79541950113378	62	127
214.84185941043083	215.79387755102042	74	127
214.84185941043083	214.9463492063492	68	127
214.84185941043083	215.4804081632653	77	127
214.84185941043083	215.4804081632653	38	127
214.84185941043083	215.79387755102042	62	127
214.99278911564625	215.09727891156462	65	127
215.13210884353742	215.2598185941043	62	127
215.31786848072562	215.43396825396826	59	127
215.4804081632653	215.79387755102042	50	127
215.4804081632653	215.59650793650795	56	127
215.4804081632653	215.79387755102042	80	127
215.642947845805	215.7590476190476	53	127
215.80548752834468	216.1421768707483	54	127
215.80548752834468	215.93319727891156	69	127
215.80548752834468	215.93319727891156	81	127
215.80548752834468	215.93319727891156	72	127
215.80548752834468	216.1421768707483	51	127
215.9796371882086	216.09573696145125	81	127
215.9796371882086	216.09573696145125	69	127
216.15378684807257	216.38598639455782	81	127
216.15378684807257	216.26988662131518	72	127
216.15378684807257	216.38598639455782	69	127
216.31632653061226	216.43242630385487	75	127
216.47886621315192	216.69945578231292	81	127
216.47886621315192	216.57174603174604	78	127
216.47886621315192	216.69945578231292	69	127
216.62979591836734	216.74589569160997	66	127
216.62979591836734	216.74589569160997	54	127
216.79233560090702	216.90843537414966	69	127
216.79233560090702	216.90843537414966	81	127
216.79233560090702	216.90843537414966	57	127
216.96648526077098	217.09419501133786	60	127
216.96648526077098	217.09419501133786	69	127
216.96648526077098	217.09419501133786	81	127
216.96648526077098	217.09419501133786	72	127
217.1406349206349	217.25673469387755	63	127
217.1406349206349	217.25673469387755	75	127
217.1406349206349	217.3960544217687	69	127
217.1406349206349	217.3960544217687	81	127
217.3031746031746	217.4308843537415	51	127
217.3031746031746	217.4308843537415	51	127
217.3031746031746	217.4308843537415	63	127
217.48893424036282	217.6166439909297	54	127
217.48893424036282	217.73274376417234	81	127
217.48893424036282	217.73274376417234	69	127
217.48893424036282	217.6166439909297	66	127
217.48893424036282	217.6166439909297	54	127
217.66308390022675	217.76757369614512	57	127
217.66308390022675	217.76757369614512	69	127
217.66308390022675	217.76757369614512	57	127
217.81401360544217	217.91850340136054	60	127
217.81401360544217	217.91850340136054	69	127
217.81401360544217	217.91850340136054	81	127
217.81401360544217	217.91850340136054	72	127
217.81401360544217	217.91850340136054	60	127
217.95333333333335	218.08104308390023	60	127
217.95333333333335	218.08104308390023	69	127
217.95333333333335	218.08104308390023	81	127
217.95333333333335	218.08104308390023	78	127
217.95333333333335	218.08104308390023	57	127
218.10426303854877	218.22036281179138	54	127
218.10426303854877	218.22036281179138	69	127
218.10426303854877	218.22036281179138	81	127
218.10426303854877	218.22036281179138	78	127
218.10426303854877	218.22036281179138	60	127
218.26680272108842	218.35968253968255	51	127
218.26680272108842	218.35968253968255	69	127
218.26680272108842	218.35968253968255	81	127
218.26680272108842	218.35968253968255	78	127
218.26680272108842	218.35968253968255	60	127
218.4061224489796	218.5222222222222	60	127
218.4061224489796	218.5222222222222	69	127
218.4061224489796	218.5222222222222	81	127
218.4061224489796	218.5222222222222	78	127
218.4061224489796	218.5222222222222	48	127
218.56866213151926	218.6847619047619	60	127
218.56866213151926	218.6847619047619	69	127
218.56866213151926	218.6847619047619	81	127
218.56866213151926	218.6847619047619	78	127
218.56866213151926	218.6847619047619	45	127
218.73120181405895	218.8473015873016	78	127
218.73120181405895	218.8473015873016	69	127
218.73120181405895	218.8473015873016	81	127
218.73120181405895	218.8473015873016	60	127
218.73120181405895	218.8473015873016	42	127
218.9053514739229	219.02145124716554	39	127
218.9053514739229	219.02145124716554	69	127
218.9053514739229	219.02145124716554	84	127
218.9053514739229	219.02145124716554	81	127
218.9053514739229	219.02145124716554	60	127
218.9053514739229	219.02145124716554	66	127
219.0678911564626	219.1839909297052	66	127
219.0678911564626	219.1839909297052	69	127
219.0678911564626	219.1839909297052	84	127
219.0678911564626	219.1839909297052	81	127
219.0678911564626	219.1839909297052	60	127
219.0678911564626	219.1839909297052	39	127
219.23043083900228	219.33492063492062	66	127
219.23043083900228	219.33492063492062	69	127
219.23043083900228	219.33492063492062	84	127
219.23043083900228	219.33492063492062	81	127
219.23043083900228	219.33492063492062	60	127
219.23043083900228	219.33492063492062	39	127
219.39297052154194	219.50907029478458	69	127
219.39297052154194	219.50907029478458	84	127
219.39297052154194	219.50907029478458	81	127
219.39297052154194	219.50907029478458	60	127
219.39297052154194	219.50907029478458	66	127
219.39297052154194	219.50907029478458	39	127
219.55551020408163	219.67160997732427	39	127
219.55551020408163	219.67160997732427	69	127
219.55551020408163	219.67160997732427	84	127
219.55551020408163	219.67160997732427	81	127
219.55551020408163	219.67160997732427	60	127
219.55551020408163	219.67160997732427	66	127
219.71804988662132	219.85736961451246	39	127
219.71804988662132	219.85736961451246	69	127
219.71804988662132	219.85736961451246	84	127
219.71804988662132	219.85736961451246	81	127
219.71804988662132	219.85736961451246	60	127
219.71804988662132	219.85736961451246	66	127
219.9038095238095	220.01990929705215	69	127
219.9038095238095	220.01990929705215	84	127
219.9038095238095	220.01990929705215	66	127
219.9038095238095	220.01990929705215	81	127
219.9038095238095	220.01990929705215	60	127
219.9038095238095	220.01990929705215	39	127
220.0663492063492	220.20566893424035	81	127
220.0663492063492	220.20566893424035	69	127
220.0663492063492	220.20566893424035	84	127
220.0663492063492	220.20566893424035	60	127
220.0663492063492	220.20566893424035	66	127
220.0663492063492	220.20566893424035	39	127
220.26371882086167	220.40303854875285	84	127
220.26371882086167	220.40303854875285	69	127
220.26371882086167	220.40303854875285	81	127
220.26371882086167	220.40303854875285	60	127
220.26371882086167	220.40303854875285	66	127
220.26371882086167	220.40303854875285	39	127
220.4494784580499	220.57718820861678	69	127
220.4494784580499	220.57718820861678	84	127
220.4494784580499	220.57718820861678	81	127
220.4494784580499	220.57718820861678	60	127
220.4494784580499	220.57718820861678	66	127
220.4494784580499	220.57718820861678	39	127
220.62362811791382	220.73972789115646	69	127
220.62362811791382	220.73972789115646	84	127
220.62362811791382	220.73972789115646	81	127
220.62362811791382	220.73972789115646	60	127
220.62362811791382	220.73972789115646	66	127
220.62362811791382	220.73972789115646	39	127
220.79777777777778	220.91387755102042	69	127
220.79777777777778	220.91387755102042	84	127
220.79777777777778	220.91387755102042	81	127
220.79777777777778	220.91387755102042	60	127
220.79777777777778	220.91387755102042	66	127
220.79777777777778	220.91387755102042	39	127
220.9719274376417	221.08802721088435	69	127
220.9719274376417	221.08802721088435	84	127
220.9719274376417	221.08802721088435	81	127
220.9719274376417	221.08802721088435	60	127
220.9719274376417	221.08802721088435	66	127
220.9719274376417	221.08802721088435	39	127
221.1344671201814	221.2621768707483	69	127
221.1344671201814	221.2621768707483	84	127
221.1344671201814	221.2621768707483	81	127
221.1344671201814	221.2621768707483	60	127
221.1344671201814	221.2621768707483	66	127
221.1344671201814	221.2621768707483	39	127
221.30861678004536	221.4479365079365	69	127
221.30861678004536	221.4479365079365	84	127
221.30861678004536	221.4479365079365	81	127
221.30861678004536	221.4479365079365	60	127
221.30861678004536	221.4479365079365	66	127
221.30861678004536	221.4479365079365	39	127
221.5175963718821	221.63369614512473	84	127
221.5175963718821	221.63369614512473	69	127
221.5175963718821	221.63369614512473	81	127
221.5175963718821	221.63369614512473	60	127
221.5175963718821	221.63369614512473	66	127
221.5175963718821	221.63369614512473	39	127
221.69174603174602	221.88911564625852	81	127
221.69174603174602	221.88911564625852	60	127
221.69174603174602	221.88911564625852	84	127
221.69174603174602	221.88911564625852	69	127
221.69174603174602	221.88911564625852	66	127
221.69174603174602	221.88911564625852	39	127
221.93555555555557	222.2606349206349	60	127
221.93555555555557	222.2606349206349	40	127
221.93555555555557	222.05165532879818	84	127
221.93555555555557	222.05165532879818	69	127
221.93555555555557	222.05165532879818	81	127
221.93555555555557	222.2606349206349	64	127
222.09809523809523	222.22580498866213	84	127
222.09809523809523	222.22580498866213	81	127
222.27224489795918	222.38834467120182	84	127
222.27224489795918	222.38834467120182	81	127
222.43478458049887	222.5508843537415	84	127
222.43478458049887	222.5508843537415	81	127
222.59732426303856	222.72503401360544	84	127
222.59732426303856	222.72503401360544	81	127
222.75986394557822	222.87596371882086	81	127
222.75986394557822	222.87596371882086	84	127
222.9224036281179	223.03850340136054	84	127
222.9224036281179	223.03850340136054	81	127
222.9224036281179	223.03850340136054	76	127
223.0849433106576	223.2126530612245	84	127
223.0849433106576	223.2126530612245	81	127
223.0849433106576	223.2126530612245	76	127
223.25909297052155	223.36358276643992	84	127
223.25909297052155	223.36358276643992	81	127
223.25909297052155	223.36358276643992	76	127
223.41002267573697	223.52612244897958	84	127
223.41002267573697	223.52612244897958	81	127
223.41002267573697	223.52612244897958	76	127
223.5841723356009	223.70027210884354	84	127
223.5841723356009	223.70027210884354	81	127
223.5841723356009	223.70027210884354	76	127
223.74671201814058	223.81637188208617	84	127
223.74671201814058	223.81637188208617	81	127
223.74671201814058	223.81637188208617	76	127
223.83959183673468	223.95569160997732	84	127
223.83959183673468	223.95569160997732	76	127
223.83959183673468	223.95569160997732	72	127
223.83959183673468	223.95569160997732	69	127
224.00213151927437	224.118231292517	72	127
224.00213151927437	224.118231292517	88	127
224.00213151927437	224.118231292517	76	127
224.00213151927437	224.118231292517	69	127
224.16467120181406	224.2807709750567	93	127
224.16467120181406	224.40848072562358	72	127
224.16467120181406	224.40848072562358	76	127
224.16467120181406	224.40848072562358	69	127
224.32721088435375	224.44331065759638	88	127
224.50136054421768	224.6174603174603	89	127
224.50136054421768	224.75678004535146	77	127
224.50136054421768	224.75678004535146	74	127
224.50136054421768	224.75678004535146	69	127
224.66390022675736	224.80321995464854	86	127
224.8496598639456	224.97736961451247	69	127
224.8496598639456	224.97736961451247	76	127
224.8496598639456	224.97736961451247	72	127
224.8496598639456	225.0934693877551	88	127
225.02380952380952	225.13990929705216	69	127
225.02380952380952	225.13990929705216	72	127
225.02380952380952	225.13990929705216	76	127
225.1863492063492	225.43015873015872	69	127
225.1863492063492	225.87133786848074	84	127
225.1863492063492	225.43015873015872	76	127
225.1863492063492	225.43015873015872	72	127
225.52303854875282	225.76684807256237	72	127
225.52303854875282	225.76684807256237	69	127
225.52303854875282	225.76684807256237	76	127
225.88294784580498	226.01065759637189	89	127
225.88294784580498	226.01065759637189	77	127
225.88294784580498	226.01065759637189	74	127
225.88294784580498	226.01065759637189	69	127
226.05709750566893	226.1848072562358	88	127
226.05709750566893	226.1848072562358	77	127
226.05709750566893	226.1848072562358	74	127
226.05709750566893	226.1848072562358	69	127
226.24285714285713	226.35895691609977	86	127
226.24285714285713	226.48666666666668	77	127
226.24285714285713	226.48666666666668	74	127
226.24285714285713	226.48666666666668	69	127
226.4170068027211	226.53310657596373	84	127
226.57954648526078	226.6956462585034	83	127
226.57954648526078	226.8233560090703	76	127
226.57954648526078	226.8233560090703	74	127
226.57954648526078	226.8233560090703	69	127
226.74208616780047	226.85818594104308	88	127
226.9162358276644	227.03233560090703	76	127
226.9162358276644	227.03233560090703	72	127
226.9162358276644	227.03233560090703	69	127
226.9162358276644	227.1600453514739	84	127
227.07877551020408	227.19487528344672	76	127
227.07877551020408	227.19487528344672	72	127
227.07877551020408	227.19487528344672	69	127
227.2297052154195	227.3574149659864	72	127
227.2297052154195	227.3574149659864	76	127
227.2297052154195	227.4851247165533	69	127
227.2297052154195	227.90308390022676	81	127
227.4154648526077	227.53156462585034	69	127
227.4154648526077	227.53156462585034	72	127
227.5780045351474	227.69410430839002	74	127
227.5780045351474	227.69410430839002	71	127
227.74054421768707	227.86825396825398	76	127
227.74054421768707	227.86825396825398	72	127
227.91469387755103	228.03079365079364	77	127
227.91469387755103	228.03079365079364	74	127
228.0772335600907	228.19333333333333	76	127
228.0772335600907	228.19333333333333	72	127
228.23977324263038	228.36748299319729	74	127
228.23977324263038	228.36748299319729	71	127
228.41392290249433	228.53002267573697	72	127
228.41392290249433	228.53002267573697	69	127
228.57646258503402	228.69256235827663	71	127
228.57646258503402	228.69256235827663	68	127
228.75061224489795	228.8667120181406	76	127
228.75061224489795	228.8667120181406	64	127
228.91315192743764	229.02925170068028	70	127
228.91315192743764	229.02925170068028	67	127
229.07569160997733	229.16857142857143	69	127
229.07569160997733	229.16857142857143	65	127
229.22662131519274	229.34272108843538	67	127
229.22662131519274	229.34272108843538	64	127
229.38916099773243	229.50526077097507	65	127
229.38916099773243	229.50526077097507	62	127
229.55170068027212	229.69102040816327	64	127
229.55170068027212	229.69102040816327	61	127
229.73746031746032	229.85356009070296	67	127
229.73746031746032	229.85356009070296	64	127
229.9	230.02770975056688	58	127
230.07414965986393	230.20185941043084	57	127
230.25990929705216	230.37600907029477	58	127
230.25990929705216	230.37600907029477	55	127
230.42244897959185	230.50371882086168	57	127
230.42244897959185	230.50371882086168	53	127
230.55015873015873	230.70108843537415	55	127
230.55015873015873	230.70108843537415	52	127
230.7475283446712	230.8752380952381	61	127
230.7475283446712	230.8752380952381	58	127
230.92167800453515	231.0377777777778	81	127
230.92167800453515	231.0377777777778	60	127
231.09582766439908	231.21192743764172	79	127
231.09582766439908	231.21192743764172	58	127
231.25836734693877	231.3744671201814	78	127
231.25836734693877	231.3744671201814	57	127
231.42090702947846	231.5370068027211	84	127
231.42090702947846	231.5370068027211	63	127
231.5950566893424	231.90852607709752	83	127
231.5950566893424	231.69954648526078	71	127
231.5950566893424	231.69954648526078	62	127
231.5950566893424	231.69954648526078	53	127
231.74598639455783	231.86208616780044	51	127
231.74598639455783	231.86208616780044	60	127
231.74598639455783	231.86208616780044	72	127
231.90852607709752	232.02462585034013	74	127
231.90852607709752	232.02462585034013	59	127
231.90852607709752	232.02462585034013	50	127
232.09428571428572	232.21038548752836	71	127
232.09428571428572	232.21038548752836	65	127
232.09428571428572	232.21038548752836	56	127
232.2568253968254	232.38453514739228	63	127
232.2568253968254	232.38453514739228	55	127
232.43097505668933	232.5702947845805	62	127
232.43097505668933	232.5702947845805	53	127
232.61673469387756	232.73283446712017	72	127
232.77927437641722	232.89537414965986	74	127
232.9418140589569	233.06952380952382	91	127
232.9418140589569	233.06952380952382	75	127
233.11596371882086	233.2320634920635	89	127
233.11596371882086	233.2320634920635	74	127
233.27850340136055	233.33655328798187	87	127
233.27850340136055	233.33655328798187	72	127
233.39460317460316	233.5107029478458	91	127
233.39460317460316	233.5107029478458	75	127
233.55714285714285	233.6732426303855	67	127
233.55714285714285	233.6732426303855	63	127
233.71968253968254	233.8590022675737	65	127
233.71968253968254	233.8590022675737	62	127
233.917052154195	234.03315192743764	63	127
233.917052154195	234.03315192743764	60	127
234.0795918367347	234.19569160997733	67	127
234.0795918367347	234.19569160997733	63	127
234.24213151927438	234.35823129251702	87	127
234.24213151927438	234.35823129251702	72	127
234.4162811791383	234.53238095238095	86	127
234.4162811791383	234.53238095238095	70	127
234.578820861678	234.69492063492063	84	127
234.578820861678	234.69492063492063	69	127
234.578820861678	234.69492063492063	63	127
234.578820861678	234.69492063492063	60	127
234.75297052154195	234.8922902494331	87	127
234.75297052154195	234.8922902494331	72	127
234.75297052154195	234.8922902494331	62	127
234.75297052154195	234.8922902494331	58	127
234.93873015873015	235.0548299319728	60	127
234.93873015873015	235.0548299319728	57	127
235.10126984126984	235.21736961451248	63	127
235.10126984126984	235.21736961451248	60	127
235.26380952380953	235.3915192743764	84	127
235.26380952380953	235.3915192743764	69	127
235.43795918367346	235.53083900226758	82	127
235.43795918367346	235.53083900226758	67	127
235.57727891156463	235.69337868480724	81	127
235.57727891156463	235.69337868480724	66	127
235.73981859410432	235.8675283446712	84	127
235.73981859410432	235.8675283446712	63	127
235.91396825396825	236.0300680272109	78	127
235.91396825396825	236.0300680272109	62	127
235.91396825396825	236.0300680272109	74	127
235.91396825396825	236.0300680272109	58	127
236.07650793650794	236.19260770975058	81	127
236.07650793650794	236.19260770975058	66	127
236.07650793650794	236.19260770975058	72	127
236.07650793650794	236.19260770975058	57	127
236.2506575963719	236.3667573696145	70	127
236.2506575963719	236.3667573696145	55	127
236.2506575963719	236.4015873015873	86	127
236.2506575963719	236.4015873015873	70	127
236.41319727891155	236.5292970521542	74	127
236.41319727891155	236.5292970521542	58	127
236.57573696145124	236.69183673469388	87	127
236.57573696145124	236.69183673469388	72	127
236.57573696145124	236.69183673469388	67	127
236.57573696145124	236.69183673469388	51	127
236.7498866213152	236.87759637188208	86	127
236.7498866213152	236.87759637188208	70	127
236.7498866213152	236.87759637188208	70	127
236.7498866213152	236.87759637188208	55	127
236.92403628117913	237.04013605442177	84	127
236.92403628117913	237.04013605442177	69	127
236.92403628117913	237.04013605442177	75	127
236.92403628117913	237.04013605442177	60	127
237.08657596371881	237.21428571428572	87	127
237.08657596371881	237.21428571428572	72	127
237.08657596371881	237.21428571428572	74	127
237.08657596371881	237.21428571428572	58	127
237.26072562358277	237.35360544217687	72	127
237.26072562358277	237.35360544217687	57	127
237.40004535147392	237.51614512471656	75	127
237.40004535147392	237.51614512471656	60	127
237.5625850340136	237.6902947845805	89	127
237.5625850340136	237.6902947845805	74	127
237.5625850340136	237.6902947845805	69	127
237.5625850340136	237.6902947845805	53	127
237.73673469387754	237.8412244897959	87	127
237.73673469387754	237.8412244897959	72	127
237.73673469387754	237.8412244897959	72	127
237.73673469387754	237.8412244897959	57	127
237.88766439909298	238.01537414965986	86	127
237.88766439909298	238.01537414965986	70	127
237.88766439909298	238.01537414965986	74	127
237.88766439909298	238.01537414965986	58	127
238.0618140589569	238.17791383219955	89	127
238.0618140589569	238.17791383219955	74	127
238.0618140589569	238.17791383219955	72	127
238.0618140589569	238.17791383219955	57	127
238.21274376417233	238.32884353741497	91	127
238.21274376417233	238.32884353741497	75	127
238.21274376417233	238.32884353741497	70	127
238.21274376417233	238.32884353741497	55	127
238.36367346938775	238.4797732426304	89	127
238.36367346938775	238.4797732426304	74	127
238.36367346938775	238.4797732426304	74	127
238.36367346938775	238.4797732426304	58	127
238.5378231292517	238.65392290249434	87	127
238.5378231292517	238.65392290249434	72	127
238.5378231292517	238.65392290249434	75	127
238.5378231292517	238.65392290249434	60	127
238.7003628117914	238.80485260770976	91	127
238.7003628117914	238.80485260770976	75	127
238.7003628117914	238.80485260770976	74	127
238.7003628117914	238.80485260770976	58	127
238.8512925170068	238.96739229024942	92	127
238.8512925170068	238.96739229024942	77	127
238.8512925170068	238.96739229024942	72	127
238.8512925170068	238.96739229024942	56	127
239.02544217687074	239.14154195011338	91	127
239.02544217687074	239.14154195011338	75	127
239.02544217687074	239.14154195011338	75	127
239.02544217687074	239.14154195011338	60	127
239.18798185941043	239.30408163265307	89	127
239.18798185941043	239.30408163265307	74	127
239.18798185941043	239.30408163265307	77	127
239.18798185941043	239.30408163265307	62	127
239.35052154195012	239.46662131519275	92	127
239.35052154195012	239.46662131519275	77	127
239.35052154195012	239.46662131519275	75	127
239.35052154195012	239.46662131519275	60	127
239.52467120181407	239.61755102040817	94	127
239.52467120181407	239.61755102040817	79	127
239.52467120181407	239.61755102040817	74	127
239.52467120181407	239.61755102040817	58	127
239.65238095238095	239.7684807256236	92	127
239.65238095238095	239.7684807256236	77	127
239.65238095238095	239.7684807256236	77	127
239.65238095238095	239.7684807256236	62	127
239.81492063492064	239.93102040816328	91	127
239.81492063492064	239.93102040816328	75	127
239.81492063492064	239.93102040816328	79	127
239.81492063492064	239.93102040816328	63	127
239.97746031746033	240.0819501133787	94	127
239.97746031746033	240.0819501133787	79	127
239.97746031746033	240.0819501133787	67	127
239.97746031746033	240.0819501133787	63	127
240.12839002267575	240.24448979591835	96	127
240.12839002267575	240.24448979591835	80	127
240.12839002267575	240.24448979591835	65	127
240.12839002267575	240.24448979591835	62	127
240.29092970521543	240.4186394557823	94	127
240.29092970521543	240.4186394557823	79	127
240.29092970521543	240.4186394557823	67	127
240.29092970521543	240.4186394557823	63	127
240.46507936507936	240.581179138322	92	127
240.46507936507936	240.581179138322	77	127
240.46507936507936	240.581179138322	68	127
240.46507936507936	240.581179138322	65	127
240.62761904761905	240.73210884353742	91	127
240.62761904761905	240.73210884353742	75	127
240.62761904761905	240.73210884353742	70	127
240.62761904761905	240.73210884353742	67	127
240.79015873015874	240.90625850340135	89	127
240.79015873015874	240.90625850340135	74	127
240.79015873015874	240.90625850340135	72	127
240.79015873015874	240.90625850340135	68	127
240.95269841269842	241.06879818594103	91	127
240.95269841269842	241.06879818594103	75	127
240.95269841269842	241.06879818594103	70	127
240.95269841269842	241.06879818594103	67	127
241.11523809523808	241.23133786848072	86	127
241.11523809523808	241.23133786848072	83	127
241.11523809523808	241.23133786848072	68	127
241.11523809523808	241.23133786848072	65	127
241.28938775510204	241.40548752834468	87	127
241.28938775510204	241.40548752834468	84	127
241.28938775510204	241.40548752834468	67	127
241.28938775510204	241.40548752834468	63	127
241.45192743764173	241.56802721088437	83	127
241.45192743764173	241.56802721088437	79	127
241.45192743764173	241.56802721088437	65	127
241.45192743764173	241.56802721088437	62	127
241.61446712018142	241.71895691609978	84	127
241.61446712018142	241.71895691609978	81	127
241.61446712018142	241.71895691609978	63	127
241.61446712018142	241.71895691609978	60	127
241.77700680272108	241.8931065759637	86	127
241.77700680272108	241.8931065759637	83	127
241.77700680272108	241.8931065759637	62	127
241.77700680272108	241.8931065759637	59	127
241.93954648526076	242.04403628117913	87	127
241.93954648526076	242.04403628117913	84	127
241.93954648526076	242.04403628117913	60	127
241.93954648526076	242.04403628117913	57	127
242.09047619047618	242.2181859410431	89	127
242.09047619047618	242.2181859410431	86	127
242.09047619047618	242.2181859410431	59	127
242.09047619047618	242.2181859410431	55	127
242.26462585034014	242.38072562358278	71	127
242.26462585034014	242.38072562358278	67	127
242.26462585034014	242.38072562358278	68	127
242.26462585034014	242.38072562358278	65	127
242.42716553287983	242.5316553287982	72	127
242.42716553287983	242.5316553287982	69	127
242.42716553287983	242.5316553287982	67	127
242.42716553287983	242.5316553287982	63	127
242.57809523809524	242.70580498866212	71	127
242.57809523809524	242.70580498866212	74	127
242.57809523809524	242.70580498866212	65	127
242.57809523809524	242.70580498866212	62	127
242.75224489795917	242.8683446712018	72	127
242.75224489795917	242.8683446712018	75	127
242.75224489795917	242.8683446712018	63	127
242.75224489795917	242.8683446712018	60	127
242.91478458049886	243.01927437641723	77	127
242.91478458049886	243.01927437641723	74	127
242.91478458049886	243.01927437641723	62	127
242.91478458049886	243.01927437641723	58	127
243.06571428571428	243.17020408163265	79	127
243.06571428571428	243.17020408163265	75	127
243.06571428571428	243.17020408163265	60	127
243.06571428571428	243.17020408163265	57	127
243.20503401360546	243.32113378684807	79	127
243.20503401360546	243.32113378684807	76	127
243.20503401360546	243.32113378684807	62	127
243.20503401360546	243.32113378684807	58	127
243.36757369614512	243.48367346938775	81	127
243.36757369614512	243.48367346938775	77	127
243.36757369614512	243.48367346938775	60	127
243.36757369614512	243.48367346938775	57	127
243.54172335600907	243.6578231292517	82	127
243.54172335600907	243.6578231292517	79	127
243.54172335600907	243.6578231292517	58	127
243.54172335600907	243.6578231292517	55	127
243.71587301587303	243.83197278911564	84	127
243.71587301587303	243.83197278911564	81	127
243.71587301587303	243.83197278911564	57	127
243.71587301587303	243.83197278911564	53	127
243.8784126984127	243.98290249433106	84	127
243.8784126984127	243.98290249433106	81	127
243.8784126984127	243.98290249433106	55	127
243.8784126984127	243.98290249433106	51	127
244.04095238095238	244.15705215419501	86	127
244.04095238095238	244.15705215419501	82	127
244.04095238095238	244.15705215419501	53	127
244.04095238095238	244.15705215419501	50	127
244.21510204081633	244.33120181405894	87	127
244.21510204081633	244.33120181405894	84	127
244.21510204081633	244.33120181405894	51	127
244.21510204081633	244.33120181405894	48	127
244.37764172335602	244.49374149659863	81	127
244.37764172335602	244.49374149659863	77	127
244.37764172335602	244.49374149659863	60	127
244.37764172335602	244.49374149659863	57	127
244.55179138321995	244.6678911564626	82	127
244.55179138321995	244.6678911564626	79	127
244.55179138321995	244.6678911564626	58	127
244.55179138321995	244.6678911564626	55	127
244.71433106575964	244.83043083900228	84	127
244.71433106575964	244.83043083900228	81	127
244.71433106575964	244.83043083900228	57	127
244.71433106575964	244.83043083900228	53	127
244.87687074829932	245.0045804988662	86	127
244.87687074829932	245.0045804988662	82	127
244.87687074829932	245.0045804988662	55	127
244.87687074829932	245.0045804988662	51	127
245.05102040816325	245.15551020408162	79	127
245.05102040816325	245.15551020408162	76	127
245.05102040816325	245.15551020408162	61	127
245.05102040816325	245.15551020408162	58	127
245.19034013605443	245.30643990929704	81	127
245.19034013605443	245.30643990929704	77	127
245.19034013605443	245.30643990929704	60	127
245.19034013605443	245.30643990929704	57	127
245.35287981859412	245.43414965986395	82	127
245.35287981859412	245.43414965986395	79	127
245.35287981859412	245.43414965986395	58	127
245.35287981859412	245.43414965986395	55	127
245.480589569161	245.59668934240364	84	127
245.480589569161	245.59668934240364	81	127
245.480589569161	245.59668934240364	57	127
245.480589569161	245.59668934240364	53	127
245.64312925170069	245.75922902494332	84	127
245.64312925170069	245.75922902494332	81	127
245.64312925170069	245.75922902494332	55	127
245.64312925170069	245.75922902494332	51	127
245.8172789115646	245.93337868480725	86	127
245.8172789115646	245.93337868480725	82	127
245.8172789115646	245.93337868480725	53	127
245.8172789115646	245.93337868480725	50	127
245.9798185941043	246.1075283446712	87	127
245.9798185941043	246.1075283446712	84	127
245.9798185941043	246.1075283446712	51	127
245.9798185941043	246.1075283446712	48	127
246.15396825396826	246.2700680272109	89	127
246.15396825396826	246.2700680272109	86	127
246.15396825396826	246.2700680272109	50	127
246.15396825396826	246.2700680272109	46	127
246.3281179138322	246.44421768707483	91	127
246.3281179138322	246.44421768707483	87	127
246.3281179138322	246.44421768707483	48	127
246.3281179138322	246.44421768707483	45	127
246.49065759637188	246.6067573696145	89	127
246.49065759637188	246.6067573696145	86	127
246.49065759637188	246.6067573696145	50	127
246.49065759637188	246.6067573696145	46	127
246.65319727891156	246.7925170068027	87	127
246.65319727891156	246.7925170068027	84	127
246.65319727891156	246.7925170068027	51	127
246.65319727891156	246.7925170068027	36	127
246.85056689342403	246.96666666666667	86	127
246.85056689342403	246.96666666666667	82	127
246.85056689342403	246.96666666666667	53	127
246.85056689342403	246.96666666666667	38	127
247.01310657596372	247.12920634920636	82	127
247.01310657596372	247.12920634920636	84	127
247.01310657596372	247.12920634920636	55	127
247.01310657596372	247.12920634920636	39	127
247.1756462585034	247.31496598639455	84	127
247.1756462585034	247.31496598639455	82	127
247.1756462585034	247.31496598639455	55	127
247.1756462585034	247.31496598639455	40	127
247.3614058956916	247.4891156462585	84	127
247.3614058956916	247.4891156462585	81	127
247.3614058956916	247.4891156462585	53	127
247.3614058956916	247.4891156462585	41	127
247.53555555555556	247.66326530612244	87	127
247.53555555555556	247.66326530612244	84	127
247.53555555555556	247.66326530612244	69	127
247.53555555555556	247.66326530612244	57	127
247.53555555555556	247.66326530612244	41	127
247.72131519274376	247.8606349206349	75	127
247.72131519274376	247.8606349206349	87	127
247.72131519274376	247.8606349206349	84	127
247.72131519274376	247.8606349206349	57	127
247.72131519274376	247.8606349206349	69	127
247.72131519274376	247.8606349206349	42	127
247.91868480725623	248.0580045351474	75	127
247.91868480725623	248.0580045351474	87	127
247.91868480725623	248.0580045351474	84	127
247.91868480725623	248.0580045351474	57	127
247.91868480725623	248.0580045351474	69	127
247.91868480725623	248.0580045351474	42	127
248.10444444444445	248.54562358276644	75	127
248.10444444444445	248.54562358276644	87	127
248.10444444444445	248.54562358276644	84	127
248.10444444444445	248.54562358276644	57	127
248.10444444444445	248.54562358276644	69	127
248.10444444444445	248.54562358276644	42	127
250.2174603174603	250.33356009070295	85	127
250.2174603174603	251.21591836734694	66	127
250.2174603174603	251.21591836734694	58	127
250.38	250.49609977324263	85	127
250.55414965986395	250.79795918367347	85	127
250.8792290249433	251.1346485260771	85	127
251.2275283446712	251.34362811791382	85	127
251.2275283446712	252.21437641723355	70	127
251.2275283446712	252.21437641723355	61	127
251.39006802721087	251.51777777777778	85	127
251.56421768707483	251.79641723356008	85	127
251.86607709750567	252.12149659863945	85	127
252.21437641723355	252.5510657596372	59	127
252.21437641723355	252.5510657596372	68	127
252.21437641723355	252.3304761904762	85	127
252.3885260770975	252.5162358276644	85	127
252.56267573696144	252.8877551020408	63	127
252.56267573696144	252.67877551020408	85	127
252.56267573696144	252.8877551020408	71	127
252.72521541950113	252.84131519274376	85	127
252.89936507936508	253.01546485260772	85	127
252.89936507936508	253.22444444444446	65	127
252.89936507936508	253.22444444444446	56	127
253.06190476190477	253.17800453514738	85	127
253.22444444444446	253.73528344671203	66	127
253.22444444444446	253.3637641723356	61	127
253.22444444444446	253.73528344671203	58	127
253.22444444444446	253.73528344671203	85	127
253.41020408163266	253.5263038548753	58	127
253.57274376417234	253.68884353741495	54	127
253.73528344671203	253.8629931972789	61	127
253.73528344671203	253.8629931972789	49	127
253.92104308390023	254.03714285714287	66	127
253.92104308390023	254.03714285714287	46	127
254.08358276643992	254.2112925170068	42	127
254.08358276643992	254.2112925170068	70	127
254.25773242630385	254.38544217687075	68	127
254.25773242630385	254.5944217687075	41	127
254.4318820861678	254.54798185941044	66	127
254.5944217687075	255.58126984126983	47	127
254.5944217687075	254.72213151927437	65	127
254.7801814058957	254.89628117913833	63	127
254.94272108843538	255.05882086167802	65	127
255.10526077097506	255.22136054421767	61	127
255.25619047619048	255.39551020408163	66	127
255.4071201814059	255.58126984126983	70	127
255.58126984126983	255.720589569161	46	127
255.58126984126983	256.1385487528345	73	127
255.77863945578233	255.91795918367347	49	127
255.77863945578233	255.91795918367347	49	127
255.96439909297052	256.0921088435374	46	127
255.96439909297052	256.0921088435374	54	127
256.1385487528345	256.2662585034014	58	127
256.1385487528345	256.2662585034014	42	127
256.3126984126984	256.42879818594105	56	127
256.3126984126984	256.42879818594105	41	127
256.4752154195011	256.5913378684807	44	127
256.4752154195011	256.5913378684807	53	127
256.6377777777778	256.77709750566896	54	127
256.6377777777778	256.77709750566896	39	127
256.823537414966	256.96285714285716	51	127
256.823537414966	256.96285714285716	42	127
256.9976870748299	257.1021768707483	56	127
256.9976870748299	257.1021768707483	44	127
257.14861678004536	257.264716553288	48	127
257.14861678004536	257.264716553288	44	127
257.311156462585	258.2747845804989	41	127
257.311156462585	258.2747845804989	49	127
257.311156462585	257.4156462585034	68	127
257.46208616780046	257.5897959183674	68	127
257.65945578231293	257.9032426303855	68	127
257.9497052154195	258.19351473922904	68	127
258.28639455782314	259.28485260770975	44	127
258.28639455782314	258.4024943310658	68	127
258.28639455782314	259.28485260770975	53	127
258.4489342403628	258.5766439909297	68	127
258.6230612244898	258.855283446712	68	127
258.9365306122449	259.2035827664399	68	127
259.28485260770975	259.6099319727891	51	127
259.28485260770975	259.4009523809524	68	127
259.28485260770975	259.6099319727891	42	127
259.44736961451247	259.5751020408163	68	127
259.6215419501134	259.7724716553288	68	127
259.6215419501134	260.01628117913833	54	127
259.6215419501134	260.01628117913833	46	127
259.83052154195013	259.95820861678004	68	127
260.0278911564626	260.36455782312925	48	127
260.0278911564626	260.36455782312925	39	127
260.0278911564626	260.1555782312925	68	127
260.20204081632653	260.31814058956917	68	127
260.36455782312925	260.86380952380955	41	127
260.36455782312925	260.4806802721088	80	127
260.36455782312925	260.86380952380955	68	127
260.36455782312925	260.86380952380955	49	127
260.5387301587302	260.6548299319728	77	127
260.70126984126983	260.8173696145125	73	127
260.86380952380955	260.9915192743764	68	127
260.86380952380955	260.9915192743764	56	127
261.0379591836735	261.1192290249433	61	127
261.0379591836735	261.1192290249433	65	127
261.1656689342404	261.281746031746	61	127
261.1656689342404	261.281746031746	65	127
261.32820861678005	261.4443083900227	63	127
261.32820861678005	261.64167800453515	60	127
261.49072562358276	261.59521541950113	61	127
261.64167800453515	261.7577777777778	60	127
261.64167800453515	262.6633560090703	66	127
261.8158276643991	261.95514739229026	58	127
262.00156462585034	262.1176870748299	60	127
262.164126984127	262.28022675736963	56	127
262.3382766439909	262.45437641723356	61	127
262.50081632653064	262.6168934240363	65	127
262.6633560090703	262.77945578231294	65	127
262.6633560090703	262.77945578231294	68	127
262.8375056689342	262.95360544217687	77	127
262.8375056689342	262.95360544217687	56	127
262.8375056689342	262.95360544217687	80	127
263.00004535147394	263.1161451247166	80	127
263.00004535147394	263.1161451247166	85	127
263.00004535147394	263.1161451247166	53	127
263.1625850340136	263.2554648526077	80	127
263.1625850340136	263.2554648526077	89	127
263.1625850340136	263.2554648526077	49	127
263.31351473922905	263.4295918367347	80	127
263.31351473922905	263.4295918367347	87	127
263.31351473922905	263.4295918367347	48	127
263.46444444444444	263.5805442176871	51	127
263.46444444444444	263.5805442176871	84	127
263.46444444444444	263.5805442176871	68	127
263.62698412698415	263.754693877551	85	127
263.62698412698415	263.754693877551	77	127
263.62698412698415	263.754693877551	46	127
263.8011337868481	263.928843537415	82	127
263.8011337868481	263.928843537415	73	127
263.8011337868481	263.928843537415	65	127
263.8011337868481	263.928843537415	49	127
263.975283446712	264.0797732426304	87	127
263.975283446712	264.0797732426304	70	127
263.975283446712	264.0797732426304	67	127
263.975283446712	264.0797732426304	51	127
264.12621315192746	264.2655328798186	79	127
264.12621315192746	264.2655328798186	67	127
264.12621315192746	264.2655328798186	51	127
264.12621315192746	264.2655328798186	61	127
264.31197278911566	265.32204081632653	68	127
264.31197278911566	264.4280725623583	56	127
264.31197278911566	265.32204081632653	80	127
264.31197278911566	265.32204081632653	60	127
264.4745124716553	264.6022222222222	56	127
264.66024943310657	264.90408163265306	56	127
264.99696145124716	265.2407709750567	56	127
265.3336507936508	266.3321088435374	84	127
265.3336507936508	265.44975056689344	56	127
265.3336507936508	266.3321088435374	72	127
265.3336507936508	266.3321088435374	63	127
265.49619047619046	265.62390022675737	56	127
265.6819274376417	265.9257596371882	56	127
266.00702947845804	266.2508390022676	56	127
266.3437188208617	266.401768707483	61	127
266.3437188208617	266.4598185941043	56	127
266.3437188208617	266.401768707483	82	127
266.3437188208617	266.401768707483	70	127
266.401768707483	266.4598185941043	63	127
266.401768707483	266.4598185941043	84	127
266.401768707483	266.4598185941043	72	127
266.4598185941043	266.5294784580499	82	127
266.4598185941043	266.5294784580499	70	127
266.4598185941043	266.5294784580499	61	127
266.5294784580499	266.622358276644	81	127
266.5294784580499	266.622358276644	69	127
266.5294784580499	266.622358276644	60	127
266.5294784580499	266.6571882086168	56	127
266.622358276644	266.6920181405896	70	127
266.622358276644	266.6920181405896	82	127
266.622358276644	266.6920181405896	61	127
266.70360544217687	267.04031746031745	85	127
266.70360544217687	267.04031746031745	65	127
266.70360544217687	266.8313378684807	56	127
266.70360544217687	267.04031746031745	73	127
266.8777777777778	266.99387755102043	56	127
267.04031746031745	267.38861678004537	67	127
267.04031746031745	267.17963718820863	56	127
267.04031746031745	267.38861678004537	58	127
267.04031746031745	267.38861678004537	79	127
267.22607709750565	267.3421768707483	56	127
267.38861678004537	268.1084353741497	80	127
267.38861678004537	267.7369160997732	56	127
267.38861678004537	267.7369160997732	60	127
267.38861678004537	268.1084353741497	68	127
267.7485260770975	268.1084353741497	63	127
267.7485260770975	268.1084353741497	60	127
267.7485260770975	268.1084353741497	56	127
268.12004535147395	268.49156462585034	56	127
268.12004535147395	268.49156462585034	63	127
268.12004535147395	268.49156462585034	78	127
268.12004535147395	268.49156462585034	66	127
268.12004535147395	268.49156462585034	60	127
268.49156462585034	270.7787301587302	65	127
268.49156462585034	270.7787301587302	60	127
268.49156462585034	270.7671201814059	57	127
268.49156462585034	270.7787301587302	77	127
268.49156462585034	270.7787301587302	63	127
270.86	271.28956916099776	74	127
270.86	270.90643990929703	77	127
270.86	271.28956916099776	58	127
270.86	271.28956916099776	65	127
270.90643990929703	270.97609977324265	79	127
270.97609977324265	271.0457596371882	77	127
271.0457596371882	271.10378684807256	79	127
271.10378684807256	271.2431292517007	77	127
271.2431292517007	271.28956916099776	79	127
271.28956916099776	271.34761904761905	77	127
271.28956916099776	271.61462585034013	53	127
271.28956916099776	271.61462585034013	72	127
271.28956916099776	271.61462585034013	63	127
271.34761904761905	271.4056462585034	79	127
271.4056462585034	271.4637188208617	77	127
271.4637188208617	271.51013605442176	79	127
271.51013605442176	271.56820861678005	77	127
271.56820861678005	271.62625850340135	79	127
271.62625850340135	271.98616780045353	62	127
271.62625850340135	271.71913832199544	77	127
271.62625850340135	271.98616780045353	55	127
271.62625850340135	271.98616780045353	70	127
271.71913832199544	271.7771882086168	79	127
271.7771882086168	271.8236281179138	77	127
271.8236281179138	271.88167800453516	79	127
271.88167800453516	271.93972789115645	77	127
271.93972789115645	271.9977777777778	79	127
271.9977777777778	272.2764172335601	67	127
271.9977777777778	272.2764172335601	75	127
271.9977777777778	272.06743764172336	77	127
271.9977777777778	272.3576870748299	51	127
272.06743764172336	272.1254648526077	79	127
272.1254648526077	272.183537414966	77	127
272.183537414966	272.25319727891156	79	127
272.25319727891156	272.3112471655329	77	127
272.2764172335601	272.3576870748299	72	127
272.2764172335601	272.3576870748299	63	127
272.3112471655329	272.3576870748299	79	127
272.3576870748299	272.70598639455784	53	127
272.3576870748299	272.42732426303854	77	127
272.3576870748299	272.70598639455784	70	127
272.3576870748299	272.70598639455784	62	127
272.42732426303854	272.48539682539683	79	127
272.48539682539683	272.5434467120181	77	127
272.5434467120181	272.60149659863947	79	127
272.60149659863947	272.6479365079365	77	127
272.6479365079365	272.70598639455784	79	127
272.70598639455784	273.07750566893424	60	127
272.70598639455784	272.76403628117913	77	127
272.70598639455784	273.07750566893424	69	127
272.70598639455784	273.07750566893424	51	127
272.76403628117913	272.83367346938775	79	127
272.83367346938775	272.9033560090703	77	127
272.9033560090703	272.94979591836733	79	127
272.94979591836733	273.01945578231295	77	127
273.01945578231295	273.0891156462585	79	127
273.0891156462585	273.4141950113379	77	127
273.0891156462585	273.4141950113379	58	127
273.0891156462585	273.14714285714285	77	127
273.0891156462585	273.4141950113379	50	127
273.14714285714285	273.1936054421769	79	127
273.1936054421769	273.25165532879817	77	127
273.25165532879817	273.3097052154195	79	127
273.3097052154195	273.3677551020408	77	127
273.3677551020408	273.42580498866215	79	127
273.42580498866215	273.79732426303855	75	127
273.42580498866215	273.4722448979592	77	127
273.42580498866215	273.79732426303855	48	127
273.42580498866215	273.79732426303855	57	127
273.4722448979592	273.55349206349206	79	127
273.55349206349206	273.6347845804989	77	127
273.6347845804989	273.6928344671202	79	127
273.6928344671202	273.73927437641726	77	127
273.73927437641726	273.79732426303855	79	127
273.79732426303855	274.168820861678	74	127
273.79732426303855	273.8669841269841	77	127
273.79732426303855	274.168820861678	58	127
273.79732426303855	274.168820861678	46	127
273.8669841269841	273.92503401360545	79	127
273.92503401360545	273.994693877551	77	127
273.994693877551	274.05274376417236	79	127
274.05274376417236	274.1224036281179	77	127
274.1224036281179	274.1804535147392	79	127
274.1804535147392	274.435873015873	63	127
274.1804535147392	274.5055328798186	39	127
274.1804535147392	274.23850340136056	77	127
274.1804535147392	274.435873015873	79	127
274.23850340136056	274.29655328798185	79	127
274.29655328798185	274.34299319727893	77	127
274.34299319727893	274.4010430839002	79	127
274.4010430839002	274.45909297052157	77	127
274.435873015873	274.51714285714286	75	127
274.435873015873	274.51714285714286	60	127
274.45909297052157	274.51714285714286	79	127
274.51714285714286	274.56358276643994	77	127
274.51714285714286	274.8538321995465	74	127
274.51714285714286	274.8538321995465	58	127
274.51714285714286	274.8538321995465	41	127
274.56358276643994	274.6216326530612	79	127
274.6216326530612	274.6912925170068	77	127
274.6912925170068	274.74934240362813	79	127
274.74934240362813	274.8073922902494	77	127
274.8073922902494	274.8538321995465	79	127
274.8538321995465	275.28337868480725	57	127
274.8538321995465	275.28337868480725	39	127
274.8538321995465	274.9118820861678	77	127
274.8538321995465	275.28337868480725	72	127
274.9118820861678	274.9815192743764	79	127
274.9815192743764	275.0744217687075	77	127
275.0744217687075	275.1673015873016	79	127
275.1673015873016	275.2253514739229	77	127
275.2253514739229	275.28337868480725	79	127
275.28337868480725	275.56204081632654	62	127
275.28337868480725	275.6433106575964	38	127
275.28337868480725	275.34145124716554	77	127
275.28337868480725	275.56204081632654	77	127
275.34145124716554	275.3995011337868	79	127
275.3995011337868	275.4459410430839	77	127
275.4459410430839	275.52721088435374	79	127
275.52721088435374	275.5852607709751	77	127
275.56204081632654	275.65492063492064	74	127
275.56204081632654	275.65492063492064	58	127
275.5852607709751	275.65492063492064	79	127
275.65492063492064	276.1309297052154	55	127
275.65492063492064	276.1309297052154	63	127
275.65492063492064	275.74780045351474	77	127
275.65492063492064	276.1309297052154	72	127
275.65492063492064	276.1309297052154	39	127
275.74780045351474	275.8290702947846	79	127
275.8290702947846	275.93356009070294	77	127
275.93356009070294	276.01482993197277	79	127
276.01482993197277	276.1309297052154	77	127
276.15414965986395	276.2121768707483	79	127
276.2121768707483	276.2702494331066	81	127
276.2702494331066	276.3282993197279	79	127
276.3282993197279	276.3863492063492	81	127
276.3863492063492	276.43278911564624	79	127
276.43278911564624	276.4908390022676	81	127
276.4908390022676	276.5488888888889	79	127
276.5488888888889	276.60693877551023	81	127
276.60693877551023	276.6649886621315	79	127
276.6649886621315	276.7114285714286	81	127
276.7114285714286	276.82750566893424	79	127
276.82750566893424	277.23385487528344	41	127
276.82750566893424	276.8971882086168	81	127
276.82750566893424	277.23385487528344	63	127
276.82750566893424	277.23385487528344	69	127
276.82750566893424	277.23385487528344	53	127
276.82750566893424	277.23385487528344	60	127
276.8971882086168	276.9552380952381	82	127
276.9552380952381	277.05972789115646	81	127
277.05972789115646	277.1177777777778	82	127
277.1177777777778	277.1758276643991	81	127
277.1758276643991	277.23385487528344	82	127
277.23385487528344	277.29192743764173	81	127
277.29192743764173	277.349977324263	82	127
277.349977324263	277.41963718820864	81	127
277.41963718820864	277.51251700680274	79	127
277.51251700680274	277.59378684807257	81	127
277.60539682539684	277.7214965986395	46	127
277.60539682539684	277.7214965986395	53	127
277.60539682539684	277.7214965986395	82	127
277.60539682539684	277.7214965986395	70	127
277.60539682539684	277.7214965986395	62	127
277.7214965986395	277.8375963718821	70	127
277.7214965986395	277.8375963718821	53	127
277.7214965986395	277.8375963718821	62	127
277.7214965986395	277.8375963718821	58	127
277.7214965986395	277.8375963718821	46	127
277.88403628117914	278.1278458049887	62	127
277.88403628117914	278.1278458049887	53	127
277.88403628117914	278.1278458049887	70	127
277.88403628117914	278.1278458049887	58	127
277.88403628117914	278.1278458049887	46	127
278.2207256235828	278.47614512471654	62	127
278.2207256235828	278.47614512471654	70	127
278.2207256235828	278.47614512471654	53	127
278.2207256235828	278.47614512471654	46	127
278.2207256235828	278.47614512471654	58	127
278.5922448979592	278.69673469387754	53	127
278.5922448979592	278.69673469387754	58	127
278.5922448979592	278.69673469387754	62	127
278.5922448979592	278.69673469387754	70	127
278.5922448979592	278.69673469387754	46	127
278.7431746031746	278.847664399093	70	127
278.7431746031746	278.847664399093	46	127
278.7431746031746	278.847664399093	62	127
278.7431746031746	278.847664399093	58	127
278.7431746031746	278.847664399093	53	127
278.9057142857143	279.17272108843537	62	127
278.9057142857143	279.17272108843537	53	127
278.9057142857143	279.17272108843537	70	127
278.9057142857143	279.17272108843537	58	127
278.9057142857143	279.17272108843537	46	127
279.28884353741495	279.55587301587303	46	127
279.28884353741495	279.55587301587303	53	127
279.28884353741495	279.55587301587303	62	127
279.28884353741495	279.55587301587303	70	127
279.28884353741495	279.55587301587303	58	127
279.6603628117914	279.8112925170068	58	127
279.6603628117914	279.8112925170068	46	127
279.6603628117914	279.8112925170068	62	127
279.6603628117914	279.8112925170068	70	127
279.6603628117914	279.8112925170068	53	127
279.85773242630387	279.9738321995465	70	127
279.85773242630387	279.9738321995465	46	127
279.85773242630387	279.9738321995465	62	127
279.85773242630387	279.9738321995465	58	127
279.85773242630387	279.9738321995465	53	127
280.0202721088435	280.14798185941044	53	127
280.0202721088435	280.14798185941044	62	127
280.0202721088435	280.14798185941044	70	127
280.0202721088435	280.14798185941044	58	127
280.0202721088435	280.14798185941044	46	127
280.1943990929705	280.3105215419501	46	127
280.1943990929705	280.3105215419501	53	127
280.1943990929705	280.3105215419501	62	127
280.1943990929705	280.3105215419501	70	127
280.1943990929705	280.3105215419501	58	127
280.3569614512472	280.4846712018141	58	127
280.3569614512472	280.4846712018141	53	127
280.3569614512472	280.4846712018141	62	127
280.3569614512472	280.4846712018141	70	127
280.3569614512472	280.4846712018141	46	127
280.5659410430839	280.68204081632655	62	127
280.5659410430839	280.68204081632655	70	127
280.5659410430839	280.68204081632655	58	127
280.5659410430839	280.68204081632655	53	127
280.5659410430839	280.68204081632655	46	127
280.72848072562357	281.68049886621316	65	127
280.72848072562357	281.68049886621316	74	127
280.72848072562357	281.68049886621316	58	127
280.72848072562357	281.68049886621316	86	127
281.6921088435374	281.80820861678006	54	127
281.6921088435374	281.80820861678006	45	127
281.6921088435374	281.80820861678006	62	127
281.6921088435374	281.80820861678006	72	127
281.6921088435374	281.80820861678006	60	127
281.8546485260771	282.00557823129253	54	127
281.8546485260771	282.00557823129253	62	127
281.8546485260771	282.00557823129253	72	127
281.8546485260771	282.00557823129253	60	127
281.8546485260771	282.00557823129253	45	127
282.0752380952381	282.19133786848073	60	127
282.0752380952381	282.19133786848073	54	127
282.0752380952381	282.19133786848073	62	127
282.0752380952381	282.19133786848073	72	127
282.0752380952381	282.19133786848073	45	127
282.2377551020408	282.36548752834466	72	127
282.2377551020408	282.36548752834466	60	127
282.2377551020408	282.36548752834466	62	127
282.2377551020408	282.36548752834466	54	127
282.2377551020408	282.36548752834466	45	127
282.40031746031747	282.5164172335601	62	127
282.40031746031747	282.5164172335601	45	127
282.40031746031747	282.5164172335601	72	127
282.40031746031747	282.5164172335601	60	127
282.40031746031747	282.5164172335601	54	127
282.5744671201814	282.7137868480726	45	127
282.5744671201814	282.7137868480726	54	127
282.5744671201814	282.7137868480726	62	127
282.5744671201814	282.7137868480726	72	127
282.5744671201814	282.7137868480726	60	127
282.7602267573696	283.94444444444446	57	127
282.7602267573696	283.94444444444446	66	127
282.7602267573696	283.94444444444446	86	127
282.7602267573696	283.94444444444446	72	127
283.9560544217687	284.07215419501136	70	127
283.9560544217687	284.07215419501136	67	127
284.13020408163266	284.2463038548753	67	127
284.13020408163266	284.2463038548753	70	127
284.2927437641723	284.40884353741495	70	127
284.2927437641723	284.40884353741495	67	127
284.45528344671203	284.57138321995467	67	127
284.45528344671203	284.57138321995467	70	127
284.62943310657596	284.7455328798186	70	127
284.62943310657596	284.7455328798186	67	127
284.7919501133787	284.90807256235826	67	127
284.7919501133787	284.90807256235826	70	127
284.95451247165533	285.070612244898	84	127
284.95451247165533	285.070612244898	87	127
285.1054195011338	285.14027210884353	84	127
285.1054195011338	285.14027210884353	87	127
285.1867120181406	285.30278911564625	87	127
285.1867120181406	285.30278911564625	84	127
285.34925170068027	285.4769614512472	84	127
285.34925170068027	285.4769614512472	87	127
285.5234013605442	285.63950113378684	87	127
285.5234013605442	285.63950113378684	84	127
285.6859410430839	285.80204081632655	87	127
285.6859410430839	285.80204081632655	84	127
285.8484807256236	285.9761904761905	66	127
285.8484807256236	285.9761904761905	69	127
286.02260770975056	286.13873015873014	69	127
286.02260770975056	286.13873015873014	66	127
286.1851700680272	286.30126984126986	66	127
286.1851700680272	286.30126984126986	69	127
286.35931972789115	286.4754195011338	66	127
286.35931972789115	286.4754195011338	69	127
286.5102494331066	286.62634920634923	66	127
286.5102494331066	286.62634920634923	69	127
286.67278911564625	286.7772789115646	69	127
286.67278911564625	286.7772789115646	66	127
286.84691609977324	286.9630385487528	50	127
286.99786848072563	287.11396825396827	50	127
287.1604081632653	287.2765079365079	50	127
287.3345578231293	287.4506349206349	50	127
287.49709750566893	287.62480725623584	50	127
287.68285714285713	287.8337868480726	50	127
287.8802267573696	288.0079365079365	70	127
287.8802267573696	288.2401360544218	55	127
287.8802267573696	288.0079365079365	67	127
287.8802267573696	288.2401360544218	43	127
288.0543764172336	288.1936961451247	70	127
288.0543764172336	288.1936961451247	67	127
288.2401360544218	288.3678458049887	70	127
288.2401360544218	288.3678458049887	67	127
288.4142857142857	288.53038548752835	74	127
288.4142857142857	288.53038548752835	70	127
288.4142857142857	288.53038548752835	67	127
288.5768027210884	288.692925170068	70	127
288.5768027210884	288.692925170068	79	127
288.5768027210884	288.692925170068	67	127
288.7277551020408	288.8554648526077	67	127
288.7277551020408	288.8554648526077	82	127
288.7277551020408	288.8554648526077	70	127
288.87868480725626	288.97156462585036	72	127
288.87868480725626	288.97156462585036	69	127
288.87868480725626	289.0063945578231	82	127
289.0063945578231	289.1108843537415	72	127
289.0063945578231	289.16893424036283	81	127
289.0063945578231	289.1108843537415	69	127
289.16893424036283	289.3198639455782	81	127
289.16893424036283	289.28503401360547	69	127
289.16893424036283	289.28503401360547	72	127
289.3314739229025	289.4475736961451	69	127
289.3314739229025	289.4475736961451	72	127
289.4127437641723	289.4939909297052	79	127
289.4939909297052	289.6101133786848	69	127
289.4939909297052	289.6101133786848	72	127
289.4939909297052	289.65655328798186	78	127
289.66816326530613	289.7842630385488	72	127
289.66816326530613	289.7842630385488	69	127
289.74943310657596	289.8307029478458	74	127
289.8307029478458	289.94680272108843	62	127
289.8307029478458	289.94680272108843	74	127
289.8307029478458	289.94680272108843	70	127
289.8307029478458	290.16739229024944	79	127
290.0048299319728	290.12095238095236	58	127
290.0048299319728	290.12095238095236	74	127
290.0048299319728	290.12095238095236	70	127
290.1790022675737	290.5040816326531	82	127
290.1790022675737	290.29510204081635	74	127
290.1790022675737	290.29510204081635	70	127
290.1790022675737	290.29510204081635	55	127
290.34154195011337	290.457641723356	74	127
290.34154195011337	290.457641723356	70	127
290.34154195011337	290.457641723356	50	127
290.5040816326531	291.0033106575964	86	127
290.5040816326531	290.63179138321993	74	127
290.5040816326531	290.63179138321993	70	127
290.5040816326531	290.63179138321993	46	127
290.6898412698413	290.8059410430839	74	127
290.6898412698413	290.8059410430839	70	127
290.6898412698413	290.8059410430839	43	127
290.85238095238094	290.9568707482993	72	127
290.85238095238094	290.9568707482993	67	127
290.85238095238094	291.16585034013605	51	127
291.0033106575964	291.1774603174603	84	127
291.0033106575964	291.1309977324263	72	127
291.0033106575964	291.1309977324263	67	127
291.1774603174603	291.3051700680272	72	127
291.1774603174603	291.3051700680272	67	127
291.1774603174603	291.35160997732424	84	127
291.35160997732424	291.3748299319728	67	127
291.35160997732424	291.3748299319728	72	127
291.3748299319728	291.43287981859413	82	127
291.43287981859413	291.54895691609977	73	127
291.43287981859413	291.54895691609977	67	127
291.43287981859413	291.60702947845806	81	127
291.43287981859413	291.781179138322	51	127
291.61863945578233	291.73473922902497	67	127
291.61863945578233	291.73473922902497	73	127
291.69990929705216	291.781179138322	79	127
291.781179138322	292.10625850340136	50	127
291.781179138322	291.955306122449	79	127
291.781179138322	292.10625850340136	74	127
291.781179138322	292.10625850340136	69	127
291.955306122449	292.11786848072563	78	127
292.11786848072563	292.268798185941	78	127
292.3152380952381	292.41972789115647	79	127
292.47777777777776	292.5938775510204	81	127
292.6403174603175	292.80285714285714	67	127
292.6403174603175	292.80285714285714	70	127
292.6403174603175	292.7564172335601	75	127
292.80285714285714	293.1395464852608	69	127
292.80285714285714	293.0002267573696	75	127
292.80285714285714	293.1395464852608	66	127
293.0002267573696	293.15115646258505	74	127
293.15115646258505	293.2556462585034	74	127
293.30208616780044	293.42979591836735	73	127
293.4762358276644	293.59231292517006	74	127
293.6271655328798	293.78968253968253	51	127
293.6271655328798	293.74326530612245	73	127
293.6271655328798	293.78968253968253	55	127
293.78968253968253	294.19605442176874	54	127
293.78968253968253	293.9058049886621	74	127
293.78968253968253	294.19605442176874	50	127
293.9522448979592	294.09156462585037	75	127
294.207641723356	294.4050113378685	74	127
294.4514739229025	294.5791836734694	75	127
294.6256235827664	294.7649433106576	74	127
294.8113605442177	294.96231292517007	75	127
295.0203401360544	295.28739229024944	74	127
295.0203401360544	295.8562811791383	70	127
295.0203401360544	295.8562811791383	67	127
295.28739229024944	295.531179138322	74	127
295.531179138322	295.6124716553288	77	127
295.6124716553288	295.69374149659865	76	127
295.69374149659865	295.7750113378685	74	127
295.7750113378685	295.8678911564626	76	127
295.8678911564626	296.3903401360544	65	127
295.8678911564626	296.3903401360544	65	127
295.8678911564626	296.19297052154195	77	127
295.8678911564626	296.3903401360544	69	127
296.2045804988662	296.56448979591835	77	127
296.4019501133787	296.56448979591835	72	127
296.4019501133787	296.56448979591835	63	127
296.4019501133787	296.56448979591835	69	127
296.56448979591835	296.73863945578233	70	127
296.56448979591835	296.73863945578233	67	127
296.56448979591835	296.73863945578233	62	127
296.56448979591835	296.91278911564626	77	127
296.73863945578233	296.9360090702948	69	127
296.73863945578233	296.9360090702948	60	127
296.73863945578233	296.9360090702948	75	127
296.9360090702948	297.4468480725624	77	127
296.9360090702948	297.6209977324263	74	127
296.9360090702948	297.6209977324263	58	127
296.9360090702948	297.6209977324263	70	127
297.45845804988664	297.6209977324263	78	127
297.6326077097506	297.8067573696145	58	127
297.6326077097506	297.8067573696145	74	127
297.6326077097506	297.8067573696145	79	127
297.6326077097506	297.8067573696145	70	127
297.8067573696145	297.9808843537415	60	127
297.8067573696145	297.9808843537415	72	127
297.8067573696145	297.9692970521542	75	127
297.8067573696145	297.9808843537415	67	127
297.9808843537415	298.3524263038549	69	127
297.9808843537415	298.49172335600906	62	127
297.9808843537415	298.3524263038549	74	127
297.9808843537415	298.3524263038549	66	127
298.3524263038549	298.66589569161	66	127
298.3524263038549	298.66589569161	74	127
298.3524263038549	298.66589569161	69	127
298.50333333333333	298.67750566893426	60	127
298.67750566893426	298.86326530612246	58	127
298.67750566893426	299.0606349206349	66	127
298.67750566893426	299.0606349206349	74	127
298.67750566893426	299.0606349206349	69	127
298.86326530612246	299.0722448979592	57	127
299.0722448979592	299.78045351473924	70	127
299.0722448979592	300.14036281179136	55	127
299.0722448979592	299.4321541950113	67	127
299.0722448979592	299.78045351473924	74	127
299.4321541950113	299.78045351473924	62	127
299.7920634920635	300.31451247165535	70	127
299.7920634920635	299.8501133786848	64	127
299.7920634920635	300.31451247165535	82	127
299.8501133786848	299.9313605442177	65	127
299.9313605442177	299.9778231292517	64	127
299.9778231292517	300.0707029478458	62	127
300.0707029478458	300.15197278911563	64	127
300.15197278911563	300.7324716553288	53	127
300.15197278911563	300.4886621315193	65	127
300.3261224489796	300.4886621315193	79	127
300.3261224489796	300.4886621315193	67	127
300.4886621315193	300.8950113378685	65	127
300.4886621315193	300.7324716553288	81	127
300.4886621315193	300.7324716553288	69	127
300.7324716553288	300.90662131519275	51	127
300.7324716553288	300.90662131519275	72	127
300.7324716553288	300.90662131519275	84	127
300.90662131519275	301.0807709750567	70	127
300.90662131519275	301.0807709750567	50	127
300.90662131519275	301.0807709750567	82	127
300.90662131519275	301.2433106575964	65	127
301.0807709750567	301.2433106575964	87	127
301.0807709750567	301.2433106575964	75	127
301.0807709750567	301.2433106575964	48	127
301.2433106575964	301.76573696145124	65	127
301.2433106575964	301.9282993197279	46	127
301.2433106575964	301.4174603174603	74	127
301.2433106575964	301.4174603174603	86	127
301.4174603174603	301.59160997732425	81	127
301.4174603174603	301.59160997732425	69	127
301.59160997732425	301.76573696145124	82	127
301.59160997732425	301.76573696145124	70	127
301.76573696145124	301.93990929705217	66	127
301.76573696145124	301.93990929705217	78	127
301.76573696145124	302.09083900226756	62	127
301.93990929705217	302.1024489795918	79	127
301.93990929705217	302.1024489795918	67	127
301.93990929705217	302.1024489795918	46	127
302.1024489795918	302.26498866213154	63	127
302.1024489795918	302.26498866213154	75	127
302.1024489795918	302.26498866213154	55	127
302.1024489795918	302.26498866213154	48	127
302.26498866213154	302.82226757369614	62	127
302.26498866213154	302.60167800453513	74	127
302.26498866213154	302.82226757369614	54	127
302.26498866213154	302.82226757369614	50	127
302.62489795918367	302.9731972789116	74	127
302.82226757369614	302.98480725623585	57	127
302.82226757369614	302.98480725623585	48	127
302.82226757369614	302.98480725623585	66	127
302.98480725623585	303.1821768707483	58	127
302.98480725623585	303.1821768707483	67	127
302.98480725623585	303.1821768707483	46	127
302.98480725623585	303.35632653061225	74	127
303.1821768707483	303.35632653061225	66	127
303.1821768707483	303.35632653061225	72	127
303.1821768707483	303.35632653061225	45	127
303.35632653061225	303.5304761904762	62	127
303.35632653061225	303.5304761904762	70	127
303.35632653061225	303.5304761904762	74	127
303.35632653061225	303.5304761904762	67	127
303.35632653061225	303.9252154195011	43	127
303.57691609977326	303.6814058956916	62	127
303.57691609977326	303.6814058956916	69	127
303.57691609977326	303.6814058956916	66	127
303.57691609977326	303.6814058956916	74	127
303.7394557823129	304.8307709750567	62	127
303.7394557823129	304.8307709750567	74	127
303.7394557823129	304.8307709750567	70	127
303.7394557823129	304.8307709750567	67	127
303.9252154195011	304.07614512471656	50	127
304.12256235827664	304.8307709750567	55	127
304.8424036281179	304.9701133786848	66	127
304.8424036281179	304.9701133786848	74	127
304.8424036281179	304.9701133786848	62	127
304.8424036281179	304.9701133786848	69	127
304.8424036281179	304.9701133786848	50	127
305.0165532879819	305.1907029478458	74	127
305.0165532879819	305.1907029478458	62	127
305.0165532879819	305.1907029478458	70	127
305.0165532879819	305.1907029478458	67	127
305.0165532879819	305.1907029478458	55	127
305.2371428571429	305.9685714285714	62	127
305.2371428571429	305.9685714285714	74	127
305.2371428571429	305.9685714285714	69	127
305.2371428571429	305.9685714285714	66	127
305.2371428571429	305.9685714285714	50	127
305.9801814058957	306.0962811791383	55	127
305.9801814058957	306.0962811791383	74	127
305.9801814058957	306.0962811791383	70	127
305.9801814058957	306.0962811791383	62	127
305.9801814058957	306.0962811791383	67	127
306.15433106575966	306.3168707482993	74	127
306.15433106575966	306.3168707482993	69	127
306.15433106575966	306.3168707482993	62	127
306.15433106575966	306.3168707482993	66	127
306.15433106575966	306.3168707482993	50	127
306.39814058956915	307.07151927437644	70	127
306.39814058956915	307.07151927437644	74	127
306.39814058956915	307.07151927437644	62	127
306.39814058956915	307.07151927437644	67	127
306.39814058956915	307.07151927437644	55	127
307.0831065759637	307.1992290249433	62	127
307.0831065759637	307.1992290249433	74	127
307.0831065759637	307.1992290249433	69	127
307.0831065759637	307.1992290249433	66	127
307.0831065759637	307.1992290249433	50	127
307.25727891156464	307.38496598639455	74	127
307.25727891156464	307.38496598639455	62	127
307.25727891156464	307.38496598639455	70	127
307.25727891156464	307.38496598639455	67	127
307.25727891156464	307.38496598639455	55	127
307.43142857142857	307.8261678004535	50	127
307.43142857142857	307.8261678004535	62	127
307.43142857142857	307.8261678004535	69	127
307.43142857142857	307.8261678004535	66	127
307.43142857142857	308.34861678004535	74	127
307.8261678004535	308.34861678004535	43	127
307.8261678004535	308.34861678004535	70	127
307.8261678004535	308.34861678004535	67	127
308.34861678004535	309.50961451247167	44	127
308.34861678004535	309.50961451247167	72	127
308.34861678004535	309.50961451247167	63	127
308.34861678004535	309.50961451247167	60	127
309.5560544217687	309.9159637188209	38	127
309.5560544217687	309.9159637188209	69	127
309.5560544217687	309.9159637188209	66	127
309.5560544217687	309.9159637188209	60	127
309.92757369614515	310.3687528344671	70	127
309.92757369614515	310.3687528344671	67	127
309.92757369614515	310.3687528344671	58	127
309.92757369614515	310.3687528344671	43	127
310.3803628117914	310.64739229024946	67	127
310.3803628117914	310.64739229024946	58	127
310.3803628117914	310.64739229024946	43	127
310.64739229024946	310.74027210884356	72	127
310.64739229024946	310.74027210884356	60	127
310.64739229024946	310.74027210884356	51	127
310.64739229024946	310.74027210884356	44	127
310.74027210884356	312.0870294784581	72	127
310.74027210884356	312.0870294784581	60	127
310.74027210884356	312.0870294784581	51	127
310.74027210884356	312.0870294784581	44	127
312.1799092970522	312.51659863945576	38	127
312.1799092970522	312.51659863945576	69	127
312.1799092970522	312.51659863945576	62	127
312.1799092970522	312.51659863945576	60	127
312.1799092970522	312.51659863945576	54	127
312.51659863945576	313.0854875283447	55	127
312.51659863945576	313.0854875283447	70	127
312.51659863945576	313.0854875283447	58	127
312.51659863945576	313.0854875283447	62	127
312.51659863945576	313.0854875283447	43	127
313.09709750566896	313.2712471655329	43	127
313.09709750566896	313.2712471655329	55	127
313.09709750566896	313.2712471655329	67	127
313.09709750566896	313.2712471655329	55	127
313.3292970521542	313.4918367346939	67	127
313.3292970521542	313.4918367346939	55	127
313.3292970521542	313.4918367346939	55	127
313.3292970521542	313.4918367346939	43	127
313.5498866213152	313.82850340136054	67	127
313.5498866213152	313.82850340136054	55	127
313.5498866213152	313.82850340136054	55	127
313.5498866213152	313.82850340136054	43	127
313.8981859410431	314.14197278911564	67	127
313.8981859410431	314.14197278911564	55	127
313.8981859410431	314.14197278911564	43	127
313.8981859410431	314.14197278911564	55	127
314.23485260770974	314.3393424036281	67	127
314.23485260770974	314.3393424036281	55	127
314.23485260770974	314.3393424036281	43	127
314.23485260770974	314.3393424036281	55	127
314.38580498866213	314.50190476190477	67	127
314.38580498866213	314.50190476190477	55	127
314.38580498866213	314.50190476190477	55	127
314.38580498866213	314.50190476190477	43	127
314.54832199546485	314.6528117913832	43	127
314.54832199546485	314.6528117913832	67	127
314.54832199546485	314.6528117913832	55	127
314.54832199546485	314.6528117913832	55	127
314.69927437641724	314.8153741496599	55	127
314.69927437641724	314.8153741496599	55	127
314.69927437641724	314.8153741496599	43	127
314.69927437641724	314.8153741496599	67	127
314.88503401360543	315.0011337868481	67	127
314.88503401360543	315.0011337868481	55	127
314.88503401360543	315.0011337868481	43	127
314.88503401360543	315.0011337868481	55	127
315.04757369614515	315.1636507936508	67	127
315.04757369614515	315.1636507936508	55	127
315.04757369614515	315.1636507936508	55	127
315.04757369614515	315.1636507936508	43	127
315.2101133786848	316.26662131519276	67	127
315.2101133786848	316.26662131519276	55	127
315.2101133786848	316.26662131519276	43	127
315.2101133786848	316.26662131519276	55	127
316.26662131519276	317.4392290249433	69	127
316.26662131519276	317.4392290249433	57	127
316.26662131519276	317.4392290249433	45	127
316.26662131519276	317.4392290249433	57	127
317.45083900226757	318.53054421768707	70	127
317.45083900226757	318.53054421768707	58	127
317.45083900226757	318.53054421768707	46	127
317.45083900226757	318.53054421768707	58	127
318.5421768707483	319.2852154195011	49	127
318.5421768707483	319.2852154195011	61	127
318.5421768707483	319.2852154195011	37	127
319.30843537414967	319.67995464852606	60	127
319.30843537414967	319.67995464852606	48	127
319.30843537414967	319.67995464852606	36	127
319.7031746031746	319.8424943310658	41	127
319.7031746031746	320.72485260770975	65	127
319.7031746031746	320.72485260770975	53	127
319.90054421768707	320.0166439909297	41	127
320.0630612244898	320.3068934240363	41	127
320.3997732426304	320.6435827664399	41	127
320.736462585034	321.76975056689344	50	127
320.736462585034	320.8641723356009	41	127
320.736462585034	321.76975056689344	62	127
320.91061224489795	321.03832199546486	41	127
321.0963492063492	321.3401814058957	41	127
321.4330612244898	321.6884807256236	41	127
321.7813605442177	321.9206802721088	41	127
321.7813605442177	322.1528798185941	60	127
321.7813605442177	322.9191383219955	72	127
321.7813605442177	323.3138775510204	48	127
321.99034013605444	322.1064399092971	41	127
322.1528798185941	322.54761904761904	62	127
322.1528798185941	322.280589569161	41	127
322.35024943310657	322.48956916099775	41	127
322.5592290249433	322.9191383219955	64	127
322.5592290249433	322.6985487528345	41	127
322.7449886621315	322.8726984126984	41	127
322.9191383219955	323.6853968253968	60	127
322.9191383219955	323.6853968253968	65	127
322.9191383219955	324.08013605442176	41	127
322.9191383219955	323.6853968253968	69	127
323.3138775510204	323.6853968253968	50	127
323.6853968253968	324.08013605442176	58	127
323.6853968253968	324.08013605442176	67	127
323.6853968253968	324.08013605442176	52	127
324.091746031746	324.7419047619048	57	127
324.091746031746	324.7419047619048	65	127
324.091746031746	324.7419047619048	53	127
324.091746031746	324.20784580498866	72	127
324.25426303854874	324.3703854875283	77	127
324.4168253968254	324.53292517006804	81	127
324.59097505668933	324.70707482993197	77	127
324.75351473922905	324.8695918367347	79	127
324.9160544217687	325.03215419501134	76	127
325.09020408163263	325.3340136054422	77	127
325.415283446712	326.1467120181406	72	127
326.15832199546486	326.2744217687075	74	127
326.3208616780045	326.4253514739229	72	127
326.48340136054424	326.5995011337869	70	127
326.6459410430839	326.76204081632653	69	127
326.8084807256236	326.92455782312925	67	127
326.98263038548754	327.0987301587302	72	127
327.1451700680272	327.400589569161	69	127
327.51668934240365	328.1320181405896	65	127
328.14360544217686	328.25972789115644	69	127
328.3061678004535	328.4687074829932	72	127
328.51514739229026	328.6312471655329	77	127
328.6776870748299	328.79378684807256	81	127
328.84022675736963	328.96791383219954	79	127
329.01437641723356	329.1304761904762	76	127
329.1769160997732	329.29301587301586	77	127
329.3510657596372	329.46716553287985	81	127
329.51360544217687	329.9895918367347	84	127
330.0012244897959	330.1637641723356	86	127
330.1637641723356	330.314693877551	84	127
330.3263038548753	330.4540136054422	69	127
330.3263038548753	330.4540136054422	72	127
330.3263038548753	330.4540136054422	62	127
330.3263038548753	330.488843537415	81	127
330.50043083900226	330.6281632653061	69	127
330.50043083900226	330.6281632653061	72	127
330.50043083900226	330.6281632653061	62	127
330.50043083900226	330.6746031746032	77	127
330.6746031746032	330.83714285714285	69	127
330.6746031746032	330.83714285714285	72	127
330.6746031746032	330.83714285714285	62	127
330.6746031746032	330.87197278911566	79	127
330.88358276643993	330.9532426303855	77	127
330.88358276643993	331.2551020408163	72	127
330.88358276643993	331.2551020408163	62	127
330.88358276643993	331.2551020408163	69	127
330.9532426303855	331.01126984126984	79	127
331.01126984126984	331.0809523809524	77	127
331.0809523809524	331.1622222222222	76	127
331.1622222222222	331.2551020408163	77	127
331.2551020408163	331.66145124716553	76	127
331.2551020408163	332.32321995464855	64	127
331.2551020408163	331.38281179138323	68	127
331.2551020408163	332.32321995464855	76	127
331.2551020408163	331.38281179138323	71	127
331.42925170068025	331.56857142857143	64	127
331.66145124716553	331.9052607709751	64	127
331.9865306122449	332.24195011337866	64	127
332.3348072562358	332.4509297052154	64	127
332.3348072562358	333.37972789115645	72	127
332.3348072562358	333.37972789115645	60	127
332.4973696145125	332.6134693877551	64	127
332.6831292517007	332.9269387755102	64	127
333.04303854875286	333.2984580498866	64	127
333.3913378684807	334.73809523809524	71	127
333.3913378684807	333.73963718820863	71	127
333.3913378684807	334.73809523809524	59	127
333.3913378684807	333.5306575963719	64	127
333.5770975056689	333.69319727891155	64	127
333.73963718820863	333.86732426303854	64	127
333.73963718820863	334.0763038548753	73	127
333.91378684807256	334.0298866213152	64	127
334.0763038548753	334.19242630385486	64	127
334.0763038548753	334.4014058956916	75	127
334.2504761904762	334.36657596371884	64	127
334.41301587301587	335.0631746031746	76	127
334.41301587301587	335.4114739229025	64	127
334.7497052154195	335.0631746031746	68	127
334.7497052154195	335.0631746031746	56	127
335.0631746031746	335.4114739229025	69	127
335.0631746031746	335.4114739229025	57	127
335.42308390022674	335.55079365079365	59	127
335.42308390022674	336.18934240362813	52	127
335.42308390022674	336.18934240362813	64	127
335.6204535147392	335.7946031746032	64	127
335.82943310657595	335.9687528344671	68	127
336.0268027210884	336.14290249433105	64	127
336.18934240362813	336.3286394557823	66	127
336.37510204081633	336.49120181405897	63	127
336.537641723356	336.76984126984127	64	127
336.86272108843536	337.5825396825397	59	127
337.5825396825397	337.7450793650794	61	127
337.8031292517007	337.9192290249433	59	127
337.9540362811791	338.0701587301587	57	127
338.12820861678006	338.26750566893423	56	127
338.2907482993197	338.3952380952381	54	127
338.44167800453516	338.5577777777778	59	127
338.56936507936507	338.7783446712018	56	127
338.85963718820864	339.62589569160997	52	127
339.63750566893424	339.7536054421769	72	127
339.80002267573695	339.91614512471654	71	127
339.9625850340136	340.07868480725625	69	127
340.13673469387754	340.2528344671202	67	127
340.29927437641726	340.4269841269841	66	127
340.4734240362812	340.61272108843536	69	127
340.6824036281179	340.79850340136056	63	127
340.8449433106576	340.9726530612245	66	127
341.01909297052157	341.1468027210884	60	127
341.1932426303855	341.30934240362814	59	127
341.3790022675737	341.49510204081633	89	127
341.3790022675737	341.49510204081633	77	127
341.5415192743764	341.657641723356	88	127
341.5415192743764	341.657641723356	76	127
341.7040816326531	341.80857142857144	74	127
341.7040816326531	341.80857142857144	86	127
341.85501133786846	341.90145124716554	84	127
341.85501133786846	341.90145124716554	72	127
341.93628117913835	342.052358276644	71	127
341.93628117913835	342.052358276644	83	127
342.098820861678	342.21492063492065	81	127
342.098820861678	342.21492063492065	69	127
342.26136054421767	342.3310204081633	80	127
342.26136054421767	342.3310204081633	56	127
342.26136054421767	342.3310204081633	68	127
342.3774603174603	342.49356009070294	83	127
342.3774603174603	342.49356009070294	71	127
342.3774603174603	342.49356009070294	59	127
342.5516099773243	342.6096598639456	79	127
342.5516099773243	342.6096598639456	67	127
342.5516099773243	342.6096598639456	55	127
342.6096598639456	342.71414965986395	77	127
342.6096598639456	342.71414965986395	65	127
342.6096598639456	342.71414965986395	53	127
342.7257596371882	342.8534693877551	64	127
342.7257596371882	342.8534693877551	52	127
342.7257596371882	342.8534693877551	76	127
342.8650566893424	342.9231292517007	67	127
342.8650566893424	342.9231292517007	43	127
342.8650566893424	342.9231292517007	55	127
342.9231292517007	343.0392290249433	65	127
342.9231292517007	343.0392290249433	53	127
342.9231292517007	343.0392290249433	41	127
343.0392290249433	343.2249886621315	64	127
343.0392290249433	343.2249886621315	52	127
343.0392290249433	343.2249886621315	40	127
343.2249886621315	343.2946485260771	55	127
343.2249886621315	343.2946485260771	43	127
343.2249886621315	343.2946485260771	67	127
343.2946485260771	343.43396825396826	65	127
343.2946485260771	343.43396825396826	41	127
343.2946485260771	343.43396825396826	53	127
343.44557823129253	343.642947845805	40	127
343.44557823129253	343.642947845805	52	127
343.44557823129253	343.642947845805	64	127
343.642947845805	343.8170975056689	45	127
343.642947845805	343.7706575963719	57	127
343.642947845805	343.7706575963719	69	127
343.642947845805	343.8170975056689	61	127
343.642947845805	343.8170975056689	64	127
343.642947845805	344.0144671201814	57	127
343.642947845805	344.0144671201814	69	127
343.8170975056689	344.0144671201814	61	127
343.8170975056689	344.0144671201814	64	127
343.8170975056689	344.0144671201814	45	127
343.8170975056689	343.93319727891156	69	127
343.8170975056689	343.93319727891156	57	127
344.02607709750566	344.25827664399094	69	127
344.02607709750566	344.1770068027211	73	127
344.02607709750566	344.1770068027211	76	127
344.02607709750566	344.25827664399094	57	127
344.1886167800454	344.35115646258504	76	127
344.1886167800454	344.35115646258504	73	127
344.35115646258504	344.52530612244897	61	127
344.35115646258504	344.52530612244897	64	127
344.35115646258504	344.52530612244897	45	127
344.35115646258504	344.60655328798185	57	127
344.35115646258504	344.60655328798185	69	127
344.53691609977324	344.6878458049887	61	127
344.53691609977324	344.6878458049887	64	127
344.53691609977324	344.6878458049887	45	127
344.69945578231295	344.8155328798186	57	127
344.69945578231295	344.8619954648526	73	127
344.69945578231295	344.8619954648526	76	127
344.69945578231295	344.8155328798186	69	127
344.8619954648526	344.97809523809525	57	127
344.8619954648526	345.02453514739227	73	127
344.8619954648526	345.02453514739227	76	127
344.8619954648526	344.97809523809525	69	127
345.03614512471654	345.187074829932	61	127
345.03614512471654	345.187074829932	64	127
345.03614512471654	345.187074829932	43	127
345.03614512471654	345.2799546485261	57	127
345.03614512471654	345.2799546485261	69	127
345.19868480725626	345.38444444444445	64	127
345.19868480725626	345.38444444444445	43	127
345.19868480725626	345.38444444444445	61	127
345.38444444444445	345.5469841269841	73	127
345.38444444444445	345.66308390022675	57	127
345.38444444444445	345.66308390022675	69	127
345.38444444444445	345.5469841269841	76	127
345.5585941043084	345.7443537414966	73	127
345.5585941043084	345.7443537414966	76	127
345.75596371882085	345.8720634920635	57	127
345.75596371882085	345.8720634920635	69	127
345.75596371882085	345.91850340136057	62	127
345.75596371882085	345.91850340136057	65	127
345.75596371882085	345.91850340136057	41	127
345.91850340136057	346.0462131519274	57	127
345.91850340136057	346.0462131519274	69	127
345.91850340136057	346.0810430839002	65	127
345.91850340136057	346.0810430839002	41	127
345.91850340136057	346.0810430839002	62	127
346.10426303854877	346.2668027210884	74	127
346.10426303854877	346.3480498866213	57	127
346.10426303854877	346.3480498866213	69	127
346.10426303854877	346.2668027210884	77	127
346.2668027210884	346.42934240362814	74	127
346.2668027210884	346.42934240362814	77	127
346.4409297052154	346.58027210884353	62	127
346.4409297052154	346.58027210884353	65	127
346.4409297052154	346.58027210884353	41	127
346.4409297052154	346.66154195011336	57	127
346.4409297052154	346.66154195011336	69	127
346.5918820861678	346.76603174603173	62	127
346.5918820861678	346.76603174603173	65	127
346.5918820861678	346.76603174603173	41	127
346.76603174603173	346.88213151927437	68	127
346.76603174603173	346.88213151927437	74	127
346.76603174603173	346.88213151927437	57	127
346.76603174603173	346.88213151927437	59	127
346.76603174603173	346.88213151927437	38	127
346.76603174603173	346.88213151927437	45	127
346.76603174603173	346.88213151927437	77	127
346.9401814058957	347.05625850340135	57	127
346.9401814058957	347.05625850340135	68	127
346.9401814058957	347.05625850340135	77	127
346.9401814058957	347.05625850340135	59	127
346.9401814058957	347.05625850340135	38	127
346.9401814058957	347.05625850340135	45	127
346.9401814058957	347.05625850340135	74	127
347.1027210884354	347.218820861678	38	127
347.1027210884354	347.218820861678	68	127
347.1027210884354	347.218820861678	45	127
347.1027210884354	347.218820861678	74	127
347.1027210884354	347.218820861678	59	127
347.1027210884354	347.218820861678	77	127
347.1027210884354	347.218820861678	57	127
347.2768707482993	347.39297052154194	77	127
347.2768707482993	347.39297052154194	57	127
347.2768707482993	347.39297052154194	74	127
347.2768707482993	347.39297052154194	59	127
347.2768707482993	347.39297052154194	38	127
347.2768707482993	347.39297052154194	45	127
347.2768707482993	347.39297052154194	68	127
347.4510204081633	347.57873015873014	45	127
347.4510204081633	347.57873015873014	57	127
347.4510204081633	347.57873015873014	68	127
347.4510204081633	347.57873015873014	77	127
347.4510204081633	347.57873015873014	59	127
347.4510204081633	347.57873015873014	38	127
347.4510204081633	347.57873015873014	74	127
347.6251700680272	347.7528798185941	57	127
347.6251700680272	347.7528798185941	68	127
347.6251700680272	347.7528798185941	74	127
347.6251700680272	347.7528798185941	59	127
347.6251700680272	347.7528798185941	45	127
347.6251700680272	347.7528798185941	77	127
347.6251700680272	347.7528798185941	38	127
347.79931972789115	347.96185941043086	76	127
347.79931972789115	347.92702947845805	69	127
347.79931972789115	347.92702947845805	57	127
347.79931972789115	347.96185941043086	73	127
347.79931972789115	348.1360090702948	61	127
347.79931972789115	348.1360090702948	45	127
347.97344671201813	348.101179138322	69	127
347.97344671201813	348.1360090702948	73	127
347.97344671201813	348.1360090702948	76	127
347.97344671201813	348.101179138322	81	127
348.14761904761906	348.37981859410434	81	127
348.14761904761906	348.3101587301587	64	127
348.14761904761906	348.3101587301587	61	127
348.14761904761906	348.37981859410434	69	127
348.14761904761906	348.3101587301587	45	127
348.3101587301587	348.46108843537417	61	127
348.3101587301587	348.46108843537417	64	127
348.3101587301587	348.46108843537417	45	127
348.47269841269843	348.6816780045352	81	127
348.47269841269843	348.6816780045352	69	127
348.47269841269843	348.61201814058956	73	127
348.47269841269843	348.61201814058956	76	127
348.61201814058956	348.762947845805	73	127
348.61201814058956	348.762947845805	76	127
348.762947845805	348.8906575963719	69	127
348.762947845805	348.92548752834466	43	127
348.762947845805	348.92548752834466	61	127
348.762947845805	348.92548752834466	64	127
348.762947845805	348.8906575963719	81	127
348.93709750566893	349.05319727891157	81	127
348.93709750566893	349.09961451247165	43	127
348.93709750566893	349.09961451247165	64	127
348.93709750566893	349.05319727891157	69	127
348.93709750566893	349.09961451247165	61	127
349.09961451247165	349.3202267573696	69	127
349.09961451247165	349.23895691609977	73	127
349.09961451247165	349.23895691609977	76	127
349.09961451247165	349.3202267573696	81	127
349.25056689342404	349.4014965986395	73	127
349.25056689342404	349.4014965986395	76	127
349.41308390022675	349.6685260770975	81	127
349.41308390022675	349.5756462585034	61	127
349.41308390022675	349.5756462585034	64	127
349.41308390022675	349.6685260770975	69	127
349.41308390022675	349.5756462585034	43	127
349.5756462585034	349.74979591836734	61	127
349.5756462585034	349.74979591836734	43	127
349.5756462585034	349.74979591836734	64	127
349.7614058956916	349.9239229024943	77	127
349.7614058956916	349.9239229024943	74	127
349.7614058956916	349.8891156462585	69	127
349.7614058956916	349.8891156462585	81	127
349.93555555555554	350.06326530612245	81	127
349.93555555555554	350.1097052154195	74	127
349.93555555555554	350.06326530612245	69	127
349.93555555555554	350.1097052154195	77	127
350.1097052154195	350.353514739229	69	127
350.1097052154195	350.2722448979592	41	127
350.1097052154195	350.353514739229	81	127
350.1097052154195	350.2722448979592	65	127
350.1097052154195	350.2722448979592	62	127
350.28385487528345	350.4347619047619	62	127
350.28385487528345	350.4347619047619	65	127
350.28385487528345	350.4347619047619	41	127
350.4463945578231	350.69020408163266	69	127
350.4463945578231	350.69020408163266	81	127
350.4463945578231	350.6089342403628	77	127
350.4463945578231	350.6089342403628	74	127
350.6089342403628	350.7714739229025	74	127
350.6089342403628	350.7714739229025	77	127
350.78308390022676	350.8643537414966	45	127
350.78308390022676	350.8643537414966	68	127
350.78308390022676	350.8643537414966	38	127
350.78308390022676	350.8643537414966	83	127
350.78308390022676	350.8643537414966	86	127
350.78308390022676	350.8643537414966	77	127
350.78308390022676	350.8643537414966	69	127
350.91079365079366	351.01528344671203	45	127
350.91079365079366	351.01528344671203	77	127
350.91079365079366	351.01528344671203	69	127
350.91079365079366	351.01528344671203	83	127
350.91079365079366	351.01528344671203	68	127
350.91079365079366	351.01528344671203	38	127
350.91079365079366	351.01528344671203	86	127
351.06172335600905	351.1778231292517	86	127
351.06172335600905	351.1778231292517	69	127
351.06172335600905	351.1778231292517	83	127
351.06172335600905	351.1778231292517	68	127
351.06172335600905	351.1778231292517	45	127
351.06172335600905	351.1778231292517	38	127
351.06172335600905	351.1778231292517	77	127
351.2126530612245	351.29392290249433	69	127
351.2126530612245	351.29392290249433	45	127
351.2126530612245	351.29392290249433	77	127
351.2126530612245	351.29392290249433	86	127
351.2126530612245	351.29392290249433	68	127
351.2126530612245	351.29392290249433	83	127
351.2126530612245	351.29392290249433	38	127
351.3403628117914	351.4448526077098	69	127
351.3403628117914	351.4448526077098	83	127
351.3403628117914	351.4448526077098	38	127
351.3403628117914	351.4448526077098	86	127
351.3403628117914	351.4448526077098	45	127
351.3403628117914	351.4448526077098	77	127
351.3403628117914	351.4448526077098	68	127
351.4912925170068	351.6190022675737	77	127
351.4912925170068	351.6190022675737	83	127
351.4912925170068	351.6190022675737	69	127
351.4912925170068	351.6190022675737	68	127
351.4912925170068	351.6190022675737	45	127
351.4912925170068	351.6190022675737	38	127
351.4912925170068	351.6190022675737	86	127
351.677052154195	351.9905215419501	69	127
351.677052154195	351.78154195011336	45	127
351.677052154195	351.78154195011336	69	127
351.677052154195	351.9905215419501	81	127
351.677052154195	351.78154195011336	85	127
351.677052154195	351.78154195011336	76	127
351.8395918367347	351.95569160997735	57	127
351.8395918367347	351.95569160997735	69	127
351.8395918367347	351.95569160997735	45	127
352.00213151927437	352.118231292517	45	127
352.00213151927437	352.118231292517	57	127
352.00213151927437	352.118231292517	69	127
352.19950113378684	352.3156009070295	45	127
352.19950113378684	352.3156009070295	57	127
352.19950113378684	352.3156009070295	69	127
352.38526077097504	352.5245804988662	57	127
352.38526077097504	352.5245804988662	69	127
352.38526077097504	352.5245804988662	45	127
352.5710204081633	352.68709750566893	69	127
352.5710204081633	352.68709750566893	45	127
352.5710204081633	352.68709750566893	57	127
352.73356009070295	352.8844671201814	72	127
352.73356009070295	352.8960997732426	48	127
352.73356009070295	352.8844671201814	60	127
352.9425396825397	353.04702947845806	60	127
352.9425396825397	353.04702947845806	72	127
352.9425396825397	353.04702947845806	48	127
353.09344671201814	353.2095691609977	60	127
353.09344671201814	353.2095691609977	72	127
353.09344671201814	353.221179138322	48	127
353.2560090702948	353.3837188208617	72	127
353.2560090702948	353.3837188208617	60	127
353.2560090702948	353.3837188208617	48	127
353.4301587301587	353.54625850340136	74	127
353.4301587301587	353.54625850340136	77	127
353.4301587301587	353.54625850340136	53	127
353.4301587301587	353.54625850340136	41	127
353.4301587301587	353.54625850340136	65	127
353.59269841269844	353.7204081632653	53	127
353.59269841269844	353.7204081632653	77	127
353.59269841269844	353.73201814058956	41	127
353.59269841269844	353.7204081632653	65	127
353.59269841269844	353.7204081632653	74	127
353.76684807256237	353.8945578231293	77	127
353.76684807256237	353.8945578231293	46	127
353.76684807256237	353.8945578231293	53	127
353.76684807256237	353.8945578231293	50	127
353.76684807256237	353.8945578231293	65	127
353.9409977324263	354.09192743764174	46	127
353.9409977324263	354.0803174603175	58	127
353.9409977324263	354.09192743764174	50	127
353.9409977324263	354.0803174603175	70	127
353.9409977324263	354.0803174603175	82	127
354.1267573696145	354.2544671201814	62	127
354.1267573696145	354.2544671201814	86	127
354.1267573696145	354.2544671201814	74	127
354.1267573696145	354.3821768707483	50	127
354.1267573696145	354.3821768707483	46	127
354.31249433106575	354.42861678004533	82	127
354.31249433106575	354.42861678004533	58	127
354.31249433106575	354.42861678004533	70	127
354.45183673469387	354.55632653061224	84	127
354.45183673469387	354.55632653061224	72	127
354.45183673469387	354.55632653061224	60	127
354.45183673469387	354.6724263038549	46	127
354.45183673469387	354.6724263038549	51	127
354.59115646258505	354.7072562358277	57	127
354.59115646258505	354.7072562358277	81	127
354.59115646258505	354.7072562358277	69	127
354.765306122449	355.03231292517006	70	127
354.765306122449	354.8814058956916	50	127
354.765306122449	354.8814058956916	46	127
354.765306122449	355.03231292517006	82	127
354.765306122449	355.03231292517006	58	127
354.9278231292517	355.0787755102041	50	127
354.9278231292517	355.0787755102041	46	127
355.1136054421769	355.81020408163266	65	127
355.1136054421769	355.3806349206349	50	127
355.1136054421769	355.81020408163266	77	127
355.1136054421769	355.81020408163266	53	127
355.1136054421769	355.3806349206349	46	127
355.473514739229	355.72893424036283	50	127
355.473514739229	355.72893424036283	46	127
355.82181405895693	355.91469387755103	55	127
355.82181405895693	355.91469387755103	51	127
355.82181405895693	355.91469387755103	46	127
355.82181405895693	355.91469387755103	79	127
355.82181405895693	355.91469387755103	67	127
355.96113378684805	356.0772335600907	46	127
355.96113378684805	356.0656235827664	53	127
355.96113378684805	356.0772335600907	53	127
355.96113378684805	356.0656235827664	65	127
355.96113378684805	356.0656235827664	77	127
356.08884353741496	356.21655328798187	55	127
356.08884353741496	356.21655328798187	46	127
356.08884353741496	356.21655328798187	63	127
356.08884353741496	356.21655328798187	51	127
356.08884353741496	356.21655328798187	75	127
356.26297052154194	356.3674603174603	74	127
356.26297052154194	356.3790929705215	53	127
356.26297052154194	356.3674603174603	62	127
356.26297052154194	356.3674603174603	50	127
356.26297052154194	356.3790929705215	46	127
356.41392290249433	356.530022675737	72	127
356.41392290249433	356.530022675737	48	127
356.41392290249433	356.530022675737	60	127
356.41392290249433	356.54163265306124	46	127
356.41392290249433	356.54163265306124	51	127
356.6112925170068	356.750612244898	51	127
356.6112925170068	356.750612244898	57	127
356.6112925170068	356.750612244898	46	127
356.6112925170068	356.750612244898	77	127
356.6112925170068	356.750612244898	65	127
356.797052154195	357.0292517006803	58	127
356.797052154195	357.0292517006803	74	127
356.797052154195	356.91315192743764	46	127
356.797052154195	356.91315192743764	50	127
356.797052154195	357.0292517006803	62	127
356.94798185941045	357.0640816326531	53	127
356.94798185941045	357.07566893424035	50	127
357.1221315192744	357.238231292517	53	127
357.1221315192744	357.7490702947846	70	127
357.1221315192744	357.238231292517	58	127
357.1221315192744	357.7490702947846	58	127
357.2730612244898	357.38913832199546	62	127
357.2730612244898	357.4007709750567	58	127
357.4239909297052	357.54009070294785	65	127
357.4239909297052	357.5517006802721	62	127
357.59814058956914	357.7142403628118	60	127
357.59814058956914	357.7142403628118	63	127
357.76068027210886	357.8767800453515	62	127
357.76068027210886	357.8767800453515	74	127
357.76068027210886	357.8767800453515	62	127
357.76068027210886	357.88839002267576	58	127
357.9232199546485	358.03931972789115	65	127
357.9232199546485	358.03931972789115	58	127
357.9232199546485	358.0625396825397	53	127
357.9232199546485	358.03931972789115	77	127
358.1089795918367	358.22507936507935	82	127
358.1089795918367	358.22507936507935	70	127
358.1089795918367	358.22507936507935	50	127
358.1089795918367	358.22507936507935	53	127
358.27151927437643	358.38761904761907	86	127
358.27151927437643	358.38761904761907	74	127
358.27151927437643	358.38761904761907	53	127
358.27151927437643	358.39922902494334	46	127
358.4340589569161	358.57337868480727	53	127
358.4340589569161	358.57337868480727	84	127
358.4340589569161	358.57337868480727	53	127
358.4340589569161	358.57337868480727	72	127
358.6198185941043	358.72430839002266	81	127
358.6198185941043	358.72430839002266	51	127
358.6198185941043	358.7359183673469	41	127
358.6198185941043	358.72430839002266	69	127
358.77074829931973	358.8752380952381	82	127
358.77074829931973	358.8752380952381	46	127
358.77074829931973	358.8752380952381	50	127
358.77074829931973	358.8752380952381	70	127
358.9216553287982	359.03777777777776	50	127
358.9216553287982	359.03777777777776	86	127
358.9216553287982	359.03777777777776	74	127
358.9216553287982	359.03777777777776	46	127
359.08421768707484	359.5718367346939	89	127
359.08421768707484	359.2003174603175	62	127
359.08421768707484	359.2003174603175	58	127
359.08421768707484	359.5718367346939	77	127
359.2467573696145	359.36285714285714	62	127
359.2467573696145	359.36285714285714	58	127
359.4209070294785	359.5369841269841	62	127
359.4209070294785	359.5369841269841	58	127
359.58344671201814	359.6995464852608	62	127
359.58344671201814	359.6995464852608	58	127
359.58344671201814	359.7575963718821	79	127
359.58344671201814	359.7575963718821	91	127
359.7575963718821	359.8736961451247	89	127
359.7575963718821	359.8736961451247	62	127
359.7575963718821	360.08267573696145	77	127
359.7575963718821	359.8736961451247	58	127
359.93174603174606	360.0478231292517	46	127
359.93174603174606	360.0478231292517	86	127
359.93174603174606	360.0478231292517	50	127
360.0942857142857	360.21038548752836	62	127
360.0942857142857	360.21038548752836	82	127
360.0942857142857	360.21038548752836	58	127
360.2568253968254	360.36131519274375	84	127
360.2568253968254	360.36131519274375	58	127
360.2568253968254	360.36131519274375	62	127
360.4077551020408	360.52385487528346	58	127
360.4077551020408	360.4541723356009	82	127
360.4077551020408	360.52385487528346	62	127
360.4541723356009	360.5122448979592	84	127
360.5122448979592	360.5702947845805	82	127
360.5702947845805	360.66315192743764	58	127
360.5702947845805	360.70961451247166	77	127
360.5702947845805	360.62834467120183	81	127
360.5702947845805	360.66315192743764	62	127
360.62834467120183	360.70961451247166	82	127
360.70961451247166	360.81410430839003	63	127
360.70961451247166	360.9650113378685	81	127
360.70961451247166	360.81410430839003	75	127
360.70961451247166	360.81410430839003	60	127
360.83732426303857	360.9534240362812	72	127
360.83732426303857	360.9534240362812	48	127
360.83732426303857	360.9534240362812	51	127
360.9766439909297	361.0927437641723	69	127
360.9766439909297	361.0927437641723	63	127
360.9766439909297	361.0927437641723	60	127
361.16238095238094	361.31333333333333	60	127
361.16238095238094	361.31333333333333	70	127
361.16238095238094	361.31333333333333	63	127
361.39460317460316	361.5107029478458	60	127
361.39460317460316	361.4526530612245	69	127
361.39460317460316	361.5107029478458	63	127
361.4526530612245	361.49909297052153	70	127
361.49909297052153	361.5571428571429	69	127
361.5571428571429	361.696462585034	63	127
361.5571428571429	361.696462585034	60	127
361.5571428571429	361.66163265306125	67	127
361.66163265306125	361.75451247165535	69	127
361.75451247165535	361.88219954648525	60	127
361.75451247165535	361.88219954648525	63	127
361.75451247165535	361.88219954648525	87	127
361.9286621315193	362.0447619047619	48	127
361.9286621315193	362.0447619047619	51	127
361.9286621315193	362.0447619047619	84	127
362.091179138322	362.2073015873016	63	127
362.091179138322	362.2073015873016	81	127
362.091179138322	362.2073015873016	60	127
362.25374149659865	362.3698412698413	60	127
362.25374149659865	362.3698412698413	63	127
362.25374149659865	362.3698412698413	82	127
362.4162811791383	362.53238095238095	63	127
362.4162811791383	362.53238095238095	60	127
362.4162811791383	362.47433106575966	81	127
362.47433106575966	362.5207709750567	82	127
362.5207709750567	362.578820861678	81	127
362.578820861678	362.69489795918366	60	127
362.578820861678	362.69489795918366	63	127
362.578820861678	362.66009070294785	79	127
362.66009070294785	362.7413605442177	81	127
362.75297052154195	362.8690702947846	65	127
362.75297052154195	362.8690702947846	62	127
362.75297052154195	362.8690702947846	77	127
362.9155102040816	363.02	50	127
362.9155102040816	363.02	57	127
362.9155102040816	363.02	74	127
363.06643990929706	363.19414965986397	70	127
363.06643990929706	363.19414965986397	62	127
363.06643990929706	363.19414965986397	65	127
363.240589569161	363.39151927437644	65	127
363.240589569161	363.39151927437644	72	127
363.240589569161	363.39151927437644	62	127
363.43795918367346	363.56566893424036	65	127
363.43795918367346	363.5076190476191	70	127
363.43795918367346	363.56566893424036	62	127
363.5076190476191	363.56566893424036	72	127
363.56566893424036	363.61210884353744	70	127
363.61210884353744	363.75142857142856	65	127
363.61210884353744	363.7165986394558	69	127
363.61210884353744	363.75142857142856	62	127
363.7165986394558	363.78625850340137	70	127
363.79786848072564	363.9139682539683	67	127
363.79786848072564	363.9139682539683	82	127
363.79786848072564	363.9139682539683	63	127
363.93718820861676	364.0300453514739	79	127
363.93718820861676	364.0300453514739	51	127
363.93718820861676	364.0300453514739	55	127
364.07650793650794	364.1809977324263	72	127
364.07650793650794	364.1809977324263	63	127
364.07650793650794	364.1809977324263	67	127
364.2274376417234	364.33190476190475	63	127
364.2274376417234	364.33190476190475	67	127
364.2274376417234	364.33190476190475	74	127
364.3783673469388	364.48285714285714	70	127
364.3783673469388	364.42480725623585	72	127
364.3783673469388	364.48285714285714	67	127
364.3783673469388	364.48285714285714	64	127
364.42480725623585	364.48285714285714	74	127
364.48285714285714	364.5292970521542	72	127
364.5292970521542	364.5989569160998	71	127
364.5292970521542	364.6221768707483	64	127
364.5292970521542	364.6221768707483	72	127
364.5292970521542	364.6221768707483	67	127
364.5989569160998	364.66861678004534	72	127
364.66861678004534	364.784716553288	65	127
364.66861678004534	364.784716553288	69	127
364.66861678004534	364.784716553288	69	127
364.83115646258506	364.9356462585034	65	127
364.83115646258506	364.9356462585034	57	127
364.83115646258506	364.9356462585034	53	127
364.9936961451247	365.10979591836735	60	127
364.9936961451247	365.10979591836735	69	127
364.9936961451247	365.10979591836735	65	127
365.15621315192743	365.29555555555555	62	127
365.15621315192743	365.29555555555555	65	127
365.15621315192743	365.29555555555555	69	127
365.34199546485263	365.4000453514739	60	127
365.34199546485263	365.45807256235827	67	127
365.34199546485263	365.45807256235827	82	127
365.34199546485263	365.45807256235827	64	127
365.4000453514739	365.45807256235827	62	127
365.45807256235827	365.51614512471656	60	127
365.51614512471656	365.5974149659864	59	127
365.51614512471656	365.6322448979592	84	127
365.51614512471656	365.6322448979592	67	127
365.51614512471656	365.6322448979592	64	127
365.5974149659864	365.667052154195	60	127
365.667052154195	365.7831746031746	69	127
365.667052154195	365.7831746031746	81	127
365.667052154195	365.7831746031746	65	127
365.82961451247166	365.9573242630386	53	127
365.82961451247166	365.9573242630386	77	127
365.82961451247166	365.9573242630386	57	127
366.0037641723356	366.11986394557823	57	127
366.0037641723356	366.11986394557823	72	127
366.0037641723356	366.11986394557823	53	127
366.15469387755104	366.2591836734694	53	127
366.15469387755104	366.2591836734694	57	127
366.15469387755104	366.2591836734694	74	127
366.30562358276643	366.39850340136053	70	127
366.30562358276643	366.3636734693878	72	127
366.30562358276643	366.39850340136053	52	127
366.30562358276643	366.39850340136053	55	127
366.3636734693878	366.39850340136053	74	127
366.39850340136053	366.43333333333334	72	127
366.43333333333334	366.5378231292517	52	127
366.43333333333334	366.51460317460317	71	127
366.43333333333334	366.5378231292517	55	127
366.43333333333334	366.5378231292517	72	127
366.51460317460317	366.5726530612245	72	127
366.5726530612245	366.68873015873015	53	127
366.5726530612245	366.68873015873015	57	127
366.5726530612245	366.68873015873015	69	127
366.7584126984127	366.87451247165535	69	127
366.7584126984127	366.87451247165535	65	127
366.7584126984127	366.87451247165535	65	127
366.9209523809524	367.037052154195	60	127
366.9209523809524	367.037052154195	65	127
366.9209523809524	367.037052154195	69	127
367.0834920634921	367.1995691609977	69	127
367.0834920634921	367.1995691609977	65	127
367.0834920634921	367.1995691609977	62	127
367.257641723356	367.37374149659865	67	127
367.257641723356	367.37374149659865	82	127
367.257641723356	367.37374149659865	64	127
367.257641723356	367.3040589569161	60	127
367.3040589569161	367.3621315192744	62	127
367.3621315192744	367.4201814058957	60	127
367.4201814058957	367.5362811791383	67	127
367.4201814058957	367.5362811791383	64	127
367.4201814058957	367.50142857142856	59	127
367.4201814058957	367.5362811791383	84	127
367.50142857142856	367.5827210884354	60	127
367.5827210884354	367.69882086167803	81	127
367.7568707482993	367.87297052154196	77	127
367.91938775510204	368.0471201814059	74	127
368.09356009070297	368.2212471655329	72	127
368.2677097505669	368.38380952380953	69	127
368.4418594104308	368.56956916099773	65	127
368.6160090702948	368.73208616780045	62	127
368.77854875283447	368.8598185941043	60	127
368.8946485260771	369.0339455782313	57	127
369.0920181405896	369.2197278911565	53	127
369.27777777777777	369.4403174603175	50	127
369.4983673469388	369.7189569160998	48	127
369.78861678004534	370.5316553287982	41	127
371.13537414965987	371.4024036281179	70	127
371.4024036281179	371.49526077097505	72	127
371.49526077097505	371.83197278911564	73	127
371.8435827664399	372.2034693877551	75	127
372.21507936507936	372.9465306122449	77	127
372.5750113378685	373.2948299319728	61	127
372.5750113378685	373.2948299319728	65	127
372.5750113378685	373.2948299319728	58	127
372.95814058956915	373.2948299319728	78	127
373.30643990929707	373.4225396825397	80	127
373.30643990929707	373.99142857142857	63	127
373.30643990929707	373.99142857142857	66	127
373.30643990929707	373.99142857142857	58	127
373.4689795918367	373.58507936507937	78	127
373.63151927437644	373.77083900226756	77	127
373.81727891156464	373.9333786848073	75	127
373.99142857142857	374.6996371882086	65	127
373.99142857142857	374.1191383219955	73	127
373.99142857142857	374.362925170068	69	127
373.99142857142857	374.362925170068	58	127
374.1655782312925	374.31650793650795	72	127
374.37455782312924	374.6996371882086	58	127
374.37455782312924	374.6996371882086	70	127
374.37455782312924	374.4906575963719	73	127
374.53709750566895	374.6531972789116	72	127
374.7460770975057	374.8621541950113	70	127
374.90861678004535	375.03632653061226	66	127
375.0827664399093	375.1988662131519	65	127
375.25691609977326	375.3729931972789	63	127
375.44267573696146	375.5587755102041	61	127
375.44267573696146	375.7097052154195	70	127
375.44267573696146	377.13773242630384	82	127
375.6052154195011	375.73292517006803	60	127
375.7097052154195	375.7909523809524	72	127
375.7909523809524	375.90707482993196	58	127
375.7909523809524	376.1160544217687	73	127
375.95351473922904	376.0696145124717	54	127
376.1160544217687	376.45274376417234	75	127
376.1160544217687	376.2437641723356	53	127
376.2902040816327	376.4062811791383	51	127
376.45274376417234	376.568843537415	49	127
376.45274376417234	377.13773242630384	77	127
376.615283446712	376.7429931972789	48	127
376.789433106576	376.9055328798186	46	127
376.95197278911564	377.0912925170068	42	127
377.1493424036281	377.52083900226756	78	127
377.1493424036281	377.26544217687075	41	127
377.1493424036281	377.8459410430839	82	127
377.3118820861678	377.45120181405895	39	127
377.52083900226756	377.63696145124715	80	127
377.52083900226756	377.63696145124715	37	127
377.6950113378685	377.81111111111113	78	127
377.6950113378685	377.81111111111113	39	127
377.85755102040815	377.98526077097506	85	127
377.85755102040815	377.98526077097506	77	127
377.85755102040815	378.58897959183673	41	127
378.0432879818594	378.159410430839	84	127
378.0432879818594	378.159410430839	75	127
378.2290702947846	378.3683900226757	82	127
378.2290702947846	378.3683900226757	73	127
378.4264399092971	378.5425170068027	72	127
378.4264399092971	378.5425170068027	81	127
378.58897959183673	378.99532879818594	70	127
378.58897959183673	378.99532879818594	82	127
378.58897959183673	378.99532879818594	46	127
379.0069387755102	379.34362811791385	58	127
379.0069387755102	379.34362811791385	65	127
379.0069387755102	379.34362811791385	61	127
379.3552380952381	379.68031746031744	65	127
379.3552380952381	379.68031746031744	58	127
379.3552380952381	379.68031746031744	73	127
379.3552380952381	379.68031746031744	61	127
379.6919274376417	379.99378684807255	72	127
379.6919274376417	380.07505668934243	65	127
379.6919274376417	380.07505668934243	41	127
379.6919274376417	380.07505668934243	63	127
379.6919274376417	380.07505668934243	57	127
379.99378684807255	380.07505668934243	70	127
380.07505668934243	380.4233560090703	60	127
380.07505668934243	380.4233560090703	53	127
380.07505668934243	380.4233560090703	63	127
380.07505668934243	380.4233560090703	69	127
380.43496598639456	380.7948752834467	72	127
380.43496598639456	380.7948752834467	53	127
380.43496598639456	380.7948752834467	63	127
380.43496598639456	380.7948752834467	57	127
380.80648526077096	381.25927437641724	58	127
380.80648526077096	381.25927437641724	58	127
380.80648526077096	381.25927437641724	61	127
380.80648526077096	381.5959637188209	70	127
381.25927437641724	381.5959637188209	46	127
381.25927437641724	381.5959637188209	65	127
381.25927437641724	381.5959637188209	61	127
381.60757369614515	382.0603628117914	61	127
381.60757369614515	382.0603628117914	77	127
381.60757369614515	382.0603628117914	65	127
381.60757369614515	382.0603628117914	43	127
382.07197278911565	382.3622222222222	75	127
382.07197278911565	382.44349206349204	63	127
382.07197278911565	382.44349206349204	44	127
382.07197278911565	382.44349206349204	60	127
382.3622222222222	382.44349206349204	73	127
382.44349206349204	382.79179138321996	72	127
382.44349206349204	382.79179138321996	63	127
382.44349206349204	382.79179138321996	66	127
382.44349206349204	382.79179138321996	56	127
382.79179138321996	383.10526077097506	75	127
382.79179138321996	383.10526077097506	60	127
382.79179138321996	383.10526077097506	56	127
382.79179138321996	383.10526077097506	66	127
383.11687074829933	383.4535600907029	61	127
383.11687074829933	383.8599092970521	73	127
383.11687074829933	383.4535600907029	65	127
383.11687074829933	383.4535600907029	61	127
383.4651700680272	383.8599092970521	65	127
383.4651700680272	383.8599092970521	49	127
383.4651700680272	383.8599092970521	68	127
383.8599092970521	384.2314285714286	47	127
383.8599092970521	384.2314285714286	68	127
383.8599092970521	384.2314285714286	65	127
383.8599092970521	384.2314285714286	80	127
384.24303854875285	384.5681179138322	67	127
384.24303854875285	384.5681179138322	48	127
384.24303854875285	384.5681179138322	64	127
384.24303854875285	384.4984580498866	79	127
384.4984580498866	384.57972789115644	77	127
384.57972789115644	384.9048072562358	70	127
384.57972789115644	384.9048072562358	60	127
384.57972789115644	384.9048072562358	67	127
384.57972789115644	384.9048072562358	76	127
384.9048072562358	385.27632653061227	70	127
384.9048072562358	385.27632653061227	48	127
384.9048072562358	385.27632653061227	79	127
384.9048072562358	385.27632653061227	52	127
385.27632653061227	385.56657596371883	53	127
385.27632653061227	385.56657596371883	41	127
385.27632653061227	386.0077551020408	77	127
385.27632653061227	385.65945578231293	68	127
385.56657596371883	385.68267573696147	43	127
385.56657596371883	385.68267573696147	55	127
385.68267573696147	386.0077551020408	65	127
385.68267573696147	386.0077551020408	45	127
385.68267573696147	386.0077551020408	57	127
386.01936507936506	386.367664399093	67	127
386.01936507936506	386.367664399093	46	127
386.01936507936506	386.367664399093	58	127
386.01936507936506	386.367664399093	79	127
386.367664399093	387.1107029478458	69	127
386.367664399093	387.1107029478458	48	127
386.367664399093	387.1107029478458	60	127
386.367664399093	387.1107029478458	81	127
387.1223129251701	387.517052154195	49	127
387.1223129251701	387.517052154195	61	127
387.1223129251701	387.517052154195	70	127
387.1223129251701	387.517052154195	82	127
387.517052154195	387.6679818594104	51	127
387.517052154195	387.6679818594104	63	127
387.517052154195	387.6679818594104	72	127
387.517052154195	387.6679818594104	84	127
387.7144217687075	387.83052154195013	88	127
387.7144217687075	387.83052154195013	76	127
387.7144217687075	387.83052154195013	49	127
387.7144217687075	387.83052154195013	61	127
387.87696145124715	387.9930612244898	88	127
387.87696145124715	387.9930612244898	76	127
387.87696145124715	387.9930612244898	60	127
387.87696145124715	387.9930612244898	48	127
388.03950113378687	388.1672108843537	46	127
388.03950113378687	388.1672108843537	58	127
388.03950113378687	388.1672108843537	88	127
388.03950113378687	388.1672108843537	76	127
388.2136507936508	388.32975056689344	56	127
388.2136507936508	388.32975056689344	88	127
388.2136507936508	388.32975056689344	76	127
388.2136507936508	388.32975056689344	44	127
388.37619047619046	388.4922902494331	88	127
388.37619047619046	388.4922902494331	55	127
388.37619047619046	388.4922902494331	43	127
388.37619047619046	388.4922902494331	76	127
388.55034013605444	388.666439909297	56	127
388.55034013605444	388.666439909297	44	127
388.55034013605444	388.666439909297	89	127
388.55034013605444	388.666439909297	77	127
388.7128798185941	388.82897959183674	89	127
388.7128798185941	388.82897959183674	43	127
388.7128798185941	388.82897959183674	55	127
388.7128798185941	388.82897959183674	70	127
388.87541950113376	389.00312925170067	53	127
388.87541950113376	389.00312925170067	68	127
388.87541950113376	389.00312925170067	89	127
388.87541950113376	389.00312925170067	41	127
389.04956916099775	389.1656689342404	66	127
389.04956916099775	389.1656689342404	87	127
389.04956916099775	389.1656689342404	69	127
389.23532879818595	389.3514285714286	65	127
389.23532879818595	389.3514285714286	70	127
389.23532879818595	389.3514285714286	85	127
389.3978684807256	389.5255782312925	84	127
389.3978684807256	389.5255782312925	65	127
389.3978684807256	389.5255782312925	63	127
389.5836281179138	389.82743764172335	82	127
389.5836281179138	389.6881179138322	61	127
389.5836281179138	389.82743764172335	70	127
389.73455782312925	389.86226757369616	60	127
389.82743764172335	389.9087074829932	84	127
389.82743764172335	389.9087074829932	72	127
389.9087074829932	390.2221768707483	85	127
389.9087074829932	390.0248072562358	58	127
389.9087074829932	390.2221768707483	73	127
390.0712471655329	390.17573696145126	58	127
390.0712471655329	390.17573696145126	54	127
390.2221768707483	390.54725623582766	75	127
390.2221768707483	390.54725623582766	87	127
390.2221768707483	390.3498866213152	53	127
390.2221768707483	390.3498866213152	58	127
390.39632653061227	390.50081632653064	58	127
390.39632653061227	390.50081632653064	51	127
390.54725623582766	391.23224489795916	89	127
390.54725623582766	390.67496598639457	58	127
390.54725623582766	390.67496598639457	49	127
390.54725623582766	391.23224489795916	77	127
390.7214058956916	390.8491156462585	48	127
390.7214058956916	390.8491156462585	58	127
390.8955555555556	391.0116553287982	58	127
390.8955555555556	391.0116553287982	46	127
391.05809523809523	391.18580498866214	42	127
391.05809523809523	391.18580498866214	70	127
391.24385487528343	391.35995464852607	41	127
391.24385487528343	391.59215419501135	90	127
391.24385487528343	391.59215419501135	78	127
391.24385487528343	391.35995464852607	58	127
391.4180045351474	391.54571428571427	58	127
391.4180045351474	391.54571428571427	39	127
391.59215419501135	391.708253968254	38	127
391.59215419501135	391.708253968254	80	127
391.59215419501135	391.708253968254	92	127
391.59215419501135	391.708253968254	58	127
391.7663038548753	391.8824036281179	58	127
391.7663038548753	391.8824036281179	78	127
391.7663038548753	391.8824036281179	90	127
391.7663038548753	391.8824036281179	39	127
391.928843537415	392.0449433106576	77	127
391.928843537415	392.0449433106576	57	127
391.928843537415	392.0449433106576	89	127
391.928843537415	392.59061224489795	41	127
392.09138321995465	392.2074829931973	60	127
392.09138321995465	392.2074829931973	87	127
392.09138321995465	392.2074829931973	75	127
392.2655328798186	392.3816326530612	85	127
392.2655328798186	392.3816326530612	73	127
392.2655328798186	392.3816326530612	53	127
392.4280725623583	392.54417233560093	72	127
392.4280725623583	392.54417233560093	65	127
392.4280725623583	392.54417233560093	84	127
392.59061224489795	392.96213151927435	46	127
392.59061224489795	392.96213151927435	70	127
392.59061224489795	392.7415419501134	82	127
392.59061224489795	392.96213151927435	58	127
392.81120181405896	392.9273015873016	65	127
392.9737414965986	393.1014512471655	65	127
393.1595011337869	393.2872108843537	65	127
393.3336507936508	393.68195011337866	61	127
393.3336507936508	393.4729705215419	65	127
393.519410430839	393.63551020408164	65	127
393.69356009070293	393.80965986394557	63	127
393.69356009070293	393.94897959183675	60	127
393.85609977324265	393.9838095238095	65	127
393.94897959183675	394.0302494331066	58	127
394.0302494331066	394.3901587301587	57	127
394.0302494331066	394.1579591836735	60	127
394.22761904761904	394.35532879818595	65	127
394.401768707483	394.81972789115645	60	127
394.401768707483	394.81972789115645	63	127
394.401768707483	394.81972789115645	69	127
394.401768707483	394.57591836734696	77	127
394.63396825396825	394.7732879818594	77	127
394.8313378684807	395.551156462585	58	127
394.8313378684807	395.109977324263	70	127
394.8313378684807	395.109977324263	61	127
394.8313378684807	394.98226757369616	77	127
395.0287074829932	395.1448072562358	77	127
395.109977324263	395.1912471655329	72	127
395.109977324263	395.1912471655329	60	127
395.1912471655329	395.551156462585	58	127
395.1912471655329	395.551156462585	73	127
395.1912471655329	395.3421768707483	77	127
395.38861678004537	395.5163265306122	77	127
395.5627664399093	395.67886621315193	68	127
395.5627664399093	395.89945578231294	65	127
395.72530612244896	395.86462585034013	68	127
395.9110657596372	396.0271655328798	68	127
395.9110657596372	396.1548752834467	63	127
396.07360544217687	396.1897052154195	68	127
396.1548752834467	396.25936507936507	61	127
396.25936507936507	396.387074829932	68	127
396.25936507936507	396.607664399093	60	127
396.433514739229	396.5612244897959	68	127
396.607664399093	396.9675736961451	72	127
396.607664399093	396.7237641723356	80	127
396.607664399093	396.9675736961451	63	127
396.607664399093	396.9675736961451	66	127
396.8166439909297	396.93274376417236	80	127
396.9791836734694	397.11850340136056	80	127
396.9791836734694	397.2578231292517	65	127
396.9791836734694	397.2578231292517	73	127
396.9791836734694	397.67578231292515	61	127
397.1649433106576	397.2926530612245	80	127
397.2578231292517	397.35070294784583	75	127
397.2578231292517	397.35070294784583	63	127
397.35070294784583	397.4668027210884	80	127
397.35070294784583	397.67578231292515	61	127
397.35070294784583	397.67578231292515	77	127
397.5132426303855	397.62934240362813	80	127
397.67578231292515	398.03569160997733	68	127
397.67578231292515	397.80349206349206	72	127
397.8731519274376	397.98925170068026	72	127
398.0473015873016	398.16340136054424	70	127
398.0473015873016	398.33755102040817	67	127
398.20984126984126	398.372380952381	72	127
398.33755102040817	398.418820861678	65	127
398.418820861678	398.5465306122449	67	127
398.418820861678	398.7903401360544	64	127
398.59297052154193	398.7439002267574	72	127
398.7903401360544	398.9296598639456	72	127
398.7903401360544	399.1386394557823	67	127
398.7903401360544	399.1386394557823	76	127
398.7903401360544	399.1386394557823	70	127
398.97609977324265	399.09219954648523	72	127
399.1386394557823	399.3940589569161	77	127
399.1386394557823	399.3940589569161	65	127
399.1386394557823	399.25473922902495	72	127
399.1386394557823	399.3940589569161	68	127
399.31278911564624	399.4288888888889	77	127
399.3940589569161	399.47532879818596	76	127
399.3940589569161	399.47532879818596	67	127
399.3940589569161	399.47532879818596	70	127
399.47532879818596	399.80040816326533	69	127
399.47532879818596	399.80040816326533	72	127
399.47532879818596	399.80040816326533	77	127
399.47532879818596	399.5914285714286	77	127
399.6378684807256	399.75396825396825	89	127
399.81201814058954	400.1487074829932	70	127
399.81201814058954	399.93972789115645	89	127
399.81201814058954	400.1487074829932	73	127
399.81201814058954	400.1487074829932	79	127
399.98616780045353	400.10226757369617	89	127
400.1487074829932	400.2648072562358	89	127
400.1487074829932	400.8104761904762	72	127
400.1487074829932	400.8104761904762	75	127
400.1487074829932	400.8104761904762	81	127
400.3228571428571	400.43895691609976	89	127
400.48539682539683	400.60149659863947	89	127
400.6479365079365	400.7756462585034	89	127
400.8220861678005	401.2400453514739	77	127
400.8220861678005	400.93818594104306	89	127
400.8220861678005	401.2400453514739	73	127
400.8220861678005	401.2400453514739	82	127
401.07750566893424	401.1936054421769	89	127
401.2400453514739	401.3793650793651	75	127
401.2400453514739	401.3793650793651	84	127
401.2400453514739	401.3793650793651	89	127
401.2400453514739	401.3793650793651	78	127
401.42580498866215	401.5419047619048	82	127
401.42580498866215	401.5419047619048	89	127
401.42580498866215	401.5419047619048	73	127
401.42580498866215	401.5419047619048	77	127
401.5883446712018	401.70444444444445	75	127
401.5883446712018	401.70444444444445	89	127
401.5883446712018	401.70444444444445	72	127
401.5883446712018	401.70444444444445	80	127
401.76249433106574	401.89020408163265	73	127
401.76249433106574	401.89020408163265	79	127
401.76249433106574	401.89020408163265	89	127
401.76249433106574	401.89020408163265	70	127
401.9366439909297	402.05274376417236	72	127
401.9366439909297	402.05274376417236	77	127
401.9366439909297	402.05274376417236	89	127
401.9366439909297	402.05274376417236	68	127
402.0991836734694	402.215283446712	89	127
402.0991836734694	402.215283446712	76	127
402.0991836734694	402.215283446712	67	127
402.0991836734694	402.215283446712	70	127
402.26172335600904	402.3778231292517	72	127
402.26172335600904	402.3778231292517	77	127
402.26172335600904	402.3778231292517	89	127
402.26172335600904	402.3778231292517	68	127
402.435873015873	402.5287528344671	89	127
402.435873015873	402.5287528344671	70	127
402.435873015873	402.5287528344671	75	127
402.435873015873	402.5287528344671	66	127
402.57519274376415	402.70290249433106	68	127
402.57519274376415	402.70290249433106	89	127
402.57519274376415	402.70290249433106	65	127
402.57519274376415	402.70290249433106	73	127
402.74934240362813	402.8538321995465	66	127
402.74934240362813	402.8538321995465	72	127
402.74934240362813	402.8538321995465	77	127
402.74934240362813	402.8538321995465	63	127
402.9118820861678	403.02798185941043	65	127
402.9118820861678	403.02798185941043	70	127
402.9118820861678	403.02798185941043	61	127
402.9118820861678	403.02798185941043	79	127
403.0860317460317	403.21374149659863	69	127
403.0860317460317	403.21374149659863	60	127
403.0860317460317	403.21374149659863	81	127
403.0860317460317	403.21374149659863	63	127
403.27179138322	403.538820861678	70	127
403.27179138322	403.538820861678	82	127
403.27179138322	403.3995011337868	61	127
403.27179138322	403.60848072562356	58	127
403.4459410430839	403.5736507936508	60	127
403.538820861678	403.62009070294783	72	127
403.538820861678	403.62009070294783	84	127
403.62009070294783	403.9451700680272	73	127
403.62009070294783	403.9451700680272	85	127
403.62009070294783	403.7361904761905	58	127
403.78263038548755	403.89873015873013	58	127
403.78263038548755	403.89873015873013	54	127
403.9451700680272	404.3050793650794	75	127
403.9451700680272	404.0844897959184	58	127
403.9451700680272	404.0844897959184	53	127
403.9451700680272	404.3050793650794	87	127
404.1309297052154	404.24702947845805	58	127
404.1309297052154	404.24702947845805	51	127
404.3050793650794	404.421179138322	58	127
404.3050793650794	404.9552380952381	77	127
404.3050793650794	404.9552380952381	89	127
404.3050793650794	404.421179138322	49	127
404.46761904761905	404.59532879818596	58	127
404.46761904761905	404.59532879818596	48	127
404.641768707483	404.7578684807256	46	127
404.641768707483	404.7578684807256	58	127
404.7926984126984	404.90879818594107	70	127
404.7926984126984	404.90879818594107	42	127
404.96684807256236	405.28031746031746	90	127
404.96684807256236	405.0713378684807	41	127
404.96684807256236	405.0713378684807	58	127
404.96684807256236	405.28031746031746	78	127
405.1177777777778	405.2338775510204	39	127
405.1177777777778	405.2338775510204	58	127
405.28031746031746	405.3964172335601	80	127
405.28031746031746	405.3964172335601	92	127
405.28031746031746	405.3964172335601	38	127
405.28031746031746	405.3964172335601	58	127
405.4544671201814	405.57056689342403	90	127
405.4544671201814	405.57056689342403	78	127
405.4544671201814	405.57056689342403	39	127
405.4544671201814	405.57056689342403	58	127
405.6170068027211	405.73310657596375	89	127
405.6170068027211	406.1278458049887	41	127
405.6170068027211	405.73310657596375	57	127
405.6170068027211	405.73310657596375	77	127
405.77954648526077	405.9072562358277	75	127
405.77954648526077	405.9072562358277	60	127
405.77954648526077	405.9072562358277	87	127
405.9536961451247	406.0814058956916	73	127
405.9536961451247	406.0814058956916	53	127
405.9536961451247	406.0814058956916	85	127
406.13945578231295	406.3136054421769	41	127
406.13945578231295	406.25555555555553	72	127
406.13945578231295	406.25555555555553	84	127
406.13945578231295	406.25555555555553	65	127
406.3136054421769	406.673514739229	65	127
406.3136054421769	406.673514739229	73	127
406.3136054421769	406.673514739229	46	127
406.3136054421769	406.4413151927438	85	127
406.4877551020408	406.6154648526077	84	127
406.673514739229	406.8012244897959	82	127
406.847664399093	406.9869841269841	78	127
407.0334240362812	407.1495238095238	77	127
407.19596371882085	407.32367346938776	75	127
407.38172335600905	407.7068027210884	70	127
407.38172335600905	407.4978231292517	73	127
407.54426303854876	407.6603628117914	72	127
407.7068027210884	407.83451247165533	70	127
407.8925623582766	408.0202721088435	66	127
408.0667120181406	408.18281179138324	65	127
408.22925170068027	408.3453514739229	63	127
408.41501133786846	408.5311111111111	61	127
408.41501133786846	408.77492063492065	58	127
408.61238095238093	408.72848072562357	60	127
408.77492063492065	408.91424036281177	58	127
408.96068027210885	409.0767800453515	54	127
409.1232199546485	409.27414965986395	53	127
409.33219954648524	409.4715192743764	51	127
409.33219954648524	409.5063492063492	65	127
409.5179591836735	409.6340589569161	49	127
409.5179591836735	409.6340589569161	70	127
409.6688888888889	409.77337868480726	73	127
409.6688888888889	409.77337868480726	48	127
409.6688888888889	409.81981859410433	65	127
409.6688888888889	409.81981859410433	58	127
409.83142857142855	410.09845804988663	73	127
409.83142857142855	410.09845804988663	58	127
409.83142857142855	410.09845804988663	46	127
409.83142857142855	410.09845804988663	65	127
410.19133786848073	410.469977324263	73	127
410.19133786848073	410.469977324263	66	127
410.19133786848073	410.469977324263	58	127
410.19133786848073	410.469977324263	42	127
410.5628571428571	410.67895691609976	72	127
410.5628571428571	410.67895691609976	58	127
410.5628571428571	410.67895691609976	39	127
410.5628571428571	410.67895691609976	66	127
410.72539682539684	410.8414965986395	72	127
410.72539682539684	410.8414965986395	66	127
410.72539682539684	410.8414965986395	58	127
410.72539682539684	410.8414965986395	39	127
410.89954648526077	411.15496598639453	58	127
410.89954648526077	411.15496598639453	36	127
410.89954648526077	411.15496598639453	66	127
410.89954648526077	411.15496598639453	72	127
411.2362358276644	411.4800453514739	65	127
411.2362358276644	411.4800453514739	57	127
411.2362358276644	411.4800453514739	72	127
411.2362358276644	411.4800453514739	41	127
411.572925170068	411.7006349206349	73	127
411.572925170068	411.7006349206349	65	127
411.572925170068	411.7006349206349	46	127
411.572925170068	411.7006349206349	58	127
411.75868480725626	411.87478458049884	85	127
411.75868480725626	411.87478458049884	77	127
411.75868480725626	411.87478458049884	70	127
411.75868480725626	411.87478458049884	58	127
411.9212244897959	412.07215419501136	85	127
411.9212244897959	412.07215419501136	70	127
411.9212244897959	412.07215419501136	54	127
411.9212244897959	412.07215419501136	78	127
412.1185941043084	412.2463038548753	85	127
412.1185941043084	412.2463038548753	78	127
412.1185941043084	412.2463038548753	70	127
412.1185941043084	412.2463038548753	54	127
412.2927437641723	412.40884353741495	87	127
412.2927437641723	412.40884353741495	70	127
412.2927437641723	412.40884353741495	51	127
412.2927437641723	412.40884353741495	78	127
412.45528344671203	412.58299319727894	87	127
412.45528344671203	412.58299319727894	78	127
412.45528344671203	412.58299319727894	70	127
412.45528344671203	412.58299319727894	51	127
412.62943310657596	412.75714285714287	78	127
412.62943310657596	412.75714285714287	68	127
412.62943310657596	412.75714285714287	87	127
412.62943310657596	412.75714285714287	47	127
412.8035827664399	412.90807256235826	78	127
412.8035827664399	412.90807256235826	87	127
412.8035827664399	412.90807256235826	47	127
412.8035827664399	412.90807256235826	68	127
412.9661224489796	413.08222222222224	78	127
412.9661224489796	413.08222222222224	87	127
412.9661224489796	413.08222222222224	72	127
412.9661224489796	413.08222222222224	44	127
413.1518820861678	413.25637188208617	78	127
413.1518820861678	413.25637188208617	87	127
413.1518820861678	413.25637188208617	72	127
413.1518820861678	413.25637188208617	44	127
413.31442176870746	413.4305215419501	77	127
413.31442176870746	413.4305215419501	85	127
413.31442176870746	413.4305215419501	72	127
413.31442176870746	413.4305215419501	49	127
413.4769614512472	413.6162811791383	77	127
413.4769614512472	413.6162811791383	72	127
413.4769614512472	413.6162811791383	85	127
413.4769614512472	413.6162811791383	49	127
413.67433106575965	413.7904308390023	70	127
413.67433106575965	416.15886621315195	85	127
413.67433106575965	413.7904308390023	42	127
413.67433106575965	414.1503401360544	78	127
413.81365079365077	413.9413605442177	58	127
413.81365079365077	413.9413605442177	54	127
413.98780045351475	414.11551020408166	58	127
413.98780045351475	414.11551020408166	54	127
414.1619501133787	414.2780498866213	54	127
414.1619501133787	414.2780498866213	73	127
414.1619501133787	414.2780498866213	58	127
414.32448979591834	414.440589569161	78	127
414.32448979591834	414.440589569161	54	127
414.32448979591834	414.440589569161	58	127
414.48702947845806	414.61473922902496	54	127
414.48702947845806	414.61473922902496	82	127
414.48702947845806	414.61473922902496	58	127
414.661179138322	414.7888888888889	80	127
414.661179138322	414.7888888888889	56	127
414.661179138322	414.7888888888889	59	127
414.83532879818597	414.95142857142855	56	127
414.83532879818597	414.95142857142855	59	127
414.83532879818597	414.95142857142855	78	127
414.99786848072563	415.12557823129254	56	127
414.99786848072563	415.12557823129254	59	127
414.99786848072563	415.12557823129254	77	127
415.17201814058956	415.2881179138322	61	127
415.17201814058956	415.2881179138322	56	127
415.17201814058956	415.2881179138322	75	127
415.3345578231293	415.45065759637185	68	127
415.3345578231293	415.45065759637185	77	127
415.3345578231293	415.45065759637185	56	127
415.5087074829932	415.62480725623584	71	127
415.5087074829932	415.62480725623584	56	127
415.5087074829932	415.62480725623584	73	127
415.67124716553286	415.7873469387755	78	127
415.67124716553286	415.7873469387755	70	127
415.67124716553286	415.99632653061224	58	127
415.8337868480726	415.9498866213152	82	127
415.8337868480726	415.9498866213152	61	127
416.0079365079365	416.12403628117914	85	127
416.0079365079365	416.12403628117914	66	127
416.17047619047617	416.2981859410431	37	127
416.17047619047617	416.5071655328798	85	127
416.17047619047617	416.2981859410431	73	127
416.17047619047617	416.2981859410431	70	127
416.34462585034015	416.4607256235828	42	127
416.34462585034015	416.4607256235828	70	127
416.5187755102041	416.6348752834467	46	127
416.5187755102041	416.6348752834467	66	127
416.5187755102041	416.84385487528345	85	127
416.68131519274374	417.02961451247165	65	127
416.68131519274374	416.7974149659864	44	127
416.84385487528345	417.2037641723356	83	127
416.84385487528345	416.99478458049884	49	127
416.84385487528345	416.99478458049884	42	127
417.0412244897959	417.15732426303856	41	127
417.0412244897959	417.15732426303856	56	127
417.2037641723356	417.56367346938777	83	127
417.2037641723356	417.3198639455782	39	127
417.2037641723356	417.3198639455782	68	127
417.2037641723356	417.3198639455782	59	127
417.3663038548753	417.52884353741496	41	127
417.3663038548753	417.52884353741496	61	127
417.57528344671204	417.71460317460316	73	127
417.57528344671204	417.71460317460316	65	127
417.57528344671204	417.9235827664399	83	127
417.57528344671204	417.71460317460316	38	127
417.76104308390023	417.9235827664399	73	127
417.76104308390023	417.87714285714287	42	127
417.76104308390023	418.1093424036281	66	127
417.93519274376416	418.29510204081635	73	127
417.93519274376416	418.29510204081635	82	127
417.93519274376416	418.07451247165534	46	127
418.12095238095236	418.24866213151927	49	127
418.29510204081635	418.62018140589566	82	127
418.29510204081635	418.411201814059	54	127
418.29510204081635	418.62018140589566	73	127
418.4692517006803	418.5853514739229	58	127
418.63179138321993	418.7478911564626	61	127
418.63179138321993	418.92204081632656	82	127
418.63179138321993	418.79433106575965	73	127
418.79433106575965	418.8756009070295	66	127
418.93365079365077	419.0497505668934	70	127
418.93365079365077	419.25873015873015	82	127
419.0961904761905	419.2122902494331	73	127
419.25873015873015	419.38643990929705	78	127
419.43287981859413	419.5489795918367	82	127
419.5954195011338	419.7231292517007	85	127
419.7695691609977	419.9088888888889	41	127
419.9669387755102	420.32684807256237	82	127
419.9669387755102	420.0946485260771	46	127
419.9669387755102	420.32684807256237	73	127
420.1410884353742	420.2804081632653	49	127
420.32684807256237	420.4545578231293	53	127
420.32684807256237	420.66353741496596	73	127
420.32684807256237	420.66353741496596	82	127
420.5009977324263	420.61709750566894	58	127
420.66353741496596	420.83768707482994	73	127
420.66353741496596	420.79124716553287	61	127
420.66353741496596	421.0002267573696	82	127
420.83768707482994	420.96539682539685	65	127
421.0118367346939	421.33691609977325	82	127
421.0118367346939	421.1279365079365	70	127
421.1859863945578	421.29047619047617	73	127
421.33691609977325	421.46462585034016	77	127
421.5110657596372	421.61555555555555	82	127
421.6619954648526	421.7897052154195	85	127
421.83614512471655	421.96385487528346	40	127
422.033514739229	422.14961451247166	43	127
422.033514739229	422.14961451247166	52	127
422.033514739229	422.3934240362812	70	127
422.033514739229	422.3934240362812	82	127
422.20766439909295	422.3469841269841	46	127
422.20766439909295	422.3469841269841	64	127
422.20766439909295	422.3469841269841	55	127
422.3934240362812	422.52113378684805	58	127
422.3934240362812	422.52113378684805	76	127
422.3934240362812	422.52113378684805	67	127
422.5791836734694	422.7068934240363	79	127
422.5791836734694	422.7068934240363	70	127
422.7649433106576	422.8926530612245	82	127
422.9507029478458	423.090022675737	37	127
423.136462585034	423.5195918367347	70	127
423.136462585034	423.28739229024944	49	127
423.136462585034	423.5195918367347	82	127
423.136462585034	423.28739229024944	41	127
423.33383219954646	423.47315192743764	46	127
423.33383219954646	423.47315192743764	61	127
423.33383219954646	423.47315192743764	53	127
423.53120181405893	423.65891156462584	58	127
423.53120181405893	423.65891156462584	73	127
423.53120181405893	423.65891156462584	65	127
423.7169614512472	423.84467120181404	70	127
423.7169614512472	423.84467120181404	77	127
423.9027210884354	424.0420408163265	82	127
424.1117006802721	424.23941043083903	36	127
424.1117006802721	424.4483900226757	52	127
424.1117006802721	424.4483900226757	82	127
424.1117006802721	424.4483900226757	70	127
424.1117006802721	424.4483900226757	67	127
424.28585034013605	424.4019501133787	40	127
424.4483900226757	424.59931972789116	43	127
424.65736961451245	424.78507936507935	40	127
424.83151927437643	424.94761904761907	41	127
424.9940589569161	425.11015873015873	38	127
425.16820861678	425.2726984126984	45	127
425.342358276644	425.45845804988664	41	127
425.50489795918367	425.6326077097506	43	127
425.70226757369613	425.81836734693877	40	127
425.86480725623585	425.98090702947843	46	127
426.0273469387755	426.1666666666667	43	127
426.2131065759637	426.3524263038549	45	127
426.3988662131519	426.51496598639454	41	127
426.5614058956916	426.68911564625853	48	127
426.73555555555555	426.8516553287982	45	127
426.89809523809527	427.01419501133785	46	127
427.0722448979592	427.2115646258503	43	127
427.2580045351474	427.37410430839003	50	127
427.42054421768705	427.5366439909297	46	127
427.59469387755104	427.7224036281179	43	127
427.59469387755104	427.7224036281179	58	127
427.76884353741497	427.87333333333333	46	127
427.76884353741497	427.87333333333333	55	127
427.9429931972789	428.0707029478458	60	127
427.9429931972789	428.0707029478458	40	127
428.1171428571429	428.23324263038546	52	127
428.1171428571429	428.23324263038546	48	127
428.27968253968254	428.3841723356009	53	127
428.27968253968254	428.3841723356009	45	127
428.430612244898	428.54671201814057	57	127
428.430612244898	428.54671201814057	48	127
428.59315192743765	428.7092517006803	41	127
428.59315192743765	428.7092517006803	60	127
428.7556916099773	428.87179138321994	57	127
428.7556916099773	428.87179138321994	45	127
428.918231292517	429.05755102040814	58	127
428.918231292517	429.05755102040814	43	127
429.0807709750567	429.18526077097505	55	127
429.0807709750567	429.18526077097505	46	127
429.2317006802721	429.34780045351476	46	127
429.2317006802721	429.34780045351476	62	127
429.4290702947846	429.5683900226757	50	127
429.4290702947846	429.5683900226757	58	127
429.62643990929706	429.7425396825397	60	127
429.62643990929706	429.7425396825397	45	127
429.800589569161	429.91668934240363	57	127
429.800589569161	429.91668934240363	48	127
429.9747392290249	430.09083900226756	48	127
429.9747392290249	430.09083900226756	63	127
430.1140589569161	430.23015873015873	60	127
430.1140589569161	430.23015873015873	51	127
430.28820861678	430.40430839002266	46	127
430.28820861678	430.40430839002266	62	127
430.462358276644	430.57845804988665	50	127
430.462358276644	430.57845804988665	58	127
430.62489795918367	430.72938775510204	65	127
430.62489795918367	430.72938775510204	50	127
430.7758276643991	430.90353741496597	53	127
430.7758276643991	430.90353741496597	62	127
430.94997732426305	431.0660770975057	48	127
430.94997732426305	431.0660770975057	63	127
431.1125170068027	431.22861678004534	60	127
431.1125170068027	431.22861678004534	51	127
431.2750566893424	431.40276643990927	51	127
431.2750566893424	431.40276643990927	67	127
431.44920634920635	431.565306122449	63	127
431.44920634920635	431.565306122449	55	127
431.611746031746	431.72784580498865	60	127
431.611746031746	431.72784580498865	51	127
431.611746031746	431.72784580498865	75	127
431.78589569161	431.89038548752836	74	127
431.78589569161	431.89038548752836	55	127
431.78589569161	431.89038548752836	63	127
431.9368253968254	432.052925170068	53	127
431.9368253968254	432.052925170068	60	127
431.9368253968254	432.052925170068	57	127
431.9368253968254	432.052925170068	77	127
432.0993650793651	432.21546485260774	51	127
432.0993650793651	432.21546485260774	69	127
432.0993650793651	432.21546485260774	72	127
432.0993650793651	432.21546485260774	65	127
432.27351473922903	432.3780045351474	65	127
432.27351473922903	432.3780045351474	50	127
432.27351473922903	432.3780045351474	70	127
432.4244444444444	432.57537414965986	65	127
432.4244444444444	432.57537414965986	50	127
432.4244444444444	432.57537414965986	74	127
432.4244444444444	432.57537414965986	46	127
432.62181405895694	432.7379138321995	50	127
432.62181405895694	432.7379138321995	67	127
432.62181405895694	432.7379138321995	47	127
432.62181405895694	432.7379138321995	77	127
432.7843537414966	432.88884353741497	55	127
432.7843537414966	432.88884353741497	74	127
432.7843537414966	432.88884353741497	65	127
432.7843537414966	432.88884353741497	50	127
432.935283446712	433.05138321995463	75	127
432.935283446712	433.05138321995463	48	127
432.935283446712	433.05138321995463	51	127
432.935283446712	433.05138321995463	67	127
433.0978231292517	433.2255328798186	51	127
433.0978231292517	433.2255328798186	55	127
433.0978231292517	433.2255328798186	72	127
433.0978231292517	433.2255328798186	63	127
433.27197278911564	433.376462585034	79	127
433.27197278911564	433.376462585034	49	127
433.27197278911564	433.376462585034	52	127
433.27197278911564	433.376462585034	69	127
433.4229024943311	433.5390022675737	67	127
433.4229024943311	433.5390022675737	76	127
433.4229024943311	433.5390022675737	52	127
433.4229024943311	433.5390022675737	57	127
433.5738321995465	433.7015419501134	77	127
433.5738321995465	433.7015419501134	50	127
433.5738321995465	433.7015419501134	69	127
433.5738321995465	433.7015419501134	53	127
433.74798185941046	433.86408163265304	57	127
433.74798185941046	433.86408163265304	65	127
433.74798185941046	433.86408163265304	53	127
433.74798185941046	433.86408163265304	74	127
433.9105215419501	434.0150113378685	50	127
433.9105215419501	434.0150113378685	80	127
433.9105215419501	434.0150113378685	70	127
433.9105215419501	434.0150113378685	53	127
434.0614512471655	434.1891609977324	53	127
434.0614512471655	434.1891609977324	77	127
434.0614512471655	434.1891609977324	69	127
434.0614512471655	434.1891609977324	58	127
434.2356009070295	434.35170068027213	70	127
434.2356009070295	434.35170068027213	51	127
434.2356009070295	434.35170068027213	79	127
434.2356009070295	434.35170068027213	55	127
434.39814058956915	434.5142403628118	67	127
434.39814058956915	434.5142403628118	55	127
434.39814058956915	434.5142403628118	75	127
434.39814058956915	434.5142403628118	58	127
434.56068027210887	434.65356009070297	55	127
434.56068027210887	434.65356009070297	52	127
434.56068027210887	434.65356009070297	82	127
434.56068027210887	434.65356009070297	72	127
434.67678004535145	434.7928798185941	70	127
434.67678004535145	434.7928798185941	60	127
434.67678004535145	434.7928798185941	79	127
434.67678004535145	434.7928798185941	55	127
434.83931972789117	434.9554195011338	72	127
434.83931972789117	434.9554195011338	53	127
434.83931972789117	434.9554195011338	57	127
434.83931972789117	434.9554195011338	81	127
435.0134693877551	435.12956916099773	77	127
435.0134693877551	435.12956916099773	69	127
435.0134693877551	435.12956916099773	57	127
435.0134693877551	435.12956916099773	60	127
435.1760090702948	435.2921088435374	57	127
435.1760090702948	435.2921088435374	54	127
435.1760090702948	435.2921088435374	84	127
435.1760090702948	435.2921088435374	74	127
435.33854875283447	435.4662585034014	57	127
435.33854875283447	435.4662585034014	62	127
435.33854875283447	435.4662585034014	81	127
435.33854875283447	435.4662585034014	72	127
435.5126984126984	435.62879818594104	74	127
435.5126984126984	435.62879818594104	55	127
435.5126984126984	435.62879818594104	82	127
435.5126984126984	435.62879818594104	58	127
435.6752380952381	435.79133786848075	79	127
435.6752380952381	435.79133786848075	62	127
435.6752380952381	435.79133786848075	70	127
435.6752380952381	435.79133786848075	58	127
435.8377777777778	435.97709750566895	58	127
435.8377777777778	435.97709750566895	75	127
435.8377777777778	435.97709750566895	87	127
435.8377777777778	435.97709750566895	55	127
436.023537414966	436.1396371882086	58	127
436.023537414966	436.1396371882086	63	127
436.023537414966	436.1396371882086	87	127
436.023537414966	436.1396371882086	70	127
436.1860770975057	436.29056689342406	72	127
436.1860770975057	436.29056689342406	57	127
436.1860770975057	436.29056689342406	63	127
436.1860770975057	436.29056689342406	87	127
436.3370068027211	436.464716553288	87	127
436.3370068027211	436.464716553288	75	127
436.3370068027211	436.464716553288	60	127
436.3370068027211	436.464716553288	72	127
436.511156462585	436.60403628117916	63	127
436.511156462585	436.60403628117916	72	127
436.511156462585	436.60403628117916	87	127
436.511156462585	436.60403628117916	75	127
436.6388662131519	436.7433560090703	62	127
436.6388662131519	436.7433560090703	72	127
436.6388662131519	436.7433560090703	87	127
436.6388662131519	436.7433560090703	75	127
436.80140589569163	436.91750566893427	75	127
436.80140589569163	436.91750566893427	72	127
436.80140589569163	436.91750566893427	60	127
436.80140589569163	436.91750566893427	87	127
436.9639455782313	437.0800453514739	75	127
436.9639455782313	437.0800453514739	72	127
436.9639455782313	437.0800453514739	58	127
436.9639455782313	437.0800453514739	87	127
437.12648526077095	437.2425850340136	72	127
437.12648526077095	437.2425850340136	57	127
437.12648526077095	437.2425850340136	87	127
437.12648526077095	437.2425850340136	75	127
437.30063492063493	437.4167346938776	87	127
437.30063492063493	437.4167346938776	55	127
437.30063492063493	437.4167346938776	75	127
437.30063492063493	437.4167346938776	72	127
437.4631746031746	437.57927437641723	72	127
437.4631746031746	437.57927437641723	87	127
437.4631746031746	437.57927437641723	53	127
437.4631746031746	437.57927437641723	75	127
437.6257142857143	437.75342403628116	75	127
437.6257142857143	437.75342403628116	51	127
437.6257142857143	437.75342403628116	72	127
437.6257142857143	437.75342403628116	87	127
437.8114739229025	437.92757369614515	75	127
437.8114739229025	437.92757369614515	72	127
437.8114739229025	437.92757369614515	50	127
437.8114739229025	437.92757369614515	87	127
437.97401360544217	438.0901133786848	87	127
437.97401360544217	438.0901133786848	75	127
437.97401360544217	438.0901133786848	72	127
437.97401360544217	438.0901133786848	48	127
438.1365532879819	438.26426303854873	88	127
438.1365532879819	438.26426303854873	67	127
438.1365532879819	438.26426303854873	70	127
438.1365532879819	438.26426303854873	76	127
438.1365532879819	438.26426303854873	46	127
438.1365532879819	438.26426303854873	72	127
438.3107029478458	438.42680272108845	76	127
438.3107029478458	438.42680272108845	67	127
438.3107029478458	438.42680272108845	72	127
438.3107029478458	438.42680272108845	88	127
438.3107029478458	438.42680272108845	70	127
438.3107029478458	438.42680272108845	45	127
438.47324263038547	438.6009523809524	88	127
438.47324263038547	438.6009523809524	76	127
438.47324263038547	438.6009523809524	70	127
438.47324263038547	438.6009523809524	72	127
438.47324263038547	438.6009523809524	43	127
438.47324263038547	438.6009523809524	67	127
438.64739229024946	438.7518820861678	88	127
438.64739229024946	438.7518820861678	72	127
438.64739229024946	438.7518820861678	76	127
438.64739229024946	438.7518820861678	50	127
438.64739229024946	438.7518820861678	67	127
438.64739229024946	438.7518820861678	70	127
438.79832199546485	438.9144217687075	72	127
438.79832199546485	438.9144217687075	67	127
438.79832199546485	438.9144217687075	76	127
438.79832199546485	438.9144217687075	48	127
438.79832199546485	438.9144217687075	88	127
438.79832199546485	438.9144217687075	70	127
438.96086167800456	439.07696145124714	76	127
438.96086167800456	439.07696145124714	46	127
438.96086167800456	439.07696145124714	72	127
438.96086167800456	439.07696145124714	67	127
438.96086167800456	439.07696145124714	70	127
438.96086167800456	439.07696145124714	88	127
439.1350113378685	439.25111111111113	65	127
439.1350113378685	439.25111111111113	89	127
439.1350113378685	439.25111111111113	45	127
439.1350113378685	439.25111111111113	74	127
439.1350113378685	439.25111111111113	69	127
439.1350113378685	439.25111111111113	77	127
439.29755102040815	439.4136507936508	58	127
439.29755102040815	439.4136507936508	43	127
439.29755102040815	439.4136507936508	89	127
439.29755102040815	439.4136507936508	65	127
439.46009070294787	439.5878004535147	41	127
439.46009070294787	439.5878004535147	57	127
439.46009070294787	439.5878004535147	65	127
439.46009070294787	439.5878004535147	89	127
439.6342403628118	439.75034013605443	55	127
439.6342403628118	439.75034013605443	65	127
439.6342403628118	439.75034013605443	39	127
439.6342403628118	439.75034013605443	89	127
439.8083900226757	439.9128798185941	67	127
439.8083900226757	439.9128798185941	38	127
439.8083900226757	439.9128798185941	53	127
439.8083900226757	439.9128798185941	89	127
439.97092970521544	440.0986394557823	89	127
439.97092970521544	440.0986394557823	36	127
439.97092970521544	440.0986394557823	51	127
439.97092970521544	440.0986394557823	69	127
440.15668934240364	441.15514739229025	62	127
440.15668934240364	440.2727891156463	46	127
440.15668934240364	441.15514739229025	70	127
440.15668934240364	441.15514739229025	50	127
440.33083900226757	440.4469387755102	46	127
440.4933786848073	440.7371882086168	46	127
440.8184580498866	441.0738775510204	46	127
441.1667573696145	441.3176870748299	46	127
441.1667573696145	442.24648526077095	65	127
441.1667573696145	442.24648526077095	74	127
441.1667573696145	442.24648526077095	53	127
441.3873469387755	441.51505668934243	46	127
441.56149659863945	441.81691609977327	46	127
441.8981859410431	442.1419954648526	46	127
442.24648526077095	442.60639455782314	63	127
442.24648526077095	442.37419501133786	46	127
442.24648526077095	442.60639455782314	72	127
442.24648526077095	442.60639455782314	54	127
442.4554648526077	442.5715646258503	46	127
442.6180045351474	442.7224943310658	46	127
442.6180045351474	442.91986394557824	66	127
442.6180045351474	442.91986394557824	75	127
442.6180045351474	442.91986394557824	57	127
442.7689342403628	442.87342403628116	46	127
442.9314739229025	443.32621315192745	60	127
442.9314739229025	443.32621315192745	63	127
442.9314739229025	443.04757369614515	46	127
442.9314739229025	443.32621315192745	65	127
442.9314739229025	443.32621315192745	69	127
443.09401360544217	443.2449433106576	46	127
443.32621315192745	443.9067120181406	65	127
443.32621315192745	443.9067120181406	58	127
443.32621315192745	443.9067120181406	62	127
443.32621315192745	443.9067120181406	70	127
443.32621315192745	443.9067120181406	46	127
443.9067120181406	444.0344217687075	77	127
444.0808616780045	444.17374149659867	82	127
444.2201814058957	444.3362811791383	86	127
444.38272108843535	444.51043083900225	84	127
444.55687074829933	444.67297052154197	82	127
444.719410430839	444.83551020408163	81	127
444.8935600907029	445.00965986394556	67	127
445.05609977324264	445.1721995464853	69	127
445.2186394557823	445.33473922902493	65	127
445.4043990929705	445.52049886621313	70	127
445.5785487528345	445.6946485260771	74	127
445.74108843537414	445.8571882086168	77	127
445.9152380952381	446.0313378684807	53	127
446.0777777777778	446.1938775510204	58	127
446.2519274376417	446.3796371882086	62	127
446.4376870748299	446.55378684807255	60	127
446.6002267573696	446.72793650793653	57	127
446.77437641723355	446.90208616780046	58	127
446.93691609977327	447.0646258503401	43	127
447.12267573696147	447.2619954648526	48	127
447.32004535147394	447.4709750566893	40	127
447.5290249433107	448.0514739229025	41	127
448.06308390022673	448.44621315192745	77	127
448.06308390022673	448.44621315192745	53	127
448.44621315192745	448.81773242630385	70	127
448.44621315192745	448.81773242630385	55	127
448.44621315192745	448.81773242630385	75	127
448.8293424036281	450.06	60	127
448.8293424036281	448.94544217687076	56	127
448.8293424036281	448.91061224489795	75	127
448.8293424036281	450.06	68	127
448.91061224489795	449.0499319727891	77	127
449.0499319727891	449.13120181405895	75	127
449.0499319727891	449.16603174603176	56	127
449.13120181405895	449.27052154195013	77	127
449.27052154195013	449.6420408163265	56	127
449.27052154195013	449.36340136054423	75	127
449.36340136054423	449.5607709750567	77	127
449.5607709750567	449.6536507936508	75	127
449.6536507936508	449.7349206349206	77	127
449.7349206349206	449.9787301587302	56	127
449.7349206349206	449.81619047619046	75	127
449.81619047619046	449.89746031746034	77	127
449.89746031746034	449.9787301587302	75	127
449.9787301587302	450.06	77	127
450.06	450.1877097505669	56	127
450.06	451.04684807256234	72	127
450.06	450.1528798185941	75	127
450.06	451.04684807256234	63	127
450.1528798185941	450.23414965986393	77	127
450.23414965986393	450.35024943310657	56	127
450.23414965986393	450.31541950113376	75	127
450.31541950113376	450.39668934240365	77	127
450.39668934240365	450.4779591836735	75	127
450.39668934240365	450.64049886621314	56	127
450.4779591836735	450.5708390022676	77	127
450.5708390022676	450.6521088435374	75	127
450.6521088435374	450.73337868480724	77	127
450.73337868480724	450.8146485260771	75	127
450.73337868480724	450.9655782312925	56	127
450.8146485260771	450.8843083900227	77	127
450.8843083900227	450.9655782312925	75	127
450.9655782312925	451.0584580498866	77	127
451.0584580498866	451.1977777777778	56	127
451.0584580498866	451.4067573696145	70	127
451.0584580498866	451.4067573696145	61	127
451.0584580498866	451.162947845805	75	127
451.162947845805	451.2442176870748	77	127
451.2442176870748	451.3254875283447	75	127
451.2442176870748	451.36031746031745	56	127
451.3254875283447	451.4067573696145	77	127
451.4067573696145	451.7318367346939	73	127
451.4067573696145	451.53446712018143	56	127
451.4067573696145	451.7318367346939	63	127
451.4067573696145	451.4996371882086	75	127
451.4996371882086	451.58090702947845	77	127
451.58090702947845	451.6970068027211	56	127
451.58090702947845	451.6621768707483	75	127
451.6621768707483	451.7434467120181	77	127
451.7434467120181	451.85954648526075	56	127
451.7434467120181	452.0685260770975	67	127
451.7434467120181	452.0685260770975	58	127
451.7434467120181	451.824716553288	75	127
451.824716553288	451.90598639455783	77	127
451.90598639455783	451.9988662131519	75	127
451.90598639455783	452.03369614512474	56	127
451.9988662131519	452.08013605442176	77	127
452.08013605442176	452.40521541950113	60	127
452.08013605442176	452.1614058956916	75	127
452.08013605442176	452.40521541950113	56	127
452.08013605442176	452.5677551020408	68	127
452.1614058956916	452.2426757369615	77	127
452.2426757369615	452.3239455782313	75	127
452.3239455782313	452.40521541950113	74	127
452.40521541950113	452.7419047619048	75	127
452.57936507936506	452.6954648526077	39	127
452.7419047619048	452.89283446712017	44	127
452.98571428571427	453.1018140589569	48	127
453.148253968254	453.25274376417235	46	127
453.2991836734694	453.415283446712	45	127
453.47333333333336	453.6126530612245	43	127
453.65909297052156	453.7751927437642	53	127
453.8216326530612	453.93773242630385	55	127
453.99578231292514	454.1118820861678	51	127
454.15832199546486	454.2744217687075	56	127
454.3208616780045	454.4485714285714	60	127
454.4950113378685	454.62272108843536	63	127
454.66916099773243	454.79687074829934	75	127
454.85492063492063	454.98263038548754	80	127
455.02907029478456	455.1451700680272	84	127
455.1916099773243	455.3077097505669	82	127
455.3657596371882	455.48185941043084	79	127
455.52829931972786	455.6443990929705	80	127
455.6908390022676	455.8069387755102	89	127
455.6908390022676	455.8069387755102	68	127
455.6908390022676	455.8069387755102	72	127
455.8649886621315	455.98108843537415	91	127
455.8649886621315	455.98108843537415	70	127
455.8649886621315	455.98108843537415	67	127
456.0275283446712	456.1552380952381	68	127
456.0275283446712	456.1552380952381	58	127
456.0275283446712	456.1552380952381	86	127
456.2132879818594	456.57319727891155	67	127
456.2132879818594	456.57319727891155	63	127
456.2132879818594	456.93310657596373	87	127
456.57319727891155	456.93310657596373	75	127
456.93310657596373	457.30462585034013	73	127
456.93310657596373	457.30462585034013	85	127
457.3162358276644	458.37274376417236	83	127
457.3162358276644	457.49038548752833	63	127
457.3162358276644	457.49038548752833	66	127
457.3162358276644	458.37274376417236	71	127
457.3162358276644	457.49038548752833	59	127
457.5368253968254	457.65292517006804	63	127
457.5368253968254	457.65292517006804	66	127
457.5368253968254	457.65292517006804	59	127
457.69936507936507	457.9431746031746	63	127
457.69936507936507	457.9431746031746	59	127
457.69936507936507	457.9431746031746	66	127
458.0360544217687	458.29147392290247	63	127
458.0360544217687	458.29147392290247	66	127
458.0360544217687	458.29147392290247	59	127
458.3843537414966	459.46408163265306	75	127
458.3843537414966	458.5004535147392	66	127
458.3843537414966	458.5004535147392	63	127
458.3843537414966	459.46408163265306	87	127
458.3843537414966	458.5004535147392	59	127
458.5933333333333	458.70943310657594	66	127
458.5933333333333	458.70943310657594	63	127
458.5933333333333	458.70943310657594	59	127
458.77909297052156	459.0461224489796	66	127
458.77909297052156	459.0461224489796	63	127
458.77909297052156	459.0461224489796	59	127
459.1390022675737	459.38281179138323	66	127
459.1390022675737	459.38281179138323	59	127
459.1390022675737	459.38281179138323	63	127
459.47569160997733	459.5337414965986	85	127
459.47569160997733	459.6150113378685	59	127
459.47569160997733	459.6150113378685	64	127
459.47569160997733	459.6150113378685	66	127
459.47569160997733	459.5337414965986	73	127
459.5337414965986	459.6150113378685	87	127
459.5337414965986	459.6150113378685	75	127
459.6150113378685	459.6730612244898	85	127
459.6150113378685	459.6730612244898	73	127
459.6730612244898	459.812380952381	64	127
459.6730612244898	459.7659410430839	84	127
459.6730612244898	459.812380952381	59	127
459.6730612244898	459.812380952381	66	127
459.6730612244898	459.7659410430839	72	127
459.7659410430839	459.858820861678	85	127
459.7659410430839	459.858820861678	73	127
459.87043083900227	460.2187301587302	88	127
459.87043083900227	459.9865306122449	64	127
459.87043083900227	460.2187301587302	76	127
459.87043083900227	459.9865306122449	66	127
459.87043083900227	459.9865306122449	59	127
460.0329705215419	460.1722902494331	64	127
460.0329705215419	460.1722902494331	59	127
460.0329705215419	460.1722902494331	66	127
460.2187301587302	460.60185941043085	82	127
460.2187301587302	460.3580498866213	59	127
460.2187301587302	460.60185941043085	70	127
460.2187301587302	460.3580498866213	64	127
460.2187301587302	460.3580498866213	66	127
460.4044897959184	460.55541950113377	59	127
460.4044897959184	460.55541950113377	64	127
460.4044897959184	460.55541950113377	66	127
460.60185941043085	460.9269387755102	63	127
460.60185941043085	461.3681179138322	83	127
460.60185941043085	461.3681179138322	71	127
460.60185941043085	460.9269387755102	59	127
460.60185941043085	460.9269387755102	66	127
460.9385487528345	461.3681179138322	47	127
460.9385487528345	461.3681179138322	51	127
461.37972789115645	461.8092970521542	51	127
461.37972789115645	461.8092970521542	70	127
461.37972789115645	461.8092970521542	82	127
461.37972789115645	461.8092970521542	47	127
461.8092970521542	463.9107029478458	51	127
461.8092970521542	463.9107029478458	69	127
461.8092970521542	463.9107029478458	48	127
461.8092970521542	463.9107029478458	65	127
461.8092970521542	463.9107029478458	81	127
464.00358276643993	464.5144217687075	82	127
464.00358276643993	465.2922902494331	65	127
464.00358276643993	464.5144217687075	70	127
464.00358276643993	464.5144217687075	46	127
464.00358276643993	464.5144217687075	50	127
464.5144217687075	464.87433106575963	81	127
464.5144217687075	464.87433106575963	69	127
464.5144217687075	464.87433106575963	51	127
464.5144217687075	464.87433106575963	48	127
464.8859410430839	465.2922902494331	82	127
464.8859410430839	465.2922902494331	70	127
464.8859410430839	465.2922902494331	46	127
464.8859410430839	465.2922902494331	50	127
465.3039002267574	465.62897959183675	39	127
465.3039002267574	465.54770975056687	87	127
465.3039002267574	465.62897959183675	55	127
465.3039002267574	465.54770975056687	75	127
465.54770975056687	465.62897959183675	84	127
465.54770975056687	465.62897959183675	72	127
465.62897959183675	465.9772789115646	70	127
465.62897959183675	465.9772789115646	41	127
465.62897959183675	465.9772789115646	82	127
465.62897959183675	465.9772789115646	50	127
465.9772789115646	466.3952380952381	48	127
465.9772789115646	466.3952380952381	39	127
465.9772789115646	466.3952380952381	69	127
465.9772789115646	466.3952380952381	81	127
466.40684807256235	466.75514739229027	53	127
466.40684807256235	466.75514739229027	77	127
466.40684807256235	466.75514739229027	89	127
466.40684807256235	466.75514739229027	38	127
466.76675736961454	467.1034467120181	60	127
466.76675736961454	467.1034467120181	45	127
466.76675736961454	467.4749659863946	53	127
466.76675736961454	467.1034467120181	75	127
466.76675736961454	467.1034467120181	87	127
467.1034467120181	467.4749659863946	58	127
467.1034467120181	467.4749659863946	46	127
467.1034467120181	467.4749659863946	74	127
467.1034467120181	467.4749659863946	86	127
467.48657596371885	467.8000453514739	63	127
467.48657596371885	467.8000453514739	91	127
467.48657596371885	467.8697052154195	51	127
467.48657596371885	467.8000453514739	79	127
467.8000453514739	467.8813151927438	60	127
467.8000453514739	467.8813151927438	87	127
467.8000453514739	467.8813151927438	75	127
467.8813151927438	468.2760544217687	74	127
467.8813151927438	468.2760544217687	86	127
467.8813151927438	468.2760544217687	58	127
467.8813151927438	468.2760544217687	53	127
468.2760544217687	468.6475736961451	41	127
468.2760544217687	468.6475736961451	57	127
468.2760544217687	468.6475736961451	72	127
468.2760544217687	468.6475736961451	84	127
468.6591836734694	468.79850340136056	69	127
468.6591836734694	468.79850340136056	41	127
468.6591836734694	468.79850340136056	84	127
468.6591836734694	468.79850340136056	72	127
468.6591836734694	468.79850340136056	63	127
468.85655328798185	468.99587301587303	72	127
468.85655328798185	468.99587301587303	63	127
468.85655328798185	468.99587301587303	41	127
468.85655328798185	468.99587301587303	69	127
468.85655328798185	468.99587301587303	84	127
469.04231292517005	469.3790022675737	69	127
469.04231292517005	469.3790022675737	72	127
469.04231292517005	469.3790022675737	63	127
469.04231292517005	469.3790022675737	41	127
469.04231292517005	469.3790022675737	84	127
471.49201814058955	471.6313378684807	51	127
471.49201814058955	471.6313378684807	69	127
471.49201814058955	471.6313378684807	60	127
471.49201814058955	471.6313378684807	66	127
471.7009977324263	471.85192743764173	69	127
471.7009977324263	471.85192743764173	60	127
471.7009977324263	471.85192743764173	51	127
471.7009977324263	471.85192743764173	66	127
471.909977324263	472.2931065759637	66	127
471.909977324263	472.2931065759637	51	127
471.909977324263	472.2931065759637	69	127
471.909977324263	472.2931065759637	59	127
474.02299319727894	474.9053514739229	59	127
474.02299319727894	474.9053514739229	59	127
474.02299319727894	474.9053514739229	52	127
474.02299319727894	474.9053514739229	67	127
474.9053514739229	475.3697505668934	57	127
474.9053514739229	475.3697505668934	66	127
474.9053514739229	475.3697505668934	63	127
474.9053514739229	475.3697505668934	47	127
475.38136054421767	475.7528798185941	64	127
475.38136054421767	475.7528798185941	48	127
475.38136054421767	475.7528798185941	55	127
475.7644897959184	476.11278911564625	60	127
475.7644897959184	476.01990929705215	69	127
475.7644897959184	476.11278911564625	60	127
475.7644897959184	476.11278911564625	45	127
476.01990929705215	476.11278911564625	66	127
476.11278911564625	476.4959183673469	64	127
476.11278911564625	476.4959183673469	47	127
476.11278911564625	476.4959183673469	59	127
476.11278911564625	476.4959183673469	55	127
476.4959183673469	476.8906575963719	59	127
476.4959183673469	476.8906575963719	63	127
476.4959183673469	476.8906575963719	54	127
476.4959183673469	476.8906575963719	45	127
476.9022675736961	477.23895691609977	52	127
476.9022675736961	477.23895691609977	43	127
476.9022675736961	477.23895691609977	71	127
476.9022675736961	477.23895691609977	59	127
477.25056689342404	477.6685260770975	42	127
477.25056689342404	477.6685260770975	51	127
477.25056689342404	477.6685260770975	59	127
477.25056689342404	477.6685260770975	69	127
477.6685260770975	478.0168253968254	67	127
477.6685260770975	478.0168253968254	59	127
477.6685260770975	478.0168253968254	40	127
477.6685260770975	478.353514739229	52	127
478.02843537414964	478.353514739229	60	127
478.02843537414964	478.4580045351474	45	127
478.02843537414964	478.353514739229	72	127
478.353514739229	478.46961451247165	66	127
478.353514739229	478.46961451247165	69	127
478.353514739229	478.46961451247165	60	127
478.46961451247165	478.84113378684805	67	127
478.46961451247165	478.84113378684805	64	127
478.46961451247165	478.84113378684805	47	127
478.46961451247165	478.84113378684805	59	127
478.8527437641723	479.22426303854877	47	127
478.8527437641723	479.22426303854877	66	127
478.8527437641723	479.22426303854877	57	127
478.8527437641723	479.22426303854877	63	127
479.22426303854877	479.3519727891156	66	127
479.22426303854877	479.3519727891156	63	127
479.22426303854877	479.3519727891156	57	127
479.22426303854877	479.3519727891156	48	127
479.3984126984127	479.5377324263039	48	127
479.3984126984127	479.5377324263039	63	127
479.3984126984127	479.5377324263039	66	127
479.3984126984127	479.5377324263039	57	127
479.5841723356009	479.70027210884354	63	127
479.5841723356009	479.70027210884354	48	127
479.5841723356009	479.70027210884354	57	127
479.5841723356009	479.70027210884354	66	127
479.7467120181406	479.88603174603173	63	127
479.7467120181406	479.88603174603173	57	127
479.7467120181406	479.88603174603173	66	127
479.7467120181406	479.88603174603173	48	127
479.9440816326531	480.04857142857145	63	127
479.9440816326531	480.04857142857145	66	127
479.9440816326531	480.04857142857145	57	127
479.9440816326531	480.04857142857145	48	127
480.09501133786847	480.2111111111111	48	127
480.09501133786847	480.2111111111111	57	127
480.09501133786847	480.2111111111111	66	127
480.09501133786847	480.2111111111111	63	127
480.2691609977324	480.4084807256236	57	127
480.2691609977324	480.4084807256236	63	127
480.2691609977324	480.4084807256236	66	127
480.2691609977324	480.4084807256236	47	127
480.4665306122449	480.60585034013604	47	127
480.4665306122449	480.60585034013604	63	127
480.4665306122449	480.60585034013604	66	127
480.4665306122449	480.60585034013604	57	127
480.6522902494331	480.76839002267576	47	127
480.6522902494331	480.76839002267576	57	127
480.6522902494331	480.76839002267576	66	127
480.6522902494331	480.76839002267576	63	127
480.8380498866213	480.9657596371882	66	127
480.8380498866213	480.9657596371882	63	127
480.8380498866213	480.9657596371882	47	127
480.8380498866213	480.9657596371882	57	127
481.01219954648525	481.1282993197279	57	127
481.01219954648525	481.1282993197279	66	127
481.01219954648525	481.1282993197279	47	127
481.01219954648525	481.1282993197279	63	127
481.17473922902496	481.27922902494333	47	127
481.17473922902496	481.27922902494333	63	127
481.17473922902496	481.27922902494333	57	127
481.17473922902496	481.27922902494333	66	127
481.3372789115646	481.46498866213153	58	127
481.3372789115646	481.46498866213153	66	127
481.3372789115646	481.46498866213153	46	127
481.3372789115646	481.46498866213153	63	127
481.51142857142855	481.63913832199546	66	127
481.51142857142855	481.63913832199546	46	127
481.51142857142855	481.63913832199546	63	127
481.51142857142855	481.63913832199546	58	127
481.68557823129254	481.8016780045351	45	127
481.68557823129254	481.8016780045351	60	127
481.68557823129254	481.8016780045351	63	127
481.68557823129254	481.8016780045351	66	127
481.87133786848074	481.9874376417234	66	127
481.87133786848074	481.9874376417234	63	127
481.87133786848074	481.9874376417234	45	127
481.87133786848074	481.9874376417234	60	127
482.0338775510204	482.13836734693876	66	127
482.0338775510204	482.13836734693876	60	127
482.0338775510204	482.13836734693876	63	127
482.0338775510204	482.13836734693876	45	127
482.1615873015873	482.27768707482994	63	127
482.1615873015873	482.27768707482994	66	127
482.1615873015873	482.27768707482994	60	127
482.1615873015873	482.27768707482994	45	127
482.32412698412696	482.4402267573696	67	127
482.32412698412696	482.4402267573696	63	127
482.32412698412696	482.4402267573696	60	127
482.32412698412696	482.4402267573696	43	127
482.49827664399095	482.63759637188207	60	127
482.49827664399095	482.63759637188207	67	127
482.49827664399095	482.63759637188207	63	127
482.49827664399095	482.63759637188207	43	127
482.6956462585034	482.8465759637188	63	127
482.6956462585034	482.8465759637188	60	127
482.6956462585034	482.8465759637188	68	127
482.6956462585034	482.8465759637188	42	127
482.8930158730159	483.0091156462585	42	127
482.8930158730159	483.0091156462585	63	127
482.8930158730159	483.0091156462585	60	127
482.8930158730159	483.0091156462585	68	127
483.0671655328798	483.18326530612245	41	127
483.0671655328798	483.18326530612245	69	127
483.0671655328798	483.18326530612245	63	127
483.0671655328798	483.18326530612245	60	127
483.24131519274374	483.36902494331065	69	127
483.24131519274374	483.36902494331065	41	127
483.24131519274374	483.36902494331065	60	127
483.24131519274374	483.36902494331065	63	127
483.4154648526077	483.4851247165533	75	127
483.4154648526077	483.4851247165533	60	127
483.4154648526077	483.4851247165533	69	127
483.4154648526077	483.4851247165533	53	127
483.53156462585036	483.64766439909295	75	127
483.53156462585036	483.64766439909295	69	127
483.53156462585036	483.64766439909295	53	127
483.53156462585036	483.64766439909295	60	127
483.7057142857143	483.82181405895693	60	127
483.7057142857143	483.82181405895693	69	127
483.7057142857143	483.82181405895693	53	127
483.7057142857143	483.82181405895693	75	127
483.84503401360547	483.96113378684805	60	127
483.84503401360547	483.96113378684805	69	127
483.84503401360547	483.96113378684805	53	127
483.84503401360547	483.96113378684805	75	127
484.00757369614513	484.12367346938777	60	127
484.00757369614513	484.12367346938777	69	127
484.00757369614513	484.12367346938777	75	127
484.00757369614513	484.12367346938777	53	127
484.18172335600906	484.2978231292517	60	127
484.18172335600906	484.2978231292517	53	127
484.18172335600906	484.2978231292517	69	127
484.18172335600906	484.2978231292517	75	127
484.3442630385488	484.4835827664399	81	127
484.3442630385488	484.4835827664399	75	127
484.3442630385488	484.4835827664399	63	127
484.3442630385488	484.4835827664399	65	127
484.3442630385488	484.4835827664399	72	127
484.3442630385488	484.4835827664399	41	127
484.3442630385488	484.4835827664399	60	127
484.530022675737	484.6577324263039	60	127
484.530022675737	484.6577324263039	65	127
484.530022675737	484.6577324263039	63	127
484.530022675737	484.6577324263039	81	127
484.530022675737	484.6577324263039	72	127
484.530022675737	484.6577324263039	75	127
484.530022675737	484.6577324263039	41	127
484.7041723356009	484.8318820861678	72	127
484.7041723356009	484.8318820861678	75	127
484.7041723356009	484.8318820861678	60	127
484.7041723356009	484.8318820861678	81	127
484.7041723356009	484.8318820861678	65	127
484.7041723356009	484.8318820861678	63	127
484.7041723356009	484.8318820861678	41	127
484.87832199546483	485.00603174603174	81	127
484.87832199546483	485.00603174603174	63	127
484.87832199546483	485.00603174603174	75	127
484.87832199546483	485.00603174603174	41	127
484.87832199546483	485.00603174603174	72	127
484.87832199546483	485.00603174603174	60	127
484.87832199546483	485.00603174603174	65	127
485.0524716553288	485.18018140589567	72	127
485.0524716553288	485.18018140589567	60	127
485.0524716553288	485.18018140589567	63	127
485.0524716553288	485.18018140589567	75	127
485.0524716553288	485.18018140589567	65	127
485.0524716553288	485.18018140589567	41	127
485.0524716553288	485.18018140589567	81	127
485.22662131519274	485.3427210884354	75	127
485.22662131519274	485.3427210884354	60	127
485.22662131519274	485.3427210884354	72	127
485.22662131519274	485.3427210884354	81	127
485.22662131519274	485.3427210884354	65	127
485.22662131519274	485.3427210884354	63	127
485.22662131519274	485.3427210884354	41	127
485.3775510204082	485.50526077097504	62	127
485.3775510204082	485.50526077097504	58	127
485.3775510204082	485.69102040816324	74	127
485.3775510204082	485.50526077097504	74	127
485.3775510204082	485.50526077097504	46	127
485.3775510204082	485.50526077097504	82	127
485.3775510204082	485.69102040816324	65	127
485.5517006802721	485.6445804988662	46	127
485.5517006802721	485.6445804988662	50	127
485.5517006802721	485.6445804988662	82	127
485.69102040816324	485.7955102040816	50	127
485.69102040816324	485.7955102040816	82	127
485.69102040816324	485.7955102040816	46	127
485.85356009070296	485.9696598639456	77	127
485.85356009070296	485.9696598639456	50	127
485.85356009070296	485.9696598639456	46	127
486.0160997732426	486.120589569161	50	127
486.0160997732426	486.120589569161	46	127
486.0160997732426	486.120589569161	82	127
486.16702947845806	486.2831292517007	50	127
486.16702947845806	486.2831292517007	46	127
486.16702947845806	486.2831292517007	86	127
486.341179138322	486.45727891156463	84	127
486.341179138322	486.45727891156463	51	127
486.341179138322	486.45727891156463	72	127
486.341179138322	486.45727891156463	53	127
486.50371882086165	486.6198185941043	72	127
486.50371882086165	486.6198185941043	82	127
486.50371882086165	486.6198185941043	53	127
486.50371882086165	486.6198185941043	51	127
486.66625850340137	486.782358276644	72	127
486.66625850340137	486.782358276644	51	127
486.66625850340137	486.782358276644	53	127
486.66625850340137	486.782358276644	81	127
486.8404081632653	486.9797278911565	79	127
486.8404081632653	486.9797278911565	51	127
486.8404081632653	486.9797278911565	53	127
487.0261678004535	487.13065759637186	51	127
487.0261678004535	487.13065759637186	81	127
487.0261678004535	487.13065759637186	53	127
487.17709750566894	487.2931972789116	51	127
487.17709750566894	487.2931972789116	53	127
487.17709750566894	487.2931972789116	77	127
487.3396371882086	487.45573696145124	70	127
487.3396371882086	487.45573696145124	50	127
487.3396371882086	487.45573696145124	82	127
487.3396371882086	487.45573696145124	53	127
487.5021768707483	487.64149659863943	86	127
487.5021768707483	487.64149659863943	70	127
487.5021768707483	487.64149659863943	50	127
487.5021768707483	487.64149659863943	53	127
487.6995464852608	487.8272562358277	53	127
487.6995464852608	487.8272562358277	89	127
487.6995464852608	487.8272562358277	50	127
487.6995464852608	487.8272562358277	70	127
487.8736961451247	487.98979591836735	65	127
487.8736961451247	487.98979591836735	50	127
487.8736961451247	487.98979591836735	53	127
487.8736961451247	487.98979591836735	89	127
488.0362358276644	488.1639455782313	89	127
488.0362358276644	488.1639455782313	50	127
488.0362358276644	488.1639455782313	70	127
488.0362358276644	488.1639455782313	53	127
488.21038548752836	488.3497052154195	53	127
488.21038548752836	488.3497052154195	74	127
488.21038548752836	488.3497052154195	89	127
488.21038548752836	488.3497052154195	50	127
488.4077551020408	488.52385487528346	89	127
488.4077551020408	488.52385487528346	75	127
488.4077551020408	488.52385487528346	51	127
488.4077551020408	488.52385487528346	48	127
488.5586848072562	488.67478458049885	89	127
488.5586848072562	488.67478458049885	48	127
488.5586848072562	488.67478458049885	51	127
488.5586848072562	488.67478458049885	74	127
488.72122448979593	488.83732426303857	48	127
488.72122448979593	488.83732426303857	51	127
488.72122448979593	488.83732426303857	72	127
488.72122448979593	488.83732426303857	89	127
488.8721541950113	488.98825396825396	70	127
488.8721541950113	488.98825396825396	89	127
488.8721541950113	488.98825396825396	48	127
488.8721541950113	488.98825396825396	51	127
489.03469387755104	489.1507936507937	72	127
489.03469387755104	489.1507936507937	51	127
489.03469387755104	489.1507936507937	89	127
489.03469387755104	489.1507936507937	48	127
489.20884353741496	489.3249433106576	51	127
489.20884353741496	489.3249433106576	48	127
489.20884353741496	489.3249433106576	69	127
489.20884353741496	489.3249433106576	89	127
489.3713832199546	489.48748299319726	50	127
489.3713832199546	489.48748299319726	77	127
489.3713832199546	489.48748299319726	46	127
489.3713832199546	489.48748299319726	74	127
489.3713832199546	489.48748299319726	89	127
489.53392290249434	489.650022675737	77	127
489.53392290249434	489.650022675737	74	127
489.53392290249434	489.650022675737	46	127
489.53392290249434	489.650022675737	58	127
489.53392290249434	489.650022675737	89	127
489.70807256235827	489.8357823129252	58	127
489.70807256235827	489.8357823129252	46	127
489.70807256235827	489.8357823129252	74	127
489.70807256235827	489.8357823129252	89	127
489.70807256235827	489.8357823129252	77	127
489.8822222222222	489.99832199546483	89	127
489.8822222222222	489.99832199546483	74	127
489.8822222222222	489.99832199546483	53	127
489.8822222222222	489.99832199546483	77	127
489.8822222222222	489.9634920634921	41	127
490.0447619047619	490.1724716553288	77	127
490.0447619047619	490.1724716553288	74	127
490.0447619047619	490.1724716553288	46	127
490.0447619047619	490.1724716553288	89	127
490.0447619047619	490.1724716553288	58	127
490.21891156462584	490.2885714285714	50	127
490.21891156462584	490.3350113378685	62	127
490.21891156462584	490.3350113378685	77	127
490.21891156462584	490.3350113378685	89	127
490.21891156462584	490.3350113378685	74	127
490.38145124716556	490.49755102040814	77	127
490.38145124716556	490.4627210884354	89	127
490.38145124716556	490.49755102040814	75	127
490.38145124716556	490.49755102040814	60	127
490.38145124716556	490.49755102040814	48	127
490.4627210884354	490.5439909297052	91	127
490.5439909297052	490.6368707482993	89	127
490.5439909297052	490.6717006802721	77	127
490.5439909297052	490.6717006802721	58	127
490.5439909297052	490.6717006802721	46	127
490.5439909297052	490.6717006802721	75	127
490.6368707482993	490.71814058956915	91	127
490.71814058956915	490.799410430839	89	127
490.71814058956915	490.8342403628118	75	127
490.71814058956915	490.8342403628118	77	127
490.71814058956915	490.8342403628118	45	127
490.71814058956915	490.8342403628118	57	127
490.799410430839	490.88068027210886	91	127
490.88068027210886	490.9619501133787	89	127
490.88068027210886	490.98517006802723	75	127
490.88068027210886	490.98517006802723	43	127
490.88068027210886	490.98517006802723	55	127
490.88068027210886	490.98517006802723	77	127
490.9619501133787	491.0432199546485	91	127
491.0432199546485	491.15931972789116	57	127
491.0432199546485	491.15931972789116	77	127
491.0432199546485	491.15931972789116	75	127
491.0432199546485	491.12448979591835	89	127
491.0432199546485	491.15931972789116	45	127
491.12448979591835	491.20575963718824	91	127
491.20575963718824	491.3218594104308	41	127
491.20575963718824	491.3218594104308	53	127
491.20575963718824	491.3218594104308	77	127
491.20575963718824	491.3218594104308	75	127
491.20575963718824	491.28702947845807	89	127
491.28702947845807	491.3682993197279	91	127
491.3682993197279	491.4960090702948	46	127
491.3682993197279	491.4960090702948	58	127
491.3682993197279	491.4960090702948	77	127
491.3682993197279	491.4960090702948	74	127
491.3682993197279	491.4495691609977	89	127
491.4495691609977	491.56566893424036	91	127
491.56566893424036	491.681768707483	50	127
491.56566893424036	491.681768707483	74	127
491.56566893424036	491.681768707483	58	127
491.56566893424036	491.681768707483	77	127
491.56566893424036	491.6469387755102	89	127
491.6469387755102	491.72820861678	91	127
491.72820861678	491.8094784580499	89	127
491.72820861678	491.85591836734693	53	127
491.72820861678	491.85591836734693	58	127
491.72820861678	491.85591836734693	74	127
491.72820861678	491.85591836734693	77	127
491.8094784580499	491.902358276644	91	127
491.902358276644	492.01845804988665	77	127
491.902358276644	491.98362811791384	89	127
491.902358276644	492.01845804988665	74	127
491.902358276644	492.01845804988665	58	127
491.98362811791384	492.07650793650794	91	127
492.07650793650794	492.15777777777777	89	127
492.07650793650794	492.1926077097506	74	127
492.07650793650794	492.1926077097506	62	127
492.07650793650794	492.1926077097506	77	127
492.15777777777777	492.2390476190476	91	127
492.2390476190476	492.3667573696145	74	127
492.2390476190476	492.3667573696145	65	127
492.2390476190476	492.3319274376417	89	127
492.2390476190476	492.3667573696145	77	127
492.3319274376417	492.4131972789116	91	127
492.4131972789116	492.54090702947843	70	127
492.4131972789116	492.5060770975057	89	127
492.5060770975057	492.5873469387755	91	127
492.5873469387755	492.7150566893424	74	127
492.5873469387755	492.6802267573696	89	127
492.6802267573696	492.76149659863944	91	127
492.76149659863944	492.9008163265306	77	127
492.76149659863944	492.94725623582764	89	127
492.9588662131519	493.07496598639455	82	127
493.1330158730159	493.26072562358274	86	127
493.3187755102041	493.446485260771	89	127
493.5045351473923	493.88766439909296	94	127
495.8149206349206	495.9890702947846	78	127
496.00068027210887	496.18643990929706	78	127
496.18643990929706	496.55795918367346	78	127
496.9410884353741	497.1152380952381	64	127
497.1268480725624	497.3009977324263	64	127
497.3126077097506	497.69573696145125	64	127
498.10208616780045	498.2646258503401	53	127
498.2762358276644	498.47360544217685	53	127
498.47360544217685	498.86834467120184	53	127
499.27469387755104	499.448843537415	53	127
499.27469387755104	499.448843537415	62	127
499.27469387755104	499.448843537415	58	127
499.27469387755104	499.448843537415	46	127
499.46045351473924	499.6578231292517	46	127
499.46045351473924	499.6578231292517	62	127
499.46045351473924	499.6578231292517	53	127
499.46045351473924	499.6578231292517	58	127
499.6578231292517	499.83197278911564	58	127
499.6578231292517	499.83197278911564	62	127
499.6578231292517	499.83197278911564	46	127
499.6578231292517	499.83197278911564	53	127
499.8435827664399	500.01773242630384	62	127
499.8435827664399	500.01773242630384	58	127
499.8435827664399	500.01773242630384	53	127
499.8435827664399	500.01773242630384	46	127
500.0293424036281	500.20349206349204	46	127
500.0293424036281	500.20349206349204	58	127
500.0293424036281	500.20349206349204	62	127
500.0293424036281	500.20349206349204	53	127
500.20349206349204	500.4124716553288	62	127
500.20349206349204	500.4124716553288	58	127
500.20349206349204	500.4124716553288	53	127
500.20349206349204	500.4124716553288	46	127
500.4124716553288	501.50380952380954	70	127
500.4124716553288	501.50380952380954	74	127
500.4124716553288	501.50380952380954	62	127
500.4124716553288	501.50380952380954	58	127
500.4124716553288	501.50380952380954	62	127
500.4124716553288	501.50380952380954	58	127
501.5154195011338	502.7925170068027	46	127
501.5154195011338	502.7925170068027	82	127
501.5154195011338	502.7925170068027	74	127
501.5154195011338	502.7925170068027	86	127
501.5154195011338	502.7925170068027	53	127
501.5154195011338	502.7925170068027	58	127
502.7925170068027	504.08122448979594	58	127
502.7925170068027	504.08122448979594	53	127
502.7925170068027	504.08122448979594	46	127
502.7925170068027	504.08122448979594	62	127
506.13619047619045	506.21746031746034	70	127
