# onset,offset,note,velocity
0.20820861678004535	2.0425850340136056	53	127
0.20820861678004535	0.7654875283446712	65	127
0.20820861678004535	4.585170068027211	41	127
0.7654875283446712	1.4156462585034013	60	127
1.4156462585034013	2.0425850340136056	69	127
2.0425850340136056	2.715963718820862	65	127
2.0425850340136056	2.715963718820862	57	127
2.715963718820862	3.3080725623582765	62	127
2.715963718820862	3.3080725623582765	58	127
3.3080725623582765	3.9117913832199545	55	127
3.3080725623582765	3.9117913832199545	58	127
3.9117913832199545	4.585170068027211	57	127
3.9117913832199545	4.585170068027211	53	127
4.585170068027211	5.096009070294785	60	127
5.096009070294785	5.676507936507937	52	127
5.096009070294785	5.676507936507937	58	127
5.096009070294785	5.676507936507937	40	127
5.676507936507937	6.280226757369615	60	127
6.280226757369615	6.930385487528345	58	127
6.280226757369615	6.930385487528345	36	127
6.280226757369615	6.930385487528345	48	127
6.930385487528345	7.580544217687075	60	127
7.580544217687075	8.161043083900227	57	127
7.580544217687075	11.30734693877551	53	127
7.580544217687075	11.30734693877551	41	127
8.161043083900227	8.776349206349206	63	127
8.776349206349206	9.368480725623582	62	127
9.368480725623582	10.111519274376418	59	127
10.111519274376418	10.761678004535147	60	127
10.761678004535147	11.30734693877551	57	127
11.30734693877551	15.20829931972789	36	127
11.30734693877551	11.911065759637188	53	127
11.30734693877551	13.269433106575963	48	127
11.911065759637188	12.60766439909297	60	127
12.60766439909297	13.269433106575963	52	127
13.269433106575963	13.873151927437641	58	127
13.269433106575963	13.873151927437641	55	127
13.873151927437641	14.523310657596372	64	127
13.873151927437641	14.523310657596372	58	127
14.523310657596372	15.20829931972789	67	127
14.523310657596372	15.20829931972789	64	127
15.20829931972789	17.15875283446712	65	127
15.20829931972789	15.846848072562358	65	127
15.20829931972789	16.39251700680272	81	127
15.20829931972789	19.57362811791383	41	127
15.846848072562358	16.39251700680272	60	127
16.39251700680272	17.716054421768707	84	127
16.39251700680272	17.15875283446712	69	127
17.15875283446712	17.716054421768707	65	127
17.15875283446712	17.716054421768707	57	127
17.716054421768707	18.319773242630387	58	127
17.716054421768707	18.319773242630387	74	127
17.716054421768707	18.319773242630387	62	127
18.319773242630387	18.900272108843538	58	127
18.319773242630387	18.900272108843538	55	127
18.319773242630387	18.900272108843538	76	127
18.900272108843538	18.969931972789116	77	127
18.900272108843538	19.57362811791383	57	127
18.900272108843538	19.57362811791383	53	127
18.969931972789116	19.02798185941043	79	127
19.02798185941043	19.1324716553288	77	127
19.1324716553288	19.202131519274378	79	127
19.202131519274378	19.306621315192743	77	127
19.306621315192743	19.39950113378685	79	127
19.39950113378685	19.49238095238095	77	127
19.49238095238095	19.57362811791383	79	127
19.57362811791383	19.643310657596373	77	127
19.57362811791383	20.223809523809525	60	127
19.643310657596373	19.736190476190476	79	127
19.736190476190476	19.829070294784582	77	127
19.829070294784582	19.94517006802721	79	127
19.94517006802721	20.08448979591837	76	127
20.08448979591837	20.223809523809525	77	127
20.223809523809525	20.792698412698414	52	127
20.223809523809525	20.792698412698414	40	127
20.223809523809525	20.792698412698414	58	127
20.223809523809525	22.127845804988663	79	127
20.792698412698414	21.303537414965987	60	127
21.303537414965987	22.127845804988663	36	127
21.303537414965987	22.127845804988663	58	127
21.303537414965987	22.127845804988663	48	127
22.127845804988663	22.68512471655329	60	127
22.127845804988663	22.68512471655329	80	127
22.68512471655329	23.219183673469388	57	127
22.68512471655329	26.272607709750567	41	127
22.68512471655329	23.091473922902495	81	127
22.68512471655329	26.272607709750567	53	127
23.091473922902495	23.219183673469388	89	127
23.219183673469388	23.64875283446712	89	127
23.219183673469388	23.776462585034015	63	127
23.64875283446712	23.776462585034015	81	127
23.776462585034015	24.287301587301588	82	127
23.776462585034015	24.426621315192744	62	127
24.287301587301588	24.426621315192744	86	127
24.426621315192744	24.972290249433108	59	127
24.426621315192744	24.844580498866215	86	127
24.844580498866215	24.972290249433108	80	127
24.972290249433108	25.587619047619047	60	127
24.972290249433108	25.459909297052153	81	127
25.459909297052153	25.587619047619047	84	127
25.587619047619047	26.272607709750567	65	127
25.587619047619047	26.13328798185941	84	127
26.13328798185941	26.272607709750567	81	127
26.272607709750567	27.28267573696145	79	127
26.272607709750567	27.28267573696145	64	127
26.272607709750567	27.66580498866213	48	127
26.272607709750567	27.66580498866213	36	127
27.28267573696145	27.503265306122447	81	127
27.28267573696145	27.66580498866213	58	127
27.503265306122447	27.66580498866213	79	127
27.66580498866213	28.490113378684807	57	127
27.66580498866213	28.490113378684807	53	127
27.66580498866213	28.490113378684807	41	127
27.66580498866213	28.490113378684807	77	127
28.490113378684807	29.10544217687075	65	127
28.490113378684807	29.10544217687075	57	127
28.490113378684807	29.10544217687075	53	127
29.10544217687075	29.65111111111111	58	127
29.10544217687075	29.65111111111111	64	127
29.10544217687075	29.65111111111111	55	127
29.65111111111111	30.278049886621314	60	127
29.65111111111111	30.278049886621314	57	127
29.65111111111111	30.278049886621314	63	127
30.278049886621314	35.25873015873016	34	127
30.278049886621314	32.30979591836735	58	127
30.278049886621314	30.951428571428572	62	127
30.278049886621314	31.555147392290248	62	127
30.951428571428572	31.555147392290248	65	127
31.555147392290248	32.30979591836735	74	127
32.30979591836735	33.19215419501134	70	127
32.30979591836735	33.19215419501134	62	127
33.19215419501134	33.94680272108844	63	127
33.19215419501134	33.94680272108844	69	127
33.94680272108844	34.62018140589569	63	127
33.94680272108844	34.62018140589569	57	127
34.62018140589569	35.85083900226758	74	127
34.62018140589569	35.25873015873016	62	127
34.62018140589569	35.25873015873016	58	127
35.25873015873016	35.85083900226758	65	127
35.85083900226758	38.21927437641723	77	127
35.85083900226758	36.547437641723356	57	127
35.85083900226758	36.547437641723356	33	127
35.85083900226758	36.547437641723356	63	127
36.547437641723356	37.081496598639454	65	127
37.081496598639454	37.67360544217687	53	127
37.081496598639454	37.67360544217687	63	127
37.081496598639454	37.67360544217687	29	127
37.67360544217687	38.21927437641723	65	127
38.21927437641723	38.881020408163266	46	127
38.21927437641723	38.881020408163266	62	127
38.21927437641723	38.881020408163266	58	127
38.881020408163266	39.554421768707485	66	127
38.881020408163266	39.554421768707485	60	127
38.881020408163266	39.554421768707485	45	127
39.554421768707485	40.21619047619048	67	127
39.554421768707485	39.6124716553288	74	127
39.554421768707485	40.808299319727894	58	127
39.554421768707485	40.808299319727894	43	127
39.6124716553288	39.69374149659864	76	127
39.69374149659864	39.77498866213152	74	127
39.77498866213152	39.879501133786846	76	127
39.879501133786846	39.94916099773243	74	127
39.94916099773243	40.018798185941044	76	127
40.018798185941044	40.12331065759637	74	127
40.12331065759637	40.21619047619048	76	127
40.21619047619048	40.29746031746032	74	127
40.21619047619048	40.808299319727894	62	127
40.29746031746032	40.37873015873016	76	127
40.37873015873016	40.44839002267574	74	127
40.44839002267574	40.51804988662131	76	127
40.51804988662131	40.65734693877551	73	127
40.65734693877551	40.808299319727894	74	127
40.808299319727894	41.38879818594104	67	127
40.808299319727894	41.07532879818594	82	127
41.38879818594104	41.77192743764172	86	127
41.38879818594104	42.0621768707483	70	127
42.0621768707483	42.665895691609975	57	127
42.0621768707483	42.665895691609975	60	127
42.0621768707483	42.665895691609975	45	127
42.665895691609975	43.25800453514739	64	127
42.665895691609975	43.25800453514739	58	127
42.665895691609975	43.25800453514739	43	127
43.25800453514739	44.40739229024943	41	127
43.25800453514739	43.33927437641724	72	127
43.25800453514739	43.80367346938775	65	127
43.25800453514739	44.40739229024943	57	127
43.33927437641724	43.39732426303855	74	127
43.39732426303855	43.4553514739229	72	127
43.4553514739229	43.51342403628118	74	127
43.51342403628118	43.583061224489796	72	127
43.583061224489796	43.64113378684807	74	127
43.64113378684807	43.72240362811792	72	127
43.72240362811792	43.80367346938775	74	127
43.80367346938775	43.8849433106576	72	127
43.80367346938775	44.40739229024943	60	127
43.8849433106576	43.96621315192744	74	127
43.96621315192744	44.05909297052154	72	127
44.05909297052154	44.12875283446712	74	127
44.12875283446712	44.256462585034015	71	127
44.256462585034015	44.40739229024943	72	127
44.40739229024943	44.802131519274376	81	127
44.40739229024943	45.25492063492064	65	127
45.25492063492064	45.951519274376416	69	127
45.25492063492064	45.55678004535147	84	127
45.951519274376416	47.28666666666667	46	127
45.951519274376416	46.555238095238096	74	127
45.951519274376416	46.555238095238096	67	127
45.951519274376416	47.28666666666667	34	127
46.555238095238096	47.00800453514739	79	127
46.555238095238096	47.00800453514739	62	127
47.00800453514739	47.28666666666667	58	127
47.00800453514739	47.28666666666667	82	127
47.28666666666667	48.958503401360545	72	127
47.28666666666667	48.42444444444445	57	127
47.28666666666667	48.74952380952381	48	127
47.28666666666667	48.74952380952381	36	127
48.42444444444445	48.59859410430839	58	127
48.59859410430839	48.74952380952381	57	127
48.74952380952381	49.388072562358275	55	127
48.958503401360545	49.05138321995465	74	127
49.16748299319728	49.271972789115644	76	127
49.388072562358275	49.504172335600906	77	127
49.62027210884354	49.73637188208617	79	127
49.8524716553288	49.98018140589569	80	127
50.11950113378685	54.6590022675737	41	127
50.11950113378685	50.804489795918364	53	127
50.11950113378685	51.33854875283447	81	127
50.11950113378685	52.11641723356009	53	127
50.804489795918364	51.33854875283447	60	127
51.33854875283447	52.7433560090703	84	127
51.33854875283447	52.11641723356009	69	127
52.11641723356009	52.7433560090703	57	127
52.11641723356009	52.7433560090703	65	127
52.7433560090703	53.439954648526076	62	127
52.7433560090703	53.439954648526076	58	127
52.7433560090703	53.439954648526076	74	127
53.439954648526076	54.06689342403628	76	127
53.439954648526076	54.06689342403628	58	127
53.439954648526076	54.06689342403628	55	127
54.06689342403628	54.13655328798186	77	127
54.06689342403628	54.6590022675737	57	127
54.06689342403628	54.6590022675737	53	127
54.13655328798186	54.194603174603174	79	127
54.194603174603174	54.264263038548755	77	127
54.264263038548755	54.33392290249433	79	127
54.33392290249433	54.4384126984127	77	127
54.4384126984127	54.50807256235828	79	127
54.50807256235828	54.56612244897959	77	127
54.56612244897959	54.6590022675737	79	127
54.6590022675737	55.2859410430839	60	127
54.6590022675737	54.751882086167804	77	127
54.751882086167804	54.8447619047619	79	127
54.8447619047619	54.94925170068027	77	127
54.94925170068027	55.01891156462585	79	127
55.01891156462585	55.15823129251701	76	127
55.15823129251701	55.2859410430839	77	127
55.2859410430839	56.040589569161	58	127
55.2859410430839	56.040589569161	52	127
55.2859410430839	56.040589569161	40	127
55.2859410430839	56.59786848072562	79	127
56.040589569161	56.59786848072562	60	127
56.59786848072562	57.18997732426304	65	127
56.59786848072562	57.9562358276644	41	127
56.59786848072562	57.9562358276644	53	127
56.59786848072562	56.667528344671204	81	127
56.667528344671204	56.73718820861678	82	127
56.73718820861678	56.7952380952381	81	127
56.7952380952381	56.86489795918367	82	127
56.86489795918367	56.93455782312925	81	127
56.93455782312925	57.03904761904762	82	127
57.03904761904762	57.12031746031746	81	127
57.12031746031746	57.18997732426304	82	127
57.18997732426304	57.29446712018141	81	127
57.18997732426304	57.9562358276644	63	127
57.29446712018141	57.480226757369614	82	127
57.480226757369614	57.57310657596372	81	127
57.57310657596372	57.642766439909295	82	127
57.642766439909295	57.82852607709751	79	127
57.82852607709751	57.9562358276644	81	127
57.9562358276644	59.082403628117916	82	127
57.9562358276644	62.48412698412698	34	127
57.9562358276644	59.848662131519276	58	127
57.9562358276644	58.54834467120181	62	127
58.54834467120181	59.082403628117916	65	127
59.082403628117916	59.848662131519276	74	127
59.848662131519276	60.498820861678006	70	127
59.848662131519276	60.498820861678006	62	127
60.498820861678006	61.24185941043084	63	127
60.498820861678006	61.24185941043084	67	127
61.24185941043084	61.89201814058957	60	127
61.24185941043084	61.89201814058957	63	127
61.89201814058957	62.48412698412698	62	127
61.89201814058957	62.48412698412698	58	127
61.89201814058957	63.064625850340136	74	127
62.48412698412698	63.064625850340136	65	127
63.064625850340136	63.74961451247165	63	127
63.064625850340136	63.74961451247165	57	127
63.064625850340136	63.74961451247165	33	127
63.064625850340136	64.72485260770975	77	127
63.74961451247165	64.17916099773242	65	127
64.17916099773242	64.72485260770975	62	127
64.17916099773242	65.45625850340136	58	127
64.17916099773242	65.45625850340136	34	127
64.72485260770975	65.45625850340136	65	127
64.72485260770975	65.45625850340136	82	127
65.45625850340136	66.24575963718821	65	127
65.45625850340136	65.9438775510204	81	127
65.45625850340136	66.24575963718821	53	127
65.45625850340136	66.24575963718821	41	127
65.9438775510204	66.24575963718821	77	127
66.24575963718821	66.96555555555555	34	127
66.24575963718821	66.96555555555555	46	127
66.24575963718821	66.96555555555555	62	127
66.24575963718821	66.6056462585034	74	127
66.6056462585034	66.96555555555555	70	127
66.96555555555555	69.84485260770975	36	127
66.96555555555555	69.84485260770975	48	127
66.96555555555555	67.70861678004535	69	127
66.96555555555555	67.70861678004535	60	127
67.70861678004535	68.37036281179138	65	127
67.70861678004535	68.37036281179138	57	127
68.37036281179138	68.99732426303855	58	127
68.37036281179138	68.99732426303855	64	127
68.99732426303855	69.84485260770975	58	127
68.99732426303855	69.84485260770975	64	127
69.84485260770975	70.56467120181406	65	127
69.84485260770975	70.56467120181406	57	127
69.84485260770975	70.56467120181406	57	127
69.84485260770975	70.56467120181406	41	127
69.84485260770975	71.19160997732426	41	127
70.56467120181406	70.84331065759638	60	127
70.56467120181406	70.84331065759638	57	127
70.56467120181406	70.84331065759638	53	127
71.19160997732426	71.64439909297052	57	127
71.19160997732426	71.64439909297052	65	127
71.19160997732426	71.64439909297052	60	127
71.91142857142857	72.27133786848073	69	127
71.91142857142857	72.27133786848073	65	127
71.91142857142857	72.27133786848073	60	127
72.65446712018141	72.93310657596372	72	127
72.65446712018141	72.93310657596372	69	127
72.65446712018141	72.93310657596372	65	127
73.29301587301588	73.56002267573696	69	127
73.29301587301588	73.56002267573696	77	127
73.29301587301588	73.56002267573696	72	127
73.94315192743764	75.04612244897959	39	127
73.94315192743764	74.50045351473923	53	127
73.94315192743764	74.50045351473923	48	127
73.94315192743764	74.50045351473923	57	127
74.50045351473923	74.77909297052155	60	127
74.50045351473923	74.77909297052155	57	127
74.50045351473923	74.77909297052155	53	127
75.04612244897959	75.47566893424036	65	127
75.04612244897959	75.47566893424036	60	127
75.04612244897959	75.47566893424036	57	127
75.78916099773242	76.12585034013605	60	127
75.78916099773242	76.12585034013605	69	127
75.78916099773242	76.12585034013605	65	127
76.45092970521542	76.76439909297052	72	127
76.45092970521542	76.76439909297052	69	127
76.45092970521542	76.76439909297052	65	127
77.04303854875283	77.31006802721089	77	127
77.04303854875283	77.31006802721089	72	127
77.04303854875283	77.31006802721089	69	127
77.64675736961452	78.83097505668934	38	127
77.64675736961452	78.16920634920635	57	127
77.64675736961452	78.16920634920635	54	127
77.64675736961452	78.16920634920635	48	127
78.16920634920635	78.42462585034014	54	127
78.16920634920635	78.42462585034014	60	127
78.16920634920635	78.42462585034014	57	127
78.83097505668934	79.26054421768707	66	127
78.83097505668934	79.26054421768707	60	127
78.83097505668934	79.26054421768707	57	127
79.66687074829932	79.96875283446713	69	127
79.66687074829932	79.96875283446713	66	127
79.66687074829932	79.96875283446713	60	127
80.28219954648526	80.5724716553288	72	127
80.28219954648526	80.5724716553288	69	127
80.28219954648526	80.5724716553288	66	127
81.00204081632653	81.28068027210884	78	127
81.00204081632653	81.28068027210884	72	127
81.00204081632653	81.28068027210884	69	127
81.66380952380952	82.90607709750567	37	127
81.66380952380952	82.25591836734694	57	127
81.66380952380952	82.25591836734694	54	127
81.66380952380952	82.25591836734694	49	127
82.25591836734694	82.58097505668934	61	127
82.25591836734694	82.58097505668934	57	127
82.25591836734694	82.58097505668934	54	127
82.90607709750567	83.3356462585034	57	127
82.90607709750567	83.3356462585034	66	127
82.90607709750567	83.3356462585034	61	127
83.63750566893424	83.93936507936507	69	127
83.63750566893424	83.93936507936507	66	127
83.63750566893424	83.93936507936507	61	127
84.20639455782313	84.47340136054422	69	127
84.20639455782313	84.47340136054422	73	127
84.20639455782313	84.47340136054422	66	127
84.77528344671202	85.05392290249434	78	127
84.77528344671202	85.05392290249434	73	127
84.77528344671202	85.05392290249434	69	127
85.44866213151927	86.7257596371882	37	127
85.44866213151927	86.12204081632653	56	127
85.44866213151927	86.12204081632653	53	127
85.44866213151927	86.12204081632653	47	127
86.12204081632653	86.43551020408164	59	127
86.12204081632653	86.43551020408164	56	127
86.12204081632653	86.43551020408164	53	127
86.7257596371882	87.03922902494331	65	127
86.7257596371882	87.03922902494331	59	127
86.7257596371882	87.03922902494331	56	127
87.37591836734694	87.7009977324263	68	127
87.37591836734694	87.7009977324263	65	127
87.37591836734694	87.7009977324263	59	127
87.37591836734694	87.7009977324263	37	127
88.08412698412698	88.37437641723356	71	127
88.08412698412698	88.37437641723356	68	127
88.08412698412698	88.37437641723356	65	127
88.08412698412698	88.37437641723356	37	127
88.66460317460317	89.00131519274376	77	127
88.66460317460317	89.00131519274376	71	127
88.66460317460317	89.00131519274376	68	127
88.66460317460317	89.00131519274376	37	127
89.34961451247166	89.7443537414966	78	127
89.34961451247166	89.93011337868481	42	127
89.34961451247166	90.48739229024943	69	127
89.34961451247166	90.48739229024943	66	127
89.7443537414966	89.93011337868481	73	127
89.93011337868481	90.48739229024943	78	127
90.48739229024943	91.16077097505669	42	127
91.02145124716553	91.16077097505669	73	127
91.16077097505669	91.4509977324263	61	127
91.16077097505669	91.4509977324263	57	127
91.16077097505669	91.71804988662132	78	127
91.71804988662132	92.01990929705215	61	127
91.71804988662132	92.01990929705215	57	127
91.71804988662132	92.37981859410431	42	127
92.22888888888889	92.37981859410431	73	127
92.37981859410431	92.70489795918367	57	127
92.37981859410431	92.70489795918367	61	127
92.37981859410431	92.98351473922902	78	127
92.98351473922902	94.30707482993198	59	127
92.98351473922902	93.56403628117914	42	127
92.98351473922902	94.30707482993198	62	127
93.42471655328798	93.56403628117914	74	127
93.56403628117914	94.30707482993198	78	127
94.30707482993198	94.96884353741497	42	127
94.30707482993198	96.10662131519274	66	127
94.30707482993198	96.10662131519274	62	127
94.84113378684808	94.96884353741497	74	127
94.96884353741497	95.45646258503402	78	127
95.45646258503402	96.10662131519274	42	127
95.9324716553288	96.10662131519274	74	127
96.10662131519274	96.6871201814059	78	127
96.10662131519274	96.6871201814059	62	127
96.10662131519274	96.6871201814059	59	127
96.6871201814059	97.2792290249433	42	127
96.6871201814059	98.40539682539682	61	127
96.6871201814059	98.40539682539682	57	127
97.15151927437641	97.2792290249433	73	127
97.2792290249433	97.77845804988662	78	127
97.77845804988662	98.40539682539682	42	127
98.2544671201814	98.40539682539682	73	127
98.40539682539682	98.98589569160998	61	127
98.40539682539682	98.98589569160998	69	127
98.40539682539682	98.98589569160998	78	127
98.98589569160998	99.58961451247166	59	127
98.98589569160998	99.58961451247166	42	127
98.98589569160998	99.58961451247166	68	127
99.42707482993197	99.58961451247166	73	127
99.58961451247166	100.19333333333333	78	127
99.58961451247166	100.19333333333333	66	127
99.58961451247166	100.19333333333333	57	127
100.19333333333333	101.2730612244898	65	127
100.19333333333333	100.7041723356009	37	127
100.19333333333333	101.2730612244898	56	127
100.57646258503401	100.7041723356009	71	127
100.7041723356009	101.2730612244898	77	127
101.2730612244898	102.44566893424036	62	127
101.2730612244898	103.03777777777778	59	127
101.2730612244898	101.83034013605442	37	127
101.69102040816327	101.83034013605442	71	127
101.83034013605442	102.44566893424036	77	127
102.44566893424036	103.03777777777778	37	127
102.44566893424036	103.03777777777778	61	127
102.88684807256236	103.03777777777778	71	127
103.03777777777778	103.4092970521542	57	127
103.03777777777778	103.69954648526077	77	127
103.03777777777778	103.69954648526077	65	127
103.4092970521542	103.69954648526077	56	127
103.69954648526077	104.96503401360545	66	127
103.69954648526077	104.39614512471655	42	127
103.69954648526077	104.96503401360545	57	127
104.24521541950114	104.39614512471655	73	127
104.39614512471655	104.96503401360545	78	127
104.96503401360545	105.49909297052154	42	127
105.3829931972789	105.49909297052154	73	127
105.49909297052154	106.03315192743764	78	127
105.49909297052154	105.76612244897959	69	127
105.49909297052154	105.76612244897959	61	127
106.03315192743764	106.34662131519275	70	127
106.03315192743764	106.61365079365079	61	127
106.03315192743764	106.61365079365079	42	127
106.4859410430839	106.61365079365079	73	127
106.61365079365079	107.21736961451248	64	127
106.61365079365079	106.90390022675737	70	127
106.61365079365079	107.21736961451248	79	127
107.21736961451248	107.7746485260771	42	127
107.21736961451248	108.20421768707483	71	127
107.21736961451248	108.20421768707483	62	127
107.64693877551021	107.7746485260771	74	127
107.7746485260771	108.41319727891157	78	127
108.20421768707483	108.3087074829932	71	127
108.20421768707483	108.3087074829932	62	127
108.3087074829932	108.41319727891157	64	127
108.3087074829932	108.41319727891157	73	127
108.41319727891157	110.24757369614512	74	127
108.41319727891157	110.24757369614512	66	127
108.41319727891157	109.00530612244899	42	127
108.86598639455782	109.00530612244899	74	127
109.00530612244899	109.53936507936508	78	127
109.53936507936508	110.24757369614512	42	127
110.07342403628118	110.24757369614512	74	127
110.24757369614512	110.86290249433107	78	127
110.24757369614512	110.86290249433107	71	127
110.24757369614512	110.86290249433107	62	127
110.86290249433107	111.98907029478458	69	127
110.86290249433107	111.44340136054421	42	127
110.86290249433107	111.98907029478458	61	127
111.2924716553288	111.44340136054421	73	127
111.44340136054421	111.98907029478458	78	127
111.98907029478458	112.65083900226757	42	127
112.51151927437641	112.65083900226757	73	127
112.65083900226757	113.21972789115647	69	127
112.65083900226757	113.21972789115647	61	127
112.65083900226757	113.21972789115647	78	127
113.21972789115647	113.80022675736961	59	127
113.21972789115647	113.80022675736961	42	127
113.21972789115647	113.80022675736961	68	127
113.6492970521542	113.80022675736961	73	127
113.80022675736961	114.32267573696146	66	127
113.80022675736961	114.32267573696146	57	127
113.80022675736961	114.32267573696146	78	127
114.32267573696146	115.54172335600907	56	127
114.32267573696146	114.9960544217687	65	127
114.32267573696146	114.9960544217687	37	127
114.83351473922903	114.9960544217687	71	127
114.9960544217687	115.54172335600907	77	127
114.9960544217687	115.54172335600907	68	127
115.54172335600907	116.0990022675737	37	127
115.54172335600907	116.66789115646259	62	127
115.54172335600907	117.27160997732426	59	127
115.95968253968255	116.0990022675737	71	127
116.0990022675737	116.66789115646259	77	127
116.66789115646259	117.27160997732426	61	127
116.66789115646259	117.27160997732426	37	127
117.12068027210884	117.27160997732426	71	127
117.27160997732426	117.59668934240362	57	127
117.27160997732426	117.87532879818595	77	127
117.27160997732426	117.87532879818595	65	127
117.59668934240362	117.87532879818595	56	127
117.87532879818595	118.46743764172335	42	127
117.87532879818595	119.08276643990929	66	127
117.87532879818595	119.08276643990929	54	127
118.29328798185941	118.46743764172335	69	127
118.46743764172335	119.08276643990929	78	127
119.08276643990929	119.75614512471655	42	127
119.60521541950114	119.75614512471655	69	127
119.75614512471655	120.2785941043084	78	127
119.75614512471655	120.2785941043084	61	127
119.75614512471655	120.2785941043084	57	127
120.2785941043084	120.89392290249432	66	127
120.2785941043084	120.89392290249432	61	127
120.2785941043084	120.89392290249432	42	127
120.75460317460318	120.89392290249432	69	127
120.89392290249432	121.43959183673469	78	127
120.89392290249432	121.43959183673469	66	127
120.89392290249432	121.43959183673469	69	127
121.43959183673469	123.28557823129252	67	127
121.43959183673469	123.78480725623582	69	127
121.43959183673469	122.04331065759636	40	127
121.90399092970522	122.04331065759636	69	127
122.04331065759636	122.57736961451248	79	127
122.57736961451248	123.28557823129252	40	127
123.11142857142858	123.28557823129252	69	127
123.28557823129252	123.78480725623582	64	127
123.28557823129252	123.78480725623582	79	127
123.78480725623582	124.45818594104308	61	127
123.78480725623582	124.08666666666667	68	127
123.78480725623582	124.45818594104308	40	127
124.08666666666667	124.45818594104308	69	127
124.22598639455782	124.45818594104308	69	127
124.45818594104308	125.06190476190476	79	127
124.45818594104308	124.7368253968254	71	127
124.45818594104308	125.06190476190476	55	127
124.7368253968254	125.06190476190476	69	127
125.06190476190476	126.29256235827664	54	127
125.06190476190476	125.65401360544217	38	127
125.06190476190476	126.29256235827664	69	127
125.50308390022676	125.65401360544217	69	127
125.65401360544217	126.29256235827664	78	127
126.29256235827664	126.89628117913833	38	127
126.29256235827664	127.51160997732427	66	127
126.29256235827664	127.51160997732427	57	127
126.73374149659864	126.89628117913833	69	127
126.89628117913833	127.51160997732427	78	127
127.51160997732427	128.6609977324263	71	127
127.51160997732427	128.11532879818594	32	127
127.51160997732427	128.6609977324263	62	127
127.96439909297052	128.11532879818594	74	127
128.11532879818594	128.6609977324263	83	127
128.6609977324263	129.99614512471655	66	127
128.6609977324263	129.41564625850341	33	127
129.25310657596373	129.41564625850341	74	127
129.41564625850341	129.99614512471655	81	127
129.41564625850341	129.99614512471655	62	127
129.99614512471655	132.00467120181406	67	127
129.99614512471655	132.00467120181406	61	127
129.99614512471655	130.62308390022676	33	127
130.46054421768707	130.62308390022676	73	127
130.62308390022676	131.20358276643992	81	127
131.20358276643992	132.00467120181406	33	127
131.77244897959184	132.00467120181406	73	127
132.00467120181406	132.67804988662132	81	127
132.00467120181406	132.36458049886622	57	127
132.00467120181406	132.67804988662132	61	127
132.36458049886622	132.67804988662132	55	127
132.67804988662132	133.502358276644	42	127
132.67804988662132	132.85219954648525	62	127
132.67804988662132	132.85219954648525	74	127
132.67804988662132	133.502358276644	54	127
132.85219954648525	133.0960090702948	66	127
132.85219954648525	133.0960090702948	62	127
132.85219954648525	133.0960090702948	57	127
133.0960090702948	133.502358276644	66	127
133.0960090702948	133.502358276644	57	127
133.0960090702948	133.502358276644	62	127
133.502358276644	133.67650793650793	66	127
133.502358276644	133.67650793650793	57	127
133.502358276644	133.67650793650793	62	127
133.67650793650793	133.8506575963719	66	127
133.67650793650793	133.8506575963719	57	127
133.67650793650793	133.8506575963719	62	127
133.8506575963719	134.04802721088436	66	127
133.8506575963719	134.04802721088436	57	127
133.8506575963719	134.04802721088436	62	127
134.04802721088436	134.24539682539682	66	127
134.04802721088436	134.24539682539682	62	127
134.04802721088436	134.61691609977325	54	127
134.04802721088436	134.61691609977325	42	127
134.04802721088436	134.24539682539682	57	127
134.24539682539682	134.41954648526078	62	127
134.24539682539682	134.41954648526078	57	127
134.24539682539682	134.41954648526078	66	127
134.41954648526078	134.61691609977325	57	127
134.41954648526078	134.61691609977325	62	127
134.41954648526078	134.61691609977325	66	127
134.61691609977325	134.77945578231294	66	127
134.61691609977325	134.77945578231294	57	127
134.61691609977325	134.77945578231294	62	127
134.77945578231294	134.94197278911565	57	127
134.77945578231294	134.94197278911565	66	127
134.77945578231294	134.94197278911565	62	127
134.94197278911565	135.11614512471655	62	127
134.94197278911565	135.11614512471655	66	127
134.94197278911565	135.11614512471655	57	127
135.11614512471655	135.2902947845805	62	127
135.11614512471655	135.2902947845805	57	127
135.11614512471655	135.2902947845805	66	127
135.11614512471655	135.6618140589569	50	127
135.11614512471655	135.6618140589569	38	127
135.2902947845805	135.4760544217687	57	127
135.2902947845805	135.4760544217687	62	127
135.2902947845805	135.4760544217687	66	127
135.4760544217687	135.6618140589569	57	127
135.4760544217687	135.6618140589569	62	127
135.4760544217687	135.6618140589569	66	127
135.6618140589569	135.8824036281179	57	127
135.6618140589569	135.8824036281179	62	127
135.6618140589569	135.8824036281179	66	127
135.8824036281179	136.06814058956917	66	127
135.8824036281179	136.06814058956917	62	127
135.8824036281179	136.06814058956917	57	127
136.06814058956917	136.2307029478458	66	127
136.06814058956917	136.2307029478458	57	127
136.06814058956917	136.2307029478458	62	127
136.2307029478458	136.6718820861678	45	127
136.2307029478458	136.42807256235827	67	127
136.2307029478458	136.42807256235827	57	127
136.2307029478458	136.42807256235827	61	127
136.2307029478458	136.42807256235827	64	127
136.2307029478458	136.6718820861678	33	127
136.42807256235827	136.637052154195	57	127
136.42807256235827	136.637052154195	61	127
136.42807256235827	136.637052154195	64	127
136.42807256235827	136.637052154195	67	127
136.637052154195	136.81120181405896	61	127
136.637052154195	136.81120181405896	67	127
136.637052154195	136.81120181405896	57	127
136.637052154195	136.81120181405896	64	127
136.6718820861678	136.81120181405896	45	127
136.6718820861678	136.81120181405896	33	127
136.81120181405896	137.03179138321997	64	127
136.81120181405896	137.03179138321997	67	127
136.81120181405896	137.03179138321997	57	127
136.81120181405896	137.03179138321997	61	127
136.81120181405896	137.72839002267574	45	127
136.81120181405896	137.72839002267574	57	127
137.03179138321997	137.19433106575963	64	127
137.03179138321997	137.19433106575963	67	127
137.03179138321997	137.19433106575963	57	127
137.03179138321997	137.19433106575963	61	127
137.19433106575963	137.36848072562358	64	127
137.19433106575963	137.36848072562358	67	127
137.19433106575963	137.36848072562358	57	127
137.19433106575963	137.36848072562358	61	127
137.36848072562358	137.519410430839	64	127
137.36848072562358	137.519410430839	67	127
137.36848072562358	137.519410430839	57	127
137.36848072562358	137.519410430839	61	127
137.519410430839	137.6819501133787	67	127
137.519410430839	137.6819501133787	57	127
137.519410430839	137.6819501133787	61	127
137.519410430839	137.6819501133787	64	127
137.6819501133787	137.8677097505669	67	127
137.6819501133787	137.8677097505669	57	127
137.6819501133787	137.8677097505669	61	127
137.6819501133787	137.8677097505669	64	127
137.72839002267574	137.8677097505669	33	127
137.72839002267574	137.8677097505669	45	127
137.8677097505669	138.04185941043085	67	127
137.8677097505669	138.8081179138322	45	127
137.8677097505669	138.8081179138322	57	127
137.8677097505669	138.04185941043085	57	127
137.8677097505669	138.04185941043085	61	127
137.8677097505669	138.04185941043085	64	127
138.04185941043085	138.22761904761904	67	127
138.04185941043085	138.22761904761904	57	127
138.04185941043085	138.22761904761904	61	127
138.04185941043085	138.22761904761904	64	127
138.22761904761904	138.401768707483	67	127
138.22761904761904	138.401768707483	57	127
138.22761904761904	138.401768707483	61	127
138.22761904761904	138.401768707483	64	127
138.401768707483	138.57591836734693	64	127
138.401768707483	138.57591836734693	67	127
138.401768707483	138.57591836734693	57	127
138.401768707483	138.57591836734693	61	127
138.57591836734693	138.76167800453516	67	127
138.57591836734693	138.76167800453516	57	127
138.57591836734693	138.76167800453516	61	127
138.57591836734693	138.76167800453516	64	127
138.76167800453516	138.93582766439908	61	127
138.76167800453516	138.93582766439908	64	127
138.76167800453516	138.93582766439908	67	127
138.76167800453516	138.93582766439908	57	127
138.8081179138322	138.93582766439908	33	127
138.8081179138322	138.93582766439908	45	127
138.93582766439908	139.07514739229026	64	127
138.93582766439908	139.07514739229026	67	127
138.93582766439908	139.07514739229026	57	127
138.93582766439908	139.07514739229026	61	127
138.93582766439908	139.41183673469388	57	127
138.93582766439908	139.41183673469388	45	127
139.07514739229026	139.23766439909298	67	127
139.07514739229026	139.23766439909298	61	127
139.07514739229026	139.23766439909298	64	127
139.07514739229026	139.23766439909298	57	127
139.23766439909298	139.41183673469388	67	127
139.23766439909298	139.41183673469388	57	127
139.23766439909298	139.41183673469388	61	127
139.23766439909298	139.41183673469388	64	127
139.41183673469388	139.91106575963718	38	127
139.41183673469388	139.57437641723357	66	127
139.41183673469388	139.57437641723357	57	127
139.41183673469388	139.57437641723357	62	127
139.41183673469388	139.91106575963718	50	127
139.57437641723357	139.73691609977325	66	127
139.57437641723357	139.73691609977325	57	127
139.57437641723357	139.73691609977325	62	127
139.73691609977325	139.91106575963718	62	127
139.73691609977325	139.91106575963718	66	127
139.73691609977325	139.91106575963718	57	127
139.91106575963718	140.0968253968254	57	127
139.91106575963718	140.0968253968254	62	127
139.91106575963718	140.0968253968254	66	127
140.0968253968254	140.25934240362812	66	127
140.0968253968254	140.25934240362812	57	127
140.0968253968254	140.25934240362812	62	127
140.25934240362812	140.43351473922903	66	127
140.25934240362812	140.43351473922903	57	127
140.25934240362812	140.43351473922903	62	127
140.43351473922903	140.97918367346938	42	127
140.43351473922903	140.97918367346938	54	127
140.43351473922903	140.61927437641722	66	127
140.43351473922903	140.61927437641722	57	127
140.43351473922903	140.61927437641722	62	127
140.61927437641722	140.79342403628118	62	127
140.61927437641722	140.79342403628118	66	127
140.61927437641722	140.79342403628118	57	127
140.79342403628118	140.97918367346938	66	127
140.79342403628118	140.97918367346938	57	127
140.79342403628118	140.97918367346938	62	127
140.97918367346938	141.1765306122449	66	127
140.97918367346938	141.1765306122449	57	127
140.97918367346938	141.1765306122449	62	127
141.1765306122449	141.3507029478458	66	127
141.1765306122449	141.3507029478458	57	127
141.1765306122449	141.3507029478458	62	127
141.3507029478458	141.50163265306122	66	127
141.3507029478458	141.50163265306122	57	127
141.3507029478458	141.50163265306122	62	127
141.50163265306122	142.08213151927438	38	127
141.50163265306122	141.68736961451248	66	127
141.50163265306122	141.68736961451248	57	127
141.50163265306122	141.68736961451248	62	127
141.50163265306122	142.08213151927438	50	127
141.68736961451248	141.86154195011338	62	127
141.68736961451248	141.86154195011338	66	127
141.68736961451248	141.86154195011338	57	127
141.86154195011338	142.08213151927438	66	127
141.86154195011338	142.08213151927438	57	127
141.86154195011338	142.08213151927438	62	127
142.08213151927438	142.24467120181407	66	127
142.08213151927438	142.24467120181407	57	127
142.08213151927438	142.24467120181407	62	127
142.24467120181407	142.418820861678	66	127
142.24467120181407	142.418820861678	57	127
142.24467120181407	142.418820861678	62	127
142.418820861678	142.56975056689342	66	127
142.418820861678	142.56975056689342	57	127
142.418820861678	142.56975056689342	62	127
142.56975056689342	142.7322902494331	67	127
142.56975056689342	142.7322902494331	57	127
142.56975056689342	142.7322902494331	61	127
142.56975056689342	142.7322902494331	64	127
142.56975056689342	142.9644671201814	45	127
142.56975056689342	142.9644671201814	33	127
142.7322902494331	142.91802721088436	67	127
142.7322902494331	142.91802721088436	64	127
142.7322902494331	142.91802721088436	57	127
142.7322902494331	142.91802721088436	61	127
142.91802721088436	143.10380952380953	67	127
142.91802721088436	143.10380952380953	57	127
142.91802721088436	143.10380952380953	61	127
142.91802721088436	143.10380952380953	64	127
142.9644671201814	143.10380952380953	45	127
142.9644671201814	143.10380952380953	33	127
143.10380952380953	143.99777777777777	57	127
143.10380952380953	143.301179138322	67	127
143.10380952380953	143.301179138322	57	127
143.10380952380953	143.301179138322	61	127
143.10380952380953	143.301179138322	64	127
143.10380952380953	143.99777777777777	45	127
143.301179138322	143.47530612244898	61	127
143.301179138322	143.47530612244898	64	127
143.301179138322	143.47530612244898	67	127
143.301179138322	143.47530612244898	57	127
143.47530612244898	143.64947845804988	61	127
143.47530612244898	143.64947845804988	67	127
143.47530612244898	143.64947845804988	57	127
143.47530612244898	143.64947845804988	64	127
143.64947845804988	143.8004081632653	67	127
143.64947845804988	143.8004081632653	64	127
143.64947845804988	143.8004081632653	57	127
143.64947845804988	143.8004081632653	61	127
143.8004081632653	143.95133786848072	57	127
143.8004081632653	143.95133786848072	61	127
143.8004081632653	143.95133786848072	64	127
143.8004081632653	143.95133786848072	67	127
143.95133786848072	144.1138775510204	64	127
143.95133786848072	144.1138775510204	67	127
143.95133786848072	144.1138775510204	57	127
143.95133786848072	144.1138775510204	61	127
143.99777777777777	144.1138775510204	33	127
143.99777777777777	144.1138775510204	45	127
144.1138775510204	144.28802721088437	64	127
144.1138775510204	144.28802721088437	67	127
144.1138775510204	144.28802721088437	57	127
144.1138775510204	144.28802721088437	61	127
144.1138775510204	145.0310657596372	57	127
144.1138775510204	145.0310657596372	45	127
144.28802721088437	144.45054421768708	67	127
144.28802721088437	144.45054421768708	57	127
144.28802721088437	144.45054421768708	61	127
144.28802721088437	144.45054421768708	64	127
144.45054421768708	144.63632653061225	67	127
144.45054421768708	144.63632653061225	57	127
144.45054421768708	144.63632653061225	61	127
144.45054421768708	144.63632653061225	64	127
144.63632653061225	144.81047619047618	67	127
144.63632653061225	144.81047619047618	57	127
144.63632653061225	144.81047619047618	61	127
144.63632653061225	144.81047619047618	64	127
144.81047619047618	144.98462585034014	67	127
144.81047619047618	144.98462585034014	57	127
144.81047619047618	144.98462585034014	61	127
144.81047619047618	144.98462585034014	64	127
144.98462585034014	145.1819954648526	64	127
144.98462585034014	145.1819954648526	57	127
144.98462585034014	145.1819954648526	61	127
144.98462585034014	145.1819954648526	67	127
145.0310657596372	145.1819954648526	33	127
145.0310657596372	145.1819954648526	45	127
145.1819954648526	145.63478458049886	45	127
145.1819954648526	145.63478458049886	57	127
145.1819954648526	145.33292517006802	67	127
145.1819954648526	145.33292517006802	57	127
145.1819954648526	145.33292517006802	61	127
145.1819954648526	145.33292517006802	64	127
145.33292517006802	145.4954648526077	67	127
145.33292517006802	145.4954648526077	57	127
145.33292517006802	145.4954648526077	61	127
145.33292517006802	145.4954648526077	64	127
145.4954648526077	145.63478458049886	67	127
145.4954648526077	145.63478458049886	57	127
145.4954648526077	145.63478458049886	61	127
145.4954648526077	145.63478458049886	64	127
145.63478458049886	146.13399092970522	50	127
145.63478458049886	145.80893424036282	57	127
145.63478458049886	145.80893424036282	62	127
145.63478458049886	146.13399092970522	38	127
145.63478458049886	145.80893424036282	66	127
145.80893424036282	145.99469387755101	62	127
145.80893424036282	145.99469387755101	66	127
145.80893424036282	145.99469387755101	57	127
145.99469387755101	146.13399092970522	66	127
145.99469387755101	146.13399092970522	57	127
145.99469387755101	146.13399092970522	62	127
146.13399092970522	146.30816326530612	62	127
146.13399092970522	146.30816326530612	66	127
146.13399092970522	146.30816326530612	57	127
146.30816326530612	146.45909297052154	62	127
146.30816326530612	146.45909297052154	66	127
146.30816326530612	146.45909297052154	57	127
146.45909297052154	146.58680272108845	62	127
146.45909297052154	146.58680272108845	66	127
146.45909297052154	146.58680272108845	57	127
146.58680272108845	147.15566893424037	35	127
146.58680272108845	146.7841723356009	59	127
146.58680272108845	146.7841723356009	62	127
146.58680272108845	146.7841723356009	66	127
146.58680272108845	147.15566893424037	47	127
146.7841723356009	146.98154195011338	62	127
146.7841723356009	146.98154195011338	66	127
146.7841723356009	146.98154195011338	59	127
146.98154195011338	147.15566893424037	66	127
146.98154195011338	147.15566893424037	59	127
146.98154195011338	147.15566893424037	62	127
147.15566893424037	147.32984126984127	62	127
147.15566893424037	147.32984126984127	59	127
147.15566893424037	147.32984126984127	66	127
147.32984126984127	147.52721088435374	62	127
147.32984126984127	147.52721088435374	66	127
147.32984126984127	147.52721088435374	59	127
147.52721088435374	147.71297052154196	62	127
147.52721088435374	147.71297052154196	66	127
147.52721088435374	147.71297052154196	59	127
147.71297052154196	147.8871201814059	62	127
147.71297052154196	148.24702947845805	38	127
147.71297052154196	147.8871201814059	66	127
147.71297052154196	147.8871201814059	59	127
147.71297052154196	148.24702947845805	50	127
147.8871201814059	148.08448979591836	62	127
147.8871201814059	148.08448979591836	66	127
147.8871201814059	148.08448979591836	59	127
148.08448979591836	148.24702947845805	66	127
148.08448979591836	148.24702947845805	59	127
148.08448979591836	148.24702947845805	62	127
148.24702947845805	148.40956916099773	59	127
148.24702947845805	148.40956916099773	66	127
148.24702947845805	148.40956916099773	62	127
148.40956916099773	148.56049886621315	59	127
148.40956916099773	148.56049886621315	66	127
148.40956916099773	148.56049886621315	62	127
148.56049886621315	148.74625850340135	59	127
148.56049886621315	148.74625850340135	66	127
148.56049886621315	148.74625850340135	62	127
148.74625850340135	149.16421768707482	42	127
148.74625850340135	149.16421768707482	54	127
148.74625850340135	148.94362811791385	66	127
148.74625850340135	148.94362811791385	61	127
148.74625850340135	148.94362811791385	64	127
148.94362811791385	149.11777777777777	61	127
148.94362811791385	149.11777777777777	66	127
148.94362811791385	149.11777777777777	64	127
149.11777777777777	149.28031746031746	61	127
149.11777777777777	149.28031746031746	66	127
149.11777777777777	149.28031746031746	64	127
149.16421768707482	149.28031746031746	42	127
149.16421768707482	149.28031746031746	30	127
149.28031746031746	149.44285714285715	66	127
149.28031746031746	149.44285714285715	61	127
149.28031746031746	149.44285714285715	64	127
149.28031746031746	150.18589569160997	54	127
149.28031746031746	150.18589569160997	42	127
149.44285714285715	149.59378684807257	61	127
149.44285714285715	149.59378684807257	64	127
149.44285714285715	149.59378684807257	66	127
149.59378684807257	149.76791383219955	61	127
149.59378684807257	149.76791383219955	64	127
149.59378684807257	149.76791383219955	66	127
149.76791383219955	149.97691609977323	66	127
149.76791383219955	149.97691609977323	61	127
149.76791383219955	149.97691609977323	64	127
149.97691609977323	150.13945578231292	61	127
149.97691609977323	150.13945578231292	66	127
149.97691609977323	150.13945578231292	64	127
150.13945578231292	150.29038548752834	61	127
150.13945578231292	150.29038548752834	66	127
150.13945578231292	150.29038548752834	64	127
150.18589569160997	150.29038548752834	30	127
150.18589569160997	150.29038548752834	42	127
150.29038548752834	151.11469387755102	54	127
150.29038548752834	150.44131519274376	66	127
150.29038548752834	150.44131519274376	61	127
150.29038548752834	150.44131519274376	64	127
150.29038548752834	151.11469387755102	42	127
150.44131519274376	150.59224489795918	64	127
150.44131519274376	150.59224489795918	66	127
150.44131519274376	150.59224489795918	61	127
150.59224489795918	150.7431746031746	64	127
150.59224489795918	150.7431746031746	66	127
150.59224489795918	150.7431746031746	61	127
150.7431746031746	150.90571428571428	66	127
150.7431746031746	150.90571428571428	64	127
150.7431746031746	150.90571428571428	61	127
150.90571428571428	151.07986394557824	64	127
150.90571428571428	151.07986394557824	66	127
150.90571428571428	151.07986394557824	61	127
151.07986394557824	151.2191836734694	66	127
151.07986394557824	151.2191836734694	61	127
151.07986394557824	151.2191836734694	64	127
151.11469387755102	151.2191836734694	42	127
151.11469387755102	151.2191836734694	30	127
151.2191836734694	151.39333333333335	58	127
151.2191836734694	151.6835827664399	42	127
151.2191836734694	151.6835827664399	54	127
151.2191836734694	151.39333333333335	66	127
151.2191836734694	151.39333333333335	64	127
151.39333333333335	151.54426303854876	58	127
151.39333333333335	151.54426303854876	66	127
151.39333333333335	151.54426303854876	64	127
151.54426303854876	151.6835827664399	58	127
151.54426303854876	151.6835827664399	66	127
151.54426303854876	151.6835827664399	64	127
151.6835827664399	152.17120181405895	35	127
151.6835827664399	151.8461224489796	66	127
151.6835827664399	151.8461224489796	59	127
151.6835827664399	151.8461224489796	62	127
151.6835827664399	152.17120181405895	47	127
151.8461224489796	152.0086621315193	59	127
151.8461224489796	152.0086621315193	62	127
151.8461224489796	152.0086621315193	66	127
152.0086621315193	152.17120181405895	59	127
152.0086621315193	152.17120181405895	62	127
152.0086621315193	152.17120181405895	66	127
152.17120181405895	152.3453514739229	59	127
152.17120181405895	152.3453514739229	66	127
152.17120181405895	152.3453514739229	62	127
152.3453514739229	152.51950113378686	62	127
152.3453514739229	152.51950113378686	66	127
152.3453514739229	152.51950113378686	59	127
152.51950113378686	152.70526077097506	59	127
152.51950113378686	152.70526077097506	66	127
152.51950113378686	152.70526077097506	62	127
152.70526077097506	153.2277097505669	38	127
152.70526077097506	152.86780045351475	62	127
152.70526077097506	152.86780045351475	66	127
152.70526077097506	152.86780045351475	59	127
152.70526077097506	153.2277097505669	50	127
152.86780045351475	153.05356009070294	59	127
152.86780045351475	153.05356009070294	62	127
152.86780045351475	153.05356009070294	66	127
153.05356009070294	153.2277097505669	62	127
153.05356009070294	153.2277097505669	66	127
153.05356009070294	153.2277097505669	59	127
153.2277097505669	153.42507936507937	59	127
153.2277097505669	153.42507936507937	66	127
153.2277097505669	153.42507936507937	62	127
153.42507936507937	153.5760090702948	59	127
153.42507936507937	153.5760090702948	66	127
153.42507936507937	153.5760090702948	62	127
153.5760090702948	153.7269387755102	62	127
153.5760090702948	153.7269387755102	66	127
153.5760090702948	153.7269387755102	59	127
153.7269387755102	154.2261678004535	35	127
153.7269387755102	153.87786848072562	59	127
153.7269387755102	153.87786848072562	62	127
153.7269387755102	153.87786848072562	66	127
153.7269387755102	154.2261678004535	47	127
153.87786848072562	154.0404081632653	59	127
153.87786848072562	154.0404081632653	62	127
153.87786848072562	154.0404081632653	66	127
154.0404081632653	154.2261678004535	66	127
154.0404081632653	154.2261678004535	59	127
154.0404081632653	154.2261678004535	62	127
154.2261678004535	154.40031746031747	66	127
154.2261678004535	154.40031746031747	59	127
154.2261678004535	154.40031746031747	62	127
154.40031746031747	154.55124716553289	66	127
154.40031746031747	154.55124716553289	59	127
154.40031746031747	154.55124716553289	62	127
154.55124716553289	154.71378684807257	59	127
154.55124716553289	154.71378684807257	62	127
154.55124716553289	154.71378684807257	66	127
154.71378684807257	155.07369614512473	38	127
154.71378684807257	154.85310657596372	66	127
154.71378684807257	154.85310657596372	57	127
154.71378684807257	154.85310657596372	60	127
154.71378684807257	154.85310657596372	62	127
154.71378684807257	155.07369614512473	50	127
154.85310657596372	155.03886621315192	62	127
154.85310657596372	155.03886621315192	57	127
154.85310657596372	155.03886621315192	66	127
154.85310657596372	155.03886621315192	60	127
155.03886621315192	155.21301587301588	60	127
155.03886621315192	155.21301587301588	57	127
155.03886621315192	155.21301587301588	62	127
155.03886621315192	155.21301587301588	66	127
155.07369614512473	155.21301587301588	26	127
155.07369614512473	155.21301587301588	38	127
155.21301587301588	156.13020408163266	38	127
155.21301587301588	156.13020408163266	50	127
155.21301587301588	155.41038548752834	66	127
155.21301587301588	155.41038548752834	57	127
155.21301587301588	155.41038548752834	60	127
155.21301587301588	155.41038548752834	62	127
155.41038548752834	155.59614512471654	57	127
155.41038548752834	155.59614512471654	60	127
155.41038548752834	155.59614512471654	62	127
155.41038548752834	155.59614512471654	66	127
155.59614512471654	155.75868480725623	57	127
155.59614512471654	155.75868480725623	60	127
155.59614512471654	155.75868480725623	62	127
155.59614512471654	155.75868480725623	66	127
155.75868480725623	155.94444444444446	57	127
155.75868480725623	155.94444444444446	60	127
155.75868480725623	155.94444444444446	62	127
155.75868480725623	155.94444444444446	66	127
155.94444444444446	156.09537414965988	66	127
155.94444444444446	156.09537414965988	57	127
155.94444444444446	156.09537414965988	60	127
155.94444444444446	156.09537414965988	62	127
156.09537414965988	156.23469387755102	57	127
156.09537414965988	156.23469387755102	66	127
156.09537414965988	156.23469387755102	60	127
156.09537414965988	156.23469387755102	62	127
156.13020408163266	156.23469387755102	38	127
156.13020408163266	156.23469387755102	26	127
156.23469387755102	156.408820861678	66	127
156.23469387755102	156.408820861678	57	127
156.23469387755102	156.408820861678	60	127
156.23469387755102	156.408820861678	62	127
156.23469387755102	157.14027210884353	50	127
156.23469387755102	157.14027210884353	38	127
156.408820861678	156.5829931972789	62	127
156.408820861678	156.5829931972789	66	127
156.408820861678	156.5829931972789	57	127
156.408820861678	156.5829931972789	60	127
156.5829931972789	156.76873015873016	60	127
156.5829931972789	156.76873015873016	66	127
156.5829931972789	156.76873015873016	57	127
156.5829931972789	156.76873015873016	62	127
156.76873015873016	156.9312925170068	60	127
156.76873015873016	156.9312925170068	66	127
156.76873015873016	156.9312925170068	57	127
156.76873015873016	156.9312925170068	62	127
156.9312925170068	157.09383219954648	60	127
156.9312925170068	157.09383219954648	66	127
156.9312925170068	157.09383219954648	57	127
156.9312925170068	157.09383219954648	62	127
157.09383219954648	157.26798185941044	60	127
157.09383219954648	157.26798185941044	57	127
157.09383219954648	157.26798185941044	62	127
157.09383219954648	157.26798185941044	66	127
157.14027210884353	157.26798185941044	38	127
157.14027210884353	157.26798185941044	26	127
157.26798185941044	157.7904081632653	50	127
157.26798185941044	157.43049886621316	60	127
157.26798185941044	157.43049886621316	62	127
157.26798185941044	157.43049886621316	66	127
157.26798185941044	157.43049886621316	57	127
157.26798185941044	158.17356009070295	38	127
157.43049886621316	157.61628117913833	66	127
157.43049886621316	157.61628117913833	57	127
157.43049886621316	157.61628117913833	60	127
157.43049886621316	157.61628117913833	62	127
157.61628117913833	157.7904081632653	66	127
157.61628117913833	157.7904081632653	57	127
157.61628117913833	157.7904081632653	60	127
157.61628117913833	157.7904081632653	62	127
157.7904081632653	158.30124716553289	57	127
157.7904081632653	157.92975056689343	57	127
157.7904081632653	157.92975056689343	66	127
157.7904081632653	157.92975056689343	60	127
157.7904081632653	158.30124716553289	66	127
157.92975056689343	158.1271201814059	60	127
157.92975056689343	158.1271201814059	57	127
157.92975056689343	158.1271201814059	66	127
158.1271201814059	158.30124716553289	60	127
158.1271201814059	158.30124716553289	57	127
158.1271201814059	158.30124716553289	66	127
158.17356009070295	158.30124716553289	26	127
158.30124716553289	158.41736961451247	66	127
158.30124716553289	158.41736961451247	57	127
158.30124716553289	158.41736961451247	60	127
158.30124716553289	158.6263492063492	38	127
158.30124716553289	158.81208616780046	84	127
158.41736961451247	158.48702947845806	66	127
158.41736961451247	158.48702947845806	60	127
158.41736961451247	158.48702947845806	57	127
158.48702947845806	158.6263492063492	66	127
158.48702947845806	158.6263492063492	60	127
158.48702947845806	158.6263492063492	57	127
158.6263492063492	158.89337868480726	26	127
158.6263492063492	158.81208616780046	57	127
158.6263492063492	158.81208616780046	66	127
158.6263492063492	158.81208616780046	60	127
158.81208616780046	158.89337868480726	86	127
158.81208616780046	158.9746485260771	66	127
158.81208616780046	158.9746485260771	60	127
158.81208616780046	158.9746485260771	57	127
158.9746485260771	159.07913832199546	88	127
158.9746485260771	159.16040816326532	60	127
158.9746485260771	159.16040816326532	66	127
158.9746485260771	159.16040816326532	57	127
159.16040816326532	159.36938775510205	57	127
159.16040816326532	159.36938775510205	60	127
159.16040816326532	159.26489795918368	86	127
159.16040816326532	159.36938775510205	66	127
159.36938775510205	159.54353741496598	57	127
159.36938775510205	159.45065759637188	84	127
159.36938775510205	159.54353741496598	66	127
159.36938775510205	159.54353741496598	60	127
159.54353741496598	159.62480725623584	83	127
159.54353741496598	159.6712471655329	57	127
159.54353741496598	159.6712471655329	66	127
159.54353741496598	159.6712471655329	60	127
159.6712471655329	159.8221768707483	60	127
159.6712471655329	159.74090702947845	81	127
159.6712471655329	159.90344671201814	38	127
159.6712471655329	159.8221768707483	57	127
159.6712471655329	159.8221768707483	66	127
159.8221768707483	159.99632653061224	66	127
159.8221768707483	159.90344671201814	79	127
159.8221768707483	159.99632653061224	57	127
159.8221768707483	159.99632653061224	60	127
159.99632653061224	160.18208616780046	66	127
159.99632653061224	160.18208616780046	57	127
159.99632653061224	160.18208616780046	60	127
159.99632653061224	160.0891836734694	78	127
160.18208616780046	160.36784580498866	57	127
160.18208616780046	160.27496598639456	76	127
160.18208616780046	160.36784580498866	66	127
160.18208616780046	160.36784580498866	60	127
160.36784580498866	160.53038548752835	60	127
160.36784580498866	160.44909297052155	74	127
160.36784580498866	160.53038548752835	57	127
160.36784580498866	160.53038548752835	66	127
160.53038548752835	160.6697052154195	66	127
160.53038548752835	160.62326530612245	72	127
160.53038548752835	160.6697052154195	57	127
160.53038548752835	160.6697052154195	60	127
160.6697052154195	161.22698412698412	70	127
160.6697052154195	161.08766439909297	43	127
160.6697052154195	160.85544217687075	63	127
160.6697052154195	160.85544217687075	60	127
160.6697052154195	160.85544217687075	60	127
160.85544217687075	161.02961451247165	60	127
160.85544217687075	161.02961451247165	63	127
160.85544217687075	161.02961451247165	60	127
161.02961451247165	161.22698412698412	60	127
161.02961451247165	161.22698412698412	63	127
161.02961451247165	161.22698412698412	60	127
161.08766439909297	161.22698412698412	31	127
161.22698412698412	161.40113378684808	63	127
161.22698412698412	161.40113378684808	60	127
161.22698412698412	161.40113378684808	60	127
161.22698412698412	161.7378231292517	69	127
161.22698412698412	161.7378231292517	43	127
161.40113378684808	161.57526077097506	63	127
161.40113378684808	161.57526077097506	60	127
161.40113378684808	161.57526077097506	60	127
161.57526077097506	161.7378231292517	60	127
161.57526077097506	161.7378231292517	63	127
161.57526077097506	161.7378231292517	60	127
161.7378231292517	162.0280725623583	31	127
161.7378231292517	161.93519274376416	63	127
161.7378231292517	161.93519274376416	60	127
161.7378231292517	161.93519274376416	57	127
161.93519274376416	162.08609977324264	60	127
161.93519274376416	162.08609977324264	57	127
161.93519274376416	162.08609977324264	63	127
162.08609977324264	162.26027210884354	63	127
162.08609977324264	162.26027210884354	57	127
162.08609977324264	162.26027210884354	60	127
162.13256235827666	162.26027210884354	63	127
162.26027210884354	163.1542403628118	75	127
162.26027210884354	162.4344217687075	63	127
162.26027210884354	162.4344217687075	60	127
162.26027210884354	162.4344217687075	57	127
162.4344217687075	162.5969387755102	60	127
162.4344217687075	162.5969387755102	57	127
162.4344217687075	162.5969387755102	63	127
162.5969387755102	162.7711111111111	63	127
162.5969387755102	162.7711111111111	57	127
162.5969387755102	162.7711111111111	60	127
162.7711111111111	162.94526077097507	60	127
162.7711111111111	163.03814058956917	43	127
162.7711111111111	162.94526077097507	57	127
162.7711111111111	162.94526077097507	63	127
162.94526077097507	163.10777777777778	60	127
162.94526077097507	163.10777777777778	63	127
162.94526077097507	163.10777777777778	57	127
163.10777777777778	163.28195011337868	63	127
163.10777777777778	163.28195011337868	60	127
163.10777777777778	163.28195011337868	57	127
163.1542403628118	163.28195011337868	63	127
163.28195011337868	163.4096598639456	63	127
163.28195011337868	163.4096598639456	57	127
163.28195011337868	163.76954648526078	75	127
163.28195011337868	163.4096598639456	60	127
163.4096598639456	163.58380952380952	63	127
163.4096598639456	163.58380952380952	57	127
163.4096598639456	163.58380952380952	60	127
163.58380952380952	163.76954648526078	57	127
163.58380952380952	163.76954648526078	63	127
163.58380952380952	163.76954648526078	60	127
163.76954648526078	164.16430839002268	42	127
163.76954648526078	163.95532879818595	60	127
163.76954648526078	163.95532879818595	62	127
163.76954648526078	163.95532879818595	60	127
163.76954648526078	164.03659863945578	74	127
163.95532879818595	164.11786848072563	60	127
163.95532879818595	164.11786848072563	62	127
163.95532879818595	164.11786848072563	60	127
164.11786848072563	164.30362811791383	60	127
164.11786848072563	164.30362811791383	60	127
164.11786848072563	164.30362811791383	62	127
164.16430839002268	164.30362811791383	30	127
164.30362811791383	164.8144671201814	42	127
164.30362811791383	164.4777777777778	60	127
164.30362811791383	164.4777777777778	62	127
164.30362811791383	164.4777777777778	60	127
164.30362811791383	164.98861678004536	84	127
164.4777777777778	164.65192743764172	62	127
164.4777777777778	164.65192743764172	60	127
164.4777777777778	164.65192743764172	60	127
164.65192743764172	164.8144671201814	60	127
164.65192743764172	164.8144671201814	60	127
164.65192743764172	164.8144671201814	62	127
164.8144671201814	164.98861678004536	62	127
164.8144671201814	164.98861678004536	60	127
164.8144671201814	164.98861678004536	57	127
164.8144671201814	165.08149659863946	30	127
164.98861678004536	165.17437641723356	60	127
164.98861678004536	165.17437641723356	57	127
164.98861678004536	165.17437641723356	62	127
164.98861678004536	165.08149659863946	86	127
165.17437641723356	165.32530612244898	62	127
165.17437641723356	165.32530612244898	60	127
165.17437641723356	165.32530612244898	57	127
165.17437641723356	165.23242630385488	87	127
165.32530612244898	165.4762358276644	62	127
165.32530612244898	165.39496598639457	86	127
165.32530612244898	165.4762358276644	60	127
165.32530612244898	165.4762358276644	57	127
165.4762358276644	165.61555555555555	62	127
165.4762358276644	165.55750566893425	84	127
165.4762358276644	165.61555555555555	60	127
165.4762358276644	165.61555555555555	57	127
165.61555555555555	165.75487528344672	57	127
165.61555555555555	165.68521541950113	82	127
165.61555555555555	165.75487528344672	60	127
165.61555555555555	165.75487528344672	62	127
165.75487528344672	165.92902494331065	60	127
165.75487528344672	166.0218820861678	42	127
165.75487528344672	165.84775510204082	81	127
165.75487528344672	165.92902494331065	62	127
165.75487528344672	165.92902494331065	57	127
165.92902494331065	166.11478458049888	62	127
165.92902494331065	166.0218820861678	79	127
165.92902494331065	166.11478458049888	60	127
165.92902494331065	166.11478458049888	57	127
166.11478458049888	166.2773015873016	62	127
166.11478458049888	166.2773015873016	60	127
166.11478458049888	166.2773015873016	57	127
166.11478458049888	166.1960544217687	78	127
166.2773015873016	166.43986394557822	62	127
166.2773015873016	166.37020408163266	75	127
166.2773015873016	166.43986394557822	60	127
166.2773015873016	166.43986394557822	57	127
166.43986394557822	166.61401360544218	62	127
166.43986394557822	166.52113378684808	74	127
166.43986394557822	166.61401360544218	60	127
166.43986394557822	166.61401360544218	57	127
166.61401360544218	166.6836507936508	72	127
166.61401360544218	166.78814058956917	60	127
166.61401360544218	166.78814058956917	62	127
166.61401360544218	166.78814058956917	57	127
166.78814058956917	167.12485260770976	43	127
166.78814058956917	167.25256235827663	70	127
166.78814058956917	166.96231292517007	63	127
166.78814058956917	166.96231292517007	60	127
166.78814058956917	166.96231292517007	60	127
166.96231292517007	167.0784126984127	60	127
166.96231292517007	167.0784126984127	63	127
166.96231292517007	167.0784126984127	60	127
167.0784126984127	167.25256235827663	63	127
167.0784126984127	167.25256235827663	60	127
167.0784126984127	167.25256235827663	60	127
167.12485260770976	167.25256235827663	31	127
167.25256235827663	167.71696145124716	69	127
167.25256235827663	167.41510204081632	63	127
167.25256235827663	167.41510204081632	60	127
167.25256235827663	167.41510204081632	60	127
167.25256235827663	167.71696145124716	43	127
167.41510204081632	167.56603174603174	60	127
167.41510204081632	167.56603174603174	60	127
167.41510204081632	167.56603174603174	63	127
167.56603174603174	167.71696145124716	63	127
167.56603174603174	167.71696145124716	60	127
167.56603174603174	167.71696145124716	60	127
167.71696145124716	167.91430839002268	63	127
167.71696145124716	167.99560090702948	31	127
167.71696145124716	167.91430839002268	57	127
167.71696145124716	167.91430839002268	60	127
167.91430839002268	168.08848072562358	63	127
167.91430839002268	168.08848072562358	60	127
167.91430839002268	168.08848072562358	57	127
168.08848072562358	168.26263038548754	57	127
168.08848072562358	168.26263038548754	63	127
168.08848072562358	168.26263038548754	60	127
168.13492063492063	168.26263038548754	63	127
168.26263038548754	168.46	60	127
168.26263038548754	168.46	63	127
168.26263038548754	168.46	57	127
168.26263038548754	169.17981859410432	75	127
168.46	168.61092970521543	63	127
168.46	168.61092970521543	60	127
168.46	168.61092970521543	57	127
168.61092970521543	168.7734693877551	57	127
168.61092970521543	168.7734693877551	63	127
168.61092970521543	168.7734693877551	60	127
168.7734693877551	168.94761904761904	57	127
168.7734693877551	168.94761904761904	60	127
168.7734693877551	169.04049886621314	43	127
168.7734693877551	168.94761904761904	63	127
168.94761904761904	169.13337868480727	63	127
168.94761904761904	169.13337868480727	57	127
168.94761904761904	169.13337868480727	60	127
169.13337868480727	169.3075283446712	63	127
169.13337868480727	169.3075283446712	60	127
169.13337868480727	169.3075283446712	57	127
169.17981859410432	169.3075283446712	63	127
169.3075283446712	169.47006802721089	63	127
169.3075283446712	169.79514739229026	75	127
169.3075283446712	169.47006802721089	57	127
169.3075283446712	169.47006802721089	60	127
169.47006802721089	169.6209977324263	63	127
169.47006802721089	169.6209977324263	60	127
169.47006802721089	169.6209977324263	57	127
169.6209977324263	169.79514739229026	57	127
169.6209977324263	169.79514739229026	63	127
169.6209977324263	169.79514739229026	60	127
169.79514739229026	169.98090702947846	60	127
169.79514739229026	170.20149659863947	42	127
169.79514739229026	170.06215419501135	74	127
169.79514739229026	169.98090702947846	60	127
169.79514739229026	169.98090702947846	62	127
169.98090702947846	170.15505668934242	60	127
169.98090702947846	170.15505668934242	60	127
169.98090702947846	170.15505668934242	62	127
170.15505668934242	170.34081632653061	60	127
170.15505668934242	170.34081632653061	62	127
170.15505668934242	170.34081632653061	60	127
170.20149659863947	170.34081632653061	30	127
170.34081632653061	170.8516553287982	42	127
170.34081632653061	171.01419501133788	84	127
170.34081632653061	170.54979591836735	62	127
170.34081632653061	170.54979591836735	60	127
170.34081632653061	170.54979591836735	60	127
170.54979591836735	170.72392290249434	60	127
170.54979591836735	170.72392290249434	60	127
170.54979591836735	170.72392290249434	62	127
170.72392290249434	170.8516553287982	62	127
170.72392290249434	170.8516553287982	60	127
170.72392290249434	170.8516553287982	60	127
170.8516553287982	171.01419501133788	62	127
170.8516553287982	171.01419501133788	60	127
170.8516553287982	171.01419501133788	57	127
170.8516553287982	171.0954648526077	30	127
171.01419501133788	171.1651247165533	60	127
171.01419501133788	171.0954648526077	86	127
171.01419501133788	171.1651247165533	62	127
171.01419501133788	171.1651247165533	57	127
171.1651247165533	171.3160544217687	62	127
171.1651247165533	171.3160544217687	57	127
171.1651247165533	171.24639455782312	87	127
171.1651247165533	171.3160544217687	60	127
171.3160544217687	171.37410430839003	86	127
171.3160544217687	171.46698412698413	60	127
171.3160544217687	171.46698412698413	62	127
171.3160544217687	171.46698412698413	57	127
171.46698412698413	171.64111111111112	62	127
171.46698412698413	171.64111111111112	57	127
171.46698412698413	171.55986394557823	84	127
171.46698412698413	171.64111111111112	60	127
171.64111111111112	171.81528344671202	57	127
171.64111111111112	171.72240362811792	82	127
171.64111111111112	171.81528344671202	60	127
171.64111111111112	171.81528344671202	62	127
171.81528344671202	171.9778231292517	60	127
171.81528344671202	171.9778231292517	57	127
171.81528344671202	171.8965306122449	81	127
171.81528344671202	171.9778231292517	62	127
171.81528344671202	172.0707029478458	42	127
171.9778231292517	172.0707029478458	79	127
171.9778231292517	172.1519501133787	60	127
171.9778231292517	172.1519501133787	62	127
171.9778231292517	172.1519501133787	57	127
172.1519501133787	172.30290249433108	62	127
172.1519501133787	172.30290249433108	57	127
172.1519501133787	172.24485260770976	78	127
172.1519501133787	172.30290249433108	60	127
172.30290249433108	172.477052154195	60	127
172.30290249433108	172.477052154195	57	127
172.30290249433108	172.3841723356009	75	127
172.30290249433108	172.477052154195	62	127
172.477052154195	172.66281179138323	57	127
172.477052154195	172.58154195011338	74	127
172.477052154195	172.66281179138323	60	127
172.477052154195	172.66281179138323	62	127
172.66281179138323	172.871768707483	62	127
172.66281179138323	172.871768707483	57	127
172.66281179138323	172.75569160997733	72	127
172.66281179138323	172.871768707483	60	127
172.871768707483	173.4290702947846	70	127
172.871768707483	173.0459410430839	60	127
172.871768707483	173.0459410430839	62	127
172.871768707483	173.0459410430839	54	127
172.871768707483	173.28975056689342	38	127
173.0459410430839	173.22009070294786	62	127
173.0459410430839	173.22009070294786	54	127
173.0459410430839	173.22009070294786	60	127
173.22009070294786	173.4290702947846	62	127
173.22009070294786	173.4290702947846	54	127
173.22009070294786	173.4290702947846	60	127
173.28975056689342	173.4290702947846	26	127
173.4290702947846	173.98634920634922	69	127
173.4290702947846	174.3578684807256	38	127
173.4290702947846	173.60321995464852	60	127
173.4290702947846	173.60321995464852	62	127
173.4290702947846	173.60321995464852	54	127
173.60321995464852	173.77736961451248	62	127
173.60321995464852	173.77736961451248	54	127
173.60321995464852	173.77736961451248	60	127
173.77736961451248	173.98634920634922	54	127
173.77736961451248	173.98634920634922	60	127
173.77736961451248	173.98634920634922	62	127
173.98634920634922	174.16049886621315	60	127
173.98634920634922	174.16049886621315	62	127
173.98634920634922	174.16049886621315	57	127
174.16049886621315	174.32303854875283	57	127
174.16049886621315	174.32303854875283	62	127
174.16049886621315	174.32303854875283	60	127
174.32303854875283	174.4971882086168	57	127
174.32303854875283	174.4971882086168	62	127
174.32303854875283	174.4971882086168	60	127
174.3578684807256	174.4971882086168	26	127
174.4971882086168	174.67133786848072	62	127
174.4971882086168	175.41437641723357	38	127
174.4971882086168	174.67133786848072	60	127
174.4971882086168	174.67133786848072	57	127
174.67133786848072	174.85709750566895	62	127
174.67133786848072	174.85709750566895	60	127
174.67133786848072	174.85709750566895	57	127
174.85709750566895	175.04285714285714	62	127
174.85709750566895	175.04285714285714	60	127
174.85709750566895	175.04285714285714	57	127
175.04285714285714	175.565306122449	70	127
175.04285714285714	175.20539682539683	60	127
175.04285714285714	175.20539682539683	62	127
175.04285714285714	175.20539682539683	54	127
175.20539682539683	175.37954648526076	62	127
175.20539682539683	175.37954648526076	60	127
175.20539682539683	175.37954648526076	54	127
175.37954648526076	175.565306122449	62	127
175.37954648526076	175.565306122449	60	127
175.37954648526076	175.565306122449	54	127
175.41437641723357	175.565306122449	26	127
175.565306122449	175.72784580498868	62	127
175.565306122449	175.72784580498868	60	127
175.565306122449	176.48249433106577	38	127
175.565306122449	175.72784580498868	54	127
175.565306122449	176.0645351473923	69	127
175.72784580498868	175.9019954648526	60	127
175.72784580498868	175.9019954648526	62	127
175.72784580498868	175.9019954648526	54	127
175.9019954648526	176.0645351473923	60	127
175.9019954648526	176.0645351473923	54	127
175.9019954648526	176.0645351473923	62	127
176.0645351473923	176.26190476190476	57	127
176.0645351473923	176.26190476190476	60	127
176.0645351473923	176.26190476190476	62	127
176.26190476190476	176.43605442176872	62	127
176.26190476190476	176.43605442176872	60	127
176.26190476190476	176.43605442176872	57	127
176.43605442176872	176.61020408163265	60	127
176.43605442176872	176.61020408163265	62	127
176.43605442176872	176.61020408163265	57	127
176.48249433106577	176.61020408163265	26	127
176.61020408163265	176.7843537414966	60	127
176.61020408163265	176.7843537414966	57	127
176.61020408163265	176.7843537414966	62	127
176.61020408163265	177.4461224489796	38	127
176.7843537414966	176.92367346938775	62	127
176.7843537414966	176.92367346938775	60	127
176.7843537414966	176.92367346938775	57	127
176.92367346938775	177.06297052154196	62	127
176.92367346938775	177.06297052154196	60	127
176.92367346938775	177.06297052154196	57	127
177.06297052154196	177.56222222222223	70	127
177.06297052154196	177.2255328798186	60	127
177.06297052154196	177.2255328798186	62	127
177.06297052154196	177.2255328798186	54	127
177.2255328798186	177.39968253968254	62	127
177.2255328798186	177.39968253968254	60	127
177.2255328798186	177.39968253968254	54	127
177.39968253968254	177.56222222222223	62	127
177.39968253968254	177.56222222222223	54	127
177.39968253968254	177.56222222222223	60	127
177.4461224489796	177.56222222222223	26	127
177.56222222222223	178.11950113378686	69	127
177.56222222222223	178.52585034013606	38	127
177.56222222222223	177.73637188208616	60	127
177.56222222222223	177.73637188208616	62	127
177.56222222222223	177.73637188208616	54	127
177.73637188208616	177.9221315192744	54	127
177.73637188208616	177.9221315192744	60	127
177.73637188208616	177.9221315192744	62	127
177.9221315192744	178.11950113378686	60	127
177.9221315192744	178.11950113378686	62	127
177.9221315192744	178.11950113378686	54	127
178.11950113378686	178.31687074829932	60	127
178.11950113378686	178.31687074829932	62	127
178.11950113378686	178.31687074829932	57	127
178.31687074829932	178.479410430839	62	127
178.31687074829932	178.479410430839	57	127
178.31687074829932	178.479410430839	60	127
178.479410430839	178.65356009070294	57	127
178.479410430839	178.65356009070294	62	127
178.479410430839	178.65356009070294	60	127
178.52585034013606	178.65356009070294	26	127
178.65356009070294	178.86253968253968	62	127
178.65356009070294	179.7100680272109	38	127
178.65356009070294	178.86253968253968	60	127
178.65356009070294	178.86253968253968	57	127
178.86253968253968	179.03668934240363	62	127
178.86253968253968	179.03668934240363	60	127
178.86253968253968	179.03668934240363	57	127
179.03668934240363	179.2340589569161	62	127
179.03668934240363	179.2340589569161	60	127
179.03668934240363	179.2340589569161	57	127
179.2340589569161	179.43142857142857	57	127
179.2340589569161	179.43142857142857	60	127
179.2340589569161	179.43142857142857	50	127
179.43142857142857	179.66362811791385	57	127
179.43142857142857	179.66362811791385	60	127
179.43142857142857	179.66362811791385	50	127
179.66362811791385	179.83777777777777	57	127
179.66362811791385	179.83777777777777	50	127
179.66362811791385	179.83777777777777	60	127
179.7100680272109	179.83777777777777	26	127
179.83777777777777	180.03514739229024	50	127
179.83777777777777	180.685306122449	38	127
179.83777777777777	180.03514739229024	60	127
179.83777777777777	180.03514739229024	57	127
180.03514739229024	180.16285714285715	57	127
180.03514739229024	180.16285714285715	60	127
180.03514739229024	180.16285714285715	50	127
180.16285714285715	180.3021768707483	60	127
180.16285714285715	180.3021768707483	57	127
180.16285714285715	180.3021768707483	50	127
180.3021768707483	180.47632653061225	59	127
180.3021768707483	180.47632653061225	55	127
180.3021768707483	180.47632653061225	50	127
180.47632653061225	180.63884353741497	50	127
180.47632653061225	180.63884353741497	55	127
180.47632653061225	180.63884353741497	59	127
180.63884353741497	180.81301587301587	50	127
180.63884353741497	180.81301587301587	55	127
180.63884353741497	180.81301587301587	59	127
180.685306122449	180.81301587301587	26	127
180.81301587301587	180.98716553287983	55	127
180.81301587301587	181.7650113378685	38	127
180.81301587301587	180.98716553287983	59	127
180.81301587301587	180.98716553287983	50	127
180.98716553287983	181.14968253968254	50	127
180.98716553287983	181.14968253968254	59	127
180.98716553287983	181.14968253968254	55	127
181.14968253968254	181.3354648526077	59	127
181.14968253968254	181.3354648526077	50	127
181.14968253968254	181.3354648526077	55	127
181.3354648526077	181.4980045351474	54	127
181.3354648526077	181.4980045351474	57	127
181.3354648526077	181.4980045351474	50	127
181.4980045351474	181.70698412698414	57	127
181.4980045351474	181.70698412698414	54	127
181.4980045351474	181.70698412698414	50	127
181.70698412698414	181.9159410430839	57	127
181.70698412698414	181.9159410430839	54	127
181.70698412698414	181.9159410430839	50	127
181.7650113378685	181.9159410430839	26	127
181.9159410430839	182.13655328798185	57	127
181.9159410430839	182.13655328798185	50	127
181.9159410430839	182.13655328798185	54	127
181.9159410430839	182.91442176870748	38	127
182.13655328798185	182.3107029478458	50	127
182.13655328798185	182.3107029478458	57	127
182.13655328798185	182.3107029478458	54	127
182.3107029478458	182.50807256235828	57	127
182.3107029478458	182.50807256235828	50	127
182.3107029478458	182.50807256235828	54	127
182.50807256235828	182.69383219954648	50	127
182.50807256235828	182.69383219954648	55	127
182.50807256235828	182.69383219954648	52	127
182.69383219954648	182.86798185941043	55	127
182.69383219954648	182.86798185941043	50	127
182.69383219954648	182.86798185941043	52	127
182.86798185941043	183.05374149659863	52	127
182.86798185941043	183.05374149659863	55	127
182.86798185941043	183.05374149659863	50	127
182.91442176870748	183.05374149659863	26	127
183.05374149659863	183.2278911564626	52	127
183.05374149659863	183.2278911564626	50	127
183.05374149659863	183.98253968253968	38	127
183.05374149659863	183.2278911564626	55	127
183.2278911564626	183.4136507936508	50	127
183.2278911564626	183.4136507936508	55	127
183.2278911564626	183.4136507936508	52	127
183.4136507936508	183.58780045351475	55	127
183.4136507936508	183.58780045351475	50	127
183.4136507936508	183.58780045351475	52	127
183.58780045351475	183.76192743764173	55	127
183.58780045351475	183.76192743764173	50	127
183.58780045351475	183.76192743764173	50	127
183.76192743764173	183.93609977324263	55	127
183.76192743764173	183.93609977324263	50	127
183.76192743764173	183.93609977324263	50	127
183.93609977324263	184.1334693877551	55	127
183.93609977324263	184.1334693877551	50	127
183.93609977324263	184.1334693877551	50	127
183.98253968253968	184.1334693877551	26	127
184.1334693877551	184.31920634920635	50	127
184.1334693877551	184.31920634920635	55	127
184.1334693877551	184.31920634920635	50	127
184.1334693877551	185.18995464852608	38	127
184.31920634920635	184.5398185941043	55	127
184.31920634920635	184.5398185941043	50	127
184.31920634920635	184.5398185941043	50	127
184.5398185941043	184.71396825396826	55	127
184.5398185941043	184.71396825396826	50	127
184.5398185941043	184.71396825396826	50	127
184.71396825396826	184.89972789115646	60	127
184.71396825396826	184.89972789115646	50	127
184.71396825396826	184.89972789115646	54	127
184.89972789115646	185.15514739229025	60	127
184.89972789115646	185.15514739229025	50	127
184.89972789115646	185.15514739229025	54	127
185.15514739229025	185.3292970521542	60	127
185.15514739229025	185.3292970521542	54	127
185.15514739229025	185.3292970521542	50	127
185.18995464852608	185.3292970521542	26	127
185.3292970521542	185.8633560090703	38	127
185.3292970521542	185.50344671201813	60	127
185.3292970521542	185.50344671201813	54	127
185.3292970521542	185.50344671201813	50	127
185.50344671201813	185.68920634920636	60	127
185.50344671201813	185.68920634920636	54	127
185.50344671201813	185.68920634920636	50	127
185.68920634920636	185.8633560090703	60	127
185.68920634920636	185.8633560090703	50	127
185.68920634920636	185.8633560090703	54	127
185.8633560090703	186.0491156462585	59	127
185.8633560090703	186.0491156462585	55	127
185.8633560090703	186.0491156462585	50	127
185.8633560090703	186.0491156462585	31	127
186.2697052154195	186.3974149659864	50	127
186.2697052154195	186.3974149659864	31	127
186.2697052154195	186.3974149659864	59	127
186.2697052154195	186.3974149659864	55	127
186.3974149659864	186.54834467120182	55	127
186.3974149659864	186.54834467120182	31	127
186.3974149659864	186.54834467120182	59	127
186.3974149659864	186.54834467120182	50	127
186.9895238095238	187.2797732426304	55	127
186.9895238095238	187.2797732426304	31	127
186.9895238095238	187.2797732426304	59	127
186.9895238095238	187.2797732426304	50	127
187.50036281179138	187.62807256235828	50	127
187.50036281179138	187.62807256235828	59	127
187.50036281179138	187.62807256235828	55	127
187.50036281179138	187.62807256235828	31	127
187.62807256235828	187.7790022675737	50	127
187.62807256235828	187.7790022675737	31	127
187.62807256235828	187.7790022675737	59	127
187.62807256235828	187.7790022675737	55	127
188.2201814058957	188.4407709750567	55	127
188.2201814058957	188.4407709750567	31	127
188.2201814058957	188.4407709750567	59	127
188.2201814058957	188.4407709750567	50	127
188.64975056689343	188.7774603174603	59	127
188.64975056689343	188.7774603174603	55	127
188.64975056689343	188.7774603174603	50	127
188.64975056689343	188.7774603174603	31	127
188.7774603174603	188.90517006802722	50	127
188.7774603174603	188.90517006802722	31	127
188.7774603174603	188.90517006802722	55	127
188.7774603174603	188.90517006802722	59	127
189.3231292517007	189.53208616780046	50	127
189.3231292517007	189.53208616780046	31	127
189.3231292517007	189.53208616780046	62	127
189.3231292517007	189.53208616780046	60	127
189.3231292517007	189.53208616780046	54	127
189.7526984126984	189.88040816326532	54	127
189.7526984126984	189.88040816326532	31	127
189.7526984126984	189.88040816326532	62	127
189.7526984126984	189.88040816326532	60	127
189.7526984126984	189.88040816326532	50	127
189.88040816326532	190.042947845805	54	127
189.88040816326532	190.042947845805	31	127
189.88040816326532	190.042947845805	62	127
189.88040816326532	190.042947845805	60	127
189.88040816326532	190.042947845805	50	127
190.47251700680272	190.7279365079365	50	127
190.47251700680272	190.7279365079365	62	127
190.47251700680272	190.7279365079365	60	127
190.47251700680272	190.7279365079365	54	127
190.47251700680272	190.7279365079365	31	127
190.90208616780046	191.02979591836734	50	127
190.90208616780046	191.02979591836734	31	127
190.90208616780046	191.02979591836734	62	127
190.90208616780046	191.02979591836734	60	127
190.90208616780046	191.02979591836734	54	127
191.02979591836734	191.19233560090703	54	127
191.02979591836734	191.19233560090703	31	127
191.02979591836734	191.19233560090703	62	127
191.02979591836734	191.19233560090703	60	127
191.02979591836734	191.19233560090703	50	127
191.62190476190477	191.81927437641724	57	127
191.62190476190477	191.81927437641724	31	127
191.62190476190477	191.81927437641724	60	127
191.62190476190477	191.81927437641724	66	127
191.62190476190477	191.81927437641724	50	127
191.99342403628117	192.1095238095238	66	127
191.99342403628117	192.1095238095238	31	127
191.99342403628117	192.1095238095238	57	127
191.99342403628117	192.1095238095238	50	127
191.99342403628117	192.1095238095238	60	127
192.1095238095238	192.24884353741496	60	127
192.1095238095238	192.24884353741496	66	127
192.1095238095238	192.24884353741496	57	127
192.1095238095238	192.24884353741496	31	127
192.1095238095238	192.31850340136054	48	127
192.53909297052155	192.73646258503402	50	127
192.73646258503402	192.957052154195	31	127
192.73646258503402	192.957052154195	59	127
192.73646258503402	193.75814058956917	59	127
192.73646258503402	193.75814058956917	67	127
192.73646258503402	192.957052154195	50	127
192.73646258503402	192.957052154195	55	127
193.177641723356	193.32857142857142	55	127
193.177641723356	193.32857142857142	31	127
193.177641723356	193.32857142857142	50	127
193.177641723356	193.32857142857142	59	127
193.32857142857142	193.47950113378684	31	127
193.32857142857142	193.47950113378684	55	127
193.32857142857142	193.47950113378684	59	127
193.32857142857142	193.47950113378684	50	127
193.75814058956917	193.89746031746031	71	127
193.89746031746031	194.10643990929705	59	127
193.89746031746031	194.10643990929705	50	127
193.89746031746031	194.10643990929705	55	127
193.89746031746031	194.10643990929705	31	127
193.89746031746031	194.83786848072563	74	127
194.30380952380952	194.44312925170067	59	127
194.30380952380952	194.44312925170067	55	127
194.30380952380952	194.44312925170067	31	127
194.30380952380952	194.44312925170067	50	127
194.44312925170067	194.57083900226758	59	127
194.44312925170067	194.57083900226758	55	127
194.44312925170067	194.57083900226758	31	127
194.44312925170067	194.57083900226758	50	127
194.83786848072563	194.95396825396824	74	127
194.95396825396824	195.15133786848074	59	127
194.95396825396824	195.15133786848074	55	127
194.95396825396824	195.15133786848074	31	127
194.95396825396824	195.85954648526078	79	127
194.95396825396824	195.15133786848074	50	127
195.3487074829932	195.48802721088435	31	127
195.3487074829932	195.48802721088435	50	127
195.3487074829932	195.48802721088435	59	127
195.3487074829932	195.48802721088435	55	127
195.48802721088435	195.61573696145123	31	127
195.48802721088435	195.61573696145123	59	127
195.48802721088435	195.61573696145123	50	127
195.48802721088435	195.61573696145123	55	127
195.85954648526078	195.99886621315193	83	127
195.99886621315193	196.1962358276644	54	127
195.99886621315193	196.1962358276644	31	127
195.99886621315193	196.1962358276644	50	127
195.99886621315193	196.1962358276644	60	127
195.99886621315193	196.97410430839003	84	127
196.39360544217686	196.53292517006804	60	127
196.39360544217686	196.53292517006804	54	127
196.39360544217686	196.53292517006804	31	127
196.39360544217686	196.53292517006804	50	127
196.53292517006804	196.68385487528346	54	127
196.53292517006804	196.68385487528346	50	127
196.53292517006804	196.68385487528346	60	127
196.53292517006804	196.68385487528346	31	127
196.97410430839003	197.1018140589569	78	127
197.1018140589569	197.3224036281179	54	127
197.1018140589569	197.3224036281179	31	127
197.1018140589569	197.3224036281179	60	127
197.1018140589569	198.077052154195	81	127
197.1018140589569	197.3224036281179	50	127
197.54299319727892	197.6707029478458	60	127
197.54299319727892	197.6707029478458	54	127
197.54299319727892	197.6707029478458	31	127
197.54299319727892	197.6707029478458	50	127
197.6707029478458	197.81002267573697	31	127
197.6707029478458	197.81002267573697	60	127
197.6707029478458	197.81002267573697	54	127
197.6707029478458	197.81002267573697	50	127
198.077052154195	198.2047619047619	69	127
198.2047619047619	198.4601814058957	66	127
198.2047619047619	198.4601814058957	57	127
198.2047619047619	199.23804988662133	72	127
198.2047619047619	198.4601814058957	51	127
198.2047619047619	198.4601814058957	31	127
198.7039909297052	198.83170068027212	51	127
198.7039909297052	198.83170068027212	31	127
198.7039909297052	198.83170068027212	57	127
198.7039909297052	198.83170068027212	66	127
198.83170068027212	198.98263038548754	66	127
198.83170068027212	198.98263038548754	57	127
198.83170068027212	198.98263038548754	31	127
198.83170068027212	199.04068027210883	48	127
199.23804988662133	199.29609977324262	74	127
199.23804988662133	199.3657596371882	51	127
199.29609977324262	199.3657596371882	72	127
199.3657596371882	199.621179138322	59	127
199.3657596371882	199.621179138322	50	127
199.3657596371882	199.621179138322	55	127
199.3657596371882	199.621179138322	31	127
199.3657596371882	200.4106575963719	71	127
199.81854875283446	199.95786848072564	59	127
199.81854875283446	199.95786848072564	55	127
199.81854875283446	199.95786848072564	31	127
199.81854875283446	199.95786848072564	50	127
199.95786848072564	200.13201814058957	59	127
199.95786848072564	200.13201814058957	55	127
199.95786848072564	200.13201814058957	31	127
199.95786848072564	200.13201814058957	50	127
200.4106575963719	200.53836734693877	71	127
200.53836734693877	200.77056689342405	59	127
200.53836734693877	200.77056689342405	55	127
200.53836734693877	200.77056689342405	31	127
200.53836734693877	201.52521541950114	74	127
200.53836734693877	200.77056689342405	50	127
200.99115646258502	201.11886621315193	31	127
200.99115646258502	201.11886621315193	50	127
200.99115646258502	201.11886621315193	59	127
200.99115646258502	201.11886621315193	55	127
201.11886621315193	201.25818594104308	55	127
201.11886621315193	201.25818594104308	50	127
201.11886621315193	201.25818594104308	59	127
201.11886621315193	201.25818594104308	31	127
201.52521541950114	201.65292517006802	74	127
201.65292517006802	201.8851247165533	54	127
201.65292517006802	201.8851247165533	31	127
201.65292517006802	201.8851247165533	60	127
201.65292517006802	202.63977324263038	75	127
201.65292517006802	201.8851247165533	51	127
202.1057142857143	202.24503401360545	60	127
202.1057142857143	202.24503401360545	54	127
202.1057142857143	202.24503401360545	31	127
202.1057142857143	202.24503401360545	51	127
202.24503401360545	202.37274376417233	51	127
202.24503401360545	202.37274376417233	60	127
202.24503401360545	202.37274376417233	54	127
202.24503401360545	202.37274376417233	31	127
202.63977324263038	202.77909297052153	66	127
202.77909297052153	202.98807256235827	55	127
202.77909297052153	202.98807256235827	31	127
202.77909297052153	202.98807256235827	50	127
202.77909297052153	203.77755102040817	67	127
202.77909297052153	202.98807256235827	59	127
203.197052154195	203.34798185941042	50	127
203.197052154195	203.34798185941042	59	127
203.197052154195	203.34798185941042	55	127
203.197052154195	203.34798185941042	31	127
203.34798185941042	203.52213151927438	50	127
203.34798185941042	203.52213151927438	55	127
203.34798185941042	203.52213151927438	31	127
203.34798185941042	203.52213151927438	59	127
203.77755102040817	203.90526077097505	71	127
203.90526077097505	204.10263038548752	31	127
203.90526077097505	204.10263038548752	50	127
203.90526077097505	204.10263038548752	59	127
203.90526077097505	204.10263038548752	55	127
203.90526077097505	204.81083900226758	74	127
204.28839002267574	204.4277097505669	31	127
204.28839002267574	204.4277097505669	59	127
204.28839002267574	204.4277097505669	50	127
204.28839002267574	204.4277097505669	55	127
204.4277097505669	204.5554195011338	50	127
204.4277097505669	204.5554195011338	55	127
204.4277097505669	204.5554195011338	31	127
204.4277097505669	204.5554195011338	59	127
204.81083900226758	204.93854875283446	74	127
204.93854875283446	205.13591836734693	54	127
204.93854875283446	205.13591836734693	31	127
204.93854875283446	205.89056689342402	75	127
204.93854875283446	205.13591836734693	60	127
204.93854875283446	205.13591836734693	51	127
205.35650793650794	205.4958276643991	60	127
205.35650793650794	205.4958276643991	54	127
205.35650793650794	205.4958276643991	31	127
205.35650793650794	205.4958276643991	51	127
205.4958276643991	205.623537414966	54	127
205.4958276643991	205.623537414966	51	127
205.4958276643991	205.623537414966	60	127
205.4958276643991	205.623537414966	31	127
205.89056689342402	206.01827664399093	66	127
206.01827664399093	206.22725623582767	55	127
206.01827664399093	206.22725623582767	31	127
206.01827664399093	207.01673469387754	67	127
206.01827664399093	206.22725623582767	59	127
206.01827664399093	206.22725623582767	50	127
206.44784580498867	206.58716553287982	59	127
206.44784580498867	206.58716553287982	55	127
206.44784580498867	206.58716553287982	31	127
206.44784580498867	206.58716553287982	50	127
206.58716553287982	206.7497052154195	50	127
206.58716553287982	206.7497052154195	59	127
206.58716553287982	206.7497052154195	55	127
206.58716553287982	206.7497052154195	31	127
207.01673469387754	207.15605442176872	67	127
207.15605442176872	207.42308390022677	59	127
207.15605442176872	207.42308390022677	50	127
207.15605442176872	207.42308390022677	55	127
207.15605442176872	208.21256235827664	62	127
207.15605442176872	207.42308390022677	31	127
207.63206349206348	207.7829931972789	31	127
207.63206349206348	207.7829931972789	55	127
207.63206349206348	207.7829931972789	59	127
207.63206349206348	207.7829931972789	50	127
207.7829931972789	207.92231292517008	50	127
207.7829931972789	207.92231292517008	59	127
207.7829931972789	207.92231292517008	55	127
207.7829931972789	207.92231292517008	31	127
208.21256235827664	208.3518820861678	62	127
208.3518820861678	208.61891156462585	59	127
208.3518820861678	208.61891156462585	55	127
208.3518820861678	208.61891156462585	31	127
208.3518820861678	208.61891156462585	50	127
208.3518820861678	209.55931972789116	59	127
208.8859410430839	209.03687074829932	50	127
208.8859410430839	209.03687074829932	59	127
208.8859410430839	209.03687074829932	55	127
208.8859410430839	209.03687074829932	31	127
209.03687074829932	209.22263038548752	50	127
209.03687074829932	209.22263038548752	59	127
209.03687074829932	209.22263038548752	31	127
209.03687074829932	209.22263038548752	55	127
209.55931972789116	209.71024943310658	59	127
209.71024943310658	214.5980498866213	50	127
209.71024943310658	214.5980498866213	55	127
209.71024943310658	214.5980498866213	55	127
209.71024943310658	214.5980498866213	59	127
209.71024943310658	214.5980498866213	31	127
215.2365986394558	219.19560090702947	44	127
215.2365986394558	215.77065759637188	68	127
215.2365986394558	216.82716553287983	56	127
215.77065759637188	216.29310657596372	63	127
216.29310657596372	216.82716553287983	72	127
216.82716553287983	217.36122448979592	60	127
216.82716553287983	217.36122448979592	68	127
217.36122448979592	218.03460317460318	61	127
217.36122448979592	218.03460317460318	65	127
218.03460317460318	218.61510204081634	58	127
218.03460317460318	218.61510204081634	61	127
218.61510204081634	219.19560090702947	60	127
218.61510204081634	219.19560090702947	56	127
219.19560090702947	219.77609977324263	63	127
219.77609977324263	220.33337868480726	61	127
219.77609977324263	220.33337868480726	55	127
219.77609977324263	220.33337868480726	43	127
220.33337868480726	220.9487074829932	63	127
220.9487074829932	221.62208616780046	39	127
220.9487074829932	221.62208616780046	61	127
220.9487074829932	221.62208616780046	51	127
221.62208616780046	222.2374149659864	63	127
222.2374149659864	225.92938775510203	56	127
222.2374149659864	222.81791383219954	60	127
222.2374149659864	225.92938775510203	44	127
222.81791383219954	223.3984126984127	66	127
223.3984126984127	223.97891156462586	65	127
223.97891156462586	224.69873015873017	62	127
224.69873015873017	225.2792290249433	63	127
225.2792290249433	225.92938775510203	60	127
225.92938775510203	227.7637641723356	51	127
225.92938775510203	229.83034013605442	39	127
225.92938775510203	226.49827664399092	56	127
226.49827664399092	227.14843537414967	63	127
227.14843537414967	227.7637641723356	55	127
227.7637641723356	228.4255328798186	61	127
227.7637641723356	228.4255328798186	58	127
228.4255328798186	229.1105215419501	67	127
228.4255328798186	229.1105215419501	61	127
229.1105215419501	229.83034013605442	67	127
229.1105215419501	229.83034013605442	70	127
229.83034013605442	231.57183673469387	68	127
229.83034013605442	234.2653514739229	44	127
229.83034013605442	230.42244897959185	68	127
229.83034013605442	231.02616780045352	72	127
230.42244897959185	231.02616780045352	63	127
231.02616780045352	232.24521541950114	75	127
231.02616780045352	231.57183673469387	72	127
231.57183673469387	232.24521541950114	60	127
231.57183673469387	232.24521541950114	68	127
232.24521541950114	232.93020408163267	65	127
232.24521541950114	232.93020408163267	65	127
232.24521541950114	232.93020408163267	61	127
232.93020408163267	233.6732426303855	58	127
232.93020408163267	233.6732426303855	61	127
232.93020408163267	233.6732426303855	67	127
233.6732426303855	234.2653514739229	60	127
233.6732426303855	234.2653514739229	56	127
233.6732426303855	233.74290249433108	68	127
233.74290249433108	233.8241723356009	70	127
233.8241723356009	233.88222222222223	68	127
233.88222222222223	233.9518820861678	70	127
233.9518820861678	234.02154195011337	68	127
234.02154195011337	234.10281179138323	70	127
234.10281179138323	234.18408163265306	68	127
234.18408163265306	234.2653514739229	70	127
234.2653514739229	234.33501133786848	68	127
234.2653514739229	234.88068027210883	63	127
234.33501133786848	234.40467120181407	70	127
234.40467120181407	234.49755102040817	68	127
234.49755102040817	234.59043083900227	70	127
234.59043083900227	234.75297052154195	67	127
234.75297052154195	234.88068027210883	68	127
234.88068027210883	236.8427664399093	70	127
234.88068027210883	235.57727891156463	61	127
234.88068027210883	235.57727891156463	55	127
234.88068027210883	235.57727891156463	43	127
235.57727891156463	236.16938775510204	63	127
236.16938775510204	236.8427664399093	61	127
236.16938775510204	236.8427664399093	51	127
236.16938775510204	236.8427664399093	39	127
236.8427664399093	237.44648526077097	63	127
236.8427664399093	237.44648526077097	71	127
237.44648526077097	237.8760544217687	72	127
237.44648526077097	238.05020408163264	60	127
237.44648526077097	241.31260770975058	56	127
237.44648526077097	241.31260770975058	44	127
237.8760544217687	238.05020408163264	80	127
238.05020408163264	238.65392290249434	66	127
238.05020408163264	238.51460317460317	80	127
238.51460317460317	238.65392290249434	72	127
238.65392290249434	239.23442176870748	65	127
238.65392290249434	239.09510204081633	73	127
239.09510204081633	239.23442176870748	77	127
239.23442176870748	239.68721088435373	77	127
239.23442176870748	239.8613605442177	62	127
239.68721088435373	239.8613605442177	71	127
239.8613605442177	240.4186394557823	72	127
239.8613605442177	240.68566893424037	63	127
240.4186394557823	240.68566893424037	75	127
240.68566893424037	241.18489795918367	75	127
240.68566893424037	241.31260770975058	68	127
241.18489795918367	241.31260770975058	68	127
241.31260770975058	242.61292517006802	70	127
241.31260770975058	242.61292517006802	67	127
241.31260770975058	242.9380045351474	51	127
241.31260770975058	242.9380045351474	39	127
242.61292517006802	242.9380045351474	61	127
242.61292517006802	242.74063492063493	72	127
242.74063492063493	242.9380045351474	70	127
242.9380045351474	243.6578231292517	56	127
242.9380045351474	243.6578231292517	44	127
242.9380045351474	243.6578231292517	68	127
242.9380045351474	243.6578231292517	60	127
243.6578231292517	244.23832199546484	56	127
243.6578231292517	244.23832199546484	60	127
243.6578231292517	244.23832199546484	68	127
244.23832199546484	244.96975056689342	61	127
244.23832199546484	244.96975056689342	58	127
244.23832199546484	244.96975056689342	67	127
244.96975056689342	245.6663492063492	66	127
244.96975056689342	245.6663492063492	63	127
244.96975056689342	245.6663492063492	60	127
245.6663492063492	247.9302947845805	61	127
245.6663492063492	246.4790476190476	65	127
245.6663492063492	247.14081632653063	65	127
245.6663492063492	250.75151927437642	37	127
246.4790476190476	247.14081632653063	68	127
247.14081632653063	247.9302947845805	65	127
247.9302947845805	248.5920634920635	61	127
247.9302947845805	248.5920634920635	53	127
248.5920634920635	249.30027210884353	54	127
248.5920634920635	249.30027210884353	60	127
249.30027210884353	249.95043083900228	54	127
249.30027210884353	249.95043083900228	60	127
249.95043083900228	251.37845804988663	77	127
249.95043083900228	250.75151927437642	53	127
249.95043083900228	250.75151927437642	61	127
250.75151927437642	251.37845804988663	56	127
251.37845804988663	252.04022675736962	54	127
251.37845804988663	252.04022675736962	48	127
251.37845804988663	252.04022675736962	36	127
251.37845804988663	253.85138321995464	80	127
252.04022675736962	252.5742857142857	56	127
252.5742857142857	253.2708843537415	32	127
252.5742857142857	253.2708843537415	54	127
252.5742857142857	253.2708843537415	44	127
253.2708843537415	253.85138321995464	56	127
253.85138321995464	254.55959183673468	37	127
253.85138321995464	254.55959183673468	49	127
253.85138321995464	254.55959183673468	53	127
254.55959183673468	255.30263038548753	51	127
254.55959183673468	255.30263038548753	57	127
254.55959183673468	255.30263038548753	36	127
255.30263038548753	255.98761904761903	58	127
255.30263038548753	255.3722902494331	77	127
255.30263038548753	256.55650793650796	34	127
255.30263038548753	256.55650793650796	49	127
255.3722902494331	255.46517006802722	79	127
255.46517006802722	255.53482993197278	77	127
255.53482993197278	255.65092970521542	79	127
255.65092970521542	255.73219954648525	77	127
255.73219954648525	255.80185941043084	79	127
255.80185941043084	255.91795918367347	77	127
255.91795918367347	255.98761904761903	79	127
255.98761904761903	256.08049886621313	77	127
255.98761904761903	256.55650793650796	53	127
256.08049886621313	256.15015873015875	79	127
256.15015873015875	256.2198185941043	77	127
256.2198185941043	256.28947845804987	79	127
256.28947845804987	256.4171882086168	76	127
256.4171882086168	256.55650793650796	77	127
256.55650793650796	256.823537414966	73	127
256.55650793650796	257.11378684807255	58	127
257.11378684807255	257.4504761904762	77	127
257.11378684807255	257.78716553287984	61	127
257.78716553287984	258.5185714285714	36	127
257.78716553287984	258.5185714285714	48	127
257.78716553287984	258.5185714285714	51	127
258.5185714285714	259.1803628117914	34	127
258.5185714285714	259.1803628117914	55	127
258.5185714285714	259.1803628117914	49	127
259.1803628117914	260.37619047619046	32	127
259.1803628117914	259.2732426303855	75	127
259.1803628117914	259.78408163265306	56	127
259.1803628117914	260.37619047619046	48	127
259.2732426303855	259.37773242630385	77	127
259.37773242630385	259.44736961451247	75	127
259.44736961451247	259.517052154195	77	127
259.517052154195	259.5867120181406	75	127
259.5867120181406	259.65637188208615	77	127
259.65637188208615	259.7144217687075	75	127
259.7144217687075	259.78408163265306	77	127
259.78408163265306	259.8537188208617	75	127
259.78408163265306	260.37619047619046	51	127
259.8537188208617	259.92340136054423	77	127
259.92340136054423	259.9814512471655	75	127
259.9814512471655	260.05108843537414	77	127
260.05108843537414	260.2484807256236	74	127
260.2484807256236	260.37619047619046	75	127
260.37619047619046	261.1656689342404	56	127
260.37619047619046	260.78253968253966	72	127
261.1656689342404	261.8158276643991	60	127
261.1656689342404	261.4791383219955	75	127
261.8158276643991	263.27868480725624	37	127
261.8158276643991	263.27868480725624	49	127
261.8158276643991	262.5124036281179	65	127
261.8158276643991	262.5124036281179	58	127
262.5124036281179	262.8839455782313	70	127
262.5124036281179	262.8839455782313	65	127
262.8839455782313	263.27868480725624	61	127
262.8839455782313	263.27868480725624	73	127
263.27868480725624	265.3336507936508	63	127
263.27868480725624	265.12467120181407	51	127
263.27868480725624	265.12467120181407	39	127
263.27868480725624	264.6951020408163	60	127
264.6951020408163	264.8808616780045	61	127
264.8808616780045	265.12467120181407	60	127
265.12467120181407	265.80965986394557	58	127
265.3336507936508	265.44975056689344	65	127
265.58907029478456	265.7051700680272	67	127
265.80965986394557	265.9257596371882	68	127
266.0534693877551	266.1927664399093	70	127
266.3437188208617	266.4714285714286	71	127
266.5991156462585	267.98072562358277	72	127
266.5991156462585	267.35378684807256	56	127
266.5991156462585	268.5147845804989	56	127
266.5991156462585	271.3708390022676	44	127
267.35378684807256	267.98072562358277	63	127
267.98072562358277	268.5147845804989	72	127
267.98072562358277	269.1881632653061	75	127
268.5147845804989	269.1881632653061	68	127
268.5147845804989	269.1881632653061	60	127
269.1881632653061	269.93120181405897	65	127
269.1881632653061	269.93120181405897	61	127
269.1881632653061	269.93120181405897	65	127
269.93120181405897	270.70907029478457	61	127
269.93120181405897	270.70907029478457	67	127
269.93120181405897	270.70907029478457	58	127
270.70907029478457	271.3708390022676	60	127
270.70907029478457	270.81356009070294	68	127
270.70907029478457	271.3708390022676	56	127
270.81356009070294	270.8948072562358	70	127
270.8948072562358	270.9644897959184	68	127
270.9644897959184	271.0573696145125	70	127
271.0573696145125	271.1386394557823	68	127
271.1386394557823	271.20829931972787	70	127
271.20829931972787	271.28956916099776	68	127
271.28956916099776	271.3708390022676	70	127
271.3708390022676	271.44049886621315	68	127
271.3708390022676	271.97455782312926	63	127
271.44049886621315	271.521768707483	70	127
271.521768707483	271.60301587301586	68	127
271.60301587301586	271.6726984126984	70	127
271.6726984126984	271.8352380952381	67	127
271.8352380952381	271.97455782312926	68	127
271.97455782312926	273.2168253968254	70	127
271.97455782312926	272.6363038548753	43	127
271.97455782312926	272.6363038548753	61	127
271.97455782312926	272.6363038548753	55	127
272.6363038548753	273.2168253968254	63	127
273.2168253968254	274.6332426303855	56	127
273.2168253968254	273.3097052154195	72	127
273.2168253968254	274.01791383219955	68	127
273.2168253968254	274.6332426303855	44	127
273.3097052154195	273.3793650793651	73	127
273.3793650793651	273.4722448979592	72	127
273.4722448979592	273.55349206349206	73	127
273.55349206349206	273.61156462585035	72	127
273.61156462585035	273.79732426303855	73	127
273.79732426303855	273.89020408163265	72	127
273.89020408163265	274.01791383219955	73	127
274.01791383219955	274.6332426303855	66	127
274.01791383219955	274.1224036281179	72	127
274.1224036281179	274.20367346938775	73	127
274.20367346938775	274.2849433106576	72	127
274.2849433106576	274.36619047619047	73	127
274.36619047619047	274.4939229024943	70	127
274.4939229024943	274.6332426303855	72	127
274.6332426303855	276.7578684807256	61	127
274.6332426303855	275.4111111111111	65	127
274.6332426303855	276.0496598639456	73	127
274.6332426303855	279.27721088435374	37	127
275.4111111111111	276.0496598639456	68	127
276.0496598639456	276.7578684807256	65	127
276.7578684807256	277.3615873015873	53	127
276.7578684807256	277.3615873015873	61	127
277.3615873015873	278.0233560090703	58	127
277.3615873015873	278.0233560090703	54	127
278.0233560090703	278.63868480725625	66	127
278.0233560090703	278.63868480725625	51	127
278.63868480725625	279.27721088435374	65	127
278.63868480725625	279.9390022675737	77	127
278.63868480725625	279.27721088435374	49	127
279.27721088435374	279.9390022675737	68	127
279.9390022675737	280.5659410430839	66	127
279.9390022675737	280.5659410430839	48	127
279.9390022675737	280.5659410430839	36	127
279.9390022675737	281.80820861678006	80	127
280.5659410430839	281.18126984126985	68	127
281.18126984126985	281.80820861678006	65	127
281.18126984126985	281.80820861678006	49	127
281.18126984126985	282.5628571428571	37	127
281.80820861678006	282.5628571428571	68	127
281.80820861678006	282.5628571428571	85	127
282.5628571428571	282.99242630385487	84	127
282.5628571428571	283.28267573696144	68	127
282.5628571428571	283.28267573696144	44	127
282.5628571428571	283.28267573696144	32	127
282.99242630385487	283.28267573696144	80	127
283.28267573696144	283.9560544217687	65	127
283.28267573696144	283.9560544217687	37	127
283.28267573696144	283.9560544217687	49	127
283.28267573696144	283.59614512471654	77	127
283.59614512471654	283.9560544217687	73	127
283.9560544217687	287.2881179138322	51	127
283.9560544217687	284.64104308390023	72	127
283.9560544217687	284.64104308390023	63	127
283.9560544217687	287.2881179138322	39	127
284.64104308390023	285.62789115646257	68	127
284.64104308390023	285.62789115646257	60	127
285.62789115646257	286.4173696145125	67	127
285.62789115646257	286.4173696145125	61	127
286.4173696145125	287.2881179138322	61	127
286.4173696145125	287.2881179138322	67	127
287.2881179138322	288.1936961451247	60	127
287.2881179138322	288.7741950113379	32	127
287.2881179138322	288.1936961451247	60	127
287.2881179138322	288.1936961451247	68	127
287.2881179138322	288.1936961451247	44	127
288.1936961451247	288.49555555555554	56	127
288.1936961451247	288.49555555555554	63	127
288.1936961451247	288.49555555555554	60	127
288.7741950113379	289.0528344671202	60	127
288.7741950113379	289.0528344671202	68	127
288.7741950113379	289.0528344671202	63	127
289.3198639455782	289.6449433106576	68	127
289.3198639455782	289.6449433106576	72	127
289.3198639455782	289.6449433106576	63	127
289.9932426303855	290.48086167800454	75	127
289.9932426303855	290.48086167800454	72	127
289.9932426303855	290.48086167800454	68	127
290.75950113378684	291.0265306122449	80	127
290.75950113378684	291.0265306122449	75	127
290.75950113378684	291.0265306122449	72	127
291.3980498866213	292.74480725623584	42	127
291.3980498866213	292.1642857142857	60	127
291.3980498866213	292.1642857142857	56	127
291.3980498866213	292.1642857142857	51	127
292.1642857142857	292.47777777777776	63	127
292.1642857142857	292.47777777777776	60	127
292.1642857142857	292.47777777777776	56	127
292.74480725623584	293.0350566893424	68	127
292.74480725623584	293.0350566893424	63	127
292.74480725623584	293.0350566893424	60	127
293.33691609977325	293.65038548752835	63	127
293.33691609977325	293.65038548752835	72	127
293.33691609977325	293.65038548752835	68	127
293.9406349206349	294.2192743764172	68	127
293.9406349206349	294.2192743764172	75	127
293.9406349206349	294.2192743764172	72	127
294.5791836734694	294.9855328798186	80	127
294.5791836734694	294.9855328798186	75	127
294.5791836734694	294.9855328798186	72	127
295.3338095238095	296.56448979591835	41	127
295.3338095238095	295.9839909297052	60	127
295.3338095238095	295.9839909297052	57	127
295.3338095238095	295.9839909297052	51	127
295.9839909297052	296.2974603174603	63	127
295.9839909297052	296.2974603174603	60	127
295.9839909297052	296.2974603174603	57	127
296.56448979591835	296.9360090702948	69	127
296.56448979591835	296.9360090702948	63	127
296.56448979591835	296.9360090702948	60	127
297.2494784580499	297.562947845805	63	127
297.2494784580499	297.562947845805	72	127
297.2494784580499	297.562947845805	69	127
297.8996371882086	298.2131065759637	72	127
297.8996371882086	298.2131065759637	69	127
297.8996371882086	298.2131065759637	75	127
298.5265759637188	298.7936054421769	75	127
298.5265759637188	298.7936054421769	81	127
298.5265759637188	298.7936054421769	72	127
299.28122448979593	299.95460317460316	57	127
299.28122448979593	300.5118820861678	40	127
299.28122448979593	299.95460317460316	60	127
299.28122448979593	299.95460317460316	52	127
299.95460317460316	300.24485260770973	64	127
299.95460317460316	300.24485260770973	57	127
299.95460317460316	300.24485260770973	60	127
300.5118820861678	300.84854875283446	69	127
300.5118820861678	300.84854875283446	64	127
300.5118820861678	300.84854875283446	60	127
301.18526077097505	301.45229024943313	69	127
301.18526077097505	301.45229024943313	72	127
301.18526077097505	301.45229024943313	64	127
301.77736961451245	302.09083900226756	69	127
301.77736961451245	302.09083900226756	76	127
301.77736961451245	302.09083900226756	72	127
302.3810657596372	302.67133786848075	81	127
302.3810657596372	302.67133786848075	76	127
302.3810657596372	302.67133786848075	72	127
303.0196371882086	303.7510657596372	56	127
303.0196371882086	304.49410430839004	40	127
303.0196371882086	303.7510657596372	59	127
303.0196371882086	303.7510657596372	50	127
303.7510657596372	304.1458049886621	62	127
303.7510657596372	304.1458049886621	56	127
303.7510657596372	304.1458049886621	59	127
304.49410430839004	304.7843537414966	68	127
304.49410430839004	304.7843537414966	62	127
304.49410430839004	304.7843537414966	59	127
305.07460317460317	305.43451247165535	71	127
305.07460317460317	305.43451247165535	68	127
305.07460317460317	305.43451247165535	62	127
305.07460317460317	305.43451247165535	40	127
305.7595691609977	306.3284807256236	74	127
305.7595691609977	306.3284807256236	71	127
305.7595691609977	306.3284807256236	68	127
305.7595691609977	306.3284807256236	40	127
306.6883900226757	306.9670294784581	80	127
306.6883900226757	306.9670294784581	71	127
306.6883900226757	306.9670294784581	40	127
306.6883900226757	306.9670294784581	74	127
307.25727891156464	307.6520181405896	81	127
307.25727891156464	307.79133786848075	45	127
307.25727891156464	308.3370068027211	72	127
307.25727891156464	308.3370068027211	69	127
307.6520181405896	307.79133786848075	76	127
307.79133786848075	308.3370068027211	81	127
308.3370068027211	309.0452154195011	45	127
308.8710657596372	309.0452154195011	76	127
309.0452154195011	309.5444217687075	81	127
309.0452154195011	309.30063492063493	64	127
309.0452154195011	309.30063492063493	60	127
309.5444217687075	310.3455328798186	45	127
309.5444217687075	309.9159637188209	60	127
309.5444217687075	309.9159637188209	64	127
310.17138321995463	310.3455328798186	76	127
310.3455328798186	310.61256235827665	64	127
310.3455328798186	310.61256235827665	60	127
310.3455328798186	310.8795918367347	81	127
310.8795918367347	312.09861678004535	65	127
310.8795918367347	312.09861678004535	62	127
310.8795918367347	311.5413605442177	45	127
311.3091609977324	311.5413605442177	77	127
311.5413605442177	312.09861678004535	81	127
312.09861678004535	314.0491156462585	69	127
312.09861678004535	314.0491156462585	65	127
312.09861678004535	312.93455782312924	45	127
312.7952380952381	312.93455782312924	77	127
312.93455782312924	313.46861678004535	81	127
313.46861678004535	314.0491156462585	45	127
313.90979591836737	314.0491156462585	77	127
314.0491156462585	314.60639455782314	81	127
314.0491156462585	314.60639455782314	62	127
314.0491156462585	314.60639455782314	65	127
314.60639455782314	316.60331065759635	60	127
314.60639455782314	315.4655102040816	45	127
314.60639455782314	316.60331065759635	64	127
315.2217233560091	315.4655102040816	76	127
315.4655102040816	315.9995918367347	81	127
315.9995918367347	316.60331065759635	45	127
316.45238095238096	316.60331065759635	76	127
316.60331065759635	317.1141496598639	72	127
316.60331065759635	317.1141496598639	81	127
316.60331065759635	317.1141496598639	64	127
317.1141496598639	317.7875283446712	45	127
317.1141496598639	317.7875283446712	71	127
317.1141496598639	317.7875283446712	62	127
317.6133560090703	317.7875283446712	76	127
317.7875283446712	318.32158730158733	60	127
317.7875283446712	318.32158730158733	81	127
317.7875283446712	318.32158730158733	69	127
318.32158730158733	319.41292517006804	59	127
318.32158730158733	318.82081632653063	40	127
318.32158730158733	319.41292517006804	68	127
318.6931065759637	318.82081632653063	74	127
318.82081632653063	319.41292517006804	80	127
319.41292517006804	320.7828798185941	65	127
319.41292517006804	321.3750113378685	62	127
319.41292517006804	320.17918367346937	40	127
320.028253968254	320.17918367346937	74	127
320.17918367346937	320.7828798185941	80	127
320.7828798185941	321.3750113378685	40	127
320.7828798185941	321.3750113378685	64	127
321.2356916099773	321.3750113378685	74	127
321.3750113378685	321.6420408163265	60	127
321.3750113378685	321.9090476190476	80	127
321.3750113378685	321.9090476190476	68	127
321.6420408163265	321.9090476190476	59	127
321.9090476190476	323.0352154195011	60	127
321.9090476190476	322.4779591836735	45	127
321.9090476190476	323.0352154195011	69	127
322.35024943310657	322.4779591836735	76	127
322.4779591836735	323.0352154195011	81	127
323.0352154195011	323.8827664399093	45	127
323.6853968253968	323.8827664399093	76	127
323.8827664399093	324.1497959183674	72	127
323.8827664399093	324.1497959183674	64	127
323.8827664399093	324.4168253968254	81	127
324.4168253968254	324.6954648526077	73	127
324.4168253968254	324.9624943310658	64	127
324.4168253968254	324.9624943310658	45	127
324.8231746031746	324.9624943310658	76	127
324.9624943310658	325.49655328798184	67	127
324.9624943310658	325.2295238095238	73	127
324.9624943310658	325.49655328798184	82	127
325.49655328798184	326.0886621315193	45	127
325.49655328798184	326.4253514739229	74	127
325.49655328798184	326.4253514739229	65	127
325.9493424036281	326.0886621315193	77	127
326.0886621315193	326.5995011337869	81	127
326.4253514739229	326.518231292517	74	127
326.4253514739229	326.518231292517	65	127
326.518231292517	326.5995011337869	67	127
326.518231292517	326.5995011337869	76	127
326.5995011337869	327.20321995464855	45	127
326.5995011337869	328.42226757369616	69	127
326.5995011337869	328.42226757369616	77	127
327.02907029478456	327.20321995464855	77	127
327.20321995464855	327.7256689342404	81	127
327.7256689342404	328.42226757369616	45	127
328.24809523809523	328.42226757369616	77	127
328.42226757369616	329.01437641723356	65	127
328.42226757369616	329.01437641723356	74	127
328.42226757369616	329.01437641723356	81	127
329.01437641723356	330.1405442176871	72	127
329.01437641723356	329.5832426303855	45	127
329.01437641723356	330.1405442176871	64	127
329.4555555555556	329.5832426303855	76	127
329.5832426303855	330.1405442176871	81	127
330.1405442176871	331.0345124716553	45	127
330.6629931972789	331.0345124716553	76	127
331.0345124716553	331.5801814058957	72	127
331.0345124716553	331.5801814058957	81	127
331.0345124716553	331.5801814058957	64	127
331.5801814058957	332.3580498866213	45	127
331.5801814058957	332.3580498866213	71	127
331.5801814058957	332.3580498866213	62	127
332.14907029478456	332.3580498866213	76	127
332.3580498866213	332.8921088435374	60	127
332.3580498866213	332.8921088435374	69	127
332.3580498866213	332.8921088435374	81	127
332.8921088435374	334.0763038548753	59	127
332.8921088435374	333.4377777777778	68	127
332.8921088435374	333.4377777777778	40	127
333.28684807256235	333.4377777777778	74	127
333.4377777777778	334.0763038548753	80	127
333.4377777777778	334.0763038548753	71	127
334.0763038548753	336.1080725623583	62	127
334.0763038548753	334.7613151927438	40	127
334.0763038548753	335.3766439909297	65	127
334.5291156462585	334.7613151927438	74	127
334.7613151927438	335.3766439909297	80	127
335.3766439909297	336.1080725623583	40	127
335.3766439909297	336.1080725623583	64	127
335.8526530612245	336.1080725623583	74	127
336.1080725623583	336.6653514739229	68	127
336.1080725623583	336.3867120181406	60	127
336.1080725623583	336.6653514739229	80	127
336.3867120181406	336.6653514739229	59	127
336.6653514739229	337.77990929705214	69	127
336.6653514739229	337.2458276643991	45	127
336.6653514739229	337.77990929705214	57	127
337.09492063492064	337.2458276643991	72	127
337.2458276643991	337.77990929705214	81	127
337.77990929705214	338.45328798185943	45	127
338.1746485260771	338.45328798185943	72	127
338.45328798185943	338.98732426303854	64	127
338.45328798185943	338.98732426303854	60	127
338.45328798185943	338.98732426303854	81	127
338.98732426303854	339.6491156462585	64	127
338.98732426303854	339.6491156462585	69	127
338.98732426303854	339.6491156462585	45	127
339.4749659863946	339.6491156462585	72	127
339.6491156462585	340.2180045351474	81	127
339.6491156462585	340.2180045351474	72	127
339.6491156462585	340.2180045351474	69	127
340.2180045351474	340.9726530612245	43	127
340.2180045351474	342.2845804988662	70	127
340.2180045351474	342.89990929705215	72	127
340.7520634920635	340.9726530612245	72	127
340.9726530612245	341.58798185941043	82	127
341.58798185941043	342.2845804988662	43	127
342.02916099773245	342.2845804988662	72	127
342.2845804988662	342.89990929705215	82	127
342.2845804988662	342.89990929705215	67	127
342.89990929705215	343.56167800453517	64	127
342.89990929705215	343.56167800453517	43	127
342.89990929705215	343.1901587301587	71	127
343.1901587301587	343.56167800453517	72	127
343.3875283446712	343.56167800453517	72	127
343.56167800453517	344.20020408163265	58	127
343.56167800453517	344.20020408163265	82	127
343.56167800453517	343.909977324263	74	127
343.909977324263	344.20020408163265	72	127
344.20020408163265	345.61664399092973	57	127
344.20020408163265	345.61664399092973	72	127
344.20020408163265	344.9316553287982	41	127
344.74589569161	344.9316553287982	72	127
344.9316553287982	345.61664399092973	81	127
345.61664399092973	346.89374149659864	69	127
345.61664399092973	346.3248526077098	41	127
345.61664399092973	346.89374149659864	60	127
346.16231292517006	346.3248526077098	72	127
346.3248526077098	346.89374149659864	81	127
346.89374149659864	348.3449886621315	74	127
346.89374149659864	348.3449886621315	65	127
346.89374149659864	347.6948299319728	35	127
347.4045804988662	347.6948299319728	77	127
347.6948299319728	348.3449886621315	86	127
348.3449886621315	349.6104535147392	69	127
348.3449886621315	349.0415873015873	36	127
348.86743764172337	349.0415873015873	77	127
349.0415873015873	349.6104535147392	84	127
349.0415873015873	349.6104535147392	65	127
349.6104535147392	351.5725623582766	70	127
349.6104535147392	350.2722448979592	36	127
349.6104535147392	351.5725623582766	64	127
350.13290249433106	350.2722448979592	76	127
350.2722448979592	350.8643537414966	84	127
350.8643537414966	351.5725623582766	36	127
351.3635827664399	351.5725623582766	76	127
351.5725623582766	352.0601814058957	60	127
351.5725623582766	352.45492063492065	84	127
351.5725623582766	352.45492063492065	64	127
352.0601814058957	352.45492063492065	58	127
352.45492063492065	352.6290702947846	65	127
352.45492063492065	352.6290702947846	77	127
352.45492063492065	353.10507936507935	57	127
352.45492063492065	353.10507936507935	41	127
352.6290702947846	352.8960997732426	60	127
352.6290702947846	352.8960997732426	69	127
352.6290702947846	352.8960997732426	65	127
352.8960997732426	353.10507936507935	65	127
352.8960997732426	353.10507936507935	69	127
352.8960997732426	353.10507936507935	60	127
353.10507936507935	353.3140589569161	69	127
353.10507936507935	353.3140589569161	65	127
353.10507936507935	353.3140589569161	60	127
353.3140589569161	353.51142857142855	60	127
353.3140589569161	353.51142857142855	65	127
353.3140589569161	353.51142857142855	69	127
353.51142857142855	353.6971882086168	65	127
353.51142857142855	353.6971882086168	60	127
353.51142857142855	353.6971882086168	69	127
353.6971882086168	354.2080272108844	45	127
353.6971882086168	354.2080272108844	57	127
353.6971882086168	353.8365079365079	60	127
353.6971882086168	353.8365079365079	69	127
353.6971882086168	353.8365079365079	65	127
353.8365079365079	354.0338775510204	65	127
353.8365079365079	354.0338775510204	60	127
353.8365079365079	354.0338775510204	69	127
354.0338775510204	354.2080272108844	69	127
354.0338775510204	354.2080272108844	65	127
354.0338775510204	354.2080272108844	60	127
354.2080272108844	354.3937868480726	65	127
354.2080272108844	354.3937868480726	60	127
354.2080272108844	354.3937868480726	69	127
354.3937868480726	354.5679365079365	69	127
354.3937868480726	354.5679365079365	65	127
354.3937868480726	354.5679365079365	60	127
354.5679365079365	354.765306122449	69	127
354.5679365079365	354.765306122449	60	127
354.5679365079365	354.765306122449	65	127
354.765306122449	354.9394557823129	69	127
354.765306122449	355.2993650793651	41	127
354.765306122449	354.9394557823129	60	127
354.765306122449	354.9394557823129	65	127
354.765306122449	355.2993650793651	53	127
354.9394557823129	355.12521541950116	65	127
354.9394557823129	355.12521541950116	60	127
354.9394557823129	355.12521541950116	69	127
355.12521541950116	355.2993650793651	60	127
355.12521541950116	355.2993650793651	65	127
355.12521541950116	355.2993650793651	69	127
355.2993650793651	355.4851247165533	65	127
355.2993650793651	355.4851247165533	69	127
355.2993650793651	355.4851247165533	60	127
355.4851247165533	355.6592743764172	65	127
355.4851247165533	355.6592743764172	60	127
355.4851247165533	355.6592743764172	69	127
355.6592743764172	355.8334240362812	60	127
355.6592743764172	355.8334240362812	69	127
355.6592743764172	355.8334240362812	65	127
355.8334240362812	356.2397732426304	48	127
355.8334240362812	356.2397732426304	36	127
355.8334240362812	356.0191836734694	60	127
355.8334240362812	356.0191836734694	64	127
355.8334240362812	356.0191836734694	70	127
355.8334240362812	356.0191836734694	67	127
356.0191836734694	356.1933333333333	70	127
356.0191836734694	356.1933333333333	64	127
356.0191836734694	356.1933333333333	67	127
356.0191836734694	356.1933333333333	60	127
356.1933333333333	356.3674603174603	67	127
356.1933333333333	356.3674603174603	64	127
356.1933333333333	356.3674603174603	60	127
356.1933333333333	356.3674603174603	70	127
356.2397732426304	356.3674603174603	24	127
356.2397732426304	356.3674603174603	36	127
356.3674603174603	356.5648299319728	60	127
356.3674603174603	357.3659410430839	36	127
356.3674603174603	356.5648299319728	64	127
356.3674603174603	357.3659410430839	48	127
356.3674603174603	356.5648299319728	70	127
356.3674603174603	356.5648299319728	67	127
356.5648299319728	356.7390022675737	70	127
356.5648299319728	356.7390022675737	67	127
356.5648299319728	356.7390022675737	60	127
356.5648299319728	356.7390022675737	64	127
356.7390022675737	356.94798185941045	70	127
356.7390022675737	356.94798185941045	67	127
356.7390022675737	356.94798185941045	60	127
356.7390022675737	356.94798185941045	64	127
356.94798185941045	357.1569614512472	60	127
356.94798185941045	357.1569614512472	70	127
356.94798185941045	357.1569614512472	64	127
356.94798185941045	357.1569614512472	67	127
357.1569614512472	357.31950113378684	64	127
357.1569614512472	357.31950113378684	70	127
357.1569614512472	357.31950113378684	67	127
357.1569614512472	357.31950113378684	60	127
357.31950113378684	357.49362811791383	60	127
357.31950113378684	357.49362811791383	67	127
357.31950113378684	357.49362811791383	64	127
357.31950113378684	357.49362811791383	70	127
357.3659410430839	357.49362811791383	24	127
357.3659410430839	357.49362811791383	36	127
357.49362811791383	357.6561904761905	70	127
357.49362811791383	357.6561904761905	64	127
357.49362811791383	357.6561904761905	60	127
357.49362811791383	358.36439909297053	48	127
357.49362811791383	357.6561904761905	67	127
357.49362811791383	358.36439909297053	36	127
357.6561904761905	357.81873015873015	70	127
357.6561904761905	357.81873015873015	67	127
357.6561904761905	357.81873015873015	60	127
357.6561904761905	357.81873015873015	64	127
357.81873015873015	357.98126984126986	70	127
357.81873015873015	357.98126984126986	67	127
357.81873015873015	357.98126984126986	60	127
357.81873015873015	357.98126984126986	64	127
357.98126984126986	358.16702947845806	64	127
357.98126984126986	358.16702947845806	67	127
357.98126984126986	358.16702947845806	60	127
357.98126984126986	358.16702947845806	70	127
358.16702947845806	358.3295691609977	67	127
358.16702947845806	358.3295691609977	70	127
358.16702947845806	358.3295691609977	60	127
358.16702947845806	358.3295691609977	64	127
358.3295691609977	358.49210884353744	67	127
358.3295691609977	358.49210884353744	60	127
358.3295691609977	358.49210884353744	70	127
358.3295691609977	358.49210884353744	64	127
358.36439909297053	358.49210884353744	24	127
358.36439909297053	358.49210884353744	36	127
358.49210884353744	358.66625850340137	70	127
358.49210884353744	358.66625850340137	64	127
358.49210884353744	358.66625850340137	60	127
358.49210884353744	359.02614512471655	36	127
358.49210884353744	358.66625850340137	67	127
358.49210884353744	359.02614512471655	48	127
358.66625850340137	358.85201814058956	67	127
358.66625850340137	358.85201814058956	60	127
358.66625850340137	358.85201814058956	70	127
358.66625850340137	358.85201814058956	64	127
358.85201814058956	359.02614512471655	70	127
358.85201814058956	359.02614512471655	64	127
358.85201814058956	359.02614512471655	60	127
358.85201814058956	359.02614512471655	67	127
359.02614512471655	359.16548752834467	65	127
359.02614512471655	359.52539682539685	53	127
359.02614512471655	359.52539682539685	41	127
359.02614512471655	359.16548752834467	69	127
359.02614512471655	359.16548752834467	65	127
359.16548752834467	359.3280045351474	69	127
359.16548752834467	359.3280045351474	60	127
359.16548752834467	359.3280045351474	65	127
359.3280045351474	359.52539682539685	60	127
359.3280045351474	359.52539682539685	65	127
359.3280045351474	359.52539682539685	69	127
359.52539682539685	359.6995464852608	60	127
359.52539682539685	359.6995464852608	65	127
359.52539682539685	359.6995464852608	69	127
359.6995464852608	359.9085260770975	69	127
359.6995464852608	359.9085260770975	65	127
359.6995464852608	359.9085260770975	60	127
359.9085260770975	360.10589569161	60	127
359.9085260770975	360.10589569161	65	127
359.9085260770975	360.10589569161	69	127
360.10589569161	360.2568253968254	69	127
360.10589569161	360.2568253968254	60	127
360.10589569161	360.547074829932	45	127
360.10589569161	360.2568253968254	65	127
360.10589569161	360.547074829932	57	127
360.2568253968254	360.3845351473923	60	127
360.2568253968254	360.3845351473923	65	127
360.2568253968254	360.3845351473923	69	127
360.3845351473923	360.547074829932	65	127
360.3845351473923	360.547074829932	60	127
360.3845351473923	360.547074829932	69	127
360.547074829932	360.70961451247166	60	127
360.547074829932	360.70961451247166	69	127
360.547074829932	360.70961451247166	65	127
360.70961451247166	360.8605215419501	65	127
360.70961451247166	360.8605215419501	60	127
360.70961451247166	360.8605215419501	69	127
360.8605215419501	361.03469387755104	60	127
360.8605215419501	361.03469387755104	65	127
360.8605215419501	361.03469387755104	69	127
361.03469387755104	361.53392290249434	53	127
361.03469387755104	361.1856235827664	65	127
361.03469387755104	361.1856235827664	69	127
361.03469387755104	361.1856235827664	60	127
361.03469387755104	361.53392290249434	41	127
361.1856235827664	361.3597732426304	65	127
361.1856235827664	361.3597732426304	60	127
361.1856235827664	361.3597732426304	69	127
361.3597732426304	361.53392290249434	65	127
361.3597732426304	361.53392290249434	60	127
361.3597732426304	361.53392290249434	69	127
361.53392290249434	361.70807256235827	65	127
361.53392290249434	361.70807256235827	60	127
361.53392290249434	361.70807256235827	69	127
361.70807256235827	361.870612244898	69	127
361.70807256235827	361.870612244898	65	127
361.70807256235827	361.870612244898	60	127
361.870612244898	362.0563718820862	65	127
361.870612244898	362.0563718820862	60	127
361.870612244898	362.0563718820862	69	127
362.0563718820862	362.3234013605442	70	127
362.0563718820862	362.56721088435376	36	127
362.0563718820862	362.3234013605442	60	127
362.0563718820862	362.3234013605442	64	127
362.0563718820862	362.56721088435376	48	127
362.0563718820862	362.3234013605442	67	127
362.3234013605442	362.53238095238095	64	127
362.3234013605442	362.53238095238095	60	127
362.3234013605442	362.53238095238095	67	127
362.3234013605442	362.53238095238095	70	127
362.53238095238095	362.70650793650793	70	127
362.53238095238095	362.70650793650793	64	127
362.53238095238095	362.70650793650793	67	127
362.53238095238095	362.70650793650793	60	127
362.56721088435376	362.70650793650793	24	127
362.56721088435376	362.70650793650793	36	127
362.70650793650793	362.88068027210886	64	127
362.70650793650793	362.88068027210886	60	127
362.70650793650793	363.6353287981859	48	127
362.70650793650793	363.6353287981859	36	127
362.70650793650793	362.88068027210886	70	127
362.70650793650793	362.88068027210886	67	127
362.88068027210886	363.0548299319728	67	127
362.88068027210886	363.0548299319728	60	127
362.88068027210886	363.0548299319728	70	127
362.88068027210886	363.0548299319728	64	127
363.0548299319728	363.2173469387755	67	127
363.0548299319728	363.2173469387755	70	127
363.0548299319728	363.2173469387755	64	127
363.0548299319728	363.2173469387755	60	127
363.2173469387755	363.39151927437644	64	127
363.2173469387755	363.39151927437644	67	127
363.2173469387755	363.39151927437644	70	127
363.2173469387755	363.39151927437644	60	127
363.39151927437644	363.57727891156463	60	127
363.39151927437644	363.57727891156463	67	127
363.39151927437644	363.57727891156463	64	127
363.39151927437644	363.57727891156463	70	127
363.57727891156463	363.75142857142856	67	127
363.57727891156463	363.75142857142856	64	127
363.57727891156463	363.75142857142856	60	127
363.57727891156463	363.75142857142856	70	127
363.6353287981859	363.75142857142856	24	127
363.6353287981859	363.75142857142856	36	127
363.75142857142856	363.92555555555555	67	127
363.75142857142856	364.6221768707483	36	127
363.75142857142856	363.92555555555555	64	127
363.75142857142856	363.92555555555555	60	127
363.75142857142856	364.6221768707483	48	127
363.75142857142856	363.92555555555555	70	127
363.92555555555555	364.0881179138322	64	127
363.92555555555555	364.0881179138322	70	127
363.92555555555555	364.0881179138322	60	127
363.92555555555555	364.0881179138322	67	127
364.0881179138322	364.26226757369614	67	127
364.0881179138322	364.26226757369614	64	127
364.0881179138322	364.26226757369614	60	127
364.0881179138322	364.26226757369614	70	127
364.26226757369614	364.4015873015873	60	127
364.26226757369614	364.4015873015873	64	127
364.26226757369614	364.4015873015873	70	127
364.26226757369614	364.4015873015873	67	127
364.4015873015873	364.57573696145124	67	127
364.4015873015873	364.57573696145124	64	127
364.4015873015873	364.57573696145124	60	127
364.4015873015873	364.57573696145124	70	127
364.57573696145124	364.7266666666667	64	127
364.57573696145124	364.7266666666667	70	127
364.57573696145124	364.7266666666667	67	127
364.57573696145124	364.7266666666667	60	127
364.6221768707483	364.7266666666667	36	127
364.6221768707483	364.7266666666667	24	127
364.7266666666667	364.88920634920635	70	127
364.7266666666667	364.88920634920635	64	127
364.7266666666667	365.23750566893426	48	127
364.7266666666667	364.88920634920635	67	127
364.7266666666667	364.88920634920635	60	127
364.7266666666667	365.23750566893426	36	127
364.88920634920635	365.0633560090703	70	127
364.88920634920635	365.0633560090703	67	127
364.88920634920635	365.0633560090703	60	127
364.88920634920635	365.0633560090703	64	127
365.0633560090703	365.23750566893426	67	127
365.0633560090703	365.23750566893426	60	127
365.0633560090703	365.23750566893426	64	127
365.0633560090703	365.23750566893426	70	127
365.23750566893426	365.3535827664399	69	127
365.23750566893426	365.5858049886621	53	127
365.23750566893426	365.5858049886621	41	127
365.23750566893426	365.3535827664399	65	127
365.23750566893426	365.3535827664399	65	127
365.3535827664399	365.4697052154195	69	127
365.3535827664399	365.4697052154195	60	127
365.3535827664399	365.4697052154195	65	127
365.4697052154195	365.5858049886621	65	127
365.4697052154195	365.5858049886621	69	127
365.4697052154195	365.5858049886621	60	127
365.5858049886621	365.79478458049886	69	127
365.5858049886621	365.79478458049886	65	127
365.5858049886621	365.79478458049886	60	127
365.79478458049886	366.01537414965986	69	127
365.79478458049886	366.01537414965986	60	127
365.79478458049886	366.01537414965986	65	127
366.01537414965986	366.20113378684806	60	127
366.01537414965986	366.20113378684806	69	127
366.01537414965986	366.20113378684806	65	127
366.20113378684806	366.39850340136053	62	127
366.20113378684806	366.7351927437642	38	127
366.20113378684806	366.39850340136053	65	127
366.20113378684806	366.7351927437642	50	127
366.20113378684806	366.39850340136053	69	127
366.39850340136053	366.5726530612245	65	127
366.39850340136053	366.5726530612245	69	127
366.39850340136053	366.5726530612245	62	127
366.5726530612245	366.7351927437642	69	127
366.5726530612245	366.7351927437642	62	127
366.5726530612245	366.7351927437642	65	127
366.7351927437642	366.9093424036281	65	127
366.7351927437642	366.9093424036281	69	127
366.7351927437642	366.9093424036281	62	127
366.9093424036281	367.06027210884355	69	127
366.9093424036281	367.06027210884355	65	127
366.9093424036281	367.06027210884355	62	127
367.06027210884355	367.2344217687075	65	127
367.06027210884355	367.2344217687075	69	127
367.06027210884355	367.2344217687075	62	127
367.2344217687075	367.40854875283446	69	127
367.2344217687075	367.7568707482993	53	127
367.2344217687075	367.40854875283446	65	127
367.2344217687075	367.40854875283446	62	127
367.2344217687075	367.7568707482993	41	127
367.40854875283446	367.5827210884354	69	127
367.40854875283446	367.5827210884354	65	127
367.40854875283446	367.5827210884354	62	127
367.5827210884354	367.7568707482993	65	127
367.5827210884354	367.7568707482993	62	127
367.5827210884354	367.7568707482993	69	127
367.7568707482993	367.9774603174603	62	127
367.7568707482993	367.9774603174603	69	127
367.7568707482993	367.9774603174603	65	127
367.9774603174603	368.1748299319728	62	127
367.9774603174603	368.1748299319728	65	127
367.9774603174603	368.1748299319728	69	127
368.1748299319728	368.360589569161	69	127
368.1748299319728	368.360589569161	65	127
368.1748299319728	368.360589569161	62	127
368.360589569161	368.55795918367346	64	127
368.360589569161	368.55795918367346	67	127
368.360589569161	368.55795918367346	69	127
368.360589569161	368.77854875283447	57	127
368.360589569161	368.77854875283447	45	127
368.55795918367346	368.73208616780045	64	127
368.55795918367346	368.73208616780045	69	127
368.55795918367346	368.73208616780045	67	127
368.73208616780045	368.91786848072564	69	127
368.73208616780045	368.91786848072564	67	127
368.73208616780045	368.91786848072564	64	127
368.77854875283447	368.91786848072564	33	127
368.77854875283447	368.91786848072564	45	127
368.91786848072564	369.0804081632653	64	127
368.91786848072564	369.0804081632653	69	127
368.91786848072564	369.0804081632653	67	127
368.91786848072564	369.8002267573696	57	127
368.91786848072564	369.8002267573696	45	127
369.0804081632653	369.2197278911565	67	127
369.0804081632653	369.2197278911565	64	127
369.0804081632653	369.2197278911565	69	127
369.2197278911565	369.41709750566895	67	127
369.2197278911565	369.41709750566895	69	127
369.2197278911565	369.41709750566895	64	127
369.41709750566895	369.5912471655329	67	127
369.41709750566895	369.5912471655329	69	127
369.41709750566895	369.5912471655329	64	127
369.5912471655329	369.7537641723356	64	127
369.5912471655329	369.7537641723356	69	127
369.5912471655329	369.7537641723356	67	127
369.7537641723356	369.9279365079365	69	127
369.7537641723356	369.9279365079365	64	127
369.7537641723356	369.9279365079365	67	127
369.8002267573696	369.9279365079365	33	127
369.8002267573696	369.9279365079365	45	127
369.9279365079365	370.8102947845805	45	127
369.9279365079365	370.0904761904762	67	127
369.9279365079365	370.0904761904762	64	127
369.9279365079365	370.0904761904762	69	127
369.9279365079365	370.8102947845805	57	127
370.0904761904762	370.2530158730159	64	127
370.0904761904762	370.2530158730159	69	127
370.0904761904762	370.2530158730159	67	127
370.2530158730159	370.4271655328798	64	127
370.2530158730159	370.4271655328798	69	127
370.2530158730159	370.4271655328798	67	127
370.4271655328798	370.60131519274375	69	127
370.4271655328798	370.60131519274375	67	127
370.4271655328798	370.60131519274375	64	127
370.60131519274375	370.76385487528347	64	127
370.60131519274375	370.76385487528347	69	127
370.60131519274375	370.76385487528347	67	127
370.76385487528347	370.9380045351474	69	127
370.76385487528347	370.9380045351474	64	127
370.76385487528347	370.9380045351474	67	127
370.8102947845805	370.9380045351474	33	127
370.8102947845805	370.9380045351474	45	127
370.9380045351474	371.42562358276643	57	127
370.9380045351474	371.42562358276643	45	127
370.9380045351474	371.10054421768706	69	127
370.9380045351474	371.10054421768706	67	127
370.9380045351474	371.10054421768706	61	127
371.10054421768706	371.2862811791383	67	127
371.10054421768706	371.2862811791383	69	127
371.10054421768706	371.2862811791383	61	127
371.2862811791383	371.42562358276643	67	127
371.2862811791383	371.42562358276643	61	127
371.2862811791383	371.42562358276643	69	127
371.42562358276643	371.61138321995463	65	127
371.42562358276643	371.99451247165536	38	127
371.42562358276643	371.61138321995463	69	127
371.42562358276643	371.99451247165536	50	127
371.42562358276643	371.61138321995463	62	127
371.61138321995463	371.8087528344671	62	127
371.61138321995463	371.8087528344671	65	127
371.61138321995463	371.8087528344671	69	127
371.8087528344671	371.99451247165536	62	127
371.8087528344671	371.99451247165536	69	127
371.8087528344671	371.99451247165536	65	127
371.99451247165536	372.1222222222222	65	127
371.99451247165536	372.1222222222222	69	127
371.99451247165536	372.1222222222222	62	127
372.1222222222222	372.2963718820862	62	127
372.1222222222222	372.2963718820862	69	127
372.1222222222222	372.2963718820862	65	127
372.2963718820862	372.4473015873016	62	127
372.2963718820862	372.4473015873016	65	127
372.2963718820862	372.4473015873016	69	127
372.4473015873016	372.9465306122449	53	127
372.4473015873016	372.598231292517	62	127
372.4473015873016	372.598231292517	69	127
372.4473015873016	372.9465306122449	41	127
372.4473015873016	372.598231292517	65	127
372.598231292517	372.7839909297052	65	127
372.598231292517	372.7839909297052	69	127
372.598231292517	372.7839909297052	62	127
372.7839909297052	372.9465306122449	62	127
372.7839909297052	372.9465306122449	69	127
372.7839909297052	372.9465306122449	65	127
372.9465306122449	373.12068027210887	65	127
372.9465306122449	373.12068027210887	62	127
372.9465306122449	373.12068027210887	69	127
373.12068027210887	373.28321995464853	65	127
373.12068027210887	373.28321995464853	62	127
373.12068027210887	373.28321995464853	69	127
373.28321995464853	373.45736961451246	69	127
373.28321995464853	373.45736961451246	65	127
373.28321995464853	373.45736961451246	62	127
373.45736961451246	373.63151927437644	65	127
373.45736961451246	373.9798185941043	50	127
373.45736961451246	373.9798185941043	38	127
373.45736961451246	373.63151927437644	62	127
373.45736961451246	373.63151927437644	69	127
373.63151927437644	373.81727891156464	69	127
373.63151927437644	373.81727891156464	62	127
373.63151927437644	373.81727891156464	65	127
373.81727891156464	373.9798185941043	65	127
373.81727891156464	373.9798185941043	69	127
373.81727891156464	373.9798185941043	62	127
373.9798185941043	374.1655782312925	69	127
373.9798185941043	374.1655782312925	62	127
373.9798185941043	374.1655782312925	65	127
374.1655782312925	374.3397278911565	65	127
374.1655782312925	374.3397278911565	62	127
374.1655782312925	374.3397278911565	69	127
374.3397278911565	374.5138775510204	69	127
374.3397278911565	374.5138775510204	62	127
374.3397278911565	374.5138775510204	65	127
374.5138775510204	374.68802721088434	69	127
374.5138775510204	374.68802721088434	60	127
374.5138775510204	374.90861678004535	41	127
374.5138775510204	374.68802721088434	63	127
374.5138775510204	374.68802721088434	65	127
374.5138775510204	374.90861678004535	53	127
374.68802721088434	374.8621541950113	60	127
374.68802721088434	374.8621541950113	65	127
374.68802721088434	374.8621541950113	69	127
374.68802721088434	374.8621541950113	63	127
374.8621541950113	375.024716553288	65	127
374.8621541950113	375.024716553288	69	127
374.8621541950113	375.024716553288	60	127
374.8621541950113	375.024716553288	63	127
374.90861678004535	375.024716553288	29	127
374.90861678004535	375.024716553288	41	127
375.024716553288	375.2104761904762	63	127
375.024716553288	375.2104761904762	69	127
375.024716553288	375.8838321995465	53	127
375.024716553288	375.2104761904762	60	127
375.024716553288	375.2104761904762	65	127
375.024716553288	375.8838321995465	41	127
375.2104761904762	375.38460317460317	69	127
375.2104761904762	375.38460317460317	65	127
375.2104761904762	375.38460317460317	63	127
375.2104761904762	375.38460317460317	60	127
375.38460317460317	375.5587755102041	63	127
375.38460317460317	375.5587755102041	60	127
375.38460317460317	375.5587755102041	65	127
375.38460317460317	375.5587755102041	69	127
375.5587755102041	375.686462585034	69	127
375.5587755102041	375.686462585034	63	127
375.5587755102041	375.686462585034	65	127
375.5587755102041	375.686462585034	60	127
375.686462585034	375.84902494331067	69	127
375.686462585034	375.84902494331067	65	127
375.686462585034	375.84902494331067	60	127
375.686462585034	375.84902494331067	63	127
375.84902494331067	376.0115646258503	63	127
375.84902494331067	376.0115646258503	65	127
375.84902494331067	376.0115646258503	60	127
375.84902494331067	376.0115646258503	69	127
375.8838321995465	376.0115646258503	29	127
375.8838321995465	376.0115646258503	41	127
376.0115646258503	376.1857142857143	63	127
376.0115646258503	376.1857142857143	69	127
376.0115646258503	376.1857142857143	60	127
376.0115646258503	376.95197278911564	53	127
376.0115646258503	376.95197278911564	41	127
376.0115646258503	376.1857142857143	65	127
376.1857142857143	376.3714739229025	63	127
376.1857142857143	376.3714739229025	69	127
376.1857142857143	376.3714739229025	60	127
376.1857142857143	376.3714739229025	65	127
376.3714739229025	376.54562358276644	60	127
376.3714739229025	376.54562358276644	69	127
376.3714739229025	376.54562358276644	63	127
376.3714739229025	376.54562358276644	65	127
376.54562358276644	376.73138321995464	65	127
376.54562358276644	376.73138321995464	60	127
376.54562358276644	376.73138321995464	69	127
376.54562358276644	376.73138321995464	63	127
376.73138321995464	376.9055328798186	63	127
376.73138321995464	376.9055328798186	69	127
376.73138321995464	376.9055328798186	60	127
376.73138321995464	376.9055328798186	65	127
376.9055328798186	377.07968253968255	63	127
376.9055328798186	377.07968253968255	69	127
376.9055328798186	377.07968253968255	60	127
376.9055328798186	377.07968253968255	65	127
376.95197278911564	377.07968253968255	29	127
376.95197278911564	377.07968253968255	41	127
377.07968253968255	377.5905215419501	41	127
377.07968253968255	377.5905215419501	53	127
377.07968253968255	377.26544217687075	69	127
377.07968253968255	377.26544217687075	65	127
377.07968253968255	377.26544217687075	60	127
377.07968253968255	377.26544217687075	63	127
377.26544217687075	377.42795918367347	65	127
377.26544217687075	377.42795918367347	69	127
377.26544217687075	377.42795918367347	60	127
377.26544217687075	377.42795918367347	63	127
377.42795918367347	377.5905215419501	65	127
377.42795918367347	377.5905215419501	60	127
377.42795918367347	377.5905215419501	69	127
377.42795918367347	377.5905215419501	63	127
377.5905215419501	377.7762811791383	70	127
377.5905215419501	378.0084807256236	41	127
377.5905215419501	377.7762811791383	65	127
377.5905215419501	378.0084807256236	46	127
377.5905215419501	377.7762811791383	58	127
377.5905215419501	377.7762811791383	62	127
377.7762811791383	377.9620408163265	62	127
377.7762811791383	377.9620408163265	58	127
377.7762811791383	377.9620408163265	70	127
377.7762811791383	377.9620408163265	65	127
377.9620408163265	378.12458049886624	65	127
377.9620408163265	378.12458049886624	58	127
377.9620408163265	378.12458049886624	62	127
377.9620408163265	378.12458049886624	70	127
378.0084807256236	378.12458049886624	41	127
378.0084807256236	378.12458049886624	34	127
378.12458049886624	378.31034013605444	66	127
378.12458049886624	378.31034013605444	62	127
378.12458049886624	378.31034013605444	58	127
378.12458049886624	379.07659863945577	46	127
378.12458049886624	378.31034013605444	70	127
378.12458049886624	379.07659863945577	53	127
378.31034013605444	378.48448979591836	58	127
378.31034013605444	378.48448979591836	66	127
378.31034013605444	378.48448979591836	62	127
378.31034013605444	378.48448979591836	70	127
378.48448979591836	378.6586394557823	62	127
378.48448979591836	378.6586394557823	66	127
378.48448979591836	378.6586394557823	70	127
378.48448979591836	378.6586394557823	58	127
378.6586394557823	378.8327891156463	62	127
378.6586394557823	378.8327891156463	58	127
378.6586394557823	378.8327891156463	70	127
378.6586394557823	378.8327891156463	67	127
378.8327891156463	379.0185487528345	70	127
378.8327891156463	379.0185487528345	67	127
378.8327891156463	379.0185487528345	58	127
378.8327891156463	379.0185487528345	62	127
379.0185487528345	379.2043083900227	62	127
379.0185487528345	379.2043083900227	67	127
379.0185487528345	379.2043083900227	58	127
379.0185487528345	379.2043083900227	70	127
379.07659863945577	379.2043083900227	41	127
379.07659863945577	379.2043083900227	34	127
379.2043083900227	379.3668253968254	62	127
379.2043083900227	379.3668253968254	58	127
379.2043083900227	380.0982766439909	46	127
379.2043083900227	380.0982766439909	53	127
379.2043083900227	379.3668253968254	70	127
379.2043083900227	379.3668253968254	67	127
379.3668253968254	379.52938775510205	67	127
379.3668253968254	379.52938775510205	70	127
379.3668253968254	379.52938775510205	62	127
379.3668253968254	379.52938775510205	58	127
379.52938775510205	379.71514739229025	67	127
379.52938775510205	379.71514739229025	62	127
379.52938775510205	379.71514739229025	58	127
379.52938775510205	379.71514739229025	70	127
379.71514739229025	379.8892970521542	67	127
379.71514739229025	379.8892970521542	58	127
379.71514739229025	379.8892970521542	62	127
379.71514739229025	379.8892970521542	70	127
379.8892970521542	380.0518367346939	67	127
379.8892970521542	380.0518367346939	58	127
379.8892970521542	380.0518367346939	70	127
379.8892970521542	380.0518367346939	62	127
380.0518367346939	380.26081632653063	70	127
380.0518367346939	380.26081632653063	67	127
380.0518367346939	380.26081632653063	58	127
380.0518367346939	380.26081632653063	62	127
380.0982766439909	380.26081632653063	34	127
380.0982766439909	380.26081632653063	41	127
380.26081632653063	380.4233560090703	58	127
380.26081632653063	380.4233560090703	62	127
380.26081632653063	380.7716553287982	46	127
380.26081632653063	380.4233560090703	70	127
380.26081632653063	380.4233560090703	67	127
380.26081632653063	380.7716553287982	53	127
380.4233560090703	380.58589569161	67	127
380.4233560090703	380.58589569161	62	127
380.4233560090703	380.58589569161	58	127
380.4233560090703	380.58589569161	70	127
380.58589569161	380.7716553287982	62	127
380.58589569161	380.7716553287982	67	127
380.58589569161	380.7716553287982	70	127
380.58589569161	380.7716553287982	58	127
380.7716553287982	381.2824943310658	67	127
380.7716553287982	380.94580498866213	55	127
380.7716553287982	381.15478458049887	48	127
380.7716553287982	380.94580498866213	64	127
380.7716553287982	380.94580498866213	58	127
380.7716553287982	381.2824943310658	70	127
380.94580498866213	381.1083446712018	55	127
380.94580498866213	381.1083446712018	64	127
380.94580498866213	381.1083446712018	58	127
381.1083446712018	381.2824943310658	64	127
381.1083446712018	381.2824943310658	55	127
381.1083446712018	381.2824943310658	58	127
381.15478458049887	381.2824943310658	36	127
381.2824943310658	381.4566439909297	58	127
381.2824943310658	381.79333333333335	82	127
381.2824943310658	381.71206349206346	48	127
381.2824943310658	381.4566439909297	64	127
381.2824943310658	381.4566439909297	55	127
381.4566439909297	381.60757369614515	55	127
381.4566439909297	381.60757369614515	58	127
381.4566439909297	381.60757369614515	64	127
381.60757369614515	381.71206349206346	64	127
381.60757369614515	381.71206349206346	58	127
381.60757369614515	381.71206349206346	55	127
381.71206349206346	381.79333333333335	55	127
381.71206349206346	381.79333333333335	64	127
381.71206349206346	381.88621315192745	36	127
381.71206349206346	381.79333333333335	58	127
381.79333333333335	381.88621315192745	84	127
381.79333333333335	381.97909297052155	64	127
381.79333333333335	381.97909297052155	55	127
381.79333333333335	381.97909297052155	58	127
381.97909297052155	382.16485260770975	55	127
381.97909297052155	382.16485260770975	64	127
381.97909297052155	382.16485260770975	58	127
381.97909297052155	382.0603628117914	86	127
382.16485260770975	382.25773242630385	84	127
382.16485260770975	382.3390022675737	58	127
382.16485260770975	382.3390022675737	55	127
382.16485260770975	382.3390022675737	64	127
382.3390022675737	382.52476190476193	58	127
382.3390022675737	382.52476190476193	64	127
382.3390022675737	382.52476190476193	55	127
382.3390022675737	382.44349206349204	82	127
382.52476190476193	382.5944217687075	81	127
382.52476190476193	382.6873015873016	55	127
382.52476190476193	382.6873015873016	64	127
382.52476190476193	382.6873015873016	58	127
382.6873015873016	382.8730612244898	58	127
382.6873015873016	382.7801814058957	79	127
382.6873015873016	382.8730612244898	55	127
382.6873015873016	382.9659410430839	48	127
382.6873015873016	382.8730612244898	64	127
382.8730612244898	382.9659410430839	77	127
382.8730612244898	383.058820861678	64	127
382.8730612244898	383.058820861678	55	127
382.8730612244898	383.058820861678	58	127
383.058820861678	383.2213605442177	55	127
383.058820861678	383.2213605442177	58	127
383.058820861678	383.2213605442177	64	127
383.058820861678	383.1400907029479	76	127
383.2213605442177	383.39551020408163	55	127
383.2213605442177	383.39551020408163	58	127
383.2213605442177	383.3142403628118	74	127
383.2213605442177	383.39551020408163	64	127
383.39551020408163	383.60448979591837	55	127
383.39551020408163	383.60448979591837	64	127
383.39551020408163	383.60448979591837	58	127
383.39551020408163	383.51160997732427	72	127
383.60448979591837	383.7786394557823	64	127
383.60448979591837	383.6857596371882	70	127
383.60448979591837	383.7786394557823	58	127
383.60448979591837	383.7786394557823	55	127
383.7786394557823	384.2314285714286	41	127
383.7786394557823	384.33591836734695	68	127
383.7786394557823	383.9992290249433	61	127
383.7786394557823	383.9992290249433	58	127
383.9992290249433	384.1849886621315	58	127
383.9992290249433	384.1849886621315	61	127
384.1849886621315	384.33591836734695	58	127
384.1849886621315	384.33591836734695	61	127
384.2314285714286	384.33591836734695	29	127
384.33591836734695	384.8467573696145	41	127
384.33591836734695	384.47523809523807	58	127
384.33591836734695	384.8467573696145	67	127
384.33591836734695	384.47523809523807	61	127
384.47523809523807	384.6609977324263	58	127
384.47523809523807	384.6609977324263	61	127
384.6609977324263	384.8467573696145	58	127
384.6609977324263	384.8467573696145	61	127
384.8467573696145	385.0325170068027	55	127
384.8467573696145	385.0325170068027	61	127
384.8467573696145	385.0325170068027	58	127
384.8467573696145	385.1370068027211	29	127
385.0325170068027	385.2298866213152	55	127
385.0325170068027	385.2298866213152	61	127
385.0325170068027	385.2298866213152	58	127
385.2298866213152	385.4040362811791	58	127
385.2298866213152	385.4040362811791	61	127
385.2298866213152	385.4040362811791	55	127
385.27632653061227	385.4040362811791	61	127
385.4040362811791	385.5897959183674	58	127
385.4040362811791	385.5897959183674	61	127
385.4040362811791	385.5897959183674	55	127
385.4040362811791	386.3096145124717	73	127
385.5897959183674	385.7291156462585	55	127
385.5897959183674	385.7291156462585	61	127
385.5897959183674	385.7291156462585	58	127
385.7291156462585	385.9032653061224	61	127
385.7291156462585	385.9032653061224	58	127
385.7291156462585	385.9032653061224	55	127
385.9032653061224	386.1702947845805	41	127
385.9032653061224	386.0774149659864	58	127
385.9032653061224	386.0774149659864	61	127
385.9032653061224	386.0774149659864	55	127
386.0774149659864	386.2631746031746	58	127
386.0774149659864	386.2631746031746	55	127
386.0774149659864	386.2631746031746	61	127
386.2631746031746	386.43732426303853	61	127
386.2631746031746	386.43732426303853	55	127
386.2631746031746	386.43732426303853	58	127
386.3096145124717	386.43732426303853	61	127
386.43732426303853	386.78562358276645	73	127
386.43732426303853	386.62308390022673	61	127
386.43732426303853	386.62308390022673	55	127
386.43732426303853	386.62308390022673	58	127
386.62308390022673	386.6695238095238	55	127
386.62308390022673	386.6695238095238	58	127
386.62308390022673	386.6695238095238	61	127
386.6695238095238	386.78562358276645	55	127
386.6695238095238	386.78562358276645	61	127
386.6695238095238	386.78562358276645	58	127
386.78562358276645	386.9829931972789	58	127
386.78562358276645	387.06426303854875	72	127
386.78562358276645	386.9829931972789	60	127
386.78562358276645	387.2035827664399	40	127
386.9829931972789	387.15714285714284	60	127
386.9829931972789	387.15714285714284	58	127
387.15714285714284	387.34290249433104	60	127
387.15714285714284	387.34290249433104	58	127
387.2035827664399	387.34290249433104	28	127
387.34290249433104	387.517052154195	58	127
387.34290249433104	387.8653514739229	40	127
387.34290249433104	388.03950113378687	82	127
387.34290249433104	387.517052154195	60	127
387.517052154195	387.69120181405896	60	127
387.517052154195	387.69120181405896	58	127
387.69120181405896	387.8653514739229	58	127
387.69120181405896	387.8653514739229	60	127
387.8653514739229	388.03950113378687	60	127
387.8653514739229	388.13238095238097	28	127
387.8653514739229	388.03950113378687	58	127
387.8653514739229	388.03950113378687	55	127
388.03950113378687	388.2136507936508	58	127
388.03950113378687	388.2136507936508	60	127
388.03950113378687	388.13238095238097	84	127
388.03950113378687	388.2136507936508	55	127
388.2136507936508	388.399410430839	60	127
388.2136507936508	388.3065306122449	85	127
388.2136507936508	388.399410430839	55	127
388.2136507936508	388.399410430839	58	127
388.399410430839	388.5387301587302	55	127
388.399410430839	388.46907029478456	84	127
388.399410430839	388.5387301587302	58	127
388.399410430839	388.5387301587302	60	127
388.5387301587302	388.7128798185941	55	127
388.5387301587302	388.7128798185941	58	127
388.5387301587302	388.7128798185941	60	127
388.5387301587302	388.62	82	127
388.7128798185941	388.79414965986393	80	127
388.7128798185941	388.87541950113376	55	127
388.7128798185941	388.87541950113376	58	127
388.7128798185941	388.87541950113376	60	127
388.87541950113376	388.9682993197279	58	127
388.87541950113376	388.9450793650794	79	127
388.87541950113376	389.061179138322	40	127
388.87541950113376	388.9682993197279	55	127
388.87541950113376	388.9682993197279	60	127
388.9682993197279	389.1540589569161	55	127
388.9682993197279	389.1540589569161	60	127
388.9682993197279	389.061179138322	77	127
388.9682993197279	389.1540589569161	58	127
389.1540589569161	389.3398185941043	60	127
389.1540589569161	389.3398185941043	55	127
389.1540589569161	389.2469387755102	76	127
389.1540589569161	389.3398185941043	58	127
389.3398185941043	389.51396825396824	55	127
389.3398185941043	389.51396825396824	58	127
389.3398185941043	389.42108843537414	73	127
389.3398185941043	389.51396825396824	60	127
389.51396825396824	389.60684807256234	72	127
389.51396825396824	389.6881179138322	60	127
389.51396825396824	389.6881179138322	58	127
389.51396825396824	389.6881179138322	55	127
389.6881179138322	389.9087074829932	60	127
389.6881179138322	389.78099773242633	70	127
389.6881179138322	389.9087074829932	58	127
389.6881179138322	389.9087074829932	55	127
389.9087074829932	390.0712471655329	61	127
389.9087074829932	390.45437641723356	68	127
389.9087074829932	390.0712471655329	58	127
389.9087074829932	390.2918367346939	41	127
390.0712471655329	390.2453968253968	61	127
390.0712471655329	390.2453968253968	58	127
390.2453968253968	390.45437641723356	58	127
390.2453968253968	390.45437641723356	61	127
390.2918367346939	390.45437641723356	29	127
390.45437641723356	390.6169160997732	61	127
390.45437641723356	390.9884353741497	41	127
390.45437641723356	390.6169160997732	58	127
390.45437641723356	390.9884353741497	67	127
390.6169160997732	390.7910657596372	58	127
390.6169160997732	390.7910657596372	61	127
390.7910657596372	390.9884353741497	58	127
390.7910657596372	390.9884353741497	61	127
390.9884353741497	391.27868480725624	29	127
390.9884353741497	391.18580498866214	58	127
390.9884353741497	391.18580498866214	61	127
390.9884353741497	391.18580498866214	55	127
391.18580498866214	391.3483446712018	61	127
391.18580498866214	391.3483446712018	55	127
391.18580498866214	391.3483446712018	58	127
391.3483446712018	391.53410430839	58	127
391.3483446712018	391.53410430839	61	127
391.3483446712018	391.53410430839	55	127
391.3947845804989	391.53410430839	61	127
391.53410430839	391.6966439909297	55	127
391.53410430839	391.6966439909297	58	127
391.53410430839	391.6966439909297	61	127
391.53410430839	392.4280725623583	73	127
391.6966439909297	391.8591836734694	58	127
391.6966439909297	391.8591836734694	55	127
391.6966439909297	391.8591836734694	61	127
391.8591836734694	392.03333333333336	61	127
391.8591836734694	392.03333333333336	58	127
391.8591836734694	392.03333333333336	55	127
392.03333333333336	392.3003628117914	41	127
392.03333333333336	392.2074829931973	55	127
392.03333333333336	392.2074829931973	61	127
392.03333333333336	392.2074829931973	58	127
392.2074829931973	392.3932426303855	58	127
392.2074829931973	392.3932426303855	55	127
392.2074829931973	392.3932426303855	61	127
392.3932426303855	392.5673922902494	58	127
392.3932426303855	392.5673922902494	55	127
392.3932426303855	392.5673922902494	61	127
392.4280725623583	392.5673922902494	61	127
392.5673922902494	392.91569160997733	73	127
392.5673922902494	392.68349206349205	55	127
392.5673922902494	392.68349206349205	58	127
392.5673922902494	392.68349206349205	61	127
392.68349206349205	392.82281179138323	58	127
392.68349206349205	392.82281179138323	55	127
392.68349206349205	392.82281179138323	61	127
392.82281179138323	392.91569160997733	55	127
392.82281179138323	392.91569160997733	61	127
392.82281179138323	392.91569160997733	58	127
392.91569160997733	393.3452607709751	40	127
392.91569160997733	393.08984126984126	58	127
392.91569160997733	393.08984126984126	60	127
392.91569160997733	393.1943310657596	72	127
393.08984126984126	393.298820861678	60	127
393.08984126984126	393.298820861678	58	127
393.298820861678	393.49619047619046	58	127
393.298820861678	393.49619047619046	60	127
393.3452607709751	393.49619047619046	28	127
393.49619047619046	394.09990929705214	82	127
393.49619047619046	393.94897959183675	40	127
393.49619047619046	393.67034013605445	60	127
393.49619047619046	393.67034013605445	58	127
393.67034013605445	393.78643990929703	58	127
393.67034013605445	393.78643990929703	60	127
393.78643990929703	393.94897959183675	60	127
393.78643990929703	393.94897959183675	58	127
393.94897959183675	394.19278911564624	28	127
393.94897959183675	394.09990929705214	55	127
393.94897959183675	394.09990929705214	58	127
393.94897959183675	394.09990929705214	60	127
394.09990929705214	394.19278911564624	84	127
394.09990929705214	394.2740589569161	60	127
394.09990929705214	394.2740589569161	58	127
394.09990929705214	394.2740589569161	55	127
394.2740589569161	394.4714285714286	60	127
394.2740589569161	394.4714285714286	58	127
394.2740589569161	394.4714285714286	55	127
394.2740589569161	394.3669387755102	85	127
394.4714285714286	394.57591836734696	84	127
394.4714285714286	394.66879818594106	58	127
394.4714285714286	394.66879818594106	60	127
394.4714285714286	394.66879818594106	55	127
394.66879818594106	394.85455782312926	58	127
394.66879818594106	394.85455782312926	55	127
394.66879818594106	394.7500680272109	82	127
394.66879818594106	394.85455782312926	60	127
394.85455782312926	394.98226757369616	55	127
394.85455782312926	394.98226757369616	58	127
394.85455782312926	394.91260770975055	80	127
394.85455782312926	394.98226757369616	60	127
394.98226757369616	395.1564172335601	58	127
394.98226757369616	395.2376870748299	40	127
394.98226757369616	395.063537414966	79	127
394.98226757369616	395.1564172335601	60	127
394.98226757369616	395.1564172335601	55	127
395.1564172335601	395.2376870748299	77	127
395.1564172335601	395.3421768707483	58	127
395.1564172335601	395.3421768707483	60	127
395.1564172335601	395.3421768707483	55	127
395.3421768707483	395.504716553288	58	127
395.3421768707483	395.504716553288	60	127
395.3421768707483	395.4234467120181	76	127
395.3421768707483	395.504716553288	55	127
395.504716553288	395.57437641723357	73	127
395.504716553288	395.6556462585034	55	127
395.504716553288	395.6556462585034	58	127
395.504716553288	395.6556462585034	60	127
395.6556462585034	395.7369160997732	72	127
395.6556462585034	395.8297959183673	55	127
395.6556462585034	395.8297959183673	60	127
395.6556462585034	395.8297959183673	58	127
395.8297959183673	396.0155555555556	55	127
395.8297959183673	395.9342857142857	70	127
395.8297959183673	396.0155555555556	58	127
395.8297959183673	396.0155555555556	60	127
396.0155555555556	396.4102947845805	36	127
396.0155555555556	396.2013151927438	58	127
396.0155555555556	396.2013151927438	52	127
396.0155555555556	396.54961451247163	68	127
396.2013151927438	396.36385487528344	58	127
396.2013151927438	396.36385487528344	52	127
396.36385487528344	396.54961451247163	58	127
396.36385487528344	396.54961451247163	52	127
396.4102947845805	396.54961451247163	24	127
396.54961451247163	396.7469841269841	52	127
396.54961451247163	397.08367346938775	67	127
396.54961451247163	396.7469841269841	58	127
396.54961451247163	397.5132426303855	36	127
396.7469841269841	396.93274376417236	58	127
396.7469841269841	396.93274376417236	52	127
396.93274376417236	397.08367346938775	52	127
396.93274376417236	397.08367346938775	58	127
397.08367346938775	397.2810430839002	55	127
397.08367346938775	397.2810430839002	60	127
397.08367346938775	397.2810430839002	58	127
397.2810430839002	397.4668027210884	58	127
397.2810430839002	397.4668027210884	60	127
397.2810430839002	397.4668027210884	55	127
397.4668027210884	397.65256235827667	60	127
397.4668027210884	397.65256235827667	58	127
397.4668027210884	397.65256235827667	55	127
397.5132426303855	397.65256235827667	24	127
397.65256235827667	397.8267120181406	60	127
397.65256235827667	397.8267120181406	58	127
397.65256235827667	398.56975056689345	36	127
397.65256235827667	397.8267120181406	55	127
397.8267120181406	397.977641723356	58	127
397.8267120181406	397.977641723356	55	127
397.8267120181406	397.977641723356	60	127
397.977641723356	398.16340136054424	60	127
397.977641723356	398.16340136054424	55	127
397.977641723356	398.16340136054424	58	127
398.16340136054424	398.72068027210884	68	127
398.16340136054424	398.33755102040817	58	127
398.16340136054424	398.33755102040817	52	127
398.33755102040817	398.52331065759637	58	127
398.33755102040817	398.52331065759637	52	127
398.52331065759637	398.72068027210884	58	127
398.52331065759637	398.72068027210884	52	127
398.56975056689345	398.72068027210884	24	127
398.72068027210884	398.89482993197277	58	127
398.72068027210884	398.89482993197277	52	127
398.72068027210884	399.69591836734696	36	127
398.72068027210884	399.2663492063492	67	127
398.89482993197277	399.06897959183675	52	127
398.89482993197277	399.06897959183675	58	127
399.06897959183675	399.2663492063492	58	127
399.06897959183675	399.2663492063492	52	127
399.2663492063492	399.47532879818596	55	127
399.2663492063492	399.47532879818596	60	127
399.2663492063492	399.47532879818596	58	127
399.47532879818596	399.6494784580499	58	127
399.47532879818596	399.6494784580499	55	127
399.47532879818596	399.6494784580499	60	127
399.6494784580499	399.8352380952381	55	127
399.6494784580499	399.8352380952381	60	127
399.6494784580499	399.8352380952381	58	127
399.69591836734696	399.8352380952381	24	127
399.8352380952381	399.9977777777778	60	127
399.8352380952381	399.9977777777778	55	127
399.8352380952381	399.9977777777778	58	127
399.8352380952381	400.7292063492063	36	127
399.9977777777778	400.1487074829932	55	127
399.9977777777778	400.1487074829932	60	127
399.9977777777778	400.1487074829932	58	127
400.1487074829932	400.3228571428571	55	127
400.1487074829932	400.3228571428571	58	127
400.1487074829932	400.3228571428571	60	127
400.3228571428571	400.8685260770975	68	127
400.3228571428571	400.4970068027211	52	127
400.3228571428571	400.4970068027211	58	127
400.4970068027211	400.6827664399093	52	127
400.4970068027211	400.6827664399093	58	127
400.6827664399093	400.8685260770975	52	127
400.6827664399093	400.8685260770975	58	127
400.7292063492063	400.8685260770975	24	127
400.8685260770975	401.0891156462585	52	127
400.8685260770975	401.0891156462585	58	127
400.8685260770975	401.4606349206349	67	127
400.8685260770975	401.9018140589569	36	127
401.0891156462585	401.26326530612243	58	127
401.0891156462585	401.26326530612243	52	127
401.26326530612243	401.4606349206349	58	127
401.26326530612243	401.4606349206349	52	127
401.4606349206349	401.6347845804989	58	127
401.4606349206349	401.6347845804989	55	127
401.4606349206349	401.6347845804989	60	127
401.6347845804989	401.8669841269841	58	127
401.6347845804989	401.8669841269841	60	127
401.6347845804989	401.8669841269841	55	127
401.8669841269841	402.0411337868481	60	127
401.8669841269841	402.0411337868481	58	127
401.8669841269841	402.0411337868481	55	127
401.9018140589569	402.0411337868481	24	127
402.0411337868481	402.92349206349206	36	127
402.0411337868481	402.215283446712	55	127
402.0411337868481	402.215283446712	60	127
402.0411337868481	402.215283446712	58	127
402.215283446712	402.4010430839002	60	127
402.215283446712	402.4010430839002	58	127
402.215283446712	402.4010430839002	55	127
402.4010430839002	402.55197278911567	55	127
402.4010430839002	402.55197278911567	58	127
402.4010430839002	402.55197278911567	60	127
402.55197278911567	402.7145124716553	58	127
402.55197278911567	402.7145124716553	55	127
402.55197278911567	402.7145124716553	48	127
402.7145124716553	402.88866213151925	55	127
402.7145124716553	402.88866213151925	58	127
402.7145124716553	402.88866213151925	48	127
402.88866213151925	403.06281179138324	58	127
402.88866213151925	403.06281179138324	55	127
402.88866213151925	403.06281179138324	48	127
402.92349206349206	403.06281179138324	24	127
403.06281179138324	403.23696145124717	58	127
403.06281179138324	403.23696145124717	55	127
403.06281179138324	403.96839002267575	36	127
403.06281179138324	403.23696145124717	48	127
403.23696145124717	403.4111111111111	55	127
403.23696145124717	403.4111111111111	48	127
403.23696145124717	403.4111111111111	58	127
403.4111111111111	403.5736507936508	58	127
403.4111111111111	403.5736507936508	55	127
403.4111111111111	403.5736507936508	48	127
403.5736507936508	403.74780045351474	57	127
403.5736507936508	403.74780045351474	48	127
403.5736507936508	403.74780045351474	53	127
403.74780045351474	403.92195011337867	48	127
403.74780045351474	403.92195011337867	57	127
403.74780045351474	403.92195011337867	53	127
403.92195011337867	404.11931972789114	57	127
403.92195011337867	404.11931972789114	48	127
403.92195011337867	404.11931972789114	53	127
403.96839002267575	404.11931972789114	24	127
404.11931972789114	404.3050793650794	57	127
404.11931972789114	404.3050793650794	48	127
404.11931972789114	405.05972789115646	36	127
404.11931972789114	404.3050793650794	53	127
404.3050793650794	404.4908390022676	53	127
404.3050793650794	404.4908390022676	48	127
404.3050793650794	404.4908390022676	57	127
404.4908390022676	404.6649886621315	48	127
404.4908390022676	404.6649886621315	57	127
404.4908390022676	404.6649886621315	53	127
404.6649886621315	404.8507482993197	52	127
404.6649886621315	404.8507482993197	55	127
404.6649886621315	404.8507482993197	48	127
404.8507482993197	405.01328798185943	48	127
404.8507482993197	405.01328798185943	55	127
404.8507482993197	405.01328798185943	52	127
405.01328798185943	405.18743764172336	55	127
405.01328798185943	405.18743764172336	48	127
405.01328798185943	405.18743764172336	52	127
405.05972789115646	405.18743764172336	24	127
405.18743764172336	406.18589569160997	36	127
405.18743764172336	405.3615873015873	48	127
405.18743764172336	405.3615873015873	55	127
405.18743764172336	405.3615873015873	52	127
405.3615873015873	405.5357369614512	52	127
405.3615873015873	405.5357369614512	48	127
405.3615873015873	405.5357369614512	55	127
405.5357369614512	405.73310657596375	52	127
405.5357369614512	405.73310657596375	48	127
405.5357369614512	405.73310657596375	55	127
405.73310657596375	405.9304761904762	62	127
405.73310657596375	405.9304761904762	48	127
405.73310657596375	405.9304761904762	53	127
405.9304761904762	406.13945578231295	48	127
405.9304761904762	406.13945578231295	62	127
405.9304761904762	406.13945578231295	53	127
406.13945578231295	406.3136054421769	62	127
406.13945578231295	406.3136054421769	53	127
406.13945578231295	406.3136054421769	48	127
406.18589569160997	406.3136054421769	24	127
406.3136054421769	406.5225850340136	53	127
406.3136054421769	407.3468934240363	36	127
406.3136054421769	406.5225850340136	62	127
406.3136054421769	406.5225850340136	48	127
406.5225850340136	406.7431746031746	48	127
406.5225850340136	406.7431746031746	53	127
406.5225850340136	406.7431746031746	62	127
406.7431746031746	406.9289342403628	62	127
406.7431746031746	406.9289342403628	53	127
406.7431746031746	406.9289342403628	48	127
406.9289342403628	407.1263038548753	48	127
406.9289342403628	407.1263038548753	60	127
406.9289342403628	407.1263038548753	53	127
407.1263038548753	407.3004535147392	48	127
407.1263038548753	407.3004535147392	60	127
407.1263038548753	407.3004535147392	53	127
407.3004535147392	407.50943310657595	48	127
407.3004535147392	407.50943310657595	53	127
407.3004535147392	407.50943310657595	60	127
407.3468934240363	407.50943310657595	24	127
407.50943310657595	408.51950113378683	36	127
407.50943310657595	407.76485260770977	48	127
407.50943310657595	407.76485260770977	53	127
407.50943310657595	407.76485260770977	60	127
407.76485260770977	407.9390022675737	48	127
407.76485260770977	407.9390022675737	60	127
407.76485260770977	407.9390022675737	53	127
407.9390022675737	408.1131519274376	60	127
407.9390022675737	408.1131519274376	48	127
407.9390022675737	408.1131519274376	53	127
408.1131519274376	408.2989115646258	52	127
408.1131519274376	408.2989115646258	48	127
408.1131519274376	408.2989115646258	58	127
408.2989115646258	408.4730612244898	48	127
408.2989115646258	408.4730612244898	52	127
408.2989115646258	408.4730612244898	58	127
408.4730612244898	408.70526077097503	58	127
408.4730612244898	408.70526077097503	52	127
408.4730612244898	408.70526077097503	48	127
408.51950113378683	408.70526077097503	24	127
408.70526077097503	408.92585034013604	52	127
408.70526077097503	409.40185941043086	36	127
408.70526077097503	408.92585034013604	48	127
408.70526077097503	408.92585034013604	58	127
408.92585034013604	409.1	52	127
408.92585034013604	409.1	48	127
408.92585034013604	409.1	58	127
409.1	409.40185941043086	52	127
409.1	409.40185941043086	48	127
409.1	409.40185941043086	58	127
409.40185941043086	409.5992290249433	48	127
409.40185941043086	409.5992290249433	53	127
409.40185941043086	409.5992290249433	29	127
409.40185941043086	409.5992290249433	57	127
409.86625850340135	410.05201814058955	53	127
409.86625850340135	410.05201814058955	29	127
409.86625850340135	410.05201814058955	57	127
409.86625850340135	410.05201814058955	48	127
410.05201814058955	410.17972789115646	53	127
410.05201814058955	410.17972789115646	48	127
410.05201814058955	410.17972789115646	57	127
410.05201814058955	410.17972789115646	29	127
410.7021768707483	410.89954648526077	57	127
410.7021768707483	410.89954648526077	53	127
410.7021768707483	410.89954648526077	48	127
410.7021768707483	410.89954648526077	29	127
411.2014058956916	411.35233560090705	53	127
411.2014058956916	411.35233560090705	57	127
411.2014058956916	411.35233560090705	48	127
411.2014058956916	411.35233560090705	29	127
411.35233560090705	411.4916553287982	29	127
411.35233560090705	411.4916553287982	53	127
411.35233560090705	411.4916553287982	48	127
411.35233560090705	411.4916553287982	57	127
411.967664399093	412.16503401360546	57	127
411.967664399093	412.16503401360546	29	127
411.967664399093	412.16503401360546	53	127
411.967664399093	412.16503401360546	48	127
412.50172335600905	412.66426303854877	29	127
412.50172335600905	412.66426303854877	48	127
412.50172335600905	412.66426303854877	57	127
412.50172335600905	412.66426303854877	53	127
412.66426303854877	412.7919727891156	53	127
412.66426303854877	412.7919727891156	48	127
412.66426303854877	412.7919727891156	57	127
412.66426303854877	412.7919727891156	29	127
413.2099319727891	413.6162811791383	29	127
413.2099319727891	413.6162811791383	55	127
413.2099319727891	413.6162811791383	52	127
413.2099319727891	413.6162811791383	48	127
413.2099319727891	413.6162811791383	58	127
413.8484807256236	414.0110204081633	29	127
413.8484807256236	414.0110204081633	58	127
413.8484807256236	414.0110204081633	55	127
413.8484807256236	414.0110204081633	48	127
413.8484807256236	414.0110204081633	52	127
414.0110204081633	414.12712018140587	48	127
414.0110204081633	414.12712018140587	52	127
414.0110204081633	414.12712018140587	29	127
414.0110204081633	414.12712018140587	55	127
414.0110204081633	414.12712018140587	58	127
414.5334693877551	414.7308390022676	58	127
414.5334693877551	414.7308390022676	48	127
414.5334693877551	414.7308390022676	52	127
414.5334693877551	414.7308390022676	29	127
414.5334693877551	414.7308390022676	55	127
414.9398185941043	415.0675283446712	52	127
414.9398185941043	415.0675283446712	55	127
414.9398185941043	415.0675283446712	58	127
414.9398185941043	415.0675283446712	48	127
414.9398185941043	415.0675283446712	29	127
415.0675283446712	415.1952380952381	29	127
415.0675283446712	415.1952380952381	58	127
415.0675283446712	415.1952380952381	52	127
415.0675283446712	415.1952380952381	55	127
415.0675283446712	415.1952380952381	48	127
415.62480725623584	415.81056689342404	29	127
415.62480725623584	415.81056689342404	58	127
415.62480725623584	415.81056689342404	55	127
415.62480725623584	415.81056689342404	48	127
416.0195464852608	416.2401360544218	29	127
416.0195464852608	416.2401360544218	58	127
416.0195464852608	416.2401360544218	55	127
416.0195464852608	416.2401360544218	48	127
416.2401360544218	416.40267573696144	58	127
416.2401360544218	416.40267573696144	29	127
416.2401360544218	416.40267573696144	55	127
416.2401360544218	416.4607256235828	46	127
416.68131519274374	416.8206349206349	48	127
416.8206349206349	417.97002267573697	65	127
416.8206349206349	417.1805442176871	53	127
416.8206349206349	417.1805442176871	57	127
416.8206349206349	417.97002267573697	57	127
416.8206349206349	417.1805442176871	29	127
416.8206349206349	417.1805442176871	48	127
417.4127437641723	417.56367346938777	53	127
417.4127437641723	417.56367346938777	48	127
417.4127437641723	417.56367346938777	57	127
417.4127437641723	417.56367346938777	29	127
417.56367346938777	417.7029931972789	48	127
417.56367346938777	417.7029931972789	57	127
417.56367346938777	417.7029931972789	53	127
417.56367346938777	417.7029931972789	29	127
417.97002267573697	418.0977324263039	69	127
418.0977324263039	418.3067120181406	57	127
418.0977324263039	419.07297052154195	72	127
418.0977324263039	418.3067120181406	53	127
418.0977324263039	418.3067120181406	29	127
418.0977324263039	418.3067120181406	48	127
418.51569160997735	418.6550113378685	57	127
418.51569160997735	418.6550113378685	53	127
418.51569160997735	418.6550113378685	29	127
418.51569160997735	418.6550113378685	48	127
418.6550113378685	418.79433106575965	53	127
418.6550113378685	418.79433106575965	48	127
418.6550113378685	418.79433106575965	29	127
418.6550113378685	418.79433106575965	57	127
419.07297052154195	419.20068027210885	72	127
419.20068027210885	419.51414965986396	48	127
419.20068027210885	419.51414965986396	29	127
419.20068027210885	420.29201814058956	77	127
419.20068027210885	419.51414965986396	53	127
419.20068027210885	419.51414965986396	57	127
419.7115192743764	419.8740589569161	29	127
419.7115192743764	419.8740589569161	57	127
419.7115192743764	419.8740589569161	53	127
419.7115192743764	419.8740589569161	48	127
419.8740589569161	420.01337868480726	48	127
419.8740589569161	420.01337868480726	29	127
419.8740589569161	420.01337868480726	53	127
419.8740589569161	420.01337868480726	57	127
420.29201814058956	420.43133786848074	81	127
420.43133786848074	421.4994557823129	82	127
420.43133786848074	420.7680272108843	58	127
420.43133786848074	420.7680272108843	52	127
420.43133786848074	420.7680272108843	48	127
420.43133786848074	420.7680272108843	29	127
420.96539682539685	421.104716553288	48	127
420.96539682539685	421.104716553288	29	127
420.96539682539685	421.104716553288	52	127
420.96539682539685	421.104716553288	58	127
421.104716553288	421.2324263038549	29	127
421.104716553288	421.2324263038549	52	127
421.104716553288	421.2324263038549	58	127
421.104716553288	421.2324263038549	48	127
421.4994557823129	421.6387755102041	76	127
421.6387755102041	421.89419501133784	52	127
421.6387755102041	421.89419501133784	29	127
421.6387755102041	421.89419501133784	58	127
421.6387755102041	422.7185034013605	79	127
421.6387755102041	421.89419501133784	48	127
422.1031746031746	422.3121541950113	52	127
422.1031746031746	422.3121541950113	48	127
422.1031746031746	422.3121541950113	29	127
422.1031746031746	422.3121541950113	58	127
422.3121541950113	422.46308390022676	58	127
422.3121541950113	422.46308390022676	52	127
422.3121541950113	422.46308390022676	29	127
422.3121541950113	422.46308390022676	48	127
422.7185034013605	422.8578231292517	67	127
422.8578231292517	423.05519274376417	49	127
422.8578231292517	423.8911111111111	70	127
422.8578231292517	423.05519274376417	29	127
422.8578231292517	423.05519274376417	55	127
422.8578231292517	423.05519274376417	64	127
423.2757823129252	423.43832199546483	29	127
423.2757823129252	423.43832199546483	64	127
423.2757823129252	423.43832199546483	55	127
423.2757823129252	423.43832199546483	49	127
423.43832199546483	423.56603174603174	29	127
423.43832199546483	423.56603174603174	55	127
423.43832199546483	423.69374149659865	46	127
423.43832199546483	423.56603174603174	64	127
423.8911111111111	424.0304308390023	48	127
423.8911111111111	423.9607709750567	72	127
423.9607709750567	424.0304308390023	70	127
424.0304308390023	424.23941043083903	29	127
424.0304308390023	424.23941043083903	48	127
424.0304308390023	424.23941043083903	57	127
424.0304308390023	425.09854875283446	69	127
424.0304308390023	424.23941043083903	53	127
424.46	424.63414965986397	57	127
424.46	424.63414965986397	48	127
424.46	424.63414965986397	29	127
424.46	424.63414965986397	53	127
424.63414965986397	424.83151927437643	57	127
424.63414965986397	424.83151927437643	53	127
424.63414965986397	424.83151927437643	29	127
424.63414965986397	424.83151927437643	48	127
425.09854875283446	425.23786848072564	69	127
425.23786848072564	425.45845804988664	48	127
425.23786848072564	425.45845804988664	57	127
425.23786848072564	426.3872562358277	72	127
425.23786848072564	425.45845804988664	53	127
425.23786848072564	425.45845804988664	29	127
425.79514739229023	425.9344671201814	53	127
425.79514739229023	425.9344671201814	48	127
425.79514739229023	425.9344671201814	29	127
425.79514739229023	425.9344671201814	57	127
425.9344671201814	426.0737868480726	29	127
425.9344671201814	426.0737868480726	48	127
425.9344671201814	426.0737868480726	57	127
425.9344671201814	426.0737868480726	53	127
426.3872562358277	426.5033560090703	72	127
426.5033560090703	426.73555555555555	49	127
426.5033560090703	426.73555555555555	58	127
426.5033560090703	426.73555555555555	52	127
426.5033560090703	427.5250340136054	73	127
426.5033560090703	426.73555555555555	29	127
426.95614512471656	427.08385487528346	58	127
426.95614512471656	427.08385487528346	49	127
426.95614512471656	427.08385487528346	29	127
426.95614512471656	427.08385487528346	52	127
427.08385487528346	427.23478458049885	29	127
427.08385487528346	427.23478458049885	52	127
427.08385487528346	427.23478458049885	49	127
427.08385487528346	427.23478458049885	58	127
427.5250340136054	427.6527437641723	64	127
427.6527437641723	427.8849433106576	48	127
427.6527437641723	427.8849433106576	29	127
427.6527437641723	428.74408163265304	65	127
427.6527437641723	427.8849433106576	53	127
427.6527437641723	427.8849433106576	57	127
428.17519274376417	428.3261224489796	48	127
428.17519274376417	428.3261224489796	29	127
428.17519274376417	428.3261224489796	57	127
428.17519274376417	428.3261224489796	53	127
428.3261224489796	428.46544217687074	57	127
428.3261224489796	428.46544217687074	53	127
428.3261224489796	428.46544217687074	48	127
428.3261224489796	428.46544217687074	29	127
428.74408163265304	428.8834013605442	69	127
428.8834013605442	429.2084807256236	57	127
428.8834013605442	429.2084807256236	53	127
428.8834013605442	429.2084807256236	48	127
428.8834013605442	430.021179138322	72	127
428.8834013605442	429.2084807256236	29	127
429.44068027210886	429.58	48	127
429.44068027210886	429.58	29	127
429.44068027210886	429.58	57	127
429.44068027210886	429.58	53	127
429.58	429.7425396825397	53	127
429.58	429.7425396825397	48	127
429.58	429.7425396825397	57	127
429.58	429.7425396825397	29	127
430.021179138322	430.1488888888889	72	127
430.1488888888889	430.5552380952381	29	127
430.1488888888889	430.5552380952381	49	127
430.1488888888889	430.5552380952381	58	127
430.1488888888889	431.3331065759637	73	127
430.1488888888889	430.5552380952381	52	127
430.78743764172333	430.91514739229024	29	127
430.78743764172333	430.91514739229024	58	127
430.78743764172333	430.91514739229024	52	127
430.78743764172333	430.91514739229024	49	127
430.91514739229024	431.0544671201814	49	127
430.91514739229024	431.0544671201814	52	127
430.91514739229024	431.0544671201814	58	127
430.91514739229024	431.0544671201814	29	127
431.3331065759637	431.4608163265306	64	127
431.4608163265306	431.7046258503401	53	127
431.4608163265306	431.7046258503401	48	127
431.4608163265306	431.7046258503401	29	127
431.4608163265306	431.7046258503401	57	127
431.4608163265306	432.57537414965986	65	127
431.9716553287982	432.13419501133785	57	127
431.9716553287982	432.13419501133785	48	127
431.9716553287982	432.13419501133785	29	127
431.9716553287982	432.13419501133785	53	127
432.13419501133785	432.29673469387757	48	127
432.13419501133785	432.29673469387757	29	127
432.13419501133785	432.29673469387757	57	127
432.13419501133785	432.29673469387757	53	127
432.57537414965986	432.71469387755104	65	127
432.71469387755104	432.9701133786848	53	127
432.71469387755104	432.9701133786848	29	127
432.71469387755104	432.9701133786848	57	127
432.71469387755104	432.9701133786848	48	127
432.71469387755104	433.9221315192744	60	127
433.35324263038547	433.49256235827664	57	127
433.35324263038547	433.49256235827664	29	127
433.35324263038547	433.49256235827664	48	127
433.35324263038547	433.49256235827664	53	127
433.49256235827664	433.6318820861678	57	127
433.49256235827664	433.6318820861678	48	127
433.49256235827664	433.6318820861678	29	127
433.49256235827664	433.6318820861678	53	127
433.9221315192744	434.08467120181405	60	127
434.08467120181405	435.141179138322	69	127
434.08467120181405	434.27043083900224	29	127
434.08467120181405	434.27043083900224	57	127
434.08467120181405	434.27043083900224	48	127
434.08467120181405	434.27043083900224	53	127
434.52585034013606	434.67678004535145	48	127
434.52585034013606	434.67678004535145	53	127
434.52585034013606	434.67678004535145	29	127
434.52585034013606	434.67678004535145	57	127
434.67678004535145	434.8277097505669	48	127
434.67678004535145	434.8277097505669	53	127
434.67678004535145	434.8277097505669	29	127
434.67678004535145	434.8277097505669	57	127
435.141179138322	435.30371882086166	69	127
435.30371882086166	440.3888888888889	57	127
435.30371882086166	440.3888888888889	53	127
435.30371882086166	440.3888888888889	48	127
435.30371882086166	440.3888888888889	65	127
435.30371882086166	440.3888888888889	29	127
