# onset,offset,note,velocity
0.20820861678004535	1.4156462585034013	69	127
0.20820861678004535	1.4156462585034013	81	127
1.4156462585034013	2.715963718820862	84	127
1.4156462585034013	2.715963718820862	72	127
2.715963718820862	3.3080725623582765	74	127
2.715963718820862	3.3080725623582765	62	127
3.3080725623582765	3.9117913832199545	76	127
3.3080725623582765	3.9117913832199545	64	127
3.9117913832199545	3.981451247165533	65	127
3.9117913832199545	3.981451247165533	77	127
3.981451247165533	4.0859410430839	67	127
3.981451247165533	4.0859410430839	79	127
4.0859410430839	4.155600907029479	65	127
4.0859410430839	4.155600907029479	77	127
4.155600907029479	4.260090702947846	67	127
4.155600907029479	4.260090702947846	79	127
4.260090702947846	4.387800453514739	77	127
4.260090702947846	4.387800453514739	65	127
4.387800453514739	4.457460317460318	67	127
4.387800453514739	4.457460317460318	79	127
4.457460317460318	4.527120181405896	77	127
4.457460317460318	4.527120181405896	65	127
4.527120181405896	4.585170068027211	79	127
4.527120181405896	4.585170068027211	67	127
4.585170068027211	4.643219954648526	65	127
4.585170068027211	4.643219954648526	77	127
4.643219954648526	4.724467120181406	67	127
4.643219954648526	4.724467120181406	79	127
4.724467120181406	4.794149659863946	77	127
4.724467120181406	4.794149659863946	65	127
4.794149659863946	4.852199546485261	79	127
4.794149659863946	4.852199546485261	67	127
4.852199546485261	4.968299319727891	76	127
4.852199546485261	4.968299319727891	64	127
4.968299319727891	5.096009070294785	65	127
4.968299319727891	5.096009070294785	77	127
5.096009070294785	6.930385487528345	67	127
5.096009070294785	6.930385487528345	79	127
6.930385487528345	7.580544217687075	68	127
6.930385487528345	7.580544217687075	80	127
7.580544217687075	8.02172335600907	69	127
7.580544217687075	8.02172335600907	81	127
8.02172335600907	8.161043083900227	89	127
8.02172335600907	8.161043083900227	77	127
8.161043083900227	8.55578231292517	77	127
8.161043083900227	8.55578231292517	89	127
8.55578231292517	8.776349206349206	69	127
8.55578231292517	8.776349206349206	81	127
8.776349206349206	9.229160997732427	70	127
8.776349206349206	9.229160997732427	82	127
9.229160997732427	9.368480725623582	74	127
9.229160997732427	9.368480725623582	86	127
9.368480725623582	9.809659863945578	74	127
9.368480725623582	9.809659863945578	86	127
9.809659863945578	10.111519274376418	68	127
9.809659863945578	10.111519274376418	80	127
10.111519274376418	10.622358276643991	69	127
10.111519274376418	10.622358276643991	81	127
10.622358276643991	10.761678004535147	72	127
10.622358276643991	10.761678004535147	84	127
10.761678004535147	11.168027210884354	72	127
10.761678004535147	11.168027210884354	84	127
11.168027210884354	11.30734693877551	77	127
11.168027210884354	11.30734693877551	65	127
11.30734693877551	12.317414965986394	69	127
11.30734693877551	12.317414965986394	81	127
12.317414965986394	12.479954648526077	70	127
12.317414965986394	12.479954648526077	82	127
12.479954648526077	12.60766439909297	81	127
12.479954648526077	12.60766439909297	69	127
12.60766439909297	13.269433106575963	67	127
12.60766439909297	13.269433106575963	79	127
13.269433106575963	13.571292517006803	76	127
13.571292517006803	13.873151927437641	79	127
13.873151927437641	14.20984126984127	73	127
14.20984126984127	14.523310657596372	72	127
14.523310657596372	14.871609977324264	71	127
14.871609977324264	15.20829931972789	70	127
15.20829931972789	16.39251700680272	69	127
18.900272108843538	20.223809523809525	81	127
18.900272108843538	20.223809523809525	69	127
20.223809523809525	22.68512471655329	84	127
20.223809523809525	22.68512471655329	72	127
22.68512471655329	23.776462585034015	84	127
22.68512471655329	23.776462585034015	72	127
23.776462585034015	24.693650793650793	89	127
23.776462585034015	24.693650793650793	77	127
24.693650793650793	24.972290249433108	86	127
24.693650793650793	24.972290249433108	74	127
24.972290249433108	25.587619047619047	84	127
24.972290249433108	25.587619047619047	72	127
25.587619047619047	26.272607709750567	81	127
25.587619047619047	26.272607709750567	69	127
26.272607709750567	27.28267573696145	82	127
26.272607709750567	27.28267573696145	70	127
27.28267573696145	27.66580498866213	76	127
27.28267573696145	27.66580498866213	64	127
27.66580498866213	28.490113378684807	65	127
27.66580498866213	28.490113378684807	77	127
30.278049886621314	31.555147392290248	74	127
30.278049886621314	31.555147392290248	86	127
31.555147392290248	33.40113378684807	77	127
31.555147392290248	33.40113378684807	89	127
33.40113378684807	33.66816326530612	76	127
33.40113378684807	33.66816326530612	88	127
33.66816326530612	33.94680272108844	79	127
33.66816326530612	33.94680272108844	91	127
33.94680272108844	34.16739229024943	77	127
33.94680272108844	34.16739229024943	89	127
34.16739229024943	34.446009070294785	75	127
34.16739229024943	34.446009070294785	87	127
34.446009070294785	34.62018140589569	72	127
34.446009070294785	34.62018140589569	84	127
34.62018140589569	34.68981859410431	82	127
34.62018140589569	34.68981859410431	70	127
34.68981859410431	34.75950113378685	72	127
34.68981859410431	34.75950113378685	84	127
34.75950113378685	34.8175283446712	70	127
34.75950113378685	34.8175283446712	82	127
34.8175283446712	34.92204081632653	84	127
34.8175283446712	34.92204081632653	72	127
34.92204081632653	34.99170068027211	82	127
34.92204081632653	34.99170068027211	70	127
34.99170068027211	35.07294784580499	72	127
34.99170068027211	35.07294784580499	84	127
35.07294784580499	35.16585034013605	70	127
35.07294784580499	35.16585034013605	82	127
35.16585034013605	35.25873015873016	84	127
35.16585034013605	35.25873015873016	72	127
35.25873015873016	35.34	82	127
35.25873015873016	35.34	70	127
35.34	35.42126984126984	72	127
35.34	35.42126984126984	84	127
35.42126984126984	35.49092970521542	70	127
35.42126984126984	35.49092970521542	82	127
35.49092970521542	35.560589569160996	72	127
35.49092970521542	35.560589569160996	84	127
35.560589569160996	35.69990929705215	69	127
35.560589569160996	35.69990929705215	81	127
35.69990929705215	35.85083900226758	70	127
35.69990929705215	35.85083900226758	82	127
35.85083900226758	37.67360544217687	84	127
35.85083900226758	37.67360544217687	72	127
37.67360544217687	38.21927437641723	73	127
37.67360544217687	38.21927437641723	85	127
38.21927437641723	38.28893424036281	74	127
38.21927437641723	38.28893424036281	86	127
38.28893424036281	38.35859410430839	88	127
38.28893424036281	38.35859410430839	76	127
38.35859410430839	38.43986394557823	74	127
38.35859410430839	38.43986394557823	86	127
38.43986394557823	38.53274376417234	88	127
38.43986394557823	38.53274376417234	76	127
38.53274376417234	38.614013605442175	86	127
38.53274376417234	38.614013605442175	74	127
38.614013605442175	38.71850340136054	88	127
38.614013605442175	38.71850340136054	76	127
38.71850340136054	38.788163265306125	74	127
38.71850340136054	38.788163265306125	86	127
38.788163265306125	38.881020408163266	88	127
38.788163265306125	38.881020408163266	76	127
38.881020408163266	38.93909297052154	74	127
38.881020408163266	38.93909297052154	86	127
38.93909297052154	39.00873015873016	76	127
38.93909297052154	39.00873015873016	88	127
39.00873015873016	39.09002267573696	86	127
39.00873015873016	39.09002267573696	74	127
39.09002267573696	39.20612244897959	88	127
39.09002267573696	39.20612244897959	76	127
39.20612244897959	39.380272108843535	85	127
39.20612244897959	39.380272108843535	73	127
39.380272108843535	39.554421768707485	74	127
39.380272108843535	39.554421768707485	86	127
39.554421768707485	40.98244897959184	82	127
39.554421768707485	40.98244897959184	94	127
40.98244897959184	41.15659863945578	93	127
40.98244897959184	41.15659863945578	81	127
41.15659863945578	41.38879818594104	79	127
41.15659863945578	41.38879818594104	91	127
41.38879818594104	41.65582766439909	77	127
41.38879818594104	41.65582766439909	89	127
41.65582766439909	41.87641723356009	88	127
41.65582766439909	41.87641723356009	76	127
41.87641723356009	42.0621768707483	86	127
41.87641723356009	42.0621768707483	74	127
42.0621768707483	42.14344671201814	72	127
42.0621768707483	42.14344671201814	84	127
42.14344671201814	42.20149659863946	86	127
42.14344671201814	42.20149659863946	74	127
42.20149659863946	42.282766439909295	84	127
42.20149659863946	42.282766439909295	72	127
42.282766439909295	42.35242630385488	86	127
42.282766439909295	42.35242630385488	74	127
42.35242630385488	42.44530612244898	84	127
42.35242630385488	42.44530612244898	72	127
42.44530612244898	42.503356009070295	86	127
42.44530612244898	42.503356009070295	74	127
42.503356009070295	42.58462585034014	84	127
42.503356009070295	42.58462585034014	72	127
42.58462585034014	42.665895691609975	74	127
42.58462585034014	42.665895691609975	86	127
42.665895691609975	42.74716553287982	72	127
42.665895691609975	42.74716553287982	84	127
42.74716553287982	42.79360544217687	74	127
42.74716553287982	42.79360544217687	86	127
42.79360544217687	42.86326530612245	84	127
42.79360544217687	42.86326530612245	72	127
42.86326530612245	42.956145124716556	74	127
42.86326530612245	42.956145124716556	86	127
42.956145124716556	43.08385487528345	83	127
42.956145124716556	43.08385487528345	71	127
43.08385487528345	43.25800453514739	84	127
43.08385487528345	43.25800453514739	72	127
43.25800453514739	44.69764172335601	81	127
43.25800453514739	44.69764172335601	93	127
44.69764172335601	44.91823129251701	88	127
44.69764172335601	44.91823129251701	76	127
44.91823129251701	45.25492063492064	77	127
44.91823129251701	45.25492063492064	89	127
45.25492063492064	45.46390022675737	71	127
45.25492063492064	45.46390022675737	83	127
45.46390022675737	45.70770975056689	84	127
45.46390022675737	45.70770975056689	72	127
45.70770975056689	45.951519274376416	81	127
45.70770975056689	45.951519274376416	69	127
45.951519274376416	46.14888888888889	85	127
45.951519274376416	46.14888888888889	73	127
46.14888888888889	46.35784580498866	74	127
46.14888888888889	46.35784580498866	86	127
46.35784580498866	46.555238095238096	77	127
46.35784580498866	46.555238095238096	89	127
46.555238095238096	46.8802947845805	74	127
46.555238095238096	46.8802947845805	86	127
46.8802947845805	47.100907029478456	82	127
46.8802947845805	47.100907029478456	70	127
47.100907029478456	47.28666666666667	67	127
47.100907029478456	47.28666666666667	79	127
47.28666666666667	48.42444444444445	65	127
47.28666666666667	48.42444444444445	77	127
48.42444444444445	48.59859410430839	67	127
48.42444444444445	48.59859410430839	79	127
48.59859410430839	48.74952380952381	77	127
48.59859410430839	48.74952380952381	65	127
48.74952380952381	49.388072562358275	76	127
48.74952380952381	49.388072562358275	64	127
54.06689342403628	55.2859410430839	81	127
54.06689342403628	55.2859410430839	69	127
55.2859410430839	57.18997732426304	84	127
55.2859410430839	57.18997732426304	72	127
57.18997732426304	57.9562358276644	73	127
57.18997732426304	57.9562358276644	85	127
57.9562358276644	59.082403628117916	74	127
57.9562358276644	59.082403628117916	86	127
59.082403628117916	60.498820861678006	77	127
59.082403628117916	60.498820861678006	89	127
60.498820861678006	61.24185941043084	79	127
60.498820861678006	61.24185941043084	67	127
61.24185941043084	61.89201814058957	69	127
61.24185941043084	61.89201814058957	81	127
61.89201814058957	61.961678004535145	70	127
61.89201814058957	61.961678004535145	82	127
61.961678004535145	62.031337868480726	84	127
61.961678004535145	62.031337868480726	72	127
62.031337868480726	62.1009977324263	70	127
62.031337868480726	62.1009977324263	82	127
62.1009977324263	62.17065759637188	84	127
62.1009977324263	62.17065759637188	72	127
62.17065759637188	62.228707482993194	82	127
62.17065759637188	62.228707482993194	70	127
62.228707482993194	62.33319727891156	84	127
62.228707482993194	62.33319727891156	72	127
62.33319727891156	62.414467120181406	70	127
62.33319727891156	62.414467120181406	82	127
62.414467120181406	62.48412698412698	84	127
62.414467120181406	62.48412698412698	72	127
62.48412698412698	62.565396825396824	70	127
62.48412698412698	62.565396825396824	82	127
62.565396825396824	62.65827664399093	72	127
62.565396825396824	62.65827664399093	84	127
62.65827664399093	62.727936507936505	70	127
62.65827664399093	62.727936507936505	82	127
62.727936507936505	62.797596371882086	72	127
62.727936507936505	62.797596371882086	84	127
62.797596371882086	62.91369614512472	81	127
62.797596371882086	62.91369614512472	69	127
62.91369614512472	63.064625850340136	70	127
62.91369614512472	63.064625850340136	82	127
63.064625850340136	64.17916099773242	84	127
63.064625850340136	64.17916099773242	72	127
64.17916099773242	65.45625850340136	74	127
64.17916099773242	65.45625850340136	86	127
65.45625850340136	65.9438775510204	72	127
65.45625850340136	65.9438775510204	84	127
65.9438775510204	66.24575963718821	86	127
65.9438775510204	66.24575963718821	74	127
66.24575963718821	66.6056462585034	82	127
66.24575963718821	66.6056462585034	70	127
66.6056462585034	66.96555555555555	79	127
66.6056462585034	66.96555555555555	67	127
66.96555555555555	67.31387755102041	65	127
66.96555555555555	67.31387755102041	77	127
67.31387755102041	67.5344671201814	67	127
67.31387755102041	67.5344671201814	79	127
67.5344671201814	67.70861678004535	77	127
67.5344671201814	67.70861678004535	65	127
67.70861678004535	68.08013605442177	64	127
67.70861678004535	68.08013605442177	76	127
68.08013605442177	68.37036281179138	65	127
68.08013605442177	68.37036281179138	77	127
68.37036281179138	69.47333333333333	69	127
68.37036281179138	69.47333333333333	81	127
69.47333333333333	69.84485260770975	67	127
69.47333333333333	69.84485260770975	79	127
69.84485260770975	70.12349206349207	65	127
69.84485260770975	70.12349206349207	77	127
70.12349206349207	70.37891156462585	71	127
70.12349206349207	70.37891156462585	59	127
70.37891156462585	70.56467120181406	60	127
70.37891156462585	70.56467120181406	72	127
70.56467120181406	70.76204081632653	77	127
70.56467120181406	70.76204081632653	65	127
70.76204081632653	70.959410430839	72	127
70.76204081632653	70.959410430839	60	127
70.959410430839	71.19160997732426	57	127
70.959410430839	71.19160997732426	69	127
71.19160997732426	71.45863945578232	60	127
71.19160997732426	71.45863945578232	72	127
71.45863945578232	71.73727891156463	57	127
71.45863945578232	71.73727891156463	69	127
71.73727891156463	71.91142857142857	65	127
71.73727891156463	71.91142857142857	53	127
71.91142857142857	72.17843537414966	57	127
71.91142857142857	72.17843537414966	69	127
72.17843537414966	72.41065759637188	53	127
72.17843537414966	72.41065759637188	65	127
72.41065759637188	72.65446712018141	60	127
72.41065759637188	72.65446712018141	48	127
72.65446712018141	72.85183673469388	53	127
72.65446712018141	72.85183673469388	65	127
72.85183673469388	73.03759637188209	48	127
72.85183673469388	73.03759637188209	60	127
73.03759637188209	73.29301587301588	45	127
73.03759637188209	73.29301587301588	57	127
73.29301587301588	73.46716553287982	48	127
73.29301587301588	73.46716553287982	60	127
73.46716553287982	73.67614512471656	57	127
73.46716553287982	73.67614512471656	45	127
73.67614512471656	73.94315192743764	53	127
73.67614512471656	73.94315192743764	41	127
73.94315192743764	74.12893424036281	81	127
73.94315192743764	74.12893424036281	69	127
74.12893424036281	74.31469387755102	77	127
74.12893424036281	74.31469387755102	65	127
74.31469387755102	74.50045351473923	60	127
74.31469387755102	74.50045351473923	72	127
74.50045351473923	74.68621315192743	65	127
74.50045351473923	74.68621315192743	77	127
74.68621315192743	74.86036281179139	60	127
74.68621315192743	74.86036281179139	72	127
74.86036281179139	75.04612244897959	57	127
74.86036281179139	75.04612244897959	69	127
75.04612244897959	75.34795918367347	72	127
75.04612244897959	75.34795918367347	60	127
75.34795918367347	75.58018140589569	69	127
75.34795918367347	75.58018140589569	57	127
75.58018140589569	75.78916099773242	65	127
75.58018140589569	75.78916099773242	53	127
75.78916099773242	76.03297052154196	69	127
75.78916099773242	76.03297052154196	57	127
76.03297052154196	76.2187074829932	53	127
76.03297052154196	76.2187074829932	65	127
76.2187074829932	76.45092970521542	48	127
76.2187074829932	76.45092970521542	60	127
76.45092970521542	76.67151927437642	53	127
76.45092970521542	76.67151927437642	65	127
76.67151927437642	76.84566893424036	48	127
76.67151927437642	76.84566893424036	60	127
76.84566893424036	77.04303854875283	45	127
76.84566893424036	77.04303854875283	57	127
77.04303854875283	77.21718820861678	48	127
77.04303854875283	77.21718820861678	60	127
77.21718820861678	77.4609977324263	57	127
77.21718820861678	77.4609977324263	45	127
77.4609977324263	77.64675736961452	41	127
77.4609977324263	77.64675736961452	53	127
77.64675736961452	77.82090702947846	69	127
77.64675736961452	77.82090702947846	81	127
77.82090702947846	77.9950566893424	66	127
77.82090702947846	77.9950566893424	78	127
77.9950566893424	78.16920634920635	60	127
77.9950566893424	78.16920634920635	72	127
78.16920634920635	78.33174603174604	66	127
78.16920634920635	78.33174603174604	78	127
78.33174603174604	78.5291156462585	60	127
78.33174603174604	78.5291156462585	72	127
78.5291156462585	78.83097505668934	57	127
78.5291156462585	78.83097505668934	69	127
78.83097505668934	79.0980045351474	60	127
78.83097505668934	79.0980045351474	72	127
79.0980045351474	79.44630385487528	57	127
79.0980045351474	79.44630385487528	69	127
79.44630385487528	79.66687074829932	54	127
79.44630385487528	79.66687074829932	66	127
79.66687074829932	79.86426303854876	57	127
79.66687074829932	79.86426303854876	69	127
79.86426303854876	80.08485260770975	54	127
79.86426303854876	80.08485260770975	66	127
80.08485260770975	80.28219954648526	48	127
80.08485260770975	80.28219954648526	60	127
80.28219954648526	80.46798185941043	54	127
80.28219954648526	80.46798185941043	66	127
80.46798185941043	80.68854875283446	48	127
80.46798185941043	80.68854875283446	60	127
80.68854875283446	81.00204081632653	57	127
80.68854875283446	81.00204081632653	45	127
81.00204081632653	81.18780045351474	48	127
81.00204081632653	81.18780045351474	60	127
81.18780045351474	81.38517006802721	45	127
81.18780045351474	81.38517006802721	57	127
81.38517006802721	81.66380952380952	54	127
81.38517006802721	81.66380952380952	42	127
81.66380952380952	81.87278911564626	81	127
81.66380952380952	81.87278911564626	69	127
81.87278911564626	82.0469387755102	66	127
81.87278911564626	82.0469387755102	78	127
82.0469387755102	82.25591836734694	73	127
82.0469387755102	82.25591836734694	61	127
82.25591836734694	82.47650793650794	78	127
82.25591836734694	82.47650793650794	66	127
82.47650793650794	82.67387755102041	61	127
82.47650793650794	82.67387755102041	73	127
82.67387755102041	82.90607709750567	69	127
82.67387755102041	82.90607709750567	57	127
82.90607709750567	83.23115646258503	61	127
82.90607709750567	83.23115646258503	73	127
83.23115646258503	83.44013605442177	57	127
83.23115646258503	83.44013605442177	69	127
83.44013605442177	83.63750566893424	54	127
83.44013605442177	83.63750566893424	66	127
83.63750566893424	83.85807256235827	57	127
83.63750566893424	83.85807256235827	69	127
83.85807256235827	84.04385487528344	54	127
83.85807256235827	84.04385487528344	66	127
84.04385487528344	84.20639455782313	49	127
84.04385487528344	84.20639455782313	61	127
84.20639455782313	84.39215419501134	54	127
84.20639455782313	84.39215419501134	66	127
84.39215419501134	84.56630385487529	49	127
84.39215419501134	84.56630385487529	61	127
84.56630385487529	84.77528344671202	45	127
84.56630385487529	84.77528344671202	57	127
84.77528344671202	84.97265306122449	49	127
84.77528344671202	84.97265306122449	61	127
84.97265306122449	85.14680272108843	45	127
84.97265306122449	85.14680272108843	57	127
85.14680272108843	85.44866213151927	42	127
85.14680272108843	85.44866213151927	54	127
85.44866213151927	85.71569160997733	85	127
85.44866213151927	85.71569160997733	73	127
85.71569160997733	85.9130612244898	71	127
85.71569160997733	85.9130612244898	83	127
85.9130612244898	86.12204081632653	80	127
85.9130612244898	86.12204081632653	68	127
86.12204081632653	86.30780045351474	71	127
86.12204081632653	86.30780045351474	83	127
86.30780045351474	86.51675736961451	80	127
86.30780045351474	86.51675736961451	68	127
86.51675736961451	86.7257596371882	65	127
86.51675736961451	86.7257596371882	77	127
86.7257596371882	86.92312925170069	68	127
86.7257596371882	86.92312925170069	80	127
86.92312925170069	87.12049886621315	65	127
86.92312925170069	87.12049886621315	77	127
87.12049886621315	87.37591836734694	61	127
87.12049886621315	87.37591836734694	73	127
87.37591836734694	87.59650793650793	65	127
87.37591836734694	87.59650793650793	77	127
87.59650793650793	87.80548752834467	61	127
87.59650793650793	87.80548752834467	73	127
87.80548752834467	88.08412698412698	59	127
87.80548752834467	88.08412698412698	71	127
88.08412698412698	88.25827664399092	61	127
88.08412698412698	88.25827664399092	73	127
88.25827664399092	88.46725623582766	59	127
88.25827664399092	88.46725623582766	71	127
88.46725623582766	88.66460317460317	56	127
88.46725623582766	88.66460317460317	68	127
88.66460317460317	88.88521541950114	59	127
88.66460317460317	88.88521541950114	71	127
88.88521541950114	89.14063492063492	56	127
88.88521541950114	89.14063492063492	68	127
89.14063492063492	89.34961451247166	53	127
89.14063492063492	89.34961451247166	65	127
89.34961451247166	89.5237641723356	66	127
89.34961451247166	89.6166439909297	42	127
89.5237641723356	89.70952380952382	61	127
89.70952380952382	89.93011337868481	66	127
89.93011337868481	90.11587301587302	69	127
89.93011337868481	90.22036281179139	54	127
90.11587301587302	90.31324263038549	66	127
90.31324263038549	90.48739229024943	61	127
90.48739229024943	90.76603174603174	66	127
90.48739229024943	90.89374149659864	42	127
90.76603174603174	90.98662131519275	61	127
90.98662131519275	91.16077097505669	66	127
91.16077097505669	91.4509977324263	54	127
91.16077097505669	91.35814058956916	69	127
91.35814058956916	91.54390022675737	66	127
91.54390022675737	91.71804988662132	61	127
91.71804988662132	92.01990929705215	42	127
91.71804988662132	91.91541950113378	66	127
91.91541950113378	92.13600907029479	61	127
92.13600907029479	92.37981859410431	66	127
92.37981859410431	92.70489795918367	54	127
92.37981859410431	92.57718820861678	69	127
92.57718820861678	92.80938775510204	66	127
92.80938775510204	92.98351473922902	61	127
92.98351473922902	93.16929705215419	66	127
92.98351473922902	93.27378684807256	42	127
93.16929705215419	93.3550566893424	62	127
93.3550566893424	93.56403628117914	66	127
93.56403628117914	93.8891156462585	54	127
93.56403628117914	93.74977324263038	71	127
93.74977324263038	94.02843537414967	66	127
94.02843537414967	94.30707482993198	62	127
94.30707482993198	94.62052154195011	66	127
94.30707482993198	94.69020408163266	42	127
94.62052154195011	94.78308390022676	62	127
94.78308390022676	94.96884353741497	66	127
94.96884353741497	95.13138321995464	71	127
94.96884353741497	95.20104308390023	54	127
95.13138321995464	95.29392290249433	66	127
95.29392290249433	95.45646258503402	62	127
95.45646258503402	95.78154195011338	42	127
95.45646258503402	95.68866213151928	66	127
95.68866213151928	95.88603174603175	62	127
95.88603174603175	96.10662131519274	66	127
96.10662131519274	96.32721088435375	71	127
96.10662131519274	96.40848072562358	54	127
96.32721088435375	96.50136054421769	66	127
96.50136054421769	96.6871201814059	62	127
96.6871201814059	97.000589569161	42	127
96.6871201814059	96.9077097505669	66	127
96.9077097505669	97.10507936507936	61	127
97.10507936507936	97.2792290249433	66	127
97.2792290249433	97.53464852607709	54	127
97.2792290249433	97.44176870748299	69	127
97.44176870748299	97.61591836734694	66	127
97.61591836734694	97.77845804988662	61	127
97.77845804988662	97.9409977324263	66	127
97.77845804988662	98.03387755102041	42	127
97.9409977324263	98.1964172335601	61	127
98.1964172335601	98.40539682539682	66	127
98.40539682539682	98.61437641723356	69	127
98.40539682539682	98.70725623582767	54	127
98.61437641723356	98.80013605442177	66	127
98.80013605442177	98.98589569160998	61	127
98.98589569160998	99.28775510204082	42	127
98.98589569160998	99.17165532879818	66	127
99.17165532879818	99.38063492063492	61	127
99.38063492063492	99.58961451247166	66	127
99.58961451247166	99.78698412698412	69	127
99.58961451247166	99.90308390022676	54	127
99.78698412698412	99.9843537414966	66	127
99.9843537414966	100.19333333333333	61	127
100.19333333333333	100.40231292517007	65	127
100.19333333333333	100.48358276643991	37	127
100.40231292517007	100.54163265306123	59	127
100.54163265306123	100.7041723356009	65	127
100.7041723356009	100.94798185941043	68	127
100.7041723356009	101.02925170068028	49	127
100.94798185941043	101.1105215419501	65	127
101.1105215419501	101.2730612244898	59	127
101.2730612244898	101.43560090702948	65	127
101.2730612244898	101.5517006802721	37	127
101.43560090702948	101.65619047619047	59	127
101.65619047619047	101.83034013605442	65	127
101.83034013605442	102.01609977324263	68	127
101.83034013605442	102.14380952380952	49	127
102.01609977324263	102.28312925170069	65	127
102.28312925170069	102.44566893424036	59	127
102.44566893424036	102.63142857142857	65	127
102.44566893424036	102.73591836734694	37	127
102.63142857142857	102.84040816326531	59	127
102.84040816326531	103.03777777777778	65	127
103.03777777777778	103.26997732426304	68	127
103.03777777777778	103.4092970521542	49	127
103.26997732426304	103.5021768707483	65	127
103.5021768707483	103.69954648526077	59	127
103.69954648526077	103.89691609977324	66	127
103.69954648526077	104.02462585034013	42	127
103.89691609977324	104.18716553287982	57	127
104.18716553287982	104.39614512471655	66	127
104.39614512471655	104.59351473922902	69	127
104.39614512471655	104.69800453514739	54	127
104.59351473922902	104.79088435374149	66	127
104.79088435374149	104.96503401360545	57	127
104.96503401360545	105.15079365079364	66	127
104.96503401360545	105.24367346938776	42	127
105.15079365079364	105.33655328798186	61	127
105.33655328798186	105.49909297052154	66	127
105.49909297052154	105.68485260770976	69	127
105.49909297052154	105.76612244897959	54	127
105.68485260770976	105.8590022675737	66	127
105.8590022675737	106.03315192743764	61	127
106.03315192743764	106.25374149659864	67	127
106.03315192743764	106.34662131519275	42	127
106.25374149659864	106.43950113378685	61	127
106.43950113378685	106.61365079365079	67	127
106.61365079365079	106.81102040816326	70	127
106.61365079365079	106.90390022675737	54	127
106.81102040816326	107.03160997732427	67	127
107.03160997732427	107.21736961451248	61	127
107.21736961451248	107.41473922902495	66	127
107.21736961451248	107.50761904761904	42	127
107.41473922902495	107.60049886621316	62	127
107.60049886621316	107.7746485260771	66	127
107.7746485260771	107.9952380952381	71	127
107.7746485260771	108.09972789115646	54	127
107.9952380952381	108.20421768707483	66	127
108.20421768707483	108.41319727891157	62	127
108.41319727891157	108.59895691609978	66	127
108.41319727891157	108.7150566893424	42	127
108.59895691609978	108.81954648526077	62	127
108.81954648526077	109.00530612244899	66	127
109.00530612244899	109.27233560090703	54	127
109.00530612244899	109.17945578231293	71	127
109.17945578231293	109.35360544217687	66	127
109.35360544217687	109.53936507936508	62	127
109.53936507936508	109.86444444444444	42	127
109.53936507936508	109.75995464852608	66	127
109.75995464852608	109.99215419501134	62	127
109.99215419501134	110.24757369614512	66	127
110.24757369614512	110.47977324263039	71	127
110.24757369614512	110.58426303854876	54	127
110.47977324263039	110.67714285714285	66	127
110.67714285714285	110.86290249433107	62	127
110.86290249433107	111.03705215419501	66	127
110.86290249433107	111.15315192743765	42	127
111.03705215419501	111.24603174603175	61	127
111.24603174603175	111.44340136054421	66	127
111.44340136054421	111.61755102040816	69	127
111.44340136054421	111.71043083900227	54	127
111.61755102040816	111.80331065759637	66	127
111.80331065759637	111.98907029478458	61	127
111.98907029478458	112.37219954648526	42	127
111.98907029478458	112.25609977324262	66	127
112.25609977324262	112.46507936507936	61	127
112.46507936507936	112.65083900226757	66	127
112.65083900226757	112.83659863945579	69	127
112.65083900226757	112.92947845804989	54	127
112.83659863945579	113.02235827664398	66	127
113.02235827664398	113.21972789115647	61	127
113.21972789115647	113.41709750566893	66	127
113.21972789115647	113.5215873015873	42	127
113.41709750566893	113.6144671201814	61	127
113.6144671201814	113.80022675736961	66	127
113.80022675736961	114.06725623582767	54	127
113.80022675736961	113.97437641723356	69	127
113.97437641723356	114.16013605442177	66	127
114.16013605442177	114.32267573696146	61	127
114.32267573696146	114.50843537414966	65	127
114.32267573696146	114.61292517006802	37	127
114.50843537414966	114.71741496598639	59	127
114.71741496598639	114.9960544217687	65	127
114.9960544217687	115.30952380952381	49	127
114.9960544217687	115.21664399092971	68	127
115.21664399092971	115.39079365079365	65	127
115.39079365079365	115.54172335600907	59	127
115.54172335600907	115.71587301587302	65	127
115.54172335600907	115.83197278911565	37	127
115.71587301587302	115.91324263038548	59	127
115.91324263038548	116.0990022675737	65	127
116.0990022675737	116.29637188208616	68	127
116.0990022675737	116.38925170068028	49	127
116.29637188208616	116.49374149659864	65	127
116.49374149659864	116.66789115646259	59	127
116.66789115646259	116.88848072562358	65	127
116.66789115646259	116.9813605442177	37	127
116.88848072562358	117.07424036281179	59	127
117.07424036281179	117.27160997732426	65	127
117.27160997732426	117.51541950113379	68	127
117.27160997732426	117.59668934240362	49	127
117.51541950113379	117.68956916099773	65	127
117.68956916099773	117.87532879818595	59	127
117.87532879818595	118.15396825396826	42	127
117.87532879818595	118.07269841269841	66	127
118.07269841269841	118.24684807256236	57	127
118.24684807256236	118.46743764172335	66	127
118.46743764172335	118.78090702947846	54	127
118.46743764172335	118.69963718820861	69	127
118.69963718820861	118.8970068027211	66	127
118.8970068027211	119.08276643990929	57	127
119.08276643990929	119.32657596371882	66	127
119.08276643990929	119.40784580498867	42	127
119.32657596371882	119.52394557823129	61	127
119.52394557823129	119.75614512471655	66	127
119.75614512471655	120.02317460317461	54	127
119.75614512471655	119.9302947845805	69	127
119.9302947845805	120.10444444444444	66	127
120.10444444444444	120.2785941043084	61	127
120.2785941043084	120.4643537414966	66	127
120.2785941043084	120.56884353741496	42	127
120.4643537414966	120.69655328798186	61	127
120.69655328798186	120.89392290249432	66	127
120.89392290249432	121.07968253968254	69	127
120.89392290249432	121.17256235827665	54	127
121.07968253968254	121.25383219954648	66	127
121.25383219954648	121.43959183673469	61	127
121.43959183673469	121.77628117913832	40	127
121.43959183673469	121.63696145124716	67	127
121.63696145124716	121.85755102040817	61	127
121.85755102040817	122.04331065759636	67	127
122.04331065759636	122.33356009070295	52	127
122.04331065759636	122.24068027210885	69	127
122.24068027210885	122.40321995464852	67	127
122.40321995464852	122.57736961451248	61	127
122.57736961451248	122.90244897959184	40	127
122.57736961451248	122.75151927437642	67	127
122.75151927437642	123.06498866213153	61	127
123.06498866213153	123.28557823129252	67	127
123.28557823129252	123.51777777777778	52	127
123.28557823129252	123.42489795918367	69	127
123.42489795918367	123.61065759637188	67	127
123.61065759637188	123.78480725623582	61	127
123.78480725623582	123.99378684807256	67	127
123.78480725623582	124.08666666666667	40	127
123.99378684807256	124.17954648526077	61	127
124.17954648526077	124.45818594104308	67	127
124.45818594104308	124.6439455782313	69	127
124.45818594104308	124.7368253968254	52	127
124.6439455782313	124.8297052154195	67	127
124.8297052154195	125.06190476190476	61	127
125.06190476190476	125.3637641723356	38	127
125.06190476190476	125.24766439909297	66	127
125.24766439909297	125.4566439909297	62	127
125.4566439909297	125.65401360544217	66	127
125.65401360544217	125.97909297052155	50	127
125.65401360544217	125.86299319727891	69	127
125.86299319727891	126.09519274376417	66	127
126.09519274376417	126.29256235827664	62	127
126.29256235827664	126.45510204081633	66	127
126.29256235827664	126.5595918367347	38	127
126.45510204081633	126.68730158730159	62	127
126.68730158730159	126.89628117913833	66	127
126.89628117913833	127.08204081632653	69	127
126.89628117913833	127.17492063492064	50	127
127.08204081632653	127.27941043083901	66	127
127.27941043083901	127.51160997732427	62	127
127.51160997732427	127.73219954648526	65	127
127.51160997732427	127.82507936507936	32	127
127.73219954648526	127.91795918367347	62	127
127.91795918367347	128.11532879818594	65	127
128.11532879818594	128.3126984126984	71	127
128.11532879818594	128.39396825396827	44	127
128.3126984126984	128.48684807256237	65	127
128.48684807256237	128.6609977324263	62	127
128.6609977324263	128.84675736961452	66	127
128.6609977324263	128.9744671201814	33	127
128.84675736961452	129.18344671201814	62	127
129.18344671201814	129.41564625850341	66	127
129.41564625850341	129.64784580498866	69	127
129.41564625850341	129.72909297052155	45	127
129.64784580498866	129.82199546485262	66	127
129.82199546485262	129.99614512471655	62	127
129.99614512471655	130.28637188208617	33	127
129.99614512471655	130.18190476190478	61	127
130.18190476190478	130.39086167800454	55	127
130.39086167800454	130.62308390022676	61	127
130.62308390022676	130.8320634920635	64	127
130.62308390022676	130.9249433106576	45	127
130.8320634920635	131.0178231292517	61	127
131.0178231292517	131.20358276643992	55	127
131.20358276643992	131.37773242630385	61	127
131.20358276643992	131.4938321995465	33	127
131.37773242630385	131.6447619047619	55	127
131.6447619047619	132.00467120181406	61	127
132.00467120181406	132.24848072562358	64	127
132.00467120181406	132.36458049886622	45	127
132.24848072562358	132.4922902494331	61	127
132.4922902494331	132.67804988662132	55	127
132.67804988662132	133.22371882086168	54	127
132.67804988662132	133.22371882086168	38	127
133.22371882086168	133.502358276644	69	127
133.22371882086168	133.502358276644	57	127
133.502358276644	134.46598639455783	74	127
133.502358276644	134.46598639455783	62	127
134.46598639455783	134.61691609977325	69	127
134.46598639455783	134.61691609977325	57	127
134.61691609977325	135.5108843537415	66	127
134.61691609977325	135.5108843537415	78	127
135.5108843537415	135.6618140589569	69	127
135.5108843537415	135.6618140589569	57	127
135.6618140589569	136.2307029478458	86	127
135.6618140589569	136.2307029478458	74	127
136.2307029478458	136.5209523809524	73	127
136.2307029478458	136.5209523809524	85	127
136.81120181405896	137.519410430839	79	127
136.81120181405896	137.519410430839	91	127
137.519410430839	137.5890702947846	93	127
137.519410430839	137.5890702947846	81	127
137.6819501133787	137.76321995464852	79	127
137.6819501133787	137.76321995464852	91	127
137.8677097505669	137.960589569161	90	127
137.8677097505669	137.960589569161	78	127
138.04185941043085	138.13473922902494	88	127
138.04185941043085	138.13473922902494	76	127
138.22761904761904	138.3088888888889	86	127
138.22761904761904	138.3088888888889	74	127
138.401768707483	138.4946485260771	73	127
138.401768707483	138.4946485260771	85	127
138.57591836734693	138.66879818594106	83	127
138.57591836734693	138.66879818594106	71	127
138.76167800453516	138.85455782312926	69	127
138.76167800453516	138.85455782312926	81	127
138.93582766439908	139.00548752834467	67	127
138.93582766439908	139.00548752834467	79	127
139.07514739229026	139.14480725623582	78	127
139.07514739229026	139.14480725623582	66	127
139.23766439909298	139.33056689342405	76	127
139.23766439909298	139.33056689342405	64	127
139.41183673469388	139.7949433106576	74	127
139.41183673469388	139.7949433106576	62	127
139.7949433106576	139.91106575963718	69	127
139.7949433106576	139.91106575963718	57	127
139.91106575963718	140.83986394557823	74	127
139.91106575963718	140.83986394557823	62	127
140.83986394557823	140.97918367346938	69	127
140.83986394557823	140.97918367346938	57	127
140.97918367346938	141.90798185941043	66	127
140.97918367346938	141.90798185941043	78	127
141.90798185941043	142.08213151927438	69	127
141.90798185941043	142.08213151927438	57	127
142.08213151927438	142.56975056689342	86	127
142.08213151927438	142.56975056689342	74	127
142.56975056689342	142.83678004535147	85	127
142.56975056689342	142.83678004535147	73	127
143.10380952380953	143.8004081632653	79	127
143.10380952380953	143.8004081632653	91	127
143.8004081632653	143.8932879818594	81	127
143.8004081632653	143.8932879818594	93	127
143.95133786848072	144.04421768707482	79	127
143.95133786848072	144.04421768707482	91	127
144.1138775510204	144.1951247165533	78	127
144.1138775510204	144.1951247165533	90	127
144.28802721088437	144.38090702947846	88	127
144.28802721088437	144.38090702947846	76	127
144.45054421768708	144.54344671201815	74	127
144.45054421768708	144.54344671201815	86	127
144.63632653061225	144.70596371882087	73	127
144.63632653061225	144.70596371882087	85	127
144.81047619047618	144.9033560090703	71	127
144.81047619047618	144.9033560090703	83	127
144.98462585034014	145.07750566893424	69	127
144.98462585034014	145.07750566893424	81	127
145.1819954648526	145.2748752834467	67	127
145.1819954648526	145.2748752834467	79	127
145.33292517006802	145.42580498866212	66	127
145.33292517006802	145.42580498866212	78	127
145.4954648526077	145.55351473922903	64	127
145.4954648526077	145.55351473922903	76	127
145.63478458049886	146.02952380952382	74	127
145.63478458049886	146.02952380952382	62	127
146.02952380952382	146.13399092970522	66	127
146.02952380952382	146.13399092970522	54	127
146.13399092970522	147.02798185941043	74	127
146.13399092970522	147.02798185941043	62	127
147.02798185941043	147.15566893424037	59	127
147.02798185941043	147.15566893424037	71	127
147.15566893424037	148.11931972789117	66	127
147.15566893424037	148.11931972789117	78	127
148.11931972789117	148.24702947845805	74	127
148.11931972789117	148.24702947845805	62	127
148.24702947845805	148.74625850340135	83	127
148.24702947845805	148.74625850340135	71	127
148.74625850340135	149.02489795918368	70	127
148.74625850340135	149.02489795918368	82	127
149.28031746031746	149.97691609977323	76	127
149.28031746031746	149.97691609977323	88	127
149.97691609977323	150.04657596371882	78	127
149.97691609977323	150.04657596371882	90	127
150.13945578231292	150.22072562358278	76	127
150.13945578231292	150.22072562358278	88	127
150.29038548752834	150.38326530612244	74	127
150.29038548752834	150.38326530612244	86	127
150.44131519274376	150.51097505668935	73	127
150.44131519274376	150.51097505668935	85	127
150.59224489795918	150.67351473922903	71	127
150.59224489795918	150.67351473922903	83	127
150.7431746031746	150.82444444444445	82	127
150.7431746031746	150.82444444444445	70	127
150.90571428571428	150.98698412698414	67	127
150.90571428571428	150.98698412698414	79	127
151.07986394557824	151.16113378684807	66	127
151.07986394557824	151.16113378684807	78	127
151.2191836734694	151.3120634920635	64	127
151.2191836734694	151.3120634920635	76	127
151.39333333333335	151.4513605442177	62	127
151.39333333333335	151.4513605442177	74	127
151.54426303854876	151.6255328798186	61	127
151.54426303854876	151.6255328798186	73	127
151.6835827664399	152.0318820861678	74	127
151.6835827664399	152.0318820861678	62	127
152.0318820861678	152.17120181405895	54	127
152.0318820861678	152.17120181405895	66	127
152.17120181405895	153.1	74	127
152.17120181405895	153.1	62	127
153.1	153.2277097505669	71	127
153.1	153.2277097505669	59	127
153.2277097505669	154.0752380952381	66	127
153.2277097505669	154.0752380952381	78	127
154.0752380952381	154.2261678004535	62	127
154.0752380952381	154.2261678004535	74	127
154.2261678004535	154.71378684807257	71	127
154.2261678004535	154.71378684807257	83	127
154.71378684807257	154.94598639455782	72	127
154.71378684807257	154.94598639455782	84	127
155.21301587301588	155.94444444444446	96	127
155.21301587301588	155.94444444444446	84	127
155.94444444444446	156.0024716553288	86	127
155.94444444444446	156.0024716553288	98	127
156.09537414965988	156.16503401360544	88	127
156.09537414965988	156.16503401360544	100	127
156.23469387755102	156.32757369614512	86	127
156.23469387755102	156.32757369614512	98	127
156.408820861678	156.4901133786848	84	127
156.408820861678	156.4901133786848	96	127
156.5829931972789	156.675873015873	83	127
156.5829931972789	156.675873015873	95	127
156.76873015873016	156.86163265306124	81	127
156.76873015873016	156.86163265306124	93	127
156.9312925170068	157.02414965986395	79	127
156.9312925170068	157.02414965986395	91	127
157.09383219954648	157.17507936507937	78	127
157.09383219954648	157.17507936507937	90	127
157.26798185941044	157.34925170068027	76	127
157.26798185941044	157.34925170068027	88	127
157.43049886621316	157.52340136054423	74	127
157.43049886621316	157.52340136054423	86	127
157.61628117913833	157.69755102040816	72	127
157.61628117913833	157.69755102040816	84	127
157.7904081632653	158.30124716553289	71	127
157.7904081632653	158.30124716553289	83	127
158.30124716553289	158.6263492063492	81	127
158.30124716553289	158.6263492063492	69	127
159.0326984126984	159.16040816326532	38	127
159.0326984126984	159.16040816326532	50	127
159.16040816326532	160.04274376417234	62	127
159.16040816326532	160.04274376417234	50	127
160.04274376417234	160.18208616780046	38	127
160.04274376417234	160.18208616780046	50	127
160.18208616780046	160.6697052154195	62	127
160.18208616780046	160.6697052154195	50	127
160.6697052154195	160.93673469387755	51	127
160.6697052154195	160.93673469387755	63	127
161.22698412698412	161.93519274376416	84	127
161.22698412698412	161.93519274376416	96	127
161.93519274376416	162.0280725623583	98	127
161.93519274376416	162.0280725623583	86	127
162.08609977324264	162.1790022675737	87	127
162.08609977324264	162.1790022675737	99	127
162.26027210884354	162.34151927437642	86	127
162.26027210884354	162.34151927437642	98	127
162.4344217687075	162.51569160997732	96	127
162.4344217687075	162.51569160997732	84	127
162.5969387755102	162.68984126984128	82	127
162.5969387755102	162.68984126984128	94	127
162.7711111111111	162.852358276644	93	127
162.7711111111111	162.852358276644	81	127
162.94526077097507	163.03814058956917	79	127
162.94526077097507	163.03814058956917	91	127
163.10777777777778	163.20068027210885	78	127
163.10777777777778	163.20068027210885	90	127
163.28195011337868	163.35160997732427	75	127
163.28195011337868	163.35160997732427	87	127
163.4096598639456	163.5025396825397	74	127
163.4096598639456	163.5025396825397	86	127
163.58380952380952	163.67668934240362	72	127
163.58380952380952	163.67668934240362	84	127
163.76954648526078	164.30362811791383	82	127
163.76954648526078	164.30362811791383	70	127
164.30362811791383	164.8144671201814	81	127
164.30362811791383	164.8144671201814	69	127
165.1975963718821	165.32530612244898	38	127
165.1975963718821	165.32530612244898	50	127
165.32530612244898	166.16122448979593	50	127
165.32530612244898	166.16122448979593	62	127
166.16122448979593	166.2773015873016	38	127
166.16122448979593	166.2773015873016	50	127
166.2773015873016	166.78814058956917	62	127
166.2773015873016	166.78814058956917	50	127
166.78814058956917	167.03197278911566	63	127
166.78814058956917	167.03197278911566	51	127
167.25256235827663	167.91430839002268	96	127
167.25256235827663	167.91430839002268	84	127
167.91430839002268	167.99560090702948	98	127
167.91430839002268	167.99560090702948	86	127
168.08848072562358	168.18136054421768	87	127
168.08848072562358	168.18136054421768	99	127
168.26263038548754	168.3671201814059	86	127
168.26263038548754	168.3671201814059	98	127
168.46	168.51804988662133	84	127
168.46	168.51804988662133	96	127
168.61092970521543	168.69219954648526	82	127
168.61092970521543	168.69219954648526	94	127
168.7734693877551	168.85473922902494	81	127
168.7734693877551	168.85473922902494	93	127
168.94761904761904	169.04049886621314	79	127
168.94761904761904	169.04049886621314	91	127
169.13337868480727	169.22625850340137	78	127
169.13337868480727	169.22625850340137	90	127
169.3075283446712	169.38879818594106	75	127
169.3075283446712	169.38879818594106	87	127
169.47006802721089	169.55133786848072	74	127
169.47006802721089	169.55133786848072	86	127
169.6209977324263	169.7138775510204	84	127
169.6209977324263	169.7138775510204	72	127
169.79514739229026	170.34081632653061	70	127
169.79514739229026	170.34081632653061	82	127
170.34081632653061	170.8516553287982	81	127
170.34081632653061	170.8516553287982	69	127
171.21156462585034	171.3160544217687	38	127
171.21156462585034	171.3160544217687	50	127
171.3160544217687	172.1984126984127	62	127
171.3160544217687	172.1984126984127	50	127
172.1984126984127	172.30290249433108	50	127
172.1984126984127	172.30290249433108	38	127
172.30290249433108	172.871768707483	50	127
172.30290249433108	172.871768707483	62	127
172.871768707483	173.1271882086168	38	127
172.871768707483	173.1271882086168	50	127
173.98634920634922	174.4971882086168	79	127
173.98634920634922	174.4971882086168	67	127
174.4971882086168	175.04285714285714	78	127
174.4971882086168	175.04285714285714	66	127
176.0645351473923	176.61020408163265	79	127
176.0645351473923	176.61020408163265	67	127
176.61020408163265	177.06297052154196	78	127
176.61020408163265	177.06297052154196	66	127
178.11950113378686	178.65356009070294	79	127
178.11950113378686	178.65356009070294	67	127
178.65356009070294	179.2340589569161	66	127
178.65356009070294	179.2340589569161	78	127
179.2340589569161	179.83777777777777	79	127
179.2340589569161	179.83777777777777	67	127
179.83777777777777	180.08156462585035	66	127
179.83777777777777	180.08156462585035	78	127
180.3021768707483	180.81301587301587	66	127
180.3021768707483	180.81301587301587	78	127
180.81301587301587	181.08004535147393	76	127
180.81301587301587	181.08004535147393	64	127
181.3354648526077	181.9159410430839	76	127
181.3354648526077	181.9159410430839	64	127
181.9159410430839	182.22943310657595	74	127
181.9159410430839	182.22943310657595	62	127
182.50807256235828	183.05374149659863	74	127
183.05374149659863	183.34399092970523	72	127
183.58780045351475	184.1334693877551	72	127
184.1334693877551	184.43532879818594	71	127
184.71396825396826	185.3292970521542	71	127
185.3292970521542	185.5963038548753	69	127
185.8633560090703	186.2697052154195	67	127
186.2697052154195	186.3974149659864	62	127
186.2697052154195	186.3974149659864	74	127
186.3974149659864	187.50036281179138	67	127
186.3974149659864	187.50036281179138	79	127
187.50036281179138	187.62807256235828	62	127
187.50036281179138	187.62807256235828	74	127
187.62807256235828	188.64975056689343	83	127
187.62807256235828	188.64975056689343	71	127
188.64975056689343	188.7774603174603	67	127
188.64975056689343	188.7774603174603	79	127
188.7774603174603	189.18380952380951	73	127
188.7774603174603	189.18380952380951	85	127
189.18380952380951	189.3231292517007	88	127
189.18380952380951	189.3231292517007	76	127
189.3231292517007	189.7526984126984	74	127
189.3231292517007	189.7526984126984	86	127
189.7526984126984	189.88040816326532	69	127
189.7526984126984	189.88040816326532	81	127
189.88040816326532	190.90208616780046	84	127
189.88040816326532	190.90208616780046	72	127
190.90208616780046	191.02979591836734	66	127
190.90208616780046	191.02979591836734	78	127
191.02979591836734	191.99342403628117	69	127
191.02979591836734	191.99342403628117	81	127
191.99342403628117	192.1095238095238	69	127
191.99342403628117	192.1095238095238	57	127
192.1095238095238	192.53909297052155	63	127
192.1095238095238	192.53909297052155	75	127
192.53909297052155	192.73646258503402	62	127
192.53909297052155	192.73646258503402	74	127
192.73646258503402	193.177641723356	55	127
192.73646258503402	193.177641723356	67	127
193.177641723356	193.32857142857142	62	127
193.177641723356	193.32857142857142	74	127
193.32857142857142	194.30380952380952	67	127
193.32857142857142	194.30380952380952	79	127
194.30380952380952	194.44312925170067	62	127
194.30380952380952	194.44312925170067	74	127
194.44312925170067	195.3487074829932	71	127
194.44312925170067	195.3487074829932	83	127
195.3487074829932	195.48802721088435	67	127
195.3487074829932	195.48802721088435	79	127
195.48802721088435	195.85954648526078	73	127
195.48802721088435	195.85954648526078	85	127
195.85954648526078	195.99886621315193	88	127
195.85954648526078	195.99886621315193	76	127
195.99886621315193	196.39360544217686	74	127
195.99886621315193	196.39360544217686	86	127
196.39360544217686	196.53292517006804	81	127
196.39360544217686	196.53292517006804	69	127
196.53292517006804	197.54299319727892	72	127
196.53292517006804	197.54299319727892	84	127
197.54299319727892	197.6707029478458	66	127
197.54299319727892	197.6707029478458	78	127
197.6707029478458	198.7039909297052	81	127
197.6707029478458	198.7039909297052	69	127
198.7039909297052	198.83170068027212	69	127
198.7039909297052	198.83170068027212	57	127
198.83170068027212	199.23804988662133	63	127
198.83170068027212	199.23804988662133	75	127
199.23804988662133	199.3657596371882	62	127
199.23804988662133	199.3657596371882	74	127
199.3657596371882	199.81854875283446	55	127
199.3657596371882	199.81854875283446	67	127
199.81854875283446	199.95786848072564	50	127
199.81854875283446	199.95786848072564	62	127
199.95786848072564	200.99115646258502	55	127
199.95786848072564	200.99115646258502	67	127
200.99115646258502	201.11886621315193	50	127
200.99115646258502	201.11886621315193	62	127
201.11886621315193	202.1057142857143	59	127
201.11886621315193	202.1057142857143	71	127
202.1057142857143	202.24503401360545	54	127
202.1057142857143	202.24503401360545	66	127
202.24503401360545	202.77909297052153	57	127
202.24503401360545	202.77909297052153	69	127
202.77909297052153	203.197052154195	55	127
202.77909297052153	203.197052154195	67	127
203.197052154195	203.34798185941042	50	127
203.197052154195	203.34798185941042	62	127
203.34798185941042	204.28839002267574	55	127
203.34798185941042	204.28839002267574	67	127
204.28839002267574	204.4277097505669	50	127
204.28839002267574	204.4277097505669	62	127
204.4277097505669	205.35650793650794	59	127
204.4277097505669	205.35650793650794	71	127
205.35650793650794	205.4958276643991	66	127
205.35650793650794	205.4958276643991	54	127
205.4958276643991	206.01827664399093	57	127
205.4958276643991	206.01827664399093	69	127
206.01827664399093	206.44784580498867	55	127
206.01827664399093	206.44784580498867	67	127
206.44784580498867	206.58716553287982	50	127
206.44784580498867	206.58716553287982	62	127
206.58716553287982	207.63206349206348	55	127
206.58716553287982	207.63206349206348	67	127
207.63206349206348	207.7829931972789	50	127
207.63206349206348	207.7829931972789	62	127
207.7829931972789	208.8859410430839	55	127
207.7829931972789	208.8859410430839	67	127
208.8859410430839	209.03687074829932	62	127
208.8859410430839	209.03687074829932	50	127
209.03687074829932	210.37201814058957	67	127
209.03687074829932	210.37201814058957	55	127
210.37201814058957	210.53455782312926	62	127
210.37201814058957	210.53455782312926	50	127
210.53455782312926	214.5980498866213	67	127
210.53455782312926	214.5980498866213	55	127
215.2365986394558	216.29310657596372	84	127
215.2365986394558	216.29310657596372	72	127
216.29310657596372	217.36122448979592	75	127
216.29310657596372	217.36122448979592	87	127
217.36122448979592	218.03460317460318	77	127
217.36122448979592	218.03460317460318	65	127
218.03460317460318	218.61510204081634	79	127
218.03460317460318	218.61510204081634	67	127
218.61510204081634	218.67315192743763	68	127
218.61510204081634	218.67315192743763	80	127
218.67315192743763	218.7544217687075	82	127
218.67315192743763	218.7544217687075	70	127
218.7544217687075	218.8473015873016	80	127
218.7544217687075	218.8473015873016	68	127
218.8473015873016	218.9401814058957	82	127
218.8473015873016	218.9401814058957	70	127
218.9401814058957	219.00984126984127	80	127
218.9401814058957	219.00984126984127	68	127
219.00984126984127	219.07950113378683	70	127
219.00984126984127	219.07950113378683	82	127
219.07950113378683	219.13755102040815	68	127
219.07950113378683	219.13755102040815	80	127
219.13755102040815	219.19560090702947	82	127
219.13755102040815	219.19560090702947	70	127
219.19560090702947	219.24204081632652	68	127
219.19560090702947	219.24204081632652	80	127
219.24204081632652	219.28848072562357	82	127
219.24204081632652	219.28848072562357	70	127
219.28848072562357	219.35814058956916	68	127
219.28848072562357	219.35814058956916	80	127
219.35814058956916	219.4742403628118	70	127
219.35814058956916	219.4742403628118	82	127
219.4742403628118	219.61356009070295	67	127
219.4742403628118	219.61356009070295	79	127
219.61356009070295	219.77609977324263	68	127
219.61356009070295	219.77609977324263	80	127
219.77609977324263	221.62208616780046	82	127
219.77609977324263	221.62208616780046	70	127
221.62208616780046	222.2374149659864	83	127
221.62208616780046	222.2374149659864	71	127
222.2374149659864	222.66698412698412	72	127
222.2374149659864	222.66698412698412	84	127
222.66698412698412	222.81791383219954	92	127
222.66698412698412	222.81791383219954	80	127
222.81791383219954	223.2707029478458	80	127
222.81791383219954	223.2707029478458	92	127
223.2707029478458	223.3984126984127	72	127
223.2707029478458	223.3984126984127	84	127
223.3984126984127	223.79315192743763	73	127
223.3984126984127	223.79315192743763	85	127
223.79315192743763	223.97891156462586	89	127
223.79315192743763	223.97891156462586	77	127
223.97891156462586	224.54780045351475	77	127
223.97891156462586	224.54780045351475	89	127
224.54780045351475	224.69873015873017	71	127
224.54780045351475	224.69873015873017	83	127
224.69873015873017	225.16312925170067	84	127
224.69873015873017	225.16312925170067	72	127
225.16312925170067	225.2792290249433	87	127
225.16312925170067	225.2792290249433	75	127
225.2792290249433	225.73201814058956	87	127
225.2792290249433	225.73201814058956	75	127
225.73201814058956	225.92938775510203	68	127
225.73201814058956	225.92938775510203	80	127
225.92938775510203	226.78852607709752	72	127
225.92938775510203	226.78852607709752	84	127
226.78852607709752	226.96267573696144	85	127
226.78852607709752	226.96267573696144	73	127
226.96267573696144	227.14843537414967	72	127
226.96267573696144	227.14843537414967	84	127
227.14843537414967	227.7637641723356	70	127
227.14843537414967	227.7637641723356	82	127
227.7637641723356	228.10045351473923	79	127
228.10045351473923	228.4255328798186	82	127
228.4255328798186	228.7738321995465	76	127
228.7738321995465	229.1105215419501	75	127
229.1105215419501	229.458820861678	74	127
229.458820861678	229.83034013605442	73	127
229.83034013605442	231.02616780045352	72	127
233.6732426303855	234.88068027210883	84	127
233.6732426303855	234.88068027210883	72	127
234.88068027210883	237.44648526077097	75	127
234.88068027210883	237.44648526077097	87	127
237.44648526077097	238.65392290249434	75	127
237.44648526077097	238.65392290249434	87	127
238.65392290249434	239.5362811791383	80	127
238.65392290249434	239.5362811791383	92	127
239.5362811791383	239.8613605442177	77	127
239.5362811791383	239.8613605442177	89	127
239.8613605442177	240.68566893424037	87	127
239.8613605442177	240.68566893424037	75	127
240.68566893424037	241.31260770975058	84	127
240.68566893424037	241.31260770975058	72	127
241.31260770975058	242.61292517006802	73	127
241.31260770975058	242.61292517006802	85	127
242.61292517006802	242.9380045351474	79	127
242.61292517006802	242.9380045351474	67	127
242.9380045351474	243.6578231292517	68	127
242.9380045351474	243.6578231292517	80	127
245.6663492063492	247.14081632653063	77	127
245.6663492063492	247.14081632653063	65	127
247.14081632653063	248.80104308390023	68	127
247.14081632653063	248.80104308390023	80	127
248.80104308390023	249.056462585034	79	127
248.80104308390023	249.056462585034	67	127
249.056462585034	249.30027210884353	70	127
249.056462585034	249.30027210884353	82	127
249.30027210884353	249.5324716553288	68	127
249.30027210884353	249.5324716553288	80	127
249.5324716553288	249.74145124716554	66	127
249.5324716553288	249.74145124716554	78	127
249.74145124716554	249.95043083900228	75	127
249.74145124716554	249.95043083900228	63	127
249.95043083900228	250.1942403628118	61	127
249.95043083900228	250.1942403628118	73	127
250.1942403628118	250.29873015873017	75	127
250.1942403628118	250.29873015873017	63	127
250.29873015873017	250.39160997732426	73	127
250.29873015873017	250.39160997732426	61	127
250.39160997732426	250.44965986394558	75	127
250.39160997732426	250.44965986394558	63	127
250.44965986394558	250.51931972789114	73	127
250.44965986394558	250.51931972789114	61	127
250.51931972789114	250.6238095238095	63	127
250.51931972789114	250.6238095238095	75	127
250.6238095238095	250.6934693877551	61	127
250.6238095238095	250.6934693877551	73	127
250.6934693877551	250.75151927437642	75	127
250.6934693877551	250.75151927437642	63	127
250.75151927437642	250.84439909297052	61	127
250.75151927437642	250.84439909297052	73	127
250.84439909297052	250.93727891156462	63	127
250.84439909297052	250.93727891156462	75	127
250.93727891156462	251.03015873015872	73	127
250.93727891156462	251.03015873015872	61	127
251.03015873015872	251.0998185941043	63	127
251.03015873015872	251.0998185941043	75	127
251.0998185941043	251.2275283446712	60	127
251.0998185941043	251.2275283446712	72	127
251.2275283446712	251.37845804988663	61	127
251.2275283446712	251.37845804988663	73	127
251.37845804988663	253.2708843537415	63	127
251.37845804988663	253.2708843537415	75	127
253.2708843537415	253.85138321995464	76	127
253.2708843537415	253.85138321995464	64	127
253.85138321995464	254.06036281179138	65	127
253.85138321995464	254.06036281179138	77	127
254.06036281179138	254.1184126984127	67	127
254.06036281179138	254.1184126984127	79	127
254.1184126984127	254.2112925170068	77	127
254.1184126984127	254.2112925170068	65	127
254.2112925170068	254.28095238095239	79	127
254.2112925170068	254.28095238095239	67	127
254.28095238095239	254.3390022675737	77	127
254.28095238095239	254.3390022675737	65	127
254.3390022675737	254.4318820861678	67	127
254.3390022675737	254.4318820861678	79	127
254.4318820861678	254.47832199546485	65	127
254.4318820861678	254.47832199546485	77	127
254.47832199546485	254.55959183673468	67	127
254.47832199546485	254.55959183673468	79	127
254.55959183673468	254.64086167800454	65	127
254.55959183673468	254.64086167800454	77	127
254.64086167800454	254.69891156462586	79	127
254.64086167800454	254.69891156462586	67	127
254.69891156462586	254.81501133786847	77	127
254.69891156462586	254.81501133786847	65	127
254.81501133786847	254.88467120181406	67	127
254.81501133786847	254.88467120181406	79	127
254.88467120181406	255.0239909297052	64	127
254.88467120181406	255.0239909297052	76	127
255.0239909297052	255.30263038548753	77	127
255.0239909297052	255.30263038548753	65	127
255.30263038548753	256.7306575963719	73	127
255.30263038548753	256.7306575963719	85	127
256.7306575963719	256.92802721088435	84	127
256.7306575963719	256.92802721088435	72	127
256.92802721088435	257.11378684807255	82	127
256.92802721088435	257.11378684807255	70	127
257.11378684807255	257.3227664399093	80	127
257.11378684807255	257.3227664399093	68	127
257.3227664399093	257.55496598639456	67	127
257.3227664399093	257.55496598639456	79	127
257.55496598639456	257.78716553287984	77	127
257.55496598639456	257.78716553287984	65	127
257.78716553287984	257.9032426303855	75	127
257.78716553287984	257.9032426303855	63	127
257.9032426303855	257.9845351473923	65	127
257.9032426303855	257.9845351473923	77	127
257.9845351473923	258.06580498866214	75	127
257.9845351473923	258.06580498866214	63	127
258.06580498866214	258.1819047619048	65	127
258.06580498866214	258.1819047619048	77	127
258.1819047619048	258.2747845804989	75	127
258.1819047619048	258.2747845804989	63	127
258.2747845804989	258.34444444444443	77	127
258.2747845804989	258.34444444444443	65	127
258.34444444444443	258.4256916099773	63	127
258.34444444444443	258.4256916099773	75	127
258.4256916099773	258.5185714285714	65	127
258.4256916099773	258.5185714285714	77	127
258.5185714285714	258.6811337868481	75	127
258.5185714285714	258.6811337868481	63	127
258.6811337868481	258.7624036281179	77	127
258.6811337868481	258.7624036281179	65	127
258.7624036281179	258.8320408163265	75	127
258.7624036281179	258.8320408163265	63	127
258.8320408163265	258.9017233560091	65	127
258.8320408163265	258.9017233560091	77	127
258.9017233560091	259.0526530612245	74	127
258.9017233560091	259.0526530612245	62	127
259.0526530612245	259.1803628117914	63	127
259.0526530612245	259.1803628117914	75	127
259.1803628117914	260.6664172335601	72	127
259.1803628117914	260.6664172335601	84	127
260.6664172335601	260.88702947845803	67	127
260.6664172335601	260.88702947845803	79	127
260.88702947845803	261.1656689342404	68	127
260.88702947845803	261.1656689342404	80	127
261.1656689342404	261.3978684807256	74	127
261.1656689342404	261.3978684807256	62	127
261.3978684807256	261.58360544217686	75	127
261.3978684807256	261.58360544217686	63	127
261.58360544217686	261.8158276643991	60	127
261.58360544217686	261.8158276643991	72	127
261.8158276643991	262.09444444444443	64	127
261.8158276643991	262.09444444444443	76	127
262.09444444444443	262.2918367346939	77	127
262.09444444444443	262.2918367346939	65	127
262.2918367346939	262.5124036281179	80	127
262.2918367346939	262.5124036281179	68	127
262.5124036281179	262.7562358276644	77	127
262.5124036281179	262.7562358276644	65	127
262.7562358276644	263.0813151927438	73	127
262.7562358276644	263.0813151927438	61	127
263.0813151927438	263.27868480725624	58	127
263.0813151927438	263.27868480725624	70	127
263.27868480725624	264.6951020408163	56	127
263.27868480725624	264.6951020408163	68	127
264.6951020408163	264.8808616780045	58	127
264.6951020408163	264.8808616780045	70	127
264.8808616780045	265.12467120181407	56	127
264.8808616780045	265.12467120181407	68	127
265.12467120181407	265.80965986394557	55	127
265.12467120181407	265.80965986394557	67	127
270.70907029478457	271.97455782312926	84	127
270.70907029478457	271.97455782312926	72	127
271.97455782312926	274.01791383219955	75	127
271.97455782312926	274.01791383219955	87	127
274.01791383219955	274.6332426303855	88	127
274.01791383219955	274.6332426303855	76	127
274.6332426303855	276.0496598639456	77	127
274.6332426303855	276.0496598639456	89	127
276.0496598639456	277.3615873015873	80	127
276.0496598639456	277.3615873015873	92	127
277.3615873015873	278.0233560090703	70	127
277.3615873015873	278.0233560090703	82	127
278.0233560090703	278.63868480725625	72	127
278.0233560090703	278.63868480725625	84	127
278.63868480725625	278.7083446712018	73	127
278.63868480725625	278.7083446712018	85	127
278.7083446712018	278.76637188208616	75	127
278.7083446712018	278.76637188208616	87	127
278.76637188208616	278.87086167800453	73	127
278.76637188208616	278.87086167800453	85	127
278.87086167800453	278.9405442176871	75	127
278.87086167800453	278.9405442176871	87	127
278.9405442176871	279.0218140589569	85	127
278.9405442176871	279.0218140589569	73	127
279.0218140589569	279.0914739229025	75	127
279.0218140589569	279.0914739229025	87	127
279.0914739229025	279.17272108843537	85	127
279.0914739229025	279.17272108843537	73	127
279.17272108843537	279.27721088435374	87	127
279.17272108843537	279.27721088435374	75	127
279.27721088435374	279.3933333333333	73	127
279.27721088435374	279.3933333333333	85	127
279.3933333333333	279.4861904761905	87	127
279.3933333333333	279.4861904761905	75	127
279.4861904761905	279.5674829931973	73	127
279.4861904761905	279.5674829931973	85	127
279.5674829931973	279.6603628117914	87	127
279.5674829931973	279.6603628117914	75	127
279.6603628117914	279.7880498866213	84	127
279.6603628117914	279.7880498866213	72	127
279.7880498866213	279.9390022675737	73	127
279.7880498866213	279.9390022675737	85	127
279.9390022675737	281.18126984126985	75	127
279.9390022675737	281.18126984126985	87	127
281.18126984126985	282.5628571428571	89	127
281.18126984126985	282.5628571428571	77	127
282.5628571428571	282.99242630385487	87	127
282.5628571428571	282.99242630385487	75	127
282.99242630385487	283.28267573696144	89	127
282.99242630385487	283.28267573696144	77	127
283.28267573696144	283.59614512471654	73	127
283.28267573696144	283.59614512471654	85	127
283.59614512471654	283.9560544217687	82	127
283.59614512471654	283.9560544217687	70	127
283.9560544217687	284.234693877551	68	127
283.9560544217687	284.234693877551	80	127
284.234693877551	284.4204535147392	82	127
284.234693877551	284.4204535147392	70	127
284.4204535147392	284.64104308390023	68	127
284.4204535147392	284.64104308390023	80	127
284.64104308390023	285.04739229024943	79	127
284.64104308390023	285.04739229024943	67	127
285.04739229024943	285.62789115646257	68	127
285.04739229024943	285.62789115646257	80	127
285.62789115646257	286.7540589569161	84	127
285.62789115646257	286.7540589569161	72	127
286.7540589569161	287.2881179138322	70	127
286.7540589569161	287.2881179138322	82	127
287.2881179138322	287.68285714285713	68	127
287.2881179138322	287.68285714285713	80	127
287.68285714285713	287.97308390022675	62	127
287.68285714285713	287.97308390022675	74	127
287.97308390022675	288.1936961451247	63	127
287.97308390022675	288.1936961451247	75	127
288.1936961451247	288.40267573696144	68	127
288.1936961451247	288.40267573696144	80	127
288.40267573696144	288.5768027210884	75	127
288.40267573696144	288.5768027210884	63	127
288.5768027210884	288.7741950113379	60	127
288.5768027210884	288.7741950113379	72	127
288.7741950113379	288.9483446712018	63	127
288.7741950113379	288.9483446712018	75	127
288.9483446712018	289.1457142857143	60	127
288.9483446712018	289.1457142857143	72	127
289.1457142857143	289.3198639455782	56	127
289.1457142857143	289.3198639455782	68	127
289.3198639455782	289.4939909297052	60	127
289.3198639455782	289.4939909297052	72	127
289.4939909297052	289.7726530612245	56	127
289.4939909297052	289.7726530612245	68	127
289.7726530612245	289.9932426303855	51	127
289.7726530612245	289.9932426303855	63	127
289.9932426303855	290.3647619047619	68	127
289.9932426303855	290.3647619047619	56	127
290.3647619047619	290.5853514739229	51	127
290.3647619047619	290.5853514739229	63	127
290.5853514739229	290.75950113378684	48	127
290.5853514739229	290.75950113378684	60	127
290.75950113378684	290.9336281179138	63	127
290.75950113378684	290.9336281179138	51	127
290.9336281179138	291.10780045351476	48	127
290.9336281179138	291.10780045351476	60	127
291.10780045351476	291.3980498866213	44	127
291.10780045351476	291.3980498866213	56	127
291.3980498866213	291.66507936507935	72	127
291.3980498866213	291.66507936507935	84	127
291.66507936507935	291.955306122449	68	127
291.66507936507935	291.955306122449	80	127
291.955306122449	292.1642857142857	63	127
291.955306122449	292.1642857142857	75	127
292.1642857142857	292.3616553287982	80	127
292.1642857142857	292.3616553287982	68	127
292.3616553287982	292.5706349206349	63	127
292.3616553287982	292.5706349206349	75	127
292.5706349206349	292.74480725623584	60	127
292.5706349206349	292.74480725623584	72	127
292.74480725623584	292.9189569160998	63	127
292.74480725623584	292.9189569160998	75	127
292.9189569160998	293.1279365079365	60	127
292.9189569160998	293.1279365079365	72	127
293.1279365079365	293.33691609977325	56	127
293.1279365079365	293.33691609977325	68	127
293.33691609977325	293.54589569161	60	127
293.33691609977325	293.54589569161	72	127
293.54589569161	293.74326530612245	56	127
293.54589569161	293.74326530612245	68	127
293.74326530612245	293.9406349206349	63	127
293.74326530612245	293.9406349206349	51	127
293.9406349206349	294.1263945578231	68	127
293.9406349206349	294.1263945578231	56	127
294.1263945578231	294.3469841269841	51	127
294.1263945578231	294.3469841269841	63	127
294.3469841269841	294.5791836734694	48	127
294.3469841269841	294.5791836734694	60	127
294.5791836734694	294.8926530612245	51	127
294.5791836734694	294.8926530612245	63	127
294.8926530612245	295.090022675737	48	127
294.8926530612245	295.090022675737	60	127
295.090022675737	295.3338095238095	44	127
295.090022675737	295.3338095238095	56	127
295.3338095238095	295.56603174603174	84	127
295.3338095238095	295.56603174603174	72	127
295.56603174603174	295.78662131519275	81	127
295.56603174603174	295.78662131519275	69	127
295.78662131519275	295.9839909297052	75	127
295.78662131519275	295.9839909297052	63	127
295.9839909297052	296.2161904761905	81	127
295.9839909297052	296.2161904761905	69	127
296.2161904761905	296.3903401360544	75	127
296.2161904761905	296.3903401360544	63	127
296.3903401360544	296.56448979591835	60	127
296.3903401360544	296.56448979591835	72	127
296.56448979591835	296.83151927437643	63	127
296.56448979591835	296.83151927437643	75	127
296.83151927437643	297.0288888888889	60	127
296.83151927437643	297.0288888888889	72	127
297.0288888888889	297.2494784580499	57	127
297.0288888888889	297.2494784580499	69	127
297.2494784580499	297.45845804988664	60	127
297.2494784580499	297.45845804988664	72	127
297.45845804988664	297.69065759637186	69	127
297.45845804988664	297.69065759637186	57	127
297.69065759637186	297.8996371882086	51	127
297.69065759637186	297.8996371882086	63	127
297.8996371882086	298.1318367346939	69	127
297.8996371882086	298.1318367346939	57	127
298.1318367346939	298.3524263038549	51	127
298.1318367346939	298.3524263038549	63	127
298.3524263038549	298.5265759637188	48	127
298.3524263038549	298.5265759637188	60	127
298.5265759637188	298.712335600907	51	127
298.5265759637188	298.712335600907	63	127
298.712335600907	298.89809523809527	48	127
298.712335600907	298.89809523809527	60	127
298.89809523809527	299.28122448979593	45	127
298.89809523809527	299.28122448979593	57	127
299.28122448979593	299.5714739229025	72	127
299.28122448979593	299.5714739229025	84	127
299.5714739229025	299.7572335600907	81	127
299.5714739229025	299.7572335600907	69	127
299.7572335600907	299.95460317460316	76	127
299.7572335600907	299.95460317460316	64	127
299.95460317460316	300.14036281179136	81	127
299.95460317460316	300.14036281179136	69	127
300.14036281179136	300.3261224489796	76	127
300.14036281179136	300.3261224489796	64	127
300.3261224489796	300.5118820861678	60	127
300.3261224489796	300.5118820861678	72	127
300.5118820861678	300.7092517006803	76	127
300.5118820861678	300.7092517006803	64	127
300.7092517006803	300.95303854875283	60	127
300.7092517006803	300.95303854875283	72	127
300.95303854875283	301.18526077097505	57	127
300.95303854875283	301.18526077097505	69	127
301.18526077097505	301.34780045351476	72	127
301.18526077097505	301.34780045351476	60	127
301.34780045351476	301.5567800453515	57	127
301.34780045351476	301.5567800453515	69	127
301.5567800453515	301.77736961451245	52	127
301.5567800453515	301.77736961451245	64	127
301.77736961451245	301.974716553288	69	127
301.77736961451245	301.974716553288	57	127
301.974716553288	302.17208616780044	52	127
301.974716553288	302.17208616780044	64	127
302.17208616780044	302.3810657596372	48	127
302.17208616780044	302.3810657596372	60	127
302.3810657596372	302.57845804988665	64	127
302.3810657596372	302.57845804988665	52	127
302.57845804988665	302.76421768707485	48	127
302.57845804988665	302.76421768707485	60	127
302.76421768707485	303.0196371882086	45	127
302.76421768707485	303.0196371882086	57	127
303.0196371882086	303.32149659863944	76	127
303.0196371882086	303.32149659863944	88	127
303.32149659863944	303.5304761904762	86	127
303.32149659863944	303.5304761904762	74	127
303.5304761904762	303.7510657596372	83	127
303.5304761904762	303.7510657596372	71	127
303.7510657596372	304.006485260771	86	127
303.7510657596372	304.006485260771	74	127
304.006485260771	304.2502947845805	83	127
304.006485260771	304.2502947845805	71	127
304.2502947845805	304.49410430839004	80	127
304.2502947845805	304.49410430839004	68	127
304.49410430839004	304.6914739229025	83	127
304.49410430839004	304.6914739229025	71	127
304.6914739229025	304.8772335600907	68	127
304.6914739229025	304.8772335600907	80	127
304.8772335600907	305.07460317460317	64	127
304.8772335600907	305.07460317460317	76	127
305.07460317460317	305.2951927437642	68	127
305.07460317460317	305.2951927437642	80	127
305.2951927437642	305.58544217687074	64	127
305.2951927437642	305.58544217687074	76	127
305.58544217687074	305.7595691609977	62	127
305.58544217687074	305.7595691609977	74	127
305.7595691609977	306.0034013605442	64	127
305.7595691609977	306.0034013605442	76	127
306.0034013605442	306.43297052154196	62	127
306.0034013605442	306.43297052154196	74	127
306.43297052154196	306.6883900226757	59	127
306.43297052154196	306.6883900226757	71	127
306.6883900226757	306.874126984127	62	127
306.6883900226757	306.874126984127	74	127
306.874126984127	307.0599092970522	59	127
306.874126984127	307.0599092970522	71	127
307.0599092970522	307.25727891156464	56	127
307.0599092970522	307.25727891156464	68	127
307.25727891156464	307.43142857142857	69	127
307.25727891156464	307.5126984126984	45	127
307.43142857142857	307.6055782312925	64	127
307.6055782312925	307.79133786848075	69	127
307.79133786848075	308.06997732426305	57	127
307.79133786848075	307.9887074829932	72	127
307.9887074829932	308.16285714285715	69	127
308.16285714285715	308.3370068027211	64	127
308.3370068027211	308.6504761904762	45	127
308.3370068027211	308.5227664399093	69	127
308.5227664399093	308.8130158730159	64	127
308.8130158730159	309.0452154195011	69	127
309.0452154195011	309.2309523809524	72	127
309.0452154195011	309.30063492063493	57	127
309.2309523809524	309.3702947845805	69	127
309.3702947845805	309.5444217687075	64	127
309.5444217687075	309.7302040816327	69	127
309.5444217687075	309.9159637188209	45	127
309.7302040816327	310.1249433106576	64	127
310.1249433106576	310.3455328798186	69	127
310.3455328798186	310.5429024943311	72	127
310.3455328798186	310.61256235827665	57	127
310.5429024943311	310.70544217687075	69	127
310.70544217687075	310.8795918367347	64	127
310.8795918367347	311.1001814058957	69	127
310.8795918367347	311.1814512471655	45	127
311.1001814058957	311.2627210884354	65	127
311.2627210884354	311.5413605442177	69	127
311.5413605442177	311.75034013605443	74	127
311.5413605442177	311.84321995464853	57	127
311.75034013605443	311.9128798185941	69	127
311.9128798185941	312.09861678004535	65	127
312.09861678004535	312.33083900226757	69	127
312.09861678004535	312.6326984126984	45	127
312.33083900226757	312.7371882086168	65	127
312.7371882086168	312.93455782312924	69	127
312.93455782312924	313.1087074829932	74	127
312.93455782312924	313.2015873015873	57	127
313.1087074829932	313.28285714285715	69	127
313.28285714285715	313.46861678004535	65	127
313.46861678004535	313.65437641723355	69	127
313.46861678004535	313.78208616780046	45	127
313.65437641723355	313.8633560090703	65	127
313.8633560090703	314.0491156462585	69	127
314.0491156462585	314.22326530612247	74	127
314.0491156462585	314.31614512471657	57	127
314.22326530612247	314.3974149659864	69	127
314.3974149659864	314.60639455782314	65	127
314.60639455782314	314.82698412698414	69	127
314.60639455782314	315.0359637188209	45	127
314.82698412698414	315.175283446712	64	127
315.175283446712	315.4655102040816	69	127
315.4655102040816	315.7441723356009	57	127
315.4655102040816	315.6512925170068	72	127
315.6512925170068	315.8138321995465	69	127
315.8138321995465	315.9995918367347	64	127
315.9995918367347	316.17374149659867	69	127
315.9995918367347	316.3130612244898	45	127
316.17374149659867	316.4059410430839	64	127
316.4059410430839	316.60331065759635	69	127
316.60331065759635	316.77746031746034	72	127
316.60331065759635	316.8471201814059	57	127
316.77746031746034	316.94	69	127
316.94	317.1141496598639	64	127
317.1141496598639	317.36956916099774	45	127
317.1141496598639	317.27668934240364	69	127
317.27668934240364	317.5785487528345	64	127
317.5785487528345	317.7875283446712	69	127
317.7875283446712	317.96167800453514	72	127
317.7875283446712	318.05455782312924	57	127
317.96167800453514	318.14743764172334	69	127
318.14743764172334	318.32158730158733	64	127
318.32158730158733	318.49573696145126	68	127
318.32158730158733	318.58861678004536	40	127
318.49573696145126	318.6698866213152	62	127
318.6698866213152	318.82081632653063	68	127
318.82081632653063	319.09945578231293	52	127
318.82081632653063	318.99496598639456	71	127
318.99496598639456	319.22716553287984	68	127
319.22716553287984	319.41292517006804	62	127
319.41292517006804	319.8308843537415	40	127
319.41292517006804	319.72639455782314	68	127
319.72639455782314	319.9353741496599	62	127
319.9353741496599	320.17918367346937	68	127
320.17918367346937	320.4926530612245	52	127
320.17918367346937	320.3997732426304	71	127
320.3997732426304	320.59714285714284	68	127
320.59714285714284	320.7828798185941	62	127
320.7828798185941	320.98027210884356	68	127
320.7828798185941	321.0963492063492	40	127
320.98027210884356	321.1892290249433	62	127
321.1892290249433	321.3750113378685	68	127
321.3750113378685	321.5607709750567	71	127
321.3750113378685	321.6420408163265	52	127
321.5607709750567	321.7349206349206	68	127
321.7349206349206	321.9090476190476	62	127
321.9090476190476	322.21090702947845	45	127
321.9090476190476	322.0948299319728	69	127
322.0948299319728	322.3153968253968	60	127
322.3153968253968	322.4779591836735	69	127
322.4779591836735	322.7565986394558	57	127
322.4779591836735	322.67532879818594	72	127
322.67532879818594	322.8494784580499	69	127
322.8494784580499	323.0352154195011	60	127
323.0352154195011	323.3254875283447	45	127
323.0352154195011	323.2209977324263	69	127
323.2209977324263	323.42997732426306	64	127
323.42997732426306	323.8827664399093	69	127
323.8827664399093	324.1497959183674	57	127
323.8827664399093	324.0568934240363	72	127
324.0568934240363	324.2310657596372	69	127
324.2310657596372	324.4168253968254	64	127
324.4168253968254	324.6025850340136	70	127
324.4168253968254	324.6954648526077	45	127
324.6025850340136	324.7767120181406	64	127
324.7767120181406	324.9624943310658	70	127
324.9624943310658	325.2295238095238	57	127
324.9624943310658	325.1366439909297	73	127
325.1366439909297	325.31079365079364	70	127
325.31079365079364	325.49655328798184	64	127
325.49655328798184	325.78680272108846	45	127
325.49655328798184	325.6823129251701	69	127
325.6823129251701	325.87968253968256	65	127
325.87968253968256	326.0886621315193	69	127
326.0886621315193	326.25120181405896	74	127
326.0886621315193	326.34408163265306	57	127
326.25120181405896	326.4253514739229	69	127
326.4253514739229	326.5995011337869	65	127
326.5995011337869	326.7736507936508	69	127
326.5995011337869	326.87814058956917	45	127
326.7736507936508	326.98263038548754	65	127
326.98263038548754	327.20321995464855	69	127
327.20321995464855	327.3773696145125	74	127
327.20321995464855	327.4702494331066	57	127
327.3773696145125	327.5631292517007	69	127
327.5631292517007	327.7256689342404	65	127
327.7256689342404	327.92303854875286	69	127
327.7256689342404	328.062358276644	45	127
327.92303854875286	328.1900680272109	65	127
328.1900680272109	328.42226757369616	69	127
328.42226757369616	328.66607709750565	74	127
328.42226757369616	328.7589342403628	57	127
328.66607709750565	328.84022675736963	69	127
328.84022675736963	329.01437641723356	65	127
329.01437641723356	329.1885260770975	69	127
329.01437641723356	329.2814058956916	45	127
329.1885260770975	329.39750566893423	64	127
329.39750566893423	329.5832426303855	69	127
329.5832426303855	329.87351473922905	57	127
329.5832426303855	329.78061224489795	72	127
329.78061224489795	329.96639455782315	69	127
329.96639455782315	330.1405442176871	64	127
330.1405442176871	330.314693877551	69	127
330.1405442176871	330.4075736961451	45	127
330.314693877551	330.52367346938775	64	127
330.52367346938775	331.0345124716553	69	127
331.0345124716553	331.3131292517007	57	127
331.0345124716553	331.2318820861678	72	127
331.2318820861678	331.4060317460318	69	127
331.4060317460318	331.5801814058957	64	127
331.5801814058957	331.78916099773244	69	127
331.5801814058957	331.91687074829935	45	127
331.78916099773244	332.00975056689344	64	127
332.00975056689344	332.3580498866213	69	127
332.3580498866213	332.54378684807256	72	127
332.3580498866213	332.6250793650794	57	127
332.54378684807256	332.7179591836735	69	127
332.7179591836735	332.8921088435374	64	127
332.8921088435374	333.0778684807256	68	127
332.8921088435374	333.1591156462585	40	127
333.0778684807256	333.24040816326533	62	127
333.24040816326533	333.4377777777778	68	127
333.4377777777778	333.6815873015873	71	127
333.4377777777778	333.7628344671202	52	127
333.6815873015873	333.85573696145127	68	127
333.85573696145127	334.0763038548753	62	127
334.0763038548753	334.4014058956916	40	127
334.0763038548753	334.3085260770975	68	127
334.3085260770975	334.4826530612245	62	127
334.4826530612245	334.7613151927438	68	127
334.7613151927438	335.0979818594104	52	127
334.7613151927438	334.99349206349206	71	127
334.99349206349206	335.17927437641725	68	127
335.17927437641725	335.3766439909297	62	127
335.3766439909297	335.6901133786848	40	127
335.3766439909297	335.5740136054422	68	127
335.5740136054422	335.80621315192747	62	127
335.80621315192747	336.1080725623583	68	127
336.1080725623583	336.3867120181406	52	127
336.1080725623583	336.28222222222223	71	127
336.28222222222223	336.4795918367347	68	127
336.4795918367347	336.6653514739229	62	127
336.6653514739229	336.95560090702946	45	127
336.6653514739229	336.8511111111111	69	127
336.8511111111111	337.04848072562356	60	127
337.04848072562356	337.2458276643991	69	127
337.2458276643991	337.5128798185941	57	127
337.2458276643991	337.42	72	127
337.42	337.59414965986394	69	127
337.59414965986394	337.77990929705214	60	127
337.77990929705214	338.03532879818596	45	127
337.77990929705214	337.9308390022676	69	127
337.9308390022676	338.1165986394558	64	127
338.1165986394558	338.45328798185943	69	127
338.45328798185943	338.63904761904763	72	127
338.45328798185943	338.72031746031746	57	127
338.63904761904763	338.8015873015873	69	127
338.8015873015873	338.98732426303854	64	127
338.98732426303854	339.17310657596374	69	127
338.98732426303854	339.2891836734694	45	127
339.17310657596374	339.44013605442177	64	127
339.44013605442177	339.6491156462585	69	127
339.6491156462585	339.85809523809525	72	127
339.6491156462585	339.95097505668934	57	127
339.85809523809525	340.04385487528344	69	127
340.04385487528344	340.2180045351474	64	127
340.2180045351474	340.54308390022675	43	127
340.2180045351474	340.4037641723356	70	127
340.4037641723356	340.71721088435373	64	127
340.71721088435373	340.9726530612245	70	127
340.9726530612245	341.1932426303855	72	127
340.9726530612245	341.2861224489796	55	127
341.1932426303855	341.39061224489797	70	127
341.39061224489797	341.58798185941043	64	127
341.58798185941043	341.878231292517	43	127
341.58798185941043	341.77374149659863	70	127
341.77374149659863	341.9711111111111	64	127
341.9711111111111	342.2845804988662	70	127
342.2845804988662	342.54	72	127
342.2845804988662	342.6444897959184	55	127
342.54	342.7373696145125	70	127
342.7373696145125	342.89990929705215	64	127
342.89990929705215	343.1901587301587	43	127
342.89990929705215	343.0972789115646	70	127
343.0972789115646	343.2946485260771	64	127
343.2946485260771	343.56167800453517	70	127
343.56167800453517	343.909977324263	55	127
343.56167800453517	343.79385487528344	72	127
343.79385487528344	344.0028571428571	70	127
344.0028571428571	344.20020408163265	64	127
344.20020408163265	344.5485260770975	41	127
344.20020408163265	344.44403628117914	69	127
344.44403628117914	344.66462585034014	65	127
344.66462585034014	344.9316553287982	69	127
344.9316553287982	345.32637188208616	53	127
344.9316553287982	345.1754648526077	72	127
345.1754648526077	345.4308843537415	69	127
345.4308843537415	345.61664399092973	65	127
345.61664399092973	345.84884353741495	69	127
345.61664399092973	345.93009070294784	41	127
345.84884353741495	346.10426303854877	65	127
346.10426303854877	346.3248526077098	69	127
346.3248526077098	346.5454195011338	72	127
346.3248526077098	346.6267120181406	53	127
346.5454195011338	346.7195918367347	69	127
346.7195918367347	346.89374149659864	65	127
346.89374149659864	347.07950113378683	68	127
346.89374149659864	347.1839909297052	35	127
347.07950113378683	347.2652380952381	65	127
347.2652380952381	347.6948299319728	68	127
347.6948299319728	347.9154195011338	74	127
347.6948299319728	348.0779365079365	47	127
347.9154195011338	348.15922902494333	68	127
348.15922902494333	348.3449886621315	65	127
348.3449886621315	348.6004081632653	69	127
348.3449886621315	348.70489795918365	36	127
348.6004081632653	348.7977551020408	65	127
348.7977551020408	349.0415873015873	69	127
349.0415873015873	349.2157369614512	72	127
349.0415873015873	349.33183673469387	48	127
349.2157369614512	349.41308390022675	69	127
349.41308390022675	349.6104535147392	65	127
349.6104535147392	349.87750566893425	36	127
349.6104535147392	349.78462585034015	64	127
349.78462585034015	350.086485260771	58	127
350.086485260771	350.2722448979592	64	127
350.2722448979592	350.4928344671202	67	127
350.2722448979592	350.5857142857143	48	127
350.4928344671202	350.6669841269841	64	127
350.6669841269841	350.8643537414966	58	127
350.8643537414966	351.2126530612245	36	127
350.8643537414966	351.06172335600905	64	127
351.06172335600905	351.29392290249433	58	127
351.29392290249433	351.5725623582766	64	127
351.5725623582766	351.897641723356	67	127
351.5725623582766	352.0601814058957	48	127
351.897641723356	352.26913832199546	64	127
352.26913832199546	352.45492063492065	58	127
352.45492063492065	352.9425396825397	41	127
352.45492063492065	352.9425396825397	57	127
352.9425396825397	353.10507936507935	72	127
352.9425396825397	353.10507936507935	60	127
353.10507936507935	354.0803174603175	65	127
353.10507936507935	354.0803174603175	77	127
354.0803174603175	354.2080272108844	72	127
354.0803174603175	354.2080272108844	60	127
354.2080272108844	355.1716553287982	81	127
354.2080272108844	355.1716553287982	69	127
355.1716553287982	355.2993650793651	60	127
355.1716553287982	355.2993650793651	72	127
355.2993650793651	355.8334240362812	89	127
355.2993650793651	355.8334240362812	77	127
355.8334240362812	356.10045351473923	88	127
355.8334240362812	356.10045351473923	76	127
356.3674603174603	357.1569614512472	94	127
356.3674603174603	357.1569614512472	82	127
357.1569614512472	357.22662131519274	84	127
357.1569614512472	357.22662131519274	96	127
357.31950113378684	357.41238095238094	82	127
357.31950113378684	357.41238095238094	94	127
357.49362811791383	357.57492063492066	81	127
357.49362811791383	357.57492063492066	93	127
357.6561904761905	357.7374603174603	79	127
357.6561904761905	357.7374603174603	91	127
357.81873015873015	357.89997732426303	77	127
357.81873015873015	357.89997732426303	89	127
357.98126984126986	358.07414965986396	76	127
357.98126984126986	358.07414965986396	88	127
358.16702947845806	358.25990929705216	86	127
358.16702947845806	358.25990929705216	74	127
358.3295691609977	358.4108163265306	84	127
358.3295691609977	358.4108163265306	72	127
358.49210884353744	358.57337868480727	70	127
358.49210884353744	358.57337868480727	82	127
358.66625850340137	358.77074829931973	81	127
358.66625850340137	358.77074829931973	69	127
358.85201814058956	358.94489795918366	79	127
358.85201814058956	358.94489795918366	67	127
359.02614512471655	359.3744671201814	77	127
359.02614512471655	359.3744671201814	65	127
359.3744671201814	359.52539682539685	60	127
359.3744671201814	359.52539682539685	72	127
359.52539682539685	360.4193650793651	77	127
359.52539682539685	360.4193650793651	65	127
360.4193650793651	360.547074829932	72	127
360.4193650793651	360.547074829932	60	127
360.547074829932	361.40621315192743	81	127
360.547074829932	361.40621315192743	69	127
361.40621315192743	361.53392290249434	60	127
361.40621315192743	361.53392290249434	72	127
361.53392290249434	362.0563718820862	77	127
361.53392290249434	362.0563718820862	89	127
362.0563718820862	362.4162811791383	88	127
362.0563718820862	362.4162811791383	76	127
362.70650793650793	363.39151927437644	82	127
362.70650793650793	363.39151927437644	94	127
363.39151927437644	363.48439909297053	96	127
363.39151927437644	363.48439909297053	84	127
363.57727891156463	363.681768707483	94	127
363.57727891156463	363.681768707483	82	127
363.75142857142856	363.84430839002266	93	127
363.75142857142856	363.84430839002266	81	127
363.92555555555555	363.9952380952381	91	127
363.92555555555555	363.9952380952381	79	127
364.0881179138322	364.16938775510204	89	127
364.0881179138322	364.16938775510204	77	127
364.26226757369614	364.33190476190475	88	127
364.26226757369614	364.33190476190475	76	127
364.4015873015873	364.48285714285714	86	127
364.4015873015873	364.48285714285714	74	127
364.57573696145124	364.65700680272107	72	127
364.57573696145124	364.65700680272107	84	127
364.7266666666667	364.8079365079365	70	127
364.7266666666667	364.8079365079365	82	127
364.88920634920635	364.98208616780045	69	127
364.88920634920635	364.98208616780045	81	127
365.0633560090703	365.14462585034016	67	127
365.0633560090703	365.14462585034016	79	127
365.23750566893426	365.5045351473923	77	127
365.23750566893426	365.5045351473923	65	127
365.5045351473923	365.5858049886621	57	127
365.5045351473923	365.5858049886621	69	127
365.5858049886621	366.60748299319727	77	127
365.5858049886621	366.60748299319727	65	127
366.60748299319727	366.7351927437642	62	127
366.60748299319727	366.7351927437642	74	127
366.7351927437642	367.6291609977324	69	127
366.7351927437642	367.6291609977324	81	127
367.6291609977324	367.7568707482993	77	127
367.6291609977324	367.7568707482993	65	127
367.7568707482993	368.360589569161	86	127
367.7568707482993	368.360589569161	74	127
368.360589569161	368.65083900226756	73	127
368.360589569161	368.65083900226756	85	127
368.91786848072564	369.5912471655329	91	127
368.91786848072564	369.5912471655329	79	127
369.5912471655329	369.6725170068027	93	127
369.5912471655329	369.6725170068027	81	127
369.7537641723356	369.8466666666667	79	127
369.7537641723356	369.8466666666667	91	127
369.9279365079365	369.9975963718821	89	127
369.9279365079365	369.9975963718821	77	127
370.0904761904762	370.171746031746	76	127
370.0904761904762	370.171746031746	88	127
370.2530158730159	370.3342857142857	86	127
370.2530158730159	370.3342857142857	74	127
370.4271655328798	370.50843537414966	73	127
370.4271655328798	370.50843537414966	85	127
370.60131519274375	370.6825850340136	70	127
370.60131519274375	370.6825850340136	82	127
370.76385487528347	370.85673469387757	81	127
370.76385487528347	370.85673469387757	69	127
370.9380045351474	371.00766439909296	67	127
370.9380045351474	371.00766439909296	79	127
371.10054421768706	371.2050340136054	77	127
371.10054421768706	371.2050340136054	65	127
371.2862811791383	371.33274376417233	64	127
371.2862811791383	371.33274376417233	76	127
371.42562358276643	371.8551927437642	65	127
371.42562358276643	371.8551927437642	77	127
371.8551927437642	371.99451247165536	57	127
371.8551927437642	371.99451247165536	69	127
371.99451247165536	372.81879818594103	65	127
371.99451247165536	372.81879818594103	77	127
372.81879818594103	372.9465306122449	62	127
372.81879818594103	372.9465306122449	74	127
372.9465306122449	373.86371882086166	81	127
372.9465306122449	373.86371882086166	69	127
373.86371882086166	373.9798185941043	65	127
373.86371882086166	373.9798185941043	77	127
373.9798185941043	374.5138775510204	74	127
373.9798185941043	374.5138775510204	86	127
374.5138775510204	374.76927437641723	75	127
374.5138775510204	374.76927437641723	87	127
375.024716553288	375.686462585034	75	127
375.024716553288	375.686462585034	87	127
375.686462585034	375.76775510204084	77	127
375.686462585034	375.76775510204084	89	127
375.84902494331067	375.9302947845805	91	127
375.84902494331067	375.9302947845805	79	127
376.0115646258503	376.1044444444444	89	127
376.0115646258503	376.1044444444444	77	127
376.1857142857143	376.26698412698414	75	127
376.1857142857143	376.26698412698414	87	127
376.3714739229025	376.4643537414966	86	127
376.3714739229025	376.4643537414966	74	127
376.54562358276644	376.63850340136054	84	127
376.54562358276644	376.63850340136054	72	127
376.73138321995464	376.8126303854875	70	127
376.73138321995464	376.8126303854875	82	127
376.9055328798186	376.9984126984127	81	127
376.9055328798186	376.9984126984127	69	127
377.07968253968255	377.17256235827665	67	127
377.07968253968255	377.17256235827665	79	127
377.26544217687075	377.3467120181406	77	127
377.26544217687075	377.3467120181406	65	127
377.42795918367347	377.5092517006803	63	127
377.42795918367347	377.5092517006803	75	127
377.5905215419501	377.85755102040815	62	127
377.5905215419501	377.85755102040815	74	127
378.12458049886624	378.8327891156463	82	127
378.12458049886624	378.8327891156463	94	127
378.8327891156463	378.93727891156465	84	127
378.8327891156463	378.93727891156465	96	127
379.0185487528345	379.12303854875285	86	127
379.0185487528345	379.12303854875285	98	127
379.2043083900227	379.27396825396823	84	127
379.2043083900227	379.27396825396823	96	127
379.3668253968254	379.4597278911565	82	127
379.3668253968254	379.4597278911565	94	127
379.52938775510205	379.62226757369615	81	127
379.52938775510205	379.62226757369615	93	127
379.71514739229025	379.7964172335601	91	127
379.71514739229025	379.7964172335601	79	127
379.8892970521542	379.97056689342406	77	127
379.8892970521542	379.97056689342406	89	127
380.0518367346939	380.144716553288	76	127
380.0518367346939	380.144716553288	88	127
380.26081632653063	380.34208616780046	86	127
380.26081632653063	380.34208616780046	74	127
380.4233560090703	380.5046258503401	84	127
380.4233560090703	380.5046258503401	72	127
380.58589569161	380.6787755102041	70	127
380.58589569161	380.6787755102041	82	127
380.7716553287982	381.2824943310658	81	127
380.7716553287982	381.2824943310658	69	127
381.2824943310658	381.71206349206346	79	127
381.2824943310658	381.71206349206346	67	127
382.01392290249436	382.16485260770975	36	127
382.01392290249436	382.16485260770975	48	127
382.16485260770975	383.0936507936508	60	127
382.16485260770975	383.0936507936508	48	127
383.0936507936508	383.2213605442177	48	127
383.0936507936508	383.2213605442177	36	127
383.2213605442177	383.7786394557823	60	127
383.2213605442177	383.7786394557823	48	127
383.7786394557823	384.0921088435374	49	127
383.7786394557823	384.0921088435374	37	127
384.33591836734695	385.0325170068027	94	127
384.33591836734695	385.0325170068027	82	127
385.0325170068027	385.1370068027211	84	127
385.0325170068027	385.1370068027211	96	127
385.2298866213152	385.3227664399093	97	127
385.2298866213152	385.3227664399093	85	127
385.4040362811791	385.4969160997732	84	127
385.4040362811791	385.4969160997732	96	127
385.5897959183674	385.6710657596372	82	127
385.5897959183674	385.6710657596372	94	127
385.7291156462585	385.8219954648526	80	127
385.7291156462585	385.8219954648526	92	127
385.9032653061224	385.9845351473923	79	127
385.9032653061224	385.9845351473923	91	127
386.0774149659864	386.1702947845805	77	127
386.0774149659864	386.1702947845805	89	127
386.2631746031746	386.3560544217687	76	127
386.2631746031746	386.3560544217687	88	127
386.43732426303853	386.5418140589569	73	127
386.43732426303853	386.5418140589569	85	127
386.62308390022673	386.634693877551	84	127
386.62308390022673	386.634693877551	72	127
386.6695238095238	386.75079365079364	82	127
386.6695238095238	386.75079365079364	70	127
386.78562358276645	387.34290249433104	68	127
386.78562358276645	387.34290249433104	80	127
387.34290249433104	387.8653514739229	79	127
387.34290249433104	387.8653514739229	67	127
388.2600907029478	388.399410430839	36	127
388.2600907029478	388.399410430839	48	127
388.399410430839	389.20049886621314	60	127
388.399410430839	389.20049886621314	48	127
389.20049886621314	389.3398185941043	36	127
389.20049886621314	389.3398185941043	48	127
389.3398185941043	389.9087074829932	60	127
389.3398185941043	389.9087074829932	48	127
389.9087074829932	390.164126984127	37	127
389.9087074829932	390.164126984127	49	127
390.45437641723356	391.18580498866214	94	127
390.45437641723356	391.18580498866214	82	127
391.18580498866214	391.27868480725624	84	127
391.18580498866214	391.27868480725624	96	127
391.3483446712018	391.4412244897959	85	127
391.3483446712018	391.4412244897959	97	127
391.53410430839	391.6153741496599	96	127
391.53410430839	391.6153741496599	84	127
391.6966439909297	391.7895238095238	94	127
391.6966439909297	391.7895238095238	82	127
391.8591836734694	391.9404535147392	92	127
391.8591836734694	391.9404535147392	80	127
392.03333333333336	392.12621315192746	91	127
392.03333333333336	392.12621315192746	79	127
392.2074829931973	392.3003628117914	89	127
392.2074829931973	392.3003628117914	77	127
392.3932426303855	392.4745124716553	76	127
392.3932426303855	392.4745124716553	88	127
392.5673922902494	392.63705215419503	73	127
392.5673922902494	392.63705215419503	85	127
392.68349206349205	392.72993197278913	84	127
392.68349206349205	392.72993197278913	72	127
392.82281179138323	392.90408163265306	70	127
392.82281179138323	392.90408163265306	82	127
392.91569160997733	393.49619047619046	68	127
392.91569160997733	393.49619047619046	80	127
393.49619047619046	393.94897959183675	67	127
393.49619047619046	393.94897959183675	79	127
394.3321088435374	394.4714285714286	36	127
394.3321088435374	394.4714285714286	48	127
394.4714285714286	395.3770068027211	60	127
394.4714285714286	395.3770068027211	48	127
395.3770068027211	395.504716553288	36	127
395.3770068027211	395.504716553288	48	127
395.504716553288	396.0155555555556	60	127
395.504716553288	396.0155555555556	48	127
396.0155555555556	396.27097505668934	36	127
396.0155555555556	396.27097505668934	48	127
397.08367346938775	397.65256235827667	65	127
397.08367346938775	397.65256235827667	77	127
397.65256235827667	398.16340136054424	64	127
397.65256235827667	398.16340136054424	76	127
399.2663492063492	399.8352380952381	77	127
399.2663492063492	399.8352380952381	65	127
399.8352380952381	400.3228571428571	64	127
399.8352380952381	400.3228571428571	76	127
401.4606349206349	402.0411337868481	77	127
401.4606349206349	402.0411337868481	65	127
402.0411337868481	402.55197278911567	76	127
402.0411337868481	402.55197278911567	64	127
402.55197278911567	403.06281179138324	77	127
402.55197278911567	403.06281179138324	65	127
403.06281179138324	403.32984126984127	76	127
403.06281179138324	403.32984126984127	64	127
403.5736507936508	404.11931972789114	76	127
403.5736507936508	404.11931972789114	64	127
404.11931972789114	404.3979591836735	74	127
404.11931972789114	404.3979591836735	62	127
404.6649886621315	405.18743764172336	74	127
404.6649886621315	405.18743764172336	62	127
405.18743764172336	405.4428571428571	60	127
405.18743764172336	405.4428571428571	72	127
405.73310657596375	406.3136054421769	72	127
406.3136054421769	406.627074829932	70	127
406.9289342403628	407.50943310657595	70	127
407.50943310657595	407.8461224489796	69	127
408.1131519274376	408.70526077097503	69	127
408.70526077097503	409.01873015873014	67	127
409.40185941043086	409.86625850340135	65	127
409.86625850340135	410.05201814058955	72	127
409.86625850340135	410.05201814058955	60	127
410.05201814058955	411.2014058956916	77	127
410.05201814058955	411.2014058956916	65	127
411.2014058956916	411.35233560090705	60	127
411.2014058956916	411.35233560090705	72	127
411.35233560090705	412.50172335600905	69	127
411.35233560090705	412.50172335600905	81	127
412.50172335600905	412.66426303854877	65	127
412.50172335600905	412.66426303854877	77	127
412.66426303854877	413.070612244898	71	127
412.66426303854877	413.070612244898	83	127
413.070612244898	413.2099319727891	74	127
413.070612244898	413.2099319727891	86	127
413.2099319727891	413.8484807256236	84	127
413.2099319727891	413.8484807256236	72	127
413.8484807256236	414.0110204081633	67	127
413.8484807256236	414.0110204081633	79	127
414.0110204081633	414.9398185941043	82	127
414.0110204081633	414.9398185941043	70	127
414.9398185941043	415.0675283446712	64	127
414.9398185941043	415.0675283446712	76	127
415.0675283446712	416.0195464852608	67	127
415.0675283446712	416.0195464852608	79	127
416.0195464852608	416.2401360544218	67	127
416.0195464852608	416.2401360544218	55	127
416.2401360544218	416.68131519274374	73	127
416.2401360544218	416.68131519274374	61	127
416.68131519274374	416.8206349206349	60	127
416.68131519274374	416.8206349206349	72	127
416.8206349206349	417.4127437641723	53	127
416.8206349206349	417.4127437641723	65	127
417.4127437641723	417.56367346938777	60	127
417.4127437641723	417.56367346938777	72	127
417.56367346938777	418.51569160997735	65	127
417.56367346938777	418.51569160997735	77	127
418.51569160997735	418.6550113378685	60	127
418.51569160997735	418.6550113378685	72	127
418.6550113378685	419.7115192743764	69	127
418.6550113378685	419.7115192743764	81	127
419.7115192743764	419.8740589569161	65	127
419.7115192743764	419.8740589569161	77	127
419.8740589569161	420.29201814058956	83	127
419.8740589569161	420.29201814058956	71	127
420.29201814058956	420.43133786848074	86	127
420.29201814058956	420.43133786848074	74	127
420.43133786848074	420.96539682539685	84	127
420.43133786848074	420.96539682539685	72	127
420.96539682539685	421.104716553288	79	127
420.96539682539685	421.104716553288	67	127
421.104716553288	422.1031746031746	82	127
421.104716553288	422.1031746031746	70	127
422.1031746031746	422.3121541950113	64	127
422.1031746031746	422.3121541950113	76	127
422.3121541950113	423.2757823129252	79	127
422.3121541950113	423.2757823129252	67	127
423.2757823129252	423.43832199546483	67	127
423.2757823129252	423.43832199546483	55	127
423.43832199546483	423.8911111111111	61	127
423.43832199546483	423.8911111111111	73	127
423.8911111111111	424.0304308390023	72	127
423.8911111111111	424.0304308390023	60	127
424.0304308390023	424.46	53	127
424.0304308390023	424.46	65	127
424.46	424.63414965986397	48	127
424.46	424.63414965986397	60	127
424.63414965986397	425.79514739229023	65	127
424.63414965986397	425.79514739229023	53	127
425.79514739229023	425.9344671201814	48	127
425.79514739229023	425.9344671201814	60	127
425.9344671201814	426.95614512471656	69	127
425.9344671201814	426.95614512471656	57	127
426.95614512471656	427.08385487528346	52	127
426.95614512471656	427.08385487528346	64	127
427.08385487528346	427.6527437641723	67	127
427.08385487528346	427.6527437641723	55	127
427.6527437641723	428.17519274376417	65	127
427.6527437641723	428.17519274376417	53	127
428.17519274376417	428.3261224489796	48	127
428.17519274376417	428.3261224489796	60	127
428.3261224489796	429.44068027210886	53	127
428.3261224489796	429.44068027210886	65	127
429.44068027210886	429.58	48	127
429.44068027210886	429.58	60	127
429.58	430.78743764172333	57	127
429.58	430.78743764172333	69	127
430.78743764172333	430.91514739229024	64	127
430.78743764172333	430.91514739229024	52	127
430.91514739229024	431.4608163265306	67	127
430.91514739229024	431.4608163265306	55	127
431.4608163265306	431.9716553287982	53	127
431.4608163265306	431.9716553287982	65	127
431.9716553287982	432.13419501133785	60	127
431.9716553287982	432.13419501133785	48	127
432.13419501133785	433.35324263038547	65	127
432.13419501133785	433.35324263038547	53	127
433.35324263038547	433.49256235827664	60	127
433.35324263038547	433.49256235827664	48	127
433.49256235827664	434.52585034013606	65	127
433.49256235827664	434.52585034013606	53	127
434.52585034013606	434.67678004535145	48	127
434.52585034013606	434.67678004535145	60	127
434.67678004535145	435.97709750566895	65	127
434.67678004535145	435.97709750566895	53	127
435.97709750566895	436.1396371882086	60	127
435.97709750566895	436.1396371882086	48	127
436.1396371882086	440.3888888888889	65	127
436.1396371882086	440.3888888888889	53	127
