# onset,offset,note,velocity
0.045668934240362814	0.09210884353741497	69	127
0.045668934240362814	0.09210884353741497	81	127
0.13854875283446713	0.3126984126984127	85	127
0.13854875283446713	0.3126984126984127	73	127
0.3707482993197279	0.6377777777777778	86	127
0.3707482993197279	0.6377777777777778	74	127
0.6841950113378685	0.9396371882086167	76	127
0.6841950113378685	0.9396371882086167	61	127
0.6841950113378685	0.9396371882086167	52	127
0.6841950113378685	0.9396371882086167	45	127
0.6841950113378685	0.9396371882086167	88	127
0.6841950113378685	0.9396371882086167	45	127
1.0557142857142856	1.1137868480725623	81	127
1.0557142857142856	1.1137868480725623	69	127
1.1834467120181407	1.2414965986394557	83	127
1.1834467120181407	1.2414965986394557	71	127
1.287936507936508	1.3343764172335602	85	127
1.287936507936508	1.3343764172335602	73	127
1.3807936507936507	1.5665759637188208	86	127
1.3807936507936507	1.5665759637188208	74	127
1.3807936507936507	1.5665759637188208	45	127
1.3807936507936507	1.5665759637188208	54	127
1.3807936507936507	1.5665759637188208	62	127
1.3807936507936507	1.5665759637188208	45	127
1.7407256235827664	1.7871655328798186	66	127
1.7407256235827664	1.7871655328798186	78	127
1.8452154195011339	1.8916553287981859	80	127
1.8452154195011339	1.8916553287981859	68	127
1.938095238095238	1.9845351473922903	81	127
1.938095238095238	1.9845351473922903	69	127
2.0309750566893423	2.135442176870748	83	127
2.0309750566893423	2.135442176870748	71	127
2.0309750566893423	2.2631746031746034	52	127
2.0309750566893423	2.2631746031746034	45	127
2.0309750566893423	2.2631746031746034	45	127
2.2631746031746034	2.3560544217687074	83	127
2.2631746031746034	2.3560544217687074	71	127
2.2631746031746034	2.472154195011338	45	127
2.2631746031746034	2.472154195011338	52	127
2.2631746031746034	2.472154195011338	45	127
2.472154195011338	2.576643990929705	83	127
2.472154195011338	2.576643990929705	71	127
2.472154195011338	2.6927437641723357	45	127
2.472154195011338	2.6927437641723357	52	127
2.472154195011338	2.6927437641723357	45	127
2.6927437641723357	2.878503401360544	85	127
2.6927437641723357	2.878503401360544	73	127
2.6927437641723357	2.878503401360544	57	127
2.6927437641723357	2.878503401360544	52	127
2.6927437641723357	2.878503401360544	45	127
2.6927437641723357	2.878503401360544	45	127
3.9001814058956916	4.062721088435374	88	127
4.190430839002268	4.283310657596372	88	127
4.341360544217687	4.422607709750567	88	127
5.072766439909297	5.188888888888889	76	127
5.27015873015873	5.374625850340136	76	127
5.4675283446712015	5.548775510204082	76	127
5.65328798185941	5.7345578231292516	85	127
5.65328798185941	5.7345578231292516	73	127
5.65328798185941	5.7345578231292516	64	127
5.65328798185941	5.7345578231292516	45	127
5.839047619047619	5.955147392290249	85	127
5.839047619047619	5.955147392290249	73	127
5.839047619047619	5.955147392290249	64	127
5.839047619047619	5.955147392290249	45	127
6.048027210884354	6.1525170068027215	83	127
6.048027210884354	6.1525170068027215	71	127
6.048027210884354	6.1525170068027215	65	127
6.048027210884354	6.1525170068027215	44	127
6.222176870748299	6.315056689342404	81	127
6.222176870748299	6.315056689342404	69	127
6.222176870748299	6.315056689342404	66	127
6.222176870748299	6.315056689342404	42	127
6.431156462585034	6.524036281179138	81	127
6.431156462585034	6.524036281179138	69	127
6.431156462585034	6.524036281179138	66	127
6.431156462585034	6.524036281179138	42	127
6.628526077097506	6.72140589569161	80	127
6.628526077097506	6.72140589569161	68	127
6.628526077097506	6.72140589569161	64	127
6.628526077097506	6.72140589569161	46	127
6.814285714285714	6.918775510204082	78	127
6.814285714285714	6.918775510204082	66	127
6.814285714285714	6.918775510204082	61	127
6.814285714285714	6.918775510204082	47	127
7.011655328798186	7.104535147392291	78	127
7.011655328798186	7.104535147392291	66	127
7.011655328798186	7.104535147392291	61	127
7.011655328798186	7.104535147392291	47	127
7.232244897959184	7.336734693877551	83	127
7.232244897959184	7.336734693877551	71	127
7.232244897959184	7.336734693877551	63	127
7.232244897959184	7.336734693877551	35	127
7.452834467120182	7.534104308390023	76	127
7.452834467120182	7.534104308390023	64	127
7.452834467120182	7.534104308390023	64	127
7.452834467120182	7.534104308390023	40	127
7.963673469387755	8.044920634920635	78	127
7.963673469387755	8.044920634920635	69	127
7.963673469387755	8.044920634920635	63	127
7.963673469387755	8.044920634920635	47	127
8.1378231292517	8.230702947845804	78	127
8.1378231292517	8.230702947845804	69	127
8.1378231292517	8.230702947845804	63	127
8.1378231292517	8.230702947845804	47	127
8.335192743764173	8.451292517006802	83	127
8.335192743764173	8.451292517006802	69	127
8.335192743764173	8.451292517006802	63	127
8.335192743764173	8.451292517006802	47	127
8.544172335600907	8.648639455782313	80	127
8.544172335600907	8.648639455782313	68	127
8.544172335600907	8.648639455782313	64	127
8.544172335600907	8.648639455782313	40	127
9.078231292517007	9.182721088435374	78	127
9.078231292517007	9.182721088435374	69	127
9.078231292517007	9.182721088435374	63	127
9.078231292517007	9.182721088435374	47	127
9.275600907029478	9.368480725623582	78	127
9.275600907029478	9.368480725623582	69	127
9.275600907029478	9.368480725623582	63	127
9.275600907029478	9.368480725623582	47	127
9.472947845804988	9.577460317460318	83	127
9.472947845804988	9.577460317460318	69	127
9.472947845804988	9.577460317460318	63	127
9.472947845804988	9.577460317460318	47	127
9.670340136054422	9.77482993197279	80	127
9.670340136054422	9.77482993197279	68	127
9.670340136054422	9.77482993197279	64	127
9.670340136054422	9.77482993197279	40	127
10.216009070294785	10.30888888888889	80	127
10.216009070294785	10.30888888888889	71	127
10.216009070294785	10.30888888888889	64	127
10.216009070294785	10.30888888888889	40	127
10.424965986394557	10.529478458049887	80	127
10.424965986394557	10.529478458049887	71	127
10.424965986394557	10.529478458049887	64	127
10.424965986394557	10.529478458049887	40	127
10.622358276643991	10.726848072562358	83	127
10.622358276643991	10.726848072562358	68	127
10.622358276643991	10.726848072562358	64	127
10.622358276643991	10.726848072562358	40	127
10.831337868480725	10.92421768707483	88	127
10.831337868480725	10.92421768707483	71	127
10.831337868480725	10.92421768707483	62	127
10.831337868480725	10.92421768707483	40	127
11.133197278911565	11.179637188208616	83	127
11.133197278911565	11.179637188208616	71	127
11.22607709750567	11.284126984126985	85	127
11.22607709750567	11.284126984126985	73	127
11.330566893424036	11.376984126984127	86	127
11.330566893424036	11.376984126984127	74	127
11.435056689342403	11.644036281179138	88	127
11.435056689342403	11.644036281179138	76	127
11.435056689342403	11.644036281179138	61	127
11.435056689342403	11.644036281179138	52	127
11.435056689342403	11.644036281179138	45	127
11.435056689342403	11.644036281179138	45	127
11.736916099773243	11.794965986394558	81	127
11.736916099773243	11.794965986394558	69	127
11.84140589569161	11.887845804988663	83	127
11.84140589569161	11.887845804988663	71	127
11.934285714285714	11.980725623582767	85	127
11.934285714285714	11.980725623582767	73	127
12.027165532879819	12.236145124716554	86	127
12.027165532879819	12.236145124716554	74	127
12.027165532879819	12.236145124716554	45	127
12.027165532879819	12.236145124716554	54	127
12.027165532879819	12.236145124716554	62	127
12.027165532879819	12.236145124716554	45	127
12.34063492063492	12.387074829931972	78	127
12.34063492063492	12.387074829931972	66	127
12.433514739229025	12.468344671201814	80	127
12.433514739229025	12.468344671201814	68	127
12.514784580498866	12.572834467120181	81	127
12.514784580498866	12.572834467120181	69	127
12.619274376417234	12.793424036281179	83	127
12.619274376417234	12.793424036281179	71	127
12.619274376417234	12.793424036281179	52	127
12.619274376417234	12.793424036281179	45	127
12.619274376417234	12.793424036281179	45	127
12.793424036281179	12.99079365079365	71	127
12.793424036281179	12.99079365079365	52	127
12.793424036281179	12.99079365079365	45	127
12.793424036281179	12.99079365079365	45	127
12.793424036281179	12.99079365079365	83	127
12.99079365079365	13.222993197278912	83	127
12.99079365079365	13.222993197278912	71	127
12.99079365079365	13.222993197278912	52	127
12.99079365079365	13.222993197278912	45	127
12.99079365079365	13.222993197278912	45	127
13.222993197278912	13.466802721088435	85	127
13.222993197278912	13.466802721088435	73	127
13.222993197278912	13.466802721088435	45	127
13.222993197278912	13.466802721088435	52	127
13.222993197278912	13.466802721088435	57	127
13.222993197278912	13.466802721088435	45	127
14.395600907029479	14.534920634920635	88	127
14.685850340136055	14.790340136054422	88	127
14.883219954648526	14.97609977324263	88	127
15.614648526077097	15.719138321995464	76	127
15.870068027210884	15.962947845804988	76	127
16.055827664399093	16.183537414965986	76	127
16.276394557823128	16.357687074829933	74	127
16.276394557823128	16.357687074829933	67	127
16.276394557823128	16.357687074829933	59	127
16.276394557823128	16.357687074829933	41	127
16.462154195011337	16.555056689342404	67	127
16.462154195011337	16.555056689342404	41	127
16.462154195011337	16.555056689342404	74	127
16.462154195011337	16.555056689342404	59	127
16.659546485260773	16.752426303854875	74	127
16.659546485260773	16.752426303854875	67	127
16.659546485260773	16.752426303854875	59	127
16.659546485260773	16.752426303854875	41	127
16.833696145124716	16.91496598639456	79	127
16.833696145124716	16.91496598639456	67	127
16.833696145124716	16.91496598639456	60	127
16.833696145124716	16.91496598639456	40	127
17.437414965986395	17.530294784580498	74	127
17.437414965986395	17.530294784580498	67	127
17.437414965986395	17.530294784580498	59	127
17.437414965986395	17.530294784580498	41	127
17.623174603174604	17.72766439909297	74	127
17.623174603174604	17.72766439909297	67	127
17.623174603174604	17.72766439909297	59	127
17.623174603174604	17.72766439909297	41	127
17.820544217687075	17.913424036281178	74	127
17.820544217687075	17.913424036281178	67	127
17.820544217687075	17.913424036281178	59	127
17.820544217687075	17.913424036281178	41	127
18.02952380952381	18.11077097505669	79	127
18.02952380952381	18.11077097505669	67	127
18.02952380952381	18.11077097505669	60	127
18.02952380952381	18.11077097505669	40	127
18.540362811791383	18.749319727891155	88	127
18.540362811791383	18.749319727891155	76	127
18.540362811791383	18.749319727891155	67	127
18.540362811791383	18.749319727891155	48	127
18.749319727891155	18.94671201814059	88	127
18.749319727891155	18.94671201814059	76	127
18.749319727891155	18.94671201814059	67	127
18.749319727891155	18.94671201814059	48	127
18.94671201814059	19.1324716553288	86	127
18.94671201814059	19.1324716553288	74	127
18.94671201814059	19.1324716553288	67	127
18.94671201814059	19.1324716553288	47	127
19.1324716553288	19.318208616780044	84	127
19.1324716553288	19.318208616780044	72	127
19.1324716553288	19.318208616780044	69	127
19.1324716553288	19.318208616780044	45	127
19.318208616780044	19.51560090702948	84	127
19.318208616780044	19.51560090702948	72	127
19.318208616780044	19.51560090702948	69	127
19.318208616780044	19.51560090702948	45	127
19.51560090702948	19.689750566893423	82	127
19.51560090702948	19.689750566893423	70	127
19.51560090702948	19.689750566893423	64	127
19.51560090702948	19.689750566893423	43	127
19.689750566893423	19.887097505668933	81	127
19.689750566893423	19.887097505668933	69	127
19.689750566893423	19.887097505668933	65	127
19.689750566893423	19.887097505668933	41	127
19.887097505668933	20.107709750566894	81	127
19.887097505668933	20.107709750566894	69	127
19.887097505668933	20.107709750566894	65	127
19.887097505668933	20.107709750566894	41	127
20.107709750566894	20.32829931972789	79	127
20.107709750566894	20.32829931972789	67	127
20.107709750566894	20.32829931972789	61	127
20.107709750566894	20.32829931972789	40	127
20.32829931972789	20.490839002267574	77	127
20.32829931972789	20.490839002267574	65	127
20.32829931972789	20.490839002267574	62	127
20.32829931972789	20.490839002267574	38	127
20.490839002267574	20.66498866213152	77	127
20.490839002267574	20.66498866213152	65	127
20.490839002267574	20.66498866213152	62	127
20.490839002267574	20.66498866213152	38	127
20.66498866213152	20.839115646258502	76	127
20.66498866213152	20.839115646258502	64	127
20.66498866213152	20.839115646258502	60	127
20.66498866213152	20.839115646258502	42	127
20.839115646258502	20.93201814058957	74	127
20.839115646258502	20.93201814058957	62	127
20.839115646258502	20.93201814058957	57	127
20.839115646258502	20.93201814058957	43	127
21.036507936507938	21.12938775510204	74	127
21.036507936507938	21.12938775510204	62	127
21.036507936507938	21.12938775510204	57	127
21.036507936507938	21.12938775510204	43	127
21.23387755102041	21.326757369614512	79	127
21.23387755102041	21.326757369614512	67	127
21.23387755102041	21.326757369614512	59	127
21.23387755102041	21.326757369614512	31	127
21.41963718820862	21.51251700680272	72	127
21.41963718820862	21.51251700680272	60	127
21.41963718820862	21.51251700680272	60	127
21.41963718820862	21.51251700680272	36	127
21.942086167800454	22.034965986394557	74	127
21.942086167800454	22.034965986394557	71	127
21.942086167800454	22.034965986394557	65	127
21.942086167800454	22.034965986394557	43	127
22.127845804988663	22.243945578231294	74	127
22.127845804988663	22.243945578231294	71	127
22.127845804988663	22.243945578231294	65	127
22.127845804988663	22.243945578231294	43	127
22.336825396825397	22.429705215419503	79	127
22.336825396825397	22.429705215419503	71	127
22.336825396825397	22.429705215419503	65	127
22.336825396825397	22.429705215419503	43	127
22.534195011337868	22.627074829931974	76	127
22.534195011337868	22.627074829931974	72	127
22.534195011337868	22.627074829931974	64	127
22.534195011337868	22.627074829931974	48	127
23.137913832199548	23.219183673469388	74	127
23.137913832199548	23.219183673469388	71	127
23.137913832199548	23.219183673469388	65	127
23.137913832199548	23.219183673469388	43	127
23.323673469387757	23.41655328798186	74	127
23.323673469387757	23.41655328798186	71	127
23.323673469387757	23.41655328798186	65	127
23.323673469387757	23.41655328798186	43	127
23.509433106575965	23.61392290249433	79	127
23.509433106575965	23.61392290249433	71	127
23.509433106575965	23.61392290249433	65	127
23.509433106575965	23.61392290249433	43	127
23.7184126984127	23.822902494331064	72	127
23.7184126984127	23.822902494331064	72	127
23.7184126984127	23.822902494331064	64	127
23.7184126984127	23.822902494331064	48	127
24.240861678004535	24.345351473922904	64	127
24.240861678004535	24.345351473922904	76	127
24.240861678004535	24.345351473922904	72	127
24.240861678004535	24.345351473922904	60	127
24.240861678004535	24.345351473922904	67	127
24.240861678004535	24.345351473922904	36	127
24.438231292517006	24.542721088435375	67	127
24.438231292517006	24.542721088435375	72	127
24.438231292517006	24.542721088435375	60	127
24.438231292517006	24.542721088435375	64	127
24.438231292517006	24.542721088435375	36	127
24.438231292517006	24.542721088435375	76	127
24.635600907029477	24.728480725623584	36	127
24.635600907029477	24.728480725623584	72	127
24.635600907029477	24.728480725623584	64	127
24.635600907029477	24.728480725623584	60	127
24.635600907029477	24.728480725623584	67	127
24.635600907029477	24.728480725623584	79	127
24.809750566893424	24.879410430839002	84	127
24.809750566893424	24.879410430839002	72	127
24.809750566893424	24.879410430839002	64	127
24.809750566893424	24.879410430839002	67	127
24.809750566893424	24.879410430839002	60	127
24.809750566893424	24.879410430839002	36	127
25.43668934240363	25.6340589569161	55	127
25.43668934240363	27.781904761904762	36	127
25.43668934240363	27.781904761904762	48	127
25.43668934240363	25.6340589569161	64	127
25.43668934240363	25.6340589569161	48	127
25.71532879818594	25.761768707482993	78	127
25.83142857142857	25.877868480725624	79	127
25.924308390022677	25.970748299319727	81	127
26.01718820861678	26.411927437641722	82	127
26.307437641723357	26.365487528344673	66	127
26.411927437641722	26.59768707482993	81	127
26.411927437641722	26.458367346938775	67	127
26.493197278911566	26.539637188208616	69	127
26.59768707482993	26.992426303854874	79	127
26.59768707482993	26.992426303854874	70	127
26.992426303854874	27.20140589569161	77	127
26.992426303854874	27.20140589569161	69	127
27.20140589569161	27.305895691609976	76	127
27.20140589569161	27.596145124716553	67	127
27.410385487528345	27.491655328798185	76	127
27.596145124716553	27.781904761904762	65	127
27.596145124716553	27.700634920634922	77	127
27.781904761904762	27.944444444444443	36	127
27.781904761904762	27.85156462585034	79	127
27.781904761904762	27.85156462585034	64	127
27.781904761904762	27.944444444444443	48	127
27.944444444444443	28.025714285714287	67	127
27.944444444444443	28.025714285714287	64	127
27.944444444444443	28.106984126984127	48	127
27.944444444444443	28.106984126984127	36	127
28.106984126984127	28.19986394557823	68	127
28.106984126984127	28.19986394557823	65	127
28.292743764172336	28.408843537414967	67	127
28.292743764172336	28.408843537414967	64	127
28.292743764172336	28.50172335600907	48	127
28.292743764172336	28.50172335600907	36	127
28.50172335600907	28.710702947845807	48	127
28.50172335600907	28.594603174603176	67	127
28.50172335600907	28.594603174603176	64	127
28.50172335600907	28.710702947845807	36	127
28.710702947845807	28.780362811791385	68	127
28.710702947845807	28.780362811791385	65	127
28.861632653061225	28.966122448979593	67	127
28.861632653061225	28.966122448979593	64	127
28.861632653061225	29.059002267573696	48	127
28.861632653061225	29.059002267573696	36	127
29.059002267573696	29.163492063492065	67	127
29.059002267573696	29.163492063492065	64	127
29.059002267573696	29.256371882086167	48	127
29.059002267573696	29.256371882086167	36	127
29.256371882086167	29.337641723356008	68	127
29.256371882086167	29.337641723356008	65	127
29.442131519274376	29.546621315192745	48	127
29.442131519274376	29.546621315192745	36	127
29.442131519274376	29.639501133786847	67	127
29.442131519274376	29.639501133786847	64	127
29.639501133786847	29.743990929705216	48	127
29.639501133786847	29.743990929705216	36	127
29.83687074829932	29.929750566893425	51	127
29.83687074829932	29.929750566893425	39	127
30.03424036281179	32.379455782312924	50	127
30.03424036281179	30.266439909297052	66	127
30.03424036281179	30.266439909297052	57	127
30.03424036281179	30.266439909297052	50	127
30.03424036281179	32.379455782312924	38	127
30.359319727891158	30.405759637188208	80	127
30.45219954648526	30.510249433106576	81	127
30.55668934240363	30.60312925170068	82	127
30.649569160997732	31.044308390022675	84	127
30.93981859410431	30.997868480725625	68	127
31.044308390022675	31.241678004535146	82	127
31.044308390022675	31.090748299319728	69	127
31.148798185941043	31.195238095238096	70	127
31.241678004535146	31.659637188208617	81	127
31.241678004535146	31.659637188208617	72	127
31.659637188208617	31.8221768707483	70	127
31.659637188208617	31.8221768707483	79	127
31.8221768707483	32.19369614512472	69	127
31.8221768707483	31.915056689342403	78	127
32.007936507936506	32.10081632653061	78	127
32.19369614512472	32.379455782312924	67	127
32.19369614512472	32.29818594104309	79	127
32.379455782312924	32.46072562358277	81	127
32.379455782312924	32.46072562358277	66	127
32.379455782312924	32.553605442176874	50	127
32.379455782312924	32.553605442176874	38	127
32.553605442176874	32.63487528344671	69	127
32.553605442176874	32.63487528344671	66	127
32.553605442176874	32.69292517006803	50	127
32.553605442176874	32.69292517006803	38	127
32.69292517006803	32.797392290249434	70	127
32.69292517006803	32.797392290249434	67	127
32.878684807256235	32.983174603174604	69	127
32.878684807256235	32.983174603174604	66	127
32.878684807256235	33.07605442176871	50	127
32.878684807256235	33.07605442176871	38	127
33.07605442176871	33.15732426303855	66	127
33.07605442176871	33.15732426303855	69	127
33.07605442176871	33.23859410430839	50	127
33.07605442176871	33.23859410430839	38	127
33.23859410430839	33.34308390022676	70	127
33.23859410430839	33.34308390022676	67	127
33.42433106575964	33.528843537414964	69	127
33.42433106575964	33.528843537414964	66	127
33.42433106575964	33.61011337868481	50	127
33.42433106575964	33.61011337868481	38	127
33.61011337868481	33.71460317460318	69	127
33.61011337868481	33.71460317460318	66	127
33.61011337868481	33.80746031746032	50	127
33.61011337868481	33.80746031746032	38	127
33.80746031746032	33.911972789115644	67	127
33.80746031746032	33.911972789115644	70	127
34.00485260770975	34.202222222222225	66	127
34.00485260770975	34.202222222222225	50	127
34.00485260770975	34.202222222222225	38	127
34.00485260770975	34.202222222222225	69	127
34.202222222222225	34.39959183673469	50	127
34.202222222222225	34.39959183673469	38	127
34.39959183673469	34.57371882086168	50	127
34.39959183673469	34.57371882086168	38	127
34.57371882086168	35.18907029478458	83	127
34.57371882086168	35.18907029478458	71	127
35.18907029478458	35.72312925170068	86	127
35.18907029478458	35.72312925170068	74	127
35.72312925170068	36.28040816326531	83	127
35.72312925170068	36.28040816326531	71	127
36.28040816326531	36.89573696145125	76	127
36.28040816326531	36.500997732426306	52	127
36.28040816326531	36.89573696145125	88	127
36.28040816326531	36.500997732426306	40	127
36.500997732426306	36.698367346938774	52	127
36.500997732426306	36.698367346938774	40	127
36.698367346938774	36.89573696145125	40	127
36.698367346938774	36.89573696145125	52	127
36.89573696145125	36.97698412698413	85	127
36.89573696145125	36.97698412698413	67	127
36.89573696145125	36.97698412698413	76	127
36.89573696145125	36.97698412698413	57	127
37.081496598639454	37.1627664399093	76	127
37.081496598639454	37.1627664399093	57	127
37.081496598639454	37.1627664399093	85	127
37.081496598639454	37.1627664399093	67	127
37.255646258503404	37.36011337868481	86	127
37.255646258503404	37.36011337868481	67	127
37.255646258503404	37.36011337868481	76	127
37.255646258503404	37.36011337868481	58	127
37.45301587301587	37.55750566893424	67	127
37.45301587301587	37.55750566893424	76	127
37.45301587301587	37.55750566893424	85	127
37.45301587301587	37.55750566893424	57	127
37.65038548752835	37.74324263038549	76	127
37.65038548752835	37.74324263038549	57	127
37.65038548752835	37.74324263038549	85	127
37.65038548752835	37.74324263038549	67	127
37.83614512471655	37.92902494331066	76	127
37.83614512471655	37.92902494331066	58	127
37.83614512471655	37.92902494331066	86	127
37.83614512471655	37.92902494331066	67	127
38.021904761904764	38.12637188208617	67	127
38.021904761904764	38.12637188208617	85	127
38.021904761904764	38.12637188208617	76	127
38.021904761904764	38.12637188208617	57	127
38.20766439909297	38.300544217687076	76	127
38.20766439909297	38.300544217687076	57	127
38.20766439909297	38.300544217687076	85	127
38.20766439909297	38.300544217687076	67	127
38.37018140589569	38.463083900226756	76	127
38.37018140589569	38.463083900226756	58	127
38.37018140589569	38.463083900226756	86	127
38.37018140589569	38.463083900226756	67	127
38.567573696145125	38.75331065759637	85	127
38.567573696145125	38.75331065759637	67	127
38.567573696145125	38.75331065759637	76	127
38.567573696145125	38.75331065759637	57	127
38.567573696145125	38.75331065759637	33	127
38.75331065759637	38.96231292517007	33	127
38.96231292517007	39.15968253968254	33	127
39.15968253968254	39.716961451247165	81	127
39.15968253968254	39.716961451247165	69	127
39.716961451247165	40.21619047619048	84	127
39.716961451247165	40.21619047619048	72	127
40.21619047619048	40.76185941043084	81	127
40.21619047619048	40.76185941043084	69	127
40.76185941043084	40.94761904761905	50	127
40.76185941043084	40.94761904761905	38	127
40.76185941043084	41.353968253968254	86	127
40.76185941043084	41.353968253968254	74	127
40.94761904761905	41.12176870748299	38	127
40.94761904761905	41.12176870748299	50	127
41.12176870748299	41.353968253968254	50	127
41.12176870748299	41.353968253968254	38	127
41.353968253968254	41.44684807256236	55	127
41.353968253968254	41.44684807256236	83	127
41.353968253968254	41.44684807256236	65	127
41.353968253968254	41.44684807256236	74	127
41.551315192743765	41.65582766439909	74	127
41.551315192743765	41.65582766439909	55	127
41.551315192743765	41.65582766439909	83	127
41.551315192743765	41.65582766439909	65	127
41.7487074829932	41.86480725623583	74	127
41.7487074829932	41.86480725623583	56	127
41.7487074829932	41.86480725623583	84	127
41.7487074829932	41.86480725623583	65	127
41.957687074829934	42.08539682539683	83	127
41.957687074829934	42.08539682539683	65	127
41.957687074829934	42.08539682539683	74	127
41.957687074829934	42.08539682539683	55	127
42.189886621315196	42.282766439909295	74	127
42.189886621315196	42.282766439909295	55	127
42.189886621315196	42.282766439909295	83	127
42.189886621315196	42.282766439909295	65	127
42.3756462585034	42.456916099773245	74	127
42.3756462585034	42.456916099773245	56	127
42.3756462585034	42.456916099773245	84	127
42.3756462585034	42.456916099773245	65	127
42.549795918367344	42.65428571428571	83	127
42.549795918367344	42.65428571428571	74	127
42.549795918367344	42.65428571428571	65	127
42.549795918367344	42.65428571428571	55	127
42.73555555555556	42.816802721088436	74	127
42.73555555555556	42.816802721088436	55	127
42.73555555555556	42.816802721088436	83	127
42.73555555555556	42.816802721088436	65	127
42.92131519274376	43.002585034013606	56	127
42.92131519274376	43.002585034013606	65	127
42.92131519274376	43.002585034013606	74	127
42.92131519274376	43.002585034013606	84	127
43.09546485260771	43.31603174603175	83	127
43.09546485260771	43.31603174603175	65	127
43.09546485260771	43.31603174603175	74	127
43.09546485260771	43.31603174603175	55	127
43.09546485260771	43.31603174603175	31	127
43.31603174603175	43.490204081632655	31	127
43.490204081632655	43.68757369614512	31	127
43.68757369614512	43.90816326530612	83	127
43.68757369614512	43.90816326530612	74	127
43.68757369614512	43.90816326530612	64	127
43.68757369614512	43.90816326530612	32	127
43.90816326530612	44.1055328798186	83	127
43.90816326530612	44.1055328798186	74	127
43.90816326530612	44.1055328798186	64	127
43.90816326530612	44.1055328798186	44	127
44.1055328798186	44.302902494331065	83	127
44.1055328798186	44.302902494331065	74	127
44.1055328798186	44.302902494331065	64	127
44.1055328798186	44.302902494331065	44	127
44.302902494331065	44.50027210884354	85	127
44.302902494331065	44.50027210884354	73	127
44.302902494331065	44.50027210884354	64	127
44.302902494331065	44.50027210884354	45	127
44.89501133786848	45.069160997732425	78	127
44.89501133786848	45.069160997732425	71	127
44.89501133786848	45.069160997732425	62	127
44.89501133786848	45.069160997732425	38	127
45.069160997732425	45.25492063492064	78	127
45.069160997732425	45.25492063492064	71	127
45.069160997732425	45.25492063492064	62	127
45.069160997732425	45.25492063492064	38	127
45.25492063492064	45.44068027210884	78	127
45.25492063492064	45.44068027210884	71	127
45.25492063492064	45.44068027210884	62	127
45.25492063492064	45.44068027210884	38	127
45.44068027210884	45.626439909297055	80	127
45.44068027210884	45.626439909297055	71	127
45.44068027210884	45.626439909297055	62	127
45.44068027210884	45.626439909297055	40	127
46.021179138322	46.24174603174603	40	127
46.021179138322	46.24174603174603	40	127
46.24174603174603	46.4275283446712	40	127
46.24174603174603	46.4275283446712	40	127
46.4275283446712	46.63650793650794	40	127
46.4275283446712	46.63650793650794	40	127
46.63650793650794	46.83387755102041	40	127
46.63650793650794	46.83387755102041	40	127
46.9615873015873	47.01963718820862	81	127
46.9615873015873	47.01963718820862	69	127
47.06607709750567	47.100907029478456	73	127
47.06607709750567	47.100907029478456	85	127
47.124104308390024	47.17056689342404	86	127
47.124104308390024	47.17056689342404	74	127
47.263446712018144	47.44920634920635	88	127
47.263446712018144	47.44920634920635	76	127
47.263446712018144	47.44920634920635	45	127
47.263446712018144	47.44920634920635	52	127
47.263446712018144	47.44920634920635	61	127
47.263446712018144	47.44920634920635	45	127
47.542086167800456	47.588526077097505	81	127
47.542086167800456	47.588526077097505	69	127
47.62335600907029	47.66979591836735	83	127
47.62335600907029	47.66979591836735	71	127
47.7162358276644	47.77428571428572	85	127
47.7162358276644	47.77428571428572	73	127
47.82072562358277	48.06453514739229	86	127
47.82072562358277	48.06453514739229	74	127
47.82072562358277	48.06453514739229	62	127
47.82072562358277	48.06453514739229	54	127
47.82072562358277	48.06453514739229	45	127
47.82072562358277	48.06453514739229	45	127
48.1574149659864	48.20385487528345	78	127
48.1574149659864	48.20385487528345	66	127
48.2502947845805	48.308344671201816	80	127
48.2502947845805	48.308344671201816	68	127
48.354784580498865	48.401224489795915	81	127
48.354784580498865	48.401224489795915	69	127
48.44766439909297	48.61020408163265	83	127
48.44766439909297	48.61020408163265	71	127
48.44766439909297	48.61020408163265	45	127
48.44766439909297	48.61020408163265	52	127
48.44766439909297	48.61020408163265	45	127
48.61020408163265	48.83079365079365	83	127
48.61020408163265	48.83079365079365	71	127
48.61020408163265	48.83079365079365	45	127
48.61020408163265	48.83079365079365	52	127
48.61020408163265	48.83079365079365	45	127
48.83079365079365	49.01655328798186	83	127
48.83079365079365	49.01655328798186	71	127
48.83079365079365	49.01655328798186	45	127
48.83079365079365	49.01655328798186	52	127
48.83079365079365	49.01655328798186	45	127
49.01655328798186	49.24875283446712	85	127
49.01655328798186	49.24875283446712	73	127
49.01655328798186	49.24875283446712	45	127
49.01655328798186	49.24875283446712	52	127
49.01655328798186	49.24875283446712	57	127
49.01655328798186	49.24875283446712	45	127
50.24721088435374	50.34009070294785	88	127
50.444580498866216	50.537460317460315	88	127
50.63034013605442	50.73482993197279	88	127
51.408208616780044	51.53591836734694	76	127
51.628798185941044	51.72167800453515	76	127
51.82616780045351	51.91904761904762	76	127
52.023537414965986	52.11641723356009	68	127
52.023537414965986	52.11641723356009	64	127
52.023537414965986	52.11641723356009	50	127
52.023537414965986	52.11641723356009	71	127
52.20929705215419	52.31378684807256	68	127
52.20929705215419	52.31378684807256	71	127
52.20929705215419	52.31378684807256	64	127
52.20929705215419	52.31378684807256	50	127
52.406666666666666	52.48793650793651	71	127
52.406666666666666	52.48793650793651	68	127
52.406666666666666	52.48793650793651	64	127
52.406666666666666	52.48793650793651	50	127
52.59242630385488	52.673696145124715	76	127
52.59242630385488	52.673696145124715	69	127
52.59242630385488	52.673696145124715	64	127
52.59242630385488	52.673696145124715	49	127
53.1497052154195	53.230975056689346	71	127
53.1497052154195	53.230975056689346	68	127
53.1497052154195	53.230975056689346	64	127
53.1497052154195	53.230975056689346	50	127
53.33546485260771	53.42834467120181	71	127
53.33546485260771	53.42834467120181	68	127
53.33546485260771	53.42834467120181	64	127
53.33546485260771	53.42834467120181	50	127
53.53283446712018	53.63732426303855	71	127
53.53283446712018	53.63732426303855	68	127
53.53283446712018	53.63732426303855	64	127
53.53283446712018	53.63732426303855	50	127
53.74181405895692	53.86952380952381	49	127
53.74181405895692	53.86952380952381	76	127
53.74181405895692	53.86952380952381	69	127
53.74181405895692	53.86952380952381	64	127
54.264263038548755	54.45002267573696	85	127
54.264263038548755	54.45002267573696	73	127
54.264263038548755	54.45002267573696	64	127
54.264263038548755	54.45002267573696	45	127
54.45002267573696	54.647392290249435	85	127
54.45002267573696	54.647392290249435	73	127
54.45002267573696	54.647392290249435	64	127
54.45002267573696	54.647392290249435	45	127
54.647392290249435	54.8447619047619	83	127
54.647392290249435	54.8447619047619	71	127
54.647392290249435	54.8447619047619	65	127
54.647392290249435	54.8447619047619	44	127
54.8447619047619	55.04213151927438	81	127
54.8447619047619	55.04213151927438	69	127
54.8447619047619	55.04213151927438	66	127
54.8447619047619	55.04213151927438	42	127
55.04213151927438	55.239501133786845	81	127
55.04213151927438	55.239501133786845	69	127
55.04213151927438	55.239501133786845	66	127
55.04213151927438	55.239501133786845	42	127
55.239501133786845	55.42526077097506	79	127
55.239501133786845	55.42526077097506	67	127
55.239501133786845	55.42526077097506	61	127
55.239501133786845	55.42526077097506	40	127
55.42526077097506	55.58780045351474	78	127
55.42526077097506	55.58780045351474	66	127
55.42526077097506	55.58780045351474	62	127
55.42526077097506	55.58780045351474	38	127
55.58780045351474	55.75034013605442	78	127
55.58780045351474	55.75034013605442	66	127
55.58780045351474	55.75034013605442	62	127
55.58780045351474	55.75034013605442	38	127
55.75034013605442	55.959319727891156	76	127
55.75034013605442	55.959319727891156	64	127
55.75034013605442	55.959319727891156	58	127
55.75034013605442	55.959319727891156	37	127
55.959319727891156	56.14507936507937	74	127
55.959319727891156	56.14507936507937	62	127
55.959319727891156	56.14507936507937	59	127
55.959319727891156	56.14507936507937	35	127
56.14507936507937	56.342448979591836	74	127
56.14507936507937	56.342448979591836	62	127
56.14507936507937	56.342448979591836	59	127
56.14507936507937	56.342448979591836	35	127
56.342448979591836	56.51659863945578	73	127
56.342448979591836	56.51659863945578	61	127
56.342448979591836	56.51659863945578	57	127
56.342448979591836	56.51659863945578	39	127
56.51659863945578	56.713968253968254	71	127
56.51659863945578	56.713968253968254	59	127
56.51659863945578	56.713968253968254	54	127
56.51659863945578	56.713968253968254	40	127
56.713968253968254	56.91133786848073	71	127
56.713968253968254	56.91133786848073	59	127
56.713968253968254	56.91133786848073	57	127
56.713968253968254	56.91133786848073	40	127
56.91133786848073	57.08548752834467	76	127
56.91133786848073	57.08548752834467	64	127
56.91133786848073	57.08548752834467	56	127
56.91133786848073	57.08548752834467	40	127
57.08548752834467	57.28285714285714	69	127
57.08548752834467	57.28285714285714	57	127
57.08548752834467	57.28285714285714	57	127
57.08548752834467	57.28285714285714	33	127
57.63115646258503	57.72403628117914	71	127
57.63115646258503	57.72403628117914	68	127
57.63115646258503	57.72403628117914	62	127
57.63115646258503	57.72403628117914	40	127
57.84013605442177	57.933015873015876	71	127
57.84013605442177	57.933015873015876	68	127
57.84013605442177	57.933015873015876	62	127
57.84013605442177	57.933015873015876	40	127
58.025895691609975	58.13038548752834	76	127
58.025895691609975	58.13038548752834	68	127
58.025895691609975	58.13038548752834	62	127
58.025895691609975	58.13038548752834	40	127
58.22326530612245	58.42063492063492	73	127
58.22326530612245	58.42063492063492	69	127
58.22326530612245	58.42063492063492	61	127
58.22326530612245	58.42063492063492	45	127
58.78054421768707	58.88503401360544	40	127
58.78054421768707	58.88503401360544	71	127
58.78054421768707	58.88503401360544	68	127
58.78054421768707	58.88503401360544	62	127
58.97791383219955	59.070793650793654	71	127
58.97791383219955	59.070793650793654	68	127
58.97791383219955	59.070793650793654	62	127
58.97791383219955	59.070793650793654	40	127
59.15206349206349	59.2449433106576	62	127
59.15206349206349	59.2449433106576	76	127
59.15206349206349	59.2449433106576	68	127
59.15206349206349	59.2449433106576	40	127
59.3378231292517	59.53519274376417	69	127
59.3378231292517	59.53519274376417	69	127
59.3378231292517	59.53519274376417	61	127
59.3378231292517	59.53519274376417	45	127
59.941541950113375	59.999591836734695	73	127
59.941541950113375	59.999591836734695	69	127
59.941541950113375	59.999591836734695	61	127
59.941541950113375	59.999591836734695	57	127
59.941541950113375	59.999591836734695	64	127
59.941541950113375	59.999591836734695	33	127
60.08086167800454	60.17374149659864	69	127
60.08086167800454	60.17374149659864	73	127
60.08086167800454	60.17374149659864	61	127
60.08086167800454	60.17374149659864	57	127
60.08086167800454	60.17374149659864	64	127
60.08086167800454	60.17374149659864	33	127
60.25501133786848	60.336281179138325	76	127
60.25501133786848	60.336281179138325	69	127
60.25501133786848	60.336281179138325	61	127
60.25501133786848	60.336281179138325	57	127
60.25501133786848	60.336281179138325	64	127
60.25501133786848	60.336281179138325	33	127
60.45238095238095	60.649750566893424	81	127
60.45238095238095	60.649750566893424	61	127
60.45238095238095	60.649750566893424	69	127
60.45238095238095	60.649750566893424	64	127
60.45238095238095	60.649750566893424	57	127
60.45238095238095	60.649750566893424	33	127
61.02126984126984	63.32004535147392	36	127
61.02126984126984	61.2534693877551	64	127
61.02126984126984	61.2534693877551	55	127
61.02126984126984	61.2534693877551	48	127
61.02126984126984	63.32004535147392	48	127
61.33473922902494	61.39278911564626	78	127
61.43922902494331	61.485668934240366	79	127
61.52049886621315	61.5669387755102	81	127
61.62498866213152	62.0081179138322	82	127
61.915238095238095	61.961678004535145	66	127
62.0081179138322	62.20548752834467	81	127
62.0081179138322	62.05455782312925	67	127
62.1009977324263	62.15904761904762	69	127
62.20548752834467	62.57700680272109	79	127
62.20548752834467	62.57700680272109	70	127
62.57700680272109	62.785986394557824	77	127
62.57700680272109	62.785986394557824	69	127
62.785986394557824	63.169115646258504	67	127
62.785986394557824	62.87886621315193	76	127
62.98335600907029	63.064625850340136	76	127
63.169115646258504	63.32004535147392	65	127
63.169115646258504	63.26199546485261	77	127
63.32004535147392	63.42453514739229	79	127
63.32004535147392	63.42453514739229	64	127
63.32004535147392	63.5174149659864	48	127
63.32004535147392	63.5174149659864	36	127
63.5174149659864	63.610294784580496	67	127
63.5174149659864	63.610294784580496	64	127
63.5174149659864	63.714784580498865	48	127
63.5174149659864	63.714784580498865	36	127
63.714784580498865	63.79605442176871	68	127
63.714784580498865	63.79605442176871	65	127
63.888934240362815	63.981814058956914	67	127
63.888934240362815	63.981814058956914	64	127
63.888934240362815	64.07469387755103	48	127
63.888934240362815	64.07469387755103	36	127
64.07469387755103	64.16757369614513	67	127
64.07469387755103	64.16757369614513	64	127
64.07469387755103	64.26045351473923	48	127
64.07469387755103	64.26045351473923	36	127
64.26045351473923	64.37655328798186	68	127
64.26045351473923	64.37655328798186	65	127
64.46943310657596	64.5507029478458	67	127
64.46943310657596	64.5507029478458	64	127
64.46943310657596	64.65519274376418	48	127
64.46943310657596	64.65519274376418	36	127
64.65519274376418	64.74807256235827	67	127
64.65519274376418	64.74807256235827	64	127
64.65519274376418	64.84095238095239	48	127
64.65519274376418	64.84095238095239	36	127
64.84095238095239	64.96866213151928	68	127
64.84095238095239	64.96866213151928	65	127
65.04993197278911	65.13120181405895	48	127
65.04993197278911	65.13120181405895	36	127
65.04993197278911	65.2124716553288	67	127
65.04993197278911	65.2124716553288	64	127
65.2124716553288	65.27052154195012	48	127
65.2124716553288	65.27052154195012	36	127
65.36340136054422	65.45625850340136	39	127
65.36340136054422	65.45625850340136	51	127
65.56074829931973	67.90598639455783	38	127
65.56074829931973	65.76975056689342	66	127
65.56074829931973	65.76975056689342	57	127
65.56074829931973	65.76975056689342	50	127
65.56074829931973	67.90598639455783	50	127
65.88585034013606	65.9438775510204	80	127
65.99034013605443	66.04839002267573	81	127
66.09480725623582	66.14126984126985	82	127
66.1992970521542	66.5592290249433	84	127
66.46634920634921	66.51278911564626	68	127
66.5592290249433	66.6056462585034	69	127
66.5592290249433	66.76820861678004	82	127
66.66371882086167	66.721768707483	70	127
66.76820861678004	67.1281179138322	81	127
66.76820861678004	67.1281179138322	72	127
67.1281179138322	67.32548752834467	79	127
67.1281179138322	67.32548752834467	70	127
67.32548752834467	67.73181405895691	69	127
67.32548752834467	67.41836734693878	78	127
67.5344671201814	67.61573696145125	78	127
67.73181405895691	67.90598639455783	67	127
67.73181405895691	67.83632653061224	79	127
67.90598639455783	67.9756462585034	81	127
67.90598639455783	67.9756462585034	66	127
67.90598639455783	68.05691609977325	50	127
67.90598639455783	68.05691609977325	38	127
68.05691609977325	68.14979591836735	69	127
68.05691609977325	68.14979591836735	66	127
68.05691609977325	68.24265306122449	50	127
68.05691609977325	68.24265306122449	38	127
68.24265306122449	68.33555555555556	70	127
68.24265306122449	68.33555555555556	67	127
68.4168253968254	68.49807256235827	69	127
68.4168253968254	68.49807256235827	66	127
68.4168253968254	68.6025850340136	50	127
68.4168253968254	68.6025850340136	38	127
68.6025850340136	68.70707482993197	69	127
68.6025850340136	68.70707482993197	66	127
68.6025850340136	68.79995464852608	50	127
68.6025850340136	68.79995464852608	38	127
68.79995464852608	68.89283446712018	70	127
68.79995464852608	68.89283446712018	67	127
68.99732426303855	69.17147392290249	50	127
68.99732426303855	69.0785941043084	69	127
68.99732426303855	69.0785941043084	66	127
68.99732426303855	69.17147392290249	38	127
69.17147392290249	69.26433106575963	66	127
69.17147392290249	69.26433106575963	69	127
69.17147392290249	69.34562358276644	50	127
69.17147392290249	69.34562358276644	38	127
69.34562358276644	69.43850340136055	70	127
69.34562358276644	69.43850340136055	67	127
69.53138321995465	69.77517006802721	69	127
69.53138321995465	69.77517006802721	66	127
69.53138321995465	69.77517006802721	50	127
69.53138321995465	69.77517006802721	38	127
69.77517006802721	69.96095238095238	50	127
69.77517006802721	69.96095238095238	38	127
69.96095238095238	70.13507936507936	50	127
69.96095238095238	70.13507936507936	38	127
70.13507936507936	70.70399092970521	71	127
70.13507936507936	70.70399092970521	83	127
70.70399092970521	71.22643990929706	86	127
70.70399092970521	71.22643990929706	74	127
71.22643990929706	71.76049886621315	83	127
71.22643990929706	71.76049886621315	71	127
71.76049886621315	71.99269841269842	52	127
71.76049886621315	71.99269841269842	40	127
71.76049886621315	72.3758276643991	88	127
71.76049886621315	72.3758276643991	76	127
71.99269841269842	72.19006802721088	40	127
71.99269841269842	72.19006802721088	52	127
72.19006802721088	72.3758276643991	52	127
72.19006802721088	72.3758276643991	40	127
72.3758276643991	72.48031746031747	76	127
72.3758276643991	72.48031746031747	57	127
72.3758276643991	72.48031746031747	85	127
72.3758276643991	72.48031746031747	67	127
72.54997732426304	72.64285714285714	76	127
72.54997732426304	72.64285714285714	57	127
72.54997732426304	72.64285714285714	67	127
72.54997732426304	72.64285714285714	85	127
72.73573696145125	72.82861678004535	76	127
72.73573696145125	72.82861678004535	86	127
72.73573696145125	72.82861678004535	67	127
72.73573696145125	72.82861678004535	58	127
72.92147392290249	73.04918367346939	67	127
72.92147392290249	73.04918367346939	85	127
72.92147392290249	73.04918367346939	76	127
72.92147392290249	73.04918367346939	57	127
73.15369614512471	73.24657596371883	67	127
73.15369614512471	73.24657596371883	76	127
73.15369614512471	73.24657596371883	57	127
73.15369614512471	73.24657596371883	85	127
73.33945578231292	73.43231292517007	86	127
73.33945578231292	73.43231292517007	76	127
73.33945578231292	73.43231292517007	58	127
73.33945578231292	73.43231292517007	67	127
73.50199546485261	73.59487528344671	76	127
73.50199546485261	73.59487528344671	67	127
73.50199546485261	73.59487528344671	57	127
73.50199546485261	73.59487528344671	85	127
73.68773242630385	73.76902494331065	85	127
73.68773242630385	73.76902494331065	67	127
73.68773242630385	73.76902494331065	76	127
73.68773242630385	73.76902494331065	57	127
73.86190476190477	73.95478458049887	86	127
73.86190476190477	73.95478458049887	58	127
73.86190476190477	73.95478458049887	67	127
73.86190476190477	73.95478458049887	76	127
74.04766439909297	74.2566439909297	57	127
74.04766439909297	74.2566439909297	33	127
74.04766439909297	74.2566439909297	85	127
74.04766439909297	74.2566439909297	67	127
74.04766439909297	74.2566439909297	76	127
74.2566439909297	74.45399092970521	33	127
74.45399092970521	74.65138321995465	33	127
74.65138321995465	75.17383219954648	81	127
74.65138321995465	75.17383219954648	69	127
75.17383219954648	75.69628117913832	84	127
75.17383219954648	75.69628117913832	72	127
75.69628117913832	76.23034013605442	69	127
75.69628117913832	76.23034013605442	81	127
76.23034013605442	76.42770975056689	50	127
76.23034013605442	76.42770975056689	38	127
76.23034013605442	76.84566893424036	86	127
76.23034013605442	76.84566893424036	74	127
76.42770975056689	76.6250566893424	50	127
76.42770975056689	76.6250566893424	38	127
76.6250566893424	76.84566893424036	50	127
76.6250566893424	76.84566893424036	38	127
76.84566893424036	76.93854875283446	55	127
76.84566893424036	76.93854875283446	83	127
76.84566893424036	76.93854875283446	65	127
76.84566893424036	76.93854875283446	74	127
77.04303854875283	77.1475283446712	74	127
77.04303854875283	77.1475283446712	55	127
77.04303854875283	77.1475283446712	83	127
77.04303854875283	77.1475283446712	65	127
77.25201814058957	77.34489795918367	74	127
77.25201814058957	77.34489795918367	56	127
77.25201814058957	77.34489795918367	84	127
77.25201814058957	77.34489795918367	65	127
77.42616780045351	77.53065759637188	83	127
77.42616780045351	77.53065759637188	65	127
77.42616780045351	77.53065759637188	74	127
77.42616780045351	77.53065759637188	55	127
77.63514739229025	77.72802721088435	74	127
77.63514739229025	77.72802721088435	55	127
77.63514739229025	77.72802721088435	83	127
77.63514739229025	77.72802721088435	65	127
77.83251700680272	77.92539682539683	74	127
77.83251700680272	77.92539682539683	56	127
77.83251700680272	77.92539682539683	84	127
77.83251700680272	77.92539682539683	65	127
78.01827664399093	78.11115646258503	83	127
78.01827664399093	78.11115646258503	74	127
78.01827664399093	78.11115646258503	65	127
78.01827664399093	78.11115646258503	55	127
78.20403628117914	78.29691609977324	74	127
78.20403628117914	78.29691609977324	55	127
78.20403628117914	78.29691609977324	83	127
78.20403628117914	78.29691609977324	65	127
78.38977324263038	78.48267573696145	84	127
78.38977324263038	78.48267573696145	65	127
78.38977324263038	78.48267573696145	74	127
78.38977324263038	78.48267573696145	56	127
78.58716553287982	78.77290249433106	65	127
78.58716553287982	78.77290249433106	74	127
78.58716553287982	78.77290249433106	83	127
78.58716553287982	78.77290249433106	55	127
78.58716553287982	78.77290249433106	31	127
78.77290249433106	78.94707482993198	31	127
78.94707482993198	79.13283446712018	31	127
79.13283446712018	79.33020408163266	83	127
79.13283446712018	79.33020408163266	74	127
79.13283446712018	79.33020408163266	32	127
79.13283446712018	79.33020408163266	64	127
79.33020408163266	79.52757369614513	64	127
79.33020408163266	79.52757369614513	83	127
79.33020408163266	79.52757369614513	74	127
79.33020408163266	79.52757369614513	44	127
79.52757369614513	79.7249433106576	83	127
79.52757369614513	79.7249433106576	74	127
79.52757369614513	79.7249433106576	64	127
79.52757369614513	79.7249433106576	44	127
79.7249433106576	79.93392290249433	85	127
79.7249433106576	79.93392290249433	73	127
79.7249433106576	79.93392290249433	64	127
79.7249433106576	79.93392290249433	45	127
80.31705215419501	80.50281179138322	62	127
80.31705215419501	80.50281179138322	78	127
80.31705215419501	80.50281179138322	71	127
80.31705215419501	80.50281179138322	38	127
80.50281179138322	80.70018140589569	78	127
80.50281179138322	80.70018140589569	71	127
80.50281179138322	80.70018140589569	62	127
80.50281179138322	80.70018140589569	38	127
80.70018140589569	80.8859410430839	78	127
80.70018140589569	80.8859410430839	71	127
80.70018140589569	80.8859410430839	62	127
80.70018140589569	80.8859410430839	38	127
80.8859410430839	81.07170068027212	80	127
80.8859410430839	81.07170068027212	71	127
80.8859410430839	81.07170068027212	62	127
80.8859410430839	81.07170068027212	40	127
81.48965986394558	81.76829931972789	40	127
81.48965986394558	81.76829931972789	40	127
81.76829931972789	81.9540589569161	40	127
81.76829931972789	81.9540589569161	40	127
81.9540589569161	82.13981859410431	40	127
81.9540589569161	82.13981859410431	40	127
82.13981859410431	82.27913832199546	40	127
82.13981859410431	82.27913832199546	40	127
82.43006802721088	82.47650793650794	81	127
82.43006802721088	82.47650793650794	69	127
82.47650793650794	82.49972789115647	85	127
82.47650793650794	82.49972789115647	73	127
82.54616780045352	82.59260770975057	86	127
82.54616780045352	82.59260770975057	74	127
82.67387755102041	82.88285714285715	88	127
82.67387755102041	82.88285714285715	76	127
82.67387755102041	82.88285714285715	45	127
82.67387755102041	82.88285714285715	52	127
82.67387755102041	82.88285714285715	61	127
82.67387755102041	82.88285714285715	45	127
82.98734693877552	83.03378684807257	81	127
82.98734693877552	83.03378684807257	69	127
83.08022675736962	83.12666666666667	83	127
83.08022675736962	83.12666666666667	71	127
83.17310657596371	83.23115646258503	85	127
83.17310657596371	83.23115646258503	73	127
83.27759637188208	83.45172335600907	86	127
83.27759637188208	83.45172335600907	74	127
83.27759637188208	83.45172335600907	62	127
83.27759637188208	83.45172335600907	54	127
83.27759637188208	83.45172335600907	45	127
83.27759637188208	83.45172335600907	45	127
83.5562358276644	83.60265306122449	78	127
83.5562358276644	83.60265306122449	66	127
83.64911564625851	83.69555555555556	80	127
83.64911564625851	83.69555555555556	68	127
83.75360544217688	83.80004535147393	81	127
83.75360544217688	83.80004535147393	69	127
83.84648526077098	84.07868480725624	45	127
83.84648526077098	84.07868480725624	83	127
83.84648526077098	84.07868480725624	71	127
83.84648526077098	84.07868480725624	52	127
83.84648526077098	84.07868480725624	45	127
84.07868480725624	84.33410430839002	71	127
84.07868480725624	84.33410430839002	83	127
84.07868480725624	84.33410430839002	45	127
84.07868480725624	84.33410430839002	52	127
84.07868480725624	84.33410430839002	45	127
84.33410430839002	84.51986394557824	83	127
84.33410430839002	84.51986394557824	71	127
84.33410430839002	84.51986394557824	45	127
84.33410430839002	84.51986394557824	52	127
84.33410430839002	84.51986394557824	45	127
84.51986394557824	84.70562358276644	85	127
84.51986394557824	84.70562358276644	73	127
84.51986394557824	84.70562358276644	45	127
84.51986394557824	84.70562358276644	52	127
84.51986394557824	84.70562358276644	57	127
84.51986394557824	84.70562358276644	45	127
85.65764172335601	85.75049886621315	88	127
85.84340136054422	85.94789115646259	88	127
86.05238095238096	86.18009070294785	88	127
86.81863945578232	86.91151927437642	76	127
86.96956916099774	87.0740589569161	76	127
87.17854875283447	87.27142857142857	76	127
87.36430839002267	87.46879818594104	68	127
87.36430839002267	87.46879818594104	64	127
87.36430839002267	87.46879818594104	50	127
87.36430839002267	87.46879818594104	71	127
87.57328798185941	87.7009977324263	71	127
87.57328798185941	87.7009977324263	68	127
87.57328798185941	87.7009977324263	64	127
87.57328798185941	87.7009977324263	50	127
87.79387755102042	87.88675736961451	71	127
87.79387755102042	87.88675736961451	68	127
87.79387755102042	87.88675736961451	64	127
87.79387755102042	87.88675736961451	50	127
88.00285714285714	88.1073469387755	76	127
88.00285714285714	88.1073469387755	69	127
88.00285714285714	88.1073469387755	64	127
88.00285714285714	88.1073469387755	49	127
88.59496598639456	88.68784580498867	71	127
88.59496598639456	88.68784580498867	68	127
88.59496598639456	88.68784580498867	64	127
88.59496598639456	88.68784580498867	50	127
88.80394557823129	88.89682539682539	71	127
88.80394557823129	88.89682539682539	68	127
88.80394557823129	88.89682539682539	64	127
88.80394557823129	88.89682539682539	50	127
88.9897052154195	89.0825850340136	71	127
88.9897052154195	89.0825850340136	68	127
88.9897052154195	89.0825850340136	64	127
88.9897052154195	89.0825850340136	50	127
89.17544217687075	89.27995464852607	76	127
89.17544217687075	89.27995464852607	69	127
89.17544217687075	89.27995464852607	64	127
89.17544217687075	89.27995464852607	49	127
89.69791383219955	89.89528344671201	85	127
89.69791383219955	89.89528344671201	73	127
89.69791383219955	89.89528344671201	64	127
89.69791383219955	89.89528344671201	45	127
89.89528344671201	90.10426303854875	85	127
89.89528344671201	90.10426303854875	73	127
89.89528344671201	90.10426303854875	64	127
89.89528344671201	90.10426303854875	45	127
90.10426303854875	90.29002267573696	83	127
90.10426303854875	90.29002267573696	71	127
90.10426303854875	90.29002267573696	65	127
90.10426303854875	90.29002267573696	44	127
90.29002267573696	90.47578231292518	81	127
90.29002267573696	90.47578231292518	69	127
90.29002267573696	90.47578231292518	66	127
90.29002267573696	90.47578231292518	42	127
90.47578231292518	90.67315192743764	81	127
90.47578231292518	90.67315192743764	69	127
90.47578231292518	90.67315192743764	66	127
90.47578231292518	90.67315192743764	42	127
90.67315192743764	90.84730158730159	79	127
90.67315192743764	90.84730158730159	67	127
90.67315192743764	90.84730158730159	61	127
90.67315192743764	90.84730158730159	40	127
90.84730158730159	91.04467120181405	78	127
90.84730158730159	91.04467120181405	66	127
90.84730158730159	91.04467120181405	62	127
90.84730158730159	91.04467120181405	38	127
91.04467120181405	91.23043083900227	78	127
91.04467120181405	91.23043083900227	66	127
91.04467120181405	91.23043083900227	62	127
91.04467120181405	91.23043083900227	38	127
91.23043083900227	91.39297052154195	76	127
91.23043083900227	91.39297052154195	64	127
91.23043083900227	91.39297052154195	58	127
91.23043083900227	91.39297052154195	37	127
91.39297052154195	91.54390022675737	74	127
91.39297052154195	91.54390022675737	62	127
91.39297052154195	91.54390022675737	59	127
91.39297052154195	91.54390022675737	35	127
91.54390022675737	91.74126984126984	74	127
91.54390022675737	91.74126984126984	62	127
91.54390022675737	91.74126984126984	59	127
91.54390022675737	91.74126984126984	35	127
91.74126984126984	91.92702947845805	73	127
91.74126984126984	91.92702947845805	61	127
91.74126984126984	91.92702947845805	57	127
91.74126984126984	91.92702947845805	39	127
91.92702947845805	92.14761904761905	71	127
91.92702947845805	92.14761904761905	59	127
91.92702947845805	92.14761904761905	54	127
91.92702947845805	92.14761904761905	40	127
92.14761904761905	92.34496598639456	71	127
92.14761904761905	92.34496598639456	59	127
92.14761904761905	92.34496598639456	57	127
92.14761904761905	92.34496598639456	40	127
92.34496598639456	92.51913832199547	56	127
92.34496598639456	92.51913832199547	76	127
92.34496598639456	92.51913832199547	64	127
92.34496598639456	92.51913832199547	40	127
92.51913832199547	92.69328798185941	69	127
92.51913832199547	92.69328798185941	57	127
92.51913832199547	92.69328798185941	57	127
92.51913832199547	92.69328798185941	33	127
93.05319727891157	93.15768707482994	71	127
93.05319727891157	93.15768707482994	68	127
93.05319727891157	93.15768707482994	62	127
93.05319727891157	93.15768707482994	40	127
93.2621768707483	93.37827664399093	71	127
93.2621768707483	93.37827664399093	68	127
93.2621768707483	93.37827664399093	62	127
93.2621768707483	93.37827664399093	40	127
93.47113378684807	93.5756462585034	76	127
93.47113378684807	93.5756462585034	68	127
93.47113378684807	93.5756462585034	62	127
93.47113378684807	93.5756462585034	40	127
93.69174603174604	93.87748299319728	73	127
93.69174603174604	93.87748299319728	69	127
93.69174603174604	93.87748299319728	61	127
93.69174603174604	93.87748299319728	45	127
94.26061224489796	94.36510204081632	71	127
94.26061224489796	94.36510204081632	68	127
94.26061224489796	94.36510204081632	62	127
94.26061224489796	94.36510204081632	40	127
94.44639455782313	94.52766439909297	71	127
94.44639455782313	94.52766439909297	68	127
94.44639455782313	94.52766439909297	62	127
94.44639455782313	94.52766439909297	40	127
94.60893424036281	94.70181405895691	76	127
94.60893424036281	94.70181405895691	68	127
94.60893424036281	94.70181405895691	62	127
94.60893424036281	94.70181405895691	40	127
94.79469387755103	94.94562358276644	69	127
94.79469387755103	94.94562358276644	69	127
94.79469387755103	94.94562358276644	61	127
94.79469387755103	94.94562358276644	45	127
95.3055328798186	95.3984126984127	69	127
95.3055328798186	95.3984126984127	73	127
95.3055328798186	95.3984126984127	61	127
95.3055328798186	95.3984126984127	57	127
95.3055328798186	95.3984126984127	64	127
95.3055328798186	95.3984126984127	33	127
95.42163265306122	95.46807256235827	73	127
95.42163265306122	95.46807256235827	69	127
95.42163265306122	95.46807256235827	61	127
95.42163265306122	95.46807256235827	57	127
95.42163265306122	95.46807256235827	64	127
95.42163265306122	95.46807256235827	33	127
95.51451247165532	95.58417233560091	76	127
95.51451247165532	95.58417233560091	69	127
95.51451247165532	95.58417233560091	61	127
95.51451247165532	95.58417233560091	57	127
95.51451247165532	95.58417233560091	64	127
95.51451247165532	95.58417233560091	33	127
95.66544217687076	95.72349206349206	81	127
95.66544217687076	95.72349206349206	61	127
95.66544217687076	95.72349206349206	69	127
95.66544217687076	95.72349206349206	64	127
95.66544217687076	95.72349206349206	57	127
95.66544217687076	95.72349206349206	33	127
96.67551020408163	96.79160997732426	78	127
96.67551020408163	96.79160997732426	74	127
96.89609977324263	97.08185941043084	78	127
96.89609977324263	97.08185941043084	74	127
97.08185941043084	97.30244897959183	76	127
97.08185941043084	97.30244897959183	70	127
97.30244897959183	97.74362811791383	76	127
97.30244897959183	97.74362811791383	70	127
97.74362811791383	97.99904761904762	71	127
97.74362811791383	97.99904761904762	74	127
97.99904761904762	98.53310657596371	71	127
97.99904761904762	98.53310657596371	74	127
98.53310657596371	98.74208616780045	69	127
98.53310657596371	98.74208616780045	66	127
98.74208616780045	99.31097505668934	69	127
98.74208616780045	99.31097505668934	66	127
99.58961451247166	101.57492063492063	45	127
99.58961451247166	100.26299319727892	73	127
99.58961451247166	100.26299319727892	64	127
100.26299319727892	100.92476190476191	76	127
100.26299319727892	100.92476190476191	67	127
100.92476190476191	101.57492063492063	67	127
100.92476190476191	101.02925170068028	73	127
100.92476190476191	101.02925170068028	57	127
101.1453514739229	101.26145124716554	74	127
101.1453514739229	101.26145124716554	59	127
101.35433106575964	101.47043083900226	76	127
101.35433106575964	101.47043083900226	61	127
101.57492063492063	101.79551020408164	66	127
101.57492063492063	101.79551020408164	78	127
101.57492063492063	101.79551020408164	38	127
101.57492063492063	101.679410430839	62	127
101.79551020408164	101.9	64	127
102.01609977324263	102.13219954648527	62	127
102.01609977324263	102.13219954648527	66	127
102.25990929705216	102.84040816326531	62	127
102.25990929705216	102.84040816326531	66	127
102.84040816326531	103.08421768707483	58	127
102.84040816326531	103.08421768707483	64	127
103.08421768707483	103.52539682539683	58	127
103.08421768707483	103.52539682539683	64	127
103.52539682539683	103.75759637188209	59	127
103.52539682539683	103.75759637188209	62	127
103.75759637188209	104.18716553287982	71	127
103.75759637188209	104.18716553287982	59	127
103.75759637188209	104.18716553287982	62	127
104.18716553287982	104.38453514739228	74	127
104.18716553287982	104.38453514739228	54	127
104.18716553287982	104.38453514739228	57	127
104.38453514739228	104.50063492063492	74	127
104.38453514739228	104.61673469387755	54	127
104.38453514739228	104.61673469387755	57	127
104.61673469387755	104.74444444444444	76	127
104.8837641723356	104.98825396825397	78	127
105.08113378684807	105.11596371882086	78	127
105.11596371882086	106.4859410430839	61	127
105.11596371882086	105.23206349206349	76	127
105.11596371882086	107.14770975056689	40	127
105.11596371882086	106.4859410430839	69	127
105.33655328798186	105.4526530612245	75	127
105.59197278911564	105.68485260770976	76	127
105.81256235827665	106.2653514739229	81	127
106.2653514739229	106.4859410430839	73	127
106.4859410430839	107.14770975056689	68	127
106.4859410430839	106.9271201814059	78	127
106.4859410430839	106.9271201814059	59	127
106.9271201814059	107.14770975056689	76	127
106.9271201814059	107.14770975056689	62	127
107.14770975056689	107.40312925170068	69	127
107.14770975056689	107.40312925170068	69	127
107.14770975056689	107.40312925170068	61	127
107.14770975056689	107.40312925170068	33	127
107.64693877551021	107.78625850340136	78	127
107.64693877551021	107.78625850340136	74	127
107.902358276644	108.34353741496598	78	127
107.902358276644	108.34353741496598	74	127
108.34353741496598	108.56412698412699	76	127
108.34353741496598	108.56412698412699	70	127
108.56412698412699	109.05174603174603	76	127
108.56412698412699	109.05174603174603	70	127
109.05174603174603	109.3419954648526	74	127
109.05174603174603	109.3419954648526	71	127
109.3419954648526	109.80639455782313	74	127
109.3419954648526	109.80639455782313	71	127
109.80639455782313	110.03859410430839	66	127
109.80639455782313	110.03859410430839	69	127
110.03859410430839	110.49138321995464	66	127
110.03859410430839	110.49138321995464	69	127
110.7235827664399	111.40857142857143	73	127
110.7235827664399	111.40857142857143	64	127
110.7235827664399	112.69727891156462	45	127
111.40857142857143	112.02390022675738	76	127
111.40857142857143	112.02390022675738	67	127
112.02390022675738	112.14	57	127
112.02390022675738	112.69727891156462	67	127
112.02390022675738	112.14	73	127
112.25609977324262	112.33736961451247	74	127
112.25609977324262	112.33736961451247	59	127
112.46507936507936	112.59278911564626	76	127
112.46507936507936	112.59278911564626	61	127
112.69727891156462	112.91786848072563	78	127
112.69727891156462	112.81337868480726	62	127
112.69727891156462	112.91786848072563	66	127
112.69727891156462	112.91786848072563	38	127
112.91786848072563	113.03396825396825	64	127
113.13845804988662	113.26616780045352	62	127
113.13845804988662	113.26616780045352	66	127
113.38226757369614	113.85827664399093	62	127
113.38226757369614	113.85827664399093	66	127
113.85827664399093	114.10208616780045	58	127
113.85827664399093	114.10208616780045	64	127
114.10208616780045	114.52004535147393	64	127
114.10208616780045	114.52004535147393	58	127
114.52004535147393	114.75224489795919	59	127
114.52004535147393	114.75224489795919	62	127
114.75224489795919	115.18181405895692	71	127
114.75224489795919	115.18181405895692	59	127
114.75224489795919	115.18181405895692	62	127
115.18181405895692	115.42562358276643	74	127
115.18181405895692	115.42562358276643	54	127
115.18181405895692	115.42562358276643	57	127
115.42562358276643	115.64621315192744	54	127
115.42562358276643	115.54172335600907	74	127
115.42562358276643	115.64621315192744	57	127
115.64621315192744	115.76231292517006	76	127
115.8784126984127	115.98290249433107	78	127
116.0641723356009	116.0990022675737	78	127
116.0990022675737	118.1075283446712	40	127
116.0990022675737	116.20349206349206	76	127
116.0990022675737	117.480589569161	69	127
116.0990022675737	117.480589569161	61	127
116.31959183673469	116.44730158730158	75	127
116.55179138321995	116.67950113378684	76	127
116.80721088435374	117.26	81	127
117.26	117.480589569161	73	127
117.480589569161	117.85210884353741	78	127
117.480589569161	118.1075283446712	68	127
117.480589569161	117.85210884353741	59	127
117.85210884353741	118.1075283446712	62	127
117.85210884353741	118.1075283446712	76	127
118.1075283446712	118.3281179138322	69	127
118.1075283446712	118.3281179138322	69	127
118.1075283446712	118.3281179138322	61	127
118.1075283446712	118.3281179138322	33	127
119.96512471655329	120.08122448979591	81	127
119.96512471655329	120.08122448979591	78	127
120.18571428571428	120.59206349206349	81	127
120.18571428571428	120.59206349206349	78	127
120.59206349206349	120.80104308390023	79	127
120.59206349206349	120.80104308390023	73	127
120.80104308390023	121.26544217687075	73	127
120.80104308390023	121.26544217687075	79	127
121.26544217687075	121.39315192743764	66	127
121.26544217687075	121.39315192743764	50	127
121.26544217687075	121.57891156462586	78	127
121.26544217687075	121.57891156462586	74	127
121.57891156462586	121.79950113378685	78	127
121.57891156462586	121.79950113378685	74	127
121.57891156462586	122.02009070294784	66	127
121.57891156462586	122.02009070294784	50	127
122.02009070294784	122.27551020408163	64	127
122.02009070294784	122.27551020408163	46	127
122.27551020408163	122.71668934240363	64	127
122.27551020408163	122.71668934240363	46	127
122.71668934240363	122.84439909297052	74	127
122.71668934240363	122.84439909297052	71	127
122.71668934240363	122.96049886621316	62	127
122.71668934240363	122.96049886621316	47	127
122.96049886621316	123.21591836734694	62	127
122.96049886621316	123.21591836734694	47	127
122.96049886621316	123.45972789115646	74	127
122.96049886621316	123.45972789115646	71	127
123.45972789115646	123.72675736961452	72	127
123.45972789115646	123.72675736961452	66	127
123.72675736961452	124.26081632653062	66	127
123.72675736961452	124.26081632653062	72	127
124.26081632653062	124.5162358276644	71	127
124.26081632653062	124.5162358276644	67	127
124.5162358276644	130.00775510204082	59	127
124.5162358276644	124.77165532879819	71	127
124.5162358276644	130.00775510204082	43	127
124.5162358276644	130.00775510204082	67	127
125.70045351473922	125.82816326530612	79	127
125.94426303854875	126.47832199546485	79	127
126.47832199546485	126.72213151927437	74	127
126.72213151927437	127.17492063492064	74	127
127.17492063492064	127.43034013605443	71	127
127.43034013605443	127.96439909297052	71	127
128.6609977324263	128.77709750566893	79	127
128.8815873015873	129.33437641723356	79	127
129.33437641723356	129.56657596371883	74	127
129.56657596371883	130.00775510204082	74	127
130.00775510204082	130.3560544217687	65	127
130.00775510204082	130.3560544217687	62	127
130.00775510204082	130.3560544217687	70	127
130.00775510204082	130.3560544217687	46	127
130.3560544217687	130.7624036281179	70	127
130.3560544217687	131.78408163265306	62	127
130.3560544217687	130.98299319727892	46	127
130.3560544217687	135.98689342403628	65	127
130.98299319727892	131.50544217687076	41	127
131.50544217687076	131.78408163265306	46	127
131.50544217687076	131.63315192743764	70	127
131.78408163265306	133.27015873015873	63	127
131.78408163265306	132.5271201814059	45	127
131.78408163265306	132.27170068027212	75	127
132.27170068027212	132.5271201814059	72	127
132.5271201814059	133.01473922902494	73	127
132.5271201814059	132.74770975056688	41	127
132.74770975056688	133.01473922902494	43	127
133.01473922902494	133.27015873015873	77	127
133.01473922902494	133.27015873015873	45	127
133.27015873015873	133.88548752834467	46	127
133.27015873015873	134.54725623582766	62	127
133.27015873015873	133.88548752834467	74	127
133.88548752834467	134.10607709750568	77	127
133.88548752834467	134.3266439909297	41	127
134.10607709750568	134.3266439909297	74	127
134.3266439909297	134.54725623582766	46	127
134.3266439909297	134.54725623582766	70	127
134.54725623582766	135.98689342403628	63	127
134.54725623582766	135.02326530612245	75	127
134.54725623582766	135.24385487528346	45	127
135.02326530612245	135.24385487528346	72	127
135.24385487528346	135.708231292517	72	127
135.24385487528346	135.45281179138323	41	127
135.45281179138323	135.708231292517	43	127
135.708231292517	135.98689342403628	45	127
135.708231292517	135.98689342403628	77	127
135.98689342403628	136.4512925170068	74	127
135.98689342403628	136.4512925170068	62	127
135.98689342403628	136.2307029478458	62	127
135.98689342403628	136.2307029478458	53	127
135.98689342403628	136.2307029478458	46	127
135.98689342403628	136.2307029478458	46	127
136.4512925170068	136.6718820861678	77	127
136.4512925170068	136.6718820861678	65	127
136.6718820861678	136.86925170068028	46	127
136.6718820861678	136.86925170068028	53	127
136.6718820861678	136.86925170068028	62	127
136.6718820861678	136.86925170068028	46	127
136.6718820861678	137.06662131519275	77	127
136.6718820861678	137.06662131519275	65	127
137.06662131519275	137.28721088435375	74	127
137.06662131519275	137.28721088435375	62	127
137.28721088435375	137.7515873015873	74	127
137.28721088435375	137.519410430839	62	127
137.28721088435375	137.519410430839	53	127
137.28721088435375	137.519410430839	46	127
137.28721088435375	137.519410430839	46	127
137.28721088435375	137.7515873015873	62	127
137.7515873015873	137.94897959183675	77	127
137.7515873015873	137.94897959183675	65	127
137.94897959183675	138.15795918367348	46	127
137.94897959183675	138.15795918367348	53	127
137.94897959183675	138.15795918367348	62	127
137.94897959183675	138.15795918367348	46	127
137.94897959183675	138.35532879818595	77	127
137.94897959183675	138.35532879818595	65	127
138.35532879818595	138.5875283446712	74	127
138.35532879818595	138.5875283446712	62	127
138.5875283446712	138.78489795918367	62	127
138.5875283446712	138.78489795918367	45	127
138.5875283446712	138.78489795918367	54	127
138.5875283446712	138.78489795918367	45	127
138.5875283446712	138.9938775510204	74	127
138.5875283446712	138.9938775510204	62	127
138.9938775510204	139.2144671201814	66	127
138.9938775510204	139.2144671201814	78	127
139.2144671201814	139.42344671201815	62	127
139.2144671201814	139.42344671201815	45	127
139.2144671201814	139.42344671201815	54	127
139.2144671201814	139.42344671201815	45	127
139.2144671201814	139.59759637188208	78	127
139.2144671201814	139.59759637188208	66	127
139.59759637188208	139.6904761904762	74	127
139.59759637188208	139.6904761904762	62	127
139.6904761904762	139.85301587301586	61	127
139.6904761904762	139.85301587301586	52	127
139.6904761904762	139.85301587301586	45	127
139.6904761904762	139.85301587301586	45	127
139.6904761904762	139.95750566893423	73	127
139.6904761904762	139.95750566893423	61	127
139.95750566893423	140.01555555555555	81	127
139.95750566893423	140.01555555555555	69	127
140.01555555555555	140.23614512471656	61	127
140.01555555555555	140.23614512471656	52	127
140.01555555555555	140.23614512471656	45	127
140.01555555555555	140.23614512471656	45	127
140.01555555555555	140.32902494331066	81	127
140.01555555555555	140.32902494331066	69	127
142.151768707483	142.29111111111112	78	127
142.151768707483	142.29111111111112	69	127
142.151768707483	142.29111111111112	62	127
142.151768707483	142.29111111111112	38	127
142.418820861678	142.88321995464852	78	127
142.418820861678	142.88321995464852	69	127
142.418820861678	142.88321995464852	62	127
142.418820861678	142.88321995464852	38	127
142.88321995464852	143.10380952380953	76	127
142.88321995464852	143.10380952380953	70	127
142.88321995464852	143.10380952380953	61	127
142.88321995464852	143.10380952380953	42	127
143.10380952380953	143.54498866213152	76	127
143.10380952380953	143.54498866213152	70	127
143.10380952380953	143.54498866213152	61	127
143.10380952380953	143.54498866213152	42	127
143.54498866213152	143.76557823129252	74	127
143.54498866213152	143.76557823129252	71	127
143.54498866213152	143.76557823129252	62	127
143.54498866213152	143.76557823129252	47	127
143.76557823129252	144.183537414966	74	127
143.76557823129252	144.183537414966	71	127
143.76557823129252	144.183537414966	62	127
143.76557823129252	144.183537414966	47	127
144.183537414966	144.40412698412698	79	127
144.183537414966	144.40412698412698	71	127
144.183537414966	144.40412698412698	62	127
144.183537414966	144.40412698412698	43	127
144.40412698412698	144.845306122449	79	127
144.40412698412698	144.845306122449	71	127
144.40412698412698	144.845306122449	62	127
144.40412698412698	144.845306122449	43	127
145.06589569160997	145.1587755102041	78	127
145.06589569160997	145.1587755102041	69	127
145.06589569160997	145.1587755102041	62	127
145.06589569160997	145.1587755102041	45	127
145.2748752834467	145.39097505668934	76	127
145.2748752834467	145.39097505668934	69	127
145.2748752834467	145.39097505668934	64	127
145.2748752834467	145.39097505668934	45	127
145.4954648526077	145.61156462585035	74	127
145.4954648526077	145.61156462585035	69	127
145.4954648526077	145.61156462585035	66	127
145.4954648526077	145.61156462585035	45	127
145.73927437641723	145.85537414965987	73	127
145.73927437641723	145.85537414965987	69	127
145.73927437641723	145.85537414965987	67	127
145.73927437641723	145.85537414965987	45	127
145.95986394557823	146.0643537414966	74	127
145.95986394557823	146.0643537414966	69	127
145.95986394557823	146.0643537414966	66	127
145.95986394557823	146.0643537414966	45	127
146.18045351473924	146.29655328798185	76	127
146.18045351473924	146.29655328798185	69	127
146.18045351473924	146.29655328798185	64	127
146.18045351473924	146.29655328798185	45	127
146.4126530612245	146.52875283446713	74	127
146.4126530612245	146.52875283446713	69	127
146.4126530612245	146.52875283446713	66	127
146.4126530612245	146.52875283446713	45	127
146.6448299319728	146.76095238095238	78	127
146.6448299319728	146.76095238095238	69	127
146.6448299319728	146.76095238095238	64	127
146.6448299319728	146.76095238095238	45	127
146.877052154195	146.98154195011338	83	127
146.877052154195	146.98154195011338	66	127
146.877052154195	146.98154195011338	62	127
146.877052154195	146.98154195011338	45	127
147.10922902494332	147.24857142857144	81	127
147.10922902494332	147.24857142857144	64	127
147.10922902494332	147.24857142857144	61	127
147.10922902494332	147.24857142857144	45	127
149.744716553288	150.1510657596372	86	127
150.1510657596372	150.38326530612244	83	127
150.38326530612244	150.42968253968255	81	127
150.42968253968255	150.4877551020408	83	127
150.4877551020408	150.5574149659864	81	127
150.5574149659864	150.61546485260772	83	127
150.61546485260772	150.67351473922903	81	127
150.67351473922903	150.73156462585035	83	127
150.73156462585035	150.8012244897959	81	127
150.8012244897959	150.85927437641723	83	127
150.85927437641723	150.91732426303855	81	127
150.91732426303855	150.9637641723356	83	127
150.9637641723356	151.01020408163265	81	127
151.01020408163265	151.0566439909297	83	127
151.0566439909297	151.10308390022675	81	127
151.10308390022675	151.1495238095238	83	127
151.1495238095238	151.20757369614512	81	127
151.20757369614512	151.26562358276644	83	127
151.26562358276644	151.30043083900227	81	127
151.30043083900227	151.34687074829932	83	127
151.34687074829932	151.4049433106576	81	127
151.4049433106576	151.4397732426304	83	127
151.4397732426304	151.48621315192744	81	127
151.48621315192744	151.5326530612245	83	127
151.5326530612245	151.5907029478458	81	127
151.5907029478458	151.64875283446713	83	127
151.64875283446713	151.70678004535148	81	127
151.70678004535148	151.76485260770974	83	127
151.76485260770974	151.82290249433106	81	127
151.82290249433106	151.8693424036281	83	127
151.8693424036281	151.92739229024943	81	127
151.92739229024943	151.99705215419502	83	127
151.99705215419502	152.05510204081634	81	127
152.05510204081634	152.11315192743766	83	127
152.11315192743766	152.17120181405895	81	127
152.17120181405895	152.22925170068027	83	127
152.22925170068027	152.28730158730158	80	127
152.28730158730158	152.3453514739229	81	127
152.3453514739229	152.5659410430839	74	127
154.14489795918368	154.24938775510205	81	127
154.14489795918368	154.24938775510205	78	127
154.36546485260772	154.76022675736962	81	127
154.36546485260772	154.76022675736962	78	127
154.76022675736962	154.98079365079366	79	127
154.76022675736962	154.98079365079366	73	127
154.98079365079366	155.4219954648526	79	127
154.98079365079366	155.4219954648526	73	127
155.4219954648526	155.53809523809525	66	127
155.4219954648526	155.53809523809525	50	127
155.4219954648526	155.65419501133786	78	127
155.4219954648526	155.65419501133786	74	127
155.65419501133786	155.89798185941044	78	127
155.65419501133786	155.89798185941044	74	127
155.65419501133786	156.10696145124717	66	127
155.65419501133786	156.10696145124717	50	127
156.10696145124717	156.3391836734694	46	127
156.10696145124717	156.3391836734694	64	127
156.3391836734694	156.8151927437642	64	127
156.3391836734694	156.8151927437642	46	127
156.8151927437642	156.9312925170068	74	127
156.8151927437642	156.9312925170068	71	127
156.8151927437642	157.0590022675737	62	127
156.8151927437642	157.0590022675737	47	127
157.0590022675737	157.558231292517	71	127
157.0590022675737	157.29120181405895	62	127
157.0590022675737	157.29120181405895	47	127
157.0590022675737	157.558231292517	74	127
157.558231292517	157.7904081632653	72	127
157.558231292517	157.7904081632653	66	127
157.7904081632653	158.30124716553289	72	127
157.7904081632653	158.30124716553289	66	127
158.30124716553289	158.55666666666667	71	127
158.30124716553289	158.55666666666667	67	127
158.55666666666667	164.10625850340136	59	127
158.55666666666667	158.7888888888889	71	127
158.55666666666667	164.10625850340136	43	127
158.55666666666667	164.10625850340136	67	127
159.78732426303856	159.89183673469387	79	127
160.01954648526078	160.47233560090703	79	127
160.47233560090703	160.7393650793651	74	127
160.7393650793651	161.25020408163266	74	127
161.25020408163266	161.49401360544218	71	127
161.49401360544218	161.97002267573697	71	127
162.72467120181406	162.82916099773243	79	127
162.96848072562358	163.4096598639456	79	127
163.4096598639456	163.64185941043084	74	127
163.64185941043084	164.10625850340136	74	127
164.10625850340136	164.3384580498866	65	127
164.10625850340136	164.3384580498866	62	127
164.10625850340136	164.3384580498866	46	127
164.10625850340136	164.3384580498866	70	127
164.3384580498866	164.79122448979592	70	127
164.3384580498866	165.0466439909297	46	127
164.3384580498866	165.81292517006804	62	127
164.3384580498866	169.91124716553287	65	127
165.0466439909297	165.5691156462585	41	127
165.5691156462585	165.81292517006804	46	127
165.5691156462585	165.6968253968254	70	127
165.81292517006804	167.25256235827663	63	127
165.81292517006804	166.49791383219954	45	127
165.81292517006804	166.2657142857143	75	127
166.2657142857143	166.49791383219954	72	127
166.49791383219954	166.97392290249434	73	127
166.49791383219954	166.71850340136055	41	127
166.71850340136055	166.97392290249434	43	127
166.97392290249434	167.25256235827663	77	127
166.97392290249434	167.25256235827663	45	127
167.25256235827663	167.93755102040816	74	127
167.25256235827663	167.93755102040816	46	127
167.25256235827663	168.5877097505669	62	127
167.93755102040816	168.13492063492063	77	127
167.93755102040816	168.35551020408164	41	127
168.13492063492063	168.35551020408164	74	127
168.35551020408164	168.5877097505669	70	127
168.35551020408164	168.5877097505669	46	127
168.5877097505669	169.91124716553287	63	127
168.5877097505669	168.97083900226758	75	127
168.5877097505669	169.20303854875283	45	127
168.97083900226758	169.20303854875283	72	127
169.20303854875283	169.65582766439908	72	127
169.20303854875283	169.42362811791384	41	127
169.42362811791384	169.65582766439908	43	127
169.65582766439908	169.91124716553287	77	127
169.65582766439908	169.91124716553287	45	127
169.91124716553287	170.16666666666666	62	127
169.91124716553287	170.16666666666666	53	127
169.91124716553287	170.16666666666666	46	127
169.91124716553287	170.16666666666666	46	127
169.91124716553287	170.38725623582766	74	127
169.91124716553287	170.38725623582766	62	127
170.38725623582766	170.63106575963718	77	127
170.38725623582766	170.63106575963718	65	127
170.63106575963718	170.86326530612246	46	127
170.63106575963718	170.86326530612246	53	127
170.63106575963718	170.86326530612246	62	127
170.63106575963718	170.86326530612246	46	127
170.63106575963718	171.0722448979592	77	127
170.63106575963718	171.0722448979592	65	127
171.0722448979592	171.24639455782312	74	127
171.0722448979592	171.24639455782312	62	127
171.24639455782312	171.45537414965986	62	127
171.24639455782312	171.45537414965986	53	127
171.24639455782312	171.45537414965986	46	127
171.24639455782312	171.45537414965986	46	127
171.24639455782312	171.67596371882087	74	127
171.24639455782312	171.67596371882087	62	127
171.67596371882087	171.86172335600907	77	127
171.67596371882087	171.86172335600907	65	127
171.86172335600907	172.09392290249434	46	127
171.86172335600907	172.09392290249434	53	127
171.86172335600907	172.09392290249434	62	127
171.86172335600907	172.09392290249434	46	127
171.86172335600907	172.30290249433108	77	127
171.86172335600907	172.30290249433108	65	127
172.30290249433108	172.50027210884355	74	127
172.30290249433108	172.50027210884355	62	127
172.50027210884355	172.70925170068028	62	127
172.50027210884355	172.70925170068028	45	127
172.50027210884355	172.70925170068028	54	127
172.50027210884355	172.70925170068028	45	127
172.50027210884355	172.94145124716553	74	127
172.50027210884355	172.94145124716553	62	127
172.94145124716553	173.16204081632654	78	127
172.94145124716553	173.16204081632654	66	127
173.16204081632654	173.3942403628118	62	127
173.16204081632654	173.3942403628118	45	127
173.16204081632654	173.3942403628118	54	127
173.16204081632654	173.3942403628118	45	127
173.16204081632654	173.56839002267574	78	127
173.16204081632654	173.56839002267574	66	127
173.56839002267574	173.64965986394557	74	127
173.56839002267574	173.64965986394557	62	127
173.64965986394557	173.87024943310658	61	127
173.64965986394557	173.87024943310658	52	127
173.64965986394557	173.87024943310658	45	127
173.64965986394557	173.87024943310658	45	127
173.64965986394557	173.9282993197279	73	127
173.64965986394557	173.9282993197279	61	127
173.9282993197279	173.97473922902495	81	127
173.9282993197279	173.97473922902495	69	127
173.97473922902495	174.18371882086169	61	127
173.97473922902495	174.18371882086169	52	127
173.97473922902495	174.18371882086169	45	127
173.97473922902495	174.18371882086169	45	127
173.97473922902495	174.32303854875283	81	127
173.97473922902495	174.32303854875283	69	127
176.14580498866212	176.2967120181406	78	127
176.14580498866212	176.2967120181406	69	127
176.14580498866212	176.2967120181406	62	127
176.14580498866212	176.2967120181406	38	127
176.42444444444445	176.8772335600907	78	127
176.42444444444445	176.8772335600907	69	127
176.42444444444445	176.8772335600907	62	127
176.42444444444445	176.8772335600907	38	127
176.8772335600907	177.08621315192744	76	127
176.8772335600907	177.08621315192744	70	127
176.8772335600907	177.08621315192744	61	127
176.8772335600907	177.08621315192744	42	127
177.08621315192744	177.52739229024942	76	127
177.08621315192744	177.52739229024942	70	127
177.08621315192744	177.52739229024942	61	127
177.08621315192744	177.52739229024942	42	127
177.52739229024942	177.73637188208616	74	127
177.52739229024942	177.73637188208616	71	127
177.52739229024942	177.73637188208616	62	127
177.52739229024942	177.73637188208616	47	127
177.73637188208616	178.21238095238095	74	127
177.73637188208616	178.21238095238095	71	127
177.73637188208616	178.21238095238095	62	127
177.73637188208616	178.21238095238095	47	127
178.21238095238095	178.44455782312926	79	127
178.21238095238095	178.44455782312926	71	127
178.21238095238095	178.44455782312926	62	127
178.21238095238095	178.44455782312926	43	127
178.44455782312926	178.97863945578231	79	127
178.44455782312926	178.97863945578231	71	127
178.44455782312926	178.97863945578231	62	127
178.44455782312926	178.97863945578231	43	127
179.24566893424037	179.35015873015874	78	127
179.24566893424037	179.35015873015874	69	127
179.24566893424037	179.35015873015874	62	127
179.24566893424037	179.35015873015874	45	127
179.4662358276644	179.582358276644	76	127
179.4662358276644	179.582358276644	69	127
179.4662358276644	179.582358276644	64	127
179.4662358276644	179.582358276644	45	127
179.69845804988663	179.802947845805	74	127
179.69845804988663	179.802947845805	69	127
179.69845804988663	179.802947845805	66	127
179.69845804988663	179.802947845805	45	127
179.90743764172336	180.023537414966	73	127
179.90743764172336	180.023537414966	69	127
179.90743764172336	180.023537414966	67	127
179.90743764172336	180.023537414966	45	127
180.1280045351474	180.24412698412698	74	127
180.1280045351474	180.24412698412698	69	127
180.1280045351474	180.24412698412698	66	127
180.1280045351474	180.24412698412698	45	127
180.34861678004535	180.45310657596372	76	127
180.34861678004535	180.45310657596372	69	127
180.34861678004535	180.45310657596372	64	127
180.34861678004535	180.45310657596372	45	127
180.56920634920635	180.67369614512472	74	127
180.56920634920635	180.67369614512472	69	127
180.56920634920635	180.67369614512472	66	127
180.56920634920635	180.67369614512472	45	127
180.78979591836736	180.90589569160997	78	127
180.78979591836736	180.90589569160997	69	127
180.78979591836736	180.90589569160997	64	127
180.78979591836736	180.90589569160997	45	127
181.0219954648526	181.13809523809525	83	127
181.0219954648526	181.13809523809525	66	127
181.0219954648526	181.13809523809525	62	127
181.0219954648526	181.13809523809525	45	127
181.24258503401362	181.34707482993198	81	127
181.24258503401362	181.34707482993198	64	127
181.24258503401362	181.34707482993198	61	127
181.24258503401362	181.34707482993198	45	127
183.8548299319728	184.2960090702948	86	127
184.2960090702948	184.55142857142857	83	127
184.55142857142857	184.6094784580499	81	127
184.6094784580499	184.6675283446712	83	127
184.6675283446712	184.74879818594104	81	127
184.74879818594104	184.80684807256236	83	127
184.80684807256236	184.8532879818594	81	127
184.8532879818594	184.91133786848073	83	127
184.91133786848073	184.95777777777778	81	127
184.95777777777778	185.0158276643991	83	127
185.0158276643991	185.05065759637188	81	127
185.05065759637188	185.07387755102042	83	127
185.07387755102042	185.12031746031747	81	127
185.12031746031747	185.17836734693878	83	127
185.17836734693878	185.21319727891157	81	127
185.21319727891157	185.27124716553288	83	127
185.27124716553288	185.31768707482993	81	127
185.31768707482993	185.36412698412698	83	127
185.36412698412698	185.41056689342403	81	127
185.41056689342403	185.45700680272108	83	127
185.45700680272108	185.5150566893424	81	127
185.5150566893424	185.57310657596372	83	127
185.57310657596372	185.5963038548753	81	127
185.5963038548753	185.6427664399093	83	127
185.6427664399093	185.70079365079366	81	127
185.70079365079366	185.75886621315192	83	127
185.75886621315192	185.81691609977324	81	127
185.81691609977324	185.8633560090703	83	127
185.8633560090703	185.9214058956916	81	127
185.9214058956916	185.9910657596372	83	127
185.9910657596372	186.0491156462585	81	127
186.0491156462585	186.10714285714286	83	127
186.10714285714286	186.15360544217688	81	127
186.15360544217688	186.20004535147393	83	127
186.20004535147393	186.25809523809525	81	127
186.25809523809525	186.3161224489796	83	127
186.3161224489796	186.37419501133786	80	127
186.37419501133786	186.43224489795918	81	127
186.43224489795918	186.57154195011339	74	127
186.82696145124717	186.83859410430838	81	127
186.82696145124717	186.83859410430838	69	127
186.88503401360543	186.93145124716554	85	127
186.88503401360543	186.93145124716554	73	127
186.9895238095238	187.03596371882085	86	127
186.9895238095238	187.03596371882085	74	127
187.12884353741498	187.31460317460318	61	127
187.12884353741498	187.31460317460318	88	127
187.12884353741498	187.31460317460318	76	127
187.12884353741498	187.31460317460318	52	127
187.12884353741498	187.31460317460318	45	127
187.12884353741498	187.31460317460318	45	127
187.40748299319728	187.45392290249433	81	127
187.40748299319728	187.45392290249433	69	127
187.50036281179138	187.5584126984127	83	127
187.50036281179138	187.5584126984127	71	127
187.60485260770974	187.6512925170068	85	127
187.60485260770974	187.6512925170068	73	127
187.6977097505669	187.90671201814058	86	127
187.6977097505669	187.90671201814058	74	127
187.6977097505669	187.90671201814058	45	127
187.6977097505669	187.90671201814058	54	127
187.6977097505669	187.90671201814058	62	127
187.6977097505669	187.90671201814058	45	127
188.06925170068027	188.1273015873016	78	127
188.06925170068027	188.1273015873016	66	127
188.1853514739229	188.23179138321996	80	127
188.1853514739229	188.23179138321996	68	127
188.278231292517	188.32467120181406	81	127
188.278231292517	188.32467120181406	69	127
188.3711111111111	188.46396825396826	83	127
188.3711111111111	188.46396825396826	71	127
188.3711111111111	188.55687074829933	52	127
188.3711111111111	188.55687074829933	45	127
188.3711111111111	188.55687074829933	45	127
188.55687074829933	188.64975056689343	83	127
188.55687074829933	188.64975056689343	71	127
188.55687074829933	188.74263038548753	45	127
188.55687074829933	188.74263038548753	52	127
188.55687074829933	188.74263038548753	45	127
188.74263038548753	188.88195011337868	83	127
188.74263038548753	188.88195011337868	71	127
188.74263038548753	188.98643990929705	45	127
188.74263038548753	188.98643990929705	52	127
188.74263038548753	188.98643990929705	45	127
188.98643990929705	189.19541950113378	45	127
188.98643990929705	189.19541950113378	85	127
188.98643990929705	189.19541950113378	73	127
188.98643990929705	189.19541950113378	57	127
188.98643990929705	189.19541950113378	52	127
188.98643990929705	189.19541950113378	45	127
190.17065759637188	190.24031746031747	88	127
190.3215873015873	190.4144671201814	88	127
190.53056689342404	190.64666666666668	88	127
191.37809523809523	191.4825850340136	76	127
191.56385487528345	191.65673469387755	76	127
191.73800453514738	191.81927437641724	76	127
191.91215419501134	191.99342403628117	85	127
191.91215419501134	191.99342403628117	73	127
191.91215419501134	191.99342403628117	64	127
191.91215419501134	191.99342403628117	45	127
192.09791383219954	192.2024036281179	85	127
192.09791383219954	192.2024036281179	73	127
192.09791383219954	192.2024036281179	64	127
192.09791383219954	192.2024036281179	45	127
192.295283446712	192.39977324263037	83	127
192.295283446712	192.39977324263037	71	127
192.295283446712	192.39977324263037	65	127
192.295283446712	192.39977324263037	44	127
192.4926530612245	192.5855328798186	81	127
192.4926530612245	192.5855328798186	69	127
192.4926530612245	192.5855328798186	66	127
192.4926530612245	192.5855328798186	42	127
192.69002267573697	192.7480725623583	81	127
192.69002267573697	192.7480725623583	69	127
192.69002267573697	192.7480725623583	66	127
192.69002267573697	192.7480725623583	42	127
192.85256235827666	192.94544217687076	80	127
192.85256235827666	192.94544217687076	68	127
192.85256235827666	192.94544217687076	64	127
192.85256235827666	192.94544217687076	46	127
193.04993197278912	193.177641723356	78	127
193.04993197278912	193.177641723356	66	127
193.04993197278912	193.177641723356	61	127
193.04993197278912	193.177641723356	47	127
193.2705215419501	193.36340136054423	78	127
193.2705215419501	193.36340136054423	66	127
193.2705215419501	193.36340136054423	61	127
193.2705215419501	193.36340136054423	47	127
193.45628117913833	193.54916099773243	83	127
193.45628117913833	193.54916099773243	71	127
193.45628117913833	193.54916099773243	63	127
193.45628117913833	193.54916099773243	35	127
193.6536507936508	193.7233106575964	76	127
193.6536507936508	193.7233106575964	64	127
193.6536507936508	193.7233106575964	64	127
193.6536507936508	193.7233106575964	40	127
194.2225396825397	194.29219954648525	78	127
194.2225396825397	194.29219954648525	69	127
194.2225396825397	194.29219954648525	63	127
194.2225396825397	194.29219954648525	47	127
194.38507936507938	194.47795918367348	78	127
194.38507936507938	194.47795918367348	69	127
194.38507936507938	194.47795918367348	63	127
194.38507936507938	194.47795918367348	47	127
194.58244897959185	194.6869387755102	83	127
194.58244897959185	194.6869387755102	69	127
194.58244897959185	194.6869387755102	63	127
194.58244897959185	194.6869387755102	47	127
194.7798185941043	194.86108843537414	80	127
194.7798185941043	194.86108843537414	68	127
194.7798185941043	194.86108843537414	64	127
194.7798185941043	194.86108843537414	40	127
195.36031746031745	195.46480725623582	78	127
195.36031746031745	195.46480725623582	69	127
195.36031746031745	195.46480725623582	63	127
195.36031746031745	195.46480725623582	47	127
195.55768707482994	195.65056689342404	78	127
195.55768707482994	195.65056689342404	69	127
195.55768707482994	195.65056689342404	63	127
195.55768707482994	195.65056689342404	47	127
195.7550566893424	195.85954648526078	47	127
195.7550566893424	195.85954648526078	69	127
195.7550566893424	195.85954648526078	63	127
195.7550566893424	195.85954648526078	83	127
195.95242630385488	196.04530612244898	40	127
195.95242630385488	196.04530612244898	80	127
195.95242630385488	196.04530612244898	68	127
195.95242630385488	196.04530612244898	64	127
196.52131519274377	196.6025850340136	80	127
196.52131519274377	196.6025850340136	71	127
196.52131519274377	196.6025850340136	64	127
196.52131519274377	196.6025850340136	40	127
196.6954648526077	196.79995464852607	80	127
196.6954648526077	196.79995464852607	71	127
196.6954648526077	196.79995464852607	64	127
196.6954648526077	196.79995464852607	40	127
196.8928344671202	196.99732426303854	83	127
196.8928344671202	196.99732426303854	68	127
196.8928344671202	196.99732426303854	64	127
196.8928344671202	196.99732426303854	40	127
197.09020408163266	197.19469387755103	40	127
197.09020408163266	197.19469387755103	88	127
197.09020408163266	197.19469387755103	71	127
197.09020408163266	197.19469387755103	62	127
197.3920634920635	197.43850340136055	83	127
197.3920634920635	197.43850340136055	71	127
197.4849433106576	197.54299319727892	85	127
197.4849433106576	197.54299319727892	73	127
197.5778231292517	197.62426303854875	86	127
197.5778231292517	197.62426303854875	74	127
197.6707029478458	197.90290249433107	88	127
197.6707029478458	197.90290249433107	76	127
197.6707029478458	197.90290249433107	61	127
197.6707029478458	197.90290249433107	52	127
197.6707029478458	197.90290249433107	45	127
197.6707029478458	197.90290249433107	45	127
198.00739229024944	198.077052154195	81	127
198.00739229024944	198.077052154195	69	127
198.12349206349205	198.16993197278913	83	127
198.12349206349205	198.16993197278913	71	127
198.21637188208618	198.26281179138323	85	127
198.21637188208618	198.26281179138323	73	127
198.30925170068028	198.50662131519275	86	127
198.30925170068028	198.50662131519275	74	127
198.30925170068028	198.50662131519275	45	127
198.30925170068028	198.50662131519275	54	127
198.30925170068028	198.50662131519275	62	127
198.30925170068028	198.50662131519275	45	127
198.61111111111111	198.65755102040816	78	127
198.61111111111111	198.65755102040816	66	127
198.7039909297052	198.738820861678	80	127
198.7039909297052	198.738820861678	68	127
198.78526077097504	198.84331065759636	81	127
198.78526077097504	198.84331065759636	69	127
198.8897505668934	199.1451700680272	71	127
198.8897505668934	199.1451700680272	52	127
198.8897505668934	199.1451700680272	45	127
198.8897505668934	199.1451700680272	45	127
198.8897505668934	199.1451700680272	83	127
199.1451700680272	199.3425396825397	83	127
199.1451700680272	199.3425396825397	71	127
199.1451700680272	199.3425396825397	52	127
199.1451700680272	199.3425396825397	45	127
199.1451700680272	199.3425396825397	45	127
199.3425396825397	199.5282993197279	83	127
199.3425396825397	199.5282993197279	71	127
199.3425396825397	199.5282993197279	52	127
199.3425396825397	199.5282993197279	45	127
199.3425396825397	199.5282993197279	45	127
199.5282993197279	199.7140589569161	85	127
199.5282993197279	199.7140589569161	73	127
199.5282993197279	199.7140589569161	45	127
199.5282993197279	199.7140589569161	52	127
199.5282993197279	199.7140589569161	57	127
199.5282993197279	199.7140589569161	45	127
200.7473469387755	200.85183673469388	88	127
200.94471655328798	201.04920634920634	88	127
201.14208616780044	201.23496598639457	88	127
201.9083446712018	202.0360544217687	76	127
202.14054421768708	202.2218140589569	76	127
202.314693877551	202.40757369614514	76	127
202.50045351473923	202.6049433106576	74	127
202.50045351473923	202.6049433106576	67	127
202.50045351473923	202.6049433106576	59	127
202.50045351473923	202.6049433106576	41	127
202.70943310657597	202.80231292517007	74	127
202.70943310657597	202.80231292517007	67	127
202.70943310657597	202.80231292517007	59	127
202.70943310657597	202.80231292517007	41	127
202.9184126984127	203.02290249433108	74	127
202.9184126984127	203.02290249433108	67	127
202.9184126984127	203.02290249433108	59	127
202.9184126984127	203.02290249433108	41	127
203.11578231292518	203.18544217687074	79	127
203.11578231292518	203.18544217687074	67	127
203.11578231292518	203.18544217687074	60	127
203.11578231292518	203.18544217687074	40	127
203.63823129251702	203.73111111111112	74	127
203.63823129251702	203.73111111111112	67	127
203.63823129251702	203.73111111111112	59	127
203.63823129251702	203.73111111111112	41	127
203.82399092970522	203.9284807256236	74	127
203.82399092970522	203.9284807256236	67	127
203.82399092970522	203.9284807256236	59	127
203.82399092970522	203.9284807256236	41	127
204.02136054421769	204.11424036281178	74	127
204.02136054421769	204.11424036281178	67	127
204.02136054421769	204.11424036281178	59	127
204.02136054421769	204.11424036281178	41	127
204.27678004535147	204.38126984126984	79	127
204.27678004535147	204.38126984126984	67	127
204.27678004535147	204.38126984126984	60	127
204.27678004535147	204.38126984126984	40	127
204.8340589569161	205.03142857142856	88	127
204.8340589569161	205.03142857142856	76	127
204.8340589569161	205.03142857142856	67	127
204.8340589569161	205.03142857142856	48	127
205.03142857142856	205.2171882086168	88	127
205.03142857142856	205.2171882086168	76	127
205.03142857142856	205.2171882086168	67	127
205.03142857142856	205.2171882086168	48	127
205.2171882086168	205.402947845805	86	127
205.2171882086168	205.402947845805	74	127
205.2171882086168	205.402947845805	67	127
205.2171882086168	205.402947845805	47	127
205.402947845805	205.57709750566895	84	127
205.402947845805	205.57709750566895	72	127
205.402947845805	205.57709750566895	69	127
205.402947845805	205.57709750566895	45	127
205.57709750566895	205.76285714285714	84	127
205.57709750566895	205.76285714285714	72	127
205.57709750566895	205.76285714285714	69	127
205.57709750566895	205.76285714285714	45	127
205.76285714285714	205.97183673469388	82	127
205.76285714285714	205.97183673469388	70	127
205.76285714285714	205.97183673469388	64	127
205.76285714285714	205.97183673469388	43	127
205.97183673469388	206.13437641723357	81	127
205.97183673469388	206.13437641723357	69	127
205.97183673469388	206.13437641723357	65	127
205.97183673469388	206.13437641723357	41	127
206.13437641723357	206.3433560090703	81	127
206.13437641723357	206.3433560090703	69	127
206.13437641723357	206.3433560090703	65	127
206.13437641723357	206.3433560090703	41	127
206.3433560090703	206.56394557823128	79	127
206.3433560090703	206.56394557823128	67	127
206.3433560090703	206.56394557823128	61	127
206.3433560090703	206.56394557823128	40	127
206.56394557823128	206.77292517006802	77	127
206.56394557823128	206.77292517006802	65	127
206.56394557823128	206.77292517006802	62	127
206.56394557823128	206.77292517006802	38	127
206.77292517006802	206.9354648526077	77	127
206.77292517006802	206.9354648526077	65	127
206.77292517006802	206.9354648526077	62	127
206.77292517006802	206.9354648526077	38	127
206.9354648526077	207.10961451247167	76	127
206.9354648526077	207.10961451247167	64	127
206.9354648526077	207.10961451247167	60	127
206.9354648526077	207.10961451247167	42	127
207.10961451247167	207.1908843537415	74	127
207.10961451247167	207.1908843537415	62	127
207.10961451247167	207.1908843537415	57	127
207.10961451247167	207.1908843537415	43	127
207.29537414965986	207.38825396825396	74	127
207.29537414965986	207.38825396825396	62	127
207.29537414965986	207.38825396825396	57	127
207.29537414965986	207.38825396825396	43	127
207.49274376417233	207.5972335600907	59	127
207.49274376417233	207.5972335600907	79	127
207.49274376417233	207.5972335600907	67	127
207.49274376417233	207.5972335600907	31	127
207.6901133786848	207.79460317460317	60	127
207.6901133786848	207.79460317460317	60	127
207.6901133786848	207.79460317460317	36	127
207.6901133786848	207.79460317460317	72	127
208.28222222222223	208.37510204081633	74	127
208.28222222222223	208.37510204081633	71	127
208.28222222222223	208.37510204081633	65	127
208.28222222222223	208.37510204081633	43	127
208.46798185941043	208.58408163265307	74	127
208.46798185941043	208.58408163265307	71	127
208.46798185941043	208.58408163265307	65	127
208.46798185941043	208.58408163265307	43	127
208.67696145124717	208.76984126984127	79	127
208.67696145124717	208.76984126984127	71	127
208.67696145124717	208.76984126984127	65	127
208.67696145124717	208.76984126984127	43	127
208.87433106575963	208.96721088435373	76	127
208.87433106575963	208.96721088435373	72	127
208.87433106575963	208.96721088435373	64	127
208.87433106575963	208.96721088435373	48	127
209.3619501133787	209.44321995464853	74	127
209.3619501133787	209.44321995464853	71	127
209.3619501133787	209.44321995464853	65	127
209.3619501133787	209.44321995464853	43	127
209.5709297052154	209.66380952380953	74	127
209.5709297052154	209.66380952380953	71	127
209.5709297052154	209.66380952380953	65	127
209.5709297052154	209.66380952380953	43	127
209.7682993197279	209.861179138322	79	127
209.7682993197279	209.861179138322	71	127
209.7682993197279	209.861179138322	65	127
209.7682993197279	209.861179138322	43	127
209.9540589569161	210.07015873015874	72	127
209.9540589569161	210.07015873015874	72	127
209.9540589569161	210.07015873015874	64	127
209.9540589569161	210.07015873015874	48	127
210.5461678004535	210.63904761904763	76	127
210.5461678004535	210.63904761904763	72	127
210.5461678004535	210.63904761904763	64	127
210.5461678004535	210.63904761904763	60	127
210.5461678004535	210.63904761904763	67	127
210.5461678004535	210.63904761904763	36	127
210.72031746031746	210.82480725623583	76	127
210.72031746031746	210.82480725623583	64	127
210.72031746031746	210.82480725623583	67	127
210.72031746031746	210.82480725623583	60	127
210.72031746031746	210.82480725623583	36	127
210.72031746031746	210.82480725623583	72	127
210.91768707482993	211.01056689342403	72	127
210.91768707482993	211.01056689342403	79	127
210.91768707482993	211.01056689342403	64	127
210.91768707482993	211.01056689342403	60	127
210.91768707482993	211.01056689342403	67	127
210.91768707482993	211.01056689342403	36	127
211.09183673469389	211.16149659863945	84	127
211.09183673469389	211.16149659863945	72	127
211.09183673469389	211.16149659863945	64	127
211.09183673469389	211.16149659863945	67	127
211.09183673469389	211.16149659863945	60	127
211.09183673469389	211.16149659863945	36	127
211.70716553287983	211.91614512471656	55	127
211.70716553287983	211.91614512471656	48	127
211.70716553287983	214.08721088435374	36	127
211.70716553287983	211.91614512471656	64	127
211.70716553287983	214.08721088435374	48	127
211.9974149659864	212.04385487528344	78	127
212.11351473922903	212.15995464852608	79	127
212.20639455782313	212.2412244897959	81	127
212.28766439909296	212.67079365079366	82	127
212.57791383219956	212.63596371882088	66	127
212.67079365079366	212.86816326530612	81	127
212.67079365079366	212.7172335600907	67	127
212.76367346938775	212.8101133786848	69	127
212.86816326530612	213.2512925170068	79	127
212.86816326530612	213.2512925170068	70	127
213.2512925170068	213.44866213151928	77	127
213.2512925170068	213.44866213151928	69	127
213.44866213151928	213.55315192743765	76	127
213.44866213151928	213.88984126984127	67	127
213.65764172335602	213.7853514739229	76	127
213.88984126984127	214.08721088435374	65	127
213.88984126984127	213.99433106575964	77	127
214.08721088435374	214.18009070294784	79	127
214.08721088435374	214.18009070294784	64	127
214.08721088435374	214.2845804988662	48	127
214.08721088435374	214.2845804988662	36	127
214.2845804988662	214.34263038548752	67	127
214.2845804988662	214.34263038548752	64	127
214.2845804988662	214.4471201814059	48	127
214.2845804988662	214.4471201814059	36	127
214.4471201814059	214.51678004535148	65	127
214.4471201814059	214.51678004535148	68	127
214.58643990929704	214.77219954648527	36	127
214.58643990929704	214.77219954648527	48	127
214.58643990929704	214.6909297052154	67	127
214.58643990929704	214.6909297052154	64	127
214.77219954648527	214.86507936507937	67	127
214.77219954648527	214.86507936507937	64	127
214.77219954648527	214.96956916099774	48	127
214.77219954648527	214.96956916099774	36	127
214.96956916099774	215.06244897959184	68	127
214.96956916099774	215.06244897959184	65	127
215.15532879818593	215.2365986394558	67	127
215.15532879818593	215.2365986394558	64	127
215.15532879818593	215.3294784580499	48	127
215.15532879818593	215.3294784580499	36	127
215.3294784580499	215.45718820861677	67	127
215.3294784580499	215.45718820861677	64	127
215.3294784580499	215.5500680272109	48	127
215.3294784580499	215.5500680272109	36	127
215.5500680272109	215.642947845805	68	127
215.5500680272109	215.642947845805	65	127
215.74743764172337	215.84031746031746	48	127
215.74743764172337	215.84031746031746	36	127
215.74743764172337	215.93319727891156	67	127
215.74743764172337	215.93319727891156	64	127
215.93319727891156	216.06090702947847	36	127
215.93319727891156	216.06090702947847	48	127
216.1653968253968	216.28149659863945	39	127
216.1653968253968	216.28149659863945	51	127
216.3975963718821	218.73120181405895	38	127
216.3975963718821	216.60657596371883	66	127
216.3975963718821	216.60657596371883	57	127
216.3975963718821	216.60657596371883	50	127
216.3975963718821	218.73120181405895	50	127
216.67623582766439	216.72267573696146	80	127
216.79233560090702	216.8619954648526	81	127
216.92004535147393	216.96648526077098	82	127
217.01292517006803	217.40766439909297	84	127
217.3031746031746	217.36122448979592	68	127
217.40766439909297	217.60503401360543	82	127
217.40766439909297	217.45410430839001	69	127
217.50054421768706	217.55859410430838	70	127
217.60503401360543	217.9997732426304	81	127
217.60503401360543	217.9997732426304	72	127
217.9997732426304	218.19714285714286	79	127
217.9997732426304	218.19714285714286	70	127
218.19714285714286	218.30163265306123	78	127
218.19714285714286	218.54544217687075	69	127
218.39451247165533	218.46417233560092	78	127
218.54544217687075	218.73120181405895	67	127
218.54544217687075	218.64993197278912	79	127
218.73120181405895	218.8124716553288	81	127
218.73120181405895	218.8124716553288	66	127
218.73120181405895	218.91696145124718	50	127
218.73120181405895	218.91696145124718	38	127
218.91696145124718	218.98662131519274	69	127
218.91696145124718	218.98662131519274	66	127
218.91696145124718	219.0911111111111	50	127
218.91696145124718	219.0911111111111	38	127
219.0911111111111	219.19560090702947	70	127
219.0911111111111	219.19560090702947	67	127
219.28848072562357	219.3813605442177	69	127
219.28848072562357	219.3813605442177	66	127
219.28848072562357	219.4742403628118	50	127
219.28848072562357	219.4742403628118	38	127
219.4742403628118	219.54390022675736	69	127
219.4742403628118	219.54390022675736	66	127
219.4742403628118	219.6367800453515	50	127
219.4742403628118	219.6367800453515	38	127
219.6367800453515	219.72965986394559	70	127
219.6367800453515	219.72965986394559	67	127
219.82253968253968	219.92702947845805	69	127
219.82253968253968	219.92702947845805	66	127
219.82253968253968	220.01990929705215	50	127
219.82253968253968	220.01990929705215	38	127
220.01990929705215	220.1360090702948	66	127
220.01990929705215	220.1360090702948	69	127
220.01990929705215	220.21727891156462	50	127
220.01990929705215	220.21727891156462	38	127
220.21727891156462	220.29854875283448	70	127
220.21727891156462	220.29854875283448	67	127
220.39142857142858	220.57718820861678	69	127
220.39142857142858	220.57718820861678	66	127
220.39142857142858	220.57718820861678	50	127
220.39142857142858	220.57718820861678	38	127
220.57718820861678	220.762947845805	38	127
220.57718820861678	220.762947845805	50	127
220.762947845805	221.0183673469388	38	127
220.762947845805	221.0183673469388	50	127
221.0183673469388	221.55242630385487	71	127
221.0183673469388	221.55242630385487	83	127
221.55242630385487	222.06326530612245	86	127
221.55242630385487	222.06326530612245	74	127
222.06326530612245	222.63215419501134	71	127
222.06326530612245	222.63215419501134	83	127
222.63215419501134	223.28231292517006	88	127
222.63215419501134	223.28231292517006	76	127
222.63215419501134	222.84113378684808	52	127
222.63215419501134	222.84113378684808	40	127
222.84113378684808	223.0849433106576	52	127
222.84113378684808	223.0849433106576	40	127
223.0849433106576	223.28231292517006	52	127
223.0849433106576	223.28231292517006	40	127
223.28231292517006	223.35197278911565	85	127
223.28231292517006	223.35197278911565	67	127
223.28231292517006	223.35197278911565	76	127
223.28231292517006	223.35197278911565	57	127
223.45646258503402	223.54934240362812	76	127
223.45646258503402	223.54934240362812	57	127
223.45646258503402	223.54934240362812	85	127
223.45646258503402	223.54934240362812	67	127
223.64222222222222	223.74671201814058	76	127
223.64222222222222	223.74671201814058	58	127
223.64222222222222	223.74671201814058	86	127
223.64222222222222	223.74671201814058	67	127
223.82798185941044	223.90925170068027	67	127
223.82798185941044	223.90925170068027	76	127
223.82798185941044	223.90925170068027	57	127
223.82798185941044	223.90925170068027	85	127
224.0253514739229	224.118231292517	76	127
224.0253514739229	224.118231292517	57	127
224.0253514739229	224.118231292517	85	127
224.0253514739229	224.118231292517	67	127
224.22272108843538	224.31560090702948	76	127
224.22272108843538	224.31560090702948	58	127
224.22272108843538	224.31560090702948	86	127
224.22272108843538	224.31560090702948	67	127
224.40848072562358	224.47814058956916	85	127
224.40848072562358	224.47814058956916	76	127
224.40848072562358	224.47814058956916	67	127
224.40848072562358	224.47814058956916	57	127
224.57102040816326	224.66390022675736	76	127
224.57102040816326	224.66390022675736	57	127
224.57102040816326	224.66390022675736	85	127
224.57102040816326	224.66390022675736	67	127
224.76839002267573	224.86126984126983	76	127
224.76839002267573	224.86126984126983	58	127
224.76839002267573	224.86126984126983	86	127
224.76839002267573	224.86126984126983	67	127
224.95414965986396	225.16312925170067	85	127
224.95414965986396	225.16312925170067	67	127
224.95414965986396	225.16312925170067	76	127
224.95414965986396	225.16312925170067	57	127
224.95414965986396	225.16312925170067	33	127
225.16312925170067	225.3721088435374	33	127
225.3721088435374	225.5694784580499	33	127
225.5694784580499	226.09192743764171	69	127
225.5694784580499	226.09192743764171	81	127
226.09192743764171	226.62598639455783	72	127
226.09192743764171	226.62598639455783	84	127
226.62598639455783	227.18326530612245	81	127
226.62598639455783	227.18326530612245	69	127
227.18326530612245	227.3574149659864	50	127
227.18326530612245	227.3574149659864	38	127
227.18326530612245	227.75215419501134	86	127
227.18326530612245	227.75215419501134	74	127
227.3574149659864	227.55478458049888	50	127
227.3574149659864	227.55478458049888	38	127
227.55478458049888	227.75215419501134	50	127
227.55478458049888	227.75215419501134	38	127
227.75215419501134	227.84503401360544	74	127
227.75215419501134	227.84503401360544	55	127
227.75215419501134	227.84503401360544	65	127
227.75215419501134	227.84503401360544	83	127
227.9495238095238	228.06562358276645	83	127
227.9495238095238	228.06562358276645	65	127
227.9495238095238	228.06562358276645	74	127
227.9495238095238	228.06562358276645	55	127
228.15850340136055	228.2746031746032	65	127
228.15850340136055	228.2746031746032	84	127
228.15850340136055	228.2746031746032	56	127
228.15850340136055	228.2746031746032	74	127
228.37909297052155	228.46036281179138	55	127
228.37909297052155	228.46036281179138	83	127
228.37909297052155	228.46036281179138	65	127
228.37909297052155	228.46036281179138	74	127
228.56485260770975	228.65773242630385	74	127
228.56485260770975	228.65773242630385	55	127
228.56485260770975	228.65773242630385	83	127
228.56485260770975	228.65773242630385	65	127
228.75061224489795	228.84349206349205	74	127
228.75061224489795	228.84349206349205	56	127
228.75061224489795	228.84349206349205	84	127
228.75061224489795	228.84349206349205	65	127
228.93637188208618	229.04086167800455	74	127
228.93637188208618	229.04086167800455	83	127
228.93637188208618	229.04086167800455	65	127
228.93637188208618	229.04086167800455	55	127
229.13374149659865	229.21501133786848	74	127
229.13374149659865	229.21501133786848	55	127
229.13374149659865	229.21501133786848	65	127
229.13374149659865	229.21501133786848	83	127
229.31950113378684	229.41238095238094	56	127
229.31950113378684	229.41238095238094	65	127
229.31950113378684	229.41238095238094	74	127
229.31950113378684	229.41238095238094	84	127
229.50526077097507	229.70263038548754	83	127
229.50526077097507	229.70263038548754	65	127
229.50526077097507	229.70263038548754	74	127
229.50526077097507	229.70263038548754	55	127
229.50526077097507	229.70263038548754	31	127
229.70263038548754	229.93482993197279	31	127
229.93482993197279	230.14380952380952	31	127
230.14380952380952	230.32956916099772	64	127
230.14380952380952	230.32956916099772	83	127
230.14380952380952	230.32956916099772	74	127
230.14380952380952	230.32956916099772	32	127
230.32956916099772	230.52693877551022	83	127
230.32956916099772	230.52693877551022	74	127
230.32956916099772	230.52693877551022	64	127
230.32956916099772	230.52693877551022	44	127
230.52693877551022	230.72430839002268	83	127
230.52693877551022	230.72430839002268	74	127
230.52693877551022	230.72430839002268	64	127
230.52693877551022	230.72430839002268	44	127
230.72430839002268	230.8984580498866	85	127
230.72430839002268	230.8984580498866	73	127
230.72430839002268	230.8984580498866	64	127
230.72430839002268	230.8984580498866	45	127
231.26997732426304	231.4673469387755	78	127
231.26997732426304	231.4673469387755	71	127
231.26997732426304	231.4673469387755	62	127
231.26997732426304	231.4673469387755	38	127
231.4673469387755	231.66471655328797	78	127
231.4673469387755	231.66471655328797	71	127
231.4673469387755	231.66471655328797	62	127
231.4673469387755	231.66471655328797	38	127
231.66471655328797	231.8504761904762	78	127
231.66471655328797	231.8504761904762	71	127
231.66471655328797	231.8504761904762	62	127
231.66471655328797	231.8504761904762	38	127
231.8504761904762	232.02462585034013	80	127
231.8504761904762	232.02462585034013	71	127
231.8504761904762	232.02462585034013	62	127
231.8504761904762	232.02462585034013	40	127
232.37292517006802	232.5354648526077	40	127
232.37292517006802	232.5354648526077	40	127
232.5354648526077	232.74444444444444	40	127
232.5354648526077	232.74444444444444	40	127
232.74444444444444	232.97664399092972	40	127
232.74444444444444	232.97664399092972	40	127
232.97664399092972	233.18562358276645	40	127
232.97664399092972	233.18562358276645	40	127
233.37138321995465	233.4178231292517	81	127
233.37138321995465	233.4178231292517	69	127
233.46426303854875	233.5107029478458	85	127
233.46426303854875	233.5107029478458	73	127
233.59197278911566	233.83578231292518	88	127
233.59197278911566	233.83578231292518	76	127
233.59197278911566	233.83578231292518	45	127
233.59197278911566	233.83578231292518	52	127
233.59197278911566	233.83578231292518	61	127
233.59197278911566	233.83578231292518	45	127
233.9518820861678	233.99832199546486	81	127
233.9518820861678	233.99832199546486	69	127
234.0447619047619	234.09120181405896	83	127
234.0447619047619	234.09120181405896	71	127
234.14925170068028	234.19569160997733	85	127
234.14925170068028	234.19569160997733	73	127
234.24213151927438	234.50916099773244	86	127
234.24213151927438	234.50916099773244	74	127
234.24213151927438	234.50916099773244	62	127
234.24213151927438	234.50916099773244	54	127
234.24213151927438	234.50916099773244	45	127
234.24213151927438	234.50916099773244	45	127
234.60204081632654	234.64848072562359	78	127
234.60204081632654	234.64848072562359	66	127
234.69492063492063	234.75297052154195	80	127
234.69492063492063	234.75297052154195	68	127
234.799410430839	234.84585034013605	81	127
234.799410430839	234.84585034013605	69	127
234.8922902494331	235.1128798185941	83	127
234.8922902494331	235.1128798185941	71	127
234.8922902494331	235.1128798185941	45	127
234.8922902494331	235.1128798185941	52	127
234.8922902494331	235.1128798185941	45	127
235.1128798185941	235.32185941043085	83	127
235.1128798185941	235.32185941043085	71	127
235.1128798185941	235.32185941043085	45	127
235.1128798185941	235.32185941043085	52	127
235.1128798185941	235.32185941043085	45	127
235.32185941043085	235.49600907029478	83	127
235.32185941043085	235.49600907029478	71	127
235.32185941043085	235.49600907029478	45	127
235.32185941043085	235.49600907029478	52	127
235.32185941043085	235.49600907029478	45	127
235.49600907029478	235.681768707483	85	127
235.49600907029478	235.681768707483	73	127
235.49600907029478	235.681768707483	45	127
235.49600907029478	235.681768707483	52	127
235.49600907029478	235.681768707483	57	127
235.49600907029478	235.681768707483	45	127
236.66861678004534	236.76149659863947	88	127
236.86598639455784	236.97047619047618	88	127
237.0633560090703	237.16784580498867	88	127
237.80639455782313	237.89927437641722	76	127
237.98054421768708	238.0618140589569	76	127
238.17791383219955	238.28240362811792	76	127
238.4449433106576	238.5378231292517	71	127
238.4449433106576	238.5378231292517	68	127
238.4449433106576	238.5378231292517	64	127
238.4449433106576	238.5378231292517	50	127
238.6307029478458	238.73519274376417	71	127
238.6307029478458	238.73519274376417	68	127
238.6307029478458	238.73519274376417	64	127
238.6307029478458	238.73519274376417	50	127
238.82807256235827	238.92095238095237	71	127
238.82807256235827	238.92095238095237	68	127
238.82807256235827	238.92095238095237	64	127
238.82807256235827	238.92095238095237	50	127
239.02544217687074	239.11832199546484	76	127
239.02544217687074	239.11832199546484	69	127
239.02544217687074	239.11832199546484	64	127
239.02544217687074	239.11832199546484	49	127
239.59433106575963	239.68721088435373	71	127
239.59433106575963	239.68721088435373	68	127
239.59433106575963	239.68721088435373	64	127
239.59433106575963	239.68721088435373	50	127
239.8265306122449	239.919410430839	71	127
239.8265306122449	239.919410430839	68	127
239.8265306122449	239.919410430839	64	127
239.8265306122449	239.919410430839	50	127
240.02390022675738	240.11678004535148	68	127
240.02390022675738	240.11678004535148	71	127
240.02390022675738	240.11678004535148	64	127
240.02390022675738	240.11678004535148	50	127
240.1980498866213	240.30253968253967	76	127
240.1980498866213	240.30253968253967	69	127
240.1980498866213	240.30253968253967	64	127
240.1980498866213	240.30253968253967	49	127
240.7437188208617	240.91786848072562	85	127
240.7437188208617	240.91786848072562	73	127
240.7437188208617	240.91786848072562	64	127
240.7437188208617	240.91786848072562	45	127
240.91786848072562	241.11523809523808	85	127
240.91786848072562	241.11523809523808	73	127
240.91786848072562	241.11523809523808	64	127
240.91786848072562	241.11523809523808	45	127
241.11523809523808	241.31260770975058	83	127
241.11523809523808	241.31260770975058	71	127
241.11523809523808	241.31260770975058	65	127
241.11523809523808	241.31260770975058	44	127
241.31260770975058	241.4867573696145	81	127
241.31260770975058	241.4867573696145	69	127
241.31260770975058	241.4867573696145	66	127
241.31260770975058	241.4867573696145	42	127
241.4867573696145	241.68412698412698	81	127
241.4867573696145	241.68412698412698	69	127
241.4867573696145	241.68412698412698	66	127
241.4867573696145	241.68412698412698	42	127
241.68412698412698	241.84666666666666	79	127
241.68412698412698	241.84666666666666	67	127
241.68412698412698	241.84666666666666	61	127
241.68412698412698	241.84666666666666	40	127
241.84666666666666	242.03242630385486	78	127
241.84666666666666	242.03242630385486	66	127
241.84666666666666	242.03242630385486	62	127
241.84666666666666	242.03242630385486	38	127
242.03242630385486	242.2181859410431	78	127
242.03242630385486	242.2181859410431	66	127
242.03242630385486	242.2181859410431	62	127
242.03242630385486	242.2181859410431	38	127
242.2181859410431	242.4039455782313	58	127
242.2181859410431	242.4039455782313	76	127
242.2181859410431	242.4039455782313	64	127
242.2181859410431	242.4039455782313	37	127
242.4039455782313	242.60131519274375	74	127
242.4039455782313	242.60131519274375	62	127
242.4039455782313	242.60131519274375	59	127
242.4039455782313	242.60131519274375	35	127
242.60131519274375	242.79868480725622	74	127
242.60131519274375	242.79868480725622	62	127
242.60131519274375	242.79868480725622	59	127
242.60131519274375	242.79868480725622	35	127
242.79868480725622	242.98444444444445	73	127
242.79868480725622	242.98444444444445	61	127
242.79868480725622	242.98444444444445	57	127
242.79868480725622	242.98444444444445	39	127
242.98444444444445	243.18181405895692	71	127
242.98444444444445	243.18181405895692	59	127
242.98444444444445	243.18181405895692	54	127
242.98444444444445	243.18181405895692	40	127
243.18181405895692	243.35596371882087	71	127
243.18181405895692	243.35596371882087	59	127
243.18181405895692	243.35596371882087	57	127
243.18181405895692	243.35596371882087	40	127
243.35596371882087	243.55333333333334	76	127
243.35596371882087	243.55333333333334	64	127
243.35596371882087	243.55333333333334	56	127
243.35596371882087	243.55333333333334	40	127
243.55333333333334	243.7507029478458	69	127
243.55333333333334	243.7507029478458	57	127
243.55333333333334	243.7507029478458	57	127
243.55333333333334	243.7507029478458	33	127
244.13383219954648	244.2267120181406	71	127
244.13383219954648	244.2267120181406	68	127
244.13383219954648	244.2267120181406	62	127
244.13383219954648	244.2267120181406	40	127
244.33120181405894	244.42408163265307	71	127
244.33120181405894	244.42408163265307	68	127
244.33120181405894	244.42408163265307	62	127
244.33120181405894	244.42408163265307	40	127
244.51696145124717	244.62145124716554	76	127
244.51696145124717	244.62145124716554	68	127
244.51696145124717	244.62145124716554	62	127
244.51696145124717	244.62145124716554	40	127
244.71433106575964	244.90009070294784	73	127
244.71433106575964	244.90009070294784	69	127
244.71433106575964	244.90009070294784	61	127
244.71433106575964	244.90009070294784	45	127
245.2251700680272	245.32965986394558	71	127
245.2251700680272	245.32965986394558	68	127
245.2251700680272	245.32965986394558	62	127
245.2251700680272	245.32965986394558	40	127
245.4109297052154	245.51541950113378	71	127
245.4109297052154	245.51541950113378	68	127
245.4109297052154	245.51541950113378	62	127
245.4109297052154	245.51541950113378	40	127
245.6082993197279	245.68956916099773	76	127
245.6082993197279	245.68956916099773	68	127
245.6082993197279	245.68956916099773	62	127
245.6082993197279	245.68956916099773	40	127
245.77083900226756	245.94498866213152	69	127
245.77083900226756	245.94498866213152	69	127
245.77083900226756	245.94498866213152	61	127
245.77083900226756	245.94498866213152	45	127
246.2932879818594	246.3861678004535	73	127
246.2932879818594	246.3861678004535	69	127
246.2932879818594	246.3861678004535	61	127
246.2932879818594	246.3861678004535	57	127
246.2932879818594	246.3861678004535	64	127
246.2932879818594	246.3861678004535	33	127
246.44421768707483	246.72285714285715	81	127
246.44421768707483	246.72285714285715	61	127
246.44421768707483	246.72285714285715	69	127
246.44421768707483	246.72285714285715	64	127
246.44421768707483	246.72285714285715	33	127
246.44421768707483	246.72285714285715	57	127
