# onset,offset,note,velocity
0.6841950113378685	0.9396371882086167	64	127
0.6841950113378685	0.9396371882086167	61	127
0.6841950113378685	0.9396371882086167	57	127
0.6841950113378685	0.9396371882086167	52	127
0.6841950113378685	0.9396371882086167	49	127
0.6841950113378685	0.9396371882086167	45	127
1.3807936507936507	1.5665759637188208	66	127
1.3807936507936507	1.5665759637188208	62	127
1.3807936507936507	1.5665759637188208	57	127
1.3807936507936507	1.5665759637188208	54	127
1.3807936507936507	1.5665759637188208	50	127
1.3807936507936507	1.5665759637188208	45	127
2.0309750566893423	2.2631746031746034	45	127
2.0309750566893423	2.2631746031746034	52	127
2.0309750566893423	2.2631746031746034	56	127
2.0309750566893423	2.2631746031746034	62	127
2.0309750566893423	2.2631746031746034	64	127
2.0309750566893423	2.2631746031746034	68	127
2.2631746031746034	2.472154195011338	45	127
2.2631746031746034	2.472154195011338	52	127
2.2631746031746034	2.472154195011338	56	127
2.2631746031746034	2.472154195011338	62	127
2.2631746031746034	2.472154195011338	64	127
2.2631746031746034	2.472154195011338	68	127
2.472154195011338	2.6927437641723357	45	127
2.472154195011338	2.6927437641723357	52	127
2.472154195011338	2.6927437641723357	56	127
2.472154195011338	2.6927437641723357	62	127
2.472154195011338	2.6927437641723357	64	127
2.472154195011338	2.6927437641723357	68	127
2.6927437641723357	2.878503401360544	57	127
2.6927437641723357	2.878503401360544	69	127
2.6927437641723357	2.878503401360544	64	127
2.6927437641723357	2.878503401360544	61	127
2.6927437641723357	2.878503401360544	52	127
2.6927437641723357	2.878503401360544	45	127
3.0062131519274375	3.064263038548753	81	127
3.110702947845805	3.157142857142857	78	127
3.2035827664399092	3.2616326530612243	76	127
3.3080725623582765	3.412562358276644	75	127
3.3080725623582765	3.412562358276644	66	127
3.3080725623582765	3.412562358276644	69	127
3.5170521541950115	3.6099319727891155	66	127
3.5170521541950115	3.6099319727891155	75	127
3.5170521541950115	3.6099319727891155	69	127
3.714421768707483	3.807301587301587	75	127
3.714421768707483	3.807301587301587	66	127
3.714421768707483	3.807301587301587	69	127
3.9001814058956916	4.515510204081632	68	127
3.9001814058956916	4.515510204081632	83	127
3.9001814058956916	4.515510204081632	74	127
3.9001814058956916	4.515510204081632	64	127
4.515510204081632	4.585170068027211	66	127
4.515510204081632	4.585170068027211	69	127
4.515510204081632	4.585170068027211	75	127
4.654829931972789	4.73609977324263	75	127
4.654829931972789	4.73609977324263	66	127
4.654829931972789	4.73609977324263	69	127
4.840589569160998	4.933469387755102	66	127
4.840589569160998	4.933469387755102	75	127
4.840589569160998	4.933469387755102	69	127
5.072766439909297	5.65328798185941	83	127
5.072766439909297	5.65328798185941	74	127
5.072766439909297	5.65328798185941	68	127
5.072766439909297	5.65328798185941	64	127
5.65328798185941	5.839047619047619	73	127
5.65328798185941	5.839047619047619	85	127
5.65328798185941	5.839047619047619	76	127
5.65328798185941	5.839047619047619	69	127
5.65328798185941	5.839047619047619	64	127
5.65328798185941	5.839047619047619	57	127
6.048027210884354	6.222176870748299	56	127
6.048027210884354	6.222176870748299	61	127
6.048027210884354	6.222176870748299	68	127
6.048027210884354	6.222176870748299	73	127
6.048027210884354	6.222176870748299	77	127
6.048027210884354	6.222176870748299	83	127
6.222176870748299	6.431156462585034	81	127
6.222176870748299	6.431156462585034	78	127
6.222176870748299	6.431156462585034	73	127
6.222176870748299	6.431156462585034	66	127
6.222176870748299	6.431156462585034	61	127
6.222176870748299	6.431156462585034	54	127
6.628526077097506	6.814285714285714	58	127
6.628526077097506	6.814285714285714	64	127
6.628526077097506	6.814285714285714	68	127
6.628526077097506	6.814285714285714	76	127
6.628526077097506	6.814285714285714	80	127
6.814285714285714	7.011655328798186	78	127
6.814285714285714	7.011655328798186	76	127
6.814285714285714	7.011655328798186	73	127
6.814285714285714	7.011655328798186	66	127
6.814285714285714	7.011655328798186	64	127
6.814285714285714	7.011655328798186	59	127
7.232244897959184	7.452834467120182	59	127
7.232244897959184	7.452834467120182	66	127
7.232244897959184	7.452834467120182	69	127
7.232244897959184	7.452834467120182	75	127
7.232244897959184	7.452834467120182	78	127
7.232244897959184	7.452834467120182	83	127
7.452834467120182	7.534104308390023	80	127
7.452834467120182	7.534104308390023	71	127
7.452834467120182	7.534104308390023	68	127
7.452834467120182	7.534104308390023	64	127
7.626984126984127	7.719863945578231	64	127
7.626984126984127	7.719863945578231	68	127
7.626984126984127	7.719863945578231	71	127
7.626984126984127	7.719863945578231	80	127
7.78952380952381	7.882403628117914	83	127
7.78952380952381	7.882403628117914	71	127
7.78952380952381	7.882403628117914	68	127
7.78952380952381	7.882403628117914	64	127
7.963673469387755	8.044920634920635	59	127
7.963673469387755	8.044920634920635	63	127
7.963673469387755	8.044920634920635	69	127
7.963673469387755	8.044920634920635	71	127
7.963673469387755	8.044920634920635	78	127
8.544172335600907	8.648639455782313	80	127
8.544172335600907	8.648639455782313	71	127
8.544172335600907	8.648639455782313	68	127
8.544172335600907	8.648639455782313	64	127
8.753151927437642	8.82281179138322	64	127
8.753151927437642	8.82281179138322	68	127
8.753151927437642	8.82281179138322	71	127
8.753151927437642	8.82281179138322	80	127
8.927301587301587	8.996938775510204	83	127
8.927301587301587	8.996938775510204	71	127
8.927301587301587	8.996938775510204	68	127
8.927301587301587	8.996938775510204	64	127
9.078231292517007	9.182721088435374	59	127
9.078231292517007	9.182721088435374	63	127
9.078231292517007	9.182721088435374	69	127
9.078231292517007	9.182721088435374	71	127
9.078231292517007	9.182721088435374	78	127
9.670340136054422	9.77482993197279	80	127
9.670340136054422	9.77482993197279	71	127
9.670340136054422	9.77482993197279	64	127
9.670340136054422	9.77482993197279	76	127
9.856099773242631	9.948956916099773	64	127
9.856099773242631	9.948956916099773	71	127
9.856099773242631	9.948956916099773	80	127
9.856099773242631	9.948956916099773	76	127
10.018639455782314	10.111519274376418	83	127
10.018639455782314	10.111519274376418	64	127
10.018639455782314	10.111519274376418	76	127
10.018639455782314	10.111519274376418	68	127
10.216009070294785	10.30888888888889	88	127
10.216009070294785	10.30888888888889	80	127
10.216009070294785	10.30888888888889	76	127
10.216009070294785	10.30888888888889	74	127
10.216009070294785	10.30888888888889	71	127
10.216009070294785	10.30888888888889	64	127
11.435056689342403	11.644036281179138	64	127
11.435056689342403	11.644036281179138	61	127
11.435056689342403	11.644036281179138	57	127
11.435056689342403	11.644036281179138	52	127
11.435056689342403	11.644036281179138	45	127
11.435056689342403	11.644036281179138	49	127
12.027165532879819	12.236145124716554	45	127
12.027165532879819	12.236145124716554	54	127
12.027165532879819	12.236145124716554	50	127
12.027165532879819	12.236145124716554	57	127
12.027165532879819	12.236145124716554	62	127
12.027165532879819	12.236145124716554	66	127
12.619274376417234	12.793424036281179	52	127
12.619274376417234	12.793424036281179	45	127
12.619274376417234	12.793424036281179	56	127
12.619274376417234	12.793424036281179	62	127
12.619274376417234	12.793424036281179	64	127
12.619274376417234	12.793424036281179	68	127
12.793424036281179	12.99079365079365	45	127
12.793424036281179	12.99079365079365	52	127
12.793424036281179	12.99079365079365	56	127
12.793424036281179	12.99079365079365	62	127
12.793424036281179	12.99079365079365	64	127
12.793424036281179	12.99079365079365	68	127
12.99079365079365	13.222993197278912	45	127
12.99079365079365	13.222993197278912	52	127
12.99079365079365	13.222993197278912	56	127
12.99079365079365	13.222993197278912	62	127
12.99079365079365	13.222993197278912	64	127
12.99079365079365	13.222993197278912	68	127
13.222993197278912	13.466802721088435	45	127
13.222993197278912	13.466802721088435	52	127
13.222993197278912	13.466802721088435	57	127
13.222993197278912	13.466802721088435	61	127
13.222993197278912	13.466802721088435	64	127
13.222993197278912	13.466802721088435	69	127
13.571292517006803	13.617732426303855	81	127
13.664172335600908	13.722222222222221	78	127
13.757052154195012	13.791882086167801	76	127
13.838321995464852	13.94281179138322	75	127
13.838321995464852	13.94281179138322	69	127
13.838321995464852	13.94281179138322	66	127
14.035691609977324	14.128571428571428	75	127
14.035691609977324	14.128571428571428	69	127
14.035691609977324	14.128571428571428	66	127
14.20984126984127	14.302721088435375	69	127
14.20984126984127	14.302721088435375	75	127
14.20984126984127	14.302721088435375	66	127
14.395600907029479	15.068979591836735	64	127
14.395600907029479	15.068979591836735	83	127
14.395600907029479	15.068979591836735	74	127
14.395600907029479	15.068979591836735	68	127
15.068979591836735	15.150249433106575	69	127
15.068979591836735	15.150249433106575	66	127
15.068979591836735	15.150249433106575	75	127
15.231519274376417	15.336009070294784	75	127
15.231519274376417	15.336009070294784	69	127
15.231519274376417	15.336009070294784	66	127
15.417278911564626	15.521768707482993	69	127
15.417278911564626	15.521768707482993	75	127
15.417278911564626	15.521768707482993	66	127
15.614648526077097	16.276394557823128	83	127
15.614648526077097	16.276394557823128	74	127
15.614648526077097	16.276394557823128	68	127
15.614648526077097	16.276394557823128	64	127
16.276394557823128	16.357687074829933	83	127
16.276394557823128	16.357687074829933	74	127
16.276394557823128	16.357687074829933	67	127
16.276394557823128	16.357687074829933	65	127
16.833696145124716	16.91496598639456	79	127
16.833696145124716	16.91496598639456	84	127
16.833696145124716	16.91496598639456	72	127
16.833696145124716	16.91496598639456	67	127
16.833696145124716	16.91496598639456	64	127
17.019455782312924	17.123945578231293	79	127
17.019455782312924	17.123945578231293	84	127
17.019455782312924	17.123945578231293	72	127
17.019455782312924	17.123945578231293	67	127
17.019455782312924	17.123945578231293	64	127
17.240045351473924	17.332925170068027	79	127
17.240045351473924	17.332925170068027	84	127
17.240045351473924	17.332925170068027	72	127
17.240045351473924	17.332925170068027	67	127
17.240045351473924	17.332925170068027	64	127
17.437414965986395	17.530294784580498	65	127
17.437414965986395	17.530294784580498	67	127
17.437414965986395	17.530294784580498	74	127
17.437414965986395	17.530294784580498	83	127
18.02952380952381	18.11077097505669	84	127
18.02952380952381	18.11077097505669	79	127
18.02952380952381	18.11077097505669	72	127
18.02952380952381	18.11077097505669	67	127
18.02952380952381	18.11077097505669	64	127
18.203673469387756	18.284943310657596	64	127
18.203673469387756	18.284943310657596	67	127
18.203673469387756	18.284943310657596	72	127
18.203673469387756	18.284943310657596	79	127
18.203673469387756	18.284943310657596	84	127
18.377823129251702	18.49390022675737	64	127
18.377823129251702	18.49390022675737	67	127
18.377823129251702	18.49390022675737	72	127
18.377823129251702	18.49390022675737	79	127
18.377823129251702	18.49390022675737	84	127
18.540362811791383	18.749319727891155	60	127
18.540362811791383	18.749319727891155	67	127
18.540362811791383	18.749319727891155	72	127
18.540362811791383	18.749319727891155	76	127
18.540362811791383	18.749319727891155	79	127
18.540362811791383	18.749319727891155	88	127
18.94671201814059	19.1324716553288	86	127
18.94671201814059	19.1324716553288	80	127
18.94671201814059	19.1324716553288	76	127
18.94671201814059	19.1324716553288	68	127
18.94671201814059	19.1324716553288	64	127
18.94671201814059	19.1324716553288	59	127
19.1324716553288	19.318208616780044	76	127
19.1324716553288	19.318208616780044	57	127
19.1324716553288	19.318208616780044	64	127
19.1324716553288	19.318208616780044	69	127
19.1324716553288	19.318208616780044	81	127
19.1324716553288	19.318208616780044	84	127
19.51560090702948	19.689750566893423	82	127
19.51560090702948	19.689750566893423	76	127
19.51560090702948	19.689750566893423	72	127
19.51560090702948	19.689750566893423	64	127
19.51560090702948	19.689750566893423	60	127
19.51560090702948	19.689750566893423	55	127
19.689750566893423	19.887097505668933	53	127
19.689750566893423	19.887097505668933	60	127
19.689750566893423	19.887097505668933	72	127
19.689750566893423	19.887097505668933	77	127
19.689750566893423	19.887097505668933	81	127
19.689750566893423	19.887097505668933	65	127
20.107709750566894	20.32829931972789	79	127
20.107709750566894	20.32829931972789	73	127
20.107709750566894	20.32829931972789	69	127
20.107709750566894	20.32829931972789	61	127
20.107709750566894	20.32829931972789	57	127
20.107709750566894	20.32829931972789	52	127
20.32829931972789	20.490839002267574	50	127
20.32829931972789	20.490839002267574	57	127
20.32829931972789	20.490839002267574	62	127
20.32829931972789	20.490839002267574	69	127
20.32829931972789	20.490839002267574	77	127
20.32829931972789	20.490839002267574	74	127
20.66498866213152	20.839115646258502	76	127
20.66498866213152	20.839115646258502	72	127
20.66498866213152	20.839115646258502	64	127
20.66498866213152	20.839115646258502	60	127
20.66498866213152	20.839115646258502	54	127
20.839115646258502	21.036507936507938	55	127
20.839115646258502	21.036507936507938	62	127
20.839115646258502	21.036507936507938	60	127
20.839115646258502	21.036507936507938	69	127
20.839115646258502	21.036507936507938	72	127
20.839115646258502	21.036507936507938	74	127
21.23387755102041	21.41963718820862	79	127
21.23387755102041	21.41963718820862	74	127
21.23387755102041	21.41963718820862	71	127
21.23387755102041	21.41963718820862	62	127
21.23387755102041	21.41963718820862	65	127
21.23387755102041	21.41963718820862	55	127
21.41963718820862	21.51251700680272	60	127
21.41963718820862	21.51251700680272	64	127
21.41963718820862	21.51251700680272	67	127
21.41963718820862	21.51251700680272	76	127
21.605396825396827	21.675056689342405	64	127
21.605396825396827	21.675056689342405	60	127
21.605396825396827	21.675056689342405	67	127
21.605396825396827	21.675056689342405	76	127
21.756326530612245	21.837596371882086	60	127
21.756326530612245	21.837596371882086	64	127
21.756326530612245	21.837596371882086	67	127
21.756326530612245	21.837596371882086	79	127
21.942086167800454	22.127845804988663	74	127
21.942086167800454	22.127845804988663	67	127
21.942086167800454	22.127845804988663	65	127
21.942086167800454	22.127845804988663	59	127
21.942086167800454	22.127845804988663	55	127
22.534195011337868	22.627074829931974	60	127
22.534195011337868	22.627074829931974	64	127
22.534195011337868	22.627074829931974	67	127
22.534195011337868	22.627074829931974	76	127
22.73156462585034	22.836054421768708	64	127
22.73156462585034	22.836054421768708	60	127
22.73156462585034	22.836054421768708	67	127
22.73156462585034	22.836054421768708	76	127
22.92891156462585	23.04503401360544	60	127
22.92891156462585	23.04503401360544	64	127
22.92891156462585	23.04503401360544	67	127
22.92891156462585	23.04503401360544	79	127
23.137913832199548	23.323673469387757	74	127
23.137913832199548	23.323673469387757	67	127
23.137913832199548	23.323673469387757	65	127
23.137913832199548	23.323673469387757	59	127
23.137913832199548	23.323673469387757	55	127
23.7184126984127	23.822902494331064	60	127
23.7184126984127	23.822902494331064	64	127
23.7184126984127	23.822902494331064	72	127
23.7184126984127	23.822902494331064	76	127
23.904172335600908	23.985442176870748	60	127
23.904172335600908	23.985442176870748	67	127
23.904172335600908	23.985442176870748	72	127
23.904172335600908	23.985442176870748	76	127
24.089931972789117	24.18281179138322	60	127
24.089931972789117	24.18281179138322	67	127
24.089931972789117	24.18281179138322	72	127
24.089931972789117	24.18281179138322	76	127
24.089931972789117	24.18281179138322	79	127
24.240861678004535	24.438231292517006	84	127
24.240861678004535	24.438231292517006	76	127
24.240861678004535	24.438231292517006	72	127
24.240861678004535	24.438231292517006	67	127
24.240861678004535	24.438231292517006	60	127
25.16965986394558	25.21609977324263	66	127
25.16965986394558	25.21609977324263	78	127
25.262539682539682	25.343809523809522	67	127
25.262539682539682	25.343809523809522	79	127
25.390249433106575	25.43668934240363	69	127
25.390249433106575	25.43668934240363	81	127
25.43668934240363	25.83142857142857	70	127
25.43668934240363	25.83142857142857	82	127
25.83142857142857	26.01718820861678	69	127
25.83142857142857	26.01718820861678	81	127
26.01718820861678	26.411927437641722	79	127
26.01718820861678	26.411927437641722	67	127
26.411927437641722	26.59768707482993	65	127
26.411927437641722	26.59768707482993	77	127
26.59768707482993	26.690566893424037	64	127
26.59768707482993	26.690566893424037	76	127
26.78344671201814	26.88793650793651	76	127
26.78344671201814	26.88793650793651	64	127
26.992426303854874	27.096916099773242	65	127
26.992426303854874	27.096916099773242	77	127
27.20140589569161	27.305895691609976	67	127
27.20140589569161	27.305895691609976	79	127
27.410385487528345	27.491655328798185	79	127
27.410385487528345	27.491655328798185	67	127
27.596145124716553	27.700634920634922	83	127
27.596145124716553	27.700634920634922	71	127
27.781904761904762	27.85156462585034	72	127
27.781904761904762	27.85156462585034	84	127
27.944444444444443	28.025714285714287	72	127
27.944444444444443	28.025714285714287	84	127
28.106984126984127	28.19986394557823	74	127
28.106984126984127	28.19986394557823	86	127
28.292743764172336	28.408843537414967	72	127
28.292743764172336	28.408843537414967	84	127
28.50172335600907	28.594603174603176	72	127
28.50172335600907	28.594603174603176	84	127
28.710702947845807	28.780362811791385	74	127
28.710702947845807	28.780362811791385	86	127
28.861632653061225	28.966122448979593	72	127
28.861632653061225	28.966122448979593	84	127
29.059002267573696	29.163492063492065	72	127
29.059002267573696	29.163492063492065	84	127
29.256371882086167	29.337641723356008	74	127
29.256371882086167	29.337641723356008	86	127
29.442131519274376	29.639501133786847	84	127
29.442131519274376	29.639501133786847	72	127
29.79043083900227	29.83687074829932	68	127
29.79043083900227	29.83687074829932	80	127
29.883310657596372	29.929750566893425	69	127
29.883310657596372	29.929750566893425	81	127
29.98780045351474	30.03424036281179	71	127
29.98780045351474	30.03424036281179	83	127
30.03424036281179	30.45219954648526	72	127
30.03424036281179	30.45219954648526	84	127
30.45219954648526	30.649569160997732	82	127
30.45219954648526	30.649569160997732	70	127
30.649569160997732	31.044308390022675	69	127
30.649569160997732	31.044308390022675	81	127
31.044308390022675	31.241678004535146	67	127
31.044308390022675	31.241678004535146	79	127
31.241678004535146	31.357777777777777	78	127
31.241678004535146	31.357777777777777	66	127
31.450657596371883	31.566757369614514	66	127
31.450657596371883	31.566757369614514	78	127
31.659637188208617	31.75251700680272	79	127
31.659637188208617	31.75251700680272	67	127
31.8221768707483	31.915056689342403	69	127
31.8221768707483	31.915056689342403	81	127
32.007936507936506	32.10081632653061	69	127
32.007936507936506	32.10081632653061	81	127
32.19369614512472	32.29818594104309	85	127
32.19369614512472	32.29818594104309	73	127
32.379455782312924	32.46072562358277	74	127
32.379455782312924	32.46072562358277	86	127
32.553605442176874	32.63487528344671	74	127
32.553605442176874	32.63487528344671	86	127
32.69292517006803	32.797392290249434	76	127
32.69292517006803	32.797392290249434	88	127
32.878684807256235	32.983174603174604	74	127
32.878684807256235	32.983174603174604	86	127
33.07605442176871	33.15732426303855	74	127
33.07605442176871	33.15732426303855	86	127
33.23859410430839	33.34308390022676	76	127
33.23859410430839	33.34308390022676	88	127
33.42433106575964	33.528843537414964	74	127
33.42433106575964	33.528843537414964	86	127
33.61011337868481	33.71460317460318	74	127
33.61011337868481	33.71460317460318	86	127
33.80746031746032	33.911972789115644	76	127
33.80746031746032	33.911972789115644	88	127
34.00485260770975	34.202222222222225	86	127
34.00485260770975	34.202222222222225	74	127
34.57371882086168	34.678231292517005	80	127
34.57371882086168	34.678231292517005	74	127
34.57371882086168	34.678231292517005	71	127
34.57371882086168	34.678231292517005	64	127
34.794331065759636	34.898820861678004	71	127
34.794331065759636	34.898820861678004	64	127
34.794331065759636	34.898820861678004	80	127
34.794331065759636	34.898820861678004	74	127
34.99170068027211	35.09619047619048	74	127
34.99170068027211	35.09619047619048	81	127
34.99170068027211	35.09619047619048	71	127
34.99170068027211	35.09619047619048	65	127
35.18907029478458	35.281950113378684	74	127
35.18907029478458	35.281950113378684	71	127
35.18907029478458	35.281950113378684	64	127
35.18907029478458	35.281950113378684	80	127
35.38643990929705	35.45607709750567	71	127
35.38643990929705	35.45607709750567	64	127
35.38643990929705	35.45607709750567	80	127
35.38643990929705	35.45607709750567	74	127
35.54897959183673	35.64185941043084	71	127
35.54897959183673	35.64185941043084	65	127
35.54897959183673	35.64185941043084	81	127
35.54897959183673	35.64185941043084	74	127
35.72312925170068	35.81600907029478	64	127
35.72312925170068	35.81600907029478	80	127
35.72312925170068	35.81600907029478	74	127
35.72312925170068	35.81600907029478	71	127
35.89727891156463	35.99015873015873	64	127
35.89727891156463	35.99015873015873	80	127
35.89727891156463	35.99015873015873	74	127
35.89727891156463	35.99015873015873	71	127
36.09462585034014	36.1875283446712	65	127
36.09462585034014	36.1875283446712	81	127
36.09462585034014	36.1875283446712	74	127
36.09462585034014	36.1875283446712	71	127
36.28040816326531	36.500997732426306	80	127
36.28040816326531	36.500997732426306	74	127
36.28040816326531	36.500997732426306	71	127
36.28040816326531	36.500997732426306	64	127
36.89573696145125	37.45301587301587	88	127
36.89573696145125	37.45301587301587	76	127
37.45301587301587	38.021904761904764	79	127
37.45301587301587	38.021904761904764	91	127
38.021904761904764	38.567573696145125	76	127
38.021904761904764	38.567573696145125	88	127
38.567573696145125	39.15968253968254	81	127
38.567573696145125	39.15968253968254	93	127
39.15968253968254	39.264149659863946	78	127
39.15968253968254	39.264149659863946	72	127
39.15968253968254	39.264149659863946	62	127
39.15968253968254	39.264149659863946	69	127
39.36866213151927	39.46154195011338	62	127
39.36866213151927	39.46154195011338	78	127
39.36866213151927	39.46154195011338	72	127
39.36866213151927	39.46154195011338	69	127
39.54281179138322	39.64727891156463	79	127
39.54281179138322	39.64727891156463	63	127
39.54281179138322	39.64727891156463	69	127
39.54281179138322	39.64727891156463	72	127
39.716961451247165	39.77498866213152	62	127
39.716961451247165	39.77498866213152	78	127
39.716961451247165	39.77498866213152	72	127
39.716961451247165	39.77498866213152	69	127
39.879501133786846	39.97238095238095	69	127
39.879501133786846	39.97238095238095	62	127
39.879501133786846	39.97238095238095	78	127
39.879501133786846	39.97238095238095	72	127
40.06526077097506	40.158140589569165	69	127
40.06526077097506	40.158140589569165	63	127
40.06526077097506	40.158140589569165	79	127
40.06526077097506	40.158140589569165	72	127
40.21619047619048	40.30907029478458	78	127
40.21619047619048	40.30907029478458	72	127
40.21619047619048	40.30907029478458	69	127
40.21619047619048	40.30907029478458	62	127
40.401927437641724	40.49482993197279	69	127
40.401927437641724	40.49482993197279	62	127
40.401927437641724	40.49482993197279	78	127
40.401927437641724	40.49482993197279	72	127
40.587709750566894	40.65734693877551	69	127
40.587709750566894	40.65734693877551	63	127
40.587709750566894	40.65734693877551	79	127
40.587709750566894	40.65734693877551	72	127
40.76185941043084	40.94761904761905	69	127
40.76185941043084	40.94761904761905	78	127
40.76185941043084	40.94761904761905	72	127
40.76185941043084	40.94761904761905	62	127
41.353968253968254	41.957687074829934	74	127
41.353968253968254	41.957687074829934	86	127
41.957687074829934	42.549795918367344	77	127
41.957687074829934	42.549795918367344	89	127
42.549795918367344	43.09546485260771	74	127
42.549795918367344	43.09546485260771	86	127
43.09546485260771	43.68757369614512	91	127
43.09546485260771	43.68757369614512	79	127
43.68757369614512	43.90816326530612	88	127
43.68757369614512	43.90816326530612	76	127
44.302902494331065	44.50027210884354	85	127
44.302902494331065	44.50027210884354	76	127
44.302902494331065	44.50027210884354	73	127
44.302902494331065	44.50027210884354	69	127
44.50027210884354	44.69764172335601	85	127
44.50027210884354	44.69764172335601	76	127
44.50027210884354	44.69764172335601	73	127
44.50027210884354	44.69764172335601	69	127
44.69764172335601	44.89501133786848	73	127
44.69764172335601	44.89501133786848	85	127
44.69764172335601	44.89501133786848	76	127
44.69764172335601	44.89501133786848	69	127
44.89501133786848	45.069160997732425	62	127
44.89501133786848	45.069160997732425	66	127
44.89501133786848	45.069160997732425	71	127
44.89501133786848	45.069160997732425	78	127
44.89501133786848	45.069160997732425	83	127
45.44068027210884	45.626439909297055	80	127
45.44068027210884	45.626439909297055	74	127
45.44068027210884	45.626439909297055	71	127
45.44068027210884	45.626439909297055	64	127
45.626439909297055	45.82380952380952	80	127
45.626439909297055	45.82380952380952	74	127
45.626439909297055	45.82380952380952	71	127
45.626439909297055	45.82380952380952	64	127
45.82380952380952	46.021179138322	80	127
45.82380952380952	46.021179138322	74	127
45.82380952380952	46.021179138322	71	127
45.82380952380952	46.021179138322	64	127
47.263446712018144	47.44920634920635	45	127
47.263446712018144	47.44920634920635	49	127
47.263446712018144	47.44920634920635	52	127
47.263446712018144	47.44920634920635	57	127
47.263446712018144	47.44920634920635	64	127
47.263446712018144	47.44920634920635	61	127
47.82072562358277	48.06453514739229	45	127
47.82072562358277	48.06453514739229	50	127
47.82072562358277	48.06453514739229	54	127
47.82072562358277	48.06453514739229	57	127
47.82072562358277	48.06453514739229	66	127
47.82072562358277	48.06453514739229	62	127
48.44766439909297	48.61020408163265	56	127
48.44766439909297	48.61020408163265	52	127
48.44766439909297	48.61020408163265	45	127
48.44766439909297	48.61020408163265	64	127
48.44766439909297	48.61020408163265	68	127
48.44766439909297	48.61020408163265	62	127
48.61020408163265	48.83079365079365	56	127
48.61020408163265	48.83079365079365	52	127
48.61020408163265	48.83079365079365	45	127
48.61020408163265	48.83079365079365	64	127
48.61020408163265	48.83079365079365	68	127
48.61020408163265	48.83079365079365	62	127
48.83079365079365	49.01655328798186	56	127
48.83079365079365	49.01655328798186	52	127
48.83079365079365	49.01655328798186	45	127
48.83079365079365	49.01655328798186	64	127
48.83079365079365	49.01655328798186	68	127
48.83079365079365	49.01655328798186	62	127
49.01655328798186	49.24875283446712	69	127
49.01655328798186	49.24875283446712	64	127
49.01655328798186	49.24875283446712	61	127
49.01655328798186	49.24875283446712	57	127
49.01655328798186	49.24875283446712	52	127
49.01655328798186	49.24875283446712	45	127
49.35324263038549	49.457732426303856	81	127
49.457732426303856	49.55061224489796	78	127
49.55061224489796	49.64349206349206	76	127
49.64349206349206	49.78281179138322	75	127
49.64349206349206	49.78281179138322	69	127
49.64349206349206	49.78281179138322	66	127
49.86408163265306	49.991791383219955	66	127
49.86408163265306	49.991791383219955	75	127
49.86408163265306	49.991791383219955	69	127
50.04984126984127	50.14272108843537	75	127
50.04984126984127	50.14272108843537	69	127
50.04984126984127	50.14272108843537	66	127
50.24721088435374	50.816099773242634	64	127
50.24721088435374	50.816099773242634	68	127
50.24721088435374	50.816099773242634	74	127
50.24721088435374	50.816099773242634	83	127
50.816099773242634	50.90897959183673	69	127
50.816099773242634	50.90897959183673	66	127
50.816099773242634	50.90897959183673	75	127
51.025079365079364	51.11795918367347	75	127
51.025079365079364	51.11795918367347	66	127
51.025079365079364	51.11795918367347	69	127
51.210839002267576	51.31532879818594	69	127
51.210839002267576	51.31532879818594	75	127
51.210839002267576	51.31532879818594	66	127
51.408208616780044	52.023537414965986	83	127
51.408208616780044	52.023537414965986	64	127
51.408208616780044	52.023537414965986	68	127
51.408208616780044	52.023537414965986	74	127
52.023537414965986	52.20929705215419	80	127
52.023537414965986	52.20929705215419	71	127
52.023537414965986	52.20929705215419	62	127
52.023537414965986	52.20929705215419	64	127
52.59242630385488	52.673696145124715	81	127
52.59242630385488	52.673696145124715	76	127
52.59242630385488	52.673696145124715	69	127
52.59242630385488	52.673696145124715	61	127
52.59242630385488	52.673696145124715	64	127
52.75496598639456	52.847845804988665	81	127
52.75496598639456	52.847845804988665	76	127
52.75496598639456	52.847845804988665	69	127
52.75496598639456	52.847845804988665	64	127
52.75496598639456	52.847845804988665	61	127
52.9291156462585	53.04521541950113	81	127
52.9291156462585	53.04521541950113	76	127
52.9291156462585	53.04521541950113	69	127
52.9291156462585	53.04521541950113	64	127
52.9291156462585	53.04521541950113	61	127
53.1497052154195	53.33546485260771	62	127
53.1497052154195	53.33546485260771	64	127
53.1497052154195	53.33546485260771	71	127
53.1497052154195	53.33546485260771	80	127
53.74181405895692	53.86952380952381	81	127
53.74181405895692	53.86952380952381	76	127
53.74181405895692	53.86952380952381	69	127
53.74181405895692	53.86952380952381	64	127
53.74181405895692	53.86952380952381	61	127
53.91596371882086	53.997233560090706	76	127
53.91596371882086	53.997233560090706	69	127
53.91596371882086	53.997233560090706	81	127
53.91596371882086	53.997233560090706	64	127
53.91596371882086	53.997233560090706	61	127
54.10172335600907	54.18299319727891	81	127
54.10172335600907	54.18299319727891	76	127
54.10172335600907	54.18299319727891	69	127
54.10172335600907	54.18299319727891	64	127
54.10172335600907	54.18299319727891	61	127
54.264263038548755	54.45002267573696	57	127
54.264263038548755	54.45002267573696	64	127
54.264263038548755	54.45002267573696	69	127
54.264263038548755	54.45002267573696	73	127
54.264263038548755	54.45002267573696	76	127
54.264263038548755	54.45002267573696	85	127
54.647392290249435	54.8447619047619	83	127
54.647392290249435	54.8447619047619	77	127
54.647392290249435	54.8447619047619	73	127
54.647392290249435	54.8447619047619	65	127
54.647392290249435	54.8447619047619	61	127
54.647392290249435	54.8447619047619	56	127
54.8447619047619	55.04213151927438	54	127
54.8447619047619	55.04213151927438	61	127
54.8447619047619	55.04213151927438	66	127
54.8447619047619	55.04213151927438	73	127
54.8447619047619	55.04213151927438	78	127
54.8447619047619	55.04213151927438	81	127
55.239501133786845	55.42526077097506	79	127
55.239501133786845	55.42526077097506	69	127
55.239501133786845	55.42526077097506	73	127
55.239501133786845	55.42526077097506	61	127
55.239501133786845	55.42526077097506	57	127
55.239501133786845	55.42526077097506	52	127
55.42526077097506	55.58780045351474	50	127
55.42526077097506	55.58780045351474	57	127
55.42526077097506	55.58780045351474	62	127
55.42526077097506	55.58780045351474	69	127
55.42526077097506	55.58780045351474	74	127
55.42526077097506	55.58780045351474	78	127
55.75034013605442	55.959319727891156	76	127
55.75034013605442	55.959319727891156	70	127
55.75034013605442	55.959319727891156	66	127
55.75034013605442	55.959319727891156	58	127
55.75034013605442	55.959319727891156	54	127
55.75034013605442	55.959319727891156	49	127
55.959319727891156	56.14507936507937	47	127
55.959319727891156	56.14507936507937	54	127
55.959319727891156	56.14507936507937	59	127
55.959319727891156	56.14507936507937	66	127
55.959319727891156	56.14507936507937	71	127
55.959319727891156	56.14507936507937	74	127
56.342448979591836	56.51659863945578	73	127
56.342448979591836	56.51659863945578	69	127
56.342448979591836	56.51659863945578	61	127
56.342448979591836	56.51659863945578	57	127
56.342448979591836	56.51659863945578	51	127
56.51659863945578	56.713968253968254	52	127
56.51659863945578	56.713968253968254	57	127
56.51659863945578	56.713968253968254	59	127
56.51659863945578	56.713968253968254	66	127
56.51659863945578	56.713968253968254	69	127
56.51659863945578	56.713968253968254	71	127
56.91133786848073	57.08548752834467	76	127
56.91133786848073	57.08548752834467	71	127
56.91133786848073	57.08548752834467	68	127
56.91133786848073	57.08548752834467	62	127
56.91133786848073	57.08548752834467	59	127
56.91133786848073	57.08548752834467	52	127
57.08548752834467	57.18997732426304	61	127
57.08548752834467	57.18997732426304	57	127
57.08548752834467	57.18997732426304	64	127
57.08548752834467	57.18997732426304	69	127
57.08548752834467	57.18997732426304	73	127
57.28285714285714	57.39895691609977	61	127
57.28285714285714	57.39895691609977	57	127
57.28285714285714	57.39895691609977	64	127
57.28285714285714	57.39895691609977	73	127
57.49183673469388	57.58471655328798	61	127
57.49183673469388	57.58471655328798	57	127
57.49183673469388	57.58471655328798	64	127
57.49183673469388	57.58471655328798	76	127
57.63115646258503	57.84013605442177	71	127
57.63115646258503	57.84013605442177	64	127
57.63115646258503	57.84013605442177	62	127
57.63115646258503	57.84013605442177	56	127
57.63115646258503	57.84013605442177	52	127
58.22326530612245	58.32775510204082	69	127
58.22326530612245	58.32775510204082	73	127
58.22326530612245	58.32775510204082	76	127
58.22326530612245	58.32775510204082	85	127
58.42063492063492	58.513514739229024	76	127
58.42063492063492	58.513514739229024	69	127
58.42063492063492	58.513514739229024	73	127
58.42063492063492	58.513514739229024	85	127
58.61800453514739	58.687664399092974	88	127
58.61800453514739	58.687664399092974	73	127
58.61800453514739	58.687664399092974	69	127
58.61800453514739	58.687664399092974	76	127
58.78054421768707	58.97791383219955	76	127
58.78054421768707	58.97791383219955	74	127
58.78054421768707	58.97791383219955	64	127
58.78054421768707	58.97791383219955	68	127
58.78054421768707	58.97791383219955	83	127
59.3378231292517	59.41909297052154	69	127
59.3378231292517	59.41909297052154	73	127
59.3378231292517	59.41909297052154	81	127
59.3378231292517	59.41909297052154	85	127
59.53519274376417	59.662902494331064	69	127
59.53519274376417	59.662902494331064	76	127
59.53519274376417	59.662902494331064	81	127
59.53519274376417	59.662902494331064	85	127
59.74417233560091	59.848662131519276	69	127
59.74417233560091	59.848662131519276	76	127
59.74417233560091	59.848662131519276	81	127
59.74417233560091	59.848662131519276	88	127
59.74417233560091	59.848662131519276	85	127
59.941541950113375	60.08086167800454	88	127
59.941541950113375	60.08086167800454	93	127
59.941541950113375	60.08086167800454	85	127
59.941541950113375	60.08086167800454	81	127
59.941541950113375	60.08086167800454	76	127
59.941541950113375	60.08086167800454	73	127
59.941541950113375	60.08086167800454	69	127
60.77746031746032	60.83551020408163	78	127
60.77746031746032	60.83551020408163	66	127
60.87034013605442	60.91678004535147	67	127
60.87034013605442	60.91678004535147	79	127
60.97482993197279	61.02126984126984	81	127
60.97482993197279	61.02126984126984	69	127
61.02126984126984	61.43922902494331	70	127
61.02126984126984	61.43922902494331	82	127
61.43922902494331	61.62498866213152	69	127
61.43922902494331	61.62498866213152	81	127
61.62498866213152	62.0081179138322	67	127
61.62498866213152	62.0081179138322	79	127
62.0081179138322	62.20548752834467	77	127
62.0081179138322	62.20548752834467	65	127
62.20548752834467	62.298367346938775	76	127
62.20548752834467	62.298367346938775	64	127
62.402857142857144	62.48412698412698	76	127
62.402857142857144	62.48412698412698	64	127
62.57700680272109	62.69310657596372	65	127
62.57700680272109	62.69310657596372	77	127
62.785986394557824	62.87886621315193	67	127
62.785986394557824	62.87886621315193	79	127
62.98335600907029	63.064625850340136	79	127
62.98335600907029	63.064625850340136	67	127
63.169115646258504	63.26199546485261	83	127
63.169115646258504	63.26199546485261	71	127
63.32004535147392	63.42453514739229	72	127
63.32004535147392	63.42453514739229	84	127
63.5174149659864	63.610294784580496	72	127
63.5174149659864	63.610294784580496	84	127
63.714784580498865	63.79605442176871	74	127
63.714784580498865	63.79605442176871	86	127
63.888934240362815	63.981814058956914	72	127
63.888934240362815	63.981814058956914	84	127
64.07469387755103	64.16757369614513	72	127
64.07469387755103	64.16757369614513	84	127
64.26045351473923	64.37655328798186	74	127
64.26045351473923	64.37655328798186	86	127
64.46943310657596	64.5507029478458	72	127
64.46943310657596	64.5507029478458	84	127
64.65519274376418	64.74807256235827	72	127
64.65519274376418	64.74807256235827	84	127
64.84095238095239	64.96866213151928	74	127
64.84095238095239	64.96866213151928	86	127
65.04993197278911	65.2124716553288	84	127
65.04993197278911	65.2124716553288	72	127
65.31696145124717	65.36340136054422	68	127
65.31696145124717	65.36340136054422	80	127
65.40984126984127	65.45625850340136	69	127
65.40984126984127	65.45625850340136	81	127
65.51433106575963	65.56074829931973	71	127
65.51433106575963	65.56074829931973	83	127
65.56074829931973	65.99034013605443	72	127
65.56074829931973	65.99034013605443	84	127
65.99034013605443	66.1992970521542	82	127
65.99034013605443	66.1992970521542	70	127
66.1992970521542	66.5592290249433	81	127
66.1992970521542	66.5592290249433	69	127
66.5592290249433	66.76820861678004	67	127
66.5592290249433	66.76820861678004	79	127
66.76820861678004	66.84947845804989	66	127
66.76820861678004	66.84947845804989	78	127
66.94235827664399	67.04684807256236	66	127
66.94235827664399	67.04684807256236	78	127
67.1281179138322	67.23260770975057	79	127
67.1281179138322	67.23260770975057	67	127
67.32548752834467	67.41836734693878	81	127
67.32548752834467	67.41836734693878	69	127
67.5344671201814	67.61573696145125	69	127
67.5344671201814	67.61573696145125	81	127
67.73181405895691	67.83632653061224	85	127
67.73181405895691	67.83632653061224	73	127
67.90598639455783	67.9756462585034	74	127
67.90598639455783	67.9756462585034	86	127
68.05691609977325	68.14979591836735	74	127
68.05691609977325	68.14979591836735	86	127
68.24265306122449	68.33555555555556	76	127
68.24265306122449	68.33555555555556	88	127
68.4168253968254	68.49807256235827	74	127
68.4168253968254	68.49807256235827	86	127
68.6025850340136	68.70707482993197	74	127
68.6025850340136	68.70707482993197	86	127
68.79995464852608	68.89283446712018	76	127
68.79995464852608	68.89283446712018	88	127
68.99732426303855	69.0785941043084	74	127
68.99732426303855	69.0785941043084	86	127
69.17147392290249	69.26433106575963	86	127
69.17147392290249	69.26433106575963	74	127
69.34562358276644	69.43850340136055	76	127
69.34562358276644	69.43850340136055	88	127
69.53138321995465	69.77517006802721	86	127
69.53138321995465	69.77517006802721	74	127
70.13507936507936	70.22798185941043	80	127
70.13507936507936	70.22798185941043	74	127
70.13507936507936	70.22798185941043	71	127
70.13507936507936	70.22798185941043	64	127
70.32086167800453	70.41371882086167	71	127
70.32086167800453	70.41371882086167	64	127
70.32086167800453	70.41371882086167	80	127
70.32086167800453	70.41371882086167	74	127
70.51820861678004	70.61111111111111	71	127
70.51820861678004	70.61111111111111	65	127
70.51820861678004	70.61111111111111	81	127
70.51820861678004	70.61111111111111	74	127
70.70399092970521	70.80848072562358	80	127
70.70399092970521	70.80848072562358	74	127
70.70399092970521	70.80848072562358	71	127
70.70399092970521	70.80848072562358	64	127
70.90133786848072	70.9942403628118	71	127
70.90133786848072	70.9942403628118	64	127
70.90133786848072	70.9942403628118	80	127
70.90133786848072	70.9942403628118	74	127
71.0871201814059	71.18	81	127
71.0871201814059	71.18	74	127
71.0871201814059	71.18	71	127
71.0871201814059	71.18	65	127
71.22643990929706	71.31931972789116	74	127
71.22643990929706	71.31931972789116	71	127
71.22643990929706	71.31931972789116	64	127
71.22643990929706	71.31931972789116	80	127
71.400589569161	71.50507936507937	71	127
71.400589569161	71.50507936507937	64	127
71.400589569161	71.50507936507937	80	127
71.400589569161	71.50507936507937	74	127
71.58634920634921	71.66759637188208	71	127
71.58634920634921	71.66759637188208	65	127
71.58634920634921	71.66759637188208	81	127
71.58634920634921	71.66759637188208	74	127
71.76049886621315	71.99269841269842	71	127
71.76049886621315	71.99269841269842	80	127
71.76049886621315	71.99269841269842	74	127
71.76049886621315	71.99269841269842	64	127
72.3758276643991	72.92147392290249	88	127
72.3758276643991	72.92147392290249	76	127
72.92147392290249	73.50199546485261	79	127
72.92147392290249	73.50199546485261	91	127
73.50199546485261	74.04766439909297	88	127
73.50199546485261	74.04766439909297	76	127
74.04766439909297	74.65138321995465	93	127
74.04766439909297	74.65138321995465	81	127
74.65138321995465	74.72104308390023	69	127
74.65138321995465	74.72104308390023	78	127
74.65138321995465	74.72104308390023	72	127
74.65138321995465	74.72104308390023	62	127
74.8255328798186	74.9184126984127	69	127
74.8255328798186	74.9184126984127	62	127
74.8255328798186	74.9184126984127	78	127
74.8255328798186	74.9184126984127	72	127
75.02290249433106	75.11578231292518	69	127
75.02290249433106	75.11578231292518	63	127
75.02290249433106	75.11578231292518	79	127
75.02290249433106	75.11578231292518	72	127
75.17383219954648	75.27832199546485	72	127
75.17383219954648	75.27832199546485	69	127
75.17383219954648	75.27832199546485	62	127
75.17383219954648	75.27832199546485	78	127
75.37120181405896	75.46408163265306	69	127
75.37120181405896	75.46408163265306	62	127
75.37120181405896	75.46408163265306	78	127
75.37120181405896	75.46408163265306	72	127
75.5453514739229	75.62662131519275	69	127
75.5453514739229	75.62662131519275	63	127
75.5453514739229	75.62662131519275	79	127
75.5453514739229	75.62662131519275	72	127
75.69628117913832	75.78916099773242	78	127
75.69628117913832	75.78916099773242	72	127
75.69628117913832	75.78916099773242	69	127
75.69628117913832	75.78916099773242	62	127
75.88204081632654	75.99814058956916	69	127
75.88204081632654	75.99814058956916	62	127
75.88204081632654	75.99814058956916	78	127
75.88204081632654	75.99814058956916	72	127
76.0909977324263	76.1722902494331	69	127
76.0909977324263	76.1722902494331	63	127
76.0909977324263	76.1722902494331	79	127
76.0909977324263	76.1722902494331	72	127
76.23034013605442	76.42770975056689	62	127
76.23034013605442	76.42770975056689	78	127
76.23034013605442	76.42770975056689	72	127
76.23034013605442	76.42770975056689	69	127
76.84566893424036	77.42616780045351	86	127
76.84566893424036	77.42616780045351	74	127
77.42616780045351	78.01827664399093	89	127
77.42616780045351	78.01827664399093	77	127
78.01827664399093	78.58716553287982	74	127
78.01827664399093	78.58716553287982	86	127
78.58716553287982	79.13283446712018	79	127
78.58716553287982	79.13283446712018	91	127
79.13283446712018	79.33020408163266	88	127
79.13283446712018	79.33020408163266	76	127
79.7249433106576	79.93392290249433	85	127
79.7249433106576	79.93392290249433	76	127
79.7249433106576	79.93392290249433	73	127
79.7249433106576	79.93392290249433	69	127
79.93392290249433	80.1312925170068	85	127
79.93392290249433	80.1312925170068	76	127
79.93392290249433	80.1312925170068	73	127
79.93392290249433	80.1312925170068	69	127
80.1312925170068	80.31705215419501	85	127
80.1312925170068	80.31705215419501	76	127
80.1312925170068	80.31705215419501	73	127
80.1312925170068	80.31705215419501	69	127
80.31705215419501	80.50281179138322	62	127
80.31705215419501	80.50281179138322	66	127
80.31705215419501	80.50281179138322	71	127
80.31705215419501	80.50281179138322	78	127
80.31705215419501	80.50281179138322	83	127
80.8859410430839	81.07170068027212	80	127
80.8859410430839	81.07170068027212	74	127
80.8859410430839	81.07170068027212	71	127
80.8859410430839	81.07170068027212	64	127
81.07170068027212	81.26907029478458	80	127
81.07170068027212	81.26907029478458	74	127
81.07170068027212	81.26907029478458	71	127
81.07170068027212	81.26907029478458	64	127
81.26907029478458	81.48965986394558	80	127
81.26907029478458	81.48965986394558	74	127
81.26907029478458	81.48965986394558	71	127
81.26907029478458	81.48965986394558	64	127
82.67387755102041	82.88285714285715	45	127
82.67387755102041	82.88285714285715	49	127
82.67387755102041	82.88285714285715	52	127
82.67387755102041	82.88285714285715	57	127
82.67387755102041	82.88285714285715	64	127
82.67387755102041	82.88285714285715	61	127
83.27759637188208	83.45172335600907	45	127
83.27759637188208	83.45172335600907	50	127
83.27759637188208	83.45172335600907	54	127
83.27759637188208	83.45172335600907	57	127
83.27759637188208	83.45172335600907	66	127
83.27759637188208	83.45172335600907	62	127
83.84648526077098	84.07868480725624	56	127
83.84648526077098	84.07868480725624	52	127
83.84648526077098	84.07868480725624	45	127
83.84648526077098	84.07868480725624	64	127
83.84648526077098	84.07868480725624	68	127
83.84648526077098	84.07868480725624	62	127
84.07868480725624	84.33410430839002	56	127
84.07868480725624	84.33410430839002	52	127
84.07868480725624	84.33410430839002	45	127
84.07868480725624	84.33410430839002	64	127
84.07868480725624	84.33410430839002	68	127
84.07868480725624	84.33410430839002	62	127
84.33410430839002	84.51986394557824	56	127
84.33410430839002	84.51986394557824	52	127
84.33410430839002	84.51986394557824	45	127
84.33410430839002	84.51986394557824	64	127
84.33410430839002	84.51986394557824	68	127
84.33410430839002	84.51986394557824	62	127
84.51986394557824	84.70562358276644	69	127
84.51986394557824	84.70562358276644	64	127
84.51986394557824	84.70562358276644	61	127
84.51986394557824	84.70562358276644	57	127
84.51986394557824	84.70562358276644	52	127
84.51986394557824	84.70562358276644	45	127
84.8101133786848	84.91460317460317	81	127
84.91460317460317	85.00748299319729	78	127
85.00748299319729	85.08875283446712	76	127
85.08875283446712	85.17002267573696	69	127
85.08875283446712	85.17002267573696	75	127
85.08875283446712	85.17002267573696	66	127
85.2512925170068	85.35578231292517	69	127
85.2512925170068	85.35578231292517	66	127
85.2512925170068	85.35578231292517	75	127
85.44866213151927	85.55315192743764	75	127
85.44866213151927	85.55315192743764	69	127
85.44866213151927	85.55315192743764	66	127
85.65764172335601	86.27297052154195	74	127
85.65764172335601	86.27297052154195	83	127
85.65764172335601	86.27297052154195	64	127
85.65764172335601	86.27297052154195	68	127
86.27297052154195	86.3542403628118	75	127
86.27297052154195	86.3542403628118	69	127
86.27297052154195	86.3542403628118	66	127
86.4471201814059	86.51675736961451	69	127
86.4471201814059	86.51675736961451	75	127
86.4471201814059	86.51675736961451	66	127
86.62124716553288	86.7257596371882	69	127
86.62124716553288	86.7257596371882	75	127
86.62124716553288	86.7257596371882	66	127
86.81863945578232	87.36430839002267	83	127
86.81863945578232	87.36430839002267	64	127
86.81863945578232	87.36430839002267	68	127
86.81863945578232	87.36430839002267	74	127
87.36430839002267	87.57328798185941	80	127
87.36430839002267	87.57328798185941	71	127
87.36430839002267	87.57328798185941	62	127
87.36430839002267	87.57328798185941	64	127
88.00285714285714	88.1073469387755	81	127
88.00285714285714	88.1073469387755	76	127
88.00285714285714	88.1073469387755	69	127
88.00285714285714	88.1073469387755	61	127
88.00285714285714	88.1073469387755	64	127
88.20022675736962	88.30471655328799	81	127
88.20022675736962	88.30471655328799	76	127
88.20022675736962	88.30471655328799	69	127
88.20022675736962	88.30471655328799	64	127
88.20022675736962	88.30471655328799	61	127
88.39759637188209	88.50208616780046	81	127
88.39759637188209	88.50208616780046	76	127
88.39759637188209	88.50208616780046	69	127
88.39759637188209	88.50208616780046	64	127
88.39759637188209	88.50208616780046	61	127
88.59496598639456	88.80394557823129	62	127
88.59496598639456	88.80394557823129	64	127
88.59496598639456	88.80394557823129	71	127
88.59496598639456	88.80394557823129	80	127
89.17544217687075	89.27995464852607	81	127
89.17544217687075	89.27995464852607	76	127
89.17544217687075	89.27995464852607	69	127
89.17544217687075	89.27995464852607	64	127
89.17544217687075	89.27995464852607	61	127
89.36122448979592	89.45410430839003	81	127
89.36122448979592	89.45410430839003	76	127
89.36122448979592	89.45410430839003	69	127
89.36122448979592	89.45410430839003	64	127
89.36122448979592	89.45410430839003	61	127
89.5237641723356	89.6166439909297	81	127
89.5237641723356	89.6166439909297	76	127
89.5237641723356	89.6166439909297	69	127
89.5237641723356	89.6166439909297	64	127
89.5237641723356	89.6166439909297	61	127
89.69791383219955	89.89528344671201	57	127
89.69791383219955	89.89528344671201	64	127
89.69791383219955	89.89528344671201	69	127
89.69791383219955	89.89528344671201	73	127
89.69791383219955	89.89528344671201	76	127
89.69791383219955	89.89528344671201	85	127
90.10426303854875	90.29002267573696	83	127
90.10426303854875	90.29002267573696	77	127
90.10426303854875	90.29002267573696	73	127
90.10426303854875	90.29002267573696	65	127
90.10426303854875	90.29002267573696	61	127
90.10426303854875	90.29002267573696	56	127
90.29002267573696	90.47578231292518	54	127
90.29002267573696	90.47578231292518	61	127
90.29002267573696	90.47578231292518	66	127
90.29002267573696	90.47578231292518	73	127
90.29002267573696	90.47578231292518	78	127
90.29002267573696	90.47578231292518	81	127
90.67315192743764	90.84730158730159	79	127
90.67315192743764	90.84730158730159	69	127
90.67315192743764	90.84730158730159	73	127
90.67315192743764	90.84730158730159	61	127
90.67315192743764	90.84730158730159	57	127
90.67315192743764	90.84730158730159	52	127
90.84730158730159	91.04467120181405	50	127
90.84730158730159	91.04467120181405	57	127
90.84730158730159	91.04467120181405	62	127
90.84730158730159	91.04467120181405	69	127
90.84730158730159	91.04467120181405	74	127
90.84730158730159	91.04467120181405	78	127
91.23043083900227	91.39297052154195	76	127
91.23043083900227	91.39297052154195	70	127
91.23043083900227	91.39297052154195	66	127
91.23043083900227	91.39297052154195	58	127
91.23043083900227	91.39297052154195	54	127
91.23043083900227	91.39297052154195	49	127
91.39297052154195	91.54390022675737	47	127
91.39297052154195	91.54390022675737	54	127
91.39297052154195	91.54390022675737	59	127
91.39297052154195	91.54390022675737	66	127
91.39297052154195	91.54390022675737	71	127
91.39297052154195	91.54390022675737	74	127
91.74126984126984	91.92702947845805	73	127
91.74126984126984	91.92702947845805	69	127
91.74126984126984	91.92702947845805	61	127
91.74126984126984	91.92702947845805	57	127
91.74126984126984	91.92702947845805	51	127
91.92702947845805	92.14761904761905	52	127
91.92702947845805	92.14761904761905	57	127
91.92702947845805	92.14761904761905	59	127
91.92702947845805	92.14761904761905	66	127
91.92702947845805	92.14761904761905	69	127
91.92702947845805	92.14761904761905	71	127
92.34496598639456	92.51913832199547	76	127
92.34496598639456	92.51913832199547	71	127
92.34496598639456	92.51913832199547	68	127
92.34496598639456	92.51913832199547	62	127
92.34496598639456	92.51913832199547	59	127
92.34496598639456	92.51913832199547	52	127
92.51913832199547	92.60038548752834	64	127
92.51913832199547	92.60038548752834	69	127
92.51913832199547	92.60038548752834	61	127
92.51913832199547	92.60038548752834	57	127
92.51913832199547	92.60038548752834	73	127
92.69328798185941	92.79777777777778	61	127
92.69328798185941	92.79777777777778	57	127
92.69328798185941	92.79777777777778	64	127
92.69328798185941	92.79777777777778	73	127
92.87904761904763	92.9487074829932	61	127
92.87904761904763	92.9487074829932	57	127
92.87904761904763	92.9487074829932	64	127
92.87904761904763	92.9487074829932	76	127
93.05319727891157	93.2621768707483	71	127
93.05319727891157	93.2621768707483	64	127
93.05319727891157	93.2621768707483	62	127
93.05319727891157	93.2621768707483	56	127
93.05319727891157	93.2621768707483	52	127
93.69174603174604	93.77301587301588	69	127
93.69174603174604	93.77301587301588	73	127
93.69174603174604	93.77301587301588	76	127
93.69174603174604	93.77301587301588	85	127
93.87748299319728	94.00519274376417	69	127
93.87748299319728	94.00519274376417	73	127
93.87748299319728	94.00519274376417	76	127
93.87748299319728	94.00519274376417	85	127
94.09809523809524	94.15614512471656	69	127
94.09809523809524	94.15614512471656	73	127
94.09809523809524	94.15614512471656	76	127
94.09809523809524	94.15614512471656	88	127
94.26061224489796	94.44639455782313	83	127
94.26061224489796	94.44639455782313	76	127
94.26061224489796	94.44639455782313	74	127
94.26061224489796	94.44639455782313	64	127
94.26061224489796	94.44639455782313	68	127
94.79469387755103	94.85274376417233	69	127
94.79469387755103	94.85274376417233	73	127
94.79469387755103	94.85274376417233	81	127
94.79469387755103	94.85274376417233	85	127
94.94562358276644	95.05011337868481	69	127
94.94562358276644	95.05011337868481	76	127
94.94562358276644	95.05011337868481	81	127
94.94562358276644	95.05011337868481	85	127
95.14299319727891	95.22426303854876	88	127
95.14299319727891	95.22426303854876	69	127
95.14299319727891	95.22426303854876	76	127
95.14299319727891	95.22426303854876	81	127
95.14299319727891	95.22426303854876	85	127
95.3055328798186	95.42163265306122	93	127
95.3055328798186	95.42163265306122	88	127
95.3055328798186	95.42163265306122	85	127
95.3055328798186	95.42163265306122	81	127
95.3055328798186	95.42163265306122	76	127
95.3055328798186	95.42163265306122	73	127
95.3055328798186	95.42163265306122	69	127
97.99904761904762	98.53310657596371	71	127
97.99904761904762	98.53310657596371	83	127
98.53310657596371	98.74208616780045	74	127
98.53310657596371	98.74208616780045	86	127
98.74208616780045	98.9162358276644	86	127
98.74208616780045	98.9162358276644	74	127
99.06716553287981	99.1948752834467	76	127
99.06716553287981	99.1948752834467	88	127
99.31097505668934	99.43868480725624	78	127
99.31097505668934	99.43868480725624	90	127
99.56639455782313	99.58961451247166	81	127
99.56639455782313	99.58961451247166	93	127
99.58961451247166	99.71732426303855	79	127
99.58961451247166	99.71732426303855	91	127
99.82181405895692	99.93791383219954	78	127
99.82181405895692	99.93791383219954	90	127
100.05401360544218	100.15850340136055	91	127
100.05401360544218	100.15850340136055	79	127
100.26299319727892	100.7041723356009	95	127
100.26299319727892	100.7041723356009	83	127
100.7041723356009	100.92476190476191	93	127
100.7041723356009	100.92476190476191	81	127
100.92476190476191	101.35433106575964	83	127
100.92476190476191	101.35433106575964	95	127
101.35433106575964	101.57492063492063	93	127
101.35433106575964	101.57492063492063	81	127
101.57492063492063	101.79551020408164	78	127
101.57492063492063	101.79551020408164	90	127
105.11596371882086	105.59197278911564	73	127
105.11596371882086	105.59197278911564	76	127
105.11596371882086	105.59197278911564	85	127
105.11596371882086	105.59197278911564	88	127
105.59197278911564	105.68485260770976	85	127
105.59197278911564	105.68485260770976	81	127
105.59197278911564	105.68485260770976	73	127
105.59197278911564	105.68485260770976	69	127
105.81256235827665	106.2653514739229	73	127
105.81256235827665	106.2653514739229	69	127
105.81256235827665	106.2653514739229	85	127
105.81256235827665	106.2653514739229	81	127
106.2653514739229	106.38145124716553	81	127
106.2653514739229	106.38145124716553	76	127
106.2653514739229	106.38145124716553	69	127
106.2653514739229	106.38145124716553	64	127
106.4859410430839	106.59043083900227	62	127
106.4859410430839	106.59043083900227	74	127
106.7065306122449	106.82263038548753	75	127
106.7065306122449	106.82263038548753	63	127
106.9271201814059	107.04321995464852	76	127
106.9271201814059	107.04321995464852	64	127
107.14770975056689	107.40312925170068	57	127
107.14770975056689	107.40312925170068	69	127
109.3419954648526	109.80639455782313	83	127
109.3419954648526	109.80639455782313	71	127
109.80639455782313	110.03859410430839	86	127
109.80639455782313	110.03859410430839	74	127
110.03859410430839	110.15469387755103	74	127
110.03859410430839	110.15469387755103	86	127
110.28240362811792	110.37528344671202	88	127
110.28240362811792	110.37528344671202	76	127
110.49138321995464	110.61909297052154	78	127
110.49138321995464	110.61909297052154	90	127
110.70036281179138	110.7235827664399	81	127
110.70036281179138	110.7235827664399	93	127
110.7235827664399	110.83968253968254	79	127
110.7235827664399	110.83968253968254	91	127
110.94417233560091	111.06027210884353	90	127
110.94417233560091	111.06027210884353	78	127
111.1647619047619	111.2924716553288	91	127
111.1647619047619	111.2924716553288	79	127
111.40857142857143	111.81492063492064	95	127
111.40857142857143	111.81492063492064	83	127
111.81492063492064	112.02390022675738	93	127
111.81492063492064	112.02390022675738	81	127
112.02390022675738	112.46507936507936	83	127
112.02390022675738	112.46507936507936	95	127
112.46507936507936	112.69727891156462	81	127
112.46507936507936	112.69727891156462	93	127
112.69727891156462	112.91786848072563	78	127
112.69727891156462	112.91786848072563	90	127
116.0990022675737	116.55179138321995	76	127
116.0990022675737	116.55179138321995	85	127
116.0990022675737	116.55179138321995	88	127
116.0990022675737	116.55179138321995	73	127
116.55179138321995	116.67950113378684	69	127
116.55179138321995	116.67950113378684	85	127
116.55179138321995	116.67950113378684	81	127
116.55179138321995	116.67950113378684	73	127
116.80721088435374	117.26	85	127
116.80721088435374	117.26	73	127
116.80721088435374	117.26	69	127
116.80721088435374	117.26	81	127
117.26	117.3877097505669	81	127
117.26	117.3877097505669	76	127
117.26	117.3877097505669	64	127
117.26	117.3877097505669	69	127
117.480589569161	117.5734693877551	62	127
117.480589569161	117.5734693877551	74	127
117.67795918367347	117.74761904761905	63	127
117.67795918367347	117.74761904761905	75	127
117.85210884353741	117.9798185941043	64	127
117.85210884353741	117.9798185941043	76	127
118.1075283446712	118.3281179138322	57	127
118.1075283446712	118.3281179138322	69	127
118.60675736961451	118.8273469387755	85	127
118.60675736961451	118.8273469387755	81	127
118.8273469387755	119.29174603174603	85	127
118.8273469387755	119.29174603174603	81	127
119.29174603174603	119.53555555555556	83	127
119.29174603174603	119.53555555555556	77	127
119.53555555555556	119.96512471655329	77	127
119.53555555555556	119.96512471655329	83	127
119.96512471655329	120.18571428571428	81	127
119.96512471655329	120.18571428571428	78	127
120.18571428571428	120.39469387755102	78	127
120.18571428571428	120.39469387755102	81	127
124.26081632653062	124.5162358276644	86	127
124.26081632653062	124.5162358276644	74	127
124.5162358276644	124.99224489795918	86	127
124.5162358276644	124.99224489795918	74	127
124.99224489795918	125.22444444444444	83	127
124.99224489795918	125.22444444444444	71	127
125.22444444444444	125.70045351473922	83	127
125.22444444444444	125.70045351473922	71	127
125.70045351473922	125.94426303854875	76	127
125.70045351473922	125.94426303854875	88	127
125.94426303854875	126.47832199546485	74	127
125.94426303854875	126.47832199546485	86	127
127.17492063492064	127.43034013605443	86	127
127.17492063492064	127.43034013605443	74	127
127.43034013605443	127.96439909297052	86	127
127.43034013605443	127.96439909297052	74	127
127.96439909297052	128.19657596371883	83	127
127.96439909297052	128.19657596371883	71	127
128.19657596371883	128.6609977324263	83	127
128.19657596371883	128.6609977324263	71	127
128.6609977324263	128.8815873015873	88	127
128.6609977324263	128.8815873015873	76	127
128.8815873015873	129.33437641723356	86	127
128.8815873015873	129.33437641723356	74	127
130.00775510204082	130.3560544217687	89	127
130.00775510204082	130.3560544217687	77	127
130.3560544217687	130.7624036281179	77	127
130.3560544217687	130.7624036281179	89	127
130.7624036281179	130.98299319727892	86	127
130.7624036281179	130.98299319727892	74	127
130.98299319727892	131.50544217687076	86	127
130.98299319727892	131.50544217687076	74	127
131.50544217687076	131.78408163265306	91	127
131.50544217687076	131.78408163265306	79	127
131.78408163265306	132.5271201814059	72	127
131.78408163265306	132.5271201814059	84	127
132.5271201814059	132.74770975056688	75	127
132.5271201814059	132.74770975056688	87	127
132.74770975056688	133.01473922902494	74	127
132.74770975056688	133.01473922902494	86	127
133.01473922902494	133.27015873015873	84	127
133.01473922902494	133.27015873015873	72	127
133.27015873015873	133.66487528344672	89	127
133.27015873015873	133.66487528344672	77	127
133.66487528344672	133.88548752834467	74	127
133.66487528344672	133.88548752834467	86	127
133.88548752834467	134.3266439909297	86	127
133.88548752834467	134.3266439909297	74	127
134.3266439909297	134.54725623582766	91	127
134.3266439909297	134.54725623582766	79	127
134.54725623582766	135.24385487528346	72	127
134.54725623582766	135.24385487528346	84	127
135.24385487528346	135.45281179138323	75	127
135.24385487528346	135.45281179138323	87	127
135.45281179138323	135.708231292517	86	127
135.45281179138323	135.708231292517	74	127
135.708231292517	135.98689342403628	72	127
135.708231292517	135.98689342403628	84	127
135.98689342403628	136.2307029478458	62	127
135.98689342403628	136.2307029478458	58	127
135.98689342403628	136.2307029478458	65	127
135.98689342403628	136.2307029478458	70	127
135.98689342403628	136.2307029478458	74	127
135.98689342403628	136.2307029478458	77	127
135.98689342403628	136.2307029478458	80	127
135.98689342403628	136.2307029478458	86	127
136.6718820861678	136.86925170068028	58	127
136.6718820861678	136.86925170068028	62	127
136.6718820861678	136.86925170068028	65	127
136.6718820861678	136.86925170068028	70	127
136.6718820861678	136.86925170068028	74	127
136.6718820861678	136.86925170068028	77	127
136.6718820861678	136.86925170068028	80	127
136.6718820861678	136.86925170068028	86	127
137.28721088435375	137.519410430839	58	127
137.28721088435375	137.519410430839	62	127
137.28721088435375	137.519410430839	65	127
137.28721088435375	137.519410430839	70	127
137.28721088435375	137.519410430839	74	127
137.28721088435375	137.519410430839	77	127
137.28721088435375	137.519410430839	80	127
137.28721088435375	137.519410430839	86	127
137.94897959183675	138.15795918367348	58	127
137.94897959183675	138.15795918367348	62	127
137.94897959183675	138.15795918367348	65	127
137.94897959183675	138.15795918367348	70	127
137.94897959183675	138.15795918367348	74	127
137.94897959183675	138.15795918367348	77	127
137.94897959183675	138.15795918367348	80	127
137.94897959183675	138.15795918367348	86	127
138.5875283446712	138.78489795918367	62	127
138.5875283446712	138.78489795918367	86	127
138.5875283446712	138.78489795918367	57	127
138.5875283446712	138.78489795918367	66	127
138.5875283446712	138.78489795918367	69	127
138.5875283446712	138.78489795918367	90	127
138.5875283446712	138.78489795918367	81	127
138.5875283446712	138.78489795918367	78	127
139.2144671201814	139.42344671201815	62	127
139.2144671201814	139.42344671201815	86	127
139.2144671201814	139.42344671201815	57	127
139.2144671201814	139.42344671201815	66	127
139.2144671201814	139.42344671201815	69	127
139.2144671201814	139.42344671201815	90	127
139.2144671201814	139.42344671201815	81	127
139.2144671201814	139.42344671201815	78	127
139.6904761904762	139.85301587301586	57	127
139.6904761904762	139.85301587301586	64	127
139.6904761904762	139.85301587301586	67	127
139.6904761904762	139.85301587301586	69	127
139.6904761904762	139.85301587301586	81	127
139.6904761904762	139.85301587301586	85	127
139.6904761904762	139.85301587301586	88	127
139.6904761904762	139.85301587301586	93	127
140.01555555555555	140.23614512471656	57	127
140.01555555555555	140.23614512471656	64	127
140.01555555555555	140.23614512471656	67	127
140.01555555555555	140.23614512471656	69	127
140.01555555555555	140.23614512471656	81	127
140.01555555555555	140.23614512471656	85	127
140.01555555555555	140.23614512471656	88	127
140.01555555555555	140.23614512471656	93	127
144.40412698412698	144.845306122449	98	127
144.40412698412698	144.845306122449	86	127
144.845306122449	145.06589569160997	95	127
144.845306122449	145.06589569160997	83	127
145.06589569160997	145.11231292517007	93	127
145.06589569160997	145.11231292517007	81	127
145.11231292517007	145.1587755102041	95	127
145.11231292517007	145.1587755102041	83	127
145.1587755102041	145.21680272108844	93	127
145.1587755102041	145.21680272108844	81	127
145.21680272108844	145.2748752834467	83	127
145.21680272108844	145.2748752834467	95	127
145.2748752834467	145.33292517006802	93	127
145.2748752834467	145.33292517006802	81	127
145.33292517006802	145.39097505668934	95	127
145.33292517006802	145.39097505668934	83	127
145.39097505668934	145.4374149659864	93	127
145.39097505668934	145.4374149659864	81	127
145.4374149659864	145.4954648526077	95	127
145.4374149659864	145.4954648526077	83	127
145.4954648526077	145.55351473922903	93	127
145.4954648526077	145.55351473922903	81	127
145.55351473922903	145.61156462585035	95	127
145.55351473922903	145.61156462585035	83	127
145.61156462585035	145.69283446712018	93	127
145.61156462585035	145.69283446712018	81	127
145.69283446712018	145.73927437641723	95	127
145.69283446712018	145.73927437641723	83	127
145.73927437641723	145.79732426303855	93	127
145.73927437641723	145.79732426303855	81	127
145.79732426303855	145.85537414965987	95	127
145.79732426303855	145.85537414965987	83	127
145.85537414965987	145.90181405895692	93	127
145.85537414965987	145.90181405895692	81	127
145.90181405895692	145.95986394557823	95	127
145.90181405895692	145.95986394557823	83	127
145.95986394557823	146.00630385487528	93	127
145.95986394557823	146.00630385487528	81	127
146.00630385487528	146.0643537414966	95	127
146.00630385487528	146.0643537414966	83	127
146.0643537414966	146.12240362811792	93	127
146.0643537414966	146.12240362811792	81	127
146.12240362811792	146.18045351473924	95	127
146.12240362811792	146.18045351473924	83	127
146.18045351473924	146.2384807256236	93	127
146.18045351473924	146.2384807256236	81	127
146.2384807256236	146.29655328798185	95	127
146.2384807256236	146.29655328798185	83	127
146.29655328798185	146.34297052154196	93	127
146.29655328798185	146.34297052154196	81	127
146.34297052154196	146.4126530612245	95	127
146.34297052154196	146.4126530612245	83	127
146.4126530612245	146.4707029478458	93	127
146.4126530612245	146.4707029478458	81	127
146.4707029478458	146.52875283446713	95	127
146.4707029478458	146.52875283446713	83	127
146.52875283446713	146.59839002267574	93	127
146.52875283446713	146.59839002267574	81	127
146.59839002267574	146.6448299319728	95	127
146.59839002267574	146.6448299319728	83	127
146.6448299319728	146.70290249433106	93	127
146.6448299319728	146.70290249433106	81	127
146.70290249433106	146.76095238095238	95	127
146.70290249433106	146.76095238095238	83	127
146.76095238095238	146.8190022675737	93	127
146.76095238095238	146.8190022675737	81	127
146.8190022675737	146.877052154195	95	127
146.8190022675737	146.877052154195	83	127
146.877052154195	146.92349206349206	81	127
146.877052154195	146.92349206349206	93	127
146.92349206349206	146.98154195011338	95	127
146.92349206349206	146.98154195011338	83	127
146.98154195011338	147.0395918367347	93	127
146.98154195011338	147.0395918367347	81	127
147.0395918367347	147.10922902494332	95	127
147.0395918367347	147.10922902494332	83	127
147.10922902494332	147.16730158730158	93	127
147.10922902494332	147.16730158730158	81	127
147.16730158730158	147.24857142857144	95	127
147.16730158730158	147.24857142857144	83	127
147.24857142857144	147.2950113378685	93	127
147.24857142857144	147.2950113378685	81	127
147.2950113378685	147.3530612244898	95	127
147.2950113378685	147.3530612244898	83	127
147.3530612244898	147.41108843537415	93	127
147.3530612244898	147.41108843537415	81	127
147.41108843537415	147.46916099773242	95	127
147.41108843537415	147.46916099773242	83	127
147.46916099773242	147.51557823129252	93	127
147.46916099773242	147.51557823129252	81	127
147.51557823129252	147.55043083900227	95	127
147.51557823129252	147.55043083900227	83	127
147.55043083900227	147.78263038548752	62	127
147.55043083900227	147.78263038548752	74	127
147.55043083900227	147.78263038548752	81	127
147.55043083900227	147.78263038548752	90	127
147.78263038548752	148.25863945578232	90	127
147.78263038548752	148.25863945578232	81	127
147.78263038548752	148.25863945578232	74	127
147.78263038548752	148.25863945578232	62	127
148.25863945578232	148.46761904761905	73	127
148.25863945578232	148.46761904761905	66	127
148.25863945578232	148.46761904761905	82	127
148.25863945578232	148.46761904761905	88	127
148.46761904761905	148.89716553287982	82	127
148.46761904761905	148.89716553287982	88	127
148.46761904761905	148.89716553287982	73	127
148.46761904761905	148.89716553287982	66	127
148.89716553287982	149.12938775510204	71	127
148.89716553287982	149.12938775510204	74	127
148.89716553287982	149.12938775510204	86	127
148.89716553287982	149.12938775510204	83	127
149.12938775510204	149.60539682539684	86	127
149.12938775510204	149.60539682539684	83	127
149.12938775510204	149.60539682539684	74	127
149.12938775510204	149.60539682539684	71	127
149.60539682539684	149.744716553288	83	127
149.60539682539684	149.744716553288	91	127
149.60539682539684	149.744716553288	67	127
149.60539682539684	149.744716553288	74	127
149.744716553288	150.38326530612244	67	127
149.744716553288	150.38326530612244	74	127
149.744716553288	150.38326530612244	83	127
149.744716553288	150.38326530612244	91	127
150.38326530612244	150.4877551020408	90	127
150.38326530612244	150.4877551020408	74	127
150.38326530612244	150.4877551020408	81	127
150.38326530612244	150.4877551020408	69	127
150.61546485260772	150.73156462585035	88	127
150.61546485260772	150.73156462585035	76	127
150.61546485260772	150.73156462585035	81	127
150.61546485260772	150.73156462585035	69	127
150.85927437641723	150.9637641723356	69	127
150.85927437641723	150.9637641723356	86	127
150.85927437641723	150.9637641723356	81	127
150.85927437641723	150.9637641723356	78	127
151.0566439909297	151.1495238095238	69	127
151.0566439909297	151.1495238095238	81	127
151.0566439909297	151.1495238095238	85	127
151.0566439909297	151.1495238095238	79	127
151.26562358276644	151.34687074829932	78	127
151.26562358276644	151.34687074829932	69	127
151.26562358276644	151.34687074829932	81	127
151.26562358276644	151.34687074829932	86	127
151.4397732426304	151.5326530612245	76	127
151.4397732426304	151.5326530612245	69	127
151.4397732426304	151.5326530612245	81	127
151.4397732426304	151.5326530612245	88	127
151.64875283446713	151.76485260770974	86	127
151.64875283446713	151.76485260770974	81	127
151.64875283446713	151.76485260770974	69	127
151.64875283446713	151.76485260770974	78	127
151.8693424036281	151.99705215419502	74	127
151.8693424036281	151.99705215419502	90	127
151.8693424036281	151.99705215419502	81	127
151.8693424036281	151.99705215419502	69	127
152.11315192743766	152.22925170068027	69	127
152.11315192743766	152.22925170068027	79	127
152.11315192743766	152.22925170068027	73	127
152.11315192743766	152.22925170068027	93	127
152.11315192743766	152.22925170068027	81	127
152.3453514739229	152.5659410430839	78	127
152.3453514739229	152.5659410430839	74	127
152.3453514739229	152.5659410430839	81	127
152.3453514739229	152.5659410430839	86	127
152.79814058956916	153.03034013605443	85	127
152.79814058956916	153.03034013605443	81	127
153.03034013605443	153.47151927437642	85	127
153.03034013605443	153.47151927437642	81	127
153.47151927437642	153.70369614512472	83	127
153.47151927437642	153.70369614512472	77	127
153.70369614512472	154.14489795918368	83	127
153.70369614512472	154.14489795918368	77	127
154.14489795918368	154.36546485260772	81	127
154.14489795918368	154.36546485260772	78	127
154.36546485260772	154.5744671201814	78	127
154.36546485260772	154.5744671201814	81	127
158.30124716553289	158.55666666666667	86	127
158.30124716553289	158.55666666666667	74	127
158.55666666666667	159.05591836734695	86	127
158.55666666666667	159.05591836734695	74	127
159.05591836734695	159.31133786848073	83	127
159.05591836734695	159.31133786848073	71	127
159.31133786848073	159.78732426303856	71	127
159.31133786848073	159.78732426303856	83	127
159.78732426303856	160.01954648526078	76	127
159.78732426303856	160.01954648526078	88	127
160.01954648526078	160.47233560090703	74	127
160.01954648526078	160.47233560090703	86	127
161.25020408163266	161.49401360544218	86	127
161.25020408163266	161.49401360544218	74	127
161.49401360544218	161.97002267573697	86	127
161.49401360544218	161.97002267573697	74	127
161.97002267573697	162.22544217687076	83	127
161.97002267573697	162.22544217687076	71	127
162.22544217687076	162.72467120181406	83	127
162.22544217687076	162.72467120181406	71	127
162.72467120181406	162.96848072562358	76	127
162.72467120181406	162.96848072562358	88	127
162.96848072562358	163.4096598639456	86	127
162.96848072562358	163.4096598639456	74	127
164.10625850340136	164.3384580498866	89	127
164.10625850340136	164.3384580498866	77	127
164.3384580498866	164.79122448979592	89	127
164.3384580498866	164.79122448979592	77	127
164.79122448979592	165.0466439909297	74	127
164.79122448979592	165.0466439909297	86	127
165.0466439909297	165.5691156462585	74	127
165.0466439909297	165.5691156462585	86	127
165.5691156462585	165.81292517006804	91	127
165.5691156462585	165.81292517006804	79	127
165.81292517006804	166.49791383219954	72	127
165.81292517006804	166.49791383219954	84	127
166.49791383219954	166.71850340136055	75	127
166.49791383219954	166.71850340136055	87	127
166.71850340136055	166.97392290249434	86	127
166.71850340136055	166.97392290249434	74	127
166.97392290249434	167.25256235827663	72	127
166.97392290249434	167.25256235827663	84	127
167.25256235827663	167.71696145124716	89	127
167.25256235827663	167.71696145124716	77	127
167.71696145124716	167.93755102040816	74	127
167.71696145124716	167.93755102040816	86	127
167.93755102040816	168.35551020408164	74	127
167.93755102040816	168.35551020408164	86	127
168.35551020408164	168.5877097505669	79	127
168.35551020408164	168.5877097505669	91	127
168.5877097505669	169.20303854875283	72	127
168.5877097505669	169.20303854875283	84	127
169.20303854875283	169.42362811791384	87	127
169.20303854875283	169.42362811791384	75	127
169.42362811791384	169.65582766439908	86	127
169.42362811791384	169.65582766439908	74	127
169.65582766439908	169.91124716553287	84	127
169.65582766439908	169.91124716553287	72	127
169.91124716553287	170.16666666666666	62	127
169.91124716553287	170.16666666666666	58	127
169.91124716553287	170.16666666666666	65	127
169.91124716553287	170.16666666666666	70	127
169.91124716553287	170.16666666666666	74	127
169.91124716553287	170.16666666666666	77	127
169.91124716553287	170.16666666666666	80	127
169.91124716553287	170.16666666666666	86	127
170.63106575963718	170.86326530612246	58	127
170.63106575963718	170.86326530612246	62	127
170.63106575963718	170.86326530612246	65	127
170.63106575963718	170.86326530612246	70	127
170.63106575963718	170.86326530612246	74	127
170.63106575963718	170.86326530612246	77	127
170.63106575963718	170.86326530612246	80	127
170.63106575963718	170.86326530612246	86	127
171.24639455782312	171.45537414965986	58	127
171.24639455782312	171.45537414965986	62	127
171.24639455782312	171.45537414965986	65	127
171.24639455782312	171.45537414965986	70	127
171.24639455782312	171.45537414965986	74	127
171.24639455782312	171.45537414965986	77	127
171.24639455782312	171.45537414965986	80	127
171.24639455782312	171.45537414965986	86	127
171.86172335600907	172.09392290249434	58	127
171.86172335600907	172.09392290249434	62	127
171.86172335600907	172.09392290249434	65	127
171.86172335600907	172.09392290249434	70	127
171.86172335600907	172.09392290249434	74	127
171.86172335600907	172.09392290249434	77	127
171.86172335600907	172.09392290249434	80	127
171.86172335600907	172.09392290249434	86	127
172.50027210884355	172.70925170068028	62	127
172.50027210884355	172.70925170068028	86	127
172.50027210884355	172.70925170068028	57	127
172.50027210884355	172.70925170068028	66	127
172.50027210884355	172.70925170068028	69	127
172.50027210884355	172.70925170068028	90	127
172.50027210884355	172.70925170068028	81	127
172.50027210884355	172.70925170068028	78	127
173.16204081632654	173.3942403628118	62	127
173.16204081632654	173.3942403628118	86	127
173.16204081632654	173.3942403628118	57	127
173.16204081632654	173.3942403628118	66	127
173.16204081632654	173.3942403628118	69	127
173.16204081632654	173.3942403628118	90	127
173.16204081632654	173.3942403628118	81	127
173.16204081632654	173.3942403628118	78	127
173.64965986394557	173.87024943310658	57	127
173.64965986394557	173.87024943310658	64	127
173.64965986394557	173.87024943310658	67	127
173.64965986394557	173.87024943310658	69	127
173.64965986394557	173.87024943310658	81	127
173.64965986394557	173.87024943310658	85	127
173.64965986394557	173.87024943310658	88	127
173.64965986394557	173.87024943310658	93	127
173.97473922902495	174.18371882086169	57	127
173.97473922902495	174.18371882086169	64	127
173.97473922902495	174.18371882086169	67	127
173.97473922902495	174.18371882086169	69	127
173.97473922902495	174.18371882086169	81	127
173.97473922902495	174.18371882086169	85	127
173.97473922902495	174.18371882086169	88	127
173.97473922902495	174.18371882086169	93	127
178.44455782312926	178.97863945578231	98	127
178.44455782312926	178.97863945578231	86	127
178.97863945578231	179.24566893424037	95	127
178.97863945578231	179.24566893424037	83	127
179.24566893424037	179.3037188208617	93	127
179.24566893424037	179.3037188208617	81	127
179.3037188208617	179.35015873015874	95	127
179.3037188208617	179.35015873015874	83	127
179.35015873015874	179.40820861678006	93	127
179.35015873015874	179.40820861678006	81	127
179.40820861678006	179.4662358276644	95	127
179.40820861678006	179.4662358276644	83	127
179.4662358276644	179.51269841269843	93	127
179.4662358276644	179.51269841269843	81	127
179.51269841269843	179.582358276644	95	127
179.51269841269843	179.582358276644	83	127
179.582358276644	179.6404081632653	93	127
179.582358276644	179.6404081632653	81	127
179.6404081632653	179.69845804988663	95	127
179.6404081632653	179.69845804988663	83	127
179.69845804988663	179.74489795918367	93	127
179.69845804988663	179.74489795918367	81	127
179.74489795918367	179.802947845805	95	127
179.74489795918367	179.802947845805	83	127
179.802947845805	179.84938775510204	93	127
179.802947845805	179.84938775510204	81	127
179.84938775510204	179.90743764172336	95	127
179.84938775510204	179.90743764172336	83	127
179.90743764172336	179.96548752834468	93	127
179.90743764172336	179.96548752834468	81	127
179.96548752834468	180.023537414966	95	127
179.96548752834468	180.023537414966	83	127
180.023537414966	180.08156462585035	93	127
180.023537414966	180.08156462585035	81	127
180.08156462585035	180.1280045351474	95	127
180.08156462585035	180.1280045351474	83	127
180.1280045351474	180.18607709750566	93	127
180.1280045351474	180.18607709750566	81	127
180.18607709750566	180.24412698412698	95	127
180.18607709750566	180.24412698412698	83	127
180.24412698412698	180.3021768707483	93	127
180.24412698412698	180.3021768707483	81	127
180.3021768707483	180.34861678004535	95	127
180.3021768707483	180.34861678004535	83	127
180.34861678004535	180.3950566893424	93	127
180.34861678004535	180.3950566893424	81	127
180.3950566893424	180.45310657596372	95	127
180.3950566893424	180.45310657596372	83	127
180.45310657596372	180.51115646258503	93	127
180.45310657596372	180.51115646258503	81	127
180.51115646258503	180.56920634920635	95	127
180.51115646258503	180.56920634920635	83	127
180.56920634920635	180.62725623582767	93	127
180.56920634920635	180.62725623582767	81	127
180.62725623582767	180.67369614512472	95	127
180.62725623582767	180.67369614512472	83	127
180.67369614512472	180.73174603174604	93	127
180.67369614512472	180.73174603174604	81	127
180.73174603174604	180.78979591836736	95	127
180.73174603174604	180.78979591836736	83	127
180.78979591836736	180.8478231292517	93	127
180.78979591836736	180.8478231292517	81	127
180.8478231292517	180.90589569160997	95	127
180.8478231292517	180.90589569160997	83	127
180.90589569160997	180.9639455782313	93	127
180.90589569160997	180.9639455782313	81	127
180.9639455782313	181.0219954648526	95	127
180.9639455782313	181.0219954648526	83	127
181.0219954648526	181.08004535147393	93	127
181.0219954648526	181.08004535147393	81	127
181.08004535147393	181.13809523809525	95	127
181.08004535147393	181.13809523809525	83	127
181.13809523809525	181.19614512471657	93	127
181.13809523809525	181.19614512471657	81	127
181.19614512471657	181.24258503401362	95	127
181.19614512471657	181.24258503401362	83	127
181.24258503401362	181.28902494331066	93	127
181.24258503401362	181.28902494331066	81	127
181.28902494331066	181.34707482993198	95	127
181.28902494331066	181.34707482993198	83	127
181.34707482993198	181.41673469387754	93	127
181.34707482993198	181.41673469387754	81	127
181.41673469387754	181.47478458049886	95	127
181.41673469387754	181.47478458049886	83	127
181.47478458049886	181.53283446712018	93	127
181.47478458049886	181.53283446712018	81	127
181.53283446712018	181.57927437641723	95	127
181.53283446712018	181.57927437641723	83	127
181.57927437641723	181.63732426303855	93	127
181.57927437641723	181.63732426303855	81	127
181.63732426303855	181.69537414965987	95	127
181.63732426303855	181.69537414965987	83	127
181.69537414965987	181.9159410430839	62	127
181.69537414965987	181.9159410430839	74	127
181.69537414965987	181.9159410430839	81	127
181.69537414965987	181.9159410430839	90	127
181.9159410430839	182.3455328798186	90	127
181.9159410430839	182.3455328798186	81	127
181.9159410430839	182.3455328798186	74	127
181.9159410430839	182.3455328798186	62	127
182.3455328798186	182.5893424036281	66	127
182.3455328798186	182.5893424036281	73	127
182.3455328798186	182.5893424036281	82	127
182.3455328798186	182.5893424036281	88	127
182.5893424036281	183.01891156462585	88	127
182.5893424036281	183.01891156462585	82	127
182.5893424036281	183.01891156462585	73	127
182.5893424036281	183.01891156462585	66	127
183.01891156462585	183.23950113378686	86	127
183.01891156462585	183.23950113378686	71	127
183.01891156462585	183.23950113378686	74	127
183.01891156462585	183.23950113378686	83	127
183.23950113378686	183.65743764172336	83	127
183.23950113378686	183.65743764172336	74	127
183.23950113378686	183.65743764172336	71	127
183.23950113378686	183.65743764172336	86	127
183.65743764172336	183.8548299319728	74	127
183.65743764172336	183.8548299319728	91	127
183.65743764172336	183.8548299319728	67	127
183.65743764172336	183.8548299319728	83	127
183.8548299319728	184.55142857142857	74	127
183.8548299319728	184.55142857142857	67	127
183.8548299319728	184.55142857142857	83	127
183.8548299319728	184.55142857142857	91	127
184.55142857142857	184.6675283446712	90	127
184.55142857142857	184.6675283446712	81	127
184.55142857142857	184.6675283446712	74	127
184.55142857142857	184.6675283446712	69	127
184.80684807256236	184.91133786848073	76	127
184.80684807256236	184.91133786848073	88	127
184.80684807256236	184.91133786848073	81	127
184.80684807256236	184.91133786848073	69	127
185.0158276643991	185.07387755102042	86	127
185.0158276643991	185.07387755102042	81	127
185.0158276643991	185.07387755102042	69	127
185.0158276643991	185.07387755102042	78	127
185.17836734693878	185.27124716553288	79	127
185.17836734693878	185.27124716553288	81	127
185.17836734693878	185.27124716553288	69	127
185.17836734693878	185.27124716553288	85	127
185.36412698412698	185.45700680272108	78	127
185.36412698412698	185.45700680272108	69	127
185.36412698412698	185.45700680272108	81	127
185.36412698412698	185.45700680272108	86	127
185.57310657596372	185.6427664399093	76	127
185.57310657596372	185.6427664399093	69	127
185.57310657596372	185.6427664399093	81	127
185.57310657596372	185.6427664399093	88	127
185.75886621315192	185.8633560090703	81	127
185.75886621315192	185.8633560090703	69	127
185.75886621315192	185.8633560090703	78	127
185.75886621315192	185.8633560090703	86	127
185.9910657596372	186.10714285714286	81	127
185.9910657596372	186.10714285714286	69	127
185.9910657596372	186.10714285714286	74	127
185.9910657596372	186.10714285714286	90	127
186.20004535147393	186.3161224489796	79	127
186.20004535147393	186.3161224489796	93	127
186.20004535147393	186.3161224489796	81	127
186.20004535147393	186.3161224489796	69	127
186.20004535147393	186.3161224489796	73	127
186.43224489795918	186.57154195011339	81	127
186.43224489795918	186.57154195011339	86	127
186.43224489795918	186.57154195011339	74	127
186.43224489795918	186.57154195011339	78	127
187.12884353741498	187.31460317460318	64	127
187.12884353741498	187.31460317460318	61	127
187.12884353741498	187.31460317460318	57	127
187.12884353741498	187.31460317460318	52	127
187.12884353741498	187.31460317460318	49	127
187.12884353741498	187.31460317460318	45	127
187.6977097505669	187.90671201814058	54	127
187.6977097505669	187.90671201814058	66	127
187.6977097505669	187.90671201814058	62	127
187.6977097505669	187.90671201814058	57	127
187.6977097505669	187.90671201814058	50	127
187.6977097505669	187.90671201814058	45	127
188.3711111111111	188.55687074829933	45	127
188.3711111111111	188.55687074829933	52	127
188.3711111111111	188.55687074829933	56	127
188.3711111111111	188.55687074829933	62	127
188.3711111111111	188.55687074829933	64	127
188.3711111111111	188.55687074829933	68	127
188.55687074829933	188.74263038548753	45	127
188.55687074829933	188.74263038548753	52	127
188.55687074829933	188.74263038548753	56	127
188.55687074829933	188.74263038548753	62	127
188.55687074829933	188.74263038548753	64	127
188.55687074829933	188.74263038548753	68	127
188.74263038548753	188.98643990929705	45	127
188.74263038548753	188.98643990929705	52	127
188.74263038548753	188.98643990929705	56	127
188.74263038548753	188.98643990929705	62	127
188.74263038548753	188.98643990929705	64	127
188.74263038548753	188.98643990929705	68	127
188.98643990929705	189.19541950113378	69	127
188.98643990929705	189.19541950113378	64	127
188.98643990929705	189.19541950113378	61	127
188.98643990929705	189.19541950113378	57	127
188.98643990929705	189.19541950113378	52	127
188.98643990929705	189.19541950113378	45	127
189.29990929705215	189.3463492063492	81	127
189.4160090702948	189.46244897959184	78	127
189.52049886621316	189.5669387755102	76	127
189.601768707483	189.6946485260771	75	127
189.601768707483	189.6946485260771	66	127
189.601768707483	189.6946485260771	69	127
189.76430839002268	189.85718820861678	66	127
189.76430839002268	189.85718820861678	75	127
189.76430839002268	189.85718820861678	69	127
189.96167800453514	190.0661678004535	75	127
189.96167800453514	190.0661678004535	66	127
189.96167800453514	190.0661678004535	69	127
190.17065759637188	190.73954648526077	68	127
190.17065759637188	190.73954648526077	83	127
190.17065759637188	190.73954648526077	74	127
190.17065759637188	190.73954648526077	64	127
190.73954648526077	190.83242630385487	66	127
190.73954648526077	190.83242630385487	69	127
190.73954648526077	190.83242630385487	75	127
190.9136961451247	191.01818594104307	75	127
190.9136961451247	191.01818594104307	66	127
190.9136961451247	191.01818594104307	69	127
191.14589569160998	191.25038548752835	66	127
191.14589569160998	191.25038548752835	75	127
191.14589569160998	191.25038548752835	69	127
191.37809523809523	191.91215419501134	83	127
191.37809523809523	191.91215419501134	74	127
191.37809523809523	191.91215419501134	68	127
191.37809523809523	191.91215419501134	64	127
191.91215419501134	192.09791383219954	73	127
191.91215419501134	192.09791383219954	85	127
191.91215419501134	192.09791383219954	76	127
191.91215419501134	192.09791383219954	69	127
191.91215419501134	192.09791383219954	64	127
191.91215419501134	192.09791383219954	57	127
192.295283446712	192.4926530612245	56	127
192.295283446712	192.4926530612245	61	127
192.295283446712	192.4926530612245	68	127
192.295283446712	192.4926530612245	73	127
192.295283446712	192.4926530612245	77	127
192.295283446712	192.4926530612245	83	127
192.4926530612245	192.69002267573697	81	127
192.4926530612245	192.69002267573697	78	127
192.4926530612245	192.69002267573697	73	127
192.4926530612245	192.69002267573697	66	127
192.4926530612245	192.69002267573697	61	127
192.4926530612245	192.69002267573697	54	127
192.85256235827666	193.04993197278912	58	127
192.85256235827666	193.04993197278912	64	127
192.85256235827666	193.04993197278912	68	127
192.85256235827666	193.04993197278912	76	127
192.85256235827666	193.04993197278912	80	127
193.04993197278912	193.2705215419501	78	127
193.04993197278912	193.2705215419501	76	127
193.04993197278912	193.2705215419501	73	127
193.04993197278912	193.2705215419501	66	127
193.04993197278912	193.2705215419501	64	127
193.04993197278912	193.2705215419501	59	127
193.45628117913833	193.6536507936508	59	127
193.45628117913833	193.6536507936508	66	127
193.45628117913833	193.6536507936508	69	127
193.45628117913833	193.6536507936508	75	127
193.45628117913833	193.6536507936508	78	127
193.45628117913833	193.6536507936508	83	127
193.6536507936508	193.7233106575964	80	127
193.6536507936508	193.7233106575964	71	127
193.6536507936508	193.7233106575964	68	127
193.6536507936508	193.7233106575964	64	127
193.81619047619049	193.89746031746031	64	127
193.81619047619049	193.89746031746031	68	127
193.81619047619049	193.89746031746031	71	127
193.81619047619049	193.89746031746031	80	127
194.00195011337868	194.11804988662132	83	127
194.00195011337868	194.11804988662132	71	127
194.00195011337868	194.11804988662132	68	127
194.00195011337868	194.11804988662132	64	127
194.2225396825397	194.29219954648525	59	127
194.2225396825397	194.29219954648525	63	127
194.2225396825397	194.29219954648525	69	127
194.2225396825397	194.29219954648525	71	127
194.2225396825397	194.29219954648525	78	127
194.7798185941043	194.86108843537414	80	127
194.7798185941043	194.86108843537414	71	127
194.7798185941043	194.86108843537414	68	127
194.7798185941043	194.86108843537414	64	127
194.97718820861678	195.07006802721088	64	127
194.97718820861678	195.07006802721088	68	127
194.97718820861678	195.07006802721088	71	127
194.97718820861678	195.07006802721088	80	127
195.17455782312925	195.26743764172335	83	127
195.17455782312925	195.26743764172335	71	127
195.17455782312925	195.26743764172335	68	127
195.17455782312925	195.26743764172335	64	127
195.36031746031745	195.46480725623582	59	127
195.36031746031745	195.46480725623582	63	127
195.36031746031745	195.46480725623582	69	127
195.36031746031745	195.46480725623582	71	127
195.36031746031745	195.46480725623582	78	127
195.95242630385488	196.04530612244898	71	127
195.95242630385488	196.04530612244898	64	127
195.95242630385488	196.04530612244898	76	127
195.95242630385488	196.04530612244898	80	127
196.1265759637188	196.24267573696144	64	127
196.1265759637188	196.24267573696144	71	127
196.1265759637188	196.24267573696144	80	127
196.1265759637188	196.24267573696144	76	127
196.33555555555554	196.4168253968254	68	127
196.33555555555554	196.4168253968254	83	127
196.33555555555554	196.4168253968254	64	127
196.33555555555554	196.4168253968254	76	127
196.52131519274377	196.6025850340136	88	127
196.52131519274377	196.6025850340136	80	127
196.52131519274377	196.6025850340136	76	127
196.52131519274377	196.6025850340136	74	127
196.52131519274377	196.6025850340136	71	127
196.52131519274377	196.6025850340136	64	127
197.6707029478458	197.90290249433107	64	127
197.6707029478458	197.90290249433107	61	127
197.6707029478458	197.90290249433107	57	127
197.6707029478458	197.90290249433107	52	127
197.6707029478458	197.90290249433107	45	127
197.6707029478458	197.90290249433107	49	127
198.30925170068028	198.50662131519275	45	127
198.30925170068028	198.50662131519275	54	127
198.30925170068028	198.50662131519275	50	127
198.30925170068028	198.50662131519275	57	127
198.30925170068028	198.50662131519275	62	127
198.30925170068028	198.50662131519275	66	127
198.8897505668934	199.1451700680272	45	127
198.8897505668934	199.1451700680272	52	127
198.8897505668934	199.1451700680272	56	127
198.8897505668934	199.1451700680272	62	127
198.8897505668934	199.1451700680272	64	127
198.8897505668934	199.1451700680272	68	127
199.1451700680272	199.3425396825397	45	127
199.1451700680272	199.3425396825397	52	127
199.1451700680272	199.3425396825397	56	127
199.1451700680272	199.3425396825397	62	127
199.1451700680272	199.3425396825397	64	127
199.1451700680272	199.3425396825397	68	127
199.3425396825397	199.5282993197279	45	127
199.3425396825397	199.5282993197279	52	127
199.3425396825397	199.5282993197279	56	127
199.3425396825397	199.5282993197279	62	127
199.3425396825397	199.5282993197279	64	127
199.3425396825397	199.5282993197279	68	127
199.5282993197279	199.7140589569161	52	127
199.5282993197279	199.7140589569161	45	127
199.5282993197279	199.7140589569161	57	127
199.5282993197279	199.7140589569161	61	127
199.5282993197279	199.7140589569161	64	127
199.5282993197279	199.7140589569161	69	127
199.81854875283446	199.89981859410432	81	127
199.94625850340137	200.01591836734693	78	127
200.06235827664398	200.10879818594105	76	127
200.1552380952381	200.2713378684807	75	127
200.1552380952381	200.2713378684807	69	127
200.1552380952381	200.2713378684807	66	127
200.36421768707484	200.45709750566894	75	127
200.36421768707484	200.45709750566894	69	127
200.36421768707484	200.45709750566894	66	127
200.5615873015873	200.6544671201814	75	127
200.5615873015873	200.6544671201814	69	127
200.5615873015873	200.6544671201814	66	127
200.7473469387755	201.3162358276644	68	127
200.7473469387755	201.3162358276644	83	127
200.7473469387755	201.3162358276644	74	127
200.7473469387755	201.3162358276644	64	127
201.3162358276644	201.39750566893423	69	127
201.3162358276644	201.39750566893423	66	127
201.3162358276644	201.39750566893423	75	127
201.5019954648526	201.61809523809524	75	127
201.5019954648526	201.61809523809524	69	127
201.5019954648526	201.61809523809524	66	127
201.69936507936507	201.80385487528343	69	127
201.69936507936507	201.80385487528343	75	127
201.69936507936507	201.80385487528343	66	127
201.9083446712018	202.50045351473923	83	127
201.9083446712018	202.50045351473923	74	127
201.9083446712018	202.50045351473923	68	127
201.9083446712018	202.50045351473923	64	127
202.50045351473923	202.6049433106576	65	127
202.50045351473923	202.6049433106576	83	127
202.50045351473923	202.6049433106576	74	127
202.50045351473923	202.6049433106576	67	127
203.11578231292518	203.18544217687074	79	127
203.11578231292518	203.18544217687074	84	127
203.11578231292518	203.18544217687074	72	127
203.11578231292518	203.18544217687074	67	127
203.11578231292518	203.18544217687074	64	127
203.2667120181406	203.34798185941042	79	127
203.2667120181406	203.34798185941042	84	127
203.2667120181406	203.34798185941042	72	127
203.2667120181406	203.34798185941042	67	127
203.2667120181406	203.34798185941042	64	127
203.44086167800452	203.53374149659865	79	127
203.44086167800452	203.53374149659865	84	127
203.44086167800452	203.53374149659865	72	127
203.44086167800452	203.53374149659865	67	127
203.44086167800452	203.53374149659865	64	127
203.63823129251702	203.73111111111112	65	127
203.63823129251702	203.73111111111112	67	127
203.63823129251702	203.73111111111112	74	127
203.63823129251702	203.73111111111112	83	127
204.27678004535147	204.38126984126984	84	127
204.27678004535147	204.38126984126984	79	127
204.27678004535147	204.38126984126984	72	127
204.27678004535147	204.38126984126984	67	127
204.27678004535147	204.38126984126984	64	127
204.4857596371882	204.59024943310658	64	127
204.4857596371882	204.59024943310658	67	127
204.4857596371882	204.59024943310658	72	127
204.4857596371882	204.59024943310658	79	127
204.4857596371882	204.59024943310658	84	127
204.65990929705217	204.741179138322	64	127
204.65990929705217	204.741179138322	67	127
204.65990929705217	204.741179138322	72	127
204.65990929705217	204.741179138322	79	127
204.65990929705217	204.741179138322	84	127
204.8340589569161	205.03142857142856	60	127
204.8340589569161	205.03142857142856	67	127
204.8340589569161	205.03142857142856	72	127
204.8340589569161	205.03142857142856	76	127
204.8340589569161	205.03142857142856	79	127
204.8340589569161	205.03142857142856	88	127
205.2171882086168	205.402947845805	86	127
205.2171882086168	205.402947845805	80	127
205.2171882086168	205.402947845805	76	127
205.2171882086168	205.402947845805	68	127
205.2171882086168	205.402947845805	64	127
205.2171882086168	205.402947845805	59	127
205.402947845805	205.57709750566895	57	127
205.402947845805	205.57709750566895	64	127
205.402947845805	205.57709750566895	69	127
205.402947845805	205.57709750566895	76	127
205.402947845805	205.57709750566895	81	127
205.402947845805	205.57709750566895	84	127
205.76285714285714	205.97183673469388	82	127
205.76285714285714	205.97183673469388	76	127
205.76285714285714	205.97183673469388	72	127
205.76285714285714	205.97183673469388	64	127
205.76285714285714	205.97183673469388	60	127
205.76285714285714	205.97183673469388	55	127
205.97183673469388	206.13437641723357	53	127
205.97183673469388	206.13437641723357	60	127
205.97183673469388	206.13437641723357	72	127
205.97183673469388	206.13437641723357	77	127
205.97183673469388	206.13437641723357	81	127
205.97183673469388	206.13437641723357	65	127
206.3433560090703	206.56394557823128	79	127
206.3433560090703	206.56394557823128	73	127
206.3433560090703	206.56394557823128	69	127
206.3433560090703	206.56394557823128	61	127
206.3433560090703	206.56394557823128	57	127
206.3433560090703	206.56394557823128	52	127
206.56394557823128	206.77292517006802	50	127
206.56394557823128	206.77292517006802	57	127
206.56394557823128	206.77292517006802	62	127
206.56394557823128	206.77292517006802	69	127
206.56394557823128	206.77292517006802	77	127
206.56394557823128	206.77292517006802	74	127
206.9354648526077	207.10961451247167	76	127
206.9354648526077	207.10961451247167	72	127
206.9354648526077	207.10961451247167	64	127
206.9354648526077	207.10961451247167	60	127
206.9354648526077	207.10961451247167	54	127
207.10961451247167	207.29537414965986	55	127
207.10961451247167	207.29537414965986	62	127
207.10961451247167	207.29537414965986	60	127
207.10961451247167	207.29537414965986	69	127
207.10961451247167	207.29537414965986	72	127
207.10961451247167	207.29537414965986	74	127
207.49274376417233	207.6901133786848	79	127
207.49274376417233	207.6901133786848	74	127
207.49274376417233	207.6901133786848	71	127
207.49274376417233	207.6901133786848	62	127
207.49274376417233	207.6901133786848	65	127
207.49274376417233	207.6901133786848	55	127
207.6901133786848	207.79460317460317	60	127
207.6901133786848	207.79460317460317	64	127
207.6901133786848	207.79460317460317	67	127
207.6901133786848	207.79460317460317	76	127
207.88748299319727	207.9803628117914	64	127
207.88748299319727	207.9803628117914	60	127
207.88748299319727	207.9803628117914	67	127
207.88748299319727	207.9803628117914	76	127
208.08485260770976	208.17773242630386	60	127
208.08485260770976	208.17773242630386	64	127
208.08485260770976	208.17773242630386	67	127
208.08485260770976	208.17773242630386	79	127
208.28222222222223	208.46798185941043	74	127
208.28222222222223	208.46798185941043	67	127
208.28222222222223	208.46798185941043	65	127
208.28222222222223	208.46798185941043	59	127
208.28222222222223	208.46798185941043	55	127
208.87433106575963	208.96721088435373	60	127
208.87433106575963	208.96721088435373	64	127
208.87433106575963	208.96721088435373	67	127
208.87433106575963	208.96721088435373	76	127
209.06009070294783	209.1645804988662	64	127
209.06009070294783	209.1645804988662	60	127
209.06009070294783	209.1645804988662	67	127
209.06009070294783	209.1645804988662	76	127
209.22263038548752	209.30390022675738	60	127
209.22263038548752	209.30390022675738	64	127
209.22263038548752	209.30390022675738	67	127
209.22263038548752	209.30390022675738	79	127
209.3619501133787	209.5709297052154	74	127
209.3619501133787	209.5709297052154	67	127
209.3619501133787	209.5709297052154	65	127
209.3619501133787	209.5709297052154	59	127
209.3619501133787	209.5709297052154	55	127
209.9540589569161	210.07015873015874	60	127
209.9540589569161	210.07015873015874	64	127
209.9540589569161	210.07015873015874	72	127
209.9540589569161	210.07015873015874	76	127
210.16303854875284	210.24430839002267	60	127
210.16303854875284	210.24430839002267	67	127
210.16303854875284	210.24430839002267	72	127
210.16303854875284	210.24430839002267	76	127
210.34879818594104	210.44167800453513	60	127
210.34879818594104	210.44167800453513	67	127
210.34879818594104	210.44167800453513	72	127
210.34879818594104	210.44167800453513	76	127
210.34879818594104	210.44167800453513	79	127
210.5461678004535	210.72031746031746	84	127
210.5461678004535	210.72031746031746	76	127
210.5461678004535	210.72031746031746	72	127
210.5461678004535	210.72031746031746	67	127
210.5461678004535	210.72031746031746	60	127
211.47496598639455	211.5214058956916	66	127
211.47496598639455	211.5214058956916	78	127
211.57945578231292	211.62589569160997	79	127
211.57945578231292	211.62589569160997	67	127
211.66072562358278	211.70716553287983	81	127
211.66072562358278	211.70716553287983	69	127
211.70716553287983	212.11351473922903	70	127
211.70716553287983	212.11351473922903	82	127
212.11351473922903	212.28766439909296	69	127
212.11351473922903	212.28766439909296	81	127
212.28766439909296	212.67079365079366	67	127
212.28766439909296	212.67079365079366	79	127
212.67079365079366	212.86816326530612	77	127
212.67079365079366	212.86816326530612	65	127
212.86816326530612	212.96104308390022	64	127
212.86816326530612	212.96104308390022	76	127
213.05392290249432	213.1584126984127	64	127
213.05392290249432	213.1584126984127	76	127
213.2512925170068	213.34417233560092	77	127
213.2512925170068	213.34417233560092	65	127
213.44866213151928	213.55315192743765	79	127
213.44866213151928	213.55315192743765	67	127
213.65764172335602	213.7853514739229	79	127
213.65764172335602	213.7853514739229	67	127
213.88984126984127	213.99433106575964	83	127
213.88984126984127	213.99433106575964	71	127
214.08721088435374	214.18009070294784	72	127
214.08721088435374	214.18009070294784	84	127
214.2845804988662	214.34263038548752	84	127
214.2845804988662	214.34263038548752	72	127
214.4471201814059	214.51678004535148	86	127
214.4471201814059	214.51678004535148	74	127
214.58643990929704	214.6909297052154	84	127
214.58643990929704	214.6909297052154	72	127
214.77219954648527	214.86507936507937	72	127
214.77219954648527	214.86507936507937	84	127
214.96956916099774	215.06244897959184	74	127
214.96956916099774	215.06244897959184	86	127
215.15532879818593	215.2365986394558	72	127
215.15532879818593	215.2365986394558	84	127
215.3294784580499	215.45718820861677	72	127
215.3294784580499	215.45718820861677	84	127
215.5500680272109	215.642947845805	74	127
215.5500680272109	215.642947845805	86	127
215.74743764172337	215.93319727891156	72	127
215.74743764172337	215.93319727891156	84	127
216.11895691609976	216.1653968253968	68	127
216.11895691609976	216.1653968253968	80	127
216.22344671201813	216.28149659863945	69	127
216.22344671201813	216.28149659863945	81	127
216.3279365079365	216.3975963718821	71	127
216.3279365079365	216.3975963718821	83	127
216.3975963718821	216.79233560090702	72	127
216.3975963718821	216.79233560090702	84	127
216.79233560090702	217.01292517006803	82	127
216.79233560090702	217.01292517006803	70	127
217.01292517006803	217.40766439909297	69	127
217.01292517006803	217.40766439909297	81	127
217.40766439909297	217.60503401360543	67	127
217.40766439909297	217.60503401360543	79	127
217.60503401360543	217.7095238095238	78	127
217.60503401360543	217.7095238095238	66	127
217.8024036281179	217.90689342403627	78	127
217.8024036281179	217.90689342403627	66	127
217.9997732426304	218.0926530612245	67	127
217.9997732426304	218.0926530612245	79	127
218.19714285714286	218.30163265306123	81	127
218.19714285714286	218.30163265306123	69	127
218.39451247165533	218.46417233560092	81	127
218.39451247165533	218.46417233560092	69	127
218.54544217687075	218.64993197278912	85	127
218.54544217687075	218.64993197278912	73	127
218.73120181405895	218.8124716553288	74	127
218.73120181405895	218.8124716553288	86	127
218.91696145124718	218.98662131519274	74	127
218.91696145124718	218.98662131519274	86	127
219.0911111111111	219.19560090702947	76	127
219.0911111111111	219.19560090702947	88	127
219.28848072562357	219.3813605442177	74	127
219.28848072562357	219.3813605442177	86	127
219.4742403628118	219.54390022675736	74	127
219.4742403628118	219.54390022675736	86	127
219.6367800453515	219.72965986394559	76	127
219.6367800453515	219.72965986394559	88	127
219.82253968253968	219.92702947845805	74	127
219.82253968253968	219.92702947845805	86	127
220.01990929705215	220.1360090702948	74	127
220.01990929705215	220.1360090702948	86	127
220.21727891156462	220.29854875283448	76	127
220.21727891156462	220.29854875283448	88	127
220.39142857142858	220.57718820861678	86	127
220.39142857142858	220.57718820861678	74	127
221.0183673469388	221.09963718820862	74	127
221.0183673469388	221.09963718820862	71	127
221.0183673469388	221.09963718820862	64	127
221.0183673469388	221.09963718820862	80	127
221.204126984127	221.30861678004536	71	127
221.204126984127	221.30861678004536	64	127
221.204126984127	221.30861678004536	80	127
221.204126984127	221.30861678004536	74	127
221.40149659863945	221.50598639455782	71	127
221.40149659863945	221.50598639455782	65	127
221.40149659863945	221.50598639455782	81	127
221.40149659863945	221.50598639455782	74	127
221.55242630385487	221.6104761904762	74	127
221.55242630385487	221.6104761904762	80	127
221.55242630385487	221.6104761904762	71	127
221.55242630385487	221.6104761904762	64	127
221.7033560090703	221.7962358276644	64	127
221.7033560090703	221.7962358276644	74	127
221.7033560090703	221.7962358276644	71	127
221.7033560090703	221.7962358276644	80	127
221.90072562358276	221.97038548752835	65	127
221.90072562358276	221.97038548752835	81	127
221.90072562358276	221.97038548752835	71	127
221.90072562358276	221.97038548752835	74	127
222.06326530612245	222.16775510204081	80	127
222.06326530612245	222.16775510204081	74	127
222.06326530612245	222.16775510204081	71	127
222.06326530612245	222.16775510204081	64	127
222.2606349206349	222.353514739229	71	127
222.2606349206349	222.353514739229	64	127
222.2606349206349	222.353514739229	80	127
222.2606349206349	222.353514739229	74	127
222.45800453514738	222.5508843537415	74	127
222.45800453514738	222.5508843537415	81	127
222.45800453514738	222.5508843537415	71	127
222.45800453514738	222.5508843537415	65	127
222.63215419501134	222.84113378684808	80	127
222.63215419501134	222.84113378684808	74	127
222.63215419501134	222.84113378684808	71	127
222.63215419501134	222.84113378684808	64	127
223.28231292517006	223.82798185941044	88	127
223.28231292517006	223.82798185941044	76	127
223.82798185941044	224.40848072562358	79	127
223.82798185941044	224.40848072562358	91	127
224.40848072562358	224.95414965986396	76	127
224.40848072562358	224.95414965986396	88	127
224.95414965986396	225.5694784580499	81	127
224.95414965986396	225.5694784580499	93	127
225.5694784580499	225.662358276644	72	127
225.5694784580499	225.662358276644	69	127
225.5694784580499	225.662358276644	62	127
225.5694784580499	225.662358276644	78	127
225.74362811791383	225.8248979591837	69	127
225.74362811791383	225.8248979591837	62	127
225.74362811791383	225.8248979591837	78	127
225.74362811791383	225.8248979591837	72	127
225.90616780045352	225.99904761904762	69	127
225.90616780045352	225.99904761904762	63	127
225.90616780045352	225.99904761904762	79	127
225.90616780045352	225.99904761904762	72	127
226.09192743764171	226.17319727891157	78	127
226.09192743764171	226.17319727891157	72	127
226.09192743764171	226.17319727891157	69	127
226.09192743764171	226.17319727891157	62	127
226.26607709750567	226.35895691609977	69	127
226.26607709750567	226.35895691609977	62	127
226.26607709750567	226.35895691609977	78	127
226.26607709750567	226.35895691609977	72	127
226.45183673469387	226.53310657596373	69	127
226.45183673469387	226.53310657596373	63	127
226.45183673469387	226.53310657596373	79	127
226.45183673469387	226.53310657596373	72	127
226.62598639455783	226.71886621315193	69	127
226.62598639455783	226.71886621315193	78	127
226.62598639455783	226.71886621315193	72	127
226.62598639455783	226.71886621315193	62	127
226.81174603174603	226.9162358276644	62	127
226.81174603174603	226.9162358276644	69	127
226.81174603174603	226.9162358276644	72	127
226.81174603174603	226.9162358276644	78	127
226.99750566893425	227.09038548752835	79	127
226.99750566893425	227.09038548752835	72	127
226.99750566893425	227.09038548752835	69	127
226.99750566893425	227.09038548752835	63	127
227.18326530612245	227.3574149659864	78	127
227.18326530612245	227.3574149659864	72	127
227.18326530612245	227.3574149659864	69	127
227.18326530612245	227.3574149659864	62	127
227.75215419501134	228.37909297052155	86	127
227.75215419501134	228.37909297052155	74	127
228.37909297052155	228.93637188208618	77	127
228.37909297052155	228.93637188208618	89	127
228.93637188208618	229.50526077097507	74	127
228.93637188208618	229.50526077097507	86	127
229.50526077097507	230.14380952380952	91	127
229.50526077097507	230.14380952380952	79	127
230.14380952380952	230.32956916099772	88	127
230.14380952380952	230.32956916099772	76	127
230.72430839002268	230.8984580498866	85	127
230.72430839002268	230.8984580498866	76	127
230.72430839002268	230.8984580498866	73	127
230.72430839002268	230.8984580498866	69	127
230.8984580498866	231.08421768707484	76	127
230.8984580498866	231.08421768707484	85	127
230.8984580498866	231.08421768707484	73	127
230.8984580498866	231.08421768707484	69	127
231.08421768707484	231.26997732426304	85	127
231.08421768707484	231.26997732426304	76	127
231.08421768707484	231.26997732426304	73	127
231.08421768707484	231.26997732426304	69	127
231.26997732426304	231.4673469387755	62	127
231.26997732426304	231.4673469387755	66	127
231.26997732426304	231.4673469387755	71	127
231.26997732426304	231.4673469387755	78	127
231.26997732426304	231.4673469387755	83	127
231.8504761904762	232.02462585034013	80	127
231.8504761904762	232.02462585034013	74	127
231.8504761904762	232.02462585034013	71	127
231.8504761904762	232.02462585034013	64	127
232.02462585034013	232.1987755102041	80	127
232.02462585034013	232.1987755102041	74	127
232.02462585034013	232.1987755102041	71	127
232.02462585034013	232.1987755102041	64	127
232.1987755102041	232.37292517006802	80	127
232.1987755102041	232.37292517006802	74	127
232.1987755102041	232.37292517006802	71	127
232.1987755102041	232.37292517006802	64	127
233.59197278911566	233.83578231292518	45	127
233.59197278911566	233.83578231292518	49	127
233.59197278911566	233.83578231292518	52	127
233.59197278911566	233.83578231292518	57	127
233.59197278911566	233.83578231292518	64	127
233.59197278911566	233.83578231292518	61	127
234.24213151927438	234.50916099773244	45	127
234.24213151927438	234.50916099773244	50	127
234.24213151927438	234.50916099773244	54	127
234.24213151927438	234.50916099773244	57	127
234.24213151927438	234.50916099773244	66	127
234.24213151927438	234.50916099773244	62	127
234.8922902494331	235.1128798185941	56	127
234.8922902494331	235.1128798185941	52	127
234.8922902494331	235.1128798185941	45	127
234.8922902494331	235.1128798185941	64	127
234.8922902494331	235.1128798185941	68	127
234.8922902494331	235.1128798185941	62	127
235.1128798185941	235.32185941043085	56	127
235.1128798185941	235.32185941043085	52	127
235.1128798185941	235.32185941043085	45	127
235.1128798185941	235.32185941043085	64	127
235.1128798185941	235.32185941043085	68	127
235.1128798185941	235.32185941043085	62	127
235.32185941043085	235.49600907029478	56	127
235.32185941043085	235.49600907029478	52	127
235.32185941043085	235.49600907029478	45	127
235.32185941043085	235.49600907029478	64	127
235.32185941043085	235.49600907029478	62	127
235.32185941043085	235.49600907029478	68	127
235.49600907029478	235.681768707483	64	127
235.49600907029478	235.681768707483	69	127
235.49600907029478	235.681768707483	61	127
235.49600907029478	235.681768707483	57	127
235.49600907029478	235.681768707483	52	127
235.49600907029478	235.681768707483	45	127
235.7746485260771	235.90235827664398	81	127
235.90235827664398	235.9952380952381	78	127
235.9952380952381	236.09972789115648	76	127
236.09972789115648	236.2158276643991	75	127
236.09972789115648	236.2158276643991	69	127
236.09972789115648	236.2158276643991	66	127
236.29709750566894	236.4015873015873	66	127
236.29709750566894	236.4015873015873	75	127
236.29709750566894	236.4015873015873	69	127
236.48285714285714	236.56412698412697	75	127
236.48285714285714	236.56412698412697	69	127
236.48285714285714	236.56412698412697	66	127
236.66861678004534	237.26072562358277	74	127
236.66861678004534	237.26072562358277	64	127
236.66861678004534	237.26072562358277	68	127
236.66861678004534	237.26072562358277	83	127
237.26072562358277	237.35360544217687	69	127
237.26072562358277	237.35360544217687	66	127
237.26072562358277	237.35360544217687	75	127
237.4697052154195	237.5625850340136	75	127
237.4697052154195	237.5625850340136	66	127
237.4697052154195	237.5625850340136	69	127
237.6322448979592	237.71351473922903	69	127
237.6322448979592	237.71351473922903	75	127
237.6322448979592	237.71351473922903	66	127
237.80639455782313	238.4449433106576	64	127
237.80639455782313	238.4449433106576	68	127
237.80639455782313	238.4449433106576	74	127
237.80639455782313	238.4449433106576	83	127
238.4449433106576	238.6307029478458	64	127
238.4449433106576	238.6307029478458	80	127
238.4449433106576	238.6307029478458	71	127
238.4449433106576	238.6307029478458	62	127
239.02544217687074	239.11832199546484	81	127
239.02544217687074	239.11832199546484	76	127
239.02544217687074	239.11832199546484	69	127
239.02544217687074	239.11832199546484	61	127
239.02544217687074	239.11832199546484	64	127
239.18798185941043	239.28086167800453	81	127
239.18798185941043	239.28086167800453	76	127
239.18798185941043	239.28086167800453	69	127
239.18798185941043	239.28086167800453	64	127
239.18798185941043	239.28086167800453	61	127
239.37374149659863	239.478231292517	81	127
239.37374149659863	239.478231292517	76	127
239.37374149659863	239.478231292517	69	127
239.37374149659863	239.478231292517	64	127
239.37374149659863	239.478231292517	61	127
239.59433106575963	239.8265306122449	62	127
239.59433106575963	239.8265306122449	64	127
239.59433106575963	239.8265306122449	71	127
239.59433106575963	239.8265306122449	80	127
240.1980498866213	240.30253968253967	81	127
240.1980498866213	240.30253968253967	76	127
240.1980498866213	240.30253968253967	69	127
240.1980498866213	240.30253968253967	64	127
240.1980498866213	240.30253968253967	61	127
240.38380952380953	240.46507936507936	81	127
240.38380952380953	240.46507936507936	76	127
240.38380952380953	240.46507936507936	69	127
240.38380952380953	240.46507936507936	64	127
240.38380952380953	240.46507936507936	61	127
240.56956916099773	240.66244897959183	81	127
240.56956916099773	240.66244897959183	76	127
240.56956916099773	240.66244897959183	69	127
240.56956916099773	240.66244897959183	64	127
240.56956916099773	240.66244897959183	61	127
240.7437188208617	240.91786848072562	57	127
240.7437188208617	240.91786848072562	64	127
240.7437188208617	240.91786848072562	69	127
240.7437188208617	240.91786848072562	73	127
240.7437188208617	240.91786848072562	76	127
240.7437188208617	240.91786848072562	85	127
241.11523809523808	241.31260770975058	83	127
241.11523809523808	241.31260770975058	77	127
241.11523809523808	241.31260770975058	73	127
241.11523809523808	241.31260770975058	65	127
241.11523809523808	241.31260770975058	61	127
241.11523809523808	241.31260770975058	56	127
241.31260770975058	241.4867573696145	54	127
241.31260770975058	241.4867573696145	61	127
241.31260770975058	241.4867573696145	66	127
241.31260770975058	241.4867573696145	73	127
241.31260770975058	241.4867573696145	78	127
241.31260770975058	241.4867573696145	81	127
241.68412698412698	241.84666666666666	79	127
241.68412698412698	241.84666666666666	69	127
241.68412698412698	241.84666666666666	73	127
241.68412698412698	241.84666666666666	61	127
241.68412698412698	241.84666666666666	57	127
241.68412698412698	241.84666666666666	52	127
241.84666666666666	242.03242630385486	50	127
241.84666666666666	242.03242630385486	57	127
241.84666666666666	242.03242630385486	62	127
241.84666666666666	242.03242630385486	69	127
241.84666666666666	242.03242630385486	74	127
241.84666666666666	242.03242630385486	78	127
242.2181859410431	242.4039455782313	76	127
242.2181859410431	242.4039455782313	70	127
242.2181859410431	242.4039455782313	66	127
242.2181859410431	242.4039455782313	58	127
242.2181859410431	242.4039455782313	54	127
242.2181859410431	242.4039455782313	49	127
242.4039455782313	242.60131519274375	47	127
242.4039455782313	242.60131519274375	54	127
242.4039455782313	242.60131519274375	59	127
242.4039455782313	242.60131519274375	66	127
242.4039455782313	242.60131519274375	71	127
242.4039455782313	242.60131519274375	74	127
242.79868480725622	242.98444444444445	73	127
242.79868480725622	242.98444444444445	69	127
242.79868480725622	242.98444444444445	61	127
242.79868480725622	242.98444444444445	57	127
242.79868480725622	242.98444444444445	51	127
242.98444444444445	243.18181405895692	52	127
242.98444444444445	243.18181405895692	57	127
242.98444444444445	243.18181405895692	59	127
242.98444444444445	243.18181405895692	66	127
242.98444444444445	243.18181405895692	69	127
242.98444444444445	243.18181405895692	71	127
243.35596371882087	243.55333333333334	76	127
243.35596371882087	243.55333333333334	71	127
243.35596371882087	243.55333333333334	68	127
243.35596371882087	243.55333333333334	62	127
243.35596371882087	243.55333333333334	59	127
243.35596371882087	243.55333333333334	52	127
243.55333333333334	243.64621315192744	61	127
243.55333333333334	243.64621315192744	57	127
243.55333333333334	243.64621315192744	64	127
243.55333333333334	243.64621315192744	69	127
243.55333333333334	243.64621315192744	73	127
243.7507029478458	243.85519274376418	61	127
243.7507029478458	243.85519274376418	57	127
243.7507029478458	243.85519274376418	64	127
243.7507029478458	243.85519274376418	73	127
243.95968253968255	244.04095238095238	61	127
243.95968253968255	244.04095238095238	57	127
243.95968253968255	244.04095238095238	64	127
243.95968253968255	244.04095238095238	76	127
244.13383219954648	244.33120181405894	71	127
244.13383219954648	244.33120181405894	64	127
244.13383219954648	244.33120181405894	62	127
244.13383219954648	244.33120181405894	56	127
244.13383219954648	244.33120181405894	52	127
244.71433106575964	244.818820861678	69	127
244.71433106575964	244.818820861678	73	127
244.71433106575964	244.818820861678	76	127
244.71433106575964	244.818820861678	85	127
244.90009070294784	244.9813605442177	69	127
244.90009070294784	244.9813605442177	73	127
244.90009070294784	244.9813605442177	76	127
244.90009070294784	244.9813605442177	85	127
245.05102040816325	245.1322902494331	69	127
245.05102040816325	245.1322902494331	73	127
245.05102040816325	245.1322902494331	76	127
245.05102040816325	245.1322902494331	88	127
245.2251700680272	245.4109297052154	83	127
245.2251700680272	245.4109297052154	76	127
245.2251700680272	245.4109297052154	74	127
245.2251700680272	245.4109297052154	64	127
245.2251700680272	245.4109297052154	68	127
245.77083900226756	245.8637188208617	69	127
245.77083900226756	245.8637188208617	73	127
245.77083900226756	245.8637188208617	81	127
245.77083900226756	245.8637188208617	85	127
245.94498866213152	246.03786848072562	69	127
245.94498866213152	246.03786848072562	76	127
245.94498866213152	246.03786848072562	81	127
245.94498866213152	246.03786848072562	85	127
246.1075283446712	246.21201814058958	69	127
246.1075283446712	246.21201814058958	76	127
246.1075283446712	246.21201814058958	81	127
246.1075283446712	246.21201814058958	88	127
246.1075283446712	246.21201814058958	85	127
246.2932879818594	246.44421768707483	93	127
246.2932879818594	246.44421768707483	88	127
246.2932879818594	246.44421768707483	85	127
246.2932879818594	246.44421768707483	81	127
246.2932879818594	246.44421768707483	76	127
246.2932879818594	246.44421768707483	73	127
246.2932879818594	246.44421768707483	69	127
