# onset,offset,note,velocity
0.15015873015873016	0.6841950113378685	69	127
0.6841950113378685	1.2182539682539681	66	127
0.6841950113378685	1.2182539682539681	57	127
0.6841950113378685	1.2182539682539681	62	127
0.6841950113378685	1.3575963718820863	74	127
0.6841950113378685	1.2182539682539681	38	127
1.4736961451247166	1.7407256235827664	74	127
1.7407256235827664	2.007755102040816	66	127
1.7407256235827664	2.007755102040816	38	127
1.7407256235827664	2.007755102040816	78	127
1.7407256235827664	2.007755102040816	57	127
1.7407256235827664	2.007755102040816	62	127
2.2747845804988662	2.530204081632653	57	127
2.2747845804988662	2.530204081632653	62	127
2.2747845804988662	2.530204081632653	66	127
2.2747845804988662	2.530204081632653	38	127
2.2747845804988662	2.530204081632653	78	127
2.739183673469388	4.817369614512471	66	127
2.739183673469388	4.817369614512471	38	127
2.739183673469388	3.2500226757369615	57	127
2.739183673469388	3.7956916099773244	74	127
3.2500226757369615	3.5170521541950115	59	127
3.5170521541950115	3.7956916099773244	61	127
3.7956916099773244	4.817369614512471	62	127
3.7956916099773244	4.817369614512471	69	127
4.817369614512471	5.560408163265306	69	127
4.817369614512471	5.293378684807256	67	127
4.817369614512471	5.293378684807256	45	127
4.817369614512471	5.293378684807256	69	127
4.817369614512471	5.757777777777778	61	127
5.6184580498866215	5.757777777777778	69	127
5.757777777777778	5.989977324263038	69	127
5.757777777777778	5.989977324263038	67	127
5.757777777777778	5.989977324263038	45	127
5.757777777777778	6.106077097505669	76	127
5.757777777777778	6.106077097505669	61	127
6.106077097505669	6.233786848072563	74	127
6.106077097505669	6.233786848072563	62	127
6.233786848072563	6.489206349206349	69	127
6.233786848072563	6.489206349206349	67	127
6.233786848072563	6.489206349206349	45	127
6.233786848072563	6.593696145124716	73	127
6.233786848072563	6.593696145124716	64	127
6.593696145124716	6.72140589569161	71	127
6.593696145124716	6.72140589569161	62	127
6.72140589569161	6.98843537414966	69	127
6.72140589569161	6.98843537414966	67	127
6.72140589569161	6.98843537414966	61	127
6.72140589569161	7.7779138321995465	45	127
6.72140589569161	8.300340136054421	69	127
7.243854875283446	7.7779138321995465	61	127
7.243854875283446	7.7779138321995465	64	127
7.7779138321995465	8.300340136054421	62	127
7.7779138321995465	8.300340136054421	66	127
8.300340136054421	8.706712018140589	69	127
8.300340136054421	8.706712018140589	67	127
8.300340136054421	8.706712018140589	64	127
8.706712018140589	9.217528344671202	62	127
8.706712018140589	9.217528344671202	66	127
8.706712018140589	9.217528344671202	57	127
8.706712018140589	9.217528344671202	38	127
8.706712018140589	9.35687074829932	74	127
9.484580498866213	9.647120181405896	74	127
9.647120181405896	9.879319727891156	78	127
9.647120181405896	9.879319727891156	57	127
9.647120181405896	9.879319727891156	66	127
9.647120181405896	9.879319727891156	62	127
9.647120181405896	9.879319727891156	38	127
10.088299319727891	10.320498866213152	78	127
10.088299319727891	10.320498866213152	57	127
10.088299319727891	10.320498866213152	66	127
10.088299319727891	10.320498866213152	62	127
10.088299319727891	10.320498866213152	38	127
10.552698412698414	12.061995464852608	38	127
10.552698412698414	11.063537414965987	57	127
10.552698412698414	11.585986394557823	74	127
10.552698412698414	12.061995464852608	66	127
11.063537414965987	11.45827664399093	59	127
11.45827664399093	11.585986394557823	61	127
11.585986394557823	12.061995464852608	69	127
11.585986394557823	12.061995464852608	62	127
12.061995464852608	12.329024943310658	57	127
12.061995464852608	12.572834467120181	74	127
12.061995464852608	12.572834467120181	66	127
12.061995464852608	12.572834467120181	38	127
12.572834467120181	14.070521541950113	64	127
12.572834467120181	12.805034013605443	73	127
12.572834467120181	13.06045351473923	57	127
12.572834467120181	14.070521541950113	40	127
12.805034013605443	12.921133786848072	74	127
12.921133786848072	13.06045351473923	73	127
13.06045351473923	13.420362811791383	56	127
13.06045351473923	13.420362811791383	71	127
13.420362811791383	13.55968253968254	73	127
13.420362811791383	13.55968253968254	57	127
13.55968253968254	14.070521541950113	59	127
13.55968253968254	14.070521541950113	74	127
14.070521541950113	14.604580498866213	40	127
14.070521541950113	14.604580498866213	68	127
14.070521541950113	14.604580498866213	64	127
14.070521541950113	14.604580498866213	62	127
14.604580498866213	15.649478458049886	33	127
14.604580498866213	14.86	64	127
14.604580498866213	14.86	61	127
14.604580498866213	16.16031746031746	69	127
15.115419501133786	15.649478458049886	67	127
15.115419501133786	15.649478458049886	64	127
15.649478458049886	16.16031746031746	66	127
15.649478458049886	16.16031746031746	62	127
16.16031746031746	16.682766439909297	69	127
16.16031746031746	16.682766439909297	64	127
16.16031746031746	16.682766439909297	61	127
16.682766439909297	17.135555555555555	66	127
16.682766439909297	17.135555555555555	57	127
16.682766439909297	17.135555555555555	62	127
16.682766439909297	17.135555555555555	38	127
16.682766439909297	17.251655328798186	74	127
17.367755102040817	17.472244897959182	74	127
17.472244897959182	17.739274376417235	62	127
17.472244897959182	17.739274376417235	78	127
17.472244897959182	17.739274376417235	57	127
17.472244897959182	17.739274376417235	66	127
17.472244897959182	17.739274376417235	38	127
17.92501133786848	18.18045351473923	38	127
17.92501133786848	18.18045351473923	62	127
17.92501133786848	18.18045351473923	66	127
17.92501133786848	18.18045351473923	57	127
17.92501133786848	18.18045351473923	78	127
18.459092970521542	20.46761904761905	38	127
18.459092970521542	19.004761904761907	57	127
18.459092970521542	19.503968253968253	74	127
18.459092970521542	20.46761904761905	66	127
19.004761904761907	19.271791383219956	59	127
19.271791383219956	19.503968253968253	61	127
19.503968253968253	20.46761904761905	69	127
19.503968253968253	20.46761904761905	62	127
20.46761904761905	20.943628117913832	69	127
20.46761904761905	20.943628117913832	67	127
20.46761904761905	20.943628117913832	45	127
20.46761904761905	21.19904761904762	69	127
20.46761904761905	21.39641723356009	61	127
21.268707482993197	21.39641723356009	69	127
21.39641723356009	21.663424036281178	69	127
21.39641723356009	21.663424036281178	67	127
21.39641723356009	21.663424036281178	45	127
21.39641723356009	21.8027664399093	61	127
21.39641723356009	21.8027664399093	76	127
21.8027664399093	21.930476190476192	74	127
21.8027664399093	21.930476190476192	62	127
21.930476190476192	22.151065759637188	45	127
21.930476190476192	22.151065759637188	69	127
21.930476190476192	22.151065759637188	67	127
21.930476190476192	22.27877551020408	73	127
21.930476190476192	22.27877551020408	64	127
22.27877551020408	22.418095238095237	62	127
22.27877551020408	22.418095238095237	71	127
22.418095238095237	22.66190476190476	69	127
22.418095238095237	23.370113378684806	45	127
22.418095238095237	22.66190476190476	61	127
22.418095238095237	22.66190476190476	67	127
22.418095238095237	23.857732426303855	69	127
22.92891156462585	23.370113378684806	64	127
22.92891156462585	23.370113378684806	61	127
23.370113378684806	23.857732426303855	66	127
23.370113378684806	23.857732426303855	62	127
23.857732426303855	24.275691609977326	67	127
23.857732426303855	24.275691609977326	69	127
23.857732426303855	24.275691609977326	64	127
24.275691609977326	24.79814058956916	66	127
24.275691609977326	24.79814058956916	57	127
24.275691609977326	24.79814058956916	62	127
24.275691609977326	24.79814058956916	38	127
24.275691609977326	24.902630385487527	74	127
25.041950113378686	25.274149659863944	74	127
25.274149659863944	25.425079365079366	78	127
25.274149659863944	25.425079365079366	57	127
25.274149659863944	25.425079365079366	66	127
25.274149659863944	25.425079365079366	62	127
25.274149659863944	25.425079365079366	38	127
25.692108843537415	25.947528344671202	62	127
25.692108843537415	25.947528344671202	78	127
25.692108843537415	25.947528344671202	57	127
25.692108843537415	25.947528344671202	66	127
25.692108843537415	25.947528344671202	38	127
26.191337868480726	26.713786848072562	57	127
26.191337868480726	27.677414965986394	38	127
26.191337868480726	27.236235827664398	74	127
26.191337868480726	27.677414965986394	66	127
26.713786848072562	27.108526077097505	59	127
27.108526077097505	27.236235827664398	61	127
27.236235827664398	27.677414965986394	62	127
27.236235827664398	27.677414965986394	69	127
27.677414965986394	27.898004535147393	57	127
27.677414965986394	28.141814058956918	74	127
27.677414965986394	28.141814058956918	66	127
27.677414965986394	28.141814058956918	38	127
28.141814058956918	29.639501133786847	40	127
28.141814058956918	28.42045351473923	73	127
28.141814058956918	29.639501133786847	64	127
28.141814058956918	28.65265306122449	57	127
28.42045351473923	28.548163265306123	74	127
28.548163265306123	28.65265306122449	73	127
28.65265306122449	29.012562358276643	71	127
28.65265306122449	29.012562358276643	56	127
29.012562358276643	29.140272108843536	73	127
29.012562358276643	29.140272108843536	57	127
29.140272108843536	29.639501133786847	59	127
29.140272108843536	29.639501133786847	74	127
29.639501133786847	30.127120181405896	68	127
29.639501133786847	30.127120181405896	64	127
29.639501133786847	30.127120181405896	62	127
29.639501133786847	30.127120181405896	40	127
30.127120181405896	30.382539682539683	61	127
30.127120181405896	30.382539682539683	64	127
30.127120181405896	31.13718820861678	33	127
30.127120181405896	31.67124716553288	69	127
30.63795918367347	31.13718820861678	57	127
30.63795918367347	31.13718820861678	61	127
31.13718820861678	31.67124716553288	64	127
31.13718820861678	31.67124716553288	61	127
31.67124716553288	32.15884353741497	69	127
31.67124716553288	32.15884353741497	66	127
31.67124716553288	32.15884353741497	62	127
32.15884353741497	32.68131519274377	67	127
32.15884353741497	32.68131519274377	64	127
32.15884353741497	32.68131519274377	45	127
32.15884353741497	32.85546485260771	73	127
32.85546485260771	33.01800453514739	73	127
33.01800453514739	33.28503401360544	67	127
33.01800453514739	33.28503401360544	74	127
33.01800453514739	33.28503401360544	64	127
33.01800453514739	33.28503401360544	45	127
33.28503401360544	33.41274376417233	73	127
33.41274376417233	33.66816326530612	71	127
33.41274376417233	33.66816326530612	67	127
33.41274376417233	33.66816326530612	64	127
33.41274376417233	33.66816326530612	45	127
33.66816326530612	33.93517006802721	73	127
33.93517006802721	34.202222222222225	38	127
33.93517006802721	36.001768707482995	66	127
33.93517006802721	34.968480725623586	74	127
33.93517006802721	36.001768707482995	62	127
34.469251700680275	34.75950113378685	38	127
34.968480725623586	35.2471201814059	42	127
34.968480725623586	35.514149659863946	69	127
35.514149659863946	36.001768707482995	74	127
35.514149659863946	35.76956916099773	38	127
36.001768707482995	36.45455782312925	67	127
36.001768707482995	36.82607709750567	64	127
36.001768707482995	36.45455782312925	45	127
36.001768707482995	36.59385487528345	73	127
36.59385487528345	36.82607709750567	73	127
36.82607709750567	37.33691609977324	64	127
36.82607709750567	37.06988662131519	73	127
36.82607709750567	37.06988662131519	67	127
36.82607709750567	37.06988662131519	45	127
37.06988662131519	37.33691609977324	79	127
37.33691609977324	37.60394557823129	76	127
37.33691609977324	37.60394557823129	67	127
37.33691609977324	37.60394557823129	61	127
37.33691609977324	37.60394557823129	45	127
37.60394557823129	37.85934240362812	64	127
37.60394557823129	37.85934240362812	73	127
37.85934240362812	38.39342403628118	62	127
37.85934240362812	39.77498866213152	74	127
37.85934240362812	38.39342403628118	66	127
37.85934240362812	38.834603174603174	50	127
38.39342403628118	38.834603174603174	69	127
38.39342403628118	38.834603174603174	66	127
38.834603174603174	39.333832199546485	67	127
38.834603174603174	39.333832199546485	64	127
39.333832199546485	39.77498866213152	62	127
39.333832199546485	39.77498866213152	66	127
39.77498866213152	40.204580498866214	67	127
39.77498866213152	40.204580498866214	62	127
39.77498866213152	40.47160997732426	71	127
39.77498866213152	40.750249433106575	31	127
40.47160997732426	40.750249433106575	71	127
40.750249433106575	41.017278911564624	62	127
40.750249433106575	41.017278911564624	67	127
40.750249433106575	41.284285714285716	71	127
40.750249433106575	41.284285714285716	31	127
41.284285714285716	41.574557823129254	67	127
41.284285714285716	41.574557823129254	62	127
41.284285714285716	41.82997732426304	74	127
41.284285714285716	41.82997732426304	35	127
41.82997732426304	43.25800453514739	38	127
41.82997732426304	42.723945578231294	74	127
41.82997732426304	43.80367346938775	66	127
41.82997732426304	43.80367346938775	62	127
42.723945578231294	43.80367346938775	69	127
43.25800453514739	43.80367346938775	42	127
43.80367346938775	44.523492063492064	69	127
43.80367346938775	44.523492063492064	67	127
43.80367346938775	44.523492063492064	61	127
43.80367346938775	44.523492063492064	45	127
44.523492063492064	44.755691609977326	61	127
44.523492063492064	44.686031746031745	69	127
44.523492063492064	44.755691609977326	67	127
44.523492063492064	44.755691609977326	45	127
44.686031746031745	44.755691609977326	69	127
44.755691609977326	45.23167800453515	76	127
44.755691609977326	45.23167800453515	67	127
44.755691609977326	45.23167800453515	61	127
44.755691609977326	45.23167800453515	45	127
45.23167800453515	45.75414965986395	73	127
45.23167800453515	45.75414965986395	67	127
45.23167800453515	45.75414965986395	64	127
45.23167800453515	45.75414965986395	45	127
45.75414965986395	46.775827664399095	50	127
45.75414965986395	45.82380952380952	74	127
45.75414965986395	46.276598639455784	66	127
45.75414965986395	46.276598639455784	62	127
45.82380952380952	45.893469387755104	76	127
45.893469387755104	45.951519274376416	74	127
45.951519274376416	46.021179138322	76	127
46.021179138322	46.09083900226757	74	127
46.09083900226757	46.14888888888889	76	127
46.14888888888889	46.2069387755102	74	127
46.2069387755102	46.276598639455784	76	127
46.276598639455784	46.775827664399095	66	127
46.276598639455784	46.323038548752834	74	127
46.276598639455784	46.775827664399095	69	127
46.323038548752834	46.38108843537415	76	127
46.38108843537415	46.439138321995465	74	127
46.439138321995465	46.508798185941046	76	127
46.508798185941046	46.57845804988662	74	127
46.57845804988662	46.6481179138322	76	127
46.6481179138322	46.706167800453514	74	127
46.706167800453514	46.775827664399095	76	127
46.775827664399095	47.321496598639456	67	127
46.775827664399095	46.85709750566893	74	127
46.775827664399095	47.321496598639456	64	127
46.85709750566893	46.92675736961451	76	127
46.92675736961451	46.984807256235825	74	127
46.984807256235825	47.05446712018141	76	127
47.05446712018141	47.124104308390024	74	127
47.124104308390024	47.19378684807256	76	127
47.19378684807256	47.25181405895692	74	127
47.25181405895692	47.321496598639456	76	127
47.321496598639456	47.39115646258504	74	127
47.321496598639456	47.76267573696145	62	127
47.321496598639456	47.76267573696145	66	127
47.39115646258504	47.46081632653061	76	127
47.46081632653061	47.51886621315193	74	127
47.51886621315193	47.56530612244898	76	127
47.56530612244898	47.60013605442177	74	127
47.60013605442177	47.634965986394555	76	127
47.634965986394555	47.693015873015874	73	127
47.693015873015874	47.76267573696145	74	127
47.76267573696145	48.26190476190476	67	127
47.76267573696145	48.26190476190476	62	127
47.76267573696145	48.52893424036281	71	127
47.76267573696145	48.784353741496595	31	127
48.52893424036281	48.784353741496595	71	127
48.784353741496595	49.30680272108844	31	127
48.784353741496595	49.062993197278914	67	127
48.784353741496595	49.062993197278914	62	127
48.784353741496595	49.30680272108844	71	127
49.30680272108844	49.57383219954649	62	127
49.30680272108844	49.57383219954649	76	127
49.30680272108844	49.57383219954649	67	127
49.30680272108844	49.829251700680274	35	127
49.57383219954649	49.829251700680274	74	127
49.829251700680274	50.758049886621315	74	127
49.829251700680274	51.26888888888889	38	127
49.829251700680274	51.77972789115646	66	127
49.829251700680274	51.77972789115646	62	127
50.758049886621315	51.77972789115646	69	127
51.26888888888889	51.77972789115646	42	127
51.77972789115646	52.5227664399093	69	127
51.77972789115646	52.5227664399093	67	127
51.77972789115646	52.5227664399093	61	127
51.77972789115646	52.5227664399093	45	127
52.5227664399093	52.778185941043084	61	127
52.5227664399093	52.7085260770975	69	127
52.5227664399093	52.778185941043084	67	127
52.5227664399093	52.778185941043084	45	127
52.7085260770975	52.778185941043084	69	127
52.778185941043084	53.277414965986395	76	127
52.778185941043084	53.277414965986395	67	127
52.778185941043084	53.277414965986395	61	127
52.778185941043084	53.277414965986395	45	127
53.277414965986395	53.776643990929706	67	127
53.277414965986395	53.776643990929706	73	127
53.277414965986395	53.776643990929706	64	127
53.277414965986395	53.776643990929706	45	127
53.776643990929706	55.2859410430839	74	127
53.776643990929706	55.2859410430839	66	127
53.776643990929706	55.2859410430839	62	127
53.776643990929706	55.2859410430839	38	127
56.89972789115646	57.097097505668934	69	127
56.89972789115646	57.097097505668934	54	127
57.097097505668934	57.29446712018141	57	127
57.097097505668934	57.29446712018141	74	127
57.29446712018141	57.46861678004535	78	127
57.29446712018141	57.46861678004535	62	127
57.46861678004535	57.979455782312925	74	127
57.46861678004535	57.65437641723356	66	127
57.65437641723356	57.84013605442177	62	127
57.84013605442177	57.979455782312925	57	127
57.979455782312925	58.15360544217687	54	127
57.979455782312925	58.15360544217687	57	127
58.15360544217687	58.21165532879819	62	127
58.15360544217687	58.21165532879819	57	127
58.21165532879819	58.362585034013605	62	127
58.21165532879819	58.362585034013605	66	127
58.362585034013605	58.53673469387755	66	127
58.362585034013605	58.87342403628118	62	127
58.53673469387755	58.7108843537415	62	127
58.7108843537415	58.87342403628118	57	127
58.87342403628118	59.04757369614512	69	127
58.87342403628118	59.04757369614512	54	127
59.04757369614512	59.21011337868481	74	127
59.04757369614512	59.21011337868481	57	127
59.21011337868481	59.37265306122449	78	127
59.21011337868481	59.37265306122449	62	127
59.37265306122449	59.88349206349206	74	127
59.37265306122449	59.570022675736965	66	127
59.570022675736965	59.732562358276645	62	127
59.732562358276645	59.88349206349206	57	127
59.88349206349206	60.046031746031744	54	127
59.88349206349206	60.046031746031744	57	127
60.046031746031744	60.1853514739229	62	127
60.046031746031744	60.1853514739229	57	127
60.1853514739229	60.382721088435375	62	127
60.1853514739229	60.382721088435375	66	127
60.382721088435375	60.89356009070295	62	127
60.382721088435375	60.55687074829932	66	127
60.55687074829932	60.707800453514736	62	127
60.707800453514736	60.89356009070295	57	127
60.89356009070295	61.05609977324263	69	127
60.89356009070295	61.05609977324263	55	127
61.05609977324263	61.160589569161	76	127
61.05609977324263	61.160589569161	57	127
61.160589569161	61.311519274376415	79	127
61.160589569161	61.311519274376415	61	127
61.311519274376415	61.485668934240366	64	127
61.311519274376415	61.845578231292514	76	127
61.485668934240366	61.65981859410431	61	127
61.65981859410431	61.845578231292514	57	127
61.845578231292514	61.99650793650794	55	127
61.845578231292514	61.99650793650794	57	127
61.99650793650794	62.1009977324263	57	127
61.99650793650794	62.1009977324263	64	127
62.1009977324263	62.251927437641726	61	127
62.1009977324263	62.251927437641726	67	127
62.251927437641726	62.739546485260774	64	127
62.251927437641726	62.43768707482993	64	127
62.43768707482993	62.57700680272109	61	127
62.57700680272109	62.739546485260774	57	127
62.739546485260774	62.91369614512472	69	127
62.739546485260774	62.91369614512472	55	127
62.91369614512472	63.08784580498866	57	127
62.91369614512472	63.08784580498866	76	127
63.08784580498866	63.18072562358277	61	127
63.08784580498866	63.18072562358277	79	127
63.18072562358277	63.331655328798185	64	127
63.18072562358277	63.668344671201815	76	127
63.331655328798185	63.5174149659864	61	127
63.5174149659864	63.668344671201815	57	127
63.668344671201815	63.84249433106576	57	127
63.668344671201815	63.84249433106576	55	127
63.84249433106576	64.01664399092971	64	127
63.84249433106576	64.01664399092971	57	127
64.01664399092971	64.17916099773242	67	127
64.01664399092971	64.17916099773242	61	127
64.17916099773242	64.34172335600907	64	127
64.17916099773242	64.69	64	127
64.34172335600907	64.52748299319728	61	127
64.52748299319728	64.69	57	127
64.69	64.85256235827664	69	127
64.69	64.85256235827664	54	127
64.85256235827664	65.00349206349206	57	127
64.85256235827664	65.00349206349206	74	127
65.00349206349206	65.177641723356	78	127
65.00349206349206	65.177641723356	62	127
65.177641723356	65.618820861678	74	127
65.177641723356	65.35179138321996	66	127
65.35179138321996	65.53755102040816	62	127
65.53755102040816	65.618820861678	57	127
65.618820861678	65.79297052154195	54	127
65.618820861678	65.79297052154195	57	127
65.79297052154195	65.9438775510204	62	127
65.79297052154195	65.9438775510204	57	127
65.9438775510204	66.09480725623582	62	127
65.9438775510204	66.09480725623582	66	127
66.09480725623582	66.6056462585034	62	127
66.09480725623582	66.280589569161	66	127
66.280589569161	66.43151927437641	62	127
66.43151927437641	66.6056462585034	57	127
66.6056462585034	66.77981859410431	54	127
66.6056462585034	66.77981859410431	69	127
66.77981859410431	66.93074829931973	57	127
66.77981859410431	66.93074829931973	74	127
66.93074829931973	67.0352380952381	78	127
66.93074829931973	67.0352380952381	62	127
67.0352380952381	67.54607709750567	74	127
67.0352380952381	67.22097505668934	66	127
67.22097505668934	67.39514739229026	62	127
67.39514739229026	67.54607709750567	57	127
67.54607709750567	67.74344671201814	57	127
67.54607709750567	67.74344671201814	54	127
67.74344671201814	67.89437641723356	62	127
67.74344671201814	67.89437641723356	57	127
67.89437641723356	68.0685260770975	62	127
67.89437641723356	68.0685260770975	66	127
68.0685260770975	68.52131519274377	62	127
68.0685260770975	68.21945578231292	66	127
68.21945578231292	68.34716553287981	62	127
68.34716553287981	68.52131519274377	57	127
68.52131519274377	68.70707482993197	69	127
68.52131519274377	68.70707482993197	52	127
68.70707482993197	68.88120181405895	57	127
68.70707482993197	68.88120181405895	73	127
68.88120181405895	69.06698412698412	76	127
68.88120181405895	69.06698412698412	61	127
69.06698412698412	69.19469387755102	64	127
69.06698412698412	69.50816326530612	73	127
69.19469387755102	69.3572335600907	61	127
69.3572335600907	69.50816326530612	57	127
69.50816326530612	69.63587301587302	52	127
69.50816326530612	69.63587301587302	59	127
69.63587301587302	69.81002267573696	62	127
69.63587301587302	69.81002267573696	59	127
69.81002267573696	69.99578231292517	62	127
69.81002267573696	69.99578231292517	64	127
69.99578231292517	70.16993197278912	64	127
69.99578231292517	70.52984126984127	62	127
70.16993197278912	70.34408163265306	62	127
70.34408163265306	70.52984126984127	59	127
70.52984126984127	70.66916099773243	69	127
70.52984126984127	70.66916099773243	61	127
70.52984126984127	70.92458049886622	57	127
70.66916099773243	70.80848072562358	73	127
70.66916099773243	70.80848072562358	57	127
70.80848072562358	70.92458049886622	76	127
70.80848072562358	70.92458049886622	61	127
70.92458049886622	71.44702947845805	64	127
70.92458049886622	71.09873015873016	57	127
70.92458049886622	71.44702947845805	79	127
71.09873015873016	71.2728798185941	61	127
71.2728798185941	71.44702947845805	64	127
71.44702947845805	71.60956916099774	54	127
71.44702947845805	71.95786848072562	78	127
71.44702947845805	71.95786848072562	62	127
71.60956916099774	71.78371882086168	57	127
71.78371882086168	71.95786848072562	62	127
71.95786848072562	72.50353741496599	57	127
71.95786848072562	72.13201814058957	61	127
71.95786848072562	72.50353741496599	76	127
72.13201814058957	72.32938775510205	57	127
72.32938775510205	72.50353741496599	55	127
72.50353741496599	72.6660544217687	69	127
72.50353741496599	72.6660544217687	54	127
72.6660544217687	72.81698412698412	57	127
72.6660544217687	72.81698412698412	74	127
72.81698412698412	72.99115646258504	78	127
72.81698412698412	72.99115646258504	62	127
72.99115646258504	73.51360544217687	74	127
72.99115646258504	73.16530612244898	66	127
73.16530612244898	73.3510657596372	62	127
73.3510657596372	73.51360544217687	57	127
73.51360544217687	73.68773242630385	54	127
73.51360544217687	73.68773242630385	57	127
73.68773242630385	73.8502947845805	62	127
73.68773242630385	73.8502947845805	57	127
73.8502947845805	73.98961451247166	62	127
73.8502947845805	73.98961451247166	66	127
73.98961451247166	74.44240362811792	62	127
73.98961451247166	74.09410430839003	66	127
74.09410430839003	74.27986394557823	62	127
74.27986394557823	74.44240362811792	57	127
74.44240362811792	74.61655328798186	54	127
74.44240362811792	74.61655328798186	69	127
74.61655328798186	74.80231292517007	57	127
74.61655328798186	74.80231292517007	74	127
74.80231292517007	74.95324263038549	62	127
74.80231292517007	74.95324263038549	78	127
74.95324263038549	75.11578231292518	66	127
74.95324263038549	75.47566893424036	74	127
75.11578231292518	75.3247619047619	62	127
75.3247619047619	75.47566893424036	57	127
75.47566893424036	75.64984126984127	54	127
75.47566893424036	75.64984126984127	57	127
75.64984126984127	75.78916099773242	62	127
75.64984126984127	75.78916099773242	57	127
75.78916099773242	75.95170068027211	62	127
75.78916099773242	75.95170068027211	66	127
75.95170068027211	76.13746031746032	66	127
75.95170068027211	76.46253968253968	62	127
76.13746031746032	76.28839002267574	62	127
76.28839002267574	76.46253968253968	57	127
76.46253968253968	76.6482993197279	69	127
76.46253968253968	76.6482993197279	55	127
76.6482993197279	76.78761904761905	57	127
76.6482993197279	76.78761904761905	76	127
76.78761904761905	76.91532879818594	79	127
76.78761904761905	76.91532879818594	61	127
76.91532879818594	77.42616780045351	76	127
76.91532879818594	77.08947845804988	64	127
77.08947845804988	77.25201814058957	61	127
77.25201814058957	77.42616780045351	57	127
77.42616780045351	77.60031746031746	55	127
77.42616780045351	77.60031746031746	57	127
77.60031746031746	77.7164172335601	57	127
77.60031746031746	77.7164172335601	64	127
77.7164172335601	77.87893424036281	61	127
77.7164172335601	77.87893424036281	67	127
77.87893424036281	78.07632653061225	64	127
77.87893424036281	78.4362358276644	64	127
78.07632653061225	78.26206349206349	61	127
78.26206349206349	78.4362358276644	57	127
78.4362358276644	78.61038548752835	69	127
78.4362358276644	78.61038548752835	55	127
78.61038548752835	78.71487528344672	57	127
78.61038548752835	78.71487528344672	76	127
78.71487528344672	78.83097505668934	61	127
78.71487528344672	78.83097505668934	79	127
78.83097505668934	78.99351473922903	64	127
78.83097505668934	79.34181405895691	76	127
78.99351473922903	79.15603174603174	61	127
79.15603174603174	79.34181405895691	57	127
79.34181405895691	79.5159410430839	55	127
79.34181405895691	79.5159410430839	57	127
79.5159410430839	79.69011337868481	64	127
79.5159410430839	79.69011337868481	57	127
79.69011337868481	79.87587301587301	67	127
79.69011337868481	79.87587301587301	61	127
79.87587301587301	80.05	64	127
79.87587301587301	80.31705215419501	64	127
80.05	80.18934240362812	61	127
80.18934240362812	80.31705215419501	57	127
80.31705215419501	80.50281179138322	69	127
80.31705215419501	80.50281179138322	54	127
80.50281179138322	80.67696145124717	57	127
80.50281179138322	80.67696145124717	74	127
80.67696145124717	80.87433106575963	78	127
80.67696145124717	80.87433106575963	62	127
80.87433106575963	81.04845804988662	66	127
80.87433106575963	81.37356009070295	74	127
81.04845804988662	81.21102040816326	62	127
81.21102040816326	81.37356009070295	57	127
81.37356009070295	81.53609977324263	54	127
81.37356009070295	81.53609977324263	57	127
81.53609977324263	81.62897959183674	57	127
81.53609977324263	81.62897959183674	62	127
81.62897959183674	81.79151927437641	66	127
81.62897959183674	81.79151927437641	62	127
81.79151927437641	82.31396825396826	62	127
81.79151927437641	81.96566893424037	66	127
81.96566893424037	82.15142857142857	62	127
82.15142857142857	82.31396825396826	57	127
82.31396825396826	82.4881179138322	69	127
82.31396825396826	82.4881179138322	54	127
82.4881179138322	82.66226757369614	74	127
82.4881179138322	82.66226757369614	57	127
82.66226757369614	82.8015873015873	62	127
82.66226757369614	82.8015873015873	78	127
82.8015873015873	82.96410430839002	66	127
82.8015873015873	83.30081632653061	74	127
82.96410430839002	83.12666666666667	62	127
83.12666666666667	83.30081632653061	57	127
83.30081632653061	83.4749433106576	54	127
83.30081632653061	83.4749433106576	57	127
83.4749433106576	83.64911564625851	62	127
83.4749433106576	83.64911564625851	57	127
83.64911564625851	83.82326530612245	62	127
83.64911564625851	83.82326530612245	66	127
83.82326530612245	84.3108843537415	62	127
83.82326530612245	83.98578231292517	66	127
83.98578231292517	84.13673469387756	62	127
84.13673469387756	84.3108843537415	57	127
84.3108843537415	84.42698412698412	52	127
84.3108843537415	84.42698412698412	69	127
84.42698412698412	84.61274376417234	57	127
84.42698412698412	84.61274376417234	73	127
84.61274376417234	84.76367346938775	76	127
84.61274376417234	84.76367346938775	61	127
84.76367346938775	85.21646258503401	73	127
84.76367346938775	84.9378231292517	64	127
84.9378231292517	85.11195011337868	61	127
85.11195011337868	85.21646258503401	57	127
85.21646258503401	85.40222222222222	52	127
85.21646258503401	85.40222222222222	59	127
85.40222222222222	85.56476190476191	62	127
85.40222222222222	85.56476190476191	59	127
85.56476190476191	85.73891156462585	64	127
85.56476190476191	85.73891156462585	62	127
85.73891156462585	85.9130612244898	64	127
85.73891156462585	86.2265306122449	62	127
85.9130612244898	86.08721088435374	62	127
86.08721088435374	86.2265306122449	59	127
86.2265306122449	86.40068027210884	69	127
86.2265306122449	86.40068027210884	61	127
86.2265306122449	86.6677097505669	57	127
86.40068027210884	86.54	57	127
86.40068027210884	86.54	73	127
86.54	86.6677097505669	76	127
86.54	86.6677097505669	61	127
86.6677097505669	86.7954195011338	57	127
86.6677097505669	87.15530612244898	57	127
86.6677097505669	87.15530612244898	81	127
86.7954195011338	86.96956916099774	61	127
86.96956916099774	87.15530612244898	64	127
87.15530612244898	87.67777777777778	61	127
87.15530612244898	87.34108843537415	55	127
87.15530612244898	87.67777777777778	76	127
87.34108843537415	87.51521541950113	57	127
87.51521541950113	87.67777777777778	61	127
87.67777777777778	88.20022675736962	78	127
87.67777777777778	87.85192743764172	54	127
87.67777777777778	88.20022675736962	62	127
87.85192743764172	88.0260544217687	57	127
88.0260544217687	88.20022675736962	62	127
88.20022675736962	88.37437641723356	76	127
88.20022675736962	88.37437641723356	55	127
88.20022675736962	88.37437641723356	67	127
88.37437641723356	88.53689342403628	57	127
88.37437641723356	88.53689342403628	64	127
88.37437641723356	88.53689342403628	79	127
88.53689342403628	88.69945578231292	76	127
88.53689342403628	88.69945578231292	61	127
88.53689342403628	88.69945578231292	67	127
88.69945578231292	89.24512471655329	69	127
88.69945578231292	88.87360544217687	64	127
88.69945578231292	89.24512471655329	57	127
88.87360544217687	89.05936507936508	61	127
89.05936507936508	89.24512471655329	57	127
89.24512471655329	89.30315192743764	81	127
89.24512471655329	89.41927437641723	55	127
89.24512471655329	89.41927437641723	64	127
89.30315192743764	89.37283446712019	83	127
89.37283446712019	89.44249433106576	81	127
89.41927437641723	89.57020408163265	67	127
89.41927437641723	89.57020408163265	57	127
89.44249433106576	89.50054421768708	83	127
89.50054421768708	89.54698412698413	81	127
89.54698412698413	89.6166439909297	83	127
89.57020408163265	89.7443537414966	61	127
89.57020408163265	89.7443537414966	64	127
89.6166439909297	89.67469387755102	81	127
89.67469387755102	89.7443537414966	83	127
89.7443537414966	89.9417006802721	64	127
89.7443537414966	89.82562358276644	81	127
89.7443537414966	90.25519274376417	57	127
89.82562358276644	89.89528344671201	83	127
89.89528344671201	89.9649433106576	81	127
89.9417006802721	90.10426303854875	61	127
89.9649433106576	90.02299319727891	83	127
90.02299319727891	90.12748299319728	80	127
90.10426303854875	90.25519274376417	57	127
90.12748299319728	90.25519274376417	81	127
90.25519274376417	90.42931972789115	66	127
90.25519274376417	90.42931972789115	74	127
90.25519274376417	90.42931972789115	54	127
90.42931972789115	90.5918820861678	62	127
90.42931972789115	90.5918820861678	78	127
90.42931972789115	90.5918820861678	57	127
90.5918820861678	90.78925170068027	62	127
90.5918820861678	90.78925170068027	74	127
90.5918820861678	90.78925170068027	66	127
90.78925170068027	91.27687074829932	57	127
90.78925170068027	90.95179138321996	66	127
90.78925170068027	91.27687074829932	69	127
90.95179138321996	91.10272108843537	62	127
91.10272108843537	91.27687074829932	57	127
91.27687074829932	91.32328798185941	81	127
91.27687074829932	91.41619047619048	62	127
91.27687074829932	91.41619047619048	54	127
91.32328798185941	91.38136054421769	83	127
91.38136054421769	91.439410430839	81	127
91.41619047619048	91.60195011337869	66	127
91.41619047619048	91.60195011337869	57	127
91.439410430839	91.50907029478458	83	127
91.50907029478458	91.5787074829932	81	127
91.5787074829932	91.63678004535147	83	127
91.60195011337869	91.71804988662132	62	127
91.60195011337869	91.71804988662132	62	127
91.63678004535147	91.69482993197279	81	127
91.69482993197279	91.71804988662132	83	127
91.71804988662132	91.78770975056689	81	127
91.71804988662132	92.25210884353741	57	127
91.71804988662132	91.89219954648526	66	127
91.78770975056689	91.84575963718821	83	127
91.84575963718821	91.91541950113378	81	127
91.89219954648526	92.08954648526077	62	127
91.91541950113378	91.99668934240363	83	127
91.99668934240363	92.11278911564627	80	127
92.08954648526077	92.25210884353741	57	127
92.11278911564627	92.25210884353741	81	127
92.25210884353741	92.42625850340136	67	127
92.25210884353741	92.42625850340136	76	127
92.25210884353741	92.42625850340136	55	127
92.42625850340136	92.56557823129252	57	127
92.42625850340136	92.56557823129252	64	127
92.42625850340136	92.56557823129252	79	127
92.56557823129252	92.70489795918367	76	127
92.56557823129252	92.70489795918367	61	127
92.56557823129252	92.70489795918367	67	127
92.70489795918367	93.22734693877551	69	127
92.70489795918367	92.87904761904763	64	127
92.70489795918367	93.22734693877551	57	127
92.87904761904763	93.05319727891157	61	127
93.05319727891157	93.22734693877551	57	127
93.22734693877551	93.29700680272109	81	127
93.22734693877551	93.40149659863945	55	127
93.22734693877551	93.40149659863945	64	127
93.29700680272109	93.3666439909297	83	127
93.3666439909297	93.42471655328798	81	127
93.40149659863945	93.58725623582767	57	127
93.40149659863945	93.58725623582767	67	127
93.42471655328798	93.4943537414966	83	127
93.4943537414966	93.56403628117914	81	127
93.56403628117914	93.63369614512472	83	127
93.58725623582767	93.76140589569161	64	127
93.58725623582767	93.76140589569161	61	127
93.63369614512472	93.69174603174604	81	127
93.69174603174604	93.76140589569161	83	127
93.76140589569161	94.27224489795918	57	127
93.76140589569161	93.83106575963718	81	127
93.76140589569161	93.9239455782313	64	127
93.83106575963718	93.8891156462585	83	127
93.8891156462585	93.94716553287982	81	127
93.9239455782313	94.10968253968254	61	127
93.94716553287982	94.0168253968254	83	127
94.0168253968254	94.15614512471656	80	127
94.10968253968254	94.27224489795918	57	127
94.15614512471656	94.27224489795918	81	127
94.27224489795918	94.39995464852608	74	127
94.27224489795918	94.39995464852608	54	127
94.27224489795918	94.39995464852608	66	127
94.39995464852608	94.53927437641724	62	127
94.39995464852608	94.53927437641724	57	127
94.39995464852608	94.53927437641724	78	127
94.53927437641724	94.70181405895691	74	127
94.53927437641724	94.70181405895691	66	127
94.53927437641724	94.70181405895691	62	127
94.70181405895691	95.16621315192744	57	127
94.70181405895691	95.16621315192744	69	127
94.70181405895691	94.88757369614513	66	127
94.88757369614513	95.07333333333334	62	127
95.07333333333334	95.16621315192744	57	127
95.16621315192744	95.22426303854876	74	127
95.16621315192744	95.34036281179138	54	127
95.16621315192744	95.34036281179138	62	127
95.22426303854876	95.29392290249433	76	127
95.29392290249433	95.37519274376417	74	127
95.34036281179138	95.53773242630386	57	127
95.34036281179138	95.53773242630386	66	127
95.37519274376417	95.4332426303855	76	127
95.4332426303855	95.50290249433107	74	127
95.50290249433107	95.58417233560091	76	127
95.53773242630386	95.70027210884354	62	127
95.53773242630386	95.70027210884354	62	127
95.58417233560091	95.65383219954649	74	127
95.65383219954649	95.70027210884354	76	127
95.70027210884354	95.74671201814058	74	127
95.70027210884354	95.87442176870748	66	127
95.70027210884354	96.18789115646258	57	127
95.74671201814058	95.81637188208617	76	127
95.81637188208617	95.897641723356	74	127
95.87442176870748	96.0253514739229	62	127
95.897641723356	95.95569160997732	76	127
95.95569160997732	96.07179138321996	73	127
96.0253514739229	96.18789115646258	57	127
96.07179138321996	96.18789115646258	74	127
96.18789115646258	96.36204081632653	55	127
96.18789115646258	96.36204081632653	59	127
96.18789115646258	96.36204081632653	74	127
96.36204081632653	96.52458049886621	62	127
96.36204081632653	96.52458049886621	71	127
96.36204081632653	96.52458049886621	62	127
96.52458049886621	96.60585034013606	74	127
96.52458049886621	96.60585034013606	67	127
96.52458049886621	96.60585034013606	59	127
96.60585034013606	97.10507936507936	62	127
96.60585034013606	96.78	62	127
96.60585034013606	97.10507936507936	79	127
96.78	96.94253968253969	59	127
96.94253968253969	97.10507936507936	55	127
97.10507936507936	97.25600907029478	59	127
97.10507936507936	97.16312925170068	74	127
97.10507936507936	97.25600907029478	62	127
97.16312925170068	97.23278911564626	76	127
97.23278911564626	97.2792290249433	74	127
97.25600907029478	97.39532879818594	62	127
97.25600907029478	97.39532879818594	59	127
97.2792290249433	97.33727891156462	76	127
97.33727891156462	97.37210884353742	74	127
97.37210884353742	97.44176870748299	76	127
97.39532879818594	97.55786848072562	67	127
97.39532879818594	97.55786848072562	62	127
97.44176870748299	97.49981859410431	74	127
97.49981859410431	97.55786848072562	76	127
97.55786848072562	97.61591836734694	74	127
97.55786848072562	97.73201814058957	62	127
97.55786848072562	98.05709750566893	67	127
97.61591836734694	97.68557823129251	76	127
97.68557823129251	97.7552380952381	74	127
97.73201814058957	97.87133786848072	59	127
97.7552380952381	97.79006802721088	76	127
97.79006802721088	97.91777777777777	73	127
97.87133786848072	98.05709750566893	55	127
97.91777777777777	98.05709750566893	74	127
98.05709750566893	98.23124716553288	74	127
98.05709750566893	98.23124716553288	57	127
98.05709750566893	98.23124716553288	66	127
98.23124716553288	98.40539682539682	62	127
98.23124716553288	98.40539682539682	69	127
98.23124716553288	98.40539682539682	62	127
98.40539682539682	98.57954648526078	57	127
98.40539682539682	98.57954648526078	66	127
98.40539682539682	98.57954648526078	74	127
98.57954648526078	98.74208616780045	62	127
98.57954648526078	99.06716553287981	78	127
98.57954648526078	99.06716553287981	62	127
98.74208616780045	98.9162358276644	57	127
98.9162358276644	99.06716553287981	54	127
99.06716553287981	99.17165532879818	57	127
99.06716553287981	99.17165532879818	62	127
99.06716553287981	99.1368253968254	83	127
99.1368253968254	99.17165532879818	81	127
99.17165532879818	99.29936507936507	57	127
99.17165532879818	99.29936507936507	62	127
99.17165532879818	99.2297052154195	83	127
99.2297052154195	99.29936507936507	81	127
99.29936507936507	99.34580498866214	83	127
99.29936507936507	99.48512471655329	66	127
99.29936507936507	99.48512471655329	62	127
99.34580498866214	99.41546485260771	81	127
99.41546485260771	99.48512471655329	83	127
99.48512471655329	100.00757369614513	66	127
99.48512471655329	99.55478458049886	81	127
99.48512471655329	99.6360544217687	62	127
99.55478458049886	99.58961451247166	83	127
99.58961451247166	99.65927437641723	81	127
99.6360544217687	99.82181405895692	57	127
99.65927437641723	99.72893424036282	83	127
99.72893424036282	99.87986394557824	80	127
99.82181405895692	100.00757369614513	54	127
99.87986394557824	100.00757369614513	81	127
100.00757369614513	100.18172335600907	55	127
100.00757369614513	100.18172335600907	67	127
100.00757369614513	100.18172335600907	76	127
100.18172335600907	100.36748299319729	57	127
100.18172335600907	100.36748299319729	64	127
100.18172335600907	100.36748299319729	79	127
100.36748299319729	100.48358276643991	61	127
100.36748299319729	100.48358276643991	67	127
100.36748299319729	100.48358276643991	76	127
100.48358276643991	100.65773242630385	64	127
100.48358276643991	100.99442176870748	69	127
100.48358276643991	100.99442176870748	57	127
100.65773242630385	100.84349206349206	61	127
100.84349206349206	100.99442176870748	57	127
100.99442176870748	101.16857142857143	55	127
100.99442176870748	101.16857142857143	61	127
100.99442176870748	101.06408163265306	81	127
101.06408163265306	101.12213151927438	83	127
101.12213151927438	101.19179138321995	81	127
101.16857142857143	101.35433106575964	57	127
101.16857142857143	101.35433106575964	64	127
101.19179138321995	101.26145124716554	83	127
101.26145124716554	101.33111111111111	81	127
101.33111111111111	101.38916099773243	83	127
101.35433106575964	101.52848072562358	61	127
101.35433106575964	101.52848072562358	67	127
101.38916099773243	101.458820861678	81	127
101.458820861678	101.52848072562358	83	127
101.52848072562358	102.01609977324263	57	127
101.52848072562358	101.60975056689342	81	127
101.52848072562358	101.7142403628118	64	127
101.60975056689342	101.66780045351474	83	127
101.66780045351474	101.73746031746032	81	127
101.7142403628118	101.87678004535148	61	127
101.73746031746032	101.80712018140589	83	127
101.80712018140589	101.9	80	127
101.87678004535148	102.01609977324263	57	127
101.9	102.01609977324263	81	127
102.01609977324263	102.17863945578232	54	127
102.01609977324263	102.17863945578232	74	127
102.01609977324263	102.17863945578232	66	127
102.17863945578232	102.36439909297052	62	127
102.17863945578232	102.36439909297052	76	127
102.17863945578232	102.36439909297052	57	127
102.36439909297052	102.51532879818595	74	127
102.36439909297052	102.51532879818595	66	127
102.36439909297052	102.51532879818595	62	127
102.51532879818595	102.99133786848073	66	127
102.51532879818595	102.66625850340137	74	127
102.51532879818595	102.99133786848073	62	127
102.66625850340137	102.85201814058956	76	127
102.85201814058956	102.99133786848073	74	127
102.99133786848073	103.4092970521542	67	127
102.99133786848073	103.14226757369615	76	127
102.99133786848073	103.4092970521542	61	127
103.14226757369615	103.25836734693877	79	127
103.25836734693877	103.4092970521542	76	127
103.4092970521542	103.5950566893424	78	127
103.4092970521542	103.96657596371882	69	127
103.4092970521542	103.96657596371882	60	127
103.5950566893424	103.79242630385488	81	127
103.79242630385488	103.96657596371882	78	127
103.96657596371882	104.1291156462585	79	127
103.96657596371882	104.1291156462585	67	127
103.96657596371882	104.1291156462585	59	127
104.1291156462585	104.30326530612246	62	127
104.1291156462585	104.30326530612246	71	127
104.1291156462585	104.30326530612246	62	127
104.30326530612246	104.45419501133787	74	127
104.30326530612246	104.45419501133787	67	127
104.30326530612246	104.45419501133787	59	127
104.45419501133787	104.61673469387755	62	127
104.45419501133787	104.91859410430838	79	127
104.45419501133787	104.91859410430838	67	127
104.61673469387755	104.76766439909296	59	127
104.76766439909296	104.91859410430838	55	127
104.91859410430838	104.9766439909297	74	127
104.91859410430838	105.09274376417234	59	127
104.91859410430838	105.09274376417234	62	127
104.9766439909297	105.04630385487529	76	127
105.04630385487529	105.11596371882086	74	127
105.09274376417234	105.24367346938776	62	127
105.09274376417234	105.24367346938776	59	127
105.11596371882086	105.17401360544218	76	127
105.17401360544218	105.22045351473923	74	127
105.22045351473923	105.29011337868481	76	127
105.24367346938776	105.4178231292517	62	127
105.24367346938776	105.4178231292517	67	127
105.29011337868481	105.35977324263038	74	127
105.35977324263038	105.4178231292517	76	127
105.4178231292517	105.90544217687075	67	127
105.4178231292517	105.48748299319728	74	127
105.4178231292517	105.60358276643991	62	127
105.48748299319728	105.55714285714286	76	127
105.55714285714286	105.62680272108844	74	127
105.60358276643991	105.75451247165533	59	127
105.62680272108844	105.67324263038549	76	127
105.67324263038549	105.78934240362811	73	127
105.75451247165533	105.90544217687075	55	127
105.78934240362811	105.90544217687075	74	127
105.90544217687075	106.09120181405896	74	127
105.90544217687075	106.09120181405896	57	127
105.90544217687075	106.09120181405896	66	127
106.09120181405896	106.25374149659864	62	127
106.09120181405896	106.25374149659864	69	127
106.09120181405896	106.25374149659864	62	127
106.25374149659864	106.43950113378685	74	127
106.25374149659864	106.43950113378685	57	127
106.25374149659864	106.43950113378685	66	127
106.43950113378685	106.90390022675737	78	127
106.43950113378685	106.90390022675737	62	127
106.43950113378685	106.59043083900227	62	127
106.59043083900227	106.76458049886621	57	127
106.76458049886621	106.90390022675737	54	127
106.90390022675737	106.95034013605442	81	127
106.90390022675737	106.99678004535147	57	127
106.90390022675737	106.99678004535147	62	127
106.95034013605442	106.99678004535147	83	127
106.99678004535147	107.00839002267574	81	127
106.99678004535147	107.13609977324263	57	127
106.99678004535147	107.13609977324263	62	127
107.00839002267574	107.06643990929705	83	127
107.06643990929705	107.11287981859411	81	127
107.11287981859411	107.17092970521541	83	127
107.13609977324263	107.31024943310658	66	127
107.13609977324263	107.31024943310658	62	127
107.17092970521541	107.240589569161	81	127
107.240589569161	107.31024943310658	83	127
107.31024943310658	107.8675283446712	66	127
107.31024943310658	107.3682993197279	81	127
107.31024943310658	107.49600907029479	62	127
107.3682993197279	107.43795918367347	83	127
107.43795918367347	107.51922902494331	81	127
107.49600907029479	107.67015873015873	57	127
107.51922902494331	107.58888888888889	83	127
107.58888888888889	107.71659863945578	80	127
107.67015873015873	107.8675283446712	54	127
107.71659863945578	107.8675283446712	81	127
107.8675283446712	108.04167800453514	76	127
107.8675283446712	108.04167800453514	55	127
107.8675283446712	108.04167800453514	67	127
108.04167800453514	108.20421768707483	57	127
108.04167800453514	108.20421768707483	64	127
108.04167800453514	108.20421768707483	79	127
108.20421768707483	108.35514739229025	61	127
108.20421768707483	108.35514739229025	67	127
108.20421768707483	108.35514739229025	76	127
108.35514739229025	108.88920634920635	57	127
108.35514739229025	108.50607709750567	64	127
108.35514739229025	108.88920634920635	69	127
108.50607709750567	108.68022675736961	61	127
108.68022675736961	108.88920634920635	57	127
108.88920634920635	108.97047619047619	81	127
108.88920634920635	109.07496598639456	55	127
108.88920634920635	109.07496598639456	64	127
108.97047619047619	109.02852607709751	83	127
109.02852607709751	109.09818594104308	81	127
109.07496598639456	109.26072562358277	57	127
109.07496598639456	109.26072562358277	67	127
109.09818594104308	109.16784580498866	83	127
109.16784580498866	109.2491156462585	81	127
109.2491156462585	109.30716553287982	83	127
109.26072562358277	109.45809523809524	61	127
109.26072562358277	109.45809523809524	64	127
109.30716553287982	109.38843537414967	81	127
109.38843537414967	109.45809523809524	83	127
109.45809523809524	109.52775510204081	81	127
109.45809523809524	109.63224489795918	64	127
109.45809523809524	109.98054421768707	57	127
109.52775510204081	109.58580498866213	83	127
109.58580498866213	109.65546485260771	81	127
109.63224489795918	109.8180045351474	61	127
109.65546485260771	109.72512471655328	83	127
109.72512471655328	109.85283446712018	80	127
109.8180045351474	109.98054421768707	57	127
109.85283446712018	109.98054421768707	81	127
109.98054421768707	110.14308390022676	66	127
109.98054421768707	110.14308390022676	74	127
109.98054421768707	110.14308390022676	54	127
110.14308390022676	110.3172335600907	62	127
110.14308390022676	110.3172335600907	69	127
110.14308390022676	110.3172335600907	57	127
110.3172335600907	110.49138321995464	62	127
110.3172335600907	110.49138321995464	74	127
110.3172335600907	110.49138321995464	57	127
110.49138321995464	110.68875283446712	66	127
110.49138321995464	111.06027210884353	62	127
110.49138321995464	111.06027210884353	78	127
110.68875283446712	110.87451247165532	62	127
110.87451247165532	111.06027210884353	57	127
111.06027210884353	111.698820861678	62	127
111.06027210884353	111.698820861678	54	127
114.0208163265306	114.71741496598639	57	127
114.0208163265306	114.61292517006802	81	127
114.0208163265306	114.71741496598639	57	127
114.61292517006802	114.71741496598639	88	127
114.71741496598639	114.9031746031746	86	127
114.71741496598639	115.82036281179138	38	127
114.71741496598639	115.42562358276643	62	127
114.71741496598639	115.42562358276643	54	127
114.9031746031746	115.10054421768707	85	127
115.10054421768707	115.28630385487529	86	127
115.28630385487529	115.4720634920635	90	127
115.4720634920635	115.64621315192744	88	127
115.55333333333333	115.82036281179138	54	127
115.55333333333333	115.82036281179138	62	127
115.64621315192744	115.82036281179138	86	127
115.82036281179138	116.0061224489796	85	127
115.82036281179138	116.0641723356009	66	127
115.82036281179138	116.0641723356009	62	127
116.0061224489796	116.11061224489796	86	127
116.11061224489796	116.24993197278911	83	127
116.24993197278911	116.5053514739229	62	127
116.24993197278911	116.42408163265306	81	127
116.24993197278911	116.5053514739229	66	127
116.42408163265306	116.59823129251701	83	127
116.59823129251701	116.74916099773243	80	127
116.74916099773243	117.71278911564626	62	127
116.74916099773243	116.9117006802721	81	127
116.74916099773243	118.15396825396826	54	127
116.9117006802721	117.08585034013605	78	127
117.08585034013605	117.24839002267574	77	127
117.24839002267574	117.42253968253968	78	127
117.42253968253968	117.58507936507937	74	127
117.58507936507937	117.71278911564626	73	127
117.71278911564626	117.85210884353741	74	127
117.71278911564626	118.15396825396826	57	127
117.85210884353741	118.00303854875284	69	127
118.00303854875284	118.15396825396826	68	127
118.15396825396826	118.33972789115646	69	127
118.33972789115646	118.50226757369614	66	127
118.50226757369614	118.67641723356009	62	127
118.67641723356009	118.79251700680273	57	127
118.67641723356009	119.21047619047619	57	127
118.67641723356009	119.45428571428572	55	127
118.67641723356009	119.45428571428572	33	127
118.79251700680273	118.92022675736962	61	127
118.92022675736962	119.07115646258504	64	127
119.07115646258504	119.14081632653061	69	127
119.14081632653061	119.29174603174603	73	127
119.21047619047619	119.45428571428572	57	127
119.29174603174603	119.45428571428572	76	127
119.45428571428572	119.72131519274376	57	127
119.45428571428572	119.61682539682539	81	127
119.45428571428572	119.72131519274376	55	127
119.45428571428572	119.84902494331065	64	127
119.61682539682539	119.8025850340136	83	127
119.8025850340136	119.98834467120182	84	127
119.84902494331065	119.98834467120182	62	127
119.98834467120182	120.25537414965986	55	127
119.98834467120182	120.16249433106576	85	127
119.98834467120182	120.38308390022675	61	127
119.98834467120182	120.25537414965986	57	127
120.16249433106576	120.3366439909297	86	127
120.3366439909297	120.52240362811791	87	127
120.38308390022675	120.52240362811791	59	127
120.52240362811791	120.69655328798186	88	127
120.52240362811791	121.46281179138322	55	127
120.52240362811791	121.46281179138322	45	127
120.52240362811791	121.46281179138322	57	127
120.52240362811791	121.46281179138322	57	127
120.69655328798186	120.8707029478458	89	127
120.8707029478458	121.02163265306122	90	127
121.02163265306122	121.16095238095238	91	127
121.16095238095238	121.30027210884354	95	127
121.30027210884354	121.46281179138322	93	127
121.46281179138322	121.63696145124716	90	127
121.63696145124716	121.7530612244898	93	127
121.7530612244898	121.90399092970522	91	127
121.90399092970522	122.07814058956916	88	127
121.90399092970522	122.41482993197279	57	127
121.90399092970522	122.41482993197279	57	127
122.07814058956916	122.2522902494331	91	127
122.2522902494331	122.35678004535147	90	127
122.35678004535147	122.41482993197279	88	127
122.41482993197279	122.54253968253968	86	127
122.41482993197279	122.90244897959184	62	127
122.41482993197279	122.90244897959184	54	127
122.41482993197279	123.29718820861677	38	127
122.54253968253968	122.68185941043085	85	127
122.68185941043085	122.7863492063492	86	127
122.7863492063492	122.93727891156463	90	127
122.93727891156463	123.12303854875283	88	127
123.03015873015873	123.29718820861677	54	127
123.03015873015873	123.29718820861677	62	127
123.12303854875283	123.29718820861677	86	127
123.29718820861677	123.51777777777778	62	127
123.29718820861677	123.47133786848073	85	127
123.29718820861677	123.51777777777778	66	127
123.47133786848073	123.5758276643991	86	127
123.5758276643991	123.68031746031745	83	127
123.68031746031745	123.86607709750567	81	127
123.68031746031745	123.94734693877551	66	127
123.68031746031745	123.94734693877551	62	127
123.86607709750567	124.00539682539683	83	127
124.00539682539683	124.08666666666667	80	127
124.08666666666667	125.50308390022676	54	127
124.08666666666667	124.27242630385487	81	127
124.08666666666667	124.94580498866213	62	127
124.27242630385487	124.41174603174603	78	127
124.41174603174603	124.50462585034013	77	127
124.50462585034013	124.59750566893425	78	127
124.59750566893425	124.74843537414966	74	127
124.74843537414966	124.94580498866213	73	127
124.94580498866213	125.50308390022676	57	127
124.94580498866213	125.11995464852608	74	127
125.11995464852608	125.29410430839002	69	127
125.29410430839002	125.50308390022676	68	127
125.50308390022676	125.70045351473922	69	127
125.50308390022676	126.0255328798186	62	127
125.50308390022676	126.0255328798186	54	127
125.50308390022676	126.0255328798186	38	127
125.70045351473922	125.86299319727891	66	127
125.86299319727891	126.0255328798186	62	127
126.0255328798186	126.47832199546485	61	127
126.0255328798186	126.17646258503402	61	127
126.0255328798186	126.47832199546485	40	127
126.0255328798186	126.74535147392291	52	127
126.17646258503402	126.33900226757369	64	127
126.33900226757369	126.47832199546485	69	127
126.47832199546485	126.74535147392291	57	127
126.47832199546485	126.58281179138322	73	127
126.58281179138322	126.62925170068027	76	127
126.62925170068027	126.74535147392291	81	127
126.74535147392291	126.88467120181406	85	127
126.74535147392291	126.88467120181406	61	127
126.74535147392291	126.88467120181406	57	127
126.88467120181406	127.36068027210884	62	127
126.88467120181406	127.01238095238095	88	127
126.88467120181406	127.36068027210884	56	127
126.88467120181406	127.36068027210884	40	127
127.01238095238095	127.17492063492064	87	127
127.17492063492064	127.36068027210884	90	127
127.36068027210884	127.52321995464852	88	127
127.36068027210884	127.72058956916099	62	127
127.36068027210884	127.72058956916099	56	127
127.52321995464852	127.56965986394557	86	127
127.56965986394557	127.72058956916099	83	127
127.72058956916099	127.88312925170068	81	127
127.72058956916099	127.96439909297052	57	127
127.72058956916099	127.96439909297052	61	127
127.72058956916099	128.74226757369615	33	127
127.88312925170068	128.04566893424035	85	127
128.04566893424035	128.2198185941043	83	127
128.2198185941043	128.74226757369615	64	127
128.2198185941043	128.74226757369615	61	127
128.2198185941043	128.39396825396827	81	127
128.39396825396827	128.5681179138322	88	127
128.5681179138322	128.74226757369615	86	127
128.74226757369615	129.1370068027211	64	127
128.74226757369615	128.8815873015873	85	127
128.74226757369615	129.1370068027211	67	127
128.8815873015873	128.9744671201814	95	127
128.9744671201814	129.1370068027211	93	127
129.1370068027211	129.62460317460318	55	127
129.1370068027211	129.26469387755103	97	127
129.1370068027211	129.62460317460318	64	127
129.26469387755103	129.4504761904762	95	127
129.4504761904762	129.55496598639456	91	127
129.55496598639456	129.62460317460318	88	127
129.62460317460318	130.62308390022676	38	127
129.62460317460318	129.7639455782313	86	127
129.62460317460318	130.22834467120182	62	127
129.62460317460318	130.22834467120182	54	127
129.7639455782313	129.93809523809523	85	127
129.93809523809523	130.10063492063492	86	127
130.10063492063492	130.27478458049887	90	127
130.27478458049887	130.4489342403628	88	127
130.3560544217687	130.62308390022676	54	127
130.3560544217687	130.62308390022676	62	127
130.4489342403628	130.62308390022676	86	127
130.62308390022676	130.855283446712	62	127
130.62308390022676	130.77401360544218	85	127
130.62308390022676	130.855283446712	66	127
130.77401360544218	130.87850340136055	86	127
130.87850340136055	131.00619047619048	83	127
131.00619047619048	131.18036281179138	81	127
131.00619047619048	131.27324263038548	66	127
131.00619047619048	131.27324263038548	62	127
131.18036281179138	131.36612244897958	83	127
131.36612244897958	131.54027210884354	80	127
131.54027210884354	132.43421768707483	62	127
131.54027210884354	132.82897959183674	54	127
131.54027210884354	131.6447619047619	81	127
131.6447619047619	131.77244897959184	78	127
131.77244897959184	131.93501133786847	77	127
131.93501133786847	132.10916099773243	78	127
132.10916099773243	132.28328798185942	74	127
132.28328798185942	132.43421768707483	73	127
132.43421768707483	132.59678004535147	74	127
132.43421768707483	132.82897959183674	57	127
132.59678004535147	132.67804988662132	69	127
132.67804988662132	132.82897959183674	68	127
132.82897959183674	133.01473922902494	69	127
133.01473922902494	133.16566893424036	66	127
133.16566893424036	133.33981859410432	62	127
133.33981859410432	133.51396825396824	57	127
133.33981859410432	134.01319727891158	57	127
133.33981859410432	134.23378684807255	33	127
133.33981859410432	134.23378684807255	55	127
133.51396825396824	133.67650793650793	61	127
133.67650793650793	133.81580498866214	64	127
133.81580498866214	133.943537414966	69	127
133.943537414966	134.10607709750568	73	127
134.01319727891158	134.23378684807255	57	127
134.10607709750568	134.23378684807255	76	127
134.23378684807255	134.54725623582766	64	127
134.23378684807255	134.33827664399092	81	127
134.23378684807255	134.41954648526078	55	127
134.23378684807255	134.41954648526078	57	127
134.33827664399092	134.5008163265306	83	127
134.5008163265306	134.6633560090703	84	127
134.54725623582766	134.6633560090703	62	127
134.6633560090703	135.02326530612245	61	127
134.6633560090703	134.82589569161	85	127
134.6633560090703	134.8839455782313	57	127
134.6633560090703	134.8839455782313	55	127
134.82589569161	134.9768253968254	86	127
134.9768253968254	135.17419501133787	87	127
135.02326530612245	135.17419501133787	59	127
135.17419501133787	135.2902947845805	88	127
135.17419501133787	136.09138321995465	57	127
135.17419501133787	136.09138321995465	57	127
135.17419501133787	136.09138321995465	55	127
135.17419501133787	136.09138321995465	45	127
135.2902947845805	135.4180045351474	89	127
135.4180045351474	135.60374149659864	90	127
135.60374149659864	135.76630385487528	91	127
135.76630385487528	135.9172335600907	95	127
135.9172335600907	136.09138321995465	93	127
136.09138321995465	136.25392290249434	90	127
136.25392290249434	136.34680272108844	93	127
136.34680272108844	136.4861224489796	91	127
136.4861224489796	136.60222222222222	88	127
136.4861224489796	136.83439909297053	57	127
136.4861224489796	136.83439909297053	57	127
136.60222222222222	136.66027210884354	91	127
136.66027210884354	136.7647619047619	90	127
136.7647619047619	136.83439909297053	88	127
136.83439909297053	137.39167800453515	62	127
136.83439909297053	137.00857142857143	86	127
136.83439909297053	137.39167800453515	54	127
136.83439909297053	137.76321995464852	38	127
137.00857142857143	137.17111111111112	85	127
137.17111111111112	137.28721088435375	86	127
137.28721088435375	137.43814058956917	90	127
137.43814058956917	137.6006575963719	88	127
137.53102040816327	137.76321995464852	62	127
137.53102040816327	137.76321995464852	54	127
137.6006575963719	137.76321995464852	86	127
137.76321995464852	137.9954195011338	66	127
137.76321995464852	137.9025396825397	85	127
137.76321995464852	137.9954195011338	62	127
137.9025396825397	138.07668934240363	86	127
138.07668934240363	138.20439909297053	83	127
138.20439909297053	138.37854875283446	81	127
138.20439909297053	138.47142857142856	66	127
138.20439909297053	138.47142857142856	62	127
138.37854875283446	138.55269841269842	83	127
138.55269841269842	138.66879818594106	80	127
138.66879818594106	140.10843537414965	54	127
138.66879818594106	138.8081179138322	81	127
138.66879818594106	139.60920634920635	62	127
138.8081179138322	138.9822448979592	78	127
138.9822448979592	139.09836734693877	77	127
139.09836734693877	139.27251700680273	78	127
139.27251700680273	139.44666666666666	74	127
139.44666666666666	139.60920634920635	73	127
139.60920634920635	139.7833560090703	74	127
139.60920634920635	140.10843537414965	57	127
139.7833560090703	139.95750566893423	69	127
139.95750566893423	140.10843537414965	68	127
140.10843537414965	140.23614512471656	69	127
140.10843537414965	140.57283446712017	62	127
140.10843537414965	140.57283446712017	54	127
140.10843537414965	140.57283446712017	38	127
140.23614512471656	140.39868480725625	66	127
140.39868480725625	140.57283446712017	62	127
140.57283446712017	141.0372335600907	40	127
140.57283446712017	140.71215419501135	61	127
140.57283446712017	141.0372335600907	61	127
140.57283446712017	141.37392290249434	52	127
140.71215419501135	140.86308390022677	64	127
140.86308390022677	141.0372335600907	69	127
141.0372335600907	141.37392290249434	57	127
141.0372335600907	141.14172335600907	73	127
141.14172335600907	141.2578231292517	76	127
141.2578231292517	141.37392290249434	81	127
141.37392290249434	141.50163265306122	85	127
141.37392290249434	141.50163265306122	61	127
141.37392290249434	141.50163265306122	57	127
141.50163265306122	141.89637188208616	62	127
141.50163265306122	141.67578231292518	88	127
141.50163265306122	141.89637188208616	56	127
141.50163265306122	141.89637188208616	40	127
141.67578231292518	141.80349206349206	87	127
141.80349206349206	141.89637188208616	90	127
141.89637188208616	142.03569160997733	88	127
141.89637188208616	142.34916099773244	62	127
141.89637188208616	142.34916099773244	56	127
142.03569160997733	142.20984126984126	86	127
142.20984126984126	142.34916099773244	83	127
142.34916099773244	142.50009070294786	81	127
142.34916099773244	142.5581179138322	57	127
142.34916099773244	142.5581179138322	61	127
142.34916099773244	143.25473922902495	33	127
142.50009070294786	142.60458049886623	80	127
142.60458049886623	142.7671201814059	81	127
142.7671201814059	142.90643990929706	85	127
142.7671201814059	143.25473922902495	61	127
142.7671201814059	143.25473922902495	57	127
142.90643990929706	143.080589569161	83	127
143.080589569161	143.25473922902495	81	127
143.25473922902495	143.67269841269842	64	127
143.25473922902495	143.41727891156464	88	127
143.25473922902495	143.67269841269842	61	127
143.41727891156464	143.56820861678005	86	127
143.56820861678005	143.67269841269842	85	127
143.67269841269842	143.88167800453516	62	127
143.67269841269842	143.88167800453516	66	127
143.67269841269842	143.84684807256235	90	127
143.84684807256235	143.90489795918367	88	127
143.88167800453516	144.06743764172336	54	127
143.88167800453516	144.06743764172336	62	127
143.90489795918367	144.06743764172336	86	127
144.06743764172336	144.65954648526076	61	127
144.06743764172336	144.1487074829932	91	127
144.06743764172336	144.65954648526076	55	127
144.06743764172336	144.65954648526076	45	127
144.24156462585034	144.33446712018142	90	127
144.41573696145124	144.48539682539683	88	127
144.5550566893424	144.6131065759637	86	127
144.70596371882087	144.79886621315194	85	127
144.79886621315194	145.04267573696146	45	127
144.79886621315194	145.04267573696146	61	127
144.79886621315194	145.04267573696146	55	127
144.88013605442177	144.96138321995466	83	127
145.04267573696146	145.47222222222223	55	127
145.04267573696146	145.05428571428573	81	127
145.04267573696146	145.20521541950114	62	127
145.04267573696146	145.47222222222223	45	127
145.11231292517007	145.20521541950114	83	127
145.20521541950114	145.47222222222223	61	127
145.28648526077097	145.37936507936507	81	127
145.47222222222223	145.95986394557823	45	127
145.47222222222223	145.69283446712018	59	127
145.47222222222223	145.55351473922903	79	127
145.47222222222223	145.95986394557823	55	127
145.62315192743765	145.69283446712018	78	127
145.69283446712018	145.95986394557823	61	127
145.77410430839004	145.86698412698414	76	127
145.95986394557823	147.3530612244898	38	127
145.95986394557823	146.12240362811792	74	127
145.95986394557823	146.9467120181406	62	127
145.95986394557823	147.3530612244898	54	127
146.12240362811792	146.29655328798185	78	127
146.29655328798185	146.389410430839	69	127
146.45909297052154	146.6332426303855	69	127
146.6332426303855	146.79578231292518	74	127
146.79578231292518	146.86544217687074	66	127
146.9467120181406	147.08603174603175	66	127
146.9467120181406	147.3530612244898	57	127
147.08603174603175	147.23696145124717	69	127
147.23696145124717	147.27179138321995	62	127
147.3530612244898	147.48077097505669	62	127
147.48077097505669	147.65492063492064	66	127
147.65492063492064	147.73619047619047	57	127
147.80585034013606	148.3282993197279	55	127
147.80585034013606	147.82907029478457	83	127
147.80585034013606	148.3282993197279	61	127
147.80585034013606	148.3282993197279	45	127
147.8871201814059	147.9451700680272	81	127
148.0264172335601	148.1077097505669	80	127
148.200589569161	148.28183673469388	79	127
148.33990929705215	148.36312925170068	78	127
148.36312925170068	148.59532879818593	61	127
148.36312925170068	148.59532879818593	45	127
148.36312925170068	148.59532879818593	55	127
148.45600907029478	148.53725623582767	77	127
148.59532879818593	148.862358276644	61	127
148.59532879818593	148.68820861678006	76	127
148.59532879818593	149.09455782312926	55	127
148.59532879818593	149.09455782312926	45	127
148.7694784580499	148.862358276644	74	127
148.862358276644	149.09455782312926	67	127
148.93201814058958	149.0132879818594	73	127
149.09455782312926	149.57056689342403	57	127
149.09455782312926	149.34997732426305	64	127
149.09455782312926	149.18743764172336	71	127
149.09455782312926	149.57056689342403	45	127
149.25707482993198	149.34997732426305	69	127
149.34997732426305	149.57056689342403	61	127
149.4196371882086	149.51249433106577	67	127
149.57056689342403	149.6750566893424	66	127
149.57056689342403	150.4877551020408	62	127
149.57056689342403	150.4877551020408	54	127
149.57056689342403	150.4877551020408	38	127
149.6750566893424	149.8027664399093	61	127
149.8027664399093	150.00013605442177	62	127
150.00013605442177	150.18589569160997	69	127
150.18589569160997	150.31360544217688	65	127
150.31360544217688	150.4877551020408	66	127
150.4877551020408	150.6502947845805	74	127
150.6502947845805	150.7895918367347	68	127
150.7895918367347	150.9637641723356	69	127
150.9637641723356	151.09145124716554	78	127
151.09145124716554	151.24240362811793	73	127
151.24240362811793	151.34687074829932	74	127
151.34687074829932	151.39333333333335	85	127
151.39333333333335	152.0086621315193	59	127
151.39333333333335	152.0086621315193	55	127
151.39333333333335	151.4629931972789	83	127
151.39333333333335	152.0086621315193	31	127
151.5326530612245	151.61392290249432	82	127
151.70678004535148	151.78807256235828	83	127
151.8693424036281	152.04349206349207	86	127
152.04349206349207	152.1595918367347	74	127
152.06668934240363	152.31052154195012	59	127
152.06668934240363	152.31052154195012	55	127
152.06668934240363	152.31052154195012	31	127
152.1595918367347	152.26408163265307	79	127
152.26408163265307	152.31052154195012	85	127
152.31052154195012	152.77492063492065	31	127
152.31052154195012	152.39179138321995	83	127
152.31052154195012	152.77492063492065	59	127
152.31052154195012	152.77492063492065	55	127
152.47303854875284	152.54272108843537	82	127
152.58916099773242	152.68201814058958	83	127
152.77492063492065	153.26253968253968	55	127
152.77492063492065	152.93743764172336	86	127
152.77492063492065	153.26253968253968	62	127
152.77492063492065	153.26253968253968	35	127
152.93743764172336	153.08836734693878	74	127
153.08836734693878	153.20448979591836	79	127
153.20448979591836	153.26253968253968	88	127
153.26253968253968	153.33219954648527	86	127
153.26253968253968	154.12167800453514	62	127
153.26253968253968	154.58607709750567	54	127
153.26253968253968	154.58607709750567	38	127
153.3902494331066	153.47151927437642	85	127
153.541179138322	153.61083900226757	86	127
153.69210884353743	153.83142857142857	90	127
153.83142857142857	153.9475283446712	80	127
153.9475283446712	154.05201814058958	81	127
154.05201814058958	154.12167800453514	88	127
154.12167800453514	154.19133786848073	86	127
154.12167800453514	154.58607709750567	57	127
154.26097505668935	154.35387755102042	85	127
154.41192743764174	154.49319727891157	86	127
154.58607709750567	154.76022675736962	90	127
154.76022675736962	154.91115646258504	80	127
154.91115646258504	155.08530612244897	81	127
155.08530612244897	155.15496598639456	91	127
155.08530612244897	155.56131519274376	57	127
155.08530612244897	155.56131519274376	55	127
155.08530612244897	155.56131519274376	33	127
155.21301587301588	155.30589569160998	90	127
155.37555555555556	155.43360544217688	88	127
155.46843537414966	155.52648526077098	86	127
155.6077551020408	155.68902494331067	85	127
155.68902494331067	155.8631746031746	33	127
155.68902494331067	155.8631746031746	57	127
155.68902494331067	155.8631746031746	55	127
155.7702947845805	155.80512471655328	83	127
155.8631746031746	156.3391836734694	64	127
155.8631746031746	155.94444444444446	81	127
155.8631746031746	156.3391836734694	55	127
155.8631746031746	156.3391836734694	33	127
156.0024716553288	156.0837641723356	83	127
156.16503401360544	156.2463038548753	81	127
156.3391836734694	156.82680272108843	61	127
156.3391836734694	156.82680272108843	33	127
156.3391836734694	156.82680272108843	57	127
156.3391836734694	156.4320634920635	79	127
156.51331065759638	156.60621315192745	78	127
156.68748299319728	156.75714285714287	76	127
156.82680272108843	157.778820861678	38	127
156.82680272108843	156.94290249433107	74	127
156.82680272108843	157.778820861678	62	127
156.82680272108843	157.778820861678	54	127
156.94290249433107	157.12863945578232	62	127
157.12863945578232	157.29120181405895	66	127
157.29120181405895	157.44213151927437	69	127
157.44213151927437	157.6278911564626	65	127
157.6278911564626	157.778820861678	66	127
157.778820861678	157.88331065759638	74	127
157.88331065759638	157.97619047619048	68	127
157.97619047619048	158.09229024943312	69	127
158.09229024943312	158.26643990929705	78	127
158.26643990929705	158.4521768707483	73	127
158.4521768707483	158.49863945578232	74	127
158.49863945578232	158.56829931972788	85	127
158.56829931972788	159.11396825396827	59	127
158.56829931972788	159.11396825396827	50	127
158.56829931972788	159.11396825396827	31	127
158.56829931972788	158.66115646258504	83	127
158.7540589569161	158.80049886621316	82	127
158.82371882086167	158.90498866213153	83	127
158.9746485260771	159.16040816326532	86	127
159.16040816326532	159.29972789115646	74	127
159.23006802721088	159.47387755102042	50	127
159.23006802721088	159.47387755102042	59	127
159.23006802721088	159.47387755102042	31	127
159.29972789115646	159.4158276643991	79	127
159.4158276643991	159.47387755102042	85	127
159.47387755102042	159.9498866213152	31	127
159.47387755102042	159.54353741496598	83	127
159.47387755102042	159.9498866213152	59	127
159.47387755102042	159.9498866213152	50	127
159.63641723356008	159.71768707482994	82	127
159.77573696145126	159.86861678004536	83	127
159.9498866213152	160.46072562358276	62	127
159.9498866213152	160.11242630385487	86	127
159.9498866213152	160.46072562358276	50	127
159.9498866213152	160.46072562358276	35	127
160.11242630385487	160.29816326530613	74	127
160.29816326530613	160.40267573696144	79	127
160.40267573696144	160.46072562358276	88	127
160.46072562358276	160.54199546485262	86	127
160.46072562358276	161.3895238095238	62	127
160.46072562358276	161.92358276643992	54	127
160.46072562358276	161.92358276643992	38	127
160.63487528344672	160.646485260771	85	127
160.7393650793651	160.7974149659864	86	127
160.87868480725623	161.0644217687075	90	127
161.0644217687075	161.22698412698412	80	127
161.22698412698412	161.3314739229025	81	127
161.3314739229025	161.3895238095238	88	127
161.3895238095238	161.4707709750567	86	127
161.3895238095238	161.92358276643992	57	127
161.57526077097506	161.66816326530613	85	127
161.74943310657596	161.84231292517006	86	127
161.92358276643992	162.10934240362812	90	127
162.10934240362812	162.2718820861678	80	127
162.2718820861678	162.29510204081632	81	127
162.29510204081632	162.35315192743764	91	127
162.35315192743764	162.87560090702948	33	127
162.35315192743764	162.41120181405896	95	127
162.35315192743764	162.87560090702948	57	127
162.35315192743764	162.87560090702948	55	127
162.49244897959184	162.56213151927437	93	127
162.5969387755102	162.678231292517	91	127
162.74786848072563	162.82916099773243	90	127
162.92204081632653	162.98009070294785	88	127
162.98009070294785	163.16585034013605	33	127
162.98009070294785	163.16585034013605	57	127
162.98009070294785	163.16585034013605	55	127
163.01492063492063	163.07297052154195	86	127
163.16585034013605	163.58380952380952	33	127
163.16585034013605	163.58380952380952	55	127
163.16585034013605	163.2471201814059	85	127
163.16585034013605	163.58380952380952	64	127
163.28195011337868	163.34	83	127
163.42126984126983	163.49092970521542	81	127
163.58380952380952	164.07142857142858	55	127
163.58380952380952	163.67668934240362	79	127
163.58380952380952	164.07142857142858	33	127
163.58380952380952	164.07142857142858	61	127
163.75795918367348	163.85083900226758	78	127
163.9088888888889	163.9785260770975	76	127
164.07142857142858	164.12945578231293	74	127
164.07142857142858	165.3136961451247	62	127
164.07142857142858	165.3136961451247	54	127
164.07142857142858	165.3136961451247	38	127
164.19913832199546	164.28038548752835	69	127
164.36167800453515	164.44294784580498	78	127
164.4893650793651	164.5706575963719	74	127
164.6402947845805	164.73319727891158	69	127
164.79122448979592	164.83768707482994	66	127
164.86090702947845	165.3136961451247	62	127
165.8593650793651	166.09156462585034	45	127
165.8593650793651	166.09156462585034	33	127
166.3585941043084	166.52113378684808	57	127
166.3585941043084	166.52113378684808	66	127
166.3585941043084	166.52113378684808	62	127
166.3585941043084	166.6720634920635	50	127
166.3585941043084	166.6720634920635	38	127
166.6720634920635	166.78814058956917	66	127
166.6720634920635	166.78814058956917	57	127
166.6720634920635	166.78814058956917	62	127
166.91587301587302	167.19448979591837	50	127
166.91587301587302	167.19448979591837	38	127
167.19448979591837	167.29897959183674	66	127
167.19448979591837	167.29897959183674	57	127
167.19448979591837	167.29897959183674	62	127
167.36866213151927	167.49637188208618	57	127
167.36866213151927	167.49637188208618	69	127
167.36866213151927	167.49637188208618	62	127
167.36866213151927	167.60086167800455	54	127
167.36866213151927	167.60086167800455	42	127
167.60086167800455	167.69374149659865	69	127
167.60086167800455	167.69374149659865	62	127
167.60086167800455	167.69374149659865	57	127
167.79823129251702	168.03043083900226	54	127
167.79823129251702	168.03043083900226	42	127
168.03043083900226	168.12331065759636	62	127
168.03043083900226	168.12331065759636	57	127
168.03043083900226	168.12331065759636	69	127
168.22780045351473	169.11015873015873	38	127
168.22780045351473	169.11015873015873	50	127
168.4948299319728	168.57607709750567	62	127
168.4948299319728	168.57607709750567	66	127
168.4948299319728	168.57607709750567	57	127
168.69219954648526	168.76185941043084	57	127
168.69219954648526	168.76185941043084	62	127
168.69219954648526	168.76185941043084	66	127
168.87795918367348	168.98242630385488	57	127
168.87795918367348	168.98242630385488	62	127
168.87795918367348	168.98242630385488	66	127
169.11015873015873	170.004126984127	33	127
169.11015873015873	170.004126984127	45	127
169.36557823129252	169.45845804988662	62	127
169.36557823129252	169.45845804988662	57	127
169.36557823129252	169.45845804988662	66	127
169.56294784580498	169.6209977324263	66	127
169.56294784580498	169.6209977324263	57	127
169.56294784580498	169.6209977324263	62	127
169.72548752834467	169.8531746031746	62	127
169.72548752834467	169.8531746031746	66	127
169.72548752834467	169.8531746031746	57	127
170.004126984127	170.54979591836735	45	127
170.004126984127	170.54979591836735	33	127
170.21308390022676	170.30598639455783	57	127
170.21308390022676	170.30598639455783	64	127
170.21308390022676	170.30598639455783	61	127
170.39886621315193	170.5033560090703	57	127
170.39886621315193	170.5033560090703	64	127
170.39886621315193	170.5033560090703	61	127
170.61943310657597	170.72392290249434	64	127
170.61943310657597	170.72392290249434	61	127
170.61943310657597	170.8516553287982	45	127
170.61943310657597	170.8516553287982	33	127
170.61943310657597	170.72392290249434	57	127
170.8516553287982	171.60630385487528	64	127
170.8516553287982	171.0954648526077	56	127
170.8516553287982	171.2231746031746	52	127
170.8516553287982	171.2231746031746	40	127
171.0954648526077	171.3508843537415	59	127
171.2231746031746	171.3508843537415	50	127
171.2231746031746	171.3508843537415	38	127
171.3508843537415	171.71079365079365	49	127
171.3508843537415	171.71079365079365	37	127
171.3508843537415	171.60630385487528	64	127
171.60630385487528	171.83850340136055	62	127
171.60630385487528	171.83850340136055	68	127
171.71079365079365	171.83850340136055	35	127
171.71079365079365	171.83850340136055	47	127
171.83850340136055	172.7324716553288	33	127
171.83850340136055	171.96621315192743	61	127
171.83850340136055	171.96621315192743	69	127
171.83850340136055	172.31451247165532	45	127
172.08231292517007	172.1984126984127	61	127
172.08231292517007	172.1984126984127	69	127
172.08231292517007	172.1984126984127	64	127
172.31451247165532	172.4190022675737	57	127
172.52349206349206	172.65120181405896	62	127
172.52349206349206	172.65120181405896	67	127
172.52349206349206	172.65120181405896	59	127
172.7324716553288	172.8601814058957	57	127
172.96467120181407	173.0459410430839	66	127
172.96467120181407	173.0459410430839	62	127
172.96467120181407	173.0459410430839	57	127
173.15043083900227	173.2665306122449	57	127
173.15043083900227	173.38260770975057	33	127
173.38260770975057	173.51034013605442	61	127
173.38260770975057	173.51034013605442	64	127
173.38260770975057	173.51034013605442	55	127
173.62643990929706	173.75414965986394	62	127
173.62643990929706	173.75414965986394	54	127
173.62643990929706	173.75414965986394	57	127
173.62643990929706	173.87024943310658	50	127
173.62643990929706	173.87024943310658	38	127
173.87024943310658	173.97473922902495	66	127
173.87024943310658	173.97473922902495	57	127
173.87024943310658	173.97473922902495	62	127
174.0908390022676	174.27659863945578	50	127
174.0908390022676	174.27659863945578	38	127
174.27659863945578	174.39269841269842	66	127
174.27659863945578	174.39269841269842	57	127
174.27659863945578	174.39269841269842	62	127
174.5204081632653	174.63650793650794	57	127
174.5204081632653	174.63650793650794	69	127
174.5204081632653	174.63650793650794	62	127
174.5204081632653	174.72938775510204	54	127
174.5204081632653	174.72938775510204	42	127
174.72938775510204	174.82226757369614	57	127
174.72938775510204	174.82226757369614	69	127
174.72938775510204	174.82226757369614	62	127
174.94997732426305	175.1473469387755	42	127
174.94997732426305	175.1473469387755	54	127
175.1473469387755	175.25183673469388	62	127
175.1473469387755	175.25183673469388	57	127
175.1473469387755	175.25183673469388	69	127
175.36793650793652	176.26190476190476	50	127
175.36793650793652	176.26190476190476	38	127
175.5885260770975	175.69301587301587	62	127
175.5885260770975	175.69301587301587	66	127
175.5885260770975	175.69301587301587	57	127
175.79750566893424	175.9019954648526	62	127
175.79750566893424	175.9019954648526	66	127
175.79750566893424	175.9019954648526	57	127
176.00648526077097	176.13419501133788	57	127
176.00648526077097	176.13419501133788	66	127
176.00648526077097	176.13419501133788	62	127
176.26190476190476	176.48249433106577	45	127
176.26190476190476	176.48249433106577	33	127
176.48249433106577	176.61020408163265	66	127
176.48249433106577	176.61020408163265	57	127
176.48249433106577	176.61020408163265	62	127
176.74952380952382	176.88884353741497	66	127
176.74952380952382	176.88884353741497	57	127
176.74952380952382	176.88884353741497	62	127
176.74952380952382	177.0049433106576	62	127
176.74952380952382	177.0049433106576	38	127
177.0049433106576	177.10943310657598	66	127
177.0049433106576	177.10943310657598	62	127
177.0049433106576	177.10943310657598	57	127
177.15587301587303	177.60866213151928	61	127
177.15587301587303	177.60866213151928	40	127
177.36485260770976	177.49256235827664	57	127
177.36485260770976	177.49256235827664	64	127
177.36485260770976	177.49256235827664	61	127
177.60866213151928	177.73637188208616	64	127
177.60866213151928	177.73637188208616	61	127
177.60866213151928	177.73637188208616	57	127
177.60866213151928	177.93371882086169	57	127
177.84086167800453	177.93371882086169	61	127
177.84086167800453	177.93371882086169	64	127
177.84086167800453	177.93371882086169	57	127
177.93371882086169	178.038231292517	61	127
178.038231292517	178.6651700680272	62	127
178.038231292517	178.43297052154196	40	127
178.258820861678	178.3400680272109	64	127
178.258820861678	178.3400680272109	59	127
178.258820861678	178.3400680272109	56	127
178.43297052154196	178.53746031746033	59	127
178.43297052154196	178.53746031746033	56	127
178.43297052154196	178.53746031746033	64	127
178.6651700680272	178.79287981859412	62	127
178.6651700680272	178.79287981859412	64	127
178.6651700680272	178.79287981859412	59	127
178.6651700680272	178.93219954648526	56	127
178.93219954648526	180.22090702947847	33	127
178.93219954648526	180.22090702947847	57	127
179.1643990929705	179.24566893424037	57	127
179.1643990929705	179.24566893424037	64	127
179.1643990929705	179.24566893424037	61	127
179.36174603174604	179.4894784580499	57	127
179.36174603174604	179.4894784580499	64	127
179.36174603174604	179.4894784580499	61	127
179.61716553287982	179.69845804988663	57	127
179.61716553287982	179.69845804988663	64	127
179.61716553287982	179.69845804988663	61	127
179.79133786848072	180.22090702947847	64	127
179.79133786848072	180.22090702947847	61	127
179.79133786848072	180.22090702947847	57	127
180.22090702947847	180.41827664399094	33	127
180.22090702947847	180.41827664399094	45	127
180.6156462585034	180.74333333333334	57	127
180.6156462585034	180.74333333333334	66	127
180.6156462585034	180.74333333333334	62	127
180.6156462585034	180.85945578231292	50	127
180.6156462585034	180.85945578231292	38	127
180.85945578231292	180.97555555555556	66	127
180.85945578231292	180.97555555555556	57	127
180.85945578231292	180.97555555555556	62	127
181.1032426303855	181.2774149659864	50	127
181.1032426303855	181.2774149659864	38	127
181.2774149659864	181.40510204081633	66	127
181.2774149659864	181.40510204081633	57	127
181.2774149659864	181.40510204081633	62	127
181.48639455782313	181.62571428571428	57	127
181.48639455782313	181.62571428571428	69	127
181.48639455782313	181.62571428571428	62	127
181.48639455782313	181.7534240362812	54	127
181.48639455782313	181.7534240362812	42	127
181.7534240362812	181.86950113378686	57	127
181.7534240362812	181.86950113378686	69	127
181.7534240362812	181.86950113378686	62	127
181.98562358276644	182.20621315192744	54	127
181.98562358276644	182.20621315192744	42	127
182.20621315192744	182.29909297052154	57	127
182.20621315192744	182.29909297052154	69	127
182.20621315192744	182.29909297052154	62	127
182.4035827664399	183.2975283446712	38	127
182.4035827664399	183.2975283446712	50	127
182.6590022675737	182.78668934240363	62	127
182.6590022675737	182.78668934240363	66	127
182.6590022675737	182.78668934240363	57	127
182.891179138322	182.93764172335602	62	127
182.891179138322	182.93764172335602	57	127
182.891179138322	182.93764172335602	66	127
183.04210884353742	183.158231292517	62	127
183.04210884353742	183.158231292517	66	127
183.04210884353742	183.158231292517	57	127
183.2975283446712	184.19151927437642	33	127
183.2975283446712	184.19151927437642	45	127
183.51814058956916	183.64585034013606	66	127
183.51814058956916	183.64585034013606	57	127
183.51814058956916	183.64585034013606	62	127
183.75034013605443	183.86643990929704	62	127
183.75034013605443	183.86643990929704	66	127
183.75034013605443	183.86643990929704	57	127
183.95931972789117	184.07541950113378	66	127
183.95931972789117	184.07541950113378	57	127
183.95931972789117	184.07541950113378	62	127
184.19151927437642	184.84167800453514	33	127
184.19151927437642	184.84167800453514	45	127
184.4469387755102	184.56303854875284	61	127
184.4469387755102	184.56303854875284	64	127
184.4469387755102	184.56303854875284	57	127
184.6675283446712	184.78360544217688	61	127
184.6675283446712	184.78360544217688	57	127
184.6675283446712	184.78360544217688	64	127
184.8881179138322	184.98099773242632	57	127
184.8881179138322	184.98099773242632	64	127
184.8881179138322	184.98099773242632	61	127
184.8881179138322	185.0854648526077	45	127
184.8881179138322	185.0854648526077	33	127
185.0854648526077	185.28285714285715	56	127
185.0854648526077	185.30607709750566	52	127
185.0854648526077	185.30607709750566	40	127
185.0854648526077	185.6427664399093	64	127
185.28285714285715	185.39895691609976	59	127
185.30607709750566	185.39895691609976	38	127
185.30607709750566	185.39895691609976	50	127
185.39895691609976	185.7356462585034	49	127
185.39895691609976	185.7356462585034	37	127
185.39895691609976	185.6427664399093	64	127
185.6427664399093	185.84013605442178	62	127
185.6427664399093	185.84013605442178	68	127
185.7356462585034	185.84013605442178	47	127
185.7356462585034	185.84013605442178	35	127
185.84013605442178	186.79215419501134	33	127
185.84013605442178	185.96784580498866	61	127
185.84013605442178	185.96784580498866	69	127
185.84013605442178	186.3161224489796	45	127
186.09555555555556	186.21163265306123	61	127
186.09555555555556	186.21163265306123	69	127
186.09555555555556	186.21163265306123	64	127
186.3161224489796	186.4206349206349	57	127
186.5599546485261	186.6760544217687	62	127
186.5599546485261	186.6760544217687	67	127
186.5599546485261	186.6760544217687	59	127
186.79215419501134	186.8966439909297	57	127
187.00113378684807	187.08238095238096	66	127
187.00113378684807	187.08238095238096	62	127
187.00113378684807	187.08238095238096	57	127
187.17528344671203	187.2797732426304	57	127
187.17528344671203	187.38426303854877	33	127
187.38426303854877	187.47714285714287	61	127
187.38426303854877	187.47714285714287	64	127
187.38426303854877	187.47714285714287	55	127
187.58163265306123	187.73256235827665	62	127
187.58163265306123	187.73256235827665	54	127
187.58163265306123	187.73256235827665	57	127
187.58163265306123	187.84863945578232	50	127
187.58163265306123	187.84863945578232	38	127
187.84863945578232	187.9415419501134	66	127
187.84863945578232	187.9415419501134	57	127
187.84863945578232	187.9415419501134	62	127
188.02281179138322	188.2201814058957	50	127
188.02281179138322	188.2201814058957	38	127
188.2201814058957	188.33628117913833	66	127
188.2201814058957	188.33628117913833	57	127
188.2201814058957	188.33628117913833	62	127
188.46396825396826	188.5917006802721	57	127
188.46396825396826	188.5917006802721	69	127
188.46396825396826	188.5917006802721	62	127
188.46396825396826	188.71938775510205	54	127
188.46396825396826	188.71938775510205	42	127
188.71938775510205	188.83551020408163	57	127
188.71938775510205	188.83551020408163	69	127
188.71938775510205	188.83551020408163	62	127
188.94	189.14897959183673	54	127
188.94	189.14897959183673	42	127
189.14897959183673	189.2534693877551	57	127
189.14897959183673	189.2534693877551	69	127
189.14897959183673	189.2534693877551	62	127
189.31151927437642	190.17065759637188	38	127
189.31151927437642	190.17065759637188	50	127
189.5088888888889	189.63657596371883	66	127
189.5088888888889	189.63657596371883	57	127
189.5088888888889	189.63657596371883	62	127
189.7410657596372	189.86879818594105	62	127
189.7410657596372	189.86879818594105	66	127
189.7410657596372	189.86879818594105	57	127
189.99648526077098	190.07777777777778	66	127
189.99648526077098	190.07777777777778	57	127
189.99648526077098	190.07777777777778	62	127
190.17065759637188	190.4144671201814	45	127
190.17065759637188	190.4144671201814	33	127
190.4144671201814	190.5073469387755	66	127
190.4144671201814	190.5073469387755	57	127
190.4144671201814	190.5073469387755	62	127
190.62344671201814	190.7279365079365	57	127
190.62344671201814	190.7279365079365	62	127
190.62344671201814	190.83242630385487	62	127
190.62344671201814	190.83242630385487	38	127
190.62344671201814	190.7279365079365	66	127
190.83242630385487	190.93691609977324	66	127
190.83242630385487	190.93691609977324	57	127
190.83242630385487	190.93691609977324	62	127
191.0414058956916	191.5174149659864	61	127
191.0414058956916	191.5174149659864	40	127
191.27360544217686	191.3897052154195	61	127
191.27360544217686	191.3897052154195	64	127
191.27360544217686	191.3897052154195	57	127
191.5174149659864	191.64512471655328	64	127
191.5174149659864	191.64512471655328	61	127
191.5174149659864	191.64512471655328	57	127
191.5174149659864	191.8657142857143	57	127
191.7728344671202	191.8657142857143	64	127
191.7728344671202	191.8657142857143	57	127
191.7728344671202	191.8657142857143	61	127
191.8657142857143	191.97020408163266	61	127
191.97020408163266	192.59714285714287	62	127
191.97020408163266	192.41138321995464	40	127
192.21401360544218	192.3301133786848	59	127
192.21401360544218	192.3301133786848	64	127
192.21401360544218	192.3301133786848	56	127
192.41138321995464	192.52748299319728	59	127
192.41138321995464	192.52748299319728	56	127
192.41138321995464	192.52748299319728	64	127
192.59714285714287	192.71324263038548	59	127
192.59714285714287	192.71324263038548	64	127
192.59714285714287	192.71324263038548	62	127
192.59714285714287	192.79451247165534	56	127
192.79451247165534	194.01356009070295	57	127
192.79451247165534	194.01356009070295	33	127
192.9918820861678	193.0847619047619	57	127
192.9918820861678	193.0847619047619	64	127
192.9918820861678	193.0847619047619	61	127
193.20086167800454	193.29374149659864	57	127
193.20086167800454	193.29374149659864	64	127
193.20086167800454	193.29374149659864	61	127
193.40984126984128	193.5259410430839	57	127
193.40984126984128	193.5259410430839	64	127
193.40984126984128	193.5259410430839	61	127
193.63043083900226	194.01356009070295	64	127
193.63043083900226	194.01356009070295	61	127
193.63043083900226	194.01356009070295	57	127
194.01356009070295	194.280589569161	45	127
194.01356009070295	194.280589569161	33	127
194.52439909297053	194.6521088435374	57	127
194.52439909297053	194.6521088435374	67	127
194.52439909297053	194.6521088435374	64	127
194.52439909297053	194.7798185941043	49	127
194.52439909297053	194.7798185941043	37	127
194.7798185941043	194.88430839002268	67	127
194.7798185941043	194.88430839002268	57	127
194.7798185941043	194.88430839002268	64	127
195.00040816326532	195.20938775510203	49	127
195.00040816326532	195.20938775510203	37	127
195.20938775510203	195.3138775510204	57	127
195.20938775510203	195.3138775510204	67	127
195.20938775510203	195.3138775510204	64	127
195.41836734693877	195.5344671201814	57	127
195.41836734693877	195.5344671201814	67	127
195.41836734693877	195.5344671201814	64	127
195.41836734693877	195.604126984127	50	127
195.41836734693877	195.604126984127	38	127
195.604126984127	195.67378684807255	67	127
195.604126984127	195.67378684807255	57	127
195.604126984127	195.67378684807255	64	127
195.604126984127	195.7550566893424	49	127
195.604126984127	195.7550566893424	37	127
195.7550566893424	195.98725623582766	47	127
195.7550566893424	195.98725623582766	35	127
195.98725623582766	196.09174603174603	57	127
195.98725623582766	196.09174603174603	67	127
195.98725623582766	196.09174603174603	64	127
195.98725623582766	196.1962358276644	49	127
195.98725623582766	196.1962358276644	37	127
196.1962358276644	197.1018140589569	50	127
196.1962358276644	197.1018140589569	38	127
196.40521541950113	196.53292517006804	62	127
196.40521541950113	196.53292517006804	66	127
196.40521541950113	196.53292517006804	57	127
196.62580498866214	196.74190476190475	62	127
196.62580498866214	196.74190476190475	66	127
196.62580498866214	196.74190476190475	57	127
196.8580045351474	196.9857142857143	62	127
196.8580045351474	196.9857142857143	66	127
196.8580045351474	196.9857142857143	57	127
197.1018140589569	197.49655328798187	33	127
197.1018140589569	197.49655328798187	45	127
197.28757369614513	197.3920634920635	62	127
197.28757369614513	197.3920634920635	66	127
197.28757369614513	197.3920634920635	57	127
197.49655328798187	197.92612244897958	50	127
197.49655328798187	197.92612244897958	38	127
197.71714285714285	197.81002267573697	66	127
197.71714285714285	197.81002267573697	57	127
197.71714285714285	197.81002267573697	62	127
197.92612244897958	198.0538321995465	57	127
197.92612244897958	198.0538321995465	67	127
197.92612244897958	198.0538321995465	64	127
197.92612244897958	198.15832199546486	49	127
197.92612244897958	198.15832199546486	37	127
198.15832199546486	198.26281179138323	57	127
198.15832199546486	198.26281179138323	67	127
198.15832199546486	198.26281179138323	64	127
198.3905215419501	198.62272108843538	49	127
198.3905215419501	198.62272108843538	37	127
198.62272108843538	198.76204081632653	57	127
198.62272108843538	198.76204081632653	67	127
198.62272108843538	198.76204081632653	64	127
198.87814058956917	198.99424036281178	57	127
198.87814058956917	198.99424036281178	67	127
198.87814058956917	198.99424036281178	64	127
198.87814058956917	199.11034013605442	49	127
198.87814058956917	199.11034013605442	37	127
199.11034013605442	199.22643990929706	67	127
199.11034013605442	199.22643990929706	57	127
199.11034013605442	199.22643990929706	64	127
199.11034013605442	199.35414965986394	55	127
199.11034013605442	199.35414965986394	43	127
199.35414965986394	199.50507936507935	52	127
199.35414965986394	199.50507936507935	40	127
199.50507936507935	199.69083900226758	37	127
199.50507936507935	199.59795918367348	57	127
199.50507936507935	199.59795918367348	67	127
199.50507936507935	199.59795918367348	64	127
199.50507936507935	199.69083900226758	49	127
199.69083900226758	200.5267573696145	50	127
199.69083900226758	200.5267573696145	38	127
199.89981859410432	199.94625850340137	62	127
199.89981859410432	199.94625850340137	66	127
199.89981859410432	199.94625850340137	57	127
200.07396825396825	200.20167800453515	62	127
200.07396825396825	200.20167800453515	57	127
200.07396825396825	200.20167800453515	66	127
200.3177777777778	200.4106575963719	62	127
200.3177777777778	200.4106575963719	66	127
200.3177777777778	200.4106575963719	57	127
200.5267573696145	200.92149659863946	38	127
200.5267573696145	200.92149659863946	26	127
200.724126984127	200.8170068027211	62	127
200.724126984127	200.8170068027211	57	127
200.724126984127	200.8170068027211	66	127
200.92149659863946	201.39750566893423	50	127
200.92149659863946	201.39750566893423	38	127
201.1536961451247	201.28140589569162	62	127
201.1536961451247	201.28140589569162	57	127
201.1536961451247	201.28140589569162	66	127
201.39750566893423	201.5368253968254	67	127
201.39750566893423	201.5368253968254	55	127
201.39750566893423	201.5368253968254	62	127
201.39750566893423	201.87351473922902	47	127
201.39750566893423	201.87351473922902	35	127
201.65292517006802	201.78063492063492	62	127
201.65292517006802	201.78063492063492	67	127
201.65292517006802	201.78063492063492	55	127
201.87351473922902	202.32630385487528	47	127
201.87351473922902	202.32630385487528	35	127
202.09410430839003	202.1985941043084	62	127
202.09410430839003	202.1985941043084	67	127
202.09410430839003	202.1985941043084	55	127
202.32630385487528	202.44240362811792	62	127
202.32630385487528	202.77909297052153	47	127
202.32630385487528	202.77909297052153	35	127
202.32630385487528	202.44240362811792	67	127
202.32630385487528	202.44240362811792	55	127
202.55850340136055	202.65138321995465	67	127
202.55850340136055	202.65138321995465	55	127
202.55850340136055	202.65138321995465	62	127
202.77909297052153	203.25510204081633	50	127
202.77909297052153	203.25510204081633	38	127
203.0112925170068	203.1390022675737	59	127
203.0112925170068	203.1390022675737	65	127
203.0112925170068	203.1390022675737	56	127
203.25510204081633	203.47569160997733	57	127
203.25510204081633	203.47569160997733	66	127
203.25510204081633	203.47569160997733	62	127
203.25510204081633	204.1722902494331	50	127
203.25510204081633	204.1722902494331	38	127
203.47569160997733	203.70789115646258	68	127
203.47569160997733	203.70789115646258	65	127
203.70789115646258	203.94009070294786	69	127
203.70789115646258	203.94009070294786	66	127
203.94009070294786	204.1722902494331	68	127
203.94009070294786	204.1722902494331	65	127
204.1722902494331	204.60185941043085	33	127
204.1722902494331	204.36965986394557	69	127
204.1722902494331	204.36965986394557	66	127
204.1722902494331	204.60185941043085	45	127
204.36965986394557	204.60185941043085	66	127
204.36965986394557	204.60185941043085	69	127
204.60185941043085	204.8340589569161	66	127
204.60185941043085	204.8340589569161	62	127
204.60185941043085	205.06625850340137	45	127
204.60185941043085	205.06625850340137	33	127
204.8340589569161	205.06625850340137	54	127
204.8340589569161	205.06625850340137	62	127
205.06625850340137	205.61192743764173	45	127
205.06625850340137	205.61192743764173	33	127
205.26362811791384	205.37972789115645	57	127
205.26362811791384	205.37972789115645	67	127
205.26362811791384	205.37972789115645	61	127
205.4958276643991	205.61192743764173	61	127
205.4958276643991	205.61192743764173	57	127
205.4958276643991	205.61192743764173	67	127
205.7396371882086	205.82090702947846	67	127
205.7396371882086	205.82090702947846	57	127
205.7396371882086	205.82090702947846	61	127
205.7396371882086	205.9370068027211	45	127
205.7396371882086	205.9370068027211	33	127
205.9370068027211	206.42462585034014	40	127
205.9370068027211	206.42462585034014	52	127
206.16920634920635	206.3085260770975	57	127
206.16920634920635	206.3085260770975	67	127
206.16920634920635	206.3085260770975	61	127
206.42462585034014	206.85419501133788	49	127
206.42462585034014	206.85419501133788	37	127
206.5987755102041	206.72648526077097	57	127
206.5987755102041	206.72648526077097	67	127
206.5987755102041	206.72648526077097	64	127
206.85419501133788	207.65528344671202	50	127
206.85419501133788	207.65528344671202	38	127
207.03995464852608	207.15605442176872	62	127
207.03995464852608	207.15605442176872	66	127
207.03995464852608	207.15605442176872	57	127
207.24893424036281	207.3185941043084	62	127
207.24893424036281	207.3185941043084	66	127
207.24893424036281	207.3185941043084	57	127
207.4114739229025	207.53918367346938	66	127
207.4114739229025	207.53918367346938	57	127
207.4114739229025	207.53918367346938	62	127
207.65528344671202	208.0732426303855	26	127
207.65528344671202	208.0732426303855	38	127
207.87587301587303	207.99197278911564	62	127
207.87587301587303	207.99197278911564	57	127
207.87587301587303	207.99197278911564	66	127
208.0732426303855	208.52603174603175	50	127
208.0732426303855	208.52603174603175	38	127
208.32866213151928	208.43315192743765	57	127
208.32866213151928	208.43315192743765	66	127
208.32866213151928	208.43315192743765	62	127
208.52603174603175	208.96721088435373	35	127
208.52603174603175	208.61891156462585	55	127
208.52603174603175	208.61891156462585	67	127
208.52603174603175	208.61891156462585	62	127
208.52603174603175	208.96721088435373	47	127
208.76984126984127	208.86272108843536	62	127
208.76984126984127	208.86272108843536	67	127
208.76984126984127	208.86272108843536	55	127
208.96721088435373	209.52448979591836	47	127
208.96721088435373	209.52448979591836	35	127
209.26907029478457	209.40839002267575	67	127
209.26907029478457	209.40839002267575	55	127
209.26907029478457	209.40839002267575	62	127
209.52448979591836	209.89600907029478	47	127
209.52448979591836	209.61736961451248	67	127
209.52448979591836	209.61736961451248	55	127
209.52448979591836	209.61736961451248	62	127
209.52448979591836	209.89600907029478	35	127
209.72185941043085	209.81473922902495	62	127
209.72185941043085	209.81473922902495	55	127
209.72185941043085	209.81473922902495	67	127
209.89600907029478	210.34879818594104	50	127
209.89600907029478	210.34879818594104	38	127
210.1398185941043	210.24430839002267	59	127
210.1398185941043	210.24430839002267	65	127
210.1398185941043	210.24430839002267	56	127
210.34879818594104	210.5809977324263	57	127
210.34879818594104	210.5809977324263	66	127
210.34879818594104	211.2659863945578	38	127
210.34879818594104	211.2659863945578	50	127
210.34879818594104	210.5809977324263	62	127
210.5809977324263	210.8596371882086	68	127
210.5809977324263	210.8596371882086	65	127
210.8596371882086	211.09183673469389	69	127
210.8596371882086	211.09183673469389	66	127
211.09183673469389	211.2659863945578	68	127
211.09183673469389	211.2659863945578	65	127
211.2659863945578	211.7419954648526	33	127
211.2659863945578	211.53301587301587	69	127
211.2659863945578	211.53301587301587	66	127
211.2659863945578	211.7419954648526	45	127
211.53301587301587	211.7419954648526	69	127
211.53301587301587	211.7419954648526	66	127
211.7419954648526	212.20639455782313	45	127
211.7419954648526	212.20639455782313	33	127
211.7419954648526	211.97419501133786	66	127
211.7419954648526	211.97419501133786	62	127
211.97419501133786	212.20639455782313	62	127
211.97419501133786	212.20639455782313	54	127
212.20639455782313	212.70562358276644	45	127
212.20639455782313	212.70562358276644	33	127
212.42698412698414	212.54308390022675	67	127
212.42698412698414	212.54308390022675	61	127
212.42698412698414	212.54308390022675	57	127
212.60113378684807	212.70562358276644	57	127
212.60113378684807	212.70562358276644	67	127
212.60113378684807	212.70562358276644	61	127
212.79850340136053	212.91460317460317	67	127
212.79850340136053	213.00748299319727	45	127
212.79850340136053	212.91460317460317	57	127
212.79850340136053	212.91460317460317	61	127
212.79850340136053	213.00748299319727	33	127
213.00748299319727	213.41383219954648	40	127
213.00748299319727	213.41383219954648	52	127
213.20485260770974	213.32095238095238	61	127
213.20485260770974	213.32095238095238	57	127
213.20485260770974	213.32095238095238	67	127
213.41383219954648	213.8550113378685	37	127
213.41383219954648	213.8550113378685	49	127
213.63442176870748	213.75052154195012	57	127
213.63442176870748	213.75052154195012	67	127
213.63442176870748	213.75052154195012	64	127
213.8550113378685	215.05083900226757	38	127
213.8550113378685	215.05083900226757	50	127
214.06399092970523	214.1336507936508	57	127
214.06399092970523	214.1336507936508	66	127
214.06399092970523	214.1336507936508	62	127
214.2265306122449	214.319410430839	66	127
214.2265306122449	214.319410430839	57	127
214.2265306122449	214.319410430839	62	127
214.42390022675738	214.51678004535148	62	127
214.42390022675738	214.51678004535148	66	127
214.42390022675738	214.51678004535148	57	127
214.60965986394558	215.05083900226757	57	127
214.60965986394558	215.05083900226757	66	127
214.60965986394558	215.05083900226757	62	127
215.6661678004535	216.11895691609976	69	127
215.6661678004535	216.11895691609976	69	127
215.6661678004535	216.11895691609976	57	127
215.6661678004535	216.11895691609976	45	127
216.11895691609976	216.67623582766439	62	127
216.11895691609976	216.2118367346939	62	127
216.11895691609976	216.2118367346939	50	127
216.11895691609976	216.67623582766439	65	127
216.11895691609976	216.67623582766439	74	127
216.11895691609976	216.67623582766439	69	127
216.31632653061226	216.47886621315192	44	127
216.31632653061226	216.47886621315192	56	127
216.47886621315192	216.67623582766439	45	127
216.47886621315192	216.67623582766439	57	127
216.67623582766439	216.85038548752834	53	127
216.67623582766439	216.85038548752834	65	127
216.9548752834467	217.1174149659864	61	127
216.9548752834467	217.1174149659864	49	127
217.1174149659864	217.2799546485261	50	127
217.1174149659864	217.2799546485261	62	127
217.2799546485261	217.37283446712019	45	127
217.2799546485261	217.37283446712019	57	127
217.2799546485261	217.45410430839001	77	127
217.2799546485261	217.45410430839001	69	127
217.2799546485261	217.45410430839001	69	127
217.2799546485261	217.45410430839001	62	127
217.45410430839001	217.60503401360543	77	127
217.45410430839001	217.60503401360543	40	127
217.45410430839001	217.60503401360543	69	127
217.45410430839001	217.60503401360543	62	127
217.45410430839001	217.60503401360543	52	127
217.45410430839001	217.60503401360543	69	127
217.60503401360543	217.76757369614512	77	127
217.60503401360543	217.76757369614512	69	127
217.60503401360543	217.76757369614512	62	127
217.60503401360543	217.76757369614512	53	127
217.60503401360543	217.76757369614512	41	127
217.60503401360543	217.76757369614512	69	127
217.76757369614512	217.9301133786848	69	127
217.76757369614512	217.9301133786848	69	127
217.76757369614512	217.84884353741498	50	127
217.76757369614512	217.84884353741498	38	127
217.76757369614512	217.9301133786848	77	127
217.76757369614512	217.9301133786848	62	127
217.9301133786848	218.115873015873	32	127
217.9301133786848	218.115873015873	69	127
217.9301133786848	218.115873015873	77	127
217.9301133786848	218.115873015873	69	127
217.9301133786848	218.115873015873	62	127
217.9301133786848	218.115873015873	44	127
218.115873015873	218.32485260770974	33	127
218.115873015873	218.32485260770974	77	127
218.115873015873	218.32485260770974	69	127
218.115873015873	218.32485260770974	69	127
218.115873015873	218.32485260770974	62	127
218.115873015873	218.32485260770974	45	127
218.32485260770974	218.41773242630384	62	127
218.32485260770974	218.92857142857142	74	127
218.32485260770974	218.92857142857142	65	127
218.32485260770974	218.92857142857142	62	127
218.32485260770974	218.92857142857142	69	127
218.32485260770974	218.41773242630384	50	127
218.51061224489797	218.70798185941044	44	127
218.51061224489797	218.70798185941044	56	127
218.70798185941044	218.92857142857142	45	127
218.70798185941044	218.92857142857142	57	127
218.92857142857142	219.02145124716554	65	127
218.92857142857142	219.02145124716554	53	127
219.13755102040815	219.3117006802721	61	127
219.13755102040815	219.3117006802721	49	127
219.3117006802721	219.52068027210885	62	127
219.3117006802721	219.52068027210885	50	127
219.52068027210885	219.69482993197278	65	127
219.52068027210885	219.69482993197278	62	127
219.52068027210885	219.69482993197278	57	127
219.52068027210885	219.61356009070295	57	127
219.52068027210885	219.61356009070295	45	127
219.52068027210885	219.69482993197278	69	127
219.69482993197278	219.89219954648527	57	127
219.69482993197278	219.89219954648527	69	127
219.69482993197278	219.89219954648527	65	127
219.69482993197278	219.89219954648527	62	127
219.69482993197278	219.89219954648527	52	127
219.69482993197278	219.89219954648527	40	127
219.89219954648527	220.05473922902493	41	127
219.89219954648527	220.05473922902493	57	127
219.89219954648527	220.05473922902493	62	127
219.89219954648527	220.05473922902493	65	127
219.89219954648527	220.05473922902493	69	127
219.89219954648527	220.05473922902493	53	127
220.05473922902493	220.1360090702948	50	127
220.05473922902493	220.1360090702948	38	127
220.05473922902493	220.20566893424035	69	127
220.05473922902493	220.20566893424035	62	127
220.05473922902493	220.20566893424035	57	127
220.05473922902493	220.20566893424035	65	127
220.20566893424035	220.33337868480726	69	127
220.20566893424035	220.33337868480726	65	127
220.20566893424035	220.33337868480726	62	127
220.20566893424035	220.33337868480726	57	127
220.20566893424035	220.33337868480726	53	127
220.20566893424035	220.33337868480726	41	127
220.33337868480726	220.49591836734695	50	127
220.33337868480726	220.49591836734695	69	127
220.33337868480726	220.49591836734695	65	127
220.33337868480726	220.49591836734695	57	127
220.33337868480726	220.49591836734695	38	127
220.33337868480726	220.49591836734695	62	127
220.49591836734695	221.0415873015873	64	127
220.49591836734695	221.0415873015873	70	127
220.49591836734695	221.0415873015873	61	127
220.49591836734695	220.6004081632653	33	127
220.49591836734695	220.6004081632653	45	127
220.49591836734695	221.0415873015873	79	127
220.6932879818594	220.80938775510205	37	127
220.6932879818594	220.80938775510205	49	127
220.89065759637188	220.9719274376417	52	127
220.89065759637188	220.9719274376417	40	127
221.0415873015873	221.1112471655329	45	127
221.0415873015873	221.1112471655329	33	127
221.0415873015873	221.55242630385487	77	127
221.0415873015873	221.55242630385487	62	127
221.0415873015873	221.55242630385487	65	127
221.0415873015873	221.55242630385487	69	127
221.19251700680272	221.29700680272109	50	127
221.19251700680272	221.29700680272109	38	127
221.38988662131518	221.47115646258504	41	127
221.38988662131518	221.47115646258504	53	127
221.55242630385487	222.09809523809523	67	127
221.55242630385487	222.09809523809523	70	127
221.55242630385487	221.65691609977324	45	127
221.55242630385487	222.09809523809523	76	127
221.55242630385487	222.09809523809523	67	127
221.55242630385487	221.65691609977324	33	127
221.73818594104307	221.8542857142857	40	127
221.73818594104307	221.8542857142857	52	127
221.93555555555557	222.0168253968254	43	127
221.93555555555557	222.0168253968254	55	127
222.09809523809523	222.19097505668935	45	127
222.09809523809523	222.19097505668935	33	127
222.09809523809523	222.6785941043084	74	127
222.09809523809523	222.6785941043084	65	127
222.09809523809523	222.6785941043084	71	127
222.09809523809523	222.6785941043084	68	127
222.27224489795918	222.353514739229	53	127
222.27224489795918	222.353514739229	41	127
222.50444444444443	222.59732426303856	44	127
222.50444444444443	222.59732426303856	56	127
222.6785941043084	222.7714739229025	45	127
222.6785941043084	222.7714739229025	33	127
222.6785941043084	222.85274376417235	69	127
222.6785941043084	222.85274376417235	73	127
222.85274376417235	222.93401360544217	49	127
222.85274376417235	222.93401360544217	37	127
222.85274376417235	223.02689342403627	69	127
222.85274376417235	223.02689342403627	64	127
222.85274376417235	223.02689342403627	73	127
222.85274376417235	223.02689342403627	81	127
223.02689342403627	223.20104308390023	64	127
223.02689342403627	223.11977324263037	52	127
223.02689342403627	223.11977324263037	40	127
223.02689342403627	223.20104308390023	69	127
223.02689342403627	223.20104308390023	73	127
223.02689342403627	223.20104308390023	81	127
223.20104308390023	223.28231292517006	57	127
223.20104308390023	223.37519274376416	69	127
223.20104308390023	223.37519274376416	81	127
223.20104308390023	223.37519274376416	64	127
223.20104308390023	223.37519274376416	73	127
223.20104308390023	223.28231292517006	45	127
223.37519274376416	223.47968253968253	61	127
223.37519274376416	223.47968253968253	49	127
223.37519274376416	223.57256235827666	81	127
223.37519274376416	223.57256235827666	64	127
223.37519274376416	223.57256235827666	73	127
223.37519274376416	223.57256235827666	69	127
223.57256235827666	223.74671201814058	69	127
223.57256235827666	223.66544217687076	64	127
223.57256235827666	223.66544217687076	52	127
223.57256235827666	223.74671201814058	64	127
223.57256235827666	223.74671201814058	73	127
223.57256235827666	223.74671201814058	81	127
223.74671201814058	224.2807709750567	64	127
223.74671201814058	224.2807709750567	69	127
223.74671201814058	224.2807709750567	73	127
223.74671201814058	224.2807709750567	69	127
223.74671201814058	224.2807709750567	57	127
223.74671201814058	224.2807709750567	81	127
224.2807709750567	224.83804988662132	72	127
224.2807709750567	224.83804988662132	48	127
224.2807709750567	224.83804988662132	36	127
224.2807709750567	224.83804988662132	72	127
224.83804988662132	224.9425396825397	77	127
224.83804988662132	225.36049886621316	69	127
224.83804988662132	225.36049886621316	65	127
224.83804988662132	225.36049886621316	41	127
224.83804988662132	225.36049886621316	29	127
225.02380952380952	225.19795918367348	71	127
225.19795918367348	225.36049886621316	72	127
225.36049886621316	225.46498866213153	81	127
225.55786848072563	225.74362811791383	76	127
225.74362811791383	225.9177777777778	77	127
225.9177777777778	225.99904761904762	84	127
225.9177777777778	226.09192743764171	69	127
225.9177777777778	226.09192743764171	60	127
225.9177777777778	226.09192743764171	41	127
226.09192743764171	226.27768707482994	80	127
226.09192743764171	226.27768707482994	60	127
226.09192743764171	226.27768707482994	69	127
226.09192743764171	226.27768707482994	41	127
226.27768707482994	226.4402267573696	60	127
226.27768707482994	226.4402267573696	69	127
226.27768707482994	226.4402267573696	81	127
226.27768707482994	226.4402267573696	41	127
226.4402267573696	226.61437641723356	60	127
226.4402267573696	226.52149659863946	86	127
226.4402267573696	226.61437641723356	69	127
226.4402267573696	226.61437641723356	41	127
226.61437641723356	226.78852607709752	83	127
226.61437641723356	226.78852607709752	60	127
226.61437641723356	226.78852607709752	41	127
226.61437641723356	226.78852607709752	69	127
226.78852607709752	227.02072562358276	84	127
226.78852607709752	227.02072562358276	60	127
226.78852607709752	227.02072562358276	41	127
226.78852607709752	227.02072562358276	69	127
227.02072562358276	227.11360544217686	77	127
227.02072562358276	227.5780045351474	65	127
227.02072562358276	227.5780045351474	57	127
227.02072562358276	227.5780045351474	41	127
227.20648526077096	227.3922448979592	71	127
227.3922448979592	227.5780045351474	72	127
227.5780045351474	227.65927437641724	81	127
227.74054421768707	227.91469387755103	76	127
227.91469387755103	228.10045351473923	77	127
228.10045351473923	228.17011337868482	84	127
228.10045351473923	228.25138321995465	60	127
228.10045351473923	228.25138321995465	57	127
228.10045351473923	228.25138321995465	41	127
228.25138321995465	228.4255328798186	41	127
228.25138321995465	228.4255328798186	57	127
228.25138321995465	228.4255328798186	60	127
228.25138321995465	228.4255328798186	80	127
228.4255328798186	228.59968253968253	57	127
228.4255328798186	228.59968253968253	41	127
228.4255328798186	228.59968253968253	60	127
228.4255328798186	228.59968253968253	81	127
228.59968253968253	228.7738321995465	60	127
228.59968253968253	228.7738321995465	57	127
228.59968253968253	228.7738321995465	41	127
228.59968253968253	228.6809523809524	86	127
228.7738321995465	228.94798185941042	60	127
228.7738321995465	228.94798185941042	83	127
228.7738321995465	228.94798185941042	57	127
228.7738321995465	228.94798185941042	41	127
228.94798185941042	229.13374149659865	60	127
228.94798185941042	229.13374149659865	57	127
228.94798185941042	229.13374149659865	41	127
228.94798185941042	229.13374149659865	84	127
229.13374149659865	229.4007709750567	60	127
229.13374149659865	229.4007709750567	57	127
229.13374149659865	229.4007709750567	36	127
229.13374149659865	229.31950113378684	89	127
229.31950113378684	229.5168707482993	89	127
229.5168707482993	229.70263038548754	89	127
229.70263038548754	229.88839002267574	59	127
229.70263038548754	229.88839002267574	56	127
229.70263038548754	229.88839002267574	36	127
229.70263038548754	229.88839002267574	86	127
229.70263038548754	229.88839002267574	62	127
229.88839002267574	230.05092970521542	56	127
229.88839002267574	230.05092970521542	59	127
229.88839002267574	230.05092970521542	86	127
229.88839002267574	230.05092970521542	62	127
229.88839002267574	230.05092970521542	36	127
230.05092970521542	230.25990929705216	56	127
230.05092970521542	230.25990929705216	36	127
230.05092970521542	230.25990929705216	59	127
230.05092970521542	230.25990929705216	62	127
230.05092970521542	230.25990929705216	86	127
230.25990929705216	230.4340589569161	79	127
230.25990929705216	230.51532879818595	64	127
230.25990929705216	230.51532879818595	58	127
230.25990929705216	230.51532879818595	55	127
230.25990929705216	230.51532879818595	36	127
230.4340589569161	230.59659863945578	79	127
230.59659863945578	230.82879818594105	79	127
230.82879818594105	230.9913378684807	60	127
230.82879818594105	230.9913378684807	36	127
230.82879818594105	230.9913378684807	84	127
230.82879818594105	230.9913378684807	58	127
230.82879818594105	230.9913378684807	67	127
230.9913378684807	231.1538775510204	60	127
230.9913378684807	231.1538775510204	67	127
230.9913378684807	231.1538775510204	58	127
230.9913378684807	231.1538775510204	36	127
230.9913378684807	231.1538775510204	84	127
231.1538775510204	231.33963718820863	58	127
231.1538775510204	231.33963718820863	60	127
231.1538775510204	231.33963718820863	36	127
231.1538775510204	231.33963718820863	84	127
231.1538775510204	231.33963718820863	67	127
231.33963718820863	231.60666666666665	57	127
231.33963718820863	231.60666666666665	65	127
231.33963718820863	231.60666666666665	41	127
231.33963718820863	231.52539682539683	77	127
231.33963718820863	231.60666666666665	53	127
231.52539682539683	231.6879365079365	77	127
231.6879365079365	231.8736961451247	77	127
231.8736961451247	232.0362358276644	72	127
231.8736961451247	232.0362358276644	58	127
231.8736961451247	232.0362358276644	36	127
231.8736961451247	231.95496598639457	55	127
232.0362358276644	232.1987755102041	36	127
232.0362358276644	232.1987755102041	72	127
232.0362358276644	232.1987755102041	58	127
232.0362358276644	232.1987755102041	55	127
232.1987755102041	232.38453514739228	72	127
232.1987755102041	232.38453514739228	60	127
232.1987755102041	232.38453514739228	36	127
232.1987755102041	232.38453514739228	58	127
232.38453514739228	232.96503401360545	57	127
232.38453514739228	232.96503401360545	41	127
232.38453514739228	232.96503401360545	65	127
232.38453514739228	232.96503401360545	53	127
232.96503401360545	233.61519274376417	45	127
232.96503401360545	233.61519274376417	69	127
232.96503401360545	233.61519274376417	69	127
232.96503401360545	233.61519274376417	57	127
233.61519274376417	233.69646258503403	62	127
233.61519274376417	233.69646258503403	50	127
233.61519274376417	234.1724716553288	65	127
233.61519274376417	234.1724716553288	74	127
233.61519274376417	234.1724716553288	69	127
233.61519274376417	234.1724716553288	62	127
233.78934240362813	233.96349206349205	56	127
233.78934240362813	233.96349206349205	44	127
233.96349206349205	234.1724716553288	57	127
233.96349206349205	234.1724716553288	45	127
234.1724716553288	234.2653514739229	65	127
234.1724716553288	234.2653514739229	53	127
234.36984126984126	234.68331065759637	61	127
234.36984126984126	234.68331065759637	49	127
234.68331065759637	234.8690702947846	62	127
234.68331065759637	234.8690702947846	50	127
234.8690702947846	235.0548299319728	69	127
234.8690702947846	235.0548299319728	69	127
234.8690702947846	235.0548299319728	62	127
234.8690702947846	234.95034013605442	57	127
234.8690702947846	234.95034013605442	45	127
234.8690702947846	235.0548299319728	77	127
235.0548299319728	235.22897959183675	69	127
235.0548299319728	235.22897959183675	77	127
235.0548299319728	235.22897959183675	69	127
235.0548299319728	235.22897959183675	62	127
235.0548299319728	235.22897959183675	52	127
235.0548299319728	235.22897959183675	40	127
235.22897959183675	235.43795918367346	41	127
235.22897959183675	235.43795918367346	53	127
235.22897959183675	235.43795918367346	69	127
235.22897959183675	235.43795918367346	69	127
235.22897959183675	235.43795918367346	77	127
235.22897959183675	235.43795918367346	62	127
235.43795918367346	235.51922902494331	38	127
235.43795918367346	235.6121088435374	77	127
235.43795918367346	235.6121088435374	69	127
235.43795918367346	235.6121088435374	62	127
235.43795918367346	235.51922902494331	50	127
235.43795918367346	235.6121088435374	69	127
235.6121088435374	235.7746485260771	69	127
235.6121088435374	235.7746485260771	77	127
235.6121088435374	235.7746485260771	69	127
235.6121088435374	235.7746485260771	62	127
235.6121088435374	235.7746485260771	44	127
235.6121088435374	235.7746485260771	32	127
235.7746485260771	235.98362811791384	69	127
235.7746485260771	235.98362811791384	69	127
235.7746485260771	235.98362811791384	62	127
235.7746485260771	235.98362811791384	33	127
235.7746485260771	235.98362811791384	45	127
235.7746485260771	235.98362811791384	77	127
235.98362811791384	236.07650793650794	62	127
235.98362811791384	236.50607709750568	74	127
235.98362811791384	236.50607709750568	62	127
235.98362811791384	236.50607709750568	69	127
235.98362811791384	236.50607709750568	65	127
235.98362811791384	236.07650793650794	50	127
236.16938775510204	236.33192743764172	44	127
236.16938775510204	236.33192743764172	56	127
236.33192743764172	236.50607709750568	57	127
236.33192743764172	236.50607709750568	45	127
236.50607709750568	236.5873469387755	65	127
236.50607709750568	236.5873469387755	53	127
236.6570068027211	236.85437641723357	61	127
236.6570068027211	236.85437641723357	49	127
236.85437641723357	237.0285260770975	50	127
236.85437641723357	237.0285260770975	62	127
237.0285260770975	237.10979591836735	57	127
237.0285260770975	237.10979591836735	45	127
237.0285260770975	237.19106575963718	69	127
237.0285260770975	237.19106575963718	62	127
237.0285260770975	237.19106575963718	65	127
237.0285260770975	237.19106575963718	57	127
237.19106575963718	237.38843537414965	69	127
237.19106575963718	237.38843537414965	40	127
237.19106575963718	237.38843537414965	52	127
237.19106575963718	237.38843537414965	62	127
237.19106575963718	237.38843537414965	65	127
237.19106575963718	237.38843537414965	57	127
237.38843537414965	237.5625850340136	62	127
237.38843537414965	237.5625850340136	53	127
237.38843537414965	237.5625850340136	57	127
237.38843537414965	237.5625850340136	41	127
237.38843537414965	237.5625850340136	65	127
237.38843537414965	237.5625850340136	69	127
237.5625850340136	237.73673469387754	65	127
237.5625850340136	237.6554648526077	50	127
237.5625850340136	237.6554648526077	38	127
237.5625850340136	237.73673469387754	69	127
237.5625850340136	237.73673469387754	62	127
237.5625850340136	237.73673469387754	57	127
237.73673469387754	237.89927437641722	69	127
237.73673469387754	237.89927437641722	62	127
237.73673469387754	237.89927437641722	57	127
237.73673469387754	237.89927437641722	53	127
237.73673469387754	237.89927437641722	41	127
237.73673469387754	237.89927437641722	65	127
237.89927437641722	238.0618140589569	69	127
237.89927437641722	238.0618140589569	65	127
237.89927437641722	238.0618140589569	62	127
237.89927437641722	238.0618140589569	50	127
237.89927437641722	238.0618140589569	38	127
237.89927437641722	238.0618140589569	57	127
238.0618140589569	238.154693877551	45	127
238.0618140589569	238.154693877551	33	127
238.0618140589569	238.6307029478458	70	127
238.0618140589569	238.6307029478458	61	127
238.0618140589569	238.6307029478458	64	127
238.0618140589569	238.6307029478458	79	127
238.24757369614514	238.36367346938775	49	127
238.24757369614514	238.36367346938775	37	127
238.4449433106576	238.5378231292517	40	127
238.4449433106576	238.5378231292517	52	127
238.6307029478458	239.23442176870748	69	127
238.6307029478458	238.77002267573695	33	127
238.6307029478458	239.23442176870748	65	127
238.6307029478458	238.77002267573695	45	127
238.6307029478458	239.23442176870748	62	127
238.6307029478458	239.23442176870748	77	127
238.8512925170068	238.96739229024942	38	127
238.8512925170068	238.96739229024942	50	127
239.06027210884355	239.14154195011338	53	127
239.06027210884355	239.14154195011338	41	127
239.23442176870748	239.7917006802721	70	127
239.23442176870748	239.7917006802721	76	127
239.23442176870748	239.7917006802721	67	127
239.23442176870748	239.32730158730158	33	127
239.23442176870748	239.32730158730158	45	127
239.23442176870748	239.7917006802721	67	127
239.43179138321995	239.52467120181407	52	127
239.43179138321995	239.52467120181407	40	127
239.6059410430839	239.71043083900227	43	127
239.6059410430839	239.71043083900227	55	127
239.7917006802721	240.31414965986394	65	127
239.7917006802721	240.31414965986394	68	127
239.7917006802721	239.8845804988662	45	127
239.7917006802721	239.8845804988662	33	127
239.7917006802721	240.31414965986394	74	127
239.7917006802721	240.31414965986394	71	127
239.96585034013606	240.05873015873016	53	127
239.96585034013606	240.05873015873016	41	127
240.14	240.2328798185941	56	127
240.14	240.2328798185941	44	127
240.31414965986394	240.40702947845804	45	127
240.31414965986394	240.40702947845804	33	127
240.31414965986394	240.52312925170068	73	127
240.31414965986394	240.52312925170068	69	127
240.52312925170068	240.62761904761905	49	127
240.52312925170068	240.62761904761905	37	127
240.52312925170068	240.72049886621315	69	127
240.52312925170068	240.72049886621315	64	127
240.52312925170068	240.72049886621315	73	127
240.52312925170068	240.72049886621315	81	127
240.72049886621315	240.88303854875284	69	127
240.72049886621315	240.801768707483	52	127
240.72049886621315	240.801768707483	40	127
240.72049886621315	240.88303854875284	81	127
240.72049886621315	240.88303854875284	73	127
240.72049886621315	240.88303854875284	64	127
240.88303854875284	240.97591836734694	45	127
240.88303854875284	241.06879818594103	69	127
240.88303854875284	241.06879818594103	81	127
240.88303854875284	241.06879818594103	64	127
240.88303854875284	240.97591836734694	57	127
240.88303854875284	241.06879818594103	73	127
241.06879818594103	241.1500680272109	61	127
241.06879818594103	241.1500680272109	49	127
241.06879818594103	241.242947845805	81	127
241.06879818594103	241.242947845805	64	127
241.06879818594103	241.242947845805	73	127
241.06879818594103	241.242947845805	69	127
241.242947845805	241.3358276643991	64	127
241.242947845805	241.3358276643991	52	127
241.242947845805	241.41709750566892	69	127
241.242947845805	241.41709750566892	64	127
241.242947845805	241.41709750566892	73	127
241.242947845805	241.41709750566892	81	127
241.41709750566892	242.02081632653062	69	127
241.41709750566892	242.02081632653062	81	127
241.41709750566892	242.02081632653062	64	127
241.41709750566892	242.02081632653062	73	127
241.41709750566892	242.02081632653062	57	127
241.41709750566892	242.02081632653062	69	127
242.02081632653062	242.5548752834467	72	127
242.02081632653062	242.5548752834467	48	127
242.02081632653062	242.5548752834467	36	127
242.02081632653062	242.5548752834467	72	127
242.5548752834467	242.7174149659864	77	127
242.5548752834467	243.15859410430838	69	127
242.5548752834467	243.15859410430838	65	127
242.5548752834467	243.15859410430838	29	127
242.5548752834467	243.15859410430838	41	127
242.82190476190476	242.99605442176872	71	127
242.99605442176872	243.15859410430838	72	127
243.15859410430838	243.2514739229025	81	127
243.35596371882087	243.54172335600907	76	127
243.54172335600907	243.70426303854876	77	127
243.70426303854876	243.82036281179137	84	127
243.70426303854876	243.9132426303855	60	127
243.70426303854876	243.9132426303855	41	127
243.70426303854876	243.9132426303855	69	127
243.9132426303855	244.07578231292516	41	127
243.9132426303855	244.07578231292516	69	127
243.9132426303855	244.07578231292516	80	127
243.9132426303855	244.07578231292516	60	127
244.07578231292516	244.2499319727891	81	127
244.07578231292516	244.2499319727891	69	127
244.07578231292516	244.2499319727891	60	127
244.07578231292516	244.2499319727891	41	127
244.2499319727891	244.33120181405894	86	127
244.2499319727891	244.42408163265307	60	127
244.2499319727891	244.42408163265307	41	127
244.2499319727891	244.42408163265307	69	127
244.42408163265307	244.58662131519273	83	127
244.42408163265307	244.58662131519273	60	127
244.42408163265307	244.58662131519273	41	127
244.42408163265307	244.58662131519273	69	127
244.58662131519273	244.74916099773242	69	127
244.58662131519273	244.74916099773242	60	127
244.58662131519273	244.74916099773242	41	127
244.58662131519273	244.74916099773242	84	127
244.74916099773242	245.24839002267575	41	127
244.74916099773242	244.83043083900228	77	127
244.74916099773242	245.24839002267575	65	127
244.74916099773242	245.24839002267575	57	127
244.92331065759637	245.08585034013606	71	127
245.08585034013606	245.24839002267575	72	127
245.24839002267575	245.34126984126985	81	127
245.43414965986395	245.59668934240364	76	127
245.59668934240364	245.75922902494332	77	127
245.75922902494332	245.87532879818593	84	127
245.75922902494332	246.0146485260771	57	127
245.75922902494332	246.0146485260771	41	127
245.75922902494332	246.0146485260771	60	127
246.0146485260771	246.22362811791382	60	127
246.0146485260771	246.22362811791382	57	127
246.0146485260771	246.22362811791382	41	127
246.0146485260771	246.22362811791382	80	127
246.22362811791382	246.3861678004535	81	127
246.22362811791382	246.3861678004535	60	127
246.22362811791382	246.3861678004535	57	127
246.22362811791382	246.3861678004535	41	127
246.3861678004535	246.56031746031746	41	127
246.3861678004535	246.46743764172336	86	127
246.3861678004535	246.56031746031746	60	127
246.3861678004535	246.56031746031746	57	127
246.56031746031746	246.72285714285715	60	127
246.56031746031746	246.72285714285715	57	127
246.56031746031746	246.72285714285715	83	127
246.56031746031746	246.72285714285715	41	127
246.72285714285715	246.88539682539684	60	127
246.72285714285715	246.88539682539684	41	127
246.72285714285715	246.88539682539684	57	127
246.72285714285715	246.88539682539684	84	127
246.88539682539684	247.1756462585034	57	127
246.88539682539684	247.1756462585034	36	127
246.88539682539684	247.07115646258504	89	127
246.88539682539684	247.1756462585034	60	127
247.07115646258504	247.34979591836733	89	127
247.34979591836733	247.55877551020407	89	127
247.55877551020407	247.73292517006803	62	127
247.55877551020407	247.73292517006803	36	127
247.55877551020407	247.73292517006803	59	127
247.55877551020407	247.73292517006803	86	127
247.55877551020407	247.73292517006803	56	127
247.73292517006803	247.907074829932	59	127
247.73292517006803	247.907074829932	36	127
247.73292517006803	247.907074829932	56	127
247.73292517006803	247.907074829932	86	127
247.73292517006803	247.907074829932	62	127
247.907074829932	248.08122448979591	86	127
247.907074829932	248.08122448979591	62	127
247.907074829932	248.08122448979591	36	127
247.907074829932	248.08122448979591	56	127
247.907074829932	248.08122448979591	59	127
248.08122448979591	248.2669841269841	79	127
248.08122448979591	248.34825396825397	64	127
248.08122448979591	248.34825396825397	58	127
248.08122448979591	248.34825396825397	36	127
248.08122448979591	248.34825396825397	55	127
248.2669841269841	248.41791383219956	79	127
248.41791383219956	248.61528344671203	79	127
248.61528344671203	248.75460317460318	36	127
248.61528344671203	248.75460317460318	84	127
248.61528344671203	248.75460317460318	60	127
248.61528344671203	248.75460317460318	58	127
248.61528344671203	248.75460317460318	67	127
248.75460317460318	248.94036281179137	67	127
248.75460317460318	248.94036281179137	60	127
248.75460317460318	248.94036281179137	36	127
248.75460317460318	248.94036281179137	84	127
248.75460317460318	248.94036281179137	58	127
248.94036281179137	249.11451247165533	84	127
248.94036281179137	249.11451247165533	58	127
248.94036281179137	249.11451247165533	36	127
248.94036281179137	249.11451247165533	60	127
248.94036281179137	249.11451247165533	67	127
249.11451247165533	249.36993197278912	57	127
249.11451247165533	249.36993197278912	65	127
249.11451247165533	249.36993197278912	53	127
249.11451247165533	249.36993197278912	41	127
249.11451247165533	249.27705215419502	77	127
249.27705215419502	249.46281179138322	77	127
249.46281179138322	249.64857142857142	77	127
249.64857142857142	249.72984126984127	55	127
249.64857142857142	249.82272108843537	72	127
249.64857142857142	249.82272108843537	58	127
249.64857142857142	249.82272108843537	36	127
249.82272108843537	250.0317006802721	58	127
249.82272108843537	250.0317006802721	55	127
249.82272108843537	250.0317006802721	36	127
249.82272108843537	250.0317006802721	72	127
250.0317006802721	250.2174603174603	60	127
250.0317006802721	250.2174603174603	58	127
250.0317006802721	250.2174603174603	36	127
250.0317006802721	250.2174603174603	72	127
250.2174603174603	250.72829931972788	57	127
250.2174603174603	250.72829931972788	53	127
250.2174603174603	250.72829931972788	65	127
250.2174603174603	250.72829931972788	41	127
251.3552380952381	251.63387755102042	64	127
251.63387755102042	251.8892970521542	60	127
251.8892970521542	252.37691609977324	55	127
251.8892970521542	252.37691609977324	36	127
251.8892970521542	251.9473469387755	79	127
251.8892970521542	252.15632653061223	58	127
251.9473469387755	252.01700680272108	81	127
252.01700680272108	252.08666666666667	79	127
252.08666666666667	252.15632653061223	81	127
252.15632653061223	252.21437641723355	79	127
252.15632653061223	252.37691609977324	60	127
252.21437641723355	252.2608163265306	81	127
252.2608163265306	252.31886621315192	78	127
252.31886621315192	252.37691609977324	79	127
252.37691609977324	252.4581859410431	86	127
252.37691609977324	252.65555555555557	64	127
252.53945578231293	252.65555555555557	84	127
252.65555555555557	252.91097505668935	60	127
252.7368253968254	252.8297052154195	83	127
252.91097505668935	253.44503401360544	55	127
252.91097505668935	253.00385487528345	82	127
252.91097505668935	253.44503401360544	36	127
252.91097505668935	253.18961451247165	58	127
253.08512471655328	253.18961451247165	81	127
253.18961451247165	253.44503401360544	60	127
253.2708843537415	253.3637641723356	79	127
253.44503401360544	253.955873015873	81	127
253.44503401360544	253.70045351473922	65	127
253.70045351473922	253.955873015873	60	127
253.955873015873	254.01392290249433	84	127
253.955873015873	254.47832199546485	53	127
253.955873015873	254.19968253968253	57	127
253.955873015873	254.47832199546485	29	127
254.01392290249433	254.08358276643992	86	127
254.08358276643992	254.14163265306124	84	127
254.14163265306124	254.19968253968253	86	127
254.19968253968253	254.47832199546485	60	127
254.19968253968253	254.26934240362812	84	127
254.26934240362812	254.32739229024943	86	127
254.32739229024943	254.40866213151926	83	127
254.40866213151926	254.47832199546485	84	127
254.47832199546485	254.73374149659864	65	127
254.47832199546485	254.55959183673468	81	127
254.64086167800454	254.73374149659864	79	127
254.73374149659864	255.0007709750567	60	127
254.82662131519274	254.91950113378684	77	127
255.0007709750567	255.29102040816326	57	127
255.0007709750567	255.60448979591837	53	127
255.0007709750567	255.10526077097506	76	127
255.0007709750567	255.60448979591837	29	127
255.19814058956916	255.29102040816326	77	127
255.29102040816326	255.60448979591837	60	127
255.4071201814059	255.52321995464854	74	127
255.60448979591837	255.8831292517007	64	127
255.60448979591837	256.15015873015875	72	127
255.8831292517007	256.15015873015875	60	127
256.15015873015875	256.20820861678004	79	127
256.15015873015875	256.64938775510205	55	127
256.15015873015875	256.64938775510205	36	127
256.15015873015875	256.39396825396824	58	127
256.20820861678004	256.27784580498866	81	127
256.27784580498866	256.33591836734695	79	127
256.33591836734695	256.39396825396824	81	127
256.39396825396824	256.46362811791386	79	127
256.39396825396824	256.64938775510205	60	127
256.46362811791386	256.52167800453515	81	127
256.52167800453515	256.5913378684807	78	127
256.5913378684807	256.64938775510205	79	127
256.64938775510205	256.7306575963719	82	127
256.64938775510205	256.88156462585033	67	127
256.80031746031744	256.88156462585033	79	127
256.88156462585033	257.1370068027211	60	127
256.97446712018143	257.05573696145126	76	127
257.1370068027211	257.65945578231293	36	127
257.1370068027211	257.65945578231293	55	127
257.1370068027211	257.2182766439909	72	127
257.1370068027211	257.3575963718821	58	127
257.28793650793654	257.3575963718821	74	127
257.3575963718821	257.65945578231293	60	127
257.46208616780046	257.55496598639456	76	127
257.65945578231293	258.15868480725624	77	127
257.65945578231293	257.9032426303855	65	127
257.9032426303855	258.15868480725624	60	127
258.15868480725624	258.6695238095238	29	127
258.15868480725624	258.2167120181406	72	127
258.15868480725624	258.6695238095238	53	127
258.15868480725624	258.4024943310658	57	127
258.2167120181406	258.2980045351474	74	127
258.2980045351474	258.3560544217687	72	127
258.3560544217687	258.4024943310658	74	127
258.4024943310658	258.6695238095238	60	127
258.4024943310658	258.47215419501134	72	127
258.47215419501134	258.53020408163263	74	127
258.53020408163263	258.59986394557825	71	127
258.59986394557825	258.6695238095238	72	127
258.6695238095238	258.7624036281179	77	127
258.6695238095238	258.9597732426304	65	127
258.8668934240363	258.9597732426304	75	127
258.9597732426304	259.2035827664399	57	127
259.0410430839002	259.1223129251701	74	127
259.2035827664399	259.7956916099773	29	127
259.2035827664399	259.25002267573694	53	127
259.2035827664399	259.28485260770975	72	127
259.2035827664399	259.44736961451247	60	127
259.25002267573694	259.33129251700683	55	127
259.33129251700683	259.3893424036281	53	127
259.3661224489796	259.44736961451247	70	127
259.3893424036281	259.44736961451247	55	127
259.44736961451247	259.5518820861678	53	127
259.44736961451247	259.7956916099773	63	127
259.5518820861678	259.6215419501134	55	127
259.56349206349205	259.6795918367347	69	127
259.6215419501134	259.7144217687075	52	127
259.7144217687075	259.7956916099773	53	127
259.7956916099773	260.42263038548754	70	127
259.7956916099773	260.42263038548754	62	127
259.7956916099773	261.0727664399093	62	127
259.7956916099773	261.0727664399093	34	127
260.42263038548754	260.51551020408164	70	127
260.51551020408164	260.62	72	127
260.62	260.70126984126983	70	127
260.70126984126983	260.79414965986393	72	127
260.79414965986393	260.86380952380955	70	127
260.86380952380955	260.9334693877551	72	127
260.9334693877551	260.9915192743764	69	127
260.9915192743764	261.0727664399093	70	127
261.0727664399093	262.2221768707483	33	127
261.0727664399093	262.2221768707483	60	127
261.0727664399093	261.8854875283447	75	127
261.6532879818594	261.7113378684807	81	127
261.7113378684807	261.7577777777778	82	127
261.7577777777778	261.82743764172335	81	127
261.82743764172335	261.8854875283447	82	127
261.8854875283447	262.2221768707483	66	127
261.8854875283447	261.9667573696145	81	127
261.9667573696145	262.0596371882086	82	127
262.0596371882086	262.1525170068027	80	127
262.1525170068027	262.2221768707483	81	127
262.2221768707483	263.3947845804989	67	127
262.2221768707483	263.3947845804989	58	127
262.2221768707483	263.3947845804989	86	127
262.2221768707483	263.3947845804989	34	127
263.3947845804989	263.928843537415	31	127
263.3947845804989	263.928843537415	74	127
263.3947845804989	263.6385714285714	84	127
263.6385714285714	263.928843537415	82	127
263.6385714285714	263.928843537415	58	127
263.928843537415	264.21909297052156	60	127
263.928843537415	264.21909297052156	33	127
263.928843537415	264.21909297052156	72	127
263.928843537415	264.21909297052156	81	127
264.21909297052156	264.5209523809524	79	127
264.21909297052156	264.5209523809524	34	127
264.21909297052156	264.5209523809524	70	127
264.21909297052156	264.5209523809524	62	127
264.5209523809524	265.72839002267574	33	127
264.5209523809524	265.72839002267574	69	127
264.5209523809524	265.72839002267574	62	127
264.5209523809524	265.72839002267574	77	127
265.72839002267574	266.81972789115645	33	127
265.72839002267574	266.6571882086168	67	127
265.72839002267574	266.2392290249433	64	127
265.72839002267574	266.2392290249433	73	127
266.2392290249433	266.6571882086168	76	127
266.2392290249433	266.6571882086168	61	127
266.6571882086168	266.81972789115645	62	127
266.6571882086168	266.81972789115645	74	127
266.6571882086168	266.81972789115645	65	127
266.81972789115645	267.95750566893423	38	127
266.81972789115645	267.95750566893423	74	127
266.81972789115645	267.95750566893423	65	127
266.81972789115645	267.95750566893423	62	127
267.95750566893423	269.21138321995466	36	127
267.95750566893423	268.02714285714285	65	127
268.02714285714285	268.0968253968254	67	127
268.0968253968254	268.2941950113379	77	127
268.0968253968254	268.2941950113379	65	127
268.2941950113379	268.35224489795917	67	127
268.35224489795917	268.4102947845805	65	127
268.4102947845805	268.4799546485261	67	127
268.4799546485261	268.5379818594104	65	127
268.5379818594104	268.61927437641725	67	127
268.61927437641725	268.6889342403628	65	127
268.6889342403628	268.74696145124716	67	127
268.74696145124716	268.8514512471655	65	127
268.8514512471655	268.93274376417236	67	127
268.93274376417236	269.0604535147392	64	127
269.0604535147392	269.21138321995466	65	127
269.21138321995466	270.5117006802721	74	127
269.21138321995466	270.5117006802721	34	127
269.8615419501134	269.94281179138324	57	127
269.94281179138324	270.0008616780045	58	127
270.0008616780045	270.07049886621314	57	127
270.07049886621314	270.1401814058957	58	127
270.1401814058957	270.2678911564626	57	127
270.2678911564626	270.3607709750567	58	127
270.3607709750567	270.4536507936508	55	127
270.4536507936508	270.5117006802721	57	127
270.5117006802721	271.61462585034013	72	127
270.5117006802721	271.3592290249433	63	127
270.5117006802721	271.61462585034013	33	127
271.06897959183675	271.1502494331066	69	127
271.1502494331066	271.20829931972787	70	127
271.20829931972787	271.28956916099776	69	127
271.28956916099776	271.3592290249433	70	127
271.3592290249433	271.61462585034013	54	127
271.3592290249433	271.4172789115646	69	127
271.4172789115646	271.4985487528345	70	127
271.4985487528345	271.5565986394558	68	127
271.5565986394558	271.61462585034013	69	127
271.61462585034013	272.9149659863946	55	127
271.61462585034013	272.624693877551	74	127
271.61462585034013	272.9149659863946	70	127
271.61462585034013	272.9149659863946	34	127
272.624693877551	272.79886621315194	75	127
272.79886621315194	272.9149659863946	74	127
272.9149659863946	273.51868480725625	31	127
272.9149659863946	273.1936054421769	72	127
272.9149659863946	273.51868480725625	62	127
273.1936054421769	273.51868480725625	70	127
273.1936054421769	273.51868480725625	46	127
273.51868480725625	273.79732426303855	60	127
273.51868480725625	273.79732426303855	33	127
273.51868480725625	273.79732426303855	69	127
273.51868480725625	273.79732426303855	48	127
273.79732426303855	274.0411337868481	34	127
273.79732426303855	274.0411337868481	67	127
273.79732426303855	274.0411337868481	50	127
273.79732426303855	274.0411337868481	58	127
274.0411337868481	275.28337868480725	65	127
274.0411337868481	275.28337868480725	50	127
274.0411337868481	275.28337868480725	57	127
274.0411337868481	275.28337868480725	33	127
275.28337868480725	276.56049886621315	33	127
275.28337868480725	275.98	52	127
275.28337868480725	276.4443990929705	55	127
275.28337868480725	275.98	61	127
275.98	276.4443990929705	49	127
275.98	276.4443990929705	64	127
276.4443990929705	276.56049886621315	50	127
276.4443990929705	276.56049886621315	62	127
276.4443990929705	276.56049886621315	53	127
276.56049886621315	278.4645124716553	62	127
276.56049886621315	278.4645124716553	50	127
276.56049886621315	278.4645124716553	38	127
276.56049886621315	278.4645124716553	53	127
279.5326530612245	280.08990929705215	53	127
280.08990929705215	280.41501133786846	58	127
280.08990929705215	281.1115873015873	62	127
280.08990929705215	281.1115873015873	58	127
280.08990929705215	280.41501133786846	34	127
280.41501133786846	280.7633106575964	57	127
280.7633106575964	281.1115873015873	46	127
280.7633106575964	281.1115873015873	58	127
281.1115873015873	281.3786394557823	65	127
281.1115873015873	281.3786394557823	53	127
281.2509297052154	281.3786394557823	58	127
281.3786394557823	281.6572789115646	34	127
281.3786394557823	282.4351473922903	62	127
281.3786394557823	282.4351473922903	62	127
281.3786394557823	281.6572789115646	58	127
281.6572789115646	282.04038548752834	57	127
282.04038548752834	282.4351473922903	46	127
282.04038548752834	282.4351473922903	58	127
282.4351473922903	282.77183673469386	53	127
282.4351473922903	282.77183673469386	65	127
282.64410430839	282.77183673469386	62	127
282.77183673469386	283.66580498866216	62	127
282.77183673469386	283.66580498866216	65	127
282.77183673469386	283.0504761904762	58	127
282.77183673469386	283.0504761904762	34	127
283.0504761904762	283.31750566893425	57	127
283.31750566893425	283.66580498866216	58	127
283.31750566893425	283.66580498866216	46	127
283.66580498866216	284.00249433106575	53	127
283.66580498866216	284.00249433106575	65	127
283.66580498866216	283.8631746031746	62	127
283.8631746031746	284.00249433106575	58	127
284.00249433106575	284.2811111111111	34	127
284.00249433106575	285.25637188208617	53	127
284.00249433106575	284.2811111111111	58	127
284.00249433106575	284.9777324263039	62	127
284.2811111111111	284.5945804988662	57	127
284.5945804988662	284.9777324263039	58	127
284.5945804988662	284.9777324263039	46	127
284.9777324263039	285.25637188208617	65	127
284.9777324263039	285.25637188208617	53	127
285.25637188208617	286.42895691609976	63	127
285.25637188208617	286.1619501133787	60	127
285.25637188208617	285.5930612244898	29	127
285.25637188208617	285.5930612244898	57	127
285.5930612244898	285.8833106575964	56	127
285.8833106575964	286.1619501133787	57	127
285.8833106575964	286.1619501133787	41	127
286.1619501133787	286.42895691609976	53	127
286.2896598639456	286.42895691609976	60	127
286.42895691609976	286.7540589569161	29	127
286.42895691609976	286.881768707483	61	127
286.42895691609976	286.7540589569161	58	127
286.42895691609976	287.7292970521542	64	127
286.7540589569161	287.12557823129254	53	127
286.881768707483	287.03269841269844	63	127
287.03269841269844	287.12557823129254	61	127
287.12557823129254	287.4622675736961	41	127
287.12557823129254	287.4622675736961	60	127
287.12557823129254	287.4622675736961	60	127
287.4622675736961	287.7292970521542	61	127
287.4622675736961	287.7292970521542	58	127
287.7292970521542	287.99632653061224	60	127
287.7292970521542	287.99632653061224	29	127
287.7292970521542	288.30979591836734	65	127
287.7292970521542	288.30979591836734	57	127
287.99632653061224	288.30979591836734	53	127
288.30979591836734	289.43596371882086	65	127
288.30979591836734	288.6348752834467	41	127
288.30979591836734	288.90190476190475	63	127
288.30979591836734	288.6348752834467	60	127
288.6348752834467	288.90190476190475	53	127
288.90190476190475	289.66816326530613	62	127
288.90190476190475	289.28503401360547	58	127
288.90190476190475	289.28503401360547	29	127
289.28503401360547	289.66816326530613	53	127
289.43596371882086	289.7378231292517	64	127
289.66816326530613	290.06290249433107	41	127
289.66816326530613	289.94680272108843	63	127
289.66816326530613	290.06290249433107	57	127
289.66816326530613	290.3763718820862	60	127
289.94680272108843	290.15578231292517	62	127
290.06290249433107	290.3763718820862	53	127
290.15578231292517	290.3763718820862	60	127
290.3763718820862	290.70145124716555	58	127
290.3763718820862	291.25873015873015	58	127
290.3763718820862	291.25873015873015	62	127
290.3763718820862	290.70145124716555	34	127
290.70145124716555	290.9684807256236	57	127
290.9684807256236	291.25873015873015	58	127
290.9684807256236	291.25873015873015	46	127
291.25873015873015	291.52575963718823	53	127
291.25873015873015	291.52575963718823	65	127
291.3980498866213	291.52575963718823	58	127
291.52575963718823	291.955306122449	58	127
291.52575963718823	291.955306122449	34	127
291.52575963718823	292.65192743764175	62	127
291.52575963718823	292.65192743764175	62	127
291.955306122449	292.23396825396827	57	127
292.23396825396827	292.65192743764175	58	127
292.23396825396827	292.65192743764175	46	127
292.65192743764175	292.9421768707483	53	127
292.65192743764175	292.9421768707483	65	127
292.80285714285714	292.9421768707483	62	127
292.9421768707483	293.2208163265306	58	127
292.9421768707483	293.8245351473923	65	127
292.9421768707483	293.2208163265306	34	127
292.9421768707483	293.8245351473923	61	127
293.2208163265306	293.4994557823129	57	127
293.4994557823129	293.8245351473923	58	127
293.4994557823129	293.8245351473923	46	127
293.8245351473923	294.19605442176874	53	127
293.8245351473923	294.19605442176874	65	127
293.8245351473923	293.99866213151927	61	127
293.99866213151927	294.19605442176874	58	127
294.19605442176874	295.577641723356	53	127
294.19605442176874	294.5327437641723	37	127
294.19605442176874	295.577641723356	59	127
294.19605442176874	294.5327437641723	56	127
294.5327437641723	294.88104308390024	55	127
294.88104308390024	295.25256235827663	49	127
294.88104308390024	295.25256235827663	56	127
295.25256235827663	295.577641723356	53	127
295.577641723356	296.44836734693877	60	127
295.577641723356	295.9027210884354	57	127
295.577641723356	295.9027210884354	36	127
295.577641723356	296.7502494331066	65	127
295.9027210884354	296.1697505668934	60	127
296.1697505668934	296.44836734693877	48	127
296.1697505668934	296.44836734693877	59	127
296.44836734693877	296.7502494331066	60	127
296.6109297052154	296.7502494331066	57	127
296.7502494331066	297.1681859410431	58	127
296.7502494331066	297.01727891156463	36	127
296.7502494331066	297.01727891156463	55	127
296.7502494331066	297.2959183673469	67	127
297.01727891156463	297.2959183673469	60	127
297.1681859410431	297.23786848072564	60	127
297.23786848072564	297.2959183673469	58	127
297.2959183673469	297.60938775510203	48	127
297.2959183673469	297.60938775510203	57	127
297.2959183673469	297.8880045351474	64	127
297.2959183673469	297.60938775510203	57	127
297.60938775510203	297.8880045351474	58	127
297.60938775510203	297.8880045351474	55	127
297.8880045351474	298.23632653061225	57	127
297.8880045351474	298.23632653061225	29	127
297.8880045351474	298.51496598639454	65	127
297.8880045351474	298.51496598639454	53	127
298.23632653061225	298.51496598639454	53	127
298.51496598639454	298.8168253968254	58	127
298.51496598639454	299.0722448979592	64	127
298.51496598639454	298.8168253968254	41	127
298.51496598639454	299.5714739229025	53	127
298.8168253968254	299.0722448979592	55	127
299.0722448979592	300.5118820861678	60	127
299.0722448979592	300.5118820861678	63	127
299.0722448979592	299.4205215419501	29	127
299.5714739229025	299.90816326530614	54	127
299.86172335600907	300.0823129251701	55	127
300.0823129251701	300.3029024943311	56	127
300.3029024943311	300.5118820861678	57	127
300.5118820861678	301.56836734693877	62	127
300.5118820861678	301.56836734693877	58	127
300.5118820861678	300.94145124716556	34	127
300.5118820861678	300.94145124716556	58	127
300.94145124716556	301.2317006802721	57	127
301.2317006802721	301.56836734693877	58	127
301.2317006802721	301.56836734693877	46	127
301.56836734693877	301.8354195011338	65	127
301.56836734693877	301.8354195011338	53	127
301.6960997732426	301.8354195011338	58	127
301.8354195011338	302.7990476190476	62	127
301.8354195011338	302.1836961451247	58	127
301.8354195011338	302.1836961451247	34	127
301.8354195011338	302.7990476190476	62	127
302.1836961451247	302.5204081632653	57	127
302.5204081632653	302.7990476190476	46	127
302.5204081632653	302.7990476190476	58	127
302.7990476190476	303.1125170068027	53	127
302.7990476190476	303.1125170068027	65	127
302.9267573696145	303.1125170068027	62	127
303.1125170068027	303.4724263038549	34	127
303.1125170068027	303.4724263038549	58	127
303.1125170068027	304.04131519274375	62	127
303.1125170068027	304.04131519274375	65	127
303.4724263038549	303.76267573696146	57	127
303.76267573696146	304.04131519274375	58	127
303.76267573696146	304.04131519274375	46	127
304.04131519274375	304.4128344671202	53	127
304.04131519274375	304.4128344671202	65	127
304.04131519274375	304.2502947845805	62	127
304.2502947845805	304.4128344671202	58	127
304.4128344671202	304.77274376417233	58	127
304.4128344671202	305.45773242630383	62	127
304.4128344671202	304.77274376417233	34	127
304.4128344671202	305.7247619047619	53	127
304.77274376417233	305.1907029478458	57	127
305.1907029478458	305.45773242630383	58	127
305.1907029478458	305.45773242630383	46	127
305.45773242630383	305.7247619047619	53	127
305.45773242630383	305.7247619047619	65	127
305.7247619047619	306.9554195011338	63	127
305.7247619047619	306.02662131519276	57	127
305.7247619047619	306.6767573696145	60	127
305.7247619047619	306.02662131519276	29	127
306.02662131519276	306.3284807256236	56	127
306.3284807256236	306.6767573696145	57	127
306.3284807256236	306.6767573696145	41	127
306.6767573696145	306.9554195011338	53	127
306.8160997732426	306.9554195011338	60	127
306.9554195011338	308.16285714285715	64	127
306.9554195011338	307.2804988662132	29	127
306.9554195011338	307.2804988662132	58	127
306.9554195011338	307.43142857142857	61	127
307.2804988662132	307.5591383219955	53	127
307.43142857142857	307.50108843537413	63	127
307.50108843537413	307.5591383219955	61	127
307.5591383219955	307.8377777777778	60	127
307.5591383219955	307.8377777777778	60	127
307.5591383219955	307.8377777777778	41	127
307.8377777777778	308.16285714285715	61	127
307.8377777777778	308.16285714285715	58	127
308.16285714285715	308.8594557823129	57	127
308.16285714285715	308.4531065759637	29	127
308.16285714285715	308.8594557823129	65	127
308.16285714285715	308.4531065759637	60	127
308.4531065759637	308.8594557823129	53	127
308.8594557823129	309.50961451247167	63	127
308.8594557823129	309.172925170068	41	127
308.8594557823129	310.02045351473924	65	127
308.8594557823129	309.172925170068	60	127
309.172925170068	309.50961451247167	53	127
309.50961451247167	309.83469387755105	29	127
309.50961451247167	310.15977324263037	62	127
309.50961451247167	309.83469387755105	58	127
309.83469387755105	310.15977324263037	53	127
310.02045351473924	310.1946031746032	64	127
310.15977324263037	310.5660997732426	41	127
310.15977324263037	310.3571201814059	63	127
310.15977324263037	310.8563718820862	60	127
310.15977324263037	310.5660997732426	57	127
310.3571201814059	310.64739229024946	62	127
310.5660997732426	310.8563718820862	53	127
310.64739229024946	310.8563718820862	60	127
310.8563718820862	311.1350113378685	34	127
310.8563718820862	311.82	62	127
310.8563718820862	311.1350113378685	58	127
310.8563718820862	311.82	58	127
311.1350113378685	311.4368707482993	57	127
311.4368707482993	311.82	46	127
311.4368707482993	311.82	58	127
311.82	312.11024943310656	65	127
311.82	312.11024943310656	53	127
311.95931972789117	312.11024943310656	58	127
312.11024943310656	313.18997732426305	62	127
312.11024943310656	313.18997732426305	62	127
312.11024943310656	312.481768707483	58	127
312.11024943310656	312.481768707483	34	127
312.481768707483	312.7720181405896	57	127
312.7720181405896	313.18997732426305	58	127
312.7720181405896	313.18997732426305	46	127
313.18997732426305	313.59632653061226	65	127
313.18997732426305	313.59632653061226	53	127
313.41056689342406	313.59632653061226	62	127
313.59632653061226	313.8865759637188	34	127
313.59632653061226	314.4322448979592	65	127
313.59632653061226	314.4322448979592	61	127
313.59632653061226	313.8865759637188	58	127
313.8865759637188	314.15360544217685	57	127
314.15360544217685	314.4322448979592	58	127
314.15360544217685	314.4322448979592	46	127
314.4322448979592	314.7573015873016	53	127
314.4322448979592	314.7573015873016	65	127
314.4322448979592	314.5715646258503	61	127
314.5715646258503	314.7573015873016	58	127
314.7573015873016	316.0924716553288	53	127
314.7573015873016	315.07079365079363	37	127
314.7573015873016	316.0924716553288	59	127
314.7573015873016	315.07079365079363	56	127
315.07079365079363	315.38426303854874	55	127
315.38426303854874	315.6512925170068	56	127
315.38426303854874	315.6512925170068	49	127
315.6512925170068	316.0924716553288	53	127
316.0924716553288	316.60331065759635	36	127
316.0924716553288	317.1721995464853	60	127
316.0924716553288	317.4392290249433	65	127
316.0924716553288	316.60331065759635	57	127
316.60331065759635	316.90514739229025	60	127
316.90514739229025	317.1721995464853	59	127
316.90514739229025	317.1721995464853	48	127
317.1721995464853	317.4392290249433	60	127
317.31149659863945	317.4392290249433	57	127
317.4392290249433	318.1009977324263	67	127
317.4392290249433	317.7526984126984	55	127
317.4392290249433	317.9152380952381	58	127
317.4392290249433	317.7526984126984	36	127
317.7526984126984	318.1009977324263	60	127
317.9152380952381	318.0081179138322	60	127
318.0081179138322	318.1009977324263	58	127
318.1009977324263	318.40285714285716	57	127
318.1009977324263	318.40285714285716	57	127
318.1009977324263	318.40285714285716	48	127
318.1009977324263	318.6931065759637	64	127
318.40285714285716	318.6931065759637	55	127
318.40285714285716	318.6931065759637	58	127
318.6931065759637	319.00657596371883	57	127
318.6931065759637	319.00657596371883	65	127
318.6931065759637	320.0166439909297	53	127
318.6931065759637	319.00657596371883	29	127
319.2852154195011	320.0166439909297	57	127
319.2852154195011	320.0166439909297	53	127
319.2852154195011	319.6683446712018	41	127
320.0166439909297	320.3649433106576	29	127
320.0166439909297	320.7016326530612	57	127
320.0166439909297	320.7016326530612	60	127
320.7016326530612	321.31696145124715	58	127
320.7016326530612	321.31696145124715	62	127
321.31696145124715	321.66526077097507	57	127
321.31696145124715	321.66526077097507	60	127
321.31696145124715	321.66526077097507	63	127
321.31696145124715	321.66526077097507	29	127
321.66526077097507	322.0251700680272	65	127
322.0251700680272	322.36185941043084	57	127
322.0251700680272	322.36185941043084	41	127
322.0251700680272	322.36185941043084	60	127
322.0251700680272	322.36185941043084	63	127
322.36185941043084	322.6521088435374	65	127
322.6521088435374	322.95396825396824	58	127
322.6521088435374	322.95396825396824	60	127
322.6521088435374	322.95396825396824	29	127
322.6521088435374	322.95396825396824	63	127
322.95396825396824	323.2325850340136	65	127
322.95396825396824	323.2325850340136	57	127
323.2325850340136	323.52285714285716	41	127
323.2325850340136	323.52285714285716	55	127
323.2325850340136	323.52285714285716	60	127
323.2325850340136	323.52285714285716	63	127
323.52285714285716	323.824716553288	65	127
323.52285714285716	323.824716553288	57	127
323.824716553288	324.045306122449	58	127
323.824716553288	324.1497959183674	61	127
323.824716553288	324.1497959183674	58	127
323.824716553288	324.1497959183674	34	127
324.045306122449	324.25426303854874	60	127
324.1497959183674	324.4748752834467	65	127
324.25426303854874	324.4748752834467	58	127
324.4748752834467	324.79995464852607	46	127
324.4748752834467	324.79995464852607	58	127
324.4748752834467	324.79995464852607	61	127
324.4748752834467	324.6722222222222	57	127
324.6722222222222	324.89283446712017	58	127
324.79995464852607	325.09020408163263	65	127
324.89283446712017	325.09020408163263	60	127
325.09020408163263	326.37891156462587	61	127
325.09020408163263	325.49655328798184	34	127
325.09020408163263	325.49655328798184	58	127
325.09020408163263	325.49655328798184	61	127
325.49655328798184	325.7751927437642	65	127
325.7751927437642	326.0886621315193	46	127
325.7751927437642	326.0886621315193	61	127
325.7751927437642	326.0886621315193	58	127
326.0886621315193	326.37891156462587	65	127
326.37891156462587	326.6459410430839	32	127
326.37891156462587	326.6459410430839	63	127
326.37891156462587	326.6459410430839	66	127
326.37891156462587	326.6459410430839	60	127
326.6459410430839	326.97102040816327	68	127
326.97102040816327	327.2844897959184	66	127
326.97102040816327	327.2844897959184	60	127
326.97102040816327	327.2844897959184	63	127
326.97102040816327	327.2844897959184	44	127
327.2844897959184	327.5979591836735	68	127
327.5979591836735	327.9926984126984	32	127
327.5979591836735	327.9926984126984	66	127
327.5979591836735	327.9926984126984	63	127
327.5979591836735	327.9926984126984	61	127
327.9926984126984	328.32938775510206	68	127
327.9926984126984	328.32938775510206	60	127
328.32938775510206	328.60802721088436	63	127
328.32938775510206	328.60802721088436	44	127
328.32938775510206	328.60802721088436	58	127
328.32938775510206	328.60802721088436	66	127
328.60802721088436	328.92149659863946	68	127
328.60802721088436	328.92149659863946	60	127
328.92149659863946	329.24657596371884	65	127
328.92149659863946	329.24657596371884	61	127
328.92149659863946	329.14208616780047	61	127
328.92149659863946	329.24657596371884	37	127
329.14208616780047	329.33945578231294	63	127
329.24657596371884	329.51360544217687	68	127
329.33945578231294	329.51360544217687	61	127
329.51360544217687	329.827074829932	49	127
329.51360544217687	329.7225850340136	60	127
329.51360544217687	329.827074829932	65	127
329.51360544217687	329.827074829932	61	127
329.7225850340136	329.93156462585034	61	127
329.827074829932	330.1289342403628	68	127
329.93156462585034	330.1289342403628	63	127
330.1289342403628	330.488843537415	61	127
330.1289342403628	330.488843537415	37	127
330.1289342403628	330.488843537415	65	127
330.1289342403628	331.4060317460318	65	127
330.488843537415	330.8255328798186	68	127
330.8255328798186	331.1390022675737	49	127
330.8255328798186	331.1390022675737	61	127
330.8255328798186	331.1390022675737	65	127
331.1390022675737	331.4060317460318	68	127
331.4060317460318	331.6730612244898	70	127
331.4060317460318	331.6730612244898	66	127
331.4060317460318	332.5321995464853	58	127
331.4060317460318	331.6730612244898	30	127
331.6730612244898	332.13743764172335	61	127
332.13743764172335	332.5321995464853	70	127
332.13743764172335	332.5321995464853	66	127
332.13743764172335	332.5321995464853	42	127
332.5321995464853	332.8340589569161	61	127
332.5321995464853	332.8340589569161	61	127
332.8340589569161	333.14752834467123	30	127
332.8340589569161	333.14752834467123	70	127
332.8340589569161	333.14752834467123	66	127
332.8340589569161	333.14752834467123	63	127
333.14752834467123	333.4377777777778	61	127
333.14752834467123	333.4377777777778	61	127
333.4377777777778	333.82090702947846	66	127
333.4377777777778	333.82090702947846	60	127
333.4377777777778	333.82090702947846	42	127
333.4377777777778	333.82090702947846	70	127
333.82090702947846	334.13437641723357	61	127
333.82090702947846	334.13437641723357	58	127
334.13437641723357	335.2605442176871	56	127
334.13437641723357	334.45945578231294	65	127
334.13437641723357	334.45945578231294	68	127
334.13437641723357	334.45945578231294	37	127
334.45945578231294	334.7497052154195	61	127
334.7497052154195	335.08639455782316	49	127
334.7497052154195	335.08639455782316	65	127
334.7497052154195	335.08639455782316	68	127
335.08639455782316	335.388253968254	61	127
335.2605442176871	335.388253968254	61	127
335.388253968254	335.655283446712	37	127
335.388253968254	335.655283446712	65	127
335.388253968254	335.655283446712	68	127
335.388253968254	336.45637188208616	65	127
335.655283446712	335.9803628117914	61	127
335.9803628117914	336.2938321995465	65	127
335.9803628117914	336.2938321995465	68	127
335.9803628117914	336.2938321995465	49	127
336.2938321995465	336.6537414965986	61	127
336.45637188208616	336.6537414965986	61	127
336.6537414965986	337.6986394557823	60	127
336.6537414965986	336.932358276644	32	127
336.6537414965986	336.932358276644	63	127
336.6537414965986	336.932358276644	66	127
336.932358276644	337.26907029478457	56	127
337.26907029478457	337.5709297052154	66	127
337.26907029478457	337.5709297052154	63	127
337.26907029478457	337.5709297052154	44	127
337.5709297052154	337.86115646258503	56	127
337.6986394557823	337.86115646258503	63	127
337.86115646258503	338.1978684807256	60	127
337.86115646258503	338.1978684807256	32	127
337.86115646258503	338.1978684807256	63	127
337.86115646258503	338.8944671201814	66	127
338.1978684807256	338.4881179138322	56	127
338.4881179138322	338.8944671201814	60	127
338.4881179138322	338.8944671201814	44	127
338.4881179138322	338.8944671201814	66	127
338.8944671201814	339.0221768707483	65	127
338.8944671201814	339.17310657596374	56	127
339.0221768707483	339.17310657596374	63	127
339.17310657596374	339.48657596371885	37	127
339.17310657596374	339.48657596371885	65	127
339.17310657596374	340.4269841269841	61	127
339.17310657596374	339.48657596371885	61	127
339.82326530612244	340.4269841269841	73	127
339.82326530612244	340.1251247165533	61	127
339.82326530612244	340.1251247165533	49	127
340.1251247165533	340.4269841269841	65	127
340.4269841269841	340.7520634920635	63	127
340.4269841269841	341.01909297052157	72	127
340.4269841269841	340.7520634920635	37	127
340.7520634920635	341.01909297052157	66	127
341.01909297052157	341.35578231292516	49	127
341.01909297052157	341.657641723356	61	127
341.01909297052157	341.657641723356	71	127
341.01909297052157	341.35578231292516	65	127
341.35578231292516	341.657641723356	68	127
341.657641723356	342.0059410430839	70	127
341.657641723356	342.71414965986395	58	127
341.657641723356	342.0059410430839	30	127
341.657641723356	342.0059410430839	66	127
342.0059410430839	342.3310204081633	61	127
342.3310204081633	342.71414965986395	70	127
342.3310204081633	342.71414965986395	66	127
342.3310204081633	342.71414965986395	42	127
342.71414965986395	342.981179138322	61	127
342.71414965986395	342.981179138322	61	127
342.981179138322	343.25981859410433	70	127
342.981179138322	343.25981859410433	30	127
342.981179138322	343.25981859410433	63	127
342.981179138322	343.25981859410433	66	127
343.25981859410433	343.52684807256236	61	127
343.25981859410433	343.52684807256236	61	127
343.52684807256236	343.80548752834466	66	127
343.52684807256236	343.7242176870748	60	127
343.52684807256236	343.80548752834466	42	127
343.52684807256236	343.80548752834466	70	127
343.7242176870748	343.909977324263	61	127
343.80548752834466	344.1421768707483	61	127
343.909977324263	344.1421768707483	58	127
344.1421768707483	344.52530612244897	65	127
344.1421768707483	345.32637188208616	56	127
344.1421768707483	344.52530612244897	68	127
344.1421768707483	344.52530612244897	37	127
344.52530612244897	344.85038548752834	61	127
344.85038548752834	345.16385487528345	49	127
344.85038548752834	345.16385487528345	65	127
344.85038548752834	345.16385487528345	68	127
345.16385487528345	345.45410430839	61	127
345.32637188208616	345.45410430839	61	127
345.45410430839	345.79079365079366	37	127
345.45410430839	346.51061224489797	65	127
345.45410430839	345.79079365079366	68	127
345.45410430839	345.79079365079366	65	127
345.79079365079366	346.0810430839002	61	127
346.0810430839002	346.3712925170068	68	127
346.0810430839002	346.3712925170068	49	127
346.0810430839002	346.3712925170068	65	127
346.3712925170068	346.70798185941044	61	127
346.51061224489797	346.70798185941044	61	127
346.70798185941044	347.79931972789115	60	127
346.70798185941044	347.0330612244898	32	127
346.70798185941044	347.0330612244898	63	127
346.70798185941044	347.0330612244898	66	127
347.0330612244898	347.30009070294784	56	127
347.30009070294784	347.6019501133787	66	127
347.30009070294784	347.6019501133787	63	127
347.30009070294784	347.6019501133787	44	127
347.6019501133787	347.9386394557823	56	127
347.79931972789115	347.9386394557823	63	127
347.9386394557823	349.09961451247165	66	127
347.9386394557823	348.28691609977324	60	127
347.9386394557823	348.28691609977324	32	127
347.9386394557823	348.28691609977324	63	127
348.28691609977324	348.6004081632653	56	127
348.6004081632653	349.09961451247165	60	127
348.6004081632653	349.09961451247165	44	127
348.6004081632653	349.09961451247165	66	127
349.09961451247165	349.2273469387755	65	127
349.09961451247165	349.3666666666667	56	127
349.2273469387755	349.3666666666667	63	127
349.3666666666667	350.65537414965985	65	127
349.3666666666667	349.6801360544218	37	127
349.3666666666667	349.6801360544218	61	127
349.3666666666667	349.9936054421769	61	127
349.6801360544218	349.9936054421769	56	127
349.9936054421769	350.3651247165533	65	127
349.9936054421769	350.3651247165533	37	127
349.9936054421769	350.3651247165533	56	127
350.3651247165533	350.65537414965985	61	127
350.65537414965985	350.9340136054422	56	127
350.65537414965985	350.9340136054422	65	127
350.65537414965985	350.9340136054422	37	127
350.9340136054422	351.3519501133787	61	127
351.3519501133787	351.6190022675737	56	127
351.3519501133787	351.6190022675737	65	127
351.3519501133787	351.6190022675737	37	127
351.6190022675737	351.9672789115646	61	127
351.9672789115646	352.2459410430839	54	127
351.9672789115646	352.2459410430839	63	127
351.9672789115646	352.2459410430839	32	127
351.9672789115646	352.9773696145125	72	127
352.2459410430839	352.5361904761905	60	127
352.5361904761905	352.8380498866213	32	127
352.5361904761905	352.8380498866213	54	127
352.5361904761905	352.8380498866213	63	127
352.8380498866213	353.10507936507935	60	127
352.9773696145125	353.10507936507935	75	127
353.10507936507935	353.45337868480726	63	127
353.10507936507935	353.45337868480726	54	127
353.10507936507935	354.13836734693876	78	127
353.10507936507935	353.45337868480726	32	127
353.45337868480726	353.73201814058956	60	127
353.73201814058956	354.13836734693876	32	127
353.73201814058956	354.13836734693876	63	127
353.73201814058956	354.13836734693876	54	127
354.13836734693876	354.27768707482994	76	127
354.13836734693876	354.40539682539685	60	127
354.27768707482994	354.40539682539685	75	127
354.40539682539685	354.7072562358277	37	127
354.40539682539685	355.05555555555554	73	127
354.40539682539685	355.68249433106575	52	127
354.40539682539685	354.7072562358277	61	127
354.7072562358277	355.05555555555554	56	127
355.05555555555554	355.36902494331065	37	127
355.05555555555554	355.36902494331065	61	127
355.05555555555554	355.36902494331065	64	127
355.36902494331065	355.68249433106575	56	127
355.68249433106575	356.00757369614513	64	127
355.68249433106575	356.00757369614513	37	127
355.68249433106575	356.00757369614513	61	127
356.00757369614513	356.2978231292517	56	127
356.2978231292517	356.6229024943311	64	127
356.2978231292517	356.6229024943311	61	127
356.2978231292517	356.6229024943311	37	127
356.6229024943311	356.91315192743764	56	127
356.91315192743764	357.3427210884354	59	127
356.91315192743764	357.3427210884354	62	127
356.91315192743764	357.3427210884354	40	127
356.91315192743764	358.03931972789115	56	127
357.3427210884354	357.6097505668934	56	127
357.6097505668934	357.8767800453515	59	127
357.6097505668934	357.8767800453515	62	127
357.6097505668934	357.8767800453515	40	127
357.8767800453515	358.1902494331066	56	127
358.03931972789115	358.1902494331066	59	127
358.1902494331066	358.53854875283446	59	127
358.1902494331066	358.53854875283446	62	127
358.1902494331066	359.23514739229023	62	127
358.1902494331066	358.53854875283446	40	127
358.53854875283446	358.8868480725624	56	127
358.8868480725624	359.23514739229023	62	127
358.8868480725624	359.23514739229023	40	127
358.8868480725624	359.23514739229023	59	127
359.23514739229023	359.5718367346939	56	127
359.23514739229023	359.3744671201814	61	127
359.3744671201814	359.5718367346939	59	127
359.5718367346939	359.885306122449	57	127
359.5718367346939	360.24519274376416	57	127
359.5718367346939	359.885306122449	33	127
359.5718367346939	360.8721541950113	61	127
359.885306122449	360.24519274376416	52	127
360.24519274376416	360.6051247165533	57	127
360.24519274376416	360.6051247165533	33	127
360.24519274376416	360.6051247165533	49	127
360.6051247165533	360.8721541950113	52	127
360.8721541950113	361.20884353741496	49	127
360.8721541950113	361.20884353741496	33	127
360.8721541950113	361.20884353741496	57	127
361.20884353741496	361.48748299319726	52	127
361.48748299319726	361.8357823129252	57	127
361.48748299319726	361.8357823129252	49	127
361.48748299319726	361.8357823129252	33	127
361.8357823129252	362.1028117913832	52	127
362.1028117913832	362.43950113378685	56	127
362.1028117913832	363.2289795918367	65	127
362.1028117913832	362.43950113378685	37	127
362.1028117913832	362.43950113378685	47	127
362.43950113378685	362.70650793650793	53	127
362.70650793650793	363.07804988662133	37	127
362.70650793650793	363.07804988662133	47	127
362.70650793650793	363.07804988662133	56	127
363.07804988662133	363.3682993197279	53	127
363.2289795918367	363.3682993197279	68	127
363.3682993197279	363.78625850340137	47	127
363.3682993197279	363.78625850340137	37	127
363.3682993197279	363.78625850340137	56	127
363.3682993197279	364.3783673469388	71	127
363.78625850340137	364.11133786848075	53	127
364.11133786848075	364.3783673469388	37	127
364.11133786848075	364.3783673469388	56	127
364.11133786848075	364.3783673469388	47	127
364.3783673469388	364.66861678004534	53	127
364.3783673469388	364.5292970521542	69	127
364.5292970521542	364.66861678004534	68	127
364.66861678004534	364.9472335600907	54	127
364.66861678004534	365.24911564625853	66	127
364.66861678004534	364.9472335600907	30	127
364.66861678004534	365.93410430839003	45	127
364.9472335600907	365.24911564625853	49	127
365.24911564625853	365.6322448979592	30	127
365.24911564625853	365.6322448979592	54	127
365.24911564625853	365.6322448979592	57	127
365.6322448979592	365.93410430839003	49	127
365.93410430839003	366.2707936507937	30	127
365.93410430839003	366.2707936507937	54	127
365.93410430839003	366.2707936507937	57	127
366.2707936507937	366.65392290249434	49	127
366.65392290249434	366.9209523809524	30	127
366.65392290249434	366.9209523809524	57	127
366.65392290249434	366.9209523809524	54	127
366.9209523809524	367.33891156462585	49	127
367.33891156462585	368.40702947845807	49	127
367.33891156462585	367.6756009070295	33	127
367.33891156462585	367.6756009070295	55	127
367.33891156462585	367.6756009070295	52	127
367.6756009070295	367.93102040816325	49	127
367.93102040816325	368.24448979591835	33	127
367.93102040816325	368.24448979591835	52	127
367.93102040816325	368.24448979591835	55	127
368.24448979591835	368.87142857142857	49	127
368.40702947845807	368.87142857142857	52	127
368.87142857142857	370.4271655328798	55	127
368.87142857142857	369.38226757369614	55	127
368.87142857142857	369.38226757369614	52	127
368.87142857142857	369.38226757369614	33	127
369.38226757369614	369.88149659863944	49	127
369.88149659863944	370.4271655328798	52	127
369.88149659863944	370.83351473922903	55	127
369.88149659863944	370.4271655328798	33	127
370.4271655328798	370.6245351473923	54	127
370.4271655328798	370.83351473922903	49	127
370.6245351473923	370.83351473922903	52	127
372.5750113378685	373.14390022675735	50	127
372.5750113378685	373.14390022675735	50	127
372.5750113378685	372.86526077097506	74	127
372.5750113378685	373.14390022675735	38	127
373.14390022675735	373.3296371882086	74	127
373.45736961451246	373.55024943310656	74	127
373.55024943310656	373.7592290249433	78	127
373.96820861678003	374.13074829931975	78	127
374.2932879818594	374.9898866213152	74	127
374.9898866213152	375.34979591836736	69	127
375.6980952380952	375.9767346938776	69	127
376.13927437641723	376.3366439909297	69	127
376.3366439909297	376.615283446712	76	127
376.615283446712	376.6617233560091	74	127
376.6617233560091	376.9287528344671	73	127
376.9287528344671	377.0216326530612	71	127
377.0216326530612	377.79950113378686	69	127
378.1478004535147	378.26390022675736	69	127
378.26390022675736	378.38	71	127
378.38	378.49609977324263	73	127
378.49609977324263	378.68185941043083	74	127
378.8559863945578	378.98371882086167	74	127
379.08820861678004	379.1462585034014	74	127
379.1462585034014	379.3320181405896	78	127
379.5061678004535	379.62226757369615	78	127
379.7615873015873	380.5046258503401	74	127
380.5046258503401	380.8180952380952	69	127
380.8180952380952	381.16639455782314	74	127
381.16639455782314	381.3289342403628	73	127
381.3289342403628	381.3753741496599	74	127
381.3753741496599	381.43342403628117	73	127
381.43342403628117	381.70045351473925	71	127
381.70045351473925	381.79333333333335	73	127
381.79333333333335	382.1532426303855	74	127
382.1532426303855	382.52476190476193	68	127
382.52476190476193	383.1284807256236	69	127
383.48839002267573	383.8599092970521	57	127
383.8599092970521	384.2198185941043	38	127
383.8599092970521	384.0340589569161	62	127
383.97600907029477	384.0921088435374	57	127
384.0921088435374	384.2198185941043	66	127
384.2198185941043	384.55650793650796	54	127
384.2198185941043	384.3475283446712	62	127
384.2198185941043	384.55650793650796	62	127
384.2198185941043	384.38235827664397	62	127
384.3475283446712	384.4404081632653	69	127
384.4404081632653	384.55650793650796	66	127
384.4984580498866	384.55650793650796	62	127
384.55650793650796	384.7190476190476	66	127
384.55650793650796	384.9048072562358	38	127
384.55650793650796	384.9048072562358	74	127
384.9048072562358	385.2531065759637	69	127
384.9048072562358	385.2531065759637	54	127
384.9048072562358	385.06734693877553	66	127
384.9048072562358	385.2531065759637	62	127
385.2531065759637	385.93809523809523	62	127
385.2531065759637	385.6014058956916	38	127
385.3459863945578	385.47369614512473	57	127
385.47369614512473	385.6014058956916	66	127
385.6014058956916	385.93809523809523	54	127
385.6014058956916	385.7291156462585	62	127
385.6014058956916	385.93809523809523	62	127
385.7291156462585	385.8219954648526	69	127
385.8219954648526	385.93809523809523	66	127
385.93809523809523	386.2980045351474	38	127
385.93809523809523	386.2980045351474	74	127
385.93809523809523	386.2980045351474	57	127
386.2980045351474	386.64630385487527	54	127
386.2980045351474	386.64630385487527	62	127
386.2980045351474	386.64630385487527	69	127
386.64630385487527	387.02943310657594	57	127
386.64630385487527	387.02943310657594	33	127
386.7624036281179	386.8901133786848	57	127
386.8901133786848	387.02943310657594	67	127
387.02943310657594	387.3661224489796	61	127
387.02943310657594	387.3661224489796	55	127
387.02943310657594	387.1455328798186	64	127
387.1455328798186	387.2616326530612	69	127
387.2035827664399	387.3661224489796	57	127
387.2616326530612	387.3661224489796	67	127
387.3661224489796	387.7144217687075	76	127
387.3661224489796	387.63315192743767	64	127
387.3661224489796	387.7144217687075	33	127
387.63315192743767	387.7144217687075	62	127
387.7144217687075	388.0278911564626	55	127
387.7144217687075	388.0278911564626	61	127
387.7144217687075	387.9466213151928	61	127
387.7144217687075	388.0278911564626	69	127
387.9466213151928	388.0278911564626	59	127
388.0278911564626	388.3645804988662	33	127
388.0278911564626	388.73609977324264	57	127
388.15560090702945	388.2600907029478	57	127
388.2600907029478	388.3645804988662	67	127
388.3645804988662	388.73609977324264	55	127
388.3645804988662	388.4806802721088	64	127
388.3645804988662	388.73609977324264	61	127
388.4806802721088	388.60839002267574	69	127
388.60839002267574	388.73609977324264	67	127
388.73609977324264	389.1192290249433	33	127
388.73609977324264	389.1192290249433	76	127
389.1192290249433	389.2585487528345	57	127
389.1192290249433	389.4675283446712	69	127
389.1192290249433	389.4675283446712	61	127
389.1192290249433	389.4675283446712	55	127
389.2585487528345	389.3514285714286	59	127
389.3514285714286	389.4675283446712	61	127
389.4675283446712	389.6532879818594	62	127
389.4675283446712	389.8158276643991	38	127
389.5952380952381	389.7113378684807	57	127
389.7113378684807	389.8158276643991	66	127
389.8158276643991	390.14090702947846	54	127
389.8158276643991	389.98997732426307	62	127
389.8158276643991	390.14090702947846	62	127
389.8158276643991	389.9087074829932	62	127
389.9087074829932	390.04802721088436	69	127
390.04802721088436	390.14090702947846	66	127
390.10607709750565	390.14090702947846	62	127
390.14090702947846	390.3382766439909	66	127
390.14090702947846	390.48920634920637	38	127
390.14090702947846	390.48920634920637	74	127
390.48920634920637	390.68657596371884	66	127
390.48920634920637	390.8375056689342	54	127
390.48920634920637	390.8375056689342	62	127
390.48920634920637	390.8375056689342	69	127
390.8375056689342	391.1741950113379	38	127
390.8375056689342	391.5224943310658	62	127
390.96521541950113	391.0697052154195	57	127
391.0697052154195	391.1741950113379	66	127
391.1741950113379	391.5224943310658	62	127
391.1741950113379	391.27868480725624	62	127
391.1741950113379	391.5224943310658	54	127
391.27868480725624	391.40639455782315	69	127
391.40639455782315	391.5224943310658	66	127
391.5224943310658	391.8824036281179	74	127
391.5224943310658	391.8824036281179	57	127
391.5224943310658	391.8824036281179	38	127
391.8824036281179	392.18426303854875	62	127
391.8824036281179	392.18426303854875	62	127
391.8824036281179	392.18426303854875	69	127
391.8824036281179	392.18426303854875	54	127
392.18426303854875	392.54417233560093	40	127
392.18426303854875	392.37002267573695	61	127
392.31197278911566	392.43968253968256	61	127
392.37002267573695	392.46290249433105	62	127
392.43968253968256	392.54417233560093	69	127
392.46290249433105	392.54417233560093	61	127
392.54417233560093	392.84603174603177	59	127
392.54417233560093	392.9273015873016	52	127
392.54417233560093	392.6718820861678	64	127
392.54417233560093	392.9273015873016	61	127
392.6718820861678	392.7995918367347	73	127
392.7995918367347	392.9273015873016	69	127
392.84603174603177	392.9273015873016	61	127
392.9273015873016	393.2639909297052	40	127
392.9273015873016	393.2639909297052	62	127
392.9273015873016	393.2639909297052	76	127
393.2639909297052	393.6471201814059	56	127
393.2639909297052	393.6471201814059	52	127
393.2639909297052	393.6471201814059	68	127
393.2639909297052	393.6471201814059	62	127
393.6471201814059	394.32049886621314	57	127
393.6471201814059	393.99541950113377	33	127
393.77482993197276	393.8909297052154	57	127
393.8909297052154	393.99541950113377	64	127
393.99541950113377	394.32049886621314	52	127
393.99541950113377	394.1231292517007	61	127
393.99541950113377	394.32049886621314	61	127
394.1231292517007	394.22761904761904	69	127
394.22761904761904	394.32049886621314	64	127
394.32049886621314	394.6920181405896	33	127
394.32049886621314	394.6920181405896	73	127
394.6920181405896	395.063537414966	61	127
394.6920181405896	395.063537414966	52	127
394.6920181405896	395.063537414966	69	127
395.063537414966	395.44666666666666	73	127
395.44666666666666	395.8181859410431	73	127
395.8181859410431	396.0039455782313	74	127
396.0039455782313	396.1548752834467	73	127
396.1548752834467	396.3174149659864	71	127
396.3174149659864	396.5031746031746	73	127
396.5031746031746	397.1881632653061	74	127
397.1881632653061	397.5480725623583	69	127
397.93120181405897	398.44204081632654	73	127
398.44204081632654	398.62780045351474	73	127
398.62780045351474	398.7787301587302	73	127
398.7787301587302	398.9644897959184	79	127
398.9644897959184	399.1386394557823	76	127
399.1386394557823	399.3243990929705	73	127
399.3243990929705	400.0442176870748	74	127
400.38090702947846	400.70598639455784	74	127
400.70598639455784	400.88013605442177	71	127
401.0426757369614	401.2168253968254	71	127
401.4141950113379	401.6347845804989	71	127
401.76249433106574	401.8785941043084	71	127
401.8785941043084	402.07596371882084	74	127
402.26172335600904	403.01637188208616	74	127
403.01637188208616	403.3995011337868	69	127
403.79424036281176	404.3166893424036	69	127
404.3166893424036	404.4908390022676	69	127
404.4908390022676	404.8971882086168	76	127
404.8971882086168	405.2338775510204	73	127
405.2338775510204	405.88403628117914	74	127
406.27877551020407	406.6502947845805	86	127
406.6502947845805	406.847664399093	83	127
407.0798639455782	407.28884353741495	83	127
407.4978231292517	407.7184126984127	83	127
407.8461224489796	407.9041723356009	83	127
407.9041723356009	408.0899319727891	86	127
408.27569160997734	409.0071201814059	86	127
409.0071201814059	409.3786394557823	81	127
409.761768707483	410.31904761904764	81	127
410.31904761904764	410.4351473922903	81	127
410.4351473922903	410.50480725623584	81	127
410.50480725623584	410.87632653061223	88	127
410.87632653061223	411.27106575963717	85	127
411.27106575963717	411.9792743764172	86	127
412.3391836734694	412.6062131519274	57	127
412.6062131519274	412.95451247165533	61	127
412.6062131519274	412.95451247165533	33	127
412.6990929705215	412.8268027210884	61	127
412.8268027210884	412.95451247165533	64	127
412.95451247165533	413.337641723356	61	127
412.95451247165533	413.08222222222224	67	127
412.95451247165533	413.337641723356	55	127
412.95451247165533	413.337641723356	57	127
413.08222222222224	413.22154195011336	68	127
413.22154195011336	413.337641723356	69	127
413.337641723356	413.5234013605442	62	127
413.337641723356	413.72077097505667	33	127
413.337641723356	413.72077097505667	71	127
413.5234013605442	413.72077097505667	61	127
413.72077097505667	413.9065306122449	59	127
413.72077097505667	414.0922902494331	57	127
413.72077097505667	414.0922902494331	69	127
413.72077097505667	414.0922902494331	55	127
413.9065306122449	414.0922902494331	61	127
414.0922902494331	414.4638095238095	38	127
414.0922902494331	414.7888888888889	62	127
414.20839002267576	414.3360997732426	62	127
414.3360997732426	414.4638095238095	66	127
414.4638095238095	414.57990929705215	67	127
414.4638095238095	414.7888888888889	57	127
414.4638095238095	414.7888888888889	54	127
414.57990929705215	414.70761904761906	68	127
414.70761904761906	414.7888888888889	69	127
414.7888888888889	415.1604081632653	38	127
414.7888888888889	415.1604081632653	57	127
414.7888888888889	415.1604081632653	78	127
415.1604081632653	415.5203174603175	74	127
415.1604081632653	415.5203174603175	54	127
415.1604081632653	415.5203174603175	57	127
415.5203174603175	416.1124263038549	61	127
415.5203174603175	415.9266666666667	33	127
415.6480272108844	415.79895691609977	61	127
415.79895691609977	415.9266666666667	64	127
415.9266666666667	416.2865759637188	55	127
415.9266666666667	416.2865759637188	57	127
415.9266666666667	416.0427664399093	67	127
416.0427664399093	416.15886621315195	68	127
416.1124263038549	416.2865759637188	61	127
416.15886621315195	416.2865759637188	69	127
416.2865759637188	416.65809523809526	33	127
416.2865759637188	416.472335600907	61	127
416.2865759637188	416.65809523809526	71	127
416.472335600907	416.65809523809526	67	127
416.65809523809526	416.8322448979592	64	127
416.65809523809526	416.99478458049884	69	127
416.65809523809526	416.99478458049884	57	127
416.65809523809526	416.99478458049884	55	127
416.8322448979592	416.99478458049884	61	127
416.99478458049884	417.6913832199547	62	127
416.99478458049884	417.35469387755103	38	127
417.1108843537415	417.2269841269841	62	127
417.2269841269841	417.35469387755103	66	127
417.35469387755103	417.6913832199547	54	127
417.35469387755103	417.47079365079367	67	127
417.35469387755103	417.6913832199547	57	127
417.47079365079367	417.5868934240363	68	127
417.5868934240363	417.6913832199547	69	127
417.6913832199547	418.07451247165534	38	127
417.6913832199547	418.07451247165534	78	127
418.07451247165534	418.48086167800454	54	127
418.07451247165534	418.48086167800454	62	127
418.07451247165534	418.48086167800454	57	127
418.07451247165534	418.48086167800454	74	127
418.48086167800454	418.8639909297052	31	127
418.48086167800454	418.66662131519274	59	127
418.5969614512472	418.7362811791383	62	127
418.7362811791383	418.8639909297052	67	127
418.8639909297052	419.2239002267574	59	127
418.8639909297052	419.03814058956914	59	127
418.8639909297052	418.98009070294785	71	127
418.8639909297052	419.2239002267574	50	127
418.98009070294785	419.0961904761905	72	127
419.0961904761905	419.2239002267574	73	127
419.2239002267574	419.5954195011338	76	127
419.2239002267574	419.42126984126986	59	127
419.2239002267574	419.5954195011338	31	127
419.5373696145125	419.5954195011338	59	127
419.5954195011338	419.97854875283446	50	127
419.5954195011338	419.97854875283446	74	127
419.5954195011338	419.79278911564626	62	127
419.5954195011338	419.97854875283446	59	127
419.97854875283446	420.7215873015873	62	127
419.97854875283446	420.32684807256237	38	127
420.0830385487528	420.19913832199546	62	127
420.19913832199546	420.32684807256237	66	127
420.32684807256237	420.4545578231293	67	127
420.32684807256237	420.7215873015873	54	127
420.32684807256237	420.7215873015873	57	127
420.4545578231293	420.58226757369613	68	127
420.58226757369613	420.7215873015873	69	127
420.7215873015873	421.0931065759637	76	127
420.7215873015873	421.0931065759637	38	127
420.7215873015873	421.0931065759637	57	127
421.0931065759637	421.4762358276644	57	127
421.0931065759637	421.4762358276644	54	127
421.0931065759637	421.4762358276644	74	127
421.4762358276644	421.9174149659864	33	127
421.4762358276644	422.11478458049885	57	127
421.6039455782313	421.77809523809526	64	127
421.77809523809526	421.9174149659864	67	127
421.9174149659864	422.28893424036283	55	127
421.9174149659864	422.0451247165533	68	127
421.9174149659864	422.28893424036283	57	127
422.0451247165533	422.14961451247166	69	127
422.11478458049885	422.28893424036283	57	127
422.14961451247166	422.28893424036283	73	127
422.28893424036283	422.64884353741496	33	127
422.28893424036283	422.64884353741496	79	127
422.28893424036283	422.64884353741496	64	127
422.64884353741496	423.00875283446715	57	127
422.64884353741496	423.00875283446715	76	127
422.64884353741496	423.00875283446715	61	127
422.64884353741496	423.00875283446715	55	127
423.00875283446715	423.3918820861678	38	127
423.00875283446715	423.7634013605442	62	127
423.136462585034	423.2641723356009	62	127
423.2641723356009	423.3918820861678	66	127
423.3918820861678	423.50798185941045	67	127
423.3918820861678	423.7634013605442	57	127
423.3918820861678	423.7634013605442	54	127
423.50798185941045	423.6356916099773	68	127
423.6356916099773	423.7634013605442	69	127
423.7634013605442	424.13492063492066	78	127
423.7634013605442	424.13492063492066	38	127
424.13492063492066	424.5180498866213	54	127
424.13492063492066	424.5180498866213	74	127
424.13492063492066	424.5180498866213	62	127
424.13492063492066	424.5180498866213	57	127
424.5180498866213	424.7734693877551	71	127
424.5180498866213	424.94761904761907	31	127
424.5180498866213	424.7734693877551	59	127
424.94761904761907	425.2959183673469	50	127
424.94761904761907	425.2959183673469	59	127
424.94761904761907	425.13337868480727	71	127
424.94761904761907	425.13337868480727	59	127
425.2959183673469	425.6674376417234	31	127
425.2959183673469	425.4816780045351	59	127
425.2959183673469	425.4816780045351	71	127
425.59777777777776	425.6674376417234	59	127
425.59777777777776	425.6674376417234	71	127
425.6674376417234	426.0853968253968	59	127
425.6674376417234	426.0853968253968	50	127
425.6674376417234	425.8764172335601	62	127
425.6674376417234	425.8764172335601	74	127
426.0853968253968	426.5265759637188	38	127
426.0853968253968	426.932925170068	62	127
426.0853968253968	426.932925170068	74	127
426.5265759637188	426.932925170068	57	127
426.5265759637188	426.932925170068	54	127
426.932925170068	427.30444444444447	69	127
426.932925170068	427.30444444444447	57	127
426.932925170068	427.30444444444447	38	127
427.30444444444447	427.67596371882087	54	127
427.30444444444447	427.67596371882087	57	127
427.67596371882087	428.210022675737	57	127
427.67596371882087	428.210022675737	69	127
427.67596371882087	428.0242630385487	33	127
428.0242630385487	428.3957823129252	57	127
428.0242630385487	428.3957823129252	55	127
428.210022675737	428.31451247165535	57	127
428.210022675737	428.3957823129252	69	127
428.31451247165535	428.3957823129252	57	127
428.3957823129252	428.7556916099773	33	127
428.3957823129252	428.7556916099773	64	127
428.3957823129252	428.7556916099773	76	127
428.7556916099773	429.1156009070295	61	127
428.7556916099773	429.1156009070295	73	127
428.7556916099773	429.1156009070295	57	127
428.7556916099773	429.1156009070295	55	127
429.1156009070295	429.53356009070296	38	127
429.1156009070295	429.87024943310655	62	127
429.1156009070295	429.87024943310655	74	127
429.53356009070296	429.87024943310655	62	127
429.53356009070296	429.87024943310655	54	127
429.87024943310655	430.26498866213154	38	127
430.26498866213154	430.57845804988665	57	127
430.26498866213154	430.57845804988665	54	127
430.57845804988665	431.0196371882086	38	127
431.0196371882086	431.35632653061225	54	127
431.0196371882086	431.35632653061225	62	127
431.35632653061225	431.7510657596372	38	127
431.7510657596372	432.1458049886621	57	127
431.7510657596372	432.1458049886621	54	127
432.1458049886621	433.0165532879819	54	127
432.1458049886621	433.0165532879819	38	127
432.1458049886621	433.0165532879819	57	127
432.1458049886621	433.0165532879819	62	127
432.2851247165533	432.4244444444444	50	127
432.4244444444444	432.58698412698413	54	127
432.58698412698413	432.77274376417233	55	127
432.77274376417233	432.90045351473924	56	127
432.90045351473924	433.0165532879819	57	127
433.0165532879819	433.85247165532877	54	127
433.0165532879819	433.85247165532877	62	127
433.0165532879819	433.85247165532877	57	127
433.0165532879819	433.43451247165535	66	127
433.0165532879819	433.85247165532877	38	127
433.43451247165535	433.85247165532877	62	127
433.85247165532877	434.27043083900224	62	127
433.85247165532877	434.27043083900224	57	127
433.85247165532877	434.27043083900224	54	127
433.85247165532877	434.27043083900224	38	127
433.99179138321995	434.1427210884354	50	127
434.1427210884354	434.27043083900224	54	127
434.27043083900224	434.3865306122449	55	127
434.3865306122449	434.52585034013606	56	127
434.52585034013606	434.6883900226757	57	127
434.6883900226757	435.15278911564627	38	127
434.6883900226757	435.15278911564627	62	127
434.6883900226757	435.15278911564627	54	127
434.6883900226757	435.15278911564627	66	127
434.6883900226757	435.15278911564627	57	127
435.15278911564627	435.5939682539682	62	127
435.5939682539682	440.5398185941043	54	127
435.5939682539682	440.5398185941043	50	127
435.5939682539682	440.5398185941043	57	127
435.5939682539682	440.5398185941043	62	127
435.5939682539682	440.5398185941043	38	127
