# onset,offset,note,velocity
56.37727891156462	56.89972789115646	81	127
56.37727891156462	56.89972789115646	69	127
56.89972789115646	57.74725623582766	74	127
56.89972789115646	57.74725623582766	86	127
57.74725623582766	57.979455782312925	86	127
57.74725623582766	57.979455782312925	74	127
57.979455782312925	58.362585034013605	78	127
57.979455782312925	58.362585034013605	90	127
58.362585034013605	58.61800453514739	78	127
58.362585034013605	58.61800453514739	90	127
58.87342403628118	58.93147392290249	74	127
58.87342403628118	58.93147392290249	86	127
58.93147392290249	59.00113378684807	88	127
58.93147392290249	59.00113378684807	76	127
59.00113378684807	59.070793650793654	74	127
59.00113378684807	59.070793650793654	86	127
59.070793650793654	59.1172335600907	88	127
59.070793650793654	59.1172335600907	76	127
59.1172335600907	59.186893424036285	86	127
59.1172335600907	59.186893424036285	74	127
59.186893424036285	59.25655328798186	76	127
59.186893424036285	59.25655328798186	88	127
59.25655328798186	59.32621315192744	86	127
59.25655328798186	59.32621315192744	74	127
59.32621315192744	59.37265306122449	88	127
59.32621315192744	59.37265306122449	76	127
59.37265306122449	59.44231292517007	86	127
59.37265306122449	59.44231292517007	74	127
59.44231292517007	59.511972789115646	76	127
59.44231292517007	59.511972789115646	88	127
59.511972789115646	59.59324263038549	74	127
59.511972789115646	59.59324263038549	86	127
59.59324263038549	59.6512925170068	88	127
59.59324263038549	59.6512925170068	76	127
59.6512925170068	59.779002267573695	73	127
59.6512925170068	59.779002267573695	85	127
59.779002267573695	59.88349206349206	74	127
59.779002267573695	59.88349206349206	86	127
59.88349206349206	60.89356009070295	81	127
59.88349206349206	60.89356009070295	69	127
60.89356009070295	61.578548752834465	69	127
60.89356009070295	61.578548752834465	81	127
61.578548752834465	61.845578231292514	69	127
61.578548752834465	61.845578231292514	81	127
61.845578231292514	62.14743764172336	88	127
61.845578231292514	62.14743764172336	76	127
62.14743764172336	62.251927437641726	74	127
62.14743764172336	62.251927437641726	86	127
62.251927437641726	62.33319727891156	73	127
62.251927437641726	62.33319727891156	85	127
62.33319727891156	62.39124716553288	74	127
62.33319727891156	62.39124716553288	86	127
62.39124716553288	62.611836734693874	73	127
62.39124716553288	62.611836734693874	85	127
62.611836734693874	62.739546485260774	83	127
62.611836734693874	62.739546485260774	71	127
62.739546485260774	64.17916099773242	69	127
62.739546485260774	64.17916099773242	81	127
64.17916099773242	64.34172335600907	69	127
64.17916099773242	64.34172335600907	81	127
64.34172335600907	64.52748299319728	71	127
64.34172335600907	64.52748299319728	83	127
64.52748299319728	64.69	73	127
64.52748299319728	64.69	85	127
64.69	65.44467120181406	86	127
64.69	65.44467120181406	74	127
65.44467120181406	65.618820861678	74	127
65.44467120181406	65.618820861678	86	127
65.618820861678	66.09480725623582	78	127
65.618820861678	66.09480725623582	90	127
66.09480725623582	66.33863945578231	78	127
66.09480725623582	66.33863945578231	90	127
66.6056462585034	66.67532879818594	74	127
66.6056462585034	66.67532879818594	86	127
66.67532879818594	66.73335600907029	88	127
66.67532879818594	66.73335600907029	76	127
66.73335600907029	66.80303854875284	86	127
66.73335600907029	66.80303854875284	74	127
66.80303854875284	66.86106575963719	88	127
66.80303854875284	66.86106575963719	76	127
66.86106575963719	66.93074829931973	74	127
66.86106575963719	66.93074829931973	86	127
66.93074829931973	66.97718820861678	76	127
66.93074829931973	66.97718820861678	88	127
66.97718820861678	67.0352380952381	86	127
66.97718820861678	67.0352380952381	74	127
67.0352380952381	67.10489795918367	74	127
67.0352380952381	67.10489795918367	86	127
67.10489795918367	67.162947845805	88	127
67.10489795918367	67.162947845805	76	127
67.162947845805	67.24421768707484	74	127
67.162947845805	67.24421768707484	86	127
67.24421768707484	67.30226757369614	88	127
67.24421768707484	67.30226757369614	76	127
67.30226757369614	67.4415873015873	73	127
67.30226757369614	67.4415873015873	85	127
67.4415873015873	67.54607709750567	74	127
67.4415873015873	67.54607709750567	86	127
67.54607709750567	68.0685260770975	81	127
67.54607709750567	68.0685260770975	69	127
68.0685260770975	68.26589569160998	86	127
68.0685260770975	68.26589569160998	74	127
68.52131519274377	68.92766439909298	73	127
68.52131519274377	68.92766439909298	85	127
68.92766439909298	68.99732426303855	86	127
68.92766439909298	68.99732426303855	74	127
68.99732426303855	69.06698412698412	73	127
68.99732426303855	69.06698412698412	85	127
69.06698412698412	69.40367346938775	71	127
69.06698412698412	69.40367346938775	83	127
69.40367346938775	69.50816326530612	85	127
69.40367346938775	69.50816326530612	73	127
69.50816326530612	69.99578231292517	74	127
69.50816326530612	69.99578231292517	86	127
69.99578231292517	70.52984126984127	68	127
69.99578231292517	70.52984126984127	80	127
70.52984126984127	71.95786848072562	69	127
70.52984126984127	71.95786848072562	81	127
71.95786848072562	72.50353741496599	69	127
71.95786848072562	72.50353741496599	81	127
72.50353741496599	73.25818594104308	74	127
72.50353741496599	73.25818594104308	86	127
73.25818594104308	73.51360544217687	86	127
73.25818594104308	73.51360544217687	74	127
73.51360544217687	73.98961451247166	90	127
73.51360544217687	73.98961451247166	78	127
73.98961451247166	74.18698412698413	78	127
73.98961451247166	74.18698412698413	90	127
74.44240362811792	74.51206349206349	74	127
74.44240362811792	74.51206349206349	86	127
74.51206349206349	74.5817006802721	76	127
74.51206349206349	74.5817006802721	88	127
74.5817006802721	74.63977324263038	74	127
74.5817006802721	74.63977324263038	86	127
74.63977324263038	74.709410430839	88	127
74.63977324263038	74.709410430839	76	127
74.709410430839	74.77909297052155	74	127
74.709410430839	74.77909297052155	86	127
74.77909297052155	74.8371201814059	76	127
74.77909297052155	74.8371201814059	88	127
74.8371201814059	74.89519274376417	74	127
74.8371201814059	74.89519274376417	86	127
74.89519274376417	74.95324263038549	76	127
74.89519274376417	74.95324263038549	88	127
74.95324263038549	75.01129251700681	74	127
74.95324263038549	75.01129251700681	86	127
75.01129251700681	75.08095238095238	88	127
75.01129251700681	75.08095238095238	76	127
75.08095238095238	75.15061224489796	74	127
75.08095238095238	75.15061224489796	86	127
75.15061224489796	75.2318820861678	88	127
75.15061224489796	75.2318820861678	76	127
75.2318820861678	75.37120181405896	73	127
75.2318820861678	75.37120181405896	85	127
75.37120181405896	75.47566893424036	74	127
75.37120181405896	75.47566893424036	86	127
75.47566893424036	76.46253968253968	81	127
75.47566893424036	76.46253968253968	69	127
76.46253968253968	77.15913832199547	69	127
76.46253968253968	77.15913832199547	81	127
77.15913832199547	77.42616780045351	81	127
77.15913832199547	77.42616780045351	69	127
77.42616780045351	77.76285714285714	76	127
77.42616780045351	77.76285714285714	88	127
77.76285714285714	77.87893424036281	74	127
77.76285714285714	77.87893424036281	86	127
77.87893424036281	77.94861678004536	73	127
77.87893424036281	77.94861678004536	85	127
77.94861678004536	78.0298866213152	74	127
77.94861678004536	78.0298866213152	86	127
78.0298866213152	78.30852607709751	73	127
78.0298866213152	78.30852607709751	85	127
78.30852607709751	78.4362358276644	83	127
78.30852607709751	78.4362358276644	71	127
78.4362358276644	79.87587301587301	81	127
78.4362358276644	79.87587301587301	69	127
79.87587301587301	80.05	69	127
79.87587301587301	80.05	81	127
80.05	80.18934240362812	83	127
80.05	80.18934240362812	71	127
80.18934240362812	80.31705215419501	85	127
80.18934240362812	80.31705215419501	73	127
80.31705215419501	81.14136054421769	86	127
80.31705215419501	81.14136054421769	74	127
81.14136054421769	81.37356009070295	86	127
81.14136054421769	81.37356009070295	74	127
81.37356009070295	81.79151927437641	90	127
81.37356009070295	81.79151927437641	78	127
81.79151927437641	82.05854875283447	78	127
81.79151927437641	82.05854875283447	90	127
82.31396825396826	82.38362811791383	74	127
82.31396825396826	82.38362811791383	86	127
82.38362811791383	82.44167800453515	88	127
82.38362811791383	82.44167800453515	76	127
82.44167800453515	82.51133786848072	74	127
82.44167800453515	82.51133786848072	86	127
82.51133786848072	82.58097505668934	88	127
82.51133786848072	82.58097505668934	76	127
82.58097505668934	82.63904761904762	74	127
82.58097505668934	82.63904761904762	86	127
82.63904761904762	82.69709750566894	76	127
82.63904761904762	82.69709750566894	88	127
82.69709750566894	82.75514739229025	86	127
82.69709750566894	82.75514739229025	74	127
82.75514739229025	82.8015873015873	76	127
82.75514739229025	82.8015873015873	88	127
82.8015873015873	82.85963718820862	86	127
82.8015873015873	82.85963718820862	74	127
82.85963718820862	82.91768707482993	88	127
82.85963718820862	82.91768707482993	76	127
82.91768707482993	82.98734693877552	74	127
82.91768707482993	82.98734693877552	86	127
82.98734693877552	83.05700680272109	76	127
82.98734693877552	83.05700680272109	88	127
83.05700680272109	83.17310657596371	73	127
83.05700680272109	83.17310657596371	85	127
83.17310657596371	83.30081632653061	74	127
83.17310657596371	83.30081632653061	86	127
83.30081632653061	83.82326530612245	69	127
83.30081632653061	83.82326530612245	81	127
83.82326530612245	84.04385487528344	86	127
83.82326530612245	84.04385487528344	74	127
84.3108843537415	84.65918367346939	73	127
84.3108843537415	84.65918367346939	85	127
84.65918367346939	84.70562358276644	86	127
84.65918367346939	84.70562358276644	74	127
84.70562358276644	84.76367346938775	73	127
84.70562358276644	84.76367346938775	85	127
84.76367346938775	85.13519274376418	71	127
84.76367346938775	85.13519274376418	83	127
85.13519274376418	85.21646258503401	73	127
85.13519274376418	85.21646258503401	85	127
85.21646258503401	85.73891156462585	74	127
85.21646258503401	85.73891156462585	86	127
85.73891156462585	86.2265306122449	80	127
85.73891156462585	86.2265306122449	68	127
86.2265306122449	87.67777777777778	69	127
86.2265306122449	87.67777777777778	81	127
87.67777777777778	88.20022675736962	81	127
87.67777777777778	88.20022675736962	69	127
88.20022675736962	88.96648526077098	85	127
88.20022675736962	88.96648526077098	73	127
88.96648526077098	89.24512471655329	73	127
88.96648526077098	89.24512471655329	85	127
89.24512471655329	89.50054421768708	86	127
89.24512471655329	89.50054421768708	74	127
89.50054421768708	89.7443537414966	85	127
89.50054421768708	89.7443537414966	73	127
89.7443537414966	90.02299319727891	71	127
89.7443537414966	90.02299319727891	83	127
90.02299319727891	90.25519274376417	73	127
90.02299319727891	90.25519274376417	85	127
90.25519274376417	90.32482993197279	74	127
90.25519274376417	90.32482993197279	86	127
90.32482993197279	90.38290249433106	88	127
90.32482993197279	90.38290249433106	76	127
90.38290249433106	90.45253968253968	86	127
90.38290249433106	90.45253968253968	74	127
90.45253968253968	90.51061224489796	76	127
90.45253968253968	90.51061224489796	88	127
90.51061224489796	90.58024943310657	74	127
90.51061224489796	90.58024943310657	86	127
90.58024943310657	90.63832199546485	76	127
90.58024943310657	90.63832199546485	88	127
90.63832199546485	90.7195918367347	74	127
90.63832199546485	90.7195918367347	86	127
90.7195918367347	90.78925170068027	76	127
90.7195918367347	90.78925170068027	88	127
90.78925170068027	90.85891156462586	74	127
90.78925170068027	90.85891156462586	86	127
90.85891156462586	90.92857142857143	76	127
90.85891156462586	90.92857142857143	88	127
90.92857142857143	90.96337868480725	86	127
90.92857142857143	90.96337868480725	74	127
90.96337868480725	91.0330612244898	88	127
90.96337868480725	91.0330612244898	76	127
91.0330612244898	91.13755102040817	85	127
91.0330612244898	91.13755102040817	73	127
91.13755102040817	91.27687074829932	86	127
91.13755102040817	91.27687074829932	74	127
91.27687074829932	91.50907029478458	81	127
91.27687074829932	91.50907029478458	69	127
91.71804988662132	91.99668934240363	74	127
91.71804988662132	91.99668934240363	86	127
92.25210884353741	92.96031746031746	73	127
92.25210884353741	92.96031746031746	85	127
92.96031746031746	93.22734693877551	73	127
92.96031746031746	93.22734693877551	85	127
93.22734693877551	93.40149659863945	73	127
93.22734693877551	93.40149659863945	85	127
93.40149659863945	93.58725623582767	79	127
93.40149659863945	93.58725623582767	91	127
93.58725623582767	93.76140589569161	78	127
93.58725623582767	93.76140589569161	90	127
93.76140589569161	93.9239455782313	76	127
93.76140589569161	93.9239455782313	88	127
93.9239455782313	94.10968253968254	74	127
93.9239455782313	94.10968253968254	86	127
94.10968253968254	94.27224489795918	73	127
94.10968253968254	94.27224489795918	85	127
94.27224489795918	95.70027210884354	74	127
94.27224489795918	95.70027210884354	86	127
95.70027210884354	96.18789115646258	74	127
95.70027210884354	96.18789115646258	86	127
96.18789115646258	96.86126984126984	83	127
96.18789115646258	96.86126984126984	71	127
96.86126984126984	97.10507936507936	83	127
96.86126984126984	97.10507936507936	71	127
97.10507936507936	97.49981859410431	71	127
97.10507936507936	97.49981859410431	83	127
97.49981859410431	97.55786848072562	71	127
97.49981859410431	97.55786848072562	83	127
97.55786848072562	98.05709750566893	74	127
97.55786848072562	98.05709750566893	86	127
98.05709750566893	98.11514739229025	74	127
98.05709750566893	98.11514739229025	86	127
98.11514739229025	98.18480725623583	88	127
98.11514739229025	98.18480725623583	76	127
98.18480725623583	98.2544671201814	86	127
98.18480725623583	98.2544671201814	74	127
98.2544671201814	98.32412698412699	76	127
98.2544671201814	98.32412698412699	88	127
98.32412698412699	98.3821768707483	74	127
98.32412698412699	98.3821768707483	86	127
98.3821768707483	98.44022675736962	76	127
98.3821768707483	98.44022675736962	88	127
98.44022675736962	98.50988662131519	86	127
98.44022675736962	98.50988662131519	74	127
98.50988662131519	98.57954648526078	76	127
98.50988662131519	98.57954648526078	88	127
98.57954648526078	98.62598639455783	86	127
98.57954648526078	98.62598639455783	74	127
98.62598639455783	98.6956462585034	88	127
98.62598639455783	98.6956462585034	76	127
98.6956462585034	98.76530612244898	86	127
98.6956462585034	98.76530612244898	74	127
98.76530612244898	98.83496598639456	88	127
98.76530612244898	98.83496598639456	76	127
98.83496598639456	98.96267573696146	85	127
98.83496598639456	98.96267573696146	73	127
98.96267573696146	99.06716553287981	86	127
98.96267573696146	99.06716553287981	74	127
99.06716553287981	99.48512471655329	69	127
99.06716553287981	99.48512471655329	81	127
100.00757369614513	100.75061224489797	81	127
100.00757369614513	100.75061224489797	69	127
100.75061224489797	100.92476190476191	81	127
100.75061224489797	100.92476190476191	69	127
100.92476190476191	100.99442176870748	81	127
100.92476190476191	100.99442176870748	69	127
100.99442176870748	101.52848072562358	76	127
100.99442176870748	101.52848072562358	88	127
101.52848072562358	102.01609977324263	85	127
101.52848072562358	102.01609977324263	73	127
102.01609977324263	102.0857596371882	74	127
102.01609977324263	102.0857596371882	86	127
102.0857596371882	102.15541950113379	76	127
102.0857596371882	102.15541950113379	88	127
102.15541950113379	102.20185941043084	74	127
102.15541950113379	102.20185941043084	86	127
102.20185941043084	102.28312925170069	76	127
102.20185941043084	102.28312925170069	88	127
102.28312925170069	102.34117913832199	86	127
102.28312925170069	102.34117913832199	74	127
102.34117913832199	102.41083900226758	88	127
102.34117913832199	102.41083900226758	76	127
102.41083900226758	102.46888888888888	86	127
102.41083900226758	102.46888888888888	74	127
102.46888888888888	102.51532879818595	76	127
102.46888888888888	102.51532879818595	88	127
102.51532879818595	102.57337868480725	74	127
102.51532879818595	102.57337868480725	86	127
102.57337868480725	102.64303854875284	76	127
102.57337868480725	102.64303854875284	88	127
102.64303854875284	102.68947845804989	74	127
102.64303854875284	102.68947845804989	86	127
102.68947845804989	102.75913832199547	88	127
102.68947845804989	102.75913832199547	76	127
102.75913832199547	102.82879818594104	74	127
102.75913832199547	102.82879818594104	86	127
102.82879818594104	102.87523809523809	76	127
102.82879818594104	102.87523809523809	88	127
102.87523809523809	102.93328798185941	86	127
102.87523809523809	102.93328798185941	74	127
102.93328798185941	102.99133786848073	76	127
102.93328798185941	102.99133786848073	88	127
102.99133786848073	103.03777777777778	74	127
102.99133786848073	103.03777777777778	86	127
103.03777777777778	103.10743764172335	76	127
103.03777777777778	103.10743764172335	88	127
103.10743764172335	103.16548752834467	74	127
103.10743764172335	103.16548752834467	86	127
103.16548752834467	103.1887074829932	88	127
103.16548752834467	103.1887074829932	76	127
103.1887074829932	103.23514739229024	74	127
103.1887074829932	103.23514739229024	86	127
103.23514739229024	103.29319727891156	76	127
103.23514739229024	103.29319727891156	88	127
103.29319727891156	103.35124716553288	86	127
103.29319727891156	103.35124716553288	74	127
103.35124716553288	103.4092970521542	76	127
103.35124716553288	103.4092970521542	88	127
103.4092970521542	103.47895691609978	86	127
103.4092970521542	103.47895691609978	74	127
103.47895691609978	103.54861678004535	76	127
103.47895691609978	103.54861678004535	88	127
103.54861678004535	103.60666666666667	86	127
103.54861678004535	103.60666666666667	74	127
103.60666666666667	103.67632653061224	88	127
103.60666666666667	103.67632653061224	76	127
103.67632653061224	103.83886621315193	73	127
103.67632653061224	103.83886621315193	85	127
103.83886621315193	103.96657596371882	86	127
103.83886621315193	103.96657596371882	74	127
103.96657596371882	104.69800453514739	83	127
103.96657596371882	104.69800453514739	71	127
104.69800453514739	104.91859410430838	71	127
104.69800453514739	104.91859410430838	83	127
104.91859410430838	105.35977324263038	71	127
104.91859410430838	105.35977324263038	83	127
105.35977324263038	105.4178231292517	83	127
105.35977324263038	105.4178231292517	71	127
105.4178231292517	105.90544217687075	74	127
105.4178231292517	105.90544217687075	86	127
105.90544217687075	105.97510204081632	74	127
105.90544217687075	105.97510204081632	86	127
105.97510204081632	106.0447619047619	88	127
105.97510204081632	106.0447619047619	76	127
106.0447619047619	106.11442176870749	74	127
106.0447619047619	106.11442176870749	86	127
106.11442176870749	106.17247165532879	76	127
106.11442176870749	106.17247165532879	88	127
106.17247165532879	106.24213151927438	86	127
106.17247165532879	106.24213151927438	74	127
106.24213151927438	106.30018140589569	88	127
106.24213151927438	106.30018140589569	76	127
106.30018140589569	106.36984126984127	86	127
106.30018140589569	106.36984126984127	74	127
106.36984126984127	106.43950113378685	76	127
106.36984126984127	106.43950113378685	88	127
106.43950113378685	106.49755102040817	74	127
106.43950113378685	106.49755102040817	86	127
106.49755102040817	106.55560090702947	88	127
106.49755102040817	106.55560090702947	76	127
106.55560090702947	106.61365079365079	74	127
106.55560090702947	106.61365079365079	86	127
106.61365079365079	106.68331065759637	76	127
106.61365079365079	106.68331065759637	88	127
106.68331065759637	106.81102040816326	73	127
106.68331065759637	106.81102040816326	85	127
106.81102040816326	106.90390022675737	71	127
106.81102040816326	106.90390022675737	83	127
106.90390022675737	107.31024943310658	81	127
106.90390022675737	107.31024943310658	69	127
107.8675283446712	108.59895691609978	69	127
107.8675283446712	108.59895691609978	81	127
108.59895691609978	108.8079365079365	81	127
108.59895691609978	108.8079365079365	69	127
108.8079365079365	108.88920634920635	69	127
108.8079365079365	108.88920634920635	81	127
108.88920634920635	109.45809523809524	88	127
108.88920634920635	109.45809523809524	76	127
109.45809523809524	109.98054421768707	85	127
109.45809523809524	109.98054421768707	73	127
109.98054421768707	111.698820861678	74	127
109.98054421768707	111.698820861678	86	127
116.74916099773243	117.50380952380952	62	127
116.74916099773243	117.50380952380952	57	127
116.74916099773243	117.50380952380952	50	127
116.74916099773243	117.50380952380952	66	127
116.74916099773243	117.50380952380952	74	127
117.50380952380952	117.71278911564626	74	127
117.50380952380952	117.71278911564626	50	127
117.50380952380952	117.71278911564626	62	127
117.50380952380952	117.71278911564626	66	127
117.71278911564626	118.15396825396826	74	127
117.71278911564626	118.15396825396826	78	127
117.71278911564626	118.15396825396826	62	127
117.71278911564626	118.15396825396826	66	127
118.15396825396826	118.67641723356009	78	127
118.15396825396826	118.67641723356009	66	127
118.15396825396826	118.67641723356009	81	127
118.15396825396826	118.67641723356009	69	127
118.67641723356009	119.45428571428572	57	127
118.67641723356009	119.45428571428572	64	127
118.67641723356009	119.45428571428572	73	127
118.67641723356009	119.45428571428572	76	127
120.52240362811791	122.41482993197279	57	127
120.52240362811791	121.02163265306122	81	127
120.52240362811791	121.02163265306122	73	127
120.52240362811791	121.46281179138322	61	127
120.52240362811791	121.46281179138322	64	127
120.52240362811791	122.41482993197279	69	127
121.02163265306122	121.46281179138322	76	127
121.02163265306122	121.46281179138322	79	127
121.46281179138322	121.90399092970522	62	127
121.46281179138322	121.90399092970522	78	127
121.46281179138322	121.90399092970522	74	127
121.46281179138322	121.90399092970522	66	127
121.90399092970522	122.41482993197279	76	127
121.90399092970522	122.41482993197279	73	127
121.90399092970522	122.41482993197279	64	127
121.90399092970522	122.41482993197279	67	127
122.41482993197279	123.29718820861677	74	127
122.41482993197279	123.29718820861677	66	127
122.41482993197279	123.29718820861677	62	127
122.41482993197279	123.29718820861677	69	127
124.08666666666667	124.66716553287982	66	127
124.08666666666667	124.66716553287982	74	127
124.08666666666667	124.66716553287982	62	127
124.08666666666667	124.66716553287982	57	127
124.08666666666667	124.66716553287982	50	127
124.66716553287982	124.94580498866213	62	127
124.66716553287982	124.94580498866213	74	127
124.66716553287982	124.94580498866213	50	127
124.66716553287982	124.94580498866213	66	127
124.94580498866213	125.50308390022676	66	127
124.94580498866213	125.50308390022676	78	127
124.94580498866213	125.50308390022676	62	127
124.94580498866213	125.50308390022676	74	127
125.50308390022676	126.0255328798186	69	127
125.50308390022676	126.0255328798186	78	127
125.50308390022676	126.0255328798186	66	127
125.50308390022676	126.0255328798186	81	127
126.0255328798186	126.47832199546485	76	127
126.0255328798186	126.47832199546485	73	127
126.0255328798186	126.47832199546485	64	127
126.0255328798186	126.47832199546485	61	127
126.0255328798186	126.47832199546485	52	127
126.88467120181406	127.36068027210884	52	127
126.88467120181406	127.36068027210884	59	127
126.88467120181406	127.36068027210884	62	127
126.88467120181406	127.36068027210884	68	127
127.72058956916099	128.2198185941043	69	127
127.72058956916099	128.2198185941043	45	127
127.72058956916099	128.2198185941043	52	127
127.72058956916099	128.2198185941043	57	127
127.72058956916099	128.2198185941043	61	127
131.54027210884354	132.20204081632653	57	127
131.54027210884354	132.20204081632653	50	127
131.54027210884354	132.20204081632653	66	127
131.54027210884354	132.20204081632653	74	127
131.54027210884354	132.20204081632653	62	127
132.20204081632653	132.43421768707483	62	127
132.20204081632653	132.43421768707483	50	127
132.20204081632653	132.43421768707483	66	127
132.20204081632653	132.43421768707483	74	127
132.43421768707483	132.82897959183674	66	127
132.43421768707483	132.82897959183674	78	127
132.43421768707483	132.82897959183674	62	127
132.43421768707483	132.82897959183674	74	127
132.82897959183674	133.33981859410432	81	127
132.82897959183674	133.33981859410432	78	127
132.82897959183674	133.33981859410432	66	127
132.82897959183674	133.33981859410432	69	127
133.33981859410432	134.23378684807255	64	127
133.33981859410432	134.23378684807255	73	127
133.33981859410432	134.23378684807255	57	127
133.33981859410432	134.23378684807255	76	127
135.17419501133787	136.09138321995465	64	127
135.17419501133787	135.60374149659864	81	127
135.17419501133787	135.60374149659864	73	127
135.17419501133787	136.09138321995465	61	127
135.17419501133787	136.83439909297053	57	127
135.17419501133787	136.83439909297053	69	127
135.60374149659864	136.09138321995465	79	127
135.60374149659864	136.09138321995465	76	127
136.09138321995465	136.4861224489796	78	127
136.09138321995465	136.4861224489796	66	127
136.09138321995465	136.4861224489796	62	127
136.09138321995465	136.4861224489796	74	127
136.4861224489796	136.83439909297053	67	127
136.4861224489796	136.83439909297053	73	127
136.4861224489796	136.83439909297053	64	127
136.4861224489796	136.83439909297053	76	127
136.83439909297053	137.76321995464852	62	127
136.83439909297053	137.76321995464852	66	127
136.83439909297053	137.76321995464852	69	127
136.83439909297053	137.76321995464852	74	127
138.66879818594106	139.35378684807256	57	127
138.66879818594106	139.35378684807256	50	127
138.66879818594106	139.35378684807256	66	127
138.66879818594106	139.35378684807256	74	127
138.66879818594106	139.35378684807256	62	127
139.35378684807256	139.60920634920635	50	127
139.35378684807256	139.60920634920635	66	127
139.35378684807256	139.60920634920635	74	127
139.35378684807256	139.60920634920635	62	127
139.60920634920635	140.10843537414965	62	127
139.60920634920635	140.10843537414965	74	127
139.60920634920635	140.10843537414965	78	127
139.60920634920635	140.10843537414965	66	127
140.10843537414965	140.57283446712017	69	127
140.10843537414965	140.57283446712017	66	127
140.10843537414965	140.57283446712017	81	127
140.10843537414965	140.57283446712017	78	127
140.57283446712017	141.0372335600907	76	127
140.57283446712017	141.0372335600907	73	127
140.57283446712017	141.0372335600907	64	127
140.57283446712017	141.0372335600907	61	127
140.57283446712017	141.0372335600907	52	127
141.50163265306122	141.89637188208616	52	127
141.50163265306122	141.89637188208616	59	127
141.50163265306122	141.89637188208616	62	127
141.50163265306122	141.89637188208616	68	127
142.34916099773244	142.7671201814059	61	127
142.34916099773244	142.7671201814059	45	127
142.34916099773244	142.7671201814059	52	127
142.34916099773244	142.7671201814059	57	127
142.34916099773244	142.7671201814059	69	127
145.95986394557823	146.7261224489796	74	127
145.95986394557823	146.9467120181406	66	127
145.95986394557823	146.9467120181406	62	127
145.95986394557823	146.9467120181406	57	127
145.95986394557823	146.9467120181406	50	127
146.7261224489796	146.9467120181406	74	127
146.9467120181406	147.3530612244898	50	127
146.9467120181406	147.15566893424037	78	127
146.9467120181406	147.3530612244898	57	127
146.9467120181406	147.3530612244898	62	127
146.9467120181406	147.3530612244898	66	127
147.15566893424037	147.3530612244898	74	127
147.3530612244898	147.57365079365078	73	127
147.3530612244898	147.80585034013606	62	127
147.3530612244898	147.80585034013606	66	127
147.3530612244898	147.80585034013606	57	127
147.3530612244898	147.80585034013606	50	127
147.57365079365078	147.80585034013606	74	127
147.80585034013606	148.200589569161	83	127
147.80585034013606	148.59532879818593	73	127
147.80585034013606	148.59532879818593	64	127
147.80585034013606	148.59532879818593	67	127
147.80585034013606	148.59532879818593	57	127
148.200589569161	148.59532879818593	81	127
149.57056689342403	150.4877551020408	66	127
149.57056689342403	150.2439455782313	74	127
149.57056689342403	150.4877551020408	62	127
149.57056689342403	150.4877551020408	57	127
149.57056689342403	150.4877551020408	50	127
150.2439455782313	150.4877551020408	74	127
150.4877551020408	150.9637641723356	57	127
150.4877551020408	150.69673469387754	74	127
150.4877551020408	150.9637641723356	50	127
150.4877551020408	150.9637641723356	62	127
150.4877551020408	150.9637641723356	66	127
150.69673469387754	150.9637641723356	81	127
150.9637641723356	151.17274376417234	78	127
150.9637641723356	151.39333333333335	66	127
150.9637641723356	151.39333333333335	62	127
150.9637641723356	151.39333333333335	57	127
150.9637641723356	151.39333333333335	50	127
151.17274376417234	151.39333333333335	74	127
151.39333333333335	152.31052154195012	67	127
151.39333333333335	152.31052154195012	71	127
151.39333333333335	152.31052154195012	55	127
151.39333333333335	152.31052154195012	62	127
153.26253968253968	153.90108843537416	74	127
153.26253968253968	154.12167800453514	66	127
153.26253968253968	154.12167800453514	62	127
153.26253968253968	154.12167800453514	57	127
153.26253968253968	154.12167800453514	50	127
153.90108843537416	154.12167800453514	74	127
154.12167800453514	154.58607709750567	66	127
154.12167800453514	154.58607709750567	50	127
154.12167800453514	154.58607709750567	57	127
154.12167800453514	154.58607709750567	62	127
154.12167800453514	154.58607709750567	74	127
154.58607709750567	155.08530612244897	62	127
154.58607709750567	154.85310657596372	78	127
154.58607709750567	155.08530612244897	50	127
154.58607709750567	155.08530612244897	57	127
154.58607709750567	155.08530612244897	66	127
154.85310657596372	155.08530612244897	74	127
155.08530612244897	155.8631746031746	69	127
155.08530612244897	155.8631746031746	67	127
155.08530612244897	155.8631746031746	64	127
155.08530612244897	155.8631746031746	57	127
156.82680272108843	157.53498866213152	74	127
156.82680272108843	157.778820861678	66	127
156.82680272108843	157.778820861678	62	127
156.82680272108843	157.778820861678	57	127
156.82680272108843	157.778820861678	50	127
157.53498866213152	157.778820861678	74	127
157.778820861678	158.09229024943312	62	127
157.778820861678	157.91814058956916	74	127
157.778820861678	158.09229024943312	50	127
157.778820861678	158.09229024943312	57	127
157.778820861678	158.09229024943312	66	127
157.91814058956916	158.09229024943312	81	127
158.09229024943312	158.56829931972788	66	127
158.09229024943312	158.3477097505669	78	127
158.09229024943312	158.56829931972788	50	127
158.09229024943312	158.56829931972788	57	127
158.09229024943312	158.56829931972788	62	127
158.3477097505669	158.56829931972788	74	127
158.56829931972788	159.47387755102042	55	127
158.56829931972788	159.47387755102042	71	127
158.56829931972788	159.47387755102042	67	127
158.56829931972788	159.47387755102042	62	127
160.46072562358276	161.15732426303856	74	127
160.46072562358276	161.3895238095238	66	127
160.46072562358276	161.3895238095238	62	127
160.46072562358276	161.3895238095238	57	127
160.46072562358276	161.3895238095238	50	127
161.15732426303856	161.3895238095238	74	127
161.3895238095238	161.92358276643992	62	127
161.3895238095238	161.92358276643992	57	127
161.3895238095238	161.92358276643992	74	127
161.3895238095238	161.92358276643992	50	127
161.3895238095238	161.92358276643992	66	127
161.92358276643992	162.35315192743764	57	127
161.92358276643992	162.20222222222222	78	127
161.92358276643992	162.35315192743764	66	127
161.92358276643992	162.35315192743764	62	127
161.92358276643992	162.35315192743764	50	127
162.20222222222222	162.35315192743764	74	127
162.35315192743764	163.16585034013605	69	127
162.35315192743764	163.16585034013605	67	127
162.35315192743764	163.16585034013605	64	127
162.35315192743764	163.16585034013605	57	127
164.07142857142858	164.80285714285714	66	127
164.07142857142858	164.80285714285714	74	127
164.07142857142858	164.80285714285714	62	127
164.07142857142858	164.80285714285714	57	127
164.07142857142858	164.80285714285714	50	127
164.80285714285714	164.86090702947845	74	127
164.80285714285714	164.86090702947845	69	127
164.80285714285714	164.86090702947845	66	127
164.86090702947845	165.3136961451247	66	127
164.86090702947845	165.3136961451247	62	127
164.86090702947845	165.3136961451247	86	127
165.8593650793651	165.92902494331065	69	127
165.8593650793651	165.92902494331065	81	127
165.92902494331065	165.98707482993197	71	127
165.92902494331065	165.98707482993197	83	127
165.98707482993197	166.0218820861678	69	127
165.98707482993197	166.0218820861678	81	127
166.0218820861678	166.09156462585034	83	127
166.0218820861678	166.09156462585034	71	127
166.09156462585034	166.16122448979593	81	127
166.09156462585034	166.16122448979593	69	127
166.16122448979593	166.2308843537415	71	127
166.16122448979593	166.2308843537415	83	127
166.2308843537415	166.2889342403628	68	127
166.2308843537415	166.2889342403628	80	127
166.2889342403628	166.3585941043084	69	127
166.2889342403628	166.3585941043084	81	127
166.3585941043084	166.428231292517	66	127
166.3585941043084	166.428231292517	78	127
166.52113378684808	166.6720634920635	71	127
166.52113378684808	166.6720634920635	83	127
166.6720634920635	166.78814058956917	69	127
166.6720634920635	166.78814058956917	81	127
166.78814058956917	166.91587301587302	66	127
166.78814058956917	166.91587301587302	78	127
166.91587301587302	167.03197278911566	62	127
166.91587301587302	167.03197278911566	74	127
167.03197278911566	167.19448979591837	76	127
167.03197278911566	167.19448979591837	88	127
167.19448979591837	167.29897959183674	74	127
167.19448979591837	167.29897959183674	86	127
167.29897959183674	167.36866213151927	69	127
167.29897959183674	167.36866213151927	81	127
167.36866213151927	167.49637188208618	66	127
167.36866213151927	167.49637188208618	78	127
167.49637188208618	167.60086167800455	71	127
167.49637188208618	167.60086167800455	83	127
167.60086167800455	167.69374149659865	69	127
167.60086167800455	167.69374149659865	81	127
167.69374149659865	167.79823129251702	66	127
167.69374149659865	167.79823129251702	78	127
167.79823129251702	167.90272108843538	62	127
167.79823129251702	167.90272108843538	74	127
167.90272108843538	168.03043083900226	76	127
167.90272108843538	168.03043083900226	88	127
168.03043083900226	168.12331065759636	74	127
168.03043083900226	168.12331065759636	86	127
168.12331065759636	168.22780045351473	81	127
168.12331065759636	168.22780045351473	69	127
168.22780045351473	168.34390022675737	66	127
168.22780045351473	168.34390022675737	78	127
168.34390022675737	168.4948299319728	90	127
168.34390022675737	168.4948299319728	78	127
168.4948299319728	168.57607709750567	76	127
168.4948299319728	168.57607709750567	88	127
168.57607709750567	168.69219954648526	74	127
168.57607709750567	168.69219954648526	86	127
168.69219954648526	168.76185941043084	73	127
168.69219954648526	168.76185941043084	85	127
168.76185941043084	168.87795918367348	83	127
168.76185941043084	168.87795918367348	71	127
168.87795918367348	168.98242630385488	69	127
168.87795918367348	168.98242630385488	81	127
168.98242630385488	169.11015873015873	68	127
168.98242630385488	169.11015873015873	80	127
169.11015873015873	169.23786848072564	83	127
169.11015873015873	169.23786848072564	71	127
169.23786848072564	169.36557823129252	81	127
169.23786848072564	169.36557823129252	69	127
169.36557823129252	169.45845804988662	86	127
169.36557823129252	169.45845804988662	74	127
169.45845804988662	169.56294784580498	81	127
169.45845804988662	169.56294784580498	69	127
169.56294784580498	169.6209977324263	67	127
169.56294784580498	169.6209977324263	79	127
169.6209977324263	169.72548752834467	78	127
169.6209977324263	169.72548752834467	66	127
169.72548752834467	169.8531746031746	64	127
169.72548752834467	169.8531746031746	76	127
169.8531746031746	170.004126984127	74	127
169.8531746031746	170.004126984127	62	127
170.004126984127	170.06215419501135	73	127
170.004126984127	170.06215419501135	61	127
170.1202267573696	170.21308390022676	73	127
170.1202267573696	170.21308390022676	85	127
170.21308390022676	170.30598639455783	69	127
170.21308390022676	170.30598639455783	81	127
170.30598639455783	170.39886621315193	76	127
170.30598639455783	170.39886621315193	64	127
170.39886621315193	170.5033560090703	73	127
170.39886621315193	170.5033560090703	61	127
170.5033560090703	170.61943310657597	88	127
170.5033560090703	170.61943310657597	76	127
170.61943310657597	170.72392290249434	85	127
170.61943310657597	170.72392290249434	73	127
170.72392290249434	170.8516553287982	69	127
170.72392290249434	170.8516553287982	81	127
170.8516553287982	170.97934240362812	68	127
170.8516553287982	170.97934240362812	80	127
170.97934240362812	171.0954648526077	76	127
170.97934240362812	171.0954648526077	88	127
171.0954648526077	171.2231746031746	68	127
171.0954648526077	171.2231746031746	80	127
171.2231746031746	171.3508843537415	90	127
171.2231746031746	171.3508843537415	78	127
171.3508843537415	171.4901814058957	81	127
171.3508843537415	171.4901814058957	69	127
171.4901814058957	171.60630385487528	76	127
171.4901814058957	171.60630385487528	88	127
171.60630385487528	171.71079365079365	83	127
171.60630385487528	171.71079365079365	71	127
171.71079365079365	171.83850340136055	86	127
171.71079365079365	171.83850340136055	74	127
171.83850340136055	171.8965306122449	73	127
171.83850340136055	171.8965306122449	85	127
171.96621315192743	172.08231292517007	81	127
171.96621315192743	172.08231292517007	93	127
172.08231292517007	172.1984126984127	88	127
172.08231292517007	172.1984126984127	76	127
172.1984126984127	172.31451247165532	73	127
172.1984126984127	172.31451247165532	85	127
172.31451247165532	172.4190022675737	71	127
172.31451247165532	172.4190022675737	83	127
172.4190022675737	172.52349206349206	79	127
172.4190022675737	172.52349206349206	91	127
172.52349206349206	172.65120181405896	74	127
172.52349206349206	172.65120181405896	86	127
172.65120181405896	172.7324716553288	71	127
172.65120181405896	172.7324716553288	83	127
172.7324716553288	172.8601814058957	69	127
172.7324716553288	172.8601814058957	81	127
172.8601814058957	172.96467120181407	78	127
172.8601814058957	172.96467120181407	90	127
172.96467120181407	173.0459410430839	74	127
172.96467120181407	173.0459410430839	86	127
173.0459410430839	173.15043083900227	69	127
173.0459410430839	173.15043083900227	81	127
173.15043083900227	173.2665306122449	79	127
173.15043083900227	173.2665306122449	67	127
173.2665306122449	173.38260770975057	76	127
173.2665306122449	173.38260770975057	88	127
173.38260770975057	173.51034013605442	73	127
173.38260770975057	173.51034013605442	85	127
173.51034013605442	173.62643990929706	67	127
173.51034013605442	173.62643990929706	79	127
173.62643990929706	173.75414965986394	66	127
173.62643990929706	173.75414965986394	78	127
173.75414965986394	173.87024943310658	71	127
173.75414965986394	173.87024943310658	83	127
173.87024943310658	173.97473922902495	69	127
173.87024943310658	173.97473922902495	81	127
173.97473922902495	174.0908390022676	66	127
173.97473922902495	174.0908390022676	78	127
174.0908390022676	174.2069387755102	62	127
174.0908390022676	174.2069387755102	74	127
174.2069387755102	174.27659863945578	76	127
174.2069387755102	174.27659863945578	88	127
174.27659863945578	174.39269841269842	74	127
174.27659863945578	174.39269841269842	86	127
174.39269841269842	174.5204081632653	69	127
174.39269841269842	174.5204081632653	81	127
174.5204081632653	174.63650793650794	66	127
174.5204081632653	174.63650793650794	78	127
174.63650793650794	174.72938775510204	71	127
174.63650793650794	174.72938775510204	83	127
174.72938775510204	174.82226757369614	69	127
174.72938775510204	174.82226757369614	81	127
174.82226757369614	174.94997732426305	66	127
174.82226757369614	174.94997732426305	78	127
174.94997732426305	175.07768707482992	62	127
174.94997732426305	175.07768707482992	74	127
175.07768707482992	175.1473469387755	88	127
175.07768707482992	175.1473469387755	76	127
175.1473469387755	175.25183673469388	74	127
175.1473469387755	175.25183673469388	86	127
175.25183673469388	175.36793650793652	81	127
175.25183673469388	175.36793650793652	69	127
175.36793650793652	175.48403628117913	78	127
175.36793650793652	175.48403628117913	66	127
175.48403628117913	175.5885260770975	90	127
175.48403628117913	175.5885260770975	78	127
175.5885260770975	175.69301587301587	76	127
175.5885260770975	175.69301587301587	88	127
175.69301587301587	175.79750566893424	74	127
175.69301587301587	175.79750566893424	86	127
175.79750566893424	175.9019954648526	73	127
175.79750566893424	175.9019954648526	85	127
175.9019954648526	176.00648526077097	83	127
175.9019954648526	176.00648526077097	71	127
176.00648526077097	176.13419501133788	69	127
176.00648526077097	176.13419501133788	81	127
176.13419501133788	176.26190476190476	68	127
176.13419501133788	176.26190476190476	80	127
176.26190476190476	176.36639455782313	71	127
176.26190476190476	176.36639455782313	83	127
176.36639455782313	176.48249433106577	69	127
176.36639455782313	176.48249433106577	81	127
176.48249433106577	176.61020408163265	74	127
176.48249433106577	176.61020408163265	86	127
176.61020408163265	176.74952380952382	69	127
176.61020408163265	176.74952380952382	81	127
176.74952380952382	176.88884353741497	67	127
176.74952380952382	176.88884353741497	79	127
176.88884353741497	177.0049433106576	78	127
176.88884353741497	177.0049433106576	66	127
177.0049433106576	177.10943310657598	64	127
177.0049433106576	177.10943310657598	76	127
177.10943310657598	177.15587301587303	74	127
177.10943310657598	177.15587301587303	62	127
177.15587301587303	177.17909297052154	73	127
177.15587301587303	177.17909297052154	61	127
177.24875283446713	177.36485260770976	73	127
177.24875283446713	177.36485260770976	85	127
177.36485260770976	177.49256235827664	69	127
177.36485260770976	177.49256235827664	81	127
177.49256235827664	177.60866213151928	64	127
177.49256235827664	177.60866213151928	76	127
177.60866213151928	177.73637188208616	61	127
177.60866213151928	177.73637188208616	73	127
177.73637188208616	177.84086167800453	76	127
177.73637188208616	177.84086167800453	88	127
177.84086167800453	177.93371882086169	73	127
177.84086167800453	177.93371882086169	85	127
177.93371882086169	178.038231292517	81	127
177.93371882086169	178.038231292517	69	127
178.038231292517	178.14272108843537	68	127
178.038231292517	178.14272108843537	80	127
178.14272108843537	178.258820861678	81	127
178.14272108843537	178.258820861678	69	127
178.258820861678	178.3400680272109	83	127
178.258820861678	178.3400680272109	71	127
178.3400680272109	178.43297052154196	85	127
178.3400680272109	178.43297052154196	73	127
178.43297052154196	178.53746031746033	86	127
178.43297052154196	178.53746031746033	74	127
178.53746031746033	178.6651700680272	75	127
178.53746031746033	178.6651700680272	87	127
178.6651700680272	178.79287981859412	78	127
178.6651700680272	178.79287981859412	90	127
178.79287981859412	178.93219954648526	88	127
178.79287981859412	178.93219954648526	76	127
178.93219954648526	178.99024943310658	69	127
178.93219954648526	178.99024943310658	81	127
179.0482993197279	179.1643990929705	81	127
179.0482993197279	179.1643990929705	93	127
179.1643990929705	179.24566893424037	76	127
179.1643990929705	179.24566893424037	88	127
179.24566893424037	179.36174603174604	73	127
179.24566893424037	179.36174603174604	85	127
179.36174603174604	179.4894784580499	69	127
179.36174603174604	179.4894784580499	81	127
179.4894784580499	179.61716553287982	81	127
179.4894784580499	179.61716553287982	69	127
179.61716553287982	179.69845804988663	64	127
179.61716553287982	179.69845804988663	76	127
179.69845804988663	179.79133786848072	73	127
179.69845804988663	179.79133786848072	61	127
179.79133786848072	179.8725850340136	69	127
179.79133786848072	179.8725850340136	57	127
179.8725850340136	180.01192743764173	71	127
179.8725850340136	180.01192743764173	59	127
180.01192743764173	180.1164172335601	60	127
180.01192743764173	180.1164172335601	72	127
180.1164172335601	180.22090702947847	61	127
180.1164172335601	180.22090702947847	73	127
180.22090702947847	180.32539682539684	62	127
180.22090702947847	180.32539682539684	74	127
180.32539682539684	180.41827664399094	63	127
180.32539682539684	180.41827664399094	75	127
180.41827664399094	180.51115646258503	64	127
180.41827664399094	180.51115646258503	76	127
180.51115646258503	180.6156462585034	65	127
180.51115646258503	180.6156462585034	77	127
180.6156462585034	180.685306122449	66	127
180.6156462585034	180.685306122449	78	127
180.74333333333334	180.85945578231292	71	127
180.74333333333334	180.85945578231292	83	127
180.85945578231292	180.97555555555556	69	127
180.85945578231292	180.97555555555556	81	127
180.97555555555556	181.1032426303855	78	127
180.97555555555556	181.1032426303855	66	127
181.1032426303855	181.2077551020408	62	127
181.1032426303855	181.2077551020408	74	127
181.2077551020408	181.2774149659864	76	127
181.2077551020408	181.2774149659864	88	127
181.2774149659864	181.40510204081633	86	127
181.2774149659864	181.40510204081633	74	127
181.40510204081633	181.48639455782313	69	127
181.40510204081633	181.48639455782313	81	127
181.48639455782313	181.62571428571428	66	127
181.48639455782313	181.62571428571428	78	127
181.62571428571428	181.7534240362812	71	127
181.62571428571428	181.7534240362812	83	127
181.7534240362812	181.86950113378686	69	127
181.7534240362812	181.86950113378686	81	127
181.86950113378686	181.98562358276644	66	127
181.86950113378686	181.98562358276644	78	127
181.98562358276644	182.10172335600907	62	127
181.98562358276644	182.10172335600907	74	127
182.10172335600907	182.20621315192744	76	127
182.10172335600907	182.20621315192744	88	127
182.20621315192744	182.29909297052154	74	127
182.20621315192744	182.29909297052154	86	127
182.29909297052154	182.4035827664399	69	127
182.29909297052154	182.4035827664399	81	127
182.4035827664399	182.51968253968255	66	127
182.4035827664399	182.51968253968255	78	127
182.51968253968255	182.6590022675737	78	127
182.51968253968255	182.6590022675737	90	127
182.6590022675737	182.78668934240363	88	127
182.6590022675737	182.78668934240363	76	127
182.78668934240363	182.891179138322	86	127
182.78668934240363	182.891179138322	74	127
182.891179138322	182.93764172335602	85	127
182.891179138322	182.93764172335602	73	127
182.93764172335602	183.04210884353742	83	127
182.93764172335602	183.04210884353742	71	127
183.04210884353742	183.158231292517	81	127
183.04210884353742	183.158231292517	69	127
183.158231292517	183.2975283446712	68	127
183.158231292517	183.2975283446712	80	127
183.2975283446712	183.39043083900228	71	127
183.2975283446712	183.39043083900228	83	127
183.39043083900228	183.51814058956916	81	127
183.39043083900228	183.51814058956916	69	127
183.51814058956916	183.64585034013606	86	127
183.51814058956916	183.64585034013606	74	127
183.64585034013606	183.75034013605443	81	127
183.64585034013606	183.75034013605443	69	127
183.75034013605443	183.86643990929704	79	127
183.75034013605443	183.86643990929704	67	127
183.86643990929704	183.95931972789117	66	127
183.86643990929704	183.95931972789117	78	127
183.95931972789117	184.07541950113378	64	127
183.95931972789117	184.07541950113378	76	127
184.07541950113378	184.19151927437642	62	127
184.07541950113378	184.19151927437642	74	127
184.19151927437642	184.2727664399093	61	127
184.19151927437642	184.2727664399093	73	127
184.33083900226757	184.4469387755102	73	127
184.33083900226757	184.4469387755102	85	127
184.4469387755102	184.56303854875284	81	127
184.4469387755102	184.56303854875284	69	127
184.56303854875284	184.6675283446712	76	127
184.56303854875284	184.6675283446712	64	127
184.6675283446712	184.78360544217688	61	127
184.6675283446712	184.78360544217688	73	127
184.78360544217688	184.8881179138322	76	127
184.78360544217688	184.8881179138322	88	127
184.8881179138322	184.98099773242632	73	127
184.8881179138322	184.98099773242632	85	127
184.98099773242632	185.0854648526077	69	127
184.98099773242632	185.0854648526077	81	127
185.0854648526077	185.21319727891157	68	127
185.0854648526077	185.21319727891157	80	127
185.21319727891157	185.28285714285715	76	127
185.21319727891157	185.28285714285715	88	127
185.28285714285715	185.30607709750566	80	127
185.28285714285715	185.30607709750566	68	127
185.30607709750566	185.39895691609976	78	127
185.30607709750566	185.39895691609976	90	127
185.39895691609976	185.5150566893424	69	127
185.39895691609976	185.5150566893424	81	127
185.5150566893424	185.6427664399093	88	127
185.5150566893424	185.6427664399093	76	127
185.6427664399093	185.7356462585034	71	127
185.6427664399093	185.7356462585034	83	127
185.7356462585034	185.84013605442178	74	127
185.7356462585034	185.84013605442178	86	127
185.84013605442178	185.90979591836734	73	127
185.84013605442178	185.90979591836734	85	127
185.96784580498866	186.09555555555556	81	127
185.96784580498866	186.09555555555556	93	127
186.09555555555556	186.21163265306123	76	127
186.09555555555556	186.21163265306123	88	127
186.21163265306123	186.3161224489796	85	127
186.21163265306123	186.3161224489796	73	127
186.3161224489796	186.4206349206349	71	127
186.3161224489796	186.4206349206349	83	127
186.4206349206349	186.5599546485261	91	127
186.4206349206349	186.5599546485261	79	127
186.5599546485261	186.6760544217687	86	127
186.5599546485261	186.6760544217687	74	127
186.6760544217687	186.79215419501134	71	127
186.6760544217687	186.79215419501134	83	127
186.79215419501134	186.8966439909297	69	127
186.79215419501134	186.8966439909297	81	127
186.8966439909297	187.00113378684807	78	127
186.8966439909297	187.00113378684807	90	127
187.00113378684807	187.08238095238096	74	127
187.00113378684807	187.08238095238096	86	127
187.08238095238096	187.17528344671203	69	127
187.08238095238096	187.17528344671203	81	127
187.17528344671203	187.2797732426304	67	127
187.17528344671203	187.2797732426304	79	127
187.2797732426304	187.38426303854877	76	127
187.2797732426304	187.38426303854877	88	127
187.38426303854877	187.47714285714287	73	127
187.38426303854877	187.47714285714287	85	127
187.47714285714287	187.58163265306123	67	127
187.47714285714287	187.58163265306123	79	127
187.58163265306123	187.73256235827665	66	127
187.58163265306123	187.73256235827665	78	127
187.73256235827665	187.84863945578232	71	127
187.73256235827665	187.84863945578232	83	127
187.84863945578232	187.9415419501134	69	127
187.84863945578232	187.9415419501134	81	127
187.9415419501134	188.02281179138322	66	127
187.9415419501134	188.02281179138322	78	127
188.02281179138322	188.1273015873016	62	127
188.02281179138322	188.1273015873016	74	127
188.1273015873016	188.2201814058957	76	127
188.1273015873016	188.2201814058957	88	127
188.2201814058957	188.33628117913833	74	127
188.2201814058957	188.33628117913833	86	127
188.33628117913833	188.46396825396826	69	127
188.33628117913833	188.46396825396826	81	127
188.46396825396826	188.5917006802721	66	127
188.46396825396826	188.5917006802721	78	127
188.5917006802721	188.71938775510205	71	127
188.5917006802721	188.71938775510205	83	127
188.71938775510205	188.83551020408163	69	127
188.71938775510205	188.83551020408163	81	127
188.83551020408163	188.94	66	127
188.83551020408163	188.94	78	127
188.94	189.0677097505669	62	127
188.94	189.0677097505669	74	127
189.0677097505669	189.14897959183673	76	127
189.0677097505669	189.14897959183673	88	127
189.14897959183673	189.2534693877551	74	127
189.14897959183673	189.2534693877551	86	127
189.2534693877551	189.31151927437642	69	127
189.2534693877551	189.31151927437642	81	127
189.31151927437642	189.40439909297052	66	127
189.31151927437642	189.40439909297052	78	127
189.40439909297052	189.5088888888889	90	127
189.40439909297052	189.5088888888889	78	127
189.5088888888889	189.63657596371883	88	127
189.5088888888889	189.63657596371883	76	127
189.63657596371883	189.7410657596372	86	127
189.63657596371883	189.7410657596372	74	127
189.7410657596372	189.86879818594105	73	127
189.7410657596372	189.86879818594105	85	127
189.86879818594105	189.99648526077098	83	127
189.86879818594105	189.99648526077098	71	127
189.99648526077098	190.07777777777778	69	127
189.99648526077098	190.07777777777778	81	127
190.07777777777778	190.17065759637188	68	127
190.07777777777778	190.17065759637188	80	127
190.17065759637188	190.28675736961452	71	127
190.17065759637188	190.28675736961452	83	127
190.28675736961452	190.4144671201814	69	127
190.28675736961452	190.4144671201814	81	127
190.4144671201814	190.5073469387755	74	127
190.4144671201814	190.5073469387755	86	127
190.5073469387755	190.62344671201814	81	127
190.5073469387755	190.62344671201814	69	127
190.62344671201814	190.7279365079365	79	127
190.62344671201814	190.7279365079365	67	127
190.7279365079365	190.83242630385487	66	127
190.7279365079365	190.83242630385487	78	127
190.83242630385487	190.93691609977324	76	127
190.83242630385487	190.93691609977324	64	127
190.93691609977324	191.0414058956916	62	127
190.93691609977324	191.0414058956916	74	127
191.0414058956916	191.1110657596372	61	127
191.0414058956916	191.1110657596372	73	127
191.1691156462585	191.27360544217686	85	127
191.1691156462585	191.27360544217686	73	127
191.27360544217686	191.3897052154195	69	127
191.27360544217686	191.3897052154195	81	127
191.3897052154195	191.5174149659864	64	127
191.3897052154195	191.5174149659864	76	127
191.5174149659864	191.64512471655328	61	127
191.5174149659864	191.64512471655328	73	127
191.64512471655328	191.7728344671202	76	127
191.64512471655328	191.7728344671202	88	127
191.7728344671202	191.8657142857143	73	127
191.7728344671202	191.8657142857143	85	127
191.8657142857143	191.97020408163266	81	127
191.8657142857143	191.97020408163266	69	127
191.97020408163266	192.09791383219954	68	127
191.97020408163266	192.09791383219954	80	127
192.09791383219954	192.21401360544218	81	127
192.09791383219954	192.21401360544218	69	127
192.21401360544218	192.3301133786848	71	127
192.21401360544218	192.3301133786848	83	127
192.3301133786848	192.41138321995464	85	127
192.3301133786848	192.41138321995464	73	127
192.41138321995464	192.52748299319728	86	127
192.41138321995464	192.52748299319728	74	127
192.52748299319728	192.59714285714287	75	127
192.52748299319728	192.59714285714287	87	127
192.59714285714287	192.71324263038548	78	127
192.59714285714287	192.71324263038548	90	127
192.71324263038548	192.79451247165534	88	127
192.71324263038548	192.79451247165534	76	127
192.79451247165534	192.85256235827666	81	127
192.79451247165534	192.85256235827666	69	127
192.91061224489795	192.9918820861678	93	127
192.91061224489795	192.9918820861678	81	127
192.9918820861678	193.0847619047619	76	127
192.9918820861678	193.0847619047619	88	127
193.0847619047619	193.20086167800454	73	127
193.0847619047619	193.20086167800454	85	127
193.20086167800454	193.29374149659864	69	127
193.20086167800454	193.29374149659864	81	127
193.29374149659864	193.40984126984128	69	127
193.29374149659864	193.40984126984128	81	127
193.40984126984128	193.5259410430839	64	127
193.40984126984128	193.5259410430839	76	127
193.5259410430839	193.63043083900226	73	127
193.5259410430839	193.63043083900226	61	127
193.63043083900226	193.73492063492063	69	127
193.63043083900226	193.73492063492063	57	127
193.73492063492063	193.839410430839	71	127
193.73492063492063	193.839410430839	59	127
193.839410430839	193.89746031746031	60	127
193.839410430839	193.89746031746031	72	127
193.89746031746031	194.01356009070295	61	127
193.89746031746031	194.01356009070295	73	127
194.01356009070295	194.17609977324264	62	127
194.01356009070295	194.17609977324264	74	127
194.17609977324264	194.280589569161	63	127
194.17609977324264	194.280589569161	75	127
194.280589569161	194.38507936507938	64	127
194.280589569161	194.38507936507938	76	127
194.38507936507938	194.52439909297053	65	127
194.38507936507938	194.52439909297053	77	127
194.52439909297053	194.6521088435374	67	127
194.52439909297053	194.6521088435374	79	127
194.6521088435374	194.7798185941043	68	127
194.6521088435374	194.7798185941043	80	127
194.7798185941043	194.88430839002268	69	127
194.7798185941043	194.88430839002268	81	127
194.88430839002268	195.00040816326532	68	127
194.88430839002268	195.00040816326532	80	127
195.00040816326532	195.09328798185942	69	127
195.00040816326532	195.09328798185942	81	127
195.09328798185942	195.20938775510203	70	127
195.09328798185942	195.20938775510203	82	127
195.20938775510203	195.3138775510204	71	127
195.20938775510203	195.3138775510204	83	127
195.3138775510204	195.41836734693877	70	127
195.3138775510204	195.41836734693877	82	127
195.41836734693877	195.5344671201814	71	127
195.41836734693877	195.5344671201814	83	127
195.5344671201814	195.604126984127	76	127
195.5344671201814	195.604126984127	88	127
195.604126984127	195.67378684807255	79	127
195.604126984127	195.67378684807255	91	127
195.67378684807255	195.7550566893424	78	127
195.67378684807255	195.7550566893424	90	127
195.7550566893424	195.87115646258502	79	127
195.7550566893424	195.87115646258502	91	127
195.87115646258502	195.98725623582766	80	127
195.87115646258502	195.98725623582766	92	127
195.98725623582766	196.09174603174603	81	127
195.98725623582766	196.09174603174603	93	127
196.09174603174603	196.1962358276644	79	127
196.09174603174603	196.1962358276644	91	127
196.1962358276644	196.2891156462585	90	127
196.1962358276644	196.2891156462585	78	127
196.2891156462585	196.40521541950113	93	127
196.2891156462585	196.40521541950113	81	127
196.40521541950113	196.53292517006804	74	127
196.40521541950113	196.53292517006804	86	127
196.53292517006804	196.62580498866214	78	127
196.53292517006804	196.62580498866214	90	127
196.62580498866214	196.74190476190475	83	127
196.62580498866214	196.74190476190475	95	127
196.74190476190475	196.8580045351474	81	127
196.74190476190475	196.8580045351474	93	127
196.8580045351474	196.9857142857143	69	127
196.8580045351474	196.9857142857143	81	127
196.9857142857143	197.1018140589569	86	127
196.9857142857143	197.1018140589569	74	127
197.1018140589569	197.19469387755103	79	127
197.1018140589569	197.19469387755103	91	127
197.19469387755103	197.28757369614513	78	127
197.19469387755103	197.28757369614513	90	127
197.28757369614513	197.3920634920635	78	127
197.28757369614513	197.3920634920635	66	127
197.3920634920635	197.49655328798187	81	127
197.3920634920635	197.49655328798187	69	127
197.49655328798187	197.62426303854875	88	127
197.49655328798187	197.62426303854875	76	127
197.62426303854875	197.71714285714285	74	127
197.62426303854875	197.71714285714285	86	127
197.71714285714285	197.81002267573697	73	127
197.71714285714285	197.81002267573697	85	127
197.81002267573697	197.92612244897958	71	127
197.81002267573697	197.92612244897958	83	127
197.92612244897958	198.0538321995465	69	127
197.92612244897958	198.0538321995465	81	127
198.0538321995465	198.15832199546486	80	127
198.0538321995465	198.15832199546486	68	127
198.15832199546486	198.26281179138323	69	127
198.15832199546486	198.26281179138323	81	127
198.26281179138323	198.3905215419501	68	127
198.26281179138323	198.3905215419501	80	127
198.3905215419501	198.50662131519275	69	127
198.3905215419501	198.50662131519275	81	127
198.50662131519275	198.62272108843538	70	127
198.50662131519275	198.62272108843538	82	127
198.62272108843538	198.76204081632653	71	127
198.62272108843538	198.76204081632653	83	127
198.76204081632653	198.87814058956917	70	127
198.76204081632653	198.87814058956917	82	127
198.87814058956917	198.99424036281178	71	127
198.87814058956917	198.99424036281178	83	127
198.99424036281178	199.11034013605442	76	127
198.99424036281178	199.11034013605442	88	127
199.11034013605442	199.22643990929706	79	127
199.11034013605442	199.22643990929706	91	127
199.22643990929706	199.35414965986394	78	127
199.22643990929706	199.35414965986394	90	127
199.35414965986394	199.4586394557823	91	127
199.35414965986394	199.4586394557823	79	127
199.4586394557823	199.50507936507935	80	127
199.4586394557823	199.50507936507935	92	127
199.50507936507935	199.59795918367348	81	127
199.50507936507935	199.59795918367348	93	127
199.59795918367348	199.69083900226758	91	127
199.59795918367348	199.69083900226758	79	127
199.69083900226758	199.81854875283446	90	127
199.69083900226758	199.81854875283446	78	127
199.81854875283446	199.89981859410432	81	127
199.81854875283446	199.89981859410432	93	127
199.89981859410432	199.94625850340137	86	127
199.89981859410432	199.94625850340137	74	127
199.94625850340137	200.07396825396825	90	127
199.94625850340137	200.07396825396825	78	127
200.07396825396825	200.20167800453515	83	127
200.07396825396825	200.20167800453515	95	127
200.20167800453515	200.3177777777778	81	127
200.20167800453515	200.3177777777778	93	127
200.3177777777778	200.4106575963719	81	127
200.3177777777778	200.4106575963719	69	127
200.4106575963719	200.5267573696145	74	127
200.4106575963719	200.5267573696145	86	127
200.5267573696145	200.6544671201814	79	127
200.5267573696145	200.6544671201814	91	127
200.6544671201814	200.724126984127	78	127
200.6544671201814	200.724126984127	90	127
200.724126984127	200.8170068027211	78	127
200.724126984127	200.8170068027211	66	127
200.8170068027211	200.92149659863946	81	127
200.8170068027211	200.92149659863946	69	127
200.92149659863946	201.04920634920634	76	127
200.92149659863946	201.04920634920634	88	127
201.04920634920634	201.1536961451247	86	127
201.04920634920634	201.1536961451247	74	127
201.1536961451247	201.28140589569162	73	127
201.1536961451247	201.28140589569162	85	127
201.28140589569162	201.39750566893423	74	127
201.28140589569162	201.39750566893423	86	127
201.39750566893423	201.46716553287982	91	127
201.39750566893423	201.46716553287982	79	127
201.5368253968254	201.65292517006802	86	127
201.5368253968254	201.65292517006802	74	127
201.65292517006802	201.78063492063492	73	127
201.65292517006802	201.78063492063492	85	127
201.78063492063492	201.87351473922902	86	127
201.78063492063492	201.87351473922902	74	127
201.87351473922902	202.00122448979593	83	127
201.87351473922902	202.00122448979593	95	127
202.00122448979593	202.09410430839003	91	127
202.00122448979593	202.09410430839003	79	127
202.09410430839003	202.1985941043084	78	127
202.09410430839003	202.1985941043084	90	127
202.1985941043084	202.32630385487528	91	127
202.1985941043084	202.32630385487528	79	127
202.32630385487528	202.44240362811792	98	127
202.32630385487528	202.44240362811792	86	127
202.44240362811792	202.55850340136055	100	127
202.44240362811792	202.55850340136055	88	127
202.55850340136055	202.65138321995465	85	127
202.55850340136055	202.65138321995465	97	127
202.65138321995465	202.77909297052153	98	127
202.65138321995465	202.77909297052153	86	127
202.77909297052153	202.89519274376417	100	127
202.77909297052153	202.89519274376417	88	127
202.89519274376417	203.0112925170068	98	127
202.89519274376417	203.0112925170068	86	127
203.0112925170068	203.1390022675737	97	127
203.0112925170068	203.1390022675737	85	127
203.1390022675737	203.25510204081633	95	127
203.1390022675737	203.25510204081633	83	127
203.25510204081633	203.3595918367347	93	127
203.25510204081633	203.3595918367347	81	127
203.3595918367347	203.47569160997733	92	127
203.3595918367347	203.47569160997733	80	127
203.47569160997733	203.59179138321994	83	127
203.47569160997733	203.59179138321994	95	127
203.59179138321994	203.70789115646258	80	127
203.59179138321994	203.70789115646258	92	127
203.70789115646258	203.80077097505668	81	127
203.70789115646258	203.80077097505668	93	127
203.80077097505668	203.94009070294786	92	127
203.80077097505668	203.94009070294786	80	127
203.94009070294786	204.04458049886622	83	127
203.94009070294786	204.04458049886622	95	127
204.04458049886622	204.1722902494331	80	127
204.04458049886622	204.1722902494331	92	127
204.1722902494331	204.2651700680272	81	127
204.1722902494331	204.2651700680272	93	127
204.2651700680272	204.36965986394557	80	127
204.2651700680272	204.36965986394557	92	127
204.36965986394557	204.4857596371882	83	127
204.36965986394557	204.4857596371882	95	127
204.4857596371882	204.60185941043085	80	127
204.4857596371882	204.60185941043085	92	127
204.60185941043085	204.71795918367346	86	127
204.60185941043085	204.71795918367346	98	127
204.71795918367346	204.8340589569161	81	127
204.71795918367346	204.8340589569161	93	127
204.8340589569161	204.961768707483	90	127
204.8340589569161	204.961768707483	78	127
204.961768707483	205.06625850340137	86	127
204.961768707483	205.06625850340137	74	127
205.06625850340137	205.17074829931974	85	127
205.06625850340137	205.17074829931974	73	127
205.17074829931974	205.26362811791384	91	127
205.17074829931974	205.26362811791384	79	127
205.26362811791384	205.37972789115645	78	127
205.26362811791384	205.37972789115645	90	127
205.37972789115645	205.4958276643991	89	127
205.37972789115645	205.4958276643991	77	127
205.4958276643991	205.61192743764173	76	127
205.4958276643991	205.61192743764173	88	127
205.61192743764173	205.7396371882086	83	127
205.61192743764173	205.7396371882086	95	127
205.7396371882086	205.82090702947846	81	127
205.7396371882086	205.82090702947846	93	127
205.82090702947846	205.9370068027211	92	127
205.82090702947846	205.9370068027211	80	127
205.9370068027211	206.0531065759637	79	127
205.9370068027211	206.0531065759637	91	127
206.0531065759637	206.16920634920635	88	127
206.0531065759637	206.16920634920635	100	127
206.16920634920635	206.3085260770975	98	127
206.16920634920635	206.3085260770975	86	127
206.3085260770975	206.42462585034014	97	127
206.3085260770975	206.42462585034014	85	127
206.42462585034014	206.50589569160996	95	127
206.42462585034014	206.50589569160996	83	127
206.50589569160996	206.5987755102041	82	127
206.50589569160996	206.5987755102041	94	127
206.5987755102041	206.72648526077097	93	127
206.5987755102041	206.72648526077097	81	127
206.72648526077097	206.85419501133788	91	127
206.72648526077097	206.85419501133788	79	127
206.85419501133788	206.92385487528344	78	127
206.85419501133788	206.92385487528344	90	127
206.92385487528344	207.03995464852608	78	127
206.92385487528344	207.03995464852608	90	127
207.03995464852608	207.15605442176872	76	127
207.03995464852608	207.15605442176872	88	127
207.15605442176872	207.24893424036281	74	127
207.15605442176872	207.24893424036281	86	127
207.24893424036281	207.3185941043084	73	127
207.24893424036281	207.3185941043084	85	127
207.3185941043084	207.4114739229025	83	127
207.3185941043084	207.4114739229025	71	127
207.4114739229025	207.53918367346938	69	127
207.4114739229025	207.53918367346938	81	127
207.53918367346938	207.65528344671202	80	127
207.53918367346938	207.65528344671202	68	127
207.65528344671202	207.7597732426304	83	127
207.65528344671202	207.7597732426304	71	127
207.7597732426304	207.87587301587303	69	127
207.7597732426304	207.87587301587303	81	127
207.87587301587303	207.99197278911564	86	127
207.87587301587303	207.99197278911564	74	127
207.99197278911564	208.0732426303855	69	127
207.99197278911564	208.0732426303855	81	127
208.0732426303855	208.20095238095237	79	127
208.0732426303855	208.20095238095237	67	127
208.20095238095237	208.32866213151928	78	127
208.20095238095237	208.32866213151928	66	127
208.32866213151928	208.43315192743765	76	127
208.32866213151928	208.43315192743765	64	127
208.43315192743765	208.52603174603175	74	127
208.43315192743765	208.52603174603175	62	127
208.52603174603175	208.5724716553288	79	127
208.52603174603175	208.5724716553288	67	127
208.61891156462585	208.76984126984127	74	127
208.61891156462585	208.76984126984127	62	127
208.76984126984127	208.86272108843536	61	127
208.76984126984127	208.86272108843536	73	127
208.86272108843536	208.96721088435373	74	127
208.86272108843536	208.96721088435373	62	127
208.96721088435373	209.09492063492064	71	127
208.96721088435373	209.09492063492064	83	127
209.09492063492064	209.26907029478457	67	127
209.09492063492064	209.26907029478457	79	127
209.26907029478457	209.40839002267575	66	127
209.26907029478457	209.40839002267575	78	127
209.40839002267575	209.52448979591836	79	127
209.40839002267575	209.52448979591836	67	127
209.52448979591836	209.61736961451248	74	127
209.52448979591836	209.61736961451248	86	127
209.61736961451248	209.72185941043085	88	127
209.61736961451248	209.72185941043085	76	127
209.72185941043085	209.81473922902495	73	127
209.72185941043085	209.81473922902495	85	127
209.81473922902495	209.89600907029478	86	127
209.81473922902495	209.89600907029478	74	127
209.89600907029478	210.01210884353742	88	127
209.89600907029478	210.01210884353742	76	127
210.01210884353742	210.1398185941043	74	127
210.01210884353742	210.1398185941043	86	127
210.1398185941043	210.24430839002267	73	127
210.1398185941043	210.24430839002267	85	127
210.24430839002267	210.34879818594104	71	127
210.24430839002267	210.34879818594104	83	127
210.34879818594104	210.4532879818594	69	127
210.34879818594104	210.4532879818594	81	127
210.4532879818594	210.5809977324263	68	127
210.4532879818594	210.5809977324263	80	127
210.5809977324263	210.743537414966	83	127
210.5809977324263	210.743537414966	71	127
210.743537414966	210.8596371882086	80	127
210.743537414966	210.8596371882086	68	127
210.8596371882086	210.97573696145125	81	127
210.8596371882086	210.97573696145125	69	127
210.97573696145125	211.09183673469389	80	127
210.97573696145125	211.09183673469389	68	127
211.09183673469389	211.18471655328798	83	127
211.09183673469389	211.18471655328798	71	127
211.18471655328798	211.2659863945578	68	127
211.18471655328798	211.2659863945578	80	127
211.2659863945578	211.39369614512472	81	127
211.2659863945578	211.39369614512472	69	127
211.39369614512472	211.53301587301587	80	127
211.39369614512472	211.53301587301587	68	127
211.53301587301587	211.66072562358278	71	127
211.53301587301587	211.66072562358278	83	127
211.66072562358278	211.7419954648526	68	127
211.66072562358278	211.7419954648526	80	127
211.7419954648526	211.84648526077098	74	127
211.7419954648526	211.84648526077098	86	127
211.84648526077098	211.97419501133786	69	127
211.84648526077098	211.97419501133786	81	127
211.97419501133786	212.0902947845805	66	127
211.97419501133786	212.0902947845805	78	127
212.0902947845805	212.20639455782313	74	127
212.0902947845805	212.20639455782313	62	127
212.20639455782313	212.26444444444445	61	127
212.20639455782313	212.26444444444445	73	127
212.3108843537415	212.42698412698414	67	127
212.3108843537415	212.42698412698414	79	127
212.42698412698414	212.54308390022675	78	127
212.42698412698414	212.54308390022675	66	127
212.54308390022675	212.60113378684807	65	127
212.54308390022675	212.60113378684807	77	127
212.60113378684807	212.70562358276644	76	127
212.60113378684807	212.70562358276644	64	127
212.70562358276644	212.79850340136053	71	127
212.70562358276644	212.79850340136053	83	127
212.79850340136053	212.91460317460317	69	127
212.79850340136053	212.91460317460317	81	127
212.91460317460317	213.00748299319727	68	127
212.91460317460317	213.00748299319727	80	127
213.00748299319727	213.10036281179137	67	127
213.00748299319727	213.10036281179137	79	127
213.10036281179137	213.20485260770974	91	127
213.10036281179137	213.20485260770974	79	127
213.20485260770974	213.32095238095238	88	127
213.20485260770974	213.32095238095238	76	127
213.32095238095238	213.41383219954648	73	127
213.32095238095238	213.41383219954648	85	127
213.41383219954648	213.52993197278911	69	127
213.41383219954648	213.52993197278911	81	127
213.52993197278911	213.63442176870748	68	127
213.52993197278911	213.63442176870748	80	127
213.63442176870748	213.75052154195012	79	127
213.63442176870748	213.75052154195012	67	127
213.75052154195012	213.8550113378685	76	127
213.75052154195012	213.8550113378685	64	127
213.8550113378685	213.9711111111111	62	127
213.8550113378685	213.9711111111111	74	127
213.9711111111111	214.06399092970523	65	127
213.9711111111111	214.06399092970523	77	127
214.06399092970523	214.1336507936508	78	127
214.06399092970523	214.1336507936508	66	127
214.1336507936508	214.2265306122449	61	127
214.1336507936508	214.2265306122449	73	127
214.2265306122449	214.319410430839	74	127
214.2265306122449	214.319410430839	62	127
214.319410430839	214.42390022675738	56	127
214.319410430839	214.42390022675738	68	127
214.42390022675738	214.51678004535148	57	127
214.42390022675738	214.51678004535148	69	127
214.51678004535148	214.60965986394558	54	127
214.51678004535148	214.60965986394558	66	127
214.60965986394558	214.73736961451246	50	127
214.60965986394558	214.73736961451246	62	127
215.6661678004535	215.87514739229024	57	127
215.6661678004535	215.87514739229024	81	127
215.6661678004535	215.87514739229024	45	127
216.11895691609976	216.31632653061226	45	127
216.11895691609976	216.31632653061226	81	127
216.11895691609976	216.31632653061226	86	127
216.11895691609976	216.31632653061226	77	127
216.11895691609976	216.31632653061226	74	127
216.11895691609976	216.31632653061226	50	127
216.11895691609976	216.31632653061226	38	127
216.31632653061226	216.47886621315192	77	127
216.31632653061226	216.47886621315192	74	127
216.31632653061226	216.47886621315192	50	127
216.31632653061226	216.47886621315192	45	127
216.31632653061226	216.47886621315192	38	127
216.31632653061226	216.47886621315192	86	127
216.31632653061226	216.47886621315192	81	127
216.47886621315192	216.67623582766439	74	127
216.47886621315192	216.67623582766439	86	127
216.47886621315192	216.67623582766439	81	127
216.47886621315192	216.67623582766439	77	127
216.47886621315192	216.67623582766439	50	127
216.47886621315192	216.67623582766439	45	127
216.47886621315192	216.67623582766439	38	127
216.67623582766439	216.9548752834467	38	127
216.67623582766439	216.9548752834467	77	127
216.67623582766439	216.9548752834467	86	127
216.67623582766439	216.9548752834467	81	127
216.67623582766439	216.9548752834467	74	127
216.67623582766439	216.9548752834467	50	127
216.67623582766439	216.9548752834467	45	127
216.9548752834467	217.1174149659864	81	127
216.9548752834467	217.1174149659864	86	127
216.9548752834467	217.1174149659864	77	127
216.9548752834467	217.1174149659864	74	127
216.9548752834467	217.1174149659864	50	127
216.9548752834467	217.1174149659864	45	127
216.9548752834467	217.1174149659864	38	127
217.1174149659864	217.2799546485261	50	127
217.1174149659864	217.2799546485261	86	127
217.1174149659864	217.2799546485261	81	127
217.1174149659864	217.2799546485261	77	127
217.1174149659864	217.2799546485261	74	127
217.1174149659864	217.2799546485261	45	127
217.1174149659864	217.2799546485261	38	127
217.2799546485261	217.76757369614512	74	127
217.2799546485261	217.76757369614512	86	127
217.2799546485261	217.76757369614512	81	127
217.2799546485261	217.76757369614512	77	127
217.2799546485261	217.76757369614512	50	127
217.2799546485261	217.76757369614512	45	127
217.2799546485261	217.76757369614512	38	127
218.32485260770974	218.51061224489797	38	127
218.32485260770974	218.51061224489797	86	127
218.32485260770974	218.51061224489797	81	127
218.32485260770974	218.51061224489797	77	127
218.32485260770974	218.51061224489797	50	127
218.32485260770974	218.51061224489797	45	127
218.32485260770974	218.51061224489797	74	127
218.51061224489797	218.70798185941044	77	127
218.51061224489797	218.70798185941044	50	127
218.51061224489797	218.70798185941044	45	127
218.51061224489797	218.70798185941044	38	127
218.51061224489797	218.70798185941044	86	127
218.51061224489797	218.70798185941044	81	127
218.51061224489797	218.70798185941044	74	127
218.70798185941044	218.92857142857142	86	127
218.70798185941044	218.92857142857142	81	127
218.70798185941044	218.92857142857142	77	127
218.70798185941044	218.92857142857142	74	127
218.70798185941044	218.92857142857142	50	127
218.70798185941044	218.92857142857142	45	127
218.70798185941044	218.92857142857142	38	127
218.92857142857142	219.13755102040815	86	127
218.92857142857142	219.13755102040815	77	127
218.92857142857142	219.13755102040815	74	127
218.92857142857142	219.13755102040815	50	127
218.92857142857142	219.13755102040815	38	127
218.92857142857142	219.13755102040815	45	127
218.92857142857142	219.13755102040815	81	127
219.13755102040815	219.3117006802721	86	127
219.13755102040815	219.3117006802721	81	127
219.13755102040815	219.3117006802721	77	127
219.13755102040815	219.3117006802721	74	127
219.13755102040815	219.3117006802721	45	127
219.13755102040815	219.3117006802721	38	127
219.13755102040815	219.3117006802721	50	127
219.3117006802721	219.52068027210885	45	127
219.3117006802721	219.52068027210885	86	127
219.3117006802721	219.52068027210885	81	127
219.3117006802721	219.52068027210885	77	127
219.3117006802721	219.52068027210885	74	127
219.3117006802721	219.52068027210885	50	127
219.3117006802721	219.52068027210885	38	127
219.52068027210885	220.05473922902493	45	127
219.52068027210885	220.05473922902493	50	127
219.52068027210885	220.05473922902493	74	127
219.52068027210885	220.05473922902493	77	127
219.52068027210885	220.05473922902493	86	127
219.52068027210885	220.05473922902493	81	127
219.52068027210885	220.05473922902493	38	127
220.49591836734695	220.80938775510205	45	127
220.49591836734695	220.80938775510205	33	127
220.49591836734695	220.80938775510205	91	127
220.49591836734695	220.80938775510205	85	127
220.49591836734695	220.80938775510205	82	127
220.49591836734695	220.80938775510205	79	127
220.49591836734695	220.80938775510205	88	127
221.0415873015873	221.29700680272109	45	127
221.0415873015873	221.29700680272109	33	127
221.0415873015873	221.29700680272109	89	127
221.0415873015873	221.29700680272109	77	127
221.0415873015873	221.29700680272109	81	127
221.0415873015873	221.29700680272109	86	127
221.55242630385487	221.8542857142857	45	127
221.55242630385487	221.8542857142857	33	127
221.55242630385487	221.8542857142857	85	127
221.55242630385487	221.8542857142857	79	127
221.55242630385487	221.8542857142857	76	127
221.55242630385487	221.8542857142857	88	127
222.09809523809523	222.353514739229	45	127
222.09809523809523	222.353514739229	33	127
222.09809523809523	222.353514739229	86	127
222.09809523809523	222.353514739229	74	127
222.09809523809523	222.353514739229	83	127
222.09809523809523	222.353514739229	77	127
222.6785941043084	222.85274376417235	85	127
222.6785941043084	222.85274376417235	81	127
222.6785941043084	222.85274376417235	76	127
222.6785941043084	222.85274376417235	73	127
222.6785941043084	222.85274376417235	33	127
222.85274376417235	223.02689342403627	81	127
222.85274376417235	223.02689342403627	73	127
222.85274376417235	223.02689342403627	69	127
222.85274376417235	223.02689342403627	37	127
222.85274376417235	223.02689342403627	76	127
223.02689342403627	223.20104308390023	81	127
223.02689342403627	223.20104308390023	76	127
223.02689342403627	223.20104308390023	69	127
223.02689342403627	223.20104308390023	40	127
223.02689342403627	223.20104308390023	73	127
223.20104308390023	223.37519274376416	81	127
223.20104308390023	223.37519274376416	76	127
223.20104308390023	223.37519274376416	73	127
223.20104308390023	223.37519274376416	45	127
223.20104308390023	223.37519274376416	69	127
223.37519274376416	223.57256235827666	76	127
223.37519274376416	223.57256235827666	73	127
223.37519274376416	223.57256235827666	69	127
223.37519274376416	223.57256235827666	49	127
223.37519274376416	223.57256235827666	81	127
223.57256235827666	223.74671201814058	81	127
223.57256235827666	223.74671201814058	73	127
223.57256235827666	223.74671201814058	69	127
223.57256235827666	223.74671201814058	52	127
223.57256235827666	223.74671201814058	76	127
223.74671201814058	224.2807709750567	57	127
223.74671201814058	224.2807709750567	73	127
223.74671201814058	224.2807709750567	76	127
223.74671201814058	224.2807709750567	69	127
223.74671201814058	224.2807709750567	81	127
224.2807709750567	224.83804988662132	72	127
224.2807709750567	224.83804988662132	60	127
224.83804988662132	225.02380952380952	53	127
224.83804988662132	225.02380952380952	60	127
224.83804988662132	225.02380952380952	69	127
224.83804988662132	225.02380952380952	77	127
225.02380952380952	225.19795918367348	77	127
225.02380952380952	225.19795918367348	53	127
225.02380952380952	225.19795918367348	69	127
225.02380952380952	225.19795918367348	60	127
225.19795918367348	225.36049886621316	60	127
225.19795918367348	225.36049886621316	53	127
225.19795918367348	225.36049886621316	69	127
225.19795918367348	225.36049886621316	77	127
225.36049886621316	225.55786848072563	60	127
225.36049886621316	225.55786848072563	53	127
225.36049886621316	225.55786848072563	69	127
225.36049886621316	225.55786848072563	77	127
225.55786848072563	225.74362811791383	60	127
225.55786848072563	225.74362811791383	53	127
225.55786848072563	225.74362811791383	77	127
225.55786848072563	225.74362811791383	69	127
225.74362811791383	225.9177777777778	69	127
225.74362811791383	225.9177777777778	53	127
225.74362811791383	225.9177777777778	77	127
225.74362811791383	225.9177777777778	60	127
225.9177777777778	226.4402267573696	77	127
225.9177777777778	226.4402267573696	60	127
225.9177777777778	226.4402267573696	53	127
225.9177777777778	226.4402267573696	69	127
227.02072562358276	227.20648526077096	53	127
227.02072562358276	227.20648526077096	69	127
227.02072562358276	227.20648526077096	77	127
227.02072562358276	227.20648526077096	60	127
227.20648526077096	227.3922448979592	69	127
227.20648526077096	227.3922448979592	60	127
227.20648526077096	227.3922448979592	53	127
227.20648526077096	227.3922448979592	77	127
227.3922448979592	227.5780045351474	53	127
227.3922448979592	227.5780045351474	69	127
227.3922448979592	227.5780045351474	60	127
227.3922448979592	227.5780045351474	77	127
227.5780045351474	227.74054421768707	60	127
227.5780045351474	227.74054421768707	53	127
227.5780045351474	227.74054421768707	69	127
227.5780045351474	227.74054421768707	77	127
227.74054421768707	227.91469387755103	60	127
227.74054421768707	227.91469387755103	69	127
227.74054421768707	227.91469387755103	77	127
227.74054421768707	227.91469387755103	53	127
227.91469387755103	228.10045351473923	69	127
227.91469387755103	228.10045351473923	60	127
227.91469387755103	228.10045351473923	53	127
227.91469387755103	228.10045351473923	77	127
228.10045351473923	228.59968253968253	77	127
228.10045351473923	228.59968253968253	69	127
228.10045351473923	228.59968253968253	60	127
228.10045351473923	228.59968253968253	53	127
229.13374149659865	229.70263038548754	69	127
229.13374149659865	229.5168707482993	72	127
229.13374149659865	231.33963718820863	60	127
229.31950113378684	229.5168707482993	84	127
229.5168707482993	229.70263038548754	72	127
229.70263038548754	229.88839002267574	74	127
229.70263038548754	230.25990929705216	68	127
229.70263038548754	230.25990929705216	71	127
229.88839002267574	230.05092970521542	86	127
230.05092970521542	230.25990929705216	74	127
230.25990929705216	230.82879818594105	67	127
230.25990929705216	230.82879818594105	70	127
230.25990929705216	230.4340589569161	76	127
230.4340589569161	230.59659863945578	88	127
230.59659863945578	230.82879818594105	76	127
230.82879818594105	231.33963718820863	70	127
230.82879818594105	230.9913378684807	79	127
230.82879818594105	231.33963718820863	64	127
230.9913378684807	231.1538775510204	91	127
231.1538775510204	231.26997732426304	79	127
231.26997732426304	231.33963718820863	81	127
231.33963718820863	231.52539682539683	93	127
231.33963718820863	231.8736961451247	65	127
231.33963718820863	231.8736961451247	69	127
231.52539682539683	231.6879365079365	89	127
231.6879365079365	231.8736961451247	84	127
231.8736961451247	232.11750566893423	72	127
231.8736961451247	232.38453514739228	60	127
231.8736961451247	232.38453514739228	64	127
231.8736961451247	232.0362358276644	83	127
232.0362358276644	232.1987755102041	82	127
232.11750566893423	232.38453514739228	70	127
232.1987755102041	232.38453514739228	79	127
232.38453514739228	232.96503401360545	77	127
232.38453514739228	232.96503401360545	69	127
232.38453514739228	232.96503401360545	65	127
232.96503401360545	233.255283446712	57	127
232.96503401360545	233.255283446712	45	127
232.96503401360545	233.255283446712	81	127
233.61519274376417	233.78934240362813	45	127
233.61519274376417	233.78934240362813	81	127
233.61519274376417	233.78934240362813	77	127
233.61519274376417	233.78934240362813	74	127
233.61519274376417	233.78934240362813	38	127
233.61519274376417	233.78934240362813	86	127
233.61519274376417	233.78934240362813	50	127
233.78934240362813	233.96349206349205	77	127
233.78934240362813	233.96349206349205	74	127
233.78934240362813	233.96349206349205	45	127
233.78934240362813	233.96349206349205	38	127
233.78934240362813	233.96349206349205	86	127
233.78934240362813	233.96349206349205	81	127
233.78934240362813	233.96349206349205	50	127
233.96349206349205	234.1724716553288	86	127
233.96349206349205	234.1724716553288	81	127
233.96349206349205	234.1724716553288	77	127
233.96349206349205	234.1724716553288	74	127
233.96349206349205	234.1724716553288	50	127
233.96349206349205	234.1724716553288	45	127
233.96349206349205	234.1724716553288	38	127
234.1724716553288	234.36984126984126	86	127
234.1724716553288	234.36984126984126	81	127
234.1724716553288	234.36984126984126	74	127
234.1724716553288	234.36984126984126	50	127
234.1724716553288	234.36984126984126	45	127
234.1724716553288	234.36984126984126	77	127
234.1724716553288	234.36984126984126	38	127
234.36984126984126	234.68331065759637	77	127
234.36984126984126	234.68331065759637	86	127
234.36984126984126	234.68331065759637	81	127
234.36984126984126	234.68331065759637	74	127
234.36984126984126	234.68331065759637	50	127
234.36984126984126	234.68331065759637	38	127
234.36984126984126	234.68331065759637	45	127
234.68331065759637	234.8690702947846	45	127
234.68331065759637	234.8690702947846	38	127
234.68331065759637	234.8690702947846	81	127
234.68331065759637	234.8690702947846	77	127
234.68331065759637	234.8690702947846	50	127
234.68331065759637	234.8690702947846	86	127
234.68331065759637	234.8690702947846	74	127
234.8690702947846	235.43795918367346	45	127
234.8690702947846	235.43795918367346	38	127
234.8690702947846	235.43795918367346	74	127
234.8690702947846	235.43795918367346	77	127
234.8690702947846	235.43795918367346	81	127
234.8690702947846	235.43795918367346	86	127
234.8690702947846	235.43795918367346	50	127
235.98362811791384	236.16938775510204	81	127
235.98362811791384	236.16938775510204	86	127
235.98362811791384	236.16938775510204	77	127
235.98362811791384	236.16938775510204	74	127
235.98362811791384	236.16938775510204	50	127
235.98362811791384	236.16938775510204	45	127
235.98362811791384	236.16938775510204	38	127
236.16938775510204	236.33192743764172	74	127
236.16938775510204	236.33192743764172	45	127
236.16938775510204	236.33192743764172	38	127
236.16938775510204	236.33192743764172	77	127
236.16938775510204	236.33192743764172	86	127
236.16938775510204	236.33192743764172	50	127
236.16938775510204	236.33192743764172	81	127
236.33192743764172	236.50607709750568	86	127
236.33192743764172	236.50607709750568	81	127
236.33192743764172	236.50607709750568	74	127
236.33192743764172	236.50607709750568	50	127
236.33192743764172	236.50607709750568	45	127
236.33192743764172	236.50607709750568	38	127
236.33192743764172	236.50607709750568	77	127
236.50607709750568	236.6570068027211	77	127
236.50607709750568	236.6570068027211	81	127
236.50607709750568	236.6570068027211	74	127
236.50607709750568	236.6570068027211	50	127
236.50607709750568	236.6570068027211	45	127
236.50607709750568	236.6570068027211	38	127
236.50607709750568	236.6570068027211	86	127
236.6570068027211	236.85437641723357	81	127
236.6570068027211	236.85437641723357	77	127
236.6570068027211	236.85437641723357	74	127
236.6570068027211	236.85437641723357	45	127
236.6570068027211	236.85437641723357	38	127
236.6570068027211	236.85437641723357	50	127
236.6570068027211	236.85437641723357	86	127
236.85437641723357	237.0285260770975	50	127
236.85437641723357	237.0285260770975	86	127
236.85437641723357	237.0285260770975	81	127
236.85437641723357	237.0285260770975	38	127
236.85437641723357	237.0285260770975	45	127
236.85437641723357	237.0285260770975	74	127
236.85437641723357	237.0285260770975	77	127
237.0285260770975	237.5625850340136	86	127
237.0285260770975	237.5625850340136	81	127
237.0285260770975	237.5625850340136	74	127
237.0285260770975	237.5625850340136	50	127
237.0285260770975	237.5625850340136	45	127
237.0285260770975	237.5625850340136	38	127
237.0285260770975	237.5625850340136	77	127
238.0618140589569	238.36367346938775	88	127
238.0618140589569	238.36367346938775	45	127
238.0618140589569	238.36367346938775	33	127
238.0618140589569	238.36367346938775	85	127
238.0618140589569	238.36367346938775	82	127
238.0618140589569	238.36367346938775	79	127
238.0618140589569	238.36367346938775	91	127
238.6307029478458	238.96739229024942	45	127
238.6307029478458	238.96739229024942	33	127
238.6307029478458	238.96739229024942	89	127
238.6307029478458	238.96739229024942	77	127
238.6307029478458	238.96739229024942	81	127
238.6307029478458	238.96739229024942	86	127
239.23442176870748	239.52467120181407	76	127
239.23442176870748	239.52467120181407	45	127
239.23442176870748	239.52467120181407	88	127
239.23442176870748	239.52467120181407	85	127
239.23442176870748	239.52467120181407	79	127
239.23442176870748	239.52467120181407	33	127
239.7917006802721	240.05873015873016	33	127
239.7917006802721	240.05873015873016	86	127
239.7917006802721	240.05873015873016	74	127
239.7917006802721	240.05873015873016	77	127
239.7917006802721	240.05873015873016	83	127
239.7917006802721	240.05873015873016	45	127
240.31414965986394	240.52312925170068	81	127
240.31414965986394	240.52312925170068	76	127
240.31414965986394	240.52312925170068	73	127
240.31414965986394	240.52312925170068	33	127
240.31414965986394	240.52312925170068	85	127
240.52312925170068	240.72049886621315	81	127
240.52312925170068	240.72049886621315	76	127
240.52312925170068	240.72049886621315	73	127
240.52312925170068	240.72049886621315	69	127
240.52312925170068	240.72049886621315	37	127
240.72049886621315	240.88303854875284	81	127
240.72049886621315	240.88303854875284	76	127
240.72049886621315	240.88303854875284	69	127
240.72049886621315	240.88303854875284	40	127
240.72049886621315	240.88303854875284	73	127
240.88303854875284	241.06879818594103	81	127
240.88303854875284	241.06879818594103	76	127
240.88303854875284	241.06879818594103	73	127
240.88303854875284	241.06879818594103	45	127
240.88303854875284	241.06879818594103	69	127
241.06879818594103	241.242947845805	81	127
241.06879818594103	241.242947845805	76	127
241.06879818594103	241.242947845805	73	127
241.06879818594103	241.242947845805	69	127
241.06879818594103	241.242947845805	49	127
241.242947845805	241.41709750566892	81	127
241.242947845805	241.41709750566892	73	127
241.242947845805	241.41709750566892	69	127
241.242947845805	241.41709750566892	52	127
241.242947845805	241.41709750566892	76	127
241.41709750566892	242.02081632653062	57	127
241.41709750566892	242.02081632653062	73	127
241.41709750566892	242.02081632653062	76	127
241.41709750566892	242.02081632653062	69	127
241.41709750566892	242.02081632653062	81	127
242.02081632653062	242.5548752834467	72	127
242.02081632653062	242.5548752834467	60	127
242.5548752834467	242.82190476190476	77	127
242.5548752834467	242.82190476190476	60	127
242.5548752834467	242.82190476190476	69	127
242.5548752834467	242.82190476190476	53	127
242.82190476190476	242.99605442176872	69	127
242.82190476190476	242.99605442176872	60	127
242.82190476190476	242.99605442176872	77	127
242.82190476190476	242.99605442176872	53	127
242.99605442176872	243.15859410430838	77	127
242.99605442176872	243.15859410430838	60	127
242.99605442176872	243.15859410430838	53	127
242.99605442176872	243.15859410430838	69	127
243.15859410430838	243.35596371882087	60	127
243.15859410430838	243.35596371882087	53	127
243.15859410430838	243.35596371882087	69	127
243.15859410430838	243.35596371882087	77	127
243.35596371882087	243.54172335600907	60	127
243.35596371882087	243.54172335600907	53	127
243.35596371882087	243.54172335600907	77	127
243.35596371882087	243.54172335600907	69	127
243.54172335600907	243.70426303854876	77	127
243.54172335600907	243.70426303854876	60	127
243.54172335600907	243.70426303854876	53	127
243.54172335600907	243.70426303854876	69	127
243.70426303854876	244.2499319727891	77	127
243.70426303854876	244.2499319727891	60	127
243.70426303854876	244.2499319727891	53	127
243.70426303854876	244.2499319727891	69	127
244.74916099773242	244.92331065759637	53	127
244.74916099773242	244.92331065759637	77	127
244.74916099773242	244.92331065759637	60	127
244.74916099773242	244.92331065759637	69	127
244.92331065759637	245.08585034013606	77	127
244.92331065759637	245.08585034013606	60	127
244.92331065759637	245.08585034013606	53	127
244.92331065759637	245.08585034013606	69	127
245.08585034013606	245.24839002267575	53	127
245.08585034013606	245.24839002267575	69	127
245.08585034013606	245.24839002267575	77	127
245.08585034013606	245.24839002267575	60	127
245.24839002267575	245.43414965986395	60	127
245.24839002267575	245.43414965986395	53	127
245.24839002267575	245.43414965986395	77	127
245.24839002267575	245.43414965986395	69	127
245.43414965986395	245.59668934240364	60	127
245.43414965986395	245.59668934240364	69	127
245.43414965986395	245.59668934240364	77	127
245.43414965986395	245.59668934240364	53	127
245.59668934240364	245.75922902494332	53	127
245.59668934240364	245.75922902494332	69	127
245.59668934240364	245.75922902494332	77	127
245.59668934240364	245.75922902494332	60	127
245.75922902494332	246.3861678004535	77	127
245.75922902494332	246.3861678004535	69	127
245.75922902494332	246.3861678004535	60	127
245.75922902494332	246.3861678004535	53	127
246.88539682539684	247.55877551020407	69	127
246.88539682539684	247.34979591836733	72	127
246.88539682539684	249.11451247165533	60	127
247.07115646258504	247.34979591836733	84	127
247.34979591836733	247.55877551020407	72	127
247.55877551020407	247.73292517006803	74	127
247.55877551020407	248.08122448979591	68	127
247.55877551020407	248.08122448979591	71	127
247.73292517006803	247.907074829932	86	127
247.907074829932	248.08122448979591	74	127
248.08122448979591	248.61528344671203	67	127
248.08122448979591	248.61528344671203	70	127
248.08122448979591	248.2669841269841	76	127
248.2669841269841	248.41791383219956	88	127
248.41791383219956	248.61528344671203	76	127
248.61528344671203	248.75460317460318	79	127
248.61528344671203	249.11451247165533	70	127
248.61528344671203	249.11451247165533	64	127
248.75460317460318	248.94036281179137	91	127
248.94036281179137	249.056462585034	79	127
249.056462585034	249.11451247165533	81	127
249.11451247165533	249.64857142857142	65	127
249.11451247165533	249.64857142857142	69	127
249.11451247165533	249.27705215419502	93	127
249.27705215419502	249.46281179138322	89	127
249.46281179138322	249.64857142857142	84	127
249.64857142857142	249.82272108843537	83	127
249.64857142857142	249.938820861678	72	127
249.64857142857142	250.2174603174603	60	127
249.64857142857142	250.2174603174603	64	127
249.82272108843537	250.0317006802721	82	127
249.938820861678	250.2174603174603	70	127
250.0317006802721	250.2174603174603	79	127
250.2174603174603	250.72829931972788	69	127
250.2174603174603	250.72829931972788	77	127
250.2174603174603	250.72829931972788	65	127
250.72829931972788	250.7863492063492	60	127
250.72829931972788	250.7863492063492	72	127
250.7863492063492	250.8560090702948	62	127
250.7863492063492	250.8560090702948	74	127
250.8560090702948	250.97210884353743	72	127
250.8560090702948	250.97210884353743	60	127
250.97210884353743	251.08820861678004	62	127
250.97210884353743	251.08820861678004	74	127
251.08820861678004	251.14625850340136	60	127
251.08820861678004	251.14625850340136	72	127
251.14625850340136	251.20430839002267	62	127
251.14625850340136	251.20430839002267	74	127
251.20430839002267	251.29718820861677	59	127
251.20430839002267	251.29718820861677	71	127
251.29718820861677	251.3552380952381	72	127
251.29718820861677	251.3552380952381	60	127
251.3552380952381	251.43650793650792	82	127
251.3552380952381	251.43650793650792	70	127
251.5409977324263	251.63387755102042	69	127
251.5409977324263	251.63387755102042	81	127
251.6919274376417	251.79641723356008	67	127
251.6919274376417	251.79641723356008	79	127
251.8892970521542	251.97056689342404	65	127
251.8892970521542	251.97056689342404	77	127
252.05183673469386	252.15632653061223	64	127
252.05183673469386	252.15632653061223	76	127
252.22598639455782	252.2956462585034	74	127
252.22598639455782	252.2956462585034	62	127
252.37691609977324	252.91097505668935	72	127
252.37691609977324	252.91097505668935	60	127
252.91097505668935	252.96902494331067	64	127
252.91097505668935	252.96902494331067	76	127
252.96902494331067	253.0502947845805	77	127
252.96902494331067	253.0502947845805	65	127
253.0502947845805	253.1199546485261	64	127
253.0502947845805	253.1199546485261	76	127
253.1199546485261	253.18961451247165	65	127
253.1199546485261	253.18961451247165	77	127
253.18961451247165	253.24766439909297	64	127
253.18961451247165	253.24766439909297	76	127
253.24766439909297	253.3057142857143	65	127
253.24766439909297	253.3057142857143	77	127
253.3057142857143	253.38698412698412	74	127
253.3057142857143	253.38698412698412	62	127
253.38698412698412	253.44503401360544	76	127
253.38698412698412	253.44503401360544	64	127
253.44503401360544	253.5263038548753	77	127
253.44503401360544	253.5263038548753	65	127
253.6191836734694	253.70045351473922	67	127
253.6191836734694	253.70045351473922	79	127
253.79333333333332	253.87460317460318	76	127
253.79333333333332	253.87460317460318	64	127
253.955873015873	254.03714285714287	65	127
253.955873015873	254.03714285714287	77	127
254.1184126984127	254.19968253968253	81	127
254.1184126984127	254.19968253968253	69	127
254.29256235827665	254.38544217687075	86	127
254.29256235827665	254.38544217687075	74	127
254.47832199546485	255.0007709750567	84	127
254.47832199546485	255.0007709750567	72	127
255.0007709750567	255.07043083900226	81	127
255.0007709750567	255.07043083900226	69	127
255.07043083900226	255.16331065759638	70	127
255.07043083900226	255.16331065759638	82	127
255.16331065759638	255.22136054421767	69	127
255.16331065759638	255.22136054421767	81	127
255.22136054421767	255.29102040816326	70	127
255.22136054421767	255.29102040816326	82	127
255.29102040816326	255.38390022675736	81	127
255.29102040816326	255.38390022675736	69	127
255.38390022675736	255.44195011337868	82	127
255.38390022675736	255.44195011337868	70	127
255.44195011337868	255.54643990929705	79	127
255.44195011337868	255.54643990929705	67	127
255.54643990929705	255.60448979591837	69	127
255.54643990929705	255.60448979591837	81	127
255.60448979591837	255.77863945578233	72	127
255.60448979591837	255.77863945578233	84	127
255.77863945578233	255.9760090702948	70	127
255.77863945578233	255.9760090702948	82	127
255.9760090702948	256.05727891156465	69	127
255.9760090702948	256.05727891156465	81	127
256.15015873015875	256.3126984126984	67	127
256.15015873015875	256.3126984126984	79	127
256.3126984126984	256.48684807256234	81	127
256.3126984126984	256.48684807256234	69	127
256.48684807256234	256.5681179138322	65	127
256.48684807256234	256.5681179138322	77	127
256.64938775510205	257.1370068027211	76	127
256.64938775510205	257.1370068027211	64	127
257.1370068027211	257.19503401360544	57	127
257.1370068027211	257.19503401360544	69	127
257.19503401360544	257.264716553288	70	127
257.19503401360544	257.264716553288	58	127
257.264716553288	257.2995238095238	57	127
257.264716553288	257.2995238095238	69	127
257.2995238095238	257.3575963718821	70	127
257.2995238095238	257.3575963718821	58	127
257.3575963718821	257.4388662131519	69	127
257.3575963718821	257.4388662131519	57	127
257.4388662131519	257.4968934240363	70	127
257.4388662131519	257.4968934240363	58	127
257.4968934240363	257.56657596371883	55	127
257.4968934240363	257.56657596371883	67	127
257.56657596371883	257.65945578231293	57	127
257.56657596371883	257.65945578231293	69	127
257.65945578231293	257.8219954648526	69	127
257.65945578231293	257.8219954648526	57	127
257.8219954648526	257.9961451247166	72	127
257.8219954648526	257.9961451247166	60	127
257.9961451247166	258.0774149659864	74	127
257.9961451247166	258.0774149659864	62	127
258.15868480725624	258.33283446712016	64	127
258.15868480725624	258.33283446712016	76	127
258.33283446712016	258.4837641723356	65	127
258.33283446712016	258.4837641723356	77	127
258.4837641723356	258.588253968254	79	127
258.4837641723356	258.588253968254	67	127
258.6695238095238	259.2035827664399	69	127
258.6695238095238	259.2035827664399	81	127
260.1555782312925	260.28331065759636	86	127
260.1555782312925	260.28331065759636	70	127
260.1555782312925	260.28331065759636	74	127
260.1555782312925	260.28331065759636	77	127
260.42263038548754	260.62	86	127
260.42263038548754	260.62	77	127
260.42263038548754	260.62	74	127
260.42263038548754	260.62	70	127
260.79414965986393	260.9334693877551	77	127
260.79414965986393	260.9334693877551	70	127
260.79414965986393	260.9334693877551	74	127
260.79414965986393	260.9334693877551	86	127
261.36303854875285	261.51396825396824	87	127
261.36303854875285	261.51396825396824	78	127
261.36303854875285	261.51396825396824	69	127
261.36303854875285	261.51396825396824	72	127
261.6532879818594	261.7577777777778	87	127
261.6532879818594	261.7577777777778	72	127
261.6532879818594	261.7577777777778	69	127
261.6532879818594	261.7577777777778	78	127
261.8854875283447	262.0596371882086	72	127
261.8854875283447	262.0596371882086	69	127
261.8854875283447	262.0596371882086	78	127
261.8854875283447	262.0596371882086	87	127
262.4775963718821	262.605306122449	79	127
262.4775963718821	262.605306122449	67	127
262.4775963718821	262.605306122449	70	127
262.4775963718821	262.605306122449	86	127
262.7446258503401	262.90716553287984	79	127
262.7446258503401	262.90716553287984	86	127
262.7446258503401	262.90716553287984	70	127
262.7446258503401	262.90716553287984	67	127
263.13936507936506	263.26707482993197	70	127
263.13936507936506	263.26707482993197	86	127
263.13936507936506	263.26707482993197	79	127
263.13936507936506	263.26707482993197	67	127
263.6385714285714	263.77791383219954	74	127
263.6385714285714	263.77791383219954	55	127
263.6385714285714	263.77791383219954	67	127
263.6385714285714	263.77791383219954	62	127
263.6385714285714	263.77791383219954	70	127
263.6385714285714	263.77791383219954	82	127
263.928843537415	264.0681632653061	62	127
263.928843537415	264.0681632653061	57	127
263.928843537415	264.0681632653061	72	127
263.928843537415	264.0681632653061	74	127
263.928843537415	264.0681632653061	66	127
263.928843537415	264.0681632653061	81	127
264.21909297052156	264.3932426303855	74	127
264.21909297052156	264.3932426303855	58	127
264.21909297052156	264.3932426303855	67	127
264.21909297052156	264.3932426303855	62	127
264.21909297052156	264.3932426303855	79	127
264.21909297052156	264.3932426303855	70	127
264.81120181405896	265.078231292517	74	127
264.81120181405896	265.078231292517	65	127
264.81120181405896	265.078231292517	62	127
264.81120181405896	265.078231292517	57	127
264.81120181405896	265.078231292517	69	127
264.81120181405896	265.078231292517	77	127
265.2407709750567	265.35687074829934	62	127
265.2407709750567	265.35687074829934	77	127
265.2407709750567	265.35687074829934	74	127
265.2407709750567	265.35687074829934	57	127
265.2407709750567	265.35687074829934	69	127
265.2407709750567	265.35687074829934	65	127
265.4845804988662	265.60068027210883	65	127
265.4845804988662	265.60068027210883	74	127
265.4845804988662	265.60068027210883	69	127
265.4845804988662	265.60068027210883	77	127
265.4845804988662	265.60068027210883	62	127
265.4845804988662	265.60068027210883	57	127
265.98378684807255	266.1115192743764	73	127
265.98378684807255	266.1115192743764	64	127
265.98378684807255	266.1115192743764	57	127
265.98378684807255	266.1115192743764	67	127
266.2392290249433	266.3785487528345	67	127
266.2392290249433	266.3785487528345	57	127
266.2392290249433	266.3785487528345	64	127
266.2392290249433	266.3785487528345	73	127
266.5178684807256	266.6571882086168	73	127
266.5178684807256	266.6571882086168	64	127
266.5178684807256	266.6571882086168	57	127
266.5178684807256	266.6571882086168	67	127
267.0983673469388	267.2376870748299	65	127
267.0983673469388	267.2376870748299	57	127
267.0983673469388	267.2376870748299	62	127
267.0983673469388	267.2376870748299	74	127
267.0983673469388	267.2376870748299	50	127
267.3770068027211	267.49310657596374	50	127
267.3770068027211	267.49310657596374	65	127
267.3770068027211	267.49310657596374	62	127
267.3770068027211	267.49310657596374	74	127
267.3770068027211	267.49310657596374	57	127
267.6092063492064	267.77174603174603	74	127
267.6092063492064	267.77174603174603	65	127
267.6092063492064	267.77174603174603	57	127
267.6092063492064	267.77174603174603	50	127
267.6092063492064	267.77174603174603	62	127
268.35224489795917	268.4799546485261	75	127
268.35224489795917	268.4799546485261	65	127
268.35224489795917	268.4799546485261	69	127
268.35224489795917	268.4799546485261	53	127
268.35224489795917	268.4799546485261	60	127
268.35224489795917	268.4799546485261	48	127
268.61927437641725	268.74696145124716	53	127
268.61927437641725	268.74696145124716	75	127
268.61927437641725	268.74696145124716	69	127
268.61927437641725	268.74696145124716	60	127
268.61927437641725	268.74696145124716	48	127
268.61927437641725	268.74696145124716	65	127
268.93274376417236	269.0604535147392	65	127
268.93274376417236	269.0604535147392	69	127
268.93274376417236	269.0604535147392	75	127
268.93274376417236	269.0604535147392	48	127
268.93274376417236	269.0604535147392	53	127
268.93274376417236	269.0604535147392	60	127
269.53646258503403	269.72222222222223	65	127
269.53646258503403	269.72222222222223	70	127
269.53646258503403	269.72222222222223	53	127
269.53646258503403	269.72222222222223	46	127
269.53646258503403	269.72222222222223	58	127
269.53646258503403	269.72222222222223	74	127
269.8615419501134	270.0008616780045	70	127
269.8615419501134	270.0008616780045	74	127
269.8615419501134	270.0008616780045	65	127
269.8615419501134	270.0008616780045	46	127
269.8615419501134	270.0008616780045	53	127
269.8615419501134	270.0008616780045	58	127
270.1401814058957	270.3607709750567	65	127
270.1401814058957	270.3607709750567	70	127
270.1401814058957	270.3607709750567	74	127
270.1401814058957	270.3607709750567	58	127
270.1401814058957	270.3607709750567	53	127
270.1401814058957	270.3607709750567	46	127
270.79031746031745	270.94126984126984	66	127
270.79031746031745	270.94126984126984	57	127
270.79031746031745	270.94126984126984	60	127
270.79031746031745	270.94126984126984	75	127
271.06897959183675	271.20829931972787	66	127
271.06897959183675	271.20829931972787	75	127
271.06897959183675	271.20829931972787	57	127
271.06897959183675	271.20829931972787	60	127
271.3592290249433	271.4985487528345	75	127
271.3592290249433	271.4985487528345	60	127
271.3592290249433	271.4985487528345	57	127
271.3592290249433	271.4985487528345	66	127
271.962947845805	272.1254648526077	58	127
271.962947845805	272.1254648526077	74	127
271.962947845805	272.1254648526077	62	127
271.962947845805	272.1254648526077	67	127
272.34607709750566	272.48539682539683	58	127
272.34607709750566	272.48539682539683	67	127
272.34607709750566	272.48539682539683	62	127
272.34607709750566	272.48539682539683	74	127
272.624693877551	272.79886621315194	74	127
272.624693877551	272.79886621315194	58	127
272.624693877551	272.79886621315194	62	127
272.624693877551	272.79886621315194	67	127
273.1936054421769	273.39097505668934	58	127
273.1936054421769	273.39097505668934	50	127
273.1936054421769	273.39097505668934	55	127
273.1936054421769	273.39097505668934	70	127
273.1936054421769	273.39097505668934	62	127
273.1936054421769	273.39097505668934	43	127
273.51868480725625	273.6579818594104	54	127
273.51868480725625	273.6579818594104	45	127
273.51868480725625	273.6579818594104	62	127
273.51868480725625	273.6579818594104	69	127
273.51868480725625	273.6579818594104	50	127
273.51868480725625	273.6579818594104	60	127
273.79732426303855	273.92503401360545	50	127
273.79732426303855	273.92503401360545	67	127
273.79732426303855	273.92503401360545	58	127
273.79732426303855	273.92503401360545	62	127
273.79732426303855	273.92503401360545	55	127
273.79732426303855	273.92503401360545	46	127
274.3546031746032	274.48231292517005	45	127
274.3546031746032	274.48231292517005	65	127
274.3546031746032	274.48231292517005	57	127
274.3546031746032	274.48231292517005	62	127
274.3546031746032	274.48231292517005	53	127
274.3546031746032	274.48231292517005	50	127
274.61002267573696	274.74934240362813	65	127
274.61002267573696	274.74934240362813	50	127
274.61002267573696	274.74934240362813	45	127
274.61002267573696	274.74934240362813	62	127
274.61002267573696	274.74934240362813	53	127
274.61002267573696	274.74934240362813	57	127
274.9002721088435	275.1673015873016	65	127
274.9002721088435	275.1673015873016	62	127
274.9002721088435	275.1673015873016	53	127
274.9002721088435	275.1673015873016	57	127
274.9002721088435	275.1673015873016	50	127
274.9002721088435	275.1673015873016	45	127
275.6665306122449	275.8058276643991	55	127
275.6665306122449	275.8058276643991	57	127
275.6665306122449	275.8058276643991	52	127
275.6665306122449	275.8058276643991	45	127
275.6665306122449	275.8058276643991	61	127
275.98	276.1309297052154	57	127
275.98	276.1309297052154	45	127
275.98	276.1309297052154	52	127
275.98	276.1309297052154	61	127
275.98	276.1309297052154	55	127
276.2586394557823	276.4443990929705	55	127
276.2586394557823	276.4443990929705	45	127
276.2586394557823	276.4443990929705	52	127
276.2586394557823	276.4443990929705	61	127
276.2586394557823	276.4443990929705	57	127
276.92038548752834	277.1177777777778	57	127
276.92038548752834	277.1177777777778	53	127
276.92038548752834	277.1177777777778	50	127
276.92038548752834	277.1177777777778	38	127
276.92038548752834	277.1177777777778	62	127
277.2570975056689	277.524126984127	53	127
277.2570975056689	277.524126984127	57	127
277.2570975056689	277.524126984127	38	127
277.2570975056689	277.524126984127	50	127
277.2570975056689	277.524126984127	62	127
277.6750566893424	277.8027664399093	50	127
277.6750566893424	277.8027664399093	62	127
277.6750566893424	277.8027664399093	57	127
277.6750566893424	277.8027664399093	38	127
277.6750566893424	277.8027664399093	53	127
277.91886621315194	278.4645124716553	57	127
277.91886621315194	278.4645124716553	53	127
277.91886621315194	278.4645124716553	38	127
277.91886621315194	278.4645124716553	50	127
277.91886621315194	278.4645124716553	62	127
291.52575963718823	292.80285714285714	82	127
291.52575963718823	292.80285714285714	70	127
292.80285714285714	292.9421768707483	82	127
292.80285714285714	292.9421768707483	70	127
292.9421768707483	293.99866213151927	73	127
292.9421768707483	293.99866213151927	85	127
293.99866213151927	294.19605442176874	73	127
293.99866213151927	294.19605442176874	85	127
294.19605442176874	295.577641723356	92	127
294.19605442176874	295.577641723356	80	127
295.577641723356	295.82145124716556	81	127
295.577641723356	295.82145124716556	93	127
295.82145124716556	295.9956009070295	84	127
295.82145124716556	295.9956009070295	96	127
295.9956009070295	296.1697505668934	82	127
295.9956009070295	296.1697505668934	94	127
296.1697505668934	296.35548752834467	93	127
296.1697505668934	296.35548752834467	81	127
296.35548752834467	296.55285714285714	79	127
296.35548752834467	296.55285714285714	91	127
296.55285714285714	296.7502494331066	89	127
296.55285714285714	296.7502494331066	77	127
296.7502494331066	296.9360090702948	76	127
296.7502494331066	296.9360090702948	88	127
296.9360090702948	297.121768707483	86	127
296.9360090702948	297.121768707483	74	127
297.121768707483	297.2959183673469	84	127
297.121768707483	297.2959183673469	72	127
297.2959183673469	297.4932879818594	71	127
297.2959183673469	297.4932879818594	83	127
297.4932879818594	297.70226757369613	86	127
297.4932879818594	297.70226757369613	74	127
297.70226757369613	297.8880045351474	84	127
297.70226757369613	297.8880045351474	72	127
297.8880045351474	298.51496598639454	65	127
297.8880045351474	298.51496598639454	77	127
312.11024943310656	313.41056689342406	70	127
312.11024943310656	313.41056689342406	82	127
313.41056689342406	313.59632653061226	70	127
313.41056689342406	313.59632653061226	82	127
313.59632653061226	314.5715646258503	73	127
313.59632653061226	314.5715646258503	85	127
314.5715646258503	314.7573015873016	85	127
314.5715646258503	314.7573015873016	73	127
314.7573015873016	316.0924716553288	92	127
314.7573015873016	316.0924716553288	80	127
316.0924716553288	316.37111111111113	93	127
316.0924716553288	316.37111111111113	81	127
316.37111111111113	316.73102040816326	84	127
316.37111111111113	316.73102040816326	96	127
316.73102040816326	316.90514739229025	82	127
316.73102040816326	316.90514739229025	94	127
316.90514739229025	317.0793197278912	93	127
316.90514739229025	317.0793197278912	81	127
317.0793197278912	317.2650793650794	91	127
317.0793197278912	317.2650793650794	79	127
317.2650793650794	317.4392290249433	89	127
317.2650793650794	317.4392290249433	77	127
317.4392290249433	317.63659863945577	76	127
317.4392290249433	317.63659863945577	88	127
317.63659863945577	317.8571882086168	74	127
317.63659863945577	317.8571882086168	86	127
317.8571882086168	318.1009977324263	72	127
317.8571882086168	318.1009977324263	84	127
318.1009977324263	318.30997732426306	83	127
318.1009977324263	318.30997732426306	71	127
318.30997732426306	318.5073469387755	74	127
318.30997732426306	318.5073469387755	86	127
318.5073469387755	318.6931065759637	72	127
318.5073469387755	318.6931065759637	84	127
318.6931065759637	319.2852154195011	65	127
318.6931065759637	319.2852154195011	77	127
331.4060317460318	331.5453514739229	73	127
331.4060317460318	331.5453514739229	70	127
331.6730612244898	331.96331065759637	73	127
331.6730612244898	331.96331065759637	70	127
332.13743764172335	332.34643990929703	66	127
332.13743764172335	332.34643990929703	70	127
332.5321995464853	332.69473922902495	73	127
332.5321995464853	332.69473922902495	78	127
332.8340589569161	333.00820861678005	66	127
332.8340589569161	333.00820861678005	61	127
333.14752834467123	333.2984580498866	78	127
333.14752834467123	333.2984580498866	82	127
333.4377777777778	333.64675736961453	58	127
333.4377777777778	333.64675736961453	61	127
333.82090702947846	334.00666666666666	82	127
333.82090702947846	334.00666666666666	85	127
334.13437641723357	334.27367346938775	61	127
334.13437641723357	334.27367346938775	65	127
334.45945578231294	334.61038548752833	77	127
334.45945578231294	334.61038548752833	73	127
334.7497052154195	334.8890022675737	61	127
334.7497052154195	334.8890022675737	56	127
335.08639455782316	335.2605442176871	77	127
335.08639455782316	335.2605442176871	80	127
335.388253968254	335.51596371882084	56	127
335.388253968254	335.51596371882084	53	127
335.655283446712	335.80621315192747	85	127
335.655283446712	335.80621315192747	80	127
335.9803628117914	336.11965986394557	49	127
335.9803628117914	336.11965986394557	53	127
336.2938321995465	336.45637188208616	85	127
336.2938321995465	336.45637188208616	89	127
336.6537414965986	336.7930612244898	44	127
336.6537414965986	336.7930612244898	51	127
336.932358276644	337.06009070294783	90	127
336.932358276644	337.06009070294783	87	127
337.26907029478457	337.4316099773243	54	127
337.26907029478457	337.4316099773243	51	127
337.5709297052154	337.6986394557823	87	127
337.5709297052154	337.6986394557823	84	127
337.86115646258503	338.00049886621315	60	127
337.86115646258503	338.00049886621315	56	127
338.1978684807256	338.3255782312925	84	127
338.1978684807256	338.3255782312925	78	127
338.4881179138322	338.63904761904763	60	127
338.4881179138322	338.63904761904763	63	127
338.8944671201814	339.0221768707483	78	127
338.8944671201814	339.0221768707483	75	127
339.17310657596374	339.3472562358277	61	127
339.17310657596374	339.3472562358277	65	127
339.48657596371885	339.6607256235828	77	127
339.48657596371885	339.6607256235828	73	127
339.82326530612244	339.9625850340136	65	127
339.82326530612244	339.9625850340136	61	127
340.1251247165533	340.2760544217687	77	127
340.1251247165533	340.2760544217687	85	127
340.1251247165533	340.2760544217687	73	127
340.4269841269841	340.5663038548753	63	127
340.4269841269841	340.5663038548753	61	127
340.4269841269841	340.5663038548753	66	127
340.7520634920635	340.89138321995466	78	127
340.7520634920635	340.89138321995466	73	127
340.7520634920635	340.89138321995466	84	127
341.01909297052157	341.21646258503404	68	127
341.01909297052157	341.21646258503404	61	127
341.01909297052157	341.21646258503404	65	127
341.35578231292516	341.52993197278914	73	127
341.35578231292516	341.52993197278914	83	127
341.35578231292516	341.52993197278914	80	127
341.657641723356	341.80857142857144	73	127
341.657641723356	341.80857142857144	70	127
342.0059410430839	342.18009070294784	70	127
342.0059410430839	342.18009070294784	73	127
342.3310204081633	342.54	70	127
342.3310204081633	342.54	66	127
342.71414965986395	342.84185941043086	73	127
342.71414965986395	342.84185941043086	78	127
342.981179138322	343.12049886621315	61	127
342.981179138322	343.12049886621315	66	127
343.25981859410433	343.39913832199545	78	127
343.25981859410433	343.39913832199545	82	127
343.52684807256236	343.6777777777778	58	127
343.52684807256236	343.6777777777778	61	127
343.80548752834466	344.0028571428571	82	127
343.80548752834466	344.0028571428571	85	127
344.1421768707483	344.3743764172336	61	127
344.1421768707483	344.3743764172336	65	127
344.52530612244897	344.72267573696143	73	127
344.52530612244897	344.72267573696143	77	127
344.85038548752834	345.01290249433106	56	127
344.85038548752834	345.01290249433106	61	127
345.16385487528345	345.32637188208616	80	127
345.16385487528345	345.32637188208616	77	127
345.45410430839	345.61664399092973	53	127
345.45410430839	345.61664399092973	56	127
345.79079365079366	345.94172335600905	85	127
345.79079365079366	345.94172335600905	80	127
346.0810430839002	346.2319727891157	49	127
346.0810430839002	346.2319727891157	53	127
346.3712925170068	346.51061224489797	89	127
346.3712925170068	346.51061224489797	85	127
346.70798185941044	346.89374149659864	44	127
346.70798185941044	346.89374149659864	51	127
347.0330612244898	347.17238095238093	90	127
347.0330612244898	347.17238095238093	87	127
347.30009070294784	347.439410430839	51	127
347.30009070294784	347.439410430839	54	127
347.6019501133787	347.79931972789115	84	127
347.6019501133787	347.79931972789115	87	127
347.9386394557823	348.0779365079365	56	127
347.9386394557823	348.0779365079365	60	127
348.28691609977324	348.46108843537417	78	127
348.28691609977324	348.46108843537417	84	127
348.6004081632653	348.73972789115646	63	127
348.6004081632653	348.73972789115646	60	127
349.09961451247165	349.2273469387755	78	127
349.09961451247165	349.2273469387755	75	127
349.3666666666667	349.4943764172336	65	127
349.3666666666667	349.4943764172336	61	127
349.6801360544218	349.81943310657596	73	127
349.6801360544218	349.81943310657596	77	127
349.9936054421769	350.1445351473923	68	127
349.9936054421769	350.1445351473923	73	127
350.3651247165533	350.51605442176873	80	127
350.3651247165533	350.51605442176873	77	127
350.65537414965985	350.794693877551	68	127
350.65537414965985	350.794693877551	65	127
350.9340136054422	351.09655328798186	85	127
350.9340136054422	351.09655328798186	80	127
351.3519501133787	351.4912925170068	65	127
351.3519501133787	351.4912925170068	61	127
351.6190022675737	351.8047619047619	85	127
351.6190022675737	351.8047619047619	89	127
351.9672789115646	352.10662131519274	63	127
351.9672789115646	352.10662131519274	60	127
352.2459410430839	352.3968707482993	90	127
352.2459410430839	352.3968707482993	87	127
352.5361904761905	352.7103401360544	63	127
352.5361904761905	352.7103401360544	66	127
352.8380498866213	352.9773696145125	84	127
352.8380498866213	352.9773696145125	87	127
353.10507936507935	353.2560090702948	72	127
353.10507936507935	353.2560090702948	66	127
353.45337868480726	353.59269841269844	84	127
353.45337868480726	353.59269841269844	78	127
353.73201814058956	353.8945578231293	72	127
353.73201814058956	353.8945578231293	75	127
354.13836734693876	354.27768707482994	75	127
354.13836734693876	354.27768707482994	78	127
354.40539682539685	354.55632653061224	73	127
354.40539682539685	354.55632653061224	76	127
354.7072562358277	354.9162358276644	73	127
354.7072562358277	354.9162358276644	76	127
355.05555555555554	355.206485260771	68	127
355.05555555555554	355.206485260771	73	127
355.36902494331065	355.53156462585036	76	127
355.36902494331065	355.53156462585036	80	127
355.68249433106575	355.86825396825395	64	127
355.68249433106575	355.86825396825395	68	127
356.00757369614513	356.1701133786848	80	127
356.00757369614513	356.1701133786848	85	127
356.2978231292517	356.4603401360544	61	127
356.2978231292517	356.4603401360544	64	127
356.6229024943311	356.76222222222225	88	127
356.6229024943311	356.76222222222225	85	127
356.91315192743764	357.1453514739229	59	127
356.91315192743764	357.1453514739229	56	127
357.3427210884354	357.48201814058956	86	127
357.3427210884354	357.48201814058956	83	127
357.6097505668934	357.7722902494331	59	127
357.6097505668934	357.7722902494331	62	127
357.8767800453515	358.03931972789115	80	127
357.8767800453515	358.03931972789115	83	127
358.1902494331066	358.3295691609977	68	127
358.1902494331066	358.3295691609977	62	127
358.53854875283446	358.71267573696144	74	127
358.53854875283446	358.71267573696144	80	127
358.8868480725624	359.0609977324263	71	127
358.8868480725624	359.0609977324263	68	127
359.23514739229023	359.3744671201814	74	127
359.23514739229023	359.3744671201814	71	127
359.5718367346939	359.7343537414966	69	127
359.5718367346939	359.7343537414966	73	127
359.885306122449	360.02462585034016	69	127
359.885306122449	360.02462585034016	73	127
360.24519274376416	360.39614512471655	64	127
360.24519274376416	360.39614512471655	69	127
360.6051247165533	360.7328344671202	73	127
360.6051247165533	360.7328344671202	76	127
360.8721541950113	361.02308390022677	64	127
360.8721541950113	361.02308390022677	61	127
361.20884353741496	361.34816326530614	76	127
361.20884353741496	361.34816326530614	81	127
361.48748299319726	361.62680272108844	61	127
361.48748299319726	361.62680272108844	57	127
361.8357823129252	361.9634920634921	85	127
361.8357823129252	361.9634920634921	81	127
362.1028117913832	362.2305215419501	56	127
362.1028117913832	362.2305215419501	53	127
362.43950113378685	362.56721088435376	80	127
362.43950113378685	362.56721088435376	83	127
362.70650793650793	362.8342403628118	59	127
362.70650793650793	362.8342403628118	77	127
362.70650793650793	362.8342403628118	56	127
363.07804988662133	363.2289795918367	80	127
363.3682993197279	363.51920634920634	65	127
363.3682993197279	363.51920634920634	59	127
363.78625850340137	363.97201814058957	77	127
363.78625850340137	363.97201814058957	71	127
364.11133786848075	364.23902494331065	68	127
364.11133786848075	364.23902494331065	65	127
364.3783673469388	364.5292970521542	71	127
364.3783673469388	364.5292970521542	68	127
364.66861678004534	364.8079365079365	69	127
364.66861678004534	364.8079365079365	66	127
364.9472335600907	365.0981859410431	66	127
364.9472335600907	365.0981859410431	69	127
365.24911564625853	365.38843537414965	61	127
365.24911564625853	365.38843537414965	66	127
365.6322448979592	365.7831746031746	69	127
365.6322448979592	365.7831746031746	73	127
365.93410430839003	366.1314739229025	57	127
365.93410430839003	366.1314739229025	61	127
366.2707936507937	366.4449433106576	78	127
366.2707936507937	366.4449433106576	73	127
366.65392290249434	366.7932199546485	57	127
366.65392290249434	366.7932199546485	54	127
366.9209523809524	367.10671201814057	81	127
366.9209523809524	367.10671201814057	78	127
367.33891156462585	367.51303854875283	52	127
367.33891156462585	367.51303854875283	49	127
367.6756009070295	367.81489795918367	76	127
367.6756009070295	367.81489795918367	79	127
367.93102040816325	368.1167573696145	52	127
367.93102040816325	368.1167573696145	55	127
368.24448979591835	368.40702947845807	73	127
368.24448979591835	368.40702947845807	76	127
368.87142857142857	369.022358276644	61	127
368.87142857142857	369.022358276644	55	127
369.38226757369614	369.66090702947844	73	127
369.38226757369614	369.66090702947844	67	127
369.88149659863944	370.2530158730159	61	127
369.88149659863944	370.2530158730159	64	127
370.4271655328798	370.6245351473923	67	127
370.4271655328798	370.6245351473923	64	127
372.5750113378685	372.86526077097506	50	127
372.71430839002267	372.9813605442177	57	127
372.9813605442177	373.14390022675735	66	127
373.14390022675735	373.3296371882086	54	127
373.14390022675735	373.3296371882086	62	127
373.14390022675735	373.3296371882086	57	127
373.27160997732426	373.3877097505669	69	127
373.3877097505669	373.55024943310656	66	127
373.55024943310656	373.7592290249433	50	127
373.55024943310656	373.96820861678003	74	127
373.96820861678003	374.13074829931975	62	127
373.96820861678003	374.2932879818594	69	127
373.96820861678003	374.13074829931975	57	127
373.96820861678003	374.13074829931975	54	127
374.2932879818594	374.46743764172334	50	127
374.40938775510205	374.5138775510204	57	127
374.5138775510204	374.62997732426305	66	127
374.62997732426305	374.81573696145125	62	127
374.62997732426305	374.81573696145125	54	127
374.62997732426305	374.81573696145125	57	127
374.76927437641723	374.8737641723356	69	127
374.8737641723356	374.9898866213152	66	127
374.9898866213152	375.1988662131519	50	127
374.9898866213152	375.34979591836736	74	127
375.34979591836736	375.5239455782313	57	127
375.34979591836736	375.6980952380952	69	127
375.34979591836736	375.5239455782313	54	127
375.34979591836736	375.5239455782313	62	127
375.6980952380952	375.8722448979592	45	127
375.8258049886621	375.89544217687074	57	127
375.89544217687074	375.9767346938776	67	127
375.9767346938776	376.13927437641723	55	127
375.9767346938776	376.13927437641723	57	127
375.9767346938776	376.13927437641723	61	127
375.9767346938776	376.08122448979594	64	127
376.08122448979594	376.2089342403628	69	127
376.2089342403628	376.3366439909297	67	127
376.3366439909297	376.53401360544217	45	127
376.3366439909297	376.6617233560091	76	127
376.6617233560091	377.0216326530612	69	127
376.6617233560091	376.835873015873	61	127
376.6617233560091	376.835873015873	55	127
376.6617233560091	376.835873015873	57	127
377.0216326530612	377.2189795918367	45	127
377.1609523809524	377.277052154195	57	127
377.277052154195	377.4047619047619	67	127
377.4047619047619	377.6021315192744	61	127
377.4047619047619	377.6021315192744	57	127
377.4047619047619	377.6021315192744	55	127
377.4047619047619	377.54408163265305	64	127
377.54408163265305	377.67179138321995	69	127
377.67179138321995	377.79950113378686	67	127
377.79950113378686	377.99687074829933	45	127
377.79950113378686	378.1478004535147	76	127
378.1478004535147	378.333560090703	55	127
378.1478004535147	378.333560090703	57	127
378.1478004535147	378.333560090703	61	127
378.1478004535147	378.49609977324263	69	127
378.49609977324263	378.68185941043083	50	127
378.62380952380954	378.7282993197279	57	127
378.7282993197279	378.8559863945578	66	127
378.8559863945578	378.98371882086167	57	127
378.8559863945578	378.98371882086167	62	127
378.8559863945578	378.98371882086167	54	127
378.9488888888889	379.041768707483	69	127
379.041768707483	379.1462585034014	66	127
379.1462585034014	379.5061678004535	74	127
379.1462585034014	379.3320181405896	50	127
379.5061678004535	379.62226757369615	57	127
379.5061678004535	379.62226757369615	54	127
379.5061678004535	379.62226757369615	62	127
379.5061678004535	379.7615873015873	69	127
379.7615873015873	379.93573696145125	50	127
379.8892970521542	379.99378684807255	57	127
379.99378684807255	380.12149659863945	66	127
380.12149659863945	380.30725623582765	62	127
380.12149659863945	380.30725623582765	54	127
380.12149659863945	380.30725623582765	57	127
380.24920634920636	380.38850340136054	69	127
380.38850340136054	380.5046258503401	66	127
380.5046258503401	380.8180952380952	74	127
380.5046258503401	380.66716553287984	50	127
380.8180952380952	381.0038548752834	57	127
380.8180952380952	381.16639455782314	69	127
380.8180952380952	381.0038548752834	54	127
380.8180952380952	381.0038548752834	62	127
381.16639455782314	381.3289342403628	40	127
381.2824943310658	381.3637641723356	61	127
381.3637641723356	381.43342403628117	69	127
381.43342403628117	381.60757369614515	57	127
381.43342403628117	381.5495238095238	64	127
381.43342403628117	381.60757369614515	61	127
381.43342403628117	381.60757369614515	52	127
381.5495238095238	381.66562358276644	73	127
381.66562358276644	381.79333333333335	69	127
381.79333333333335	382.1532426303855	76	127
381.79333333333335	381.9674829931973	40	127
382.1532426303855	382.52476190476193	68	127
382.1532426303855	382.3390022675737	52	127
382.1532426303855	382.3390022675737	62	127
382.1532426303855	382.3390022675737	59	127
382.52476190476193	382.6873015873016	45	127
382.6292517006803	382.7453514739229	57	127
382.7453514739229	382.82662131519277	64	127
382.82662131519277	382.9543310657596	57	127
382.82662131519277	382.9543310657596	49	127
382.82662131519277	382.9543310657596	52	127
382.94272108843535	383.0007709750567	69	127
382.94272108843535	383.0007709750567	61	127
383.0007709750567	383.1284807256236	64	127
383.1284807256236	383.48839002267573	73	127
383.1284807256236	383.30263038548753	45	127
383.48839002267573	383.66253968253966	57	127
383.48839002267573	383.66253968253966	52	127
383.48839002267573	383.66253968253966	49	127
383.48839002267573	383.8599092970521	69	127
383.8599092970521	384.2198185941043	74	127
383.8599092970521	384.2198185941043	50	127
383.8599092970521	384.2198185941043	66	127
383.8599092970521	384.2198185941043	57	127
395.063537414966	395.26090702947846	45	127
395.1912471655329	395.330566893424	61	127
395.330566893424	395.44666666666666	64	127
395.44666666666666	395.63242630385486	57	127
395.44666666666666	395.57437641723357	67	127
395.44666666666666	395.63242630385486	61	127
395.44666666666666	395.63242630385486	55	127
395.57437641723357	395.6904761904762	68	127
395.6904761904762	395.8181859410431	69	127
395.8181859410431	396.0039455782313	45	127
395.8181859410431	396.1548752834467	71	127
396.1548752834467	396.3174149659864	61	127
396.1548752834467	396.5031746031746	69	127
396.1548752834467	396.3174149659864	57	127
396.1548752834467	396.3174149659864	55	127
396.5031746031746	396.6889342403628	50	127
396.6308843537415	396.7585941043084	62	127
396.7585941043084	396.828253968254	66	127
396.828253968254	397.0140136054422	57	127
396.828253968254	397.0140136054422	62	127
396.828253968254	397.0140136054422	54	127
396.828253968254	396.95596371882084	67	127
396.95596371882084	397.08367346938775	68	127
397.08367346938775	397.1881632653061	69	127
397.1881632653061	397.3739229024943	50	127
397.1881632653061	397.5480725623583	78	127
397.5480725623583	397.72222222222223	54	127
397.5480725623583	397.72222222222223	57	127
397.5480725623583	397.72222222222223	62	127
397.5480725623583	397.93120181405897	74	127
397.93120181405897	398.1053514739229	45	127
398.0473015873016	398.16340136054424	61	127
398.16340136054424	398.25628117913834	64	127
398.25628117913834	398.44204081632654	57	127
398.25628117913834	398.44204081632654	55	127
398.25628117913834	398.44204081632654	61	127
398.25628117913834	398.3839909297052	67	127
398.3839909297052	398.5117006802721	68	127
398.5117006802721	398.62780045351474	69	127
398.62780045351474	398.7787301587302	45	127
398.62780045351474	398.9644897959184	71	127
398.9644897959184	399.1386394557823	57	127
398.9644897959184	399.1386394557823	61	127
398.9644897959184	399.3243990929705	69	127
398.9644897959184	399.1386394557823	55	127
399.3243990929705	399.5101587301587	50	127
399.4521088435374	399.56820861678005	62	127
399.56820861678005	399.6726984126984	66	127
399.6726984126984	399.8584580498866	62	127
399.6726984126984	399.8584580498866	57	127
399.6726984126984	399.80040816326533	67	127
399.6726984126984	399.8584580498866	54	127
399.80040816326533	399.9281179138322	68	127
399.9281179138322	400.0442176870748	69	127
400.0442176870748	400.20675736961454	50	127
400.0442176870748	400.38090702947846	78	127
400.38090702947846	400.5434467120181	57	127
400.38090702947846	400.5434467120181	62	127
400.38090702947846	400.5434467120181	54	127
400.38090702947846	400.70598639455784	74	127
400.70598639455784	400.88013605442177	43	127
400.8220861678005	400.92657596371885	62	127
400.92657596371885	401.0426757369614	67	127
401.0426757369614	401.15877551020407	71	127
401.0426757369614	401.2168253968254	62	127
401.0426757369614	401.2168253968254	55	127
401.0426757369614	401.2168253968254	59	127
401.15877551020407	401.2748752834467	72	127
401.2748752834467	401.4141950113379	73	127
401.4141950113379	401.6347845804989	43	127
401.4141950113379	401.8785941043084	76	127
401.8785941043084	402.07596371882084	55	127
401.8785941043084	402.07596371882084	62	127
401.8785941043084	402.26172335600904	74	127
401.8785941043084	402.07596371882084	59	127
402.26172335600904	402.4474829931973	50	127
402.38943310657595	402.5055328798186	62	127
402.5055328798186	402.64485260770977	66	127
402.64485260770977	402.7609523809524	67	127
402.64485260770977	402.8190022675737	62	127
402.64485260770977	402.8190022675737	57	127
402.64485260770977	402.8190022675737	54	127
402.7609523809524	402.88866213151925	68	127
402.88866213151925	403.01637188208616	69	127
403.01637188208616	403.3995011337868	78	127
403.01637188208616	403.20213151927436	50	127
403.3995011337868	403.5736507936508	54	127
403.3995011337868	403.5736507936508	57	127
403.3995011337868	403.79424036281176	74	127
403.3995011337868	403.5736507936508	62	127
403.79424036281176	404.0032199546485	45	127
403.9451700680272	404.06126984126985	64	127
404.06126984126985	404.1657596371882	67	127
404.1657596371882	404.28185941043085	68	127
404.1657596371882	404.3166893424036	61	127
404.1657596371882	404.3166893424036	55	127
404.1657596371882	404.3166893424036	57	127
404.28185941043085	404.37473922902495	69	127
404.37473922902495	404.4908390022676	73	127
404.4908390022676	404.8971882086168	79	127
404.4908390022676	404.6765986394558	45	127
404.8971882086168	405.0481179138322	57	127
404.8971882086168	405.2338775510204	76	127
404.8971882086168	405.0481179138322	61	127
404.8971882086168	405.0481179138322	55	127
405.2338775510204	405.43124716553285	50	127
405.37319727891156	405.47768707482993	62	127
405.47768707482993	405.59378684807257	66	127
405.59378684807257	405.77954648526077	57	127
405.59378684807257	405.77954648526077	54	127
405.59378684807257	405.7214965986395	67	127
405.59378684807257	405.77954648526077	62	127
405.7214965986395	405.82598639455784	68	127
405.82598639455784	405.88403628117914	69	127
405.88403628117914	406.27877551020407	78	127
405.88403628117914	406.0814058956916	50	127
406.27877551020407	406.6502947845805	74	127
406.27877551020407	406.46453514739227	54	127
406.27877551020407	406.46453514739227	57	127
406.27877551020407	406.46453514739227	62	127
406.6502947845805	406.847664399093	43	127
406.78961451247164	406.91732426303855	62	127
406.91732426303855	407.0798639455782	67	127
407.0798639455782	407.28884353741495	59	127
407.0798639455782	407.28884353741495	55	127
407.0798639455782	407.23079365079366	71	127
407.0798639455782	407.28884353741495	62	127
407.23079365079366	407.37011337868483	72	127
407.37011337868483	407.4978231292517	73	127
407.4978231292517	407.9041723356009	76	127
407.4978231292517	407.7184126984127	43	127
407.9041723356009	408.0899319727891	59	127
407.9041723356009	408.0899319727891	55	127
407.9041723356009	408.27569160997734	74	127
407.9041723356009	408.0899319727891	62	127
408.27569160997734	408.46145124716554	50	127
408.39179138322	408.51950113378683	62	127
408.51950113378683	408.64721088435374	66	127
408.64721088435374	408.83297052154194	62	127
408.64721088435374	408.83297052154194	54	127
408.64721088435374	408.83297052154194	57	127
408.64721088435374	408.77492063492065	67	127
408.77492063492065	408.8910204081633	68	127
408.8910204081633	409.0071201814059	69	127
409.0071201814059	409.1928798185941	50	127
409.0071201814059	409.3786394557823	78	127
409.3786394557823	409.5760090702948	62	127
409.3786394557823	409.5760090702948	54	127
409.3786394557823	409.5760090702948	57	127
409.3786394557823	409.761768707483	74	127
409.761768707483	409.9475283446712	45	127
409.8778684807256	410.00557823129253	64	127
410.00557823129253	410.1332879818594	67	127
410.1332879818594	410.31904761904764	61	127
410.1332879818594	410.31904761904764	55	127
410.1332879818594	410.31904761904764	57	127
410.1332879818594	410.2609977324263	68	127
410.2609977324263	410.36548752834466	69	127
410.36548752834466	410.50480725623584	73	127
410.50480725623584	410.7021768707483	45	127
410.50480725623584	410.87632653061223	79	127
410.87632653061223	411.0736961451247	61	127
410.87632653061223	411.0736961451247	57	127
410.87632653061223	411.0736961451247	55	127
410.87632653061223	411.27106575963717	76	127
411.27106575963717	411.4568253968254	50	127
411.3871655328798	411.526485260771	62	127
411.526485260771	411.6541950113379	66	127
411.6541950113379	411.85156462585036	62	127
411.6541950113379	411.793514739229	67	127
411.6541950113379	411.85156462585036	54	127
411.6541950113379	411.85156462585036	57	127
411.793514739229	411.90961451247165	68	127
411.90961451247165	411.9792743764172	69	127
411.9792743764172	412.3391836734694	78	127
411.9792743764172	412.1534240362812	50	127
412.3391836734694	412.4901133786848	54	127
412.3391836734694	412.4901133786848	57	127
412.3391836734694	412.6062131519274	74	127
412.3391836734694	412.4901133786848	62	127
424.69219954648526	424.8431292517007	62	127
424.69219954648526	424.8431292517007	74	127
424.8431292517007	424.94761904761907	79	127
424.8431292517007	424.94761904761907	67	127
424.94761904761907	425.0869387755102	71	127
424.94761904761907	425.0869387755102	83	127
425.0869387755102	425.19142857142856	72	127
425.0869387755102	425.19142857142856	84	127
425.19142857142856	425.2959183673469	73	127
425.19142857142856	425.2959183673469	85	127
425.2959183673469	425.6674376417234	76	127
425.2959183673469	425.6674376417234	88	127
425.6674376417234	426.0853968253968	74	127
425.6674376417234	426.0853968253968	86	127
426.2131065759637	426.3988662131519	62	127
426.2131065759637	426.3988662131519	74	127
426.3988662131519	426.5265759637188	78	127
426.3988662131519	426.5265759637188	66	127
426.5265759637188	426.6542857142857	79	127
426.5265759637188	426.6542857142857	67	127
426.6542857142857	426.8168253968254	68	127
426.6542857142857	426.8168253968254	80	127
426.8168253968254	426.932925170068	69	127
426.8168253968254	426.932925170068	81	127
426.932925170068	427.30444444444447	76	127
426.932925170068	427.30444444444447	88	127
427.30444444444447	427.67596371882087	86	127
427.30444444444447	427.67596371882087	74	127
427.7920634920635	427.9197732426304	76	127
427.7920634920635	427.9197732426304	64	127
427.9197732426304	428.0242630385487	67	127
427.9197732426304	428.0242630385487	79	127
428.0242630385487	428.15197278911563	80	127
428.0242630385487	428.15197278911563	68	127
428.15197278911563	428.26807256235827	81	127
428.15197278911563	428.26807256235827	69	127
428.26807256235827	428.3957823129252	85	127
428.26807256235827	428.3957823129252	73	127
428.3957823129252	428.7556916099773	79	127
428.3957823129252	428.7556916099773	91	127
428.7556916099773	429.1156009070295	88	127
428.7556916099773	429.1156009070295	76	127
429.2433106575964	429.3942403628118	74	127
429.2433106575964	429.3942403628118	62	127
429.3942403628118	429.53356009070296	78	127
429.3942403628118	429.53356009070296	66	127
429.53356009070296	429.6612698412698	79	127
429.53356009070296	429.6612698412698	67	127
429.6612698412698	429.75414965986397	80	127
429.6612698412698	429.75414965986397	68	127
429.75414965986397	429.87024943310655	69	127
429.75414965986397	429.87024943310655	81	127
429.87024943310655	430.26498866213154	78	127
429.87024943310655	430.26498866213154	90	127
430.26498866213154	430.57845804988665	86	127
430.26498866213154	430.57845804988665	74	127
430.71777777777777	430.8687074829932	74	127
430.71777777777777	430.8687074829932	62	127
430.8687074829932	431.0196371882086	66	127
430.8687074829932	431.0196371882086	78	127
431.0196371882086	431.13573696145124	79	127
431.0196371882086	431.13573696145124	67	127
431.13573696145124	431.2518367346939	80	127
431.13573696145124	431.2518367346939	68	127
431.2518367346939	431.35632653061225	69	127
431.2518367346939	431.35632653061225	81	127
431.35632653061225	431.7510657596372	90	127
431.35632653061225	431.7510657596372	78	127
431.7510657596372	432.1458049886621	74	127
431.7510657596372	432.1458049886621	86	127
432.58698412698413	433.43451247165535	74	127
432.58698412698413	433.43451247165535	86	127
433.43451247165535	433.85247165532877	78	127
433.43451247165535	433.85247165532877	90	127
434.27043083900224	435.15278911564627	86	127
434.27043083900224	435.15278911564627	74	127
435.15278911564627	435.5939682539682	78	127
435.15278911564627	435.5939682539682	90	127
435.5939682539682	440.5398185941043	74	127
435.5939682539682	440.5398185941043	86	127
