# onset,offset,note,velocity
0.034058956916099774	4.62	64	127
0.034058956916099774	4.62	52	127
4.62	7.52249433106576	52	127
4.62	4.863809523809524	71	127
4.62	4.863809523809524	74	127
4.62	7.52249433106576	64	127
4.863809523809524	4.921859410430839	76	127
4.863809523809524	4.921859410430839	73	127
4.921859410430839	4.968299319727891	71	127
4.921859410430839	4.968299319727891	74	127
4.968299319727891	5.142448979591837	73	127
4.968299319727891	5.142448979591837	69	127
5.142448979591837	5.258548752834467	71	127
5.142448979591837	5.258548752834467	68	127
5.351428571428571	5.7345578231292516	69	127
5.351428571428571	5.7345578231292516	73	127
5.7345578231292516	6.082857142857143	69	127
5.7345578231292516	6.082857142857143	73	127
6.082857142857143	6.315056689342404	71	127
6.082857142857143	6.315056689342404	74	127
6.315056689342404	6.361496598639456	73	127
6.315056689342404	6.361496598639456	76	127
6.361496598639456	6.407936507936508	74	127
6.361496598639456	6.407936507936508	71	127
6.407936507936508	6.582086167800454	73	127
6.407936507936508	6.582086167800454	69	127
6.582086167800454	6.663356009070295	68	127
6.582086167800454	6.663356009070295	71	127
6.744625850340136	7.52249433106576	73	127
6.744625850340136	7.52249433106576	69	127
13.14172335600907	13.362312925170068	42	127
13.14172335600907	13.455192743764172	73	127
13.14172335600907	13.536462585034014	64	127
13.455192743764172	13.501632653061224	74	127
13.501632653061224	13.536462585034014	73	127
13.536462585034014	13.699002267573697	62	127
13.536462585034014	13.699002267573697	71	127
13.536462585034014	13.699002267573697	54	127
13.699002267573697	13.791882086167801	61	127
13.699002267573697	13.791882086167801	70	127
13.873151927437641	14.024081632653061	42	127
13.873151927437641	14.20984126984127	61	127
13.873151927437641	14.20984126984127	70	127
14.20984126984127	14.407210884353741	54	127
14.20984126984127	14.546530612244897	61	127
14.20984126984127	14.546530612244897	70	127
14.546530612244897	14.685850340136055	66	127
14.546530612244897	14.685850340136055	74	127
14.546530612244897	14.685850340136055	59	127
14.546530612244897	14.685850340136055	47	127
14.685850340136055	14.86	50	127
14.685850340136055	14.86	66	127
14.685850340136055	14.86	72	127
14.685850340136055	14.86	57	127
14.86	14.918049886621315	66	127
14.86	14.918049886621315	57	127
14.86	14.918049886621315	72	127
14.86	14.918049886621315	50	127
14.999319727891157	15.080589569160997	66	127
14.999319727891157	15.080589569160997	72	127
14.999319727891157	15.080589569160997	57	127
14.999319727891157	15.080589569160997	50	127
15.16185941043084	15.568208616780046	66	127
15.16185941043084	15.568208616780046	72	127
15.16185941043084	15.568208616780046	50	127
15.16185941043084	15.568208616780046	57	127
15.568208616780046	15.765578231292517	55	127
15.568208616780046	15.765578231292517	67	127
15.568208616780046	15.765578231292517	71	127
15.939727891156462	16.20673469387755	71	127
15.939727891156462	16.11387755102041	40	127
15.939727891156462	16.31124716553288	62	127
16.20673469387755	16.253197278911564	73	127
16.253197278911564	16.31124716553288	71	127
16.31124716553288	16.555056689342404	61	127
16.31124716553288	16.555056689342404	69	127
16.31124716553288	16.555056689342404	52	127
16.555056689342404	16.647936507936507	68	127
16.555056689342404	16.647936507936507	59	127
16.740816326530613	16.926575963718822	40	127
16.740816326530613	17.07750566893424	68	127
16.740816326530613	17.07750566893424	59	127
17.07750566893424	17.367755102040817	68	127
17.07750566893424	17.19360544217687	52	127
17.07750566893424	17.367755102040817	59	127
17.367755102040817	17.5418820861678	73	127
17.367755102040817	17.5418820861678	64	127
17.367755102040817	17.5418820861678	57	127
17.367755102040817	17.5418820861678	49	127
17.5418820861678	17.750884353741498	71	127
17.5418820861678	17.750884353741498	62	127
17.5418820861678	17.750884353741498	56	127
17.5418820861678	17.750884353741498	52	127
17.750884353741498	17.820544217687075	71	127
17.750884353741498	17.820544217687075	62	127
17.750884353741498	17.820544217687075	52	127
17.750884353741498	17.820544217687075	56	127
17.901814058956916	18.006303854875284	71	127
17.901814058956916	18.006303854875284	62	127
17.901814058956916	18.006303854875284	52	127
17.901814058956916	18.006303854875284	56	127
18.087573696145125	18.435873015873018	71	127
18.087573696145125	18.435873015873018	62	127
18.087573696145125	18.435873015873018	56	127
18.087573696145125	18.435873015873018	52	127
18.435873015873018	18.586802721088436	69	127
18.435873015873018	18.586802721088436	61	127
18.435873015873018	18.586802721088436	57	127
24.438231292517006	24.623990929705215	42	127
24.438231292517006	24.68204081632653	73	127
24.438231292517006	24.740090702947846	64	127
24.68204081632653	24.705260770975055	74	127
24.705260770975055	24.740090702947846	73	127
24.740090702947846	24.86780045351474	62	127
24.740090702947846	24.86780045351474	71	127
24.740090702947846	24.86780045351474	54	127
24.86780045351474	24.960680272108842	61	127
24.86780045351474	24.960680272108842	70	127
25.06517006802721	25.239319727891157	42	127
25.06517006802721	25.401859410430838	61	127
25.06517006802721	25.401859410430838	70	127
25.401859410430838	25.576009070294784	54	127
25.401859410430838	25.75015873015873	61	127
25.401859410430838	25.75015873015873	70	127
25.75015873015873	25.91269841269841	66	127
25.75015873015873	25.91269841269841	74	127
25.75015873015873	25.91269841269841	59	127
25.75015873015873	25.91269841269841	47	127
25.91269841269841	26.09845804988662	66	127
25.91269841269841	26.09845804988662	72	127
25.91269841269841	26.09845804988662	57	127
25.91269841269841	26.09845804988662	50	127
26.09845804988662	26.191337868480726	66	127
26.09845804988662	26.191337868480726	72	127
26.09845804988662	26.191337868480726	57	127
26.09845804988662	26.191337868480726	50	127
26.272607709750567	26.365487528344673	66	127
26.272607709750567	26.365487528344673	72	127
26.272607709750567	26.365487528344673	57	127
26.272607709750567	26.365487528344673	50	127
26.43514739229025	26.80666666666667	66	127
26.43514739229025	26.80666666666667	72	127
26.43514739229025	26.80666666666667	50	127
26.43514739229025	26.80666666666667	57	127
26.80666666666667	26.96920634920635	71	127
26.80666666666667	26.96920634920635	67	127
26.80666666666667	26.96920634920635	55	127
27.131746031746033	27.375555555555554	71	127
27.131746031746033	27.28267573696145	40	127
27.131746031746033	27.456825396825398	62	127
27.375555555555554	27.421995464852607	73	127
27.421995464852607	27.456825396825398	71	127
27.456825396825398	27.630975056689344	69	127
27.456825396825398	27.630975056689344	61	127
27.456825396825398	27.630975056689344	52	127
27.630975056689344	27.712244897959184	59	127
27.630975056689344	27.712244897959184	68	127
27.805124716553287	28.03732426303855	40	127
27.805124716553287	28.211473922902496	68	127
27.805124716553287	28.211473922902496	59	127
28.211473922902496	28.374013605442176	52	127
28.211473922902496	28.559773242630385	68	127
28.211473922902496	28.559773242630385	59	127
28.559773242630385	28.73392290249433	73	127
28.559773242630385	28.73392290249433	64	127
28.559773242630385	28.73392290249433	57	127
28.559773242630385	28.73392290249433	49	127
28.73392290249433	28.908072562358278	71	127
28.73392290249433	28.908072562358278	62	127
28.73392290249433	28.908072562358278	56	127
28.73392290249433	28.908072562358278	52	127
28.908072562358278	29.00095238095238	71	127
28.908072562358278	29.00095238095238	62	127
28.908072562358278	29.00095238095238	52	127
28.908072562358278	29.00095238095238	56	127
29.059002267573696	29.1518820861678	71	127
29.059002267573696	29.1518820861678	62	127
29.059002267573696	29.1518820861678	52	127
29.059002267573696	29.1518820861678	56	127
29.256371882086167	29.639501133786847	71	127
29.256371882086167	29.639501133786847	62	127
29.256371882086167	29.639501133786847	56	127
29.256371882086167	29.639501133786847	52	127
29.639501133786847	29.825260770975056	57	127
29.639501133786847	29.825260770975056	69	127
29.639501133786847	29.825260770975056	61	127
30.022630385487528	34.353151927437644	64	127
30.022630385487528	34.353151927437644	52	127
34.353151927437644	37.20920634920635	64	127
34.353151927437644	37.20920634920635	52	127
34.353151927437644	34.631791383219955	71	127
34.353151927437644	34.631791383219955	74	127
34.631791383219955	34.66662131519274	73	127
34.631791383219955	34.66662131519274	76	127
34.66662131519274	34.7130612244898	71	127
34.66662131519274	34.7130612244898	74	127
34.7130612244898	34.92204081632653	73	127
34.7130612244898	34.92204081632653	69	127
34.92204081632653	35.014920634920635	71	127
34.92204081632653	35.014920634920635	68	127
35.119410430839004	35.49092970521542	69	127
35.119410430839004	35.49092970521542	73	127
35.49092970521542	35.79278911564626	69	127
35.49092970521542	35.79278911564626	73	127
35.79278911564626	36.02498866213152	71	127
35.79278911564626	36.02498866213152	74	127
36.02498866213152	36.083015873015874	73	127
36.02498866213152	36.083015873015874	76	127
36.083015873015874	36.12947845804989	74	127
36.083015873015874	36.12947845804989	71	127
36.12947845804989	36.326848072562356	69	127
36.12947845804989	36.326848072562356	73	127
36.326848072562356	36.41972789115646	68	127
36.326848072562356	36.41972789115646	71	127
36.51260770975057	37.20920634920635	73	127
36.51260770975057	37.20920634920635	69	127
37.20920634920635	37.42979591836735	57	127
37.20920634920635	37.42979591836735	69	127
37.42979591836735	37.464625850340134	59	127
37.42979591836735	37.464625850340134	71	127
37.464625850340134	37.51106575963719	57	127
37.464625850340134	37.51106575963719	69	127
37.51106575963719	37.696825396825396	55	127
37.51106575963719	37.696825396825396	67	127
37.696825396825396	37.77809523809524	65	127
37.696825396825396	37.77809523809524	53	127
37.85934240362812	38.068344671201814	52	127
37.85934240362812	38.068344671201814	64	127
38.2424716553288	38.41664399092971	52	127
38.2424716553288	38.41664399092971	64	127
38.614013605442175	38.82299319727891	71	127
38.614013605442175	38.82299319727891	64	127
38.614013605442175	38.82299319727891	68	127
38.614013605442175	38.82299319727891	62	127
38.614013605442175	38.82299319727891	52	127
38.614013605442175	38.82299319727891	40	127
39.00873015873016	39.18290249433107	71	127
39.00873015873016	39.18290249433107	64	127
39.00873015873016	39.18290249433107	68	127
39.00873015873016	39.18290249433107	62	127
39.00873015873016	39.18290249433107	52	127
39.00873015873016	39.18290249433107	40	127
39.35705215419501	39.51956916099773	64	127
39.35705215419501	39.51956916099773	72	127
39.35705215419501	39.51956916099773	60	127
39.35705215419501	39.51956916099773	69	127
39.35705215419501	39.51956916099773	45	127
39.35705215419501	39.51956916099773	52	127
39.716961451247165	40.262630385487526	74	127
39.716961451247165	40.262630385487526	67	127
39.716961451247165	40.262630385487526	65	127
39.716961451247165	40.262630385487526	71	127
39.716961451247165	40.262630385487526	43	127
39.716961451247165	40.262630385487526	55	127
40.262630385487526	40.35551020408163	76	127
40.262630385487526	40.35551020408163	67	127
40.262630385487526	40.35551020408163	72	127
40.262630385487526	40.35551020408163	64	127
40.262630385487526	40.35551020408163	60	127
40.262630385487526	40.35551020408163	48	127
40.46	40.55287981859411	76	127
40.46	40.55287981859411	67	127
40.46	40.55287981859411	72	127
40.46	40.55287981859411	64	127
40.46	40.55287981859411	60	127
40.46	40.55287981859411	48	127
40.634149659863944	40.73863945578231	76	127
40.634149659863944	40.73863945578231	67	127
40.634149659863944	40.73863945578231	72	127
40.634149659863944	40.73863945578231	64	127
40.634149659863944	40.73863945578231	60	127
40.634149659863944	40.73863945578231	48	127
40.83151927437642	40.9940589569161	48	127
40.83151927437642	40.9940589569161	67	127
40.83151927437642	40.9940589569161	76	127
40.83151927437642	40.9940589569161	64	127
40.83151927437642	40.9940589569161	72	127
40.83151927437642	40.9940589569161	60	127
41.168185941043085	41.31913832199547	79	127
41.168185941043085	41.31913832199547	74	127
41.168185941043085	41.31913832199547	67	127
41.168185941043085	41.31913832199547	59	127
41.168185941043085	41.31913832199547	47	127
41.48167800453515	41.667414965986396	72	127
41.48167800453515	41.667414965986396	76	127
41.48167800453515	41.667414965986396	67	127
41.48167800453515	41.667414965986396	48	127
41.48167800453515	41.667414965986396	60	127
41.86480725623583	42.0621768707483	74	127
41.86480725623583	42.0621768707483	67	127
41.86480725623583	42.0621768707483	71	127
41.86480725623583	42.0621768707483	65	127
41.86480725623583	42.0621768707483	55	127
41.86480725623583	42.0621768707483	43	127
42.25954648526077	42.433673469387756	64	127
42.25954648526077	42.433673469387756	72	127
42.25954648526077	42.433673469387756	67	127
42.25954648526077	42.433673469387756	48	127
42.25954648526077	42.433673469387756	60	127
48.70308390022676	48.93528344671202	57	127
48.70308390022676	48.93528344671202	69	127
48.93528344671202	48.97011337868481	59	127
48.93528344671202	48.97011337868481	71	127
48.97011337868481	49.01655328798186	57	127
48.97011337868481	49.01655328798186	69	127
49.01655328798186	49.20231292517007	55	127
49.01655328798186	49.20231292517007	67	127
49.20231292517007	49.283582766439906	65	127
49.20231292517007	49.283582766439906	53	127
49.388072562358275	49.62027210884354	52	127
49.388072562358275	49.62027210884354	64	127
49.79442176870748	49.93374149659864	52	127
49.79442176870748	49.93374149659864	64	127
50.13111111111111	50.31687074829932	71	127
50.13111111111111	50.31687074829932	64	127
50.13111111111111	50.31687074829932	68	127
50.13111111111111	50.31687074829932	62	127
50.13111111111111	50.31687074829932	52	127
50.13111111111111	50.31687074829932	40	127
50.50263038548753	50.67678004535147	71	127
50.50263038548753	50.67678004535147	64	127
50.50263038548753	50.67678004535147	68	127
50.50263038548753	50.67678004535147	62	127
50.50263038548753	50.67678004535147	52	127
50.50263038548753	50.67678004535147	40	127
50.86253968253968	51.07151927437642	64	127
50.86253968253968	51.07151927437642	72	127
50.86253968253968	51.07151927437642	60	127
50.86253968253968	51.07151927437642	69	127
50.86253968253968	51.07151927437642	45	127
50.86253968253968	51.07151927437642	52	127
51.257278911564626	51.81455782312925	74	127
51.257278911564626	51.81455782312925	67	127
51.257278911564626	51.81455782312925	65	127
51.257278911564626	51.81455782312925	71	127
51.257278911564626	51.81455782312925	43	127
51.257278911564626	51.81455782312925	55	127
51.81455782312925	51.907437641723355	76	127
51.81455782312925	51.907437641723355	67	127
51.81455782312925	51.907437641723355	72	127
51.81455782312925	51.907437641723355	64	127
51.81455782312925	51.907437641723355	60	127
51.81455782312925	51.907437641723355	48	127
51.9887074829932	52.0815873015873	76	127
51.9887074829932	52.0815873015873	67	127
51.9887074829932	52.0815873015873	72	127
51.9887074829932	52.0815873015873	64	127
51.9887074829932	52.0815873015873	60	127
51.9887074829932	52.0815873015873	48	127
52.18607709750567	52.26734693877551	76	127
52.18607709750567	52.26734693877551	67	127
52.18607709750567	52.26734693877551	72	127
52.18607709750567	52.26734693877551	64	127
52.18607709750567	52.26734693877551	60	127
52.18607709750567	52.26734693877551	48	127
52.36022675736962	52.47632653061225	60	127
52.36022675736962	52.47632653061225	67	127
52.36022675736962	52.47632653061225	76	127
52.36022675736962	52.47632653061225	64	127
52.36022675736962	52.47632653061225	72	127
52.36022675736962	52.47632653061225	48	127
52.68530612244898	52.88267573696145	79	127
52.68530612244898	52.88267573696145	74	127
52.68530612244898	52.88267573696145	67	127
52.68530612244898	52.88267573696145	59	127
52.68530612244898	52.88267573696145	47	127
53.08004535147392	53.26580498866213	72	127
53.08004535147392	53.26580498866213	76	127
53.08004535147392	53.26580498866213	67	127
53.08004535147392	53.26580498866213	48	127
53.08004535147392	53.26580498866213	60	127
53.41673469387755	53.602494331065756	74	127
53.41673469387755	53.602494331065756	67	127
53.41673469387755	53.602494331065756	71	127
53.41673469387755	53.602494331065756	65	127
53.41673469387755	53.602494331065756	55	127
53.41673469387755	53.602494331065756	43	127
53.78825396825397	53.974013605442174	64	127
53.78825396825397	53.974013605442174	72	127
53.78825396825397	53.974013605442174	67	127
53.78825396825397	53.974013605442174	48	127
53.78825396825397	53.974013605442174	60	127
54.531292517006804	55.04213151927438	60	127
54.531292517006804	54.77510204081633	81	127
54.531292517006804	55.04213151927438	57	127
54.77510204081633	54.809931972789116	83	127
54.809931972789116	54.856371882086165	81	127
54.856371882086165	55.04213151927438	79	127
55.04213151927438	55.123401360544214	77	127
55.04213151927438	55.193061224489796	59	127
55.04213151927438	55.193061224489796	62	127
55.193061224489796	55.378820861678	76	127
55.193061224489796	55.58780045351474	60	127
55.193061224489796	55.58780045351474	64	127
55.58780045351474	55.82	76	127
55.58780045351474	55.99414965986394	62	127
55.58780045351474	55.99414965986394	68	127
55.99414965986394	56.12185941043084	83	127
55.99414965986394	56.12185941043084	64	127
55.99414965986394	56.27278911564626	68	127
56.12185941043084	56.27278911564626	65	127
56.27278911564626	56.47015873015873	64	127
56.27278911564626	56.47015873015873	83	127
56.27278911564626	56.64430839002267	68	127
56.47015873015873	56.64430839002267	62	127
56.64430839002267	56.830068027210885	84	127
56.64430839002267	56.830068027210885	60	127
56.64430839002267	56.830068027210885	69	127
57.02743764172335	57.549886621315196	79	127
57.02743764172335	57.549886621315196	86	127
57.02743764172335	57.549886621315196	65	127
57.02743764172335	57.549886621315196	67	127
57.02743764172335	57.549886621315196	71	127
57.549886621315196	57.596326530612245	79	127
57.549886621315196	57.596326530612245	89	127
57.549886621315196	57.596326530612245	62	127
57.549886621315196	57.596326530612245	67	127
57.549886621315196	57.596326530612245	71	127
57.68920634920635	57.77047619047619	79	127
57.68920634920635	57.77047619047619	88	127
57.68920634920635	57.77047619047619	71	127
57.68920634920635	57.77047619047619	67	127
57.68920634920635	57.77047619047619	64	127
57.85174603174603	57.94462585034014	79	127
57.85174603174603	57.94462585034014	86	127
57.85174603174603	57.94462585034014	65	127
57.85174603174603	57.94462585034014	67	127
57.85174603174603	57.94462585034014	71	127
58.03750566893424	58.1768253968254	79	127
58.03750566893424	58.1768253968254	91	127
58.03750566893424	58.1768253968254	72	127
58.03750566893424	58.1768253968254	67	127
58.03750566893424	58.1768253968254	64	127
59.79061224489796	60.30145124716553	62	127
59.79061224489796	60.30145124716553	83	127
59.79061224489796	60.30145124716553	76	127
59.79061224489796	60.30145124716553	64	127
59.79061224489796	60.30145124716553	68	127
60.30145124716553	60.39433106575964	86	127
60.30145124716553	60.39433106575964	59	127
60.30145124716553	60.39433106575964	76	127
60.30145124716553	60.39433106575964	64	127
60.30145124716553	60.39433106575964	68	127
60.47560090702948	60.56848072562358	84	127
60.47560090702948	60.56848072562358	76	127
60.47560090702948	60.56848072562358	60	127
60.47560090702948	60.56848072562358	64	127
60.47560090702948	60.56848072562358	68	127
60.661360544217686	60.719410430839005	83	127
60.661360544217686	60.719410430839005	76	127
60.661360544217686	60.719410430839005	62	127
60.661360544217686	60.719410430839005	64	127
60.661360544217686	60.719410430839005	68	127
60.78907029478458	60.91678004535147	88	127
60.78907029478458	60.91678004535147	76	127
60.78907029478458	60.91678004535147	60	127
60.78907029478458	60.91678004535147	64	127
60.78907029478458	60.91678004535147	69	127
62.57700680272109	63.09945578231292	60	127
62.57700680272109	63.09945578231292	58	127
62.57700680272109	63.09945578231292	79	127
62.57700680272109	63.09945578231292	72	127
62.57700680272109	63.09945578231292	64	127
63.09945578231292	63.14589569160998	55	127
63.09945578231292	63.14589569160998	60	127
63.09945578231292	63.14589569160998	64	127
63.09945578231292	63.14589569160998	72	127
63.09945578231292	63.14589569160998	82	127
63.23877551020408	63.32004535147392	57	127
63.23877551020408	63.32004535147392	64	127
63.23877551020408	63.32004535147392	60	127
63.23877551020408	63.32004535147392	72	127
63.23877551020408	63.32004535147392	81	127
63.41292517006803	63.505804988662135	58	127
63.41292517006803	63.505804988662135	60	127
63.41292517006803	63.505804988662135	64	127
63.41292517006803	63.505804988662135	72	127
63.41292517006803	63.505804988662135	79	127
63.598684807256234	63.772834467120184	72	127
63.598684807256234	63.772834467120184	84	127
63.598684807256234	63.772834467120184	65	127
63.598684807256234	63.772834467120184	60	127
63.598684807256234	63.772834467120184	57	127
65.44467120181406	65.90907029478458	76	127
65.44467120181406	65.90907029478458	69	127
65.44467120181406	65.90907029478458	61	127
65.44467120181406	65.90907029478458	57	127
65.44467120181406	65.90907029478458	55	127
65.90907029478458	66.01356009070295	79	127
65.90907029478458	66.01356009070295	69	127
65.90907029478458	66.01356009070295	61	127
65.90907029478458	66.01356009070295	57	127
65.90907029478458	66.01356009070295	52	127
66.08321995464853	66.17609977324263	77	127
66.08321995464853	66.17609977324263	69	127
66.08321995464853	66.17609977324263	61	127
66.08321995464853	66.17609977324263	57	127
66.08321995464853	66.17609977324263	53	127
66.26897959183674	66.35022675736961	76	127
66.26897959183674	66.35022675736961	69	127
66.26897959183674	66.35022675736961	61	127
66.26897959183674	66.35022675736961	57	127
66.26897959183674	66.35022675736961	55	127
66.44312925170068	66.61727891156463	53	127
66.44312925170068	66.61727891156463	57	127
66.44312925170068	66.61727891156463	62	127
66.44312925170068	66.61727891156463	69	127
66.44312925170068	66.61727891156463	81	127
71.23804988662131	71.4354195011338	62	127
71.23804988662131	71.4354195011338	50	127
71.23804988662131	71.55151927437642	74	127
71.55151927437642	71.65600907029479	78	127
71.65600907029479	71.83015873015873	66	127
71.65600907029479	71.83015873015873	62	127
71.65600907029479	71.9346485260771	69	127
71.9346485260771	71.98108843537415	78	127
71.98108843537415	72.17843537414966	74	127
71.98108843537415	72.10879818594104	50	127
71.98108843537415	72.10879818594104	62	127
72.17843537414966	72.25972789115646	78	127
72.25972789115646	72.43385487528344	66	127
72.25972789115646	72.43385487528344	62	127
72.25972789115646	72.50353741496599	69	127
72.50353741496599	72.57319727891156	78	127
72.57319727891156	72.73573696145125	50	127
72.57319727891156	72.73573696145125	62	127
72.57319727891156	72.80539682539683	74	127
72.80539682539683	72.89827664399093	78	127
72.89827664399093	73.08403628117914	66	127
72.89827664399093	73.17689342403628	69	127
72.89827664399093	73.08403628117914	62	127
73.17689342403628	73.25818594104308	78	127
73.25818594104308	73.43231292517007	50	127
73.25818594104308	73.43231292517007	62	127
73.25818594104308	73.51360544217687	74	127
73.51360544217687	73.60648526077098	78	127
73.60648526077098	73.78063492063492	66	127
73.60648526077098	73.78063492063492	62	127
73.60648526077098	73.87351473922902	69	127
73.87351473922902	73.97800453514739	78	127
73.97800453514739	74.18698412698413	45	127
73.97800453514739	74.18698412698413	57	127
73.97800453514739	74.27986394557823	83	127
74.27986394557823	74.37274376417234	81	127
74.37274376417234	74.55850340136054	67	127
74.37274376417234	74.55850340136054	64	127
74.37274376417234	74.55850340136054	57	127
74.37274376417234	74.81392290249433	81	127
74.74426303854875	74.86036281179139	57	127
74.74426303854875	74.86036281179139	45	127
74.81392290249433	74.9184126984127	80	127
74.9184126984127	75.03451247165533	79	127
75.03451247165533	75.16222222222223	78	127
75.03451247165533	75.22024943310657	57	127
75.03451247165533	75.22024943310657	64	127
75.03451247165533	75.22024943310657	67	127
75.16222222222223	75.28993197278912	77	127
75.28993197278912	75.39442176870749	76	127
75.39442176870749	75.49891156462586	75	127
75.39442176870749	75.5453514739229	57	127
75.39442176870749	75.5453514739229	45	127
75.49891156462586	75.60337868480725	74	127
75.60337868480725	75.71950113378685	73	127
75.71950113378685	75.90526077097506	67	127
75.71950113378685	75.90526077097506	57	127
75.71950113378685	75.83560090702947	72	127
75.71950113378685	75.90526077097506	64	127
75.83560090702947	75.96328798185941	71	127
75.96328798185941	76.0909977324263	70	127
76.0909977324263	76.25356009070295	45	127
76.0909977324263	76.2071201814059	69	127
76.0909977324263	76.25356009070295	57	127
76.2071201814059	76.3	73	127
76.3	76.42770975056689	71	127
76.42770975056689	76.6134693877551	57	127
76.42770975056689	76.6134693877551	64	127
76.42770975056689	76.6134693877551	67	127
76.42770975056689	76.55541950113378	69	127
76.55541950113378	76.68312925170068	71	127
76.68312925170068	76.79922902494332	73	127
76.79922902494332	77.06625850340136	74	127
76.79922902494332	76.97337868480726	50	127
76.79922902494332	76.97337868480726	62	127
77.06625850340136	77.15913832199547	78	127
77.15913832199547	77.34489795918367	66	127
77.15913832199547	77.34489795918367	62	127
77.15913832199547	77.42616780045351	69	127
77.42616780045351	77.49580498866213	78	127
77.49580498866213	77.72802721088435	74	127
77.49580498866213	77.63514739229025	50	127
77.49580498866213	77.63514739229025	62	127
77.72802721088435	77.82090702947846	78	127
77.82090702947846	78.0066439909297	66	127
77.82090702947846	78.0066439909297	62	127
77.82090702947846	78.09954648526077	69	127
78.09954648526077	78.20403628117914	78	127
78.20403628117914	78.37818594104309	50	127
78.20403628117914	78.37818594104309	62	127
78.20403628117914	78.47106575963718	74	127
78.47106575963718	78.5639455782313	78	127
78.5639455782313	78.84258503401361	69	127
78.5639455782313	78.7497052154195	66	127
78.5639455782313	78.7497052154195	62	127
78.84258503401361	78.91224489795918	78	127
78.91224489795918	79.05156462585035	50	127
78.91224489795918	79.05156462585035	62	127
78.91224489795918	79.14444444444445	74	127
79.14444444444445	79.23732426303854	78	127
79.23732426303854	79.39986394557823	66	127
79.23732426303854	79.39986394557823	62	127
79.23732426303854	79.4695238095238	69	127
79.4695238095238	79.56240362811792	78	127
79.56240362811792	79.7249433106576	45	127
79.56240362811792	79.7249433106576	57	127
79.56240362811792	79.82943310657596	83	127
79.82943310657596	79.9455328798186	81	127
79.9455328798186	80.10807256235827	67	127
79.9455328798186	80.10807256235827	64	127
79.9455328798186	80.10807256235827	57	127
79.9455328798186	80.40990929705215	81	127
80.29383219954649	80.4795918367347	57	127
80.29383219954649	80.4795918367347	45	127
80.40990929705215	80.54925170068027	80	127
80.54925170068027	80.65374149659864	79	127
80.65374149659864	80.74662131519274	78	127
80.65374149659864	80.80467120181406	57	127
80.65374149659864	80.80467120181406	67	127
80.65374149659864	80.80467120181406	64	127
80.74662131519274	80.85111111111111	77	127
80.85111111111111	80.90916099773243	76	127
80.90916099773243	81.03687074829932	75	127
80.90916099773243	81.1065306122449	57	127
80.90916099773243	81.1065306122449	45	127
81.03687074829932	81.17616780045351	74	127
81.17616780045351	81.31551020408163	73	127
81.31551020408163	81.50126984126985	64	127
81.31551020408163	81.50126984126985	67	127
81.31551020408163	81.50126984126985	57	127
81.31551020408163	81.4315873015873	72	127
81.4315873015873	81.5592970521542	71	127
81.5592970521542	81.67541950113379	70	127
81.67541950113379	81.84956916099773	45	127
81.67541950113379	81.79151927437641	69	127
81.67541950113379	81.84956916099773	57	127
81.79151927437641	81.90761904761905	73	127
81.90761904761905	82.02371882086167	71	127
82.02371882086167	82.18625850340136	57	127
82.02371882086167	82.18625850340136	64	127
82.02371882086167	82.18625850340136	67	127
82.02371882086167	82.13981859410431	69	127
82.13981859410431	82.24430839002268	71	127
82.24430839002268	82.37201814058957	73	127
82.37201814058957	82.58097505668934	62	127
82.37201814058957	82.58097505668934	50	127
82.37201814058957	82.67387755102041	74	127
82.67387755102041	82.74353741496599	78	127
82.74353741496599	82.95251700680272	66	127
82.74353741496599	82.95251700680272	62	127
82.74353741496599	83.04539682539682	69	127
83.04539682539682	83.14988662131519	78	127
83.14988662131519	83.35886621315193	74	127
83.14988662131519	83.30081632653061	50	127
83.14988662131519	83.30081632653061	62	127
83.35886621315193	83.45172335600907	78	127
83.45172335600907	83.63750566893424	66	127
83.45172335600907	83.63750566893424	62	127
83.45172335600907	83.69555555555556	69	127
83.69555555555556	83.76521541950113	78	127
83.76521541950113	83.92775510204082	50	127
83.76521541950113	83.92775510204082	62	127
83.76521541950113	84.00902494331066	74	127
84.00902494331066	84.10190476190476	78	127
84.10190476190476	84.38054421768707	69	127
84.10190476190476	84.28766439909298	62	127
84.10190476190476	84.28766439909298	66	127
84.38054421768707	84.47340136054422	78	127
84.47340136054422	84.68240362811791	50	127
84.47340136054422	84.68240362811791	62	127
84.47340136054422	84.77528344671202	74	127
84.77528344671202	84.8565306122449	78	127
84.8565306122449	85.08875283446712	69	127
84.8565306122449	84.99587301587302	66	127
84.8565306122449	84.99587301587302	62	127
85.08875283446712	85.18163265306123	78	127
85.18163265306123	85.36736961451247	49	127
85.18163265306123	85.46027210884354	73	127
85.46027210884354	85.50671201814059	78	127
85.50671201814059	85.68086167800453	57	127
85.50671201814059	85.75049886621315	69	127
85.50671201814059	85.68086167800453	61	127
85.75049886621315	85.85501133786848	78	127
85.85501133786848	86.02916099773243	49	127
85.85501133786848	86.098820861678	73	127
86.098820861678	86.1917006802721	78	127
86.1917006802721	86.37746031746032	57	127
86.1917006802721	86.47034013605442	69	127
86.1917006802721	86.37746031746032	61	127
86.47034013605442	86.56321995464853	78	127
86.56321995464853	86.74895691609977	49	127
86.56321995464853	86.84185941043084	73	127
86.84185941043084	86.93473922902494	77	127
86.93473922902494	87.13208616780045	61	127
86.93473922902494	87.13208616780045	59	127
86.93473922902494	87.13208616780045	65	127
86.93473922902494	87.22498866213152	71	127
87.22498866213152	87.30625850340137	77	127
87.30625850340137	87.57328798185941	73	127
87.30625850340137	87.48040816326531	49	127
87.57328798185941	87.67777777777778	77	127
87.67777777777778	87.86353741496599	61	127
87.67777777777778	87.86353741496599	59	127
87.67777777777778	87.86353741496599	65	127
87.67777777777778	87.94480725623583	71	127
87.94480725623583	88.0260544217687	73	127
88.0260544217687	88.32793650793651	66	127
88.0260544217687	88.32793650793651	61	127
88.0260544217687	88.32793650793651	57	127
88.0260544217687	88.32793650793651	54	127
89.83723356009071	90.1507029478458	69	127
89.83723356009071	90.1507029478458	81	127
90.1507029478458	90.52222222222223	90	127
90.1507029478458	90.52222222222223	78	127
90.52222222222223	90.88213151927438	81	127
90.52222222222223	90.88213151927438	93	127
91.25365079365079	91.61356009070295	69	127
91.25365079365079	91.61356009070295	81	127
91.61356009070295	92.0082993197279	90	127
91.61356009070295	92.0082993197279	78	127
92.0082993197279	92.32176870748299	81	127
92.0082993197279	92.32176870748299	93	127
92.68167800453514	93.02997732426304	78	127
92.68167800453514	93.02997732426304	90	127
93.02997732426304	93.28539682539683	81	127
93.02997732426304	93.28539682539683	93	127
93.28539682539683	93.34342403628118	83	127
93.28539682539683	93.34342403628118	95	127
93.34342403628118	93.3898866213152	81	127
93.34342403628118	93.3898866213152	93	127
93.3898866213152	93.58725623582767	79	127
93.3898866213152	93.58725623582767	91	127
93.58725623582767	93.77301587301588	78	127
93.58725623582767	93.77301587301588	90	127
93.77301587301588	93.95877551020408	78	127
93.77301587301588	93.95877551020408	90	127
93.95877551020408	94.14453514739229	76	127
93.95877551020408	94.14453514739229	88	127
95.57256235827664	95.92086167800454	71	127
95.57256235827664	95.92086167800454	83	127
95.92086167800454	96.28077097505668	79	127
95.92086167800454	96.28077097505668	91	127
96.28077097505668	96.60585034013606	83	127
96.28077097505668	96.60585034013606	95	127
96.96575963718821	97.2792290249433	83	127
96.96575963718821	97.2792290249433	71	127
97.2792290249433	97.65074829931973	79	127
97.2792290249433	97.65074829931973	91	127
97.65074829931973	98.02226757369614	83	127
97.65074829931973	98.02226757369614	95	127
98.39378684807257	99.1368253968254	83	127
98.39378684807257	99.1368253968254	95	127
99.1368253968254	99.33419501133787	79	127
99.1368253968254	99.33419501133787	91	127
99.33419501133787	99.53156462585034	88	127
99.33419501133787	99.53156462585034	76	127
99.53156462585034	99.86825396825397	86	127
99.53156462585034	99.86825396825397	74	127
100.57646258503401	100.88993197278911	77	127
100.57646258503401	100.88993197278911	89	127
100.88993197278911	101.24984126984127	86	127
100.88993197278911	101.24984126984127	98	127
101.24984126984127	101.63297052154195	89	127
101.24984126984127	101.63297052154195	101	127
101.98126984126984	102.29473922902494	77	127
101.98126984126984	102.29473922902494	89	127
102.29473922902494	102.561768707483	86	127
102.29473922902494	102.561768707483	98	127
102.561768707483	102.87523809523809	89	127
102.561768707483	102.87523809523809	101	127
103.24675736961451	103.64149659863945	100	127
103.24675736961451	103.64149659863945	88	127
103.64149659863945	103.98979591836735	79	127
103.64149659863945	103.98979591836735	91	127
103.98979591836735	104.30326530612246	82	127
103.98979591836735	104.30326530612246	94	127
104.63995464852607	104.9766439909297	81	127
104.63995464852607	104.9766439909297	93	127
104.9766439909297	105.35977324263038	83	127
104.9766439909297	105.35977324263038	95	127
105.35977324263038	106.10281179138322	100	127
105.35977324263038	106.10281179138322	88	127
106.10281179138322	106.82263038548753	98	127
106.10281179138322	106.82263038548753	86	127
106.82263038548753	107.17092970521541	81	127
106.82263038548753	107.17092970521541	93	127
107.17092970521541	107.29863945578231	66	127
107.17092970521541	107.29863945578231	78	127
107.29863945578231	107.4263492063492	79	127
107.29863945578231	107.4263492063492	67	127
107.4263492063492	107.5540589569161	80	127
107.4263492063492	107.5540589569161	68	127
107.5540589569161	107.68176870748299	81	127
107.5540589569161	107.68176870748299	69	127
107.68176870748299	107.79786848072563	80	127
107.68176870748299	107.79786848072563	68	127
107.79786848072563	107.91396825396825	81	127
107.79786848072563	107.91396825396825	69	127
107.91396825396825	108.03006802721089	78	127
107.91396825396825	108.03006802721089	90	127
108.03006802721089	108.13455782312926	76	127
108.03006802721089	108.13455782312926	88	127
108.13455782312926	108.22743764172336	85	127
108.13455782312926	108.22743764172336	73	127
108.22743764172336	108.32031746031745	88	127
108.22743764172336	108.32031746031745	76	127
108.32031746031745	108.41319727891157	86	127
108.32031746031745	108.41319727891157	74	127
108.41319727891157	108.52929705215419	69	127
108.41319727891157	108.52929705215419	81	127
108.52929705215419	108.64539682539683	66	127
108.52929705215419	108.64539682539683	78	127
108.64539682539683	108.77310657596372	67	127
108.64539682539683	108.77310657596372	79	127
108.77310657596372	108.86598639455782	80	127
108.77310657596372	108.86598639455782	68	127
108.86598639455782	109.05174603174603	81	127
108.86598639455782	109.05174603174603	69	127
109.05174603174603	109.16784580498866	68	127
109.05174603174603	109.16784580498866	80	127
109.16784580498866	109.29555555555555	69	127
109.16784580498866	109.29555555555555	81	127
109.29555555555555	109.42326530612245	90	127
109.29555555555555	109.42326530612245	78	127
109.42326530612245	109.55097505668934	88	127
109.42326530612245	109.55097505668934	76	127
109.55097505668934	109.65546485260771	73	127
109.55097505668934	109.65546485260771	85	127
109.65546485260771	109.75995464852608	76	127
109.65546485260771	109.75995464852608	88	127
109.75995464852608	109.88766439909297	86	127
109.75995464852608	109.88766439909297	74	127
109.88766439909297	110.00376417233561	81	127
109.88766439909297	110.00376417233561	69	127
110.00376417233561	110.0966439909297	67	127
110.00376417233561	110.0966439909297	79	127
110.0966439909297	110.21274376417233	81	127
110.0966439909297	110.21274376417233	69	127
110.21274376417233	110.30562358276644	82	127
110.21274376417233	110.30562358276644	70	127
110.30562358276644	110.43333333333334	83	127
110.30562358276644	110.43333333333334	71	127
110.43333333333334	110.5378231292517	84	127
110.43333333333334	110.5378231292517	72	127
110.5378231292517	110.6655328798186	83	127
110.5378231292517	110.6655328798186	71	127
110.6655328798186	110.79324263038549	83	127
110.6655328798186	110.79324263038549	95	127
110.79324263038549	110.90934240362812	91	127
110.79324263038549	110.90934240362812	79	127
110.90934240362812	111.01383219954648	90	127
110.90934240362812	111.01383219954648	78	127
111.01383219954648	111.14154195011338	91	127
111.01383219954648	111.14154195011338	79	127
111.14154195011338	111.26925170068027	76	127
111.14154195011338	111.26925170068027	88	127
111.26925170068027	111.39696145124717	71	127
111.26925170068027	111.39696145124717	83	127
111.39696145124717	111.50145124716553	79	127
111.39696145124717	111.50145124716553	67	127
111.50145124716553	111.62916099773243	69	127
111.50145124716553	111.62916099773243	81	127
111.62916099773243	111.75687074829932	82	127
111.62916099773243	111.75687074829932	70	127
111.75687074829932	111.87297052154194	71	127
111.75687074829932	111.87297052154194	83	127
111.87297052154194	111.98907029478458	72	127
111.87297052154194	111.98907029478458	84	127
111.98907029478458	112.1051700680272	71	127
111.98907029478458	112.1051700680272	83	127
112.1051700680272	112.18643990929705	83	127
112.1051700680272	112.18643990929705	95	127
112.18643990929705	112.31414965986394	91	127
112.18643990929705	112.31414965986394	79	127
112.31414965986394	112.44185941043084	90	127
112.31414965986394	112.44185941043084	78	127
112.44185941043084	112.56956916099773	91	127
112.44185941043084	112.56956916099773	79	127
112.56956916099773	112.69727891156462	76	127
112.56956916099773	112.69727891156462	88	127
112.69727891156462	112.82498866213152	83	127
112.69727891156462	112.82498866213152	71	127
112.82498866213152	112.92947845804989	76	127
112.82498866213152	112.92947845804989	64	127
112.92947845804989	113.02235827664398	79	127
112.92947845804989	113.02235827664398	67	127
113.02235827664398	113.15006802721088	80	127
113.02235827664398	113.15006802721088	68	127
113.15006802721088	113.27777777777777	69	127
113.15006802721088	113.27777777777777	81	127
113.27777777777777	113.38226757369614	71	127
113.27777777777777	113.38226757369614	83	127
113.38226757369614	113.50997732426303	81	127
113.38226757369614	113.50997732426303	69	127
113.50997732426303	113.62607709750567	81	127
113.50997732426303	113.62607709750567	93	127
113.62607709750567	113.75378684807256	79	127
113.62607709750567	113.75378684807256	91	127
113.75378684807256	113.86988662131519	88	127
113.75378684807256	113.86988662131519	76	127
113.86988662131519	113.98598639455783	79	127
113.86988662131519	113.98598639455783	91	127
113.98598639455783	114.0904761904762	76	127
113.98598639455783	114.0904761904762	88	127
114.0904761904762	114.21818594104309	85	127
114.0904761904762	114.21818594104309	73	127
114.21818594104309	114.32267573696146	64	127
114.21818594104309	114.32267573696146	76	127
114.32267573696146	114.42716553287981	67	127
114.32267573696146	114.42716553287981	79	127
114.42716553287981	114.56648526077097	68	127
114.42716553287981	114.56648526077097	80	127
114.56648526077097	114.6825850340136	69	127
114.56648526077097	114.6825850340136	81	127
114.6825850340136	114.82190476190476	71	127
114.6825850340136	114.82190476190476	83	127
114.82190476190476	114.94961451247165	69	127
114.82190476190476	114.94961451247165	81	127
114.94961451247165	115.07732426303855	81	127
114.94961451247165	115.07732426303855	93	127
115.07732426303855	115.18181405895692	79	127
115.07732426303855	115.18181405895692	91	127
115.18181405895692	115.28630385487529	76	127
115.18181405895692	115.28630385487529	88	127
115.28630385487529	115.40240362811791	91	127
115.28630385487529	115.40240362811791	79	127
115.40240362811791	115.50689342403628	88	127
115.40240362811791	115.50689342403628	76	127
115.50689342403628	115.59977324263039	85	127
115.50689342403628	115.59977324263039	73	127
115.59977324263039	115.72748299319728	78	127
115.59977324263039	115.72748299319728	66	127
115.72748299319728	115.85519274376418	79	127
115.72748299319728	115.85519274376418	67	127
115.85519274376418	115.98290249433107	80	127
115.85519274376418	115.98290249433107	68	127
115.98290249433107	116.0990022675737	81	127
115.98290249433107	116.0990022675737	69	127
116.0990022675737	116.22671201814059	80	127
116.0990022675737	116.22671201814059	68	127
116.22671201814059	116.35442176870748	81	127
116.22671201814059	116.35442176870748	69	127
116.35442176870748	116.47052154195012	90	127
116.35442176870748	116.47052154195012	78	127
116.47052154195012	116.58662131519274	76	127
116.47052154195012	116.58662131519274	88	127
116.58662131519274	116.69111111111111	73	127
116.58662131519274	116.69111111111111	85	127
116.69111111111111	116.78399092970521	76	127
116.69111111111111	116.78399092970521	88	127
116.78399092970521	116.88848072562358	86	127
116.78399092970521	116.88848072562358	74	127
116.88848072562358	117.00458049886622	69	127
116.88848072562358	117.00458049886622	81	127
117.00458049886622	117.13229024943311	78	127
117.00458049886622	117.13229024943311	66	127
117.13229024943311	117.24839002267574	79	127
117.13229024943311	117.24839002267574	67	127
117.24839002267574	117.37609977324263	68	127
117.24839002267574	117.37609977324263	80	127
117.37609977324263	117.49219954648527	81	127
117.37609977324263	117.49219954648527	69	127
117.49219954648527	117.61990929705216	80	127
117.49219954648527	117.61990929705216	68	127
117.61990929705216	117.74761904761905	81	127
117.61990929705216	117.74761904761905	69	127
117.74761904761905	117.86371882086168	90	127
117.74761904761905	117.86371882086168	78	127
117.86371882086168	117.96820861678005	88	127
117.86371882086168	117.96820861678005	76	127
117.96820861678005	118.09591836734694	73	127
117.96820861678005	118.09591836734694	85	127
118.09591836734694	118.21201814058956	88	127
118.09591836734694	118.21201814058956	76	127
118.21201814058956	118.29328798185941	74	127
118.21201814058956	118.29328798185941	86	127
118.29328798185941	118.40938775510205	81	127
118.29328798185941	118.40938775510205	69	127
118.40938775510205	118.53709750566894	71	127
118.40938775510205	118.53709750566894	83	127
118.53709750566894	118.61836734693877	69	127
118.53709750566894	118.61836734693877	81	127
118.61836734693877	118.72285714285714	77	127
118.61836734693877	118.72285714285714	65	127
118.72285714285714	118.83895691609978	67	127
118.72285714285714	118.83895691609978	79	127
118.83895691609978	118.96666666666667	78	127
118.83895691609978	118.96666666666667	66	127
118.96666666666667	119.05954648526077	61	127
118.96666666666667	119.05954648526077	73	127
119.05954648526077	119.1756462585034	76	127
119.05954648526077	119.1756462585034	64	127
119.1756462585034	119.28013605442177	62	127
119.1756462585034	119.28013605442177	74	127
119.28013605442177	119.3614058956916	68	127
119.28013605442177	119.3614058956916	56	127
119.3614058956916	119.46589569160997	59	127
119.3614058956916	119.46589569160997	71	127
119.46589569160997	119.57038548752834	69	127
119.46589569160997	119.57038548752834	57	127
119.57038548752834	119.66326530612245	53	127
119.57038548752834	119.66326530612245	65	127
119.66326530612245	119.76775510204082	67	127
119.66326530612245	119.76775510204082	55	127
119.76775510204082	119.89546485260772	54	127
119.76775510204082	119.89546485260772	66	127
119.89546485260772	119.98834467120182	49	127
119.89546485260772	119.98834467120182	61	127
119.98834467120182	120.09283446712018	64	127
119.98834467120182	120.09283446712018	52	127
120.09283446712018	120.20893424036281	50	127
120.09283446712018	120.20893424036281	62	127
120.20893424036281	120.34825396825397	56	127
120.20893424036281	120.34825396825397	44	127
120.34825396825397	120.4643537414966	47	127
120.34825396825397	120.4643537414966	59	127
120.4643537414966	120.55723356009071	57	127
120.4643537414966	120.55723356009071	45	127
120.55723356009071	120.67333333333333	41	127
120.55723356009071	120.67333333333333	53	127
120.67333333333333	120.7778231292517	43	127
120.67333333333333	120.7778231292517	55	127
120.7778231292517	120.8707029478458	54	127
120.7778231292517	120.8707029478458	42	127
120.8707029478458	120.97519274376417	38	127
120.8707029478458	120.97519274376417	50	127
120.97519274376417	122.40321995464852	62	127
120.97519274376417	122.40321995464852	53	127
120.97519274376417	122.40321995464852	58	127
120.97519274376417	122.40321995464852	34	127
120.97519274376417	122.40321995464852	46	127
122.40321995464852	123.81963718820862	54	127
122.40321995464852	123.81963718820862	57	127
122.40321995464852	122.54253968253968	77	127
122.40321995464852	123.81963718820862	46	127
122.40321995464852	123.81963718820862	51	127
122.54253968253968	122.6586394557823	75	127
122.6586394557823	122.76312925170068	71	127
122.76312925170068	122.87922902494331	74	127
122.87922902494331	122.99532879818594	72	127
122.99532879818594	123.0998185941043	68	127
123.0998185941043	123.21591836734694	70	127
123.21591836734694	123.3552380952381	69	127
123.3552380952381	123.48294784580499	64	127
123.48294784580499	123.62226757369615	66	127
123.62226757369615	123.72675736961452	65	127
123.72675736961452	123.81963718820862	63	127
123.81963718820862	125.24766439909297	58	127
123.81963718820862	125.24766439909297	62	127
123.81963718820862	125.24766439909297	46	127
123.81963718820862	125.24766439909297	50	127
123.81963718820862	125.24766439909297	53	127
125.24766439909297	126.66408163265307	51	127
125.24766439909297	126.66408163265307	46	127
125.24766439909297	126.66408163265307	54	127
125.24766439909297	125.3637641723356	77	127
125.24766439909297	126.66408163265307	57	127
125.3637641723356	125.4914739229025	75	127
125.4914739229025	125.6191836734694	71	127
125.6191836734694	125.73528344671202	74	127
125.73528344671202	125.86299319727891	72	127
125.86299319727891	125.96748299319728	68	127
125.96748299319728	126.06036281179138	70	127
126.06036281179138	126.19968253968254	69	127
126.19968253968254	126.32739229024943	64	127
126.32739229024943	126.44349206349206	66	127
126.44349206349206	126.53637188208617	65	127
126.53637188208617	126.66408163265307	63	127
126.66408163265307	126.93111111111111	50	127
126.66408163265307	126.93111111111111	53	127
126.66408163265307	126.93111111111111	46	127
126.66408163265307	126.75696145124716	62	127
126.66408163265307	126.93111111111111	58	127
126.75696145124716	126.81501133786848	65	127
126.81501133786848	126.93111111111111	70	127
126.93111111111111	127.07043083900227	65	127
127.07043083900227	127.1865306122449	70	127
127.1865306122449	127.31424036281179	74	127
127.31424036281179	127.43034013605443	70	127
127.43034013605443	127.54643990929705	74	127
127.54643990929705	127.63931972789116	77	127
127.63931972789116	127.75541950113379	74	127
127.75541950113379	127.89473922902495	77	127
127.89473922902495	127.9992290249433	82	127
127.9992290249433	129.3808163265306	74	127
127.9992290249433	128.1269387755102	46	127
127.9992290249433	129.3808163265306	77	127
127.9992290249433	129.3808163265306	86	127
127.9992290249433	129.3808163265306	80	127
128.1269387755102	128.23142857142858	50	127
128.23142857142858	128.33591836734695	53	127
128.33591836734695	128.42879818594105	50	127
128.42879818594105	128.53328798185942	53	127
128.53328798185942	128.62616780045352	58	127
128.62616780045352	128.74226757369615	53	127
128.74226757369615	128.86997732426303	58	127
128.86997732426303	128.99768707482994	62	127
128.99768707482994	129.1137641723356	58	127
129.1137641723356	129.24149659863946	62	127
129.24149659863946	129.3808163265306	65	127
129.3808163265306	130.86689342403628	57	127
129.3808163265306	130.86689342403628	66	127
129.3808163265306	129.5201133786848	69	127
129.3808163265306	130.86689342403628	62	127
129.5201133786848	129.6362358276644	74	127
129.6362358276644	129.7755328798186	78	127
129.7755328798186	129.91487528344672	74	127
129.91487528344672	130.0193650793651	78	127
130.0193650793651	130.13544217687075	81	127
130.13544217687075	130.25156462585034	78	127
130.25156462585034	130.37927437641724	81	127
130.37927437641724	130.50698412698412	86	127
130.50698412698412	130.62308390022676	81	127
130.62308390022676	130.7507709750567	86	127
130.7507709750567	130.86689342403628	90	127
130.86689342403628	130.99460317460318	57	127
130.86689342403628	132.15560090702948	85	127
130.86689342403628	132.15560090702948	81	127
130.86689342403628	132.15560090702948	93	127
130.86689342403628	132.15560090702948	88	127
130.99460317460318	131.1107029478458	64	127
131.1107029478458	131.21519274376416	67	127
131.21519274376416	131.29646258503402	64	127
131.29646258503402	131.4241723356009	67	127
131.4241723356009	131.5518820861678	69	127
131.5518820861678	131.6795918367347	67	127
131.6795918367347	131.7144217687075	69	127
131.7144217687075	131.79569160997733	73	127
131.79569160997733	131.91179138321996	69	127
131.91179138321996	132.02786848072563	73	127
132.02786848072563	132.15560090702948	76	127
132.15560090702948	132.5387074829932	69	127
132.15560090702948	132.44585034013605	90	127
132.15560090702948	132.5387074829932	81	127
132.15560090702948	132.72448979591837	62	127
132.44585034013605	132.4922902494331	91	127
132.4922902494331	132.5387074829932	90	127
132.5387074829932	132.72448979591837	79	127
132.5387074829932	132.72448979591837	88	127
132.5387074829932	132.72448979591837	73	127
132.72448979591837	132.8057596371882	86	127
132.72448979591837	132.8057596371882	78	127
132.72448979591837	132.8057596371882	74	127
132.72448979591837	132.8057596371882	62	127
132.88702947845806	133.23532879818595	69	127
132.88702947845806	133.23532879818595	86	127
132.88702947845806	133.23532879818595	78	127
132.88702947845806	133.23532879818595	62	127
133.23532879818595	133.6184580498866	62	127
133.23532879818595	133.6184580498866	74	127
133.23532879818595	133.6184580498866	78	127
133.23532879818595	133.6184580498866	86	127
133.6184580498866	133.98997732426304	81	127
133.6184580498866	133.98997732426304	69	127
133.6184580498866	134.1873469387755	62	127
133.6184580498866	133.89709750566894	90	127
133.89709750566894	133.93192743764172	91	127
133.93192743764172	133.98997732426304	90	127
133.98997732426304	134.1873469387755	88	127
133.98997732426304	134.1873469387755	73	127
133.98997732426304	134.1873469387755	79	127
134.1873469387755	134.2802267573696	74	127
134.1873469387755	134.2802267573696	62	127
134.1873469387755	134.2802267573696	86	127
134.1873469387755	134.2802267573696	78	127
134.38471655328797	134.7330158730159	62	127
134.38471655328797	134.7330158730159	78	127
134.38471655328797	134.7330158730159	86	127
134.38471655328797	134.7330158730159	69	127
134.7330158730159	135.00004535147391	78	127
134.7330158730159	135.00004535147391	62	127
134.7330158730159	135.00004535147391	86	127
134.7330158730159	135.00004535147391	74	127
135.00004535147391	135.17419501133787	86	127
135.00004535147391	135.35995464852607	66	127
135.00004535147391	135.5108843537415	59	127
135.00004535147391	135.17419501133787	90	127
135.17419501133787	135.35995464852607	85	127
135.17419501133787	135.35995464852607	88	127
135.35995464852607	135.5108843537415	88	127
135.35995464852607	135.5108843537415	70	127
135.35995464852607	135.5108843537415	85	127
135.5108843537415	135.69664399092972	59	127
135.5108843537415	135.69664399092972	83	127
135.5108843537415	135.69664399092972	71	127
135.5108843537415	135.69664399092972	86	127
135.69664399092972	136.3584126984127	59	127
135.69664399092972	135.99850340136055	66	127
135.69664399092972	136.3584126984127	86	127
135.69664399092972	136.3584126984127	83	127
135.99850340136055	136.3584126984127	71	127
136.3584126984127	136.55578231292517	86	127
136.3584126984127	136.55578231292517	90	127
136.3584126984127	136.93891156462584	59	127
136.3584126984127	136.72990929705216	66	127
136.55578231292517	136.72990929705216	85	127
136.55578231292517	136.72990929705216	88	127
136.72990929705216	136.93891156462584	88	127
136.72990929705216	136.93891156462584	85	127
136.72990929705216	136.93891156462584	70	127
136.93891156462584	137.1130612244898	59	127
136.93891156462584	137.1130612244898	86	127
136.93891156462584	137.1130612244898	83	127
136.93891156462584	137.1130612244898	71	127
137.1130612244898	137.74	86	127
137.1130612244898	137.74	59	127
137.1130612244898	137.40331065759636	66	127
137.1130612244898	137.74	83	127
137.40331065759636	137.74	71	127
137.74	138.26242630385488	74	127
137.74	137.9954195011338	79	127
137.74	137.9954195011338	91	127
137.74	138.26242630385488	86	127
137.9954195011338	138.04185941043085	81	127
137.9954195011338	138.04185941043085	93	127
138.04185941043085	138.0882993197279	91	127
138.04185941043085	138.0882993197279	79	127
138.0882993197279	138.26242630385488	90	127
138.0882993197279	138.26242630385488	78	127
138.26242630385488	138.36691609977325	74	127
138.26242630385488	138.36691609977325	86	127
138.26242630385488	138.36691609977325	76	127
138.26242630385488	138.36691609977325	88	127
138.45981859410432	139.22607709750568	85	127
138.45981859410432	139.22607709750568	76	127
138.45981859410432	139.22607709750568	69	127
138.45981859410432	139.22607709750568	79	127
138.45981859410432	138.83133786848072	95	127
138.83133786848072	139.22607709750568	93	127
139.22607709750568	139.41183673469388	78	127
139.22607709750568	139.3421768707483	90	127
139.22607709750568	139.41183673469388	86	127
139.22607709750568	139.41183673469388	74	127
139.3421768707483	139.4698866213152	91	127
139.4698866213152	139.49308390022676	90	127
139.5627664399093	139.74850340136055	76	127
139.5627664399093	139.6904761904762	88	127
139.5627664399093	139.74850340136055	69	127
139.5627664399093	139.74850340136055	85	127
139.6904761904762	139.8065759637188	90	127
139.8065759637188	139.88784580498867	88	127
139.94589569161	140.32902494331066	74	127
139.94589569161	140.32902494331066	86	127
139.94589569161	140.32902494331066	66	127
140.71215419501135	141.23460317460317	62	127
140.71215419501135	141.0140136054422	90	127
140.71215419501135	141.1068934240363	81	127
140.71215419501135	141.1068934240363	69	127
141.0140136054422	141.06045351473924	91	127
141.06045351473924	141.1068934240363	90	127
141.1068934240363	141.23460317460317	73	127
141.1068934240363	141.23460317460317	88	127
141.1068934240363	141.23460317460317	79	127
141.23460317460317	141.31587301587302	74	127
141.23460317460317	141.31587301587302	62	127
141.23460317460317	141.31587301587302	86	127
141.23460317460317	141.31587301587302	78	127
141.40875283446712	141.72222222222223	62	127
141.40875283446712	141.72222222222223	86	127
141.40875283446712	141.72222222222223	78	127
141.40875283446712	141.72222222222223	69	127
141.72222222222223	142.00086167800453	62	127
141.72222222222223	142.00086167800453	74	127
141.72222222222223	142.00086167800453	78	127
141.72222222222223	142.00086167800453	86	127
142.00086167800453	142.29111111111112	90	127
142.00086167800453	142.38399092970522	69	127
142.00086167800453	142.56975056689342	62	127
142.00086167800453	142.38399092970522	81	127
142.29111111111112	142.33755102040817	91	127
142.33755102040817	142.38399092970522	90	127
142.38399092970522	142.56975056689342	88	127
142.38399092970522	142.56975056689342	79	127
142.38399092970522	142.56975056689342	73	127
142.56975056689342	142.639410430839	78	127
142.56975056689342	142.639410430839	62	127
142.56975056689342	142.639410430839	86	127
142.56975056689342	142.639410430839	74	127
142.7322902494331	143.06895691609978	62	127
142.7322902494331	143.06895691609978	78	127
142.7322902494331	143.06895691609978	86	127
142.7322902494331	143.06895691609978	69	127
143.06895691609978	143.42886621315193	62	127
143.06895691609978	143.42886621315193	86	127
143.06895691609978	143.42886621315193	78	127
143.06895691609978	143.42886621315193	74	127
143.42886621315193	143.97455782312926	59	127
143.42886621315193	143.6146485260771	78	127
143.42886621315193	143.6146485260771	90	127
143.42886621315193	143.6146485260771	86	127
143.42886621315193	143.8004081632653	66	127
143.6146485260771	143.8004081632653	88	127
143.6146485260771	143.8004081632653	76	127
143.6146485260771	143.8004081632653	85	127
143.8004081632653	143.97455782312926	88	127
143.8004081632653	143.97455782312926	85	127
143.8004081632653	143.97455782312926	70	127
143.8004081632653	143.97455782312926	76	127
143.97455782312926	144.1487074829932	86	127
143.97455782312926	144.1487074829932	83	127
143.97455782312926	144.1487074829932	74	127
143.97455782312926	144.1487074829932	71	127
143.97455782312926	144.1487074829932	59	127
144.1487074829932	144.81047619047618	86	127
144.1487074829932	144.45054421768708	66	127
144.1487074829932	144.81047619047618	74	127
144.1487074829932	144.81047619047618	59	127
144.1487074829932	144.81047619047618	83	127
144.45054421768708	144.81047619047618	71	127
144.81047619047618	145.00784580498868	86	127
144.81047619047618	145.39097505668934	59	127
144.81047619047618	145.20521541950114	66	127
144.81047619047618	145.00784580498868	78	127
144.81047619047618	145.00784580498868	90	127
145.00784580498868	145.20521541950114	85	127
145.00784580498868	145.20521541950114	76	127
145.00784580498868	145.20521541950114	88	127
145.20521541950114	145.39097505668934	88	127
145.20521541950114	145.39097505668934	70	127
145.20521541950114	145.39097505668934	85	127
145.20521541950114	145.39097505668934	76	127
145.39097505668934	145.55351473922903	86	127
145.39097505668934	145.55351473922903	59	127
145.39097505668934	145.55351473922903	74	127
145.39097505668934	145.55351473922903	71	127
145.39097505668934	145.55351473922903	83	127
145.55351473922903	145.90181405895692	66	127
145.55351473922903	146.2268934240363	86	127
145.55351473922903	146.2268934240363	83	127
145.55351473922903	146.2268934240363	59	127
145.55351473922903	146.2268934240363	74	127
145.90181405895692	146.2268934240363	71	127
146.2268934240363	146.4707029478458	91	127
146.2268934240363	146.4707029478458	79	127
146.2268934240363	146.74931972789116	74	127
146.2268934240363	146.74931972789116	86	127
146.4707029478458	146.52875283446713	81	127
146.4707029478458	146.52875283446713	93	127
146.52875283446713	146.5635827664399	79	127
146.52875283446713	146.5635827664399	91	127
146.5635827664399	146.74931972789116	90	127
146.5635827664399	146.74931972789116	78	127
146.74931972789116	146.84222222222223	74	127
146.74931972789116	146.84222222222223	86	127
146.74931972789116	146.84222222222223	76	127
146.74931972789116	146.84222222222223	88	127
146.88866213151928	147.24857142857144	95	127
146.88866213151928	147.6200680272109	85	127
146.88866213151928	147.6200680272109	79	127
146.88866213151928	147.6200680272109	69	127
146.88866213151928	147.6200680272109	76	127
147.24857142857144	147.6200680272109	93	127
147.6200680272109	147.7942403628118	78	127
147.6200680272109	147.74780045351474	90	127
147.6200680272109	147.7942403628118	86	127
147.6200680272109	147.7942403628118	74	127
147.74780045351474	147.86390022675738	91	127
147.86390022675738	147.92192743764173	90	127
147.98	148.16575963718822	85	127
147.98	148.1077097505669	88	127
147.98	148.16575963718822	76	127
147.98	148.16575963718822	69	127
148.1077097505669	148.22380952380954	90	127
148.22380952380954	148.28183673469388	88	127
148.35151927437641	148.74625850340135	74	127
148.35151927437641	148.74625850340135	86	127
148.35151927437641	148.74625850340135	66	127
149.1409977324263	149.94208616780045	74	127
149.1409977324263	149.94208616780045	62	127
149.1409977324263	149.94208616780045	66	127
149.94208616780045	150.29038548752834	73	127
149.94208616780045	150.29038548752834	64	127
149.94208616780045	150.29038548752834	67	127
150.70834467120181	151.5326530612245	61	127
150.70834467120181	151.5326530612245	64	127
150.70834467120181	151.5326530612245	79	127
151.5326530612245	151.90417233560092	78	127
151.5326530612245	151.90417233560092	62	127
151.5326530612245	151.90417233560092	66	127
152.1595918367347	152.70526077097506	71	127
152.1595918367347	152.70526077097506	83	127
152.1595918367347	152.87941043083902	53	127
152.1595918367347	153.6340589569161	65	127
152.1595918367347	153.6340589569161	62	127
152.70526077097506	152.87941043083902	85	127
152.70526077097506	152.87941043083902	73	127
152.87941043083902	153.6340589569161	74	127
152.87941043083902	153.6340589569161	54	127
152.87941043083902	153.6340589569161	86	127
153.6340589569161	154.19133786848073	64	127
153.6340589569161	155.0272335600907	57	127
153.6340589569161	154.36546485260772	76	127
153.6340589569161	154.36546485260772	62	127
154.19133786848073	154.36546485260772	66	127
154.36546485260772	155.0272335600907	69	127
154.36546485260772	155.0272335600907	81	127
154.36546485260772	155.0272335600907	61	127
154.36546485260772	155.0272335600907	67	127
155.0272335600907	155.23621315192744	66	127
155.0272335600907	155.23621315192744	78	127
155.0272335600907	155.23621315192744	69	127
155.0272335600907	155.23621315192744	62	127
155.41038548752834	155.75868480725623	54	127
155.41038548752834	155.75868480725623	69	127
155.41038548752834	155.75868480725623	57	127
155.41038548752834	155.75868480725623	66	127
155.75868480725623	155.9560544217687	66	127
155.75868480725623	155.9560544217687	62	127
155.75868480725623	155.9560544217687	50	127
155.75868480725623	155.9560544217687	54	127
162.22544217687076	162.32993197278913	53	127
162.22544217687076	162.32993197278913	50	127
162.22544217687076	162.32993197278913	65	127
162.22544217687076	162.32993197278913	69	127
162.22544217687076	162.32993197278913	57	127
162.32993197278913	162.42281179138322	62	127
162.32993197278913	162.42281179138322	74	127
162.42281179138322	162.51569160997732	65	127
162.42281179138322	162.51569160997732	69	127
162.42281179138322	162.51569160997732	57	127
162.42281179138322	162.51569160997732	53	127
162.42281179138322	162.51569160997732	50	127
162.51569160997732	162.6201814058957	62	127
162.51569160997732	162.6201814058957	74	127
162.6201814058957	162.73628117913833	65	127
162.6201814058957	162.73628117913833	53	127
162.6201814058957	162.73628117913833	50	127
162.6201814058957	162.73628117913833	69	127
162.6201814058957	162.73628117913833	57	127
162.73628117913833	162.8407709750567	62	127
162.73628117913833	162.8407709750567	74	127
162.8407709750567	162.96848072562358	65	127
162.8407709750567	162.96848072562358	69	127
162.8407709750567	162.96848072562358	57	127
162.8407709750567	162.96848072562358	53	127
162.8407709750567	162.96848072562358	50	127
162.96848072562358	163.04975056689344	62	127
162.96848072562358	163.04975056689344	74	127
163.04975056689344	163.4328798185941	53	127
163.04975056689344	163.4328798185941	65	127
163.04975056689344	163.4328798185941	57	127
163.04975056689344	163.4328798185941	69	127
163.04975056689344	163.4328798185941	50	127
163.85083900226758	163.94371882086168	79	127
163.85083900226758	163.94371882086168	84	127
163.85083900226758	163.94371882086168	82	127
163.85083900226758	163.94371882086168	60	127
163.85083900226758	163.94371882086168	55	127
163.85083900226758	163.94371882086168	52	127
163.94371882086168	164.03659863945578	72	127
163.94371882086168	164.03659863945578	64	127
164.03659863945578	164.12945578231293	79	127
164.03659863945578	164.12945578231293	84	127
164.03659863945578	164.12945578231293	82	127
164.03659863945578	164.12945578231293	60	127
164.03659863945578	164.12945578231293	55	127
164.03659863945578	164.12945578231293	52	127
164.12945578231293	164.25718820861678	64	127
164.12945578231293	164.25718820861678	72	127
164.25718820861678	164.37328798185942	84	127
164.25718820861678	164.37328798185942	82	127
164.25718820861678	164.37328798185942	60	127
164.25718820861678	164.37328798185942	55	127
164.25718820861678	164.37328798185942	52	127
164.25718820861678	164.37328798185942	79	127
164.37328798185942	164.46616780045352	72	127
164.37328798185942	164.46616780045352	64	127
164.46616780045352	164.55904761904762	52	127
164.46616780045352	164.55904761904762	82	127
164.46616780045352	164.55904761904762	60	127
164.46616780045352	164.55904761904762	55	127
164.46616780045352	164.55904761904762	79	127
164.46616780045352	164.55904761904762	84	127
164.55904761904762	164.65192743764172	64	127
164.55904761904762	164.65192743764172	72	127
164.65192743764172	164.9770068027211	60	127
164.65192743764172	164.9770068027211	84	127
164.65192743764172	164.9770068027211	82	127
164.65192743764172	164.9770068027211	79	127
164.65192743764172	164.9770068027211	55	127
164.65192743764172	164.9770068027211	52	127
165.34852607709752	165.42979591836735	48	127
165.34852607709752	165.42979591836735	87	127
165.34852607709752	165.42979591836735	45	127
165.34852607709752	165.42979591836735	84	127
165.34852607709752	165.42979591836735	89	127
165.34852607709752	165.42979591836735	53	127
165.42979591836735	165.54589569160999	57	127
165.42979591836735	165.54589569160999	77	127
165.54589569160999	165.6039455782313	89	127
165.54589569160999	165.6039455782313	53	127
165.54589569160999	165.6039455782313	48	127
165.54589569160999	165.6039455782313	45	127
165.54589569160999	165.6039455782313	84	127
165.54589569160999	165.6039455782313	87	127
165.6039455782313	165.67360544217686	77	127
165.6039455782313	165.67360544217686	57	127
165.67360544217686	165.74326530612245	48	127
165.67360544217686	165.74326530612245	84	127
165.67360544217686	165.74326530612245	87	127
165.67360544217686	165.74326530612245	89	127
165.67360544217686	165.74326530612245	53	127
165.67360544217686	165.74326530612245	45	127
165.74326530612245	165.81292517006804	57	127
165.74326530612245	165.81292517006804	77	127
165.81292517006804	165.89419501133787	87	127
165.81292517006804	165.89419501133787	89	127
165.81292517006804	165.89419501133787	53	127
165.81292517006804	165.89419501133787	48	127
165.81292517006804	165.89419501133787	45	127
165.81292517006804	165.89419501133787	84	127
165.89419501133787	165.98707482993197	57	127
165.89419501133787	165.98707482993197	77	127
165.98707482993197	166.21927437641725	89	127
165.98707482993197	166.21927437641725	87	127
165.98707482993197	166.21927437641725	84	127
165.98707482993197	166.21927437641725	53	127
165.98707482993197	166.21927437641725	45	127
165.98707482993197	166.21927437641725	48	127
167.98399092970521	169.04049886621314	74	127
167.98399092970521	168.3671201814059	65	127
167.98399092970521	168.69219954648526	58	127
167.98399092970521	169.42362811791384	62	127
168.3671201814059	168.69219954648526	66	127
168.69219954648526	169.42362811791384	59	127
168.69219954648526	169.04049886621314	67	127
169.04049886621314	169.42362811791384	76	127
169.04049886621314	169.42362811791384	68	127
169.42362811791384	170.1898866213152	78	127
169.42362811791384	170.89809523809524	57	127
169.42362811791384	170.89809523809524	69	127
169.42362811791384	170.22471655328798	66	127
169.42362811791384	170.22471655328798	62	127
170.1898866213152	170.22471655328798	78	127
170.22471655328798	170.89809523809524	67	127
170.22471655328798	170.39886621315193	76	127
170.22471655328798	170.89809523809524	61	127
170.39886621315193	170.58462585034013	75	127
170.58462585034013	170.7587755102041	76	127
170.7587755102041	170.89809523809524	81	127
170.89809523809524	171.24639455782312	65	127
170.89809523809524	171.24639455782312	62	127
170.89809523809524	171.24639455782312	58	127
170.89809523809524	171.24639455782312	74	127
173.74251700680273	173.800589569161	76	127
173.74251700680273	173.800589569161	88	127
173.800589569161	173.93990929705217	74	127
173.800589569161	173.93990929705217	86	127
173.93990929705217	174.05600907029478	73	127
173.93990929705217	174.05600907029478	85	127
174.05600907029478	174.18371882086169	74	127
174.05600907029478	174.18371882086169	86	127
174.18371882086169	174.27659863945578	78	127
174.18371882086169	174.27659863945578	90	127
174.27659863945578	174.39269841269842	74	127
174.27659863945578	174.39269841269842	86	127
174.39269841269842	174.47396825396825	81	127
174.39269841269842	174.47396825396825	69	127
174.47396825396825	174.5087755102041	83	127
174.47396825396825	174.5087755102041	71	127
174.5087755102041	174.63650793650794	81	127
174.5087755102041	174.63650793650794	69	127
174.63650793650794	174.75260770975058	68	127
174.63650793650794	174.75260770975058	80	127
174.75260770975058	174.89192743764173	81	127
174.75260770975058	174.89192743764173	69	127
174.89192743764173	175.01961451247166	86	127
174.89192743764173	175.01961451247166	74	127
175.01961451247166	175.11251700680273	69	127
175.01961451247166	175.11251700680273	81	127
175.11251700680273	175.19378684807256	78	127
175.11251700680273	175.19378684807256	66	127
175.19378684807256	175.2402267573696	67	127
175.19378684807256	175.2402267573696	79	127
175.2402267573696	175.34471655328798	66	127
175.2402267573696	175.34471655328798	78	127
175.34471655328798	175.4724263038549	65	127
175.34471655328798	175.4724263038549	77	127
175.4724263038549	175.5885260770975	66	127
175.4724263038549	175.5885260770975	78	127
175.5885260770975	175.68138321995465	81	127
175.5885260770975	175.68138321995465	69	127
175.68138321995465	175.76267573696146	66	127
175.68138321995465	175.76267573696146	78	127
175.76267573696146	175.82072562358277	62	127
175.76267573696146	175.82072562358277	74	127
175.82072562358277	175.86716553287982	76	127
175.82072562358277	175.86716553287982	64	127
175.86716553287982	175.9716553287982	62	127
175.86716553287982	175.9716553287982	74	127
175.9716553287982	176.09936507936507	73	127
175.9716553287982	176.09936507936507	61	127
176.09936507936507	176.19222222222223	62	127
176.09936507936507	176.19222222222223	74	127
176.19222222222223	176.2851247165533	66	127
176.19222222222223	176.2851247165533	78	127
176.2851247165533	176.35478458049886	74	127
176.2851247165533	176.35478458049886	62	127
176.35478458049886	176.447641723356	69	127
176.35478458049886	176.447641723356	57	127
176.447641723356	176.51732426303855	54	127
176.447641723356	176.51732426303855	66	127
176.51732426303855	176.88884353741497	62	127
176.51732426303855	176.88884353741497	50	127
177.29519274376418	177.6318820861678	50	127
177.29519274376418	177.6318820861678	42	127
177.29519274376418	177.6318820861678	45	127
177.29519274376418	177.6318820861678	81	127
177.29519274376418	177.6318820861678	86	127
177.29519274376418	177.6318820861678	38	127
177.29519274376418	177.6318820861678	74	127
177.29519274376418	177.6318820861678	78	127
178.038231292517	178.36331065759637	50	127
178.038231292517	178.36331065759637	42	127
178.038231292517	178.36331065759637	45	127
178.038231292517	178.36331065759637	38	127
178.038231292517	178.36331065759637	86	127
178.038231292517	178.36331065759637	81	127
178.038231292517	178.36331065759637	78	127
178.038231292517	178.36331065759637	74	127
179.6752380952381	184.2263492063492	59	127
179.6752380952381	184.2263492063492	71	127
184.2263492063492	184.55142857142857	78	127
184.2263492063492	186.9895238095238	71	127
184.2263492063492	184.47015873015874	81	127
184.2263492063492	186.9895238095238	59	127
184.47015873015874	184.50498866213152	83	127
184.50498866213152	184.55142857142857	81	127
184.55142857142857	184.73718820861677	80	127
184.55142857142857	184.73718820861677	76	127
184.73718820861677	184.83004535147393	75	127
184.73718820861677	184.83004535147393	78	127
184.91133786848073	185.30607709750566	76	127
184.91133786848073	185.30607709750566	80	127
185.30607709750566	185.61954648526077	76	127
185.30607709750566	185.61954648526077	80	127
185.61954648526077	185.94462585034015	78	127
185.61954648526077	185.8633560090703	81	127
185.8633560090703	185.90979591836734	83	127
185.90979591836734	185.94462585034015	81	127
185.94462585034015	186.13038548752834	76	127
185.94462585034015	186.13038548752834	80	127
186.13038548752834	186.22326530612244	78	127
186.13038548752834	186.22326530612244	75	127
186.3161224489796	186.9895238095238	76	127
186.3161224489796	186.9895238095238	80	127
192.73646258503402	192.92222222222222	49	127
192.73646258503402	193.02671201814059	80	127
192.73646258503402	193.10798185941044	71	127
193.02671201814059	193.07315192743764	81	127
193.07315192743764	193.10798185941044	80	127
193.10798185941044	193.3053514739229	78	127
193.10798185941044	193.3053514739229	69	127
193.10798185941044	193.3053514739229	61	127
193.3053514739229	193.398231292517	68	127
193.3053514739229	193.398231292517	77	127
193.44467120181406	193.78136054421768	77	127
193.44467120181406	193.61882086167802	49	127
193.44467120181406	193.78136054421768	68	127
193.78136054421768	194.0832199546485	68	127
193.78136054421768	193.94390022675736	61	127
193.78136054421768	194.0832199546485	77	127
194.0832199546485	194.280589569161	73	127
194.0832199546485	194.280589569161	81	127
194.0832199546485	194.280589569161	66	127
194.0832199546485	194.280589569161	54	127
194.280589569161	194.48956916099775	79	127
194.280589569161	194.48956916099775	64	127
194.280589569161	194.48956916099775	57	127
194.280589569161	194.48956916099775	73	127
194.48956916099775	194.5592290249433	73	127
194.48956916099775	194.5592290249433	79	127
194.48956916099775	194.5592290249433	64	127
194.48956916099775	194.5592290249433	57	127
194.61727891156463	194.71015873015872	73	127
194.61727891156463	194.71015873015872	79	127
194.61727891156463	194.71015873015872	64	127
194.61727891156463	194.71015873015872	57	127
194.8146485260771	195.09328798185942	57	127
194.8146485260771	195.09328798185942	73	127
194.8146485260771	195.09328798185942	64	127
194.8146485260771	195.09328798185942	79	127
195.09328798185942	195.24421768707484	74	127
195.09328798185942	195.24421768707484	78	127
195.09328798185942	195.24421768707484	62	127
195.41836734693877	195.55768707482994	47	127
195.41836734693877	195.65056689342404	78	127
195.41836734693877	195.7550566893424	69	127
195.65056689342404	195.6970068027211	80	127
195.6970068027211	195.7550566893424	78	127
195.7550566893424	195.9175963718821	76	127
195.7550566893424	195.9175963718821	59	127
195.7550566893424	195.9175963718821	68	127
195.9175963718821	195.99886621315193	75	127
195.9175963718821	195.99886621315193	66	127
196.09174603174603	196.27750566893425	47	127
196.09174603174603	196.49809523809523	75	127
196.09174603174603	196.49809523809523	66	127
196.49809523809523	196.8231746031746	75	127
196.49809523809523	196.8231746031746	66	127
196.49809523809523	196.64902494331065	59	127
196.8231746031746	196.97410430839003	80	127
196.8231746031746	196.97410430839003	71	127
196.8231746031746	196.97410430839003	64	127
196.8231746031746	196.97410430839003	56	127
196.97410430839003	197.15986394557822	69	127
196.97410430839003	197.15986394557822	63	127
196.97410430839003	197.15986394557822	59	127
196.97410430839003	197.15986394557822	78	127
197.15986394557822	197.24113378684808	78	127
197.15986394557822	197.24113378684808	59	127
197.15986394557822	197.24113378684808	63	127
197.15986394557822	197.24113378684808	69	127
197.33401360544218	197.415283446712	78	127
197.33401360544218	197.415283446712	59	127
197.33401360544218	197.415283446712	63	127
197.33401360544218	197.415283446712	69	127
197.51977324263038	197.90290249433107	78	127
197.51977324263038	197.90290249433107	69	127
197.51977324263038	197.90290249433107	63	127
197.51977324263038	197.90290249433107	59	127
197.90290249433107	198.08866213151927	76	127
197.90290249433107	198.08866213151927	64	127
197.90290249433107	198.08866213151927	68	127
203.7659410430839	203.8936507936508	49	127
203.7659410430839	203.9865306122449	80	127
203.7659410430839	204.079410430839	71	127
203.9865306122449	204.03297052154196	81	127
204.03297052154196	204.079410430839	80	127
204.079410430839	204.28839002267574	78	127
204.079410430839	204.28839002267574	69	127
204.079410430839	204.28839002267574	61	127
204.28839002267574	204.38126984126984	68	127
204.28839002267574	204.38126984126984	77	127
204.47414965986394	204.6715192743764	49	127
204.47414965986394	204.85727891156463	77	127
204.47414965986394	204.85727891156463	68	127
204.85727891156463	205.01981859410432	61	127
204.85727891156463	205.15913832199547	68	127
204.85727891156463	205.15913832199547	77	127
205.15913832199547	205.3100680272109	73	127
205.15913832199547	205.3100680272109	81	127
205.15913832199547	205.3100680272109	66	127
205.15913832199547	205.3100680272109	54	127
205.3100680272109	205.4609977324263	73	127
205.3100680272109	205.4609977324263	79	127
205.3100680272109	205.4609977324263	64	127
205.3100680272109	205.4609977324263	57	127
205.4609977324263	205.5538775510204	73	127
205.4609977324263	205.5538775510204	79	127
205.4609977324263	205.5538775510204	64	127
205.4609977324263	205.5538775510204	57	127
205.6467573696145	205.72802721088436	73	127
205.6467573696145	205.72802721088436	79	127
205.6467573696145	205.72802721088436	64	127
205.6467573696145	205.72802721088436	57	127
205.82090702947846	206.18081632653062	73	127
205.82090702947846	206.18081632653062	79	127
205.82090702947846	206.18081632653062	57	127
205.82090702947846	206.18081632653062	64	127
206.18081632653062	206.36657596371882	74	127
206.18081632653062	206.36657596371882	78	127
206.18081632653062	206.36657596371882	62	127
206.49428571428572	206.64521541950114	47	127
206.49428571428572	206.73809523809524	78	127
206.49428571428572	206.81936507936507	69	127
206.73809523809524	206.77292517006802	80	127
206.77292517006802	206.81936507936507	78	127
206.81936507936507	206.9702947845805	76	127
206.81936507936507	206.9702947845805	68	127
206.81936507936507	206.9702947845805	59	127
206.9702947845805	207.03995464852608	66	127
206.9702947845805	207.03995464852608	75	127
207.14444444444445	207.3185941043084	47	127
207.14444444444445	207.5043537414966	75	127
207.14444444444445	207.5043537414966	66	127
207.5043537414966	207.70172335600907	59	127
207.5043537414966	207.88748299319727	75	127
207.5043537414966	207.88748299319727	66	127
207.88748299319727	208.05002267573695	80	127
207.88748299319727	208.05002267573695	71	127
207.88748299319727	208.05002267573695	64	127
207.88748299319727	208.05002267573695	56	127
208.05002267573695	208.18934240362813	69	127
208.05002267573695	208.18934240362813	63	127
208.05002267573695	208.18934240362813	59	127
208.05002267573695	208.18934240362813	78	127
208.18934240362813	208.28222222222223	69	127
208.18934240362813	208.28222222222223	59	127
208.18934240362813	208.28222222222223	63	127
208.18934240362813	208.28222222222223	78	127
208.37510204081633	208.45637188208616	78	127
208.37510204081633	208.45637188208616	59	127
208.37510204081633	208.45637188208616	63	127
208.37510204081633	208.45637188208616	69	127
208.54925170068026	208.93238095238095	69	127
208.54925170068026	208.93238095238095	63	127
208.54925170068026	208.93238095238095	78	127
208.54925170068026	208.93238095238095	59	127
208.93238095238095	209.1065306122449	68	127
208.93238095238095	209.1065306122449	64	127
208.93238095238095	209.1065306122449	76	127
209.2922902494331	213.58798185941043	71	127
209.2922902494331	213.58798185941043	59	127
213.58798185941043	216.40920634920636	71	127
213.58798185941043	216.40920634920636	59	127
213.58798185941043	213.84340136054422	81	127
213.58798185941043	213.84340136054422	78	127
213.84340136054422	213.90145124716554	83	127
213.84340136054422	213.90145124716554	80	127
213.90145124716554	213.9478911564626	78	127
213.90145124716554	213.9478911564626	81	127
213.9478911564626	214.1336507936508	80	127
213.9478911564626	214.1336507936508	76	127
214.1336507936508	214.20331065759638	78	127
214.1336507936508	214.20331065759638	75	127
214.2845804988662	214.70253968253968	76	127
214.2845804988662	214.70253968253968	80	127
214.70253968253968	214.981179138322	76	127
214.70253968253968	214.981179138322	80	127
214.981179138322	215.28303854875284	78	127
214.981179138322	215.28303854875284	81	127
215.28303854875284	215.3294784580499	83	127
215.28303854875284	215.3294784580499	80	127
215.3294784580499	215.37591836734694	81	127
215.3294784580499	215.37591836734694	78	127
215.37591836734694	215.56167800453514	80	127
215.37591836734694	215.56167800453514	76	127
215.56167800453514	215.6081179138322	75	127
215.56167800453514	215.6081179138322	78	127
215.70099773242632	216.40920634920636	80	127
215.70099773242632	216.40920634920636	76	127
216.40920634920636	216.62979591836734	52	127
216.40920634920636	216.62979591836734	64	127
216.62979591836734	216.67623582766439	54	127
216.62979591836734	216.67623582766439	66	127
216.67623582766439	216.72267573696146	52	127
216.67623582766439	216.72267573696146	64	127
216.72267573696146	216.8968253968254	50	127
216.72267573696146	216.8968253968254	62	127
216.8968253968254	217.00131519274376	60	127
216.8968253968254	217.00131519274376	48	127
217.08258503401362	217.2799546485261	47	127
217.08258503401362	217.2799546485261	59	127
217.47732426303855	217.65147392290248	47	127
217.47732426303855	217.65147392290248	59	127
217.8024036281179	217.98816326530613	69	127
217.8024036281179	217.98816326530613	71	127
217.8024036281179	217.98816326530613	75	127
217.8024036281179	217.98816326530613	59	127
217.8024036281179	217.98816326530613	47	127
217.8024036281179	217.98816326530613	78	127
218.12748299319728	218.31324263038547	78	127
218.12748299319728	218.31324263038547	75	127
218.12748299319728	218.31324263038547	69	127
218.12748299319728	218.31324263038547	59	127
218.12748299319728	218.31324263038547	71	127
218.12748299319728	218.31324263038547	47	127
218.48739229024943	218.64993197278912	71	127
218.48739229024943	218.64993197278912	67	127
218.48739229024943	218.64993197278912	76	127
218.48739229024943	218.64993197278912	52	127
218.48739229024943	218.64993197278912	59	127
218.48739229024943	218.64993197278912	79	127
218.82408163265305	219.32331065759638	81	127
218.82408163265305	219.32331065759638	74	127
218.82408163265305	219.32331065759638	72	127
218.82408163265305	219.32331065759638	50	127
218.82408163265305	219.32331065759638	62	127
218.82408163265305	219.32331065759638	78	127
219.32331065759638	219.41619047619048	83	127
219.32331065759638	219.41619047619048	74	127
219.32331065759638	219.41619047619048	79	127
219.32331065759638	219.41619047619048	67	127
219.32331065759638	219.41619047619048	55	127
219.32331065759638	219.41619047619048	71	127
219.48585034013607	219.57873015873017	83	127
219.48585034013607	219.57873015873017	74	127
219.48585034013607	219.57873015873017	79	127
219.48585034013607	219.57873015873017	71	127
219.48585034013607	219.57873015873017	67	127
219.48585034013607	219.57873015873017	55	127
219.67160997732427	219.76448979591837	83	127
219.67160997732427	219.76448979591837	74	127
219.67160997732427	219.76448979591837	79	127
219.67160997732427	219.76448979591837	67	127
219.67160997732427	219.76448979591837	55	127
219.67160997732427	219.76448979591837	71	127
219.86897959183673	220.0431292517007	74	127
219.86897959183673	220.0431292517007	83	127
219.86897959183673	220.0431292517007	71	127
219.86897959183673	220.0431292517007	55	127
219.86897959183673	220.0431292517007	67	127
219.86897959183673	220.0431292517007	79	127
220.2288888888889	220.39142857142858	86	127
220.2288888888889	220.39142857142858	81	127
220.2288888888889	220.39142857142858	74	127
220.2288888888889	220.39142857142858	54	127
220.2288888888889	220.39142857142858	66	127
220.57718820861678	220.73972789115646	79	127
220.57718820861678	220.73972789115646	74	127
220.57718820861678	220.73972789115646	55	127
220.57718820861678	220.73972789115646	67	127
220.57718820861678	220.73972789115646	83	127
220.9487074829932	221.08802721088435	81	127
220.9487074829932	221.08802721088435	78	127
220.9487074829932	221.08802721088435	72	127
220.9487074829932	221.08802721088435	62	127
220.9487074829932	221.08802721088435	50	127
220.9487074829932	221.08802721088435	74	127
221.2621768707483	221.43632653061223	79	127
221.2621768707483	221.43632653061223	74	127
221.2621768707483	221.43632653061223	55	127
221.2621768707483	221.43632653061223	67	127
221.2621768707483	221.43632653061223	71	127
227.71732426303853	227.93791383219954	52	127
227.71732426303853	227.93791383219954	64	127
227.93791383219954	227.9843537414966	54	127
227.93791383219954	227.9843537414966	66	127
227.9843537414966	228.0424036281179	52	127
227.9843537414966	228.0424036281179	64	127
228.0424036281179	228.22816326530614	50	127
228.0424036281179	228.22816326530614	62	127
228.22816326530614	228.30943310657597	60	127
228.22816326530614	228.30943310657597	48	127
228.3907029478458	228.56485260770975	47	127
228.3907029478458	228.56485260770975	59	127
228.7390022675737	228.94798185941042	47	127
228.7390022675737	228.94798185941042	59	127
229.13374149659865	229.31950113378684	69	127
229.13374149659865	229.31950113378684	78	127
229.13374149659865	229.31950113378684	71	127
229.13374149659865	229.31950113378684	59	127
229.13374149659865	229.31950113378684	47	127
229.13374149659865	229.31950113378684	75	127
229.48204081632653	229.66780045351473	78	127
229.48204081632653	229.66780045351473	71	127
229.48204081632653	229.66780045351473	75	127
229.48204081632653	229.66780045351473	69	127
229.48204081632653	229.66780045351473	59	127
229.48204081632653	229.66780045351473	47	127
229.8419501133787	230.03931972789115	71	127
229.8419501133787	230.03931972789115	79	127
229.8419501133787	230.03931972789115	67	127
229.8419501133787	230.03931972789115	52	127
229.8419501133787	230.03931972789115	59	127
229.8419501133787	230.03931972789115	76	127
230.2134693877551	230.782358276644	81	127
230.2134693877551	230.782358276644	72	127
230.2134693877551	230.782358276644	78	127
230.2134693877551	230.782358276644	50	127
230.2134693877551	230.782358276644	62	127
230.2134693877551	230.782358276644	74	127
230.782358276644	230.86362811791383	83	127
230.782358276644	230.86362811791383	79	127
230.782358276644	230.86362811791383	71	127
230.782358276644	230.86362811791383	67	127
230.782358276644	230.86362811791383	74	127
230.782358276644	230.86362811791383	55	127
230.95650793650793	231.02616780045352	83	127
230.95650793650793	231.02616780045352	79	127
230.95650793650793	231.02616780045352	71	127
230.95650793650793	231.02616780045352	67	127
230.95650793650793	231.02616780045352	55	127
230.95650793650793	231.02616780045352	74	127
231.11904761904762	231.20031746031745	83	127
231.11904761904762	231.20031746031745	74	127
231.11904761904762	231.20031746031745	79	127
231.11904761904762	231.20031746031745	71	127
231.11904761904762	231.20031746031745	67	127
231.11904761904762	231.20031746031745	55	127
231.2815873015873	231.4673469387755	74	127
231.2815873015873	231.4673469387755	71	127
231.2815873015873	231.4673469387755	79	127
231.2815873015873	231.4673469387755	55	127
231.2815873015873	231.4673469387755	67	127
231.2815873015873	231.4673469387755	83	127
231.5950566893424	231.7808163265306	86	127
231.5950566893424	231.7808163265306	74	127
231.5950566893424	231.7808163265306	66	127
231.5950566893424	231.7808163265306	54	127
231.5950566893424	231.7808163265306	81	127
231.97818594104308	232.15233560090704	79	127
231.97818594104308	232.15233560090704	83	127
231.97818594104308	232.15233560090704	55	127
231.97818594104308	232.15233560090704	67	127
231.97818594104308	232.15233560090704	74	127
232.32648526077097	232.5122448979592	81	127
232.32648526077097	232.5122448979592	74	127
232.32648526077097	232.5122448979592	78	127
232.32648526077097	232.5122448979592	72	127
232.32648526077097	232.5122448979592	62	127
232.32648526077097	232.5122448979592	50	127
232.68639455782312	232.86054421768708	71	127
232.68639455782312	232.86054421768708	79	127
232.68639455782312	232.86054421768708	55	127
232.68639455782312	232.86054421768708	67	127
232.68639455782312	232.86054421768708	74	127
233.40621315192743	234.02154195011337	67	127
233.40621315192743	234.02154195011337	64	127
233.40621315192743	233.69646258503403	88	127
233.69646258503403	233.74290249433108	90	127
233.74290249433108	233.78934240362813	88	127
233.78934240362813	234.02154195011337	86	127
234.02154195011337	234.12603174603174	84	127
234.02154195011337	234.21891156462584	66	127
234.02154195011337	234.21891156462584	69	127
234.21891156462584	234.3930612244898	83	127
234.21891156462584	234.578820861678	67	127
234.21891156462584	234.578820861678	71	127
234.578820861678	234.75297052154195	83	127
234.578820861678	234.92712018140588	75	127
234.578820861678	234.92712018140588	69	127
234.92712018140588	235.07804988662133	71	127
234.92712018140588	235.07804988662133	90	127
234.92712018140588	235.26380952380953	75	127
235.07804988662133	235.26380952380953	72	127
235.26380952380953	235.3915192743764	71	127
235.26380952380953	235.3915192743764	90	127
235.26380952380953	235.57727891156463	75	127
235.3915192743764	235.57727891156463	69	127
235.57727891156463	235.75142857142856	91	127
235.57727891156463	235.75142857142856	67	127
235.57727891156463	235.75142857142856	76	127
235.9371882086168	236.47124716553287	86	127
235.9371882086168	236.47124716553287	93	127
235.9371882086168	236.47124716553287	72	127
235.9371882086168	236.47124716553287	78	127
235.9371882086168	236.47124716553287	74	127
236.47124716553287	236.51768707482992	86	127
236.47124716553287	236.51768707482992	96	127
236.47124716553287	236.51768707482992	69	127
236.47124716553287	236.51768707482992	74	127
236.47124716553287	236.51768707482992	78	127
236.57573696145124	236.6802267573696	86	127
236.57573696145124	236.6802267573696	78	127
236.57573696145124	236.6802267573696	74	127
236.57573696145124	236.6802267573696	71	127
236.57573696145124	236.6802267573696	95	127
236.76149659863947	236.85437641723357	93	127
236.76149659863947	236.85437641723357	72	127
236.76149659863947	236.85437641723357	74	127
236.76149659863947	236.85437641723357	86	127
236.76149659863947	236.85437641723357	78	127
236.94725623582767	237.10979591836735	86	127
236.94725623582767	237.10979591836735	98	127
236.94725623582767	237.10979591836735	79	127
236.94725623582767	237.10979591836735	74	127
236.94725623582767	237.10979591836735	71	127
238.7003628117914	239.24603174603175	90	127
238.7003628117914	239.24603174603175	69	127
238.7003628117914	239.24603174603175	71	127
238.7003628117914	239.24603174603175	75	127
238.7003628117914	239.24603174603175	83	127
239.24603174603175	239.32730158730158	93	127
239.24603174603175	239.32730158730158	83	127
239.24603174603175	239.32730158730158	66	127
239.24603174603175	239.32730158730158	71	127
239.24603174603175	239.32730158730158	75	127
239.40857142857143	239.48984126984126	67	127
239.40857142857143	239.48984126984126	71	127
239.40857142857143	239.48984126984126	75	127
239.40857142857143	239.48984126984126	91	127
239.40857142857143	239.48984126984126	83	127
239.58272108843536	239.65238095238095	90	127
239.58272108843536	239.65238095238095	83	127
239.58272108843536	239.65238095238095	71	127
239.58272108843536	239.65238095238095	75	127
239.58272108843536	239.65238095238095	69	127
239.74526077097505	239.919410430839	95	127
239.74526077097505	239.919410430839	83	127
239.74526077097505	239.919410430839	67	127
239.74526077097505	239.919410430839	71	127
239.74526077097505	239.919410430839	76	127
241.463537414966	241.9859863945578	86	127
241.463537414966	241.9859863945578	79	127
241.463537414966	241.9859863945578	71	127
241.463537414966	241.9859863945578	67	127
241.463537414966	241.9859863945578	65	127
241.9859863945578	242.06725623582767	62	127
241.9859863945578	242.06725623582767	67	127
241.9859863945578	242.06725623582767	79	127
241.9859863945578	242.06725623582767	89	127
241.9859863945578	242.06725623582767	71	127
242.13691609977323	242.22979591836736	64	127
242.13691609977323	242.22979591836736	67	127
242.13691609977323	242.22979591836736	79	127
242.13691609977323	242.22979591836736	88	127
242.13691609977323	242.22979591836736	71	127
242.3110657596372	242.4039455782313	67	127
242.3110657596372	242.4039455782313	71	127
242.3110657596372	242.4039455782313	79	127
242.3110657596372	242.4039455782313	86	127
242.3110657596372	242.4039455782313	65	127
242.48521541950115	242.6477551020408	79	127
242.48521541950115	242.6477551020408	91	127
242.48521541950115	242.6477551020408	72	127
242.48521541950115	242.6477551020408	64	127
242.48521541950115	242.6477551020408	67	127
244.27315192743765	244.83043083900228	83	127
244.27315192743765	244.83043083900228	76	127
244.27315192743765	244.83043083900228	68	127
244.27315192743765	244.83043083900228	64	127
244.27315192743765	244.83043083900228	62	127
244.83043083900228	244.93492063492064	76	127
244.83043083900228	244.93492063492064	68	127
244.83043083900228	244.93492063492064	64	127
244.83043083900228	244.93492063492064	59	127
244.83043083900228	244.93492063492064	86	127
245.02780045351474	245.08585034013606	84	127
245.02780045351474	245.08585034013606	76	127
245.02780045351474	245.08585034013606	68	127
245.02780045351474	245.08585034013606	60	127
245.02780045351474	245.08585034013606	64	127
245.15551020408162	245.2251700680272	83	127
245.15551020408162	245.2251700680272	76	127
245.15551020408162	245.2251700680272	68	127
245.15551020408162	245.2251700680272	64	127
245.15551020408162	245.2251700680272	62	127
245.30643990929704	245.480589569161	76	127
245.30643990929704	245.480589569161	64	127
245.30643990929704	245.480589569161	69	127
245.30643990929704	245.480589569161	88	127
245.30643990929704	245.480589569161	60	127
249.95043083900228	250.13619047619048	69	127
249.95043083900228	250.13619047619048	57	127
249.95043083900228	250.24068027210885	81	127
250.24068027210885	250.34517006802722	85	127
250.34517006802722	250.5077097505669	73	127
250.34517006802722	250.5077097505669	69	127
250.34517006802722	250.58897959183673	76	127
250.58897959183673	250.68185941043083	85	127
250.68185941043083	250.96049886621316	81	127
250.68185941043083	250.86761904761906	69	127
250.68185941043083	250.86761904761906	57	127
250.96049886621316	251.041768707483	85	127
251.041768707483	251.23913832199545	73	127
251.041768707483	251.23913832199545	69	127
251.041768707483	251.33201814058958	76	127
251.33201814058958	251.37845804988663	85	127
251.37845804988663	251.56421768707483	57	127
251.37845804988663	251.68031746031747	81	127
251.37845804988663	251.56421768707483	69	127
251.68031746031747	251.74997732426303	85	127
251.74997732426303	251.93573696145125	69	127
251.74997732426303	251.93573696145125	73	127
251.74997732426303	252.02861678004535	76	127
252.02861678004535	252.12149659863945	85	127
252.12149659863945	252.35369614512473	81	127
252.12149659863945	252.27242630385487	69	127
252.12149659863945	252.27242630385487	57	127
252.35369614512473	252.43496598639456	85	127
252.43496598639456	252.56267573696144	73	127
252.43496598639456	252.56267573696144	69	127
252.43496598639456	252.65555555555557	76	127
252.65555555555557	252.74843537414966	85	127
252.74843537414966	252.87614512471654	64	127
252.74843537414966	252.9806349206349	90	127
252.74843537414966	252.87614512471654	52	127
252.9806349206349	253.10834467120182	88	127
253.10834467120182	253.29410430839002	71	127
253.10834467120182	253.29410430839002	64	127
253.10834467120182	253.57274376417234	88	127
253.10834467120182	253.29410430839002	74	127
253.47986394557824	253.6424036281179	64	127
253.47986394557824	253.6424036281179	52	127
253.57274376417234	253.70045351473922	87	127
253.70045351473922	253.82816326530613	86	127
253.82816326530613	253.94426303854874	85	127
253.82816326530613	254.00231292517006	64	127
253.82816326530613	254.00231292517006	71	127
253.82816326530613	254.00231292517006	74	127
253.94426303854874	254.06036281179138	84	127
254.06036281179138	254.17646258503402	83	127
254.17646258503402	254.36222222222221	52	127
254.17646258503402	254.3041723356009	82	127
254.17646258503402	254.36222222222221	64	127
254.3041723356009	254.4318820861678	81	127
254.4318820861678	254.54798185941044	80	127
254.54798185941044	254.67569160997732	79	127
254.54798185941044	254.7105215419501	74	127
254.54798185941044	254.7105215419501	64	127
254.54798185941044	254.7105215419501	71	127
254.67569160997732	254.7801814058957	78	127
254.7801814058957	254.88467120181406	77	127
254.88467120181406	255.0007709750567	76	127
254.88467120181406	255.07043083900226	64	127
254.88467120181406	255.07043083900226	52	127
255.0007709750567	255.12848072562358	80	127
255.12848072562358	255.26780045351475	78	127
255.26780045351475	255.39551020408163	76	127
255.26780045351475	255.45356009070295	64	127
255.26780045351475	255.45356009070295	71	127
255.26780045351475	255.45356009070295	74	127
255.39551020408163	255.51160997732427	78	127
255.51160997732427	255.63931972789115	80	127
255.63931972789115	255.92956916099774	81	127
255.63931972789115	255.83668934240362	57	127
255.63931972789115	255.83668934240362	69	127
255.92956916099774	256.02244897959184	85	127
256.02244897959184	256.1965986394558	69	127
256.02244897959184	256.30108843537414	76	127
256.02244897959184	256.1965986394558	73	127
256.30108843537414	256.39396825396824	85	127
256.39396825396824	256.5100680272109	57	127
256.39396825396824	256.5913378684807	81	127
256.39396825396824	256.5100680272109	69	127
256.5913378684807	256.68419501133786	85	127
256.68419501133786	256.8583673469388	73	127
256.68419501133786	256.9048072562358	76	127
256.68419501133786	256.8583673469388	69	127
256.9048072562358	256.9976870748299	85	127
256.9976870748299	257.27632653061227	81	127
256.9976870748299	257.18344671201817	57	127
256.9976870748299	257.18344671201817	69	127
257.27632653061227	257.36920634920637	85	127
257.36920634920637	257.531746031746	73	127
257.36920634920637	257.531746031746	69	127
257.36920634920637	257.61301587301585	76	127
257.61301587301585	257.7291156462585	85	127
257.7291156462585	257.91485260770975	57	127
257.7291156462585	257.91485260770975	69	127
257.7291156462585	257.9961451247166	81	127
257.9961451247166	258.06580498866214	85	127
258.06580498866214	258.37927437641724	76	127
258.06580498866214	258.25156462585034	73	127
258.06580498866214	258.25156462585034	69	127
258.37927437641724	258.47215419501134	85	127
258.47215419501134	258.72755102040816	90	127
258.47215419501134	258.64630385487527	52	127
258.47215419501134	258.64630385487527	64	127
258.72755102040816	258.82045351473926	88	127
258.82045351473926	258.9946031746032	64	127
258.82045351473926	259.23839002267573	88	127
258.82045351473926	258.9946031746032	71	127
258.82045351473926	258.9946031746032	74	127
259.1107029478458	259.3080725623583	52	127
259.1107029478458	259.3080725623583	64	127
259.23839002267573	259.3661224489796	87	127
259.3661224489796	259.4822222222222	86	127
259.4822222222222	259.65637188208615	64	127
259.4822222222222	259.65637188208615	71	127
259.4822222222222	259.5867120181406	85	127
259.4822222222222	259.65637188208615	74	127
259.5867120181406	259.7028117913832	84	127
259.7028117913832	259.81891156462586	83	127
259.81891156462586	259.92340136054423	82	127
259.81891156462586	259.9814512471655	52	127
259.81891156462586	259.9814512471655	64	127
259.92340136054423	260.03950113378687	81	127
260.03950113378687	260.1555782312925	80	127
260.1555782312925	260.3413605442177	64	127
260.1555782312925	260.28331065759636	79	127
260.1555782312925	260.3413605442177	71	127
260.1555782312925	260.3413605442177	74	127
260.28331065759636	260.399410430839	78	127
260.399410430839	260.51551020408164	77	127
260.51551020408164	260.64321995464854	76	127
260.51551020408164	260.7128798185941	64	127
260.51551020408164	260.7128798185941	52	127
260.64321995464854	260.7244897959184	80	127
260.7244897959184	260.8521995464853	78	127
260.8521995464853	261.04956916099775	71	127
260.8521995464853	261.04956916099775	64	127
260.8521995464853	261.04956916099775	74	127
260.8521995464853	260.9798866213152	76	127
260.9798866213152	261.10761904761904	78	127
261.10761904761904	261.23532879818595	80	127
261.23532879818595	261.4443083900227	69	127
261.23532879818595	261.5371882086168	81	127
261.23532879818595	261.4443083900227	57	127
261.5371882086168	261.6184580498866	85	127
261.6184580498866	261.7925850340136	73	127
261.6184580498866	261.8854875283447	76	127
261.6184580498866	261.7925850340136	69	127
261.8854875283447	261.9783673469388	85	127
261.9783673469388	262.1525170068027	57	127
261.9783673469388	262.1525170068027	69	127
261.9783673469388	262.2453968253968	81	127
262.2453968253968	262.32666666666665	85	127
262.32666666666665	262.4775963718821	73	127
262.32666666666665	262.4775963718821	69	127
262.32666666666665	262.5704761904762	76	127
262.5704761904762	262.6285260770975	85	127
262.6285260770975	262.8026757369615	69	127
262.6285260770975	262.8955555555556	81	127
262.6285260770975	262.8026757369615	57	127
262.8955555555556	262.9768253968254	85	127
262.9768253968254	263.1974149659864	76	127
262.9768253968254	263.1161451247166	69	127
262.9768253968254	263.1161451247166	73	127
263.1974149659864	263.27868480725624	85	127
263.27868480725624	263.5689342403628	81	127
263.27868480725624	263.4760544217687	57	127
263.27868480725624	263.4760544217687	69	127
263.5689342403628	263.68503401360545	85	127
263.68503401360545	263.94043083900226	76	127
263.68503401360545	263.8824036281179	69	127
263.68503401360545	263.8824036281179	73	127
263.94043083900226	264.03333333333336	85	127
264.03333333333336	264.21909297052156	56	127
264.03333333333336	264.31197278911566	80	127
264.31197278911566	264.416462585034	85	127
264.416462585034	264.59061224489795	64	127
264.416462585034	264.6718820861678	76	127
264.416462585034	264.59061224489795	68	127
264.6718820861678	264.76473922902494	85	127
264.76473922902494	264.95052154195014	56	127
264.76473922902494	265.04340136054424	80	127
265.04340136054424	265.13628117913834	85	127
265.13628117913834	265.31043083900227	68	127
265.13628117913834	265.3800907029478	76	127
265.13628117913834	265.31043083900227	64	127
265.3800907029478	265.4613605442177	85	127
265.4613605442177	265.6471201814059	56	127
265.4613605442177	265.71678004535147	80	127
265.71678004535147	265.7980498866213	84	127
265.7980498866213	265.9721995464853	72	127
265.7980498866213	265.9721995464853	68	127
265.7980498866213	265.9721995464853	66	127
265.7980498866213	266.00702947845804	78	127
266.00702947845804	266.09990929705214	84	127
266.09990929705214	266.2740589569161	56	127
266.09990929705214	266.3669387755102	80	127
266.3669387755102	266.4598185941043	84	127
266.4598185941043	266.7732879818594	78	127
266.4598185941043	266.6804081632653	66	127
266.4598185941043	266.6804081632653	72	127
266.4598185941043	266.6804081632653	68	127
266.7732879818594	266.8661678004535	80	127
266.8661678004535	267.22607709750565	64	127
266.8661678004535	267.22607709750565	68	127
266.8661678004535	267.22607709750565	61	127
266.8661678004535	267.22607709750565	73	127
268.67732426303854	269.0372335600907	64	127
268.67732426303854	269.0372335600907	76	127
269.0372335600907	269.4203628117914	85	127
269.0372335600907	269.4203628117914	73	127
269.4203628117914	269.7686394557823	76	127
269.4203628117914	269.7686394557823	88	127
270.11696145124716	270.47687074829935	64	127
270.11696145124716	270.47687074829935	76	127
270.47687074829935	270.8251700680272	73	127
270.47687074829935	270.8251700680272	85	127
270.8251700680272	271.16185941043085	88	127
270.8251700680272	271.16185941043085	76	127
271.521768707483	271.8352380952381	73	127
271.521768707483	271.8352380952381	85	127
271.8352380952381	272.10226757369617	76	127
271.8352380952381	272.10226757369617	88	127
272.10226757369617	272.1487074829932	78	127
272.10226757369617	272.1487074829932	90	127
272.1487074829932	272.19514739229027	76	127
272.1487074829932	272.19514739229027	88	127
272.19514739229027	272.39251700680273	86	127
272.19514739229027	272.39251700680273	74	127
272.39251700680273	272.57827664399093	73	127
272.39251700680273	272.57827664399093	85	127
272.57827664399093	272.7756462585034	73	127
272.57827664399093	272.7756462585034	85	127
272.7756462585034	272.92657596371885	71	127
272.7756462585034	272.92657596371885	83	127
274.3546031746032	274.7261224489796	66	127
274.3546031746032	274.7261224489796	78	127
274.7261224489796	275.06281179138324	86	127
274.7261224489796	275.06281179138324	74	127
275.06281179138324	275.318231292517	78	127
275.06281179138324	275.318231292517	90	127
275.6665306122449	276.02643990929704	66	127
275.6665306122449	276.02643990929704	78	127
276.02643990929704	276.3863492063492	86	127
276.02643990929704	276.3863492063492	74	127
276.3863492063492	276.7694784580499	90	127
276.3863492063492	276.7694784580499	78	127
277.15260770975055	277.7679365079365	90	127
277.15260770975055	277.7679365079365	78	127
277.7679365079365	277.96530612244896	74	127
277.7679365079365	277.96530612244896	86	127
277.96530612244896	278.1510430839002	71	127
277.96530612244896	278.1510430839002	83	127
278.1510430839002	278.51097505668935	69	127
278.1510430839002	278.51097505668935	81	127
279.1843537414966	279.54426303854876	72	127
279.1843537414966	279.54426303854876	84	127
279.54426303854876	279.8925396825397	81	127
279.54426303854876	279.8925396825397	93	127
279.8925396825397	280.2524716553288	84	127
279.8925396825397	280.2524716553288	96	127
280.6007482993197	280.8910204081633	72	127
280.6007482993197	280.8910204081633	84	127
280.8910204081633	281.2625396825397	93	127
280.8910204081633	281.2625396825397	81	127
281.2625396825397	281.5992290249433	96	127
281.2625396825397	281.5992290249433	84	127
281.9243083900227	282.27260770975056	83	127
281.9243083900227	282.27260770975056	95	127
282.27260770975056	282.5744671201814	74	127
282.27260770975056	282.5744671201814	86	127
282.5744671201814	282.9343764172336	77	127
282.5744671201814	282.9343764172336	89	127
283.30589569161	283.66580498866216	76	127
283.30589569161	283.66580498866216	88	127
283.66580498866216	284.01410430839	78	127
283.66580498866216	284.01410430839	90	127
284.01410430839	284.7339229024943	95	127
284.01410430839	284.7339229024943	83	127
284.7339229024943	285.45374149659864	93	127
284.7339229024943	285.45374149659864	81	127
285.45374149659864	285.778820861678	76	127
285.45374149659864	285.778820861678	88	127
285.778820861678	285.8833106575964	73	127
285.778820861678	285.8833106575964	85	127
285.8833106575964	285.999410430839	86	127
285.8833106575964	285.999410430839	74	127
285.999410430839	286.11551020408166	87	127
285.999410430839	286.11551020408166	75	127
286.11551020408166	286.2315873015873	76	127
286.11551020408166	286.2315873015873	88	127
286.2315873015873	286.33607709750567	87	127
286.2315873015873	286.33607709750567	75	127
286.33607709750567	286.45219954648525	88	127
286.33607709750567	286.45219954648525	76	127
286.45219954648525	286.57990929705215	85	127
286.45219954648525	286.57990929705215	97	127
286.57990929705215	286.6843990929705	95	127
286.57990929705215	286.6843990929705	83	127
286.6843990929705	286.7888888888889	80	127
286.6843990929705	286.7888888888889	92	127
286.7888888888889	286.90498866213153	83	127
286.7888888888889	286.90498866213153	95	127
286.90498866213153	287.03269841269844	93	127
286.90498866213153	287.03269841269844	81	127
287.03269841269844	287.1487755102041	76	127
287.03269841269844	287.1487755102041	88	127
287.1487755102041	287.2765079365079	85	127
287.1487755102041	287.2765079365079	73	127
287.2765079365079	287.40421768707483	86	127
287.2765079365079	287.40421768707483	74	127
287.40421768707483	287.53192743764174	87	127
287.40421768707483	287.53192743764174	75	127
287.53192743764174	287.6480272108844	76	127
287.53192743764174	287.6480272108844	88	127
287.6480272108844	287.77573696145123	75	127
287.6480272108844	287.77573696145123	87	127
287.77573696145123	287.90344671201814	88	127
287.77573696145123	287.90344671201814	76	127
287.90344671201814	288.0079365079365	85	127
287.90344671201814	288.0079365079365	97	127
288.0079365079365	288.1124263038549	83	127
288.0079365079365	288.1124263038549	95	127
288.1124263038549	288.2401360544218	92	127
288.1124263038549	288.2401360544218	80	127
288.2401360544218	288.34462585034015	83	127
288.2401360544218	288.34462585034015	95	127
288.34462585034015	288.4607256235828	81	127
288.34462585034015	288.4607256235828	93	127
288.4607256235828	288.5419954648526	88	127
288.4607256235828	288.5419954648526	76	127
288.5419954648526	288.6697052154195	74	127
288.5419954648526	288.6697052154195	86	127
288.6697052154195	288.7974149659864	76	127
288.6697052154195	288.7974149659864	88	127
288.7974149659864	288.87868480725626	89	127
288.7974149659864	288.87868480725626	77	127
288.87868480725626	288.98315192743763	90	127
288.87868480725626	288.98315192743763	78	127
288.98315192743763	289.0992743764172	91	127
288.98315192743763	289.0992743764172	79	127
289.0992743764172	289.2269841269841	78	127
289.0992743764172	289.2269841269841	90	127
289.2269841269841	289.35469387755103	102	127
289.2269841269841	289.35469387755103	90	127
289.35469387755103	289.43596371882086	86	127
289.35469387755103	289.43596371882086	98	127
289.43596371882086	289.5520634920635	97	127
289.43596371882086	289.5520634920635	85	127
289.5520634920635	289.65655328798186	98	127
289.5520634920635	289.65655328798186	86	127
289.65655328798186	289.7842630385488	83	127
289.65655328798186	289.7842630385488	95	127
289.7842630385488	289.88875283446714	90	127
289.7842630385488	289.88875283446714	78	127
289.88875283446714	289.9932426303855	86	127
289.88875283446714	289.9932426303855	74	127
289.9932426303855	290.10931972789115	76	127
289.9932426303855	290.10931972789115	88	127
290.10931972789115	290.237052154195	89	127
290.10931972789115	290.237052154195	77	127
290.237052154195	290.34154195011337	78	127
290.237052154195	290.34154195011337	90	127
290.34154195011337	290.457641723356	79	127
290.34154195011337	290.457641723356	91	127
290.457641723356	290.57374149659864	78	127
290.457641723356	290.57374149659864	90	127
290.57374149659864	290.66662131519274	102	127
290.57374149659864	290.66662131519274	90	127
290.66662131519274	290.7711111111111	86	127
290.66662131519274	290.7711111111111	98	127
290.7711111111111	290.898820861678	85	127
290.7711111111111	290.898820861678	97	127
290.898820861678	291.01492063492066	98	127
290.898820861678	291.01492063492066	86	127
291.01492063492066	291.1426303854875	83	127
291.01492063492066	291.1426303854875	95	127
291.1426303854875	291.25873015873015	90	127
291.1426303854875	291.25873015873015	78	127
291.25873015873015	291.38643990929705	83	127
291.25873015873015	291.38643990929705	71	127
291.38643990929705	291.5025396825397	74	127
291.38643990929705	291.5025396825397	86	127
291.5025396825397	291.60702947845806	87	127
291.5025396825397	291.60702947845806	75	127
291.60702947845806	291.73473922902497	88	127
291.60702947845806	291.73473922902497	76	127
291.73473922902497	291.8508163265306	78	127
291.73473922902497	291.8508163265306	90	127
291.8508163265306	291.9901587301587	76	127
291.8508163265306	291.9901587301587	88	127
291.9901587301587	292.10625850340136	100	127
291.9901587301587	292.10625850340136	88	127
292.10625850340136	292.222358276644	86	127
292.10625850340136	292.222358276644	98	127
292.222358276644	292.3500680272109	95	127
292.222358276644	292.3500680272109	83	127
292.3500680272109	292.442947845805	98	127
292.3500680272109	292.442947845805	86	127
292.442947845805	292.55904761904765	83	127
292.442947845805	292.55904761904765	95	127
292.55904761904765	292.6751247165533	80	127
292.55904761904765	292.6751247165533	92	127
292.6751247165533	292.80285714285714	83	127
292.6751247165533	292.80285714285714	71	127
292.80285714285714	292.9421768707483	86	127
292.80285714285714	292.9421768707483	74	127
292.9421768707483	293.05827664399095	87	127
292.9421768707483	293.05827664399095	75	127
293.05827664399095	293.1743537414966	76	127
293.05827664399095	293.1743537414966	88	127
293.1743537414966	293.3136961451247	78	127
293.1743537414966	293.3136961451247	90	127
293.3136961451247	293.4414058956916	88	127
293.3136961451247	293.4414058956916	76	127
293.4414058956916	293.54589569161	100	127
293.4414058956916	293.54589569161	88	127
293.54589569161	293.6619954648526	98	127
293.54589569161	293.6619954648526	86	127
293.6619954648526	293.77809523809526	95	127
293.6619954648526	293.77809523809526	83	127
293.77809523809526	293.9058049886621	86	127
293.77809523809526	293.9058049886621	98	127
293.9058049886621	294.0102947845805	83	127
293.9058049886621	294.0102947845805	95	127
294.0102947845805	294.11478458049885	80	127
294.0102947845805	294.11478458049885	92	127
294.11478458049885	294.24249433106576	85	127
294.11478458049885	294.24249433106576	73	127
294.24249433106576	294.37020408163266	74	127
294.24249433106576	294.37020408163266	86	127
294.37020408163266	294.4863038548753	75	127
294.37020408163266	294.4863038548753	87	127
294.4863038548753	294.6139909297052	88	127
294.4863038548753	294.6139909297052	76	127
294.6139909297052	294.7068934240363	87	127
294.6139909297052	294.7068934240363	75	127
294.7068934240363	294.83460317460316	88	127
294.7068934240363	294.83460317460316	76	127
294.83460317460316	294.93909297052153	85	127
294.83460317460316	294.93909297052153	97	127
294.93909297052153	295.0435827664399	95	127
294.93909297052153	295.0435827664399	83	127
295.0435827664399	295.136462585034	80	127
295.0435827664399	295.136462585034	92	127
295.136462585034	295.2641723356009	83	127
295.136462585034	295.2641723356009	95	127
295.2641723356009	295.357052154195	81	127
295.2641723356009	295.357052154195	93	127
295.357052154195	295.4847619047619	88	127
295.357052154195	295.4847619047619	76	127
295.4847619047619	295.60086167800455	85	127
295.4847619047619	295.60086167800455	73	127
295.60086167800455	295.72857142857146	86	127
295.60086167800455	295.72857142857146	74	127
295.72857142857146	295.8330385487528	75	127
295.72857142857146	295.8330385487528	87	127
295.8330385487528	295.97238095238095	76	127
295.8330385487528	295.97238095238095	88	127
295.97238095238095	296.0768707482993	87	127
295.97238095238095	296.0768707482993	75	127
296.0768707482993	296.19297052154195	76	127
296.0768707482993	296.19297052154195	88	127
296.19297052154195	296.3090702947846	85	127
296.19297052154195	296.3090702947846	97	127
296.3090702947846	296.41356009070296	83	127
296.3090702947846	296.41356009070296	95	127
296.41356009070296	296.5180498866213	92	127
296.41356009070296	296.5180498866213	80	127
296.5180498866213	296.63414965986397	95	127
296.5180498866213	296.63414965986397	83	127
296.63414965986397	296.7502494331066	81	127
296.63414965986397	296.7502494331066	93	127
296.7502494331066	296.854716553288	76	127
296.7502494331066	296.854716553288	88	127
296.854716553288	296.97083900226755	90	127
296.854716553288	296.97083900226755	78	127
296.97083900226755	297.09854875283446	76	127
296.97083900226755	297.09854875283446	88	127
297.09854875283446	297.19142857142856	84	127
297.09854875283446	297.19142857142856	72	127
297.19142857142856	297.3075283446712	74	127
297.19142857142856	297.3075283446712	86	127
297.3075283446712	297.36557823129255	85	127
297.3075283446712	297.36557823129255	73	127
297.36557823129255	297.4932879818594	80	127
297.36557823129255	297.4932879818594	68	127
297.4932879818594	297.5745351473923	71	127
297.4932879818594	297.5745351473923	83	127
297.5745351473923	297.6558276643991	69	127
297.5745351473923	297.6558276643991	81	127
297.6558276643991	297.783514739229	75	127
297.6558276643991	297.783514739229	63	127
297.783514739229	297.86480725623585	78	127
297.783514739229	297.86480725623585	66	127
297.86480725623585	297.9692970521542	64	127
297.86480725623585	297.9692970521542	76	127
297.9692970521542	298.0737868480726	60	127
297.9692970521542	298.0737868480726	72	127
298.0737868480726	298.1550566893424	74	127
298.0737868480726	298.1550566893424	62	127
298.1550566893424	298.2479365079365	73	127
298.1550566893424	298.2479365079365	61	127
298.2479365079365	298.3756462585034	56	127
298.2479365079365	298.3756462585034	68	127
298.3756462585034	298.4685260770975	71	127
298.3756462585034	298.4685260770975	59	127
298.4685260770975	298.59621315192743	69	127
298.4685260770975	298.59621315192743	57	127
298.59621315192743	298.64267573696145	51	127
298.59621315192743	298.64267573696145	63	127
298.64267573696145	298.712335600907	54	127
298.64267573696145	298.712335600907	66	127
298.712335600907	298.8400453514739	52	127
298.712335600907	298.8400453514739	64	127
298.8400453514739	298.9445351473923	60	127
298.8400453514739	298.9445351473923	48	127
298.9445351473923	299.0374149659864	50	127
298.9445351473923	299.0374149659864	62	127
299.0374149659864	299.153514739229	49	127
299.0374149659864	299.153514739229	61	127
299.153514739229	299.2580045351474	45	127
299.153514739229	299.2580045351474	57	127
299.2580045351474	300.6395691609977	41	127
299.2580045351474	300.6395691609977	60	127
299.2580045351474	300.6395691609977	53	127
299.2580045351474	300.6395691609977	65	127
299.2580045351474	300.6395691609977	69	127
300.6395691609977	302.021179138322	58	127
300.6395691609977	302.021179138322	53	127
300.6395691609977	300.7556916099773	84	127
300.6395691609977	302.021179138322	61	127
300.6395691609977	302.021179138322	64	127
300.7556916099773	300.8601814058957	82	127
300.8601814058957	300.9762811791383	78	127
300.9762811791383	301.1039909297052	81	127
301.1039909297052	301.2084807256236	79	127
301.2084807256236	301.31297052154196	75	127
301.31297052154196	301.4174603174603	77	127
301.4174603174603	301.54517006802723	76	127
301.54517006802723	301.6728798185941	71	127
301.6728798185941	301.7889795918367	73	127
301.7889795918367	301.8934693877551	72	127
301.8934693877551	302.021179138322	70	127
302.021179138322	303.39115646258506	57	127
302.021179138322	303.39115646258506	53	127
302.021179138322	303.39115646258506	60	127
302.021179138322	303.39115646258506	65	127
302.021179138322	303.39115646258506	69	127
303.39115646258506	304.7495238095238	53	127
303.39115646258506	304.7495238095238	58	127
303.39115646258506	303.5188662131519	84	127
303.39115646258506	304.7495238095238	61	127
303.39115646258506	304.7495238095238	64	127
303.5188662131519	303.57691609977326	82	127
303.57691609977326	303.66979591836736	78	127
303.66979591836736	303.78589569161	81	127
303.78589569161	303.9135827664399	79	127
303.9135827664399	304.01807256235827	75	127
304.01807256235827	304.13419501133785	77	127
304.13419501133785	304.2502947845805	76	127
304.2502947845805	304.3663945578231	71	127
304.3663945578231	304.49410430839004	73	127
304.49410430839004	304.62181405895694	72	127
304.62181405895694	304.7495238095238	70	127
304.7495238095238	305.109433106576	53	127
304.7495238095238	304.86562358276643	69	127
304.7495238095238	305.109433106576	65	127
304.7495238095238	305.109433106576	57	127
304.7495238095238	305.109433106576	60	127
304.86562358276643	304.9701133786848	72	127
304.9701133786848	305.109433106576	77	127
305.109433106576	305.2371428571429	72	127
305.2371428571429	305.34160997732425	77	127
305.34160997732425	305.4693424036281	81	127
305.4693424036281	305.5390022675737	77	127
305.5390022675737	305.6086621315193	81	127
305.6086621315193	305.7247619047619	84	127
305.7247619047619	305.84086167800456	81	127
305.84086167800456	305.9685714285714	84	127
305.9685714285714	306.06142857142856	89	127
306.06142857142856	307.4662585034014	93	127
306.06142857142856	307.4662585034014	87	127
306.06142857142856	307.4662585034014	84	127
306.06142857142856	307.4662585034014	81	127
306.06142857142856	306.16591836734693	53	127
306.16591836734693	306.2936507936508	57	127
306.2936507936508	306.4097505668934	60	127
306.4097505668934	306.53746031746033	57	127
306.53746031746033	306.65356009070297	60	127
306.65356009070297	306.7812471655329	65	127
306.7812471655329	306.89736961451246	60	127
306.89736961451246	307.02507936507936	65	127
307.02507936507936	307.141179138322	69	127
307.141179138322	307.2688888888889	65	127
307.2688888888889	307.35015873015874	69	127
307.35015873015874	307.4662585034014	72	127
307.4662585034014	308.8362358276644	64	127
307.4662585034014	307.57074829931975	76	127
307.4662585034014	308.8362358276644	69	127
307.4662585034014	308.8362358276644	73	127
307.57074829931975	307.6868480725624	81	127
307.6868480725624	307.802925170068	85	127
307.802925170068	307.9074149659864	81	127
307.9074149659864	308.03514739229024	85	127
308.03514739229024	308.1512471655329	88	127
308.1512471655329	308.244126984127	85	127
308.244126984127	308.3602267573696	88	127
308.3602267573696	308.464716553288	93	127
308.464716553288	308.5924263038549	88	127
308.5924263038549	308.70852607709753	93	127
308.70852607709753	308.8362358276644	97	127
308.8362358276644	310.20621315192744	92	127
308.8362358276644	310.20621315192744	88	127
308.8362358276644	310.20621315192744	95	127
308.8362358276644	310.20621315192744	100	127
308.8362358276644	308.952335600907	64	127
308.952335600907	309.0916553287982	71	127
309.0916553287982	309.2193650793651	74	127
309.2193650793651	309.34707482993196	71	127
309.34707482993196	309.4515646258503	74	127
309.4515646258503	309.5328117913832	76	127
309.5328117913832	309.66054421768706	74	127
309.66054421768706	309.75342403628116	76	127
309.75342403628116	309.8230839002268	80	127
309.8230839002268	309.9507709750567	76	127
309.9507709750567	310.07850340136054	80	127
310.07850340136054	310.20621315192744	83	127
310.20621315192744	310.5660997732426	64	127
310.20621315192744	310.47324263038547	85	127
310.20621315192744	310.7634693877551	57	127
310.20621315192744	310.5660997732426	76	127
310.47324263038547	310.51968253968255	86	127
310.51968253968255	310.5660997732426	85	127
310.5660997732426	310.7634693877551	74	127
310.5660997732426	310.7634693877551	83	127
310.5660997732426	310.7634693877551	68	127
310.7634693877551	310.8563718820862	81	127
310.7634693877551	310.8563718820862	73	127
310.7634693877551	310.8563718820862	57	127
310.7634693877551	310.8563718820862	69	127
310.9492517006803	311.3091609977324	64	127
310.9492517006803	311.3091609977324	73	127
310.9492517006803	311.3091609977324	57	127
310.9492517006803	311.3091609977324	81	127
311.3091609977324	311.6690702947846	57	127
311.3091609977324	311.6690702947846	69	127
311.3091609977324	311.6690702947846	81	127
311.3091609977324	311.6690702947846	73	127
311.6690702947846	312.21473922902493	57	127
311.6690702947846	311.92448979591836	85	127
311.6690702947846	312.0057596371882	76	127
311.6690702947846	312.0057596371882	64	127
311.92448979591836	311.97092970521544	86	127
311.97092970521544	312.0057596371882	85	127
312.0057596371882	312.21473922902493	83	127
312.0057596371882	312.21473922902493	74	127
312.0057596371882	312.21473922902493	68	127
312.21473922902493	312.307619047619	73	127
312.21473922902493	312.307619047619	69	127
312.21473922902493	312.307619047619	81	127
312.21473922902493	312.307619047619	57	127
312.4004761904762	312.74879818594104	57	127
312.4004761904762	312.74879818594104	81	127
312.4004761904762	312.74879818594104	73	127
312.4004761904762	312.74879818594104	64	127
312.74879818594104	313.09709750566896	81	127
312.74879818594104	313.09709750566896	57	127
312.74879818594104	313.09709750566896	69	127
312.74879818594104	313.09709750566896	73	127
313.09709750566896	313.2596371882086	81	127
313.09709750566896	313.2596371882086	85	127
313.09709750566896	313.43378684807254	61	127
313.09709750566896	313.60793650793653	54	127
313.2596371882086	313.43378684807254	83	127
313.2596371882086	313.43378684807254	80	127
313.43378684807254	313.60793650793653	65	127
313.43378684807254	313.60793650793653	83	127
313.43378684807254	313.60793650793653	80	127
313.60793650793653	313.78208616780046	81	127
313.60793650793653	313.78208616780046	78	127
313.60793650793653	313.78208616780046	54	127
313.60793650793653	313.78208616780046	66	127
313.78208616780046	314.4902947845805	78	127
313.78208616780046	314.4902947845805	81	127
313.78208616780046	314.1303854875284	61	127
313.78208616780046	314.4902947845805	54	127
314.1303854875284	314.4902947845805	66	127
314.4902947845805	314.8385941043084	61	127
314.4902947845805	315.0011337868481	54	127
314.4902947845805	314.6528117913832	81	127
314.4902947845805	314.6528117913832	85	127
314.6528117913832	314.8385941043084	83	127
314.6528117913832	314.8385941043084	80	127
314.8385941043084	315.0011337868481	65	127
314.8385941043084	315.0011337868481	83	127
314.8385941043084	315.0011337868481	80	127
315.0011337868481	315.1172335600907	66	127
315.0011337868481	315.1172335600907	81	127
315.0011337868481	315.1172335600907	54	127
315.0011337868481	315.1172335600907	78	127
315.1172335600907	315.837052154195	54	127
315.1172335600907	315.837052154195	78	127
315.1172335600907	315.45392290249436	61	127
315.1172335600907	315.837052154195	81	127
315.45392290249436	315.837052154195	66	127
315.837052154195	316.35950113378686	69	127
315.837052154195	316.08083900226757	74	127
315.837052154195	316.08083900226757	86	127
315.837052154195	316.35950113378686	81	127
316.08083900226757	316.13891156462586	76	127
316.08083900226757	316.13891156462586	88	127
316.13891156462586	316.17374149659867	74	127
316.13891156462586	316.17374149659867	86	127
316.17374149659867	316.35950113378686	73	127
316.17374149659867	316.35950113378686	85	127
316.35950113378686	316.45238095238096	71	127
316.35950113378686	316.45238095238096	83	127
316.35950113378686	316.45238095238096	69	127
316.35950113378686	316.45238095238096	81	127
316.54526077097506	317.23024943310656	64	127
316.54526077097506	317.23024943310656	80	127
316.54526077097506	317.23024943310656	74	127
316.54526077097506	317.23024943310656	71	127
316.54526077097506	316.90514739229025	90	127
316.90514739229025	317.23024943310656	88	127
317.23024943310656	317.40437641723355	69	127
317.23024943310656	317.3463492063492	85	127
317.23024943310656	317.40437641723355	73	127
317.23024943310656	317.40437641723355	81	127
317.3463492063492	317.4740589569161	86	127
317.4740589569161	317.5321088435374	85	127
317.59015873015875	317.7875283446712	80	127
317.59015873015875	317.7875283446712	71	127
317.59015873015875	317.7875283446712	64	127
317.59015873015875	317.71784580498866	83	127
317.71784580498866	317.8455782312925	85	127
317.8455782312925	317.90362811791385	83	127
317.9732879818594	318.3331746031746	81	127
317.9732879818594	318.3331746031746	69	127
317.9732879818594	318.3331746031746	61	127
318.704716553288	319.02979591836737	76	127
318.704716553288	319.2503628117914	57	127
318.704716553288	319.02979591836737	64	127
318.704716553288	318.94850340136054	85	127
318.94850340136054	318.99496598639456	86	127
318.99496598639456	319.02979591836737	85	127
319.02979591836737	319.2503628117914	74	127
319.02979591836737	319.2503628117914	68	127
319.02979591836737	319.2503628117914	83	127
319.2503628117914	319.3316553287982	57	127
319.2503628117914	319.3316553287982	73	127
319.2503628117914	319.3316553287982	69	127
319.2503628117914	319.3316553287982	81	127
319.40131519274377	319.77283446712016	81	127
319.40131519274377	319.77283446712016	73	127
319.40131519274377	319.77283446712016	64	127
319.40131519274377	319.77283446712016	57	127
319.77283446712016	320.13274376417235	73	127
319.77283446712016	320.13274376417235	81	127
319.77283446712016	320.13274376417235	69	127
319.77283446712016	320.13274376417235	57	127
320.13274376417235	320.4229931972789	64	127
320.13274376417235	320.31850340136054	85	127
320.13274376417235	320.4229931972789	76	127
320.13274376417235	320.6087528344671	57	127
320.31850340136054	320.3649433106576	86	127
320.3649433106576	320.4229931972789	85	127
320.4229931972789	320.6087528344671	83	127
320.4229931972789	320.6087528344671	68	127
320.4229931972789	320.6087528344671	74	127
320.6087528344671	320.736462585034	57	127
320.6087528344671	320.736462585034	69	127
320.6087528344671	320.736462585034	81	127
320.6087528344671	320.736462585034	73	127
320.8061224489796	321.1544217687075	81	127
320.8061224489796	321.1544217687075	57	127
320.8061224489796	321.1544217687075	64	127
320.8061224489796	321.1544217687075	73	127
321.1544217687075	321.49111111111114	81	127
321.1544217687075	321.49111111111114	73	127
321.1544217687075	321.49111111111114	57	127
321.1544217687075	321.49111111111114	69	127
321.49111111111114	321.66526077097507	73	127
321.49111111111114	321.66526077097507	85	127
321.49111111111114	322.0251700680272	54	127
321.49111111111114	321.839410430839	61	127
321.49111111111114	321.66526077097507	81	127
321.66526077097507	321.839410430839	80	127
321.66526077097507	321.839410430839	71	127
321.66526077097507	321.839410430839	83	127
321.839410430839	322.0251700680272	65	127
321.839410430839	322.0251700680272	71	127
321.839410430839	322.0251700680272	80	127
321.839410430839	322.0251700680272	83	127
322.0251700680272	322.22253968253966	81	127
322.0251700680272	322.22253968253966	69	127
322.0251700680272	322.22253968253966	78	127
322.0251700680272	322.22253968253966	54	127
322.0251700680272	322.22253968253966	66	127
322.22253968253966	322.6056689342404	61	127
322.22253968253966	322.95396825396824	54	127
322.22253968253966	322.95396825396824	78	127
322.22253968253966	322.95396825396824	69	127
322.22253968253966	322.95396825396824	81	127
322.6056689342404	322.95396825396824	66	127
322.95396825396824	323.2906575963719	61	127
322.95396825396824	323.4764172335601	54	127
322.95396825396824	323.1513378684807	81	127
322.95396825396824	323.1513378684807	73	127
322.95396825396824	323.1513378684807	85	127
323.1513378684807	323.2906575963719	71	127
323.1513378684807	323.2906575963719	83	127
323.1513378684807	323.2906575963719	80	127
323.2906575963719	323.4764172335601	80	127
323.2906575963719	323.4764172335601	65	127
323.2906575963719	323.4764172335601	83	127
323.2906575963719	323.4764172335601	71	127
323.4764172335601	323.61573696145126	66	127
323.4764172335601	323.61573696145126	78	127
323.4764172335601	323.61573696145126	81	127
323.4764172335601	323.61573696145126	54	127
323.4764172335601	323.61573696145126	69	127
323.61573696145126	324.2891156462585	81	127
323.61573696145126	324.2891156462585	54	127
323.61573696145126	323.9175963718821	61	127
323.61573696145126	324.2891156462585	78	127
323.61573696145126	324.2891156462585	69	127
323.9175963718821	324.2891156462585	66	127
324.2891156462585	324.56773242630385	86	127
324.2891156462585	324.56773242630385	74	127
324.2891156462585	324.84639455782315	81	127
324.2891156462585	324.84639455782315	69	127
324.56773242630385	324.6025850340136	88	127
324.56773242630385	324.6025850340136	76	127
324.6025850340136	324.6490249433107	74	127
324.6025850340136	324.6490249433107	86	127
324.6490249433107	324.84639455782315	85	127
324.6490249433107	324.84639455782315	73	127
324.84639455782315	324.9160544217687	69	127
324.84639455782315	324.9160544217687	83	127
324.84639455782315	324.9160544217687	71	127
324.84639455782315	324.9160544217687	81	127
325.0089342403628	325.69390022675736	71	127
325.0089342403628	325.3340136054422	90	127
325.0089342403628	325.69390022675736	74	127
325.0089342403628	325.69390022675736	64	127
325.0089342403628	325.69390022675736	80	127
325.3340136054422	325.69390022675736	88	127
325.69390022675736	325.87968253968256	73	127
325.69390022675736	325.87968253968256	69	127
325.69390022675736	325.8216326530612	85	127
325.69390022675736	325.87968253968256	81	127
325.8216326530612	325.93773242630385	86	127
325.93773242630385	326.0073922902494	85	127
326.06544217687076	326.2279818594104	71	127
326.06544217687076	326.2279818594104	80	127
326.06544217687076	326.2279818594104	64	127
326.06544217687076	326.16993197278913	83	127
326.16993197278913	326.29764172335604	85	127
326.29764172335604	326.3556916099773	83	127
326.4137188208617	326.85492063492063	61	127
326.4137188208617	326.85492063492063	81	127
326.4137188208617	326.85492063492063	69	127
327.24965986394557	327.9926984126984	69	127
327.24965986394557	327.9926984126984	57	127
327.24965986394557	327.9926984126984	61	127
327.9926984126984	328.3525850340136	68	127
327.9926984126984	328.3525850340136	59	127
327.9926984126984	328.3525850340136	62	127
328.6892970521542	329.38589569160996	56	127
328.6892970521542	329.38589569160996	74	127
328.6892970521542	329.38589569160996	59	127
329.38589569160996	329.7690249433107	61	127
329.38589569160996	329.7690249433107	73	127
329.38589569160996	329.7690249433107	57	127
330.1405442176871	330.68621315192746	78	127
330.1405442176871	331.60340136054424	60	127
330.1405442176871	330.68621315192746	66	127
330.1405442176871	331.60340136054424	57	127
330.1405442176871	330.8951927437642	48	127
330.68621315192746	330.8951927437642	80	127
330.68621315192746	330.8951927437642	68	127
330.8951927437642	331.60340136054424	81	127
330.8951927437642	331.60340136054424	49	127
330.8951927437642	331.60340136054424	69	127
331.60340136054424	333.0198185941043	52	127
331.60340136054424	332.2071201814059	59	127
331.60340136054424	332.34643990929703	71	127
331.60340136054424	332.34643990929703	57	127
332.2071201814059	332.34643990929703	61	127
332.34643990929703	333.0198185941043	56	127
332.34643990929703	333.0198185941043	64	127
332.34643990929703	333.0198185941043	62	127
332.34643990929703	333.0198185941043	76	127
333.0198185941043	333.2055782312925	64	127
333.0198185941043	333.2055782312925	57	127
333.0198185941043	333.2055782312925	73	127
333.0198185941043	333.2055782312925	61	127
333.3913378684807	333.69319727891155	64	127
333.3913378684807	333.69319727891155	61	127
333.3913378684807	333.69319727891155	52	127
333.3913378684807	333.69319727891155	49	127
333.69319727891155	333.9021768707483	49	127
333.69319727891155	333.9021768707483	61	127
333.69319727891155	333.9021768707483	57	127
333.69319727891155	333.9021768707483	45	127
340.2412244897959	340.32249433106574	64	127
340.2412244897959	340.32249433106574	60	127
340.2412244897959	340.32249433106574	45	127
340.2412244897959	340.32249433106574	48	127
340.2412244897959	340.32249433106574	52	127
340.32249433106574	340.4153514739229	69	127
340.32249433106574	340.4153514739229	57	127
340.4153514739229	340.48503401360546	48	127
340.4153514739229	340.48503401360546	60	127
340.4153514739229	340.48503401360546	64	127
340.4153514739229	340.48503401360546	45	127
340.4153514739229	340.48503401360546	52	127
340.48503401360546	340.5663038548753	57	127
340.48503401360546	340.5663038548753	69	127
340.5663038548753	340.6475736961451	60	127
340.5663038548753	340.6475736961451	52	127
340.5663038548753	340.6475736961451	45	127
340.5663038548753	340.6475736961451	64	127
340.5663038548753	340.6475736961451	48	127
340.6475736961451	340.7520634920635	69	127
340.6475736961451	340.7520634920635	57	127
340.7520634920635	340.8333333333333	60	127
340.7520634920635	340.8333333333333	48	127
340.7520634920635	340.8333333333333	64	127
340.7520634920635	340.8333333333333	45	127
340.7520634920635	340.8333333333333	52	127
340.8333333333333	340.9146031746032	69	127
340.8333333333333	340.9146031746032	57	127
340.9146031746032	341.3325396825397	48	127
340.9146031746032	341.3325396825397	64	127
340.9146031746032	341.3325396825397	52	127
340.9146031746032	341.3325396825397	60	127
340.9146031746032	341.3325396825397	45	127
341.7040816326531	341.79696145124717	77	127
341.7040816326531	341.79696145124717	47	127
341.7040816326531	341.79696145124717	50	127
341.7040816326531	341.79696145124717	55	127
341.7040816326531	341.79696145124717	74	127
341.7040816326531	341.79696145124717	79	127
341.79696145124717	341.88984126984127	67	127
341.79696145124717	341.88984126984127	59	127
341.88984126984127	341.98272108843537	55	127
341.88984126984127	341.98272108843537	50	127
341.88984126984127	341.98272108843537	77	127
341.88984126984127	341.98272108843537	47	127
341.88984126984127	341.98272108843537	79	127
341.88984126984127	341.98272108843537	74	127
341.98272108843537	342.07560090702947	59	127
341.98272108843537	342.07560090702947	67	127
342.07560090702947	342.16848072562357	55	127
342.07560090702947	342.16848072562357	47	127
342.07560090702947	342.16848072562357	79	127
342.07560090702947	342.16848072562357	50	127
342.07560090702947	342.16848072562357	74	127
342.07560090702947	342.16848072562357	77	127
342.16848072562357	342.2265306122449	67	127
342.16848072562357	342.2265306122449	59	127
342.2265306122449	342.24972789115645	50	127
342.2265306122449	342.24972789115645	74	127
342.2265306122449	342.24972789115645	55	127
342.2265306122449	342.24972789115645	47	127
342.2265306122449	342.24972789115645	79	127
342.2265306122449	342.24972789115645	77	127
342.24972789115645	342.34263038548755	59	127
342.24972789115645	342.34263038548755	67	127
342.34263038548755	342.6909297052154	47	127
342.34263038548755	342.6909297052154	74	127
342.34263038548755	342.6909297052154	50	127
342.34263038548755	342.6909297052154	79	127
342.34263038548755	342.6909297052154	55	127
342.34263038548755	342.6909297052154	77	127
343.06244897959186	343.15532879818596	82	127
343.06244897959186	343.15532879818596	48	127
343.06244897959186	343.15532879818596	40	127
343.06244897959186	343.15532879818596	79	127
343.06244897959186	343.15532879818596	43	127
343.06244897959186	343.15532879818596	84	127
343.15532879818596	343.24820861678006	72	127
343.15532879818596	343.24820861678006	52	127
343.24820861678006	343.3178684807256	82	127
343.24820861678006	343.3178684807256	84	127
343.24820861678006	343.3178684807256	40	127
343.24820861678006	343.3178684807256	43	127
343.24820861678006	343.3178684807256	48	127
343.24820861678006	343.3178684807256	79	127
343.3178684807256	343.4107482993197	72	127
343.3178684807256	343.4107482993197	52	127
343.4107482993197	343.5036281179138	82	127
343.4107482993197	343.5036281179138	84	127
343.4107482993197	343.5036281179138	48	127
343.4107482993197	343.5036281179138	79	127
343.4107482993197	343.5036281179138	40	127
343.4107482993197	343.5036281179138	43	127
343.5036281179138	343.5965079365079	52	127
343.5036281179138	343.5965079365079	72	127
343.5965079365079	343.6893650793651	82	127
343.5965079365079	343.6893650793651	40	127
343.5965079365079	343.6893650793651	79	127
343.5965079365079	343.6893650793651	84	127
343.5965079365079	343.6893650793651	43	127
343.5965079365079	343.6893650793651	48	127
343.6893650793651	343.74743764172337	72	127
343.6893650793651	343.74743764172337	52	127
343.74743764172337	344.0028571428571	40	127
343.74743764172337	344.0028571428571	84	127
343.74743764172337	344.0028571428571	43	127
343.74743764172337	344.0028571428571	48	127
343.74743764172337	344.0028571428571	82	127
343.74743764172337	344.0028571428571	79	127
345.6863038548753	346.731201814059	81	127
345.6863038548753	346.39451247165533	65	127
345.6863038548753	347.1956009070295	69	127
345.6863038548753	346.02299319727894	72	127
346.02299319727894	346.39451247165533	73	127
346.39451247165533	346.731201814059	74	127
346.39451247165533	347.1956009070295	66	127
346.731201814059	347.1956009070295	75	127
346.731201814059	347.1956009070295	83	127
347.1956009070295	348.05473922902496	69	127
347.1956009070295	348.75133786848073	64	127
347.1956009070295	348.05473922902496	73	127
347.1956009070295	348.75133786848073	76	127
347.1956009070295	348.0082993197279	85	127
348.0082993197279	348.05473922902496	85	127
348.05473922902496	348.75133786848073	74	127
348.05473922902496	348.75133786848073	68	127
348.05473922902496	348.20566893424035	83	127
348.20566893424035	348.37981859410434	82	127
348.37981859410434	348.56557823129253	83	127
348.56557823129253	348.75133786848073	88	127
348.75133786848073	349.09961451247165	81	127
348.75133786848073	349.09961451247165	72	127
348.75133786848073	349.09961451247165	69	127
348.75133786848073	349.09961451247165	65	127
351.46807256235826	351.51451247165534	83	127
351.46807256235826	351.51451247165534	71	127
351.51451247165534	351.6654195011338	69	127
351.51451247165534	351.6654195011338	81	127
351.6654195011338	351.78154195011336	68	127
351.6654195011338	351.78154195011336	80	127
351.78154195011336	351.897641723356	81	127
351.78154195011336	351.897641723356	69	127
351.897641723356	352.0253514739229	85	127
351.897641723356	352.0253514739229	73	127
352.0253514739229	352.1530612244898	81	127
352.0253514739229	352.1530612244898	69	127
352.1530612244898	352.2227210884354	76	127
352.1530612244898	352.2227210884354	64	127
352.2227210884354	352.26913832199546	66	127
352.2227210884354	352.26913832199546	78	127
352.26913832199546	352.38526077097504	76	127
352.26913832199546	352.38526077097504	64	127
352.38526077097504	352.51297052154194	63	127
352.38526077097504	352.51297052154194	75	127
352.51297052154194	352.64068027210885	64	127
352.51297052154194	352.64068027210885	76	127
352.64068027210885	352.7567800453515	69	127
352.64068027210885	352.7567800453515	81	127
352.7567800453515	352.8844671201814	76	127
352.7567800453515	352.8844671201814	64	127
352.8844671201814	352.9657596371882	61	127
352.8844671201814	352.9657596371882	73	127
352.9657596371882	353.01219954648525	74	127
352.9657596371882	353.01219954648525	62	127
353.01219954648525	353.13990929705216	73	127
353.01219954648525	353.13990929705216	61	127
353.13990929705216	353.2560090702948	60	127
353.13990929705216	353.2560090702948	72	127
353.2560090702948	353.4069387755102	61	127
353.2560090702948	353.4069387755102	73	127
353.4069387755102	353.5346485260771	64	127
353.4069387755102	353.5346485260771	76	127
353.5346485260771	353.58108843537417	73	127
353.5346485260771	353.58108843537417	61	127
353.58108843537417	353.65074829931973	57	127
353.58108843537417	353.65074829931973	69	127
353.65074829931973	353.6971882086168	59	127
353.65074829931973	353.6971882086168	71	127
353.6971882086168	353.82489795918366	57	127
353.6971882086168	353.82489795918366	69	127
353.82489795918366	353.929387755102	56	127
353.82489795918366	353.929387755102	68	127
353.929387755102	354.0222675736961	57	127
353.929387755102	354.0222675736961	69	127
354.0222675736961	354.103537414966	61	127
354.0222675736961	354.103537414966	73	127
354.103537414966	354.1964172335601	69	127
354.103537414966	354.1964172335601	57	127
354.1964172335601	354.3009070294785	52	127
354.1964172335601	354.3009070294785	64	127
354.3009070294785	354.3821768707483	49	127
354.3009070294785	354.3821768707483	61	127
354.3821768707483	354.81174603174605	45	127
354.3821768707483	354.81174603174605	57	127
355.18326530612245	355.63605442176873	33	127
355.18326530612245	355.63605442176873	69	127
355.18326530612245	355.63605442176873	76	127
355.18326530612245	355.63605442176873	73	127
355.18326530612245	355.63605442176873	81	127
355.18326530612245	355.63605442176873	45	127
355.91469387755103	356.18172335600906	73	127
355.91469387755103	356.18172335600906	69	127
355.91469387755103	356.18172335600906	76	127
355.91469387755103	356.18172335600906	33	127
355.91469387755103	356.18172335600906	45	127
355.91469387755103	356.18172335600906	81	127
