# onset,offset,note,velocity
0.034058956916099774	1.6478458049886622	52	127
0.034058956916099774	1.6478458049886622	64	127
1.6478458049886622	1.856825396825397	28	127
1.6478458049886622	1.938095238095238	62	127
1.6478458049886622	1.938095238095238	59	127
1.938095238095238	1.9845351473922903	61	127
1.938095238095238	1.9845351473922903	64	127
1.9845351473922903	2.0193650793650795	59	127
1.9845351473922903	2.0193650793650795	62	127
2.0193650793650795	2.193514739229025	40	127
2.0193650793650795	2.193514739229025	61	127
2.0193650793650795	2.193514739229025	57	127
2.193514739229025	2.2863718820861676	59	127
2.193514739229025	2.2863718820861676	56	127
2.3792743764172335	2.739183673469388	57	127
2.3792743764172335	2.553424036281179	33	127
2.3792743764172335	2.739183673469388	61	127
2.739183673469388	3.099092970521542	57	127
2.739183673469388	3.099092970521542	61	127
2.739183673469388	2.9133333333333336	40	127
3.099092970521542	3.2848526077097504	28	127
3.099092970521542	3.377732426303855	62	127
3.099092970521542	3.377732426303855	59	127
3.377732426303855	3.424172335600907	64	127
3.377732426303855	3.424172335600907	61	127
3.424172335600907	3.4706122448979593	62	127
3.424172335600907	3.4706122448979593	59	127
3.4706122448979593	3.6563718820861677	40	127
3.4706122448979593	3.6563718820861677	61	127
3.4706122448979593	3.6563718820861677	57	127
3.6563718820861677	3.749251700680272	56	127
3.6563718820861677	3.749251700680272	59	127
3.8421315192743766	4.027891156462585	33	127
3.8421315192743766	4.62	61	127
3.8421315192743766	4.62	57	127
4.213650793650793	4.422607709750567	40	127
4.62	4.770907029478458	40	127
4.968299319727891	5.142448979591837	52	127
5.351428571428571	5.53718820861678	45	127
5.7345578231292516	5.943537414965986	52	127
6.082857142857143	6.222176870748299	40	127
6.407936507936508	6.582086167800454	52	127
6.744625850340136	6.930385487528345	45	127
7.104535147392291	7.325124716553288	52	127
7.52249433106576	7.801133786848072	61	127
7.52249433106576	7.708253968253969	33	127
7.52249433106576	7.801133786848072	64	127
7.801133786848072	7.812743764172335	66	127
7.801133786848072	7.812743764172335	62	127
7.812743764172335	7.859183673469388	64	127
7.812743764172335	7.859183673469388	61	127
7.859183673469388	7.998503401360544	62	127
7.859183673469388	7.998503401360544	59	127
7.859183673469388	7.998503401360544	40	127
7.998503401360544	8.091383219954649	61	127
7.998503401360544	8.091383219954649	57	127
8.184263038548753	8.335192743764173	33	127
8.184263038548753	8.52092970521542	61	127
8.184263038548753	8.52092970521542	57	127
8.52092970521542	8.880861678004536	57	127
8.52092970521542	8.683492063492064	45	127
8.52092970521542	8.880861678004536	61	127
8.880861678004536	9.066621315192744	66	127
8.880861678004536	9.066621315192744	57	127
8.880861678004536	9.066621315192744	50	127
8.880861678004536	9.066621315192744	38	127
9.066621315192744	9.229160997732427	64	127
9.066621315192744	9.229160997732427	58	127
9.066621315192744	9.229160997732427	49	127
9.066621315192744	9.229160997732427	42	127
9.229160997732427	9.298820861678005	64	127
9.229160997732427	9.298820861678005	58	127
9.229160997732427	9.298820861678005	49	127
9.229160997732427	9.298820861678005	42	127
9.391700680272109	9.484580498866213	64	127
9.391700680272109	9.484580498866213	58	127
9.391700680272109	9.484580498866213	49	127
9.391700680272109	9.484580498866213	42	127
9.577460317460318	9.89092970521542	64	127
9.577460317460318	9.89092970521542	58	127
9.577460317460318	9.89092970521542	49	127
9.577460317460318	9.89092970521542	42	127
9.89092970521542	10.076666666666666	62	127
9.89092970521542	10.076666666666666	59	127
9.89092970521542	10.076666666666666	47	127
9.89092970521542	10.076666666666666	35	127
10.285668934240363	10.45981859410431	28	127
10.285668934240363	10.517845804988662	62	127
10.285668934240363	10.517845804988662	59	127
10.517845804988662	10.552698412698414	61	127
10.517845804988662	10.552698412698414	64	127
10.552698412698414	10.599138321995465	59	127
10.552698412698414	10.599138321995465	62	127
10.599138321995465	10.750068027210885	61	127
10.599138321995465	10.750068027210885	57	127
10.599138321995465	10.750068027210885	40	127
10.750068027210885	10.84294784580499	59	127
10.750068027210885	10.84294784580499	56	127
10.935827664399094	11.109977324263038	28	127
10.935827664399094	11.295736961451247	59	127
10.935827664399094	11.295736961451247	56	127
11.295736961451247	11.45827664399093	40	127
11.295736961451247	11.644036281179138	59	127
11.295736961451247	11.644036281179138	56	127
11.644036281179138	11.818163265306122	49	127
11.644036281179138	11.818163265306122	64	127
11.644036281179138	11.818163265306122	37	127
11.644036281179138	12.003945578231292	56	127
11.818163265306122	12.003945578231292	40	127
11.818163265306122	12.003945578231292	62	127
11.818163265306122	12.003945578231292	47	127
12.003945578231292	12.096825396825396	40	127
12.003945578231292	12.096825396825396	47	127
12.003945578231292	12.096825396825396	62	127
12.003945578231292	12.096825396825396	56	127
12.189705215419501	12.282585034013605	62	127
12.189705215419501	12.282585034013605	56	127
12.189705215419501	12.282585034013605	47	127
12.189705215419501	12.282585034013605	40	127
12.37546485260771	12.770204081632652	62	127
12.37546485260771	12.770204081632652	56	127
12.37546485260771	12.770204081632652	47	127
12.37546485260771	12.770204081632652	40	127
12.770204081632652	12.955963718820861	33	127
12.770204081632652	12.955963718820861	57	127
12.770204081632652	12.955963718820861	45	127
12.770204081632652	12.955963718820861	61	127
18.72612244897959	18.865442176870747	33	127
18.72612244897959	18.958321995464853	64	127
18.72612244897959	18.958321995464853	61	127
18.958321995464853	19.004761904761907	66	127
18.958321995464853	19.004761904761907	62	127
19.004761904761907	19.051201814058956	61	127
19.004761904761907	19.051201814058956	64	127
19.051201814058956	19.248571428571427	40	127
19.051201814058956	19.248571428571427	59	127
19.051201814058956	19.248571428571427	62	127
19.248571428571427	19.341451247165534	61	127
19.248571428571427	19.341451247165534	57	127
19.434331065759636	19.620090702947845	33	127
19.434331065759636	19.79424036281179	61	127
19.434331065759636	19.79424036281179	57	127
19.79424036281179	19.94517006802721	45	127
19.79424036281179	20.119319727891156	61	127
19.79424036281179	20.119319727891156	57	127
20.119319727891156	20.305079365079365	57	127
20.119319727891156	20.305079365079365	38	127
20.119319727891156	20.305079365079365	50	127
20.119319727891156	20.305079365079365	66	127
20.305079365079365	20.490839002267574	64	127
20.305079365079365	20.490839002267574	58	127
20.305079365079365	20.490839002267574	49	127
20.305079365079365	20.490839002267574	42	127
20.490839002267574	20.595328798185943	64	127
20.490839002267574	20.595328798185943	58	127
20.490839002267574	20.595328798185943	49	127
20.490839002267574	20.595328798185943	42	127
20.66498866213152	20.7346485260771	64	127
20.66498866213152	20.7346485260771	58	127
20.66498866213152	20.7346485260771	49	127
20.66498866213152	20.7346485260771	42	127
20.8275283446712	21.140997732426303	42	127
20.8275283446712	21.140997732426303	64	127
20.8275283446712	21.140997732426303	58	127
20.8275283446712	21.140997732426303	49	127
21.140997732426303	21.303537414965987	62	127
21.140997732426303	21.303537414965987	59	127
21.140997732426303	21.303537414965987	47	127
21.140997732426303	21.303537414965987	35	127
21.466077097505668	21.640226757369614	28	127
21.466077097505668	21.709886621315192	62	127
21.466077097505668	21.709886621315192	59	127
21.709886621315192	21.756326530612245	64	127
21.709886621315192	21.756326530612245	61	127
21.756326530612245	21.8027664399093	62	127
21.756326530612245	21.8027664399093	59	127
21.8027664399093	22.034965986394557	61	127
21.8027664399093	22.034965986394557	57	127
21.8027664399093	22.034965986394557	40	127
22.034965986394557	22.127845804988663	59	127
22.034965986394557	22.127845804988663	56	127
22.220725623582766	22.418095238095237	28	127
22.220725623582766	22.603854875283446	59	127
22.220725623582766	22.603854875283446	56	127
22.603854875283446	22.789614512471655	40	127
22.603854875283446	22.95215419501134	59	127
22.603854875283446	22.95215419501134	56	127
22.95215419501134	23.11469387755102	64	127
22.95215419501134	23.11469387755102	49	127
22.95215419501134	23.11469387755102	37	127
22.95215419501134	23.300453514739228	56	127
23.11469387755102	23.300453514739228	40	127
23.11469387755102	23.300453514739228	47	127
23.11469387755102	23.300453514739228	62	127
23.300453514739228	23.381723356009072	62	127
23.300453514739228	23.381723356009072	56	127
23.300453514739228	23.381723356009072	47	127
23.300453514739228	23.381723356009072	40	127
23.474603174603175	23.579092970521543	56	127
23.474603174603175	23.579092970521543	47	127
23.474603174603175	23.579092970521543	40	127
23.474603174603175	23.579092970521543	62	127
23.68358276643991	24.043492063492064	40	127
23.68358276643991	24.043492063492064	62	127
23.68358276643991	24.043492063492064	56	127
23.68358276643991	24.043492063492064	47	127
24.043492063492064	24.252471655328797	61	127
24.043492063492064	24.252471655328797	57	127
24.043492063492064	24.252471655328797	45	127
24.043492063492064	24.252471655328797	33	127
30.022630385487528	31.427437641723355	64	127
30.022630385487528	31.427437641723355	52	127
31.427437641723355	31.75251700680272	59	127
31.427437641723355	31.636417233560092	40	127
31.427437641723355	31.75251700680272	62	127
31.75251700680272	31.798956916099772	61	127
31.75251700680272	31.798956916099772	64	127
31.798956916099772	31.833786848072563	62	127
31.798956916099772	31.833786848072563	59	127
31.833786848072563	31.98471655328798	52	127
31.833786848072563	31.98471655328798	57	127
31.833786848072563	31.98471655328798	61	127
31.98471655328798	32.07759637188209	56	127
31.98471655328798	32.07759637188209	59	127
32.14725623582766	32.50716553287982	57	127
32.14725623582766	32.333015873015874	45	127
32.14725623582766	32.50716553287982	61	127
32.50716553287982	32.878684807256235	57	127
32.50716553287982	32.878684807256235	61	127
32.50716553287982	32.68131519274377	52	127
32.878684807256235	33.06444444444445	40	127
32.878684807256235	33.15732426303855	62	127
32.878684807256235	33.15732426303855	59	127
33.15732426303855	33.19215419501134	61	127
33.15732426303855	33.19215419501134	64	127
33.19215419501134	33.23859410430839	62	127
33.19215419501134	33.23859410430839	59	127
33.23859410430839	33.41274376417233	61	127
33.23859410430839	33.41274376417233	57	127
33.23859410430839	33.41274376417233	52	127
33.41274376417233	33.50562358276644	56	127
33.41274376417233	33.50562358276644	59	127
33.598503401360546	34.353151927437644	61	127
33.598503401360546	34.353151927437644	57	127
33.598503401360546	33.78426303854875	45	127
33.97002267573696	34.15578231292517	52	127
34.353151927437644	34.52730158730159	40	127
34.7130612244898	34.92204081632653	52	127
35.119410430839004	35.30517006802721	45	127
35.49092970521542	35.665079365079364	52	127
35.79278911564626	35.932108843537414	40	127
36.12947845804989	36.326848072562356	52	127
36.51260770975057	36.698367346938774	45	127
36.872517006802724	37.081496598639454	52	127
37.20920634920635	37.42979591836735	69	127
37.20920634920635	37.42979591836735	57	127
37.20920634920635	37.42979591836735	57	127
37.20920634920635	37.42979591836735	45	127
37.42979591836735	37.464625850340134	71	127
37.42979591836735	37.464625850340134	59	127
37.42979591836735	37.464625850340134	59	127
37.42979591836735	37.464625850340134	47	127
37.464625850340134	37.51106575963719	45	127
37.464625850340134	37.51106575963719	69	127
37.464625850340134	37.51106575963719	57	127
37.464625850340134	37.51106575963719	57	127
37.51106575963719	37.696825396825396	67	127
37.51106575963719	37.696825396825396	55	127
37.51106575963719	37.696825396825396	43	127
37.51106575963719	37.696825396825396	55	127
37.696825396825396	37.77809523809524	53	127
37.696825396825396	37.77809523809524	41	127
37.696825396825396	37.77809523809524	65	127
37.696825396825396	37.77809523809524	53	127
37.85934240362812	38.2424716553288	64	127
37.85934240362812	38.2424716553288	52	127
37.85934240362812	38.2424716553288	52	127
37.85934240362812	38.2424716553288	40	127
38.2424716553288	38.614013605442175	40	127
38.2424716553288	38.614013605442175	64	127
38.2424716553288	38.614013605442175	52	127
38.2424716553288	38.614013605442175	52	127
38.614013605442175	39.00873015873016	71	127
38.614013605442175	39.00873015873016	64	127
38.614013605442175	39.00873015873016	62	127
38.614013605442175	39.00873015873016	68	127
38.614013605442175	39.00873015873016	52	127
38.614013605442175	39.00873015873016	40	127
39.00873015873016	39.35705215419501	71	127
39.00873015873016	39.35705215419501	64	127
39.00873015873016	39.35705215419501	62	127
39.00873015873016	39.35705215419501	68	127
39.00873015873016	39.35705215419501	52	127
39.00873015873016	39.35705215419501	40	127
39.35705215419501	39.716961451247165	64	127
39.35705215419501	39.716961451247165	72	127
39.35705215419501	39.716961451247165	69	127
39.35705215419501	39.716961451247165	60	127
39.35705215419501	39.716961451247165	57	127
39.35705215419501	39.716961451247165	45	127
39.716961451247165	40.262630385487526	74	127
39.716961451247165	40.262630385487526	67	127
39.716961451247165	40.262630385487526	71	127
39.716961451247165	40.262630385487526	65	127
39.716961451247165	40.262630385487526	55	127
39.716961451247165	40.262630385487526	43	127
40.262630385487526	40.35551020408163	76	127
40.262630385487526	40.35551020408163	67	127
40.262630385487526	40.35551020408163	72	127
40.262630385487526	40.35551020408163	64	127
40.262630385487526	40.35551020408163	60	127
40.262630385487526	40.35551020408163	48	127
40.46	40.55287981859411	76	127
40.46	40.55287981859411	67	127
40.46	40.55287981859411	72	127
40.46	40.55287981859411	64	127
40.46	40.55287981859411	60	127
40.46	40.55287981859411	48	127
40.634149659863944	40.73863945578231	76	127
40.634149659863944	40.73863945578231	67	127
40.634149659863944	40.73863945578231	72	127
40.634149659863944	40.73863945578231	64	127
40.634149659863944	40.73863945578231	60	127
40.634149659863944	40.73863945578231	48	127
40.83151927437642	40.9940589569161	67	127
40.83151927437642	40.9940589569161	76	127
40.83151927437642	40.9940589569161	72	127
40.83151927437642	40.9940589569161	64	127
40.83151927437642	40.9940589569161	60	127
40.83151927437642	40.9940589569161	48	127
41.168185941043085	41.31913832199547	74	127
41.168185941043085	41.31913832199547	67	127
41.168185941043085	41.31913832199547	79	127
41.168185941043085	41.31913832199547	59	127
41.168185941043085	41.31913832199547	47	127
41.48167800453515	41.667414965986396	72	127
41.48167800453515	41.667414965986396	76	127
41.48167800453515	41.667414965986396	67	127
41.48167800453515	41.667414965986396	60	127
41.48167800453515	41.667414965986396	48	127
41.86480725623583	42.0621768707483	65	127
41.86480725623583	42.0621768707483	74	127
41.86480725623583	42.0621768707483	67	127
41.86480725623583	42.0621768707483	55	127
41.86480725623583	42.0621768707483	55	127
41.86480725623583	42.0621768707483	43	127
42.25954648526077	42.433673469387756	72	127
42.25954648526077	42.433673469387756	64	127
42.25954648526077	42.433673469387756	55	127
42.25954648526077	42.433673469387756	64	127
42.25954648526077	42.433673469387756	60	127
42.25954648526077	42.433673469387756	48	127
42.9097052154195	43.490204081632655	57	127
42.9097052154195	43.188321995464854	81	127
42.9097052154195	43.490204081632655	60	127
43.188321995464854	43.23478458049887	83	127
43.23478458049887	43.28122448979592	81	127
43.28122448979592	43.490204081632655	79	127
43.490204081632655	43.583061224489796	77	127
43.490204081632655	43.67596371882086	62	127
43.490204081632655	43.67596371882086	59	127
43.67596371882086	43.86172335600907	76	127
43.67596371882086	43.86172335600907	64	127
43.67596371882086	43.86172335600907	60	127
44.04748299319728	44.32612244897959	76	127
44.04748299319728	44.32612244897959	71	127
44.04748299319728	44.32612244897959	62	127
44.32612244897959	44.46541950113379	83	127
44.32612244897959	44.46541950113379	68	127
44.32612244897959	44.46541950113379	64	127
44.46541950113379	44.65120181405896	65	127
44.65120181405896	44.836938775510205	83	127
44.65120181405896	44.836938775510205	68	127
44.65120181405896	44.836938775510205	64	127
44.836938775510205	45.05755102040816	62	127
45.05755102040816	45.23167800453515	84	127
45.05755102040816	45.23167800453515	69	127
45.05755102040816	45.23167800453515	60	127
45.41746031746032	45.951519274376416	86	127
45.41746031746032	45.951519274376416	67	127
45.41746031746032	45.951519274376416	71	127
45.41746031746032	45.951519274376416	65	127
45.951519274376416	46.04439909297052	89	127
45.951519274376416	46.04439909297052	67	127
45.951519274376416	46.04439909297052	71	127
45.951519274376416	46.04439909297052	62	127
46.13727891156463	46.23015873015873	88	127
46.13727891156463	46.23015873015873	67	127
46.13727891156463	46.23015873015873	71	127
46.13727891156463	46.23015873015873	64	127
46.29981859410431	46.392698412698415	86	127
46.29981859410431	46.392698412698415	67	127
46.29981859410431	46.392698412698415	71	127
46.29981859410431	46.392698412698415	65	127
46.49716553287982	46.68294784580499	91	127
46.49716553287982	46.68294784580499	72	127
46.49716553287982	46.68294784580499	64	127
46.86868480725624	46.92675736961451	84	127
46.86868480725624	46.92675736961451	69	127
46.86868480725624	46.92675736961451	65	127
47.01963718820862	47.100907029478456	86	127
47.01963718820862	47.100907029478456	69	127
47.01963718820862	47.100907029478456	66	127
47.19378684807256	47.39115646258504	88	127
47.19378684807256	47.39115646258504	72	127
47.19378684807256	47.39115646258504	67	127
47.57691609977324	47.77428571428572	86	127
47.57691609977324	47.77428571428572	65	127
47.57691609977324	47.77428571428572	71	127
47.57691609977324	47.77428571428572	55	127
47.971655328798185	48.1574149659864	84	127
47.971655328798185	48.1574149659864	64	127
47.971655328798185	48.1574149659864	72	127
47.971655328798185	48.1574149659864	60	127
48.70308390022676	48.93528344671202	69	127
48.70308390022676	48.93528344671202	57	127
48.70308390022676	48.93528344671202	57	127
48.70308390022676	48.93528344671202	45	127
48.93528344671202	48.97011337868481	71	127
48.93528344671202	48.97011337868481	59	127
48.93528344671202	48.97011337868481	59	127
48.93528344671202	48.97011337868481	47	127
48.97011337868481	49.01655328798186	69	127
48.97011337868481	49.01655328798186	57	127
48.97011337868481	49.01655328798186	57	127
48.97011337868481	49.01655328798186	45	127
49.01655328798186	49.20231292517007	67	127
49.01655328798186	49.20231292517007	55	127
49.01655328798186	49.20231292517007	55	127
49.01655328798186	49.20231292517007	43	127
49.20231292517007	49.283582766439906	53	127
49.20231292517007	49.283582766439906	41	127
49.20231292517007	49.283582766439906	65	127
49.20231292517007	49.283582766439906	53	127
49.388072562358275	49.79442176870748	64	127
49.388072562358275	49.79442176870748	52	127
49.388072562358275	49.79442176870748	52	127
49.388072562358275	49.79442176870748	40	127
49.79442176870748	50.13111111111111	64	127
49.79442176870748	50.13111111111111	52	127
49.79442176870748	50.13111111111111	52	127
49.79442176870748	50.13111111111111	40	127
50.13111111111111	50.50263038548753	71	127
50.13111111111111	50.50263038548753	64	127
50.13111111111111	50.50263038548753	62	127
50.13111111111111	50.50263038548753	68	127
50.13111111111111	50.50263038548753	52	127
50.13111111111111	50.50263038548753	40	127
50.50263038548753	50.86253968253968	71	127
50.50263038548753	50.86253968253968	64	127
50.50263038548753	50.86253968253968	62	127
50.50263038548753	50.86253968253968	68	127
50.50263038548753	50.86253968253968	52	127
50.50263038548753	50.86253968253968	40	127
50.86253968253968	51.257278911564626	64	127
50.86253968253968	51.257278911564626	72	127
50.86253968253968	51.257278911564626	69	127
50.86253968253968	51.257278911564626	60	127
50.86253968253968	51.257278911564626	57	127
50.86253968253968	51.257278911564626	45	127
51.257278911564626	51.81455782312925	74	127
51.257278911564626	51.81455782312925	67	127
51.257278911564626	51.81455782312925	71	127
51.257278911564626	51.81455782312925	65	127
51.257278911564626	51.81455782312925	55	127
51.257278911564626	51.81455782312925	43	127
51.81455782312925	51.907437641723355	76	127
51.81455782312925	51.907437641723355	67	127
51.81455782312925	51.907437641723355	72	127
51.81455782312925	51.907437641723355	64	127
51.81455782312925	51.907437641723355	60	127
51.81455782312925	51.907437641723355	48	127
51.9887074829932	52.0815873015873	76	127
51.9887074829932	52.0815873015873	67	127
51.9887074829932	52.0815873015873	72	127
51.9887074829932	52.0815873015873	64	127
51.9887074829932	52.0815873015873	60	127
51.9887074829932	52.0815873015873	48	127
52.18607709750567	52.26734693877551	76	127
52.18607709750567	52.26734693877551	67	127
52.18607709750567	52.26734693877551	72	127
52.18607709750567	52.26734693877551	64	127
52.18607709750567	52.26734693877551	60	127
52.18607709750567	52.26734693877551	48	127
52.36022675736962	52.47632653061225	67	127
52.36022675736962	52.47632653061225	76	127
52.36022675736962	52.47632653061225	72	127
52.36022675736962	52.47632653061225	64	127
52.36022675736962	52.47632653061225	60	127
52.36022675736962	52.47632653061225	48	127
52.68530612244898	52.88267573696145	79	127
52.68530612244898	52.88267573696145	67	127
52.68530612244898	52.88267573696145	74	127
52.68530612244898	52.88267573696145	59	127
52.68530612244898	52.88267573696145	47	127
53.08004535147392	53.26580498866213	72	127
53.08004535147392	53.26580498866213	76	127
53.08004535147392	53.26580498866213	67	127
53.08004535147392	53.26580498866213	60	127
53.08004535147392	53.26580498866213	48	127
53.41673469387755	53.602494331065756	65	127
53.41673469387755	53.602494331065756	74	127
53.41673469387755	53.602494331065756	67	127
53.41673469387755	53.602494331065756	55	127
53.41673469387755	53.602494331065756	55	127
53.41673469387755	53.602494331065756	43	127
53.78825396825397	53.974013605442174	72	127
53.78825396825397	53.974013605442174	64	127
53.78825396825397	53.974013605442174	55	127
53.78825396825397	53.974013605442174	64	127
53.78825396825397	53.974013605442174	60	127
53.78825396825397	53.974013605442174	48	127
58.33936507936508	58.83859410430839	74	127
58.33936507936508	58.83859410430839	67	127
58.33936507936508	58.83859410430839	59	127
58.33936507936508	58.83859410430839	55	127
58.33936507936508	58.83859410430839	41	127
58.83859410430839	58.91986394557823	77	127
58.83859410430839	58.91986394557823	67	127
58.83859410430839	58.91986394557823	59	127
58.83859410430839	58.91986394557823	55	127
58.83859410430839	58.91986394557823	38	127
59.00113378684807	59.09401360544218	76	127
59.00113378684807	59.09401360544218	67	127
59.00113378684807	59.09401360544218	59	127
59.00113378684807	59.09401360544218	55	127
59.00113378684807	59.09401360544218	40	127
59.186893424036285	59.279773242630384	74	127
59.186893424036285	59.279773242630384	67	127
59.186893424036285	59.279773242630384	59	127
59.186893424036285	59.279773242630384	55	127
59.186893424036285	59.279773242630384	41	127
59.37265306122449	59.79061224489796	79	127
59.37265306122449	59.79061224489796	67	127
59.37265306122449	59.79061224489796	60	127
59.37265306122449	59.79061224489796	55	127
59.37265306122449	59.79061224489796	40	127
61.13736961451247	61.636598639455784	71	127
61.13736961451247	61.636598639455784	64	127
61.13736961451247	61.636598639455784	56	127
61.13736961451247	61.636598639455784	52	127
61.13736961451247	61.636598639455784	38	127
61.636598639455784	61.72947845804989	64	127
61.636598639455784	61.72947845804989	74	127
61.636598639455784	61.72947845804989	56	127
61.636598639455784	61.72947845804989	52	127
61.636598639455784	61.72947845804989	35	127
61.82235827664399	61.915238095238095	64	127
61.82235827664399	61.915238095238095	72	127
61.82235827664399	61.915238095238095	56	127
61.82235827664399	61.915238095238095	52	127
61.82235827664399	61.915238095238095	36	127
61.99650793650794	62.08938775510204	64	127
61.99650793650794	62.08938775510204	71	127
61.99650793650794	62.08938775510204	56	127
61.99650793650794	62.08938775510204	52	127
61.99650793650794	62.08938775510204	38	127
62.182267573696144	62.57700680272109	76	127
62.182267573696144	62.57700680272109	64	127
62.182267573696144	62.57700680272109	57	127
62.182267573696144	62.57700680272109	52	127
62.182267573696144	62.57700680272109	36	127
63.94698412698413	64.51587301587301	67	127
63.94698412698413	64.51587301587301	64	127
63.94698412698413	64.51587301587301	60	127
63.94698412698413	64.51587301587301	48	127
63.94698412698413	64.51587301587301	34	127
64.51587301587301	64.60875283446713	70	127
64.51587301587301	64.60875283446713	64	127
64.51587301587301	64.60875283446713	60	127
64.51587301587301	64.60875283446713	48	127
64.51587301587301	64.60875283446713	31	127
64.70163265306122	64.79451247165532	69	127
64.70163265306122	64.79451247165532	64	127
64.70163265306122	64.79451247165532	60	127
64.70163265306122	64.79451247165532	48	127
64.70163265306122	64.79451247165532	33	127
64.88739229024944	64.98027210884354	67	127
64.88739229024944	64.98027210884354	64	127
64.88739229024944	64.98027210884354	60	127
64.88739229024944	64.98027210884354	48	127
64.88739229024944	64.98027210884354	34	127
65.07312925170068	65.44467120181406	72	127
65.07312925170068	65.44467120181406	60	127
65.07312925170068	65.44467120181406	65	127
65.07312925170068	65.44467120181406	48	127
65.07312925170068	65.44467120181406	33	127
66.77981859410431	67.27904761904762	64	127
66.77981859410431	67.27904761904762	57	127
66.77981859410431	67.27904761904762	49	127
66.77981859410431	67.27904761904762	31	127
67.37192743764173	67.47639455782313	69	127
67.37192743764173	67.47639455782313	57	127
67.37192743764173	67.47639455782313	49	127
67.37192743764173	67.47639455782313	29	127
67.58090702947845	67.68539682539682	67	127
67.58090702947845	67.68539682539682	57	127
67.58090702947845	67.68539682539682	49	127
67.58090702947845	67.68539682539682	31	127
67.78988662131519	68.53292517006803	57	127
67.78988662131519	68.53292517006803	69	127
67.78988662131519	68.53292517006803	29	127
67.78988662131519	68.93927437641723	50	127
68.53292517006803	69.38045351473923	58	127
68.53292517006803	69.38045351473923	31	127
68.53292517006803	69.38045351473923	67	127
68.93927437641723	69.38045351473923	52	127
69.38045351473923	71.23804988662131	33	127
69.38045351473923	70.25120181405896	65	127
69.38045351473923	70.25120181405896	53	127
69.38045351473923	70.73882086167801	57	127
70.25120181405896	71.23804988662131	49	127
70.25120181405896	71.23804988662131	64	127
70.73882086167801	71.23804988662131	55	127
71.23804988662131	71.4354195011338	38	127
71.23804988662131	71.65600907029479	62	127
71.23804988662131	71.65600907029479	54	127
71.23804988662131	71.65600907029479	50	127
71.65600907029479	71.79530612244898	42	127
71.65600907029479	72.10879818594104	74	127
71.65600907029479	72.10879818594104	62	127
71.9346485260771	71.95786848072562	45	127
71.98108843537415	72.25972789115646	50	127
72.10879818594104	72.25972789115646	78	127
72.10879818594104	72.25972789115646	66	127
72.25972789115646	72.43385487528344	76	127
72.25972789115646	72.43385487528344	64	127
72.43385487528344	72.57319727891156	74	127
72.43385487528344	72.57319727891156	62	127
72.57319727891156	72.73573696145125	38	127
72.57319727891156	73.25818594104308	81	127
72.57319727891156	73.25818594104308	69	127
72.89827664399093	73.03759637188209	42	127
73.17689342403628	73.21174603174603	45	127
73.25818594104308	73.60648526077098	78	127
73.25818594104308	73.60648526077098	66	127
73.25818594104308	73.60648526077098	50	127
73.60648526077098	73.97800453514739	74	127
73.60648526077098	73.97800453514739	62	127
73.97800453514739	74.18698412698413	33	127
73.97800453514739	74.37274376417234	69	127
73.97800453514739	74.37274376417234	57	127
74.37274376417234	74.52367346938776	37	127
74.37274376417234	74.86036281179139	57	127
74.65138321995465	74.6978231292517	40	127
74.74426303854875	75.03451247165533	45	127
74.86036281179139	75.03451247165533	61	127
75.03451247165533	75.22024943310657	59	127
75.22024943310657	75.39442176870749	57	127
75.39442176870749	75.5453514739229	33	127
75.39442176870749	76.0909977324263	64	127
75.71950113378685	75.85879818594104	37	127
75.99814058956916	76.04458049886621	40	127
76.0909977324263	76.42770975056689	61	127
76.0909977324263	76.42770975056689	45	127
76.42770975056689	76.79922902494332	55	127
76.79922902494332	76.97337868480726	38	127
76.79922902494332	77.15913832199547	54	127
77.15913832199547	77.29845804988662	42	127
77.15913832199547	77.63514739229025	74	127
77.15913832199547	77.63514739229025	62	127
77.42616780045351	77.47260770975056	45	127
77.49580498866213	77.82090702947846	50	127
77.63514739229025	77.82090702947846	78	127
77.63514739229025	77.82090702947846	66	127
77.82090702947846	78.0066439909297	76	127
77.82090702947846	78.0066439909297	64	127
78.0066439909297	78.20403628117914	74	127
78.0066439909297	78.20403628117914	62	127
78.20403628117914	78.37818594104309	38	127
78.20403628117914	78.91224489795918	81	127
78.20403628117914	78.91224489795918	69	127
78.5639455782313	78.70326530612245	42	127
78.84258503401361	78.87741496598639	45	127
78.91224489795918	79.23732426303854	78	127
78.91224489795918	79.23732426303854	66	127
78.91224489795918	79.23732426303854	50	127
79.23732426303854	79.56240362811792	74	127
79.23732426303854	79.56240362811792	62	127
79.56240362811792	79.9455328798186	69	127
79.56240362811792	79.7249433106576	33	127
79.56240362811792	79.9455328798186	57	127
79.9455328798186	80.08485260770975	37	127
79.9455328798186	80.4795918367347	57	127
80.20095238095239	80.24739229024944	40	127
80.29383219954649	80.65374149659864	45	127
80.4795918367347	80.65374149659864	61	127
80.65374149659864	80.80467120181406	59	127
80.80467120181406	80.90916099773243	57	127
80.90916099773243	81.67541950113379	64	127
80.90916099773243	81.1065306122449	33	127
81.31551020408163	81.4548299319728	37	127
81.59414965986394	81.62897959183674	40	127
81.67541950113379	82.02371882086167	61	127
81.67541950113379	82.02371882086167	45	127
82.02371882086167	82.37201814058957	55	127
82.37201814058957	82.58097505668934	38	127
82.37201814058957	82.74353741496599	54	127
82.74353741496599	82.8944671201814	42	127
82.74353741496599	83.30081632653061	74	127
82.74353741496599	83.30081632653061	62	127
83.04539682539682	83.09181405895691	45	127
83.14988662131519	83.45172335600907	50	127
83.30081632653061	83.45172335600907	78	127
83.30081632653061	83.45172335600907	66	127
83.45172335600907	83.63750566893424	76	127
83.45172335600907	83.63750566893424	64	127
83.63750566893424	83.76521541950113	74	127
83.63750566893424	83.76521541950113	62	127
83.76521541950113	84.47340136054422	69	127
83.76521541950113	83.92775510204082	38	127
83.76521541950113	84.47340136054422	81	127
84.10190476190476	84.24120181405895	42	127
84.38054421768707	84.42698412698412	45	127
84.47340136054422	84.8565306122449	80	127
84.47340136054422	84.8565306122449	68	127
84.47340136054422	84.8565306122449	50	127
84.8565306122449	85.18163265306123	78	127
84.8565306122449	85.18163265306123	66	127
85.18163265306123	85.36736961451247	37	127
85.18163265306123	86.56321995464853	85	127
85.18163265306123	86.56321995464853	73	127
85.50671201814059	86.02916099773243	54	127
85.50671201814059	85.64603174603175	42	127
85.75049886621315	85.80857142857143	45	127
85.85501133786848	86.1917006802721	49	127
86.02916099773243	86.1917006802721	57	127
86.1917006802721	86.37746031746032	56	127
86.37746031746032	86.56321995464853	54	127
86.56321995464853	87.67777777777778	59	127
86.56321995464853	86.62124716553288	77	127
86.56321995464853	86.74895691609977	37	127
86.56321995464853	87.67777777777778	68	127
86.62124716553288	86.69092970521542	78	127
86.69092970521542	86.74895691609977	77	127
86.74895691609977	86.81863945578232	78	127
86.81863945578232	86.87666666666667	77	127
86.87666666666667	86.93473922902494	78	127
86.93473922902494	87.08566893424036	41	127
86.93473922902494	87.00437641723356	77	127
87.00437641723356	87.0740589569161	78	127
87.0740589569161	87.13208616780045	77	127
87.13208616780045	87.201768707483	78	127
87.201768707483	87.25979591836735	77	127
87.22498866213152	87.27142857142857	44	127
87.25979591836735	87.30625850340137	78	127
87.30625850340137	87.35269841269842	77	127
87.30625850340137	87.67777777777778	49	127
87.35269841269842	87.41072562358276	78	127
87.41072562358276	87.48040816326531	77	127
87.48040816326531	87.53843537414966	78	127
87.53843537414966	87.6081179138322	77	127
87.6081179138322	87.67777777777778	78	127
87.67777777777778	87.86353741496599	57	127
87.67777777777778	87.7358276643991	77	127
87.67777777777778	87.86353741496599	69	127
87.7358276643991	87.79387755102042	78	127
87.79387755102042	87.86353741496599	77	127
87.86353741496599	88.0260544217687	56	127
87.86353741496599	87.90997732426304	78	127
87.86353741496599	88.0260544217687	71	127
87.90997732426304	87.97963718820861	75	127
87.97963718820861	88.0260544217687	77	127
88.0260544217687	88.1537641723356	69	127
88.0260544217687	88.1537641723356	78	127
88.0260544217687	88.1537641723356	54	127
88.0260544217687	88.32793650793651	42	127
88.1537641723356	88.32793650793651	78	127
88.1537641723356	88.32793650793651	61	127
88.1537641723356	88.32793650793651	69	127
88.32793650793651	88.42081632653061	78	127
88.32793650793651	88.42081632653061	69	127
88.32793650793651	88.42081632653061	61	127
88.32793650793651	88.42081632653061	42	127
88.51369614512471	88.60657596371883	78	127
88.51369614512471	88.60657596371883	69	127
88.51369614512471	88.60657596371883	61	127
88.51369614512471	88.60657596371883	42	127
88.69945578231292	89.04773242630385	61	127
88.69945578231292	88.86199546485261	78	127
88.69945578231292	89.04773242630385	69	127
88.69945578231292	89.04773242630385	42	127
88.86199546485261	89.04773242630385	81	127
89.04773242630385	89.16385487528345	81	127
89.04773242630385	89.16385487528345	69	127
89.04773242630385	89.16385487528345	61	127
89.04773242630385	89.16385487528345	42	127
89.25673469387755	89.36122448979592	81	127
89.25673469387755	89.36122448979592	69	127
89.25673469387755	89.36122448979592	61	127
89.25673469387755	89.36122448979592	42	127
89.46571428571428	89.83723356009071	69	127
89.46571428571428	89.83723356009071	42	127
89.46571428571428	89.6514739229025	81	127
89.46571428571428	89.6514739229025	61	127
89.6514739229025	89.83723356009071	78	127
89.6514739229025	89.83723356009071	62	127
89.83723356009071	89.91848072562358	69	127
89.83723356009071	89.91848072562358	78	127
89.83723356009071	89.91848072562358	62	127
89.83723356009071	89.91848072562358	42	127
90.01138321995465	90.08104308390023	69	127
90.01138321995465	90.08104308390023	62	127
90.01138321995465	90.08104308390023	42	127
90.01138321995465	90.08104308390023	78	127
90.1507029478458	90.33646258503401	78	127
90.1507029478458	90.33646258503401	62	127
90.1507029478458	90.52222222222223	69	127
90.1507029478458	90.52222222222223	42	127
90.33646258503401	90.52222222222223	61	127
90.33646258503401	90.52222222222223	81	127
90.52222222222223	90.61510204081632	61	127
90.52222222222223	90.61510204081632	81	127
90.52222222222223	90.61510204081632	69	127
90.52222222222223	90.61510204081632	42	127
90.69637188208617	90.78925170068027	61	127
90.69637188208617	90.78925170068027	42	127
90.69637188208617	90.78925170068027	81	127
90.69637188208617	90.78925170068027	69	127
90.88213151927438	91.06786848072562	81	127
90.88213151927438	91.06786848072562	61	127
90.88213151927438	91.25365079365079	69	127
90.88213151927438	91.25365079365079	42	127
91.06786848072562	91.25365079365079	78	127
91.06786848072562	91.25365079365079	62	127
91.25365079365079	91.33492063492064	78	127
91.25365079365079	91.33492063492064	69	127
91.25365079365079	91.33492063492064	62	127
91.25365079365079	91.33492063492064	42	127
91.42780045351473	91.52068027210885	62	127
91.42780045351473	91.52068027210885	42	127
91.42780045351473	91.52068027210885	78	127
91.42780045351473	91.52068027210885	69	127
91.61356009070295	91.81092970521541	62	127
91.61356009070295	92.0082993197279	69	127
91.61356009070295	91.81092970521541	78	127
91.61356009070295	92.0082993197279	42	127
91.81092970521541	92.0082993197279	81	127
91.81092970521541	92.0082993197279	61	127
92.0082993197279	92.08954648526077	81	127
92.0082993197279	92.08954648526077	69	127
92.0082993197279	92.08954648526077	61	127
92.0082993197279	92.08954648526077	42	127
92.15922902494331	92.25210884353741	61	127
92.15922902494331	92.25210884353741	42	127
92.15922902494331	92.25210884353741	81	127
92.15922902494331	92.25210884353741	69	127
92.32176870748299	92.5075283446712	81	127
92.32176870748299	92.5075283446712	61	127
92.32176870748299	92.68167800453514	69	127
92.32176870748299	92.68167800453514	42	127
92.5075283446712	92.68167800453514	78	127
92.5075283446712	92.68167800453514	62	127
92.68167800453514	92.76294784580499	62	127
92.68167800453514	92.76294784580499	42	127
92.68167800453514	92.76294784580499	78	127
92.68167800453514	92.76294784580499	69	127
92.85580498866213	92.9487074829932	62	127
92.85580498866213	92.9487074829932	42	127
92.85580498866213	92.9487074829932	78	127
92.85580498866213	92.9487074829932	69	127
93.02997732426304	93.19251700680272	78	127
93.02997732426304	93.19251700680272	62	127
93.02997732426304	93.3898866213152	69	127
93.02997732426304	93.3898866213152	42	127
93.19251700680272	93.3898866213152	72	127
93.19251700680272	93.3898866213152	63	127
93.3898866213152	93.4943537414966	72	127
93.3898866213152	93.4943537414966	69	127
93.3898866213152	93.4943537414966	63	127
93.3898866213152	93.4943537414966	42	127
93.58725623582767	93.69174603174604	72	127
93.58725623582767	93.69174603174604	69	127
93.58725623582767	93.69174603174604	63	127
93.58725623582767	93.69174603174604	42	127
93.77301587301588	93.95877551020408	72	127
93.77301587301588	93.95877551020408	69	127
93.77301587301588	93.95877551020408	63	127
93.77301587301588	93.95877551020408	42	127
93.95877551020408	94.14453514739229	71	127
93.95877551020408	94.14453514739229	67	127
93.95877551020408	94.14453514739229	64	127
93.95877551020408	94.14453514739229	43	127
94.14453514739229	94.23739229024943	71	127
94.14453514739229	94.23739229024943	67	127
94.14453514739229	94.23739229024943	64	127
94.14453514739229	94.23739229024943	43	127
94.3302947845805	94.4231746031746	71	127
94.3302947845805	94.4231746031746	67	127
94.3302947845805	94.4231746031746	64	127
94.3302947845805	94.4231746031746	43	127
94.51603174603174	94.70181405895691	64	127
94.51603174603174	94.70181405895691	71	127
94.51603174603174	94.70181405895691	67	127
94.51603174603174	94.88757369614513	43	127
94.70181405895691	94.88757369614513	71	127
94.70181405895691	94.88757369614513	63	127
94.70181405895691	94.88757369614513	83	127
94.88757369614513	94.98045351473922	83	127
94.88757369614513	94.98045351473922	71	127
94.88757369614513	94.98045351473922	63	127
94.88757369614513	94.98045351473922	43	127
95.02689342403629	95.11977324263039	83	127
95.02689342403629	95.11977324263039	71	127
95.02689342403629	95.11977324263039	63	127
95.02689342403629	95.11977324263039	43	127
95.21265306122449	95.38680272108843	83	127
95.21265306122449	95.38680272108843	63	127
95.21265306122449	95.57256235827664	43	127
95.21265306122449	95.57256235827664	71	127
95.38680272108843	95.57256235827664	79	127
95.38680272108843	95.57256235827664	64	127
95.57256235827664	95.66544217687076	79	127
95.57256235827664	95.66544217687076	71	127
95.57256235827664	95.66544217687076	64	127
95.57256235827664	95.66544217687076	43	127
95.75832199546485	95.85120181405895	64	127
95.75832199546485	95.85120181405895	43	127
95.75832199546485	95.85120181405895	79	127
95.75832199546485	95.85120181405895	71	127
95.92086167800454	96.09501133786848	64	127
95.92086167800454	96.09501133786848	79	127
95.92086167800454	96.28077097505668	71	127
95.92086167800454	96.28077097505668	43	127
96.09501133786848	96.28077097505668	83	127
96.09501133786848	96.28077097505668	63	127
96.28077097505668	96.3736507936508	63	127
96.28077097505668	96.3736507936508	43	127
96.28077097505668	96.3736507936508	71	127
96.28077097505668	96.3736507936508	83	127
96.44331065759637	96.52458049886621	43	127
96.44331065759637	96.52458049886621	83	127
96.44331065759637	96.52458049886621	71	127
96.44331065759637	96.52458049886621	63	127
96.60585034013606	96.79160997732426	83	127
96.60585034013606	96.79160997732426	63	127
96.60585034013606	96.96575963718821	71	127
96.60585034013606	96.96575963718821	43	127
96.79160997732426	96.96575963718821	79	127
96.79160997732426	96.96575963718821	64	127
96.96575963718821	97.05863945578231	43	127
96.96575963718821	97.05863945578231	79	127
96.96575963718821	97.05863945578231	71	127
96.96575963718821	97.05863945578231	64	127
97.15151927437641	97.23278911564626	64	127
97.15151927437641	97.23278911564626	79	127
97.15151927437641	97.23278911564626	71	127
97.15151927437641	97.23278911564626	43	127
97.2792290249433	97.45337868480726	79	127
97.2792290249433	97.65074829931973	71	127
97.2792290249433	97.65074829931973	43	127
97.2792290249433	97.45337868480726	64	127
97.45337868480726	97.65074829931973	62	127
97.45337868480726	97.65074829931973	83	127
97.65074829931973	97.74362811791383	71	127
97.65074829931973	97.74362811791383	43	127
97.65074829931973	97.74362811791383	62	127
97.65074829931973	97.74362811791383	83	127
97.83650793650794	97.92938775510204	83	127
97.83650793650794	97.92938775510204	71	127
97.83650793650794	97.92938775510204	62	127
97.83650793650794	97.92938775510204	43	127
98.02226757369614	98.20802721088435	83	127
98.02226757369614	98.20802721088435	62	127
98.02226757369614	98.39378684807257	71	127
98.02226757369614	98.39378684807257	43	127
98.20802721088435	98.39378684807257	79	127
98.20802721088435	98.39378684807257	63	127
98.39378684807257	98.49827664399093	63	127
98.39378684807257	98.49827664399093	79	127
98.39378684807257	98.49827664399093	71	127
98.39378684807257	98.49827664399093	43	127
98.57954648526078	98.67242630385488	63	127
98.57954648526078	98.67242630385488	43	127
98.57954648526078	98.67242630385488	79	127
98.57954648526078	98.67242630385488	71	127
98.76530612244898	98.93945578231292	63	127
98.76530612244898	98.93945578231292	79	127
98.76530612244898	99.1368253968254	71	127
98.76530612244898	99.1368253968254	43	127
98.93945578231292	99.1368253968254	76	127
98.93945578231292	99.1368253968254	64	127
99.1368253968254	99.24131519274377	76	127
99.1368253968254	99.24131519274377	71	127
99.1368253968254	99.24131519274377	64	127
99.1368253968254	99.24131519274377	43	127
99.33419501133787	99.41546485260771	76	127
99.33419501133787	99.41546485260771	71	127
99.33419501133787	99.41546485260771	64	127
99.33419501133787	99.41546485260771	43	127
99.53156462585034	99.69410430839002	76	127
99.53156462585034	99.69410430839002	64	127
99.53156462585034	99.86825396825397	71	127
99.53156462585034	99.86825396825397	43	127
99.69410430839002	99.86825396825397	65	127
99.69410430839002	99.86825396825397	74	127
99.86825396825397	99.96113378684807	65	127
99.86825396825397	99.96113378684807	43	127
99.86825396825397	99.96113378684807	74	127
99.86825396825397	99.96113378684807	71	127
100.06562358276643	100.15850340136055	74	127
100.06562358276643	100.15850340136055	71	127
100.06562358276643	100.15850340136055	65	127
100.06562358276643	100.15850340136055	43	127
100.25138321995465	100.41392290249433	74	127
100.25138321995465	100.41392290249433	71	127
100.25138321995465	100.41392290249433	43	127
100.25138321995465	100.57646258503401	65	127
100.41392290249433	100.57646258503401	86	127
100.41392290249433	100.57646258503401	74	127
100.41392290249433	100.57646258503401	44	127
100.57646258503401	100.65773242630385	86	127
100.57646258503401	100.65773242630385	74	127
100.57646258503401	100.65773242630385	65	127
100.57646258503401	100.65773242630385	44	127
100.75061224489797	100.8318820861678	65	127
100.75061224489797	100.8318820861678	44	127
100.75061224489797	100.8318820861678	86	127
100.75061224489797	100.8318820861678	74	127
100.88993197278911	101.24984126984127	74	127
100.88993197278911	101.0524716553288	86	127
100.88993197278911	101.0524716553288	44	127
100.88993197278911	101.24984126984127	65	127
101.0524716553288	101.24984126984127	81	127
101.0524716553288	101.24984126984127	45	127
101.24984126984127	101.34272108843537	74	127
101.24984126984127	101.34272108843537	65	127
101.24984126984127	101.34272108843537	81	127
101.24984126984127	101.34272108843537	45	127
101.43560090702948	101.54009070294785	65	127
101.43560090702948	101.54009070294785	45	127
101.43560090702948	101.54009070294785	81	127
101.43560090702948	101.54009070294785	74	127
101.63297052154195	101.98126984126984	74	127
101.63297052154195	101.81873015873016	81	127
101.63297052154195	101.81873015873016	45	127
101.63297052154195	101.98126984126984	65	127
101.81873015873016	101.98126984126984	46	127
101.81873015873016	101.98126984126984	80	127
101.98126984126984	102.05092970521542	74	127
101.98126984126984	102.05092970521542	65	127
101.98126984126984	102.05092970521542	46	127
101.98126984126984	102.05092970521542	80	127
102.13219954648527	102.22507936507937	65	127
102.13219954648527	102.22507936507937	80	127
102.13219954648527	102.22507936507937	46	127
102.13219954648527	102.22507936507937	74	127
102.29473922902494	102.38761904761905	79	127
102.29473922902494	102.38761904761905	46	127
102.29473922902494	102.561768707483	74	127
102.29473922902494	102.561768707483	65	127
102.38761904761905	102.561768707483	47	127
102.38761904761905	102.561768707483	79	127
102.561768707483	102.6198185941043	74	127
102.561768707483	102.6198185941043	65	127
102.561768707483	102.6198185941043	47	127
102.561768707483	102.6198185941043	79	127
102.71269841269842	102.78235827664399	65	127
102.71269841269842	102.78235827664399	47	127
102.71269841269842	102.78235827664399	79	127
102.71269841269842	102.78235827664399	74	127
102.87523809523809	103.0609977324263	79	127
102.87523809523809	103.0609977324263	74	127
102.87523809523809	103.0609977324263	65	127
102.87523809523809	103.0609977324263	47	127
103.0609977324263	103.24675736961451	81	127
103.0609977324263	103.24675736961451	72	127
103.0609977324263	103.24675736961451	64	127
103.0609977324263	103.24675736961451	48	127
103.24675736961451	103.33963718820861	79	127
103.24675736961451	103.33963718820861	72	127
103.24675736961451	103.33963718820861	64	127
103.24675736961451	103.33963718820861	48	127
103.44412698412698	103.54861678004535	64	127
103.44412698412698	103.54861678004535	79	127
103.44412698412698	103.54861678004535	72	127
103.44412698412698	103.54861678004535	48	127
103.64149659863945	103.80403628117914	72	127
103.64149659863945	103.80403628117914	48	127
103.64149659863945	103.80403628117914	79	127
103.64149659863945	103.98979591836735	64	127
103.80403628117914	103.98979591836735	81	127
103.80403628117914	103.98979591836735	70	127
103.80403628117914	103.98979591836735	49	127
103.98979591836735	104.05945578231292	64	127
103.98979591836735	104.05945578231292	79	127
103.98979591836735	104.05945578231292	70	127
103.98979591836735	104.05945578231292	49	127
104.15233560090702	104.24521541950114	64	127
104.15233560090702	104.24521541950114	49	127
104.15233560090702	104.24521541950114	79	127
104.15233560090702	104.24521541950114	70	127
104.30326530612246	104.46580498866213	79	127
104.30326530612246	104.46580498866213	70	127
104.30326530612246	104.46580498866213	64	127
104.30326530612246	104.46580498866213	49	127
104.46580498866213	104.63995464852607	50	127
104.46580498866213	104.63995464852607	78	127
104.46580498866213	104.63995464852607	69	127
104.46580498866213	104.63995464852607	66	127
104.63995464852607	104.73283446712018	66	127
104.63995464852607	104.73283446712018	50	127
104.63995464852607	104.73283446712018	78	127
104.63995464852607	104.73283446712018	69	127
104.81410430839003	104.8837641723356	66	127
104.81410430839003	104.8837641723356	50	127
104.81410430839003	104.8837641723356	78	127
104.81410430839003	104.8837641723356	69	127
104.9766439909297	105.16240362811791	78	127
104.9766439909297	105.16240362811791	69	127
104.9766439909297	105.16240362811791	66	127
104.9766439909297	105.16240362811791	50	127
105.16240362811791	105.35977324263038	67	127
105.16240362811791	105.35977324263038	43	127
105.16240362811791	105.35977324263038	76	127
105.16240362811791	105.35977324263038	71	127
105.35977324263038	105.4526530612245	76	127
105.35977324263038	105.4526530612245	71	127
105.35977324263038	105.4526530612245	67	127
105.35977324263038	105.4526530612245	43	127
105.55714285714286	105.65002267573696	67	127
105.55714285714286	105.65002267573696	43	127
105.55714285714286	105.65002267573696	76	127
105.55714285714286	105.65002267573696	71	127
105.74290249433106	105.92866213151927	76	127
105.74290249433106	105.92866213151927	71	127
105.74290249433106	105.92866213151927	67	127
105.74290249433106	105.92866213151927	43	127
105.92866213151927	106.10281179138322	69	127
105.92866213151927	106.10281179138322	74	127
105.92866213151927	106.10281179138322	45	127
105.92866213151927	106.10281179138322	66	127
106.10281179138322	106.19569160997733	45	127
106.10281179138322	106.19569160997733	74	127
106.10281179138322	106.19569160997733	69	127
106.10281179138322	106.19569160997733	66	127
106.28857142857143	106.358231292517	66	127
106.28857142857143	106.358231292517	45	127
106.28857142857143	106.358231292517	74	127
106.28857142857143	106.358231292517	69	127
106.45111111111112	106.62526077097506	66	127
106.45111111111112	106.62526077097506	45	127
106.45111111111112	106.62526077097506	74	127
106.45111111111112	106.62526077097506	69	127
106.62526077097506	106.82263038548753	33	127
106.62526077097506	106.82263038548753	64	127
106.62526077097506	106.82263038548753	73	127
106.62526077097506	106.82263038548753	67	127
106.82263038548753	106.91551020408163	73	127
106.82263038548753	106.91551020408163	67	127
106.82263038548753	106.91551020408163	64	127
106.82263038548753	106.91551020408163	33	127
107.00839002267574	107.07804988662132	73	127
107.00839002267574	107.07804988662132	64	127
107.00839002267574	107.07804988662132	33	127
107.00839002267574	107.07804988662132	67	127
107.17092970521541	118.40938775510205	38	127
107.17092970521541	107.461179138322	78	127
107.17092970521541	107.461179138322	69	127
107.17092970521541	107.5540589569161	57	127
107.461179138322	107.50761904761904	71	127
107.461179138322	107.50761904761904	79	127
107.50761904761904	107.5540589569161	69	127
107.50761904761904	107.5540589569161	78	127
107.5540589569161	107.7398185941043	67	127
107.5540589569161	107.7398185941043	76	127
107.5540589569161	107.7398185941043	61	127
107.7398185941043	107.82108843537415	66	127
107.7398185941043	107.82108843537415	62	127
107.7398185941043	107.82108843537415	74	127
107.91396825396825	108.22743764172336	74	127
107.91396825396825	108.22743764172336	66	127
107.91396825396825	108.22743764172336	57	127
108.22743764172336	108.52929705215419	74	127
108.22743764172336	108.52929705215419	66	127
108.22743764172336	108.52929705215419	62	127
108.52929705215419	108.8079365079365	78	127
108.52929705215419	108.8079365079365	69	127
108.52929705215419	108.86598639455782	57	127
108.8079365079365	108.81954648526077	79	127
108.8079365079365	108.81954648526077	71	127
108.81954648526077	108.86598639455782	78	127
108.81954648526077	108.86598639455782	69	127
108.86598639455782	109.10979591836735	67	127
108.86598639455782	109.10979591836735	76	127
108.86598639455782	109.10979591836735	61	127
109.10979591836735	109.20267573696145	62	127
109.10979591836735	109.20267573696145	74	127
109.10979591836735	109.20267573696145	66	127
109.29555555555555	109.65546485260771	74	127
109.29555555555555	109.65546485260771	66	127
109.29555555555555	109.65546485260771	57	127
109.65546485260771	110.00376417233561	74	127
109.65546485260771	110.00376417233561	66	127
109.65546485260771	110.00376417233561	62	127
110.00376417233561	110.16630385487528	71	127
110.00376417233561	110.16630385487528	79	127
110.00376417233561	110.30562358276644	59	127
110.16630385487528	110.30562358276644	78	127
110.16630385487528	110.30562358276644	69	127
110.30562358276644	110.47977324263039	69	127
110.30562358276644	110.47977324263039	63	127
110.30562358276644	110.47977324263039	78	127
110.47977324263039	110.6655328798186	67	127
110.47977324263039	110.6655328798186	64	127
110.47977324263039	110.6655328798186	76	127
110.6655328798186	111.39696145124717	67	127
110.6655328798186	111.01383219954648	59	127
110.6655328798186	111.39696145124717	76	127
111.01383219954648	111.39696145124717	64	127
111.39696145124717	111.57111111111111	79	127
111.39696145124717	111.57111111111111	71	127
111.39696145124717	111.75687074829932	59	127
111.57111111111111	111.75687074829932	78	127
111.57111111111111	111.75687074829932	69	127
111.75687074829932	111.93102040816326	69	127
111.75687074829932	111.93102040816326	78	127
111.75687074829932	111.93102040816326	63	127
111.93102040816326	112.1051700680272	76	127
111.93102040816326	112.1051700680272	64	127
111.93102040816326	112.1051700680272	67	127
112.1051700680272	112.82498866213152	76	127
112.1051700680272	112.82498866213152	67	127
112.1051700680272	112.44185941043084	59	127
112.44185941043084	112.82498866213152	64	127
112.82498866213152	112.96430839002268	61	127
112.82498866213152	113.05718820861678	76	127
112.82498866213152	113.05718820861678	67	127
112.96430839002268	113.15006802721088	64	127
113.05718820861678	113.10362811791383	69	127
113.05718820861678	113.10362811791383	78	127
113.10362811791383	113.15006802721088	76	127
113.10362811791383	113.15006802721088	67	127
113.15006802721088	113.32421768707484	66	127
113.15006802721088	113.32421768707484	74	127
113.15006802721088	113.32421768707484	66	127
113.32421768707484	113.50997732426303	67	127
113.32421768707484	113.41709750566893	73	127
113.32421768707484	113.41709750566893	64	127
113.50997732426303	113.86988662131519	73	127
113.50997732426303	113.86988662131519	64	127
113.50997732426303	113.86988662131519	67	127
113.86988662131519	114.21818594104309	73	127
113.86988662131519	114.21818594104309	64	127
113.86988662131519	114.21818594104309	67	127
114.21818594104309	114.4619954648526	76	127
114.21818594104309	114.3691156462585	61	127
114.21818594104309	114.4619954648526	67	127
114.3691156462585	114.56648526077097	64	127
114.4619954648526	114.52004535147393	78	127
114.4619954648526	114.52004535147393	69	127
114.52004535147393	114.56648526077097	67	127
114.52004535147393	114.56648526077097	76	127
114.56648526077097	114.75224489795919	74	127
114.56648526077097	114.75224489795919	66	127
114.56648526077097	114.75224489795919	66	127
114.75224489795919	114.85673469387756	73	127
114.75224489795919	114.85673469387756	64	127
114.75224489795919	114.94961451247165	67	127
114.94961451247165	115.28630385487529	64	127
114.94961451247165	115.28630385487529	67	127
114.94961451247165	115.28630385487529	73	127
115.28630385487529	115.59977324263039	67	127
115.28630385487529	115.59977324263039	73	127
115.28630385487529	115.59977324263039	64	127
115.59977324263039	115.79714285714286	78	127
115.59977324263039	115.79714285714286	69	127
115.59977324263039	115.79714285714286	57	127
115.79714285714286	115.98290249433107	76	127
115.79714285714286	115.98290249433107	67	127
115.79714285714286	115.98290249433107	61	127
115.98290249433107	116.16866213151927	76	127
115.98290249433107	116.16866213151927	67	127
115.98290249433107	116.16866213151927	61	127
116.16866213151927	116.35442176870748	66	127
116.16866213151927	116.35442176870748	74	127
116.16866213151927	116.35442176870748	62	127
116.35442176870748	117.00458049886622	66	127
116.35442176870748	116.69111111111111	57	127
116.35442176870748	117.00458049886622	74	127
116.69111111111111	117.00458049886622	62	127
117.00458049886622	117.19034013605442	57	127
117.00458049886622	117.19034013605442	78	127
117.00458049886622	117.19034013605442	69	127
117.19034013605442	117.37609977324263	67	127
117.19034013605442	117.37609977324263	61	127
117.19034013605442	117.37609977324263	76	127
117.37609977324263	117.56185941043084	67	127
117.37609977324263	117.56185941043084	76	127
117.37609977324263	117.56185941043084	61	127
117.56185941043084	117.74761904761905	66	127
117.56185941043084	117.74761904761905	74	127
117.56185941043084	117.74761904761905	62	127
117.74761904761905	118.40938775510205	74	127
117.74761904761905	118.40938775510205	66	127
117.74761904761905	118.09591836734694	57	127
118.09591836734694	118.40938775510205	62	127
120.97519274376417	121.64857142857143	34	127
120.97519274376417	121.10290249433106	79	127
121.10290249433106	121.19578231292518	77	127
121.19578231292518	121.277052154195	73	127
121.277052154195	121.64857142857143	53	127
121.277052154195	121.39315192743764	75	127
121.277052154195	121.64857142857143	50	127
121.39315192743764	121.53247165532879	74	127
121.53247165532879	121.64857142857143	69	127
121.64857142857143	122.02009070294784	53	127
121.64857142857143	121.77628117913832	72	127
121.64857142857143	122.02009070294784	58	127
121.77628117913832	121.90399092970522	70	127
121.90399092970522	122.02009070294784	64	127
122.02009070294784	122.40321995464852	58	127
122.02009070294784	122.40321995464852	62	127
122.02009070294784	122.14780045351473	67	127
122.14780045351473	122.27551020408163	65	127
122.27551020408163	122.40321995464852	70	127
122.40321995464852	123.81963718820862	69	127
122.40321995464852	123.48294784580499	63	127
122.40321995464852	123.48294784580499	54	127
122.76312925170068	123.0998185941043	34	127
123.0998185941043	123.48294784580499	39	127
123.48294784580499	123.81963718820862	51	127
123.48294784580499	123.81963718820862	66	127
123.48294784580499	123.81963718820862	48	127
123.81963718820862	123.94734693877551	79	127
123.81963718820862	124.00539682539683	65	127
123.81963718820862	124.00539682539683	50	127
123.81963718820862	124.52784580498866	46	127
123.94734693877551	124.0750566893424	77	127
124.0750566893424	124.19115646258503	73	127
124.19115646258503	124.52784580498866	53	127
124.19115646258503	124.52784580498866	50	127
124.19115646258503	124.2956462585034	75	127
124.2956462585034	124.42335600907029	74	127
124.42335600907029	124.52784580498866	69	127
124.52784580498866	124.6439455782313	72	127
124.52784580498866	124.89936507936508	58	127
124.52784580498866	124.89936507936508	53	127
124.6439455782313	124.77165532879819	70	127
124.77165532879819	124.89936507936508	64	127
124.89936507936508	125.24766439909297	62	127
124.89936507936508	125.24766439909297	58	127
124.89936507936508	125.0154648526077	67	127
125.0154648526077	125.11995464852608	65	127
125.11995464852608	125.24766439909297	70	127
125.24766439909297	126.32739229024943	63	127
125.24766439909297	126.32739229024943	54	127
125.24766439909297	126.66408163265307	69	127
125.6191836734694	125.96748299319728	34	127
125.96748299319728	126.32739229024943	39	127
126.32739229024943	126.66408163265307	66	127
126.32739229024943	126.66408163265307	48	127
126.32739229024943	126.66408163265307	51	127
126.66408163265307	126.76857142857143	70	127
126.66408163265307	126.76857142857143	65	127
126.66408163265307	126.76857142857143	50	127
126.66408163265307	126.76857142857143	46	127
126.93111111111111	127.31424036281179	65	127
126.93111111111111	127.31424036281179	62	127
127.31424036281179	127.63931972789116	70	127
127.31424036281179	127.63931972789116	65	127
127.63931972789116	127.9992290249433	70	127
127.63931972789116	127.9992290249433	74	127
127.9992290249433	129.3808163265306	77	127
127.9992290249433	129.3808163265306	74	127
128.33591836734695	128.62616780045352	38	127
128.33591836734695	128.62616780045352	53	127
128.62616780045352	128.99768707482994	41	127
128.62616780045352	128.99768707482994	58	127
128.99768707482994	129.3808163265306	62	127
128.99768707482994	129.3808163265306	46	127
129.3808163265306	129.57818594104307	78	127
129.3808163265306	129.57818594104307	66	127
129.3808163265306	129.57818594104307	69	127
129.3808163265306	130.13544217687075	62	127
129.3808163265306	130.13544217687075	45	127
129.7755328798186	130.13544217687075	69	127
129.7755328798186	130.13544217687075	66	127
130.13544217687075	130.50698412698412	74	127
130.13544217687075	130.50698412698412	69	127
130.50698412698412	130.86689342403628	78	127
130.50698412698412	130.86689342403628	74	127
130.86689342403628	131.21519274376416	33	127
130.86689342403628	131.79569160997733	79	127
130.86689342403628	131.79569160997733	73	127
131.21519274376416	131.5518820861678	49	127
131.21519274376416	131.5518820861678	64	127
131.5518820861678	131.79569160997733	52	127
131.5518820861678	131.79569160997733	67	127
131.79569160997733	132.15560090702948	67	127
131.79569160997733	132.15560090702948	76	127
131.79569160997733	132.15560090702948	45	127
131.79569160997733	132.15560090702948	61	127
132.15560090702948	132.28328798185942	66	127
132.15560090702948	132.28328798185942	50	127
132.15560090702948	132.28328798185942	57	127
132.15560090702948	132.28328798185942	38	127
132.15560090702948	132.5387074829932	62	127
132.28328798185942	132.41102040816327	38	127
132.28328798185942	132.41102040816327	50	127
132.28328798185942	132.41102040816327	57	127
132.28328798185942	132.41102040816327	67	127
132.41102040816327	132.5387074829932	50	127
132.41102040816327	132.5387074829932	57	127
132.41102040816327	132.5387074829932	38	127
132.41102040816327	132.5387074829932	68	127
132.5387074829932	132.66643990929705	69	127
132.5387074829932	132.66643990929705	50	127
132.5387074829932	132.66643990929705	57	127
132.5387074829932	132.66643990929705	38	127
132.5387074829932	132.88702947845806	57	127
132.66643990929705	132.7825396825397	50	127
132.66643990929705	132.7825396825397	68	127
132.66643990929705	132.7825396825397	57	127
132.66643990929705	132.7825396825397	38	127
132.7825396825397	132.88702947845806	50	127
132.7825396825397	132.88702947845806	57	127
132.7825396825397	132.88702947845806	69	127
132.7825396825397	132.88702947845806	38	127
132.88702947845806	132.97990929705216	57	127
132.88702947845806	132.97990929705216	38	127
132.88702947845806	132.97990929705216	78	127
132.88702947845806	132.97990929705216	50	127
132.88702947845806	133.23532879818595	62	127
132.97990929705216	133.10761904761904	38	127
132.97990929705216	133.10761904761904	76	127
132.97990929705216	133.10761904761904	57	127
132.97990929705216	133.10761904761904	50	127
133.10761904761904	133.23532879818595	38	127
133.10761904761904	133.23532879818595	73	127
133.10761904761904	133.23532879818595	50	127
133.10761904761904	133.23532879818595	57	127
133.23532879818595	133.35142857142858	50	127
133.23532879818595	133.35142857142858	76	127
133.23532879818595	133.35142857142858	57	127
133.23532879818595	133.35142857142858	38	127
133.23532879818595	133.6184580498866	66	127
133.35142857142858	133.47913832199546	74	127
133.35142857142858	133.47913832199546	38	127
133.35142857142858	133.47913832199546	50	127
133.35142857142858	133.47913832199546	57	127
133.47913832199546	133.6184580498866	69	127
133.47913832199546	133.6184580498866	38	127
133.47913832199546	133.6184580498866	50	127
133.47913832199546	133.6184580498866	57	127
133.6184580498866	133.74616780045352	50	127
133.6184580498866	133.74616780045352	57	127
133.6184580498866	133.74616780045352	54	127
133.6184580498866	133.74616780045352	38	127
133.74616780045352	133.86226757369616	50	127
133.74616780045352	133.86226757369616	55	127
133.74616780045352	133.86226757369616	38	127
133.74616780045352	133.86226757369616	57	127
133.86226757369616	133.98997732426304	50	127
133.86226757369616	133.98997732426304	57	127
133.86226757369616	133.98997732426304	56	127
133.86226757369616	133.98997732426304	38	127
133.98997732426304	134.38471655328797	69	127
133.98997732426304	134.11768707482995	50	127
133.98997732426304	134.11768707482995	57	127
133.98997732426304	134.11768707482995	57	127
133.98997732426304	134.11768707482995	38	127
134.11768707482995	134.24539682539682	56	127
134.11768707482995	134.24539682539682	57	127
134.11768707482995	134.24539682539682	50	127
134.11768707482995	134.24539682539682	38	127
134.24539682539682	134.38471655328797	50	127
134.24539682539682	134.38471655328797	57	127
134.24539682539682	134.38471655328797	38	127
134.24539682539682	134.38471655328797	57	127
134.38471655328797	134.51242630385488	50	127
134.38471655328797	134.51242630385488	57	127
134.38471655328797	134.51242630385488	66	127
134.38471655328797	134.51242630385488	38	127
134.38471655328797	134.7330158730159	74	127
134.51242630385488	134.62852607709752	64	127
134.51242630385488	134.62852607709752	38	127
134.51242630385488	134.62852607709752	57	127
134.51242630385488	134.62852607709752	50	127
134.62852607709752	134.7330158730159	57	127
134.62852607709752	134.7330158730159	62	127
134.62852607709752	134.7330158730159	38	127
134.62852607709752	134.7330158730159	50	127
134.7330158730159	135.00004535147391	78	127
134.7330158730159	134.79106575963718	64	127
134.7330158730159	134.79106575963718	38	127
134.7330158730159	134.79106575963718	50	127
134.7330158730159	134.79106575963718	57	127
134.79106575963718	134.8839455782313	57	127
134.79106575963718	134.8839455782313	38	127
134.79106575963718	134.8839455782313	62	127
134.79106575963718	134.8839455782313	50	127
134.8839455782313	135.00004535147391	50	127
134.8839455782313	135.00004535147391	57	127
134.8839455782313	135.00004535147391	57	127
134.8839455782313	135.00004535147391	38	127
135.00004535147391	135.10453514739228	74	127
135.00004535147391	135.10453514739228	59	127
135.00004535147391	135.10453514739228	54	127
135.00004535147391	135.10453514739228	35	127
135.10453514739228	135.2322448979592	54	127
135.10453514739228	135.2322448979592	76	127
135.10453514739228	135.2322448979592	59	127
135.10453514739228	135.2322448979592	35	127
135.2322448979592	135.35995464852607	59	127
135.2322448979592	135.35995464852607	54	127
135.2322448979592	135.35995464852607	35	127
135.2322448979592	135.35995464852607	77	127
135.35995464852607	135.69664399092972	54	127
135.35995464852607	135.45281179138323	78	127
135.35995464852607	135.45281179138323	59	127
135.35995464852607	135.45281179138323	54	127
135.35995464852607	135.45281179138323	35	127
135.45281179138323	135.5689342403628	54	127
135.45281179138323	135.5689342403628	77	127
135.45281179138323	135.5689342403628	59	127
135.45281179138323	135.5689342403628	35	127
135.5689342403628	135.69664399092972	78	127
135.5689342403628	135.69664399092972	59	127
135.5689342403628	135.69664399092972	54	127
135.5689342403628	135.69664399092972	35	127
135.69664399092972	135.99850340136055	59	127
135.69664399092972	135.81272108843538	86	127
135.69664399092972	135.81272108843538	59	127
135.69664399092972	135.81272108843538	54	127
135.69664399092972	135.81272108843538	35	127
135.81272108843538	135.92884353741496	85	127
135.81272108843538	135.92884353741496	59	127
135.81272108843538	135.92884353741496	54	127
135.81272108843538	135.92884353741496	35	127
135.92884353741496	135.99850340136055	54	127
135.92884353741496	135.99850340136055	59	127
135.92884353741496	135.99850340136055	35	127
135.92884353741496	135.99850340136055	82	127
135.99850340136055	136.11458049886622	85	127
135.99850340136055	136.11458049886622	59	127
135.99850340136055	136.11458049886622	54	127
135.99850340136055	136.3584126984127	62	127
135.99850340136055	136.11458049886622	35	127
136.11458049886622	136.2307029478458	59	127
136.11458049886622	136.2307029478458	83	127
136.11458049886622	136.2307029478458	54	127
136.11458049886622	136.2307029478458	35	127
136.2307029478458	136.3584126984127	59	127
136.2307029478458	136.3584126984127	54	127
136.2307029478458	136.3584126984127	35	127
136.2307029478458	136.3584126984127	78	127
136.3584126984127	136.47448979591837	54	127
136.3584126984127	136.47448979591837	50	127
136.3584126984127	136.47448979591837	35	127
136.3584126984127	136.47448979591837	59	127
136.47448979591837	136.6138321995465	52	127
136.47448979591837	136.6138321995465	59	127
136.47448979591837	136.6138321995465	54	127
136.47448979591837	136.6138321995465	35	127
136.6138321995465	136.72990929705216	54	127
136.6138321995465	136.72990929705216	53	127
136.6138321995465	136.72990929705216	35	127
136.6138321995465	136.72990929705216	59	127
136.72990929705216	136.88083900226758	35	127
136.72990929705216	136.88083900226758	59	127
136.72990929705216	136.88083900226758	54	127
136.72990929705216	136.88083900226758	54	127
136.72990929705216	137.1130612244898	78	127
136.88083900226758	136.99696145124716	53	127
136.88083900226758	136.99696145124716	35	127
136.88083900226758	136.99696145124716	59	127
136.88083900226758	136.99696145124716	54	127
136.99696145124716	137.1130612244898	35	127
136.99696145124716	137.1130612244898	59	127
136.99696145124716	137.1130612244898	54	127
136.99696145124716	137.1130612244898	54	127
137.1130612244898	137.24074829931973	59	127
137.1130612244898	137.24074829931973	54	127
137.1130612244898	137.24074829931973	62	127
137.1130612244898	137.24074829931973	35	127
137.1130612244898	137.40331065759636	83	127
137.24074829931973	137.32204081632653	61	127
137.24074829931973	137.32204081632653	59	127
137.24074829931973	137.32204081632653	54	127
137.24074829931973	137.32204081632653	35	127
137.32204081632653	137.40331065759636	59	127
137.32204081632653	137.40331065759636	54	127
137.32204081632653	137.40331065759636	58	127
137.32204081632653	137.40331065759636	35	127
137.40331065759636	137.50780045351473	61	127
137.40331065759636	137.50780045351473	35	127
137.40331065759636	137.50780045351473	54	127
137.40331065759636	137.74	86	127
137.40331065759636	137.50780045351473	59	127
137.50780045351473	137.6122902494331	59	127
137.50780045351473	137.6122902494331	35	127
137.50780045351473	137.6122902494331	59	127
137.50780045351473	137.6122902494331	54	127
137.6122902494331	137.74	54	127
137.6122902494331	137.74	54	127
137.6122902494331	137.74	35	127
137.6122902494331	137.74	59	127
137.74	137.9025396825397	55	127
137.74	137.84448979591838	71	127
137.74	137.84448979591838	52	127
137.74	137.84448979591838	40	127
137.84448979591838	137.960589569161	52	127
137.84448979591838	137.960589569161	73	127
137.84448979591838	137.960589569161	40	127
137.960589569161	138.0882993197279	40	127
137.960589569161	138.0882993197279	74	127
137.960589569161	138.0882993197279	52	127
138.0882993197279	138.21600907029477	75	127
138.0882993197279	138.21600907029477	54	127
138.0882993197279	138.21600907029477	42	127
138.0882993197279	138.45981859410432	59	127
138.21600907029477	138.32049886621314	76	127
138.21600907029477	138.32049886621314	42	127
138.21600907029477	138.32049886621314	54	127
138.32049886621314	138.45981859410432	78	127
138.32049886621314	138.45981859410432	43	127
138.32049886621314	138.45981859410432	55	127
138.45981859410432	138.51784580498867	61	127
138.45981859410432	138.5875283446712	79	127
138.45981859410432	138.5875283446712	57	127
138.45981859410432	138.5875283446712	45	127
138.51784580498867	138.5875283446712	62	127
138.5875283446712	138.70362811791384	80	127
138.5875283446712	138.64557823129252	61	127
138.5875283446712	138.70362811791384	57	127
138.5875283446712	138.70362811791384	45	127
138.64557823129252	138.70362811791384	62	127
138.70362811791384	138.83133786848072	45	127
138.70362811791384	138.83133786848072	81	127
138.70362811791384	138.76167800453516	61	127
138.70362811791384	138.83133786848072	57	127
138.76167800453516	138.83133786848072	62	127
138.83133786848072	138.9009977324263	61	127
138.83133786848072	138.95904761904762	85	127
138.83133786848072	138.95904761904762	57	127
138.83133786848072	138.95904761904762	45	127
138.9009977324263	138.95904761904762	62	127
138.95904761904762	139.09836734693877	57	127
138.95904761904762	139.09836734693877	45	127
138.95904761904762	139.09836734693877	83	127
138.95904761904762	139.01709750566894	61	127
139.01709750566894	139.09836734693877	62	127
139.09836734693877	139.22607709750568	81	127
139.09836734693877	139.22607709750568	57	127
139.09836734693877	139.22607709750568	45	127
139.09836734693877	139.1564172335601	59	127
139.1564172335601	139.22607709750568	61	127
139.22607709750568	139.3421768707483	86	127
139.22607709750568	139.3421768707483	66	127
139.22607709750568	139.3421768707483	57	127
139.22607709750568	139.3421768707483	62	127
139.22607709750568	139.3421768707483	50	127
139.3421768707483	139.4698866213152	62	127
139.3421768707483	139.4698866213152	50	127
139.3421768707483	139.4698866213152	88	127
139.3421768707483	139.4698866213152	66	127
139.3421768707483	139.4698866213152	57	127
139.4698866213152	139.5627664399093	66	127
139.4698866213152	139.5627664399093	62	127
139.4698866213152	139.5627664399093	50	127
139.4698866213152	139.49308390022676	86	127
139.4698866213152	139.5627664399093	57	127
139.5627664399093	139.6904761904762	64	127
139.5627664399093	139.6904761904762	85	127
139.5627664399093	139.6904761904762	57	127
139.5627664399093	139.6904761904762	67	127
139.5627664399093	139.6904761904762	45	127
139.6904761904762	139.8065759637188	86	127
139.6904761904762	139.8065759637188	57	127
139.6904761904762	139.8065759637188	67	127
139.6904761904762	139.8065759637188	64	127
139.6904761904762	139.8065759637188	45	127
139.8065759637188	139.94589569161	67	127
139.8065759637188	139.88784580498867	85	127
139.8065759637188	139.94589569161	45	127
139.8065759637188	139.94589569161	64	127
139.8065759637188	139.94589569161	57	127
139.94589569161	140.08521541950114	66	127
139.94589569161	140.08521541950114	57	127
139.94589569161	140.08521541950114	38	127
139.94589569161	140.32902494331066	86	127
139.94589569161	140.32902494331066	62	127
140.08521541950114	140.21292517006802	38	127
140.08521541950114	140.21292517006802	57	127
140.08521541950114	140.21292517006802	50	127
140.21292517006802	140.32902494331066	57	127
140.21292517006802	140.32902494331066	50	127
140.21292517006802	140.32902494331066	38	127
140.32902494331066	140.45673469387756	38	127
140.32902494331066	140.45673469387756	57	127
140.32902494331066	140.45673469387756	50	127
140.45673469387756	140.58444444444444	50	127
140.45673469387756	140.58444444444444	57	127
140.45673469387756	140.58444444444444	38	127
140.58444444444444	140.71215419501135	57	127
140.58444444444444	140.71215419501135	38	127
140.58444444444444	140.71215419501135	50	127
140.71215419501135	140.8514739229025	66	127
140.71215419501135	140.8514739229025	57	127
140.71215419501135	140.8514739229025	50	127
140.71215419501135	140.8514739229025	38	127
140.8514739229025	140.97918367346938	57	127
140.8514739229025	140.97918367346938	50	127
140.8514739229025	140.97918367346938	38	127
140.8514739229025	140.97918367346938	67	127
140.97918367346938	141.1068934240363	50	127
140.97918367346938	141.1068934240363	38	127
140.97918367346938	141.1068934240363	68	127
140.97918367346938	141.1068934240363	57	127
141.1068934240363	141.18816326530612	57	127
141.1068934240363	141.18816326530612	50	127
141.1068934240363	141.18816326530612	38	127
141.1068934240363	141.40875283446712	57	127
141.1068934240363	141.18816326530612	69	127
141.18816326530612	141.29265306122448	50	127
141.18816326530612	141.29265306122448	68	127
141.18816326530612	141.29265306122448	57	127
141.18816326530612	141.29265306122448	38	127
141.29265306122448	141.40875283446712	57	127
141.29265306122448	141.40875283446712	38	127
141.29265306122448	141.40875283446712	69	127
141.29265306122448	141.40875283446712	50	127
141.40875283446712	141.50163265306122	78	127
141.40875283446712	141.50163265306122	57	127
141.40875283446712	141.50163265306122	50	127
141.40875283446712	141.50163265306122	38	127
141.40875283446712	141.72222222222223	62	127
141.50163265306122	141.6061224489796	50	127
141.50163265306122	141.6061224489796	38	127
141.50163265306122	141.6061224489796	76	127
141.50163265306122	141.6061224489796	57	127
141.6061224489796	141.72222222222223	50	127
141.6061224489796	141.72222222222223	38	127
141.6061224489796	141.72222222222223	74	127
141.6061224489796	141.72222222222223	57	127
141.72222222222223	141.8267120181406	50	127
141.72222222222223	141.8267120181406	76	127
141.72222222222223	141.8267120181406	57	127
141.72222222222223	141.8267120181406	38	127
141.72222222222223	142.00086167800453	66	127
141.8267120181406	141.94278911564626	50	127
141.8267120181406	141.94278911564626	38	127
141.8267120181406	141.94278911564626	74	127
141.8267120181406	141.94278911564626	57	127
141.94278911564626	142.00086167800453	50	127
141.94278911564626	142.00086167800453	38	127
141.94278911564626	142.00086167800453	69	127
141.94278911564626	142.00086167800453	57	127
142.00086167800453	142.12857142857143	57	127
142.00086167800453	142.12857142857143	50	127
142.00086167800453	142.12857142857143	54	127
142.00086167800453	142.12857142857143	38	127
142.12857142857143	142.2562811791383	55	127
142.12857142857143	142.2562811791383	57	127
142.12857142857143	142.2562811791383	50	127
142.12857142857143	142.2562811791383	38	127
142.2562811791383	142.38399092970522	50	127
142.2562811791383	142.38399092970522	38	127
142.2562811791383	142.38399092970522	56	127
142.2562811791383	142.38399092970522	57	127
142.38399092970522	142.47687074829932	57	127
142.38399092970522	142.47687074829932	50	127
142.38399092970522	142.47687074829932	57	127
142.38399092970522	142.47687074829932	38	127
142.38399092970522	142.7322902494331	69	127
142.47687074829932	142.62780045351474	56	127
142.47687074829932	142.62780045351474	38	127
142.47687074829932	142.62780045351474	57	127
142.47687074829932	142.62780045351474	50	127
142.62780045351474	142.7322902494331	57	127
142.62780045351474	142.7322902494331	57	127
142.62780045351474	142.7322902494331	38	127
142.62780045351474	142.7322902494331	50	127
142.7322902494331	142.8251700680272	57	127
142.7322902494331	142.8251700680272	50	127
142.7322902494331	142.8251700680272	66	127
142.7322902494331	142.8251700680272	38	127
142.7322902494331	143.06895691609978	74	127
142.8251700680272	142.91802721088436	64	127
142.8251700680272	142.91802721088436	38	127
142.8251700680272	142.91802721088436	57	127
142.8251700680272	142.91802721088436	50	127
142.91802721088436	143.06895691609978	50	127
142.91802721088436	143.06895691609978	62	127
142.91802721088436	143.06895691609978	38	127
142.91802721088436	143.06895691609978	57	127
143.06895691609978	143.19668934240363	57	127
143.06895691609978	143.19668934240363	50	127
143.06895691609978	143.19668934240363	64	127
143.06895691609978	143.19668934240363	38	127
143.06895691609978	143.42886621315193	78	127
143.19668934240363	143.33600907029478	62	127
143.19668934240363	143.33600907029478	38	127
143.19668934240363	143.33600907029478	57	127
143.19668934240363	143.33600907029478	50	127
143.33600907029478	143.42886621315193	50	127
143.33600907029478	143.42886621315193	57	127
143.33600907029478	143.42886621315193	38	127
143.33600907029478	143.42886621315193	57	127
143.42886621315193	143.54498866213152	74	127
143.42886621315193	143.54498866213152	59	127
143.42886621315193	143.54498866213152	54	127
143.42886621315193	143.54498866213152	35	127
143.54498866213152	143.67269841269842	35	127
143.54498866213152	143.67269841269842	54	127
143.54498866213152	143.67269841269842	59	127
143.54498866213152	143.67269841269842	75	127
143.67269841269842	143.8004081632653	54	127
143.67269841269842	143.8004081632653	35	127
143.67269841269842	143.8004081632653	76	127
143.67269841269842	143.8004081632653	59	127
143.8004081632653	143.90489795918367	59	127
143.8004081632653	143.90489795918367	78	127
143.8004081632653	144.1487074829932	54	127
143.8004081632653	143.90489795918367	54	127
143.8004081632653	143.90489795918367	35	127
143.90489795918367	144.03260770975058	54	127
143.90489795918367	144.03260770975058	77	127
143.90489795918367	144.03260770975058	35	127
143.90489795918367	144.03260770975058	59	127
144.03260770975058	144.1487074829932	35	127
144.03260770975058	144.1487074829932	78	127
144.03260770975058	144.1487074829932	59	127
144.03260770975058	144.1487074829932	54	127
144.1487074829932	144.25319727891156	86	127
144.1487074829932	144.25319727891156	59	127
144.1487074829932	144.25319727891156	54	127
144.1487074829932	144.25319727891156	35	127
144.1487074829932	144.45054421768708	59	127
144.25319727891156	144.3460544217687	35	127
144.25319727891156	144.3460544217687	85	127
144.25319727891156	144.3460544217687	59	127
144.25319727891156	144.3460544217687	54	127
144.3460544217687	144.45054421768708	35	127
144.3460544217687	144.45054421768708	54	127
144.3460544217687	144.45054421768708	59	127
144.3460544217687	144.45054421768708	82	127
144.45054421768708	144.56666666666666	54	127
144.45054421768708	144.81047619047618	62	127
144.45054421768708	144.56666666666666	85	127
144.45054421768708	144.56666666666666	59	127
144.45054421768708	144.56666666666666	35	127
144.56666666666666	144.69437641723357	35	127
144.56666666666666	144.69437641723357	83	127
144.56666666666666	144.69437641723357	54	127
144.56666666666666	144.69437641723357	59	127
144.69437641723357	144.81047619047618	59	127
144.69437641723357	144.81047619047618	78	127
144.69437641723357	144.81047619047618	54	127
144.69437641723357	144.81047619047618	35	127
144.81047619047618	144.94979591836736	59	127
144.81047619047618	144.94979591836736	54	127
144.81047619047618	144.94979591836736	50	127
144.81047619047618	144.94979591836736	35	127
144.94979591836736	145.07750566893424	59	127
144.94979591836736	145.07750566893424	54	127
144.94979591836736	145.07750566893424	52	127
144.94979591836736	145.07750566893424	35	127
145.07750566893424	145.20521541950114	53	127
145.07750566893424	145.20521541950114	54	127
145.07750566893424	145.20521541950114	35	127
145.07750566893424	145.20521541950114	59	127
145.20521541950114	145.55351473922903	78	127
145.20521541950114	145.32131519274375	59	127
145.20521541950114	145.32131519274375	54	127
145.20521541950114	145.32131519274375	54	127
145.20521541950114	145.32131519274375	35	127
145.32131519274375	145.44902494331066	54	127
145.32131519274375	145.44902494331066	35	127
145.32131519274375	145.44902494331066	59	127
145.32131519274375	145.44902494331066	53	127
145.44902494331066	145.55351473922903	54	127
145.44902494331066	145.55351473922903	35	127
145.44902494331066	145.55351473922903	59	127
145.44902494331066	145.55351473922903	54	127
145.55351473922903	145.6580045351474	59	127
145.55351473922903	145.6580045351474	54	127
145.55351473922903	145.6580045351474	62	127
145.55351473922903	145.6580045351474	35	127
145.55351473922903	145.90181405895692	83	127
145.6580045351474	145.77410430839004	61	127
145.6580045351474	145.77410430839004	35	127
145.6580045351474	145.77410430839004	59	127
145.6580045351474	145.77410430839004	54	127
145.77410430839004	145.90181405895692	59	127
145.77410430839004	145.90181405895692	54	127
145.77410430839004	145.90181405895692	58	127
145.77410430839004	145.90181405895692	35	127
145.90181405895692	146.00630385487528	59	127
145.90181405895692	146.00630385487528	54	127
145.90181405895692	146.00630385487528	61	127
145.90181405895692	146.00630385487528	35	127
145.90181405895692	146.2268934240363	86	127
146.00630385487528	146.12240362811792	35	127
146.00630385487528	146.12240362811792	59	127
146.00630385487528	146.12240362811792	54	127
146.00630385487528	146.12240362811792	59	127
146.12240362811792	146.2268934240363	54	127
146.12240362811792	146.2268934240363	35	127
146.12240362811792	146.2268934240363	59	127
146.12240362811792	146.2268934240363	54	127
146.2268934240363	146.34297052154196	71	127
146.2268934240363	146.34297052154196	52	127
146.2268934240363	146.34297052154196	40	127
146.2268934240363	146.3778231292517	55	127
146.34297052154196	146.44748299319727	52	127
146.34297052154196	146.44748299319727	40	127
146.34297052154196	146.44748299319727	73	127
146.44748299319727	146.5635827664399	52	127
146.44748299319727	146.5635827664399	74	127
146.44748299319727	146.5635827664399	40	127
146.5635827664399	146.67968253968255	75	127
146.5635827664399	146.88866213151928	59	127
146.5635827664399	146.67968253968255	54	127
146.5635827664399	146.67968253968255	42	127
146.67968253968255	146.80739229024942	76	127
146.67968253968255	146.80739229024942	42	127
146.67968253968255	146.80739229024942	54	127
146.80739229024942	146.88866213151928	78	127
146.80739229024942	146.88866213151928	43	127
146.80739229024942	146.88866213151928	55	127
146.88866213151928	146.9467120181406	61	127
146.88866213151928	147.01637188208616	57	127
146.88866213151928	147.01637188208616	79	127
146.88866213151928	147.01637188208616	45	127
146.9467120181406	147.01637188208616	62	127
147.01637188208616	147.1324716553288	80	127
147.01637188208616	147.07442176870748	61	127
147.01637188208616	147.1324716553288	57	127
147.01637188208616	147.1324716553288	45	127
147.07442176870748	147.1324716553288	62	127
147.1324716553288	147.24857142857144	45	127
147.1324716553288	147.24857142857144	81	127
147.1324716553288	147.19052154195012	61	127
147.1324716553288	147.24857142857144	57	127
147.19052154195012	147.24857142857144	62	127
147.24857142857144	147.30662131519276	61	127
147.24857142857144	147.37628117913832	85	127
147.24857142857144	147.37628117913832	57	127
147.24857142857144	147.37628117913832	45	127
147.30662131519276	147.37628117913832	62	127
147.37628117913832	147.49238095238096	57	127
147.37628117913832	147.49238095238096	45	127
147.37628117913832	147.49238095238096	83	127
147.37628117913832	147.43433106575964	61	127
147.43433106575964	147.49238095238096	62	127
147.49238095238096	147.6200680272109	81	127
147.49238095238096	147.6200680272109	57	127
147.49238095238096	147.6200680272109	45	127
147.49238095238096	147.56204081632654	59	127
147.56204081632654	147.6200680272109	61	127
147.6200680272109	147.74780045351474	86	127
147.6200680272109	147.74780045351474	66	127
147.6200680272109	147.74780045351474	57	127
147.6200680272109	147.74780045351474	62	127
147.6200680272109	147.74780045351474	50	127
147.74780045351474	147.86390022675738	62	127
147.74780045351474	147.86390022675738	50	127
147.74780045351474	147.86390022675738	88	127
147.74780045351474	147.86390022675738	66	127
147.74780045351474	147.86390022675738	57	127
147.86390022675738	147.98	66	127
147.86390022675738	147.98	62	127
147.86390022675738	147.98	50	127
147.86390022675738	147.92192743764173	86	127
147.86390022675738	147.98	57	127
147.98	148.1077097505669	64	127
147.98	148.1077097505669	85	127
147.98	148.1077097505669	57	127
147.98	148.1077097505669	67	127
147.98	148.1077097505669	45	127
148.1077097505669	148.22380952380954	57	127
148.1077097505669	148.22380952380954	86	127
148.1077097505669	148.22380952380954	67	127
148.1077097505669	148.22380952380954	64	127
148.1077097505669	148.22380952380954	45	127
148.22380952380954	148.35151927437641	67	127
148.22380952380954	148.35151927437641	45	127
148.22380952380954	148.35151927437641	64	127
148.22380952380954	148.28183673469388	85	127
148.22380952380954	148.35151927437641	57	127
148.35151927437641	148.74625850340135	57	127
148.35151927437641	148.74625850340135	62	127
148.35151927437641	148.74625850340135	38	127
148.35151927437641	148.421179138322	86	127
148.35151927437641	148.74625850340135	66	127
148.47922902494332	148.54888888888888	69	127
148.6069387755102	148.6765986394558	69	127
148.74625850340135	148.8275283446712	69	127
148.88557823129253	148.93201814058958	69	127
149.0132879818594	149.082947845805	69	127
149.1409977324263	149.2687074829932	69	127
149.2687074829932	149.3964172335601	71	127
149.3964172335601	149.45446712018142	69	127
149.51249433106577	149.66342403628119	69	127
149.66342403628119	149.79115646258504	71	127
149.79115646258504	149.84920634920636	69	127
149.94208616780045	150.04657596371882	69	127
150.04657596371882	150.17426303854876	71	127
150.17426303854876	150.2439455782313	69	127
150.29038548752834	150.41809523809525	69	127
150.41809523809525	150.5341723356009	71	127
150.5341723356009	150.60385487528345	69	127
150.70834467120181	150.88249433106577	69	127
150.88249433106577	151.01020408163265	71	127
151.01020408163265	151.0566439909297	69	127
151.11469387755102	151.24240362811793	69	127
151.24240362811793	151.39333333333335	71	127
151.39333333333335	151.4513605442177	69	127
151.5326530612245	151.64875283446713	69	127
151.64875283446713	151.776462585034	71	127
151.776462585034	151.83451247165533	69	127
151.90417233560092	152.0086621315193	69	127
152.0086621315193	152.07832199546485	71	127
152.07832199546485	152.1015419501134	69	127
152.1595918367347	152.31052154195012	74	127
152.31052154195012	152.438231292517	76	127
152.438231292517	152.47303854875284	74	127
152.5311111111111	152.64721088435374	74	127
152.64721088435374	152.77492063492065	76	127
152.77492063492065	152.8213605442177	74	127
152.87941043083902	153.01873015873016	71	127
153.01873015873016	153.14643990929704	73	127
153.14643990929704	153.20448979591836	71	127
153.27414965986395	153.40185941043083	71	127
153.40185941043083	153.51795918367347	73	127
153.51795918367347	153.58761904761906	71	127
153.6340589569161	153.761768707483	69	127
153.761768707483	153.8894784580499	71	127
153.8894784580499	153.9475283446712	69	127
154.00555555555556	154.1332879818594	69	127
154.1332879818594	154.24938775510205	71	127
154.24938775510205	154.28421768707483	69	127
154.36546485260772	154.4583673469388	69	127
154.4583673469388	154.56285714285715	71	127
154.56285714285715	154.6208843537415	69	127
154.67895691609976	154.78344671201813	69	127
154.78344671201813	154.91115646258504	71	127
154.91115646258504	154.96920634920636	69	127
155.0272335600907	155.41038548752834	62	127
155.1781859410431	155.28267573696147	66	127
155.28267573696147	155.41038548752834	64	127
155.41038548752834	155.52648526077098	62	127
155.52648526077098	155.66580498866213	61	127
155.66580498866213	155.75868480725623	59	127
155.75868480725623	155.82834467120182	57	127
155.88639455782314	155.9560544217687	57	127
156.0024716553288	156.03732426303856	57	127
156.10696145124717	156.16503401360544	57	127
156.22308390022675	156.28113378684807	57	127
156.32757369614512	156.3972335600907	57	127
156.45528344671203	157.1518820861678	62	127
156.45528344671203	157.1518820861678	38	127
156.45528344671203	157.1518820861678	54	127
156.45528344671203	156.5829931972789	57	127
156.5829931972789	156.675873015873	59	127
156.675873015873	156.73392290249433	57	127
156.79197278911565	156.9312925170068	57	127
156.9312925170068	157.04739229024943	59	127
157.04739229024943	157.10544217687075	57	127
157.1518820861678	157.54662131519274	40	127
157.1518820861678	157.27956916099774	57	127
157.1518820861678	157.54662131519274	61	127
157.1518820861678	157.54662131519274	55	127
157.27956916099774	157.41891156462586	59	127
157.41891156462586	157.47696145124718	57	127
157.54662131519274	157.67433106575965	57	127
157.67433106575965	157.80204081632652	59	127
157.80204081632652	157.86009070294784	57	127
157.92975056689343	158.61473922902493	37	127
157.92975056689343	158.0574603174603	57	127
157.92975056689343	158.61473922902493	52	127
157.92975056689343	158.61473922902493	67	127
158.0574603174603	158.16195011337868	59	127
158.16195011337868	158.23160997732427	57	127
158.2896598639456	158.39414965986396	57	127
158.39414965986396	158.51024943310657	59	127
158.51024943310657	158.55666666666667	57	127
158.61473922902493	158.98625850340136	54	127
158.61473922902493	158.73083900226757	57	127
158.61473922902493	158.98625850340136	66	127
158.61473922902493	158.98625850340136	38	127
158.73083900226757	158.85854875283448	59	127
158.85854875283448	158.91657596371883	57	127
158.98625850340136	159.11396825396827	57	127
159.11396825396827	159.25328798185942	59	127
159.25328798185942	159.29972789115646	57	127
159.36938775510205	159.84539682539682	71	127
159.36938775510205	159.48548752834466	62	127
159.36938775510205	160.01954648526078	31	127
159.36938775510205	160.77419501133787	53	127
159.48548752834466	159.6015873015873	64	127
159.6015873015873	159.65963718820862	62	127
159.71768707482994	159.78732426303856	62	127
159.78732426303856	159.9150566893424	64	127
159.84539682539682	160.01954648526078	73	127
159.9150566893424	159.97310657596373	62	127
160.01954648526078	160.77419501133787	74	127
160.01954648526078	160.77419501133787	32	127
160.01954648526078	160.1356462585034	62	127
160.1356462585034	160.27496598639456	64	127
160.27496598639456	160.33301587301588	62	127
160.40267573696144	160.51877551020408	62	127
160.51877551020408	160.646485260771	64	127
160.646485260771	160.70451247165533	62	127
160.77419501133787	161.31984126984128	52	127
160.77419501133787	161.50562358276645	64	127
160.77419501133787	162.22544217687076	33	127
160.77419501133787	160.90190476190477	62	127
160.90190476190477	161.02961451247165	57	127
161.02961451247165	161.09927437641724	62	127
161.15732426303856	161.28503401360544	62	127
161.28503401360544	161.37791383219954	57	127
161.31984126984128	161.50562358276645	54	127
161.37791383219954	161.44757369614513	62	127
161.50562358276645	162.22544217687076	69	127
161.50562358276645	162.22544217687076	55	127
161.50562358276645	161.6217006802721	61	127
161.6217006802721	161.7378231292517	57	127
161.7378231292517	161.795873015873	61	127
161.85392290249433	161.97002267573697	61	127
161.97002267573697	162.08609977324264	57	127
162.08609977324264	162.15578231292517	61	127
162.22544217687076	162.42281179138322	53	127
162.22544217687076	162.42281179138322	38	127
162.22544217687076	162.29510204081632	62	127
162.22544217687076	162.32993197278913	62	127
162.35315192743764	162.42281179138322	65	127
162.42281179138322	162.8407709750567	38	127
162.42281179138322	162.8407709750567	62	127
162.42281179138322	162.8407709750567	65	127
162.42281179138322	162.8407709750567	50	127
162.42281179138322	162.8407709750567	57	127
162.48086167800454	162.5505215419501	69	127
162.6201814058957	162.68984126984128	74	127
162.78272108843538	162.8407709750567	77	127
162.8407709750567	163.4328798185941	65	127
162.8407709750567	163.4328798185941	62	127
162.8407709750567	163.4328798185941	50	127
162.8407709750567	163.4328798185941	57	127
162.8407709750567	163.4328798185941	38	127
162.9336507936508	163.00328798185942	81	127
163.04975056689344	163.4328798185941	86	127
163.85083900226758	164.03659863945578	52	127
163.85083900226758	164.03659863945578	67	127
163.85083900226758	164.03659863945578	60	127
163.85083900226758	164.03659863945578	40	127
163.85083900226758	163.9088888888889	60	127
163.85083900226758	164.03659863945578	58	127
163.96693877551022	164.03659863945578	64	127
164.03659863945578	164.46616780045352	52	127
164.03659863945578	164.46616780045352	67	127
164.03659863945578	164.46616780045352	58	127
164.03659863945578	164.46616780045352	60	127
164.03659863945578	164.46616780045352	40	127
164.0946485260771	164.16430839002268	67	127
164.25718820861678	164.3384580498866	72	127
164.4081179138322	164.46616780045352	76	127
164.46616780045352	164.9770068027211	67	127
164.46616780045352	164.9770068027211	58	127
164.46616780045352	164.9770068027211	60	127
164.46616780045352	164.9770068027211	40	127
164.46616780045352	164.9770068027211	52	127
164.52421768707484	164.5938775510204	79	127
164.65192743764172	164.9770068027211	84	127
165.34852607709752	165.54589569160999	63	127
165.34852607709752	165.54589569160999	72	127
165.34852607709752	165.54589569160999	57	127
165.34852607709752	165.54589569160999	45	127
165.34852607709752	165.39496598639457	65	127
165.46462585034013	165.54589569160999	69	127
165.54589569160999	165.81292517006804	45	127
165.54589569160999	165.81292517006804	72	127
165.54589569160999	165.81292517006804	63	127
165.54589569160999	165.81292517006804	65	127
165.59233560090703	165.62716553287981	72	127
165.67360544217686	165.70843537414967	77	127
165.76646258503402	165.81292517006804	81	127
165.81292517006804	166.21927437641725	63	127
165.81292517006804	166.21927437641725	65	127
165.81292517006804	166.21927437641725	72	127
165.81292517006804	166.21927437641725	45	127
165.87097505668933	165.92902494331065	84	127
165.98707482993197	166.21927437641725	89	127
170.89809523809524	171.5018140589569	46	127
170.89809523809524	171.86172335600907	62	127
170.89809523809524	172.25643990929706	74	127
170.89809523809524	171.24639455782312	77	127
171.24639455782312	171.5018140589569	78	127
171.5018140589569	171.86172335600907	79	127
171.5018140589569	172.25643990929706	47	127
171.86172335600907	172.25643990929706	80	127
171.86172335600907	172.25643990929706	64	127
172.25643990929706	172.94145124716553	81	127
172.25643990929706	172.6395918367347	74	127
172.25643990929706	172.98789115646258	66	127
172.25643990929706	172.98789115646258	45	127
172.6395918367347	172.98789115646258	69	127
172.94145124716553	172.98789115646258	74	127
172.98789115646258	173.1736507936508	73	127
172.98789115646258	173.800589569161	33	127
172.98789115646258	173.800589569161	67	127
172.98789115646258	173.5451700680272	64	127
173.1736507936508	173.359410430839	71	127
173.359410430839	173.5451700680272	73	127
173.5451700680272	173.800589569161	76	127
173.5451700680272	173.800589569161	61	127
173.800589569161	174.07922902494332	38	127
173.800589569161	174.18371882086169	66	127
173.800589569161	174.07922902494332	74	127
173.800589569161	174.18371882086169	62	127
174.07922902494332	174.18371882086169	50	127
174.07922902494332	174.18371882086169	62	127
174.18371882086169	174.5087755102041	50	127
174.18371882086169	174.27659863945578	62	127
174.27659863945578	174.39269841269842	66	127
174.39269841269842	174.5087755102041	69	127
174.4275283446712	174.5087755102041	50	127
174.4275283446712	174.5087755102041	74	127
174.4275283446712	174.5087755102041	66	127
174.4275283446712	174.5087755102041	57	127
174.5087755102041	174.89192743764173	50	127
174.5087755102041	174.78743764172336	74	127
174.5087755102041	174.78743764172336	38	127
174.5087755102041	174.89192743764173	66	127
174.5087755102041	174.89192743764173	74	127
174.5087755102041	174.89192743764173	57	127
174.78743764172336	174.89192743764173	66	127
174.78743764172336	174.89192743764173	50	127
174.89192743764173	175.2402267573696	50	127
174.89192743764173	175.01961451247166	66	127
175.01961451247166	175.11251700680273	69	127
175.11251700680273	175.2402267573696	74	127
175.1473469387755	175.2402267573696	62	127
175.1473469387755	175.2402267573696	69	127
175.1473469387755	175.2402267573696	66	127
175.2402267573696	175.5885260770975	62	127
175.2402267573696	175.4956462585034	78	127
175.2402267573696	175.4956462585034	38	127
175.2402267573696	175.5885260770975	66	127
175.2402267573696	175.5885260770975	69	127
175.4956462585034	175.5885260770975	50	127
175.4956462585034	175.5885260770975	69	127
175.5885260770975	175.86716553287982	50	127
175.5885260770975	175.68138321995465	69	127
175.68138321995465	175.76267573696146	74	127
175.76267573696146	175.86716553287982	78	127
175.79750566893424	175.86716553287982	66	127
175.79750566893424	175.86716553287982	62	127
175.79750566893424	175.86716553287982	57	127
175.86716553287982	176.13419501133788	81	127
175.86716553287982	176.13419501133788	38	127
175.86716553287982	176.19222222222223	62	127
175.86716553287982	176.19222222222223	66	127
175.86716553287982	176.19222222222223	57	127
176.13419501133788	176.19222222222223	74	127
176.13419501133788	176.19222222222223	50	127
176.19222222222223	176.31995464852608	74	127
176.19222222222223	176.51732426303855	50	127
176.31995464852608	176.41283446712018	78	127
176.41283446712018	176.51732426303855	81	127
176.447641723356	176.51732426303855	62	127
176.447641723356	176.51732426303855	57	127
176.447641723356	176.51732426303855	54	127
176.51732426303855	176.88884353741497	86	127
176.51732426303855	176.88884353741497	57	127
176.51732426303855	176.88884353741497	54	127
176.51732426303855	176.88884353741497	38	127
177.29519274376418	177.6318820861678	86	127
177.29519274376418	177.6318820861678	78	127
177.29519274376418	177.6318820861678	62	127
177.29519274376418	177.6318820861678	74	127
177.29519274376418	177.6318820861678	66	127
177.29519274376418	177.6318820861678	57	127
177.29519274376418	177.6318820861678	50	127
177.29519274376418	177.6318820861678	38	127
177.29519274376418	177.6318820861678	45	127
177.29519274376418	177.6318820861678	54	127
177.29519274376418	177.6318820861678	62	127
177.29519274376418	177.6318820861678	38	127
178.038231292517	178.36331065759637	45	127
178.038231292517	178.36331065759637	62	127
178.038231292517	178.36331065759637	78	127
178.038231292517	178.36331065759637	86	127
178.038231292517	178.36331065759637	50	127
178.038231292517	178.36331065759637	57	127
178.038231292517	178.36331065759637	66	127
178.038231292517	178.36331065759637	74	127
178.038231292517	178.36331065759637	62	127
178.038231292517	178.36331065759637	54	127
178.038231292517	178.36331065759637	38	127
178.038231292517	178.36331065759637	38	127
179.6752380952381	181.21936507936508	59	127
179.6752380952381	181.21936507936508	71	127
181.21936507936508	181.54444444444445	66	127
181.21936507936508	181.43995464852608	35	127
181.21936507936508	181.54444444444445	69	127
181.54444444444445	181.5908843537415	68	127
181.54444444444445	181.5908843537415	71	127
181.5908843537415	181.63732426303855	69	127
181.5908843537415	181.63732426303855	66	127
181.63732426303855	181.8114739229025	68	127
181.63732426303855	181.8114739229025	47	127
181.63732426303855	181.8114739229025	64	127
181.8114739229025	181.9043537414966	63	127
181.8114739229025	181.9043537414966	66	127
181.98562358276644	182.36875283446713	64	127
181.98562358276644	182.1829931972789	40	127
181.98562358276644	182.36875283446713	68	127
182.36875283446713	182.55451247165533	47	127
182.36875283446713	182.74027210884353	64	127
182.36875283446713	182.74027210884353	68	127
182.74027210884353	182.92603174603175	35	127
182.74027210884353	183.01891156462585	69	127
182.74027210884353	183.01891156462585	66	127
183.01891156462585	183.0653514739229	71	127
183.01891156462585	183.0653514739229	68	127
183.0653514739229	183.11179138321995	69	127
183.0653514739229	183.11179138321995	66	127
183.11179138321995	183.2975283446712	68	127
183.11179138321995	183.2975283446712	64	127
183.11179138321995	183.2975283446712	47	127
183.2975283446712	183.39043083900228	63	127
183.2975283446712	183.39043083900228	66	127
183.48331065759638	183.66907029478458	40	127
183.48331065759638	184.2263492063492	68	127
183.48331065759638	184.2263492063492	64	127
183.86643990929704	184.05219954648527	47	127
184.2263492063492	184.37727891156462	47	127
184.55142857142857	184.73718820861677	59	127
184.91133786848073	185.13192743764174	52	127
185.30607709750566	185.46861678004535	59	127
185.61954648526077	185.7704761904762	47	127
185.94462585034015	186.13038548752834	59	127
186.3161224489796	186.47868480725623	52	127
186.66444444444446	186.82696145124717	59	127
186.9895238095238	187.1520634920635	40	127
186.9895238095238	187.23331065759638	71	127
186.9895238095238	187.23331065759638	68	127
187.23331065759638	187.2797732426304	73	127
187.23331065759638	187.2797732426304	69	127
187.2797732426304	187.32621315192745	68	127
187.2797732426304	187.32621315192745	71	127
187.32621315192745	187.47714285714287	69	127
187.32621315192745	187.47714285714287	66	127
187.32621315192745	187.47714285714287	47	127
187.47714285714287	187.5584126984127	68	127
187.47714285714287	187.5584126984127	64	127
187.6512925170068	187.82544217687075	40	127
187.6512925170068	188.01120181405895	68	127
187.6512925170068	188.01120181405895	64	127
188.01120181405895	188.19696145124718	28	127
188.01120181405895	188.38272108843537	68	127
188.01120181405895	188.38272108843537	64	127
188.38272108843537	188.54526077097506	73	127
188.38272108843537	188.54526077097506	33	127
188.38272108843537	188.54526077097506	64	127
188.38272108843537	188.54526077097506	57	127
188.54526077097506	188.71938775510205	65	127
188.54526077097506	188.71938775510205	71	127
188.54526077097506	188.71938775510205	56	127
188.54526077097506	188.71938775510205	37	127
188.71938775510205	188.81229024943312	71	127
188.71938775510205	188.81229024943312	65	127
188.71938775510205	188.81229024943312	56	127
188.71938775510205	188.81229024943312	37	127
188.90517006802722	188.98643990929705	65	127
188.90517006802722	188.98643990929705	71	127
188.90517006802722	188.98643990929705	56	127
188.90517006802722	188.98643990929705	37	127
189.07931972789115	189.40439909297052	65	127
189.07931972789115	189.40439909297052	71	127
189.07931972789115	189.40439909297052	56	127
189.07931972789115	189.40439909297052	37	127
189.40439909297052	189.59015873015872	66	127
189.40439909297052	189.59015873015872	69	127
189.40439909297052	189.59015873015872	54	127
189.40439909297052	189.59015873015872	42	127
189.77591836734695	189.98489795918368	35	127
189.77591836734695	190.07777777777778	69	127
189.77591836734695	190.07777777777778	66	127
190.07777777777778	190.11260770975056	71	127
190.07777777777778	190.11260770975056	68	127
190.11260770975056	190.1590476190476	69	127
190.11260770975056	190.1590476190476	66	127
190.1590476190476	190.3215873015873	47	127
190.1590476190476	190.3215873015873	64	127
190.1590476190476	190.3215873015873	68	127
190.3215873015873	190.40285714285713	63	127
190.3215873015873	190.40285714285713	66	127
190.49573696145126	190.86725623582765	66	127
190.49573696145126	190.68149659863946	35	127
190.49573696145126	190.86725623582765	63	127
190.86725623582765	191.25038548752835	66	127
190.86725623582765	191.05301587301588	47	127
190.86725623582765	191.25038548752835	63	127
191.25038548752835	191.633514739229	63	127
191.25038548752835	191.44775510204082	71	127
191.25038548752835	191.44775510204082	56	127
191.25038548752835	191.44775510204082	32	127
191.44775510204082	191.633514739229	54	127
191.44775510204082	191.633514739229	69	127
191.44775510204082	191.633514739229	35	127
191.633514739229	191.71478458049887	69	127
191.633514739229	191.71478458049887	63	127
191.633514739229	191.71478458049887	54	127
191.633514739229	191.71478458049887	35	127
191.81927437641724	191.91215419501134	69	127
191.81927437641724	191.91215419501134	63	127
191.81927437641724	191.91215419501134	54	127
191.81927437641724	191.91215419501134	35	127
192.00503401360544	192.35333333333332	69	127
192.00503401360544	192.35333333333332	63	127
192.00503401360544	192.35333333333332	54	127
192.00503401360544	192.35333333333332	35	127
192.35333333333332	192.53909297052155	52	127
192.35333333333332	192.53909297052155	68	127
192.35333333333332	192.53909297052155	64	127
192.35333333333332	192.53909297052155	40	127
198.18154195011337	198.22798185941042	40	127
198.18154195011337	198.3324716553288	71	127
198.18154195011337	198.3324716553288	68	127
198.3324716553288	198.37891156462584	73	127
198.3324716553288	198.37891156462584	69	127
198.37891156462584	198.42535147392292	71	127
198.37891156462584	198.42535147392292	68	127
198.42535147392292	198.58789115646258	69	127
198.42535147392292	198.58789115646258	66	127
198.42535147392292	198.58789115646258	47	127
198.58789115646258	198.6807709750567	64	127
198.58789115646258	198.6807709750567	68	127
198.7736507936508	198.959410430839	40	127
198.7736507936508	199.1451700680272	68	127
198.7736507936508	199.1451700680272	64	127
199.1451700680272	199.4934693877551	64	127
199.1451700680272	199.33092970521542	28	127
199.1451700680272	199.4934693877551	68	127
199.4934693877551	199.66761904761904	64	127
199.4934693877551	199.66761904761904	57	127
199.4934693877551	199.66761904761904	33	127
199.4934693877551	199.66761904761904	73	127
199.66761904761904	199.83015873015873	71	127
199.66761904761904	199.83015873015873	65	127
199.66761904761904	199.83015873015873	56	127
199.66761904761904	199.83015873015873	37	127
199.83015873015873	199.92303854875283	71	127
199.83015873015873	199.92303854875283	65	127
199.83015873015873	199.92303854875283	56	127
199.83015873015873	199.92303854875283	37	127
200.01591836734693	200.09718820861679	65	127
200.01591836734693	200.09718820861679	56	127
200.01591836734693	200.09718820861679	37	127
200.01591836734693	200.09718820861679	71	127
200.17845804988661	200.503537414966	65	127
200.17845804988661	200.503537414966	56	127
200.17845804988661	200.503537414966	37	127
200.17845804988661	200.503537414966	71	127
200.503537414966	200.6892970521542	69	127
200.503537414966	200.6892970521542	66	127
200.503537414966	200.6892970521542	54	127
200.503537414966	200.6892970521542	42	127
200.87505668934241	201.1536961451247	69	127
200.87505668934241	201.1536961451247	66	127
200.87505668934241	201.0608163265306	35	127
201.1536961451247	201.1885260770975	71	127
201.1536961451247	201.1885260770975	68	127
201.1885260770975	201.23496598639457	69	127
201.1885260770975	201.23496598639457	66	127
201.23496598639457	201.4091156462585	68	127
201.23496598639457	201.4091156462585	47	127
201.23496598639457	201.4091156462585	64	127
201.4091156462585	201.5019954648526	66	127
201.4091156462585	201.5019954648526	63	127
201.59487528344673	201.78063492063492	35	127
201.59487528344673	201.96639455782312	66	127
201.59487528344673	201.96639455782312	63	127
201.96639455782312	202.33791383219955	63	127
201.96639455782312	202.33791383219955	66	127
201.96639455782312	202.15215419501135	47	127
202.33791383219955	202.5120634920635	32	127
202.33791383219955	202.6978231292517	63	127
202.33791383219955	202.5120634920635	56	127
202.33791383219955	202.5120634920635	71	127
202.5120634920635	202.6978231292517	69	127
202.5120634920635	202.6978231292517	54	127
202.5120634920635	202.6978231292517	35	127
202.6978231292517	202.7907029478458	69	127
202.6978231292517	202.7907029478458	63	127
202.6978231292517	202.7907029478458	54	127
202.6978231292517	202.7907029478458	35	127
202.89519274376417	202.976462585034	63	127
202.89519274376417	202.976462585034	69	127
202.89519274376417	202.976462585034	54	127
202.89519274376417	202.976462585034	35	127
203.05773242630386	203.42925170068028	69	127
203.05773242630386	203.42925170068028	54	127
203.05773242630386	203.42925170068028	63	127
203.05773242630386	203.42925170068028	35	127
203.42925170068028	203.6034013605442	52	127
203.42925170068028	203.6034013605442	68	127
203.42925170068028	203.6034013605442	64	127
203.42925170068028	203.6034013605442	40	127
209.2922902494331	210.7087074829932	59	127
209.2922902494331	210.7087074829932	71	127
210.7087074829932	210.96412698412698	66	127
210.7087074829932	210.96412698412698	69	127
210.7087074829932	210.88285714285715	35	127
210.96412698412698	210.9989569160998	71	127
210.96412698412698	210.9989569160998	68	127
210.9989569160998	211.05700680272108	69	127
210.9989569160998	211.05700680272108	66	127
211.05700680272108	211.2427664399093	47	127
211.05700680272108	211.2427664399093	68	127
211.05700680272108	211.2427664399093	64	127
211.2427664399093	211.3356462585034	66	127
211.2427664399093	211.3356462585034	63	127
211.4285260770975	211.78843537414966	64	127
211.4285260770975	211.78843537414966	68	127
211.4285260770975	211.60267573696146	40	127
211.78843537414966	212.1483446712018	64	127
211.78843537414966	212.1483446712018	68	127
211.78843537414966	211.97419501133786	47	127
212.1483446712018	212.43859410430838	66	127
212.1483446712018	212.34571428571428	35	127
212.1483446712018	212.43859410430838	69	127
212.43859410430838	212.48503401360543	68	127
212.43859410430838	212.48503401360543	71	127
212.48503401360543	212.5314739229025	69	127
212.48503401360543	212.5314739229025	66	127
212.5314739229025	212.7172335600907	64	127
212.5314739229025	212.7172335600907	68	127
212.5314739229025	212.7172335600907	47	127
212.7172335600907	212.8101133786848	66	127
212.7172335600907	212.8101133786848	63	127
212.9029931972789	213.0655328798186	40	127
212.9029931972789	213.58798185941043	64	127
212.9029931972789	213.58798185941043	68	127
213.22807256235828	213.41383219954648	47	127
213.58798185941043	213.75052154195012	47	127
213.9478911564626	214.1336507936508	59	127
214.2845804988662	214.52839002267575	52	127
214.70253968253968	214.8302494331066	59	127
214.981179138322	215.1669387755102	47	127
215.37591836734694	215.56167800453514	59	127
215.70099773242632	215.9215873015873	52	127
216.09573696145125	216.26988662131518	59	127
216.40920634920636	216.62979591836734	40	127
216.40920634920636	216.62979591836734	64	127
216.40920634920636	216.62979591836734	64	127
216.40920634920636	216.62979591836734	52	127
216.62979591836734	216.67623582766439	66	127
216.62979591836734	216.67623582766439	54	127
216.62979591836734	216.67623582766439	42	127
216.62979591836734	216.67623582766439	66	127
216.67623582766439	216.72267573696146	64	127
216.67623582766439	216.72267573696146	64	127
216.67623582766439	216.72267573696146	52	127
216.67623582766439	216.72267573696146	40	127
216.72267573696146	216.8968253968254	62	127
216.72267573696146	216.8968253968254	50	127
216.72267573696146	216.8968253968254	38	127
216.72267573696146	216.8968253968254	62	127
216.8968253968254	217.00131519274376	60	127
216.8968253968254	217.00131519274376	48	127
216.8968253968254	217.00131519274376	36	127
216.8968253968254	217.00131519274376	60	127
217.08258503401362	217.47732426303855	59	127
217.08258503401362	217.47732426303855	59	127
217.08258503401362	217.47732426303855	47	127
217.08258503401362	217.47732426303855	35	127
217.47732426303855	217.8024036281179	59	127
217.47732426303855	217.8024036281179	47	127
217.47732426303855	217.8024036281179	35	127
217.47732426303855	217.8024036281179	59	127
217.8024036281179	218.12748299319728	78	127
217.8024036281179	218.12748299319728	71	127
217.8024036281179	218.12748299319728	69	127
217.8024036281179	218.12748299319728	59	127
217.8024036281179	218.12748299319728	47	127
217.8024036281179	218.12748299319728	75	127
218.12748299319728	218.48739229024943	78	127
218.12748299319728	218.48739229024943	71	127
218.12748299319728	218.48739229024943	69	127
218.12748299319728	218.48739229024943	75	127
218.12748299319728	218.48739229024943	59	127
218.12748299319728	218.48739229024943	47	127
218.48739229024943	218.82408163265305	71	127
218.48739229024943	218.82408163265305	79	127
218.48739229024943	218.82408163265305	76	127
218.48739229024943	218.82408163265305	64	127
218.48739229024943	218.82408163265305	40	127
218.48739229024943	218.82408163265305	67	127
218.82408163265305	219.32331065759638	62	127
218.82408163265305	219.32331065759638	81	127
218.82408163265305	219.32331065759638	74	127
218.82408163265305	219.32331065759638	72	127
218.82408163265305	219.32331065759638	62	127
218.82408163265305	219.32331065759638	38	127
219.32331065759638	219.41619047619048	83	127
219.32331065759638	219.41619047619048	71	127
219.32331065759638	219.41619047619048	62	127
219.32331065759638	219.41619047619048	67	127
219.32331065759638	219.41619047619048	43	127
219.32331065759638	219.41619047619048	74	127
219.48585034013607	219.57873015873017	83	127
219.48585034013607	219.57873015873017	71	127
219.48585034013607	219.57873015873017	62	127
219.48585034013607	219.57873015873017	67	127
219.48585034013607	219.57873015873017	43	127
219.48585034013607	219.57873015873017	74	127
219.67160997732427	219.76448979591837	83	127
219.67160997732427	219.76448979591837	71	127
219.67160997732427	219.76448979591837	62	127
219.67160997732427	219.76448979591837	67	127
219.67160997732427	219.76448979591837	43	127
219.67160997732427	219.76448979591837	74	127
219.86897959183673	220.0431292517007	74	127
219.86897959183673	220.0431292517007	83	127
219.86897959183673	220.0431292517007	71	127
219.86897959183673	220.0431292517007	62	127
219.86897959183673	220.0431292517007	67	127
219.86897959183673	220.0431292517007	43	127
220.2288888888889	220.39142857142858	81	127
220.2288888888889	220.39142857142858	62	127
220.2288888888889	220.39142857142858	69	127
220.2288888888889	220.39142857142858	66	127
220.2288888888889	220.39142857142858	42	127
220.2288888888889	220.39142857142858	86	127
220.57718820861678	220.73972789115646	83	127
220.57718820861678	220.73972789115646	67	127
220.57718820861678	220.73972789115646	43	127
220.57718820861678	220.73972789115646	79	127
220.57718820861678	220.73972789115646	67	127
220.9487074829932	221.08802721088435	81	127
220.9487074829932	221.08802721088435	74	127
220.9487074829932	221.08802721088435	50	127
220.9487074829932	221.08802721088435	66	127
220.9487074829932	221.08802721088435	62	127
220.9487074829932	221.08802721088435	38	127
220.9487074829932	221.08802721088435	62	127
221.2621768707483	221.43632653061223	55	127
221.2621768707483	221.43632653061223	71	127
221.2621768707483	221.43632653061223	79	127
221.2621768707483	221.43632653061223	50	127
221.2621768707483	221.43632653061223	55	127
221.2621768707483	221.43632653061223	67	127
221.2621768707483	221.43632653061223	43	127
221.9471655328798	222.52766439909297	55	127
221.9471655328798	222.52766439909297	52	127
221.9471655328798	222.22580498866213	76	127
222.22580498866213	222.27224489795918	78	127
222.27224489795918	222.31868480725623	76	127
222.31868480725623	222.52766439909297	74	127
222.52766439909297	222.62054421768707	72	127
222.52766439909297	222.71342403628117	57	127
222.52766439909297	222.71342403628117	54	127
222.71342403628117	222.8991836734694	55	127
222.71342403628117	222.8991836734694	71	127
222.71342403628117	222.8991836734694	59	127
223.09655328798186	223.43324263038548	71	127
223.09655328798186	223.43324263038548	66	127
223.09655328798186	223.43324263038548	57	127
223.43324263038548	223.59578231292517	63	127
223.43324263038548	223.59578231292517	59	127
223.43324263038548	223.59578231292517	78	127
223.59578231292517	223.76993197278912	60	127
223.76993197278912	223.94408163265305	63	127
223.76993197278912	223.94408163265305	59	127
223.76993197278912	223.94408163265305	78	127
223.94408163265305	224.118231292517	57	127
224.118231292517	224.29238095238094	79	127
224.118231292517	224.29238095238094	64	127
224.118231292517	224.29238095238094	55	127
224.47814058956916	224.97736961451247	81	127
224.47814058956916	224.97736961451247	66	127
224.47814058956916	224.97736961451247	60	127
224.47814058956916	224.97736961451247	62	127
224.97736961451247	225.07024943310657	84	127
224.97736961451247	225.07024943310657	66	127
224.97736961451247	225.07024943310657	57	127
224.97736961451247	225.07024943310657	62	127
225.16312925170067	225.2560090702948	83	127
225.16312925170067	225.2560090702948	66	127
225.16312925170067	225.2560090702948	59	127
225.16312925170067	225.2560090702948	62	127
225.33727891156462	225.43015873015872	81	127
225.33727891156462	225.43015873015872	62	127
225.33727891156462	225.43015873015872	66	127
225.33727891156462	225.43015873015872	60	127
225.52303854875282	225.72040816326532	86	127
225.52303854875282	225.72040816326532	67	127
225.52303854875282	225.72040816326532	59	127
225.88294784580498	225.96421768707484	79	127
225.88294784580498	225.96421768707484	64	127
225.88294784580498	225.96421768707484	60	127
226.0338775510204	226.12675736961452	81	127
226.0338775510204	226.12675736961452	64	127
226.0338775510204	226.12675736961452	61	127
226.21963718820862	226.42861678004536	67	127
226.21963718820862	226.42861678004536	62	127
226.21963718820862	226.42861678004536	83	127
226.61437641723356	226.80013605442176	81	127
226.61437641723356	226.80013605442176	66	127
226.61437641723356	226.80013605442176	72	127
226.61437641723356	226.80013605442176	50	127
226.9742857142857	227.1600453514739	79	127
226.9742857142857	227.1600453514739	71	127
226.9742857142857	227.1600453514739	55	127
226.9742857142857	227.1600453514739	67	127
227.71732426303853	227.93791383219954	64	127
227.71732426303853	227.93791383219954	52	127
227.71732426303853	227.93791383219954	40	127
227.71732426303853	227.93791383219954	64	127
227.93791383219954	227.9843537414966	66	127
227.93791383219954	227.9843537414966	66	127
227.93791383219954	227.9843537414966	54	127
227.93791383219954	227.9843537414966	42	127
227.9843537414966	228.0424036281179	64	127
227.9843537414966	228.0424036281179	52	127
227.9843537414966	228.0424036281179	40	127
227.9843537414966	228.0424036281179	64	127
228.0424036281179	228.22816326530614	38	127
228.0424036281179	228.22816326530614	62	127
228.0424036281179	228.22816326530614	62	127
228.0424036281179	228.22816326530614	50	127
228.22816326530614	228.30943310657597	60	127
228.22816326530614	228.30943310657597	60	127
228.22816326530614	228.30943310657597	48	127
228.22816326530614	228.30943310657597	36	127
228.3907029478458	228.7390022675737	59	127
228.3907029478458	228.7390022675737	47	127
228.3907029478458	228.7390022675737	35	127
228.3907029478458	228.7390022675737	59	127
228.7390022675737	229.13374149659865	59	127
228.7390022675737	229.13374149659865	59	127
228.7390022675737	229.13374149659865	47	127
228.7390022675737	229.13374149659865	35	127
229.13374149659865	229.48204081632653	66	127
229.13374149659865	229.48204081632653	75	127
229.13374149659865	229.48204081632653	66	127
229.13374149659865	229.48204081632653	59	127
229.13374149659865	229.48204081632653	47	127
229.13374149659865	229.48204081632653	59	127
229.48204081632653	229.8419501133787	66	127
229.48204081632653	229.8419501133787	75	127
229.48204081632653	229.8419501133787	66	127
229.48204081632653	229.8419501133787	59	127
229.48204081632653	229.8419501133787	47	127
229.48204081632653	229.8419501133787	59	127
229.8419501133787	230.2134693877551	71	127
229.8419501133787	230.2134693877551	79	127
229.8419501133787	230.2134693877551	76	127
229.8419501133787	230.2134693877551	67	127
229.8419501133787	230.2134693877551	64	127
229.8419501133787	230.2134693877551	40	127
230.2134693877551	230.782358276644	66	127
230.2134693877551	230.782358276644	81	127
230.2134693877551	230.782358276644	74	127
230.2134693877551	230.782358276644	62	127
230.2134693877551	230.782358276644	38	127
230.2134693877551	230.782358276644	72	127
230.782358276644	230.86362811791383	83	127
230.782358276644	230.86362811791383	74	127
230.782358276644	230.86362811791383	67	127
230.782358276644	230.86362811791383	67	127
230.782358276644	230.86362811791383	43	127
230.782358276644	230.86362811791383	71	127
230.95650793650793	231.02616780045352	83	127
230.95650793650793	231.02616780045352	74	127
230.95650793650793	231.02616780045352	67	127
230.95650793650793	231.02616780045352	71	127
230.95650793650793	231.02616780045352	67	127
230.95650793650793	231.02616780045352	43	127
231.11904761904762	231.20031746031745	83	127
231.11904761904762	231.20031746031745	74	127
231.11904761904762	231.20031746031745	67	127
231.11904761904762	231.20031746031745	67	127
231.11904761904762	231.20031746031745	43	127
231.11904761904762	231.20031746031745	71	127
231.2815873015873	231.4673469387755	74	127
231.2815873015873	231.4673469387755	83	127
231.2815873015873	231.4673469387755	67	127
231.2815873015873	231.4673469387755	67	127
231.2815873015873	231.4673469387755	43	127
231.2815873015873	231.4673469387755	71	127
231.5950566893424	231.7808163265306	86	127
231.5950566893424	231.7808163265306	81	127
231.5950566893424	231.7808163265306	69	127
231.5950566893424	231.7808163265306	66	127
231.5950566893424	231.7808163265306	42	127
231.5950566893424	231.7808163265306	62	127
231.97818594104308	232.15233560090704	71	127
231.97818594104308	232.15233560090704	67	127
231.97818594104308	232.15233560090704	67	127
231.97818594104308	232.15233560090704	43	127
231.97818594104308	232.15233560090704	79	127
231.97818594104308	232.15233560090704	83	127
232.32648526077097	232.5122448979592	81	127
232.32648526077097	232.5122448979592	50	127
232.32648526077097	232.5122448979592	66	127
232.32648526077097	232.5122448979592	74	127
232.32648526077097	232.5122448979592	38	127
232.32648526077097	232.5122448979592	74	127
232.32648526077097	232.5122448979592	62	127
232.68639455782312	232.86054421768708	71	127
232.68639455782312	232.86054421768708	79	127
232.68639455782312	232.86054421768708	50	127
232.68639455782312	232.86054421768708	55	127
232.68639455782312	232.86054421768708	67	127
232.68639455782312	232.86054421768708	43	127
237.29555555555555	237.6902947845805	81	127
237.29555555555555	237.6902947845805	74	127
237.29555555555555	237.6902947845805	66	127
237.29555555555555	237.6902947845805	62	127
237.29555555555555	237.6902947845805	48	127
237.6902947845805	237.78317460317461	84	127
237.6902947845805	237.78317460317461	66	127
237.6902947845805	237.78317460317461	62	127
237.6902947845805	237.78317460317461	45	127
237.6902947845805	237.78317460317461	74	127
237.88766439909298	237.99215419501132	74	127
237.88766439909298	237.99215419501132	66	127
237.88766439909298	237.99215419501132	62	127
237.88766439909298	237.99215419501132	47	127
237.88766439909298	237.99215419501132	83	127
238.08503401360545	238.17791383219955	81	127
238.08503401360545	238.17791383219955	74	127
238.08503401360545	238.17791383219955	66	127
238.08503401360545	238.17791383219955	48	127
238.08503401360545	238.17791383219955	62	127
238.28240362811792	238.7003628117914	86	127
238.28240362811792	238.7003628117914	74	127
238.28240362811792	238.7003628117914	62	127
238.28240362811792	238.7003628117914	47	127
238.28240362811792	238.7003628117914	67	127
240.1051700680272	240.46507936507936	71	127
240.1051700680272	240.46507936507936	63	127
240.1051700680272	240.46507936507936	59	127
240.1051700680272	240.46507936507936	45	127
240.1051700680272	240.46507936507936	78	127
240.46507936507936	240.55795918367346	71	127
240.46507936507936	240.55795918367346	81	127
240.46507936507936	240.55795918367346	63	127
240.46507936507936	240.55795918367346	42	127
240.46507936507936	240.55795918367346	59	127
240.65083900226756	240.75532879818593	71	127
240.65083900226756	240.75532879818593	79	127
240.65083900226756	240.75532879818593	63	127
240.65083900226756	240.75532879818593	59	127
240.65083900226756	240.75532879818593	43	127
240.87142857142857	240.96430839002267	71	127
240.87142857142857	240.96430839002267	63	127
240.87142857142857	240.96430839002267	59	127
240.87142857142857	240.96430839002267	45	127
240.87142857142857	240.96430839002267	78	127
241.0571882086168	241.463537414966	71	127
241.0571882086168	241.463537414966	64	127
241.0571882086168	241.463537414966	59	127
241.0571882086168	241.463537414966	43	127
241.0571882086168	241.463537414966	83	127
242.83351473922903	243.29791383219955	74	127
242.83351473922903	243.29791383219955	71	127
242.83351473922903	243.29791383219955	55	127
242.83351473922903	243.29791383219955	41	127
242.83351473922903	243.29791383219955	67	127
243.29791383219955	243.39079365079365	77	127
243.29791383219955	243.39079365079365	67	127
243.29791383219955	243.39079365079365	55	127
243.29791383219955	243.39079365079365	38	127
243.29791383219955	243.39079365079365	71	127
243.48367346938775	243.57655328798185	76	127
243.48367346938775	243.57655328798185	71	127
243.48367346938775	243.57655328798185	67	127
243.48367346938775	243.57655328798185	55	127
243.48367346938775	243.57655328798185	40	127
243.66943310657595	243.77392290249432	74	127
243.66943310657595	243.77392290249432	71	127
243.66943310657595	243.77392290249432	67	127
243.66943310657595	243.77392290249432	41	127
243.66943310657595	243.77392290249432	55	127
243.86680272108845	244.27315192743765	79	127
243.86680272108845	244.27315192743765	67	127
243.86680272108845	244.27315192743765	55	127
243.86680272108845	244.27315192743765	40	127
243.86680272108845	244.27315192743765	72	127
245.65473922902495	246.09591836734694	56	127
245.65473922902495	246.09591836734694	38	127
245.65473922902495	246.09591836734694	71	127
245.65473922902495	246.09591836734694	64	127
246.09591836734694	246.142358276644	64	127
246.09591836734694	246.142358276644	56	127
246.09591836734694	246.142358276644	35	127
246.09591836734694	246.142358276644	77	127
246.22362811791382	246.3281179138322	76	127
246.22362811791382	246.3281179138322	64	127
246.22362811791382	246.3281179138322	56	127
246.22362811791382	246.3281179138322	36	127
246.42099773242631	246.52548752834468	64	127
246.42099773242631	246.52548752834468	56	127
246.42099773242631	246.52548752834468	38	127
246.42099773242631	246.52548752834468	74	127
246.61836734693878	247.4542857142857	36	127
246.61836734693878	247.4542857142857	76	127
246.61836734693878	247.84902494331067	57	127
246.61836734693878	247.4542857142857	64	127
247.4542857142857	248.27859410430838	74	127
247.4542857142857	248.27859410430838	65	127
247.4542857142857	248.27859410430838	38	127
247.84902494331067	248.27859410430838	59	127
248.27859410430838	249.95043083900228	40	127
248.27859410430838	249.02163265306123	72	127
248.27859410430838	249.02163265306123	60	127
248.27859410430838	249.48603174603176	64	127
249.02163265306123	249.95043083900228	71	127
249.02163265306123	249.95043083900228	56	127
249.48603174603176	249.95043083900228	62	127
249.95043083900228	250.34517006802722	57	127
249.95043083900228	250.34517006802722	69	127
249.95043083900228	250.34517006802722	61	127
249.95043083900228	250.13619047619048	33	127
250.34517006802722	250.46126984126985	37	127
250.34517006802722	250.86761904761906	57	127
250.58897959183673	250.64702947845805	40	127
250.68185941043083	251.041768707483	45	127
250.86761904761906	251.041768707483	61	127
251.041768707483	251.23913832199545	59	127
251.23913832199545	251.37845804988663	57	127
251.37845804988663	252.12149659863945	64	127
251.37845804988663	251.56421768707483	33	127
251.74997732426303	251.87768707482994	37	127
252.02861678004535	252.0750566893424	40	127
252.12149659863945	252.43496598639456	61	127
252.12149659863945	252.43496598639456	45	127
252.43496598639456	252.74843537414966	57	127
252.74843537414966	253.10834467120182	52	127
252.74843537414966	252.87614512471654	40	127
253.10834467120182	253.6424036281179	76	127
253.10834467120182	253.6424036281179	64	127
253.10834467120182	253.24766439909297	44	127
253.38698412698412	253.43342403628117	47	127
253.47986394557824	253.82816326530613	52	127
253.6424036281179	253.82816326530613	80	127
253.6424036281179	253.82816326530613	68	127
253.82816326530613	254.00231292517006	66	127
253.82816326530613	254.00231292517006	78	127
254.00231292517006	254.17646258503402	76	127
254.00231292517006	254.17646258503402	64	127
254.17646258503402	254.88467120181406	71	127
254.17646258503402	254.88467120181406	83	127
254.17646258503402	254.36222222222221	40	127
254.54798185941044	254.67569160997732	44	127
254.80340136054423	254.838231292517	47	127
254.88467120181406	255.26780045351475	80	127
254.88467120181406	255.26780045351475	68	127
254.88467120181406	255.26780045351475	52	127
255.26780045351475	255.63931972789115	74	127
255.26780045351475	255.63931972789115	62	127
255.63931972789115	256.02244897959184	61	127
255.63931972789115	256.02244897959184	73	127
255.63931972789115	255.83668934240362	33	127
256.02244897959184	256.161768707483	37	127
256.02244897959184	256.5100680272109	57	127
256.30108843537414	256.3475283446712	40	127
256.39396825396824	256.68419501133786	45	127
256.5100680272109	256.68419501133786	61	127
256.68419501133786	256.8583673469388	59	127
256.8583673469388	256.9976870748299	57	127
256.9976870748299	257.7291156462585	64	127
256.9976870748299	257.18344671201817	33	127
257.36920634920637	257.485306122449	37	127
257.61301587301585	257.65945578231293	40	127
257.7291156462585	258.06580498866214	61	127
257.7291156462585	258.06580498866214	45	127
258.06580498866214	258.47215419501134	57	127
258.47215419501134	258.82045351473926	52	127
258.47215419501134	258.64630385487527	40	127
258.82045351473926	258.9597732426304	44	127
258.82045351473926	259.3080725623583	64	127
258.82045351473926	259.3080725623583	76	127
259.0526530612245	259.06426303854875	47	127
259.1107029478458	259.4822222222222	52	127
259.3080725623583	259.4822222222222	80	127
259.3080725623583	259.4822222222222	68	127
259.4822222222222	259.65637188208615	66	127
259.4822222222222	259.65637188208615	78	127
259.65637188208615	259.81891156462586	64	127
259.65637188208615	259.81891156462586	76	127
259.81891156462586	260.51551020408164	83	127
259.81891156462586	260.51551020408164	71	127
259.81891156462586	259.9814512471655	40	127
260.1555782312925	260.29492063492063	44	127
260.42263038548754	260.4690476190476	47	127
260.51551020408164	260.8521995464853	52	127
260.51551020408164	260.8521995464853	68	127
260.51551020408164	260.8521995464853	80	127
260.8521995464853	261.23532879818595	74	127
260.8521995464853	261.23532879818595	62	127
261.23532879818595	261.6184580498866	73	127
261.23532879818595	261.6184580498866	61	127
261.23532879818595	261.4443083900227	33	127
261.6184580498866	262.1525170068027	57	127
261.6184580498866	261.76938775510206	37	127
261.8854875283447	261.9319274376417	40	127
261.9783673469388	262.32666666666665	45	127
262.1525170068027	262.32666666666665	61	127
262.32666666666665	262.4775963718821	59	127
262.4775963718821	262.6285260770975	57	127
262.6285260770975	262.8026757369615	33	127
262.6285260770975	263.27868480725624	64	127
262.9768253968254	263.0813151927438	37	127
263.1974149659864	263.24385487528343	40	127
263.27868480725624	263.68503401360545	45	127
263.27868480725624	263.68503401360545	63	127
263.68503401360545	264.03333333333336	61	127
264.03333333333336	265.4613605442177	68	127
264.03333333333336	264.21909297052156	32	127
264.416462585034	264.95052154195014	73	127
264.416462585034	264.95052154195014	61	127
264.416462585034	264.5557596371882	37	127
264.6718820861678	264.71832199546486	40	127
264.76473922902494	265.13628117913834	44	127
264.95052154195014	265.13628117913834	64	127
264.95052154195014	265.13628117913834	76	127
265.13628117913834	265.31043083900227	75	127
265.13628117913834	265.31043083900227	63	127
265.31043083900227	265.4613605442177	61	127
265.31043083900227	265.4613605442177	73	127
265.4613605442177	266.4598185941043	63	127
265.4613605442177	265.519410430839	60	127
265.4613605442177	266.4598185941043	78	127
265.4613605442177	265.6471201814059	32	127
265.519410430839	265.57743764172335	61	127
265.57743764172335	265.6471201814059	60	127
265.6471201814059	265.7051700680272	61	127
265.7051700680272	265.74	60	127
265.74	265.7980498866213	61	127
265.7980498866213	265.85609977324265	60	127
265.7980498866213	265.9257596371882	36	127
265.85609977324265	265.91414965986394	61	127
265.91414965986394	265.9721995464853	60	127
265.9721995464853	265.99541950113377	61	127
265.99541950113377	266.04185941043085	60	127
266.00702947845804	266.0534693877551	39	127
266.04185941043085	266.09990929705214	61	127
266.09990929705214	266.16956916099775	60	127
266.09990929705214	266.4598185941043	44	127
266.16956916099775	266.22761904761904	61	127
266.22761904761904	266.2740589569161	60	127
266.2740589569161	266.3437188208617	61	127
266.3437188208617	266.401768707483	60	127
266.401768707483	266.4598185941043	61	127
266.4598185941043	266.6804081632653	64	127
266.4598185941043	266.6804081632653	76	127
266.4598185941043	266.54108843537415	60	127
266.54108843537415	266.5991156462585	61	127
266.5991156462585	266.6804081632653	60	127
266.6804081632653	266.7384580498866	61	127
266.6804081632653	266.8661678004535	75	127
266.6804081632653	266.8661678004535	66	127
266.7384580498866	266.79650793650796	58	127
266.79650793650796	266.8661678004535	60	127
266.8661678004535	267.22607709750565	37	127
266.8661678004535	267.22607709750565	64	127
266.8661678004535	267.04031746031745	73	127
266.8661678004535	267.04031746031745	61	127
267.04031746031745	267.22607709750565	56	127
267.04031746031745	267.22607709750565	73	127
267.22607709750565	267.330566893424	37	127
267.22607709750565	267.330566893424	56	127
267.22607709750565	267.330566893424	73	127
267.22607709750565	267.330566893424	64	127
267.4234240362812	267.5163038548753	37	127
267.4234240362812	267.5163038548753	64	127
267.4234240362812	267.5163038548753	73	127
267.4234240362812	267.5163038548753	56	127
267.6092063492064	267.9226530612245	37	127
267.6092063492064	267.9226530612245	56	127
267.6092063492064	267.9226530612245	64	127
267.6092063492064	267.7485260770975	73	127
267.7485260770975	267.9226530612245	76	127
267.9226530612245	268.0155555555556	37	127
267.9226530612245	268.0155555555556	76	127
267.9226530612245	268.0155555555556	64	127
267.9226530612245	268.0155555555556	56	127
268.1084353741497	268.21292517006805	56	127
268.1084353741497	268.21292517006805	37	127
268.1084353741497	268.21292517006805	64	127
268.1084353741497	268.21292517006805	76	127
268.30580498866215	268.49156462585034	76	127
268.30580498866215	268.67732426303854	64	127
268.30580498866215	268.67732426303854	37	127
268.30580498866215	268.49156462585034	56	127
268.49156462585034	268.67732426303854	73	127
268.49156462585034	268.67732426303854	57	127
268.67732426303854	268.77020408163264	73	127
268.67732426303854	268.77020408163264	57	127
268.67732426303854	268.77020408163264	64	127
268.67732426303854	268.77020408163264	37	127
268.86308390022674	268.9559410430839	73	127
268.86308390022674	268.9559410430839	37	127
268.86308390022674	268.9559410430839	57	127
268.86308390022674	268.9559410430839	64	127
269.0372335600907	269.4203628117914	37	127
269.0372335600907	269.2346031746032	57	127
269.0372335600907	269.4203628117914	64	127
269.0372335600907	269.2346031746032	73	127
269.2346031746032	269.4203628117914	76	127
269.2346031746032	269.4203628117914	56	127
269.4203628117914	269.5132426303855	56	127
269.4203628117914	269.5132426303855	76	127
269.4203628117914	269.5132426303855	37	127
269.4203628117914	269.5132426303855	64	127
269.6061224489796	269.67578231292515	56	127
269.6061224489796	269.67578231292515	37	127
269.6061224489796	269.67578231292515	76	127
269.6061224489796	269.67578231292515	64	127
269.7686394557823	270.11696145124716	64	127
269.7686394557823	269.93120181405897	56	127
269.7686394557823	270.11696145124716	37	127
269.7686394557823	269.93120181405897	76	127
269.93120181405897	270.11696145124716	73	127
269.93120181405897	270.11696145124716	57	127
270.11696145124716	270.20984126984126	73	127
270.11696145124716	270.20984126984126	57	127
270.11696145124716	270.20984126984126	64	127
270.11696145124716	270.20984126984126	37	127
270.30272108843536	270.38396825396825	57	127
270.30272108843536	270.38396825396825	73	127
270.30272108843536	270.38396825396825	64	127
270.30272108843536	270.38396825396825	37	127
270.47687074829935	270.8251700680272	37	127
270.47687074829935	270.8251700680272	64	127
270.47687074829935	270.6510204081633	73	127
270.47687074829935	270.6510204081633	57	127
270.6510204081633	270.8251700680272	56	127
270.6510204081633	270.8251700680272	76	127
270.8251700680272	270.90643990929703	64	127
270.8251700680272	270.90643990929703	37	127
270.8251700680272	270.90643990929703	56	127
270.8251700680272	270.90643990929703	76	127
270.9877097505669	271.06897959183675	76	127
270.9877097505669	271.06897959183675	64	127
270.9877097505669	271.06897959183675	56	127
270.9877097505669	271.06897959183675	37	127
271.16185941043085	271.3360090702948	76	127
271.16185941043085	271.3360090702948	56	127
271.16185941043085	271.521768707483	64	127
271.16185941043085	271.521768707483	37	127
271.3360090702948	271.521768707483	73	127
271.3360090702948	271.521768707483	57	127
271.521768707483	271.61462585034013	57	127
271.521768707483	271.61462585034013	64	127
271.521768707483	271.61462585034013	73	127
271.521768707483	271.61462585034013	37	127
271.66108843537415	271.75396825396825	64	127
271.66108843537415	271.75396825396825	57	127
271.66108843537415	271.75396825396825	73	127
271.66108843537415	271.75396825396825	37	127
271.8352380952381	272.19514739229027	37	127
271.8352380952381	272.00938775510207	73	127
271.8352380952381	272.00938775510207	57	127
271.8352380952381	272.19514739229027	64	127
272.00938775510207	272.19514739229027	58	127
272.00938775510207	272.19514739229027	67	127
272.19514739229027	272.29963718820864	37	127
272.19514739229027	272.29963718820864	67	127
272.19514739229027	272.29963718820864	64	127
272.19514739229027	272.29963718820864	58	127
272.39251700680273	272.48539682539683	67	127
272.39251700680273	272.48539682539683	58	127
272.39251700680273	272.48539682539683	64	127
272.39251700680273	272.48539682539683	37	127
272.57827664399093	272.7756462585034	64	127
272.57827664399093	272.7756462585034	67	127
272.57827664399093	272.7756462585034	58	127
272.57827664399093	272.7756462585034	37	127
272.7756462585034	272.92657596371885	59	127
272.7756462585034	272.92657596371885	38	127
272.7756462585034	272.92657596371885	62	127
272.7756462585034	272.92657596371885	66	127
272.92657596371885	273.01945578231295	62	127
272.92657596371885	273.01945578231295	59	127
272.92657596371885	273.01945578231295	66	127
272.92657596371885	273.01945578231295	38	127
273.1239455782313	273.2168253968254	62	127
273.1239455782313	273.2168253968254	38	127
273.1239455782313	273.2168253968254	59	127
273.1239455782313	273.2168253968254	66	127
273.2748752834467	273.4374149659864	59	127
273.2748752834467	273.4374149659864	62	127
273.2748752834467	273.4374149659864	66	127
273.2748752834467	273.6347845804989	38	127
273.4374149659864	273.6347845804989	66	127
273.4374149659864	273.6347845804989	58	127
273.4374149659864	273.6347845804989	78	127
273.6347845804989	273.7160544217687	66	127
273.6347845804989	273.7160544217687	78	127
273.6347845804989	273.7160544217687	38	127
273.6347845804989	273.7160544217687	58	127
273.79732426303855	273.89020408163265	78	127
273.79732426303855	273.89020408163265	66	127
273.79732426303855	273.89020408163265	58	127
273.79732426303855	273.89020408163265	38	127
273.98308390022675	274.168820861678	78	127
273.98308390022675	274.3546031746032	38	127
273.98308390022675	274.3546031746032	66	127
273.98308390022675	274.168820861678	58	127
274.168820861678	274.3546031746032	74	127
274.168820861678	274.3546031746032	59	127
274.3546031746032	274.4474829931973	66	127
274.3546031746032	274.4474829931973	74	127
274.3546031746032	274.4474829931973	38	127
274.3546031746032	274.4474829931973	59	127
274.55197278911567	274.64485260770977	66	127
274.55197278911567	274.64485260770977	74	127
274.55197278911567	274.64485260770977	59	127
274.55197278911567	274.64485260770977	38	127
274.7261224489796	274.9002721088435	59	127
274.7261224489796	274.9002721088435	74	127
274.7261224489796	275.06281179138324	66	127
274.7261224489796	275.06281179138324	38	127
274.9002721088435	275.06281179138324	58	127
274.9002721088435	275.06281179138324	78	127
275.06281179138324	275.15569160997734	78	127
275.06281179138324	275.15569160997734	66	127
275.06281179138324	275.15569160997734	58	127
275.06281179138324	275.15569160997734	38	127
275.24857142857144	275.28337868480725	58	127
275.24857142857144	275.28337868480725	38	127
275.24857142857144	275.28337868480725	66	127
275.24857142857144	275.28337868480725	78	127
275.318231292517	275.6665306122449	38	127
275.318231292517	275.6665306122449	66	127
275.318231292517	275.4807709750567	78	127
275.318231292517	275.4807709750567	58	127
275.4807709750567	275.6665306122449	59	127
275.4807709750567	275.6665306122449	74	127
275.6665306122449	275.759410430839	38	127
275.6665306122449	275.759410430839	74	127
275.6665306122449	275.759410430839	66	127
275.6665306122449	275.759410430839	59	127
275.8522902494331	275.9451700680272	74	127
275.8522902494331	275.9451700680272	66	127
275.8522902494331	275.9451700680272	59	127
275.8522902494331	275.9451700680272	38	127
276.02643990929704	276.3863492063492	38	127
276.02643990929704	276.3863492063492	66	127
276.02643990929704	276.200589569161	59	127
276.02643990929704	276.200589569161	74	127
276.200589569161	276.3863492063492	78	127
276.200589569161	276.3863492063492	57	127
276.3863492063492	276.4792290249433	78	127
276.3863492063492	276.4792290249433	38	127
276.3863492063492	276.4792290249433	57	127
276.3863492063492	276.4792290249433	66	127
276.5837188208617	276.68820861678006	78	127
276.5837188208617	276.68820861678006	66	127
276.5837188208617	276.68820861678006	38	127
276.5837188208617	276.68820861678006	57	127
276.7694784580499	276.9552380952381	57	127
276.7694784580499	277.15260770975055	38	127
276.7694784580499	277.15260770975055	66	127
276.7694784580499	276.9552380952381	78	127
276.9552380952381	277.15260770975055	58	127
276.9552380952381	277.15260770975055	74	127
277.15260770975055	277.23385487528344	38	127
277.15260770975055	277.23385487528344	66	127
277.15260770975055	277.23385487528344	74	127
277.15260770975055	277.23385487528344	58	127
277.29192743764173	277.38480725623583	38	127
277.29192743764173	277.38480725623583	58	127
277.29192743764173	277.38480725623583	66	127
277.29192743764173	277.38480725623583	74	127
277.4428571428571	277.7679365079365	66	127
277.4428571428571	277.6170068027211	74	127
277.4428571428571	277.7679365079365	38	127
277.4428571428571	277.6170068027211	58	127
277.6170068027211	277.7679365079365	71	127
277.6170068027211	277.7679365079365	59	127
277.7679365079365	277.8491836734694	71	127
277.7679365079365	277.8491836734694	38	127
277.7679365079365	277.8491836734694	59	127
277.7679365079365	277.8491836734694	66	127
277.96530612244896	278.05818594104306	66	127
277.96530612244896	278.05818594104306	59	127
277.96530612244896	278.05818594104306	38	127
277.96530612244896	278.05818594104306	71	127
278.1510430839002	278.32521541950115	59	127
278.1510430839002	278.51097505668935	38	127
278.1510430839002	278.32521541950115	71	127
278.1510430839002	278.51097505668935	66	127
278.32521541950115	278.51097505668935	60	127
278.32521541950115	278.51097505668935	69	127
278.51097505668935	278.60385487528345	38	127
278.51097505668935	278.60385487528345	66	127
278.51097505668935	278.60385487528345	69	127
278.51097505668935	278.60385487528345	60	127
278.69673469387754	278.7780045351474	69	127
278.69673469387754	278.7780045351474	60	127
278.69673469387754	278.7780045351474	66	127
278.69673469387754	278.7780045351474	38	127
278.847664399093	279.01020408163265	66	127
278.847664399093	279.1843537414966	60	127
278.847664399093	279.01020408163265	69	127
278.847664399093	279.01020408163265	38	127
279.01020408163265	279.1843537414966	69	127
279.01020408163265	279.1843537414966	39	127
279.01020408163265	279.1843537414966	81	127
279.1843537414966	279.27721088435374	69	127
279.1843537414966	279.27721088435374	60	127
279.1843537414966	279.27721088435374	81	127
279.1843537414966	279.27721088435374	39	127
279.37011337868483	279.46299319727893	81	127
279.37011337868483	279.46299319727893	69	127
279.37011337868483	279.46299319727893	60	127
279.37011337868483	279.46299319727893	39	127
279.54426303854876	279.8925396825397	60	127
279.54426303854876	279.7184126984127	39	127
279.54426303854876	279.7184126984127	81	127
279.54426303854876	279.8925396825397	69	127
279.7184126984127	279.8925396825397	40	127
279.7184126984127	279.8925396825397	76	127
279.8925396825397	279.96222222222224	76	127
279.8925396825397	279.96222222222224	69	127
279.8925396825397	279.96222222222224	40	127
279.8925396825397	279.96222222222224	60	127
280.0667120181406	280.1595918367347	69	127
280.0667120181406	280.1595918367347	60	127
280.0667120181406	280.1595918367347	40	127
280.0667120181406	280.1595918367347	76	127
280.2524716553288	280.6007482993197	69	127
280.2524716553288	280.438231292517	40	127
280.2524716553288	280.6007482993197	60	127
280.2524716553288	280.438231292517	76	127
280.438231292517	280.6007482993197	75	127
280.438231292517	280.6007482993197	41	127
280.6007482993197	280.68204081632655	41	127
280.6007482993197	280.68204081632655	75	127
280.6007482993197	280.68204081632655	60	127
280.6007482993197	280.68204081632655	69	127
280.7633106575964	280.7981405895692	60	127
280.7633106575964	280.7981405895692	75	127
280.7633106575964	280.7981405895692	41	127
280.7633106575964	280.7981405895692	69	127
280.8910204081633	281.2625396825397	69	127
280.8910204081633	281.2625396825397	60	127
280.8910204081633	281.08839002267575	41	127
280.8910204081633	281.08839002267575	74	127
281.08839002267575	281.2625396825397	42	127
281.08839002267575	281.2625396825397	74	127
281.2625396825397	281.3554195011338	69	127
281.2625396825397	281.3554195011338	42	127
281.2625396825397	281.3554195011338	74	127
281.2625396825397	281.3554195011338	60	127
281.4250566893424	281.5063492063492	69	127
281.4250566893424	281.5063492063492	60	127
281.4250566893424	281.5063492063492	42	127
281.4250566893424	281.5063492063492	74	127
281.5992290249433	281.7849886621315	60	127
281.5992290249433	281.7849886621315	69	127
281.5992290249433	281.7849886621315	42	127
281.5992290249433	281.7849886621315	74	127
281.7849886621315	281.9243083900227	59	127
281.7849886621315	281.9243083900227	76	127
281.7849886621315	281.9243083900227	67	127
281.7849886621315	281.9243083900227	43	127
281.9243083900227	282.0171882086168	43	127
281.9243083900227	282.0171882086168	59	127
281.9243083900227	282.0171882086168	74	127
281.9243083900227	282.0171882086168	67	127
282.1100680272109	282.202947845805	67	127
282.1100680272109	282.202947845805	74	127
282.1100680272109	282.202947845805	59	127
282.1100680272109	282.202947845805	43	127
282.27260770975056	282.5744671201814	59	127
282.27260770975056	282.4351473922903	67	127
282.27260770975056	282.4351473922903	43	127
282.27260770975056	282.4351473922903	74	127
282.4351473922903	282.5744671201814	44	127
282.4351473922903	282.5744671201814	76	127
282.4351473922903	282.5744671201814	65	127
282.5744671201814	282.6557142857143	44	127
282.5744671201814	282.6557142857143	74	127
282.5744671201814	282.6557142857143	65	127
282.5744671201814	282.6557142857143	59	127
282.7370068027211	282.8414965986395	74	127
282.7370068027211	282.8414965986395	65	127
282.7370068027211	282.8414965986395	44	127
282.7370068027211	282.8414965986395	59	127
282.9343764172336	283.1201360544218	59	127
282.9343764172336	283.1201360544218	65	127
282.9343764172336	283.1201360544218	44	127
282.9343764172336	283.1201360544218	74	127
283.1201360544218	283.30589569161	61	127
283.1201360544218	283.30589569161	73	127
283.1201360544218	283.30589569161	64	127
283.1201360544218	283.30589569161	45	127
283.30589569161	283.3871655328798	73	127
283.30589569161	283.3871655328798	64	127
283.30589569161	283.3871655328798	61	127
283.30589569161	283.3871655328798	45	127
283.4916553287982	283.5845351473923	73	127
283.4916553287982	283.5845351473923	64	127
283.4916553287982	283.5845351473923	61	127
283.4916553287982	283.5845351473923	45	127
283.66580498866216	283.8283446712018	45	127
283.66580498866216	283.8283446712018	61	127
283.66580498866216	283.8283446712018	73	127
283.66580498866216	283.8283446712018	64	127
283.8283446712018	284.01410430839	71	127
283.8283446712018	284.01410430839	38	127
283.8283446712018	284.01410430839	66	127
283.8283446712018	284.01410430839	62	127
284.01410430839	284.1069841269841	38	127
284.01410430839	284.1069841269841	66	127
284.01410430839	284.1069841269841	71	127
284.01410430839	284.1069841269841	62	127
284.188231292517	284.2811111111111	62	127
284.188231292517	284.2811111111111	66	127
284.188231292517	284.2811111111111	38	127
284.188231292517	284.2811111111111	71	127
284.36240362811793	284.54816326530613	66	127
284.36240362811793	284.54816326530613	62	127
284.36240362811793	284.54816326530613	38	127
284.36240362811793	284.54816326530613	71	127
284.54816326530613	284.7339229024943	69	127
284.54816326530613	284.7339229024943	40	127
284.54816326530613	284.7339229024943	64	127
284.54816326530613	284.7339229024943	61	127
284.7339229024943	284.81519274376416	61	127
284.7339229024943	284.81519274376416	40	127
284.7339229024943	284.81519274376416	69	127
284.7339229024943	284.81519274376416	64	127
284.90807256235826	285.0009297052154	64	127
284.90807256235826	285.0009297052154	40	127
284.90807256235826	285.0009297052154	69	127
284.90807256235826	285.0009297052154	61	127
285.0938321995465	285.2795918367347	64	127
285.0938321995465	285.2795918367347	69	127
285.0938321995465	285.2795918367347	61	127
285.0938321995465	285.2795918367347	40	127
285.2795918367347	285.45374149659864	62	127
285.2795918367347	285.45374149659864	59	127
285.2795918367347	285.45374149659864	40	127
285.2795918367347	285.45374149659864	68	127
285.45374149659864	285.53501133786847	59	127
285.45374149659864	285.53501133786847	62	127
285.45374149659864	285.53501133786847	40	127
285.45374149659864	285.53501133786847	68	127
285.61625850340135	285.6859410430839	40	127
285.61625850340135	285.6859410430839	68	127
285.61625850340135	285.6859410430839	62	127
285.61625850340135	285.6859410430839	59	127
285.778820861678	286.02260770975056	73	127
285.778820861678	286.11551020408166	52	127
285.778820861678	296.854716553288	33	127
285.778820861678	286.02260770975056	64	127
286.02260770975056	286.0690702947846	74	127
286.02260770975056	286.0690702947846	66	127
286.0690702947846	286.11551020408166	64	127
286.0690702947846	286.11551020408166	73	127
286.11551020408166	286.2780498866213	56	127
286.11551020408166	286.2780498866213	62	127
286.11551020408166	286.2780498866213	71	127
286.2780498866213	286.3709297052154	69	127
286.2780498866213	286.3709297052154	61	127
286.2780498866213	286.3709297052154	57	127
286.45219954648525	286.7888888888889	52	127
286.45219954648525	286.7888888888889	61	127
286.45219954648525	286.7888888888889	69	127
286.7888888888889	287.1487755102041	61	127
286.7888888888889	287.1487755102041	69	127
286.7888888888889	287.1487755102041	57	127
287.1487755102041	287.53192743764174	52	127
287.1487755102041	287.43904761904764	73	127
287.1487755102041	287.43904761904764	64	127
287.43904761904764	287.48548752834466	66	127
287.43904761904764	287.48548752834466	74	127
287.48548752834466	287.53192743764174	64	127
287.48548752834466	287.53192743764174	73	127
287.53192743764174	287.71768707482994	71	127
287.53192743764174	287.71768707482994	62	127
287.53192743764174	287.71768707482994	56	127
287.71768707482994	287.81056689342404	69	127
287.71768707482994	287.81056689342404	61	127
287.71768707482994	287.81056689342404	57	127
287.90344671201814	288.2401360544218	69	127
287.90344671201814	288.2401360544218	52	127
287.90344671201814	288.2401360544218	61	127
288.2401360544218	288.5419954648526	57	127
288.2401360544218	288.5419954648526	69	127
288.2401360544218	288.5419954648526	61	127
288.5419954648526	288.87868480725626	54	127
288.5419954648526	288.7277551020408	74	127
288.5419954648526	288.7277551020408	66	127
288.7277551020408	288.87868480725626	64	127
288.7277551020408	288.87868480725626	73	127
288.87868480725626	289.0412244897959	64	127
288.87868480725626	289.0412244897959	73	127
288.87868480725626	289.0412244897959	58	127
289.0412244897959	289.2269841269841	71	127
289.0412244897959	289.2269841269841	62	127
289.0412244897959	289.2269841269841	59	127
289.2269841269841	289.5520634920635	54	127
289.2269841269841	289.88875283446714	62	127
289.2269841269841	289.88875283446714	71	127
289.5520634920635	289.88875283446714	59	127
289.88875283446714	290.03968253968253	66	127
289.88875283446714	290.237052154195	54	127
289.88875283446714	290.03968253968253	74	127
290.03968253968253	290.237052154195	64	127
290.03968253968253	290.237052154195	73	127
290.237052154195	290.411201814059	64	127
290.237052154195	290.411201814059	58	127
290.237052154195	290.411201814059	73	127
290.411201814059	290.57374149659864	71	127
290.411201814059	290.57374149659864	62	127
290.411201814059	290.57374149659864	59	127
290.57374149659864	291.25873015873015	71	127
290.57374149659864	291.25873015873015	62	127
290.57374149659864	290.898820861678	54	127
290.898820861678	291.25873015873015	59	127
291.25873015873015	291.4444671201814	56	127
291.25873015873015	291.52575963718823	71	127
291.25873015873015	291.52575963718823	62	127
291.4444671201814	291.60702947845806	59	127
291.52575963718823	291.560589569161	64	127
291.52575963718823	291.560589569161	73	127
291.560589569161	291.60702947845806	62	127
291.560589569161	291.60702947845806	71	127
291.60702947845806	291.79278911564626	69	127
291.60702947845806	291.79278911564626	61	127
291.60702947845806	291.79278911564626	61	127
291.79278911564626	291.88566893424036	59	127
291.79278911564626	291.88566893424036	68	127
291.79278911564626	291.9901587301587	62	127
291.9901587301587	292.3500680272109	68	127
291.9901587301587	292.3500680272109	62	127
291.9901587301587	292.3500680272109	59	127
292.3500680272109	292.6751247165533	68	127
292.3500680272109	292.6751247165533	59	127
292.3500680272109	292.6751247165533	62	127
292.6751247165533	292.8609070294785	56	127
292.6751247165533	292.96539682539685	71	127
292.6751247165533	292.96539682539685	62	127
292.8609070294785	293.05827664399095	59	127
292.96539682539685	293.0118367346939	64	127
292.96539682539685	293.0118367346939	73	127
293.0118367346939	293.05827664399095	62	127
293.0118367346939	293.05827664399095	71	127
293.05827664399095	293.2556462585034	69	127
293.05827664399095	293.2556462585034	61	127
293.05827664399095	293.2556462585034	61	127
293.2556462585034	293.4414058956916	62	127
293.2556462585034	293.3485260770975	68	127
293.2556462585034	293.3485260770975	59	127
293.4414058956916	293.77809523809526	59	127
293.4414058956916	293.77809523809526	68	127
293.4414058956916	293.77809523809526	62	127
293.77809523809526	294.11478458049885	62	127
293.77809523809526	294.11478458049885	59	127
293.77809523809526	294.11478458049885	68	127
294.11478458049885	294.3005215419501	73	127
294.11478458049885	294.3005215419501	64	127
294.11478458049885	294.3005215419501	52	127
294.3005215419501	294.4863038548753	62	127
294.3005215419501	294.4863038548753	56	127
294.3005215419501	294.4863038548753	71	127
294.4863038548753	294.64884353741496	56	127
294.4863038548753	294.64884353741496	71	127
294.4863038548753	294.64884353741496	62	127
294.64884353741496	294.83460317460316	61	127
294.64884353741496	294.83460317460316	69	127
294.64884353741496	294.83460317460316	57	127
294.83460317460316	295.136462585034	52	127
294.83460317460316	295.4847619047619	61	127
294.83460317460316	295.4847619047619	69	127
295.136462585034	295.4847619047619	57	127
295.4847619047619	295.65891156462584	73	127
295.4847619047619	295.65891156462584	64	127
295.4847619047619	295.65891156462584	52	127
295.65891156462584	295.8330385487528	62	127
295.65891156462584	295.8330385487528	71	127
295.65891156462584	295.8330385487528	56	127
295.8330385487528	296.018820861678	71	127
295.8330385487528	296.018820861678	62	127
295.8330385487528	296.018820861678	56	127
296.018820861678	296.19297052154195	69	127
296.018820861678	296.19297052154195	57	127
296.018820861678	296.19297052154195	61	127
296.19297052154195	296.5180498866213	52	127
296.19297052154195	296.854716553288	61	127
296.19297052154195	296.854716553288	69	127
296.5180498866213	296.854716553288	57	127
299.2580045351474	299.90816326530614	29	127
299.2580045351474	299.37410430839003	86	127
299.37410430839003	299.49020408163267	84	127
299.49020408163267	299.6178911564626	80	127
299.6178911564626	299.68757369614514	82	127
299.6178911564626	299.90816326530614	60	127
299.6178911564626	299.90816326530614	57	127
299.68757369614514	299.8036734693878	81	127
299.8036734693878	299.90816326530614	76	127
299.90816326530614	300.26807256235827	60	127
299.90816326530614	300.26807256235827	65	127
299.90816326530614	300.03585034013605	79	127
300.03585034013605	300.15197278911563	77	127
300.15197278911563	300.26807256235827	71	127
300.26807256235827	300.6395691609977	69	127
300.26807256235827	300.3841723356009	74	127
300.26807256235827	300.6395691609977	65	127
300.3841723356009	300.5118820861678	72	127
300.5118820861678	300.6395691609977	77	127
300.6395691609977	302.021179138322	76	127
300.6395691609977	301.6728798185941	70	127
300.6395691609977	301.6728798185941	61	127
300.9762811791383	301.31297052154196	29	127
301.31297052154196	301.6728798185941	34	127
301.6728798185941	302.021179138322	73	127
301.6728798185941	302.021179138322	43	127
301.6728798185941	302.021179138322	58	127
302.021179138322	302.1953287981859	57	127
302.021179138322	302.13727891156464	86	127
302.021179138322	302.6597278911565	41	127
302.021179138322	302.1953287981859	72	127
302.13727891156464	302.23015873015873	84	127
302.23015873015873	302.35786848072564	80	127
302.35786848072564	302.6597278911565	57	127
302.35786848072564	302.45074829931974	82	127
302.35786848072564	302.6597278911565	60	127
302.45074829931974	302.5552380952381	81	127
302.5552380952381	302.6597278911565	76	127
302.6597278911565	303.0196371882086	65	127
302.6597278911565	303.0196371882086	60	127
302.6597278911565	302.7874149659864	79	127
302.7874149659864	302.89190476190475	77	127
302.89190476190475	303.0196371882086	71	127
303.0196371882086	303.39115646258506	65	127
303.0196371882086	303.124126984127	74	127
303.0196371882086	303.39115646258506	69	127
303.124126984127	303.26344671201815	72	127
303.26344671201815	303.39115646258506	77	127
303.39115646258506	304.3663945578231	70	127
303.39115646258506	304.3663945578231	61	127
303.39115646258506	304.7495238095238	76	127
303.66979591836736	304.01807256235827	29	127
304.01807256235827	304.3663945578231	34	127
304.3663945578231	304.7495238095238	73	127
304.3663945578231	304.7495238095238	58	127
304.3663945578231	304.7495238095238	43	127
304.7495238095238	304.9120634920635	77	127
304.7495238095238	304.9120634920635	41	127
304.7495238095238	304.9120634920635	57	127
304.7495238095238	304.9120634920635	72	127
305.109433106576	305.4693424036281	72	127
305.109433106576	305.4693424036281	57	127
305.4693424036281	305.7247619047619	77	127
305.4693424036281	305.7247619047619	60	127
305.7247619047619	306.06142857142856	81	127
305.7247619047619	306.06142857142856	65	127
306.06142857142856	307.4662585034014	69	127
306.06142857142856	307.4662585034014	84	127
306.4097505668934	306.7812471655329	33	127
306.4097505668934	306.7812471655329	48	127
306.7812471655329	307.141179138322	53	127
306.7812471655329	307.141179138322	36	127
307.141179138322	307.4662585034014	41	127
307.141179138322	307.4662585034014	57	127
307.4662585034014	307.62879818594104	64	127
307.4662585034014	307.62879818594104	61	127
307.4662585034014	307.62879818594104	85	127
307.4662585034014	308.1512471655329	40	127
307.4662585034014	308.1512471655329	57	127
307.802925170068	308.1512471655329	76	127
307.802925170068	308.1512471655329	61	127
308.1512471655329	308.464716553288	64	127
308.1512471655329	308.464716553288	81	127
308.464716553288	308.8362358276644	69	127
308.464716553288	308.8362358276644	85	127
308.8362358276644	309.8230839002268	68	127
308.8362358276644	309.8230839002268	86	127
309.2193650793651	309.5328117913832	44	127
309.2193650793651	309.5328117913832	59	127
309.5328117913832	309.8230839002268	47	127
309.5328117913832	309.8230839002268	62	127
309.8230839002268	310.20621315192744	56	127
309.8230839002268	310.20621315192744	74	127
309.8230839002268	310.20621315192744	71	127
309.8230839002268	310.20621315192744	40	127
310.20621315192744	310.3223129251701	73	127
310.20621315192744	310.3223129251701	33	127
310.20621315192744	310.3223129251701	57	127
310.20621315192744	310.5660997732426	69	127
310.3223129251701	310.4384126984127	74	127
310.3223129251701	310.4384126984127	52	127
310.3223129251701	310.4384126984127	45	127
310.3223129251701	310.4384126984127	33	127
310.4384126984127	310.5660997732426	52	127
310.4384126984127	310.5660997732426	75	127
310.4384126984127	310.5660997732426	45	127
310.4384126984127	310.5660997732426	33	127
310.5660997732426	310.6938321995465	33	127
310.5660997732426	310.9492517006803	64	127
310.5660997732426	310.6938321995465	45	127
310.5660997732426	310.6938321995465	76	127
310.5660997732426	310.6938321995465	52	127
310.6938321995465	310.8215419501134	45	127
310.6938321995465	310.8215419501134	75	127
310.6938321995465	310.8215419501134	52	127
310.6938321995465	310.8215419501134	33	127
310.8215419501134	310.9492517006803	52	127
310.8215419501134	310.9492517006803	76	127
310.8215419501134	310.9492517006803	45	127
310.8215419501134	310.9492517006803	33	127
310.9492517006803	311.3091609977324	69	127
310.9492517006803	311.0885714285714	45	127
310.9492517006803	311.0885714285714	52	127
310.9492517006803	311.0885714285714	85	127
310.9492517006803	311.0885714285714	33	127
311.0885714285714	311.20467120181405	52	127
311.0885714285714	311.20467120181405	45	127
311.0885714285714	311.20467120181405	33	127
311.0885714285714	311.20467120181405	83	127
311.20467120181405	311.3091609977324	80	127
311.20467120181405	311.3091609977324	45	127
311.20467120181405	311.3091609977324	33	127
311.20467120181405	311.3091609977324	52	127
311.3091609977324	311.4368707482993	45	127
311.3091609977324	311.4368707482993	52	127
311.3091609977324	311.6690702947846	73	127
311.3091609977324	311.4368707482993	83	127
311.3091609977324	311.4368707482993	33	127
311.4368707482993	311.56458049886623	81	127
311.4368707482993	311.56458049886623	52	127
311.4368707482993	311.56458049886623	45	127
311.4368707482993	311.56458049886623	33	127
311.56458049886623	311.6690702947846	52	127
311.56458049886623	311.6690702947846	76	127
311.56458049886623	311.6690702947846	33	127
311.56458049886623	311.6690702947846	45	127
311.6690702947846	311.773560090703	33	127
311.6690702947846	311.773560090703	61	127
311.6690702947846	311.773560090703	52	127
311.6690702947846	311.773560090703	45	127
311.773560090703	311.8896371882086	62	127
311.773560090703	311.8896371882086	45	127
311.773560090703	311.8896371882086	33	127
311.773560090703	311.8896371882086	52	127
311.8896371882086	312.0057596371882	45	127
311.8896371882086	312.0057596371882	63	127
311.8896371882086	312.0057596371882	52	127
311.8896371882086	312.0057596371882	33	127
312.0057596371882	312.12185941043083	45	127
312.0057596371882	312.4004761904762	76	127
312.0057596371882	312.12185941043083	52	127
312.0057596371882	312.12185941043083	64	127
312.0057596371882	312.12185941043083	33	127
312.12185941043083	312.2727891156463	45	127
312.12185941043083	312.2727891156463	52	127
312.12185941043083	312.2727891156463	33	127
312.12185941043083	312.2727891156463	63	127
312.2727891156463	312.4004761904762	33	127
312.2727891156463	312.4004761904762	64	127
312.2727891156463	312.4004761904762	52	127
312.2727891156463	312.4004761904762	45	127
312.4004761904762	312.74879818594104	81	127
312.4004761904762	312.5514285714286	45	127
312.4004761904762	312.5514285714286	73	127
312.4004761904762	312.5514285714286	33	127
312.4004761904762	312.5514285714286	52	127
312.5514285714286	312.65591836734694	71	127
312.5514285714286	312.65591836734694	45	127
312.5514285714286	312.65591836734694	52	127
312.5514285714286	312.65591836734694	33	127
312.65591836734694	312.74879818594104	45	127
312.65591836734694	312.74879818594104	69	127
312.65591836734694	312.74879818594104	33	127
312.65591836734694	312.74879818594104	52	127
312.74879818594104	312.8881179138322	33	127
312.74879818594104	312.8881179138322	71	127
312.74879818594104	313.09709750566896	85	127
312.74879818594104	312.8881179138322	45	127
312.74879818594104	312.8881179138322	52	127
312.8881179138322	313.00421768707486	52	127
312.8881179138322	313.00421768707486	69	127
312.8881179138322	313.00421768707486	33	127
312.8881179138322	313.00421768707486	45	127
313.00421768707486	313.09709750566896	64	127
313.00421768707486	313.09709750566896	52	127
313.00421768707486	313.09709750566896	33	127
313.00421768707486	313.09709750566896	45	127
313.09709750566896	313.18997732426305	42	127
313.09709750566896	313.18997732426305	30	127
313.09709750566896	313.18997732426305	49	127
313.09709750566896	313.18997732426305	69	127
313.18997732426305	313.31766439909296	30	127
313.18997732426305	313.31766439909296	49	127
313.18997732426305	313.31766439909296	42	127
313.18997732426305	313.31766439909296	71	127
313.31766439909296	313.43378684807254	30	127
313.31766439909296	313.43378684807254	49	127
313.31766439909296	313.43378684807254	72	127
313.31766439909296	313.43378684807254	42	127
313.43378684807254	313.5382766439909	49	127
313.43378684807254	313.5382766439909	73	127
313.43378684807254	313.5382766439909	42	127
313.43378684807254	313.78208616780046	61	127
313.43378684807254	313.5382766439909	30	127
313.5382766439909	313.6659863945578	72	127
313.5382766439909	313.6659863945578	30	127
313.5382766439909	313.6659863945578	42	127
313.5382766439909	313.6659863945578	49	127
313.6659863945578	313.78208616780046	30	127
313.6659863945578	313.78208616780046	42	127
313.6659863945578	313.78208616780046	49	127
313.6659863945578	313.78208616780046	73	127
313.78208616780046	313.90979591836737	42	127
313.78208616780046	314.1303854875284	66	127
313.78208616780046	313.90979591836737	30	127
313.78208616780046	313.90979591836737	49	127
313.78208616780046	313.90979591836737	81	127
313.90979591836737	314.00267573696146	42	127
313.90979591836737	314.00267573696146	49	127
313.90979591836737	314.00267573696146	30	127
313.90979591836737	314.00267573696146	80	127
314.00267573696146	314.1303854875284	42	127
314.00267573696146	314.1303854875284	49	127
314.00267573696146	314.1303854875284	30	127
314.00267573696146	314.1303854875284	77	127
314.1303854875284	314.2580952380952	30	127
314.1303854875284	314.4902947845805	69	127
314.1303854875284	314.2580952380952	80	127
314.1303854875284	314.2580952380952	49	127
314.1303854875284	314.2580952380952	42	127
314.2580952380952	314.37419501133786	78	127
314.2580952380952	314.37419501133786	30	127
314.2580952380952	314.37419501133786	49	127
314.2580952380952	314.37419501133786	42	127
314.37419501133786	314.4902947845805	30	127
314.37419501133786	314.4902947845805	73	127
314.37419501133786	314.4902947845805	49	127
314.37419501133786	314.4902947845805	42	127
314.4902947845805	314.59478458049887	57	127
314.4902947845805	314.59478458049887	30	127
314.4902947845805	314.59478458049887	42	127
314.4902947845805	314.59478458049887	49	127
314.59478458049887	314.7224943310658	42	127
314.59478458049887	314.7224943310658	59	127
314.59478458049887	314.7224943310658	49	127
314.59478458049887	314.7224943310658	30	127
314.7224943310658	314.8385941043084	30	127
314.7224943310658	314.8385941043084	49	127
314.7224943310658	314.8385941043084	60	127
314.7224943310658	314.8385941043084	42	127
314.8385941043084	314.9314739229025	30	127
314.8385941043084	315.1172335600907	73	127
314.8385941043084	314.9314739229025	61	127
314.8385941043084	314.9314739229025	49	127
314.8385941043084	314.9314739229025	42	127
314.9314739229025	315.0591609977324	42	127
314.9314739229025	315.0591609977324	49	127
314.9314739229025	315.0591609977324	60	127
314.9314739229025	315.0591609977324	30	127
315.0591609977324	315.1172335600907	49	127
315.0591609977324	315.1172335600907	42	127
315.0591609977324	315.1172335600907	30	127
315.0591609977324	315.1172335600907	61	127
315.1172335600907	315.45392290249436	78	127
315.1172335600907	315.23333333333335	69	127
315.1172335600907	315.23333333333335	49	127
315.1172335600907	315.23333333333335	42	127
315.1172335600907	315.23333333333335	30	127
315.23333333333335	315.3378231292517	68	127
315.23333333333335	315.3378231292517	42	127
315.23333333333335	315.3378231292517	30	127
315.23333333333335	315.3378231292517	49	127
315.3378231292517	315.45392290249436	42	127
315.3378231292517	315.45392290249436	65	127
315.3378231292517	315.45392290249436	30	127
315.3378231292517	315.45392290249436	49	127
315.45392290249436	315.5816326530612	30	127
315.45392290249436	315.5816326530612	68	127
315.45392290249436	315.5816326530612	49	127
315.45392290249436	315.5816326530612	42	127
315.45392290249436	315.837052154195	81	127
315.5816326530612	315.7209523809524	42	127
315.5816326530612	315.7209523809524	30	127
315.5816326530612	315.7209523809524	49	127
315.5816326530612	315.7209523809524	66	127
315.7209523809524	315.837052154195	61	127
315.7209523809524	315.837052154195	42	127
315.7209523809524	315.837052154195	49	127
315.7209523809524	315.837052154195	30	127
315.837052154195	315.9415419501134	66	127
315.837052154195	315.9415419501134	35	127
315.837052154195	315.9879818594104	62	127
315.837052154195	315.9415419501134	47	127
315.9415419501134	316.057641723356	47	127
315.9415419501134	316.057641723356	68	127
315.9415419501134	316.057641723356	35	127
316.057641723356	316.17374149659867	35	127
316.057641723356	316.17374149659867	69	127
316.057641723356	316.17374149659867	47	127
316.17374149659867	316.2898185941043	37	127
316.17374149659867	316.2898185941043	70	127
316.17374149659867	316.2898185941043	49	127
316.17374149659867	316.54526077097506	66	127
316.2898185941043	316.41755102040815	49	127
316.2898185941043	316.41755102040815	71	127
316.2898185941043	316.41755102040815	37	127
316.41755102040815	316.54526077097506	38	127
316.41755102040815	316.54526077097506	73	127
316.41755102040815	316.54526077097506	50	127
316.54526077097506	316.6961678004535	52	127
316.54526077097506	316.6149206349206	68	127
316.54526077097506	316.6961678004535	40	127
316.54526077097506	316.6961678004535	74	127
316.6149206349206	316.6961678004535	69	127
316.6961678004535	316.74263038548753	68	127
316.6961678004535	316.7890702947846	52	127
316.6961678004535	316.7890702947846	75	127
316.6961678004535	316.7890702947846	40	127
316.74263038548753	316.7890702947846	69	127
316.7890702947846	316.90514739229025	52	127
316.7890702947846	316.90514739229025	40	127
316.7890702947846	316.85873015873017	68	127
316.7890702947846	316.90514739229025	76	127
316.85873015873017	316.90514739229025	69	127
316.90514739229025	317.0212698412698	40	127
316.90514739229025	317.0212698412698	80	127
316.90514739229025	317.0212698412698	52	127
316.90514739229025	316.95160997732427	68	127
316.95160997732427	317.0212698412698	69	127
317.0212698412698	317.1141496598639	40	127
317.0212698412698	317.1141496598639	52	127
317.0212698412698	317.05609977324264	68	127
317.0212698412698	317.1141496598639	78	127
317.05609977324264	317.1141496598639	69	127
317.1141496598639	317.23024943310656	76	127
317.1141496598639	317.23024943310656	52	127
317.1141496598639	317.1721995464853	66	127
317.1141496598639	317.23024943310656	40	127
317.1721995464853	317.23024943310656	68	127
317.23024943310656	317.3463492063492	45	127
317.23024943310656	317.3463492063492	81	127
317.23024943310656	317.3463492063492	61	127
317.23024943310656	317.3463492063492	69	127
317.3463492063492	317.4740589569161	45	127
317.3463492063492	317.4740589569161	61	127
317.3463492063492	317.4740589569161	83	127
317.3463492063492	317.4740589569161	69	127
317.4740589569161	317.59015873015875	69	127
317.4740589569161	317.59015873015875	61	127
317.4740589569161	317.5321088435374	81	127
317.4740589569161	317.59015873015875	45	127
317.59015873015875	317.71784580498866	40	127
317.59015873015875	317.71784580498866	71	127
317.59015873015875	317.71784580498866	62	127
317.59015873015875	317.71784580498866	80	127
317.71784580498866	317.8455782312925	81	127
317.71784580498866	317.8455782312925	40	127
317.71784580498866	317.8455782312925	71	127
317.71784580498866	317.8455782312925	62	127
317.8455782312925	317.9732879818594	62	127
317.8455782312925	317.9732879818594	40	127
317.8455782312925	317.90362811791385	80	127
317.8455782312925	317.9732879818594	71	127
317.9732879818594	318.08938775510205	61	127
317.9732879818594	318.3331746031746	81	127
317.9732879818594	318.3331746031746	69	127
317.9732879818594	318.08938775510205	33	127
318.08938775510205	318.21709750566896	33	127
318.08938775510205	318.21709750566896	45	127
318.08938775510205	318.21709750566896	52	127
318.21709750566896	318.3331746031746	45	127
318.21709750566896	318.3331746031746	52	127
318.21709750566896	318.3331746031746	33	127
318.3331746031746	318.4492970521542	33	127
318.3331746031746	318.4492970521542	52	127
318.3331746031746	318.4492970521542	45	127
318.4492970521542	318.5653968253968	45	127
318.4492970521542	318.5653968253968	52	127
318.4492970521542	318.5653968253968	33	127
318.5653968253968	318.704716553288	33	127
318.5653968253968	318.704716553288	45	127
318.5653968253968	318.704716553288	52	127
318.704716553288	318.82081632653063	52	127
318.704716553288	318.82081632653063	73	127
318.704716553288	318.82081632653063	45	127
318.704716553288	318.82081632653063	33	127
318.82081632653063	318.925306122449	45	127
318.82081632653063	318.925306122449	52	127
318.82081632653063	318.925306122449	74	127
318.82081632653063	318.925306122449	33	127
318.925306122449	319.02979591836737	75	127
318.925306122449	319.02979591836737	33	127
318.925306122449	319.02979591836737	52	127
318.925306122449	319.02979591836737	45	127
319.02979591836737	319.18072562358276	45	127
319.02979591836737	319.18072562358276	33	127
319.02979591836737	319.18072562358276	76	127
319.02979591836737	319.40131519274377	64	127
319.02979591836737	319.18072562358276	52	127
319.18072562358276	319.2968253968254	45	127
319.18072562358276	319.2968253968254	52	127
319.18072562358276	319.2968253968254	75	127
319.18072562358276	319.2968253968254	33	127
319.2968253968254	319.40131519274377	76	127
319.2968253968254	319.40131519274377	45	127
319.2968253968254	319.40131519274377	52	127
319.2968253968254	319.40131519274377	33	127
319.40131519274377	319.5174149659864	45	127
319.40131519274377	319.5174149659864	52	127
319.40131519274377	319.5174149659864	33	127
319.40131519274377	319.5174149659864	85	127
319.40131519274377	319.77283446712016	69	127
319.5174149659864	319.6451247165533	33	127
319.5174149659864	319.6451247165533	83	127
319.5174149659864	319.6451247165533	45	127
319.5174149659864	319.6451247165533	52	127
319.6451247165533	319.77283446712016	45	127
319.6451247165533	319.77283446712016	52	127
319.6451247165533	319.77283446712016	33	127
319.6451247165533	319.77283446712016	81	127
319.77283446712016	320.13274376417235	73	127
319.77283446712016	319.91215419501134	52	127
319.77283446712016	319.91215419501134	83	127
319.77283446712016	319.91215419501134	33	127
319.77283446712016	319.91215419501134	45	127
319.91215419501134	320.028253968254	81	127
319.91215419501134	320.028253968254	52	127
319.91215419501134	320.028253968254	33	127
319.91215419501134	320.028253968254	45	127
320.028253968254	320.13274376417235	52	127
320.028253968254	320.13274376417235	45	127
320.028253968254	320.13274376417235	33	127
320.028253968254	320.13274376417235	76	127
320.13274376417235	320.2140136054422	33	127
320.13274376417235	320.2140136054422	45	127
320.13274376417235	320.2140136054422	61	127
320.13274376417235	320.2140136054422	52	127
320.2140136054422	320.3068934240363	52	127
320.2140136054422	320.3068934240363	62	127
320.2140136054422	320.3068934240363	45	127
320.2140136054422	320.3068934240363	33	127
320.3068934240363	320.4229931972789	63	127
320.3068934240363	320.4229931972789	45	127
320.3068934240363	320.4229931972789	33	127
320.3068934240363	320.4229931972789	52	127
320.4229931972789	320.53909297052155	45	127
320.4229931972789	320.53909297052155	33	127
320.4229931972789	320.8061224489796	76	127
320.4229931972789	320.53909297052155	52	127
320.4229931972789	320.53909297052155	64	127
320.53909297052155	320.69002267573694	52	127
320.53909297052155	320.69002267573694	63	127
320.53909297052155	320.69002267573694	33	127
320.53909297052155	320.69002267573694	45	127
320.69002267573694	320.8061224489796	33	127
320.69002267573694	320.8061224489796	52	127
320.69002267573694	320.8061224489796	64	127
320.69002267573694	320.8061224489796	45	127
320.8061224489796	320.9222222222222	33	127
320.8061224489796	320.9222222222222	45	127
320.8061224489796	321.1544217687075	81	127
320.8061224489796	320.9222222222222	52	127
320.8061224489796	320.9222222222222	73	127
320.9222222222222	321.0499319727891	52	127
320.9222222222222	321.0499319727891	45	127
320.9222222222222	321.0499319727891	71	127
320.9222222222222	321.0499319727891	33	127
321.0499319727891	321.1544217687075	69	127
321.0499319727891	321.1544217687075	52	127
321.0499319727891	321.1544217687075	33	127
321.0499319727891	321.1544217687075	45	127
321.1544217687075	321.2473015873016	33	127
321.1544217687075	321.49111111111114	85	127
321.1544217687075	321.2473015873016	45	127
321.1544217687075	321.2473015873016	71	127
321.1544217687075	321.2473015873016	52	127
321.2473015873016	321.36340136054423	33	127
321.2473015873016	321.36340136054423	52	127
321.2473015873016	321.36340136054423	69	127
321.2473015873016	321.36340136054423	45	127
321.36340136054423	321.49111111111114	45	127
321.36340136054423	321.49111111111114	64	127
321.36340136054423	321.49111111111114	52	127
321.36340136054423	321.49111111111114	33	127
321.49111111111114	321.618820861678	49	127
321.49111111111114	321.618820861678	42	127
321.49111111111114	321.618820861678	30	127
321.49111111111114	321.618820861678	69	127
321.618820861678	321.7349206349206	42	127
321.618820861678	321.7349206349206	30	127
321.618820861678	321.7349206349206	49	127
321.618820861678	321.7349206349206	70	127
321.7349206349206	321.839410430839	42	127
321.7349206349206	321.839410430839	49	127
321.7349206349206	321.839410430839	71	127
321.7349206349206	321.839410430839	30	127
321.839410430839	322.22253968253966	61	127
321.839410430839	321.9671201814059	30	127
321.839410430839	321.9671201814059	42	127
321.839410430839	321.9671201814059	49	127
321.839410430839	321.9671201814059	73	127
321.9671201814059	322.0948299319728	49	127
321.9671201814059	322.0948299319728	42	127
321.9671201814059	322.0948299319728	72	127
321.9671201814059	322.0948299319728	30	127
322.0948299319728	322.22253968253966	49	127
322.0948299319728	322.22253968253966	42	127
322.0948299319728	322.22253968253966	73	127
322.0948299319728	322.22253968253966	30	127
322.22253968253966	322.3386394557823	49	127
322.22253968253966	322.3386394557823	81	127
322.22253968253966	322.6056689342404	66	127
322.22253968253966	322.3386394557823	42	127
322.22253968253966	322.3386394557823	30	127
322.3386394557823	322.4779591836735	49	127
322.3386394557823	322.4779591836735	30	127
322.3386394557823	322.4779591836735	42	127
322.3386394557823	322.4779591836735	80	127
322.4779591836735	322.6056689342404	77	127
322.4779591836735	322.6056689342404	49	127
322.4779591836735	322.6056689342404	42	127
322.4779591836735	322.6056689342404	30	127
322.6056689342404	322.721746031746	49	127
322.6056689342404	322.95396825396824	69	127
322.6056689342404	322.721746031746	80	127
322.6056689342404	322.721746031746	30	127
322.6056689342404	322.721746031746	42	127
322.721746031746	322.8378684807256	42	127
322.721746031746	322.8378684807256	30	127
322.721746031746	322.8378684807256	78	127
322.721746031746	322.8378684807256	49	127
322.8378684807256	322.95396825396824	42	127
322.8378684807256	322.95396825396824	73	127
322.8378684807256	322.95396825396824	49	127
322.8378684807256	322.95396825396824	30	127
322.95396825396824	323.08167800453515	57	127
322.95396825396824	323.08167800453515	49	127
322.95396825396824	323.08167800453515	42	127
322.95396825396824	323.08167800453515	30	127
323.08167800453515	323.20938775510206	42	127
323.08167800453515	323.20938775510206	30	127
323.08167800453515	323.20938775510206	59	127
323.08167800453515	323.20938775510206	49	127
323.20938775510206	323.2906575963719	49	127
323.20938775510206	323.2906575963719	60	127
323.20938775510206	323.2906575963719	42	127
323.20938775510206	323.2906575963719	30	127
323.2906575963719	323.4183673469388	49	127
323.2906575963719	323.61573696145126	73	127
323.2906575963719	323.4183673469388	30	127
323.2906575963719	323.4183673469388	61	127
323.2906575963719	323.4183673469388	42	127
323.4183673469388	323.53446712018143	60	127
323.4183673469388	323.53446712018143	49	127
323.4183673469388	323.53446712018143	42	127
323.4183673469388	323.53446712018143	30	127
323.53446712018143	323.61573696145126	30	127
323.53446712018143	323.61573696145126	42	127
323.53446712018143	323.61573696145126	61	127
323.53446712018143	323.61573696145126	49	127
323.61573696145126	323.70861678004536	30	127
323.61573696145126	323.70861678004536	42	127
323.61573696145126	323.70861678004536	69	127
323.61573696145126	323.9175963718821	78	127
323.61573696145126	323.70861678004536	49	127
323.70861678004536	323.80149659863946	42	127
323.70861678004536	323.80149659863946	49	127
323.70861678004536	323.80149659863946	30	127
323.70861678004536	323.80149659863946	68	127
323.80149659863946	323.9175963718821	65	127
323.80149659863946	323.9175963718821	49	127
323.80149659863946	323.9175963718821	30	127
323.80149659863946	323.9175963718821	42	127
323.9175963718821	324.03369614512474	68	127
323.9175963718821	324.03369614512474	30	127
323.9175963718821	324.03369614512474	42	127
323.9175963718821	324.03369614512474	49	127
323.9175963718821	324.2891156462585	81	127
324.03369614512474	324.16138321995464	42	127
324.03369614512474	324.16138321995464	49	127
324.03369614512474	324.16138321995464	30	127
324.03369614512474	324.16138321995464	66	127
324.16138321995464	324.2891156462585	30	127
324.16138321995464	324.2891156462585	61	127
324.16138321995464	324.2891156462585	42	127
324.16138321995464	324.2891156462585	49	127
324.2891156462585	324.4284353741497	66	127
324.2891156462585	324.48648526077096	62	127
324.2891156462585	324.4284353741497	35	127
324.2891156462585	324.4284353741497	47	127
324.4284353741497	324.53292517006804	47	127
324.4284353741497	324.53292517006804	35	127
324.4284353741497	324.53292517006804	68	127
324.53292517006804	324.6490249433107	47	127
324.53292517006804	324.6490249433107	69	127
324.53292517006804	324.6490249433107	35	127
324.6490249433107	324.7883446712018	37	127
324.6490249433107	324.7883446712018	49	127
324.6490249433107	324.7883446712018	70	127
324.6490249433107	325.0089342403628	66	127
324.7883446712018	324.90444444444444	71	127
324.7883446712018	324.90444444444444	49	127
324.7883446712018	324.90444444444444	37	127
324.90444444444444	325.0089342403628	73	127
324.90444444444444	325.0089342403628	50	127
324.90444444444444	325.0089342403628	38	127
325.0089342403628	325.1366439909297	74	127
325.0089342403628	325.1366439909297	40	127
325.0089342403628	325.1366439909297	52	127
325.0089342403628	325.0785714285714	68	127
325.0785714285714	325.1366439909297	69	127
325.1366439909297	325.25274376417235	40	127
325.1366439909297	325.25274376417235	52	127
325.1366439909297	325.2063038548753	68	127
325.1366439909297	325.25274376417235	75	127
325.2063038548753	325.25274376417235	69	127
325.25274376417235	325.3340136054422	76	127
325.25274376417235	325.28755102040816	68	127
325.25274376417235	325.3340136054422	52	127
325.25274376417235	325.3340136054422	40	127
325.28755102040816	325.3340136054422	69	127
325.3340136054422	325.4501133786848	40	127
325.3340136054422	325.39206349206347	68	127
325.3340136054422	325.4501133786848	80	127
325.3340136054422	325.4501133786848	52	127
325.39206349206347	325.4501133786848	69	127
325.4501133786848	325.5778231292517	52	127
325.4501133786848	325.5778231292517	78	127
325.4501133786848	325.5197732426304	68	127
325.4501133786848	325.5778231292517	40	127
325.5197732426304	325.5778231292517	69	127
325.5778231292517	325.69390022675736	76	127
325.5778231292517	325.69390022675736	52	127
325.5778231292517	325.69390022675736	40	127
325.5778231292517	325.635873015873	66	127
325.635873015873	325.69390022675736	68	127
325.69390022675736	325.8216326530612	81	127
325.69390022675736	325.8216326530612	61	127
325.69390022675736	325.8216326530612	69	127
325.69390022675736	325.8216326530612	45	127
325.8216326530612	325.93773242630385	83	127
325.8216326530612	325.93773242630385	69	127
325.8216326530612	325.93773242630385	61	127
325.8216326530612	325.93773242630385	45	127
325.93773242630385	326.06544217687076	45	127
325.93773242630385	326.0073922902494	81	127
325.93773242630385	326.06544217687076	69	127
325.93773242630385	326.06544217687076	61	127
326.06544217687076	326.16993197278913	62	127
326.06544217687076	326.16993197278913	80	127
326.06544217687076	326.16993197278913	40	127
326.06544217687076	326.16993197278913	71	127
326.16993197278913	326.29764172335604	71	127
326.16993197278913	326.29764172335604	81	127
326.16993197278913	326.29764172335604	40	127
326.16993197278913	326.29764172335604	62	127
326.29764172335604	326.4137188208617	71	127
326.29764172335604	326.4137188208617	40	127
326.29764172335604	326.3556916099773	80	127
326.29764172335604	326.4137188208617	62	127
326.4137188208617	326.85492063492063	57	127
326.4137188208617	326.48340136054424	81	127
326.4137188208617	326.85492063492063	33	127
326.4137188208617	326.85492063492063	69	127
326.5414512471655	326.62272108843536	64	127
326.6807709750567	326.738820861678	64	127
326.85492063492063	326.94780045351473	64	127
327.0058503401361	327.07551020408164	64	127
327.1219274376417	327.1916099773243	64	127
327.24965986394557	327.4121995464853	64	127
327.4121995464853	327.5282766439909	66	127
327.5282766439909	327.5863492063492	64	127
327.6443990929705	327.76049886621314	64	127
327.76049886621314	327.88820861678005	66	127
327.88820861678005	327.9346258503401	64	127
327.9926984126984	328.0971882086168	64	127
328.0971882086168	328.2132879818594	66	127
328.2132879818594	328.2713378684807	64	127
328.3525850340136	328.4687074829932	64	127
328.4687074829932	328.57319727891155	66	127
328.57319727891155	328.6312471655329	64	127
328.6892970521542	328.84022675736963	64	127
328.84022675736963	328.944716553288	66	127
328.944716553288	329.01437641723356	64	127
329.0492063492064	329.14208616780047	64	127
329.14208616780047	329.2697732426304	66	127
329.2697732426304	329.32784580498867	64	127
329.38589569160996	329.51360544217687	64	127
329.51360544217687	329.6413151927438	66	127
329.6413151927438	329.69936507936507	64	127
329.7690249433107	329.8851020408163	64	127
329.8851020408163	330.0128344671202	66	127
330.0128344671202	330.0708843537415	64	127
330.1405442176871	330.268253968254	69	127
330.268253968254	330.3843537414966	71	127
330.3843537414966	330.4540136054422	69	127
330.5120634920635	330.6281632653061	69	127
330.6281632653061	330.77909297052156	71	127
330.77909297052156	330.83714285714285	69	127
330.8951927437642	331.02290249433105	66	127
331.02290249433105	331.1157596371882	68	127
331.1157596371882	331.1738321995465	66	127
331.2318820861678	331.3595918367347	66	127
331.3595918367347	331.4873015873016	68	127
331.4873015873016	331.5337414965986	66	127
331.60340136054424	331.7311111111111	64	127
331.7311111111111	331.858820861678	66	127
331.858820861678	331.9284580498866	64	127
331.9981405895692	332.13743764172335	64	127
332.13743764172335	332.2651700680272	66	127
332.2651700680272	332.3	64	127
332.34643990929703	332.4509297052154	64	127
332.4509297052154	332.55541950113377	66	127
332.55541950113377	332.5786394557823	64	127
332.63668934240366	332.78761904761905	64	127
332.78761904761905	332.91532879818595	66	127
332.91532879818595	332.95013605442176	64	127
333.0198185941043	333.3913378684807	57	127
333.13591836734696	333.26360544217687	61	127
333.26360544217687	333.3913378684807	59	127
333.3913378684807	333.4958276643991	57	127
333.4958276643991	333.5770975056689	56	127
333.5770975056689	333.69319727891155	54	127
333.69319727891155	333.844126984127	52	127
333.844126984127	333.96022675736964	54	127
333.96022675736964	334.01827664399093	52	127
334.0763038548753	334.2040362811791	52	127
334.2040362811791	334.33174603174604	54	127
334.33174603174604	334.4014058956916	52	127
334.4710657596372	335.1560544217687	49	127
334.4710657596372	334.58714285714285	52	127
334.4710657596372	335.1560544217687	57	127
334.4710657596372	335.1560544217687	33	127
334.58714285714285	334.7148752834467	54	127
334.7148752834467	334.77292517006805	52	127
334.8425850340136	334.947074829932	52	127
334.947074829932	335.0631746031746	54	127
335.0631746031746	335.0979818594104	52	127
335.1560544217687	335.49274376417236	56	127
335.1560544217687	335.49274376417236	50	127
335.1560544217687	335.49274376417236	35	127
335.1560544217687	335.27215419501135	52	127
335.27215419501135	335.39984126984126	54	127
335.39984126984126	335.4463038548753	52	127
335.49274376417236	335.6204535147392	52	127
335.6204535147392	335.7481632653061	54	127
335.7481632653061	335.81780045351474	52	127
335.8874829931973	336.00358276643993	52	127
335.8874829931973	336.6073015873016	62	127
335.8874829931973	336.6073015873016	47	127
335.8874829931973	336.6073015873016	32	127
336.00358276643993	336.11965986394557	54	127
336.11965986394557	336.18934240362813	52	127
336.2590022675737	336.36349206349206	52	127
336.36349206349206	336.50281179138324	54	127
336.50281179138324	336.5724716553288	52	127
336.6073015873016	336.932358276644	33	127
336.6073015873016	336.72340136054424	52	127
336.6073015873016	336.932358276644	49	127
336.6073015873016	336.932358276644	61	127
336.72340136054424	336.8394784580499	54	127
336.8394784580499	336.8859410430839	52	127
336.932358276644	337.06009070294783	52	127
337.06009070294783	337.17619047619047	54	127
337.17619047619047	337.2342403628118	52	127
337.3039002267574	337.90761904761905	66	127
337.3039002267574	338.75514739229027	48	127
337.3039002267574	338.0585260770975	26	127
337.3039002267574	337.4316099773243	57	127
337.4316099773243	337.5825396825397	59	127
337.5825396825397	337.640589569161	57	127
337.72185941043085	337.8379591836735	57	127
337.8379591836735	337.9656462585034	59	127
337.90761904761905	338.0585260770975	68	127
337.9656462585034	338.0121088435374	57	127
338.0585260770975	338.75514739229027	69	127
338.0585260770975	338.75514739229027	27	127
338.0585260770975	338.18625850340135	57	127
338.18625850340135	338.302358276644	59	127
338.302358276644	338.3719954648526	57	127
338.4300680272109	338.53455782312926	57	127
338.53455782312926	338.63904761904763	59	127
338.63904761904763	338.6970975056689	57	127
338.75514739229027	340.2412244897959	28	127
338.75514739229027	338.90607709750566	57	127
338.75514739229027	339.50979591836733	59	127
338.75514739229027	339.3356462585034	47	127
338.90607709750566	339.0221768707483	52	127
339.0221768707483	339.08020408163264	57	127
339.1498866213152	339.26598639455784	57	127
339.26598639455784	339.39367346938775	52	127
339.3356462585034	339.50979591836733	49	127
339.39367346938775	339.45174603174604	57	127
339.50979591836733	340.2412244897959	50	127
339.50979591836733	339.62589569160997	56	127
339.50979591836733	340.2412244897959	64	127
339.62589569160997	339.7419954648526	52	127
339.7419954648526	339.81165532879817	56	127
339.8697052154195	339.9974149659864	56	127
339.9974149659864	340.13673469387754	52	127
340.13673469387754	340.1947845804989	56	127
340.2412244897959	340.4153514739229	48	127
340.2412244897959	340.4153514739229	33	127
340.2412244897959	340.4153514739229	57	127
340.2412244897959	340.29927437641726	57	127
340.3457142857143	340.4153514739229	60	127
340.4153514739229	340.7520634920635	60	127
340.4153514739229	340.7520634920635	69	127
340.4153514739229	340.7520634920635	45	127
340.4153514739229	340.7520634920635	52	127
340.4153514739229	340.7520634920635	33	127
340.45020408163265	340.508253968254	64	127
340.5663038548753	340.61272108843536	69	127
340.6824036281179	340.7520634920635	72	127
340.7520634920635	341.3325396825397	60	127
340.7520634920635	341.3325396825397	69	127
340.7520634920635	341.3325396825397	52	127
340.7520634920635	341.3325396825397	33	127
340.7520634920635	341.3325396825397	45	127
340.79850340136056	340.85655328798185	76	127
340.9146031746032	341.3325396825397	81	127
341.7040816326531	341.88984126984127	47	127
341.7040816326531	341.77374149659863	55	127
341.7040816326531	341.88984126984127	74	127
341.7040816326531	341.88984126984127	65	127
341.7040816326531	341.88984126984127	35	127
341.7040816326531	341.88984126984127	55	127
341.83179138322	341.88984126984127	59	127
341.88984126984127	342.2265306122449	35	127
341.88984126984127	342.2265306122449	55	127
341.88984126984127	342.2265306122449	47	127
341.88984126984127	342.2265306122449	74	127
341.88984126984127	342.2265306122449	65	127
341.9478684807256	342.0059410430839	62	127
342.07560090702947	342.1336507936508	67	127
342.1917006802721	342.2265306122449	71	127
342.2265306122449	342.27297052154194	74	127
342.2265306122449	342.6909297052154	55	127
342.2265306122449	342.6909297052154	65	127
342.2265306122449	342.6909297052154	35	127
342.2265306122449	342.6909297052154	74	127
342.2265306122449	342.6909297052154	47	127
342.34263038548755	342.6909297052154	79	127
343.06244897959186	343.24820861678006	67	127
343.06244897959186	343.24820861678006	40	127
343.06244897959186	343.24820861678006	60	127
343.06244897959186	343.1321088435374	60	127
343.06244897959186	343.24820861678006	58	127
343.06244897959186	343.24820861678006	52	127
343.1901587301587	343.24820861678006	64	127
343.24820861678006	343.5965079365079	58	127
343.24820861678006	343.5965079365079	67	127
343.24820861678006	343.5965079365079	60	127
343.24820861678006	343.5965079365079	52	127
343.24820861678006	343.5965079365079	40	127
343.2946485260771	343.35269841269843	67	127
343.4107482993197	343.46879818594107	72	127
343.52684807256236	343.5965079365079	76	127
343.5965079365079	344.0028571428571	67	127
343.5965079365079	344.0028571428571	58	127
343.5965079365079	344.0028571428571	40	127
343.5965079365079	344.0028571428571	60	127
343.5965079365079	344.0028571428571	52	127
343.65455782312927	343.71260770975056	79	127
343.74743764172337	344.0028571428571	84	127
348.75133786848073	349.09961451247165	72	127
348.75133786848073	349.78462585034015	57	127
348.75133786848073	350.15614512471655	69	127
348.75133786848073	349.41308390022675	41	127
349.09961451247165	349.41308390022675	73	127
349.41308390022675	350.15614512471655	42	127
349.41308390022675	349.78462585034015	74	127
349.78462585034015	350.15614512471655	75	127
349.78462585034015	350.15614512471655	59	127
350.15614512471655	350.527664399093	69	127
350.15614512471655	350.7714739229025	76	127
350.15614512471655	351.51451247165534	40	127
350.15614512471655	350.81791383219957	61	127
350.527664399093	350.81791383219957	64	127
350.7714739229025	350.81791383219957	69	127
350.81791383219957	351.51451247165534	62	127
350.81791383219957	350.9920634920635	68	127
350.81791383219957	351.32875283446714	59	127
350.9920634920635	351.1778231292517	66	127
351.1778231292517	351.32875283446714	68	127
351.32875283446714	351.51451247165534	56	127
351.32875283446714	351.51451247165534	71	127
351.51451247165534	351.897641723356	57	127
351.51451247165534	351.8163718820862	33	127
351.51451247165534	351.897641723356	61	127
351.51451247165534	351.8163718820862	69	127
351.8163718820862	351.897641723356	57	127
351.8163718820862	351.897641723356	45	127
351.897641723356	352.26913832199546	45	127
351.897641723356	352.0253514739229	57	127
352.0253514739229	352.1530612244898	61	127
352.1530612244898	352.26913832199546	64	127
352.17625850340136	352.26913832199546	69	127
352.17625850340136	352.26913832199546	61	127
352.17625850340136	352.26913832199546	64	127
352.17625850340136	352.26913832199546	57	127
352.26913832199546	352.54780045351475	33	127
352.26913832199546	352.64068027210885	57	127
352.26913832199546	352.64068027210885	61	127
352.26913832199546	352.64068027210885	64	127
352.26913832199546	352.64068027210885	69	127
352.26913832199546	352.54780045351475	69	127
352.54780045351475	352.64068027210885	61	127
352.54780045351475	352.64068027210885	45	127
352.64068027210885	353.01219954648525	45	127
352.64068027210885	352.7567800453515	61	127
352.7567800453515	352.8844671201814	64	127
352.8844671201814	353.01219954648525	69	127
352.91931972789115	353.01219954648525	45	127
352.91931972789115	353.01219954648525	64	127
352.91931972789115	353.01219954648525	73	127
353.01219954648525	353.4069387755102	45	127
353.01219954648525	353.3140589569161	73	127
353.01219954648525	353.4069387755102	73	127
353.01219954648525	353.4069387755102	64	127
353.01219954648525	353.3140589569161	33	127
353.3140589569161	353.4069387755102	45	127
353.3140589569161	353.4069387755102	64	127
353.4069387755102	353.6971882086168	45	127
353.4069387755102	353.5346485260771	64	127
353.5346485260771	353.58108843537417	69	127
353.58108843537417	353.6971882086168	73	127
353.6042857142857	353.6971882086168	64	127
353.6042857142857	353.6971882086168	69	127
353.6042857142857	353.6971882086168	57	127
353.6042857142857	353.6971882086168	61	127
353.6971882086168	354.0222675736961	57	127
353.6971882086168	354.0222675736961	64	127
353.6971882086168	354.0222675736961	61	127
353.6971882086168	353.95260770975057	76	127
353.6971882086168	353.95260770975057	33	127
353.6971882086168	354.0222675736961	69	127
353.95260770975057	354.0222675736961	69	127
353.95260770975057	354.0222675736961	45	127
354.0222675736961	354.3821768707483	45	127
354.0222675736961	354.1267573696145	69	127
354.1267573696145	354.2544671201814	73	127
354.2544671201814	354.3821768707483	76	127
354.3009070294785	354.3821768707483	52	127
354.3009070294785	354.3821768707483	57	127
354.3009070294785	354.3821768707483	49	127
354.3009070294785	354.3821768707483	45	127
354.3821768707483	354.81174603174605	33	127
354.3821768707483	354.81174603174605	52	127
354.3821768707483	354.81174603174605	81	127
354.3821768707483	354.81174603174605	45	127
354.3821768707483	354.81174603174605	49	127
355.18326530612245	355.63605442176873	73	127
355.18326530612245	355.63605442176873	64	127
355.18326530612245	355.63605442176873	45	127
355.18326530612245	355.63605442176873	57	127
355.18326530612245	355.63605442176873	52	127
355.18326530612245	355.63605442176873	69	127
355.18326530612245	355.63605442176873	61	127
355.18326530612245	355.63605442176873	45	127
355.18326530612245	355.63605442176873	57	127
355.18326530612245	355.63605442176873	81	127
355.18326530612245	355.63605442176873	64	127
355.91469387755103	356.18172335600906	52	127
355.91469387755103	356.18172335600906	33	127
355.91469387755103	356.18172335600906	81	127
355.91469387755103	356.18172335600906	73	127
355.91469387755103	356.18172335600906	45	127
355.91469387755103	356.18172335600906	69	127
355.91469387755103	356.18172335600906	64	127
355.91469387755103	356.18172335600906	61	127
355.91469387755103	356.18172335600906	57	127
355.91469387755103	356.18172335600906	64	127
355.91469387755103	356.18172335600906	57	127
