# onset,offset,note,velocity
0.034058956916099774	0.6726077097505669	46	127
0.5332879818594104	0.7306575963718821	53	127
0.7306575963718821	0.9280272108843537	62	127
0.9280272108843537	1.1021768707482993	65	127
1.1021768707482993	1.3807936507936507	50	127
1.2763265306122449	1.4388662131519274	53	127
1.4388662131519274	1.60140589569161	62	127
1.60140589569161	1.7755555555555556	65	127
1.7755555555555556	1.926485260770975	48	127
1.7755555555555556	1.926485260770975	63	127
1.926485260770975	2.1006349206349206	65	127
2.1006349206349206	2.2863718820861676	62	127
2.1006349206349206	2.2863718820861676	46	127
2.2863718820861676	2.4837641723356008	65	127
2.4837641723356008	2.774013605442177	45	127
2.4837641723356008	2.6579138321995464	60	127
2.6579138321995464	2.832063492063492	65	127
2.832063492063492	2.9829931972789114	60	127
2.9829931972789114	3.145532879818594	53	127
3.157142857142857	3.342902494331066	46	127
3.157142857142857	3.342902494331066	62	127
3.342902494331066	3.505442176870748	65	127
3.505442176870748	3.679591836734694	60	127
3.505442176870748	3.667981859410431	45	127
3.679591836734694	3.8421315192743766	65	127
3.8421315192743766	4.004671201814059	58	127
3.8421315192743766	4.120748299319728	44	127
4.004671201814059	4.1788208616780045	70	127
4.1788208616780045	4.341360544217687	65	127
4.341360544217687	4.4806802721088435	58	127
4.492290249433107	4.643219954648526	70	127
4.492290249433107	4.643219954648526	43	127
4.643219954648526	4.805759637188209	69	127
4.805759637188209	4.979909297052155	67	127
4.805759637188209	4.968299319727891	39	127
4.979909297052155	5.107619047619048	72	127
5.107619047619048	5.455918367346939	41	127
5.107619047619048	5.339818594104308	69	127
5.339818594104308	5.513968253968254	65	127
5.513968253968254	5.676507936507937	64	127
5.676507936507937	5.839047619047619	63	127
5.839047619047619	6.140907029478458	46	127
5.839047619047619	6.0364172335600905	62	127
6.0364172335600905	6.198956916099773	53	127
6.198956916099773	6.349886621315193	62	127
6.349886621315193	6.512426303854875	65	127
6.524036281179138	6.802675736961452	50	127
6.686575963718821	6.849115646258503	53	127
6.849115646258503	7.023265306122449	62	127
7.023265306122449	7.185804988662132	65	127
7.185804988662132	7.37156462585034	63	127
7.185804988662132	7.359954648526077	48	127
7.37156462585034	7.557324263038549	65	127
7.557324263038549	7.719863945578231	62	127
7.557324263038549	7.719863945578231	46	127
7.719863945578231	7.894013605442177	65	127
7.894013605442177	8.184263038548753	45	127
7.894013605442177	8.068163265306122	60	127
8.068163265306122	8.230702947845804	65	127
8.230702947845804	8.404852607709751	53	127
8.404852607709751	8.567392290249433	60	127
8.567392290249433	8.718321995464853	58	127
8.567392290249433	8.718321995464853	46	127
8.718321995464853	8.892471655328798	70	127
8.892471655328798	9.066621315192744	60	127
8.892471655328798	9.066621315192744	46	127
9.066621315192744	9.240770975056689	70	127
9.240770975056689	9.50780045351474	46	127
9.240770975056689	9.403310657596371	63	127
9.403310657596371	9.577460317460318	70	127
9.577460317460318	9.763219954648527	62	127
9.763219954648527	9.937369614512471	70	127
9.937369614512471	10.099909297052154	61	127
9.937369614512471	10.216009070294785	43	127
10.099909297052154	10.285668934240363	64	127
10.285668934240363	10.471428571428572	70	127
10.471428571428572	10.622358276643991	61	127
10.622358276643991	10.796507936507936	62	127
10.622358276643991	10.900975056689342	46	127
10.796507936507936	10.959047619047618	65	127
10.959047619047618	11.12156462585034	70	127
11.12156462585034	11.27251700680272	62	127
11.284126984126985	11.585986394557823	43	127
11.284126984126985	11.469863945578231	61	127
11.469863945578231	11.632426303854876	64	127
11.632426303854876	11.829795918367347	70	127
11.829795918367347	12.003945578231292	61	127
12.003945578231292	12.166485260770974	62	127
12.003945578231292	12.270975056689343	46	127
12.166485260770974	12.329024943310658	65	127
12.329024943310658	12.49156462585034	70	127
12.49156462585034	12.630884353741497	62	127
12.642494331065759	12.828253968253968	57	127
12.642494331065759	12.828253968253968	53	127
12.828253968253968	12.99079365079365	65	127
12.99079365079365	13.153333333333334	51	127
12.99079365079365	13.164943310657597	60	127
13.164943310657597	13.327482993197279	57	127
13.327482993197279	13.478412698412699	58	127
13.327482993197279	13.478412698412699	50	127
13.478412698412699	13.652562358276644	65	127
13.652562358276644	13.815102040816326	62	127
13.652562358276644	13.815102040816326	46	127
13.815102040816326	13.977641723356008	58	127
13.977641723356008	14.151791383219955	53	127
13.977641723356008	14.163401360544217	57	127
14.163401360544217	14.3259410430839	65	127
14.3259410430839	14.511700680272108	51	127
14.3259410430839	14.511700680272108	60	127
14.511700680272108	14.662630385487528	57	127
14.662630385487528	14.801950113378684	50	127
14.662630385487528	14.801950113378684	58	127
14.801950113378684	14.97609977324263	65	127
14.97609977324263	15.16185941043084	46	127
14.97609977324263	15.16185941043084	62	127
15.16185941043084	15.336009070294784	58	127
15.336009070294784	15.51015873015873	58	127
15.336009070294784	15.498548752834466	38	127
15.51015873015873	15.672698412698413	70	127
15.672698412698413	15.835238095238095	37	127
15.672698412698413	15.835238095238095	58	127
15.835238095238095	16.00938775510204	70	127
16.00938775510204	16.171927437641724	38	127
16.00938775510204	16.171927437641724	58	127
16.171927437641724	16.334444444444443	70	127
16.334444444444443	16.473786848072564	43	127
16.334444444444443	16.485396825396826	62	127
16.485396825396826	16.647936507936507	70	127
16.647936507936507	16.764036281179138	39	127
16.647936507936507	16.7756462585034	67	127
16.7756462585034	16.938185941043084	70	127
16.938185941043084	17.089115646258502	41	127
16.938185941043084	17.089115646258502	69	127
17.089115646258502	17.240045351473924	63	127
17.240045351473924	17.507074829931973	62	127
17.240045351473924	17.507074829931973	46	127
17.913424036281178	18.203673469387756	84	127
17.913424036281178	18.203673469387756	72	127
18.25011337868481	18.308163265306124	74	127
18.25011337868481	18.308163265306124	86	127
18.401043083900227	18.459092970521542	76	127
18.401043083900227	18.459092970521542	88	127
18.575192743764173	18.865442176870747	89	127
18.575192743764173	18.865442176870747	77	127
18.923492063492063	18.958321995464853	89	127
18.923492063492063	18.958321995464853	77	127
19.051201814058956	19.09764172335601	89	127
19.051201814058956	19.09764172335601	77	127
19.21374149659864	19.387891156462587	75	127
19.21374149659864	19.387891156462587	87	127
19.550430839002267	19.724580498866214	86	127
19.550430839002267	19.724580498866214	74	127
19.910340136054423	20.223809523809525	87	127
19.910340136054423	20.223809523809525	75	127
20.223809523809525	20.397936507936507	84	127
20.223809523809525	20.397936507936507	72	127
20.583696145124716	20.85074829931973	82	127
20.583696145124716	20.85074829931973	70	127
20.85074829931973	20.920408163265307	70	127
20.85074829931973	20.920408163265307	82	127
20.920408163265307	21.152607709750566	84	127
20.920408163265307	21.152607709750566	72	127
21.16421768707483	21.23387755102041	84	127
21.16421768707483	21.23387755102041	72	127
21.245487528344672	21.570566893424036	74	127
21.245487528344672	21.570566893424036	86	127
21.570566893424036	21.721496598639455	82	127
21.570566893424036	21.721496598639455	70	127
21.88403628117914	21.942086167800454	88	127
21.88403628117914	21.942086167800454	76	127
22.08140589569161	22.127845804988663	89	127
22.08140589569161	22.127845804988663	77	127
22.243945578231294	22.301972789115645	91	127
22.243945578231294	22.301972789115645	79	127
22.406485260770975	22.46453514739229	93	127
22.406485260770975	22.46453514739229	81	127
22.58063492063492	23.137913832199548	89	127
22.58063492063492	23.137913832199548	77	127
23.219183673469388	23.4978231292517	84	127
23.219183673469388	23.4978231292517	72	127
23.555873015873015	23.625532879818593	74	127
23.555873015873015	23.625532879818593	86	127
23.73002267573696	23.788072562358277	76	127
23.73002267573696	23.788072562358277	88	127
23.892562358276646	24.18281179138322	77	127
23.892562358276646	24.18281179138322	89	127
24.240861678004535	24.29891156462585	89	127
24.240861678004535	24.29891156462585	77	127
24.426621315192744	24.473061224489797	89	127
24.426621315192744	24.473061224489797	77	127
24.589160997732428	24.774920634920633	75	127
24.589160997732428	24.774920634920633	87	127
24.937460317460317	25.1	86	127
24.937460317460317	25.1	74	127
25.262539682539682	25.59922902494331	87	127
25.262539682539682	25.59922902494331	75	127
25.59922902494331	25.761768707482993	72	127
25.59922902494331	25.761768707482993	84	127
25.93591836734694	26.179727891156464	82	127
25.93591836734694	26.179727891156464	70	127
26.179727891156464	26.260997732426304	70	127
26.179727891156464	26.260997732426304	82	127
26.260997732426304	26.51641723356009	72	127
26.260997732426304	26.51641723356009	84	127
26.51641723356009	26.59768707482993	84	127
26.51641723356009	26.59768707482993	72	127
26.59768707482993	26.911156462585033	86	127
26.59768707482993	26.911156462585033	74	127
26.911156462585033	27.073696145124718	70	127
26.911156462585033	27.073696145124718	82	127
27.259455782312926	27.596145124716553	82	127
27.259455782312926	27.596145124716553	94	127
27.596145124716553	27.758684807256238	88	127
27.596145124716553	27.758684807256238	76	127
27.93283446712018	28.246303854875283	77	127
27.93283446712018	28.246303854875283	89	127
28.246303854875283	28.408843537414967	65	127
28.246303854875283	28.408843537414967	77	127
28.571383219954647	28.745532879818594	61	127
28.745532879818594	28.931292517006803	64	127
28.931292517006803	29.093832199546487	70	127
29.093832199546487	29.291201814058958	61	127
29.291201814058958	29.4653514739229	62	127
29.4653514739229	29.627891156462585	65	127
29.627891156462585	29.79043083900227	70	127
29.79043083900227	29.95297052154195	62	127
29.95297052154195	30.011020408163265	84	127
29.95297052154195	30.011020408163265	72	127
30.127120181405896	30.17356009070295	86	127
30.127120181405896	30.17356009070295	74	127
30.289659863945577	30.347709750566892	87	127
30.289659863945577	30.347709750566892	75	127
30.440589569161	30.498639455782314	72	127
30.440589569161	30.498639455782314	84	127
30.614739229024945	31.172018140589568	77	127
30.614739229024945	31.172018140589568	89	127
31.264897959183674	31.415827664399092	57	127
31.415827664399092	31.58997732426304	65	127
31.58997732426304	31.75251700680272	60	127
31.75251700680272	31.90344671201814	57	127
31.915056689342403	32.0427664399093	58	127
32.0427664399093	32.20530612244898	65	127
32.20530612244898	32.379455782312924	62	127
32.379455782312924	32.553605442176874	58	127
32.553605442176874	32.82063492063492	77	127
32.553605442176874	32.82063492063492	65	127
32.82063492063492	32.90190476190476	77	127
32.82063492063492	32.90190476190476	65	127
32.913492063492065	33.099274376417235	76	127
32.913492063492065	33.099274376417235	64	127
33.099274376417235	33.16891156462585	76	127
33.099274376417235	33.16891156462585	64	127
33.16891156462585	33.38952380952381	77	127
33.16891156462585	33.38952380952381	65	127
33.38952380952381	33.47079365079365	65	127
33.38952380952381	33.47079365079365	77	127
33.482403628117915	33.72621315192744	70	127
33.482403628117915	33.72621315192744	82	127
33.7378231292517	33.819092970521545	70	127
33.7378231292517	33.819092970521545	82	127
33.819092970521545	34.07451247165533	84	127
33.819092970521545	34.07451247165533	72	127
34.086122448979594	34.16739229024943	72	127
34.086122448979594	34.16739229024943	84	127
34.16739229024943	34.37637188208617	72	127
34.16739229024943	34.37637188208617	84	127
34.38798185941043	34.469251700680275	86	127
34.38798185941043	34.469251700680275	74	127
34.469251700680275	35.09619047619048	70	127
34.469251700680275	35.09619047619048	82	127
34.469251700680275	35.09619047619048	46	127
34.469251700680275	35.09619047619048	58	127
35.16585034013605	35.781179138321995	74	127
35.16585034013605	35.781179138321995	86	127
35.16585034013605	35.781179138321995	50	127
35.16585034013605	35.781179138321995	62	127
35.885668934240364	36.02498866213152	62	127
35.885668934240364	36.02498866213152	74	127
35.885668934240364	36.02498866213152	38	127
35.885668934240364	36.02498866213152	50	127
36.28040816326531	36.35004535147392	42	127
36.28040816326531	36.35004535147392	54	127
36.28040816326531	36.35004535147392	66	127
36.28040816326531	36.35004535147392	78	127
36.61709750566894	37.255646258503404	79	127
36.61709750566894	37.255646258503404	67	127
36.61709750566894	37.255646258503404	55	127
36.61709750566894	37.255646258503404	43	127
37.3485260770975	37.95224489795918	55	127
37.65038548752835	37.731632653061226	62	127
37.65038548752835	37.731632653061226	67	127
37.65038548752835	37.731632653061226	70	127
37.95224489795918	38.50952380952381	58	127
38.25408163265306	38.33537414965986	74	127
38.25408163265306	38.33537414965986	62	127
38.25408163265306	38.33537414965986	67	127
38.59079365079365	38.66045351473923	62	127
38.59079365079365	38.66045351473923	66	127
38.59079365079365	38.66045351473923	50	127
38.89265306122449	38.96231292517007	62	127
38.89265306122449	38.96231292517007	69	127
38.89265306122449	38.96231292517007	54	127
39.20612244897959	39.79823129251701	55	127
39.554421768707485	39.635668934240364	62	127
39.554421768707485	39.635668934240364	67	127
39.554421768707485	39.635668934240364	70	127
39.89108843537415	39.96077097505669	60	127
39.89108843537415	39.96077097505669	64	127
39.89108843537415	39.96077097505669	72	127
39.89108843537415	39.96077097505669	48	127
40.19297052154195	40.239410430839	60	127
40.19297052154195	40.239410430839	67	127
40.19297052154195	40.239410430839	70	127
40.19297052154195	40.239410430839	52	127
40.425170068027214	40.66897959183674	69	127
40.425170068027214	40.66897959183674	60	127
40.425170068027214	40.66897959183674	65	127
40.425170068027214	40.66897959183674	53	127
40.72702947845805	40.95922902494331	45	127
40.72702947845805	40.95922902494331	65	127
40.72702947845805	40.95922902494331	60	127
41.00566893424036	41.29589569160998	67	127
41.00566893424036	41.29589569160998	65	127
41.00566893424036	41.29589569160998	62	127
41.00566893424036	41.29589569160998	46	127
41.353968253968254	41.632607709750566	48	127
41.353968253968254	41.632607709750566	58	127
41.353968253968254	41.632607709750566	72	127
41.353968253968254	41.632607709750566	64	127
41.690657596371885	41.957687074829934	53	127
41.690657596371885	41.957687074829934	57	127
41.690657596371885	41.957687074829934	65	127
42.35242630385488	42.97936507936508	70	127
42.35242630385488	42.97936507936508	82	127
42.35242630385488	42.97936507936508	46	127
42.35242630385488	42.97936507936508	58	127
43.07222222222222	43.61791383219955	86	127
43.07222222222222	43.61791383219955	62	127
43.07222222222222	43.61791383219955	74	127
43.07222222222222	43.61791383219955	50	127
43.69916099773243	43.815283446712016	62	127
43.69916099773243	43.815283446712016	74	127
43.69916099773243	43.815283446712016	50	127
43.69916099773243	43.815283446712016	38	127
44.1055328798186	44.22163265306123	54	127
44.1055328798186	44.22163265306123	42	127
44.1055328798186	44.22163265306123	78	127
44.1055328798186	44.22163265306123	66	127
44.48866213151928	45.08077097505669	55	127
44.48866213151928	45.08077097505669	67	127
44.48866213151928	45.08077097505669	79	127
44.48866213151928	45.08077097505669	43	127
45.15043083900227	45.23167800453515	82	127
45.15043083900227	45.23167800453515	70	127
45.23167800453515	45.336190476190474	84	127
45.23167800453515	45.336190476190474	72	127
45.336190476190474	45.452290249433105	81	127
45.336190476190474	45.452290249433105	69	127
45.452290249433105	45.568390022675736	70	127
45.452290249433105	45.568390022675736	82	127
45.568390022675736	45.672879818594105	84	127
45.568390022675736	45.672879818594105	72	127
45.672879818594105	45.788979591836735	85	127
45.672879818594105	45.788979591836735	73	127
45.788979591836735	45.893469387755104	74	127
45.788979591836735	45.893469387755104	86	127
45.893469387755104	45.97473922902494	79	127
45.893469387755104	45.97473922902494	91	127
45.97473922902494	46.09083900226757	87	127
45.97473922902494	46.09083900226757	75	127
46.09083900226757	46.2069387755102	74	127
46.09083900226757	46.2069387755102	86	127
46.2069387755102	46.31142857142857	70	127
46.2069387755102	46.31142857142857	82	127
46.31142857142857	46.439138321995465	72	127
46.31142857142857	46.439138321995465	84	127
46.439138321995465	46.54362811791383	86	127
46.439138321995465	46.54362811791383	74	127
46.54362811791383	46.659727891156464	87	127
46.54362811791383	46.659727891156464	75	127
46.659727891156464	46.76421768707483	86	127
46.659727891156464	46.76421768707483	74	127
46.76421768707483	46.891927437641726	72	127
46.76421768707483	46.891927437641726	84	127
46.891927437641726	47.00800453514739	74	127
46.891927437641726	47.00800453514739	86	127
47.00800453514739	47.11251700680272	84	127
47.00800453514739	47.11251700680272	72	127
47.11251700680272	47.205396825396825	70	127
47.11251700680272	47.205396825396825	82	127
47.205396825396825	47.309886621315194	84	127
47.205396825396825	47.309886621315194	72	127
47.309886621315194	47.41437641723356	69	127
47.309886621315194	47.41437641723356	81	127
47.41437641723356	47.542086167800456	67	127
47.41437641723356	47.542086167800456	79	127
47.542086167800456	47.646575963718824	69	127
47.542086167800456	47.646575963718824	81	127
47.646575963718824	47.77428571428572	77	127
47.646575963718824	47.77428571428572	65	127
47.77428571428572	47.87877551020408	76	127
47.77428571428572	47.87877551020408	64	127
47.87877551020408	47.99487528344671	72	127
47.87877551020408	47.99487528344671	84	127
47.99487528344671	48.076145124716554	83	127
47.99487528344671	48.076145124716554	71	127
48.076145124716554	48.18063492063492	86	127
48.076145124716554	48.18063492063492	74	127
48.18063492063492	48.27351473922902	84	127
48.18063492063492	48.27351473922902	72	127
48.27351473922902	48.37800453514739	82	127
48.27351473922902	48.37800453514739	70	127
48.37800453514739	48.49410430839002	81	127
48.37800453514739	48.49410430839002	69	127
48.49410430839002	48.621814058956915	82	127
48.49410430839002	48.621814058956915	70	127
48.621814058956915	48.74952380952381	84	127
48.621814058956915	48.74952380952381	72	127
48.74952380952381	48.86562358276644	86	127
48.74952380952381	48.86562358276644	74	127
48.86562358276644	48.958503401360545	76	127
48.86562358276644	48.958503401360545	88	127
48.958503401360545	49.05138321995465	77	127
48.958503401360545	49.05138321995465	89	127
49.05138321995465	49.14426303854875	91	127
49.05138321995465	49.14426303854875	79	127
49.14426303854875	49.23714285714286	81	127
49.14426303854875	49.23714285714286	93	127
49.23714285714286	49.295192743764176	90	127
49.23714285714286	49.295192743764176	78	127
49.295192743764176	49.39968253968254	91	127
49.295192743764176	49.39968253968254	79	127
49.39968253968254	49.51578231292517	81	127
49.39968253968254	49.51578231292517	93	127
49.51578231292517	49.608662131519274	91	127
49.51578231292517	49.608662131519274	79	127
49.608662131519274	49.80603174603175	77	127
49.608662131519274	49.80603174603175	89	127
50.22399092970522	50.30526077097505	65	127
50.22399092970522	50.30526077097505	79	127
50.30526077097505	50.39814058956916	77	127
50.30526077097505	50.39814058956916	67	127
50.39814058956916	50.491020408163266	79	127
50.39814058956916	50.491020408163266	65	127
50.491020408163266	50.57229024943311	77	127
50.491020408163266	50.57229024943311	67	127
50.57229024943311	50.641950113378684	79	127
50.57229024943311	50.641950113378684	65	127
50.641950113378684	50.7	77	127
50.641950113378684	50.7	67	127
50.7	50.78126984126984	65	127
50.7	50.78126984126984	79	127
50.78126984126984	50.86253968253968	67	127
50.78126984126984	50.86253968253968	77	127
50.86253968253968	50.94380952380953	65	127
50.86253968253968	50.94380952380953	79	127
50.94380952380953	51.025079365079364	67	127
50.94380952380953	51.025079365079364	77	127
51.025079365079364	51.10634920634921	79	127
51.025079365079364	51.10634920634921	65	127
51.10634920634921	51.187619047619044	77	127
51.10634920634921	51.187619047619044	67	127
51.187619047619044	51.257278911564626	79	127
51.187619047619044	51.257278911564626	65	127
51.257278911564626	51.33854875283447	77	127
51.257278911564626	51.33854875283447	67	127
51.33854875283447	51.39659863945578	65	127
51.33854875283447	51.39659863945578	79	127
51.39659863945578	51.48947845804989	77	127
51.39659863945578	51.48947845804989	67	127
51.48947845804989	51.59396825396826	79	127
51.48947845804989	51.59396825396826	65	127
51.59396825396826	51.67523809523809	77	127
51.59396825396826	51.67523809523809	67	127
51.67523809523809	51.7681179138322	79	127
51.67523809523809	51.7681179138322	65	127
51.7681179138322	51.84938775510204	77	127
51.7681179138322	51.84938775510204	67	127
51.84938775510204	51.93065759637188	65	127
51.84938775510204	51.93065759637188	79	127
51.93065759637188	52.011927437641724	67	127
51.93065759637188	52.011927437641724	77	127
52.011927437641724	52.10480725623583	79	127
52.011927437641724	52.10480725623583	65	127
52.10480725623583	52.19768707482993	77	127
52.10480725623583	52.19768707482993	67	127
52.19768707482993	52.290566893424035	65	127
52.19768707482993	52.290566893424035	79	127
52.290566893424035	52.38344671201814	67	127
52.290566893424035	52.38344671201814	77	127
52.38344671201814	52.47632653061225	79	127
52.38344671201814	52.47632653061225	65	127
52.47632653061225	52.56920634920635	77	127
52.47632653061225	52.56920634920635	67	127
52.56920634920635	52.65047619047619	65	127
52.56920634920635	52.65047619047619	79	127
52.65047619047619	52.731746031746034	77	127
52.65047619047619	52.731746031746034	67	127
52.731746031746034	52.81301587301587	79	127
52.731746031746034	52.81301587301587	65	127
52.81301587301587	52.85945578231293	77	127
52.81301587301587	52.85945578231293	67	127
52.87106575963719	52.96394557823129	79	127
52.87106575963719	52.96394557823129	65	127
52.96394557823129	53.056825396825396	77	127
52.96394557823129	53.056825396825396	67	127
53.056825396825396	53.1497052154195	79	127
53.056825396825396	53.1497052154195	65	127
53.1497052154195	53.230975056689346	77	127
53.1497052154195	53.230975056689346	67	127
53.230975056689346	53.323854875283445	65	127
53.230975056689346	53.323854875283445	79	127
53.323854875283445	53.42834467120181	67	127
53.323854875283445	53.42834467120181	77	127
53.42834467120181	53.50961451247166	65	127
53.42834467120181	53.50961451247166	79	127
53.50961451247166	53.602494331065756	77	127
53.50961451247166	53.602494331065756	67	127
53.602494331065756	53.69537414965986	79	127
53.602494331065756	53.69537414965986	65	127
53.69537414965986	53.78825396825397	67	127
53.69537414965986	53.78825396825397	77	127
53.78825396825397	53.86952380952381	65	127
53.78825396825397	53.86952380952381	79	127
53.86952380952381	53.9043537414966	67	127
53.86952380952381	53.9043537414966	77	127
53.9043537414966	53.974013605442174	79	127
53.9043537414966	53.974013605442174	65	127
53.974013605442174	54.00884353741497	67	127
53.974013605442174	54.00884353741497	77	127
54.00884353741497	54.043673469387755	79	127
54.00884353741497	54.043673469387755	65	127
54.043673469387755	54.07850340136054	77	127
54.043673469387755	54.07850340136054	67	127
54.07850340136054	54.159773242630386	79	127
54.07850340136054	54.159773242630386	65	127
54.159773242630386	54.24104308390023	77	127
54.159773242630386	54.24104308390023	67	127
54.24104308390023	54.32231292517007	79	127
54.24104308390023	54.32231292517007	65	127
54.32231292517007	54.39197278911565	67	127
54.32231292517007	54.39197278911565	77	127
54.39197278911565	54.48485260770975	79	127
54.39197278911565	54.48485260770975	65	127
54.48485260770975	54.56612244897959	67	127
54.48485260770975	54.56612244897959	77	127
54.56612244897959	54.6590022675737	79	127
54.56612244897959	54.6590022675737	65	127
54.6590022675737	54.751882086167804	67	127
54.6590022675737	54.751882086167804	77	127
54.751882086167804	54.82154195011338	65	127
54.751882086167804	54.82154195011338	79	127
54.82154195011338	54.90281179138322	79	127
54.82154195011338	54.90281179138322	65	127
54.90281179138322	54.98408163265306	67	127
54.90281179138322	54.98408163265306	77	127
54.98408163265306	55.076961451247165	65	127
54.98408163265306	55.076961451247165	79	127
55.076961451247165	55.16984126984127	77	127
55.076961451247165	55.16984126984127	67	127
55.16984126984127	55.26272108843538	65	127
55.16984126984127	55.26272108843538	79	127
55.26272108843538	55.355600907029476	77	127
55.26272108843538	55.355600907029476	67	127
55.355600907029476	55.44848072562358	65	127
55.355600907029476	55.44848072562358	80	127
55.44848072562358	55.54136054421769	68	127
55.44848072562358	55.54136054421769	77	127
55.54136054421769	55.63424036281179	80	127
55.54136054421769	55.63424036281179	65	127
55.63424036281179	55.70390022675737	77	127
55.63424036281179	55.70390022675737	68	127
55.70390022675737	55.78517006802721	80	127
55.70390022675737	55.78517006802721	65	127
55.78517006802721	55.88965986394558	68	127
55.78517006802721	55.88965986394558	77	127
55.88965986394558	55.93609977324263	80	127
55.88965986394558	55.93609977324263	65	127
55.93609977324263	56.005759637188206	68	127
55.93609977324263	56.005759637188206	77	127
56.005759637188206	56.08702947845805	80	127
56.005759637188206	56.08702947845805	65	127
56.08702947845805	56.179909297052156	68	127
56.08702947845805	56.179909297052156	77	127
56.179909297052156	56.27278911564626	65	127
56.179909297052156	56.27278911564626	80	127
56.27278911564626	56.36566893424036	68	127
56.27278911564626	56.36566893424036	77	127
56.36566893424036	56.45854875283447	80	127
56.36566893424036	56.45854875283447	65	127
56.45854875283447	56.51659863945578	77	127
56.45854875283447	56.51659863945578	68	127
56.51659863945578	56.609478458049885	80	127
56.51659863945578	56.609478458049885	65	127
56.609478458049885	56.70235827664399	77	127
56.609478458049885	56.70235827664399	68	127
56.70235827664399	56.7952380952381	80	127
56.70235827664399	56.7952380952381	65	127
56.7952380952381	56.8881179138322	68	127
56.7952380952381	56.8881179138322	77	127
56.8881179138322	56.9809977324263	80	127
56.8881179138322	56.9809977324263	65	127
56.9809977324263	57.08548752834467	68	127
56.9809977324263	57.08548752834467	77	127
57.08548752834467	57.166757369614515	65	127
57.08548752834467	57.166757369614515	80	127
57.166757369614515	57.22480725623583	77	127
57.166757369614515	57.22480725623583	68	127
57.22480725623583	57.30607709750567	80	127
57.22480725623583	57.30607709750567	65	127
57.30607709750567	57.39895691609977	77	127
57.30607709750567	57.39895691609977	68	127
57.39895691609977	57.49183673469388	83	127
57.39895691609977	57.49183673469388	68	127
57.49183673469388	57.60793650793651	71	127
57.49183673469388	57.60793650793651	80	127
57.60793650793651	57.700816326530614	83	127
57.60793650793651	57.700816326530614	68	127
57.700816326530614	57.79369614512472	80	127
57.700816326530614	57.79369614512472	71	127
57.79369614512472	57.87496598639456	83	127
57.79369614512472	57.87496598639456	68	127
57.87496598639456	57.96784580498866	71	127
57.87496598639456	57.96784580498866	80	127
57.96784580498866	58.07233560090703	83	127
57.96784580498866	58.07233560090703	68	127
58.07233560090703	58.1768253968254	71	127
58.07233560090703	58.1768253968254	80	127
58.1768253968254	58.25809523809524	84	127
58.1768253968254	58.25809523809524	68	127
58.25809523809524	58.30453514739229	84	127
58.25809523809524	58.30453514739229	68	127
58.30453514739229	58.35097505668934	80	127
58.30453514739229	58.35097505668934	72	127
58.35097505668934	58.42063492063492	68	127
58.35097505668934	58.42063492063492	84	127
58.42063492063492	58.513514739229024	80	127
58.42063492063492	58.513514739229024	72	127
58.513514739229024	58.60639455782313	68	127
58.513514739229024	58.60639455782313	84	127
58.60639455782313	58.699274376417236	72	127
58.60639455782313	58.699274376417236	80	127
58.699274376417236	58.792154195011335	84	127
58.699274376417236	58.792154195011335	68	127
58.792154195011335	58.88503401360544	72	127
58.792154195011335	58.88503401360544	80	127
58.88503401360544	58.97791383219955	84	127
58.88503401360544	58.97791383219955	68	127
58.97791383219955	59.059183673469384	80	127
58.97791383219955	59.059183673469384	72	127
59.059183673469384	59.15206349206349	68	127
59.059183673469384	59.15206349206349	84	127
59.15206349206349	59.22172335600907	80	127
59.15206349206349	59.22172335600907	72	127
59.22172335600907	59.31460317460318	68	127
59.22172335600907	59.31460317460318	84	127
59.31460317460318	59.40748299319728	80	127
59.31460317460318	59.40748299319728	72	127
59.40748299319728	59.48875283446712	82	127
59.40748299319728	59.48875283446712	67	127
59.48875283446712	59.58163265306123	79	127
59.48875283446712	59.58163265306123	70	127
59.58163265306123	59.674512471655326	82	127
59.58163265306123	59.674512471655326	67	127
59.674512471655326	59.76739229024943	70	127
59.674512471655326	59.76739229024943	79	127
59.76739229024943	59.86027210884354	82	127
59.76739229024943	59.86027210884354	67	127
59.86027210884354	59.92993197278911	79	127
59.86027210884354	59.92993197278911	70	127
59.92993197278911	60.01120181405896	82	127
59.92993197278911	60.01120181405896	67	127
60.01120181405896	60.10408163265306	79	127
60.01120181405896	60.10408163265306	70	127
60.10408163265306	60.17374149659864	65	127
60.10408163265306	60.17374149659864	80	127
60.17374149659864	60.20857142857143	65	127
60.17374149659864	60.20857142857143	80	127
60.20857142857143	60.324671201814056	77	127
60.20857142857143	60.324671201814056	68	127
60.324671201814056	60.41755102040816	80	127
60.324671201814056	60.41755102040816	65	127
60.41755102040816	60.498820861678006	68	127
60.41755102040816	60.498820861678006	77	127
60.498820861678006	60.56848072562358	65	127
60.498820861678006	60.56848072562358	80	127
60.56848072562358	60.63814058956916	68	127
60.56848072562358	60.63814058956916	77	127
60.63814058956916	60.719410430839005	63	127
60.63814058956916	60.719410430839005	79	127
60.719410430839005	60.80068027210884	75	127
60.719410430839005	60.80068027210884	67	127
60.80068027210884	60.89356009070295	79	127
60.80068027210884	60.89356009070295	63	127
60.89356009070295	60.97482993197279	75	127
60.89356009070295	60.97482993197279	67	127
60.97482993197279	61.05609977324263	79	127
60.97482993197279	61.05609977324263	63	127
61.05609977324263	61.148979591836735	75	127
61.05609977324263	61.148979591836735	67	127
61.148979591836735	61.20702947845805	79	127
61.148979591836735	61.20702947845805	63	127
61.20702947845805	61.28829931972789	67	127
61.20702947845805	61.28829931972789	75	127
61.28829931972789	61.369569160997735	79	127
61.28829931972789	61.369569160997735	63	127
61.369569160997735	61.42761904761905	67	127
61.369569160997735	61.42761904761905	75	127
61.42761904761905	61.50888888888889	63	127
61.42761904761905	61.50888888888889	79	127
61.50888888888889	61.59015873015873	75	127
61.50888888888889	61.59015873015873	67	127
61.59015873015873	61.68303854875283	63	127
61.59015873015873	61.68303854875283	79	127
61.68303854875283	61.752698412698415	75	127
61.68303854875283	61.752698412698415	67	127
61.752698412698415	61.82235827664399	79	127
61.752698412698415	61.82235827664399	63	127
61.82235827664399	61.88040816326531	75	127
61.82235827664399	61.88040816326531	67	127
61.88040816326531	61.95006802721088	77	127
61.88040816326531	61.95006802721088	61	127
61.95006802721088	62.0081179138322	73	127
61.95006802721088	62.0081179138322	65	127
62.0081179138322	62.077777777777776	77	127
62.0081179138322	62.077777777777776	61	127
62.077777777777776	62.14743764172336	65	127
62.077777777777776	62.14743764172336	73	127
62.14743764172336	62.24031746031746	61	127
62.14743764172336	62.24031746031746	77	127
62.24031746031746	62.344807256235825	73	127
62.24031746031746	62.344807256235825	65	127
62.344807256235825	62.42607709750567	77	127
62.344807256235825	62.42607709750567	61	127
62.42607709750567	62.518956916099775	65	127
62.42607709750567	62.518956916099775	73	127
62.518956916099775	62.60022675736961	75	127
62.518956916099775	62.60022675736961	60	127
62.60022675736961	62.681496598639455	72	127
62.60022675736961	62.681496598639455	63	127
62.681496598639455	62.77437641723356	75	127
62.681496598639455	62.77437641723356	60	127
62.77437641723356	62.86725623582767	72	127
62.77437641723356	62.86725623582767	63	127
62.86725623582767	62.93691609977324	75	127
62.86725623582767	62.93691609977324	60	127
62.93691609977324	62.98335600907029	72	127
62.93691609977324	62.98335600907029	63	127
62.98335600907029	63.0762358276644	60	127
62.98335600907029	63.0762358276644	75	127
63.0762358276644	63.169115646258504	72	127
63.0762358276644	63.169115646258504	63	127
63.169115646258504	63.25038548752835	60	127
63.169115646258504	63.25038548752835	75	127
63.25038548752835	63.331655328798185	63	127
63.25038548752835	63.331655328798185	72	127
63.331655328798185	63.41292517006803	60	127
63.331655328798185	63.41292517006803	75	127
63.41292517006803	63.5174149659864	63	127
63.41292517006803	63.5174149659864	72	127
63.5174149659864	63.58707482993197	75	127
63.5174149659864	63.58707482993197	60	127
63.58707482993197	63.65673469387755	63	127
63.58707482993197	63.65673469387755	72	127
63.65673469387755	63.73800453514739	60	127
63.65673469387755	63.73800453514739	75	127
63.73800453514739	63.79605442176871	72	127
63.73800453514739	63.79605442176871	63	127
63.79605442176871	63.888934240362815	58	127
63.79605442176871	63.888934240362815	73	127
63.888934240362815	63.94698412698413	70	127
63.888934240362815	63.94698412698413	61	127
63.94698412698413	64.01664399092971	58	127
63.94698412698413	64.01664399092971	73	127
64.01664399092971	64.08630385487528	61	127
64.01664399092971	64.08630385487528	70	127
64.08630385487528	64.1443537414966	58	127
64.08630385487528	64.1443537414966	73	127
64.1443537414966	64.19079365079365	70	127
64.1443537414966	64.19079365079365	61	127
64.19079365079365	64.2720634920635	58	127
64.19079365079365	64.2720634920635	73	127
64.2720634920635	64.3649433106576	61	127
64.2720634920635	64.3649433106576	70	127
64.3649433106576	64.46943310657596	56	127
64.3649433106576	64.46943310657596	72	127
64.46943310657596	64.53909297052154	60	127
64.46943310657596	64.53909297052154	68	127
64.53909297052154	64.62036281179138	72	127
64.53909297052154	64.62036281179138	56	127
64.62036281179138	64.7132426303855	68	127
64.62036281179138	64.7132426303855	60	127
64.7132426303855	64.8061224489796	56	127
64.7132426303855	64.8061224489796	72	127
64.8061224489796	64.89900226757369	68	127
64.8061224489796	64.89900226757369	60	127
64.89900226757369	64.9918820861678	72	127
64.89900226757369	64.9918820861678	56	127
64.9918820861678	65.07312925170068	60	127
64.9918820861678	65.07312925170068	68	127
65.07312925170068	65.16603174603175	70	127
65.07312925170068	65.16603174603175	55	127
65.16603174603175	65.25891156462585	67	127
65.16603174603175	65.25891156462585	58	127
65.25891156462585	65.34018140589569	55	127
65.25891156462585	65.34018140589569	70	127
65.34018140589569	65.39823129251701	67	127
65.34018140589569	65.39823129251701	58	127
65.39823129251701	65.49111111111111	70	127
65.39823129251701	65.49111111111111	55	127
65.49111111111111	65.58396825396825	67	127
65.49111111111111	65.58396825396825	58	127
65.58396825396825	65.6536507936508	55	127
65.58396825396825	65.6536507936508	70	127
65.6536507936508	65.72331065759637	67	127
65.6536507936508	65.72331065759637	58	127
65.73492063492064	65.81616780045351	72	127
65.73492063492064	65.81616780045351	56	127
65.81616780045351	65.89746031746031	68	127
65.81616780045351	65.89746031746031	60	127
65.89746031746031	65.97873015873016	72	127
65.89746031746031	65.97873015873016	56	127
65.97873015873016	66.04839002267573	68	127
65.97873015873016	66.04839002267573	60	127
66.04839002267573	66.12965986394558	72	127
66.04839002267573	66.12965986394558	56	127
66.12965986394558	66.21092970521542	68	127
66.12965986394558	66.21092970521542	60	127
66.21092970521542	66.30380952380952	72	127
66.21092970521542	66.30380952380952	56	127
66.30380952380952	66.39668934240363	60	127
66.30380952380952	66.39668934240363	68	127
66.39668934240363	66.4779365079365	73	127
66.39668934240363	66.4779365079365	58	127
66.4779365079365	66.52439909297053	70	127
66.4779365079365	66.52439909297053	61	127
66.52439909297053	66.58242630385487	58	127
66.52439909297053	66.58242630385487	73	127
66.58242630385487	66.67532879818594	61	127
66.58242630385487	66.67532879818594	70	127
66.67532879818594	66.75659863945579	75	127
66.67532879818594	66.75659863945579	60	127
66.75659863945579	66.8146485260771	72	127
66.75659863945579	66.8146485260771	63	127
66.8146485260771	66.89591836734694	75	127
66.8146485260771	66.89591836734694	60	127
66.89591836734694	66.98879818594105	72	127
66.89591836734694	66.98879818594105	63	127
66.98879818594105	67.08167800453515	58	127
66.98879818594105	67.08167800453515	73	127
67.08167800453515	67.17455782312925	61	127
67.08167800453515	67.17455782312925	70	127
67.17455782312925	67.23260770975057	73	127
67.17455782312925	67.23260770975057	58	127
67.23260770975057	67.30226757369614	70	127
67.23260770975057	67.30226757369614	61	127
67.30226757369614	67.39514739229026	56	127
67.30226757369614	67.39514739229026	72	127
67.39514739229026	67.47639455782313	68	127
67.39514739229026	67.47639455782313	60	127
67.47639455782313	67.55768707482993	72	127
67.47639455782313	67.55768707482993	56	127
67.55768707482993	67.63895691609977	68	127
67.55768707482993	67.63895691609977	60	127
67.63895691609977	67.74344671201814	56	127
67.63895691609977	67.74344671201814	72	127
67.74344671201814	67.83632653061224	60	127
67.74344671201814	67.83632653061224	68	127
67.83632653061224	67.92920634920635	72	127
67.83632653061224	67.92920634920635	56	127
67.92920634920635	68.02208616780045	68	127
67.92920634920635	68.02208616780045	60	127
68.02208616780045	68.1149433106576	70	127
68.02208616780045	68.1149433106576	55	127
68.1149433106576	68.18462585034014	67	127
68.1149433106576	68.18462585034014	58	127
68.18462585034014	68.26589569160998	70	127
68.18462585034014	68.26589569160998	55	127
68.26589569160998	68.35877551020408	67	127
68.26589569160998	68.35877551020408	58	127
68.35877551020408	68.45165532879818	60	127
68.35877551020408	68.45165532879818	75	127
68.45165532879818	68.5445351473923	72	127
68.45165532879818	68.5445351473923	63	127
68.5445351473923	68.6374149659864	75	127
68.5445351473923	68.6374149659864	60	127
68.6374149659864	68.70707482993197	72	127
68.6374149659864	68.70707482993197	63	127
68.70707482993197	68.76512471655329	75	127
68.70707482993197	68.76512471655329	60	127
68.76512471655329	68.83478458049886	63	127
68.76512471655329	68.83478458049886	72	127
68.83478458049886	68.93927437641723	75	127
68.83478458049886	68.93927437641723	60	127
68.93927437641723	69.00891156462585	63	127
68.93927437641723	69.00891156462585	72	127
69.00891156462585	69.0785941043084	73	127
69.00891156462585	69.0785941043084	58	127
69.0785941043084	69.17147392290249	70	127
69.0785941043084	69.17147392290249	61	127
69.17147392290249	69.24111111111111	73	127
69.17147392290249	69.24111111111111	58	127
69.24111111111111	69.28757369614513	61	127
69.24111111111111	69.28757369614513	70	127
69.28757369614513	69.368820861678	73	127
69.28757369614513	69.368820861678	58	127
69.368820861678	69.43850340136055	70	127
69.368820861678	69.43850340136055	61	127
69.43850340136055	69.51975056689342	73	127
69.43850340136055	69.51975056689342	58	127
69.51975056689342	69.58943310657597	70	127
69.51975056689342	69.58943310657597	61	127
69.58943310657597	69.67070294784581	56	127
69.58943310657597	69.67070294784581	72	127
69.67070294784581	69.75195011337868	68	127
69.67070294784581	69.75195011337868	60	127
69.75195011337868	69.84485260770975	56	127
69.75195011337868	69.84485260770975	72	127
69.84485260770975	69.94934240362812	60	127
69.84485260770975	69.94934240362812	68	127
69.94934240362812	70.04222222222222	56	127
69.94934240362812	70.04222222222222	72	127
70.04222222222222	70.12349206349207	68	127
70.04222222222222	70.12349206349207	60	127
70.12349206349207	70.19315192743764	72	127
70.12349206349207	70.19315192743764	56	127
70.19315192743764	70.26278911564626	60	127
70.19315192743764	70.26278911564626	68	127
70.26278911564626	70.34408163265306	70	127
70.26278911564626	70.34408163265306	55	127
70.34408163265306	70.4253514739229	67	127
70.34408163265306	70.4253514739229	58	127
70.4253514739229	70.50662131519275	70	127
70.4253514739229	70.50662131519275	55	127
70.50662131519275	70.58789115646259	58	127
70.50662131519275	70.58789115646259	67	127
70.58789115646259	70.66916099773243	70	127
70.58789115646259	70.66916099773243	55	127
70.66916099773243	70.75043083900226	67	127
70.66916099773243	70.75043083900226	58	127
70.75043083900226	70.8317006802721	70	127
70.75043083900226	70.8317006802721	55	127
70.8317006802721	70.90133786848072	58	127
70.8317006802721	70.90133786848072	67	127
70.90133786848072	71.00585034013605	56	127
70.90133786848072	71.00585034013605	72	127
71.00585034013605	71.0871201814059	68	127
71.00585034013605	71.0871201814059	60	127
71.0871201814059	71.14517006802721	72	127
71.0871201814059	71.14517006802721	56	127
71.14517006802721	71.20321995464853	60	127
71.14517006802721	71.20321995464853	68	127
71.20321995464853	71.29609977324263	72	127
71.20321995464853	71.29609977324263	56	127
71.29609977324263	71.38897959183673	68	127
71.29609977324263	71.38897959183673	60	127
71.38897959183673	71.48185941043084	72	127
71.38897959183673	71.48185941043084	56	127
71.48185941043084	71.55151927437642	60	127
71.48185941043084	71.55151927437642	68	127
71.55151927437642	71.63278911564626	73	127
71.55151927437642	71.63278911564626	58	127
71.63278911564626	71.70244897959184	61	127
71.63278911564626	71.70244897959184	70	127
71.70244897959184	71.74888888888889	73	127
71.70244897959184	71.74888888888889	58	127
71.74888888888889	71.83015873015873	70	127
71.74888888888889	71.83015873015873	61	127
71.83015873015873	71.8998185941043	60	127
71.83015873015873	71.8998185941043	75	127
71.8998185941043	71.98108843537415	63	127
71.8998185941043	71.98108843537415	72	127
71.98108843537415	72.08557823129252	75	127
71.98108843537415	72.08557823129252	60	127
72.08557823129252	72.17843537414966	63	127
72.08557823129252	72.17843537414966	72	127
72.17843537414966	72.25972789115646	58	127
72.17843537414966	72.25972789115646	73	127
72.25972789115646	72.3409977324263	61	127
72.25972789115646	72.3409977324263	70	127
72.3409977324263	72.41065759637188	58	127
72.3409977324263	72.41065759637188	73	127
72.41065759637188	72.49192743764172	61	127
72.41065759637188	72.49192743764172	70	127
72.49192743764172	72.57319727891156	72	127
72.49192743764172	72.57319727891156	56	127
72.57319727891156	72.64285714285714	60	127
72.57319727891156	72.64285714285714	68	127
72.64285714285714	72.71251700680273	72	127
72.64285714285714	72.71251700680273	56	127
72.71251700680273	72.80539682539683	60	127
72.71251700680273	72.80539682539683	68	127
72.80539682539683	72.89827664399093	72	127
72.80539682539683	72.89827664399093	56	127
72.89827664399093	72.99115646258504	60	127
72.89827664399093	72.99115646258504	68	127
72.99115646258504	73.07240362811791	72	127
72.99115646258504	73.07240362811791	56	127
73.07240362811791	73.16530612244898	68	127
73.07240362811791	73.16530612244898	60	127
73.16530612244898	73.25818594104308	70	127
73.16530612244898	73.25818594104308	55	127
73.25818594104308	73.3278231292517	58	127
73.25818594104308	73.3278231292517	67	127
73.3278231292517	73.42072562358277	55	127
73.3278231292517	73.42072562358277	70	127
73.42072562358277	73.51360544217687	67	127
73.42072562358277	73.51360544217687	58	127
73.51360544217687	73.59487528344671	60	127
73.51360544217687	73.59487528344671	75	127
73.59487528344671	73.68773242630385	72	127
73.59487528344671	73.68773242630385	63	127
73.68773242630385	73.76902494331065	75	127
73.68773242630385	73.76902494331065	60	127
73.76902494331065	73.8502947845805	63	127
73.76902494331065	73.8502947845805	72	127
73.8502947845805	73.88512471655329	75	127
73.8502947845805	73.88512471655329	60	127
73.88512471655329	73.96639455782314	72	127
73.88512471655329	73.96639455782314	63	127
73.96639455782314	74.04766439909297	60	127
73.96639455782314	74.04766439909297	75	127
74.04766439909297	74.14054421768708	72	127
74.04766439909297	74.14054421768708	63	127
74.14054421768708	74.22181405895692	73	127
74.14054421768708	74.22181405895692	58	127
74.22181405895692	74.31469387755102	70	127
74.22181405895692	74.31469387755102	61	127
74.31469387755102	74.37274376417234	58	127
74.31469387755102	74.37274376417234	73	127
74.37274376417234	74.45399092970521	70	127
74.37274376417234	74.45399092970521	61	127
74.45399092970521	74.53528344671201	73	127
74.45399092970521	74.53528344671201	58	127
74.53528344671201	74.61655328798186	70	127
74.53528344671201	74.61655328798186	61	127
74.61655328798186	74.66299319727891	58	127
74.61655328798186	74.66299319727891	73	127
74.66299319727891	74.7326530612245	70	127
74.66299319727891	74.7326530612245	61	127
74.7326530612245	74.84875283446712	72	127
74.7326530612245	74.84875283446712	56	127
74.84875283446712	74.90680272108844	68	127
74.84875283446712	74.90680272108844	60	127
74.90680272108844	74.97646258503401	72	127
74.90680272108844	74.97646258503401	56	127
74.97646258503401	75.05773242630386	60	127
74.97646258503401	75.05773242630386	68	127
75.05773242630386	75.15061224489796	56	127
75.05773242630386	75.15061224489796	72	127
75.15061224489796	75.25510204081633	68	127
75.15061224489796	75.25510204081633	60	127
75.25510204081633	75.33637188208617	56	127
75.25510204081633	75.33637188208617	72	127
75.33637188208617	75.41764172335601	68	127
75.33637188208617	75.41764172335601	60	127
75.41764172335601	75.52213151927438	70	127
75.41764172335601	75.52213151927438	55	127
75.52213151927438	75.62662131519275	58	127
75.52213151927438	75.62662131519275	67	127
75.62662131519275	75.6730612244898	55	127
75.62662131519275	75.6730612244898	70	127
75.6730612244898	75.77755102040817	67	127
75.6730612244898	75.77755102040817	58	127
75.77755102040817	75.85879818594104	55	127
75.77755102040817	75.85879818594104	70	127
75.85879818594104	75.95170068027211	58	127
75.85879818594104	75.95170068027211	67	127
75.95170068027211	76.05619047619048	55	127
75.95170068027211	76.05619047619048	70	127
76.05619047619048	76.14907029478458	67	127
76.05619047619048	76.14907029478458	58	127
76.14907029478458	76.38126984126984	56	127
76.14907029478458	76.38126984126984	68	127
76.14907029478458	76.38126984126984	53	127
76.39287981859411	76.45092970521542	80	127
76.39287981859411	76.45092970521542	68	127
76.47412698412698	76.55541950113378	80	127
76.47412698412698	76.55541950113378	68	127
76.7063492063492	76.76439909297052	70	127
76.7063492063492	76.76439909297052	82	127
76.79922902494332	76.97337868480726	84	127
76.79922902494332	76.97337868480726	72	127
76.97337868480726	77.04303854875283	89	127
76.97337868480726	77.04303854875283	77	127
77.04303854875283	77.12430839002268	84	127
77.04303854875283	77.12430839002268	72	127
77.28684807256236	77.34489795918367	84	127
77.28684807256236	77.34489795918367	72	127
77.36809523809524	77.4609977324263	84	127
77.36809523809524	77.4609977324263	72	127
77.63514739229025	77.6815873015873	84	127
77.63514739229025	77.6815873015873	72	127
77.7164172335601	77.79768707482994	83	127
77.7164172335601	77.79768707482994	71	127
77.97183673469388	78.0298866213152	82	127
77.97183673469388	78.0298866213152	70	127
78.05310657596372	78.14598639455782	80	127
78.05310657596372	78.14598639455782	68	127
78.29691609977324	78.35496598639456	67	127
78.29691609977324	78.35496598639456	79	127
78.37818594104309	78.42462585034014	65	127
78.37818594104309	78.42462585034014	77	127
78.5639455782313	78.61038548752835	63	127
78.5639455782313	78.61038548752835	75	127
78.64519274376417	78.72648526077097	62	127
78.64519274376417	78.72648526077097	74	127
78.87741496598639	78.92385487528345	70	127
78.87741496598639	78.92385487528345	82	127
78.95868480725623	79.02832199546485	82	127
78.95868480725623	79.02832199546485	70	127
79.1908843537415	79.23732426303854	70	127
79.1908843537415	79.23732426303854	82	127
79.23732426303854	79.48113378684808	82	127
79.23732426303854	79.48113378684808	70	127
79.48113378684808	79.56240362811792	84	127
79.48113378684808	79.56240362811792	72	127
79.56240362811792	79.79458049886621	86	127
79.56240362811792	79.79458049886621	74	127
79.80621315192744	79.86426303854876	87	127
79.80621315192744	79.86426303854876	75	127
79.87587301587301	80.0384126984127	77	127
79.87587301587301	80.0384126984127	89	127
80.0384126984127	80.09646258503402	89	127
80.0384126984127	80.09646258503402	77	127
80.09646258503402	80.34027210884354	89	127
80.09646258503402	80.34027210884354	77	127
80.34027210884354	80.43312925170068	91	127
80.34027210884354	80.43312925170068	79	127
80.43312925170068	80.68854875283446	87	127
80.43312925170068	80.68854875283446	75	127
81.42	81.5592970521542	72	127
81.42	81.5592970521542	63	127
81.42	81.5592970521542	55	127
81.42	81.5592970521542	60	127
81.42	81.5592970521542	75	127
81.42	81.5592970521542	67	127
81.9888888888889	82.13981859410431	79	127
81.9888888888889	82.13981859410431	67	127
81.9888888888889	82.13981859410431	72	127
81.9888888888889	82.13981859410431	55	127
81.9888888888889	82.13981859410431	60	127
81.9888888888889	82.13981859410431	63	127
82.29074829931973	82.45326530612245	67	127
82.29074829931973	82.45326530612245	59	127
82.29074829931973	82.45326530612245	71	127
82.29074829931973	82.45326530612245	55	127
82.63904761904762	82.78997732426303	62	127
82.63904761904762	82.78997732426303	67	127
82.63904761904762	82.78997732426303	74	127
82.63904761904762	82.78997732426303	55	127
83.26598639455783	83.50979591836735	67	127
83.26598639455783	83.50979591836735	63	127
83.26598639455783	83.50979591836735	75	127
83.26598639455783	83.50979591836735	55	127
83.56784580498866	83.73036281179138	57	127
83.56784580498866	83.73036281179138	65	127
83.56784580498866	83.73036281179138	69	127
83.56784580498866	83.73036281179138	77	127
83.56784580498866	83.73036281179138	53	127
83.9045351473923	83.98578231292517	75	127
83.9045351473923	83.98578231292517	65	127
83.9045351473923	83.98578231292517	72	127
83.9045351473923	83.98578231292517	53	127
83.9045351473923	83.98578231292517	60	127
83.9045351473923	83.98578231292517	63	127
84.12512471655329	84.28766439909298	70	127
84.12512471655329	84.28766439909298	65	127
84.12512471655329	84.28766439909298	74	127
84.12512471655329	84.28766439909298	62	127
84.12512471655329	84.28766439909298	58	127
84.4385941043084	84.60111111111111	58	127
84.4385941043084	84.60111111111111	50	127
84.4385941043084	84.60111111111111	70	127
84.4385941043084	84.60111111111111	65	127
84.76367346938775	84.90299319727892	60	127
84.76367346938775	84.90299319727892	58	127
84.76367346938775	84.90299319727892	55	127
84.76367346938775	84.90299319727892	51	127
84.76367346938775	84.90299319727892	72	127
84.76367346938775	84.90299319727892	70	127
84.76367346938775	84.90299319727892	67	127
85.06553287981859	85.20485260770975	63	127
85.06553287981859	85.20485260770975	53	127
85.06553287981859	85.20485260770975	77	127
85.06553287981859	85.20485260770975	72	127
85.06553287981859	85.20485260770975	69	127
85.06553287981859	85.20485260770975	60	127
85.36736961451247	85.61120181405896	62	127
85.36736961451247	85.58798185941043	70	127
85.36736961451247	85.61120181405896	58	127
85.58798185941043	85.64603174603175	77	127
85.66925170068028	85.75049886621315	79	127
85.94789115646259	86.00591836734694	81	127
86.02916099773243	86.14526077097506	82	127
86.02916099773243	86.14526077097506	70	127
86.14526077097506	86.24975056689343	72	127
86.14526077097506	86.24975056689343	84	127
86.24975056689343	86.36582766439909	81	127
86.24975056689343	86.36582766439909	69	127
86.36582766439909	86.47034013605442	70	127
86.36582766439909	86.47034013605442	82	127
86.47034013605442	86.57482993197279	84	127
86.47034013605442	86.57482993197279	72	127
86.57482993197279	86.6677097505669	85	127
86.57482993197279	86.6677097505669	73	127
86.6677097505669	86.78380952380952	86	127
86.6677097505669	86.78380952380952	74	127
86.78380952380952	86.8534693877551	91	127
86.78380952380952	86.8534693877551	79	127
86.8534693877551	86.94634920634921	87	127
86.8534693877551	86.94634920634921	75	127
86.94634920634921	87.05083900226758	86	127
86.94634920634921	87.05083900226758	74	127
87.05083900226758	87.13208616780045	70	127
87.05083900226758	87.13208616780045	82	127
87.13208616780045	87.22498866213152	84	127
87.13208616780045	87.22498866213152	72	127
87.23659863945578	87.32947845804989	86	127
87.23659863945578	87.32947845804989	74	127
87.32947845804989	87.39913832199547	75	127
87.32947845804989	87.39913832199547	87	127
87.39913832199547	87.51521541950113	86	127
87.39913832199547	87.51521541950113	74	127
87.51521541950113	87.61972789115646	84	127
87.51521541950113	87.61972789115646	72	127
87.61972789115646	87.72421768707483	86	127
87.61972789115646	87.72421768707483	74	127
87.72421768707483	87.79387755102042	84	127
87.72421768707483	87.79387755102042	72	127
87.79387755102042	87.90997732426304	82	127
87.79387755102042	87.90997732426304	70	127
87.90997732426304	88.0260544217687	72	127
87.90997732426304	88.0260544217687	84	127
88.0260544217687	88.11895691609978	69	127
88.0260544217687	88.11895691609978	81	127
88.11895691609978	88.2350566893424	67	127
88.11895691609978	88.2350566893424	79	127
88.2350566893424	88.32793650793651	81	127
88.2350566893424	88.32793650793651	69	127
88.32793650793651	88.42081632653061	77	127
88.32793650793651	88.42081632653061	65	127
88.42081632653061	88.52530612244898	76	127
88.42081632653061	88.52530612244898	64	127
88.52530612244898	88.6414058956916	84	127
88.52530612244898	88.6414058956916	72	127
88.6414058956916	88.73428571428572	83	127
88.6414058956916	88.73428571428572	71	127
88.73428571428572	88.85038548752834	86	127
88.73428571428572	88.85038548752834	74	127
88.85038548752834	88.95487528344671	84	127
88.85038548752834	88.95487528344671	72	127
88.95487528344671	89.05936507936508	82	127
88.95487528344671	89.05936507936508	70	127
89.05936507936508	89.17544217687075	69	127
89.05936507936508	89.17544217687075	81	127
89.17544217687075	89.24512471655329	70	127
89.17544217687075	89.24512471655329	82	127
89.24512471655329	89.32639455782314	72	127
89.24512471655329	89.32639455782314	84	127
89.32639455782314	89.43086167800453	74	127
89.32639455782314	89.43086167800453	86	127
89.43086167800453	89.53537414965986	76	127
89.43086167800453	89.53537414965986	88	127
89.53537414965986	89.62825396825397	77	127
89.53537414965986	89.62825396825397	89	127
89.62825396825397	89.69791383219955	79	127
89.62825396825397	89.69791383219955	91	127
89.69791383219955	89.81399092970521	81	127
89.69791383219955	89.81399092970521	93	127
89.81399092970521	89.91848072562358	78	127
89.81399092970521	89.91848072562358	90	127
89.91848072562358	90.01138321995465	91	127
89.91848072562358	90.01138321995465	79	127
90.01138321995465	90.11587301587302	93	127
90.01138321995465	90.11587301587302	81	127
90.11587301587302	90.20875283446712	79	127
90.11587301587302	90.20875283446712	91	127
90.20875283446712	90.35968253968254	89	127
90.20875283446712	90.35968253968254	77	127
90.84730158730159	90.94015873015873	79	127
90.84730158730159	90.94015873015873	65	127
90.94015873015873	91.02145124716553	77	127
90.94015873015873	91.02145124716553	67	127
91.02145124716553	91.11433106575964	65	127
91.02145124716553	91.11433106575964	79	127
91.11433106575964	91.18399092970522	77	127
91.11433106575964	91.18399092970522	67	127
91.18399092970522	91.27687074829932	65	127
91.18399092970522	91.27687074829932	79	127
91.27687074829932	91.3465306122449	77	127
91.27687074829932	91.3465306122449	67	127
91.3465306122449	91.36975056689343	79	127
91.3465306122449	91.36975056689343	65	127
91.36975056689343	91.39297052154195	79	127
91.36975056689343	91.39297052154195	65	127
91.39297052154195	91.4509977324263	67	127
91.39297052154195	91.4509977324263	77	127
91.4509977324263	91.5322902494331	65	127
91.4509977324263	91.5322902494331	79	127
91.5322902494331	91.62517006802722	77	127
91.5322902494331	91.62517006802722	67	127
91.62517006802722	91.71804988662132	79	127
91.62517006802722	91.71804988662132	65	127
91.71804988662132	91.82253968253968	77	127
91.71804988662132	91.82253968253968	67	127
91.82253968253968	91.93863945578231	65	127
91.82253968253968	91.93863945578231	79	127
91.93863945578231	92.01990929705215	77	127
91.93863945578231	92.01990929705215	67	127
92.01990929705215	92.11278911564627	65	127
92.01990929705215	92.11278911564627	79	127
92.11278911564627	92.20566893424036	67	127
92.11278911564627	92.20566893424036	77	127
92.20566893424036	92.28693877551021	65	127
92.20566893424036	92.28693877551021	79	127
92.28693877551021	92.31015873015873	67	127
92.28693877551021	92.31015873015873	77	127
92.31015873015873	92.40303854875283	65	127
92.31015873015873	92.40303854875283	79	127
92.40303854875283	92.49591836734695	67	127
92.40303854875283	92.49591836734695	77	127
92.49591836734695	92.58879818594104	79	127
92.49591836734695	92.58879818594104	65	127
92.58879818594104	92.64684807256236	67	127
92.58879818594104	92.64684807256236	77	127
92.64684807256236	92.73972789115646	65	127
92.64684807256236	92.73972789115646	79	127
92.73972789115646	92.83260770975056	77	127
92.73972789115646	92.83260770975056	67	127
92.83260770975056	92.92548752834468	79	127
92.83260770975056	92.92548752834468	65	127
92.92548752834468	93.01836734693877	67	127
92.92548752834468	93.01836734693877	77	127
93.01836734693877	93.09963718820862	89	127
93.01836734693877	93.09963718820862	55	127
93.09963718820862	93.18090702947846	67	127
93.09963718820862	93.18090702947846	77	127
93.18090702947846	93.23893424036281	89	127
93.18090702947846	93.23893424036281	55	127
93.23893424036281	93.32022675736961	67	127
93.23893424036281	93.32022675736961	77	127
93.32022675736961	93.37827664399093	79	127
93.32022675736961	93.37827664399093	65	127
93.37827664399093	93.47113378684807	77	127
93.37827664399093	93.47113378684807	67	127
93.47113378684807	93.54081632653062	79	127
93.47113378684807	93.54081632653062	65	127
93.54081632653062	93.58725623582767	67	127
93.54081632653062	93.58725623582767	77	127
93.58725623582767	93.65691609977324	79	127
93.58725623582767	93.65691609977324	65	127
93.65691609977324	93.71496598639456	77	127
93.65691609977324	93.71496598639456	67	127
93.71496598639456	93.80784580498866	65	127
93.71496598639456	93.80784580498866	79	127
93.80784580498866	93.90072562358277	67	127
93.80784580498866	93.90072562358277	77	127
93.90072562358277	93.97038548752835	79	127
93.90072562358277	93.97038548752835	65	127
93.97038548752835	94.05165532879819	67	127
93.97038548752835	94.05165532879819	77	127
94.05165532879819	94.14453514739229	65	127
94.05165532879819	94.14453514739229	79	127
94.14453514739229	94.23739229024943	67	127
94.14453514739229	94.23739229024943	77	127
94.23739229024943	94.3302947845805	79	127
94.23739229024943	94.3302947845805	65	127
94.3302947845805	94.4231746031746	77	127
94.3302947845805	94.4231746031746	67	127
94.4231746031746	94.51603174603174	79	127
94.4231746031746	94.51603174603174	65	127
94.51603174603174	94.60893424036281	67	127
94.51603174603174	94.60893424036281	77	127
94.60893424036281	94.69020408163266	79	127
94.60893424036281	94.69020408163266	65	127
94.69020408163266	94.78308390022676	77	127
94.69020408163266	94.78308390022676	67	127
94.78308390022676	94.8759410430839	79	127
94.78308390022676	94.8759410430839	65	127
94.8759410430839	94.93401360544217	77	127
94.8759410430839	94.93401360544217	67	127
94.93401360544217	95.02689342403629	65	127
94.93401360544217	95.02689342403629	79	127
95.02689342403629	95.10816326530612	67	127
95.02689342403629	95.10816326530612	77	127
95.10816326530612	95.1778231292517	65	127
95.10816326530612	95.1778231292517	79	127
95.1778231292517	95.25909297052154	77	127
95.1778231292517	95.25909297052154	67	127
95.25909297052154	95.31714285714285	79	127
95.25909297052154	95.31714285714285	65	127
95.31714285714285	95.3984126984127	67	127
95.31714285714285	95.3984126984127	77	127
95.3984126984127	95.4912925170068	65	127
95.3984126984127	95.4912925170068	79	127
95.4912925170068	95.59578231292517	67	127
95.4912925170068	95.59578231292517	77	127
95.59578231292517	95.67705215419501	89	127
95.59578231292517	95.67705215419501	55	127
95.67705215419501	95.75832199546485	77	127
95.67705215419501	95.75832199546485	67	127
95.75832199546485	95.82798185941043	55	127
95.75832199546485	95.82798185941043	89	127
95.82798185941043	95.897641723356	77	127
95.82798185941043	95.897641723356	67	127
95.90925170068027	95.95569160997732	80	127
95.90925170068027	95.95569160997732	65	127
95.95569160997732	96.0253514739229	77	127
95.95569160997732	96.0253514739229	68	127
96.0253514739229	96.09501133786848	80	127
96.0253514739229	96.09501133786848	65	127
96.09501133786848	96.17628117913833	77	127
96.09501133786848	96.17628117913833	68	127
96.17628117913833	96.23433106575963	65	127
96.17628117913833	96.23433106575963	80	127
96.23433106575963	96.31560090702948	77	127
96.23433106575963	96.31560090702948	68	127
96.31560090702948	96.40848072562358	65	127
96.31560090702948	96.40848072562358	80	127
96.40848072562358	96.50136054421769	77	127
96.40848072562358	96.50136054421769	68	127
96.50136054421769	96.57102040816326	65	127
96.50136054421769	96.57102040816326	80	127
96.57102040816326	96.62907029478458	77	127
96.57102040816326	96.62907029478458	68	127
96.62907029478458	96.71034013605443	80	127
96.62907029478458	96.71034013605443	65	127
96.71034013605443	96.79160997732426	68	127
96.71034013605443	96.79160997732426	77	127
96.79160997732426	96.82643990929705	80	127
96.79160997732426	96.82643990929705	65	127
96.82643990929705	96.91931972789115	68	127
96.82643990929705	96.91931972789115	77	127
96.91931972789115	96.98897959183674	80	127
96.91931972789115	96.98897959183674	65	127
96.98897959183674	97.0934693877551	68	127
96.98897959183674	97.0934693877551	77	127
97.0934693877551	97.19795918367348	65	127
97.0934693877551	97.19795918367348	80	127
97.19795918367348	97.30244897959183	77	127
97.19795918367348	97.30244897959183	68	127
97.30244897959183	97.38371882086167	80	127
97.30244897959183	97.38371882086167	65	127
97.38371882086167	97.47659863945579	68	127
97.38371882086167	97.47659863945579	77	127
97.47659863945579	97.56947845804989	80	127
97.47659863945579	97.56947845804989	65	127
97.56947845804989	97.6275283446712	68	127
97.56947845804989	97.6275283446712	77	127
97.6275283446712	97.73201814058957	80	127
97.6275283446712	97.73201814058957	65	127
97.73201814058957	97.80167800453515	68	127
97.73201814058957	97.80167800453515	77	127
97.80167800453515	97.89455782312925	80	127
97.80167800453515	97.89455782312925	65	127
97.89455782312925	97.98743764172336	77	127
97.89455782312925	97.98743764172336	68	127
97.98743764172336	98.06870748299319	80	127
97.98743764172336	98.06870748299319	65	127
98.06870748299319	98.12675736961451	77	127
98.06870748299319	98.12675736961451	68	127
98.12675736961451	98.20802721088435	53	127
98.12675736961451	98.20802721088435	89	127
98.20802721088435	98.26607709750567	65	127
98.20802721088435	98.26607709750567	77	127
98.26607709750567	98.2892970521542	89	127
98.26607709750567	98.2892970521542	53	127
98.2892970521542	98.35895691609977	77	127
98.2892970521542	98.35895691609977	65	127
98.35895691609977	98.9162358276644	89	127
98.35895691609977	98.9162358276644	77	127
98.35895691609977	98.8233560090703	29	127
98.35895691609977	100.90154195011338	41	127
98.9162358276644	99.64766439909297	81	127
98.9162358276644	99.64766439909297	93	127
99.64766439909297	99.99596371882086	88	127
99.64766439909297	99.99596371882086	76	127
99.99596371882086	100.36748299319729	79	127
99.99596371882086	100.36748299319729	91	127
100.36748299319729	100.82027210884354	89	127
100.36748299319729	100.82027210884354	77	127
100.82027210884354	100.98281179138321	86	127
100.82027210884354	100.98281179138321	74	127
100.99442176870748	101.6213605442177	84	127
100.99442176870748	101.6213605442177	72	127
100.99442176870748	103.76920634920634	41	127
101.6213605442177	102.22507936507937	76	127
101.6213605442177	102.22507936507937	88	127
102.22507936507937	102.53854875283447	82	127
102.22507936507937	102.53854875283447	70	127
102.53854875283447	102.88684807256236	74	127
102.53854875283447	102.88684807256236	86	127
102.88684807256236	103.30480725623583	84	127
102.88684807256236	103.30480725623583	72	127
103.30480725623583	103.49056689342403	81	127
103.30480725623583	103.49056689342403	69	127
103.49056689342403	104.0710657596372	65	127
103.49056689342403	104.0710657596372	77	127
103.8156462585034	104.4425850340136	29	127
103.8156462585034	104.4425850340136	41	127
104.15233560090702	104.70961451247166	72	127
104.15233560090702	104.70961451247166	84	127
104.50063492063492	104.70961451247166	41	127
104.50063492063492	104.70961451247166	29	127
104.75605442176871	105.31333333333333	81	127
104.75605442176871	105.31333333333333	69	127
105.09274376417234	105.68485260770976	29	127
105.09274376417234	105.68485260770976	41	127
105.3829931972789	105.917052154195	74	127
105.3829931972789	105.917052154195	86	127
105.74290249433106	106.25374149659864	29	127
105.74290249433106	106.25374149659864	41	127
105.99832199546485	106.31179138321995	84	127
105.99832199546485	106.31179138321995	72	127
106.31179138321995	106.60204081632654	77	127
106.31179138321995	106.60204081632654	89	127
106.31179138321995	107.53083900226757	41	127
106.31179138321995	107.53083900226757	29	127
106.60204081632654	106.93873015873015	91	127
106.60204081632654	106.93873015873015	79	127
106.93873015873015	107.18253968253968	81	127
106.93873015873015	107.18253968253968	93	127
107.25219954648526	107.58888888888889	79	127
107.25219954648526	107.58888888888889	91	127
107.58888888888889	107.85591836734694	77	127
107.58888888888889	108.11133786848073	29	127
107.58888888888889	108.11133786848073	41	127
107.58888888888889	107.85591836734694	89	127
107.85591836734694	108.14616780045351	81	127
107.85591836734694	108.14616780045351	69	127
108.14616780045351	108.42480725623582	72	127
108.14616780045351	108.42480725623582	84	127
108.14616780045351	108.7498866213152	29	127
108.14616780045351	108.7498866213152	41	127
108.49446712018141	109.07496598639456	65	127
108.49446712018141	109.07496598639456	77	127
108.79632653061225	109.40004535147392	41	127
108.79632653061225	109.40004535147392	29	127
109.07496598639456	109.63224489795918	84	127
109.07496598639456	109.63224489795918	72	127
109.4697052154195	109.92249433106576	41	127
109.4697052154195	109.92249433106576	29	127
109.63224489795918	110.28240362811792	81	127
109.63224489795918	110.28240362811792	69	127
109.95732426303854	110.57265306122449	41	127
109.95732426303854	110.57265306122449	29	127
110.28240362811792	110.78163265306122	74	127
110.28240362811792	110.78163265306122	86	127
110.61909297052154	111.1647619047619	29	127
110.61909297052154	111.1647619047619	41	127
110.87451247165532	111.23442176870748	84	127
110.87451247165532	111.23442176870748	72	127
111.23442176870748	111.57111111111111	77	127
111.23442176870748	111.57111111111111	89	127
111.23442176870748	112.11678004535148	41	127
111.23442176870748	112.11678004535148	29	127
111.57111111111111	111.90780045351474	79	127
111.57111111111111	111.90780045351474	91	127
111.90780045351474	112.15160997732427	93	127
111.90780045351474	112.15160997732427	81	127
112.20965986394557	112.55795918367347	79	127
112.20965986394557	112.55795918367347	91	127
112.55795918367347	113.06879818594105	29	127
112.55795918367347	112.83659863945579	89	127
112.55795918367347	113.06879818594105	41	127
112.55795918367347	112.83659863945579	77	127
112.83659863945579	113.10362811791383	81	127
112.83659863945579	113.10362811791383	69	127
113.10362811791383	113.45192743764173	84	127
113.10362811791383	113.45192743764173	72	127
113.10362811791383	113.66090702947845	41	127
113.10362811791383	113.66090702947845	29	127
113.45192743764173	113.66090702947845	77	127
113.45192743764173	113.66090702947845	65	127
115.32113378684807	116.0061224489796	62	127
115.32113378684807	116.0061224489796	60	127
115.32113378684807	116.0061224489796	57	127
115.32113378684807	116.0061224489796	50	127
115.32113378684807	115.83197278911565	86	127
115.32113378684807	115.83197278911565	78	127
115.32113378684807	115.83197278911565	74	127
115.83197278911565	115.89002267573696	84	127
115.89002267573696	115.94807256235828	82	127
115.94807256235828	116.0061224489796	81	127
116.0061224489796	116.18027210884354	62	127
116.0061224489796	116.18027210884354	79	127
116.0061224489796	116.18027210884354	58	127
116.0061224489796	116.18027210884354	55	127
117.8869387755102	118.53709750566894	55	127
117.8869387755102	118.53709750566894	79	127
117.8869387755102	118.53709750566894	74	127
117.8869387755102	118.53709750566894	71	127
117.8869387755102	118.53709750566894	65	127
117.8869387755102	118.53709750566894	62	127
117.8869387755102	118.53709750566894	83	127
118.53709750566894	118.66480725623583	60	127
118.53709750566894	118.66480725623583	64	127
118.53709750566894	118.66480725623583	79	127
118.53709750566894	118.66480725623583	76	127
118.53709750566894	118.66480725623583	72	127
118.53709750566894	118.66480725623583	84	127
119.16403628117914	119.44267573696145	77	127
119.16403628117914	119.44267573696145	72	127
119.16403628117914	119.44267573696145	69	127
119.16403628117914	119.81419501133787	60	127
119.16403628117914	119.81419501133787	53	127
119.16403628117914	119.81419501133787	63	127
119.44267573696145	119.53555555555556	79	127
119.53555555555556	119.61682539682539	81	127
119.61682539682539	119.72131519274376	82	127
119.72131519274376	119.81419501133787	84	127
119.81419501133787	119.90707482993197	62	127
119.81419501133787	119.90707482993197	86	127
119.81419501133787	119.90707482993197	58	127
120.04639455782313	120.13927437641723	74	127
120.04639455782313	120.13927437641723	86	127
120.13927437641723	120.18571428571428	88	127
120.13927437641723	120.18571428571428	76	127
120.18571428571428	120.26698412698413	89	127
120.18571428571428	120.26698412698413	77	127
120.26698412698413	120.3714739229025	79	127
120.26698412698413	120.3714739229025	91	127
120.3714739229025	120.52240362811791	93	127
120.3714739229025	120.52240362811791	81	127
120.59206349206349	120.7778231292517	96	127
120.59206349206349	120.7778231292517	88	127
120.59206349206349	120.7778231292517	91	127
120.59206349206349	120.7778231292517	72	127
120.59206349206349	120.7778231292517	79	127
120.59206349206349	120.7778231292517	82	127
120.98680272108844	121.60213151927438	77	127
120.98680272108844	121.60213151927438	65	127
121.66018140589568	122.17102040816326	81	127
121.66018140589568	122.17102040816326	69	127
122.26390022675737	122.34517006802722	57	127
122.26390022675737	122.34517006802722	69	127
122.58897959183673	122.68185941043085	61	127
122.58897959183673	122.68185941043085	73	127
122.93727891156463	123.5409977324263	70	127
122.93727891156463	123.5409977324263	65	127
122.93727891156463	123.5409977324263	62	127
122.93727891156463	123.5409977324263	46	127
122.93727891156463	123.5409977324263	74	127
122.93727891156463	123.5409977324263	56	127
122.93727891156463	123.5409977324263	53	127
123.5409977324263	123.83124716553289	75	127
123.5409977324263	123.83124716553289	67	127
123.5409977324263	123.83124716553289	63	127
123.5409977324263	123.83124716553289	51	127
123.5409977324263	123.83124716553289	55	127
123.5409977324263	123.83124716553289	70	127
125.4566439909297	125.96748299319728	68	127
125.4566439909297	125.96748299319728	60	127
125.4566439909297	125.96748299319728	63	127
125.4566439909297	125.96748299319728	44	127
125.4566439909297	125.96748299319728	51	127
125.4566439909297	125.96748299319728	54	127
126.06036281179138	126.64086167800454	73	127
126.06036281179138	126.64086167800454	49	127
126.06036281179138	126.64086167800454	37	127
126.06036281179138	126.64086167800454	61	127
126.72213151927437	127.26780045351474	77	127
126.72213151927437	127.26780045351474	65	127
126.72213151927437	127.26780045351474	41	127
126.72213151927437	127.26780045351474	53	127
127.33746031746031	127.41873015873016	44	127
127.33746031746031	127.41873015873016	56	127
127.33746031746031	127.41873015873016	68	127
127.33746031746031	127.41873015873016	32	127
127.66253968253969	127.74380952380952	48	127
127.66253968253969	127.74380952380952	60	127
127.66253968253969	127.74380952380952	72	127
127.66253968253969	127.74380952380952	36	127
128.01083900226757	128.08049886621316	61	127
128.01083900226757	128.08049886621316	73	127
128.01083900226757	128.08049886621316	37	127
128.01083900226757	128.08049886621316	49	127
128.2894784580499	128.35913832199546	51	127
128.2894784580499	128.35913832199546	39	127
128.2894784580499	128.35913832199546	75	127
128.2894784580499	128.35913832199546	63	127
128.59133786848074	128.68421768707483	65	127
128.59133786848074	128.68421768707483	77	127
128.59133786848074	128.68421768707483	41	127
128.59133786848074	128.68421768707483	53	127
128.9628344671202	129.00927437641724	55	127
128.9628344671202	129.00927437641724	43	127
128.9628344671202	129.00927437641724	79	127
128.9628344671202	129.00927437641724	67	127
129.2298866213152	129.29954648526078	68	127
129.2298866213152	129.29954648526078	80	127
129.2298866213152	129.29954648526078	44	127
129.2298866213152	129.29954648526078	56	127
129.49691609977324	129.6014058956916	58	127
129.49691609977324	129.6014058956916	70	127
129.49691609977324	129.6014058956916	82	127
129.49691609977324	129.6014058956916	46	127
129.7755328798186	130.41410430839002	48	127
129.7755328798186	130.41410430839002	60	127
129.7755328798186	130.41410430839002	57	127
129.7755328798186	130.41410430839002	84	127
129.7755328798186	130.41410430839002	81	127
129.7755328798186	130.41410430839002	72	127
130.50698412698412	131.00619047619048	85	127
130.50698412698412	131.00619047619048	52	127
130.50698412698412	131.00619047619048	57	127
130.50698412698412	131.00619047619048	73	127
130.50698412698412	131.00619047619048	81	127
130.50698412698412	131.00619047619048	45	127
131.07587301587301	131.6795918367347	52	127
131.07587301587301	131.6795918367347	76	127
131.07587301587301	131.6795918367347	85	127
131.07587301587301	131.6795918367347	88	127
131.07587301587301	131.6795918367347	45	127
131.07587301587301	131.6795918367347	57	127
131.78408163265306	132.45746031746032	77	127
131.78408163265306	132.45746031746032	53	127
131.78408163265306	132.45746031746032	51	127
131.78408163265306	132.45746031746032	48	127
131.78408163265306	132.45746031746032	41	127
131.78408163265306	132.45746031746032	89	127
131.78408163265306	132.45746031746032	84	127
131.78408163265306	132.45746031746032	81	127
132.45746031746032	132.58517006802722	86	127
132.45746031746032	132.58517006802722	77	127
132.45746031746032	132.58517006802722	53	127
132.45746031746032	132.58517006802722	50	127
132.45746031746032	132.58517006802722	46	127
132.45746031746032	132.58517006802722	82	127
132.63160997732427	132.72448979591837	74	127
132.63160997732427	132.72448979591837	86	127
132.72448979591837	132.81736961451247	76	127
132.72448979591837	132.81736961451247	88	127
132.81736961451247	132.86380952380952	77	127
132.81736961451247	132.86380952380952	89	127
132.86380952380952	132.9450566893424	79	127
132.86380952380952	132.9450566893424	91	127
132.9450566893424	133.08439909297053	93	127
132.9450566893424	133.08439909297053	81	127
133.27015873015873	133.32820861678005	91	127
133.27015873015873	133.32820861678005	79	127
133.27015873015873	133.32820861678005	76	127
133.27015873015873	133.32820861678005	72	127
133.27015873015873	133.32820861678005	88	127
133.27015873015873	133.32820861678005	84	127
133.6184580498866	134.2802267573696	60	127
133.6184580498866	134.2802267573696	72	127
133.6184580498866	134.2802267573696	81	127
133.6184580498866	134.2802267573696	84	127
133.6184580498866	134.2802267573696	48	127
133.6184580498866	134.2802267573696	57	127
134.37310657596373	134.95360544217687	85	127
134.37310657596373	134.95360544217687	81	127
134.37310657596373	134.95360544217687	73	127
134.37310657596373	134.95360544217687	57	127
134.37310657596373	134.95360544217687	45	127
134.37310657596373	134.95360544217687	52	127
135.05809523809523	135.4180045351474	45	127
135.05809523809523	135.4180045351474	76	127
135.05809523809523	135.4180045351474	81	127
135.05809523809523	135.4180045351474	85	127
135.05809523809523	135.4180045351474	88	127
135.05809523809523	135.4180045351474	52	127
135.05809523809523	135.4180045351474	57	127
135.4760544217687	136.17265306122448	81	127
135.4760544217687	136.17265306122448	77	127
135.4760544217687	136.17265306122448	41	127
135.4760544217687	136.17265306122448	48	127
135.4760544217687	136.17265306122448	51	127
135.4760544217687	136.17265306122448	53	127
135.4760544217687	136.17265306122448	84	127
135.4760544217687	136.17265306122448	89	127
136.17265306122448	136.33519274376417	53	127
136.17265306122448	136.33519274376417	50	127
136.17265306122448	136.33519274376417	46	127
136.17265306122448	136.33519274376417	86	127
136.17265306122448	136.33519274376417	82	127
136.17265306122448	136.33519274376417	77	127
136.5209523809524	136.57897959183674	74	127
136.5209523809524	136.57897959183674	86	127
136.57897959183674	136.66027210884354	76	127
136.57897959183674	136.66027210884354	88	127
136.66027210884354	136.72990929705216	77	127
136.66027210884354	136.72990929705216	89	127
136.72990929705216	136.81120181405896	91	127
136.72990929705216	136.81120181405896	79	127
136.81120181405896	136.93891156462584	93	127
136.81120181405896	136.93891156462584	81	127
137.05501133786848	137.10145124716553	76	127
137.05501133786848	137.10145124716553	79	127
137.05501133786848	137.10145124716553	84	127
137.05501133786848	137.10145124716553	88	127
137.05501133786848	137.10145124716553	91	127
137.05501133786848	137.10145124716553	72	127
137.35687074829931	137.41492063492063	81	127
137.35687074829931	137.41492063492063	84	127
137.35687074829931	137.41492063492063	89	127
137.35687074829931	137.41492063492063	65	127
137.35687074829931	137.41492063492063	69	127
137.35687074829931	137.41492063492063	72	127
137.35687074829931	137.41492063492063	77	127
137.63551020408164	137.7051700680272	72	127
137.63551020408164	137.7051700680272	76	127
137.63551020408164	137.7051700680272	79	127
137.63551020408164	137.72839002267574	60	127
137.63551020408164	137.72839002267574	64	127
137.63551020408164	137.72839002267574	67	127
137.94897959183675	137.9954195011338	72	127
137.94897959183675	137.9954195011338	77	127
137.94897959183675	137.9954195011338	81	127
137.94897959183675	138.0186394557823	65	127
137.94897959183675	138.0186394557823	69	127
138.2740589569161	138.3088888888889	72	127
138.2740589569161	138.3088888888889	76	127
138.2740589569161	138.3088888888889	79	127
138.2740589569161	138.32049886621314	60	127
138.2740589569161	138.32049886621314	64	127
138.2740589569161	138.32049886621314	67	127
138.5643083900227	138.59913832199547	77	127
138.5643083900227	138.59913832199547	72	127
138.5643083900227	138.62233560090704	65	127
138.5643083900227	138.62233560090704	69	127
138.5643083900227	138.59913832199547	81	127
138.84294784580499	138.85455782312926	64	127
138.84294784580499	138.85455782312926	60	127
138.84294784580499	138.85455782312926	67	127
138.84294784580499	138.85455782312926	79	127
138.84294784580499	138.85455782312926	76	127
138.84294784580499	138.85455782312926	72	127
139.09836734693877	139.1215873015873	72	127
139.09836734693877	139.1215873015873	77	127
139.09836734693877	139.1215873015873	81	127
139.09836734693877	139.1215873015873	65	127
139.09836734693877	139.1215873015873	69	127
139.29573696145124	139.35378684807256	67	127
139.29573696145124	139.35378684807256	60	127
139.29573696145124	139.35378684807256	79	127
139.29573696145124	139.35378684807256	72	127
139.64401360544218	139.71369614512471	69	127
139.64401360544218	139.71369614512471	72	127
139.64401360544218	139.71369614512471	77	127
139.64401360544218	139.71369614512471	57	127
139.64401360544218	139.71369614512471	60	127
139.64401360544218	139.71369614512471	65	127
139.9691156462585	140.00392290249434	84	127
139.9691156462585	140.00392290249434	88	127
139.9691156462585	140.00392290249434	91	127
139.9691156462585	140.00392290249434	72	127
139.9691156462585	140.00392290249434	76	127
139.9691156462585	140.00392290249434	79	127
140.25934240362812	140.2825850340136	84	127
140.25934240362812	140.2825850340136	89	127
140.25934240362812	140.2825850340136	93	127
140.25934240362812	140.2825850340136	72	127
140.25934240362812	140.2825850340136	77	127
140.25934240362812	140.2825850340136	81	127
140.54961451247166	140.60766439909298	72	127
140.54961451247166	140.60766439909298	84	127
140.54961451247166	140.60766439909298	88	127
140.54961451247166	140.60766439909298	91	127
140.54961451247166	140.60766439909298	76	127
140.54961451247166	140.60766439909298	79	127
140.8514739229025	140.89791383219955	72	127
140.8514739229025	140.89791383219955	81	127
140.8514739229025	140.89791383219955	77	127
140.8514739229025	140.89791383219955	84	127
140.8514739229025	140.89791383219955	93	127
140.8514739229025	140.89791383219955	89	127
141.1649433106576	141.18816326530612	84	127
141.1649433106576	141.18816326530612	72	127
141.1649433106576	141.18816326530612	79	127
141.1649433106576	141.18816326530612	76	127
141.1649433106576	141.18816326530612	91	127
141.1649433106576	141.18816326530612	88	127
141.46680272108844	141.49002267573695	81	127
141.46680272108844	141.49002267573695	89	127
141.46680272108844	141.49002267573695	84	127
141.46680272108844	141.49002267573695	77	127
141.46680272108844	141.49002267573695	72	127
141.46680272108844	141.49002267573695	93	127
141.98925170068028	142.151768707483	81	127
141.98925170068028	142.151768707483	84	127
141.98925170068028	142.151768707483	89	127
141.98925170068028	142.151768707483	69	127
141.98925170068028	142.151768707483	77	127
142.30269841269842	142.43043083900227	72	127
142.30269841269842	142.43043083900227	67	127
142.30269841269842	142.43043083900227	84	127
142.30269841269842	142.43043083900227	79	127
142.5581179138322	142.72068027210884	69	127
142.5581179138322	142.72068027210884	65	127
142.5581179138322	142.72068027210884	81	127
142.5581179138322	142.72068027210884	77	127
142.87160997732425	142.99931972789116	67	127
142.87160997732425	142.99931972789116	72	127
142.87160997732425	142.99931972789116	60	127
142.87160997732425	142.99931972789116	79	127
143.1386394557823	143.27795918367346	69	127
143.1386394557823	143.27795918367346	77	127
143.1386394557823	143.27795918367346	57	127
143.1386394557823	143.27795918367346	65	127
143.4637188208617	143.57979591836735	67	127
143.4637188208617	143.57979591836735	72	127
143.4637188208617	143.57979591836735	55	127
143.4637188208617	143.57979591836735	60	127
143.73072562358277	143.88167800453516	65	127
143.73072562358277	143.88167800453516	53	127
143.73072562358277	143.88167800453516	57	127
143.73072562358277	143.88167800453516	69	127
144.04421768707482	144.13709750566895	55	127
144.04421768707482	144.13709750566895	48	127
144.04421768707482	144.13709750566895	67	127
144.04421768707482	144.13709750566895	60	127
144.33446712018142	144.48539682539683	57	127
144.33446712018142	144.48539682539683	65	127
144.33446712018142	144.48539682539683	45	127
144.33446712018142	144.48539682539683	53	127
144.63632653061225	144.70596371882087	60	127
144.63632653061225	144.70596371882087	67	127
144.63632653061225	144.70596371882087	48	127
144.63632653061225	144.70596371882087	55	127
144.9033560090703	145.01945578231292	65	127
144.9033560090703	145.01945578231292	45	127
144.9033560090703	145.01945578231292	53	127
144.9033560090703	145.01945578231292	57	127
145.20521541950114	145.35614512471656	60	127
145.20521541950114	145.35614512471656	67	127
145.20521541950114	145.35614512471656	48	127
145.20521541950114	145.35614512471656	55	127
145.50707482993198	145.69283446712018	57	127
145.50707482993198	145.69283446712018	45	127
145.50707482993198	145.69283446712018	53	127
145.50707482993198	145.69283446712018	65	127
145.77410430839004	145.89020408163265	48	127
145.77410430839004	145.89020408163265	60	127
145.77410430839004	145.89020408163265	67	127
145.77410430839004	145.89020408163265	55	127
146.05274376417233	146.18045351473924	57	127
146.05274376417233	146.18045351473924	65	127
146.05274376417233	146.18045351473924	45	127
146.05274376417233	146.18045351473924	53	127
146.35460317460317	146.5055328798186	55	127
146.35460317460317	146.5055328798186	60	127
146.35460317460317	146.5055328798186	67	127
146.35460317460317	146.5055328798186	48	127
146.70290249433106	146.99315192743765	41	127
146.70290249433106	146.99315192743765	57	127
146.70290249433106	146.99315192743765	65	127
146.70290249433106	146.99315192743765	45	127
146.70290249433106	146.99315192743765	53	127
149.09455782312926	149.59378684807257	41	127
149.09455782312926	149.59378684807257	53	127
149.09455782312926	149.59378684807257	77	127
149.09455782312926	149.59378684807257	65	127
149.68666666666667	150.09301587301587	57	127
149.68666666666667	150.09301587301587	81	127
149.68666666666667	150.09301587301587	69	127
149.68666666666667	150.09301587301587	45	127
150.18589569160997	150.25555555555556	69	127
150.18589569160997	150.25555555555556	45	127
150.18589569160997	150.25555555555556	57	127
150.52258503401362	150.62707482993198	59	127
150.52258503401362	150.62707482993198	47	127
150.52258503401362	150.62707482993198	71	127
150.83603174603175	151.4049433106576	55	127
150.83603174603175	151.4049433106576	60	127
150.83603174603175	151.4049433106576	64	127
150.83603174603175	151.4049433106576	67	127
150.83603174603175	151.4049433106576	72	127
150.83603174603175	151.4049433106576	48	127
150.83603174603175	151.4049433106576	58	127
150.83603174603175	151.4049433106576	52	127
150.83603174603175	151.4049433106576	70	127
151.4049433106576	151.69519274376418	60	127
151.4049433106576	151.69519274376418	57	127
151.4049433106576	151.69519274376418	65	127
151.4049433106576	151.69519274376418	69	127
151.4049433106576	151.69519274376418	53	127
153.8894784580499	154.42353741496598	65	127
153.8894784580499	154.42353741496598	77	127
153.8894784580499	154.42353741496598	41	127
153.8894784580499	154.42353741496598	53	127
154.51639455782313	154.864716553288	69	127
154.51639455782313	154.864716553288	81	127
154.51639455782313	154.864716553288	45	127
154.51639455782313	154.864716553288	57	127
154.94598639455782	155.0156462585034	57	127
154.94598639455782	155.0156462585034	69	127
154.94598639455782	155.0156462585034	45	127
155.28267573696147	155.37555555555556	70	127
155.28267573696147	155.37555555555556	46	127
155.28267573696147	155.37555555555556	58	127
155.61936507936508	156.2578911564626	55	127
155.61936507936508	156.2578911564626	58	127
155.61936507936508	156.2578911564626	64	127
155.61936507936508	156.2578911564626	67	127
155.61936507936508	156.2578911564626	70	127
155.61936507936508	156.2578911564626	72	127
155.61936507936508	156.2578911564626	48	127
156.2578911564626	156.50172335600908	56	127
156.2578911564626	156.50172335600908	73	127
156.2578911564626	156.50172335600908	68	127
156.2578911564626	156.50172335600908	53	127
156.2578911564626	156.50172335600908	49	127
156.2578911564626	156.50172335600908	65	127
158.6263492063492	159.1255782312925	49	127
158.89337868480726	159.4158276643991	56	127
158.89337868480726	159.4158276643991	65	127
158.89337868480726	159.4158276643991	61	127
159.1719954648526	159.764126984127	49	127
159.5087074829932	159.6015873015873	61	127
159.5087074829932	159.6015873015873	56	127
159.5087074829932	159.6015873015873	65	127
159.84539682539682	159.9150566893424	56	127
159.84539682539682	159.9150566893424	49	127
159.84539682539682	159.9150566893424	61	127
159.84539682539682	159.9150566893424	65	127
159.97310657596373	159.99632653061224	66	127
159.97310657596373	159.99632653061224	49	127
159.97310657596373	159.99632653061224	56	127
159.97310657596373	159.99632653061224	60	127
160.24013605442178	160.7974149659864	49	127
160.60002267573697	161.13410430839002	65	127
160.60002267573697	161.13410430839002	56	127
160.60002267573697	161.13410430839002	61	127
160.8902947845805	161.44757369614513	49	127
161.2153514739229	161.2966439909297	56	127
161.2153514739229	161.2966439909297	61	127
161.2153514739229	161.2966439909297	65	127
161.4824036281179	161.5520634920635	56	127
161.4824036281179	161.5520634920635	61	127
161.4824036281179	161.5520634920635	49	127
161.4824036281179	161.5520634920635	65	127
161.76104308390023	161.85392290249433	56	127
161.76104308390023	161.85392290249433	60	127
161.76104308390023	161.85392290249433	63	127
161.76104308390023	161.85392290249433	49	127
162.10934240362812	162.70142857142858	49	127
162.457641723356	163.03814058956917	61	127
162.457641723356	163.03814058956917	65	127
162.457641723356	163.03814058956917	56	127
162.78272108843538	163.4096598639456	49	127
163.13102040816327	163.21226757369615	65	127
163.13102040816327	163.21226757369615	56	127
163.13102040816327	163.21226757369615	61	127
163.5025396825397	163.5954195011338	49	127
163.5025396825397	163.5954195011338	65	127
163.5025396825397	163.5954195011338	61	127
163.5025396825397	163.5954195011338	56	127
163.82761904761904	163.85083900226758	49	127
163.82761904761904	163.85083900226758	66	127
163.82761904761904	163.85083900226758	60	127
163.82761904761904	163.85083900226758	56	127
163.96693877551022	164.5706575963719	49	127
164.3152380952381	164.9073469387755	56	127
164.3152380952381	164.9073469387755	65	127
164.3152380952381	164.9073469387755	61	127
164.6402947845805	165.25562358276645	49	127
164.98861678004536	165.08149659863946	65	127
164.98861678004536	165.08149659863946	56	127
164.98861678004536	165.08149659863946	61	127
165.34852607709752	165.40655328798186	56	127
165.34852607709752	165.40655328798186	49	127
165.34852607709752	165.40655328798186	65	127
165.34852607709752	165.40655328798186	61	127
165.77809523809523	166.39342403628117	49	127
166.12639455782312	166.70689342403628	65	127
166.12639455782312	166.70689342403628	56	127
166.12639455782312	166.70689342403628	61	127
166.47469387755103	167.04356009070295	49	127
166.79977324263038	166.88104308390024	61	127
166.79977324263038	166.88104308390024	65	127
166.79977324263038	166.88104308390024	56	127
167.13646258503402	167.18290249433107	56	127
167.13646258503402	167.18290249433107	61	127
167.13646258503402	167.18290249433107	65	127
167.13646258503402	167.18290249433107	49	127
167.3338321995465	167.4267120181406	56	127
167.3338321995465	167.4267120181406	61	127
167.3338321995465	167.4267120181406	65	127
167.3338321995465	167.4267120181406	49	127
167.6588888888889	168.22780045351473	49	127
168.00721088435375	168.51804988662133	60	127
168.00721088435375	168.51804988662133	66	127
168.00721088435375	168.51804988662133	56	127
168.29746031746032	168.84312925170067	49	127
168.5877097505669	168.68056689342404	66	127
168.5877097505669	168.68056689342404	60	127
168.5877097505669	168.68056689342404	56	127
168.901179138322	168.9940589569161	66	127
168.901179138322	168.9940589569161	49	127
168.901179138322	168.9940589569161	61	127
168.901179138322	168.9940589569161	56	127
169.2146485260771	169.23786848072564	63	127
169.2146485260771	169.23786848072564	49	127
169.2146485260771	169.23786848072564	66	127
169.2146485260771	169.23786848072564	56	127
169.49328798185942	170.0273469387755	49	127
169.77192743764172	170.35242630385488	65	127
169.77192743764172	170.35242630385488	56	127
169.77192743764172	170.35242630385488	61	127
170.0970068027211	170.66589569161	49	127
170.4336961451247	170.5033560090703	56	127
170.4336961451247	170.5033560090703	65	127
170.4336961451247	170.5033560090703	61	127
170.7587755102041	170.8168253968254	65	127
170.7587755102041	170.8168253968254	49	127
170.7587755102041	170.8168253968254	61	127
170.7587755102041	170.8168253968254	56	127
170.9097052154195	171.0025850340136	49	127
170.9097052154195	171.0025850340136	65	127
170.9097052154195	171.0025850340136	61	127
170.9097052154195	171.0025850340136	56	127
171.2347619047619	171.81528344671202	49	127
171.55986394557823	171.94299319727892	66	127
171.55986394557823	171.94299319727892	60	127
171.55986394557823	171.94299319727892	56	127
171.8849433106576	172.03587301587302	49	127
171.98943310657597	172.01265306122448	66	127
171.98943310657597	172.01265306122448	56	127
171.98943310657597	172.01265306122448	60	127
172.11714285714285	172.21002267573695	61	127
172.11714285714285	172.21002267573695	66	127
172.11714285714285	172.21002267573695	49	127
172.11714285714285	172.21002267573695	56	127
172.477052154195	172.55832199546487	49	127
172.477052154195	172.55832199546487	66	127
172.477052154195	172.55832199546487	63	127
172.477052154195	172.55832199546487	56	127
172.7905215419501	173.08077097505668	49	127
172.7905215419501	173.08077097505668	65	127
172.7905215419501	173.08077097505668	61	127
172.7905215419501	173.08077097505668	56	127
173.138820861678	173.44068027210884	61	127
173.138820861678	173.44068027210884	65	127
173.138820861678	173.19687074829932	68	127
173.32458049886623	173.38260770975057	68	127
173.49873015873015	173.77736961451248	49	127
173.49873015873015	173.66126984126984	68	127
173.66126984126984	173.8354195011338	70	127
173.8354195011338	174.12566893424037	65	127
173.8354195011338	174.12566893424037	61	127
173.8354195011338	174.00956916099773	70	127
174.00956916099773	174.17210884353742	72	127
174.18371882086169	174.36947845804988	72	127
174.18371882086169	174.48557823129252	49	127
174.36947845804988	174.53201814058957	73	127
174.53201814058957	174.70616780045353	73	127
174.53201814058957	174.79904761904763	65	127
174.53201814058957	174.79904761904763	61	127
174.70616780045353	174.84548752834468	75	127
174.84548752834468	175.07768707482992	49	127
174.84548752834468	174.96158730158731	75	127
174.96158730158731	175.11251700680273	77	127
175.12412698412697	175.29827664399093	77	127
175.12412698412697	175.41437641723357	60	127
175.12412698412697	175.41437641723357	63	127
175.29827664399093	175.48403628117913	78	127
175.48403628117913	175.64657596371882	78	127
175.48403628117913	175.76267573696146	49	127
175.64657596371882	175.77428571428572	80	127
175.78587301587302	176.00648526077097	60	127
175.78587301587302	176.00648526077097	63	127
175.78587301587302	175.92521541950114	80	127
175.92521541950114	176.0412925170068	82	127
176.0412925170068	176.20385487528344	82	127
176.0412925170068	176.2967120181406	49	127
176.20385487528344	176.33156462585035	84	127
176.33156462585035	176.48249433106577	84	127
176.33156462585035	176.58698412698413	60	127
176.33156462585035	176.58698412698413	63	127
176.48249433106577	176.63342403628118	85	127
176.64503401360545	176.90045351473924	49	127
176.64503401360545	176.7843537414966	85	127
176.7843537414966	176.9584807256236	87	127
176.9584807256236	177.02816326530612	87	127
176.9584807256236	177.07460317460317	58	127
176.9584807256236	177.07460317460317	61	127
177.02816326530612	177.12104308390022	89	127
177.1326530612245	177.4228798185941	49	127
177.1326530612245	177.30680272108845	89	127
177.30680272108845	177.48095238095237	90	127
177.48095238095237	177.71315192743765	61	127
177.48095238095237	177.6318820861678	90	127
177.48095238095237	177.71315192743765	58	127
177.6318820861678	177.77120181405897	92	127
177.77120181405897	178.038231292517	49	127
177.77120181405897	177.95696145124717	92	127
177.95696145124717	178.0730612244898	94	127
178.0846485260771	178.3517006802721	54	127
178.0846485260771	178.3517006802721	58	127
178.0846485260771	178.24721088435373	94	127
178.24721088435373	178.40975056689342	96	127
178.40975056689342	178.67678004535148	49	127
178.40975056689342	178.67678004535148	97	127
178.72321995464853	178.94380952380953	53	127
178.72321995464853	178.83931972789117	89	127
178.72321995464853	178.94380952380953	56	127
178.83931972789117	179.00183673469388	85	127
179.00183673469388	179.12956916099773	85	127
179.00183673469388	179.19922902494332	49	127
179.12956916099773	179.21081632653062	80	127
179.21081632653062	179.47786848072562	56	127
179.21081632653062	179.37337868480725	80	127
179.21081632653062	179.47786848072562	53	127
179.37337868480725	179.51269841269843	77	127
179.52430839002267	179.69845804988663	77	127
179.52430839002267	179.77972789115645	49	127
179.69845804988663	179.83777777777777	73	127
179.83777777777777	180.00031746031746	73	127
179.83777777777777	180.06997732426305	61	127
179.83777777777777	180.06997732426305	53	127
180.00031746031746	180.09319727891156	68	127
180.10480725623583	180.36022675736962	49	127
180.41827664399094	180.95233560090702	56	127
180.41827664399094	180.95233560090702	66	127
180.41827664399094	180.95233560090702	60	127
180.685306122449	180.98716553287983	49	127
181.04521541950115	181.26580498866213	56	127
181.04521541950115	181.26580498866213	60	127
181.04521541950115	181.26580498866213	66	127
181.32385487528344	181.5095918367347	56	127
181.32385487528344	181.5095918367347	61	127
181.32385487528344	181.5095918367347	49	127
181.32385487528344	181.5095918367347	66	127
181.56766439909296	181.79986394557824	63	127
181.56766439909296	181.79986394557824	66	127
181.56766439909296	181.79986394557824	49	127
181.56766439909296	181.79986394557824	56	127
181.8114739229025	182.10172335600907	65	127
181.8114739229025	182.10172335600907	61	127
181.8114739229025	182.10172335600907	49	127
181.8114739229025	182.10172335600907	56	127
182.1597732426304	182.45002267573696	61	127
182.1597732426304	182.45002267573696	56	127
182.1597732426304	182.3455328798186	89	127
182.1597732426304	182.45002267573696	65	127
182.3455328798186	182.45002267573696	85	127
182.46163265306123	182.68219954648526	49	127
182.46163265306123	182.5661224489796	85	127
182.5661224489796	182.7286621315193	80	127
182.7286621315193	182.891179138322	80	127
182.7286621315193	182.96086167800453	65	127
182.7286621315193	182.96086167800453	56	127
182.7286621315193	182.96086167800453	61	127
182.891179138322	183.00730158730158	77	127
183.01891156462585	183.158231292517	77	127
183.01891156462585	183.2278911564626	49	127
183.158231292517	183.26272108843537	73	127
183.26272108843537	183.48331065759638	61	127
183.26272108843537	183.48331065759638	65	127
183.26272108843537	183.40201814058958	73	127
183.26272108843537	183.48331065759638	56	127
183.40201814058958	183.5413605442177	68	127
183.5413605442177	183.84321995464853	49	127
183.88965986394558	184.42369614512472	60	127
183.88965986394558	184.42369614512472	66	127
183.88965986394558	184.42369614512472	56	127
184.16827664399094	184.4469387755102	49	127
184.48176870748298	184.702358276644	60	127
184.48176870748298	184.702358276644	66	127
184.48176870748298	184.702358276644	56	127
184.7604081632653	184.95777777777778	56	127
184.7604081632653	184.95777777777778	61	127
184.7604081632653	184.95777777777778	49	127
184.7604081632653	184.95777777777778	66	127
185.00421768707483	185.29444444444445	56	127
185.00421768707483	185.29444444444445	61	127
185.00421768707483	185.29444444444445	49	127
185.00421768707483	185.29444444444445	65	127
186.33936507936508	186.47868480725623	65	127
186.33936507936508	186.47868480725623	49	127
186.33936507936508	186.47868480725623	37	127
186.33936507936508	186.47868480725623	73	127
186.33936507936508	186.47868480725623	68	127
186.75732426303856	186.83859410430838	68	127
186.75732426303856	186.83859410430838	44	127
186.75732426303856	186.83859410430838	32	127
186.75732426303856	186.83859410430838	75	127
186.75732426303856	186.83859410430838	72	127
187.10562358276644	187.395873015873	49	127
187.10562358276644	187.395873015873	37	127
187.10562358276644	187.395873015873	77	127
187.10562358276644	187.395873015873	73	127
187.10562358276644	187.395873015873	68	127
188.23179138321996	188.45238095238096	53	127
188.23179138321996	188.45238095238096	72	127
188.23179138321996	188.45238095238096	77	127
188.23179138321996	188.45238095238096	68	127
188.23179138321996	188.45238095238096	41	127
188.5104081632653	188.7774603174603	36	127
188.5104081632653	188.7774603174603	72	127
188.5104081632653	188.7774603174603	76	127
188.5104081632653	188.7774603174603	79	127
188.5104081632653	188.7774603174603	48	127
188.8471201814059	189.07931972789115	53	127
188.8471201814059	189.33473922902493	72	127
188.8471201814059	189.33473922902493	77	127
188.8471201814059	189.33473922902493	80	127
188.8471201814059	189.07931972789115	41	127
189.13736961451247	189.2534693877551	60	127
189.2534693877551	189.4160090702948	60	127
189.4160090702948	189.99648526077098	84	127
189.4160090702948	189.99648526077098	72	127
189.4160090702948	189.7294784580499	56	127
189.77591836734695	189.8919954648526	56	127
189.8919954648526	190.03133786848073	56	127
190.03133786848073	190.21709750566893	72	127
190.03133786848073	190.21709750566893	60	127
190.03133786848073	190.12421768707483	51	127
190.12421768707483	190.2519274376417	53	127
190.26353741496598	190.42607709750567	49	127
190.26353741496598	190.53056689342404	75	127
190.26353741496598	190.53056689342404	63	127
190.43768707482994	190.56539682539682	51	127
190.56539682539682	190.7975963718821	68	127
190.56539682539682	190.7975963718821	80	127
190.56539682539682	191.08784580498866	48	127
190.56539682539682	191.08784580498866	60	127
190.8556462585034	190.99496598639456	75	127
191.00657596371883	191.15750566893425	75	127
191.1691156462585	191.30843537414967	72	127
191.1691156462585	191.62190476190477	51	127
191.1691156462585	191.62190476190477	63	127
191.366485260771	191.52902494331065	72	127
191.52902494331065	191.7031746031746	72	127
191.71478458049887	191.93537414965985	51	127
191.71478458049887	191.93537414965985	39	127
191.71478458049887	191.81927437641724	67	127
191.8308843537415	191.98181405895693	68	127
191.98181405895693	192.2720634920635	55	127
191.98181405895693	192.2720634920635	43	127
191.98181405895693	192.15596371882086	65	127
192.15596371882086	192.3301133786848	67	127
192.3301133786848	192.88739229024944	63	127
192.3301133786848	192.88739229024944	72	127
192.3301133786848	192.88739229024944	48	127
192.3301133786848	192.88739229024944	60	127
192.96866213151927	193.42145124716552	63	127
192.96866213151927	193.42145124716552	75	127
192.96866213151927	193.42145124716552	51	127
193.4911111111111	193.75814058956917	67	127
193.4911111111111	193.75814058956917	43	127
193.4911111111111	193.75814058956917	55	127
193.79297052154195	194.04839002267573	47	127
193.79297052154195	194.04839002267573	59	127
193.79297052154195	194.04839002267573	71	127
194.10643990929705	194.67532879818594	60	127
194.10643990929705	194.67532879818594	72	127
194.10643990929705	194.67532879818594	48	127
194.75659863945577	195.1977777777778	51	127
194.75659863945577	195.1977777777778	75	127
194.75659863945577	195.1977777777778	63	127
195.27904761904762	195.55768707482994	67	127
195.27904761904762	195.55768707482994	43	127
195.27904761904762	195.55768707482994	55	127
195.59251700680272	195.8479365079365	71	127
195.59251700680272	195.8479365079365	47	127
195.59251700680272	195.8479365079365	59	127
195.90598639455783	196.21945578231293	48	127
195.90598639455783	196.21945578231293	60	127
195.90598639455783	196.21945578231293	72	127
196.26589569160998	196.4168253968254	67	127
196.26589569160998	196.54453514739228	43	127
196.26589569160998	196.54453514739228	55	127
196.42843537414967	196.6025850340136	67	127
196.6025850340136	196.83478458049888	51	127
196.6025850340136	196.83478458049888	39	127
196.6025850340136	196.83478458049888	63	127
196.8580045351474	197.0437641723356	36	127
196.8580045351474	196.9508843537415	60	127
196.8580045351474	197.0437641723356	48	127
196.96249433106576	197.05537414965985	60	127
197.05537414965985	197.1018140589569	58	127
197.05537414965985	197.19469387755103	34	127
197.05537414965985	197.19469387755103	46	127
197.1018140589569	197.24113378684808	60	127
197.24113378684808	197.5546031746032	44	127
197.24113378684808	197.42689342403628	56	127
197.24113378684808	197.5546031746032	32	127
197.42689342403628	197.62426303854875	58	127
197.63587301587302	198.2047619047619	67	127
197.63587301587302	198.2047619047619	43	127
197.63587301587302	198.2047619047619	55	127
197.63587301587302	198.2047619047619	31	127
198.28603174603174	198.84331065759636	74	127
198.28603174603174	198.84331065759636	62	127
198.84331065759636	198.85492063492063	62	127
198.84331065759636	198.85492063492063	50	127
198.84331065759636	198.85492063492063	59	127
199.00585034013605	199.0522902494331	66	127
199.00585034013605	199.0522902494331	50	127
199.00585034013605	199.0522902494331	57	127
199.29609977324262	199.79532879818595	43	127
199.29609977324262	199.48185941043084	67	127
199.29609977324262	199.79532879818595	55	127
199.88820861678005	200.37582766439908	47	127
199.88820861678005	200.37582766439908	59	127
200.4687074829932	200.51514739229026	71	127
200.4687074829932	200.51514739229026	50	127
200.4687074829932	200.51514739229026	38	127
200.4687074829932	200.51514739229026	79	127
200.4687074829932	200.51514739229026	74	127
200.75895691609978	200.82861678004537	72	127
200.75895691609978	200.82861678004537	74	127
200.75895691609978	200.82861678004537	81	127
200.75895691609978	200.82861678004537	42	127
200.75895691609978	200.82861678004537	54	127
201.0608163265306	201.52521541950114	43	127
201.0608163265306	201.52521541950114	71	127
201.0608163265306	201.52521541950114	74	127
201.0608163265306	201.52521541950114	79	127
201.0608163265306	201.52521541950114	55	127
201.59487528344673	202.09410430839003	74	127
201.59487528344673	202.09410430839003	86	127
202.18698412698413	202.25664399092972	59	127
202.18698412698413	202.25664399092972	50	127
202.18698412698413	202.25664399092972	74	127
202.18698412698413	202.25664399092972	62	127
202.41918367346938	202.5120634920635	57	127
202.41918367346938	202.5120634920635	50	127
202.41918367346938	202.5120634920635	78	127
202.41918367346938	202.5120634920635	66	127
202.73265306122448	203.2899319727891	43	127
202.73265306122448	203.2899319727891	55	127
202.73265306122448	202.976462585034	79	127
202.73265306122448	202.976462585034	67	127
203.3595918367347	203.84721088435373	59	127
203.3595918367347	203.84721088435373	47	127
203.9284807256236	203.9865306122449	71	127
203.9284807256236	203.9865306122449	50	127
203.9284807256236	203.9865306122449	38	127
203.9284807256236	203.9865306122449	79	127
203.9284807256236	203.9865306122449	74	127
204.23034013605442	204.25356009070296	81	127
204.23034013605442	204.25356009070296	54	127
204.23034013605442	204.25356009070296	42	127
204.23034013605442	204.25356009070296	72	127
204.23034013605442	204.25356009070296	74	127
204.4857596371882	204.56702947845804	43	127
204.4857596371882	204.56702947845804	79	127
204.4857596371882	204.56702947845804	74	127
204.4857596371882	204.56702947845804	71	127
204.4857596371882	204.56702947845804	55	127
204.78761904761905	204.85727891156463	78	127
204.78761904761905	204.85727891156463	60	127
204.78761904761905	204.85727891156463	57	127
204.78761904761905	204.85727891156463	50	127
204.78761904761905	204.85727891156463	81	127
204.78761904761905	204.85727891156463	74	127
205.0778684807256	205.17074829931974	59	127
205.0778684807256	205.17074829931974	55	127
205.0778684807256	205.17074829931974	83	127
205.0778684807256	205.17074829931974	79	127
205.0778684807256	205.17074829931974	74	127
205.34489795918367	205.41455782312926	74	127
205.34489795918367	205.41455782312926	78	127
205.34489795918367	205.41455782312926	81	127
205.34489795918367	205.41455782312926	50	127
205.34489795918367	205.41455782312926	57	127
205.34489795918367	205.41455782312926	60	127
205.6467573696145	205.72802721088436	55	127
205.6467573696145	205.72802721088436	59	127
205.6467573696145	205.72802721088436	79	127
205.6467573696145	205.72802721088436	74	127
205.6467573696145	205.72802721088436	83	127
205.87895691609978	205.94861678004534	60	127
205.87895691609978	205.94861678004534	57	127
205.87895691609978	205.94861678004534	50	127
205.87895691609978	205.94861678004534	81	127
205.87895691609978	205.94861678004534	78	127
205.87895691609978	205.94861678004534	74	127
206.18081632653062	206.4014058956916	74	127
206.18081632653062	206.4014058956916	59	127
206.18081632653062	206.4014058956916	55	127
206.18081632653062	206.4014058956916	79	127
206.18081632653062	206.4014058956916	71	127
209.53609977324263	210.03532879818593	58	127
209.53609977324263	210.03532879818593	67	127
209.53609977324263	210.03532879818593	51	127
209.53609977324263	210.03532879818593	63	127
211.30081632653062	211.50979591836736	51	127
211.39369614512472	211.56784580498865	58	127
211.56784580498865	211.71877551020407	63	127
211.56784580498865	211.71877551020407	67	127
211.71877551020407	211.89292517006803	58	127
211.9045351473923	212.1831746031746	51	127
212.06707482993198	212.2412244897959	58	127
212.2412244897959	212.4037641723356	63	127
212.2412244897959	212.4037641723356	67	127
212.4037641723356	212.57791383219956	58	127
212.57791383219956	212.86816326530612	50	127
212.75206349206348	212.92621315192744	58	127
212.92621315192744	213.07714285714286	68	127
212.92621315192744	213.07714285714286	65	127
213.07714285714286	213.2512925170068	58	127
213.2512925170068	213.46027210884353	51	127
213.39061224489797	213.48349206349206	58	127
213.48349206349206	213.63442176870748	63	127
213.63442176870748	213.79696145124717	67	127
213.79696145124717	214.05238095238096	55	127
213.95950113378686	214.11043083900228	58	127
214.11043083900228	214.29619047619047	63	127
214.29619047619047	214.45873015873016	70	127
214.45873015873016	214.62126984126985	53	127
214.45873015873016	214.62126984126985	68	127
214.62126984126985	214.79541950113378	70	127
214.79541950113378	214.95795918367347	51	127
214.79541950113378	214.95795918367347	67	127
214.95795918367347	215.12049886621315	70	127
215.12049886621315	215.2946485260771	65	127
215.12049886621315	215.37591836734694	50	127
215.2946485260771	215.43396825396826	70	127
215.43396825396826	215.58489795918368	65	127
215.58489795918368	215.7590476190476	58	127
215.7590476190476	215.90997732426302	51	127
215.7590476190476	215.90997732426302	67	127
215.90997732426302	216.0725170068027	70	127
216.0725170068027	216.2350566893424	50	127
216.0725170068027	216.24666666666667	65	127
216.24666666666667	216.3975963718821	70	127
216.3975963718821	216.65301587301587	49	127
216.3975963718821	216.5485260770975	63	127
216.5485260770975	216.7110657596372	75	127
216.7110657596372	216.87360544217688	70	127
216.87360544217688	217.03614512471654	63	127
217.0477551020408	217.2102947845805	48	127
217.0477551020408	217.2102947845805	63	127
217.2102947845805	217.37283446712019	62	127
217.37283446712019	217.5237641723356	44	127
217.37283446712019	217.53537414965987	60	127
217.53537414965987	217.6863038548753	65	127
217.6863038548753	217.84884353741498	62	127
217.6863038548753	217.94172335600908	46	127
217.84884353741498	217.9997732426304	70	127
217.9997732426304	218.15070294784582	69	127
218.15070294784582	218.31324263038547	68	127
218.31324263038547	218.4990022675737	67	127
218.31324263038547	218.60349206349207	51	127
218.4990022675737	218.6615419501134	58	127
218.6615419501134	218.8124716553288	67	127
218.8124716553288	218.98662131519274	70	127
218.98662131519274	219.26526077097506	55	127
219.14916099773242	219.32331065759638	58	127
219.32331065759638	219.4974603174603	67	127
219.4974603174603	219.66	70	127
219.66	219.82253968253968	53	127
219.66	219.83414965986395	68	127
219.83414965986395	219.9734693877551	70	127
219.9734693877551	220.1360090702948	51	127
219.9734693877551	220.1360090702948	67	127
220.1360090702948	220.33337868480726	70	127
220.33337868480726	220.4726984126984	65	127
220.33337868480726	220.58879818594104	50	127
220.4726984126984	220.6352380952381	70	127
220.6352380952381	220.79777777777778	58	127
220.79777777777778	220.96031746031747	65	127
220.96031746031747	221.12285714285716	63	127
220.96031746031747	221.12285714285716	51	127
221.12285714285716	221.28539682539682	75	127
221.28539682539682	221.41310657596372	65	127
221.28539682539682	221.41310657596372	51	127
221.41310657596372	221.56403628117914	75	127
221.56403628117914	221.72657596371883	68	127
221.56403628117914	221.8310657596372	51	127
221.72657596371883	221.88911564625852	75	127
221.88911564625852	222.05165532879818	67	127
222.05165532879818	222.21419501133786	75	127
222.21419501133786	222.50444444444443	48	127
222.21419501133786	222.37673469387755	66	127
222.37673469387755	222.56249433106575	69	127
222.56249433106575	222.7366439909297	75	127
222.7366439909297	222.8991836734694	66	127
222.8991836734694	223.07333333333332	67	127
222.8991836734694	223.16621315192745	51	127
223.07333333333332	223.22426303854874	70	127
223.22426303854874	223.38680272108843	75	127
223.38680272108843	223.54934240362812	67	127
223.5609523809524	223.82798185941044	48	127
223.5609523809524	223.7118820861678	66	127
223.7118820861678	223.8744217687075	69	127
223.8744217687075	224.04857142857142	75	127
224.04857142857142	224.2111111111111	66	127
224.2111111111111	224.45492063492063	51	127
224.2111111111111	224.35043083900226	67	127
224.35043083900226	224.51297052154194	70	127
224.51297052154194	224.66390022675736	75	127
224.66390022675736	224.82643990929705	67	127
224.83804988662132	225.0354195011338	62	127
224.83804988662132	225.0354195011338	58	127
225.0354195011338	225.221179138322	70	127
225.221179138322	225.3721088435374	56	127
225.221179138322	225.38371882086167	65	127
225.38371882086167	225.5346485260771	62	127
225.5346485260771	225.69718820861678	55	127
225.5346485260771	225.69718820861678	63	127
225.69718820861678	225.87133786848074	70	127
225.87133786848074	226.0338775510204	51	127
225.87133786848074	226.0338775510204	67	127
226.0338775510204	226.20802721088435	63	127
226.20802721088435	226.3821768707483	58	127
226.20802721088435	226.3821768707483	62	127
226.3821768707483	226.54471655328797	70	127
226.54471655328797	226.6956462585034	56	127
226.54471655328797	226.70725623582766	65	127
226.70725623582766	226.85818594104308	62	127
226.85818594104308	227.0091156462585	55	127
226.85818594104308	227.0091156462585	63	127
227.0091156462585	227.18326530612245	70	127
227.18326530612245	227.34580498866214	67	127
227.18326530612245	227.34580498866214	51	127
227.34580498866214	227.49673469387756	63	127
227.49673469387756	227.64766439909297	43	127
227.49673469387756	227.65927437641724	63	127
227.65927437641724	227.83342403628117	75	127
227.83342403628117	227.9843537414966	63	127
227.83342403628117	227.9843537414966	42	127
227.9843537414966	228.15850340136055	75	127
228.15850340136055	228.32104308390024	43	127
228.15850340136055	228.32104308390024	63	127
228.32104308390024	228.47197278911565	75	127
228.47197278911565	228.6112925170068	63	127
228.47197278911565	228.6112925170068	48	127
228.6112925170068	228.76222222222222	75	127
228.76222222222222	228.9247619047619	44	127
228.76222222222222	228.93637188208618	72	127
228.93637188208618	229.09891156462584	75	127
229.09891156462584	229.22662131519274	74	127
229.09891156462584	229.22662131519274	46	127
229.22662131519274	229.38916099773243	68	127
229.4007709750567	229.66780045351473	51	127
229.4007709750567	229.66780045351473	67	127
230.05092970521542	230.38761904761904	77	127
230.05092970521542	230.38761904761904	89	127
230.44566893424036	230.51532879818595	91	127
230.44566893424036	230.51532879818595	79	127
230.61981859410432	230.67786848072564	93	127
230.61981859410432	230.67786848072564	81	127
230.7475283446712	231.01455782312925	94	127
230.7475283446712	231.01455782312925	82	127
231.07260770975057	231.1306575963719	82	127
231.07260770975057	231.1306575963719	94	127
231.2467573696145	231.30480725623582	94	127
231.2467573696145	231.30480725623582	82	127
231.39768707482995	231.45573696145124	92	127
231.39768707482995	231.45573696145124	80	127
231.73437641723356	231.76920634920634	79	127
231.73437641723356	231.76920634920634	91	127
232.04784580498867	232.37292517006802	80	127
232.04784580498867	232.37292517006802	92	127
232.37292517006802	232.5354648526077	89	127
232.37292517006802	232.5354648526077	77	127
232.70961451247166	232.95342403628118	75	127
232.70961451247166	232.95342403628118	87	127
232.95342403628118	233.08113378684808	87	127
232.95342403628118	233.08113378684808	75	127
233.08113378684808	233.3481632653061	89	127
233.08113378684808	233.3481632653061	77	127
233.3481632653061	233.44104308390024	77	127
233.3481632653061	233.44104308390024	89	127
233.44104308390024	233.7661224489796	79	127
233.44104308390024	233.7661224489796	91	127
233.7661224489796	233.90544217687074	87	127
233.7661224489796	233.90544217687074	75	127
234.0795918367347	234.12603174603174	93	127
234.0795918367347	234.12603174603174	81	127
234.24213151927438	234.28857142857143	94	127
234.24213151927438	234.28857142857143	82	127
234.3930612244898	234.43950113378685	84	127
234.3930612244898	234.43950113378685	96	127
234.53238095238095	234.578820861678	98	127
234.53238095238095	234.578820861678	86	127
234.68331065759637	234.9619501133787	82	127
234.68331065759637	234.9619501133787	94	127
235.40312925170068	235.69337868480724	65	127
235.40312925170068	235.69337868480724	89	127
235.40312925170068	235.69337868480724	77	127
235.75142857142856	235.91396825396825	67	127
235.75142857142856	235.91396825396825	91	127
235.75142857142856	235.91396825396825	79	127
235.91396825396825	236.0881179138322	69	127
235.91396825396825	236.0881179138322	81	127
235.91396825396825	236.0881179138322	93	127
236.0881179138322	236.3667573696145	70	127
236.0881179138322	236.3667573696145	94	127
236.0881179138322	236.3667573696145	82	127
236.42480725623582	236.57573696145124	70	127
236.42480725623582	236.57573696145124	82	127
236.42480725623582	236.57573696145124	94	127
236.57573696145124	236.7498866213152	94	127
236.57573696145124	236.7498866213152	70	127
236.57573696145124	236.7498866213152	82	127
236.7498866213152	236.9356462585034	68	127
236.7498866213152	236.9356462585034	80	127
236.7498866213152	236.9356462585034	92	127
237.09818594104308	237.27233560090704	91	127
237.09818594104308	237.27233560090704	67	127
237.09818594104308	237.27233560090704	79	127
237.4348752834467	237.7251247165533	80	127
237.4348752834467	237.7251247165533	92	127
237.4348752834467	237.7251247165533	68	127
237.7251247165533	237.86444444444444	89	127
237.7251247165533	237.86444444444444	65	127
237.7251247165533	237.86444444444444	77	127
238.02698412698413	238.18952380952382	72	127
238.18952380952382	238.36367346938775	67	127
238.36367346938775	238.52621315192744	65	127
238.52621315192744	238.68875283446712	67	127
238.68875283446712	238.86290249433105	63	127
238.86290249433105	239.02544217687074	67	127
239.02544217687074	239.21120181405897	63	127
239.21120181405897	239.37374149659863	60	127
239.37374149659863	239.59433106575963	62	127
239.37374149659863	239.59433106575963	38	127
239.37374149659863	239.59433106575963	50	127
239.65238095238095	239.698820861678	52	127
239.65238095238095	239.698820861678	64	127
239.81492063492064	239.84975056689342	54	127
239.81492063492064	239.84975056689342	66	127
239.9542403628118	240.25609977324262	74	127
239.9542403628118	240.25609977324262	67	127
239.9542403628118	240.25609977324262	55	127
240.31414965986394	240.37219954648526	76	127
240.4882993197279	240.55795918367346	78	127
240.66244897959183	240.92947845804989	79	127
240.66244897959183	240.92947845804989	74	127
240.97591836734694	241.03396825396825	76	127
241.13845804988662	241.19650793650794	78	127
241.242947845805	241.49836734693878	86	127
241.242947845805	241.49836734693878	79	127
241.56802721088437	241.62607709750566	88	127
241.73056689342403	241.78861678004534	90	127
241.90471655328798	242.17174603174604	74	127
241.90471655328798	242.17174603174604	91	127
242.20657596371882	242.26462585034014	76	127
242.38072562358278	242.42716553287983	78	127
242.5316553287982	242.79868480725622	79	127
242.5316553287982	242.79868480725622	86	127
242.85673469387754	242.91478458049886	88	127
243.00766439909296	243.06571428571428	90	127
243.17020408163265	243.4372335600907	91	127
244.44730158730158	244.74916099773242	82	127
244.44730158730158	244.74916099773242	70	127
244.83043083900228	244.8884807256236	72	127
244.83043083900228	244.8884807256236	84	127
244.95814058956915	245.01619047619047	86	127
244.95814058956915	245.01619047619047	74	127
245.10907029478457	245.39931972789117	87	127
245.10907029478457	245.39931972789117	75	127
245.43414965986395	245.46897959183673	75	127
245.43414965986395	245.46897959183673	87	127
245.58507936507937	245.64312925170069	75	127
245.58507936507937	245.64312925170069	87	127
245.75922902494332	245.92176870748298	73	127
245.75922902494332	245.92176870748298	85	127
246.08430839002267	246.2352380952381	84	127
246.08430839002267	246.2352380952381	72	127
246.40938775510205	246.71124716553288	85	127
246.40938775510205	246.71124716553288	73	127
246.71124716553288	246.8621768707483	70	127
246.71124716553288	246.8621768707483	82	127
247.03632653061226	247.19886621315192	77	127
247.03632653061226	247.19886621315192	65	127
247.19886621315192	247.3614058956916	72	127
247.19886621315192	247.3614058956916	60	127
247.3614058956916	247.5239455782313	58	127
247.3614058956916	247.5239455782313	70	127
247.5239455782313	247.68648526077098	72	127
247.5239455782313	247.68648526077098	60	127
247.68648526077098	247.87224489795918	56	127
247.68648526077098	247.87224489795918	68	127
247.87224489795918	248.03478458049887	60	127
247.87224489795918	248.03478458049887	72	127
248.03478458049887	248.19732426303855	68	127
248.03478458049887	248.19732426303855	56	127
248.19732426303855	248.3134240362812	53	127
248.19732426303855	248.3134240362812	65	127
248.3134240362812	248.56884353741498	31	127
248.3134240362812	248.56884353741498	55	127
248.3134240362812	248.56884353741498	43	127
248.62689342403627	248.67333333333335	57	127
248.62689342403627	248.67333333333335	45	127
248.77782312925171	248.82426303854876	47	127
248.77782312925171	248.82426303854876	59	127
248.91714285714286	249.19578231292516	67	127
248.91714285714286	249.19578231292516	48	127
248.91714285714286	249.19578231292516	60	127
249.2422222222222	249.30027210884353	69	127
249.4047619047619	249.4744217687075	71	127
249.59052154195012	249.8807709750567	72	127
249.59052154195012	249.8807709750567	67	127
249.92721088435374	249.98526077097506	69	127
250.1013605442177	250.159410430839	71	127
250.25229024943312	250.51931972789114	72	127
250.25229024943312	250.51931972789114	79	127
250.57736961451246	250.6238095238095	81	127
250.72829931972788	250.7863492063492	83	127
250.90244897959184	251.1694784580499	79	127
250.90244897959184	251.1694784580499	84	127
251.2275283446712	251.2855782312925	81	127
251.40167800453514	251.43650793650792	83	127
251.55260770975056	251.81963718820862	91	127
251.55260770975056	251.81963718820862	84	127
251.87768707482994	251.92412698412699	93	127
252.00539682539682	252.06344671201813	95	127
252.1679365079365	252.22598639455782	96	127
252.3304761904762	252.37691609977324	89	127
252.49301587301588	252.5510657596372	91	127
252.65555555555557	252.71360544217688	93	127
252.8297052154195	253.10834467120182	77	127
252.8297052154195	253.10834467120182	94	127
253.15478458049887	253.20122448979592	79	127
253.31732426303856	253.37537414965988	81	127
253.47986394557824	253.74689342403627	82	127
253.47986394557824	253.74689342403627	77	127
253.8049433106576	253.85138321995464	79	127
253.94426303854874	254.00231292517006	81	127
254.1184126984127	254.39705215419502	65	127
254.1184126984127	254.39705215419502	82	127
254.44349206349207	254.5015419501134	67	127
254.617641723356	254.66408163265305	69	127
254.75696145124718	254.9078911564626	70	127
254.75696145124718	254.9078911564626	74	127
254.75696145124718	254.9078911564626	82	127
254.75696145124718	254.9078911564626	86	127
255.08204081632653	255.2445804988662	72	127
255.08204081632653	255.2445804988662	65	127
255.08204081632653	255.2445804988662	84	127
255.08204081632653	255.2445804988662	77	127
255.4071201814059	255.67414965986396	70	127
255.4071201814059	255.67414965986396	62	127
255.4071201814059	255.5696598639456	82	127
255.4071201814059	255.5696598639456	74	127
255.73219954648525	255.89473922902494	65	127
255.73219954648525	255.89473922902494	62	127
255.73219954648525	255.89473922902494	77	127
255.73219954648525	255.89473922902494	74	127
256.0688662131519	256.2314285714286	63	127
256.0688662131519	256.2314285714286	77	127
256.0688662131519	256.2314285714286	75	127
256.39396825396824	256.4984580498866	74	127
256.39396825396824	256.4984580498866	77	127
256.39396825396824	256.4984580498866	65	127
256.39396825396824	256.4984580498866	62	127
256.4984580498866	256.6377777777778	70	127
256.4984580498866	256.6377777777778	58	127
256.6377777777778	256.80031746031744	57	127
256.6377777777778	256.80031746031744	65	127
256.6377777777778	256.80031746031744	77	127
256.6377777777778	256.80031746031744	69	127
256.97446712018143	257.1370068027211	65	127
256.97446712018143	257.1370068027211	77	127
256.97446712018143	257.1370068027211	53	127
257.311156462585	257.4968934240363	62	127
257.311156462585	257.4968934240363	70	127
257.311156462585	257.4968934240363	50	127
257.311156462585	257.4968934240363	58	127
257.65945578231293	257.7639455782313	72	127
257.65945578231293	257.7639455782313	65	127
257.65945578231293	257.7639455782313	53	127
257.65945578231293	257.7639455782313	60	127
257.7639455782313	257.92648526077096	62	127
257.7639455782313	257.92648526077096	70	127
257.7639455782313	257.92648526077096	50	127
257.7639455782313	257.92648526077096	58	127
257.92648526077096	258.0890249433107	65	127
257.92648526077096	258.0890249433107	72	127
257.92648526077096	258.0890249433107	53	127
257.92648526077096	258.0890249433107	60	127
258.2631746031746	258.4024943310658	70	127
258.2631746031746	258.4024943310658	74	127
258.2631746031746	258.4024943310658	58	127
258.2631746031746	258.4024943310658	62	127
258.5766439909297	258.72755102040816	63	127
258.5766439909297	258.72755102040816	60	127
258.5766439909297	258.72755102040816	75	127
258.5766439909297	258.72755102040816	72	127
258.87850340136055	259.029410430839	67	127
258.87850340136055	259.029410430839	63	127
258.87850340136055	259.029410430839	79	127
258.87850340136055	259.029410430839	75	127
259.2035827664399	259.78408163265306	60	127
259.2035827664399	259.78408163265306	53	127
259.2035827664399	259.78408163265306	72	127
259.2035827664399	259.78408163265306	69	127
259.8653514739229	260.01628117913833	86	127
259.8653514739229	260.01628117913833	82	127
259.8653514739229	260.01628117913833	70	127
259.8653514739229	260.01628117913833	74	127
260.178820861678	260.32975056689344	77	127
260.178820861678	260.32975056689344	72	127
260.178820861678	260.32975056689344	65	127
260.178820861678	260.32975056689344	84	127
260.51551020408164	260.6780498866213	82	127
260.51551020408164	260.6780498866213	70	127
260.51551020408164	260.6780498866213	62	127
260.51551020408164	260.6780498866213	74	127
260.8521995464853	261.01473922902494	74	127
260.8521995464853	261.01473922902494	77	127
260.8521995464853	261.01473922902494	62	127
260.8521995464853	261.01473922902494	65	127
261.1656689342404	261.32820861678005	65	127
261.1656689342404	261.32820861678005	63	127
261.1656689342404	261.32820861678005	77	127
261.1656689342404	261.32820861678005	75	127
261.49072562358276	261.6300680272109	62	127
261.49072562358276	261.6300680272109	65	127
261.49072562358276	261.6300680272109	74	127
261.49072562358276	261.6300680272109	77	127
261.6300680272109	261.73455782312925	70	127
261.6300680272109	261.73455782312925	58	127
261.7461678004535	261.9087074829932	65	127
261.7461678004535	261.9087074829932	69	127
261.7461678004535	261.9087074829932	77	127
261.7461678004535	261.9087074829932	57	127
262.08285714285716	262.2453968253968	65	127
262.08285714285716	262.2453968253968	77	127
262.08285714285716	262.2453968253968	53	127
262.431156462585	262.605306122449	62	127
262.431156462585	262.605306122449	58	127
262.431156462585	262.605306122449	74	127
262.431156462585	262.605306122449	70	127
262.77945578231294	262.9419954648526	63	127
262.77945578231294	262.9419954648526	70	127
262.77945578231294	262.9419954648526	72	127
262.77945578231294	262.9419954648526	75	127
262.77945578231294	262.9419954648526	58	127
262.77945578231294	262.9419954648526	60	127
263.1161451247166	263.27868480725624	70	127
263.1161451247166	263.27868480725624	61	127
263.1161451247166	263.27868480725624	64	127
263.1161451247166	263.27868480725624	58	127
263.1161451247166	263.27868480725624	73	127
263.1161451247166	263.27868480725624	76	127
263.4295918367347	263.59215419501135	65	127
263.4295918367347	263.59215419501135	58	127
263.4295918367347	263.59215419501135	70	127
263.4295918367347	263.59215419501135	74	127
263.4295918367347	263.59215419501135	77	127
263.4295918367347	263.59215419501135	62	127
263.754693877551	263.9172335600907	58	127
263.754693877551	263.9172335600907	61	127
263.754693877551	263.9172335600907	64	127
263.754693877551	263.9172335600907	76	127
263.754693877551	263.9172335600907	73	127
264.09138321995465	264.2307029478458	70	127
264.09138321995465	264.2307029478458	73	127
264.09138321995465	264.2307029478458	61	127
264.09138321995465	264.2307029478458	64	127
264.09138321995465	264.2307029478458	58	127
264.09138321995465	264.2307029478458	82	127
264.09138321995465	264.2307029478458	76	127
264.3932426303855	264.54417233560093	70	127
264.3932426303855	264.54417233560093	82	127
264.3932426303855	264.54417233560093	58	127
264.3932426303855	264.54417233560093	74	127
264.3932426303855	264.54417233560093	65	127
264.3932426303855	264.54417233560093	62	127
264.3932426303855	264.54417233560093	77	127
264.7067120181406	264.85761904761904	62	127
264.7067120181406	264.85761904761904	58	127
264.7067120181406	264.85761904761904	77	127
264.7067120181406	264.85761904761904	74	127
264.7067120181406	264.85761904761904	65	127
265.03179138321997	265.18272108843536	64	127
265.03179138321997	265.18272108843536	73	127
265.03179138321997	265.18272108843536	76	127
265.03179138321997	265.18272108843536	58	127
265.03179138321997	265.18272108843536	61	127
265.3452607709751	265.49619047619046	58	127
265.3452607709751	265.49619047619046	73	127
265.3452607709751	265.49619047619046	76	127
265.3452607709751	265.49619047619046	70	127
265.3452607709751	265.49619047619046	61	127
265.3452607709751	265.49619047619046	64	127
265.6587301587302	265.7980498866213	77	127
265.6587301587302	265.7980498866213	74	127
265.6587301587302	265.7980498866213	62	127
265.6587301587302	265.7980498866213	70	127
265.6587301587302	265.7980498866213	65	127
265.6587301587302	265.7980498866213	58	127
265.98378684807255	266.1463492063492	74	127
265.98378684807255	266.1463492063492	65	127
265.98378684807255	266.1463492063492	77	127
265.98378684807255	266.1463492063492	58	127
265.98378684807255	266.1463492063492	62	127
266.3088888888889	266.4598185941043	65	127
266.3088888888889	266.4598185941043	53	127
266.3088888888889	266.4598185941043	72	127
266.3088888888889	266.4598185941043	69	127
266.622358276644	266.7848979591837	53	127
266.622358276644	266.7848979591837	77	127
266.622358276644	266.7848979591837	51	127
266.622358276644	266.7848979591837	69	127
266.622358276644	266.7848979591837	65	127
266.9590476190476	267.0983673469388	65	127
266.9590476190476	267.0983673469388	53	127
266.9590476190476	267.0983673469388	50	127
266.9590476190476	267.0983673469388	77	127
266.9590476190476	267.0983673469388	70	127
267.284126984127	267.4350566893424	53	127
267.284126984127	267.4350566893424	70	127
267.284126984127	267.4350566893424	46	127
267.284126984127	267.4350566893424	74	127
267.284126984127	267.4350566893424	65	127
267.5975963718821	267.76013605442176	53	127
267.5975963718821	267.85301587301586	65	127
267.5975963718821	267.85301587301586	69	127
267.5975963718821	267.85301587301586	72	127
267.9110657596372	268.0619954648526	65	127
267.9110657596372	268.0619954648526	51	127
267.9110657596372	268.0619954648526	69	127
267.9110657596372	268.0619954648526	77	127
267.9110657596372	268.0619954648526	53	127
268.2361224489796	268.39868480725625	50	127
268.2361224489796	268.39868480725625	65	127
268.2361224489796	268.39868480725625	70	127
268.2361224489796	268.39868480725625	77	127
268.2361224489796	268.39868480725625	53	127
268.54961451247163	268.71215419501135	70	127
268.54961451247163	268.71215419501135	46	127
268.54961451247163	268.71215419501135	65	127
268.54961451247163	268.71215419501135	74	127
268.54961451247163	268.71215419501135	53	127
268.8863038548753	269.0604535147392	58	127
268.8863038548753	269.0604535147392	50	127
268.8863038548753	269.0604535147392	70	127
268.8863038548753	269.0604535147392	82	127
269.2346031746032	269.39714285714285	70	127
269.2346031746032	269.39714285714285	82	127
269.2346031746032	269.39714285714285	49	127
269.2346031746032	269.39714285714285	58	127
269.58290249433105	269.74544217687077	82	127
269.58290249433105	269.74544217687077	70	127
269.58290249433105	269.74544217687077	50	127
269.58290249433105	269.74544217687077	58	127
269.89637188208616	270.0473015873016	50	127
269.89637188208616	270.0473015873016	53	127
269.89637188208616	270.0473015873016	70	127
269.89637188208616	270.0473015873016	77	127
270.1401814058957	270.2678911564626	55	127
270.1401814058957	270.2678911564626	72	127
270.1401814058957	270.2678911564626	79	127
270.1401814058957	270.2678911564626	70	127
270.1401814058957	270.2678911564626	51	127
270.44204081632654	270.56975056689345	69	127
270.44204081632654	270.56975056689345	53	127
270.44204081632654	270.56975056689345	75	127
270.44204081632654	270.56975056689345	77	127
270.7439002267574	270.90643990929703	74	127
270.7439002267574	270.90643990929703	58	127
270.7439002267574	270.90643990929703	77	127
270.7439002267574	270.90643990929703	70	127
271.06897959183675	271.21990929705214	70	127
271.06897959183675	271.21990929705214	73	127
271.06897959183675	271.21990929705214	79	127
271.38244897959186	271.5449886621315	70	127
271.38244897959186	271.5449886621315	74	127
271.38244897959186	271.5449886621315	79	127
271.38244897959186	271.5449886621315	46	127
271.71913832199544	271.88167800453516	74	127
271.71913832199544	271.88167800453516	70	127
271.71913832199544	271.88167800453516	67	127
272.0442176870748	272.19514739229027	66	127
272.0442176870748	272.19514739229027	50	127
272.0442176870748	272.19514739229027	74	127
272.0442176870748	272.19514739229027	72	127
272.34607709750566	272.42732426303854	62	127
272.34607709750566	272.42732426303854	72	127
272.61310657596374	272.7756462585034	62	127
272.61310657596374	272.7756462585034	70	127
272.61310657596374	272.7756462585034	67	127
272.61310657596374	272.7756462585034	43	127
272.9149659863946	273.0426530612245	75	127
272.9149659863946	273.0426530612245	67	127
272.9149659863946	273.0426530612245	69	127
273.20521541950114	273.3677551020408	75	127
273.20521541950114	273.3677551020408	31	127
273.20521541950114	273.3677551020408	70	127
273.20521541950114	273.3677551020408	67	127
273.5302947845805	273.6928344671202	63	127
273.5302947845805	273.6928344671202	67	127
273.5302947845805	273.6928344671202	70	127
273.8553514739229	274.0063038548753	68	127
273.8553514739229	274.0063038548753	34	127
273.8553514739229	274.0063038548753	70	127
273.8553514739229	274.0063038548753	62	127
274.15723356009073	274.3081632653061	58	127
274.15723356009073	274.3081632653061	68	127
274.48231292517005	274.6332426303855	58	127
274.48231292517005	274.6332426303855	67	127
274.48231292517005	274.5287528344671	39	127
274.6912925170068	274.8538321995465	84	127
274.6912925170068	274.8538321995465	78	127
274.6912925170068	274.8538321995465	75	127
275.02798185941043	275.19049886621315	75	127
275.02798185941043	275.19049886621315	79	127
275.02798185941043	275.19049886621315	51	127
275.02798185941043	275.19049886621315	84	127
275.32984126984127	275.492358276644	79	127
275.32984126984127	275.492358276644	75	127
275.32984126984127	275.492358276644	72	127
275.6665306122449	275.8290702947846	55	127
275.6665306122449	275.8290702947846	77	127
275.6665306122449	275.8290702947846	79	127
275.6665306122449	275.8290702947846	71	127
276.00319727891156	276.1309297052154	67	127
276.00319727891156	276.1309297052154	77	127
276.2702494331066	276.43278911564624	75	127
276.2702494331066	276.43278911564624	60	127
276.2702494331066	276.43278911564624	67	127
276.59532879818596	276.7578684807256	67	127
276.59532879818596	276.7578684807256	63	127
276.93201814058955	277.0713378684807	75	127
276.93201814058955	277.0713378684807	48	127
276.93201814058955	277.0713378684807	72	127
277.23385487528344	277.38480725623583	70	127
277.23385487528344	277.38480725623583	75	127
277.23385487528344	277.38480725623583	74	127
277.5473469387755	277.68666666666667	36	127
277.5473469387755	277.68666666666667	76	127
277.5473469387755	277.68666666666667	72	127
277.5473469387755	277.68666666666667	69	127
277.8608163265306	278.0233560090703	67	127
277.8608163265306	278.0233560090703	76	127
277.8608163265306	278.0233560090703	70	127
278.06979591836733	278.1742857142857	69	127
278.06979591836733	278.1742857142857	77	127
278.06979591836733	278.1742857142857	53	127
278.06979591836733	278.1742857142857	65	127
278.3484353741497	278.51097505668935	69	127
278.3484353741497	278.51097505668935	71	127
278.3484353741497	278.51097505668935	77	127
278.6851247165533	278.847664399093	77	127
278.6851247165533	278.847664399093	45	127
278.6851247165533	278.847664399093	72	127
278.6851247165533	278.847664399093	69	127
279.01020408163265	279.17272108843537	65	127
279.01020408163265	279.17272108843537	69	127
279.01020408163265	279.17272108843537	72	127
279.335283446712	279.4978231292517	70	127
279.335283446712	279.4978231292517	48	127
279.335283446712	279.4978231292517	64	127
279.335283446712	279.4978231292517	72	127
279.6603628117914	279.77646258503404	60	127
279.6603628117914	279.77646258503404	70	127
279.95061224489797	280.08990929705215	60	127
279.95061224489797	280.08990929705215	69	127
279.95061224489797	280.08990929705215	53	127
280.2524716553288	280.40337868480725	83	127
280.2524716553288	280.40337868480725	89	127
280.55433106575964	280.6936507936508	45	127
280.55433106575964	280.6936507936508	89	127
280.55433106575964	280.6936507936508	81	127
280.55433106575964	280.6936507936508	84	127
280.86780045351475	281.0303401360544	84	127
280.86780045351475	281.0303401360544	77	127
280.86780045351475	281.0303401360544	81	127
281.2044897959184	281.4482993197279	48	127
281.2044897959184	281.33219954648524	76	127
281.2044897959184	281.33219954648524	82	127
281.2044897959184	281.33219954648524	84	127
281.49473922902496	281.62242630385487	82	127
281.49473922902496	281.62242630385487	72	127
281.7849886621315	281.86625850340135	53	127
281.7849886621315	281.86625850340135	81	127
281.7849886621315	281.86625850340135	72	127
282.04038548752834	282.21455782312927	69	127
282.04038548752834	282.21455782312927	77	127
282.04038548752834	282.21455782312927	71	127
282.3887074829932	282.5512244897959	77	127
282.3887074829932	282.5512244897959	69	127
282.3887074829932	282.5512244897959	45	127
282.3887074829932	282.5512244897959	72	127
282.7137868480726	282.87632653061223	65	127
282.7137868480726	282.87632653061223	69	127
282.7137868480726	282.87632653061223	72	127
282.99242630385487	283.1549433106576	64	127
282.99242630385487	283.1549433106576	70	127
282.99242630385487	283.1549433106576	72	127
282.99242630385487	283.1549433106576	48	127
283.3291156462585	283.44521541950115	60	127
283.3291156462585	283.44521541950115	70	127
283.6077551020408	283.7354648526077	60	127
283.6077551020408	283.7354648526077	53	127
283.6077551020408	283.7354648526077	69	127
283.8863945578231	284.0605442176871	83	127
283.8863945578231	284.0605442176871	89	127
284.234693877551	284.3740136054422	84	127
284.234693877551	284.3740136054422	89	127
284.234693877551	284.3740136054422	45	127
284.234693877551	284.3740136054422	81	127
284.54816326530613	284.72231292517006	81	127
284.54816326530613	284.72231292517006	77	127
284.54816326530613	284.72231292517006	84	127
284.8848526077098	284.9777324263039	82	127
284.8848526077098	284.9777324263039	76	127
284.8848526077098	284.9777324263039	84	127
284.8848526077098	284.9777324263039	48	127
285.1518820861678	285.26798185941044	72	127
285.1518820861678	285.26798185941044	82	127
285.44213151927437	285.6046712018141	53	127
285.44213151927437	285.6046712018141	72	127
285.44213151927437	285.6046712018141	81	127
286.70761904761906	287.2416780045352	65	127
286.70761904761906	287.2416780045352	53	127
286.70761904761906	287.2416780045352	41	127
287.31133786848073	287.8570068027211	45	127
287.31133786848073	287.8570068027211	57	127
287.31133786848073	287.8570068027211	69	127
287.93827664399095	288.2285260770975	57	127
287.93827664399095	288.2285260770975	33	127
287.93827664399095	288.2285260770975	45	127
288.2981859410431	288.5768027210884	60	127
288.2981859410431	288.5768027210884	36	127
288.2981859410431	288.5768027210884	48	127
288.6348752834467	289.06444444444446	53	127
288.6348752834467	289.06444444444446	41	127
288.6348752834467	289.06444444444446	65	127
289.0992743764172	289.6333333333333	57	127
289.0992743764172	289.6333333333333	45	127
289.0992743764172	289.6333333333333	69	127
289.7262131519274	290.0048299319728	57	127
289.7262131519274	290.0048299319728	45	127
289.7262131519274	290.0048299319728	33	127
290.0512925170068	290.3299319727891	60	127
290.0512925170068	290.3299319727891	36	127
290.0512925170068	290.3299319727891	48	127
290.3763718820862	290.9568707482993	41	127
290.3763718820862	290.9568707482993	53	127
290.3763718820862	290.9568707482993	65	127
291.0381179138322	291.560589569161	69	127
291.0381179138322	291.560589569161	45	127
291.0381179138322	291.560589569161	57	127
291.6302494331066	292.1875283446712	60	127
291.6302494331066	292.1875283446712	72	127
291.6302494331066	292.1875283446712	48	127
292.268798185941	292.5474376417234	48	127
292.268798185941	292.5474376417234	60	127
292.268798185941	292.5474376417234	36	127
292.60548752834467	292.8492970521542	41	127
292.60548752834467	292.8492970521542	53	127
292.60548752834467	292.8492970521542	65	127
292.8609070294785	293.42979591836735	57	127
292.8609070294785	293.42979591836735	45	127
292.8609070294785	293.42979591836735	69	127
293.5110657596372	294.033514739229	48	127
293.5110657596372	294.033514739229	60	127
293.5110657596372	294.033514739229	72	127
294.1263945578231	294.69528344671204	75	127
294.1263945578231	294.69528344671204	51	127
294.1263945578231	294.69528344671204	63	127
294.77655328798187	295.05519274376417	65	127
294.77655328798187	295.05519274376417	60	127
294.77655328798187	295.05519274376417	48	127
295.136462585034	295.41510204081635	57	127
295.136462585034	295.41510204081635	45	127
295.136462585034	295.41510204081635	69	127
295.47315192743764	296.018820861678	41	127
295.47315192743764	296.018820861678	72	127
295.47315192743764	296.018820861678	53	127
296.10009070294785	296.1813605442177	57	127
296.10009070294785	296.1813605442177	45	127
296.10009070294785	296.54126984126987	75	127
296.3438775510204	296.4251700680272	60	127
296.3438775510204	296.4251700680272	48	127
296.59931972789116	296.69219954648526	53	127
296.59931972789116	296.69219954648526	65	127
296.95920634920634	297.04049886621317	63	127
296.95920634920634	297.04049886621317	69	127
296.95920634920634	297.04049886621317	51	127
297.3075283446712	297.4004081632653	48	127
297.3075283446712	297.4004081632653	60	127
297.3075283446712	297.4004081632653	72	127
297.5745351473923	297.64421768707484	45	127
297.5745351473923	297.64421768707484	57	127
297.5745351473923	297.64421768707484	63	127
297.5745351473923	297.64421768707484	75	127
297.8880045351474	297.9460770975057	53	127
297.8880045351474	297.9460770975057	41	127
297.8880045351474	297.9460770975057	77	127
297.8880045351474	297.9460770975057	65	127
298.2131065759637	298.3059863945578	81	127
298.2131065759637	298.3059863945578	41	127
298.2131065759637	298.3059863945578	29	127
298.2131065759637	298.3059863945578	69	127
298.54979591836735	299.14190476190475	46	127
298.54979591836735	299.14190476190475	82	127
298.54979591836735	299.14190476190475	34	127
298.54979591836735	299.14190476190475	70	127
299.2231746031746	299.8385034013605	74	127
299.2231746031746	299.8385034013605	86	127
299.2231746031746	299.8385034013605	50	127
299.2231746031746	299.8385034013605	38	127
299.9313605442177	300.0126530612245	74	127
299.9313605442177	300.0126530612245	62	127
299.9313605442177	300.0126530612245	50	127
299.9313605442177	300.0126530612245	38	127
300.22163265306125	300.31451247165535	66	127
300.22163265306125	300.31451247165535	54	127
300.22163265306125	300.31451247165535	42	127
300.22163265306125	300.31451247165535	78	127
300.5699319727891	301.0691609977324	67	127
300.5699319727891	301.0691609977324	43	127
300.5699319727891	301.0691609977324	79	127
300.5699319727891	301.0691609977324	55	127
301.1620408163265	301.76573696145124	55	127
301.58	301.66124716553287	62	127
301.58	301.66124716553287	70	127
301.58	301.66124716553287	67	127
301.84702947845807	302.41591836734693	58	127
302.1604988662132	302.241768707483	74	127
302.1604988662132	302.241768707483	62	127
302.1604988662132	302.241768707483	67	127
302.49718820861676	302.57845804988665	62	127
302.49718820861676	302.57845804988665	66	127
302.49718820861676	302.57845804988665	50	127
302.7990476190476	302.8803174603175	54	127
302.7990476190476	302.8803174603175	62	127
302.7990476190476	302.8803174603175	69	127
303.1473469387755	303.6814058956916	55	127
303.4259863945578	303.5072335600907	67	127
303.4259863945578	303.5072335600907	62	127
303.4259863945578	303.5072335600907	70	127
303.7742857142857	303.82072562358275	70	127
303.7742857142857	303.82072562358275	74	127
303.7742857142857	303.82072562358275	58	127
304.052925170068	304.13419501133785	70	127
304.052925170068	304.13419501133785	77	127
304.052925170068	304.13419501133785	62	127
304.35478458049886	304.4128344671202	79	127
304.35478458049886	304.4128344671202	70	127
304.35478458049886	304.4128344671202	63	127
304.67986394557823	304.7495238095238	75	127
304.67986394557823	304.7495238095238	55	127
304.67986394557823	304.7495238095238	70	127
304.9701133786848	305.0629931972789	77	127
304.9701133786848	305.0629931972789	75	127
304.9701133786848	305.0629931972789	56	127
304.9701133786848	305.0629931972789	72	127
305.2835827664399	305.3184126984127	58	127
305.2835827664399	305.3184126984127	74	127
305.2835827664399	305.3184126984127	68	127
305.2835827664399	305.3184126984127	82	127
305.550589569161	305.7944217687075	63	127
305.550589569161	305.7944217687075	75	127
305.550589569161	305.7944217687075	67	127
306.21238095238095	306.7696598639456	51	127
306.21238095238095	306.7696598639456	75	127
306.21238095238095	306.7696598639456	39	127
306.21238095238095	306.7696598639456	63	127
306.85092970521544	307.44303854875284	55	127
306.85092970521544	307.44303854875284	43	127
306.85092970521544	307.44303854875284	79	127
306.85092970521544	307.44303854875284	67	127
307.50108843537413	307.57074829931975	67	127
307.50108843537413	307.57074829931975	55	127
307.50108843537413	307.57074829931975	43	127
307.50108843537413	307.57074829931975	31	127
307.7797278911565	307.8726077097506	35	127
307.7797278911565	307.8726077097506	47	127
307.7797278911565	307.8726077097506	71	127
307.7797278911565	307.8726077097506	59	127
308.0931972789116	308.66208616780045	36	127
308.0931972789116	308.66208616780045	48	127
308.0931972789116	308.66208616780045	72	127
308.0931972789116	308.66208616780045	60	127
308.7433560090703	308.82460317460317	75	127
308.7433560090703	308.82460317460317	87	127
308.82460317460317	308.94072562358275	77	127
308.82460317460317	308.94072562358275	89	127
308.94072562358275	309.02197278911564	74	127
308.94072562358275	309.02197278911564	86	127
309.0335827664399	309.126462585034	75	127
309.0335827664399	309.126462585034	87	127
309.1380952380952	309.2309523809524	77	127
309.1380952380952	309.2309523809524	89	127
309.2309523809524	309.34707482993196	90	127
309.2309523809524	309.34707482993196	78	127
309.34707482993196	309.4515646258503	91	127
309.34707482993196	309.4515646258503	79	127
309.4515646258503	309.5444217687075	96	127
309.4515646258503	309.5444217687075	84	127
309.5444217687075	309.6489342403628	80	127
309.5444217687075	309.6489342403628	92	127
309.6489342403628	309.76503401360543	91	127
309.6489342403628	309.76503401360543	79	127
309.7766439909297	309.8695238095238	87	127
309.7766439909297	309.8695238095238	75	127
309.88113378684807	309.98562358276644	89	127
309.88113378684807	309.98562358276644	77	127
309.9972335600907	310.1249433106576	91	127
309.9972335600907	310.1249433106576	79	127
310.1249433106576	310.24104308390025	92	127
310.1249433106576	310.24104308390025	80	127
310.24104308390025	310.3571201814059	91	127
310.24104308390025	310.3571201814059	79	127
310.3571201814059	310.4384126984127	77	127
310.3571201814059	310.4384126984127	89	127
310.4384126984127	310.5080725623583	79	127
310.4384126984127	310.5080725623583	91	127
310.5080725623583	310.6009523809524	89	127
310.5080725623583	310.6009523809524	77	127
310.61256235827665	310.70544217687075	87	127
310.61256235827665	310.70544217687075	75	127
310.70544217687075	310.7634693877551	77	127
310.70544217687075	310.7634693877551	89	127
310.7634693877551	310.86795918367346	86	127
310.7634693877551	310.86795918367346	74	127
310.86795918367346	310.98408163265304	72	127
310.86795918367346	310.98408163265304	84	127
310.98408163265304	311.0885714285714	86	127
310.98408163265304	311.0885714285714	74	127
311.0885714285714	311.1930612244898	82	127
311.0885714285714	311.1930612244898	70	127
311.1930612244898	311.3091609977324	69	127
311.1930612244898	311.3091609977324	81	127
311.3207709750567	311.4484807256236	89	127
311.3207709750567	311.4484807256236	77	127
311.46009070294787	311.5065306122449	76	127
311.46009070294787	311.5065306122449	88	127
311.51814058956916	311.6226303854875	91	127
311.51814058956916	311.6226303854875	79	127
311.6226303854875	311.73873015873016	89	127
311.6226303854875	311.73873015873016	77	127
311.73873015873016	311.8548299319728	75	127
311.73873015873016	311.8548299319728	87	127
311.8548299319728	311.95931972789117	86	127
311.8548299319728	311.95931972789117	74	127
311.95931972789117	312.06380952380954	75	127
311.95931972789117	312.06380952380954	87	127
312.06380952380954	312.15668934240364	89	127
312.06380952380954	312.15668934240364	77	127
312.1682993197279	312.2727891156463	79	127
312.1682993197279	312.2727891156463	91	127
312.2727891156463	312.3656689342404	81	127
312.2727891156463	312.3656689342404	93	127
312.3656689342404	312.481768707483	94	127
312.3656689342404	312.481768707483	82	127
312.481768707483	312.5862585034014	96	127
312.481768707483	312.5862585034014	84	127
312.5862585034014	312.6791383219955	86	127
312.5862585034014	312.6791383219955	98	127
312.6791383219955	312.78362811791385	95	127
312.6791383219955	312.78362811791385	83	127
312.78362811791385	312.8881179138322	96	127
312.78362811791385	312.8881179138322	84	127
312.8881179138322	312.9809977324263	98	127
312.8881179138322	312.9809977324263	86	127
312.9926077097506	313.0738775510204	84	127
312.9926077097506	313.0738775510204	96	127
313.0854875283447	313.2364172335601	82	127
313.0854875283447	313.2364172335601	94	127
313.73562358276644	313.81691609977327	58	127
313.73562358276644	313.81691609977327	72	127
313.81691609977327	313.8865759637188	60	127
313.81691609977327	313.8865759637188	70	127
313.8865759637188	313.96784580498866	72	127
313.8865759637188	313.96784580498866	58	127
313.96784580498866	314.02589569161	70	127
313.96784580498866	314.02589569161	60	127
314.02589569161	314.10716553287983	58	127
314.02589569161	314.10716553287983	72	127
314.10716553287983	314.1652154195011	70	127
314.10716553287983	314.1652154195011	60	127
314.1652154195011	314.20004535147393	72	127
314.1652154195011	314.20004535147393	58	127
314.20004535147393	314.28131519274376	70	127
314.20004535147393	314.28131519274376	60	127
314.28131519274376	314.37419501133786	58	127
314.28131519274376	314.37419501133786	72	127
314.37419501133786	314.46707482993196	60	127
314.37419501133786	314.46707482993196	70	127
314.46707482993196	314.55995464852606	72	127
314.46707482993196	314.55995464852606	58	127
314.55995464852606	314.6528117913832	70	127
314.55995464852606	314.6528117913832	60	127
314.6528117913832	314.7457142857143	58	127
314.6528117913832	314.7457142857143	72	127
314.7457142857143	314.82698412698414	60	127
314.7457142857143	314.82698412698414	70	127
314.82698412698414	314.908253968254	58	127
314.82698412698414	314.908253968254	72	127
314.908253968254	314.9895238095238	70	127
314.908253968254	314.9895238095238	60	127
314.9895238095238	315.0591609977324	72	127
314.9895238095238	315.0591609977324	58	127
315.0591609977324	315.128843537415	70	127
315.0591609977324	315.128843537415	60	127
315.128843537415	315.23333333333335	72	127
315.128843537415	315.23333333333335	58	127
315.23333333333335	315.32621315192745	60	127
315.23333333333335	315.32621315192745	70	127
315.32621315192745	315.4074829931973	58	127
315.32621315192745	315.4074829931973	72	127
315.4074829931973	315.51197278911565	70	127
315.4074829931973	315.51197278911565	60	127
315.51197278911565	315.60485260770974	58	127
315.51197278911565	315.60485260770974	72	127
315.60485260770974	315.67448979591836	70	127
315.60485260770974	315.67448979591836	60	127
315.67448979591836	315.7209523809524	72	127
315.67448979591836	315.7209523809524	58	127
315.7209523809524	315.8138321995465	70	127
315.7209523809524	315.8138321995465	60	127
315.8138321995465	315.8486621315193	72	127
315.8138321995465	315.8486621315193	58	127
315.8486621315193	315.91832199546485	60	127
315.8486621315193	315.91832199546485	70	127
315.91832199546485	316.0228117913832	58	127
315.91832199546485	316.0228117913832	72	127
316.0228117913832	316.0924716553288	60	127
316.0228117913832	316.0924716553288	70	127
316.10408163265305	316.17374149659867	58	127
316.10408163265305	316.17374149659867	72	127
316.17374149659867	316.2434013605442	70	127
316.17374149659867	316.2434013605442	60	127
316.2434013605442	316.3014512471655	58	127
316.2434013605442	316.3014512471655	72	127
316.3014512471655	316.35950113378686	70	127
316.3014512471655	316.35950113378686	60	127
316.35950113378686	316.45238095238096	58	127
316.35950113378686	316.45238095238096	72	127
316.45238095238096	316.54526077097506	70	127
316.45238095238096	316.54526077097506	60	127
316.54526077097506	316.6265306122449	58	127
316.54526077097506	316.6265306122449	72	127
316.6265306122449	316.7078004535147	60	127
316.6265306122449	316.7078004535147	70	127
316.7078004535147	316.7890702947846	58	127
316.7078004535147	316.7890702947846	72	127
316.7890702947846	316.8819501133787	70	127
316.7890702947846	316.8819501133787	60	127
316.8819501133787	316.9748299319728	72	127
316.8819501133787	316.9748299319728	58	127
316.9748299319728	317.0793197278912	60	127
316.9748299319728	317.0793197278912	70	127
317.0793197278912	317.1721995464853	58	127
317.0793197278912	317.1721995464853	72	127
317.1721995464853	317.2650793650794	70	127
317.1721995464853	317.2650793650794	60	127
317.2650793650794	317.3463492063492	58	127
317.2650793650794	317.3463492063492	72	127
317.3463492063492	317.4159863945578	70	127
317.3463492063492	317.4159863945578	60	127
317.4159863945578	317.49727891156465	58	127
317.4159863945578	317.49727891156465	72	127
317.49727891156465	317.59015873015875	70	127
317.49727891156465	317.59015873015875	60	127
317.59015873015875	317.63659863945577	72	127
317.59015873015875	317.63659863945577	58	127
317.63659863945577	317.6714285714286	70	127
317.63659863945577	317.6714285714286	60	127
317.6714285714286	317.74108843537414	58	127
317.6714285714286	317.74108843537414	72	127
317.74108843537414	317.7875283446712	60	127
317.74108843537414	317.7875283446712	70	127
317.7875283446712	317.8571882086168	72	127
317.7875283446712	317.8571882086168	58	127
317.8571882086168	317.9500680272109	60	127
317.8571882086168	317.9500680272109	70	127
317.9500680272109	318.05455782312924	58	127
317.9500680272109	318.05455782312924	72	127
318.05455782312924	318.08938775510205	70	127
318.05455782312924	318.08938775510205	60	127
318.08938775510205	318.18226757369615	72	127
318.08938775510205	318.18226757369615	58	127
318.18226757369615	318.27514739229025	60	127
318.18226757369615	318.27514739229025	70	127
318.27514739229025	318.3331746031746	58	127
318.27514739229025	318.3331746031746	72	127
318.3331746031746	318.4144671201814	60	127
318.3331746031746	318.4144671201814	70	127
318.4144671201814	318.5073469387755	58	127
318.4144671201814	318.5073469387755	72	127
318.5073469387755	318.58861678004536	60	127
318.5073469387755	318.58861678004536	70	127
318.58861678004536	318.6698866213152	58	127
318.58861678004536	318.6698866213152	73	127
318.6698866213152	318.7627664399093	61	127
318.6698866213152	318.7627664399093	70	127
318.7627664399093	318.8556462585034	73	127
318.7627664399093	318.8556462585034	58	127
318.8556462585034	318.93691609977327	61	127
318.8556462585034	318.93691609977327	70	127
318.93691609977327	319.0181859410431	58	127
318.93691609977327	319.0181859410431	73	127
319.0181859410431	319.08784580498866	61	127
319.0181859410431	319.08784580498866	70	127
319.08784580498866	319.18072562358276	73	127
319.08784580498866	319.18072562358276	58	127
319.18072562358276	319.2503628117914	61	127
319.18072562358276	319.2503628117914	70	127
319.2503628117914	319.3432653061225	73	127
319.2503628117914	319.3432653061225	58	127
319.3432653061225	319.4361451247166	70	127
319.3432653061225	319.4361451247166	61	127
319.4361451247166	319.5290249433107	58	127
319.4361451247166	319.5290249433107	73	127
319.5290249433107	319.6219047619048	61	127
319.5290249433107	319.6219047619048	70	127
319.6219047619048	319.7147845804989	58	127
319.6219047619048	319.7147845804989	73	127
319.7147845804989	319.78444444444443	61	127
319.7147845804989	319.78444444444443	70	127
319.78444444444443	319.85410430839005	58	127
319.78444444444443	319.85410430839005	73	127
319.85410430839005	319.9353741496599	70	127
319.85410430839005	319.9353741496599	61	127
319.9353741496599	320.028253968254	73	127
319.9353741496599	320.028253968254	58	127
320.028253968254	320.1095238095238	61	127
320.028253968254	320.1095238095238	70	127
320.1095238095238	320.16755102040815	73	127
320.1095238095238	320.16755102040815	58	127
320.16755102040815	320.2372335600907	70	127
320.16755102040815	320.2372335600907	61	127
320.2372335600907	320.3301133786848	58	127
320.2372335600907	320.3301133786848	73	127
320.3301133786848	320.3997732426304	70	127
320.3301133786848	320.3997732426304	61	127
320.3997732426304	320.4578231292517	73	127
320.3997732426304	320.4578231292517	58	127
320.4578231292517	320.53909297052155	61	127
320.4578231292517	320.53909297052155	70	127
320.53909297052155	320.63197278911565	61	127
320.53909297052155	320.63197278911565	76	127
320.63197278911565	320.72485260770975	73	127
320.63197278911565	320.72485260770975	64	127
320.72485260770975	320.8061224489796	61	127
320.72485260770975	320.8061224489796	76	127
320.8061224489796	320.8990022675737	64	127
320.8061224489796	320.8990022675737	73	127
320.8990022675737	320.99185941043083	76	127
320.8990022675737	320.99185941043083	61	127
320.99185941043083	321.07315192743766	64	127
320.99185941043083	321.07315192743766	73	127
321.07315192743766	321.1195918367347	61	127
321.07315192743766	321.1195918367347	76	127
321.1195918367347	321.1892290249433	73	127
321.1195918367347	321.1892290249433	64	127
321.1892290249433	321.25891156462586	61	127
321.1892290249433	321.25891156462586	77	127
321.25891156462586	321.3285714285714	73	127
321.25891156462586	321.3285714285714	65	127
321.3285714285714	321.40984126984125	77	127
321.3285714285714	321.40984126984125	61	127
321.40984126984125	321.5026984126984	73	127
321.40984126984125	321.5026984126984	65	127
321.5026984126984	321.57238095238097	61	127
321.5026984126984	321.57238095238097	77	127
321.57238095238097	321.6420408163265	73	127
321.57238095238097	321.6420408163265	65	127
321.6420408163265	321.7349206349206	77	127
321.6420408163265	321.7349206349206	61	127
321.7349206349206	321.81619047619046	73	127
321.7349206349206	321.81619047619046	65	127
321.81619047619046	321.89746031746034	77	127
321.81619047619046	321.89746031746034	61	127
321.89746031746034	321.99034013605444	65	127
321.89746031746034	321.99034013605444	73	127
321.99034013605444	322.0716099773243	61	127
321.99034013605444	322.0716099773243	77	127
322.0716099773243	322.12965986394556	73	127
322.0716099773243	322.12965986394556	65	127
322.12965986394556	322.1877097505669	77	127
322.12965986394556	322.1877097505669	61	127
322.1877097505669	322.23414965986393	73	127
322.1877097505669	322.23414965986393	65	127
322.23414965986393	322.3153968253968	61	127
322.23414965986393	322.3153968253968	77	127
322.3153968253968	322.3734693877551	65	127
322.3153968253968	322.3734693877551	73	127
322.3734693877551	322.45473922902494	60	127
322.3734693877551	322.45473922902494	75	127
322.45473922902494	322.54761904761904	63	127
322.45473922902494	322.54761904761904	72	127
322.54761904761904	322.64049886621314	75	127
322.54761904761904	322.64049886621314	60	127
322.64049886621314	322.721746031746	72	127
322.64049886621314	322.721746031746	63	127
322.721746031746	322.7914285714286	60	127
322.721746031746	322.7914285714286	75	127
322.7914285714286	322.8726984126984	63	127
322.7914285714286	322.8726984126984	72	127
322.8726984126984	322.9655782312925	60	127
322.8726984126984	322.9655782312925	75	127
322.9655782312925	323.0584580498866	63	127
322.9655782312925	323.0584580498866	72	127
323.0584580498866	323.11650793650796	73	127
323.0584580498866	323.11650793650796	58	127
323.11650793650796	323.1977777777778	61	127
323.11650793650796	323.1977777777778	70	127
323.1977777777778	323.2790476190476	58	127
323.1977777777778	323.2790476190476	73	127
323.2790476190476	323.3719274376417	70	127
323.2790476190476	323.3719274376417	61	127
323.3719274376417	323.4648072562358	73	127
323.3719274376417	323.4648072562358	58	127
323.4648072562358	323.53446712018143	61	127
323.4648072562358	323.53446712018143	70	127
323.53446712018143	323.62734693877553	73	127
323.53446712018143	323.62734693877553	58	127
323.62734693877553	323.6970068027211	70	127
323.62734693877553	323.6970068027211	61	127
323.6970068027211	323.7898866213152	56	127
323.6970068027211	323.7898866213152	72	127
323.7898866213152	323.871156462585	60	127
323.7898866213152	323.871156462585	68	127
323.871156462585	323.9640362811791	72	127
323.871156462585	323.9640362811791	56	127
323.9640362811791	324.0568934240363	68	127
323.9640362811791	324.0568934240363	60	127
324.0568934240363	324.1033560090703	72	127
324.0568934240363	324.1033560090703	56	127
324.1033560090703	324.17301587301586	68	127
324.1033560090703	324.17301587301586	60	127
324.17301587301586	324.1962358276644	56	127
324.17301587301586	324.1962358276644	72	127
324.1962358276644	324.265873015873	60	127
324.1962358276644	324.265873015873	68	127
324.265873015873	324.3587528344671	56	127
324.265873015873	324.3587528344671	72	127
324.3587528344671	324.4516553287982	60	127
324.3587528344671	324.4516553287982	68	127
324.4516553287982	324.5445351473923	56	127
324.4516553287982	324.5445351473923	72	127
324.5445351473923	324.62580498866214	68	127
324.5445351473923	324.62580498866214	60	127
324.62580498866214	324.6954648526077	72	127
324.62580498866214	324.6954648526077	56	127
324.6954648526077	324.7883446712018	68	127
324.6954648526077	324.7883446712018	60	127
324.7883446712018	324.8812244897959	72	127
324.7883446712018	324.8812244897959	56	127
324.8812244897959	324.9508843537415	60	127
324.8812244897959	324.9508843537415	68	127
324.9508843537415	325.0205442176871	70	127
324.9508843537415	325.0205442176871	54	127
325.0205442176871	325.1018140589569	58	127
325.0205442176871	325.1018140589569	66	127
325.1018140589569	325.148253968254	70	127
325.1018140589569	325.148253968254	54	127
325.148253968254	325.2063038548753	58	127
325.148253968254	325.2063038548753	66	127
325.2063038548753	325.2759637188209	54	127
325.2063038548753	325.2759637188209	70	127
325.2759637188209	325.3224036281179	66	127
325.2759637188209	325.3224036281179	58	127
325.3224036281179	325.368843537415	70	127
325.3224036281179	325.368843537415	54	127
325.368843537415	325.4268934240363	66	127
325.368843537415	325.4268934240363	58	127
325.4268934240363	325.49655328798184	53	127
325.4268934240363	325.49655328798184	68	127
325.49655328798184	325.589410430839	65	127
325.49655328798184	325.589410430839	56	127
325.589410430839	325.65909297052156	68	127
325.589410430839	325.65909297052156	53	127
325.65909297052156	325.7287528344671	65	127
325.65909297052156	325.7287528344671	56	127
325.7287528344671	325.78680272108846	68	127
325.7287528344671	325.78680272108846	53	127
325.78680272108846	325.856462585034	56	127
325.78680272108846	325.856462585034	65	127
325.856462585034	325.9493424036281	53	127
325.856462585034	325.9493424036281	68	127
325.9493424036281	326.0190022675737	65	127
325.9493424036281	326.0190022675737	56	127
326.0190022675737	326.0886621315193	68	127
326.0190022675737	326.0886621315193	53	127
326.0886621315193	326.1467120181406	65	127
326.0886621315193	326.1467120181406	56	127
326.1467120181406	326.2395918367347	68	127
326.1467120181406	326.2395918367347	53	127
326.2395918367347	326.3324716553288	56	127
326.2395918367347	326.3324716553288	65	127
326.3324716553288	326.39052154195014	68	127
326.3324716553288	326.39052154195014	53	127
326.39052154195014	326.47179138321997	65	127
326.39052154195014	326.47179138321997	56	127
326.47179138321997	326.5414512471655	68	127
326.47179138321997	326.5414512471655	53	127
326.5414512471655	326.5995011337869	65	127
326.5414512471655	326.5995011337869	56	127
326.5995011337869	326.692380952381	66	127
326.5995011337869	326.692380952381	51	127
326.692380952381	326.78526077097507	63	127
326.692380952381	326.78526077097507	54	127
326.78526077097507	326.88975056689344	66	127
326.78526077097507	326.88975056689344	51	127
326.88975056689344	326.98263038548754	54	127
326.88975056689344	326.98263038548754	63	127
326.98263038548754	327.06390022675737	51	127
326.98263038548754	327.06390022675737	66	127
327.06390022675737	327.1451700680272	63	127
327.06390022675737	327.1451700680272	54	127
327.1451700680272	327.2380498866213	66	127
327.1451700680272	327.2380498866213	51	127
327.2380498866213	327.33090702947845	63	127
327.2380498866213	327.33090702947845	54	127
327.33090702947845	327.4121995464853	49	127
327.33090702947845	327.4121995464853	65	127
327.4121995464853	327.4702494331066	53	127
327.4121995464853	327.4702494331066	61	127
327.4702494331066	327.53990929705213	49	127
327.4702494331066	327.53990929705213	65	127
327.53990929705213	327.621179138322	53	127
327.53990929705213	327.621179138322	61	127
327.621179138322	327.70244897959185	65	127
327.621179138322	327.70244897959185	49	127
327.70244897959185	327.76049886621314	53	127
327.70244897959185	327.76049886621314	61	127
327.76049886621314	327.85337868480724	65	127
327.76049886621314	327.85337868480724	49	127
327.85337868480724	327.9578684807256	61	127
327.85337868480724	327.9578684807256	53	127
327.9578684807256	328.01591836734696	48	127
327.9578684807256	328.01591836734696	63	127
328.01591836734696	328.0855782312925	51	127
328.01591836734696	328.0855782312925	60	127
328.0855782312925	328.16684807256235	48	127
328.0855782312925	328.16684807256235	63	127
328.16684807256235	328.23650793650796	51	127
328.16684807256235	328.23650793650796	60	127
328.23650793650796	328.32938775510206	63	127
328.23650793650796	328.32938775510206	48	127
328.32938775510206	328.42226757369616	60	127
328.32938775510206	328.42226757369616	51	127
328.42226757369616	328.503537414966	63	127
328.42226757369616	328.503537414966	48	127
328.503537414966	328.5615873015873	60	127
328.503537414966	328.5615873015873	51	127
328.57319727891155	328.6312471655329	49	127
328.57319727891155	328.6312471655329	65	127
328.6312471655329	328.6776870748299	53	127
328.6312471655329	328.6776870748299	61	127
328.6776870748299	328.73573696145127	65	127
328.6776870748299	328.73573696145127	49	127
328.73573696145127	328.82861678004537	53	127
328.73573696145127	328.82861678004537	61	127
328.82861678004537	328.92149659863946	65	127
328.82861678004537	328.92149659863946	49	127
328.92149659863946	329.0027664399093	53	127
328.92149659863946	329.0027664399093	61	127
329.0027664399093	329.0956462585034	65	127
329.0027664399093	329.0956462585034	49	127
329.0956462585034	329.1885260770975	61	127
329.0956462585034	329.1885260770975	53	127
329.1885260770975	329.2697732426304	51	127
329.1885260770975	329.2697732426304	66	127
329.2697732426304	329.3626757369615	63	127
329.2697732426304	329.3626757369615	54	127
329.3626757369615	329.4091156462585	66	127
329.3626757369615	329.4091156462585	51	127
329.4091156462585	329.4787528344671	63	127
329.4091156462585	329.4787528344671	54	127
329.4787528344671	329.56004535147395	68	127
329.4787528344671	329.56004535147395	53	127
329.56004535147395	329.65292517006804	56	127
329.56004535147395	329.65292517006804	65	127
329.65292517006804	329.7341950113379	68	127
329.65292517006804	329.7341950113379	53	127
329.7341950113379	329.80385487528343	56	127
329.7341950113379	329.80385487528343	65	127
329.80385487528343	329.89673469387753	66	127
329.80385487528343	329.89673469387753	51	127
329.89673469387753	329.9895918367347	54	127
329.89673469387753	329.9895918367347	63	127
329.9895918367347	330.05927437641725	51	127
329.9895918367347	330.05927437641725	66	127
330.05927437641725	330.15215419501135	63	127
330.05927437641725	330.15215419501135	54	127
330.15215419501135	330.24503401360545	49	127
330.15215419501135	330.24503401360545	65	127
330.24503401360545	330.33791383219955	53	127
330.24503401360545	330.33791383219955	61	127
330.33791383219955	330.3959410430839	65	127
330.33791383219955	330.3959410430839	49	127
330.3959410430839	330.4540136054422	49	127
330.3959410430839	330.4540136054422	65	127
330.4540136054422	330.50043083900226	61	127
330.4540136054422	330.50043083900226	53	127
330.50043083900226	330.5468934240363	65	127
330.50043083900226	330.5468934240363	49	127
330.5468934240363	330.6397732426304	61	127
330.5468934240363	330.6397732426304	53	127
330.6397732426304	330.7210430839002	48	127
330.6397732426304	330.7210430839002	63	127
330.7210430839002	330.8139229024943	60	127
330.7210430839002	330.8139229024943	51	127
330.8139229024943	330.88358276643993	48	127
330.8139229024943	330.88358276643993	63	127
330.88358276643993	330.9416326530612	51	127
330.88358276643993	330.9416326530612	60	127
330.9416326530612	331.01126984126984	53	127
330.9416326530612	331.01126984126984	68	127
331.01126984126984	331.05773242630386	56	127
331.01126984126984	331.05773242630386	65	127
331.05773242630386	331.15061224489796	53	127
331.05773242630386	331.15061224489796	68	127
331.15061224489796	331.24349206349206	56	127
331.15061224489796	331.24349206349206	65	127
331.24349206349206	331.33637188208615	53	127
331.24349206349206	331.33637188208615	68	127
331.33637188208615	331.41761904761904	65	127
331.33637188208615	331.41761904761904	56	127
331.41761904761904	331.49891156462587	53	127
331.41761904761904	331.49891156462587	68	127
331.49891156462587	331.56857142857143	65	127
331.49891156462587	331.56857142857143	56	127
331.56857142857143	331.66145124716553	51	127
331.56857142857143	331.66145124716553	66	127
331.66145124716553	331.75433106575963	63	127
331.66145124716553	331.75433106575963	54	127
331.75433106575963	331.84721088435373	51	127
331.75433106575963	331.84721088435373	66	127
331.84721088435373	331.9517006802721	63	127
331.84721088435373	331.9517006802721	54	127
331.9517006802721	332.032947845805	66	127
331.9517006802721	332.032947845805	51	127
332.032947845805	332.1142403628118	63	127
332.032947845805	332.1142403628118	54	127
332.1142403628118	332.2071201814059	51	127
332.1142403628118	332.2071201814059	66	127
332.2071201814059	332.3	63	127
332.2071201814059	332.3	54	127
332.3	332.3928798185941	49	127
332.3	332.3928798185941	65	127
332.3928798185941	332.4509297052154	61	127
332.3928798185941	332.4509297052154	53	127
332.4509297052154	332.5321995464853	65	127
332.4509297052154	332.5321995464853	49	127
332.5321995464853	332.60185941043085	53	127
332.5321995464853	332.60185941043085	61	127
332.60185941043085	332.69473922902495	49	127
332.60185941043085	332.69473922902495	65	127
332.69473922902495	332.7643990929705	53	127
332.69473922902495	332.7643990929705	61	127
332.7643990929705	332.8340589569161	49	127
332.7643990929705	332.8340589569161	65	127
332.8340589569161	332.9037188208617	61	127
332.8340589569161	332.9037188208617	53	127
332.9037188208617	332.9849886621315	48	127
332.9037188208617	332.9849886621315	63	127
332.9849886621315	333.04303854875286	60	127
332.9849886621315	333.04303854875286	51	127
333.04303854875286	333.1126984126984	48	127
333.04303854875286	333.1126984126984	63	127
333.1126984126984	333.2055782312925	60	127
333.1126984126984	333.2055782312925	51	127
333.2055782312925	333.28684807256235	63	127
333.2055782312925	333.28684807256235	48	127
333.28684807256235	333.37972789115645	51	127
333.28684807256235	333.37972789115645	60	127
333.37972789115645	333.47260770975055	48	127
333.37972789115645	333.47260770975055	63	127
333.47260770975055	333.54226757369617	51	127
333.47260770975055	333.54226757369617	60	127
333.54226757369617	333.64675736961453	49	127
333.54226757369617	333.64675736961453	65	127
333.64675736961453	333.7164172335601	53	127
333.64675736961453	333.7164172335601	61	127
333.7164172335601	333.78607709750565	49	127
333.7164172335601	333.78607709750565	65	127
333.78607709750565	333.86732426303854	53	127
333.78607709750565	333.86732426303854	61	127
333.86732426303854	333.94861678004537	49	127
333.86732426303854	333.94861678004537	65	127
333.94861678004537	334.0298866213152	61	127
333.94861678004537	334.0298866213152	53	127
334.0298866213152	334.1227664399093	65	127
334.0298866213152	334.1227664399093	49	127
334.1227664399093	334.2156462585034	61	127
334.1227664399093	334.2156462585034	53	127
334.2156462585034	334.285283446712	51	127
334.2156462585034	334.285283446712	66	127
334.285283446712	334.3433560090703	54	127
334.285283446712	334.3433560090703	63	127
334.3433560090703	334.42462585034014	51	127
334.3433560090703	334.42462585034014	66	127
334.42462585034014	334.50589569160996	54	127
334.42462585034014	334.50589569160996	63	127
334.50589569160996	334.5755555555556	68	127
334.50589569160996	334.5755555555556	53	127
334.5755555555556	334.58714285714285	56	127
334.5755555555556	334.58714285714285	65	127
334.58714285714285	334.68004535147395	68	127
334.58714285714285	334.68004535147395	53	127
334.68004535147395	334.77292517006805	56	127
334.68004535147395	334.77292517006805	65	127
334.77292517006805	334.83097505668934	51	127
334.77292517006805	334.83097505668934	66	127
334.83097505668934	334.92385487528344	54	127
334.83097505668934	334.92385487528344	63	127
334.92385487528344	335.01673469387754	51	127
334.92385487528344	335.01673469387754	66	127
335.01673469387754	335.1212244897959	63	127
335.01673469387754	335.1212244897959	54	127
335.1212244897959	335.2024716553288	49	127
335.1212244897959	335.2024716553288	65	127
335.2024716553288	335.2953741496599	53	127
335.2024716553288	335.2953741496599	61	127
335.2953741496599	335.388253968254	49	127
335.2953741496599	335.388253968254	65	127
335.388253968254	335.45791383219955	61	127
335.388253968254	335.45791383219955	53	127
335.45791383219955	335.5391836734694	65	127
335.45791383219955	335.5391836734694	49	127
335.5391836734694	335.608820861678	61	127
335.5391836734694	335.608820861678	53	127
335.608820861678	335.67850340136056	65	127
335.608820861678	335.67850340136056	49	127
335.67850340136056	335.71331065759637	61	127
335.67850340136056	335.71331065759637	53	127
335.71331065759637	335.7481632653061	48	127
335.71331065759637	335.7481632653061	63	127
335.7481632653061	335.77138321995466	51	127
335.7481632653061	335.77138321995466	60	127
335.77138321995466	335.8526530612245	48	127
335.77138321995466	335.8526530612245	63	127
335.8526530612245	335.91068027210883	60	127
335.8526530612245	335.91068027210883	51	127
335.92231292517005	336.0151700680272	68	127
335.92231292517005	336.0151700680272	53	127
336.0151700680272	336.09646258503403	65	127
336.0151700680272	336.09646258503403	56	127
336.09646258503403	336.17773242630386	68	127
336.09646258503403	336.17773242630386	53	127
336.17773242630386	336.2590022675737	56	127
336.17773242630386	336.2590022675737	65	127
336.2590022675737	336.3402721088435	53	127
336.2590022675737	336.3402721088435	68	127
336.3402721088435	336.4215192743764	65	127
336.3402721088435	336.4215192743764	56	127
336.4215192743764	336.4795918367347	53	127
336.4215192743764	336.4795918367347	68	127
336.4795918367347	336.54925170068026	56	127
336.4795918367347	336.54925170068026	65	127
336.54925170068026	336.6537414965986	66	127
336.54925170068026	336.6537414965986	51	127
336.6537414965986	336.7466213151927	63	127
336.6537414965986	336.7466213151927	54	127
336.7466213151927	336.8511111111111	66	127
336.7466213151927	336.8511111111111	51	127
336.8511111111111	336.94396825396825	54	127
336.8511111111111	336.94396825396825	63	127
336.94396825396825	337.0252607709751	51	127
336.94396825396825	337.0252607709751	66	127
337.0252607709751	337.1065306122449	54	127
337.0252607709751	337.1065306122449	63	127
337.1065306122449	337.18780045351474	51	127
337.1065306122449	337.18780045351474	66	127
337.18780045351474	337.26907029478457	63	127
337.18780045351474	337.26907029478457	54	127
337.26907029478457	337.31551020408165	65	127
337.26907029478457	337.31551020408165	49	127
337.31551020408165	337.3967800453515	53	127
337.31551020408165	337.3967800453515	61	127
337.3967800453515	337.4780498866213	49	127
337.3967800453515	337.4780498866213	65	127
337.4780498866213	337.53609977324265	61	127
337.4780498866213	337.53609977324265	53	127
337.53609977324265	337.62897959183675	49	127
337.53609977324265	337.62897959183675	65	127
337.62897959183675	337.72185941043085	53	127
337.62897959183675	337.72185941043085	61	127
337.72185941043085	337.81473922902495	49	127
337.72185941043085	337.81473922902495	65	127
337.81473922902495	337.8843990929705	53	127
337.81473922902495	337.8843990929705	61	127
337.8843990929705	337.9540362811791	48	127
337.8843990929705	337.9540362811791	63	127
337.9540362811791	338.0469387755102	51	127
337.9540362811791	338.0469387755102	60	127
338.0469387755102	338.1049886621315	63	127
338.0469387755102	338.1049886621315	48	127
338.1049886621315	338.1978684807256	51	127
338.1049886621315	338.1978684807256	60	127
338.1978684807256	338.26750566893423	63	127
338.1978684807256	338.26750566893423	48	127
338.26750566893423	338.36040816326533	60	127
338.26750566893423	338.36040816326533	51	127
338.36040816326533	338.45328798185943	63	127
338.36040816326533	338.45328798185943	48	127
338.45328798185943	338.54616780045353	60	127
338.45328798185943	338.54616780045353	51	127
338.54616780045353	338.82480725623583	58	127
338.54616780045353	338.82480725623583	49	127
338.54616780045353	338.82480725623583	46	127
338.54616780045353	338.82480725623583	61	127
338.82480725623583	338.8828344671202	85	127
338.82480725623583	338.8828344671202	73	127
338.9176870748299	338.98732426303854	85	127
338.9176870748299	338.98732426303854	73	127
339.1150566893424	339.1614965986395	75	127
339.1150566893424	339.1614965986395	87	127
339.1963265306122	339.41691609977323	77	127
339.1963265306122	339.41691609977323	89	127
339.41691609977323	339.4981632653061	94	127
339.41691609977323	339.4981632653061	82	127
339.4981632653061	339.5678458049887	77	127
339.4981632653061	339.5678458049887	89	127
339.6839455782313	339.73038548752834	89	127
339.6839455782313	339.73038548752834	77	127
339.76521541950115	339.81165532879817	77	127
339.76521541950115	339.81165532879817	89	127
339.9741950113379	340.0322448979592	77	127
339.9741950113379	340.0322448979592	89	127
340.0554648526077	340.11349206349206	88	127
340.0554648526077	340.11349206349206	76	127
340.29927437641726	340.35732426303855	75	127
340.29927437641726	340.35732426303855	87	127
340.39215419501136	340.4734240362812	85	127
340.39215419501136	340.4734240362812	73	127
340.63596371882085	340.6940136054422	72	127
340.63596371882085	340.6940136054422	84	127
340.72884353741495	340.81011337868483	82	127
340.72884353741495	340.81011337868483	70	127
340.9378231292517	340.99587301587303	68	127
340.9378231292517	340.99587301587303	80	127
341.01909297052157	341.11197278911567	67	127
341.01909297052157	341.11197278911567	79	127
341.2396825396825	341.29773242630387	87	127
341.2396825396825	341.29773242630387	75	127
341.3209523809524	341.39061224489797	75	127
341.3209523809524	341.39061224489797	87	127
341.52993197278914	341.58798185941043	75	127
341.52993197278914	341.58798185941043	87	127
341.611201814059	341.68086167800453	75	127
341.611201814059	341.68086167800453	87	127
341.80857142857144	341.85501133786846	89	127
341.80857142857144	341.85501133786846	77	127
341.88984126984127	341.9246712018141	91	127
341.88984126984127	341.9246712018141	79	127
342.0407709750567	342.07560090702947	80	127
342.0407709750567	342.07560090702947	92	127
342.1104308390023	342.1917006802721	94	127
342.1104308390023	342.1917006802721	82	127
342.34263038548755	342.40068027210884	82	127
342.34263038548755	342.40068027210884	94	127
342.4239002267574	342.5167800453515	94	127
342.4239002267574	342.5167800453515	82	127
342.6676870748299	342.7257596371882	96	127
342.6676870748299	342.7257596371882	84	127
342.760566893424	342.84185941043086	92	127
342.760566893424	342.84185941043086	80	127
343.75904761904764	343.8751473922903	65	127
343.75904761904764	343.8751473922903	68	127
343.75904761904764	343.8751473922903	72	127
343.75904761904764	343.8751473922903	60	127
343.75904761904764	343.8751473922903	77	127
343.75904761904764	343.8751473922903	80	127
344.35115646258504	344.5020634920635	72	127
344.35115646258504	344.5020634920635	60	127
344.35115646258504	344.5020634920635	65	127
344.35115646258504	344.5020634920635	68	127
344.35115646258504	344.5020634920635	77	127
344.35115646258504	344.5020634920635	84	127
344.6414058956916	344.79233560090705	64	127
344.6414058956916	344.79233560090705	60	127
344.6414058956916	344.79233560090705	72	127
344.6414058956916	344.79233560090705	76	127
344.9200453514739	345.07097505668935	67	127
344.9200453514739	345.07097505668935	79	127
344.9200453514739	345.07097505668935	60	127
344.9200453514739	345.07097505668935	72	127
345.57020408163265	345.83721088435374	72	127
345.57020408163265	345.83721088435374	60	127
345.57020408163265	345.83721088435374	80	127
345.57020408163265	345.83721088435374	68	127
345.88367346938776	345.9649433106576	62	127
345.88367346938776	345.9649433106576	58	127
345.88367346938776	345.9649433106576	82	127
345.88367346938776	345.9649433106576	74	127
345.88367346938776	345.9649433106576	70	127
346.0810430839002	346.25519274376416	58	127
346.0810430839002	346.25519274376416	80	127
346.0810430839002	346.25519274376416	77	127
346.0810430839002	346.25519274376416	68	127
346.0810430839002	346.25519274376416	65	127
346.0810430839002	346.25519274376416	70	127
346.4525623582766	346.58027210884353	79	127
346.4525623582766	346.58027210884353	75	127
346.4525623582766	346.58027210884353	70	127
346.4525623582766	346.58027210884353	63	127
346.4525623582766	346.58027210884353	58	127
346.4525623582766	346.58027210884353	67	127
346.74281179138325	346.8705215419501	55	127
346.74281179138325	346.8705215419501	58	127
346.74281179138325	346.8705215419501	63	127
346.74281179138325	346.8705215419501	75	127
346.74281179138325	346.8705215419501	70	127
346.998231292517	347.17238095238093	65	127
346.998231292517	347.17238095238093	60	127
346.998231292517	347.17238095238093	56	127
346.998231292517	347.17238095238093	77	127
346.998231292517	347.17238095238093	75	127
346.998231292517	347.17238095238093	72	127
347.3581405895692	347.38136054421767	74	127
347.3581405895692	347.38136054421767	77	127
347.3581405895692	347.38136054421767	68	127
347.3581405895692	347.38136054421767	82	127
347.3581405895692	347.38136054421767	58	127
347.3581405895692	347.38136054421767	65	127
347.52068027210885	347.7877097505669	75	127
347.52068027210885	347.7877097505669	63	127
347.52068027210885	347.7877097505669	67	127
347.7877097505669	347.86897959183676	70	127
347.7877097505669	347.86897959183676	82	127
347.88056689342403	348.0895691609977	72	127
347.88056689342403	348.0895691609977	84	127
348.0895691609977	348.1940589569161	74	127
348.0895691609977	348.1940589569161	86	127
348.1940589569161	348.321768707483	75	127
348.1940589569161	348.321768707483	87	127
348.321768707483	348.42625850340136	89	127
348.321768707483	348.42625850340136	77	127
348.42625850340136	348.542358276644	86	127
348.42625850340136	348.542358276644	74	127
348.542358276644	348.6236281179138	87	127
348.542358276644	348.6236281179138	75	127
348.6236281179138	348.70489795918365	89	127
348.6236281179138	348.70489795918365	77	127
348.70489795918365	348.77455782312927	78	127
348.70489795918365	348.77455782312927	90	127
348.77455782312927	348.8906575963719	79	127
348.77455782312927	348.8906575963719	91	127
348.8906575963719	348.9951473922903	96	127
348.8906575963719	348.9951473922903	84	127
348.9951473922903	349.09961451247165	92	127
348.9951473922903	349.09961451247165	80	127
349.09961451247165	349.2273469387755	91	127
349.09961451247165	349.2273469387755	79	127
349.2273469387755	349.33183673469387	75	127
349.2273469387755	349.33183673469387	87	127
349.33183673469387	349.4479365079365	77	127
349.33183673469387	349.4479365079365	89	127
349.4479365079365	349.5408163265306	91	127
349.4479365079365	349.5408163265306	79	127
349.5408163265306	349.6336961451247	92	127
349.5408163265306	349.6336961451247	80	127
349.6336961451247	349.74979591836734	91	127
349.6336961451247	349.74979591836734	79	127
349.74979591836734	349.83106575963717	79	127
349.74979591836734	349.83106575963717	91	127
349.83106575963717	349.93555555555554	77	127
349.83106575963717	349.93555555555554	89	127
349.93555555555554	350.06326530612245	75	127
349.93555555555554	350.06326530612245	87	127
350.06326530612245	350.1677551020408	77	127
350.06326530612245	350.1677551020408	89	127
350.1677551020408	350.2606349206349	86	127
350.1677551020408	350.2606349206349	74	127
350.2606349206349	350.3651247165533	84	127
350.2606349206349	350.3651247165533	72	127
350.3651247165533	350.4463945578231	86	127
350.3651247165533	350.4463945578231	74	127
350.4463945578231	350.527664399093	70	127
350.4463945578231	350.527664399093	82	127
350.527664399093	350.63213151927437	81	127
350.527664399093	350.63213151927437	69	127
350.63213151927437	350.73662131519274	89	127
350.63213151927437	350.73662131519274	77	127
350.73662131519274	350.8527437641723	76	127
350.73662131519274	350.8527437641723	88	127
350.8527437641723	350.96884353741495	91	127
350.8527437641723	350.96884353741495	79	127
350.96884353741495	351.0733333333333	89	127
350.96884353741495	351.0733333333333	77	127
351.0733333333333	351.1545804988662	75	127
351.0733333333333	351.1545804988662	87	127
351.1545804988662	351.2707029478458	74	127
351.1545804988662	351.2707029478458	86	127
351.2707029478458	351.32875283446714	75	127
351.2707029478458	351.32875283446714	87	127
351.32875283446714	351.4332426303855	77	127
351.32875283446714	351.4332426303855	89	127
351.4332426303855	351.4912925170068	91	127
351.4332426303855	351.4912925170068	79	127
351.4912925170068	351.60739229024944	93	127
351.4912925170068	351.60739229024944	81	127
351.60739229024944	351.7234920634921	94	127
351.60739229024944	351.7234920634921	82	127
351.7234920634921	351.8395918367347	84	127
351.7234920634921	351.8395918367347	96	127
351.8395918367347	351.92086167800454	98	127
351.8395918367347	351.92086167800454	86	127
351.92086167800454	352.0369614512472	83	127
351.92086167800454	352.0369614512472	95	127
352.0369614512472	352.1298412698413	96	127
352.0369614512472	352.1298412698413	84	127
352.1298412698413	352.23433106575965	98	127
352.1298412698413	352.23433106575965	86	127
352.23433106575965	352.36204081632656	96	127
352.23433106575965	352.36204081632656	84	127
352.36204081632656	352.54780045351475	94	127
352.36204081632656	352.54780045351475	82	127
352.95414965986396	353.04702947845806	72	127
352.95414965986396	353.04702947845806	58	127
353.04702947845806	353.09344671201814	70	127
353.04702947845806	353.09344671201814	60	127
353.09344671201814	353.10507936507935	72	127
353.09344671201814	353.10507936507935	58	127
353.10507936507935	353.18634920634923	60	127
353.10507936507935	353.18634920634923	70	127
353.18634920634923	353.26761904761906	72	127
353.18634920634923	353.26761904761906	58	127
353.26761904761906	353.36049886621316	70	127
353.26761904761906	353.36049886621316	60	127
353.36049886621316	353.45337868480726	58	127
353.36049886621316	353.45337868480726	72	127
353.45337868480726	353.46498866213153	60	127
353.45337868480726	353.46498866213153	70	127
353.46498866213153	353.48820861678007	58	127
353.46498866213153	353.48820861678007	72	127
353.48820861678007	353.54625850340136	60	127
353.48820861678007	353.54625850340136	70	127
353.54625850340136	353.63913832199546	58	127
353.54625850340136	353.63913832199546	72	127
353.63913832199546	353.73201814058956	70	127
353.63913832199546	353.73201814058956	60	127
353.73201814058956	353.82489795918366	58	127
353.73201814058956	353.82489795918366	72	127
353.82489795918366	353.91777777777776	70	127
353.82489795918366	353.91777777777776	60	127
353.91777777777776	354.0106349206349	72	127
353.91777777777776	354.0106349206349	58	127
354.0106349206349	354.103537414966	60	127
354.0106349206349	354.103537414966	70	127
354.103537414966	354.18480725623584	72	127
354.103537414966	354.18480725623584	58	127
354.18480725623584	354.2544671201814	70	127
354.18480725623584	354.2544671201814	60	127
354.2544671201814	354.33573696145123	58	127
354.2544671201814	354.33573696145123	72	127
354.33573696145123	354.42861678004533	70	127
354.33573696145123	354.42861678004533	60	127
354.42861678004533	354.49827664399095	58	127
354.42861678004533	354.49827664399095	72	127
354.49827664399095	354.59115646258505	70	127
354.49827664399095	354.59115646258505	60	127
354.59115646258505	354.6724263038549	72	127
354.59115646258505	354.6724263038549	58	127
354.6724263038549	354.765306122449	60	127
354.6724263038549	354.765306122449	70	127
354.765306122449	354.81174603174605	72	127
354.765306122449	354.81174603174605	58	127
354.81174603174605	354.8581859410431	60	127
354.81174603174605	354.8581859410431	70	127
354.8581859410431	354.9278231292517	72	127
354.8581859410431	354.9278231292517	58	127
354.9278231292517	355.0091156462585	70	127
354.9278231292517	355.0091156462585	60	127
355.0091156462585	355.09038548752835	82	127
355.0091156462585	355.09038548752835	48	127
355.09038548752835	355.1716553287982	60	127
355.09038548752835	355.1716553287982	70	127
355.1716553287982	355.2645351473923	48	127
355.1716553287982	355.2645351473923	82	127
355.2645351473923	355.3341723356009	60	127
355.2645351473923	355.3341723356009	70	127
355.3341723356009	355.427074829932	72	127
355.3341723356009	355.427074829932	58	127
355.427074829932	355.4851247165533	70	127
355.427074829932	355.4851247165533	60	127
355.4851247165533	355.5663945578231	72	127
355.4851247165533	355.5663945578231	58	127
355.5663945578231	355.647641723356	60	127
355.5663945578231	355.647641723356	70	127
355.647641723356	355.7405442176871	72	127
355.647641723356	355.7405442176871	58	127
355.7405442176871	355.7637641723356	72	127
355.7405442176871	355.7637641723356	58	127
355.7637641723356	355.84503401360547	70	127
355.7637641723356	355.84503401360547	60	127
355.84503401360547	355.91469387755103	58	127
355.84503401360547	355.91469387755103	72	127
355.91469387755103	356.00757369614513	70	127
355.91469387755103	356.00757369614513	60	127
356.00757369614513	356.10045351473923	58	127
356.00757369614513	356.10045351473923	72	127
356.10045351473923	356.1933333333333	70	127
356.10045351473923	356.1933333333333	60	127
356.1933333333333	356.2862131519274	72	127
356.1933333333333	356.2862131519274	58	127
356.2862131519274	356.3790929705215	60	127
356.2862131519274	356.3790929705215	70	127
356.3790929705215	356.4835827664399	72	127
356.3790929705215	356.4835827664399	58	127
356.4835827664399	356.576462585034	70	127
356.4835827664399	356.576462585034	60	127
356.576462585034	356.66931972789115	72	127
356.576462585034	356.66931972789115	58	127
356.66931972789115	356.7738095238095	60	127
356.66931972789115	356.7738095238095	70	127
356.7738095238095	356.8667120181406	72	127
356.7738095238095	356.8667120181406	58	127
356.8667120181406	356.9595918367347	70	127
356.8667120181406	356.9595918367347	60	127
356.9595918367347	357.0292517006803	72	127
356.9595918367347	357.0292517006803	58	127
357.0292517006803	357.1221315192744	70	127
357.0292517006803	357.1221315192744	60	127
357.1221315192744	357.2150113378685	58	127
357.1221315192744	357.2150113378685	72	127
357.2150113378685	357.2846485260771	60	127
357.2150113378685	357.2846485260771	70	127
357.2846485260771	357.3659410430839	72	127
357.2846485260771	357.3659410430839	58	127
357.3659410430839	357.458820861678	70	127
357.3659410430839	357.458820861678	60	127
357.458820861678	357.54009070294785	58	127
357.458820861678	357.54009070294785	72	127
357.54009070294785	357.6445804988662	70	127
357.54009070294785	357.6445804988662	60	127
357.6445804988662	357.679410430839	82	127
357.6445804988662	357.679410430839	48	127
357.679410430839	357.76068027210886	60	127
357.679410430839	357.76068027210886	70	127
357.76068027210886	357.85356009070296	82	127
357.76068027210886	357.85356009070296	48	127
357.85356009070296	357.9348299319728	60	127
357.85356009070296	357.9348299319728	70	127
357.9348299319728	358.0277097505669	58	127
357.9348299319728	358.0277097505669	73	127
358.0277097505669	358.1089795918367	70	127
358.0277097505669	358.1089795918367	61	127
358.1089795918367	358.1902494331066	73	127
358.1089795918367	358.1902494331066	58	127
358.1902494331066	358.27151927437643	61	127
358.1902494331066	358.27151927437643	70	127
358.27151927437643	358.36439909297053	58	127
358.27151927437643	358.36439909297053	73	127
358.36439909297053	358.38761904761907	70	127
358.36439909297053	358.38761904761907	61	127
358.38761904761907	358.44566893424036	58	127
358.38761904761907	358.44566893424036	73	127
358.44566893424036	358.49210884353744	70	127
358.44566893424036	358.49210884353744	61	127
358.49210884353744	358.5965986394558	73	127
358.49210884353744	358.5965986394558	58	127
358.5965986394558	358.6894784580499	61	127
358.5965986394558	358.6894784580499	70	127
358.6894784580499	358.782358276644	58	127
358.6894784580499	358.782358276644	73	127
358.782358276644	358.8752380952381	61	127
358.782358276644	358.8752380952381	70	127
358.8752380952381	358.9681179138322	58	127
358.8752380952381	358.9681179138322	73	127
358.9681179138322	358.9797278911565	70	127
358.9681179138322	358.9797278911565	61	127
358.9797278911565	359.04938775510203	73	127
358.9797278911565	359.04938775510203	58	127
359.04938775510203	359.11902494331065	70	127
359.04938775510203	359.11902494331065	61	127
359.11902494331065	359.21192743764175	58	127
359.11902494331065	359.21192743764175	73	127
359.21192743764175	359.2815873015873	70	127
359.21192743764175	359.2815873015873	61	127
359.2815873015873	359.35124716553287	58	127
359.2815873015873	359.35124716553287	73	127
359.35124716553287	359.43249433106575	61	127
359.35124716553287	359.43249433106575	70	127
359.43249433106575	359.49056689342405	58	127
359.43249433106575	359.49056689342405	73	127
359.49056689342405	359.58344671201814	61	127
359.49056689342405	359.58344671201814	70	127
359.58344671201814	359.664716553288	58	127
359.58344671201814	359.664716553288	73	127
359.664716553288	359.7343537414966	61	127
359.664716553288	359.7343537414966	70	127
359.7343537414966	359.8156462585034	58	127
359.7343537414966	359.8156462585034	73	127
359.8156462585034	359.9085260770975	61	127
359.8156462585034	359.9085260770975	70	127
359.9085260770975	360.0014058956916	58	127
359.9085260770975	360.0014058956916	73	127
360.0014058956916	360.0710657596372	70	127
360.0014058956916	360.0710657596372	61	127
360.0710657596372	360.1291156462585	82	127
360.0710657596372	360.1291156462585	46	127
360.1291156462585	360.1871655328798	70	127
360.1291156462585	360.1871655328798	58	127
360.1871655328798	360.1987755102041	46	127
360.1871655328798	360.1987755102041	82	127
360.1987755102041	360.2916553287982	70	127
360.1987755102041	360.2916553287982	58	127
360.2916553287982	362.9619501133787	34	127
360.2916553287982	362.9619501133787	46	127
360.2916553287982	360.9650113378685	82	127
360.2916553287982	360.9650113378685	70	127
360.9650113378685	361.62680272108844	74	127
360.9650113378685	361.62680272108844	86	127
361.62680272108844	361.99832199546483	69	127
361.62680272108844	361.99832199546483	81	127
361.99832199546483	362.3234013605442	72	127
361.99832199546483	362.3234013605442	84	127
362.3234013605442	362.88068027210886	70	127
362.3234013605442	362.88068027210886	82	127
362.88068027210886	362.98517006802723	79	127
362.88068027210886	362.98517006802723	67	127
362.9967800453515	365.7251247165533	46	127
362.9967800453515	365.7251247165533	34	127
362.9967800453515	363.6353287981859	77	127
362.9967800453515	363.6353287981859	65	127
363.6353287981859	364.2738775510204	81	127
363.6353287981859	364.2738775510204	69	127
364.2738775510204	364.564126984127	75	127
364.2738775510204	364.564126984127	63	127
364.564126984127	364.79632653061225	79	127
364.564126984127	364.79632653061225	67	127
364.79632653061225	365.33038548752836	77	127
364.79632653061225	365.33038548752836	65	127
365.33038548752836	365.48131519274375	62	127
365.33038548752836	365.48131519274375	74	127
365.48131519274375	366.14308390022677	58	127
365.48131519274375	366.14308390022677	70	127
365.7715419501134	366.42172335600907	34	127
365.7715419501134	366.42172335600907	46	127
366.14308390022677	366.7932199546485	65	127
366.14308390022677	366.7932199546485	77	127
366.46816326530615	367.06027210884355	46	127
366.46816326530615	367.06027210884355	34	127
366.7932199546485	367.3505215419501	62	127
366.7932199546485	367.3505215419501	74	127
367.11832199546484	367.59433106575966	34	127
367.11832199546484	367.59433106575966	46	127
367.3505215419501	367.87297052154196	79	127
367.3505215419501	367.87297052154196	67	127
367.65238095238095	367.90780045351477	34	127
367.65238095238095	367.90780045351477	46	127
367.9542403628118	368.2212471655329	46	127
367.9542403628118	368.2212471655329	34	127
367.9542403628118	368.27931972789116	65	127
367.9542403628118	368.27931972789116	77	127
368.27931972789116	368.59278911564627	82	127
368.27931972789116	368.59278911564627	70	127
368.27931972789116	369.45190476190476	46	127
368.27931972789116	369.45190476190476	34	127
368.59278911564627	368.9062585034014	84	127
368.59278911564627	368.9062585034014	72	127
368.9062585034014	369.13843537414965	86	127
368.9062585034014	369.13843537414965	74	127
369.2081179138322	369.47514739229024	72	127
369.2081179138322	369.47514739229024	84	127
369.47514739229024	369.8118367346939	70	127
369.47514739229024	369.8118367346939	82	127
369.47514739229024	369.5563945578231	46	127
369.47514739229024	369.5563945578231	34	127
369.8118367346939	369.85825396825396	46	127
369.8118367346939	369.85825396825396	34	127
369.8118367346939	370.0672335600907	74	127
369.8118367346939	370.0672335600907	62	127
370.0672335600907	370.2994557823129	65	127
370.0672335600907	370.2994557823129	77	127
370.0672335600907	370.14852607709753	34	127
370.0672335600907	370.14852607709753	46	127
370.36909297052154	370.94961451247167	70	127
370.36909297052154	370.94961451247167	58	127
370.36909297052154	370.64775510204083	46	127
370.36909297052154	370.64775510204083	34	127
370.7174149659864	371.27469387755104	34	127
370.7174149659864	371.27469387755104	46	127
371.04249433106577	371.5649433106576	77	127
371.04249433106577	371.5649433106576	65	127
371.32113378684807	371.936462585034	34	127
371.32113378684807	371.936462585034	46	127
371.63460317460317	372.1918820861678	62	127
371.63460317460317	372.1918820861678	74	127
371.99451247165536	372.5285714285714	34	127
371.99451247165536	372.5285714285714	46	127
372.2847619047619	372.7491609977324	79	127
372.2847619047619	372.7491609977324	67	127
372.58662131519276	373.08585034013606	34	127
372.58662131519276	373.08585034013606	46	127
372.83043083900225	373.14390022675735	65	127
372.83043083900225	373.14390022675735	77	127
373.14390022675735	374.35131519274375	34	127
373.14390022675735	373.480589569161	70	127
373.14390022675735	373.480589569161	82	127
373.14390022675735	374.35131519274375	46	127
373.480589569161	373.7940589569161	84	127
373.480589569161	373.7940589569161	72	127
373.7940589569161	373.99142857142857	86	127
373.7940589569161	373.99142857142857	74	127
374.0494557823129	374.3861678004535	72	127
374.0494557823129	374.3861678004535	84	127
374.3861678004535	374.4790476190476	46	127
374.3861678004535	374.4790476190476	34	127
374.3861678004535	374.6531972789116	70	127
374.3861678004535	374.6531972789116	82	127
374.6531972789116	374.9898866213152	62	127
374.6531972789116	374.9898866213152	74	127
374.6531972789116	374.7460770975057	46	127
374.6531972789116	374.7460770975057	34	127
374.9898866213152	375.0479365079365	46	127
374.9898866213152	375.0479365079365	34	127
374.9898866213152	375.245306122449	77	127
374.9898866213152	375.245306122449	65	127
375.31496598639455	375.6052154195011	70	127
375.31496598639455	375.6052154195011	34	127
375.31496598639455	375.6052154195011	46	127
375.31496598639455	375.6052154195011	58	127
377.30027210884356	377.7762811791383	74	127
377.30027210884356	377.92721088435377	50	127
377.30027210884356	377.92721088435377	53	127
377.30027210884356	377.7762811791383	79	127
377.30027210884356	377.7762811791383	67	127
377.30027210884356	377.7762811791383	71	127
377.30027210884356	377.92721088435377	55	127
377.30027210884356	377.92721088435377	43	127
377.7762811791383	377.8227210884354	77	127
377.8227210884354	377.8691609977324	75	127
377.8691609977324	377.92721088435377	74	127
377.92721088435377	378.08975056689343	51	127
377.92721088435377	378.08975056689343	72	127
377.92721088435377	378.08975056689343	48	127
379.8196371882086	380.4233560090703	84	127
379.8196371882086	380.4233560090703	60	127
379.8196371882086	380.4233560090703	88	127
379.8196371882086	380.4233560090703	79	127
379.8196371882086	380.4233560090703	76	127
379.8196371882086	380.4233560090703	58	127
379.8196371882086	380.4233560090703	48	127
379.8196371882086	380.4233560090703	55	127
380.4233560090703	380.58589569161	77	127
380.4233560090703	380.58589569161	53	127
380.4233560090703	380.58589569161	81	127
380.4233560090703	380.58589569161	89	127
380.4233560090703	380.58589569161	84	127
380.4233560090703	380.58589569161	57	127
381.06190476190477	381.3985941043084	77	127
381.06190476190477	381.735283446712	68	127
381.06190476190477	381.735283446712	65	127
381.06190476190477	381.735283446712	58	127
381.06190476190477	381.3985941043084	82	127
381.06190476190477	381.3985941043084	74	127
381.3985941043084	381.44503401360544	84	127
381.44503401360544	381.53791383219954	86	127
381.53791383219954	381.6424036281179	87	127
381.6424036281179	381.735283446712	89	127
381.735283446712	381.909433106576	67	127
381.735283446712	381.909433106576	63	127
381.735283446712	381.909433106576	91	127
382.10680272108846	382.1416326530612	91	127
382.10680272108846	382.1416326530612	79	127
382.1416326530612	382.19968253968256	93	127
382.1416326530612	382.19968253968256	81	127
382.19968253968256	382.2809523809524	82	127
382.19968253968256	382.2809523809524	94	127
382.2809523809524	382.3738321995465	96	127
382.2809523809524	382.3738321995465	84	127
382.3738321995465	382.5479818594104	86	127
382.3738321995465	382.5479818594104	98	127
382.75696145124715	382.91950113378687	75	127
382.75696145124715	382.91950113378687	101	127
382.75696145124715	382.91950113378687	72	127
382.75696145124715	382.91950113378687	65	127
382.75696145124715	382.91950113378687	93	127
382.75696145124715	382.91950113378687	96	127
383.0356009070295	383.58126984126983	70	127
383.0356009070295	383.58126984126983	82	127
383.66253968253966	384.1849886621315	86	127
383.66253968253966	384.1849886621315	74	127
384.2778684807256	384.3591383219955	74	127
384.2778684807256	384.3591383219955	62	127
384.57972789115644	384.64938775510205	78	127
384.57972789115644	384.64938775510205	66	127
384.9048072562358	385.55496598639456	79	127
384.9048072562358	385.55496598639456	67	127
384.9048072562358	385.55496598639456	70	127
384.9048072562358	385.55496598639456	75	127
384.9048072562358	385.55496598639456	51	127
384.9048072562358	385.55496598639456	58	127
384.9048072562358	385.55496598639456	61	127
385.55496598639456	385.70589569160995	56	127
385.55496598639456	385.70589569160995	68	127
385.55496598639456	385.70589569160995	60	127
385.55496598639456	385.70589569160995	75	127
385.55496598639456	385.70589569160995	72	127
385.55496598639456	385.70589569160995	80	127
387.3893424036281	387.92340136054423	59	127
387.3893424036281	387.92340136054423	61	127
387.3893424036281	387.92340136054423	56	127
387.3893424036281	387.92340136054423	49	127
387.3893424036281	387.92340136054423	68	127
387.3893424036281	387.92340136054423	73	127
387.3893424036281	387.92340136054423	65	127
388.00467120181406	388.5851700680272	78	127
388.00467120181406	388.5851700680272	54	127
388.00467120181406	388.5851700680272	66	127
388.00467120181406	388.5851700680272	42	127
388.6548299319728	389.20049886621314	46	127
388.6548299319728	389.20049886621314	70	127
388.6548299319728	389.20049886621314	58	127
388.6548299319728	389.20049886621314	82	127
389.29337868480724	389.38625850340134	61	127
389.29337868480724	389.38625850340134	73	127
389.29337868480724	389.38625850340134	37	127
389.29337868480724	389.38625850340134	49	127
389.5836281179138	389.6648979591837	65	127
389.5836281179138	389.6648979591837	53	127
389.5836281179138	389.6648979591837	77	127
389.5836281179138	389.6648979591837	41	127
389.943537414966	390.0248072562358	66	127
389.943537414966	390.0248072562358	42	127
389.943537414966	390.0248072562358	54	127
389.943537414966	390.0248072562358	78	127
390.45437641723356	390.51242630385485	82	127
390.45437641723356	390.51242630385485	70	127
390.45437641723356	390.51242630385485	58	127
390.45437641723356	390.51242630385485	46	127
390.7446258503401	390.8491156462585	48	127
390.7446258503401	390.8491156462585	60	127
390.7446258503401	390.8491156462585	84	127
390.7446258503401	390.8491156462585	72	127
391.1045351473923	391.1974149659864	73	127
391.1045351473923	391.1974149659864	49	127
391.1045351473923	391.1974149659864	85	127
391.1045351473923	391.1974149659864	61	127
391.42961451247163	391.487664399093	51	127
391.42961451247163	391.487664399093	87	127
391.42961451247163	391.487664399093	75	127
391.42961451247163	391.487664399093	63	127
391.71986394557825	392.3235827664399	86	127
391.71986394557825	392.3235827664399	89	127
391.71986394557825	392.3235827664399	77	127
391.71986394557825	392.3235827664399	62	127
391.71986394557825	392.3235827664399	53	127
391.71986394557825	392.3235827664399	65	127
392.40485260770976	392.9737414965986	86	127
392.40485260770976	392.9737414965986	78	127
392.40485260770976	392.9737414965986	57	127
392.40485260770976	392.9737414965986	50	127
392.40485260770976	392.9737414965986	90	127
392.40485260770976	392.9737414965986	62	127
393.0550113378685	393.58907029478456	62	127
393.0550113378685	393.58907029478456	93	127
393.0550113378685	393.58907029478456	90	127
393.0550113378685	393.58907029478456	57	127
393.0550113378685	393.58907029478456	50	127
393.0550113378685	393.58907029478456	81	127
393.6471201814059	394.2392290249433	53	127
393.6471201814059	394.2392290249433	46	127
393.6471201814059	394.2392290249433	58	127
393.6471201814059	394.2392290249433	94	127
393.6471201814059	394.2392290249433	89	127
393.6471201814059	394.2392290249433	86	127
393.6471201814059	394.2392290249433	82	127
393.6471201814059	394.2392290249433	56	127
394.2392290249433	394.41337868480724	87	127
394.2392290249433	394.41337868480724	91	127
394.2392290249433	394.41337868480724	51	127
394.2392290249433	394.41337868480724	82	127
394.2392290249433	394.41337868480724	55	127
394.5875283446712	394.6571882086168	67	127
394.5875283446712	394.6571882086168	79	127
394.6571882086168	394.7500680272109	69	127
394.6571882086168	394.7500680272109	81	127
394.7500680272109	394.81972789115645	82	127
394.7500680272109	394.81972789115645	70	127
394.81972789115645	394.842947845805	84	127
394.81972789115645	394.842947845805	72	127
394.842947845805	395.00548752834464	86	127
394.842947845805	395.00548752834464	74	127
395.1564172335601	395.2144671201814	72	127
395.1564172335601	395.2144671201814	77	127
395.1564172335601	395.2144671201814	69	127
395.1564172335601	395.2144671201814	84	127
395.1564172335601	395.2144671201814	65	127
395.1564172335601	395.2144671201814	81	127
395.49310657596374	396.0271655328798	86	127
395.49310657596374	396.0271655328798	50	127
395.49310657596374	396.0271655328798	54	127
395.49310657596374	396.0271655328798	74	127
395.49310657596374	396.0271655328798	57	127
395.49310657596374	396.0271655328798	78	127
395.49310657596374	396.0271655328798	62	127
395.49310657596374	396.0271655328798	81	127
396.14326530612243	396.71215419501135	90	127
396.14326530612243	396.71215419501135	78	127
396.14326530612243	396.71215419501135	57	127
396.14326530612243	396.71215419501135	50	127
396.14326530612243	396.71215419501135	86	127
396.14326530612243	396.71215419501135	62	127
396.77020408163264	397.36231292517004	90	127
396.77020408163264	397.36231292517004	93	127
396.77020408163264	397.36231292517004	50	127
396.77020408163264	397.36231292517004	57	127
396.77020408163264	397.36231292517004	60	127
396.77020408163264	397.36231292517004	81	127
397.44358276643993	398.0937414965986	89	127
397.44358276643993	398.0937414965986	58	127
397.44358276643993	398.0937414965986	46	127
397.44358276643993	398.0937414965986	53	127
397.44358276643993	398.0937414965986	94	127
397.44358276643993	398.0937414965986	82	127
397.44358276643993	398.0937414965986	86	127
397.44358276643993	398.0937414965986	56	127
398.0937414965986	398.25628117913834	51	127
398.0937414965986	398.25628117913834	91	127
398.0937414965986	398.25628117913834	87	127
398.0937414965986	398.25628117913834	55	127
398.0937414965986	398.25628117913834	82	127
398.3839909297052	398.4652607709751	67	127
398.3839909297052	398.4652607709751	79	127
398.4652607709751	398.5581405895692	81	127
398.4652607709751	398.5581405895692	69	127
398.5581405895692	398.62780045351474	82	127
398.5581405895692	398.62780045351474	70	127
398.62780045351474	398.72068027210884	84	127
398.62780045351474	398.72068027210884	72	127
398.72068027210884	398.89482993197277	86	127
398.72068027210884	398.89482993197277	74	127
399.0573696145125	399.09219954648523	81	127
399.0573696145125	399.09219954648523	84	127
399.0573696145125	399.09219954648523	69	127
399.0573696145125	399.09219954648523	72	127
399.0573696145125	399.09219954648523	65	127
399.0573696145125	399.09219954648523	77	127
399.2663492063492	399.38244897959186	70	127
399.2663492063492	399.38244897959186	77	127
399.2663492063492	399.38244897959186	74	127
399.2663492063492	399.38244897959186	82	127
399.2663492063492	399.38244897959186	65	127
399.2663492063492	399.38244897959186	62	127
399.2663492063492	399.38244897959186	58	127
399.4985487528345	399.66108843537415	65	127
399.4985487528345	399.66108843537415	84	127
399.4985487528345	399.66108843537415	81	127
399.4985487528345	399.66108843537415	72	127
399.4985487528345	399.66108843537415	69	127
399.4985487528345	399.66108843537415	77	127
399.8236281179138	399.9281179138322	74	127
399.8236281179138	399.9281179138322	70	127
399.8236281179138	399.9281179138322	65	127
399.8236281179138	399.9281179138322	86	127
399.8236281179138	399.9281179138322	82	127
399.8236281179138	399.9281179138322	77	127
400.06743764172336	400.20675736961454	69	127
400.06743764172336	400.20675736961454	65	127
400.06743764172336	400.20675736961454	84	127
400.06743764172336	400.20675736961454	81	127
400.06743764172336	400.20675736961454	72	127
400.06743764172336	400.20675736961454	77	127
400.39251700680273	400.52022675736964	86	127
400.39251700680273	400.52022675736964	82	127
400.39251700680273	400.52022675736964	77	127
400.39251700680273	400.52022675736964	70	127
400.39251700680273	400.52022675736964	65	127
400.39251700680273	400.52022675736964	74	127
400.67115646258503	400.79886621315194	77	127
400.67115646258503	400.79886621315194	81	127
400.67115646258503	400.79886621315194	84	127
400.67115646258503	400.79886621315194	72	127
400.67115646258503	400.79886621315194	65	127
400.67115646258503	400.79886621315194	69	127
400.9149659863946	400.9962358276644	65	127
400.9149659863946	400.9962358276644	86	127
400.9149659863946	400.9962358276644	82	127
400.9149659863946	400.9962358276644	77	127
400.9149659863946	400.9962358276644	70	127
400.9149659863946	400.9962358276644	74	127
401.0891156462585	401.25165532879817	77	127
401.0891156462585	401.25165532879817	72	127
401.0891156462585	401.25165532879817	84	127
401.0891156462585	401.25165532879817	65	127
401.4141950113379	401.5883446712018	77	127
401.4141950113379	401.5883446712018	82	127
401.4141950113379	401.5883446712018	62	127
401.4141950113379	401.5883446712018	70	127
401.4141950113379	401.5883446712018	65	127
401.4141950113379	401.5883446712018	74	127
401.727664399093	401.8785941043084	81	127
401.727664399093	401.8785941043084	84	127
401.727664399093	401.8785941043084	77	127
401.727664399093	401.8785941043084	89	127
401.727664399093	401.8785941043084	93	127
401.727664399093	401.8785941043084	96	127
402.05274376417236	402.2268934240363	86	127
402.05274376417236	402.2268934240363	82	127
402.05274376417236	402.2268934240363	77	127
402.05274376417236	402.2268934240363	94	127
402.05274376417236	402.2268934240363	89	127
402.05274376417236	402.2268934240363	98	127
402.34299319727893	402.48231292517005	77	127
402.34299319727893	402.48231292517005	89	127
402.34299319727893	402.48231292517005	84	127
402.34299319727893	402.48231292517005	93	127
402.34299319727893	402.48231292517005	81	127
402.34299319727893	402.48231292517005	96	127
402.5984126984127	402.7261224489796	86	127
402.5984126984127	402.7261224489796	89	127
402.5984126984127	402.7261224489796	82	127
402.5984126984127	402.7261224489796	94	127
402.5984126984127	402.7261224489796	77	127
402.5984126984127	402.7261224489796	98	127
402.877052154195	403.01637188208616	77	127
402.877052154195	403.01637188208616	89	127
402.877052154195	403.01637188208616	93	127
402.877052154195	403.01637188208616	81	127
402.877052154195	403.01637188208616	96	127
403.14408163265307	403.23696145124717	86	127
403.14408163265307	403.23696145124717	82	127
403.14408163265307	403.23696145124717	77	127
403.14408163265307	403.23696145124717	98	127
403.14408163265307	403.23696145124717	94	127
403.14408163265307	403.23696145124717	89	127
403.4111111111111	403.5039909297052	89	127
403.4111111111111	403.5039909297052	96	127
403.4111111111111	403.5039909297052	77	127
403.4111111111111	403.5039909297052	84	127
403.6781405895692	403.8290702947846	94	127
403.6781405895692	403.8290702947846	74	127
403.6781405895692	403.8290702947846	82	127
403.6781405895692	403.8290702947846	86	127
403.9103401360544	404.0496598639456	72	127
403.9103401360544	404.0496598639456	84	127
403.9103401360544	404.0496598639456	89	127
403.9103401360544	404.0496598639456	77	127
404.200589569161	404.3282993197279	86	127
404.200589569161	404.3282993197279	82	127
404.200589569161	404.3282993197279	74	127
404.200589569161	404.3282993197279	70	127
404.4908390022676	404.6649886621315	77	127
404.4908390022676	404.6649886621315	84	127
404.4908390022676	404.6649886621315	65	127
404.4908390022676	404.6649886621315	72	127
404.8275283446712	404.8855782312925	74	127
404.8275283446712	404.8855782312925	82	127
404.8275283446712	404.8855782312925	62	127
404.8275283446712	404.8855782312925	70	127
405.01328798185943	405.129387755102	60	127
405.01328798185943	405.129387755102	65	127
405.01328798185943	405.129387755102	77	127
405.01328798185943	405.129387755102	72	127
405.303537414966	405.38480725623583	74	127
405.303537414966	405.38480725623583	58	127
405.303537414966	405.38480725623583	70	127
405.303537414966	405.38480725623583	62	127
405.46607709750566	405.6402267573696	53	127
405.46607709750566	405.6402267573696	72	127
405.46607709750566	405.6402267573696	65	127
405.46607709750566	405.6402267573696	60	127
405.8143764172336	405.9885260770975	62	127
405.8143764172336	405.9885260770975	58	127
405.8143764172336	405.9885260770975	50	127
405.8143764172336	405.9885260770975	70	127
406.13945578231295	406.27877551020407	60	127
406.13945578231295	406.27877551020407	53	127
406.13945578231295	406.27877551020407	72	127
406.13945578231295	406.27877551020407	65	127
406.4413151927438	406.5922448979592	50	127
406.4413151927438	406.5922448979592	58	127
406.4413151927438	406.5922448979592	62	127
406.4413151927438	406.5922448979592	70	127
406.7547845804989	406.89410430839	65	127
406.7547845804989	406.89410430839	60	127
406.7547845804989	406.89410430839	53	127
406.7547845804989	406.89410430839	72	127
406.97537414965984	407.06825396825394	70	127
406.97537414965984	407.06825396825394	58	127
406.97537414965984	407.06825396825394	50	127
406.97537414965984	407.06825396825394	62	127
407.2424036281179	407.335283446712	72	127
407.2424036281179	407.335283446712	65	127
407.2424036281179	407.335283446712	53	127
407.2424036281179	407.335283446712	60	127
407.50943310657595	407.5907029478458	70	127
407.50943310657595	407.5907029478458	62	127
407.50943310657595	407.5907029478458	58	127
407.50943310657595	407.5907029478458	50	127
407.7532426303855	407.9041723356009	53	127
407.7532426303855	407.9041723356009	72	127
407.7532426303855	407.9041723356009	65	127
407.7532426303855	407.9041723356009	60	127
408.0899319727891	408.3453514739229	46	127
408.0899319727891	408.3453514739229	50	127
408.0899319727891	408.3453514739229	62	127
408.0899319727891	408.3453514739229	70	127
408.0899319727891	408.3453514739229	58	127
410.40031746031747	410.89954648526077	70	127
410.40031746031747	410.89954648526077	58	127
410.40031746031747	410.89954648526077	46	127
410.40031746031747	410.89954648526077	82	127
410.96920634920633	411.53809523809525	62	127
410.96920634920633	411.53809523809525	50	127
410.96920634920633	411.53809523809525	86	127
410.96920634920633	411.53809523809525	74	127
411.6193650793651	411.7006349206349	38	127
411.6193650793651	411.7006349206349	74	127
411.6193650793651	411.7006349206349	62	127
411.6193650793651	411.7006349206349	50	127
411.8980045351474	411.967664399093	76	127
411.8980045351474	411.967664399093	64	127
411.8980045351474	411.967664399093	52	127
411.8980045351474	411.967664399093	40	127
412.1418140589569	412.7455328798186	72	127
412.1418140589569	412.7455328798186	51	127
412.1418140589569	412.7455328798186	65	127
412.1418140589569	412.7455328798186	77	127
412.1418140589569	412.7455328798186	41	127
412.1418140589569	412.7455328798186	48	127
412.1418140589569	412.7455328798186	75	127
412.1418140589569	412.7455328798186	69	127
412.1418140589569	412.7455328798186	53	127
412.7455328798186	412.9661224489796	53	127
412.7455328798186	412.9661224489796	65	127
412.7455328798186	412.9661224489796	50	127
412.7455328798186	412.9661224489796	74	127
412.7455328798186	412.9661224489796	70	127
412.7455328798186	412.9661224489796	46	127
415.1836281179138	415.53192743764174	46	127
415.1836281179138	415.53192743764174	82	127
415.1836281179138	415.53192743764174	70	127
415.1836281179138	415.53192743764174	58	127
415.61319727891157	416.0079365079365	86	127
415.61319727891157	416.0079365079365	62	127
415.61319727891157	416.0079365079365	50	127
415.61319727891157	416.0079365079365	74	127
416.08920634920634	416.1936961451247	62	127
416.08920634920634	416.1936961451247	50	127
416.08920634920634	416.1936961451247	74	127
416.4142857142857	416.5071655328798	76	127
416.4142857142857	416.5071655328798	52	127
416.4142857142857	416.5071655328798	64	127
416.75097505668936	417.35469387755103	53	127
416.75097505668936	417.35469387755103	60	127
416.75097505668936	417.35469387755103	63	127
416.75097505668936	417.35469387755103	69	127
416.75097505668936	417.35469387755103	72	127
416.75097505668936	417.35469387755103	75	127
416.75097505668936	417.35469387755103	77	127
417.35469387755103	417.62172335600906	78	127
417.35469387755103	417.62172335600906	61	127
417.35469387755103	417.62172335600906	73	127
417.35469387755103	417.62172335600906	70	127
417.35469387755103	417.62172335600906	54	127
417.35469387755103	417.62172335600906	58	127
419.85083900226755	420.0365986394558	42	127
420.0365986394558	420.3152380952381	49	127
420.0365986394558	420.3152380952381	54	127
420.0365986394558	420.3152380952381	58	127
420.0830385487528	420.57065759637186	42	127
420.3616780045351	420.43133786848074	58	127
420.3616780045351	420.43133786848074	54	127
420.3616780045351	420.43133786848074	49	127
420.66353741496596	420.74480725623584	58	127
420.66353741496596	420.74480725623584	49	127
420.66353741496596	420.74480725623584	42	127
420.66353741496596	420.74480725623584	54	127
420.98861678004533	421.0698866213152	53	127
420.98861678004533	421.0698866213152	49	127
420.98861678004533	421.0698866213152	59	127
420.98861678004533	421.0698866213152	42	127
421.3136961451247	421.92902494331065	42	127
421.6736054421769	422.25410430839	49	127
421.6736054421769	422.25410430839	54	127
421.6736054421769	422.25410430839	58	127
422.0102947845805	422.59079365079367	42	127
422.33537414965986	422.4166439909297	54	127
422.33537414965986	422.4166439909297	58	127
422.33537414965986	422.4166439909297	49	127
422.6372335600907	422.69528344671204	54	127
422.6372335600907	422.69528344671204	42	127
422.6372335600907	422.69528344671204	49	127
422.6372335600907	422.69528344671204	58	127
422.92748299319726	422.9855328798186	42	127
422.92748299319726	422.9855328798186	49	127
422.92748299319726	422.9855328798186	56	127
422.92748299319726	422.9855328798186	53	127
423.2177324263039	423.6124716553288	42	127
423.42671201814056	423.87950113378685	58	127
423.42671201814056	423.87950113378685	49	127
423.42671201814056	423.87950113378685	54	127
423.64730158730157	424.1813605442177	42	127
423.9607709750567	424.018820861678	49	127
423.9607709750567	424.018820861678	54	127
423.9607709750567	424.018820861678	58	127
424.23941043083903	424.32068027210886	54	127
424.23941043083903	424.32068027210886	58	127
424.23941043083903	424.32068027210886	42	127
424.23941043083903	424.32068027210886	49	127
424.56448979591835	424.64575963718823	59	127
424.56448979591835	424.64575963718823	42	127
424.56448979591835	424.64575963718823	53	127
424.56448979591835	424.64575963718823	49	127
424.8895691609977	425.45845804988664	42	127
425.2146485260771	425.77192743764175	58	127
425.2146485260771	425.77192743764175	49	127
425.2146485260771	425.77192743764175	54	127
425.5397278911565	426.09700680272107	42	127
425.86480725623585	425.9344671201814	54	127
425.86480725623585	425.9344671201814	49	127
425.86480725623585	425.9344671201814	58	127
426.17827664399096	426.2595464852608	42	127
426.17827664399096	426.2595464852608	58	127
426.17827664399096	426.2595464852608	49	127
426.17827664399096	426.2595464852608	54	127
426.51496598639454	426.5962358276644	49	127
426.51496598639454	426.5962358276644	42	127
426.51496598639454	426.5962358276644	56	127
426.51496598639454	426.5962358276644	53	127
426.8400453514739	427.17673469387756	42	127
427.09546485260773	427.42054421768705	58	127
427.09546485260773	427.42054421768705	49	127
427.09546485260773	427.42054421768705	54	127
427.1999546485261	427.7107936507937	42	127
427.50181405895694	427.58308390022677	54	127
427.50181405895694	427.58308390022677	58	127
427.50181405895694	427.58308390022677	49	127
427.8036734693878	427.8849433106576	54	127
427.8036734693878	427.8849433106576	58	127
427.8036734693878	427.8849433106576	42	127
427.8036734693878	427.8849433106576	49	127
428.1287528344671	428.210022675737	49	127
428.1287528344671	428.210022675737	54	127
428.1287528344671	428.210022675737	42	127
428.1287528344671	428.210022675737	58	127
428.477052154195	429.0227210884354	42	127
428.8253514739229	429.31297052154196	53	127
428.8253514739229	429.31297052154196	49	127
428.8253514739229	429.31297052154196	59	127
429.1039909297052	429.62643990929706	42	127
429.3942403628118	429.46390022675735	59	127
429.3942403628118	429.46390022675735	49	127
429.3942403628118	429.46390022675735	53	127
429.6960997732426	429.77736961451245	54	127
429.6960997732426	429.77736961451245	59	127
429.6960997732426	429.77736961451245	49	127
429.6960997732426	429.77736961451245	42	127
430.021179138322	430.1024489795918	42	127
430.021179138322	430.1024489795918	49	127
430.021179138322	430.1024489795918	59	127
430.021179138322	430.1024489795918	56	127
430.28820861678	430.68294784580496	42	127
430.60167800453513	430.9615873015873	54	127
430.60167800453513	430.9615873015873	49	127
430.60167800453513	430.9615873015873	58	127
430.7409977324263	431.2750566893424	42	127
431.04285714285714	431.1125170068027	58	127
431.04285714285714	431.1125170068027	54	127
431.04285714285714	431.1125170068027	49	127
431.35632653061225	431.4375963718821	58	127
431.35632653061225	431.4375963718821	49	127
431.35632653061225	431.4375963718821	42	127
431.35632653061225	431.4375963718821	54	127
431.6930158730159	431.7742857142857	42	127
431.6930158730159	431.7742857142857	54	127
431.6930158730159	431.7742857142857	49	127
431.6930158730159	431.7742857142857	58	127
432.04131519274375	432.5985941043084	42	127
432.3663945578231	432.8307936507936	53	127
432.3663945578231	432.8307936507936	49	127
432.3663945578231	432.8307936507936	59	127
432.67986394557823	433.12104308390025	42	127
432.8772335600907	432.95850340136053	59	127
432.8772335600907	432.95850340136053	49	127
432.8772335600907	432.95850340136053	53	127
433.2023129251701	433.2951927437642	59	127
433.2023129251701	433.2951927437642	42	127
433.2023129251701	433.2951927437642	49	127
433.2023129251701	433.2951927437642	54	127
433.5390022675737	433.62027210884355	56	127
433.5390022675737	433.62027210884355	42	127
433.5390022675737	433.62027210884355	59	127
433.5390022675737	433.62027210884355	49	127
433.85247165532877	434.11950113378686	58	127
433.85247165532877	434.11950113378686	49	127
433.85247165532877	433.9221315192744	42	127
433.85247165532877	434.11950113378686	54	127
434.17755102040815	434.25882086167803	58	127
434.17755102040815	434.25882086167803	54	127
434.17755102040815	434.34009070294786	73	127
434.34009070294786	434.5026303854875	73	127
434.5026303854875	434.58390022675735	42	127
434.5026303854875	434.66517006802724	73	127
434.66517006802724	434.7812698412698	75	127
434.7812698412698	434.85092970521544	58	127
434.7812698412698	434.85092970521544	54	127
434.7812698412698	434.93219954648526	75	127
434.93219954648526	435.07151927437644	77	127
435.08312925170065	435.16439909297054	42	127
435.08312925170065	435.24566893424037	77	127
435.24566893424037	435.361768707483	78	127
435.361768707483	435.44303854875284	54	127
435.361768707483	435.52430839002267	78	127
435.361768707483	435.44303854875284	58	127
435.52430839002267	435.6520181405896	80	127
435.6520181405896	435.81455782312923	80	127
435.6520181405896	435.90743764172333	42	127
435.81455782312923	435.9538775510204	82	127
435.9654875283447	436.22090702947844	56	127
435.9654875283447	436.11641723356007	82	127
435.9654875283447	436.22090702947844	53	127
436.11641723356007	436.2673469387755	83	127
436.2673469387755	436.3950566893424	83	127
436.2673469387755	436.47632653061225	42	127
436.3950566893424	436.53437641723355	85	127
436.53437641723355	436.80140589569163	56	127
436.53437641723355	436.70852607709753	85	127
436.53437641723355	436.80140589569163	53	127
436.70852607709753	436.8594557823129	87	127
436.8594557823129	437.0219954648526	87	127
436.8594557823129	437.1380952380952	42	127
437.0219954648526	437.1845351473923	89	127
437.19614512471657	437.39351473922903	53	127
437.19614512471657	437.39351473922903	56	127
437.19614512471657	437.30063492063493	89	127
437.30063492063493	437.42834467120184	90	127
437.42834467120184	437.57927437641723	90	127
437.42834467120184	437.67215419501133	42	127
437.57927437641723	437.7302040816327	92	127
437.7302040816327	437.9972335600907	51	127
437.7302040816327	437.89274376417234	92	127
437.7302040816327	437.9972335600907	54	127
437.89274376417234	438.0436734693877	94	127
438.055283446712	438.29909297052154	42	127
438.055283446712	438.2178231292517	94	127
438.2178231292517	438.3455328798186	95	127
438.3455328798186	438.51968253968255	95	127
438.3455328798186	438.5893424036281	51	127
438.3455328798186	438.5893424036281	54	127
438.51968253968255	438.64739229024946	97	127
438.64739229024946	438.8099319727891	97	127
438.64739229024946	438.9144217687075	42	127
438.8099319727891	438.9492517006803	99	127
438.9492517006803	439.1350113378685	47	127
438.9492517006803	439.1350113378685	51	127
438.9492517006803	439.0305215419501	97	127
439.0305215419501	439.1814512471655	95	127
439.1930612244898	439.47170068027214	42	127
439.1930612244898	439.47170068027214	97	127
439.51814058956916	439.73873015873016	46	127
439.51814058956916	439.73873015873016	49	127
439.51814058956916	439.6806802721088	94	127
439.6806802721088	439.79678004535145	90	127
439.79678004535145	440.05219954648527	42	127
439.79678004535145	439.93609977324263	90	127
439.93609977324263	440.0986394557823	85	127
440.11024943310656	440.21473922902493	85	127
440.11024943310656	440.307619047619	46	127
440.11024943310656	440.307619047619	49	127
440.21473922902493	440.3540589569161	82	127
440.3540589569161	440.56303854875284	42	127
440.3540589569161	440.5049886621315	82	127
440.5049886621315	440.62108843537413	78	127
440.62108843537413	440.8881179138322	46	127
440.62108843537413	440.8881179138322	49	127
440.62108843537413	440.78362811791385	78	127
440.78362811791385	440.9461678004535	76	127
440.9461678004535	441.18997732426305	41	127
440.9461678004535	441.18997732426305	77	127
441.24802721088435	441.4918367346939	46	127
441.24802721088435	441.3989569160998	86	127
441.24802721088435	441.4918367346939	50	127
441.3989569160998	441.5498866213152	82	127
441.5498866213152	441.81691609977327	41	127
441.5498866213152	441.7240362811791	82	127
441.7240362811791	441.87496598639456	77	127
441.87496598639456	442.0375056689342	77	127
441.87496598639456	442.10716553287983	50	127
441.87496598639456	442.10716553287983	46	127
442.0375056689342	442.10716553287983	74	127
442.10716553287983	442.2697052154195	74	127
442.10716553287983	442.3509750566893	41	127
442.2697052154195	442.3974149659864	70	127
442.3974149659864	442.5367346938776	70	127
442.3974149659864	442.64122448979595	50	127
442.5367346938776	442.68766439909297	65	127
442.68766439909297	443.2217233560091	41	127
443.0011337868481	443.4074829931973	63	127
443.0011337868481	443.4074829931973	65	127
443.0011337868481	443.4074829931973	53	127
443.3029931972789	443.69773242630384	41	127
443.47714285714284	443.7209523809524	65	127
443.47714285714284	443.7209523809524	53	127
443.47714285714284	443.7209523809524	63	127
443.76739229024946	443.95315192743766	41	127
443.76739229024946	443.95315192743766	65	127
443.76739229024946	443.95315192743766	63	127
443.76739229024946	443.95315192743766	53	127
443.9995918367347	444.2550113378685	65	127
443.9995918367347	444.2550113378685	41	127
443.9995918367347	444.2550113378685	63	127
443.9995918367347	444.2550113378685	53	127
444.28984126984125	444.5336507936508	41	127
444.28984126984125	444.5336507936508	53	127
444.28984126984125	444.5336507936508	65	127
444.28984126984125	444.5336507936508	62	127
444.5917006802721	444.87034013605444	62	127
444.5917006802721	444.87034013605444	53	127
444.5917006802721	444.64975056689343	86	127
444.5917006802721	444.87034013605444	58	127
444.7542403628118	444.8122902494331	86	127
444.9283900226757	445.207029478458	39	127
444.9283900226757	445.09092970521544	86	127
445.09092970521544	445.2534693877551	82	127
445.2650793650794	445.5321088435374	58	127
445.2650793650794	445.5321088435374	53	127
445.2650793650794	445.42761904761903	82	127
445.2650793650794	445.5321088435374	62	127
445.42761904761903	445.59015873015875	77	127
445.59015873015875	445.7643083900227	41	127
445.59015873015875	445.68303854875285	77	127
445.68303854875285	445.82235827664397	74	127
445.82235827664397	446.1126077097506	53	127
445.82235827664397	445.99650793650795	74	127
445.82235827664397	446.1126077097506	62	127
445.82235827664397	446.1126077097506	58	127
445.99650793650795	446.1590476190476	70	127
446.1706575963719	446.2983673469388	65	127
446.1706575963719	446.6002267573696	41	127
446.3448072562358	446.93691609977327	65	127
446.3448072562358	446.93691609977327	63	127
446.3448072562358	446.93691609977327	53	127
446.68149659863946	447.2039455782313	41	127
447.00657596371883	447.2039455782313	65	127
447.00657596371883	447.2039455782313	53	127
447.00657596371883	447.2039455782313	63	127
447.22716553287984	447.41292517006804	65	127
447.22716553287984	447.41292517006804	41	127
447.22716553287984	447.41292517006804	53	127
447.22716553287984	447.41292517006804	63	127
447.4709750566893	447.6683446712018	63	127
447.4709750566893	447.6683446712018	65	127
447.4709750566893	447.6683446712018	53	127
447.4709750566893	447.6683446712018	41	127
447.7031746031746	447.9585941043084	46	127
447.7031746031746	447.9585941043084	62	127
447.7031746031746	447.9585941043084	53	127
447.7031746031746	447.9585941043084	65	127
447.97020408163263	448.469433106576	53	127
447.97020408163263	448.469433106576	58	127
447.97020408163263	447.9818140589569	86	127
447.97020408163263	448.469433106576	62	127
448.09791383219954	448.13274376417235	86	127
448.2372335600907	448.4810430839002	89	127
448.53909297052155	448.81773242630385	58	127
448.53909297052155	448.59714285714284	89	127
448.53909297052155	448.81773242630385	53	127
448.53909297052155	448.81773242630385	62	127
448.7016326530612	448.75968253968256	89	127
448.8757823129252	448.94544217687076	94	127
448.8757823129252	449.0847619047619	58	127
448.8757823129252	449.0847619047619	62	127
448.8757823129252	449.0847619047619	53	127
449.13120181405895	449.22408163265305	96	127
449.13120181405895	449.40984126984125	57	127
449.13120181405895	449.40984126984125	63	127
449.13120181405895	449.40984126984125	53	127
449.4678911564626	449.75814058956917	46	127
449.4678911564626	449.75814058956917	98	127
449.81619047619046	449.8742403628118	98	127
449.81619047619046	450.4082993197279	53	127
449.81619047619046	450.4082993197279	62	127
449.81619047619046	450.4082993197279	58	127
449.9787301587302	450.03678004535146	98	127
450.12965986394556	450.44312925170067	94	127
450.48956916099775	450.7798185941043	62	127
450.48956916099775	450.7798185941043	53	127
450.48956916099775	450.7798185941043	58	127
450.48956916099775	450.54761904761904	94	127
450.6637188208617	450.72176870748297	94	127
450.8378684807256	451.0700680272109	62	127
450.8378684807256	451.0700680272109	58	127
450.8378684807256	451.0700680272109	53	127
450.8378684807256	450.95396825396824	89	127
450.95396825396824	451.11650793650796	91	127
451.11650793650796	451.383537414966	60	127
451.11650793650796	451.26743764172335	87	127
451.11650793650796	451.383537414966	53	127
451.11650793650796	451.383537414966	57	127
451.26743764172335	451.42997732426306	89	127
451.42997732426306	451.6970068027211	46	127
451.42997732426306	451.6970068027211	86	127
451.7550566893424	452.2891156462585	62	127
451.7550566893424	452.2891156462585	53	127
451.7550566893424	452.2891156462585	58	127
451.7550566893424	451.80149659863946	86	127
451.8827664399093	451.92920634920637	86	127
452.045306122449	452.3239455782313	89	127
452.3819954648526	452.4516553287982	89	127
452.3819954648526	452.67224489795916	53	127
452.3819954648526	452.67224489795916	58	127
452.3819954648526	452.67224489795916	62	127
452.5677551020408	452.62580498866214	89	127
452.71868480725624	452.9508843537415	62	127
452.71868480725624	452.9508843537415	53	127
452.71868480725624	452.9508843537415	58	127
452.71868480725624	452.7651247165533	94	127
452.99732426303854	453.2643537414966	57	127
452.99732426303854	453.2643537414966	63	127
452.99732426303854	453.2643537414966	53	127
452.99732426303854	453.07859410430837	96	127
453.31079365079364	453.5778231292517	98	127
453.31079365079364	453.5778231292517	46	127
453.62426303854875	454.12349206349205	58	127
453.62426303854875	454.12349206349205	62	127
453.62426303854875	454.12349206349205	53	127
453.62426303854875	453.6474829931973	98	127
453.71714285714285	453.7751927437642	98	127
453.8680725623583	454.1351020408163	94	127
454.19315192743767	454.25120181405896	94	127
454.19315192743767	454.43696145124716	53	127
454.19315192743767	454.43696145124716	62	127
454.19315192743767	454.43696145124716	58	127
454.3208616780045	454.37891156462587	94	127
454.48340136054424	454.62272108843536	89	127
454.48340136054424	454.7272108843537	53	127
454.48340136054424	454.7272108843537	58	127
454.48340136054424	454.7272108843537	62	127
454.62272108843536	454.78526077097507	91	127
454.78526077097507	455.02907029478456	53	127
454.78526077097507	454.959410430839	87	127
454.78526077097507	455.02907029478456	60	127
454.78526077097507	455.02907029478456	57	127
454.959410430839	455.0522902494331	89	127
455.0522902494331	455.2844897959184	86	127
455.0522902494331	455.2844897959184	46	127
455.3193197278912	455.8069387755102	53	127
455.3193197278912	455.3657596371882	86	127
455.3193197278912	455.8069387755102	58	127
455.3193197278912	455.8069387755102	62	127
455.4586394557823	455.4934693877551	86	127
455.5979591836735	455.83015873015876	89	127
455.88820861678005	456.1552380952381	62	127
455.88820861678005	456.1552380952381	53	127
455.88820861678005	456.1552380952381	58	127
455.88820861678005	455.94625850340134	89	127
456.03913832199544	456.0971882086168	89	127
456.2132879818594	456.32938775510206	53	127
456.2132879818594	456.23650793650796	94	127
456.2132879818594	456.32938775510206	58	127
456.2132879818594	456.32938775510206	62	127
456.38743764172335	456.64285714285717	58	127
456.38743764172335	456.4687074829932	98	127
456.38743764172335	456.64285714285717	62	127
456.38743764172335	456.64285714285717	53	127
456.70090702947846	456.9679365079365	46	127
456.70090702947846	456.9679365079365	101	127
456.991156462585	457.43233560090704	57	127
456.991156462585	457.43233560090704	53	127
456.991156462585	457.01437641723356	89	127
456.991156462585	457.43233560090704	63	127
457.07242630385485	457.11886621315193	89	127
457.21174603174603	457.3510657596372	89	127
457.3510657596372	457.51360544217687	91	127
457.51360544217687	457.7806349206349	57	127
457.51360544217687	457.7806349206349	53	127
457.51360544217687	457.6877551020408	91	127
457.51360544217687	457.7806349206349	63	127
457.6877551020408	457.83868480725624	93	127
457.83868480725624	458.11732426303854	58	127
457.83868480725624	458.0012244897959	93	127
457.83868480725624	458.11732426303854	53	127
457.83868480725624	458.11732426303854	63	127
458.0012244897959	458.1753741496599	94	127
458.1753741496599	458.4424036281179	63	127
458.1753741496599	458.4424036281179	60	127
458.1753741496599	458.3263038548753	94	127
458.1753741496599	458.4424036281179	53	127
458.3263038548753	458.488843537415	96	127
458.5004535147392	458.74426303854875	46	127
458.5004535147392	458.74426303854875	98	127
458.79070294784583	459.19705215419503	62	127
458.79070294784583	459.19705215419503	53	127
458.79070294784583	458.8255328798186	86	127
458.79070294784583	459.19705215419503	58	127
458.9068027210884	458.9532426303855	86	127
459.0693424036281	459.20866213151925	89	127
459.2318820861678	459.47569160997733	53	127
459.2318820861678	459.27832199546486	89	127
459.2318820861678	459.47569160997733	62	127
459.2318820861678	459.47569160997733	58	127
459.3944217687075	459.42925170068025	89	127
459.52213151927435	459.7659410430839	53	127
459.52213151927435	459.7659410430839	62	127
459.52213151927435	459.60340136054424	94	127
459.52213151927435	459.7659410430839	58	127
459.8239909297052	460.0445804988662	58	127
459.8239909297052	460.0445804988662	62	127
459.8239909297052	460.0445804988662	53	127
459.8239909297052	459.9052607709751	98	127
460.10263038548754	460.36965986394557	101	127
460.10263038548754	460.36965986394557	46	127
460.41609977324265	460.961768707483	57	127
460.41609977324265	460.47414965986394	89	127
460.41609977324265	460.961768707483	53	127
460.41609977324265	460.961768707483	63	127
460.5786394557823	460.6250793650794	89	127
460.7179591836735	460.88049886621314	89	127
460.88049886621314	461.04303854875286	91	127
461.04303854875286	461.32167800453516	57	127
461.04303854875286	461.32167800453516	53	127
461.04303854875286	461.2055782312925	91	127
461.04303854875286	461.32167800453516	63	127
461.2055782312925	461.3681179138322	93	127
461.37972789115645	461.6583673469388	53	127
461.37972789115645	461.54226757369617	93	127
461.37972789115645	461.6583673469388	58	127
461.37972789115645	461.6583673469388	63	127
461.54226757369617	461.6815873015873	94	127
461.6815873015873	461.82090702947846	94	127
461.6815873015873	461.92539682539683	53	127
461.6815873015873	461.92539682539683	63	127
461.6815873015873	461.92539682539683	60	127
461.82090702947846	461.9834467120181	96	127
461.9834467120181	462.19242630385486	34	127
461.9834467120181	462.19242630385486	46	127
461.9834467120181	462.19242630385486	94	127
462.2504761904762	462.73809523809524	58	127
462.2504761904762	462.28530612244896	86	127
462.2504761904762	462.73809523809524	53	127
462.2504761904762	462.73809523809524	62	127
462.36657596371884	462.41301587301587	86	127
462.50589569160996	462.7613151927438	82	127
462.8077551020408	462.86580498866215	82	127
462.8077551020408	463.08639455782316	62	127
462.8077551020408	463.08639455782316	58	127
462.8077551020408	463.08639455782316	53	127
462.9819047619048	463.0283446712018	82	127
463.14444444444445	463.3766439909297	62	127
463.14444444444445	463.2605442176871	77	127
463.14444444444445	463.3766439909297	53	127
463.14444444444445	463.3766439909297	58	127
463.2605442176871	463.434693877551	79	127
463.434693877551	463.5624036281179	75	127
463.434693877551	463.67850340136056	63	127
463.434693877551	463.67850340136056	57	127
463.434693877551	463.67850340136056	53	127
463.5624036281179	463.7133333333333	77	127
463.7133333333333	463.92231292517005	74	127
463.7133333333333	463.92231292517005	46	127
463.9803628117914	464.0384126984127	86	127
463.9803628117914	464.49120181405897	53	127
463.9803628117914	464.49120181405897	62	127
463.9803628117914	464.49120181405897	58	127
464.14290249433105	464.2009523809524	86	127
464.31705215419504	464.5260317460317	82	127
464.5724716553288	464.8278911564626	62	127
464.5724716553288	464.6305215419501	82	127
464.5724716553288	464.8278911564626	53	127
464.5724716553288	464.8278911564626	58	127
464.73501133786846	464.7930612244898	82	127
464.8859410430839	465.12975056689345	58	127
464.8859410430839	465.0252607709751	77	127
464.8859410430839	465.12975056689345	53	127
464.8859410430839	465.12975056689345	62	127
465.0252607709751	465.1645804988662	79	127
465.1645804988662	465.4316099773243	57	127
465.1645804988662	465.4316099773243	63	127
465.1645804988662	465.31551020408165	75	127
465.1645804988662	465.4316099773243	53	127
465.31551020408165	465.4780498866213	77	127
465.4896598639456	465.7682993197279	46	127
465.4896598639456	465.7682993197279	74	127
465.8031292517007	466.1630385487528	58	127
465.8031292517007	466.1630385487528	62	127
465.8031292517007	466.1630385487528	53	127
465.8031292517007	465.84956916099776	74	127
465.96566893424034	466.0121088435374	74	127
466.0701587301587	466.1630385487528	70	127
466.2094784580499	466.45328798185943	58	127
466.2094784580499	466.2443083900227	70	127
466.2094784580499	466.45328798185943	62	127
466.2094784580499	466.45328798185943	53	127
466.3371882086168	466.3952380952381	70	127
466.49972789115645	466.6738775510204	65	127
466.49972789115645	466.77836734693875	53	127
466.49972789115645	466.77836734693875	58	127
466.49972789115645	466.77836734693875	62	127
466.6738775510204	466.82480725623583	67	127
466.82480725623583	467.1034467120181	53	127
466.82480725623583	467.1034467120181	57	127
466.82480725623583	467.1034467120181	60	127
466.82480725623583	466.9873469387755	63	127
466.9873469387755	467.1614965986395	65	127
467.1614965986395	467.3936961451247	46	127
467.1614965986395	467.3936961451247	62	127
467.45174603174604	468.0206349206349	62	127
467.45174603174604	468.0206349206349	58	127
467.45174603174604	467.49818594104306	74	127
467.45174603174604	468.0206349206349	53	127
467.6142857142857	467.6839455782313	74	127
467.8000453514739	468.0206349206349	70	127
468.0322448979592	468.17156462585035	62	127
468.0322448979592	468.17156462585035	53	127
468.0322448979592	468.17156462585035	58	127
468.0902947845805	468.113514739229	70	127
468.2063945578231	468.4734240362812	62	127
468.2063945578231	468.4734240362812	53	127
468.2063945578231	468.4734240362812	58	127
468.2063945578231	468.3805442176871	65	127
468.3805442176871	468.54308390022675	67	127
468.54308390022675	468.70562358276646	63	127
468.54308390022675	468.775283446712	53	127
468.54308390022675	468.775283446712	57	127
468.54308390022675	468.775283446712	60	127
468.70562358276646	468.82172335600904	65	127
468.82172335600904	469.18163265306123	70	127
468.82172335600904	469.18163265306123	58	127
468.82172335600904	469.18163265306123	46	127
468.82172335600904	469.18163265306123	62	127
469.22807256235825	469.7505215419501	50	127
469.22807256235825	469.7505215419501	62	127
469.22807256235825	469.7505215419501	74	127
469.8434013605442	469.9130612244898	38	127
469.8434013605442	469.9130612244898	62	127
469.8434013605442	469.9130612244898	50	127
470.1336507936508	470.21492063492065	64	127
470.1336507936508	470.21492063492065	40	127
470.1336507936508	470.21492063492065	52	127
470.4239002267574	470.86507936507934	54	127
470.4239002267574	470.49356009070294	66	127
470.4239002267574	470.86507936507934	42	127
470.49356009070294	470.54	67	127
470.54	470.62126984126985	66	127
470.62126984126985	470.67931972789114	67	127
470.67931972789114	470.74897959183676	66	127
470.74897959183676	470.7954195011338	67	127
470.7954195011338	470.86507936507934	64	127
470.86507936507934	470.93473922902496	66	127
470.93473922902496	470.9579591836735	67	127
470.93473922902496	470.9579591836735	55	127
470.93473922902496	470.9579591836735	43	127
471.1321088435374	471.1901587301587	57	127
471.1321088435374	471.1901587301587	69	127
471.1321088435374	471.1901587301587	45	127
471.27142857142854	471.6313378684807	47	127
471.27142857142854	471.6313378684807	59	127
471.27142857142854	471.30625850340135	71	127
471.30625850340135	471.3759183673469	72	127
471.3759183673469	471.39913832199545	71	127
471.39913832199545	471.422358276644	72	127
471.422358276644	471.5036281179138	71	127
471.5036281179138	471.57328798185944	72	127
471.57328798185944	471.6313378684807	69	127
471.6313378684807	471.66616780045354	71	127
471.66616780045354	471.7242176870748	60	127
471.66616780045354	471.7242176870748	72	127
471.66616780045354	471.7242176870748	48	127
471.93319727891156	472.0144671201814	62	127
471.93319727891156	472.0144671201814	74	127
471.93319727891156	472.0144671201814	50	127
472.22344671201813	472.24666666666667	63	127
472.22344671201813	472.24666666666667	51	127
472.22344671201813	472.24666666666667	75	127
472.3627664399093	472.38598639455785	40	127
472.3627664399093	472.38598639455785	76	127
472.3627664399093	472.38598639455785	52	127
472.3627664399093	472.38598639455785	64	127
472.43242630385487	472.4672562358277	65	127
472.43242630385487	472.4672562358277	41	127
472.43242630385487	472.4672562358277	53	127
472.43242630385487	472.4672562358277	77	127
472.6530158730159	472.7342857142857	55	127
472.6530158730159	472.7342857142857	67	127
472.6530158730159	472.7342857142857	43	127
472.6530158730159	472.7342857142857	79	127
472.8968253968254	472.966485260771	68	127
472.8968253968254	472.966485260771	80	127
472.8968253968254	472.966485260771	44	127
472.8968253968254	472.966485260771	56	127
473.012925170068	473.07097505668935	69	127
473.012925170068	473.07097505668935	81	127
473.012925170068	473.07097505668935	57	127
473.012925170068	473.07097505668935	45	127
473.2799546485261	474.0810430839002	56	127
473.2799546485261	474.0810430839002	82	127
473.2799546485261	474.0810430839002	74	127
473.2799546485261	474.0810430839002	58	127
473.2799546485261	474.0810430839002	53	127
473.2799546485261	474.0810430839002	77	127
473.2799546485261	474.0810430839002	46	127
473.2799546485261	474.0810430839002	70	127
474.1507029478458	474.25519274376416	55	127
474.1507029478458	474.25519274376416	51	127
474.1507029478458	474.25519274376416	58	127
474.1507029478458	474.25519274376416	70	127
474.1507029478458	474.25519274376416	75	127
474.1507029478458	474.25519274376416	79	127
474.38290249433106	474.4641723356009	91	127
474.38290249433106	474.4641723356009	79	127
474.4641723356009	474.5338321995465	81	127
474.4641723356009	474.5338321995465	93	127
474.5338321995465	474.5918820861678	82	127
474.5338321995465	474.5918820861678	94	127
474.5918820861678	474.66154195011336	96	127
474.5918820861678	474.66154195011336	84	127
474.66154195011336	474.7195918367347	98	127
474.66154195011336	474.7195918367347	86	127
474.8240816326531	474.9634013605442	89	127
474.8240816326531	474.9634013605442	81	127
474.8240816326531	474.9634013605442	77	127
474.8240816326531	474.9634013605442	84	127
474.8240816326531	474.9634013605442	93	127
474.8240816326531	474.9634013605442	96	127
475.11433106575964	475.16077097505666	94	127
475.11433106575964	475.16077097505666	74	127
475.11433106575964	475.16077097505666	86	127
475.11433106575964	475.16077097505666	82	127
475.11433106575964	475.16077097505666	89	127
475.11433106575964	475.16077097505666	77	127
475.2304308390023	475.3581405895692	96	127
475.2304308390023	475.3581405895692	84	127
475.2304308390023	475.3581405895692	89	127
475.2304308390023	475.3581405895692	81	127
475.2304308390023	475.3581405895692	93	127
475.2304308390023	475.3581405895692	77	127
475.4626303854875	475.5322902494331	98	127
475.4626303854875	475.5322902494331	86	127
475.4626303854875	475.5322902494331	89	127
475.4626303854875	475.5322902494331	77	127
475.4626303854875	475.5322902494331	82	127
475.4626303854875	475.5322902494331	94	127
475.6832199546485	475.83414965986395	77	127
475.6832199546485	475.83414965986395	81	127
475.6832199546485	475.83414965986395	96	127
475.6832199546485	475.83414965986395	93	127
475.6832199546485	475.83414965986395	89	127
475.6832199546485	475.83414965986395	84	127
475.9154195011338	476.06634920634923	77	127
475.9154195011338	476.06634920634923	86	127
475.9154195011338	476.06634920634923	82	127
475.9154195011338	476.06634920634923	89	127
475.9154195011338	476.06634920634923	98	127
475.9154195011338	476.06634920634923	94	127
476.20566893424035	476.29854875283445	81	127
476.20566893424035	476.29854875283445	93	127
476.20566893424035	476.29854875283445	96	127
476.20566893424035	476.29854875283445	84	127
476.20566893424035	476.29854875283445	89	127
476.20566893424035	476.29854875283445	77	127
476.33337868480726	476.4146485260771	89	127
476.33337868480726	476.4146485260771	86	127
476.33337868480726	476.4146485260771	82	127
476.33337868480726	476.4146485260771	94	127
476.33337868480726	476.4146485260771	98	127
476.33337868480726	476.4146485260771	77	127
476.51913832199546	476.61201814058956	81	127
476.51913832199546	476.61201814058956	96	127
476.51913832199546	476.61201814058956	77	127
476.51913832199546	476.61201814058956	93	127
476.51913832199546	476.61201814058956	84	127
476.51913832199546	476.61201814058956	89	127
476.73972789115646	476.84421768707483	74	127
476.73972789115646	476.84421768707483	94	127
476.73972789115646	476.84421768707483	86	127
476.73972789115646	476.84421768707483	77	127
476.73972789115646	476.84421768707483	89	127
476.73972789115646	476.84421768707483	82	127
476.92548752834466	477.01836734693876	84	127
476.92548752834466	477.01836734693876	69	127
476.92548752834466	477.01836734693876	65	127
476.92548752834466	477.01836734693876	72	127
476.92548752834466	477.01836734693876	81	127
476.92548752834466	477.01836734693876	77	127
477.1809070294785	477.2970068027211	65	127
477.1809070294785	477.2970068027211	74	127
477.1809070294785	477.2970068027211	82	127
477.1809070294785	477.2970068027211	70	127
477.1809070294785	477.2970068027211	86	127
477.1809070294785	477.2970068027211	77	127
477.43632653061223	477.5756462585034	72	127
477.43632653061223	477.5756462585034	77	127
477.43632653061223	477.5756462585034	69	127
477.43632653061223	477.5756462585034	81	127
477.43632653061223	477.5756462585034	65	127
477.43632653061223	477.5756462585034	84	127
477.69174603174605	477.74979591836734	65	127
477.69174603174605	477.74979591836734	77	127
477.69174603174605	477.74979591836734	86	127
477.69174603174605	477.74979591836734	70	127
477.69174603174605	477.74979591836734	82	127
477.69174603174605	477.74979591836734	74	127
477.84267573696144	477.93555555555554	84	127
477.84267573696144	477.93555555555554	72	127
477.84267573696144	477.93555555555554	65	127
477.84267573696144	477.93555555555554	77	127
477.84267573696144	477.93555555555554	81	127
477.84267573696144	477.93555555555554	69	127
478.0748752834467	478.132925170068	86	127
478.0748752834467	478.132925170068	77	127
478.0748752834467	478.132925170068	70	127
478.0748752834467	478.132925170068	74	127
478.0748752834467	478.132925170068	82	127
478.0748752834467	478.132925170068	65	127
478.2606349206349	478.307074829932	84	127
478.2606349206349	478.307074829932	72	127
478.2606349206349	478.307074829932	65	127
478.2606349206349	478.307074829932	77	127
478.41156462585036	478.50444444444446	62	127
478.41156462585036	478.50444444444446	70	127
478.41156462585036	478.50444444444446	74	127
478.41156462585036	478.50444444444446	82	127
478.65537414965985	478.7714739229025	77	127
478.65537414965985	478.7714739229025	72	127
478.65537414965985	478.7714739229025	65	127
478.65537414965985	478.7714739229025	84	127
478.91079365079366	478.9920634920635	86	127
478.91079365079366	478.9920634920635	82	127
478.91079365079366	478.9920634920635	74	127
478.91079365079366	478.9920634920635	70	127
479.0733333333333	479.1778231292517	84	127
479.0733333333333	479.1778231292517	72	127
479.0733333333333	479.1778231292517	77	127
479.0733333333333	479.1778231292517	65	127
479.3055328798186	479.4332426303855	74	127
479.3055328798186	479.4332426303855	62	127
479.3055328798186	479.4332426303855	70	127
479.3055328798186	479.4332426303855	82	127
479.4912925170068	479.60739229024944	65	127
479.4912925170068	479.60739229024944	60	127
479.4912925170068	479.60739229024944	72	127
479.4912925170068	479.60739229024944	77	127
479.677052154195	479.8163718820862	58	127
479.677052154195	479.8163718820862	74	127
479.677052154195	479.8163718820862	70	127
479.677052154195	479.8163718820862	62	127
479.92086167800454	480.01374149659864	60	127
479.92086167800454	480.01374149659864	53	127
479.92086167800454	480.01374149659864	72	127
479.92086167800454	480.01374149659864	65	127
480.16467120181403	480.3156009070295	70	127
480.16467120181403	480.3156009070295	62	127
480.16467120181403	480.3156009070295	58	127
480.16467120181403	480.3156009070295	50	127
480.42009070294785	480.47814058956914	53	127
480.42009070294785	480.47814058956914	60	127
480.42009070294785	480.47814058956914	65	127
480.42009070294785	480.47814058956914	72	127
480.559410430839	480.6871201814059	70	127
480.559410430839	480.6871201814059	74	127
480.559410430839	480.6871201814059	58	127
480.559410430839	480.6871201814059	62	127
480.78	480.8380498866213	60	127
480.78	480.8380498866213	72	127
480.78	480.8380498866213	77	127
480.78	480.8380498866213	65	127
480.9889795918367	481.10507936507935	70	127
480.9889795918367	481.10507936507935	82	127
480.9889795918367	481.10507936507935	74	127
480.9889795918367	481.10507936507935	62	127
481.2443990929705	481.3372789115646	65	127
481.2443990929705	481.3372789115646	84	127
481.2443990929705	481.3372789115646	72	127
481.2443990929705	481.3372789115646	77	127
481.41854875283445	481.48820861678007	70	127
481.41854875283445	481.48820861678007	86	127
481.41854875283445	481.48820861678007	82	127
481.41854875283445	481.48820861678007	74	127
481.58108843537417	481.73201814058956	89	127
481.58108843537417	481.73201814058956	77	127
481.58108843537417	481.73201814058956	72	127
481.58108843537417	481.73201814058956	84	127
481.87133786848074	481.99904761904764	82	127
481.87133786848074	481.99904761904764	94	127
481.87133786848074	481.99904761904764	86	127
481.87133786848074	481.99904761904764	74	127
482.13836734693876	482.2196371882086	84	127
482.13836734693876	482.2196371882086	89	127
482.13836734693876	482.2196371882086	77	127
482.13836734693876	482.2196371882086	96	127
482.3125170068027	482.41700680272106	82	127
482.3125170068027	482.41700680272106	94	127
482.3125170068027	482.41700680272106	74	127
482.3125170068027	482.41700680272106	86	127
482.4866666666667	482.5795464852608	89	127
482.4866666666667	482.5795464852608	96	127
482.4866666666667	482.5795464852608	84	127
482.4866666666667	482.5795464852608	77	127
482.71886621315195	482.8581859410431	86	127
482.71886621315195	482.8581859410431	82	127
482.71886621315195	482.8581859410431	94	127
482.71886621315195	482.8581859410431	74	127
482.96267573696144	483.032335600907	84	127
482.96267573696144	483.032335600907	77	127
482.96267573696144	483.032335600907	96	127
482.96267573696144	483.032335600907	89	127
483.09038548752835	483.18326530612245	86	127
483.09038548752835	483.18326530612245	82	127
483.09038548752835	483.18326530612245	94	127
483.09038548752835	483.18326530612245	74	127
483.2645351473923	483.40385487528346	77	127
483.2645351473923	483.40385487528346	96	127
483.2645351473923	483.40385487528346	89	127
483.2645351473923	483.40385487528346	84	127
483.53156462585036	483.6592743764172	86	127
483.53156462585036	483.6592743764172	74	127
483.53156462585036	483.6592743764172	94	127
483.53156462585036	483.6592743764172	82	127
483.7869841269841	483.8798639455782	72	127
483.7869841269841	483.8798639455782	65	127
483.7869841269841	483.8798639455782	53	127
483.7869841269841	483.8798639455782	60	127
483.9495238095238	484.08884353741496	62	127
483.9495238095238	484.08884353741496	70	127
483.9495238095238	484.08884353741496	50	127
483.9495238095238	484.08884353741496	58	127
484.22816326530614	484.30943310657597	72	127
484.22816326530614	484.30943310657597	60	127
484.22816326530614	484.30943310657597	53	127
484.22816326530614	484.30943310657597	65	127
484.40231292517007	484.54163265306124	62	127
484.40231292517007	484.54163265306124	50	127
484.40231292517007	484.54163265306124	70	127
484.40231292517007	484.54163265306124	58	127
484.6112925170068	484.7390022675737	53	127
484.6112925170068	484.7390022675737	60	127
484.6112925170068	484.7390022675737	65	127
484.6112925170068	484.7390022675737	72	127
484.8434920634921	484.9828117913832	50	127
484.8434920634921	484.9828117913832	70	127
484.8434920634921	484.9828117913832	62	127
484.8434920634921	484.9828117913832	58	127
485.1221315192744	485.1453514739229	72	127
485.1221315192744	485.1453514739229	60	127
485.1221315192744	485.1453514739229	65	127
485.1221315192744	485.1453514739229	53	127
485.2962811791383	485.3891609977324	62	127
485.2962811791383	485.3891609977324	46	127
485.2962811791383	485.3891609977324	58	127
485.2962811791383	485.3891609977324	50	127
485.2962811791383	485.3891609977324	70	127
486.17863945578233	486.3760090702948	41	127
486.17863945578233	486.3760090702948	77	127
486.17863945578233	486.3760090702948	81	127
486.17863945578233	486.3760090702948	84	127
486.17863945578233	486.3760090702948	45	127
486.17863945578233	486.3760090702948	72	127
486.17863945578233	486.3760090702948	53	127
486.17863945578233	486.3760090702948	48	127
487.14226757369613	487.3164172335601	34	127
487.14226757369613	487.3164172335601	46	127
487.14226757369613	487.3164172335601	77	127
487.14226757369613	487.3164172335601	74	127
487.14226757369613	487.3164172335601	41	127
487.14226757369613	487.3164172335601	82	127
487.14226757369613	487.3164172335601	86	127
487.14226757369613	487.3164172335601	38	127
489.02308390022677	489.2436734693878	46	127
