# onset,offset,note,velocity
0.034058956916099774	0.6726077097505669	77	127
0.7306575963718821	0.9280272108843537	79	127
0.9280272108843537	1.1021768707482993	81	127
1.1021768707482993	1.3807936507936507	82	127
1.4388662131519274	1.60140589569161	82	127
1.60140589569161	1.7755555555555556	82	127
1.7755555555555556	1.8336054421768708	81	127
2.1006349206349206	2.147074829931973	82	127
2.4837641723356008	2.832063492063492	83	127
2.832063492063492	2.9829931972789114	84	127
3.157142857142857	3.424172335600907	82	127
3.424172335600907	3.505442176870748	82	127
3.505442176870748	3.760861678004535	84	127
3.760861678004535	3.8421315192743766	84	127
3.8421315192743766	4.1788208616780045	87	127
4.1788208616780045	4.341360544217687	86	127
4.492290249433107	4.538730158730159	87	127
4.643219954648526	4.701269841269841	89	127
4.805759637188209	4.863809523809524	91	127
4.979909297052155	5.0147392290249435	87	127
5.107619047619048	5.757777777777778	84	127
5.839047619047619	6.140907029478458	77	127
6.198956916099773	6.349886621315193	79	127
6.349886621315193	6.512426303854875	81	127
6.524036281179138	6.802675736961452	82	127
6.849115646258503	7.023265306122449	82	127
7.023265306122449	7.185804988662132	82	127
7.185804988662132	7.243854875283446	81	127
7.557324263038549	7.615374149659864	82	127
7.894013605442177	8.230702947845804	86	127
8.230702947845804	8.393219954648526	84	127
8.567392290249433	8.799591836734693	74	127
8.811201814058958	8.880861678004536	74	127
8.892471655328798	9.147891156462585	75	127
9.147891156462585	9.240770975056689	75	127
9.240770975056689	9.577460317460318	79	127
9.577460317460318	9.751609977324263	77	127
9.937369614512471	10.285668934240363	82	127
10.285668934240363	10.471428571428572	76	127
10.622358276643991	10.959047619047618	77	127
10.959047619047618	11.12156462585034	65	127
11.284126984126985	11.632426303854876	70	127
11.632426303854876	11.829795918367347	64	127
12.003945578231292	12.329024943310658	65	127
12.329024943310658	12.49156462585034	53	127
12.642494331065759	12.688934240362812	72	127
12.828253968253968	12.886303854875283	74	127
12.99079365079365	13.048843537414966	75	127
13.164943310657597	13.211383219954648	72	127
13.327482993197279	13.896371882086168	77	127
13.977641723356008	14.047301587301588	60	127
14.163401360544217	14.221451247165533	62	127
14.3259410430839	14.407210884353741	63	127
14.511700680272108	14.569750566893424	60	127
14.662630385487528	14.97609977324263	64	127
14.97609977324263	15.16185941043084	65	127
15.336009070294784	15.59142857142857	65	127
15.336009070294784	15.59142857142857	77	127
15.59142857142857	15.672698412698413	65	127
15.59142857142857	15.672698412698413	77	127
15.672698412698413	15.916507936507937	76	127
15.672698412698413	15.916507936507937	64	127
15.9281179138322	15.997777777777777	76	127
15.9281179138322	15.997777777777777	64	127
16.00938775510204	16.253197278911564	65	127
16.00938775510204	16.253197278911564	77	127
16.253197278911564	16.334444444444443	77	127
16.253197278911564	16.334444444444443	65	127
16.334444444444443	16.566666666666666	70	127
16.334444444444443	16.566666666666666	82	127
16.566666666666666	16.647936507936507	70	127
16.566666666666666	16.647936507936507	82	127
16.647936507936507	16.856916099773244	84	127
16.647936507936507	16.856916099773244	60	127
16.856916099773244	16.938185941043084	60	127
16.856916099773244	16.938185941043084	84	127
16.938185941043084	17.147165532879818	60	127
16.938185941043084	17.147165532879818	84	127
17.147165532879818	17.240045351473924	62	127
17.147165532879818	17.240045351473924	86	127
17.240045351473924	17.29809523809524	82	127
17.240045351473924	17.507074829931973	58	127
17.402585034013605	17.553514739229026	77	127
17.553514739229026	17.72766439909297	74	127
17.72766439909297	17.901814058956916	70	127
17.913424036281178	18.087573696145125	69	127
17.913424036281178	18.203673469387756	53	127
18.087573696145125	18.25011337868481	72	127
18.25011337868481	18.401043083900227	69	127
18.401043083900227	18.575192743764173	65	127
18.575192743764173	18.749319727891155	60	127
18.575192743764173	18.865442176870747	56	127
18.749319727891155	18.923492063492063	62	127
18.923492063492063	19.051201814058956	64	127
19.051201814058956	19.21374149659864	65	127
19.21374149659864	19.387891156462587	55	127
19.21374149659864	19.387891156462587	63	127
19.387891156462587	19.550430839002267	67	127
19.550430839002267	19.724580498866214	55	127
19.550430839002267	19.736190476190476	65	127
19.550430839002267	19.736190476190476	71	127
19.736190476190476	19.910340136054423	67	127
19.910340136054423	20.072879818594103	63	127
19.910340136054423	20.188979591836734	60	127
19.910340136054423	20.072879818594103	72	127
20.072879818594103	20.223809523809525	67	127
20.223809523809525	20.397936507936507	63	127
20.397936507936507	20.583696145124716	60	127
20.583696145124716	20.757868480725623	55	127
20.583696145124716	20.769478458049885	62	127
20.769478458049885	20.920408163265307	70	127
20.920408163265307	21.071337868480725	53	127
20.920408163265307	21.071337868480725	69	127
21.071337868480725	21.23387755102041	63	127
21.245487528344672	21.40800453514739	62	127
21.245487528344672	21.524126984126983	58	127
21.40800453514739	21.570566893424036	70	127
21.570566893424036	21.721496598639455	65	127
21.721496598639455	21.88403628117914	62	127
21.88403628117914	21.988526077097507	55	127
21.88403628117914	22.08140589569161	58	127
22.08140589569161	22.243945578231294	67	127
22.243945578231294	22.325215419501134	60	127
22.243945578231294	22.406485260770975	64	127
22.406485260770975	22.56902494331066	58	127
22.58063492063492	22.836054421768708	53	127
22.58063492063492	22.719954648526077	57	127
22.719954648526077	22.88249433106576	60	127
22.88249433106576	23.056621315192743	65	127
23.056621315192743	23.219183673469388	67	127
23.219183673469388	23.381723356009072	68	127
23.219183673469388	23.4978231292517	53	127
23.381723356009072	23.555873015873015	72	127
23.555873015873015	23.73002267573696	68	127
23.73002267573696	23.892562358276646	65	127
23.892562358276646	24.18281179138322	56	127
23.892562358276646	24.07832199546485	60	127
24.07832199546485	24.240861678004535	62	127
24.240861678004535	24.426621315192744	64	127
24.426621315192744	24.589160997732428	65	127
24.589160997732428	24.774920634920633	55	127
24.589160997732428	24.774920634920633	63	127
24.774920634920633	24.937460317460317	67	127
24.937460317460317	25.1	55	127
24.937460317460317	25.1	71	127
24.937460317460317	25.1	65	127
25.1	25.262539682539682	67	127
25.262539682539682	25.425079365079366	63	127
25.262539682539682	25.425079365079366	72	127
25.262539682539682	25.52956916099773	60	127
25.425079365079366	25.59922902494331	67	127
25.59922902494331	25.761768707482993	63	127
25.761768707482993	25.924308390022677	60	127
25.93591836734694	26.110068027210886	55	127
25.93591836734694	26.110068027210886	62	127
26.110068027210886	26.260997732426304	70	127
26.260997732426304	26.423537414965985	69	127
26.260997732426304	26.411927437641722	53	127
26.423537414965985	26.59768707482993	63	127
26.59768707482993	26.853106575963718	58	127
26.59768707482993	26.760226757369615	62	127
26.760226757369615	26.911156462585033	70	127
26.911156462585033	27.073696145124718	65	127
27.073696145124718	27.24784580498866	62	127
27.259455782312926	27.43360544217687	61	127
27.259455782312926	27.538095238095238	55	127
27.43360544217687	27.596145124716553	64	127
27.596145124716553	27.7702947845805	70	127
27.7702947845805	27.93283446712018	61	127
27.93283446712018	28.072154195011336	62	127
27.93283446712018	28.188253968253967	58	127
28.072154195011336	28.246303854875283	65	127
28.246303854875283	28.408843537414967	70	127
28.408843537414967	28.571383219954647	62	127
28.571383219954647	28.873242630385487	55	127
28.571383219954647	28.931292517006803	82	127
28.931292517006803	29.093832199546487	76	127
29.291201814058958	29.581451247165532	58	127
29.291201814058958	29.627891156462585	77	127
29.627891156462585	29.79043083900227	65	127
29.95297052154195	30.115510204081634	53	127
29.95297052154195	30.127120181405896	57	127
30.127120181405896	30.289659863945577	65	127
30.289659863945577	30.440589569161	60	127
30.289659863945577	30.440589569161	51	127
30.440589569161	30.60312925170068	57	127
30.614739229024945	30.765668934240363	50	127
30.614739229024945	30.765668934240363	58	127
30.765668934240363	30.928208616780044	65	127
30.928208616780044	31.079138321995465	46	127
30.928208616780044	31.090748299319728	62	127
31.090748299319728	31.264897959183674	58	127
31.264897959183674	31.32294784580499	72	127
31.264897959183674	31.415827664399092	53	127
31.415827664399092	31.473877551020408	74	127
31.58997732426304	31.75251700680272	51	127
31.58997732426304	31.648027210884354	75	127
31.75251700680272	31.810566893424035	72	127
31.915056689342403	32.0427664399093	50	127
31.915056689342403	32.20530612244898	76	127
32.20530612244898	32.36784580498866	77	127
32.20530612244898	32.36784580498866	46	127
32.553605442176874	32.60004535147392	58	127
32.553605442176874	32.72775510204082	38	127
32.72775510204082	32.797392290249434	70	127
32.913492063492065	32.95995464852608	58	127
32.913492063492065	33.02961451247165	37	127
33.02961451247165	33.07605442176871	70	127
33.16891156462585	33.2037641723356	58	127
33.16891156462585	33.30825396825397	38	127
33.30825396825397	33.366303854875284	70	127
33.482403628117915	33.54045351473923	62	127
33.482403628117915	33.644943310657595	43	127
33.644943310657595	33.702993197278914	70	127
33.819092970521545	33.99324263038549	39	127
33.819092970521545	33.87714285714286	67	127
33.99324263038549	34.0512925170068	70	127
34.16739229024943	34.295102040816325	41	127
34.16739229024943	34.21383219954649	69	127
34.295102040816325	34.353151927437644	63	127
34.469251700680275	35.09619047619048	62	127
34.469251700680275	35.09619047619048	70	127
34.469251700680275	35.09619047619048	58	127
35.16585034013605	35.781179138321995	74	127
35.16585034013605	35.781179138321995	62	127
35.885668934240364	36.02498866213152	62	127
35.885668934240364	36.22233560090703	50	127
36.28040816326531	36.326848072562356	66	127
36.28040816326531	36.326848072562356	54	127
36.326848072562356	36.384897959183675	67	127
36.326848072562356	36.384897959183675	55	127
36.384897959183675	36.431337868480725	66	127
36.384897959183675	36.431337868480725	54	127
36.431337868480725	36.489387755102044	67	127
36.431337868480725	36.489387755102044	55	127
36.489387755102044	36.55904761904762	64	127
36.489387755102044	36.55904761904762	52	127
36.55904761904762	36.61709750566894	66	127
36.55904761904762	36.61709750566894	55	127
36.61709750566894	37.255646258503404	67	127
36.61709750566894	37.255646258503404	55	127
37.3485260770975	37.42979591836735	70	127
37.59233560090703	37.638775510204084	70	127
37.65038548752835	37.731632653061226	70	127
37.85934240362812	37.92902494331066	72	127
37.95224489795918	38.17283446712018	74	127
38.17283446712018	38.25408163265306	79	127
38.25408163265306	38.33537414965986	74	127
38.50952380952381	38.55596371882086	74	127
38.59079365079365	38.66045351473923	74	127
38.79977324263039	38.8578231292517	74	127
38.89265306122449	38.96231292517007	73	127
39.113242630385486	39.18290249433107	72	127
39.20612244897959	39.287392290249436	70	127
39.46154195011338	39.53120181405896	69	127
39.554421768707485	39.635668934240364	67	127
39.79823129251701	39.85628117913832	65	127
39.89108843537415	39.96077097505669	64	127
40.12331065759637	40.18136054421769	72	127
40.19297052154195	40.239410430839	72	127
40.35551020408163	40.401927437641724	72	127
40.425170068027214	40.50643990929705	72	127
40.65734693877551	40.69219954648526	74	127
40.72702947845805	40.808299319727894	76	127
40.924399092970525	40.98244897959184	77	127
41.00566893424036	41.09854875283447	79	127
41.27269841269841	41.31913832199547	79	127
41.353968253968254	41.4352380952381	79	127
41.60938775510204	41.667414965986396	81	127
41.690657596371885	41.92283446712018	77	127
41.93446712018141	42.015736961451246	65	127
42.015736961451246	42.10861678004535	67	127
42.282766439909295	42.340816326530614	69	127
42.35242630385488	42.97936507936508	70	127
42.35242630385488	42.97936507936508	58	127
43.07222222222222	43.61791383219955	74	127
43.07222222222222	43.61791383219955	62	127
43.69916099773243	44.04748299319728	50	127
43.69916099773243	44.04748299319728	62	127
44.1055328798186	44.17519274376417	66	127
44.1055328798186	44.17519274376417	54	127
44.17519274376417	44.24485260770975	67	127
44.17519274376417	44.24485260770975	55	127
44.24485260770975	44.302902494331065	54	127
44.24485260770975	44.302902494331065	66	127
44.302902494331065	44.372562358276646	55	127
44.302902494331065	44.372562358276646	67	127
44.372562358276646	44.43061224489796	64	127
44.372562358276646	44.43061224489796	52	127
44.43061224489796	44.48866213151928	54	127
44.43061224489796	44.48866213151928	66	127
44.48866213151928	45.08077097505669	67	127
44.48866213151928	45.08077097505669	55	127
45.15043083900227	45.70770975056689	55	127
45.452290249433105	45.53356009070295	70	127
45.452290249433105	45.53356009070295	62	127
45.788979591836735	46.334648526077096	58	127
46.09083900226757	46.172108843537416	74	127
46.09083900226757	46.172108843537416	62	127
46.439138321995465	46.717777777777776	50	127
46.439138321995465	46.53201814058957	66	127
46.76421768707483	46.85709750566893	62	127
46.76421768707483	46.85709750566893	69	127
46.76421768707483	47.06607709750567	54	127
47.11251700680272	47.68140589569161	55	127
47.41437641723356	47.507233560090704	70	127
47.41437641723356	47.507233560090704	62	127
47.77428571428572	47.84394557823129	67	127
47.77428571428572	47.84394557823129	48	127
48.076145124716554	48.1574149659864	60	127
48.076145124716554	48.1574149659864	67	127
48.076145124716554	48.1574149659864	52	127
48.37800453514739	48.459274376417234	53	127
48.37800453514739	48.459274376417234	69	127
48.37800453514739	48.459274376417234	60	127
48.74952380952381	48.83079365079365	69	127
48.74952380952381	48.83079365079365	77	127
48.74952380952381	48.83079365079365	45	127
49.05138321995465	49.121043083900226	46	127
49.05138321995465	49.121043083900226	67	127
49.05138321995465	49.121043083900226	77	127
49.295192743764176	49.36485260770975	48	127
49.295192743764176	49.36485260770975	67	127
49.295192743764176	49.36485260770975	76	127
49.608662131519274	49.68993197278912	65	127
49.608662131519274	49.80603174603175	53	127
49.68993197278912	49.74798185941043	69	127
49.74798185941043	49.86408163265306	72	127
49.86408163265306	49.98018140589569	77	127
49.991791383219955	50.061451247165536	79	127
50.107891156462586	50.18916099773243	81	127
50.22399092970522	50.78126984126984	83	127
50.86253968253968	51.39659863945578	86	127
51.48947845804989	51.59396825396826	74	127
51.48947845804989	52.10480725623583	59	127
51.84938775510204	51.93065759637188	77	127
52.19768707482993	52.81301587301587	79	127
52.19768707482993	52.81301587301587	62	127
52.87106575963719	52.96394557823129	50	127
52.87106575963719	53.50961451247166	83	127
53.230975056689346	53.323854875283445	53	127
53.602494331065756	54.043673469387755	55	127
53.602494331065756	54.043673469387755	86	127
54.07850340136054	54.6590022675737	59	127
54.07850340136054	54.159773242630386	74	127
54.39197278911565	54.48485260770975	77	127
54.751882086167804	55.26272108843538	62	127
54.751882086167804	55.26272108843538	79	127
55.355600907029476	55.93609977324263	83	127
55.355600907029476	55.44848072562358	50	127
55.70390022675737	55.78517006802721	53	127
56.005759637188206	56.609478458049885	56	127
56.005759637188206	56.609478458049885	86	127
56.70235827664399	57.30607709750567	59	127
56.70235827664399	56.7952380952381	74	127
57.08548752834467	57.166757369614515	77	127
57.39895691609977	58.1768253968254	80	127
57.39895691609977	57.49183673469388	62	127
57.79369614512472	57.87496598639456	65	127
58.1768253968254	58.699274376417236	80	127
58.1768253968254	58.60639455782313	68	127
58.699274376417236	59.40748299319728	84	127
58.699274376417236	63.447755102040816	44	127
59.40748299319728	59.76739229024943	79	127
59.76739229024943	60.10408163265306	82	127
60.10408163265306	60.498820861678006	80	127
60.498820861678006	60.63814058956916	77	127
60.63814058956916	61.28829931972789	75	127
61.28829931972789	61.88040816326531	79	127
61.88040816326531	62.14743764172336	73	127
62.14743764172336	62.518956916099775	77	127
62.518956916099775	62.98335600907029	75	127
62.98335600907029	63.169115646258504	72	127
63.169115646258504	63.79605442176871	68	127
63.5174149659864	64.02825396825396	44	127
63.79605442176871	64.3649433106576	75	127
64.08630385487528	64.6435827664399	44	127
64.3649433106576	65.07312925170068	72	127
64.7132426303855	65.37501133786849	44	127
65.07312925170068	65.6536507936508	77	127
65.39823129251701	66.01356009070295	44	127
65.73492063492064	66.04839002267573	75	127
66.04839002267573	66.98879818594105	44	127
66.04839002267573	66.39668934240363	80	127
66.39668934240363	66.67532879818594	82	127
66.67532879818594	66.98879818594105	84	127
66.98879818594105	67.30226757369614	82	127
66.98879818594105	67.25582766439909	44	127
67.30226757369614	67.39514739229026	44	127
67.30226757369614	67.63895691609977	80	127
67.63895691609977	67.74344671201814	44	127
67.63895691609977	68.02208616780045	72	127
68.02208616780045	68.30072562358276	75	127
68.02208616780045	68.1149433106576	44	127
68.35877551020408	69.00891156462585	68	127
68.35877551020408	68.66063492063492	44	127
68.70707482993197	69.25274376417234	44	127
69.00891156462585	69.58943310657597	75	127
69.28757369614513	69.87965986394558	44	127
69.58943310657597	70.26278911564626	72	127
69.94934240362812	70.52984126984127	44	127
70.26278911564626	70.8317006802721	77	127
70.58789115646259	71.15675736961451	44	127
70.90133786848072	71.20321995464853	75	127
71.20321995464853	71.55151927437642	80	127
71.20321995464853	71.55151927437642	44	127
71.55151927437642	71.83015873015873	82	127
71.55151927437642	72.17843537414966	44	127
71.83015873015873	72.17843537414966	84	127
72.17843537414966	72.49192743764172	82	127
72.17843537414966	72.43385487528344	44	127
72.49192743764172	72.57319727891156	44	127
72.49192743764172	72.80539682539683	80	127
72.80539682539683	72.89827664399093	44	127
72.80539682539683	73.16530612244898	72	127
73.16530612244898	73.4439455782313	75	127
73.16530612244898	73.25818594104308	44	127
73.51360544217687	75.41764172335601	44	127
73.51360544217687	74.14054421768708	68	127
74.14054421768708	74.7326530612245	75	127
74.7326530612245	75.41764172335601	72	127
75.41764172335601	76.05619047619048	76	127
75.41764172335601	76.05619047619048	48	127
76.14907029478458	76.41609977324264	77	127
80.66532879818594	80.73501133786849	70	127
80.76984126984127	80.85111111111111	72	127
81.04845804988662	81.11814058956917	74	127
81.16458049886621	81.24585034013606	75	127
81.39678004535148	81.42	75	127
81.42	81.47804988662132	75	127
81.59414965986394	81.62897959183674	77	127
81.65219954648526	81.90761904761905	79	127
81.90761904761905	81.97727891156462	84	127
81.9888888888889	82.07013605442177	79	127
82.20947845804989	82.2675283446712	79	127
82.29074829931973	82.38362811791383	79	127
82.55777777777777	82.61582766439909	79	127
82.63904761904762	82.72031746031746	78	127
82.88285714285715	82.9292970521542	77	127
82.96410430839002	83.04539682539682	75	127
83.20793650793651	83.2427664399093	74	127
83.26598639455783	83.32401360544218	72	127
83.48657596371882	83.54462585034014	70	127
83.56784580498866	83.64911564625851	69	127
83.82326530612245	83.88131519274377	77	127
83.9045351473923	83.95097505668934	77	127
84.04385487528344	84.09027210884354	77	127
84.12512471655329	84.20639455782313	77	127
84.35732426303855	84.41537414965987	79	127
84.4385941043084	84.53147392290249	81	127
84.68240362811791	84.74045351473923	82	127
84.76367346938775	84.8449433106576	84	127
84.97265306122449	85.03070294784581	84	127
85.06553287981859	85.14680272108843	84	127
85.27451247165533	85.33256235827665	86	127
85.36736961451247	85.61120181405896	82	127
90.20875283446712	90.31324263038549	57	127
90.20875283446712	90.31324263038549	65	127
90.31324263038549	90.39451247165533	69	127
90.39451247165533	90.47578231292518	72	127
90.47578231292518	90.5918820861678	77	127
90.60349206349207	90.67315192743764	79	127
90.7195918367347	90.80086167800454	81	127
90.84730158730159	91.36975056689343	83	127
91.36975056689343	91.93863945578231	86	127
92.01990929705215	92.11278911564627	74	127
92.01990929705215	92.58879818594104	59	127
92.31015873015873	92.40303854875283	77	127
92.64684807256236	93.23893424036281	79	127
92.64684807256236	93.23893424036281	62	127
93.32022675736961	93.80784580498866	83	127
93.32022675736961	93.37827664399093	50	127
93.58725623582767	93.65691609977324	53	127
93.90072562358277	94.51603174603174	55	127
93.90072562358277	94.51603174603174	86	127
94.60893424036281	94.69020408163266	74	127
94.60893424036281	95.1778231292517	59	127
94.93401360544217	95.02689342403629	77	127
95.25909297052154	95.82798185941043	62	127
95.25909297052154	95.82798185941043	79	127
95.90925170068027	96.40848072562358	83	127
95.90925170068027	95.95569160997732	50	127
96.17628117913833	96.23433106575963	53	127
96.50136054421769	96.98897959183674	86	127
96.50136054421769	96.98897959183674	56	127
97.0934693877551	97.19795918367348	74	127
97.0934693877551	97.73201814058957	59	127
97.47659863945579	97.56947845804989	77	127
97.80167800453515	98.2892970521542	80	127
97.80167800453515	97.89455782312925	62	127
98.12675736961451	98.20802721088435	65	127
98.35895691609977	98.40539682539682	65	127
98.35895691609977	98.40539682539682	81	127
98.40539682539682	98.46344671201814	77	127
98.40539682539682	98.46344671201814	69	127
98.46344671201814	98.54471655328798	81	127
98.46344671201814	98.54471655328798	65	127
98.54471655328798	98.64920634920635	77	127
98.54471655328798	98.64920634920635	69	127
98.64920634920635	98.6956462585034	81	127
98.64920634920635	98.6956462585034	65	127
98.6956462585034	98.7304761904762	77	127
98.6956462585034	98.7304761904762	69	127
98.7304761904762	98.8233560090703	65	127
98.7304761904762	98.8233560090703	81	127
98.8233560090703	98.9162358276644	77	127
98.8233560090703	98.9162358276644	69	127
98.9162358276644	99.00911564625851	81	127
98.9162358276644	99.00911564625851	65	127
99.00911564625851	99.1019954648526	69	127
99.00911564625851	99.1019954648526	77	127
99.1019954648526	99.1948752834467	81	127
99.1019954648526	99.1948752834467	65	127
99.1948752834467	99.28775510204082	69	127
99.1948752834467	99.28775510204082	77	127
99.28775510204082	99.36902494331066	65	127
99.28775510204082	99.36902494331066	81	127
99.36902494331066	99.46190476190476	69	127
99.36902494331066	99.46190476190476	77	127
99.46190476190476	99.55478458049886	65	127
99.46190476190476	99.55478458049886	81	127
99.55478458049886	99.64766439909297	77	127
99.55478458049886	99.64766439909297	69	127
99.64766439909297	99.74054421768707	64	127
99.64766439909297	99.74054421768707	79	127
99.74054421768707	99.83342403628117	67	127
99.74054421768707	99.83342403628117	76	127
99.83342403628117	99.91469387755102	79	127
99.83342403628117	99.91469387755102	64	127
99.91469387755102	99.99596371882086	76	127
99.91469387755102	99.99596371882086	67	127
99.99596371882086	100.08884353741496	79	127
99.99596371882086	100.08884353741496	64	127
100.08884353741496	100.18172335600907	76	127
100.08884353741496	100.18172335600907	67	127
100.18172335600907	100.27460317460317	79	127
100.18172335600907	100.27460317460317	64	127
100.27460317460317	100.36748299319729	67	127
100.27460317460317	100.36748299319729	76	127
100.36748299319729	100.39070294784581	62	127
100.36748299319729	100.39070294784581	77	127
100.39070294784581	100.48358276643991	65	127
100.39070294784581	100.48358276643991	74	127
100.48358276643991	100.57646258503401	77	127
100.48358276643991	100.57646258503401	62	127
100.57646258503401	100.63451247165533	74	127
100.57646258503401	100.63451247165533	65	127
100.63451247165533	100.72739229024943	77	127
100.63451247165533	100.72739229024943	62	127
100.72739229024943	100.82027210884354	74	127
100.72739229024943	100.82027210884354	65	127
100.82027210884354	100.90154195011338	77	127
100.82027210884354	100.90154195011338	62	127
100.90154195011338	100.98281179138321	74	127
100.90154195011338	100.98281179138321	65	127
100.99442176870748	101.08730158730158	76	127
100.99442176870748	101.08730158730158	60	127
101.08730158730158	101.16857142857143	72	127
101.08730158730158	101.16857142857143	64	127
101.16857142857143	101.19179138321995	76	127
101.16857142857143	101.19179138321995	60	127
101.19179138321995	101.2730612244898	72	127
101.19179138321995	101.2730612244898	64	127
101.2730612244898	101.34272108843537	76	127
101.2730612244898	101.34272108843537	60	127
101.34272108843537	101.43560090702948	64	127
101.34272108843537	101.43560090702948	72	127
101.43560090702948	101.52848072562358	60	127
101.43560090702948	101.52848072562358	76	127
101.52848072562358	101.6213605442177	72	127
101.52848072562358	101.6213605442177	64	127
101.6213605442177	101.7142403628118	60	127
101.6213605442177	101.7142403628118	76	127
101.7142403628118	101.80712018140589	72	127
101.7142403628118	101.80712018140589	64	127
101.80712018140589	101.87678004535148	60	127
101.80712018140589	101.87678004535148	76	127
101.87678004535148	101.94643990929706	72	127
101.87678004535148	101.94643990929706	64	127
101.94643990929706	101.96965986394558	60	127
101.94643990929706	101.96965986394558	76	127
101.96965986394558	102.03931972789115	64	127
101.96965986394558	102.03931972789115	72	127
102.03931972789115	102.13219954648527	60	127
102.03931972789115	102.13219954648527	76	127
102.13219954648527	102.2134693877551	72	127
102.13219954648527	102.2134693877551	64	127
102.22507936507937	102.31795918367347	74	127
102.22507936507937	102.31795918367347	58	127
102.31795918367347	102.41083900226758	70	127
102.31795918367347	102.41083900226758	62	127
102.41083900226758	102.44566893424036	58	127
102.41083900226758	102.44566893424036	74	127
102.44566893424036	102.53854875283447	62	127
102.44566893424036	102.53854875283447	70	127
102.53854875283447	102.63142857142857	74	127
102.53854875283447	102.63142857142857	58	127
102.63142857142857	102.72430839002267	62	127
102.63142857142857	102.72430839002267	70	127
102.72430839002267	102.81718820861678	58	127
102.72430839002267	102.81718820861678	74	127
102.81718820861678	102.88684807256236	70	127
102.81718820861678	102.88684807256236	62	127
102.88684807256236	102.9681179138322	72	127
102.88684807256236	102.9681179138322	57	127
102.9681179138322	103.0609977324263	60	127
102.9681179138322	103.0609977324263	69	127
103.0609977324263	103.14226757369615	57	127
103.0609977324263	103.14226757369615	72	127
103.14226757369615	103.15387755102041	69	127
103.14226757369615	103.15387755102041	60	127
103.15387755102041	103.22353741496599	57	127
103.15387755102041	103.22353741496599	72	127
103.22353741496599	103.30480725623583	69	127
103.22353741496599	103.30480725623583	60	127
103.30480725623583	103.39768707482993	72	127
103.30480725623583	103.39768707482993	57	127
103.39768707482993	103.49056689342403	60	127
103.39768707482993	103.49056689342403	69	127
103.49056689342403	103.58344671201814	57	127
103.49056689342403	103.58344671201814	72	127
103.58344671201814	103.65310657596372	69	127
103.58344671201814	103.65310657596372	60	127
103.65310657596372	103.73437641723356	72	127
103.65310657596372	103.73437641723356	57	127
103.73437641723356	103.8156462585034	69	127
103.73437641723356	103.8156462585034	60	127
103.8156462585034	103.88530612244898	72	127
103.8156462585034	103.88530612244898	57	127
103.88530612244898	103.97818594104308	60	127
103.88530612244898	103.97818594104308	69	127
103.97818594104308	104.0710657596372	57	127
103.97818594104308	104.0710657596372	72	127
104.0710657596372	104.15233560090702	69	127
104.0710657596372	104.15233560090702	60	127
104.15233560090702	104.25682539682539	70	127
104.15233560090702	104.25682539682539	55	127
104.25682539682539	104.31487528344671	58	127
104.25682539682539	104.31487528344671	67	127
104.31487528344671	104.40775510204081	70	127
104.31487528344671	104.40775510204081	55	127
104.40775510204081	104.50063492063492	58	127
104.40775510204081	104.50063492063492	67	127
104.50063492063492	104.59351473922902	55	127
104.50063492063492	104.59351473922902	70	127
104.59351473922902	104.63995464852607	58	127
104.59351473922902	104.63995464852607	67	127
104.63995464852607	104.70961451247166	70	127
104.63995464852607	104.70961451247166	55	127
104.70961451247166	104.75605442176871	58	127
104.70961451247166	104.75605442176871	67	127
104.75605442176871	104.81410430839003	53	127
104.75605442176871	104.81410430839003	69	127
104.81410430839003	104.90698412698413	65	127
104.81410430839003	104.90698412698413	57	127
104.90698412698413	104.99986394557823	69	127
104.90698412698413	104.99986394557823	53	127
104.99986394557823	105.09274376417234	57	127
104.99986394557823	105.09274376417234	65	127
105.09274376417234	105.18562358276644	53	127
105.09274376417234	105.18562358276644	69	127
105.18562358276644	105.24367346938776	65	127
105.18562358276644	105.24367346938776	57	127
105.24367346938776	105.31333333333333	53	127
105.24367346938776	105.31333333333333	69	127
105.31333333333333	105.3829931972789	57	127
105.31333333333333	105.3829931972789	65	127
105.3829931972789	105.47587301587302	67	127
105.3829931972789	105.47587301587302	52	127
105.47587301587302	105.56875283446712	64	127
105.47587301587302	105.56875283446712	55	127
105.56875283446712	105.65002267573696	52	127
105.56875283446712	105.65002267573696	67	127
105.65002267573696	105.74290249433106	64	127
105.65002267573696	105.74290249433106	55	127
105.74290249433106	105.8241723356009	52	127
105.74290249433106	105.8241723356009	67	127
105.8241723356009	105.87061224489796	64	127
105.8241723356009	105.87061224489796	55	127
105.87061224489796	105.917052154195	52	127
105.87061224489796	105.917052154195	67	127
105.917052154195	105.99832199546485	55	127
105.917052154195	105.99832199546485	64	127
105.99832199546485	106.06798185941044	53	127
105.99832199546485	106.06798185941044	69	127
106.06798185941044	106.16086167800454	57	127
106.06798185941044	106.16086167800454	65	127
106.16086167800454	106.24213151927438	69	127
106.16086167800454	106.24213151927438	53	127
106.24213151927438	106.31179138321995	57	127
106.24213151927438	106.31179138321995	65	127
106.31179138321995	106.3930612244898	69	127
106.31179138321995	106.3930612244898	53	127
106.3930612244898	106.43950113378685	65	127
106.3930612244898	106.43950113378685	57	127
106.43950113378685	106.50916099773242	53	127
106.43950113378685	106.50916099773242	69	127
106.50916099773242	106.60204081632654	65	127
106.50916099773242	106.60204081632654	57	127
106.60204081632654	106.69492063492063	55	127
106.60204081632654	106.69492063492063	70	127
106.69492063492063	106.78780045351473	67	127
106.69492063492063	106.78780045351473	58	127
106.78780045351473	106.84585034013605	55	127
106.78780045351473	106.84585034013605	70	127
106.84585034013605	106.93873015873015	58	127
106.84585034013605	106.93873015873015	67	127
106.93873015873015	107.00839002267574	57	127
106.93873015873015	107.00839002267574	72	127
107.00839002267574	107.08965986394558	60	127
107.00839002267574	107.08965986394558	69	127
107.08965986394558	107.15931972789116	72	127
107.08965986394558	107.15931972789116	57	127
107.15931972789116	107.240589569161	60	127
107.15931972789116	107.240589569161	69	127
107.25219954648526	107.34507936507937	70	127
107.25219954648526	107.34507936507937	55	127
107.34507936507937	107.40312925170068	58	127
107.34507936507937	107.40312925170068	67	127
107.40312925170068	107.49600907029479	70	127
107.40312925170068	107.49600907029479	55	127
107.49600907029479	107.58888888888889	67	127
107.49600907029479	107.58888888888889	58	127
107.58888888888889	107.68176870748299	65	127
107.58888888888889	107.68176870748299	57	127
107.68176870748299	107.76303854875283	53	127
107.68176870748299	107.76303854875283	69	127
107.76303854875283	107.85591836734694	57	127
107.76303854875283	107.85591836734694	65	127
107.85591836734694	107.91396825396825	53	127
107.85591836734694	107.91396825396825	69	127
107.91396825396825	108.00684807256236	65	127
107.91396825396825	108.00684807256236	57	127
108.00684807256236	108.08811791383219	53	127
108.00684807256236	108.08811791383219	69	127
108.08811791383219	108.14616780045351	57	127
108.08811791383219	108.14616780045351	65	127
108.14616780045351	108.23904761904762	52	127
108.14616780045351	108.23904761904762	67	127
108.23904761904762	108.3087074829932	64	127
108.23904761904762	108.3087074829932	55	127
108.3087074829932	108.4015873015873	67	127
108.3087074829932	108.4015873015873	52	127
108.4015873015873	108.48285714285714	64	127
108.4015873015873	108.48285714285714	55	127
108.49446712018141	108.59895691609978	57	127
108.49446712018141	108.59895691609978	72	127
108.59895691609978	108.65700680272109	60	127
108.59895691609978	108.65700680272109	69	127
108.65700680272109	108.7150566893424	72	127
108.65700680272109	108.7150566893424	57	127
108.7150566893424	108.79632653061225	60	127
108.7150566893424	108.79632653061225	69	127
108.79632653061225	108.85437641723357	72	127
108.79632653061225	108.85437641723357	57	127
108.85437641723357	108.91242630385487	60	127
108.85437641723357	108.91242630385487	69	127
108.91242630385487	108.98208616780046	72	127
108.91242630385487	108.98208616780046	57	127
108.98208616780046	109.07496598639456	60	127
108.98208616780046	109.07496598639456	69	127
109.07496598639456	109.17945578231293	55	127
109.07496598639456	109.17945578231293	70	127
109.17945578231293	109.29555555555555	58	127
109.17945578231293	109.29555555555555	67	127
109.29555555555555	109.3768253968254	70	127
109.29555555555555	109.3768253968254	55	127
109.3768253968254	109.4697052154195	58	127
109.3768253968254	109.4697052154195	67	127
109.4697052154195	109.52775510204081	55	127
109.4697052154195	109.52775510204081	70	127
109.52775510204081	109.57419501133786	58	127
109.52775510204081	109.57419501133786	67	127
109.57419501133786	109.59741496598639	55	127
109.57419501133786	109.59741496598639	70	127
109.59741496598639	109.63224489795918	67	127
109.59741496598639	109.63224489795918	58	127
109.63224489795918	109.70190476190476	53	127
109.63224489795918	109.70190476190476	69	127
109.70190476190476	109.79478458049887	65	127
109.70190476190476	109.79478458049887	57	127
109.79478458049887	109.88766439909297	53	127
109.79478458049887	109.88766439909297	69	127
109.88766439909297	109.95732426303854	65	127
109.88766439909297	109.95732426303854	57	127
109.95732426303854	110.02698412698413	53	127
109.95732426303854	110.02698412698413	69	127
110.02698412698413	110.0966439909297	65	127
110.02698412698413	110.0966439909297	57	127
110.0966439909297	110.1895238095238	53	127
110.0966439909297	110.1895238095238	69	127
110.1895238095238	110.28240362811792	57	127
110.1895238095238	110.28240362811792	65	127
110.28240362811792	110.37528344671202	52	127
110.28240362811792	110.37528344671202	67	127
110.37528344671202	110.45655328798186	64	127
110.37528344671202	110.45655328798186	55	127
110.45655328798186	110.5378231292517	67	127
110.45655328798186	110.5378231292517	52	127
110.5378231292517	110.61909297052154	55	127
110.5378231292517	110.61909297052154	64	127
110.61909297052154	110.70036281179138	67	127
110.61909297052154	110.70036281179138	52	127
110.70036281179138	110.73519274376417	64	127
110.70036281179138	110.73519274376417	55	127
110.73519274376417	110.78163265306122	52	127
110.73519274376417	110.78163265306122	67	127
110.78163265306122	110.87451247165532	64	127
110.78163265306122	110.87451247165532	55	127
110.87451247165532	110.95578231292517	53	127
110.87451247165532	110.95578231292517	69	127
110.95578231292517	111.04866213151928	65	127
110.95578231292517	111.04866213151928	57	127
111.04866213151928	111.12993197278911	53	127
111.04866213151928	111.12993197278911	69	127
111.12993197278911	111.23442176870748	57	127
111.12993197278911	111.23442176870748	65	127
111.23442176870748	111.32730158730159	53	127
111.23442176870748	111.32730158730159	69	127
111.32730158730159	111.42018140589569	57	127
111.32730158730159	111.42018140589569	65	127
111.42018140589569	111.48984126984126	69	127
111.42018140589569	111.48984126984126	53	127
111.48984126984126	111.57111111111111	65	127
111.48984126984126	111.57111111111111	57	127
111.57111111111111	111.66399092970522	70	127
111.57111111111111	111.66399092970522	55	127
111.66399092970522	111.7336507936508	67	127
111.66399092970522	111.7336507936508	58	127
111.7336507936508	111.8265306122449	70	127
111.7336507936508	111.8265306122449	55	127
111.8265306122449	111.90780045351474	58	127
111.8265306122449	111.90780045351474	67	127
111.90780045351474	111.96585034013606	57	127
111.90780045351474	111.96585034013606	72	127
111.96585034013606	112.02390022675738	69	127
111.96585034013606	112.02390022675738	60	127
112.02390022675738	112.11678004535148	72	127
112.02390022675738	112.11678004535148	57	127
112.11678004535148	112.20965986394557	60	127
112.11678004535148	112.20965986394557	69	127
112.20965986394557	112.30253968253969	70	127
112.20965986394557	112.30253968253969	55	127
112.30253968253969	112.40702947845806	67	127
112.30253968253969	112.40702947845806	58	127
112.40702947845806	112.47668934240363	70	127
112.40702947845806	112.47668934240363	55	127
112.47668934240363	112.55795918367347	67	127
112.47668934240363	112.55795918367347	58	127
112.55795918367347	112.62761904761905	69	127
112.55795918367347	112.62761904761905	53	127
112.62761904761905	112.65083900226757	57	127
112.62761904761905	112.65083900226757	65	127
112.65083900226757	112.74371882086167	69	127
112.65083900226757	112.74371882086167	53	127
112.74371882086167	112.83659863945579	65	127
112.74371882086167	112.83659863945579	57	127
112.83659863945579	112.91786848072563	69	127
112.83659863945579	112.91786848072563	53	127
112.91786848072563	112.9875283446712	57	127
112.91786848072563	112.9875283446712	65	127
112.9875283446712	113.04557823129252	69	127
112.9875283446712	113.04557823129252	53	127
113.04557823129252	113.10362811791383	65	127
113.04557823129252	113.10362811791383	57	127
113.10362811791383	113.18489795918367	67	127
113.10362811791383	113.18489795918367	52	127
113.18489795918367	113.26616780045352	64	127
113.18489795918367	113.26616780045352	55	127
113.26616780045352	113.37065759637188	67	127
113.26616780045352	113.37065759637188	52	127
113.37065759637188	113.44031746031746	64	127
113.37065759637188	113.44031746031746	55	127
113.45192743764173	113.9627664399093	53	127
113.45192743764173	113.9627664399093	65	127
114.0556462585034	114.5897052154195	57	127
114.0556462585034	114.5897052154195	69	127
114.64775510204082	114.91478458049886	45	127
114.64775510204082	114.91478458049886	57	127
114.97283446712018	115.0308843537415	49	127
114.97283446712018	115.0308843537415	61	127
115.0308843537415	115.08893424036282	62	127
115.0308843537415	115.08893424036282	50	127
115.08893424036282	115.13537414965987	61	127
115.08893424036282	115.13537414965987	49	127
115.13537414965987	115.20503401360544	62	127
115.13537414965987	115.20503401360544	50	127
115.20503401360544	115.26308390022676	59	127
115.20503401360544	115.26308390022676	47	127
115.26308390022676	115.32113378684807	50	127
115.26308390022676	115.32113378684807	61	127
115.32113378684807	115.92485260770975	50	127
115.32113378684807	115.92485260770975	62	127
116.0061224489796	116.49374149659864	55	127
116.0061224489796	116.49374149659864	67	127
116.58662131519274	117.17873015873016	70	127
116.58662131519274	117.17873015873016	58	127
117.21356009070294	117.30643990929705	74	127
117.21356009070294	117.30643990929705	62	127
117.52702947845805	117.58507936507937	78	127
117.52702947845805	117.58507936507937	66	127
117.58507936507937	117.64312925170069	67	127
117.58507936507937	117.64312925170069	79	127
117.64312925170069	117.71278911564626	66	127
117.64312925170069	117.71278911564626	78	127
117.71278911564626	117.77083900226758	79	127
117.71278911564626	117.77083900226758	67	127
117.77083900226758	117.82888888888888	64	127
117.77083900226758	117.82888888888888	76	127
117.82888888888888	117.87532879818595	66	127
117.82888888888888	117.87532879818595	78	127
117.8869387755102	118.36294784580498	79	127
117.8869387755102	118.36294784580498	67	127
118.36294784580498	118.4209977324263	65	127
118.36294784580498	118.4209977324263	77	127
118.4209977324263	118.47904761904762	76	127
118.4209977324263	118.47904761904762	64	127
118.47904761904762	118.53709750566894	74	127
118.47904761904762	118.53709750566894	62	127
118.53709750566894	118.59514739229024	60	127
118.53709750566894	118.59514739229024	72	127
118.81573696145125	118.88539682539682	64	127
118.81573696145125	118.88539682539682	76	127
119.16403628117914	119.61682539682539	65	127
119.16403628117914	119.61682539682539	77	127
119.61682539682539	119.68648526077098	75	127
119.61682539682539	119.68648526077098	63	127
119.68648526077098	119.74453514739228	62	127
119.68648526077098	119.74453514739228	74	127
119.74453514739228	119.8025850340136	72	127
119.74453514739228	119.8025850340136	60	127
119.81419501133787	119.90707482993197	70	127
119.81419501133787	119.90707482993197	58	127
120.04639455782313	120.18571428571428	46	127
120.04639455782313	120.18571428571428	79	127
120.04639455782313	120.18571428571428	70	127
120.3714739229025	120.52240362811791	69	127
120.3714739229025	120.52240362811791	77	127
120.3714739229025	120.52240362811791	48	127
120.59206349206349	120.7778231292517	70	127
120.59206349206349	120.7778231292517	76	127
120.59206349206349	120.7778231292517	48	127
122.93727891156463	123.01854875283446	46	127
122.93727891156463	123.01854875283446	58	127
123.01854875283446	123.1346485260771	48	127
123.01854875283446	123.1346485260771	60	127
123.1346485260771	123.2275283446712	46	127
123.1346485260771	123.2275283446712	58	127
123.2275283446712	123.262358276644	48	127
123.2275283446712	123.262358276644	60	127
123.262358276644	123.32040816326531	46	127
123.262358276644	123.32040816326531	58	127
123.32040816326531	123.39006802721089	48	127
123.32040816326531	123.39006802721089	60	127
123.39006802721089	123.45972789115646	45	127
123.39006802721089	123.45972789115646	57	127
123.45972789115646	123.52938775510204	58	127
123.45972789115646	123.52938775510204	46	127
123.5409977324263	124.1098866213152	63	127
123.5409977324263	124.1098866213152	51	127
124.17954648526077	124.78326530612244	67	127
124.17954648526077	124.78326530612244	55	127
124.87614512471656	124.94580498866213	43	127
124.87614512471656	124.94580498866213	55	127
125.09673469387755	125.18961451247165	59	127
125.09673469387755	125.18961451247165	47	127
125.4566439909297	125.64240362811792	61	127
125.4566439909297	125.64240362811792	49	127
125.64240362811792	125.73528344671202	60	127
125.64240362811792	125.73528344671202	48	127
125.73528344671202	125.80494331065759	49	127
125.73528344671202	125.80494331065759	61	127
125.80494331065759	125.86299319727891	48	127
125.80494331065759	125.86299319727891	60	127
125.86299319727891	125.92104308390023	61	127
125.86299319727891	125.92104308390023	49	127
125.92104308390023	125.96748299319728	58	127
125.92104308390023	125.96748299319728	46	127
125.96748299319728	126.06036281179138	48	127
125.96748299319728	126.06036281179138	60	127
126.06036281179138	126.64086167800454	61	127
126.06036281179138	126.64086167800454	49	127
126.72213151927437	127.26780045351474	65	127
126.72213151927437	127.26780045351474	53	127
127.33746031746031	127.41873015873016	68	127
127.33746031746031	127.41873015873016	44	127
127.66253968253969	127.74380952380952	72	127
127.66253968253969	127.74380952380952	48	127
128.01083900226757	128.08049886621316	73	127
128.01083900226757	128.08049886621316	49	127
128.2894784580499	128.35913832199546	51	127
128.2894784580499	128.35913832199546	75	127
128.59133786848074	128.68421768707483	53	127
128.59133786848074	128.68421768707483	77	127
128.9628344671202	129.00927437641724	55	127
128.9628344671202	129.00927437641724	79	127
129.2298866213152	129.29954648526078	80	127
129.2298866213152	129.29954648526078	56	127
129.49691609977324	129.6014058956916	82	127
129.49691609977324	129.6014058956916	58	127
129.7755328798186	130.41410430839002	60	127
129.7755328798186	130.41410430839002	84	127
130.50698412698412	131.00619047619048	85	127
130.50698412698412	130.65791383219954	45	127
130.50698412698412	131.02943310657596	52	127
130.58825396825398	131.02943310657596	57	127
131.07587301587301	131.26160997732427	45	127
131.07587301587301	131.6795918367347	88	127
131.07587301587301	131.7144217687075	52	127
131.1687528344671	131.7144217687075	61	127
131.78408163265306	132.31814058956917	89	127
131.78408163265306	132.45746031746032	41	127
132.31814058956917	132.3761904761905	87	127
132.3761904761905	132.44585034013605	86	127
132.44585034013605	132.45746031746032	84	127
132.45746031746032	132.58517006802722	46	127
132.45746031746032	132.58517006802722	82	127
132.63160997732427	132.7128798185941	62	127
132.63160997732427	132.8057596371882	70	127
132.63160997732427	132.8057596371882	58	127
132.66643990929705	132.8057596371882	79	127
132.9450566893424	133.08439909297053	69	127
132.9450566893424	133.00312925170067	60	127
132.9450566893424	133.08439909297053	60	127
132.97990929705216	133.08439909297053	77	127
133.27015873015873	133.44430839002268	48	127
133.27015873015873	133.44430839002268	67	127
133.27015873015873	133.35142857142858	60	127
133.31659863945578	133.44430839002268	76	127
133.6184580498866	134.2802267573696	60	127
133.6184580498866	134.2802267573696	84	127
134.37310657596373	134.52403628117915	45	127
134.37310657596373	134.95360544217687	85	127
134.37310657596373	134.98843537414967	52	127
134.4427664399093	134.98843537414967	57	127
135.05809523809523	135.26707482993197	45	127
135.05809523809523	135.4180045351474	88	127
135.05809523809523	135.4180045351474	52	127
135.1625850340136	135.4180045351474	61	127
135.4760544217687	135.99850340136055	89	127
135.4760544217687	136.17265306122448	41	127
135.99850340136055	136.05655328798187	87	127
136.05655328798187	136.11458049886622	86	127
136.11458049886622	136.16104308390024	84	127
136.17265306122448	136.33519274376417	46	127
136.17265306122448	136.33519274376417	82	127
136.5209523809524	136.57897959183674	62	127
136.5209523809524	136.66027210884354	70	127
136.5209523809524	136.66027210884354	58	127
136.56739229024944	136.66027210884354	79	127
136.81120181405896	136.93891156462584	60	127
136.81120181405896	136.8924716553288	60	127
136.81120181405896	136.93891156462584	69	127
136.84603174603174	136.93891156462584	77	127
137.05501133786848	137.2059410430839	48	127
137.05501133786848	137.2059410430839	67	127
137.05501133786848	137.12467120181407	60	127
137.08981859410432	137.2059410430839	76	127
137.35687074829931	137.4497505668934	60	127
137.35687074829931	137.519410430839	69	127
137.35687074829931	137.519410430839	53	127
137.40331065759636	137.519410430839	77	127
137.63551020408164	137.7515873015873	84	127
137.63551020408164	137.7515873015873	60	127
137.7515873015873	137.93736961451248	84	127
137.7515873015873	137.93736961451248	60	127
137.94897959183675	138.22761904761904	84	127
137.94897959183675	138.22761904761904	60	127
138.2740589569161	138.401768707483	84	127
138.2740589569161	138.401768707483	60	127
138.401768707483	138.5643083900227	84	127
138.401768707483	138.5643083900227	60	127
138.5643083900227	138.81972789115648	60	127
138.5643083900227	138.81972789115648	84	127
138.84294784580499	138.9009977324263	84	127
138.84294784580499	138.9009977324263	60	127
138.91260770975057	139.0867573696145	84	127
138.91260770975057	139.0867573696145	60	127
139.09836734693877	139.2492970521542	84	127
139.09836734693877	139.2492970521542	60	127
139.29573696145124	139.48149659863947	62	127
139.29573696145124	139.48149659863947	86	127
139.48149659863947	139.64401360544218	88	127
139.48149659863947	139.64401360544218	64	127
139.64401360544218	139.7833560090703	89	127
139.64401360544218	139.7833560090703	65	127
139.9691156462585	140.07360544217687	72	127
140.08521541950114	140.25934240362812	72	127
140.25934240362812	140.5031746031746	72	127
140.54961451247166	140.67732426303854	72	127
140.67732426303854	140.8514739229025	72	127
140.8514739229025	141.1068934240363	72	127
141.1649433106576	141.30426303854875	72	127
141.30426303854875	141.46680272108844	72	127
141.46680272108844	141.68736961451248	72	127
141.6990022675737	141.81510204081633	74	127
141.81510204081633	141.97764172335602	76	127
141.98925170068028	142.24467120181407	60	127
141.98925170068028	142.24467120181407	77	127
142.30269841269842	142.43043083900227	62	127
142.43043083900227	142.5581179138322	64	127
142.5581179138322	142.83678004535147	72	127
142.5581179138322	142.83678004535147	65	127
142.87160997732425	142.99931972789116	74	127
142.99931972789116	143.1386394557823	76	127
143.1386394557823	143.40566893424037	60	127
143.1386394557823	143.40566893424037	77	127
143.4637188208617	143.57979591836735	62	127
143.57979591836735	143.71913832199547	64	127
143.73072562358277	143.98614512471656	72	127
143.73072562358277	143.98614512471656	65	127
144.04421768707482	144.13709750566895	74	127
144.13709750566895	144.33446712018142	76	127
144.33446712018142	144.5898866213152	60	127
144.33446712018142	144.5898866213152	77	127
144.63632653061225	144.70596371882087	62	127
144.71759637188208	144.89174603174604	64	127
144.9033560090703	145.14716553287982	65	127
144.9033560090703	145.14716553287982	72	127
145.20521541950114	145.35614512471656	74	127
145.35614512471656	145.50707482993198	76	127
145.50707482993198	145.73927437641723	60	127
145.50707482993198	145.73927437641723	77	127
145.77410430839004	145.89020408163265	62	127
145.90181405895692	146.05274376417233	64	127
146.05274376417233	146.30816326530612	65	127
146.05274376417233	146.30816326530612	72	127
146.35460317460317	146.5055328798186	74	127
146.5055328798186	146.69129251700681	76	127
146.70290249433106	146.99315192743765	77	127
147.0628117913832	147.24857142857144	77	127
147.24857142857144	147.42272108843537	77	127
147.42272108843537	147.74780045351474	77	127
147.80585034013606	147.9451700680272	77	127
148.00321995464853	148.18897959183673	77	127
148.18897959183673	148.37473922902495	77	127
148.38632653061225	148.63015873015874	77	127
148.6998185941043	148.88557823129253	77	127
148.89716553287982	149.082947845805	77	127
149.09455782312926	149.59378684807257	53	127
149.09455782312926	149.59378684807257	77	127
149.68666666666667	150.09301587301587	57	127
149.68666666666667	150.09301587301587	81	127
150.18589569160997	150.25555555555556	69	127
150.18589569160997	150.25555555555556	45	127
150.52258503401362	150.62707482993198	47	127
150.52258503401362	150.62707482993198	71	127
150.83603174603175	150.89410430839	72	127
150.83603174603175	150.89410430839	48	127
150.89410430839	150.98698412698414	74	127
150.89410430839	150.98698412698414	50	127
150.98698412698414	151.0450113378685	72	127
150.98698412698414	151.0450113378685	48	127
151.0450113378685	151.1263038548753	50	127
151.0450113378685	151.1263038548753	74	127
151.1263038548753	151.2191836734694	72	127
151.1263038548753	151.2191836734694	48	127
151.2191836734694	151.3120634920635	74	127
151.2191836734694	151.3120634920635	50	127
151.3120634920635	151.34687074829932	47	127
151.3120634920635	151.34687074829932	71	127
151.34687074829932	151.4049433106576	48	127
151.34687074829932	151.4049433106576	72	127
151.4049433106576	151.69519274376418	77	127
151.4049433106576	151.69519274376418	53	127
151.7532426303855	151.98544217687075	77	127
151.98544217687075	152.17120181405895	77	127
152.18281179138322	152.49628117913832	77	127
152.55433106575964	152.70526077097506	77	127
152.70526077097506	152.71687074829933	77	127
152.77492063492065	152.97229024943312	77	127
152.97229024943312	153.1348299319728	77	127
153.1348299319728	153.47151927437642	77	127
153.541179138322	153.69210884353743	77	127
153.69210884353743	153.8894784580499	77	127
153.8894784580499	154.42353741496598	77	127
153.8894784580499	154.42353741496598	53	127
154.51639455782313	154.864716553288	81	127
154.51639455782313	154.864716553288	57	127
154.94598639455782	155.0156462585034	69	127
154.94598639455782	155.0156462585034	45	127
155.28267573696147	155.37555555555556	46	127
155.28267573696147	155.37555555555556	70	127
155.61936507936508	155.79351473922904	73	127
155.61936507936508	155.79351473922904	49	127
155.79351473922904	155.8631746031746	72	127
155.79351473922904	155.8631746031746	48	127
155.8631746031746	155.94444444444446	49	127
155.8631746031746	155.94444444444446	73	127
155.94444444444446	156.04893424036283	48	127
155.94444444444446	156.04893424036283	72	127
156.04893424036283	156.13020408163266	73	127
156.04893424036283	156.13020408163266	49	127
156.13020408163266	156.1766439909297	70	127
156.13020408163266	156.1766439909297	46	127
156.1766439909297	156.2578911564626	72	127
156.1766439909297	156.2463038548753	48	127
156.2578911564626	156.50172335600908	73	127
156.2578911564626	156.50172335600908	49	127
156.5597732426304	156.7455328798186	77	127
156.7455328798186	156.91965986394558	77	127
156.91965986394558	157.1518820861678	77	127
157.16349206349207	157.34925170068027	77	127
157.34925170068027	157.44213151927437	77	127
157.44213151927437	157.5001814058957	77	127
157.56984126984128	157.75560090702947	77	127
157.75560090702947	157.95297052154194	77	127
157.95297052154194	158.17356009070295	77	127
158.23160997732427	158.42897959183674	77	127
158.440589569161	158.61473922902493	77	127
158.6263492063492	159.1255782312925	61	127
158.6263492063492	158.8469387755102	77	127
158.89337868480726	158.9398185941043	77	127
159.0326984126984	159.09074829931973	77	127
159.1719954648526	159.45065759637188	80	127
159.1719954648526	159.764126984127	65	127
159.5087074829932	159.56675736961452	80	127
159.6828344671202	159.7292970521542	80	127
159.84539682539682	159.9150566893424	85	127
159.84539682539682	159.9150566893424	53	127
159.97310657596373	159.99632653061224	87	127
159.97310657596373	159.99632653061224	56	127
160.24013605442178	160.54199546485262	89	127
160.24013605442178	160.7974149659864	61	127
160.60002267573697	160.65809523809523	89	127
160.7393650793651	160.77419501133787	89	127
160.8902947845805	161.15732426303856	85	127
160.8902947845805	161.44757369614513	65	127
161.2153514739229	161.26181405895693	85	127
161.37791383219954	161.4243537414966	85	127
161.4824036281179	161.5520634920635	53	127
161.4824036281179	161.52884353741496	80	127
161.6449433106576	161.66816326530613	82	127
161.76104308390023	161.81909297052155	78	127
161.76104308390023	161.85392290249433	56	127
161.93519274376416	161.99324263038548	80	127
162.10934240362812	162.3995918367347	77	127
162.10934240362812	162.70142857142858	61	127
162.457641723356	162.51569160997732	77	127
162.6201814058957	162.66662131519274	77	127
162.78272108843538	163.07297052154195	80	127
162.78272108843538	163.4096598639456	65	127
163.13102040816327	163.18907029478459	80	127
163.31678004535146	163.37482993197278	80	127
163.5025396825397	163.5954195011338	85	127
163.5025396825397	163.5954195011338	53	127
163.82761904761904	163.85083900226758	56	127
163.82761904761904	163.85083900226758	87	127
163.96693877551022	164.25718820861678	89	127
163.96693877551022	164.5706575963719	61	127
164.3152380952381	164.37328798185942	89	127
164.4893650793651	164.54743764172335	89	127
164.6402947845805	164.93056689342404	85	127
164.6402947845805	165.25562358276645	65	127
164.98861678004536	165.0466439909297	85	127
165.1627664399093	165.2208163265306	85	127
165.34852607709752	165.40655328798186	80	127
165.34852607709752	165.40655328798186	53	127
165.4762358276644	165.53428571428572	82	127
165.67360544217686	165.68521541950113	80	127
165.77809523809523	166.39342403628117	61	127
165.77809523809523	166.06834467120183	77	127
166.12639455782312	166.18444444444444	77	127
166.30054421768708	166.3585941043084	77	127
166.47469387755103	166.74172335600906	80	127
166.47469387755103	167.04356009070295	65	127
166.79977324263038	166.8578231292517	80	127
166.96231292517007	167.0203628117914	80	127
167.13646258503402	167.18290249433107	53	127
167.13646258503402	167.18290249433107	85	127
167.3338321995465	167.4267120181406	89	127
167.3338321995465	167.4267120181406	56	127
167.6588888888889	168.00721088435375	54	127
167.6588888888889	167.94916099773243	92	127
168.00721088435375	168.29746031746032	63	127
168.00721088435375	168.04204081632653	80	127
168.13492063492063	168.19297052154195	80	127
168.29746031746032	168.5528798185941	60	127
168.29746031746032	168.3322902494331	80	127
168.44839002267574	168.4948299319728	82	127
168.5877097505669	168.6457596371882	82	127
168.5877097505669	168.68056689342404	56	127
168.75024943310657	168.8082993197279	84	127
168.901179138322	168.9940589569161	58	127
168.901179138322	168.9592290249433	84	127
169.06371882086168	169.121768707483	85	127
169.2146485260771	169.23786848072564	60	127
169.33074829931974	169.3771882086168	87	127
169.49328798185942	169.72548752834467	89	127
169.49328798185942	170.0273469387755	61	127
169.77192743764172	169.82997732426304	77	127
169.94607709750568	170.004126984127	77	127
170.0970068027211	170.3756462585034	80	127
170.0970068027211	170.66589569161	65	127
170.4336961451247	170.49174603174603	80	127
170.58462585034013	170.64267573696145	80	127
170.7587755102041	170.8168253968254	85	127
170.7587755102041	170.8168253968254	53	127
170.9097052154195	171.0025850340136	56	127
170.9097052154195	171.0025850340136	89	127
171.2347619047619	171.5018140589569	92	127
171.2347619047619	171.55986394557823	54	127
171.55986394557823	171.8849433106576	63	127
171.55986394557823	171.62952380952382	80	127
171.7340136054422	171.78045351473924	80	127
171.8849433106576	171.94299319727892	60	127
171.8849433106576	171.94299319727892	80	127
171.98943310657597	172.01265306122448	82	127
171.98943310657597	172.01265306122448	56	127
172.01265306122448	172.02426303854875	84	127
172.11714285714285	172.17519274376417	84	127
172.11714285714285	172.21002267573695	58	127
172.2912925170068	172.34934240362813	85	127
172.477052154195	172.55832199546487	60	127
172.477052154195	172.53510204081633	85	127
172.6163492063492	172.67442176870748	87	127
172.7905215419501	173.40585034013606	85	127
172.7905215419501	174.0908390022676	61	127
173.49873015873015	174.0908390022676	89	127
174.18371882086169	175.12412698412697	65	127
174.18371882086169	174.27659863945578	77	127
174.53201814058957	174.62489795918367	80	127
174.84548752834468	175.39115646258503	84	127
175.12412698412697	175.41437641723357	63	127
175.48403628117913	175.98326530612246	87	127
175.48403628117913	176.27351473922903	60	127
176.0412925170068	176.13419501133788	75	127
176.33156462585035	176.41283446712018	80	127
176.33156462585035	176.9584807256236	63	127
176.64503401360545	177.0397732426304	82	127
176.9584807256236	177.07460317460317	61	127
177.1326530612245	177.6899319727891	85	127
177.1326530612245	178.00340136054422	58	127
177.77120181405897	177.86408163265307	73	127
178.0846485260771	178.15433106575964	78	127
178.0846485260771	178.67678004535148	61	127
178.40975056689342	178.90897959183673	80	127
178.72321995464853	178.78126984126985	53	127
178.83931972789117	178.88575963718822	53	127
179.00183673469388	179.05990929705214	56	127
179.00183673469388	179.44303854875284	85	127
179.21081632653062	179.25725623582767	56	127
179.37337868480725	179.4198185941043	56	127
179.52430839002267	179.60557823129253	77	127
179.52430839002267	179.60557823129253	61	127
179.83777777777777	179.91904761904763	65	127
179.83777777777777	179.91904761904763	80	127
180.10480725623583	180.36022675736962	68	127
180.10480725623583	180.41827664399094	78	127
180.41827664399094	180.47632653061225	56	127
180.41827664399094	180.685306122449	87	127
180.58081632653062	180.63884353741497	56	127
180.685306122449	180.98716553287983	84	127
180.685306122449	180.74333333333334	56	127
180.8710657596372	180.9291156462585	58	127
181.04521541950115	181.1032426303855	58	127
181.04521541950115	181.12648526077098	80	127
181.16131519274376	181.2077551020408	60	127
181.32385487528344	181.3702947845805	60	127
181.32385487528344	181.40510204081633	82	127
181.48639455782313	181.5095918367347	61	127
181.56766439909296	181.62571428571428	61	127
181.56766439909296	181.63732426303855	84	127
181.71859410430838	181.7534240362812	63	127
181.8114739229025	182.10172335600907	65	127
181.8114739229025	182.42678004535148	85	127
182.1597732426304	182.2178231292517	53	127
182.3455328798186	182.4035827664399	53	127
182.46163265306123	182.93764172335602	89	127
182.46163265306123	182.68219954648526	56	127
182.7286621315193	182.78668934240363	56	127
182.891179138322	182.93764172335602	56	127
183.01891156462585	183.0653514739229	77	127
183.01891156462585	183.0653514739229	61	127
183.26272108843537	183.35560090702947	65	127
183.26272108843537	183.35560090702947	80	127
183.5413605442177	183.84321995464853	68	127
183.5413605442177	183.88965986394558	78	127
183.88965986394558	184.16827664399094	87	127
183.88965986394558	183.93609977324263	56	127
184.040589569161	184.06378684807257	56	127
184.16827664399094	184.21473922902496	56	127
184.16827664399094	184.4469387755102	84	127
184.33083900226757	184.38888888888889	58	127
184.48176870748298	184.50498866213152	58	127
184.48176870748298	184.5165986394558	80	127
184.58625850340135	184.64430839002267	60	127
184.7604081632653	184.8532879818594	82	127
184.7604081632653	184.81845804988663	60	127
184.89972789115646	184.95777777777778	61	127
185.00421768707483	185.29444444444445	65	127
185.00421768707483	185.6079365079365	85	127
185.3408843537415	185.39895691609976	65	127
185.5150566893424	185.57310657596372	65	127
185.70079365079366	186.24648526077098	89	127
185.70079365079366	186.0142857142857	61	127
186.07233560090702	186.13038548752834	61	127
186.15360544217688	186.21163265306123	61	127
186.33936507936508	186.44385487528345	56	127
186.33936507936508	186.47868480725623	77	127
186.5831746031746	186.64122448979592	58	127
186.75732426303856	186.83859410430838	80	127
186.75732426303856	186.81537414965987	54	127
186.93145124716554	186.9778911564626	56	127
187.10562358276644	187.61646258503401	53	127
187.10562358276644	187.395873015873	85	127
187.4422902494331	187.5584126984127	80	127
187.5584126984127	187.6977097505669	80	127
187.6977097505669	188.15052154195013	56	127
187.6977097505669	187.97637188208617	77	127
188.02281179138322	188.1273015873016	77	127
188.1273015873016	188.2201814058957	77	127
188.23179138321996	188.3594784580499	72	127
188.23179138321996	188.45238095238096	44	127
188.3594784580499	188.5104081632653	73	127
188.5104081632653	188.6613605442177	70	127
188.5104081632653	188.7774603174603	48	127
188.6613605442177	188.82390022675736	72	127
188.8471201814059	189.07931972789115	68	127
188.8471201814059	189.07931972789115	53	127
190.03133786848073	190.12421768707483	63	127
190.03133786848073	190.21709750566893	44	127
190.03133786848073	190.18226757369615	72	127
190.11260770975056	190.18226757369615	80	127
190.26353741496598	190.49573696145126	70	127
190.26353741496598	190.42607709750567	63	127
190.26353741496598	190.53056689342404	39	127
190.34480725623584	190.49573696145126	79	127
190.56539682539682	190.704716553288	63	127
190.56539682539682	190.7975963718821	44	127
190.56539682539682	190.8556462585034	72	127
190.62344671201814	190.8556462585034	80	127
191.71478458049887	191.81927437641724	67	127
191.71478458049887	191.90054421768707	75	127
191.71478458049887	191.93537414965985	48	127
191.78444444444443	191.90054421768707	84	127
191.98181405895693	192.23723356009071	74	127
191.98181405895693	192.2720634920635	43	127
191.98181405895693	192.15596371882086	67	127
192.07469387755103	192.23723356009071	83	127
192.3301133786848	192.88739229024944	48	127
192.3301133786848	192.91061224489795	75	127
192.3301133786848	192.6784126984127	67	127
192.515873015873	192.91061224489795	84	127
192.96866213151927	193.42145124716552	51	127
192.96866213151927	193.42145124716552	87	127
193.4911111111111	193.75814058956917	79	127
193.4911111111111	193.75814058956917	43	127
193.79297052154195	194.04839002267573	83	127
193.79297052154195	194.04839002267573	47	127
194.10643990929705	194.67532879818594	48	127
194.10643990929705	194.67532879818594	84	127
194.75659863945577	195.1977777777778	51	127
194.75659863945577	195.1977777777778	87	127
195.27904761904762	195.55768707482994	79	127
195.27904761904762	195.55768707482994	43	127
195.59251700680272	195.8479365079365	83	127
195.59251700680272	195.8479365079365	47	127
195.90598639455783	196.21945578231293	48	127
195.90598639455783	196.21945578231293	84	127
196.26589569160998	196.4168253968254	55	127
196.26589569160998	196.4168253968254	79	127
196.42843537414967	196.6025850340136	79	127
196.42843537414967	196.6025850340136	55	127
196.6025850340136	196.83478458049888	51	127
196.6025850340136	196.83478458049888	75	127
196.8580045351474	196.9508843537415	48	127
196.8580045351474	196.9508843537415	72	127
196.96249433106576	197.05537414965985	72	127
196.96249433106576	197.05537414965985	48	127
197.05537414965985	197.1018140589569	70	127
197.05537414965985	197.1018140589569	46	127
197.1018140589569	197.24113378684808	72	127
197.1018140589569	197.24113378684808	48	127
197.24113378684808	197.42689342403628	44	127
197.24113378684808	197.42689342403628	68	127
197.42689342403628	197.62426303854875	46	127
197.42689342403628	197.62426303854875	70	127
197.63587301587302	197.92612244897958	43	127
197.63587301587302	197.92612244897958	67	127
197.97256235827663	198.1118820861678	55	127
198.1118820861678	198.28603174603174	55	127
198.28603174603174	198.5530612244898	59	127
198.62272108843538	198.78526077097504	59	127
198.78526077097504	198.84331065759636	59	127
198.84331065759636	198.8665306122449	62	127
198.8665306122449	199.00585034013605	64	127
199.00585034013605	199.11034013605442	60	127
199.1219501133787	199.29609977324262	62	127
199.29609977324262	199.48185941043084	59	127
199.29609977324262	199.48185941043084	79	127
199.53990929705216	199.69083900226758	79	127
199.70244897959185	199.87659863945578	79	127
199.88820861678005	200.1204081632653	74	127
200.14362811791383	200.28294784580498	74	127
200.28294784580498	200.45709750566894	74	127
200.4687074829932	200.5964172335601	71	127
200.60802721088436	200.75895691609978	72	127
200.75895691609978	200.88666666666666	69	127
200.88666666666666	201.0608163265306	71	127
201.0608163265306	201.25818594104308	67	127
201.0608163265306	201.25818594104308	55	127
201.3162358276644	201.4787755102041	55	127
201.4787755102041	201.59487528344673	55	127
201.59487528344673	201.80385487528343	59	127
201.8502947845805	202.00122448979593	59	127
202.01283446712017	202.18698412698413	59	127
202.18698412698413	202.32630385487528	62	127
202.32630385487528	202.41918367346938	64	127
202.41918367346938	202.58172335600906	60	127
202.59333333333333	202.7210430839002	62	127
202.73265306122448	202.976462585034	79	127
202.73265306122448	202.976462585034	59	127
203.03451247165532	203.197052154195	79	127
203.197052154195	203.3595918367347	79	127
203.3595918367347	203.6034013605442	74	127
203.62662131519275	203.75433106575963	74	127
203.75433106575963	203.9284807256236	74	127
203.9284807256236	204.04458049886622	71	127
204.05619047619047	204.21873015873015	72	127
204.23034013605442	204.31160997732425	69	127
204.31160997732425	204.4857596371882	71	127
204.4857596371882	204.76439909297054	67	127
204.78761904761905	204.90371882086168	50	127
204.78761904761905	204.90371882086168	78	127
204.78761904761905	204.90371882086168	69	127
204.91532879818595	205.0778684807256	78	127
204.91532879818595	205.0778684807256	69	127
204.91532879818595	205.0778684807256	50	127
205.0778684807256	205.29845804988662	79	127
205.0778684807256	205.29845804988662	71	127
205.0778684807256	205.29845804988662	55	127
205.34489795918367	205.48421768707482	50	127
205.34489795918367	205.48421768707482	69	127
205.34489795918367	205.48421768707482	78	127
205.4958276643991	205.63514739229024	78	127
205.4958276643991	205.63514739229024	69	127
205.4958276643991	205.63514739229024	50	127
205.6467573696145	205.83251700680273	55	127
205.6467573696145	205.83251700680273	71	127
205.6467573696145	205.83251700680273	79	127
205.87895691609978	206.01827664399093	78	127
205.87895691609978	206.01827664399093	50	127
205.87895691609978	206.01827664399093	69	127
206.01827664399093	206.16920634920635	69	127
206.01827664399093	206.16920634920635	50	127
206.01827664399093	206.16920634920635	78	127
206.18081632653062	206.4014058956916	55	127
206.18081632653062	206.33174603174604	79	127
206.18081632653062	206.33174603174604	71	127
206.33174603174604	206.35496598639455	74	127
206.44784580498867	206.48267573696145	76	127
206.5987755102041	206.65682539682538	78	127
206.76131519274375	207.06317460317462	79	127
207.1212244897959	207.27215419501132	79	127
207.27215419501132	207.434693877551	79	127
207.434693877551	207.73655328798185	79	127
207.79460317460317	207.92231292517008	79	127
207.93392290249434	208.10807256235827	79	127
208.10807256235827	208.17773242630386	79	127
208.17773242630386	208.27061224489796	79	127
208.27061224489796	208.5724716553288	79	127
208.63052154195012	208.7001814058957	79	127
208.7001814058957	208.83950113378685	79	127
208.83950113378685	209.1065306122449	79	127
209.1645804988662	209.35034013605443	79	127
209.35034013605443	209.53609977324263	79	127
209.53609977324263	209.74507936507936	79	127
209.80312925170068	209.93083900226756	80	127
209.94244897959183	210.1165986394558	81	127
210.12820861678006	210.4300680272109	82	127
210.49972789115645	210.5461678004535	82	127
210.5461678004535	210.6158276643991	82	127
210.6158276643991	210.88285714285715	82	127
210.9525170068027	211.1150566893424	82	127
211.1150566893424	211.28920634920635	82	127
211.30081632653062	211.50979591836736	82	127
211.56784580498865	211.71877551020407	82	127
211.71877551020407	211.89292517006803	82	127
211.9045351473923	212.1831746031746	82	127
212.2412244897959	212.4037641723356	82	127
212.4037641723356	212.57791383219956	82	127
212.57791383219956	212.86816326530612	82	127
212.92621315192744	213.07714285714286	82	127
213.07714285714286	213.2512925170068	82	127
213.2512925170068	213.46027210884353	70	127
213.48349206349206	213.63442176870748	72	127
213.63442176870748	213.79696145124717	74	127
213.79696145124717	214.05238095238096	75	127
214.11043083900228	214.2845804988662	75	127
214.29619047619047	214.45873015873016	75	127
214.45873015873016	214.51678004535148	74	127
214.79541950113378	214.84185941043083	75	127
215.12049886621315	215.43396825396826	76	127
215.43396825396826	215.58489795918368	77	127
215.7590476190476	215.99124716553288	75	127
215.99124716553288	216.0725170068027	75	127
216.0725170068027	216.31632653061226	77	127
216.31632653061226	216.3975963718821	77	127
216.3975963718821	216.7110657596372	80	127
216.7110657596372	216.87360544217688	79	127
217.0477551020408	217.09419501133786	80	127
217.2102947845805	217.26834467120182	82	127
217.37283446712019	217.41927437641723	84	127
217.53537414965987	217.58181405895692	80	127
217.6863038548753	218.23197278911564	77	127
218.31324263038547	218.60349206349207	70	127
218.6615419501134	218.8124716553288	72	127
218.8124716553288	218.98662131519274	74	127
218.98662131519274	219.26526077097506	75	127
219.32331065759638	219.4974603174603	75	127
219.4974603174603	219.66	75	127
219.66	219.71804988662132	74	127
219.9734693877551	220.03151927437642	75	127
220.33337868480726	220.6352380952381	79	127
220.6352380952381	220.7861678004535	77	127
220.96031746031747	221.19251700680272	79	127
221.204126984127	221.28539682539682	79	127
221.28539682539682	221.48276643990928	80	127
221.48276643990928	221.55242630385487	80	127
221.56403628117914	221.88911564625852	84	127
221.88911564625852	222.05165532879818	82	127
222.21419501133786	222.56249433106575	87	127
222.56249433106575	222.7366439909297	81	127
222.8991836734694	223.22426303854874	82	127
223.22426303854874	223.38680272108843	70	127
223.5609523809524	223.8744217687075	63	127
223.8744217687075	224.04857142857142	57	127
224.2111111111111	224.51297052154194	58	127
224.51297052154194	224.66390022675736	67	127
224.83804988662132	224.88448979591837	77	127
225.0354195011338	225.10507936507938	79	127
225.221179138322	225.2792290249433	80	127
225.38371882086167	225.41854875283445	77	127
225.5346485260771	226.11514739229025	82	127
226.20802721088435	226.26607709750567	65	127
226.3821768707483	226.4402267573696	67	127
226.54471655328797	226.59115646258505	68	127
226.70725623582766	226.7536961451247	65	127
226.85818594104308	227.18326530612245	69	127
227.18326530612245	227.34580498866214	70	127
227.49673469387756	227.74054421768707	70	127
227.49673469387756	227.74054421768707	58	127
227.74054421768707	227.83342403628117	70	127
227.74054421768707	227.83342403628117	58	127
227.83342403628117	228.06562358276645	69	127
227.83342403628117	228.06562358276645	57	127
228.0772335600907	228.14689342403628	69	127
228.0772335600907	228.14689342403628	57	127
228.15850340136055	228.40231292517007	58	127
228.15850340136055	228.40231292517007	70	127
228.40231292517007	228.47197278911565	70	127
228.40231292517007	228.47197278911565	58	127
228.47197278911565	228.69256235827663	63	127
228.47197278911565	228.69256235827663	75	127
228.69256235827663	228.76222222222222	75	127
228.69256235827663	228.76222222222222	63	127
228.76222222222222	229.00603174603174	77	127
228.76222222222222	229.00603174603174	65	127
229.017641723356	229.09891156462584	77	127
229.017641723356	229.09891156462584	65	127
229.09891156462584	229.30789115646257	65	127
229.09891156462584	229.30789115646257	77	127
229.30789115646257	229.38916099773243	67	127
229.30789115646257	229.38916099773243	79	127
229.4007709750567	229.66780045351473	63	127
229.4007709750567	229.44721088435375	75	127
229.55170068027212	229.71424036281178	70	127
229.71424036281178	229.88839002267574	67	127
229.88839002267574	230.05092970521542	63	127
230.05092970521542	230.25990929705216	62	127
230.05092970521542	230.38761904761904	46	127
230.25990929705216	230.44566893424036	65	127
230.44566893424036	230.61981859410432	70	127
230.61981859410432	230.7475283446712	65	127
230.7475283446712	230.91006802721088	65	127
230.7475283446712	231.01455782312925	49	127
230.91006802721088	231.07260770975057	67	127
231.07260770975057	231.2467573696145	69	127
231.2467573696145	231.39768707482995	70	127
231.39768707482995	231.54861678004536	48	127
231.39768707482995	231.54861678004536	68	127
231.54861678004536	231.73437641723356	72	127
231.73437641723356	231.88530612244898	70	127
231.73437641723356	231.88530612244898	48	127
231.88530612244898	232.04784580498867	72	127
232.04784580498867	232.31487528344672	53	127
232.04784580498867	232.2219954648526	68	127
232.2219954648526	232.37292517006802	72	127
232.37292517006802	232.5354648526077	68	127
232.5354648526077	232.6980045351474	65	127
232.70961451247166	232.87215419501135	67	127
232.70961451247166	232.87215419501135	60	127
232.87215419501135	233.08113378684808	75	127
233.08113378684808	233.26689342403628	74	127
233.08113378684808	233.24367346938774	58	127
233.26689342403628	233.44104308390024	68	127
233.44104308390024	233.59197278911566	67	127
233.44104308390024	233.70807256235827	51	127
233.59197278911566	233.7661224489796	75	127
233.7661224489796	233.90544217687074	70	127
233.90544217687074	234.06798185941042	67	127
234.0795918367347	234.33501133786848	53	127
234.0795918367347	234.24213151927438	63	127
234.24213151927438	234.3930612244898	72	127
234.3930612244898	234.53238095238095	69	127
234.53238095238095	234.68331065759637	63	127
234.68331065759637	234.9619501133787	46	127
234.68331065759637	234.84585034013605	62	127
234.84585034013605	235.02	65	127
235.02	235.19414965986394	70	127
235.19414965986394	235.40312925170068	72	127
235.40312925170068	235.69337868480724	46	127
235.40312925170068	235.5888888888889	73	127
235.5888888888889	235.75142857142856	77	127
235.75142857142856	235.91396825396825	73	127
235.91396825396825	236.0881179138322	70	127
236.0881179138322	236.3667573696145	49	127
236.0881179138322	236.2506575963719	65	127
236.2506575963719	236.42480725623582	67	127
236.42480725623582	236.57573696145124	69	127
236.57573696145124	236.7498866213152	70	127
236.7498866213152	236.94725623582767	68	127
236.7498866213152	237.04013605442177	48	127
236.94725623582767	237.09818594104308	72	127
237.09818594104308	237.27233560090704	70	127
237.09818594104308	237.1562358276644	50	127
237.27233560090704	237.42326530612246	72	127
237.27233560090704	237.33038548752833	52	127
237.4348752834467	237.58580498866212	68	127
237.4348752834467	237.67868480725625	53	127
237.58580498866212	237.7251247165533	72	127
237.7251247165533	237.8760544217687	68	127
237.7251247165533	237.77156462585035	53	127
237.8760544217687	238.02698412698413	65	127
237.8760544217687	237.92249433106576	53	127
238.02698412698413	238.30562358276643	79	127
238.02698412698413	238.18952380952382	51	127
238.36367346938775	238.52621315192744	50	127
238.36367346938775	238.42172335600907	81	127
238.52621315192744	238.58426303854876	83	127
238.68875283446712	239.02544217687074	51	127
238.68875283446712	238.96739229024942	84	127
239.02544217687074	239.1995918367347	48	127
239.02544217687074	239.09510204081633	84	127
239.21120181405897	239.25764172335602	84	127
239.37374149659863	239.50145124716553	82	127
239.37374149659863	239.50145124716553	55	127
239.65238095238095	239.81492063492064	69	127
239.65238095238095	239.81492063492064	62	127
239.65238095238095	239.81492063492064	81	127
239.9542403628118	240.14	82	127
239.9542403628118	240.14	70	127
239.9542403628118	240.14	62	127
240.31414965986394	240.4882993197279	69	127
240.31414965986394	240.4882993197279	62	127
240.31414965986394	240.4882993197279	81	127
240.66244897959183	240.82498866213152	79	127
240.66244897959183	240.82498866213152	58	127
240.66244897959183	240.82498866213152	67	127
240.97591836734694	241.13845804988662	74	127
240.97591836734694	241.13845804988662	57	127
241.242947845805	241.38226757369614	55	127
241.242947845805	241.38226757369614	70	127
241.56802721088437	241.73056689342403	69	127
241.56802721088437	241.73056689342403	62	127
241.90471655328798	242.0556462585034	67	127
241.90471655328798	242.0556462585034	58	127
242.20657596371882	242.3691156462585	69	127
242.20657596371882	242.3691156462585	62	127
242.5316553287982	242.6825850340136	58	127
242.5316553287982	242.6825850340136	67	127
242.85673469387754	243.00766439909296	69	127
242.85673469387754	243.00766439909296	62	127
243.17020408163265	243.22825396825397	55	127
243.17020408163265	243.22825396825397	67	127
243.3443537414966	243.40240362811792	62	127
243.3443537414966	243.40240362811792	50	127
243.49528344671202	243.54172335600907	64	127
243.49528344671202	243.54172335600907	52	127
243.63460317460317	243.68104308390022	66	127
243.63460317460317	243.68104308390022	54	127
243.80875283446713	243.86680272108845	67	127
243.80875283446713	243.86680272108845	55	127
244.12222222222223	244.20349206349206	69	127
244.12222222222223	244.20349206349206	57	127
244.44730158730158	244.6330612244898	70	127
244.44730158730158	244.54018140589568	58	127
244.6330612244898	244.83043083900228	62	127
244.83043083900228	244.95814058956915	63	127
244.95814058956915	245.0974603174603	65	127
245.10907029478457	245.39931972789117	54	127
245.10907029478457	245.28321995464853	63	127
245.28321995464853	245.43414965986395	70	127
245.43414965986395	245.58507936507937	66	127
245.58507936507937	245.75922902494332	63	127
245.75922902494332	246.02625850340135	53	127
245.75922902494332	245.92176870748298	61	127
245.92176870748298	246.08430839002267	65	127
246.08430839002267	246.2352380952381	63	127
246.08430839002267	246.142358276644	55	127
246.2352380952381	246.39777777777778	65	127
246.2352380952381	246.2932879818594	57	127
246.40938775510205	246.57192743764173	61	127
246.40938775510205	246.65319727891156	58	127
246.57192743764173	246.71124716553288	65	127
246.71124716553288	246.75768707482993	58	127
246.71124716553288	246.87378684807257	61	127
246.87378684807257	246.92022675736962	58	127
246.87378684807257	247.03632653061226	58	127
247.03632653061226	247.19886621315192	56	127
247.03632653061226	247.30335600907028	84	127
247.3614058956916	247.5239455782313	55	127
247.3614058956916	247.40784580498865	86	127
247.5239455782313	247.5819954648526	88	127
247.68648526077098	247.97673469387755	89	127
247.68648526077098	248.03478458049887	56	127
248.03478458049887	248.09283446712018	89	127
248.03478458049887	248.19732426303855	53	127
248.19732426303855	248.23215419501133	89	127
248.3134240362812	248.4643537414966	87	127
248.3134240362812	248.4643537414966	55	127
248.62689342403627	248.77782312925171	86	127
248.62689342403627	248.77782312925171	55	127
248.91714285714286	249.07968253968255	55	127
248.91714285714286	249.07968253968255	87	127
249.2422222222222	249.4047619047619	86	127
249.2422222222222	249.4047619047619	55	127
249.59052154195012	249.75306122448978	51	127
249.59052154195012	249.75306122448978	84	127
249.92721088435374	250.08975056689343	62	127
249.92721088435374	250.08975056689343	79	127
250.25229024943312	250.41482993197278	60	127
250.25229024943312	250.41482993197278	75	127
250.57736961451246	250.72829931972788	74	127
250.57736961451246	250.72829931972788	67	127
250.90244897959184	251.06498866213153	63	127
250.90244897959184	251.06498866213153	72	127
251.2275283446712	251.39006802721087	67	127
251.2275283446712	251.39006802721087	74	127
251.55260770975056	251.70353741496598	63	127
251.55260770975056	251.70353741496598	72	127
251.87768707482994	252.00539682539682	74	127
251.87768707482994	252.00539682539682	67	127
252.1679365079365	252.31886621315192	72	127
252.1679365079365	252.31886621315192	63	127
252.49301587301588	252.65555555555557	72	127
252.49301587301588	252.65555555555557	65	127
252.8297052154195	252.99224489795918	70	127
252.8297052154195	252.99224489795918	62	127
253.15478458049887	253.31732426303856	65	127
253.15478458049887	253.31732426303856	72	127
253.47986394557824	253.63079365079366	70	127
253.47986394557824	253.63079365079366	62	127
253.8049433106576	253.94426303854874	72	127
253.8049433106576	253.94426303854874	65	127
254.1184126984127	254.28095238095239	70	127
254.1184126984127	254.28095238095239	62	127
254.44349206349207	254.60603174603173	65	127
254.44349206349207	254.60603174603173	72	127
254.75696145124718	255.0239909297052	77	127
255.08204081632653	255.14009070294784	79	127
255.2445804988662	255.30263038548753	81	127
255.4071201814059	255.67414965986396	82	127
255.73219954648525	255.79024943310657	82	127
255.9063492063492	255.95278911564625	82	127
256.0688662131519	256.1269387755102	81	127
256.0688662131519	256.3475283446712	65	127
256.39396825396824	256.4404081632653	82	127
256.39396825396824	256.4404081632653	65	127
256.4984580498866	256.55650793650796	65	127
256.6377777777778	256.97446712018143	83	127
256.6377777777778	256.9164172335601	65	127
256.97446712018143	257.1370068027211	84	127
256.97446712018143	257.0325170068027	65	127
257.1370068027211	257.19503401360544	65	127
257.311156462585	257.5781859410431	82	127
257.311156462585	257.61301587301585	65	127
257.5781859410431	257.65945578231293	82	127
257.65945578231293	257.84521541950113	84	127
257.84521541950113	257.92648526077096	84	127
257.92648526077096	258.2631746031746	87	127
258.2631746031746	258.4024943310658	86	127
258.5766439909297	258.6230612244898	87	127
258.72755102040816	258.78562358276645	89	127
258.87850340136055	258.9249206349206	91	127
259.0410430839002	259.0874829931973	87	127
259.2035827664399	259.4822222222222	65	127
259.2035827664399	259.78408163265306	84	127
259.54024943310657	259.5867120181406	65	127
259.7028117913832	259.7608616780045	65	127
259.8653514739229	260.1207709750567	53	127
260.178820861678	260.23687074829934	55	127
260.32975056689344	260.3878004535147	57	127
260.51551020408164	260.79414965986393	58	127
260.8521995464853	260.8986394557823	58	127
261.01473922902494	261.0727664399093	58	127
261.1656689342404	261.4443083900227	77	127
261.1656689342404	261.2237188208617	57	127
261.49072562358276	261.54879818594105	58	127
261.49072562358276	261.54879818594105	77	127
261.6300680272109	261.6532879818594	77	127
261.7461678004535	262.0248072562358	77	127
261.7461678004535	262.08285714285716	62	127
262.08285714285716	262.14090702947846	77	127
262.08285714285716	262.2453968253968	60	127
262.2570068027211	262.3150566893424	77	127
262.431156462585	262.7214058956916	77	127
262.431156462585	262.68657596371884	62	127
262.6981859410431	262.77945578231294	62	127
262.77945578231294	263.0232426303855	63	127
263.0232426303855	263.1045351473923	63	127
263.1161451247166	263.4295918367347	67	127
263.4295918367347	263.59215419501135	65	127
263.754693877551	264.09138321995465	70	127
264.09138321995465	264.2307029478458	64	127
264.3932426303855	264.7067120181406	65	127
264.3932426303855	264.6486621315193	77	127
264.7067120181406	264.76473922902494	77	127
264.7067120181406	264.85761904761904	53	127
264.85761904761904	264.91569160997733	77	127
265.03179138321997	265.3452607709751	82	127
265.3452607709751	265.49619047619046	76	127
265.6587301587302	265.9257596371882	65	127
265.6587301587302	265.98378684807255	77	127
265.98378684807255	266.04185941043085	65	127
265.98378684807255	266.1463492063492	65	127
266.1463492063492	266.2043990929705	65	127
266.3088888888889	266.3437188208617	60	127
266.4598185941043	266.5178684807256	62	127
266.622358276644	266.6804081632653	63	127
266.79650793650796	266.842947845805	60	127
266.9590476190476	267.5163038548753	65	127
266.9590476190476	267.22607709750565	77	127
267.284126984127	267.330566893424	77	127
267.4350566893424	267.49310657596374	77	127
267.5975963718821	267.6556462585034	72	127
267.76013605442176	267.8181859410431	74	127
267.9110657596372	267.9691156462585	75	127
268.07360544217687	268.12004535147395	72	127
268.2361224489796	268.54961451247163	76	127
268.2361224489796	268.5147845804989	70	127
268.54961451247163	268.5960544217687	70	127
268.54961451247163	268.71215419501135	77	127
268.71215419501135	268.77020408163264	70	127
268.8863038548753	269.17655328798185	77	127
268.8863038548753	269.15331065759636	65	127
269.15331065759636	269.2346031746032	65	127
269.2346031746032	269.4784126984127	64	127
269.2346031746032	269.4784126984127	76	127
269.49002267573695	269.5712925170068	64	127
269.49002267573695	269.5712925170068	76	127
269.58290249433105	269.8267120181406	65	127
269.58290249433105	269.8267120181406	77	127
269.8267120181406	269.89637188208616	77	127
269.8267120181406	269.89637188208616	65	127
269.89637188208616	270.1053514739229	70	127
269.89637188208616	270.1053514739229	82	127
270.1053514739229	270.1401814058957	70	127
270.1053514739229	270.1401814058957	82	127
270.1401814058957	270.34916099773244	60	127
270.1401814058957	270.34916099773244	84	127
270.3607709750567	270.44204081632654	60	127
270.3607709750567	270.44204081632654	84	127
270.44204081632654	270.6510204081633	60	127
270.44204081632654	270.4884580498866	84	127
270.6510204081633	270.7322902494331	65	127
270.6510204081633	270.70907029478457	86	127
270.7439002267574	271.31278911564624	82	127
270.7439002267574	270.9877097505669	62	127
270.9877097505669	271.06897959183675	62	127
271.06897959183675	271.31278911564624	61	127
271.31278911564624	271.38244897959186	61	127
271.38244897959186	271.62625850340135	62	127
271.38244897959186	271.962947845805	86	127
271.6378684807256	271.70750566893423	62	127
271.71913832199544	271.962947845805	67	127
271.962947845805	272.0442176870748	67	127
272.0442176870748	272.2648072562358	69	127
272.0442176870748	272.1370975056689	74	127
272.2648072562358	272.34607709750566	69	127
272.34607709750566	272.4157369614513	78	127
272.34607709750566	272.5086167800454	69	127
272.52022675736964	272.61310657596374	70	127
272.61310657596374	272.8220861678005	67	127
272.61310657596374	273.1239455782313	79	127
272.8220861678005	272.9033560090703	58	127
272.9149659863946	273.1239455782313	57	127
273.1239455782313	273.20521541950114	57	127
273.20521541950114	273.7857142857143	82	127
273.20521541950114	273.4490022675737	58	127
273.4606349206349	273.5302947845805	58	127
273.5302947845805	273.77410430839	63	127
273.7857142857143	273.8553514739229	63	127
273.8553514739229	274.0875736961451	65	127
273.8553514739229	273.9366439909297	70	127
274.0875736961451	274.15723356009073	65	127
274.15723356009073	274.4010430839002	65	127
274.15723356009073	274.23850340136056	74	127
274.4010430839002	274.48231292517005	67	127
274.48231292517005	274.93510204081633	75	127
274.48231292517005	274.5984126984127	63	127
274.61002267573696	274.6912925170068	55	127
274.6912925170068	274.93510204081633	54	127
274.93510204081633	275.01637188208616	54	127
275.02798185941043	275.5852607709751	79	127
275.02798185941043	275.27179138322	55	127
275.27179138322	275.32984126984127	55	127
275.32984126984127	275.5736507936508	60	127
275.5852607709751	275.6665306122449	60	127
275.6665306122449	275.74780045351474	67	127
275.6665306122449	275.9103401360544	62	127
275.9103401360544	275.9916099773243	62	127
276.00319727891156	276.200589569161	62	127
276.00319727891156	276.06126984126985	71	127
276.200589569161	276.2702494331066	63	127
276.2702494331066	276.51403628117913	60	127
276.2702494331066	276.8507482993197	72	127
276.51403628117913	276.59532879818596	60	127
276.59532879818596	276.83913832199545	63	127
276.8507482993197	276.92038548752834	63	127
276.93201814058955	277.46607709750566	75	127
276.93201814058955	277.1409977324263	60	127
277.1409977324263	277.2222675736962	60	127
277.23385487528344	277.46607709750566	62	127
277.46607709750566	277.5473469387755	62	127
277.5473469387755	277.6170068027211	76	127
277.5473469387755	277.7679365079365	60	127
277.77954648526077	277.8608163265306	60	127
277.8608163265306	277.9420634920635	79	127
277.8608163265306	278.06979591836733	58	127
278.06979591836733	278.60385487528345	81	127
278.06979591836733	278.2555328798186	57	127
278.2555328798186	278.3484353741497	60	127
278.3484353741497	278.60385487528345	59	127
278.60385487528345	278.6851247165533	59	127
278.6851247165533	278.91732426303855	60	127
278.6851247165533	279.2540136054422	84	127
278.9289342403628	278.9985941043084	60	127
279.01020408163265	279.2540136054422	65	127
279.2540136054422	279.335283446712	65	127
279.335283446712	279.4281632653061	72	127
279.335283446712	279.5790702947846	67	127
279.5790702947846	279.6603628117914	67	127
279.6603628117914	279.85773242630387	67	127
279.6603628117914	279.74163265306123	76	127
279.86934240362814	279.95061224489797	70	127
279.95061224489797	280.00866213151926	77	127
279.95061224489797	280.4846712018141	69	127
280.171201814059	280.22925170068027	72	127
280.2524716553288	280.4846712018141	71	127
280.4846712018141	280.55433106575964	71	127
280.55433106575964	281.12319727891156	72	127
280.55433106575964	280.7865306122449	72	127
280.7865306122449	280.86780045351475	72	127
280.86780045351475	281.1115873015873	77	127
281.12319727891156	281.1928798185941	77	127
281.2044897959184	281.41346938775513	79	127
281.2044897959184	281.49473922902496	60	127
281.41346938775513	281.49473922902496	79	127
281.49473922902496	281.55278911564625	79	127
281.49473922902496	281.72691609977323	64	127
281.7037188208617	281.761768707483	82	127
281.7849886621315	282.2958276643991	81	127
281.7849886621315	281.95913832199545	65	127
281.95913832199545	282.04038548752834	60	127
282.04038548752834	282.2958276643991	59	127
282.2958276643991	282.3770975056689	59	127
282.3887074829932	282.96920634920633	84	127
282.3887074829932	282.63251700680274	60	127
282.63251700680274	282.7137868480726	60	127
282.7137868480726	282.96920634920633	69	127
282.96920634920633	282.99242630385487	69	127
282.99242630385487	283.2362358276644	67	127
282.99242630385487	283.0736961451247	72	127
283.2478458049887	283.31750566893425	67	127
283.3291156462585	283.526485260771	67	127
283.3291156462585	283.41038548752834	76	127
283.526485260771	283.6077551020408	70	127
283.6077551020408	283.68902494331064	77	127
283.6077551020408	284.1534240362812	69	127
283.8051247165533	283.8631746031746	72	127
283.8863945578231	284.1418140589569	71	127
284.1534240362812	284.234693877551	71	127
284.234693877551	284.45528344671203	72	127
284.234693877551	284.80356009070294	72	127
284.45528344671203	284.53655328798186	72	127
284.54816326530613	284.80356009070294	81	127
284.80356009070294	284.8848526077098	81	127
284.8848526077098	284.95451247165533	60	127
284.8848526077098	285.070612244898	79	127
285.070612244898	285.1518820861678	79	127
285.1518820861678	285.20990929705215	79	127
285.1518820861678	285.20990929705215	64	127
285.36086167800454	285.4072789115646	81	127
285.44213151927437	286.0110204081633	77	127
285.44213151927437	285.7207482993197	65	127
286.0922902494331	286.6031292517007	81	127
286.0922902494331	286.6031292517007	65	127
286.70761904761906	287.2416780045352	69	127
286.70761904761906	286.9746485260771	69	127
286.98625850340136	287.26489795918366	72	127
287.31133786848073	287.8570068027211	77	127
287.31133786848073	287.5551247165533	57	127
287.61319727891157	287.89183673469387	60	127
287.93827664399095	288.5536054421769	65	127
287.93827664399095	288.5536054421769	81	127
288.6348752834467	288.8554648526077	69	127
288.6348752834467	289.06444444444446	69	127
288.867074829932	289.07605442176873	72	127
289.0992743764172	289.6333333333333	77	127
289.0992743764172	289.37791383219957	57	127
289.4243537414966	289.66816326530613	60	127
289.7262131519274	290.3067120181406	81	127
289.7262131519274	290.3067120181406	65	127
290.3763718820862	290.9568707482993	69	127
290.3763718820862	290.9568707482993	84	127
291.0381179138322	291.2703401360544	72	127
291.0381179138322	291.560589569161	60	127
291.3167800453515	291.5838095238095	77	127
291.6302494331066	292.1875283446712	81	127
291.6302494331066	291.8972789115646	48	127
291.955306122449	292.222358276644	53	127
292.268798185941	292.8260770975057	57	127
292.268798185941	292.8260770975057	84	127
292.8609070294785	293.42979591836735	87	127
292.8609070294785	293.42979591836735	60	127
293.5110657596372	293.77809523809526	77	127
293.5110657596372	294.033514739229	63	127
293.812925170068	294.0683446712018	81	127
294.1263945578231	294.69528344671204	84	127
294.1263945578231	294.4050113378685	53	127
294.4514739229025	294.7184807256236	57	127
294.77655328798187	295.38027210884354	60	127
294.77655328798187	295.38027210884354	87	127
295.47315192743764	295.7169614512472	77	127
295.47315192743764	296.018820861678	63	127
295.7750113378685	296.04201814058956	81	127
296.10009070294785	296.28585034013605	53	127
296.10009070294785	296.54126984126987	84	127
296.3438775510204	296.5760997732426	57	127
296.59931972789116	296.69219954648526	87	127
296.59931972789116	297.22625850340137	60	127
296.95920634920634	297.04049886621317	84	127
297.3075283446712	297.4004081632653	81	127
297.3075283446712	297.4004081632653	63	127
297.5745351473923	297.64421768707484	60	127
297.5745351473923	297.64421768707484	77	127
297.8880045351474	297.9460770975057	75	127
297.8880045351474	297.9460770975057	57	127
298.2131065759637	298.3059863945578	72	127
298.2131065759637	298.3059863945578	53	127
298.54979591836735	299.14190476190475	58	127
298.54979591836735	299.14190476190475	70	127
299.2231746031746	299.8385034013605	62	127
299.2231746031746	299.8385034013605	74	127
299.9313605442177	300.17519274376417	62	127
299.9313605442177	300.17519274376417	50	127
300.22163265306125	300.27968253968254	66	127
300.22163265306125	300.27968253968254	54	127
300.27968253968254	300.3493424036281	67	127
300.27968253968254	300.3493424036281	55	127
300.3493424036281	300.40739229024945	66	127
300.3493424036281	300.40739229024945	54	127
300.40739229024945	300.46544217687074	55	127
300.40739229024945	300.46544217687074	67	127
300.46544217687074	300.5118820861678	52	127
300.46544217687074	300.5118820861678	64	127
300.5118820861678	300.5699319727891	66	127
300.5118820861678	300.5699319727891	54	127
300.5699319727891	301.0691609977324	55	127
300.5699319727891	301.0691609977324	67	127
301.1620408163265	301.22009070294786	70	127
301.3942403628118	301.54517006802723	70	127
301.58	301.66124716553287	70	127
301.76573696145124	301.82380952380953	72	127
301.84702947845807	302.0676190476191	74	127
302.0676190476191	302.1604988662132	79	127
302.1604988662132	302.241768707483	74	127
302.41591836734693	302.4739682539683	74	127
302.49718820861676	302.57845804988665	74	127
302.7061678004535	302.76421768707485	74	127
302.7990476190476	302.8803174603175	73	127
303.0312471655329	303.1125170068027	72	127
303.1473469387755	303.20537414965986	70	127
303.35632653061225	303.4027437641723	69	127
303.4259863945578	303.5072335600907	67	127
303.6814058956916	303.7394557823129	70	127
303.7742857142857	303.82072562358275	82	127
303.9716553287982	304.0297052154195	82	127
304.052925170068	304.13419501133785	81	127
304.2851247165533	304.3431746031746	80	127
304.35478458049886	304.58698412698413	79	127
304.58698412698413	304.67986394557823	87	127
304.67986394557823	304.7495238095238	87	127
304.88884353741497	304.94689342403626	87	127
304.9701133786848	305.0629931972789	89	127
305.1907029478458	305.24873015873015	89	127
305.2835827664399	305.3184126984127	89	127
305.49256235827664	305.550589569161	91	127
305.550589569161	305.7595691609977	87	127
305.7595691609977	305.80603174603175	70	127
305.8292517006803	305.8873015873016	72	127
306.06142857142856	306.17755102040815	74	127
306.21238095238095	306.7696598639456	75	127
306.21238095238095	306.7696598639456	51	127
306.85092970521544	307.44303854875284	79	127
306.85092970521544	307.44303854875284	55	127
307.50108843537413	307.72167800453514	43	127
307.50108843537413	307.72167800453514	67	127
307.7797278911565	307.8377777777778	47	127
307.7797278911565	307.8377777777778	71	127
307.8377777777778	307.88421768707485	72	127
307.8377777777778	307.88421768707485	48	127
307.88421768707485	307.94226757369614	71	127
307.88421768707485	307.94226757369614	47	127
307.94226757369614	308.0002947845805	72	127
307.94226757369614	308.0002947845805	48	127
308.0002947845805	308.03514739229024	45	127
308.0002947845805	308.03514739229024	69	127
308.03514739229024	308.0931972789116	71	127
308.03514739229024	308.0931972789116	47	127
308.0931972789116	308.66208616780045	72	127
308.0931972789116	308.66208616780045	48	127
308.7433560090703	309.25419501133786	48	127
309.0335827664399	309.10326530612247	55	127
309.0335827664399	309.10326530612247	63	127
309.34707482993196	309.9043537414966	51	127
309.6489342403628	309.74179138321995	55	127
309.6489342403628	309.74179138321995	67	127
309.9972335600907	310.0901133786848	59	127
309.9972335600907	310.0901133786848	43	127
310.3571201814059	310.42680272108845	62	127
310.3571201814059	310.42680272108845	47	127
310.3571201814059	310.42680272108845	55	127
310.61256235827665	311.1234013605442	48	127
310.86795918367346	310.96086167800456	63	127
310.86795918367346	310.96086167800456	55	127
311.1930612244898	311.2859410430839	41	127
311.1930612244898	311.2859410430839	60	127
311.51814058956916	311.5877777777778	45	127
311.51814058956916	311.5877777777778	72	127
311.51814058956916	311.5877777777778	65	127
311.8548299319728	311.93609977324263	65	127
311.8548299319728	311.93609977324263	74	127
311.8548299319728	311.93609977324263	46	127
312.1682993197279	312.24956916099774	38	127
312.1682993197279	312.24956916099774	70	127
312.1682993197279	312.24956916099774	62	127
312.481768707483	312.5746485260771	60	127
312.481768707483	312.5746485260771	70	127
312.481768707483	312.5746485260771	39	127
312.78362811791385	312.87650793650795	41	127
312.78362811791385	312.87650793650795	69	127
313.0854875283447	313.2364172335601	46	127
313.0854875283447	313.143537414966	58	127
313.143537414966	313.18997732426305	62	127
313.18997732426305	313.2944671201814	65	127
313.2944671201814	313.41056689342406	70	127
313.42215419501133	313.50344671201816	72	127
313.5498866213152	313.7008163265306	74	127
313.73562358276644	314.10716553287983	76	127
314.1652154195011	314.7457142857143	79	127
314.82698412698414	314.908253968254	67	127
314.82698412698414	315.4074829931973	52	127
315.128843537415	315.23333333333335	70	127
315.51197278911565	316.0228117913832	72	127
315.51197278911565	316.0228117913832	55	127
316.10408163265305	316.6265306122449	76	127
316.10408163265305	316.17374149659867	43	127
316.35950113378686	316.45238095238096	46	127
316.7078004535147	317.3463492063492	48	127
316.7078004535147	317.3463492063492	79	127
317.4159863945578	317.49727891156465	67	127
317.4159863945578	317.8571882086168	52	127
317.6714285714286	317.74108843537414	70	127
317.9500680272109	318.5073469387755	55	127
317.9500680272109	318.5073469387755	72	127
318.58861678004536	319.18072562358276	76	127
318.58861678004536	318.6698866213152	43	127
318.93691609977327	319.0181859410431	46	127
319.2503628117914	319.85410430839005	79	127
319.2503628117914	319.85410430839005	49	127
319.9353741496599	320.028253968254	67	127
319.9353741496599	320.4578231292517	52	127
320.2372335600907	320.3301133786848	70	127
320.53909297052155	321.1892290249433	73	127
320.53909297052155	320.63197278911565	55	127
320.8990022675737	320.99185941043083	58	127
321.1892290249433	321.81619047619046	73	127
321.1892290249433	321.81619047619046	61	127
321.81619047619046	326.2744217687075	37	127
321.81619047619046	322.3734693877551	77	127
322.3734693877551	322.721746031746	72	127
322.721746031746	323.0584580498866	75	127
323.0584580498866	323.53446712018143	73	127
323.53446712018143	323.6970068027211	70	127
323.6970068027211	324.265873015873	68	127
324.265873015873	324.9508843537415	72	127
324.9508843537415	325.2063038548753	66	127
325.2063038548753	325.4268934240363	70	127
325.4268934240363	325.856462585034	68	127
325.856462585034	326.0190022675737	65	127
326.0190022675737	326.5995011337869	61	127
326.3324716553288	326.92455782312925	37	127
326.5995011337869	327.33090702947845	68	127
326.98263038548754	327.5631292517007	37	127
327.33090702947845	327.9578684807256	65	127
327.621179138322	328.1900680272109	37	127
327.9578684807256	328.503537414966	70	127
328.23650793650796	328.770566893424	37	127
328.57319727891155	328.82861678004537	68	127
328.82861678004537	330.09408163265306	37	127
328.82861678004537	329.1885260770975	73	127
329.1885260770975	329.4787528344671	75	127
329.4787528344671	329.80385487528343	77	127
329.80385487528343	330.15215419501135	75	127
330.15215419501135	330.3959410430839	73	127
330.15215419501135	330.5701133786848	37	127
330.3959410430839	330.6397732426304	65	127
330.6397732426304	330.9184126984127	68	127
330.6397732426304	331.18544217687077	37	127
330.9416326530612	331.56857142857143	61	127
331.24349206349206	331.88204081632654	37	127
331.56857142857143	332.3	68	127
331.9517006802721	332.56702947845804	37	127
332.3	332.9037188208617	65	127
332.60185941043085	333.14752834467123	37	127
332.9037188208617	333.47260770975055	70	127
333.2055782312925	333.8092970521542	37	127
333.54226757369617	333.86732426303854	68	127
333.86732426303854	334.2156462585034	73	127
333.86732426303854	335.05156462585035	37	127
334.2156462585034	334.50589569160996	75	127
334.50589569160996	334.77292517006805	77	127
334.77292517006805	335.1212244897959	75	127
335.1212244897959	335.45791383219955	73	127
335.1212244897959	335.2024716553288	37	127
335.45791383219955	335.71331065759637	65	127
335.45791383219955	335.5391836734694	37	127
335.71331065759637	335.7481632653061	37	127
335.71331065759637	335.875873015873	68	127
335.92231292517005	337.8843990929705	37	127
335.92231292517005	336.54925170068026	61	127
336.54925170068026	337.26907029478457	68	127
337.26907029478457	337.8843990929705	65	127
337.8843990929705	338.45328798185943	41	127
337.8843990929705	338.45328798185943	69	127
338.54616780045353	338.85963718820864	70	127
343.0043990929705	343.0508390022676	75	127
343.07403628117913	343.16693877551023	77	127
343.34108843537416	343.422358276644	79	127
343.4571882086168	343.5036281179138	80	127
343.66616780045354	343.7242176870748	80	127
343.75904761904764	343.8170975056689	80	127
343.9564172335601	344.0144671201814	82	127
344.03768707482993	344.25827664399094	84	127
344.25827664399094	344.35115646258504	89	127
344.35115646258504	344.43242630385487	84	127
344.5601360544218	344.61818594104307	84	127
344.6414058956916	344.7342857142857	84	127
344.8271655328798	344.88521541950115	84	127
344.9200453514739	345.0013151927438	83	127
345.1522448979592	345.2102947845805	82	127
345.2451247165533	345.32637188208616	80	127
345.4889342403628	345.5469841269841	79	127
345.57020408163265	345.628231292517	77	127
345.80240362811793	345.8604535147392	75	127
345.88367346938776	345.94172335600905	74	127
345.9997732426304	346.0578231292517	82	127
346.0810430839002	346.1739229024943	82	127
346.3480498866213	346.41773242630387	82	127
346.4525623582766	346.5338321995465	82	127
346.64990929705215	346.70798185941044	84	127
346.74281179138325	346.8124716553288	86	127
346.9401814058957	346.998231292517	87	127
346.998231292517	347.0911111111111	89	127
347.2652380952381	347.3233106575964	89	127
347.3581405895692	347.36972789115646	89	127
347.439410430839	347.4974603174603	91	127
347.52068027210885	347.8225396825397	87	127
352.36204081632656	352.3968707482993	58	127
352.3968707482993	352.4781179138322	62	127
352.4781179138322	352.58260770975056	65	127
352.58260770975056	352.69873015873014	70	127
352.7103401360544	352.79160997732424	72	127
352.82643990929705	352.9077097505669	74	127
352.95414965986396	353.45337868480726	76	127
353.46498866213153	354.0106349206349	79	127
354.103537414966	354.18480725623584	67	127
354.103537414966	354.6724263038549	52	127
354.42861678004533	354.49827664399095	70	127
354.765306122449	355.2645351473923	72	127
354.765306122449	355.2645351473923	55	127
355.3341723356009	355.7637641723356	76	127
355.3341723356009	355.427074829932	43	127
355.647641723356	355.7405442176871	46	127
355.84503401360547	356.4835827664399	79	127
355.84503401360547	356.4835827664399	48	127
356.576462585034	356.66931972789115	67	127
356.576462585034	357.2150113378685	52	127
356.9595918367347	357.0292517006803	70	127
357.2846485260771	357.85356009070296	72	127
357.2846485260771	357.85356009070296	55	127
357.9348299319728	358.44566893424036	76	127
357.9348299319728	358.0277097505669	43	127
358.27151927437643	358.36439909297053	46	127
358.49210884353744	359.04938775510203	49	127
358.49210884353744	359.04938775510203	79	127
359.11902494331065	359.664716553288	52	127
359.11902494331065	359.21192743764175	67	127
359.43249433106575	359.49056689342405	70	127
359.7343537414966	360.1987755102041	73	127
359.7343537414966	359.8156462585034	55	127
360.0710657596372	360.1291156462585	58	127
360.2916553287982	360.372925170068	58	127
360.2916553287982	360.372925170068	74	127
360.372925170068	360.44258503401363	62	127
360.372925170068	360.44258503401363	70	127
360.44258503401363	360.52385487528346	58	127
360.44258503401363	360.52385487528346	74	127
360.52385487528346	360.62834467120183	62	127
360.52385487528346	360.62834467120183	70	127
360.62834467120183	360.72122448979593	58	127
360.62834467120183	360.72122448979593	74	127
360.72122448979593	360.7908843537415	62	127
360.72122448979593	360.7908843537415	70	127
360.7908843537415	360.8721541950113	58	127
360.7908843537415	360.8721541950113	74	127
360.8721541950113	360.9650113378685	62	127
360.8721541950113	360.9650113378685	70	127
360.9650113378685	361.0463038548753	58	127
360.9650113378685	361.0463038548753	74	127
361.0463038548753	361.11596371882086	70	127
361.0463038548753	361.11596371882086	62	127
361.11596371882086	361.1972335600907	58	127
361.11596371882086	361.1972335600907	74	127
361.1972335600907	361.2785034013605	70	127
361.1972335600907	361.2785034013605	62	127
361.2785034013605	361.3597732426304	58	127
361.2785034013605	361.3597732426304	74	127
361.3597732426304	361.4526530612245	70	127
361.3597732426304	361.4526530612245	62	127
361.4526530612245	361.5455328798186	74	127
361.4526530612245	361.5455328798186	58	127
361.5455328798186	361.62680272108844	62	127
361.5455328798186	361.62680272108844	70	127
361.62680272108844	361.7312925170068	57	127
361.62680272108844	361.7312925170068	72	127
361.7312925170068	361.81256235827664	60	127
361.7312925170068	361.81256235827664	69	127
361.81256235827664	361.90544217687074	57	127
361.81256235827664	361.90544217687074	72	127
361.90544217687074	361.99832199546483	69	127
361.90544217687074	361.99832199546483	60	127
361.99832199546483	362.06798185941045	72	127
361.99832199546483	362.06798185941045	57	127
362.06798185941045	362.1492517006803	69	127
362.06798185941045	362.1492517006803	60	127
362.1492517006803	362.2421315192744	72	127
362.1492517006803	362.2421315192744	57	127
362.2421315192744	362.3234013605442	69	127
362.2421315192744	362.3234013605442	60	127
362.3234013605442	362.4162811791383	70	127
362.3234013605442	362.4162811791383	55	127
362.4162811791383	362.5091609977324	67	127
362.4162811791383	362.5091609977324	58	127
362.5091609977324	362.60201814058956	70	127
362.5091609977324	362.60201814058956	55	127
362.60201814058956	362.69489795918366	67	127
362.60201814058956	362.69489795918366	58	127
362.69489795918366	362.78780045351476	55	127
362.69489795918366	362.78780045351476	70	127
362.78780045351476	362.88068027210886	58	127
362.78780045351476	362.88068027210886	67	127
362.88068027210886	362.9619501133787	70	127
362.88068027210886	362.9619501133787	55	127
362.9619501133787	362.98517006802723	58	127
362.9619501133787	362.98517006802723	67	127
362.9967800453515	363.0896598639456	69	127
362.9967800453515	363.0896598639456	53	127
363.0896598639456	363.1477097505669	65	127
363.0896598639456	363.1477097505669	57	127
363.1477097505669	363.2173469387755	53	127
363.1477097505669	363.2173469387755	69	127
363.2173469387755	363.29863945578234	65	127
363.2173469387755	363.29863945578234	57	127
363.29863945578234	363.39151927437644	69	127
363.29863945578234	363.39151927437644	53	127
363.39151927437644	363.48439909297053	65	127
363.39151927437644	363.48439909297053	57	127
363.48439909297053	363.56566893424036	69	127
363.48439909297053	363.56566893424036	53	127
363.56566893424036	363.6353287981859	65	127
363.56566893424036	363.6353287981859	57	127
363.6353287981859	363.7281859410431	69	127
363.6353287981859	363.7281859410431	53	127
363.7281859410431	363.78625850340137	65	127
363.7281859410431	363.78625850340137	57	127
363.78625850340137	363.87913832199547	69	127
363.78625850340137	363.87913832199547	53	127
363.87913832199547	363.98362811791384	57	127
363.87913832199547	363.98362811791384	65	127
363.98362811791384	364.07650793650794	69	127
363.98362811791384	364.07650793650794	53	127
364.07650793650794	364.1461678004535	65	127
364.07650793650794	364.1461678004535	57	127
364.1461678004535	364.1926077097506	53	127
364.1461678004535	364.1926077097506	69	127
364.1926077097506	364.2738775510204	57	127
364.1926077097506	364.2738775510204	65	127
364.2738775510204	364.3667573696145	67	127
364.2738775510204	364.3667573696145	51	127
364.3667573696145	364.44802721088433	55	127
364.3667573696145	364.44802721088433	63	127
364.44802721088433	364.4944671201814	67	127
364.44802721088433	364.4944671201814	51	127
364.4944671201814	364.564126984127	63	127
364.4944671201814	364.564126984127	55	127
364.564126984127	364.6337868480726	51	127
364.564126984127	364.6337868480726	67	127
364.6337868480726	364.64537414965986	63	127
364.6337868480726	364.64537414965986	55	127
364.64537414965986	364.7266666666667	67	127
364.64537414965986	364.7266666666667	51	127
364.7266666666667	364.79632653061225	55	127
364.7266666666667	364.79632653061225	63	127
364.79632653061225	364.8775963718821	50	127
364.79632653061225	364.8775963718821	65	127
364.8775963718821	364.9588662131519	62	127
364.8775963718821	364.9588662131519	53	127
364.9588662131519	365.0401360544218	65	127
364.9588662131519	365.0401360544218	50	127
365.0401360544218	365.1330158730159	62	127
365.0401360544218	365.1330158730159	53	127
365.1330158730159	365.22589569161	65	127
365.1330158730159	365.22589569161	50	127
365.22589569161	365.33038548752836	62	127
365.22589569161	365.33038548752836	53	127
365.33038548752836	365.38843537414965	65	127
365.33038548752836	365.38843537414965	50	127
365.38843537414965	365.48131519274375	53	127
365.38843537414965	365.48131519274375	62	127
365.48131519274375	365.5277551020408	65	127
365.48131519274375	365.5277551020408	50	127
365.5277551020408	365.5974149659864	62	127
365.5277551020408	365.5974149659864	53	127
365.5974149659864	365.6902947845805	50	127
365.5974149659864	365.6902947845805	65	127
365.6902947845805	365.7715419501134	62	127
365.6902947845805	365.7715419501134	53	127
365.7715419501134	365.8644217687075	50	127
365.7715419501134	365.8644217687075	65	127
365.8644217687075	365.9573242630386	53	127
365.8644217687075	365.9573242630386	62	127
365.9573242630386	366.06181405895694	50	127
365.9573242630386	366.06181405895694	65	127
366.06181405895694	366.14308390022677	53	127
366.06181405895694	366.14308390022677	62	127
366.14308390022677	366.23596371882087	63	127
366.14308390022677	366.23596371882087	48	127
366.23596371882087	366.3172335600907	51	127
366.23596371882087	366.3172335600907	60	127
366.3172335600907	366.3868707482993	63	127
366.3172335600907	366.3868707482993	48	127
366.3868707482993	366.46816326530615	60	127
366.3868707482993	366.46816326530615	51	127
366.46816326530615	366.549433106576	48	127
366.46816326530615	366.549433106576	63	127
366.549433106576	366.61909297052154	60	127
366.549433106576	366.61909297052154	51	127
366.61909297052154	366.70036281179136	63	127
366.61909297052154	366.70036281179136	48	127
366.70036281179136	366.7932199546485	60	127
366.70036281179136	366.7932199546485	51	127
366.7932199546485	366.87451247165535	62	127
366.7932199546485	366.87451247165535	46	127
366.87451247165535	366.96739229024945	50	127
366.87451247165535	366.96739229024945	58	127
366.96739229024945	367.037052154195	46	127
366.96739229024945	367.037052154195	62	127
367.037052154195	367.11832199546484	50	127
367.037052154195	367.11832199546484	58	127
367.11832199546484	367.1763718820862	62	127
367.11832199546484	367.1763718820862	46	127
367.1763718820862	367.1995691609977	50	127
367.1763718820862	367.1995691609977	58	127
367.1995691609977	367.28086167800456	46	127
367.1995691609977	367.28086167800456	62	127
367.28086167800456	367.3505215419501	50	127
367.28086167800456	367.3505215419501	58	127
367.3505215419501	367.40854875283446	60	127
367.3505215419501	367.40854875283446	45	127
367.40854875283446	367.478231292517	57	127
367.40854875283446	367.478231292517	48	127
367.478231292517	367.5711111111111	60	127
367.478231292517	367.5711111111111	45	127
367.5711111111111	367.65238095238095	48	127
367.5711111111111	367.65238095238095	57	127
367.65238095238095	367.69882086167803	45	127
367.65238095238095	367.69882086167803	60	127
367.69882086167803	367.79170068027213	48	127
367.69882086167803	367.79170068027213	57	127
367.79170068027213	367.87297052154196	60	127
367.79170068027213	367.87297052154196	45	127
367.87297052154196	367.9542403628118	48	127
367.87297052154196	367.9542403628118	57	127
367.9542403628118	368.0238775510204	46	127
367.9542403628118	368.0238775510204	62	127
368.0238775510204	368.1167573696145	50	127
368.0238775510204	368.1167573696145	58	127
368.1167573696145	368.2096598639456	62	127
368.1167573696145	368.2096598639456	46	127
368.2096598639456	368.27931972789116	50	127
368.2096598639456	368.27931972789116	58	127
368.27931972789116	368.360589569161	46	127
368.27931972789116	368.360589569161	62	127
368.360589569161	368.4418594104308	50	127
368.360589569161	368.4418594104308	58	127
368.4418594104308	368.49990929705217	46	127
368.4418594104308	368.49990929705217	62	127
368.49990929705217	368.59278911564627	58	127
368.49990929705217	368.59278911564627	50	127
368.59278911564627	368.6740589569161	63	127
368.59278911564627	368.6740589569161	48	127
368.6740589569161	368.75532879818593	51	127
368.6740589569161	368.75532879818593	60	127
368.75532879818593	368.8133786848073	63	127
368.75532879818593	368.8133786848073	48	127
368.8133786848073	368.9062585034014	60	127
368.8133786848073	368.9062585034014	51	127
368.9062585034014	368.9875283446712	65	127
368.9062585034014	368.9875283446712	50	127
368.9875283446712	369.04555555555555	53	127
368.9875283446712	369.04555555555555	62	127
369.04555555555555	369.1152380952381	50	127
369.04555555555555	369.1152380952381	65	127
369.1152380952381	369.19650793650794	62	127
369.1152380952381	369.19650793650794	53	127
369.2081179138322	369.3009977324263	63	127
369.2081179138322	369.3009977324263	48	127
369.3009977324263	369.3474149659864	51	127
369.3009977324263	369.3474149659864	60	127
369.3474149659864	369.41709750566895	63	127
369.3474149659864	369.41709750566895	48	127
369.41709750566895	369.47514739229024	51	127
369.41709750566895	369.47514739229024	60	127
369.47514739229024	369.5563945578231	62	127
369.47514739229024	369.5563945578231	46	127
369.5563945578231	369.63768707482996	50	127
369.5563945578231	369.63768707482996	58	127
369.63768707482996	369.7189569160998	62	127
369.63768707482996	369.7189569160998	46	127
369.7189569160998	369.8118367346939	58	127
369.7189569160998	369.8118367346939	50	127
369.8118367346939	369.85825396825396	46	127
369.8118367346939	369.85825396825396	62	127
369.85825396825396	369.91632653061225	50	127
369.85825396825396	369.91632653061225	58	127
369.91632653061225	369.97437641723354	46	127
369.91632653061225	369.97437641723354	62	127
369.97437641723354	370.0672335600907	50	127
369.97437641723354	370.0672335600907	58	127
370.0672335600907	370.14852607709753	45	127
370.0672335600907	370.14852607709753	60	127
370.14852607709753	370.2065759637188	48	127
370.14852607709753	370.2065759637188	57	127
370.2065759637188	370.2762358276644	45	127
370.2065759637188	370.2762358276644	60	127
370.2762358276644	370.36909297052154	48	127
370.2762358276644	370.36909297052154	57	127
370.36909297052154	370.46199546485263	65	127
370.36909297052154	370.46199546485263	50	127
370.46199546485263	370.5316553287982	62	127
370.46199546485263	370.5316553287982	53	127
370.5316553287982	370.612925170068	65	127
370.5316553287982	370.612925170068	50	127
370.612925170068	370.7174149659864	53	127
370.612925170068	370.7174149659864	62	127
370.7174149659864	370.78707482993195	50	127
370.7174149659864	370.78707482993195	65	127
370.78707482993195	370.8799319727891	62	127
370.78707482993195	370.8799319727891	53	127
370.8799319727891	370.94961451247167	50	127
370.8799319727891	370.94961451247167	65	127
370.94961451247167	371.04249433106577	53	127
370.94961451247167	371.04249433106577	62	127
371.04249433106577	371.10054421768706	63	127
371.04249433106577	371.10054421768706	48	127
371.10054421768706	371.18179138321995	51	127
371.10054421768706	371.18179138321995	60	127
371.18179138321995	371.2514739229025	63	127
371.18179138321995	371.2514739229025	48	127
371.2514739229025	371.32113378684807	60	127
371.2514739229025	371.32113378684807	51	127
371.32113378684807	371.4024036281179	48	127
371.32113378684807	371.4024036281179	63	127
371.4024036281179	371.49526077097505	51	127
371.4024036281179	371.49526077097505	60	127
371.49526077097505	371.5649433106576	48	127
371.49526077097505	371.5649433106576	63	127
371.5649433106576	371.63460317460317	60	127
371.5649433106576	371.63460317460317	51	127
371.63460317460317	371.72748299319727	62	127
371.63460317460317	371.72748299319727	46	127
371.72748299319727	371.82036281179137	58	127
371.72748299319727	371.82036281179137	50	127
371.82036281179137	371.91324263038547	46	127
371.82036281179137	371.91324263038547	62	127
371.91324263038547	371.99451247165536	50	127
371.91324263038547	371.99451247165536	58	127
371.99451247165536	372.0757823129252	46	127
371.99451247165536	372.0757823129252	62	127
372.0757823129252	372.110589569161	58	127
372.0757823129252	372.110589569161	50	127
372.110589569161	372.1918820861678	62	127
372.110589569161	372.1918820861678	46	127
372.1918820861678	372.2847619047619	50	127
372.1918820861678	372.2847619047619	58	127
372.2847619047619	372.3544217687075	60	127
372.2847619047619	372.3544217687075	45	127
372.3544217687075	372.4473015873016	48	127
372.3544217687075	372.4473015873016	57	127
372.4473015873016	372.5169387755102	60	127
372.4473015873016	372.5169387755102	45	127
372.5169387755102	372.58662131519276	57	127
372.5169387755102	372.58662131519276	48	127
372.58662131519276	372.6678911564626	60	127
372.58662131519276	372.6678911564626	45	127
372.6678911564626	372.71430839002267	48	127
372.6678911564626	372.71430839002267	57	127
372.71430839002267	372.7491609977324	45	127
372.71430839002267	372.7491609977324	60	127
372.7491609977324	372.83043083900225	57	127
372.7491609977324	372.83043083900225	48	127
372.83043083900225	372.9232879818594	62	127
372.83043083900225	372.9232879818594	46	127
372.9232879818594	373.0161904761905	50	127
372.9232879818594	373.0161904761905	58	127
373.0161904761905	373.0626303854875	62	127
373.0161904761905	373.0626303854875	46	127
373.0626303854875	373.14390022675735	50	127
373.0626303854875	373.14390022675735	58	127
373.14390022675735	373.2367573696145	62	127
373.14390022675735	373.2367573696145	46	127
373.2367573696145	373.31804988662134	58	127
373.2367573696145	373.31804988662134	50	127
373.31804988662134	373.41092970521544	46	127
373.31804988662134	373.41092970521544	62	127
373.41092970521544	373.480589569161	50	127
373.41092970521544	373.480589569161	58	127
373.480589569161	373.55024943310656	63	127
373.480589569161	373.55024943310656	48	127
373.55024943310656	373.6199092970522	60	127
373.55024943310656	373.6199092970522	51	127
373.6199092970522	373.701179138322	63	127
373.6199092970522	373.701179138322	48	127
373.701179138322	373.7940589569161	51	127
373.701179138322	373.7940589569161	60	127
373.7940589569161	373.86371882086166	65	127
373.7940589569161	373.86371882086166	50	127
373.86371882086166	373.8985487528345	62	127
373.86371882086166	373.8985487528345	53	127
373.8985487528345	373.95659863945576	50	127
373.8985487528345	373.95659863945576	65	127
373.95659863945576	374.0494557823129	62	127
373.95659863945576	374.0494557823129	53	127
374.0494557823129	374.1539455782313	48	127
374.0494557823129	374.1539455782313	63	127
374.1539455782313	374.2468480725624	60	127
374.1539455782313	374.2468480725624	51	127
374.2468480725624	374.3281179138322	48	127
374.2468480725624	374.3281179138322	63	127
374.3281179138322	374.3861678004535	60	127
374.3281179138322	374.3861678004535	51	127
374.3861678004535	374.4790476190476	62	127
374.3861678004535	374.4790476190476	46	127
374.4790476190476	374.5487074829932	50	127
374.4790476190476	374.5487074829932	58	127
374.5487074829932	374.59514739229024	46	127
374.5487074829932	374.59514739229024	62	127
374.59514739229024	374.6531972789116	58	127
374.59514739229024	374.6531972789116	50	127
374.6531972789116	374.7460770975057	62	127
374.6531972789116	374.7460770975057	46	127
374.7460770975057	374.8273469387755	50	127
374.7460770975057	374.8273469387755	58	127
374.8273469387755	374.8970068027211	46	127
374.8273469387755	374.8970068027211	62	127
374.8970068027211	374.9898866213152	50	127
374.8970068027211	374.9898866213152	58	127
374.9898866213152	375.0479365079365	45	127
374.9898866213152	375.0479365079365	60	127
375.0479365079365	375.12920634920636	48	127
375.0479365079365	375.12920634920636	57	127
375.12920634920636	375.22208616780046	60	127
375.12920634920636	375.22208616780046	45	127
375.22208616780046	375.3033560090703	57	127
375.22208616780046	375.3033560090703	48	127
375.31496598639455	375.89544217687074	58	127
375.31496598639455	375.89544217687074	70	127
375.98832199546484	376.58045351473925	74	127
375.98832199546484	376.58045351473925	62	127
376.6617233560091	376.7546031746032	50	127
376.6617233560091	376.7546031746032	62	127
376.98680272108845	377.056462585034	54	127
376.98680272108845	377.056462585034	66	127
377.056462585034	377.11448979591836	55	127
377.056462585034	377.11448979591836	67	127
377.11448979591836	377.1609523809524	54	127
377.11448979591836	377.1609523809524	66	127
377.1609523809524	377.2189795918367	55	127
377.1609523809524	377.2189795918367	67	127
377.2189795918367	377.2538321995465	52	127
377.2189795918367	377.2538321995465	64	127
377.2538321995465	377.30027210884356	66	127
377.2538321995465	377.30027210884356	54	127
377.30027210884356	377.8459410430839	67	127
377.30027210884356	377.8459410430839	55	127
377.92721088435377	378.554126984127	48	127
377.92721088435377	378.554126984127	60	127
378.6354195011338	379.07659863945577	51	127
378.6354195011338	379.07659863945577	63	127
379.15784580498865	379.25074829931975	55	127
379.15784580498865	379.25074829931975	67	127
379.482947845805	379.5409977324263	59	127
379.482947845805	379.5409977324263	71	127
379.8196371882086	380.28401360544217	60	127
379.8196371882086	380.28401360544217	72	127
380.28401360544217	380.35369614512473	70	127
380.28401360544217	380.35369614512473	58	127
380.35369614512473	380.40013605442175	57	127
380.35369614512473	380.40013605442175	69	127
380.40013605442175	380.4233560090703	55	127
380.40013605442175	380.4233560090703	67	127
380.4233560090703	380.58589569161	65	127
380.4233560090703	380.5046258503401	53	127
380.7252154195011	380.9109750566893	69	127
380.7252154195011	380.8180952380952	57	127
381.06190476190477	381.53791383219954	58	127
381.06190476190477	381.53791383219954	70	127
381.53791383219954	381.60757369614515	68	127
381.53791383219954	381.60757369614515	56	127
381.60757369614515	381.66562358276644	67	127
381.60757369614515	381.66562358276644	55	127
381.66562358276644	381.72367346938773	65	127
381.66562358276644	381.72367346938773	53	127
381.735283446712	381.909433106576	51	127
381.735283446712	381.909433106576	63	127
382.10680272108846	382.19968253968256	50	127
382.10680272108846	382.19968253968256	84	127
382.10680272108846	382.19968253968256	75	127
382.3738321995465	382.6524716553288	74	127
382.3738321995465	382.5479818594104	65	127
382.3738321995465	382.5479818594104	53	127
382.47832199546485	382.6524716553288	82	127
382.75696145124715	382.94272108843535	72	127
382.75696145124715	382.91950113378687	65	127
382.75696145124715	382.91950113378687	41	127
382.838231292517	382.94272108843535	81	127
384.9048072562358	385.38081632653063	63	127
384.9048072562358	385.38081632653063	51	127
385.38081632653063	385.4388662131519	49	127
385.38081632653063	385.4388662131519	61	127
385.4388662131519	385.4969160997732	60	127
385.4388662131519	385.4969160997732	48	127
385.4969160997732	385.55496598639456	46	127
385.4969160997732	385.55496598639456	58	127
385.55496598639456	386.06580498866214	56	127
385.55496598639456	386.06580498866214	44	127
386.1354648526077	386.62308390022673	60	127
386.1354648526077	386.62308390022673	72	127
386.7159637188209	386.87850340136055	60	127
386.7159637188209	386.7972335600907	48	127
387.0410430839002	387.2151927437642	52	127
387.0410430839002	387.2151927437642	64	127
387.3080725623583	387.3893424036281	66	127
387.3080725623583	387.3893424036281	54	127
387.3893424036281	387.41256235827666	53	127
387.3893424036281	387.41256235827666	65	127
387.41256235827666	387.4938321995465	66	127
387.41256235827666	387.4938321995465	55	127
387.4938321995465	387.56349206349205	65	127
387.4938321995465	387.56349206349205	53	127
387.56349206349205	387.65637188208615	55	127
387.56349206349205	387.65637188208615	66	127
387.65637188208615	387.7608616780045	53	127
387.65637188208615	387.7608616780045	65	127
387.7608616780045	387.8421315192744	66	127
387.7608616780045	387.8421315192744	55	127
387.8421315192744	387.92340136054423	63	127
387.8421315192744	387.92340136054423	51	127
387.92340136054423	388.00467120181406	65	127
387.92340136054423	388.00467120181406	53	127
388.00467120181406	388.5851700680272	54	127
388.00467120181406	388.5851700680272	66	127
388.6548299319728	389.20049886621314	58	127
388.6548299319728	389.20049886621314	70	127
389.29337868480724	389.38625850340134	49	127
389.29337868480724	389.45591836734695	73	127
389.5836281179138	389.6648979591837	53	127
389.5836281179138	389.7461678004535	77	127
389.943537414966	390.1176870748299	78	127
389.943537414966	390.0248072562358	54	127
390.2453968253968	390.26861678004536	80	127
390.45437641723356	390.55886621315193	82	127
390.45437641723356	390.51242630385485	58	127
390.7446258503401	390.9303854875283	84	127
390.7446258503401	390.8491156462585	60	127
391.1045351473923	391.26707482993197	85	127
391.1045351473923	391.1974149659864	61	127
391.42961451247163	391.487664399093	63	127
391.42961451247163	391.55732426303854	87	127
391.71986394557825	392.3235827664399	65	127
391.71986394557825	392.3235827664399	89	127
392.40485260770976	392.9737414965986	69	127
392.40485260770976	392.9737414965986	78	127
392.40485260770976	392.9737414965986	62	127
392.40485260770976	392.9737414965986	50	127
393.0550113378685	393.58907029478456	50	127
393.0550113378685	393.58907029478456	81	127
393.0550113378685	393.58907029478456	66	127
393.0550113378685	393.58907029478456	69	127
393.6471201814059	394.08829931972787	70	127
393.6471201814059	394.08829931972787	82	127
393.6471201814059	394.2392290249433	46	127
394.08829931972787	394.1463492063492	80	127
394.1463492063492	394.2043990929705	79	127
394.2043990929705	394.2392290249433	77	127
394.2392290249433	394.41337868480724	75	127
394.2392290249433	394.41337868480724	51	127
394.5875283446712	394.7500680272109	67	127
394.5875283446712	394.7500680272109	51	127
394.5875283446712	394.81972789115645	75	127
394.6571882086168	394.81972789115645	84	127
394.842947845805	395.063537414966	74	127
394.842947845805	395.00548752834464	65	127
394.842947845805	395.00548752834464	53	127
394.9358276643991	395.063537414966	82	127
395.1564172335601	395.41183673469385	72	127
395.1564172335601	395.31895691609975	65	127
395.1564172335601	395.31895691609975	41	127
395.2376870748299	395.41183673469385	81	127
395.49310657596374	396.0271655328798	50	127
395.49310657596374	396.0271655328798	66	127
395.49310657596374	396.0271655328798	74	127
396.14326530612243	396.71215419501135	69	127
396.14326530612243	396.71215419501135	62	127
396.14326530612243	396.71215419501135	50	127
396.14326530612243	396.71215419501135	78	127
396.77020408163264	397.36231292517004	66	127
396.77020408163264	397.36231292517004	81	127
396.77020408163264	397.36231292517004	50	127
396.77020408163264	397.36231292517004	69	127
397.44358276643993	397.9195918367347	70	127
397.44358276643993	397.9195918367347	82	127
397.44358276643993	398.0937414965986	46	127
397.9195918367347	397.977641723356	80	127
397.977641723356	398.03569160997733	79	127
398.03569160997733	398.0937414965986	77	127
398.0937414965986	398.25628117913834	75	127
398.0937414965986	398.25628117913834	51	127
398.3839909297052	398.5465306122449	51	127
398.3839909297052	398.5465306122449	67	127
398.3839909297052	398.62780045351474	75	127
398.4652607709751	398.62780045351474	84	127
398.72068027210884	398.89482993197277	65	127
398.72068027210884	398.97609977324265	74	127
398.72068027210884	398.89482993197277	53	127
398.81356009070294	398.97609977324265	82	127
399.0573696145125	399.1502494331066	41	127
399.0573696145125	399.1502494331066	65	127
399.0573696145125	399.1850793650794	72	127
399.09219954648523	399.1850793650794	81	127
399.2663492063492	399.4637188208617	46	127
399.2663492063492	399.44049886621315	74	127
399.2663492063492	399.38244897959186	65	127
399.31278911564624	399.44049886621315	82	127
399.4985487528345	399.66108843537415	65	127
399.4985487528345	399.66108843537415	53	127
399.66108843537415	399.81201814058954	65	127
399.66108843537415	399.81201814058954	53	127
399.8236281179138	400.00938775510207	53	127
399.8236281179138	400.00938775510207	65	127
400.06743764172336	400.20675736961454	53	127
400.06743764172336	400.20675736961454	65	127
400.20675736961454	400.39251700680273	65	127
400.20675736961454	400.39251700680273	53	127
400.39251700680273	400.62471655328795	53	127
400.39251700680273	400.62471655328795	65	127
400.67115646258503	400.79886621315194	53	127
400.67115646258503	400.79886621315194	65	127
400.79886621315194	400.9149659863946	53	127
400.79886621315194	400.9149659863946	65	127
400.9149659863946	401.01945578231295	65	127
400.9149659863946	401.01945578231295	53	127
401.0891156462585	401.25165532879817	67	127
401.0891156462585	401.25165532879817	55	127
401.26326530612243	401.4141950113379	69	127
401.26326530612243	401.4141950113379	57	127
401.4141950113379	401.66961451247164	58	127
401.4141950113379	401.66961451247164	70	127
401.727664399093	401.8785941043084	77	127
401.89020408163265	402.0411337868481	77	127
402.05274376417236	402.2849433106576	77	127
402.34299319727893	402.48231292517005	77	127
402.48231292517005	402.5868027210884	77	127
402.5984126984127	402.8190022675737	77	127
402.877052154195	403.01637188208616	77	127
403.01637188208616	403.14408163265307	77	127
403.14408163265307	403.3646712018141	77	127
403.4111111111111	403.5039909297052	79	127
403.5039909297052	403.6781405895692	81	127
403.6781405895692	403.89873015873013	65	127
403.6781405895692	403.89873015873013	82	127
403.9103401360544	404.0496598639456	67	127
404.06126984126985	404.200589569161	69	127
404.200589569161	404.4443990929705	77	127
404.200589569161	404.4443990929705	70	127
404.4908390022676	404.6649886621315	79	127
404.6765986394558	404.8275283446712	81	127
404.8275283446712	404.9784580498866	65	127
404.8275283446712	404.9784580498866	82	127
405.01328798185943	405.129387755102	67	127
405.129387755102	405.29192743764173	69	127
405.303537414966	405.41963718820864	77	127
405.303537414966	405.41963718820864	70	127
405.46607709750566	405.6402267573696	79	127
405.6402267573696	405.8143764172336	81	127
405.8143764172336	406.1162358276644	82	127
405.8143764172336	406.1162358276644	65	127
406.13945578231295	406.27877551020407	67	127
406.27877551020407	406.4413151927438	69	127
406.4413151927438	406.69673469387754	70	127
406.4413151927438	406.69673469387754	77	127
406.7547845804989	406.89410430839	79	127
406.9057142857143	406.97537414965984	81	127
406.97537414965984	407.1843537414966	65	127
406.97537414965984	407.1843537414966	82	127
407.2424036281179	407.335283446712	67	127
407.3468934240363	407.4978231292517	69	127
407.50943310657595	407.69519274376415	77	127
407.50943310657595	407.69519274376415	70	127
407.7532426303855	407.9041723356009	79	127
407.9041723356009	408.0783219954649	81	127
408.0899319727891	408.3453514739229	82	127
408.4034013605442	408.5659410430839	70	127
408.5659410430839	408.74009070294784	70	127
408.74009070294784	409.0419501133787	70	127
409.1	409.2625396825397	70	127
409.2625396825397	409.42507936507934	70	127
409.42507936507934	409.7269387755102	70	127
409.7849886621315	409.9707482993197	70	127
409.9707482993197	410.14489795918365	70	127
410.14489795918365	410.30743764172337	70	127
410.30743764172337	410.40031746031747	70	127
410.40031746031747	410.89954648526077	70	127
410.40031746031747	410.5280272108844	58	127
410.96920634920633	411.53809523809525	62	127
410.96920634920633	411.53809523809525	74	127
411.6193650793651	411.7006349206349	50	127
411.6193650793651	411.75868480725626	62	127
411.8980045351474	411.967664399093	52	127
411.8980045351474	412.00249433106575	64	127
412.1418140589569	412.22308390022675	53	127
412.1418140589569	412.22308390022675	65	127
412.22308390022675	412.31596371882085	67	127
412.22308390022675	412.31596371882085	55	127
412.31596371882085	412.3972335600907	53	127
412.31596371882085	412.3972335600907	65	127
412.3972335600907	412.4901133786848	55	127
412.3972335600907	412.4901133786848	67	127
412.4901133786848	412.53655328798186	53	127
412.4901133786848	412.53655328798186	65	127
412.53655328798186	412.58299319727894	67	127
412.53655328798186	412.58299319727894	55	127
412.58299319727894	412.66426303854877	64	127
412.58299319727894	412.66426303854877	52	127
412.66426303854877	412.7455328798186	65	127
412.66426303854877	412.7455328798186	53	127
412.7455328798186	412.9661224489796	70	127
412.7455328798186	412.9661224489796	46	127
413.0241723356009	413.1867120181406	70	127
413.1983219954649	413.3724716553288	70	127
413.3724716553288	413.6627210884354	70	127
413.72077097505667	413.89492063492065	70	127
413.9065306122449	414.0690702947846	70	127
414.08068027210885	414.3709297052154	70	127
414.4289795918367	414.6031292517007	70	127
414.6031292517007	414.7540589569161	70	127
414.76566893424035	414.98625850340136	70	127
414.98625850340136	415.03269841269844	70	127
415.03269841269844	415.1836281179138	70	127
415.1836281179138	415.53192743764174	58	127
415.1836281179138	415.53192743764174	70	127
415.61319727891157	416.0079365079365	62	127
415.61319727891157	416.0079365079365	74	127
416.08920634920634	416.1936961451247	50	127
416.08920634920634	416.27496598639453	62	127
416.4142857142857	416.472335600907	52	127
416.4142857142857	416.58843537414964	64	127
416.6697052154195	416.75097505668936	66	127
416.6697052154195	416.75097505668936	54	127
416.75097505668936	416.8322448979592	53	127
416.75097505668936	416.8322448979592	65	127
416.8322448979592	416.913514739229	66	127
416.8322448979592	416.913514739229	55	127
416.913514739229	416.97156462585036	53	127
416.913514739229	416.97156462585036	65	127
416.97156462585036	417.0412244897959	55	127
416.97156462585036	417.0412244897959	66	127
417.0412244897959	417.13410430839	53	127
417.0412244897959	417.13410430839	65	127
417.13410430839	417.21537414965985	66	127
417.13410430839	417.21537414965985	55	127
417.21537414965985	417.2966439909297	63	127
417.21537414965985	417.2966439909297	51	127
417.2966439909297	417.35469387755103	53	127
417.2966439909297	417.35469387755103	65	127
417.35469387755103	417.62172335600906	66	127
417.35469387755103	417.62172335600906	54	127
417.6797732426304	417.85392290249433	70	127
417.85392290249433	418.02807256235826	70	127
418.02807256235826	418.3183219954648	70	127
418.3763718820862	418.5505215419501	70	127
418.5505215419501	418.72467120181403	70	127
418.72467120181403	419.01492063492066	70	127
419.07297052154195	419.2355102040816	70	127
419.2471201814059	419.4096598639456	70	127
419.42126984126986	419.52575963718823	70	127
419.5373696145125	419.69990929705216	70	127
419.69990929705216	419.83922902494334	70	127
419.85083900226755	419.9901587301587	70	127
419.85083900226755	420.0365986394558	66	127
420.0830385487528	420.33845804988664	73	127
420.0830385487528	420.57065759637186	70	127
420.3616780045351	420.4081179138322	73	127
420.48938775510203	420.5474376417234	73	127
420.66353741496596	420.74480725623584	58	127
420.66353741496596	420.8260770975057	78	127
420.98861678004533	421.0698866213152	61	127
420.98861678004533	421.15115646258505	80	127
421.3136961451247	421.592335600907	82	127
421.3136961451247	421.92902494331065	66	127
421.6736054421769	421.7200453514739	82	127
421.8477551020408	421.9058049886621	82	127
422.0102947845805	422.59079365079367	70	127
422.0102947845805	422.27732426303857	78	127
422.33537414965986	422.3934240362812	78	127
422.4979138321996	422.55596371882086	78	127
422.6372335600907	422.68367346938777	73	127
422.6372335600907	422.69528344671204	58	127
422.77655328798187	422.8229931972789	75	127
422.92748299319726	422.9507029478458	71	127
422.92748299319726	422.9855328798186	61	127
423.05519274376417	423.1132426303855	73	127
423.2177324263039	423.38027210884354	70	127
423.2177324263039	423.6124716553288	66	127
423.42671201814056	423.4847619047619	70	127
423.55442176870747	423.6124716553288	70	127
423.64730158730157	423.91433106575965	73	127
423.64730158730157	424.1813605442177	70	127
423.9607709750567	423.9956009070295	73	127
424.10009070294785	424.1465306122449	73	127
424.23941043083903	424.4019501133787	78	127
424.23941043083903	424.32068027210886	58	127
424.56448979591835	424.72702947845806	80	127
424.56448979591835	424.64575963718823	61	127
424.8895691609977	425.1565986394558	82	127
424.8895691609977	425.45845804988664	66	127
425.2146485260771	425.2726984126984	82	127
425.37718820861676	425.42362811791384	82	127
425.5397278911565	426.09700680272107	70	127
425.5397278911565	425.8067573696145	78	127
425.86480725623585	425.91124716553287	78	127
426.01573696145124	426.0737868480726	78	127
426.17827664399096	426.2595464852608	58	127
426.17827664399096	426.23632653061225	73	127
426.3524263038549	426.3988662131519	75	127
426.51496598639454	426.5962358276644	61	127
426.51496598639454	426.5730158730159	71	127
426.66589569161	426.7239455782313	73	127
426.8400453514739	427.08385487528346	70	127
426.8400453514739	427.17673469387756	66	127
427.1999546485261	427.4437641723356	73	127
427.1999546485261	427.7107936507937	70	127
427.50181405895694	427.55986394557823	73	127
427.6295238095238	427.68757369614514	73	127
427.8036734693878	427.8849433106576	58	127
427.8036734693878	427.96621315192743	78	127
428.1287528344671	428.210022675737	61	127
428.1287528344671	428.2912925170068	82	127
428.477052154195	428.8253514739229	59	127
428.477052154195	428.7673015873016	85	127
428.8253514739229	428.87179138321994	73	127
428.8253514739229	429.1039909297052	68	127
428.9530612244898	428.99950113378685	73	127
429.1039909297052	429.3361904761905	65	127
429.1039909297052	429.1620408163265	73	127
429.2433106575964	429.2897505668934	75	127
429.3942403628118	429.45229024943313	75	127
429.3942403628118	429.46390022675735	61	127
429.54517006802723	429.59160997732425	77	127
429.6960997732426	429.77736961451245	63	127
429.6960997732426	429.75414965986397	77	127
429.84702947845807	429.90507936507936	78	127
430.021179138322	430.1024489795918	65	127
430.021179138322	430.0676190476191	78	127
430.1721088435374	430.1953287981859	80	127
430.28820861678	430.68294784580496	66	127
430.28820861678	430.54362811791384	82	127
430.60167800453513	430.6481179138322	70	127
430.7409977324263	430.99641723356007	73	127
430.7409977324263	431.2750566893424	70	127
431.04285714285714	431.0892970521542	73	127
431.19378684807253	431.2518367346939	73	127
431.35632653061225	431.5188662131519	78	127
431.35632653061225	431.4375963718821	58	127
431.6930158730159	431.7742857142857	61	127
431.6930158730159	431.85555555555555	82	127
432.04131519274375	432.30834467120184	85	127
432.04131519274375	432.3663945578231	59	127
432.3663945578231	432.4244444444444	73	127
432.3663945578231	432.67986394557823	68	127
432.54054421768706	432.5637641723356	73	127
432.67986394557823	432.85401360544216	65	127
432.67986394557823	432.7263038548753	73	127
432.80757369614514	432.8191836734694	75	127
432.8772335600907	432.95850340136053	61	127
432.8772335600907	432.9236734693878	75	127
433.03977324263036	433.0978231292517	77	127
433.2023129251701	433.26036281179137	77	127
433.2023129251701	433.2951927437642	63	127
433.376462585034	433.43451247165535	78	127
433.5390022675737	433.597052154195	78	127
433.5390022675737	433.62027210884355	65	127
433.7015419501134	433.74798185941046	80	127
433.85247165532877	434.4213605442177	78	127
433.85247165532877	435.0134693877551	66	127
434.5026303854875	435.0134693877551	82	127
435.08312925170065	435.9654875283447	70	127
435.08312925170065	435.24566893424037	70	127
435.361768707483	435.5126984126984	73	127
435.6520181405896	436.19768707482996	77	127
435.9654875283447	436.22090702947844	68	127
436.2673469387755	436.78979591836736	80	127
436.2673469387755	437.10326530612247	65	127
436.8594557823129	437.0219954648526	68	127
437.19614512471657	437.30063492063493	73	127
437.19614512471657	437.7302040816327	68	127
437.42834467120184	437.97401360544217	75	127
437.7302040816327	437.9972335600907	66	127
438.055283446712	438.57773242630384	78	127
438.055283446712	438.89120181405895	63	127
438.64739229024946	438.79832199546485	66	127
438.9492517006803	439.0305215419501	71	127
438.9492517006803	439.47170068027214	66	127
439.1930612244898	439.7155102040816	73	127
439.51814058956916	439.56458049886623	58	127
439.6806802721088	439.70390022675736	58	127
439.79678004535145	440.2727891156463	78	127
439.79678004535145	440.05219954648527	61	127
440.11024943310656	440.15668934240364	66	127
440.21473922902493	440.261179138322	66	127
440.3540589569161	440.4933786848073	70	127
440.3540589569161	440.42371882086167	70	127
440.62108843537413	440.7720181405896	72	127
440.62108843537413	440.69074829931975	64	127
440.9461678004535	441.18997732426305	65	127
440.9461678004535	441.46861678004535	74	127
441.24802721088435	441.2944671201814	58	127
441.3989569160998	441.4453968253968	58	127
441.5498866213152	442.10716553287983	77	127
441.5498866213152	441.81691609977327	62	127
441.87496598639456	441.93301587301585	53	127
442.0375056689342	442.09555555555556	53	127
442.10716553287983	442.2697052154195	74	127
442.10716553287983	442.18843537414966	58	127
442.3974149659864	442.5251247165533	77	127
442.3974149659864	442.47868480725623	62	127
442.68766439909297	442.9430839002268	65	127
442.68766439909297	443.0011337868481	75	127
443.0011337868481	443.3029931972789	84	127
443.0011337868481	443.05918367346936	53	127
443.1520634920635	443.19850340136054	53	127
443.3029931972789	443.4307029478458	81	127
443.349433106576	443.38426303854874	55	127
443.47714285714284	443.616462585034	77	127
443.47714285714284	443.5351927437642	55	127
443.6280725623583	443.6629024943311	57	127
443.76739229024946	443.82544217687075	57	127
443.76739229024946	443.8951020408163	79	127
443.8951020408163	443.91832199546485	58	127
443.9995918367347	444.1621315192744	81	127
443.9995918367347	444.04603174603176	58	127
444.1621315192744	444.2201814058957	60	127
444.28984126984125	444.5336507936508	62	127
444.28984126984125	444.8471201814059	82	127
444.5917006802721	444.64975056689343	50	127
444.7542403628118	444.8122902494331	50	127
444.9283900226757	445.50888888888886	86	127
444.9283900226757	445.207029478458	53	127
445.2650793650794	445.3115192743764	53	127
445.42761904761903	445.4856689342404	53	127
445.59015873015875	445.63659863945577	58	127
445.59015873015875	445.6714285714286	74	127
445.82235827664397	445.99650793650795	77	127
445.82235827664397	445.9152380952381	62	127
446.1706575963719	446.3448072562358	75	127
446.1706575963719	446.2983673469388	65	127
446.3448072562358	446.40285714285716	53	127
446.3448072562358	446.68149659863946	84	127
446.5189569160998	446.5770068027211	53	127
446.68149659863946	446.96013605442175	81	127
446.68149659863946	446.73954648526075	53	127
446.8440362811791	446.90208616780046	55	127
447.00657596371883	447.05301587301585	55	127
447.00657596371883	447.12267573696147	77	127
447.12267573696147	447.18072562358276	57	127
447.22716553287984	447.3897052154195	79	127
447.22716553287984	447.27360544217686	57	127
447.4709750566893	447.50580498866213	58	127
447.4709750566893	447.6102947845805	81	127
447.6219047619048	447.6567346938775	60	127
447.7031746031746	448.1559637188209	70	127
447.7031746031746	448.1559637188209	82	127
447.7031746031746	447.9585941043084	62	127
448.2372335600907	448.7945124716553	74	127
448.2372335600907	448.7945124716553	46	127
448.8757823129252	449.0267120181406	62	127
448.8757823129252	448.94544217687076	46	127
449.13120181405895	449.22408163265305	46	127
449.13120181405895	449.3053514739229	65	127
449.4678911564626	450.04839002267573	46	127
449.4678911564626	450.04839002267573	70	127
450.12965986394556	450.7565986394558	74	127
450.12965986394556	450.7565986394558	46	127
450.8378684807256	450.9191383219955	46	127
450.8378684807256	450.95396825396824	62	127
451.11650793650796	451.26743764172335	65	127
451.11650793650796	451.1861678004535	46	127
451.42997732426306	451.9640362811791	70	127
451.42997732426306	451.9640362811791	46	127
452.045306122449	452.6374149659864	46	127
452.045306122449	452.6374149659864	74	127
452.71868480725624	452.7651247165533	46	127
452.71868480725624	452.8347845804989	62	127
452.99732426303854	453.07859410430837	46	127
452.99732426303854	453.15986394557825	65	127
453.31079365079364	453.78680272108846	70	127
453.31079365079364	453.78680272108846	46	127
453.8680725623583	454.40213151927435	46	127
453.8680725623583	454.40213151927435	74	127
454.48340136054424	454.62272108843536	62	127
454.48340136054424	454.5530612244898	46	127
454.78526077097507	454.8665306122449	46	127
454.78526077097507	454.94780045351473	65	127
455.0522902494331	455.51668934240365	70	127
455.0522902494331	455.51668934240365	46	127
455.5979591836735	456.1320181405896	74	127
455.5979591836735	456.1320181405896	46	127
456.2132879818594	456.2481179138322	62	127
456.2132879818594	456.23650793650796	46	127
456.38743764172335	456.5383673469388	65	127
456.38743764172335	456.4687074829932	46	127
456.70090702947846	457.14208616780047	46	127
456.70090702947846	456.991156462585	63	127
456.991156462585	457.21174603174603	72	127
457.21174603174603	457.46716553287985	69	127
457.21174603174603	457.7574149659864	46	127
457.51360544217687	457.6761451247165	65	127
457.83868480725624	457.9199546485261	46	127
457.83868480725624	458.0012244897959	67	127
458.1753741496599	458.3263038548753	69	127
458.1753741496599	458.24503401360545	46	127
458.5004535147392	458.9880725623583	70	127
458.5004535147392	458.9880725623583	46	127
459.0693424036281	459.4524716553288	46	127
459.0693424036281	459.4524716553288	74	127
459.52213151927435	459.64984126984126	62	127
459.52213151927435	459.60340136054424	46	127
459.8239909297052	459.9517006802721	65	127
459.8239909297052	459.9052607709751	46	127
460.10263038548754	460.41609977324265	63	127
460.10263038548754	460.64829931972787	46	127
460.41609977324265	460.7179591836735	72	127
460.7179591836735	461.28684807256235	46	127
460.7179591836735	460.9849886621315	69	127
461.04303854875286	461.2055782312925	65	127
461.37972789115645	461.4609977324263	46	127
461.37972789115645	461.54226757369617	67	127
461.6815873015873	461.7512471655329	46	127
461.6815873015873	461.8092970521542	69	127
461.9834467120181	462.4362358276644	58	127
461.9834467120181	462.19242630385486	70	127
462.2504761904762	462.28530612244896	62	127
462.36657596371884	462.41301587301587	62	127
462.50589569160996	462.7613151927438	65	127
462.50589569160996	463.0631746031746	62	127
462.8077551020408	462.86580498866215	65	127
462.9819047619048	463.0283446712018	65	127
463.14444444444445	463.20249433106574	50	127
463.14444444444445	463.2605442176871	70	127
463.434693877551	463.51596371882084	53	127
463.434693877551	463.5624036281179	72	127
463.7133333333333	464.23578231292515	58	127
463.7133333333333	463.92231292517005	70	127
463.9803628117914	464.0384126984127	62	127
464.14290249433105	464.2009523809524	62	127
464.31705215419504	464.81628117913834	62	127
464.31705215419504	464.5260317460317	65	127
464.5724716553288	464.6305215419501	65	127
464.73501133786846	464.7930612244898	65	127
464.8859410430839	465.0136507936508	70	127
464.8859410430839	464.95560090702946	50	127
465.1645804988662	465.31551020408165	72	127
465.1645804988662	465.2342403628118	53	127
465.4896598639456	465.7682993197279	70	127
465.4896598639456	466.0469387755102	58	127
465.8031292517007	465.84956916099776	74	127
465.96566893424034	466.0121088435374	74	127
466.0701587301587	466.4184580498866	62	127
466.0701587301587	466.1630385487528	77	127
466.2094784580499	466.2443083900227	77	127
466.3371882086168	466.3952380952381	77	127
466.49972789115645	466.59260770975055	50	127
466.49972789115645	466.66226757369617	82	127
466.82480725623583	466.9873469387755	84	127
466.82480725623583	466.90607709750566	53	127
467.1614965986395	467.7071655328798	58	127
467.1614965986395	467.3936961451247	82	127
467.45174603174604	467.49818594104306	74	127
467.6142857142857	467.6839455782313	74	127
467.8000453514739	468.0206349206349	77	127
467.8000453514739	468.1483446712018	62	127
468.0902947845805	468.113514739229	77	127
468.2063945578231	468.3805442176871	82	127
468.2063945578231	468.287664399093	50	127
468.54308390022675	468.6243537414966	53	127
468.54308390022675	468.70562358276646	84	127
468.82172335600904	469.18163265306123	82	127
468.82172335600904	469.18163265306123	58	127
469.22807256235825	469.7505215419501	62	127
469.22807256235825	469.7505215419501	86	127
469.8434013605442	469.98272108843537	62	127
469.8434013605442	469.9130612244898	38	127
470.1336507936508	470.21492063492065	40	127
470.1336507936508	470.2845804988662	64	127
470.4239002267574	470.49356009070294	42	127
470.4239002267574	470.49356009070294	66	127
470.49356009070294	470.54	43	127
470.49356009070294	470.54	67	127
470.54	470.62126984126985	42	127
470.54	470.62126984126985	66	127
470.62126984126985	470.67931972789114	43	127
470.62126984126985	470.67931972789114	67	127
470.67931972789114	470.74897959183676	66	127
470.67931972789114	470.74897959183676	42	127
470.74897959183676	470.7954195011338	67	127
470.74897959183676	470.7954195011338	43	127
470.7954195011338	470.86507936507934	64	127
470.7954195011338	470.86507936507934	40	127
470.86507936507934	470.93473922902496	66	127
470.86507936507934	470.93473922902496	42	127
470.93473922902496	470.9579591836735	43	127
470.93473922902496	470.99278911564625	67	127
471.1321088435374	471.1901587301587	45	127
471.1321088435374	471.21337868480725	69	127
471.27142857142854	471.30625850340135	47	127
471.27142857142854	471.30625850340135	71	127
471.30625850340135	471.3759183673469	48	127
471.30625850340135	471.3759183673469	72	127
471.3759183673469	471.39913832199545	71	127
471.3759183673469	471.39913832199545	47	127
471.39913832199545	471.422358276644	72	127
471.39913832199545	471.422358276644	48	127
471.422358276644	471.5036281179138	47	127
471.422358276644	471.5036281179138	71	127
471.5036281179138	471.57328798185944	48	127
471.5036281179138	471.57328798185944	72	127
471.57328798185944	471.6313378684807	69	127
471.57328798185944	471.6313378684807	45	127
471.6313378684807	471.66616780045354	47	127
471.6313378684807	471.66616780045354	71	127
471.66616780045354	471.7242176870748	48	127
471.66616780045354	471.7706575963719	72	127
471.93319727891156	472.0144671201814	50	127
471.93319727891156	472.084126984127	74	127
472.22344671201813	472.24666666666667	51	127
472.22344671201813	472.24666666666667	75	127
472.3627664399093	472.38598639455785	76	127
472.3627664399093	472.38598639455785	52	127
472.43242630385487	472.4672562358277	53	127
472.43242630385487	472.53691609977324	77	127
472.6530158730159	472.79233560090705	79	127
472.6530158730159	472.7342857142857	55	127
472.8968253968254	473.012925170068	80	127
472.8968253968254	472.966485260771	56	127
473.012925170068	473.1406349206349	81	127
473.012925170068	473.07097505668935	57	127
473.2799546485261	473.70952380952383	82	127
473.2799546485261	473.70952380952383	46	127
473.2799546485261	473.70952380952383	74	127
473.70952380952383	473.9997732426304	74	127
473.70952380952383	473.9997732426304	82	127
473.70952380952383	474.1507029478458	46	127
473.9997732426304	474.0578231292517	80	127
474.0578231292517	474.10426303854877	79	127
474.10426303854877	474.1507029478458	77	127
474.1507029478458	474.25519274376416	51	127
474.1507029478458	474.25519274376416	75	127
474.38290249433106	474.5338321995465	51	127
474.38290249433106	474.5338321995465	67	127
474.38290249433106	474.58027210884353	75	127
474.4641723356009	474.58027210884353	84	127
474.66154195011336	474.76603174603173	74	127
474.66154195011336	474.7195918367347	53	127
474.66154195011336	474.7195918367347	65	127
474.7195918367347	474.76603174603173	82	127
474.8240816326531	474.9634013605442	41	127
474.8240816326531	474.9634013605442	65	127
474.8240816326531	475.0446712018141	72	127
474.89374149659864	475.0446712018141	81	127
475.11433106575964	475.2304308390023	46	127
475.11433106575964	475.16077097505666	65	127
475.11433106575964	475.218820861678	82	127
475.11433106575964	475.218820861678	74	127
475.2304308390023	475.3581405895692	65	127
475.2304308390023	475.3581405895692	53	127
475.3581405895692	475.4626303854875	65	127
475.3581405895692	475.4626303854875	53	127
475.4626303854875	475.6367800453515	65	127
475.4626303854875	475.6367800453515	53	127
475.6832199546485	475.83414965986395	65	127
475.6832199546485	475.83414965986395	53	127
475.83414965986395	475.9154195011338	65	127
475.83414965986395	475.9154195011338	53	127
475.9154195011338	476.1708390022676	65	127
475.9154195011338	476.1708390022676	53	127
476.20566893424035	476.29854875283445	53	127
476.20566893424035	476.29854875283445	65	127
476.29854875283445	476.321768707483	53	127
476.29854875283445	476.321768707483	65	127
476.33337868480726	476.48430839002265	53	127
476.33337868480726	476.48430839002265	65	127
476.51913832199546	476.61201814058956	67	127
476.51913832199546	476.61201814058956	55	127
476.61201814058956	476.73972789115646	57	127
476.61201814058956	476.73972789115646	69	127
476.73972789115646	476.92548752834466	58	127
476.73972789115646	476.92548752834466	70	127
476.92548752834466	477.01836734693876	77	127
476.92548752834466	477.01836734693876	65	127
477.01836734693876	477.1809070294785	65	127
477.01836734693876	477.1809070294785	77	127
477.1809070294785	477.4014965986395	65	127
477.1809070294785	477.4014965986395	77	127
477.43632653061223	477.5756462585034	77	127
477.43632653061223	477.5756462585034	65	127
477.5756462585034	477.69174603174605	77	127
477.5756462585034	477.69174603174605	65	127
477.69174603174605	477.83106575963717	77	127
477.69174603174605	477.83106575963717	65	127
477.84267573696144	477.93555555555554	77	127
477.84267573696144	477.93555555555554	65	127
477.9471655328798	478.0748752834467	77	127
477.9471655328798	478.0748752834467	65	127
478.0748752834467	478.2258049886621	77	127
478.0748752834467	478.2258049886621	65	127
478.2606349206349	478.307074829932	79	127
478.2606349206349	478.307074829932	65	127
478.307074829932	478.41156462585036	65	127
478.307074829932	478.41156462585036	81	127
478.41156462585036	478.6089342403628	82	127
478.41156462585036	478.6089342403628	65	127
478.65537414965985	478.7714739229025	67	127
478.7714739229025	478.91079365079366	69	127
478.91079365079366	479.0733333333333	70	127
478.91079365079366	479.0733333333333	77	127
479.0733333333333	479.1778231292517	79	127
479.1778231292517	479.3055328798186	81	127
479.3055328798186	479.46807256235826	82	127
479.3055328798186	479.46807256235826	65	127
479.4912925170068	479.60739229024944	67	127
479.60739229024944	479.677052154195	69	127
479.677052154195	479.897641723356	70	127
479.677052154195	479.897641723356	77	127
479.92086167800454	480.01374149659864	79	127
480.0253514739229	480.16467120181403	81	127
480.16467120181403	480.38526077097504	82	127
480.16467120181403	480.38526077097504	65	127
480.42009070294785	480.47814058956914	67	127
480.47814058956914	480.559410430839	69	127
480.559410430839	480.76839002267576	77	127
480.559410430839	480.76839002267576	70	127
480.78	480.8380498866213	79	127
480.8496598639456	480.9889795918367	81	127
480.9889795918367	481.2095691609977	65	127
480.9889795918367	481.2095691609977	82	127
481.2443990929705	481.3372789115646	67	127
481.3372789115646	481.41854875283445	69	127
481.41854875283445	481.54625850340136	65	127
481.41854875283445	481.54625850340136	70	127
481.58108843537417	481.73201814058956	67	127
481.73201814058956	481.87133786848074	69	127
481.87133786848074	482.09192743764174	53	127
481.87133786848074	482.09192743764174	70	127
482.13836734693876	482.2196371882086	55	127
482.2196371882086	482.3125170068027	57	127
482.3125170068027	482.4402267573696	65	127
482.3125170068027	482.4402267573696	58	127
482.4866666666667	482.5795464852608	67	127
482.5795464852608	482.71886621315195	69	127
482.71886621315195	482.92784580498864	70	127
482.71886621315195	482.92784580498864	53	127
482.96267573696144	483.032335600907	55	127
483.032335600907	483.09038548752835	57	127
483.09038548752835	483.21809523809526	58	127
483.09038548752835	483.21809523809526	65	127
483.2645351473923	483.40385487528346	67	127
483.40385487528346	483.53156462585036	69	127
483.53156462585036	483.7521541950113	53	127
483.53156462585036	483.7521541950113	70	127
483.7869841269841	483.8798639455782	55	127
483.8798639455782	483.9495238095238	57	127
483.9495238095238	484.18172335600906	58	127
483.9495238095238	484.18172335600906	77	127
484.22816326530614	484.30943310657597	79	127
484.30943310657597	484.40231292517007	81	127
484.40231292517007	484.6112925170068	82	127
484.40231292517007	484.6112925170068	65	127
484.6112925170068	484.7390022675737	67	127
484.7390022675737	484.8434920634921	69	127
484.8434920634921	485.0756916099773	70	127
484.8434920634921	485.0756916099773	77	127
485.1221315192744	485.1453514739229	79	127
485.1569614512472	485.28467120181404	81	127
485.2962811791383	485.3891609977324	82	127
486.17863945578233	486.3760090702948	60	127
486.17863945578233	486.4224489795918	72	127
486.17863945578233	486.25990929705216	65	127
486.17863945578233	486.3760090702948	53	127
486.1902494331066	486.4224489795918	81	127
487.14226757369613	487.39768707482995	53	127
487.14226757369613	487.1887074829932	65	127
487.14226757369613	487.1887074829932	46	127
487.14226757369613	487.1887074829932	58	127
487.1887074829932	487.39768707482995	74	127
487.1887074829932	487.39768707482995	62	127
487.1887074829932	487.39768707482995	82	127
