# onset,offset,note,velocity
19.98	20.5256462585034	45	127
19.98	20.5256462585034	81	127
20.560498866213152	21.09453514739229	81	127
20.560498866213152	21.09453514739229	45	127
21.12938775510204	23.69517006802721	45	127
21.12938775510204	22.975374149659864	81	127
23.03342403628118	23.161133786848072	80	127
23.161133786848072	23.26562358276644	78	127
23.26562358276644	25.18126984126984	76	127
23.822902494331064	24.33374149659864	44	127
24.36857142857143	24.914240362811793	45	127
24.94907029478458	25.494739229024944	49	127
25.25092970521542	25.390249433106575	74	127
25.390249433106575	25.52956916099773	73	127
25.52956916099773	26.063628117913833	44	127
25.52956916099773	25.959138321995464	71	127
25.959138321995464	26.110068027210886	73	127
26.110068027210886	26.551247165532878	69	127
26.110068027210886	26.655736961451247	45	127
26.551247165532878	26.690566893424037	71	127
26.690566893424037	27.213015873015873	68	127
26.690566893424037	27.213015873015873	40	127
29.128662131519274	29.40730158730159	79	127
29.128662131519274	29.709160997732425	38	127
29.743990929705216	30.324489795918367	79	127
29.743990929705216	30.289659863945577	38	127
30.324489795918367	31.8221768707483	38	127
30.324489795918367	31.70607709750567	78	127
31.729297052154195	31.857006802721088	76	127
31.857006802721088	32.25174603174603	74	127
31.857006802721088	32.379455782312924	40	127
32.274965986394555	32.40267573696145	71	127
32.40267573696145	32.78578231292517	69	127
32.40267573696145	32.913492063492065	42	127
32.80902494331066	32.936734693877554	68	127
32.936734693877554	33.30825396825397	69	127
32.936734693877554	33.44757369614513	39	127
33.3314739229025	33.47079365079365	66	127
33.47079365079365	33.90036281179138	64	127
33.47079365079365	34.01646258503401	40	127
33.911972789115644	34.03968253968254	62	127
34.03968253968254	34.411201814058956	64	127
34.43439909297052	34.60857142857143	66	127
34.60857142857143	34.678231292517005	62	127
34.60857142857143	35.119410430839004	40	127
34.678231292517005	34.747891156462586	64	127
34.747891156462586	35.00331065759637	62	127
35.0265306122449	35.15424036281179	61	127
35.15424036281179	35.58378684807256	62	127
35.618639455782315	35.76956916099773	64	127
35.76956916099773	36.29201814058957	45	127
35.76956916099773	36.29201814058957	61	127
56.388888888888886	59.10562358276644	40	127
57.480226757369614	57.72403628117914	76	127
57.96784580498866	58.583174603174605	76	127
58.583174603174605	59.38426303854875	68	127
59.15206349206349	59.674512471655326	50	127
59.44231292517007	59.570022675736965	71	127
59.570022675736965	59.70934240362812	68	127
59.70934240362812	60.19696145124716	49	127
59.70934240362812	60.0924716553288	69	127
60.115691609977326	60.24340136054422	71	127
60.24340136054422	60.77746031746032	45	127
60.24340136054422	60.649750566893424	73	127
60.67297052154195	60.82390022675737	74	127
60.82390022675737	61.50888888888889	71	127
60.82390022675737	63.494195011337865	40	127
61.5669387755102	61.71786848072562	74	127
61.71786848072562	61.88040816326531	71	127
61.88040816326531	62.27514739229025	73	127
62.298367346938775	62.42607709750567	68	127
62.42607709750567	62.80920634920635	69	127
62.832426303854874	62.96013605442177	66	127
62.96013605442177	63.494195011337865	71	127
65.47950113378685	66.02517006802721	42	127
65.47950113378685	66.02517006802721	78	127
66.06	66.6056462585034	78	127
66.06	66.6056462585034	42	127
66.66371882086167	67.75505668934241	42	127
66.66371882086167	68.27750566893424	78	127
67.83632653061224	68.37036281179138	47	127
68.27750566893424	68.40521541950113	71	127
68.40521541950113	68.81156462585034	83	127
68.40521541950113	68.90444444444445	40	127
68.81156462585034	68.93927437641723	76	127
68.93927437641723	69.33401360544218	81	127
68.93927437641723	69.42689342403628	42	127
69.33401360544218	69.51975056689342	73	127
69.51975056689342	69.97256235827665	78	127
69.51975056689342	70.06544217687075	39	127
69.97256235827665	70.10027210884354	66	127
70.10027210884354	70.49501133786848	64	127
70.10027210884354	70.59950113378684	40	127
70.51820861678004	70.63433106575964	62	127
70.63433106575964	71.06390022675737	64	127
71.07551020408164	71.24965986394558	66	127
71.24965986394558	71.31931972789116	62	127
71.24965986394558	71.72566893424036	40	127
71.31931972789116	71.400589569161	64	127
71.400589569161	71.64439909297052	62	127
71.64439909297052	71.76049886621315	61	127
71.76049886621315	72.15523809523809	62	127
72.17843537414966	72.35260770975057	64	127
72.35260770975057	72.89827664399093	45	127
72.35260770975057	72.89827664399093	61	127
82.55777777777777	82.8015873015873	73	127
82.81319727891156	83.08022675736962	71	127
83.09181405895691	83.35886621315193	69	127
83.3704761904762	83.63750566893424	68	127
83.64911564625851	84.09027210884354	66	127
83.64911564625851	84.09027210884354	51	127
84.11349206349206	84.69401360544218	54	127
84.4385941043084	84.54308390022676	68	127
84.54308390022676	84.63596371882086	66	127
84.63596371882086	84.728820861678	65	127
84.728820861678	84.97265306122449	66	127
84.728820861678	85.21646258503401	57	127
84.98424036281179	85.08875283446712	68	127
85.2512925170068	85.75049886621315	54	127
85.2512925170068	85.3790022675737	69	127
85.52993197278911	85.64603174603175	70	127
85.7853514739229	86.14526077097506	71	127
85.7853514739229	86.27297052154195	56	127
86.16848072562358	86.30780045351474	68	127
86.30780045351474	86.55160997732426	76	127
86.30780045351474	86.760589569161	52	127
86.7954195011338	87.01600907029479	73	127
86.7954195011338	87.25979591836735	64	127
87.02759637188208	87.28301587301587	71	127
87.2946485260771	87.77063492063492	52	127
87.2946485260771	87.51521541950113	69	127
87.52684807256236	87.79387755102042	68	127
87.80548752834467	87.93319727891156	66	127
87.80548752834467	88.30471655328799	57	127
88.08412698412698	88.1770068027211	68	127
88.1770068027211	88.24666666666667	66	127
88.24666666666667	88.33954648526077	65	127
88.33954648526077	88.83877551020409	54	127
88.33954648526077	88.59496598639456	66	127
88.60657596371883	88.72267573696145	68	127
88.87360544217687	89.31478458049887	59	127
88.87360544217687	88.96648526077098	69	127
89.0825850340136	89.19868480725624	70	127
89.34961451247166	89.84884353741496	57	127
89.34961451247166	89.47732426303855	71	127
89.63986394557823	89.70952380952382	68	127
89.89528344671201	90.40612244897959	64	127
89.89528344671201	90.40612244897959	56	127
116.36603174603175	116.88848072562358	45	127
116.36603174603175	116.88848072562358	81	127
116.92331065759637	117.52702947845805	81	127
116.92331065759637	117.52702947845805	45	127
117.5734693877551	119.10598639455782	81	127
117.5734693877551	120.23215419501133	45	127
119.12920634920636	119.2685260770975	80	127
119.2685260770975	119.65165532879818	81	127
119.67487528344671	119.81419501133787	83	127
119.81419501133787	121.41637188208617	76	127
120.3366439909297	120.8707029478458	52	127
120.9055328798186	121.90399092970522	57	127
121.45120181405896	122.53092970521541	69	127
122.53092970521541	123.08820861678005	40	127
122.53092970521541	123.08820861678005	68	127
123.1346485260771	123.69192743764172	45	127
123.1346485260771	123.69192743764172	69	127
124.7368253968254	124.99224489795918	72	127
125.30571428571429	125.95587301587301	72	127
125.95587301587301	126.9659410430839	76	127
127.03560090702948	127.45356009070295	71	127
127.47678004535148	127.5928798185941	69	127
127.5928798185941	127.941179138322	71	127
127.96439909297052	128.09208616780046	72	127
128.09208616780046	128.60292517006803	69	127
129.12539682539682	129.39242630385488	76	127
129.71750566893425	130.22834467120182	76	127
130.22834467120182	131.27324263038548	64	127
131.35451247165534	131.74925170068028	66	127
131.76086167800455	131.9001814058957	64	127
131.9001814058957	132.22526077097507	66	127
132.2368707482993	132.36458049886622	68	127
132.36458049886622	132.840589569161	64	127
133.40945578231293	133.66487528344672	76	127
134.01319727891158	134.54725623582766	76	127
134.54725623582766	135.49927437641725	77	127
135.58054421768708	135.99850340136055	74	127
136.01011337868482	136.1378231292517	76	127
136.1378231292517	136.47448979591837	77	127
136.49773242630386	136.6254195011338	74	127
136.6254195011338	137.5890702947846	79	127
137.67034013605442	138.05346938775511	76	127
138.07668934240363	138.20439909297053	77	127
138.20439909297053	138.50625850340137	79	127
138.52947845804988	138.66879818594106	76	127
138.66879818594106	138.92421768707484	80	127
138.93582766439908	139.20285714285714	81	127
139.2144671201814	139.4698866213152	77	127
139.48149659863947	139.74850340136055	74	127
139.76013605442176	140.2825850340136	72	127
140.3174149659864	140.57283446712017	76	127
140.58444444444444	140.86308390022677	74	127
140.874693877551	141.33909297052153	72	127
141.94278911564626	142.1634013605442	76	127
142.4884807256236	143.02253968253967	76	127
143.02253968253967	144.00938775510204	79	127
143.02253968253967	143.24312925170068	52	127
143.57979591836735	144.09063492063493	52	127
144.09063492063493	145.1239455782313	55	127
144.09063492063493	144.54344671201815	74	127
144.56666666666666	144.70596371882087	72	127
144.70596371882087	145.05428571428573	74	127
145.06589569160997	145.17038548752834	76	127
145.17038548752834	146.18045351473924	77	127
145.17038548752834	145.54190476190476	50	127
145.5651247165533	145.70444444444445	48	127
145.70444444444445	146.09918367346938	50	127
146.12240362811792	146.26172335600907	52	127
146.26172335600907	147.24857142857144	53	127
146.26172335600907	146.6448299319728	72	127
146.66807256235828	146.80739229024942	71	127
146.80739229024942	147.16730158730158	72	127
147.19052154195012	147.32984126984127	74	127
147.32984126984127	148.30507936507937	48	127
147.32984126984127	148.30507936507937	76	127
148.38632653061225	148.7694784580499	77	127
148.38632653061225	148.85074829931972	47	127
148.7694784580499	148.88557823129253	76	127
148.88557823129253	149.31514739229024	74	127
148.88557823129253	149.4196371882086	45	127
149.31514739229024	149.45446712018142	72	127
149.45446712018142	149.95369614512472	72	127
149.45446712018142	150.4645351473923	40	127
149.95369614512472	150.25555555555556	71	127
150.54580498866213	150.7895918367347	76	127
151.1263038548753	151.67197278911564	76	127
151.67197278911564	152.64721088435374	77	127
152.74009070294784	153.1	74	127
153.12321995464853	153.2392970521542	76	127
153.2392970521542	153.61083900226757	78	127
153.6340589569161	153.761768707483	74	127
153.761768707483	154.76022675736962	79	127
154.81827664399094	155.2014058956916	76	127
155.21301587301588	155.34072562358276	78	127
155.34072562358276	155.71224489795918	80	127
155.73546485260772	155.8631746031746	76	127
155.8631746031746	156.28113378684807	81	127
156.28113378684807	156.408820861678	76	127
156.408820861678	156.8384126984127	77	127
156.8384126984127	156.9661224489796	69	127
156.9661224489796	157.44213151927437	72	127
157.47696145124718	157.54662131519274	72	127
157.54662131519274	157.6278911564626	71	127
157.6278911564626	157.69755102040816	72	127
157.69755102040816	157.76721088435374	71	127
157.76721088435374	157.9065306122449	69	127
157.9065306122449	158.0458276643991	71	127
158.0458276643991	158.67278911564625	69	127
167.19448979591837	171.83850340136055	40	127
167.38027210884354	167.5195918367347	64	127
167.5195918367347	167.63569160997733	68	127
167.63569160997733	167.75179138321997	71	127
167.75179138321997	167.85628117913834	76	127
167.85628117913834	167.99560090702948	80	127
167.99560090702948	168.12331065759636	83	127
168.12331065759636	168.22780045351473	80	127
168.22780045351473	168.3322902494331	84	127
168.3322902494331	168.48321995464852	81	127
168.48321995464852	168.6225396825397	78	127
168.6225396825397	168.7734693877551	75	127
168.7734693877551	168.901179138322	72	127
168.901179138322	169.00566893424036	69	127
169.00566893424036	169.13337868480727	66	127
169.13337868480727	169.2843083900227	63	127
169.4468253968254	169.56294784580498	64	127
169.56294784580498	169.72548752834467	68	127
169.72548752834467	169.82997732426304	71	127
169.82997732426304	169.94607709750568	76	127
169.94607709750568	170.07378684807256	80	127
170.07378684807256	170.20149659863947	83	127
170.20149659863947	170.31757369614513	80	127
170.31757369614513	170.44530612244898	84	127
170.44530612244898	170.54979591836735	81	127
170.54979591836735	170.71233560090704	78	127
170.71233560090704	170.8284126984127	75	127
170.8284126984127	170.95614512471656	72	127
170.95614512471656	171.10707482993197	69	127
171.10707482993197	171.2580045351474	66	127
171.2580045351474	171.37410430839003	63	127
171.37410430839003	171.83850340136055	64	127
187.17528344671203	187.75578231292516	81	127
187.17528344671203	187.75578231292516	45	127
187.8022222222222	188.33628117913833	45	127
187.8022222222222	188.33628117913833	81	127
188.38272108843537	190.99496598639456	45	127
188.38272108843537	189.90362811791383	81	127
189.92684807256236	190.05455782312924	80	127
190.05455782312924	190.43768707482994	81	127
190.46090702947845	190.58861678004536	83	127
190.58861678004536	192.1095238095238	76	127
191.12267573696144	191.59868480725623	52	127
191.633514739229	192.59714285714287	57	127
192.13274376417235	193.25891156462586	69	127
193.25891156462586	193.82780045351473	68	127
193.25891156462586	193.82780045351473	40	127
193.86263038548753	194.38507936507938	69	127
193.86263038548753	194.38507936507938	45	127
205.39133786848072	205.9950566893424	78	127
205.39133786848072	205.9950566893424	42	127
206.06471655328798	206.61038548752833	42	127
206.06471655328798	206.61038548752833	78	127
206.64521541950114	208.18934240362813	78	127
206.64521541950114	207.67850340136056	42	127
207.7597732426304	208.28222222222223	47	127
208.18934240362813	208.317052154195	71	127
208.317052154195	208.68857142857144	83	127
208.317052154195	208.758231292517	40	127
208.68857142857144	208.7930612244898	76	127
208.7930612244898	209.199410430839	81	127
208.7930612244898	209.33873015873016	42	127
209.199410430839	209.37356009070294	73	127
209.37356009070294	209.81473922902495	78	127
209.37356009070294	209.93083900226756	39	127
209.81473922902495	209.96566893424037	66	127
209.96566893424037	210.47650793650794	40	127
209.96566893424037	210.37201814058957	69	127
210.38362811791384	210.51133786848072	68	127
210.51133786848072	210.89446712018142	69	127
210.91768707482993	211.06861678004535	71	127
211.06861678004535	211.13827664399093	68	127
211.06861678004535	211.66072562358278	40	127
211.13827664399093	211.23115646258503	69	127
211.23115646258503	211.54462585034014	68	127
211.5562358276644	211.69555555555556	66	127
211.69555555555556	212.10190476190476	68	127
212.1251247165533	212.28766439909296	64	127
212.28766439909296	212.9378231292517	69	127
212.28766439909296	212.9378231292517	45	127
217.98816326530613	218.16231292517006	62	127
217.98816326530613	218.9750113378685	52	127
218.16231292517006	218.26680272108842	64	127
218.26680272108842	218.35968253968255	68	127
218.35968253968255	218.46417233560092	64	127
218.46417233560092	218.62671201814058	62	127
218.62671201814058	218.76603174603176	64	127
218.76603174603176	218.92857142857142	62	127
218.92857142857142	219.0911111111111	64	127
219.0911111111111	219.2536507936508	61	127
219.0911111111111	220.07795918367347	52	127
219.2536507936508	219.35814058956916	64	127
219.35814058956916	219.4974603174603	69	127
219.4974603174603	219.62517006802722	64	127
219.62517006802722	219.7528798185941	61	127
219.7528798185941	219.86897959183673	64	127
219.86897959183673	220.03151927437642	61	127
220.03151927437642	220.1592290249433	57	127
220.1592290249433	220.29854875283448	56	127
220.1592290249433	220.64684807256236	52	127
220.29854875283448	220.43786848072563	57	127
220.43786848072563	220.55396825396826	59	127
220.55396825396826	220.68167800453514	61	127
220.68167800453514	220.7861678004535	62	127
220.68167800453514	221.15768707482994	40	127
220.7861678004535	220.92548752834466	59	127
220.92548752834466	221.06480725623584	64	127
221.06480725623584	221.21573696145126	62	127
221.21573696145126	221.71496598639456	45	127
221.21573696145126	221.71496598639456	61	127
222.38834467120182	222.66698412698412	81	127
222.38834467120182	222.66698412698412	66	127
222.6785941043084	222.9572335600907	80	127
222.6785941043084	222.9572335600907	64	127
222.96884353741495	223.25909297052155	78	127
222.96884353741495	223.25909297052155	62	127
223.2707029478458	223.51451247165534	76	127
223.2707029478458	223.51451247165534	61	127
223.52612244897958	223.8047619047619	73	127
223.52612244897958	223.8047619047619	58	127
223.8047619047619	224.07179138321996	74	127
223.8047619047619	224.07179138321996	59	127
224.08340136054423	224.19950113378684	74	127
224.08340136054423	224.19950113378684	59	127
224.38526077097507	224.42009070294785	76	127
224.38526077097507	224.42009070294785	61	127
224.42009070294785	224.45492063492063	74	127
224.42009070294785	224.45492063492063	59	127
224.45492063492063	224.47814058956916	76	127
224.45492063492063	224.47814058956916	61	127
224.47814058956916	224.51297052154194	74	127
224.47814058956916	224.51297052154194	59	127
224.51297052154194	224.58263038548753	73	127
224.51297052154194	224.58263038548753	58	127
224.58263038548753	224.66390022675736	59	127
224.58263038548753	224.66390022675736	74	127
224.66390022675736	224.98897959183674	78	127
224.66390022675736	224.98897959183674	62	127
225.000589569161	225.24439909297053	76	127
225.000589569161	225.24439909297053	61	127
225.2560090702948	225.51142857142858	74	127
225.2560090702948	225.51142857142858	59	127
225.52303854875282	225.7784580498866	73	127
225.52303854875282	225.7784580498866	57	127
225.79006802721088	226.20802721088435	70	127
225.79006802721088	226.20802721088435	55	127
226.20802721088435	226.4750566893424	71	127
226.20802721088435	226.4750566893424	56	127
226.48666666666668	226.6027664399093	71	127
226.48666666666668	226.6027664399093	56	127
226.76530612244898	226.86979591836734	71	127
226.76530612244898	226.86979591836734	56	127
227.03233560090703	227.83342403628117	71	127
227.03233560090703	227.83342403628117	56	127
227.8914739229025	227.9495238095238	73	127
227.8914739229025	227.9495238095238	57	127
227.9495238095238	228.0191836734694	71	127
227.9495238095238	228.0191836734694	56	127
228.0191836734694	228.08884353741496	54	127
228.0191836734694	228.08884353741496	69	127
228.08884353741496	228.15850340136055	71	127
228.08884353741496	228.15850340136055	56	127
228.15850340136055	228.97120181405896	73	127
228.15850340136055	228.97120181405896	57	127
229.04086167800455	229.09891156462584	59	127
229.04086167800455	229.09891156462584	74	127
229.09891156462584	229.16857142857143	57	127
229.09891156462584	229.16857142857143	73	127
229.16857142857143	229.26145124716552	71	127
229.16857142857143	229.26145124716552	56	127
229.26145124716552	229.3311111111111	57	127
229.26145124716552	229.3311111111111	73	127
229.3311111111111	229.81873015873015	56	127
229.3311111111111	229.70263038548754	74	127
229.72585034013605	229.85356009070296	71	127
229.85356009070296	230.2482993197279	76	127
229.85356009070296	230.38761904761904	40	127
230.27151927437643	230.42244897959185	68	127
230.42244897959185	230.93328798185942	45	127
230.42244897959185	230.93328798185942	69	127
242.6825850340136	242.9612244897959	79	127
242.6825850340136	243.28630385487529	38	127
243.32113378684807	243.9132426303855	38	127
243.32113378684807	243.94807256235828	79	127
243.94807256235828	245.52702947845805	38	127
243.94807256235828	245.4109297052154	78	127
245.43414965986395	245.5502494331066	76	127
245.5502494331066	245.89854875283447	74	127
245.5502494331066	246.02625850340135	40	127
245.92176870748298	246.0494784580499	71	127
246.0494784580499	246.50226757369614	69	127
246.0494784580499	246.62997732426305	42	127
246.52548752834468	246.66480725623583	68	127
246.66480725623583	247.09437641723355	69	127
246.66480725623583	247.22208616780046	39	127
247.1175963718821	247.24530612244897	66	127
247.24530612244897	247.6516553287982	64	127
247.24530612244897	247.7677551020408	40	127
247.6748752834467	247.80258503401362	62	127
247.80258503401362	248.19732426303855	64	127
248.22054421768706	248.35986394557824	66	127
248.35986394557824	248.4295238095238	62	127
248.35986394557824	248.8707029478458	40	127
248.4295238095238	248.4991836734694	64	127
248.4991836734694	248.73138321995464	62	127
248.75460317460318	248.9055328798186	61	127
248.9055328798186	249.4047619047619	62	127
249.42798185941044	249.55569160997732	64	127
249.55569160997732	250.0665306122449	45	127
249.55569160997732	250.0665306122449	61	127
250.86761904761906	250.93727891156462	71	127
250.93727891156462	251.0069387755102	73	127
251.0069387755102	251.262358276644	71	127
251.2855782312925	251.4132879818594	69	127
251.4132879818594	251.81963718820862	71	127
251.84285714285716	251.97056689342404	73	127
251.97056689342404	252.4814058956916	69	127
255.80185941043084	256.08049886621313	64	127
255.80185941043084	256.08049886621313	62	127
256.42879818594105	256.6609977324263	64	127
256.42879818594105	256.6609977324263	62	127
257.06734693877553	257.6710657596372	61	127
257.06734693877553	257.6710657596372	64	127
258.3908843537415	258.808843537415	80	127
258.3908843537415	258.808843537415	59	127
258.8320408163265	258.97138321995465	81	127
258.8320408163265	258.97138321995465	61	127
258.97138321995465	259.42417233560093	78	127
258.97138321995465	259.42417233560093	57	127
259.44736961451247	259.5867120181406	80	127
259.44736961451247	259.5867120181406	59	127
259.5867120181406	260.10916099773243	81	127
259.5867120181406	260.10916099773243	61	127
