# onset,offset,note,velocity
0.034058956916099774	0.7422675736961452	64	127
0.034058956916099774	0.4520181405895692	73	127
0.034058956916099774	0.4520181405895692	57	127
0.7770975056689342	1.5201360544217688	73	127
0.7770975056689342	2.553424036281179	57	127
0.7770975056689342	1.5201360544217688	64	127
1.5201360544217688	2.553424036281179	76	127
1.5201360544217688	2.553424036281179	61	127
2.6927437641723357	4.225260770975057	62	127
2.6927437641723357	5.27015873015873	57	127
2.6927437641723357	3.122312925170068	71	127
3.145532879818594	3.2616326530612243	69	127
3.2616326530612243	3.644761904761905	71	127
3.667981859410431	3.7724716553287982	73	127
3.7724716553287982	4.318140589569161	66	127
4.248458049886621	4.341360544217687	61	127
4.341360544217687	4.852199546485261	68	127
4.341360544217687	4.73609977324263	62	127
4.759319727891157	4.88702947845805	64	127
4.88702947845805	5.363038548752835	61	127
4.88702947845805	5.363038548752835	69	127
5.397868480725624	5.92031746031746	56	127
5.397868480725624	5.92031746031746	71	127
5.397868480725624	5.92031746031746	64	127
5.955147392290249	6.489206349206349	57	127
5.955147392290249	7.023265306122449	64	127
5.955147392290249	6.489206349206349	73	127
6.524036281179138	7.069705215419501	61	127
6.524036281179138	7.069705215419501	69	127
7.104535147392291	7.650204081632653	56	127
7.104535147392291	7.499274376417233	74	127
7.104535147392291	7.650204081632653	71	127
7.52249433106576	7.685034013605442	76	127
7.685034013605442	8.20748299319728	57	127
7.685034013605442	8.068163265306122	73	127
7.685034013605442	8.20748299319728	69	127
8.091383219954649	8.242312925170069	74	127
8.242312925170069	8.753151927437642	56	127
8.242312925170069	8.753151927437642	52	127
8.242312925170069	8.753151927437642	71	127
8.787981859410431	9.031791383219955	64	127
9.391700680272109	9.658730158730158	64	127
9.391700680272109	9.658730158730158	73	127
9.391700680272109	9.658730158730158	57	127
9.97219954648526	10.54108843537415	73	127
9.97219954648526	10.575918367346938	64	127
9.97219954648526	11.725283446712018	57	127
10.575918367346938	11.481496598639456	76	127
10.575918367346938	11.725283446712018	61	127
11.539546485260772	11.667256235827665	74	127
11.667256235827665	11.80657596371882	73	127
11.80657596371882	13.304263038548752	62	127
11.80657596371882	12.201315192743763	71	127
11.80657596371882	14.418820861678004	57	127
12.22453514739229	12.363854875283447	70	127
12.363854875283447	12.746984126984128	71	127
12.770204081632652	12.897913832199546	73	127
12.897913832199546	13.431972789115646	66	127
13.327482993197279	13.466802721088435	61	127
13.466802721088435	13.838321995464852	62	127
13.466802721088435	13.954421768707483	68	127
13.861541950113379	14.012471655328799	64	127
14.012471655328799	14.511700680272108	69	127
14.012471655328799	14.511700680272108	61	127
14.546530612244897	15.022539682539682	64	127
14.546530612244897	15.022539682539682	56	127
14.546530612244897	15.022539682539682	71	127
15.057369614512472	15.579818594104308	64	127
15.057369614512472	15.452108843537415	73	127
15.057369614512472	15.579818594104308	57	127
15.475328798185942	15.614648526077097	71	127
15.614648526077097	16.032607709750568	73	127
16.055827664399093	16.20673469387755	74	127
16.20673469387755	16.717573696145124	62	127
16.20673469387755	16.717573696145124	52	127
16.20673469387755	16.717573696145124	56	127
16.20673469387755	16.276394557823128	71	127
16.276394557823128	16.34607709750567	73	127
16.34607709750567	16.57827664399093	71	127
16.601496598639457	16.752426303854875	69	127
16.752426303854875	17.19360544217687	71	127
17.216825396825396	17.37936507936508	73	127
17.37936507936508	17.94825396825397	69	127
17.37936507936508	17.94825396825397	57	127
17.37936507936508	17.94825396825397	61	127
17.983061224489795	18.923492063492063	45	127
18.958321995464853	19.19049886621315	64	127
18.958321995464853	19.19049886621315	73	127
18.958321995464853	19.19049886621315	57	127
19.469160997732427	21.0481179138322	57	127
19.469160997732427	19.98	73	127
19.469160997732427	19.98	64	127
19.98	21.0481179138322	76	127
19.98	21.0481179138322	61	127
21.12938775510204	23.69517006802721	57	127
21.12938775510204	21.524126984126983	71	127
21.12938775510204	22.615442176870747	62	127
21.54734693877551	21.69827664399093	69	127
21.69827664399093	22.08140589569161	71	127
22.104603174603174	22.243945578231294	73	127
22.243945578231294	22.74315192743764	66	127
22.638684807256237	22.778004535147392	61	127
22.778004535147392	23.23079365079365	68	127
22.778004535147392	23.14952380952381	62	127
23.161133786848072	23.26562358276644	64	127
23.26562358276644	23.788072562358277	61	127
23.26562358276644	23.788072562358277	69	127
23.822902494331064	24.33374149659864	71	127
23.822902494331064	24.33374149659864	64	127
23.822902494331064	24.33374149659864	56	127
24.36857142857143	24.914240362811793	61	127
24.36857142857143	24.914240362811793	57	127
24.36857142857143	24.914240362811793	73	127
24.94907029478458	26.01718820861678	64	127
24.94907029478458	25.494739229024944	61	127
24.94907029478458	25.494739229024944	69	127
25.52956916099773	26.063628117913833	56	127
25.52956916099773	25.93591836734694	74	127
25.959138321995464	26.110068027210886	76	127
26.110068027210886	26.655736961451247	57	127
26.110068027210886	26.655736961451247	64	127
26.110068027210886	26.528027210884353	73	127
26.551247165532878	26.690566893424037	74	127
26.690566893424037	27.213015873015873	64	127
26.690566893424037	27.213015873015873	52	127
26.690566893424037	27.213015873015873	71	127
27.24784580498866	27.514875283446713	64	127
27.85156462585034	28.165034013605442	57	127
27.85156462585034	28.165034013605442	73	127
27.85156462585034	28.165034013605442	64	127
28.513333333333332	29.07061224489796	73	127
28.513333333333332	29.128662131519274	64	127
28.513333333333332	29.128662131519274	57	127
29.128662131519274	30.243219954648527	58	127
29.128662131519274	29.95297052154195	76	127
29.128662131519274	30.243219954648527	61	127
30.011020408163265	30.161950113378683	74	127
30.161950113378683	30.324489795918367	73	127
30.324489795918367	32.333015873015874	59	127
30.324489795918367	31.70607709750567	62	127
30.324489795918367	30.672789115646257	71	127
30.696009070294785	30.846938775510203	70	127
30.846938775510203	31.195238095238096	71	127
31.21845804988662	31.346167800453514	73	127
31.346167800453514	31.8221768707483	66	127
31.729297052154195	31.857006802721088	61	127
31.857006802721088	32.379455782312924	68	127
31.857006802721088	32.25174603174603	62	127
32.274965986394555	32.40267573696145	64	127
32.40267573696145	32.913492063492065	69	127
32.40267573696145	32.913492063492065	57	127
32.40267573696145	32.913492063492065	61	127
32.936734693877554	33.44757369614513	71	127
32.936734693877554	33.44757369614513	51	127
32.936734693877554	33.44757369614513	54	127
33.47079365079365	33.90036281179138	73	127
33.47079365079365	34.01646258503401	52	127
33.47079365079365	34.01646258503401	57	127
33.911972789115644	34.03968253968254	71	127
34.03968253968254	34.411201814058956	73	127
34.43439909297052	34.60857142857143	74	127
34.60857142857143	35.119410430839004	52	127
34.60857142857143	34.678231292517005	71	127
34.60857142857143	35.119410430839004	56	127
34.678231292517005	34.747891156462586	73	127
34.747891156462586	35.00331065759637	71	127
35.0265306122449	35.15424036281179	69	127
35.15424036281179	35.58378684807256	71	127
35.618639455782315	35.76956916099773	73	127
35.76956916099773	36.29201814058957	57	127
35.76956916099773	36.29201814058957	69	127
35.76956916099773	36.29201814058957	61	127
36.326848072562356	37.02344671201814	45	127
37.05827664399093	37.302086167800454	76	127
37.696825396825396	38.28893424036281	76	127
38.3237641723356	38.62560090702948	59	127
38.3237641723356	39.0784126984127	68	127
38.637233560090706	38.881020408163266	64	127
38.904263038548756	39.12485260770975	62	127
39.13643990929705	39.27578231292517	71	127
39.13643990929705	39.39185941043084	64	127
39.27578231292517	39.40349206349207	68	127
39.40349206349207	39.74018140589569	69	127
39.40349206349207	39.65891156462585	61	127
39.670521541950116	39.879501133786846	64	127
39.76337868480726	39.89108843537415	71	127
39.89108843537415	40.27421768707483	73	127
39.89108843537415	40.14650793650794	57	127
40.158140589569165	40.425170068027214	64	127
40.28585034013606	40.436780045351476	74	127
40.436780045351476	40.703809523809525	56	127
40.436780045351476	40.970839002267574	71	127
40.71541950113379	40.9940589569161	64	127
41.00566893424036	41.249478458049886	52	127
41.26108843537415	41.49328798185941	64	127
41.50489795918367	41.76031746031746	56	127
41.50489795918367	41.72548752834467	76	127
41.77192743764172	42.02734693877551	64	127
42.03895691609977	42.5962358276644	76	127
42.03895691609977	42.30596371882086	59	127
42.31759637188209	42.58462585034014	64	127
42.5962358276644	43.33927437641724	68	127
42.5962358276644	42.87487528344671	62	127
42.886485260770975	43.14190476190476	64	127
43.153514739229024	43.385714285714286	59	127
43.39732426303855	43.606303854875286	64	127
43.39732426303855	43.51342403628118	71	127
43.51342403628118	43.61791383219955	68	127
43.61791383219955	43.96621315192744	69	127
43.61791383219955	43.873333333333335	61	127
43.8849433106576	44.11714285714286	64	127
43.9778231292517	44.12875283446712	71	127
44.12875283446712	44.5118820861678	73	127
44.12875283446712	44.40739229024943	54	127
44.419002267573696	44.66281179138322	57	127
44.53510204081633	44.67442176870748	75	127
44.67442176870748	44.99950113378685	52	127
44.67442176870748	44.99950113378685	76	127
44.67442176870748	44.99950113378685	56	127
45.96312925170068	46.2069387755102	73	127
45.96312925170068	46.2069387755102	64	127
45.96312925170068	46.2069387755102	57	127
46.601678004535145	47.22861678004535	64	127
46.601678004535145	47.1821768707483	73	127
46.601678004535145	47.1821768707483	57	127
47.22861678004535	47.4956462585034	76	127
47.22861678004535	47.96004535147392	61	127
47.22861678004535	47.96004535147392	57	127
47.507233560090704	47.61174603174603	75	127
47.76267573696145	47.86716553287982	74	127
48.00648526077097	48.134195011337866	62	127
48.00648526077097	48.11097505668934	73	127
48.00648526077097	48.134195011337866	59	127
48.134195011337866	48.21546485260771	61	127
48.134195011337866	48.21546485260771	64	127
48.21546485260771	48.72630385487528	62	127
48.21546485260771	48.61020408163265	71	127
48.21546485260771	48.72630385487528	66	127
48.63342403628118	48.76113378684807	70	127
48.76113378684807	49.26036281179138	64	127
48.76113378684807	49.121043083900226	71	127
48.76113378684807	49.26036281179138	61	127
49.14426303854875	49.295192743764176	73	127
49.295192743764176	49.80603174603175	66	127
49.295192743764176	49.80603174603175	63	127
49.295192743764176	49.80603174603175	59	127
49.840861678004536	50.40975056689342	53	127
49.840861678004536	50.40975056689342	62	127
49.840861678004536	50.40975056689342	68	127
50.444580498866216	51.4546485260771	54	127
50.444580498866216	50.96702947845805	69	127
50.444580498866216	50.96702947845805	61	127
51.00185941043084	51.50108843537415	71	127
51.00185941043084	51.50108843537415	63	127
51.00185941043084	51.50108843537415	57	127
51.53591836734694	51.9887074829932	52	127
51.53591836734694	51.88421768707483	73	127
51.53591836734694	51.9887074829932	64	127
51.53591836734694	51.9887074829932	57	127
51.89582766439909	52.011927437641724	71	127
52.011927437641724	52.41827664399093	73	127
52.44149659863945	52.627256235827666	74	127
52.627256235827666	53.12648526077098	62	127
52.627256235827666	53.12648526077098	52	127
52.627256235827666	53.12648526077098	56	127
52.627256235827666	52.68530612244898	71	127
52.68530612244898	52.75496598639456	73	127
52.75496598639456	52.998775510204084	71	127
53.02199546485261	53.161315192743764	69	127
53.161315192743764	53.602494331065756	71	127
53.62571428571429	53.78825396825397	73	127
53.78825396825397	54.39197278911565	57	127
53.78825396825397	54.39197278911565	69	127
53.78825396825397	54.39197278911565	61	127
54.426802721088436	54.972471655328796	45	127
55.00730158730159	55.239501133786845	76	127
55.61102040816326	56.3540589569161	76	127
56.388888888888886	56.667528344671204	59	127
56.388888888888886	57.108707482993196	68	127
56.67913832199547	56.93455782312925	64	127
56.93455782312925	57.2015873015873	62	127
57.213197278911565	57.46861678004535	64	127
57.213197278911565	57.34090702947846	71	127
57.34090702947846	57.480226757369614	68	127
57.480226757369614	57.82852607709751	69	127
57.480226757369614	57.758866213151926	61	127
57.77047619047619	57.9562358276644	64	127
57.85174603174603	57.96784580498866	71	127
57.96784580498866	58.25809523809524	57	127
57.96784580498866	58.362585034013605	73	127
58.25809523809524	58.57156462585034	64	127
58.38580498866213	58.583174603174605	74	127
58.583174603174605	58.81537414965987	56	127
58.583174603174605	59.10562358276644	71	127
58.82698412698413	59.14045351473923	64	127
59.15206349206349	59.4307029478458	52	127
59.44231292517007	59.69773242630386	64	127
59.70934240362812	59.941541950113375	76	127
59.70934240362812	59.97637188208617	56	127
59.98798185941043	60.23179138321996	64	127
60.24340136054422	60.77746031746032	76	127
60.24340136054422	60.52204081632653	59	127
60.53365079365079	60.80068027210884	64	127
60.82390022675737	61.07931972789115	62	127
60.82390022675737	61.50888888888889	68	127
61.09092970521542	61.32312925170068	64	127
61.33473922902494	61.55532879818594	59	127
61.5669387755102	61.868798185941046	64	127
61.5669387755102	61.71786848072562	71	127
61.71786848072562	61.88040816326531	68	127
61.88040816326531	62.27514739229025	69	127
61.88040816326531	62.14743764172336	61	127
62.15904761904762	62.414467120181406	64	127
62.298367346938775	62.42607709750567	71	127
62.42607709750567	62.681496598639455	54	127
62.42607709750567	62.80920634920635	73	127
62.69310657596372	62.96013605442177	57	127
62.832426303854874	62.96013605442177	75	127
62.96013605442177	63.494195011337865	76	127
62.96013605442177	63.494195011337865	56	127
62.96013605442177	63.494195011337865	52	127
64.24884353741497	64.52748299319728	57	127
64.24884353741497	64.52748299319728	73	127
64.24884353741497	64.52748299319728	64	127
64.87578231292517	65.44467120181406	73	127
64.87578231292517	65.47950113378685	57	127
64.87578231292517	65.47950113378685	64	127
65.47950113378685	66.02517006802721	58	127
65.47950113378685	66.280589569161	76	127
65.47950113378685	66.02517006802721	61	127
66.06	66.6056462585034	62	127
66.06	66.6056462585034	59	127
66.33863945578231	66.501179138322	74	127
66.501179138322	66.66371882086167	73	127
66.66371882086167	67.19777777777777	61	127
66.66371882086167	67.08167800453515	71	127
66.66371882086167	67.75505668934241	64	127
67.10489795918367	67.24421768707484	70	127
67.24421768707484	67.80149659863946	58	127
67.24421768707484	67.68539682539682	71	127
67.70861678004535	67.83632653061224	73	127
67.83632653061224	68.37036281179138	66	127
67.83632653061224	68.37036281179138	57	127
67.83632653061224	68.37036281179138	63	127
68.40521541950113	68.90444444444445	68	127
68.40521541950113	68.90444444444445	59	127
68.40521541950113	68.90444444444445	62	127
68.93927437641723	69.42689342403628	69	127
68.93927437641723	69.42689342403628	57	127
68.93927437641723	69.42689342403628	61	127
69.51975056689342	70.06544217687075	71	127
69.51975056689342	70.06544217687075	54	127
69.51975056689342	70.06544217687075	57	127
70.10027210884354	70.49501133786848	73	127
70.10027210884354	70.59950113378684	57	127
70.10027210884354	70.59950113378684	52	127
70.51820861678004	70.63433106575964	71	127
70.63433106575964	71.06390022675737	73	127
71.07551020408164	71.24965986394558	74	127
71.24965986394558	71.72566893424036	56	127
71.24965986394558	71.31931972789116	71	127
71.24965986394558	71.72566893424036	52	127
71.31931972789116	71.400589569161	73	127
71.400589569161	71.64439909297052	71	127
71.64439909297052	71.76049886621315	69	127
71.76049886621315	72.15523809523809	71	127
72.17843537414966	72.35260770975057	73	127
72.35260770975057	72.89827664399093	61	127
72.35260770975057	72.89827664399093	57	127
72.35260770975057	72.89827664399093	69	127
72.93310657596372	73.42072562358277	45	127
73.45553287981859	74.04766439909297	73	127
74.05927437641724	74.31469387755102	71	127
74.32628117913832	74.62816326530613	69	127
74.62816326530613	74.96482993197279	68	127
74.97646258503401	76.93854875283446	47	127
74.97646258503401	76.93854875283446	51	127
74.97646258503401	75.39442176870749	66	127
74.97646258503401	76.93854875283446	57	127
75.68467120181406	75.7659410430839	68	127
75.7659410430839	75.84721088435374	66	127
75.84721088435374	75.94009070294784	65	127
75.94009070294784	76.24192743764172	66	127
76.25356009070295	76.36963718820861	68	127
76.54380952380953	76.6482993197279	69	127
76.84566893424036	76.95015873015873	70	127
77.12430839002268	77.60031746031746	56	127
77.12430839002268	77.49580498866213	71	127
77.12430839002268	77.60031746031746	52	127
77.50743764172336	77.63514739229025	68	127
77.63514739229025	77.9021768707483	76	127
78.18081632653062	78.47106575963718	73	127
78.48267573696145	78.71487528344672	71	127
78.72648526077097	78.99351473922903	69	127
78.99351473922903	79.24893424036281	68	127
79.26054421768707	81.18780045351474	47	127
79.26054421768707	79.37664399092971	66	127
79.26054421768707	81.18780045351474	57	127
79.26054421768707	81.18780045351474	51	127
79.5159410430839	79.5972335600907	68	127
79.5972335600907	79.69011337868481	66	127
79.69011337868481	79.75977324263039	65	127
79.75977324263039	80.0035827664399	66	127
80.01519274376417	80.1312925170068	68	127
80.25900226757369	80.36349206349206	69	127
80.50281179138322	80.61891156462585	70	127
80.78145124716553	80.8859410430839	71	127
81.07170068027212	81.19941043083901	68	127
81.37356009070295	81.88439909297053	52	127
81.37356009070295	81.88439909297053	56	127
81.37356009070295	81.88439909297053	64	127
81.94242630385487	82.45326530612245	40	127
83.64911564625851	85.63442176870748	47	127
83.75360544217688	83.85807256235827	66	127
83.85807256235827	83.98578231292517	81	127
83.98578231292517	84.11349206349206	80	127
84.11349206349206	84.29927437641723	78	127
84.29927437641723	84.4385941043084	76	127
84.4385941043084	84.58952380952381	75	127
84.58952380952381	84.728820861678	73	127
84.728820861678	84.86816326530612	71	127
84.86816326530612	84.98424036281179	69	127
84.98424036281179	85.11195011337868	68	127
85.11195011337868	85.2512925170068	66	127
85.2512925170068	85.40222222222222	64	127
85.40222222222222	85.52993197278911	63	127
85.52993197278911	85.64603174603175	61	127
85.64603174603175	85.7853514739229	59	127
85.7853514739229	86.7257596371882	40	127
85.7853514739229	85.92467120181406	64	127
85.92467120181406	86.05238095238096	59	127
86.05238095238096	86.16848072562358	68	127
86.16848072562358	86.30780045351474	64	127
86.30780045351474	86.42390022675737	71	127
86.42390022675737	86.55160997732426	68	127
86.55160997732426	86.6677097505669	76	127
86.6677097505669	86.7954195011338	71	127
86.7954195011338	86.89988662131519	73	127
86.89988662131519	87.02759637188208	81	127
87.02759637188208	87.1669387755102	71	127
87.1669387755102	87.2946485260771	80	127
87.2946485260771	87.42235827664399	69	127
87.42235827664399	87.52684807256236	78	127
87.52684807256236	87.66614512471655	68	127
87.66614512471655	87.80548752834467	76	127
87.80548752834467	89.23351473922902	47	127
87.80548752834467	87.95641723356009	66	127
87.95641723356009	88.08412698412698	75	127
88.08412698412698	88.21183673469388	85	127
88.21183673469388	88.33954648526077	83	127
88.33954648526077	88.46725623582766	81	127
88.46725623582766	88.60657596371883	80	127
88.60657596371883	88.74589569160997	78	127
88.74589569160997	88.87360544217687	76	127
88.87360544217687	88.97809523809524	75	127
88.97809523809524	89.0825850340136	73	127
89.0825850340136	89.22190476190477	71	127
89.22190476190477	89.34961451247166	69	127
89.34961451247166	89.84884353741496	35	127
89.34961451247166	89.50054421768708	68	127
89.50054421768708	89.63986394557823	66	127
89.63986394557823	89.73274376417234	64	127
89.73274376417234	89.89528344671201	63	127
89.89528344671201	90.40612244897959	40	127
89.89528344671201	90.40612244897959	64	127
90.45253968253968	90.98662131519275	52	127
91.02145124716553	91.31170068027211	76	127
91.32328798185941	91.62517006802722	77	127
91.63678004535147	91.89219954648526	78	127
91.90380952380953	92.15922902494331	73	127
92.17083900226757	92.43786848072563	74	127
92.44947845804988	92.70489795918367	75	127
92.71650793650794	92.97192743764172	76	127
92.98351473922902	93.21571428571428	71	127
93.22734693877551	93.42471655328798	73	127
93.22734693877551	93.42471655328798	64	127
93.43632653061225	93.51759637188209	74	127
93.43632653061225	93.72655328798186	65	127
93.51759637188209	93.59884353741496	73	127
93.59884353741496	93.66852607709751	71	127
93.66852607709751	93.72655328798186	73	127
93.72655328798186	94.02843537414967	66	127
93.72655328798186	94.02843537414967	74	127
94.04004535147392	94.3302947845805	61	127
94.04004535147392	94.3302947845805	70	127
94.34190476190476	94.60893424036281	71	127
94.34190476190476	94.60893424036281	62	127
94.62052154195011	94.91079365079365	63	127
94.62052154195011	94.91079365079365	72	127
94.92240362811792	95.20104308390023	73	127
94.92240362811792	95.20104308390023	64	127
95.21265306122449	95.45646258503402	68	127
95.21265306122449	95.45646258503402	59	127
95.47968253968254	95.72349206349206	69	127
95.47968253968254	95.95569160997732	61	127
95.73510204081633	95.88603174603175	71	127
95.88603174603175	96.00213151927437	73	127
96.00213151927437	96.14145124716553	71	127
96.14145124716553	96.29238095238095	69	127
96.29238095238095	96.44331065759637	68	127
96.44331065759637	96.57102040816326	66	127
96.57102040816326	98.32412698412699	57	127
96.57102040816326	96.6871201814059	64	127
96.57102040816326	98.32412698412699	54	127
96.6871201814059	96.84965986394558	63	127
96.84965986394558	96.98897959183674	66	127
96.98897959183674	97.0934693877551	64	127
97.0934693877551	97.23278911564626	68	127
97.23278911564626	97.3488888888889	66	127
97.3488888888889	97.44176870748299	69	127
97.44176870748299	97.55786848072562	68	127
97.55786848072562	97.61591836734694	71	127
97.61591836734694	97.7552380952381	69	127
97.7552380952381	97.88294784580499	73	127
97.88294784580499	97.99904761904762	71	127
97.99904761904762	98.10353741496598	75	127
98.10353741496598	98.23124716553288	73	127
98.23124716553288	98.35895691609977	76	127
98.35895691609977	98.48666666666666	75	127
98.48666666666666	98.6027664399093	78	127
98.48666666666666	99.39224489795919	52	127
98.48666666666666	99.39224489795919	56	127
98.6027664399093	98.71886621315193	76	127
98.71886621315193	98.77691609977325	71	127
98.81174603174603	98.85818594104309	80	127
98.93945578231292	99.07877551020408	81	127
99.07877551020408	99.21809523809524	80	127
99.21809523809524	99.27614512471655	76	127
99.34580498866214	99.39224489795919	83	127
99.47351473922903	99.61283446712018	85	127
99.61283446712018	99.75215419501134	83	127
99.75215419501134	99.78698412698412	81	127
99.83342403628117	99.86825396825397	80	127
99.94952380952381	100.39070294784581	69	127
99.94952380952381	100.39070294784581	59	127
99.94952380952381	100.39070294784581	66	127
99.94952380952381	100.06562358276643	80	127
100.06562358276643	100.18172335600907	78	127
100.18172335600907	100.22816326530612	76	127
100.2978231292517	100.35587301587302	75	127
100.42553287981859	101.3659410430839	64	127
100.42553287981859	101.3659410430839	68	127
100.42553287981859	100.53002267573696	78	127
100.53002267573696	100.66934240362812	76	127
100.66934240362812	100.71578231292517	71	127
100.78544217687075	100.84349206349206	80	127
100.92476190476191	101.06408163265306	81	127
101.06408163265306	101.1801814058957	80	127
101.1801814058957	101.238231292517	76	127
101.30789115646259	101.3659410430839	83	127
101.43560090702948	101.57492063492063	85	127
101.57492063492063	101.66780045351474	83	127
101.66780045351474	101.70263038548752	81	127
101.76068027210884	101.81873015873016	80	127
101.9	102.42244897959183	69	127
101.9	102.42244897959183	66	127
101.9	102.42244897959183	59	127
101.9	102.03931972789115	80	127
102.03931972789115	102.17863945578232	78	127
102.17863945578232	102.23668934240362	76	127
102.30634920634921	102.36439909297052	75	127
102.45727891156463	103.03777777777778	76	127
102.45727891156463	103.03777777777778	64	127
102.45727891156463	103.03777777777778	68	127
103.07260770975057	103.80403628117914	77	127
103.83886621315193	104.45419501133787	78	127
104.48902494331065	104.54707482993197	80	127
104.54707482993197	104.61673469387755	78	127
104.61673469387755	104.69800453514739	77	127
104.69800453514739	104.74444444444444	78	127
104.74444444444444	104.82571428571428	80	127
104.82571428571428	104.95342403628118	81	127
104.95342403628118	105.08113378684807	81	127
105.08113378684807	105.22045351473923	80	127
105.22045351473923	105.26689342403628	78	127
105.33655328798186	105.39460317460318	76	127
105.47587301587302	105.60358276643991	76	127
105.60358276643991	105.76612244897959	74	127
105.76612244897959	105.80095238095238	73	127
105.88222222222223	105.9518820861678	71	127
106.07959183673469	106.31179138321995	57	127
106.07959183673469	106.31179138321995	61	127
106.07959183673469	106.31179138321995	73	127
106.69492063492063	107.27541950113378	73	127
106.69492063492063	108.32031746031745	61	127
106.69492063492063	108.32031746031745	57	127
107.27541950113378	108.32031746031745	76	127
108.4015873015873	109.84122448979592	62	127
108.4015873015873	110.87451247165532	57	127
108.4015873015873	108.79632653061225	71	127
108.81954648526077	108.97047619047619	69	127
108.97047619047619	109.33038548752835	71	127
109.35360544217687	109.45809523809524	73	127
109.45809523809524	109.95732426303854	66	127
109.86444444444444	109.99215419501134	61	127
109.99215419501134	110.47977324263039	68	127
109.99215419501134	110.36367346938775	62	127
110.38689342403629	110.49138321995464	64	127
110.49138321995464	111.02544217687075	69	127
110.49138321995464	111.02544217687075	61	127
111.06027210884353	111.54789115646258	71	127
111.06027210884353	111.54789115646258	56	127
111.06027210884353	111.54789115646258	64	127
111.58272108843538	112.19804988662132	57	127
111.58272108843538	112.19804988662132	73	127
111.58272108843538	112.73210884353742	64	127
112.2328798185941	112.77854875283447	61	127
112.2328798185941	112.77854875283447	69	127
112.81337868480726	113.2081179138322	74	127
112.81337868480726	113.33582766439909	56	127
112.81337868480726	113.33582766439909	71	127
113.23133786848072	113.37065759637188	76	127
113.37065759637188	113.75378684807256	73	127
113.37065759637188	113.90471655328798	57	127
113.37065759637188	113.90471655328798	69	127
113.77700680272109	113.93954648526078	74	127
113.93954648526078	114.47360544217688	71	127
113.93954648526078	114.47360544217688	52	127
113.93954648526078	114.47360544217688	56	127
114.50843537414966	114.77546485260771	64	127
115.1237641723356	115.37918367346938	57	127
115.1237641723356	115.37918367346938	73	127
115.1237641723356	115.37918367346938	64	127
115.75070294784581	116.36603174603175	64	127
115.75070294784581	118.64158730158731	57	127
115.75070294784581	116.36603174603175	73	127
116.36603174603175	117.15551020408164	76	127
116.36603174603175	117.15551020408164	61	127
117.21356009070294	117.39931972789115	74	127
117.21356009070294	117.39931972789115	62	127
117.39931972789115	117.5734693877551	73	127
117.39931972789115	117.5734693877551	64	127
117.5734693877551	117.99142857142857	71	127
117.5734693877551	118.13074829931973	66	127
118.0146485260771	118.16557823129251	70	127
118.16557823129251	118.68802721088436	64	127
118.16557823129251	118.56031746031746	71	127
118.58353741496599	118.72285714285714	73	127
118.72285714285714	120.20893424036281	57	127
118.72285714285714	119.10598639455782	66	127
118.72285714285714	119.22208616780046	63	127
119.12920634920636	119.2685260770975	64	127
119.2685260770975	119.65165532879818	66	127
119.2685260770975	119.77936507936508	62	127
119.67487528344671	119.81419501133787	68	127
119.81419501133787	120.31342403628118	61	127
119.81419501133787	120.20893424036281	69	127
120.22054421768708	120.3366439909297	68	127
120.22054421768708	120.3366439909297	59	127
120.3366439909297	120.75460317460318	69	127
120.3366439909297	120.75460317460318	61	127
120.76621315192743	120.9055328798186	71	127
120.76621315192743	120.9055328798186	56	127
120.9055328798186	121.28866213151927	73	127
120.9055328798186	121.41637188208617	57	127
121.3118820861678	121.45120181405896	71	127
121.45120181405896	121.95043083900227	54	127
121.45120181405896	121.83433106575964	73	127
121.8459410430839	121.98526077097506	74	127
121.98526077097506	122.48448979591836	50	127
121.98526077097506	122.03170068027211	71	127
122.03170068027211	122.08975056689343	73	127
122.08975056689343	122.35678004535147	71	127
122.38	122.53092970521541	69	127
122.53092970521541	123.08820861678005	52	127
122.53092970521541	123.08820861678005	62	127
122.53092970521541	122.9140589569161	71	127
122.93727891156463	123.1346485260771	73	127
123.1346485260771	123.69192743764172	57	127
123.1346485260771	123.69192743764172	69	127
123.1346485260771	123.69192743764172	52	127
123.72675736961452	124.71360544217687	45	127
125.95587301587301	127.92956916099773	33	127
125.95587301587301	127.92956916099773	45	127
125.95587301587301	126.13002267573697	60	127
126.14163265306122	126.31578231292517	64	127
126.32739229024943	126.48993197278912	69	127
126.50154195011338	126.67569160997732	64	127
126.68730158730159	126.84984126984126	60	127
126.86145124716553	127.02399092970522	57	127
127.03560090702948	127.23297052154194	62	127
127.24458049886621	127.41873015873016	64	127
127.43034013605443	127.5928798185941	68	127
127.5928798185941	127.75541950113379	64	127
127.76702947845806	127.9063492063492	62	127
127.91795918367347	128.08049886621316	59	127
128.09208616780046	128.27786848072563	60	127
128.09208616780046	130.0774149659864	45	127
128.09208616780046	130.0774149659864	33	127
128.2894784580499	128.46362811791383	64	127
128.4752380952381	128.62616780045352	69	127
128.63777777777779	128.80031746031747	64	127
128.8119274376417	128.9628344671202	60	127
128.9744671201814	129.12539682539682	57	127
129.12539682539682	129.3227664399093	60	127
129.33437641723356	129.5201133786848	64	127
129.53174603174602	129.70589569160998	69	127
129.71750566893425	129.88002267573697	64	127
129.89165532879818	130.05419501133787	60	127
130.06580498866214	130.21673469387756	57	127
130.22834467120182	130.7507709750567	52	127
130.22834467120182	130.40249433106575	56	127
130.22834467120182	130.7507709750567	40	127
130.41410430839002	130.59986394557822	59	127
130.6114739229025	130.77401360544218	64	127
130.78562358276645	130.99460317460318	59	127
131.00619047619048	131.18036281179138	56	127
131.19197278911565	131.34290249433107	52	127
131.35451247165534	131.52866213151927	57	127
131.35451247165534	131.8653514739229	47	127
131.35451247165534	131.8653514739229	35	127
131.54027210884354	131.7144217687075	59	127
131.72603174603174	131.88857142857142	63	127
131.9001814058957	132.02786848072563	59	127
132.03950113378684	132.19043083900226	57	127
132.20204081632653	132.36458049886622	54	127
132.36458049886622	132.5271201814059	56	127
132.36458049886622	132.840589569161	40	127
132.5387074829932	132.7128798185941	59	127
132.72448979591837	132.86380952380952	64	127
132.8754195011338	133.04954648526078	59	127
133.061179138322	133.24693877551022	62	127
133.25854875283446	133.39786848072563	64	127
133.40945578231293	133.60684807256237	57	127
133.6184580498866	133.80421768707484	60	127
133.80421768707484	134.0015873015873	64	127
134.01319727891158	134.21056689342404	56	127
134.22215419501134	134.36149659863946	59	127
134.37310657596373	134.5356462585034	64	127
134.54725623582766	134.70979591836735	57	127
134.54725623582766	134.94197278911565	38	127
134.72140589569162	134.89555555555555	60	127
134.91877551020409	135.09290249433107	62	127
134.96521541950113	135.10453514739228	40	127
135.10453514739228	135.27868480725624	65	127
135.10453514739228	135.42961451247166	41	127
135.2902947845805	135.39478458049888	62	127
135.40639455782312	135.5689342403628	60	127
135.44122448979593	135.58054421768708	38	127
135.58054421768708	136.55578231292517	43	127
135.58054421768708	135.76630385487528	59	127
135.77791383219954	135.9636507936508	62	127
135.975283446712	136.12621315192743	65	127
136.1378231292517	136.27714285714285	67	127
136.28875283446712	136.4512925170068	65	127
136.46290249433108	136.6138321995465	62	127
136.6254195011338	136.7995918367347	56	127
136.6254195011338	137.0201814058957	40	127
136.81120181405896	136.98532879818595	60	127
136.99696145124716	137.15950113378685	64	127
137.0434013605442	137.17111111111112	41	127
137.17111111111112	137.3336507936508	67	127
137.17111111111112	137.519410430839	43	127
137.3452380952381	137.48458049886622	64	127
137.49616780045352	137.65873015873015	62	127
137.54263038548754	137.67034013605442	40	127
137.67034013605442	138.5875283446712	45	127
137.67034013605442	137.85607709750568	61	127
137.8677097505669	138.0186394557823	64	127
138.03024943310658	138.20439909297053	67	127
138.20439909297053	138.3321088435374	69	127
138.3321088435374	138.48303854875283	67	127
138.4946485260771	138.6571882086168	64	127
138.66879818594106	138.84294784580499	57	127
138.66879818594106	138.9009977324263	41	127
138.85455782312926	139.01709750566894	62	127
139.02868480725624	139.20285714285714	65	127
139.2144671201814	139.3885941043084	69	127
139.2144671201814	139.44666666666666	41	127
139.4002267573696	139.5627664399093	65	127
139.57437641723357	139.74850340136055	62	127
139.76013605442176	139.93428571428572	64	127
139.76013605442176	139.99233560090704	43	127
139.94589569161	140.12004535147392	67	127
140.1316553287982	140.30578231292517	60	127
140.3174149659864	140.54961451247166	43	127
140.3174149659864	140.49156462585034	65	127
140.5031746031746	140.67732426303854	67	127
140.6889342403628	140.86308390022677	59	127
140.874693877551	141.33909297052153	36	127
140.874693877551	141.0372335600907	60	127
141.0372335600907	141.18816326530612	64	127
141.19977324263039	141.36231292517007	65	127
141.37392290249434	141.55968253968254	67	127
141.58290249433108	141.74544217687074	72	127
141.757052154195	141.93120181405897	67	127
141.94278911564626	142.11696145124716	64	127
142.12857142857143	142.29111111111112	67	127
142.30269841269842	142.4884807256236	64	127
142.4884807256236	142.65102040816328	60	127
142.66260770975057	142.8251700680272	64	127
142.83678004535147	143.01092970521543	60	127
143.02253968253967	143.19668934240363	55	127
143.19668934240363	143.3708390022676	60	127
143.38244897959183	143.56820861678005	64	127
143.57979591836735	143.76557823129252	67	127
143.57979591836735	144.70596371882087	72	127
143.76557823129252	143.91650793650794	64	127
143.9281179138322	144.07904761904763	60	127
144.09063492063493	144.32285714285715	55	127
144.33446712018142	144.50861678004534	60	127
144.5202267573696	144.69437641723357	62	127
144.70596371882087	144.8568934240363	67	127
144.70596371882087	145.1587755102041	71	127
144.8685260770975	145.0310657596372	62	127
145.0310657596372	145.17038548752834	59	127
145.17038548752834	145.33292517006802	53	127
145.3445351473923	145.50707482993198	58	127
145.51868480725625	145.69283446712018	62	127
145.70444444444445	146.80739229024942	70	127
145.70444444444445	145.87857142857143	65	127
145.89020408163265	146.0643537414966	62	127
146.07596371882087	146.2501133786848	58	127
146.26172335600907	146.4126530612245	53	127
146.42426303854876	146.61002267573696	58	127
146.62163265306123	146.79578231292518	60	127
146.80739229024942	146.9699319727891	65	127
146.80739229024942	147.2950113378685	69	127
146.9699319727891	147.1324716553288	60	127
147.14408163265307	147.318231292517	57	127
147.32984126984127	147.48077097505669	52	127
147.32984126984127	148.30507936507937	69	127
147.49238095238096	147.66650793650794	57	127
147.67814058956915	147.86390022675738	60	127
147.87548752834468	148.0148299319728	64	127
148.0264172335601	148.200589569161	60	127
148.21219954648527	148.37473922902495	57	127
148.38632653061225	148.53725623582767	56	127
148.38632653061225	148.74625850340135	74	127
148.54888888888888	148.71142857142857	59	127
148.72303854875284	148.87396825396826	64	127
148.7694784580499	148.88557823129253	72	127
148.88557823129253	149.07133786848073	57	127
148.88557823129253	149.29192743764173	71	127
149.082947845805	149.25707482993198	60	127
149.2687074829932	149.44285714285715	64	127
149.31514739229024	149.45446712018142	69	127
149.45446712018142	149.59378684807257	52	127
149.45446712018142	149.90725623582767	69	127
149.60539682539684	149.76791383219955	57	127
149.76791383219955	149.94208616780045	60	127
149.95369614512472	150.13945578231292	64	127
149.95369614512472	150.25555555555556	68	127
150.1510657596372	150.34843537414966	59	127
150.36004535147393	150.5341723356009	56	127
150.54580498866213	151.5907029478458	52	127
150.54580498866213	150.73156462585035	56	127
150.7431746031746	150.92893424036282	59	127
150.94052154195012	151.11469387755102	64	127
151.1263038548753	151.2772335600907	68	127
151.28884353741498	151.47460317460317	64	127
151.48621315192744	151.66036281179137	59	127
151.67197278911564	151.82290249433106	69	127
151.67197278911564	152.04349206349207	38	127
151.83451247165533	152.0086621315193	65	127
152.02027210884353	152.19442176870749	62	127
152.06668934240363	152.20603174603175	40	127
152.20603174603175	152.35696145124717	57	127
152.20603174603175	152.5659410430839	41	127
152.36857142857144	152.5311111111111	62	127
152.54272108843537	152.71687074829933	65	127
152.58916099773242	152.74009070294784	38	127
152.74009070294784	152.9142403628118	69	127
152.74009070294784	153.69210884353743	48	127
152.92585034013607	153.07678004535148	66	127
153.08836734693878	153.2392970521542	62	127
153.2392970521542	153.40185941043083	57	127
153.40185941043083	153.5760090702948	62	127
153.58761904761906	153.75013605442177	66	127
153.761768707483	153.93591836734694	71	127
153.761768707483	154.14489795918368	40	127
153.9475283446712	154.11004535147393	67	127
154.12167800453514	154.28421768707483	62	127
154.1681179138322	154.2958276643991	41	127
154.2958276643991	154.4583673469388	59	127
154.2958276643991	154.67895691609976	43	127
154.46995464852608	154.64412698412698	62	127
154.65573696145125	154.80666666666667	67	127
154.7021768707483	154.81827664399094	40	127
154.81827664399094	155.79351473922904	50	127
154.81827664399094	154.98079365079366	71	127
154.99242630385487	155.16657596371883	68	127
155.1781859410431	155.32911564625851	64	127
155.34072562358276	155.49163265306123	59	127
155.50326530612244	155.6774149659864	64	127
155.68902494331067	155.8515419501134	68	127
155.8631746031746	156.0837641723356	48	127
155.8631746031746	156.0257142857143	69	127
156.03732426303856	156.22308390022675	64	127
156.23469387755102	156.3972335600907	60	127
156.408820861678	156.6526530612245	50	127
156.408820861678	156.59460317460318	59	127
156.60621315192745	156.78036281179138	62	127
156.79197278911565	156.95451247165533	65	127
156.9661224489796	157.16349206349207	52	127
156.9661224489796	157.11705215419502	64	127
157.12863945578232	157.29120181405895	60	127
157.30281179138322	157.4653514739229	57	127
157.47696145124718	157.66272108843538	56	127
157.47696145124718	157.7207709750567	40	127
157.67433106575965	157.84848072562357	62	127
157.86009070294784	158.0342403628118	64	127
158.0458276643991	158.67278911564625	60	127
158.0458276643991	158.2896598639456	45	127
158.70761904761906	158.96303854875285	57	127
159.49709750566893	159.71768707482994	72	127
159.49709750566893	159.71768707482994	69	127
160.1008163265306	161.795873015873	72	127
160.1008163265306	160.70451247165533	69	127
160.70451247165533	161.795873015873	76	127
160.70451247165533	160.97156462585033	60	127
161.30825396825398	161.90036281179138	60	127
161.90036281179138	162.8639909297052	64	127
161.90036281179138	162.24866213151927	71	127
161.90036281179138	162.24866213151927	68	127
162.2718820861678	162.41120181405896	69	127
162.2718820861678	162.41120181405896	66	127
162.41120181405896	162.78272108843538	71	127
162.41120181405896	162.78272108843538	68	127
162.8059410430839	162.9336507936508	69	127
162.8059410430839	162.9336507936508	72	127
162.9336507936508	163.92049886621317	74	127
162.9336507936508	163.92049886621317	71	127
162.9336507936508	163.30517006802722	59	127
163.32839002267573	163.46768707482994	57	127
163.46768707482994	163.8392290249433	59	127
163.86244897959185	163.99015873015873	60	127
163.99015873015873	164.74478458049887	62	127
163.99015873015873	164.36167800453515	69	127
163.99015873015873	164.36167800453515	66	127
164.38487528344672	164.53580498866214	68	127
164.38487528344672	164.53580498866214	64	127
164.53580498866214	164.884126984127	69	127
164.53580498866214	164.884126984127	66	127
164.79122448979592	164.8957142857143	60	127
164.8957142857143	165.0350566893424	59	127
164.8957142857143	165.0350566893424	68	127
164.8957142857143	165.0350566893424	71	127
165.0350566893424	165.49945578231294	57	127
165.0350566893424	165.49945578231294	69	127
165.0350566893424	165.49945578231294	72	127
165.52267573696145	165.99868480725624	70	127
165.52267573696145	165.99868480725624	55	127
165.52267573696145	165.99868480725624	73	127
166.03351473922902	166.55596371882086	54	127
166.03351473922902	166.55596371882086	74	127
166.03351473922902	166.55596371882086	69	127
166.6024036281179	167.14804988662132	75	127
166.6024036281179	167.14804988662132	53	127
166.6024036281179	167.00875283446712	72	127
167.03197278911566	167.10163265306122	71	127
167.10163265306122	167.19448979591837	69	127
167.19448979591837	167.71696145124716	68	127
167.19448979591837	167.71696145124716	52	127
167.19448979591837	167.71696145124716	76	127
167.19448979591837	167.71696145124716	56	127
168.7734693877551	169.81836734693877	52	127
168.7734693877551	169.2843083900227	57	127
168.7734693877551	168.901179138322	75	127
168.901179138322	169.00566893424036	78	127
169.00566893424036	169.13337868480727	81	127
169.13337868480727	169.2843083900227	84	127
169.2843083900227	169.81836734693877	83	127
169.2843083900227	169.81836734693877	56	127
170.8284126984127	171.37410430839003	57	127
170.8284126984127	171.83850340136055	52	127
170.8284126984127	170.95614512471656	75	127
170.95614512471656	171.10707482993197	78	127
171.10707482993197	171.2580045351474	81	127
171.2580045351474	171.37410430839003	84	127
171.37410430839003	171.83850340136055	56	127
171.37410430839003	171.4901814058957	83	127
171.4901814058957	171.61791383219955	64	127
171.61791383219955	171.74560090702948	68	127
171.74560090702948	171.87333333333333	71	127
171.87333333333333	172.01265306122448	76	127
172.01265306122448	172.12875283446712	80	127
172.12875283446712	172.2332426303855	83	127
172.2332426303855	172.34934240362813	88	127
172.34934240362813	172.48866213151928	78	127
172.48866213151928	172.62798185941043	87	127
172.62798185941043	172.72086167800452	77	127
172.72086167800452	172.8601814058957	86	127
172.8601814058957	172.99950113378685	76	127
172.99950113378685	173.1271882086168	85	127
173.1271882086168	173.2665306122449	75	127
173.2665306122449	173.38260770975057	84	127
173.38260770975057	173.5219501133787	74	127
173.5219501133787	173.62643990929706	78	127
173.62643990929706	173.78895691609978	85	127
173.78895691609978	173.9282993197279	83	127
173.9282993197279	174.0908390022676	73	127
174.0908390022676	174.21854875283447	76	127
174.21854875283447	174.31142857142856	83	127
174.31142857142856	174.43913832199547	81	127
174.43913832199547	174.57845804988662	71	127
174.57845804988662	174.71777777777777	74	127
174.71777777777777	174.85709750566895	81	127
174.85709750566895	175.03124716553287	80	127
175.03124716553287	175.1473469387755	69	127
175.1473469387755	175.26344671201815	73	127
175.26344671201815	175.43759637188208	80	127
175.43759637188208	175.5885260770975	78	127
175.5885260770975	175.7162358276644	68	127
175.7162358276644	175.86716553287982	71	127
175.86716553287982	176.01809523809524	78	127
176.01809523809524	176.1574149659864	76	127
176.1574149659864	176.2967120181406	64	127
176.2967120181406	176.48249433106577	68	127
176.48249433106577	176.62181405895691	76	127
176.62181405895691	176.88884353741497	74	127
176.88884353741497	177.10943310657598	57	127
176.88884353741497	177.10943310657598	64	127
176.88884353741497	177.10943310657598	73	127
177.48095238095237	178.0730612244898	64	127
177.48095238095237	179.12956916099773	57	127
177.48095238095237	178.0730612244898	73	127
178.0730612244898	179.12956916099773	76	127
178.0730612244898	179.12956916099773	61	127
179.24566893424037	180.78979591836736	62	127
179.24566893424037	181.88113378684807	57	127
179.24566893424037	179.68684807256236	71	127
179.7100680272109	179.84938775510204	69	127
179.84938775510204	180.23249433106577	71	127
180.25573696145125	180.40666666666667	73	127
180.40666666666667	180.90589569160997	66	127
180.81301587301587	180.94072562358278	61	127
180.94072562358278	181.43995464852608	68	127
180.94072562358278	181.31224489795918	62	127
181.3354648526077	181.47478458049886	64	127
181.47478458049886	181.98562358276644	69	127
181.47478458049886	181.98562358276644	61	127
182.02043083900227	182.51968253968255	56	127
182.02043083900227	182.51968253968255	71	127
182.02043083900227	182.51968253968255	64	127
182.5661224489796	183.08857142857144	73	127
182.5661224489796	183.62263038548753	64	127
182.5661224489796	183.08857142857144	57	127
183.11179138321995	183.66907029478458	61	127
183.11179138321995	183.66907029478458	69	127
183.6922902494331	184.24956916099774	56	127
183.6922902494331	184.09863945578232	74	127
183.6922902494331	184.24956916099774	71	127
184.12185941043083	184.2727664399093	76	127
184.2727664399093	184.80684807256236	69	127
184.2727664399093	184.80684807256236	57	127
184.2727664399093	184.6791156462585	73	127
184.702358276644	184.8532879818594	74	127
184.8532879818594	185.4221768707483	56	127
184.8532879818594	185.4221768707483	52	127
184.8532879818594	185.4221768707483	71	127
185.45700680272108	185.72403628117914	64	127
186.02589569160997	186.28131519274376	64	127
186.02589569160997	186.28131519274376	57	127
186.02589569160997	186.28131519274376	73	127
186.60639455782314	189.4160090702948	57	127
186.60639455782314	187.17528344671203	73	127
186.60639455782314	187.17528344671203	64	127
187.17528344671203	188.02281179138322	76	127
187.17528344671203	188.02281179138322	61	127
188.0924716553288	188.23179138321996	62	127
188.0924716553288	188.23179138321996	74	127
188.23179138321996	188.38272108843537	73	127
188.23179138321996	188.38272108843537	64	127
188.38272108843537	188.78907029478458	71	127
188.38272108843537	188.90517006802722	66	127
188.81229024943312	188.94	70	127
188.94	189.3463492063492	71	127
188.94	189.46244897959184	64	127
189.36956916099774	189.49727891156462	73	127
189.49727891156462	190.97174603174602	57	127
189.49727891156462	190.01972789115646	63	127
189.49727891156462	189.90362811791383	66	127
189.92684807256236	190.05455782312924	64	127
190.05455782312924	190.43768707482994	66	127
190.05455782312924	190.55378684807258	62	127
190.46090702947845	190.58861678004536	68	127
190.58861678004536	190.97174603174602	69	127
190.58861678004536	191.08784580498866	61	127
190.9833560090703	191.12267573696144	68	127
190.9833560090703	191.12267573696144	59	127
191.12267573696144	191.4825850340136	61	127
191.12267573696144	191.4825850340136	69	127
191.49419501133787	191.633514739229	71	127
191.49419501133787	191.633514739229	56	127
191.633514739229	191.98181405895693	73	127
191.633514739229	192.1095238095238	57	127
192.00503401360544	192.13274376417235	71	127
192.13274376417235	192.64358276643992	54	127
192.13274376417235	192.515873015873	73	127
192.53909297052155	192.6784126984127	74	127
192.6784126984127	192.7480725623583	71	127
192.6784126984127	193.22408163265305	50	127
192.7480725623583	192.8409523809524	73	127
192.8409523809524	193.09637188208617	71	127
193.11959183673468	193.25891156462586	69	127
193.25891156462586	193.82780045351473	62	127
193.25891156462586	193.82780045351473	52	127
193.25891156462586	193.70009070294785	71	127
193.7233106575964	193.86263038548753	73	127
193.86263038548753	194.38507936507938	69	127
193.86263038548753	194.38507936507938	52	127
193.86263038548753	194.38507936507938	57	127
194.41990929705216	194.97718820861678	45	127
195.0352380952381	195.3138775510204	72	127
195.8827664399093	196.40521541950113	72	127
196.45165532879818	197.24113378684808	68	127
196.45165532879818	196.74190476190475	59	127
196.75351473922902	197.0089342403628	64	127
197.02054421768707	197.28757369614513	62	127
197.2991836734694	197.415283446712	71	127
197.2991836734694	197.5546031746032	64	127
197.415283446712	197.56621315192743	68	127
197.56621315192743	197.82163265306122	61	127
197.56621315192743	197.91451247165534	69	127
197.83324263038548	198.0538321995465	64	127
197.93773242630385	198.06544217687076	71	127
198.06544217687076	198.3324716553288	57	127
198.06544217687076	198.43696145124716	73	127
198.3324716553288	198.58789115646258	64	127
198.4601814058957	198.59950113378684	74	127
198.59950113378684	199.15678004535147	71	127
198.59950113378684	198.8897505668934	56	127
198.8897505668934	199.18	64	127
199.19160997732428	199.4354195011338	52	127
199.44702947845806	199.72566893424036	64	127
199.73727891156463	199.99269841269842	76	127
199.73727891156463	200.01591836734693	56	127
200.0275283446712	200.30616780045352	64	127
200.3177777777778	200.5615873015873	59	127
200.3177777777778	200.85183673469388	76	127
200.57319727891158	200.8402267573696	64	127
200.85183673469388	201.59487528344673	68	127
200.85183673469388	201.16530612244898	62	127
201.17691609977325	201.43233560090704	64	127
201.44394557823128	201.6297052154195	59	127
201.64131519274378	201.78063492063492	71	127
201.64131519274378	201.9083446712018	64	127
201.78063492063492	201.91995464852607	68	127
201.91995464852607	202.30308390022677	69	127
201.91995464852607	202.17537414965986	61	127
202.18698412698413	202.43079365079365	64	127
202.314693877551	202.44240362811792	71	127
202.44240362811792	202.81392290249434	73	127
202.44240362811792	202.68621315192743	54	127
202.6978231292517	202.93002267573695	57	127
202.83714285714285	202.94163265306122	75	127
202.94163265306122	203.42925170068028	56	127
202.94163265306122	203.42925170068028	52	127
202.94163265306122	203.0461224489796	76	127
203.197052154195	203.4524716553288	76	127
203.46408163265306	203.75433106575963	75	127
203.7659410430839	204.16068027210883	74	127
204.1722902494331	204.4277097505669	73	127
204.1722902494331	204.4277097505669	57	127
204.1722902494331	204.4277097505669	64	127
204.76439909297054	205.39133786848072	73	127
204.76439909297054	205.39133786848072	57	127
204.76439909297054	205.39133786848072	64	127
205.39133786848072	205.9950566893424	61	127
205.39133786848072	206.27369614512472	76	127
205.39133786848072	205.9950566893424	58	127
206.06471655328798	206.61038548752833	62	127
206.06471655328798	206.61038548752833	59	127
206.33174603174604	206.50589569160996	74	127
206.50589569160996	206.64521541950114	73	127
206.64521541950114	207.05156462585035	71	127
206.64521541950114	207.17927437641723	61	127
206.64521541950114	207.67850340136056	64	127
207.07478458049886	207.22571428571428	70	127
207.22571428571428	207.5972335600907	71	127
207.22571428571428	207.7249433106576	58	127
207.62045351473924	207.7597732426304	73	127
207.7597732426304	208.28222222222223	57	127
207.7597732426304	208.28222222222223	66	127
207.7597732426304	208.28222222222223	63	127
208.317052154195	208.758231292517	62	127
208.317052154195	208.758231292517	59	127
208.317052154195	208.758231292517	68	127
208.7930612244898	209.33873015873016	61	127
208.7930612244898	209.33873015873016	57	127
208.7930612244898	209.33873015873016	69	127
209.37356009070294	209.93083900226756	57	127
209.37356009070294	209.93083900226756	54	127
209.37356009070294	209.93083900226756	71	127
209.96566893424037	210.47650793650794	64	127
209.96566893424037	210.37201814058957	73	127
209.96566893424037	210.47650793650794	52	127
210.38362811791384	210.51133786848072	71	127
210.51133786848072	210.89446712018142	73	127
210.91768707482993	211.06861678004535	74	127
211.06861678004535	211.66072562358278	52	127
211.06861678004535	211.13827664399093	71	127
211.06861678004535	211.66072562358278	62	127
211.13827664399093	211.23115646258503	73	127
211.23115646258503	211.54462585034014	71	127
211.5562358276644	211.69555555555556	69	127
211.69555555555556	212.10190476190476	71	127
212.1251247165533	212.28766439909296	73	127
212.28766439909296	212.9378231292517	69	127
212.28766439909296	212.9378231292517	61	127
212.28766439909296	212.9378231292517	57	127
212.9726530612245	213.58798185941043	45	127
213.6228117913832	213.878231292517	81	127
213.6228117913832	213.878231292517	66	127
213.88984126984127	214.2265306122449	64	127
213.88984126984127	214.2265306122449	80	127
214.2265306122449	214.47034013605443	78	127
214.2265306122449	214.47034013605443	62	127
214.47034013605443	214.760589569161	76	127
214.47034013605443	214.760589569161	61	127
214.77219954648527	215.05083900226757	73	127
214.77219954648527	215.05083900226757	58	127
215.05083900226757	215.27142857142857	74	127
215.05083900226757	215.27142857142857	59	127
215.28303854875284	215.39913832199545	74	127
215.28303854875284	215.39913832199545	59	127
215.53845804988663	215.56167800453514	76	127
215.53845804988663	215.56167800453514	61	127
215.56167800453514	215.59650793650795	74	127
215.56167800453514	215.59650793650795	59	127
215.59650793650795	215.63133786848073	76	127
215.59650793650795	215.63133786848073	61	127
215.63133786848073	215.6661678004535	74	127
215.63133786848073	215.6661678004535	59	127
215.6661678004535	215.7358276643991	73	127
215.6661678004535	215.7358276643991	58	127
215.7358276643991	215.79387755102042	74	127
215.7358276643991	215.79387755102042	59	127
215.79387755102042	216.06090702947847	78	127
215.79387755102042	216.06090702947847	62	127
216.0725170068027	216.3279365079365	76	127
216.0725170068027	216.3279365079365	61	127
216.33954648526077	216.59496598639456	74	127
216.33954648526077	216.59496598639456	59	127
216.60657596371883	216.8619954648526	73	127
216.60657596371883	216.8619954648526	57	127
216.87360544217688	217.10580498866213	70	127
216.87360544217688	217.10580498866213	55	127
217.10580498866213	217.37283446712019	71	127
217.10580498866213	217.37283446712019	56	127
217.38444444444445	217.50054421768706	71	127
217.38444444444445	217.50054421768706	56	127
217.6863038548753	217.8024036281179	71	127
217.6863038548753	217.8024036281179	56	127
217.98816326530613	218.70798185941044	56	127
217.98816326530613	218.70798185941044	71	127
218.76603174603176	218.8473015873016	57	127
218.76603174603176	218.8473015873016	73	127
218.8473015873016	218.92857142857142	56	127
218.8473015873016	218.92857142857142	71	127
218.92857142857142	218.98662131519274	69	127
218.92857142857142	218.98662131519274	54	127
218.98662131519274	219.0911111111111	71	127
218.98662131519274	219.0911111111111	56	127
219.0911111111111	219.81092970521541	73	127
219.0911111111111	219.81092970521541	57	127
219.86897959183673	219.95024943310656	74	127
219.86897959183673	219.95024943310656	59	127
219.95024943310656	220.03151927437642	57	127
219.95024943310656	220.03151927437642	73	127
220.03151927437642	220.08956916099774	71	127
220.03151927437642	220.08956916099774	56	127
220.08956916099774	220.1592290249433	73	127
220.08956916099774	220.1592290249433	57	127
220.1592290249433	220.53074829931973	74	127
220.1592290249433	220.64684807256236	59	127
220.1592290249433	220.64684807256236	52	127
220.55396825396826	220.68167800453514	71	127
220.68167800453514	221.15768707482994	52	127
220.68167800453514	221.15768707482994	59	127
220.68167800453514	221.0415873015873	76	127
221.06480725623584	221.21573696145126	68	127
221.21573696145126	221.71496598639456	69	127
221.21573696145126	221.71496598639456	57	127
227.03233560090703	227.18326530612245	86	127
227.03233560090703	228.0772335600907	52	127
227.03233560090703	228.0772335600907	40	127
227.18326530612245	227.3225850340136	85	127
227.3225850340136	227.46190476190475	83	127
227.46190476190475	227.60122448979592	81	127
227.60122448979592	227.74054421768707	80	127
227.74054421768707	227.8914739229025	78	127
227.8914739229025	228.0191836734694	76	127
228.0191836734694	228.15850340136055	74	127
228.15850340136055	229.24984126984128	52	127
228.15850340136055	228.33265306122448	73	127
228.15850340136055	229.24984126984128	40	127
228.33265306122448	228.48358276643992	71	127
228.48358276643992	228.58807256235826	69	127
228.58807256235826	228.7390022675737	68	127
228.7390022675737	228.88993197278913	66	127
228.88993197278913	229.04086167800455	64	127
229.04086167800455	229.16857142857143	62	127
229.16857142857143	229.3311111111111	61	127
229.3311111111111	229.47043083900226	59	127
229.3311111111111	229.81873015873015	52	127
229.3311111111111	229.81873015873015	40	127
229.47043083900226	229.59814058956917	57	127
229.59814058956917	229.72585034013605	56	127
229.72585034013605	229.85356009070296	57	127
229.85356009070296	229.9928798185941	59	127
229.85356009070296	230.38761904761904	52	127
229.85356009070296	230.38761904761904	40	127
229.9928798185941	230.13219954648525	61	127
230.13219954648525	230.27151927437643	62	127
230.27151927437643	230.42244897959185	64	127
230.42244897959185	230.93328798185942	61	127
230.42244897959185	230.93328798185942	45	127
231.8156462585034	232.07106575963718	73	127
232.48902494331065	233.04630385487528	73	127
232.48902494331065	233.04630385487528	61	127
232.48902494331065	233.04630385487528	57	127
233.08113378684808	233.6384126984127	59	127
233.08113378684808	233.6384126984127	62	127
233.08113378684808	233.917052154195	76	127
233.6732426303855	234.2073015873016	64	127
233.6732426303855	234.2073015873016	61	127
233.97510204081632	234.11442176870747	74	127
234.11442176870747	234.24213151927438	73	127
234.24213151927438	234.74136054421768	62	127
234.24213151927438	234.62526077097505	71	127
234.24213151927438	234.74136054421768	66	127
234.64848072562359	234.77619047619046	70	127
234.77619047619046	235.19414965986394	71	127
234.77619047619046	235.32185941043085	64	127
234.77619047619046	235.32185941043085	61	127
235.21736961451248	235.35668934240363	73	127
235.35668934240363	235.87913832199547	66	127
235.35668934240363	235.87913832199547	63	127
235.35668934240363	235.87913832199547	59	127
235.91396825396825	236.42480725623582	68	127
235.91396825396825	236.42480725623582	62	127
235.91396825396825	236.42480725623582	53	127
236.4596371882086	236.94725623582767	61	127
236.4596371882086	236.94725623582767	69	127
236.4596371882086	237.4348752834467	54	127
236.98208616780045	237.48131519274375	71	127
236.98208616780045	237.48131519274375	63	127
236.98208616780045	237.48131519274375	57	127
237.51614512471656	238.07342403628118	73	127
237.51614512471656	238.18952380952382	64	127
237.51614512471656	238.18952380952382	57	127
237.51614512471656	238.18952380952382	52	127
238.0966439909297	238.2243537414966	71	127
238.2243537414966	238.59587301587302	73	127
238.61909297052154	238.7584126984127	74	127
238.7584126984127	239.24603174603175	52	127
238.7584126984127	238.82807256235827	71	127
238.7584126984127	239.24603174603175	62	127
238.7584126984127	239.24603174603175	56	127
238.82807256235827	238.8861224489796	73	127
238.8861224489796	239.11832199546484	71	127
239.14154195011338	239.28086167800453	69	127
239.28086167800453	239.7917006802721	71	127
239.81492063492064	239.9542403628118	73	127
239.9542403628118	240.46507936507936	69	127
239.9542403628118	240.46507936507936	61	127
239.9542403628118	240.46507936507936	57	127
241.38226757369614	241.61446712018142	73	127
241.38226757369614	241.61446712018142	64	127
241.38226757369614	241.61446712018142	57	127
242.03242630385486	242.6825850340136	73	127
242.03242630385486	242.6825850340136	64	127
242.03242630385486	242.6825850340136	57	127
242.6825850340136	243.61138321995466	76	127
242.6825850340136	243.86680272108845	61	127
242.6825850340136	243.86680272108845	58	127
243.66943310657595	243.80875283446713	74	127
243.80875283446713	243.94807256235828	73	127
243.94807256235828	244.33120181405894	71	127
243.94807256235828	245.4109297052154	62	127
243.94807256235828	245.9798185941043	59	127
244.35442176870748	244.5053514739229	70	127
244.5053514739229	244.87687074829932	71	127
244.90009070294784	245.039410430839	73	127
245.039410430839	245.52702947845805	66	127
245.43414965986395	245.5502494331066	61	127
245.5502494331066	245.89854875283447	62	127
245.5502494331066	246.02625850340135	68	127
245.92176870748298	246.0494784580499	64	127
246.0494784580499	246.62997732426305	69	127
246.0494784580499	246.62997732426305	61	127
246.0494784580499	246.62997732426305	57	127
246.66480725623583	247.22208616780046	71	127
246.66480725623583	247.22208616780046	54	127
246.66480725623583	247.22208616780046	51	127
247.24530612244897	247.6516553287982	73	127
247.24530612244897	247.7677551020408	57	127
247.24530612244897	247.7677551020408	52	127
247.6748752834467	247.80258503401362	71	127
247.80258503401362	248.19732426303855	73	127
248.22054421768706	248.35986394557824	74	127
248.35986394557824	248.4295238095238	71	127
248.35986394557824	248.8707029478458	56	127
248.35986394557824	248.8707029478458	52	127
248.4295238095238	248.4991836734694	73	127
248.4991836734694	248.73138321995464	71	127
248.75460317460318	248.9055328798186	69	127
248.9055328798186	249.4047619047619	71	127
249.42798185941044	249.55569160997732	73	127
249.55569160997732	250.0665306122449	69	127
249.55569160997732	250.0665306122449	61	127
249.55569160997732	250.0665306122449	57	127
250.86761904761906	251.37845804988663	64	127
250.86761904761906	251.37845804988663	62	127
251.4132879818594	251.93573696145125	62	127
251.4132879818594	251.93573696145125	64	127
251.97056689342404	252.4814058956916	64	127
251.97056689342404	252.4814058956916	61	127
253.38698412698412	253.90943310657596	62	127
253.38698412698412	253.79333333333332	71	127
253.38698412698412	253.90943310657596	68	127
253.38698412698412	253.90943310657596	64	127
253.8049433106576	253.94426303854874	73	127
253.94426303854874	254.37383219954648	74	127
253.94426303854874	254.48993197278912	68	127
253.94426303854874	254.48993197278912	64	127
253.94426303854874	254.48993197278912	62	127
254.38544217687075	254.5247619047619	75	127
254.5247619047619	255.0239909297052	76	127
254.5247619047619	255.0239909297052	69	127
254.5247619047619	255.0239909297052	64	127
254.5247619047619	255.0239909297052	61	127
255.80185941043084	255.87151927437642	71	127
255.87151927437642	255.98761904761903	73	127
255.98761904761903	256.24303854875285	71	127
256.2662585034014	256.42879818594105	69	127
256.42879818594105	256.8467573696145	71	127
256.86997732426306	257.06734693877553	73	127
257.06734693877553	257.2298866213152	69	127
257.2298866213152	257.2995238095238	71	127
257.3924036281179	257.46208616780046	73	127
257.56657596371883	257.6246258503401	74	127
257.705873015873	257.7639455782313	76	127
257.86843537414967	257.93809523809523	78	127
258.01936507936506	258.0774149659864	80	127
258.14707482993197	258.2167120181406	81	127
258.3908843537415	258.4489342403628	83	127
258.3908843537415	258.9365306122449	40	127
258.5418140589569	258.59986394557825	85	127
258.69274376417235	258.75079365079364	86	127
258.8320408163265	258.8901133786848	87	127
258.97138321995465	259.09909297052155	88	127
258.97138321995465	259.5518820861678	40	127
259.2616326530612	259.42417233560093	88	127
259.5867120181406	260.10916099773243	81	127
259.5867120181406	260.10916099773243	45	127
