# onset,offset,note,velocity
0.35913832199546486	1.1602267573696146	76	127
0.35913832199546486	0.5565079365079365	68	127
0.5681179138321996	0.7654875283446712	71	127
0.7770975056689342	0.986077097505669	68	127
0.997687074829932	1.2066666666666668	71	127
1.2182539682539681	1.4156462585034013	68	127
1.2182539682539681	1.4156462585034013	81	127
1.4156462585034013	1.589795918367347	80	127
1.4156462585034013	1.589795918367347	71	127
1.60140589569161	1.7987755102040817	78	127
1.60140589569161	1.7987755102040817	68	127
1.8103854875283447	2.007755102040816	76	127
1.8103854875283447	2.007755102040816	71	127
2.0193650793650795	2.193514739229025	78	127
2.0193650793650795	2.193514739229025	69	127
2.205124716553288	2.414104308390023	76	127
2.205124716553288	2.414104308390023	71	127
2.4257142857142857	2.6114512471655327	75	127
2.4257142857142857	2.6114512471655327	69	127
2.6346938775510202	2.7856009070294783	76	127
2.6346938775510202	2.7856009070294783	71	127
2.797233560090703	3.157142857142857	75	127
2.797233560090703	2.9829931972789114	69	127
3.0062131519274375	3.180362811791383	71	127
3.1919727891156464	3.3545124716553287	69	127
3.366122448979592	3.5518820861678004	71	127
3.5634920634920637	4.306530612244898	78	127
3.5634920634920637	3.784081632653061	69	127
3.7956916099773244	4.004671201814059	71	127
4.016281179138322	4.190430839002268	69	127
4.202040816326531	4.329750566893424	71	127
4.341360544217687	4.538730158730159	83	127
4.341360544217687	4.538730158730159	69	127
4.55031746031746	4.701269841269841	81	127
4.55031746031746	4.701269841269841	71	127
4.724467120181406	4.910249433106576	80	127
4.724467120181406	4.910249433106576	69	127
4.921859410430839	5.084399092970521	71	127
4.921859410430839	5.084399092970521	78	127
5.096009070294785	5.293378684807256	83	127
5.096009070294785	5.293378684807256	68	127
5.304988662131519	5.490748299319728	80	127
5.304988662131519	5.490748299319728	71	127
5.502358276643991	5.699727891156463	81	127
5.502358276643991	5.699727891156463	68	127
5.711337868480726	5.897074829931973	78	127
5.711337868480726	5.897074829931973	71	127
5.908707482993197	6.280226757369615	76	127
5.908707482993197	6.094467120181406	68	127
6.106077097505669	6.291836734693877	71	127
6.3034467120181406	6.500816326530612	68	127
6.512426303854875	6.663356009070295	71	127
6.686575963718821	7.313514739229025	83	127
6.686575963718821	6.860725623582766	68	127
6.883945578231293	7.081315192743764	71	127
7.092925170068027	7.290294784580499	66	127
7.313514739229025	7.499274376417233	82	127
7.313514739229025	7.499274376417233	71	127
7.510884353741496	7.696643990929705	81	127
7.510884353741496	7.696643990929705	63	127
7.708253968253969	7.894013605442177	78	127
7.708253968253969	7.894013605442177	71	127
7.90562358276644	8.079773242630386	75	127
8.091383219954649	8.265510204081632	71	127
8.277142857142858	8.892471655328798	83	127
8.277142857142858	8.486122448979591	68	127
8.497732426303855	8.706712018140589	71	127
8.718321995464853	8.880861678004536	66	127
8.892471655328798	9.089818594104308	82	127
8.892471655328798	9.089818594104308	71	127
9.101451247165533	9.263990929705216	63	127
9.101451247165533	9.263990929705216	81	127
9.275600907029478	9.484580498866213	78	127
9.275600907029478	9.484580498866213	71	127
9.50780045351474	9.647120181405896	75	127
9.658730158730158	9.832879818594105	71	127
9.856099773242631	10.053469387755102	83	127
9.856099773242631	10.053469387755102	68	127
10.065079365079365	10.227619047619047	80	127
10.065079365079365	10.227619047619047	71	127
10.239229024943311	10.424965986394557	85	127
10.239229024943311	10.424965986394557	64	127
10.436598639455783	10.599138321995465	83	127
10.436598639455783	10.599138321995465	68	127
10.610748299319727	10.773265306122449	81	127
10.610748299319727	10.773265306122449	61	127
10.784897959183674	10.947437641723356	80	127
10.784897959183674	10.947437641723356	64	127
10.959047619047618	11.168027210884354	78	127
10.959047619047618	11.168027210884354	58	127
11.179637188208616	11.365396825396825	76	127
11.179637188208616	11.365396825396825	61	127
11.376984126984127	11.702086167800454	59	127
11.376984126984127	11.562766439909296	76	127
11.562766439909296	11.725283446712018	75	127
11.736916099773243	11.95750566893424	80	127
11.95750566893424	12.154875283446712	78	127
12.166485260770974	12.538004535147392	47	127
12.166485260770974	12.22453514739229	76	127
12.22453514739229	12.270975056689343	78	127
12.270975056689343	12.363854875283447	76	127
12.363854875283447	12.549614512471654	75	127
12.561224489795919	12.619274376417234	73	127
12.619274376417234	12.665714285714285	75	127
12.665714285714285	12.75859410430839	73	127
12.75859410430839	13.014013605442177	71	127
13.025623582766439	13.222993197278912	68	127
13.025623582766439	13.408752834467121	52	127
13.025623582766439	13.408752834467121	40	127
13.025623582766439	13.408752834467121	64	127
13.234603174603174	13.431972789115646	71	127
13.44358276643991	13.803492063492063	64	127
13.44358276643991	13.617732426303855	68	127
13.629342403628119	13.815102040816326	71	127
13.838321995464852	13.989251700680272	68	127
13.838321995464852	14.163401360544217	64	127
14.000861678004535	14.175011337868481	71	127
14.186621315192744	14.383990929705215	68	127
14.186621315192744	14.581360544217688	64	127
14.395600907029479	14.59297052154195	71	127
14.604580498866213	14.999319727891157	47	127
14.604580498866213	14.813560090702948	69	127
14.604580498866213	14.999319727891157	66	127
14.604580498866213	14.999319727891157	35	127
14.82517006802721	15.01092970521542	71	127
15.022539682539682	15.382448979591837	66	127
15.022539682539682	15.196689342403628	69	127
15.20829931972789	15.3940589569161	71	127
15.405668934240364	15.59142857142857	69	127
15.405668934240364	15.753968253968255	66	127
15.59142857142857	15.765578231292517	71	127
15.77718820861678	16.16031746031746	66	127
15.77718820861678	15.97455782312925	69	127
15.986167800453515	16.183537414965986	71	127
16.19514739229025	16.39251700680272	69	127
16.19514739229025	16.58986394557823	66	127
16.19514739229025	16.58986394557823	59	127
16.19514739229025	16.58986394557823	47	127
16.41573696145125	16.61310657596372	71	127
16.624716553287982	16.97299319727891	66	127
16.624716553287982	16.787256235827666	69	127
16.79886621315193	16.9962358276644	71	127
17.007845804988662	17.15875283446712	69	127
17.007845804988662	17.321315192743764	66	127
17.170385487528346	17.34453514739229	71	127
17.356145124716555	17.5418820861678	69	127
17.356145124716555	17.716054421768707	66	127
17.5418820861678	17.739274376417235	71	127
17.739274376417235	18.11077097505669	52	127
17.739274376417235	17.913424036281178	68	127
17.739274376417235	18.11077097505669	64	127
17.739274376417235	18.11077097505669	40	127
17.92501133786848	18.11077097505669	71	127
18.11077097505669	18.44748299319728	64	127
18.11077097505669	18.25011337868481	68	127
18.26172335600907	18.459092970521542	71	127
18.482312925170067	18.691292517006804	68	127
18.482312925170067	18.888662131519276	64	127
18.702902494331067	18.900272108843538	71	127
18.923492063492063	19.086031746031747	68	127
18.923492063492063	19.283401360544218	64	127
19.09764172335601	19.306621315192743	71	127
19.318208616780044	19.527210884353742	68	127
19.318208616780044	19.724580498866214	64	127
19.318208616780044	19.724580498866214	52	127
19.538820861678005	19.736190476190476	71	127
19.74780045351474	19.887097505668933	68	127
19.74780045351474	20.072879818594103	64	127
19.89873015873016	20.08448979591837	71	127
20.09609977324263	20.44439909297052	47	127
20.09609977324263	20.270226757369613	66	127
20.09609977324263	20.44439909297052	63	127
20.28185941043084	20.46761904761905	71	127
20.47922902494331	20.85074829931973	66	127
20.47922902494331	20.676598639455783	69	127
20.699818594104308	20.873968253968254	71	127
20.885578231292516	21.059727891156463	68	127
20.885578231292516	21.21065759637188	64	127
20.885578231292516	21.21065759637188	52	127
21.082947845804988	21.23387755102041	71	127
21.23387755102041	21.373197278911565	68	127
21.23387755102041	21.570566893424036	64	127
21.384807256235828	21.59378684807256	71	127
21.605396825396827	21.988526077097507	63	127
21.605396825396827	21.8027664399093	66	127
21.605396825396827	21.988526077097507	47	127
21.81437641723356	22.011746031746032	71	127
22.023356009070294	22.18589569160998	69	127
22.023356009070294	22.36002267573696	66	127
22.19750566893424	22.36002267573696	71	127
22.371655328798187	22.56902494331066	69	127
22.371655328798187	22.754784580498868	52	127
22.56902494331066	22.778004535147392	68	127
22.789614512471655	22.859274376417233	66	127
22.789614512471655	23.161133786848072	61	127
22.975374149659864	23.06825396825397	64	127
23.195963718820863	23.590702947845806	57	127
23.195963718820863	23.41655328798186	71	127
23.41655328798186	23.602312925170068	69	127
23.61392290249433	23.88095238095238	59	127
23.61392290249433	23.660362811791384	68	127
23.7184126984127	23.788072562358277	66	127
23.904172335600908	23.973832199546486	68	127
23.904172335600908	24.252471655328797	52	127
24.10154195011338	24.171201814058957	69	127
24.171201814058957	24.21764172335601	68	127
24.21764172335601	24.275691609977326	66	127
24.275691609977326	24.473061224489797	68	127
24.48467120181406	24.554331065759637	75	127
24.658820861678006	24.71687074829932	76	127
24.856190476190477	24.937460317460317	78	127
25.06517006802721	25.14643990929705	80	127
25.262539682539682	25.297369614512473	81	127
25.425079365079366	25.645668934240362	81	127
25.425079365079366	25.796598639455784	64	127
25.645668934240362	25.81981859410431	80	127
25.83142857142857	26.191337868480726	52	127
25.83142857142857	25.924308390022677	78	127
26.005578231292517	26.09845804988662	76	127
26.226167800453513	26.43514739229025	71	127
26.226167800453513	26.574467120181406	59	127
26.43514739229025	26.59768707482993	69	127
26.609297052154194	26.66734693877551	68	127
26.609297052154194	26.934376417233562	47	127
26.748616780045353	26.841496598639456	66	127
26.96920634920635	27.35233560090703	52	127
26.96920634920635	27.35233560090703	68	127
27.38716553287982	27.74707482993197	64	127
27.38716553287982	27.74707482993197	80	127
27.38716553287982	27.74707482993197	71	127
27.781904761904762	28.13020408163265	76	127
27.781904761904762	28.13020408163265	68	127
27.781904761904762	28.13020408163265	52	127
28.675873015873016	29.41891156462585	47	127
28.675873015873016	29.41891156462585	59	127
28.675873015873016	29.41891156462585	35	127
29.48857142857143	30.347709750566892	54	127
29.48857142857143	30.347709750566892	42	127
30.428979591836736	31.253287981859412	39	127
30.428979591836736	31.253287981859412	51	127
31.543537414965986	31.636417233560092	78	127
31.75251700680272	31.833786848072563	77	127
31.949886621315194	32.03113378684807	76	127
32.15884353741497	32.26335600907029	75	127
32.36784580498866	32.46072562358277	83	127
32.553605442176874	32.63487528344671	82	127
32.75097505668934	32.82063492063492	81	127
32.948344671201816	33.02961451247165	80	127
33.145714285714284	33.22698412698413	79	127
33.34308390022676	33.40113378684807	78	127
33.528843537414964	33.62172335600907	77	127
33.749433106575964	35.25873015873016	59	127
33.749433106575964	33.9584126984127	63	127
33.749433106575964	33.97002267573696	80	127
33.97002267573696	34.16739229024943	78	127
33.97002267573696	34.16739229024943	66	127
34.17900226757369	34.38798185941043	63	127
34.17900226757369	34.57371882086168	78	127
34.39959183673469	34.59696145124717	66	127
34.60857142857143	34.78272108843537	63	127
34.8059410430839	34.99170068027211	78	127
34.8059410430839	34.99170068027211	66	127
35.00331065759637	35.16585034013605	63	127
35.00331065759637	35.16585034013605	87	127
35.18907029478458	35.36321995464853	85	127
35.18907029478458	35.36321995464853	66	127
35.37482993197279	36.814467120181405	59	127
35.37482993197279	35.560589569160996	63	127
35.37482993197279	35.560589569160996	85	127
35.560589569160996	35.74634920634921	83	127
35.560589569160996	35.74634920634921	66	127
35.75795918367347	35.943718820861676	63	127
35.75795918367347	35.95532879818594	83	127
35.95532879818594	36.15269841269841	82	127
35.95532879818594	36.15269841269841	66	127
36.164308390022676	36.37328798185941	63	127
36.164308390022676	36.384897959183675	82	127
36.384897959183675	36.57065759637188	80	127
36.384897959183675	36.57065759637188	66	127
36.58226757369614	36.74480725623583	63	127
36.58226757369614	36.75641723356009	80	127
36.75641723356009	36.90734693877551	78	127
36.75641723356009	36.90734693877551	66	127
36.91895691609977	37.62716553287982	61	127
36.91895691609977	37.62716553287982	64	127
36.91895691609977	36.97698412698413	78	127
36.91895691609977	37.62716553287982	66	127
37.06988662131519	37.151156462585035	77	127
37.27886621315193	37.66199546485261	76	127
38.497891156462586	39.287392290249436	64	127
38.497891156462586	39.287392290249436	52	127
38.497891156462586	39.287392290249436	40	127
39.35705215419501	40.11170068027211	61	127
39.35705215419501	40.11170068027211	49	127
39.35705215419501	40.11170068027211	37	127
40.16975056689343	40.98244897959184	58	127
40.16975056689343	40.98244897959184	46	127
40.16975056689343	40.98244897959184	34	127
41.29589569160998	41.38879818594104	76	127
41.50489795918367	41.58616780045352	75	127
41.70226757369615	41.79512471655329	74	127
41.92283446712018	41.99251700680272	73	127
42.08539682539683	42.17825396825397	85	127
42.29437641723356	42.35242630385488	84	127
42.456916099773245	42.52657596371882	83	127
42.64267573696145	42.73555555555556	82	127
42.840045351473925	42.93290249433107	81	127
43.049024943310656	43.1302947845805	80	127
43.269614512471655	43.374104308390024	79	127
43.47859410430839	44.91823129251701	54	127
43.47859410430839	43.536643990929704	78	127
43.47859410430839	43.64113378684807	58	127
43.64113378684807	43.72240362811792	77	127
43.64113378684807	43.86172335600907	61	127
43.873333333333335	44.0707029478458	58	127
43.873333333333335	44.26807256235828	76	127
44.093922902494334	44.26807256235828	61	127
44.27968253968254	44.46541950113379	58	127
44.48866213151928	44.69764172335601	61	127
44.48866213151928	44.69764172335601	76	127
44.70922902494331	44.84854875283447	58	127
44.70922902494331	44.84854875283447	88	127
44.860181405895695	45.0459410430839	85	127
44.860181405895695	45.0459410430839	61	127
45.05755102040816	46.439138321995465	54	127
45.05755102040816	45.23167800453515	83	127
45.05755102040816	45.23167800453515	58	127
45.243310657596375	45.42907029478458	61	127
45.243310657596375	45.42907029478458	82	127
45.44068027210884	45.626439909297055	85	127
45.44068027210884	45.626439909297055	58	127
45.63804988662132	45.82380952380952	79	127
45.63804988662132	45.82380952380952	61	127
45.835419501133785	46.009569160997735	85	127
45.835419501133785	46.009569160997735	58	127
46.021179138322	46.172108843537416	61	127
46.021179138322	46.172108843537416	78	127
46.18371882086168	46.34625850340136	85	127
46.18371882086168	46.34625850340136	58	127
46.35784580498866	46.54362811791383	76	127
46.35784580498866	46.54362811791383	61	127
46.555238095238096	48.029705215419504	58	127
46.555238095238096	46.59006802721088	76	127
46.555238095238096	48.029705215419504	55	127
46.555238095238096	48.029705215419504	61	127
46.59006802721088	46.6481179138322	78	127
46.6481179138322	46.752585034013606	76	127
46.752585034013606	46.938367346938776	75	127
46.94997732426304	47.309886621315194	75	127
47.542086167800456	47.61174603174603	75	127
47.704625850340136	47.809115646258505	75	127
47.94843537414966	48.029705215419504	75	127
48.1574149659864	48.22707482993197	75	127
48.1574149659864	48.52893424036281	59	127
48.1574149659864	48.52893424036281	56	127
48.354784580498865	48.55215419501134	83	127
48.5637641723356	48.842403628117914	82	127
48.8772335600907	49.08621315192744	80	127
49.0978231292517	49.49256235827664	58	127
49.0978231292517	49.19070294784581	79	127
49.0978231292517	49.49256235827664	61	127
49.0978231292517	49.49256235827664	51	127
49.3184126984127	49.504172335600906	85	127
49.51578231292517	49.71315192743764	82	127
49.724761904761905	49.91052154195011	79	127
49.92213151927437	50.24721088435374	59	127
49.92213151927437	50.24721088435374	80	127
49.92213151927437	50.24721088435374	56	127
50.258820861678004	50.6071201814059	75	127
50.83931972789116	50.920589569160995	75	127
51.04829931972789	51.11795918367347	75	127
51.257278911564626	51.35015873015873	75	127
51.477868480725625	51.570748299319725	75	127
51.477868480725625	51.84938775510204	59	127
51.477868480725625	51.84938775510204	56	127
51.686848072562356	51.860997732426306	83	127
51.87260770975057	52.069977324263036	82	127
52.0815873015873	52.27895691609977	80	127
52.290566893424035	52.627256235827666	61	127
52.290566893424035	52.627256235827666	58	127
52.290566893424035	52.627256235827666	51	127
52.290566893424035	52.36022675736962	79	127
52.48793650793651	52.63886621315193	85	127
52.65047619047619	52.847845804988665	82	127
52.85945578231293	53.056825396825396	79	127
53.056825396825396	53.41673469387755	80	127
53.056825396825396	53.41673469387755	59	127
53.056825396825396	53.41673469387755	56	127
53.45156462585034	53.83469387755102	75	127
54.090113378684805	54.17138321995465	75	127
54.28748299319728	54.380362811791386	75	127
54.49646258503402	54.577732426303854	75	127
54.693832199546485	54.77510204081633	75	127
54.89120181405896	55.10018140589569	83	127
55.11179138321995	55.30916099773243	85	127
55.32077097505669	55.48331065759637	87	127
55.49492063492063	55.680680272108845	85	127
55.680680272108845	55.88965986394558	83	127
55.91287981859411	56.1334693877551	82	127
56.14507936507937	56.31922902494331	80	127
56.342448979591836	59.41909297052154	68	127
56.342448979591836	57.259637188208615	78	127
56.342448979591836	59.41909297052154	73	127
56.342448979591836	59.41909297052154	71	127
57.27124716553288	57.375736961451246	77	127
57.38734693877551	57.480226757369614	80	127
57.480226757369614	57.56149659863946	78	127
57.56149659863946	57.66598639455783	82	127
57.66598639455783	57.758866213151926	80	127
57.77047619047619	57.863356009070294	83	127
57.863356009070294	57.933015873015876	82	127
57.933015873015876	58.06072562358277	85	127
58.083945578231294	58.2697052154195	83	127
58.28131519274376	58.44385487528345	87	127
58.467074829931974	58.65283446712018	83	127
58.66444444444444	58.86181405895692	82	127
58.896643990929704	59.1172335600907	80	127
59.128843537414966	59.32621315192744	78	127
59.3378231292517	59.558412698412695	77	127
59.570022675736965	59.96476190476191	73	127
59.570022675736965	59.674512471655326	78	127
59.570022675736965	59.96476190476191	66	127
59.570022675736965	59.96476190476191	70	127
59.674512471655326	59.779002267573695	82	127
59.779002267573695	59.88349206349206	85	127
59.895102040816326	59.98798185941043	82	127
59.999591836734695	60.10408163265306	85	127
60.10408163265306	60.1853514739229	82	127
60.1853514739229	60.28984126984127	80	127
60.28984126984127	60.39433106575964	78	127
60.4059410430839	60.80068027210884	71	127
60.4059410430839	60.51043083900227	77	127
60.4059410430839	60.80068027210884	73	127
60.4059410430839	60.80068027210884	68	127
60.51043083900227	60.6265306122449	80	127
60.6265306122449	60.719410430839005	83	127
60.719410430839005	60.82390022675737	80	127
60.83551020408163	60.91678004535147	83	127
60.928390022675735	61.032879818594104	80	127
61.032879818594104	61.12575963718821	78	127
61.12575963718821	61.23024943310658	77	127
61.23024943310658	61.33473922902494	78	127
61.23024943310658	61.648208616780046	73	127
61.23024943310658	61.648208616780046	70	127
61.23024943310658	61.648208616780046	66	127
61.34634920634921	61.45083900226757	82	127
61.45083900226757	61.55532879818594	85	127
61.55532879818594	61.67142857142857	82	127
61.67142857142857	61.76430839002268	85	127
61.77591836734694	61.85718820861678	82	127
61.868798185941046	61.97328798185941	80	127
61.97328798185941	62.077777777777776	78	127
62.077777777777776	62.47251700680272	71	127
62.077777777777776	62.182267573696144	77	127
62.077777777777776	62.47251700680272	68	127
62.077777777777776	62.47251700680272	73	127
62.19387755102041	62.27514739229025	80	127
62.28675736961451	62.39124716553288	83	127
62.39124716553288	62.49573696145125	80	127
62.49573696145125	62.611836734693874	83	127
62.611836734693874	62.71632653061224	80	127
62.727936507936505	62.832426303854874	78	127
62.832426303854874	62.91369614512472	77	127
62.91369614512472	63.27360544217687	70	127
62.91369614512472	63.27360544217687	78	127
62.91369614512472	63.27360544217687	73	127
62.91369614512472	63.27360544217687	66	127
64.5855328798186	64.93383219954649	54	127
64.5855328798186	64.93383219954649	42	127
64.96866213151928	65.36340136054422	70	127
64.96866213151928	65.36340136054422	66	127
64.96866213151928	65.36340136054422	61	127
65.39823129251701	65.81616780045351	70	127
65.39823129251701	65.81616780045351	66	127
65.39823129251701	65.81616780045351	61	127
65.85102040816327	66.26897959183674	70	127
65.85102040816327	66.26897959183674	66	127
65.85102040816327	66.26897959183674	61	127
66.29219954648526	66.721768707483	35	127
66.29219954648526	66.721768707483	47	127
66.74498866213152	67.162947845805	66	127
66.74498866213152	67.162947845805	71	127
66.74498866213152	67.162947845805	63	127
67.18616780045352	67.55768707482993	71	127
67.18616780045352	67.55768707482993	66	127
67.18616780045352	67.55768707482993	63	127
67.58090702947845	67.9756462585034	71	127
67.58090702947845	67.9756462585034	66	127
67.58090702947845	67.9756462585034	63	127
68.0104761904762	68.42843537414966	54	127
68.0104761904762	68.42843537414966	42	127
68.46326530612245	68.85800453514739	70	127
68.46326530612245	68.85800453514739	66	127
68.46326530612245	68.85800453514739	61	127
68.89283446712018	69.34562358276644	66	127
68.89283446712018	69.34562358276644	61	127
68.89283446712018	69.34562358276644	70	127
69.38045351473923	69.77517006802721	70	127
69.38045351473923	69.77517006802721	66	127
69.38045351473923	69.77517006802721	61	127
69.81002267573696	70.22798185941043	47	127
69.81002267573696	70.22798185941043	35	127
70.26278911564626	70.65755102040816	71	127
70.26278911564626	70.65755102040816	66	127
70.26278911564626	70.65755102040816	63	127
70.69238095238096	71.06390022675737	71	127
70.69238095238096	71.06390022675737	66	127
70.69238095238096	71.06390022675737	63	127
71.09873015873016	71.51668934240362	71	127
71.09873015873016	71.51668934240362	66	127
71.09873015873016	71.51668934240362	63	127
71.53988662131519	71.94625850340137	40	127
71.53988662131519	71.94625850340137	52	127
71.96947845804989	72.3758276643991	68	127
71.96947845804989	72.3758276643991	64	127
71.96947845804989	72.3758276643991	59	127
72.39904761904762	72.7937641723356	68	127
72.39904761904762	72.7937641723356	64	127
72.39904761904762	72.7937641723356	59	127
72.82861678004535	73.26979591836735	59	127
72.82861678004535	73.26979591836735	68	127
72.82861678004535	73.26979591836735	64	127
73.30460317460317	73.71095238095238	52	127
73.30460317460317	73.71095238095238	40	127
73.74580498866213	74.14054421768708	70	127
73.74580498866213	74.14054421768708	66	127
73.74580498866213	74.14054421768708	61	127
74.17537414965986	74.57011337868481	61	127
74.17537414965986	74.57011337868481	70	127
74.17537414965986	74.57011337868481	66	127
74.6049433106576	74.98807256235828	61	127
74.6049433106576	74.98807256235828	70	127
74.6049433106576	74.98807256235828	66	127
75.02290249433106	75.41764172335601	71	127
75.02290249433106	75.41764172335601	66	127
75.02290249433106	75.41764172335601	59	127
75.02290249433106	75.41764172335601	51	127
75.02290249433106	75.41764172335601	39	127
76.38126984126984	76.741179138322	61	127
76.38126984126984	76.741179138322	66	127
76.38126984126984	76.741179138322	64	127
76.38126984126984	76.76439909297052	46	127
76.76439909297052	77.13589569160997	66	127
76.76439909297052	77.13589569160997	63	127
76.76439909297052	77.13589569160997	59	127
76.76439909297052	77.13589569160997	47	127
78.05310657596372	78.44784580498866	66	127
78.05310657596372	78.44784580498866	64	127
78.05310657596372	78.44784580498866	61	127
78.05310657596372	78.48267573696145	46	127
78.48267573696145	78.86580498866213	66	127
78.48267573696145	78.86580498866213	47	127
78.48267573696145	78.86580498866213	63	127
78.48267573696145	78.86580498866213	59	127
78.90061224489796	79.28374149659864	71	127
78.90061224489796	79.28374149659864	66	127
78.90061224489796	79.28374149659864	63	127
79.31859410430839	79.70172335600907	52	127
79.73655328798186	80.16612244897959	68	127
79.73655328798186	80.16612244897959	61	127
79.73655328798186	80.16612244897959	71	127
80.20095238095239	80.65374149659864	54	127
80.46798185941043	80.66532879818594	71	127
80.46798185941043	80.66532879818594	66	127
80.46798185941043	80.66532879818594	63	127
80.68854875283446	80.89755102040816	71	127
80.68854875283446	80.89755102040816	66	127
80.68854875283446	80.89755102040816	63	127
80.90916099773243	81.11814058956917	71	127
80.90916099773243	81.11814058956917	66	127
80.90916099773243	81.11814058956917	63	127
81.14136054421769	81.5477097505669	42	127
81.36195011337868	81.5592970521542	66	127
81.36195011337868	81.5592970521542	64	127
81.36195011337868	81.5592970521542	70	127
81.57092970521542	81.77990929705216	70	127
81.57092970521542	81.77990929705216	66	127
81.57092970521542	81.77990929705216	64	127
81.79151927437641	81.9888888888889	70	127
81.79151927437641	81.9888888888889	66	127
81.79151927437641	81.9888888888889	64	127
82.00049886621315	82.40684807256235	63	127
82.00049886621315	82.40684807256235	71	127
82.00049886621315	82.40684807256235	66	127
82.00049886621315	82.40684807256235	47	127
83.74199546485261	85.26290249433107	54	127
83.74199546485261	83.84648526077098	76	127
83.74199546485261	84.79850340136055	61	127
83.84648526077098	83.92775510204082	78	127
83.92775510204082	84.03224489795919	76	127
84.04385487528344	84.13673469387756	75	127
84.13673469387756	84.25283446712018	76	127
84.25283446712018	84.36893424036282	82	127
84.36893424036282	84.48503401360544	85	127
84.48503401360544	84.56630385487529	83	127
84.57791383219954	84.69401360544218	82	127
84.69401360544218	84.8101133786848	85	127
84.8101133786848	84.97265306122449	59	127
84.8101133786848	84.87977324263039	80	127
84.89138321995465	84.97265306122449	85	127
84.98424036281179	85.07714285714286	78	127
84.98424036281179	85.17002267573696	58	127
85.07714285714286	85.18163265306123	85	127
85.18163265306123	85.40222222222222	61	127
85.18163265306123	85.2861224489796	76	127
85.2861224489796	85.40222222222222	85	127
85.43705215419502	85.52993197278911	75	127
85.43705215419502	85.7853514739229	59	127
85.52993197278911	85.62278911564626	78	127
85.62278911564626	85.70408163265306	76	127
85.70408163265306	85.80857142857143	75	127
85.8201814058957	85.90145124716554	76	127
85.9130612244898	86.00591836734694	78	127
86.00591836734694	86.12204081632653	80	127
86.12204081632653	86.21492063492063	82	127
86.21492063492063	86.29619047619047	83	127
86.29619047619047	86.38904761904762	82	127
86.38904761904762	86.49353741496599	80	127
86.49353741496599	86.59804988662131	78	127
86.59804988662131	86.70253968253968	76	127
86.71414965986395	86.78380952380952	75	127
86.7954195011338	86.91151927437642	73	127
86.91151927437642	87.02759637188208	71	127
87.02759637188208	87.13208616780045	76	127
87.02759637188208	88.0492970521542	61	127
87.02759637188208	88.5485260770975	54	127
87.14371882086168	87.23659863945578	78	127
87.24820861678005	87.32947845804989	76	127
87.32947845804989	87.42235827664399	75	127
87.42235827664399	87.52684807256236	76	127
87.52684807256236	87.63133786848073	82	127
87.64292517006803	87.75904761904762	85	127
87.75904761904762	87.85192743764172	83	127
87.85192743764172	87.95641723356009	82	127
87.95641723356009	88.06090702947846	85	127
88.07251700680273	88.1537641723356	80	127
88.07251700680273	88.24666666666667	59	127
88.16539682539683	88.25827664399092	85	127
88.25827664399092	88.38598639455782	78	127
88.25827664399092	88.47886621315193	58	127
88.38598639455782	88.49047619047619	85	127
88.50208616780046	88.66460317460317	61	127
88.50208616780046	88.56013605442178	76	127
88.57174603174603	88.6762358276644	85	127
88.6762358276644	89.07097505668935	59	127
88.6762358276644	88.78072562358277	75	127
88.78072562358277	88.88521541950114	78	127
88.88521541950114	88.9897052154195	76	127
89.00131519274376	89.0825850340136	75	127
89.0825850340136	89.19868480725624	76	127
89.19868480725624	89.30315192743764	78	127
89.30315192743764	89.39605442176871	80	127
89.40766439909297	89.50054421768708	82	127
89.51215419501133	89.6166439909297	83	127
89.6166439909297	89.73274376417234	82	127
89.73274376417234	89.83723356009071	80	127
89.84884353741496	89.9417006802721	78	127
89.95333333333333	90.04619047619047	76	127
90.04619047619047	90.11587301587302	75	127
90.11587301587302	90.20875283446712	73	127
90.20875283446712	90.33646258503401	71	127
90.34807256235828	90.74281179138322	80	127
90.4641723356009	90.56866213151928	52	127
90.56866213151928	90.67315192743764	56	127
90.67315192743764	90.76603174603174	59	127
90.77764172335601	90.88213151927438	64	127
90.89374149659864	90.98662131519275	68	127
90.98662131519275	91.09108843537415	71	127
91.09108843537415	91.21882086167801	76	127
91.21882086167801	91.32328798185941	80	127
91.33492063492064	91.4509977324263	76	127
91.4509977324263	91.55551020408163	83	127
91.55551020408163	91.66	80	127
91.66	91.78770975056689	76	127
91.79931972789116	91.89219954648526	71	127
91.90380952380953	91.98507936507937	68	127
91.98507936507937	92.08954648526077	64	127
92.08954648526077	92.56557823129252	82	127
92.27532879818594	92.36820861678005	52	127
92.37981859410431	92.48430839002268	58	127
92.48430839002268	92.57718820861678	61	127
92.57718820861678	92.67006802721089	64	127
92.67006802721089	92.75133786848073	70	127
92.76294784580499	92.85580498866213	73	127
92.85580498866213	92.9487074829932	78	127
92.9487074829932	93.0764172335601	82	127
93.0764172335601	93.18090702947846	78	127
93.19251700680272	93.28539682539683	85	127
93.29700680272109	93.40149659863945	82	127
93.40149659863945	93.4943537414966	78	127
93.4943537414966	93.58725623582767	73	127
93.59884353741496	93.70335600907029	70	127
93.70335600907029	93.77301587301588	66	127
93.77301587301588	94.17936507936508	63	127
93.87748299319728	93.98197278911564	71	127
93.98197278911564	94.08648526077097	83	127
94.09809523809524	94.20258503401361	71	127
94.21419501133786	94.3302947845805	82	127
94.3302947845805	94.43478458049887	71	127
94.43478458049887	94.52766439909297	81	127
94.53927437641724	94.64376417233561	71	127
94.65537414965986	94.75986394557823	80	127
94.75986394557823	94.8643537414966	71	127
94.8643537414966	94.96884353741497	79	127
94.8643537414966	95.10816326530612	64	127
94.96884353741497	95.10816326530612	71	127
95.11977324263039	95.23587301587301	78	127
95.11977324263039	95.32875283446712	63	127
95.23587301587301	95.32875283446712	71	127
95.32875283446712	95.53773242630386	64	127
95.32875283446712	95.44485260770975	79	127
95.44485260770975	95.54934240362812	71	127
95.56095238095239	95.96730158730159	63	127
95.56095238095239	95.64222222222222	78	127
95.65383219954649	95.75832199546485	71	127
95.75832199546485	95.87442176870748	83	127
95.87442176870748	95.99052154195012	71	127
96.00213151927437	96.09501133786848	82	127
96.11823129251701	96.26916099773243	71	127
96.26916099773243	96.3736507936508	81	127
96.3736507936508	96.4665306122449	71	127
96.4665306122449	96.54780045351474	80	127
96.55941043083901	96.66390022675736	71	127
96.66390022675736	96.79160997732426	79	127
96.66390022675736	96.88448979591837	64	127
96.79160997732426	96.9077097505669	71	127
96.9077097505669	97.01219954648526	78	127
96.9077097505669	97.11668934240363	63	127
97.02380952380952	97.11668934240363	71	127
97.12829931972789	97.24439909297053	79	127
97.12829931972789	97.33727891156462	64	127
97.24439909297053	97.3488888888889	71	127
97.3488888888889	97.70879818594105	78	127
97.46498866213152	97.53464852607709	63	127
97.54625850340136	97.65074829931973	66	127
97.65074829931973	97.73201814058957	70	127
97.73201814058957	98.14997732426303	71	127
97.8481179138322	97.97582766439909	75	127
97.98743764172336	98.06870748299319	78	127
98.08031746031746	98.18480725623583	83	127
98.18480725623583	98.6027664399093	73	127
98.2892970521542	98.3821768707483	64	127
98.39378684807257	98.50988662131519	68	127
98.52149659863946	98.62598639455783	72	127
98.62598639455783	99.02072562358276	73	127
98.75369614512472	98.8233560090703	75	127
98.8233560090703	98.93945578231292	76	127
98.95106575963719	99.05555555555556	80	127
99.05555555555556	99.29936507936507	66	127
99.05555555555556	99.29936507936507	54	127
99.31097505668934	99.43868480725624	68	127
99.31097505668934	99.5431746031746	63	127
99.45029478458049	99.5431746031746	70	127
99.55478458049886	99.65927437641723	71	127
99.55478458049886	99.72893424036282	59	127
99.65927437641723	99.74054421768707	73	127
99.74054421768707	99.81020408163265	75	127
99.74054421768707	99.91469387755102	63	127
99.82181405895692	99.91469387755102	76	127
99.92630385487529	100.03079365079365	78	127
99.92630385487529	100.14689342403628	54	127
100.03079365079365	100.15850340136055	80	127
100.15850340136055	100.27460317460317	82	127
100.15850340136055	100.37909297052154	63	127
100.27460317460317	100.37909297052154	83	127
100.39070294784581	100.50680272108843	82	127
100.39070294784581	100.59968253968253	59	127
100.50680272108843	100.6112925170068	83	127
100.6112925170068	100.71578231292517	82	127
100.6112925170068	100.80866213151927	63	127
100.71578231292517	100.82027210884354	83	127
100.8318820861678	100.88993197278911	75	127
100.8318820861678	101.01764172335601	54	127
100.90154195011338	100.97120181405896	73	127
100.97120181405896	101.02925170068028	75	127
101.02925170068028	101.09891156462585	73	127
101.02925170068028	101.22662131519274	64	127
101.09891156462585	101.16857142857143	75	127
101.16857142857143	101.238231292517	73	127
101.24984126984127	101.30789115646259	75	127
101.24984126984127	101.44721088435374	58	127
101.31950113378684	101.37755102040816	73	127
101.38916099773243	101.458820861678	75	127
101.458820861678	101.52848072562358	73	127
101.458820861678	101.679410430839	64	127
101.52848072562358	101.6213605442177	75	127
101.6213605442177	101.69102040816327	73	127
101.69102040816327	101.76068027210884	75	127
101.69102040816327	101.9	54	127
101.77229024943311	101.84195011337869	73	127
101.85356009070294	101.9	75	127
101.91160997732426	101.9928798185941	73	127
101.91160997732426	102.17863945578232	64	127
101.9928798185941	102.06253968253968	75	127
102.06253968253968	102.19024943310657	73	127
102.19024943310657	102.25990929705216	75	127
102.19024943310657	102.45727891156463	58	127
102.25990929705216	102.36439909297052	73	127
102.38761904761905	102.45727891156463	75	127
102.46888888888888	102.55015873015873	73	127
102.46888888888888	102.68947845804989	64	127
102.55015873015873	102.63142857142857	71	127
102.63142857142857	102.72430839002267	73	127
102.72430839002267	103.16548752834467	71	127
102.72430839002267	102.97972789115646	59	127
102.99133786848073	103.1887074829932	66	127
103.20031746031746	103.4092970521542	63	127
103.44412698412698	103.64149659863945	66	127
103.65310657596372	103.87369614512471	59	127
103.89691609977324	104.10589569160997	66	127
104.11750566893424	104.33809523809524	63	127
104.3497052154195	104.55868480725624	66	127
104.5702947845805	104.76766439909296	54	127
104.5702947845805	105.37138321995465	76	127
104.77927437641723	104.98825396825397	64	127
104.99986394557823	105.20884353741496	61	127
105.22045351473923	105.42943310657597	64	127
105.44104308390023	105.62680272108844	54	127
105.44104308390023	105.62680272108844	82	127
105.6384126984127	105.81256235827665	80	127
105.6384126984127	105.81256235827665	64	127
105.83578231292518	105.99832199546485	78	127
105.83578231292518	105.99832199546485	61	127
106.00993197278912	106.21891156462586	64	127
106.00993197278912	106.21891156462586	76	127
106.24213151927438	106.45111111111112	59	127
106.24213151927438	106.45111111111112	78	127
106.46272108843537	106.66009070294784	76	127
106.46272108843537	106.66009070294784	69	127
106.67170068027211	106.88068027210885	75	127
106.67170068027211	106.88068027210885	66	127
106.88068027210885	107.06643990929705	69	127
106.88068027210885	107.06643990929705	76	127
107.07804988662132	107.25219954648526	59	127
107.07804988662132	107.44956916099773	75	127
107.26380952380953	107.461179138322	69	127
107.47278911564626	107.68176870748299	66	127
107.70498866213151	107.902358276644	69	127
107.91396825396825	108.11133786848073	59	127
107.91396825396825	108.68022675736961	80	127
108.12294784580499	108.32031746031745	68	127
108.33192743764172	108.52929705215419	64	127
108.55251700680272	108.73827664399093	68	127
108.7498866213152	108.94725623582767	85	127
108.7498866213152	108.94725623582767	59	127
108.95886621315192	109.1562358276644	68	127
108.95886621315192	109.1562358276644	83	127
109.16784580498866	109.3419954648526	81	127
109.16784580498866	109.3419954648526	64	127
109.35360544217687	109.53936507936508	80	127
109.35360544217687	109.53936507936508	68	127
109.55097505668934	109.74834467120182	59	127
109.55097505668934	109.74834467120182	81	127
109.75995464852608	109.96893424036281	66	127
109.75995464852608	109.96893424036281	80	127
109.98054421768707	110.11986394557823	78	127
109.98054421768707	110.11986394557823	63	127
110.1314739229025	110.3520634920635	66	127
110.1314739229025	110.3520634920635	80	127
110.36367346938775	110.54943310657596	59	127
110.36367346938775	110.73519274376417	78	127
110.56104308390023	110.74680272108843	66	127
110.77002267573697	110.94417233560091	63	127
110.95578231292517	111.15315192743765	66	127
111.17637188208617	111.3853514739229	59	127
111.17637188208617	111.97746031746031	83	127
111.39696145124717	111.59433106575963	68	127
111.6059410430839	111.81492063492064	64	127
111.8265306122449	112.02390022675738	68	127
112.03551020408163	112.22126984126984	88	127
112.03551020408163	112.22126984126984	59	127
112.2328798185941	112.4534693877551	68	127
112.2328798185941	112.4534693877551	87	127
112.46507936507936	112.6392290249433	85	127
112.46507936507936	112.6392290249433	64	127
112.65083900226757	112.84820861678004	83	127
112.65083900226757	112.84820861678004	68	127
112.85981859410431	112.97591836734694	59	127
112.85981859410431	112.97591836734694	85	127
112.9875283446712	113.17328798185942	64	127
112.9875283446712	113.17328798185942	83	127
113.18489795918367	113.38226757369614	82	127
113.18489795918367	113.38226757369614	61	127
113.40548752834466	113.60285714285715	64	127
113.40548752834466	113.60285714285715	83	127
113.6144671201814	113.81183673469388	59	127
113.6144671201814	114.00920634920635	82	127
113.82344671201814	114.03242630385488	64	127
114.04403628117913	114.20657596371882	61	127
114.21818594104309	114.42716553287981	64	127
114.43877551020408	114.75224489795919	63	127
114.43877551020408	114.60131519274377	83	127
114.43877551020408	114.75224489795919	59	127
114.61292517006802	114.77546485260771	87	127
114.78707482993197	114.97283446712018	85	127
114.98444444444445	115.18181405895692	83	127
115.19342403628117	115.42562358276643	82	127
115.4372335600907	115.63460317460317	88	127
115.6578231292517	116.02934240362812	73	127
115.6578231292517	115.83197278911565	85	127
115.6578231292517	116.02934240362812	76	127
115.6578231292517	116.02934240362812	66	127
115.84358276643991	116.02934240362812	82	127
116.02934240362812	116.15705215419501	83	127
116.02934240362812	116.35442176870748	75	127
116.02934240362812	116.35442176870748	71	127
116.16866213151927	116.26154195011338	87	127
116.26154195011338	116.377641723356	85	127
116.377641723356	116.5053514739229	87	127
116.5053514739229	116.64467120181406	85	127
116.65628117913832	116.76077097505669	83	127
116.76077097505669	116.9117006802721	82	127
116.92331065759637	117.01619047619047	88	127
117.01619047619047	117.14390022675737	87	127
117.15551020408164	117.26	88	127
117.15551020408164	117.50380952380952	73	127
117.15551020408164	117.50380952380952	66	127
117.15551020408164	117.50380952380952	76	127
117.27160997732426	117.3877097505669	85	127
117.39931972789115	117.49219954648527	82	127
117.50380952380952	117.8869387755102	75	127
117.50380952380952	117.68956916099773	83	127
117.50380952380952	117.8869387755102	71	127
117.70117913832199	117.921768707483	87	127
117.93337868480725	118.11913832199546	80	127
118.14235827664399	118.36294784580498	88	127
118.37455782312925	118.59514739229024	81	127
118.60675736961451	118.80412698412698	85	127
118.81573696145125	119.00149659863946	79	127
119.01310657596372	119.21047619047619	87	127
119.22208616780046	119.43106575963719	80	127
119.44267573696145	119.66326530612245	83	127
119.67487528344671	119.88385487528345	77	127
119.89546485260772	120.09283446712018	85	127
120.11605442176871	120.32503401360545	78	127
120.3366439909297	120.61528344671201	81	127
120.63850340136054	120.8707029478458	75	127
120.88231292517007	121.06807256235828	83	127
121.07968253968254	121.91560090702947	76	127
121.07968253968254	121.3118820861678	68	127
121.32349206349207	121.52086167800454	71	127
121.53247165532879	121.7530612244898	68	127
121.76467120181405	121.96204081632654	71	127
121.97365079365079	122.1942403628118	81	127
121.97365079365079	122.1942403628118	68	127
122.20585034013605	122.36839002267574	80	127
122.20585034013605	122.36839002267574	71	127
122.38	122.56575963718821	68	127
122.38	122.56575963718821	78	127
122.57736961451248	122.76312925170068	76	127
122.57736961451248	122.76312925170068	71	127
122.77473922902495	123.0069387755102	78	127
122.77473922902495	123.0069387755102	69	127
123.03015873015873	123.19269841269842	76	127
123.03015873015873	123.19269841269842	71	127
123.20430839002267	123.36684807256236	75	127
123.20430839002267	123.36684807256236	69	127
123.37845804988662	123.58743764172335	76	127
123.37845804988662	123.58743764172335	71	127
123.59904761904762	123.99378684807256	75	127
123.59904761904762	123.79641723356009	69	127
123.80802721088435	124.01700680272108	71	127
124.02861678004535	124.22598639455782	69	127
124.23759637188209	124.43496598639456	71	127
124.44657596371881	125.18961451247165	78	127
124.44657596371881	124.62072562358277	69	127
124.63233560090703	124.8297052154195	71	127
124.8297052154195	125.02707482993198	69	127
125.03868480725623	125.23605442176871	71	127
125.25927437641724	125.44503401360544	69	127
125.25927437641724	125.44503401360544	83	127
125.4566439909297	125.66562358276644	81	127
125.4566439909297	125.66562358276644	71	127
125.68884353741497	125.82816326530612	80	127
125.68884353741497	125.82816326530612	69	127
125.83977324263039	125.9907029478458	78	127
125.83977324263039	125.9907029478458	71	127
126.00231292517007	126.19968253968254	68	127
126.00231292517007	126.19968253968254	83	127
126.2112925170068	126.38544217687075	80	127
126.2112925170068	126.38544217687075	71	127
126.39705215419501	126.58281179138322	81	127
126.39705215419501	126.58281179138322	68	127
126.59442176870748	126.79179138321996	78	127
126.59442176870748	126.79179138321996	71	127
126.80340136054421	127.03560090702948	68	127
126.80340136054421	127.20975056689342	76	127
127.04721088435375	127.23297052154194	71	127
127.24458049886621	127.45356009070295	68	127
127.47678004535148	127.66253968253969	71	127
127.67414965986394	128.3126984126984	83	127
127.67414965986394	127.88312925170068	68	127
127.9063492063492	128.10371882086167	71	127
128.11532879818594	128.30108843537414	66	127
128.3126984126984	128.51006802721088	82	127
128.3126984126984	128.51006802721088	71	127
128.52167800453515	128.7074149659864	81	127
128.52167800453515	128.7074149659864	63	127
128.71904761904761	128.89319727891157	78	127
128.71904761904761	128.89319727891157	71	127
128.90480725623584	129.12539682539682	75	127
129.1370068027211	129.31115646258505	71	127
129.3227664399093	129.5433560090703	68	127
129.3227664399093	129.9497052154195	83	127
129.55496598639456	129.74072562358276	71	127
129.75233560090703	129.93809523809523	66	127
129.9497052154195	130.13544217687075	82	127
129.9497052154195	130.13544217687075	71	127
130.15868480725624	130.34444444444443	81	127
130.15868480725624	130.34444444444443	63	127
130.3560544217687	130.55342403628117	78	127
130.3560544217687	130.55342403628117	71	127
130.56503401360544	130.77401360544218	75	127
130.78562358276645	130.99460317460318	71	127
130.99460317460318	131.1687528344671	83	127
130.99460317460318	131.1687528344671	68	127
131.18036281179138	131.37773242630385	80	127
131.18036281179138	131.37773242630385	71	127
131.38934240362812	131.5518820861678	85	127
131.38934240362812	131.5518820861678	64	127
131.56349206349208	131.74925170068028	83	127
131.56349206349208	131.74925170068028	68	127
131.76086167800455	131.96984126984128	81	127
131.76086167800455	131.96984126984128	61	127
131.98145124716552	132.16721088435375	80	127
131.98145124716552	132.16721088435375	64	127
132.17879818594105	132.36458049886622	78	127
132.17879818594105	132.36458049886622	58	127
132.38777777777779	132.56195011337869	76	127
132.38777777777779	132.56195011337869	61	127
132.57356009070295	132.75931972789115	76	127
132.57356009070295	132.92185941043084	59	127
132.75931972789115	132.9450566893424	75	127
132.95668934240362	133.14244897959185	80	127
133.14244897959185	133.36303854875283	78	127
133.3746485260771	133.42108843537414	76	127
133.3746485260771	133.76938775510203	47	127
133.42108843537414	133.49074829931973	78	127
133.49074829931973	133.5952380952381	76	127
133.5952380952381	133.79260770975057	75	127
133.80421768707484	133.83904761904762	73	127
133.83904761904762	133.89709750566894	75	127
133.89709750566894	134.01319727891158	73	127
134.01319727891158	134.2802267573696	71	127
134.29183673469387	134.65174603174603	64	127
134.29183673469387	134.4775963718821	68	127
134.29183673469387	134.65174603174603	52	127
134.29183673469387	134.65174603174603	40	127
134.48920634920634	134.6633560090703	71	127
134.68655328798187	135.10453514739228	64	127
134.68655328798187	134.89555555555555	68	127
134.90716553287982	135.11614512471655	71	127
135.1393650793651	135.31351473922902	68	127
135.1393650793651	135.49927437641725	64	127
135.3251247165533	135.5108843537415	71	127
135.52249433106576	135.71986394557823	68	127
135.52249433106576	135.9172335600907	64	127
135.7314739229025	135.92884353741496	71	127
135.94045351473923	136.32356009070295	66	127
135.94045351473923	136.12621315192743	69	127
135.94045351473923	136.32356009070295	47	127
135.94045351473923	136.32356009070295	35	127
136.1378231292517	136.33519274376417	71	127
136.34680272108844	136.55578231292517	69	127
136.34680272108844	136.72990929705216	66	127
136.56739229024944	136.74154195011337	71	127
136.75315192743764	136.9505215419501	69	127
136.75315192743764	137.12467120181407	66	127
136.97374149659865	137.14789115646258	71	127
137.15950113378685	137.56585034013605	66	127
137.15950113378685	137.36848072562358	69	127
137.39167800453515	137.5890702947846	71	127
137.6006575963719	137.80965986394557	69	127
137.6006575963719	138.0070068027211	66	127
137.6006575963719	138.0070068027211	59	127
137.6006575963719	138.0070068027211	47	127
137.82126984126984	138.03024943310658	71	127
138.04185941043085	138.37854875283446	66	127
138.04185941043085	138.19278911564626	69	127
138.20439909297053	138.401768707483	71	127
138.41337868480727	138.61074829931974	69	127
138.41337868480727	138.8081179138322	66	127
138.62233560090704	138.83133786848072	71	127
138.84294784580499	139.02868480725624	69	127
138.84294784580499	139.22607709750568	66	127
139.04031746031745	139.2492970521542	71	127
139.26090702947846	139.44666666666666	68	127
139.26090702947846	139.60920634920635	64	127
139.26090702947846	139.60920634920635	52	127
139.26090702947846	139.60920634920635	40	127
139.44666666666666	139.60920634920635	71	127
139.63242630385488	139.7949433106576	68	127
139.63242630385488	139.98072562358277	64	127
139.8065759637188	139.98072562358277	71	127
140.00392290249434	140.20131519274378	68	127
140.00392290249434	140.39868480725625	64	127
140.21292517006802	140.39868480725625	71	127
140.41027210884354	140.60766439909298	68	127
140.41027210884354	140.80503401360545	64	127
140.61927437641722	140.81662131519275	71	127
140.82825396825396	141.23460317460317	52	127
140.82825396825396	141.0372335600907	68	127
140.82825396825396	141.23460317460317	64	127
141.04884353741497	141.24621315192744	71	127
141.2578231292517	141.4319501133787	68	127
141.2578231292517	141.62934240362813	64	127
141.4435827664399	141.65256235827664	71	127
141.6641723356009	141.86154195011338	66	127
141.6641723356009	142.03569160997733	63	127
141.6641723356009	142.03569160997733	47	127
141.88476190476192	142.05891156462584	71	127
142.07052154195011	142.2330612244898	69	127
142.07052154195011	142.4071882086168	66	127
142.2562811791383	142.418820861678	71	127
142.43043083900227	142.62780045351474	68	127
142.43043083900227	142.8251700680272	64	127
142.43043083900227	142.8251700680272	52	127
142.639410430839	142.84839002267574	71	127
142.86	143.03414965986394	68	127
142.86	143.2315192743764	64	127
143.0457596371882	143.2315192743764	71	127
143.24312925170068	143.42886621315193	66	127
143.24312925170068	143.59142857142857	63	127
143.24312925170068	143.59142857142857	47	127
143.42886621315193	143.60303854875283	71	127
143.6146485260771	143.75396825396825	69	127
143.6146485260771	143.95133786848072	66	127
143.76557823129252	143.962947845805	71	127
143.98614512471656	144.1951247165533	69	127
143.98614512471656	144.38090702947846	52	127
144.1951247165533	144.39251700680273	68	127
144.41573696145124	144.49698412698413	66	127
144.41573696145124	144.81047619047618	61	127
144.62471655328798	144.71759637188208	64	127
144.83369614512472	145.0310657596372	71	127
144.83369614512472	145.20521541950114	57	127
145.0310657596372	145.21680272108844	69	127
145.22843537414965	145.28648526077097	68	127
145.22843537414965	145.59995464852608	59	127
145.4025850340136	145.50707482993198	66	127
145.62315192743765	145.71605442176872	68	127
145.62315192743765	145.94825396825397	52	127
145.80893424036282	145.87857142857143	69	127
145.87857142857143	145.9366439909297	68	127
145.9366439909297	145.9714739229025	66	127
145.9714739229025	146.14562358276643	68	127
146.1572335600907	146.2268934240363	75	127
146.35460317460317	146.42426303854876	76	127
146.52875283446713	146.58680272108845	78	127
146.70290249433106	146.79578231292518	80	127
146.93510204081633	147.01637188208616	81	127
147.14408163265307	147.32984126984127	81	127
147.14408163265307	147.45755102040818	64	127
147.32984126984127	147.48077097505669	80	127
147.49238095238096	147.82907029478457	52	127
147.49238095238096	147.57365079365078	78	127
147.67814058956915	147.73619047619047	76	127
147.86390022675738	148.24702947845805	59	127
147.86390022675738	148.07287981859412	71	127
148.07287981859412	148.27024943310659	69	127
148.28183673469388	148.63015873015874	47	127
148.28183673469388	148.35151927437641	68	127
148.46761904761905	148.54888888888888	66	127
148.66498866213152	148.87396825396826	81	127
148.66498866213152	149.02489795918368	61	127
148.87396825396826	149.03650793650795	80	127
149.05972789115646	149.11777777777777	78	127
149.05972789115646	149.4080045351474	49	127
149.22226757369614	149.31514739229024	76	127
149.4196371882086	149.79115646258504	56	127
149.4196371882086	149.64022675736962	76	127
149.64022675736962	149.8027664399093	75	127
149.8143537414966	149.88403628117914	73	127
149.8143537414966	150.1510657596372	44	127
150.00013605442177	150.0697732426304	72	127
150.16267573696146	150.5341723356009	57	127
150.16267573696146	150.38326530612244	74	127
150.38326530612244	150.5574149659864	73	127
150.56902494331067	150.66190476190476	71	127
150.56902494331067	150.95215419501133	45	127
150.7780045351474	150.85927437641723	69	127
150.98698412698414	151.1959410430839	64	127
150.98698412698414	151.33528344671203	52	127
151.1959410430839	151.35850340136054	62	127
151.3701133786848	151.4629931972789	61	127
151.3701133786848	151.70678004535148	40	127
151.57909297052154	151.61392290249432	59	127
151.74163265306123	152.05510204081634	61	127
151.74163265306123	152.05510204081634	45	127
153.27414965986395	154.91115646258504	62	127
153.27414965986395	155.30589569160998	57	127
153.47151927437642	153.51795918367347	78	127
153.51795918367347	153.56439909297052	76	127
153.56439909297052	153.6340589569161	75	127
153.6340589569161	153.85462585034014	76	127
153.86625850340135	153.97074829931972	78	127
154.08684807256236	154.1681179138322	80	127
154.28421768707483	154.36546485260772	81	127
154.4815873015873	154.5744671201814	83	127
154.7021768707483	154.78344671201813	85	127
154.91115646258504	155.30589569160998	81	127
154.91115646258504	155.30589569160998	61	127
156.4320634920635	158.10390022675736	57	127
156.4320634920635	157.9645804988662	62	127
156.59460317460318	156.64104308390023	78	127
156.6526530612245	156.71070294784582	76	127
156.72231292517006	156.79197278911565	75	127
156.80358276643992	156.98934240362811	76	127
157.00095238095238	157.0590022675737	78	127
157.18671201814058	157.25637188208617	80	127
157.36086167800454	157.45374149659864	81	127
157.58145124716555	157.66272108843538	83	127
157.7904081632653	157.88331065759638	85	127
157.9645804988662	158.01102040816326	81	127
157.9645804988662	158.10390022675736	61	127
158.11551020408163	158.22	81	127
158.22	158.33609977324264	80	127
158.33609977324264	158.7888888888889	66	127
158.33609977324264	158.440589569161	83	127
158.33609977324264	158.7888888888889	62	127
158.33609977324264	159.02108843537414	57	127
158.4521768707483	158.56829931972788	81	127
158.56829931972788	158.67278911564625	80	127
158.67278911564625	158.7888888888889	78	127
158.7888888888889	159.02108843537414	76	127
158.7888888888889	159.02108843537414	64	127
158.7888888888889	159.02108843537414	61	127
159.0326984126984	159.13718820861678	81	127
159.13718820861678	159.26489795918368	80	127
159.26489795918368	159.36938775510205	83	127
159.26489795918368	159.6944671201814	66	127
159.26489795918368	159.6944671201814	62	127
159.26489795918368	160.1356462585034	57	127
159.3809977324263	159.48548752834466	81	127
159.49709750566893	159.6015873015873	80	127
159.6015873015873	159.6944671201814	78	127
159.6944671201814	160.1356462585034	76	127
159.6944671201814	160.1356462585034	64	127
159.6944671201814	160.1356462585034	61	127
160.83224489795919	160.92512471655328	76	127
161.0528344671202	161.18054421768707	73	127
161.2966439909297	161.3895238095238	71	127
161.51723356009072	162.37637188208618	61	127
161.51723356009072	162.37637188208618	64	127
161.51723356009072	162.37637188208618	70	127
161.51723356009072	162.37637188208618	54	127
162.37637188208618	162.7711111111111	59	127
162.37637188208618	162.57374149659864	71	127
162.37637188208618	162.7711111111111	62	127
162.5853514739229	162.678231292517	78	127
162.8059410430839	162.88721088435375	74	127
163.04975056689344	163.14263038548754	71	127
163.2471201814059	164.04820861678004	68	127
163.2471201814059	164.04820861678004	62	127
163.2471201814059	164.04820861678004	59	127
163.2471201814059	164.04820861678004	52	127
164.04820861678004	164.38487528344672	57	127
164.04820861678004	164.17591836734695	69	127
164.04820861678004	164.38487528344672	61	127
164.04820861678004	164.38487528344672	54	127
164.1875283446712	164.39650793650793	81	127
164.4081179138322	164.65192743764172	80	127
164.4081179138322	164.86090702947845	50	127
164.4081179138322	165.24403628117915	57	127
164.663537414966	164.84929705215418	78	127
164.86090702947845	165.0350566893424	76	127
164.86090702947845	165.24403628117915	49	127
165.05827664399092	165.26725623582766	73	127
165.27886621315193	165.4530158730159	71	127
165.27886621315193	165.65038548752835	59	127
165.27886621315193	165.65038548752835	50	127
165.4762358276644	165.67360544217686	78	127
165.68521541950113	165.87097505668933	69	127
165.68521541950113	165.87097505668933	61	127
165.68521541950113	165.87097505668933	52	127
166.1031746031746	166.30054421768708	71	127
166.1031746031746	166.30054421768708	56	127
166.1031746031746	166.30054421768708	52	127
166.695283446712	167.53120181405896	74	127
166.695283446712	167.53120181405896	71	127
166.695283446712	167.53120181405896	68	127
166.695283446712	167.86789115646258	57	127
166.695283446712	167.86789115646258	45	127
167.53120181405896	167.94916099773243	73	127
167.53120181405896	167.94916099773243	69	127
168.4715873015873	169.38879818594106	54	127
168.7270068027211	168.91278911564626	67	127
168.7270068027211	168.91278911564626	64	127
168.92439909297053	169.1449886621315	62	127
168.92439909297053	169.1449886621315	66	127
169.16820861678005	169.3771882086168	61	127
169.16820861678005	169.3771882086168	64	127
169.38879818594106	169.72548752834467	62	127
169.38879818594106	169.72548752834467	59	127
169.38879818594106	169.72548752834467	47	127
170.1085941043084	170.96775510204083	52	127
170.34081632653061	170.53818594104308	66	127
170.34081632653061	170.53818594104308	62	127
170.54979591836735	170.7587755102041	61	127
170.54979591836735	170.7587755102041	64	127
170.7819954648526	170.95614512471656	59	127
170.7819954648526	170.95614512471656	62	127
170.96775510204083	171.30444444444444	61	127
170.96775510204083	171.30444444444444	57	127
170.96775510204083	171.30444444444444	54	127
171.33925170068028	172.1984126984127	57	127
171.33925170068028	171.7572335600907	50	127
171.33925170068028	171.7920634920635	66	127
171.33925170068028	172.1984126984127	69	127
171.7920634920635	172.1984126984127	64	127
171.7920634920635	172.1984126984127	49	127
172.22163265306122	172.6163492063492	66	127
172.22163265306122	172.6163492063492	50	127
172.22163265306122	172.98789115646258	69	127
172.22163265306122	172.98789115646258	57	127
172.6395918367347	173.02269841269842	64	127
172.6395918367347	173.02269841269842	49	127
173.06916099773244	173.47551020408164	66	127
173.06916099773244	173.47551020408164	62	127
173.06916099773244	173.47551020408164	50	127
173.49873015873015	174.97319727891156	52	127
173.49873015873015	174.97319727891156	40	127
173.73092970521543	173.89344671201815	64	127
173.90507936507936	174.10244897959183	57	127
173.90507936507936	174.10244897959183	61	127
174.1140589569161	174.32303854875283	64	127
174.3346485260771	174.53201814058957	61	127
174.3346485260771	174.53201814058957	57	127
174.54362811791384	174.69455782312926	64	127
174.69455782312926	174.903537414966	56	127
174.69455782312926	174.903537414966	62	127
174.9151247165533	175.10090702947846	64	127
175.11251700680273	175.4956462585034	61	127
175.34471655328798	175.39115646258503	59	127
175.4027664399093	175.44920634920635	57	127
175.46081632653062	175.51886621315194	56	127
175.51886621315194	175.7162358276644	57	127
175.72784580498868	175.82072562358277	59	127
175.96004535147392	176.0412925170068	61	127
176.18063492063493	176.27351473922903	62	127
176.3780045351474	176.4708843537415	64	127
176.57537414965986	176.65662131519275	66	127
176.7843537414966	178.40975056689342	56	127
178.40975056689342	178.78126984126985	57	127
178.61873015873016	178.79287981859412	69	127
178.80448979591836	179.0134693877551	76	127
179.02507936507936	179.18761904761905	73	127
179.19922902494332	179.4198185941043	81	127
179.43142857142857	179.62879818594104	76	127
179.6404081632653	180.38342403628118	64	127
179.6404081632653	179.81455782312926	85	127
179.6404081632653	180.06997732426305	55	127
179.83777777777777	180.05836734693878	83	127
180.06997732426305	181.39351473922903	54	127
180.06997732426305	180.25573696145125	82	127
180.26734693877552	180.40666666666667	76	127
180.41827664399094	180.59240362811792	79	127
180.41827664399094	181.0916553287982	61	127
180.60403628117913	180.75496598639455	73	127
180.76657596371882	180.94072562358278	76	127
180.95233560090702	181.13809523809525	70	127
181.14968253968254	181.32385487528344	73	127
181.14968253968254	181.4980045351474	58	127
181.32385487528344	181.5212244897959	64	127
181.53283446712018	181.8463038548753	62	127
181.66052154195012	181.70698412698414	61	127
181.70698412698414	181.79986394557824	59	127
181.79986394557824	181.85791383219956	58	127
181.86950113378686	182.0668934240363	59	127
182.07850340136054	182.1597732426304	61	127
182.33392290249432	182.41519274376418	62	127
182.54290249433106	182.61256235827665	64	127
182.69383219954648	182.78668934240363	66	127
182.8795918367347	182.9724716553288	67	127
183.07696145124717	184.6675283446712	58	127
184.6675283446712	185.06226757369615	59	127
184.8881179138322	185.0854648526077	71	127
185.09709750566893	185.27124716553288	78	127
185.28285714285715	185.4221768707483	74	127
185.4221768707483	185.63115646258504	83	127
185.6427664399093	185.85172335600907	78	127
185.8633560090703	186.0491156462585	86	127
185.8633560090703	186.28131519274376	57	127
185.8633560090703	186.62961451247165	66	127
186.0607029478458	186.2697052154195	85	127
186.28131519274376	187.63968253968255	56	127
186.28131519274376	186.47868480725623	84	127
186.4902947845805	186.64122448979592	78	127
186.64122448979592	186.82696145124717	81	127
186.64122448979592	187.33780045351475	63	127
186.83859410430838	187.00113378684807	75	127
187.00113378684807	187.17528344671203	78	127
187.18687074829933	187.38426303854877	72	127
187.395873015873	187.5584126984127	75	127
187.395873015873	187.73256235827665	60	127
187.57002267573696	187.74414965986395	66	127
187.74414965986395	188.11569160997732	64	127
187.9415419501134	188.01120181405895	63	127
188.01120181405895	188.08086167800454	61	127
188.08086167800454	188.13891156462586	60	127
188.13891156462586	188.33628117913833	61	127
188.3478911564626	188.42916099773242	63	127
188.54526077097506	188.63814058956916	64	127
188.7658276643991	188.83551020408163	66	127
188.97480725623583	189.05609977324264	68	127
189.14897959183673	189.19541950113378	69	127
189.35795918367347	190.92530612244897	60	127
190.92530612244897	191.30843537414967	61	127
191.1110657596372	191.19233560090703	75	127
191.19233560090703	191.26199546485262	73	127
191.26199546485262	191.33165532879818	72	127
191.34326530612245	191.5174149659864	73	127
191.52902494331065	191.59868480725623	75	127
191.7031746031746	191.78444444444443	76	127
191.91215419501134	191.98181405895693	78	127
192.09791383219954	192.19079365079364	80	127
192.295283446712	192.35333333333332	81	127
192.4578231292517	193.839410430839	57	127
192.4578231292517	193.839410430839	79	127
192.4578231292517	193.839410430839	45	127
193.97873015873017	194.0832199546485	79	127
193.97873015873017	194.1528798185941	44	127
194.0832199546485	194.16448979591837	80	127
194.16448979591837	194.2457596371882	81	127
194.25736961451247	194.3386394557823	80	127
194.3386394557823	194.5360090702948	56	127
194.3386394557823	194.44312925170067	78	127
194.44312925170067	194.54761904761904	76	127
194.54761904761904	194.6521088435374	75	127
194.66371882086167	194.75659863945577	73	127
194.76820861678004	194.8726984126984	81	127
194.76820861678004	194.97718820861678	44	127
194.8726984126984	194.98879818594105	80	127
194.98879818594105	195.10489795918366	81	127
195.11650793650793	195.20938775510203	80	127
195.2209977324263	195.32548752834467	78	127
195.2209977324263	195.41836734693877	56	127
195.32548752834467	195.42997732426304	76	127
195.42997732426304	195.5344671201814	75	127
195.5344671201814	195.65056689342404	73	127
195.6621768707483	195.85954648526078	80	127
195.6621768707483	195.85954648526078	44	127
197.3920634920635	197.78680272108843	49	127
197.61265306122448	197.7984126984127	61	127
197.81002267573697	198.00739229024944	64	127
197.81002267573697	198.18154195011337	68	127
198.01900226757368	198.19315192743764	61	127
198.2047619047619	198.61111111111111	49	127
198.42535147392292	198.63433106575962	61	127
198.6459410430839	198.7968707482993	66	127
198.6459410430839	198.98263038548754	69	127
198.80848072562358	199.00585034013605	61	127
199.01746031746032	199.44702947845806	49	127
199.22643990929706	199.48185941043084	61	127
199.4934693877551	199.65600907029477	64	127
199.4934693877551	199.841768707483	68	127
199.66761904761904	199.8649886621315	61	127
199.87659863945578	200.25972789115647	49	127
200.07396825396825	200.28294784580498	61	127
200.29455782312925	200.61963718820863	68	127
200.29455782312925	200.4687074829932	64	127
200.48031746031745	200.63124716553287	61	127
200.6544671201814	202.1985941043084	68	127
200.6544671201814	202.1985941043084	56	127
200.6544671201814	201.49038548752836	66	127
200.6544671201814	201.49038548752836	63	127
200.6544671201814	202.1985941043084	44	127
201.49038548752836	202.25664399092972	61	127
201.49038548752836	202.25664399092972	64	127
202.34952380952382	202.74426303854875	60	127
202.34952380952382	202.55850340136055	63	127
202.34952380952382	203.66145124716553	56	127
202.34952380952382	203.66145124716553	44	127
202.5701133786848	202.7674829931973	68	127
202.77909297052153	203.18544217687074	63	127
202.77909297052153	202.976462585034	66	127
202.99968253968254	203.20866213151928	68	127
203.22027210884355	203.44086167800452	64	127
203.22027210884355	203.62662131519275	61	127
203.46408163265306	203.64984126984126	68	127
203.66145124716553	204.00975056689342	54	127
203.66145124716553	203.84721088435373	63	127
203.66145124716553	204.00975056689342	60	127
203.66145124716553	204.00975056689342	42	127
203.858820861678	204.03297052154196	68	127
204.04458049886622	205.56548752834468	52	127
204.04458049886622	205.56548752834468	40	127
204.23034013605442	204.43931972789116	61	127
204.45092970521543	204.82244897959183	68	127
204.45092970521543	204.62507936507936	64	127
204.63668934240363	204.84566893424036	61	127
205.04303854875283	205.25201814058957	61	127
205.26362811791384	205.47260770975058	64	127
205.26362811791384	205.66997732426304	68	127
205.48421768707482	205.6815873015873	61	127
205.70480725623582	207.23732426303854	54	127
205.70480725623582	207.23732426303854	42	127
205.91378684807256	206.11115646258503	57	127
206.1227664399093	206.285306122449	62	127
206.1227664399093	206.285306122449	66	127
206.29691609977326	206.50589569160996	57	127
206.51750566893423	206.73809523809524	62	127
206.51750566893423	206.73809523809524	66	127
206.7497052154195	206.94707482993198	57	127
206.95868480725625	207.14444444444445	62	127
206.95868480725625	207.14444444444445	66	127
207.15605442176872	207.35342403628118	57	127
207.36503401360545	207.74816326530612	44	127
207.5740136054422	207.77138321995466	56	127
207.7829931972789	207.99197278911564	64	127
207.7829931972789	207.99197278911564	61	127
208.01519274376417	208.21256235827664	56	127
208.2241723356009	208.61891156462585	32	127
208.44476190476192	208.6421315192744	54	127
208.65374149659863	208.83950113378685	60	127
208.65374149659863	208.83950113378685	56	127
208.85111111111112	209.0484807256236	54	127
209.06009070294783	209.4548299319728	61	127
209.06009070294783	209.4548299319728	37	127
209.06009070294783	209.4548299319728	52	127
210.2094784580499	210.4300680272109	80	127
210.68548752834468	210.91768707482993	80	127
211.17310657596371	211.37047619047618	80	127
211.17310657596371	211.37047619047618	61	127
211.38208616780045	211.56784580498865	68	127
211.38208616780045	211.56784580498865	85	127
211.57945578231292	211.76521541950115	84	127
211.57945578231292	211.76521541950115	64	127
211.7768253968254	211.9974149659864	83	127
211.7768253968254	211.9974149659864	68	127
212.00902494331066	212.2180045351474	82	127
212.00902494331066	212.2180045351474	61	127
212.22961451247164	212.41537414965987	69	127
212.22961451247164	212.41537414965987	81	127
212.42698412698414	212.6243537414966	80	127
212.42698412698414	212.6243537414966	66	127
212.6243537414966	212.8101133786848	79	127
212.6243537414966	212.8101133786848	69	127
212.82172335600907	212.995873015873	80	127
212.82172335600907	212.995873015873	61	127
213.00748299319727	213.20485260770974	68	127
213.00748299319727	213.20485260770974	79	127
213.216462585034	213.35578231292516	64	127
213.216462585034	213.35578231292516	78	127
213.39061224489797	213.57637188208616	77	127
213.39061224489797	213.57637188208616	68	127
213.58798185941043	213.79696145124717	61	127
213.58798185941043	213.79696145124717	76	127
213.80857142857144	214.01755102040818	75	127
213.80857142857144	214.01755102040818	68	127
214.02916099773242	214.23814058956916	74	127
214.02916099773242	214.23814058956916	64	127
214.23814058956916	214.4471201814059	73	127
214.23814058956916	214.4471201814059	68	127
214.45873015873016	214.64448979591836	72	127
214.45873015873016	214.64448979591836	63	127
214.65609977324263	214.86507936507937	68	127
214.65609977324263	214.760589569161	80	127
214.77219954648527	214.86507936507937	81	127
214.87668934240364	215.0740589569161	66	127
214.87668934240364	215.0740589569161	80	127
215.08566893424037	215.15532879818593	72	127
215.08566893424037	215.24820861678003	68	127
215.2598185941043	215.44557823129253	61	127
215.2598185941043	215.34108843537416	73	127
215.45718820861677	215.53845804988663	80	127
215.45718820861677	215.61972789115646	68	127
215.53845804988663	215.63133786848073	81	127
215.642947845805	215.85192743764173	80	127
215.642947845805	215.85192743764173	64	127
215.86353741496598	216.03768707482993	68	127
215.86353741496598	215.9564172335601	73	127
216.06090702947847	216.25827664399094	60	127
216.06090702947847	216.4556462585034	75	127
216.26988662131518	216.46725623582768	68	127
216.47886621315192	216.68784580498865	60	127
216.69945578231292	216.88521541950112	66	127
216.8968253968254	217.05936507936508	80	127
216.8968253968254	217.08258503401362	61	127
217.08258503401362	217.2799546485261	64	127
217.29156462585033	217.46571428571428	80	127
217.29156462585033	217.50054421768706	60	127
217.51215419501133	217.7095238095238	63	127
217.7095238095238	217.89528344671203	80	127
217.7095238095238	217.89528344671203	56	127
217.91850340136054	218.15070294784582	64	127
217.91850340136054	218.34807256235828	88	127
218.16231292517006	218.35968253968255	61	127
218.38290249433106	218.56866213151926	64	127
218.38290249433106	218.74281179138322	85	127
218.56866213151926	218.7544217687075	56	127
218.7544217687075	218.96340136054422	64	127
218.7544217687075	219.1607709750567	80	127
218.9750113378685	219.17238095238096	61	127
219.1839909297052	219.4045804988662	64	127
219.1839909297052	219.4045804988662	76	127
219.4045804988662	219.48585034013607	74	127
219.4045804988662	219.5903401360544	57	127
219.48585034013607	219.53229024943312	76	127
219.53229024943312	219.5671201814059	74	127
219.5671201814059	219.60195011337868	73	127
219.60195011337868	219.82253968253968	66	127
219.60195011337868	219.71804988662132	74	127
219.72965986394559	219.82253968253968	76	127
219.83414965986395	220.03151927437642	62	127
219.83414965986395	219.93863945578232	78	127
219.93863945578232	219.9734693877551	80	127
219.9734693877551	220.00829931972788	78	127
220.00829931972788	220.0431292517007	76	127
220.0431292517007	220.24049886621316	66	127
220.0431292517007	220.1360090702948	78	127
220.1360090702948	220.24049886621316	80	127
220.25210884353743	220.64684807256236	81	127
220.25210884353743	220.46108843537414	57	127
220.4726984126984	220.65845804988663	66	127
220.68167800453514	220.86743764172334	62	127
220.8790476190476	221.07641723356008	81	127
220.8790476190476	221.07641723356008	66	127
221.08802721088435	221.29700680272109	81	127
221.08802721088435	221.29700680272109	56	127
221.30861678004536	221.5175963718821	64	127
221.30861678004536	221.7033560090703	73	127
221.52920634920636	221.72657596371883	61	127
221.73818594104307	221.93555555555557	64	127
221.73818594104307	221.78462585034015	75	127
221.78462585034015	221.84267573696144	73	127
221.84267573696144	221.90072562358276	72	127
221.90072562358276	221.9471655328798	73	127
221.9471655328798	222.16775510204081	76	127
221.9471655328798	222.16775510204081	56	127
222.17936507936508	222.37673469387755	66	127
222.17936507936508	222.37673469387755	75	127
222.38834467120182	222.6089342403628	73	127
222.38834467120182	222.6089342403628	60	127
222.62054421768707	222.8063038548753	75	127
222.62054421768707	222.8063038548753	66	127
222.81791383219954	223.3287528344671	73	127
222.81791383219954	223.3287528344671	64	127
222.81791383219954	223.3287528344671	61	127
224.62907029478458	225.01219954648525	44	127
224.62907029478458	225.01219954648525	56	127
224.82643990929705	225.0354195011338	60	127
225.04702947845806	225.221179138322	68	127
225.04702947845806	225.221179138322	63	127
225.23278911564626	225.43015873015872	60	127
225.441768707483	225.87133786848074	56	127
225.441768707483	225.87133786848074	44	127
225.67396825396824	225.88294784580498	61	127
225.90616780045352	226.10353741496598	68	127
225.90616780045352	226.10353741496598	64	127
226.11514739229025	226.31251700680272	61	127
226.324126984127	227.9495238095238	44	127
226.324126984127	227.9495238095238	56	127
226.55632653061224	226.77691609977325	63	127
226.78852607709752	227.03233560090703	66	127
226.78852607709752	227.03233560090703	68	127
227.0439455782313	227.24131519274377	63	127
227.25292517006804	227.4502947845805	66	127
227.25292517006804	227.4502947845805	68	127
227.46190476190475	227.64766439909297	63	127
227.65927437641724	227.84503401360544	66	127
227.65927437641724	227.84503401360544	68	127
227.86825396825398	228.05401360544218	63	127
228.06562358276645	228.44875283446711	56	127
228.06562358276645	228.44875283446711	44	127
228.2746031746032	228.47197278911565	61	127
228.48358276643992	228.7041723356009	68	127
228.48358276643992	228.7041723356009	64	127
228.71578231292517	228.90154195011337	61	127
228.91315192743764	229.2730612244898	56	127
228.91315192743764	229.2730612244898	44	127
229.09891156462584	229.29628117913833	61	127
229.30789115646257	229.50526077097507	68	127
229.30789115646257	229.50526077097507	64	127
229.5168707482993	229.71424036281178	61	127
229.72585034013605	229.93482993197279	68	127
229.72585034013605	229.93482993197279	60	127
229.72585034013605	230.14380952380952	56	127
229.72585034013605	230.14380952380952	44	127
229.94643990929706	230.1786394557823	63	127
230.19024943310657	230.41083900226758	66	127
230.19024943310657	230.41083900226758	61	127
230.19024943310657	230.5849886621315	45	127
230.41083900226758	230.59659863945578	57	127
230.61981859410432	230.79396825396825	64	127
230.61981859410432	230.79396825396825	61	127
230.61981859410432	230.9913378684807	44	127
230.80557823129251	231.00294784580498	56	127
231.01455782312925	231.21192743764172	63	127
231.01455782312925	231.21192743764172	60	127
231.01455782312925	231.4092970521542	42	127
231.223537414966	231.42090702947846	56	127
231.43251700680273	232.1987755102041	40	127
231.65310657596373	231.82725623582766	56	127
231.83886621315193	232.04784580498867	64	127
231.83886621315193	232.04784580498867	61	127
232.05945578231294	232.2568253968254	56	127
232.26843537414965	233.04630385487528	40	127
232.50063492063492	232.6980045351474	56	127
232.70961451247166	232.8837641723356	64	127
232.70961451247166	232.8837641723356	61	127
232.90698412698413	233.1043537414966	56	127
233.11596371882086	234.68331065759637	42	127
233.3249433106576	233.52231292517007	57	127
233.53392290249434	233.7312925170068	66	127
233.53392290249434	233.7312925170068	62	127
233.74290249433108	233.9518820861678	57	127
233.96349206349205	234.16086167800452	66	127
233.96349206349205	234.16086167800452	62	127
234.1724716553288	234.38145124716553	57	127
234.3930612244898	234.59043083900227	66	127
234.3930612244898	234.59043083900227	62	127
234.60204081632654	234.799410430839	57	127
234.81102040816327	235.6469387755102	44	127
235.03160997732425	235.240589569161	56	127
235.26380952380953	235.47278911564626	64	127
235.26380952380953	235.47278911564626	61	127
235.49600907029478	235.69337868480724	56	127
235.71659863945578	236.51768707482992	44	127
235.9371882086168	236.122947845805	54	127
236.13455782312926	236.343537414966	56	127
236.13455782312926	236.343537414966	60	127
236.35514739229026	236.57573696145124	54	127
236.5873469387755	237.07496598639455	61	127
236.5873469387755	237.07496598639455	52	127
236.5873469387755	237.07496598639455	37	127
237.62063492063493	237.80639455782313	75	127
238.08503401360545	238.28240362811792	75	127
238.68875283446712	238.87451247165532	75	127
238.68875283446712	238.87451247165532	56	127
238.89773242630386	239.0718820861678	80	127
238.89773242630386	239.0718820861678	63	127
239.08349206349206	239.28086167800453	79	127
239.08349206349206	239.28086167800453	60	127
239.2924716553288	239.50145124716553	78	127
239.2924716553288	239.50145124716553	63	127
239.5130612244898	239.68721088435373	77	127
239.5130612244898	239.68721088435373	56	127
239.698820861678	239.90780045351474	76	127
239.698820861678	239.90780045351474	64	127
239.919410430839	240.1051700680272	75	127
239.919410430839	240.1051700680272	61	127
240.11678004535148	240.27931972789116	64	127
240.11678004535148	240.27931972789116	73	127
240.29092970521543	240.46507936507936	72	127
240.29092970521543	240.46507936507936	56	127
240.46507936507936	240.63922902494332	68	127
240.46507936507936	240.63922902494332	66	127
240.66244897959183	240.8598185941043	63	127
240.66244897959183	240.8598185941043	67	127
240.87142857142857	241.0571882086168	68	127
240.87142857142857	241.0571882086168	66	127
241.0804081632653	241.27777777777777	56	127
241.0804081632653	241.27777777777777	69	127
241.28938775510204	241.44031746031746	70	127
241.28938775510204	241.44031746031746	66	127
241.45192743764173	241.6492970521542	71	127
241.45192743764173	241.6492970521542	63	127
241.66090702947847	241.84666666666666	72	127
241.66090702947847	241.84666666666666	66	127
241.85827664399093	241.99759637188208	73	127
241.85827664399093	241.99759637188208	56	127
242.00920634920635	242.07886621315194	75	127
242.00920634920635	242.19496598639455	64	127
242.07886621315194	242.1485260770975	73	127
242.1485260770975	242.20657596371882	72	127
242.20657596371882	242.34589569160997	73	127
242.20657596371882	242.34589569160997	61	127
242.35750566893424	242.54326530612244	64	127
242.35750566893424	242.4387755102041	75	127
242.5548752834467	242.75224489795917	56	127
242.5548752834467	242.6477551020408	76	127
242.7754648526077	242.9612244897959	64	127
242.7754648526077	242.85673469387754	77	127
242.97283446712018	243.0308843537415	78	127
242.97283446712018	243.13537414965987	61	127
243.15859410430838	243.33274376417233	64	127
243.15859410430838	243.2166439909297	79	127
243.3443537414966	243.55333333333334	56	127
243.3443537414966	243.72748299319727	80	127
243.56494331065758	243.7507029478458	63	127
243.76231292517008	243.95968253968255	60	127
243.97129251700682	244.1918820861678	63	127
244.20349206349206	244.42408163265307	60	127
244.20349206349206	244.6330612244898	80	127
244.4356916099773	244.65628117913832	63	127
244.6678911564626	244.8536507936508	60	127
244.6678911564626	245.05102040816325	80	127
244.86526077097506	245.08585034013606	63	127
245.0974603174603	245.89854875283447	85	127
245.0974603174603	245.89854875283447	61	127
245.9565986394558	246.82734693877552	61	127
245.9565986394558	246.82734693877552	56	127
245.9565986394558	246.82734693877552	52	127
245.9565986394558	246.82734693877552	40	127
246.89700680272108	247.7445351473923	62	127
246.89700680272108	247.7445351473923	57	127
246.89700680272108	247.7445351473923	54	127
246.89700680272108	247.7445351473923	42	127
248.70816326530613	249.60213151927437	74	127
248.70816326530613	249.60213151927437	62	127
248.70816326530613	249.60213151927437	50	127
249.67179138321995	250.42643990929705	71	127
249.67179138321995	250.42643990929705	59	127
249.67179138321995	250.42643990929705	47	127
250.49609977324263	251.33201814058958	68	127
250.49609977324263	251.33201814058958	56	127
250.49609977324263	251.33201814058958	44	127
251.63387755102042	251.72675736961452	74	127
251.84285714285716	251.93573696145125	73	127
252.05183673469386	252.15632653061223	72	127
252.2608163265306	252.35369614512473	71	127
252.46979591836734	252.53945578231293	83	127
252.6671655328798	252.76004535147393	82	127
252.8877551020408	252.93419501133786	81	127
253.06190476190477	253.15478458049887	80	127
253.3057142857143	253.38698412698412	79	127
253.4914739229025	253.58435374149659	78	127
253.68884353741495	253.75850340136054	77	127
253.87460317460318	254.08358276643992	56	127
253.87460317460318	253.96748299319728	76	127
253.87460317460318	255.30263038548753	52	127
254.09519274376416	254.29256235827665	59	127
254.09519274376416	254.1880725623583	75	127
254.3041723356009	254.6524716553288	74	127
254.3041723356009	254.48993197278912	56	127
254.5015419501134	254.67569160997732	59	127
254.6873015873016	254.84984126984128	56	127
254.86145124716552	255.04721088435375	74	127
254.86145124716552	255.04721088435375	59	127
255.05882086167802	255.23297052154194	56	127
255.05882086167802	255.23297052154194	86	127
255.2445804988662	255.41873015873017	59	127
255.2445804988662	255.41873015873017	83	127
255.44195011337868	255.63931972789115	56	127
255.44195011337868	256.8583673469388	52	127
255.44195011337868	255.63931972789115	81	127
255.65092970521542	255.8134693877551	59	127
255.65092970521542	255.8134693877551	80	127
255.83668934240362	256.0108390022676	56	127
255.83668934240362	256.0108390022676	83	127
256.02244897959184	256.20820861678004	77	127
256.02244897959184	256.20820861678004	59	127
256.2198185941043	256.4404081632653	83	127
256.2198185941043	256.4404081632653	56	127
256.4520181405896	256.5913378684807	76	127
256.4520181405896	256.5913378684807	59	127
256.602947845805	256.78868480725623	83	127
256.602947845805	256.78868480725623	56	127
256.80031746031744	256.97446712018143	74	127
256.80031746031744	256.97446712018143	59	127
256.9860544217687	258.4489342403628	56	127
256.9860544217687	257.0325170068027	74	127
256.9860544217687	258.4489342403628	53	127
256.9860544217687	258.4489342403628	59	127
257.0325170068027	257.0789569160998	76	127
257.0789569160998	257.19503401360544	74	127
257.19503401360544	257.38081632653063	73	127
257.3924036281179	257.7175056689342	73	127
257.9845351473923	258.06580498866214	73	127
258.1702947845805	258.25156462585034	73	127
258.367664399093	258.4605442176871	73	127
258.56503401360544	258.65791383219954	73	127
258.56503401360544	258.97138321995465	57	127
258.56503401360544	258.97138321995465	54	127
258.7740136054422	259.0178231292517	81	127
259.029410430839	259.23839002267573	80	127
259.25002267573694	259.42417233560093	78	127
259.4357823129252	259.81891156462586	56	127
259.4357823129252	259.517052154195	77	127
259.4357823129252	259.81891156462586	59	127
259.4357823129252	259.81891156462586	49	127
259.64473922902494	259.8421315192744	83	127
259.8537188208617	260.03950113378687	80	127
260.05108843537414	260.2484807256236	77	127
260.2717006802721	260.60839002267574	54	127
260.2717006802721	260.60839002267574	57	127
260.2717006802721	260.6316099773243	78	127
260.6316099773243	261.00312925170067	73	127
261.23532879818595	261.32820861678005	73	127
261.4326984126984	261.5255782312925	73	127
261.6300680272109	261.7113378684807	73	127
261.8506575963719	262.2570068027211	57	127
261.8506575963719	262.2570068027211	54	127
261.8506575963719	261.95514739229026	73	127
262.08285714285716	262.26861678004536	81	127
262.28022675736963	262.46598639455783	80	127
262.48920634920637	262.6633560090703	78	127
262.67496598639457	263.04648526077096	59	127
262.67496598639457	263.04648526077096	56	127
262.67496598639457	263.04648526077096	49	127
262.67496598639457	262.7562358276644	77	127
262.87233560090704	263.0813151927438	83	127
263.09292517006804	263.2902947845805	80	127
263.3019047619048	263.49927437641725	77	127
263.5108843537415	263.8824036281179	57	127
263.5108843537415	263.8824036281179	54	127
263.5108843537415	263.9172335600907	78	127
263.9172335600907	264.2074829931973	73	127
264.4745124716553	264.54417233560093	73	127
264.6718820861678	264.7415419501134	73	127
264.85761904761904	264.93891156462587	73	127
265.0550113378685	265.13628117913834	73	127
265.252380952381	265.4381405895692	81	127
265.44975056689344	265.67034013605445	83	127
265.6819274376417	265.8792970521542	85	127
265.8909297052154	266.1115192743764	83	127
266.1231292517007	266.29725623582766	81	127
266.3088888888889	266.5178684807256	80	127
266.5294784580499	266.72684807256235	78	127
266.7384580498866	268.65410430839	69	127
266.7384580498866	267.6556462585034	76	127
266.7384580498866	268.65410430839	71	127
266.7384580498866	268.65410430839	66	127
267.6556462585034	267.7485260770975	75	127
267.7485260770975	267.8414058956916	78	127
267.85301587301586	267.95750566893423	76	127
267.95750566893423	268.03877551020406	80	127
268.03877551020406	268.08521541950114	78	127
268.08521541950114	268.17809523809524	81	127
268.1897052154195	268.27097505668934	80	127
268.27097505668934	268.4683446712018	83	127
268.4799546485261	268.67732426303854	81	127
268.6889342403628	268.8514512471655	85	127
268.86308390022674	269.0720634920635	81	127
269.08367346938775	269.2346031746032	80	127
269.24621315192746	269.43197278911566	78	127
269.4551927437642	269.61773242630386	76	127
269.61773242630386	269.80349206349206	75	127
269.8267120181406	270.72068027210884	63	127
269.8267120181406	270.72068027210884	69	127
269.8267120181406	270.84839002267574	78	127
269.8267120181406	270.72068027210884	72	127
270.72068027210884	271.1502494331066	64	127
270.72068027210884	271.1502494331066	73	127
270.72068027210884	271.1502494331066	68	127
270.86	270.9528798185941	76	127
270.9644897959184	271.06897959183675	80	127
271.06897959183675	271.1734693877551	78	127
271.1734693877551	271.2779591836735	76	127
271.2779591836735	271.3708390022676	75	127
271.38244897959186	271.47532879818596	73	127
271.47532879818596	271.5565986394558	71	127
271.5565986394558	272.98462585034014	64	127
271.5565986394558	271.66108843537415	70	127
271.5565986394558	272.98462585034014	54	127
271.5565986394558	272.98462585034014	61	127
271.66108843537415	271.7655782312925	68	127
271.7771882086168	271.8700680272109	66	127
271.88167800453516	271.98616780045353	68	127
271.98616780045353	272.0790476190476	70	127
272.0790476190476	272.1719274376417	71	127
272.183537414966	272.25319727891156	73	127
272.2648072562358	272.3692970521542	75	127
272.3692970521542	272.39251700680273	76	127
272.39251700680273	272.47378684807256	75	127
272.47378684807256	272.57827664399093	73	127
272.5898866213152	272.69437641723357	75	127
272.69437641723357	272.79886621315194	76	127
272.79886621315194	272.9033560090703	78	127
272.9033560090703	273.0078458049887	80	127
273.01945578231295	273.1355555555556	82	127
273.14714285714285	273.5419047619048	59	127
273.14714285714285	273.25165532879817	83	127
273.14714285714285	273.5419047619048	66	127
273.14714285714285	273.5419047619048	63	127
273.25165532879817	273.3677551020408	82	127
273.3677551020408	273.4722448979592	80	127
273.48385487528344	273.56512471655327	78	127
273.57673469387754	273.66961451247164	76	127
273.66961451247164	273.7508616780045	75	127
273.7508616780045	273.8437641723356	73	127
273.8437641723356	273.948253968254	71	127
273.95984126984126	274.0411337868481	70	127
273.95984126984126	274.3081632653061	66	127
273.95984126984126	274.3081632653061	64	127
273.95984126984126	274.3081632653061	61	127
274.0411337868481	274.1340136054422	71	127
274.1340136054422	274.2268934240363	73	127
274.2268934240363	274.33138321995466	75	127
274.34299319727893	274.435873015873	76	127
274.4474829931973	274.51714285714286	78	127
274.51714285714286	274.6216326530612	80	127
274.6216326530612	274.73773242630386	82	127
274.73773242630386	274.84222222222223	83	127
274.73773242630386	275.10925170068026	59	127
274.73773242630386	275.10925170068026	66	127
274.73773242630386	275.10925170068026	63	127
274.8538321995465	274.95832199546487	82	127
274.95832199546487	275.0395918367347	80	127
275.0395918367347	275.1324716553288	78	127
275.1324716553288	275.23696145124717	76	127
275.24857142857144	275.32984126984127	75	127
275.34145124716554	275.4459410430839	73	127
275.4459410430839	275.5504308390023	71	127
275.5504308390023	275.98	64	127
275.5504308390023	275.65492063492064	70	127
275.5504308390023	275.98	61	127
275.5504308390023	275.98	66	127
275.6665306122449	275.7710204081633	71	127
275.78263038548755	275.8871201814059	73	127
275.8871201814059	276.00319727891156	75	127
276.00319727891156	276.1076870748299	76	127
276.1076870748299	276.200589569161	78	127
276.2121768707483	276.24702947845805	80	127
276.24702947845805	276.3515192743764	82	127
276.3515192743764	276.69981859410433	59	127
276.3515192743764	276.69981859410433	63	127
276.3515192743764	276.69981859410433	83	127
276.3515192743764	276.69981859410433	66	127
277.95367346938775	278.3136054421769	47	127
277.95367346938775	278.3136054421769	35	127
278.3368253968254	278.7199546485261	63	127
278.3368253968254	278.7199546485261	59	127
278.3368253968254	278.7199546485261	66	127
278.76637188208616	279.17272108843537	66	127
278.76637188208616	279.17272108843537	63	127
278.76637188208616	279.17272108843537	59	127
279.2075736961451	279.60231292517005	66	127
279.2075736961451	279.60231292517005	63	127
279.2075736961451	279.60231292517005	59	127
279.6255328798186	280.0202721088435	52	127
279.6255328798186	280.0202721088435	40	127
280.04349206349207	280.42662131519273	68	127
280.04349206349207	280.42662131519273	64	127
280.04349206349207	280.42662131519273	59	127
280.4498412698413	280.83297052154194	68	127
280.4498412698413	280.83297052154194	64	127
280.4498412698413	280.83297052154194	59	127
280.86780045351475	281.2857596371882	68	127
280.86780045351475	281.2857596371882	64	127
280.86780045351475	281.2857596371882	59	127
281.32056689342403	281.7501587301587	47	127
281.32056689342403	281.7501587301587	35	127
281.7849886621315	282.19133786848073	59	127
281.7849886621315	282.19133786848073	66	127
281.7849886621315	282.19133786848073	63	127
282.22616780045354	282.6209070294785	66	127
282.22616780045354	282.6209070294785	59	127
282.22616780045354	282.6209070294785	63	127
282.6557142857143	283.03886621315195	63	127
282.6557142857143	283.03886621315195	59	127
282.6557142857143	283.03886621315195	66	127
283.0736961451247	283.41038548752834	52	127
283.0736961451247	283.41038548752834	40	127
283.44521541950115	283.8399546485261	68	127
283.44521541950115	283.8399546485261	64	127
283.44521541950115	283.8399546485261	59	127
283.8747619047619	284.26952380952383	64	127
283.8747619047619	284.26952380952383	59	127
283.8747619047619	284.26952380952383	68	127
284.3043537414966	284.6990702947846	59	127
284.3043537414966	284.6990702947846	68	127
284.3043537414966	284.6990702947846	64	127
284.72231292517006	285.12866213151926	45	127
284.72231292517006	285.12866213151926	57	127
285.1518820861678	285.6046712018141	61	127
285.1518820861678	285.6046712018141	69	127
285.1518820861678	285.6046712018141	64	127
285.62789115646257	285.999410430839	61	127
285.62789115646257	285.999410430839	69	127
285.62789115646257	285.999410430839	64	127
286.0342403628118	286.440589569161	69	127
286.0342403628118	286.440589569161	64	127
286.0342403628118	286.440589569161	61	127
286.4754195011338	286.8701587301587	57	127
286.4754195011338	286.8701587301587	45	127
286.9165986394558	287.29972789115646	63	127
286.9165986394558	287.29972789115646	71	127
286.9165986394558	287.29972789115646	66	127
287.3345578231293	287.6944671201814	63	127
287.3345578231293	287.6944671201814	71	127
287.3345578231293	287.6944671201814	66	127
287.7292970521542	288.1008163265306	63	127
287.7292970521542	288.1008163265306	71	127
287.7292970521542	288.1008163265306	66	127
288.1356462585034	288.5419954648526	44	127
288.1356462585034	288.5419954648526	68	127
288.1356462585034	288.5419954648526	64	127
288.1356462585034	288.5419954648526	56	127
288.1356462585034	288.5419954648526	71	127
289.4939909297052	289.87714285714287	39	127
289.4939909297052	290.2834920634921	59	127
289.4939909297052	289.87714285714287	66	127
289.4939909297052	289.87714285714287	51	127
289.4939909297052	289.87714285714287	69	127
289.87714285714287	290.2834920634921	44	127
289.87714285714287	290.2834920634921	68	127
289.87714285714287	290.2834920634921	64	127
289.87714285714287	290.2834920634921	56	127
291.20068027210885	291.9669387755102	59	127
291.20068027210885	291.60702947845806	69	127
291.20068027210885	291.60702947845806	66	127
291.20068027210885	291.60702947845806	51	127
291.20068027210885	291.60702947845806	39	127
291.60702947845806	291.9669387755102	52	127
291.60702947845806	291.9669387755102	64	127
291.60702947845806	291.9669387755102	40	127
291.60702947845806	291.9669387755102	68	127
292.001768707483	292.41972789115647	59	127
292.001768707483	292.41972789115647	68	127
292.001768707483	292.41972789115647	64	127
292.47777777777776	292.87249433106575	45	127
292.47777777777776	292.87249433106575	57	127
292.9073469387755	293.3136961451247	64	127
292.9073469387755	293.3136961451247	66	127
292.9073469387755	293.3136961451247	61	127
293.3485260770975	293.9522448979592	47	127
293.766485260771	293.96385487528346	59	127
293.766485260771	293.96385487528346	64	127
293.766485260771	293.96385487528346	56	127
293.987074829932	294.1728344671202	64	127
293.987074829932	294.1728344671202	56	127
294.18444444444447	294.38181405895693	64	127
294.18444444444447	294.38181405895693	56	127
294.4050113378685	294.78816326530614	35	127
294.6139909297052	294.7997732426304	59	127
294.6139909297052	294.7997732426304	63	127
294.6139909297052	294.7997732426304	57	127
294.8113605442177	295.00875283446715	63	127
294.8113605442177	295.00875283446715	59	127
294.8113605442177	295.00875283446715	57	127
295.0203401360544	295.2177324263039	63	127
295.0203401360544	295.2177324263039	59	127
295.0203401360544	295.2177324263039	57	127
295.22931972789115	295.64730158730157	64	127
295.22931972789115	295.64730158730157	59	127
295.22931972789115	295.64730158730157	56	127
295.22931972789115	295.64730158730157	40	127
296.91278911564626	298.5614058956916	59	127
296.91278911564626	297.01727891156463	81	127
296.91278911564626	297.60938775510203	63	127
297.01727891156463	297.1565986394558	85	127
297.1565986394558	297.2959183673469	81	127
297.3075283446712	297.4468480725624	80	127
297.4468480725624	297.55133786848074	78	127
297.55133786848074	297.6674376417234	81	127
297.6674376417234	297.7603174603175	78	127
297.6674376417234	297.8764172335601	64	127
297.77192743764175	297.8764172335601	76	127
297.8880045351474	298.0621768707483	66	127
297.8880045351474	297.9692970521542	75	127
297.9692970521542	298.0621768707483	78	127
298.0621768707483	298.2827664399093	64	127
298.0621768707483	298.1550566893424	73	127
298.1666666666667	298.2827664399093	78	127
298.2943537414966	298.3872562358277	71	127
298.2943537414966	298.4685260770975	63	127
298.3872562358277	298.4801360544218	78	127
298.4801360544218	298.58462585034016	69	127
298.4801360544218	298.67750566893426	66	127
298.58462585034016	298.67750566893426	78	127
298.68911564625853	298.80519274376417	68	127
298.68911564625853	299.0722448979592	64	127
298.80519274376417	298.89809523809527	71	127
298.89809523809527	298.99097505668936	69	127
298.99097505668936	299.09546485260773	68	127
299.107052154195	299.1999546485261	69	127
299.21154195011337	299.31603174603174	71	127
299.31603174603174	299.37410430839003	73	127
299.37410430839003	299.4785941043084	75	127
299.4785941043084	299.58308390022677	76	127
299.59469387755104	299.68757369614514	78	127
299.68757369614514	299.7920634920635	80	127
299.7920634920635	299.87333333333333	81	127
299.87333333333333	299.9778231292517	82	127
299.989433106576	300.1171428571429	83	127
300.12873015873015	300.22163265306125	80	127
300.22163265306125	300.3261224489796	76	127
300.3261224489796	300.90662131519275	63	127
300.3261224489796	300.430612244898	81	127
300.3261224489796	301.84702947845807	59	127
300.44219954648526	300.5234920634921	85	127
300.53510204081635	300.6395691609977	81	127
300.6395691609977	300.7440589569161	80	127
300.7440589569161	300.84854875283446	78	127
300.84854875283446	300.94145124716556	81	127
300.95303854875283	301.138820861678	64	127
300.95303854875283	301.03433106575966	78	127
301.03433106575966	301.1504081632653	76	127
301.1504081632653	301.34780045351476	66	127
301.1504081632653	301.25489795918367	75	127
301.25489795918367	301.34780045351476	78	127
301.35938775510203	301.5567800453515	64	127
301.35938775510203	301.45229024943313	73	127
301.4638775510204	301.56836734693877	78	127
301.56836734693877	301.6496598639456	71	127
301.56836734693877	301.7425396825397	63	127
301.6496598639456	301.75414965986397	78	127
301.76573696145124	301.9631292517007	66	127
301.76573696145124	301.8702267573696	69	127
301.8818594104308	301.9631292517007	78	127
301.9631292517007	302.021179138322	68	127
301.9631292517007	302.2765759637188	64	127
302.021179138322	302.1024489795918	71	127
302.1024489795918	302.1953287981859	69	127
302.2069387755102	302.31142857142856	68	127
302.31142857142856	302.4391383219955	69	127
302.4391383219955	302.5552380952381	71	127
302.5552380952381	302.6597278911565	73	127
302.67133786848075	302.76421768707485	75	127
302.7758276643991	302.85709750566895	76	127
302.85709750566895	302.9615873015873	78	127
302.9615873015873	303.0660770975057	80	127
303.0660770975057	303.1589569160998	81	127
303.17056689342405	303.2518367346939	82	127
303.2518367346939	303.35632653061225	83	127
303.35632653061225	303.4608163265306	80	127
303.4608163265306	303.565306122449	76	127
303.57691609977326	303.94843537414965	73	127
303.6814058956916	303.78589569161	57	127
303.78589569161	303.8671655328798	61	127
303.8671655328798	303.9716553287982	64	127
303.98326530612246	304.0993650793651	69	127
304.11097505668937	304.227052154195	73	127
304.227052154195	304.30834467120184	76	127
304.30834467120184	304.4244217687075	81	127
304.4244217687075	304.5173242630386	85	127
304.52891156462584	304.6450340136054	83	127
304.6450340136054	304.7495238095238	81	127
304.7495238095238	304.85401360544216	80	127
304.85401360544216	304.95850340136053	78	127
304.9701133786848	305.05138321995463	76	127
305.0629931972789	305.16748299319727	74	127
305.16748299319727	305.27197278911564	73	127
305.27197278911564	305.6667120181406	75	127
305.3880725623583	305.4809523809524	57	127
305.49256235827664	305.58544217687074	63	127
305.58544217687074	305.6899319727891	66	127
305.6899319727891	305.7944217687075	69	127
305.7944217687075	305.89891156462585	75	127
305.9105215419501	306.0034013605442	78	127
306.0034013605442	306.0962811791383	83	127
306.0962811791383	306.1891609977324	87	127
306.1891609977324	306.2704081632653	85	127
306.2820408163265	306.37489795918367	83	127
306.3865306122449	306.49102040816325	81	127
306.49102040816325	306.5955102040816	80	127
306.5955102040816	306.71160997732426	78	127
306.71160997732426	306.8160997732426	76	127
306.8277097505669	306.920589569161	75	127
306.920589569161	307.30371882086166	68	127
307.02507936507936	307.141179138322	76	127
307.141179138322	307.2340589569161	88	127
307.2340589569161	307.3269387755102	76	127
307.33854875283447	307.43142857142857	87	127
307.43142857142857	307.53591836734694	76	127
307.53591836734694	307.6520181405896	86	127
307.66362811791385	307.7797278911565	76	127
307.79133786848075	307.88421768707485	85	127
307.88421768707485	307.9887074829932	76	127
307.9887074829932	308.0931972789116	84	127
307.9887074829932	308.2092743764172	69	127
308.0931972789116	308.2092743764172	76	127
308.22090702947844	308.3370068027211	83	127
308.22090702947844	308.4066666666667	68	127
308.3370068027211	308.41825396825396	76	127
308.41825396825396	308.5575963718821	84	127
308.41825396825396	308.62725623582764	69	127
308.5575963718821	308.6388662131519	76	127
308.6504761904762	308.75496598639455	83	127
308.6504761904762	309.0452154195011	68	127
308.7665759637188	308.8710657596372	76	127
308.8710657596372	308.9639455782313	88	127
308.9639455782313	309.06843537414966	76	127
309.0800453514739	309.172925170068	87	127
309.1845351473923	309.28902494331066	76	127
309.28902494331066	309.38190476190476	86	127
309.38190476190476	309.48639455782313	76	127
309.48639455782313	309.60249433106577	85	127
309.61410430839004	309.7185941043084	76	127
309.7185941043084	309.8114739229025	84	127
309.7185941043084	309.9043537414966	69	127
309.8114739229025	309.9159637188209	76	127
309.9159637188209	310.02045351473924	83	127
309.9159637188209	310.1249433106576	68	127
310.0320634920635	310.1249433106576	76	127
310.1365532879819	310.2526303854875	84	127
310.1365532879819	310.3455328798186	69	127
310.2526303854875	310.3571201814059	76	127
310.3571201814059	310.79832199546485	83	127
310.48485260770974	310.6009523809524	68	127
310.61256235827665	310.7286621315193	71	127
310.7286621315193	310.83315192743765	75	127
310.83315192743765	311.2278911564626	76	127
310.937641723356	311.0421315192744	80	127
311.05374149659866	311.15823129251703	83	127
311.1698185941043	311.25111111111113	88	127
311.25111111111113	311.6690702947846	78	127
311.3556009070295	311.47170068027214	69	127
311.4949206349206	311.5877777777778	73	127
311.599410430839	311.70390022675736	77	127
311.70390022675736	312.12185941043083	78	127
311.82	311.92448979591836	80	127
311.92448979591836	312.040589569161	81	127
312.05219954648527	312.1334693877551	85	127
312.1334693877551	312.307619047619	59	127
312.1334693877551	312.307619047619	71	127
312.3192290249433	312.4121088435374	73	127
312.3192290249433	312.51659863945576	68	127
312.42371882086167	312.51659863945576	75	127
312.52820861678003	312.6443083900227	76	127
312.52820861678003	312.74879818594104	64	127
312.6443083900227	312.74879818594104	78	127
312.74879818594104	312.84167800453514	80	127
312.74879818594104	312.96938775510205	68	127
312.8648979591837	312.96938775510205	81	127
312.9809977324263	313.0854875283447	83	127
312.9809977324263	313.1783673469388	59	127
313.0854875283447	313.18997732426305	85	127
313.18997732426305	313.28285714285715	87	127
313.18997732426305	313.3873469387755	68	127
313.28285714285715	313.3873469387755	88	127
313.3989569160998	313.584716553288	64	127
313.3989569160998	313.4918367346939	87	127
313.50344671201816	313.584716553288	88	127
313.584716553288	313.6775963718821	87	127
313.584716553288	313.78208616780046	68	127
313.6775963718821	313.7936961451247	88	127
313.805306122449	313.8865759637188	80	127
313.805306122449	314.0491156462585	59	127
313.8981859410431	313.9562358276644	78	127
313.96784580498866	314.06072562358275	80	127
314.06072562358275	314.1303854875284	78	127
314.06072562358275	314.28131519274376	69	127
314.1303854875284	314.20004535147393	80	127
314.20004535147393	314.29292517006803	78	127
314.29292517006803	314.3625850340136	80	127
314.29292517006803	314.5367346938776	63	127
314.37419501133786	314.46707482993196	78	127
314.47868480725623	314.55995464852606	80	127
314.55995464852606	314.7689342403628	69	127
314.55995464852606	314.64122448979595	78	127
314.64122448979595	314.7108843537415	80	127
314.7108843537415	314.78054421768707	78	127
314.78054421768707	314.88503401360543	80	127
314.78054421768707	315.04757369614515	59	127
314.8966439909297	314.96630385487526	78	127
314.97791383219953	315.04757369614515	80	127
315.0591609977324	315.26814058956916	69	127
315.0591609977324	315.14045351473925	78	127
315.14045351473925	315.2101133786848	80	127
315.2101133786848	315.27977324263037	78	127
315.27977324263037	315.349433106576	80	127
315.27977324263037	315.51197278911565	63	127
315.349433106576	315.4423129251701	78	127
315.45392290249436	315.51197278911565	80	127
315.5235827664399	315.76739229024946	69	127
315.5235827664399	315.616462585034	78	127
315.616462585034	315.69773242630384	76	127
315.69773242630384	315.77897959183673	78	127
315.77897959183673	316.0344217687075	64	127
315.77897959183673	316.5684807256236	76	127
316.04603174603176	316.19696145124715	71	127
316.2085714285714	316.3943083900227	68	127
316.4291609977324	316.63814058956916	71	127
316.64975056689343	316.8819501133787	64	127
316.64975056689343	316.8819501133787	81	127
316.90514739229025	317.0677097505669	71	127
316.90514739229025	317.0677097505669	80	127
317.0793197278912	317.2882993197279	78	127
317.0793197278912	317.2882993197279	68	127
317.2999092970522	317.4856689342404	76	127
317.2999092970522	317.4856689342404	71	127
317.49727891156465	317.6946485260771	78	127
317.49727891156465	317.6946485260771	59	127
317.7062585034014	317.90362811791385	76	127
317.7062585034014	317.90362811791385	69	127
317.9152380952381	318.1009977324263	75	127
317.9152380952381	318.1009977324263	66	127
318.1126077097506	318.30997732426306	76	127
318.1126077097506	318.30997732426306	69	127
318.32158730158733	318.5073469387755	59	127
318.32158730158733	318.71632653061226	75	127
318.5189569160998	318.72793650793653	69	127
318.751156462585	318.94850340136054	66	127
318.96013605442175	319.19233560090703	69	127
319.21555555555557	319.41292517006804	64	127
319.21555555555557	319.94698412698415	80	127
319.4245351473923	319.58707482993196	71	127
319.59868480725623	319.78444444444443	68	127
319.7960544217687	319.99342403628117	71	127
320.00503401360544	320.19079365079364	64	127
320.00503401360544	320.19079365079364	85	127
320.2024036281179	320.41138321995464	71	127
320.2024036281179	320.41138321995464	83	127
320.4229931972789	320.63197278911565	82	127
320.4229931972789	320.63197278911565	68	127
320.6435827664399	320.8293424036281	80	127
320.6435827664399	320.8293424036281	71	127
320.8409523809524	321.03832199546486	63	127
320.8409523809524	321.03832199546486	82	127
321.0615419501134	321.25891156462586	73	127
321.0615419501134	321.25891156462586	80	127
321.27052154195013	321.45628117913833	79	127
321.27052154195013	321.45628117913833	70	127
321.47950113378687	321.67687074829934	80	127
321.47950113378687	321.67687074829934	73	127
321.6884807256236	322.04839002267573	79	127
321.6884807256236	321.86263038548753	63	127
321.8742403628118	322.0716099773243	73	127
322.08321995464854	322.280589569161	70	127
322.2921995464853	322.501179138322	73	127
322.5127891156463	322.6985487528345	68	127
322.5127891156463	323.26743764172335	83	127
322.71015873015875	322.89591836734695	75	127
322.9075283446712	323.1048979591837	71	127
323.11650793650796	323.3254875283447	75	127
323.33707482993196	323.52285714285716	68	127
323.33707482993196	323.52285714285716	88	127
323.53446712018143	323.72022675736963	87	127
323.53446712018143	323.72022675736963	75	127
323.74342403628117	323.90598639455783	71	127
323.74342403628117	323.90598639455783	85	127
323.9175963718821	324.11496598639457	75	127
323.9175963718821	324.11496598639457	83	127
324.1381859410431	324.31233560090703	66	127
324.1381859410431	324.31233560090703	85	127
324.3239455782313	324.52131519274377	76	127
324.3239455782313	324.52131519274377	83	127
324.53292517006804	324.7419047619048	82	127
324.53292517006804	324.7419047619048	73	127
324.75351473922905	324.9508843537415	76	127
324.75351473922905	324.9508843537415	83	127
324.9624943310658	325.1714739229025	66	127
324.9624943310658	325.368843537415	82	127
325.1830612244898	325.38043083900226	76	127
325.39206349206347	325.589410430839	73	127
325.6010430839002	325.78680272108846	76	127
325.79839002267573	325.98417233560093	83	127
325.79839002267573	326.1467120181406	75	127
325.79839002267573	326.1467120181406	71	127
326.0073922902494	326.16993197278913	87	127
326.1815419501134	326.3556916099773	85	127
326.37891156462587	326.52984126984126	83	127
326.5414512471655	326.78526077097507	82	127
326.79687074829934	326.9942403628118	88	127
326.9942403628118	327.38897959183674	73	127
326.9942403628118	327.16839002267574	85	127
326.9942403628118	327.38897959183674	76	127
326.9942403628118	327.38897959183674	66	127
327.16839002267574	327.3773696145125	82	127
327.38897959183674	327.4353968253968	83	127
327.38897959183674	327.66761904761904	75	127
327.38897959183674	327.66761904761904	71	127
327.4353968253968	327.5631292517007	87	127
327.5631292517007	327.6908390022676	85	127
327.70244897959185	327.8185487528345	87	127
327.83015873015876	327.9694784580499	85	127
327.9694784580499	328.1320181405896	83	127
328.1320181405896	328.23650793650796	82	127
328.24809523809523	328.3525850340136	88	127
328.3525850340136	328.48031746031745	87	127
328.4919274376417	328.8518367346939	66	127
328.4919274376417	328.5964172335601	88	127
328.4919274376417	328.8518367346939	76	127
328.4919274376417	328.8518367346939	73	127
328.5964172335601	328.70090702947846	85	127
328.7125170068027	328.8518367346939	82	127
328.8518367346939	329.06079365079364	83	127
328.8518367346939	329.24657596371884	75	127
328.8518367346939	329.24657596371884	71	127
329.07242630385485	329.2581859410431	87	127
329.2697732426304	329.49038548752833	80	127
329.5019954648526	329.6877551020408	88	127
329.69936507936507	329.9083446712018	81	127
329.9199546485261	330.09408163265306	85	127
330.10571428571427	330.27986394557826	79	127
330.2914512471655	330.488843537415	87	127
330.50043083900226	330.69780045351473	80	127
330.7210430839002	330.93002267573695	83	127
330.9416326530612	331.1390022675737	77	127
331.1622222222222	331.3595918367347	85	127
331.37120181405896	331.5801814058957	78	127
331.59179138321997	331.88204081632654	81	127
331.8936507936508	332.0910204081633	75	127
332.10263038548754	332.3	83	127
332.3116099773243	333.04303854875286	76	127
332.3116099773243	332.50897959183675	68	127
332.520589569161	332.7179591836735	71	127
332.72956916099776	332.91532879818595	68	127
332.9269387755102	333.0894784580499	71	127
333.1126984126984	333.2984580498866	81	127
333.1126984126984	333.2984580498866	68	127
333.2984580498866	333.46097505668934	80	127
333.2984580498866	333.46097505668934	71	127
333.4842176870748	333.6699546485261	78	127
333.4842176870748	333.6699546485261	68	127
333.6699546485261	333.86732426303854	76	127
333.6699546485261	333.86732426303854	71	127
333.87895691609975	334.11115646258503	78	127
333.87895691609975	334.11115646258503	69	127
334.1227664399093	334.285283446712	76	127
334.1227664399093	334.285283446712	71	127
334.2969160997732	334.50589569160996	75	127
334.2969160997732	334.50589569160996	69	127
334.51750566893423	334.6916326530612	76	127
334.51750566893423	334.6916326530612	71	127
334.70326530612243	335.0631746031746	75	127
334.70326530612243	334.8774149659864	69	127
334.8890022675737	335.08639455782316	71	127
335.0979818594104	335.2953741496599	69	127
335.3185941043084	335.4811337868481	71	127
335.49274376417236	336.28222222222223	78	127
335.49274376417236	335.6901133786848	69	127
335.71331065759637	335.91068027210883	71	127
335.92231292517005	336.1312925170068	69	127
336.14290249433105	336.3286394557823	71	127
336.3286394557823	336.50281179138324	83	127
336.3286394557823	336.50281179138324	69	127
336.5144217687075	336.7001814058957	81	127
336.5144217687075	336.7001814058957	71	127
336.71179138322	336.8975510204082	80	127
336.71179138322	336.8975510204082	69	127
336.90916099773244	337.12975056689345	78	127
336.90916099773244	337.12975056689345	71	127
337.1413378684807	337.3271201814059	83	127
337.1413378684807	337.3271201814059	68	127
337.3387301587302	337.53609977324265	71	127
337.3387301587302	337.53609977324265	80	127
337.5476870748299	337.7450793650794	81	127
337.5476870748299	337.7450793650794	68	127
337.75666666666666	337.8960090702948	78	127
337.75666666666666	337.8960090702948	71	127
337.90761904761905	338.302358276644	76	127
337.90761904761905	338.1049886621315	68	127
338.1165986394558	338.31396825396826	71	127
338.3255782312925	338.53455782312926	68	127
338.54616780045353	338.7087074829932	71	127
338.72031746031746	338.9292970521542	68	127
338.72031746031746	339.35886621315194	83	127
338.94090702947847	339.1498866213152	71	127
339.1614965986395	339.3472562358277	66	127
339.35886621315194	339.53301587301587	71	127
339.35886621315194	339.53301587301587	82	127
339.54462585034014	339.7536054421769	63	127
339.54462585034014	339.7536054421769	81	127
339.76521541950115	339.9393650793651	78	127
339.76521541950115	339.9393650793651	71	127
339.95097505668934	340.1018820861678	75	127
340.1251247165533	340.32249433106574	71	127
340.33410430839	340.51984126984127	68	127
340.33410430839	340.9610430839002	83	127
340.54308390022675	340.7404535147392	71	127
340.7520634920635	340.94943310657595	66	127
340.9610430839002	341.17002267573696	82	127
340.9610430839002	341.17002267573696	71	127
341.17002267573696	341.3673922902494	81	127
341.17002267573696	341.3673922902494	63	127
341.3790022675737	341.58798185941043	78	127
341.3790022675737	341.58798185941043	71	127
341.5995918367347	341.7388888888889	75	127
341.7505215419501	341.95950113378683	71	127
341.9711111111111	342.16848072562357	83	127
341.9711111111111	342.16848072562357	68	127
342.16848072562357	342.3774603174603	80	127
342.16848072562357	342.3774603174603	71	127
342.40068027210884	342.58643990929704	85	127
342.40068027210884	342.58643990929704	64	127
342.58643990929704	342.77219954648524	83	127
342.58643990929704	342.77219954648524	68	127
342.7838095238095	342.9115192743764	81	127
342.7838095238095	342.9115192743764	61	127
342.9231292517007	343.0972789115646	80	127
342.9231292517007	343.0972789115646	64	127
343.1088888888889	343.30625850340135	78	127
343.1088888888889	343.30625850340135	58	127
343.3178684807256	343.46879818594107	61	127
343.3178684807256	343.46879818594107	76	127
343.48038548752834	343.88673469387754	59	127
343.48038548752834	343.7009977324263	76	127
343.7009977324263	343.89836734693876	75	127
343.909977324263	344.11895691609976	80	127
344.11895691609976	344.2814965986395	78	127
344.29308390022675	344.35115646258504	76	127
344.29308390022675	344.66462585034014	47	127
344.35115646258504	344.3975736961451	78	127
344.3975736961451	344.5020634920635	76	127
344.5020634920635	344.6762358276644	75	127
344.6878458049887	344.74589569161	73	127
344.74589569161	344.8039229024943	75	127
344.8039229024943	344.9084126984127	73	127
344.9084126984127	345.1522448979592	71	127
345.16385487528345	345.5585941043084	52	127
345.16385487528345	345.3612244897959	68	127
345.16385487528345	345.5585941043084	64	127
345.16385487528345	345.5585941043084	40	127
345.3728344671202	345.57020408163265	71	127
345.5818140589569	345.9649433106576	64	127
345.5818140589569	345.7791836734694	68	127
345.79079365079366	345.9649433106576	71	127
345.9649433106576	346.1507029478458	68	127
345.9649433106576	346.3480498866213	64	127
346.16231292517006	346.3712925170068	71	127
346.38290249433106	346.557052154195	68	127
346.38290249433106	346.7543990929705	64	127
346.56866213151926	346.777641723356	71	127
346.78925170068027	347.17238095238093	47	127
346.78925170068027	346.98662131519274	69	127
346.78925170068027	347.17238095238093	66	127
346.78925170068027	347.17238095238093	35	127
346.998231292517	347.1839909297052	71	127
347.20721088435374	347.55551020408166	66	127
347.20721088435374	347.38136054421767	69	127
347.39297052154194	347.5670975056689	71	127
347.5903401360544	347.77607709750566	69	127
347.5903401360544	347.9502494331066	66	127
347.7877097505669	347.96185941043086	71	127
347.97344671201813	348.1708390022676	69	127
347.97344671201813	348.36820861678007	66	127
348.18242630385487	348.37981859410434	71	127
348.3914058956916	348.61201814058956	69	127
348.3914058956916	348.809387755102	66	127
348.3914058956916	348.809387755102	59	127
348.3914058956916	348.809387755102	47	127
348.6236281179138	348.8209977324263	71	127
348.83260770975056	349.1809070294785	66	127
348.83260770975056	349.0415873015873	69	127
349.05319727891157	349.20410430839	71	127
349.20410430839	349.3666666666667	69	127
349.20410430839	349.56403628117914	66	127
349.3898866213152	349.5872562358277	71	127
349.59886621315195	349.9587755102041	66	127
349.59886621315195	349.7962358276644	69	127
349.8078458049887	349.9819954648526	71	127
349.9936054421769	350.19097505668935	68	127
349.9936054421769	350.33027210884353	64	127
349.9936054421769	350.33027210884353	52	127
349.9936054421769	350.33027210884353	40	127
350.2025850340136	350.353514739229	71	127
350.3651247165533	350.51605442176873	68	127
350.3651247165533	350.7018140589569	64	127
350.527664399093	350.72503401360547	71	127
350.73662131519274	350.92240362811793	68	127
350.73662131519274	351.1197732426304	64	127
350.9340136054422	351.14297052154194	71	127
351.1545804988662	351.31714285714287	68	127
351.1545804988662	351.4912925170068	64	127
351.32875283446714	351.50290249433107	71	127
351.50290249433107	351.88603174603173	64	127
351.50290249433107	351.68866213151927	68	127
351.50290249433107	351.88603174603173	52	127
351.70027210884354	351.897641723356	71	127
351.92086167800454	352.118231292517	68	127
351.92086167800454	352.3156009070295	64	127
352.1298412698413	352.32721088435375	71	127
352.338820861678	352.7219501133787	63	127
352.338820861678	352.7219501133787	47	127
352.338820861678	352.5245804988662	66	127
352.5361904761905	352.73356009070295	71	127
352.7451700680272	352.91931972789115	69	127
352.7451700680272	353.1166893424036	66	127
352.9309297052154	353.1282993197279	71	127
353.1282993197279	353.3372789115646	68	127
353.1282993197279	353.5230385487528	64	127
353.1282993197279	353.5230385487528	52	127
353.3488888888889	353.5346485260771	71	127
353.54625850340136	353.8945578231293	64	127
353.54625850340136	353.7552380952381	68	127
353.76684807256237	353.91777777777776	71	127
353.929387755102	354.31249433106575	47	127
353.929387755102	354.1151247165533	66	127
353.929387755102	354.31249433106575	63	127
354.13836734693876	354.33573696145123	71	127
354.3473469387755	354.46344671201814	69	127
354.3473469387755	354.6608163265306	66	127
354.4866666666667	354.6724263038549	71	127
354.68403628117915	354.8930158730159	69	127
354.68403628117915	355.0671655328798	52	127
354.8930158730159	355.09038548752835	68	127
355.1019954648526	355.1948752834467	66	127
355.1019954648526	355.46190476190475	61	127
355.2993650793651	355.36902494331065	64	127
355.49673469387756	355.7057142857143	71	127
355.49673469387756	355.81020408163266	57	127
355.7057142857143	355.8334240362812	69	127
355.84503401360547	355.91469387755103	68	127
355.84503401360547	356.18172335600906	59	127
356.0191836734694	356.10045351473923	66	127
356.2049433106576	356.26297052154194	68	127
356.2049433106576	356.54163265306124	52	127
356.3907029478458	356.44875283446714	69	127
356.44875283446714	356.49519274376416	68	127
356.49519274376416	356.5648299319728	66	127
356.576462585034	356.72739229024944	68	127
356.7390022675737	356.8318820861678	75	127
356.94798185941045	357.0292517006803	76	127
357.1569614512472	357.22662131519274	78	127
357.3311111111111	357.4239909297052	80	127
357.5517006802721	357.6445804988662	81	127
357.79548752834467	358.16702947845806	64	127
357.79548752834467	358.0160997732426	81	127
358.0160997732426	358.16702947845806	80	127
358.17863945578233	358.5501587301587	52	127
358.17863945578233	358.25990929705216	78	127
358.38761904761907	358.4688888888889	76	127
358.58498866213154	358.782358276644	71	127
358.58498866213154	358.9216553287982	59	127
358.782358276644	358.94489795918366	69	127
358.95650793650793	359.03777777777776	68	127
358.95650793650793	359.26997732426304	47	127
359.0958276643991	359.17709750566894	66	127
359.2931972789116	359.4209070294785	76	127
359.2931972789116	359.6298639455782	52	127
359.43249433106575	359.5369841269841	78	127
359.54861678004534	359.64149659863943	76	127
359.6531065759637	359.7924263038549	75	127
359.80403628117915	359.9433333333333	73	127
359.9433333333333	360.08267573696145	71	127
360.0942857142857	360.2336054421769	76	127
360.24519274376416	360.372925170068	78	127
360.372925170068	360.5006349206349	76	127
360.5006349206349	360.61673469387756	75	127
360.62834467120183	360.75603174603174	73	127
360.75603174603174	360.8837641723356	71	127
360.89537414965986	361.02308390022677	76	127
361.03469387755104	361.16238095238094	78	127
361.16238095238094	361.25528344671204	76	127
361.2668707482993	361.3713605442177	75	127
361.3829931972789	361.49909297052153	73	127
361.5107029478458	361.6384126984127	71	127
361.6384126984127	361.7777097505669	76	127
361.7893424036281	361.917052154195	75	127
361.9286621315193	362.0563718820862	76	127
362.0563718820862	362.1840589569161	78	127
362.19566893424036	362.3234013605442	76	127
362.3350113378685	362.47433106575966	78	127
362.4859410430839	362.6136507936508	80	127
362.4859410430839	362.6136507936508	64	127
362.62526077097505	362.7297505668934	81	127
362.62526077097505	362.7297505668934	66	127
362.7413605442177	362.84585034013605	80	127
362.7413605442177	362.84585034013605	64	127
362.8574603174603	362.9967800453515	78	127
362.8574603174603	362.9967800453515	63	127
362.9967800453515	363.12448979591835	76	127
362.9967800453515	363.12448979591835	61	127
363.1360997732426	363.240589569161	75	127
363.1360997732426	363.240589569161	59	127
363.25219954648526	363.39151927437644	64	127
363.25219954648526	363.39151927437644	80	127
363.39151927437644	363.5076190476191	81	127
363.39151927437644	363.5076190476191	66	127
363.51920634920634	363.6353287981859	80	127
363.51920634920634	363.6353287981859	64	127
363.6353287981859	363.7746485260771	78	127
363.6353287981859	363.7746485260771	63	127
363.7746485260771	363.9139682539683	61	127
363.7746485260771	363.9139682539683	76	127
363.92555555555555	364.0300453514739	75	127
363.92555555555555	364.0300453514739	59	127
364.04167800453513	364.1461678004535	64	127
364.04167800453513	364.1461678004535	80	127
364.15777777777777	364.29709750566894	81	127
364.15777777777777	364.29709750566894	66	127
364.3087074829932	364.42480725623585	80	127
364.3087074829932	364.42480725623585	64	127
364.4363945578231	364.564126984127	78	127
364.4363945578231	364.564126984127	63	127
364.564126984127	364.70344671201815	76	127
364.564126984127	364.70344671201815	61	127
364.70344671201815	364.8079365079365	75	127
364.70344671201815	364.8079365079365	59	127
364.8195464852608	364.9356462585034	64	127
364.8195464852608	364.9356462585034	80	127
364.9472335600907	365.0865759637188	78	127
364.9472335600907	365.0865759637188	63	127
365.0865759637188	365.23750566893426	80	127
365.0865759637188	365.23750566893426	64	127
365.24911564625853	365.34199546485263	81	127
365.24911564625853	365.34199546485263	66	127
365.3535827664399	365.4697052154195	80	127
365.3535827664399	365.4697052154195	64	127
365.48131519274375	365.5974149659864	81	127
365.48131519274375	365.5974149659864	66	127
365.60902494331066	365.9921541950113	83	127
365.60902494331066	365.9921541950113	68	127
366.6307029478458	366.83968253968254	76	127
366.83968253968254	366.9209523809524	88	127
367.0486621315193	367.1415419501134	87	127
367.257641723356	367.4898412698413	87	127
367.4898412698413	367.6756009070295	85	127
367.68721088435376	367.7568707482993	85	127
367.87297052154196	367.9542403628118	83	127
368.0819501133787	368.29092970521543	83	127
368.29092970521543	368.46507936507936	81	127
368.47668934240363	368.56956916099773	81	127
368.69727891156464	368.79015873015874	80	127
368.91786848072564	369.46353741496597	61	127
368.91786848072564	369.0804081632653	78	127
368.91786848072564	369.46353741496597	57	127
369.0920181405896	369.13843537414965	80	127
369.13843537414965	369.19650793650794	78	127
369.2081179138322	369.2661678004535	76	127
369.27777777777777	369.46353741496597	78	127
369.46353741496597	369.5563945578231	80	127
369.46353741496597	369.66090702947844	59	127
369.46353741496597	369.66090702947844	56	127
369.6725170068027	369.7653968253968	81	127
369.6725170068027	369.7653968253968	57	127
369.6725170068027	369.7653968253968	54	127
369.8931065759637	370.0904761904762	81	127
369.8931065759637	370.0904761904762	78	127
369.8931065759637	370.0904761904762	57	127
369.8931065759637	370.0904761904762	54	127
370.1136961451247	370.28784580498865	83	127
370.1136961451247	370.28784580498865	80	127
370.1136961451247	370.28784580498865	56	127
370.1136961451247	370.28784580498865	52	127
370.2994557823129	370.4852154195011	85	127
370.2994557823129	370.4852154195011	81	127
370.2994557823129	370.4852154195011	54	127
370.2994557823129	370.4852154195011	51	127
370.50843537414966	370.7058049886621	85	127
370.50843537414966	370.7058049886621	81	127
370.50843537414966	370.9031746031746	52	127
370.7058049886621	370.91478458049886	83	127
370.7058049886621	370.91478458049886	80	127
370.92639455782313	371.00766439909296	81	127
370.92639455782313	371.00766439909296	78	127
371.13537414965987	371.2166439909297	80	127
371.13537414965987	371.2166439909297	76	127
371.33274376417233	371.5417233560091	80	127
371.33274376417233	371.5417233560091	71	127
371.33274376417233	371.72748299319727	59	127
371.33274376417233	371.72748299319727	47	127
371.5417233560091	371.73909297052154	78	127
371.5417233560091	371.73909297052154	69	127
371.7507029478458	371.82036281179137	68	127
371.7507029478458	371.82036281179137	76	127
371.92485260770974	371.9829024943311	75	127
371.92485260770974	371.9829024943311	66	127
372.110589569161	372.49374149659866	52	127
372.110589569161	372.2963718820862	76	127
372.110589569161	372.2963718820862	68	127
372.110589569161	372.49374149659866	40	127
372.5285714285714	372.9465306122449	59	127
372.9465306122449	373.14390022675735	64	127
373.37609977324263	373.8056689342404	59	127
373.8056689342404	373.9798185941043	64	127
374.2120181405896	374.6067573696145	59	127
374.6067573696145	374.76927437641723	64	127
374.9898866213152	375.17562358276643	59	127
375.40784580498865	375.6052154195011	64	127
375.8258049886621	376.44113378684807	71	127
375.8258049886621	376.23215419501133	47	127
375.8258049886621	376.2553741496599	69	127
376.2553741496599	376.44113378684807	68	127
376.2553741496599	376.44113378684807	52	127
376.6617233560091	377.2538321995465	71	127
376.6617233560091	377.0680725623583	69	127
376.6617233560091	377.0332426303855	47	127
377.0680725623583	377.2538321995465	68	127
377.0680725623583	377.2538321995465	52	127
377.48603174603176	377.8691609977324	47	127
377.48603174603176	377.89238095238096	69	127
377.48603174603176	378.07814058956916	71	127
377.89238095238096	378.07814058956916	68	127
377.89238095238096	378.07814058956916	52	127
378.31034013605444	378.49609977324263	75	127
378.31034013605444	378.49609977324263	71	127
378.31034013605444	378.49609977324263	47	127
378.7282993197279	379.1114285714286	76	127
378.7282993197279	379.1114285714286	71	127
378.7282993197279	379.1114285714286	40	127
382.07197278911565	382.6524716553288	45	127
382.07197278911565	382.6524716553288	57	127
382.6524716553288	382.82662131519277	56	127
382.6524716553288	382.82662131519277	44	127
382.838231292517	382.93111111111114	54	127
382.838231292517	382.93111111111114	42	127
383.0356009070295	383.2445804988662	42	127
383.0356009070295	383.2445804988662	54	127
383.25619047619045	383.4535600907029	52	127
383.25619047619045	383.4535600907029	40	127
383.4651700680272	383.67414965986393	51	127
383.4651700680272	383.67414965986393	39	127
383.6857596371882	384.06888888888886	52	127
383.6857596371882	384.06888888888886	40	127
384.55650793650796	384.9512471655329	47	127
384.55650793650796	384.9512471655329	35	127
385.39242630385485	385.6014058956916	68	127
385.39242630385485	386.11224489795916	76	127
385.61301587301585	385.8103854875283	71	127
385.8219954648526	386.03097505668933	68	127
386.0425850340136	386.14707482993197	71	127
386.15868480725624	386.3560544217687	68	127
386.15868480725624	386.3560544217687	81	127
386.367664399093	386.5766439909297	71	127
386.367664399093	386.5766439909297	80	127
386.588253968254	386.75079365079364	78	127
386.588253968254	386.75079365079364	68	127
386.7740136054422	386.9829931972789	76	127
386.7740136054422	386.9829931972789	71	127
386.9946031746032	387.1687528344671	78	127
386.9946031746032	387.1687528344671	69	127
387.19197278911565	387.3545124716553	76	127
387.19197278911565	387.3545124716553	71	127
387.3661224489796	387.5518820861678	69	127
387.3661224489796	387.5518820861678	75	127
387.56349206349205	387.7724716553288	76	127
387.56349206349205	387.7724716553288	71	127
387.78408163265306	388.13238095238097	75	127
387.78408163265306	387.958231292517	69	127
387.96984126984125	388.15560090702945	71	127
388.1672108843537	388.352970521542	69	127
388.3645804988662	388.56195011337866	71	127
388.5735600907029	388.78253968253966	68	127
388.5735600907029	389.28176870748297	76	127
388.79414965986393	388.9682993197279	71	127
388.97990929705213	389.1772789115646	68	127
389.18888888888887	389.32820861678005	71	127
389.3514285714286	389.51396825396824	68	127
389.3514285714286	389.51396825396824	81	127
389.5255782312925	389.722947845805	71	127
389.5255782312925	389.722947845805	80	127
389.73455782312925	389.95514739229026	68	127
389.73455782312925	389.95514739229026	78	127
389.9667573696145	390.164126984127	76	127
389.9667573696145	390.164126984127	71	127
390.17573696145126	390.37310657596373	78	127
390.17573696145126	390.37310657596373	69	127
390.384716553288	390.5356462585034	71	127
390.384716553288	390.5356462585034	76	127
390.54725623582766	390.7446258503401	75	127
390.54725623582766	390.7446258503401	69	127
390.7562358276644	390.9419954648526	71	127
390.7562358276644	390.9419954648526	76	127
390.95360544217687	391.1625850340136	69	127
390.95360544217687	391.3483446712018	75	127
391.1741950113379	391.37156462585034	71	127
391.3831746031746	391.5689342403628	69	127
391.59215419501135	391.77791383219954	71	127
391.7895238095238	392.0217233560091	76	127
391.7895238095238	392.0217233560091	68	127
392.53256235827666	392.84603174603177	69	127
392.53256235827666	392.84603174603177	73	127
393.32204081632653	394.8777777777778	59	127
393.32204081632653	394.8777777777778	47	127
393.50780045351473	393.69356009070293	64	127
393.50780045351473	393.69356009070293	68	127
393.71678004535147	393.91414965986394	68	127
393.71678004535147	394.48303854875286	71	127
393.9257596371882	394.1231292517007	64	127
394.13473922902494	394.32049886621314	68	127
394.3321088435374	394.5294784580499	64	127
394.5526984126984	394.7848979591837	69	127
394.5526984126984	394.98226757369616	71	127
394.79650793650796	394.99387755102043	63	127
395.00548752834464	395.22607709750565	68	127
395.2376870748299	395.4350566893424	71	127
395.44666666666666	395.6556462585034	68	127
395.66725623582767	395.8297959183673	71	127
395.8414058956916	396.0155555555556	68	127
396.0271655328798	396.2245351473923	71	127
396.23614512471653	396.433514739229	68	127
396.45673469387754	396.65410430839	71	127
396.6657142857143	397.4203628117914	78	127
396.6657142857143	396.85147392290247	66	127
396.86308390022674	397.0604535147392	71	127
397.0720634920635	397.26943310657595	66	127
397.2810430839002	397.4668027210884	71	127
397.4784126984127	397.67578231292515	83	127
397.4784126984127	397.67578231292515	66	127
397.6873922902494	397.8615419501134	71	127
397.6873922902494	397.8615419501134	81	127
397.8731519274376	398.0589115646259	80	127
397.8731519274376	398.0589115646259	69	127
398.0705215419501	398.2678911564626	71	127
398.0705215419501	398.2678911564626	78	127
398.2795011337868	398.372380952381	83	127
398.2795011337868	398.50009070294783	68	127
398.5117006802721	398.61619047619047	83	127
398.5117006802721	398.6974603174603	71	127
398.61619047619047	398.70907029478457	80	127
398.72068027210884	398.80195011337867	81	127
398.72068027210884	398.89482993197277	68	127
398.89482993197277	398.9877097505669	81	127
398.89482993197277	399.06897959183675	71	127
398.9877097505669	399.06897959183675	78	127
399.080589569161	399.2779591836735	68	127
399.080589569161	399.47532879818596	76	127
399.28956916099776	399.4869387755102	71	127
399.4985487528345	399.69591836734696	68	127
399.7075283446712	399.89328798185943	71	127
399.9048979591837	400.10226757369617	66	127
399.9048979591837	400.450566893424	78	127
400.1138775510204	400.28802721088437	71	127
400.29963718820864	400.4970068027211	66	127
400.5086167800454	400.61310657596374	80	127
400.5086167800454	400.69437641723357	71	127
400.61310657596374	400.70598639455784	81	127
400.70598639455784	400.9033560090703	83	127
400.70598639455784	400.9033560090703	66	127
400.92657596371885	401.1007256235828	81	127
400.92657596371885	401.1007256235828	71	127
401.11233560090704	401.29809523809524	69	127
401.11233560090704	401.29809523809524	80	127
401.3213151927438	401.51868480725625	78	127
401.3213151927438	401.51868480725625	71	127
401.5302947845805	401.727664399093	83	127
401.5302947845805	401.9018140589569	68	127
401.73927437641726	401.9018140589569	82	127
401.9134240362812	402.11079365079365	81	127
402.1224036281179	402.3662131519274	80	127
402.3778231292517	402.5403628117914	77	127
402.3778231292517	402.70290249433106	69	127
402.55197278911567	402.7261224489796	78	127
402.73773242630386	402.92349206349206	80	127
402.93510204081633	403.1789115646259	81	127
403.1905215419501	404.7230385487528	59	127
403.1905215419501	404.200589569161	76	127
404.21219954648524	404.2702494331066	78	127
404.2702494331066	404.3166893424036	76	127
404.3166893424036	404.37473922902495	75	127
404.37473922902495	404.421179138322	76	127
404.421179138322	404.6301587301587	80	127
404.641768707483	404.83913832199545	78	127
404.8507482993197	405.05972789115646	83	127
404.8507482993197	405.2338775510204	59	127
405.0713378684807	405.1642176870748	88	127
405.1642176870748	405.2570975056689	87	127
405.2570975056689	405.33836734693875	85	127
405.33836734693875	405.4428571428571	83	127
405.4544671201814	405.55895691609976	81	127
405.55895691609976	405.66344671201813	80	127
405.66344671201813	405.82598639455784	78	127
405.66344671201813	406.01174603174604	45	127
405.66344671201813	406.01174603174604	57	127
405.8492063492063	405.9304761904762	81	127
405.9420861678004	406.0465759637188	80	127
406.0465759637188	406.15106575963716	78	127
406.15106575963716	406.23233560090705	76	127
406.2439455782313	406.32521541950115	75	127
406.3368253968254	406.4413151927438	73	127
406.4413151927438	406.8128344671202	47	127
406.4413151927438	406.55741496598637	73	127
406.4413151927438	406.8128344671202	59	127
406.55741496598637	406.66190476190474	71	127
406.66190476190474	406.7547845804989	69	127
406.7663945578231	406.8360544217687	68	127
406.847664399093	406.95215419501136	69	127
406.95215419501136	407.04503401360546	71	127
407.04503401360546	407.1495238095238	73	127
407.1611337868481	407.2540136054422	75	127
407.26562358276647	407.37011337868483	76	127
407.37011337868483	407.47460317460315	78	127
407.47460317460315	407.5790929705215	80	127
407.5790929705215	407.6835827664399	81	127
407.6835827664399	407.78807256235825	83	127
407.78807256235825	407.86934240362814	85	127
407.86934240362814	407.95061224489797	87	127
407.95061224489797	408.0202721088435	88	127
408.0318820861678	409.6108390022676	47	127
408.0318820861678	408.0783219954649	80	127
408.0318820861678	409.6108390022676	35	127
408.0899319727891	408.171201814059	78	127
408.171201814059	408.22925170068027	80	127
408.22925170068027	408.2873015873016	78	127
408.2873015873016	408.3569614512472	80	127
408.3569614512472	408.42662131519273	78	127
408.42662131519273	408.4846712018141	80	127
408.49628117913835	408.55433106575964	78	127
408.5659410430839	408.64721088435374	80	127
408.64721088435374	408.7168707482993	78	127
408.7168707482993	408.7865306122449	80	127
408.7865306122449	408.8910204081633	78	127
408.8910204081633	408.96068027210885	80	127
408.9722902494331	409.01873015873014	78	127
409.0303401360544	409.1	80	127
409.1	409.1696598639456	78	127
409.1696598639456	409.2509297052154	80	127
409.2509297052154	409.320589569161	78	127
409.320589569161	409.3902494331066	80	127
409.40185941043086	409.4715192743764	78	127
409.4831292517007	409.5295691609977	80	127
409.541179138322	409.5992290249433	78	127
409.5992290249433	409.6688888888889	76	127
409.6688888888889	409.7501587301587	78	127
409.7501587301587	409.8430385487528	76	127
409.7501587301587	410.1565079365079	52	127
409.7501587301587	410.1565079365079	40	127
409.9707482993197	410.0404081632653	78	127
410.0404081632653	410.1100680272109	76	127
410.1100680272109	410.1681179138322	75	127
410.1681179138322	410.3306575963719	76	127
410.36548752834466	410.45836734693876	78	127
410.59768707482993	410.69056689342403	80	127
410.81827664399094	410.8879365079365	81	127
411.00403628117914	411.09691609977324	83	127
411.18979591836734	411.28267573696144	85	127
411.4336054421769	413.03578231292516	75	127
411.6425850340136	411.7122448979592	61	127
411.7122448979592	411.77029478458047	59	127
411.78190476190474	411.81673469387755	58	127
411.81673469387755	411.9212244897959	59	127
411.9328344671202	412.0257142857143	61	127
412.1418140589569	412.22308390022675	63	127
412.35079365079366	412.45528344671203	64	127
412.6062131519274	412.6874829931973	66	127
412.81519274376416	412.90807256235826	68	127
413.03578231292516	413.34925170068027	64	127
413.03578231292516	413.34925170068027	76	127
413.80204081632655	414.22	64	127
413.80204081632655	414.22	73	127
413.80204081632655	414.22	45	127
414.71922902494333	415.0907482993197	64	127
414.71922902494333	415.0907482993197	66	127
414.71922902494333	415.0907482993197	47	127
415.53192743764174	415.9150566893424	71	127
415.53192743764174	415.9150566893424	63	127
415.53192743764174	415.9150566893424	35	127
416.40267573696144	416.7277551020408	40	127
416.40267573696144	416.7277551020408	64	127
417.34308390022676	417.76104308390023	83	127
417.34308390022676	417.76104308390023	78	127
417.34308390022676	417.76104308390023	75	127
417.34308390022676	417.76104308390023	71	127
417.34308390022676	417.76104308390023	59	127
417.34308390022676	417.76104308390023	47	127
418.21383219954646	418.8059410430839	80	127
418.21383219954646	418.8059410430839	76	127
418.21383219954646	418.8059410430839	40	127
418.21383219954646	418.8059410430839	71	127
418.21383219954646	418.8059410430839	52	127
