# onset,offset,note,velocity
13.025623582766439	13.768662131519275	76	127
13.838321995464852	13.989251700680272	81	127
14.000861678004535	14.175011337868481	80	127
14.186621315192744	14.383990929705215	78	127
14.395600907029479	14.59297052154195	76	127
14.604580498866213	14.813560090702948	78	127
14.82517006802721	15.01092970521542	76	127
15.022539682539682	15.16185941043084	59	127
15.022539682539682	15.196689342403628	75	127
15.20829931972789	15.3940589569161	76	127
15.405668934240364	15.556598639455782	54	127
15.405668934240364	15.753968253968255	75	127
15.77718820861678	15.939727891156462	51	127
16.19514739229025	16.369297052154195	47	127
16.19514739229025	16.938185941043084	78	127
17.007845804988662	17.15875283446712	83	127
17.170385487528346	17.34453514739229	81	127
17.356145124716555	17.5418820861678	80	127
17.5418820861678	17.739274376417235	78	127
17.739274376417235	17.913424036281178	83	127
17.92501133786848	18.11077097505669	80	127
18.11077097505669	18.23848072562358	52	127
18.11077097505669	18.25011337868481	81	127
18.26172335600907	18.459092970521542	78	127
18.482312925170067	18.888662131519276	76	127
18.482312925170067	18.668072562358276	47	127
18.923492063492063	19.062789115646257	44	127
19.318208616780044	19.89873015873016	83	127
19.318208616780044	19.49238095238095	40	127
19.74780045351474	20.072879818594103	52	127
19.89873015873016	20.08448979591837	82	127
20.09609977324263	20.270226757369613	81	127
20.28185941043084	20.46761904761905	78	127
20.47922902494331	20.676598639455783	75	127
20.47922902494331	20.85074829931973	47	127
20.699818594104308	20.873968253968254	71	127
20.885578231292516	21.384807256235828	83	127
21.23387755102041	21.570566893424036	52	127
21.384807256235828	21.59378684807256	82	127
21.605396825396827	21.8027664399093	81	127
21.81437641723356	22.011746031746032	78	127
22.023356009070294	22.36002267573696	47	127
22.023356009070294	22.18589569160998	75	127
22.19750566893424	22.36002267573696	71	127
22.371655328798187	22.56902494331066	85	127
22.56902494331066	22.778004535147392	83	127
22.789614512471655	22.859274376417233	81	127
22.975374149659864	23.06825396825397	80	127
23.195963718820863	23.41655328798186	80	127
23.41655328798186	23.602312925170068	78	127
23.61392290249433	23.660362811791384	76	127
23.7184126984127	23.788072562358277	75	127
23.904172335600908	23.973832199546486	76	127
24.10154195011338	24.171201814058957	78	127
24.171201814058957	24.21764172335601	76	127
24.21764172335601	24.275691609977326	75	127
24.275691609977326	24.473061224489797	76	127
24.48467120181406	24.554331065759637	78	127
24.658820861678006	24.71687074829932	80	127
24.856190476190477	24.937460317460317	81	127
25.06517006802721	25.14643990929705	83	127
25.262539682539682	25.297369614512473	85	127
25.425079365079366	26.156507936507936	52	127
25.425079365079366	25.645668934240362	85	127
25.645668934240362	25.81981859410431	83	127
25.83142857142857	25.924308390022677	81	127
26.005578231292517	26.09845804988662	80	127
26.226167800453513	26.89954648526077	47	127
26.226167800453513	26.43514739229025	80	127
26.43514739229025	26.59768707482993	78	127
26.609297052154194	26.66734693877551	76	127
26.748616780045353	26.841496598639456	75	127
26.96920634920635	27.154965986394558	76	127
26.96920634920635	27.35233560090703	40	127
27.16657596371882	27.27106575963719	83	127
27.27106575963719	27.375555555555554	80	127
27.38716553287982	27.57292517006803	76	127
27.38716553287982	27.74707482993197	52	127
27.58453514739229	27.66580498866213	71	127
27.66580498866213	27.7702947845805	68	127
27.781904761904762	28.13020408163265	40	127
27.781904761904762	28.13020408163265	64	127
28.675873015873016	29.41891156462585	47	127
29.48857142857143	30.347709750566892	42	127
30.428979591836736	31.253287981859412	39	127
36.91895691609977	37.06988662131519	61	127
36.91895691609977	37.06988662131519	49	127
37.06988662131519	37.255646258503404	48	127
37.06988662131519	37.255646258503404	60	127
37.27886621315193	37.4762358276644	61	127
37.27886621315193	37.4762358276644	49	127
37.4878231292517	37.67360544217687	63	127
37.4878231292517	37.67360544217687	51	127
37.685215419501134	37.85934240362812	64	127
37.685215419501134	37.85934240362812	52	127
37.87095238095238	38.068344671201814	63	127
37.87095238095238	38.068344671201814	51	127
38.079954648526076	38.28893424036281	61	127
38.079954648526076	38.28893424036281	49	127
38.300544217687076	38.48630385487528	59	127
38.300544217687076	38.48630385487528	47	127
38.497891156462586	38.92748299319728	58	127
38.497891156462586	38.92748299319728	46	127
46.555238095238096	46.740975056689344	63	127
46.555238095238096	46.740975056689344	51	127
46.752585034013606	46.938367346938776	50	127
46.752585034013606	46.938367346938776	62	127
46.94997732426304	47.11251700680272	63	127
46.94997732426304	47.11251700680272	51	127
47.124104308390024	47.321496598639456	52	127
47.124104308390024	47.321496598639456	64	127
47.33310657596372	47.53047619047619	51	127
47.33310657596372	47.53047619047619	63	127
47.542086167800456	47.704625850340136	49	127
47.542086167800456	47.704625850340136	61	127
47.704625850340136	47.925215419501136	47	127
47.704625850340136	47.925215419501136	59	127
47.94843537414966	48.14580498866213	58	127
47.94843537414966	48.14580498866213	46	127
48.1574149659864	48.52893424036281	44	127
48.1574149659864	48.52893424036281	56	127
49.3184126984127	49.39968253968254	63	127
49.51578231292517	49.59705215419501	63	127
49.724761904761905	49.81764172335601	63	127
49.92213151927437	50.00340136054422	63	127
49.92213151927437	50.24721088435374	44	127
50.09628117913832	50.24721088435374	71	127
50.258820861678004	50.43297052154195	70	127
50.444580498866216	50.63034013605442	68	127
50.641950113378684	50.72321995464853	67	127
50.641950113378684	51.0134693877551	39	127
50.83931972789116	51.025079365079364	73	127
51.04829931972789	51.24566893424036	70	127
51.257278911564626	51.4546485260771	67	127
51.477868480725625	51.84938775510204	68	127
51.477868480725625	51.84938775510204	44	127
51.87260770975057	52.26734693877551	63	127
52.48793650793651	52.557596371882084	63	127
52.65047619047619	52.7433560090703	63	127
52.85945578231293	52.940725623582765	63	127
53.056825396825396	53.12648526077098	63	127
53.056825396825396	53.41673469387755	44	127
53.25419501133787	53.439954648526076	71	127
53.45156462585034	53.63732426303855	70	127
53.660544217687075	53.85791383219954	68	127
53.86952380952381	54.25265306122449	39	127
53.86952380952381	53.96240362811791	67	127
54.090113378684805	54.27587301587302	73	127
54.28748299319728	54.48485260770975	70	127
54.49646258503402	54.68222222222222	67	127
54.693832199546485	55.076961451247165	68	127
54.693832199546485	55.076961451247165	44	127
56.50498866213152	56.609478458049885	61	127
56.50498866213152	56.609478458049885	49	127
56.70235827664399	56.7952380952381	61	127
56.70235827664399	56.7952380952381	49	127
56.946167800453516	57.02743764172335	61	127
56.946167800453516	57.02743764172335	49	127
57.143537414965984	59.41909297052154	49	127
57.143537414965984	59.41909297052154	61	127
59.570022675736965	59.96476190476191	54	127
59.999591836734695	60.37111111111111	66	127
60.4059410430839	60.80068027210884	49	127
60.83551020408163	61.20702947845805	61	127
61.23024943310658	61.648208616780046	54	127
61.67142857142857	62.05455782312925	66	127
62.077777777777776	62.47251700680272	49	127
62.49573696145125	62.902086167800455	61	127
62.91369614512472	63.27360544217687	54	127
63.09945578231292	63.15750566893424	68	127
63.169115646258504	63.23877551020408	66	127
63.23877551020408	63.30843537414966	65	127
63.30843537414966	63.5174149659864	66	127
63.54063492063492	63.610294784580496	68	127
63.73800453514739	63.830884353741496	70	127
63.94698412698413	64.03986394557823	71	127
64.16757369614513	64.26045351473923	73	127
64.3649433106576	64.45782312925171	75	127
64.5855328798186	64.69	76	127
64.69	64.81770975056689	73	127
64.81770975056689	64.87578231292517	82	127
64.96866213151928	65.10798185941043	82	127
65.10798185941043	65.24730158730159	76	127
65.24730158730159	65.3053514739229	85	127
65.39823129251701	65.53755102040816	85	127
65.54916099773243	65.67687074829932	83	127
65.68845804988662	65.83938775510204	82	127
65.85102040816327	65.97873015873016	80	127
65.99034013605443	66.14126984126985	78	127
66.1528798185941	66.29219954648526	76	127
66.29219954648526	66.45471655328798	75	127
66.46634920634921	66.5940589569161	83	127
66.6056462585034	66.74498866213152	78	127
66.74498866213152	66.88430839002268	75	127
66.89591836734694	67.0352380952381	71	127
67.04684807256236	67.18616780045352	66	127
67.18616780045352	67.29065759637189	63	127
67.29065759637189	67.41836734693878	59	127
67.42997732426304	67.5692970521542	63	127
67.58090702947845	67.72022675736962	66	127
67.73181405895691	67.85952380952381	71	127
67.87115646258503	67.99886621315193	75	127
68.0104761904762	68.16140589569162	76	127
68.16140589569162	68.28911564625851	73	127
68.30072562358276	68.38199546485261	82	127
68.46326530612245	68.6025850340136	82	127
68.6025850340136	68.74190476190476	76	127
68.75349206349206	68.81156462585034	85	127
68.89283446712018	69.05537414965987	85	127
69.06698412698412	69.22952380952381	83	127
69.24111111111111	69.368820861678	82	127
69.38045351473923	69.50816326530612	80	127
69.51975056689342	69.65909297052154	78	127
69.65909297052154	69.7984126984127	76	127
69.81002267573696	69.94934240362812	75	127
69.96095238095238	70.1118820861678	83	127
70.1118820861678	70.25120181405896	78	127
70.26278911564626	70.39049886621315	75	127
70.40213151927438	70.54145124716554	71	127
70.54145124716554	70.68077097505669	66	127
70.69238095238096	70.82009070294785	63	127
70.8317006802721	70.93619047619048	59	127
70.94780045351474	71.0871201814059	63	127
71.09873015873016	71.23804988662131	66	127
71.24965986394558	71.37736961451247	71	127
71.38897959183673	71.53988662131519	75	127
71.53988662131519	71.67922902494331	64	127
71.69083900226758	71.81854875283447	68	127
71.83015873015873	71.96947845804989	71	127
71.96947845804989	72.10879818594104	76	127
72.12040816326531	72.2481179138322	80	127
72.25972789115646	72.38743764172335	81	127
72.39904761904762	72.53834467120181	83	127
72.54997732426304	72.67768707482993	80	127
72.68927437641723	72.81698412698412	76	127
72.82861678004535	72.97954648526077	71	127
72.97954648526077	73.15369614512471	68	127
73.16530612244898	73.29301587301588	64	127
73.30460317460317	73.43231292517007	66	127
73.43231292517007	73.58324263038548	70	127
73.59487528344671	73.73419501133787	73	127
73.74580498866213	73.88512471655329	78	127
73.88512471655329	74.02444444444444	82	127
74.03605442176871	74.1637641723356	83	127
74.17537414965986	74.30308390022675	85	127
74.31469387755102	74.45399092970521	82	127
74.46562358276644	74.59333333333333	78	127
74.6049433106576	74.72104308390023	73	127
74.7326530612245	74.87197278911565	70	127
74.87197278911565	75.01129251700681	66	127
75.02290249433106	75.15061224489796	71	127
75.16222222222223	75.30154195011337	83	127
75.30154195011337	75.44086167800454	82	127
75.4524716553288	75.59179138321996	81	127
75.60337868480725	75.7659410430839	80	127
75.7659410430839	75.92848072562359	79	127
75.96328798185941	76.0909977324263	78	127
76.10263038548753	76.23034013605442	73	127
76.24192743764172	76.38126984126984	75	127
76.38126984126984	76.520589569161	76	127
76.53219954648526	76.6134693877551	78	127
76.6250566893424	76.76439909297052	76	127
76.76439909297052	76.90371882086168	71	127
76.90371882086168	77.01981859410431	83	127
77.03142857142858	77.15913832199547	82	127
77.15913832199547	77.2752380952381	81	127
77.28684807256236	77.43777777777778	80	127
77.44938775510204	77.57709750566893	79	127
77.60031746031746	77.75122448979592	78	127
77.76285714285714	77.9021768707483	73	127
77.91378684807256	78.04149659863945	75	127
78.05310657596372	78.19242630385487	76	127
78.19242630385487	78.33174603174604	78	127
78.34335600907029	78.47106575963718	76	127
78.48267573696145	78.61038548752835	75	127
78.61038548752835	78.7497052154195	83	127
78.76131519274377	78.88902494331066	78	127
78.90061224489796	79.03995464852608	75	127
79.03995464852608	79.17927437641724	71	127
79.17927437641724	79.30698412698413	66	127
79.31859410430839	79.43469387755103	68	127
79.44630385487528	79.58562358276644	71	127
79.58562358276644	79.7249433106576	76	127
79.73655328798186	79.85265306122449	80	127
79.86426303854876	80.0384126984127	76	127
80.0384126984127	80.18934240362812	83	127
80.20095238095239	80.32866213151928	77	127
80.32866213151928	80.46798185941043	78	127
80.46798185941043	80.5724716553288	80	127
80.5724716553288	80.67696145124717	78	127
80.68854875283446	80.79303854875283	76	127
80.80467120181406	80.90916099773243	75	127
80.90916099773243	81.02526077097505	73	127
81.02526077097505	81.12975056689342	71	127
81.14136054421769	81.19941043083901	75	127
81.21102040816326	81.28068027210884	73	127
81.29229024943311	81.36195011337868	75	127
81.36195011337868	81.4315873015873	73	127
81.4315873015873	81.50126984126985	75	127
81.50126984126985	81.57092970521542	73	127
81.57092970521542	81.640589569161	75	127
81.65219954648526	81.71024943310658	73	127
81.72185941043084	81.79151927437641	75	127
81.79151927437641	81.861179138322	73	127
81.861179138322	81.93083900226758	71	127
81.93083900226758	82.00049886621315	73	127
82.00049886621315	82.13981859410431	71	127
82.15142857142857	82.27913832199546	75	127
82.29074829931973	82.43006802721088	73	127
82.43006802721088	82.56938775510204	71	127
82.58097505668934	82.72031746031746	70	127
82.73192743764173	82.85963718820862	68	127
82.87124716553288	83.01056689342404	66	127
83.0221768707483	83.14988662131519	64	127
83.16149659863946	83.28920634920635	63	127
83.30081632653061	83.4285260770975	61	127
83.4285260770975	83.5562358276644	63	127
83.56784580498866	83.73036281179138	59	127
83.74199546485261	84.11349206349206	58	127
102.72430839002267	104.5702947845805	59	127
102.72430839002267	103.58344671201814	71	127
103.65310657596372	103.87369614512471	76	127
103.89691609977324	104.10589569160997	75	127
104.11750566893424	104.33809523809524	73	127
104.3497052154195	104.55868480725624	71	127
104.5702947845805	104.76766439909296	73	127
104.5702947845805	106.09120181405896	54	127
104.77927437641723	104.98825396825397	71	127
104.99986394557823	105.20884353741496	70	127
105.22045351473923	105.42943310657597	71	127
105.44104308390023	105.80095238095238	70	127
106.24213151927438	114.75224489795919	47	127
106.24213151927438	107.02	78	127
107.07804988662132	107.25219954648526	83	127
107.26380952380953	107.461179138322	81	127
107.47278911564626	107.68176870748299	80	127
107.70498866213151	107.902358276644	78	127
107.91396825396825	108.11133786848073	80	127
108.12294784580499	108.32031746031745	78	127
108.33192743764172	108.52929705215419	76	127
108.55251700680272	108.73827664399093	78	127
108.7498866213152	109.14462585034013	76	127
109.55097505668934	110.29401360544217	81	127
110.36367346938775	110.54943310657596	87	127
110.56104308390023	110.74680272108843	85	127
110.77002267573697	110.94417233560091	83	127
110.95578231292517	111.15315192743765	81	127
111.17637188208617	111.3853514739229	83	127
111.39696145124717	111.59433106575963	81	127
111.6059410430839	111.81492063492064	80	127
111.8265306122449	112.02390022675738	81	127
112.03551020408163	112.44185941043084	80	127
112.85981859410431	113.54480725623583	85	127
113.6144671201814	113.81183673469388	90	127
113.82344671201814	114.03242630385488	88	127
114.04403628117913	114.20657596371882	87	127
114.21818594104309	114.42716553287981	85	127
114.43877551020408	114.75224489795919	83	127
118.81573696145125	119.22208616780046	73	127
118.81573696145125	119.22208616780046	63	127
119.22208616780046	119.43106575963719	68	127
119.22208616780046	119.43106575963719	71	127
119.67487528344671	120.11605442176871	71	127
119.67487528344671	120.11605442176871	61	127
120.11605442176871	120.32503401360545	66	127
120.11605442176871	120.32503401360545	69	127
120.63850340136054	121.07968253968254	69	127
120.63850340136054	121.07968253968254	59	127
121.07968253968254	121.50925170068027	68	127
121.07968253968254	121.50925170068027	64	127
134.29183673469387	135.0697052154195	76	127
135.1393650793651	135.31351473922902	81	127
135.3251247165533	135.5108843537415	80	127
135.52249433106576	135.71986394557823	78	127
135.7314739229025	135.92884353741496	76	127
135.94045351473923	136.12621315192743	78	127
136.1378231292517	136.33519274376417	76	127
136.34680272108844	136.50934240362812	59	127
136.34680272108844	136.55578231292517	75	127
136.56739229024944	136.74154195011337	76	127
136.75315192743764	136.9273015873016	54	127
136.75315192743764	137.12467120181407	75	127
137.15950113378685	137.3452380952381	51	127
137.6006575963719	137.78643990929706	47	127
137.6006575963719	138.34371882086168	78	127
138.41337868480727	138.61074829931974	83	127
138.62233560090704	138.83133786848072	81	127
138.84294784580499	139.02868480725624	80	127
139.04031746031745	139.2492970521542	78	127
139.26090702947846	139.44666666666666	83	127
139.44666666666666	139.60920634920635	80	127
139.63242630385488	139.77174603174603	52	127
139.63242630385488	139.7949433106576	81	127
139.8065759637188	139.98072562358277	78	127
140.00392290249434	140.17809523809524	47	127
140.00392290249434	140.39868480725625	76	127
140.41027210884354	140.57283446712017	44	127
140.82825396825396	141.00240362811792	40	127
140.82825396825396	141.4435827664399	83	127
141.2578231292517	141.62934240362813	52	127
141.4435827664399	141.65256235827664	82	127
141.6641723356009	141.86154195011338	81	127
141.88476190476192	142.05891156462584	78	127
142.07052154195011	142.2330612244898	75	127
142.07052154195011	142.4071882086168	47	127
142.2562811791383	142.418820861678	71	127
142.43043083900227	143.0457596371882	83	127
142.86	143.2315192743764	52	127
143.0457596371882	143.2315192743764	82	127
143.24312925170068	143.42886621315193	81	127
143.42886621315193	143.60303854875283	78	127
143.6146485260771	143.75396825396825	75	127
143.6146485260771	143.95133786848072	47	127
143.76557823129252	143.962947845805	71	127
143.98614512471656	144.1951247165533	85	127
144.1951247165533	144.39251700680273	83	127
144.41573696145124	144.49698412698413	81	127
144.62471655328798	144.71759637188208	80	127
144.83369614512472	145.0310657596372	80	127
145.0310657596372	145.21680272108844	78	127
145.22843537414965	145.28648526077097	76	127
145.4025850340136	145.50707482993198	75	127
145.62315192743765	145.71605442176872	76	127
145.80893424036282	145.87857142857143	78	127
145.87857142857143	145.9366439909297	76	127
145.9366439909297	145.9714739229025	75	127
145.9714739229025	146.14562358276643	76	127
146.1572335600907	146.2268934240363	78	127
146.35460317460317	146.42426303854876	80	127
146.52875283446713	146.58680272108845	81	127
146.70290249433106	146.79578231292518	83	127
146.93510204081633	147.01637188208616	85	127
147.14408163265307	147.7942403628118	52	127
147.14408163265307	147.32984126984127	85	127
147.32984126984127	147.48077097505669	83	127
147.49238095238096	147.57365079365078	81	127
147.67814058956915	147.73619047619047	80	127
147.86390022675738	148.59532879818593	47	127
147.86390022675738	148.07287981859412	80	127
148.07287981859412	148.27024943310659	78	127
148.28183673469388	148.35151927437641	76	127
148.46761904761905	148.54888888888888	75	127
148.66498866213152	148.87396825396826	78	127
148.66498866213152	149.37319727891156	49	127
148.87396825396826	149.03650793650795	76	127
149.05972789115646	149.11777777777777	75	127
149.22226757369614	149.31514739229024	73	127
149.4196371882086	149.64022675736962	68	127
149.4196371882086	150.1162358276644	44	127
149.64022675736962	149.8027664399093	66	127
149.8143537414966	149.88403628117914	64	127
150.00013605442177	150.0697732426304	63	127
150.16267573696146	150.38326530612244	78	127
150.16267573696146	150.92893424036282	45	127
150.38326530612244	150.5574149659864	76	127
150.56902494331067	150.66190476190476	74	127
150.7780045351474	150.85927437641723	73	127
150.98698412698414	151.1959410430839	73	127
150.98698412698414	151.67197278911564	40	127
151.1959410430839	151.35850340136054	71	127
151.3701133786848	151.4629931972789	69	127
151.57909297052154	151.61392290249432	68	127
151.74163265306123	151.83451247165533	69	127
151.74163265306123	158.10390022675736	45	127
151.95061224489797	151.98544217687075	71	127
151.98544217687075	152.02027210884353	69	127
152.0318820861678	152.06668934240363	68	127
152.07832199546485	152.27569160997732	69	127
152.28730158730158	152.35696145124717	71	127
152.46145124716554	152.54272108843537	73	127
152.67043083900228	152.7517006802721	74	127
152.87941043083902	152.96068027210885	76	127
153.07678004535148	153.16965986394558	78	127
153.27414965986395	154.91115646258504	68	127
154.91115646258504	155.12013605442178	69	127
155.13172335600908	155.18979591836734	71	127
155.2014058956916	155.2710657596372	69	127
155.2710657596372	155.31750566893425	68	127
155.31750566893425	155.50326530612244	69	127
155.52648526077098	155.56131519274376	71	127
155.6774149659864	155.7702947845805	73	127
155.88639455782314	155.94444444444446	74	127
156.06054421768707	156.14181405895692	76	127
156.2578911564626	156.3391836734694	78	127
156.4320634920635	157.9645804988662	68	127
157.9645804988662	158.10390022675736	69	127
158.33609977324264	158.55666666666667	69	127
158.33609977324264	158.55666666666667	57	127
158.7888888888889	159.02108843537414	45	127
158.7888888888889	159.02108843537414	57	127
159.26489795918368	159.48548752834466	57	127
159.26489795918368	159.48548752834466	69	127
159.6944671201814	160.1356462585034	57	127
159.6944671201814	160.1356462585034	45	127
167.7401814058957	167.84467120181407	76	127
167.98399092970521	168.10009070294785	73	127
168.26263038548754	168.35551020408164	71	127
168.4715873015873	169.38879818594106	70	127
168.4715873015873	169.38879818594106	42	127
169.38879818594106	169.72548752834467	47	127
169.38879818594106	169.53972789115647	71	127
169.55133786848072	169.63260770975057	78	127
169.7487074829932	169.82997732426304	74	127
169.94607709750568	169.98090702947846	71	127
170.1085941043084	170.96775510204083	68	127
170.1085941043084	170.96775510204083	40	127
170.96775510204083	171.10707482993197	69	127
170.96775510204083	171.30444444444444	42	127
171.11868480725624	171.32766439909298	81	127
171.33925170068028	171.7572335600907	38	127
171.33925170068028	171.54825396825396	80	127
171.55986394557823	171.78045351473924	78	127
171.7920634920635	172.00102040816327	76	127
171.7920634920635	172.1984126984127	37	127
172.01265306122448	172.21002267573695	81	127
172.22163265306122	172.4190022675737	80	127
172.22163265306122	172.6163492063492	38	127
172.44222222222223	172.6163492063492	78	127
172.6395918367347	172.81374149659865	76	127
172.6395918367347	173.02269841269842	37	127
172.8253514739229	173.03433106575963	78	127
173.06916099773244	173.2781179138322	74	127
173.06916099773244	173.47551020408164	38	127
173.28975056689342	173.48709750566894	71	127
173.49873015873015	175.11251700680273	40	127
173.49873015873015	174.63650793650794	69	127
174.69455782312926	174.903537414966	73	127
174.9151247165533	175.10090702947846	71	127
175.11251700680273	175.4956462585034	69	127
175.11251700680273	175.4956462585034	45	127
176.7843537414966	177.52739229024942	74	127
176.7843537414966	177.52739229024942	83	127
176.9701133786848	177.0397732426304	42	127
177.0397732426304	177.08621315192744	40	127
177.0978231292517	177.15587301587303	39	127
177.16746031746032	177.3532426303855	40	127
177.36485260770976	177.46931972789116	42	127
177.597052154195	178.3517006802721	74	127
177.597052154195	178.3517006802721	64	127
177.597052154195	177.6782993197279	44	127
177.80603174603175	177.89891156462585	45	127
178.0150113378685	178.0846485260771	47	127
178.20077097505668	178.29365079365078	49	127
178.40975056689342	178.78126984126985	64	127
178.40975056689342	178.78126984126985	73	127
178.40975056689342	178.78126984126985	45	127
183.07696145124717	183.70390022675738	76	127
183.07696145124717	183.70390022675738	85	127
183.2975283446712	183.36721088435374	44	127
183.36721088435374	183.43687074829933	42	127
183.43687074829933	183.49492063492065	41	127
183.49492063492065	183.62263038548753	42	127
183.62263038548753	183.64585034013606	44	127
183.77356009070294	183.8780498866213	46	127
183.77356009070294	184.58625850340135	76	127
183.77356009070294	184.58625850340135	66	127
184.00575963718822	184.08702947845805	47	127
184.2263492063492	184.31920634920635	49	127
184.4469387755102	184.5281859410431	50	127
184.6675283446712	185.06226757369615	47	127
184.6675283446712	185.06226757369615	74	127
184.6675283446712	185.06226757369615	66	127
189.35795918367347	190.0661678004535	78	127
189.35795918367347	190.0661678004535	87	127
189.5088888888889	189.57854875283448	46	127
189.59015873015872	189.63657596371883	44	127
189.64820861678004	189.71786848072563	43	127
189.71786848072563	189.9152380952381	44	127
189.92684807256236	190.0081179138322	46	127
190.1358276643991	190.8556462585034	68	127
190.1358276643991	190.2287074829932	48	127
190.1358276643991	190.8556462585034	78	127
190.34480725623584	190.4144671201814	49	127
190.5073469387755	190.5770068027211	51	127
190.704716553288	190.7975963718821	52	127
190.92530612244897	191.30843537414967	76	127
190.92530612244897	191.30843537414967	68	127
190.92530612244897	191.30843537414967	49	127
192.63197278911565	192.7016326530612	75	127
192.7016326530612	192.7712925170068	73	127
192.7712925170068	192.8409523809524	72	127
192.8409523809524	193.00349206349208	73	127
193.00349206349208	193.0847619047619	75	127
193.16603174603173	193.25891156462586	76	127
193.35179138321996	193.4330612244898	75	127
193.5607709750567	193.6536507936508	76	127
193.76975056689344	193.85102040816327	73	127
193.97873015873017	194.1528798185941	72	127
194.3386394557823	194.76820861678004	64	127
194.3386394557823	194.76820861678004	61	127
194.76820861678004	194.97718820861678	63	127
194.76820861678004	194.97718820861678	60	127
195.2209977324263	195.6621768707483	61	127
195.2209977324263	195.6621768707483	64	127
195.6621768707483	195.85954648526078	63	127
195.6621768707483	195.85954648526078	60	127
196.55614512471655	196.74190476190475	80	127
196.97410430839003	197.1366439909297	80	127
197.3920634920635	197.81002267573697	80	127
197.81002267573697	198.00739229024944	85	127
198.2047619047619	198.6459410430839	81	127
198.6459410430839	198.7968707482993	85	127
199.01746031746032	199.44702947845806	80	127
199.66761904761904	199.76049886621314	80	127
199.87659863945578	200.06235827664398	79	127
200.07396825396825	200.28294784580498	80	127
200.29455782312925	200.4687074829932	76	127
200.48031746031745	200.63124716553287	73	127
200.6544671201814	200.82861678004537	72	127
200.8402267573696	201.04920634920634	80	127
201.07242630385488	201.26979591836735	79	127
201.28140589569162	201.4787755102041	80	127
201.49038548752836	201.5716553287982	73	127
201.69936507936507	201.8851247165533	80	127
201.89673469387756	202.1057142857143	79	127
202.11732426303854	202.33791383219955	80	127
202.34952380952382	202.74426303854875	75	127
203.22027210884355	203.40603174603174	80	127
203.66145124716553	203.82399092970522	80	127
204.04458049886622	204.41609977324262	80	127
204.45092970521543	204.82244897959183	85	127
204.85727891156463	205.22879818594103	80	127
205.26362811791384	205.66997732426304	76	127
205.70480725623582	206.25047619047618	74	127
206.29691609977326	206.3433560090703	76	127
206.3433560090703	206.38979591836735	74	127
206.38979591836735	206.47106575963718	73	127
206.47106575963718	206.51750566893423	74	127
206.51750566893423	206.9354648526077	78	127
206.95868480725625	207.3418140589569	81	127
207.36503401360545	207.74816326530612	73	127
207.7829931972789	208.18934240362813	73	127
208.2241723356009	208.42154195011338	76	127
208.44476190476192	208.6421315192744	75	127
208.65374149659863	208.83950113378685	73	127
208.85111111111112	209.0484807256236	75	127
209.06009070294783	209.4548299319728	73	127
211.17310657596371	214.319410430839	61	127
211.17310657596371	214.319410430839	49	127
214.45873015873016	216.4556462585034	44	127
214.45873015873016	216.4556462585034	56	127
216.47886621315192	216.87360544217688	57	127
216.47886621315192	216.87360544217688	69	127
216.8968253968254	217.26834467120182	68	127
216.8968253968254	217.26834467120182	56	127
217.29156462585033	217.6863038548753	66	127
217.29156462585033	217.6863038548753	54	127
217.7095238095238	219.4045804988662	52	127
217.7095238095238	219.4045804988662	64	127
219.4045804988662	220.96031746031747	54	127
219.4045804988662	220.96031746031747	66	127
221.08802721088435	221.9471655328798	56	127
221.08802721088435	221.9471655328798	68	127
221.9471655328798	222.74825396825398	44	127
221.9471655328798	222.74825396825398	54	127
222.81791383219954	223.3287528344671	61	127
222.81791383219954	223.3287528344671	49	127
223.86281179138322	223.97891156462586	75	127
224.22272108843538	224.36204081632653	75	127
224.62907029478458	225.04702947845806	75	127
225.04702947845806	225.221179138322	80	127
225.441768707483	225.90616780045352	76	127
225.90616780045352	226.10353741496598	73	127
226.324126984127	226.7536961451247	72	127
227.25292517006804	227.4154648526077	72	127
227.65927437641724	227.8218140589569	72	127
228.06562358276645	228.25138321995465	73	127
228.2746031746032	228.47197278911565	68	127
228.48358276643992	228.7041723356009	69	127
228.71578231292517	228.90154195011337	68	127
228.91315192743764	229.0873015873016	76	127
229.09891156462584	229.29628117913833	73	127
229.30789115646257	229.50526077097507	75	127
229.5168707482993	229.71424036281178	73	127
229.72585034013605	230.14380952380952	80	127
230.61981859410432	230.77074829931973	80	127
231.01455782312925	231.1887074829932	80	127
231.43251700680273	232.1987755102041	85	127
232.26843537414965	233.04630385487528	61	127
233.11596371882086	234.16086167800452	62	127
234.1724716553288	234.38145124716553	69	127
234.3930612244898	234.59043083900227	66	127
234.60204081632654	234.799410430839	62	127
234.81102040816327	235.22897959183675	61	127
235.26380952380953	235.681768707483	61	127
235.71659863945578	235.92557823129252	64	127
235.9371882086168	236.122947845805	63	127
236.13455782312926	236.343537414966	61	127
236.35514739229026	236.57573696145124	63	127
236.5873469387755	237.07496598639455	61	127
238.68875283446712	242.1833560090703	44	127
238.68875283446712	242.1833560090703	56	127
242.20657596371882	242.52004535147393	68	127
242.20657596371882	242.52004535147393	56	127
242.5548752834467	242.9380045351474	52	127
242.5548752834467	242.9380045351474	64	127
242.97283446712018	243.29791383219955	49	127
242.97283446712018	243.29791383219955	61	127
243.3443537414966	243.72748299319727	56	127
243.3443537414966	243.72748299319727	44	127
243.76231292517008	244.15705215419501	55	127
243.76231292517008	244.15705215419501	43	127
244.20349206349206	244.6330612244898	56	127
244.20349206349206	244.6330612244898	44	127
244.6678911564626	245.05102040816325	56	127
244.6678911564626	245.05102040816325	42	127
245.0974603174603	245.89854875283447	56	127
245.0974603174603	245.89854875283447	40	127
246.89700680272108	247.81419501133786	42	127
246.89700680272108	248.56884353741498	62	127
246.89700680272108	248.56884353741498	57	127
247.81419501133786	248.63850340136054	41	127
248.70816326530613	249.19578231292516	62	127
248.70816326530613	249.19578231292516	56	127
248.70816326530613	249.19578231292516	40	127
250.49609977324263	251.33201814058958	74	127
250.49609977324263	251.33201814058958	62	127
251.39006802721087	252.21437641723355	71	127
251.39006802721087	252.21437641723355	59	127
252.2608163265306	252.6439455782313	56	127
252.2608163265306	252.6439455782313	68	127
256.9860544217687	257.18344671201817	61	127
256.9860544217687	257.18344671201817	49	127
257.19503401360544	257.38081632653063	48	127
257.19503401360544	257.38081632653063	60	127
257.3924036281179	257.52013605442176	61	127
257.3924036281179	257.52013605442176	49	127
257.531746031746	257.74072562358276	50	127
257.531746031746	257.74072562358276	62	127
257.75233560090703	257.96131519274377	49	127
257.75233560090703	257.96131519274377	61	127
257.9845351473923	258.15868480725624	47	127
257.9845351473923	258.15868480725624	59	127
258.1702947845805	258.3560544217687	45	127
258.1702947845805	258.3560544217687	57	127
258.367664399093	258.55342403628117	56	127
258.367664399093	258.55342403628117	44	127
258.56503401360544	258.97138321995465	42	127
258.56503401360544	258.97138321995465	57	127
259.64473922902494	259.72603174603177	61	127
259.8537188208617	259.92340136054423	61	127
260.05108843537414	260.14399092970524	61	127
260.2717006802721	260.352970521542	61	127
260.2717006802721	260.60839002267574	42	127
260.4806802721088	260.62	69	127
260.6316099773243	260.82897959183674	68	127
260.840589569161	261.01473922902494	66	127
261.0263492063492	261.1192290249433	65	127
261.0263492063492	261.4094784580499	37	127
261.23532879818595	261.42108843537414	71	127
261.4326984126984	261.6300680272109	68	127
261.6300680272109	261.8390476190476	65	127
261.8506575963719	262.2570068027211	42	127
261.8506575963719	262.28022675736963	66	127
262.28022675736963	262.64013605442176	61	127
262.87233560090704	262.95360544217687	61	127
263.09292517006804	263.18580498866214	61	127
263.3019047619048	263.3831746031746	61	127
263.5108843537415	263.59215419501135	61	127
263.5108843537415	263.8824036281179	42	127
263.71986394557825	263.90562358276645	69	127
263.9172335600907	264.1029931972789	68	127
264.1146031746032	264.2307029478458	66	127
264.2422902494331	264.3235827664399	65	127
264.2422902494331	264.63705215419503	37	127
264.4745124716553	264.6486621315193	71	127
264.6718820861678	264.85761904761904	68	127
264.85761904761904	265.03179138321997	65	127
265.0550113378685	265.4265306122449	66	127
265.0550113378685	265.4265306122449	42	127
266.9706575963719	267.0519274376417	59	127
266.9706575963719	267.0519274376417	47	127
267.1912471655329	267.27251700680273	47	127
267.1912471655329	267.27251700680273	59	127
267.38861678004537	267.4698866213152	47	127
267.38861678004537	267.4698866213152	59	127
267.5627664399093	269.6873922902494	59	127
267.5627664399093	269.6873922902494	47	127
270.0473015873016	270.1401814058957	49	127
270.0473015873016	270.1401814058957	61	127
270.2678911564626	270.3607709750567	49	127
270.2678911564626	270.3607709750567	61	127
270.4884580498866	270.5813378684807	49	127
270.4884580498866	270.5813378684807	61	127
270.72068027210884	271.3360090702948	61	127
270.72068027210884	271.3360090702948	49	127
271.38244897959186	271.47532879818596	63	127
271.38244897959186	271.47532879818596	51	127
271.47532879818596	271.5565986394558	52	127
271.47532879818596	271.5565986394558	64	127
271.5565986394558	271.9513378684807	66	127
271.5565986394558	271.9513378684807	54	127
273.14714285714285	273.5419047619048	47	127
273.57673469387754	273.92503401360545	59	127
273.95984126984126	274.3081632653061	42	127
274.34299319727893	274.7145124716553	66	127
274.73773242630386	275.10925170068026	47	127
275.1324716553288	275.538820861678	59	127
275.5504308390023	275.98	42	127
276.00319727891156	276.31666666666666	66	127
276.3515192743764	276.69981859410433	47	127
276.52566893424034	276.5837188208617	73	127
276.59532879818596	276.6649886621315	71	127
276.6649886621315	276.7346485260771	69	127
276.7346485260771	276.93201814058955	71	127
276.9552380952381	277.0481179138322	73	127
277.1758276643991	277.2687074829932	75	127
277.349977324263	277.40802721088437	76	127
277.5357142857143	277.6286167800454	78	127
277.744693877551	277.8375963718821	80	127
277.95367346938775	278.04655328798185	81	127
278.05818594104306	278.19750566893424	80	127
278.19750566893424	278.32521541950115	78	127
278.3368253968254	278.4645124716553	76	127
278.47614512471654	278.60385487528345	75	127
278.60385487528345	278.7547845804989	73	127
278.76637188208616	278.89410430839	71	127
278.9057142857143	279.04503401360546	73	127
279.05664399092973	279.19596371882085	71	127
279.2075736961451	279.23079365079366	71	127
279.23079365079366	279.32367346938776	69	127
279.335283446712	279.45138321995466	68	127
279.46299319727893	279.6255328798186	69	127
279.6255328798186	279.76485260770977	68	127
279.77646258503404	279.9041723356009	64	127
279.91578231292516	280.04349206349207	68	127
280.04349206349207	280.171201814059	71	127
280.18281179138324	280.3105215419501	76	127
280.32213151927436	280.4498412698413	80	127
280.4498412698413	280.5775510204082	83	127
280.58916099773245	280.7168707482993	81	127
280.72848072562357	280.8561904761905	80	127
280.86780045351475	281.0071201814059	78	127
281.0071201814059	281.1580498866213	80	127
281.1696598639456	281.30897959183676	76	127
281.32056689342403	281.4831292517007	81	127
281.4831292517007	281.63403628117914	80	127
281.64566893424035	281.77337868480726	78	127
281.7849886621315	281.93589569160997	76	127
281.93589569160997	282.0752380952381	75	127
282.08684807256236	282.21455782312927	73	127
282.22616780045354	282.3538775510204	71	127
282.36548752834466	282.49319727891157	73	127
282.50480725623584	282.64410430839	71	127
282.6557142857143	282.67895691609976	71	127
282.67895691609976	282.78344671201813	69	127
282.7950566893424	282.9227664399093	68	127
282.9227664399093	283.0620634920635	69	127
283.0736961451247	283.17818594104307	68	127
283.17818594104307	283.2942857142857	64	127
283.2942857142857	283.4336054421769	68	127
283.44521541950115	283.5613151927438	71	127
283.57290249433106	283.72385487528345	76	127
283.72385487528345	283.8631746031746	80	127
283.8747619047619	284.00249433106575	83	127
284.01410430839	284.1418140589569	81	127
284.1534240362812	284.2927437641723	80	127
284.3043537414966	284.4320634920635	78	127
284.44367346938776	284.57138321995467	80	127
284.58299319727894	284.72231292517006	76	127
284.72231292517006	284.86163265306124	57	127
284.8732426303855	285.0009297052154	61	127
285.0125623582766	285.1518820861678	64	127
285.1518820861678	285.32603174603173	69	127
285.337641723356	285.4653514739229	73	127
285.4769614512472	285.61625850340135	74	127
285.62789115646257	285.76721088435374	76	127
285.778820861678	285.8833106575964	73	127
285.89492063492065	286.02260770975056	69	127
286.0342403628118	286.1851700680272	64	127
286.1851700680272	286.3244671201814	61	127
286.33607709750567	286.4638095238095	57	127
286.4754195011338	286.61473922902496	59	127
286.61473922902496	286.7540589569161	63	127
286.76566893424035	286.89337868480726	66	127
286.9165986394558	287.0559183673469	71	127
287.0559183673469	287.1836281179138	75	127
287.1952380952381	287.322947845805	76	127
287.3345578231293	287.4506349206349	78	127
287.4622675736961	287.57836734693876	75	127
287.58997732426303	287.71768707482994	71	127
287.7292970521542	287.8337868480726	66	127
287.84539682539685	287.98471655328797	63	127
287.98471655328797	288.12403628117914	56	127
288.1356462585034	288.1936961451247	64	127
288.2749433106576	288.42589569161	76	127
288.42589569161	288.56521541950116	75	127
288.5768027210884	288.7045351473923	74	127
288.71614512471655	288.89027210884353	73	127
288.90190476190475	289.07605442176873	72	127
289.087641723356	289.19213151927437	71	127
289.2037641723356	289.3314739229025	66	127
289.34308390022676	289.4939909297052	68	127
289.4939909297052	289.6101133786848	69	127
289.62172335600906	289.7378231292517	71	127
289.74943310657596	289.87714285714287	69	127
289.87714285714287	289.93519274376416	68	127
290.02807256235826	290.15578231292517	76	127
290.16739229024944	290.3067120181406	75	127
290.3067120181406	290.457641723356	74	127
290.4692517006803	290.5969614512472	73	127
290.60857142857145	290.7362811791383	72	127
290.7478911564626	290.8756009070295	71	127
290.88721088435375	291.01492063492066	66	127
291.0265306122449	291.1890702947846	68	127
291.20068027210885	291.32839002267576	69	127
291.32839002267576	291.47931972789115	71	127
291.4909297052154	291.5954195011338	69	127
291.60702947845806	291.73473922902497	68	127
291.73473922902497	291.8508163265306	71	127
291.8624489795918	291.9901587301587	76	127
292.001768707483	292.1410884353742	80	127
292.15267573696144	292.30362811791383	76	127
292.3152380952381	292.46614512471655	83	127
292.47777777777776	292.60548752834467	69	127
292.61709750566894	292.7564172335601	73	127
292.7564172335601	292.89573696145123	76	127
292.9073469387755	293.0350566893424	81	127
293.0466666666667	293.19759637188207	76	127
293.19759637188207	293.33691609977325	85	127
293.3485260770975	293.4530158730159	82	127
293.4530158730159	293.766485260771	83	127
293.766485260771	293.87097505668936	85	127
293.87097505668936	293.97546485260773	83	127
293.987074829932	294.0799546485261	81	127
294.09156462585037	294.18444444444447	80	127
294.18444444444447	294.28893424036283	78	127
294.28893424036283	294.3934240362812	76	127
294.4050113378685	294.46308390022676	80	127
294.47469387755103	294.5327437641723	78	127
294.5443537414966	294.6139909297052	80	127
294.6139909297052	294.68367346938777	78	127
294.68367346938777	294.75333333333333	80	127
294.75333333333333	294.8113605442177	78	127
294.8113605442177	294.88104308390024	80	127
294.8926530612245	294.93909297052153	78	127
294.9507029478458	295.0203401360544	80	127
295.0203401360544	295.090022675737	78	127
295.090022675737	295.15968253968254	76	127
295.15968253968254	295.22931972789115	78	127
295.22931972789115	295.3686621315193	76	127
295.38027210884354	295.5195918367347	80	127
295.531179138322	295.65891156462584	78	127
295.6705215419501	295.8098412698413	76	127
295.82145124716556	295.9491609977324	75	127
295.9607709750567	296.0884807256236	73	127
296.10009070294785	296.23941043083903	71	127
296.23941043083903	296.37873015873015	69	127
296.3903401360544	296.5180498866213	68	127
296.5296598639456	296.6573469387755	66	127
296.6573469387755	296.7618367346939	68	127
296.7734693877551	296.901179138322	64	127
296.91278911564626	297.41201814058957	63	127
315.77897959183673	317.49727891156465	52	127
317.49727891156465	318.27514739229025	78	127
317.49727891156465	319.0529931972789	47	127
318.32158730158733	318.5073469387755	83	127
318.5189569160998	318.72793650793653	81	127
318.751156462585	318.94850340136054	80	127
318.96013605442175	319.19233560090703	78	127
319.21555555555557	320.8409523809524	40	127
319.21555555555557	319.41292517006804	80	127
319.4245351473923	319.58707482993196	78	127
319.59868480725623	319.78444444444443	76	127
319.7960544217687	319.99342403628117	78	127
320.00503401360544	320.3997732426304	76	127
320.8409523809524	321.618820861678	82	127
320.8409523809524	322.3734693877551	39	127
321.6884807256236	321.86263038548753	87	127
321.8742403628118	322.0716099773243	85	127
322.08321995464854	322.280589569161	83	127
322.2921995464853	322.501179138322	82	127
322.5127891156463	322.6985487528345	83	127
322.5127891156463	324.1381859410431	44	127
322.71015873015875	322.89591836734695	82	127
322.9075283446712	323.1048979591837	80	127
323.11650793650796	323.3254875283447	82	127
323.33707482993196	323.72022675736963	80	127
324.1381859410431	325.6707029478458	42	127
324.1381859410431	324.90444444444444	85	127
324.9624943310658	325.1714739229025	90	127
325.1830612244898	325.38043083900226	88	127
325.39206349206347	325.589410430839	87	127
325.6010430839002	325.78680272108846	85	127
325.79839002267573	326.1467120181406	83	127
325.79839002267573	326.1467120181406	47	127
330.10571428571427	330.50043083900226	73	127
330.10571428571427	330.50043083900226	63	127
330.50043083900226	330.69780045351473	71	127
330.50043083900226	330.69780045351473	68	127
330.9416326530612	331.37120181405896	71	127
330.9416326530612	331.37120181405896	61	127
331.37120181405896	331.5801814058957	69	127
331.37120181405896	331.5801814058957	66	127
331.8936507936508	332.3116099773243	59	127
331.8936507936508	332.3116099773243	69	127
332.3116099773243	332.69473922902495	68	127
332.3116099773243	332.69473922902495	64	127
345.16385487528345	345.94172335600905	76	127
345.9649433106576	346.1507029478458	81	127
346.16231292517006	346.3712925170068	80	127
346.38290249433106	346.557052154195	78	127
346.56866213151926	346.777641723356	76	127
346.78925170068027	346.98662131519274	78	127
346.998231292517	347.1839909297052	76	127
347.20721088435374	347.38136054421767	75	127
347.20721088435374	347.3581405895692	59	127
347.39297052154194	347.5670975056689	76	127
347.5903401360544	347.7528798185941	54	127
347.5903401360544	347.9502494331066	75	127
347.97344671201813	348.14761904761906	51	127
348.3914058956916	348.56557823129253	47	127
348.3914058956916	349.14607709750567	78	127
349.20410430839	349.3666666666667	83	127
349.3898866213152	349.5872562358277	81	127
349.59886621315195	349.7962358276644	80	127
349.8078458049887	349.9819954648526	78	127
349.9936054421769	350.19097505668935	83	127
350.2025850340136	350.353514739229	80	127
350.3651247165533	350.4928344671202	52	127
350.3651247165533	350.51605442176873	81	127
350.527664399093	350.72503401360547	78	127
350.73662131519274	350.91079365079366	47	127
350.73662131519274	351.1197732426304	76	127
351.1545804988662	351.29392290249433	44	127
351.50290249433107	351.6654195011338	40	127
351.50290249433107	352.1298412698413	83	127
351.92086167800454	352.3156009070295	52	127
352.1298412698413	352.32721088435375	82	127
352.338820861678	352.5245804988662	81	127
352.5361904761905	352.73356009070295	78	127
352.7451700680272	352.91931972789115	75	127
352.7451700680272	353.1166893424036	47	127
352.9309297052154	353.1282993197279	71	127
353.1282993197279	353.76684807256237	83	127
353.54625850340136	353.8945578231293	52	127
353.76684807256237	353.91777777777776	82	127
353.929387755102	354.1151247165533	81	127
354.13836734693876	354.33573696145123	78	127
354.3473469387755	354.46344671201814	75	127
354.3473469387755	354.6608163265306	47	127
354.4866666666667	354.6724263038549	71	127
354.68403628117915	354.8930158730159	85	127
354.8930158730159	355.09038548752835	83	127
355.1019954648526	355.1948752834467	81	127
355.2993650793651	355.36902494331065	80	127
355.49673469387756	355.7057142857143	80	127
355.7057142857143	355.8334240362812	78	127
355.84503401360547	355.91469387755103	76	127
356.0191836734694	356.10045351473923	75	127
356.2049433106576	356.26297052154194	76	127
356.3907029478458	356.44875283446714	78	127
356.44875283446714	356.49519274376416	76	127
356.49519274376416	356.5648299319728	75	127
356.576462585034	356.72739229024944	76	127
356.7390022675737	356.8318820861678	78	127
356.94798185941045	357.0292517006803	80	127
357.1569614512472	357.22662131519274	81	127
357.3311111111111	357.4239909297052	83	127
357.5517006802721	357.6445804988662	85	127
357.79548752834467	358.515306122449	52	127
357.79548752834467	358.0160997732426	85	127
358.0160997732426	358.16702947845806	83	127
358.17863945578233	358.25990929705216	81	127
358.38761904761907	358.4688888888889	80	127
358.58498866213154	358.782358276644	80	127
358.58498866213154	359.23514739229023	47	127
358.782358276644	358.94489795918366	78	127
358.95650793650793	359.03777777777776	76	127
359.0958276643991	359.17709750566894	75	127
359.2931972789116	359.6298639455782	52	127
359.2931972789116	359.4673469387755	68	127
359.6531065759637	360.0942857142857	59	127
360.0942857142857	360.30326530612246	64	127
360.5006349206349	360.89537414965986	59	127
360.89537414965986	361.0927437641723	64	127
361.2668707482993	361.6384126984127	59	127
361.6384126984127	361.84739229024945	64	127
362.0563718820862	362.25374149659865	59	127
362.4859410430839	362.6833106575964	64	127
362.8574603174603	363.25219954648526	47	127
362.8574603174603	363.25219954648526	69	127
363.25219954648526	363.4263492063492	68	127
363.25219954648526	363.4263492063492	52	127
363.6353287981859	364.04167800453513	47	127
363.6353287981859	364.04167800453513	69	127
364.04167800453513	364.2158276643991	68	127
364.04167800453513	364.2158276643991	52	127
364.4363945578231	364.8195464852608	47	127
364.4363945578231	364.8195464852608	69	127
364.8195464852608	365.005306122449	68	127
364.8195464852608	365.005306122449	52	127
365.24911564625853	365.4000453514739	75	127
365.24911564625853	365.4000453514739	47	127
365.60902494331066	365.9921541950113	76	127
365.60902494331066	365.9921541950113	40	127
372.110589569161	372.2034693877551	76	127
372.2034693877551	372.30795918367346	80	127
372.3195918367347	372.41244897959183	78	127
372.42408163265304	372.5285714285714	76	127
372.5285714285714	372.6330612244898	75	127
372.6330612244898	372.72591836734694	78	127
372.73755102040815	372.83043083900225	76	127
372.8420408163265	372.9465306122449	75	127
372.9465306122449	373.05102040816325	76	127
373.05102040816325	373.1555102040816	80	127
373.1555102040816	373.26	78	127
373.27160997732426	373.37609977324263	76	127
373.37609977324263	373.480589569161	75	127
373.480589569161	373.58507936507937	78	127
373.58507936507937	373.68956916099773	76	127
373.701179138322	373.7940589569161	75	127
373.8056689342404	373.8985487528345	76	127
373.8985487528345	373.99142857142857	80	127
373.99142857142857	374.09591836734694	78	127
374.1075283446712	374.2004081632653	76	127
374.2120181405896	374.2932879818594	75	127
374.2932879818594	374.3861678004535	78	127
374.3861678004535	374.4906575963719	76	127
374.4906575963719	374.59514739229024	75	127
374.6067573696145	374.6531972789116	76	127
374.78090702947844	374.8621541950113	76	127
374.9898866213152	375.07113378684807	78	127
375.18725623582765	375.2801133786848	78	127
375.40784580498865	375.50072562358275	80	127
375.40784580498865	375.50072562358275	64	127
375.512335600907	375.6168253968254	83	127
375.512335600907	375.6168253968254	68	127
375.6168253968254	375.72131519274376	66	127
375.6168253968254	375.72131519274376	81	127
375.72131519274376	375.8258049886621	64	127
375.72131519274376	375.8258049886621	80	127
375.8258049886621	375.9302947845805	63	127
375.8258049886621	375.9302947845805	78	127
375.94190476190477	376.03478458049887	81	127
375.94190476190477	376.03478458049887	66	127
376.04639455782313	376.1508843537415	64	127
376.04639455782313	376.1508843537415	80	127
376.1508843537415	376.2553741496599	78	127
376.1508843537415	376.2553741496599	63	127
376.2553741496599	376.34825396825397	64	127
376.2553741496599	376.34825396825397	80	127
376.35986394557824	376.44113378684807	68	127
376.35986394557824	376.44113378684807	83	127
376.45274376417234	376.5572335600907	81	127
376.45274376417234	376.5572335600907	66	127
376.5572335600907	376.6617233560091	80	127
376.5572335600907	376.6617233560091	64	127
376.6617233560091	376.76621315192745	63	127
376.6617233560091	376.76621315192745	78	127
376.76621315192745	376.8474829931973	81	127
376.76621315192745	376.8474829931973	66	127
376.85909297052154	376.9635827664399	64	127
376.85909297052154	376.9635827664399	80	127
376.9635827664399	377.0680725623583	78	127
376.9635827664399	377.0680725623583	63	127
377.0680725623583	377.1609523809524	64	127
377.0680725623583	377.1609523809524	80	127
377.1609523809524	377.26544217687075	83	127
377.1609523809524	377.26544217687075	68	127
377.277052154195	377.3699319727891	81	127
377.277052154195	377.3699319727891	66	127
377.3815419501134	377.48603174603176	80	127
377.3815419501134	377.48603174603176	64	127
377.48603174603176	377.5905215419501	78	127
377.48603174603176	377.5905215419501	63	127
377.5905215419501	377.6950113378685	66	127
377.5905215419501	377.6950113378685	81	127
377.70662131519276	377.79950113378686	80	127
377.70662131519276	377.79950113378686	64	127
377.81111111111113	377.89238095238096	78	127
377.81111111111113	377.89238095238096	63	127
377.89238095238096	377.9736507936508	80	127
377.89238095238096	377.9736507936508	64	127
378.08975056689343	378.1826303854875	80	127
378.08975056689343	378.1826303854875	64	127
378.31034013605444	378.40321995464853	81	127
378.31034013605444	378.40321995464853	66	127
378.5077097505669	378.600589569161	81	127
378.5077097505669	378.600589569161	66	127
378.7282993197279	379.1114285714286	83	127
378.7282993197279	379.1114285714286	68	127
379.7731746031746	379.9589569160998	76	127
379.7731746031746	379.9589569160998	64	127
379.9589569160998	380.0053968253968	88	127
379.9589569160998	380.12149659863945	73	127
380.1331065759637	380.24920634920636	87	127
380.1331065759637	380.24920634920636	71	127
380.365306122449	380.58589569161	87	127
380.365306122449	380.58589569161	71	127
380.58589569161	380.7948752834467	85	127
380.58589569161	380.7948752834467	69	127
380.80648526077096	380.9109750566893	69	127
380.80648526077096	380.9109750566893	85	127
381.03868480725623	381.13156462585033	83	127
381.03868480725623	381.13156462585033	68	127
381.24766439909297	381.468253968254	83	127
381.24766439909297	381.468253968254	68	127
381.468253968254	381.6540136054422	81	127
381.468253968254	381.6540136054422	66	127
381.66562358276644	381.75850340136054	81	127
381.66562358276644	381.75850340136054	66	127
381.8746031746032	381.94426303854874	64	127
381.8746031746032	381.94426303854874	80	127
382.07197278911565	382.2112925170068	78	127
382.07197278911565	382.2112925170068	63	127
382.2345124716553	382.29256235827665	80	127
382.2345124716553	382.29256235827665	64	127
382.3041723356009	382.3738321995465	78	127
382.3041723356009	382.3738321995465	63	127
382.3738321995465	382.44349206349204	61	127
382.3738321995465	382.44349206349204	76	127
382.44349206349204	382.6408616780045	63	127
382.44349206349204	382.6408616780045	78	127
382.6524716553288	382.7337414965986	80	127
382.6524716553288	382.7337414965986	65	127
382.838231292517	382.93111111111114	81	127
382.838231292517	382.93111111111114	66	127
383.0356009070295	383.2445804988662	81	127
383.0356009070295	383.2445804988662	66	127
383.25619047619045	383.4535600907029	83	127
383.25619047619045	383.4535600907029	68	127
383.4651700680272	383.67414965986393	69	127
383.4651700680272	383.67414965986393	85	127
383.6857596371882	383.88312925170067	85	127
383.6857596371882	383.88312925170067	69	127
383.88312925170067	384.1037188208617	83	127
383.88312925170067	384.1037188208617	68	127
384.11532879818594	384.20820861678004	81	127
384.11532879818594	384.20820861678004	66	127
384.33591836734695	384.42879818594105	80	127
384.33591836734695	384.42879818594105	64	127
384.55650793650796	384.7654875283447	80	127
384.55650793650796	384.7654875283447	59	127
384.7654875283447	384.96285714285716	57	127
384.7654875283447	384.96285714285716	78	127
384.98607709750564	385.06734693877553	76	127
384.98607709750564	385.06734693877553	56	127
385.1950566893424	385.28793650793654	75	127
385.1950566893424	385.28793650793654	54	127
385.39242630385485	385.7987755102041	76	127
385.39242630385485	385.7987755102041	52	127
386.9946031746032	387.33129251700683	47	127
386.9946031746032	387.7144217687075	78	127
387.78408163265306	387.958231292517	83	127
387.96984126984125	388.15560090702945	81	127
388.1672108843537	388.352970521542	80	127
388.3645804988662	388.56195011337866	78	127
388.5735600907029	388.9450793650794	52	127
388.5735600907029	388.78253968253966	83	127
388.79414965986393	388.9682993197279	80	127
388.97990929705213	389.1772789115646	81	127
389.18888888888887	389.32820861678005	78	127
389.3514285714286	389.7113378684807	76	127
390.17573696145126	390.8955555555556	78	127
390.17573696145126	390.5356462585034	47	127
390.95360544217687	391.1625850340136	83	127
391.1741950113379	391.37156462585034	81	127
391.3831746031746	391.5689342403628	80	127
391.59215419501135	391.77791383219954	78	127
391.7895238095238	391.8591836734694	83	127
391.87079365079364	392.0449433106576	82	127
392.05655328798184	392.2539229024943	81	127
392.2655328798186	392.53256235827666	80	127
392.53256235827666	392.6718820861678	77	127
392.68349206349205	392.86925170068025	78	127
392.8808616780045	393.078231292517	80	127
393.08984126984126	393.31043083900227	81	127
393.32204081632653	394.32049886621314	76	127
394.3321088435374	394.3901587301587	78	127
394.3901587301587	394.4365986394558	76	127
394.4365986394558	394.49464852607707	75	127
394.49464852607707	394.5526984126984	76	127
394.5526984126984	394.7848979591837	80	127
394.79650793650796	394.99387755102043	78	127
395.00548752834464	395.7833560090703	76	127
395.44666666666666	395.8181859410431	52	127
395.8414058956916	396.0155555555556	81	127
395.8414058956916	396.2013151927438	59	127
396.0271655328798	396.2245351473923	80	127
396.23614512471653	396.6308843537415	56	127
396.23614512471653	396.433514739229	78	127
396.45673469387754	396.65410430839	76	127
396.6657142857143	396.85147392290247	78	127
396.6657142857143	397.0372335600907	57	127
396.86308390022674	397.0604535147392	76	127
397.0720634920635	397.26943310657595	75	127
397.0720634920635	397.44358276643993	54	127
397.2810430839002	397.4668027210884	76	127
397.4784126984127	397.84993197278914	75	127
397.4784126984127	397.84993197278914	51	127
397.8731519274376	398.2330612244898	47	127
398.2795011337868	398.86	76	127
398.72068027210884	399.06897959183675	52	127
398.89482993197277	398.9877097505669	78	127
398.9877097505669	399.06897959183675	80	127
399.080589569161	399.2779591836735	81	127
399.080589569161	399.47532879818596	59	127
399.28956916099776	399.4869387755102	80	127
399.4985487528345	399.69591836734696	78	127
399.4985487528345	399.89328798185943	56	127
399.7075283446712	399.89328798185943	76	127
399.9048979591837	400.10226757369617	78	127
399.9048979591837	400.2764172335601	57	127
400.1138775510204	400.28802721088437	76	127
400.29963718820864	400.4970068027211	75	127
400.29963718820864	400.67115646258503	54	127
400.5086167800454	400.69437641723357	76	127
400.70598639455784	401.07750566893424	75	127
400.70598639455784	401.07750566893424	51	127
401.11233560090704	401.4954648526077	47	127
401.5302947845805	401.9018140589569	76	127
401.5302947845805	401.9018140589569	52	127
402.3778231292517	402.70290249433106	73	127
402.3778231292517	402.70290249433106	45	127
403.1905215419501	403.34145124716554	47	127
403.37628117913835	403.56204081632654	68	127
403.5852607709751	403.80585034013603	71	127
403.5852607709751	403.78263038548755	47	127
403.8174603174603	403.9916099773243	68	127
404.0032199546485	404.200589569161	71	127
404.0032199546485	404.1657596371882	47	127
404.21219954648524	404.4095691609977	68	127
404.421179138322	404.59532879818596	47	127
404.421179138322	404.6301587301587	71	127
404.641768707483	404.83913832199545	63	127
404.8507482993197	405.2338775510204	64	127
404.8507482993197	405.2338775510204	44	127
405.66344671201813	406.01174603174604	66	127
405.66344671201813	406.01174603174604	61	127
406.66190476190474	406.8360544217687	64	127
406.66190476190474	406.8360544217687	56	127
406.847664399093	407.04503401360546	64	127
406.847664399093	407.04503401360546	56	127
407.04503401360546	407.2540136054422	64	127
407.04503401360546	407.2540136054422	56	127
407.26562358276647	407.46299319727893	64	127
407.26562358276647	407.46299319727893	56	127
407.47460317460315	407.6835827664399	64	127
407.47460317460315	407.6835827664399	56	127
407.6835827664399	407.85773242630387	64	127
407.6835827664399	407.85773242630387	56	127
407.86934240362814	408.0202721088435	64	127
407.86934240362814	408.0202721088435	56	127
408.22925170068027	408.41501133786846	57	127
408.22925170068027	408.41501133786846	63	127
408.42662131519273	408.63560090702947	57	127
408.42662131519273	408.63560090702947	63	127
408.64721088435374	408.8445804988662	63	127
408.64721088435374	408.8445804988662	57	127
408.8910204081633	409.08839002267575	57	127
408.8910204081633	409.08839002267575	63	127
409.1	409.30897959183676	63	127
409.1	409.30897959183676	57	127
409.320589569161	409.5295691609977	63	127
409.320589569161	409.5295691609977	57	127
409.541179138322	409.7269387755102	63	127
409.541179138322	409.7269387755102	57	127
409.7501587301587	410.1565079365079	64	127
409.7501587301587	410.1565079365079	56	127
411.4336054421769	412.1418140589569	47	127
411.4336054421769	413.03578231292516	69	127
412.1418140589569	412.9661224489796	48	127
413.03578231292516	413.34925170068027	49	127
413.03578231292516	413.1983219954649	68	127
413.1983219954649	413.23315192743763	66	127
413.23315192743763	413.3028117913832	64	127
413.3028117913832	413.3724716553288	63	127
413.3840816326531	413.58145124716555	64	127
413.5930612244898	413.6859410430839	66	127
413.80204081632655	413.9065306122449	68	127
414.0342403628118	414.12712018140587	69	127
414.2432199546485	414.3360997732426	71	127
414.4638095238095	414.5566893424036	73	127
414.71922902494333	415.0907482993197	59	127
414.9165986394558	414.9746485260771	56	127
414.98625850340136	415.0559183673469	54	127
415.0559183673469	415.12557823129254	52	127
415.12557823129254	415.2881179138322	54	127
415.31133786848073	415.40421768707483	56	127
415.53192743764174	415.62480725623584	57	127
415.7409070294785	415.8221768707483	58	127
415.9498866213152	416.0427664399093	59	127
416.17047619047617	416.2633560090703	47	127
416.40267573696144	416.7277551020408	52	127
417.34308390022676	417.76104308390023	59	127
417.34308390022676	417.76104308390023	75	127
417.34308390022676	417.76104308390023	66	127
417.34308390022676	417.76104308390023	47	127
418.21383219954646	418.8059410430839	76	127
418.21383219954646	418.8059410430839	68	127
418.21383219954646	418.8059410430839	59	127
418.21383219954646	418.8059410430839	40	127
