# onset,offset,note,velocity
0.034058956916099774	0.47523809523809524	70	127
0.986077097505669	1.2414965986394557	70	127
1.6362358276643991	1.8800453514739228	70	127
2.3328344671201813	4.678049886621316	55	127
2.3328344671201813	2.4024943310657596	70	127
2.3328344671201813	4.678049886621316	51	127
2.3328344671201813	4.678049886621316	58	127
2.4024943310657596	3.888571428571429	79	127
3.9001814058956916	4.039501133786848	80	127
4.039501133786848	4.213650793650793	79	127
4.213650793650793	4.538730158730159	77	127
4.55031746031746	4.910249433106576	75	127
4.921859410430839	6.082857142857143	62	127
4.921859410430839	5.072766439909297	74	127
4.921859410430839	6.082857142857143	56	127
4.921859410430839	6.082857142857143	53	127
5.258548752834467	5.328208616780046	75	127
5.328208616780046	5.397868480725624	74	127
5.397868480725624	5.479138321995465	72	127
5.479138321995465	5.606848072562358	74	127
5.606848072562358	5.8854875283446715	75	127
5.897074829931973	6.3382766439909295	77	127
6.349886621315193	11.330566893424036	63	127
6.349886621315193	7.313514739229025	70	127
6.349886621315193	8.776349206349206	58	127
6.349886621315193	8.776349206349206	55	127
7.37156462585034	7.510884353741496	74	127
7.510884353741496	7.708253968253969	72	127
7.708253968253969	8.311972789115647	70	127
8.346802721088435	8.927301587301587	75	127
8.962131519274376	9.391700680272109	74	127
8.962131519274376	10.12312925170068	56	127
9.403310657596371	9.670340136054422	72	127
9.705170068027211	9.937369614512471	70	127
9.948956916099773	10.192789115646258	68	127
10.204399092970522	14.163401360544217	58	127
10.204399092970522	12.085215419501134	67	127
11.330566893424036	14.256281179138321	62	127
12.085215419501134	12.22453514739229	65	127
12.22453514739229	12.34063492063492	68	127
12.34063492063492	12.49156462585034	67	127
12.49156462585034	12.630884353741497	70	127
12.630884353741497	12.805034013605443	68	127
12.805034013605443	12.967573696145125	72	127
12.967573696145125	13.118503401360543	70	127
13.118503401360543	13.431972789115646	74	127
13.44358276643991	13.652562358276644	72	127
13.838321995464852	13.977641723356008	70	127
14.151791383219955	14.29111111111111	68	127
14.546530612244897	16.96140589569161	51	127
14.546530612244897	15.103809523809524	65	127
14.546530612244897	16.20673469387755	62	127
14.546530612244897	16.20673469387755	56	127
14.546530612244897	16.96140589569161	58	127
15.138639455782313	16.171927437641724	66	127
16.20673469387755	16.96140589569161	55	127
16.20673469387755	16.96140589569161	63	127
16.20673469387755	16.96140589569161	67	127
16.9962358276644	17.530294784580498	58	127
17.56512471655329	18.435873015873018	63	127
18.505532879818595	19.445918367346938	67	127
19.48077097505669	20.038049886621316	58	127
19.48077097505669	20.038049886621316	46	127
19.48077097505669	20.409569160997734	67	127
19.48077097505669	20.409569160997734	63	127
20.08448979591837	20.804308390022676	44	127
20.08448979591837	20.804308390022676	56	127
20.502448979591836	20.688208616780045	68	127
20.502448979591836	20.8275283446712	62	127
20.688208616780045	20.85074829931973	65	127
20.85074829931973	21.61700680272109	63	127
20.85074829931973	21.61700680272109	55	127
20.85074829931973	21.61700680272109	43	127
21.651836734693877	22.325215419501134	63	127
22.371655328798187	23.091473922902495	67	127
23.137913832199548	23.904172335600908	70	127
23.950612244897957	25.471519274376416	65	127
23.950612244897957	25.05356009070295	70	127
23.950612244897957	25.471519274376416	50	127
23.950612244897957	26.191337868480726	58	127
25.111609977324264	25.262539682539682	72	127
25.262539682539682	25.471519274376416	68	127
25.471519274376416	26.191337868480726	51	127
25.471519274376416	26.191337868480726	67	127
25.471519274376416	26.191337868480726	63	127
26.249387755102042	26.934376417233562	79	127
26.96920634920635	27.329115646258504	77	127
27.329115646258504	27.46843537414966	75	127
27.65419501133787	28.04893424036281	74	127
28.04893424036281	28.223083900226758	72	127
28.42045351473923	29.95297052154195	53	127
28.42045351473923	29.395691609977323	77	127
28.42045351473923	29.95297052154195	62	127
29.395691609977323	29.48857142857143	79	127
29.48857142857143	29.639501133786847	77	127
29.639501133786847	29.743990929705216	75	127
29.743990929705216	29.941360544217687	74	127
29.941360544217687	30.045850340136056	72	127
30.045850340136056	30.80049886621315	70	127
30.846938775510203	31.12557823129252	70	127
30.846938775510203	31.392607709750568	62	127
30.846938775510203	31.97310657596372	53	127
31.13718820861678	31.20684807256236	72	127
31.20684807256236	31.2881179138322	70	127
31.2881179138322	31.357777777777777	69	127
31.357777777777777	31.43904761904762	70	127
31.43904761904762	32.0427664399093	65	127
31.43904761904762	32.0427664399093	74	127
32.08920634920635	32.948344671201816	72	127
32.08920634920635	32.948344671201816	69	127
32.08920634920635	32.948344671201816	63	127
32.08920634920635	32.948344671201816	53	127
32.994784580498866	35.53736961451247	58	127
32.994784580498866	34.469251700680275	72	127
32.994784580498866	34.469251700680275	69	127
32.994784580498866	34.469251700680275	63	127
34.469251700680275	35.53736961451247	70	127
34.469251700680275	35.53736961451247	62	127
35.59541950113379	36.23396825396826	68	127
35.59541950113379	36.23396825396826	65	127
36.268798185941044	37.04666666666667	67	127
36.268798185941044	37.04666666666667	63	127
37.081496598639454	37.85934240362812	65	127
37.081496598639454	37.85934240362812	62	127
37.89419501133787	41.168185941043085	39	127
37.89419501133787	40.94761904761905	67	127
37.89419501133787	40.94761904761905	63	127
37.89419501133787	40.94761904761905	58	127
41.168185941043085	42.770385487528344	68	127
41.168185941043085	42.770385487528344	41	127
41.168185941043085	42.770385487528344	58	127
41.168185941043085	42.770385487528344	62	127
42.85165532879819	46.009569160997735	43	127
42.85165532879819	45.626439909297055	63	127
42.85165532879819	45.626439909297055	58	127
42.85165532879819	45.626439909297055	67	127
46.009569160997735	47.321496598639456	44	127
46.009569160997735	47.321496598639456	65	127
46.009569160997735	47.321496598639456	60	127
47.472426303854874	49.15587301587301	55	127
47.472426303854874	50.54907029478458	63	127
47.472426303854874	51.628798185941044	46	127
47.472426303854874	51.628798185941044	34	127
47.472426303854874	52.09319727891157	58	127
49.23714285714286	51.965487528344674	56	127
50.54907029478458	52.09319727891157	62	127
52.18607709750567	54.67061224489796	39	127
52.18607709750567	54.763492063492066	58	127
52.18607709750567	53.75342403628118	62	127
52.18607709750567	53.75342403628118	56	127
53.75342403628118	54.763492063492066	55	127
53.75342403628118	54.763492063492066	63	127
54.79832199546485	55.47170068027211	55	127
55.506530612244894	56.342448979591836	58	127
56.48176870748299	57.155147392290246	63	127
57.29446712018141	59.60485260770975	58	127
57.29446712018141	58.07233560090703	46	127
57.29446712018141	58.37419501133787	63	127
58.10716553287982	58.86181405895692	44	127
58.467074829931974	58.687664399092974	65	127
58.687664399092974	58.908253968253966	62	127
58.908253968253966	59.76739229024943	63	127
58.908253968253966	59.76739229024943	43	127
59.80222222222222	60.37111111111111	58	127
60.41755102040816	61.2534693877551	63	127
61.29990929705215	62.1009977324263	67	127
62.17065759637188	66.6869387755102	58	127
62.17065759637188	65.43306122448979	65	127
62.17065759637188	65.43306122448979	38	127
65.43306122448979	66.91913832199546	63	127
65.43306122448979	66.91913832199546	39	127
67.17455782312925	68.40521541950113	53	127
67.17455782312925	68.40521541950113	60	127
67.17455782312925	68.40521541950113	44	127
67.17455782312925	70.05383219954649	63	127
68.67224489795919	70.14671201814059	55	127
68.67224489795919	71.50507936507937	58	127
68.67224489795919	70.14671201814059	46	127
70.3324716553288	71.98108843537415	62	127
70.3324716553288	71.98108843537415	56	127
70.3324716553288	71.98108843537415	34	127
72.13201814058957	74.74426303854875	58	127
72.13201814058957	73.88512471655329	62	127
72.13201814058957	73.88512471655329	53	127
72.13201814058957	74.63977324263038	39	127
73.88512471655329	74.74426303854875	63	127
73.88512471655329	74.74426303854875	55	127
74.77909297052155	74.86036281179139	77	127
74.86036281179139	74.9184126984127	75	127
74.9184126984127	74.98807256235828	77	127
74.98807256235828	75.05773242630386	75	127
75.05773242630386	75.12739229024943	77	127
75.12739229024943	75.22024943310657	75	127
75.22024943310657	75.31315192743764	74	127
75.31315192743764	75.39442176870749	75	127
75.39442176870749	76.0909977324263	80	127
75.39442176870749	76.0909977324263	75	127
75.39442176870749	76.0909977324263	72	127
76.12585034013605	76.88047619047619	70	127
76.12585034013605	76.36963718820861	79	127
76.12585034013605	76.88047619047619	74	127
76.91532879818594	78.9702947845805	72	127
76.91532879818594	78.9702947845805	68	127
76.91532879818594	77.91378684807256	79	127
77.97183673469388	78.20403628117914	84	127
78.20403628117914	78.47106575963718	80	127
78.47106575963718	78.80775510204082	77	127
78.81936507936508	78.95868480725623	82	127
78.95868480725623	79.14444444444445	79	127
79.14444444444445	79.4695238095238	70	127
79.14444444444445	79.4695238095238	67	127
79.14444444444445	79.5043537414966	75	127
79.5159410430839	79.67850340136054	80	127
79.67850340136054	79.85265306122449	77	127
79.85265306122449	80.1312925170068	74	127
79.85265306122449	80.09646258503402	68	127
79.85265306122449	80.09646258503402	65	127
80.14290249433107	80.30541950113378	79	127
80.30541950113378	80.4795918367347	75	127
80.4795918367347	80.79303854875283	67	127
80.4795918367347	80.82789115646258	72	127
80.4795918367347	80.79303854875283	63	127
80.83950113378685	80.978820861678	77	127
80.978820861678	81.28068027210884	74	127
81.28068027210884	84.25283446712018	53	127
81.28068027210884	81.61736961451247	70	127
81.28068027210884	84.25283446712018	50	127
81.28068027210884	85.59959183673469	58	127
81.62897959183674	81.79151927437641	79	127
81.79151927437641	81.96566893424037	77	127
81.96566893424037	82.09337868480726	75	127
82.09337868480726	82.29074829931973	74	127
82.29074829931973	82.59260770975057	72	127
82.59260770975057	82.76675736961451	70	127
82.76675736961451	83.49818594104309	70	127
83.49818594104309	84.56630385487529	68	127
84.25283446712018	85.84340136054422	55	127
84.25283446712018	85.84340136054422	51	127
84.58952380952381	85.05392290249434	67	127
85.05392290249434	85.56476190476191	68	127
85.58798185941043	85.93628117913832	70	127
85.97111111111111	86.24975056689343	71	127
85.97111111111111	87.31786848072562	53	127
85.97111111111111	87.31786848072562	48	127
85.97111111111111	87.31786848072562	44	127
86.24975056689343	86.40068027210884	72	127
86.40068027210884	86.55160997732426	71	127
86.55160997732426	86.78380952380952	72	127
86.78380952380952	86.96956916099774	71	127
86.96956916099774	87.12049886621315	72	127
87.12049886621315	87.25979591836735	74	127
87.25979591836735	87.41072562358276	75	127
87.41072562358276	89.04773242630385	55	127
87.41072562358276	89.34961451247166	63	127
87.41072562358276	90.55702947845805	46	127
89.04773242630385	90.63832199546485	56	127
89.36122448979592	89.43086167800453	65	127
89.43086167800453	89.54698412698413	63	127
89.54698412698413	89.6166439909297	62	127
89.6166439909297	89.7443537414966	63	127
89.7443537414966	90.34807256235828	67	127
90.35968253968254	90.7195918367347	65	127
90.73120181405896	91.38136054421769	51	127
90.73120181405896	91.38136054421769	55	127
90.73120181405896	92.13600907029479	63	127
92.21725623582766	93.16929705215419	39	127
93.21571428571428	93.90072562358277	79	127
93.21571428571428	93.90072562358277	75	127
94.02843537414967	94.62052154195011	75	127
94.02843537414967	94.62052154195011	72	127
94.69020408163266	95.42163265306122	70	127
94.69020408163266	95.42163265306122	74	127
95.51451247165532	99.7637641723356	63	127
95.51451247165532	96.88448979591837	70	127
95.51451247165532	98.57954648526078	66	127
95.51451247165532	96.62907029478458	72	127
96.6871201814059	96.82643990929705	75	127
96.82643990929705	96.98897959183674	73	127
96.98897959183674	97.8132879818594	72	127
96.98897959183674	97.8132879818594	69	127
97.87133786848072	98.50988662131519	72	127
97.87133786848072	98.50988662131519	69	127
98.57954648526078	98.88140589569161	74	127
98.57954648526078	99.25292517006802	70	127
98.57954648526078	99.96113378684807	65	127
98.90462585034014	98.97428571428571	75	127
98.97428571428571	99.05555555555556	74	127
99.05555555555556	99.12521541950113	72	127
99.12521541950113	99.33419501133787	74	127
99.33419501133787	100.00757369614513	75	127
99.33419501133787	100.00757369614513	72	127
100.04240362811791	102.0277097505669	65	127
100.04240362811791	100.39070294784581	76	127
100.04240362811791	102.0277097505669	70	127
100.04240362811791	102.0277097505669	62	127
100.40231292517007	100.48358276643991	77	127
100.48358276643991	100.56485260770975	76	127
100.56485260770975	100.65773242630385	74	127
100.65773242630385	100.7390022675737	76	127
100.7390022675737	101.3659410430839	79	127
101.38916099773243	101.57492063492063	77	127
101.57492063492063	102.25990929705216	77	127
102.35278911564626	103.71115646258504	65	127
102.35278911564626	103.08421768707483	70	127
102.35278911564626	103.08421768707483	62	127
103.13065759637188	103.75759637188209	72	127
103.13065759637188	103.75759637188209	69	127
103.13065759637188	103.75759637188209	63	127
103.13065759637188	103.75759637188209	60	127
103.79242630385488	104.59351473922902	74	127
103.79242630385488	104.59351473922902	70	127
103.79242630385488	104.59351473922902	65	127
103.79242630385488	104.59351473922902	62	127
103.79242630385488	104.59351473922902	58	127
104.6631746031746	106.82263038548753	65	127
104.6631746031746	105.84739229024943	77	127
104.6631746031746	106.82263038548753	57	127
104.6631746031746	106.82263038548753	72	127
104.6631746031746	106.82263038548753	60	127
105.90544217687075	106.30018140589569	76	127
106.31179138321995	106.75297052154195	75	127
106.81102040816326	106.8922902494331	77	127
106.8922902494331	106.99678004535147	75	127
106.99678004535147	107.47278911564626	74	127
106.99678004535147	107.47278911564626	70	127
106.99678004535147	107.7746485260771	53	127
107.48439909297052	107.79786848072563	69	127
107.48439909297052	107.79786848072563	72	127
107.80947845804988	108.4015873015873	58	127
107.80947845804988	107.9604081632653	74	127
107.80947845804988	108.4015873015873	70	127
108.11133786848073	108.1809977324263	75	127
108.1809977324263	108.26226757369615	74	127
108.26226757369615	108.36675736961452	72	127
108.36675736961452	108.43641723356009	74	127
108.43641723356009	108.97047619047619	65	127
108.43641723356009	108.69183673469388	77	127
108.43641723356009	108.97047619047619	72	127
108.43641723356009	108.97047619047619	51	127
108.70344671201813	108.99369614512472	75	127
109.00530612244899	110.17791383219955	74	127
109.00530612244899	110.17791383219955	70	127
109.00530612244899	111.66399092970522	65	127
109.00530612244899	111.66399092970522	53	127
110.17791383219955	111.83814058956916	69	127
110.17791383219955	111.83814058956916	72	127
113.44031746031746	114.1833560090703	65	127
113.44031746031746	114.1833560090703	62	127
113.44031746031746	114.1833560090703	58	127
114.21818594104309	116.18027210884354	63	127
114.21818594104309	116.18027210884354	65	127
114.21818594104309	116.18027210884354	60	127
118.44421768707483	120.39469387755102	69	127
118.44421768707483	120.39469387755102	72	127
118.44421768707483	120.39469387755102	63	127
118.44421768707483	120.39469387755102	54	127
120.6849433106576	121.39315192743764	55	127
120.6849433106576	121.90399092970522	62	127
120.6849433106576	121.90399092970522	70	127
121.42798185941044	122.13619047619048	53	127
122.17102040816326	122.93727891156463	63	127
122.17102040816326	122.93727891156463	70	127
122.17102040816326	122.93727891156463	51	127
122.99532879818594	123.21591836734694	70	127
122.99532879818594	123.21591836734694	65	127
122.99532879818594	123.21591836734694	50	127
123.74997732426304	124.01700680272108	67	127
123.74997732426304	124.01700680272108	63	127
123.74997732426304	124.01700680272108	51	127
124.52784580498866	125.16639455782312	65	127
124.52784580498866	125.16639455782312	62	127
124.52784580498866	125.16639455782312	53	127
125.96748299319728	126.67569160997732	69	127
125.96748299319728	126.67569160997732	63	127
125.96748299319728	126.67569160997732	41	127
127.55804988662132	129.17183673469387	69	127
127.55804988662132	129.17183673469387	72	127
127.55804988662132	129.65945578231293	46	127
129.17183673469387	129.8568253968254	74	127
129.17183673469387	129.8568253968254	70	127
129.89165532879818	130.5185941043084	77	127
130.56503401360544	131.26160997732427	86	127
131.31968253968253	132.06272108843538	58	127
131.31968253968253	132.06272108843538	82	127
131.31968253968253	132.06272108843538	62	127
131.31968253968253	132.06272108843538	53	127
132.09755102040816	133.23532879818595	81	127
132.09755102040816	135.58054421768708	63	127
132.09755102040816	135.58054421768708	60	127
132.09755102040816	135.9636507936508	53	127
133.29337868480727	133.4675283446712	84	127
133.4675283446712	133.6881179138322	82	127
133.6881179138322	133.9087074829932	81	127
133.943537414966	134.02480725623582	76	127
134.15251700680273	134.22215419501134	77	127
134.3498866213152	134.43113378684808	78	127
134.54725623582766	134.67496598639457	79	127
134.77945578231294	134.87233560090704	80	127
135.00004535147391	135.08131519274377	81	127
135.19739229024944	135.3018820861678	82	127
135.44122448979593	135.5108843537415	83	127
135.61537414965986	136.2307029478458	62	127
135.61537414965986	135.708231292517	84	127
135.61537414965986	136.2307029478458	58	127
135.85916099773243	135.94045351473923	85	127
136.0449433106576	136.1378231292517	86	127
136.2655328798186	137.7051700680272	60	127
136.2655328798186	137.7051700680272	57	127
136.2655328798186	138.5875283446712	54	127
136.2655328798186	137.43814058956917	87	127
137.43814058956917	137.78643990929706	84	127
137.79804988662133	138.51784580498867	60	127
137.79804988662133	138.12312925170068	81	127
137.79804988662133	138.51784580498867	63	127
138.13473922902494	138.25083900226758	82	127
138.25083900226758	138.32049886621314	81	127
138.32049886621314	138.45981859410432	79	127
138.45981859410432	138.5875283446712	81	127
138.5875283446712	139.3885941043084	62	127
138.5875283446712	139.3885941043084	55	127
138.5875283446712	138.9822448979592	84	127
138.5875283446712	139.3885941043084	58	127
138.9938775510204	139.41183673469388	82	127
139.42344671201815	140.7701814058957	57	127
139.42344671201815	139.62081632653062	81	127
139.42344671201815	140.07360544217687	60	127
139.62081632653062	139.7949433106576	79	127
139.7949433106576	139.94589569161	82	127
139.94589569161	140.12004535147392	81	127
140.12004535147392	140.30578231292517	84	127
140.12004535147392	140.89791383219955	63	127
140.30578231292517	140.52639455782312	82	127
140.52639455782312	140.65410430839003	81	127
140.65410430839003	140.96757369614514	79	127
140.96757369614514	141.45519274376417	77	127
140.96757369614514	141.68736961451248	62	127
140.96757369614514	141.68736961451248	58	127
141.45519274376417	141.71061224489796	82	127
141.7338321995465	142.1634013605442	79	127
141.7338321995465	142.45362811791384	63	127
141.7338321995465	142.45362811791384	51	127
142.1634013605442	142.47687074829932	82	127
142.4884807256236	143.09219954648526	70	127
142.4884807256236	143.09219954648526	62	127
142.4884807256236	143.09219954648526	53	127
144.28802721088437	146.11079365079365	63	127
144.28802721088437	144.5898866213152	74	127
144.28802721088437	146.11079365079365	53	127
144.6014739229025	145.13555555555556	72	127
145.14716553287982	145.5651247165533	71	127
145.5767120181406	146.20367346938775	72	127
146.21528344671202	153.62244897959184	46	127
146.21528344671202	146.62163265306123	70	127
146.21528344671202	147.01637188208616	58	127
146.6332426303855	147.0395918367347	77	127
147.05120181405897	147.43433106575964	74	127
147.43433106575964	147.7942403628118	69	127
147.80585034013606	148.16575963718822	70	127
148.17734693877551	148.53725623582767	68	127
148.54888888888888	148.90879818594104	67	127
148.9204081632653	149.33836734693878	68	127
149.3615873015873	151.6022902494331	58	127
149.3615873015873	149.7098866213152	70	127
149.72149659863945	150.17426303854876	72	127
150.19750566893424	150.47614512471657	73	127
150.4877551020408	150.7895918367347	65	127
150.8012244897959	151.28884353741498	64	127
151.30043083900227	151.6255328798186	67	127
151.63714285714286	152.31052154195012	55	127
151.63714285714286	151.92739229024943	68	127
152.02027210884353	152.29891156462585	70	127
152.31052154195012	152.61238095238096	72	127
152.31052154195012	155.90961451247165	56	127
152.62399092970523	152.92585034013607	73	127
152.93743764172336	153.494716553288	72	127
153.5063492063492	153.78498866213152	70	127
153.7965986394558	154.11004535147393	68	127
153.7965986394558	157.8717006802721	46	127
154.12167800453514	154.4815873015873	67	127
154.53963718820862	154.85310657596372	65	127
154.864716553288	155.1433560090703	63	127
155.15496598639456	155.5148752834467	62	127
155.52648526077098	155.97927437641724	65	127
155.9908843537415	156.28113378684807	67	127
155.9908843537415	156.73392290249433	53	127
156.3043537414966	156.72231292517006	68	127
156.73392290249433	158.63795918367347	55	127
156.73392290249433	157.03578231292516	70	127
157.04739229024943	157.36086167800454	72	127
157.43049886621316	157.70916099773243	70	127
157.7207709750567	158.1271201814059	68	127
158.13873015873017	163.75795918367348	46	127
158.13873015873017	158.40573696145125	67	127
158.42897959183674	158.85854875283448	75	127
158.87015873015872	159.62480725623584	51	127
158.87015873015872	159.20684807256237	75	127
158.87015873015872	159.20684807256237	79	127
159.20684807256237	159.64802721088435	74	127
159.20684807256237	159.64802721088435	77	127
159.65963718820862	160.3562358276644	72	127
159.65963718820862	160.3562358276644	75	127
159.65963718820862	163.75795918367348	58	127
160.3910657596372	161.13410430839002	70	127
160.3910657596372	161.13410430839002	74	127
161.1689342403628	161.92358276643992	68	127
161.1689342403628	161.92358276643992	72	127
161.98160997732427	162.5969387755102	67	127
161.98160997732427	162.5969387755102	70	127
162.63179138321996	163.21226757369615	65	127
162.63179138321996	163.21226757369615	68	127
163.2587074829932	164.17591836734695	67	127
163.2587074829932	164.17591836734695	63	127
164.29201814058956	164.86090702947845	65	127
164.29201814058956	164.86090702947845	62	127
164.8957142857143	165.55750566893425	63	127
164.8957142857143	165.55750566893425	60	127
165.6039455782313	166.2773015873016	58	127
165.6039455782313	166.2773015873016	62	127
166.31215419501135	166.5443537414966	70	127
166.31215419501135	166.89263038548754	60	127
166.31215419501135	166.89263038548754	56	127
166.9855328798186	167.70532879818595	58	127
166.9855328798186	167.27578231292517	70	127
166.9855328798186	167.70532879818595	55	127
167.7401814058957	168.16972789115647	70	127
167.7401814058957	168.6457596371882	56	127
167.7401814058957	168.6457596371882	53	127
168.69219954648526	171.28122448979593	58	127
168.69219954648526	168.7734693877551	70	127
168.69219954648526	171.28122448979593	55	127
168.69219954648526	171.28122448979593	51	127
168.7734693877551	170.49174603174603	79	127
170.5033560090703	170.6891156462585	80	127
170.6891156462585	170.86326530612246	79	127
170.86326530612246	171.13027210884354	77	127
171.1651247165533	171.52503401360545	75	127
171.53664399092972	171.7572335600907	74	127
171.53664399092972	172.90662131519275	53	127
171.53664399092972	172.90662131519275	62	127
171.53664399092972	172.90662131519275	56	127
171.91977324263038	171.98943310657597	75	127
171.98943310657597	172.05909297052153	74	127
172.05909297052153	172.1635827664399	72	127
172.1635827664399	172.36092970521543	74	127
172.36092970521543	172.697641723356	75	127
172.70925170068028	173.1736507936508	77	127
173.18526077097505	178.80448979591836	63	127
173.18526077097505	174.54362811791384	70	127
173.18526077097505	176.1225850340136	58	127
173.18526077097505	176.1225850340136	55	127
174.60167800453516	174.75260770975058	74	127
174.75260770975058	174.89192743764173	72	127
174.89192743764173	175.20539682539683	70	127
175.2170068027211	175.4724263038549	75	127
175.48403628117913	176.00648526077097	74	127
176.01809523809524	176.3780045351474	75	127
176.38961451247167	176.76113378684806	74	127
176.38961451247167	177.64349206349206	56	127
176.77274376417233	177.15587301587303	72	127
177.16746031746032	177.43451247165532	70	127
177.4461224489796	177.70154195011338	68	127
177.71315192743765	182.33392290249432	58	127
177.71315192743765	180.33698412698413	67	127
178.80448979591836	182.45002267573696	62	127
180.33698412698413	180.47632653061225	65	127
180.47632653061225	180.65047619047618	64	127
180.65047619047618	180.78979591836736	65	127
180.78979591836736	180.95233560090702	67	127
180.95233560090702	181.12648526077098	65	127
181.12648526077098	181.2774149659864	68	127
181.2774149659864	181.41673469387754	67	127
181.41673469387754	181.56766439909296	70	127
181.56766439909296	181.71859410430838	68	127
181.71859410430838	181.86950113378686	72	127
181.86950113378686	182.00884353741498	70	127
182.00884353741498	182.1829931972789	74	127
182.1829931972789	182.32231292517008	72	127
182.32231292517008	182.48485260770974	70	127
182.48485260770974	182.69383219954648	68	127
182.69383219954648	185.31768707482993	51	127
182.69383219954648	185.31768707482993	58	127
182.69383219954648	184.74879818594104	56	127
182.69383219954648	183.36721088435374	65	127
182.69383219954648	184.74879818594104	62	127
183.51814058956916	184.71396825396826	66	127
184.74879818594104	185.31768707482993	55	127
184.74879818594104	185.31768707482993	67	127
184.74879818594104	185.31768707482993	63	127
185.3525170068027	185.97945578231293	58	127
186.02589569160997	186.73410430839002	63	127
186.78054421768707	187.58163265306123	67	127
187.6512925170068	188.41755102040815	58	127
187.6512925170068	188.41755102040815	46	127
187.6512925170068	188.73102040816326	67	127
187.6512925170068	188.73102040816326	63	127
188.46396825396826	189.0677097505669	44	127
188.46396825396826	189.0677097505669	56	127
188.80068027210885	189.09092970521542	62	127
188.80068027210885	188.96321995464854	68	127
188.96321995464854	189.10253968253969	65	127
189.10253968253969	189.81074829931973	55	127
189.10253968253969	189.81074829931973	63	127
189.10253968253969	189.81074829931973	43	127
189.86879818594105	190.55378684807258	63	127
190.58861678004536	191.30843537414967	67	127
191.40131519274377	192.41138321995464	70	127
192.44621315192742	194.6288888888889	58	127
192.44621315192742	193.4911111111111	70	127
192.44621315192742	193.94390022675736	65	127
192.44621315192742	193.94390022675736	50	127
193.5607709750567	193.7465306122449	72	127
193.7465306122449	193.94390022675736	68	127
193.94390022675736	194.6288888888889	51	127
193.94390022675736	194.3154195011338	67	127
193.94390022675736	194.6288888888889	63	127
194.32702947845806	194.6521088435374	79	127
194.66371882086167	195.01201814058956	78	127
195.02362811791383	195.33709750566894	79	127
195.3487074829932	195.70861678004536	77	127
195.74344671201814	196.05691609977325	75	127
196.06852607709752	196.40521541950113	74	127
196.4168253968254	196.77673469387756	72	127
196.78834467120183	198.03061224489795	53	127
196.78834467120183	197.11342403628117	77	127
196.78834467120183	198.03061224489795	62	127
197.12503401360544	197.2643537414966	81	127
197.2643537414966	197.45011337868482	79	127
197.45011337868482	197.62426303854875	82	127
197.62426303854875	197.77519274376417	81	127
197.77519274376417	197.92612244897958	84	127
197.92612244897958	198.1467120181406	82	127
198.1467120181406	198.91297052154195	70	127
198.959410430839	200.2481179138322	53	127
198.959410430839	199.3425396825397	70	127
198.959410430839	199.66761904761904	62	127
199.35414965986394	199.42380952380952	72	127
199.42380952380952	199.5282993197279	70	127
199.5282993197279	199.60956916099772	69	127
199.60956916099772	199.7140589569161	70	127
199.7140589569161	200.3409977324263	65	127
199.7140589569161	200.3409977324263	74	127
200.37582766439908	201.68775510204082	72	127
200.37582766439908	201.68775510204082	69	127
200.37582766439908	201.68775510204082	63	127
200.37582766439908	201.68775510204082	53	127
201.7225850340136	202.9532426303855	69	127
201.7225850340136	202.9532426303855	72	127
201.7225850340136	202.9532426303855	63	127
201.7225850340136	203.9284807256236	58	127
202.9532426303855	203.9284807256236	62	127
202.9532426303855	203.9284807256236	70	127
203.97492063492064	204.6482993197279	68	127
203.97492063492064	204.6482993197279	65	127
204.68312925170068	205.623537414966	67	127
204.68312925170068	205.623537414966	63	127
205.65836734693877	206.44784580498867	65	127
205.65836734693877	206.44784580498867	62	127
206.48267573696145	209.53609977324263	39	127
206.8425850340136	207.36503401360545	55	127
207.42308390022677	207.7829931972789	63	127
207.79460317460317	208.1312925170068	58	127
208.14290249433105	208.43315192743765	67	127
208.44476190476192	208.74662131519275	63	127
208.758231292517	209.1645804988662	70	127
209.18780045351474	209.52448979591836	67	127
209.53609977324263	209.94244897959183	68	127
209.53609977324263	211.09183673469389	41	127
209.9540589569161	210.4532879818594	65	127
210.4532879818594	210.88285714285715	62	127
210.89446712018142	211.1498866213152	58	127
211.16149659863945	211.45174603174604	63	127
211.16149659863945	214.27297052154196	43	127
211.46335600907028	212.06707482993198	70	127
212.07868480725622	212.42698412698414	67	127
212.46181405895692	212.76367346938775	63	127
212.77528344671202	213.216462585034	58	127
213.22807256235828	213.54154195011338	67	127
213.55315192743765	213.83179138321995	63	127
213.84340136054422	214.2613605442177	58	127
214.27297052154196	215.68938775510205	44	127
214.27297052154196	214.65609977324263	65	127
214.760589569161	215.09727891156462	68	127
215.10888888888888	215.44557823129253	60	127
215.45718820861677	215.77065759637188	65	127
215.78226757369615	216.10734693877552	63	127
215.78226757369615	220.2288888888889	46	127
215.78226757369615	220.2288888888889	34	127
216.11895691609976	216.53691609977324	82	127
216.59496598639456	217.09419501133786	79	127
217.10580498866213	217.5469841269841	75	127
217.55859410430838	217.89528344671203	80	127
217.90689342403627	218.29002267573696	77	127
218.30163265306123	218.61510204081634	74	127
218.62671201814058	218.98662131519274	70	127
218.998231292517	219.52068027210885	68	127
219.53229024943312	219.82253968253968	65	127
219.83414965986395	220.20566893424035	62	127
220.21727891156462	220.48430839002268	58	127
220.73972789115646	223.35197278911565	39	127
220.73972789115646	221.21573696145126	56	127
221.2273469387755	221.52920634920636	58	127
221.5408163265306	221.9471655328798	62	127
221.97038548752835	222.28385487528345	58	127
222.29546485260772	222.85274376417235	63	127
222.87596371882086	223.4680725623583	58	127
223.47968253968253	223.75832199546485	55	127
223.76993197278912	224.07179138321996	51	127
224.08340136054423	224.47814058956916	58	127
224.48975056689343	225.04702947845806	55	127
225.05863945578233	225.36049886621316	63	127
225.3721088435374	225.67396825396824	58	127
225.6855782312925	226.14997732426303	63	127
225.6855782312925	226.46344671201814	46	127
225.6855782312925	226.46344671201814	34	127
226.1615873015873	226.48666666666668	70	127
226.49827664399092	227.2297052154195	32	127
226.49827664399092	226.95106575963717	58	127
226.49827664399092	227.2297052154195	44	127
226.96267573696144	227.25292517006804	62	127
227.26453514739228	227.64766439909297	63	127
227.26453514739228	228.10045351473923	43	127
227.26453514739228	228.10045351473923	31	127
227.65927437641724	228.28621315192743	55	127
228.30943310657597	228.6112925170068	58	127
228.62290249433107	229.07569160997733	55	127
229.0873015873016	229.4239909297052	63	127
229.43560090702948	229.7490702947846	58	127
229.76068027210886	230.0625396825397	67	127
230.07414965986393	230.4688888888889	63	127
230.48049886621314	231.07260770975057	65	127
230.48049886621314	233.77773242630386	38	127
231.08421768707484	231.39768707482995	82	127
231.4092970521542	231.8156462585034	80	127
231.8156462585034	232.14072562358277	77	127
232.1639455782313	232.54707482993197	74	127
232.54707482993197	232.90698412698413	68	127
232.9185941043084	233.2901133786848	65	127
233.30172335600906	233.75451247165532	62	127
233.77773242630386	235.25219954648526	39	127
233.77773242630386	234.1724716553288	70	127
234.18408163265306	234.62526077097505	63	127
234.63687074829932	234.99678004535147	75	127
235.00839002267574	235.50761904761904	67	127
235.5540589569161	235.85591836734693	72	127
235.5540589569161	236.81954648526076	44	127
235.8675283446712	236.14616780045353	65	127
236.15777777777777	236.47124716553287	60	127
236.48285714285714	236.92403628117913	68	127
236.9356462585034	238.49138321995466	46	127
236.9356462585034	237.26072562358277	67	127
237.27233560090704	237.6554648526077	63	127
237.66707482993198	238.21274376417233	70	127
238.2243537414966	238.56104308390022	67	127
238.57265306122449	240.20965986394557	34	127
238.57265306122449	238.83968253968254	68	127
238.8512925170068	239.48984126984126	65	127
239.50145124716553	239.8845804988662	62	127
239.89619047619047	240.31414965986394	56	127
240.3257596371882	242.6245351473923	39	127
240.3257596371882	240.6740589569161	53	127
240.68566893424037	241.1500680272109	56	127
241.16167800453513	241.49836734693878	58	127
241.50997732426305	241.9627664399093	62	127
241.97437641723357	242.7174149659864	63	127
242.75224489795917	242.82190476190476	77	127
242.82190476190476	242.92639455782313	75	127
242.92639455782313	242.99605442176872	77	127
242.99605442176872	243.06571428571428	75	127
243.06571428571428	243.18181405895692	77	127
243.18181405895692	243.3095238095238	75	127
243.3095238095238	243.41401360544216	74	127
243.41401360544216	243.51850340136053	75	127
243.51850340136053	244.20349206349206	80	127
243.51850340136053	244.2499319727891	75	127
243.51850340136053	244.2499319727891	72	127
244.2499319727891	244.52857142857144	79	127
244.2499319727891	245.039410430839	74	127
244.2499319727891	245.039410430839	70	127
245.0742403628118	247.09437641723355	68	127
245.0742403628118	246.21201814058958	79	127
245.0742403628118	247.09437641723355	72	127
246.28167800453514	246.43260770975056	84	127
246.43260770975056	246.6415873015873	80	127
246.6415873015873	246.92022675736962	77	127
246.9318367346939	247.0827664399093	82	127
247.0827664399093	247.25691609977324	79	127
247.25691609977324	247.5819954648526	70	127
247.25691609977324	247.5819954648526	67	127
247.25691609977324	247.6168253968254	75	127
247.62843537414966	247.81419501133786	80	127
247.81419501133786	248.01156462585033	77	127
248.01156462585033	248.2437641723356	68	127
248.01156462585033	248.2437641723356	65	127
248.01156462585033	248.3134240362812	74	127
248.32503401360543	248.4991836734694	79	127
248.4991836734694	248.6849433106576	75	127
248.6849433106576	249.01002267573696	63	127
248.6849433106576	249.01002267573696	67	127
248.6849433106576	249.056462585034	72	127
249.06807256235828	249.2190022675737	77	127
249.2190022675737	249.46281179138322	74	127
249.46281179138322	249.85755102040815	70	127
249.46281179138322	252.52784580498866	53	127
249.46281179138322	252.52784580498866	50	127
249.46281179138322	253.66562358276644	58	127
249.86916099773242	250.0665306122449	79	127
250.0665306122449	250.25229024943312	77	127
250.25229024943312	250.43804988662131	75	127
250.43804988662131	250.70507936507937	74	127
250.70507936507937	250.8792290249433	72	127
250.8792290249433	251.0765986394558	70	127
251.0765986394558	251.7383673469388	70	127
251.7383673469388	252.9574149659864	68	127
252.52784580498866	254.17646258503402	51	127
252.52784580498866	254.17646258503402	55	127
252.96902494331067	253.37537414965988	67	127
253.37537414965988	253.6424036281179	68	127
253.65401360544217	254.25773242630385	70	127
254.26934240362812	255.65092970521542	44	127
254.26934240362812	254.5015419501134	71	127
254.26934240362812	255.65092970521542	53	127
254.26934240362812	255.65092970521542	48	127
254.5015419501134	254.69891156462586	72	127
254.69891156462586	254.838231292517	71	127
254.838231292517	254.9659410430839	72	127
254.9659410430839	255.14009070294784	71	127
255.14009070294784	255.3142403628118	72	127
255.3142403628118	255.5928798185941	74	127
255.5928798185941	255.74380952380952	75	127
255.74380952380952	257.485306122449	55	127
255.74380952380952	257.7639455782313	63	127
255.74380952380952	258.75079365079364	46	127
257.485306122449	258.9365306122449	56	127
257.77555555555557	257.8568253968254	65	127
257.8568253968254	257.93809523809523	63	127
257.93809523809523	258.05419501133787	62	127
258.05419501133787	258.14707482993197	63	127
258.14707482993197	258.588253968254	67	127
258.59986394557825	259.0874829931973	65	127
259.09909297052155	259.6795918367347	55	127
259.09909297052155	259.6795918367347	51	127
259.09909297052155	260.352970521542	63	127
260.4458503401361	261.502358276644	39	127
261.5371882086168	261.78099773242633	72	127
262.28022675736963	262.59369614512474	73	127
263.04648526077096	263.81274376417235	74	127
264.12621315192746	264.3932426303855	56	127
264.12621315192746	264.9737414965986	75	127
264.40485260770976	264.68349206349205	63	127
264.6951020408163	264.9621088435374	60	127
264.9737414965986	265.2872108843537	63	127
264.9737414965986	265.2872108843537	72	127
265.298820861678	265.9373696145125	68	127
265.298820861678	265.63551020408164	56	127
265.6471201814059	265.960589569161	63	127
265.9721995464853	266.5294784580499	68	127
265.9721995464853	266.2508390022676	60	127
266.26244897959185	266.5526984126984	63	127
266.5643083900227	266.98226757369616	51	127
266.5643083900227	266.6804081632653	72	127
266.6804081632653	267.13319727891155	70	127
267.0287074829932	267.3189342403628	61	127
267.1564172335601	267.330566893424	68	127
267.330566893424	267.8181859410431	70	127
267.330566893424	267.67886621315193	55	127
267.7020861678005	268.0039455782313	61	127
267.85301587301586	268.0155555555556	72	127
268.0155555555556	268.34061224489795	56	127
268.0155555555556	269.25780045351473	68	127
268.35224489795917	268.6308843537415	63	127
268.6424716553288	268.9559410430839	60	127
268.9675736961451	269.33909297052156	63	127
269.35070294784583	269.61773242630386	56	127
269.62934240362813	270.0589115646259	63	127
270.08213151927436	270.6858276643991	68	127
270.08213151927436	270.44204081632654	60	127
270.4536507936508	270.70907029478457	63	127
270.72068027210884	271.080589569161	51	127
270.72068027210884	270.80195011337867	72	127
270.80195011337867	271.1850793650794	70	127
271.0921768707483	271.3360090702948	61	127
271.20829931972787	271.34761904761905	68	127
271.34761904761905	271.9281179138322	70	127
271.34761904761905	271.80040816326533	55	127
271.8119954648526	272.0790476190476	61	127
271.9513378684807	272.0906575963719	72	127
272.0906575963719	273.1819954648526	68	127
272.0906575963719	272.5318140589569	56	127
272.5434467120181	272.85691609977323	63	127
272.8685260770975	273.24002267573695	60	127
273.25165532879817	273.4025850340136	70	127
273.25165532879817	273.5999546485261	63	127
273.4025850340136	273.61156462585035	72	127
273.61156462585035	274.01791383219955	55	127
273.61156462585035	275.2601814058957	73	127
274.01791383219955	274.3197732426304	63	127
274.33138321995466	274.65646258503403	58	127
274.6680725623583	274.93510204081633	63	127
274.9467120181406	275.2601814058957	56	127
275.27179138322	275.59684807256235	63	127
275.27179138322	275.59684807256235	72	127
275.60848072562356	275.93356009070294	73	127
275.60848072562356	275.93356009070294	60	127
276.06126984126985	276.4443990929705	63	127
276.06126984126985	276.4443990929705	74	127
276.51403628117913	277.57056689342403	60	127
276.51403628117913	279.0334240362812	51	127
276.51403628117913	277.64020408163265	75	127
277.64020408163265	278.01174603174604	56	127
277.64020408163265	278.01174603174604	72	127
278.0233560090703	279.1263038548753	70	127
278.0233560090703	279.1263038548753	55	127
280.9490702947846	281.2277097505669	60	127
280.9490702947846	282.1681179138322	44	127
281.23931972789114	281.58761904761906	68	127
281.5992290249433	281.90108843537416	63	127
281.91269841269843	282.30743764172337	68	127
282.31904761904764	282.5744671201814	60	127
282.58607709750567	282.91115646258504	68	127
282.9227664399093	283.37555555555554	63	127
283.3871655328798	283.78190476190474	68	127
283.793514739229	284.1534240362812	61	127
283.793514739229	285.12866213151926	39	127
284.16503401360546	284.5133333333333	67	127
284.5249433106576	284.86163265306124	63	127
284.8732426303855	285.1983219954649	67	127
285.20990929705215	285.58145124716555	60	127
285.20990929705215	286.440589569161	44	127
285.5930612244898	285.9297505668934	68	127
285.9413605442177	286.22	63	127
286.2315873015873	286.5102494331066	68	127
286.52185941043086	286.7772789115646	60	127
286.7888888888889	287.102358276644	68	127
287.11396825396827	287.5667573696145	63	127
287.57836734693876	288.0195464852608	68	127
288.03115646258505	288.5071655328798	60	127
288.03115646258505	289.48240362811794	36	127
288.5187755102041	288.8322448979592	67	127
288.84385487528345	289.19213151927437	64	127
289.2037641723356	289.57528344671204	67	127
289.5868934240363	290.13256235827663	41	127
289.5868934240363	289.85392290249433	62	127
289.8655328798186	290.3067120181406	65	127
290.3182993197279	291.1309977324263	43	127
290.3182993197279	290.6434013605442	58	127
290.6550113378685	291.1542403628118	63	127
291.1774603174603	291.51414965986396	53	127
291.1774603174603	291.8043990929705	44	127
291.52575963718823	291.83922902494334	60	127
291.8508163265306	292.6287074829932	41	127
291.8508163265306	292.1642857142857	56	127
292.1759183673469	292.65192743764175	60	127
292.663514739229	293.0466666666667	53	127
292.663514739229	293.325306122449	46	127
293.05827664399095	293.3485260770975	58	127
293.3485260770975	294.11478458049885	34	127
293.3485260770975	293.8593650793651	56	127
293.87097505668936	294.1263945578231	58	127
294.1380045351474	295.1132426303855	55	127
294.1380045351474	295.1132426303855	39	127
295.1829024943311	296.3903401360544	51	127
295.72857142857146	295.9607709750567	75	127
296.46	296.680589569161	75	127
297.2494784580499	297.50489795918367	75	127
298.7587755102041	299.1186848072562	55	127
298.7587755102041	299.7572335600907	82	127
299.1302947845805	299.4437641723356	63	127
299.45537414965986	299.73401360544216	58	127
299.7572335600907	300.05909297052153	79	127
299.7572335600907	300.05909297052153	63	127
300.0707029478458	300.7324716553288	73	127
300.0707029478458	300.430612244898	55	127
300.45383219954647	300.7556916099773	63	127
300.7673015873016	301.4755102040816	73	127
300.7673015873016	301.0807709750567	58	127
301.09238095238095	301.49873015873015	63	127
301.5103401360544	301.800589569161	56	127
301.5103401360544	301.58	73	127
301.58	301.99795918367346	72	127
301.81219954648526	302.2069387755102	63	127
302.021179138322	302.21854875283447	70	127
302.21854875283447	302.5204081632653	60	127
302.21854875283447	302.67133786848075	72	127
302.53201814058957	302.85709750566895	63	127
302.6945351473923	302.8687074829932	73	127
302.8687074829932	304.13419501133785	70	127
302.8687074829932	303.2170068027211	51	127
303.22861678004534	303.5304761904762	63	127
303.54208616780045	303.8671655328798	55	127
303.8787755102041	304.227052154195	63	127
304.2386848072562	304.58698412698413	55	127
304.5985941043084	304.90045351473924	63	127
304.9120634920635	305.21392290249435	58	127
304.9120634920635	305.17909297052154	75	127
305.2255328798186	305.597052154195	63	127
305.6086621315193	305.84086167800456	75	127
305.6086621315193	305.8873015873016	56	127
305.89891156462585	306.2356009070295	63	127
306.2704081632653	306.53746031746033	75	127
306.2704081632653	306.61873015873016	60	127
306.63034013605443	307.0482993197279	63	127
307.07151927437644	307.4546485260771	51	127
307.07151927437644	308.0931972789116	82	127
307.4662585034014	307.75650793650794	63	127
307.7681179138322	308.06997732426305	55	127
308.0931972789116	308.44149659863945	79	127
308.0931972789116	308.44149659863945	63	127
308.4531065759637	309.16131519274376	73	127
308.4531065759637	308.90589569161	55	127
308.91750566893427	309.1845351473923	63	127
309.20775510204084	309.56766439909296	58	127
309.20775510204084	309.8462811791383	73	127
309.57927437641723	309.8695238095238	63	127
309.88113378684807	309.9507709750567	73	127
309.88113378684807	310.20621315192744	56	127
309.9507709750567	310.33392290249435	71	127
310.229433106576	310.5080725623583	63	127
310.3687528344671	310.51968253968255	70	127
310.51968253968255	310.937641723356	71	127
310.51968253968255	310.7867120181406	59	127
310.79832199546485	311.1814512471655	63	127
310.96086167800456	311.1930612244898	73	127
311.1930612244898	312.6094557823129	70	127
311.1930612244898	312.6094557823129	55	127
311.1930612244898	312.6094557823129	51	127
314.14197278911564	314.82698412698414	80	127
314.14197278911564	314.82698412698414	77	127
314.8618140589569	315.7557823129252	79	127
314.8618140589569	315.7557823129252	75	127
315.79061224489794	317.5669387755102	77	127
315.79061224489794	317.5669387755102	73	127
317.7526984126984	318.0197052154195	75	127
317.7526984126984	318.0197052154195	72	127
318.46090702947845	318.751156462585	73	127
318.46090702947845	318.751156462585	70	127
319.12267573696147	319.41292517006804	72	127
319.12267573696147	319.41292517006804	68	127
319.94698412698415	321.1428117913832	67	127
319.94698412698415	321.1428117913832	70	127
322.30380952380955	323.1281179138322	56	127
322.30380952380955	323.7898866213152	68	127
323.17455782312925	323.83632653061227	58	127
323.871156462585	324.53292517006804	60	127
323.871156462585	325.4268934240363	68	127
324.56773242630385	325.4268934240363	61	127
326.28603174603177	327.6443990929705	60	127
326.28603174603177	328.5964172335601	63	127
326.28603174603177	329.1304761904762	51	127
327.73725623582766	329.29301587301586	61	127
328.5964172335601	329.37426303854875	67	127
329.42072562358277	330.99968253968257	70	127
329.42072562358277	330.99968253968257	67	127
329.42072562358277	331.51052154195014	44	127
330.99968253968257	331.6150113378685	68	127
331.64984126984126	331.7078911564626	82	127
331.7078911564626	331.812380952381	80	127
331.812380952381	331.88204081632654	82	127
331.88204081632654	331.9517006802721	80	127
331.9517006802721	332.0213605442177	82	127
332.0213605442177	332.0910204081633	80	127
332.0910204081633	332.1839002267574	79	127
332.1839002267574	332.2767800453515	80	127
332.2767800453515	332.97337868480724	85	127
332.2767800453515	332.97337868480724	80	127
332.2767800453515	332.97337868480724	77	127
332.9965986394558	333.37972789115645	84	127
332.9965986394558	333.69319727891155	79	127
332.9965986394558	333.69319727891155	75	127
333.7164172335601	335.6668934240363	77	127
333.7164172335601	334.7148752834467	84	127
333.7164172335601	335.6668934240363	73	127
334.7148752834467	334.92385487528344	84	127
334.92385487528344	335.08639455782316	85	127
335.08639455782316	335.21410430839	84	127
335.21410430839	335.36503401360545	82	127
335.36503401360545	335.51596371882084	82	127
335.51596371882084	335.655283446712	84	127
335.655283446712	335.7946031746032	82	127
335.7946031746032	335.92231292517005	80	127
335.7946031746032	336.05002267573695	75	127
335.7946031746032	336.05002267573695	72	127
335.92231292517005	336.1080725623583	80	127
336.1080725623583	336.2473922902494	82	127
336.2473922902494	336.40993197278914	80	127
336.40993197278914	336.5608616780045	79	127
336.40993197278914	336.6537414965986	73	127
336.40993197278914	336.6537414965986	70	127
336.5608616780045	336.71179138322	79	127
336.71179138322	336.86272108843536	80	127
336.86272108843536	337.00204081632654	79	127
337.00204081632654	337.12975056689345	77	127
337.00204081632654	337.2458276643991	72	127
337.00204081632654	337.2458276643991	68	127
337.12975056689345	337.3039002267574	77	127
337.3039002267574	337.46643990929704	79	127
337.46643990929704	337.6521768707483	77	127
337.6521768707483	337.7682993197279	75	127
337.6521768707483	338.8828344671202	70	127
337.6521768707483	338.8828344671202	67	127
337.9308390022676	338.09337868480725	74	127
338.2443083900227	338.9292970521542	73	127
339.82326530612244	340.4269841269841	72	127
339.82326530612244	340.4269841269841	44	127
339.82326530612244	341.1351700680272	56	127
340.54308390022675	341.1932426303855	46	127
340.54308390022675	341.1932426303855	73	127
341.2396825396825	341.79696145124717	56	127
341.2396825396825	341.79696145124717	48	127
341.2396825396825	341.79696145124717	75	127
341.9478684807256	342.6444897959184	56	127
341.9478684807256	342.15684807256235	76	127
341.9478684807256	342.6444897959184	49	127
342.15684807256235	342.34263038548755	77	127
342.34263038548755	342.5051700680272	76	127
342.5051700680272	342.67931972789114	77	127
342.67931972789114	342.9115192743764	76	127
342.9115192743764	343.1088888888889	77	127
343.1088888888889	343.2714058956916	79	127
343.2714058956916	343.43396825396826	80	127
343.43396825396826	344.11895691609976	51	127
343.43396825396826	343.5036281179138	80	127
343.43396825396826	344.11895691609976	60	127
343.5036281179138	344.11895691609976	68	127
344.8387755102041	345.1173922902494	69	127
345.12902494331064	345.2102947845805	72	127
345.12902494331064	346.39451247165533	61	127
345.12902494331064	346.39451247165533	49	127
345.2102947845805	345.5934240362812	70	127
345.61664399092973	345.79079365079366	69	127
345.79079365079366	346.29002267573696	70	127
346.3132426303855	346.5338321995465	72	127
346.5338321995465	347.86897959183676	68	127
346.5338321995465	346.8588888888889	56	127
346.8705215419501	347.24204081632655	63	127
347.2536507936508	347.66	60	127
347.6715873015873	347.9386394557823	63	127
347.9502494331066	348.28691609977324	56	127
348.29854875283445	348.61201814058956	63	127
348.6352380952381	348.96031746031747	60	127
348.6352380952381	348.92548752834466	75	127
348.97192743764174	349.41308390022675	63	127
349.42471655328796	349.6801360544218	75	127
349.42471655328796	349.73818594104307	51	127
349.74979591836734	350.086485260771	61	127
350.09809523809525	350.56249433106575	55	127
350.09809523809525	350.51605442176873	75	127
350.57410430839	350.87596371882086	61	127
350.8875736961451	351.29392290249433	56	127
350.8875736961451	352.071768707483	87	127
351.31714285714287	351.6538095238095	63	127
351.6654195011338	352.04857142857145	60	127
352.071768707483	352.4317006802721	63	127
352.071768707483	352.4317006802721	84	127
352.4433106575964	352.9425396825397	80	127
352.4433106575964	352.7219501133787	56	127
352.7219501133787	352.9657596371882	63	127
352.9773696145125	353.36049886621316	60	127
352.9773696145125	353.6159183673469	80	127
353.37210884353743	353.63913832199546	63	127
353.65074829931973	354.0222675736961	48	127
353.65074829931973	353.7204081632653	84	127
353.7204081632653	354.18480725623584	82	127
354.0338775510204	354.35895691609977	58	127
354.21961451247165	354.37056689342404	80	127
354.37056689342404	354.7885260770975	55	127
354.37056689342404	354.9394557823129	82	127
354.8001360544218	355.1136054421769	58	127
354.96267573696144	355.12521541950116	84	127
355.12521541950116	355.473514739229	53	127
355.12521541950116	356.49519274376416	80	127
355.4851247165533	355.7869841269841	60	127
355.7985941043084	356.10045351473923	56	127
356.1120634920635	356.5648299319728	60	127
356.58807256235826	356.8434920634921	53	127
356.85510204081635	357.1453514739229	60	127
357.1569614512472	357.57492063492066	56	127
357.1569614512472	357.54009070294785	72	127
357.5865079365079	357.89997732426303	60	127
357.91160997732425	358.2831292517007	72	127
357.91160997732425	358.3295691609977	48	127
358.341179138322	358.6198185941043	58	127
358.63142857142856	358.94489795918366	72	127
358.63142857142856	358.9797278911565	52	127
358.99133786848074	359.2467573696145	58	127
359.2931972789116	360.2800453514739	84	127
359.2931972789116	359.58344671201814	53	127
359.5950566893424	360.0014058956916	60	127
360.0130158730159	360.26843537414965	56	127
360.2800453514739	360.62834467120183	60	127
360.2800453514739	360.62834467120183	80	127
360.6399546485261	361.3249433106576	77	127
360.6399546485261	361.0463038548753	53	127
361.0579138321996	361.3597732426304	60	127
361.3713605442177	361.6732199546485	56	127
361.3713605442177	361.94027210884354	77	127
361.6848299319728	361.97510204081635	60	127
361.9866893424036	362.0563718820862	77	127
361.9866893424036	362.28854875283446	47	127
362.0563718820862	362.47433106575966	75	127
362.30018140589567	362.69489795918366	56	127
362.5439909297052	362.70650793650793	74	127
362.70650793650793	363.1360997732426	75	127
362.70650793650793	362.9967800453515	53	127
363.00836734693877	363.3566893424036	56	127
363.15931972789116	363.3682993197279	77	127
363.3682993197279	363.6236961451247	46	127
363.3682993197279	364.66861678004534	74	127
363.6353287981859	364.1809977324263	56	127
364.1926077097506	364.44802721088433	53	127
364.4596371882086	364.73827664399096	56	127
364.7498639455782	365.0285260770975	46	127
365.0401360544218	365.45807256235827	56	127
365.4697052154195	365.7251247165533	53	127
365.4697052154195	365.6902947845805	68	127
365.73673469387757	366.2243537414966	56	127
366.23596371882087	366.5029931972789	68	127
366.23596371882087	366.5378231292517	47	127
366.549433106576	366.96739229024945	56	127
366.9790022675737	367.24603174603175	53	127
366.9790022675737	367.21120181405894	68	127
367.257641723356	367.5827210884354	56	127
367.59433106575966	368.6740589569161	80	127
367.59433106575966	368.0355102040816	46	127
368.05873015873016	368.33736961451245	56	127
368.3489795918367	368.66244897959183	53	127
368.6740589569161	368.9875283446712	77	127
368.6740589569161	368.9875283446712	56	127
368.9991383219955	369.27777777777777	58	127
368.9991383219955	369.56802721088434	74	127
369.3009977324263	369.60285714285715	68	127
369.6144671201814	369.91632653061225	65	127
369.6144671201814	370.2414058956916	74	127
369.9279365079365	370.26460317460317	68	127
370.2762358276644	370.36909297052154	77	127
370.2762358276644	370.60131519274375	59	127
370.36909297052154	370.74063492063493	75	127
370.612925170068	370.8915646258503	68	127
370.76385487528347	370.8915646258503	74	127
370.8915646258503	371.2630839002268	65	127
370.8915646258503	371.4024036281179	75	127
371.27469387755104	371.5765532879819	68	127
371.42562358276643	371.5765532879819	77	127
371.5765532879819	374.03786848072565	65	127
371.5765532879819	372.99297052154196	74	127
371.5765532879819	382.2809523809524	58	127
374.03786848072565	374.5719274376417	67	127
374.62997732426305	376.45274376417234	68	127
376.4991609977324	376.67333333333335	67	127
376.67333333333335	377.1261224489796	68	127
377.1493424036281	377.3234693877551	66	127
377.3234693877551	378.0084807256236	67	127
378.0432879818594	378.6470068027211	64	127
378.6470068027211	380.6903854875283	65	127
380.7019954648526	380.85292517006803	64	127
380.85292517006803	381.38698412698415	65	127
381.3985941043084	381.57274376417234	62	127
381.57274376417234	382.2809523809524	63	127
382.3157823129252	382.5944217687075	70	127
382.3157823129252	383.0472108843537	58	127
382.3157823129252	383.0472108843537	46	127
383.10526077097506	383.51160997732427	70	127
383.10526077097506	384.4984580498866	56	127
383.10526077097506	384.4984580498866	46	127
383.8715192743764	384.1849886621315	70	127
384.92802721088435	385.0325170068027	70	127
384.92802721088435	385.42725623582766	39	127
385.0325170068027	386.83206349206347	79	127
385.4504761904762	385.77555555555557	43	127
385.8103854875283	386.11224489795916	46	127
386.1238548752834	386.47215419501134	51	127
386.50698412698415	386.83206349206347	39	127
386.84367346938774	386.9597732426304	80	127
386.84367346938774	387.1803628117914	43	127
386.9597732426304	387.19197278911565	79	127
387.19197278911565	387.56349206349205	46	127
387.19197278911565	387.56349206349205	77	127
387.5751020408163	387.8653514739229	75	127
387.5751020408163	387.8653514739229	51	127
387.9466213151928	388.3065306122449	41	127
387.9466213151928	388.10916099773243	74	127
388.31814058956917	388.37619047619046	75	127
388.31814058956917	388.64321995464854	46	127
388.37619047619046	388.4458503401361	74	127
388.4458503401361	388.5735600907029	72	127
388.5735600907029	388.7128798185941	74	127
388.7128798185941	389.07278911564623	50	127
388.7128798185941	389.07278911564623	75	127
389.0843990929705	389.4094784580499	77	127
389.0843990929705	389.4094784580499	53	127
389.42108843537414	389.54879818594105	77	127
389.42108843537414	389.92031746031745	43	127
389.54879818594105	390.6285260770975	70	127
389.9319274376417	390.3382766439909	46	127
390.36149659863946	390.68657596371884	51	127
390.6981859410431	390.86072562358277	74	127
390.6981859410431	391.0348752834467	55	127
390.86072562358277	391.04648526077096	72	127
391.04648526077096	391.3831746031746	43	127
391.04648526077096	391.3831746031746	70	127
391.3831746031746	391.77791383219954	75	127
391.3831746031746	391.77791383219954	46	127
391.7895238095238	392.2074829931973	74	127
391.7895238095238	392.2074829931973	51	127
392.21909297052156	392.4861224489796	75	127
392.21909297052156	392.4861224489796	55	127
392.49773242630386	392.857641723356	74	127
392.49773242630386	392.857641723356	44	127
392.8808616780045	393.21755102040817	48	127
392.8808616780045	393.21755102040817	72	127
393.22916099773244	393.5310204081633	70	127
393.22916099773244	393.5310204081633	53	127
393.54263038548754	393.8677097505669	68	127
393.54263038548754	393.8677097505669	56	127
393.87931972789113	395.95750566893423	67	127
393.87931972789113	394.4714285714286	46	127
394.48303854875286	394.85455782312926	51	127
394.8777777777778	395.35378684807256	55	127
395.36539682539683	395.6440362811791	58	127
395.6556462585034	396.12004535147395	46	127
395.95750566893423	396.13165532879816	65	127
396.13165532879816	396.4219047619048	53	127
396.13165532879816	396.2941950113379	68	127
396.2941950113379	396.433514739229	67	127
396.433514739229	396.7469841269841	56	127
396.433514739229	396.58444444444444	70	127
396.58444444444444	396.7818140589569	68	127
396.7818140589569	397.1881632653061	58	127
396.7818140589569	396.9791836734694	72	127
396.9791836734694	397.1997732426304	70	127
397.1997732426304	397.4668027210884	46	127
397.1997732426304	397.4668027210884	74	127
397.4784126984127	397.5945124716553	72	127
397.4784126984127	397.8267120181406	50	127
397.83832199546487	398.16340136054424	70	127
397.83832199546487	398.33755102040817	53	127
398.34916099773244	398.5465306122449	68	127
398.34916099773244	398.75551020408165	58	127
398.7903401360544	399.09219954648523	39	127
398.7903401360544	399.4869387755102	65	127
399.1038095238095	399.5101587301587	44	127
399.521768707483	400.28802721088437	66	127
399.521768707483	399.93972789115645	46	127
399.9513378684807	400.39251700680273	50	127
400.404126984127	400.70598639455784	39	127
400.404126984127	401.0542857142857	67	127
400.7175963718821	401.0891156462585	43	127
401.1007256235828	401.4141950113379	46	127
401.1007256235828	401.76249433106574	58	127
401.42580498866215	401.79732426303855	51	127
401.8205442176871	402.1804535147392	39	127
401.8205442176871	402.5403628117914	63	127
402.215283446712	402.56358276643994	43	127
402.57519274376415	402.9118820861678	46	127
402.57519274376415	403.3530612244898	67	127
402.92349206349206	403.3995011337868	51	127
403.4111111111111	404.4560090702948	67	127
403.4111111111111	403.80585034013603	34	127
403.8174603174603	404.2586394557823	46	127
404.2702494331066	404.6301587301587	32	127
404.4560090702948	404.641768707483	70	127
404.641768707483	404.8855782312925	68	127
404.641768707483	405.02489795918365	44	127
404.8855782312925	405.0365079365079	65	127
405.0365079365079	405.65183673469386	63	127
405.0365079365079	405.38480725623583	31	127
405.3964172335601	405.6750566893424	34	127
405.68666666666667	406.0349659863946	63	127
405.68666666666667	406.0349659863946	39	127
406.0465759637188	406.47614512471654	43	127
406.0465759637188	406.23233560090705	65	127
406.23233560090705	406.3019954648526	63	127
406.3019954648526	406.38326530612244	62	127
406.38326530612244	406.4877551020408	63	127
406.4877551020408	406.847664399093	31	127
406.4877551020408	407.114693877551	67	127
406.85927437641726	407.13791383219956	34	127
407.1495238095238	407.5790929705215	39	127
407.1495238095238	407.96222222222224	70	127
407.5907029478458	408.00866213151926	43	127
408.0202721088435	408.50789115646256	38	127
408.0202721088435	409.0767800453515	70	127
408.5311111111111	408.91424036281177	41	127
408.92585034013604	409.2857596371882	46	127
409.0767800453515	409.30897959183676	71	127
409.30897959183676	409.5295691609977	72	127
409.30897959183676	409.6921088435374	50	127
409.5295691609977	409.7037188208617	68	127
409.7037188208617	410.41192743764174	70	127
409.7037188208617	410.0752380952381	38	127
410.08684807256236	410.4351473922903	41	127
410.4467573696145	411.5497052154195	68	127
410.4467573696145	410.7370068027211	46	127
410.7486167800453	411.1201360544218	50	127
411.13174603174605	411.5497052154195	39	127
411.572925170068	412.01410430839	67	127
411.572925170068	412.01410430839	43	127
412.0257142857143	412.36240362811793	68	127
412.0257142857143	412.36240362811793	46	127
412.3740136054422	412.8268027210884	70	127
412.3740136054422	412.8268027210884	51	127
412.8268027210884	412.98934240362814	71	127
412.8268027210884	413.22154195011336	32	127
412.98934240362814	413.2447619047619	72	127
413.2447619047619	413.6046712018141	36	127
413.2447619047619	413.39569160997735	74	127
413.39569160997735	413.6162811791383	72	127
413.6162811791383	413.7556009070295	70	127
413.6162811791383	413.8833106575964	41	127
413.7556009070295	413.89492063492065	68	127
413.89492063492065	414.0574603174603	67	127
413.89492063492065	414.2432199546485	44	127
414.0574603174603	414.2548299319728	65	127
414.2548299319728	414.661179138322	34	127
414.2548299319728	414.95142857142855	63	127
414.67278911564625	414.9746485260771	39	127
414.99786848072563	415.67124716553286	64	127
414.99786848072563	415.39260770975056	43	127
415.40421768707483	415.6944671201814	46	127
415.70607709750567	416.0543764172336	65	127
415.70607709750567	416.0543764172336	34	127
416.0659863945578	416.1472562358277	67	127
416.0659863945578	416.3794557823129	38	127
416.1472562358277	416.2285260770975	65	127
416.2285260770975	416.3330158730159	64	127
416.3330158730159	416.3910657596372	65	127
416.3910657596372	416.7974149659864	41	127
416.3910657596372	417.0992743764172	70	127
416.8206349206349	417.12249433106575	46	127
417.13410430839	418.9104308390023	68	127
417.13410430839	417.66816326530613	35	127
417.6797732426304	418.016462585034	38	127
418.02807256235826	418.5853514739229	41	127
418.5969614512472	418.898820861678	47	127
418.9104308390023	419.6766893424036	67	127
418.9104308390023	419.6766893424036	48	127
419.7115192743764	419.781179138322	77	127
419.781179138322	419.8740589569161	75	127
419.8740589569161	419.97854875283446	77	127
419.97854875283446	420.0946485260771	75	127
420.0946485260771	420.1875283446712	77	127
420.1875283446712	420.30362811791383	75	127
420.30362811791383	420.3732879818594	74	127
420.3732879818594	420.442947845805	75	127
420.442947845805	421.1395464852608	80	127
420.442947845805	421.1395464852608	75	127
420.442947845805	421.1395464852608	72	127
421.17437641723353	421.9986848072562	79	127
421.17437641723353	421.9986848072562	74	127
421.17437641723353	421.9986848072562	70	127
422.033514739229	424.018820861678	68	127
422.033514739229	423.0784126984127	79	127
422.033514739229	424.018820861678	72	127
423.0784126984127	423.2641723356009	83	127
423.2641723356009	423.3918820861678	84	127
423.3918820861678	423.53120181405893	80	127
423.53120181405893	423.7053514739229	77	127
423.7053514739229	423.87950113378685	81	127
423.87950113378685	424.00721088435375	82	127
424.00721088435375	424.1697505668934	79	127
424.1697505668934	424.4251700680272	67	127
424.1697505668934	424.3090702947846	75	127
424.1697505668934	424.4251700680272	70	127
424.3090702947846	424.4948299319728	79	127
424.4948299319728	424.65736961451245	80	127
424.65736961451245	424.7966893424036	77	127
424.7966893424036	424.91278911564626	74	127
424.7966893424036	425.00566893424036	68	127
424.7966893424036	425.00566893424036	65	127
424.91278911564626	425.05210884353744	78	127
425.05210884353744	425.2146485260771	79	127
425.2146485260771	425.36557823129255	75	127
425.36557823129255	425.51650793650794	72	127
425.36557823129255	425.6674376417234	67	127
425.36557823129255	425.6674376417234	63	127
425.51650793650794	425.73709750566894	76	127
425.73709750566894	425.8764172335601	77	127
425.8764172335601	426.0621768707483	74	127
426.0621768707483	426.2595464852608	70	127
426.0621768707483	430.41591836734693	58	127
426.0621768707483	428.50027210884355	53	127
426.2595464852608	426.42208616780044	79	127
426.42208616780044	426.5730158730159	77	127
426.5730158730159	426.7239455782313	75	127
426.7239455782313	426.8748752834467	74	127
426.8748752834467	427.0258049886621	73	127
427.0258049886621	427.2463945578231	72	127
427.2463945578231	427.37410430839003	71	127
427.37410430839003	427.49020408163267	70	127
427.6991836734694	427.81528344671204	69	127
428.0126530612245	429.49873015873015	68	127
429.27814058956915	430.6132879818594	55	127
429.5103401360544	429.6148299319728	67	127
429.7657596371882	429.85863945578234	68	127
430.0095691609977	430.09083900226756	69	127
430.241768707483	430.3810884353741	70	127
430.4855782312925	430.59006802721086	71	127
430.72938775510204	432.07614512471656	44	127
430.72938775510204	430.9615873015873	71	127
430.72938775510204	432.07614512471656	53	127
430.72938775510204	433.3184126984127	51	127
430.9615873015873	431.124126984127	72	127
431.124126984127	431.3098866213152	71	127
431.3098866213152	431.4608163265306	72	127
431.4608163265306	431.63496598639455	71	127
431.63496598639455	431.832335600907	72	127
431.832335600907	432.006485260771	74	127
432.006485260771	432.21546485260774	75	127
432.21546485260774	434.8857596371882	46	127
432.21546485260774	432.38961451247167	66	127
432.21546485260774	433.49256235827664	55	127
432.38961451247167	432.48249433106577	67	127
432.48249433106577	432.62181405895694	66	127
432.62181405895694	432.7959637188209	67	127
432.7959637188209	432.935283446712	66	127
432.935283446712	433.07460317460317	67	127
433.07460317460317	433.35324263038547	68	127
433.35324263038547	433.597052154195	70	127
433.597052154195	433.80603174603175	58	127
433.597052154195	435.0018594104308	56	127
433.597052154195	435.0018594104308	53	127
433.9453514739229	434.02662131519276	60	127
434.02662131519276	434.11950113378686	58	127
434.11950113378686	434.2239909297052	57	127
434.2239909297052	434.34009070294786	58	127
434.34009070294786	434.7	60	127
434.71160997732426	435.12956916099773	62	127
435.141179138322	436.88267573696146	62	127
435.141179138322	436.88267573696146	56	127
435.141179138322	436.88267573696146	65	127
435.141179138322	436.88267573696146	47	127
435.141179138322	436.88267573696146	35	127
436.88267573696146	437.66054421768706	36	127
436.88267573696146	437.66054421768706	63	127
436.88267573696146	437.66054421768706	55	127
436.88267573696146	437.66054421768706	48	127
437.69537414965987	437.76503401360543	77	127
437.69537414965987	437.76503401360543	62	127
437.76503401360543	437.83469387755105	75	127
437.76503401360543	437.83469387755105	60	127
437.83469387755105	437.89274376417234	77	127
437.83469387755105	437.89274376417234	62	127
437.89274376417234	438.008843537415	60	127
437.89274376417234	438.008843537415	75	127
438.008843537415	438.0901133786848	77	127
438.008843537415	438.0901133786848	62	127
438.0901133786848	438.2178231292517	75	127
438.0901133786848	438.2178231292517	60	127
438.2178231292517	438.2874829931973	74	127
438.2178231292517	438.2874829931973	58	127
438.2874829931973	438.450022675737	75	127
438.2874829931973	438.450022675737	60	127
438.450022675737	439.07696145124714	84	127
438.450022675737	439.07696145124714	68	127
439.11179138321995	439.48331065759635	82	127
439.11179138321995	439.48331065759635	67	127
439.9012698412698	441.3060770975057	82	127
439.9012698412698	441.3060770975057	67	127
441.3060770975057	441.78208616780046	65	127
441.3060770975057	442.1187755102041	80	127
441.7936961451247	441.9446258503401	70	127
441.9446258503401	442.1768253968254	67	127
442.1768253968254	442.4322448979592	63	127
442.1768253968254	442.3974149659864	79	127
442.4438548752834	442.5831746031746	68	127
442.5831746031746	442.7224943310658	65	127
442.7224943310658	443.0359637188209	77	127
442.7224943310658	443.07079365079363	62	127
443.0824036281179	443.23333333333335	67	127
443.23333333333335	443.4074829931973	63	127
443.4074829931973	443.6861224489796	75	127
443.4074829931973	443.7557823129252	60	127
443.76739229024946	443.96476190476193	65	127
443.96476190476193	444.10408163265305	62	127
444.10408163265305	445.74108843537414	58	127
444.10408163265305	446.1242176870748	74	127
445.74108843537414	445.9500680272109	62	127
445.9500680272109	446.1126077097506	63	127
446.1126077097506	446.263537414966	60	127
446.263537414966	446.5653968253968	72	127
446.263537414966	446.4376870748299	56	127
446.4376870748299	446.6698866213152	61	127
446.6698866213152	446.7975963718821	62	127
446.7975963718821	446.925306122449	58	127
446.925306122449	447.0646258503401	55	127
446.925306122449	447.21555555555557	70	127
447.0646258503401	447.2968253968254	59	127
447.2968253968254	447.44775510204084	60	127
447.44775510204084	447.58707482993196	56	127
447.58707482993196	447.7496145124717	53	127
447.58707482993196	447.90054421768707	68	127
447.7496145124717	447.9818140589569	57	127
447.9818140589569	448.1211337868481	58	127
448.1211337868481	448.26045351473925	55	127
448.26045351473925	449.00349206349205	67	127
448.26045351473925	449.00349206349205	51	127
449.07315192743766	449.36340136054423	63	127
449.07315192743766	449.36340136054423	60	127
449.07315192743766	449.36340136054423	53	127
449.07315192743766	449.36340136054423	44	127
449.839410430839	450.4315192743764	63	127
449.839410430839	450.4315192743764	58	127
449.839410430839	450.4315192743764	55	127
449.839410430839	450.4315192743764	46	127
451.383537414966	452.8231746031746	56	127
451.383537414966	452.8231746031746	34	127
451.383537414966	452.8231746031746	62	127
451.383537414966	452.8231746031746	58	127
453.0205442176871	453.7635827664399	63	127
453.0205442176871	453.7635827664399	55	127
453.0205442176871	453.43850340136055	51	127
453.4617233560091	453.7751927437642	55	127
453.78680272108846	454.1351020408163	58	127
454.1467120181406	454.43696145124716	55	127
454.4485714285714	454.79687074829934	51	127
454.8084807256236	455.1916099773243	55	127
455.20321995464855	455.9694784580499	63	127
455.20321995464855	455.51668934240365	58	127
455.52829931972786	455.9578684807256	55	127
455.9694784580499	456.549977324263	73	127
455.9694784580499	456.3061678004535	51	127
456.3177777777778	456.57319727891155	55	127
456.5964172335601	456.8634467120181	73	127
456.5964172335601	456.8982766439909	58	127
456.9098866213152	457.2814058956916	55	127
457.30462585034013	457.5948752834467	51	127
457.60648526077097	458.1405442176871	55	127
458.1637641723356	458.488843537415	58	127
458.5004535147392	458.77909297052156	55	127
458.80231292517004	458.87197278911566	75	127
458.80231292517004	459.1273922902494	51	127
458.87197278911566	458.9532426303855	73	127
458.9532426303855	459.0693424036281	72	127
459.0693424036281	459.1390022675737	73	127
459.1390022675737	459.3015419501134	75	127
459.1390022675737	459.4408616780045	55	127
459.3015419501134	459.4524716553288	77	127
459.4524716553288	459.7195011337868	75	127
459.4524716553288	459.7195011337868	58	127
459.7311111111111	459.9865306122449	73	127
459.7311111111111	459.9865306122449	55	127
459.9981405895692	460.28839002267574	73	127
459.9981405895692	460.2767800453515	51	127
460.28839002267574	460.7760090702948	55	127
460.28839002267574	460.7760090702948	72	127
460.78761904761905	461.182358276644	72	127
460.78761904761905	461.1707482993197	61	127
461.182358276644	461.54226757369617	55	127
461.182358276644	461.54226757369617	71	127
461.55387755102043	462.8077551020408	71	127
461.55387755102043	461.91378684807256	51	127
461.92539682539683	462.2040362811791	56	127
462.2156462585034	462.4826757369614	60	127
462.4942857142857	462.79614512471653	56	127
462.8077551020408	463.4811337868481	72	127
462.8077551020408	463.1908843537415	51	127
463.20249433106574	463.5043537414966	56	127
463.51596371882084	463.86426303854876	60	127
463.875873015873	464.21256235827667	56	127
464.2473922902494	464.58408163265307	51	127
464.59569160997734	464.9904308390023	56	127
465.00204081632654	465.2922902494331	60	127
465.31551020408165	465.7450793650794	56	127
465.7682993197279	466.1398185941043	51	127
465.7682993197279	467.40530612244896	62	127
466.1514285714286	466.44167800453516	53	127
466.4765079365079	466.95251700680274	56	127
466.9757369614513	467.2427664399093	53	127
467.2543764172336	467.53301587301587	51	127
467.40530612244896	467.5562358276644	63	127
467.5562358276644	467.7071655328798	65	127
467.5562358276644	467.8348752834467	53	127
467.7071655328798	467.846485260771	67	127
467.846485260771	467.9974149659864	68	127
467.846485260771	468.2180045351474	56	127
467.9974149659864	468.22961451247164	70	127
468.22961451247164	468.5314739229025	53	127
468.22961451247164	468.35732426303855	72	127
468.35732426303855	468.54308390022675	73	127
468.54308390022675	468.89138321995466	51	127
468.54308390022675	468.7404535147392	74	127
468.7404535147392	468.90299319727893	75	127
468.90299319727893	469.20485260770977	53	127
468.90299319727893	469.0539229024943	77	127
469.0539229024943	469.21646258503404	79	127
469.21646258503404	469.57637188208616	56	127
469.21646258503404	469.3673922902494	80	127
469.3673922902494	469.611201814059	82	127
469.611201814059	469.90145124716554	53	127
469.611201814059	469.77374149659863	84	127
469.77374149659863	469.93628117913835	86	127
469.93628117913835	470.2265306122449	51	127
469.93628117913835	471.52684807256236	86	127
470.2381405895692	470.65609977324266	53	127
470.66770975056687	471.16693877551023	58	127
471.17854875283444	471.4804081632653	53	127
471.52684807256236	471.8751473922903	51	127
471.52684807256236	472.1886167800454	87	127
471.8751473922903	472.21183673469386	55	127
472.2350566893424	472.57174603174604	63	127
472.2350566893424	472.57174603174604	58	127
472.5833560090703	472.90843537414963	55	127
472.5833560090703	472.6530158730159	65	127
472.6530158730159	472.72267573696143	63	127
472.72267573696143	472.80394557823126	62	127
472.80394557823126	472.94326530612244	63	127
472.94326530612244	473.5818140589569	73	127
472.94326530612244	473.3263945578231	51	127
473.3380045351474	473.60503401360546	55	127
473.62825396825394	474.10426303854877	58	127
473.62825396825394	474.06943310657596	73	127
474.11587301587304	474.44095238095235	55	127
474.4525623582766	474.78925170068027	51	127
474.4525623582766	476.0431292517007	73	127
474.80086167800454	475.14916099773245	55	127
475.16077097505666	475.439410430839	58	127
475.47424036281177	475.7644897959184	55	127
475.7760997732426	476.0431292517007	51	127
476.1243990929705	476.27532879818597	75	127
476.1243990929705	476.4146485260771	55	127
476.27532879818597	476.42625850340136	77	127
476.42625850340136	476.7281179138322	58	127
476.42625850340136	476.7281179138322	75	127
476.73972789115646	477.06480725623584	55	127
476.73972789115646	477.06480725623584	73	127
477.0764172335601	477.3550566893424	73	127
477.0764172335601	477.34344671201814	51	127
477.3550566893424	477.6801360544218	55	127
477.3550566893424	477.6801360544218	72	127
477.69174603174605	478.0400453514739	72	127
477.69174603174605	478.02843537414964	61	127
478.0400453514739	478.43478458049884	71	127
478.0400453514739	478.43478458049884	55	127
478.5392743764172	478.9804535147392	51	127
478.5392743764172	479.9324716553288	71	127
478.9920634920635	479.28231292517006	56	127
479.29392290249433	479.5841723356009	60	127
479.59578231292517	479.92086167800454	56	127
479.9324716553288	480.6174603174603	72	127
479.9324716553288	480.3039909297052	51	127
480.3156009070295	480.64068027210885	56	127
480.6639002267574	481.10507936507935	60	127
481.1166893424036	481.4301587301587	56	127
481.441768707483	481.74362811791383	51	127
481.7552380952381	482.1267573696145	56	127
482.13836734693876	482.45183673469387	60	127
482.4866666666667	482.82335600907027	56	127
482.83496598639454	483.18326530612245	51	127
482.83496598639454	484.4255328798186	62	127
483.1948752834467	483.6708843537415	53	127
483.68249433106575	483.9727437641723	56	127
483.9843537414966	484.27460317460316	53	127
484.2862131519274	484.68095238095236	51	127
484.4255328798186	484.69256235827663	63	127
484.69256235827663	485.04086167800455	53	127
484.69256235827663	484.8667120181406	65	127
484.8667120181406	485.0524716553288	67	127
485.0524716553288	485.19179138321994	68	127
485.0524716553288	485.4239909297052	56	127
485.19179138321994	485.4356009070295	70	127
485.4356009070295	485.59814058956914	72	127
485.4356009070295	485.7490702947846	53	127
485.59814058956914	485.76068027210886	73	127
485.76068027210886	486.120589569161	51	127
485.76068027210886	485.9232199546485	74	127
485.9232199546485	486.13219954648525	75	127
486.13219954648525	486.48049886621317	53	127
486.13219954648525	486.341179138322	77	127
486.341179138322	486.49210884353744	79	127
486.49210884353744	486.66625850340137	80	127
486.49210884353744	486.7939682539683	56	127
486.66625850340137	486.80557823129254	82	127
486.80557823129254	486.94489795918366	84	127
486.80557823129254	487.08421768707484	53	127
486.94489795918366	487.0958276643991	86	127
487.0958276643991	488.1987755102041	87	127
487.0958276643991	488.1987755102041	51	127
488.43097505668936	489.22045351473923	82	127
489.22045351473923	489.3597732426304	84	127
489.3597732426304	489.52231292517007	82	127
489.52231292517007	489.7312925170068	80	127
489.7312925170068	489.870612244898	79	127
489.870612244898	490.03315192743764	77	127
490.03315192743764	490.21891156462584	75	127
490.21891156462584	491.6004988662132	68	127
490.21891156462584	490.3698412698413	74	127
490.21891156462584	491.6004988662132	65	127
490.21891156462584	491.6004988662132	58	127
490.3698412698413	490.43950113378685	75	127
490.5207709750567	490.578820861678	77	127
490.71814058956915	490.7761904761905	79	127
490.9155102040816	490.9619501133787	80	127
491.0432199546485	491.10126984126987	82	127
491.1825396825397	491.3218594104308	84	127
491.4147392290249	491.5076190476191	86	127
491.6004988662132	492.9588662131519	87	127
491.6004988662132	492.9588662131519	67	127
491.6004988662132	492.9588662131519	63	127
493.33038548752836	493.5974149659864	82	127
493.5974149659864	493.7715646258503	84	127
493.7715646258503	493.9108843537415	82	127
493.9108843537415	494.0966439909297	80	127
494.0966439909297	494.29401360544216	79	127
494.29401360544216	494.4449433106576	77	127
494.4449433106576	494.5842630385487	75	127
494.5842630385487	496.1283900226757	53	127
494.5842630385487	494.8280725623583	74	127
494.5842630385487	496.1283900226757	46	127
494.5842630385487	496.1283900226757	56	127
494.8280725623583	494.8861224489796	75	127
494.9790022675737	495.0718820861678	77	127
495.18798185941046	495.24603174603175	79	127
495.3273015873016	495.3969614512472	80	127
495.478231292517	495.6291609977324	82	127
495.7220408163265	495.78009070294786	84	127
495.8613605442177	496.0471201814059	86	127
496.1283900226757	496.9062585034014	87	127
496.1283900226757	497.0804081632653	55	127
496.1283900226757	497.0804081632653	51	127
496.9410884353741	497.1152380952381	79	127
497.1152380952381	497.1848979591837	80	127
497.1848979591837	497.25455782312923	79	127
497.25455782312923	497.3358276643991	80	127
497.3358276643991	497.4287074829932	79	127
497.4287074829932	497.5912471655329	80	127
497.5912471655329	497.6725170068027	79	127
497.6725170068027	497.7421768707483	77	127
497.7421768707483	497.8350566893424	79	127
497.8350566893424	498.7058049886621	82	127
497.8350566893424	498.8451247165533	55	127
497.8350566893424	498.8451247165533	51	127
498.74063492063493	498.87995464852605	75	127
498.87995464852605	498.96122448979594	77	127
498.96122448979594	499.04249433106577	75	127
499.04249433106577	499.1121541950113	77	127
499.1121541950113	499.19342403628116	75	127
499.19342403628116	499.2630839002268	77	127
499.2630839002268	499.3559637188209	75	127
499.3559637188209	499.495283446712	74	127
499.495283446712	499.6229931972789	75	127
499.6229931972789	500.2267120181406	79	127
499.6229931972789	500.5285714285714	55	127
499.6229931972789	500.5285714285714	51	127
500.3544217687075	500.5634013605442	70	127
500.5634013605442	500.67950113378686	72	127
500.67950113378686	500.77238095238096	70	127
500.77238095238096	500.9465306122449	72	127
500.9465306122449	501.08585034013606	70	127
501.08585034013606	501.63151927437644	72	127
501.63151927437644	502.00303854875284	70	127
502.00303854875284	502.0726984126984	68	127
502.0726984126984	502.15396825396823	70	127
502.15396825396823	504.17410430839004	51	127
502.15396825396823	504.17410430839004	55	127
502.15396825396823	504.17410430839004	75	127
