# onset,offset,note,velocity
0.3475283446712018	0.521655328798186	77	127
0.7770975056689342	0.8699773242630385	77	127
1.0441269841269842	1.1021768707482993	77	127
1.1021768707482993	1.7987755102040817	86	127
1.5085260770975057	1.8103854875283447	70	127
1.8684353741496598	1.926485260770975	75	127
1.926485260770975	2.5998639455782313	84	127
2.2747845804988662	2.6114512471655327	66	127
2.6579138321995464	2.7043537414965986	74	127
2.7043537414965986	3.377732426303855	82	127
3.041043083900227	3.726031746031746	67	127
3.424172335600907	4.062721088435374	63	127
3.424172335600907	3.5751020408163265	84	127
3.5867120181405894	3.7724716553287982	82	127
3.7956916099773244	4.097551020408163	69	127
3.7956916099773244	3.9001814058956916	81	127
3.9117913832199545	4.109160997732427	79	127
4.132380952380952	4.202040816326531	77	127
4.132380952380952	5.130839002267574	70	127
4.132380952380952	4.4458503401360545	62	127
4.318140589569161	4.364580498866213	79	127
4.364580498866213	4.411020408163266	77	127
4.411020408163266	4.46907029478458	76	127
4.46907029478458	4.840589569160998	67	127
4.46907029478458	4.643219954648526	77	127
4.654829931972789	4.7477097505668935	79	127
4.863809523809524	5.177278911564626	60	127
4.863809523809524	4.945056689342404	75	127
5.0495691609977325	5.107619047619048	77	127
5.107619047619048	5.1656689342403626	75	127
5.1656689342403626	5.2004761904761905	74	127
5.2004761904761905	5.572018140589569	65	127
5.2004761904761905	5.409478458049887	75	127
5.2004761904761905	5.572018140589569	69	127
5.421065759637188	5.490748299319728	77	127
5.606848072562358	5.989977324263038	58	127
5.606848072562358	6.024807256235827	75	127
5.606848072562358	5.989977324263038	70	127
6.024807256235827	6.384716553287982	74	127
6.419546485260771	6.593696145124716	72	127
6.6053061224489795	6.767845804988662	74	127
6.779455782312925	7.162585034013605	57	127
6.779455782312925	7.162585034013605	51	127
6.779455782312925	7.545714285714285	53	127
6.779455782312925	6.953605442176871	75	127
6.965215419501134	7.150975056689342	72	127
7.162585034013605	7.545714285714285	50	127
7.162585034013605	7.348344671201814	77	127
7.162585034013605	7.545714285714285	58	127
7.359954648526077	7.568934240362812	74	127
7.580544217687075	7.63859410430839	70	127
7.754693877551021	7.835963718820862	70	127
7.928843537414966	8.079773242630386	72	127
8.079773242630386	8.195873015873016	74	127
8.219092970521542	8.393219954648526	75	127
8.219092970521542	8.613832199546485	51	127
8.219092970521542	8.996938775510204	53	127
8.219092970521542	8.613832199546485	57	127
8.404852607709751	8.59061224489796	72	127
8.613832199546485	8.811201814058958	77	127
8.613832199546485	8.996938775510204	50	127
8.613832199546485	8.996938775510204	58	127
8.811201814058958	9.008571428571429	74	127
9.008571428571429	9.066621315192744	82	127
9.171111111111111	9.229160997732427	82	127
9.333650793650794	9.542630385487529	82	127
9.542630385487529	9.693537414965986	77	127
9.693537414965986	9.786439909297052	86	127
9.902539682539683	9.960589569160998	86	127
10.065079365079365	11.400226757369614	60	127
10.065079365079365	10.181179138321996	86	127
10.065079365079365	10.69201814058957	69	127
10.204399092970522	10.390136054421768	84	127
10.390136054421768	10.587528344671203	82	127
10.610748299319727	10.750068027210885	81	127
10.761678004535147	11.899455782312925	70	127
10.761678004535147	10.8081179138322	79	127
10.8081179138322	10.854557823129252	81	127
10.854557823129252	10.935827664399094	79	127
10.935827664399094	11.144807256235827	77	127
11.156417233560092	11.318956916099774	79	127
11.330566893424036	11.539546485260772	81	127
11.551156462585034	12.247755102040816	65	127
11.551156462585034	11.899455782312925	79	127
11.934285714285714	12.282585034013605	69	127
11.934285714285714	12.10843537414966	77	127
12.120045351473923	12.294195011337868	76	127
12.317414965986394	12.352244897959183	75	127
12.352244897959183	12.387074829931972	77	127
12.387074829931972	12.479954648526077	75	127
12.49156462585034	12.665714285714285	74	127
12.688934240362812	12.874693877551021	75	127
12.886303854875283	13.072063492063492	77	127
13.083673469387755	13.29265306122449	74	127
13.304263038548752	13.466802721088435	77	127
13.478412698412699	13.838321995464852	58	127
13.478412698412699	13.838321995464852	46	127
13.478412698412699	13.652562358276644	74	127
13.664172335600908	13.849931972789115	70	127
13.849931972789115	14.047301587301588	69	127
14.05891156462585	14.233061224489797	75	127
14.244671201814059	14.558140589569161	42	127
14.244671201814059	14.407210884353741	72	127
14.244671201814059	14.558140589569161	54	127
14.418820861678004	14.569750566893424	69	127
14.581360544217688	14.755510204081633	67	127
14.77873015873016	14.952879818594104	74	127
14.964489795918368	15.31278911564626	55	127
14.964489795918368	15.31278911564626	43	127
14.964489795918368	15.12702947845805	70	127
15.138639455782313	15.336009070294784	67	127
15.347619047619048	15.97455782312925	51	127
15.347619047619048	15.97455782312925	39	127
15.347619047619048	15.440498866213153	58	127
15.452108843537415	15.649478458049886	67	127
15.66108843537415	15.835238095238095	60	127
15.835238095238095	16.00938775510204	69	127
16.02097505668934	16.357687074829933	50	127
16.02097505668934	16.357687074829933	38	127
16.02097505668934	16.19514739229025	70	127
16.20673469387755	16.380907029478458	62	127
16.39251700680272	16.57827664399093	70	127
16.39251700680272	16.72920634920635	55	127
16.39251700680272	16.72920634920635	43	127
16.57827664399093	16.740816326530613	62	127
16.764036281179138	17.11233560090703	48	127
16.764036281179138	17.11233560090703	36	127
16.764036281179138	16.938185941043084	70	127
16.938185941043084	17.135555555555555	60	127
17.15875283446712	17.321315192743764	69	127
17.15875283446712	17.49546485260771	53	127
17.15875283446712	17.49546485260771	41	127
17.332925170068027	17.507074829931973	60	127
17.518684807256236	17.94825396825397	72	127
17.518684807256236	18.284943310657596	34	127
17.518684807256236	17.94825396825397	69	127
17.518684807256236	18.284943310657596	46	127
17.94825396825397	18.319773242630387	70	127
18.72612244897959	18.99315192743764	39	127
18.72612244897959	18.99315192743764	69	127
18.72612244897959	18.99315192743764	60	127
18.72612244897959	18.99315192743764	51	127
18.72612244897959	19.36467120181406	65	127
18.99315192743764	19.36467120181406	38	127
18.99315192743764	19.36467120181406	70	127
18.99315192743764	19.36467120181406	62	127
18.99315192743764	19.36467120181406	50	127
20.154149659863947	20.490839002267574	69	127
20.154149659863947	20.89718820861678	65	127
20.154149659863947	20.490839002267574	39	127
20.154149659863947	20.490839002267574	51	127
20.154149659863947	20.490839002267574	60	127
20.490839002267574	20.89718820861678	50	127
20.490839002267574	20.89718820861678	70	127
20.490839002267574	20.89718820861678	38	127
20.490839002267574	20.89718820861678	62	127
22.011746031746032	23.42816326530612	53	127
22.011746031746032	23.42816326530612	41	127
22.243945578231294	22.441315192743765	58	127
22.452925170068028	22.6502947845805	62	127
22.66190476190476	22.836054421768708	65	127
22.84766439909297	23.04503401360544	70	127
23.056621315192743	23.184331065759636	69	127
23.195963718820863	23.323673469387757	72	127
23.34689342403628	23.544263038548753	75	127
23.555873015873015	23.88095238095238	74	127
23.555873015873015	23.88095238095238	58	127
23.555873015873015	23.88095238095238	46	127
25.1	26.528027210884353	41	127
25.1	26.528027210884353	53	127
25.297369614512473	25.471519274376416	70	127
25.48312925170068	25.610839002267575	65	127
25.622448979591837	25.808208616780046	62	127
25.83142857142857	26.040408163265305	58	127
26.05201814058957	26.23777777777778	62	127
26.249387755102042	26.43514739229025	60	127
26.446757369614513	26.644126984126984	57	127
26.655736961451247	27.05047619047619	46	127
26.655736961451247	27.05047619047619	58	127
26.655736961451247	27.05047619047619	34	127
27.073696145124718	27.456825396825398	58	127
27.46843537414966	27.642585034013607	74	127
27.65419501133787	27.805124716553287	86	127
27.81673469387755	27.990884353741496	84	127
28.014104308390024	28.19986394557823	82	127
28.211473922902496	28.38562358276644	81	127
28.211473922902496	29.546621315192745	70	127
28.211473922902496	29.546621315192745	72	127
28.211473922902496	29.546621315192745	76	127
28.397233560090704	28.53655328798186	79	127
28.548163265306123	28.6178231292517	79	127
28.68748299319728	28.76875283446712	79	127
28.88485260770975	29.07061224489796	79	127
29.08222222222222	29.140272108843536	81	127
29.140272108843536	29.175102040816327	79	127
29.175102040816327	29.209931972789114	78	127
29.209931972789114	29.256371882086167	79	127
29.256371882086167	29.45374149659864	81	127
29.4653514739229	29.65111111111111	82	127
29.65111111111111	31.02108843537415	69	127
29.65111111111111	29.813650793650794	83	127
29.65111111111111	31.02108843537415	77	127
29.65111111111111	31.02108843537415	72	127
29.825260770975056	29.976190476190474	84	127
29.976190476190474	29.999410430839003	84	127
30.127120181405896	30.22	84	127
30.359319727891158	30.55668934240363	84	127
30.568299319727892	30.649569160997732	86	127
30.649569160997732	30.730839002267572	84	127
30.730839002267572	30.928208616780044	82	127
30.93981859410431	31.032698412698412	81	127
31.148798185941043	31.346167800453514	81	127
31.346167800453514	31.52031746031746	79	127
31.531927437641723	31.70607709750567	77	127
31.531927437641723	31.70607709750567	70	127
31.531927437641723	31.70607709750567	74	127
31.740907029478457	31.798956916099772	79	127
31.89183673469388	32.15884353741497	78	127
32.15884353741497	32.30979591836735	79	127
32.32140589569161	32.46072562358277	74	127
32.32140589569161	32.46072562358277	71	127
32.32140589569161	32.46072562358277	77	127
32.50716553287982	32.60004535147392	79	127
32.69292517006803	33.06444444444445	72	127
32.69292517006803	33.06444444444445	76	127
32.69292517006803	33.099274376417235	79	127
33.099274376417235	34.07451247165533	77	127
33.099274376417235	33.482403628117915	84	127
33.099274376417235	34.07451247165533	69	127
33.528843537414964	33.63333333333333	86	127
33.644943310657595	33.7378231292517	84	127
33.749433106575964	33.93517006802721	82	127
33.94680272108844	34.0512925170068	81	127
34.190589569161	34.38798185941043	81	127
34.38798185941043	34.562108843537416	79	127
34.585351473922906	34.72467120181406	77	127
34.585351473922906	34.72467120181406	70	127
34.585351473922906	34.72467120181406	74	127
34.75950113378685	34.8059410430839	79	127
34.92204081632653	35.131020408163266	78	127
35.131020408163266	35.29356009070295	79	127
35.30517006802721	35.47931972789116	77	127
35.30517006802721	35.47931972789116	74	127
35.30517006802721	35.47931972789116	71	127
35.514149659863946	35.60702947845805	79	127
35.72312925170068	36.106258503401364	72	127
35.72312925170068	36.106258503401364	76	127
35.72312925170068	35.90888888888889	79	127
35.92049886621315	35.96691609977324	81	127
35.96691609977324	36.02498866213152	79	127
36.02498866213152	36.083015873015874	78	127
36.083015873015874	36.117868480725626	79	127
36.117868480725626	36.61709750566894	84	127
36.117868480725626	37.11632653061225	69	127
36.117868480725626	37.11632653061225	77	127
36.67514739229025	36.75641723356009	83	127
36.768027210884355	36.82607709750567	84	127
36.82607709750567	36.90734693877551	86	127
36.90734693877551	37.00022675736962	84	127
37.01183673469388	37.10469387755102	82	127
37.11632653061225	37.22081632653061	81	127
37.22081632653061	37.40657596371882	81	127
37.40657596371882	37.59233560090703	79	127
37.60394557823129	37.74324263038549	77	127
37.60394557823129	37.74324263038549	70	127
37.60394557823129	37.74324263038549	74	127
37.76648526077098	37.87095238095238	79	127
37.98705215419501	38.19605442176871	78	127
38.19605442176871	38.39342403628118	79	127
38.405034013605444	38.5443537414966	77	127
38.405034013605444	38.5443537414966	74	127
38.405034013605444	38.5443537414966	71	127
38.57918367346939	38.672063492063494	79	127
38.788163265306125	39.15968253968254	76	127
38.788163265306125	39.15968253968254	72	127
38.788163265306125	38.89265306122449	79	127
38.904263038548756	39.04358276643991	76	127
39.055192743764174	39.18290249433107	84	127
39.19451247165533	39.32222222222222	79	127
39.333832199546485	39.39185941043084	88	127
39.40349206349207	39.51956916099773	84	127
39.51956916099773	39.65891156462585	89	127
39.670521541950116	39.78662131519275	88	127
39.79823129251701	39.89108843537415	86	127
39.89108843537415	40.30907029478458	77	127
39.89108843537415	40.30907029478458	74	127
39.89108843537415	40.30907029478458	67	127
39.89108843537415	40.03040816326531	84	127
40.042040816326534	40.158140589569165	86	127
40.16975056689343	40.30907029478458	83	127
40.30907029478458	40.65734693877551	72	127
40.30907029478458	40.65734693877551	76	127
40.30907029478458	40.425170068027214	84	127
40.436780045351476	40.52963718820862	88	127
40.541269841269845	40.66897959183674	79	127
40.680589569161	40.73863945578231	84	127
40.73863945578231	40.87795918367347	76	127
40.88956916099773	40.98244897959184	79	127
40.9940589569161	41.133378684807255	77	127
41.133378684807255	41.22625850340136	76	127
41.23786848072562	41.34235827664399	74	127
41.353968253968254	41.7487074829932	65	127
41.353968253968254	41.7487074829932	62	127
41.353968253968254	41.7487074829932	55	127
41.353968253968254	41.49328798185941	72	127
41.49328798185941	41.59777777777778	74	127
41.60938775510204	41.737097505668935	71	127
41.7487074829932	42.0621768707483	64	127
41.7487074829932	41.853197278911566	72	127
41.7487074829932	42.0621768707483	60	127
41.853197278911566	41.98090702947846	67	127
41.99251700680272	42.08539682539683	76	127
42.09700680272109	42.20149659863946	72	127
42.21310657596372	42.340816326530614	79	127
42.340816326530614	42.44530612244898	76	127
42.456916099773245	42.58462585034014	77	127
42.5962358276644	42.71233560090703	76	127
42.71233560090703	42.840045351473925	74	127
42.85165532879819	43.199931972789116	55	127
42.85165532879819	42.94451247165533	72	127
42.85165532879819	43.199931972789116	65	127
42.85165532879819	43.199931972789116	62	127
42.94451247165533	43.07222222222222	74	127
43.07222222222222	43.188321995464854	71	127
43.199931972789116	43.54825396825397	60	127
43.199931972789116	43.30444444444444	72	127
43.199931972789116	43.54825396825397	64	127
43.31603174603175	43.44374149659864	76	127
43.4553514739229	43.571451247165534	67	127
43.583061224489796	43.62952380952381	72	127
43.64113378684807	43.757233560090704	64	127
43.768843537414966	43.90816326530612	67	127
43.90816326530612	44.035873015873015	65	127
44.04748299319728	44.140362811791384	64	127
44.151972789115646	44.2912925170068	62	127
44.2912925170068	44.66281179138322	53	127
44.2912925170068	44.66281179138322	43	127
44.2912925170068	44.39578231292517	60	127
44.2912925170068	44.66281179138322	50	127
44.40739229024943	44.523492063492064	62	127
44.53510204081633	44.65120181405896	59	127
44.66281179138322	45.022721088435375	52	127
44.66281179138322	44.76730158730159	60	127
44.66281179138322	45.022721088435375	48	127
44.76730158730159	44.87179138321996	62	127
44.88340136054422	44.9646485260771	60	127
44.9646485260771	45.022721088435375	59	127
45.022721088435375	45.09235827664399	60	127
45.09235827664399	45.185260770975056	64	127
45.19687074829932	45.289750566893424	62	127
45.30136054421769	45.405850340136055	65	127
45.405850340136055	45.4871201814059	64	127
45.4871201814059	45.568390022675736	67	127
45.58	45.66126984126984	65	127
45.672879818594105	45.76575963718821	69	127
45.76575963718821	45.87024943310658	67	127
45.87024943310658	45.92829931972789	70	127
45.92829931972789	46.03278911564626	69	127
46.04439909297052	46.13727891156463	72	127
46.13727891156463	46.49716553287982	70	127
46.91514739229025	47.00800453514739	76	127
47.00800453514739	47.100907029478456	79	127
47.100907029478456	47.1821768707483	77	127
47.1821768707483	47.263446712018144	81	127
47.27505668934241	47.35632653061224	79	127
47.367936507936506	47.43759637188209	82	127
47.43759637188209	47.51886621315193	81	127
47.51886621315193	47.61174603174603	84	127
47.62335600907029	48.00648526077097	82	127
49.39968253968254	49.829251700680274	41	127
49.39968253968254	49.6318820861678	57	127
49.39968253968254	49.829251700680274	53	127
49.64349206349206	49.8524716553288	65	127
49.86408163265306	50.04984126984127	60	127
50.0730612244898	50.18916099773243	65	127
50.20077097505669	50.328480725623585	57	127
50.35170068027211	50.54907029478458	65	127
50.56068027210885	50.758049886621315	60	127
50.76965986394558	50.93219954648526	65	127
50.94380952380953	51.33854875283447	53	127
50.94380952380953	51.33854875283447	41	127
50.94380952380953	51.141179138321995	57	127
51.15278911564626	51.361768707482995	65	127
51.37337868480726	51.5475283446712	60	127
51.55913832199546	51.75650793650794	65	127
51.7681179138322	51.965487528344674	57	127
51.97709750566894	52.174467120181404	65	127
52.19768707482993	52.406666666666666	60	127
52.41827664399093	52.60403628117914	65	127
52.6156462585034	52.95233560090703	41	127
52.6156462585034	52.81301587301587	58	127
52.6156462585034	52.95233560090703	53	127
52.81301587301587	52.96394557823129	65	127
52.97555555555556	53.13809523809524	62	127
53.1497052154195	53.31224489795918	65	127
53.323854875283445	53.50961451247166	62	127
53.52122448979592	53.69537414965986	65	127
53.69537414965986	53.86952380952381	70	127
53.881133786848075	54.05528344671202	65	127
54.06689342403628	54.46163265306122	53	127
54.06689342403628	54.46163265306122	41	127
54.06689342403628	54.27587301587302	58	127
54.29909297052154	54.48485260770975	65	127
54.49646258503402	54.6590022675737	61	127
54.68222222222222	54.89120181405896	65	127
54.90281179138322	55.10018140589569	58	127
55.11179138321995	55.30916099773243	65	127
55.32077097505669	55.518140589569164	61	127
55.529750566893426	55.727120181405894	65	127
55.73873015873016	56.09863945578231	41	127
55.73873015873016	55.91287981859411	58	127
55.73873015873016	56.09863945578231	53	127
55.92448979591837	56.12185941043084	67	127
56.1334693877551	56.30761904761905	60	127
56.31922902494331	56.45854875283447	67	127
56.47015873015873	56.609478458049885	64	127
56.62108843537415	56.7952380952381	67	127
56.80684807256236	57.00421768707483	70	127
57.01582766439909	57.155147392290246	67	127
57.155147392290246	57.526666666666664	41	127
57.155147392290246	57.526666666666664	69	127
57.155147392290246	57.526666666666664	53	127
58.01428571428571	58.32775510204082	47	127
58.01428571428571	58.32775510204082	67	127
58.01428571428571	58.32775510204082	65	127
58.01428571428571	58.32775510204082	62	127
58.01428571428571	58.32775510204082	59	127
58.82698412698413	59.941541950113375	60	127
58.82698412698413	59.6512925170068	69	127
58.82698412698413	59.6512925170068	65	127
58.82698412698413	59.941541950113375	48	127
59.6512925170068	59.999591836734695	64	127
59.6512925170068	59.999591836734695	67	127
60.58009070294784	60.812290249433104	41	127
60.82390022675737	61.032879818594104	53	127
61.044489795918366	61.2534693877551	45	127
61.265079365079366	61.4740589569161	53	127
61.49727891156463	61.68303854875283	48	127
61.694648526077096	61.82235827664399	53	127
61.845578231292514	62.04294784580499	45	127
62.05455782312925	62.19387755102041	53	127
62.19387755102041	62.33319727891156	41	127
62.344807256235825	62.53056689342404	53	127
62.5421768707483	62.70471655328798	45	127
62.71632653061224	62.91369614512472	53	127
62.71632653061224	62.92530612244898	77	127
62.92530612244898	63.09945578231292	48	127
62.92530612244898	63.111065759637185	81	127
63.111065759637185	63.19233560090703	79	127
63.111065759637185	63.30843537414966	53	127
63.32004535147392	63.5174149659864	45	127
63.32004535147392	63.401315192743766	77	127
63.52902494331066	63.69156462585034	53	127
63.52902494331066	63.598684807256234	76	127
63.7031746031746	64.05145124716553	74	127
63.7031746031746	63.86571428571428	41	127
63.888934240362815	64.07469387755103	53	127
64.08630385487528	64.24884353741497	50	127
64.26045351473923	64.46943310657596	53	127
64.26045351473923	64.48104308390023	82	127
64.48104308390023	64.69	86	127
64.48104308390023	64.6784126984127	46	127
64.69	64.78290249433107	84	127
64.69	64.85256235827664	53	127
64.86417233560091	64.95705215419501	82	127
64.86417233560091	65.03832199546486	50	127
65.04993197278911	65.13120181405895	81	127
65.04993197278911	65.22408163265307	53	127
65.23569160997732	65.39823129251701	41	127
65.23569160997732	65.59560090702948	79	127
65.40984126984127	65.618820861678	53	127
65.618820861678	65.75814058956917	49	127
65.76975056689342	65.9438775510204	53	127
65.76975056689342	65.96709750566893	79	127
65.96709750566893	66.16448979591837	82	127
65.96709750566893	66.1528798185941	46	127
66.16448979591837	66.24575963718821	80	127
66.16448979591837	66.32700680272109	53	127
66.35022675736961	66.41990929705216	79	127
66.35022675736961	66.53600907029478	49	127
66.53600907029478	66.5940589569161	77	127
66.53600907029478	66.67532879818594	53	127
66.6869387755102	66.86106575963719	41	127
66.6869387755102	66.86106575963719	77	127
66.87269841269841	67.07006802721088	76	127
66.87269841269841	67.07006802721088	53	127
67.08167800453515	67.29065759637189	74	127
67.08167800453515	67.29065759637189	43	127
67.29065759637189	67.45319727891156	72	127
67.29065759637189	67.45319727891156	53	127
67.46480725623583	67.65056689342404	71	127
67.46480725623583	67.65056689342404	46	127
67.6621768707483	67.80149659863946	72	127
67.6621768707483	67.80149659863946	53	127
67.81310657596372	67.9872335600907	43	127
67.81310657596372	67.9872335600907	74	127
68.0104761904762	68.20784580498866	76	127
68.0104761904762	68.20784580498866	53	127
68.21945578231292	68.59097505668935	41	127
68.21945578231292	68.49807256235827	77	127
68.52131519274377	68.62578231292517	77	127
68.62578231292517	68.70707482993197	79	127
68.70707482993197	68.79995464852608	77	127
68.79995464852608	68.8231746031746	76	127
68.83478458049886	68.92766439909298	77	127
68.92766439909298	69.20630385487529	79	127
68.92766439909298	69.28757369614513	65	127
68.92766439909298	69.28757369614513	59	127
69.22952380952381	69.31079365079366	79	127
69.31079365079366	69.39204081632653	81	127
69.39204081632653	69.4965306122449	79	127
69.4965306122449	69.60104308390022	78	127
69.61265306122449	69.71714285714286	79	127
69.72875283446712	70.1118820861678	65	127
69.72875283446712	70.1118820861678	81	127
69.72875283446712	70.1118820861678	60	127
70.14671201814059	70.63433106575964	82	127
70.14671201814059	70.87814058956916	62	127
70.14671201814059	71.14517006802721	65	127
70.68077097505669	70.78526077097506	81	127
70.78526077097506	70.87814058956916	82	127
70.87814058956916	71.21482993197279	58	127
70.87814058956916	70.97102040816327	84	127
70.98263038548752	71.04068027210884	82	127
71.04068027210884	71.13356009070294	81	127
71.13356009070294	71.23804988662131	79	127
71.23804988662131	71.34253968253968	79	127
71.23804988662131	71.58634920634921	65	127
71.23804988662131	71.58634920634921	57	127
71.35414965986395	71.42380952380952	77	127
71.4354195011338	71.51668934240362	76	127
71.51668934240362	71.59795918367347	77	127
71.59795918367347	71.67922902494331	76	127
71.69083900226758	71.76049886621315	77	127
71.77210884353741	71.86498866213152	76	127
71.86498866213152	71.9346485260771	77	127
71.9346485260771	72.0275283446712	81	127
71.9346485260771	72.28294784580498	58	127
71.9346485260771	72.28294784580498	65	127
72.0275283446712	72.13201814058957	79	127
72.14362811791383	72.23650793650793	78	127
72.23650793650793	72.30614512471655	79	127
72.30614512471655	72.42226757369615	78	127
72.42226757369615	72.51514739229025	79	127
72.52675736961451	72.60802721088436	78	127
72.61963718820861	72.72412698412698	79	127
72.72412698412698	73.04918367346939	81	127
72.72412698412698	73.04918367346939	65	127
72.72412698412698	73.04918367346939	60	127
73.08403628117914	73.80385487528345	62	127
73.08403628117914	73.80385487528345	82	127
73.08403628117914	73.80385487528345	70	127
73.08403628117914	73.80385487528345	65	127
73.87351473922902	74.00122448979592	71	127
73.87351473922902	74.00122448979592	83	127
73.87351473922902	74.00122448979592	55	127
73.87351473922902	74.00122448979592	43	127
74.22181405895692	74.39596371882087	84	127
74.22181405895692	74.39596371882087	60	127
74.22181405895692	74.39596371882087	48	127
74.22181405895692	74.39596371882087	72	127
74.65138321995465	74.8255328798186	85	127
74.65138321995465	74.8255328798186	57	127
74.65138321995465	74.8255328798186	45	127
74.65138321995465	74.8255328798186	73	127
75.06934240362811	75.25510204081633	86	127
75.06934240362811	75.25510204081633	46	127
75.06934240362811	75.25510204081633	58	127
75.06934240362811	75.25510204081633	74	127
75.88204081632654	77.34489795918367	50	127
75.88204081632654	77.34489795918367	38	127
76.03297052154196	76.13746031746032	60	127
76.14907029478458	76.26517006802722	63	127
76.26517006802722	76.41609977324264	66	127
76.42770975056689	76.53219954648526	63	127
76.54380952380953	76.6482993197279	60	127
76.65990929705215	76.79922902494332	66	127
76.81083900226757	76.93854875283446	62	127
76.95015873015873	77.06625850340136	58	127
77.07786848072563	77.20557823129252	66	127
77.20557823129252	77.33328798185941	60	127
77.34489795918367	77.4609977324263	57	127
77.47260770975056	78.94707482993198	43	127
77.5887074829932	77.72802721088435	55	127
77.73963718820862	77.86734693877551	58	127
77.87893424036281	78.0066439909297	62	127
78.01827664399093	78.1575963718821	67	127
78.16920634920635	78.29691609977324	69	127
78.30852607709751	78.42462585034014	70	127
78.4362358276644	78.55233560090703	69	127
78.55233560090703	78.66843537414967	67	127
78.68004535147392	78.79614512471656	65	127
78.80775510204082	78.93546485260771	63	127
78.93546485260771	79.0631746031746	62	127
79.07478458049887	80.38671201814059	45	127
79.07478458049887	79.20249433106576	60	127
79.21410430839002	79.27215419501134	64	127
79.27215419501134	79.39986394557823	65	127
79.41145124716553	79.5159410430839	67	127
79.52757369614513	79.65528344671202	69	127
79.66687074829932	79.79458049886621	70	127
79.80621315192744	79.9107029478458	72	127
79.9222902494331	80.02678004535147	70	127
80.02678004535147	80.1312925170068	69	127
80.1312925170068	80.25900226757369	67	127
80.27061224489796	80.36349206349206	65	127
80.37510204081633	80.51442176870748	63	127
80.51442176870748	81.18780045351474	46	127
80.65374149659864	80.74662131519274	62	127
80.75823129251701	80.8859410430839	65	127
80.89755102040816	81.02526077097505	70	127
81.03687074829932	81.14136054421769	74	127
81.14136054421769	81.24585034013606	62	127
81.25746031746031	81.93083900226758	48	127
81.39678004535148	81.47804988662132	64	127
81.47804988662132	81.57092970521542	67	127
81.58253968253969	81.72185941043084	72	127
81.72185941043084	81.84956916099773	76	127
81.861179138322	81.96566893424037	64	127
81.97727891156462	82.29074829931973	50	127
82.09337868480726	82.19784580498866	65	127
82.19784580498866	82.30235827664399	68	127
82.30235827664399	82.63904761904762	52	127
82.41845804988662	82.56938775510204	67	127
82.56938775510204	82.66226757369614	73	127
82.67387755102041	83.01056689342404	53	127
82.8015873015873	82.91768707482993	69	127
82.91768707482993	83.03378684807257	72	127
83.04539682539682	83.40530612244898	50	127
83.14988662131519	83.28920634920635	69	127
83.28920634920635	83.4285260770975	77	127
83.44013605442177	83.82326530612245	62	127
83.44013605442177	83.82326530612245	46	127
83.44013605442177	83.82326530612245	67	127
84.96104308390022	86.38904761904762	48	127
84.96104308390022	86.38904761904762	36	127
85.18163265306123	85.36736961451247	57	127
85.3790022675737	85.75049886621315	65	127
85.3790022675737	85.57637188208616	60	127
85.58798185941043	85.77374149659865	57	127
85.7853514739229	85.90145124716554	60	127
85.7853514739229	86.06399092970521	65	127
85.92467120181406	86.08721088435374	57	127
86.098820861678	86.49353741496599	65	127
86.098820861678	86.29619047619047	60	127
86.319410430839	86.51675736961451	58	127
86.52839002267574	86.67931972789115	53	127
86.52839002267574	86.67931972789115	41	127
86.52839002267574	86.6328798185941	57	127
86.6444671201814	86.7721768707483	60	127
86.78380952380952	86.8534693877551	65	127
86.86507936507937	87.03922902494331	39	127
86.86507936507937	87.03922902494331	51	127
86.86507936507937	86.99278911564626	60	127
87.00437641723356	87.13208616780045	65	127
87.13208616780045	87.2946485260771	69	127
87.30625850340137	87.48040816326531	38	127
87.30625850340137	87.48040816326531	50	127
87.30625850340137	87.44557823129252	62	127
87.44557823129252	87.58489795918368	65	127
87.58489795918368	87.68938775510205	70	127
87.7009977324263	87.84031746031746	37	127
87.7009977324263	87.84031746031746	49	127
87.7009977324263	87.81709750566894	65	127
87.81709750566894	87.93319727891156	67	127
87.93319727891156	88.06090702947846	71	127
88.07251700680273	88.2350566893424	36	127
88.07251700680273	88.2350566893424	48	127
88.07251700680273	88.18861678004535	64	127
88.20022675736962	88.31632653061224	67	127
88.33954648526077	88.47886621315193	72	127
88.49047619047619	88.66460317460317	33	127
88.49047619047619	88.66460317460317	45	127
88.49047619047619	88.61818594104308	64	127
88.62979591836735	88.7691156462585	67	127
88.78072562358277	88.92002267573696	73	127
88.92002267573696	89.10580498866213	34	127
88.92002267573696	89.10580498866213	74	127
88.92002267573696	89.10580498866213	65	127
88.92002267573696	89.10580498866213	62	127
88.92002267573696	89.10580498866213	46	127
89.69791383219955	91.16077097505669	50	127
89.69791383219955	91.16077097505669	38	127
90.4990022675737	90.88213151927438	74	127
90.91696145124716	91.26526077097506	74	127
91.30009070294784	92.43786848072563	55	127
91.30009070294784	92.43786848072563	43	127
91.30009070294784	91.35814058956916	74	127
91.35814058956916	92.0663492063492	82	127
92.11278911564627	92.28693877551021	75	127
92.542358276644	92.89065759637188	55	127
92.542358276644	92.89065759637188	43	127
92.542358276644	92.69328798185941	75	127
92.92548752834468	92.9487074829932	75	127
92.92548752834468	93.95877551020408	57	127
92.92548752834468	93.95877551020408	45	127
92.9487074829932	93.62206349206349	84	127
93.65691609977324	93.80784580498866	77	127
94.06326530612245	94.44639455782313	45	127
94.06326530612245	94.22580498866213	77	127
94.06326530612245	94.44639455782313	57	127
94.46961451247165	94.79469387755103	58	127
94.46961451247165	94.79469387755103	46	127
94.46961451247165	94.52766439909297	77	127
94.52766439909297	95.15460317460318	86	127
95.20104308390023	95.25909297052154	76	127
95.20104308390023	95.54934240362812	60	127
95.20104308390023	95.54934240362812	48	127
95.25909297052154	95.94408163265307	84	127
95.99052154195012	96.32721088435375	50	127
95.99052154195012	96.03696145124717	74	127
95.99052154195012	96.32721088435375	56	127
96.03696145124717	96.338820861678	83	127
96.36204081632653	96.73356009070295	52	127
96.36204081632653	96.40848072562358	73	127
96.36204081632653	96.73356009070295	61	127
96.40848072562358	96.73356009070295	82	127
96.78	97.16312925170068	53	127
96.78	97.16312925170068	60	127
96.78	96.83804988662132	72	127
96.83804988662132	97.54625850340136	81	127
97.19795918367348	97.56947845804989	62	127
97.19795918367348	97.56947845804989	50	127
97.59269841269841	97.96421768707484	58	127
97.73201814058957	97.82489795918367	74	127
97.83650793650794	97.97582766439909	76	127
97.97582766439909	98.10353741496598	77	127
98.10353741496598	98.17319727891156	78	127
98.18480725623583	98.30090702947845	79	127
98.30090702947845	98.44022675736962	81	127
98.45183673469388	98.56793650793651	82	127
98.57954648526078	98.64920634920635	83	127
98.64920634920635	98.77691609977325	84	127
98.7885260770975	98.88140589569161	85	127
98.88140589569161	99.00911564625851	86	127
99.02072562358276	100.14689342403628	77	127
99.81020408163265	99.99596371882086	60	127
100.23977324263039	100.39070294784581	60	127
100.23977324263039	100.40231292517007	81	127
100.41392290249433	100.59968253968253	79	127
100.6112925170068	100.65773242630385	60	127
100.6112925170068	100.93637188208616	77	127
100.65773242630385	101.33111111111111	69	127
101.40077097505669	101.5865306122449	72	127
101.40077097505669	101.44721088435374	58	127
101.44721088435374	102.120589569161	67	127
101.80712018140589	101.94643990929706	72	127
102.19024943310657	102.23668934240362	57	127
102.19024943310657	102.27151927437642	84	127
102.23668934240362	102.55015873015873	65	127
102.38761904761905	102.45727891156463	86	127
102.45727891156463	102.50371882086168	84	127
102.50371882086168	102.57337868480725	83	127
102.57337868480725	102.75913832199547	84	127
102.75913832199547	102.85201814058956	86	127
102.92167800453515	103.00294784580498	82	127
103.13065759637188	103.1887074829932	84	127
103.1887074829932	103.25836734693877	82	127
103.25836734693877	103.33963718820861	81	127
103.33963718820861	103.5370068027211	82	127
103.54861678004535	103.61827664399092	84	127
103.74598639455782	103.80403628117914	81	127
103.93174603174603	103.97818594104308	82	127
103.97818594104308	104.0362358276644	81	127
104.0362358276644	104.10589569160997	79	127
104.10589569160997	104.25682539682539	81	127
104.28004535147392	104.36131519274376	82	127
104.45419501133787	104.5354648526077	79	127
104.45419501133787	104.61673469387755	60	127
104.63995464852607	104.70961451247166	81	127
104.70961451247166	104.73283446712018	79	127
104.73283446712018	104.80249433106576	78	127
104.80249433106576	104.96503401360545	79	127
104.80249433106576	104.94181405895692	60	127
104.9766439909297	105.06952380952382	81	127
105.19723356009071	105.53392290249433	77	127
105.19723356009071	105.24367346938776	60	127
105.24367346938776	105.90544217687075	69	127
105.9518820861678	105.99832199546485	58	127
105.9518820861678	106.17247165532879	72	127
105.99832199546485	106.72975056689343	67	127
106.41628117913832	106.61365079365079	72	127
106.77619047619048	106.86907029478458	84	127
106.77619047619048	106.8342403628118	57	127
106.8342403628118	107.18253968253968	65	127
106.99678004535147	107.06643990929705	86	127
107.06643990929705	107.13609977324263	84	127
107.13609977324263	107.20575963718821	83	127
107.20575963718821	107.39151927437642	84	127
107.40312925170068	107.48439909297052	86	127
107.57727891156462	107.64693877551021	82	127
107.76303854875283	107.8326984126984	84	127
107.8326984126984	107.902358276644	82	127
107.902358276644	107.97201814058957	81	127
107.97201814058957	108.15777777777778	82	127
108.16938775510204	108.25065759637188	84	127
108.37836734693877	108.47124716553287	81	127
108.59895691609978	108.65700680272109	82	127
108.66861678004535	108.73827664399093	81	127
108.73827664399093	108.78471655328798	79	127
108.78471655328798	108.9356462585034	81	127
108.95886621315192	109.02852607709751	82	127
109.1562358276644	109.2491156462585	79	127
109.36521541950114	109.43487528344671	81	127
109.44648526077097	109.50453514739229	79	127
109.51614512471656	109.58580498866213	78	127
109.58580498866213	109.75995464852608	79	127
109.77156462585035	109.86444444444444	81	127
109.96893424036281	110.05020408163266	77	127
110.1895238095238	110.28240362811792	72	127
110.41011337868481	110.47977324263039	77	127
110.59587301587301	110.7235827664399	79	127
110.83968253968254	110.90934240362812	81	127
110.83968253968254	111.87297052154194	65	127
110.83968253968254	111.52467120181406	72	127
111.01383219954648	111.08349206349206	82	127
111.08349206349206	111.10671201814058	81	127
111.10671201814058	111.1647619047619	79	127
111.17637188208617	111.31569160997732	81	127
111.32730158730159	111.40857142857143	82	127
111.52467120181406	111.87297052154194	70	127
111.52467120181406	111.62916099773243	79	127
111.72204081632653	111.79170068027211	76	127
111.89619047619047	111.98907029478458	79	127
112.11678004535148	112.20965986394557	81	127
112.30253968253969	112.40702947845806	82	127
112.30253968253969	113.4287074829932	65	127
112.30253968253969	113.04557823129252	76	127
112.51151927437641	112.581179138322	84	127
112.581179138322	112.66244897959184	82	127
112.66244897959184	112.73210884353742	81	127
112.73210884353742	112.89464852607709	82	127
112.90625850340136	112.95269841269841	84	127
113.04557823129252	113.12684807256235	81	127
113.04557823129252	113.4287074829932	75	127
113.26616780045352	113.33582766439909	77	127
113.45192743764173	113.53319727891156	81	127
113.63768707482993	113.73056689342404	82	127
113.84666666666666	114.57809523809524	75	127
113.84666666666666	114.97283446712018	65	127
113.84666666666666	113.89310657596371	84	127
114.00920634920635	114.0556462585034	86	127
114.06725623582767	114.11369614512472	84	127
114.11369614512472	114.17174603174603	82	127
114.1833560090703	114.3691156462585	84	127
114.38072562358276	114.4619954648526	86	127
114.57809523809524	114.67097505668934	82	127
114.57809523809524	114.97283446712018	74	127
114.79868480725624	114.87995464852608	77	127
115.00766439909297	115.06571428571428	82	127
115.13537414965987	115.22825396825397	84	127
115.33274376417233	115.40240362811791	86	127
115.33274376417233	116.4124716553288	65	127
115.33274376417233	116.07578231292517	70	127
115.48367346938775	115.5301133786848	87	127
115.5301133786848	115.61138321995465	86	127
115.61138321995465	115.66943310657597	84	127
115.68104308390022	115.8784126984127	86	127
115.89002267573696	115.9712925170068	87	127
116.07578231292517	116.4124716553288	69	127
116.07578231292517	116.14544217687074	84	127
116.24993197278911	116.31959183673469	81	127
116.43569160997733	116.49374149659864	84	127
116.60984126984127	116.69111111111111	86	127
116.79560090702948	116.88848072562358	87	127
117.00458049886622	117.06263038548752	89	127
117.06263038548752	117.12068027210884	87	127
117.12068027210884	117.17873015873016	86	127
117.17873015873016	117.3528798185941	87	127
117.37609977324263	117.45736961451247	89	127
117.58507936507937	117.66634920634921	86	127
117.7940589569161	117.85210884353741	87	127
117.86371882086168	117.93337868480725	86	127
117.94498866213152	118.00303854875284	84	127
118.00303854875284	118.16557823129251	86	127
118.17718820861678	118.27006802721088	87	127
118.39777777777778	118.46743764172335	84	127
118.53709750566894	118.59514739229024	86	127
118.60675736961451	118.66480725623583	84	127
118.67641723356009	118.7344671201814	82	127
118.74607709750566	118.9550566893424	84	127
118.96666666666667	119.03632653061224	86	127
119.16403628117914	119.23369614512471	82	127
119.33818594104308	119.3614058956916	84	127
119.3614058956916	119.40784580498867	82	127
119.41945578231292	119.47750566893424	81	127
119.4891156462585	119.67487528344671	82	127
119.68648526077098	119.76775510204082	84	127
119.88385487528345	119.94190476190477	81	127
120.05800453514739	120.12766439909296	82	127
120.12766439909296	120.19732426303855	81	127
120.19732426303855	120.26698412698413	79	127
120.26698412698413	120.45274376417234	81	127
120.4643537414966	120.53401360544218	82	127
120.63850340136054	120.73138321995465	79	127
120.84748299319727	120.88231292517007	81	127
120.88231292517007	120.94036281179139	79	127
120.94036281179139	121.01002267573696	78	127
121.01002267573696	121.20739229024943	79	127
121.2190022675737	121.277052154195	81	127
121.4047619047619	121.57891156462586	77	127
121.77628117913832	121.93882086167801	77	127
122.17102040816326	122.22907029478458	77	127
122.22907029478458	122.87922902494331	86	127
122.57736961451248	122.89083900226757	70	127
122.92566893424036	122.98371882086168	75	127
122.98371882086168	123.59904761904762	84	127
123.33201814058957	123.62226757369615	66	127
123.65709750566893	123.703537414966	74	127
123.703537414966	124.44657596371881	82	127
124.0750566893424	124.8297052154195	67	127
124.50462585034013	124.67877551020408	84	127
124.50462585034013	125.22444444444444	63	127
124.69038548752835	124.87614512471656	82	127
124.88775510204081	125.07351473922903	81	127
124.88775510204081	125.25927437641724	69	127
125.08512471655328	125.2708843537415	79	127
125.2708843537415	125.34054421768707	77	127
125.2708843537415	125.5843537414966	62	127
125.2708843537415	126.28095238095239	70	127
125.42181405895691	125.47986394557823	79	127
125.47986394557823	125.53791383219955	77	127
125.53791383219955	125.59596371882085	76	127
125.59596371882085	125.96748299319728	67	127
125.59596371882085	125.79333333333334	77	127
125.81655328798186	125.8978231292517	79	127
125.9907029478458	126.0835827664399	75	127
125.9907029478458	126.33900226757369	60	127
126.19968253968254	126.23451247165534	77	127
126.24612244897959	126.31578231292517	75	127
126.31578231292517	126.37383219954648	74	127
126.37383219954648	126.74535147392291	69	127
126.37383219954648	126.74535147392291	65	127
126.37383219954648	126.54798185941043	75	127
126.57120181405895	126.6524716553288	77	127
126.78018140589569	127.20975056689342	75	127
126.78018140589569	127.17492063492064	70	127
126.78018140589569	127.17492063492064	58	127
127.20975056689342	127.5348299319728	74	127
127.56965986394557	127.85990929705216	72	127
127.87151927437641	128.02244897959184	74	127
128.0340589569161	128.39396825396827	51	127
128.0340589569161	128.77709750566893	53	127
128.0340589569161	128.19657596371883	75	127
128.0340589569161	128.39396825396827	57	127
128.20820861678004	128.382358276644	72	127
128.39396825396827	128.57972789115647	77	127
128.39396825396827	128.77709750566893	58	127
128.39396825396827	128.77709750566893	50	127
128.59133786848074	128.7887074829932	74	127
128.80031746031747	128.86997732426303	70	127
128.9628344671202	129.03251700680272	70	127
129.16022675736963	129.31115646258505	72	127
129.33437641723356	129.55496598639456	74	127
129.56657596371883	129.91487528344672	51	127
129.56657596371883	130.23993197278912	53	127
129.56657596371883	129.70589569160998	75	127
129.56657596371883	129.91487528344672	57	127
129.71750566893425	129.90326530612245	72	127
129.91487528344672	130.0425850340136	77	127
129.91487528344672	130.23993197278912	58	127
129.91487528344672	130.23993197278912	50	127
130.05419501133787	130.25156462585034	74	127
130.2631746031746	130.3328344671202	82	127
130.43732426303856	130.5185941043084	82	127
130.6114739229025	130.80884353741496	82	127
130.80884353741496	130.98299319727892	77	127
130.99460317460318	131.06426303854875	86	127
131.19197278911565	131.27324263038548	86	127
131.37773242630385	131.5518820861678	86	127
131.37773242630385	132.0511111111111	69	127
131.37773242630385	132.75931972789115	60	127
131.56349206349208	131.74925170068028	84	127
131.76086167800455	131.93501133786847	82	127
131.94662131519274	132.09755102040816	81	127
132.10916099773243	133.27015873015873	70	127
132.10916099773243	132.15560090702948	79	127
132.15560090702948	132.20204081632653	81	127
132.20204081632653	132.27170068027212	79	127
132.28328798185942	132.4922902494331	77	127
132.50390022675737	132.67804988662132	79	127
132.67804988662132	132.8754195011338	81	127
132.89861678004536	133.27015873015873	79	127
132.89861678004536	133.64167800453515	65	127
133.30496598639456	133.66487528344672	69	127
133.30496598639456	133.502358276644	77	127
133.51396825396824	133.67650793650793	76	127
133.6881179138322	133.72294784580498	75	127
133.72294784580498	133.76938775510203	77	127
133.76938775510203	133.86226757369616	75	127
133.8738775510204	134.04802721088436	74	127
134.04802721088436	134.21056689342404	75	127
134.22215419501134	134.41954648526078	77	127
134.43113378684808	134.64013605442176	74	127
134.65174603174603	134.8491156462585	77	127
134.86072562358277	135.04646258503402	74	127
134.86072562358277	135.17419501133787	58	127
134.86072562358277	135.17419501133787	46	127
135.05809523809523	135.19739229024944	70	127
135.20902494331065	135.37156462585034	69	127
135.3831746031746	135.52249433106576	75	127
135.53410430839003	135.87079365079364	42	127
135.53410430839003	135.69664399092972	72	127
135.53410430839003	135.87079365079364	54	127
135.71986394557823	135.89401360544218	69	127
135.90562358276645	136.10299319727892	67	127
136.11458049886622	136.28875283446712	74	127
136.3003628117914	136.64866213151927	43	127
136.3003628117914	136.46290249433108	70	127
136.3003628117914	136.64866213151927	55	127
136.46290249433108	136.64866213151927	67	127
136.64866213151927	137.36848072562358	39	127
136.64866213151927	137.36848072562358	51	127
136.64866213151927	136.81120181405896	58	127
136.82281179138323	136.99696145124716	67	127
137.00857142857143	137.2059410430839	60	127
137.21755102040817	137.40331065759636	69	127
137.4265306122449	137.7515873015873	50	127
137.4265306122449	137.57746031746032	70	127
137.4265306122449	137.7515873015873	38	127
137.57746031746032	137.76321995464852	62	127
137.78643990929706	138.12312925170068	55	127
137.78643990929706	138.12312925170068	43	127
137.78643990929706	137.960589569161	70	127
137.97219954648526	138.13473922902494	62	127
138.1463492063492	138.45981859410432	48	127
138.1463492063492	138.45981859410432	36	127
138.1463492063492	138.3088888888889	70	127
138.32049886621314	138.47142857142856	60	127
138.48303854875283	138.84294784580499	53	127
138.48303854875283	138.6804081632653	69	127
138.48303854875283	138.84294784580499	41	127
138.6804081632653	138.84294784580499	60	127
138.85455782312926	139.58598639455784	34	127
138.85455782312926	139.2144671201814	72	127
138.85455782312926	139.2144671201814	69	127
138.85455782312926	139.58598639455784	46	127
139.2144671201814	139.62081632653062	70	127
140.08521541950114	140.43351473922903	69	127
140.08521541950114	140.43351473922903	39	127
140.08521541950114	140.43351473922903	60	127
140.08521541950114	140.7818140589569	65	127
140.08521541950114	140.43351473922903	51	127
140.43351473922903	140.7818140589569	62	127
140.43351473922903	140.7818140589569	70	127
140.43351473922903	140.7818140589569	50	127
140.43351473922903	140.7818140589569	38	127
141.24621315192744	141.4435827664399	72	127
141.45519274376417	141.61773242630386	74	127
141.62934240362813	141.95442176870748	63	127
141.62934240362813	141.81510204081633	75	127
141.62934240362813	141.95442176870748	66	127
141.81510204081633	141.94278911564626	72	127
141.95442176870748	142.31433106575963	65	127
141.95442176870748	142.11696145124716	77	127
141.95442176870748	142.31433106575963	62	127
142.12857142857143	142.31433106575963	74	127
142.3259410430839	142.4071882086168	70	127
142.52331065759637	142.61619047619047	70	127
143.05736961451248	143.44049886621315	71	127
143.05736961451248	143.81201814058957	67	127
143.05736961451248	143.44049886621315	41	127
143.05736961451248	143.44049886621315	53	127
143.05736961451248	143.44049886621315	62	127
143.44049886621315	143.81201814058957	39	127
143.44049886621315	143.81201814058957	72	127
143.44049886621315	143.81201814058957	63	127
143.44049886621315	143.81201814058957	51	127
144.26480725623583	144.43895691609978	74	127
144.45054421768708	144.62471655328798	75	127
144.63632653061225	145.04267573696146	68	127
144.63632653061225	145.04267573696146	65	127
144.63632653061225	144.81047619047618	77	127
144.82208616780045	145.0310657596372	74	127
145.04267573696146	145.36773242630386	67	127
145.04267573696146	145.1819954648526	79	127
145.04267573696146	145.36773242630386	63	127
145.19360544217687	145.39097505668934	75	127
145.4025850340136	145.4954648526077	72	127
145.5651247165533	145.64639455782313	72	127
146.11079365079365	146.44748299319727	73	127
146.11079365079365	146.83061224489796	69	127
146.11079365079365	146.44748299319727	43	127
146.11079365079365	146.44748299319727	55	127
146.11079365079365	146.44748299319727	64	127
146.44748299319727	146.83061224489796	42	127
146.44748299319727	146.83061224489796	74	127
146.44748299319727	146.83061224489796	66	127
146.44748299319727	146.83061224489796	54	127
147.28340136054422	147.43433106575964	76	127
147.4459410430839	147.64331065759637	78	127
147.65492063492064	148.0148299319728	67	127
147.65492063492064	148.0148299319728	70	127
147.65492063492064	147.84068027210884	79	127
147.8522902494331	148.00321995464853	76	127
148.0148299319728	148.33990929705215	69	127
148.0148299319728	148.33990929705215	66	127
148.0148299319728	148.200589569161	81	127
148.21219954648527	148.36312925170068	78	127
148.37473922902495	148.46761904761905	74	127
148.5837188208617	148.66498866213152	74	127
149.1525850340136	149.4892970521542	63	127
149.1525850340136	149.4892970521542	69	127
149.1525850340136	149.4892970521542	66	127
149.1525850340136	149.4892970521542	60	127
149.1525850340136	149.4892970521542	48	127
149.4892970521542	149.84920634920636	58	127
149.4892970521542	149.84920634920636	67	127
149.4892970521542	149.84920634920636	62	127
149.4892970521542	149.84920634920636	46	127
149.4892970521542	149.84920634920636	70	127
150.3019954648526	150.47614512471657	57	127
150.3019954648526	150.47614512471657	45	127
150.4877551020408	150.68510204081633	46	127
150.4877551020408	150.68510204081633	58	127
150.69673469387754	150.83603174603175	60	127
150.69673469387754	150.83603174603175	48	127
150.84766439909296	150.98698412698414	45	127
150.84766439909296	150.98698412698414	57	127
151.01020408163265	151.1959410430839	62	127
151.01020408163265	151.1959410430839	50	127
151.20757369614512	151.3701133786848	46	127
151.20757369614512	151.3701133786848	58	127
151.38172335600908	151.47460317460317	43	127
151.38172335600908	151.47460317460317	55	127
151.5907029478458	151.6835827664399	43	127
151.5907029478458	151.6835827664399	55	127
152.658820861678	152.79814058956916	86	127
152.80975056689343	152.93743764172336	84	127
152.94907029478458	153.03034013605443	82	127
153.03034013605443	153.1348299319728	81	127
153.14643990929704	153.27414965986395	79	127
153.28575963718822	153.42507936507937	78	127
153.42507936507937	153.56439909297052	75	127
153.5760090702948	153.68049886621316	74	127
153.69210884353743	153.73854875283448	72	127
153.75013605442177	153.87786848072562	70	127
153.8894784580499	153.982358276644	69	127
153.99396825396826	154.09845804988663	67	127
154.11004535147393	154.23777777777778	70	127
154.23777777777778	154.35387755102042	74	127
154.36546485260772	154.4815873015873	68	127
154.49319727891157	154.5744671201814	71	127
154.5744671201814	154.67895691609976	74	127
154.69056689342403	154.80666666666667	67	127
154.81827664399094	154.94598639455782	71	127
154.94598639455782	155.07369614512473	74	127
155.08530612244897	155.21301587301588	65	127
155.22462585034015	155.34072562358276	71	127
155.35233560090703	155.49163265306123	74	127
155.49163265306123	155.82834467120182	72	127
155.61936507936508	155.74705215419502	67	127
155.75868480725623	155.8515419501134	65	127
155.8515419501134	155.97927437641724	63	127
155.9908843537415	156.0837641723356	62	127
156.09537414965988	156.22308390022675	60	127
156.22308390022675	156.60621315192745	67	127
156.22308390022675	156.60621315192745	71	127
156.22308390022675	156.60621315192745	74	127
156.22308390022675	156.36238095238096	59	127
156.37401360544217	156.51331065759638	56	127
156.5249433106576	156.61780045351475	55	127
156.62943310657596	156.75714285714287	53	127
156.76873015873016	156.89646258503402	51	127
156.90807256235829	157.03578231292516	50	127
157.03578231292516	157.36086167800454	75	127
157.03578231292516	157.36086167800454	67	127
157.03578231292516	157.36086167800454	72	127
157.03578231292516	157.11705215419502	48	127
157.11705215419502	157.2447619047619	51	127
157.25637188208617	157.36086167800454	55	127
157.3724716553288	157.44213151927437	46	127
157.44213151927437	157.53498866213152	52	127
157.54662131519274	157.6511111111111	55	127
157.66272108843538	157.8136507936508	45	127
157.8136507936508	157.92975056689343	48	127
157.94133786848073	158.0574603174603	53	127
158.0574603174603	158.15031746031747	43	127
158.15031746031747	158.26643990929705	46	127
158.26643990929705	158.40573696145125	52	127
158.41736961451247	158.81208616780046	41	127
158.55666666666667	158.6960090702948	84	127
158.6960090702948	158.83532879818594	82	127
158.8469387755102	158.91657596371883	81	127
158.91657596371883	159.0094784580499	79	127
159.0094784580499	159.14879818594105	77	127
159.16040816326532	159.53190476190477	48	127
159.16040816326532	159.2881179138322	76	127
159.29972789115646	159.40421768707483	74	127
159.4158276643991	159.55514739229025	72	127
159.56675736961452	159.6712471655329	70	127
159.6828344671202	159.78732426303856	69	127
159.79895691609977	159.88022675736963	67	127
159.88022675736963	160.01954648526078	65	127
159.88022675736963	160.25174603174602	53	127
160.03115646258505	160.14725623582765	69	127
160.15886621315192	160.27496598639456	72	127
160.27496598639456	160.4142857142857	66	127
160.42589569160998	160.54199546485262	69	127
160.55358276643992	160.6697052154195	72	127
160.6697052154195	160.77419501133787	65	127
160.78580498866214	160.90190476190477	69	127
160.91351473922902	160.99478458049887	72	127
161.00639455782314	161.13410430839002	63	127
161.1457142857143	161.25020408163266	69	127
161.25020408163266	161.35469387755103	72	127
161.36628117913833	161.74943310657596	70	127
161.50562358276645	161.63333333333333	65	127
161.6449433106576	161.7726530612245	63	127
161.78426303854874	161.8771201814059	62	127
161.8771201814059	161.97002267573697	60	127
161.98160997732427	162.08609977324264	58	127
162.09773242630385	162.4344217687075	65	127
162.09773242630385	162.4344217687075	69	127
162.09773242630385	162.4344217687075	72	127
162.09773242630385	162.20222222222222	57	127
162.2138321995465	162.34151927437642	55	127
162.35315192743764	162.457641723356	53	127
162.46925170068027	162.5853514739229	51	127
162.5969387755102	162.72467120181406	50	127
162.72467120181406	162.8059410430839	48	127
162.81755102040816	163.16585034013605	65	127
162.81755102040816	162.9336507936508	46	127
162.81755102040816	163.16585034013605	74	127
162.81755102040816	163.16585034013605	70	127
162.94526077097507	163.06136054421768	50	127
163.06136054421768	163.18907029478459	53	127
163.20068027210885	163.29356009070295	44	127
163.31678004535146	163.45609977324264	50	127
163.45609977324264	163.560589569161	53	127
163.57219954648525	163.67668934240362	43	127
163.6882993197279	163.82761904761904	46	127
163.8392290249433	163.95532879818595	51	127
163.96693877551022	164.08303854875282	41	127
164.0946485260771	164.21074829931973	44	127
164.2339455782313	164.38487528344672	50	127
164.38487528344672	164.5938775510204	55	127
164.38487528344672	164.79122448979592	39	127
164.60548752834467	164.79122448979592	63	127
164.80285714285714	165.00020408163266	58	127
165.00020408163266	165.10471655328797	63	127
165.11632653061224	165.26725623582766	55	127
165.27886621315193	165.4530158730159	63	127
165.46462585034013	165.66197278911565	58	127
165.68521541950113	165.89419501133787	63	127
165.90580498866214	166.2773015873016	39	127
165.90580498866214	166.2773015873016	51	127
165.90580498866214	166.07995464852607	55	127
166.1031746031746	166.30054421768708	63	127
166.32376417233561	166.48630385487527	58	127
166.49791383219954	166.66045351473923	63	127
166.6720634920635	166.8578231292517	55	127
166.86943310657597	167.03197278911566	63	127
167.04356009070295	167.22934240362812	58	127
167.2409523809524	167.46154195011337	63	127
167.47315192743764	167.6705215419501	56	127
167.47315192743764	167.85628117913834	39	127
167.47315192743764	167.85628117913834	51	127
167.68213151927438	167.86789115646258	63	127
167.87950113378685	168.04204081632653	60	127
168.0536507936508	168.25102040816327	63	127
168.27424036281178	168.39034013605442	60	127
168.39034013605442	168.56448979591838	63	127
168.57607709750567	168.78507936507935	68	127
168.79668934240362	168.9940589569161	63	127
169.00566893424036	169.19140589569162	56	127
169.00566893424036	169.3771882086168	39	127
169.00566893424036	169.3771882086168	51	127
169.20303854875283	169.38879818594106	63	127
169.4004081632653	169.56294784580498	59	127
169.57455782312925	169.73709750566894	63	127
169.7487074829932	169.9344671201814	56	127
169.94607709750568	170.13183673469388	63	127
170.14344671201815	170.30598639455783	59	127
170.32920634920634	170.51496598639457	63	127
170.5265759637188	170.7819954648526	39	127
170.5265759637188	170.63106575963718	56	127
170.5265759637188	170.7819954648526	51	127
170.65428571428572	170.80521541950114	65	127
170.8284126984127	171.01419501133788	58	127
171.02580498866214	171.19995464852607	65	127
171.21156462585034	171.4089342403628	62	127
171.42054421768708	171.64111111111112	65	127
171.65274376417233	171.82689342403629	68	127
171.82689342403629	172.00102040816327	65	127
172.01265306122448	172.34934240362813	51	127
172.01265306122448	172.34934240362813	67	127
172.01265306122448	172.34934240362813	39	127
172.74408163265306	173.1156009070295	63	127
172.74408163265306	173.1156009070295	65	127
172.74408163265306	173.1156009070295	60	127
172.74408163265306	173.1156009070295	57	127
172.74408163265306	173.1156009070295	45	127
173.55678004535147	174.3578684807256	58	127
173.55678004535147	174.3578684807256	46	127
173.55678004535147	174.3578684807256	63	127
173.55678004535147	174.3578684807256	67	127
174.3578684807256	174.72938775510204	47	127
174.3578684807256	174.72938775510204	65	127
174.3578684807256	174.72938775510204	62	127
174.3578684807256	174.72938775510204	59	127
175.19378684807256	175.98326530612246	65	127
175.19378684807256	175.76267573696146	80	127
175.19378684807256	176.3780045351474	60	127
175.76267573696146	175.9716553287982	82	127
175.98326530612246	176.3780045351474	79	127
175.98326530612246	176.3780045351474	64	127
176.92367346938775	177.10943310657598	41	127
177.10943310657598	177.30680272108845	53	127
177.33002267573696	177.51578231292518	44	127
177.52739229024942	177.72473922902495	53	127
177.74798185941043	177.95696145124717	48	127
177.96857142857144	178.15433106575964	53	127
178.1659410430839	178.28204081632654	44	127
178.28204081632654	178.43297052154196	53	127
178.44455782312926	178.6419501133787	41	127
178.65356009070294	178.76965986394558	53	127
178.78126984126985	178.99024943310658	44	127
179.00183673469388	179.18761904761905	77	127
179.00183673469388	179.17600907029478	53	127
179.18761904761905	179.36174603174604	80	127
179.18761904761905	179.35015873015874	48	127
179.36174603174604	179.50108843537416	53	127
179.36174603174604	179.40820861678006	79	127
179.51269841269843	179.7100680272109	44	127
179.51269841269843	179.60557823129253	77	127
179.7332879818594	179.81455782312926	75	127
179.7332879818594	179.90743764172336	53	127
179.91904761904763	180.29056689342403	73	127
179.91904761904763	180.10480725623583	41	127
180.1164172335601	180.29056689342403	53	127
180.29056689342403	180.4298866213152	49	127
180.44149659863945	180.66208616780045	82	127
180.44149659863945	180.65047619047618	53	127
180.66208616780045	180.82462585034014	85	127
180.66208616780045	180.82462585034014	46	127
180.82462585034014	180.90589569160997	84	127
180.82462585034014	181.01038548752834	53	127
181.0219954648526	181.0916553287982	82	127
181.0219954648526	181.2077551020408	49	127
181.21936507936508	181.2774149659864	80	127
181.21936507936508	181.35866213151928	53	127
181.3702947845805	181.7650113378685	79	127
181.3702947845805	181.56766439909296	41	127
181.57927437641723	181.7766439909297	53	127
181.7766439909297	181.9043537414966	49	127
181.9159410430839	182.05528344671202	53	127
181.9159410430839	182.05528344671202	79	127
182.05528344671202	182.24104308390022	46	127
182.05528344671202	182.2526530612245	82	127
182.2526530612245	182.41519274376418	53	127
182.2526530612245	182.33392290249432	80	127
182.42678004535148	182.64739229024943	49	127
182.42678004535148	182.53126984126985	79	127
182.6590022675737	182.74027210884353	77	127
182.6590022675737	182.80993197278912	53	127
182.82154195011339	182.9956916099773	77	127
182.82154195011339	182.9956916099773	41	127
182.9956916099773	183.12340136054422	53	127
182.9956916099773	183.12340136054422	76	127
183.1350113378685	183.34399092970523	74	127
183.1350113378685	183.34399092970523	43	127
183.35560090702947	183.52975056689343	72	127
183.35560090702947	183.52975056689343	53	127
183.52975056689343	183.6922902494331	71	127
183.52975056689343	183.6922902494331	46	127
183.71551020408162	183.8780498866213	72	127
183.71551020408162	183.8780498866213	53	127
183.88965986394558	184.06378684807257	74	127
183.88965986394558	184.06378684807257	43	127
184.07541950113378	184.24956916099774	53	127
184.07541950113378	184.24956916099774	76	127
184.261179138322	184.38888888888889	77	127
184.261179138322	184.65591836734694	41	127
184.40049886621316	184.5398185941043	72	127
184.55142857142857	184.6791156462585	68	127
184.69074829931972	184.77201814058958	72	127
184.77201814058958	184.8532879818594	68	127
184.7952380952381	184.98099773242632	41	127
184.8532879818594	184.96938775510205	65	127
184.98099773242632	185.16675736961452	44	127
184.98099773242632	185.09709750566893	68	127
185.1087074829932	185.2364172335601	65	127
185.16675736961452	185.25963718820861	43	127
185.2364172335601	185.36412698412698	60	127
185.36412698412698	185.4221768707483	41	127
185.36412698412698	185.44537414965987	65	127
185.45700680272108	185.584716553288	60	127
185.52666666666667	185.6079365079365	39	127
185.584716553288	185.72403628117914	56	127
185.7356462585034	186.09555555555556	38	127
185.7356462585034	185.8633560090703	53	127
185.87496598639456	185.97945578231293	58	127
185.9910657596372	186.11877551020407	62	127
186.13038548752834	186.22326530612244	58	127
186.2348752834467	186.36258503401362	62	127
186.3045351473923	186.4902947845805	53	127
186.36258503401362	186.4902947845805	65	127
186.4902947845805	186.6180045351474	62	127
186.4902947845805	186.69927437641724	58	127
186.62961451247165	186.74571428571429	65	127
186.69927437641724	186.76893424036282	56	127
186.75732426303856	186.88503401360543	70	127
186.88503401360543	186.9778911564626	55	127
186.88503401360543	187.0243537414966	65	127
187.03596371882085	187.1520634920635	70	127
187.10562358276644	187.16367346938776	53	127
187.16367346938776	187.2449433106576	74	127
187.25655328798186	187.38426303854877	75	127
187.25655328798186	187.60485260770974	51	127
187.395873015873	187.48873015873016	70	127
187.50036281179138	187.62807256235828	67	127
187.63968253968255	187.75578231292516	70	127
187.75578231292516	187.8718820861678	67	127
187.83705215419502	187.98798185941044	34	127
187.88349206349207	187.98798185941044	63	127
187.98798185941044	188.17374149659864	39	127
187.98798185941044	188.1273015873016	67	127
188.1273015873016	188.20854875283447	63	127
188.17374149659864	188.23179138321996	38	127
188.2201814058957	188.32467120181406	58	127
188.33628117913833	188.42916099773242	36	127
188.33628117913833	188.47560090702947	63	127
188.47560090702947	188.61489795918368	58	127
188.54526077097506	188.63814058956916	34	127
188.6265306122449	188.74263038548753	55	127
188.7542403628118	189.09092970521542	32	127
188.7542403628118	188.8471201814059	51	127
188.85873015873017	188.98643990929705	56	127
188.99804988662132	189.11414965986395	60	127
189.12573696145125	189.23022675736962	56	127
189.24185941043083	189.38115646258504	60	127
189.31151927437642	189.53208616780046	51	127
189.38115646258504	189.52049886621316	63	127
189.53208616780046	189.62498866213153	60	127
189.53208616780046	189.68303854875285	56	127
189.63657596371883	189.7294784580499	63	127
189.68303854875285	189.7526984126984	55	127
189.7294784580499	189.85718820861678	68	127
189.86879818594105	189.98489795918368	63	127
189.86879818594105	189.95006802721088	53	127
189.99648526077098	190.08938775510205	68	127
190.0661678004535	190.1009977324263	51	127
190.08938775510205	190.20548752834466	72	127
190.21709750566893	190.5421768707483	50	127
190.21709750566893	190.34480725623584	74	127
190.35641723356008	190.46090702947845	69	127
190.47251700680272	190.56539682539682	65	127
190.56539682539682	190.704716553288	69	127
190.71632653061224	190.84403628117914	65	127
190.78598639455782	190.97174603174602	33	127
190.8556462585034	190.97174603174602	62	127
190.97174603174602	191.09945578231293	65	127
190.97174603174602	191.18072562358276	38	127
191.1110657596372	191.23877551020408	62	127
191.18072562358276	191.27360544217686	36	127
191.25038548752835	191.30843537414967	57	127
191.30843537414967	191.43614512471655	62	127
191.30843537414967	191.3897052154195	35	127
191.44775510204082	191.5174149659864	57	127
191.45936507936509	191.54063492063491	33	127
191.52902494331065	191.64512471655328	53	127
191.65673469387755	191.7960544217687	50	127
191.65673469387755	191.98181405895693	31	127
191.80766439909297	191.93537414965985	55	127
191.94698412698412	192.00503401360544	59	127
192.0166439909297	192.15596371882086	55	127
192.15596371882086	192.28367346938776	59	127
192.22562358276645	192.4229931972789	50	127
192.295283446712	192.41138321995464	62	127
192.4229931972789	192.5507029478458	59	127
192.4229931972789	192.62036281179138	55	127
192.5507029478458	192.65519274376416	62	127
192.62036281179138	192.66680272108843	53	127
192.66680272108843	192.7480725623583	67	127
192.75968253968253	192.82934240362812	51	127
192.75968253968253	192.8641723356009	62	127
192.8641723356009	192.9918820861678	67	127
192.9338321995465	193.01510204081632	50	127
193.00349206349208	193.11959183673468	71	127
193.13120181405895	193.51433106575965	48	127
193.2705215419501	193.398231292517	72	127
193.40984126984128	193.53755102040816	75	127
193.54916099773243	193.63043083900226	79	127
193.63043083900226	193.76975056689344	84	127
193.76975056689344	193.90907029478458	87	127
193.92068027210885	194.25736961451247	41	127
193.92068027210885	194.25736961451247	53	127
194.06	194.1528798185941	72	127
194.1528798185941	194.280589569161	75	127
194.280589569161	194.38507936507938	81	127
194.39668934240362	194.51278911564626	84	127
194.52439909297053	194.6521088435374	87	127
194.66371882086167	194.98879818594105	46	127
194.66371882086167	194.98879818594105	34	127
194.7798185941043	194.88430839002268	70	127
194.89591836734695	195.01201814058956	74	127
195.01201814058956	195.09328798185942	77	127
195.10489795918366	195.20938775510203	82	127
195.2209977324263	195.33709750566894	86	127
195.33709750566894	195.7202267573696	51	127
195.33709750566894	195.7202267573696	39	127
195.48802721088435	195.61573696145123	70	127
195.6273469387755	195.74344671201814	74	127
195.74344671201814	195.85954648526078	79	127
195.87115646258502	195.99886621315193	82	127
196.0104761904762	196.1033560090703	86	127
196.11496598639457	196.42843537414967	33	127
196.11496598639457	196.42843537414967	45	127
196.21945578231293	196.3471655328798	69	127
196.3471655328798	196.4400453514739	72	127
196.45165532879818	196.55614512471655	76	127
196.55614512471655	196.68385487528346	81	127
196.6954648526077	196.8231746031746	84	127
196.83478458049888	197.15986394557822	50	127
196.83478458049888	197.15986394557822	38	127
196.97410430839003	197.0785941043084	69	127
197.09020408163266	197.1714739229025	72	127
197.18308390022676	197.2991836734694	78	127
197.31079365079364	197.415283446712	81	127
197.42689342403628	197.51977324263038	84	127
197.54299319727892	197.85646258503402	70	127
197.54299319727892	197.85646258503402	67	127
197.54299319727892	197.85646258503402	62	127
197.54299319727892	197.85646258503402	43	127
197.54299319727892	197.85646258503402	31	127
198.25120181405896	198.58789115646258	67	127
198.25120181405896	198.58789115646258	36	127
198.25120181405896	198.58789115646258	76	127
198.25120181405896	198.58789115646258	70	127
198.25120181405896	198.58789115646258	48	127
198.7968707482993	199.00585034013605	72	127
199.00585034013605	200.37582766439908	41	127
199.00585034013605	199.20321995464852	84	127
199.00585034013605	199.20321995464852	81	127
199.00585034013605	200.37582766439908	53	127
199.20321995464852	199.28448979591838	82	127
199.20321995464852	199.28448979591838	79	127
199.41219954648525	199.4934693877551	81	127
199.41219954648525	199.4934693877551	77	127
199.60956916099772	199.6792290249433	79	127
199.60956916099772	199.6792290249433	76	127
199.79532879818595	199.841768707483	77	127
199.79532879818595	199.841768707483	74	127
199.94625850340137	200.0043083900227	72	127
199.94625850340137	200.0043083900227	76	127
200.13201814058957	200.21328798185942	74	127
200.13201814058957	200.21328798185942	70	127
200.29455782312925	200.37582766439908	69	127
200.29455782312925	200.37582766439908	72	127
200.49192743764172	200.58480725623582	67	127
200.49192743764172	201.8502947845805	48	127
200.49192743764172	201.8502947845805	36	127
200.49192743764172	200.58480725623582	70	127
200.67768707482992	200.7473469387755	69	127
200.67768707482992	200.7473469387755	65	127
200.87505668934241	200.95632653061224	67	127
200.87505668934241	200.95632653061224	64	127
201.02598639455783	201.07242630385488	62	127
201.02598639455783	201.07242630385488	65	127
201.17691609977325	201.26979591836735	64	127
201.17691609977325	201.26979591836735	60	127
201.33945578231294	201.42072562358277	62	127
201.33945578231294	201.42072562358277	58	127
201.5716553287982	201.6645351473923	60	127
201.5716553287982	201.6645351473923	57	127
201.7922448979592	201.86190476190475	55	127
201.7922448979592	201.86190476190475	58	127
202.00122448979593	202.32630385487528	57	127
202.00122448979593	202.32630385487528	53	127
202.00122448979593	202.32630385487528	29	127
202.00122448979593	202.32630385487528	41	127
203.55696145124716	204.079410430839	53	127
203.55696145124716	204.079410430839	41	127
203.55696145124716	204.079410430839	64	127
203.55696145124716	204.079410430839	58	127
203.55696145124716	204.079410430839	55	127
204.6715192743764	204.84566893424036	60	127
204.84566893424036	205.0546485260771	72	127
204.84566893424036	205.0546485260771	69	127
205.0546485260771	205.12430839002266	70	127
205.0546485260771	205.12430839002266	67	127
205.2404081632653	205.32167800453516	69	127
205.2404081632653	205.32167800453516	65	127
205.42616780045353	205.50743764172336	64	127
205.42616780045353	205.50743764172336	67	127
205.623537414966	205.7396371882086	65	127
205.623537414966	205.7396371882086	62	127
205.84412698412697	205.92539682539683	64	127
205.84412698412697	205.92539682539683	60	127
206.01827664399093	206.09954648526076	58	127
206.01827664399093	206.09954648526076	62	127
206.20403628117913	206.285306122449	60	127
206.20403628117913	206.285306122449	57	127
206.41301587301587	206.49428571428572	58	127
206.41301587301587	206.49428571428572	55	127
206.61038548752833	206.6916553287982	53	127
206.61038548752833	206.6916553287982	57	127
206.7845351473923	206.85419501133788	55	127
206.7845351473923	206.85419501133788	52	127
206.9702947845805	207.05156462585035	53	127
206.9702947845805	207.05156462585035	50	127
207.17927437641723	207.26054421768708	48	127
207.17927437641723	207.26054421768708	52	127
207.3766439909297	207.434693877551	46	127
207.3766439909297	207.434693877551	50	127
207.55079365079365	207.60884353741497	48	127
207.55079365079365	207.60884353741497	45	127
207.7249433106576	207.88748299319727	69	127
207.7249433106576	207.8178231292517	46	127
207.7249433106576	207.8178231292517	43	127
207.89909297052154	207.9803628117914	77	127
207.89909297052154	208.24739229024942	45	127
207.89909297052154	208.24739229024942	41	127
208.08485260770976	208.15451247165532	72	127
208.27061224489796	208.3518820861678	77	127
208.4795918367347	208.5724716553288	79	127
208.65374149659863	209.33873015873016	72	127
208.65374149659863	208.72340136054422	81	127
208.65374149659863	209.6986394557823	65	127
208.81628117913831	208.8859410430839	82	127
208.8859410430839	208.9556009070295	81	127
208.9556009070295	209.02526077097505	79	127
209.02526077097505	209.18780045351474	81	127
209.18780045351474	209.2342403628118	82	127
209.33873015873016	209.42	79	127
209.33873015873016	209.6986394557823	70	127
209.53609977324263	209.61736961451248	76	127
209.7334693877551	209.80312925170068	79	127
209.89600907029478	209.96566893424037	81	127
210.09337868480725	211.13827664399093	65	127
210.09337868480725	210.18625850340135	82	127
210.09337868480725	210.8015873015873	76	127
210.25591836734694	210.29074829931972	84	127
210.302358276644	210.3604081632653	82	127
210.37201814058957	210.4300680272109	81	127
210.44167800453513	210.62743764172336	82	127
210.63904761904763	210.7087074829932	84	127
210.8015873015873	210.87124716553288	81	127
210.8015873015873	211.13827664399093	75	127
210.9989569160998	211.06861678004535	77	127
211.17310657596371	211.2079365079365	81	127
211.3356462585034	211.405306122449	82	127
211.50979591836736	212.5314739229025	65	127
211.50979591836736	211.57945578231292	84	127
211.50979591836736	212.20639455782313	75	127
211.6839455782313	211.75360544217688	86	127
211.75360544217688	211.76521541950115	84	127
211.76521541950115	211.8348752834467	82	127
211.84648526077098	212.00902494331066	84	127
212.02063492063493	212.10190476190476	86	127
212.20639455782313	212.28766439909296	82	127
212.20639455782313	212.5314739229025	74	127
212.39215419501133	212.4734240362812	77	127
212.55469387755102	212.63596371882088	82	127
212.77528344671202	212.84494331065758	84	127
212.9378231292517	212.96104308390022	86	127
212.9378231292517	214.0059410430839	65	127
212.9378231292517	213.66925170068026	70	127
213.05392290249432	213.11197278911564	87	127
213.1235827664399	213.18163265306123	86	127
213.18163265306123	213.2512925170068	84	127
213.2512925170068	213.44866213151928	86	127
213.4718820861678	213.5647619047619	87	127
213.66925170068026	214.0059410430839	69	127
213.66925170068026	213.75052154195012	84	127
213.83179138321995	213.9130612244898	81	127
214.0407709750567	214.1336507936508	84	127
214.2265306122449	214.319410430839	86	127
214.42390022675738	214.51678004535148	87	127
214.6328798185941	214.70253968253968	89	127
214.71414965986395	214.77219954648527	87	127
214.78380952380954	214.81863945578232	86	127
214.8302494331066	214.91151927437642	87	127
214.9231292517007	215.01600907029479	89	127
215.13210884353742	215.20176870748298	86	127
215.3294784580499	215.39913832199545	87	127
215.39913832199545	215.44557823129253	86	127
215.44557823129253	215.50362811791382	84	127
215.5152380952381	215.6661678004535	86	127
215.67777777777778	215.77065759637188	87	127
215.86353741496598	215.94480725623583	84	127
216.0144671201814	216.08412698412698	86	127
216.08412698412698	216.1421768707483	84	127
216.1421768707483	216.2118367346939	82	127
216.2118367346939	216.3627664399093	84	127
216.37437641723355	216.4556462585034	86	127
216.57174603174604	216.66462585034014	82	127
216.74589569160997	216.79233560090702	84	127
216.79233560090702	216.8619954648526	82	127
216.8619954648526	216.92004535147393	81	127
216.92004535147393	217.09419501133786	82	127
217.10580498866213	217.18707482993196	84	127
217.31478458049887	217.40766439909297	81	127
217.53537414965987	217.58181405895692	82	127
217.5934240362812	217.66308390022675	81	127
217.66308390022675	217.73274376417234	79	127
217.73274376417234	217.88367346938776	81	127
217.89528344671203	217.97655328798186	82	127
218.03460317460318	218.12748299319728	79	127
218.23197278911564	218.2784126984127	81	127
218.29002267573696	218.34807256235828	79	127
218.35968253968255	218.41773242630384	78	127
218.41773242630384	218.61510204081634	79	127
218.62671201814058	218.69637188208617	81	127
218.777641723356	218.9401814058957	77	127
219.1839909297052	219.33492063492062	77	127
219.50907029478458	219.55551020408163	77	127
219.55551020408163	220.20566893424035	86	127
219.91541950113378	220.2288888888889	70	127
220.25210884353743	220.29854875283448	75	127
220.29854875283448	220.99514739229025	84	127
220.68167800453514	221.0183673469388	66	127
221.0415873015873	221.09963718820862	74	127
221.09963718820862	221.77301587301588	82	127
221.424716553288	222.08648526077098	67	127
221.80784580498866	222.44639455782314	63	127
221.80784580498866	221.95877551020408	84	127
221.98199546485262	222.13292517006803	82	127
222.1445351473923	222.29546485260772	81	127
222.1445351473923	222.46961451247165	69	127
222.31868480725623	222.48122448979592	79	127
222.4928344671202	222.81791383219954	62	127
222.4928344671202	222.53927437641724	77	127
222.4928344671202	223.47968253968253	70	127
222.65537414965988	222.70181405895693	79	127
222.71342403628117	222.7714739229025	77	127
222.78308390022676	222.85274376417235	76	127
222.85274376417235	223.18943310657596	67	127
222.85274376417235	223.02689342403627	77	127
223.02689342403627	223.10816326530613	79	127
223.22426303854874	223.28231292517006	75	127
223.22426303854874	223.52612244897958	60	127
223.41002267573697	223.47968253968253	77	127
223.47968253968253	223.4912925170068	75	127
223.50290249433107	223.54934240362812	74	127
223.5609523809524	223.75832199546485	75	127
223.5609523809524	223.9673015873016	69	127
223.5609523809524	223.9673015873016	65	127
223.76993197278912	223.86281179138322	77	127
224.00213151927437	224.3968707482993	70	127
224.00213151927437	224.3968707482993	58	127
224.00213151927437	224.43170068027212	75	127
224.43170068027212	224.83804988662132	74	127
224.83804988662132	225.02380952380952	72	127
225.0354195011338	225.15151927437643	74	127
225.15151927437643	225.88294784580498	53	127
225.15151927437643	225.3140589569161	75	127
225.15151927437643	225.5346485260771	57	127
225.15151927437643	225.5346485260771	51	127
225.32566893424035	225.52303854875282	72	127
225.5346485260771	225.88294784580498	50	127
225.5346485260771	225.73201814058956	77	127
225.5346485260771	225.88294784580498	58	127
225.74362811791383	225.89455782312925	74	127
225.90616780045352	225.99904761904762	70	127
226.12675736961452	226.19641723356008	70	127
226.27768707482994	226.42861678004536	72	127
226.4402267573696	226.59115646258505	74	127
226.6027664399093	226.98589569160998	51	127
226.6027664399093	226.78852607709752	75	127
226.6027664399093	226.98589569160998	57	127
226.6027664399093	227.31097505668933	53	127
226.81174603174603	226.9742857142857	72	127
226.98589569160998	227.31097505668933	58	127
226.98589569160998	227.18326530612245	77	127
226.98589569160998	227.31097505668933	50	127
227.19487528344672	227.3225850340136	74	127
227.33419501133787	227.42707482993197	82	127
227.53156462585034	227.60122448979592	82	127
227.7057142857143	227.87986394557822	82	127
227.87986394557822	228.00757369614513	77	127
228.0191836734694	228.08884353741496	86	127
228.22816326530614	228.32104308390024	86	127
228.41392290249433	229.7722902494331	60	127
228.41392290249433	228.49519274376416	86	127
228.41392290249433	228.98281179138323	69	127
228.49519274376416	228.65773242630385	84	127
228.6809523809524	228.8667120181406	82	127
228.87832199546486	229.02925170068028	81	127
229.04086167800455	229.09891156462584	79	127
229.04086167800455	230.27151927437643	70	127
229.09891156462584	229.15696145124716	81	127
229.15696145124716	229.26145124716552	79	127
229.2730612244898	229.47043083900226	77	127
229.48204081632653	229.69102040816327	79	127
229.70263038548754	229.8651700680272	81	127
229.87678004535147	230.27151927437643	79	127
229.87678004535147	230.561768707483	65	127
230.29473922902494	230.59659863945578	69	127
230.29473922902494	230.45727891156463	77	127
230.4688888888889	230.60820861678005	76	127
230.61981859410432	230.67786848072564	75	127
230.67786848072564	230.72430839002268	77	127
230.72430839002268	230.782358276644	75	127
230.80557823129251	230.97972789115647	74	127
230.9913378684807	231.16548752834467	75	127
231.17709750566894	231.38607709750568	77	127
231.39768707482995	231.58344671201814	74	127
231.5950566893424	231.80403628117915	77	127
231.8156462585034	232.10589569161	46	127
231.8156462585034	232.10589569161	58	127
231.8156462585034	231.9665759637188	74	127
231.9665759637188	232.1291156462585	70	127
232.14072562358277	232.31487528344672	69	127
232.32648526077097	232.45419501133787	75	127
232.46580498866214	232.61673469387756	72	127
232.46580498866214	232.7560544217687	54	127
232.46580498866214	232.7560544217687	42	127
232.6283446712018	232.76766439909298	69	127
232.7908843537415	232.98825396825396	67	127
232.99986394557823	233.18562358276645	74	127
233.20884353741496	233.52231292517007	55	127
233.20884353741496	233.52231292517007	43	127
233.20884353741496	233.38299319727892	70	127
233.39460317460316	233.53392290249434	67	127
233.54553287981858	234.21891156462584	39	127
233.54553287981858	233.69646258503403	58	127
233.54553287981858	234.21891156462584	51	127
233.70807256235827	233.8938321995465	67	127
233.90544217687074	234.10281179138323	60	127
234.11442176870747	234.25374149659865	69	127
234.2653514739229	234.4627210884354	70	127
234.2653514739229	234.62526077097505	50	127
234.2653514739229	234.62526077097505	38	127
234.47433106575963	234.64848072562359	62	127
234.66009070294785	234.9619501133787	55	127
234.66009070294785	234.799410430839	70	127
234.66009070294785	234.9619501133787	43	127
234.799410430839	234.9851700680272	62	127
234.99678004535147	235.37990929705217	48	127
234.99678004535147	235.37990929705217	36	127
234.99678004535147	235.19414965986394	70	127
235.21736961451248	235.40312925170068	60	127
235.41473922902495	235.80947845804988	53	127
235.41473922902495	235.6121088435374	69	127
235.41473922902495	235.80947845804988	41	127
235.62371882086168	235.83269841269842	60	127
235.83269841269842	236.2506575963719	72	127
235.83269841269842	236.2506575963719	69	127
235.83269841269842	236.57573696145124	34	127
235.83269841269842	236.57573696145124	46	127
236.2506575963719	236.61056689342405	70	127
236.94725623582767	237.29555555555555	69	127
236.94725623582767	237.29555555555555	60	127
236.94725623582767	237.29555555555555	51	127
236.94725623582767	237.29555555555555	39	127
236.94725623582767	237.6322448979592	65	127
237.29555555555555	237.6322448979592	70	127
237.29555555555555	237.6322448979592	62	127
237.29555555555555	237.6322448979592	50	127
237.29555555555555	237.6322448979592	38	127
238.39850340136056	238.74680272108844	60	127
238.39850340136056	238.74680272108844	69	127
238.39850340136056	238.74680272108844	51	127
238.39850340136056	238.74680272108844	39	127
238.39850340136056	239.15315192743765	65	127
238.74680272108844	239.15315192743765	70	127
238.74680272108844	239.15315192743765	62	127
238.74680272108844	239.15315192743765	50	127
238.74680272108844	239.15315192743765	38	127
240.2677097505669	241.66090702947847	53	127
240.2677097505669	241.66090702947847	41	127
240.47668934240363	240.65083900226756	58	127
240.66244897959183	240.81337868480725	62	127
240.82498866213152	241.02235827664398	65	127
241.03396825396825	241.23133786848072	70	127
241.242947845805	241.37065759637187	69	127
241.3938775510204	241.56802721088437	72	127
241.5796371882086	241.75378684807256	75	127
241.77700680272108	242.09047619047618	74	127
241.77700680272108	242.09047619047618	58	127
241.77700680272108	242.09047619047618	46	127
243.23986394557824	244.77238095238096	53	127
243.23986394557824	244.77238095238096	41	127
243.44884353741497	243.64621315192744	70	127
243.6578231292517	243.83197278911564	65	127
243.85519274376418	244.04095238095238	62	127
244.05256235827665	244.26154195011338	58	127
244.27315192743765	244.4821315192744	62	127
244.49374149659863	244.6911111111111	60	127
244.70272108843537	244.8884807256236	57	127
244.90009070294784	245.2948299319728	58	127
244.90009070294784	245.2948299319728	46	127
244.90009070294784	245.2948299319728	34	127
245.32965986394558	245.72439909297051	58	127
245.75922902494332	245.8869387755102	70	127
245.8869387755102	246.08430839002267	84	127
246.1075283446712	246.31650793650795	82	127
246.3281179138322	246.49065759637188	80	127
246.49065759637188	247.88385487528345	68	127
246.49065759637188	246.65319727891156	79	127
246.49065759637188	247.88385487528345	74	127
246.49065759637188	248.22054421768706	70	127
246.65319727891156	246.80412698412698	77	127
246.81573696145125	246.90861678004535	77	127
247.024716553288	247.0827664399093	77	127
247.16403628117914	247.3614058956916	77	127
247.37301587301587	247.3962358276644	79	127
247.3962358276644	247.44267573696146	77	127
247.44267573696146	247.47750566893424	76	127
247.47750566893424	247.5239455782313	77	127
247.5239455782313	247.69809523809525	79	127
247.7097052154195	247.88385487528345	80	127
247.88385487528345	248.06961451247165	81	127
247.88385487528345	248.22054421768706	75	127
247.88385487528345	248.22054421768706	67	127
248.06961451247165	248.23215419501133	82	127
248.23215419501133	248.30181405895692	79	127
248.4295238095238	248.51079365079366	75	127
248.62689342403627	248.80104308390023	68	127
248.8126530612245	248.97519274376418	80	127
248.98680272108842	249.16095238095238	79	127
249.17256235827665	249.34671201814058	77	127
249.35832199546485	250.67024943310656	68	127
249.35832199546485	249.54408163265308	75	127
249.35832199546485	250.67024943310656	71	127
249.35832199546485	250.67024943310656	65	127
249.54408163265308	249.75306122448978	74	127
249.76467120181405	249.8111111111111	74	127
249.91560090702947	249.95043083900228	74	127
250.07814058956916	250.18263038548753	74	127
250.1942403628118	250.25229024943312	75	127
250.25229024943312	250.29873015873017	74	127
250.29873015873017	250.34517006802722	72	127
250.34517006802722	250.39160997732426	74	127
250.39160997732426	250.57736961451246	75	127
250.58897959183673	250.7863492063492	77	127
250.79795918367347	251.482947845805	64	127
250.79795918367347	250.98371882086167	78	127
250.79795918367347	251.482947845805	70	127
250.79795918367347	251.482947845805	67	127
250.98371882086167	251.15786848072563	79	127
251.1694784580499	251.262358276644	76	127
251.37845804988663	251.42489795918368	72	127
251.51777777777778	252.17954648526077	63	127
251.51777777777778	251.6919274376417	72	127
251.51777777777778	252.17954648526077	69	127
251.51777777777778	252.17954648526077	66	127
251.6919274376417	251.7383673469388	74	127
251.7383673469388	251.80802721088435	72	127
251.80802721088435	251.86607709750567	71	127
251.86607709750567	251.91251700680272	72	127
251.91251700680272	252.0750566893424	74	127
252.08666666666667	252.22598639455782	75	127
252.2375963718821	252.40013605442178	76	127
252.2375963718821	252.5510657596372	70	127
252.2375963718821	252.5510657596372	65	127
252.2375963718821	252.5510657596372	62	127
252.40013605442178	252.5742857142857	77	127
252.58589569160998	252.6671655328798	70	127
252.79487528344671	252.87614512471654	86	127
252.9806349206349	253.073514739229	84	127
253.16639455782314	253.2360544217687	82	127
253.34054421768707	253.41020408163266	81	127
253.51469387755103	253.58435374149659	79	127
253.70045351473922	253.94426303854874	77	127
253.94426303854874	254.13002267573697	76	127
254.14163265306124	255.04721088435375	69	127
254.14163265306124	255.04721088435375	75	127
254.14163265306124	255.04721088435375	60	127
254.14163265306124	255.04721088435375	54	127
255.04721088435375	255.38390022675736	74	127
255.04721088435375	255.38390022675736	70	127
255.04721088435375	255.38390022675736	58	127
255.04721088435375	255.38390022675736	55	127
255.4071201814059	256.11532879818594	55	127
255.4071201814059	255.53482993197278	74	127
255.4071201814059	256.4752154195011	51	127
255.54643990929705	255.65092970521542	71	127
255.6625396825397	255.79024943310657	72	127
255.79024943310657	255.8831292517007	74	127
255.89473922902494	256.02244897959184	75	127
256.0340589569161	256.161768707483	77	127
256.161768707483	256.83514739229025	60	127
256.161768707483	256.30108843537414	79	127
256.3126984126984	256.4404081632653	77	127
256.4520181405896	256.5332879818594	75	127
256.5332879818594	256.6377777777778	74	127
256.5332879818594	256.86997732426306	52	127
256.6377777777778	256.77709750566896	72	127
256.78868480725623	256.8931746031746	70	127
256.9048072562358	257.05573696145126	69	127
256.9048072562358	257.28793650793654	60	127
256.9048072562358	257.28793650793654	53	127
257.05573696145126	257.18344671201817	77	127
257.19503401360544	257.311156462585	72	127
257.3227664399093	257.4156462585034	81	127
257.4156462585034	257.55496598639456	77	127
257.56657596371883	257.65945578231293	84	127
257.6710657596372	257.7639455782313	82	127
257.77555555555557	257.8916553287982	81	127
257.8916553287982	257.93809523809523	79	127
257.9497052154195	258.37927437641724	60	127
257.9497052154195	258.0890249433107	77	127
257.9497052154195	258.37927437641724	70	127
257.9497052154195	258.37927437641724	67	127
258.10063492063495	258.23995464852607	79	127
258.23995464852607	258.367664399093	76	127
258.37927437641724	258.6811337868481	69	127
258.37927437641724	258.6811337868481	65	127
258.37927437641724	258.4837641723356	77	127
258.4953741496599	258.634693877551	81	127
258.634693877551	258.7043537414966	72	127
258.7159637188209	258.84367346938774	77	127
258.855283446712	258.9829931972789	69	127
258.9829931972789	259.1107029478458	72	127
259.1223129251701	259.25002267573694	70	127
259.2616326530612	259.4009523809524	69	127
259.41256235827666	259.5518820861678	67	127
259.5751020408163	260.2136507936508	58	127
259.5751020408163	260.2136507936508	48	127
259.5751020408163	259.72603174603177	65	127
259.5751020408163	260.2136507936508	55	127
259.73764172335603	260.05108843537414	67	127
260.0743310657596	260.2136507936508	64	127
260.2136507936508	260.41102040816327	65	127
260.2136507936508	260.79414965986393	57	127
260.2136507936508	260.79414965986393	53	127
260.42263038548754	260.62	69	127
260.6316099773243	260.82897959183674	60	127
260.82897959183674	260.9682993197279	65	127
260.9798866213152	261.10761904761904	57	127
261.1540589569161	261.281746031746	60	127
261.29337868480724	261.4675283446712	58	127
261.4791383219955	261.60684807256234	57	127
261.6184580498866	261.7577777777778	55	127
261.76938775510206	262.26861678004536	46	127
261.76938775510206	262.26861678004536	43	127
261.76938775510206	262.26861678004536	36	127
261.76938775510206	261.95514739229026	53	127
261.95514739229026	262.1060544217687	55	127
262.1176870748299	262.2570068027211	52	127
262.26861678004536	262.8026757369615	45	127
262.26861678004536	262.39632653061227	53	127
262.26861678004536	262.8026757369615	41	127
262.39632653061227	262.55886621315193	55	127
262.5704761904762	262.6633560090703	53	127
262.67496598639457	262.87233560090704	52	127
262.87233560090704	262.9768253968254	53	127
262.9768253968254	263.15097505668933	57	127
263.15097505668933	263.2554648526077	55	127
263.26707482993197	263.37156462585034	58	127
263.37156462585034	263.49927437641725	57	127
263.49927437641725	263.6037641723356	60	127
263.6037641723356	263.6734240362812	58	127
263.68503401360545	263.77791383219954	62	127
263.7895238095238	263.8940136054422	60	127
263.8940136054422	263.975283446712	63	127
263.975283446712	264.0797732426304	62	127
264.0797732426304	264.1610430839002	65	127
264.1726530612245	264.54417233560093	63	127
264.9737414965986	265.0665986394558	81	127
265.078231292517	265.1595011337869	84	127
265.1595011337869	265.22916099773244	82	127
265.22916099773244	265.298820861678	86	127
265.298820861678	265.40331065759636	84	127
265.40331065759636	265.4613605442177	87	127
265.4613605442177	265.5542403628118	86	127
265.5542403628118	265.63551020408164	89	127
265.63551020408164	265.99541950113377	87	127
267.27251700680273	267.48149659863947	62	127
267.27251700680273	267.6904761904762	46	127
267.27251700680273	267.6904761904762	34	127
267.49310657596374	267.71369614512474	58	127
267.7369160997732	267.9110657596372	65	127
267.9226530612245	268.0968253968254	58	127
268.1084353741497	268.45673469387754	46	127
268.1084353741497	268.2825850340136	62	127
268.1084353741497	268.45673469387754	34	127
268.2825850340136	268.4799546485261	58	127
268.49156462585034	268.7005442176871	65	127
268.71215419501135	268.9211337868481	58	127
268.93274376417236	269.30426303854875	46	127
268.93274376417236	269.1068934240363	62	127
268.93274376417236	269.30426303854875	34	127
269.11850340136056	269.315873015873	58	127
269.3274829931973	269.49002267573695	65	127
269.5016326530612	269.6873922902494	58	127
269.71061224489796	270.0937414965986	46	127
269.71061224489796	269.89637188208616	70	127
269.71061224489796	270.0937414965986	34	127
269.9079818594104	270.1053514739229	58	127
270.11696145124716	270.30272108843536	65	127
270.30272108843536	270.4884580498866	58	127
270.50009070294783	270.86	34	127
270.50009070294783	270.66263038548755	63	127
270.50009070294783	270.86	46	127
270.6742403628118	270.8716099773243	58	127
270.88321995464855	271.06897959183675	70	127
271.080589569161	271.28956916099776	58	127
271.301156462585	271.4869387755102	67	127
271.301156462585	271.66108843537415	46	127
271.301156462585	271.66108843537415	34	127
271.51013605442176	271.6843083900227	58	127
271.69591836734696	271.8584580498866	70	127
271.8700680272109	272.00938775510207	58	127
272.00938775510207	272.19514739229027	66	127
272.00938775510207	272.3692970521542	46	127
272.00938775510207	272.3692970521542	34	127
272.20675736961454	272.39251700680273	58	127
272.404126984127	272.5550566893424	70	127
272.5550566893424	272.7175963718821	58	127
272.7291836734694	273.1239455782313	34	127
272.7291836734694	272.9381632653061	60	127
272.7291836734694	273.1239455782313	46	127
272.94979591836733	273.14714285714285	58	127
273.15877551020407	273.35614512471653	66	127
273.3677551020408	273.55349206349206	58	127
273.56512471655327	273.7160544217687	63	127
273.56512471655327	273.9018140589569	46	127
273.56512471655327	273.9018140589569	34	127
273.727664399093	273.9134240362812	60	127
273.9366439909297	274.1224036281179	57	127
274.1340136054422	274.2617006802721	60	127
274.27331065759637	274.42426303854876	57	127
274.27331065759637	274.5984126984127	46	127
274.27331065759637	274.5984126984127	34	127
274.435873015873	274.61002267573696	60	127
274.6216326530612	274.79578231292516	63	127
274.8073922902494	275.0047619047619	60	127
275.01637188208616	275.3878684807256	62	127
275.01637188208616	275.3878684807256	46	127
275.01637188208616	275.3878684807256	34	127
275.8290702947846	276.1309297052154	60	127
275.8290702947846	276.1309297052154	52	127
275.8290702947846	276.1309297052154	40	127
275.8290702947846	276.1309297052154	70	127
275.8290702947846	276.1309297052154	67	127
276.60693877551023	277.5357142857143	74	127
276.60693877551023	277.5357142857143	62	127
276.60693877551023	277.8375963718821	53	127
276.60693877551023	277.8375963718821	41	127
276.60693877551023	277.9072562358277	65	127
277.5357142857143	277.9072562358277	72	127
277.5357142857143	277.9072562358277	60	127
278.37165532879817	278.5806349206349	34	127
278.5922448979592	278.7780045351474	46	127
278.8012244897959	278.9985941043084	38	127
279.01020408163265	279.19596371882085	46	127
279.2075736961451	279.4049433106576	41	127
279.41655328798186	279.6139229024943	46	127
279.6255328798186	279.85773242630387	38	127
279.86934240362814	280.05510204081634	46	127
280.0667120181406	280.2640816326531	34	127
280.27569160997734	280.3801814058957	46	127
280.39179138322	280.5659410430839	38	127
280.5775510204082	280.7865306122449	70	127
280.5775510204082	280.77492063492065	46	127
280.7865306122449	280.9374603174603	41	127
280.7865306122449	280.96068027210885	74	127
280.96068027210885	281.0071201814059	72	127
280.96068027210885	281.1	46	127
281.1115873015873	281.1928798185941	70	127
281.1115873015873	281.27414965986395	38	127
281.27414965986395	281.4715192743764	46	127
281.27414965986395	281.36702947845805	69	127
281.4831292517007	281.68049886621316	34	127
281.4831292517007	281.8430385487528	67	127
281.6921088435374	281.86625850340135	46	127
281.8778684807256	282.0636281179138	43	127
282.0752380952381	282.2609977324263	46	127
282.0752380952381	282.27260770975056	75	127
282.27260770975056	282.4351473922903	79	127
282.27260770975056	282.423537414966	39	127
282.4351473922903	282.5164172335601	77	127
282.4351473922903	282.5628571428571	46	127
282.5744671201814	282.6209070294785	75	127
282.5744671201814	282.7370068027211	43	127
282.7485941043084	282.8066666666667	74	127
282.7485941043084	282.8879365079365	46	127
282.91115646258504	283.27106575963717	72	127
282.91115646258504	283.1085260770975	34	127
283.1201360544218	283.28267573696144	46	127
283.30589569161	283.4800453514739	39	127
283.4916553287982	283.67739229024943	46	127
283.4916553287982	283.68902494331064	84	127
283.68902494331064	283.8631746031746	42	127
283.68902494331064	283.8747619047619	87	127
283.8747619047619	283.9212244897959	85	127
283.8747619047619	284.00249433106575	46	127
284.01410430839	284.1069841269841	84	127
284.01410430839	284.2114739229025	39	127
284.22308390022675	284.40884353741495	46	127
284.22308390022675	284.3043537414966	82	127
284.4204535147392	284.62943310657596	82	127
284.4204535147392	284.62943310657596	34	127
284.64104308390023	284.8384126984127	46	127
284.64104308390023	284.8384126984127	81	127
284.85002267573697	285.0125623582766	79	127
284.85002267573697	285.0125623582766	36	127
285.0241723356009	285.22154195011336	46	127
285.0241723356009	285.22154195011336	77	127
285.23315192743763	285.3840816326531	76	127
285.23315192743763	285.3840816326531	39	127
285.4072789115646	285.4769614512472	77	127
285.4072789115646	285.4769614512472	46	127
285.4769614512472	285.6511111111111	79	127
285.4769614512472	285.6511111111111	36	127
285.6627210884354	285.8717006802721	46	127
285.6627210884354	285.8717006802721	81	127
285.8833106575964	286.22	34	127
285.8833106575964	286.13873015873014	82	127
286.1503401360544	286.2432199546485	82	127
286.2548299319728	286.33607709750567	84	127
286.33607709750567	286.42895691609976	82	127
286.42895691609976	286.52185941043086	81	127
286.53344671201813	286.61473922902496	82	127
286.62634920634923	286.84691609977324	84	127
286.62634920634923	286.93979591836734	70	127
286.62634920634923	286.93979591836734	64	127
286.85854875283445	286.9630385487528	84	127
286.9746485260771	287.02108843537417	86	127
287.02108843537417	287.12557823129254	84	127
287.12557823129254	287.1952380952381	83	127
287.1952380952381	287.2881179138322	84	127
287.29972789115646	287.70607709750567	65	127
287.29972789115646	287.70607709750567	86	127
287.29972789115646	287.70607709750567	70	127
287.7292970521542	288.3330158730159	87	127
287.7292970521542	288.3330158730159	75	127
287.7292970521542	288.4607256235828	70	127
287.7292970521542	288.4607256235828	67	127
288.37943310657596	288.43750566893425	74	127
288.43750566893425	288.5187755102041	75	127
288.5187755102041	288.6000453514739	77	127
288.5187755102041	288.80902494331065	58	127
288.5187755102041	288.80902494331065	51	127
288.6116553287982	288.7045351473923	75	127
288.7045351473923	288.75097505668936	74	127
288.75097505668936	288.8322448979592	72	127
288.8322448979592	289.13410430839	58	127
288.8322448979592	288.89027210884353	72	127
288.8322448979592	289.13410430839	50	127
288.89027210884353	288.9947619047619	70	127
289.0063945578231	289.07605442176873	69	127
289.07605442176873	289.16893424036283	70	127
289.16893424036283	289.2269841269841	69	127
289.2269841269841	289.3314739229025	70	127
289.34308390022676	289.43596371882086	69	127
289.4475736961451	289.5520634920635	70	127
289.5520634920635	289.9119501133787	58	127
289.5520634920635	289.65655328798186	74	127
289.5520634920635	289.9119501133787	51	127
289.65655328798186	289.76104308390023	72	127
289.7726530612245	289.84231292517006	71	127
289.85392290249433	289.94680272108843	72	127
289.94680272108843	290.0048299319728	71	127
290.0048299319728	290.0861224489796	72	127
290.0861224489796	290.1790022675737	71	127
290.190612244898	290.26027210884354	72	127
290.2718820861678	290.6201587301587	74	127
290.2718820861678	290.6201587301587	58	127
290.2718820861678	290.6201587301587	53	127
290.6550113378685	291.33997732426303	75	127
290.6550113378685	291.33997732426303	63	127
290.6550113378685	291.33997732426303	58	127
290.6550113378685	291.33997732426303	55	127
291.4096598639456	291.5838095238095	76	127
291.4096598639456	291.5838095238095	65	127
291.4096598639456	291.5838095238095	48	127
291.4096598639456	291.5838095238095	36	127
291.8508163265306	291.9669387755102	77	127
291.8508163265306	291.9669387755102	65	127
291.8508163265306	291.9669387755102	53	127
291.8508163265306	291.9669387755102	41	127
292.19913832199546	292.3732879818594	78	127
292.19913832199546	292.3732879818594	66	127
292.19913832199546	292.3732879818594	50	127
292.19913832199546	292.3732879818594	38	127
292.6403174603175	292.80285714285714	79	127
292.6403174603175	292.80285714285714	67	127
292.6403174603175	292.80285714285714	51	127
292.6403174603175	292.80285714285714	39	127
293.42979591836735	294.9855328798186	43	127
293.42979591836735	294.9855328798186	31	127
293.5691156462585	293.68521541950116	53	127
293.69680272108843	293.8477551020408	56	127
293.8593650793651	294.0102947845805	59	127
294.0102947845805	294.14961451247166	56	127
294.1612244897959	294.27732426303857	53	127
294.28893424036283	294.42825396825396	59	127
294.42825396825396	294.56757369614513	55	127
294.56757369614513	294.69528344671204	51	127
294.7068934240363	294.82297052154195	59	127
294.83460317460316	294.97392290249434	53	127
294.9855328798186	295.10163265306124	50	127
295.10163265306124	296.54126984126987	36	127
295.22931972789115	295.34544217687073	48	127
295.34544217687073	295.4847619047619	51	127
295.4963718820862	295.6124716553288	55	127
295.6240816326531	295.7750113378685	60	127
295.7750113378685	295.9027210884354	62	127
295.91433106575965	296.018820861678	63	127
296.018820861678	296.1233106575964	62	127
296.1233106575964	296.23941043083903	60	127
296.2509977324263	296.37873015873015	58	127
296.3903401360544	296.5180498866213	56	127
296.5296598639456	296.64575963718823	55	127
296.6573469387755	296.7618367346939	53	127
296.6573469387755	298.05056689342405	38	127
296.7734693877551	296.8895691609977	55	127
296.901179138322	297.0288888888889	57	127
297.0288888888889	297.1565986394558	60	127
297.1681859410431	297.2959183673469	62	127
297.3075283446712	297.4352380952381	63	127
297.4352380952381	297.5745351473923	65	127
297.5861678004535	297.64421768707484	63	127
297.6558276643991	297.77192743764175	62	127
297.783514739229	297.92285714285714	60	127
297.9344671201814	298.05056689342405	58	127
298.05056689342405	298.1550566893424	56	127
298.1666666666667	298.80519274376417	39	127
298.2943537414966	298.4336961451247	55	127
298.445306122449	298.5265759637188	58	127
298.5265759637188	298.66589569161	63	127
298.66589569161	298.73555555555555	67	127
298.73555555555555	298.86326530612246	55	127
298.8748752834467	299.5366439909297	41	127
298.99097505668936	299.1186848072562	57	127
299.1302947845805	299.2580045351474	60	127
299.26961451247166	299.3857142857143	65	127
299.39732426303857	299.4785941043084	69	127
299.49020408163267	299.58308390022677	57	127
299.59469387755104	299.989433106576	43	127
299.73401360544216	299.87333333333333	58	127
299.87333333333333	300.0126530612245	61	127
300.0242403628118	300.3841723356009	45	127
300.12873015873015	300.26807256235827	60	127
300.26807256235827	300.40739229024945	66	127
300.4190022675737	300.7556916099773	46	127
300.55832199546484	300.65120181405894	62	127
300.65120181405894	300.77891156462584	65	127
300.7905215419501	301.1039909297052	43	127
300.8950113378685	301.0227210884354	62	127
301.0227210884354	301.1039909297052	70	127
301.1039909297052	301.44068027210886	67	127
301.1039909297052	301.44068027210886	63	127
301.1039909297052	301.44068027210886	39	127
302.63650793650794	304.07614512471656	41	127
302.85709750566895	303.0544671201814	53	127
303.0660770975057	303.2402267573696	58	127
303.0660770975057	303.2402267573696	62	127
303.26344671201815	303.3679365079365	53	127
303.3795464852608	303.54208616780045	62	127
303.3795464852608	303.54208616780045	58	127
303.5536961451247	303.76267573696146	53	127
303.7742857142857	303.98326530612246	63	127
303.7742857142857	303.98326530612246	57	127
303.99487528344673	304.20385487528347	53	127
304.227052154195	304.4128344671202	46	127
304.227052154195	304.3663945578231	53	127
304.3780045351474	304.48249433106577	58	127
304.48249433106577	304.6102040816327	62	127
304.62181405895694	304.7495238095238	58	127
304.62181405895694	304.7959637188209	56	127
304.62181405895694	304.7959637188209	44	127
304.76113378684806	304.86562358276643	62	127
304.86562358276643	304.95850340136053	65	127
304.9701133786848	305.1442403628118	55	127
304.9701133786848	305.0978231292517	58	127
304.9701133786848	305.1442403628118	43	127
305.109433106576	305.21392290249435	63	127
305.21392290249435	305.3532199546485	67	127
305.36485260770974	305.49256235827664	60	127
305.36485260770974	305.5390022675737	54	127
305.36485260770974	305.5390022675737	42	127
305.5041723356009	305.6318820861678	64	127
305.6434920634921	305.7828117913832	70	127
305.7828117913832	305.9221315192744	60	127
305.7828117913832	305.9569387755102	53	127
305.7828117913832	305.9569387755102	41	127
305.93374149659866	306.02662131519276	65	127
306.038231292517	306.15433106575966	69	127
306.15433106575966	306.30526077097505	62	127
306.15433106575966	306.34009070294786	50	127
306.15433106575966	306.34009070294786	38	127
306.3168707482993	306.4213605442177	69	127
306.43297052154196	306.57226757369614	72	127
306.57226757369614	306.7348299319728	70	127
306.57226757369614	306.7348299319728	67	127
306.57226757369614	306.7348299319728	51	127
306.57226757369614	306.7348299319728	39	127
307.30371882086166	308.75496598639455	43	127
307.30371882086166	308.75496598639455	31	127
308.12802721088434	308.25573696145125	67	127
308.47632653061225	308.6504761904762	67	127
308.88267573696146	309.9391836734694	48	127
308.88267573696146	308.92909297052154	67	127
308.88267573696146	309.9391836734694	36	127
308.92909297052154	309.66054421768706	75	127
309.69537414965987	309.83469387755105	68	127
310.008843537415	310.15977324263037	68	127
310.008843537415	310.39197278911564	48	127
310.008843537415	310.39197278911564	36	127
310.4151927437642	311.5065306122449	50	127
310.4151927437642	311.5065306122449	38	127
310.4151927437642	310.47324263038547	68	127
310.47324263038547	311.1350113378685	77	127
311.1930612244898	311.36721088435377	70	127
311.61102040816326	311.73873015873016	70	127
311.61102040816326	311.92448979591836	50	127
311.61102040816326	311.92448979591836	38	127
311.93609977324263	312.261179138322	51	127
311.93609977324263	311.9825396825397	70	127
311.93609977324263	312.261179138322	39	127
311.9825396825397	312.62108843537413	79	127
312.6791383219955	313.06226757369615	53	127
312.6791383219955	312.7139455782313	69	127
312.7139455782313	313.41056689342406	77	127
313.46861678004535	313.51505668934243	67	127
313.46861678004535	313.805306122449	61	127
313.46861678004535	313.805306122449	55	127
313.51505668934243	313.5498866213152	76	127
313.5498866213152	313.81691609977327	76	127
313.84013605442175	314.1652154195011	57	127
313.84013605442175	314.1652154195011	75	127
313.84013605442175	314.1652154195011	66	127
314.20004535147393	314.23485260770974	70	127
314.20004535147393	314.55995464852606	65	127
314.20004535147393	314.55995464852606	58	127
314.23485260770974	314.91986394557824	74	127
314.5715646258503	314.95467120181405	67	127
314.5715646258503	314.95467120181405	55	127
314.97791383219953	317.68303854875285	55	127
314.97791383219953	317.68303854875285	51	127
315.14045351473925	315.26814058956916	60	127
315.26814058956916	315.4074829931973	62	127
315.4074829931973	315.54680272108845	63	127
315.5584126984127	315.6629024943311	65	127
315.67448979591836	315.7557823129252	67	127
315.76739229024946	315.91832199546485	69	127
315.9299319727891	316.0344217687075	71	127
316.0344217687075	316.0924716553288	72	127
316.10408163265305	316.2434013605442	74	127
316.2434013605442	316.37111111111113	75	127
316.3826984126984	316.51043083900225	76	127
316.5220408163265	316.6613605442177	77	127
316.6613605442177	316.7890702947846	78	127
316.8006575963719	316.8819501133787	79	127
316.893537414966	317.00965986394556	80	127
317.0212698412698	317.13736961451247	81	127
317.14897959183673	317.23024943310656	82	127
317.24185941043083	317.2999092970522	83	127
317.2999092970522	317.42761904761903	84	127
317.42761904761903	317.52049886621313	85	127
317.52049886621313	317.601768707483	86	127
317.601768707483	317.6714285714286	87	127
317.6714285714286	317.7991383219955	84	127
317.81074829931976	317.8804081632653	85	127
317.81074829931976	319.4593424036281	61	127
317.81074829931976	319.4593424036281	52	127
317.81074829931976	319.85410430839005	58	127
317.81074829931976	319.85410430839005	55	127
317.8920181405896	317.99650793650795	82	127
317.99650793650795	318.1590476190476	79	127
318.1706575963719	318.2867573696145	82	127
318.2983673469388	318.40285714285716	79	127
318.4144671201814	318.55378684807255	76	127
318.5653968253968	318.6931065759637	79	127
318.704716553288	318.8556462585034	76	127
318.86725623582765	319.00657596371883	73	127
319.00657596371883	319.1575056689342	76	127
319.1691156462585	319.30843537414967	73	127
319.3316553287982	319.4593424036281	70	127
319.4593424036281	319.85410430839005	51	127
319.4593424036281	319.58707482993196	73	127
319.4593424036281	319.85410430839005	62	127
319.59868480725623	319.72639455782314	70	127
319.7380045351474	319.85410430839005	67	127
319.8656916099773	319.9818140589569	70	127
319.99342403628117	320.1211337868481	67	127
320.13274376417235	320.248843537415	64	127
320.26045351473925	320.3997732426304	67	127
320.3997732426304	320.4229931972789	64	127
320.4229931972789	320.4346031746032	61	127
320.44621315192745	320.7016326530612	55	127
320.44621315192745	320.7016326530612	43	127
320.44621315192745	320.5623129251701	64	127
320.5623129251701	320.59714285714284	61	127
320.6087528344671	320.72485260770975	58	127
320.736462585034	321.13120181405895	41	127
320.736462585034	321.13120181405895	53	127
320.8757823129252	321.0151020408163	58	127
321.0267120181406	321.1428117913832	62	127
321.1428117913832	321.22408163265305	65	127
321.2356916099773	321.31696145124715	70	127
321.3285714285714	321.44467120181406	74	127
321.45628117913833	321.5259410430839	77	127
321.53755102040816	321.67687074829934	82	127
321.67687074829934	321.792970521542	86	127
321.80455782312924	321.9206802721088	89	127
321.9322902494331	322.04839002267573	86	127
322.04839002267573	322.14126984126983	82	127
322.1528798185941	322.21090702947845	86	127
322.1528798185941	322.25736961451247	65	127
322.21090702947845	322.26897959183674	84	127
322.25736961451247	322.32702947845803	69	127
322.26897959183674	322.30380952380955	86	127
322.3153968253968	322.3850793650794	84	127
322.32702947845803	322.45473922902494	75	127
322.3850793650794	322.4663492063492	86	127
322.4663492063492	322.5592290249433	65	127
322.4779591836735	322.53600907029477	84	127
322.53600907029477	322.58244897959185	86	127
322.5592290249433	322.6869387755102	69	127
322.58244897959185	322.67532879818594	84	127
322.6869387755102	322.76820861678004	86	127
322.6985487528345	322.8146485260771	75	127
322.76820861678004	322.8262358276644	84	127
322.8146485260771	322.95396825396824	65	127
322.8262358276644	322.9075283446712	86	127
322.9191383219955	322.95396825396824	84	127
322.95396825396824	323.0352154195011	69	127
322.95396825396824	323.02362811791386	86	127
323.02362811791386	323.08167800453515	84	127
323.04684807256234	323.1513378684807	75	127
323.08167800453515	323.1513378684807	86	127
323.1513378684807	323.2558276643991	65	127
323.162947845805	323.2209977324263	84	127
323.2209977324263	323.2790476190476	86	127
323.26743764172335	323.3719274376417	69	127
323.2790476190476	323.3487074829932	84	127
323.36031746031745	323.4183673469388	82	127
323.383537414966	323.48802721088435	75	127
323.4183673469388	323.48802721088435	84	127
323.48802721088435	323.83632653061227	74	127
323.48802721088435	323.62734693877553	82	127
323.48802721088435	323.83632653061227	70	127
323.6389569160998	323.74342403628117	89	127
323.74342403628117	323.83632653061227	87	127
323.84791383219954	323.9640362811791	86	127
323.9756462585034	324.0685260770975	84	127
324.08013605442176	324.20784580498866	82	127
324.21945578231293	324.3587528344671	81	127
324.3587528344671	324.5097052154195	79	127
324.52131519274377	324.6490249433107	77	127
324.66063492063495	324.79995464852607	75	127
324.79995464852607	324.927664399093	74	127
324.93927437641725	325.06698412698415	72	127
325.0785714285714	325.39206349206347	70	127
325.1830612244898	325.3224036281179	65	127
325.3224036281179	325.39206349206347	63	127
325.39206349206347	325.4849206349206	62	127
325.4849206349206	325.62426303854875	60	127
325.62426303854875	325.71714285714285	58	127
325.7287528344671	326.10024943310657	72	127
325.7287528344671	325.856462585034	57	127
325.7287528344671	326.10024943310657	69	127
325.7287528344671	326.10024943310657	65	127
325.856462585034	325.9957596371882	55	127
325.9957596371882	326.1118820861678	53	127
326.12349206349205	326.25120181405896	51	127
326.2628117913832	326.3673015873016	50	127
326.3673015873016	326.5065986394558	48	127
326.518231292517	326.87814058956917	46	127
326.6459410430839	326.76204081632653	89	127
326.7736507936508	326.9013605442177	87	127
326.912947845805	327.04068027210883	86	127
327.0522902494331	327.13356009070293	84	127
327.1451700680272	327.2844897959184	82	127
327.2844897959184	327.42378684807255	81	127
327.2844897959184	327.66761904761904	53	127
327.2844897959184	327.66761904761904	41	127
327.4353968253968	327.53990929705213	79	127
327.5515192743764	327.66761904761904	77	127
327.66761904761904	327.79532879818595	75	127
327.8069387755102	327.8998185941043	74	127
327.9114285714286	328.0275283446712	72	127
328.0275283446712	328.3525850340136	70	127
328.14360544217686	328.24809523809523	65	127
328.24809523809523	328.3525850340136	63	127
328.3525850340136	328.43387755102043	62	127
328.4454875283447	328.54995464852607	60	127
328.5615873015873	328.6892970521542	58	127
328.70090702947846	328.82861678004537	57	127
328.70090702947846	329.0375963718821	69	127
328.70090702947846	329.0375963718821	65	127
328.70090702947846	329.0375963718821	72	127
328.82861678004537	328.944716553288	55	127
328.9563265306123	329.06079365079364	53	127
329.07242630385485	329.1769160997732	51	127
329.1769160997732	329.3162358276644	50	127
329.32784580498867	329.4439455782313	48	127
329.4555555555556	329.78061224489795	46	127
329.5832426303855	329.6877551020408	89	127
329.6877551020408	329.80385487528343	87	127
329.8154648526077	329.9199546485261	86	127
329.9199546485261	329.96639455782315	84	127
329.96639455782315	330.09408163265306	82	127
330.10571428571427	330.4772335600907	53	127
330.10571428571427	330.4772335600907	41	127
330.10571428571427	330.2218140589569	81	127
330.2334240362812	330.37274376417236	79	127
330.37274376417236	330.50043083900226	77	127
330.5120634920635	330.65138321995465	75	127
330.6629931972789	330.8022902494331	74	127
330.8022902494331	330.9416326530612	72	127
330.9416326530612	331.3015419501134	70	127
330.9416326530612	331.68467120181407	58	127
330.9416326530612	331.68467120181407	55	127
331.74272108843536	332.50897959183675	60	127
331.74272108843536	333.2171882086168	58	127
331.74272108843536	332.50897959183675	51	127
332.50897959183675	333.2171882086168	62	127
332.50897959183675	333.96022675736964	53	127
333.28684807256235	334.01827664399093	63	127
333.28684807256235	333.46097505668934	77	127
333.28684807256235	333.83251700680273	60	127
333.6699546485261	333.844126984127	77	127
333.87895691609975	334.0763038548753	57	127
334.0879365079365	334.3433560090703	62	127
334.0879365079365	334.3433560090703	58	127
334.0879365079365	334.11115646258503	77	127
334.11115646258503	334.6916326530612	86	127
334.73809523809524	334.77292517006805	75	127
334.73809523809524	334.86580498866215	65	127
334.77292517006805	335.39984126984126	84	127
335.10961451247164	335.2605442176871	65	127
335.45791383219955	335.51596371882084	65	127
335.45791383219955	335.51596371882084	74	127
335.51596371882084	336.18934240362813	74	127
335.51596371882084	335.86426303854876	82	127
336.23578231292515	336.27061224489796	63	127
336.23578231292515	336.3518820861678	77	127
336.27061224489796	336.86272108843536	72	127
336.58408163265307	336.67696145124717	77	127
336.9207709750567	336.978820861678	77	127
336.9207709750567	336.978820861678	62	127
336.978820861678	337.3039002267574	70	127
336.978820861678	337.6638095238095	86	127
337.7102494331066	337.7682993197279	75	127
337.7102494331066	337.8843990929705	65	127
337.7682993197279	338.3952380952381	84	127
338.1165986394558	338.26750566893423	65	127
338.44167800453516	338.47648526077097	74	127
338.44167800453516	338.47648526077097	65	127
338.47648526077097	339.1614965986395	74	127
338.47648526077097	338.7783446712018	82	127
339.21954648526076	339.26598639455784	63	127
339.21954648526076	339.35886621315194	77	127
339.26598639455784	339.8348752834467	72	127
339.57945578231295	339.6839455782313	77	127
339.89292517006805	339.9393650793651	77	127
339.89292517006805	339.9393650793651	62	127
339.9393650793651	340.57791383219956	86	127
339.9393650793651	340.22961451247164	70	127
340.63596371882085	340.6940136054422	75	127
340.6940136054422	341.35578231292516	84	127
340.85655328798185	341.04231292517005	54	127
341.0539229024943	341.20485260770977	57	127
341.21646258503404	341.40222222222224	54	127
341.4138321995465	341.4718820861678	74	127
341.4138321995465	341.79696145124717	58	127
341.4138321995465	341.79696145124717	55	127
341.4718820861678	341.5647619047619	82	127
341.6343990929705	341.6924716553288	84	127
341.7040816326531	341.77374149659863	82	127
341.77374149659863	341.83179138322	81	127
341.83179138322	342.0059410430839	82	127
342.02916099773245	342.098820861678	86	127
342.21492063492065	342.27297052154194	79	127
342.21492063492065	342.8766893424036	51	127
342.21492063492065	342.8766893424036	39	127
342.3774603174603	342.4239002267574	81	127
342.43551020408165	342.4819501133787	79	127
342.4819501133787	342.52839002267575	78	127
342.52839002267575	342.7257596371882	79	127
342.7373696145125	342.8302494331066	82	127
342.9579591836735	343.0508390022676	74	127
342.9579591836735	344.44403628117914	41	127
342.9579591836735	344.44403628117914	53	127
343.1437188208617	343.201768707483	75	127
343.201768707483	343.25981859410433	74	127
343.2714058956916	343.3178684807256	72	127
343.3294784580499	343.52684807256236	74	127
343.53845804988663	343.642947845805	77	127
343.7822448979592	343.863537414966	69	127
344.0028571428571	344.084126984127	70	127
344.084126984127	344.15378684807257	69	127
344.15378684807257	344.21183673469386	67	127
344.22344671201813	344.3743764172336	69	127
344.3743764172336	344.4556462585034	72	127
344.5485260770975	344.9084126984127	82	127
344.5485260770975	344.9084126984127	77	127
344.5485260770975	344.9084126984127	70	127
344.5485260770975	344.66462585034014	38	127
344.6762358276644	344.79233560090705	50	127
344.8039229024943	344.9316553287982	49	127
344.9316553287982	345.07097505668935	50	127
345.0825850340136	345.2102947845805	49	127
345.2218820861678	345.3612244897959	50	127
345.3612244897959	345.51215419501136	38	127
345.3612244897959	345.7443537414966	79	127
345.3612244897959	345.7443537414966	75	127
345.3612244897959	345.7443537414966	70	127
345.52374149659863	345.6514739229025	51	127
345.66308390022675	345.75596371882085	50	127
345.7675736961451	345.88367346938776	51	127
345.895283446712	345.97655328798186	50	127
345.9881632653061	346.11587301587304	51	127
346.1274829931973	346.25519274376416	41	127
346.1274829931973	346.4990022675737	77	127
346.1274829931973	346.4990022675737	74	127
346.1274829931973	346.4990022675737	70	127
346.25519274376416	346.4061224489796	53	127
346.41773242630387	346.52222222222224	52	127
346.5338321995465	346.66154195011336	53	127
346.66154195011336	346.74281179138325	52	127
346.74281179138325	346.8588888888889	53	127
346.8705215419501	346.97501133786847	29	127
346.8705215419501	347.218820861678	69	127
346.8705215419501	347.218820861678	63	127
346.8705215419501	347.218820861678	60	127
346.97501133786847	347.11433106575964	41	127
347.1259410430839	347.24204081632655	40	127
347.2536507936508	347.4161904761905	41	127
347.42780045351475	347.5670975056689	40	127
347.57873015873014	347.6832199546485	41	127
347.6832199546485	347.88056689342403	50	127
347.6832199546485	348.0895691609977	34	127
347.89219954648524	348.11278911564625	58	127
348.1243990929705	348.4842857142857	38	127
348.1243990929705	348.29854875283445	53	127
348.3101587301587	348.49589569161	58	127
348.51913832199546	348.70489795918365	50	127
348.51913832199546	348.86743764172337	41	127
348.7165079365079	348.87904761904764	58	127
348.87904761904764	349.06480725623584	53	127
348.87904761904764	349.2737868480726	38	127
349.0764172335601	349.28539682539684	58	127
349.2970068027211	349.4943764172336	50	127
349.2970068027211	349.6801360544218	34	127
349.50598639455785	349.69174603174605	58	127
349.69174603174605	350.00521541950116	38	127
349.69174603174605	349.84267573696144	53	127
349.8542857142857	350.0168253968254	58	127
350.0284126984127	350.3883446712018	41	127
350.0284126984127	350.2141950113379	50	127
350.22578231292516	350.3999546485261	58	127
350.41156462585036	350.6089342403628	53	127
350.41156462585036	350.7714739229025	38	127
350.6205442176871	350.794693877551	58	127
350.8063038548753	351.14297052154194	34	127
350.8063038548753	350.9456009070295	51	127
350.96884353741495	351.1662131519274	58	127
351.1778231292517	351.5841723356009	46	127
351.1778231292517	351.37519274376416	63	127
351.38680272108843	351.59578231292517	58	127
351.60739229024944	351.7699319727891	55	127
351.60739229024944	351.92086167800454	39	127
351.78154195011336	351.9440816326531	58	127
351.95569160997735	352.26913832199546	43	127
351.95569160997735	352.0834013605442	51	127
352.09501133786847	352.28077097505667	58	127
352.29238095238094	352.4781179138322	51	127
352.29238095238094	352.6639002267574	34	127
352.4897505668934	352.68709750566893	55	127
352.69873015873014	352.8496598639456	57	127
352.69873015873014	353.04702947845806	39	127
352.86126984126986	353.0586394557823	58	127
353.08185941043087	353.2443990929705	60	127
353.08185941043087	353.39530612244897	36	127
353.2560090702948	353.4069387755102	57	127
353.41854875283445	353.7087755102041	39	127
353.41854875283445	353.5230385487528	53	127
353.5230385487528	353.7204081632653	57	127
353.73201814058956	353.90614512471655	50	127
353.73201814058956	354.103537414966	34	127
353.91777777777776	354.1151247165533	58	127
354.1267573696145	354.32410430839	53	127
354.1267573696145	354.4750566893424	38	127
354.32410430839	354.4750566893424	58	127
354.4750566893424	354.68403628117915	62	127
354.4750566893424	354.8581859410431	41	127
354.6956462585034	354.86979591836734	58	127
354.86979591836734	355.21809523809526	46	127
354.86979591836734	355.05555555555554	62	127
355.0671655328798	355.2412925170068	58	127
355.252925170068	355.40385487528346	50	127
355.252925170068	355.6012244897959	34	127
355.427074829932	355.63605442176873	58	127
355.647641723356	355.81020408163266	53	127
355.647641723356	355.9727437641723	38	127
355.81020408163266	355.99596371882086	58	127
356.00757369614513	356.18172335600906	50	127
356.00757369614513	356.35587301587304	41	127
356.1933333333333	356.3674603174603	58	127
356.3790929705215	356.7390022675737	38	127
356.3790929705215	356.576462585034	53	127
356.58807256235826	356.7390022675737	58	127
356.750612244898	356.94798185941045	51	127
356.750612244898	357.1105215419501	34	127
356.9595918367347	357.1453514739229	58	127
357.1569614512472	357.3427210884354	63	127
357.1569614512472	357.48201814058956	46	127
357.35433106575965	357.49362811791383	58	127
357.50526077097504	357.6909977324263	60	127
357.50526077097504	357.8767800453515	39	127
357.7026303854875	357.88839002267576	58	127
357.89997732426303	358.2134693877551	42	127
357.89997732426303	358.03931972789115	51	127
358.03931972789115	358.2134693877551	58	127
358.2134693877551	358.5501587301587	34	127
358.2134693877551	358.39922902494334	51	127
358.39922902494334	358.561768707483	55	127
358.57337868480727	358.9216553287982	39	127
358.57337868480727	358.75913832199547	57	127
358.77074829931973	358.9216553287982	58	127
358.9332879818594	359.1074376417234	60	127
358.9332879818594	359.2467573696145	36	127
359.11902494331065	359.26997732426304	57	127
359.2815873015873	359.6531065759637	39	127
359.2815873015873	359.45573696145124	53	127
359.4789569160998	359.67632653061224	57	127
359.6879365079365	359.7924263038549	70	127
359.6879365079365	359.8504761904762	46	127
359.6879365079365	359.8504761904762	34	127
359.7924263038549	359.885306122449	62	127
359.89691609977325	360.0014058956916	58	127
360.0014058956916	360.1407029478458	72	127
360.0014058956916	360.21038548752836	41	127
360.1407029478458	360.2800453514739	69	127
360.2916553287982	360.3845351473923	65	127
360.39614512471655	360.5122448979592	74	127
360.39614512471655	360.58190476190475	46	127
360.52385487528346	360.62834467120183	70	127
360.62834467120183	360.74444444444447	65	127
360.75603174603174	360.8605215419501	75	127
360.75603174603174	360.9185941043084	41	127
360.8721541950113	360.9766439909297	72	127
360.9766439909297	361.06950113378684	69	127
361.08113378684806	361.1972335600907	82	127
361.08113378684806	361.25528344671204	46	127
361.20884353741496	361.2901133786848	74	127
361.2901133786848	361.39460317460316	70	127
361.40621315192743	361.53392290249434	84	127
361.40621315192743	361.59197278911563	53	127
361.40621315192743	361.59197278911563	41	127
361.53392290249434	361.650022675737	81	127
361.66163265306125	361.7893424036281	77	127
361.80095238095237	361.90544217687074	86	127
361.80095238095237	361.9634920634921	58	127
361.80095238095237	361.9634920634921	46	127
361.917052154195	362.0099319727891	82	127
362.0099319727891	362.137641723356	77	127
362.137641723356	362.25374149659865	87	127
362.137641723356	362.28854875283446	53	127
362.137641723356	362.28854875283446	41	127
362.25374149659865	362.358231292517	84	127
362.3698412698413	362.5091609977324	81	127
362.5091609977324	362.9155102040816	82	127
362.5091609977324	362.9155102040816	58	127
362.5091609977324	362.9155102040816	46	127
363.3334693877551	363.70498866213154	86	127
363.3334693877551	363.70498866213154	82	127
363.3334693877551	363.70498866213154	77	127
363.3334693877551	363.70498866213154	58	127
363.3334693877551	363.70498866213154	46	127
364.1809977324263	365.0633560090703	82	127
364.1809977324263	365.0633560090703	77	127
364.1809977324263	365.0633560090703	74	127
364.1809977324263	365.0633560090703	46	127
364.1809977324263	365.0633560090703	34	127
