# onset,offset,note,velocity
12.317414965986394	12.456734693877552	77	127
12.688934240362812	12.851473922902494	77	127
13.083673469387755	13.14172335600907	77	127
13.083673469387755	13.849931972789115	58	127
13.14172335600907	13.815102040816326	86	127
13.849931972789115	14.523310657596372	54	127
13.849931972789115	13.90798185941043	75	127
13.90798185941043	14.546530612244897	84	127
14.581360544217688	15.347619047619048	55	127
14.581360544217688	14.639410430839002	74	127
14.639410430839002	15.301179138321995	82	127
15.347619047619048	15.97455782312925	51	127
15.347619047619048	15.440498866213153	84	127
15.452108843537415	15.649478458049886	82	127
15.66108843537415	15.835238095238095	81	127
15.835238095238095	16.00938775510204	79	127
16.02097505668934	16.39251700680272	50	127
16.02097505668934	16.102267573696146	77	127
16.20673469387755	16.264807256235827	79	127
16.264807256235827	16.322857142857142	77	127
16.334444444444443	16.380907029478458	76	127
16.39251700680272	16.57827664399093	77	127
16.39251700680272	16.72920634920635	55	127
16.57827664399093	16.647936507936507	79	127
16.764036281179138	17.15875283446712	48	127
16.764036281179138	16.845283446712017	75	127
16.938185941043084	16.9962358276644	77	127
16.9962358276644	17.065895691609978	75	127
17.065895691609978	17.147165532879818	74	127
17.15875283446712	17.49546485260771	53	127
17.15875283446712	17.321315192743764	75	127
17.332925170068027	17.402585034013605	77	127
17.518684807256236	18.284943310657596	46	127
17.518684807256236	17.94825396825397	75	127
17.94825396825397	18.319773242630387	74	127
18.34299319727891	18.52875283446712	72	127
18.540362811791383	18.71451247165533	74	127
18.72612244897959	18.79578231292517	75	127
18.72612244897959	18.99315192743764	51	127
18.819002267573698	18.981541950113378	72	127
18.99315192743764	19.17891156462585	77	127
18.99315192743764	19.36467120181406	50	127
19.202131519274378	19.387891156462587	74	127
19.39950113378685	19.49238095238095	70	127
19.585260770975058	19.666530612244898	70	127
19.78263038548753	19.98	72	127
19.991609977324263	20.154149659863947	74	127
20.154149659863947	20.305079365079365	75	127
20.154149659863947	20.490839002267574	51	127
20.316689342403627	20.490839002267574	72	127
20.490839002267574	20.699818594104308	77	127
20.490839002267574	20.89718820861678	50	127
20.71140589569161	20.920408163265307	74	127
20.93201814058957	21.01328798185941	82	127
21.23387755102041	21.326757369614512	82	127
21.39641723356009	21.442857142857143	82	127
21.442857142857143	21.59378684807256	77	127
21.605396825396827	21.675056689342405	86	127
21.8027664399093	21.8956462585034	86	127
22.011746031746032	23.555873015873015	53	127
22.011746031746032	23.04503401360544	86	127
23.056621315192743	23.184331065759636	87	127
23.195963718820863	23.323673469387757	84	127
23.34689342403628	23.544263038548753	81	127
23.555873015873015	23.88095238095238	58	127
23.555873015873015	23.776462585034015	82	127
23.776462585034015	23.904172335600908	86	127
23.904172335600908	23.973832199546486	77	127
24.06671201814059	24.124761904761904	77	127
24.229251700680273	24.438231292517006	77	127
24.438231292517006	24.64721088435374	82	127
24.658820861678006	24.75170068027211	74	127
24.86780045351474	24.960680272108842	74	127
25.1	26.655736961451247	53	127
25.1	26.040408163265305	74	127
26.05201814058957	26.23777777777778	77	127
26.249387755102042	26.43514739229025	75	127
26.446757369614513	26.644126984126984	72	127
26.655736961451247	27.05047619047619	46	127
26.655736961451247	27.05047619047619	70	127
38.788163265306125	44.54671201814059	79	127
41.7487074829932	45.022721088435375	67	127
44.66281179138322	45.022721088435375	72	127
46.13727891156463	46.218548752834465	64	127
46.13727891156463	46.218548752834465	48	127
46.334648526077096	46.40430839002268	50	127
46.334648526077096	46.40430839002268	65	127
46.53201814058957	46.601678004535145	52	127
46.53201814058957	46.601678004535145	67	127
46.706167800453514	46.78743764172336	53	127
46.706167800453514	46.78743764172336	69	127
46.91514739229025	47.24022675736961	55	127
46.91514739229025	47.24022675736961	70	127
47.62335600907029	47.704625850340136	76	127
47.62335600907029	47.704625850340136	60	127
47.83233560090703	47.91360544217687	62	127
47.83233560090703	47.91360544217687	77	127
48.029705215419504	48.1225850340136	64	127
48.029705215419504	48.1225850340136	79	127
48.2502947845805	48.3431746031746	81	127
48.2502947845805	48.3431746031746	65	127
48.459274376417234	48.888843537414964	67	127
48.459274376417234	48.888843537414964	82	127
49.39968253968254	49.829251700680274	41	127
49.86408163265306	50.18916099773243	45	127
50.20077097505669	50.52585034013605	48	127
50.56068027210885	50.90897959183673	45	127
50.94380952380953	51.33854875283447	41	127
51.37337868480726	51.73328798185941	45	127
51.55913832199546	51.7681179138322	77	127
51.7681179138322	52.16285714285714	48	127
51.7681179138322	51.97709750566894	81	127
51.97709750566894	52.069977324263036	79	127
52.19768707482993	52.59242630385488	45	127
52.19768707482993	52.27895691609977	77	127
52.41827664399093	52.49954648526077	76	127
52.6156462585034	52.95233560090703	74	127
52.6156462585034	52.95233560090703	41	127
52.97555555555556	53.30063492063492	53	127
53.1497052154195	53.323854875283445	82	127
53.323854875283445	53.6837641723356	46	127
53.323854875283445	53.52122448979592	86	127
53.52122448979592	53.602494331065756	84	127
53.69537414965986	53.75342403628118	82	127
53.69537414965986	54.03206349206349	50	127
53.881133786848075	53.96240362811791	81	127
54.06689342403628	54.46163265306122	79	127
54.06689342403628	54.46163265306122	41	127
54.49646258503402	54.86798185941043	46	127
54.68222222222222	54.90281179138322	79	127
54.90281179138322	55.11179138321995	82	127
54.90281179138322	55.2859410430839	49	127
55.11179138321995	55.193061224489796	80	127
55.32077097505669	55.413650793650795	79	127
55.32077097505669	55.70390022675737	46	127
55.529750566893426	55.61102040816326	77	127
55.73873015873016	56.09863945578231	41	127
55.73873015873016	55.91287981859411	77	127
55.92448979591837	56.12185941043084	76	127
56.1334693877551	56.30761904761905	74	127
56.1334693877551	56.43532879818594	43	127
56.31922902494331	56.45854875283447	72	127
56.47015873015873	56.609478458049885	71	127
56.47015873015873	56.783628117913835	46	127
56.62108843537415	56.7952380952381	72	127
56.80684807256236	57.00421768707483	74	127
56.80684807256236	57.143537414965984	43	127
57.01582766439909	57.155147392290246	76	127
57.155147392290246	57.36412698412698	77	127
57.155147392290246	57.526666666666664	41	127
57.549886621315196	57.65437641723356	79	127
57.66598639455783	57.77047619047619	77	127
57.78208616780045	57.88657596371882	76	127
57.88657596371882	58.01428571428571	77	127
58.01428571428571	58.21165532879819	79	127
58.01428571428571	58.32775510204082	59	127
58.35097505668934	58.45546485260771	81	127
58.45546485260771	58.55995464852608	79	127
58.57156462585034	58.72249433106576	78	127
58.72249433106576	58.82698412698413	79	127
58.82698412698413	59.44231292517007	81	127
58.82698412698413	59.941541950113375	60	127
59.44231292517007	59.63968253968254	82	127
59.6512925170068	59.79061224489796	79	127
60.58009070294784	63.598684807256234	57	127
60.58009070294784	63.598684807256234	60	127
63.7031746031746	65.23569160997732	62	127
63.7031746031746	68.08013605442177	58	127
65.23569160997732	66.5940589569161	61	127
66.6869387755102	68.59097505668935	60	127
68.21945578231292	68.59097505668935	57	127
73.87351473922902	74.00122448979592	77	127
73.87351473922902	74.00122448979592	74	127
73.87351473922902	74.18698412698413	43	127
74.22181405895692	74.61655328798186	48	127
74.22181405895692	74.39596371882087	76	127
74.22181405895692	74.39596371882087	72	127
74.65138321995465	75.03451247165533	45	127
74.65138321995465	74.8255328798186	79	127
74.65138321995465	74.8255328798186	76	127
75.06934240362811	75.25510204081633	74	127
75.06934240362811	75.25510204081633	77	127
75.06934240362811	75.25510204081633	46	127
76.65990929705215	76.82244897959184	74	127
77.07786848072563	77.24038548752834	74	127
77.47260770975056	77.53065759637188	74	127
77.53065759637188	78.26206349206349	82	127
78.30852607709751	78.47106575963718	75	127
78.68004535147392	78.84258503401361	75	127
79.07478458049887	79.12122448979592	75	127
79.12122448979592	79.74816326530612	84	127
79.80621315192744	79.95714285714286	77	127
80.1312925170068	80.29383219954649	77	127
80.51442176870748	80.56083900226757	77	127
80.56083900226757	81.21102040816326	86	127
81.25746031746031	81.31551020408163	76	127
81.31551020408163	81.94242630385487	84	127
81.97727891156462	82.02371882086167	74	127
82.02371882086167	82.29074829931973	83	127
82.30235827664399	82.34879818594105	73	127
82.34879818594105	82.65065759637189	82	127
82.67387755102041	82.72031746031746	72	127
82.72031746031746	83.38208616780045	81	127
83.62589569160998	83.83485260770975	74	127
83.85807256235827	84.05546485260771	76	127
84.05546485260771	84.19478458049886	77	127
84.19478458049886	84.34569160997732	78	127
84.35732426303855	84.54308390022676	79	127
84.55469387755102	84.74045351473923	81	127
84.7520634920635	84.94943310657597	82	127
84.96104308390022	86.00591836734694	77	127
86.098820861678	86.29619047619047	81	127
86.319410430839	86.51675736961451	79	127
86.52839002267574	86.67931972789115	77	127
86.86507936507937	87.03922902494331	51	127
86.86507936507937	87.03922902494331	81	127
87.30625850340137	87.48040816326531	50	127
87.30625850340137	87.48040816326531	82	127
87.7009977324263	87.84031746031746	49	127
87.7009977324263	87.7358276643991	83	127
87.7358276643991	87.79387755102042	84	127
87.79387755102042	87.84031746031746	83	127
87.84031746031746	87.86353741496599	84	127
87.86353741496599	87.92158730158731	83	127
87.92158730158731	87.94480725623583	84	127
87.96802721088436	88.01446712018141	81	127
88.01446712018141	88.07251700680273	83	127
88.07251700680273	88.2350566893424	48	127
88.07251700680273	88.2350566893424	84	127
88.49047619047619	88.66460317460317	45	127
88.49047619047619	88.66460317460317	85	127
88.92002267573696	89.10580498866213	86	127
88.92002267573696	89.10580498866213	46	127
89.69791383219955	90.44095238095238	60	127
89.69791383219955	89.83723356009071	75	127
89.84884353741496	89.98816326530613	74	127
89.99977324263038	90.12748299319728	72	127
90.13909297052155	90.24358276643991	70	127
90.24358276643991	90.35968253968254	69	127
90.37129251700681	90.48739229024943	67	127
90.4990022675737	90.63832199546485	66	127
90.4990022675737	90.88213151927438	57	127
90.63832199546485	90.76603174603174	63	127
90.77764172335601	90.9053514739229	62	127
90.91696145124716	91.26526077097506	54	127
90.91696145124716	91.04467120181405	60	127
91.04467120181405	91.14916099773242	58	127
91.16077097505669	91.28848072562359	57	127
91.30009070294784	91.50907029478458	58	127
91.30009070294784	91.64839002267574	55	127
91.52068027210885	91.67160997732427	62	127
91.68321995464852	92.11278911564627	62	127
91.68321995464852	91.880589569161	67	127
91.89219954648526	92.101179138322	70	127
92.11278911564627	92.24049886621316	70	127
92.11278911564627	93.23893424036281	63	127
92.25210884353741	92.39142857142858	69	127
92.39142857142858	92.53074829931973	67	127
92.542358276644	92.65845804988662	65	127
92.67006802721089	92.76294784580499	63	127
92.76294784580499	92.9138775510204	62	127
92.92548752834468	93.00675736961452	60	127
93.01836734693877	93.11122448979592	63	127
93.12285714285714	93.2621768707483	69	127
93.27378684807256	93.37827664399093	72	127
93.27378684807256	93.65691609977324	64	127
93.3898866213152	93.51759637188209	72	127
93.52920634920635	93.65691609977324	72	127
93.65691609977324	94.41156462585035	65	127
93.65691609977324	93.77301587301588	72	127
93.78462585034013	93.91233560090703	70	127
93.9239455782313	94.06326530612245	69	127
94.06326530612245	94.20258503401361	67	127
94.20258503401361	94.3302947845805	65	127
94.34190476190476	94.4580045351474	63	127
94.46961451247165	94.60893424036281	62	127
94.62052154195011	94.71342403628118	63	127
94.72503401360544	94.8295238095238	65	127
94.84113378684808	94.9572335600907	67	127
94.84113378684808	95.16621315192744	46	127
94.9572335600907	95.06172335600907	66	127
95.07333333333334	95.18943310657596	67	127
95.20104308390023	95.32875283446712	64	127
95.32875283446712	95.45646258503402	65	127
95.46807256235827	95.57256235827664	67	127
95.58417233560091	95.7118820861678	69	127
95.58417233560091	95.95569160997732	48	127
95.7118820861678	95.8395918367347	68	127
95.85120181405895	95.97891156462585	69	127
95.99052154195012	96.32721088435375	38	127
95.99052154195012	96.10662131519274	65	127
96.11823129251701	96.21111111111111	64	127
96.22272108843538	96.35043083900227	65	127
96.36204081632653	96.73356009070295	40	127
96.36204081632653	96.48975056689342	67	127
96.50136054421769	96.62907029478458	65	127
96.62907029478458	96.75678004535148	67	127
96.78	96.93092970521542	69	127
96.78	97.16312925170068	41	127
96.94253968253969	97.04702947845804	72	127
97.04702947845804	97.1863492063492	69	127
97.19795918367348	97.56947845804989	38	127
97.19795918367348	97.3140589569161	65	127
97.32566893424037	97.45337868480726	69	127
97.46498866213152	97.58108843537416	65	127
97.59269841269841	97.96421768707484	46	127
97.59269841269841	97.96421768707484	62	127
99.02072562358276	99.20648526077098	48	127
99.25292517006802	99.41546485260771	57	127
99.42707482993197	99.60122448979592	60	127
99.42707482993197	99.58961451247166	48	127
99.61283446712018	99.79859410430839	57	127
99.81020408163265	99.99596371882086	48	127
99.81020408163265	100.01918367346939	60	127
100.03079365079365	100.22816326530612	57	127
100.23977324263039	100.39070294784581	48	127
100.23977324263039	100.40231292517007	58	127
100.41392290249433	100.59968253968253	64	127
100.6112925170068	100.93637188208616	53	127
100.6112925170068	100.93637188208616	65	127
100.6112925170068	100.93637188208616	57	127
102.19024943310657	102.92167800453515	65	127
102.19024943310657	102.92167800453515	69	127
102.19024943310657	102.86362811791383	53	127
102.92167800453515	103.67632653061224	46	127
102.92167800453515	103.67632653061224	67	127
102.92167800453515	103.67632653061224	62	127
103.74598639455782	104.45419501133787	60	127
103.74598639455782	104.45419501133787	65	127
103.74598639455782	105.05791383219955	48	127
104.45419501133787	105.12757369614512	64	127
104.45419501133787	105.12757369614512	58	127
105.19723356009071	105.53392290249433	65	127
105.19723356009071	105.53392290249433	57	127
105.19723356009071	105.53392290249433	41	127
106.77619047619048	107.54244897959184	53	127
106.77619047619048	107.57727891156462	69	127
106.77619047619048	107.57727891156462	65	127
107.57727891156462	108.3087074829932	46	127
107.57727891156462	108.3087074829932	62	127
107.57727891156462	108.3087074829932	67	127
108.37836734693877	109.1562358276644	60	127
108.37836734693877	109.08657596371881	48	127
108.37836734693877	109.1562358276644	65	127
109.1562358276644	109.92249433106576	58	127
109.1562358276644	109.92249433106576	64	127
109.1562358276644	109.92249433106576	36	127
109.96893424036281	110.37528344671202	65	127
109.96893424036281	110.37528344671202	41	127
109.96893424036281	110.37528344671202	57	127
116.07578231292517	117.45736961451247	69	127
116.07578231292517	120.52240362811791	65	127
117.58507936507937	118.3281179138322	70	127
118.39777777777778	119.09437641723356	72	127
119.16403628117914	119.88385487528345	74	127
119.88385487528345	121.61374149659864	75	127
120.63850340136054	121.33510204081632	67	127
121.4047619047619	122.11297052154195	69	127
121.6253514739229	121.77628117913832	74	127
121.77628117913832	121.96204081632654	75	127
121.98526077097506	122.17102040816326	72	127
122.17102040816326	122.54253968253968	70	127
122.17102040816326	122.54253968253968	74	127
133.6881179138322	133.82743764172335	77	127
134.04802721088436	134.1873469387755	77	127
134.43113378684808	134.48920634920634	77	127
134.43113378684808	135.20902494331065	58	127
134.48920634920634	135.17419501133787	86	127
135.20902494331065	135.83596371882086	54	127
135.20902494331065	135.2554648526077	75	127
135.2554648526077	135.85916099773243	84	127
135.90562358276645	135.9636507936508	74	127
135.90562358276645	136.64866213151927	55	127
135.9636507936508	136.637052154195	82	127
136.64866213151927	136.81120181405896	84	127
136.64866213151927	137.36848072562358	51	127
136.82281179138323	136.99696145124716	82	127
137.00857142857143	137.2059410430839	81	127
137.21755102040817	137.40331065759636	79	127
137.4265306122449	137.48458049886622	77	127
137.4265306122449	137.78643990929706	50	127
137.57746031746032	137.64709750566894	79	127
137.64709750566894	137.71678004535147	77	127
137.71678004535147	137.7748299319728	76	127
137.78643990929706	138.12312925170068	55	127
137.78643990929706	137.960589569161	77	127
137.97219954648526	138.06507936507936	79	127
138.1463492063492	138.48303854875283	48	127
138.1463492063492	138.22761904761904	75	127
138.32049886621314	138.34371882086168	77	127
138.34371882086168	138.41337868480727	75	127
138.41337868480727	138.48303854875283	74	127
138.48303854875283	138.6804081632653	75	127
138.48303854875283	138.84294784580499	53	127
138.6804081632653	138.7500680272109	77	127
138.85455782312926	139.58598639455784	46	127
138.85455782312926	139.2144671201814	75	127
139.2144671201814	139.62081632653062	74	127
139.6556462585034	139.85301587301586	72	127
139.8762358276644	140.07360544217687	74	127
140.08521541950114	140.23614512471656	75	127
140.08521541950114	140.43351473922903	63	127
140.24775510204083	140.43351473922903	72	127
140.43351473922903	140.61927437641722	77	127
140.43351473922903	140.7818140589569	62	127
140.6308843537415	140.80503401360545	74	127
140.81662131519275	140.90952380952382	70	127
141.02560090702949	141.11850340136056	70	127
142.7322902494331	142.88321995464852	74	127
142.8948299319728	143.0457596371882	75	127
143.05736961451248	143.2315192743764	77	127
143.05736961451248	143.44049886621315	65	127
143.24312925170068	143.42886621315193	74	127
143.44049886621315	143.81201814058957	63	127
143.44049886621315	143.63786848072561	79	127
143.64947845804988	143.83521541950114	75	127
143.84684807256235	143.95133786848072	72	127
144.07904761904763	144.16031746031746	72	127
145.73927437641723	145.90181405895692	76	127
145.91342403628119	146.08755102040817	78	127
146.11079365079365	146.2268934240363	79	127
146.11079365079365	146.44748299319727	67	127
146.2384807256236	146.42426303854876	76	127
146.44748299319727	146.83061224489796	66	127
146.44748299319727	146.6332426303855	81	127
146.6448299319728	146.84222222222223	78	127
146.85380952380953	146.95832199546484	74	127
147.07442176870748	147.16730158730158	74	127
148.79267573696146	148.96684807256236	81	127
148.97845804988663	149.1409977324263	82	127
149.1525850340136	149.28031746031746	84	127
149.28031746031746	149.47768707482993	81	127
149.4892970521542	149.66342403628119	86	127
149.66342403628119	149.87242630385487	82	127
149.88403628117914	149.965306122449	79	127
150.09301587301587	150.18589569160997	79	127
150.3019954648526	150.47614512471657	45	127
150.4877551020408	150.68510204081633	46	127
150.69673469387754	150.83603174603175	48	127
150.84766439909296	150.98698412698414	45	127
151.01020408163265	151.1959410430839	50	127
151.20757369614512	151.3701133786848	46	127
151.38172335600908	151.47460317460317	43	127
151.5907029478458	151.6835827664399	43	127
151.78807256235828	151.96219954648527	74	127
152.20603174603175	152.31052154195012	74	127
152.5311111111111	152.5775283446712	74	127
152.5775283446712	153.2392970521542	82	127
153.28575963718822	153.34378684807257	72	127
153.34378684807257	153.9475283446712	81	127
153.99396825396826	154.02879818594104	70	127
154.02879818594104	154.63251700680271	79	127
154.69056689342403	154.85310657596372	55	127
155.08530612244897	155.25945578231293	55	127
155.49163265306123	155.52648526077098	55	127
155.52648526077098	156.1766439909297	63	127
156.22308390022675	156.28113378684807	53	127
156.28113378684807	157.00095238095238	62	127
157.03578231292516	157.0590022675737	51	127
157.0590022675737	157.6394784580499	60	127
157.66272108843538	157.86009070294784	72	127
158.0574603174603	158.18517006802722	72	127
158.41736961451247	158.46380952380952	72	127
158.46380952380952	159.102358276644	81	127
159.16040816326532	159.20684807256237	70	127
159.20684807256237	159.8337641723356	79	127
159.88022675736963	159.93825396825397	69	127
159.93825396825397	160.62326530612245	77	127
160.6697052154195	160.8090022675737	53	127
161.00639455782314	161.15732426303856	53	127
161.36628117913833	161.4243537414966	53	127
161.4243537414966	162.0512925170068	62	127
162.09773242630385	162.13256235827666	51	127
162.13256235827666	162.78272108843538	60	127
162.81755102040816	162.8639909297052	50	127
162.8639909297052	163.514126984127	58	127
164.38487528344672	164.79122448979592	39	127
164.80285714285714	165.10471655328797	43	127
165.11632653061224	165.42979591836735	46	127
165.46462585034013	165.87097505668933	43	127
165.90580498866214	166.2773015873016	39	127
166.32376417233561	166.63721088435375	43	127
166.49791383219954	166.6720634920635	75	127
166.6720634920635	166.86943310657597	79	127
166.6720634920635	167.03197278911566	46	127
166.86943310657597	166.96231292517007	77	127
167.04356009070295	167.43832199546486	43	127
167.04356009070295	167.12485260770976	75	127
167.2409523809524	167.34544217687076	74	127
167.47315192743764	167.85628117913834	39	127
167.47315192743764	167.85628117913834	72	127
167.87950113378685	168.239410430839	51	127
168.0536507936508	168.27424036281178	80	127
168.27424036281178	168.5528798185941	44	127
168.27424036281178	168.39034013605442	84	127
168.39034013605442	168.56448979591838	82	127
168.57607709750567	168.98242630385488	48	127
168.57607709750567	168.78507936507935	80	127
168.79668934240362	168.9940589569161	79	127
169.00566893424036	169.3771882086168	39	127
169.00566893424036	169.3771882086168	77	127
169.4004081632653	169.72548752834467	44	127
169.57455782312925	169.7487074829932	77	127
169.7487074829932	169.94607709750568	80	127
169.7487074829932	170.1085941043084	47	127
169.94607709750568	170.01573696145124	78	127
170.14344671201815	170.23632653061225	77	127
170.14344671201815	170.49174603174603	44	127
170.32920634920634	170.4104761904762	75	127
170.5265759637188	170.63106575963718	75	127
170.5265759637188	170.7819954648526	39	127
170.65428571428572	170.80521541950114	74	127
170.8284126984127	171.01419501133788	72	127
170.8284126984127	171.17673469387756	41	127
171.02580498866214	171.19995464852607	70	127
171.21156462585034	171.4089342403628	69	127
171.21156462585034	171.61791383219955	44	127
171.42054421768708	171.64111111111112	70	127
171.65274376417233	171.9778231292517	41	127
171.65274376417233	171.82689342403629	72	127
171.82689342403629	172.00102040816327	74	127
172.01265306122448	172.18680272108844	75	127
172.01265306122448	172.34934240362813	39	127
172.34934240362813	172.4190022675737	77	127
172.43061224489796	172.53510204081633	75	127
172.53510204081633	172.62798185941043	74	127
172.62798185941043	172.7324716553288	75	127
172.74408163265306	172.92984126984126	77	127
172.74408163265306	173.1156009070295	57	127
173.138820861678	173.24331065759637	79	127
173.25492063492064	173.359410430839	77	127
173.359410430839	173.4522902494331	76	127
173.4522902494331	173.55678004535147	77	127
173.55678004535147	174.14886621315193	79	127
173.55678004535147	174.3578684807256	58	127
174.14886621315193	174.34625850340137	80	127
174.3578684807256	174.72938775510204	77	127
174.3578684807256	174.72938775510204	59	127
176.92367346938775	179.802947845805	56	127
176.92367346938775	179.802947845805	60	127
179.91904761904763	184.15668934240364	58	127
179.91904761904763	182.7286621315193	61	127
182.82154195011339	183.12340136054422	60	127
183.35560090702947	183.52975056689343	79	127
183.52975056689343	183.71551020408162	84	127
183.71551020408162	183.7851700680272	82	127
183.88965986394558	183.98253968253968	80	127
184.07541950113378	184.15668934240364	79	127
184.261179138322	184.45854875283447	82	127
184.261179138322	184.65591836734694	56	127
184.47015873015874	184.6791156462585	80	127
184.69074829931972	184.78360544217688	79	127
184.7952380952381	184.96938775510205	77	127
184.98099773242632	185.15514739229025	76	127
185.16675736961452	185.36412698412698	77	127
185.36412698412698	185.5150566893424	79	127
185.52666666666667	185.71242630385487	80	127
185.7356462585034	186.09555555555556	82	127
186.13038548752834	186.46705215419502	70	127
186.4902947845805	187.60485260770974	62	127
186.4902947845805	186.88503401360543	82	127
186.88503401360543	187.23331065759638	80	127
187.25655328798186	189.09092970521542	79	127
187.63968253968255	187.9647619047619	51	127
187.98798185941044	188.33628117913833	63	127
188.33628117913833	188.71938775510205	62	127
188.7542403628118	190.5421768707483	60	127
189.12573696145125	189.49727891156462	68	127
189.53208616780046	189.86879818594105	80	127
189.86879818594105	190.18226757369615	79	127
190.21709750566893	191.98181405895693	77	127
190.56539682539682	190.9485260770975	50	127
190.97174603174602	191.30843537414967	62	127
191.30843537414967	191.633514739229	60	127
191.65673469387755	193.13120181405895	59	127
192.0166439909297	192.38816326530613	67	127
192.4229931972789	192.75968253968253	79	127
192.75968253968253	193.09637188208617	77	127
193.13120181405895	193.51433106575965	60	127
193.13120181405895	193.22408163265305	75	127
193.32857142857142	193.42145124716552	74	127
193.54916099773243	193.60721088435375	72	127
193.70009070294785	193.92068027210885	60	127
193.70009070294785	193.79297052154195	70	127
193.92068027210885	194.11804988662132	65	127
193.92068027210885	194.25736961451247	69	127
194.11804988662132	194.17609977324264	63	127
194.280589569161	194.35024943310657	62	127
194.45473922902494	194.5360090702948	60	127
194.45473922902494	194.66371882086167	81	127
194.66371882086167	194.98879818594105	58	127
194.66371882086167	194.82625850340136	86	127
194.82625850340136	194.89591836734695	84	127
195.01201814058956	195.04684807256237	82	127
195.17455782312925	195.24421768707484	81	127
195.17455782312925	195.33709750566894	58	127
195.33709750566894	195.55768707482994	63	127
195.33709750566894	195.7202267573696	79	127
195.55768707482994	195.65056689342404	62	127
195.74344671201814	195.82471655328797	60	127
195.9408163265306	196.02208616780047	58	127
195.9408163265306	196.11496598639457	79	127
196.11496598639457	196.42843537414967	57	127
196.11496598639457	196.2891156462585	84	127
196.2891156462585	196.35877551020408	82	127
196.45165532879818	196.52131519274377	81	127
196.62580498866214	196.83478458049888	57	127
196.62580498866214	196.70707482993197	79	127
196.83478458049888	197.02054421768707	62	127
196.83478458049888	197.15986394557822	78	127
197.02054421768707	197.1018140589569	60	127
197.18308390022676	197.2643537414966	58	127
197.36884353741496	197.43850340136055	57	127
197.36884353741496	197.54299319727892	78	127
197.54299319727892	197.63587301587302	55	127
197.54299319727892	197.7055328798186	82	127
197.71714285714285	197.77519274376417	81	127
197.71714285714285	197.77519274376417	53	127
197.87968253968253	197.93773242630385	79	127
197.87968253968253	197.93773242630385	52	127
198.06544217687076	198.15832199546486	77	127
198.06544217687076	198.15832199546486	50	127
198.25120181405896	198.297641723356	76	127
198.25120181405896	198.297641723356	48	127
198.3905215419501	198.49501133786848	74	127
198.3905215419501	198.49501133786848	46	127
198.62272108843538	198.7039909297052	45	127
198.62272108843538	198.7039909297052	72	127
198.7968707482993	198.87814058956917	70	127
198.7968707482993	198.87814058956917	43	127
199.00585034013605	199.37736961451247	69	127
199.00585034013605	199.37736961451247	41	127
199.79532879818595	199.91142857142856	48	127
200.13201814058957	200.25972789115647	48	127
200.49192743764172	200.54997732426304	48	127
200.54997732426304	201.1304761904762	55	127
201.17691609977325	201.32784580498867	48	127
201.5716553287982	201.74580498866214	48	127
201.7922448979592	201.98961451247166	72	127
202.00122448979593	202.04766439909298	48	127
202.00122448979593	202.08249433106576	77	127
202.04766439909298	202.33791383219955	57	127
202.18698412698413	202.24503401360545	72	127
202.33791383219955	202.41918367346938	77	127
202.54689342403628	202.63977324263038	79	127
202.6978231292517	202.74426303854875	81	127
202.87197278911566	202.94163265306122	82	127
202.94163265306122	202.99968253968254	81	127
202.99968253968254	203.06934240362813	79	127
203.08095238095237	203.27832199546486	81	127
203.27832199546486	203.37120181405896	82	127
203.55696145124716	203.6962811791383	79	127
203.87043083900227	203.97492063492064	72	127
204.10263038548752	204.19551020408164	79	127
204.32321995464852	204.41609977324262	81	127
204.520589569161	204.56702947845804	82	127
204.56702947845804	204.65990929705217	82	127
204.6715192743764	204.72956916099773	84	127
204.84566893424036	206.27369614512472	41	127
204.84566893424036	205.2171882086168	81	127
205.623537414966	205.82090702947846	72	127
206.01827664399093	206.18081632653062	72	127
206.41301587301587	207.80621315192744	36	127
206.41301587301587	206.45945578231292	72	127
206.45945578231292	207.1212244897959	79	127
207.17927437641723	207.3418140589569	72	127
207.55079365079365	207.6901133786848	72	127
207.89909297052154	207.95714285714286	72	127
207.89909297052154	208.24739229024942	41	127
207.95714285714286	208.2590022675737	81	127
213.66925170068026	217.97655328798186	65	127
213.66925170068026	215.00439909297052	69	127
215.13210884353742	215.79387755102042	70	127
215.86353741496598	216.51369614512473	72	127
216.57174603174604	217.31478458049887	74	127
217.31478458049887	218.96340136054422	75	127
218.03460317460318	218.7195918367347	67	127
218.777641723356	219.439410430839	69	127
218.9750113378685	219.17238095238096	74	127
219.1839909297052	219.35814058956916	75	127
219.36975056689343	219.4974603174603	72	127
219.50907029478458	219.880589569161	74	127
219.50907029478458	219.880589569161	70	127
230.61981859410432	230.75913832199547	77	127
230.9913378684807	231.14226757369613	77	127
231.39768707482995	232.14072562358277	58	127
231.39768707482995	231.45573696145124	77	127
231.45573696145124	232.09428571428572	86	127
232.14072562358277	232.73283446712017	54	127
232.14072562358277	232.18716553287982	75	127
232.18716553287982	232.74444444444444	84	127
232.7908843537415	232.83732426303854	74	127
232.7908843537415	233.54553287981858	55	127
232.83732426303854	233.49909297052153	82	127
233.54553287981858	234.21891156462584	51	127
233.54553287981858	233.69646258503403	84	127
233.70807256235827	233.8938321995465	82	127
233.90544217687074	234.10281179138323	81	127
234.11442176870747	234.25374149659865	79	127
234.2653514739229	234.66009070294785	50	127
234.2653514739229	234.34662131519275	77	127
234.47433106575963	234.53238095238095	79	127
234.54399092970522	234.59043083900227	77	127
234.59043083900227	234.66009070294785	76	127
234.66009070294785	234.799410430839	77	127
234.66009070294785	234.9619501133787	55	127
234.799410430839	234.8690702947846	79	127
234.99678004535147	235.41473922902495	48	127
234.99678004535147	235.08965986394557	75	127
235.21736961451248	235.2754195011338	77	127
235.28702947845804	235.33346938775512	75	127
235.34507936507936	235.41473922902495	74	127
235.41473922902495	235.6121088435374	75	127
235.41473922902495	235.80947845804988	53	127
235.62371882086168	235.71659863945578	77	127
235.83269841269842	236.57573696145124	46	127
235.83269841269842	236.2506575963719	75	127
236.2506575963719	236.61056689342405	74	127
236.63378684807256	236.79632653061225	72	127
236.79632653061225	236.9356462585034	74	127
236.94725623582767	237.07496598639455	75	127
236.94725623582767	237.29555555555555	51	127
237.08657596371881	237.27233560090704	72	127
237.29555555555555	237.6322448979592	50	127
237.29555555555555	237.45809523809524	77	127
237.4697052154195	237.6322448979592	74	127
237.64385487528344	237.7251247165533	70	127
237.85283446712018	237.92249433106576	70	127
238.0385941043084	238.20113378684806	72	127
238.21274376417233	238.39850340136056	74	127
238.39850340136056	238.54943310657598	75	127
238.39850340136056	238.74680272108844	51	127
238.56104308390022	238.73519274376417	72	127
238.74680272108844	239.15315192743765	50	127
238.74680272108844	238.9441723356009	77	127
238.95578231292518	239.17637188208616	74	127
239.18798185941043	239.28086167800453	82	127
239.40857142857143	239.46662131519275	82	127
239.55950113378685	239.65238095238095	82	127
239.65238095238095	239.84975056689342	77	127
239.8613605442177	239.9542403628118	86	127
240.07034013605443	240.12839002267575	86	127
240.2677097505669	241.77700680272108	53	127
240.2677097505669	241.23133786848072	86	127
241.242947845805	241.37065759637187	87	127
241.3938775510204	241.56802721088437	84	127
241.5796371882086	241.75378684807256	81	127
241.77700680272108	242.09047619047618	58	127
241.77700680272108	241.9627664399093	82	127
241.9627664399093	242.10208616780045	86	127
242.11369614512472	242.20657596371882	77	127
242.33428571428573	242.42716553287983	77	127
242.48521541950115	242.63614512471656	77	127
242.63614512471656	242.79868480725622	82	127
242.8102947845805	242.9031746031746	74	127
243.01927437641723	243.11215419501133	74	127
243.23986394557824	244.90009070294784	53	127
243.23986394557824	244.26154195011338	74	127
244.27315192743765	244.4821315192744	77	127
244.49374149659863	244.6911111111111	75	127
244.70272108843537	244.8884807256236	72	127
244.90009070294784	245.2948299319728	46	127
244.90009070294784	245.2948299319728	70	127
256.9048072562358	262.1292970521542	72	127
258.37927437641724	262.8026757369615	60	127
260.2136507936508	262.26861678004536	48	127
262.26861678004536	262.8026757369615	65	127
264.1726530612245	264.2422902494331	69	127
264.1726530612245	264.2422902494331	53	127
264.3584126984127	264.43968253968256	55	127
264.3584126984127	264.43968253968256	70	127
264.5790022675737	264.66024943310657	72	127
264.5790022675737	264.66024943310657	57	127
264.76473922902494	264.85761904761904	74	127
264.76473922902494	264.85761904761904	58	127
264.9737414965986	265.2872108843537	75	127
264.9737414965986	265.2872108843537	60	127
265.63551020408164	265.72839002267574	81	127
265.63551020408164	265.72839002267574	65	127
265.85609977324265	265.9373696145125	67	127
265.85609977324265	265.9373696145125	82	127
266.0186394557823	266.09990929705214	84	127
266.0186394557823	266.09990929705214	69	127
266.22761904761904	266.29725623582766	86	127
266.22761904761904	266.29725623582766	70	127
266.41337868480724	266.79650793650796	87	127
266.41337868480724	266.79650793650796	72	127
267.27251700680273	267.6904761904762	46	127
267.7369160997732	268.07360544217687	50	127
268.1084353741497	268.45673469387754	53	127
268.49156462585034	268.89791383219955	50	127
268.93274376417236	269.30426303854875	46	127
269.3274829931973	269.67578231292515	50	127
269.5016326530612	269.71061224489796	70	127
269.71061224489796	269.9079818594104	74	127
269.71061224489796	270.0937414965986	53	127
269.9079818594104	270.0124716553288	72	127
270.11696145124716	270.47687074829935	50	127
270.11696145124716	270.198231292517	70	127
270.30272108843536	270.38396825396825	69	127
270.50009070294783	270.86	67	127
270.50009070294783	270.86	46	127
270.88321995464855	271.2663492063492	55	127
271.080589569161	271.301156462585	75	127
271.301156462585	271.66108843537415	51	127
271.301156462585	271.51013605442176	79	127
271.51013605442176	271.5798185941043	77	127
271.69591836734696	271.7771882086168	75	127
271.69591836734696	271.98616780045353	55	127
271.8700680272109	271.93972789115645	74	127
272.00938775510207	272.3692970521542	72	127
272.00938775510207	272.3692970521542	46	127
272.404126984127	272.69437641723357	51	127
272.5550566893424	272.7291836734694	72	127
272.7291836734694	272.94979591836733	75	127
272.7291836734694	273.1239455782313	54	127
272.94979591836733	273.0426530612245	73	127
273.15877551020407	273.24002267573695	72	127
273.15877551020407	273.5302947845805	51	127
273.3677551020408	273.4490022675737	70	127
273.56512471655327	273.7160544217687	70	127
273.56512471655327	273.9018140589569	46	127
273.727664399093	273.9134240362812	69	127
273.9366439909297	274.1224036281179	67	127
273.9366439909297	274.25011337868483	48	127
274.1340136054422	274.2617006802721	65	127
274.27331065759637	274.42426303854876	64	127
274.27331065759637	274.5984126984127	51	127
274.435873015873	274.61002267573696	65	127
274.6216326530612	274.79578231292516	67	127
274.6216326530612	274.9931519274376	48	127
274.8073922902494	275.0047619047619	69	127
275.01637188208616	275.21374149659863	70	127
275.01637188208616	275.3878684807256	46	127
275.4111111111111	275.51560090702947	72	127
275.51560090702947	275.60848072562356	70	127
275.62009070294783	275.71297052154193	69	127
275.71297052154193	275.8290702947846	70	127
275.8290702947846	276.01482993197277	72	127
275.8290702947846	276.1309297052154	64	127
276.1657596371882	276.2702494331066	74	127
276.2702494331066	276.37473922902495	72	127
276.3863492063492	276.4908390022676	71	127
276.50244897959186	276.60693877551023	72	127
276.60693877551023	277.3383446712018	74	127
276.60693877551023	277.8375963718821	65	127
277.3383446712018	277.524126984127	75	127
277.5357142857143	277.9072562358277	72	127
278.37165532879817	281.3554195011338	62	127
278.37165532879817	281.3554195011338	65	127
281.4831292517007	282.91115646258504	67	127
281.4831292517007	285.7439909297052	63	127
282.91115646258504	284.3043537414966	66	127
284.4204535147392	286.22	65	127
285.8833106575964	286.22	62	127
291.4096598639456	291.5838095238095	70	127
291.4096598639456	291.5838095238095	67	127
291.4096598639456	291.5838095238095	36	127
291.8508163265306	291.9669387755102	65	127
291.8508163265306	291.9669387755102	69	127
291.8508163265306	291.9669387755102	41	127
292.19913832199546	292.3732879818594	72	127
292.19913832199546	292.3732879818594	69	127
292.19913832199546	292.3732879818594	38	127
292.6403174603175	292.80285714285714	67	127
292.6403174603175	292.80285714285714	70	127
292.6403174603175	292.80285714285714	39	127
294.28893424036283	294.46308390022676	67	127
294.7068934240363	294.86943310657597	67	127
295.10163265306124	295.14807256235827	67	127
295.14807256235827	295.8678911564626	75	127
295.91433106575965	296.018820861678	68	127
296.2509977324263	296.4251700680272	68	127
296.6573469387755	296.680589569161	68	127
296.680589569161	297.3771655328798	77	127
297.4352380952381	297.59777777777776	70	127
297.783514739229	297.95768707482995	70	127
298.1666666666667	298.224716553288	70	127
298.224716553288	298.8168253968254	79	127
298.8748752834467	298.90968253968254	69	127
298.90968253968254	299.54825396825396	77	127
299.59469387755104	299.64113378684806	67	127
299.64113378684806	300.00104308390024	76	127
300.0242403628118	300.0707029478458	67	127
300.0707029478458	300.3957823129252	75	127
300.4190022675737	300.46544217687074	65	127
300.46544217687074	301.09238095238095	74	127
301.2665306122449	301.45229024943313	71	127
301.45229024943313	301.6496598639456	72	127
301.66124716553287	301.85863945578234	74	127
301.8702267573696	302.0676190476191	75	127
302.07920634920634	302.2533786848073	77	127
302.2533786848073	302.462358276644	78	127
302.462358276644	302.62489795918367	79	127
302.63650793650794	303.66979591836736	70	127
303.7742857142857	303.98326530612246	74	127
303.99487528344673	304.20385487528347	72	127
304.227052154195	304.4128344671202	70	127
304.62181405895694	304.7959637188209	74	127
304.62181405895694	304.7959637188209	44	127
304.9701133786848	305.1442403628118	75	127
304.9701133786848	305.1442403628118	43	127
305.36485260770974	305.4112925170068	76	127
305.36485260770974	305.5390022675737	42	127
305.4112925170068	305.4693424036281	77	127
305.4693424036281	305.5157823129252	76	127
305.5157823129252	305.5738321995465	77	127
305.5738321995465	305.6318820861678	76	127
305.6318820861678	305.65507936507936	77	127
305.67832199546484	305.7363718820862	74	127
305.7363718820862	305.7828117913832	76	127
305.7828117913832	305.9569387755102	77	127
305.7828117913832	305.9569387755102	41	127
306.15433106575966	306.34009070294786	38	127
306.15433106575966	306.34009070294786	78	127
306.57226757369614	306.7348299319728	79	127
306.57226757369614	306.7348299319728	39	127
307.30371882086166	307.43142857142857	56	127
307.30371882086166	308.0467573696145	59	127
307.43142857142857	307.5591383219955	62	127
307.57074829931975	307.6868480725624	65	127
307.69843537414965	307.8261678004535	68	127
307.8261678004535	307.9654875283447	65	127
307.97709750566895	308.11641723356007	62	127
308.12802721088434	308.4531065759637	60	127
308.12802721088434	308.2092743764172	67	127
308.22090702947844	308.34861678004535	63	127
308.3602267573696	308.464716553288	60	127
308.47632653061225	308.60403628117916	65	127
308.47632653061225	308.8594557823129	62	127
308.61562358276643	308.7433560090703	62	127
308.7433560090703	308.8710657596372	58	127
308.88267573696146	309.01038548752837	60	127
308.88267573696146	309.25419501133786	60	127
309.01038548752837	309.1380952380952	55	127
309.1380952380952	309.2774149659864	60	127
309.28902494331066	309.67215419501133	55	127
309.28902494331066	309.4167346938776	63	127
309.42834467120184	309.56766439909296	67	127
309.56766439909296	309.69537414965987	72	127
309.69537414965987	309.78825396825397	75	127
309.69537414965987	310.717052154195	56	127
309.79986394557824	309.88113378684807	74	127
309.89274376417234	310.008843537415	72	127
310.008843537415	310.1365532879819	70	127
310.14814058956915	310.26426303854873	68	127
310.275873015873	310.4151927437642	67	127
310.4151927437642	310.5312925170068	65	127
310.5429024943311	310.64739229024946	62	127
310.6589795918367	310.74027210884356	63	127
310.74027210884356	311.1930612244898	57	127
310.74027210884356	310.8795918367347	65	127
310.89120181405895	311.0305215419501	72	127
311.0421315192744	311.1814512471655	65	127
311.1930612244898	311.33238095238096	77	127
311.1930612244898	311.9012698412698	58	127
311.3439909297052	311.46009070294787	75	127
311.47170068027214	311.599410430839	74	127
311.61102040816326	311.7155102040816	72	127
311.7155102040816	311.82	70	127
311.83160997732426	311.93609977324263	68	127
311.93609977324263	312.06380952380954	67	127
312.06380952380954	312.14507936507937	68	127
312.15668934240364	312.28439909297055	70	127
312.2959863945578	312.42371882086167	72	127
312.2959863945578	312.6443083900227	39	127
312.42371882086167	312.56303854875284	71	127
312.5746485260771	312.6675283446712	72	127
312.6791383219955	312.78362811791385	69	127
312.7952380952381	312.93455782312924	70	127
312.9461678004535	313.0854875283447	72	127
313.09709750566896	313.2015873015873	74	127
313.09709750566896	313.43378684807254	41	127
313.2131746031746	313.3292970521542	73	127
313.3292970521542	313.4570068027211	74	127
313.46861678004535	313.5731065759637	70	127
313.46861678004535	313.805306122449	43	127
313.584716553288	313.7124263038549	69	127
313.7124263038549	313.82850340136054	70	127
313.84013605442175	313.9562358276644	72	127
313.84013605442175	314.1652154195011	45	127
313.96784580498866	314.072335600907	70	127
314.0839455782313	314.18843537414966	72	127
314.20004535147393	314.55995464852606	46	127
314.20004535147393	314.31614512471657	74	127
314.32775510204084	314.4438321995465	77	127
314.4554648526077	314.5715646258503	74	127
314.5715646258503	314.95467120181405	43	127
314.5715646258503	314.6760544217687	70	127
314.68766439909297	314.82698412698414	74	127
314.8385941043084	314.97791383219953	70	127
314.97791383219953	315.38426303854874	67	127
314.97791383219953	315.38426303854874	39	127
317.81074829931976	319.3432653061225	40	127
317.81074829931976	319.3432653061225	55	127
319.4593424036281	320.736462585034	64	127
319.4593424036281	320.736462585034	85	127
320.736462585034	321.13120181405895	86	127
320.736462585034	321.13120181405895	65	127
322.8146485260771	322.95396825396824	77	127
323.1513378684807	323.2790476190476	77	127
323.48802721088435	323.5460544217687	77	127
323.5460544217687	324.16138321995464	86	127
324.21945578231293	324.2775056689342	75	127
324.21945578231293	324.39360544217686	53	127
324.2775056689342	325.0205442176871	84	127
324.66063492063495	324.8231746031746	53	127
325.0785714285714	325.12503401360544	74	127
325.0785714285714	325.12503401360544	53	127
325.12503401360544	325.39206349206347	82	127
325.12503401360544	325.69390022675736	62	127
325.7287528344671	325.7751927437642	51	127
325.7287528344671	325.89126984126983	77	127
325.7751927437642	326.4601814058957	60	127
326.12349206349205	326.29764172335604	77	127
326.518231292517	326.56467120181406	77	127
326.518231292517	326.56467120181406	50	127
326.56467120181406	327.2264172335601	86	127
326.56467120181406	326.88975056689344	58	127
327.2844897959184	327.34253968253967	75	127
327.2844897959184	327.4586394557823	53	127
327.34253968253967	327.9694784580499	84	127
327.66761904761904	327.83015873015876	53	127
328.0275283446712	328.07396825396825	74	127
328.0275283446712	328.07396825396825	53	127
328.07396825396825	328.64285714285717	62	127
328.07396825396825	328.3525850340136	82	127
328.70090702947846	328.74734693877554	51	127
328.70090702947846	328.8634240362812	77	127
328.74734693877554	329.4091156462585	60	127
329.07242630385485	329.21174603174603	77	127
329.4555555555556	329.51360544217687	77	127
329.4555555555556	329.51360544217687	50	127
329.51360544217687	330.05927437641725	86	127
329.51360544217687	329.79224489795916	58	127
330.10571428571427	330.15215419501135	75	127
330.15215419501135	330.8951927437642	84	127
330.9416326530612	330.9880725623583	74	127
330.9880725623583	331.05773242630386	82	127
331.1390022675737	331.2086394557823	84	127
331.2086394557823	331.2667120181406	82	127
331.2667120181406	331.3247619047619	81	127
331.33637188208615	331.41761904761904	82	127
331.5453514739229	331.6265986394558	86	127
331.74272108843536	331.82396825396825	79	127
331.91687074829935	331.96331065759637	81	127
331.96331065759637	332.032947845805	79	127
332.032947845805	332.10263038548754	78	127
332.10263038548754	332.19551020408164	79	127
332.32321995464855	332.3928798185941	82	127
332.50897959183675	332.5786394557823	74	127
332.69473922902495	332.75278911564624	75	127
332.7643990929705	332.8340589569161	74	127
332.8340589569161	332.9037188208617	72	127
332.9037188208617	332.97337868480724	74	127
333.0894784580499	333.1707482993197	77	127
333.28684807256235	333.37972789115645	69	127
333.4842176870748	333.5190476190476	70	127
333.5306575963719	333.5887074829932	69	127
333.60031746031746	333.6699546485261	67	127
333.6699546485261	333.7628344671202	69	127
333.87895691609975	333.9718140589569	72	127
334.0879365079365	334.1227664399093	70	127
334.19242630385486	334.27367346938775	70	127
334.3781632653061	334.42462585034014	72	127
334.5407256235828	334.6219954648526	74	127
334.73809523809524	334.8077551020408	75	127
334.9006349206349	334.9702947845805	77	127
334.9702947845805	335.0283446712018	75	127
335.0283446712018	335.0979818594104	74	127
335.10961451247164	335.2837641723356	75	127
335.2953741496599	335.33020408163264	77	127
335.45791383219955	335.8526530612245	74	127
335.67850340136056	335.77138321995466	58	127
335.875873015873	335.95714285714286	60	127
336.08485260770976	336.1545124716553	62	127
336.23578231292515	336.9207709750567	69	127
336.23578231292515	336.2938321995465	63	127
336.3867120181406	336.4447619047619	65	127
336.4447619047619	336.5144217687075	63	127
336.5144217687075	336.58408163265307	62	127
336.58408163265307	336.71179138322	63	127
336.72340136054424	336.8046712018141	65	127
336.9207709750567	337.0136507936508	70	127
336.9207709750567	337.3039002267574	62	127
337.12975056689345	337.2110204081633	70	127
337.3271201814059	337.3967800453515	72	127
337.5128798185941	337.59414965986394	74	127
337.7102494331066	337.8031292517007	75	127
337.7102494331066	338.44167800453516	57	127
337.9308390022676	337.9772789115646	77	127
337.9888888888889	338.0469387755102	75	127
338.0585260770975	338.1165986394558	74	127
338.1165986394558	338.27913832199545	75	127
338.2907482993197	338.3255782312925	77	127
338.44167800453516	338.49972789115645	58	127
338.44167800453516	338.76675736961454	74	127
338.59260770975055	338.68548752834465	58	127
338.8015873015873	338.8828344671202	60	127
339.0221768707483	339.1034467120181	62	127
339.21954648526076	339.2891836734694	63	127
339.21954648526076	339.89292517006805	57	127
339.39367346938775	339.4633560090703	65	127
339.4633560090703	339.50979591836733	63	127
339.50979591836733	339.5678458049887	62	127
339.57945578231295	339.7071655328798	63	127
339.71877551020407	339.80002267573695	65	127
339.89292517006805	339.95097505668934	58	127
340.067074829932	340.1599546485261	70	127
340.2412244897959	340.32249433106574	72	127
340.45020408163265	340.5314739229025	74	127
340.63596371882085	341.35578231292516	75	127
341.4138321995465	342.15684807256235	74	127
342.21492063492065	342.8766893424036	72	127
342.9579591836735	343.71260770975056	70	127
343.7822448979592	344.35115646258504	63	127
344.3743764172336	344.5485260770975	60	127
344.5485260770975	344.9084126984127	65	127
344.5485260770975	345.3031746031746	62	127
344.9316553287982	345.3380045351474	82	127
344.9316553287982	345.3380045351474	70	127
345.3612244897959	346.0578231292517	63	127
345.7675736961451	346.0926530612245	70	127
345.7675736961451	346.0926530612245	79	127
345.7675736961451	346.0926530612245	63	127
346.1274829931973	347.57873015873014	65	127
346.5338321995465	346.83569160997735	70	127
346.5338321995465	346.83569160997735	62	127
346.5338321995465	346.83569160997735	77	127
347.2536507936508	347.6832199546485	69	127
347.2536507936508	347.6832199546485	63	127
347.6832199546485	348.0895691609977	70	127
347.6832199546485	348.0895691609977	62	127
347.6832199546485	348.0895691609977	58	127
349.8542857142857	350.0284126984127	70	127
350.0284126984127	350.22578231292516	74	127
350.22578231292516	350.2954648526077	72	127
350.41156462585036	350.50444444444446	70	127
350.6205442176871	350.69020408163266	69	127
350.6205442176871	350.8063038548753	53	127
350.8063038548753	350.96884353741495	58	127
350.8063038548753	351.14297052154194	67	127
350.96884353741495	351.05009070294784	56	127
351.1778231292517	351.2707029478458	55	127
351.38680272108843	351.60739229024944	70	127
351.38680272108843	351.4796825396825	53	127
351.60739229024944	351.78154195011336	79	127
351.60739229024944	351.92086167800454	51	127
351.78154195011336	351.8395918367347	77	127
351.95569160997735	352.01374149659864	75	127
352.09501133786847	352.18789115646257	74	127
352.09501133786847	352.29238095238094	58	127
352.29238095238094	352.4897505668934	63	127
352.29238095238094	352.6639002267574	72	127
352.4897505668934	352.5710204081633	62	127
352.69873015873014	352.77997732426303	60	127
352.86126984126986	353.08185941043087	72	127
352.86126984126986	352.95414965986396	58	127
353.08185941043087	353.2560090702948	77	127
353.08185941043087	353.39530612244897	57	127
353.2560090702948	353.32566893424035	75	127
353.41854875283445	353.46498866213153	74	127
353.5230385487528	353.73201814058956	53	127
353.5230385487528	353.6159183673469	72	127
353.73201814058956	353.91777777777776	58	127
353.73201814058956	354.103537414966	70	127
353.91777777777776	354.1151247165533	62	127
354.1267573696145	354.32410430839	65	127
354.32410430839	354.4750566893424	65	127
354.32410430839	354.4750566893424	62	127
354.4750566893424	354.8581859410431	58	127
354.4750566893424	354.6956462585034	70	127
354.6956462585034	354.765306122449	74	127
354.86979591836734	354.96267573696144	77	127
355.0671655328798	355.12521541950116	74	127
355.0671655328798	355.252925170068	41	127
355.252925170068	355.427074829932	46	127
355.252925170068	355.6012244897959	70	127
355.427074829932	355.5083446712018	50	127
355.647641723356	355.72893424036283	53	127
355.81020408163266	356.00757369614513	70	127
355.81020408163266	355.86825396825395	50	127
356.00757369614513	356.35587301587304	46	127
356.00757369614513	356.1933333333333	74	127
356.1933333333333	356.27460317460316	72	127
356.3790929705215	356.4719727891156	70	127
356.58807256235826	356.750612244898	53	127
356.58807256235826	356.66931972789115	68	127
356.750612244898	356.9595918367347	58	127
356.750612244898	357.1105215419501	67	127
356.9595918367347	357.0292517006803	56	127
357.1569614512472	357.238231292517	55	127
357.35433106575965	357.4356009070295	53	127
357.35433106575965	357.50526077097504	70	127
357.50526077097504	357.7026303854875	78	127
357.50526077097504	357.8767800453515	51	127
357.7026303854875	357.79548752834467	77	127
357.89997732426303	357.98126984126986	75	127
358.03931972789115	358.2134693877551	58	127
358.03931972789115	358.120589569161	73	127
358.2134693877551	358.5501587301587	72	127
358.2134693877551	358.39922902494334	63	127
358.39922902494334	358.45727891156463	62	127
358.57337868480727	358.6430385487528	60	127
358.77074829931973	358.9332879818594	72	127
358.77074829931973	358.828798185941	58	127
358.9332879818594	359.11902494331065	77	127
358.9332879818594	359.2467573696145	57	127
359.11902494331065	359.17709750566894	75	127
359.2815873015873	359.3744671201814	74	127
359.4789569160998	359.6879365079365	41	127
359.4789569160998	359.5602267573696	72	127
359.6879365079365	359.8736961451247	46	127
359.6879365079365	359.98979591836735	70	127
359.8736961451247	359.9085260770975	50	127
360.0014058956916	360.0942857142857	53	127
360.2219954648526	360.30326530612246	53	127
360.2219954648526	360.39614512471655	65	127
360.39614512471655	360.72122448979593	50	127
360.39614512471655	360.593514739229	70	127
360.593514739229	360.6399546485261	74	127
360.75603174603174	360.81410430839003	77	127
360.93020408163267	361.08113378684806	53	127
360.93020408163267	360.9998639455782	77	127
361.08113378684806	361.3829931972789	74	127
361.08113378684806	361.25528344671204	58	127
361.25528344671204	361.2901133786848	62	127
361.40621315192743	361.48748299319726	65	127
361.6035827664399	361.80095238095237	77	127
361.6035827664399	361.6848299319728	65	127
361.80095238095237	361.97510204081635	82	127
361.80095238095237	362.1144217687075	62	127
361.97510204081635	362.03315192743764	86	127
362.137641723356	362.2305215419501	89	127
362.30018140589567	362.3930385487528	89	127
362.30018140589567	362.4975283446712	41	127
362.5091609977324	362.9155102040816	86	127
362.5091609977324	362.9155102040816	46	127
363.3334693877551	363.70498866213154	82	127
363.3334693877551	363.70498866213154	70	127
363.3334693877551	363.70498866213154	62	127
363.3334693877551	363.70498866213154	58	127
364.1809977324263	365.0633560090703	58	127
364.1809977324263	365.0633560090703	46	127
