# onset,offset,note,velocity
0.034058956916099774	1.0789569160997732	55	127
0.034058956916099774	1.0789569160997732	48	127
0.034058956916099774	1.0789569160997732	52	127
0.034058956916099774	1.5781859410430839	67	127
0.034058956916099774	1.0789569160997732	60	127
0.3707482993197279	1.5781859410430839	72	127
0.521655328798186	1.5781859410430839	76	127
0.7654875283446712	1.5781859410430839	79	127
1.60140589569161	1.7407256235827664	81	127
1.7407256235827664	1.8916553287981859	79	127
1.8916553287981859	2.0658049886621317	77	127
2.0658049886621317	2.2399546485260773	76	127
2.2399546485260773	2.4024943310657596	74	127
2.4024943310657596	2.5418140589569163	72	127
2.5418140589569163	3.064263038548753	72	127
3.0874829931972787	3.5867120181405894	64	127
3.0874829931972787	3.5867120181405894	72	127
3.0874829931972787	3.5867120181405894	60	127
3.6215419501133788	4.283310657596372	72	127
3.6215419501133788	4.283310657596372	60	127
3.6215419501133788	4.283310657596372	64	127
4.329750566893424	5.978367346938776	65	127
4.329750566893424	5.978367346938776	55	127
4.329750566893424	5.978367346938776	62	127
4.329750566893424	5.177278911564626	72	127
5.235328798185941	5.38625850340136	74	127
5.38625850340136	5.53718820861678	72	127
5.53718820861678	5.676507936507937	71	127
5.676507936507937	5.815827664399093	72	127
5.815827664399093	5.966757369614513	74	127
5.966757369614513	6.117687074829932	76	127
6.117687074829932	6.616916099773243	77	127
6.953605442176871	7.034875283446712	76	127
7.034875283446712	7.150975056689342	74	127
7.150975056689342	7.290294784580499	72	127
7.290294784580499	7.4412244897959186	74	127
7.4412244897959186	7.568934240362812	76	127
7.568934240362812	7.731473922902494	77	127
7.731473922902494	8.277142857142858	79	127
7.731473922902494	8.277142857142858	52	127
7.731473922902494	8.277142857142858	60	127
8.625442176870749	8.787981859410431	77	127
8.787981859410431	8.892471655328798	76	127
8.892471655328798	8.996938775510204	74	127
8.996938775510204	9.147891156462585	76	127
9.147891156462585	9.310430839002267	77	127
9.310430839002267	9.484580498866213	79	127
9.484580498866213	10.645555555555555	53	127
9.484580498866213	10.00702947845805	81	127
9.484580498866213	10.041836734693877	60	127
10.041836734693877	10.645555555555555	69	127
10.041836734693877	12.456734693877552	62	127
10.645555555555555	11.295736961451247	54	127
10.645555555555555	11.295736961451247	74	127
11.330566893424036	12.096825396825396	72	127
11.330566893424036	13.397142857142857	55	127
12.096825396825396	12.259365079365079	71	127
12.259365079365079	12.387074829931972	72	127
12.387074829931972	12.538004535147392	71	127
12.538004535147392	13.002403628117914	60	127
12.538004535147392	12.677324263038548	74	127
12.677324263038548	12.75859410430839	72	127
12.75859410430839	12.886303854875283	69	127
12.886303854875283	13.037233560090703	66	127
13.037233560090703	13.397142857142857	59	127
13.037233560090703	13.397142857142857	67	127
14.639410430839002	15.254739229024944	48	127
14.639410430839002	15.254739229024944	64	127
14.639410430839002	15.254739229024944	60	127
14.639410430839002	15.254739229024944	55	127
14.639410430839002	15.254739229024944	36	127
17.251655328798186	17.8437641723356	55	127
17.251655328798186	17.8437641723356	48	127
17.251655328798186	17.8437641723356	60	127
17.251655328798186	17.8437641723356	64	127
17.87859410430839	18.41265306122449	64	127
17.87859410430839	18.41265306122449	55	127
17.87859410430839	18.41265306122449	48	127
17.87859410430839	18.41265306122449	60	127
18.44748299319728	20.06126984126984	62	127
18.44748299319728	20.06126984126984	31	127
18.44748299319728	20.06126984126984	43	127
18.44748299319728	20.06126984126984	65	127
18.44748299319728	20.06126984126984	55	127
21.849206349206348	22.38326530612245	60	127
21.849206349206348	22.38326530612245	40	127
21.849206349206348	22.38326530612245	52	127
21.849206349206348	22.38326530612245	67	127
21.849206349206348	22.38326530612245	55	127
23.474603174603175	25.123219954648526	57	127
23.474603174603175	25.123219954648526	41	127
23.474603174603175	25.123219954648526	62	127
23.474603174603175	25.123219954648526	53	127
23.474603174603175	25.123219954648526	65	127
25.297369614512473	27.120136054421767	55	127
25.297369614512473	27.120136054421767	43	127
25.297369614512473	26.493197278911566	62	127
25.297369614512473	27.120136054421767	65	127
26.574467120181406	27.236235827664398	59	127
27.27106575963719	27.88639455782313	55	127
27.27106575963719	27.88639455782313	60	127
27.27106575963719	27.88639455782313	36	127
27.27106575963719	27.88639455782313	64	127
27.921224489795918	28.582993197278913	69	127
28.582993197278913	29.175102040816327	77	127
29.209931972789114	30.997868480725625	65	127
29.209931972789114	30.997868480725625	55	127
29.209931972789114	30.05746031746032	71	127
29.209931972789114	30.324489795918367	62	127
30.127120181405896	30.196780045351474	72	127
30.196780045351474	30.278049886621314	71	127
30.278049886621314	30.33609977324263	69	127
30.33609977324263	30.41736961451247	71	127
30.41736961451247	30.963038548752834	59	127
30.41736961451247	30.83532879818594	74	127
30.858548752834466	30.997868480725625	72	127
30.997868480725625	31.566757369614514	57	127
30.997868480725625	31.566757369614514	72	127
30.997868480725625	31.566757369614514	64	127
30.997868480725625	31.566757369614514	60	127
32.25174603174603	32.936734693877554	53	127
32.25174603174603	32.936734693877554	41	127
32.25174603174603	32.936734693877554	62	127
32.25174603174603	32.936734693877554	57	127
32.983174603174604	35.00331065759637	65	127
32.983174603174604	35.00331065759637	43	127
32.983174603174604	35.00331065759637	55	127
32.983174603174604	35.00331065759637	59	127
32.983174603174604	35.00331065759637	62	127
35.00331065759637	35.57219954648526	60	127
35.00331065759637	35.57219954648526	64	127
35.00331065759637	35.57219954648526	36	127
35.00331065759637	35.57219954648526	48	127
36.001768707482995	36.106258503401364	53	127
36.106258503401364	36.268798185941044	52	127
36.268798185941044	37.302086167800454	67	127
36.268798185941044	36.79124716553288	71	127
36.268798185941044	36.39650793650794	55	127
36.268798185941044	36.79124716553288	65	127
36.39650793650794	36.547437641723356	53	127
36.547437641723356	36.67514739229025	52	127
36.67514739229025	36.79124716553288	50	127
36.79124716553288	37.302086167800454	64	127
36.79124716553288	37.302086167800454	72	127
36.79124716553288	37.302086167800454	48	127
37.638775510204084	37.7897052154195	53	127
37.7897052154195	37.90580498866213	52	127
37.90580498866213	38.03351473922903	55	127
37.90580498866213	38.43986394557823	71	127
37.90580498866213	38.43986394557823	77	127
37.90580498866213	38.97392290249433	67	127
38.03351473922903	38.184444444444445	53	127
38.184444444444445	38.31215419501134	52	127
38.31215419501134	38.43986394557823	50	127
38.43986394557823	38.97392290249433	48	127
38.43986394557823	38.97392290249433	76	127
38.43986394557823	38.97392290249433	72	127
39.31061224489796	39.449931972789116	53	127
39.449931972789116	39.57764172335601	52	127
39.57764172335601	40.808299319727894	79	127
39.57764172335601	39.74018140589569	55	127
39.57764172335601	40.21619047619048	83	127
39.57764172335601	40.21619047619048	77	127
39.74018140589569	39.91433106575964	53	127
39.91433106575964	40.06526077097506	52	127
40.06526077097506	40.21619047619048	50	127
40.21619047619048	40.808299319727894	76	127
40.21619047619048	40.808299319727894	84	127
40.21619047619048	40.808299319727894	48	127
41.14498866213152	41.29589569160998	60	127
41.29589569160998	41.4352380952381	59	127
41.4352380952381	41.551315192743765	62	127
41.551315192743765	41.690657596371885	60	127
41.690657596371885	41.79512471655329	64	127
41.79512471655329	41.92283446712018	62	127
41.92283446712018	42.050544217687076	65	127
42.050544217687076	42.17825396825397	64	127
42.17825396825397	42.31759637188209	67	127
42.31759637188209	42.44530612244898	65	127
42.44530612244898	42.573015873015876	69	127
42.573015873015876	42.67750566893424	67	127
42.67750566893424	42.82843537414966	71	127
42.82843537414966	42.956145124716556	69	127
42.956145124716556	43.06061224489796	72	127
43.06061224489796	43.21156462585034	71	127
43.21156462585034	43.36249433106576	74	127
43.36249433106576	43.54825396825397	72	127
43.54825396825397	44.17519274376417	45	127
43.54825396825397	44.17519274376417	48	127
43.54825396825397	44.55832199546485	64	127
43.54825396825397	44.17519274376417	57	127
43.54825396825397	44.17519274376417	52	127
43.652743764172335	44.55832199546485	69	127
43.757233560090704	44.55832199546485	72	127
43.873333333333335	44.55832199546485	76	127
44.581541950113376	44.720839002267574	77	127
44.720839002267574	44.860181405895695	76	127
44.860181405895695	44.99950113378685	74	127
44.99950113378685	45.138820861678006	72	127
45.138820861678006	45.31297052154195	71	127
45.31297052154195	45.452290249433105	69	127
45.452290249433105	45.99795918367347	69	127
46.056009070294785	46.72938775510204	76	127
46.056009070294785	47.28666666666667	69	127
46.056009070294785	46.72938775510204	84	127
46.72938775510204	47.28666666666667	81	127
46.72938775510204	47.28666666666667	72	127
47.33310657596372	49.03977324263039	74	127
47.33310657596372	49.03977324263039	64	127
47.33310657596372	49.03977324263039	71	127
47.33310657596372	48.1225850340136	81	127
48.18063492063492	48.29673469387755	80	127
48.29673469387755	48.43605442176871	81	127
48.43605442176871	48.58698412698413	83	127
48.58698412698413	48.737913832199546	84	127
48.737913832199546	48.888843537414964	86	127
48.888843537414964	49.03977324263039	80	127
49.03977324263039	49.59705215419501	72	127
49.03977324263039	49.59705215419501	81	127
49.03977324263039	49.59705215419501	69	127
50.88575963718821	52.778185941043084	59	127
50.88575963718821	53.439954648526076	64	127
50.88575963718821	52.778185941043084	40	127
50.88575963718821	52.778185941043084	62	127
50.88575963718821	52.778185941043084	52	127
52.778185941043084	53.439954648526076	60	127
52.778185941043084	53.439954648526076	57	127
52.778185941043084	53.439954648526076	45	127
53.67215419501134	53.823083900226756	75	127
53.823083900226756	53.974013605442174	77	127
53.974013605442174	54.10172335600907	76	127
54.10172335600907	54.264263038548755	74	127
54.264263038548755	54.40358276643991	72	127
54.40358276643991	54.51968253968254	71	127
54.51968253968254	54.647392290249435	69	127
54.647392290249435	57.84013605442177	57	127
54.647392290249435	57.712426303854876	50	127
54.647392290249435	56.388888888888886	60	127
54.647392290249435	55.42526077097506	67	127
55.42526077097506	55.56458049886621	66	127
55.56458049886621	55.71551020408163	72	127
55.71551020408163	55.85482993197279	71	127
55.85482993197279	55.99414965986394	69	127
55.99414965986394	56.1334693877551	76	127
56.1334693877551	56.26117913832199	74	127
56.26117913832199	56.388888888888886	72	127
56.388888888888886	57.84013605442177	54	127
56.388888888888886	56.51659863945578	81	127
56.51659863945578	56.64430839002267	79	127
56.64430839002267	56.7604081632653	78	127
56.7604081632653	56.8881179138322	84	127
56.8881179138322	57.02743764172335	83	127
57.02743764172335	57.155147392290246	81	127
57.155147392290246	57.28285714285714	79	127
57.28285714285714	57.4221768707483	78	127
57.4221768707483	57.549886621315196	76	127
57.549886621315196	57.700816326530614	74	127
57.700816326530614	57.82852607709751	72	127
57.82852607709751	57.979455782312925	76	127
57.979455782312925	59.76739229024943	57	127
57.979455782312925	60.324671201814056	55	127
57.979455782312925	58.7108843537415	74	127
57.979455782312925	59.76739229024943	66	127
58.7108843537415	58.87342403628118	72	127
58.87342403628118	59.0243537414966	71	127
59.0243537414966	59.186893424036285	72	127
59.186893424036285	59.31460317460318	71	127
59.31460317460318	59.453922902494334	72	127
59.453922902494334	59.59324263038549	74	127
59.59324263038549	59.76739229024943	72	127
59.76739229024943	60.324671201814056	67	127
59.76739229024943	60.324671201814056	59	127
59.76739229024943	60.324671201814056	71	127
60.37111111111111	60.986439909297054	43	127
62.15904761904762	62.69310657596372	66	127
62.15904761904762	62.69310657596372	60	127
62.15904761904762	62.69310657596372	62	127
62.44929705215419	62.60022675736961	69	127
62.60022675736961	62.727936507936505	71	127
62.727936507936505	62.832426303854874	72	127
62.832426303854874	62.96013605442177	74	127
62.96013605442177	63.09945578231292	76	127
63.09945578231292	63.215555555555554	78	127
63.215555555555554	63.74961451247165	79	127
63.784444444444446	64.30687074829932	67	127
63.784444444444446	64.30687074829932	59	127
63.784444444444446	64.30687074829932	62	127
65.50272108843538	65.9438775510204	62	127
65.50272108843538	65.9438775510204	66	127
65.50272108843538	65.9438775510204	60	127
65.63043083900227	65.71167800453514	68	127
65.71167800453514	65.85102040816327	69	127
65.85102040816327	65.97873015873016	71	127
65.97873015873016	66.11804988662132	72	127
66.11804988662132	66.24575963718821	74	127
66.24575963718821	66.36185941043084	76	127
66.36185941043084	66.52439909297053	78	127
66.52439909297053	67.01201814058957	79	127
67.05845804988662	67.58090702947845	59	127
67.05845804988662	67.58090702947845	67	127
67.05845804988662	67.58090702947845	62	127
68.26589569160998	69.84485260770975	64	127
68.26589569160998	69.84485260770975	67	127
68.26589569160998	71.34253968253968	57	127
68.96249433106576	69.12503401360544	79	127
69.12503401360544	69.26433106575963	81	127
69.26433106575963	69.41528344671202	83	127
69.41528344671202	69.53138321995465	81	127
69.53138321995465	69.68231292517007	79	127
69.68231292517007	69.83324263038548	78	127
69.83324263038548	69.9841723356009	76	127
69.9841723356009	70.07705215419502	74	127
69.9841723356009	70.9942403628118	67	127
69.9841723356009	70.9942403628118	64	127
70.07705215419502	70.18154195011338	73	127
70.18154195011338	70.3324716553288	76	127
70.3324716553288	70.48340136054422	74	127
70.48340136054422	70.63433106575964	78	127
70.63433106575964	70.78526077097506	76	127
70.78526077097506	70.93619047619048	79	127
70.93619047619048	71.07551020408164	78	127
71.07551020408164	71.22643990929706	81	127
71.07551020408164	71.58634920634921	64	127
71.07551020408164	71.58634920634921	61	127
71.22643990929706	71.33092970521542	79	127
71.33092970521542	71.48185941043084	76	127
71.48185941043084	71.62117913832199	73	127
71.62117913832199	74.04766439909297	50	127
71.62117913832199	72.49192743764172	76	127
71.62117913832199	73.46716553287982	61	127
71.62117913832199	73.46716553287982	55	127
71.62117913832199	74.04766439909297	57	127
72.56156462585034	72.71251700680273	75	127
72.71251700680273	72.85183673469388	76	127
72.85183673469388	73.0027664399093	75	127
73.0027664399093	73.16530612244898	76	127
73.16530612244898	73.3162358276644	78	127
73.3162358276644	73.46716553287982	76	127
73.46716553287982	74.04766439909297	62	127
73.46716553287982	74.04766439909297	54	127
73.46716553287982	74.04766439909297	74	127
75.2318820861678	75.8007709750567	43	127
75.84721088435374	76.40448979591837	47	127
76.45092970521542	77.00818594104308	50	127
77.04303854875283	77.66997732426304	47	127
77.70480725623582	78.27369614512472	43	127
78.88902494331066	79.70172335600907	76	127
79.77136054421769	79.93392290249433	77	127
79.93392290249433	80.08485260770975	76	127
80.08485260770975	80.25900226757369	74	127
80.25900226757369	80.43312925170068	72	127
80.43312925170068	80.58408163265307	71	127
80.58408163265307	80.73501133786849	69	127
80.73501133786849	80.96721088435375	69	127
80.73501133786849	81.52448979591837	64	127
81.31551020408163	81.5477097505669	69	127
81.59414965986394	81.74507936507936	66	127
81.74507936507936	81.89600907029478	64	127
81.89600907029478	82.12820861678004	69	127
81.89600907029478	82.03532879818594	62	127
82.03532879818594	82.18625850340136	61	127
82.18625850340136	82.30235827664399	59	127
82.30235827664399	82.46489795918367	57	127
82.46489795918367	82.74353741496599	57	127
82.46489795918367	83.31242630385488	84	127
83.09181405895691	83.32401360544218	57	127
83.35886621315193	83.48657596371882	86	127
83.48657596371882	83.63750566893424	84	127
83.63750566893424	83.78843537414966	83	127
83.63750566893424	83.88131519274377	57	127
83.78843537414966	83.93936507936507	81	127
83.93936507936507	84.06707482993197	79	127
84.06707482993197	84.21798185941043	78	127
84.21798185941043	84.38054421768707	76	127
84.21798185941043	84.7520634920635	57	127
84.38054421768707	84.50825396825397	74	127
84.50825396825397	84.65918367346939	73	127
84.65918367346939	84.78689342403628	74	127
84.78689342403628	84.9378231292517	73	127
84.78689342403628	85.30934240362812	54	127
84.9378231292517	85.06553287981859	74	127
85.06553287981859	85.19324263038548	76	127
85.19324263038548	85.3441723356009	75	127
85.3441723356009	85.93628117913832	50	127
85.3441723356009	85.51832199546486	78	127
85.51832199546486	85.68086167800453	76	127
85.68086167800453	85.83179138321995	74	127
85.83179138321995	85.97111111111111	72	127
85.97111111111111	86.52839002267574	55	127
85.97111111111111	86.26133786848072	71	127
86.27297052154195	86.55160997732426	67	127
86.55160997732426	86.84185941043084	71	127
86.8534693877551	87.14371882086168	74	127
87.15530612244898	87.44557823129252	79	127
87.15530612244898	87.72421768707483	57	127
87.15530612244898	87.72421768707483	50	127
87.45718820861678	87.74743764172335	78	127
87.75904761904762	88.29310657596372	43	127
87.75904761904762	88.29310657596372	55	127
88.0492970521542	88.31632653061224	74	127
88.32793650793651	88.6762358276644	79	127
88.68784580498867	88.97809523809524	83	127
88.9897052154195	89.27995464852607	86	127
88.9897052154195	89.53537414965986	57	127
88.9897052154195	89.53537414965986	50	127
89.29156462585034	89.55857142857143	84	127
89.58181405895692	90.1507029478458	55	127
89.58181405895692	89.86045351473923	71	127
89.87206349206349	90.17390022675737	67	127
90.1855328798186	90.48739229024943	71	127
90.4990022675737	90.78925170068027	74	127
90.80086167800454	91.3465306122449	57	127
90.80086167800454	91.06786848072562	79	127
90.80086167800454	91.3465306122449	50	127
91.07950113378685	91.36975056689343	78	127
91.39297052154195	91.93863945578231	55	127
91.39297052154195	91.93863945578231	43	127
91.67160997732427	91.96183673469388	74	127
91.9734693877551	92.26371882086168	79	127
92.27532879818594	92.61201814058957	83	127
92.62362811791384	93.21571428571428	57	127
92.62362811791384	92.92548752834468	86	127
92.62362811791384	93.21571428571428	50	127
92.93709750566893	93.25056689342404	84	127
93.2621768707483	93.80784580498866	55	127
93.2621768707483	93.80784580498866	59	127
93.40149659863945	93.54081632653062	83	127
93.54081632653062	93.69174603174604	86	127
93.69174603174604	93.84267573696145	84	127
93.84267573696145	94.00519274376417	83	127
94.00519274376417	94.14453514739229	81	127
94.14453514739229	94.27224489795918	79	127
94.27224489795918	94.41156462585035	78	127
94.41156462585035	94.56249433106576	76	127
94.56249433106576	94.69020408163266	74	127
94.69020408163266	94.78308390022676	72	127
94.78308390022676	94.8991836734694	71	127
94.8991836734694	96.60585034013606	47	127
94.8991836734694	97.19795918367348	55	127
94.8991836734694	96.60585034013606	50	127
94.8991836734694	95.03850340136054	69	127
95.03850340136054	95.16621315192744	67	127
95.16621315192744	95.24748299319728	66	127
95.24748299319728	95.37519274376417	67	127
95.37519274376417	95.53773242630386	66	127
95.53773242630386	95.68866213151928	67	127
95.68866213151928	95.8395918367347	66	127
95.8395918367347	96.00213151927437	67	127
96.00213151927437	96.15306122448979	69	127
96.15306122448979	96.30399092970522	67	127
96.30399092970522	96.45492063492064	71	127
96.45492063492064	96.60585034013606	67	127
96.60585034013606	97.19795918367348	64	127
96.60585034013606	97.19795918367348	52	127
96.60585034013606	97.19795918367348	48	127
97.55786848072562	97.82489795918367	68	127
97.83650793650794	98.18480725623583	69	127
98.1964172335601	98.48666666666666	71	127
98.49827664399093	98.62598639455783	72	127
98.62598639455783	98.66081632653061	74	127
98.66081632653061	98.70725623582767	72	127
98.70725623582767	98.75369614512472	71	127
98.75369614512472	98.84657596371882	72	127
98.84657596371882	98.92784580498866	74	127
98.92784580498866	99.00911564625851	76	127
99.00911564625851	99.04394557823129	78	127
99.04394557823129	99.09038548752835	76	127
99.09038548752835	99.14843537414966	74	127
99.14843537414966	99.29936507936507	76	127
99.29936507936507	99.40385487528344	78	127
99.40385487528344	100.03079365079365	52	127
99.40385487528344	99.70571428571428	79	127
99.40385487528344	100.03079365079365	58	127
99.40385487528344	100.03079365079365	55	127
99.40385487528344	100.03079365079365	49	127
99.72893424036282	100.05401360544218	79	127
100.06562358276643	100.2978231292517	50	127
100.06562358276643	100.18172335600907	79	127
100.06562358276643	100.2978231292517	59	127
100.06562358276643	100.2978231292517	55	127
100.35587301587302	100.46036281179138	71	127
100.63451247165533	100.75061224489797	72	127
100.93637188208616	101.02925170068028	73	127
101.2730612244898	101.43560090702948	74	127
101.63297052154195	101.78390022675737	75	127
101.96965986394558	102.13219954648527	76	127
102.561768707483	103.21192743764172	64	127
103.21192743764172	103.80403628117914	66	127
103.21192743764172	103.80403628117914	57	127
103.21192743764172	103.80403628117914	50	127
103.21192743764172	103.80403628117914	60	127
103.83886621315193	105.77773242630386	60	127
103.83886621315193	105.17401360544218	57	127
103.83886621315193	104.77927437641723	66	127
103.83886621315193	107.4263492063492	51	127
104.86054421768708	104.96503401360545	67	127
104.96503401360545	105.03469387755102	66	127
105.03469387755102	105.11596371882086	64	127
105.11596371882086	105.17401360544218	66	127
105.17401360544218	105.74290249433106	69	127
105.17401360544218	105.88222222222223	54	127
105.76612244897959	105.917052154195	67	127
105.917052154195	106.78780045351473	67	127
105.917052154195	107.14770975056689	58	127
105.917052154195	107.57727891156462	55	127
106.84585034013605	106.9271201814059	68	127
106.9271201814059	106.99678004535147	67	127
106.99678004535147	107.07804988662132	66	127
107.07804988662132	107.14770975056689	67	127
107.14770975056689	107.70498866213151	61	127
107.14770975056689	107.54244897959184	70	127
107.56566893424036	107.7398185941043	68	127
107.7398185941043	109.43487528344671	60	127
107.7398185941043	110.95578231292517	51	127
107.7398185941043	108.58734693877551	68	127
107.7398185941043	109.43487528344671	56	127
108.64539682539683	108.72666666666667	70	127
108.72666666666667	108.79632653061225	68	127
108.79632653061225	108.87759637188209	67	127
108.87759637188209	108.94725623582767	68	127
108.94725623582767	109.40004535147392	72	127
109.42326530612245	109.55097505668934	70	127
109.55097505668934	110.6655328798186	61	127
109.55097505668934	110.32884353741497	70	127
109.55097505668934	111.09510204081633	55	127
110.38689342403629	110.46816326530612	72	127
110.46816326530612	110.5378231292517	70	127
110.5378231292517	110.59587301587301	69	127
110.59587301587301	110.6655328798186	70	127
110.6655328798186	111.22281179138322	58	127
110.6655328798186	111.06027210884353	73	127
111.08349206349206	111.257641723356	72	127
111.257641723356	112.0471201814059	72	127
111.257641723356	114.45038548752835	51	127
111.257641723356	112.89464852607709	60	127
111.257641723356	112.89464852607709	56	127
112.11678004535148	112.18643990929705	73	127
112.18643990929705	112.25609977324262	72	127
112.25609977324262	112.33736961451247	71	127
112.33736961451247	112.41863945578231	72	127
112.41863945578231	112.84820861678004	75	127
112.87142857142857	113.01074829931973	73	127
113.01074829931973	114.0556462585034	55	127
113.01074829931973	114.0556462585034	58	127
113.01074829931973	113.78861678004534	73	127
113.85827664399093	113.91632653061224	75	127
113.91632653061224	113.97437641723356	73	127
113.97437641723356	114.06725623582767	72	127
114.06725623582767	114.1485260770975	73	127
114.1485260770975	114.70580498866214	61	127
114.1485260770975	114.56648526077097	79	127
114.1485260770975	114.70580498866214	58	127
114.5897052154195	114.74063492063492	80	127
114.74063492063492	118.1075283446712	51	127
114.74063492063492	116.4124716553288	60	127
114.74063492063492	116.4124716553288	56	127
114.74063492063492	115.54172335600907	80	127
115.61138321995465	115.68104308390022	82	127
115.68104308390022	115.78553287981859	80	127
115.78553287981859	115.86680272108843	79	127
115.86680272108843	115.93646258503401	80	127
115.93646258503401	116.20349206349206	84	127
116.21510204081633	116.55179138321995	80	127
116.56340136054422	116.96975056689342	85	127
116.56340136054422	118.27006802721088	58	127
116.56340136054422	118.27006802721088	55	127
116.99297052154195	117.17873015873016	82	127
117.17873015873016	117.45736961451247	79	127
117.46897959183673	117.55024943310657	84	127
117.55024943310657	117.63151927437642	82	127
117.63151927437642	117.71278911564626	81	127
117.71278911564626	117.7940589569161	82	127
117.7940589569161	118.25845804988663	85	127
118.25845804988663	118.43260770975057	82	127
118.43260770975057	119.03632653061224	59	127
118.43260770975057	119.29174603174603	86	127
118.43260770975057	119.03632653061224	50	127
118.43260770975057	119.03632653061224	55	127
119.3614058956916	119.64004535147393	83	127
119.66326530612245	119.84902494331065	86	127
119.86063492063492	120.04639455782313	83	127
120.08122448979591	120.26698412698413	79	127
120.2785941043084	120.8126530612245	74	127
121.53247165532879	122.159410430839	78	127
121.53247165532879	122.159410430839	69	127
121.53247165532879	122.159410430839	50	127
121.53247165532879	122.159410430839	72	127
122.159410430839	122.71668934240363	71	127
122.159410430839	122.71668934240363	43	127
122.159410430839	122.71668934240363	67	127
122.159410430839	122.71668934240363	79	127
124.00539682539683	124.58589569160998	64	127
124.00539682539683	124.58589569160998	72	127
124.62072562358277	125.18961451247165	62	127
124.62072562358277	125.18961451247165	71	127
125.23605442176871	125.80494331065759	60	127
125.23605442176871	125.80494331065759	69	127
125.83977324263039	126.46671201814058	68	127
125.83977324263039	126.46671201814058	59	127
126.46671201814058	127.15170068027211	69	127
126.46671201814058	127.15170068027211	60	127
127.15170068027211	127.29102040816326	62	127
127.15170068027211	127.29102040816326	71	127
127.29102040816326	127.43034013605443	72	127
127.29102040816326	127.43034013605443	60	127
127.43034013605443	127.56965986394557	59	127
127.43034013605443	127.56965986394557	74	127
127.56965986394557	128.1269387755102	76	127
127.56965986394557	128.1269387755102	60	127
128.161768707483	128.67260770975057	74	127
128.161768707483	128.67260770975057	59	127
128.71904761904761	129.27632653061224	72	127
128.71904761904761	129.27632653061224	57	127
129.31115646258505	129.89165532879818	71	127
129.31115646258505	129.89165532879818	56	127
129.89165532879818	130.69274376417235	57	127
129.89165532879818	130.69274376417235	72	127
130.69274376417235	130.84367346938777	74	127
130.69274376417235	130.84367346938777	59	127
130.84367346938777	130.98299319727892	76	127
130.84367346938777	130.98299319727892	60	127
130.98299319727892	131.1107029478458	62	127
130.98299319727892	131.1107029478458	78	127
131.1107029478458	131.63315192743764	79	127
131.1107029478458	131.63315192743764	64	127
131.66795918367347	132.2136507936508	78	127
131.66795918367347	132.2136507936508	62	127
132.24848072562358	132.794126984127	60	127
132.24848072562358	132.794126984127	76	127
132.82897959183674	133.32820861678005	59	127
132.82897959183674	133.10761904761904	74	127
133.1192290249433	133.35142857142858	79	127
133.36303854875283	133.66487528344672	74	127
133.67650793650793	133.93192743764172	71	127
133.93192743764172	134.1873469387755	69	127
133.93192743764172	134.4775963718821	48	127
133.93192743764172	134.4775963718821	57	127
134.19895691609977	134.5008163265306	76	127
134.51242630385488	135.10453514739228	59	127
134.51242630385488	134.95360544217687	74	127
134.51242630385488	135.10453514739228	50	127
134.9768253968254	135.1393650793651	71	127
135.1393650793651	135.44122448979593	67	127
135.45281179138323	135.5573015873016	69	127
135.5573015873016	135.65020408163267	67	127
135.65020408163267	135.71986394557823	66	127
135.71986394557823	135.80113378684808	67	127
135.80113378684808	136.37	50	127
135.80113378684808	136.10299319727892	72	127
135.80113378684808	136.37	60	127
135.80113378684808	136.37	57	127
136.11458049886622	136.3932426303855	66	127
136.41646258503403	137.54263038548754	67	127
136.41646258503403	136.69510204081632	59	127
136.41646258503403	136.69510204081632	55	127
136.7067120181406	137.00857142857143	55	127
137.0201814058957	137.32204081632653	43	127
137.3336507936508	137.62390022675737	55	127
137.63551020408164	137.93736961451248	43	127
137.94897959183675	138.21600907029477	55	127
138.2392290249433	138.51784580498867	43	127
138.52947845804988	138.81972789115648	55	127
138.83133786848072	139.0867573696145	43	127
139.09836734693877	139.3885941043084	55	127
139.4002267573696	139.66725623582767	43	127
139.67886621315193	139.9691156462585	55	127
139.98072562358277	140.24775510204083	43	127
140.25934240362812	140.52639455782312	55	127
140.38707482993198	140.5380045351474	79	127
140.5380045351474	140.81662131519275	43	127
140.5380045351474	140.6889342403628	78	127
140.6889342403628	140.82825396825396	79	127
140.82825396825396	141.1068934240363	55	127
140.82825396825396	140.96757369614514	81	127
140.96757369614514	141.11850340136056	79	127
141.11850340136056	141.4319501133787	43	127
141.11850340136056	141.6990022675737	79	127
141.4435827664399	141.7338321995465	55	127
141.74544217687074	142.03569160997733	43	127
142.04727891156463	142.31433106575963	55	127
142.3259410430839	142.62780045351474	43	127
142.639410430839	142.91802721088436	55	127
142.92965986394557	143.17344671201815	43	127
143.18507936507936	143.47530612244898	55	127
143.4869387755102	143.75396825396825	43	127
143.7771882086168	144.03260770975058	55	127
143.8932879818594	144.04421768707482	79	127
144.04421768707482	144.1951247165533	78	127
144.04421768707482	144.33446712018142	43	127
144.1951247165533	144.3460544217687	79	127
144.3460544217687	144.49698412698413	81	127
144.3460544217687	144.64793650793652	55	127
144.49698412698413	144.65954648526076	79	127
144.65954648526076	144.88013605442177	43	127
144.65954648526076	145.1587755102041	79	127
144.89174603174604	145.1819954648526	55	127
145.19360544217687	145.47222222222223	43	127
145.48385487528344	145.77410430839004	55	127
145.78571428571428	146.07596371882087	43	127
146.08755102040817	146.35460317460317	55	127
146.36621315192744	146.62163265306123	43	127
146.6332426303855	146.92349206349206	55	127
146.93510204081633	147.46916099773242	43	127
148.0380498866213	148.63015873015874	64	127
148.0380498866213	148.63015873015874	48	127
148.0380498866213	148.63015873015874	60	127
148.0380498866213	148.63015873015874	69	127
148.66498866213152	149.2687074829932	62	127
148.66498866213152	149.2687074829932	50	127
148.66498866213152	149.2687074829932	67	127
148.66498866213152	149.2687074829932	59	127
149.90725623582767	150.4645351473923	57	127
149.90725623582767	150.4645351473923	66	127
149.90725623582767	150.4645351473923	60	127
149.90725623582767	150.4645351473923	38	127
150.49936507936508	151.07986394557824	55	127
150.49936507936508	151.07986394557824	67	127
150.49936507936508	151.07986394557824	59	127
150.49936507936508	151.07986394557824	43	127
151.78807256235828	152.35696145124717	60	127
151.78807256235828	152.35696145124717	50	127
151.78807256235828	152.35696145124717	54	127
152.39179138321995	152.94907029478458	59	127
152.39179138321995	152.94907029478458	55	127
153.29736961451246	153.44827664399094	84	127
153.44827664399094	153.59920634920636	83	127
153.59920634920636	154.19133786848073	72	127
153.59920634920636	154.19133786848073	62	127
153.59920634920636	154.19133786848073	66	127
153.59920634920636	153.73854875283448	86	127
153.73854875283448	153.86625850340135	84	127
153.86625850340135	154.06362811791382	83	127
154.06362811791382	154.2261678004535	81	127
154.2261678004535	154.80666666666667	71	127
154.2261678004535	154.80666666666667	79	127
154.2261678004535	154.80666666666667	67	127
155.1433560090703	155.2942857142857	67	127
155.2942857142857	155.41038548752834	66	127
155.41038548752834	155.53809523809525	69	127
155.53809523809525	155.65419501133786	67	127
155.65419501133786	155.78190476190477	71	127
155.78190476190477	155.9328344671202	69	127
155.9328344671202	156.04893424036283	72	127
156.04893424036283	156.18825396825397	71	127
156.18825396825397	156.3043537414966	74	127
156.3043537414966	156.42045351473922	72	127
156.42045351473922	156.57138321995464	75	127
156.57138321995464	156.6642403628118	74	127
156.6642403628118	156.79197278911565	77	127
156.79197278911565	156.9312925170068	75	127
156.9312925170068	157.07061224489797	79	127
157.07061224489797	157.2215419501134	77	127
157.2215419501134	157.41891156462586	80	127
157.41891156462586	157.58145124716555	79	127
157.58145124716555	158.30124716553289	60	127
157.58145124716555	158.30124716553289	55	127
157.58145124716555	158.30124716553289	51	127
157.58145124716555	158.30124716553289	48	127
157.58145124716555	158.66115646258504	67	127
157.69755102040816	158.66115646258504	72	127
157.80204081632652	158.66115646258504	75	127
157.94133786848073	158.66115646258504	79	127
158.70761904761906	158.90498866213153	80	127
158.90498866213153	159.07913832199546	79	127
159.07913832199546	159.21845804988664	77	127
159.21845804988664	159.34616780045351	75	127
159.34616780045351	159.49709750566893	74	127
159.49709750566893	159.6828344671202	72	127
159.6828344671202	160.29816326530613	72	127
160.34460317460318	160.91351473922902	63	127
160.34460317460318	160.91351473922902	72	127
160.34460317460318	160.91351473922902	60	127
160.94834467120182	161.5520634920635	72	127
160.94834467120182	161.5520634920635	60	127
160.94834467120182	161.5520634920635	63	127
161.58689342403628	163.1542403628118	65	127
161.58689342403628	163.1542403628118	55	127
161.58689342403628	162.38798185941044	72	127
161.58689342403628	163.1542403628118	62	127
162.457641723356	162.5853514739229	74	127
162.5853514739229	162.7130612244898	72	127
162.7130612244898	162.852358276644	71	127
162.852358276644	162.99170068027212	72	127
162.99170068027212	163.14263038548754	74	127
163.14263038548754	163.29356009070295	75	127
163.29356009070295	163.58380952380952	77	127
164.79122448979592	165.39496598639457	63	127
164.79122448979592	165.39496598639457	60	127
164.79122448979592	165.39496598639457	55	127
164.79122448979592	165.39496598639457	48	127
164.79122448979592	165.39496598639457	36	127
167.29897959183674	167.85628117913834	63	127
167.29897959183674	167.85628117913834	60	127
167.90272108843538	168.4948299319728	63	127
167.90272108843538	168.4948299319728	60	127
168.52965986394557	170.88648526077097	68	127
168.52965986394557	170.88648526077097	62	127
168.52965986394557	170.88648526077097	65	127
171.21156462585034	171.3508843537415	74	127
171.21156462585034	171.3508843537415	58	127
171.3508843537415	171.45537414965986	75	127
171.3508843537415	171.45537414965986	60	127
171.45537414965986	171.58308390022677	62	127
171.45537414965986	171.58308390022677	77	127
171.58308390022677	171.68757369614514	63	127
171.58308390022677	171.68757369614514	79	127
171.68757369614514	171.86172335600907	80	127
171.68757369614514	171.86172335600907	65	127
171.86172335600907	172.03587301587302	67	127
171.86172335600907	172.03587301587302	82	127
172.03587301587302	172.60476190476192	84	127
172.03587301587302	172.60476190476192	68	127
172.6395918367347	173.1156009070295	68	127
172.6395918367347	173.1156009070295	84	127
173.16204081632654	173.6148299319728	84	127
173.16204081632654	173.6148299319728	68	127
173.64965986394557	174.17210884353742	84	127
173.64965986394557	174.17210884353742	68	127
174.2069387755102	174.78743764172336	82	127
174.2069387755102	174.78743764172336	67	127
174.8338775510204	175.37954648526076	80	127
174.8338775510204	175.37954648526076	65	127
175.41437641723357	175.96004535147392	63	127
175.41437641723357	175.96004535147392	79	127
176.34317460317462	176.42444444444445	80	127
176.42444444444445	176.50571428571428	79	127
176.50571428571428	176.52893424036282	77	127
176.52893424036282	176.61020408163265	79	127
176.61020408163265	177.16746031746032	65	127
176.61020408163265	177.16746031746032	56	127
176.61020408163265	177.16746031746032	60	127
176.61020408163265	176.8772335600907	84	127
176.88884353741497	177.1907029478458	77	127
177.20231292517008	177.72473922902495	67	127
177.20231292517008	177.72473922902495	58	127
177.20231292517008	177.45773242630386	82	127
177.20231292517008	177.72473922902495	63	127
177.46931972789116	177.62027210884355	79	127
177.62027210884355	177.77120181405897	75	127
177.77120181405897	178.06145124716554	70	127
178.0730612244898	178.3517006802721	70	127
178.36331065759637	178.6651700680272	70	127
178.36331065759637	178.94380952380953	68	127
178.36331065759637	178.94380952380953	65	127
178.36331065759637	178.94380952380953	58	127
178.6651700680272	178.96702947845804	74	127
178.97863945578231	179.5475283446712	67	127
178.97863945578231	179.5475283446712	75	127
178.97863945578231	179.5475283446712	63	127
180.2092970521542	180.76657596371882	56	127
180.2092970521542	180.76657596371882	46	127
180.2092970521542	180.76657596371882	50	127
180.81301587301587	181.28902494331066	51	127
180.81301587301587	181.28902494331066	55	127
181.70698412698414	181.85791383219956	80	127
181.85791383219956	181.9972335600907	79	127
181.9972335600907	182.54290249433106	68	127
181.9972335600907	182.54290249433106	58	127
181.9972335600907	182.54290249433106	62	127
181.9972335600907	182.14816326530612	82	127
182.14816326530612	182.29909297052154	80	127
182.29909297052154	182.45002267573696	79	127
182.45002267573696	182.5893424036281	77	127
182.5893424036281	183.12340136054422	63	127
182.5893424036281	183.12340136054422	67	127
182.5893424036281	183.12340136054422	75	127
183.158231292517	183.7271201814059	67	127
183.158231292517	183.7271201814059	63	127
183.76192743764173	184.33083900226757	65	127
183.76192743764173	184.33083900226757	68	127
184.37727891156462	184.922947845805	69	127
184.37727891156462	184.922947845805	66	127
184.9461678004535	185.4221768707483	70	127
184.9461678004535	185.4221768707483	67	127
185.45700680272108	186.0142857142857	69	127
185.45700680272108	186.2697052154195	75	127
186.0142857142857	187.61646258503401	70	127
186.28131519274376	186.53673469387755	74	127
186.54834467120182	187.08238095238096	73	127
188.58009070294784	188.73102040816326	58	127
188.58009070294784	188.73102040816326	46	127
188.73102040816326	188.85873015873017	57	127
188.73102040816326	188.85873015873017	45	127
188.85873015873017	188.96321995464854	60	127
188.85873015873017	188.96321995464854	48	127
188.96321995464854	189.09092970521542	58	127
188.96321995464854	189.09092970521542	46	127
189.09092970521542	189.23022675736962	44	127
189.09092970521542	189.23022675736962	56	127
189.23022675736962	189.38115646258504	43	127
189.23022675736962	189.38115646258504	55	127
189.38115646258504	189.90362811791383	53	127
189.38115646258504	189.90362811791383	41	127
189.93845804988663	190.46090702947845	65	127
189.93845804988663	190.46090702947845	68	127
190.49573696145126	191.0414058956916	70	127
190.49573696145126	191.0414058956916	67	127
191.0762358276644	191.6102947845805	68	127
191.0762358276644	191.6102947845805	71	127
191.64512471655328	192.2024036281179	72	127
191.64512471655328	192.2024036281179	69	127
192.23723356009071	193.01510204081632	77	127
192.23723356009071	192.73646258503402	71	127
192.73646258503402	193.85102040816327	72	127
193.02671201814059	193.3401814058957	76	127
193.35179138321996	193.8742403628118	75	127
195.3138775510204	195.4415873015873	60	127
195.3138775510204	195.4415873015873	48	127
195.4415873015873	195.59251700680272	59	127
195.4415873015873	195.59251700680272	47	127
195.59251700680272	195.7202267573696	62	127
195.59251700680272	195.7202267573696	50	127
195.7202267573696	195.8479365079365	48	127
195.7202267573696	195.8479365079365	60	127
195.8479365079365	195.9756462585034	58	127
195.8479365079365	195.9756462585034	46	127
195.9756462585034	196.11496598639457	57	127
195.9756462585034	196.11496598639457	45	127
196.11496598639457	196.64902494331065	55	127
196.11496598639457	196.64902494331065	43	127
196.68385487528346	197.19469387755103	70	127
196.68385487528346	197.19469387755103	67	127
197.2295238095238	197.75197278911565	72	127
197.2295238095238	197.75197278911565	69	127
197.77519274376417	198.30925170068028	70	127
197.77519274376417	198.30925170068028	73	127
198.35569160997733	198.8665306122449	74	127
198.35569160997733	198.8665306122449	71	127
198.90136054421768	199.4354195011338	73	127
198.90136054421768	199.72566893424036	79	127
199.4354195011338	200.99115646258502	74	127
199.73727891156463	200.0275283446712	78	127
200.03913832199547	200.5615873015873	77	127
201.9780045351474	202.1057142857143	62	127
201.9780045351474	202.1057142857143	50	127
202.1057142857143	202.23342403628118	61	127
202.1057142857143	202.23342403628118	49	127
202.23342403628118	202.3843537414966	64	127
202.23342403628118	202.3843537414966	52	127
202.3843537414966	202.52367346938775	62	127
202.3843537414966	202.52367346938775	50	127
202.52367346938775	202.65138321995465	60	127
202.52367346938775	202.65138321995465	48	127
202.65138321995465	202.7907029478458	59	127
202.65138321995465	202.7907029478458	47	127
202.7907029478458	203.3247619047619	57	127
202.7907029478458	203.3247619047619	45	127
203.37120181405896	203.9284807256236	63	127
203.37120181405896	203.9284807256236	57	127
203.9517006802721	204.46253968253967	64	127
203.9517006802721	204.46253968253967	56	127
204.49736961451248	205.0546485260771	55	127
204.49736961451248	205.0546485260771	61	127
205.08947845804988	205.60031746031746	62	127
205.08947845804988	205.60031746031746	54	127
205.35650793650794	205.48421768707482	72	127
205.48421768707482	205.63514739229024	71	127
205.63514739229024	206.20403628117913	53	127
205.63514739229024	206.20403628117913	63	127
205.63514739229024	205.78607709750568	74	127
205.78607709750568	205.92539682539683	72	127
205.92539682539683	206.07632653061225	71	127
206.07632653061225	206.26208616780045	69	127
206.26208616780045	206.81936507936507	52	127
206.26208616780045	206.81936507936507	64	127
206.26208616780045	206.81936507936507	76	127
206.26208616780045	206.81936507936507	59	127
207.3766439909297	207.96875283446713	64	127
207.3766439909297	207.96875283446713	60	127
207.3766439909297	207.96875283446713	57	127
207.3766439909297	207.96875283446713	69	127
208.0035827664399	208.54925170068026	64	127
208.0035827664399	208.54925170068026	68	127
208.0035827664399	208.54925170068026	59	127
208.0035827664399	208.54925170068026	52	127
208.87433106575963	208.99043083900227	60	127
208.87433106575963	208.99043083900227	48	127
208.99043083900227	209.11814058956915	59	127
208.99043083900227	209.11814058956915	47	127
209.11814058956915	209.24585034013606	62	127
209.11814058956915	209.24585034013606	50	127
209.24585034013606	209.39678004535148	60	127
209.24585034013606	209.39678004535148	48	127
209.39678004535148	209.53609977324263	47	127
209.39678004535148	209.53609977324263	59	127
209.53609977324263	209.67541950113377	57	127
209.53609977324263	209.67541950113377	45	127
209.67541950113377	210.29074829931972	64	127
209.67541950113377	210.29074829931972	52	127
210.68548752834468	210.84802721088437	76	127
210.84802721088437	210.97573696145125	75	127
210.97573696145125	211.1150566893424	78	127
211.1150566893424	211.2427664399093	76	127
211.2427664399093	211.39369614512472	75	127
211.39369614512472	211.53301587301587	73	127
211.53301587301587	212.07868480725622	71	127
212.11351473922903	212.6243537414966	71	127
212.11351473922903	212.6243537414966	68	127
212.11351473922903	212.6243537414966	64	127
212.65918367346939	213.216462585034	68	127
212.65918367346939	213.216462585034	71	127
212.65918367346939	213.216462585034	64	127
213.2512925170068	213.82018140589568	71	127
213.2512925170068	213.82018140589568	68	127
213.2512925170068	213.82018140589568	64	127
214.15687074829933	214.319410430839	76	127
214.319410430839	214.45873015873016	75	127
214.45873015873016	214.60965986394558	78	127
214.60965986394558	214.74897959183673	76	127
214.74897959183673	214.91151927437642	75	127
214.91151927437642	215.06244897959184	73	127
215.06244897959184	215.6081179138322	71	127
215.642947845805	216.11895691609976	67	127
215.642947845805	216.11895691609976	71	127
215.642947845805	216.11895691609976	64	127
216.1653968253968	216.74589569160997	64	127
216.1653968253968	216.74589569160997	71	127
216.1653968253968	216.74589569160997	67	127
216.78072562358275	217.3380045351474	71	127
216.78072562358275	217.3380045351474	67	127
216.78072562358275	217.3380045351474	64	127
217.63986394557824	217.7791836734694	76	127
217.7791836734694	217.9301133786848	75	127
217.9301133786848	218.0578231292517	78	127
218.0578231292517	218.20875283446713	76	127
218.20875283446713	218.34807256235828	74	127
218.34807256235828	218.48739229024943	72	127
218.48739229024943	219.0678911564626	71	127
219.10272108843537	219.60195011337868	71	127
219.10272108843537	219.60195011337868	67	127
219.10272108843537	219.60195011337868	64	127
219.6367800453515	220.1592290249433	71	127
219.6367800453515	220.1592290249433	67	127
219.6367800453515	220.1592290249433	64	127
220.1940589569161	220.77455782312924	65	127
220.1940589569161	220.77455782312924	71	127
220.1940589569161	220.77455782312924	67	127
220.1940589569161	220.77455782312924	62	127
221.1112471655329	221.27378684807258	76	127
221.27378684807258	221.40149659863945	74	127
221.40149659863945	221.55242630385487	77	127
221.55242630385487	221.7033560090703	76	127
221.7033560090703	221.8542857142857	74	127
221.8542857142857	221.99360544217686	72	127
221.99360544217686	222.5160544217687	71	127
222.5508843537415	223.06172335600908	62	127
222.5508843537415	223.06172335600908	71	127
222.5508843537415	223.06172335600908	67	127
222.5508843537415	223.06172335600908	65	127
223.09655328798186	223.6190022675737	67	127
223.09655328798186	223.6190022675737	71	127
223.09655328798186	223.6190022675737	65	127
223.09655328798186	223.6190022675737	62	127
223.65383219954649	224.2807709750567	52	127
223.65383219954649	224.2807709750567	48	127
223.65383219954649	224.64068027210885	67	127
223.65383219954649	224.2807709750567	60	127
223.65383219954649	224.2807709750567	55	127
223.78154195011336	224.64068027210885	72	127
223.88603174603173	224.64068027210885	76	127
224.00213151927437	224.64068027210885	79	127
224.66390022675736	224.82643990929705	81	127
224.82643990929705	224.98897959183674	79	127
224.98897959183674	225.16312925170067	77	127
225.16312925170067	225.30244897959184	76	127
225.30244897959184	225.45337868480726	74	127
225.45337868480726	225.60430839002268	72	127
225.60430839002268	226.17319727891157	72	127
226.1848072562358	226.76530612244898	72	127
226.1848072562358	226.76530612244898	64	127
226.1848072562358	226.76530612244898	60	127
226.80013605442176	227.43868480725624	64	127
226.80013605442176	227.43868480725624	72	127
226.80013605442176	227.43868480725624	60	127
227.4851247165533	229.16857142857143	65	127
227.4851247165533	228.41392290249433	72	127
227.4851247165533	229.16857142857143	62	127
227.4851247165533	229.16857142857143	55	127
228.47197278911565	228.6112925170068	74	127
228.6112925170068	228.75061224489795	72	127
228.75061224489795	228.8667120181406	71	127
228.8667120181406	229.00603174603174	72	127
229.00603174603174	229.15696145124716	74	127
229.15696145124716	229.1801814058957	76	127
229.1801814058957	229.71424036281178	77	127
230.23668934240362	230.38761904761904	76	127
230.38761904761904	230.53854875283446	74	127
230.53854875283446	230.63142857142856	72	127
230.63142857142856	230.782358276644	74	127
230.782358276644	230.92167800453515	76	127
230.92167800453515	231.04938775510203	77	127
231.04938775510203	231.52539682539683	79	127
231.04938775510203	231.52539682539683	60	127
231.04938775510203	231.52539682539683	52	127
231.8736961451247	232.02462585034013	77	127
232.02462585034013	232.14072562358277	76	127
232.14072562358277	232.2568253968254	74	127
232.2568253968254	232.37292517006802	76	127
232.37292517006802	232.52385487528343	77	127
232.52385487528343	232.67478458049888	79	127
232.67478458049888	233.255283446712	81	127
232.67478458049888	233.2901133786848	60	127
232.67478458049888	233.8938321995465	53	127
233.2901133786848	233.8938321995465	69	127
233.2901133786848	235.67015873015873	62	127
233.8938321995465	234.4859410430839	54	127
233.8938321995465	234.4859410430839	74	127
234.53238095238095	236.73827664399093	55	127
234.53238095238095	235.28702947845804	72	127
235.28702947845804	235.43795918367346	71	127
235.43795918367346	235.60049886621314	72	127
235.60049886621314	235.75142857142856	71	127
235.75142857142856	235.8675283446712	74	127
235.75142857142856	236.22743764172336	60	127
235.8675283446712	236.00684807256235	72	127
236.00684807256235	236.122947845805	69	127
236.122947845805	236.26226757369614	66	127
236.26226757369614	236.73827664399093	59	127
236.26226757369614	236.73827664399093	67	127
237.8760544217687	238.30562358276643	48	127
237.8760544217687	238.30562358276643	64	127
237.8760544217687	238.30562358276643	60	127
237.8760544217687	238.30562358276643	55	127
237.8760544217687	238.30562358276643	36	127
240.18643990929706	240.7669387755102	64	127
240.18643990929706	240.7669387755102	60	127
240.18643990929706	240.7669387755102	55	127
240.18643990929706	240.7669387755102	48	127
240.801768707483	241.35904761904763	64	127
240.801768707483	241.35904761904763	60	127
240.801768707483	241.35904761904763	55	127
240.801768707483	241.35904761904763	48	127
241.3938775510204	242.4968253968254	65	127
241.3938775510204	242.4968253968254	62	127
241.3938775510204	242.4968253968254	55	127
241.3938775510204	243.05410430839	43	127
241.3938775510204	243.05410430839	31	127
242.91478458049886	243.05410430839	62	127
243.05410430839	243.17020408163265	60	127
243.17020408163265	243.3095238095238	59	127
243.3095238095238	243.46045351473924	60	127
243.46045351473924	243.61138321995466	62	127
243.61138321995466	243.70426303854876	64	127
243.70426303854876	244.23832199546484	65	127
243.70426303854876	244.23832199546484	59	127
243.70426303854876	244.23832199546484	53	127
243.70426303854876	244.23832199546484	50	127
244.598231292517	244.73755102040818	64	127
244.73755102040818	244.8884807256236	62	127
244.8884807256236	245.01619047619047	60	127
245.01619047619047	245.1671201814059	62	127
245.1671201814059	245.30643990929704	64	127
245.30643990929704	245.42253968253968	65	127
245.42253968253968	245.91015873015874	52	127
245.42253968253968	245.91015873015874	67	127
245.42253968253968	245.91015873015874	61	127
245.42253968253968	245.91015873015874	58	127
245.42253968253968	245.91015873015874	55	127
246.28167800453514	246.43260770975056	65	127
246.43260770975056	246.58353741496597	64	127
246.58353741496597	246.6996371882086	62	127
246.6996371882086	246.83895691609976	64	127
246.83895691609976	246.9550566893424	65	127
246.9550566893424	247.0827664399093	67	127
247.0827664399093	247.62843537414966	62	127
247.0827664399093	247.62843537414966	69	127
247.0827664399093	247.62843537414966	57	127
247.0827664399093	247.62843537414966	53	127
247.96512471655328	248.10444444444445	67	127
248.10444444444445	248.2437641723356	65	127
248.2437641723356	248.39469387755102	64	127
248.39469387755102	248.5224036281179	65	127
248.5224036281179	248.67333333333335	67	127
248.67333333333335	248.78943310657596	69	127
248.78943310657596	249.30027210884353	60	127
248.78943310657596	249.30027210884353	70	127
248.78943310657596	249.30027210884353	64	127
248.78943310657596	249.30027210884353	58	127
248.78943310657596	249.30027210884353	55	127
249.66018140589568	249.79950113378686	69	127
249.79950113378686	249.95043083900228	67	127
249.95043083900228	250.08975056689343	65	127
250.08975056689343	250.2174603174603	67	127
250.2174603174603	250.36839002267573	69	127
250.36839002267573	250.51931972789114	70	127
250.51931972789114	250.99532879818594	72	127
250.51931972789114	250.99532879818594	60	127
250.51931972789114	250.99532879818594	57	127
250.51931972789114	250.99532879818594	65	127
251.78480725623584	254.94272108843538	38	127
251.78480725623584	252.60911564625852	84	127
251.78480725623584	254.94272108843538	50	127
252.67877551020408	252.8297052154195	86	127
252.8297052154195	252.96902494331067	88	127
252.96902494331067	253.10834467120182	86	127
253.10834467120182	253.25927437641724	84	127
253.25927437641724	253.41020408163266	83	127
253.41020408163266	253.5495238095238	81	127
253.5495238095238	253.6772335600907	79	127
253.6772335600907	253.82816326530613	78	127
253.82816326530613	253.96748299319728	81	127
253.96748299319728	254.10680272108843	80	127
254.10680272108843	254.25773242630385	83	127
254.25773242630385	254.38544217687075	81	127
254.38544217687075	254.5247619047619	84	127
254.5247619047619	254.67569160997732	83	127
254.67569160997732	254.79179138321996	86	127
254.79179138321996	254.9311111111111	84	127
254.9311111111111	255.08204081632653	81	127
255.08204081632653	255.23297052154194	78	127
255.23297052154194	256.1037188208617	81	127
255.23297052154194	256.96285714285716	43	127
255.23297052154194	256.96285714285716	31	127
256.1849886621315	256.33591836734695	80	127
256.33591836734695	256.48684807256234	81	127
256.48684807256234	256.64938775510205	80	127
256.64938775510205	256.80031746031744	81	127
256.80031746031744	256.9512471655329	83	127
256.9512471655329	257.11378684807255	81	127
257.11378684807255	257.6710657596372	79	127
257.264716553288	257.4040136054422	43	127
257.4040136054422	257.55496598639456	45	127
257.55496598639456	257.705873015873	47	127
257.705873015873	257.84521541950113	48	127
257.84521541950113	258.00773242630385	47	127
258.00773242630385	258.1122222222222	50	127
258.1122222222222	258.25156462585034	48	127
258.25156462585034	258.41408163265305	52	127
258.41408163265305	258.5418140589569	50	127
258.5418140589569	258.7043537414966	53	127
258.7043537414966	258.855283446712	52	127
258.855283446712	259.7028117913832	55	127
259.7724716553288	259.91179138321996	57	127
259.91179138321996	260.0859410430839	55	127
260.0859410430839	260.22526077097507	53	127
260.22526077097507	260.3413605442177	52	127
260.3413605442177	260.51551020408164	50	127
260.51551020408164	260.70126984126983	48	127
260.70126984126983	261.00312925170067	48	127
261.3514285714286	261.60684807256234	48	127
261.95514739229026	262.210566893424	48	127
262.58208616780047	263.18580498866214	41	127
262.58208616780047	263.4412244897959	69	127
263.2090249433107	263.77791383219954	45	127
263.5108843537415	263.68503401360545	70	127
263.68503401360545	263.81274376417235	69	127
263.81274376417235	264.3351927437642	48	127
263.81274376417235	263.928843537415	67	127
263.928843537415	264.0797732426304	65	127
264.0797732426304	264.2074829931973	64	127
264.2074829931973	264.3816326530612	62	127
264.3816326530612	264.9737414965986	45	127
264.3816326530612	264.66024943310657	62	127
265.00857142857143	265.5658503401361	42	127
265.00857142857143	265.2755782312925	62	127
265.60068027210883	265.8444897959184	62	127
266.2043990929705	266.8313378684807	43	127
266.2043990929705	266.8313378684807	31	127
266.2043990929705	267.1215873015873	77	127
266.8661678004535	267.4234240362812	47	127
266.8661678004535	267.4234240362812	35	127
267.1564172335601	267.30734693877554	79	127
267.30734693877554	267.4582766439909	77	127
267.4582766439909	267.99233560090704	50	127
267.4582766439909	267.6092063492064	76	127
267.4582766439909	267.99233560090704	38	127
267.6092063492064	267.7369160997732	74	127
267.7369160997732	267.8878458049887	72	127
267.8878458049887	268.03877551020406	71	127
268.03877551020406	268.1897052154195	69	127
268.03877551020406	268.5960544217687	47	127
268.03877551020406	268.5960544217687	35	127
268.1897052154195	268.3754648526077	67	127
268.3754648526077	268.49156462585034	66	127
268.49156462585034	268.6308843537415	67	127
268.6308843537415	269.15331065759636	31	127
268.6308843537415	268.7585941043084	66	127
268.6308843537415	269.15331065759636	43	127
268.7585941043084	268.8863038548753	67	127
268.8863038548753	269.0372335600907	69	127
269.0372335600907	269.1881632653061	68	127
269.1881632653061	269.33909297052156	71	127
269.33909297052156	269.49002267573695	69	127
269.49002267573695	269.62934240362813	67	127
269.62934240362813	269.7918820861678	65	127
269.7918820861678	270.0589115646259	64	127
269.7918820861678	270.33755102040817	48	127
269.7918820861678	270.33755102040817	36	127
270.07049886621314	270.3607709750567	60	127
270.372380952381	270.6858276643991	64	127
270.6974603174603	270.9877097505669	67	127
270.9992970521542	271.28956916099776	72	127
270.9992970521542	271.5565986394558	50	127
270.9992970521542	271.5565986394558	43	127
271.301156462585	271.5798185941043	71	127
271.5914285714286	272.183537414966	48	127
271.5914285714286	272.183537414966	36	127
271.88167800453516	272.20675736961454	67	127
272.2183446712018	272.5318140589569	72	127
272.5434467120181	272.8685260770975	76	127
272.88013605442177	273.4374149659864	43	127
272.88013605442177	273.4374149659864	50	127
272.88013605442177	273.17038548752834	79	127
273.1819954648526	273.4490022675737	77	127
273.4606349206349	273.994693877551	52	127
273.4606349206349	273.994693877551	48	127
273.73927437641726	273.8089342403628	77	127
273.8089342403628	273.8785941043084	76	127
273.8785941043084	273.95984126984126	74	127
273.95984126984126	274.0295238095238	76	127
274.0295238095238	274.3197732426304	79	127
274.33138321995466	274.435873015873	72	127
274.6216326530612	275.20213151927436	52	127
274.6216326530612	274.93510204081633	71	127
274.6216326530612	275.20213151927436	62	127
274.93510204081633	275.23696145124717	83	127
275.24857142857144	275.8058276643991	48	127
275.24857142857144	275.8058276643991	60	127
275.51560090702947	275.5852607709751	81	127
275.5852607709751	275.65492063492064	79	127
275.65492063492064	275.74780045351474	78	127
275.74780045351474	275.84068027210884	79	127
275.84068027210884	276.1425396825397	84	127
276.15414965986395	276.3282993197279	76	127
276.5372789115646	277.09455782312926	55	127
276.5372789115646	276.83913832199545	77	127
276.5372789115646	277.09455782312926	62	127
276.83913832199545	277.1293650793651	89	127
277.1409977324263	277.66344671201813	60	127
277.1409977324263	277.66344671201813	64	127
277.29192743764173	277.41963718820864	72	127
277.41963718820864	277.55895691609976	76	127
277.55895691609976	277.69827664399094	74	127
277.69827664399094	277.82598639455784	77	127
277.82598639455784	277.96530612244896	76	127
277.96530612244896	278.10462585034014	79	127
278.10462585034014	278.2439455782313	77	127
278.2439455782313	278.38326530612244	81	127
278.38326530612244	278.47614512471654	79	127
278.47614512471654	278.627074829932	82	127
278.627074829932	278.7547845804989	81	127
278.7547845804989	280.27569160997734	52	127
278.7547845804989	278.9057142857143	84	127
278.7547845804989	280.27569160997734	60	127
278.7547845804989	280.27569160997734	55	127
278.9057142857143	279.05664399092973	82	127
279.05664399092973	279.13791383219956	81	127
279.13791383219956	279.27721088435374	79	127
279.27721088435374	279.41655328798186	77	127
279.41655328798186	279.55587301587303	76	127
279.55587301587303	279.6603628117914	74	127
279.6603628117914	279.82290249433106	72	127
279.82290249433106	279.9738321995465	71	127
279.9738321995465	280.1131519274376	72	127
280.1131519274376	280.2640816326531	74	127
280.2640816326531	280.40337868480725	70	127
280.40337868480725	280.9374603174603	69	127
280.40337868480725	280.9374603174603	60	127
280.40337868480725	280.9374603174603	57	127
280.40337868480725	280.9374603174603	53	127
281.3902494331066	281.49473922902496	73	127
281.63403628117914	281.80820861678006	74	127
282.02879818594107	282.17972789115646	76	127
282.28421768707483	282.4351473922903	77	127
282.4351473922903	282.4815873015873	79	127
282.4815873015873	282.53963718820864	77	127
282.53963718820864	282.59768707482993	76	127
282.59768707482993	282.69056689342403	77	127
282.69056689342403	282.78344671201813	79	127
282.78344671201813	282.89954648526077	81	127
282.89954648526077	282.9575736961451	83	127
282.9575736961451	283.00403628117914	81	127
283.00403628117914	283.0504761904762	80	127
283.0504761904762	283.2014058956916	81	127
283.2014058956916	283.35233560090705	83	127
283.35233560090705	283.63097505668935	84	127
283.35233560090705	283.8863945578231	63	127
283.35233560090705	283.8863945578231	57	127
283.35233560090705	283.8863945578231	54	127
283.6425850340136	283.8863945578231	84	127
283.8863945578231	284.44367346938776	55	127
283.8863945578231	284.188231292517	84	127
283.8863945578231	284.44367346938776	64	127
283.8863945578231	284.44367346938776	60	127
284.188231292517	284.31596371882085	76	127
284.4668934240363	284.57138321995467	77	127
284.7455328798186	284.86163265306124	78	127
285.0241723356009	285.17510204081634	79	127
285.3840816326531	285.511768707483	80	127
285.6975510204082	285.9181179138322	81	127
286.3477097505669	286.9630385487528	69	127
286.9630385487528	287.71768707482994	71	127
286.9630385487528	287.71768707482994	65	127
286.9630385487528	287.71768707482994	62	127
286.9630385487528	287.71768707482994	55	127
287.75251700680275	289.0412244897959	62	127
287.75251700680275	288.6697052154195	71	127
287.75251700680275	289.56367346938777	65	127
287.75251700680275	291.3051700680272	56	127
288.7277551020408	288.80902494331065	72	127
288.80902494331065	288.87868480725626	71	127
288.87868480725626	288.9599546485261	69	127
288.9599546485261	289.0412244897959	71	127
289.0412244897959	289.66816326530613	59	127
289.0412244897959	289.52884353741496	74	127
289.5520634920635	289.70297052154194	72	127
289.70297052154194	290.6550113378685	72	127
289.70297052154194	291.0033106575964	63	127
289.70297052154194	291.4560997732426	60	127
290.7130612244898	290.79433106575965	74	127
290.79433106575965	290.85238095238094	72	127
290.85238095238094	290.9336281179138	70	127
290.9336281179138	291.0033106575964	72	127
291.0033106575964	291.42126984126986	75	127
291.0033106575964	291.5954195011338	66	127
291.4444671201814	291.6302494331066	73	127
291.6302494331066	292.5009977324263	73	127
291.6302494331066	294.9855328798186	56	127
291.6302494331066	293.325306122449	65	127
291.6302494331066	293.325306122449	61	127
292.55904761904765	292.6403174603175	75	127
292.6403174603175	292.70997732426304	73	127
292.70997732426304	292.79124716553287	72	127
292.79124716553287	292.87249433106575	73	127
292.87249433106575	293.29047619047617	77	127
293.3136961451247	293.4878231292517	75	127
293.4878231292517	294.33537414965986	75	127
293.4878231292517	294.6720634920635	66	127
293.4878231292517	295.14807256235827	60	127
294.4050113378685	294.47469387755103	77	127
294.47469387755103	294.52113378684805	75	127
294.52113378684805	294.60240362811794	74	127
294.60240362811794	294.6720634920635	75	127
294.6720634920635	295.1132426303855	78	127
294.6720634920635	295.25256235827663	63	127
295.136462585034	295.28739229024944	77	127
295.28739229024944	296.1117006802721	77	127
295.28739229024944	296.95920634920634	65	127
295.28739229024944	296.95920634920634	61	127
295.28739229024944	298.6194557823129	56	127
296.1813605442177	296.2509977324263	78	127
296.2509977324263	296.32068027210886	77	127
296.32068027210886	296.4019501133787	76	127
296.4019501133787	296.47160997732425	77	127
296.47160997732425	296.92439909297053	80	127
296.94761904761907	297.13337868480727	78	127
297.13337868480727	298.2943537414966	60	127
297.13337868480727	297.9460770975057	78	127
297.13337868480727	298.8748752834467	63	127
298.01573696145124	298.08537414965986	80	127
298.08537414965986	298.1666666666667	78	127
298.1666666666667	298.224716553288	77	127
298.224716553288	298.2943537414966	78	127
298.2943537414966	298.8748752834467	66	127
298.2943537414966	298.73555555555555	84	127
298.7587755102041	298.90968253968254	85	127
298.90968253968254	300.5118820861678	65	127
298.90968253968254	300.5118820861678	61	127
298.90968253968254	299.30444444444447	85	127
298.90968253968254	302.09083900226756	56	127
299.32766439909295	299.46698412698413	80	127
299.46698412698413	299.8849433106576	77	127
299.9197732426304	299.9778231292517	85	127
300.05909297052153	300.14036281179136	87	127
300.14036281179136	300.210022675737	85	127
300.210022675737	300.2912925170068	87	127
300.2912925170068	300.36095238095237	85	127
300.36095238095237	300.44219954648526	87	127
300.44219954648526	300.5118820861678	85	127
300.5118820861678	300.5815419501134	84	127
300.5815419501134	300.6395691609977	85	127
300.6395691609977	302.241768707483	63	127
300.6395691609977	302.241768707483	60	127
300.6395691609977	301.0691609977324	87	127
301.09238095238095	301.22009070294786	84	127
301.22009070294786	301.62643990929706	78	127
301.6496598639456	301.7077097505669	87	127
301.800589569161	301.85863945578234	89	127
301.85863945578234	301.9282993197279	87	127
301.9282993197279	302.0095691609977	89	127
302.0095691609977	302.07920634920634	87	127
302.07920634920634	302.1604988662132	89	127
302.1604988662132	302.23015873015873	87	127
302.23015873015873	302.31142857142856	86	127
302.31142857142856	302.3810657596372	87	127
302.3810657596372	302.9615873015873	55	127
302.3810657596372	302.5204081632653	88	127
302.3810657596372	302.9615873015873	67	127
302.3810657596372	302.9615873015873	64	127
302.3810657596372	302.9615873015873	60	127
302.6945351473923	302.7758276643991	81	127
302.7758276643991	302.8454875283447	79	127
302.8454875283447	302.91514739229024	78	127
302.91514739229024	302.9963945578231	79	127
302.9963945578231	303.29825396825396	84	127
303.3098866213152	303.61172335600907	76	127
303.63496598639455	303.9135827664399	79	127
303.9252154195011	304.227052154195	72	127
304.2386848072562	304.77274376417233	76	127
305.39968253968254	305.9685714285714	71	127
305.39968253968254	305.9685714285714	65	127
305.39968253968254	305.9685714285714	62	127
305.39968253968254	305.9685714285714	55	127
306.0034013605442	306.6071201814059	64	127
306.0034013605442	306.6071201814059	72	127
306.0034013605442	306.6071201814059	60	127
306.0034013605442	306.6071201814059	48	127
307.8377777777778	308.3370068027211	77	127
307.8377777777778	308.3370068027211	69	127
308.3718367346939	308.91750566893427	67	127
308.3718367346939	308.91750566893427	76	127
308.9639455782313	309.61410430839004	74	127
308.9639455782313	309.61410430839004	65	127
309.6489342403628	310.3223129251701	64	127
309.6489342403628	310.3223129251701	73	127
310.3223129251701	311.11179138321995	65	127
310.3223129251701	311.11179138321995	74	127
311.11179138321995	311.25111111111113	76	127
311.11179138321995	311.25111111111113	67	127
311.25111111111113	311.3556009070295	65	127
311.25111111111113	311.3556009070295	77	127
311.3556009070295	311.5065306122449	79	127
311.3556009070295	311.5065306122449	64	127
311.5065306122449	312.11024943310656	81	127
311.5065306122449	312.11024943310656	65	127
312.14507936507937	312.6791383219955	79	127
312.14507936507937	312.6791383219955	64	127
312.7139455782313	313.2596371882086	77	127
312.7139455782313	313.2596371882086	62	127
313.28285714285715	313.8633560090703	76	127
313.28285714285715	313.8633560090703	61	127
313.8633560090703	314.6296145124717	77	127
313.8633560090703	314.6296145124717	62	127
314.6296145124717	314.78054421768707	64	127
314.6296145124717	314.78054421768707	79	127
314.78054421768707	314.9314739229025	65	127
314.78054421768707	314.9314739229025	81	127
314.9314739229025	315.0824036281179	67	127
314.9314739229025	315.0824036281179	83	127
315.0824036281179	315.63968253968255	84	127
315.0824036281179	315.63968253968255	69	127
315.67448979591836	316.2434013605442	83	127
315.67448979591836	316.2434013605442	67	127
316.27823129251703	316.76585034013607	81	127
316.27823129251703	316.76585034013607	65	127
316.8122902494331	317.3579591836735	64	127
316.8122902494331	317.0793197278912	79	127
317.09092970521544	317.381179138322	84	127
317.3927891156463	317.68303854875285	79	127
317.6946485260771	317.9732879818594	76	127
317.9848979591837	318.263537414966	74	127
317.9848979591837	318.5421768707483	62	127
317.9848979591837	318.5421768707483	53	127
318.27514739229025	318.5653968253968	81	127
318.58861678004536	319.0181859410431	79	127
318.58861678004536	319.1575056689342	64	127
318.58861678004536	319.1575056689342	55	127
319.04138321995464	319.21555555555557	76	127
319.21555555555557	319.50580498866213	72	127
319.5174149659864	319.58707482993196	74	127
319.58707482993196	319.6567120181406	72	127
319.6567120181406	319.7496145124717	71	127
319.7496145124717	319.81927437641724	72	127
319.81927437641724	320.3649433106576	62	127
319.81927437641724	320.3649433106576	55	127
319.81927437641724	320.1095238095238	77	127
319.81927437641724	320.3649433106576	65	127
320.1211337868481	320.3881632653061	71	127
320.3997732426304	320.66680272108846	64	127
320.3997732426304	320.66680272108846	60	127
320.3997732426304	321.4214512471655	72	127
320.6783900226757	320.957052154195	48	127
320.9686621315193	321.2124716553288	36	127
321.22408163265305	321.5026984126984	48	127
321.5143310657596	321.80455782312924	36	127
321.81619047619046	322.1064399092971	48	127
322.11802721088435	322.3734693877551	36	127
322.3850793650794	322.6521088435374	48	127
322.6637188208617	322.93072562358276	36	127
322.942358276644	323.2325850340136	48	127
323.24419501133787	323.4648072562358	36	127
323.4764172335601	323.75503401360544	48	127
323.76666666666665	324.02208616780047	36	127
324.045306122449	324.2891156462585	48	127
324.17301587301586	324.2891156462585	84	127
324.2891156462585	324.44004535147394	83	127
324.2891156462585	324.5561451247166	36	127
324.44004535147394	324.5561451247166	84	127
324.5561451247166	324.8347845804989	48	127
324.5561451247166	324.6954648526077	86	127
324.6954648526077	324.84639455782315	84	127
324.84639455782315	325.39206349206347	84	127
324.84639455782315	325.12503401360544	36	127
325.1366439909297	325.415283446712	48	127
325.4268934240363	325.69390022675736	36	127
325.71714285714285	325.9957596371882	48	127
326.0073922902494	326.2628117913832	36	127
326.2628117913832	326.518231292517	48	127
326.52984126984126	326.78526077097507	36	127
326.78526077097507	327.06390022675737	48	127
327.07551020408164	327.3657596371882	36	127
327.3773696145125	327.6560090702948	48	127
327.5282766439909	327.66761904761904	84	127
327.66761904761904	327.7721088435374	83	127
327.66761904761904	327.9114285714286	36	127
327.7721088435374	327.9114285714286	84	127
327.9114285714286	328.0391156462585	86	127
327.9114285714286	328.1784580498866	48	127
328.0391156462585	328.1900680272109	84	127
328.1900680272109	328.4454875283447	36	127
328.1900680272109	328.7125170068027	84	127
328.45707482993197	328.73573696145127	48	127
328.74734693877554	329.0375963718821	36	127
329.0375963718821	329.29301587301586	48	127
329.1769160997732	329.30462585034013	84	127
329.30462585034013	329.43233560090704	83	127
329.30462585034013	329.56004535147395	36	127
329.43233560090704	329.56004535147395	84	127
329.56004535147395	329.6877551020408	86	127
329.56004535147395	329.827074829932	48	127
329.6877551020408	329.83868480725624	84	127
329.83868480725624	329.9780045351474	83	127
329.83868480725624	330.0824716553288	36	127
329.9780045351474	330.09408163265306	84	127
330.09408163265306	330.21020408163264	86	127
330.09408163265306	330.3495238095238	48	127
330.21020408163264	330.3611337868481	84	127
330.3611337868481	330.8255328798186	48	127
330.3611337868481	330.8255328798186	84	127
331.47569160997733	331.97492063492064	74	127
331.47569160997733	331.97492063492064	69	127
331.47569160997733	331.97492063492064	65	127
331.47569160997733	331.97492063492064	53	127
332.00975056689344	332.56702947845804	72	127
332.00975056689344	332.56702947845804	67	127
332.00975056689344	332.56702947845804	64	127
332.00975056689344	332.56702947845804	55	127
333.2055782312925	333.72802721088436	62	127
333.2055782312925	333.72802721088436	43	127
333.2055782312925	333.72802721088436	71	127
333.2055782312925	333.72802721088436	65	127
333.7628344671202	334.32013605442177	48	127
333.7628344671202	334.32013605442177	72	127
333.7628344671202	334.32013605442177	64	127
333.7628344671202	334.32013605442177	60	127
335.00512471655327	335.5624036281179	47	127
335.00512471655327	335.5624036281179	43	127
335.00512471655327	335.5624036281179	53	127
335.59723356009073	336.08485260770976	52	127
335.59723356009073	336.08485260770976	48	127
336.4447619047619	336.59569160997734	77	127
336.59569160997734	336.7466213151927	76	127
336.7466213151927	337.26907029478457	55	127
336.7466213151927	336.86272108843536	79	127
336.7466213151927	337.26907029478457	65	127
336.7466213151927	337.26907029478457	59	127
336.86272108843536	337.0136507936508	77	127
337.0136507936508	337.15297052154193	76	127
337.15297052154193	337.3039002267574	74	127
337.3039002267574	337.7450793650794	72	127
337.3039002267574	337.7450793650794	64	127
337.3039002267574	337.7450793650794	60	127
338.09337868480725	338.22108843537416	74	127
338.22108843537416	338.36040816326533	72	127
338.36040816326533	338.4881179138322	76	127
338.4881179138322	338.63904761904763	74	127
338.63904761904763	338.7783446712018	72	127
338.63904761904763	338.7783446712018	64	127
338.7783446712018	338.9292970521542	71	127
338.7783446712018	338.9292970521542	62	127
338.9292970521542	339.08020408163264	65	127
338.9292970521542	339.40530612244896	69	127
339.08020408163264	339.2079365079365	64	127
339.2079365079365	339.32403628117913	62	127
339.2079365079365	339.32403628117913	53	127
339.32403628117913	339.45174603174604	52	127
339.32403628117913	339.45174603174604	60	127
339.45174603174604	339.89292517006805	74	127
339.45174603174604	339.60267573696143	55	127
339.45174603174604	339.9974149659864	59	127
339.60267573696143	339.7536054421769	53	127
339.7536054421769	339.89292517006805	52	127
339.89292517006805	340.0322448979592	71	127
339.89292517006805	340.0322448979592	50	127
340.0322448979592	340.6011337868481	52	127
340.0322448979592	340.6011337868481	72	127
340.0322448979592	340.6011337868481	48	127
340.63596371882085	341.1932426303855	57	127
340.63596371882085	341.1932426303855	69	127
340.63596371882085	341.1932426303855	53	127
341.2280498866213	341.80857142857144	67	127
341.2280498866213	341.80857142857144	64	127
341.2280498866213	342.3774603174603	55	127
341.84337868480725	342.4239002267574	62	127
341.84337868480725	342.4239002267574	65	127
342.4587074829932	343.0160090702948	60	127
342.4587074829932	342.74897959183676	64	127
342.760566893424	342.89990929705215	84	127
342.89990929705215	343.0508390022676	83	127
343.0508390022676	343.201768707483	86	127
343.201768707483	343.34108843537416	84	127
343.34108843537416	343.48038548752834	83	127
343.48038548752834	343.6081179138322	81	127
343.6081179138322	343.88673469387754	79	127
343.89836734693876	344.1770068027211	79	127
344.1886167800454	344.29308390022675	78	127
344.29308390022675	344.38598639455785	79	127
344.38598639455785	344.4904761904762	81	127
344.4904761904762	344.6414058956916	53	127
344.4904761904762	344.75750566893424	79	127
344.6414058956916	344.7691156462585	52	127
344.7691156462585	345.3031746031746	77	127
344.7691156462585	344.8968253968254	55	127
344.8968253968254	345.0477551020408	53	127
345.0477551020408	345.19868480725626	52	127
345.0477551020408	345.19868480725626	43	127
345.19868480725626	345.34961451247165	41	127
345.19868480725626	345.34961451247165	50	127
345.34961451247165	345.47732426303855	45	127
345.34961451247165	345.9068934240363	48	127
345.34961451247165	346.06943310657596	76	127
345.47732426303855	345.628231292517	43	127
345.628231292517	345.7791836734694	41	127
345.7791836734694	345.94172335600905	40	127
345.94172335600905	346.48739229024943	41	127
346.06943310657596	346.2203628117914	74	127
346.2203628117914	346.3712925170068	77	127
346.3712925170068	346.52222222222224	81	127
346.52222222222224	347.07950113378683	72	127
346.52222222222224	347.07950113378683	43	127
347.1259410430839	347.1956009070295	76	127
347.1259410430839	347.6948299319728	43	127
347.1956009070295	347.55551020408166	74	127
347.57873015873014	347.7296598639456	72	127
347.7296598639456	348.27532879818597	72	127
347.7296598639456	348.27532879818597	36	127
348.7165079365079	348.8558276643991	77	127
348.8558276643991	348.97192743764174	76	127
348.97192743764174	349.42471655328796	59	127
348.97192743764174	349.05319727891157	79	127
348.97192743764174	349.42471655328796	55	127
348.97192743764174	349.42471655328796	65	127
349.05319727891157	349.19251700680275	77	127
349.19251700680275	349.3202267573696	76	127
349.3202267573696	349.4595464852608	74	127
349.4595464852608	350.0516553287982	72	127
349.4595464852608	350.0516553287982	64	127
349.4595464852608	350.0516553287982	60	127
350.69020408163266	351.2126530612245	43	127
350.69020408163266	351.2126530612245	67	127
350.69020408163266	351.2126530612245	55	127
350.69020408163266	351.2126530612245	74	127
350.69020408163266	351.2126530612245	71	127
351.2474603174603	351.60739229024944	76	127
351.2474603174603	351.60739229024944	72	127
351.2474603174603	351.60739229024944	67	127
351.2474603174603	351.60739229024944	60	127
351.2474603174603	351.60739229024944	48	127
352.4897505668934	353.1631292517007	83	127
352.4897505668934	353.1631292517007	79	127
352.4897505668934	353.1631292517007	77	127
352.4897505668934	353.1631292517007	74	127
352.4897505668934	353.1631292517007	55	127
352.4897505668934	353.1631292517007	43	127
353.1979365079365	353.8016553287982	84	127
353.1979365079365	353.8016553287982	79	127
353.1979365079365	353.8016553287982	76	127
353.1979365079365	353.8016553287982	36	127
353.1979365079365	353.8016553287982	72	127
353.1979365079365	353.8016553287982	48	127
