# onset,offset,note,velocity
16.090657596371884	16.659546485260773	74	127
16.671156462585035	19.02798185941043	62	127
16.671156462585035	17.216825396825396	79	127
17.251655328798186	17.49546485260771	81	127
17.507074829931973	17.716054421768707	79	127
17.739274376417235	17.983061224489795	78	127
18.42426303854875	18.72612244897959	74	127
18.737732426303854	19.155691609977325	79	127
19.039591836734694	19.36467120181406	59	127
19.19049886621315	19.387891156462587	81	127
19.387891156462587	19.724580498866214	79	127
19.387891156462587	19.724580498866214	55	127
19.736190476190476	20.36312925170068	54	127
19.736190476190476	19.991609977324263	84	127
20.36312925170068	20.641768707482992	83	127
20.36312925170068	20.641768707482992	55	127
20.653356009070293	21.036507936507938	81	127
20.653356009070293	21.69827664399093	48	127
21.152607709750566	21.384807256235828	83	127
21.384807256235828	21.686666666666667	81	127
21.69827664399093	22.58063492063492	49	127
21.69827664399093	22.034965986394557	76	127
22.34843537414966	22.627074829931974	81	127
22.6502947845805	23.671972789115646	79	127
22.6502947845805	22.917324263038548	50	127
22.975374149659864	23.253990929705214	55	127
23.26562358276644	23.660362811791384	59	127
23.671972789115646	23.91578231292517	78	127
23.671972789115646	23.91578231292517	62	127
23.927392290249433	24.229251700680273	60	127
24.240861678004535	24.612380952380953	57	127
24.240861678004535	24.612380952380953	74	127
24.623990929705215	25.13482993197279	79	127
24.623990929705215	25.007120181405895	55	127
25.030340136054424	25.33219954648526	59	127
25.21609977324263	25.343809523809522	81	127
25.355419501133788	25.726938775510202	79	127
25.355419501133788	25.726938775510202	62	127
25.796598639455784	28.466893424036282	62	127
25.796598639455784	26.005578231292517	78	127
26.458367346938775	26.737006802721087	74	127
26.748616780045353	27.16657596371882	79	127
27.18979591836735	27.38716553287982	81	127
27.38716553287982	27.7702947845805	79	127
27.781904761904762	28.014104308390024	84	127
28.33918367346939	28.594603174603176	83	127
28.606213151927438	29.720770975056688	60	127
28.606213151927438	29.30281179138322	81	127
29.326031746031745	29.50018140589569	83	127
29.50018140589569	29.76721088435374	84	127
29.778820861678003	30.011020408163265	76	127
29.778820861678003	30.440589569161	57	127
30.440589569161	30.893378684807256	78	127
30.440589569161	30.893378684807256	62	127
30.91659863945578	32.3562358276644	55	127
30.91659863945578	32.112426303854875	81	127
32.112426303854875	32.3562358276644	79	127
41.5281179138322	41.94607709750567	69	127
41.957687074829934	45.85861678004535	57	127
41.957687074829934	42.3756462585034	79	127
42.398866213151926	42.503356009070295	81	127
42.51496598639456	43.002585034013606	79	127
43.02580498866213	43.33927437641724	78	127
43.69916099773243	43.93138321995465	86	127
43.94299319727891	44.54671201814059	79	127
44.569931972789114	44.70922902494331	81	127
44.70922902494331	44.9646485260771	79	127
45.01111111111111	45.27814058956916	78	127
45.672879818594105	45.986326530612246	86	127
46.009569160997735	46.56684807256236	76	127
46.009569160997735	47.03124716553288	55	127
46.83387755102041	47.06607709750567	83	127
47.07768707482993	47.971655328798185	57	127
47.07768707482993	47.321496598639456	69	127
47.7162358276644	48.11097505668934	73	127
48.1574149659864	49.30680272108844	76	127
48.1574149659864	49.53900226757369	50	127
49.30680272108844	49.53900226757369	74	127
67.10489795918367	67.52285714285715	74	127
67.5344671201814	69.8912925170068	62	127
67.5344671201814	68.0104761904762	79	127
68.03369614512472	68.1962358276644	81	127
68.1962358276644	68.55614512471655	79	127
68.56775510204082	68.8231746031746	78	127
69.28757369614513	69.60104308390022	74	127
69.61265306122449	70.00736961451247	79	127
69.9028798185941	70.13507936507936	59	127
70.030589569161	70.14671201814059	81	127
70.14671201814059	70.51820861678004	79	127
70.14671201814059	70.51820861678004	55	127
70.52984126984127	71.22643990929706	54	127
70.52984126984127	70.90133786848072	84	127
71.22643990929706	71.55151927437642	83	127
71.22643990929706	71.55151927437642	55	127
71.57473922902494	72.48031746031747	60	127
71.57473922902494	72.10879818594104	81	127
72.15523809523809	72.28294784580498	83	127
72.28294784580498	72.51514739229025	84	127
72.52675736961451	72.97954648526077	57	127
72.52675736961451	72.73573696145125	76	127
72.97954648526077	73.21174603174603	78	127
72.97954648526077	73.21174603174603	62	127
73.2233560090703	73.93156462585034	81	127
73.2233560090703	74.11732426303855	55	127
73.93156462585034	74.11732426303855	79	127
74.76748299319728	74.86036281179139	58	127
74.76748299319728	74.86036281179139	62	127
74.76748299319728	74.86036281179139	55	127
74.87197278911565	74.97646258503401	62	127
74.87197278911565	74.97646258503401	55	127
74.87197278911565	74.97646258503401	58	127
74.98807256235828	75.02290249433106	60	127
74.98807256235828	75.02290249433106	57	127
74.98807256235828	75.02290249433106	62	127
75.04612244897959	75.17383219954648	60	127
75.04612244897959	75.17383219954648	62	127
75.04612244897959	75.17383219954648	57	127
75.22024943310657	75.41764172335601	58	127
75.22024943310657	75.41764172335601	55	127
75.42925170068027	75.638231292517	57	127
75.42925170068027	75.638231292517	60	127
75.64984126984127	75.87043083900227	62	127
75.64984126984127	75.87043083900227	58	127
75.88204081632654	76.03297052154196	60	127
75.88204081632654	76.03297052154196	57	127
76.04458049886621	76.24192743764172	58	127
76.04458049886621	76.24192743764172	55	127
76.49734693877551	76.69473922902495	57	127
76.49734693877551	76.69473922902495	54	127
76.49734693877551	76.69473922902495	62	127
76.7063492063492	76.92693877551021	57	127
76.7063492063492	76.92693877551021	54	127
76.7063492063492	76.92693877551021	62	127
77.17074829931973	77.34489795918367	58	127
77.17074829931973	77.34489795918367	55	127
77.17074829931973	77.34489795918367	62	127
77.35650793650794	77.47260770975056	58	127
77.35650793650794	77.47260770975056	62	127
77.35650793650794	77.47260770975056	55	127
77.69319727891157	77.87893424036281	57	127
77.69319727891157	77.87893424036281	54	127
77.89056689342404	78.0879365079365	58	127
77.89056689342404	78.0879365079365	55	127
78.11115646258503	78.30852607709751	60	127
78.11115646258503	78.30852607709751	57	127
78.33174603174604	78.54072562358277	58	127
78.33174603174604	78.54072562358277	55	127
78.55233560090703	78.77290249433106	57	127
78.55233560090703	78.77290249433106	54	127
78.98190476190476	79.12122448979592	62	127
78.98190476190476	79.12122448979592	58	127
79.12122448979592	79.28374149659864	62	127
79.12122448979592	79.28374149659864	58	127
79.5043537414966	79.66687074829932	58	127
79.5043537414966	79.69011337868481	63	127
79.69011337868481	79.8178231292517	58	127
79.69011337868481	79.8178231292517	64	127
79.84104308390023	79.9222902494331	65	127
79.84104308390023	80.0384126984127	60	127
79.9222902494331	80.02678004535147	63	127
80.0384126984127	80.18934240362812	60	127
80.0384126984127	80.18934240362812	57	127
80.18934240362812	80.40990929705215	58	127
80.18934240362812	80.40990929705215	58	127
80.42154195011338	80.63052154195012	62	127
80.64213151927437	80.73501133786849	65	127
80.86272108843538	81.07170068027212	67	127
80.86272108843538	81.07170068027212	63	127
81.09492063492064	81.28068027210884	67	127
81.09492063492064	81.28068027210884	63	127
81.48965986394558	81.69863945578231	63	127
81.48965986394558	81.69863945578231	60	127
81.71024943310658	81.89600907029478	60	127
81.71024943310658	81.89600907029478	63	127
81.90761904761905	82.54616780045352	69	127
81.90761904761905	82.54616780045352	63	127
82.54616780045352	82.68548752834467	70	127
82.54616780045352	82.68548752834467	62	127
83.06859410430839	83.28920634920635	62	127
83.06859410430839	83.28920634920635	55	127
83.06859410430839	83.28920634920635	58	127
83.30081632653061	83.49818594104309	62	127
83.30081632653061	83.49818594104309	58	127
83.30081632653061	83.49818594104309	55	127
83.71877551020408	83.83485260770975	60	127
83.71877551020408	83.83485260770975	57	127
83.71877551020408	83.83485260770975	62	127
83.84648526077098	84.03224489795919	60	127
83.84648526077098	84.03224489795919	57	127
83.84648526077098	84.03224489795919	62	127
84.2760544217687	84.49664399092971	55	127
84.2760544217687	84.49664399092971	58	127
84.50825396825397	84.70562358276644	60	127
84.50825396825397	84.70562358276644	57	127
84.7172335600907	84.91460317460317	58	127
84.7172335600907	84.91460317460317	62	127
84.92621315192744	85.14680272108843	57	127
84.92621315192744	85.14680272108843	60	127
85.1584126984127	85.35578231292517	58	127
85.1584126984127	85.35578231292517	55	127
85.58798185941043	85.7853514739229	54	127
85.58798185941043	85.7853514739229	62	127
85.58798185941043	85.7853514739229	57	127
85.80857142857143	85.88984126984127	57	127
85.80857142857143	85.88984126984127	54	127
85.80857142857143	85.88984126984127	62	127
86.13362811791383	86.34263038548752	58	127
86.13362811791383	86.34263038548752	55	127
86.13362811791383	86.34263038548752	62	127
86.3542403628118	86.57482993197279	58	127
86.3542403628118	86.57482993197279	55	127
86.3542403628118	86.57482993197279	62	127
86.81863945578232	87.03922902494331	54	127
86.81863945578232	87.03922902494331	57	127
87.05083900226758	87.25979591836735	58	127
87.05083900226758	87.25979591836735	55	127
87.28301587301587	87.49201814058956	60	127
87.28301587301587	87.49201814058956	57	127
87.51521541950113	87.71260770975057	58	127
87.51521541950113	87.71260770975057	55	127
87.72421768707483	87.7358276643991	57	127
87.72421768707483	87.7358276643991	54	127
87.88675736961451	88.09573696145125	62	127
87.88675736961451	88.09573696145125	58	127
88.1073469387755	88.31632653061224	62	127
88.1073469387755	88.31632653061224	58	127
88.5485260770975	88.74589569160997	58	127
88.5485260770975	88.7691156462585	63	127
88.7691156462585	88.9897052154195	58	127
88.7691156462585	88.9897052154195	64	127
89.01292517006803	89.22190476190477	65	127
89.01292517006803	89.46571428571428	60	127
89.23351473922902	89.45410430839003	63	127
89.46571428571428	89.72113378684807	57	127
89.46571428571428	89.72113378684807	60	127
89.73274376417234	89.95333333333333	58	127
89.73274376417234	89.95333333333333	58	127
89.9649433106576	90.1855328798186	62	127
90.1971201814059	90.44095238095238	65	127
90.69637188208617	90.9053514739229	67	127
90.69637188208617	90.9053514739229	63	127
90.92857142857143	91.13755102040817	67	127
90.92857142857143	91.13755102040817	63	127
91.38136054421769	91.60195011337869	63	127
91.38136054421769	91.60195011337869	60	127
91.61356009070295	91.83412698412698	60	127
91.61356009070295	91.83412698412698	63	127
91.84575963718821	92.48430839002268	69	127
91.84575963718821	92.48430839002268	63	127
92.48430839002268	92.69328798185941	70	127
92.48430839002268	92.69328798185941	62	127
92.9487074829932	93.18090702947846	70	127
93.19251700680272	95.01528344671202	46	127
93.19251700680272	93.72655328798186	74	127
93.80784580498866	93.93555555555555	75	127
93.93555555555555	94.16775510204081	74	127
94.20258503401361	94.64376417233561	74	127
94.65537414965986	94.88757369614513	75	127
94.8991836734694	95.10816326530612	77	127
95.13138321995464	96.60585034013606	41	127
95.13138321995464	95.45646258503402	77	127
95.45646258503402	95.76993197278911	72	127
96.60585034013606	96.8148299319728	62	127
96.60585034013606	96.8148299319728	42	127
96.82643990929705	97.0934693877551	70	127
96.82643990929705	98.02226757369614	43	127
97.11668934240363	97.221179138322	72	127
97.23278911564626	97.44176870748299	70	127
97.46498866213152	97.67396825396825	70	127
97.68557823129251	97.88294784580499	72	127
97.89455782312925	98.10353741496598	74	127
98.11514739229025	98.56793650793651	38	127
98.11514739229025	98.32412698412699	74	127
98.32412698412699	98.48666666666666	69	127
98.61437641723356	99.1948752834467	50	127
98.9162358276644	99.1019954648526	74	127
99.1019954648526	99.16004535147393	75	127
99.16004535147393	99.18326530612245	77	127
99.18326530612245	99.1948752834467	75	127
99.1948752834467	99.20648526077098	48	127
99.1948752834467	99.21809523809524	75	127
99.20648526077098	99.24131519274377	45	127
99.24131519274377	99.41546485260771	75	127
99.24131519274377	99.41546485260771	43	127
99.43868480725624	99.85664399092971	42	127
99.43868480725624	99.61283446712018	74	127
99.64766439909297	99.75215419501134	81	127
99.75215419501134	99.86825396825397	84	127
99.86825396825397	100.12367346938775	43	127
99.86825396825397	99.9843537414966	82	127
100.12367346938775	100.21655328798185	79	127
100.12367346938775	100.21655328798185	46	127
100.22816326530612	100.63451247165533	48	127
100.22816326530612	100.54163265306123	81	127
100.56485260770975	100.65773242630385	82	127
100.66934240362812	100.86671201814059	84	127
100.88993197278911	101.1453514739229	74	127
100.88993197278911	101.19179138321995	50	127
101.16857142857143	101.22662131519274	76	127
101.22662131519274	101.3659410430839	78	127
101.3659410430839	101.94643990929706	81	127
101.3659410430839	102.0857596371882	43	127
101.94643990929706	102.0857596371882	79	127
102.28312925170069	102.48049886621315	70	127
102.49210884353741	102.73591836734694	74	127
102.49210884353741	103.44412698412698	46	127
102.75913832199547	102.80557823129251	75	127
102.80557823129251	102.97972789115646	74	127
102.99133786848073	103.16548752834467	74	127
103.17709750566894	103.31641723356009	75	127
103.32802721088436	103.5370068027211	77	127
103.56022675736962	104.31487528344671	41	127
103.56022675736962	103.80403628117914	77	127
103.80403628117914	103.96657596371882	72	127
104.31487528344671	104.43097505668935	62	127
104.31487528344671	104.43097505668935	42	127
104.4425850340136	104.63995464852607	70	127
104.4425850340136	105.40621315192743	43	127
104.65156462585034	104.74444444444444	72	127
104.74444444444444	104.89537414965986	70	127
104.91859410430838	105.08113378684807	70	127
105.09274376417234	105.26689342403628	72	127
105.27850340136054	105.5107029478458	74	127
105.52231292517007	106.11442176870749	38	127
105.52231292517007	105.74290249433106	74	127
105.74290249433106	105.94027210884354	69	127
106.16086167800454	107.05482993197279	50	127
106.47433106575964	106.62526077097506	74	127
106.63687074829932	106.84585034013605	75	127
106.86907029478458	106.93873015873015	77	127
106.93873015873015	107.08965986394558	75	127
107.10126984126984	107.31024943310658	48	127
107.10126984126984	107.49600907029479	75	127
107.32185941043083	107.51922902494331	45	127
107.53083900226757	107.67015873015873	75	127
107.53083900226757	107.67015873015873	43	127
107.68176870748299	108.28548752834467	42	127
107.68176870748299	108.00684807256236	74	127
108.01845804988662	108.12294784580499	81	127
108.13455782312926	108.3087074829932	84	127
108.32031746031745	108.78471655328798	43	127
108.32031746031745	108.54090702947846	82	127
108.78471655328798	108.92403628117914	46	127
108.78471655328798	108.92403628117914	79	127
108.9356462585034	109.02852607709751	81	127
108.9356462585034	109.02852607709751	48	127
109.02852607709751	109.17945578231293	84	127
109.20267573696145	109.50453514739229	74	127
109.20267573696145	109.62063492063493	50	127
109.52775510204081	109.64385487528345	76	127
109.64385487528345	109.85283446712018	78	127
109.86444444444444	110.46816326530612	81	127
109.86444444444444	110.65392290249433	43	127
110.46816326530612	110.65392290249433	79	127
125.65401360544217	126.0255328798186	74	127
126.04875283446712	126.48993197278912	79	127
126.04875283446712	127.17492063492064	43	127
126.51315192743765	126.71052154195011	81	127
126.71052154195011	127.16331065759637	79	127
127.17492063492064	127.52321995464852	78	127
127.17492063492064	128.15015873015872	45	127
127.96439909297052	128.19657596371883	74	127
128.20820861678004	129.14861678004536	43	127
128.20820861678004	128.76548752834466	79	127
128.8119274376417	128.91641723356008	81	127
128.92802721088435	129.18344671201814	79	127
129.21825396825398	129.7871655328798	42	127
129.21825396825398	129.47367346938776	84	127
129.82199546485262	130.10063492063492	83	127
129.82199546485262	130.10063492063492	43	127
130.1122448979592	131.13392290249433	36	127
130.1122448979592	130.6695238095238	81	127
130.69274376417235	130.87850340136055	83	127
130.87850340136055	131.12231292517006	81	127
131.13392290249433	131.50544217687076	76	127
131.13392290249433	132.10916099773243	37	127
131.9001814058957	132.1439909297052	81	127
132.17879818594105	133.061179138322	79	127
132.17879818594105	133.35142857142858	38	127
133.061179138322	133.35142857142858	78	127
133.82743764172335	134.08285714285714	74	127
134.10607709750568	135.1625850340136	43	127
134.10607709750568	134.61691609977325	79	127
134.64013605442176	134.82589569161	81	127
134.82589569161	135.15097505668933	79	127
135.1625850340136	136.0449433106576	45	127
135.1625850340136	135.48766439909298	78	127
135.74308390022676	136.10299319727892	74	127
136.11458049886622	136.75315192743764	79	127
136.11458049886622	137.07823129251702	43	127
136.77637188208618	136.88083900226758	81	127
136.8924716553288	137.1130612244898	79	127
137.13625850340136	137.76321995464852	42	127
137.13625850340136	137.46136054421768	84	127
137.79804988662133	138.12312925170068	43	127
137.79804988662133	138.12312925170068	83	127
138.13473922902494	138.62233560090704	81	127
138.13473922902494	139.52793650793652	36	127
138.64557823129252	138.83133786848072	83	127
138.83133786848072	139.1564172335601	84	127
139.16802721088436	139.52793650793652	76	127
139.5627664399093	139.86462585034013	33	127
139.92267573696145	140.24775510204083	38	127
139.92267573696145	140.24775510204083	78	127
140.25934240362812	141.46680272108844	81	127
140.25934240362812	141.79185941043085	43	127
141.46680272108844	141.79185941043085	79	127
146.1572335600907	146.5055328798186	86	127
146.1572335600907	146.5055328798186	71	127
146.5403628117914	146.76095238095238	84	127
146.5403628117914	146.76095238095238	69	127
146.77256235827664	147.19052154195012	67	127
146.77256235827664	147.19052154195012	83	127
147.2021315192744	147.51557823129252	81	127
147.2021315192744	147.51557823129252	65	127
147.52721088435374	147.81746031746033	64	127
147.52721088435374	147.81746031746033	79	127
147.82907029478457	148.23541950113378	77	127
147.82907029478457	148.23541950113378	62	127
148.24702947845805	148.61854875283447	60	127
148.24702947845805	148.61854875283447	76	127
148.64174603174604	148.96684807256236	74	127
148.64174603174604	148.96684807256236	59	127
149.0016553287982	149.2687074829932	72	127
149.0016553287982	149.2687074829932	60	127
149.28031746031746	149.5821768707483	60	127
149.28031746031746	149.5821768707483	64	127
149.28031746031746	149.5821768707483	55	127
149.59378684807257	149.90725623582767	64	127
149.59378684807257	149.90725623582767	60	127
149.59378684807257	149.90725623582767	55	127
150.23233560090702	150.5574149659864	55	127
150.23233560090702	150.5574149659864	64	127
150.23233560090702	150.5574149659864	60	127
150.56902494331067	150.97537414965987	64	127
150.56902494331067	150.97537414965987	55	127
150.56902494331067	150.97537414965987	60	127
151.2772335600907	151.67197278911564	55	127
151.2772335600907	151.67197278911564	67	127
151.2772335600907	151.67197278911564	62	127
151.69519274376418	151.90417233560092	55	127
151.69519274376418	151.90417233560092	62	127
151.69519274376418	151.90417233560092	67	127
152.18281179138322	152.58916099773242	62	127
152.18281179138322	152.58916099773242	55	127
152.18281179138322	152.58916099773242	65	127
152.6007709750567	152.89102040816326	62	127
152.6007709750567	152.89102040816326	65	127
152.6007709750567	152.89102040816326	55	127
153.2509297052154	153.58761904761906	60	127
153.2509297052154	153.58761904761906	64	127
153.2509297052154	153.58761904761906	55	127
153.59920634920636	153.9126984126984	64	127
153.59920634920636	153.9126984126984	60	127
153.59920634920636	153.9126984126984	55	127
154.2958276643991	154.63251700680271	57	127
154.2958276643991	154.63251700680271	65	127
154.2958276643991	154.63251700680271	62	127
154.64412698412698	154.98079365079366	65	127
154.64412698412698	154.98079365079366	57	127
154.64412698412698	154.98079365079366	62	127
155.2710657596372	155.66580498866213	55	127
155.2710657596372	155.66580498866213	64	127
155.2710657596372	155.66580498866213	60	127
155.6774149659864	155.96766439909297	55	127
155.6774149659864	155.96766439909297	60	127
155.6774149659864	155.96766439909297	64	127
155.97927437641724	156.42045351473922	62	127
155.97927437641724	156.42045351473922	55	127
155.97927437641724	156.4320634920635	59	127
156.4320634920635	156.675873015873	55	127
156.69909297052155	156.91965986394558	67	127
156.94290249433107	158.80049886621316	60	127
156.94290249433107	157.07061224489797	72	127
157.23315192743763	157.26798185941044	74	127
157.26798185941044	157.36086167800454	72	127
157.36086167800454	157.73238095238096	71	127
157.73238095238096	157.8717006802721	72	127
157.8717006802721	158.06907029478458	74	127
158.06907029478458	158.20839002267573	76	127
158.3825396825397	158.41736961451247	77	127
158.41736961451247	158.51024943310657	76	127
158.51024943310657	158.63795918367347	74	127
158.63795918367347	158.7888888888889	76	127
158.80049886621316	159.0094784580499	77	127
159.02108843537414	159.11396825396827	79	127
159.02108843537414	159.92666666666668	59	127
159.32292517006803	159.3809977324263	81	127
159.3809977324263	159.47387755102042	79	127
159.48548752834466	159.6015873015873	78	127
159.61319727891157	159.78732426303856	79	127
159.79895691609977	159.92666666666668	81	127
159.92666666666668	160.06598639455783	83	127
159.92666666666668	160.77419501133787	64	127
160.28657596371883	160.33301587301588	84	127
160.33301587301588	160.43750566893425	83	127
160.43750566893425	160.5768253968254	81	127
160.5768253968254	160.70451247165533	83	127
160.70451247165533	160.87868480725623	84	127
160.87868480725623	161.2966439909297	86	127
160.87868480725623	161.8887528344671	62	127
161.30825396825398	161.65655328798186	83	127
161.67977324263038	161.92358276643992	79	127
161.94680272108843	162.94526077097507	50	127
161.94680272108843	162.29510204081632	84	127
162.31832199546486	162.66662131519274	81	127
162.678231292517	162.98009070294785	78	127
162.98009070294785	164.29201814058956	81	127
162.98009070294785	164.29201814058956	55	127
164.29201814058956	164.5938775510204	79	127
164.29201814058956	164.5938775510204	43	127
165.5691156462585	165.84775510204082	60	127
165.5691156462585	165.84775510204082	72	127
165.8593650793651	166.14961451247166	55	127
165.8593650793651	166.14961451247166	64	127
165.8593650793651	166.14961451247166	60	127
166.16122448979593	166.49791383219954	64	127
166.16122448979593	166.49791383219954	60	127
166.16122448979593	166.49791383219954	55	127
166.81138321995465	167.13646258503402	55	127
166.81138321995465	167.13646258503402	64	127
166.81138321995465	167.13646258503402	60	127
167.14804988662132	167.53120181405896	64	127
167.14804988662132	167.53120181405896	55	127
167.14804988662132	167.53120181405896	60	127
167.8098185941043	168.08848072562358	62	127
167.8098185941043	168.08848072562358	67	127
167.8098185941043	168.08848072562358	55	127
168.12331065759636	168.4715873015873	67	127
168.12331065759636	168.4715873015873	62	127
168.12331065759636	168.4715873015873	55	127
168.91278911564626	169.13337868480727	65	127
168.91278911564626	169.13337868480727	62	127
168.91278911564626	169.13337868480727	55	127
169.17981859410432	169.51650793650794	55	127
169.17981859410432	169.51650793650794	62	127
169.17981859410432	169.51650793650794	65	127
169.82997732426304	170.17827664399093	55	127
169.82997732426304	170.17827664399093	64	127
169.82997732426304	170.17827664399093	60	127
170.1898866213152	170.51496598639457	55	127
170.1898866213152	170.51496598639457	60	127
170.1898866213152	170.51496598639457	64	127
170.92131519274378	171.1883446712018	62	127
170.92131519274378	171.1883446712018	65	127
170.92131519274378	171.1883446712018	57	127
171.19995464852607	171.4901814058957	62	127
171.19995464852607	171.4901814058957	65	127
171.19995464852607	171.4901814058957	57	127
171.82689342403629	172.12875283446712	60	127
171.82689342403629	172.12875283446712	55	127
171.82689342403629	172.12875283446712	64	127
172.1403628117914	172.55832199546487	64	127
172.1403628117914	172.55832199546487	55	127
172.1403628117914	172.55832199546487	60	127
172.5699319727891	172.9762811791383	59	127
172.5699319727891	172.96467120181407	62	127
172.5699319727891	172.96467120181407	55	127
172.9762811791383	173.28975056689342	55	127
173.3013605442177	173.60321995464852	67	127
173.62643990929706	175.37954648526076	60	127
173.62643990929706	173.75414965986394	72	127
173.90507936507936	173.9282993197279	74	127
173.9282993197279	174.05600907029478	72	127
174.05600907029478	174.28820861678005	71	127
174.28820861678005	174.4275283446712	72	127
174.4275283446712	174.54362811791384	74	127
174.54362811791384	174.85709750566895	76	127
175.00802721088436	175.04285714285714	77	127
175.04285714285714	175.13573696145124	76	127
175.13573696145124	175.26344671201815	74	127
175.26344671201815	175.37954648526076	76	127
175.37954648526076	175.63496598639455	77	127
175.64657596371882	176.5985941043084	59	127
175.64657596371882	175.78587301587302	79	127
175.9716553287982	175.9948752834467	81	127
175.9948752834467	176.2154648526077	79	127
176.22707482993198	176.35478458049886	78	127
176.36639455782313	176.4708843537415	79	127
176.48249433106577	176.58698412698413	81	127
176.5985941043084	177.4461224489796	64	127
176.5985941043084	176.73791383219955	83	127
176.92367346938775	176.9701133786848	84	127
176.9701133786848	177.06297052154196	83	127
177.06297052154196	177.2603628117914	81	127
177.2603628117914	177.376462585034	83	127
177.376462585034	177.49256235827664	84	127
177.49256235827664	177.70154195011338	86	127
177.49256235827664	178.09628117913832	62	127
177.71315192743765	177.93371882086169	83	127
177.9453514739229	178.11950113378686	79	127
178.11950113378686	178.6071201814059	50	127
178.11950113378686	178.27043083900227	84	127
178.28204081632654	178.479410430839	81	127
178.50263038548752	178.6419501133787	78	127
178.6419501133787	179.29210884353742	81	127
178.6419501133787	179.29210884353742	55	127
179.29210884353742	179.51269841269843	79	127
179.29210884353742	179.51269841269843	43	127
180.2092970521542	180.3950566893424	55	127
180.2092970521542	180.3950566893424	59	127
180.40666666666667	180.6156462585034	59	127
180.40666666666667	180.6156462585034	55	127
180.85945578231292	181.06843537414966	60	127
180.85945578231292	181.06843537414966	57	127
181.08004535147393	181.31224489795918	57	127
181.08004535147393	181.31224489795918	60	127
181.53283446712018	181.73020408163265	62	127
181.53283446712018	181.73020408163265	59	127
181.7534240362812	181.96240362811793	59	127
181.7534240362812	181.96240362811793	62	127
182.20621315192744	182.42678004535148	60	127
182.20621315192744	182.42678004535148	64	127
182.4384126984127	182.64739229024943	64	127
182.4384126984127	182.64739229024943	60	127
182.891179138322	183.12340136054422	67	127
182.891179138322	183.12340136054422	63	127
183.1350113378685	183.36721088435374	63	127
183.1350113378685	183.36721088435374	67	127
183.59941043083901	183.75034013605443	68	127
183.59941043083901	183.75034013605443	65	127
183.77356009070294	183.9477097505669	65	127
183.77356009070294	183.9477097505669	68	127
184.15668934240364	184.37727891156462	66	127
184.15668934240364	184.37727891156462	69	127
184.40049886621316	184.6326984126984	69	127
184.40049886621316	184.6326984126984	66	127
184.64430839002267	184.87650793650795	62	127
184.64430839002267	185.0854648526077	67	127
184.87650793650795	185.12031746031747	67	127
185.13192743764174	185.3292970521542	67	127
185.3525170068027	185.44537414965987	72	127
185.3525170068027	186.51351473922904	60	127
185.584716553288	185.6079365079365	74	127
185.6079365079365	185.6775963718821	72	127
185.68920634920636	185.79369614512473	71	127
185.79369614512473	185.8981859410431	72	127
185.8981859410431	186.0142857142857	74	127
186.0142857142857	186.10714285714286	76	127
186.22326530612244	186.25809523809525	77	127
186.25809523809525	186.33936507936508	76	127
186.33936507936508	186.3974149659864	74	127
186.3974149659864	186.51351473922904	76	127
186.51351473922904	186.62961451247165	77	127
186.62961451247165	187.29138321995464	59	127
186.62961451247165	186.7108843537415	79	127
186.85020408163265	186.86181405895692	81	127
186.86181405895692	186.94308390022675	79	127
186.95469387755102	187.0591836734694	78	127
187.07079365079366	187.17528344671203	79	127
187.18687074829933	187.2797732426304	81	127
187.29138321995464	187.8022222222222	55	127
187.29138321995464	187.4655328798186	77	127
187.6512925170068	187.81383219954648	74	127
187.81383219954648	187.8718820861678	76	127
187.81383219954648	188.39433106575964	60	127
187.99956916099774	188.11569160997732	79	127
188.11569160997732	188.23179138321996	78	127
188.23179138321996	188.33628117913833	79	127
188.33628117913833	188.42916099773242	76	127
188.4407709750567	189.02124716553288	53	127
188.4407709750567	188.5336507936508	74	127
188.64975056689343	188.7542403628118	77	127
188.7658276643991	188.8471201814059	76	127
188.85873015873017	188.96321995464854	77	127
188.97480725623583	189.0677097505669	74	127
189.07931972789115	189.28829931972788	67	127
189.07931972789115	189.7410657596372	55	127
189.29990929705215	189.4160090702948	68	127
189.4160090702948	189.53208616780046	69	127
189.53208616780046	189.63657596371883	70	127
189.63657596371883	189.7410657596372	71	127
189.7410657596372	189.822358276644	72	127
189.7410657596372	189.822358276644	48	127
190.2519274376417	190.43768707482994	59	127
190.2519274376417	190.43768707482994	55	127
190.47251700680272	190.68149659863946	59	127
190.47251700680272	190.68149659863946	55	127
190.90208616780046	191.12267573696144	60	127
190.90208616780046	191.12267573696144	57	127
191.1342857142857	191.35487528344672	57	127
191.1342857142857	191.35487528344672	60	127
191.59868480725623	191.7960544217687	62	127
191.59868480725623	191.7960544217687	59	127
191.80766439909297	192.00503401360544	59	127
191.80766439909297	192.00503401360544	62	127
192.26045351473923	192.4578231292517	64	127
192.26045351473923	192.4578231292517	60	127
192.46943310657596	192.65519274376416	60	127
192.46943310657596	192.65519274376416	64	127
192.8990022675737	193.11959183673468	67	127
192.8990022675737	193.11959183673468	63	127
193.13120181405895	193.35179138321996	67	127
193.13120181405895	193.35179138321996	63	127
193.5839909297052	193.75814058956917	68	127
193.5839909297052	193.75814058956917	65	127
193.78136054421768	193.95551020408163	65	127
193.78136054421768	193.95551020408163	68	127
194.17609977324264	194.39668934240362	66	127
194.17609977324264	194.39668934240362	69	127
194.4082993197279	194.60566893424036	69	127
194.4082993197279	194.60566893424036	66	127
194.61727891156463	195.04684807256237	67	127
194.61727891156463	194.84947845804987	62	127
194.84947845804987	195.07006802721088	67	127
195.08167800453515	195.26743764172335	67	127
195.26743764172335	195.33709750566894	72	127
195.26743764172335	196.4168253968254	60	127
195.47641723356008	195.55768707482994	72	127
195.56929705215418	195.67378684807255	71	127
195.68539682539682	195.76666666666668	72	127
195.76666666666668	195.8827664399093	74	127
195.8827664399093	195.98725623582766	76	127
196.1033560090703	196.13818594104308	77	127
196.13818594104308	196.21945578231293	76	127
196.21945578231293	196.33555555555554	74	127
196.33555555555554	196.40521541950113	76	127
196.40521541950113	196.52131519274377	77	127
196.52131519274377	197.02054421768707	59	127
196.52131519274377	196.6025850340136	79	127
196.74190476190475	196.75351473922902	81	127
196.75351473922902	196.8231746031746	79	127
196.83478458049888	196.93927437641725	78	127
196.9508843537415	197.02054421768707	79	127
197.02054421768707	197.42689342403628	55	127
197.02054421768707	197.0785941043084	77	127
197.25274376417232	197.46172335600906	74	127
197.47333333333333	197.5778231292517	76	127
197.47333333333333	197.92612244897958	60	127
197.7055328798186	197.7635827664399	79	127
197.7635827664399	197.78680272108843	78	127
197.78680272108843	197.87968253968253	79	127
197.87968253968253	197.97256235827663	76	127
197.97256235827663	198.04222222222222	74	127
197.97256235827663	198.13510204081632	53	127
198.10027210884354	198.1118820861678	76	127
198.1118820861678	198.13510204081632	74	127
198.13510204081632	198.7968707482993	55	127
198.13510204081632	198.32086167800455	67	127
198.3324716553288	198.44857142857143	68	127
198.44857142857143	198.56467120181406	69	127
198.56467120181406	198.6807709750567	70	127
198.6807709750567	198.7968707482993	71	127
198.7968707482993	198.99424036281178	72	127
198.7968707482993	198.99424036281178	48	127
200.95632653061224	201.28140589569162	64	127
201.29301587301586	201.4787755102041	65	127
201.4787755102041	201.64131519274378	66	127
201.65292517006802	201.8154648526077	66	127
201.82707482993197	201.9431746031746	67	127
201.95478458049885	202.17537414965986	69	127
203.9284807256236	204.13746031746032	74	127
204.1490702947846	204.27678004535147	75	127
204.28839002267574	204.45092970521543	76	127
204.46253968253967	204.68312925170068	77	127
204.69473922902495	204.89210884353741	78	127
204.90371882086168	205.623537414966	79	127
205.75124716553287	205.8092970521542	81	127
205.8092970521542	205.8673469387755	79	127
205.8673469387755	205.9370068027211	78	127
205.9370068027211	206.00666666666666	79	127
206.00666666666666	206.63360544217687	82	127
206.63360544217687	206.85419501133788	73	127
206.86580498866212	206.99351473922903	62	127
206.86580498866212	207.58562358276643	74	127
207.1908843537415	207.21410430839003	64	127
207.21410430839003	207.3185941043084	62	127
207.33020408163264	207.60884353741497	61	127
207.63206349206348	207.74816326530612	62	127
207.7597732426304	207.95714285714286	64	127
207.96875283446713	208.30544217687074	61	127
207.96875283446713	208.17773242630386	79	127
208.30544217687074	208.34027210884355	81	127
208.30544217687074	208.60730158730158	69	127
208.34027210884355	208.43315192743765	79	127
208.43315192743765	208.61891156462585	78	127
208.61891156462585	208.73501133786849	79	127
208.73501133786849	208.86272108843536	81	127
208.86272108843536	208.96721088435373	60	127
208.86272108843536	209.1065306122449	78	127
209.1065306122449	209.1413605442177	62	127
209.1065306122449	209.67541950113377	86	127
209.1413605442177	209.2922902494331	60	127
209.2922902494331	209.67541950113377	59	127
209.68702947845804	209.80312925170068	60	127
209.81473922902495	209.93083900226756	62	127
209.94244897959183	210.15142857142857	74	127
209.94244897959183	210.29074829931972	59	127
210.29074829931972	210.31396825396826	76	127
210.29074829931972	210.60421768707482	67	127
210.31396825396826	210.41845804988662	74	127
210.4532879818594	210.6158276643991	73	127
210.62743764172336	210.78997732426305	74	127
210.78997732426305	210.9525170068027	76	127
210.9525170068027	211.09183673469389	55	127
210.9525170068027	211.23115646258503	73	127
211.23115646258503	211.2659863945578	57	127
211.23115646258503	211.57945578231292	81	127
211.2659863945578	211.34725623582767	55	127
211.34725623582767	211.60267573696146	54	127
211.60267573696146	211.75360544217688	55	127
211.75360544217688	211.89292517006803	57	127
211.89292517006803	211.9974149659864	72	127
211.89292517006803	212.25283446712018	54	127
212.25283446712018	212.27605442176872	74	127
212.25283446712018	212.55469387755102	62	127
212.27605442176872	212.36893424036282	72	127
212.39215419501133	212.55469387755102	71	127
212.5663038548753	212.72884353741497	72	127
212.74045351473922	212.9029931972789	74	127
212.91460317460317	213.17002267573696	71	127
212.91460317460317	213.00748299319727	55	127
213.17002267573696	213.1932426303855	57	127
213.17002267573696	213.6228117913832	79	127
213.1932426303855	213.27451247165533	55	127
213.27451247165533	213.63442176870748	54	127
213.63442176870748	213.76213151927436	55	127
213.76213151927436	213.9478911564626	59	127
213.9478911564626	214.21492063492065	70	127
213.9478911564626	214.88829931972788	49	127
214.21492063492065	214.24975056689343	72	127
214.24975056689343	214.40068027210884	70	127
214.40068027210884	214.56321995464853	69	127
214.56321995464853	214.71414965986395	70	127
214.71414965986395	214.88829931972788	67	127
214.88829931972788	215.2946485260771	62	127
214.88829931972788	215.2946485260771	50	127
218.48739229024943	218.8124716553288	61	127
218.48739229024943	218.8124716553288	65	127
218.8124716553288	219.13755102040815	62	127
218.8124716553288	219.13755102040815	66	127
219.52068027210885	219.76448979591837	63	127
219.52068027210885	219.76448979591837	66	127
219.76448979591837	219.99668934240364	64	127
219.76448979591837	219.99668934240364	67	127
220.49591836734695	220.75133786848073	65	127
220.49591836734695	220.75133786848073	68	127
220.75133786848073	221.08802721088435	69	127
220.75133786848073	221.08802721088435	66	127
222.36512471655328	222.66698412698412	65	127
222.36512471655328	222.66698412698412	68	127
222.66698412698412	223.00367346938776	69	127
222.66698412698412	223.00367346938776	66	127
223.31714285714287	223.65383219954649	66	127
223.31714285714287	223.65383219954649	70	127
223.65383219954649	223.897641723356	67	127
223.65383219954649	223.897641723356	71	127
224.2807709750567	224.58263038548753	68	127
224.2807709750567	224.58263038548753	71	127
224.58263038548753	225.000589569161	72	127
224.58263038548753	225.000589569161	69	127
242.125306122449	242.69419501133788	74	127
242.7174149659864	243.06571428571428	79	127
242.7174149659864	243.56494331065758	55	127
243.08893424036282	243.26308390022675	81	127
243.26308390022675	243.55333333333334	79	127
243.56494331065758	244.45891156462585	57	127
243.56494331065758	243.8784126984127	78	127
244.23832199546484	244.5053514739229	74	127
244.51696145124717	245.46897959183673	55	127
244.51696145124717	245.02780045351474	79	127
245.06263038548752	245.1671201814059	81	127
245.17873015873016	245.51541950113378	79	127
245.52702947845805	246.1075283446712	54	127
245.52702947845805	245.8637188208617	84	127
246.1075283446712	246.33972789115646	55	127
246.1075283446712	246.33972789115646	83	127
246.35133786848073	247.38462585034014	60	127
246.35133786848073	246.90861678004535	81	127
246.9318367346939	247.05954648526077	83	127
247.07115646258504	247.3614058956916	81	127
247.38462585034014	248.3366439909297	61	127
247.38462585034014	247.72131519274376	76	127
248.10444444444445	248.39469387755102	81	127
248.4063038548753	249.33510204081634	79	127
248.4063038548753	248.75460317460318	62	127
248.76621315192745	249.06807256235828	59	127
249.07968253968255	249.30027210884353	55	127
249.33510204081634	249.68340136054422	50	127
249.33510204081634	249.68340136054422	78	127
250.02009070294784	250.32195011337868	74	127
250.34517006802722	251.4132879818594	55	127
250.34517006802722	251.0069387755102	79	127
251.03015873015872	251.14625850340136	81	127
251.14625850340136	251.40167800453514	79	127
251.4132879818594	251.70353741496598	78	127
251.4132879818594	252.2956462585034	57	127
252.02861678004535	252.34208616780046	74	127
252.35369614512473	252.85292517006803	79	127
252.35369614512473	253.25927437641724	55	127
252.87614512471654	253.0502947845805	81	127
253.06190476190477	253.41020408163266	79	127
253.43342403628117	254.09519274376416	54	127
253.43342403628117	253.75850340136054	84	127
254.09519274376416	254.37383219954648	83	127
254.09519274376416	254.37383219954648	55	127
254.38544217687075	254.838231292517	81	127
254.38544217687075	255.720589569161	48	127
254.86145124716552	255.0936507936508	83	127
255.10526077097506	255.39551020408163	84	127
255.4071201814059	255.720589569161	76	127
255.74380952380952	256.1037188208617	45	127
256.1269387755102	256.37072562358276	50	127
256.1269387755102	256.37072562358276	78	127
256.42879818594105	257.4968934240363	81	127
256.42879818594105	257.8103628117914	55	127
257.4968934240363	257.8103628117914	79	127
258.1354648526077	258.4837641723356	59	127
258.50698412698415	259.0526530612245	60	127
258.50698412698415	259.0526530612245	76	127
259.075873015873	259.2035827664399	62	127
259.075873015873	259.2035827664399	78	127
259.2035827664399	259.4938321995465	64	127
259.2035827664399	259.4938321995465	79	127
259.50544217687076	260.20204081632653	79	127
259.50544217687076	260.20204081632653	64	127
260.31814058956917	260.55034013605444	64	127
260.31814058956917	260.55034013605444	79	127
260.5619274376417	261.0727664399093	79	127
260.5619274376417	261.0727664399093	59	127
261.09600907029477	261.2469387755102	60	127
261.09600907029477	261.2469387755102	81	127
261.2585487528345	261.49072562358276	83	127
261.2585487528345	261.49072562358276	62	127
261.54879818594105	262.17573696145126	62	127
261.54879818594105	262.17573696145126	83	127
262.210566893424	262.50081632653064	59	127
262.210566893424	262.50081632653064	74	127
262.5124036281179	262.96521541950113	60	127
262.5124036281179	262.96521541950113	76	127
262.9884353741497	263.27868480725624	78	127
262.9884353741497	263.27868480725624	62	127
263.27868480725624	263.65020408163264	64	127
263.27868480725624	263.65020408163264	79	127
263.6618140589569	263.928843537415	64	127
263.6618140589569	263.928843537415	79	127
263.9868934240363	264.195873015873	64	127
263.9868934240363	264.195873015873	79	127
264.21909297052156	264.4745124716553	79	127
264.21909297052156	264.4745124716553	64	127
264.4861224489796	265.17108843537414	59	127
264.4861224489796	265.17108843537414	79	127
265.2059410430839	265.32204081632653	60	127
265.2059410430839	265.32204081632653	81	127
265.32204081632653	265.62390022675737	62	127
265.32204081632653	265.62390022675737	83	127
265.63551020408164	265.9373696145125	83	127
265.63551020408164	265.9373696145125	62	127
274.3778231292517	274.6796598639456	74	127
274.6912925170068	275.14408163265307	76	127
274.6912925170068	275.14408163265307	60	127
275.1673015873016	275.318231292517	78	127
275.1673015873016	275.318231292517	62	127
275.32984126984127	275.5504308390023	79	127
275.32984126984127	275.5504308390023	64	127
275.56204081632654	276.2354195011338	64	127
275.56204081632654	276.2354195011338	79	127
276.2702494331066	276.5372789115646	79	127
276.2702494331066	276.5372789115646	64	127
276.5488888888889	277.15260770975055	59	127
276.5488888888889	277.15260770975055	79	127
277.18743764172336	277.29192743764173	81	127
277.18743764172336	277.29192743764173	60	127
277.303537414966	277.51251700680274	83	127
277.303537414966	277.51251700680274	62	127
277.5473469387755	278.1162358276644	83	127
277.5473469387755	278.1162358276644	62	127
278.13945578231295	278.5341950113379	59	127
278.13945578231295	278.5341950113379	74	127
278.54580498866216	279.01020408163265	76	127
278.54580498866216	279.01020408163265	60	127
279.0334240362812	279.17272108843537	78	127
279.0334240362812	279.17272108843537	62	127
279.17272108843537	279.5210430839002	79	127
279.17272108843537	279.5210430839002	64	127
279.5326530612245	279.92739229024943	79	127
279.5326530612245	279.92739229024943	64	127
279.9390022675737	280.3105215419501	79	127
279.9390022675737	280.3105215419501	64	127
280.33374149659863	280.658820861678	79	127
280.33374149659863	280.658820861678	64	127
280.68204081632655	281.1348299319728	79	127
280.68204081632655	281.1348299319728	59	127
281.1928798185941	281.30897959183676	81	127
281.1928798185941	281.30897959183676	60	127
281.30897959183676	281.5643990929705	83	127
281.30897959183676	281.5643990929705	62	127
281.5760090702948	281.90108843537416	83	127
281.5760090702948	281.90108843537416	62	127
288.8322448979592	289.13410430839	79	127
288.8322448979592	289.13410430839	61	127
289.1457142857143	289.47079365079367	62	127
289.1457142857143	289.47079365079367	78	127
289.48240362811794	289.7726530612245	76	127
289.48240362811794	289.7726530612245	64	127
289.7842630385488	290.07451247165534	74	127
289.7842630385488	290.07451247165534	66	127
290.0861224489796	290.457641723356	67	127
290.0861224489796	290.457641723356	73	127
290.4692517006803	290.7478911564626	74	127
290.7711111111111	291.0961904761905	67	127
290.7711111111111	291.0961904761905	71	127
291.119410430839	291.3632199546485	67	127
291.119410430839	291.3632199546485	71	127
291.3748299319728	291.74632653061224	71	127
291.3748299319728	291.74632653061224	67	127
291.75795918367345	292.07142857142856	67	127
291.75795918367345	292.07142857142856	71	127
292.0830385487528	292.32684807256237	71	127
292.0830385487528	292.32684807256237	67	127
292.33845804988664	292.5706349206349	72	127
292.33845804988664	292.5706349206349	66	127
292.58226757369613	292.9421768707483	72	127
292.58226757369613	292.9421768707483	66	127
292.9537868480726	293.52267573696145	72	127
292.9537868480726	293.52267573696145	66	127
293.54589569161	293.7548752834467	66	127
293.54589569161	293.7548752834467	60	127
293.77809523809526	294.0799546485261	66	127
293.77809523809526	294.0799546485261	60	127
294.09156462585037	294.3585941043084	66	127
294.09156462585037	294.3585941043084	60	127
294.3934240362812	294.7301133786848	67	127
294.3934240362812	294.92748299319726	59	127
294.96231292517007	295.3338095238095	67	127
295.34544217687073	295.9956009070295	74	127
296.018820861678	296.15814058956914	76	127
296.1697505668934	296.4832199546485	74	127
296.1697505668934	296.4832199546485	47	127
296.50643990929706	297.121768707483	74	127
296.50643990929706	296.901179138322	52	127
296.9824489795918	297.121768707483	54	127
297.121768707483	297.45845804988664	72	127
297.121768707483	297.45845804988664	52	127
297.4700453514739	298.1666666666667	72	127
297.4700453514739	298.1666666666667	50	127
298.1666666666667	298.4685260770975	71	127
298.1666666666667	298.4685260770975	43	127
298.4801360544218	298.7587755102041	68	127
298.4801360544218	298.9793650793651	48	127
298.77038548752836	298.99097505668936	69	127
299.0258049886621	299.3857142857143	72	127
299.0258049886621	299.3857142857143	60	127
299.49020408163267	300.00104308390024	71	127
299.49020408163267	300.1984126984127	62	127
300.1984126984127	300.3841723356009	74	127
300.1984126984127	300.5815419501134	66	127
300.3841723356009	300.59315192743765	72	127
300.59315192743765	300.96467120181404	71	127
300.59315192743765	301.25489795918367	67	127
301.3361904761905	301.6496598639456	67	127
301.66124716553287	302.1604988662132	74	127
302.1836961451247	302.31142857142856	76	127
302.3346485260771	302.62489795918367	74	127
302.3346485260771	302.62489795918367	47	127
302.63650793650794	303.1589569160998	52	127
302.63650793650794	303.29825396825396	74	127
303.1821768707483	303.29825396825396	54	127
303.29825396825396	303.71621315192743	72	127
303.29825396825396	303.71621315192743	52	127
303.72784580498865	304.4128344671202	72	127
303.72784580498865	304.4128344671202	50	127
304.4128344671202	304.76113378684806	71	127
304.4128344671202	304.76113378684806	44	127
304.7843537414966	305.0049433106576	69	127
304.7843537414966	305.0049433106576	45	127
305.3532199546485	305.77120181405894	72	127
305.3532199546485	305.80603174603175	42	127
305.80603174603175	306.06142857142856	43	127
305.80603174603175	306.1311111111111	66	127
306.1311111111111	306.3865306122449	67	127
306.4097505668934	306.75804988662134	46	127
306.75804988662134	307.0599092970522	67	127
306.75804988662134	307.0599092970522	45	127
307.3965759637188	307.5126984126984	72	127
307.3965759637188	307.72167800453514	54	127
307.5126984126984	307.71006802721087	69	127
307.72167800453514	308.0467573696145	55	127
307.72167800453514	308.0583673469388	66	127
308.0583673469388	308.44149659863945	67	127
315.0359637188209	315.29138321995464	67	127
315.0359637188209	315.29138321995464	59	127
315.3146031746032	315.67448979591836	72	127
315.3146031746032	315.67448979591836	57	127
315.7209523809524	315.86027210884356	59	127
315.7209523809524	315.86027210884356	74	127
315.86027210884356	316.1621315192744	72	127
315.86027210884356	316.1621315192744	57	127
316.17374149659867	316.58009070294787	71	127
316.17374149659867	316.58009070294787	55	127
316.83551020408163	317.18380952380954	79	127
316.83551020408163	317.18380952380954	59	127
317.1954195011338	317.2650793650794	78	127
317.1954195011338	317.2650793650794	60	127
317.2650793650794	317.32312925170066	62	127
317.2650793650794	317.32312925170066	79	127
317.32312925170066	317.4159863945578	60	127
317.32312925170066	317.4159863945578	78	127
317.4159863945578	317.54371882086167	79	127
317.4159863945578	317.54371882086167	62	127
317.54371882086167	317.601768707483	78	127
317.54371882086167	317.601768707483	60	127
317.601768707483	317.63659863945577	62	127
317.601768707483	317.63659863945577	79	127
317.72947845804987	317.8571882086168	76	127
317.72947845804987	317.8571882086168	62	127
317.86879818594105	318.14743764172334	78	127
317.86879818594105	318.14743764172334	60	127
318.1590476190476	318.53054421768707	79	127
318.1590476190476	318.53054421768707	59	127
318.8556462585034	319.0762358276644	59	127
318.8556462585034	319.0762358276644	67	127
319.12267573696147	319.5290249433107	72	127
319.12267573696147	319.5290249433107	57	127
319.5522222222222	319.7380045351474	74	127
319.5522222222222	319.7380045351474	59	127
319.7496145124717	320.0166439909297	72	127
319.7496145124717	320.0166439909297	57	127
320.028253968254	320.3068934240363	71	127
320.028253968254	320.3068934240363	55	127
320.6551927437642	320.9686621315193	79	127
320.6551927437642	320.9686621315193	59	127
320.98027210884356	321.0499319727891	60	127
320.98027210884356	321.0499319727891	78	127
321.0499319727891	321.1892290249433	62	127
321.0499319727891	321.1892290249433	79	127
321.1892290249433	321.25891156462586	78	127
321.1892290249433	321.25891156462586	60	127
321.25891156462586	321.31696145124715	79	127
321.25891156462586	321.31696145124715	62	127
321.31696145124715	321.38662131519277	78	127
321.31696145124715	321.38662131519277	60	127
321.38662131519277	321.44467120181406	62	127
321.38662131519277	321.44467120181406	79	127
321.4678911564626	321.58399092970524	76	127
321.4678911564626	321.58399092970524	62	127
321.58399092970524	321.86263038548753	78	127
321.58399092970524	321.86263038548753	60	127
321.8742403628118	322.22253968253966	79	127
321.8742403628118	322.22253968253966	59	127
322.52437641723355	322.86108843537414	72	127
322.52437641723355	322.86108843537414	66	127
322.86108843537414	323.1397052154195	71	127
322.86108843537414	323.1397052154195	67	127
323.5460544217687	323.9524036281179	66	127
323.5460544217687	323.9524036281179	60	127
323.9524036281179	324.30072562358276	67	127
323.9524036281179	324.30072562358276	59	127
