# onset,offset,note,velocity
0.06888888888888889	0.9628571428571429	74	127
0.9744671201814059	1.4388662131519274	79	127
0.9744671201814059	1.5433560090702947	67	127
0.9744671201814059	1.5433560090702947	71	127
1.4620861678004535	1.5665759637188208	81	127
1.5781859410430839	1.8336054421768708	71	127
1.5781859410430839	1.8336054421768708	79	127
1.5781859410430839	1.8336054421768708	67	127
1.8452154195011339	2.170294784580499	69	127
1.8452154195011339	2.170294784580499	78	127
1.8452154195011339	2.170294784580499	72	127
2.51859410430839	2.8901133786848074	74	127
2.9017233560090703	3.505442176870748	71	127
2.9017233560090703	3.505442176870748	67	127
2.9017233560090703	3.2964625850340137	79	127
3.412562358276644	3.5402721088435376	81	127
3.5518820861678004	3.8189115646258505	71	127
3.5518820861678004	3.8189115646258505	79	127
3.5518820861678004	3.8189115646258505	67	127
3.8421315192743766	4.074308390022676	84	127
3.8421315192743766	4.074308390022676	66	127
3.8421315192743766	4.074308390022676	69	127
4.4458503401360545	4.840589569160998	67	127
4.4458503401360545	4.840589569160998	83	127
4.852199546485261	5.65328798185941	64	127
4.852199546485261	5.65328798185941	60	127
4.852199546485261	5.2817687074829935	81	127
5.304988662131519	5.421065759637188	83	127
5.421065759637188	5.699727891156463	81	127
5.711337868480726	6.558866213151927	61	127
5.711337868480726	6.558866213151927	69	127
5.711337868480726	5.989977324263038	76	127
6.373106575963718	6.663356009070295	81	127
6.686575963718821	7.661814058956916	71	127
6.686575963718821	7.952063492063492	62	127
6.686575963718821	7.661814058956916	79	127
7.661814058956916	7.952063492063492	69	127
7.661814058956916	7.952063492063492	78	127
8.416462585034013	8.695102040816327	74	127
8.706712018140589	9.322040816326531	67	127
8.706712018140589	9.194331065759638	79	127
8.706712018140589	9.322040816326531	71	127
9.229160997732427	9.345238095238095	81	127
9.35687074829932	9.577460317460318	67	127
9.35687074829932	9.577460317460318	79	127
9.35687074829932	9.577460317460318	71	127
9.600657596371882	9.832879818594105	78	127
9.600657596371882	9.832879818594105	69	127
9.600657596371882	9.832879818594105	72	127
10.262448979591836	10.622358276643991	74	127
10.633968253968254	11.156417233560092	67	127
10.633968253968254	11.051927437641723	79	127
10.633968253968254	11.156417233560092	71	127
11.07514739229025	11.179637188208616	81	127
11.19124716553288	11.539546485260772	79	127
11.19124716553288	11.539546485260772	67	127
11.19124716553288	11.539546485260772	71	127
11.551156462585034	11.783356009070294	84	127
11.551156462585034	11.783356009070294	66	127
11.551156462585034	11.783356009070294	69	127
12.178095238095239	12.630884353741497	67	127
12.178095238095239	12.630884353741497	83	127
12.642494331065759	13.130113378684808	64	127
12.642494331065759	13.025623582766439	81	127
12.642494331065759	13.130113378684808	60	127
13.048843537414966	13.164943310657597	83	127
13.164943310657597	13.55968253968254	84	127
13.571292517006803	13.861541950113379	76	127
14.140181405895692	14.465260770975057	78	127
14.140181405895692	14.465260770975057	72	127
14.140181405895692	14.465260770975057	62	127
14.488480725623583	15.649478458049886	67	127
14.488480725623583	15.417278911564626	81	127
14.488480725623583	15.417278911564626	72	127
15.417278911564626	15.649478458049886	79	127
15.417278911564626	15.649478458049886	71	127
16.671156462585035	17.019455782312924	43	127
16.671156462585035	17.019455782312924	55	127
17.031043083900226	17.48385487528345	59	127
17.031043083900226	17.48385487528345	67	127
17.031043083900226	17.48385487528345	62	127
17.507074829931973	17.716054421768707	62	127
17.507074829931973	17.716054421768707	67	127
17.507074829931973	17.716054421768707	59	127
17.739274376417235	17.983061224489795	57	127
17.739274376417235	17.983061224489795	45	127
17.994693877551022	18.41265306122449	62	127
17.994693877551022	18.41265306122449	66	127
17.994693877551022	18.41265306122449	60	127
18.42426303854875	18.72612244897959	62	127
18.42426303854875	18.72612244897959	60	127
18.42426303854875	18.72612244897959	66	127
18.737732426303854	19.02798185941043	55	127
18.737732426303854	19.02798185941043	43	127
19.039591836734694	19.36467120181406	59	127
19.039591836734694	19.36467120181406	67	127
19.039591836734694	19.36467120181406	62	127
19.387891156462587	19.724580498866214	67	127
19.387891156462587	19.724580498866214	59	127
19.387891156462587	19.724580498866214	62	127
19.736190476190476	20.293469387755103	54	127
19.736190476190476	20.293469387755103	42	127
20.026439909297054	20.305079365079365	69	127
20.026439909297054	20.305079365079365	72	127
20.026439909297054	20.305079365079365	62	127
20.36312925170068	20.641768707482992	62	127
20.36312925170068	20.641768707482992	43	127
20.36312925170068	20.641768707482992	71	127
20.36312925170068	20.641768707482992	67	127
20.36312925170068	20.641768707482992	55	127
20.653356009070293	20.873968253968254	48	127
20.653356009070293	20.873968253968254	36	127
20.885578231292516	21.373197278911565	64	127
20.885578231292516	21.373197278911565	69	127
21.384807256235828	21.686666666666667	64	127
21.384807256235828	21.686666666666667	69	127
21.69827664399093	22.034965986394557	49	127
21.69827664399093	22.034965986394557	37	127
22.058185941043085	22.336825396825397	64	127
22.058185941043085	22.336825396825397	69	127
22.058185941043085	22.336825396825397	57	127
22.34843537414966	22.627074829931974	69	127
22.34843537414966	22.627074829931974	57	127
22.34843537414966	22.627074829931974	64	127
22.6502947845805	23.91578231292517	50	127
22.6502947845805	23.91578231292517	38	127
22.975374149659864	23.253990929705214	62	127
22.975374149659864	23.253990929705214	67	127
22.975374149659864	23.253990929705214	59	127
23.26562358276644	23.660362811791384	67	127
23.26562358276644	23.660362811791384	62	127
23.26562358276644	23.660362811791384	59	127
23.671972789115646	23.91578231292517	66	127
23.671972789115646	23.91578231292517	62	127
23.671972789115646	23.91578231292517	57	127
24.623990929705215	25.007120181405895	55	127
24.623990929705215	25.007120181405895	43	127
25.030340136054424	25.33219954648526	62	127
25.030340136054424	25.33219954648526	59	127
25.030340136054424	25.33219954648526	67	127
25.355419501133788	25.726938775510202	59	127
25.355419501133788	25.726938775510202	67	127
25.355419501133788	25.726938775510202	62	127
25.796598639455784	26.005578231292517	57	127
25.796598639455784	26.005578231292517	45	127
26.01718820861678	26.446757369614513	62	127
26.01718820861678	26.446757369614513	66	127
26.01718820861678	26.446757369614513	60	127
26.458367346938775	26.737006802721087	62	127
26.458367346938775	26.737006802721087	66	127
26.458367346938775	26.737006802721087	60	127
26.748616780045353	27.05047619047619	55	127
26.748616780045353	27.05047619047619	43	127
27.062086167800455	27.375555555555554	67	127
27.062086167800455	27.375555555555554	62	127
27.062086167800455	27.375555555555554	59	127
27.38716553287982	27.7702947845805	59	127
27.38716553287982	27.7702947845805	67	127
27.38716553287982	27.7702947845805	62	127
27.781904761904762	28.304353741496598	54	127
27.781904761904762	28.304353741496598	42	127
28.03732426303855	28.31596371882086	62	127
28.03732426303855	28.31596371882086	72	127
28.03732426303855	28.31596371882086	69	127
28.33918367346939	28.594603174603176	55	127
28.33918367346939	28.594603174603176	43	127
28.33918367346939	28.594603174603176	71	127
28.33918367346939	28.594603174603176	67	127
28.33918367346939	28.594603174603176	62	127
28.606213151927438	29.08222222222222	36	127
28.606213151927438	29.08222222222222	48	127
29.093832199546487	29.48857142857143	60	127
29.093832199546487	29.48857142857143	69	127
29.093832199546487	29.48857142857143	64	127
29.50018140589569	29.76721088435374	69	127
29.50018140589569	29.76721088435374	60	127
29.50018140589569	29.76721088435374	64	127
29.778820861678003	30.405759637188208	45	127
30.103900226757368	30.428979591836736	57	127
30.103900226757368	30.428979591836736	64	127
30.103900226757368	30.428979591836736	60	127
30.440589569161	30.893378684807256	57	127
30.440589569161	30.893378684807256	50	127
30.440589569161	30.893378684807256	66	127
30.440589569161	30.893378684807256	60	127
30.91659863945578	32.3562358276644	55	127
30.91659863945578	32.112426303854875	60	127
30.91659863945578	32.3562358276644	62	127
30.91659863945578	32.3562358276644	43	127
30.91659863945578	32.112426303854875	69	127
30.91659863945578	32.112426303854875	66	127
32.112426303854875	32.3562358276644	67	127
32.112426303854875	32.3562358276644	59	127
33.08766439909297	33.55204081632653	74	127
33.56367346938776	34.34154195011338	74	127
33.56367346938776	34.34154195011338	67	127
33.56367346938776	34.132562358276644	83	127
34.21383219954649	34.364761904761906	85	127
34.37637188208617	34.64340136054422	86	127
34.37637188208617	34.64340136054422	67	127
34.37637188208617	34.64340136054422	74	127
34.66662131519274	34.93365079365079	81	127
34.66662131519274	34.93365079365079	74	127
34.66662131519274	34.93365079365079	66	127
35.29356009070295	35.665079365079364	78	127
35.67668934240363	36.326848072562356	71	127
35.67668934240363	36.164308390022676	79	127
35.67668934240363	36.326848072562356	74	127
36.23396825396826	36.37328798185941	81	127
36.37328798185941	36.6287074829932	83	127
36.37328798185941	36.6287074829932	71	127
36.37328798185941	36.6287074829932	74	127
36.64031746031746	36.884126984126986	74	127
36.64031746031746	36.884126984126986	69	127
36.64031746031746	36.884126984126986	78	127
37.313696145124716	37.70843537414966	78	127
37.731632653061226	38.300544217687076	71	127
37.731632653061226	38.300544217687076	67	127
37.731632653061226	38.17283446712018	76	127
38.20766439909297	38.33537414965986	78	127
38.33537414965986	38.614013605442175	75	127
38.33537414965986	38.614013605442175	69	127
38.33537414965986	38.614013605442175	72	127
38.637233560090706	38.950702947845805	71	127
38.637233560090706	38.950702947845805	67	127
38.637233560090706	38.950702947845805	76	127
39.333832199546485	39.716961451247165	83	127
39.72857142857143	40.018798185941044	66	127
39.72857142857143	40.819909297052156	57	127
39.72857142857143	40.83151927437642	74	127
40.07687074829932	40.401927437641724	67	127
40.44839002267574	40.819909297052156	68	127
40.83151927437642	41.086938775510205	69	127
40.83151927437642	41.086938775510205	73	127
41.957687074829934	42.27115646258503	45	127
42.282766439909295	42.503356009070295	61	127
42.282766439909295	42.503356009070295	64	127
42.282766439909295	42.503356009070295	57	127
42.51496598639456	43.002585034013606	64	127
42.51496598639456	43.002585034013606	61	127
42.51496598639456	43.002585034013606	57	127
43.02580498866213	43.33927437641724	50	127
43.36249433106576	43.68757369614512	62	127
43.36249433106576	43.68757369614512	66	127
43.36249433106576	43.68757369614512	57	127
43.69916099773243	43.93138321995465	66	127
43.69916099773243	43.93138321995465	62	127
43.69916099773243	43.93138321995465	57	127
43.94299319727891	44.39578231292517	45	127
44.43061224489796	44.69764172335601	64	127
44.43061224489796	44.69764172335601	61	127
44.43061224489796	44.69764172335601	57	127
44.70922902494331	44.9646485260771	61	127
44.70922902494331	44.9646485260771	64	127
44.70922902494331	44.9646485260771	57	127
45.01111111111111	45.27814058956916	50	127
45.289750566893424	45.63804988662132	62	127
45.289750566893424	45.63804988662132	66	127
45.289750566893424	45.63804988662132	57	127
45.672879818594105	45.986326530612246	66	127
45.672879818594105	45.986326530612246	57	127
45.672879818594105	45.986326530612246	62	127
46.009569160997735	46.56684807256236	43	127
46.57845804988662	46.822267573696145	59	127
46.57845804988662	46.822267573696145	64	127
46.57845804988662	46.822267573696145	55	127
46.83387755102041	47.06607709750567	64	127
46.83387755102041	47.06607709750567	59	127
46.83387755102041	47.06607709750567	55	127
47.07768707482993	47.321496598639456	45	127
47.34471655328798	47.704625850340136	55	127
47.34471655328798	47.704625850340136	64	127
47.34471655328798	47.704625850340136	57	127
47.7162358276644	48.11097505668934	64	127
47.7162358276644	48.11097505668934	55	127
47.7162358276644	48.11097505668934	57	127
48.1574149659864	49.53900226757369	50	127
48.1574149659864	49.53900226757369	38	127
48.1574149659864	49.23714285714286	61	127
48.1574149659864	49.23714285714286	57	127
48.1574149659864	49.23714285714286	55	127
49.30680272108844	49.53900226757369	54	127
49.30680272108844	49.53900226757369	62	127
49.30680272108844	49.53900226757369	57	127
50.46780045351474	50.72321995464853	74	127
50.73482993197279	51.44303854875283	86	127
51.46625850340136	51.84938775510204	83	127
51.860997732426306	52.13963718820862	80	127
51.860997732426306	52.13963718820862	71	127
51.860997732426306	52.13963718820862	62	127
52.16285714285714	52.38344671201814	72	127
52.16285714285714	52.38344671201814	62	127
52.16285714285714	52.38344671201814	81	127
52.627256235827666	52.998775510204084	76	127
53.010385487528346	53.544444444444444	84	127
53.590884353741494	53.86952380952381	81	127
53.86952380952381	54.1249433106576	78	127
53.86952380952381	54.1249433106576	62	127
53.86952380952381	54.1249433106576	69	127
54.13655328798186	54.473242630385485	71	127
54.13655328798186	54.473242630385485	62	127
54.13655328798186	54.473242630385485	79	127
54.972471655328796	55.27433106575964	79	127
55.36721088435374	55.82	62	127
55.36721088435374	55.70390022675737	83	127
55.36721088435374	55.82	67	127
55.727120181405894	55.85482993197279	79	127
55.85482993197279	56.29600907029479	76	127
56.30761904761905	56.86489795918367	64	127
56.30761904761905	56.86489795918367	62	127
56.30761904761905	56.725578231292516	79	127
56.74879818594104	56.93455782312925	76	127
56.93455782312925	57.317687074829934	73	127
57.329297052154196	58.246485260770974	67	127
57.329297052154196	58.246485260770974	76	127
57.329297052154196	58.467074829931974	50	127
57.329297052154196	58.467074829931974	62	127
58.246485260770974	58.467074829931974	74	127
58.246485260770974	58.467074829931974	66	127
59.233333333333334	59.62807256235828	74	127
59.6512925170068	60.24340136054422	71	127
59.6512925170068	60.24340136054422	67	127
59.6512925170068	60.05764172335601	79	127
60.12730158730159	60.266621315192744	81	127
60.278231292517006	60.55687074829932	79	127
60.278231292517006	60.55687074829932	67	127
60.278231292517006	60.55687074829932	71	127
60.56848072562358	60.82390022675737	72	127
60.56848072562358	60.82390022675737	69	127
60.56848072562358	60.82390022675737	78	127
61.23024943310658	61.54371882086168	74	127
61.55532879818594	62.15904761904762	71	127
61.55532879818594	62.15904761904762	67	127
61.55532879818594	61.961678004535145	79	127
62.077777777777776	62.19387755102041	81	127
62.19387755102041	62.48412698412698	79	127
62.19387755102041	62.48412698412698	67	127
62.19387755102041	62.48412698412698	71	127
62.49573696145125	62.97174603174603	84	127
62.49573696145125	62.97174603174603	66	127
62.49573696145125	62.97174603174603	69	127
63.285215419501135	63.58707482993197	67	127
63.285215419501135	63.58707482993197	83	127
63.610294784580496	64.3649433106576	60	127
63.610294784580496	63.94698412698413	81	127
63.610294784580496	64.3649433106576	64	127
63.97020408163265	64.08630385487528	83	127
64.08630385487528	64.42299319727891	81	127
64.43458049886621	65.38662131519274	69	127
64.43458049886621	65.38662131519274	61	127
64.43458049886621	64.73646258503402	76	127
65.04993197278911	65.43306122448979	81	127
65.45625850340136	66.77981859410431	62	127
65.45625850340136	66.5592290249433	79	127
65.45625850340136	66.5592290249433	71	127
66.5592290249433	66.77981859410431	69	127
66.5592290249433	66.77981859410431	78	127
67.5344671201814	67.87115646258503	43	127
67.5344671201814	67.87115646258503	55	127
67.8827664399093	68.18462585034014	59	127
67.8827664399093	68.18462585034014	67	127
67.8827664399093	68.18462585034014	62	127
68.1962358276644	68.55614512471655	59	127
68.1962358276644	68.55614512471655	67	127
68.1962358276644	68.55614512471655	62	127
68.56775510204082	68.8231746031746	57	127
68.56775510204082	68.8231746031746	45	127
68.84639455782313	69.26433106575963	62	127
68.84639455782313	69.26433106575963	66	127
68.84639455782313	69.26433106575963	60	127
69.28757369614513	69.60104308390022	62	127
69.28757369614513	69.60104308390022	66	127
69.28757369614513	69.60104308390022	60	127
69.61265306122449	69.8912925170068	55	127
69.61265306122449	69.8912925170068	43	127
69.9028798185941	70.13507936507936	62	127
69.9028798185941	70.13507936507936	59	127
69.9028798185941	70.13507936507936	67	127
70.14671201814059	70.51820861678004	59	127
70.14671201814059	70.51820861678004	67	127
70.14671201814059	70.51820861678004	62	127
70.52984126984127	71.18	54	127
70.52984126984127	71.18	42	127
70.92458049886622	71.20321995464853	69	127
70.92458049886622	71.20321995464853	72	127
70.92458049886622	71.20321995464853	62	127
71.22643990929706	71.55151927437642	62	127
71.22643990929706	71.55151927437642	43	127
71.22643990929706	71.55151927437642	71	127
71.22643990929706	71.55151927437642	67	127
71.22643990929706	71.55151927437642	55	127
71.57473922902494	71.98108843537415	36	127
71.57473922902494	71.98108843537415	48	127
72.01591836734694	72.27133786848073	60	127
72.01591836734694	72.27133786848073	69	127
72.01591836734694	72.27133786848073	64	127
72.28294784580498	72.51514739229025	64	127
72.28294784580498	72.51514739229025	69	127
72.28294784580498	72.51514739229025	60	127
72.52675736961451	72.94469387755102	45	127
72.74734693877551	72.96793650793651	57	127
72.74734693877551	72.96793650793651	64	127
72.74734693877551	72.96793650793651	60	127
72.97954648526077	73.21174603174603	60	127
72.97954648526077	73.21174603174603	50	127
72.97954648526077	73.21174603174603	66	127
72.97954648526077	73.21174603174603	57	127
73.2233560090703	74.11732426303855	55	127
73.2233560090703	74.11732426303855	43	127
73.2233560090703	73.93156462585034	69	127
73.2233560090703	73.93156462585034	66	127
73.2233560090703	73.93156462585034	60	127
73.2233560090703	74.11732426303855	62	127
73.93156462585034	74.11732426303855	67	127
73.93156462585034	74.11732426303855	59	127
74.36113378684807	74.55850340136054	74	127
74.55850340136054	74.84875283446712	43	127
74.55850340136054	74.7907029478458	82	127
74.7907029478458	74.87197278911565	81	127
74.87197278911565	74.97646258503401	79	127
74.97646258503401	75.02290249433106	38	127
74.97646258503401	75.01129251700681	78	127
75.01129251700681	75.03451247165533	79	127
75.04612244897959	75.17383219954648	81	127
75.18544217687075	75.39442176870749	43	127
75.18544217687075	75.39442176870749	79	127
76.04458049886621	76.24192743764172	74	127
76.26517006802722	76.57863945578231	86	127
76.26517006802722	76.68312925170068	38	127
76.60183673469388	76.7063492063492	81	127
76.7063492063492	76.92693877551021	78	127
76.93854875283446	77.32167800453514	43	127
76.93854875283446	77.25201814058957	79	127
77.26360544217687	77.35650793650794	81	127
77.35650793650794	77.47260770975056	82	127
77.48421768707483	77.86734693877551	38	127
77.48421768707483	77.86734693877551	74	127
78.55233560090703	78.77290249433106	74	127
78.78453514739229	79.23732426303854	55	127
78.78453514739229	79.23732426303854	43	127
78.78453514739229	79.05156462585035	82	127
79.07478458049887	79.12122448979592	84	127
79.12122448979592	79.28374149659864	82	127
79.29537414965986	79.79458049886621	54	127
79.29537414965986	79.79458049886621	42	127
79.29537414965986	79.65528344671202	82	127
79.69011337868481	79.8178231292517	82	127
79.84104308390023	79.9222902494331	81	127
79.84104308390023	80.15448979591837	41	127
79.84104308390023	80.15448979591837	53	127
79.93392290249433	80.0384126984127	84	127
80.0384126984127	80.18934240362812	87	127
80.18934240362812	80.40990929705215	55	127
80.18934240362812	80.40990929705215	43	127
80.18934240362812	80.40990929705215	86	127
80.64213151927437	80.73501133786849	50	127
80.64213151927437	80.73501133786849	82	127
80.73501133786849	81.06009070294785	51	127
80.73501133786849	80.95560090702948	84	127
80.978820861678	81.08331065759637	86	127
81.09492063492064	81.28068027210884	87	127
81.29229024943311	81.58253968253969	77	127
81.29229024943311	81.67541950113379	53	127
81.59414965986394	81.71024943310658	79	127
81.71024943310658	81.89600907029478	81	127
81.90761904761905	82.68548752834467	58	127
81.90761904761905	82.68548752834467	46	127
81.90761904761905	82.54616780045352	84	127
82.54616780045352	82.68548752834467	82	127
82.83639455782313	82.85963718820862	74	127
82.87124716553288	83.26598639455783	43	127
82.87124716553288	83.16149659863946	82	127
83.18471655328798	83.30081632653061	81	127
83.30081632653061	83.49818594104309	79	127
83.50979591836735	83.78843537414966	78	127
83.50979591836735	83.82326530612245	38	127
83.80004535147393	83.84648526077098	79	127
83.84648526077098	84.03224489795919	81	127
84.05546485260771	84.47340136054422	43	127
84.05546485260771	84.47340136054422	79	127
85.1584126984127	85.35578231292517	74	127
85.36736961451247	85.66925170068028	86	127
85.36736961451247	85.77374149659865	38	127
85.6924716553288	85.79696145124717	81	127
85.80857142857143	85.88984126984127	78	127
85.90145124716554	86.319410430839	43	127
85.90145124716554	86.2265306122449	79	127
86.23814058956916	86.3542403628118	81	127
86.3542403628118	86.57482993197279	82	127
86.58643990929706	87.01600907029479	38	127
86.58643990929706	87.01600907029479	74	127
87.72421768707483	87.7358276643991	74	127
87.7358276643991	88.2698866213152	55	127
87.7358276643991	88.2698866213152	43	127
87.7358276643991	87.96802721088436	82	127
87.99124716553288	88.1073469387755	84	127
88.1073469387755	88.31632653061224	82	127
88.32793650793651	88.94326530612246	42	127
88.32793650793651	88.73428571428572	82	127
88.32793650793651	88.94326530612246	54	127
88.7691156462585	88.9897052154195	82	127
89.01292517006803	89.68628117913832	41	127
89.01292517006803	89.32639455782314	81	127
89.01292517006803	89.68628117913832	53	127
89.34961451247166	89.46571428571428	84	127
89.46571428571428	89.72113378684807	87	127
89.73274376417234	89.95333333333333	55	127
89.73274376417234	89.95333333333333	43	127
89.73274376417234	89.95333333333333	86	127
90.1971201814059	90.44095238095238	50	127
90.1971201814059	90.44095238095238	82	127
90.45253968253968	90.89374149659864	51	127
90.45253968253968	90.78925170068027	84	127
90.81244897959184	90.91696145124716	86	127
90.92857142857143	91.13755102040817	87	127
91.14916099773242	91.5787074829932	53	127
91.14916099773242	91.4742403628118	77	127
91.49746031746032	91.61356009070295	79	127
91.61356009070295	91.83412698412698	81	127
91.84575963718821	92.69328798185941	58	127
91.84575963718821	92.48430839002268	84	127
91.84575963718821	92.69328798185941	46	127
92.48430839002268	92.69328798185941	82	127
93.19251700680272	93.90072562358277	46	127
93.59884353741496	93.9239455782313	65	127
93.59884353741496	93.9239455782313	62	127
93.59884353741496	93.9239455782313	58	127
93.93555555555555	94.16775510204081	58	127
93.93555555555555	94.16775510204081	65	127
93.93555555555555	94.16775510204081	62	127
94.20258503401361	94.8643537414966	46	127
94.65537414965986	94.88757369614513	65	127
94.65537414965986	94.88757369614513	62	127
94.65537414965986	94.88757369614513	58	127
94.8991836734694	95.10816326530612	65	127
94.8991836734694	95.10816326530612	62	127
94.8991836734694	95.10816326530612	58	127
95.13138321995464	96.60585034013606	41	127
95.45646258503402	95.76993197278911	60	127
95.45646258503402	95.76993197278911	57	127
95.78154195011338	96.09501133786848	62	127
95.78154195011338	96.09501133786848	58	127
96.10662131519274	96.3736507936508	63	127
96.10662131519274	96.3736507936508	60	127
96.38526077097505	96.60585034013606	62	127
96.38526077097505	96.60585034013606	58	127
96.60585034013606	96.8148299319728	60	127
96.60585034013606	96.8148299319728	42	127
96.60585034013606	96.8148299319728	57	127
96.82643990929705	97.19795918367348	43	127
97.01219954648526	97.20956916099773	58	127
97.01219954648526	97.20956916099773	62	127
97.01219954648526	97.20956916099773	55	127
97.23278911564626	97.44176870748299	62	127
97.23278911564626	97.44176870748299	58	127
97.23278911564626	97.44176870748299	55	127
97.46498866213152	97.85972789115647	43	127
97.68557823129251	97.88294784580499	58	127
97.68557823129251	97.88294784580499	62	127
97.68557823129251	97.88294784580499	55	127
97.89455782312925	98.10353741496598	62	127
97.89455782312925	98.10353741496598	55	127
97.89455782312925	98.10353741496598	58	127
98.11514739229025	99.02072562358276	38	127
98.32412698412699	98.48666666666666	57	127
98.32412698412699	98.48666666666666	54	127
98.49827664399093	98.6027664399093	55	127
98.49827664399093	98.6027664399093	58	127
98.61437641723356	98.77691609977325	60	127
98.61437641723356	98.77691609977325	57	127
98.80013605442177	98.89301587301587	55	127
98.80013605442177	98.89301587301587	58	127
98.9162358276644	99.1019954648526	54	127
98.9162358276644	99.1019954648526	57	127
99.1019954648526	99.1948752834467	50	127
99.1368253968254	99.18326530612245	67	127
99.1368253968254	99.18326530612245	63	127
99.1368253968254	99.18326530612245	58	127
99.18326530612245	99.1948752834467	67	127
99.18326530612245	99.1948752834467	58	127
99.18326530612245	99.1948752834467	63	127
99.1948752834467	99.20648526077098	48	127
99.20648526077098	99.24131519274377	45	127
99.20648526077098	99.24131519274377	66	127
99.20648526077098	99.24131519274377	63	127
99.20648526077098	99.24131519274377	60	127
99.24131519274377	99.41546485260771	60	127
99.24131519274377	99.41546485260771	43	127
99.24131519274377	99.41546485260771	67	127
99.24131519274377	99.41546485260771	63	127
99.43868480725624	99.85664399092971	42	127
99.57800453514739	99.74054421768707	69	127
99.57800453514739	99.74054421768707	62	127
99.57800453514739	99.74054421768707	60	127
99.75215419501134	99.86825396825397	69	127
99.75215419501134	99.86825396825397	60	127
99.75215419501134	99.86825396825397	62	127
99.86825396825397	100.12367346938775	43	127
99.9843537414966	100.1120634920635	62	127
99.9843537414966	100.1120634920635	67	127
99.9843537414966	100.1120634920635	58	127
100.12367346938775	100.21655328798185	58	127
100.12367346938775	100.21655328798185	67	127
100.12367346938775	100.21655328798185	62	127
100.12367346938775	100.21655328798185	46	127
100.22816326530612	100.63451247165533	48	127
100.46036281179138	100.6461224489796	57	127
100.46036281179138	100.6461224489796	63	127
100.46036281179138	100.6461224489796	67	127
100.66934240362812	100.86671201814059	67	127
100.66934240362812	100.86671201814059	57	127
100.66934240362812	100.86671201814059	63	127
100.88993197278911	101.19179138321995	50	127
101.06408163265306	101.21501133786848	62	127
101.06408163265306	101.21501133786848	57	127
101.06408163265306	101.21501133786848	66	127
101.22662131519274	101.3659410430839	66	127
101.22662131519274	101.3659410430839	57	127
101.22662131519274	101.3659410430839	62	127
101.3659410430839	102.0857596371882	62	127
101.3659410430839	101.94643990929706	66	127
101.3659410430839	101.94643990929706	60	127
101.3659410430839	101.94643990929706	57	127
101.3659410430839	102.0857596371882	43	127
101.94643990929706	102.0857596371882	67	127
101.94643990929706	102.0857596371882	58	127
101.94643990929706	102.0857596371882	55	127
102.49210884353741	102.80557823129251	46	127
102.66625850340137	102.80557823129251	58	127
102.66625850340137	102.80557823129251	65	127
102.66625850340137	102.80557823129251	62	127
102.80557823129251	102.97972789115646	65	127
102.80557823129251	102.97972789115646	62	127
102.80557823129251	102.97972789115646	58	127
102.99133786848073	103.29319727891156	46	127
103.17709750566894	103.31641723356009	58	127
103.17709750566894	103.31641723356009	62	127
103.17709750566894	103.31641723356009	65	127
103.32802721088436	103.5370068027211	65	127
103.32802721088436	103.5370068027211	62	127
103.32802721088436	103.5370068027211	58	127
103.56022675736962	104.31487528344671	41	127
103.80403628117914	103.96657596371882	60	127
103.80403628117914	103.96657596371882	57	127
103.97818594104308	104.18716553287982	62	127
103.97818594104308	104.18716553287982	58	127
104.19877551020409	104.31487528344671	62	127
104.19877551020409	104.31487528344671	58	127
104.31487528344671	104.43097505668935	60	127
104.31487528344671	104.43097505668935	42	127
104.31487528344671	104.43097505668935	57	127
104.4425850340136	104.73283446712018	43	127
104.55868480725624	104.74444444444444	58	127
104.55868480725624	104.74444444444444	62	127
104.55868480725624	104.74444444444444	55	127
104.74444444444444	104.89537414965986	62	127
104.74444444444444	104.89537414965986	58	127
104.74444444444444	104.89537414965986	55	127
104.91859410430838	105.24367346938776	43	127
105.09274376417234	105.26689342403628	58	127
105.09274376417234	105.26689342403628	62	127
105.09274376417234	105.26689342403628	55	127
105.27850340136054	105.5107029478458	62	127
105.27850340136054	105.5107029478458	55	127
105.27850340136054	105.5107029478458	58	127
105.52231292517007	106.56721088435374	38	127
105.74290249433106	105.94027210884354	57	127
105.74290249433106	105.94027210884354	54	127
105.9518820861678	106.16086167800454	58	127
105.9518820861678	106.16086167800454	55	127
106.16086167800454	106.34662131519275	57	127
106.16086167800454	106.34662131519275	60	127
106.358231292517	106.47433106575964	55	127
106.358231292517	106.47433106575964	58	127
106.47433106575964	106.62526077097506	54	127
106.47433106575964	106.62526077097506	57	127
106.63687074829932	107.05482993197279	50	127
106.76458049886621	106.9271201814059	67	127
106.76458049886621	106.9271201814059	63	127
106.76458049886621	106.9271201814059	58	127
106.93873015873015	107.08965986394558	67	127
106.93873015873015	107.08965986394558	58	127
106.93873015873015	107.08965986394558	63	127
107.10126984126984	107.31024943310658	48	127
107.32185941043083	107.51922902494331	63	127
107.32185941043083	107.51922902494331	45	127
107.32185941043083	107.51922902494331	66	127
107.32185941043083	107.51922902494331	60	127
107.53083900226757	107.67015873015873	67	127
107.53083900226757	107.67015873015873	63	127
107.53083900226757	107.67015873015873	60	127
107.53083900226757	107.67015873015873	43	127
107.68176870748299	108.28548752834467	42	127
107.91396825396825	108.11133786848073	69	127
107.91396825396825	108.11133786848073	62	127
107.91396825396825	108.11133786848073	60	127
108.13455782312926	108.3087074829932	69	127
108.13455782312926	108.3087074829932	60	127
108.13455782312926	108.3087074829932	62	127
108.32031746031745	108.78471655328798	43	127
108.55251700680272	108.77310657596372	67	127
108.55251700680272	108.77310657596372	62	127
108.55251700680272	108.77310657596372	58	127
108.78471655328798	108.92403628117914	46	127
108.78471655328798	108.92403628117914	62	127
108.78471655328798	108.92403628117914	67	127
108.78471655328798	108.92403628117914	58	127
108.9356462585034	109.02852607709751	48	127
108.98208616780046	109.02852607709751	57	127
108.98208616780046	109.02852607709751	67	127
108.98208616780046	109.02852607709751	63	127
109.02852607709751	109.17945578231293	67	127
109.02852607709751	109.17945578231293	57	127
109.02852607709751	109.17945578231293	63	127
109.20267573696145	109.62063492063493	50	127
109.42326530612245	109.63224489795918	62	127
109.42326530612245	109.63224489795918	57	127
109.42326530612245	109.63224489795918	66	127
109.64385487528345	109.85283446712018	66	127
109.64385487528345	109.85283446712018	57	127
109.64385487528345	109.85283446712018	62	127
109.86444444444444	110.46816326530612	57	127
109.86444444444444	110.46816326530612	66	127
109.86444444444444	110.46816326530612	60	127
109.86444444444444	110.65392290249433	62	127
109.86444444444444	110.65392290249433	43	127
110.46816326530612	110.65392290249433	67	127
110.46816326530612	110.65392290249433	58	127
110.46816326530612	110.65392290249433	55	127
110.88612244897959	110.90934240362812	74	127
110.93256235827664	111.2924716553288	71	127
110.93256235827664	111.2924716553288	67	127
110.93256235827664	111.18798185941043	79	127
111.21120181405895	111.32730158730159	81	127
111.32730158730159	111.53628117913833	79	127
111.32730158730159	111.53628117913833	71	127
111.32730158730159	111.53628117913833	67	127
111.54789115646258	111.80331065759637	69	127
111.54789115646258	111.80331065759637	78	127
111.54789115646258	111.80331065759637	72	127
112.08195011337868	112.34897959183674	74	127
112.360589569161	112.80176870748299	79	127
112.360589569161	112.96430839002268	67	127
112.360589569161	112.96430839002268	71	127
112.83659863945579	112.99913832199546	81	127
113.01074829931973	113.30099773242631	67	127
113.01074829931973	113.30099773242631	71	127
113.01074829931973	113.30099773242631	79	127
113.32421768707484	113.63768707482993	69	127
113.32421768707484	113.63768707482993	84	127
113.32421768707484	113.63768707482993	66	127
113.92793650793651	114.39233560090703	67	127
113.92793650793651	114.39233560090703	83	127
114.40394557823129	115.27469387755102	64	127
114.40394557823129	115.27469387755102	60	127
114.40394557823129	114.78707482993197	81	127
114.81029478458049	114.94961451247165	83	127
115.05410430839002	115.33274376417233	81	127
115.37918367346938	116.26154195011338	69	127
115.37918367346938	116.26154195011338	61	127
115.37918367346938	115.64621315192744	76	127
116.07578231292517	116.33120181405896	81	127
116.34281179138323	117.480589569161	62	127
116.34281179138323	117.26	79	127
116.34281179138323	117.26	71	127
117.26	117.480589569161	69	127
117.26	117.480589569161	78	127
117.99142857142857	118.28167800453515	74	127
118.30489795918368	118.85056689342403	71	127
118.30489795918368	118.85056689342403	67	127
118.30489795918368	118.72285714285714	79	127
118.74607709750566	118.88539682539682	81	127
118.88539682539682	119.25691609977325	79	127
118.88539682539682	119.25691609977325	67	127
118.88539682539682	119.25691609977325	71	127
119.2685260770975	119.51233560090704	78	127
119.2685260770975	119.51233560090704	72	127
119.2685260770975	119.51233560090704	69	127
119.87224489795918	120.2437641723356	74	127
120.25537414965986	120.7778231292517	67	127
120.25537414965986	120.67333333333333	79	127
120.25537414965986	120.7778231292517	71	127
120.69655328798186	120.78943310657597	81	127
120.80104308390023	121.12612244897959	79	127
120.80104308390023	121.12612244897959	67	127
120.80104308390023	121.12612244897959	71	127
121.14934240362811	121.49764172335601	66	127
121.14934240362811	121.49764172335601	84	127
121.14934240362811	121.49764172335601	69	127
121.78789115646258	122.14780045351473	67	127
121.78789115646258	122.14780045351473	83	127
122.159410430839	122.53092970521541	81	127
122.159410430839	122.63541950113378	60	127
122.159410430839	122.63541950113378	64	127
122.55414965986395	122.6586394557823	83	127
122.7282993197279	122.99532879818594	84	127
123.0069387755102	123.21591836734694	76	127
123.71514739229025	124.06344671201813	78	127
123.71514739229025	124.06344671201813	62	127
123.71514739229025	124.06344671201813	72	127
124.0750566893424	124.98063492063493	72	127
124.0750566893424	124.98063492063493	81	127
124.0750566893424	125.21283446712017	67	127
124.98063492063493	125.21283446712017	79	127
124.98063492063493	125.21283446712017	71	127
126.04875283446712	127.12848072562359	55	127
126.04875283446712	126.2112925170068	59	127
126.24612244897959	126.38544217687075	62	127
126.39705215419501	126.51315192743765	67	127
126.51315192743765	126.71052154195011	62	127
126.71052154195011	126.82662131519274	59	127
126.82662131519274	127.17492063492064	62	127
127.17492063492064	128.15015873015872	57	127
127.17492063492064	127.29102040816326	60	127
127.29102040816326	127.5348299319728	62	127
127.5348299319728	127.79024943310658	66	127
127.79024943310658	127.96439909297052	62	127
127.96439909297052	128.09208616780046	60	127
128.09208616780046	128.19657596371883	62	127
128.20820861678004	128.42879818594105	59	127
128.20820861678004	129.14861678004536	55	127
128.44040816326532	128.5448979591837	62	127
128.55650793650793	128.77709750566893	67	127
128.8119274376417	128.91641723356008	62	127
128.92802721088435	129.07895691609977	59	127
129.09056689342404	129.1950566893424	62	127
129.21825396825398	129.7871655328798	54	127
129.21825396825398	129.34598639455783	57	127
129.34598639455783	129.48530612244897	62	127
129.48530612244897	129.68267573696144	66	127
129.68267573696144	129.82199546485262	69	127
129.82199546485262	130.10063492063492	55	127
129.82199546485262	129.97292517006804	62	127
129.97292517006804	130.1122448979592	67	127
130.1122448979592	131.0526530612245	48	127
130.1122448979592	130.27478458049887	64	127
130.27478458049887	130.5766439909297	69	127
130.5766439909297	130.69274376417235	72	127
130.69274376417235	130.87850340136055	69	127
130.87850340136055	130.98299319727892	64	127
130.99460317460318	131.12231292517006	69	127
131.13392290249433	132.10916099773243	49	127
131.13392290249433	131.4009523809524	64	127
131.4125396825397	131.51702947845806	67	127
131.5518820861678	131.737641723356	69	127
131.74925170068028	131.88857142857142	67	127
131.9001814058957	132.00467120181406	64	127
132.00467120181406	132.17879818594105	67	127
132.17879818594105	132.3065306122449	62	127
132.17879818594105	132.97990929705216	50	127
132.3065306122449	132.44585034013605	67	127
132.44585034013605	132.57356009070295	71	127
132.57356009070295	132.74770975056688	67	127
132.74770975056688	132.89861678004536	74	127
132.89861678004536	133.061179138322	71	127
133.061179138322	133.35142857142858	38	127
133.061179138322	133.2004761904762	72	127
133.2004761904762	133.36303854875283	69	127
133.36303854875283	133.53718820861678	66	127
133.54879818594105	133.81580498866214	62	127
133.82743764172335	133.96673469387756	60	127
133.97836734693877	134.0944671201814	57	127
134.10607709750568	135.11614512471655	55	127
134.10607709750568	134.23378684807255	59	127
134.2570068027211	134.4427664399093	62	127
134.45437641723356	134.64013605442176	67	127
134.64013605442176	134.82589569161	62	127
134.82589569161	134.98843537414967	59	127
134.98843537414967	135.1625850340136	62	127
135.1625850340136	136.0449433106576	57	127
135.1625850340136	135.34832199546486	60	127
135.34832199546486	135.49927437641725	62	127
135.49927437641725	135.65020408163267	66	127
135.65020408163267	135.74308390022676	62	127
135.74308390022676	135.89401360544218	60	127
135.89401360544218	136.11458049886622	62	127
136.11458049886622	136.32356009070295	59	127
136.11458049886622	137.07823129251702	55	127
136.33519274376417	136.6254195011338	62	127
136.637052154195	136.7647619047619	67	127
136.77637188208618	136.88083900226758	62	127
136.8924716553288	137.00857142857143	59	127
137.0434013605442	137.12467120181407	62	127
137.13625850340136	137.25238095238095	57	127
137.13625850340136	137.76321995464852	54	127
137.26399092970522	137.47297052154195	62	127
137.47297052154195	137.67034013605442	66	127
137.67034013605442	137.79804988662133	69	127
137.79804988662133	138.12312925170068	55	127
137.79804988662133	138.0070068027211	62	127
138.0070068027211	138.13473922902494	67	127
138.13473922902494	138.3321088435374	60	127
138.13473922902494	139.063537414966	48	127
138.3321088435374	138.50625850340137	64	127
138.50625850340137	138.64557823129252	69	127
138.64557823129252	138.83133786848072	64	127
138.83133786848072	138.95904761904762	60	127
138.9706575963719	139.1564172335601	64	127
139.16802721088436	139.3885941043084	57	127
139.16802721088436	139.52793650793652	48	127
139.4002267573696	139.5395238095238	60	127
139.5627664399093	139.86462585034013	45	127
139.5627664399093	139.72530612244898	64	127
139.73691609977325	139.8762358276644	60	127
139.92267573696145	140.10843537414965	57	127
139.92267573696145	140.24775510204083	50	127
140.12004535147392	140.25934240362812	60	127
140.25934240362812	141.46680272108844	66	127
140.25934240362812	141.46680272108844	60	127
140.25934240362812	141.79185941043085	62	127
140.25934240362812	141.79185941043085	55	127
140.25934240362812	141.79185941043085	43	127
141.46680272108844	141.79185941043085	67	127
141.46680272108844	141.79185941043085	59	127
142.26789115646258	142.65102040816328	70	127
142.26789115646258	142.65102040816328	73	127
142.65102040816328	142.88321995464852	74	127
142.65102040816328	142.88321995464852	71	127
142.90643990929706	143.24312925170068	55	127
142.90643990929706	143.24312925170068	67	127
143.26634920634922	143.62625850340137	71	127
143.26634920634922	143.62625850340137	75	127
143.62625850340137	143.97455782312926	76	127
143.62625850340137	143.97455782312926	72	127
143.98614512471656	144.24156462585034	55	127
143.98614512471656	144.24156462585034	67	127
144.25319727891156	144.83369614512472	76	127
144.25319727891156	144.83369614512472	73	127
144.845306122449	145.87857142857143	76	127
144.845306122449	145.87857142857143	79	127
144.845306122449	146.14562358276643	55	127
144.845306122449	146.14562358276643	43	127
145.87857142857143	146.14562358276643	74	127
145.87857142857143	146.14562358276643	77	127
148.64174603174604	148.96684807256236	67	127
149.0016553287982	149.09455782312926	72	127
149.0016553287982	149.50090702947847	48	127
149.28031746031746	149.33836734693878	74	127
149.33836734693878	149.4196371882086	72	127
149.4196371882086	149.59378684807257	71	127
149.59378684807257	149.76791383219955	72	127
149.76791383219955	149.91884353741497	74	127
149.91884353741497	150.5341723356009	48	127
149.91884353741497	150.0814058956916	76	127
150.23233560090702	150.31360544217688	77	127
150.31360544217688	150.45292517006803	76	127
150.45292517006803	150.5574149659864	74	127
150.56902494331067	150.81283446712018	76	127
150.84766439909296	150.97537414965987	77	127
150.98698412698414	151.09145124716554	79	127
150.98698412698414	151.64875283446713	47	127
151.2772335600907	151.3120634920635	81	127
151.3120634920635	151.39333333333335	79	127
151.52104308390022	151.6835827664399	78	127
151.69519274376418	151.79968253968255	79	127
151.79968253968255	151.91578231292516	81	127
151.91578231292516	152.17120181405895	77	127
151.91578231292516	152.5659410430839	47	127
152.6007709750567	152.89102040816326	74	127
152.9142403628118	153.0071201814059	76	127
152.9142403628118	153.56439909297052	48	127
153.2509297052154	153.28575963718822	77	127
153.28575963718822	153.42507936507937	76	127
153.43668934240364	153.58761904761906	74	127
153.59920634920636	153.77337868480726	76	127
153.7965986394558	153.93591836734694	79	127
153.9475283446712	154.6208843537415	53	127
153.9475283446712	154.14489795918368	74	127
154.2958276643991	154.35387755102042	76	127
154.35387755102042	154.50480725623584	74	127
154.50480725623584	154.64412698412698	73	127
154.64412698412698	154.77181405895692	74	127
154.77181405895692	154.99242630385487	77	127
154.99242630385487	155.12013605442178	72	127
154.99242630385487	155.57292517006803	55	127
155.2710657596372	155.30589569160998	74	127
155.30589569160998	155.49163265306123	72	127
155.49163265306123	155.6774149659864	71	127
155.6774149659864	155.79351473922904	72	127
155.79351473922904	155.97927437641724	76	127
155.97927437641724	156.6642403628118	43	127
155.97927437641724	156.42045351473922	71	127
156.94290249433107	157.68591836734694	36	127
157.23315192743763	157.7207709750567	55	127
157.23315192743763	157.7207709750567	64	127
157.23315192743763	157.7207709750567	60	127
157.73238095238096	158.0574603174603	60	127
157.73238095238096	158.0574603174603	64	127
157.73238095238096	158.0574603174603	55	127
158.06907029478458	158.6031292517007	48	127
158.3825396825397	158.6263492063492	64	127
158.3825396825397	158.6263492063492	60	127
158.3825396825397	158.6263492063492	55	127
158.63795918367347	159.0094784580499	55	127
158.63795918367347	159.0094784580499	64	127
158.63795918367347	159.0094784580499	60	127
159.02108843537414	159.57834467120182	47	127
159.32292517006803	159.58997732426303	62	127
159.32292517006803	159.58997732426303	55	127
159.32292517006803	159.58997732426303	67	127
159.61319727891157	159.9150566893424	67	127
159.61319727891157	159.9150566893424	62	127
159.61319727891157	159.9150566893424	55	127
159.92666666666668	160.51877551020408	52	127
160.28657596371883	160.54199546485262	59	127
160.28657596371883	160.54199546485262	67	127
160.28657596371883	160.54199546485262	64	127
160.5768253968254	160.85544217687075	64	127
160.5768253968254	160.85544217687075	59	127
160.5768253968254	160.85544217687075	67	127
160.87868480725623	161.56367346938777	50	127
161.30825396825398	161.65655328798186	67	127
161.30825396825398	161.65655328798186	62	127
161.30825396825398	161.65655328798186	59	127
161.67977324263038	161.92358276643992	67	127
161.67977324263038	161.92358276643992	62	127
161.67977324263038	161.92358276643992	59	127
161.94680272108843	162.65501133786847	38	127
162.31832199546486	162.66662131519274	62	127
162.31832199546486	162.66662131519274	66	127
162.31832199546486	162.66662131519274	57	127
162.678231292517	162.98009070294785	66	127
162.678231292517	162.98009070294785	57	127
162.678231292517	162.98009070294785	62	127
162.98009070294785	164.5938775510204	55	127
162.98009070294785	164.5938775510204	62	127
162.98009070294785	164.29201814058956	66	127
162.98009070294785	164.29201814058956	60	127
162.98009070294785	164.5938775510204	43	127
164.29201814058956	164.5938775510204	67	127
164.29201814058956	164.5938775510204	59	127
165.11632653061224	165.51104308390023	67	127
165.5691156462585	166.11478458049888	48	127
165.5691156462585	165.67360544217686	72	127
165.8593650793651	165.89419501133787	74	127
165.89419501133787	166.0102947845805	72	127
166.0102947845805	166.16122448979593	71	127
166.16122448979593	166.34698412698413	72	127
166.34698412698413	166.5095238095238	74	127
166.5095238095238	167.10163265306122	48	127
166.5095238095238	166.6836507936508	76	127
166.81138321995465	166.9274829931973	77	127
166.9274829931973	167.00875283446712	76	127
167.00875283446712	167.14804988662132	74	127
167.14804988662132	167.31061224489795	76	127
167.31061224489795	167.53120181405896	77	127
167.55439909297053	167.6588888888889	79	127
167.55439909297053	168.0768707482993	47	127
167.8098185941043	167.84467120181407	81	127
167.84467120181407	167.97238095238095	79	127
167.98399092970521	168.11170068027212	78	127
168.12331065759636	168.3090702947846	79	127
168.3322902494331	168.48321995464852	81	127
168.48321995464852	169.11015873015873	47	127
168.48321995464852	168.901179138322	77	127
169.17981859410432	169.51650793650794	74	127
169.53972789115647	170.15505668934242	48	127
169.53972789115647	169.66743764172335	76	127
169.82997732426304	169.8764172335601	77	127
169.8764172335601	170.07378684807256	76	127
170.07378684807256	170.17827664399093	74	127
170.1898866213152	170.35242630385488	76	127
170.36401360544218	170.51496598639457	79	127
170.5265759637188	171.17673469387756	53	127
170.5265759637188	170.67750566893423	74	127
170.92131519274378	170.9445351473923	76	127
170.9445351473923	171.0722448979592	74	127
171.0838321995465	171.19995464852607	73	127
171.19995464852607	171.3508843537415	74	127
171.3508843537415	171.5018140589569	77	127
171.5018140589569	172.10551020408164	55	127
171.5018140589569	171.62952380952382	72	127
171.82689342403629	171.87333333333333	74	127
171.87333333333333	171.98943310657597	72	127
171.98943310657597	172.1403628117914	71	127
172.1403628117914	172.36092970521543	72	127
172.36092970521543	172.5699319727891	76	127
172.5699319727891	173.2665306122449	43	127
172.5699319727891	172.96467120181407	71	127
173.62643990929706	174.2533560090703	36	127
173.90507936507936	174.27659863945578	60	127
173.90507936507936	174.27659863945578	64	127
173.90507936507936	174.27659863945578	55	127
174.28820861678005	174.53201814058957	64	127
174.28820861678005	174.53201814058957	55	127
174.28820861678005	174.53201814058957	60	127
174.54362811791384	175.22861678004534	48	127
175.00802721088436	175.25183673469388	60	127
175.00802721088436	175.25183673469388	64	127
175.00802721088436	175.25183673469388	55	127
175.26344671201815	175.63496598639455	60	127
175.26344671201815	175.63496598639455	55	127
175.26344671201815	175.63496598639455	64	127
175.64657596371882	176.33156462585035	47	127
175.9716553287982	176.34317460317462	62	127
175.9716553287982	176.34317460317462	67	127
175.9716553287982	176.34317460317462	55	127
176.36639455782313	176.57537414965986	62	127
176.36639455782313	176.57537414965986	55	127
176.36639455782313	176.57537414965986	67	127
176.5985941043084	177.2255328798186	52	127
176.92367346938775	177.24875283446713	59	127
176.92367346938775	177.24875283446713	67	127
176.92367346938775	177.24875283446713	64	127
177.2603628117914	177.48095238095237	64	127
177.2603628117914	177.48095238095237	67	127
177.2603628117914	177.48095238095237	59	127
177.49256235827664	177.91052154195012	50	127
177.71315192743765	177.93371882086169	67	127
177.71315192743765	177.93371882086169	59	127
177.71315192743765	177.93371882086169	62	127
177.9453514739229	178.11950113378686	59	127
177.9453514739229	178.11950113378686	67	127
177.9453514739229	178.11950113378686	62	127
178.11950113378686	178.46780045351474	38	127
178.28204081632654	178.479410430839	66	127
178.28204081632654	178.479410430839	57	127
178.28204081632654	178.479410430839	62	127
178.50263038548752	178.6419501133787	66	127
178.50263038548752	178.6419501133787	62	127
178.50263038548752	178.6419501133787	57	127
178.6419501133787	179.51269841269843	62	127
178.6419501133787	179.51269841269843	43	127
178.6419501133787	179.51269841269843	55	127
178.6419501133787	179.29210884353742	66	127
178.6419501133787	179.29210884353742	60	127
179.29210884353742	179.51269841269843	67	127
179.29210884353742	179.51269841269843	59	127
179.7332879818594	179.9538775510204	67	127
179.97707482993198	180.38342403628118	43	127
179.97707482993198	180.06997732426305	79	127
180.2092970521542	180.23249433106577	81	127
180.23249433106577	180.31378684807257	79	127
180.31378684807257	180.40666666666667	78	127
180.40666666666667	180.51115646258503	79	127
180.51115646258503	180.62725623582767	81	127
180.62725623582767	181.04521541950115	43	127
180.62725623582767	180.8478231292517	78	127
180.85945578231292	181.06843537414966	86	127
181.32385487528344	181.71859410430838	43	127
181.32385487528344	181.40510204081633	77	127
181.53283446712018	181.55605442176872	79	127
181.55605442176872	181.62571428571428	77	127
181.63732426303855	181.74181405895692	76	127
181.7534240362812	181.85791383219956	77	127
181.86950113378686	181.97401360544217	79	127
181.98562358276644	182.19460317460317	76	127
181.98562358276644	182.4035827664399	43	127
182.20621315192744	182.42678004535148	84	127
182.6590022675737	182.7518820861678	75	127
182.6590022675737	183.10018140589568	55	127
182.6590022675737	183.10018140589568	43	127
182.891179138322	182.92603174603175	78	127
182.92603174603175	183.01891156462585	75	127
183.01891156462585	183.1350113378685	74	127
183.1350113378685	183.23950113378686	75	127
183.2511111111111	183.36721088435374	77	127
183.378820861678	183.73873015873016	43	127
183.378820861678	183.58780045351475	74	127
183.378820861678	183.73873015873016	55	127
183.59941043083901	183.75034013605443	80	127
183.95931972789117	184.3540589569161	55	127
183.95931972789117	184.14507936507937	69	127
183.95931972789117	184.3540589569161	43	127
184.15668934240364	184.37727891156462	76	127
184.40049886621316	184.6326984126984	74	127
184.64430839002267	184.86489795918368	72	127
184.64430839002267	185.0854648526077	55	127
184.64430839002267	185.0854648526077	43	127
184.87650793650795	185.12031746031747	71	127
185.3525170068027	185.7704761904762	36	127
185.584716553288	185.78208616780046	60	127
185.584716553288	185.78208616780046	64	127
185.584716553288	185.78208616780046	55	127
185.79369614512473	186.00267573696146	60	127
185.79369614512473	186.00267573696146	55	127
185.79369614512473	186.00267573696146	64	127
186.0142857142857	186.38580498866213	48	127
186.22326530612244	186.38580498866213	55	127
186.22326530612244	186.38580498866213	64	127
186.22326530612244	186.38580498866213	60	127
186.3974149659864	186.6180045351474	60	127
186.3974149659864	186.6180045351474	55	127
186.3974149659864	186.6180045351474	64	127
186.62961451247165	187.03596371882085	47	127
186.85020408163265	187.04757369614512	62	127
186.85020408163265	187.04757369614512	67	127
186.85020408163265	187.04757369614512	55	127
187.07079365079366	187.26816326530613	62	127
187.07079365079366	187.26816326530613	55	127
187.07079365079366	187.26816326530613	67	127
187.29138321995464	187.62807256235828	43	127
187.47714285714287	187.63968253968255	55	127
187.47714285714287	187.63968253968255	67	127
187.47714285714287	187.63968253968255	62	127
187.6512925170068	187.81383219954648	62	127
187.6512925170068	187.81383219954648	55	127
187.6512925170068	187.81383219954648	67	127
187.81383219954648	188.19696145124718	48	127
187.99956916099774	188.2201814058957	67	127
187.99956916099774	188.2201814058957	64	127
187.99956916099774	188.2201814058957	60	127
188.23179138321996	188.42916099773242	67	127
188.23179138321996	188.42916099773242	64	127
188.23179138321996	188.42916099773242	60	127
188.4407709750567	188.82390022675736	41	127
188.64975056689343	188.83551020408163	57	127
188.64975056689343	188.83551020408163	65	127
188.64975056689343	188.83551020408163	62	127
188.85873015873017	189.05609977324264	57	127
188.85873015873017	189.05609977324264	65	127
188.85873015873017	189.05609977324264	62	127
189.07931972789115	189.49727891156462	43	127
189.29990929705215	189.52049886621316	55	127
189.29990929705215	189.52049886621316	65	127
189.29990929705215	189.52049886621316	62	127
189.53208616780046	189.7294784580499	55	127
189.53208616780046	189.7294784580499	65	127
189.53208616780046	189.7294784580499	62	127
189.7410657596372	189.822358276644	36	127
189.7410657596372	189.822358276644	55	127
189.7410657596372	189.822358276644	64	127
189.7410657596372	189.822358276644	60	127
189.95006802721088	190.1358276643991	67	127
190.1474149659864	190.20548752834466	79	127
190.1474149659864	190.42607709750567	43	127
190.2519274376417	190.27514739229025	81	127
190.27514739229025	190.34480725623584	79	127
190.34480725623584	190.46090702947845	78	127
190.47251700680272	190.5770068027211	79	127
190.5770068027211	190.69310657596372	81	127
190.69310657596372	191.09945578231293	43	127
190.69310657596372	190.8904761904762	78	127
190.90208616780046	191.12267573696144	86	127
191.366485260771	191.45936507936509	77	127
191.366485260771	191.7728344671202	43	127
191.59868480725623	191.62190476190477	79	127
191.62190476190477	191.67995464852606	77	127
191.69156462585033	191.7960544217687	76	127
191.80766439909297	191.90054421768707	77	127
191.91215419501134	192.0166439909297	79	127
192.02825396825398	192.23723356009071	76	127
192.02825396825398	192.44621315192742	43	127
192.26045351473923	192.4578231292517	84	127
192.66680272108843	192.78290249433107	75	127
192.66680272108843	193.09637188208617	55	127
192.66680272108843	193.09637188208617	43	127
192.8990022675737	192.9338321995465	78	127
192.9338321995465	193.01510204081632	75	127
193.01510204081632	193.13120181405895	74	127
193.13120181405895	193.2473015873016	75	127
193.2473015873016	193.35179138321996	77	127
193.35179138321996	193.7465306122449	43	127
193.35179138321996	193.57238095238094	74	127
193.35179138321996	193.7465306122449	55	127
193.5839909297052	193.75814058956917	80	127
193.97873015873017	194.16448979591837	69	127
193.97873015873017	194.3734693877551	55	127
193.97873015873017	194.3734693877551	43	127
194.17609977324264	194.39668934240362	76	127
194.4082993197279	194.60566893424036	74	127
194.61727891156463	195.04684807256237	43	127
194.61727891156463	194.83786848072563	72	127
194.61727891156463	195.04684807256237	55	127
194.84947845804987	195.07006802721088	71	127
195.26743764172335	195.65056689342404	36	127
195.47641723356008	195.6621768707483	60	127
195.47641723356008	195.6621768707483	55	127
195.47641723356008	195.6621768707483	64	127
195.68539682539682	195.87115646258502	60	127
195.68539682539682	195.87115646258502	64	127
195.68539682539682	195.87115646258502	55	127
195.8827664399093	196.30072562358276	48	127
196.1033560090703	196.3239455782313	55	127
196.1033560090703	196.3239455782313	64	127
196.1033560090703	196.3239455782313	60	127
196.33555555555554	196.5097052154195	60	127
196.33555555555554	196.5097052154195	55	127
196.33555555555554	196.5097052154195	64	127
196.52131519274377	196.9160544217687	47	127
196.74190476190475	196.93927437641725	55	127
196.74190476190475	196.93927437641725	67	127
196.74190476190475	196.93927437641725	62	127
196.9508843537415	197.02054421768707	67	127
196.9508843537415	197.02054421768707	62	127
196.9508843537415	197.02054421768707	55	127
197.02054421768707	197.2295238095238	43	127
197.0785941043084	197.24113378684808	55	127
197.0785941043084	197.24113378684808	67	127
197.0785941043084	197.24113378684808	62	127
197.25274376417232	197.46172335600906	67	127
197.25274376417232	197.46172335600906	62	127
197.25274376417232	197.46172335600906	55	127
197.47333333333333	197.78680272108843	48	127
197.7055328798186	197.78680272108843	60	127
197.7055328798186	197.78680272108843	67	127
197.7055328798186	197.78680272108843	64	127
197.78680272108843	197.9609523809524	67	127
197.78680272108843	197.9609523809524	60	127
197.78680272108843	197.9609523809524	64	127
197.97256235827663	198.10027210884354	41	127
198.10027210884354	198.1118820861678	62	127
198.10027210884354	198.1118820861678	57	127
198.10027210884354	198.1118820861678	65	127
198.1118820861678	198.13510204081632	62	127
198.1118820861678	198.13510204081632	57	127
198.1118820861678	198.13510204081632	65	127
198.13510204081632	198.52984126984126	43	127
198.3324716553288	198.5530612244898	55	127
198.3324716553288	198.5530612244898	65	127
198.3324716553288	198.5530612244898	62	127
198.56467120181406	198.78526077097504	55	127
198.56467120181406	198.78526077097504	65	127
198.56467120181406	198.78526077097504	62	127
198.7968707482993	198.99424036281178	64	127
198.7968707482993	198.99424036281178	60	127
198.7968707482993	198.99424036281178	55	127
198.7968707482993	198.99424036281178	36	127
199.42380952380952	200.09718820861679	74	127
199.42380952380952	200.09718820861679	67	127
199.42380952380952	199.621179138322	79	127
199.42380952380952	200.09718820861679	77	127
199.64439909297053	199.7488888888889	80	127
199.76049886621314	199.8649886621315	81	127
199.87659863945578	199.98108843537415	82	127
199.99269841269842	200.09718820861679	83	127
200.09718820861679	200.3177777777778	84	127
200.09718820861679	200.3177777777778	72	127
200.09718820861679	200.3177777777778	76	127
200.95632653061224	201.28140589569162	76	127
200.95632653061224	201.61809523809524	72	127
200.95632653061224	201.95478458049885	52	127
201.29301587301586	201.64131519274378	75	127
201.65292517006802	201.93156462585034	71	127
201.65292517006802	201.93156462585034	74	127
201.95478458049885	202.17537414965986	72	127
201.95478458049885	202.17537414965986	69	127
201.95478458049885	202.17537414965986	45	127
202.8835827664399	203.24349206349206	71	127
202.8835827664399	203.24349206349206	74	127
202.8835827664399	203.24349206349206	38	127
203.25510204081633	203.62662131519275	70	127
203.25510204081633	203.62662131519275	73	127
203.25510204081633	203.4524716553288	39	127
203.4524716553288	203.63823129251702	40	127
203.63823129251702	203.91687074829932	72	127
203.63823129251702	203.91687074829932	69	127
203.63823129251702	203.78916099773244	41	127
203.78916099773244	203.9284807256236	42	127
203.9284807256236	204.13746031746032	71	127
203.9284807256236	204.13746031746032	43	127
203.9284807256236	204.13746031746032	67	127
204.90371882086168	205.26362811791384	51	127
204.90371882086168	205.26362811791384	39	127
205.28684807256235	205.7396371882086	70	127
205.28684807256235	205.7396371882086	67	127
205.28684807256235	205.7396371882086	61	127
205.75124716553287	205.9950566893424	70	127
205.75124716553287	205.9950566893424	67	127
205.75124716553287	205.9950566893424	61	127
206.00666666666666	206.26208616780045	51	127
206.00666666666666	206.26208616780045	39	127
206.285306122449	206.6219954648526	61	127
206.285306122449	206.6219954648526	67	127
206.285306122449	206.6219954648526	55	127
206.63360544217687	206.85419501133788	67	127
206.63360544217687	206.85419501133788	55	127
206.63360544217687	206.85419501133788	61	127
206.86580498866212	207.17927437641723	38	127
206.86580498866212	207.17927437641723	50	127
207.1908843537415	207.5972335600907	57	127
207.1908843537415	207.5972335600907	66	127
207.1908843537415	207.5972335600907	62	127
207.63206349206348	207.9455328798186	62	127
207.63206349206348	207.9455328798186	57	127
207.63206349206348	207.9455328798186	66	127
207.96875283446713	208.29383219954647	50	127
207.96875283446713	208.29383219954647	38	127
208.30544217687074	208.60730158730158	64	127
208.30544217687074	208.60730158730158	61	127
208.30544217687074	208.60730158730158	57	127
208.61891156462585	208.85111111111112	57	127
208.61891156462585	208.85111111111112	64	127
208.61891156462585	208.85111111111112	61	127
208.86272108843536	209.65219954648526	38	127
208.86272108843536	209.65219954648526	50	127
209.1065306122449	209.67541950113377	57	127
209.1065306122449	209.67541950113377	66	127
209.1065306122449	209.67541950113377	62	127
209.68702947845804	209.93083900226756	62	127
209.68702947845804	209.93083900226756	57	127
209.68702947845804	209.93083900226756	66	127
209.94244897959183	210.59260770975058	38	127
209.94244897959183	210.59260770975058	50	127
210.29074829931972	210.60421768707482	59	127
210.29074829931972	210.60421768707482	55	127
210.29074829931972	210.60421768707482	67	127
210.62743764172336	210.94090702947847	59	127
210.62743764172336	210.94090702947847	55	127
210.62743764172336	210.94090702947847	67	127
210.9525170068027	211.5562358276644	50	127
210.9525170068027	211.5562358276644	38	127
211.23115646258503	211.57945578231292	64	127
211.23115646258503	211.57945578231292	61	127
211.23115646258503	211.57945578231292	57	127
211.60267573696146	211.88131519274376	64	127
211.60267573696146	211.88131519274376	57	127
211.60267573696146	211.88131519274376	61	127
211.89292517006803	212.5314739229025	38	127
211.89292517006803	212.5314739229025	50	127
212.25283446712018	212.55469387755102	62	127
212.25283446712018	212.55469387755102	57	127
212.25283446712018	212.55469387755102	66	127
212.5663038548753	212.89138321995466	57	127
212.5663038548753	212.89138321995466	66	127
212.5663038548753	212.89138321995466	62	127
212.91460317460317	213.57637188208616	50	127
212.91460317460317	213.57637188208616	38	127
213.17002267573696	213.6228117913832	62	127
213.17002267573696	213.6228117913832	67	127
213.17002267573696	213.6228117913832	59	127
213.63442176870748	213.93628117913832	67	127
213.63442176870748	213.93628117913832	62	127
213.63442176870748	213.93628117913832	59	127
213.9478911564626	214.88829931972788	64	127
213.9478911564626	214.88829931972788	67	127
214.88829931972788	215.2946485260771	66	127
214.88829931972788	215.2946485260771	62	127
214.88829931972788	215.00439909297052	74	127
215.30625850340135	215.4804081632653	86	127
215.63133786848073	215.90997732426302	63	127
215.63133786848073	215.90997732426302	73	127
215.63133786848073	215.90997732426302	67	127
215.90997732426302	216.13056689342403	74	127
215.90997732426302	216.13056689342403	66	127
215.90997732426302	216.13056689342403	62	127
216.1421768707483	216.3279365079365	86	127
216.60657596371883	216.8968253968254	67	127
216.60657596371883	216.8968253968254	73	127
216.60657596371883	216.8968253968254	63	127
216.8968253968254	217.3380045351474	66	127
216.8968253968254	217.1174149659864	74	127
216.8968253968254	217.3380045351474	62	127
217.12902494331067	217.36122448979592	86	127
217.37283446712019	217.5934240362812	86	127
217.60503401360543	218.19714285714286	86	127
218.22036281179138	218.46417233560092	86	127
218.48739229024943	218.76603174603176	86	127
218.8124716553288	219.13755102040815	86	127
219.14916099773242	219.50907029478458	86	127
219.52068027210885	219.7528798185941	86	127
219.76448979591837	219.99668934240364	86	127
220.00829931972788	220.48430839002268	86	127
220.49591836734695	220.7281179138322	86	127
220.75133786848073	220.9719274376417	86	127
221.00675736961452	221.21573696145126	86	127
221.2273469387755	221.4479365079365	86	127
221.45954648526077	221.77301587301588	86	127
221.78462585034015	222.353514739229	86	127
222.36512471655328	222.65537414965988	86	127
222.66698412698412	223.00367346938776	86	127
223.015283446712	223.28231292517006	50	127
223.015283446712	223.28231292517006	86	127
223.31714285714287	223.63061224489795	48	127
223.31714285714287	223.63061224489795	86	127
223.65383219954649	223.897641723356	47	127
223.65383219954649	223.897641723356	86	127
223.90925170068027	224.26916099773243	45	127
223.90925170068027	224.26916099773243	86	127
224.2807709750567	224.57102040816326	43	127
224.2807709750567	224.57102040816326	86	127
224.58263038548753	225.000589569161	42	127
224.58263038548753	225.000589569161	86	127
226.53310657596373	226.9162358276644	74	127
226.92784580498866	227.55478458049888	67	127
226.92784580498866	227.3922448979592	79	127
226.92784580498866	227.55478458049888	71	127
227.42707482993197	227.58961451247166	81	127
227.58961451247166	227.8914739229025	79	127
227.58961451247166	227.8914739229025	67	127
227.58961451247166	227.8914739229025	71	127
227.90308390022676	228.10045351473923	72	127
227.90308390022676	228.10045351473923	69	127
227.90308390022676	228.10045351473923	78	127
228.58807256235826	228.91315192743764	74	127
228.9247619047619	229.55170068027212	71	127
228.9247619047619	229.55170068027212	67	127
228.9247619047619	229.4007709750567	79	127
229.4239909297052	229.57492063492063	81	127
229.5865306122449	229.87678004535147	79	127
229.5865306122449	229.87678004535147	67	127
229.5865306122449	229.87678004535147	71	127
229.88839002267574	230.22507936507935	84	127
229.88839002267574	230.22507936507935	69	127
229.88839002267574	230.22507936507935	66	127
230.51532879818595	230.91006802721088	67	127
230.51532879818595	230.91006802721088	83	127
230.92167800453515	231.65310657596373	64	127
230.92167800453515	231.65310657596373	60	127
230.92167800453515	231.2815873015873	81	127
231.3164172335601	231.444126984127	83	127
231.47895691609978	231.69954648526078	81	127
231.7227664399093	232.6631746031746	69	127
231.7227664399093	232.6631746031746	61	127
231.7227664399093	232.05945578231294	76	127
232.46580498866214	232.72122448979593	81	127
232.74444444444444	233.92866213151927	62	127
232.74444444444444	233.68485260770976	79	127
232.74444444444444	233.68485260770976	71	127
233.68485260770976	233.92866213151927	69	127
233.68485260770976	233.92866213151927	78	127
234.2653514739229	234.6136507936508	74	127
234.63687074829932	235.2057596371882	67	127
234.63687074829932	235.2057596371882	71	127
234.63687074829932	235.07804988662133	79	127
235.1128798185941	235.240589569161	81	127
235.240589569161	235.62371882086168	71	127
235.240589569161	235.62371882086168	79	127
235.240589569161	235.62371882086168	67	127
235.63532879818595	235.90235827664398	69	127
235.63532879818595	235.90235827664398	78	127
235.63532879818595	235.90235827664398	72	127
236.1809977324263	236.57573696145124	74	127
236.5873469387755	237.14462585034013	71	127
236.5873469387755	237.14462585034013	67	127
236.5873469387755	236.98208616780045	79	127
237.00530612244899	237.16784580498867	81	127
237.1794557823129	237.5045351473923	79	127
237.1794557823129	237.5045351473923	67	127
237.1794557823129	237.5045351473923	71	127
237.51614512471656	237.75995464852608	66	127
237.51614512471656	237.75995464852608	84	127
237.51614512471656	237.75995464852608	69	127
238.0618140589569	238.56104308390022	67	127
238.0618140589569	238.56104308390022	83	127
238.58426303854876	239.1067120181406	60	127
238.58426303854876	238.99061224489796	81	127
238.58426303854876	239.1067120181406	64	127
239.0138321995465	239.1299319727891	83	127
239.14154195011338	239.52467120181407	84	127
239.54789115646258	239.80331065759637	76	127
240.14	240.59278911564627	72	127
240.14	240.59278911564627	62	127
240.14	240.59278911564627	78	127
240.6043990929705	241.76539682539683	67	127
240.6043990929705	241.53319727891156	81	127
240.6043990929705	241.53319727891156	72	127
241.53319727891156	241.76539682539683	71	127
241.53319727891156	241.76539682539683	79	127
242.7174149659864	242.82190476190476	74	127
242.7174149659864	242.82190476190476	43	127
242.83351473922903	242.9380045351474	71	127
242.83351473922903	242.9380045351474	47	127
242.9380045351474	243.08893424036282	67	127
242.9380045351474	243.08893424036282	50	127
243.08893424036282	243.26308390022675	62	127
243.08893424036282	243.26308390022675	55	127
243.26308390022675	243.44884353741497	74	127
243.26308390022675	243.44884353741497	43	127
243.44884353741497	243.56494331065758	47	127
243.44884353741497	243.56494331065758	71	127
243.56494331065758	243.76231292517008	74	127
243.56494331065758	243.76231292517008	45	127
243.76231292517008	243.89002267573696	72	127
243.76231292517008	243.89002267573696	48	127
243.89002267573696	244.05256235827665	69	127
243.89002267573696	244.05256235827665	50	127
244.05256235827665	244.23832199546484	57	127
244.05256235827665	244.23832199546484	62	127
244.23832199546484	244.36603174603175	74	127
244.23832199546484	244.36603174603175	45	127
244.37764172335602	244.5053514739229	48	127
244.37764172335602	244.5053514739229	72	127
244.51696145124717	244.70272108843537	74	127
244.51696145124717	244.70272108843537	43	127
244.7607709750567	244.90009070294784	47	127
244.7607709750567	244.90009070294784	71	127
244.9117006802721	245.05102040816325	50	127
244.9117006802721	245.05102040816325	67	127
245.06263038548752	245.1671201814059	62	127
245.06263038548752	245.1671201814059	55	127
245.17873015873016	245.3877097505669	43	127
245.17873015873016	245.3877097505669	74	127
245.39931972789117	245.52702947845805	47	127
245.39931972789117	245.52702947845805	71	127
245.52702947845805	245.72439909297051	74	127
245.52702947845805	245.72439909297051	42	127
245.72439909297051	245.87532879818593	45	127
245.72439909297051	245.87532879818593	69	127
245.87532879818593	245.99142857142857	66	127
245.87532879818593	245.99142857142857	50	127
245.99142857142857	246.1075283446712	62	127
245.99142857142857	246.1075283446712	54	127
246.1075283446712	246.22362811791382	43	127
246.1075283446712	246.22362811791382	74	127
246.22362811791382	246.35133786848073	47	127
246.22362811791382	246.35133786848073	71	127
246.35133786848073	246.6067573696145	76	127
246.35133786848073	246.6067573696145	48	127
246.6067573696145	246.72285714285715	52	127
246.6067573696145	246.72285714285715	72	127
246.72285714285715	246.9318367346939	57	127
246.72285714285715	246.9318367346939	69	127
246.9318367346939	247.05954648526077	64	127
246.9318367346939	247.05954648526077	60	127
247.07115646258504	247.2104761904762	48	127
247.07115646258504	247.2104761904762	76	127
247.22208616780046	247.37301587301587	72	127
247.22208616780046	247.37301587301587	52	127
247.38462585034014	247.53555555555556	76	127
247.38462585034014	247.53555555555556	49	127
247.54716553287983	247.73292517006803	52	127
247.54716553287983	247.73292517006803	69	127
247.7445351473923	247.91868480725623	67	127
247.7445351473923	247.91868480725623	57	127
247.94190476190477	248.10444444444445	64	127
247.94190476190477	248.10444444444445	61	127
248.10444444444445	248.23215419501133	76	127
248.10444444444445	248.23215419501133	49	127
248.23215419501133	248.4063038548753	52	127
248.23215419501133	248.4063038548753	69	127
248.4063038548753	248.61528344671203	38	127
248.4063038548753	248.61528344671203	74	127
248.61528344671203	248.76621315192745	71	127
248.61528344671203	248.76621315192745	43	127
248.76621315192745	248.9055328798186	47	127
248.76621315192745	248.9055328798186	67	127
248.9055328798186	249.07968253968255	62	127
248.9055328798186	249.07968253968255	50	127
249.07968253968255	249.19578231292516	38	127
249.07968253968255	249.19578231292516	74	127
249.19578231292516	249.33510204081634	43	127
249.19578231292516	249.33510204081634	71	127
249.33510204081634	249.55569160997732	38	127
249.33510204081634	249.55569160997732	72	127
249.55569160997732	249.68340136054422	42	127
249.55569160997732	249.68340136054422	69	127
249.6950113378685	249.8459410430839	45	127
249.6950113378685	249.8459410430839	66	127
249.85755102040815	250.00848072562357	62	127
249.85755102040815	250.00848072562357	50	127
250.02009070294784	250.13619047619048	69	127
250.02009070294784	250.13619047619048	48	127
250.14780045351475	250.33356009070295	45	127
250.14780045351475	250.33356009070295	66	127
250.34517006802722	250.6934693877551	74	127
250.34517006802722	250.6934693877551	43	127
250.70507936507937	250.89083900226757	71	127
250.70507936507937	250.89083900226757	47	127
250.9140589569161	251.03015873015872	50	127
250.9140589569161	251.03015873015872	67	127
251.03015873015872	251.14625850340136	55	127
251.03015873015872	251.14625850340136	62	127
251.14625850340136	251.2855782312925	74	127
251.14625850340136	251.2855782312925	43	127
251.2855782312925	251.4132879818594	71	127
251.2855782312925	251.4132879818594	47	127
251.4132879818594	251.55260770975056	74	127
251.4132879818594	251.55260770975056	45	127
251.55260770975056	251.71514739229025	72	127
251.55260770975056	251.71514739229025	48	127
251.71514739229025	251.8892970521542	69	127
251.71514739229025	251.8892970521542	50	127
251.8892970521542	252.02861678004535	62	127
251.8892970521542	252.02861678004535	57	127
252.02861678004535	252.17954648526077	74	127
252.02861678004535	252.17954648526077	45	127
252.17954648526077	252.34208616780046	48	127
252.17954648526077	252.34208616780046	72	127
252.35369614512473	252.58589569160998	74	127
252.35369614512473	252.58589569160998	43	127
252.59750566893425	252.72521541950113	71	127
252.59750566893425	252.72521541950113	47	127
252.76004535147393	252.8645351473923	67	127
252.76004535147393	252.8645351473923	50	127
252.87614512471654	253.0502947845805	62	127
252.87614512471654	253.0502947845805	55	127
253.06190476190477	253.18961451247165	43	127
253.06190476190477	253.18961451247165	74	127
253.20122448979592	253.42181405895693	47	127
253.20122448979592	253.42181405895693	71	127
253.43342403628117	253.56113378684807	74	127
253.43342403628117	253.56113378684807	42	127
253.56113378684807	253.7701133786848	45	127
253.56113378684807	253.7701133786848	69	127
253.7701133786848	253.96748299319728	66	127
253.7701133786848	253.96748299319728	50	127
253.96748299319728	254.09519274376416	62	127
253.96748299319728	254.09519274376416	54	127
254.09519274376416	254.25773242630385	43	127
254.09519274376416	254.25773242630385	74	127
254.25773242630385	254.38544217687075	47	127
254.25773242630385	254.38544217687075	71	127
254.38544217687075	254.58281179138322	76	127
254.38544217687075	254.58281179138322	48	127
254.58281179138322	254.72213151927437	72	127
254.58281179138322	254.72213151927437	52	127
254.72213151927437	254.86145124716552	69	127
254.72213151927437	254.86145124716552	57	127
254.86145124716552	255.0936507936508	64	127
254.86145124716552	255.0936507936508	60	127
255.10526077097506	255.2445804988662	76	127
255.10526077097506	255.2445804988662	48	127
255.26780045351475	255.39551020408163	52	127
255.26780045351475	255.39551020408163	72	127
255.4071201814059	255.5696598639456	45	127
255.4071201814059	255.5696598639456	76	127
255.58126984126983	255.73219954648525	72	127
255.58126984126983	255.73219954648525	48	127
255.74380952380952	255.96439909297052	69	127
255.74380952380952	255.96439909297052	52	127
255.9760090702948	256.11532879818594	64	127
255.9760090702948	256.11532879818594	57	127
256.1269387755102	256.2662585034014	50	127
256.1269387755102	256.2662585034014	72	127
256.2662585034014	256.42879818594105	54	127
256.2662585034014	256.42879818594105	69	127
256.42879818594105	256.6261678004535	72	127
256.42879818594105	256.6261678004535	43	127
256.6261678004535	256.823537414966	69	127
256.6261678004535	256.823537414966	48	127
256.823537414966	256.9396371882086	66	127
256.823537414966	256.9396371882086	50	127
256.9396371882086	257.14861678004536	62	127
256.9396371882086	257.14861678004536	54	127
257.14861678004536	257.2995238095238	69	127
257.14861678004536	257.2995238095238	48	127
257.2995238095238	257.4968934240363	66	127
257.2995238095238	257.4968934240363	50	127
257.4968934240363	257.69428571428574	71	127
257.4968934240363	257.69428571428574	43	127
257.69428571428574	257.8219954648526	67	127
257.69428571428574	257.8219954648526	47	127
257.8219954648526	257.9845351473923	50	127
257.8219954648526	257.9845351473923	62	127
257.9961451247166	258.1238548752834	55	127
257.9961451247166	258.1238548752834	59	127
258.1354648526077	258.2980045351474	74	127
258.1354648526077	258.2980045351474	47	127
258.33283446712016	258.4953741496599	71	127
258.33283446712016	258.4953741496599	50	127
258.50698412698415	258.72755102040816	76	127
258.50698412698415	258.72755102040816	43	127
258.73918367346937	258.8668934240363	72	127
258.73918367346937	258.8668934240363	48	127
258.87850340136055	259.075873015873	52	127
258.87850340136055	259.075873015873	67	127
259.075873015873	259.2035827664399	55	127
259.075873015873	259.2035827664399	64	127
259.2035827664399	259.3893424036281	76	127
259.2035827664399	259.3893424036281	48	127
259.3893424036281	259.50544217687076	72	127
259.3893424036281	259.50544217687076	52	127
259.50544217687076	259.6795918367347	76	127
259.50544217687076	259.6795918367347	43	127
259.6795918367347	259.8421315192744	72	127
259.6795918367347	259.8421315192744	48	127
259.8421315192744	260.05108843537414	67	127
259.8421315192744	260.05108843537414	52	127
260.05108843537414	260.31814058956917	64	127
260.05108843537414	260.31814058956917	55	127
260.31814058956917	260.4342403628118	48	127
260.31814058956917	260.4342403628118	76	127
260.4342403628118	260.5619274376417	52	127
260.4342403628118	260.5619274376417	72	127
260.5619274376417	260.6664172335601	74	127
260.5619274376417	260.6664172335601	43	127
260.6780498866213	260.8753968253968	71	127
260.6780498866213	260.8753968253968	47	127
260.88702947845803	261.08437641723356	67	127
260.88702947845803	261.08437641723356	50	127
261.09600907029477	261.2469387755102	62	127
261.09600907029477	261.2469387755102	55	127
261.2585487528345	261.3862358276644	74	127
261.2585487528345	261.3862358276644	43	127
261.3978684807256	261.502358276644	71	127
261.3978684807256	261.502358276644	47	127
261.54879818594105	261.6648979591837	74	127
261.54879818594105	261.6648979591837	43	127
261.67650793650796	261.8158276643991	71	127
261.67650793650796	261.8158276643991	47	127
261.8158276643991	262.09444444444443	67	127
261.8158276643991	262.09444444444443	50	127
262.09444444444443	262.210566893424	55	127
262.09444444444443	262.210566893424	62	127
262.210566893424	262.39632653061227	43	127
262.210566893424	262.39632653061227	74	127
262.39632653061227	262.5124036281179	47	127
262.39632653061227	262.5124036281179	71	127
262.5124036281179	262.6633560090703	43	127
262.5124036281179	262.6633560090703	76	127
262.6633560090703	262.87233560090704	72	127
262.6633560090703	262.87233560090704	48	127
262.87233560090704	262.9884353741497	67	127
262.87233560090704	262.9884353741497	52	127
262.9884353741497	263.27868480725624	64	127
262.9884353741497	263.27868480725624	55	127
263.27868480725624	263.3831746031746	48	127
263.27868480725624	263.3831746031746	76	127
263.3947845804989	263.65020408163264	52	127
263.3947845804989	263.65020408163264	72	127
263.6618140589569	263.7895238095238	43	127
263.6618140589569	263.7895238095238	76	127
263.81274376417235	263.975283446712	48	127
263.81274376417235	263.975283446712	72	127
263.9868934240363	264.09138321995465	52	127
263.9868934240363	264.09138321995465	67	127
264.1029931972789	264.2074829931973	55	127
264.1029931972789	264.2074829931973	64	127
264.21909297052156	264.3584126984127	76	127
264.21909297052156	264.3584126984127	48	127
264.37002267573695	264.4861224489796	72	127
264.37002267573695	264.4861224489796	52	127
264.4861224489796	264.86925170068025	74	127
264.4861224489796	264.86925170068025	43	127
264.86925170068025	265.0550113378685	71	127
264.86925170068025	265.0550113378685	47	127
265.0550113378685	265.2059410430839	50	127
265.0550113378685	265.2059410430839	67	127
265.2059410430839	265.32204081632653	55	127
265.2059410430839	265.32204081632653	62	127
265.32204081632653	265.44975056689344	43	127
265.32204081632653	265.44975056689344	74	127
265.44975056689344	265.63551020408164	47	127
265.44975056689344	265.63551020408164	71	127
265.63551020408164	265.9373696145125	43	127
265.63551020408164	265.76321995464855	79	127
265.76321995464855	265.94897959183675	74	127
265.94897959183675	266.09990929705214	83	127
266.1115192743764	266.2856689342404	79	127
266.29725623582766	266.4598185941043	86	127
266.50625850340134	266.6571882086168	83	127
266.66879818594106	267.063537414966	84	127
266.66879818594106	267.17963718820863	64	127
266.66879818594106	267.17963718820863	67	127
267.0983673469388	267.20285714285717	86	127
267.20285714285717	267.5627664399093	88	127
267.58598639455784	268.2825850340136	79	127
267.9691156462585	268.27097505668934	72	127
267.9691156462585	268.27097505668934	64	127
268.2825850340136	268.5612244897959	81	127
268.2825850340136	268.5612244897959	66	127
268.2825850340136	268.5612244897959	72	127
268.5728344671202	269.1417233560091	67	127
268.5728344671202	268.9559410430839	83	127
268.5728344671202	269.1417233560091	71	127
268.9791836734694	269.1649433106576	84	127
269.17655328798185	269.6061224489796	86	127
269.62934240362813	270.2330612244898	78	127
269.94281179138324	270.22145124716553	72	127
269.94281179138324	270.22145124716553	69	127
270.2330612244898	270.5581405895692	74	127
270.2330612244898	270.5581405895692	71	127
270.2330612244898	270.5581405895692	80	127
270.56975056689345	271.0573696145125	76	127
270.56975056689345	270.94126984126984	81	127
270.56975056689345	271.0573696145125	72	127
270.9644897959184	271.0921768707483	83	127
271.0921768707483	271.51013605442176	84	127
271.53337868480725	272.19514739229027	76	127
271.8584580498866	272.16031746031746	60	127
271.8584580498866	272.16031746031746	69	127
272.19514739229027	272.60149659863947	78	127
272.19514739229027	272.60149659863947	62	127
272.19514739229027	272.60149659863947	72	127
272.61310657596374	273.8437641723356	67	127
272.61310657596374	273.4954648526077	81	127
272.61310657596374	273.5419047619048	72	127
273.5419047619048	273.8437641723356	71	127
273.5419047619048	273.8437641723356	79	127
273.8553514739229	274.3546031746032	78	127
274.3778231292517	274.6796598639456	77	127
274.6912925170068	274.84222222222223	76	127
274.6912925170068	274.84222222222223	43	127
274.8538321995465	275.0047619047619	72	127
274.8538321995465	275.0047619047619	48	127
275.01637188208616	275.15569160997734	67	127
275.01637188208616	275.15569160997734	52	127
275.1673015873016	275.318231292517	55	127
275.1673015873016	275.318231292517	64	127
275.32984126984127	275.4459410430839	48	127
275.32984126984127	275.4459410430839	76	127
275.4459410430839	275.56204081632654	72	127
275.4459410430839	275.56204081632654	52	127
275.56204081632654	275.7942176870748	76	127
275.56204081632654	275.7942176870748	43	127
275.7942176870748	275.98	48	127
275.7942176870748	275.98	72	127
275.98	276.1309297052154	67	127
275.98	276.1309297052154	52	127
276.1309297052154	276.2702494331066	64	127
276.1309297052154	276.2702494331066	55	127
276.2702494331066	276.3979591836735	76	127
276.2702494331066	276.3979591836735	48	127
276.3979591836735	276.5488888888889	72	127
276.3979591836735	276.5488888888889	52	127
276.5488888888889	276.87396825396826	74	127
276.5488888888889	276.87396825396826	43	127
276.87396825396826	276.9784580498866	71	127
276.87396825396826	276.9784580498866	47	127
277.00167800453517	277.1642176870748	67	127
277.00167800453517	277.1642176870748	50	127
277.18743764172336	277.29192743764173	62	127
277.18743764172336	277.29192743764173	55	127
277.303537414966	277.40802721088437	74	127
277.303537414966	277.40802721088437	43	127
277.41963718820864	277.524126984127	47	127
277.41963718820864	277.524126984127	71	127
277.5473469387755	277.7679365079365	43	127
277.5473469387755	277.7679365079365	74	127
277.77954648526077	277.88403628117914	71	127
277.77954648526077	277.88403628117914	47	127
277.8956462585034	278.01174603174604	50	127
277.8956462585034	278.01174603174604	67	127
278.01174603174604	278.13945578231295	62	127
278.01174603174604	278.13945578231295	55	127
278.13945578231295	278.29038548752834	74	127
278.13945578231295	278.29038548752834	43	127
278.29038548752834	278.54580498866216	71	127
278.29038548752834	278.54580498866216	47	127
278.54580498866216	278.73156462585035	43	127
278.54580498866216	278.73156462585035	76	127
278.73156462585035	278.9057142857143	48	127
278.73156462585035	278.9057142857143	72	127
278.9057142857143	279.0334240362812	67	127
278.9057142857143	279.0334240362812	52	127
279.0334240362812	279.17272108843537	64	127
279.0334240362812	279.17272108843537	55	127
279.17272108843537	279.41655328798186	76	127
279.17272108843537	279.41655328798186	48	127
279.41655328798186	279.5210430839002	72	127
279.41655328798186	279.5210430839002	52	127
279.5326530612245	279.77646258503404	76	127
279.5326530612245	279.77646258503404	43	127
279.7880498866213	279.92739229024943	48	127
279.7880498866213	279.92739229024943	72	127
279.9390022675737	280.1247619047619	52	127
279.9390022675737	280.1247619047619	67	127
280.13637188208617	280.32213151927436	64	127
280.13637188208617	280.32213151927436	55	127
280.33374149659863	280.55433106575964	76	127
280.33374149659863	280.55433106575964	48	127
280.5659410430839	280.6704308390023	72	127
280.5659410430839	280.6704308390023	52	127
280.68204081632655	280.86780045351475	74	127
280.68204081632655	280.86780045351475	43	127
280.86780045351475	280.99551020408165	71	127
280.86780045351475	280.99551020408165	47	127
280.99551020408165	281.1928798185941	67	127
280.99551020408165	281.1928798185941	50	127
281.1928798185941	281.30897959183676	55	127
281.1928798185941	281.30897959183676	62	127
281.30897959183676	281.4250566893424	43	127
281.30897959183676	281.4250566893424	74	127
281.4250566893424	281.5760090702948	71	127
281.4250566893424	281.5760090702948	47	127
281.5760090702948	281.77337868480726	79	127
281.5760090702948	281.90108843537416	43	127
281.77337868480726	281.982358276644	74	127
281.982358276644	282.1565079365079	83	127
282.1565079365079	282.28421768707483	79	127
282.28421768707483	282.4815873015873	86	127
282.49319727891157	282.6092970521542	83	127
282.64410430839	283.00403628117914	84	127
282.64410430839	283.1201360544218	67	127
282.64410430839	283.1201360544218	64	127
283.0272562358277	283.1433560090703	86	127
283.17818594104307	283.59614512471654	88	127
283.6077551020408	284.3275736961451	79	127
283.94444444444446	284.31596371882085	64	127
283.94444444444446	284.31596371882085	72	127
284.3275736961451	284.64104308390023	66	127
284.3275736961451	284.64104308390023	81	127
284.3275736961451	284.64104308390023	72	127
284.6526530612245	285.03578231292516	83	127
284.6526530612245	285.1867120181406	71	127
284.6526530612245	285.1867120181406	67	127
285.0590022675737	285.23315192743763	84	127
285.2447619047619	285.5930612244898	86	127
285.61625850340135	286.2548299319728	78	127
285.9181179138322	286.2432199546485	69	127
285.9181179138322	286.2432199546485	72	127
286.2548299319728	286.5566893424036	80	127
286.2548299319728	286.5566893424036	74	127
286.2548299319728	286.5566893424036	71	127
286.5682993197279	286.7772789115646	81	127
286.5682993197279	287.02108843537417	76	127
286.5682993197279	287.02108843537417	72	127
286.80049886621316	287.0442857142857	88	127
287.0559183673469	287.34616780045354	86	127
287.3577551020408	287.8685941043084	84	127
287.89183673469387	288.25174603174605	83	127
288.2865759637188	288.5419954648526	81	127
288.5768027210884	290.22544217687073	79	127
288.5768027210884	289.37791383219957	70	127
288.5768027210884	289.37791383219957	61	127
289.48240362811794	290.411201814059	40	127
289.48240362811794	290.411201814059	52	127
290.4692517006803	290.7478911564626	50	127
290.4692517006803	290.7478911564626	38	127
290.4692517006803	291.23548752834466	62	127
291.2471201814059	291.32839002267576	64	127
291.32839002267576	291.3748299319728	66	127
291.3748299319728	291.43287981859413	67	127
291.3748299319728	291.74632653061224	50	127
291.3748299319728	291.74632653061224	38	127
291.43287981859413	291.64183673469387	69	127
291.64183673469387	291.69990929705216	71	127
291.69990929705216	291.75795918367345	72	127
291.75795918367345	291.8740589569161	74	127
291.8740589569161	291.9669387755102	76	127
291.9669387755102	292.02498866213153	78	127
292.02498866213153	292.0830385487528	79	127
292.0830385487528	292.15267573696144	81	127
292.15267573696144	292.21074829931973	83	127
292.21074829931973	292.2804081632653	84	127
292.2804081632653	292.33845804988664	86	127
292.33845804988664	292.5706349206349	50	127
292.33845804988664	292.4081179138322	83	127
292.33845804988664	292.5706349206349	38	127
292.41972789115647	292.48938775510203	81	127
292.48938775510203	292.58226757369613	83	127
292.58226757369613	292.65192743764175	81	127
292.663514739229	292.87249433106575	83	127
292.87249433106575	292.9421768707483	81	127
292.9537868480726	293.37174603174606	83	127
293.37174603174606	293.46462585034016	81	127
293.46462585034016	293.5342857142857	83	127
293.54589569161	293.7548752834467	50	127
293.54589569161	293.61555555555555	81	127
293.54589569161	293.7548752834467	38	127
293.61555555555555	293.69680272108843	83	127
293.69680272108843	293.766485260771	81	127
293.77809523809526	293.9174149659864	83	127
293.9174149659864	293.99866213151927	81	127
294.0102947845805	294.09156462585037	83	127
294.09156462585037	294.1728344671202	81	127
294.09156462585037	294.3585941043084	62	127
294.1728344671202	294.25410430839	79	127
294.28893424036283	294.3934240362812	81	127
294.3934240362812	294.83460317460316	67	127
294.3934240362812	294.92748299319726	79	127
294.8578231292517	294.96231292517007	69	127
294.96231292517007	295.3338095238095	67	127
295.34544217687073	296.13492063492066	66	127
296.1697505668934	296.4832199546485	66	127
296.50643990929706	297.388798185941	67	127
297.121768707483	297.45845804988664	79	127
297.4700453514739	297.9344671201814	86	127
297.4700453514739	298.1318367346939	66	127
297.9808843537415	298.1666666666667	88	127
298.1666666666667	298.4685260770975	86	127
298.1666666666667	298.4685260770975	65	127
298.4801360544218	298.7587755102041	86	127
298.4801360544218	298.9793650793651	64	127
298.77038548752836	298.99097505668936	84	127
299.0258049886621	299.3857142857143	81	127
299.49020408163267	300.00104308390024	79	127
300.1984126984127	300.3841723356009	83	127
300.1984126984127	300.5815419501134	62	127
300.3841723356009	300.59315192743765	81	127
300.59315192743765	301.1039909297052	67	127
300.59315192743765	301.25489795918367	79	127
301.12721088435376	301.27814058956915	69	127
301.3361904761905	301.6496598639456	67	127
301.66124716553287	302.2765759637188	66	127
302.3346485260771	302.62489795918367	66	127
302.63650793650794	303.6581859410431	67	127
303.29825396825396	303.71621315192743	79	127
303.72784580498865	304.35478458049886	66	127
303.72784580498865	304.13419501133785	86	127
304.18063492063493	304.38961451247167	88	127
304.4128344671202	304.7843537414966	65	127
304.4128344671202	304.76113378684806	86	127
304.7843537414966	305.0049433106576	64	127
304.7843537414966	305.0049433106576	86	127
305.05138321995463	305.34160997732425	85	127
305.3532199546485	305.77120181405894	81	127
305.3532199546485	305.80603174603175	63	127
305.80603174603175	306.06142857142856	84	127
305.80603174603175	306.06142857142856	62	127
306.1311111111111	306.3865306122449	83	127
306.4097505668934	306.71160997732426	79	127
306.4097505668934	306.75804988662134	62	127
306.75804988662134	307.0599092970522	86	127
306.75804988662134	307.0599092970522	64	127
307.07151927437644	307.3733786848073	85	127
307.3965759637188	307.72167800453514	63	127
307.3965759637188	307.66362811791385	81	127
307.72167800453514	308.0467573696145	84	127
307.72167800453514	308.0467573696145	62	127
308.0583673469388	308.44149659863945	83	127
308.4531065759637	308.82460317460317	79	127
308.4531065759637	308.82460317460317	67	127
308.4531065759637	308.82460317460317	59	127
308.8362358276644	309.0335827664399	76	127
308.8362358276644	310.5429024943311	69	127
308.8362358276644	310.5429024943311	60	127
309.0335827664399	309.16131519274376	78	127
309.16131519274376	309.28902494331066	79	127
309.28902494331066	309.4399319727891	81	127
309.4399319727891	309.5444217687075	83	127
309.60249433106577	309.7185941043084	84	127
309.7302040816327	309.8695238095238	86	127
309.88113378684807	310.11333333333334	88	127
310.1249433106576	310.24104308390025	86	127
310.2526303854875	310.4035827664399	84	127
310.4151927437642	310.5312925170068	83	127
310.5429024943311	310.67061224489794	81	127
310.67061224489794	310.8215419501134	79	127
310.67061224489794	311.4484807256236	62	127
310.8215419501134	310.937641723356	81	127
310.937641723356	311.2278911564626	67	127
310.937641723356	311.0769387755102	82	127
310.937641723356	311.2278911564626	71	127
311.0769387755102	311.23950113378686	83	127
311.23950113378686	311.36721088435377	84	127
311.23950113378686	311.5065306122449	71	127
311.23950113378686	311.5065306122449	67	127
311.36721088435377	311.51814058956916	85	127
311.51814058956916	311.7155102040816	88	127
311.51814058956916	312.261179138322	62	127
311.7155102040816	311.84321995464853	86	127
311.84321995464853	312.0754195011338	67	127
311.84321995464853	311.95931972789117	84	127
311.84321995464853	312.0754195011338	71	127
311.97092970521544	312.0754195011338	83	127
312.0870294784581	312.3192290249433	71	127
312.0870294784581	312.19149659863945	81	127
312.0870294784581	312.3192290249433	67	127
312.2031065759637	312.34244897959184	79	127
312.3540589569161	312.4585487528345	83	127
312.3540589569161	313.3060770975057	62	127
312.4585487528345	312.5514285714286	81	127
312.5514285714286	312.702335600907	83	127
312.7139455782313	312.9926077097506	66	127
312.7139455782313	312.78362811791385	81	127
312.7139455782313	312.9926077097506	72	127
312.78362811791385	312.8881179138322	83	127
312.91131519274376	313.00421768707486	81	127
313.00421768707486	313.34090702947844	72	127
313.00421768707486	313.34090702947844	66	127
313.00421768707486	313.143537414966	83	127
313.143537414966	313.2131746031746	81	127
313.22478458049886	313.3525170068027	83	127
313.3525170068027	313.51505668934243	81	127
313.3525170068027	314.3509750566893	62	127
313.51505668934243	313.59632653061226	83	127
313.60793650793653	313.68920634920636	81	127
313.68920634920636	313.9562358276644	66	127
313.68920634920636	313.74725623582765	83	127
313.68920634920636	313.9562358276644	72	127
313.78208616780046	313.851746031746	81	127
313.851746031746	313.96784580498866	83	127
313.96784580498866	314.40902494331067	72	127
313.96784580498866	314.40902494331067	66	127
313.96784580498866	314.0374829931973	81	127
314.0491156462585	314.3045351473923	79	127
314.3045351473923	314.4322448979592	81	127
314.4322448979592	314.5367346938776	43	127
314.4322448979592	314.78054421768707	79	127
314.54832199546485	314.6528117913832	55	127
314.6760544217687	314.79215419501134	54	127
314.8153741496599	315.01274376417234	55	127
314.8153741496599	315.01274376417234	81	127
315.0359637188209	315.18689342403627	43	127
315.0359637188209	315.29138321995464	79	127
315.19850340136054	315.3029931972789	55	127
315.3146031746032	315.41909297052155	38	127
315.3146031746032	315.54680272108845	78	127
315.45392290249436	315.5584126984127	50	127
315.5584126984127	315.7209523809524	49	127
315.7209523809524	315.86027210884356	50	127
315.86027210884356	316.04603174603176	38	127
315.86027210884356	316.1621315192744	74	127
316.04603174603176	316.17374149659867	50	127
316.17374149659867	316.35950113378686	43	127
316.17374149659867	316.6961678004535	79	127
316.35950113378686	316.59167800453514	55	127
316.59167800453514	316.719410430839	54	127
316.719410430839	316.83551020408163	55	127
316.719410430839	316.83551020408163	81	127
316.83551020408163	317.18380952380954	79	127
316.83551020408163	317.0677097505669	43	127
317.0677097505669	317.18380952380954	55	127
317.1954195011338	317.4856689342404	86	127
317.1954195011338	317.31149659863945	38	127
317.32312925170066	317.5321088435374	50	127
317.54371882086167	317.71784580498866	49	127
317.72947845804987	317.8571882086168	50	127
317.86879818594105	318.0081179138322	38	127
317.86879818594105	318.14743764172334	74	127
318.0197052154195	318.1590476190476	50	127
318.1590476190476	318.63503401360543	79	127
318.1590476190476	318.36802721088435	43	127
318.36802721088435	318.5421768707483	55	127
318.5421768707483	318.6582766439909	54	127
318.6582766439909	318.8556462585034	81	127
318.6582766439909	318.8556462585034	55	127
318.8556462585034	318.971746031746	43	127
318.8556462585034	319.0762358276644	79	127
318.971746031746	319.12267573696147	55	127
319.12267573696147	319.3897052154195	78	127
319.12267573696147	319.2503628117914	38	127
319.2503628117914	319.41292517006804	50	127
319.41292517006804	319.5522222222222	49	127
319.5522222222222	319.7380045351474	50	127
319.7496145124717	319.87732426303853	38	127
319.7496145124717	320.0166439909297	74	127
319.8889342403628	320.0166439909297	50	127
320.028253968254	320.4229931972789	79	127
320.028253968254	320.19079365079364	43	127
320.2024036281179	320.31850340136054	55	127
320.3301133786848	320.44621315192745	54	127
320.4578231292517	320.6435827664399	81	127
320.4578231292517	320.6435827664399	55	127
320.6551927437642	320.85256235827666	43	127
320.6551927437642	320.9686621315193	79	127
320.85256235827666	320.98027210884356	55	127
320.98027210884356	321.3053514739229	86	127
320.98027210884356	321.1892290249433	38	127
321.1892290249433	321.31696145124715	50	127
321.31696145124715	321.4678911564626	49	127
321.4678911564626	321.58399092970524	50	127
321.58399092970524	321.7000680272109	38	127
321.58399092970524	321.8742403628118	74	127
321.7000680272109	321.8742403628118	50	127
321.8742403628118	322.22253968253966	79	127
321.8742403628118	322.22253968253966	43	127
322.2457596371882	322.3850793650794	86	127
322.52437641723355	322.86108843537414	74	127
322.52437641723355	322.86108843537414	50	127
322.86108843537414	323.1397052154195	79	127
322.86108843537414	323.1397052154195	43	127
323.24419501133787	323.3487074829932	86	127
323.5460544217687	323.9524036281179	74	127
323.5460544217687	323.9524036281179	50	127
323.9524036281179	324.30072562358276	43	127
323.9524036281179	324.30072562358276	79	127
