# onset,offset,note,velocity
0.986077097505669	2.216734693877551	40	127
2.216734693877551	3.110702947845805	43	127
3.110702947845805	3.412562358276644	47	127
3.412562358276644	4.585170068027211	48	127
4.585170068027211	5.7345578231292516	47	127
5.7345578231292516	6.001587301587302	45	127
6.001587301587302	6.175736961451247	47	127
6.175736961451247	6.3034467120181406	45	127
6.3034467120181406	6.419546485260771	43	127
6.6053061224489795	6.709795918367347	45	127
6.883945578231293	7.975283446712018	47	127
7.975283446712018	8.28875283446712	43	127
8.28875283446712	9.531020408163265	40	127
9.531020408163265	11.051927437641723	42	127
11.051927437641723	11.168027210884354	39	127
11.376984126984127	11.493106575963719	42	127
11.725283446712018	11.829795918367347	47	127
12.10843537414966	12.979183673469388	51	127
12.979183673469388	13.257823129251701	54	127
13.257823129251701	14.511700680272108	54	127
14.511700680272108	15.939727891156462	42	127
15.939727891156462	17.089115646258502	55	127
17.089115646258502	18.168843537414965	42	127
18.168843537414965	18.308163265306124	44	127
18.308163265306124	18.435873015873018	46	127
18.435873015873018	19.98	47	127
21.303537414965987	22.56902494331066	60	127
22.56902494331066	23.486213151927437	62	127
23.486213151927437	23.776462585034015	64	127
23.776462585034015	26.23777777777778	62	127
26.23777777777778	27.526485260770976	60	127
27.526485260770976	27.677414965986394	62	127
27.88639455782313	28.03732426303855	64	127
28.26952380952381	28.478503401360545	66	127
28.757142857142856	29.314421768707483	64	127
29.314421768707483	31.195238095238096	62	127
31.195238095238096	32.29818594104309	64	127
32.29818594104309	33.180521541950114	66	127
33.180521541950114	33.50562358276644	67	127
33.50562358276644	34.68981859410431	66	127
34.68981859410431	35.47931972789116	67	127
35.47931972789116	35.72312925170068	69	127
35.72312925170068	36.90734693877551	67	127
36.90734693877551	37.801315192743765	69	127
37.801315192743765	38.09156462585034	71	127
38.09156462585034	39.449931972789116	72	127
39.449931972789116	40.808299319727894	72	127
40.808299319727894	43.07222222222222	72	127
43.07222222222222	43.89655328798186	69	127
43.89655328798186	44.45383219954648	67	127
44.45383219954648	45.01111111111111	66	127
45.01111111111111	45.55678004535147	69	127
45.55678004535147	46.125668934240366	66	127
46.125668934240366	46.69455782312925	64	127
46.69455782312925	47.205396825396825	63	127
47.205396825396825	47.76267573696145	66	127
47.76267573696145	48.31995464852608	63	127
48.31995464852608	48.900453514739226	62	127
48.900453514739226	49.446122448979594	60	127
49.446122448979594	49.98018140589569	59	127
49.98018140589569	50.595510204081634	57	127
50.595510204081634	51.094739229024945	57	127
51.094739229024945	51.60557823129252	55	127
51.60557823129252	52.16285714285714	54	127
52.16285714285714	52.66208616780045	52	127
52.66208616780045	53.03360544217687	57	127
53.03360544217687	53.393514739229026	55	127
53.393514739229026	53.765034013605444	54	127
53.765034013605444	54.13655328798186	55	127
54.13655328798186	54.49646258503402	51	127
54.49646258503402	54.77510204081633	52	127
54.77510204081633	55.343990929705214	48	127
55.343990929705214	55.88965986394558	47	127
55.88965986394558	56.42371882086168	43	127
56.42371882086168	56.9809977324263	40	127
56.9809977324263	57.35251700680272	48	127
57.35251700680272	57.74725623582766	47	127
57.74725623582766	58.13038548752834	45	127
58.13038548752834	58.44385487528345	47	127
58.44385487528345	58.8037641723356	42	127
58.8037641723356	59.2449433106576	43	127
59.2449433106576	60.15052154195011	43	127
60.68458049886621	61.29990929705215	43	127
61.52049886621315	61.77591836734694	36	127
61.77591836734694	62.04294784580499	43	127
62.04294784580499	62.3215873015873	48	127
62.3215873015873	63.0762358276644	52	127
63.0762358276644	63.36648526077097	70	127
63.36648526077097	64.31850340136054	70	127
64.31850340136054	65.24730158730159	58	127
65.49111111111111	65.73492063492064	41	127
65.73492063492064	66.00195011337868	48	127
66.00195011337868	66.29219954648526	53	127
66.29219954648526	67.02362811791383	57	127
67.02362811791383	67.27904761904762	72	127
67.27904761904762	68.33555555555556	72	127
68.33555555555556	69.41528344671202	60	127
69.41528344671202	70.87814058956916	47	127
70.87814058956916	71.13356009070294	49	127
71.13356009070294	71.37736961451247	51	127
71.37736961451247	71.8998185941043	52	127
71.8998185941043	72.88666666666667	47	127
72.88666666666667	73.21174603174603	45	127
73.21174603174603	73.49038548752834	42	127
73.49038548752834	75.71950113378685	40	127
75.71950113378685	78.18081632653062	43	127
78.18081632653062	79.33020408163266	36	127
79.33020408163266	80.11968253968254	40	127
80.11968253968254	80.4795918367347	43	127
80.4795918367347	81.46643990929705	44	127
81.46643990929705	82.54616780045352	43	127
82.54616780045352	82.78997732426303	42	127
82.78997732426303	82.8944671201814	43	127
82.8944671201814	83.0221768707483	42	127
83.0221768707483	83.28920634920635	41	127
83.28920634920635	83.54462585034014	42	127
83.54462585034014	84.53147392290249	43	127
84.53147392290249	84.8565306122449	43	127
84.8565306122449	85.97111111111111	44	127
85.97111111111111	86.62124716553288	43	127
86.62124716553288	87.24820861678005	43	127
87.24820861678005	88.43242630385488	55	127
88.43242630385488	89.05936507936508	43	127
89.05936507936508	89.57020408163265	43	127
89.57020408163265	90.6267120181406	55	127
90.6267120181406	91.17238095238095	43	127
91.17238095238095	91.79931972789116	43	127
91.79931972789116	92.89065759637188	41	127
92.89065759637188	93.91233560090703	40	127
93.91233560090703	95.11977324263039	38	127
95.11977324263039	96.36204081632653	43	127
96.36204081632653	96.97736961451247	53	127
96.97736961451247	97.49981859410431	52	127
97.49981859410431	98.04548752834467	52	127
98.04548752834467	98.59115646258503	53	127
98.59115646258503	99.62444444444445	57	127
99.62444444444445	100.13528344671202	55	127
100.13528344671202	100.68095238095238	48	127
100.68095238095238	101.22662131519274	60	127
101.22662131519274	101.72585034013605	59	127
101.72585034013605	102.22507936507937	59	127
102.22507936507937	102.75913832199547	60	127
102.75913832199547	103.85047619047619	64	127
103.85047619047619	104.41936507936508	62	127
104.41936507936508	104.95342403628118	55	127
104.95342403628118	105.49909297052154	67	127
105.49909297052154	106.05637188208617	66	127
106.05637188208617	106.54399092970522	66	127
106.54399092970522	106.99678004535147	67	127
106.99678004535147	107.50761904761904	67	127
107.50761904761904	107.97201814058957	66	127
107.97201814058957	108.48285714285714	66	127
108.48285714285714	109.02852607709751	67	127
109.02852607709751	109.48131519274376	65	127
109.48131519274376	109.95732426303854	64	127
109.95732426303854	110.52621315192744	64	127
110.52621315192744	111.03705215419501	65	127
111.03705215419501	111.50145124716553	63	127
111.50145124716553	111.97746031746031	62	127
111.97746031746031	112.52312925170068	62	127
112.52312925170068	113.16167800453515	63	127
113.16167800453515	113.86988662131519	64	127
113.86988662131519	114.41555555555556	63	127
114.41555555555556	114.91478458049886	63	127
114.91478458049886	115.4372335600907	64	127
115.4372335600907	115.8784126984127	64	127
115.8784126984127	116.33120181405896	63	127
116.33120181405896	116.84204081632653	63	127
116.84204081632653	117.34126984126983	64	127
117.34126984126983	117.84049886621315	62	127
117.84049886621315	118.31650793650793	61	127
118.31650793650793	118.78090702947846	61	127
118.78090702947846	119.23369614512471	62	127
119.23369614512471	119.69809523809523	61	127
119.69809523809523	120.16249433106576	59	127
120.16249433106576	120.60367346938776	59	127
120.60367346938776	121.13773242630386	61	127
121.13773242630386	121.59052154195011	58	127
122.21746031746032	122.44965986394558	54	127
122.44965986394558	122.67024943310658	58	127
122.67024943310658	122.93727891156463	61	127
122.93727891156463	123.92412698412699	64	127
123.92412698412699	124.40013605442176	62	127
124.40013605442176	124.80648526077097	61	127
125.00385487528345	125.21283446712017	54	127
125.21283446712017	125.43342403628118	58	127
125.43342403628118	125.65401360544217	61	127
125.65401360544217	126.67569160997732	64	127
126.67569160997732	127.23297052154194	62	127
127.23297052154194	127.84829931972789	61	127
128.93963718820862	129.24149659863946	54	127
129.24149659863946	130.27478458049887	59	127
130.27478458049887	130.53020408163266	54	127
130.53020408163266	130.8320634920635	59	127
130.8320634920635	131.09909297052155	62	127
131.09909297052155	131.94662131519274	59	127
131.94662131519274	132.20204081632653	54	127
132.20204081632653	132.4690702947846	59	127
132.4690702947846	132.67804988662132	62	127
132.67804988662132	132.9334693877551	59	127
132.9334693877551	133.16566893424036	54	127
133.16566893424036	133.44430839002268	59	127
133.44430839002268	133.66487528344672	62	127
133.66487528344672	134.39632653061224	66	127
134.39632653061224	134.60530612244898	67	127
134.60530612244898	135.4180045351474	67	127
135.4180045351474	135.68503401360545	61	127
135.68503401360545	136.46290249433108	66	127
136.46290249433108	136.71832199546486	71	127
136.71832199546486	137.69356009070296	71	127
137.69356009070296	138.11149659863946	59	127
138.11149659863946	138.9938775510204	61	127
138.9938775510204	139.27251700680273	62	127
139.27251700680273	139.84140589569162	64	127
139.84140589569162	140.1316553287982	62	127
140.1316553287982	140.42190476190476	61	127
140.42190476190476	140.70054421768708	61	127
140.70054421768708	140.7701814058957	61	127
140.7701814058957	140.82825396825396	62	127
140.82825396825396	140.89791383219955	61	127
140.89791383219955	140.9443537414966	60	127
140.9443537414966	141.19977324263039	61	127
141.19977324263039	141.5132426303855	62	127
141.5132426303855	141.80349206349206	66	127
141.80349206349206	142.1401814058957	64	127
142.1401814058957	142.2330612244898	62	127
142.36077097505668	142.47687074829932	61	127
142.639410430839	143.44049886621315	59	127
143.44049886621315	143.71913832199547	61	127
143.71913832199547	144.49698412698413	58	127
144.49698412698413	144.76403628117913	61	127
144.76403628117913	145.48385487528344	56	127
145.48385487528344	145.77410430839004	61	127
145.77410430839004	146.55197278911564	54	127
155.28267573696147	155.57292517006803	42	127
155.57292517006803	155.89798185941044	43	127
155.89798185941044	156.21147392290248	45	127
156.21147392290248	156.53655328798186	43	127
156.53655328798186	156.76873015873016	42	127
156.76873015873016	157.04739229024943	43	127
157.04739229024943	157.3144217687075	45	127
157.3144217687075	157.61628117913833	43	127
157.61628117913833	157.94133786848073	41	127
157.94133786848073	158.24321995464854	42	127
158.24321995464854	158.54507936507937	43	127
158.54507936507937	159.47387755102042	42	127
159.47387755102042	159.7292970521542	40	127
159.7292970521542	160.70451247165533	40	127
160.70451247165533	160.9831746031746	39	127
160.9831746031746	161.9584126984127	39	127
161.9584126984127	162.29510204081632	38	127
162.29510204081632	163.28195011337868	38	127
163.63024943310657	163.9088888888889	37	127
163.9088888888889	164.21074829931973	40	127
164.21074829931973	164.51260770975057	38	127
164.51260770975057	165.10471655328797	37	127
165.10471655328797	165.42979591836735	38	127
165.42979591836735	165.7200453514739	40	127
165.98707482993197	166.2889342403628	37	127
166.2889342403628	166.6024036281179	40	127
166.6024036281179	166.9274829931973	38	127
166.9274829931973	167.577641723356	37	127
167.577641723356	167.87950113378685	38	127
167.87950113378685	168.20458049886622	40	127
168.5877097505669	168.84312925170067	41	127
168.84312925170067	169.63260770975057	41	127
169.63260770975057	169.91124716553287	42	127
169.91124716553287	170.7819954648526	42	127
170.7819954648526	171.11868480725624	43	127
171.11868480725624	172.12875283446712	43	127
172.12875283446712	172.3841723356009	41	127
172.3841723356009	173.22009070294786	41	127
173.22009070294786	174.56684807256235	42	127
177.10943310657598	178.36331065759637	46	127
177.10943310657598	178.36331065759637	52	127
181.61408163265307	182.20621315192744	54	127
182.20621315192744	182.85637188208617	47	127
182.85637188208617	183.58780045351475	66	127
183.58780045351475	184.24956916099774	59	127
184.24956916099774	184.84167800453514	54	127
184.84167800453514	185.50344671201813	47	127
185.50344671201813	186.21163265306123	54	127
186.21163265306123	186.8037641723356	47	127
186.8037641723356	187.4422902494331	54	127
187.4422902494331	187.98798185941044	47	127
187.98798185941044	188.64975056689343	54	127
188.64975056689343	189.29990929705215	47	127
189.29990929705215	189.9152380952381	54	127
189.9152380952381	190.5421768707483	47	127
190.5421768707483	191.1342857142857	54	127
191.1342857142857	191.76122448979592	47	127
191.76122448979592	192.4578231292517	54	127
192.4578231292517	192.98027210884354	47	127
193.82780045351473	194.41990929705216	66	127
194.41990929705216	195.0584580498866	69	127
195.0584580498866	195.7202267573696	68	127
195.7202267573696	196.30072562358276	67	127
196.30072562358276	196.9508843537415	66	127
196.9508843537415	197.53138321995465	65	127
197.53138321995465	197.87968253968253	66	127
197.87968253968253	198.2047619047619	59	127
198.2047619047619	198.91297052154195	62	127
198.91297052154195	199.79532879818595	61	127
199.79532879818595	200.53836734693877	63	127
200.53836734693877	200.82861678004537	64	127
200.82861678004537	201.1536961451247	61	127
201.1536961451247	201.74580498866214	64	127
201.74580498866214	202.40757369614514	63	127
202.40757369614514	203.03451247165532	61	127
203.03451247165532	203.71950113378685	59	127
203.71950113378685	205.06625850340137	54	127
205.06625850340137	205.69319727891155	59	127
205.69319727891155	206.36657596371882	54	127
206.36657596371882	207.62045351473924	51	127
215.19015873015874	216.52530612244897	40	127
216.52530612244897	217.46571428571428	43	127
217.46571428571428	217.76757369614512	47	127
217.76757369614512	218.998231292517	48	127
218.998231292517	220.20566893424035	47	127
220.20566893424035	220.48430839002268	45	127
220.48430839002268	220.6004081632653	47	127
220.6004081632653	220.73972789115646	45	127
220.73972789115646	220.84421768707483	43	127
221.0183673469388	221.18090702947845	45	127
221.37827664399094	222.2374149659864	47	127
222.2374149659864	222.53927437641724	43	127
222.53927437641724	223.81637188208617	40	127
223.81637188208617	225.20956916099775	42	127
225.20956916099775	225.3488888888889	39	127
225.6275283446712	225.7552380952381	42	127
225.92938775510203	226.0338775510204	47	127
226.31251700680272	227.2297052154195	51	127
227.2297052154195	227.5431746031746	54	127
227.5431746031746	228.78544217687076	54	127
228.78544217687076	230.0625396825397	42	127
230.0625396825397	231.39768707482995	55	127
231.39768707482995	232.36131519274377	42	127
232.36131519274377	232.5702947845805	44	127
232.5702947845805	232.6980045351474	46	127
232.6980045351474	234.24213151927438	47	127
235.57727891156463	236.81954648526076	60	127
236.81954648526076	237.71351473922903	62	127
237.71351473922903	238.01537414965986	64	127
238.01537414965986	240.44185941043085	62	127
240.44185941043085	241.63768707482993	60	127
241.63768707482993	241.78861678004534	62	127
242.00920634920635	242.17174603174604	64	127
242.39233560090702	242.5548752834467	66	127
242.79868480725622	243.40240362811792	64	127
243.40240362811792	245.17873015873016	62	127
245.17873015873016	246.35133786848073	64	127
246.35133786848073	247.23369614512472	66	127
247.23369614512472	247.57038548752834	67	127
247.57038548752834	248.66172335600908	66	127
248.66172335600908	249.52086167800454	67	127
249.52086167800454	249.8111111111111	69	127
249.8111111111111	250.9140589569161	67	127
250.9140589569161	251.81963718820862	69	127
251.81963718820862	252.10988662131518	71	127
252.10988662131518	253.50308390022676	72	127
253.50308390022676	255.17492063492062	72	127
255.17492063492062	257.1253968253968	72	127
257.1253968253968	258.01936507936506	69	127
258.01936507936506	258.6230612244898	67	127
258.6230612244898	259.1803628117914	66	127
259.1803628117914	259.69120181405896	69	127
259.69120181405896	260.2600680272109	66	127
260.2600680272109	260.8173696145125	64	127
260.8173696145125	261.3398185941043	63	127
261.3398185941043	261.9667573696145	66	127
261.9667573696145	262.5240362811791	63	127
262.5240362811791	262.9419954648526	62	127
262.9419954648526	263.487664399093	60	127
263.487664399093	264.04492063492063	59	127
264.04492063492063	264.5673922902494	57	127
264.5673922902494	265.00857142857143	57	127
265.00857142857143	265.54263038548754	55	127
265.54263038548754	266.0650793650794	54	127
266.0650793650794	266.6107482993197	52	127
266.6107482993197	266.94743764172335	57	127
266.94743764172335	267.29573696145127	55	127
267.29573696145127	267.7020861678005	54	127
267.7020861678005	268.05038548752833	55	127
268.05038548752833	268.39868480725625	51	127
268.39868480725625	268.7818140589569	52	127
268.7818140589569	269.26943310657595	48	127
269.26943310657595	269.7918820861678	47	127
269.7918820861678	270.24467120181407	43	127
270.24467120181407	270.7787301587302	40	127
270.7787301587302	271.19666666666666	48	127
271.19666666666666	271.5449886621315	47	127
271.5449886621315	271.88167800453516	45	127
271.88167800453516	272.28802721088437	47	127
272.28802721088437	272.65954648526076	42	127
272.65954648526076	273.01945578231295	43	127
273.01945578231295	274.14562358276646	43	127
274.5287528344671	275.10925170068026	43	127
275.3530612244898	275.60848072562356	36	127
275.60848072562356	275.87551020408165	43	127
275.87551020408165	276.1657596371882	48	127
276.1657596371882	276.8971882086168	52	127
276.8971882086168	277.1758276643991	70	127
277.1758276643991	278.13945578231295	70	127
278.13945578231295	279.1495238095238	58	127
279.3817006802721	279.5790702947846	41	127
279.5790702947846	279.8461224489796	48	127
279.8461224489796	280.13637188208617	53	127
280.13637188208617	280.86780045351475	57	127
280.86780045351475	281.18126984126985	72	127
281.18126984126985	282.22616780045354	72	127
282.22616780045354	283.3291156462585	60	127
283.3291156462585	284.8384126984127	47	127
284.8384126984127	285.04739229024943	49	127
285.04739229024943	285.30278911564625	51	127
285.30278911564625	285.778820861678	52	127
285.778820861678	286.83532879818597	47	127
286.83532879818597	287.1487755102041	45	127
287.1487755102041	287.43904761904764	42	127
287.43904761904764	289.70297052154194	40	127
289.70297052154194	292.1294784580499	43	127
292.1294784580499	293.2672562358277	36	127
293.2672562358277	294.0799546485261	40	127
294.0799546485261	294.38181405895693	43	127
294.38181405895693	295.46154195011337	44	127
295.46154195011337	296.5296598639456	43	127
296.5296598639456	296.7618367346939	42	127
296.7618367346939	296.8895691609977	43	127
296.8895691609977	297.01727891156463	42	127
297.01727891156463	297.31913832199547	41	127
297.31913832199547	297.64421768707484	42	127
297.64421768707484	298.59621315192743	43	127
298.59621315192743	298.886485260771	43	127
298.886485260771	299.95460317460316	44	127
299.95460317460316	300.6047619047619	43	127
300.6047619047619	301.3361904761905	43	127
301.3361904761905	302.53201814058957	55	127
302.53201814058957	303.0660770975057	43	127
303.0660770975057	303.61172335600907	43	127
303.61172335600907	304.71469387755104	55	127
304.71469387755104	305.27197278911564	43	127
305.27197278911564	305.8640589569161	43	127
305.8640589569161	306.99024943310656	41	127
306.99024943310656	308.11641723356007	40	127
308.11641723356007	309.3586848072562	38	127
309.3586848072562	310.64739229024946	43	127
310.64739229024946	311.27430839002267	53	127
311.27430839002267	311.86643990929707	52	127
311.86643990929707	312.3540589569161	52	127
312.3540589569161	312.8881179138322	53	127
312.8881179138322	313.9562358276644	57	127
313.9562358276644	314.4554648526077	55	127
314.4554648526077	314.97791383219953	48	127
314.97791383219953	315.47714285714284	60	127
315.47714285714284	315.95315192743766	59	127
315.95315192743766	316.4756009070295	59	127
316.4756009070295	316.99802721088435	60	127
316.99802721088435	318.1009977324263	64	127
318.1009977324263	318.63503401360543	62	127
318.63503401360543	319.2039455782313	55	127
319.2039455782313	319.7380045351474	67	127
319.7380045351474	320.28367346938774	66	127
320.28367346938774	320.8061224489796	66	127
320.8061224489796	321.2473015873016	67	127
321.2473015873016	321.76975056689344	67	127
321.76975056689344	322.23414965986393	66	127
322.23414965986393	322.76820861678004	66	127
322.76820861678004	323.24419501133787	67	127
323.24419501133787	323.7318367346939	65	127
323.7318367346939	324.21945578231293	64	127
324.21945578231293	324.71868480725624	64	127
324.71868480725624	325.2643537414966	65	127
325.2643537414966	325.79839002267573	63	127
325.79839002267573	326.29764172335604	62	127
326.29764172335604	326.8317006802721	62	127
326.8317006802721	327.5050793650794	63	127
327.5050793650794	328.1204081632653	64	127
328.1204081632653	328.5964172335601	63	127
328.5964172335601	329.14208616780047	63	127
329.14208616780047	329.6761224489796	64	127
329.6761224489796	330.11732426303854	64	127
330.11732426303854	330.5701133786848	63	127
330.5701133786848	331.0693424036281	63	127
331.0693424036281	331.5337414965986	64	127
331.5337414965986	331.9981405895692	62	127
331.9981405895692	332.4973696145125	61	127
332.4973696145125	332.9965986394558	61	127
332.9965986394558	333.3913378684807	62	127
333.3913378684807	333.86732426303854	61	127
333.86732426303854	334.33174603174604	59	127
334.33174603174604	334.8774149659864	59	127
334.8774149659864	335.33020408163264	61	127
335.33020408163264	335.7481632653061	58	127
336.45637188208616	336.5724716553288	54	127
336.5724716553288	336.8046712018141	58	127
336.8046712018141	337.0717006802721	61	127
337.0717006802721	337.9888888888889	64	127
337.9888888888889	338.49972789115645	62	127
338.49972789115645	338.95251700680274	61	127
339.17310657596374	339.40530612244896	54	127
339.40530612244896	339.5910430839002	58	127
339.5910430839002	339.846485260771	61	127
339.846485260771	340.85655328798185	64	127
340.85655328798185	341.40222222222224	62	127
341.40222222222224	341.98272108843537	61	127
343.0160090702948	343.2946485260771	54	127
343.2946485260771	344.38598639455785	59	127
344.38598639455785	344.6762358276644	54	127
344.6762358276644	344.9548752834467	59	127
344.9548752834467	345.2683446712018	62	127
345.2683446712018	346.1739229024943	59	127
346.1739229024943	346.4409297052154	54	127
346.4409297052154	346.69637188208617	59	127
346.69637188208617	346.97501133786847	62	127
346.97501133786847	347.1956009070295	59	127
347.1956009070295	347.4742176870748	54	127
347.4742176870748	347.7180498866213	59	127
347.7180498866213	347.9038095238095	62	127
347.9038095238095	348.69326530612244	66	127
348.69326530612244	348.9487074829932	67	127
348.9487074829932	349.73818594104307	67	127
349.73818594104307	350.0168253968254	61	127
350.0168253968254	350.87596371882086	66	127
350.87596371882086	351.1662131519274	71	127
351.1662131519274	352.3039909297052	71	127
352.3039909297052	352.58260770975056	59	127
352.58260770975056	353.46498866213153	61	127
353.46498866213153	353.74362811791383	62	127
353.74362811791383	354.31249433106575	64	127
354.31249433106575	354.59115646258505	62	127
354.59115646258505	354.8465759637188	61	127
354.8465759637188	355.14843537414964	61	127
355.14843537414964	355.21809523809526	61	127
355.21809523809526	355.2877551020408	62	127
355.2877551020408	355.3225850340136	61	127
355.3225850340136	355.36902494331065	60	127
355.36902494331065	355.62444444444446	61	127
355.62444444444446	355.9263038548753	62	127
355.9263038548753	356.27460317460316	66	127
356.27460317460316	356.5648299319728	64	127
356.5648299319728	356.69256235827663	62	127
356.85510204081635	356.971179138322	61	127
357.13374149659865	357.8071201814059	59	127
357.8071201814059	358.08575963718823	61	127
358.08575963718823	358.9332879818594	58	127
358.9332879818594	359.1887074829932	61	127
359.1887074829932	359.9433333333333	56	127
359.9433333333333	360.2219954648526	61	127
360.2219954648526	360.9534240362812	54	127
369.9279365079365	370.22979591836736	42	127
370.22979591836736	370.4968253968254	43	127
370.4968253968254	370.7522448979592	45	127
370.7522448979592	371.05410430839004	43	127
371.05410430839004	371.3443537414966	42	127
371.3443537414966	371.6578231292517	43	127
371.6578231292517	371.9829024943311	45	127
371.9829024943311	372.23832199546484	43	127
372.23832199546484	372.5285714285714	41	127
372.5285714285714	372.7956009070295	42	127
372.7956009070295	373.1671201814059	43	127
373.1671201814059	374.1075283446712	42	127
374.1075283446712	374.4209977324263	40	127
374.4209977324263	375.3265759637188	40	127
375.3265759637188	375.6516553287982	39	127
375.6516553287982	376.71977324263037	39	127
376.71977324263037	377.04485260770974	38	127
377.04485260770974	377.8691609977324	38	127
378.17102040816326	378.48448979591836	37	127
378.48448979591836	378.8327891156463	40	127
378.8327891156463	379.12303854875285	38	127
379.12303854875285	379.8196371882086	37	127
379.8196371882086	380.16793650793653	38	127
380.16793650793653	380.52784580498866	40	127
380.84131519274376	381.21283446712016	37	127
381.21283446712016	381.5030839002268	40	127
381.5030839002268	381.85138321995464	38	127
381.85138321995464	382.4667120181406	37	127
382.4667120181406	382.69891156462586	38	127
382.69891156462586	383.0007709750567	40	127
383.3606802721088	383.65092970521545	41	127
383.65092970521545	384.48684807256234	41	127
384.48684807256234	384.7538775510204	42	127
384.7538775510204	385.77555555555557	42	127
385.77555555555557	386.14707482993197	43	127
386.14707482993197	387.1339229024943	43	127
387.1339229024943	387.517052154195	41	127
387.517052154195	388.1672108843537	41	127
388.1672108843537	389.42108843537414	42	127
391.7895238095238	393.1478911564626	46	127
391.7895238095238	393.1478911564626	52	127
396.25936507936507	396.7934240362812	54	127
396.7934240362812	397.5132426303855	47	127
397.5132426303855	398.16340136054424	66	127
398.16340136054424	398.97609977324265	59	127
398.97609977324265	399.6030385487528	54	127
399.6030385487528	400.19514739229027	47	127
400.19514739229027	400.8104761904762	54	127
400.8104761904762	401.42580498866215	47	127
401.42580498866215	402.07596371882084	54	127
402.07596371882084	402.74934240362813	47	127
402.74934240362813	403.38789115646256	54	127
403.38789115646256	404.02643990929704	47	127
404.02643990929704	404.8043083900227	54	127
404.8043083900227	405.38480725623583	47	127
405.38480725623583	406.0465759637188	54	127
406.0465759637188	406.5806349206349	47	127
406.5806349206349	407.2424036281179	54	127
407.2424036281179	407.8461224489796	47	127
408.5659410430839	409.2044897959184	66	127
409.2044897959184	409.8894784580499	69	127
409.8894784580499	410.5280272108844	68	127
410.5280272108844	411.15496598639453	67	127
411.15496598639453	411.8283446712018	66	127
411.8283446712018	412.44367346938776	65	127
412.44367346938776	412.81519274376416	66	127
412.81519274376416	413.0938321995465	59	127
413.0938321995465	413.7439909297052	62	127
413.7439909297052	414.67278911564625	61	127
414.67278911564625	415.34616780045354	63	127
415.34616780045354	415.67124716553286	64	127
415.67124716553286	415.99632653061224	61	127
415.99632653061224	416.6697052154195	64	127
416.6697052154195	417.37791383219957	63	127
417.37791383219957	418.0048526077097	61	127
418.0048526077097	418.57374149659864	59	127
418.57374149659864	419.85083900226755	54	127
419.85083900226755	420.47777777777776	59	127
420.47777777777776	421.11632653061224	54	127
421.11632653061224	422.4863038548753	51	127
430.40430839002266	431.57691609977326	55	127
431.57691609977326	432.49410430839004	59	127
432.49410430839004	432.80757369614514	62	127
432.80757369614514	434.0730612244898	63	127
434.0730612244898	435.3269387755102	62	127
437.2309750566893	437.9043537414966	43	127
437.9043537414966	438.5080725623583	42	127
438.5080725623583	439.06535147392293	46	127
439.06535147392293	439.51814058956916	41	127
439.51814058956916	440.20312925170066	46	127
440.20312925170066	440.7255782312925	39	127
440.7255782312925	441.3176870748299	46	127
441.3176870748299	441.9910657596372	38	127
441.9910657596372	442.5367346938776	46	127
442.5367346938776	443.128843537415	36	127
443.128843537415	443.6280725623583	48	127
443.6280725623583	444.19696145124715	41	127
444.19696145124715	444.85873015873017	53	127
444.85873015873017	445.4392290249433	46	127
445.4392290249433	446.0661678004535	46	127
446.0661678004535	446.6582766439909	39	127
446.6582766439909	447.21555555555557	48	127
447.21555555555557	447.77283446712016	41	127
447.77283446712016	448.37655328798184	46	127
448.37655328798184	449.0151020408163	41	127
449.0151020408163	449.66526077097507	53	127
449.66526077097507	450.23414965986393	46	127
450.23414965986393	450.8843083900227	53	127
450.8843083900227	451.4415873015873	46	127
451.4415873015873	452.0104761904762	53	127
452.0104761904762	452.61419501133787	45	127
452.61419501133787	453.148253968254	51	127
453.148253968254	453.84485260770975	46	127
454.1467120181406	454.4485714285714	65	127
454.4485714285714	455.7372789115646	66	127
455.7372789115646	456.8518367346939	65	127
456.8518367346939	458.79070294784583	49	127
459.1041723356009	459.56857142857143	65	127
459.56857142857143	460.9037188208617	70	127
460.9037188208617	462.1575963718821	68	127
462.1575963718821	463.3418140589569	67	127
463.3418140589569	464.64213151927436	66	127
464.64213151927436	464.9439909297052	65	127
464.9439909297052	465.09492063492064	66	127
465.09492063492064	465.24585034013603	65	127
465.24585034013603	465.54770975056687	63	127
465.54770975056687	465.9192290249433	65	127
465.9192290249433	466.9176870748299	66	127
466.9176870748299	467.3008163265306	63	127
467.3008163265306	468.5663038548753	61	127
468.5663038548753	469.878231292517	63	127
469.878231292517	470.5167800453515	65	127
470.5167800453515	471.80548752834466	49	127
471.80548752834466	473.1406349206349	49	127
473.1406349206349	474.2784126984127	49	127
474.2784126984127	475.67160997732424	37	127
475.67160997732424	476.79777777777775	37	127
476.79777777777775	478.0748752834467	49	127
478.0748752834467	479.2590929705215	49	127
479.56095238095236	479.88603174603173	61	127
479.88603174603173	481.04702947845806	70	127
481.04702947845806	482.32412698412696	68	127
482.32412698412696	482.9162358276644	41	127
482.9162358276644	484.03079365079367	41	127
484.30943310657597	484.6112925170068	65	127
484.6112925170068	485.7490702947846	74	127
485.7490702947846	486.60820861678	72	127
486.60820861678	486.9332879818594	65	127
486.9332879818594	488.0710657596372	71	127
488.0710657596372	488.593514739229	72	127
488.86054421768705	489.1043537414966	65	127
489.1043537414966	490.2421315192744	71	127
490.2421315192744	490.7761904761905	72	127
491.0548299319728	491.3218594104308	65	127
491.3218594104308	492.3783673469388	69	127
492.3783673469388	492.9124263038549	70	127
493.1794557823129	493.51614512471656	64	127
493.51614512471656	494.5842630385487	68	127
494.5842630385487	495.1647619047619	69	127
495.1647619047619	495.74526077097505	65	127
495.59433106575966	495.6756009070295	56	127
495.6756009070295	495.74526077097505	49	127
495.74526077097505	496.24448979591835	41	127
496.24448979591835	496.801768707483	65	127
496.66244897959183	496.7321088435374	57	127
496.7321088435374	496.801768707483	48	127
496.801768707483	497.4054875283447	41	127
497.4054875283447	497.9859863945578	65	127
497.82344671201815	497.8931065759637	56	127
497.8931065759637	497.9859863945578	49	127
497.9859863945578	498.5316553287982	41	127
498.5316553287982	499.1237641723356	65	127
498.9844444444444	499.05410430839004	57	127
499.05410430839004	499.1237641723356	48	127
499.1237641723356	499.73909297052154	41	127
499.73909297052154	500.2615419501134	65	127
500.1222222222222	500.1918820861678	57	127
500.1918820861678	500.2615419501134	48	127
500.2615419501134	500.818820861678	41	127
500.818820861678	501.39931972789117	65	127
501.2483900226757	501.31804988662134	58	127
501.31804988662134	501.39931972789117	50	127
501.39931972789117	501.9449886621315	41	127
501.9449886621315	502.46743764172334	65	127
502.3281179138322	502.3977777777778	58	127
502.3977777777778	502.46743764172334	50	127
502.46743764172334	503.0131065759637	41	127
503.0131065759637	503.64004535147393	65	127
503.45428571428573	503.53555555555556	57	127
503.53555555555556	503.64004535147393	48	127
503.64004535147393	504.2553741496599	41	127
504.2553741496599	504.80104308390025	65	127
504.67333333333335	504.73138321995464	56	127
504.73138321995464	504.80104308390025	49	127
504.80104308390025	505.3467120181406	41	127
505.3467120181406	505.92721088435377	65	127
505.7762811791383	505.8459410430839	57	127
505.8459410430839	505.92721088435377	48	127
505.92721088435377	506.5077097505669	41	127
506.5077097505669	507.0998185941043	65	127
506.96049886621313	507.03015873015875	56	127
507.03015873015875	507.0998185941043	49	127
507.0998185941043	507.71514739229025	41	127
507.71514739229025	508.2956462585034	65	127
508.12149659863945	508.21437641723355	57	127
508.21437641723355	508.2956462585034	48	127
508.2956462585034	508.85292517006803	41	127
508.85292517006803	509.4914739229025	65	127
509.3289342403628	509.4102040816326	56	127
509.4102040816326	509.4914739229025	49	127
509.4914739229025	510.16485260770975	41	127
510.16485260770975	510.838231292517	65	127
510.6873015873016	510.75696145124715	57	127
510.75696145124715	510.838231292517	48	127
510.838231292517	511.38390022675736	41	127
511.38390022675736	511.941179138322	65	127
511.80185941043084	511.8715192743764	53	127
511.8715192743764	511.941179138322	43	127
511.941179138322	512.4868480725623	36	127
512.4868480725623	513.1370068027211	60	127
512.9512471655329	513.0325170068028	52	127
513.0325170068028	513.1370068027211	43	127
513.1370068027211	513.7871655328798	36	127
513.7871655328798	514.4605442176871	48	127
514.7740136054422	515.0526530612245	36	127
515.0526530612245	516.1323809523809	41	127
516.1323809523809	516.4458503401361	36	127
516.4458503401361	516.7709297052154	41	127
516.7709297052154	517.0379591836735	44	127
517.0379591836735	517.7345578231293	41	127
517.7345578231293	517.9551247165533	36	127
517.9551247165533	518.1757369614512	41	127
518.1757369614512	518.4195464852608	44	127
518.4195464852608	518.6401360544218	41	127
518.6401360544218	518.8955555555556	36	127
518.8955555555556	519.1857823129252	41	127
519.1857823129252	519.4528344671202	44	127
519.4528344671202	520.2655328798186	48	127
520.2655328798186	520.5209523809524	46	127
520.5209523809524	521.298820861678	46	127
521.298820861678	521.6006802721089	45	127
521.6006802721089	522.6107482993198	45	127
522.6107482993198	522.889387755102	44	127
522.889387755102	523.4466666666667	44	127
523.4466666666667	524.2709750566894	53	127
523.4466666666667	524.2709750566894	46	127
524.2709750566894	524.5147845804988	53	127
524.5147845804988	525.1301133786848	65	127
525.1301133786848	525.4319727891157	53	127
525.4319727891157	525.710612244898	53	127
525.710612244898	526.4884807256236	46	127
525.710612244898	526.4884807256236	53	127
526.4884807256236	526.8251700680272	53	127
526.8251700680272	527.3940589569161	65	127
527.3940589569161	527.6610884353742	53	127
527.6610884353742	527.916507936508	53	127
528.1719047619048	528.4273469387755	55	127
528.4273469387755	528.9846031746032	67	127
529.2980952380952	529.5419047619048	55	127
529.5419047619048	530.1572335600907	67	127
530.4939229024943	530.8538321995464	43	127
530.8538321995464	531.3646712018141	55	127
531.666507936508	531.9567800453515	36	127
531.9567800453515	532.3282993197279	43	127
531.9567800453515	532.3282993197279	52	127
531.9567800453515	532.3282993197279	60	127
533.2106575963719	533.4892743764173	48	127
533.4892743764173	534.3600453514739	51	127
534.3600453514739	534.6154648526077	48	127
534.6154648526077	534.8592743764173	51	127
534.8592743764173	535.1146938775511	53	127
535.1146938775511	535.950589569161	51	127
535.950589569161	536.1944217687075	48	127
536.1944217687075	536.4266213151927	51	127
536.4266213151927	536.6936507936508	53	127
536.6936507936508	536.9490702947846	51	127
536.9490702947846	537.2277097505669	48	127
537.2277097505669	537.494739229025	51	127
537.494739229025	537.7733786848073	53	127
537.7733786848073	538.5396371882086	51	127
538.5396371882086	538.818253968254	63	127
538.818253968254	539.5729251700681	63	127
540.2695238095238	541.6511111111112	50	127
540.2695238095238	541.6511111111112	66	127
541.6511111111112	541.9529705215419	50	127
541.9529705215419	542.881768707483	55	127
542.881768707483	543.1604081632653	50	127
543.1604081632653	543.4390476190476	55	127
543.4390476190476	543.717664399093	59	127
543.717664399093	544.5884353741496	55	127
544.5884353741496	544.8438548752835	50	127
544.8438548752835	545.0760544217687	55	127
545.0760544217687	545.2966439909297	59	127
545.2966439909297	545.5520408163266	55	127
545.5520408163266	545.8307029478458	50	127
545.8307029478458	546.1209523809524	55	127
546.1209523809524	546.3995918367347	59	127
546.3995918367347	547.1774603174604	62	127
547.1774603174604	547.4560997732426	67	127
547.4560997732426	548.3500680272109	67	127
548.3500680272109	548.7215873015873	68	127
548.7215873015873	549.54589569161	68	127
549.54589569161	550.0683219954649	65	127
550.0683219954649	550.648843537415	64	127
550.648843537415	551.1945124716553	62	127
551.1945124716553	551.8098412698413	61	127
551.8098412698413	552.3206802721088	58	127
552.3206802721088	552.9127664399093	57	127
552.9127664399093	553.4700680272109	55	127
553.4700680272109	554.0621768707483	54	127
554.0621768707483	554.5962358276644	51	127
554.5962358276644	555.1651020408164	50	127
555.1651020408164	555.768820861678	48	127
556.5002721088435	556.9994784580499	51	127
556.9994784580499	557.6148072562358	50	127
557.6148072562358	558.1488888888889	48	127
558.1488888888889	558.636485260771	47	127
565.9043537414966	566.4384126984127	54	127
566.4384126984127	566.9724716553288	59	127
566.9724716553288	567.4833106575963	57	127
567.4833106575963	568.0173696145125	55	127
568.0173696145125	568.52820861678	54	127
568.52820861678	569.0506575963719	52	127
569.0506575963719	569.3176870748299	54	127
569.3176870748299	569.6195464852608	49	127
569.6195464852608	570.1536054421769	52	127
570.1536054421769	570.6992517006803	51	127
570.6992517006803	571.2913832199547	50	127
571.2913832199547	571.5468027210884	52	127
571.5468027210884	571.7906122448979	47	127
571.7906122448979	572.278231292517	50	127
572.278231292517	572.8122902494331	48	127
572.8122902494331	573.3231292517007	45	127
573.3231292517007	573.8571882086168	43	127
573.8571882086168	574.4376870748299	42	127
574.4376870748299	576.1791836734694	47	127
578.1877097505669	578.7333786848072	55	127
578.7333786848072	579.2326077097506	54	127
579.2326077097506	580.5793650793651	59	127
582.5066213151928	582.9709977324263	52	127
582.9709977324263	583.5050793650794	47	127
583.5050793650794	584.0275283446712	59	127
584.5964172335601	585.1536961451247	52	127
585.1536961451247	585.7225850340136	47	127
585.7225850340136	586.2798639455782	59	127
586.9532426303855	587.4989115646258	52	127
587.4989115646258	588.7527891156462	47	127
589.5654875283446	590.157596371882	52	127
590.157596371882	591.8642630385488	47	127
591.8642630385488	592.4099319727891	48	127
592.4099319727891	594.1165986394558	47	127
594.1165986394558	595.3820861678005	45	127
595.3820861678005	596.1715646258504	42	127
596.1715646258504	597.6228117913832	40	127
597.6228117913832	598.4703401360545	43	127
598.4703401360545	598.7489795918367	47	127
598.7489795918367	599.9099773242631	48	127
599.9099773242631	600.9780725623583	47	127
600.9780725623583	601.233514739229	45	127
601.233514739229	601.361224489796	47	127
601.361224489796	601.5121541950114	45	127
601.5121541950114	601.628253968254	43	127
601.8140136054421	601.9533333333334	45	127
602.1390929705216	603.0214285714286	47	127
603.0214285714286	603.2884807256236	43	127
603.2884807256236	604.2637188208616	40	127
604.2637188208616	605.4131065759638	42	127
605.4131065759638	605.691746031746	42	127
605.691746031746	605.7962358276644	39	127
605.9355555555555	606.0632653061225	42	127
606.2490249433107	606.3651247165533	47	127
606.5276643990929	607.3519727891156	51	127
607.3519727891156	607.6538321995465	54	127
607.6538321995465	608.78	54	127
608.78	609.9061678004535	42	127
609.9061678004535	611.1484353741497	55	127
611.1484353741497	612.1236734693878	42	127
612.1236734693878	612.2629931972789	44	127
612.2629931972789	612.4139002267574	46	127
612.4139002267574	613.5749206349207	47	127
614.7591383219955	615.9897959183673	60	127
615.9897959183673	616.8837641723356	62	127
616.8837641723356	617.1507936507936	64	127
617.1507936507936	619.2521995464853	62	127
619.2521995464853	620.3899546485261	60	127
620.3899546485261	620.5525170068028	62	127
620.7498866213152	620.9008163265306	64	127
621.1330158730159	621.272335600907	66	127
621.4813151927438	622.0269614512472	64	127
622.0269614512472	623.6639682539683	62	127
623.6639682539683	624.7785487528345	64	127
624.7785487528345	625.6028571428571	66	127
625.6028571428571	625.8698866213152	67	127
625.8698866213152	626.9844444444444	66	127
626.9844444444444	627.8087528344671	67	127
627.8087528344671	628.0873922902495	69	127
628.0873922902495	629.2483900226757	67	127
629.2483900226757	630.0959183673469	69	127
630.0959183673469	630.4209750566894	71	127
630.4209750566894	631.6168253968254	72	127
631.6168253968254	632.9287528344671	72	127
632.9287528344671	634.6354195011338	72	127
634.6354195011338	635.2275283446712	69	127
635.2275283446712	635.7731972789115	67	127
635.7731972789115	636.3304761904762	66	127
636.3304761904762	636.852925170068	69	127
636.852925170068	637.3985941043084	66	127
637.3985941043084	637.8397732426304	64	127
637.8397732426304	638.3854195011338	63	127
638.3854195011338	638.9543310657597	66	127
638.9543310657597	639.5116099773243	63	127
639.5116099773243	640.0456689342403	62	127
640.0456689342403	640.5797278911565	60	127
640.5797278911565	641.1021768707483	59	127
641.1021768707483	641.6362358276644	57	127
641.6362358276644	642.0309750566894	57	127
642.0309750566894	642.5534240362812	55	127
642.5534240362812	643.0990702947846	54	127
643.0990702947846	643.6331519274377	52	127
643.6331519274377	644.0395011337869	57	127
644.0395011337869	644.4342403628118	55	127
644.4342403628118	644.7477097505669	54	127
644.7477097505669	645.1308163265306	55	127
645.1308163265306	645.4791383219955	51	127
645.4791383219955	645.769387755102	52	127
645.769387755102	646.3150566893424	48	127
646.3150566893424	646.7678231292517	47	127
646.7678231292517	647.2554648526077	43	127
647.2554648526077	647.8591836734694	40	127
647.8591836734694	648.2190929705215	48	127
648.2190929705215	648.5441723356009	47	127
648.5441723356009	648.8808616780045	45	127
648.8808616780045	649.2756009070295	47	127
649.2756009070295	649.6354875283447	42	127
649.6354875283447	649.9838095238096	43	127
649.9838095238096	651.0751247165533	43	127
651.4931065759637	652.0503854875284	43	127
652.3638548752834	652.6308843537415	36	127
652.6308843537415	652.828253968254	43	127
652.828253968254	653.1184807256236	48	127
653.1184807256236	653.8731519274377	52	127
653.8731519274377	654.1285487528345	70	127
654.1285487528345	655.0225396825397	70	127
655.0225396825397	655.9977777777777	58	127
656.2880272108844	656.4853968253968	41	127
656.4853968253968	656.6943764172336	48	127
656.6943764172336	656.9265759637188	53	127
656.9265759637188	657.7973242630386	57	127
657.7973242630386	658.0759637188208	72	127
658.0759637188208	659.0860317460317	72	127
659.0860317460317	660.3166893424036	60	127
660.3166893424036	661.9536961451247	47	127
661.9536961451247	662.1742857142857	49	127
662.1742857142857	662.4413151927438	51	127
662.4413151927438	662.940544217687	52	127
662.940544217687	663.9622222222222	47	127
663.9622222222222	664.2756916099773	45	127
664.2756916099773	664.6123809523809	42	127
664.6123809523809	667.0504761904762	40	127
667.0504761904762	669.7091609977324	36	127
669.7091609977324	670.7888888888889	41	127
670.7888888888889	671.6131972789116	45	127
671.6131972789116	671.8686167800454	48	127
671.8686167800454	673.0296145124717	49	127
673.0296145124717	674.0977324263039	48	127
674.0977324263039	674.3531519274377	47	127
674.3531519274377	674.4808616780045	48	127
674.4808616780045	674.6317913832199	47	127
674.6317913832199	674.9452607709751	46	127
674.9452607709751	675.2239002267573	47	127
675.2239002267573	676.0714285714286	48	127
676.0714285714286	676.3732879818594	48	127
676.3732879818594	677.6039455782313	49	127
677.6039455782313	678.3237641723356	48	127
678.3237641723356	678.9507029478458	48	127
678.9507029478458	680.1581405895691	48	127
680.1581405895691	680.7270068027211	36	127
680.7270068027211	681.2726984126984	36	127
681.2726984126984	682.3988662131519	48	127
682.3988662131519	683.0141950113378	36	127
683.0141950113378	683.5830612244898	36	127
683.5830612244898	684.697641723356	46	127
684.697641723356	685.847029478458	45	127
685.847029478458	687.0080272108844	43	127
687.0080272108844	688.2734920634921	48	127
688.2734920634921	688.8307936507937	58	127
688.8307936507937	689.4112925170068	57	127
689.4112925170068	689.9221088435374	57	127
689.9221088435374	690.4678004535148	58	127
690.4678004535148	691.535918367347	62	127
691.535918367347	692.0467573696145	60	127
692.0467573696145	692.5459863945579	53	127
692.5459863945579	693.0916553287982	65	127
693.0916553287982	693.5908616780046	64	127
693.5908616780046	694.0785034013605	64	127
694.0785034013605	694.5893424036282	65	127
694.5893424036282	695.6226303854876	69	127
695.6226303854876	696.1334693877551	67	127
696.1334693877551	696.6791383219954	60	127
696.6791383219954	697.2364172335601	72	127
697.2364172335601	697.7008163265306	71	127
697.7008163265306	698.2000453514739	71	127
698.2000453514739	698.6992517006803	72	127
698.6992517006803	699.2565532879819	72	127
699.2565532879819	699.7441723356009	71	127
699.7441723356009	700.23179138322	71	127
700.23179138322	700.719410430839	72	127
700.719410430839	701.2302494331066	70	127
701.2302494331066	701.6714285714286	69	127
701.6714285714286	702.2054875283446	69	127
702.2054875283446	702.6698866213152	70	127
702.6698866213152	703.1807256235828	68	127
703.1807256235828	703.7263945578231	67	127
703.7263945578231	704.295283446712	67	127
704.295283446712	705.0034920634921	68	127
705.0034920634921	705.5956009070295	69	127
705.5956009070295	706.106439909297	68	127
706.106439909297	706.6172789115647	68	127
706.6172789115647	707.1281179138322	69	127
707.1281179138322	707.5925170068027	69	127
707.5925170068027	708.1149433106576	68	127
708.1149433106576	708.5677551020408	68	127
708.5677551020408	709.0902040816327	69	127
709.0902040816327	709.5545804988662	67	127
709.5545804988662	710.030612244898	66	127
710.030612244898	710.47179138322	66	127
710.47179138322	710.9245804988662	67	127
710.9245804988662	711.3889569160998	66	127
711.3889569160998	711.8069160997733	64	127
711.8069160997733	712.282947845805	64	127
712.282947845805	712.7821768707483	66	127
712.7821768707483	713.2814058956916	63	127
713.9663945578232	714.1869841269842	47	127
714.1869841269842	714.3843537414966	51	127
714.3843537414966	714.6513605442177	54	127
714.6513605442177	715.6962811791383	57	127
715.6962811791383	716.0793877551021	55	127
716.0793877551021	716.520589569161	54	127
716.7643990929705	717.0198185941043	59	127
717.0198185941043	717.2287981859411	63	127
717.2287981859411	717.4842176870749	66	127
717.4842176870749	718.5523129251701	69	127
718.5523129251701	719.0863945578232	67	127
719.0863945578232	719.6785034013606	66	127
720.758231292517	721.0600907029478	59	127
721.0600907029478	722.1978684807257	64	127
722.1978684807257	722.4881179138322	59	127
722.4881179138322	722.7551473922903	64	127
722.7551473922903	723.0453741496599	67	127
723.0453741496599	723.8232653061225	64	127
723.8232653061225	724.0786848072562	59	127
724.0786848072562	724.3457142857143	64	127
724.3457142857143	724.5895238095238	67	127
724.5895238095238	724.8449433106576	64	127
724.8449433106576	725.0655328798186	59	127
725.0655328798186	725.2860997732427	64	127
725.2860997732427	725.5647619047619	67	127
725.5647619047619	726.2613605442177	71	127
726.2613605442177	726.5516099773242	72	127
726.5516099773242	727.2946485260771	72	127
727.2946485260771	727.550045351474	66	127
727.550045351474	728.4208163265306	71	127
728.4208163265306	728.74589569161	76	127
728.74589569161	729.7095238095238	76	127
729.7095238095238	730.2319727891156	64	127
730.2319727891156	731.0795011337868	66	127
731.0795011337868	731.4045804988663	67	127
731.4045804988663	731.9966893424037	69	127
731.9966893424037	732.3333786848073	67	127
732.3333786848073	732.5771882086168	66	127
732.5771882086168	732.8326077097506	67	127
732.8326077097506	732.9138775510204	69	127
732.9138775510204	732.9719274376417	67	127
732.9719274376417	733.0531746031746	66	127
733.0531746031746	733.3318367346939	66	127
733.3318367346939	733.6336961451248	67	127
733.6336961451248	734.0052154195012	71	127
734.0052154195012	734.3070748299319	69	127
734.3070748299319	734.57410430839	67	127
734.57410430839	734.8411337868481	66	127
734.8411337868481	735.6422222222222	64	127
735.6422222222222	735.8976417233561	66	127
735.8976417233561	736.6871201814059	63	127
736.6871201814059	736.9773696145124	66	127
736.9773696145124	737.8016780045351	61	127
737.8016780045351	738.0803174603175	66	127
738.0803174603175	738.7885034013606	59	127
738.7885034013606	739.5315646258504	47	127
739.5315646258504	742.2250793650794	43	127
739.5315646258504	742.2250793650794	52	127
742.5501587301587	742.8636054421769	40	127
742.5501587301587	742.8636054421769	52	127
742.8636054421769	743.444126984127	43	127
742.8636054421769	743.444126984127	55	127
743.444126984127	745.0463038548753	40	127
743.444126984127	745.0463038548753	52	127
745.3481632653061	745.6268027210884	40	127
745.3481632653061	745.6268027210884	52	127
745.6268027210884	746.0447619047619	55	127
745.6268027210884	746.0447619047619	43	127
746.0447619047619	747.0083900226757	40	127
746.0447619047619	747.0083900226757	52	127
747.0083900226757	747.4727891156463	43	127
747.4727891156463	747.7746258503402	52	127
747.4727891156463	747.7746258503402	40	127
747.7746258503402	748.1345578231293	55	127
747.7746258503402	748.1345578231293	43	127
748.1345578231293	748.4248072562358	52	127
748.4248072562358	748.6918367346939	43	127
748.6918367346939	748.958866213152	52	127
748.958866213152	749.2375056689342	55	127
749.2375056689342	749.5277551020408	52	127
749.5277551020408	749.8179818594105	43	127
749.8179818594105	750.1198639455782	52	127
750.1198639455782	750.549433106576	55	127
750.549433106576	751.5478911564626	59	127
751.5478911564626	751.8961904761904	60	127
751.8961904761904	752.7669387755102	60	127
752.7669387755102	753.0571882086168	59	127
753.0571882086168	753.9395464852607	59	127
753.9395464852607	754.3342630385488	60	127
754.3342630385488	755.6229931972789	60	127
755.6229931972789	755.9248526077098	59	127
755.9248526077098	756.9581405895692	54	127
756.9581405895692	757.3644897959184	55	127
757.3644897959184	757.9798185941044	57	127
757.9798185941044	758.2700680272109	55	127
758.2700680272109	758.5951473922903	54	127
758.5951473922903	759.4542857142857	54	127
759.4542857142857	759.7909750566894	55	127
759.7909750566894	760.1160544217687	59	127
760.1160544217687	760.4411337868481	57	127
760.4411337868481	760.7778231292517	55	127
760.7778231292517	761.1261224489796	54	127
761.1261224489796	761.9504308390023	52	127
761.9504308390023	762.2522902494331	54	127
762.2522902494331	763.1462585034013	52	127
763.1462585034013	763.4132879818594	54	127
763.4132879818594	764.2956462585034	52	127
764.2956462585034	764.6787755102041	54	127
764.6787755102041	765.7120634920635	52	127
765.7120634920635	766.2693424036281	54	127
766.2693424036281	767.0472108843537	52	127
767.0472108843537	767.6741496598639	47	127
768.9744671201814	771.1455328798186	48	127
771.1455328798186	771.8073015873016	47	127
775.0813151927438	775.7430839002268	47	127
775.7430839002268	776.3584126984127	40	127
776.3584126984127	777.0434013605442	59	127
777.0434013605442	777.6703401360544	52	127
777.6703401360544	778.3204988662131	47	127
778.3204988662131	778.9474376417234	40	127
778.9474376417234	779.5395464852608	47	127
779.5395464852608	780.1316553287982	40	127
780.1316553287982	780.7934240362812	47	127
780.7934240362812	781.4319727891157	40	127
781.4319727891157	782.0937414965987	47	127
782.0937414965987	782.6974603174604	40	127
782.6974603174604	783.3127891156463	47	127
783.3127891156463	783.9629478458049	40	127
783.9629478458049	784.5434467120182	47	127
784.5434467120182	785.2400453514739	40	127
785.2400453514739	785.8669841269841	47	127
785.8669841269841	786.435873015873	40	127
787.1556916099773	787.8987301587301	59	127
787.8987301587301	788.5024489795918	62	127
788.5024489795918	789.1642176870748	61	127
789.1642176870748	789.744716553288	60	127
789.744716553288	790.3368253968254	59	127
790.3368253968254	790.9753741496598	58	127
790.9753741496598	791.2656235827665	59	127
791.2656235827665	791.5790929705215	52	127
791.5790929705215	792.2408616780045	55	127
792.2408616780045	792.9606802721088	54	127
792.9606802721088	793.8546485260771	68	127
793.8546485260771	794.2145578231292	69	127
794.2145578231292	794.5628571428572	66	127
794.5628571428572	795.3407256235828	69	127
795.3407256235828	795.9328344671202	68	127
795.9328344671202	796.5249433106576	66	127
796.5249433106576	797.1518820861678	64	127
797.1518820861678	798.4057596371882	59	127
798.4057596371882	799.0326984126984	64	127
799.0326984126984	799.6480272108844	59	127
799.6480272108844	800.9135147392291	56	127
800.9135147392291	801.4707936507937	57	127
801.4707936507937	802.0280725623583	56	127
802.0280725623583	803.4444897959183	54	127
803.4444897959183	804.0830385487528	56	127
804.0830385487528	804.6867573696145	54	127
804.6867573696145	805.8477551020408	52	127
805.8477551020408	806.5675736961451	54	127
806.5675736961451	807.2177324263039	52	127
807.2177324263039	809.342358276644	47	127
809.342358276644	809.9809070294784	54	127
809.9809070294784	810.7007256235828	52	127
810.7007256235828	811.5018140589569	47	127
811.5018140589569	812.1868027210884	40	127
812.1868027210884	812.8369614512471	47	127
812.8369614512471	813.3942403628118	40	127
813.3942403628118	814.067619047619	47	127
814.067619047619	814.7874376417234	40	127
814.7874376417234	816.0761451247165	40	127
816.0761451247165	816.6798639455782	47	127
816.6798639455782	817.3996825396825	40	127
817.3996825396825	818.8625396825397	40	127
819.2804988662132	819.5939682539682	59	127
819.5939682539682	822.3687528344672	60	127
822.3687528344672	824.922947845805	59	127
824.922947845805	827.7441723356009	57	127
827.7441723356009	830.089387755102	56	127
830.089387755102	831.4361451247165	54	127
831.4361451247165	832.7829024943311	61	127
832.7829024943311	833.9090702947846	59	127
833.9090702947846	835.4067573696145	57	127
835.4067573696145	836.0569160997733	56	127
842.7210430839002	843.4873015873015	40	127
843.4873015873015	844.6831292517007	52	127
844.6831292517007	846.0298866213152	53	127
846.0298866213152	847.2721541950114	51	127
847.2721541950114	848.4099319727891	52	127
848.4099319727891	849.7799092970522	49	127
849.7799092970522	852.4037641723356	48	127
852.4037641723356	853.0539229024944	47	127
853.0539229024944	853.6808616780046	56	127
853.6808616780046	854.9927891156462	54	127
854.9927891156462	856.2814965986395	61	127
856.2814965986395	857.45410430839	59	127
857.45410430839	858.8008616780045	57	127
858.8008616780045	859.9386394557823	56	127
859.9386394557823	861.1228571428571	71	127
861.1228571428571	862.3651247165533	69	127
862.3651247165533	863.5145124716553	68	127
863.5145124716553	864.6987301587302	66	127
864.6987301587302	865.882947845805	64	127
865.882947845805	867.0555555555555	63	127
867.0555555555555	868.355873015873	61	127
868.355873015873	869.632970521542	60	127
869.632970521542	871.0609977324264	59	127
871.0609977324264	872.8837641723356	58	127
872.8837641723356	873.6268027210884	59	127
873.6268027210884	874.2885714285715	56	127
874.2885714285715	874.9503401360545	54	127
874.9503401360545	875.5656689342403	52	127
875.5656689342403	877.4348752834467	47	127
877.4348752834467	878.328843537415	54	127
878.328843537415	879.1415419501134	52	127
879.1415419501134	879.5362811791383	47	127
880.4534693877551	883.4720634920635	44	127
883.4720634920635	886.0262585034013	44	127
886.0262585034013	890.9953287981859	44	127
