# onset,offset,note,velocity
1.5317460317460319	1.7987755102040817	76	127
1.5317460317460319	1.7987755102040817	52	127
1.5317460317460319	1.7987755102040817	55	127
1.5317460317460319	1.7987755102040817	71	127
1.5317460317460319	1.7987755102040817	67	127
1.5317460317460319	1.7987755102040817	59	127
1.5317460317460319	1.7987755102040817	64	127
2.8436734693877552	3.0526530612244898	71	127
2.8436734693877552	3.0526530612244898	52	127
2.8436734693877552	3.0526530612244898	55	127
2.8436734693877552	3.0526530612244898	59	127
2.8436734693877552	3.0526530612244898	67	127
2.8436734693877552	3.0526530612244898	76	127
2.8436734693877552	3.0526530612244898	64	127
3.993061224489796	4.202040816326531	66	127
3.993061224489796	4.202040816326531	76	127
3.993061224489796	4.202040816326531	52	127
3.993061224489796	4.202040816326531	54	127
3.993061224489796	4.202040816326531	57	127
3.993061224489796	4.202040816326531	69	127
3.993061224489796	4.202040816326531	64	127
5.142448979591837	5.38625850340136	67	127
5.142448979591837	5.38625850340136	59	127
5.142448979591837	5.38625850340136	55	127
5.142448979591837	5.38625850340136	52	127
5.142448979591837	5.38625850340136	76	127
5.142448979591837	5.38625850340136	71	127
5.142448979591837	5.38625850340136	64	127
6.3034467120181406	6.535646258503402	72	127
6.3034467120181406	6.535646258503402	76	127
6.3034467120181406	6.535646258503402	52	127
6.3034467120181406	6.535646258503402	54	127
6.3034467120181406	6.535646258503402	66	127
6.3034467120181406	6.535646258503402	64	127
6.3034467120181406	6.535646258503402	60	127
7.580544217687075	7.917233560090703	71	127
7.580544217687075	7.917233560090703	76	127
7.580544217687075	7.917233560090703	52	127
7.580544217687075	7.917233560090703	55	127
7.580544217687075	7.917233560090703	59	127
7.580544217687075	7.917233560090703	64	127
7.580544217687075	7.917233560090703	67	127
8.86922902494331	9.194331065759638	71	127
8.86922902494331	9.194331065759638	64	127
8.86922902494331	9.194331065759638	59	127
8.86922902494331	9.194331065759638	55	127
8.86922902494331	9.194331065759638	52	127
8.86922902494331	9.194331065759638	79	127
8.86922902494331	9.194331065759638	76	127
8.86922902494331	9.194331065759638	67	127
10.111519274376418	10.401768707482994	66	127
10.111519274376418	10.401768707482994	70	127
10.111519274376418	10.401768707482994	73	127
10.111519274376418	10.401768707482994	78	127
10.111519274376418	10.401768707482994	54	127
10.111519274376418	10.401768707482994	58	127
10.111519274376418	10.401768707482994	61	127
11.376984126984127	11.632426303854876	66	127
11.376984126984127	11.632426303854876	54	127
11.376984126984127	11.632426303854876	75	127
11.376984126984127	11.632426303854876	71	127
11.376984126984127	11.632426303854876	59	127
11.376984126984127	11.632426303854876	63	127
11.376984126984127	11.632426303854876	78	127
12.654104308390023	12.921133786848072	75	127
12.654104308390023	12.921133786848072	66	127
12.654104308390023	12.921133786848072	71	127
12.654104308390023	12.921133786848072	54	127
12.654104308390023	12.921133786848072	59	127
12.654104308390023	12.921133786848072	63	127
13.896371882086168	14.198231292517006	66	127
13.896371882086168	14.198231292517006	71	127
13.896371882086168	14.198231292517006	73	127
13.896371882086168	14.198231292517006	54	127
13.896371882086168	14.198231292517006	59	127
13.896371882086168	14.198231292517006	61	127
15.185079365079366	15.51015873015873	66	127
15.185079365079366	15.51015873015873	54	127
15.185079365079366	15.51015873015873	58	127
15.185079365079366	15.51015873015873	61	127
15.185079365079366	15.51015873015873	70	127
15.185079365079366	15.51015873015873	73	127
16.520226757369613	16.7756462585034	64	127
16.520226757369613	16.7756462585034	73	127
16.520226757369613	16.7756462585034	76	127
16.520226757369613	16.7756462585034	52	127
16.520226757369613	16.7756462585034	59	127
16.520226757369613	16.7756462585034	61	127
16.520226757369613	16.7756462585034	71	127
17.739274376417235	18.11077097505669	66	127
17.739274376417235	18.11077097505669	61	127
17.739274376417235	18.11077097505669	58	127
17.739274376417235	18.11077097505669	54	127
17.739274376417235	18.11077097505669	73	127
17.739274376417235	18.11077097505669	70	127
19.353061224489796	19.643310657596373	75	127
19.353061224489796	19.643310657596373	54	127
19.353061224489796	19.643310657596373	71	127
19.353061224489796	19.643310657596373	63	127
19.353061224489796	19.643310657596373	66	127
19.353061224489796	19.643310657596373	59	127
20.595328798185943	20.85074829931973	66	127
20.595328798185943	20.85074829931973	63	127
20.595328798185943	20.85074829931973	71	127
20.595328798185943	20.85074829931973	47	127
20.595328798185943	20.85074829931973	59	127
21.988526077097507	22.27877551020408	64	127
21.988526077097507	22.27877551020408	59	127
21.988526077097507	22.27877551020408	72	127
21.988526077097507	22.27877551020408	67	127
23.184331065759636	23.42816326530612	64	127
23.184331065759636	23.42816326530612	57	127
23.184331065759636	23.42816326530612	72	127
23.184331065759636	23.42816326530612	67	127
24.49628117913832	24.774920634920633	60	127
24.49628117913832	24.774920634920633	74	127
24.49628117913832	24.774920634920633	69	127
24.49628117913832	24.774920634920633	66	127
24.49628117913832	24.774920634920633	62	127
25.645668934240362	25.924308390022677	74	127
25.645668934240362	25.924308390022677	62	127
25.645668934240362	25.924308390022677	67	127
25.645668934240362	25.924308390022677	59	127
26.89954648526077	27.143356009070295	59	127
26.89954648526077	27.143356009070295	64	127
26.89954648526077	27.143356009070295	67	127
26.89954648526077	27.143356009070295	72	127
28.072154195011336	28.31596371882086	72	127
28.072154195011336	28.31596371882086	57	127
28.072154195011336	28.31596371882086	69	127
28.072154195011336	28.31596371882086	64	127
29.314421768707483	29.60467120181406	69	127
29.314421768707483	29.60467120181406	60	127
29.314421768707483	29.60467120181406	62	127
29.314421768707483	29.60467120181406	66	127
29.314421768707483	29.60467120181406	74	127
30.568299319727892	30.82371882086168	62	127
30.568299319727892	30.82371882086168	59	127
30.568299319727892	30.82371882086168	74	127
30.568299319727892	30.82371882086168	67	127
31.729297052154195	31.98471655328798	67	127
31.729297052154195	31.98471655328798	64	127
31.729297052154195	31.98471655328798	59	127
31.729297052154195	31.98471655328798	72	127
32.913492063492065	33.12249433106576	57	127
32.913492063492065	33.12249433106576	64	127
32.913492063492065	33.12249433106576	69	127
32.913492063492065	33.12249433106576	72	127
34.0512925170068	34.353151927437644	60	127
34.0512925170068	34.353151927437644	74	127
34.0512925170068	34.353151927437644	69	127
34.0512925170068	34.353151927437644	66	127
35.21229024943311	35.42126984126984	66	127
35.21229024943311	35.42126984126984	59	127
35.21229024943311	35.42126984126984	74	127
35.21229024943311	35.42126984126984	71	127
36.384897959183675	36.57065759637188	62	127
36.384897959183675	36.57065759637188	76	127
36.384897959183675	36.57065759637188	71	127
36.384897959183675	36.57065759637188	67	127
37.51106575963719	37.74324263038549	69	127
37.51106575963719	37.74324263038549	72	127
37.51106575963719	37.74324263038549	76	127
37.51106575963719	37.74324263038549	60	127
38.79977324263039	39.0784126984127	69	127
38.79977324263039	39.0784126984127	66	127
38.79977324263039	39.0784126984127	81	127
38.79977324263039	39.0784126984127	72	127
40.06526077097506	40.35551020408163	72	127
40.06526077097506	40.35551020408163	67	127
40.06526077097506	40.35551020408163	64	127
40.06526077097506	40.35551020408163	84	127
40.06526077097506	40.35551020408163	79	127
41.48167800453515	41.71387755102041	78	127
41.574557823129254	41.71387755102041	63	127
41.574557823129254	41.71387755102041	81	127
41.64421768707483	41.71387755102041	66	127
41.71387755102041	44.45383219954648	72	127
41.71387755102041	44.45383219954648	78	127
41.71387755102041	44.45383219954648	81	127
41.71387755102041	44.45383219954648	84	127
41.71387755102041	44.45383219954648	90	127
41.71387755102041	44.45383219954648	63	127
41.71387755102041	44.45383219954648	66	127
41.71387755102041	44.45383219954648	69	127
50.595510204081634	51.60557823129252	76	127
50.595510204081634	51.60557823129252	64	127
51.60557823129252	52.395056689342404	67	127
51.60557823129252	52.395056689342404	79	127
52.395056689342404	52.66208616780045	83	127
52.395056689342404	52.66208616780045	71	127
52.66208616780045	53.207755102040814	66	127
52.66208616780045	53.765034013605444	76	127
52.66208616780045	53.765034013605444	84	127
52.66208616780045	53.765034013605444	64	127
52.66208616780045	53.765034013605444	72	127
53.207755102040814	54.32231292517007	69	127
53.765034013605444	54.77510204081633	71	127
53.765034013605444	54.77510204081633	64	127
53.765034013605444	54.77510204081633	83	127
53.765034013605444	54.77510204081633	76	127
54.32231292517007	54.77510204081633	67	127
54.77510204081633	55.0653514739229	81	127
54.77510204081633	55.0653514739229	69	127
54.77510204081633	56.9809977324263	76	127
54.77510204081633	56.9809977324263	64	127
55.0653514739229	55.20467120181406	83	127
55.0653514739229	55.20467120181406	71	127
55.20467120181406	55.343990929705214	69	127
55.20467120181406	55.343990929705214	81	127
55.343990929705214	55.599410430839	79	127
55.343990929705214	55.599410430839	67	127
55.599410430839	55.88965986394558	69	127
55.599410430839	55.88965986394558	81	127
55.88965986394558	56.725578231292516	83	127
55.88965986394558	56.725578231292516	71	127
56.725578231292516	56.9809977324263	67	127
56.725578231292516	56.9809977324263	79	127
56.9809977324263	58.13038548752834	55	127
56.9809977324263	58.13038548752834	76	127
56.9809977324263	58.13038548752834	67	127
56.9809977324263	58.13038548752834	64	127
58.13038548752834	59.50036281179138	55	127
58.13038548752834	59.50036281179138	65	127
58.13038548752834	59.50036281179138	67	127
58.13038548752834	59.50036281179138	74	127
58.13038548752834	59.50036281179138	77	127
58.13038548752834	59.50036281179138	62	127
59.2449433106576	59.50036281179138	71	127
59.50036281179138	59.70934240362812	74	127
59.50036281179138	59.70934240362812	62	127
59.70934240362812	59.96476190476191	65	127
59.70934240362812	59.96476190476191	77	127
59.96476190476191	60.15052154195011	83	127
59.96476190476191	60.15052154195011	71	127
60.15052154195011	60.96321995464853	74	127
60.15052154195011	60.96321995464853	86	127
60.68458049886621	61.29990929705215	55	127
60.68458049886621	61.29990929705215	53	127
60.68458049886621	61.29990929705215	59	127
60.68458049886621	61.29990929705215	62	127
60.96321995464853	61.29990929705215	79	127
60.96321995464853	61.29990929705215	91	127
61.29990929705215	63.36648526077097	64	127
61.29990929705215	62.3215873015873	79	127
61.29990929705215	62.3215873015873	91	127
61.29990929705215	63.36648526077097	52	127
61.29990929705215	63.36648526077097	55	127
61.29990929705215	63.36648526077097	60	127
62.3215873015873	63.36648526077097	67	127
62.3215873015873	63.36648526077097	79	127
63.36648526077097	63.58707482993197	36	127
63.58707482993197	63.86571428571428	64	127
63.58707482993197	63.86571428571428	43	127
63.86571428571428	64.06308390022676	48	127
63.86571428571428	64.06308390022676	67	127
64.06308390022676	64.31850340136054	72	127
64.06308390022676	64.31850340136054	52	127
64.31850340136054	64.7712925170068	55	127
64.31850340136054	65.01510204081633	76	127
64.7712925170068	65.24730158730159	48	127
64.7712925170068	65.24730158730159	60	127
65.01510204081633	65.24730158730159	81	127
65.01510204081633	65.24730158730159	65	127
65.01510204081633	65.24730158730159	77	127
65.24730158730159	66.29219954648526	60	127
65.24730158730159	66.29219954648526	48	127
65.24730158730159	66.29219954648526	53	127
65.24730158730159	66.29219954648526	57	127
65.24730158730159	66.29219954648526	69	127
65.24730158730159	66.29219954648526	77	127
65.24730158730159	66.29219954648526	81	127
66.29219954648526	67.27904761904762	65	127
66.29219954648526	67.27904761904762	69	127
66.77981859410431	67.27904761904762	41	127
67.27904761904762	67.55768707482993	33	127
67.55768707482993	67.81310657596372	45	127
67.55768707482993	67.81310657596372	57	127
67.81310657596372	68.0685260770975	48	127
67.81310657596372	68.0685260770975	60	127
68.0685260770975	68.33555555555556	65	127
68.0685260770975	68.33555555555556	53	127
68.33555555555556	68.57936507936508	69	127
68.33555555555556	68.57936507936508	57	127
68.57936507936508	68.86961451247166	72	127
68.57936507936508	68.86961451247166	60	127
68.86961451247166	69.14825396825397	77	127
68.86961451247166	69.14825396825397	65	127
69.41528344671202	69.68231292517007	35	127
69.68231292517007	69.96095238095238	59	127
69.68231292517007	69.96095238095238	47	127
69.96095238095238	70.14671201814059	52	127
69.96095238095238	70.14671201814059	64	127
70.14671201814059	70.43696145124717	67	127
70.14671201814059	70.43696145124717	55	127
70.43696145124717	70.65755102040816	71	127
70.43696145124717	70.65755102040816	59	127
70.65755102040816	70.87814058956916	76	127
70.65755102040816	70.87814058956916	64	127
70.87814058956916	71.13356009070294	81	127
70.87814058956916	71.13356009070294	69	127
70.87814058956916	71.37736961451247	71	127
70.87814058956916	71.37736961451247	59	127
71.13356009070294	71.37736961451247	66	127
71.13356009070294	71.37736961451247	78	127
71.37736961451247	71.66759637188208	71	127
71.37736961451247	71.66759637188208	79	127
71.37736961451247	71.66759637188208	59	127
71.66759637188208	71.8998185941043	55	127
71.8998185941043	72.20167800453515	59	127
71.8998185941043	72.20167800453515	71	127
72.20167800453515	72.35260770975057	76	127
72.20167800453515	72.35260770975057	64	127
72.35260770975057	72.64285714285714	79	127
72.35260770975057	72.64285714285714	67	127
72.64285714285714	72.88666666666667	83	127
72.64285714285714	72.88666666666667	71	127
72.88666666666667	73.21174603174603	85	127
72.88666666666667	73.21174603174603	73	127
72.88666666666667	73.49038548752834	81	127
72.88666666666667	73.49038548752834	69	127
73.21174603174603	73.49038548752834	75	127
73.21174603174603	73.49038548752834	87	127
73.49038548752834	74.02444444444444	76	127
73.49038548752834	74.02444444444444	67	127
73.49038548752834	74.02444444444444	88	127
73.49038548752834	74.02444444444444	79	127
74.59333333333333	76.79922902494332	76	127
74.59333333333333	76.79922902494332	79	127
74.59333333333333	76.79922902494332	88	127
74.59333333333333	76.79922902494332	55	127
74.59333333333333	76.79922902494332	64	127
74.59333333333333	76.79922902494332	67	127
76.79922902494332	78.18081632653062	65	127
76.79922902494332	77.12430839002268	86	127
76.79922902494332	78.18081632653062	74	127
76.79922902494332	78.18081632653062	77	127
76.79922902494332	78.18081632653062	55	127
76.79922902494332	78.18081632653062	62	127
77.44938775510204	77.69319727891157	83	127
78.18081632653062	78.78453514739229	60	127
78.18081632653062	78.41301587301588	72	127
78.18081632653062	78.41301587301588	84	127
78.18081632653062	78.78453514739229	64	127
78.41301587301588	78.59877551020408	76	127
78.59877551020408	78.78453514739229	84	127
78.78453514739229	78.99351473922903	79	127
78.78453514739229	79.33020408163266	64	127
78.78453514739229	79.33020408163266	67	127
78.99351473922903	79.15603174603174	76	127
79.15603174603174	79.33020408163266	79	127
79.33020408163266	79.52757369614513	77	127
79.33020408163266	79.82943310657596	62	127
79.33020408163266	79.82943310657596	65	127
79.52757369614513	79.66687074829932	74	127
79.66687074829932	79.82943310657596	77	127
79.82943310657596	80.02678004535147	76	127
79.82943310657596	80.4795918367347	60	127
79.82943310657596	80.4795918367347	64	127
80.02678004535147	80.20095238095239	72	127
80.20095238095239	80.4795918367347	76	127
80.4795918367347	81.46643990929705	63	127
80.4795918367347	80.65374149659864	75	127
80.4795918367347	81.46643990929705	54	127
80.4795918367347	81.46643990929705	60	127
80.65374149659864	80.81628117913833	72	127
80.81628117913833	80.978820861678	75	127
80.978820861678	81.14136054421769	72	127
81.14136054421769	81.28068027210884	75	127
81.28068027210884	81.46643990929705	72	127
81.46643990929705	81.65219954648526	76	127
81.46643990929705	82.05854875283447	55	127
81.46643990929705	82.05854875283447	60	127
81.46643990929705	82.05854875283447	64	127
81.65219954648526	81.8263492063492	72	127
81.8263492063492	82.05854875283447	76	127
82.05854875283447	82.54616780045352	64	127
82.05854875283447	82.20947845804989	79	127
82.05854875283447	82.54616780045352	60	127
82.05854875283447	82.54616780045352	67	127
82.20947845804989	82.37201814058957	76	127
82.37201814058957	82.54616780045352	79	127
82.54616780045352	83.0221768707483	68	127
82.54616780045352	83.54462585034014	60	127
82.54616780045352	83.54462585034014	63	127
82.54616780045352	82.70868480725623	80	127
82.70868480725623	82.85963718820862	75	127
82.85963718820862	83.0221768707483	80	127
83.0221768707483	83.20793650793651	84	127
83.0221768707483	83.54462585034014	72	127
83.20793650793651	83.38208616780045	75	127
83.38208616780045	83.54462585034014	84	127
83.54462585034014	83.78843537414966	79	127
83.54462585034014	84.19478458049886	67	127
83.54462585034014	84.19478458049886	60	127
83.78843537414966	84.02063492063492	76	127
84.02063492063492	84.19478458049886	79	127
84.19478458049886	84.8565306122449	55	127
84.19478458049886	84.4385941043084	76	127
84.19478458049886	84.8565306122449	60	127
84.4385941043084	84.64757369614513	72	127
84.64757369614513	84.8565306122449	76	127
84.8565306122449	85.97111111111111	63	127
84.8565306122449	85.97111111111111	54	127
84.8565306122449	85.97111111111111	60	127
84.8565306122449	85.04231292517007	75	127
85.04231292517007	85.21646258503401	72	127
85.21646258503401	85.42544217687075	75	127
85.42544217687075	85.61120181405896	72	127
85.61120181405896	85.79696145124717	75	127
85.79696145124717	85.97111111111111	72	127
85.97111111111111	86.15687074829933	76	127
85.97111111111111	86.62124716553288	55	127
85.97111111111111	86.62124716553288	60	127
85.97111111111111	86.62124716553288	64	127
86.15687074829933	86.34263038548752	72	127
86.34263038548752	86.62124716553288	76	127
86.62124716553288	87.24820861678005	67	127
86.62124716553288	86.80702947845805	79	127
86.62124716553288	87.24820861678005	64	127
86.80702947845805	87.02759637188208	76	127
87.02759637188208	87.24820861678005	79	127
87.24820861678005	88.43242630385488	65	127
87.24820861678005	87.44557823129252	81	127
87.24820861678005	87.88675736961451	69	127
87.44557823129252	87.67777777777778	77	127
87.67777777777778	87.88675736961451	81	127
87.88675736961451	88.08412698412698	86	127
87.88675736961451	88.43242630385488	74	127
88.08412698412698	88.2698866213152	77	127
88.2698866213152	88.43242630385488	86	127
88.43242630385488	88.66460317460317	79	127
88.43242630385488	89.05936507936508	67	127
88.43242630385488	89.05936507936508	64	127
88.66460317460317	88.86199546485261	76	127
88.86199546485261	89.05936507936508	79	127
89.05936507936508	89.57020408163265	64	127
89.05936507936508	89.19868480725624	84	127
89.05936507936508	89.57020408163265	72	127
89.19868480725624	89.39605442176871	76	127
89.39605442176871	89.57020408163265	84	127
89.57020408163265	90.6267120181406	62	127
89.57020408163265	89.7443537414966	77	127
89.57020408163265	90.0926530612245	65	127
89.7443537414966	89.91848072562358	74	127
89.91848072562358	90.0926530612245	77	127
90.0926530612245	90.26680272108844	83	127
90.0926530612245	90.6267120181406	71	127
90.26680272108844	90.45253968253968	74	127
90.45253968253968	90.6267120181406	83	127
90.6267120181406	90.78925170068027	81	127
90.6267120181406	91.17238095238095	69	127
90.6267120181406	91.17238095238095	60	127
90.78925170068027	90.97501133786848	72	127
90.97501133786848	91.17238095238095	81	127
91.17238095238095	91.79931972789116	60	127
91.17238095238095	91.36975056689343	76	127
91.17238095238095	91.79931972789116	64	127
91.36975056689343	91.59034013605442	72	127
91.59034013605442	91.79931972789116	76	127
91.79931972789116	92.89065759637188	53	127
91.79931972789116	91.9734693877551	76	127
91.79931972789116	92.33337868480726	60	127
91.79931972789116	92.33337868480726	64	127
91.9734693877551	92.13600907029479	72	127
92.13600907029479	92.33337868480726	76	127
92.33337868480726	92.89065759637188	62	127
92.33337868480726	92.5075283446712	74	127
92.33337868480726	92.89065759637188	59	127
92.5075283446712	92.71650793650794	71	127
92.71650793650794	92.89065759637188	74	127
92.89065759637188	93.37827664399093	62	127
92.89065759637188	93.0415873015873	74	127
92.89065759637188	93.37827664399093	59	127
92.89065759637188	93.91233560090703	52	127
93.0415873015873	93.22734693877551	71	127
93.22734693877551	93.37827664399093	74	127
93.37827664399093	93.52920634920635	76	127
93.37827664399093	93.91233560090703	60	127
93.37827664399093	93.91233560090703	64	127
93.52920634920635	93.73818594104308	72	127
93.73818594104308	93.91233560090703	76	127
93.91233560090703	94.12131519274377	79	127
93.91233560090703	95.11977324263039	50	127
93.97038548752835	95.11977324263039	57	127
94.04004535147392	95.11977324263039	60	127
94.12131519274377	94.37673469387755	72	127
94.14453514739229	95.11977324263039	67	127
94.37673469387755	94.59732426303854	79	127
94.59732426303854	94.78308390022676	72	127
94.78308390022676	94.92240362811792	79	127
94.92240362811792	95.11977324263039	72	127
95.11977324263039	96.36204081632653	59	127
95.11977324263039	95.73510204081633	65	127
95.11977324263039	95.31714285714285	77	127
95.11977324263039	96.36204081632653	55	127
95.31714285714285	95.50290249433107	71	127
95.50290249433107	95.73510204081633	77	127
95.73510204081633	95.92086167800454	74	127
95.73510204081633	96.36204081632653	62	127
95.92086167800454	96.17628117913833	65	127
96.17628117913833	96.36204081632653	74	127
96.36204081632653	96.54780045351474	79	127
96.36204081632653	97.49981859410431	48	127
96.54780045351474	96.73356009070295	70	127
96.73356009070295	96.97736961451247	67	127
96.97736961451247	97.13990929705216	72	127
97.13990929705216	97.30244897959183	70	127
97.30244897959183	97.49981859410431	60	127
97.49981859410431	97.69718820861678	72	127
97.49981859410431	98.04548752834467	36	127
97.69718820861678	97.88294784580499	70	127
97.88294784580499	98.04548752834467	60	127
98.04548752834467	98.23124716553288	72	127
98.04548752834467	98.59115646258503	36	127
98.23124716553288	98.40539682539682	69	127
98.40539682539682	98.59115646258503	60	127
98.59115646258503	98.77691609977325	82	127
98.59115646258503	99.62444444444445	48	127
98.77691609977325	98.96267573696146	76	127
98.96267573696146	99.11360544217688	70	127
99.11360544217688	99.2645351473923	76	127
99.2645351473923	99.46190476190476	70	127
99.46190476190476	99.62444444444445	64	127
99.62444444444445	99.81020408163265	76	127
99.62444444444445	100.13528344671202	36	127
99.81020408163265	99.99596371882086	70	127
99.99596371882086	100.13528344671202	64	127
100.13528344671202	100.32104308390022	77	127
100.13528344671202	100.68095238095238	36	127
100.32104308390022	100.49519274376418	69	127
100.49519274376418	100.68095238095238	65	127
100.68095238095238	100.86671201814059	81	127
100.68095238095238	101.72585034013605	48	127
100.86671201814059	101.04086167800453	77	127
101.04086167800453	101.22662131519274	69	127
101.22662131519274	101.38916099773243	79	127
101.38916099773243	101.5517006802721	77	127
101.5517006802721	101.72585034013605	67	127
101.72585034013605	102.22507936507937	36	127
101.72585034013605	101.91160997732426	79	127
101.91160997732426	102.0857596371882	77	127
102.0857596371882	102.22507936507937	67	127
102.22507936507937	102.41083900226758	79	127
102.22507936507937	102.75913832199547	36	127
102.41083900226758	102.59659863945578	76	127
102.59659863945578	102.75913832199547	67	127
102.75913832199547	102.94489795918368	89	127
102.75913832199547	103.85047619047619	48	127
102.94489795918368	103.13065759637188	79	127
103.13065759637188	103.28158730158731	77	127
103.28158730158731	103.4673469387755	83	127
103.4673469387755	103.66471655328799	77	127
103.66471655328799	103.85047619047619	71	127
103.85047619047619	104.04784580498867	83	127
103.85047619047619	104.41936507936508	36	127
104.04784580498867	104.23360544217687	77	127
104.23360544217687	104.41936507936508	71	127
104.41936507936508	104.95342403628118	36	127
104.41936507936508	104.60512471655329	84	127
104.60512471655329	104.77927437641723	76	127
104.77927437641723	104.95342403628118	72	127
104.95342403628118	105.15079365079364	34	127
104.95342403628118	106.05637188208617	72	127
104.95342403628118	106.05637188208617	84	127
105.15079365079364	105.34816326530613	36	127
105.34816326530613	105.49909297052154	46	127
105.49909297052154	105.69646258503401	33	127
105.69646258503401	105.88222222222223	36	127
105.88222222222223	106.05637188208617	45	127
106.05637188208617	106.20730158730159	33	127
106.05637188208617	106.54399092970522	72	127
106.20730158730159	106.36984126984127	36	127
106.36984126984127	106.54399092970522	45	127
106.54399092970522	107.97201814058957	72	127
106.54399092970522	106.71814058956916	34	127
106.71814058956916	106.85746031746032	36	127
106.85746031746032	106.99678004535147	46	127
106.99678004535147	107.97201814058957	84	127
106.99678004535147	107.17092970521541	34	127
107.17092970521541	107.32185941043083	36	127
107.32185941043083	107.50761904761904	46	127
107.50761904761904	107.67015873015873	33	127
107.67015873015873	107.82108843537415	36	127
107.82108843537415	107.97201814058957	45	127
107.97201814058957	108.48285714285714	72	127
107.97201814058957	108.15777777777778	33	127
108.15777777777778	108.29709750566893	36	127
108.29709750566893	108.48285714285714	45	127
108.48285714285714	108.68022675736961	34	127
108.48285714285714	109.95732426303854	72	127
108.68022675736961	108.8427664399093	36	127
108.8427664399093	109.02852607709751	46	127
109.02852607709751	109.95732426303854	84	127
109.02852607709751	109.1562358276644	32	127
109.1562358276644	109.33038548752835	36	127
109.33038548752835	109.48131519274376	44	127
109.48131519274376	109.60902494331066	31	127
109.60902494331066	109.77156462585035	36	127
109.77156462585035	109.95732426303854	43	127
109.95732426303854	110.17791383219955	31	127
109.95732426303854	110.52621315192744	72	127
110.17791383219955	110.34045351473922	36	127
110.34045351473922	110.52621315192744	43	127
110.52621315192744	110.7235827664399	32	127
110.52621315192744	111.97746031746031	72	127
110.7235827664399	110.87451247165532	36	127
110.87451247165532	111.03705215419501	44	127
111.03705215419501	111.18798185941043	31	127
111.03705215419501	111.97746031746031	84	127
111.18798185941043	111.33891156462585	36	127
111.33891156462585	111.50145124716553	43	127
111.50145124716553	111.66399092970522	30	127
111.66399092970522	111.8265306122449	36	127
111.8265306122449	111.97746031746031	42	127
111.97746031746031	112.16321995464853	30	127
111.97746031746031	112.52312925170068	72	127
112.16321995464853	112.34897959183674	36	127
112.34897959183674	112.52312925170068	42	127
112.52312925170068	113.16167800453515	72	127
112.52312925170068	112.75532879818594	31	127
112.75532879818594	112.92947845804989	36	127
112.92947845804989	113.16167800453515	43	127
113.16167800453515	114.41555555555556	42	127
113.16167800453515	113.37065759637188	85	127
113.16167800453515	114.41555555555556	54	127
113.37065759637188	113.6144671201814	76	127
113.6144671201814	113.86988662131519	73	127
113.86988662131519	114.0556462585034	84	127
114.0556462585034	114.22979591836734	75	127
114.22979591836734	114.41555555555556	72	127
114.41555555555556	114.56648526077097	84	127
114.41555555555556	114.91478458049886	30	127
114.41555555555556	114.91478458049886	42	127
114.56648526077097	114.70580498866214	75	127
114.70580498866214	114.91478458049886	72	127
114.91478458049886	116.33120181405896	42	127
114.91478458049886	115.08893424036282	85	127
115.08893424036282	115.25147392290249	76	127
115.25147392290249	115.4372335600907	73	127
115.4372335600907	116.33120181405896	54	127
115.4372335600907	115.59977324263039	85	127
115.59977324263039	115.72748299319728	76	127
115.72748299319728	115.8784126984127	73	127
115.8784126984127	116.0061224489796	84	127
116.0061224489796	116.18027210884354	75	127
116.18027210884354	116.33120181405896	72	127
116.33120181405896	116.47052154195012	84	127
116.33120181405896	116.84204081632653	30	127
116.33120181405896	116.84204081632653	42	127
116.47052154195012	116.62145124716554	75	127
116.62145124716554	116.84204081632653	72	127
116.84204081632653	117.01619047619047	85	127
116.84204081632653	118.31650793650793	42	127
117.01619047619047	117.17873015873016	76	127
117.17873015873016	117.34126984126983	73	127
117.34126984126983	118.31650793650793	54	127
117.34126984126983	117.52702947845805	83	127
117.52702947845805	117.70117913832199	74	127
117.70117913832199	117.84049886621315	71	127
117.84049886621315	118.0146485260771	82	127
118.0146485260771	118.14235827664399	73	127
118.14235827664399	118.31650793650793	70	127
118.31650793650793	118.44421768707483	82	127
118.31650793650793	118.78090702947846	30	127
118.31650793650793	118.78090702947846	42	127
118.44421768707483	118.62997732426304	73	127
118.62997732426304	118.78090702947846	70	127
118.78090702947846	118.92022675736962	83	127
118.78090702947846	120.16249433106576	42	127
118.92022675736962	119.07115646258504	74	127
119.07115646258504	119.23369614512471	71	127
119.23369614512471	119.37301587301587	81	127
119.23369614512471	120.16249433106576	54	127
119.37301587301587	119.52394557823129	73	127
119.52394557823129	119.69809523809523	69	127
119.69809523809523	119.86063492063492	79	127
119.86063492063492	119.99995464852607	71	127
119.99995464852607	120.16249433106576	67	127
120.16249433106576	120.29020408163265	79	127
120.16249433106576	120.60367346938776	30	127
120.16249433106576	120.60367346938776	42	127
120.29020408163265	120.45274376417234	71	127
120.45274376417234	120.60367346938776	67	127
120.60367346938776	121.13773242630386	42	127
120.60367346938776	120.7778231292517	77	127
120.7778231292517	120.96358276643991	71	127
120.96358276643991	121.13773242630386	65	127
121.13773242630386	121.39315192743764	30	127
121.13773242630386	121.59052154195011	66	127
121.13773242630386	121.59052154195011	70	127
121.13773242630386	121.59052154195011	78	127
121.39315192743764	121.59052154195011	42	127
121.59052154195011	121.83433106575964	46	127
121.83433106575964	122.04331065759636	49	127
122.04331065759636	122.93727891156463	42	127
122.04331065759636	122.93727891156463	52	127
122.93727891156463	123.92412698412699	42	127
122.93727891156463	123.48294784580499	50	127
123.20430839002267	123.48294784580499	66	127
123.48294784580499	123.92412698412699	49	127
123.48294784580499	123.65709750566893	70	127
123.65709750566893	123.92412698412699	73	127
123.92412698412699	124.80648526077097	76	127
123.92412698412699	124.15632653061225	30	127
123.92412698412699	124.80648526077097	64	127
124.15632653061225	124.40013605442176	42	127
124.40013605442176	124.56267573696145	46	127
124.56267573696145	124.80648526077097	49	127
124.80648526077097	125.00385487528345	42	127
124.80648526077097	125.00385487528345	54	127
124.80648526077097	125.21283446712017	74	127
125.00385487528345	125.21283446712017	58	127
125.21283446712017	125.43342403628118	61	127
125.21283446712017	125.65401360544217	73	127
125.43342403628118	125.65401360544217	64	127
125.65401360544217	126.67569160997732	67	127
125.65401360544217	126.67569160997732	54	127
125.8978231292517	126.15324263038549	82	127
125.8978231292517	126.15324263038549	70	127
126.15324263038549	126.40866213151928	73	127
126.15324263038549	126.40866213151928	85	127
126.40866213151928	126.67569160997732	76	127
126.40866213151928	126.67569160997732	88	127
126.67569160997732	127.84829931972789	54	127
126.67569160997732	127.23297052154194	66	127
126.67569160997732	127.84829931972789	79	127
126.67569160997732	127.84829931972789	91	127
127.23297052154194	127.84829931972789	64	127
127.84829931972789	128.53328798185942	78	127
127.84829931972789	128.53328798185942	90	127
127.84829931972789	128.53328798185942	62	127
127.84829931972789	129.24149659863946	54	127
128.53328798185942	129.24149659863946	76	127
128.53328798185942	129.24149659863946	70	127
128.53328798185942	129.24149659863946	82	127
128.53328798185942	129.24149659863946	61	127
129.65945578231293	129.98451247165534	66	127
129.65945578231293	129.98451247165534	54	127
129.98451247165534	130.8320634920635	71	127
129.98451247165534	130.8320634920635	47	127
129.98451247165534	130.8320634920635	62	127
130.8320634920635	131.09909297052155	54	127
130.8320634920635	131.09909297052155	66	127
131.09909297052155	131.38934240362812	47	127
131.09909297052155	131.38934240362812	62	127
131.09909297052155	131.38934240362812	71	127
131.38934240362812	131.6795918367347	74	127
131.38934240362812	131.6795918367347	42	127
131.38934240362812	131.6795918367347	66	127
131.6795918367347	132.4690702947846	71	127
131.6795918367347	132.4690702947846	35	127
131.6795918367347	132.4690702947846	62	127
132.4690702947846	132.67804988662132	66	127
132.4690702947846	132.67804988662132	54	127
132.67804988662132	132.9334693877551	62	127
132.67804988662132	132.9334693877551	47	127
132.67804988662132	132.9334693877551	71	127
132.9334693877551	133.16566893424036	66	127
132.9334693877551	133.16566893424036	74	127
132.9334693877551	133.16566893424036	42	127
133.16566893424036	133.44430839002268	35	127
133.16566893424036	133.44430839002268	62	127
133.16566893424036	133.44430839002268	71	127
133.44430839002268	133.66487528344672	54	127
133.44430839002268	133.66487528344672	66	127
133.66487528344672	133.9087074829932	47	127
133.66487528344672	133.9087074829932	62	127
133.66487528344672	133.9087074829932	71	127
133.9087074829932	134.1292970521542	74	127
133.9087074829932	134.1292970521542	42	127
133.9087074829932	134.1292970521542	66	127
134.1292970521542	134.87233560090704	47	127
134.1292970521542	134.87233560090704	66	127
134.1292970521542	134.87233560090704	74	127
134.1292970521542	134.87233560090704	78	127
134.1292970521542	134.87233560090704	35	127
134.87233560090704	135.15097505668933	76	127
134.87233560090704	135.15097505668933	64	127
134.87233560090704	135.15097505668933	73	127
134.87233560090704	135.15097505668933	34	127
134.87233560090704	135.15097505668933	46	127
135.15097505668933	135.94045351473923	34	127
135.15097505668933	135.94045351473923	76	127
135.15097505668933	135.94045351473923	46	127
135.15097505668933	135.94045351473923	64	127
135.15097505668933	135.94045351473923	73	127
135.94045351473923	136.2074829931973	33	127
135.94045351473923	136.2074829931973	63	127
135.94045351473923	136.2074829931973	71	127
135.94045351473923	136.2074829931973	75	127
135.94045351473923	136.2074829931973	45	127
136.2074829931973	137.00857142857143	75	127
136.2074829931973	137.00857142857143	63	127
136.2074829931973	137.00857142857143	71	127
136.2074829931973	137.00857142857143	33	127
136.2074829931973	137.00857142857143	45	127
137.00857142857143	137.32204081632653	64	127
137.00857142857143	137.32204081632653	71	127
137.00857142857143	137.32204081632653	76	127
137.00857142857143	137.32204081632653	32	127
137.00857142857143	137.32204081632653	44	127
137.32204081632653	138.11149659863946	64	127
137.32204081632653	138.11149659863946	71	127
137.32204081632653	138.11149659863946	76	127
137.32204081632653	138.11149659863946	32	127
137.32204081632653	138.11149659863946	44	127
138.11149659863946	138.4249886621315	31	127
138.11149659863946	138.4249886621315	43	127
138.4249886621315	138.70362811791384	47	127
138.4249886621315	138.9938775510204	64	127
138.70362811791384	138.9938775510204	76	127
138.70362811791384	138.9938775510204	43	127
138.70362811791384	138.9938775510204	55	127
138.9938775510204	139.27251700680273	66	127
138.9938775510204	139.27251700680273	78	127
138.9938775510204	139.27251700680273	42	127
138.9938775510204	139.27251700680273	54	127
139.27251700680273	139.84140589569162	67	127
139.27251700680273	139.84140589569162	79	127
139.27251700680273	139.84140589569162	40	127
139.27251700680273	139.84140589569162	52	127
139.27251700680273	140.42190476190476	47	127
139.84140589569162	140.1316553287982	66	127
139.84140589569162	140.1316553287982	78	127
139.84140589569162	140.1316553287982	42	127
139.84140589569162	140.1316553287982	54	127
140.1316553287982	140.42190476190476	64	127
140.1316553287982	140.42190476190476	76	127
140.1316553287982	140.42190476190476	43	127
140.1316553287982	140.42190476190476	55	127
140.42190476190476	140.70054421768708	31	127
140.42190476190476	140.70054421768708	43	127
140.70054421768708	141.19977324263039	64	127
140.70054421768708	140.9443537414966	47	127
140.9443537414966	141.19977324263039	55	127
140.9443537414966	141.19977324263039	76	127
140.9443537414966	141.19977324263039	43	127
141.19977324263039	141.5132426303855	66	127
141.19977324263039	141.5132426303855	78	127
141.19977324263039	141.5132426303855	54	127
141.5132426303855	142.639410430839	47	127
141.5132426303855	141.80349206349206	69	127
141.5132426303855	141.80349206349206	81	127
141.5132426303855	142.1401814058957	40	127
141.5132426303855	142.1401814058957	52	127
141.80349206349206	142.1401814058957	67	127
141.80349206349206	142.1401814058957	79	127
142.1401814058957	142.36077097505668	54	127
142.1401814058957	142.36077097505668	66	127
142.1401814058957	142.36077097505668	78	127
142.1401814058957	142.36077097505668	42	127
142.36077097505668	142.639410430839	76	127
142.36077097505668	142.639410430839	43	127
142.36077097505668	142.639410430839	55	127
142.36077097505668	142.639410430839	64	127
142.639410430839	143.44049886621315	65	127
142.639410430839	143.44049886621315	77	127
142.91802721088436	143.17344671201815	44	127
142.91802721088436	143.17344671201815	56	127
143.17344671201815	143.99777777777777	49	127
143.44049886621315	143.71913832199547	73	127
143.71913832199547	144.49698412698413	66	127
143.71913832199547	144.49698412698413	78	127
143.99777777777777	144.26480725623583	42	127
143.99777777777777	144.26480725623583	54	127
144.26480725623583	145.00784580498868	49	127
144.49698412698413	144.76403628117913	73	127
144.76403628117913	145.48385487528344	68	127
144.76403628117913	145.48385487528344	77	127
144.76403628117913	145.48385487528344	80	127
145.00784580498868	145.28648526077097	37	127
145.28648526077097	146.11079365079365	49	127
145.48385487528344	145.77410430839004	73	127
145.77410430839004	146.55197278911564	70	127
145.77410430839004	146.55197278911564	78	127
145.77410430839004	146.55197278911564	82	127
146.11079365079365	146.55197278911564	30	127
146.55197278911564	147.43433106575964	54	127
146.55197278911564	147.43433106575964	42	127
147.43433106575964	150.09301587301587	50	127
147.43433106575964	150.09301587301587	47	127
147.43433106575964	150.09301587301587	59	127
148.64174603174604	149.09455782312926	30	127
149.09455782312926	150.7895918367347	31	127
150.09301587301587	150.42968253968255	50	127
150.09301587301587	152.64721088435374	38	127
150.42968253968255	150.7895918367347	59	127
150.7895918367347	151.06825396825397	62	127
150.7895918367347	151.06825396825397	30	127
151.06825396825397	151.4049433106576	31	127
151.06825396825397	152.64721088435374	59	127
151.4049433106576	151.776462585034	33	127
151.776462585034	153.26253968253968	31	127
152.64721088435374	154.72537414965987	38	127
152.64721088435374	152.94907029478458	50	127
152.94907029478458	153.26253968253968	59	127
153.26253968253968	153.6340589569161	62	127
153.26253968253968	153.6340589569161	30	127
153.6340589569161	153.93591836734694	31	127
153.6340589569161	154.72537414965987	59	127
153.93591836734694	154.2958276643991	33	127
154.2958276643991	155.28267573696147	31	127
154.72537414965987	155.00403628117914	50	127
154.72537414965987	155.89798185941044	38	127
155.00403628117914	155.28267573696147	59	127
155.28267573696147	155.57292517006803	30	127
155.28267573696147	155.57292517006803	62	127
155.57292517006803	155.89798185941044	31	127
155.57292517006803	155.89798185941044	59	127
155.89798185941044	156.21147392290248	50	127
155.89798185941044	157.04739229024943	38	127
155.89798185941044	156.21147392290248	33	127
156.21147392290248	156.53655328798186	59	127
156.21147392290248	156.53655328798186	31	127
156.53655328798186	156.76873015873016	62	127
156.53655328798186	156.76873015873016	30	127
156.76873015873016	157.04739229024943	59	127
156.76873015873016	157.04739229024943	31	127
157.04739229024943	157.3144217687075	33	127
157.04739229024943	157.3144217687075	50	127
157.04739229024943	157.94133786848073	38	127
157.3144217687075	157.61628117913833	59	127
157.3144217687075	157.61628117913833	31	127
157.61628117913833	157.94133786848073	62	127
157.61628117913833	157.94133786848073	29	127
157.94133786848073	158.89337868480726	66	127
157.94133786848073	159.14879818594105	59	127
157.94133786848073	158.24321995464854	30	127
157.94133786848073	159.14879818594105	62	127
158.24321995464854	158.54507936507937	31	127
158.54507936507937	159.14879818594105	30	127
158.89337868480726	159.14879818594105	67	127
159.14879818594105	160.36784580498866	58	127
159.14879818594105	160.36784580498866	61	127
159.14879818594105	160.04274376417234	67	127
160.04274376417234	160.36784580498866	54	127
160.04274376417234	160.36784580498866	66	127
160.36784580498866	161.2966439909297	54	127
160.36784580498866	161.2966439909297	66	127
160.36784580498866	161.61011337868482	59	127
160.36784580498866	161.61011337868482	47	127
161.2966439909297	161.61011337868482	67	127
161.2966439909297	161.61011337868482	55	127
161.61011337868482	162.72467120181406	67	127
161.61011337868482	163.28195011337868	59	127
161.61011337868482	163.28195011337868	47	127
161.61011337868482	162.72467120181406	55	127
162.72467120181406	163.28195011337868	54	127
162.72467120181406	163.28195011337868	66	127
163.28195011337868	164.51260770975057	59	127
163.28195011337868	164.21074829931973	61	127
163.28195011337868	164.21074829931973	49	127
163.28195011337868	164.51260770975057	47	127
164.21074829931973	164.51260770975057	62	127
164.21074829931973	164.51260770975057	50	127
164.51260770975057	165.7200453514739	47	127
164.51260770975057	165.10471655328797	64	127
164.51260770975057	165.10471655328797	52	127
164.51260770975057	165.7200453514739	59	127
165.10471655328797	165.42979591836735	50	127
165.10471655328797	165.42979591836735	62	127
165.42979591836735	165.7200453514739	61	127
165.42979591836735	165.7200453514739	49	127
165.7200453514739	166.9274829931973	47	127
165.7200453514739	166.6024036281179	61	127
165.7200453514739	166.6024036281179	49	127
165.7200453514739	166.9274829931973	59	127
166.6024036281179	166.9274829931973	50	127
166.6024036281179	166.9274829931973	62	127
166.9274829931973	168.20458049886622	47	127
166.9274829931973	168.20458049886622	59	127
166.9274829931973	167.2641723356009	66	127
166.9274829931973	167.2641723356009	54	127
167.2641723356009	167.577641723356	64	127
167.2641723356009	167.577641723356	52	127
167.577641723356	167.87950113378685	62	127
167.577641723356	167.87950113378685	50	127
167.87950113378685	168.20458049886622	49	127
167.87950113378685	168.20458049886622	61	127
168.20458049886622	169.121768707483	59	127
168.20458049886622	169.121768707483	47	127
169.121768707483	169.35396825396825	61	127
169.121768707483	169.35396825396825	49	127
169.35396825396825	170.20149659863947	47	127
169.35396825396825	170.20149659863947	59	127
170.20149659863947	170.46850340136055	49	127
170.20149659863947	170.46850340136055	61	127
170.46850340136055	171.46698412698413	47	127
170.46850340136055	171.46698412698413	59	127
171.46698412698413	171.74560090702948	49	127
171.46698412698413	171.74560090702948	61	127
171.74560090702948	172.871768707483	59	127
171.74560090702948	172.871768707483	47	127
172.871768707483	173.22009070294786	61	127
172.871768707483	173.22009070294786	49	127
173.22009070294786	173.93990929705217	59	127
173.22009070294786	173.93990929705217	47	127
173.93990929705217	175.03124716553287	42	127
173.93990929705217	175.03124716553287	54	127
176.1225850340136	177.8524716553288	55	127
177.10943310657598	178.36331065759637	30	127
177.10943310657598	178.36331065759637	42	127
177.8524716553288	179.53591836734694	54	127
180.685306122449	181.61408163265307	54	127
180.685306122449	181.61408163265307	42	127
181.61408163265307	182.20621315192744	47	127
181.61408163265307	182.20621315192744	35	127
182.20621315192744	182.85637188208617	66	127
182.20621315192744	182.85637188208617	42	127
182.85637188208617	183.58780045351475	59	127
182.85637188208617	183.58780045351475	35	127
183.58780045351475	184.24956916099774	66	127
183.58780045351475	184.24956916099774	78	127
183.58780045351475	184.24956916099774	42	127
184.24956916099774	184.84167800453514	71	127
184.24956916099774	184.84167800453514	75	127
184.24956916099774	184.84167800453514	83	127
184.24956916099774	184.84167800453514	35	127
184.84167800453514	185.50344671201813	70	127
184.84167800453514	185.50344671201813	78	127
184.84167800453514	185.50344671201813	82	127
184.84167800453514	185.50344671201813	42	127
185.50344671201813	186.21163265306123	68	127
185.50344671201813	186.21163265306123	76	127
185.50344671201813	186.21163265306123	80	127
185.50344671201813	186.21163265306123	35	127
186.21163265306123	186.8037641723356	66	127
186.21163265306123	186.8037641723356	75	127
186.21163265306123	186.8037641723356	78	127
186.21163265306123	186.8037641723356	42	127
186.8037641723356	187.4422902494331	64	127
186.8037641723356	187.4422902494331	73	127
186.8037641723356	187.4422902494331	76	127
186.8037641723356	187.4422902494331	35	127
187.4422902494331	187.7093424036281	75	127
187.4422902494331	187.7093424036281	66	127
187.4422902494331	187.7093424036281	78	127
187.4422902494331	187.98798185941044	42	127
187.7093424036281	187.98798185941044	70	127
187.7093424036281	187.98798185941044	73	127
187.7093424036281	187.98798185941044	61	127
187.98798185941044	188.64975056689343	64	127
187.98798185941044	188.64975056689343	73	127
187.98798185941044	188.64975056689343	76	127
187.98798185941044	188.64975056689343	35	127
188.64975056689343	189.29990929705215	63	127
188.64975056689343	189.29990929705215	71	127
188.64975056689343	189.29990929705215	75	127
188.64975056689343	189.29990929705215	42	127
189.29990929705215	189.9152380952381	64	127
189.29990929705215	189.9152380952381	73	127
189.29990929705215	189.9152380952381	35	127
189.9152380952381	190.19387755102042	66	127
189.9152380952381	190.19387755102042	75	127
189.9152380952381	190.5421768707483	42	127
190.19387755102042	190.5421768707483	61	127
190.19387755102042	190.5421768707483	70	127
190.5421768707483	191.1342857142857	73	127
190.5421768707483	191.1342857142857	35	127
190.5421768707483	191.1342857142857	64	127
191.1342857142857	191.76122448979592	63	127
191.1342857142857	191.76122448979592	71	127
191.1342857142857	191.76122448979592	42	127
191.76122448979592	192.4578231292517	64	127
191.76122448979592	192.4578231292517	61	127
191.76122448979592	192.4578231292517	35	127
191.76122448979592	194.41990929705216	66	127
192.4578231292517	192.98027210884354	59	127
192.4578231292517	192.98027210884354	63	127
192.4578231292517	192.98027210884354	42	127
192.98027210884354	194.41990929705216	54	127
192.98027210884354	194.41990929705216	61	127
192.98027210884354	193.82780045351473	35	127
193.82780045351473	194.41990929705216	42	127
194.41990929705216	195.0584580498866	66	127
194.41990929705216	195.0584580498866	78	127
194.41990929705216	195.0584580498866	35	127
195.0584580498866	195.7202267573696	59	127
195.0584580498866	195.7202267573696	71	127
195.0584580498866	195.7202267573696	40	127
195.7202267573696	196.30072562358276	66	127
195.7202267573696	196.30072562358276	78	127
195.7202267573696	196.30072562358276	35	127
196.30072562358276	196.9508843537415	59	127
196.30072562358276	196.9508843537415	71	127
196.30072562358276	196.9508843537415	38	127
196.9508843537415	197.53138321995465	62	127
196.9508843537415	197.53138321995465	74	127
196.9508843537415	197.53138321995465	35	127
197.53138321995465	198.2047619047619	42	127
197.53138321995465	198.2047619047619	59	127
197.53138321995465	198.2047619047619	71	127
198.2047619047619	198.91297052154195	66	127
198.2047619047619	198.91297052154195	78	127
198.2047619047619	198.91297052154195	30	127
198.91297052154195	199.79532879818595	66	127
198.91297052154195	199.79532879818595	42	127
199.79532879818595	200.53836734693877	66	127
199.79532879818595	200.53836734693877	30	127
199.79532879818595	201.1536961451247	54	127
200.53836734693877	200.82861678004537	68	127
200.53836734693877	201.1536961451247	42	127
200.82861678004537	201.1536961451247	64	127
201.1536961451247	201.74580498866214	68	127
201.1536961451247	201.74580498866214	30	127
201.1536961451247	202.40757369614514	54	127
201.74580498866214	202.40757369614514	66	127
201.74580498866214	202.40757369614514	42	127
202.40757369614514	203.03451247165532	30	127
202.40757369614514	203.71950113378685	54	127
202.40757369614514	203.03451247165532	64	127
203.03451247165532	203.71950113378685	63	127
203.03451247165532	203.71950113378685	42	127
203.71950113378685	205.06625850340137	61	127
203.71950113378685	204.45092970521543	30	127
203.71950113378685	205.06625850340137	54	127
204.45092970521543	205.06625850340137	42	127
205.06625850340137	205.69319727891155	63	127
205.06625850340137	205.69319727891155	30	127
205.06625850340137	206.36657596371882	54	127
205.69319727891155	206.36657596371882	61	127
205.69319727891155	206.36657596371882	42	127
206.36657596371882	207.62045351473924	54	127
206.36657596371882	207.0283446712018	30	127
206.36657596371882	207.62045351473924	59	127
207.0283446712018	207.62045351473924	42	127
207.62045351473924	208.34027210884355	35	127
207.62045351473924	208.34027210884355	57	127
207.62045351473924	208.34027210884355	54	127
208.34027210884355	208.9091609977324	47	127
208.34027210884355	208.9091609977324	52	127
208.34027210884355	208.9091609977324	55	127
208.9091609977324	209.50126984126985	35	127
208.9091609977324	210.22108843537416	51	127
208.9091609977324	210.22108843537416	54	127
209.50126984126985	210.22108843537416	47	127
210.22108843537416	210.91768707482993	54	127
210.22108843537416	210.91768707482993	57	127
210.22108843537416	210.91768707482993	36	127
210.91768707482993	211.57945578231292	55	127
210.91768707482993	211.57945578231292	48	127
210.91768707482993	211.57945578231292	52	127
211.57945578231292	213.42544217687075	54	127
211.57945578231292	212.15995464852608	36	127
211.57945578231292	213.42544217687075	51	127
212.15995464852608	212.7868934240363	48	127
212.7868934240363	213.42544217687075	35	127
213.42544217687075	214.01755102040818	55	127
213.42544217687075	214.01755102040818	52	127
213.42544217687075	214.01755102040818	47	127
214.01755102040818	215.19015873015874	51	127
214.01755102040818	215.19015873015874	54	127
214.01755102040818	214.6328798185941	35	127
214.6328798185941	215.19015873015874	47	127
215.9564172335601	216.52530612244897	52	127
215.9564172335601	216.52530612244897	55	127
215.9564172335601	216.52530612244897	59	127
215.9564172335601	216.52530612244897	64	127
215.9564172335601	216.52530612244897	67	127
215.9564172335601	216.52530612244897	71	127
215.9564172335601	216.52530612244897	76	127
217.18707482993196	217.76757369614512	64	127
217.18707482993196	217.76757369614512	67	127
217.18707482993196	217.76757369614512	71	127
217.18707482993196	217.76757369614512	76	127
217.18707482993196	217.76757369614512	55	127
217.18707482993196	217.76757369614512	59	127
217.18707482993196	217.76757369614512	52	127
218.46417233560092	218.69637188208617	64	127
218.46417233560092	218.69637188208617	66	127
218.46417233560092	218.69637188208617	69	127
218.46417233560092	218.69637188208617	76	127
218.46417233560092	218.69637188208617	52	127
218.46417233560092	218.69637188208617	54	127
218.46417233560092	218.69637188208617	57	127
219.60195011337868	219.880589569161	67	127
219.60195011337868	219.880589569161	71	127
219.60195011337868	219.880589569161	76	127
219.60195011337868	219.880589569161	52	127
219.60195011337868	219.880589569161	55	127
219.60195011337868	219.880589569161	59	127
219.60195011337868	219.880589569161	64	127
220.73972789115646	220.9719274376417	64	127
220.73972789115646	220.9719274376417	66	127
220.73972789115646	220.9719274376417	72	127
220.73972789115646	220.9719274376417	76	127
220.73972789115646	220.9719274376417	52	127
220.73972789115646	220.9719274376417	54	127
220.73972789115646	220.9719274376417	60	127
221.95877551020408	222.17936507936508	71	127
221.95877551020408	222.17936507936508	76	127
221.95877551020408	222.17936507936508	52	127
221.95877551020408	222.17936507936508	55	127
221.95877551020408	222.17936507936508	59	127
221.95877551020408	222.17936507936508	64	127
221.95877551020408	222.17936507936508	67	127
223.2126530612245	223.44485260770975	67	127
223.2126530612245	223.44485260770975	71	127
223.2126530612245	223.44485260770975	76	127
223.2126530612245	223.44485260770975	79	127
223.2126530612245	223.44485260770975	52	127
223.2126530612245	223.44485260770975	55	127
223.2126530612245	223.44485260770975	59	127
223.2126530612245	223.44485260770975	64	127
224.3736507936508	224.58263038548753	78	127
224.3736507936508	224.58263038548753	66	127
224.3736507936508	224.58263038548753	70	127
224.3736507936508	224.58263038548753	73	127
224.3736507936508	224.58263038548753	54	127
224.3736507936508	224.58263038548753	58	127
224.3736507936508	224.58263038548753	61	127
225.6275283446712	225.85972789115647	71	127
225.6275283446712	225.85972789115647	78	127
225.6275283446712	225.85972789115647	66	127
225.6275283446712	225.85972789115647	75	127
225.6275283446712	225.85972789115647	54	127
225.6275283446712	225.85972789115647	59	127
225.6275283446712	225.85972789115647	63	127
226.8814058956916	227.14843537414967	71	127
226.8814058956916	227.14843537414967	75	127
226.8814058956916	227.14843537414967	54	127
226.8814058956916	227.14843537414967	63	127
226.8814058956916	227.14843537414967	59	127
226.8814058956916	227.14843537414967	66	127
228.15850340136055	228.4255328798186	73	127
228.15850340136055	228.4255328798186	66	127
228.15850340136055	228.4255328798186	71	127
228.15850340136055	228.4255328798186	54	127
228.15850340136055	228.4255328798186	59	127
228.15850340136055	228.4255328798186	61	127
229.44721088435375	229.70263038548754	73	127
229.44721088435375	229.70263038548754	54	127
229.44721088435375	229.70263038548754	58	127
229.44721088435375	229.70263038548754	61	127
229.44721088435375	229.70263038548754	70	127
229.44721088435375	229.70263038548754	66	127
230.82879818594105	231.07260770975057	71	127
230.82879818594105	231.07260770975057	64	127
230.82879818594105	231.07260770975057	73	127
230.82879818594105	231.07260770975057	76	127
230.82879818594105	231.07260770975057	52	127
230.82879818594105	231.07260770975057	59	127
230.82879818594105	231.07260770975057	61	127
231.97818594104308	232.29165532879819	58	127
231.97818594104308	232.29165532879819	66	127
231.97818594104308	232.29165532879819	70	127
231.97818594104308	232.29165532879819	73	127
231.97818594104308	232.29165532879819	54	127
231.97818594104308	232.29165532879819	61	127
233.54553287981858	233.8590022675737	54	127
233.54553287981858	233.8590022675737	59	127
233.54553287981858	233.8590022675737	63	127
233.54553287981858	233.8590022675737	66	127
233.54553287981858	233.8590022675737	71	127
233.54553287981858	233.8590022675737	75	127
234.81102040816327	235.03160997732425	66	127
234.81102040816327	235.03160997732425	71	127
234.81102040816327	235.03160997732425	47	127
234.81102040816327	235.03160997732425	59	127
234.81102040816327	235.03160997732425	63	127
236.1809977324263	236.4596371882086	64	127
236.1809977324263	236.4596371882086	67	127
236.1809977324263	236.4596371882086	72	127
236.1809977324263	236.4596371882086	59	127
237.40004535147392	237.6554648526077	72	127
237.40004535147392	237.6554648526077	64	127
237.40004535147392	237.6554648526077	67	127
237.40004535147392	237.6554648526077	57	127
238.67714285714285	238.95578231292518	69	127
238.67714285714285	238.95578231292518	66	127
238.67714285714285	238.95578231292518	74	127
238.67714285714285	238.95578231292518	60	127
238.67714285714285	238.95578231292518	62	127
239.89619047619047	240.11678004535148	59	127
239.89619047619047	240.11678004535148	62	127
239.89619047619047	240.11678004535148	67	127
239.89619047619047	240.11678004535148	74	127
241.01074829931972	241.242947845805	67	127
241.01074829931972	241.242947845805	72	127
241.01074829931972	241.242947845805	64	127
241.01074829931972	241.242947845805	59	127
242.20657596371882	242.42716553287983	57	127
242.20657596371882	242.42716553287983	64	127
242.20657596371882	242.42716553287983	69	127
242.20657596371882	242.42716553287983	72	127
243.40240362811792	243.68104308390022	69	127
243.40240362811792	243.68104308390022	74	127
243.40240362811792	243.68104308390022	60	127
243.40240362811792	243.68104308390022	62	127
243.40240362811792	243.68104308390022	66	127
244.60984126984127	244.86526077097506	67	127
244.60984126984127	244.86526077097506	74	127
244.60984126984127	244.86526077097506	59	127
244.60984126984127	244.86526077097506	62	127
245.7940589569161	246.00303854875284	64	127
245.7940589569161	246.00303854875284	72	127
245.7940589569161	246.00303854875284	59	127
245.7940589569161	246.00303854875284	67	127
246.94344671201813	247.1756462585034	69	127
246.94344671201813	247.1756462585034	64	127
246.94344671201813	247.1756462585034	72	127
246.94344671201813	247.1756462585034	57	127
248.13927437641723	248.34825396825397	66	127
248.13927437641723	248.34825396825397	69	127
248.13927437641723	248.34825396825397	74	127
248.13927437641723	248.34825396825397	60	127
249.26544217687075	249.4744217687075	71	127
249.26544217687075	249.4744217687075	59	127
249.26544217687075	249.4744217687075	66	127
249.26544217687075	249.4744217687075	74	127
250.42643990929705	250.600589569161	62	127
250.42643990929705	250.600589569161	67	127
250.42643990929705	250.600589569161	71	127
250.42643990929705	250.600589569161	76	127
251.5758276643991	251.78480725623584	72	127
251.5758276643991	251.78480725623584	76	127
251.5758276643991	251.78480725623584	69	127
251.5758276643991	251.78480725623584	60	127
252.77165532879818	253.16639455782314	72	127
252.77165532879818	253.16639455782314	69	127
252.77165532879818	253.16639455782314	81	127
252.77165532879818	253.16639455782314	66	127
254.13002267573697	254.51315192743763	72	127
254.13002267573697	254.51315192743763	79	127
254.13002267573697	254.51315192743763	84	127
254.13002267573697	254.51315192743763	64	127
254.13002267573697	254.51315192743763	67	127
255.55804988662132	255.76702947845806	78	127
255.6277097505669	255.76702947845806	81	127
255.6277097505669	255.76702947845806	63	127
255.69736961451247	255.76702947845806	66	127
255.76702947845806	258.6230612244898	84	127
255.76702947845806	258.6230612244898	78	127
255.76702947845806	258.6230612244898	81	127
255.76702947845806	258.6230612244898	90	127
255.76702947845806	258.6230612244898	63	127
255.76702947845806	258.6230612244898	66	127
255.76702947845806	258.6230612244898	69	127
255.76702947845806	258.6230612244898	72	127
264.5673922902494	265.54263038548754	64	127
264.5673922902494	265.54263038548754	76	127
265.54263038548754	266.3321088435374	79	127
265.54263038548754	266.3321088435374	67	127
266.3321088435374	266.6107482993197	71	127
266.3321088435374	266.6107482993197	83	127
266.6107482993197	267.7020861678005	84	127
266.6107482993197	267.1215873015873	66	127
266.6107482993197	267.7020861678005	76	127
266.6107482993197	267.7020861678005	64	127
266.6107482993197	267.7020861678005	72	127
267.1215873015873	268.2245351473923	69	127
267.7020861678005	268.7818140589569	71	127
267.7020861678005	268.7818140589569	76	127
267.7020861678005	268.7818140589569	83	127
267.7020861678005	268.7818140589569	64	127
268.2245351473923	268.7818140589569	67	127
268.7818140589569	269.0372335600907	81	127
268.7818140589569	270.7787301587302	76	127
268.7818140589569	270.7787301587302	64	127
268.7818140589569	269.0372335600907	69	127
269.0372335600907	269.1417233560091	83	127
269.0372335600907	269.1417233560091	71	127
269.1417233560091	269.26943310657595	69	127
269.1417233560091	269.26943310657595	81	127
269.26943310657595	269.55965986394557	67	127
269.26943310657595	269.55965986394557	79	127
269.55965986394557	269.7918820861678	69	127
269.55965986394557	269.7918820861678	81	127
269.7918820861678	270.50009070294783	83	127
269.7918820861678	270.50009070294783	71	127
270.50009070294783	270.7787301587302	79	127
270.50009070294783	270.7787301587302	67	127
270.7787301587302	271.88167800453516	64	127
270.7787301587302	271.88167800453516	67	127
270.7787301587302	271.88167800453516	76	127
270.7787301587302	271.88167800453516	55	127
271.88167800453516	273.29809523809524	55	127
271.88167800453516	273.29809523809524	65	127
271.88167800453516	273.29809523809524	67	127
271.88167800453516	273.29809523809524	74	127
271.88167800453516	273.29809523809524	77	127
271.88167800453516	273.29809523809524	62	127
273.01945578231295	273.29809523809524	71	127
273.29809523809524	273.56512471655327	62	127
273.29809523809524	273.56512471655327	74	127
273.56512471655327	273.8785941043084	65	127
273.56512471655327	273.8785941043084	77	127
273.8785941043084	274.14562358276646	83	127
273.8785941043084	274.14562358276646	71	127
274.14562358276646	274.8073922902494	86	127
274.14562358276646	274.8073922902494	74	127
274.5287528344671	275.10925170068026	55	127
274.5287528344671	275.10925170068026	53	127
274.5287528344671	275.10925170068026	59	127
274.5287528344671	275.10925170068026	62	127
274.8073922902494	275.10925170068026	91	127
274.8073922902494	275.10925170068026	79	127
275.10925170068026	277.1758276643991	52	127
275.10925170068026	277.1758276643991	64	127
275.10925170068026	277.1758276643991	60	127
275.10925170068026	276.1657596371882	79	127
275.10925170068026	276.1657596371882	91	127
275.10925170068026	277.1758276643991	55	127
276.1657596371882	277.1758276643991	67	127
276.1657596371882	277.1758276643991	79	127
277.1758276643991	277.4312244897959	36	127
277.4312244897959	277.68666666666667	64	127
277.4312244897959	277.68666666666667	43	127
277.68666666666667	277.9072562358277	67	127
277.68666666666667	277.9072562358277	48	127
277.9072562358277	278.13945578231295	72	127
277.9072562358277	278.13945578231295	52	127
278.13945578231295	278.6154648526077	55	127
278.13945578231295	278.88249433106574	76	127
278.6154648526077	279.1495238095238	60	127
278.6154648526077	279.1495238095238	48	127
278.88249433106574	279.1495238095238	65	127
278.88249433106574	279.1495238095238	77	127
278.88249433106574	279.1495238095238	81	127
279.1495238095238	280.13637188208617	53	127
279.1495238095238	280.13637188208617	48	127
279.1495238095238	280.13637188208617	60	127
279.1495238095238	280.13637188208617	57	127
279.1495238095238	280.13637188208617	69	127
279.1495238095238	280.13637188208617	77	127
279.1495238095238	280.13637188208617	81	127
280.13637188208617	281.18126984126985	65	127
280.13637188208617	281.18126984126985	69	127
280.6239909297052	281.18126984126985	41	127
281.18126984126985	281.4482993197279	33	127
281.4482993197279	281.72691609977323	57	127
281.4482993197279	281.72691609977323	45	127
281.72691609977323	281.9707482993197	60	127
281.72691609977323	281.9707482993197	48	127
281.9707482993197	282.22616780045354	53	127
281.9707482993197	282.22616780045354	65	127
282.22616780045354	282.53963718820864	57	127
282.22616780045354	282.53963718820864	69	127
282.53963718820864	282.8066666666667	60	127
282.53963718820864	282.8066666666667	72	127
282.8066666666667	283.0620634920635	65	127
282.8066666666667	283.0620634920635	77	127
283.3291156462585	283.59614512471654	35	127
283.59614512471654	283.8283446712018	47	127
283.59614512471654	283.8283446712018	59	127
283.8283446712018	284.1069841269841	52	127
283.8283446712018	284.1069841269841	64	127
284.1069841269841	284.3043537414966	67	127
284.1069841269841	284.3043537414966	55	127
284.3043537414966	284.5597732426304	71	127
284.3043537414966	284.5597732426304	59	127
284.5597732426304	284.8384126984127	76	127
284.5597732426304	284.8384126984127	64	127
284.8384126984127	285.04739229024943	81	127
284.8384126984127	285.04739229024943	69	127
284.8384126984127	285.30278911564625	71	127
284.8384126984127	285.30278911564625	59	127
285.04739229024943	285.30278911564625	66	127
285.04739229024943	285.30278911564625	78	127
285.30278911564625	285.54662131519274	71	127
285.30278911564625	285.54662131519274	79	127
285.30278911564625	285.54662131519274	59	127
285.54662131519274	285.778820861678	55	127
285.778820861678	286.04585034013604	71	127
285.778820861678	286.04585034013604	59	127
286.04585034013604	286.2896598639456	76	127
286.04585034013604	286.2896598639456	64	127
286.2896598639456	286.5566893424036	79	127
286.2896598639456	286.5566893424036	67	127
286.5566893424036	286.83532879818597	71	127
286.5566893424036	286.83532879818597	83	127
286.83532879818597	287.1487755102041	85	127
286.83532879818597	287.1487755102041	73	127
286.83532879818597	287.43904761904764	81	127
286.83532879818597	287.43904761904764	69	127
287.1487755102041	287.43904761904764	75	127
287.1487755102041	287.43904761904764	87	127
287.43904761904764	288.03115646258505	79	127
287.43904761904764	288.03115646258505	88	127
287.43904761904764	288.03115646258505	67	127
287.43904761904764	288.03115646258505	76	127
288.646485260771	290.82913832199546	55	127
288.646485260771	290.82913832199546	79	127
288.646485260771	290.82913832199546	88	127
288.646485260771	290.82913832199546	76	127
288.646485260771	290.82913832199546	64	127
288.646485260771	290.82913832199546	67	127
290.82913832199546	292.1294784580499	77	127
290.82913832199546	291.0845804988662	86	127
290.82913832199546	292.1294784580499	74	127
290.82913832199546	292.1294784580499	55	127
290.82913832199546	292.1294784580499	62	127
290.82913832199546	292.1294784580499	65	127
291.4444671201814	291.6882993197279	83	127
292.1294784580499	292.41972789115647	72	127
292.1294784580499	292.41972789115647	84	127
292.1294784580499	292.7680045351474	60	127
292.1294784580499	292.7680045351474	64	127
292.41972789115647	292.61709750566894	76	127
292.61709750566894	292.7680045351474	84	127
292.7680045351474	292.93056689342404	79	127
292.7680045351474	293.2672562358277	64	127
292.7680045351474	293.2672562358277	67	127
292.93056689342404	293.0931065759637	76	127
293.0931065759637	293.2672562358277	79	127
293.2672562358277	293.4181859410431	77	127
293.2672562358277	293.80131519274374	62	127
293.2672562358277	293.80131519274374	65	127
293.4181859410431	293.59231292517006	74	127
293.59231292517006	293.80131519274374	77	127
293.80131519274374	294.38181405895693	60	127
293.80131519274374	293.987074829932	76	127
293.80131519274374	294.38181405895693	64	127
293.987074829932	294.1612244897959	72	127
294.1612244897959	294.38181405895693	76	127
294.38181405895693	295.46154195011337	63	127
294.38181405895693	295.46154195011337	54	127
294.38181405895693	295.46154195011337	60	127
294.38181405895693	294.59079365079367	75	127
294.59079365079367	294.77655328798187	72	127
294.77655328798187	294.9507029478458	75	127
294.9507029478458	295.10163265306124	72	127
295.10163265306124	295.25256235827663	75	127
295.25256235827663	295.46154195011337	72	127
295.46154195011337	295.6705215419501	76	127
295.46154195011337	296.018820861678	55	127
295.46154195011337	296.018820861678	60	127
295.46154195011337	296.018820861678	64	127
295.6705215419501	295.82145124716556	72	127
295.82145124716556	296.018820861678	76	127
296.018820861678	296.5296598639456	64	127
296.018820861678	296.1813605442177	79	127
296.018820861678	296.5296598639456	60	127
296.018820861678	296.5296598639456	67	127
296.1813605442177	296.3438775510204	76	127
296.3438775510204	296.5296598639456	79	127
296.5296598639456	297.01727891156463	68	127
296.5296598639456	297.64421768707484	63	127
296.5296598639456	297.64421768707484	60	127
296.5296598639456	296.680589569161	80	127
296.680589569161	296.8431292517007	75	127
296.8431292517007	297.01727891156463	80	127
297.01727891156463	297.2146485260771	84	127
297.01727891156463	297.64421768707484	72	127
297.2146485260771	297.41201814058957	75	127
297.41201814058957	297.64421768707484	84	127
297.64421768707484	297.86480725623585	79	127
297.64421768707484	298.27115646258505	67	127
297.64421768707484	298.27115646258505	60	127
297.86480725623585	298.0621768707483	76	127
298.0621768707483	298.27115646258505	79	127
298.27115646258505	298.886485260771	60	127
298.27115646258505	298.50333333333333	76	127
298.27115646258505	298.886485260771	55	127
298.50333333333333	298.712335600907	72	127
298.712335600907	298.886485260771	76	127
298.886485260771	299.0606349206349	75	127
298.886485260771	299.95460317460316	54	127
298.886485260771	299.95460317460316	63	127
298.886485260771	299.95460317460316	60	127
299.0606349206349	299.2580045351474	72	127
299.2580045351474	299.4321541950113	75	127
299.4321541950113	299.6178911564626	72	127
299.6178911564626	299.78045351473924	75	127
299.78045351473924	299.95460317460316	72	127
299.95460317460316	300.6047619047619	64	127
299.95460317460316	300.1635827664399	76	127
299.95460317460316	300.6047619047619	55	127
299.95460317460316	300.6047619047619	60	127
300.1635827664399	300.3493424036281	72	127
300.3493424036281	300.6047619047619	76	127
300.6047619047619	301.3361904761905	67	127
300.6047619047619	300.81374149659865	79	127
300.6047619047619	301.3361904761905	64	127
300.81374149659865	301.04594104308393	76	127
301.04594104308393	301.3361904761905	79	127
301.3361904761905	302.53201814058957	65	127
301.3361904761905	301.53356009070296	81	127
301.3361904761905	301.95151927437644	69	127
301.53356009070296	301.73092970521543	77	127
301.73092970521543	301.95151927437644	81	127
301.95151927437644	302.53201814058957	74	127
301.95151927437644	302.13727891156464	86	127
302.13727891156464	302.35786848072564	77	127
302.35786848072564	302.53201814058957	86	127
302.53201814058957	303.0660770975057	64	127
302.53201814058957	302.7061678004535	79	127
302.53201814058957	303.0660770975057	67	127
302.7061678004535	302.8803174603175	76	127
302.8803174603175	303.0660770975057	79	127
303.0660770975057	303.61172335600907	64	127
303.0660770975057	303.2402267573696	84	127
303.0660770975057	303.61172335600907	72	127
303.2402267573696	303.41437641723354	76	127
303.41437641723354	303.61172335600907	84	127
303.61172335600907	304.71469387755104	62	127
303.61172335600907	303.8439455782313	77	127
303.61172335600907	304.16902494331066	65	127
303.8439455782313	303.98326530612246	74	127
303.98326530612246	304.16902494331066	77	127
304.16902494331066	304.3431746031746	83	127
304.16902494331066	304.71469387755104	71	127
304.3431746031746	304.54054421768706	74	127
304.54054421768706	304.71469387755104	83	127
304.71469387755104	305.27197278911564	60	127
304.71469387755104	304.86562358276643	81	127
304.71469387755104	305.27197278911564	69	127
304.86562358276643	305.08621315192744	72	127
305.08621315192744	305.27197278911564	81	127
305.27197278911564	305.4460997732426	76	127
305.27197278911564	305.8640589569161	64	127
305.27197278911564	305.8640589569161	60	127
305.4460997732426	305.6318820861678	72	127
305.6318820861678	305.8640589569161	76	127
305.8640589569161	306.0730612244898	76	127
305.8640589569161	306.479410430839	60	127
305.8640589569161	306.479410430839	64	127
305.8640589569161	306.99024943310656	53	127
306.0730612244898	306.2936507936508	72	127
306.2936507936508	306.479410430839	76	127
306.479410430839	306.6419501133787	74	127
306.479410430839	306.99024943310656	59	127
306.479410430839	306.99024943310656	62	127
306.6419501133787	306.80448979591836	71	127
306.80448979591836	306.99024943310656	74	127
306.99024943310656	308.11641723356007	52	127
306.99024943310656	307.1760090702948	74	127
306.99024943310656	307.5475283446712	59	127
306.99024943310656	307.5475283446712	62	127
307.1760090702948	307.35015873015874	71	127
307.35015873015874	307.5475283446712	74	127
307.5475283446712	308.11641723356007	64	127
307.5475283446712	307.7448979591837	76	127
307.5475283446712	308.11641723356007	60	127
307.7448979591837	307.9306575963719	72	127
307.9306575963719	308.11641723356007	76	127
308.11641723356007	309.3586848072562	50	127
308.11641723356007	308.3253968253968	79	127
308.19768707482996	309.3586848072562	57	127
308.2789569160998	309.3586848072562	60	127
308.3253968253968	308.5459863945578	72	127
308.3370068027211	309.3586848072562	67	127
308.5459863945578	308.7665759637188	79	127
308.7665759637188	308.91750566893427	72	127
308.91750566893427	309.126462585034	79	127
309.126462585034	309.3586848072562	72	127
309.3586848072562	310.64739229024946	59	127
309.3586848072562	309.6373015873016	77	127
309.3586848072562	309.98562358276644	65	127
309.3586848072562	310.64739229024946	55	127
309.6373015873016	309.78825396825397	71	127
309.78825396825397	309.98562358276644	77	127
309.98562358276644	310.20621315192744	74	127
309.98562358276644	310.64739229024946	62	127
310.20621315192744	310.42680272108845	65	127
310.42680272108845	310.64739229024946	74	127
310.64739229024946	310.9028117913832	79	127
310.64739229024946	311.86643990929707	48	127
310.9028117913832	311.0769387755102	70	127
311.0769387755102	311.27430839002267	67	127
311.27430839002267	311.4949206349206	72	127
311.4949206349206	311.6806575963719	70	127
311.6806575963719	311.86643990929707	60	127
311.86643990929707	312.0057596371882	72	127
311.86643990929707	312.3540589569161	36	127
312.0057596371882	312.1799092970522	70	127
312.1799092970522	312.3540589569161	60	127
312.3540589569161	312.51659863945576	72	127
312.3540589569161	312.8881179138322	36	127
312.51659863945576	312.69074829931975	69	127
312.69074829931975	312.8881179138322	60	127
312.8881179138322	313.9562358276644	48	127
312.8881179138322	313.0738775510204	82	127
313.0738775510204	313.24802721088435	76	127
313.24802721088435	313.42215419501133	70	127
313.42215419501133	313.59632653061226	76	127
313.59632653061226	313.7704761904762	70	127
313.7704761904762	313.9562358276644	64	127
313.9562358276644	314.1187755102041	76	127
313.9562358276644	314.4554648526077	36	127
314.1187755102041	314.2697052154195	70	127
314.2697052154195	314.4554648526077	64	127
314.4554648526077	314.97791383219953	36	127
314.4554648526077	314.6180045351474	77	127
314.6180045351474	314.8037641723356	69	127
314.8037641723356	314.97791383219953	65	127
314.97791383219953	315.1172335600907	81	127
314.97791383219953	315.95315192743766	48	127
315.1172335600907	315.3029931972789	77	127
315.3029931972789	315.47714285714284	69	127
315.47714285714284	315.63968253968255	79	127
315.63968253968255	315.8022222222222	77	127
315.8022222222222	315.95315192743766	67	127
315.95315192743766	316.4756009070295	36	127
315.95315192743766	316.1156916099773	79	127
316.1156916099773	316.3014512471655	77	127
316.3014512471655	316.4756009070295	67	127
316.4756009070295	316.63814058956916	79	127
316.4756009070295	316.99802721088435	36	127
316.63814058956916	316.8122902494331	76	127
316.8122902494331	316.99802721088435	67	127
316.99802721088435	317.18380952380954	89	127
316.99802721088435	318.1009977324263	48	127
317.18380952380954	317.381179138322	79	127
317.381179138322	317.5669387755102	77	127
317.5669387755102	317.72947845804987	83	127
317.72947845804987	317.9152380952381	77	127
317.9152380952381	318.1009977324263	71	127
318.1009977324263	318.263537414966	83	127
318.1009977324263	318.63503401360543	36	127
318.263537414966	318.4492970521542	77	127
318.4492970521542	318.63503401360543	71	127
318.63503401360543	319.2039455782313	36	127
318.63503401360543	318.80920634920636	84	127
318.80920634920636	318.99496598639456	76	127
318.99496598639456	319.2039455782313	72	127
319.2039455782313	319.3780952380952	34	127
319.2039455782313	320.28367346938774	84	127
319.2039455782313	320.28367346938774	72	127
319.3780952380952	319.54063492063494	36	127
319.54063492063494	319.7380045351474	46	127
319.7380045351474	319.91215419501134	33	127
319.91215419501134	320.08630385487527	36	127
320.08630385487527	320.28367346938774	45	127
320.28367346938774	320.4578231292517	33	127
320.28367346938774	320.8061224489796	72	127
320.4578231292517	320.63197278911565	36	127
320.63197278911565	320.8061224489796	45	127
320.8061224489796	320.957052154195	34	127
320.8061224489796	322.23414965986393	72	127
320.957052154195	321.1428117913832	36	127
321.1428117913832	321.2473015873016	46	127
321.2473015873016	322.23414965986393	84	127
321.2473015873016	321.40984126984125	34	127
321.40984126984125	321.5956009070295	36	127
321.5956009070295	321.76975056689344	46	127
321.76975056689344	321.9206802721088	33	127
321.9206802721088	322.0948299319728	36	127
322.0948299319728	322.23414965986393	45	127
322.23414965986393	322.4315192743764	33	127
322.23414965986393	322.76820861678004	72	127
322.4315192743764	322.6056689342404	36	127
322.6056689342404	322.76820861678004	45	127
322.76820861678004	324.21945578231293	72	127
322.76820861678004	322.942358276644	34	127
322.942358276644	323.0932879818594	36	127
323.0932879818594	323.24419501133787	46	127
323.24419501133787	323.4067573696145	32	127
323.24419501133787	324.21945578231293	84	127
323.4067573696145	323.5692970521542	36	127
323.5692970521542	323.7318367346939	44	127
323.7318367346939	323.89437641723356	31	127
323.89437641723356	324.0685260770975	36	127
324.0685260770975	324.21945578231293	43	127
324.21945578231293	324.3819954648526	31	127
324.21945578231293	324.71868480725624	72	127
324.3819954648526	324.5445351473923	36	127
324.5445351473923	324.71868480725624	43	127
324.71868480725624	326.29764172335604	72	127
324.71868480725624	324.93927437641725	32	127
324.93927437641725	325.09020408163263	36	127
325.09020408163263	325.2643537414966	44	127
325.2643537414966	325.4501133786848	31	127
325.2643537414966	326.29764172335604	84	127
325.4501133786848	325.62426303854875	36	127
325.62426303854875	325.79839002267573	43	127
325.79839002267573	325.97256235827666	30	127
325.97256235827666	326.1351020408163	36	127
326.1351020408163	326.29764172335604	42	127
326.29764172335604	326.47179138321997	30	127
326.29764172335604	326.8317006802721	72	127
326.47179138321997	326.65755102040816	36	127
326.65755102040816	326.8317006802721	42	127
326.8317006802721	327.07551020408164	31	127
326.8317006802721	327.5050793650794	72	127
327.07551020408164	327.29609977324264	36	127
327.29609977324264	327.5050793650794	43	127
327.5050793650794	327.70244897959185	85	127
327.5050793650794	328.5964172335601	42	127
327.5050793650794	328.5964172335601	54	127
327.70244897959185	327.9346258503401	76	127
327.9346258503401	328.1204081632653	73	127
328.1204081632653	328.3061678004535	84	127
328.3061678004535	328.45707482993197	75	127
328.45707482993197	328.5964172335601	72	127
328.5964172335601	329.14208616780047	42	127
328.5964172335601	328.74734693877554	84	127
328.5964172335601	329.14208616780047	30	127
328.74734693877554	328.93310657596373	75	127
328.93310657596373	329.14208616780047	72	127
329.14208616780047	330.5701133786848	42	127
329.14208616780047	329.3162358276644	85	127
329.3162358276644	329.4787528344671	76	127
329.4787528344671	329.6761224489796	73	127
329.6761224489796	329.8502947845805	85	127
329.6761224489796	330.5701133786848	54	127
329.8502947845805	330.02444444444444	76	127
330.02444444444444	330.11732426303854	73	127
330.11732426303854	330.24503401360545	84	127
330.24503401360545	330.4191836734694	75	127
330.4191836734694	330.5701133786848	72	127
330.5701133786848	331.0693424036281	42	127
330.5701133786848	330.69780045351473	84	127
330.5701133786848	331.0693424036281	30	127
330.69780045351473	330.87197278911566	75	127
330.87197278911566	331.0693424036281	72	127
331.0693424036281	331.24349206349206	85	127
331.0693424036281	332.4973696145125	42	127
331.24349206349206	331.37120181405896	76	127
331.37120181405896	331.5337414965986	73	127
331.5337414965986	332.4973696145125	54	127
331.5337414965986	331.7078911564626	83	127
331.7078911564626	331.858820861678	74	127
331.858820861678	331.9981405895692	71	127
331.9981405895692	332.1839002267574	82	127
332.1839002267574	332.34643990929703	73	127
332.34643990929703	332.4973696145125	70	127
332.4973696145125	332.6715192743764	82	127
332.4973696145125	332.9965986394558	30	127
332.4973696145125	332.9965986394558	42	127
332.6715192743764	332.82244897959185	73	127
332.82244897959185	332.9965986394558	70	127
332.9965986394558	333.10108843537415	83	127
332.9965986394558	334.33174603174604	42	127
333.10108843537415	333.2519954648526	74	127
333.2519954648526	333.3913378684807	71	127
333.3913378684807	334.33174603174604	54	127
333.3913378684807	333.55387755102043	81	127
333.55387755102043	333.72802721088436	73	127
333.72802721088436	333.86732426303854	69	127
333.86732426303854	333.9834467120181	79	127
333.9834467120181	334.1575963718821	71	127
334.1575963718821	334.33174603174604	67	127
334.33174603174604	334.51750566893423	79	127
334.33174603174604	334.8774149659864	30	127
334.33174603174604	334.8774149659864	42	127
334.51750566893423	334.6916326530612	71	127
334.6916326530612	334.8774149659864	67	127
334.8774149659864	335.0399546485261	77	127
334.8774149659864	335.33020408163264	42	127
335.0399546485261	335.1908843537415	71	127
335.1908843537415	335.33020408163264	65	127
335.33020408163264	335.50433106575963	30	127
335.33020408163264	335.7481632653061	66	127
335.33020408163264	335.7481632653061	70	127
335.33020408163264	335.7481632653061	78	127
335.50433106575963	335.7481632653061	42	127
335.7481632653061	336.00358276643993	46	127
336.00358276643993	336.23578231292515	49	127
336.23578231292515	337.0717006802721	52	127
336.23578231292515	337.0717006802721	42	127
337.0717006802721	337.5476870748299	50	127
337.0717006802721	337.9888888888889	42	127
337.2922902494331	337.5476870748299	66	127
337.5476870748299	337.9888888888889	49	127
337.5476870748299	337.77990929705214	70	127
337.77990929705214	337.9888888888889	73	127
337.9888888888889	338.22108843537416	30	127
337.9888888888889	338.95251700680274	64	127
337.9888888888889	338.95251700680274	76	127
338.22108843537416	338.49972789115645	42	127
338.49972789115645	338.6970975056689	46	127
338.6970975056689	338.95251700680274	49	127
338.95251700680274	339.17310657596374	42	127
338.95251700680274	339.17310657596374	54	127
338.95251700680274	339.40530612244896	74	127
339.17310657596374	339.40530612244896	58	127
339.40530612244896	339.5910430839002	61	127
339.40530612244896	339.846485260771	73	127
339.5910430839002	339.846485260771	64	127
339.846485260771	340.85655328798185	67	127
339.846485260771	340.85655328798185	54	127
340.1251247165533	340.3689342403628	70	127
340.1251247165533	340.3689342403628	82	127
340.3689342403628	340.62433106575963	85	127
340.3689342403628	340.62433106575963	73	127
340.62433106575963	340.85655328798185	76	127
340.62433106575963	340.85655328798185	88	127
340.85655328798185	341.40222222222224	66	127
340.85655328798185	341.98272108843537	79	127
340.85655328798185	341.98272108843537	91	127
340.85655328798185	341.98272108843537	54	127
341.40222222222224	341.98272108843537	64	127
341.98272108843537	342.7025396825397	78	127
341.98272108843537	342.7025396825397	90	127
341.98272108843537	342.7025396825397	62	127
341.98272108843537	343.2946485260771	54	127
342.7025396825397	343.2946485260771	61	127
342.7025396825397	343.2946485260771	70	127
342.7025396825397	343.2946485260771	76	127
342.7025396825397	343.2946485260771	82	127
343.7822448979592	344.084126984127	66	127
343.7822448979592	344.084126984127	54	127
344.084126984127	344.9548752834467	71	127
344.084126984127	344.9548752834467	62	127
344.084126984127	344.9548752834467	47	127
344.9548752834467	345.2683446712018	54	127
344.9548752834467	345.2683446712018	66	127
345.2683446712018	345.5818140589569	47	127
345.2683446712018	345.5818140589569	62	127
345.2683446712018	345.5818140589569	71	127
345.5818140589569	345.9068934240363	74	127
345.5818140589569	345.9068934240363	42	127
345.5818140589569	345.9068934240363	66	127
345.9068934240363	346.69637188208617	62	127
345.9068934240363	346.69637188208617	71	127
345.9068934240363	346.69637188208617	35	127
346.69637188208617	346.97501133786847	66	127
346.69637188208617	346.97501133786847	54	127
346.97501133786847	347.1956009070295	71	127
346.97501133786847	347.1956009070295	62	127
346.97501133786847	347.1956009070295	47	127
347.1956009070295	347.4742176870748	66	127
347.1956009070295	347.4742176870748	74	127
347.1956009070295	347.4742176870748	42	127
347.4742176870748	347.7180498866213	62	127
347.4742176870748	347.7180498866213	71	127
347.4742176870748	347.7180498866213	35	127
347.7180498866213	347.9038095238095	66	127
347.7180498866213	347.9038095238095	54	127
347.9038095238095	348.14761904761906	71	127
347.9038095238095	348.14761904761906	47	127
347.9038095238095	348.14761904761906	62	127
348.14761904761906	348.42625850340136	66	127
348.14761904761906	348.42625850340136	74	127
348.14761904761906	348.42625850340136	42	127
348.42625850340136	349.2157369614512	47	127
348.42625850340136	349.2157369614512	66	127
348.42625850340136	349.2157369614512	74	127
348.42625850340136	349.2157369614512	78	127
348.42625850340136	349.2157369614512	35	127
349.2157369614512	349.47115646258504	73	127
349.2157369614512	349.47115646258504	34	127
349.2157369614512	349.47115646258504	46	127
349.2157369614512	349.47115646258504	76	127
349.2157369614512	349.47115646258504	64	127
349.47115646258504	350.2954648526077	73	127
349.47115646258504	350.2954648526077	64	127
349.47115646258504	350.2954648526077	76	127
349.47115646258504	350.2954648526077	34	127
349.47115646258504	350.2954648526077	46	127
350.2954648526077	350.57410430839	71	127
350.2954648526077	350.57410430839	33	127
350.2954648526077	350.57410430839	45	127
350.2954648526077	350.57410430839	75	127
350.2954648526077	350.57410430839	63	127
350.57410430839	351.60739229024944	75	127
350.57410430839	351.60739229024944	63	127
350.57410430839	351.60739229024944	71	127
350.57410430839	351.60739229024944	33	127
350.57410430839	351.60739229024944	45	127
351.60739229024944	352.01374149659864	64	127
351.60739229024944	352.01374149659864	32	127
351.60739229024944	352.01374149659864	44	127
351.60739229024944	352.01374149659864	76	127
351.60739229024944	352.01374149659864	71	127
352.01374149659864	352.58260770975056	71	127
352.01374149659864	352.58260770975056	64	127
352.01374149659864	352.58260770975056	76	127
352.01374149659864	352.58260770975056	32	127
352.01374149659864	352.58260770975056	44	127
352.58260770975056	352.8844671201814	31	127
352.58260770975056	352.8844671201814	43	127
352.8844671201814	353.46498866213153	64	127
352.8844671201814	353.1631292517007	47	127
353.1631292517007	353.46498866213153	43	127
353.1631292517007	353.46498866213153	76	127
353.1631292517007	353.46498866213153	55	127
353.46498866213153	353.74362811791383	78	127
353.46498866213153	353.74362811791383	66	127
353.46498866213153	353.74362811791383	42	127
353.46498866213153	353.74362811791383	54	127
353.74362811791383	354.31249433106575	40	127
353.74362811791383	354.31249433106575	52	127
353.74362811791383	354.31249433106575	67	127
353.74362811791383	354.31249433106575	79	127
353.74362811791383	354.8465759637188	47	127
354.31249433106575	354.59115646258505	54	127
354.31249433106575	354.59115646258505	66	127
354.31249433106575	354.59115646258505	78	127
354.31249433106575	354.59115646258505	42	127
354.59115646258505	354.8465759637188	64	127
354.59115646258505	354.8465759637188	76	127
354.59115646258505	354.8465759637188	43	127
354.59115646258505	354.8465759637188	55	127
354.8465759637188	355.14843537414964	31	127
354.8465759637188	355.14843537414964	43	127
355.14843537414964	355.36902494331065	47	127
355.14843537414964	355.62444444444446	64	127
355.36902494331065	355.62444444444446	76	127
355.36902494331065	355.62444444444446	43	127
355.36902494331065	355.62444444444446	55	127
355.62444444444446	355.9263038548753	66	127
355.62444444444446	355.9263038548753	78	127
355.62444444444446	355.9263038548753	54	127
355.9263038548753	357.13374149659865	47	127
355.9263038548753	356.27460317460316	69	127
355.9263038548753	356.27460317460316	81	127
355.9263038548753	356.5648299319728	40	127
355.9263038548753	356.5648299319728	52	127
356.27460317460316	356.5648299319728	67	127
356.27460317460316	356.5648299319728	79	127
356.5648299319728	356.85510204081635	54	127
356.5648299319728	356.85510204081635	42	127
356.5648299319728	356.85510204081635	78	127
356.5648299319728	356.85510204081635	66	127
356.85510204081635	357.13374149659865	64	127
356.85510204081635	357.13374149659865	76	127
356.85510204081635	357.13374149659865	43	127
356.85510204081635	357.13374149659865	55	127
357.13374149659865	357.8071201814059	65	127
357.13374149659865	357.8071201814059	77	127
357.3659410430839	357.54009070294785	44	127
357.3659410430839	357.54009070294785	56	127
357.54009070294785	358.4224489795918	49	127
357.8071201814059	358.08575963718823	73	127
358.08575963718823	358.9332879818594	78	127
358.08575963718823	358.9332879818594	66	127
358.4224489795918	358.7010884353742	42	127
358.4224489795918	358.7010884353742	54	127
358.7010884353742	359.45573696145124	49	127
358.9332879818594	359.1887074829932	73	127
359.1887074829932	359.9433333333333	80	127
359.1887074829932	359.9433333333333	68	127
359.1887074829932	359.9433333333333	77	127
359.45573696145124	359.6879365079365	37	127
359.6879365079365	360.66315192743764	49	127
359.9433333333333	360.2219954648526	73	127
360.2219954648526	360.9534240362812	70	127
360.2219954648526	360.9534240362812	78	127
360.2219954648526	360.9534240362812	82	127
360.66315192743764	360.9534240362812	30	127
360.9534240362812	361.7661224489796	42	127
360.9534240362812	361.7661224489796	54	127
361.7661224489796	364.3783673469388	50	127
361.7661224489796	364.3783673469388	59	127
361.7661224489796	364.3783673469388	47	127
362.93873015873015	363.4263492063492	30	127
363.4263492063492	365.0401360544218	31	127
364.3783673469388	367.0486621315193	38	127
364.3783673469388	364.7266666666667	50	127
364.7266666666667	365.0401360544218	59	127
365.0401360544218	365.3071655328798	62	127
365.0401360544218	365.3071655328798	30	127
365.3071655328798	367.0486621315193	59	127
365.3071655328798	365.73673469387757	31	127
365.73673469387757	366.0734013605442	33	127
366.0734013605442	367.7568707482993	31	127
367.0486621315193	367.3969614512472	50	127
367.0486621315193	369.19650793650794	38	127
367.3969614512472	367.7568707482993	59	127
367.7568707482993	368.05873015873016	30	127
367.7568707482993	368.05873015873016	62	127
368.05873015873016	369.19650793650794	59	127
368.05873015873016	368.38380952380953	31	127
368.38380952380953	368.77854875283447	33	127
368.77854875283447	369.9279365079365	31	127
369.19650793650794	369.60285714285715	50	127
369.19650793650794	370.4968253968254	38	127
369.60285714285715	369.9279365079365	59	127
369.9279365079365	370.22979591836736	62	127
369.9279365079365	370.22979591836736	30	127
370.22979591836736	370.4968253968254	59	127
370.22979591836736	370.4968253968254	31	127
370.4968253968254	370.7522448979592	50	127
370.4968253968254	370.7522448979592	33	127
370.4968253968254	371.6578231292517	38	127
370.7522448979592	371.05410430839004	59	127
370.7522448979592	371.05410430839004	31	127
371.05410430839004	371.3443537414966	62	127
371.05410430839004	371.3443537414966	30	127
371.3443537414966	371.6578231292517	31	127
371.3443537414966	371.6578231292517	59	127
371.6578231292517	372.5285714285714	38	127
371.6578231292517	371.9829024943311	33	127
371.6578231292517	371.9829024943311	50	127
371.9829024943311	372.23832199546484	59	127
371.9829024943311	372.23832199546484	31	127
372.23832199546484	372.5285714285714	62	127
372.23832199546484	372.5285714285714	29	127
372.5285714285714	372.7956009070295	30	127
372.5285714285714	373.7940589569161	62	127
372.5285714285714	373.7940589569161	59	127
372.5285714285714	373.434126984127	66	127
372.7956009070295	373.1671201814059	31	127
373.1671201814059	373.7940589569161	30	127
373.434126984127	373.7940589569161	67	127
373.7940589569161	375.0131065759637	58	127
373.7940589569161	375.0131065759637	61	127
373.7940589569161	374.6996371882086	67	127
374.6996371882086	375.0131065759637	66	127
374.6996371882086	375.0131065759637	54	127
375.0131065759637	376.0115646258503	54	127
375.0131065759637	376.0115646258503	66	127
375.0131065759637	376.34825396825397	47	127
375.0131065759637	376.34825396825397	59	127
376.0115646258503	376.34825396825397	55	127
376.0115646258503	376.34825396825397	67	127
376.34825396825397	377.8691609977324	47	127
376.34825396825397	377.45120181405895	67	127
376.34825396825397	377.45120181405895	55	127
376.34825396825397	377.8691609977324	59	127
377.45120181405895	377.8691609977324	54	127
377.45120181405895	377.8691609977324	66	127
377.8691609977324	378.8327891156463	61	127
377.8691609977324	378.8327891156463	49	127
377.8691609977324	379.12303854875285	59	127
377.8691609977324	379.12303854875285	47	127
378.8327891156463	379.12303854875285	50	127
378.8327891156463	379.12303854875285	62	127
379.12303854875285	379.8196371882086	64	127
379.12303854875285	379.8196371882086	52	127
379.12303854875285	380.52784580498866	59	127
379.12303854875285	380.52784580498866	47	127
379.8196371882086	380.16793650793653	50	127
379.8196371882086	380.16793650793653	62	127
380.16793650793653	380.52784580498866	49	127
380.16793650793653	380.52784580498866	61	127
380.52784580498866	381.85138321995464	59	127
380.52784580498866	381.85138321995464	47	127
380.52784580498866	381.5030839002268	49	127
380.52784580498866	381.5030839002268	61	127
381.5030839002268	381.85138321995464	62	127
381.5030839002268	381.85138321995464	50	127
381.85138321995464	383.0007709750567	47	127
381.85138321995464	382.16485260770975	66	127
381.85138321995464	382.16485260770975	54	127
381.85138321995464	383.0007709750567	59	127
382.16485260770975	382.4667120181406	52	127
382.16485260770975	382.4667120181406	64	127
382.4667120181406	382.69891156462586	50	127
382.4667120181406	382.69891156462586	62	127
382.69891156462586	383.0007709750567	61	127
382.69891156462586	383.0007709750567	49	127
383.0007709750567	383.9063492063492	59	127
383.0007709750567	383.9063492063492	47	127
383.9063492063492	384.1965986394558	61	127
383.9063492063492	384.1965986394558	49	127
384.1965986394558	385.02090702947845	59	127
384.1965986394558	385.02090702947845	47	127
385.02090702947845	385.33437641723356	61	127
385.02090702947845	385.33437641723356	49	127
385.33437641723356	386.4024943310658	59	127
385.33437641723356	386.4024943310658	47	127
386.4024943310658	386.84367346938774	61	127
386.4024943310658	386.84367346938774	49	127
386.84367346938774	387.83052154195013	59	127
386.84367346938774	387.83052154195013	47	127
387.83052154195013	388.1672108843537	49	127
387.83052154195013	388.1672108843537	61	127
388.1672108843537	389.0263492063492	59	127
388.1672108843537	389.0263492063492	47	127
389.0263492063492	389.8390476190476	54	127
389.0263492063492	389.8390476190476	42	127
390.8375056689342	392.7879818594104	55	127
391.7895238095238	393.1478911564626	30	127
391.7895238095238	393.1478911564626	42	127
392.7879818594104	394.22761904761904	54	127
394.8661678004535	396.25936507936507	54	127
394.8661678004535	396.25936507936507	42	127
396.25936507936507	396.7934240362812	47	127
396.25936507936507	396.7934240362812	35	127
396.7934240362812	397.5132426303855	66	127
396.7934240362812	397.5132426303855	42	127
397.5132426303855	398.16340136054424	59	127
397.5132426303855	398.16340136054424	35	127
398.16340136054424	398.97609977324265	66	127
398.16340136054424	398.97609977324265	78	127
398.16340136054424	398.97609977324265	42	127
398.97609977324265	399.6030385487528	71	127
398.97609977324265	399.6030385487528	75	127
398.97609977324265	399.6030385487528	83	127
398.97609977324265	399.6030385487528	35	127
399.6030385487528	400.19514739229027	70	127
399.6030385487528	400.19514739229027	78	127
399.6030385487528	400.19514739229027	82	127
399.6030385487528	400.19514739229027	42	127
400.19514739229027	400.8104761904762	68	127
400.19514739229027	400.8104761904762	76	127
400.19514739229027	400.8104761904762	80	127
400.19514739229027	400.8104761904762	35	127
400.8104761904762	401.42580498866215	66	127
400.8104761904762	401.42580498866215	75	127
400.8104761904762	401.42580498866215	78	127
400.8104761904762	401.42580498866215	42	127
401.42580498866215	402.07596371882084	73	127
401.42580498866215	402.07596371882084	64	127
401.42580498866215	402.07596371882084	76	127
401.42580498866215	402.07596371882084	35	127
402.07596371882084	402.42426303854876	78	127
402.07596371882084	402.42426303854876	66	127
402.07596371882084	402.42426303854876	75	127
402.07596371882084	402.74934240362813	42	127
402.42426303854876	402.74934240362813	70	127
402.42426303854876	402.74934240362813	73	127
402.42426303854876	402.74934240362813	61	127
402.74934240362813	403.38789115646256	76	127
402.74934240362813	403.38789115646256	64	127
402.74934240362813	403.38789115646256	73	127
402.74934240362813	403.38789115646256	35	127
403.38789115646256	404.02643990929704	63	127
403.38789115646256	404.02643990929704	71	127
403.38789115646256	404.02643990929704	75	127
403.38789115646256	404.02643990929704	42	127
404.02643990929704	404.8043083900227	64	127
404.02643990929704	404.8043083900227	73	127
404.02643990929704	404.8043083900227	35	127
404.8043083900227	405.09455782312926	66	127
404.8043083900227	405.09455782312926	75	127
404.8043083900227	405.38480725623583	42	127
405.09455782312926	405.38480725623583	70	127
405.09455782312926	405.38480725623583	61	127
405.38480725623583	406.0465759637188	64	127
405.38480725623583	406.0465759637188	73	127
405.38480725623583	406.0465759637188	35	127
406.0465759637188	406.5806349206349	63	127
406.0465759637188	406.5806349206349	71	127
406.0465759637188	406.5806349206349	42	127
406.5806349206349	407.2424036281179	64	127
406.5806349206349	407.2424036281179	61	127
406.5806349206349	407.2424036281179	35	127
406.5806349206349	409.2044897959184	66	127
407.2424036281179	407.8461224489796	63	127
407.2424036281179	407.8461224489796	42	127
407.2424036281179	407.8461224489796	59	127
407.8461224489796	408.5659410430839	35	127
407.8461224489796	409.2044897959184	61	127
407.8461224489796	409.2044897959184	54	127
408.5659410430839	409.2044897959184	42	127
409.2044897959184	409.8894784580499	66	127
409.2044897959184	409.8894784580499	78	127
409.2044897959184	409.8894784580499	35	127
409.8894784580499	410.5280272108844	59	127
409.8894784580499	410.5280272108844	71	127
409.8894784580499	410.5280272108844	40	127
410.5280272108844	411.15496598639453	66	127
410.5280272108844	411.15496598639453	78	127
410.5280272108844	411.15496598639453	35	127
411.15496598639453	411.8283446712018	59	127
411.15496598639453	411.8283446712018	71	127
411.15496598639453	411.8283446712018	38	127
411.8283446712018	412.44367346938776	62	127
411.8283446712018	412.44367346938776	74	127
411.8283446712018	412.44367346938776	35	127
412.44367346938776	413.0938321995465	59	127
412.44367346938776	413.0938321995465	71	127
412.44367346938776	413.0938321995465	42	127
413.0938321995465	413.7439909297052	66	127
413.0938321995465	413.7439909297052	78	127
413.0938321995465	413.7439909297052	30	127
413.7439909297052	414.67278911564625	66	127
413.7439909297052	414.67278911564625	42	127
414.67278911564625	415.99632653061224	54	127
414.67278911564625	415.34616780045354	66	127
414.67278911564625	415.34616780045354	30	127
415.34616780045354	415.67124716553286	68	127
415.34616780045354	415.99632653061224	42	127
415.67124716553286	415.99632653061224	64	127
415.99632653061224	416.6697052154195	30	127
415.99632653061224	416.6697052154195	68	127
415.99632653061224	417.37791383219957	54	127
416.6697052154195	417.37791383219957	42	127
416.6697052154195	417.37791383219957	66	127
417.37791383219957	418.57374149659864	54	127
417.37791383219957	418.0048526077097	30	127
417.37791383219957	418.0048526077097	64	127
418.0048526077097	418.57374149659864	63	127
418.0048526077097	418.57374149659864	42	127
418.57374149659864	419.1774603174603	30	127
418.57374149659864	419.85083900226755	61	127
418.57374149659864	419.85083900226755	54	127
419.1774603174603	419.85083900226755	42	127
419.85083900226755	420.47777777777776	63	127
419.85083900226755	421.11632653061224	54	127
419.85083900226755	420.47777777777776	30	127
420.47777777777776	421.11632653061224	42	127
420.47777777777776	421.11632653061224	61	127
421.11632653061224	421.7200453514739	30	127
421.11632653061224	422.4863038548753	59	127
421.11632653061224	422.4863038548753	54	127
421.7200453514739	422.4863038548753	42	127
422.4863038548753	423.15968253968254	54	127
422.4863038548753	423.15968253968254	57	127
422.4863038548753	423.15968253968254	35	127
423.15968253968254	423.7750113378685	52	127
423.15968253968254	423.7750113378685	55	127
423.15968253968254	423.7750113378685	47	127
423.7750113378685	424.4483900226757	35	127
423.7750113378685	425.09854875283446	51	127
423.7750113378685	425.09854875283446	54	127
424.4483900226757	425.09854875283446	47	127
425.09854875283446	425.81836734693877	54	127
425.09854875283446	425.81836734693877	57	127
425.09854875283446	425.81836734693877	36	127
425.81836734693877	426.3988662131519	52	127
425.81836734693877	426.3988662131519	55	127
425.81836734693877	426.3988662131519	48	127
426.3988662131519	428.3029024943311	51	127
426.3988662131519	427.0374149659864	36	127
426.3988662131519	428.3029024943311	54	127
427.0374149659864	427.6179138321995	48	127
427.6179138321995	428.3029024943311	36	127
428.3029024943311	428.96467120181404	48	127
428.3029024943311	428.96467120181404	52	127
428.3029024943311	428.96467120181404	55	127
428.96467120181404	429.800589569161	36	127
428.96467120181404	430.40430839002266	51	127
428.96467120181404	430.40430839002266	54	127
429.800589569161	430.40430839002266	48	127
430.40430839002266	430.9383673469388	35	127
430.40430839002266	431.57691609977326	50	127
430.40430839002266	431.57691609977326	55	127
430.9383673469388	431.57691609977326	47	127
431.57691609977326	432.20385487528347	31	127
431.57691609977326	432.80757369614514	55	127
431.57691609977326	432.80757369614514	59	127
432.20385487528347	432.80757369614514	43	127
432.80757369614514	434.0730612244898	57	127
432.80757369614514	433.5157823129252	30	127
432.80757369614514	434.0730612244898	60	127
433.5157823129252	434.0730612244898	42	127
434.0730612244898	435.0134693877551	55	127
434.0730612244898	435.0134693877551	59	127
434.0730612244898	434.74643990929707	31	127
434.74643990929707	435.3269387755102	43	127
435.0134693877551	435.3269387755102	74	127
435.3269387755102	436.6388662131519	72	127
435.3269387755102	436.0119274376417	30	127
435.3269387755102	436.6388662131519	63	127
435.3269387755102	436.6388662131519	69	127
435.3269387755102	436.6388662131519	75	127
436.0119274376417	436.6388662131519	42	127
436.6388662131519	437.2309750566893	31	127
436.6388662131519	437.5444444444444	62	127
436.6388662131519	437.5444444444444	70	127
436.6388662131519	437.5444444444444	74	127
437.2309750566893	437.9043537414966	43	127
437.2309750566893	437.9043537414966	46	127
437.5444444444444	437.9043537414966	86	127
437.9043537414966	439.06535147392293	82	127
437.9043537414966	439.06535147392293	75	127
437.9043537414966	439.06535147392293	87	127
437.9043537414966	439.06535147392293	42	127
437.9043537414966	439.06535147392293	46	127
437.9043537414966	439.06535147392293	51	127
439.06535147392293	439.84321995464853	46	127
439.06535147392293	439.84321995464853	53	127
439.06535147392293	439.84321995464853	58	127
439.06535147392293	440.20312925170066	74	127
439.06535147392293	440.20312925170066	82	127
439.06535147392293	440.20312925170066	86	127
439.84321995464853	440.20312925170066	62	127
440.20312925170066	441.3176870748299	72	127
440.20312925170066	441.3176870748299	82	127
440.20312925170066	441.3176870748299	84	127
440.20312925170066	441.3176870748299	58	127
440.20312925170066	441.3176870748299	67	127
441.3176870748299	442.5367346938776	58	127
441.3176870748299	442.5367346938776	74	127
441.3176870748299	442.5367346938776	82	127
441.3176870748299	442.5367346938776	86	127
441.3176870748299	442.5367346938776	65	127
442.5367346938776	443.6280725623583	82	127
442.5367346938776	443.6280725623583	79	127
442.5367346938776	443.6280725623583	64	127
442.5367346938776	443.6280725623583	91	127
442.5367346938776	443.6280725623583	60	127
443.6280725623583	444.85873015873017	93	127
443.6280725623583	444.85873015873017	81	127
443.6280725623583	444.85873015873017	84	127
443.6280725623583	444.85873015873017	53	127
443.6280725623583	444.85873015873017	63	127
444.85873015873017	445.160589569161	62	127
444.85873015873017	445.4392290249433	82	127
444.85873015873017	445.4392290249433	94	127
444.85873015873017	446.0661678004535	58	127
444.85873015873017	446.0661678004535	89	127
445.160589569161	445.2999092970522	63	127
445.2999092970522	445.4392290249433	62	127
445.4392290249433	445.7178684807256	60	127
445.4392290249433	446.0661678004535	80	127
445.4392290249433	446.0661678004535	92	127
445.7178684807256	446.0661678004535	62	127
446.0661678004535	446.6582766439909	87	127
446.0661678004535	446.6582766439909	79	127
446.0661678004535	446.6582766439909	91	127
446.0661678004535	446.93691609977327	63	127
446.0661678004535	447.21555555555557	51	127
446.6582766439909	447.21555555555557	87	127
446.6582766439909	447.21555555555557	75	127
446.6582766439909	447.21555555555557	79	127
446.93691609977327	447.21555555555557	60	127
447.21555555555557	448.37655328798184	74	127
447.21555555555557	448.37655328798184	82	127
447.21555555555557	448.37655328798184	86	127
447.21555555555557	448.37655328798184	53	127
447.21555555555557	448.37655328798184	58	127
448.37655328798184	449.66526077097507	53	127
448.37655328798184	449.66526077097507	72	127
448.37655328798184	449.66526077097507	81	127
448.37655328798184	449.66526077097507	84	127
448.37655328798184	449.66526077097507	60	127
449.66526077097507	450.8843083900227	70	127
449.66526077097507	450.8843083900227	77	127
449.66526077097507	450.8843083900227	62	127
449.66526077097507	450.8843083900227	82	127
449.66526077097507	450.8843083900227	58	127
450.8843083900227	451.72022675736963	58	127
450.8843083900227	451.72022675736963	74	127
450.8843083900227	451.72022675736963	82	127
450.8843083900227	451.72022675736963	86	127
450.8843083900227	451.72022675736963	53	127
451.72022675736963	452.0104761904762	77	127
451.72022675736963	452.0104761904762	86	127
451.72022675736963	452.0104761904762	89	127
451.72022675736963	452.0104761904762	50	127
451.72022675736963	452.0104761904762	53	127
452.0104761904762	453.148253968254	87	127
452.0104761904762	453.148253968254	78	127
452.0104761904762	453.148253968254	90	127
452.0104761904762	453.148253968254	51	127
452.0104761904762	453.148253968254	48	127
453.148253968254	454.4485714285714	89	127
453.148253968254	453.84485260770975	50	127
453.148253968254	453.84485260770975	53	127
453.148253968254	454.4485714285714	77	127
453.148253968254	454.4485714285714	86	127
453.84485260770975	454.4485714285714	46	127
454.4485714285714	455.12195011337866	33	127
454.4485714285714	455.7372789115646	51	127
454.4485714285714	455.7372789115646	54	127
454.4485714285714	455.7372789115646	60	127
455.12195011337866	455.7372789115646	45	127
455.7372789115646	456.57319727891155	53	127
455.7372789115646	456.29455782312925	34	127
455.7372789115646	456.57319727891155	58	127
455.7372789115646	456.57319727891155	62	127
456.29455782312925	456.8518367346939	46	127
456.57319727891155	456.8518367346939	77	127
456.8518367346939	458.1637641723356	66	127
456.8518367346939	458.1637641723356	73	127
456.8518367346939	458.1637641723356	78	127
456.8518367346939	457.5948752834467	33	127
457.5948752834467	458.1637641723356	45	127
458.1637641723356	459.56857142857143	77	127
458.1637641723356	458.79070294784583	32	127
458.1637641723356	459.56857142857143	65	127
458.1637641723356	459.56857142857143	73	127
458.79070294784583	459.56857142857143	44	127
459.56857142857143	460.2651700680272	63	127
459.56857142857143	460.2651700680272	75	127
459.56857142857143	460.2651700680272	30	127
459.56857142857143	461.47260770975055	73	127
460.2651700680272	461.47260770975055	64	127
460.2651700680272	460.9037188208617	42	127
460.2651700680272	461.47260770975055	76	127
460.9037188208617	461.47260770975055	29	127
461.47260770975055	462.1575963718821	73	127
461.47260770975055	462.1575963718821	41	127
461.47260770975055	462.1575963718821	77	127
461.47260770975055	462.1575963718821	65	127
462.1575963718821	462.7613151927438	70	127
462.1575963718821	463.95714285714286	73	127
462.1575963718821	462.7613151927438	82	127
462.1575963718821	462.7613151927438	27	127
462.7613151927438	463.3418140589569	39	127
462.7613151927438	463.95714285714286	63	127
462.7613151927438	463.95714285714286	75	127
463.3418140589569	463.95714285714286	32	127
463.95714285714286	464.64213151927436	75	127
463.95714285714286	464.64213151927436	84	127
463.95714285714286	464.64213151927436	72	127
463.95714285714286	464.64213151927436	44	127
464.64213151927436	465.24585034013603	85	127
464.64213151927436	465.9192290249433	80	127
464.64213151927436	465.24585034013603	73	127
464.64213151927436	465.24585034013603	37	127
465.24585034013603	465.9192290249433	72	127
465.24585034013603	465.9192290249433	84	127
465.24585034013603	465.9192290249433	49	127
465.9192290249433	466.6042176870748	83	127
465.9192290249433	466.6042176870748	71	127
465.9192290249433	466.6042176870748	80	127
465.9192290249433	466.6042176870748	42	127
466.6042176870748	467.3008163265306	70	127
466.6042176870748	467.3008163265306	78	127
466.6042176870748	467.3008163265306	82	127
466.6042176870748	467.3008163265306	54	127
467.3008163265306	467.89292517006805	68	127
467.3008163265306	467.89292517006805	73	127
467.3008163265306	467.89292517006805	77	127
467.3008163265306	467.89292517006805	44	127
467.89292517006805	468.5663038548753	79	127
467.89292517006805	468.5663038548753	70	127
467.89292517006805	468.5663038548753	76	127
467.89292517006805	468.5663038548753	56	127
468.5663038548753	469.20485260770977	72	127
468.5663038548753	469.20485260770977	75	127
468.5663038548753	469.20485260770977	80	127
468.5663038548753	469.20485260770977	44	127
469.20485260770977	469.878231292517	68	127
469.20485260770977	469.878231292517	72	127
469.20485260770977	469.878231292517	78	127
469.20485260770977	469.878231292517	56	127
469.878231292517	470.5167800453515	68	127
469.878231292517	470.5167800453515	73	127
469.878231292517	470.5167800453515	77	127
469.878231292517	471.2365986394558	37	127
469.878231292517	471.2365986394558	49	127
470.5167800453515	471.2365986394558	73	127
470.5167800453515	471.2365986394558	77	127
471.2365986394558	471.80548752834466	61	127
471.2365986394558	472.0957369614512	41	127
471.2365986394558	471.80548752834466	65	127
471.2365986394558	472.0957369614512	53	127
471.80548752834466	472.4672562358277	73	127
471.80548752834466	472.4672562358277	77	127
472.0957369614512	472.4672562358277	56	127
472.0957369614512	472.4672562358277	44	127
472.4672562358277	473.1406349206349	64	127
472.4672562358277	473.1406349206349	61	127
472.4672562358277	473.6863038548753	45	127
472.4672562358277	473.6863038548753	57	127
473.1406349206349	473.6863038548753	73	127
473.1406349206349	473.6863038548753	76	127
473.6863038548753	474.2784126984127	65	127
473.6863038548753	474.2784126984127	61	127
473.6863038548753	474.6383219954649	56	127
473.6863038548753	474.6383219954649	44	127
474.2784126984127	474.9634013605442	73	127
474.2784126984127	474.9634013605442	77	127
474.6383219954649	474.9634013605442	68	127
474.6383219954649	474.9634013605442	56	127
474.9634013605442	476.2521088435374	61	127
474.9634013605442	476.2521088435374	70	127
474.9634013605442	475.67160997732424	66	127
474.9634013605442	476.2521088435374	58	127
475.67160997732424	476.2521088435374	73	127
475.67160997732424	476.2521088435374	78	127
476.2521088435374	477.0996371882086	61	127
476.2521088435374	476.79777777777775	65	127
476.2521088435374	477.0996371882086	56	127
476.2521088435374	477.0996371882086	68	127
476.79777777777775	477.47115646258504	73	127
476.79777777777775	477.47115646258504	77	127
477.0996371882086	477.47115646258504	56	127
477.0996371882086	477.47115646258504	44	127
477.47115646258504	478.6437641723356	57	127
477.47115646258504	478.0748752834467	61	127
477.47115646258504	478.0748752834467	64	127
477.47115646258504	478.6437641723356	45	127
478.0748752834467	478.6437641723356	73	127
478.0748752834467	478.6437641723356	76	127
478.6437641723356	479.2590929705215	61	127
478.6437641723356	479.88603174603173	44	127
478.6437641723356	479.88603174603173	56	127
478.6437641723356	479.2590929705215	65	127
479.2590929705215	479.88603174603173	77	127
479.2590929705215	479.88603174603173	73	127
479.88603174603173	481.04702947845806	42	127
479.88603174603173	480.4897505668934	61	127
479.88603174603173	480.4897505668934	70	127
479.88603174603173	481.04702947845806	54	127
480.4897505668934	481.04702947845806	82	127
480.4897505668934	481.04702947845806	73	127
481.04702947845806	481.65074829931973	61	127
481.04702947845806	481.65074829931973	68	127
481.04702947845806	481.9061678004535	41	127
481.04702947845806	481.9061678004535	53	127
481.65074829931973	482.32412698412696	73	127
481.65074829931973	482.32412698412696	80	127
481.9061678004535	482.32412698412696	41	127
481.9061678004535	482.32412698412696	53	127
482.32412698412696	482.9162358276644	65	127
482.32412698412696	482.9162358276644	68	127
482.32412698412696	483.5199546485261	49	127
482.32412698412696	483.5199546485261	61	127
482.9162358276644	483.5199546485261	80	127
482.9162358276644	483.5199546485261	77	127
483.5199546485261	484.6112925170068	60	127
483.5199546485261	484.03079365079367	65	127
483.5199546485261	484.03079365079367	69	127
483.5199546485261	484.6112925170068	48	127
484.03079365079367	484.6112925170068	81	127
484.03079365079367	484.6112925170068	77	127
484.6112925170068	485.18018140589567	65	127
484.6112925170068	485.18018140589567	74	127
484.6112925170068	485.18018140589567	77	127
484.6112925170068	485.7490702947846	58	127
484.6112925170068	485.7490702947846	46	127
485.18018140589567	485.7490702947846	89	127
485.18018140589567	485.7490702947846	77	127
485.18018140589567	485.7490702947846	86	127
485.7490702947846	486.29473922902497	72	127
485.7490702947846	486.29473922902497	65	127
485.7490702947846	486.29473922902497	77	127
485.7490702947846	486.60820861678	45	127
485.7490702947846	486.60820861678	57	127
486.29473922902497	486.9332879818594	77	127
486.29473922902497	486.9332879818594	84	127
486.29473922902497	486.9332879818594	89	127
486.60820861678	486.9332879818594	41	127
486.60820861678	486.9332879818594	53	127
486.9332879818594	488.0710657596372	65	127
486.9332879818594	487.5137868480726	68	127
486.9332879818594	487.5137868480726	71	127
486.9332879818594	487.5137868480726	80	127
486.9332879818594	488.0710657596372	53	127
487.5137868480726	488.0710657596372	92	127
487.5137868480726	488.0710657596372	80	127
487.5137868480726	488.0710657596372	83	127
488.0710657596372	488.593514739229	41	127
488.0710657596372	488.593514739229	69	127
488.0710657596372	488.593514739229	72	127
488.0710657596372	488.593514739229	81	127
488.0710657596372	488.593514739229	53	127
488.593514739229	489.1043537414966	93	127
488.593514739229	489.1043537414966	84	127
488.593514739229	489.1043537414966	81	127
488.86054421768705	489.1043537414966	41	127
488.86054421768705	489.1043537414966	53	127
489.1043537414966	489.67324263038546	68	127
489.1043537414966	489.67324263038546	71	127
489.1043537414966	489.67324263038546	80	127
489.1043537414966	490.2421315192744	65	127
489.1043537414966	490.2421315192744	53	127
489.67324263038546	490.2421315192744	80	127
489.67324263038546	490.2421315192744	83	127
489.67324263038546	490.2421315192744	92	127
490.2421315192744	490.7761904761905	69	127
490.2421315192744	490.7761904761905	72	127
490.2421315192744	490.7761904761905	81	127
490.2421315192744	490.7761904761905	41	127
490.2421315192744	490.7761904761905	53	127
490.7761904761905	491.3218594104308	84	127
490.7761904761905	491.3218594104308	81	127
490.7761904761905	491.3218594104308	93	127
491.0548299319728	491.3218594104308	53	127
491.0548299319728	491.3218594104308	41	127
491.3218594104308	491.8326984126984	66	127
491.3218594104308	491.8326984126984	70	127
491.3218594104308	491.8326984126984	78	127
491.3218594104308	492.3783673469388	53	127
491.3218594104308	492.3783673469388	65	127
491.8326984126984	492.3783673469388	90	127
491.8326984126984	492.3783673469388	78	127
491.8326984126984	492.3783673469388	81	127
492.3783673469388	492.9124263038549	67	127
492.3783673469388	492.9124263038549	70	127
492.3783673469388	492.9124263038549	79	127
492.3783673469388	492.9124263038549	29	127
492.3783673469388	492.9124263038549	41	127
492.9124263038549	493.51614512471656	91	127
492.9124263038549	493.51614512471656	79	127
492.9124263038549	493.51614512471656	82	127
493.1794557823129	493.51614512471656	41	127
493.1794557823129	493.51614512471656	29	127
493.51614512471656	494.06181405895694	64	127
493.51614512471656	494.06181405895694	68	127
493.51614512471656	494.06181405895694	76	127
493.51614512471656	494.5842630385487	53	127
494.06181405895694	494.5842630385487	80	127
494.06181405895694	494.5842630385487	76	127
494.06181405895694	494.5842630385487	88	127
494.5842630385487	495.1647619047619	69	127
494.5842630385487	495.1647619047619	77	127
494.5842630385487	495.1647619047619	29	127
494.5842630385487	495.1647619047619	41	127
495.4550113378685	495.74526077097505	89	127
495.4550113378685	495.74526077097505	41	127
495.4550113378685	495.74526077097505	77	127
495.4550113378685	495.74526077097505	29	127
495.74526077097505	496.801768707483	53	127
495.74526077097505	496.801768707483	73	127
495.74526077097505	496.801768707483	77	127
495.74526077097505	496.801768707483	80	127
495.74526077097505	496.801768707483	85	127
495.74526077097505	496.801768707483	47	127
495.74526077097505	496.801768707483	59	127
496.801768707483	497.4054875283447	77	127
496.801768707483	497.4054875283447	53	127
496.801768707483	497.4054875283447	72	127
496.801768707483	497.4054875283447	60	127
496.801768707483	497.4054875283447	81	127
496.801768707483	497.4054875283447	84	127
496.801768707483	497.4054875283447	48	127
497.69573696145125	497.9859863945578	89	127
497.69573696145125	497.9859863945578	77	127
497.69573696145125	497.9859863945578	29	127
497.69573696145125	497.9859863945578	41	127
497.9859863945578	499.1237641723356	47	127
497.9859863945578	499.1237641723356	73	127
497.9859863945578	499.1237641723356	77	127
497.9859863945578	499.1237641723356	80	127
497.9859863945578	499.1237641723356	85	127
497.9859863945578	499.1237641723356	53	127
497.9859863945578	499.1237641723356	59	127
499.1237641723356	499.73909297052154	72	127
499.1237641723356	499.73909297052154	81	127
499.1237641723356	499.73909297052154	84	127
499.1237641723356	499.73909297052154	48	127
499.1237641723356	499.73909297052154	53	127
499.1237641723356	499.73909297052154	60	127
500.00612244897957	500.2615419501134	29	127
500.00612244897957	500.2615419501134	41	127
500.00612244897957	500.2615419501134	77	127
500.00612244897957	500.2615419501134	89	127
500.2615419501134	501.39931972789117	72	127
500.2615419501134	501.39931972789117	77	127
500.2615419501134	501.39931972789117	84	127
500.2615419501134	501.39931972789117	45	127
500.2615419501134	501.39931972789117	53	127
500.2615419501134	501.39931972789117	57	127
501.39931972789117	501.9449886621315	70	127
501.39931972789117	501.9449886621315	77	127
501.39931972789117	501.9449886621315	82	127
501.39931972789117	501.9449886621315	46	127
501.39931972789117	501.9449886621315	53	127
501.39931972789117	501.9449886621315	58	127
502.2120181405896	502.46743764172334	41	127
502.2120181405896	502.46743764172334	77	127
502.2120181405896	502.46743764172334	89	127
502.2120181405896	502.46743764172334	29	127
502.46743764172334	503.64004535147393	53	127
502.46743764172334	503.64004535147393	70	127
502.46743764172334	503.64004535147393	77	127
502.46743764172334	503.64004535147393	82	127
502.46743764172334	503.64004535147393	44	127
502.46743764172334	503.64004535147393	56	127
503.64004535147393	504.2553741496599	77	127
503.64004535147393	504.2553741496599	53	127
503.64004535147393	504.2553741496599	69	127
503.64004535147393	504.2553741496599	57	127
503.64004535147393	504.2553741496599	81	127
503.64004535147393	504.2553741496599	45	127
504.5224036281179	504.80104308390025	89	127
504.5224036281179	504.80104308390025	41	127
504.5224036281179	504.80104308390025	77	127
504.5224036281179	504.80104308390025	29	127
504.80104308390025	505.92721088435377	61	127
504.80104308390025	505.92721088435377	49	127
504.80104308390025	505.92721088435377	53	127
504.80104308390025	505.92721088435377	56	127
504.80104308390025	505.92721088435377	68	127
504.80104308390025	505.92721088435377	73	127
504.80104308390025	505.92721088435377	77	127
504.80104308390025	505.92721088435377	80	127
505.92721088435377	506.5077097505669	77	127
505.92721088435377	506.5077097505669	69	127
505.92721088435377	506.5077097505669	72	127
505.92721088435377	506.5077097505669	81	127
505.92721088435377	506.5077097505669	48	127
505.92721088435377	506.5077097505669	53	127
505.92721088435377	506.5077097505669	57	127
505.92721088435377	506.5077097505669	60	127
506.821179138322	507.0998185941043	77	127
506.821179138322	507.0998185941043	29	127
506.821179138322	507.0998185941043	41	127
506.821179138322	507.0998185941043	89	127
507.0998185941043	508.2956462585034	56	127
507.0998185941043	508.2956462585034	68	127
507.0998185941043	508.2956462585034	73	127
507.0998185941043	508.2956462585034	77	127
507.0998185941043	508.2956462585034	80	127
507.0998185941043	508.2956462585034	49	127
507.0998185941043	508.2956462585034	53	127
507.0998185941043	508.2956462585034	61	127
508.2956462585034	508.85292517006803	69	127
508.2956462585034	508.85292517006803	72	127
508.2956462585034	508.85292517006803	77	127
508.2956462585034	508.85292517006803	81	127
508.2956462585034	508.85292517006803	48	127
508.2956462585034	508.85292517006803	53	127
508.2956462585034	508.85292517006803	57	127
508.2956462585034	508.85292517006803	60	127
509.13156462585033	509.4914739229025	89	127
509.13156462585033	509.4914739229025	41	127
509.13156462585033	509.4914739229025	77	127
509.13156462585033	509.4914739229025	29	127
509.4914739229025	510.838231292517	56	127
509.4914739229025	510.838231292517	68	127
509.4914739229025	510.838231292517	73	127
509.4914739229025	510.838231292517	77	127
509.4914739229025	510.838231292517	80	127
509.4914739229025	510.838231292517	49	127
509.4914739229025	510.838231292517	53	127
509.4914739229025	510.838231292517	61	127
510.838231292517	511.941179138322	60	127
510.838231292517	511.941179138322	48	127
510.838231292517	511.941179138322	53	127
510.838231292517	511.941179138322	57	127
510.838231292517	511.941179138322	69	127
510.838231292517	511.941179138322	72	127
510.838231292517	511.941179138322	77	127
510.838231292517	511.941179138322	81	127
511.941179138322	513.1370068027211	43	127
511.941179138322	513.1370068027211	41	127
511.941179138322	513.1370068027211	48	127
511.941179138322	513.1370068027211	72	127
511.941179138322	513.1370068027211	77	127
511.941179138322	513.1370068027211	79	127
511.941179138322	513.1370068027211	84	127
511.941179138322	513.1370068027211	36	127
513.1370068027211	514.4605442176871	48	127
513.1370068027211	514.4605442176871	72	127
513.1370068027211	514.4605442176871	76	127
513.1370068027211	514.4605442176871	79	127
513.1370068027211	514.4605442176871	84	127
513.1370068027211	514.4605442176871	36	127
513.1370068027211	514.4605442176871	40	127
513.1370068027211	514.4605442176871	43	127
514.4605442176871	515.4590022675737	44	127
514.4605442176871	515.4590022675737	65	127
514.4605442176871	515.4590022675737	68	127
514.4605442176871	515.4590022675737	77	127
514.4605442176871	515.4590022675737	41	127
514.4605442176871	515.4590022675737	53	127
515.4590022675737	515.7724716553288	72	127
515.4590022675737	515.7724716553288	48	127
515.7724716553288	516.1323809523809	68	127
515.7724716553288	516.1323809523809	77	127
515.7724716553288	516.1323809523809	41	127
515.7724716553288	516.1323809523809	44	127
515.7724716553288	516.1323809523809	53	127
516.1323809523809	516.4458503401361	72	127
516.1323809523809	516.4458503401361	60	127
516.1323809523809	516.4458503401361	80	127
516.4458503401361	517.2701587301588	53	127
516.4458503401361	517.2701587301588	56	127
516.4458503401361	517.2701587301588	68	127
516.4458503401361	517.2701587301588	77	127
516.4458503401361	517.2701587301588	65	127
517.2701587301588	517.4791383219955	48	127
517.2701587301588	517.4791383219955	72	127
517.4791383219955	517.7345578231293	44	127
517.4791383219955	517.7345578231293	68	127
517.4791383219955	517.7345578231293	53	127
517.4791383219955	517.7345578231293	77	127
517.4791383219955	517.7345578231293	41	127
517.7345578231293	517.9551247165533	80	127
517.7345578231293	517.9551247165533	72	127
517.7345578231293	517.9551247165533	60	127
517.9551247165533	518.1757369614512	68	127
517.9551247165533	518.1757369614512	77	127
517.9551247165533	518.1757369614512	53	127
517.9551247165533	518.1757369614512	56	127
517.9551247165533	518.1757369614512	65	127
518.1757369614512	518.4195464852608	72	127
518.1757369614512	518.4195464852608	48	127
518.4195464852608	518.6401360544218	68	127
518.4195464852608	518.6401360544218	77	127
518.4195464852608	518.6401360544218	41	127
518.4195464852608	518.6401360544218	44	127
518.4195464852608	518.6401360544218	53	127
518.6401360544218	518.8955555555556	80	127
518.6401360544218	518.8955555555556	60	127
518.6401360544218	518.8955555555556	72	127
518.8955555555556	519.7663038548753	56	127
518.8955555555556	519.7663038548753	72	127
518.8955555555556	519.7663038548753	80	127
518.8955555555556	519.7663038548753	84	127
518.8955555555556	519.7663038548753	53	127
518.8955555555556	519.7663038548753	65	127
519.7663038548753	520.021723356009	73	127
519.7663038548753	520.021723356009	85	127
519.7663038548753	520.021723356009	61	127
520.021723356009	520.7995918367347	85	127
520.021723356009	520.7995918367347	73	127
520.021723356009	520.7995918367347	77	127
520.021723356009	520.7995918367347	53	127
520.021723356009	520.7995918367347	61	127
520.021723356009	520.7995918367347	65	127
520.7995918367347	521.078231292517	67	127
520.7995918367347	521.078231292517	79	127
520.7995918367347	521.078231292517	55	127
521.078231292517	521.9257596371882	72	127
521.078231292517	521.9257596371882	76	127
521.078231292517	521.9257596371882	79	127
521.078231292517	521.9257596371882	84	127
521.078231292517	521.9257596371882	52	127
521.078231292517	521.9257596371882	55	127
521.078231292517	521.9257596371882	60	127
521.9257596371882	522.2160090702948	77	127
521.9257596371882	522.2160090702948	89	127
521.9257596371882	522.2160090702948	65	127
522.2160090702948	523.1680272108844	77	127
522.2160090702948	523.1680272108844	89	127
522.2160090702948	523.1680272108844	53	127
522.2160090702948	523.1680272108844	60	127
522.2160090702948	523.1680272108844	84	127
523.1680272108844	523.4466666666667	77	127
523.4466666666667	524.2709750566894	67	127
523.4466666666667	524.2709750566894	79	127
523.725306122449	523.9691156462585	46	127
523.725306122449	523.9691156462585	34	127
523.9691156462585	524.2709750566894	46	127
523.9691156462585	524.2709750566894	58	127
524.2709750566894	524.5147845804988	44	127
524.2709750566894	524.5147845804988	68	127
524.2709750566894	524.5147845804988	80	127
524.2709750566894	524.5147845804988	56	127
524.5147845804988	525.1301133786848	70	127
524.5147845804988	525.1301133786848	82	127
524.5147845804988	525.1301133786848	43	127
524.5147845804988	525.1301133786848	55	127
525.1301133786848	525.4319727891157	68	127
525.1301133786848	525.4319727891157	80	127
525.1301133786848	525.4319727891157	44	127
525.1301133786848	525.4319727891157	56	127
525.4319727891157	525.710612244898	67	127
525.4319727891157	525.710612244898	79	127
525.4319727891157	525.710612244898	46	127
525.4319727891157	525.710612244898	58	127
525.710612244898	526.4884807256236	67	127
525.710612244898	526.4884807256236	79	127
525.9892517006803	526.2330612244898	34	127
525.9892517006803	526.2330612244898	46	127
526.2330612244898	526.4884807256236	58	127
526.2330612244898	526.4884807256236	46	127
526.4884807256236	526.8251700680272	68	127
526.4884807256236	526.8251700680272	80	127
526.4884807256236	526.8251700680272	44	127
526.4884807256236	526.8251700680272	56	127
526.8251700680272	527.3940589569161	55	127
526.8251700680272	527.1270294784581	72	127
526.8251700680272	527.1270294784581	84	127
526.8251700680272	527.3940589569161	43	127
527.1270294784581	527.3940589569161	70	127
527.1270294784581	527.3940589569161	82	127
527.3940589569161	527.6610884353742	68	127
527.3940589569161	527.6610884353742	80	127
527.3940589569161	527.6610884353742	44	127
527.3940589569161	527.6610884353742	56	127
527.6610884353742	527.916507936508	67	127
527.6610884353742	527.916507936508	79	127
527.6610884353742	527.916507936508	46	127
527.6610884353742	527.916507936508	58	127
527.916507936508	528.7408163265306	65	127
527.916507936508	528.7408163265306	74	127
527.916507936508	528.7408163265306	77	127
527.916507936508	528.7408163265306	47	127
527.916507936508	528.7408163265306	55	127
527.916507936508	528.7408163265306	59	127
528.7408163265306	528.9846031746032	67	127
528.7408163265306	528.9846031746032	79	127
528.7408163265306	528.9846031746032	43	127
528.7408163265306	528.9846031746032	55	127
528.9846031746032	529.8205215419501	76	127
528.9846031746032	529.8205215419501	64	127
528.9846031746032	529.8205215419501	72	127
528.9846031746032	529.8205215419501	48	127
528.9846031746032	529.8205215419501	55	127
528.9846031746032	529.8205215419501	60	127
529.8205215419501	530.1572335600907	55	127
529.8205215419501	530.1572335600907	67	127
529.8205215419501	530.1572335600907	79	127
529.8205215419501	530.1572335600907	43	127
530.1572335600907	531.1092517006803	71	127
530.1572335600907	531.1092517006803	67	127
530.1572335600907	531.1092517006803	74	127
530.1572335600907	531.1092517006803	50	127
530.1572335600907	531.1092517006803	55	127
530.1572335600907	531.1092517006803	62	127
531.1092517006803	531.3646712018141	79	127
531.1092517006803	531.3646712018141	43	127
531.1092517006803	531.3646712018141	55	127
531.3646712018141	532.3282993197279	64	127
531.3646712018141	532.3282993197279	72	127
531.3646712018141	532.3282993197279	52	127
531.3646712018141	532.3282993197279	55	127
531.3646712018141	532.3282993197279	60	127
531.3646712018141	532.3282993197279	67	127
532.3282993197279	532.9668480725624	72	127
532.3282993197279	532.9668480725624	60	127
532.9668480725624	533.7679365079365	65	127
532.9668480725624	533.7679365079365	69	127
532.9668480725624	533.7679365079365	77	127
532.9668480725624	533.7679365079365	57	127
533.7679365079365	534.0697959183674	72	127
533.7679365079365	534.0697959183674	60	127
534.0697959183674	534.3600453514739	65	127
534.0697959183674	534.3600453514739	69	127
534.0697959183674	534.3600453514739	77	127
534.0697959183674	534.3600453514739	57	127
534.3600453514739	534.6154648526077	81	127
534.3600453514739	534.6154648526077	72	127
534.3600453514739	534.6154648526077	60	127
534.6154648526077	535.4049433106576	77	127
534.6154648526077	535.4049433106576	57	127
534.6154648526077	535.4049433106576	65	127
535.4049433106576	535.6719727891157	72	127
535.4049433106576	535.6719727891157	60	127
535.6719727891157	535.950589569161	57	127
535.6719727891157	535.950589569161	69	127
535.6719727891157	535.950589569161	77	127
535.6719727891157	535.950589569161	65	127
535.950589569161	536.1944217687075	72	127
535.950589569161	536.1944217687075	81	127
535.950589569161	536.1944217687075	60	127
536.1944217687075	536.4266213151927	77	127
536.1944217687075	536.4266213151927	57	127
536.1944217687075	536.4266213151927	65	127
536.4266213151927	536.6936507936508	72	127
536.4266213151927	536.6936507936508	60	127
536.6936507936508	536.9490702947846	69	127
536.6936507936508	536.9490702947846	77	127
536.6936507936508	536.9490702947846	57	127
536.6936507936508	536.9490702947846	65	127
536.9490702947846	537.2277097505669	60	127
536.9490702947846	537.2277097505669	72	127
536.9490702947846	537.2277097505669	69	127
536.9490702947846	537.2277097505669	81	127
537.2277097505669	538.0404081632653	69	127
537.2277097505669	538.0404081632653	77	127
537.2277097505669	538.0404081632653	81	127
537.2277097505669	538.0404081632653	84	127
537.2277097505669	538.0404081632653	65	127
537.2277097505669	538.0404081632653	72	127
538.0404081632653	538.3190476190476	77	127
538.0404081632653	538.3190476190476	89	127
538.3190476190476	539.1201360544218	69	127
538.3190476190476	539.1201360544218	72	127
538.3190476190476	539.1201360544218	77	127
538.3190476190476	539.1201360544218	81	127
538.3190476190476	539.1201360544218	84	127
538.3190476190476	539.1201360544218	89	127
539.1201360544218	539.5729251700681	90	127
539.1201360544218	539.5729251700681	78	127
539.5729251700681	540.2695238095238	81	127
539.5729251700681	540.2695238095238	84	127
539.5729251700681	540.2695238095238	90	127
539.5729251700681	540.2695238095238	69	127
539.5729251700681	540.2695238095238	72	127
539.5729251700681	540.2695238095238	78	127
540.2695238095238	540.8268027210885	87	127
540.2695238095238	540.8268027210885	84	127
540.2695238095238	540.8268027210885	72	127
540.2695238095238	540.8268027210885	75	127
540.8268027210885	541.3724716553288	70	127
540.8268027210885	541.3724716553288	74	127
540.8268027210885	541.3724716553288	82	127
540.8268027210885	541.3724716553288	86	127
541.3724716553288	541.9529705215419	81	127
541.3724716553288	541.9529705215419	84	127
541.3724716553288	541.9529705215419	69	127
541.3724716553288	541.9529705215419	72	127
541.9529705215419	542.3360997732426	79	127
541.9529705215419	542.3360997732426	83	127
541.9529705215419	542.3360997732426	67	127
541.9529705215419	542.3360997732426	71	127
542.3360997732426	542.6379591836735	62	127
542.3360997732426	542.6379591836735	74	127
542.6379591836735	543.4390476190476	71	127
542.6379591836735	543.4390476190476	77	127
542.6379591836735	543.4390476190476	59	127
542.6379591836735	543.4390476190476	65	127
543.4390476190476	543.717664399093	74	127
543.4390476190476	543.717664399093	62	127
543.717664399093	544.0543764172336	77	127
543.717664399093	544.0543764172336	65	127
544.0543764172336	544.3097959183674	67	127
544.0543764172336	544.3097959183674	79	127
544.3097959183674	545.0760544217687	77	127
544.3097959183674	545.0760544217687	71	127
544.3097959183674	545.0760544217687	59	127
544.3097959183674	545.0760544217687	65	127
545.0760544217687	545.2966439909297	74	127
545.0760544217687	545.2966439909297	62	127
545.2966439909297	545.5520408163266	77	127
545.2966439909297	545.5520408163266	71	127
545.2966439909297	545.5520408163266	59	127
545.2966439909297	545.5520408163266	65	127
545.5520408163266	545.8307029478458	79	127
545.5520408163266	545.8307029478458	67	127
545.8307029478458	546.1209523809524	71	127
545.8307029478458	546.1209523809524	77	127
545.8307029478458	546.1209523809524	59	127
545.8307029478458	546.1209523809524	65	127
546.1209523809524	546.3995918367347	74	127
546.1209523809524	546.3995918367347	62	127
546.3995918367347	546.6666213151927	65	127
546.3995918367347	546.6666213151927	77	127
546.3995918367347	546.6666213151927	59	127
546.3995918367347	546.6666213151927	71	127
546.6666213151927	546.9452607709751	79	127
546.6666213151927	546.9452607709751	67	127
546.9452607709751	547.7695691609978	77	127
546.9452607709751	547.7695691609978	71	127
546.9452607709751	548.0714285714286	59	127
546.9452607709751	548.0714285714286	65	127
547.7695691609978	548.0714285714286	89	127
547.7695691609978	548.0714285714286	77	127
548.0714285714286	548.7215873015873	89	127
548.0714285714286	548.7215873015873	71	127
548.0714285714286	548.7215873015873	77	127
548.0714285714286	548.7215873015873	83	127
548.0714285714286	548.7215873015873	86	127
548.0714285714286	548.7215873015873	74	127
548.7215873015873	548.9073469387755	77	127
548.7215873015873	548.9073469387755	83	127
548.7215873015873	548.9073469387755	86	127
548.7215873015873	548.9537868480726	40	127
548.7215873015873	548.9073469387755	89	127
548.9073469387755	549.1395464852608	89	127
549.1395464852608	549.54589569161	86	127
549.54589569161	549.7200453514739	83	127
549.54589569161	550.3585941043084	59	127
549.54589569161	550.3585941043084	62	127
549.54589569161	550.3585941043084	68	127
549.7200453514739	549.8709750566893	80	127
549.8709750566893	550.0683219954649	77	127
550.0683219954649	550.2773242630385	74	127
550.2773242630385	550.4514739229026	71	127
550.4514739229026	550.648843537415	68	127
550.648843537415	550.8113832199547	65	127
550.8113832199547	551.0203628117914	62	127
551.0203628117914	551.1945124716553	59	127
551.1945124716553	551.484739229025	33	127
551.4383219954649	551.6356916099774	88	127
551.6356916099774	551.8098412698413	85	127
551.8098412698413	552.634149659864	61	127
551.8098412698413	551.9839909297052	82	127
551.8098412698413	552.634149659864	58	127
551.8098412698413	552.634149659864	67	127
551.9839909297052	552.1465306122449	79	127
552.1465306122449	552.3206802721088	76	127
552.3206802721088	552.5528798185941	73	127
552.5528798185941	552.7270068027211	70	127
552.7270068027211	552.9127664399093	67	127
552.9127664399093	553.0985487528345	64	127
553.0985487528345	553.2610884353742	61	127
553.2610884353742	553.4700680272109	58	127
553.4700680272109	553.7254648526077	38	127
553.6790476190477	553.8764172335601	87	127
553.8764172335601	554.0621768707483	84	127
554.0621768707483	554.886485260771	60	127
554.0621768707483	554.2595464852608	81	127
554.0621768707483	554.886485260771	57	127
554.0621768707483	554.886485260771	66	127
554.2595464852608	554.445306122449	78	127
554.445306122449	554.5962358276644	75	127
554.5962358276644	554.8052154195011	72	127
554.8052154195011	554.9677324263039	69	127
554.9677324263039	555.1651020408164	66	127
555.1651020408164	555.3624716553288	63	127
555.3624716553288	555.5598639455783	60	127
555.5598639455783	555.768820861678	57	127
556.1055328798186	556.3145124716553	84	127
556.3145124716553	556.5002721088435	81	127
556.5002721088435	556.6860317460317	78	127
556.5002721088435	556.9994784580499	39	127
556.6860317460317	556.8485714285714	75	127
556.8485714285714	556.9994784580499	72	127
556.9994784580499	557.1968707482994	69	127
556.9994784580499	557.6148072562358	38	127
557.1968707482994	557.3942403628118	66	127
557.3942403628118	557.6148072562358	63	127
557.6148072562358	557.8353968253969	60	127
557.6148072562358	558.1488888888889	36	127
557.8353968253969	558.0095691609978	57	127
558.0095691609978	558.1488888888889	54	127
558.1488888888889	559.7510657596372	35	127
558.1488888888889	558.2765986394558	51	127
558.2765986394558	558.462358276644	54	127
558.462358276644	558.636485260771	57	127
558.636485260771	558.8454648526077	60	127
558.8454648526077	559.0544444444445	63	127
559.0544444444445	559.2053968253969	66	127
559.2053968253969	559.3679365079365	69	127
559.3679365079365	559.5536961451247	66	127
559.5536961451247	559.7510657596372	63	127
559.7510657596372	560.1922448979592	47	127
559.7510657596372	559.9252154195011	60	127
559.9252154195011	560.0413151927438	57	127
560.0413151927438	560.1922448979592	54	127
560.1922448979592	561.7479818594104	35	127
560.1922448979592	560.3780045351474	57	127
560.3780045351474	560.5289342403628	60	127
560.5289342403628	560.6914512471656	63	127
560.6914512471656	560.888820861678	66	127
560.888820861678	561.0281632653061	69	127
561.0281632653061	561.2371428571429	72	127
561.2371428571429	561.4461224489796	75	127
561.4461224489796	561.597052154195	72	127
561.597052154195	561.7479818594104	69	127
561.7479818594104	562.2820408163266	47	127
561.7479818594104	561.9221088435374	66	127
561.9221088435374	562.0962811791384	63	127
562.0962811791384	562.2820408163266	60	127
562.2820408163266	562.4678004535148	63	127
562.2820408163266	563.7913378684807	35	127
562.4678004535148	562.6071201814059	66	127
562.6071201814059	562.7928798185941	69	127
562.7928798185941	562.9437868480726	72	127
562.9437868480726	563.1063492063493	75	127
563.1063492063493	563.2804988662132	78	127
563.2804988662132	563.4314285714286	81	127
563.4314285714286	563.6055782312925	78	127
563.6055782312925	563.7913378684807	75	127
563.7913378684807	563.9887074829932	72	127
563.7913378684807	564.3137868480726	47	127
563.9887074829932	564.1628344671202	75	127
564.1628344671202	564.3137868480726	78	127
564.3137868480726	564.8130158730158	35	127
564.3137868480726	564.4995464852608	81	127
564.4995464852608	564.6504761904762	78	127
564.6504761904762	564.8130158730158	75	127
564.8130158730158	565.347074829932	47	127
564.8130158730158	565.0219954648526	72	127
565.0219954648526	565.1729251700681	75	127
565.1729251700681	565.347074829932	78	127
565.347074829932	565.5328344671202	81	127
565.347074829932	565.9043537414966	35	127
565.5328344671202	565.7069841269841	78	127
565.7069841269841	565.9043537414966	75	127
565.9043537414966	566.0901133786848	72	127
565.9043537414966	566.4384126984127	47	127
566.0901133786848	566.2410430839002	75	127
566.2410430839002	566.4384126984127	78	127
566.4384126984127	566.9724716553288	35	127
566.4384126984127	566.5893424036282	81	127
566.5893424036282	566.7634920634921	78	127
566.7634920634921	566.9724716553288	75	127
566.9724716553288	567.1466213151928	72	127
566.9724716553288	567.4833106575963	47	127
567.1466213151928	567.2859410430839	75	127
567.2859410430839	567.4833106575963	78	127
567.4833106575963	568.0173696145125	35	127
567.4833106575963	567.6806802721088	81	127
567.6806802721088	567.8431972789116	75	127
567.8431972789116	568.0173696145125	72	127
568.0173696145125	568.52820861678	47	127
568.0173696145125	568.1799092970522	69	127
568.1799092970522	568.3540589569161	72	127
568.3540589569161	568.52820861678	75	127
568.52820861678	569.0506575963719	35	127
568.52820861678	568.6907482993197	79	127
568.6907482993197	568.876485260771	73	127
568.876485260771	569.0506575963719	70	127
569.0506575963719	569.6195464852608	47	127
569.0506575963719	569.2248072562359	67	127
569.2248072562359	569.4221768707483	70	127
569.4221768707483	569.6195464852608	73	127
569.6195464852608	569.7820861678005	78	127
569.6195464852608	570.1536054421769	35	127
569.7820861678005	569.9678458049887	72	127
569.9678458049887	570.1536054421769	69	127
570.1536054421769	570.6992517006803	47	127
570.1536054421769	570.3161451247165	66	127
570.3161451247165	570.4902947845806	69	127
570.4902947845806	570.6992517006803	72	127
570.6992517006803	570.9314739229025	77	127
570.6992517006803	571.2913832199547	35	127
570.9314739229025	571.1172108843538	71	127
571.1172108843538	571.2913832199547	68	127
571.2913832199547	571.7906122448979	47	127
571.2913832199547	571.4655328798186	65	127
571.4655328798186	571.6396825396826	68	127
571.6396825396826	571.7906122448979	71	127
571.7906122448979	572.278231292517	35	127
571.7906122448979	571.9647619047619	76	127
571.9647619047619	572.1272789115646	72	127
572.1272789115646	572.278231292517	69	127
572.278231292517	572.8122902494331	47	127
572.278231292517	572.452380952381	64	127
572.452380952381	572.6265306122449	69	127
572.6265306122449	572.8122902494331	72	127
572.8122902494331	573.3231292517007	35	127
572.8122902494331	572.9631972789116	75	127
572.9631972789116	573.1489569160998	72	127
573.1489569160998	573.3231292517007	66	127
573.3231292517007	573.4740589569161	64	127
573.3231292517007	573.8571882086168	47	127
573.4740589569161	573.6598185941043	71	127
573.6598185941043	573.8571882086168	76	127
573.8571882086168	574.4376870748299	35	127
573.8571882086168	574.0081179138322	81	127
574.0081179138322	574.2403174603174	76	127
574.2403174603174	574.4376870748299	72	127
574.4376870748299	575.2271655328798	47	127
574.4376870748299	574.6118367346938	71	127
574.6118367346938	574.8091836734694	75	127
574.8091836734694	575.2271655328798	78	127
575.1575056689343	575.8889342403628	83	127
575.2271655328798	575.8889342403628	95	127
575.2271655328798	575.5754648526078	35	127
575.8889342403628	576.5507029478458	93	127
575.8889342403628	576.5507029478458	81	127
575.8889342403628	576.074693877551	72	127
576.074693877551	576.3649433106576	69	127
576.3649433106576	576.5507029478458	66	127
576.5507029478458	577.0615419501133	91	127
576.5507029478458	576.736462585034	71	127
576.5507029478458	577.0615419501133	79	127
576.736462585034	576.8757823129251	67	127
576.8757823129251	577.0615419501133	64	127
577.0615419501133	577.618820861678	78	127
577.0615419501133	577.618820861678	90	127
577.0615419501133	577.2124716553288	59	127
577.2124716553288	577.4098412698413	55	127
577.4098412698413	577.618820861678	52	127
577.618820861678	577.8626077097506	35	127
577.618820861678	578.1877097505669	76	127
577.618820861678	578.1877097505669	88	127
578.1877097505669	578.4779365079365	90	127
578.1877097505669	578.3850793650794	70	127
578.1877097505669	578.4779365079365	78	127
578.3850793650794	578.5708390022676	67	127
578.4779365079365	578.7333786848072	73	127
578.4779365079365	578.7333786848072	85	127
578.5708390022676	578.7333786848072	64	127
578.7333786848072	579.2326077097506	76	127
578.7333786848072	578.89589569161	69	127
578.7333786848072	579.2326077097506	88	127
578.89589569161	579.0584580498867	66	127
579.0584580498867	579.2326077097506	60	127
579.2326077097506	579.4067573696145	57	127
579.2326077097506	579.7666666666667	75	127
579.2326077097506	579.7666666666667	87	127
579.4067573696145	579.5925170068027	54	127
579.5925170068027	579.7666666666667	48	127
579.7666666666667	580.2775056689343	74	127
579.7666666666667	580.2775056689343	86	127
579.7666666666667	580.045306122449	35	127
580.2775056689343	580.486485260771	68	127
580.2775056689343	580.5793650793651	76	127
580.2775056689343	580.5793650793651	88	127
580.486485260771	580.660634920635	64	127
580.5793650793651	580.8115646258503	83	127
580.5793650793651	580.8115646258503	71	127
580.660634920635	580.8115646258503	62	127
580.8115646258503	580.9973242630385	69	127
580.8115646258503	581.3688435374149	74	127
580.8115646258503	581.3688435374149	86	127
580.9973242630385	581.2063038548753	64	127
581.2063038548753	581.3688435374149	60	127
581.3688435374149	581.5894331065759	57	127
581.3688435374149	581.9261224489796	84	127
581.3688435374149	581.9261224489796	72	127
581.5894331065759	581.7519501133787	52	127
581.7519501133787	581.9261224489796	48	127
581.9261224489796	582.1815419501133	69	127
581.9261224489796	582.1815419501133	81	127
581.9261224489796	582.1815419501133	78	127
581.9261224489796	582.2279818594104	35	127
582.5066213151928	582.7272108843538	67	127
582.5066213151928	582.692380952381	64	127
582.5066213151928	582.7272108843538	76	127
582.5066213151928	582.7272108843538	79	127
582.692380952381	582.8317006802721	59	127
582.8317006802721	582.9709977324263	55	127
582.9709977324263	583.1451700680273	59	127
582.9709977324263	584.0275283446712	66	127
582.9709977324263	584.0275283446712	75	127
582.9709977324263	584.0275283446712	78	127
583.1451700680273	583.3077097505669	57	127
583.3077097505669	583.5050793650794	54	127
583.5050793650794	583.6792290249433	47	127
583.6792290249433	583.8533786848072	45	127
583.8533786848072	584.0275283446712	42	127
584.0275283446712	584.2365079365079	78	127
584.0275283446712	584.2365079365079	69	127
584.0275283446712	584.2365079365079	81	127
584.0275283446712	584.3061678004535	35	127
584.5964172335601	584.8402267573696	79	127
584.5964172335601	584.8053741496599	64	127
584.5964172335601	584.8402267573696	76	127
584.5964172335601	584.8402267573696	67	127
584.8053741496599	585.0027664399094	59	127
585.0027664399094	585.1536961451247	55	127
585.1536961451247	586.2798639455782	75	127
585.1536961451247	585.3394557823129	59	127
585.1536961451247	586.2798639455782	66	127
585.1536961451247	586.2798639455782	78	127
585.3394557823129	585.5368253968254	57	127
585.5368253968254	585.7225850340136	54	127
585.7225850340136	585.9431746031746	47	127
585.9431746031746	586.1173242630385	45	127
586.1173242630385	586.2798639455782	42	127
586.2798639455782	586.6049433106576	66	127
586.2798639455782	586.6049433106576	69	127
586.2798639455782	586.662970521542	35	127
586.662970521542	586.9532426303855	59	127
586.9532426303855	587.197052154195	67	127
586.9532426303855	587.197052154195	64	127
586.9532426303855	587.2551020408164	52	127
587.2551020408164	587.4989115646258	43	127
587.4989115646258	587.8472108843538	47	127
587.4989115646258	588.7527891156462	66	127
587.4989115646258	588.7527891156462	63	127
587.8472108843538	588.0793877551021	45	127
588.0793877551021	588.4393197278912	42	127
588.4393197278912	588.7527891156462	35	127
589.1939682539683	589.5654875283446	59	127
589.5654875283446	589.844126984127	52	127
589.5654875283446	590.157596371882	64	127
589.5654875283446	590.157596371882	67	127
589.844126984127	590.157596371882	43	127
590.157596371882	590.50589569161	47	127
590.157596371882	591.3069841269842	63	127
590.157596371882	591.3069841269842	66	127
590.50589569161	590.726485260771	45	127
590.726485260771	591.0283446712018	42	127
591.0283446712018	591.3069841269842	35	127
591.3069841269842	591.5856235827664	42	127
591.5856235827664	591.8642630385488	45	127
591.8642630385488	592.1312925170068	48	127
592.1312925170068	592.4099319727891	51	127
592.4099319727891	592.7466213151928	54	127
592.4099319727891	593.0368707482993	42	127
592.4099319727891	593.0368707482993	45	127
592.4099319727891	593.0368707482993	51	127
592.7466213151928	593.0368707482993	57	127
593.0368707482993	593.3387301587302	60	127
593.3387301587302	593.6057369614513	63	127
593.6057369614513	593.8727891156462	66	127
593.8727891156462	594.1165986394558	69	127
594.1165986394558	594.430045351474	72	127
594.430045351474	594.6970975056689	75	127
594.6970975056689	595.1034467120181	78	127
596.6475736961452	596.9726530612245	79	127
596.9726530612245	597.216462585034	55	127
596.9726530612245	597.216462585034	52	127
596.9726530612245	597.2745124716554	76	127
597.2745124716554	597.6228117913832	67	127
597.6228117913832	597.924671201814	69	127
597.924671201814	598.2033106575964	67	127
598.2033106575964	598.4239002267574	52	127
598.2033106575964	598.4239002267574	55	127
598.2033106575964	598.4703401360545	64	127
598.4703401360545	598.7489795918367	59	127
599.0508390022676	599.329455782313	79	127
599.329455782313	599.550045351474	52	127
599.329455782313	599.550045351474	55	127
599.329455782313	599.5965079365079	76	127
599.5965079365079	599.9099773242631	67	127
599.9099773242631	600.1653968253968	69	127
600.1653968253968	600.4672562358277	67	127
600.4672562358277	600.6762358276644	52	127
600.4672562358277	600.6762358276644	55	127
600.4672562358277	600.7110657596372	64	127
600.7110657596372	600.9780725623583	59	127
601.233514739229	601.5121541950114	78	127
601.5121541950114	601.7675736961452	60	127
601.5121541950114	601.8140136054421	76	127
601.5121541950114	601.7675736961452	52	127
601.5121541950114	601.7675736961452	54	127
601.8140136054421	602.1390929705216	66	127
602.1390929705216	602.4177324263038	69	127
602.4177324263038	602.731201814059	67	127
602.731201814059	603.0214285714286	64	127
602.731201814059	602.9750113378685	52	127
602.731201814059	602.9750113378685	55	127
603.0214285714286	603.2884807256236	59	127
603.4974603174603	603.7528798185941	79	127
603.7528798185941	604.2637188208616	55	127
603.7528798185941	603.9734693877551	76	127
603.7528798185941	604.2637188208616	52	127
603.7528798185941	604.2637188208616	59	127
603.9734693877551	604.2637188208616	71	127
604.2637188208616	604.5075283446712	74	127
604.5075283446712	604.8326077097506	73	127
604.8326077097506	605.1112471655329	70	127
604.8326077097506	605.4131065759638	54	127
604.8326077097506	605.4131065759638	58	127
605.1112471655329	605.4131065759638	66	127
605.691746031746	605.9355555555555	78	127
605.9355555555555	606.2490249433107	75	127
605.9355555555555	606.5276643990929	54	127
605.9355555555555	606.5276643990929	59	127
606.2490249433107	606.5276643990929	71	127
606.5276643990929	606.8063038548753	72	127
606.8063038548753	607.0849433106576	71	127
607.0849433106576	607.6538321995465	51	127
607.0849433106576	607.3519727891156	66	127
607.0849433106576	607.6538321995465	54	127
607.3519727891156	607.6538321995465	63	127
607.9208390022676	608.2459410430839	78	127
608.2459410430839	608.78	54	127
608.2459410430839	608.5245578231293	73	127
608.2459410430839	608.78	59	127
608.2459410430839	608.78	61	127
608.5245578231293	608.78	71	127
608.78	609.0121995464852	74	127
609.0121995464852	609.3256689342404	73	127
609.3256689342404	609.6043083900227	70	127
609.3256689342404	609.9061678004535	54	127
609.3256689342404	609.9061678004535	58	127
609.3256689342404	609.9061678004535	61	127
609.6043083900227	609.9061678004535	64	127
610.2428571428571	610.6143764172335	79	127
610.6143764172335	610.8814058956916	73	127
610.6143764172335	611.1484353741497	61	127
610.6143764172335	611.1484353741497	52	127
610.8814058956916	611.1484353741497	71	127
611.1484353741497	611.473514739229	74	127
611.473514739229	611.7869841269842	73	127
611.7869841269842	612.1236734693878	70	127
611.7869841269842	612.4139002267574	54	127
611.7869841269842	612.4139002267574	58	127
611.7869841269842	612.4139002267574	61	127
612.1236734693878	612.4139002267574	64	127
612.7273922902494	613.0292290249433	75	127
613.0292290249433	613.5749206349207	59	127
613.0292290249433	613.3195011337868	71	127
613.0292290249433	613.5749206349207	54	127
613.0292290249433	613.5749206349207	63	127
613.3195011337868	613.5749206349207	66	127
613.5749206349207	613.9	67	127
613.9	614.1554195011338	66	127
614.1554195011338	614.7591383219955	54	127
614.1554195011338	614.4456689342404	63	127
614.1554195011338	614.7591383219955	47	127
614.4456689342404	614.7591383219955	59	127
615.1538775510204	615.4325170068028	84	127
615.4325170068028	615.9897959183673	67	127
615.4325170068028	615.7227664399093	79	127
615.4325170068028	615.9897959183673	59	127
615.4325170068028	615.9897959183673	64	127
615.7227664399093	615.9897959183673	76	127
615.9897959183673	616.2684353741497	78	127
616.2684353741497	616.5354648526077	76	127
616.5354648526077	616.8837641723356	72	127
616.5354648526077	617.1507936507936	57	127
616.8837641723356	617.1507936507936	67	127
617.429433106576	617.6616326530612	86	127
617.6616326530612	618.2073015873016	60	127
617.6616326530612	618.2073015873016	66	127
617.6616326530612	617.9518594104309	81	127
617.9518594104309	618.2073015873016	74	127
618.2073015873016	618.4627210884354	76	127
618.4627210884354	618.7181405895692	74	127
618.7181405895692	619.2521995464853	67	127
618.7181405895692	618.9851700680272	71	127
618.7181405895692	619.2521995464853	59	127
618.9851700680272	619.2521995464853	62	127
619.5424489795919	619.8559183673469	84	127
619.8559183673469	620.3899546485261	64	127
619.8559183673469	620.1113378684807	79	127
619.8559183673469	620.3899546485261	59	127
619.8559183673469	620.3899546485261	67	127
620.1113378684807	620.3899546485261	76	127
620.3899546485261	620.6570068027211	78	127
620.6570068027211	620.9472562358277	76	127
620.9472562358277	621.225873015873	72	127
620.9472562358277	621.4813151927438	57	127
620.9472562358277	621.4813151927438	66	127
621.225873015873	621.4813151927438	64	127
621.7599546485261	622.0269614512472	86	127
622.0269614512472	622.3056235827664	81	127
622.0269614512472	622.5726530612245	66	127
622.0269614512472	622.5726530612245	60	127
622.3056235827664	622.5726530612245	74	127
622.5726530612245	622.862902494331	76	127
622.862902494331	623.1183219954648	74	127
623.1183219954648	623.3737414965987	71	127
623.1183219954648	623.6639682539683	59	127
623.1183219954648	623.6639682539683	67	127
623.3737414965987	623.6639682539683	62	127
623.9890702947846	624.2328798185941	84	127
624.2328798185941	624.7785487528345	64	127
624.2328798185941	624.4999092970521	79	127
624.2328798185941	624.7785487528345	59	127
624.4999092970521	624.7785487528345	76	127
624.7785487528345	625.0455782312926	72	127
625.0455782312926	625.3358276643991	67	127
625.3358276643991	625.8698866213152	57	127
625.3358276643991	625.6028571428571	64	127
625.3358276643991	625.8698866213152	60	127
625.6028571428571	625.8698866213152	72	127
626.171746031746	626.4619954648526	86	127
626.4619954648526	626.9844444444444	66	127
626.4619954648526	626.7290022675737	81	127
626.4619954648526	626.9844444444444	60	127
626.7290022675737	626.9844444444444	78	127
626.9844444444444	627.2863038548753	74	127
627.2863038548753	627.5533106575964	69	127
627.5533106575964	628.0873922902495	59	127
627.5533106575964	627.8087528344671	66	127
627.5533106575964	628.0873922902495	62	127
627.8087528344671	628.0873922902495	74	127
628.3776190476191	628.6562811791383	88	127
628.6562811791383	629.2483900226757	62	127
628.6562811791383	628.9349206349207	83	127
628.6562811791383	629.2483900226757	67	127
628.9349206349207	629.2483900226757	79	127
629.2483900226757	629.5270294784581	76	127
629.5270294784581	629.8404988662131	71	127
629.8404988662131	630.4209750566894	60	127
629.8404988662131	630.4209750566894	64	127
629.8404988662131	630.0959183673469	69	127
630.0959183673469	630.4209750566894	76	127
630.6880272108843	631.071156462585	93	127
631.071156462585	631.3381859410431	84	127
631.071156462585	631.6168253968254	66	127
631.071156462585	631.6168253968254	69	127
631.3381859410431	631.6168253968254	81	127
631.9883446712018	632.2669614512472	91	127
632.2669614512472	632.9287528344671	72	127
632.2669614512472	632.568843537415	84	127
632.2669614512472	632.9287528344671	64	127
632.2669614512472	632.9287528344671	67	127
632.568843537415	632.9287528344671	79	127
633.230612244898	633.5556916099773	90	127
633.5556916099773	633.8575510204082	84	127
633.5556916099773	635.2275283446712	63	127
633.8575510204082	634.1245804988662	81	127
634.1245804988662	634.3683900226757	78	127
634.3683900226757	634.6354195011338	72	127
634.6354195011338	634.9024263038549	69	127
634.9024263038549	635.2275283446712	66	127
635.2275283446712	635.482947845805	63	127
635.482947845805	635.7731972789115	60	127
635.7731972789115	636.0402267573696	57	127
636.0402267573696	636.3304761904762	54	127
636.3304761904762	636.5975056689342	51	127
641.6362358276644	642.5534240362812	76	127
641.6362358276644	642.5534240362812	64	127
642.5534240362812	643.3777324263039	79	127
642.5534240362812	643.3777324263039	67	127
643.3777324263039	643.6331519274377	83	127
643.3777324263039	643.6331519274377	71	127
643.6331519274377	644.2136507936508	66	127
643.6331519274377	644.7477097505669	84	127
643.6331519274377	644.7477097505669	64	127
643.6331519274377	644.7477097505669	72	127
643.6331519274377	644.7477097505669	76	127
644.2136507936508	645.3049886621316	69	127
644.7477097505669	645.769387755102	71	127
644.7477097505669	645.769387755102	83	127
644.7477097505669	645.769387755102	64	127
644.7477097505669	645.769387755102	76	127
645.3049886621316	645.769387755102	67	127
645.769387755102	646.0480272108844	81	127
645.769387755102	646.0480272108844	69	127
645.769387755102	647.8591836734694	76	127
645.769387755102	647.8591836734694	64	127
646.0480272108844	646.1873469387755	83	127
646.0480272108844	646.1873469387755	71	127
646.1873469387755	646.3150566893424	81	127
646.1873469387755	646.3150566893424	69	127
646.3150566893424	646.5704535147393	67	127
646.3150566893424	646.5704535147393	79	127
646.5704535147393	646.7678231292517	81	127
646.5704535147393	646.7678231292517	69	127
646.7678231292517	647.53410430839	71	127
646.7678231292517	647.53410430839	83	127
647.53410430839	647.8591836734694	79	127
647.53410430839	647.8591836734694	67	127
647.8591836734694	648.8808616780045	64	127
647.8591836734694	648.8808616780045	67	127
647.8591836734694	648.8808616780045	76	127
647.8591836734694	648.8808616780045	55	127
648.8808616780045	650.2856689342403	62	127
648.8808616780045	650.2856689342403	67	127
648.8808616780045	650.2856689342403	74	127
648.8808616780045	650.2856689342403	77	127
648.8808616780045	650.2856689342403	55	127
648.8808616780045	650.2856689342403	65	127
650.2856689342403	650.5526984126984	62	127
650.2856689342403	650.5526984126984	74	127
650.5526984126984	650.8197278911565	77	127
650.5526984126984	650.8197278911565	65	127
650.8197278911565	651.0751247165533	83	127
650.8197278911565	651.0751247165533	71	127
651.0751247165533	651.7601360544218	74	127
651.0751247165533	651.7601360544218	86	127
651.4931065759637	652.0503854875284	62	127
651.4931065759637	652.0503854875284	53	127
651.4931065759637	652.0503854875284	55	127
651.4931065759637	652.0503854875284	59	127
651.7601360544218	652.0503854875284	91	127
651.7601360544218	652.0503854875284	79	127
652.0503854875284	653.6293424036281	64	127
652.0503854875284	653.6293424036281	52	127
652.0503854875284	653.6293424036281	55	127
652.0503854875284	653.6293424036281	60	127
652.0503854875284	653.1184807256236	79	127
652.0503854875284	653.1184807256236	91	127
653.1184807256236	654.1285487528345	67	127
653.1184807256236	654.1285487528345	79	127
653.6293424036281	654.1285487528345	48	127
654.1285487528345	654.3723809523809	36	127
654.3723809523809	654.5697505668934	43	127
654.3723809523809	654.5697505668934	64	127
654.5697505668934	654.8019501133787	67	127
654.5697505668934	654.8019501133787	48	127
654.8019501133787	655.0225396825397	72	127
654.8019501133787	655.0225396825397	52	127
655.0225396825397	655.5101587301588	55	127
655.0225396825397	655.7655555555556	76	127
655.5101587301588	655.9977777777777	60	127
655.5101587301588	655.9977777777777	48	127
655.7655555555556	655.9977777777777	81	127
655.7655555555556	655.9977777777777	69	127
655.7655555555556	655.9977777777777	77	127
655.9977777777777	656.9265759637188	60	127
655.9977777777777	656.9265759637188	53	127
655.9977777777777	656.9265759637188	57	127
655.9977777777777	656.9265759637188	69	127
655.9977777777777	656.9265759637188	77	127
655.9977777777777	656.9265759637188	81	127
655.9977777777777	656.9265759637188	48	127
656.9265759637188	658.0759637188208	65	127
656.9265759637188	658.0759637188208	69	127
657.4606349206349	658.0759637188208	41	127
658.0759637188208	658.3081632653061	33	127
658.3081632653061	658.5751927437642	45	127
658.3081632653061	658.5751927437642	57	127
658.5751927437642	658.7841723356009	48	127
658.5751927437642	658.7841723356009	60	127
658.7841723356009	659.0860317460317	53	127
658.7841723356009	659.0860317460317	65	127
659.0860317460317	659.3762811791383	57	127
659.0860317460317	659.3762811791383	69	127
659.3762811791383	659.7129705215419	60	127
659.3762811791383	659.7129705215419	72	127
659.7129705215419	659.98	77	127
659.7129705215419	659.98	65	127
660.3166893424036	660.595328798186	35	127
660.595328798186	660.9204081632653	47	127
660.595328798186	660.9204081632653	59	127
660.9204081632653	661.2222675736962	64	127
660.9204081632653	661.2222675736962	52	127
661.2222675736962	661.4428571428572	67	127
661.2222675736962	661.4428571428572	55	127
661.4428571428572	661.698253968254	59	127
661.4428571428572	661.698253968254	71	127
661.698253968254	661.9536961451247	76	127
661.698253968254	661.9536961451247	64	127
661.9536961451247	662.1742857142857	69	127
661.9536961451247	662.1742857142857	81	127
661.9536961451247	662.4413151927438	50	127
661.9536961451247	662.4413151927438	38	127
662.1742857142857	662.4413151927438	78	127
662.1742857142857	662.4413151927438	66	127
662.4413151927438	662.6851247165533	59	127
662.4413151927438	662.6851247165533	67	127
662.4413151927438	662.6851247165533	71	127
662.4413151927438	662.6851247165533	79	127
662.6851247165533	662.940544217687	55	127
662.6851247165533	662.940544217687	67	127
662.940544217687	663.1727437641723	59	127
662.940544217687	663.1727437641723	71	127
663.1727437641723	663.4513832199547	64	127
663.1727437641723	663.4513832199547	76	127
663.4513832199547	663.6719727891157	79	127
663.4513832199547	663.6719727891157	67	127
663.6719727891157	663.9622222222222	71	127
663.6719727891157	663.9622222222222	83	127
663.9622222222222	664.2756916099773	73	127
663.9622222222222	664.2756916099773	85	127
664.2756916099773	664.6123809523809	75	127
664.2756916099773	664.6123809523809	87	127
664.6123809523809	665.2857596371882	67	127
664.6123809523809	665.2857596371882	76	127
664.6123809523809	665.2857596371882	79	127
664.6123809523809	665.2857596371882	88	127
665.8546485260771	668.2927437641723	55	127
665.8546485260771	668.2927437641723	64	127
665.8546485260771	668.2927437641723	67	127
665.8546485260771	668.2927437641723	76	127
665.8546485260771	668.2927437641723	79	127
665.8546485260771	668.2927437641723	88	127
668.2927437641723	669.7091609977324	48	127
668.2927437641723	668.5249433106576	91	127
668.2927437641723	669.7091609977324	79	127
668.2927437641723	669.7091609977324	82	127
668.2927437641723	669.7091609977324	55	127
668.2927437641723	669.7091609977324	58	127
668.2927437641723	669.7091609977324	60	127
669.117052154195	669.3492517006803	88	127
669.7091609977324	669.8716780045352	89	127
669.7091609977324	669.8716780045352	77	127
669.7091609977324	670.2548299319728	53	127
669.7091609977324	670.2548299319728	57	127
669.8716780045352	670.0574603174604	81	127
670.0574603174604	670.2548299319728	89	127
670.2548299319728	670.7888888888889	57	127
670.2548299319728	670.4289795918368	84	127
670.2548299319728	670.7888888888889	60	127
670.4289795918368	670.6031292517007	81	127
670.6031292517007	670.7888888888889	84	127
670.7888888888889	670.9398185941043	82	127
670.7888888888889	671.3113151927438	55	127
670.7888888888889	671.3113151927438	58	127
670.9398185941043	671.148798185941	79	127
671.148798185941	671.3113151927438	82	127
671.3113151927438	671.5086848072563	81	127
671.3113151927438	671.8686167800454	53	127
671.3113151927438	671.8686167800454	57	127
671.5086848072563	671.7060544217687	77	127
671.7060544217687	671.8686167800454	81	127
671.8686167800454	673.0296145124717	59	127
671.8686167800454	672.0659863945579	80	127
671.8686167800454	673.0296145124717	71	127
671.8686167800454	673.0296145124717	53	127
671.8686167800454	673.0296145124717	56	127
672.0659863945579	672.251746031746	77	127
672.251746031746	672.4491156462585	80	127
672.4491156462585	672.6580952380953	77	127
672.6580952380953	672.8438548752835	80	127
672.8438548752835	673.0296145124717	77	127
673.0296145124717	673.5404535147393	72	127
673.0296145124717	673.180544217687	81	127
673.0296145124717	673.5404535147393	53	127
673.0296145124717	673.5404535147393	57	127
673.0296145124717	673.5404535147393	60	127
673.180544217687	673.3779138321995	77	127
673.3779138321995	673.5404535147393	81	127
673.5404535147393	673.7378231292518	84	127
673.5404535147393	674.0977324263039	57	127
673.5404535147393	674.0977324263039	60	127
673.5404535147393	674.0977324263039	77	127
673.5404535147393	674.0977324263039	53	127
673.7378231292518	673.9351927437642	81	127
673.9351927437642	674.0977324263039	84	127
674.0977324263039	674.2718820861678	85	127
674.0977324263039	675.2239002267573	53	127
674.0977324263039	675.2239002267573	77	127
674.0977324263039	675.2239002267573	56	127
674.0977324263039	674.6317913832199	61	127
674.2718820861678	674.4460317460317	80	127
674.4460317460317	674.6317913832199	85	127
674.6317913832199	675.2239002267573	65	127
674.6317913832199	674.8291609977324	89	127
674.8291609977324	675.0613605442177	80	127
675.0613605442177	675.2239002267573	89	127
675.2239002267573	675.781179138322	60	127
675.2239002267573	675.3980272108844	84	127
675.2239002267573	675.781179138322	77	127
675.3980272108844	675.5838095238096	81	127
675.5838095238096	675.781179138322	84	127
675.781179138322	675.9669387755102	81	127
675.781179138322	676.3732879818594	53	127
675.9669387755102	676.1643083900227	77	127
676.1643083900227	676.3732879818594	81	127
676.3732879818594	677.6039455782313	59	127
676.3732879818594	676.6403174603174	80	127
676.3732879818594	677.6039455782313	56	127
676.3732879818594	677.6039455782313	71	127
676.3732879818594	677.6039455782313	53	127
676.6403174603174	676.8492970521542	77	127
676.8492970521542	677.0002267573697	80	127
677.0002267573697	677.2092063492064	77	127
677.2092063492064	677.4065759637189	80	127
677.4065759637189	677.6039455782313	77	127
677.6039455782313	677.8129251700681	81	127
677.6039455782313	678.3237641723356	53	127
677.6039455782313	678.3237641723356	57	127
677.6039455782313	678.3237641723356	72	127
677.6039455782313	678.3237641723356	60	127
677.8129251700681	678.0915646258503	77	127
678.0915646258503	678.3237641723356	81	127
678.3237641723356	678.9507029478458	60	127
678.3237641723356	678.521133786848	84	127
678.3237641723356	678.9507029478458	57	127
678.521133786848	678.7185034013605	81	127
678.7185034013605	678.9507029478458	84	127
678.9507029478458	680.1581405895691	58	127
678.9507029478458	679.5660317460317	62	127
678.9507029478458	679.136462585034	86	127
679.136462585034	679.3454421768707	82	127
679.3454421768707	679.5660317460317	86	127
679.5660317460317	680.1581405895691	67	127
679.5660317460317	679.7401814058957	91	127
679.7401814058957	679.9491609977324	82	127
679.9491609977324	680.1581405895691	91	127
680.1581405895691	680.3555102040816	84	127
680.1581405895691	680.7270068027211	60	127
680.1581405895691	680.7270068027211	57	127
680.3555102040816	680.5644897959183	81	127
680.5644897959183	680.7270068027211	84	127
680.7270068027211	681.2726984126984	57	127
680.7270068027211	680.901179138322	89	127
680.7270068027211	681.2726984126984	65	127
680.901179138322	681.0869387755102	81	127
681.0869387755102	681.2726984126984	89	127
681.2726984126984	682.3988662131519	55	127
681.2726984126984	681.4468480725624	82	127
681.2726984126984	681.8415873015873	58	127
681.4468480725624	681.6558276643991	79	127
681.6558276643991	681.8415873015873	82	127
681.8415873015873	682.0273469387755	88	127
681.8415873015873	682.3988662131519	64	127
682.0273469387755	682.2014965986394	79	127
682.2014965986394	682.3988662131519	88	127
682.3988662131519	683.0141950113378	53	127
682.3988662131519	682.6542857142857	86	127
682.3988662131519	683.0141950113378	62	127
682.6542857142857	682.8284353741496	77	127
682.8284353741496	683.0141950113378	86	127
683.0141950113378	683.5830612244898	53	127
683.0141950113378	683.199954648526	81	127
683.0141950113378	683.5830612244898	57	127
683.199954648526	683.3740816326531	77	127
683.3740816326531	683.5830612244898	81	127
683.5830612244898	684.1519727891157	57	127
683.5830612244898	683.7804308390023	81	127
683.5830612244898	684.1519727891157	53	127
683.7804308390023	683.9662131519275	77	127
683.9662131519275	684.1519727891157	81	127
684.1519727891157	684.3493424036282	79	127
684.1519727891157	684.697641723356	55	127
684.1519727891157	684.697641723356	52	127
684.3493424036282	684.5118820861678	76	127
684.5118820861678	684.697641723356	79	127
684.697641723356	684.8717913832199	79	127
684.697641723356	685.2317006802721	55	127
684.697641723356	685.2317006802721	52	127
684.8717913832199	685.0227210884353	76	127
685.0227210884353	685.2317006802721	79	127
685.2317006802721	685.4406802721088	81	127
685.2317006802721	685.847029478458	57	127
685.2317006802721	685.847029478458	53	127
685.4406802721088	685.6380498866213	77	127
685.6380498866213	685.847029478458	81	127
685.847029478458	687.0080272108844	53	127
685.847029478458	686.067619047619	84	127
685.847029478458	687.0080272108844	60	127
685.847029478458	687.0080272108844	50	127
686.067619047619	686.28820861678	77	127
686.28820861678	686.4507256235828	84	127
686.4507256235828	686.6132879818595	77	127
686.6132879818595	686.7990476190477	84	127
686.7990476190477	687.0080272108844	77	127
687.0080272108844	688.2734920634921	48	127
687.0080272108844	687.1821768707483	82	127
687.0080272108844	687.565306122449	58	127
687.0080272108844	688.2734920634921	52	127
687.1821768707483	687.3911564625851	76	127
687.3911564625851	687.565306122449	82	127
687.565306122449	687.7278458049886	79	127
687.565306122449	688.2734920634921	55	127
687.7278458049886	687.9019954648526	70	127
687.9019954648526	688.2734920634921	79	127
688.2734920634921	688.4592743764173	84	127
688.2734920634921	689.4112925170068	53	127
688.4592743764173	688.6334240362812	75	127
688.6334240362812	688.8307936507937	72	127
688.8307936507937	689.0281632653061	77	127
689.0281632653061	689.2139229024943	75	127
689.2139229024943	689.4112925170068	65	127
689.4112925170068	689.6086621315193	77	127
689.4112925170068	689.9221088435374	41	127
689.6086621315193	689.7479818594104	75	127
689.7479818594104	689.9221088435374	65	127
689.9221088435374	690.4678004535148	41	127
689.9221088435374	690.1078684807256	77	127
690.1078684807256	690.2820408163266	74	127
690.2820408163266	690.4678004535148	65	127
690.4678004535148	690.6419501133787	87	127
690.4678004535148	691.535918367347	53	127
690.6419501133787	690.7928798185941	81	127
690.7928798185941	691.0134693877551	75	127
691.0134693877551	691.187619047619	81	127
691.187619047619	691.3733786848072	75	127
691.3733786848072	691.535918367347	69	127
691.535918367347	692.0467573696145	41	127
691.535918367347	691.6752380952381	81	127
691.6752380952381	691.8842176870749	75	127
691.8842176870749	692.0467573696145	69	127
692.0467573696145	692.5459863945579	41	127
692.0467573696145	692.2209070294784	82	127
692.2209070294784	692.3718140589569	74	127
692.3718140589569	692.5459863945579	70	127
692.5459863945579	693.5908616780046	53	127
692.5459863945579	692.7085260770975	86	127
692.7085260770975	692.90589569161	82	127
692.90589569161	693.0916553287982	74	127
693.0916553287982	693.2658049886621	84	127
693.2658049886621	693.439954648526	82	127
693.439954648526	693.5908616780046	72	127
693.5908616780046	693.7650340136055	84	127
693.5908616780046	694.0785034013605	41	127
693.7650340136055	693.9391836734694	82	127
693.9391836734694	694.0785034013605	72	127
694.0785034013605	694.5893424036282	41	127
694.0785034013605	694.2410430839002	84	127
694.2410430839002	694.4267800453515	81	127
694.4267800453515	694.5893424036282	72	127
694.5893424036282	695.6226303854876	53	127
694.5893424036282	694.7402721088436	94	127
694.7402721088436	694.937641723356	84	127
694.937641723356	695.11179138322	82	127
695.11179138322	695.2859410430839	88	127
695.2859410430839	695.4717006802721	82	127
695.4717006802721	695.6226303854876	76	127
695.6226303854876	696.1334693877551	41	127
695.6226303854876	695.7967800453515	88	127
695.7967800453515	695.9709297052154	82	127
695.9709297052154	696.1334693877551	76	127
696.1334693877551	696.2960090702948	89	127
696.1334693877551	696.6791383219954	41	127
696.2960090702948	696.4933786848072	81	127
696.4933786848072	697.7008163265306	77	127
696.6791383219954	696.8532879818595	39	127
696.6791383219954	697.7008163265306	89	127
696.8532879818595	697.0622448979592	41	127
697.0622448979592	697.2364172335601	51	127
697.2364172335601	697.4221768707483	38	127
697.4221768707483	697.5150566893424	41	127
697.5150566893424	697.7008163265306	50	127
697.7008163265306	697.8749659863946	38	127
697.7008163265306	698.2000453514739	77	127
697.8749659863946	698.0375056689343	41	127
698.0375056689343	698.2000453514739	50	127
698.2000453514739	698.339365079365	39	127
698.2000453514739	699.7441723356009	77	127
698.339365079365	698.5018820861678	41	127
698.5018820861678	698.6992517006803	51	127
698.6992517006803	699.7441723356009	89	127
698.6992517006803	698.861814058957	39	127
698.861814058957	699.0475736961452	41	127
699.0475736961452	699.2565532879819	51	127
699.2565532879819	699.3726530612245	38	127
699.3726530612245	699.5584126984127	41	127
699.5584126984127	699.7441723356009	50	127
699.7441723356009	700.23179138322	77	127
699.7441723356009	699.9183219954649	38	127
699.9183219954649	700.0692517006803	41	127
700.0692517006803	700.23179138322	50	127
700.23179138322	700.3943310657596	39	127
700.23179138322	701.6714285714286	77	127
700.3943310657596	700.5568480725624	41	127
700.5568480725624	700.719410430839	51	127
700.719410430839	701.6714285714286	89	127
700.719410430839	700.893560090703	37	127
700.893560090703	701.0677097505669	41	127
701.0677097505669	701.2302494331066	49	127
701.2302494331066	701.381179138322	36	127
701.381179138322	701.5437188208617	41	127
701.5437188208617	701.6714285714286	48	127
701.6714285714286	701.8571882086168	36	127
701.6714285714286	702.2054875283446	77	127
701.8571882086168	702.0313378684807	41	127
702.0313378684807	702.2054875283446	48	127
702.2054875283446	702.3680272108844	37	127
702.2054875283446	703.7263945578231	77	127
702.3680272108844	702.5189569160998	41	127
702.5189569160998	702.6698866213152	49	127
702.6698866213152	702.8208163265306	36	127
702.6698866213152	703.7263945578231	89	127
702.8208163265306	703.0065532879819	41	127
703.0065532879819	703.1807256235828	48	127
703.1807256235828	703.366485260771	35	127
703.366485260771	703.5638548752835	41	127
703.5638548752835	703.7263945578231	47	127
703.7263945578231	704.295283446712	77	127
703.7263945578231	703.9237641723356	35	127
703.9237641723356	704.1211337868481	41	127
704.1211337868481	704.295283446712	47	127
704.295283446712	705.0034920634921	77	127
704.295283446712	704.4810430839002	36	127
704.4810430839002	704.6668027210884	41	127
704.6668027210884	705.0034920634921	48	127
705.0034920634921	706.106439909297	59	127
705.0034920634921	705.2008616780046	90	127
705.0034920634921	706.106439909297	47	127
705.2008616780046	705.4098412698413	81	127
705.4098412698413	705.5956009070295	78	127
705.5956009070295	705.7813605442177	89	127
705.7813605442177	705.9439002267574	80	127
705.9439002267574	706.106439909297	77	127
706.106439909297	706.6172789115647	35	127
706.106439909297	706.6172789115647	47	127
706.106439909297	706.2689569160998	89	127
706.2689569160998	706.454739229025	80	127
706.454739229025	706.6172789115647	77	127
706.6172789115647	708.1149433106576	47	127
706.6172789115647	706.8030385487529	90	127
706.8030385487529	706.9771882086168	81	127
706.9771882086168	707.1281179138322	78	127
707.1281179138322	707.3022448979592	90	127
707.1281179138322	708.1149433106576	59	127
707.3022448979592	707.4299773242631	81	127
707.4299773242631	707.5925170068027	78	127
707.5925170068027	707.7666666666667	89	127
707.7666666666667	707.9524263038548	80	127
707.9524263038548	708.1149433106576	77	127
708.1149433106576	708.5677551020408	35	127
708.1149433106576	708.2426757369615	89	127
708.1149433106576	708.5677551020408	47	127
708.2426757369615	708.4052154195011	80	127
708.4052154195011	708.5677551020408	77	127
708.5677551020408	710.030612244898	47	127
708.5677551020408	708.753514739229	90	127
708.753514739229	708.927641723356	81	127
708.927641723356	709.0902040816327	78	127
709.0902040816327	709.2759637188209	88	127
709.0902040816327	710.030612244898	59	127
709.2759637188209	709.415283446712	79	127
709.415283446712	709.5545804988662	76	127
709.5545804988662	709.7403401360544	87	127
709.7403401360544	709.8680725623583	78	127
709.8680725623583	710.030612244898	75	127
710.030612244898	710.47179138322	47	127
710.030612244898	710.1815419501133	87	127
710.030612244898	710.47179138322	35	127
710.1815419501133	710.3672789115647	78	127
710.3672789115647	710.47179138322	75	127
710.47179138322	711.8069160997733	47	127
710.47179138322	710.5878911564625	88	127
710.5878911564625	710.738820861678	79	127
710.738820861678	710.9245804988662	76	127
710.9245804988662	711.8069160997733	59	127
710.9245804988662	711.0871201814059	86	127
711.0871201814059	711.2496598639456	78	127
711.2496598639456	711.3889569160998	74	127
711.3889569160998	711.5166893424037	84	127
711.5166893424037	711.6327891156462	76	127
711.6327891156462	711.8069160997733	72	127
711.8069160997733	711.9926757369615	84	127
711.8069160997733	712.282947845805	47	127
711.9926757369615	712.1320181405896	76	127
712.1320181405896	712.282947845805	72	127
712.282947845805	712.7821768707483	47	127
712.282947845805	712.4570975056689	82	127
712.4570975056689	712.6196145124717	76	127
712.6196145124717	712.7821768707483	70	127
712.7821768707483	713.2814058956916	83	127
712.7821768707483	713.0143537414966	35	127
712.7821768707483	713.2814058956916	71	127
712.7821768707483	713.2814058956916	75	127
713.0143537414966	713.2814058956916	47	127
713.2814058956916	713.5252154195011	51	127
713.5252154195011	713.7341950113379	54	127
713.7341950113379	714.6513605442177	57	127
713.7341950113379	714.6513605442177	47	127
714.6513605442177	715.6962811791383	47	127
714.6513605442177	715.197052154195	55	127
714.9184126984127	715.197052154195	59	127
715.197052154195	715.6962811791383	54	127
715.197052154195	715.4408616780046	63	127
715.4408616780046	715.6962811791383	66	127
715.6962811791383	716.520589569161	69	127
715.6962811791383	715.9168707482993	35	127
715.6962811791383	716.520589569161	59	127
715.9168707482993	716.0793877551021	47	127
716.0793877551021	716.2767800453515	51	127
716.2767800453515	716.520589569161	54	127
716.520589569161	716.7643990929705	47	127
716.520589569161	717.0198185941043	67	127
716.7643990929705	717.0198185941043	51	127
717.0198185941043	717.2287981859411	54	127
717.0198185941043	717.4842176870749	66	127
717.2287981859411	717.4842176870749	57	127
717.4842176870749	718.5523129251701	47	127
717.4842176870749	718.5523129251701	60	127
717.7396371882086	718.0298866213152	63	127
717.7396371882086	718.0298866213152	75	127
718.0298866213152	718.285306122449	78	127
718.0298866213152	718.285306122449	66	127
718.285306122449	718.5523129251701	81	127
718.285306122449	718.5523129251701	69	127
718.5523129251701	719.0863945578232	59	127
718.5523129251701	719.6785034013606	72	127
718.5523129251701	719.6785034013606	84	127
718.5523129251701	719.6785034013606	47	127
719.0863945578232	719.6785034013606	57	127
719.6785034013606	720.3518820861678	83	127
719.6785034013606	720.3518820861678	71	127
719.6785034013606	720.3518820861678	55	127
719.6785034013606	721.0600907029478	47	127
720.3518820861678	721.0600907029478	75	127
720.3518820861678	721.0600907029478	54	127
720.3518820861678	721.0600907029478	69	127
721.5709297052155	721.907619047619	47	127
721.5709297052155	721.907619047619	71	127
721.907619047619	722.7551473922903	76	127
721.907619047619	722.7551473922903	64	127
721.907619047619	722.7551473922903	67	127
721.907619047619	722.7551473922903	40	127
722.7551473922903	723.0453741496599	59	127
722.7551473922903	723.0453741496599	71	127
723.0453741496599	723.2892063492063	67	127
723.0453741496599	723.2892063492063	76	127
723.0453741496599	723.2892063492063	52	127
723.2892063492063	723.5678458049887	47	127
723.2892063492063	723.5678458049887	71	127
723.2892063492063	723.5678458049887	79	127
723.5678458049887	724.3457142857143	76	127
723.5678458049887	724.3457142857143	40	127
723.5678458049887	724.3457142857143	67	127
724.3457142857143	724.5895238095238	71	127
724.3457142857143	724.5895238095238	59	127
724.5895238095238	724.8449433106576	67	127
724.5895238095238	724.8449433106576	76	127
724.5895238095238	724.8449433106576	52	127
724.8449433106576	725.0655328798186	71	127
724.8449433106576	725.0655328798186	79	127
724.8449433106576	725.0655328798186	47	127
725.0655328798186	725.2860997732427	67	127
725.0655328798186	725.2860997732427	76	127
725.0655328798186	725.2860997732427	40	127
725.2860997732427	725.5647619047619	71	127
725.2860997732427	725.5647619047619	59	127
725.5647619047619	725.8434013605442	76	127
725.5647619047619	725.8434013605442	52	127
725.5647619047619	725.8434013605442	67	127
725.8434013605442	726.0756009070295	71	127
725.8434013605442	726.0756009070295	79	127
725.8434013605442	726.0756009070295	47	127
726.0756009070295	726.7954195011338	52	127
726.0756009070295	726.7954195011338	71	127
726.0756009070295	726.7954195011338	79	127
726.0756009070295	726.7954195011338	83	127
726.0756009070295	726.7954195011338	40	127
726.7954195011338	727.0624489795919	78	127
726.7954195011338	727.0624489795919	39	127
726.7954195011338	727.0624489795919	51	127
726.7954195011338	727.0624489795919	81	127
726.7954195011338	727.0624489795919	69	127
727.0624489795919	727.8287074829932	78	127
727.0624489795919	727.8287074829932	69	127
727.0624489795919	727.8287074829932	81	127
727.0624489795919	727.8287074829932	39	127
727.0624489795919	727.8287074829932	51	127
727.8287074829932	728.1421541950114	76	127
727.8287074829932	728.1421541950114	38	127
727.8287074829932	728.1421541950114	50	127
727.8287074829932	728.1421541950114	80	127
727.8287074829932	728.1421541950114	68	127
728.1421541950114	729.0245351473923	50	127
728.1421541950114	729.0245351473923	68	127
728.1421541950114	729.0245351473923	76	127
728.1421541950114	729.0245351473923	80	127
728.1421541950114	729.0245351473923	38	127
729.0245351473923	729.4076643990929	69	127
729.0245351473923	729.4076643990929	37	127
729.0245351473923	729.4076643990929	49	127
729.0245351473923	729.4076643990929	81	127
729.0245351473923	729.4076643990929	76	127
729.4076643990929	730.2319727891156	76	127
729.4076643990929	730.2319727891156	69	127
729.4076643990929	730.2319727891156	81	127
729.4076643990929	730.2319727891156	37	127
729.4076643990929	730.2319727891156	49	127
730.2319727891156	730.510612244898	36	127
730.2319727891156	731.0795011337868	69	127
730.2319727891156	731.0795011337868	81	127
730.510612244898	730.8124489795919	40	127
730.8124489795919	731.0795011337868	48	127
731.0795011337868	731.4045804988663	35	127
731.0795011337868	731.4045804988663	71	127
731.0795011337868	731.4045804988663	83	127
731.0795011337868	731.4045804988663	47	127
731.4045804988663	732.5771882086168	40	127
731.4045804988663	731.9966893424037	72	127
731.4045804988663	731.9966893424037	84	127
731.4045804988663	731.9966893424037	33	127
731.4045804988663	731.9966893424037	45	127
731.9966893424037	732.3333786848073	71	127
731.9966893424037	732.3333786848073	35	127
731.9966893424037	732.3333786848073	83	127
731.9966893424037	732.3333786848073	47	127
732.3333786848073	732.5771882086168	69	127
732.3333786848073	732.5771882086168	81	127
732.3333786848073	732.5771882086168	36	127
732.3333786848073	732.5771882086168	48	127
732.5771882086168	732.8326077097506	36	127
732.5771882086168	733.3318367346939	69	127
732.5771882086168	733.3318367346939	81	127
732.8326077097506	733.0531746031746	40	127
733.0531746031746	733.3318367346939	48	127
733.3318367346939	733.6336961451248	83	127
733.3318367346939	733.6336961451248	71	127
733.3318367346939	733.6336961451248	35	127
733.3318367346939	733.6336961451248	47	127
733.6336961451248	734.0052154195012	74	127
733.6336961451248	734.0052154195012	86	127
733.6336961451248	734.3070748299319	33	127
733.6336961451248	734.3070748299319	45	127
733.6336961451248	734.8411337868481	40	127
734.0052154195012	734.3070748299319	84	127
734.0052154195012	734.3070748299319	72	127
734.3070748299319	734.57410430839	83	127
734.3070748299319	734.57410430839	35	127
734.3070748299319	734.57410430839	47	127
734.3070748299319	734.57410430839	71	127
734.57410430839	734.8411337868481	69	127
734.57410430839	734.8411337868481	81	127
734.57410430839	734.8411337868481	36	127
734.57410430839	734.8411337868481	48	127
734.8411337868481	735.6422222222222	70	127
734.8411337868481	735.6422222222222	82	127
735.0965306122449	735.3519727891156	49	127
735.0965306122449	735.3519727891156	61	127
735.3519727891156	736.1762811791383	54	127
735.6422222222222	735.8976417233561	78	127
735.8976417233561	736.6871201814059	71	127
735.8976417233561	736.6871201814059	83	127
736.1762811791383	736.4549206349207	47	127
736.1762811791383	736.4549206349207	59	127
736.4549206349207	737.2327891156463	54	127
736.6871201814059	736.9773696145124	78	127
736.9773696145124	737.8016780045351	70	127
736.9773696145124	737.8016780045351	73	127
736.9773696145124	737.8016780045351	82	127
737.2327891156463	738.3937868480725	42	127
737.4882086167801	738.3937868480725	54	127
737.8016780045351	738.0803174603175	78	127
738.0803174603175	739.2297052154195	87	127
738.0803174603175	739.2297052154195	75	127
738.0803174603175	739.2297052154195	83	127
738.3937868480725	739.5315646258504	35	127
738.7885034013606	739.5315646258504	47	127
740.7738321995465	741.2034013605443	35	127
741.2034013605443	742.8636054421769	36	127
742.8636054421769	743.444126984127	35	127
743.444126984127	743.7808163265306	36	127
743.7808163265306	744.059455782313	38	127
744.059455782313	745.3481632653061	36	127
745.3481632653061	745.6268027210884	36	127
745.6268027210884	746.0447619047619	35	127
746.0447619047619	746.3814512471655	36	127
746.3814512471655	746.6833106575964	38	127
746.6833106575964	747.7746258503402	36	127
747.7746258503402	748.1345578231293	35	127
747.7746258503402	748.1345578231293	47	127
748.1345578231293	748.4248072562358	36	127
748.1345578231293	748.4248072562358	48	127
748.4248072562358	748.6918367346939	38	127
748.4248072562358	748.6918367346939	50	127
748.6918367346939	748.958866213152	36	127
748.6918367346939	748.958866213152	48	127
748.958866213152	749.2375056689342	35	127
748.958866213152	749.2375056689342	47	127
749.2375056689342	749.5277551020408	36	127
749.2375056689342	749.5277551020408	48	127
749.5277551020408	749.8179818594105	38	127
749.5277551020408	749.8179818594105	50	127
749.8179818594105	750.1198639455782	36	127
749.8179818594105	750.1198639455782	48	127
750.1198639455782	750.549433106576	34	127
750.1198639455782	750.549433106576	46	127
750.549433106576	750.8977324263038	35	127
750.549433106576	750.8977324263038	47	127
750.549433106576	751.8961904761904	52	127
750.549433106576	751.8961904761904	55	127
750.8977324263038	751.2576190476191	36	127
750.8977324263038	751.2576190476191	48	127
751.2576190476191	752.1980498866213	35	127
751.2576190476191	752.1980498866213	47	127
751.8961904761904	753.0571882086168	54	127
751.8961904761904	753.0571882086168	51	127
752.1980498866213	752.4999092970521	33	127
752.1980498866213	752.4999092970521	45	127
752.4999092970521	753.3938775510204	33	127
752.4999092970521	753.3938775510204	45	127
753.0571882086168	754.3342630385488	52	127
753.3938775510204	753.6725170068028	32	127
753.3938775510204	753.6725170068028	44	127
753.6725170068028	754.6593650793651	32	127
753.6725170068028	754.6593650793651	44	127
754.3342630385488	755.9248526077098	52	127
754.6593650793651	755.1121541950114	43	127
754.6593650793651	755.1121541950114	31	127
755.1121541950114	755.9248526077098	31	127
755.1121541950114	755.9248526077098	43	127
755.9248526077098	757.3644897959184	40	127
755.9248526077098	757.3644897959184	52	127
756.2847619047619	756.6562811791383	30	127
756.2847619047619	756.6562811791383	42	127
756.6562811791383	756.9581405895692	45	127
756.6562811791383	756.9581405895692	33	127
756.9581405895692	757.3644897959184	31	127
756.9581405895692	757.3644897959184	43	127
757.3644897959184	758.5951473922903	52	127
757.3644897959184	757.9798185941044	30	127
757.3644897959184	757.9798185941044	42	127
757.3644897959184	758.5951473922903	40	127
757.9798185941044	758.2700680272109	43	127
757.9798185941044	758.2700680272109	31	127
758.2700680272109	758.5951473922903	33	127
758.2700680272109	758.5951473922903	45	127
758.5951473922903	759.7909750566894	40	127
758.5951473922903	759.7909750566894	52	127
758.8621768707483	759.1640362811792	42	127
758.8621768707483	759.1640362811792	30	127
759.1640362811792	759.4542857142857	33	127
759.1640362811792	759.4542857142857	45	127
759.4542857142857	759.7909750566894	31	127
759.4542857142857	759.7909750566894	43	127
759.7909750566894	760.4411337868481	30	127
759.7909750566894	760.4411337868481	42	127
759.7909750566894	761.1261224489796	40	127
759.7909750566894	761.1261224489796	52	127
760.4411337868481	760.7778231292517	43	127
760.4411337868481	760.7778231292517	31	127
760.7778231292517	761.1261224489796	33	127
760.7778231292517	761.1261224489796	45	127
761.1261224489796	762.2522902494331	40	127
761.1261224489796	762.2522902494331	52	127
761.4047619047619	761.67179138322	34	127
761.4047619047619	761.67179138322	46	127
761.67179138322	762.2522902494331	34	127
761.67179138322	762.2522902494331	46	127
762.2522902494331	763.4132879818594	40	127
762.2522902494331	763.4132879818594	52	127
762.5657596371882	762.8676190476191	47	127
762.5657596371882	762.8676190476191	35	127
762.8676190476191	763.4132879818594	47	127
762.8676190476191	763.4132879818594	35	127
763.4132879818594	764.6787755102041	52	127
763.4132879818594	764.6787755102041	40	127
763.6919274376418	763.970566893424	36	127
763.6919274376418	763.970566893424	48	127
763.970566893424	764.6787755102041	48	127
763.970566893424	764.6787755102041	36	127
764.6787755102041	766.2693424036281	40	127
764.6787755102041	766.2693424036281	52	127
765.0967346938776	765.3869841269841	34	127
765.0967346938776	765.3869841269841	46	127
765.3869841269841	766.2693424036281	46	127
765.3869841269841	766.2693424036281	34	127
766.2693424036281	767.3722902494331	35	127
766.2693424036281	767.3722902494331	47	127
770.2863945578231	771.1455328798186	57	127
770.2863945578231	771.1455328798186	63	127
770.2863945578231	771.1455328798186	35	127
770.2863945578231	771.1455328798186	42	127
774.0828571428572	775.0813151927438	59	127
774.0828571428572	775.0813151927438	35	127
775.0813151927438	775.7430839002268	52	127
775.0813151927438	775.7430839002268	28	127
775.0813151927438	775.7430839002268	40	127
775.7430839002268	776.3584126984127	59	127
775.7430839002268	776.3584126984127	71	127
775.7430839002268	776.3584126984127	35	127
776.3584126984127	777.0434013605442	64	127
776.3584126984127	777.0434013605442	28	127
776.3584126984127	777.0434013605442	40	127
777.0434013605442	777.6703401360544	71	127
777.0434013605442	777.6703401360544	83	127
777.0434013605442	777.6703401360544	35	127
777.6703401360544	778.3204988662131	76	127
777.6703401360544	778.3204988662131	80	127
777.6703401360544	778.3204988662131	88	127
777.6703401360544	778.3204988662131	28	127
777.6703401360544	778.3204988662131	40	127
778.3204988662131	778.9474376417234	75	127
778.3204988662131	778.9474376417234	83	127
778.3204988662131	778.9474376417234	87	127
778.3204988662131	778.9474376417234	35	127
778.9474376417234	779.5395464852608	73	127
778.9474376417234	779.5395464852608	81	127
778.9474376417234	779.5395464852608	85	127
778.9474376417234	779.5395464852608	28	127
778.9474376417234	779.5395464852608	40	127
779.5395464852608	780.1316553287982	71	127
779.5395464852608	780.1316553287982	80	127
779.5395464852608	780.1316553287982	83	127
779.5395464852608	780.1316553287982	35	127
780.1316553287982	780.7934240362812	40	127
780.1316553287982	780.7934240362812	69	127
780.1316553287982	780.7934240362812	78	127
780.1316553287982	780.7934240362812	81	127
780.1316553287982	780.7934240362812	28	127
780.7934240362812	781.1068934240362	71	127
780.7934240362812	781.1068934240362	83	127
780.7934240362812	781.1068934240362	80	127
780.7934240362812	781.4319727891157	35	127
781.1068934240362	781.4319727891157	75	127
781.1068934240362	781.4319727891157	78	127
781.1068934240362	781.4319727891157	66	127
781.4319727891157	782.0937414965987	69	127
781.4319727891157	782.0937414965987	78	127
781.4319727891157	782.0937414965987	81	127
781.4319727891157	782.0937414965987	28	127
781.4319727891157	782.0937414965987	40	127
782.0937414965987	782.6974603174604	68	127
782.0937414965987	782.6974603174604	76	127
782.0937414965987	782.6974603174604	80	127
782.0937414965987	782.6974603174604	35	127
782.6974603174604	783.3127891156463	78	127
782.6974603174604	783.3127891156463	66	127
782.6974603174604	783.3127891156463	69	127
782.6974603174604	783.3127891156463	28	127
782.6974603174604	783.3127891156463	40	127
783.3127891156463	783.5914285714285	80	127
783.3127891156463	783.5914285714285	71	127
783.3127891156463	783.9629478458049	35	127
783.5914285714285	783.9629478458049	66	127
783.5914285714285	783.9629478458049	75	127
783.9629478458049	784.5434467120182	40	127
783.9629478458049	784.5434467120182	69	127
783.9629478458049	784.5434467120182	78	127
783.9629478458049	784.5434467120182	28	127
784.5434467120182	785.2400453514739	68	127
784.5434467120182	785.2400453514739	76	127
784.5434467120182	785.2400453514739	35	127
785.2400453514739	785.8669841269841	66	127
785.2400453514739	785.8669841269841	69	127
785.2400453514739	785.8669841269841	28	127
785.2400453514739	785.8669841269841	40	127
785.8669841269841	786.435873015873	68	127
785.8669841269841	786.435873015873	64	127
785.8669841269841	786.435873015873	35	127
786.435873015873	787.8987301587301	66	127
786.435873015873	787.1556916099773	40	127
786.435873015873	787.1556916099773	28	127
786.435873015873	787.8987301587301	59	127
787.1556916099773	787.8987301587301	47	127
787.8987301587301	788.5024489795918	71	127
787.8987301587301	788.5024489795918	83	127
787.8987301587301	788.5024489795918	40	127
788.5024489795918	789.1642176870748	64	127
788.5024489795918	789.1642176870748	76	127
788.5024489795918	789.1642176870748	45	127
789.1642176870748	789.744716553288	69	127
789.1642176870748	789.744716553288	81	127
789.1642176870748	789.744716553288	40	127
789.744716553288	790.3368253968254	64	127
789.744716553288	790.3368253968254	76	127
789.744716553288	790.3368253968254	43	127
790.3368253968254	790.9753741496598	67	127
790.3368253968254	790.9753741496598	79	127
790.3368253968254	790.9753741496598	40	127
790.9753741496598	791.5790929705215	64	127
790.9753741496598	791.5790929705215	76	127
790.9753741496598	791.5790929705215	47	127
791.5790929705215	792.2408616780045	35	127
791.5790929705215	792.2408616780045	71	127
791.5790929705215	792.2408616780045	83	127
792.2408616780045	792.9606802721088	71	127
792.2408616780045	792.9606802721088	47	127
792.9606802721088	793.8546485260771	71	127
792.9606802721088	793.8546485260771	35	127
792.9606802721088	794.5628571428572	59	127
793.8546485260771	794.5628571428572	47	127
793.8546485260771	794.2145578231292	73	127
794.2145578231292	794.5628571428572	69	127
794.5628571428572	795.9328344671202	59	127
794.5628571428572	795.3407256235828	73	127
794.5628571428572	795.3407256235828	35	127
795.3407256235828	795.9328344671202	71	127
795.3407256235828	795.9328344671202	47	127
795.9328344671202	796.5249433106576	35	127
795.9328344671202	797.1518820861678	59	127
795.9328344671202	796.5249433106576	69	127
796.5249433106576	797.1518820861678	47	127
796.5249433106576	797.1518820861678	68	127
797.1518820861678	797.8252607709751	35	127
797.1518820861678	798.4057596371882	66	127
797.1518820861678	798.4057596371882	59	127
797.8252607709751	798.4057596371882	47	127
798.4057596371882	799.6480272108844	59	127
798.4057596371882	799.0326984126984	68	127
798.4057596371882	799.0326984126984	35	127
799.0326984126984	799.6480272108844	66	127
799.0326984126984	799.6480272108844	47	127
799.6480272108844	800.3097959183674	35	127
799.6480272108844	800.9135147392291	64	127
799.6480272108844	800.9135147392291	59	127
800.3097959183674	800.9135147392291	47	127
800.9135147392291	801.4707936507937	66	127
800.9135147392291	801.4707936507937	35	127
801.4707936507937	802.0280725623583	64	127
801.4707936507937	802.0280725623583	47	127
802.0280725623583	802.7827210884353	35	127
802.0280725623583	803.4444897959183	59	127
802.7827210884353	803.4444897959183	47	127
803.4444897959183	804.0830385487528	64	127
803.4444897959183	804.0830385487528	35	127
804.0830385487528	804.6867573696145	59	127
804.0830385487528	804.6867573696145	47	127
804.6867573696145	805.2672562358276	35	127
804.6867573696145	805.8477551020408	56	127
805.2672562358276	805.8477551020408	47	127
805.8477551020408	806.5675736961451	57	127
805.8477551020408	807.2177324263039	59	127
805.8477551020408	806.5675736961451	35	127
806.5675736961451	807.2177324263039	47	127
806.5675736961451	807.2177324263039	56	127
807.2177324263039	809.342358276644	54	127
807.2177324263039	808.1697505668934	35	127
807.2177324263039	809.342358276644	59	127
808.1697505668934	808.7502494331065	47	127
808.7502494331065	809.342358276644	35	127
809.342358276644	809.9809070294784	57	127
809.342358276644	810.7007256235828	59	127
809.342358276644	809.9809070294784	47	127
809.9809070294784	810.7007256235828	56	127
809.9809070294784	810.7007256235828	35	127
810.7007256235828	811.5018140589569	59	127
810.7007256235828	811.5018140589569	47	127
810.7007256235828	811.5018140589569	54	127
811.5018140589569	812.8369614512471	68	127
811.5018140589569	812.8369614512471	71	127
811.5018140589569	812.1868027210884	40	127
811.5018140589569	812.8369614512471	64	127
811.5018140589569	812.8369614512471	76	127
812.8369614512471	813.7077097505669	76	127
812.8369614512471	813.7077097505669	80	127
812.8369614512471	814.067619047619	71	127
812.8369614512471	814.067619047619	64	127
812.8369614512471	814.067619047619	68	127
813.7077097505669	814.067619047619	83	127
814.067619047619	815.4956462585034	67	127
814.067619047619	815.4956462585034	76	127
814.067619047619	815.4956462585034	79	127
814.067619047619	815.4956462585034	82	127
814.067619047619	815.4956462585034	84	127
814.067619047619	815.4956462585034	64	127
814.067619047619	815.4956462585034	70	127
814.067619047619	815.4956462585034	72	127
815.4956462585034	816.3896145124717	80	127
815.4956462585034	816.3896145124717	83	127
815.4956462585034	816.3896145124717	76	127
815.4956462585034	816.3896145124717	64	127
815.4956462585034	816.3896145124717	68	127
816.6798639455782	818.1078911564625	64	127
816.6798639455782	818.1078911564625	67	127
816.6798639455782	818.1078911564625	72	127
816.6798639455782	818.1078911564625	52	127
816.6798639455782	818.1078911564625	55	127
816.6798639455782	818.1078911564625	58	127
818.1078911564625	819.5939682539682	68	127
818.1078911564625	818.8625396825397	52	127
818.1078911564625	818.8625396825397	56	127
818.1078911564625	818.8625396825397	59	127
818.1078911564625	819.5939682539682	64	127
818.1078911564625	819.5939682539682	71	127
818.8625396825397	819.5939682539682	40	127
819.5939682539682	820.3602267573696	28	127
819.5939682539682	820.998775510204	48	127
819.5939682539682	820.998775510204	55	127
819.5939682539682	820.998775510204	58	127
820.3602267573696	820.998775510204	40	127
820.998775510204	821.61410430839	29	127
820.998775510204	822.3687528344672	48	127
820.998775510204	822.3687528344672	53	127
820.998775510204	822.3687528344672	57	127
821.61410430839	822.3687528344672	41	127
822.3687528344672	823.6806802721088	47	127
822.3687528344672	823.6806802721088	51	127
822.3687528344672	823.6806802721088	57	127
822.3687528344672	823.0421315192743	30	127
823.0421315192743	823.6806802721088	42	127
823.6806802721088	824.261179138322	32	127
823.6806802721088	824.922947845805	47	127
823.6806802721088	824.922947845805	52	127
823.6806802721088	824.922947845805	56	127
824.261179138322	824.922947845805	44	127
824.922947845805	826.339365079365	52	127
824.922947845805	825.6195464852608	33	127
824.922947845805	827.7441723356009	54	127
825.6195464852608	826.339365079365	45	127
826.339365079365	828.8819501133787	51	127
826.339365079365	827.0127437641723	35	127
827.0127437641723	827.7441723356009	47	127
827.7441723356009	828.8819501133787	54	127
827.7441723356009	828.3246712018141	36	127
828.3246712018141	828.8819501133787	48	127
828.8819501133787	829.5204988662132	37	127
828.8819501133787	830.089387755102	52	127
829.5204988662132	830.089387755102	49	127
830.089387755102	830.6350566893424	33	127
830.089387755102	832.7829024943311	52	127
830.089387755102	832.7829024943311	54	127
830.6350566893424	831.4361451247165	45	127
831.4361451247165	832.1791836734694	33	127
832.1791836734694	832.7829024943311	45	127
832.7829024943311	833.35179138322	35	127
832.7829024943311	835.4067573696145	51	127
832.7829024943311	835.4067573696145	54	127
833.35179138322	833.9090702947846	47	127
833.9090702947846	834.6985487528344	35	127
834.6985487528344	835.4067573696145	47	127
835.4067573696145	836.7419047619047	40	127
835.4067573696145	836.7419047619047	52	127
836.0569160997733	836.7419047619047	76	127
836.0569160997733	836.7419047619047	80	127
836.7419047619047	837.6242630385487	56	127
836.7419047619047	837.3340136054421	64	127
836.7419047619047	837.3340136054421	68	127
836.7419047619047	837.6242630385487	44	127
837.3340136054421	837.9725623582766	76	127
837.3340136054421	837.9725623582766	80	127
837.6242630385487	837.9725623582766	47	127
837.6242630385487	837.9725623582766	59	127
837.9725623582766	838.6575510204082	64	127
837.9725623582766	838.6575510204082	67	127
837.9725623582766	839.2960997732426	48	127
837.9725623582766	839.2960997732426	60	127
838.6575510204082	839.2960997732426	79	127
838.6575510204082	839.2960997732426	76	127
839.2960997732426	840.1668480725624	47	127
839.2960997732426	839.8765986394558	68	127
839.2960997732426	840.1668480725624	59	127
839.2960997732426	839.8765986394558	64	127
839.8765986394558	840.6776870748299	76	127
839.8765986394558	840.6776870748299	80	127
840.1668480725624	840.6776870748299	59	127
840.1668480725624	840.6776870748299	71	127
840.6776870748299	841.432335600907	67	127
840.6776870748299	841.432335600907	70	127
840.6776870748299	842.0592743764172	60	127
840.6776870748299	842.0592743764172	72	127
841.432335600907	842.0592743764172	76	127
841.432335600907	842.0592743764172	79	127
842.0592743764172	842.7210430839002	68	127
842.0592743764172	842.7210430839002	71	127
842.0592743764172	843.1273922902494	59	127
842.7210430839002	843.4873015873015	76	127
842.7210430839002	843.4873015873015	80	127
843.1273922902494	843.4873015873015	47	127
843.4873015873015	844.0213605442177	58	127
843.4873015873015	844.0213605442177	55	127
843.4873015873015	846.0298866213152	36	127
843.4873015873015	846.0298866213152	48	127
844.0213605442177	844.6831292517007	70	127
844.0213605442177	844.6831292517007	67	127
844.6831292517007	845.3216780045351	53	127
844.6831292517007	845.3216780045351	57	127
845.3216780045351	846.0298866213152	65	127
845.3216780045351	846.0298866213152	69	127
846.0298866213152	846.7148752834468	54	127
846.0298866213152	846.7148752834468	57	127
846.0298866213152	848.4099319727891	35	127
846.0298866213152	848.4099319727891	47	127
846.7148752834468	847.2721541950114	69	127
846.7148752834468	847.2721541950114	66	127
847.2721541950114	847.8062131519274	52	127
847.2721541950114	847.8062131519274	56	127
847.8062131519274	848.4099319727891	64	127
847.8062131519274	848.4099319727891	68	127
848.4099319727891	849.1413605442177	52	127
848.4099319727891	849.1413605442177	54	127
848.4099319727891	851.1614965986395	33	127
848.4099319727891	851.1614965986395	45	127
849.1413605442177	849.7799092970522	64	127
849.1413605442177	849.7799092970522	66	127
849.7799092970522	850.522947845805	54	127
849.7799092970522	850.522947845805	51	127
850.522947845805	851.1614965986395	66	127
850.522947845805	851.1614965986395	63	127
851.1614965986395	853.6808616780046	44	127
851.1614965986395	851.8580952380952	51	127
851.1614965986395	851.8580952380952	54	127
851.1614965986395	853.6808616780046	32	127
851.8580952380952	852.4037641723356	66	127
851.8580952380952	852.4037641723356	63	127
852.4037641723356	853.0539229024944	52	127
852.4037641723356	853.0539229024944	47	127
853.0539229024944	853.6808616780046	64	127
853.0539229024944	853.6808616780046	59	127
853.6808616780046	856.2814965986395	54	127
853.6808616780046	854.3078004535147	33	127
853.6808616780046	856.2814965986395	52	127
854.3078004535147	854.9927891156462	45	127
854.9927891156462	855.6893877551021	33	127
855.6893877551021	856.2814965986395	45	127
856.2814965986395	858.8008616780045	51	127
856.2814965986395	857.45410430839	59	127
856.2814965986395	856.8271655328798	35	127
856.8271655328798	857.45410430839	47	127
857.45410430839	858.8008616780045	66	127
857.45410430839	858.1274829931973	35	127
858.1274829931973	858.8008616780045	47	127
858.8008616780045	859.3349206349206	28	127
858.8008616780045	859.9386394557823	52	127
858.8008616780045	859.9386394557823	64	127
859.3349206349206	859.9386394557823	40	127
859.9386394557823	861.1228571428571	62	127
859.9386394557823	860.542358276644	28	127
859.9386394557823	861.1228571428571	56	127
860.542358276644	861.1228571428571	40	127
861.1228571428571	861.7149659863945	33	127
861.1228571428571	862.3651247165533	57	127
861.1228571428571	862.3651247165533	61	127
861.7149659863945	862.3651247165533	45	127
862.3651247165533	862.9224036281179	33	127
862.3651247165533	863.5145124716553	64	127
862.3651247165533	863.5145124716553	76	127
862.9224036281179	863.5145124716553	45	127
863.5145124716553	864.1066213151928	34	127
863.5145124716553	864.6987301587302	63	127
863.5145124716553	864.6987301587302	75	127
864.1066213151928	864.6987301587302	46	127
864.6987301587302	865.3140589569161	34	127
864.6987301587302	865.882947845805	61	127
864.6987301587302	865.882947845805	73	127
865.3140589569161	865.882947845805	46	127
865.882947845805	867.0555555555555	59	127
865.882947845805	866.498276643991	35	127
865.882947845805	867.0555555555555	71	127
866.498276643991	867.0555555555555	47	127
867.0555555555555	867.7753741496599	37	127
867.0555555555555	868.355873015873	58	127
867.0555555555555	868.355873015873	70	127
867.7753741496599	868.355873015873	49	127
868.355873015873	868.9595918367347	39	127
868.355873015873	869.632970521542	57	127
868.355873015873	869.632970521542	69	127
868.9595918367347	869.632970521542	51	127
869.632970521542	870.3760090702948	40	127
869.632970521542	871.0609977324264	56	127
869.632970521542	871.0609977324264	68	127
870.3760090702948	871.0609977324264	52	127
871.0609977324264	872.1291156462585	36	127
871.0609977324264	872.8837641723356	55	127
871.0609977324264	872.8837641723356	67	127
872.1291156462585	872.8837641723356	48	127
872.8837641723356	873.6268027210884	56	127
872.8837641723356	873.6268027210884	68	127
872.8837641723356	873.6268027210884	35	127
873.6268027210884	874.2885714285715	59	127
873.6268027210884	874.2885714285715	47	127
874.2885714285715	874.9503401360545	57	127
874.2885714285715	874.9503401360545	35	127
874.9503401360545	875.5656689342403	56	127
874.9503401360545	875.5656689342403	47	127
875.5656689342403	876.2042176870748	35	127
875.5656689342403	877.4348752834467	54	127
875.5656689342403	877.4348752834467	59	127
876.2042176870748	876.7963265306122	47	127
876.7963265306122	877.4348752834467	35	127
877.4348752834467	878.328843537415	57	127
877.4348752834467	878.328843537415	47	127
877.4348752834467	879.1415419501134	59	127
878.328843537415	879.1415419501134	56	127
878.328843537415	879.1415419501134	35	127
879.1415419501134	880.4534693877551	54	127
879.1415419501134	880.4534693877551	59	127
879.1415419501134	880.4534693877551	47	127
880.4534693877551	881.2313378684808	28	127
880.4534693877551	883.4720634920635	52	127
880.4534693877551	883.4720634920635	59	127
881.2313378684808	881.9975963718821	40	127
881.9975963718821	882.6709750566894	28	127
882.6709750566894	883.4720634920635	40	127
883.4720634920635	886.0262585034013	52	127
883.4720634920635	884.2267120181406	28	127
883.4720634920635	886.0262585034013	59	127
884.2267120181406	884.8072108843537	40	127
884.8072108843537	885.3644897959184	28	127
885.3644897959184	890.9953287981859	40	127
886.0262585034013	890.9953287981859	52	127
886.0262585034013	890.9953287981859	59	127
886.0262585034013	890.9953287981859	28	127
