# onset,offset,note,velocity
0.4287981859410431	0.6261678004535147	89	127
0.4287981859410431	0.6261678004535147	65	127
0.4287981859410431	0.6261678004535147	77	127
1.3924263038548752	1.7639455782312925	76	127
1.3924263038548752	1.7639455782312925	88	127
1.3924263038548752	1.7639455782312925	64	127
1.8336054421768708	2.0309750566893423	86	127
1.8336054421768708	2.0309750566893423	74	127
1.8336054421768708	2.0309750566893423	62	127
2.1006349206349206	2.2747845804988662	88	127
2.1006349206349206	2.2747845804988662	76	127
2.1006349206349206	2.2747845804988662	64	127
2.3328344671201813	2.715963718820862	60	127
2.3328344671201813	2.715963718820862	72	127
2.3328344671201813	2.715963718820862	84	127
2.820453514739229	3.1919727891156464	59	127
2.820453514739229	3.1919727891156464	83	127
2.820453514739229	3.1919727891156464	71	127
3.2964625850340137	4.016281179138322	72	127
3.2964625850340137	4.016281179138322	60	127
3.2964625850340137	3.505442176870748	81	127
3.2964625850340137	3.505442176870748	69	127
3.5518820861678004	3.749251700680272	77	127
3.5518820861678004	3.749251700680272	65	127
3.7724716553287982	4.109160997732427	76	127
3.7724716553287982	4.109160997732427	64	127
4.202040816326531	4.50390022675737	76	127
4.202040816326531	4.50390022675737	64	127
4.202040816326531	4.50390022675737	72	127
4.202040816326531	4.50390022675737	60	127
4.608390022675737	5.397868480725624	62	127
4.608390022675737	4.805759637188209	83	127
4.608390022675737	4.805759637188209	71	127
4.608390022675737	5.397868480725624	74	127
4.863809523809524	5.061179138321996	77	127
4.863809523809524	5.061179138321996	65	127
5.107619047619048	5.479138321995465	76	127
5.107619047619048	5.479138321995465	64	127
5.572018140589569	5.943537414965986	74	127
5.572018140589569	5.943537414965986	76	127
5.572018140589569	5.943537414965986	62	127
5.572018140589569	5.943537414965986	64	127
6.0364172335600905	6.72140589569161	60	127
6.0364172335600905	6.233786848072563	81	127
6.0364172335600905	6.233786848072563	69	127
6.0364172335600905	6.72140589569161	72	127
6.291836734693877	6.465986394557823	65	127
6.291836734693877	6.465986394557823	77	127
6.477596371882086	6.825895691609977	76	127
6.477596371882086	6.825895691609977	64	127
6.918775510204082	7.232244897959184	76	127
6.918775510204082	7.232244897959184	72	127
6.918775510204082	7.232244897959184	64	127
6.918775510204082	7.232244897959184	60	127
7.313514739229025	8.114603174603175	65	127
7.313514739229025	7.534104308390023	86	127
7.313514739229025	7.534104308390023	74	127
7.580544217687075	7.7779138321995465	68	127
7.580544217687075	7.7779138321995465	80	127
7.812743764172335	8.219092970521542	79	127
7.812743764172335	8.219092970521542	74	127
7.812743764172335	8.219092970521542	67	127
8.323582766439909	8.706712018140589	79	127
8.323582766439909	8.706712018140589	74	127
8.323582766439909	8.706712018140589	65	127
8.323582766439909	8.706712018140589	67	127
8.811201814058958	9.414920634920636	64	127
8.811201814058958	8.938911564625851	84	127
8.811201814058958	8.938911564625851	72	127
8.811201814058958	9.414920634920636	76	127
8.985351473922902	9.182721088435374	81	127
8.985351473922902	9.182721088435374	69	127
9.229160997732427	9.542630385487529	79	127
9.229160997732427	9.542630385487529	67	127
9.670340136054422	9.995419501133787	76	127
9.670340136054422	9.995419501133787	79	127
9.670340136054422	9.995419501133787	64	127
9.670340136054422	9.995419501133787	67	127
10.088299319727891	10.2740589569161	88	127
10.088299319727891	10.2740589569161	76	127
10.088299319727891	10.45981859410431	79	127
10.088299319727891	10.45981859410431	67	127
10.320498866213152	10.50625850340136	83	127
10.320498866213152	10.50625850340136	71	127
10.552698412698414	10.866145124716553	69	127
10.552698412698414	10.866145124716553	72	127
10.552698412698414	10.866145124716553	84	127
10.552698412698414	10.866145124716553	81	127
10.959047619047618	11.295736961451247	71	127
10.959047619047618	11.295736961451247	79	127
10.959047619047618	11.295736961451247	83	127
10.959047619047618	11.295736961451247	67	127
11.411836734693878	11.585986394557823	83	127
11.411836734693878	11.585986394557823	71	127
11.411836734693878	11.76013605442177	74	127
11.411836734693878	11.76013605442177	62	127
11.632426303854876	11.80657596371882	78	127
11.632426303854876	11.80657596371882	66	127
11.853015873015874	12.201315192743763	76	127
11.853015873015874	12.201315192743763	79	127
11.853015873015874	12.201315192743763	64	127
11.853015873015874	12.201315192743763	67	127
12.282585034013605	12.60766439909297	74	127
12.282585034013605	12.60766439909297	78	127
12.282585034013605	12.60766439909297	62	127
12.282585034013605	12.60766439909297	66	127
12.700544217687074	13.072063492063492	66	127
12.700544217687074	13.072063492063492	60	127
12.700544217687074	13.072063492063492	72	127
12.700544217687074	13.072063492063492	78	127
13.14172335600907	13.52485260770975	71	127
13.14172335600907	13.52485260770975	59	127
13.14172335600907	13.52485260770975	67	127
13.14172335600907	13.52485260770975	79	127
13.606122448979592	14.012471655328799	74	127
13.606122448979592	14.012471655328799	69	127
13.606122448979592	14.012471655328799	53	127
13.606122448979592	14.012471655328799	57	127
13.606122448979592	14.012471655328799	62	127
14.128571428571428	14.47687074829932	69	127
14.128571428571428	14.47687074829932	72	127
14.128571428571428	14.47687074829932	60	127
14.128571428571428	14.47687074829932	57	127
14.128571428571428	14.82517006802721	76	127
14.128571428571428	14.82517006802721	52	127
14.558140589569161	14.929659863945579	68	127
14.558140589569161	14.929659863945579	71	127
14.558140589569161	14.929659863945579	59	127
14.558140589569161	14.929659863945579	56	127
15.556598639455782	15.9281179138322	72	127
15.556598639455782	15.9281179138322	66	127
15.556598639455782	15.9281179138322	78	127
15.556598639455782	15.9281179138322	60	127
16.032607709750568	16.42734693877551	79	127
16.032607709750568	16.42734693877551	71	127
16.032607709750568	16.42734693877551	67	127
16.032607709750568	16.42734693877551	59	127
16.53183673469388	16.938185941043084	69	127
16.53183673469388	16.938185941043084	74	127
16.53183673469388	16.938185941043084	62	127
16.53183673469388	16.938185941043084	57	127
16.53183673469388	16.938185941043084	53	127
17.042675736961453	17.437414965986395	69	127
17.042675736961453	17.437414965986395	72	127
17.042675736961453	17.437414965986395	60	127
17.042675736961453	17.437414965986395	57	127
17.042675736961453	17.820544217687075	76	127
17.042675736961453	17.820544217687075	52	127
17.553514739229026	17.913424036281178	71	127
17.553514739229026	17.913424036281178	68	127
17.553514739229026	17.913424036281178	59	127
17.553514739229026	17.913424036281178	56	127
17.994693877551022	18.41265306122449	62	127
17.994693877551022	18.41265306122449	53	127
17.994693877551022	18.41265306122449	57	127
18.52875283446712	18.9118820861678	60	127
18.52875283446712	18.9118820861678	57	127
18.52875283446712	19.306621315192743	64	127
18.52875283446712	19.306621315192743	52	127
19.01637188208617	19.41111111111111	59	127
19.01637188208617	19.41111111111111	56	127
19.51560090702948	19.921950113378685	62	127
19.51560090702948	19.921950113378685	57	127
19.51560090702948	19.921950113378685	53	127
20.154149659863947	20.699818594104308	60	127
20.154149659863947	20.699818594104308	57	127
20.154149659863947	21.140997732426303	64	127
20.154149659863947	21.140997732426303	52	127
20.81591836734694	21.268707482993197	59	127
20.81591836734694	21.268707482993197	56	127
23.14952380952381	23.53265306122449	64	127
23.14952380952381	23.53265306122449	40	127
23.14952380952381	23.53265306122449	52	127
23.63714285714286	24.008662131519273	45	127
23.63714285714286	24.008662131519273	33	127
23.63714285714286	24.159591836734695	69	127
23.63714285714286	24.159591836734695	60	127
23.63714285714286	24.159591836734695	64	127
24.310521541950113	24.49628117913832	71	127
24.554331065759637	24.937460317460317	45	127
24.554331065759637	24.937460317460317	57	127
24.554331065759637	24.728480725623584	64	127
24.554331065759637	24.728480725623584	72	127
24.774920634920633	24.995510204081633	69	127
25.041950113378686	25.43668934240363	52	127
25.041950113378686	25.43668934240363	64	127
25.041950113378686	25.43668934240363	68	127
25.041950113378686	25.43668934240363	40	127
25.52956916099773	25.83142857142857	76	127
25.93591836734694	26.353877551020407	76	127
25.93591836734694	26.353877551020407	68	127
25.93591836734694	26.353877551020407	64	127
25.93591836734694	26.353877551020407	52	127
25.93591836734694	26.353877551020407	59	127
26.458367346938775	26.945986394557824	64	127
26.458367346938775	26.795056689342402	45	127
26.458367346938775	26.795056689342402	33	127
26.458367346938775	26.945986394557824	60	127
26.458367346938775	26.945986394557824	69	127
27.096916099773242	27.305895691609976	71	127
27.35233560090703	27.5497052154195	72	127
27.35233560090703	27.5497052154195	64	127
27.35233560090703	27.723854875283447	45	127
27.35233560090703	27.723854875283447	57	127
27.58453514739229	27.758684807256238	69	127
27.805124716553287	28.223083900226758	71	127
27.805124716553287	28.223083900226758	65	127
27.805124716553287	28.223083900226758	43	127
27.805124716553287	28.223083900226758	31	127
28.31596371882086	28.629433106575963	77	127
28.73392290249433	29.1518820861678	71	127
28.73392290249433	29.1518820861678	65	127
28.73392290249433	29.1518820861678	77	127
28.73392290249433	29.1518820861678	43	127
28.73392290249433	29.1518820861678	50	127
29.256371882086167	29.662721088435376	36	127
29.256371882086167	29.662721088435376	48	127
29.256371882086167	29.813650793650794	67	127
29.256371882086167	29.813650793650794	72	127
29.256371882086167	29.813650793650794	64	127
29.941360544217687	30.127120181405896	74	127
30.17356009070295	30.359319727891158	67	127
30.17356009070295	30.359319727891158	72	127
30.17356009070295	30.359319727891158	76	127
30.17356009070295	30.55668934240363	60	127
30.17356009070295	30.55668934240363	48	127
30.405759637188208	30.60312925170068	79	127
30.672789115646257	31.009478458049887	71	127
30.672789115646257	31.009478458049887	67	127
30.672789115646257	31.009478458049887	52	127
30.672789115646257	31.009478458049887	40	127
30.672789115646257	31.172018140589568	79	127
31.113968253968252	31.264897959183674	72	127
31.113968253968252	31.264897959183674	69	127
31.113968253968252	31.473877551020408	45	127
31.113968253968252	31.473877551020408	57	127
31.311337868480727	31.52031746031746	78	127
31.566757369614514	31.775736961451248	71	127
31.566757369614514	31.775736961451248	79	127
31.566757369614514	31.775736961451248	67	127
31.566757369614514	31.961496598639457	52	127
31.566757369614514	31.961496598639457	40	127
31.810566893424035	32.03113378684807	76	127
32.07759637188209	32.391065759637186	62	127
32.07759637188209	32.391065759637186	66	127
32.07759637188209	32.391065759637186	35	127
32.07759637188209	32.391065759637186	47	127
32.07759637188209	32.60004535147392	74	127
32.50716553287982	32.68131519274377	67	127
32.50716553287982	32.68131519274377	64	127
32.50716553287982	32.86707482993197	52	127
32.50716553287982	32.86707482993197	40	127
32.716145124716554	32.913492063492065	72	127
32.95995464852608	33.07605442176871	66	127
32.95995464852608	33.07605442176871	62	127
32.95995464852608	33.07605442176871	74	127
32.95995464852608	33.25020408163265	47	127
32.95995464852608	33.25020408163265	35	127
33.12249433106576	33.30825396825397	71	127
33.366303854875284	33.54045351473923	69	127
33.366303854875284	33.77265306122449	66	127
33.366303854875284	33.77265306122449	60	127
33.366303854875284	33.77265306122449	38	127
33.366303854875284	33.77265306122449	50	127
33.598503401360546	33.83070294784581	71	127
33.87714285714286	34.248662131519275	59	127
33.87714285714286	34.248662131519275	62	127
33.87714285714286	34.248662131519275	67	127
33.87714285714286	34.248662131519275	43	127
34.34154195011338	34.678231292517005	57	127
34.34154195011338	34.678231292517005	62	127
34.34154195011338	34.678231292517005	65	127
34.34154195011338	34.678231292517005	50	127
34.77111111111111	35.177460317460316	57	127
34.77111111111111	35.59541950113379	64	127
34.77111111111111	35.59541950113379	52	127
35.281950113378684	35.68829931972789	56	127
35.781179138321995	35.95532879818594	72	127
35.781179138321995	35.95532879818594	64	127
35.781179138321995	36.12947845804989	36	127
35.99015873015873	36.17591836734694	71	127
35.99015873015873	36.17591836734694	62	127
36.23396825396826	36.466145124716554	69	127
36.23396825396826	36.64031746031746	60	127
36.23396825396826	36.64031746031746	38	127
36.500997732426306	36.68675736961451	71	127
36.73319727891157	37.081496598639454	62	127
36.73319727891157	37.081496598639454	59	127
36.73319727891157	37.081496598639454	67	127
36.73319727891157	37.081496598639454	43	127
37.18598639455782	37.580725623582765	62	127
37.18598639455782	37.580725623582765	57	127
37.18598639455782	37.580725623582765	65	127
37.18598639455782	37.580725623582765	50	127
37.685215419501134	38.12637188208617	57	127
37.685215419501134	38.48630385487528	64	127
37.685215419501134	38.48630385487528	52	127
38.21927437641723	38.57918367346939	56	127
38.683673469387756	38.881020408163266	65	127
38.683673469387756	39.066802721088436	57	127
38.683673469387756	39.066802721088436	38	127
38.92748299319728	39.12485260770975	64	127
39.18290249433107	39.65891156462585	57	127
39.18290249433107	40.053650793650796	64	127
39.18290249433107	40.053650793650796	40	127
39.75179138321995	40.14650793650794	56	127
40.262630385487526	40.703809523809525	57	127
40.262630385487526	40.47160997732426	65	127
40.262630385487526	40.703809523809525	38	127
40.541269841269845	40.7734693877551	64	127
40.819909297052156	41.307528344671205	57	127
40.819909297052156	42.050544217687076	64	127
40.819909297052156	42.050544217687076	40	127
41.667414965986396	42.1550566893424	56	127
42.30596371882086	42.56138321995465	89	127
42.30596371882086	42.56138321995465	77	127
42.30596371882086	42.56138321995465	65	127
42.619455782312926	42.840045351473925	88	127
42.619455782312926	42.840045351473925	76	127
42.619455782312926	42.840045351473925	64	127
42.89809523809524	43.07222222222222	74	127
42.89809523809524	43.07222222222222	86	127
42.89809523809524	43.07222222222222	62	127
43.11868480725624	43.28122448979592	76	127
43.11868480725624	43.28122448979592	88	127
43.11868480725624	43.28122448979592	64	127
43.33927437641724	43.73401360544218	61	127
43.33927437641724	43.73401360544218	85	127
43.33927437641724	43.73401360544218	73	127
43.82687074829932	44.198412698412696	83	127
43.82687074829932	44.198412698412696	71	127
43.82687074829932	44.198412698412696	59	127
44.302902494331065	45.022721088435375	73	127
44.302902494331065	44.477052154195015	81	127
44.302902494331065	44.477052154195015	69	127
44.302902494331065	45.022721088435375	61	127
44.523492063492064	44.70922902494331	77	127
44.523492063492064	44.70922902494331	65	127
44.744081632653064	45.11560090702948	64	127
44.744081632653064	45.11560090702948	76	127
45.220068027210885	45.53356009070295	61	127
45.220068027210885	45.53356009070295	73	127
45.220068027210885	45.53356009070295	76	127
45.220068027210885	45.53356009070295	64	127
45.64965986394558	45.84702947845805	81	127
45.64965986394558	45.84702947845805	69	127
45.64965986394558	46.41591836734694	72	127
45.64965986394558	46.41591836734694	60	127
45.893469387755104	46.07922902494331	63	127
45.893469387755104	46.07922902494331	75	127
46.13727891156463	46.508798185941046	74	127
46.13727891156463	46.508798185941046	62	127
46.57845804988662	46.938367346938776	60	127
46.57845804988662	46.938367346938776	62	127
46.57845804988662	46.938367346938776	72	127
46.57845804988662	46.938367346938776	74	127
47.042857142857144	47.25181405895692	80	127
47.042857142857144	47.25181405895692	68	127
47.042857142857144	47.76267573696145	71	127
47.042857142857144	47.76267573696145	59	127
47.29827664399093	47.472426303854874	75	127
47.29827664399093	47.472426303854874	63	127
47.48403628117914	47.855555555555554	74	127
47.48403628117914	47.855555555555554	62	127
47.96004535147392	48.27351473922902	62	127
47.96004535147392	48.27351473922902	74	127
47.96004535147392	48.27351473922902	71	127
47.96004535147392	48.27351473922902	59	127
48.354784580498865	48.517324263038546	79	127
48.354784580498865	48.517324263038546	55	127
48.354784580498865	49.121043083900226	67	127
48.575374149659865	48.74952380952381	62	127
48.575374149659865	48.74952380952381	74	127
48.795963718820865	49.21392290249433	72	127
48.795963718820865	49.21392290249433	60	127
49.271972789115644	49.68993197278912	72	127
49.271972789115644	49.68993197278912	60	127
49.271972789115644	49.68993197278912	55	127
49.271972789115644	49.68993197278912	67	127
49.78281179138322	49.96857142857143	79	127
49.78281179138322	49.96857142857143	55	127
49.78281179138322	50.479410430839	67	127
50.02662131519274	50.17755102040816	62	127
50.02662131519274	50.17755102040816	74	127
50.22399092970522	50.56068027210885	72	127
50.22399092970522	50.56068027210885	60	127
50.653560090702946	50.978639455782314	67	127
50.653560090702946	50.978639455782314	72	127
50.653560090702946	50.978639455782314	55	127
50.653560090702946	50.978639455782314	60	127
51.07151927437642	51.257278911564626	55	127
51.07151927437642	51.257278911564626	79	127
51.07151927437642	51.82616780045351	67	127
51.303718820861675	51.477868480725625	60	127
51.303718820861675	51.477868480725625	72	127
51.524308390022675	51.89582766439909	71	127
51.524308390022675	51.89582766439909	59	127
52.00031746031746	52.37183673469388	59	127
52.00031746031746	52.37183673469388	67	127
52.00031746031746	52.37183673469388	71	127
52.00031746031746	52.37183673469388	55	127
52.464716553287985	52.627256235827666	79	127
52.464716553287985	52.627256235827666	55	127
52.464716553287985	53.09165532879818	67	127
52.673696145124715	52.85945578231293	62	127
52.673696145124715	52.85945578231293	74	127
52.87106575963719	53.17292517006803	72	127
52.87106575963719	53.17292517006803	60	127
53.26580498866213	53.64893424036281	60	127
53.26580498866213	53.64893424036281	67	127
53.26580498866213	53.64893424036281	72	127
53.26580498866213	53.64893424036281	55	127
53.765034013605444	53.93918367346939	79	127
53.765034013605444	54.54290249433107	67	127
53.765034013605444	53.93918367346939	55	127
53.974013605442174	54.18299319727891	60	127
53.974013605442174	54.18299319727891	72	127
54.25265306122449	54.63578231292517	71	127
54.25265306122449	54.63578231292517	59	127
54.740272108843534	55.21628117913832	71	127
54.740272108843534	55.21628117913832	67	127
54.740272108843534	55.21628117913832	55	127
54.740272108843534	55.21628117913832	59	127
55.32077097505669	55.91287981859411	72	127
55.32077097505669	55.529750566893426	36	127
55.32077097505669	55.36721088435374	75	127
55.378820861678	55.43687074829932	77	127
55.44848072562358	55.99414965986394	75	127
55.599410430839	55.796780045351476	43	127
55.83160997732426	55.99414965986394	48	127
56.05219954648526	56.24956916099773	71	127
56.05219954648526	56.24956916099773	74	127
56.05219954648526	56.24956916099773	51	127
56.284399092970524	56.69074829931973	72	127
56.284399092970524	56.48176870748299	55	127
56.284399092970524	56.69074829931973	75	127
56.53981859410431	56.725578231292516	48	127
56.7604081632653	57.13192743764172	74	127
56.7604081632653	56.93455782312925	57	127
56.7604081632653	57.13192743764172	69	127
56.992607709750565	57.17836734693878	48	127
57.22480725623583	57.39895691609977	59	127
57.22480725623583	57.60793650793651	67	127
57.45700680272109	57.642766439909295	48	127
57.67759637188209	57.87496598639456	60	127
57.67759637188209	58.03750566893424	67	127
57.92140589569161	58.083945578231294	48	127
58.11877551020408	58.25809523809524	36	127
58.11877551020408	58.72249433106576	67	127
58.28131519274376	58.39741496598639	43	127
58.43224489795919	58.629614512471655	48	127
58.676054421768704	58.83859410430839	51	127
58.896643990929704	59.25655328798186	72	127
58.896643990929704	59.082403628117916	55	127
58.896643990929704	59.25655328798186	79	127
59.128843537414966	59.30299319727891	48	127
59.36104308390023	60.10408163265306	74	127
59.36104308390023	59.70934240362812	78	127
59.36104308390023	59.53519274376417	57	127
59.58163265306123	59.75578231292517	48	127
59.81383219954648	59.98798185941043	59	127
59.81383219954648	60.1853514739229	77	127
60.046031746031744	60.23179138321996	48	127
60.28984126984127	60.63814058956916	72	127
60.28984126984127	60.47560090702948	60	127
60.28984126984127	60.63814058956916	76	127
60.498820861678006	60.661360544217686	48	127
60.719410430839005	60.765850340136055	76	127
60.719410430839005	60.90517006802721	36	127
60.719410430839005	61.24185941043084	72	127
60.77746031746032	60.82390022675737	77	127
60.8471201814059	61.34634920634921	76	127
60.95160997732426	61.11414965986395	43	127
61.160589569161	61.34634920634921	48	127
61.381179138322	61.5669387755102	71	127
61.381179138322	61.5669387755102	74	127
61.381179138322	61.5669387755102	55	127
61.62498866213152	61.98489795918368	76	127
61.62498866213152	61.7875283446712	60	127
61.62498866213152	61.98489795918368	72	127
61.83396825396825	62.031337868480726	48	127
62.06616780045351	62.251927437641726	62	127
62.06616780045351	62.414467120181406	79	127
62.06616780045351	62.414467120181406	67	127
62.30997732426304	62.47251700680272	48	127
62.518956916099775	62.69310657596372	64	127
62.518956916099775	62.87886621315193	70	127
62.518956916099775	62.87886621315193	72	127
62.75115646258504	62.92530612244898	48	127
62.97174603174603	63.27360544217687	69	127
62.97174603174603	63.14589569160998	65	127
62.97174603174603	63.27360544217687	72	127
63.169115646258504	63.32004535147392	53	127
63.36648526077097	64.05145124716553	68	127
63.36648526077097	63.52902494331066	41	127
63.36648526077097	64.05145124716553	72	127
63.56385487528345	63.73800453514739	48	127
63.772834467120184	63.95859410430839	53	127
64.00503401360544	64.20240362811792	56	127
64.2720634920635	64.48104308390023	60	127
64.2720634920635	64.66680272108843	84	127
64.2720634920635	64.66680272108843	72	127
64.52748299319728	64.7132426303855	53	127
64.75968253968254	64.94541950113378	82	127
64.75968253968254	64.94541950113378	62	127
64.9918820861678	65.18925170068027	53	127
64.9918820861678	65.18925170068027	80	127
65.23569160997732	65.40984126984127	79	127
65.23569160997732	65.40984126984127	64	127
65.45625850340136	65.6536507936508	80	127
65.45625850340136	65.6536507936508	53	127
65.72331065759637	65.95551020408163	65	127
65.72331065759637	65.95551020408163	77	127
66.01356009070295	66.29219954648526	53	127
66.01356009070295	66.29219954648526	74	127
66.35022675736961	66.54761904761905	43	127
66.35022675736961	66.39668934240363	72	127
66.35022675736961	66.95396825396826	64	127
66.40829931972789	66.44312925170068	74	127
66.45471655328798	67.05845804988662	72	127
66.6056462585034	66.82625850340136	48	127
66.87269841269841	67.05845804988662	52	127
67.10489795918367	67.27904761904762	55	127
67.10489795918367	67.27904761904762	62	127
67.10489795918367	67.27904761904762	71	127
67.33709750566894	67.69700680272109	64	127
67.33709750566894	67.51124716553288	60	127
67.33709750566894	67.69700680272109	72	127
67.55768707482993	67.73181405895691	64	127
67.76666666666667	68.40521541950113	74	127
67.76666666666667	67.91759637188208	67	127
67.76666666666667	68.40521541950113	71	127
67.96403628117913	68.12657596371882	62	127
68.16140589569162	68.30072562358276	59	127
68.34716553287981	68.55614512471655	55	127
68.6025850340136	68.97410430839003	76	127
68.6025850340136	68.77673469387756	61	127
68.6025850340136	68.97410430839003	67	127
68.8231746031746	69.02054421768707	52	127
69.06698412698412	69.11340136054422	77	127
69.06698412698412	69.28757369614513	38	127
69.06698412698412	69.67070294784581	69	127
69.06698412698412	69.67070294784581	74	127
69.12503401360544	69.19469387755102	79	127
69.20630385487529	69.72875283446712	77	127
69.34562358276644	69.56621315192744	41	127
69.58943310657597	69.72875283446712	45	127
69.78680272108843	69.9261224489796	76	127
69.78680272108843	69.9261224489796	67	127
69.78680272108843	69.9261224489796	73	127
69.78680272108843	69.9261224489796	50	127
69.97256235827665	70.34408163265306	74	127
69.97256235827665	70.18154195011338	53	127
69.97256235827665	70.34408163265306	69	127
69.97256235827665	70.34408163265306	77	127
70.23959183673469	70.39049886621315	57	127
70.43696145124717	71.14517006802721	76	127
70.43696145124717	71.14517006802721	70	127
70.43696145124717	70.59950113378684	60	127
70.43696145124717	71.14517006802721	79	127
70.64591836734694	70.82009070294785	55	127
70.8665306122449	71.04068027210884	52	127
71.09873015873016	71.29609977324263	48	127
71.34253968253968	71.77210884353741	72	127
71.34253968253968	71.60956916099774	54	127
71.34253968253968	71.77210884353741	81	127
71.65600907029479	71.81854875283447	45	127
71.86498866213152	72.59641723356009	74	127
71.86498866213152	71.9346485260771	82	127
71.86498866213152	72.07396825396826	43	127
71.94625850340137	71.99269841269842	84	127
72.00430839002267	72.49192743764172	82	127
72.12040816326531	72.28294784580498	50	127
72.30614512471655	72.49192743764172	55	127
72.54997732426304	72.73573696145125	81	127
72.54997732426304	72.73573696145125	58	127
72.7937641723356	73.06081632653061	74	127
72.7937641723356	73.06081632653061	82	127
72.7937641723356	72.86344671201815	62	127
72.9098866213152	73.10725623582766	50	127
73.16530612244898	73.89673469387755	74	127
73.16530612244898	73.3510657596372	41	127
73.16530612244898	73.54843537414966	86	127
73.39750566893424	73.59487528344671	50	127
73.66453514739229	73.81544217687075	53	127
73.66453514739229	73.98961451247166	81	127
73.8502947845805	74.03605442176871	57	127
74.09410430839003	74.2914739229025	62	127
74.09410430839003	74.50045351473923	81	127
74.09410430839003	74.50045351473923	74	127
74.34952380952382	74.54689342403628	50	127
74.5817006802721	74.62816326530613	80	127
74.5817006802721	74.74426303854875	40	127
74.5817006802721	75.27832199546485	74	127
74.62816326530613	74.66299319727891	81	127
74.68621315192743	75.15061224489796	80	127
74.7907029478458	74.98807256235828	50	127
75.03451247165533	75.15061224489796	52	127
75.197052154195	75.40603174603174	59	127
75.197052154195	75.40603174603174	78	127
75.44086167800454	75.78916099773242	80	127
75.44086167800454	75.78916099773242	74	127
75.44086167800454	75.59179138321996	62	127
75.638231292517	75.84721088435374	50	127
75.89365079365079	76.0909977324263	42	127
75.89365079365079	76.2187074829932	86	127
75.89365079365079	76.55541950113378	74	127
76.14907029478458	76.26517006802722	50	127
76.3	76.6482993197279	81	127
76.3	76.45092970521542	54	127
76.50897959183673	76.68312925170068	57	127
76.72954648526077	77.10108843537415	74	127
76.72954648526077	76.90371882086168	62	127
76.72954648526077	77.10108843537415	81	127
76.96176870748299	77.1475283446712	50	127
77.182358276644	77.92539682539683	74	127
77.182358276644	77.22879818594105	82	127
77.182358276644	77.39133786848073	43	127
77.25201814058957	77.29845804988662	84	127
77.31006802721089	77.42616780045351	82	127
77.44938775510204	77.61192743764173	81	127
77.44938775510204	77.61192743764173	50	127
77.63514739229025	77.82090702947846	82	127
77.63514739229025	77.82090702947846	55	127
77.87893424036281	78.04149659863945	58	127
77.87893424036281	78.04149659863945	86	127
78.0879365079365	78.28530612244899	81	127
78.0879365079365	78.28530612244899	62	127
78.0879365079365	78.44784580498866	74	127
78.32013605442177	78.49428571428571	86	127
78.32013605442177	78.49428571428571	50	127
78.51748299319728	78.57555555555555	80	127
78.51748299319728	78.73809523809524	40	127
78.51748299319728	79.22571428571429	74	127
78.58716553287982	78.64519274376417	81	127
78.6568253968254	78.76131519274377	80	127
78.77290249433106	78.92385487528345	78	127
78.77290249433106	78.92385487528345	50	127
78.9702947845805	79.13283446712018	80	127
78.9702947845805	79.13283446712018	52	127
79.17927437641724	79.37664399092971	86	127
79.17927437641724	79.37664399092971	59	127
79.45791383219955	79.65528344671202	81	127
79.45791383219955	79.65528344671202	62	127
79.45791383219955	79.79458049886621	74	127
79.67850340136054	79.84104308390023	86	127
79.67850340136054	79.84104308390023	50	127
79.89907029478458	80.05	55	127
79.89907029478458	80.05	58	127
79.89907029478458	80.05	82	127
79.89907029478458	80.18934240362812	74	127
80.08485260770975	80.22417233560091	86	127
80.08485260770975	80.22417233560091	62	127
80.27061224489796	80.46798185941043	81	127
80.27061224489796	80.46798185941043	53	127
80.27061224489796	80.46798185941043	57	127
80.27061224489796	80.61891156462585	74	127
80.49120181405895	80.66532879818594	86	127
80.49120181405895	80.66532879818594	62	127
80.72340136054422	81.06009070294785	74	127
80.72340136054422	80.86272108843538	80	127
80.72340136054422	80.86272108843538	56	127
80.72340136054422	80.86272108843538	52	127
80.90916099773243	81.09492063492064	86	127
80.90916099773243	81.09492063492064	62	127
81.15297052154195	81.33873015873016	82	127
81.15297052154195	81.33873015873016	55	127
81.15297052154195	81.33873015873016	58	127
81.15297052154195	81.47804988662132	74	127
81.36195011337868	81.52448979591837	86	127
81.36195011337868	81.52448979591837	62	127
81.5592970521542	81.72185941043084	53	127
81.5592970521542	81.72185941043084	57	127
81.5592970521542	81.72185941043084	81	127
81.5592970521542	81.9192290249433	74	127
81.76829931972789	81.97727891156462	86	127
81.76829931972789	81.97727891156462	62	127
82.02371882086167	82.20947845804989	80	127
82.02371882086167	82.20947845804989	56	127
82.02371882086167	82.20947845804989	52	127
82.02371882086167	82.40684807256235	74	127
82.25591836734694	82.45326530612245	86	127
82.25591836734694	82.45326530612245	62	127
82.49972789115647	82.75514739229025	52	127
82.49972789115647	82.75514739229025	74	127
82.49972789115647	82.75514739229025	80	127
82.49972789115647	82.75514739229025	56	127
82.83639455782313	83.10344671201814	76	127
82.83639455782313	83.10344671201814	88	127
82.83639455782313	83.10344671201814	64	127
83.13827664399093	83.31242630385488	62	127
83.13827664399093	83.31242630385488	86	127
83.13827664399093	83.31242630385488	74	127
83.3704761904762	83.5562358276644	88	127
83.3704761904762	83.5562358276644	76	127
83.3704761904762	83.5562358276644	64	127
83.57943310657596	83.7768253968254	62	127
83.57943310657596	83.7768253968254	74	127
83.57943310657596	83.7768253968254	86	127
83.84648526077098	84.05546485260771	76	127
83.84648526077098	84.05546485260771	88	127
83.84648526077098	84.05546485260771	64	127
84.10190476190476	84.22961451247166	86	127
84.10190476190476	84.22961451247166	74	127
84.10190476190476	84.22961451247166	62	127
84.28766439909298	84.45020408163265	88	127
84.28766439909298	84.45020408163265	76	127
84.28766439909298	84.45020408163265	64	127
84.50825396825397	84.92621315192744	72	127
84.50825396825397	84.92621315192744	84	127
84.50825396825397	84.92621315192744	60	127
85.00748299319729	85.3790022675737	71	127
85.00748299319729	85.3790022675737	83	127
85.00748299319729	85.3790022675737	59	127
85.4718820861678	85.66925170068028	69	127
85.4718820861678	85.66925170068028	81	127
85.4718820861678	85.85501133786848	57	127
85.72730158730158	85.88984126984127	74	127
85.72730158730158	85.88984126984127	77	127
85.93628117913832	86.12204081632653	72	127
85.93628117913832	86.12204081632653	76	127
86.15687074829933	86.27297052154195	65	127
86.15687074829933	86.27297052154195	62	127
86.319410430839	86.49353741496599	72	127
86.319410430839	86.49353741496599	76	127
86.319410430839	86.49353741496599	64	127
86.319410430839	86.49353741496599	60	127
86.54	86.7257596371882	57	127
86.7721768707483	86.96956916099774	83	127
86.7721768707483	86.96956916099774	71	127
86.7721768707483	87.15530612244898	56	127
87.00437641723356	87.201768707483	77	127
87.00437641723356	87.201768707483	74	127
87.24820861678005	87.42235827664399	71	127
87.24820861678005	87.42235827664399	76	127
87.46879818594104	87.67777777777778	62	127
87.46879818594104	87.67777777777778	65	127
87.74743764172335	87.94480725623583	71	127
87.74743764172335	87.94480725623583	76	127
87.74743764172335	87.94480725623583	64	127
87.74743764172335	87.94480725623583	59	127
87.99124716553288	88.1770068027211	56	127
88.2350566893424	88.33954648526077	69	127
88.2350566893424	88.33954648526077	81	127
88.2350566893424	88.51369614512471	57	127
88.3627664399093	88.56013605442178	77	127
88.3627664399093	88.56013605442178	74	127
88.59496598639456	88.74589569160997	76	127
88.59496598639456	88.74589569160997	72	127
88.78072562358277	88.95487528344671	62	127
88.78072562358277	88.95487528344671	65	127
89.00131519274376	89.17544217687075	72	127
89.00131519274376	89.17544217687075	76	127
89.00131519274376	89.17544217687075	64	127
89.00131519274376	89.17544217687075	60	127
89.22190476190477	89.39605442176871	57	127
89.44249433106576	89.60503401360545	86	127
89.44249433106576	89.60503401360545	74	127
89.44249433106576	89.77918367346939	59	127
89.66308390022675	89.82562358276644	77	127
89.66308390022675	89.82562358276644	80	127
89.87206349206349	90.03460317460318	79	127
89.87206349206349	90.03460317460318	74	127
90.0926530612245	90.29002267573696	68	127
90.0926530612245	90.29002267573696	65	127
90.32482993197279	90.51061224489796	74	127
90.32482993197279	90.51061224489796	79	127
90.32482993197279	90.51061224489796	67	127
90.32482993197279	90.51061224489796	62	127
90.55702947845805	90.7195918367347	59	127
90.76603174603174	90.96337868480725	76	127
90.76603174603174	90.96337868480725	88	127
90.76603174603174	91.14916099773242	60	127
91.02145124716553	91.17238095238095	81	127
91.21882086167801	91.36975056689343	76	127
91.21882086167801	91.36975056689343	79	127
91.42780045351473	91.61356009070295	69	127
91.64839002267574	91.78770975056689	79	127
91.64839002267574	91.78770975056689	76	127
91.64839002267574	91.78770975056689	64	127
91.64839002267574	91.78770975056689	67	127
91.83412698412698	92.03151927437642	60	127
92.07795918367347	92.27532879818594	76	127
92.07795918367347	92.44947845804988	58	127
92.07795918367347	92.27532879818594	88	127
92.32176870748299	92.48430839002268	81	127
92.51913832199547	92.73972789115646	79	127
92.51913832199547	92.73972789115646	76	127
92.78616780045351	92.93709750566893	69	127
92.98351473922902	93.14607709750567	79	127
92.98351473922902	93.14607709750567	76	127
92.98351473922902	93.14607709750567	64	127
92.98351473922902	93.14607709750567	67	127
93.19251700680272	93.3550566893424	58	127
93.40149659863945	93.59884353741496	88	127
93.40149659863945	93.59884353741496	76	127
93.40149659863945	93.78462585034013	57	127
93.64530612244899	93.80784580498866	81	127
93.85426303854875	94.04004535147392	76	127
93.85426303854875	94.04004535147392	79	127
94.07487528344672	94.22580498866213	69	127
94.28385487528345	94.41156462585035	76	127
94.28385487528345	94.41156462585035	79	127
94.28385487528345	94.41156462585035	67	127
94.28385487528345	94.41156462585035	64	127
94.43478458049887	94.63215419501134	57	127
94.67859410430839	95.03850340136054	50	127
94.91079365079365	95.09655328798186	81	127
94.91079365079365	95.09655328798186	77	127
94.91079365079365	95.09655328798186	69	127
95.13138321995464	95.50290249433107	52	127
95.3635827664399	95.52612244897959	72	127
95.3635827664399	95.52612244897959	76	127
95.3635827664399	95.52612244897959	69	127
95.57256235827664	95.92086167800454	64	127
95.78154195011338	95.96730158730159	71	127
95.78154195011338	95.96730158730159	68	127
95.78154195011338	95.96730158730159	76	127
96.01374149659864	96.42009070294785	65	127
96.01374149659864	96.42009070294785	62	127
96.01374149659864	96.83804988662132	57	127
96.26916099773243	96.47814058956916	69	127
96.26916099773243	96.47814058956916	74	127
96.26916099773243	96.47814058956916	77	127
96.52458049886621	96.72195011337868	81	127
96.52458049886621	96.94253968253969	64	127
96.52458049886621	96.94253968253969	61	127
96.78	97.000589569161	76	127
96.78	97.000589569161	69	127
96.78	97.000589569161	73	127
97.52303854875284	97.91777777777777	50	127
97.76684807256235	97.96421768707484	69	127
97.76684807256235	97.96421768707484	77	127
97.76684807256235	97.96421768707484	74	127
97.99904761904762	98.39378684807257	52	127
98.24285714285715	98.44022675736962	69	127
98.24285714285715	98.44022675736962	72	127
98.24285714285715	98.44022675736962	76	127
98.48666666666666	98.85818594104309	64	127
98.6956462585034	98.89301587301587	71	127
98.6956462585034	98.89301587301587	68	127
98.6956462585034	98.89301587301587	76	127
98.92784580498866	99.33419501133787	65	127
98.92784580498866	99.33419501133787	62	127
98.92784580498866	99.72893424036282	57	127
99.17165532879818	99.38063492063492	77	127
99.17165532879818	99.38063492063492	74	127
99.17165532879818	99.38063492063492	69	127
99.42707482993197	99.62444444444445	81	127
99.42707482993197	99.83342403628117	61	127
99.42707482993197	99.83342403628117	64	127
99.6708843537415	99.87986394557824	76	127
99.6708843537415	99.87986394557824	73	127
99.6708843537415	99.87986394557824	69	127
100.53002267573696	100.98281179138321	38	127
100.84349206349206	101.00603174603175	74	127
100.84349206349206	101.00603174603175	69	127
100.84349206349206	101.00603174603175	65	127
101.06408163265306	101.40077097505669	40	127
101.29628117913832	101.44721088435374	64	127
101.29628117913832	101.44721088435374	69	127
101.29628117913832	101.44721088435374	73	127
101.50526077097506	101.83034013605442	42	127
101.72585034013605	101.87678004535148	69	127
101.72585034013605	101.87678004535148	72	127
101.72585034013605	101.87678004535148	63	127
101.93482993197279	102.29473922902494	43	127
102.15541950113379	102.34117913832199	71	127
102.15541950113379	102.34117913832199	62	127
102.15541950113379	102.34117913832199	67	127
102.38761904761905	102.78235827664399	46	127
102.64303854875284	102.84040816326531	67	127
102.64303854875284	102.84040816326531	62	127
102.64303854875284	102.84040816326531	70	127
102.88684807256236	103.29319727891156	50	127
103.13065759637188	103.5021768707483	69	127
103.13065759637188	103.5021768707483	65	127
103.13065759637188	103.5021768707483	62	127
103.54861678004535	104.11750566893424	51	127
103.97818594104308	104.18716553287982	69	127
103.97818594104308	104.18716553287982	65	127
103.97818594104308	104.18716553287982	60	127
104.81410430839003	104.84893424036281	52	127
104.81410430839003	104.84893424036281	57	127
104.84893424036281	104.87215419501133	60	127
104.90698412698413	105.12757369614512	89	127
104.90698412698413	105.12757369614512	77	127
104.98825396825397	105.39460317460318	64	127
104.98825396825397	105.39460317460318	60	127
104.98825396825397	105.39460317460318	57	127
104.98825396825397	105.39460317460318	52	127
105.18562358276644	105.3829931972789	88	127
105.18562358276644	105.3829931972789	76	127
105.44104308390023	105.6384126984127	86	127
105.44104308390023	105.6384126984127	74	127
105.69646258503401	105.8590022675737	76	127
105.69646258503401	105.8590022675737	88	127
105.81256235827665	105.84739229024943	59	127
105.81256235827665	105.84739229024943	52	127
105.84739229024943	105.89383219954648	62	127
105.917052154195	106.28857142857143	72	127
105.917052154195	106.28857142857143	84	127
105.97510204081632	106.358231292517	59	127
105.97510204081632	106.358231292517	62	127
105.97510204081632	106.358231292517	68	127
105.97510204081632	106.358231292517	52	127
106.3930612244898	106.74136054421768	83	127
106.3930612244898	106.74136054421768	71	127
106.8342403628118	107.35668934240363	81	127
106.8342403628118	107.35668934240363	69	127
106.8342403628118	107.37990929705215	57	127
106.90390022675737	107.37990929705215	60	127
107.04321995464852	107.37990929705215	64	127
107.7746485260771	108.00684807256236	52	127
108.11133786848073	108.52929705215419	59	127
108.11133786848073	108.52929705215419	56	127
108.11133786848073	108.52929705215419	40	127
108.65700680272109	109.07496598639456	57	127
108.65700680272109	109.07496598639456	33	127
108.65700680272109	109.07496598639456	45	127
110.57265306122449	110.74680272108843	86	127
110.57265306122449	110.86290249433107	62	127
110.77002267573697	110.88612244897959	73	127
110.90934240362812	111.1647619047619	85	127
110.90934240362812	111.1647619047619	61	127
111.23442176870748	111.32730158730159	84	127
111.23442176870748	111.45501133786848	60	127
111.36213151927437	111.58272108843538	73	127
111.61755102040816	111.84975056689342	85	127
111.61755102040816	111.84975056689342	61	127
112.91786848072563	113.12684807256235	86	127
112.91786848072563	113.24294784580499	62	127
113.17328798185942	113.30099773242631	73	127
113.32421768707484	113.63768707482993	85	127
113.32421768707484	113.63768707482993	61	127
113.68412698412699	113.81183673469388	84	127
113.68412698412699	113.92793650793651	60	127
113.83505668934241	113.9627664399093	73	127
114.03242630385488	114.24140589569161	85	127
114.03242630385488	114.24140589569161	61	127
115.46045351473923	115.72748299319728	86	127
115.75070294784581	115.84358276643991	73	127
115.8784126984127	116.22671201814059	85	127
116.34281179138323	116.47052154195012	84	127
116.34281179138323	116.65628117913832	42	127
116.49374149659864	116.69111111111111	73	127
116.7259410430839	116.95814058956915	85	127
116.7259410430839	116.95814058956915	49	127
117.00458049886622	117.13229024943311	83	127
117.00458049886622	117.22517006802721	54	127
117.15551020408164	117.26	73	127
117.29482993197279	117.52702947845805	81	127
117.29482993197279	117.52702947845805	57	127
117.56185941043084	117.65473922902494	80	127
117.56185941043084	117.77083900226758	61	127
117.68956916099773	117.80566893424036	73	127
117.84049886621315	118.03786848072562	78	127
117.84049886621315	118.03786848072562	66	127
118.08430839002267	118.22362811791383	76	127
118.08430839002267	118.35133786848073	44	127
118.25845804988663	118.37455782312925	74	127
118.39777777777778	118.58353741496599	77	127
118.39777777777778	118.58353741496599	49	127
118.65319727891156	118.75768707482993	80	127
118.65319727891156	118.87378684807257	53	127
118.78090702947846	118.8970068027211	74	127
118.92022675736962	119.14081632653061	83	127
118.92022675736962	119.14081632653061	59	127
119.18725623582766	119.33818594104308	88	127
119.18725623582766	119.45428571428572	62	127
119.3614058956916	119.47750566893424	74	127
119.50072562358277	119.73292517006803	86	127
119.50072562358277	119.73292517006803	65	127
119.8025850340136	119.90707482993197	85	127
119.8025850340136	120.02317460317461	47	127
119.9302947845805	120.04639455782313	74	127
120.06961451247166	120.26698412698413	86	127
120.06961451247166	120.26698412698413	53	127
120.31342403628118	120.40630385487529	85	127
120.31342403628118	120.51079365079364	56	127
120.42952380952381	120.53401360544218	74	127
120.55723356009071	120.7778231292517	83	127
120.55723356009071	120.7778231292517	59	127
120.83587301587302	120.92875283446712	81	127
120.83587301587302	121.04485260770976	65	127
120.96358276643991	121.06807256235828	74	127
121.0912925170068	121.28866213151927	80	127
121.0912925170068	121.28866213151927	68	127
121.35832199546485	121.45120181405896	77	127
121.35832199546485	121.60213151927438	45	127
121.49764172335601	121.6253514739229	73	127
121.64857142857143	121.86916099773242	78	127
121.64857142857143	121.86916099773242	49	127
121.91560090702947	121.98526077097506	81	127
121.91560090702947	122.07814058956916	54	127
122.00848072562358	122.10136054421768	73	127
122.12458049886621	122.34517006802722	85	127
122.12458049886621	122.34517006802722	57	127
122.40321995464852	122.600589569161	92	127
122.40321995464852	122.84439909297052	61	127
122.77473922902495	122.86761904761904	78	127
122.90244897959184	123.2275283446712	90	127
122.90244897959184	123.2275283446712	66	127
123.27396825396825	123.42489795918367	89	127
123.27396825396825	123.52938775510204	46	127
123.4481179138322	123.55260770975056	78	127
123.58743764172335	123.85446712018141	90	127
123.58743764172335	123.85446712018141	52	127
123.90090702947846	124.02861678004535	92	127
123.90090702947846	124.12149659863945	54	127
124.05183673469388	124.14471655328798	78	127
124.17954648526077	124.38852607709751	90	127
124.17954648526077	124.38852607709751	61	127
124.44657596371881	124.55106575963718	89	127
124.44657596371881	124.63233560090703	47	127
124.58589569160998	124.65555555555555	78	127
124.67877551020408	124.87614512471656	90	127
124.67877551020408	124.87614512471656	51	127
124.94580498866213	125.0502947845805	92	127
124.94580498866213	125.1431746031746	54	127
125.07351473922903	125.20122448979592	78	127
125.22444444444444	125.43342403628118	90	127
125.22444444444444	125.43342403628118	63	127
125.47986394557823	125.59596371882085	89	127
125.47986394557823	125.70045351473922	49	127
125.63079365079365	125.73528344671202	78	127
125.75850340136054	126.00231292517007	90	127
125.75850340136054	126.00231292517007	54	127
126.07197278911565	126.17646258503402	92	127
126.07197278911565	126.28095238095239	58	127
126.19968253968254	126.30417233560091	78	127
126.32739229024943	126.5247619047619	90	127
126.32739229024943	126.5247619047619	64	127
126.57120181405895	126.74535147392291	89	127
126.57120181405895	126.94272108843538	51	127
126.76857142857143	126.9659410430839	78	127
127.0007709750567	127.22136054421769	90	127
127.0007709750567	127.22136054421769	54	127
127.26780045351474	127.38390022675738	89	127
127.26780045351474	127.5	59	127
127.4071201814059	127.52321995464852	78	127
127.54643990929705	127.75541950113379	87	127
127.54643990929705	127.75541950113379	66	127
127.8134693877551	127.941179138322	85	127
127.8134693877551	128.04566893424035	50	127
127.96439909297052	128.0688888888889	78	127
128.09208616780046	128.2894784580499	83	127
128.09208616780046	128.2894784580499	54	127
128.35913832199546	128.46362811791383	81	127
128.35913832199546	128.55650793650793	49	127
128.4752380952381	128.60292517006803	78	127
128.63777777777779	128.84675736961452	82	127
128.63777777777779	128.84675736961452	54	127
128.90480725623584	129.00927437641724	84	127
128.90480725623584	129.1137641723356	58	127
129.03251700680272	129.1370068027211	78	127
129.16022675736963	129.3691836734694	85	127
129.16022675736963	129.3691836734694	61	127
129.43886621315193	129.5433560090703	83	127
129.43886621315193	129.68267573696144	49	127
129.6014058956916	129.70589569160998	73	127
129.72909297052155	129.9497052154195	80	127
129.72909297052155	129.9497052154195	53	127
129.98451247165534	130.08902494331065	77	127
129.98451247165534	130.21673469387756	42	127
130.14707482993197	130.2631746031746	73	127
130.28637188208617	130.50698412698412	78	127
130.28637188208617	130.50698412698412	49	127
130.55342403628117	130.65791383219954	80	127
130.55342403628117	130.7624036281179	54	127
130.69274376417235	130.78562358276645	73	127
130.82045351473923	131.07587301587301	57	127
130.82045351473923	131.07587301587301	81	127
131.12231292517006	131.37773242630385	61	127
131.12231292517006	131.27324263038548	86	127
131.29646258503402	131.4009523809524	73	127
131.4241723356009	131.69120181405896	66	127
131.4241723356009	131.69120181405896	85	127
131.737641723356	131.88857142857142	84	127
131.737641723356	132.64319727891157	69	127
131.92337868480726	132.02786848072563	73	127
132.06272108843538	132.70126984126983	85	127
133.24693877551022	133.36303854875283	86	127
133.38625850340136	133.502358276644	73	127
133.53718820861678	133.82743764172335	85	127
133.9202947845805	134.02480725623582	84	127
134.04802721088436	134.15251700680273	73	127
134.1757142857143	134.60530612244898	85	127
135.39478458049888	135.6618140589569	86	127
135.68503401360545	135.84757369614513	73	127
135.87079365079364	136.14943310657597	85	127
136.2190702947846	136.38163265306122	84	127
136.2190702947846	136.49773242630386	42	127
136.40485260770976	136.5209523809524	73	127
136.5441723356009	136.77637188208618	85	127
136.5441723356009	136.77637188208618	49	127
136.83439909297053	136.96213151927438	83	127
136.83439909297053	137.07823129251702	54	127
136.98532879818595	137.10145124716553	73	127
137.1130612244898	137.31043083900227	81	127
137.1130612244898	137.31043083900227	57	127
137.35687074829931	137.46136054421768	80	127
137.35687074829931	137.56585034013605	61	127
137.48458049886622	137.5890702947846	73	127
137.6122902494331	137.8328798185941	78	127
137.6122902494331	137.8328798185941	66	127
137.87931972789116	137.9954195011338	76	127
137.87931972789116	138.12312925170068	44	127
138.0186394557823	138.1463492063492	74	127
138.16956916099772	138.34371882086168	77	127
138.16956916099772	138.34371882086168	49	127
138.41337868480727	138.50625850340137	80	127
138.41337868480727	138.64557823129252	53	127
138.54108843537415	138.6804081632653	74	127
138.70362811791384	138.92421768707484	83	127
138.70362811791384	138.92421768707484	59	127
138.9938775510204	139.0867573696145	88	127
138.9938775510204	139.2144671201814	62	127
139.10997732426304	139.23766439909298	74	127
139.26090702947846	139.49308390022676	86	127
139.26090702947846	139.49308390022676	65	127
139.55115646258503	139.64401360544218	85	127
139.55115646258503	139.7833560090703	47	127
139.67886621315193	139.8065759637188	74	127
139.82979591836735	140.02716553287982	86	127
139.82979591836735	140.02716553287982	53	127
140.07360544217687	140.16648526077097	85	127
140.07360544217687	140.24775510204083	56	127
140.20131519274378	140.27097505668934	74	127
140.29419501133788	140.5147619047619	83	127
140.29419501133788	140.5147619047619	59	127
140.56120181405896	140.67732426303854	81	127
140.56120181405896	140.7701814058957	65	127
140.70054421768708	140.80503401360545	74	127
140.82825396825396	141.07204081632653	80	127
140.82825396825396	141.07204081632653	68	127
141.1301133786848	141.24621315192744	77	127
141.1301133786848	141.4203628117914	45	127
141.26943310657597	141.4435827664399	73	127
141.46680272108844	141.71061224489796	78	127
141.46680272108844	141.71061224489796	49	127
141.76866213151928	141.89637188208616	81	127
141.76866213151928	142.00086167800453	54	127
141.9195918367347	142.02408163265306	73	127
142.07052154195011	142.26789115646258	85	127
142.07052154195011	142.26789115646258	57	127
142.31433106575963	142.418820861678	92	127
142.31433106575963	142.5117006802721	61	127
142.44204081632654	142.53492063492064	78	127
142.56975056689342	142.9644671201814	90	127
142.56975056689342	142.9644671201814	66	127
143.03414965986394	143.17344671201815	89	127
143.03414965986394	143.27795918367346	46	127
143.19668934240363	143.31278911564627	78	127
143.33600907029478	143.55659863945579	90	127
143.33600907029478	143.55659863945579	52	127
143.60303854875283	143.69591836734693	92	127
143.60303854875283	143.85845804988662	54	127
143.71913832199547	143.8932879818594	78	127
143.91650793650794	144.12548752834468	90	127
143.91650793650794	144.12548752834468	61	127
144.17192743764173	144.2764172335601	89	127
144.17192743764173	144.39251700680273	47	127
144.2996371882086	144.41573696145124	78	127
144.43895691609978	144.67115646258503	90	127
144.43895691609978	144.67115646258503	51	127
144.71759637188208	144.82208616780045	92	127
144.71759637188208	144.92657596371882	54	127
144.845306122449	144.94979591836736	78	127
144.98462585034014	145.19360544217687	90	127
144.98462585034014	145.19360544217687	63	127
145.24004535147392	145.35614512471656	89	127
145.24004535147392	145.48385487528344	49	127
145.37936507936507	145.50707482993198	78	127
145.54190476190476	145.7508843537415	90	127
145.54190476190476	145.7508843537415	54	127
145.79732426303855	145.91342403628119	92	127
145.79732426303855	146.02952380952382	58	127
145.9366439909297	146.05274376417233	78	127
146.08755102040817	146.30816326530612	90	127
146.08755102040817	146.30816326530612	64	127
146.3778231292517	146.49390022675738	89	127
146.3778231292517	146.67968253968255	51	127
146.51714285714286	146.70290249433106	78	127
146.7261224489796	147.01637188208616	90	127
146.7261224489796	147.01637188208616	54	127
147.07442176870748	147.16730158730158	89	127
147.07442176870748	147.27179138321995	59	127
147.19052154195012	147.2950113378685	78	127
147.318231292517	147.538820861678	87	127
147.318231292517	147.538820861678	66	127
147.59687074829932	147.68975056689342	85	127
147.59687074829932	147.7942403628118	50	127
147.71297052154196	147.82907029478457	78	127
147.8522902494331	148.07287981859412	83	127
147.8522902494331	148.07287981859412	54	127
148.13090702947846	148.22380952380954	81	127
148.13090702947846	148.33990929705215	49	127
148.27024943310659	148.36312925170068	78	127
148.38632653061225	148.63015873015874	82	127
148.38632653061225	148.63015873015874	54	127
148.6765986394558	148.79267573696146	84	127
148.6765986394558	148.89716553287982	58	127
148.8275283446712	148.9204081632653	78	127
148.9552380952381	149.16421768707482	85	127
148.9552380952381	149.16421768707482	61	127
149.21065759637187	149.31514739229024	83	127
149.21065759637187	149.43124716553288	49	127
149.34997732426305	149.45446712018142	73	127
149.46607709750566	149.6750566893424	80	127
149.46607709750566	149.6750566893424	53	127
149.72149659863945	149.82598639455782	77	127
149.72149659863945	149.91884353741497	42	127
149.84920634920636	149.95369614512472	73	127
149.97691609977323	150.22072562358278	78	127
149.97691609977323	150.22072562358278	49	127
150.25555555555556	150.3716553287982	80	127
150.25555555555556	150.4645351473923	54	127
150.3948752834467	150.51097505668935	73	127
150.54580498866213	150.76639455782313	81	127
150.54580498866213	150.76639455782313	57	127
150.82444444444445	151.11469387755102	61	127
150.82444444444445	150.98698412698414	86	127
151.01020408163265	151.13791383219956	73	127
151.17274376417234	151.4049433106576	85	127
151.17274376417234	151.4049433106576	66	127
151.4629931972789	151.64875283446713	84	127
151.4629931972789	152.06668934240363	69	127
151.67197278911564	151.78807256235828	73	127
151.81126984126985	152.1247619047619	85	127
152.99551020408163	153.1	86	127
153.12321995464853	153.26253968253968	73	127
153.28575963718822	153.55278911564625	85	127
153.61083900226757	153.7269387755102	84	127
153.75013605442177	153.87786848072562	73	127
153.90108843537416	154.40031746031747	85	127
155.34072562358276	155.5148752834467	86	127
155.5497052154195	155.65419501133786	73	127
155.68902494331067	156.14181405895692	85	127
156.19986394557824	156.29274376417234	84	127
156.19986394557824	156.408820861678	45	127
156.31596371882085	156.4320634920635	73	127
156.46689342403627	156.7455328798186	85	127
156.46689342403627	156.7455328798186	52	127
156.80358276643992	156.89646258503402	83	127
156.80358276643992	156.98934240362811	57	127
156.91965986394558	157.01256235827665	73	127
157.03578231292516	157.2447619047619	81	127
157.03578231292516	157.2447619047619	61	127
157.30281179138322	157.39569160997732	80	127
157.30281179138322	157.5001814058957	64	127
157.41891156462586	157.52340136054423	73	127
157.54662131519274	157.7439909297052	78	127
157.54662131519274	157.7439909297052	69	127
157.8136507936508	157.9065306122449	76	127
157.8136507936508	158.01102040816326	47	127
157.94133786848073	158.0342403628118	74	127
158.09229024943312	158.3128798185941	77	127
158.09229024943312	158.3128798185941	56	127
158.37092970521542	158.55666666666667	59	127
158.37092970521542	158.46380952380952	80	127
158.48702947845806	158.6031292517007	74	127
158.6263492063492	158.8469387755102	83	127
158.6263492063492	158.8469387755102	62	127
158.89337868480726	159.04430839002268	88	127
158.89337868480726	159.13718820861678	65	127
159.06750566893425	159.16040816326532	77	127
159.18362811791383	159.4274149659864	86	127
159.18362811791383	159.4274149659864	68	127
159.49709750566893	159.64802721088435	85	127
159.49709750566893	159.75251700680272	50	127
159.6712471655329	159.77573696145126	77	127
159.78732426303856	159.99632653061224	86	127
159.78732426303856	159.99632653061224	56	127
160.04274376417234	160.15886621315192	85	127
160.04274376417234	160.25174603174602	59	127
160.18208616780046	160.27496598639456	77	127
160.30979591836734	160.49555555555557	83	127
160.30979591836734	160.49555555555557	81	127
160.30979591836734	160.49555555555557	65	127
160.53038548752835	160.63487528344672	81	127
160.53038548752835	160.72775510204082	68	127
160.65809523809523	160.75097505668936	77	127
160.78580498866214	161.02961451247165	71	127
160.78580498866214	161.02961451247165	80	127
161.0760544217687	161.18054421768707	80	127
161.0760544217687	161.28503401360544	49	127
161.2037641723356	161.31984126984128	76	127
161.34308390022676	161.5520634920635	81	127
161.34308390022676	161.5520634920635	52	127
161.59850340136055	161.70299319727891	85	127
161.59850340136055	161.83068027210885	57	127
161.72619047619048	161.90036281179138	76	127
161.92358276643992	162.35315192743764	88	127
161.92358276643992	162.35315192743764	64	127
162.3995918367347	162.53891156462586	95	127
162.3995918367347	162.64340136054423	69	127
162.56213151927437	162.66662131519274	81	127
162.70142857142858	162.91043083900226	93	127
162.70142857142858	162.91043083900226	73	127
162.96848072562358	163.31678004535146	55	127
162.96848072562358	163.08458049886622	92	127
163.23551020408163	163.37482993197278	81	127
163.39804988662132	163.63024943310657	93	127
163.39804988662132	163.63024943310657	61	127
163.69990929705216	163.8160090702948	95	127
163.69990929705216	163.92049886621317	64	127
163.8392290249433	163.94371882086168	81	127
163.96693877551022	164.1526984126984	93	127
163.96693877551022	164.1526984126984	69	127
164.21074829931973	164.3152380952381	92	127
164.21074829931973	164.46616780045352	54	127
164.3384580498866	164.4893650793651	81	127
164.51260770975057	164.7215873015873	93	127
164.51260770975057	164.7215873015873	57	127
164.80285714285714	164.8957142857143	95	127
164.80285714285714	165.00020408163266	62	127
164.91895691609977	165.02344671201814	81	127
165.0466439909297	165.24403628117915	93	127
165.0466439909297	165.24403628117915	69	127
165.3020634920635	165.39496598639457	92	127
165.3020634920635	165.49945578231294	53	127
165.41818594104308	165.52267573696145	81	127
165.53428571428572	165.73165532879818	93	127
165.53428571428572	165.73165532879818	57	127
165.7897052154195	165.8825850340136	95	127
165.7897052154195	165.98707482993197	62	127
165.90580498866214	166.0102947845805	81	127
166.03351473922902	166.2308843537415	93	127
166.03351473922902	166.2308843537415	69	127
166.2889342403628	166.38179138321996	92	127
166.2889342403628	166.56757369614513	52	127
166.428231292517	166.59079365079364	81	127
166.61401360544218	166.86943310657597	93	127
166.61401360544218	166.86943310657597	57	127
166.9507029478458	167.04356009070295	92	127
166.9507029478458	167.15968253968254	61	127
167.09002267573698	167.18290249433107	81	127
167.20612244897958	167.43832199546486	90	127
167.20612244897958	167.43832199546486	69	127
167.4847619047619	167.58925170068028	88	127
167.4847619047619	167.69374149659865	53	127
167.62408163265306	167.71696145124716	81	127
167.7401814058957	167.94916099773243	86	127
167.7401814058957	167.94916099773243	59	127
167.99560090702948	168.11170068027212	84	127
167.99560090702948	168.20458049886622	54	127
168.13492063492063	168.22780045351473	81	127
168.25102040816327	168.48321995464852	85	127
168.25102040816327	168.48321995464852	57	127
168.52965986394557	168.63414965986394	83	127
168.52965986394557	168.7386394557823	61	127
168.65736961451248	168.7734693877551	73	127
168.8082993197279	169.0288888888889	81	127
168.8082993197279	169.0288888888889	64	127
169.07532879818595	169.17981859410432	80	127
169.07532879818595	169.27269841269842	48	127
169.20303854875283	169.29591836734693	75	127
169.33074829931974	169.5281179138322	78	127
169.33074829931974	169.5281179138322	57	127
169.57455782312925	169.67904761904762	77	127
169.57455782312925	169.77192743764172	49	127
169.7022448979592	169.80673469387756	73	127
169.82997732426304	170.0273469387755	80	127
169.82997732426304	170.0273469387755	56	127
170.07378684807256	170.1898866213152	84	127
170.07378684807256	170.30598639455783	59	127
170.23632653061225	170.34081632653061	73	127
170.36401360544218	170.60784580498867	85	127
170.36401360544218	170.60784580498867	65	127
170.65428571428572	170.77038548752836	88	127
170.65428571428572	170.88648526077097	68	127
170.79360544217687	170.9097052154195	74	127
170.93292517006802	171.21156462585034	86	127
170.93292517006802	171.21156462585034	71	127
171.2580045351474	171.36249433106576	84	127
171.38569160997733	171.4785941043084	73	127
171.5018140589569	171.8965306122449	85	127
172.98789115646258	173.1736507936508	88	127
172.98789115646258	173.33619047619047	64	127
173.19687074829932	173.359410430839	74	127
173.38260770975057	173.63802721088436	86	127
173.38260770975057	173.63802721088436	62	127
173.75414965986394	173.87024943310658	82	127
173.75414965986394	174.13727891156464	58	127
173.93990929705217	174.16049886621315	74	127
174.18371882086169	174.36947845804988	83	127
174.18371882086169	174.36947845804988	59	127
175.01961451247166	175.13573696145124	86	127
175.01961451247166	175.2402267573696	62	127
175.15895691609978	175.26344671201815	73	127
175.3098866213152	175.565306122449	85	127
175.3098866213152	175.565306122449	61	127
175.63496598639455	175.73945578231292	80	127
175.63496598639455	175.8787755102041	42	127
175.77428571428572	175.9019954648526	73	127
175.92521541950114	176.18063492063493	81	127
175.92521541950114	176.18063492063493	49	127
176.22707482993198	176.45927437641723	54	127
176.50571428571428	176.72630385487528	57	127
176.7843537414966	176.8772335600907	80	127
176.7843537414966	176.98172335600907	41	127
176.91204081632654	177.01655328798185	69	127
177.0397732426304	177.27197278911564	81	127
177.0397732426304	177.27197278911564	45	127
177.34163265306123	177.55061224489796	50	127
177.597052154195	177.80603174603175	57	127
177.8524716553288	177.98015873015873	85	127
177.8524716553288	178.0730612244898	38	127
178.00340136054422	178.09628117913832	74	127
178.13111111111112	178.3400680272109	86	127
178.13111111111112	178.3400680272109	45	127
178.39814058956915	178.59548752834468	50	127
178.6651700680272	178.86253968253968	53	127
178.90897959183673	179.0715192743764	87	127
178.90897959183673	179.21081632653062	37	127
179.12956916099773	179.25725623582767	76	127
179.28049886621315	179.50108843537416	88	127
179.28049886621315	179.50108843537416	40	127
179.5475283446712	179.6752380952381	87	127
179.5475283446712	179.7681179138322	45	127
179.69845804988663	179.84938775510204	76	127
179.8725850340136	180.06997732426305	88	127
179.8725850340136	180.06997732426305	52	127
180.1164172335601	180.22090702947847	88	127
180.1164172335601	180.34861678004535	49	127
180.24412698412698	180.3718367346939	77	127
180.3950566893424	180.67369614512472	89	127
180.3950566893424	180.67369614512472	59	127
180.82462585034014	180.94072562358278	89	127
180.82462585034014	181.1032426303855	42	127
180.9639455782313	181.13809523809525	78	127
181.16131519274376	181.3702947845805	90	127
181.16131519274376	181.3702947845805	49	127
181.41673469387754	181.5212244897959	85	127
181.41673469387754	181.66052154195012	54	127
181.55605442176872	181.6837641723356	78	127
181.70698412698414	181.9391836734694	81	127
181.70698412698414	181.9391836734694	57	127
181.9972335600907	182.12492063492064	80	127
181.9972335600907	182.24104308390022	61	127
182.14816326530612	182.28748299319727	69	127
182.3107029478458	182.60095238095238	78	127
182.3107029478458	182.60095238095238	66	127
182.7286621315193	182.85637188208617	74	127
182.7286621315193	182.98408163265307	42	127
182.8795918367347	183.00730158730158	81	127
183.03052154195012	183.26272108843537	73	127
183.03052154195012	183.26272108843537	49	127
183.35560090702947	183.43687074829933	72	127
183.35560090702947	183.5413605442177	54	127
183.46009070294784	183.5645804988662	81	127
183.58780045351475	183.79678004535148	73	127
183.58780045351475	183.79678004535148	57	127
183.8548299319728	183.95931972789117	76	127
183.8548299319728	184.07541950113378	41	127
183.98253968253968	184.1102494331066	81	127
184.1334693877551	184.31920634920635	74	127
184.1334693877551	184.31920634920635	45	127
184.37727891156462	184.49337868480725	73	127
184.37727891156462	184.59786848072562	50	127
184.5281859410431	184.62108843537416	81	127
184.64430839002267	184.8881179138322	74	127
184.64430839002267	184.8881179138322	57	127
184.9345351473923	185.02743764172337	79	127
184.9345351473923	185.13192743764174	38	127
185.06226757369615	185.17836734693878	86	127
185.21319727891157	185.44537414965987	77	127
185.21319727891157	185.44537414965987	45	127
185.4918367346939	185.584716553288	76	127
185.4918367346939	185.71242630385487	50	127
185.63115646258504	185.7356462585034	86	127
185.75886621315192	185.9910657596372	77	127
185.75886621315192	185.9910657596372	53	127
186.0607029478458	186.1768253968254	81	127
186.0607029478458	186.2697052154195	37	127
186.20004535147393	186.3045351473923	88	127
186.3277551020408	186.5831746031746	76	127
186.3277551020408	186.5831746031746	40	127
186.62961451247165	186.78054421768707	73	127
186.62961451247165	186.8734240362812	45	127
186.8037641723356	186.8966439909297	81	127
186.93145124716554	187.14045351473922	69	127
186.93145124716554	187.14045351473922	52	127
187.19850340136054	187.34943310657596	68	127
187.19850340136054	187.47714285714287	49	127
187.3726530612245	187.53519274376418	77	127
187.57002267573696	187.84863945578232	65	127
187.57002267573696	187.84863945578232	59	127
187.89510204081634	188.06925170068027	69	127
187.89510204081634	188.25498866213152	42	127
188.16213151927437	188.28984126984128	78	127
188.3130612244898	188.5336507936508	66	127
188.3130612244898	188.5336507936508	49	127
188.64975056689343	188.94	54	127
189.05609977324264	189.3463492063492	57	127
189.39278911564625	189.5669387755102	86	127
189.39278911564625	189.68303854875285	61	127
189.601768707483	189.70625850340136	73	127
189.7410657596372	189.98489795918368	85	127
190.0661678004535	190.20548752834466	84	127
190.0661678004535	190.30997732426303	45	127
190.2287074829932	190.33319727891157	73	127
190.35641723356008	190.61183673469387	85	127
190.35641723356008	190.61183673469387	52	127
190.65827664399092	190.76276643990929	83	127
190.65827664399092	190.87886621315192	57	127
190.7975963718821	190.90208616780046	73	127
190.93691609977324	191.14589569160998	81	127
190.93691609977324	191.14589569160998	61	127
191.19233560090703	191.27360544217686	80	127
191.19233560090703	191.3897052154195	64	127
191.2968253968254	191.41292517006804	73	127
191.43614512471655	191.633514739229	78	127
191.43614512471655	191.633514739229	69	127
191.7031746031746	191.81927437641724	76	127
191.7031746031746	191.97020408163266	47	127
191.84249433106575	192.00503401360544	74	127
192.07469387755103	192.34172335600908	77	127
192.07469387755103	192.34172335600908	56	127
192.39977324263037	192.4926530612245	80	127
192.39977324263037	192.59714285714287	59	127
192.515873015873	192.62036281179138	74	127
192.64358276643992	192.8409523809524	83	127
192.64358276643992	192.8409523809524	62	127
192.91061224489795	192.9918820861678	88	127
192.91061224489795	193.0847619047619	65	127
193.01510204081632	193.10798185941044	77	127
193.13120181405895	193.32857142857142	86	127
193.13120181405895	193.32857142857142	68	127
193.38662131519274	193.47950113378684	85	127
193.38662131519274	193.59560090702948	50	127
193.51433106575965	193.61882086167802	77	127
193.64204081632653	193.86263038548753	86	127
193.64204081632653	193.86263038548753	56	127
193.92068027210885	194.02517006802722	85	127
193.92068027210885	194.1296598639456	59	127
194.06	194.1528798185941	77	127
194.17609977324264	194.38507936507938	83	127
194.17609977324264	194.38507936507938	81	127
194.17609977324264	194.38507936507938	65	127
194.43151927437643	194.5360090702948	81	127
194.43151927437643	194.721768707483	68	127
194.57083900226758	194.74498866213153	77	127
194.76820861678004	195.00040816326532	71	127
194.76820861678004	195.00040816326532	80	127
195.04684807256237	195.15133786848074	80	127
195.04684807256237	195.24421768707484	49	127
195.17455782312925	195.26743764172335	76	127
195.2906575963719	195.49963718820862	81	127
195.2906575963719	195.49963718820862	52	127
195.55768707482994	195.67378684807255	85	127
195.55768707482994	195.77827664399092	57	127
195.6970068027211	195.82471655328797	76	127
195.85954648526078	196.13818594104308	88	127
195.85954648526078	196.13818594104308	64	127
196.18462585034013	196.31233560090703	95	127
196.18462585034013	196.4168253968254	69	127
196.33555555555554	196.45165532879818	81	127
196.48648526077096	196.83478458049888	93	127
196.48648526077096	196.83478458049888	73	127
196.9160544217687	197.02054421768707	92	127
196.9160544217687	197.1714739229025	55	127
197.05537414965985	197.2295238095238	81	127
197.25274376417232	197.5778231292517	93	127
197.25274376417232	197.5778231292517	61	127
197.6474829931973	197.7635827664399	95	127
197.6474829931973	197.86807256235826	64	127
197.78680272108843	197.90290249433107	81	127
197.91451247165534	198.1118820861678	93	127
197.91451247165534	198.1118820861678	69	127
198.19315192743764	198.297641723356	92	127
198.19315192743764	198.40213151927438	54	127
198.32086167800455	198.43696145124716	81	127
198.4601814058957	198.65755102040816	93	127
198.4601814058957	198.65755102040816	57	127
198.7039909297052	198.80848072562358	95	127
198.7039909297052	198.91297052154195	62	127
198.83170068027212	198.9361904761905	81	127
198.959410430839	199.19160997732428	93	127
198.959410430839	199.19160997732428	69	127
199.26126984126984	199.37736961451247	92	127
199.26126984126984	199.48185941043084	53	127
199.40058956916099	199.50507936507935	81	127
199.5282993197279	199.72566893424036	93	127
199.5282993197279	199.72566893424036	57	127
199.7721088435374	199.87659863945578	95	127
199.7721088435374	199.98108843537415	62	127
199.89981859410432	200.0043083900227	81	127
200.0275283446712	200.22489795918366	93	127
200.0275283446712	200.22489795918366	69	127
200.3177777777778	200.49192743764172	92	127
200.3177777777778	200.63124716553287	52	127
200.54997732426304	200.6544671201814	81	127
200.67768707482992	200.89827664399093	93	127
200.67768707482992	200.89827664399093	57	127
200.95632653061224	201.03759637188207	92	127
200.95632653061224	201.1536961451247	61	127
201.0608163265306	201.17691609977325	81	127
201.20013605442176	201.42072562358277	90	127
201.20013605442176	201.42072562358277	69	127
201.49038548752836	201.58326530612246	88	127
201.49038548752836	201.71097505668934	53	127
201.60648526077097	201.73419501133787	81	127
201.75741496598638	201.96639455782312	86	127
201.75741496598638	201.96639455782312	59	127
202.02444444444444	202.1289342403628	84	127
202.02444444444444	202.24503401360545	54	127
202.1637641723356	202.26825396825396	81	127
202.2914739229025	202.48884353741497	85	127
202.2914739229025	202.48884353741497	57	127
202.54689342403628	202.63977324263038	83	127
202.54689342403628	202.74426303854875	61	127
202.67460317460316	202.7674829931973	73	127
202.7907029478458	202.98807256235827	81	127
202.7907029478458	202.98807256235827	64	127
203.03451247165532	203.09256235827664	80	127
203.03451247165532	203.197052154195	48	127
203.12739229024945	203.22027210884355	75	127
203.24349206349206	203.46408163265306	78	127
203.24349206349206	203.46408163265306	57	127
203.55696145124716	203.7427210884354	77	127
203.55696145124716	203.87043083900227	49	127
203.78916099773244	203.90526077097505	73	127
203.9284807256236	204.1722902494331	80	127
203.9284807256236	204.1722902494331	56	127
204.23034013605442	204.3580498866213	84	127
204.23034013605442	204.45092970521543	59	127
204.38126984126984	204.47414965986394	73	127
204.520589569161	204.72956916099773	85	127
204.520589569161	204.72956916099773	65	127
204.77600907029478	204.88049886621314	88	127
204.77600907029478	205.00820861678005	68	127
204.93854875283446	205.04303854875283	74	127
205.08947845804988	205.3100680272109	86	127
205.08947845804988	205.3100680272109	71	127
205.35650793650794	205.48421768707482	84	127
205.50743764172336	205.61192743764173	73	127
205.65836734693877	206.20403628117913	85	127
206.8774149659864	207.06317460317462	88	127
206.8774149659864	207.22571428571428	64	127
207.13283446712018	207.26054421768708	74	127
207.3185941043084	207.5275736961451	86	127
207.3185941043084	207.5275736961451	62	127
207.65528344671202	207.80621315192744	82	127
207.65528344671202	208.02680272108844	58	127
207.84104308390022	208.05002267573695	74	127
208.0732426303855	208.2590022675737	83	127
208.0732426303855	208.2590022675737	59	127
208.86272108843536	208.99043083900227	86	127
208.86272108843536	209.09492063492064	62	127
209.01365079365078	209.11814058956915	73	127
209.1413605442177	209.39678004535148	85	127
209.1413605442177	209.39678004535148	61	127
209.46643990929707	209.55931972789116	80	127
209.46643990929707	209.7334693877551	42	127
209.61736961451248	209.75668934240363	73	127
209.80312925170068	210.07015873015874	81	127
209.80312925170068	210.07015873015874	49	127
210.18625850340135	210.38362811791384	54	127
210.4300680272109	210.62743764172336	57	127
210.7087074829932	210.81319727891156	80	127
210.7087074829932	210.91768707482993	41	127
210.8364172335601	210.94090702947847	69	127
210.96412698412698	211.1498866213152	81	127
210.96412698412698	211.1498866213152	45	127
211.2079365079365	211.405306122449	50	127
211.45174603174604	211.6839455782313	57	127
211.7419954648526	211.84648526077098	85	127
211.7419954648526	211.97419501133786	38	127
211.9045351473923	211.9974149659864	74	127
212.02063492063493	212.2412244897959	86	127
212.02063492063493	212.2412244897959	45	127
212.28766439909296	212.50825396825397	50	127
212.55469387755102	212.76367346938775	53	127
212.8101133786848	212.9378231292517	87	127
212.8101133786848	213.13519274376418	37	127
212.96104308390022	213.1584126984127	76	127
213.18163265306123	213.40222222222224	88	127
213.18163265306123	213.40222222222224	40	127
213.46027210884353	213.58798185941043	87	127
213.46027210884353	213.7156916099773	45	127
213.61120181405894	213.73891156462585	76	127
213.77374149659863	213.98272108843537	88	127
213.77374149659863	213.98272108843537	52	127
214.0407709750567	214.14526077097506	88	127
214.0407709750567	214.319410430839	49	127
214.1684807256236	214.3542403628118	77	127
214.38907029478457	214.6677097505669	89	127
214.38907029478457	214.6677097505669	59	127
214.72575963718822	214.87668934240364	89	127
214.72575963718822	215.06244897959184	42	127
214.89990929705215	215.09727891156462	78	127
215.12049886621315	215.3875283446712	90	127
215.12049886621315	215.3875283446712	49	127
215.43396825396826	215.5732879818594	85	127
215.43396825396826	215.65455782312924	54	127
215.59650793650795	215.72421768707483	78	127
215.74743764172337	215.96802721088434	81	127
215.74743764172337	215.96802721088434	57	127
216.02607709750566	216.1421768707483	80	127
216.02607709750566	216.304716553288	61	127
216.1653968253968	216.33954648526077	69	127
216.3627664399093	216.65301587301587	78	127
216.3627664399093	216.65301587301587	66	127
216.75750566893424	216.8968253968254	74	127
216.75750566893424	217.03614512471654	42	127
216.93165532879817	217.05936507936508	81	127
217.08258503401362	217.3031746031746	73	127
217.08258503401362	217.3031746031746	49	127
217.34961451247165	217.46571428571428	72	127
217.34961451247165	217.5934240362812	54	127
217.48893424036282	217.6166439909297	81	127
217.63986394557824	217.8372335600907	73	127
217.63986394557824	217.8372335600907	57	127
217.9301133786848	218.03460317460318	76	127
217.9301133786848	218.12748299319728	41	127
218.0578231292517	218.15070294784582	81	127
218.17392290249433	218.38290249433106	74	127
218.17392290249433	218.38290249433106	45	127
218.45256235827665	218.54544217687075	73	127
218.45256235827665	218.6615419501134	50	127
218.58027210884353	218.6847619047619	81	127
218.70798185941044	218.91696145124718	74	127
218.70798185941044	218.91696145124718	57	127
218.9750113378685	219.0911111111111	79	127
218.9750113378685	219.20721088435374	38	127
219.11433106575964	219.23043083900228	86	127
219.2536507936508	219.46263038548753	77	127
219.2536507936508	219.46263038548753	45	127
219.53229024943312	219.64839002267573	76	127
219.53229024943312	219.7528798185941	50	127
219.67160997732427	219.77609977324263	86	127
219.79931972789115	219.99668934240364	77	127
219.79931972789115	219.99668934240364	53	127
220.05473922902493	220.1592290249433	81	127
220.05473922902493	220.39142857142858	37	127
220.20566893424035	220.4146485260771	88	127
220.43786848072563	220.71650793650792	76	127
220.43786848072563	220.71650793650792	40	127
220.77455782312924	220.90226757369615	73	127
220.77455782312924	221.0183673469388	45	127
220.93709750566893	221.0415873015873	81	127
221.06480725623584	221.30861678004536	52	127
221.06480725623584	221.30861678004536	69	127
221.3550566893424	221.4479365079365	68	127
221.3550566893424	221.62208616780046	49	127
221.49437641723355	221.64530612244897	77	127
221.68013605442178	221.93555555555557	65	127
221.68013605442178	221.93555555555557	59	127
221.98199546485262	222.24902494331064	42	127
221.98199546485262	222.17936507936508	69	127
222.21419501133786	222.37673469387755	78	127
222.30707482993196	222.52766439909297	49	127
222.41156462585033	222.53927437641724	66	127
222.59732426303856	222.72503401360544	69	127
222.59732426303856	222.79469387755103	57	127
222.75986394557822	222.93401360544217	78	127
222.88757369614513	223.13138321995464	42	127
222.96884353741495	223.1429931972789	66	127
223.1778231292517	223.3984126984127	67	127
223.1778231292517	223.50290249433107	58	127
223.42163265306124	223.67705215419502	76	127
223.5609523809524	223.82798185941044	49	127
223.7118820861678	223.83959183673468	64	127
223.8744217687075	224.0601814058957	42	127
223.8744217687075	224.00213151927437	66	127
224.0253514739229	224.2111111111111	74	127
224.12984126984128	224.38526077097507	50	127
224.25755102040816	224.3968707482993	62	127
224.4665306122449	224.64068027210885	66	127
224.4665306122449	224.7103401360544	59	127
224.6871201814059	224.83804988662132	74	127
224.79160997732427	224.98897959183674	42	127
224.8728798185941	225.01219954648525	62	127
225.04702947845806	225.221179138322	66	127
225.04702947845806	225.29083900226757	57	127
225.26761904761904	225.41854875283445	73	127
225.3488888888889	225.63913832199546	42	127
225.45337868480726	225.65074829931973	61	127
225.69718820861678	225.85972789115647	62	127
225.69718820861678	225.92938775510203	56	127
225.89455782312925	226.04548752834467	71	127
225.9758276643991	226.19641723356008	42	127
226.08031746031747	226.2312471655329	59	127
226.28929705215418	226.48666666666668	61	127
226.28929705215418	226.5679365079365	54	127
226.52149659863946	226.6956462585034	69	127
226.64920634920634	226.93945578231293	42	127
226.74208616780047	226.96267573696144	57	127
226.98589569160998	227.27614512471655	53	127
226.98589569160998	227.14843537414967	59	127
227.18326530612245	227.46190476190475	68	127
227.40385487528346	227.64766439909297	42	127
227.53156462585034	227.68249433106575	56	127
227.81020408163266	228.10045351473923	50	127
227.81020408163266	228.0191836734694	59	127
228.06562358276645	228.2049433106576	65	127
228.15850340136055	228.35587301587302	42	127
228.23977324263038	228.37909297052155	53	127
228.41392290249433	228.55324263038548	57	127
228.41392290249433	228.63451247165534	49	127
228.59968253968253	228.80866213151927	66	127
228.69256235827663	228.98281179138323	42	127
228.84349206349205	229.00603174603174	54	127
229.0524716553288	229.24984126984128	49	127
229.0524716553288	229.1801814058957	57	127
229.21501133786848	229.41238095238094	66	127
229.34272108843538	229.5865306122449	42	127
229.458820861678	229.62136054421768	54	127
229.679410430839	229.9928798185941	49	127
229.679410430839	229.92321995464852	57	127
229.95804988662132	230.22507936507935	66	127
230.0857596371882	230.4688888888889	42	127
230.25990929705216	230.50371882086168	54	127
230.55015873015873	230.71269841269842	62	127
230.55015873015873	230.782358276644	50	127
230.7475283446712	230.9681179138322	69	127
230.88684807256234	231.14226757369613	41	127
231.00294784580498	231.1538775510204	57	127
231.1887074829932	231.33963718820863	62	127
231.1887074829932	231.4092970521542	50	127
231.3744671201814	231.54861678004536	69	127
231.45573696145124	231.92013605442176	41	127
231.58344671201814	231.93174603174603	57	127
231.98979591836735	232.1639455782313	62	127
231.98979591836735	232.23360544217687	50	127
232.1987755102041	232.38453514739228	69	127
232.29165532879819	232.6283446712018	41	127
232.4193650793651	232.67478458049888	57	127
232.72122448979593	233.1043537414966	40	127
233.13918367346938	233.27850340136055	50	127
233.31333333333333	233.42943310657597	52	127
233.46426303854875	233.6384126984127	56	127
233.70807256235827	233.83578231292518	59	127
233.90544217687074	234.09120181405896	62	127
234.19569160997733	234.34662131519275	68	127
234.36984126984126	234.54399092970522	71	127
234.60204081632654	234.8922902494331	74	127
234.95034013605442	235.67015873015873	77	127
234.95034013605442	235.67015873015873	65	127
235.7746485260771	236.22743764172336	76	127
235.7746485260771	236.22743764172336	64	127
236.73827664399093	237.48131519274375	77	127
236.73827664399093	237.48131519274375	65	127
237.86444444444444	238.32884353741497	64	127
237.86444444444444	238.32884353741497	76	127
239.64077097505668	239.8613605442177	89	127
239.64077097505668	239.8613605442177	77	127
239.64077097505668	239.8613605442177	65	127
239.89619047619047	240.0819501133787	76	127
239.89619047619047	240.0819501133787	88	127
239.89619047619047	240.0819501133787	64	127
240.14	240.34897959183672	86	127
240.14	240.34897959183672	74	127
240.14	240.34897959183672	62	127
240.4186394557823	240.59278911564627	88	127
240.4186394557823	240.59278911564627	76	127
240.4186394557823	240.59278911564627	64	127
240.65083900226756	241.0571882086168	84	127
240.65083900226756	241.0571882086168	72	127
240.65083900226756	241.0571882086168	60	127
241.16167800453513	241.5215873015873	71	127
241.16167800453513	241.5215873015873	83	127
241.16167800453513	241.5215873015873	59	127
241.62607709750566	242.28784580498865	60	127
241.62607709750566	241.77700680272108	81	127
241.62607709750566	241.77700680272108	69	127
241.62607709750566	242.28784580498865	72	127
241.8350566893424	241.99759637188208	65	127
241.8350566893424	241.99759637188208	77	127
242.04403628117913	242.3691156462585	64	127
242.04403628117913	242.3691156462585	76	127
242.47360544217688	242.85673469387754	72	127
242.47360544217688	242.85673469387754	76	127
242.47360544217688	242.85673469387754	64	127
242.47360544217688	242.85673469387754	60	127
242.98444444444445	243.18181405895692	83	127
242.98444444444445	243.18181405895692	71	127
242.98444444444445	243.79714285714286	74	127
242.98444444444445	243.79714285714286	62	127
243.2514739229025	243.46045351473924	65	127
243.2514739229025	243.46045351473924	77	127
243.5068934240363	243.86680272108845	64	127
243.5068934240363	243.86680272108845	76	127
243.95968253968255	244.33120181405894	74	127
243.95968253968255	244.33120181405894	76	127
243.95968253968255	244.33120181405894	62	127
243.95968253968255	244.33120181405894	64	127
244.42408163265307	245.08585034013606	60	127
244.42408163265307	244.58662131519273	81	127
244.42408163265307	244.58662131519273	69	127
244.42408163265307	245.08585034013606	72	127
244.64467120181405	244.77238095238096	65	127
244.64467120181405	244.77238095238096	77	127
244.818820861678	245.19034013605443	76	127
244.818820861678	245.19034013605443	64	127
245.27160997732426	245.64312925170069	76	127
245.27160997732426	245.64312925170069	72	127
245.27160997732426	245.64312925170069	64	127
245.27160997732426	245.64312925170069	60	127
245.73600907029478	245.9565986394558	86	127
245.73600907029478	245.9565986394558	74	127
245.73600907029478	246.50226757369614	65	127
246.00303854875284	246.2004081632653	80	127
246.00303854875284	246.2004081632653	68	127
246.24684807256236	246.6067573696145	74	127
246.24684807256236	246.6067573696145	67	127
246.24684807256236	246.6067573696145	79	127
246.6996371882086	247.09437641723355	79	127
246.6996371882086	247.09437641723355	74	127
246.6996371882086	247.09437641723355	65	127
246.6996371882086	247.09437641723355	67	127
247.19886621315192	247.8606349206349	64	127
247.19886621315192	247.37301587301587	84	127
247.19886621315192	247.37301587301587	72	127
247.19886621315192	247.8606349206349	76	127
247.40784580498865	247.55877551020407	69	127
247.40784580498865	247.55877551020407	81	127
247.6168253968254	247.96512471655328	79	127
247.6168253968254	247.96512471655328	67	127
248.06961451247165	248.4063038548753	76	127
248.06961451247165	248.4063038548753	79	127
248.06961451247165	248.4063038548753	64	127
248.06961451247165	248.4063038548753	67	127
248.4991836734694	248.6849433106576	76	127
248.4991836734694	248.6849433106576	88	127
248.4991836734694	248.89392290249432	79	127
248.4991836734694	248.89392290249432	67	127
248.73138321995464	248.94036281179137	83	127
248.73138321995464	248.94036281179137	71	127
248.9984126984127	249.35832199546485	69	127
248.9984126984127	249.35832199546485	72	127
248.9984126984127	249.35832199546485	84	127
248.9984126984127	249.35832199546485	81	127
249.45120181405895	249.75306122448978	79	127
249.45120181405895	249.75306122448978	83	127
249.45120181405895	249.75306122448978	67	127
249.45120181405895	249.75306122448978	71	127
249.85755102040815	250.0317006802721	83	127
249.85755102040815	250.0317006802721	71	127
249.85755102040815	250.22907029478458	74	127
249.85755102040815	250.22907029478458	62	127
250.07814058956916	250.2871201814059	66	127
250.07814058956916	250.2871201814059	78	127
250.33356009070295	250.64702947845805	79	127
250.33356009070295	250.64702947845805	76	127
250.33356009070295	250.64702947845805	64	127
250.33356009070295	250.64702947845805	67	127
250.7631292517007	251.12303854875285	74	127
250.7631292517007	251.12303854875285	78	127
250.7631292517007	251.12303854875285	62	127
250.7631292517007	251.12303854875285	66	127
251.21591836734694	251.56421768707483	66	127
251.21591836734694	251.56421768707483	60	127
251.21591836734694	251.56421768707483	72	127
251.21591836734694	251.56421768707483	78	127
251.64548752834466	252.05183673469386	71	127
251.64548752834466	252.05183673469386	59	127
251.64548752834466	252.05183673469386	67	127
251.64548752834466	252.05183673469386	79	127
252.15632653061223	252.5742857142857	74	127
252.15632653061223	252.5742857142857	69	127
252.15632653061223	252.5742857142857	53	127
252.15632653061223	252.5742857142857	57	127
252.15632653061223	252.5742857142857	62	127
252.6671655328798	253.10834467120182	57	127
252.6671655328798	253.10834467120182	69	127
252.6671655328798	253.10834467120182	72	127
252.6671655328798	253.10834467120182	60	127
252.6671655328798	253.43342403628117	76	127
252.6671655328798	253.43342403628117	52	127
253.17800453514738	253.53791383219954	71	127
253.17800453514738	253.53791383219954	59	127
253.17800453514738	253.53791383219954	56	127
253.17800453514738	253.53791383219954	68	127
254.13002267573697	254.5015419501134	72	127
254.13002267573697	254.5015419501134	66	127
254.13002267573697	254.5015419501134	78	127
254.13002267573697	254.5015419501134	60	127
254.5944217687075	254.98916099773243	79	127
254.5944217687075	254.98916099773243	71	127
254.5944217687075	254.98916099773243	67	127
254.5944217687075	254.98916099773243	59	127
255.10526077097506	255.5	69	127
255.10526077097506	255.5	74	127
255.10526077097506	255.5	62	127
255.10526077097506	255.5	57	127
255.10526077097506	255.5	53	127
255.6277097505669	255.98761904761903	69	127
255.6277097505669	255.98761904761903	72	127
255.6277097505669	255.98761904761903	60	127
255.6277097505669	255.98761904761903	57	127
255.6277097505669	256.42879818594105	76	127
255.6277097505669	256.42879818594105	52	127
256.11532879818594	256.5100680272109	71	127
256.11532879818594	256.5100680272109	68	127
256.11532879818594	256.5100680272109	59	127
256.11532879818594	256.5100680272109	56	127
256.602947845805	257.0092970521542	62	127
256.602947845805	257.0092970521542	53	127
256.602947845805	257.0092970521542	57	127
257.1370068027211	257.5897959183674	60	127
257.1370068027211	257.5897959183674	57	127
257.1370068027211	258.01936507936506	64	127
257.1370068027211	258.01936507936506	52	127
257.6710657596372	258.1122222222222	59	127
257.6710657596372	258.1122222222222	56	127
258.2167120181406	258.634693877551	62	127
258.2167120181406	258.634693877551	57	127
258.2167120181406	258.634693877551	53	127
258.73918367346937	259.7724716553288	64	127
258.73918367346937	259.31968253968256	60	127
258.73918367346937	259.31968253968256	57	127
258.73918367346937	259.7724716553288	52	127
259.41256235827666	259.92340136054423	56	127
259.41256235827666	259.92340136054423	59	127
261.82743764172335	262.210566893424	64	127
261.82743764172335	262.210566893424	40	127
261.82743764172335	262.210566893424	52	127
262.3150566893424	262.7214058956916	33	127
262.3150566893424	262.7214058956916	45	127
262.3150566893424	262.8839455782313	60	127
262.3150566893424	262.8839455782313	64	127
262.3150566893424	262.8839455782313	69	127
263.0348752834467	263.2090249433107	71	127
263.26707482993197	263.6153741496599	57	127
263.26707482993197	263.6153741496599	45	127
263.26707482993197	263.4295918367347	72	127
263.26707482993197	263.4295918367347	64	127
263.46444444444444	263.6618140589569	69	127
263.71986394557825	264.0797732426304	64	127
263.71986394557825	264.0797732426304	68	127
263.71986394557825	264.0797732426304	52	127
263.71986394557825	264.0797732426304	40	127
264.18426303854875	264.54417233560093	76	127
264.6486621315193	265.0201814058957	64	127
264.6486621315193	265.0201814058957	76	127
264.6486621315193	265.0201814058957	68	127
264.6486621315193	265.0201814058957	52	127
264.6486621315193	265.0201814058957	59	127
265.1014512471655	265.4381405895692	45	127
265.1014512471655	265.4381405895692	33	127
265.1014512471655	265.57743764172335	60	127
265.1014512471655	265.57743764172335	64	127
265.1014512471655	265.57743764172335	69	127
265.72839002267574	265.8909297052154	71	127
265.9373696145125	266.13473922902494	72	127
265.9373696145125	266.13473922902494	64	127
265.9373696145125	266.32049886621314	45	127
265.9373696145125	266.32049886621314	57	127
266.1927664399093	266.3785487528345	69	127
266.4249886621315	266.7732879818594	65	127
266.4249886621315	266.7732879818594	43	127
266.4249886621315	266.7732879818594	31	127
266.4249886621315	266.7732879818594	71	127
266.8661678004535	267.2492970521542	77	127
267.3421768707483	267.76013605442176	77	127
267.3421768707483	267.76013605442176	71	127
267.3421768707483	267.76013605442176	65	127
267.3421768707483	267.76013605442176	43	127
267.3421768707483	267.76013605442176	50	127
267.85301587301586	268.1897052154195	36	127
267.85301587301586	268.1897052154195	48	127
267.85301587301586	268.3754648526077	67	127
267.85301587301586	268.3754648526077	72	127
267.85301587301586	268.3754648526077	64	127
268.52639455782315	268.71215419501135	74	127
268.7585941043084	268.9095238095238	67	127
268.7585941043084	268.9095238095238	72	127
268.7585941043084	268.9095238095238	76	127
268.7585941043084	269.095283446712	60	127
268.7585941043084	269.095283446712	48	127
268.9559410430839	269.15331065759636	79	127
269.1997732426304	269.58290249433105	71	127
269.1997732426304	269.58290249433105	67	127
269.1997732426304	269.58290249433105	52	127
269.1997732426304	269.58290249433105	40	127
269.1997732426304	269.75705215419504	79	127
269.6873922902494	269.84993197278914	72	127
269.6873922902494	269.84993197278914	69	127
269.6873922902494	270.0589115646259	45	127
269.6873922902494	270.0589115646259	57	127
269.89637188208616	270.1053514739229	78	127
270.16340136054424	270.33755102040817	79	127
270.16340136054424	270.33755102040817	71	127
270.16340136054424	270.33755102040817	67	127
270.16340136054424	270.52331065759637	52	127
270.16340136054424	270.52331065759637	40	127
270.38396825396825	270.56975056689345	76	127
270.62780045351474	271.03414965986394	35	127
270.62780045351474	271.03414965986394	62	127
270.62780045351474	271.03414965986394	66	127
270.62780045351474	271.03414965986394	47	127
270.62780045351474	271.16185941043085	74	127
271.0921768707483	271.2431292517007	67	127
271.0921768707483	271.2431292517007	64	127
271.0921768707483	271.4288888888889	52	127
271.0921768707483	271.4288888888889	40	127
271.2663492063492	271.47532879818596	72	127
271.521768707483	271.6843083900227	66	127
271.521768707483	271.6843083900227	62	127
271.521768707483	271.6843083900227	74	127
271.521768707483	271.88167800453516	47	127
271.521768707483	271.88167800453516	35	127
271.7307482993197	271.93972789115645	71	127
271.97455782312926	272.183537414966	69	127
271.97455782312926	272.3692970521542	66	127
271.97455782312926	272.3692970521542	60	127
271.97455782312926	272.3692970521542	38	127
271.97455782312926	272.3692970521542	50	127
272.229977324263	272.42732426303854	71	127
272.47378684807256	272.83367346938775	59	127
272.47378684807256	272.83367346938775	62	127
272.47378684807256	272.83367346938775	67	127
272.47378684807256	272.83367346938775	43	127
272.92657596371885	273.286485260771	57	127
272.92657596371885	273.286485260771	62	127
272.92657596371885	273.286485260771	65	127
272.92657596371885	273.286485260771	50	127
273.39097505668934	273.79732426303855	57	127
273.39097505668934	274.1340136054422	64	127
273.39097505668934	274.1340136054422	52	127
273.8669841269841	274.23850340136056	56	127
274.33138321995466	274.55197278911567	72	127
274.33138321995466	274.55197278911567	64	127
274.33138321995466	274.73773242630386	36	127
274.61002267573696	274.78414965986394	71	127
274.61002267573696	274.78414965986394	62	127
274.8190022675737	275.02798185941043	69	127
274.8190022675737	275.2253514739229	60	127
274.8190022675737	275.2253514739229	38	127
275.0744217687075	275.2601814058957	71	127
275.30662131519273	275.68975056689345	62	127
275.30662131519273	275.68975056689345	59	127
275.30662131519273	275.68975056689345	67	127
275.30662131519273	275.68975056689345	43	127
275.78263038548755	276.1657596371882	62	127
275.78263038548755	276.1657596371882	57	127
275.78263038548755	276.1657596371882	65	127
275.78263038548755	276.1657596371882	50	127
276.2702494331066	276.6649886621315	57	127
276.2702494331066	277.05972789115646	64	127
276.2702494331066	277.05972789115646	52	127
276.7578684807256	277.1642176870748	56	127
277.2687074829932	277.4544671201814	65	127
277.2687074829932	277.65183673469386	57	127
277.2687074829932	277.65183673469386	38	127
277.50090702947847	277.69827664399094	64	127
277.7679365079365	278.19750566893424	57	127
277.7679365079365	278.6154648526077	64	127
277.7679365079365	278.6154648526077	40	127
278.3019954648526	278.7083446712018	56	127
278.8128344671202	279.0334240362812	65	127
278.8128344671202	279.2424036281179	57	127
278.8128344671202	279.2424036281179	38	127
279.0798639455782	279.335283446712	64	127
279.3933333333333	279.95061224489797	57	127
279.3933333333333	280.4846712018141	64	127
279.3933333333333	280.4846712018141	40	127
280.13637188208617	280.9142176870748	56	127
281.0187074829932	281.2044897959184	77	127
281.0187074829932	281.2044897959184	89	127
281.0187074829932	281.2044897959184	65	127
281.2625396825397	281.45990929705215	88	127
281.2625396825397	281.45990929705215	76	127
281.2625396825397	281.45990929705215	64	127
281.5179591836735	281.7037188208617	74	127
281.5179591836735	281.7037188208617	86	127
281.5179591836735	281.7037188208617	62	127
281.761768707483	281.9243083900227	76	127
281.761768707483	281.9243083900227	88	127
281.761768707483	281.9243083900227	64	127
281.9707482993197	282.3538775510204	73	127
281.9707482993197	282.3538775510204	85	127
281.9707482993197	282.3538775510204	61	127
282.45836734693876	282.8879365079365	71	127
282.45836734693876	282.8879365079365	83	127
282.45836734693876	282.8879365079365	59	127
282.9575736961451	283.66580498866216	73	127
282.9575736961451	283.1433560090703	81	127
282.9575736961451	283.1433560090703	69	127
282.9575736961451	283.66580498866216	61	127
283.2130158730159	283.4219954648526	77	127
283.2130158730159	283.4219954648526	65	127
283.4568253968254	283.75868480725626	76	127
283.4568253968254	283.75868480725626	64	127
283.8283446712018	284.17664399092973	61	127
283.8283446712018	284.17664399092973	73	127
283.8283446712018	284.17664399092973	76	127
283.8283446712018	284.17664399092973	64	127
284.26952380952383	284.44367346938776	81	127
284.26952380952383	284.44367346938776	69	127
284.26952380952383	285.0125623582766	72	127
284.26952380952383	285.0125623582766	60	127
284.45528344671203	284.6526530612245	63	127
284.45528344671203	284.6526530612245	75	127
284.7107029478458	285.117052154195	74	127
284.7107029478458	285.117052154195	62	127
285.20990929705215	285.58145124716555	72	127
285.20990929705215	285.58145124716555	74	127
285.20990929705215	285.58145124716555	60	127
285.20990929705215	285.58145124716555	62	127
285.6859410430839	285.86009070294784	80	127
285.6859410430839	285.86009070294784	68	127
285.6859410430839	286.3244671201814	71	127
285.6859410430839	286.3244671201814	59	127
285.9065306122449	286.08068027210885	75	127
285.9065306122449	286.08068027210885	63	127
286.13873015873014	286.4057596371882	74	127
286.13873015873014	286.4057596371882	62	127
286.4986394557823	286.89337868480726	74	127
286.4986394557823	286.89337868480726	71	127
286.4986394557823	286.89337868480726	59	127
286.4986394557823	286.89337868480726	62	127
287.0094784580499	287.1952380952381	55	127
287.0094784580499	287.1952380952381	79	127
287.0094784580499	287.7409070294785	67	127
287.2416780045352	287.4274376417234	62	127
287.2416780045352	287.4274376417234	74	127
287.48548752834466	287.8337868480726	72	127
287.48548752834466	287.8337868480726	60	127
287.93827664399095	288.3214058956916	67	127
287.93827664399095	288.3214058956916	72	127
287.93827664399095	288.3214058956916	55	127
287.93827664399095	288.3214058956916	60	127
288.42589569161	288.58843537414964	79	127
288.42589569161	288.58843537414964	55	127
288.42589569161	289.13410430839	67	127
288.6348752834467	288.7974149659864	62	127
288.6348752834467	288.7974149659864	74	127
288.8322448979592	289.2385941043084	72	127
288.8322448979592	289.2385941043084	60	127
289.3198639455782	289.62172335600906	67	127
289.3198639455782	289.62172335600906	72	127
289.3198639455782	289.62172335600906	55	127
289.3198639455782	289.62172335600906	60	127
289.6797732426304	289.88875283446714	55	127
289.6797732426304	289.88875283446714	79	127
289.6797732426304	290.42278911564625	67	127
289.93519274376416	290.13256235827663	60	127
289.93519274376416	290.13256235827663	72	127
290.1790022675737	290.4924716553288	71	127
290.1790022675737	290.4924716553288	59	127
290.5853514739229	290.9568707482993	67	127
290.5853514739229	290.9568707482993	71	127
290.5853514739229	290.9568707482993	55	127
290.5853514739229	290.9568707482993	59	127
291.0497505668934	291.2471201814059	79	127
291.0497505668934	291.2471201814059	55	127
291.0497505668934	291.7115192743764	67	127
291.29356009070295	291.47931972789115	74	127
291.29356009070295	291.47931972789115	62	127
291.5025396825397	291.8160090702948	72	127
291.5025396825397	291.8160090702948	60	127
291.92049886621317	292.2571655328798	67	127
291.92049886621317	292.2571655328798	72	127
291.92049886621317	292.2571655328798	55	127
291.92049886621317	292.2571655328798	60	127
292.3500680272109	292.5358276643991	79	127
292.3500680272109	293.19759637188207	67	127
292.3500680272109	292.5358276643991	55	127
292.58226757369613	292.8144671201814	60	127
292.58226757369613	292.8144671201814	72	127
292.89573696145123	293.29047619047617	71	127
292.89573696145123	293.29047619047617	59	127
293.37174603174606	293.80131519274374	59	127
293.37174603174606	293.80131519274374	67	127
293.37174603174606	293.80131519274374	71	127
293.37174603174606	293.80131519274374	55	127
293.9174149659864	294.55596371882086	72	127
293.9174149659864	294.1380045351474	36	127
293.9174149659864	293.987074829932	75	127
293.99866213151927	294.05673469387756	77	127
294.0683446712018	294.6372335600907	75	127
294.18444444444447	294.4050113378685	43	127
294.46308390022676	294.6372335600907	48	127
294.68367346938777	294.8578231292517	71	127
294.68367346938777	294.8578231292517	74	127
294.68367346938777	294.8578231292517	51	127
294.9042630385488	295.2641723356009	72	127
294.9042630385488	295.0784126984127	55	127
294.9042630385488	295.2641723356009	75	127
295.1248299319728	295.310612244898	48	127
295.3338095238095	295.531179138322	57	127
295.3338095238095	295.7169614512472	74	127
295.3338095238095	295.7169614512472	69	127
295.5892517006803	295.7634013605442	48	127
295.8098412698413	296.018820861678	59	127
295.8098412698413	296.22780045351476	67	127
296.0768707482993	296.2742403628118	48	127
296.32068027210886	296.44836734693877	60	127
296.32068027210886	296.6109297052154	67	127
296.4948299319728	296.6573469387755	48	127
296.7038095238095	296.87795918367345	36	127
296.7038095238095	297.41201814058957	67	127
296.92439909297053	297.0753287981859	43	127
297.121768707483	297.31913832199547	48	127
297.36557823129255	297.51650793650794	51	127
297.562947845805	297.67902494331065	55	127
297.562947845805	297.86480725623585	72	127
297.562947845805	297.86480725623585	79	127
297.7254875283447	297.91124716553287	48	127
297.95768707482995	298.7007029478458	74	127
297.95768707482995	298.1666666666667	57	127
297.95768707482995	298.32920634920634	78	127
298.2131065759637	298.36403628117915	48	127
298.42208616780044	298.60784580498864	59	127
298.42208616780044	298.7587755102041	77	127
298.6542857142857	298.7936054421769	48	127
298.8400453514739	299.04902494331066	60	127
298.8400453514739	299.2580045351474	76	127
298.8400453514739	299.2580045351474	72	127
299.09546485260773	299.30444444444447	48	127
299.36249433106576	299.55986394557823	36	127
299.36249433106576	299.40893424036284	76	127
299.36249433106576	299.9313605442177	72	127
299.4205215419501	299.46698412698413	77	127
299.4785941043084	300.0242403628118	76	127
299.6063038548753	299.76884353741497	43	127
299.8268707482993	300.0242403628118	48	127
300.04748299319726	300.210022675737	71	127
300.04748299319726	300.210022675737	74	127
300.04748299319726	300.210022675737	55	127
300.256462585034	300.6163718820862	76	127
300.256462585034	300.4190022675737	60	127
300.256462585034	300.6163718820862	72	127
300.46544217687074	300.6744217687075	48	127
300.7092517006803	300.87179138321994	62	127
300.7092517006803	300.99950113378685	79	127
300.7092517006803	300.99950113378685	67	127
300.90662131519275	301.03433106575966	48	127
301.0691609977324	301.27814058956915	64	127
301.0691609977324	301.4174603174603	70	127
301.0691609977324	301.4174603174603	72	127
301.31297052154196	301.4638775510204	48	127
301.49873015873015	301.6728798185941	65	127
301.49873015873015	301.84702947845807	69	127
301.49873015873015	301.84702947845807	72	127
301.73092970521543	301.90507936507936	53	127
301.9631292517007	302.6945351473923	68	127
301.9631292517007	302.1488888888889	41	127
301.9631292517007	302.6945351473923	72	127
302.2069387755102	302.3926984126984	48	127
302.4275283446712	302.6132879818594	53	127
302.6597278911565	302.8338775510204	56	127
302.8803174603175	303.0660770975057	60	127
302.8803174603175	303.3098866213152	84	127
302.8803174603175	303.3098866213152	72	127
303.13573696145124	303.35632653061225	53	127
303.4027437641723	303.61172335600907	82	127
303.4027437641723	303.61172335600907	62	127
303.6581859410431	303.8671655328798	80	127
303.6581859410431	303.8671655328798	53	127
303.90199546485263	304.08775510204083	79	127
303.90199546485263	304.08775510204083	64	127
304.12256235827664	304.3199319727891	53	127
304.12256235827664	304.3199319727891	80	127
304.35478458049886	304.5521541950113	65	127
304.35478458049886	304.5521541950113	77	127
304.5985941043084	304.9120634920635	74	127
304.5985941043084	304.9120634920635	53	127
304.9701133786848	305.5622222222222	64	127
304.9701133786848	305.02816326530615	72	127
304.9701133786848	305.1907029478458	43	127
305.0397505668934	305.08621315192744	74	127
305.0978231292517	305.6667120181406	72	127
305.2371428571429	305.4229024943311	48	127
305.4693424036281	305.6667120181406	52	127
305.7247619047619	305.84086167800456	62	127
305.7247619047619	305.84086167800456	71	127
305.7247619047619	305.84086167800456	55	127
305.89891156462585	306.0730612244898	60	127
305.89891156462585	306.2704081632653	72	127
305.89891156462585	306.2704081632653	64	127
306.1311111111111	306.3168707482993	64	127
306.3632879818594	306.5142403628118	67	127
306.3632879818594	307.03668934240363	74	127
306.3632879818594	307.03668934240363	71	127
306.56068027210887	306.7348299319728	62	127
306.7928798185941	306.93219954648526	59	127
306.97861678004534	307.1875963718821	55	127
307.24566893424037	307.4662585034014	61	127
307.24566893424037	307.66362811791385	67	127
307.24566893424037	307.66362811791385	76	127
307.5126984126984	307.72167800453514	52	127
307.7681179138322	308.25573696145125	74	127
307.7681179138322	307.81455782312923	77	127
307.7681179138322	307.9654875283447	38	127
307.7681179138322	308.25573696145125	69	127
307.8261678004535	307.8958276643991	79	127
307.9074149659864	308.3253968253968	77	127
308.0002947845805	308.11641723356007	41	127
308.1512471655329	308.3253968253968	45	127
308.3718367346939	308.5575963718821	76	127
308.3718367346939	308.5575963718821	67	127
308.3718367346939	308.5575963718821	73	127
308.3718367346939	308.5575963718821	50	127
308.60403628117916	308.92909297052154	77	127
308.60403628117916	308.78979591836736	53	127
308.60403628117916	308.92909297052154	74	127
308.60403628117916	308.92909297052154	69	127
308.8362358276644	308.97555555555556	57	127
309.02197278911564	309.1845351473923	60	127
309.02197278911564	309.8230839002268	76	127
309.02197278911564	309.8230839002268	79	127
309.02197278911564	309.8230839002268	70	127
309.25419501133786	309.4631746031746	55	127
309.52122448979594	309.7302040816327	52	127
309.7766439909297	309.97401360544217	48	127
310.02045351473924	310.20621315192744	54	127
310.02045351473924	310.42680272108845	81	127
310.02045351473924	310.42680272108845	72	127
310.26426303854873	310.47324263038547	45	127
310.5080725623583	310.70544217687075	43	127
310.5080725623583	310.55448979591836	82	127
310.5080725623583	311.2162811791383	74	127
310.5660997732426	310.6009523809524	84	127
310.6241723356009	311.11179138321995	82	127
310.7518820861678	310.9028117913832	50	127
310.9492517006803	311.11179138321995	55	127
311.15823129251703	311.36721088435377	58	127
311.15823129251703	311.36721088435377	81	127
311.4136507936508	311.78514739229024	82	127
311.4136507936508	311.61102040816326	62	127
311.4136507936508	311.78514739229024	74	127
311.64585034013606	311.83160997732426	50	127
311.87804988662134	312.21473922902493	86	127
311.87804988662134	312.02897959183673	41	127
311.87804988662134	312.51659863945576	74	127
312.0754195011338	312.261179138322	50	127
312.2959863945578	312.43532879818594	53	127
312.2959863945578	312.59786848072565	81	127
312.481768707483	312.6443083900227	57	127
312.69074829931975	312.87650793650795	62	127
312.69074829931975	313.0506575963719	81	127
312.69074829931975	313.0506575963719	74	127
312.92294784580497	313.09709750566896	50	127
313.15514739229025	313.805306122449	74	127
313.15514739229025	313.2015873015873	80	127
313.15514739229025	313.3525170068027	40	127
313.2131746031746	313.2596371882086	81	127
313.2712471655329	313.72401360544217	80	127
313.37573696145125	313.50344671201816	50	127
313.56149659863945	313.72401360544217	52	127
313.7588662131519	313.9794557823129	78	127
313.7588662131519	313.9794557823129	59	127
314.02589569161	314.22326530612247	62	127
314.02589569161	314.3974149659864	80	127
314.02589569161	314.3974149659864	74	127
314.2580952380952	314.4554648526077	50	127
314.4902947845805	314.8385941043084	86	127
314.4902947845805	314.6644444444444	42	127
314.4902947845805	315.23333333333335	74	127
314.69927437641724	314.8966439909297	50	127
314.9430839002268	315.1520634920635	54	127
314.9430839002268	315.3029931972789	81	127
315.18689342403627	315.36102040816326	57	127
315.4074829931973	315.60485260770974	62	127
315.4074829931973	315.79061224489794	81	127
315.4074829931973	315.79061224489794	74	127
315.67448979591836	315.8486621315193	50	127
315.8951020408163	316.59167800453514	74	127
315.8951020408163	315.9299319727891	82	127
315.8951020408163	316.057641723356	43	127
315.9299319727891	315.9879818594104	84	127
315.9995918367347	316.08083900226757	82	127
316.1156916099773	316.27823129251703	50	127
316.1156916099773	316.27823129251703	81	127
316.3130612244898	316.498820861678	55	127
316.3130612244898	316.498820861678	82	127
316.54526077097506	316.719410430839	58	127
316.54526077097506	316.719410430839	86	127
316.76585034013607	316.9283900226757	81	127
316.76585034013607	316.9283900226757	62	127
316.76585034013607	317.1025170068027	74	127
316.9864399092971	317.13736961451247	50	127
316.9864399092971	317.13736961451247	86	127
317.18380952380954	317.23024943310656	80	127
317.18380952380954	317.8804081632653	74	127
317.18380952380954	317.3927891156463	40	127
317.24185941043083	317.2882993197279	81	127
317.2999092970522	317.40437641723355	80	127
317.42761904761903	317.6133560090703	50	127
317.42761904761903	317.6133560090703	78	127
317.64820861678004	317.81074829931976	80	127
317.64820861678004	317.81074829931976	52	127
317.83396825396824	318.0313378684807	86	127
317.83396825396824	318.0313378684807	59	127
318.0661678004535	318.22868480725623	81	127
318.0661678004535	318.22868480725623	62	127
318.0661678004535	318.4260770975057	74	127
318.27514739229025	318.4725170068027	86	127
318.27514739229025	318.4725170068027	50	127
318.53054421768707	318.6931065759637	82	127
318.53054421768707	318.6931065759637	55	127
318.53054421768707	318.6931065759637	58	127
318.53054421768707	318.8788662131519	74	127
318.72793650793653	318.8788662131519	86	127
318.72793650793653	318.8788662131519	62	127
318.93691609977327	319.02979591836737	57	127
318.93691609977327	319.02979591836737	81	127
318.93691609977327	319.02979591836737	53	127
318.93691609977327	319.21555555555557	74	127
319.0762358276644	319.2619954648526	62	127
319.0762358276644	319.2619954648526	86	127
319.32004535147394	319.50580498866213	80	127
319.32004535147394	319.50580498866213	56	127
319.32004535147394	319.50580498866213	52	127
319.32004535147394	319.6683446712018	74	127
319.5522222222222	319.7147845804989	86	127
319.5522222222222	319.7147845804989	62	127
319.77283446712016	319.94698412698415	82	127
319.77283446712016	319.94698412698415	55	127
319.77283446712016	319.94698412698415	58	127
319.77283446712016	320.08630385487527	74	127
319.9701814058957	320.13274376417235	86	127
319.9701814058957	320.13274376417235	62	127
320.17918367346937	320.3417233560091	81	127
320.17918367346937	320.3417233560091	53	127
320.17918367346937	320.3417233560091	57	127
320.17918367346937	320.5507029478458	74	127
320.3881632653061	320.59714285714284	86	127
320.3881632653061	320.59714285714284	62	127
320.6551927437642	320.88736961451247	80	127
320.6551927437642	320.88736961451247	56	127
320.6551927437642	320.88736961451247	52	127
320.6551927437642	321.1079818594104	74	127
320.9222222222222	321.1544217687075	86	127
320.9222222222222	321.1544217687075	62	127
321.2008616780045	321.4330612244898	74	127
321.2008616780045	321.4330612244898	80	127
321.2008616780045	321.4330612244898	56	127
321.2008616780045	321.4330612244898	52	127
321.47950113378687	321.6884807256236	88	127
321.47950113378687	321.6884807256236	76	127
321.47950113378687	321.6884807256236	64	127
321.7349206349206	321.9322902494331	86	127
321.7349206349206	321.9322902494331	74	127
321.7349206349206	321.9322902494331	62	127
321.95551020408163	322.11802721088435	88	127
321.95551020408163	322.11802721088435	76	127
321.95551020408163	322.11802721088435	64	127
322.16448979591837	322.3386394557823	74	127
322.16448979591837	322.3386394557823	86	127
322.16448979591837	322.3386394557823	62	127
322.39668934240365	322.6288662131519	88	127
322.39668934240365	322.6288662131519	76	127
322.39668934240365	322.6288662131519	64	127
322.6637188208617	322.8262358276644	74	127
322.6637188208617	322.8262358276644	86	127
322.6637188208617	322.8262358276644	62	127
322.8726984126984	323.0700680272109	88	127
322.8726984126984	323.0700680272109	76	127
322.8726984126984	323.0700680272109	64	127
323.11650793650796	323.4764172335601	72	127
323.11650793650796	323.4764172335601	60	127
323.11650793650796	323.4764172335601	84	127
323.5576870748299	323.94081632653064	59	127
323.5576870748299	323.94081632653064	83	127
323.5576870748299	323.94081632653064	71	127
324.045306122449	324.2310657596372	81	127
324.045306122449	324.2310657596372	69	127
324.045306122449	324.40521541950113	57	127
324.2775056689342	324.4516553287982	74	127
324.2775056689342	324.4516553287982	77	127
324.49809523809523	324.70707482993197	72	127
324.49809523809523	324.70707482993197	76	127
324.75351473922905	324.89283446712017	62	127
324.75351473922905	324.89283446712017	65	127
324.93927437641725	325.1018140589569	72	127
324.93927437641725	325.1018140589569	76	127
324.93927437641725	325.1018140589569	64	127
324.93927437641725	325.1018140589569	60	127
325.148253968254	325.3224036281179	57	127
325.3572335600907	325.5197732426304	71	127
325.3572335600907	325.5197732426304	83	127
325.3572335600907	325.6823129251701	56	127
325.5429931972789	325.7287528344671	77	127
325.5429931972789	325.7287528344671	74	127
325.78680272108846	325.9957596371882	71	127
325.78680272108846	325.9957596371882	76	127
326.0422222222222	326.21637188208615	62	127
326.0422222222222	326.21637188208615	65	127
326.2744217687075	326.4485714285714	71	127
326.2744217687075	326.4485714285714	76	127
326.2744217687075	326.4485714285714	64	127
326.2744217687075	326.4485714285714	59	127
326.4950113378685	326.66916099773243	56	127
326.7272108843537	326.9013605442177	81	127
326.7272108843537	326.9013605442177	69	127
326.7272108843537	327.06390022675737	57	127
326.93619047619046	327.11034013605445	74	127
326.93619047619046	327.11034013605445	77	127
327.15678004535147	327.3077097505669	72	127
327.15678004535147	327.3077097505669	76	127
327.35414965986394	327.53990929705213	62	127
327.35414965986394	327.53990929705213	65	127
327.5979591836735	327.7140589569161	72	127
327.5979591836735	327.7140589569161	76	127
327.5979591836735	327.7140589569161	64	127
327.5979591836735	327.7140589569161	60	127
327.76049886621314	327.9694784580499	57	127
328.0275283446712	328.20167800453515	86	127
328.0275283446712	328.20167800453515	74	127
328.0275283446712	328.4106575963719	59	127
328.24809523809523	328.4687074829932	77	127
328.24809523809523	328.4687074829932	80	127
328.4919274376417	328.6892970521542	79	127
328.4919274376417	328.6892970521542	74	127
328.73573696145127	328.88666666666666	68	127
328.73573696145127	328.88666666666666	65	127
328.93310657596373	329.0956462585034	74	127
328.93310657596373	329.0956462585034	79	127
328.93310657596373	329.0956462585034	67	127
328.93310657596373	329.0956462585034	62	127
329.15369614512474	329.32784580498867	59	127
329.37426303854875	329.5484353741497	88	127
329.37426303854875	329.5484353741497	76	127
329.37426303854875	329.69936507936507	60	127
329.5948752834467	329.74580498866214	81	127
329.79224489795916	329.96639455782315	76	127
329.79224489795916	329.96639455782315	79	127
330.02444444444444	330.1637641723356	69	127
330.21020408163264	330.3959410430839	76	127
330.21020408163264	330.3959410430839	79	127
330.21020408163264	330.3959410430839	64	127
330.21020408163264	330.3959410430839	67	127
330.4540136054422	330.6397732426304	60	127
330.68621315192746	330.8487528344671	88	127
330.68621315192746	330.8487528344671	76	127
330.68621315192746	331.0345124716553	58	127
330.88358276643993	331.0809523809524	81	127
331.1157596371882	331.3015419501134	79	127
331.1157596371882	331.3015419501134	76	127
331.3479818594104	331.47569160997733	69	127
331.5221088435374	331.69628117913834	79	127
331.5221088435374	331.69628117913834	76	127
331.5221088435374	331.69628117913834	64	127
331.5221088435374	331.69628117913834	67	127
331.7311111111111	331.91687074829935	58	127
331.96331065759637	332.16068027210883	88	127
331.96331065759637	332.16068027210883	76	127
331.96331065759637	332.3580498866213	57	127
332.2071201814059	332.3928798185941	81	127
332.4392970521542	332.60185941043085	76	127
332.4392970521542	332.60185941043085	79	127
332.6482766439909	332.7760090702948	69	127
332.8340589569161	332.9269387755102	64	127
332.8340589569161	332.9269387755102	76	127
332.8340589569161	332.9269387755102	79	127
332.8340589569161	332.9269387755102	67	127
332.961768707483	333.13591836734696	57	127
333.19396825396825	333.55387755102043	50	127
333.4261678004535	333.60031746031746	77	127
333.4261678004535	333.60031746031746	81	127
333.4261678004535	333.60031746031746	69	127
333.6583673469388	334.00666666666666	52	127
333.890566893424	334.05310657596374	76	127
333.890566893424	334.05310657596374	69	127
333.890566893424	334.05310657596374	72	127
334.11115646258503	334.4942857142857	64	127
334.3433560090703	334.55233560090704	76	127
334.3433560090703	334.55233560090704	71	127
334.3433560090703	334.55233560090704	68	127
334.59877551020406	335.01673469387754	65	127
334.59877551020406	335.01673469387754	62	127
334.59877551020406	335.4114739229025	57	127
334.86580498866215	335.08639455782316	77	127
334.86580498866215	335.08639455782316	74	127
334.86580498866215	335.08639455782316	69	127
335.1328344671202	335.51596371882084	64	127
335.1328344671202	335.51596371882084	61	127
335.1328344671202	335.3185941043084	81	127
335.36503401360545	335.5740136054422	73	127
335.36503401360545	335.5740136054422	76	127
335.36503401360545	335.5740136054422	69	127
336.0732426303855	336.46798185941043	50	127
336.3286394557823	336.5144217687075	69	127
336.3286394557823	336.5144217687075	77	127
336.3286394557823	336.5144217687075	74	127
336.5608616780045	336.932358276644	52	127
336.7930612244898	336.978820861678	69	127
336.7930612244898	336.978820861678	72	127
336.7930612244898	336.978820861678	76	127
337.0136507936508	337.35031746031746	64	127
337.2110204081633	337.3851700680272	76	127
337.2110204081633	337.3851700680272	68	127
337.2110204081633	337.3851700680272	71	127
337.4316099773243	337.87278911564624	65	127
337.4316099773243	338.26750566893423	57	127
337.4316099773243	337.87278911564624	62	127
337.7102494331066	337.9192290249433	69	127
337.7102494331066	337.9192290249433	74	127
337.7102494331066	337.9192290249433	77	127
337.9656462585034	338.3836281179138	64	127
337.9656462585034	338.16301587301587	81	127
337.9656462585034	338.3836281179138	61	127
338.2094784580499	338.4300680272109	73	127
338.2094784580499	338.4300680272109	69	127
338.2094784580499	338.4300680272109	76	127
338.99895691609976	339.4749659863946	38	127
339.31242630385486	339.5214058956916	65	127
339.31242630385486	339.5214058956916	74	127
339.31242630385486	339.5214058956916	69	127
339.5678458049887	339.9045124716553	40	127
339.7768253968254	339.9393650793651	64	127
339.7768253968254	339.9393650793651	69	127
339.7768253968254	339.9393650793651	73	127
339.98580498866215	340.3457142857143	42	127
340.22961451247164	340.3805442176871	69	127
340.22961451247164	340.3805442176871	72	127
340.22961451247164	340.3805442176871	63	127
340.4385941043084	340.775283446712	43	127
340.67079365079366	340.8217006802721	71	127
340.67079365079366	340.8217006802721	62	127
340.67079365079366	340.8217006802721	67	127
340.8797732426304	341.2745124716553	46	127
341.11197278911567	341.3209523809524	62	127
341.11197278911567	341.3209523809524	67	127
341.11197278911567	341.3209523809524	70	127
341.3790022675737	341.79696145124717	50	127
341.6343990929705	341.86662131519273	69	127
341.6343990929705	341.86662131519273	65	127
341.6343990929705	341.86662131519273	62	127
342.0059410430839	342.43551020408165	51	127
342.2845804988662	342.49356009070294	69	127
342.2845804988662	342.49356009070294	65	127
342.2845804988662	342.49356009070294	60	127
343.24820861678006	343.35269841269843	52	127
343.24820861678006	343.35269841269843	57	127
343.35269841269843	343.37589569160997	60	127
343.4107482993197	343.6081179138322	89	127
343.4107482993197	343.6081179138322	77	127
343.46879818594107	343.88673469387754	64	127
343.46879818594107	343.88673469387754	57	127
343.46879818594107	343.88673469387754	52	127
343.46879818594107	343.88673469387754	60	127
343.66616780045354	343.8751473922903	88	127
343.66616780045354	343.8751473922903	76	127
343.9215873015873	344.1073469387755	86	127
343.9215873015873	344.1073469387755	74	127
344.20020408163265	344.3975736961451	88	127
344.20020408163265	344.3975736961451	76	127
344.35115646258504	344.38598639455785	59	127
344.35115646258504	344.38598639455785	52	127
344.38598639455785	344.40920634920633	62	127
344.44403628117914	344.8387755102041	84	127
344.44403628117914	344.8387755102041	72	127
344.5136961451247	344.8968253968254	59	127
344.5136961451247	344.8968253968254	62	127
344.5136961451247	344.8968253968254	68	127
344.5136961451247	344.8968253968254	52	127
344.9200453514739	345.3031746031746	71	127
344.9200453514739	345.3031746031746	83	127
345.3960544217687	346.0462131519274	69	127
345.3960544217687	346.06943310657596	57	127
345.3960544217687	346.0462131519274	81	127
345.47732426303855	346.06943310657596	60	127
345.628231292517	346.06943310657596	64	127
346.41773242630387	346.61510204081634	52	127
346.66154195011336	347.11433106575964	59	127
346.66154195011336	347.11433106575964	56	127
346.66154195011336	347.11433106575964	40	127
347.20721088435374	347.6251700680272	57	127
347.20721088435374	347.6251700680272	45	127
347.20721088435374	347.6251700680272	33	127
