# onset,offset,note,velocity
8.6718820861678	9.101451247165533	59	127
9.171111111111111	9.786439909297052	47	127
9.82124716553288	9.937369614512471	49	127
9.97219954648526	10.134739229024943	51	127
10.16954648526077	10.297256235827664	49	127
10.35532879818594	10.494648526077098	51	127
10.529478458049887	10.668798185941043	52	127
10.703628117913832	10.831337868480725	51	127
10.866145124716553	11.028707482993198	52	127
11.063537414965987	11.19124716553288	54	127
11.22607709750567	11.6556462585034	47	127
11.690453514739229	11.818163265306122	49	127
11.84140589569161	11.969115646258503	51	127
11.99233560090703	12.120045351473923	49	127
12.154875283446712	12.282585034013605	51	127
12.305804988662132	12.433514739229025	52	127
12.468344671201814	12.596054421768708	51	127
12.619274376417234	12.746984126984128	52	127
12.770204081632652	12.921133786848072	54	127
12.967573696145125	13.582902494331066	55	127
13.617732426303855	13.757052154195012	46	127
13.780272108843537	13.919591836734694	49	127
13.954421768707483	14.59297052154195	54	127
14.62780045351474	14.755510204081633	52	127
14.77873015873016	14.906439909297053	51	127
14.941269841269841	15.057369614512472	49	127
15.103809523809524	15.231519274376417	51	127
15.254739229024944	15.382448979591837	52	127
15.417278911564626	15.556598639455782	51	127
15.59142857142857	15.719138321995464	45	127
15.74235827664399	15.870068027210884	43	127
15.89328798185941	16.02097505668934	42	127
16.055827664399093	16.20673469387755	43	127
16.22997732426304	16.357687074829933	45	127
16.39251700680272	16.7756462585034	43	127
17.147165532879818	17.356145124716555	64	127
17.402585034013605	17.623174603174604	62	127
17.65800453514739	17.8437641723356	59	127
17.87859410430839	18.04113378684807	60	127
18.087573696145125	18.26172335600907	54	127
18.308163265306124	18.517142857142858	59	127
18.56358276643991	18.760952380952382	52	127
19.051201814058956	19.202131519274378	64	127
19.248571428571427	19.445918367346938	62	127
19.49238095238095	19.666530612244898	59	127
19.701337868480724	19.89873015873016	60	127
19.94517006802721	20.13092970521542	54	127
20.17736961451247	20.374739229024943	59	127
20.43278911564626	20.606938775510205	52	127
20.978458049886623	21.16421768707483	59	127
21.21065759637188	21.384807256235828	57	127
21.43124716553288	21.59378684807256	51	127
21.8956462585034	22.069795918367348	57	127
22.1162358276644	22.325215419501134	55	127
22.371655328798187	22.534195011337868	49	127
22.58063492063492	22.74315192743764	51	127
22.778004535147392	22.998571428571427	54	127
23.04503401360544	23.242403628117913	52	127
23.288843537414966	23.474603174603175	55	127
23.53265306122449	23.7184126984127	46	127
23.776462585034015	23.973832199546486	49	127
24.02027210884354	24.21764172335601	47	127
24.26408163265306	24.426621315192744	59	127
24.48467120181406	24.902630385487527	54	127
24.995510204081633	25.16965986394558	52	127
25.21609977324263	25.401859410430838	64	127
25.459909297052153	25.81981859410431	49	127
25.91269841269841	26.01718820861678	54	127
26.05201814058957	26.179727891156464	56	127
26.21455782312925	26.342267573696144	58	127
26.365487528344673	26.493197278911566	59	127
26.528027210884353	26.690566893424037	58	127
26.725396825396825	26.853106575963718	56	127
26.876326530612246	26.98081632653061	58	127
27.015646258503402	27.154965986394558	61	127
27.18979591836735	27.317505668934242	62	127
27.340725623582767	27.491655328798185	64	127
27.526485260770976	27.65419501133787	62	127
27.689024943310656	27.805124716553287	61	127
27.828344671201815	28.03732426303855	59	127
28.072154195011336	28.23469387755102	47	127
28.281133786848073	28.65265306122449	52	127
28.73392290249433	28.966122448979593	59	127
28.989342403628118	29.18671201814059	47	127
29.244761904761905	29.60467120181406	51	127
29.709160997732425	29.894920634920634	52	127
29.941360544217687	30.15034013605442	52	127
30.208390022675736	30.41736961451247	55	127
30.463809523809523	30.63795918367347	55	127
30.696009070294785	31.055918367346937	64	127
31.160408163265306	31.20684807256236	63	127
31.21845804988662	31.253287981859412	64	127
31.264897959183674	31.311337868480727	63	127
31.32294784580499	31.357777777777777	64	127
31.36938775510204	31.415827664399092	63	127
31.427437641723355	31.473877551020408	64	127
31.48548752834467	31.531927437641723	63	127
31.543537414965986	31.6015873015873	64	127
31.613197278911564	31.798956916099772	64	127
31.8221768707483	32.007936507936506	52	127
32.07759637188209	32.274965986394555	55	127
32.32140589569161	32.530362811791385	55	127
32.60004535147392	32.92510204081633	64	127
33.04120181405896	33.08766439909297	62	127
33.099274376417235	33.12249433106576	64	127
33.13410430839002	33.180521541950114	62	127
33.19215419501134	33.23859410430839	64	127
33.25020408163265	33.296621315192745	62	127
33.30825396825397	33.34308390022676	64	127
33.35469387755102	33.40113378684807	62	127
33.41274376417233	33.47079365079365	64	127
33.482403628117915	33.679750566893425	67	127
33.69138321995465	33.87714285714286	55	127
33.90036281179138	34.086122448979594	64	127
34.132562358276644	34.32993197278912	52	127
34.38798185941043	34.585351473922906	66	127
34.62018140589569	34.794331065759636	54	127
34.84077097505669	35.0265306122449	63	127
35.061360544217685	35.25873015873016	51	127
35.30517006802721	35.502539682539684	64	127
35.54897959183673	35.72312925170068	52	127
35.76956916099773	36.1875283446712	60	127
36.268798185941044	36.44294784580499	59	127
36.489387755102044	36.68675736961451	52	127
36.73319727891157	37.10469387755102	55	127
37.197596371882085	37.60394557823129	54	127
37.90580498866213	38.114761904761906	59	127
38.16122448979592	38.33537414965986	57	127
38.381791383219955	38.59079365079365	54	127
38.62560090702948	38.79977324263039	55	127
38.84621315192744	39.055192743764174	49	127
39.10163265306122	39.2990022675737	54	127
39.35705215419501	39.56603174603175	47	127
39.879501133786846	40.07687074829932	59	127
40.13492063492063	40.320680272108845	57	127
40.367120181405895	40.51804988662131	56	127
40.55287981859411	40.680589569161	57	127
40.71541950113379	40.9127664399093	54	127
40.95922902494331	41.133378684807255	56	127
41.168185941043085	41.353968253968254	49	127
41.60938775510204	41.80673469387755	61	127
41.853197278911566	42.02734693877551	59	127
42.0621768707483	42.25954648526077	56	127
42.30596371882086	42.456916099773245	57	127
42.503356009070295	42.723945578231294	51	127
42.770385487528344	42.96775510204082	56	127
43.01419501133787	43.199931972789116	49	127
43.46698412698413	43.6643537414966	61	127
43.710793650793654	43.919773242630384	59	127
43.954580498866214	44.151972789115646	58	127
44.198412698412696	44.34934240362812	59	127
44.39578231292517	44.53510204081633	56	127
44.581541950113376	44.76730158730159	59	127
44.8253514739229	45.022721088435375	58	127
45.069160997732425	45.23167800453515	59	127
45.289750566893424	45.47548752834467	56	127
45.521950113378686	45.70770975056689	59	127
45.76575963718821	45.97473922902494	58	127
46.021179138322	46.19532879818594	59	127
46.26498866213152	46.439138321995465	54	127
46.48555555555556	46.68294784580499	59	127
46.752585034013606	46.938367346938776	58	127
46.984807256235825	47.205396825396825	59	127
47.263446712018144	47.46081632653061	47	127
47.51886621315193	48.134195011337866	60	127
48.238684807256234	50.01501133786848	36	127
50.29365079365079	50.76965986394558	60	127
50.85092970521542	52.069977324263036	36	127
52.36022675736962	52.7433560090703	58	127
52.824625850340134	53.230975056689346	46	127
53.323854875283445	53.660544217687075	57	127
53.73020408163265	54.10172335600907	45	127
54.206213151927436	54.62417233560091	53	127
54.71705215419501	55.123401360544214	41	127
55.20467120181406	55.58780045351474	54	127
55.680680272108845	56.02897959183674	47	127
56.1334693877551	56.51659863945578	54	127
56.59786848072562	56.783628117913835	47	127
56.830068027210885	57.03904761904762	54	127
57.13192743764172	57.34090702947846	47	127
57.38734693877551	57.549886621315196	54	127
57.596326530612245	57.80530612244898	47	127
57.85174603174603	58.03750566893424	54	127
58.095555555555556	58.32775510204082	47	127
58.64122448979592	59.070793650793654	64	127
59.16367346938775	59.8718820861678	40	127
59.90671201814059	60.046031746031744	42	127
60.08086167800454	60.19696145124716	43	127
60.220181405895694	60.37111111111111	42	127
60.429160997732424	60.52204081632653	43	127
60.55687074829932	60.661360544217686	45	127
60.68458049886621	60.80068027210884	43	127
60.83551020408163	60.96321995464853	45	127
60.99804988662132	61.12575963718821	47	127
61.160589569161	61.70625850340136	40	127
61.74108843537415	61.868798185941046	42	127
61.90362811791383	62.031337868480726	43	127
62.06616780045351	62.20548752834467	42	127
62.24031746031746	62.36802721088436	43	127
62.402857142857144	62.5421768707483	45	127
62.611836734693874	62.739546485260774	43	127
62.77437641723356	62.92530612244898	45	127
62.948526077097505	63.0762358276644	47	127
63.111065759637185	63.5174149659864	40	127
63.62190476190476	63.76122448979592	42	127
63.784444444444446	63.91215419501134	43	127
63.94698412698413	64.05145124716553	45	127
64.08630385487528	64.45782312925171	38	127
64.5507029478458	64.70163265306122	40	127
64.73646258503402	64.87578231292517	41	127
64.91061224489796	65.02671201814059	43	127
65.06154195011338	65.24730158730159	36	127
65.29374149659864	65.47950113378685	48	127
65.5259410430839	65.72331065759637	39	127
65.76975056689342	66.08321995464853	40	127
66.14126984126985	66.69854875283447	47	127
66.82625850340136	67.32548752834467	40	127
67.46480725623583	68.1149433106576	64	127
68.13818594104309	68.28911564625851	62	127
68.32394557823129	68.4748752834467	60	127
68.5097052154195	68.64902494331066	62	127
68.67224489795919	68.79995464852608	60	127
68.84639455782313	68.97410430839003	59	127
69.00891156462585	69.14825396825397	60	127
69.17147392290249	69.29918367346939	59	127
69.33401360544218	69.4501133786848	57	127
69.4849433106576	70.05383219954649	64	127
70.07705215419502	70.18154195011338	62	127
70.21637188208616	70.35569160997733	60	127
70.39049886621315	70.50662131519275	62	127
70.52984126984127	70.66916099773243	60	127
70.70399092970521	70.8317006802721	59	127
70.8665306122449	71.00585034013605	60	127
71.02904761904762	71.15675736961451	59	127
71.19160997732426	71.31931972789116	57	127
71.35414965986395	72.01591836734694	64	127
72.07396825396826	72.22489795918368	60	127
72.25972789115646	72.38743764172335	57	127
72.42226757369615	72.88666666666667	64	127
73.0027664399093	73.39750566893424	60	127
73.49038548752834	73.88512471655329	57	127
73.98961451247166	74.32628117913832	55	127
74.41918367346939	74.77909297052155	52	127
74.88358276643991	75.68467120181406	64	127
75.90526077097506	76.67151927437642	38	127
76.86888888888889	77.69319727891157	37	127
77.86734693877551	78.70326530612245	67	127
78.90061224489796	79.66687074829932	36	127
79.86426303854876	80.66532879818594	67	127
80.89755102040816	81.68700680272109	36	127
81.88439909297053	83.20793650793651	69	127
83.28920634920635	83.69555555555556	66	127
83.78843537414966	84.14834467120181	64	127
84.25283446712018	84.58952380952381	62	127
85.13519274376418	85.49507936507936	50	127
85.58798185941043	86.18009070294785	62	127
86.21492063492063	86.34263038548752	60	127
86.37746031746032	86.50517006802721	59	127
86.52839002267574	86.6677097505669	60	127
86.70253968253968	86.81863945578232	59	127
86.8534693877551	86.96956916099774	57	127
86.99278911564626	87.30625850340137	55	127
87.39913832199547	88.00285714285714	67	127
88.03768707482993	88.1073469387755	66	127
88.13056689342403	88.25827664399092	64	127
88.28147392290249	88.40918367346939	66	127
88.43242630385488	88.5485260770975	64	127
88.5833560090703	88.72267573696145	62	127
89.2102947845805	89.59342403628118	52	127
89.68628117913832	90.24358276643991	64	127
90.2784126984127	90.38290249433106	62	127
90.41773242630386	90.52222222222223	60	127
90.54544217687075	90.64993197278912	62	127
90.68473922902494	90.81244897959184	60	127
90.84730158730159	90.97501133786848	59	127
90.998231292517	91.33492063492064	57	127
91.40458049886621	91.95024943310658	69	127
91.98507936507937	92.101179138322	67	127
92.13600907029479	92.21725623582766	66	127
92.25210884353741	92.36820861678005	67	127
92.40303854875283	92.53074829931973	64	127
92.56557823129252	92.69328798185941	62	127
92.72809523809524	93.08802721088435	57	127
93.20412698412699	93.77301587301588	69	127
93.80784580498866	93.93555555555555	67	127
93.95877551020408	94.06326530612245	66	127
94.09809523809524	94.20258503401361	67	127
94.20258503401361	94.31868480725623	64	127
94.35351473922903	94.48122448979592	62	127
94.51603174603174	94.8991836734694	57	127
94.9920634920635	95.90925170068027	69	127
96.01374149659864	96.4665306122449	57	127
96.57102040816326	97.4069387755102	60	127
97.59269841269841	98.35895691609977	58	127
98.56793650793651	98.9162358276644	57	127
99.00911564625851	99.40385487528344	55	127
99.49673469387756	100.26299319727892	59	127
100.47197278911564	101.37755102040816	57	127
101.5865306122449	101.72585034013605	43	127
101.74907029478459	101.93482993197279	50	127
101.98126984126984	102.120589569161	59	127
102.15541950113379	102.34117913832199	50	127
102.37600907029478	102.50371882086168	59	127
102.53854875283447	102.68947845804989	50	127
102.72430839002267	102.86362811791383	43	127
102.92167800453515	103.0609977324263	50	127
103.0958276643991	103.22353741496599	60	127
103.25836734693877	103.35124716553288	50	127
103.38607709750566	103.5370068027211	60	127
103.57183673469387	103.73437641723356	50	127
103.83886621315193	104.0014058956916	43	127
104.0362358276644	104.17555555555556	50	127
104.22199546485261	104.3497052154195	59	127
104.38453514739228	104.52385487528345	43	127
104.55868480725624	104.69800453514739	52	127
104.73283446712018	104.87215419501133	60	127
104.91859410430838	105.06952380952382	43	127
105.1043537414966	105.23206349206349	50	127
105.25528344671201	105.3829931972789	60	127
105.4178231292517	105.5455328798186	50	127
105.59197278911564	105.71968253968254	60	127
105.74290249433106	105.88222222222223	50	127
105.94027210884354	106.07959183673469	43	127
106.11442176870749	106.25374149659864	50	127
106.27696145124716	106.55560090702947	59	127
106.60204081632654	107.06643990929705	67	127
107.15931972789116	107.56566893424036	66	127
107.68176870748299	108.09972789115646	62	127
108.19260770975056	108.64539682539683	67	127
108.73827664399093	109.22589569160998	66	127
109.3419954648526	109.52775510204081	62	127
109.59741496598639	109.8180045351474	64	127
109.86444444444444	110.11986394557823	62	127
110.17791383219955	110.42172335600907	61	127
110.47977324263039	110.74680272108843	59	127
110.80485260770975	111.10671201814058	61	127
111.15315192743765	112.2328798185941	62	127
112.29092970521542	112.49990929705216	64	127
112.59278911564626	112.80176870748299	62	127
112.84820861678004	113.17328798185942	61	127
113.23133786848072	113.49836734693878	59	127
113.54480725623583	113.91632653061224	61	127
113.9627664399093	114.98444444444445	62	127
115.0308843537415	115.25147392290249	64	127
115.29791383219954	115.54172335600907	62	127
115.58816326530612	115.82036281179138	61	127
115.86680272108843	116.0061224489796	50	127
116.05256235827665	116.20349206349206	59	127
116.24993197278911	116.38925170068028	50	127
116.42408163265306	116.55179138321995	59	127
116.58662131519274	116.7259410430839	50	127
116.78399092970521	116.9465306122449	59	127
116.99297052154195	117.13229024943311	50	127
117.22517006802721	117.3877097505669	59	127
117.42253968253968	117.58507936507937	50	127
117.61990929705216	117.78244897959183	50	127
117.81727891156463	117.96820861678005	58	127
118.00303854875284	118.14235827664399	50	127
118.16557823129251	118.29328798185941	50	127
118.3281179138322	118.46743764172335	59	127
118.50226757369614	118.59514739229024	50	127
118.61836734693877	118.74607709750566	58	127
118.78090702947846	118.9550566893424	50	127
118.9898866213152	119.09437641723356	58	127
119.11759637188209	119.23369614512471	50	127
119.3033560090703	119.4891156462585	59	127
119.52394557823129	119.68648526077098	50	127
119.7097052154195	119.84902494331065	50	127
119.88385487528345	120.01156462585034	58	127
120.04639455782313	120.20893424036281	50	127
120.23215419501133	120.39469387755102	50	127
120.42952380952381	120.58045351473923	59	127
120.62689342403628	120.82426303854875	50	127
120.85909297052154	121.2190022675737	67	127
121.36993197278912	121.46281179138322	66	127
121.48603174603174	121.718231292517	66	127
121.89238095238095	121.97365079365079	62	127
121.99687074829932	122.1942403628118	62	127
122.38	122.50770975056689	67	127
122.53092970521541	122.71668934240363	67	127
122.90244897959184	123.0069387755102	66	127
123.06498866213153	123.262358276644	66	127
123.42489795918367	123.52938775510204	62	127
123.55260770975056	123.77319727891157	62	127
123.81963718820862	123.99378684807256	64	127
124.05183673469388	124.28403628117914	62	127
124.33047619047619	124.5162358276644	60	127
124.56267573696145	124.77165532879819	59	127
124.81809523809524	125.09673469387755	62	127
125.15478458049887	125.57274376417233	71	127
125.6772335600907	126.04875283446712	69	127
126.14163265306122	126.6524716553288	66	127
126.74535147392291	127.19814058956916	64	127
127.31424036281179	127.75541950113379	62	127
127.87151927437641	128.2894784580499	55	127
128.44040816326532	128.7887074829932	57	127
128.90480725623584	129.55496598639456	50	127
129.74072562358276	130.4257142857143	59	127
130.4837641723356	130.7624036281179	58	127
130.82045351473923	131.00619047619048	59	127
131.0526530612245	131.27324263038548	57	127
131.3312925170068	131.8305215419501	50	127
131.96984126984128	132.67804988662132	62	127
132.840589569161	133.03795918367348	64	127
133.08439909297053	133.29337868480727	62	127
133.33981859410432	133.60684807256237	60	127
133.65328798185942	133.88548752834467	59	127
133.93192743764172	134.23378684807255	55	127
134.3150566893424	134.90716553287982	59	127
135.11614512471655	135.37156462585034	58	127
135.42961451247166	135.62698412698413	59	127
135.67342403628118	135.9172335600907	57	127
135.9636507936508	136.16104308390024	50	127
136.2190702947846	136.57897959183674	59	127
136.637052154195	137.31043083900227	62	127
137.46136054421768	137.6819501133787	64	127
137.72839002267574	138.45981859410432	62	127
138.50625850340137	138.7268253968254	64	127
138.9009977324263	139.70208616780045	62	127
139.8762358276644	140.12004535147392	64	127
140.20131519274378	140.4451247165533	62	127
140.49156462585034	140.6889342403628	60	127
140.7585941043084	140.95596371882087	59	127
141.0140136054422	141.24621315192744	58	127
141.29265306122448	141.53643990929706	59	127
141.58290249433108	141.79185941043085	57	127
141.8499319727891	142.03569160997733	55	127
142.08213151927438	142.3259410430839	54	127
142.38399092970522	142.59297052154196	55	127
142.639410430839	142.8251700680272	56	127
142.87160997732425	143.10380952380953	57	127
143.15024943310658	143.55659863945579	52	127
143.71913832199547	143.98614512471656	57	127
144.03260770975058	144.24156462585034	50	127
144.28802721088437	144.74081632653062	70	127
144.78725623582767	145.10072562358278	71	127
145.14716553287982	145.36773242630386	69	127
145.41419501133788	145.59995464852608	62	127
145.6580045351474	145.8437641723356	66	127
145.90181405895692	146.09918367346938	67	127
146.1572335600907	146.40104308390022	66	127
146.44748299319727	146.6448299319728	59	127
146.70290249433106	146.877052154195	63	127
146.92349206349206	147.10922902494332	64	127
147.16730158730158	147.46916099773242	62	127
147.51557823129252	147.67814058956915	60	127
147.73619047619047	147.93356009070294	59	127
147.99160997732426	148.18897959183673	57	127
148.74625850340135	148.94362811791385	70	127
148.9900680272109	149.24548752834468	71	127
149.29192743764173	149.4892970521542	69	127
149.53573696145125	149.75632653061226	67	127
149.8027664399093	150.03496598639455	66	127
150.09301587301587	150.31360544217688	64	127
150.36004535147393	150.82444444444445	64	127
150.94052154195012	151.38172335600908	64	127
151.5907029478458	151.81126984126985	57	127
152.11315192743766	152.32210884353742	61	127
152.36857142857144	153.7269387755102	62	127
154.08684807256236	154.35387755102042	60	127
154.41192743764174	154.63251700680271	59	127
154.67895691609976	155.09691609977324	57	127
155.1433560090703	155.2710657596372	55	127
155.30589569160998	155.4219954648526	57	127
155.4568253968254	155.59614512471654	59	127
155.61936507936508	155.74705215419502	57	127
155.7702947845805	155.8631746031746	59	127
155.88639455782314	156.0024716553288	60	127
156.0257142857143	156.15340136054422	59	127
156.18825396825397	156.37401360544217	60	127
156.408820861678	156.53655328798186	62	127
157.03578231292516	157.14027210884353	55	127
157.16349206349207	157.27956916099774	57	127
157.337641723356	157.4653514739229	59	127
157.48857142857142	157.60467120181406	57	127
157.6394784580499	157.76721088435374	59	127
157.80204081632652	157.92975056689343	60	127
157.95297052154194	158.08068027210885	59	127
158.11551020408163	158.23160997732427	60	127
158.26643990929705	158.3825396825397	62	127
158.81208616780046	158.9398185941043	56	127
158.9746485260771	159.06750566893425	57	127
159.102358276644	159.23006802721088	59	127
159.25328798185942	159.3809977324263	57	127
159.4158276643991	159.5087074829932	59	127
159.54353741496598	159.65963718820862	60	127
159.6828344671202	159.81056689342404	59	127
159.84539682539682	160.0079365079365	60	127
160.04274376417234	160.1704761904762	62	127
160.6697052154195	161.3895238095238	62	127
161.5520634920635	162.29510204081632	68	127
162.44603174603174	162.82916099773243	66	127
162.88721088435375	163.96693877551022	54	127
164.2455782312925	164.5706575963719	64	127
164.67514739229026	165.67360544217686	52	127
165.96385487528346	166.30054421768708	63	127
166.38179138321996	167.0784126984127	51	127
167.2641723356009	168.11170068027212	51	127
168.20458049886622	168.88956916099772	51	127
169.08691609977325	169.4004081632653	63	127
169.48167800453515	169.8764172335601	53	127
169.9692970521542	170.63106575963718	53	127
170.84004535147392	171.1883446712018	65	127
171.28122448979593	171.60630385487528	55	127
171.69918367346938	172.40736961451248	55	127
172.55832199546487	172.92984126984126	67	127
172.98789115646258	173.34780045351474	56	127
173.44068027210884	174.14886621315193	56	127
174.3346485260771	174.71777777777777	53	127
174.81063492063493	175.00802721088436	55	127
175.0544671201814	175.2402267573696	59	127
175.27503401360545	175.44920634920635	59	127
175.4956462585034	175.63496598639455	62	127
175.68138321995465	175.83231292517007	62	127
175.86716553287982	176.0412925170068	65	127
176.08775510204083	176.27351473922903	65	127
176.3083446712018	176.49410430839004	68	127
176.54054421768708	176.7030612244898	62	127
176.73791383219955	176.92367346938775	65	127
176.9584807256236	177.14426303854876	59	127
177.20231292517008	177.376462585034	62	127
177.4228798185941	177.58544217687074	56	127
177.64349206349206	177.7828117913832	60	127
177.81764172335602	178.00340136054422	53	127
178.06145124716554	178.22399092970522	56	127
178.27043083900227	178.43297052154196	50	127
178.4909977324263	178.61873015873016	53	127
178.6651700680272	178.83931972789117	47	127
178.89736961451248	179.0715192743764	50	127
179.11795918367346	179.26888888888888	44	127
179.3269387755102	179.50108843537416	48	127
179.5475283446712	179.7332879818594	41	127
179.75650793650794	179.93065759637187	44	127
179.97707482993198	180.17446712018142	44	127
180.23249433106577	180.3718367346939	48	127
180.41827664399094	180.60403628117913	41	127
180.6156462585034	180.78979591836736	44	127
180.8478231292517	181.06843537414966	44	127
181.1032426303855	181.2774149659864	48	127
181.35866213151928	181.61408163265307	42	127
181.64893424036282	181.82308390022675	45	127
181.86950113378686	182.26426303854876	43	127
189.46244897959184	190.07777777777778	50	127
190.12421768707483	190.35641723356008	38	127
190.40285714285713	190.62344671201814	42	127
190.69310657596372	190.87886621315192	42	127
190.93691609977324	191.366485260771	50	127
191.4825850340136	191.90054421768707	49	127
192.30689342403628	192.48104308390023	45	127
192.53909297052155	192.71324263038548	49	127
192.7480725623583	192.92222222222222	49	127
192.98027210884354	193.36340136054423	57	127
193.45628117913833	193.81619047619049	55	127
194.2225396825397	194.47795918367348	43	127
194.5360090702948	194.74498866213153	47	127
194.79142857142858	194.97718820861678	47	127
195.0352380952381	195.27904761904762	52	127
195.32548752834467	195.48802721088435	52	127
195.5344671201814	195.7202267573696	45	127
195.77827664399092	195.92920634920634	45	127
195.98725623582766	196.18462585034013	50	127
196.24267573696144	196.45165532879818	50	127
196.49809523809523	196.66063492063492	43	127
196.70707482993197	196.92766439909298	43	127
196.97410430839003	197.1714739229025	49	127
197.20630385487527	197.43850340136055	49	127
197.4849433106576	197.69392290249434	37	127
197.74036281179139	197.93773242630385	37	127
197.99578231292517	198.43696145124716	42	127
201.93156462585034	202.40757369614514	47	127
202.50045351473923	203.1390022675737	59	127
203.16222222222223	203.2899319727891	57	127
203.3247619047619	203.4524716553288	55	127
203.49891156462584	203.63823129251702	57	127
203.6730612244898	203.78916099773244	55	127
203.82399092970522	203.94009070294786	54	127
203.97492063492064	204.3348299319728	55	127
204.4277097505669	205.08947845804988	67	127
205.12430839002266	205.25201814058957	66	127
205.2752380952381	205.39133786848072	64	127
205.41455782312926	205.5306575963719	66	127
205.56548752834468	205.65836734693877	64	127
205.6815873015873	205.8092970521542	63	127
205.84412698412697	206.2156462585034	64	127
206.3433560090703	206.95868480725625	64	127
206.99351473922903	207.14444444444445	62	127
207.16766439909298	207.29537414965986	61	127
207.33020408163264	207.93392290249434	62	127
207.9455328798186	208.05002267573695	61	127
208.0732426303855	208.20095238095237	59	127
208.23578231292518	208.92077097505668	61	127
208.9556009070295	209.08331065759637	59	127
209.1065306122449	209.24585034013606	58	127
209.28068027210884	209.4780498866213	59	127
209.53609977324263	209.75668934240363	60	127
209.81473922902495	210.0469387755102	61	127
210.27913832199548	210.51133786848072	49	127
210.5461678004535	210.743537414966	53	127
210.8015873015873	211.0221768707483	53	127
211.06861678004535	211.69555555555556	61	127
211.80004535147393	212.2180045351474	60	127
212.5663038548753	212.76367346938775	48	127
212.82172335600907	213.0307029478458	52	127
213.07714285714286	213.3093424036281	52	127
213.3790022675737	213.79696145124717	60	127
213.88984126984127	214.3542403628118	59	127
214.70253968253968	214.88829931972788	47	127
214.93473922902496	215.17854875283447	51	127
215.22498866213152	215.45718820861677	51	127
215.50362811791382	216.00285714285715	59	127
216.11895691609976	216.5833560090703	58	127
216.9548752834467	217.1406349206349	46	127
217.19868480725623	217.3960544217687	51	127
217.44249433106575	217.6166439909297	51	127
217.66308390022675	218.13909297052155	58	127
218.23197278911564	218.62671201814058	59	127
218.96340136054422	219.218820861678	47	127
219.26526077097506	219.439410430839	51	127
219.48585034013607	219.67160997732427	51	127
219.71804988662132	220.12439909297052	59	127
220.24049886621316	220.70489795918368	58	127
221.08802721088435	221.2621768707483	46	127
221.30861678004536	221.5175963718821	51	127
221.55242630385487	221.73818594104307	51	127
221.7962358276644	222.70181405895693	58	127
222.8991836734694	223.0849433106576	58	127
223.15460317460318	224.0601814058957	63	127
224.2111111111111	224.3968707482993	59	127
224.44331065759638	225.08185941043084	63	127
225.221179138322	225.41854875283445	60	127
225.46498866213153	226.09192743764171	64	127
226.21963718820862	226.42861678004536	59	127
226.48666666666668	227.12521541950113	63	127
227.26453514739228	227.4502947845805	64	127
227.50834467120183	228.12367346938777	61	127
228.2746031746032	228.46036281179138	64	127
228.5184126984127	229.13374149659865	61	127
229.2730612244898	229.47043083900226	64	127
229.5168707482993	230.07414965986393	61	127
230.2134693877551	230.3992290249433	64	127
230.44566893424036	231.11904761904762	61	127
231.25836734693877	231.52539682539683	64	127
231.57183673469387	232.1291156462585	63	127
232.23360544217687	232.83732426303854	72	127
232.86054421768708	232.99986394557823	71	127
233.034693877551	233.16240362811791	69	127
233.1972335600907	233.33655328798187	71	127
233.37138321995465	233.5107029478458	69	127
233.54553287981858	233.6732426303855	67	127
233.70807256235827	233.83578231292518	66	127
233.8590022675737	233.9867120181406	67	127
234.02154195011337	234.10281179138323	69	127
234.137641723356	234.71814058956917	71	127
234.74136054421768	234.8690702947846	69	127
234.90390022675737	235.03160997732425	67	127
235.06643990929706	235.18253968253967	69	127
235.2057596371882	235.32185941043085	67	127
235.35668934240363	235.47278911564626	66	127
235.50761904761904	235.62371882086168	64	127
235.6469387755102	235.7746485260771	66	127
235.80947845804988	235.9371882086168	67	127
235.97201814058957	236.56412698412697	69	127
236.59895691609978	236.7150566893424	67	127
236.7498866213152	236.87759637188208	66	127
236.9124263038549	237.04013605442177	67	127
237.07496598639455	237.1794557823129	66	127
237.21428571428572	237.3419954648526	64	127
237.3768253968254	237.49292517006802	69	127
237.52775510204083	237.62063492063493	67	127
237.64385487528344	237.77156462585035	66	127
237.8180045351474	237.94571428571427	67	127
237.98054421768708	238.0966439909297	66	127
238.11986394557823	238.24757369614514	64	127
238.28240362811792	238.37528344671202	64	127
238.4101133786848	238.52621315192744	63	127
238.54943310657598	238.67714285714285	61	127
238.71197278911563	238.82807256235827	61	127
238.87451247165532	239.00222222222223	63	127
239.02544217687074	239.15315192743765	64	127
239.18798185941043	239.3853514739229	63	127
239.43179138321995	239.64077097505668	59	127
239.698820861678	240.30253968253967	72	127
240.34897959183672	240.47668934240363	71	127
240.49990929705214	240.62761904761905	69	127
240.6740589569161	240.801768707483	71	127
240.8365986394558	240.96430839002267	69	127
240.9875283446712	241.11523809523808	67	127
241.1500680272109	241.27777777777777	66	127
241.31260770975058	241.41709750566892	67	127
241.44031746031746	241.56802721088437	69	127
241.61446712018142	242.22979591836736	71	127
242.25301587301587	242.3691156462585	69	127
242.39233560090702	242.52004535147393	67	127
242.5548752834467	242.6825850340136	69	127
242.7174149659864	242.82190476190476	67	127
242.8451247165533	242.97283446712018	66	127
243.01927437641723	243.15859410430838	64	127
243.1934240362812	243.32113378684807	66	127
243.35596371882087	243.48367346938775	67	127
243.51850340136053	244.13383219954648	69	127
244.16866213151928	244.2847619047619	67	127
244.30798185941043	244.4356916099773	66	127
244.47052154195012	244.58662131519273	67	127
244.62145124716554	244.74916099773242	66	127
244.7607709750567	244.8884807256236	64	127
244.92331065759637	245.0742403628118	69	127
245.12068027210884	245.27160997732426	67	127
245.2948299319728	245.42253968253968	66	127
245.44575963718822	245.56185941043083	67	127
245.59668934240364	245.72439909297051	66	127
245.74761904761905	245.87532879818593	64	127
245.91015873015874	246.0494784580499	64	127
246.08430839002267	246.2004081632653	63	127
246.22362811791382	246.362947845805	61	127
246.39777777777778	246.53709750566892	61	127
246.57192743764173	246.7344671201814	63	127
246.78090702947847	246.9550566893424	64	127
246.98988662131518	247.32657596371882	63	127
247.77936507936508	248.2669841269841	71	127
248.35986394557824	248.80104308390023	70	127
248.92875283446713	249.2886621315193	66	127
249.39315192743763	249.75306122448978	71	127
249.8459410430839	250.26390022675736	70	127
250.34517006802722	250.5309297052154	66	127
250.57736961451246	250.7631292517007	68	127
250.821179138322	251.03015873015872	66	127
251.0765986394558	251.27396825396826	64	127
251.3552380952381	251.5409977324263	63	127
251.58743764172337	251.8544671201814	66	127
251.90090702947845	252.28403628117914	75	127
252.43496598639456	252.84131519274376	73	127
252.93419501133786	253.31732426303856	70	127
253.41020408163266	253.94426303854874	68	127
254.03714285714287	254.5015419501134	66	127
254.64086167800454	255.05882086167802	59	127
255.1517006802721	255.5928798185941	61	127
255.720589569161	256.1385487528345	63	127
256.33591836734695	257.0092970521542	63	127
257.20666666666665	257.42725623582766	62	127
257.47369614512473	257.69428571428574	63	127
257.74072562358276	257.9497052154195	61	127
257.9961451247166	258.2051247165533	54	127
258.2631746031746	258.4837641723356	63	127
258.53020408163263	259.3661224489796	66	127
259.5286621315193	259.7724716553288	68	127
259.83052154195013	260.01628117913833	66	127
260.06272108843535	260.3413605442177	64	127
260.399410430839	260.8057596371882	63	127
261.0263492063492	261.6300680272109	63	127
261.82743764172335	262.0596371882086	62	127
262.164126984127	262.37310657596373	63	127
262.41954648526075	262.68657596371884	61	127
262.73301587301586	263.0232426303855	54	127
263.0697052154195	263.3019047619048	63	127
263.3831746031746	264.12621315192746	66	127
264.27714285714285	264.4861224489796	68	127
264.54417233560093	265.3336507936508	66	127
265.3800907029478	265.7864172335601	68	127
265.91414965986394	266.57591836734696	66	127
266.7152380952381	267.0170975056689	68	127
267.063537414966	267.27251700680273	66	127
267.3770068027211	267.6556462585034	64	127
267.71369614512474	268.1548752834467	63	127
268.4799546485261	268.6889342403628	59	127
268.74696145124716	268.93274376417236	57	127
268.9791836734694	269.2229931972789	54	127
269.26943310657595	269.46678004535147	55	127
269.5132426303855	269.66414965986394	49	127
269.71061224489796	269.8847619047619	54	127
269.93120181405897	270.11696145124716	47	127
270.3607709750567	270.592947845805	59	127
270.639410430839	270.8367800453515	57	127
270.88321995464855	271.080589569161	54	127
271.12702947845804	271.2779591836735	55	127
271.3243990929705	271.521768707483	49	127
271.56820861678005	271.75396825396825	54	127
271.80040816326533	271.97455782312926	47	127
272.25319727891156	272.450566893424	54	127
272.4970068027211	272.70598639455784	52	127
272.75242630385486	272.94979591836733	46	127
273.2284353741497	273.4141950113379	52	127
273.4722448979592	273.6579818594104	51	127
273.70444444444445	273.8785941043084	47	127
273.92503401360545	274.0991836734694	46	127
274.14562358276646	274.36619047619047	49	127
274.4126530612245	274.5751700680272	47	127
274.6216326530612	274.83061224489796	52	127
274.87702947845804	275.06281179138324	51	127
275.10925170068026	275.2949886621315	54	127
275.34145124716554	275.71297052154193	52	127
276.06126984126985	276.2354195011338	64	127
276.2934693877551	276.4560090702948	62	127
276.51403628117913	276.69981859410433	59	127
276.7578684807256	276.93201814058955	60	127
276.9900680272109	277.1758276643991	54	127
277.2222675736962	277.40802721088437	59	127
277.46607709750566	277.6286167800454	52	127
277.91886621315194	278.0930158730159	64	127
278.13945578231295	278.3136054421769	62	127
278.37165532879817	278.5573922902494	59	127
278.60385487528345	278.8128344671202	60	127
278.87086167800453	279.0218140589569	54	127
279.068231292517	279.2540136054422	59	127
279.27721088435374	279.46299319727893	52	127
279.73002267573696	279.9041723356009	59	127
279.95061224489797	280.18281179138324	57	127
280.22925170068027	280.41501133786846	51	127
280.6936507936508	280.86780045351475	57	127
280.9142176870748	281.12319727891156	55	127
281.18126984126985	281.36702947845805	49	127
281.41346938775513	281.6108390022676	51	127
281.6572789115646	281.8314058956916	54	127
281.8778684807256	282.0636281179138	52	127
282.1100680272109	282.28421768707483	55	127
282.3306575963719	282.5164172335601	46	127
282.5628571428571	282.7602267573696	49	127
282.8066666666667	282.9808163265306	47	127
283.0272562358277	283.22462585034015	59	127
283.27106575963717	283.6425850340136	54	127
283.7354648526077	283.8980045351474	52	127
283.9328344671202	284.1185941043084	64	127
284.16503401360546	284.58299319727894	49	127
284.67587301587304	284.80356009070294	54	127
284.8384126984127	284.95451247165533	56	127
284.98934240362814	285.0938321995465	58	127
285.117052154195	285.2447619047619	59	127
285.2795918367347	285.4072789115646	58	127
285.44213151927437	285.5698412698413	56	127
285.5930612244898	285.6975510204082	58	127
285.73238095238094	285.8484807256236	61	127
285.8717006802721	285.999410430839	62	127
286.02260770975056	286.13873015873014	64	127
286.17356009070295	286.2896598639456	62	127
286.33607709750567	286.4754195011338	61	127
286.4986394557823	286.6843990929705	59	127
286.7308390022676	286.95142857142855	47	127
286.99786848072563	287.3809977324263	52	127
287.49709750566893	287.6944671201814	59	127
287.7409070294785	287.90344671201814	47	127
287.9498866213152	288.30979591836734	51	127
288.42589569161	288.6697052154195	52	127
288.71614512471655	288.87868480725626	52	127
288.9251247165533	289.0992743764172	55	127
289.1457142857143	289.37791383219957	55	127
289.4591836734694	289.79587301587304	64	127
289.87714285714287	289.93519274376416	63	127
289.94680272108843	289.9932426303855	64	127
290.0048299319728	290.0512925170068	63	127
290.06290249433107	290.10931972789115	64	127
290.12095238095236	290.15578231292517	63	127
290.16739229024944	290.20222222222225	64	127
290.2138095238095	290.26027210884354	61	127
290.2834920634921	290.3299319727891	63	127
290.34154195011337	290.53891156462583	64	127
290.5853514739229	290.75950113378684	52	127
290.8059410430839	291.01492063492066	55	127
291.0613605442177	291.1890702947846	55	127
291.2471201814059	291.65344671201814	64	127
291.75795918367345	291.8043990929705	62	127
291.8160090702948	291.8624489795918	64	127
291.8740589569161	291.92049886621317	62	127
291.93210884353743	291.97854875283446	64	127
291.9901587301587	292.0365986394558	62	127
292.0482086167801	292.0946485260771	64	127
292.10625850340136	292.15267573696144	60	127
292.1642857142857	292.222358276644	62	127
292.23396825396827	292.41972789115647	67	127
292.46614512471655	292.65192743764175	55	127
292.70997732426304	292.8609070294785	64	127
292.9073469387755	293.0931065759637	52	127
293.1627664399093	293.3485260770975	66	127
293.39496598639454	293.5807256235828	54	127
293.6387755102041	293.812925170068	63	127
293.87097505668936	294.0683446712018	51	127
294.10315192743764	294.28893424036283	64	127
294.3121541950113	294.52113378684805	52	127
294.56757369614513	294.9042630385488	60	127
295.0203401360544	295.2061224489796	59	127
295.25256235827663	295.4499319727891	52	127
295.4963718820862	295.8562811791383	55	127
295.97238095238095	296.46	54	127
296.78507936507935	296.9824489795918	59	127
297.0288888888889	297.1681859410431	57	127
297.2146485260771	297.4352380952381	54	127
297.4932879818594	297.67902494331065	55	127
297.7254875283447	297.9460770975057	49	127
298.00412698412697	298.1898639455782	54	127
298.23632653061225	298.42208616780044	47	127
298.7007029478458	298.8748752834467	59	127
298.92131519274375	299.153514739229	57	127
299.1999546485261	299.3857142857143	56	127
299.4321541950113	299.54825396825396	57	127
299.59469387755104	299.7920634920635	54	127
299.8385034013605	300.0126530612245	56	127
300.05909297052153	300.256462585034	49	127
300.55832199546484	300.7673015873016	61	127
300.81374149659865	300.9878911564626	59	127
301.03433106575966	301.2317006802721	56	127
301.2665306122449	301.4174603174603	57	127
301.4638775510204	301.6496598639456	51	127
301.6960997732426	301.90507936507936	56	127
301.95151927437644	302.13727891156464	49	127
302.3926984126984	302.6132879818594	61	127
302.6597278911565	302.82226757369614	59	127
302.8687074829932	303.0312471655329	58	127
303.0660770975057	303.2518367346939	59	127
303.3098866213152	303.4724263038549	56	127
303.5188662131519	303.71621315192743	59	127
303.76267573696146	303.9600453514739	58	127
304.006485260771	304.16902494331066	59	127
304.21546485260774	304.4128344671202	56	127
304.44766439909296	304.6334013605442	59	127
304.67986394557823	304.86562358276643	58	127
304.9120634920635	305.1326530612245	59	127
305.17909297052154	305.376462585034	54	127
305.4229024943311	305.597052154195	59	127
305.6434920634921	305.8524489795918	58	127
305.89891156462585	306.1311111111111	59	127
306.21238095238095	306.44458049886623	47	127
306.5142403628118	306.9554195011338	60	127
307.07151927437644	308.89428571428573	36	127
309.2309523809524	309.67215419501133	60	127
309.76503401360543	310.9144217687075	36	127
311.2162811791383	311.56458049886623	58	127
311.65746031746033	312.11024943310656	46	127
312.2031065759637	312.6443083900227	57	127
312.7255782312925	313.1087074829932	45	127
313.1783673469388	313.50344671201816	53	127
313.60793650793653	314.0374829931973	41	127
314.1768253968254	314.5367346938776	54	127
314.6296145124717	315.0824036281179	47	127
315.175283446712	315.5584126984127	54	127
315.6512925170068	315.86027210884356	47	127
315.9067120181406	316.0924716553288	54	127
316.13891156462586	316.35950113378686	47	127
316.3943083900227	316.55687074829933	54	127
316.60331065759635	316.8122902494331	47	127
316.85873015873017	317.05609977324264	54	127
317.1025170068027	317.32312925170066	47	127
317.63659863945577	318.0081179138322	64	127
318.1009977324263	318.82081632653063	40	127
318.8556462585034	318.99496598639456	42	127
319.02979591836737	319.1575056689342	43	127
319.1575056689342	319.27360544217686	42	127
319.32004535147394	319.44775510204084	43	127
319.4825850340136	319.6102947845805	45	127
319.63351473922904	319.7496145124717	43	127
319.78444444444443	319.91215419501134	45	127
319.94698412698415	320.09791383219954	47	127
320.1211337868481	320.7132426303855	40	127
320.75968253968256	320.8990022675737	42	127
320.9338321995465	321.0499319727891	43	127
321.07315192743766	321.2008616780045	42	127
321.2473015873016	321.38662131519277	43	127
321.4214512471655	321.54916099773243	45	127
321.57238095238097	321.7000680272109	43	127
321.7349206349206	321.86263038548753	45	127
321.89746031746034	322.013537414966	47	127
322.04839002267573	322.44312925170067	40	127
322.54761904761904	322.6521088435374	42	127
322.6869387755102	322.8146485260771	43	127
322.8378684807256	322.9655782312925	45	127
323.0004081632653	323.3487074829932	38	127
323.4764172335601	323.5925170068027	40	127
323.6389569160998	323.7782766439909	41	127
323.7898866213152	323.9175963718821	43	127
323.9524036281179	324.12657596371884	36	127
324.1846258503401	324.3819954648526	48	127
324.44004535147394	324.68385487528343	39	127
324.7419047619048	324.9624943310658	40	127
325.0437641723356	325.5546031746032	47	127
325.71714285714285	326.15832199546486	40	127
326.3092290249433	326.97102040816327	64	127
326.9942403628118	327.1219274376417	62	127
327.15678004535147	327.2844897959184	60	127
327.3193197278912	327.48185941043084	62	127
327.5050793650794	327.6327664399093	60	127
327.66761904761904	327.79532879818595	59	127
327.83015873015876	327.98108843537415	60	127
328.0043083900227	328.14360544217686	59	127
328.16684807256235	328.282947845805	57	127
328.3061678004535	328.88666666666666	64	127
328.9098866213152	329.0375963718821	62	127
329.07242630385485	329.20013605442176	60	127
329.2581859410431	329.37426303854875	62	127
329.39750566893423	329.51360544217687	60	127
329.5484353741497	329.6877551020408	59	127
329.7225850340136	329.93156462585034	60	127
329.9547845804989	330.0824716553288	59	127
330.11732426303854	330.2334240362812	57	127
330.27986394557826	330.65138321995465	64	127
330.74426303854875	330.96485260770976	64	127
330.9880725623583	331.15061224489796	60	127
331.18544217687077	331.3247619047619	57	127
331.3595918367347	331.8007709750567	64	127
331.9284580498866	332.32321995464855	60	127
332.4277097505669	332.75278911564624	57	127
332.8456462585034	333.2055782312925	55	127
333.26360544217687	333.63514739229026	52	127
333.72802721088436	334.51750566893423	64	127
334.72648526077097	335.51596371882084	38	127
335.7481632653061	336.50281179138324	37	127
336.71179138322	337.4780498866213	67	127
337.6754195011338	338.5113378684807	36	127
338.6970975056689	339.44013605442177	67	127
339.63750566893424	340.3689342403628	47	127
340.67079365079366	342.0059410430839	73	127
342.1104308390023	342.54	67	127
342.6444897959184	343.02761904761905	66	127
343.12049886621315	343.48038548752834	64	127
343.5848752834467	344.3975736961451	71	127
345.0941950113379	345.52374149659863	64	127
345.61664399092973	346.38290249433106	71	127
347.0911111111111	347.5322902494331	59	127
347.6367800453515	348.4146485260771	64	127
349.19251700680275	349.6104535147392	52	127
349.7033560090703	350.6205442176871	59	127
350.8991836734694	351.9905215419501	59	127
352.23433106575965	352.36204081632656	52	127
352.3736281179138	352.4665306122449	54	127
352.5013605442177	352.5942403628118	55	127
352.6174603174603	352.73356009070295	54	127
352.7567800453515	352.8960997732426	55	127
352.91931972789115	353.0238095238095	57	127
353.0586394557823	353.1515192743764	55	127
353.17473922902496	353.27922902494333	57	127
353.3024489795918	353.4069387755102	59	127
353.4301587301587	353.5346485260771	54	127
353.55786848072563	353.65074829931973	55	127
353.67396825396827	353.76684807256237	57	127
353.77845804988664	353.90614512471655	55	127
353.929387755102	354.0338775510204	57	127
354.05709750566893	354.14997732426303	59	127
354.18480725623584	354.27768707482994	56	127
354.3009070294785	354.4169841269841	57	127
354.42861678004533	354.5214739229025	59	127
354.54471655328797	354.63759637188207	57	127
354.6724263038549	354.765306122449	59	127
354.7885260770975	354.8930158730159	60	127
354.9162358276644	355.03231292517006	59	127
355.05555555555554	355.18326530612245	60	127
355.206485260771	355.2993650793651	62	127
355.3225850340136	355.43866213151927	60	127
355.46190476190475	355.5780045351474	62	127
355.62444444444446	355.7637641723356	64	127
355.7869841269841	356.41392290249433	66	127
356.5184126984127	356.68095238095236	63	127
356.71578231292517	357.3078911564626	64	127
357.3427210884354	357.5517006802721	61	127
357.59814058956914	357.7839002267574	62	127
357.81873015873015	357.98126984126986	59	127
358.03931972789115	358.2366893424036	60	127
358.2831292517007	358.44566893424036	57	127
358.5036961451247	358.6894784580499	55	127
358.7359183673469	358.89845804988664	54	127
358.9332879818594	359.26997732426304	55	127
359.5718367346939	359.7575963718821	54	127
359.80403628117915	359.9781859410431	59	127
360.0362358276644	360.17555555555555	55	127
360.4541723356009	360.6051247165533	54	127
360.6399546485261	360.7908843537415	59	127
360.8257142857143	360.98825396825396	55	127
361.20884353741496	361.33655328798187	56	127
361.3829931972789	361.53392290249434	64	127
361.59197278911563	361.75451247165535	57	127
361.97510204081635	362.21891156462584	59	127
362.25374149659865	362.47433106575966	64	127
362.5091609977324	362.69489795918366	60	127
362.75297052154195	362.9967800453515	58	127
363.0432199546485	363.240589569161	61	127
363.28702947845807	363.43795918367346	66	127
363.47278911564626	363.6004988662132	59	127
363.6469387755102	363.8326984126984	56	127
363.87913832199547	364.01845804988665	59	127
364.0532879818594	364.2158276643991	64	127
364.2738775510204	364.4363945578231	57	127
364.4712471655329	364.6802267573696	54	127
364.7150566893424	364.8659863945578	55	127
364.9008163265306	365.22589569161	48	127
365.29555555555555	365.446485260771	47	127
365.492925170068	365.6322448979592	59	127
365.6786848072562	365.9573242630386	60	127
365.98054421768705	366.1314739229025	57	127
366.1663038548753	366.34045351473924	55	127
366.37528344671205	366.595873015873	54	127
366.8861224489796	367.0718820861678	57	127
367.1299319727891	367.28086167800456	59	127
367.3273015873016	367.50142857142856	62	127
367.5362811791383	367.7104081632653	64	127
367.74526077097505	367.91938775510204	60	127
367.9542403628118	368.1167573696145	59	127
368.15160997732426	368.32573696145124	57	127
368.6160090702948	368.8946485260771	61	127
368.9294784580499	369.0804081632653	62	127
369.1152380952381	369.2661678004535	66	127
369.32421768707485	370.28784580498865	66	127
370.5200453514739	371.1702040816327	59	127
371.33274376417233	372.0060997732426	52	127
372.21507936507936	372.7839909297052	45	127
372.8884807256236	373.0626303854875	56	127
373.09746031746033	373.68956916099773	57	127
373.81727891156464	373.99142857142857	57	127
374.0262585034014	374.7112471655329	60	127
374.8273469387755	375.0827664399093	60	127
375.12920634920636	375.95351473922904	69	127
376.13927437641723	376.8823129251701	69	127
377.13773242630384	377.3234693877551	67	127
377.35832199546485	377.5092517006803	71	127
377.54408163265305	377.6950113378685	66	127
377.7298185941043	377.89238095238096	69	127
377.92721088435377	378.07814058956916	64	127
378.12458049886624	378.2871201814059	67	127
378.3219501133787	378.5077097505669	63	127
378.5425170068027	378.70507936507937	66	127
378.76312925170066	378.9488888888889	64	127
378.98371882086167	379.1462585034014	67	127
379.18108843537414	379.34362811791385	62	127
379.3900680272109	379.5177777777778	65	127
379.56419501133786	379.7267573696145	60	127
379.7615873015873	379.9125170068027	64	127
379.9473469387755	380.12149659863945	59	127
380.15632653061226	380.3304761904762	62	127
380.38850340136054	380.5394557823129	64	127
380.57428571428574	380.7252154195011	67	127
380.7832653061225	380.9225850340136	62	127
380.96902494331067	381.1431746031746	65	127
381.1780045351474	381.31732426303853	60	127
381.35215419501134	381.4914739229025	64	127
381.52630385487527	381.6772335600907	59	127
381.71206349206346	381.8397732426304	62	127
381.8746031746032	382.02553287981857	60	127
382.07197278911565	382.2345124716553	64	127
382.2693424036281	382.4086621315193	57	127
382.44349206349204	382.5944217687075	60	127
382.6292517006803	382.7801814058957	55	127
382.8150113378685	382.9078911564626	59	127
382.94272108843535	383.11687074829933	53	127
383.1749206349206	383.3142403628118	57	127
383.3722902494331	383.4651700680272	55	127
383.48839002267573	383.58126984126983	57	127
383.60448979591837	383.66253968253966	59	127
383.6857596371882	383.767029478458	54	127
383.79024943310657	383.88312925170067	55	127
383.9063492063492	384.02244897959184	57	127
384.0456689342404	384.1269387755102	55	127
384.15015873015875	384.2546485260771	57	127
384.2778684807256	384.3707482993197	59	127
384.4171882086168	384.5100680272109	54	127
384.5332879818594	384.61455782312925	55	127
384.6377777777778	384.7538775510204	57	127
384.77709750566896	384.86997732426306	55	127
384.9048072562358	384.97446712018143	57	127
384.9976870748299	385.0789569160998	59	127
385.1021768707483	385.20666666666665	66	127
385.2182766439909	385.311156462585	67	127
385.33437641723356	385.42725623582766	69	127
385.4504761904762	385.55496598639456	67	127
385.5781859410431	385.68267573696147	69	127
385.70589569160995	385.8103854875283	71	127
385.83360544217686	385.92648526077096	66	127
385.96131519274377	386.05419501133787	67	127
386.0774149659864	386.1819047619048	69	127
386.2051247165533	386.33283446712016	67	127
386.367664399093	386.4605442176871	69	127
386.50698412698415	386.6114739229025	71	127
386.634693877551	386.808843537415	66	127
386.84367346938774	386.9946031746032	69	127
387.0410430839002	387.31968253968256	67	127
387.3545124716553	387.517052154195	71	127
387.5518820861678	387.7028117913832	64	127
387.73764172335603	387.9001814058957	67	127
387.9350113378685	388.09755102040816	60	127
388.14399092970524	388.29492063492063	64	127
388.3413605442177	388.4458503401361	57	127
388.4922902494331	388.64321995464854	60	127
388.68965986394556	388.87541950113376	53	127
388.91024943310657	389.061179138322	57	127
389.09600907029477	389.29337868480724	48	127
389.32820861678005	389.502358276644	53	127
389.5371882086168	389.8970975056689	45	127
390.4775963718821	391.04648526077096	57	127
390.4775963718821	391.04648526077096	47	127
390.4775963718821	391.04648526077096	63	127
391.83596371882084	392.55578231292515	40	127
391.83596371882084	392.55578231292515	47	127
391.83596371882084	393.5310204081633	55	127
391.83596371882084	393.5310204081633	64	127
