# onset,offset,note,velocity
0.5100680272108844	1.0905668934240362	88	127
0.5100680272108844	1.0905668934240362	64	127
0.5100680272108844	1.0905668934240362	52	127
0.5100680272108844	1.0905668934240362	76	127
1.2066666666666668	1.8684353741496598	76	127
1.2066666666666668	1.8684353741496598	64	127
1.2066666666666668	1.903265306122449	40	127
1.2066666666666668	1.903265306122449	52	127
1.926485260770975	2.0774149659863945	54	127
2.112222222222222	2.25156462585034	55	127
2.2863718820861676	2.4024943310657596	54	127
2.4257142857142857	2.5418140589569163	55	127
2.576643990929705	2.6811337868480725	57	127
2.715963718820862	2.832063492063492	55	127
2.855283446712018	2.9829931972789114	57	127
3.041043083900227	3.180362811791383	59	127
3.2384126984126986	3.9001814058956916	52	127
3.9234013605442177	4.027891156462585	54	127
4.062721088435374	4.167210884353741	55	127
4.23687074829932	4.376190476190477	54	127
4.399410430839002	4.55031746031746	55	127
4.585170068027211	4.689659863945578	57	127
4.724467120181406	4.805759637188209	55	127
4.828979591836735	4.945056689342404	57	127
4.979909297052155	5.107619047619048	59	127
5.142448979591837	5.850634920634921	60	127
5.8854875283446715	6.001587301587302	51	127
6.0364172335600905	6.175736961451247	54	127
6.210566893424036	6.8723356009070296	59	127
6.895555555555555	7.023265306122449	57	127
7.058095238095238	7.185804988662132	55	127
7.220634920634921	7.325124716553288	54	127
7.348344671201814	7.487664399092971	55	127
7.52249433106576	7.661814058956916	57	127
7.696643990929705	7.847573696145124	55	127
7.870793650793651	7.975283446712018	52	127
8.010113378684807	8.149433106575964	51	127
8.184263038548753	8.300340136054421	49	127
8.323582766439909	8.43968253968254	51	127
8.474512471655329	8.613832199546485	52	127
8.6718820861678	9.101451247165533	83	127
8.6718820861678	9.101451247165533	71	127
8.6718820861678	9.101451247165533	47	127
8.6718820861678	9.101451247165533	51	127
9.171111111111111	9.74	71	127
9.171111111111111	9.74	59	127
9.35687074829932	9.531020408163265	59	127
9.62390022675737	9.844489795918367	57	127
9.89092970521542	10.12312925170068	54	127
10.16954648526077	10.378548752834467	55	127
10.448208616780045	10.65718820861678	49	127
10.703628117913832	10.88938775510204	54	127
10.993854875283446	11.179637188208616	47	127
11.411836734693878	11.527936507936507	59	127
11.551156462585034	11.713696145124716	57	127
11.76013605442177	11.95750566893424	54	127
11.99233560090703	12.178095238095239	55	127
12.22453514739229	12.421904761904761	49	127
12.468344671201814	12.642494331065759	54	127
12.688934240362812	12.90952380952381	47	127
13.188163265306123	13.408752834467121	54	127
13.455192743764172	13.640952380952381	52	127
13.687392290249432	13.896371882086168	46	127
14.221451247165533	14.407210884353741	52	127
14.453650793650795	14.651020408163266	51	127
14.697460317460317	14.894829931972788	47	127
14.941269841269841	15.12702947845805	46	127
15.185079365079366	15.370839002267573	49	127
15.417278911564626	15.614648526077097	47	127
15.672698412698413	15.858458049886622	52	127
15.89328798185941	16.079024943310657	51	127
16.137097505668933	16.34607709750567	54	127
16.39251700680272	16.7756462585034	76	127
16.39251700680272	16.7756462585034	88	127
16.39251700680272	16.566666666666666	52	127
16.61310657596372	16.822086167800453	40	127
16.88013605442177	17.553514739229026	64	127
16.88013605442177	17.089115646258502	43	127
16.88013605442177	17.553514739229026	76	127
17.147165532879818	17.356145124716555	43	127
17.402585034013605	17.797301587301586	52	127
17.588344671201813	17.704444444444444	66	127
17.72766439909297	17.8437641723356	67	127
17.87859410430839	17.92501133786848	51	127
17.87859410430839	17.971473922902494	66	127
17.936643990929706	17.95986394557823	52	127
17.971473922902494	18.006303854875284	51	127
18.006303854875284	18.134013605442178	67	127
18.017913832199547	18.075963718820862	52	127
18.087573696145125	18.134013605442178	51	127
18.14562358276644	18.192063492063493	52	127
18.157233560090702	18.273333333333333	69	127
18.203673469387756	18.25011337868481	51	127
18.25011337868481	18.296553287981858	52	127
18.308163265306124	18.44748299319728	67	127
18.308163265306124	18.517142857142858	52	127
18.482312925170067	18.61002267573696	69	127
18.56358276643991	18.760952380952382	40	127
18.656462585034014	18.772562358276645	71	127
18.80736961451247	19.37628117913832	64	127
18.80736961451247	19.004761904761907	43	127
19.051201814058956	19.202131519274378	43	127
19.248571428571427	19.608480725623583	52	127
19.41111111111111	19.527210884353742	66	127
19.550430839002267	19.67814058956916	67	127
19.701337868480724	19.74780045351474	50	127
19.701337868480724	19.829070294784582	66	127
19.75938775510204	19.805850340136054	52	127
19.817460317460316	19.875510204081632	50	127
19.86390022675737	19.991609977324263	67	127
19.887097505668933	19.933560090702947	52	127
19.94517006802721	19.991609977324263	50	127
20.003219954648525	20.04965986394558	52	127
20.026439909297054	20.14251700680272	69	127
20.06126984126984	20.107709750566894	50	127
20.119319727891156	20.16575963718821	52	127
20.17736961451247	20.305079365079365	67	127
20.17736961451247	20.374739229024943	55	127
20.339909297052156	20.46761904761905	69	127
20.43278911564626	20.606938775510205	43	127
20.502448979591836	20.618548752834467	71	127
20.66498866213152	21.31514739229025	72	127
20.66498866213152	20.920408163265307	52	127
20.978458049886623	21.16421768707483	40	127
21.21065759637188	21.384807256235828	54	127
21.361587301587303	21.466077097505668	63	127
21.43124716553288	21.59378684807256	42	127
21.47766439909297	21.61700680272109	66	127
21.651836734693877	22.255555555555556	71	127
21.651836734693877	21.849206349206348	51	127
21.8956462585034	22.069795918367348	39	127
22.1162358276644	22.325215419501134	52	127
22.290385487528344	22.418095238095237	69	127
22.371655328798187	22.534195011337868	40	127
22.452925170068028	22.557414965986396	67	127
22.58063492063492	22.95215419501134	47	127
22.58063492063492	22.68512471655329	66	127
22.719954648526077	22.824444444444445	67	127
22.859274376417233	23.021814058956917	69	127
23.04503401360544	23.172743764172335	67	127
23.04503401360544	23.242403628117913	52	127
23.207573696145126	23.33528344671202	64	127
23.288843537414966	23.474603174603175	40	127
23.370113378684806	23.4978231292517	63	127
23.53265306122449	23.927392290249433	42	127
23.53265306122449	23.64875283446712	61	127
23.68358276643991	23.822902494331064	63	127
23.857732426303855	23.99705215419501	64	127
24.02027210884354	24.147981859410432	35	127
24.02027210884354	24.21764172335601	63	127
24.18281179138322	24.29891156462585	47	127
24.26408163265306	24.426621315192744	75	127
24.322131519274375	24.461451247165535	49	127
24.48467120181406	24.635600907029477	51	127
24.48467120181406	24.902630385487527	69	127
24.670430839002268	24.809750566893424	49	127
24.844580498866215	24.972290249433108	47	127
24.995510204081633	25.1	49	127
24.995510204081633	25.16965986394558	67	127
25.13482993197279	25.262539682539682	52	127
25.21609977324263	25.401859410430838	79	127
25.297369614512473	25.425079365079366	54	127
25.459909297052153	25.587619047619047	55	127
25.459909297052153	25.81981859410431	71	127
25.622448979591837	25.71532879818594	54	127
25.761768707482993	25.889478458049886	52	127
25.91269841269841	26.01718820861678	70	127
25.91269841269841	26.086848072562358	54	127
26.05201814058957	26.179727891156464	71	127
26.13328798185941	26.31904761904762	42	127
26.21455782312925	26.342267573696144	73	127
26.365487528344673	26.78344671201814	47	127
26.365487528344673	26.493197278911566	74	127
26.528027210884353	26.690566893424037	73	127
26.725396825396825	26.853106575963718	71	127
26.876326530612246	26.98081632653061	73	127
26.876326530612246	27.062086167800455	54	127
27.015646258503402	27.154965986394558	76	127
27.108526077097505	27.294285714285714	42	127
27.18979591836735	27.317505668934242	78	127
27.340725623582767	27.491655328798185	79	127
27.340725623582767	27.74707482993197	46	127
27.526485260770976	27.65419501133787	78	127
27.689024943310656	27.805124716553287	76	127
27.828344671201815	27.95605442176871	75	127
27.828344671201815	28.03732426303855	47	127
28.00249433106576	28.106984126984127	76	127
28.072154195011336	28.23469387755102	51	127
28.13020408163265	28.257913832199545	78	127
28.281133786848073	28.466893424036282	49	127
28.281133786848073	28.408843537414967	79	127
28.43206349206349	28.559773242630385	78	127
28.513333333333332	28.68748299319728	52	127
28.594603174603176	28.710702947845807	76	127
28.73392290249433	28.966122448979593	51	127
28.73392290249433	28.873242630385487	78	127
28.931292517006803	29.03578231292517	81	127
28.989342403628118	29.18671201814059	54	127
29.07061224489796	29.22154195011338	83	127
29.244761904761905	29.349251700680274	84	127
29.244761904761905	29.41891156462585	47	127
29.38408163265306	29.511791383219954	83	127
29.4653514739229	29.662721088435376	59	127
29.546621315192745	29.6859410430839	81	127
29.709160997732425	30.115510204081634	64	127
29.709160997732425	29.825260770975056	79	127
29.709160997732425	30.115510204081634	52	127
29.860090702947847	29.98780045351474	78	127
30.05746031746032	30.17356009070295	76	127
30.208390022675736	30.812108843537416	40	127
30.208390022675736	30.812108843537416	52	127
30.463809523809523	30.63795918367347	76	127
30.463809523809523	30.63795918367347	88	127
30.696009070294785	30.881768707482994	74	127
30.696009070294785	30.881768707482994	86	127
30.846938775510203	30.963038548752834	42	127
30.91659863945578	31.10235827664399	83	127
30.91659863945578	31.10235827664399	71	127
30.997868480725625	31.12557823129252	43	127
31.160408163265306	31.264897959183674	42	127
31.160408163265306	31.334557823129252	72	127
31.160408163265306	31.334557823129252	84	127
31.29972789115646	31.415827664399092	43	127
31.36938775510204	31.555147392290248	66	127
31.36938775510204	31.555147392290248	78	127
31.450657596371883	31.578367346938776	45	127
31.613197278911564	31.740907029478457	43	127
31.613197278911564	31.798956916099772	83	127
31.613197278911564	31.798956916099772	71	127
31.764126984126985	31.86861678004535	45	127
31.8221768707483	32.007936507936506	76	127
31.8221768707483	32.007936507936506	64	127
31.90344671201814	32.03113378684807	47	127
32.07759637188209	32.72775510204082	40	127
32.32140589569161	32.530362811791385	88	127
32.32140589569161	32.530362811791385	76	127
32.60004535147392	32.762585034013604	74	127
32.60004535147392	32.762585034013604	86	127
32.72775510204082	32.85546485260771	42	127
32.80902494331066	32.983174603174604	71	127
32.80902494331066	32.983174603174604	83	127
32.8902947845805	32.994784580498866	43	127
33.04120181405896	33.145714285714284	42	127
33.04120181405896	33.2037641723356	72	127
33.04120181405896	33.2037641723356	84	127
33.16891156462585	33.296621315192745	43	127
33.25020408163265	33.435963718820865	66	127
33.25020408163265	33.435963718820865	78	127
33.319863945578234	33.44757369614513	45	127
33.482403628117915	33.58689342403628	43	127
33.482403628117915	33.644943310657595	71	127
33.482403628117915	33.644943310657595	83	127
33.61011337868481	33.7378231292517	45	127
33.69138321995465	33.87714285714286	76	127
33.69138321995465	33.87714285714286	64	127
33.77265306122449	33.88875283446712	47	127
33.90036281179138	34.52730158730159	48	127
34.132562358276644	34.32993197278912	83	127
34.132562358276644	34.32993197278912	71	127
34.38798185941043	34.585351473922906	81	127
34.38798185941043	34.585351473922906	69	127
34.55052154195011	34.65501133786848	39	127
34.62018140589569	34.794331065759636	75	127
34.62018140589569	34.794331065759636	63	127
34.68981859410431	34.8059410430839	42	127
34.84077097505669	35.444489795918365	47	127
35.061360544217685	35.25873015873016	81	127
35.061360544217685	35.25873015873016	69	127
35.30517006802721	35.502539682539684	67	127
35.30517006802721	35.502539682539684	79	127
35.4677097505669	35.59541950113379	45	127
35.54897959183673	35.72312925170068	73	127
35.54897959183673	35.72312925170068	61	127
35.63024943310658	35.734739229024946	43	127
35.76956916099773	35.92049886621315	42	127
35.76956916099773	35.96691609977324	63	127
35.76956916099773	35.96691609977324	75	127
35.943718820861676	36.05981859410431	43	127
36.01337868480726	36.22233560090703	66	127
36.01337868480726	36.22233560090703	78	127
36.117868480725626	36.23396825396826	45	127
36.268798185941044	36.384897959183675	43	127
36.268798185941044	36.44294784580499	64	127
36.268798185941044	36.44294784580499	76	127
36.4081179138322	36.53582766439909	40	127
36.489387755102044	36.68675736961451	67	127
36.489387755102044	36.68675736961451	79	127
36.57065759637188	36.698367346938774	39	127
36.73319727891157	36.86090702947846	37	127
36.73319727891157	36.90734693877551	58	127
36.73319727891157	36.90734693877551	70	127
36.872517006802724	37.00022675736962	39	127
36.95378684807256	37.151156462585035	61	127
36.95378684807256	37.151156462585035	73	127
37.035056689342404	37.1627664399093	40	127
37.197596371882085	37.418185941043085	59	127
37.197596371882085	37.418185941043085	71	127
37.197596371882085	37.418185941043085	39	127
37.464625850340134	37.65038548752835	59	127
37.464625850340134	37.65038548752835	71	127
37.464625850340134	37.65038548752835	51	127
37.685215419501134	37.85934240362812	63	127
37.685215419501134	37.85934240362812	75	127
37.685215419501134	37.85934240362812	47	127
37.90580498866213	38.114761904761906	47	127
37.90580498866213	38.114761904761906	63	127
37.90580498866213	38.114761904761906	75	127
38.16122448979592	38.5443537414966	71	127
38.16122448979592	38.5443537414966	83	127
38.16122448979592	38.5443537414966	39	127
38.62560090702948	38.672063492063494	82	127
38.62560090702948	38.997142857142855	70	127
38.62560090702948	38.997142857142855	40	127
38.683673469387756	38.730113378684806	83	127
38.74172335600907	38.77655328798186	82	127
38.788163265306125	38.834603174603174	83	127
38.84621315192744	38.86943310657596	82	127
38.881020408163266	38.93909297052154	83	127
38.96231292517007	39.03197278911565	80	127
39.04358276643991	39.09002267573696	82	127
39.10163265306122	39.2990022675737	39	127
39.10163265306122	39.2990022675737	71	127
39.10163265306122	39.2990022675737	83	127
39.35705215419501	39.56603174603175	59	127
39.35705215419501	39.56603174603175	71	127
39.35705215419501	39.56603174603175	51	127
39.6124716553288	39.80984126984127	75	127
39.6124716553288	39.80984126984127	63	127
39.6124716553288	39.80984126984127	47	127
39.879501133786846	40.07687074829932	75	127
39.879501133786846	40.07687074829932	47	127
40.13492063492063	40.47160997732426	83	127
40.13492063492063	40.47160997732426	71	127
40.13492063492063	40.47160997732426	39	127
40.13492063492063	40.47160997732426	51	127
40.55287981859411	40.59931972789116	84	127
40.55287981859411	40.866349206349206	72	127
40.55287981859411	40.866349206349206	50	127
40.55287981859411	40.866349206349206	38	127
40.61092970521542	40.634149659863944	85	127
40.645759637188206	40.65734693877551	84	127
40.66897959183674	40.703809523809525	85	127
40.71541950113379	40.76185941043084	84	127
40.7734693877551	40.83151927437642	85	127
40.84312925170068	40.88956916099773	83	127
40.90117913832199	40.94761904761905	84	127
40.95922902494331	41.133378684807255	73	127
40.95922902494331	41.133378684807255	37	127
40.95922902494331	41.133378684807255	49	127
40.95922902494331	41.133378684807255	85	127
41.168185941043085	41.353968253968254	73	127
41.168185941043085	41.353968253968254	61	127
41.168185941043085	41.353968253968254	53	127
41.400408163265304	41.56294784580499	49	127
41.400408163265304	41.56294784580499	65	127
41.400408163265304	41.56294784580499	77	127
41.60938775510204	41.80673469387755	77	127
41.60938775510204	41.80673469387755	49	127
41.60938775510204	41.80673469387755	65	127
41.853197278911566	42.21310657596372	41	127
41.853197278911566	42.21310657596372	85	127
41.853197278911566	42.21310657596372	73	127
41.853197278911566	42.21310657596372	53	127
42.30596371882086	42.665895691609975	42	127
42.30596371882086	42.340816326530614	84	127
42.30596371882086	42.665895691609975	72	127
42.30596371882086	42.665895691609975	54	127
42.35242630385488	42.398866213151926	85	127
42.398866213151926	42.433673469387756	84	127
42.44530612244898	42.49174603174603	85	127
42.503356009070295	42.56138321995465	84	127
42.573015873015876	42.63106575963719	85	127
42.64267573696145	42.70072562358277	83	127
42.71233560090703	42.75877551020408	84	127
42.770385487528344	42.96775510204082	85	127
42.770385487528344	42.96775510204082	73	127
42.770385487528344	42.96775510204082	41	127
42.770385487528344	42.96775510204082	53	127
43.01419501133787	43.199931972789116	61	127
43.01419501133787	43.199931972789116	73	127
43.01419501133787	43.199931972789116	53	127
43.24639455782313	43.42054421768707	65	127
43.24639455782313	43.42054421768707	77	127
43.24639455782313	43.42054421768707	49	127
43.46698412698413	43.6643537414966	77	127
43.46698412698413	43.6643537414966	65	127
43.46698412698413	43.6643537414966	49	127
43.710793650793654	44.1055328798186	41	127
43.710793650793654	44.1055328798186	85	127
43.710793650793654	44.1055328798186	73	127
43.710793650793654	44.1055328798186	53	127
44.198412698412696	44.9646485260771	74	127
44.198412698412696	44.9646485260771	52	127
44.198412698412696	44.9646485260771	40	127
44.198412698412696	44.9646485260771	44	127
44.198412698412696	44.256462585034015	86	127
44.26807256235828	44.31451247165533	88	127
44.31451247165533	44.34934240362812	86	127
44.34934240362812	44.38417233560091	88	127
44.39578231292517	44.43061224489796	86	127
44.44222222222222	44.46541950113379	88	127
44.477052154195015	44.5118820861678	86	127
44.523492063492064	44.569931972789114	88	127
44.581541950113376	44.9646485260771	86	127
45.069160997732425	45.11560090702948	87	127
45.069160997732425	45.82380952380952	75	127
45.069160997732425	45.82380952380952	39	127
45.069160997732425	45.82380952380952	44	127
45.069160997732425	45.82380952380952	51	127
45.127210884353744	45.16204081632653	88	127
45.17365079365079	45.20848072562358	87	127
45.220068027210885	45.2665306122449	88	127
45.289750566893424	45.336190476190474	87	127
45.34777777777778	45.39424036281179	88	127
45.405850340136055	45.452290249433105	87	127
45.46390022675737	45.510340136054424	88	127
45.521950113378686	45.92829931972789	87	127
46.021179138322	46.891927437641726	35	127
46.021179138322	46.891927437641726	47	127
46.021179138322	46.891927437641726	42	127
46.021179138322	46.891927437641726	78	127
46.021179138322	46.06761904761905	90	127
46.021179138322	46.891927437641726	87	127
46.07922902494331	46.125668934240366	92	127
46.13727891156463	46.172108843537416	90	127
46.18371882086168	46.25337868480726	92	127
46.26498866213152	46.31142857142857	90	127
46.323038548752834	46.35784580498866	92	127
46.369455782312926	46.41591836734694	90	127
46.4275283446712	46.47396825396825	92	127
46.48555555555556	46.891927437641726	90	127
46.984807256235825	47.41437641723356	88	127
46.984807256235825	47.41437641723356	91	127
46.984807256235825	47.41437641723356	79	127
46.984807256235825	47.41437641723356	40	127
46.984807256235825	47.41437641723356	28	127
47.51886621315193	48.97011337868481	52	127
47.51886621315193	48.97011337868481	67	127
47.51886621315193	48.97011337868481	76	127
47.51886621315193	48.97011337868481	79	127
47.51886621315193	48.97011337868481	64	127
47.51886621315193	48.97011337868481	55	127
49.004943310657595	49.121043083900226	81	127
49.004943310657595	49.121043083900226	54	127
49.004943310657595	49.121043083900226	57	127
49.004943310657595	49.121043083900226	78	127
49.16748299319728	49.295192743764176	79	127
49.16748299319728	49.295192743764176	58	127
49.16748299319728	49.295192743764176	55	127
49.16748299319728	49.295192743764176	82	127
49.3184126984127	49.42290249433107	81	127
49.3184126984127	49.42290249433107	54	127
49.3184126984127	49.42290249433107	57	127
49.3184126984127	49.42290249433107	78	127
49.446122448979594	49.58544217687075	58	127
49.446122448979594	49.58544217687075	82	127
49.446122448979594	49.58544217687075	79	127
49.446122448979594	49.58544217687075	55	127
49.608662131519274	49.73637188208617	60	127
49.608662131519274	49.73637188208617	81	127
49.608662131519274	49.73637188208617	57	127
49.608662131519274	49.73637188208617	84	127
49.79442176870748	49.93374149659864	82	127
49.79442176870748	49.93374149659864	55	127
49.79442176870748	49.93374149659864	58	127
49.79442176870748	49.93374149659864	79	127
49.96857142857143	50.107891156462586	84	127
49.96857142857143	50.107891156462586	81	127
49.96857142857143	50.107891156462586	57	127
49.96857142857143	50.107891156462586	60	127
50.14272108843537	50.270430839002266	86	127
50.14272108843537	50.270430839002266	82	127
50.14272108843537	50.270430839002266	62	127
50.14272108843537	50.270430839002266	58	127
50.29365079365079	51.00185941043084	79	127
50.29365079365079	51.00185941043084	76	127
50.29365079365079	51.00185941043084	52	127
50.29365079365079	51.00185941043084	55	127
51.036689342403626	51.17600907029478	81	127
51.036689342403626	51.17600907029478	57	127
51.036689342403626	51.17600907029478	54	127
51.036689342403626	51.17600907029478	78	127
51.22244897959184	51.33854875283447	79	127
51.22244897959184	51.33854875283447	58	127
51.22244897959184	51.33854875283447	55	127
51.22244897959184	51.33854875283447	82	127
51.37337868480726	51.48947845804989	78	127
51.37337868480726	51.48947845804989	54	127
51.37337868480726	51.48947845804989	57	127
51.37337868480726	51.48947845804989	81	127
51.524308390022675	51.67523809523809	55	127
51.524308390022675	51.67523809523809	79	127
51.524308390022675	51.67523809523809	82	127
51.524308390022675	51.67523809523809	58	127
51.71006802721089	51.83777777777778	60	127
51.71006802721089	51.83777777777778	57	127
51.71006802721089	51.83777777777778	84	127
51.71006802721089	51.83777777777778	81	127
51.87260770975057	52.00031746031746	79	127
51.87260770975057	52.00031746031746	55	127
51.87260770975057	52.00031746031746	82	127
51.87260770975057	52.00031746031746	58	127
52.03514739229025	52.16285714285714	81	127
52.03514739229025	52.16285714285714	84	127
52.03514739229025	52.16285714285714	55	127
52.03514739229025	52.16285714285714	60	127
52.20929705215419	52.32539682539682	86	127
52.20929705215419	52.32539682539682	82	127
52.20929705215419	52.32539682539682	62	127
52.20929705215419	52.32539682539682	58	127
52.36022675736962	52.95233560090703	60	127
52.36022675736962	52.95233560090703	84	127
52.36022675736962	52.95233560090703	88	127
52.36022675736962	52.95233560090703	64	127
52.98716553287982	53.13809523809524	79	127
52.98716553287982	53.13809523809524	55	127
53.17292517006803	53.28902494331066	88	127
53.17292517006803	53.28902494331066	64	127
53.323854875283445	53.84630385487528	65	127
53.323854875283445	53.84630385487528	57	127
53.323854875283445	53.84630385487528	89	127
53.323854875283445	53.84630385487528	81	127
53.323854875283445	53.84630385487528	84	127
53.323854875283445	53.84630385487528	60	127
53.881133786848075	54.00884353741497	81	127
53.881133786848075	54.00884353741497	57	127
54.043673469387755	54.18299319727891	89	127
54.043673469387755	54.18299319727891	65	127
54.206213151927436	54.83315192743764	93	127
54.206213151927436	54.83315192743764	84	127
54.206213151927436	54.83315192743764	60	127
54.206213151927436	54.83315192743764	69	127
54.86798185941043	55.01891156462585	81	127
54.86798185941043	55.01891156462585	69	127
55.0653514739229	55.18145124716553	93	127
55.0653514739229	55.18145124716553	57	127
55.20467120181406	55.796780045351476	99	127
55.20467120181406	55.796780045351476	87	127
55.20467120181406	55.796780045351476	57	127
55.20467120181406	55.796780045351476	59	127
55.20467120181406	55.796780045351476	47	127
55.20467120181406	55.796780045351476	54	127
55.83160997732426	55.93609977324263	69	127
55.83160997732426	56.713968253968254	57	127
55.97092970521542	56.110249433106574	81	127
55.97092970521542	56.713968253968254	54	127
56.1334693877551	56.713968253968254	87	127
56.1334693877551	56.713968253968254	75	127
56.1334693877551	56.713968253968254	47	127
56.74879818594104	56.8881179138322	69	127
56.74879818594104	56.8881179138322	57	127
56.92294784580499	57.108707482993196	81	127
56.92294784580499	57.108707482993196	54	127
57.13192743764172	57.27124716553288	87	127
57.13192743764172	57.27124716553288	75	127
57.13192743764172	57.27124716553288	47	127
57.30607709750567	57.433786848072565	69	127
57.30607709750567	57.433786848072565	57	127
57.46861678004535	57.57310657596372	54	127
57.46861678004535	57.57310657596372	81	127
57.596326530612245	57.7356462585034	87	127
57.596326530612245	57.7356462585034	47	127
57.596326530612245	57.7356462585034	75	127
57.77047619047619	57.89818594104308	69	127
57.77047619047619	57.89818594104308	57	127
57.933015873015876	58.06072562358277	75	127
57.933015873015876	58.06072562358277	87	127
57.933015873015876	58.06072562358277	54	127
58.095555555555556	58.23487528344671	78	127
58.095555555555556	58.23487528344671	90	127
58.095555555555556	58.23487528344671	47	127
58.2697052154195	58.43224489795919	81	127
58.2697052154195	58.43224489795919	69	127
58.2697052154195	58.43224489795919	59	127
58.478684807256236	58.61800453514739	75	127
58.478684807256236	58.61800453514739	87	127
58.478684807256236	58.61800453514739	47	127
58.64122448979592	60.046031746031744	76	127
58.64122448979592	59.070793650793654	79	127
58.64122448979592	59.070793650793654	83	127
58.64122448979592	59.070793650793654	88	127
58.64122448979592	59.070793650793654	52	127
58.64122448979592	59.070793650793654	43	127
58.64122448979592	59.070793650793654	47	127
58.64122448979592	59.070793650793654	40	127
59.16367346938775	59.349433106575965	64	127
59.16367346938775	59.349433106575965	88	127
59.16367346938775	60.046031746031744	52	127
59.38426303854875	59.558412698412695	86	127
59.38426303854875	59.558412698412695	62	127
59.59324263038549	59.732562358276645	60	127
59.59324263038549	59.732562358276645	84	127
59.75578231292517	59.8718820861678	86	127
59.75578231292517	59.8718820861678	62	127
59.90671201814059	60.046031746031744	60	127
59.90671201814059	60.046031746031744	84	127
60.08086167800454	60.19696145124716	83	127
60.08086167800454	60.19696145124716	59	127
60.220181405895694	60.37111111111111	84	127
60.220181405895694	60.37111111111111	60	127
60.220181405895694	60.603310657596374	76	127
60.220181405895694	60.603310657596374	52	127
60.429160997732424	60.52204081632653	59	127
60.429160997732424	60.52204081632653	83	127
60.55687074829932	60.661360544217686	81	127
60.55687074829932	60.661360544217686	57	127
60.68458049886621	61.27668934240363	88	127
60.68458049886621	61.77591836734694	76	127
60.68458049886621	61.77591836734694	52	127
61.29990929705215	61.416009070294784	86	127
61.45083900226757	61.578548752834465	84	127
61.59015873015873	61.70625850340136	86	127
61.74108843537415	61.868798185941046	84	127
61.90362811791383	62.031337868480726	83	127
62.06616780045351	62.460907029478456	52	127
62.06616780045351	62.20548752834467	84	127
62.06616780045351	62.460907029478456	76	127
62.24031746031746	62.36802721088436	83	127
62.402857142857144	62.5421768707483	81	127
62.611836734693874	63.006575963718824	79	127
62.611836734693874	63.006575963718824	83	127
62.611836734693874	63.006575963718824	55	127
62.611836734693874	63.006575963718824	52	127
62.611836734693874	63.25038548752835	88	127
62.611836734693874	63.25038548752835	64	127
63.111065759637185	63.5174149659864	79	127
63.111065759637185	63.5174149659864	82	127
63.111065759637185	63.5174149659864	55	127
63.111065759637185	63.5174149659864	58	127
63.285215419501135	63.41292517006803	62	127
63.285215419501135	63.41292517006803	86	127
63.45936507936508	63.58707482993197	85	127
63.45936507936508	63.58707482993197	61	127
63.62190476190476	63.993424036281176	78	127
63.62190476190476	63.993424036281176	81	127
63.62190476190476	63.993424036281176	54	127
63.62190476190476	63.993424036281176	57	127
63.62190476190476	64.21401360544218	86	127
63.62190476190476	64.21401360544218	62	127
64.08630385487528	64.45782312925171	77	127
64.08630385487528	64.45782312925171	80	127
64.08630385487528	64.45782312925171	56	127
64.08630385487528	64.45782312925171	53	127
64.2372335600907	64.3649433106576	60	127
64.2372335600907	64.3649433106576	84	127
64.39977324263039	64.51587301587301	83	127
64.39977324263039	64.51587301587301	59	127
64.5507029478458	65.18925170068027	84	127
64.5507029478458	64.95705215419501	79	127
64.5507029478458	64.95705215419501	76	127
64.5507029478458	64.95705215419501	55	127
64.5507029478458	64.95705215419501	52	127
64.5507029478458	65.18925170068027	60	127
65.06154195011338	65.43306122448979	78	127
65.06154195011338	65.43306122448979	54	127
65.06154195011338	65.43306122448979	52	127
65.06154195011338	65.43306122448979	76	127
65.2124716553288	65.34018140589569	83	127
65.2124716553288	65.34018140589569	59	127
65.37501133786849	65.49111111111111	81	127
65.37501133786849	65.49111111111111	57	127
65.5259410430839	65.72331065759637	71	127
65.5259410430839	65.72331065759637	83	127
65.5259410430839	65.72331065759637	78	127
65.5259410430839	65.72331065759637	51	127
65.5259410430839	65.72331065759637	54	127
65.5259410430839	65.72331065759637	59	127
65.76975056689342	66.08321995464853	79	127
65.76975056689342	66.08321995464853	67	127
65.76975056689342	66.08321995464853	76	127
65.76975056689342	66.08321995464853	52	127
65.76975056689342	66.08321995464853	55	127
66.14126984126985	66.39668934240363	76	127
66.14126984126985	66.39668934240363	52	127
66.14126984126985	66.69854875283447	78	127
66.14126984126985	66.69854875283447	71	127
66.14126984126985	66.69854875283447	66	127
66.14126984126985	66.69854875283447	59	127
66.14126984126985	66.69854875283447	47	127
66.14126984126985	66.69854875283447	54	127
66.48956916099773	66.75659863945579	75	127
66.48956916099773	66.75659863945579	51	127
66.82625850340136	67.32548752834467	52	127
66.82625850340136	67.32548752834467	67	127
66.82625850340136	67.32548752834467	71	127
66.82625850340136	67.32548752834467	76	127
66.82625850340136	67.32548752834467	47	127
66.82625850340136	67.32548752834467	43	127
66.82625850340136	67.62734693877552	64	127
66.82625850340136	67.62734693877552	40	127
67.65056689342404	67.77827664399094	42	127
67.65056689342404	67.77827664399094	66	127
67.81310657596372	67.94081632653061	43	127
67.81310657596372	67.94081632653061	67	127
67.9756462585034	68.1149433106576	66	127
67.9756462585034	68.1149433106576	42	127
68.13818594104309	68.28911564625851	67	127
68.13818594104309	68.28911564625851	43	127
68.32394557823129	68.4748752834467	45	127
68.32394557823129	68.4748752834467	69	127
68.5097052154195	68.64902494331066	67	127
68.5097052154195	68.64902494331066	43	127
68.67224489795919	68.79995464852608	69	127
68.67224489795919	68.79995464852608	45	127
68.84639455782313	68.97410430839003	47	127
68.84639455782313	68.97410430839003	71	127
69.00891156462585	69.40367346938775	72	127
69.00891156462585	69.40367346938775	69	127
69.00891156462585	69.40367346938775	45	127
69.00891156462585	69.40367346938775	48	127
69.00891156462585	69.62424036281179	64	127
69.00891156462585	69.62424036281179	40	127
69.4849433106576	69.62424036281179	67	127
69.4849433106576	69.62424036281179	43	127
69.4849433106576	69.62424036281179	47	127
69.4849433106576	69.62424036281179	71	127
69.64746031746031	69.74036281179139	66	127
69.64746031746031	69.74036281179139	42	127
69.77517006802721	69.8912925170068	67	127
69.77517006802721	69.8912925170068	43	127
69.9261224489796	70.05383219954649	66	127
69.9261224489796	70.05383219954649	42	127
70.07705215419502	70.18154195011338	67	127
70.07705215419502	70.18154195011338	43	127
70.21637188208616	70.35569160997733	69	127
70.21637188208616	70.35569160997733	45	127
70.39049886621315	70.50662131519275	67	127
70.39049886621315	70.50662131519275	43	127
70.52984126984127	70.66916099773243	69	127
70.52984126984127	70.66916099773243	45	127
70.70399092970521	70.8317006802721	71	127
70.70399092970521	70.8317006802721	47	127
70.8665306122449	71.26126984126984	72	127
70.8665306122449	71.26126984126984	69	127
70.8665306122449	71.26126984126984	48	127
70.8665306122449	71.26126984126984	45	127
70.8665306122449	71.4934693877551	64	127
70.8665306122449	71.4934693877551	40	127
71.35414965986395	71.4934693877551	71	127
71.35414965986395	71.4934693877551	43	127
71.35414965986395	71.4934693877551	47	127
71.35414965986395	71.4934693877551	67	127
71.51668934240362	71.63278911564626	66	127
71.51668934240362	71.63278911564626	42	127
71.67922902494331	71.8069387755102	43	127
71.67922902494331	71.8069387755102	67	127
71.88820861678005	72.57319727891156	64	127
71.88820861678005	72.32938775510205	72	127
71.88820861678005	72.32938775510205	69	127
71.88820861678005	72.32938775510205	45	127
71.88820861678005	72.32938775510205	48	127
71.88820861678005	72.57319727891156	40	127
72.42226757369615	72.57319727891156	71	127
72.42226757369615	72.57319727891156	43	127
72.42226757369615	72.57319727891156	47	127
72.42226757369615	72.57319727891156	67	127
72.61963718820861	72.74734693877551	42	127
72.61963718820861	72.74734693877551	66	127
72.7821768707483	72.95632653061224	67	127
72.7821768707483	72.95632653061224	43	127
73.0027664399093	73.14208616780046	40	127
73.0027664399093	73.78063492063492	48	127
73.0027664399093	73.14208616780046	64	127
73.0027664399093	73.78063492063492	69	127
73.0027664399093	73.78063492063492	72	127
73.0027664399093	73.78063492063492	45	127
73.1885260770975	73.30460317460317	42	127
73.1885260770975	73.30460317460317	66	127
73.3278231292517	73.45553287981859	43	127
73.3278231292517	73.45553287981859	67	127
73.49038548752834	73.61809523809524	64	127
73.49038548752834	73.61809523809524	40	127
73.65292517006803	73.78063492063492	42	127
73.65292517006803	73.78063492063492	66	127
73.81544217687075	73.94315192743764	43	127
73.81544217687075	73.94315192743764	67	127
73.98961451247166	74.10571428571428	40	127
73.98961451247166	74.68621315192743	71	127
73.98961451247166	74.10571428571428	64	127
73.98961451247166	74.68621315192743	47	127
74.14054421768708	74.2566439909297	66	127
74.14054421768708	74.2566439909297	42	127
74.26825396825397	74.3843537414966	67	127
74.26825396825397	74.3843537414966	43	127
74.41918367346939	74.53528344671201	64	127
74.41918367346939	74.53528344671201	40	127
74.57011337868481	74.68621315192743	42	127
74.57011337868481	74.68621315192743	66	127
74.709410430839	74.8371201814059	67	127
74.709410430839	74.8371201814059	43	127
74.88358276643991	75.68467120181406	46	127
74.88358276643991	75.03451247165533	64	127
74.88358276643991	75.03451247165533	40	127
74.88358276643991	75.68467120181406	70	127
75.06934240362811	75.197052154195	66	127
75.06934240362811	75.197052154195	42	127
75.22024943310657	75.34795918367347	43	127
75.22024943310657	75.34795918367347	67	127
75.39442176870749	75.52213151927438	40	127
75.39442176870749	75.52213151927438	64	127
75.55696145124716	75.68467120181406	66	127
75.55696145124716	75.68467120181406	42	127
75.70789115646258	75.83560090702947	67	127
75.70789115646258	75.83560090702947	43	127
75.90526077097506	76.67151927437642	58	127
75.90526077097506	76.03297052154196	64	127
75.90526077097506	76.03297052154196	52	127
75.90526077097506	76.67151927437642	70	127
76.05619047619048	76.1722902494331	66	127
76.05619047619048	76.1722902494331	54	127
76.19551020408163	76.31160997732427	67	127
76.19551020408163	76.31160997732427	55	127
76.34641723356009	76.49734693877551	64	127
76.34641723356009	76.49734693877551	52	127
76.53219954648526	76.67151927437642	54	127
76.53219954648526	76.67151927437642	66	127
76.69473922902495	76.8340589569161	67	127
76.69473922902495	76.8340589569161	55	127
76.86888888888889	76.99659863945578	64	127
76.86888888888889	76.99659863945578	52	127
76.86888888888889	77.69319727891157	57	127
76.86888888888889	77.69319727891157	69	127
77.03142857142858	77.17074829931973	66	127
77.03142857142858	77.17074829931973	54	127
77.19396825396825	77.32167800453514	55	127
77.19396825396825	77.32167800453514	67	127
77.39133786848073	77.51904761904763	52	127
77.39133786848073	77.51904761904763	64	127
77.5538775510204	77.69319727891157	54	127
77.5538775510204	77.69319727891157	66	127
77.7164172335601	77.83251700680272	55	127
77.7164172335601	77.83251700680272	67	127
77.86734693877551	78.01827664399093	37	127
77.86734693877551	78.01827664399093	69	127
77.86734693877551	78.70326530612245	81	127
78.05310657596372	78.18081632653062	45	127
78.05310657596372	78.18081632653062	76	127
78.2156462585034	78.36657596371882	49	127
78.2156462585034	78.36657596371882	79	127
78.40140589569161	78.51748299319728	37	127
78.40140589569161	78.51748299319728	69	127
78.55233560090703	78.70326530612245	76	127
78.55233560090703	78.70326530612245	45	127
78.73809523809524	78.86580498866213	79	127
78.73809523809524	78.86580498866213	49	127
78.90061224489796	79.66687074829932	57	127
78.90061224489796	79.01673469387755	63	127
78.90061224489796	79.01673469387755	51	127
78.90061224489796	79.66687074829932	69	127
79.05156462585035	79.16766439909297	66	127
79.05156462585035	79.16766439909297	54	127
79.1908843537415	79.30698412698413	55	127
79.1908843537415	79.30698412698413	67	127
79.34181405895691	79.49274376417233	51	127
79.34181405895691	79.49274376417233	63	127
79.52757369614513	79.66687074829932	66	127
79.52757369614513	79.66687074829932	54	127
79.69011337868481	79.8178231292517	55	127
79.69011337868481	79.8178231292517	67	127
79.86426303854876	79.99197278911565	36	127
79.86426303854876	80.66532879818594	81	127
79.86426303854876	79.99197278911565	69	127
80.02678004535147	80.16612244897959	75	127
80.02678004535147	80.16612244897959	45	127
80.18934240362812	80.34027210884354	79	127
80.18934240362812	80.34027210884354	48	127
80.37510204081633	80.49120181405895	69	127
80.37510204081633	80.49120181405895	36	127
80.53761904761905	80.66532879818594	75	127
80.53761904761905	80.66532879818594	45	127
80.68854875283446	80.83950113378685	79	127
80.68854875283446	80.83950113378685	48	127
80.89755102040816	81.68700680272109	57	127
80.89755102040816	81.02526077097505	62	127
80.89755102040816	81.02526077097505	50	127
80.89755102040816	81.68700680272109	69	127
81.06009070294785	81.18780045351474	65	127
81.06009070294785	81.18780045351474	53	127
81.21102040816326	81.36195011337868	54	127
81.21102040816326	81.36195011337868	66	127
81.39678004535148	81.5128798185941	50	127
81.39678004535148	81.5128798185941	62	127
81.5477097505669	81.68700680272109	65	127
81.5477097505669	81.68700680272109	53	127
81.71024943310658	81.84956916099773	54	127
81.71024943310658	81.84956916099773	66	127
81.88439909297053	82.03532879818594	69	127
81.88439909297053	82.10498866213152	36	127
81.88439909297053	84.33410430839002	81	127
82.07013605442177	82.19784580498866	74	127
82.15142857142857	82.31396825396826	48	127
82.20947845804989	82.32555555555555	78	127
82.3604081632653	82.55777777777777	36	127
82.3604081632653	82.4881179138322	69	127
82.52294784580499	82.65065759637189	74	127
82.60421768707484	82.76675736961451	48	127
82.68548752834467	82.77836734693878	78	127
82.81319727891156	83.01056689342404	36	127
82.81319727891156	82.9408843537415	69	127
82.97573696145125	83.11505668934241	74	127
83.06859410430839	83.2427664399093	48	127
83.14988662131519	83.25437641723356	78	127
83.28920634920635	83.50979591836735	36	127
83.28920634920635	83.4285260770975	69	127
83.4749433106576	83.60265306122449	74	127
83.5562358276644	83.74199546485261	48	127
83.63750566893424	83.75360544217688	78	127
83.78843537414966	83.96256235827664	36	127
83.78843537414966	83.9045351473923	69	127
83.93936507936507	84.05546485260771	74	127
84.00902494331066	84.20639455782313	48	127
84.09027210884354	84.21798185941043	78	127
84.25283446712018	84.42698412698412	36	127
84.25283446712018	84.36893424036282	69	127
84.39215419501134	84.48503401360544	74	127
84.46181405895692	84.63596371882086	48	127
84.51986394557824	84.65918367346939	78	127
84.68240362811791	84.87977324263039	36	127
84.92621315192744	85.11195011337868	48	127
85.13519274376418	85.30934240362812	36	127
85.3441723356009	85.54154195011338	48	127
85.58798185941043	85.7853514739229	36	127
85.58798185941043	85.95950113378684	64	127
85.83179138321995	86.00591836734694	48	127
86.05238095238096	86.6677097505669	76	127
86.05238095238096	86.24975056689343	36	127
86.29619047619047	86.48195011337869	48	127
86.52839002267574	86.73736961451247	36	127
86.70253968253968	86.81863945578232	74	127
86.78380952380952	86.94634920634921	48	127
86.8534693877551	86.96956916099774	72	127
86.99278911564626	87.14371882086168	35	127
86.99278911564626	87.0740589569161	74	127
87.09727891156463	87.22498866213152	72	127
87.19015873015873	87.35269841269842	47	127
87.25979591836735	87.37591836734694	71	127
87.39913832199547	87.78226757369615	69	127
87.39913832199547	87.59650793650793	36	127
87.64292517006803	87.8287074829932	48	127
87.87514739229024	88.40918367346939	81	127
87.87514739229024	88.07251700680273	36	127
88.09573696145125	88.2350566893424	48	127
88.28147392290249	88.46725623582766	36	127
88.43242630385488	88.5485260770975	79	127
88.50208616780046	88.69945578231292	48	127
88.5833560090703	88.72267573696145	78	127
88.74589569160997	88.95487528344671	35	127
88.74589569160997	88.88521541950114	79	127
88.92002267573696	89.03614512471655	76	127
89.00131519274376	89.16385487528345	47	127
89.07097505668935	89.80240362811791	74	127
89.2102947845805	89.41927437641723	36	127
89.2102947845805	89.80240362811791	86	127
89.46571428571428	89.63986394557823	48	127
89.68628117913832	89.86045351473923	36	127
89.83723356009071	89.95333333333333	84	127
89.90689342403628	90.08104308390023	48	127
89.98816326530613	90.10426303854875	83	127
90.12748299319728	90.24358276643991	84	127
90.12748299319728	90.30160997732426	36	127
90.2784126984127	90.38290249433106	83	127
90.34807256235828	90.51061224489796	48	127
90.41773242630386	90.52222222222223	81	127
90.54544217687075	90.7195918367347	35	127
90.54544217687075	90.9053514739229	79	127
90.76603174603174	90.95179138321996	47	127
90.998231292517	91.17238095238095	36	127
90.998231292517	91.49746031746032	91	127
91.21882086167801	91.35814058956916	48	127
91.40458049886621	91.5671201814059	36	127
91.5322902494331	91.66	90	127
91.61356009070295	91.78770975056689	48	127
91.69482993197279	91.79931972789116	88	127
91.82253968253968	91.95024943310658	90	127
91.82253968253968	92.01990929705215	36	127
91.98507936507937	92.101179138322	88	127
92.0663492063492	92.1940589569161	48	127
92.13600907029479	92.21725623582766	86	127
92.25210884353741	92.43786848072563	35	127
92.25210884353741	92.62362811791384	79	127
92.48430839002268	92.67006802721089	47	127
92.72809523809524	93.32022675736961	91	127
92.72809523809524	92.90226757369615	37	127
92.9487074829932	93.14607709750567	49	127
93.20412698412699	93.3898866213152	37	127
93.3550566893424	93.47113378684807	90	127
93.43632653061225	93.58725623582767	49	127
93.4943537414966	93.61047619047619	88	127
93.64530612244899	93.77301587301588	90	127
93.64530612244899	93.84267573696145	38	127
93.80784580498866	93.93555555555555	88	127
93.8891156462585	94.06326530612245	50	127
93.95877551020408	94.06326530612245	86	127
94.09809523809524	94.23739229024943	35	127
94.09809523809524	95.2707029478458	79	127
94.28385487528345	94.4580045351474	47	127
94.51603174603174	95.11977324263039	91	127
94.51603174603174	94.71342403628118	37	127
94.75986394557823	94.94562358276644	49	127
94.9920634920635	95.1778231292517	37	127
95.14299319727891	95.2707029478458	90	127
95.22426303854876	95.46807256235827	49	127
95.3055328798186	95.47968253968254	88	127
95.51451247165532	95.7118820861678	38	127
95.51451247165532	96.35043083900227	81	127
95.51451247165532	96.14145124716553	91	127
95.76993197278911	95.96730158730159	50	127
96.01374149659864	96.22272108843538	38	127
96.16467120181406	96.35043083900227	90	127
96.30399092970522	96.52458049886621	50	127
96.38526077097505	96.53619047619047	88	127
96.57102040816326	96.61746031746031	90	127
96.57102040816326	96.82643990929705	38	127
96.57102040816326	97.4069387755102	81	127
96.62907029478458	96.67551020408163	91	127
96.6871201814059	96.80321995464853	90	127
96.8148299319728	96.86126984126984	91	127
96.8728798185941	97.08185941043084	50	127
96.8728798185941	96.91931972789115	90	127
96.93092970521542	96.97736961451247	91	127
96.98897959183674	97.05863945578231	90	127
97.07024943310658	97.11668934240363	91	127
97.12829931972789	97.3140589569161	38	127
97.12829931972789	97.17473922902494	90	127
97.1863492063492	97.23278911564626	91	127
97.24439909297053	97.29083900226757	90	127
97.30244897959183	97.3488888888889	91	127
97.36049886621315	97.4069387755102	90	127
97.36049886621315	97.54625850340136	50	127
97.41854875283447	97.45337868480726	91	127
97.46498866213152	97.52303854875284	88	127
97.53464852607709	97.58108843537416	90	127
97.59269841269841	98.35895691609977	79	127
97.59269841269841	97.77845804988662	39	127
97.59269841269841	98.35895691609977	91	127
97.8481179138322	98.03387755102041	51	127
98.09192743764173	98.26607709750567	39	127
98.31251700680272	98.50988662131519	51	127
98.56793650793651	99.29936507936507	73	127
98.56793650793651	98.74208616780045	40	127
98.56793650793651	99.29936507936507	85	127
98.7885260770975	98.96267573696146	52	127
99.00911564625851	99.20648526077098	40	127
99.25292517006802	99.45029478458049	52	127
99.49673469387756	100.26299319727892	74	127
99.49673469387756	99.69410430839002	38	127
99.49673469387756	100.26299319727892	86	127
99.74054421768707	99.93791383219954	50	127
99.9843537414966	100.1701133786848	38	127
100.21655328798185	100.41392290249433	50	127
100.47197278911564	101.37755102040816	78	127
100.47197278911564	100.75061224489797	38	127
100.47197278911564	101.37755102040816	72	127
100.79705215419501	101.02925170068028	50	127
101.07569160997733	101.2730612244898	38	127
101.33111111111111	101.54009070294785	50	127
101.5865306122449	102.06253968253968	79	127
101.5865306122449	102.06253968253968	71	127
101.5865306122449	102.06253968253968	43	127
102.45727891156463	102.66625850340137	67	127
102.72430839002267	102.95650793650793	66	127
103.00294784580498	103.21192743764172	62	127
103.25836734693877	103.44412698412698	64	127
103.38607709750566	103.5370068027211	69	127
103.49056689342403	103.7227664399093	60	127
103.57183673469387	103.73437641723356	81	127
103.83886621315193	104.0014058956916	71	127
103.83886621315193	104.0710657596372	62	127
104.0362358276644	104.17555555555556	83	127
104.1291156462585	104.33809523809524	55	127
104.22199546485261	104.3497052154195	74	127
104.38453514739228	104.52385487528345	72	127
104.55868480725624	104.69800453514739	84	127
104.65156462585034	104.86054421768708	67	127
104.73283446712018	104.87215419501133	76	127
104.91859410430838	105.06952380952382	74	127
104.91859410430838	105.12757369614512	66	127
105.1043537414966	105.23206349206349	86	127
105.17401360544218	105.37138321995465	62	127
105.25528344671201	105.3829931972789	81	127
105.4178231292517	105.61519274376417	64	127
105.59197278911564	105.71968253968254	69	127
105.66163265306122	105.87061224489796	60	127
105.74290249433106	105.88222222222223	81	127
105.94027210884354	106.07959183673469	71	127
105.94027210884354	106.13764172335601	62	127
106.11442176870749	106.25374149659864	83	127
106.19569160997733	106.54399092970522	55	127
106.27696145124716	106.55560090702947	74	127
106.60204081632654	106.78780045351473	72	127
106.60204081632654	106.84585034013605	28	127
106.82263038548753	106.96195011337869	84	127
106.90390022675737	107.11287981859411	40	127
106.99678004535147	107.12448979591836	76	127
107.15931972789116	107.31024943310658	70	127
107.15931972789116	107.3682993197279	30	127
107.34507936507937	107.47278911564626	82	127
107.41473922902495	107.62371882086168	42	127
107.49600907029479	107.63532879818594	76	127
107.68176870748299	107.82108843537415	71	127
107.68176870748299	107.87913832199547	35	127
107.85591836734694	107.98362811791384	83	127
107.92557823129252	108.14616780045351	47	127
108.00684807256236	108.15777777777778	74	127
108.19260770975056	108.33192743764172	64	127
108.19260770975056	108.38997732426304	37	127
108.36675736961452	108.55251700680272	76	127
108.44802721088435	108.69183673469388	49	127
108.57573696145124	108.70344671201813	70	127
108.73827664399093	108.94725623582767	62	127
108.73827664399093	109.00530612244899	38	127
108.98208616780046	109.13301587301588	74	127
109.07496598639456	109.27233560090703	50	127
109.1562358276644	109.2839455782313	71	127
109.3419954648526	109.4697052154195	56	127
109.3419954648526	109.52775510204081	40	127
109.50453514739229	109.64385487528345	68	127
109.59741496598639	109.8180045351474	52	127
109.66707482993198	109.82961451247165	62	127
109.86444444444444	110.05020408163266	58	127
109.86444444444444	110.11986394557823	42	127
110.0966439909297	110.2243537414966	70	127
110.17791383219955	110.42172335600907	54	127
110.2591836734694	110.43333333333334	64	127
110.47977324263039	110.6307029478458	59	127
110.47977324263039	110.74680272108843	38	127
110.7235827664399	110.87451247165532	71	127
110.80485260770975	112.80176870748299	50	127
110.89773242630386	111.11832199546485	66	127
111.15315192743765	111.36213151927437	58	127
111.15315192743765	112.80176870748299	38	127
111.42018140589569	111.80331065759637	70	127
111.8265306122449	111.96585034013606	67	127
112.00068027210884	112.15160997732427	70	127
112.18643990929705	112.33736961451247	67	127
112.37219954648526	112.53473922902495	70	127
112.59278911564626	112.73210884353742	66	127
112.7669387755102	112.89464852607709	70	127
112.9875283446712	113.19650793650794	64	127
113.23133786848072	113.40548752834466	59	127
113.23133786848072	113.49836734693878	38	127
113.44031746031746	113.59124716553288	71	127
113.54480725623583	115.54172335600907	50	127
113.6144671201814	113.92793650793651	66	127
113.9627664399093	114.25301587301587	58	127
113.9627664399093	115.54172335600907	38	127
114.28784580498866	114.53165532879818	70	127
114.5548752834467	114.69419501133787	67	127
114.75224489795919	114.87995464852608	70	127
114.92639455782313	115.07732426303855	67	127
115.10054421768707	115.26308390022676	70	127
115.29791383219954	115.4720634920635	66	127
115.50689342403628	115.63460317460317	70	127
115.69265306122449	115.83197278911565	64	127
115.86680272108843	116.30798185941043	71	127
115.86680272108843	116.30798185941043	59	127
115.86680272108843	116.30798185941043	50	127
115.86680272108843	116.30798185941043	38	127
115.86680272108843	116.30798185941043	62	127
116.67950113378684	116.93492063492063	91	127
116.67950113378684	116.93492063492063	79	127
116.99297052154195	117.29482993197279	78	127
116.99297052154195	117.29482993197279	90	127
117.34126984126983	117.56185941043084	74	127
117.34126984126983	117.56185941043084	86	127
117.61990929705216	117.85210884353741	76	127
117.61990929705216	117.85210884353741	88	127
117.91015873015873	118.11913832199546	73	127
117.91015873015873	118.11913832199546	85	127
117.91015873015873	118.11913832199546	58	127
118.16557823129251	118.36294784580498	86	127
118.16557823129251	118.36294784580498	74	127
118.16557823129251	118.36294784580498	59	127
118.40938775510205	118.58353741496599	78	127
118.40938775510205	118.58353741496599	62	127
118.61836734693877	118.8273469387755	61	127
118.8970068027211	119.08276643990929	79	127
118.8970068027211	119.08276643990929	91	127
118.8970068027211	119.08276643990929	64	127
119.11759637188209	119.3962358276644	90	127
119.11759637188209	119.3962358276644	78	127
119.11759637188209	119.3962358276644	62	127
119.44267573696145	119.62843537414966	74	127
119.44267573696145	119.62843537414966	86	127
119.44267573696145	119.62843537414966	71	127
119.7097052154195	119.91868480725624	88	127
119.7097052154195	119.91868480725624	76	127
119.96512471655329	120.1508843537415	85	127
119.96512471655329	120.1508843537415	73	127
119.96512471655329	120.1508843537415	58	127
120.23215419501133	120.47596371882086	86	127
120.23215419501133	120.47596371882086	74	127
120.23215419501133	120.47596371882086	59	127
120.53401360544218	120.80104308390023	78	127
120.53401360544218	120.80104308390023	62	127
120.85909297052154	121.2190022675737	43	127
120.85909297052154	121.2190022675737	31	127
121.26544217687075	121.43959183673469	67	127
121.26544217687075	121.43959183673469	71	127
121.26544217687075	121.43959183673469	62	127
121.48603174603174	121.718231292517	45	127
121.48603174603174	121.718231292517	33	127
121.77628117913832	121.95043083900227	69	127
121.77628117913832	121.95043083900227	66	127
121.77628117913832	121.95043083900227	60	127
121.99687074829932	122.1942403628118	47	127
121.99687074829932	122.1942403628118	35	127
122.26390022675737	122.46126984126984	62	127
122.26390022675737	122.46126984126984	66	127
122.53092970521541	122.71668934240363	36	127
122.53092970521541	122.71668934240363	48	127
122.76312925170068	122.98371882086168	64	127
122.76312925170068	122.98371882086168	60	127
122.76312925170068	122.98371882086168	55	127
123.06498866213153	123.262358276644	50	127
123.06498866213153	123.262358276644	38	127
123.30879818594104	123.50616780045351	57	127
123.30879818594104	123.50616780045351	62	127
123.30879818594104	123.50616780045351	54	127
123.55260770975056	123.77319727891157	52	127
123.55260770975056	123.77319727891157	40	127
123.81963718820862	123.99378684807256	55	127
123.81963718820862	123.99378684807256	60	127
124.05183673469388	124.28403628117914	54	127
124.05183673469388	124.28403628117914	42	127
124.33047619047619	124.5162358276644	57	127
124.33047619047619	124.5162358276644	62	127
124.56267573696145	124.77165532879819	55	127
124.56267573696145	124.77165532879819	43	127
124.81809523809524	125.09673469387755	59	127
124.81809523809524	125.09673469387755	62	127
125.08512471655328	125.11995464852608	71	127
125.08512471655328	125.11995464852608	67	127
125.15478458049887	125.37537414965986	31	127
125.15478458049887	125.37537414965986	43	127
125.23605442176871	125.43342403628118	71	127
125.23605442176871	125.43342403628118	79	127
125.23605442176871	125.43342403628118	67	127
125.60757369614512	125.72367346938775	78	127
125.6772335600907	125.71206349206349	66	127
125.6772335600907	125.71206349206349	72	127
125.6772335600907	125.86299319727891	33	127
125.6772335600907	125.86299319727891	45	127
125.80494331065759	125.97909297052155	66	127
125.80494331065759	125.97909297052155	72	127
125.80494331065759	125.97909297052155	78	127
126.14163265306122	126.30417233560091	74	127
126.14163265306122	126.39705215419501	47	127
126.14163265306122	126.39705215419501	35	127
126.26934240362812	126.29256235827664	62	127
126.26934240362812	126.29256235827664	66	127
126.38544217687075	126.64086167800454	74	127
126.38544217687075	126.64086167800454	62	127
126.38544217687075	126.64086167800454	66	127
126.74535147392291	126.95433106575963	36	127
126.74535147392291	126.95433106575963	48	127
126.74535147392291	126.97755102040816	67	127
126.81501133786848	126.97755102040816	76	127
126.8730612244898	126.97755102040816	79	127
127.17492063492064	127.27941043083901	78	127
127.24458049886621	127.27941043083901	74	127
127.24458049886621	127.27941043083901	66	127
127.31424036281179	127.51160997732427	38	127
127.31424036281179	127.51160997732427	50	127
127.38390022675738	127.56965986394557	66	127
127.38390022675738	127.56965986394557	78	127
127.38390022675738	127.56965986394557	74	127
127.80185941043084	127.9063492063492	74	127
127.87151927437641	127.89473922902495	62	127
127.87151927437641	127.89473922902495	67	127
127.87151927437641	128.09208616780046	52	127
127.87151927437641	128.09208616780046	40	127
127.98761904761905	128.20820861678004	74	127
127.98761904761905	128.20820861678004	67	127
127.98761904761905	128.20820861678004	62	127
128.26625850340136	128.49843537414966	76	127
128.44040816326532	128.61455782312925	42	127
128.44040816326532	128.61455782312925	54	127
128.48684807256237	128.51006802721088	69	127
128.48684807256237	128.51006802721088	62	127
128.60292517006803	128.77709750566893	74	127
128.60292517006803	128.77709750566893	69	127
128.60292517006803	128.77709750566893	62	127
128.82353741496598	129.09056689342404	72	127
128.90480725623584	129.55496598639456	62	127
128.90480725623584	129.14861678004536	71	127
128.90480725623584	129.14861678004536	55	127
128.90480725623584	129.14861678004536	43	127
129.20666666666668	129.6362358276644	73	127
129.74072562358276	130.58825396825398	42	127
129.74072562358276	130.34444444444443	74	127
129.74072562358276	130.58825396825398	62	127
129.74072562358276	130.58825396825398	54	127
130.4837641723356	130.7624036281179	76	127
130.82045351473923	131.00619047619048	74	127
130.82045351473923	131.21519274376416	62	127
130.82045351473923	131.21519274376416	50	127
130.82045351473923	131.21519274376416	38	127
131.0526530612245	131.27324263038548	72	127
131.3312925170068	131.52866213151927	71	127
131.3312925170068	131.8305215419501	55	127
131.3312925170068	131.8305215419501	62	127
131.3312925170068	131.8305215419501	43	127
131.57510204081632	131.9001814058957	74	127
131.96984126984128	132.67804988662132	83	127
131.96984126984128	132.67804988662132	71	127
131.96984126984128	132.88702947845806	54	127
131.96984126984128	132.88702947845806	42	127
132.840589569161	133.03795918367348	82	127
132.840589569161	133.03795918367348	70	127
133.08439909297053	133.29337868480727	71	127
133.08439909297053	133.29337868480727	83	127
133.08439909297053	133.54879818594105	38	127
133.08439909297053	133.54879818594105	50	127
133.33981859410432	133.60684807256237	69	127
133.33981859410432	133.60684807256237	81	127
133.65328798185942	133.88548752834467	71	127
133.65328798185942	134.15251700680273	43	127
133.65328798185942	134.15251700680273	62	127
133.65328798185942	134.15251700680273	55	127
133.93192743764172	134.23378684807255	73	127
134.3150566893424	135.18580498866214	42	127
134.3150566893424	134.90716553287982	74	127
134.3150566893424	135.18580498866214	62	127
134.3150566893424	135.18580498866214	54	127
135.11614512471655	135.37156462585034	76	127
135.42961451247166	135.62698412698413	74	127
135.42961451247166	135.87079365079364	38	127
135.42961451247166	135.87079365079364	50	127
135.42961451247166	135.87079365079364	62	127
135.67342403628118	135.9172335600907	72	127
135.9636507936508	136.16104308390024	71	127
135.9636507936508	136.53256235827664	62	127
135.9636507936508	136.53256235827664	55	127
135.9636507936508	136.53256235827664	43	127
136.2190702947846	136.57897959183674	74	127
136.637052154195	137.31043083900227	71	127
136.637052154195	137.31043083900227	83	127
136.637052154195	137.50780045351473	54	127
136.637052154195	137.50780045351473	42	127
137.46136054421768	137.6819501133787	70	127
137.46136054421768	137.6819501133787	82	127
137.72839002267574	138.45981859410432	71	127
137.72839002267574	138.45981859410432	83	127
137.72839002267574	138.6571882086168	35	127
137.72839002267574	138.6571882086168	47	127
138.50625850340137	138.7268253968254	70	127
138.50625850340137	138.7268253968254	82	127
138.9009977324263	139.70208616780045	83	127
138.9009977324263	139.70208616780045	71	127
138.9009977324263	139.93428571428572	38	127
138.9009977324263	139.93428571428572	50	127
139.8762358276644	140.12004535147392	70	127
139.8762358276644	140.12004535147392	82	127
140.20131519274378	140.4451247165533	83	127
140.20131519274378	140.4451247165533	71	127
140.20131519274378	140.64249433106576	38	127
140.20131519274378	140.64249433106576	26	127
140.49156462585034	140.6889342403628	69	127
140.49156462585034	140.6889342403628	81	127
140.7585941043084	140.95596371882087	74	127
140.7585941043084	140.95596371882087	71	127
140.7585941043084	141.18816326530612	31	127
140.7585941043084	141.18816326530612	43	127
141.0140136054422	141.24621315192744	78	127
141.29265306122448	141.53643990929706	79	127
141.58290249433108	141.79185941043085	78	127
141.58290249433108	141.79185941043085	66	127
141.58290249433108	141.79185941043085	51	127
141.58290249433108	141.79185941043085	39	127
141.8499319727891	142.03569160997733	71	127
141.8499319727891	142.03569160997733	67	127
141.8499319727891	142.03569160997733	52	127
141.8499319727891	142.03569160997733	40	127
142.08213151927438	142.3259410430839	75	127
142.38399092970522	142.59297052154196	76	127
142.639410430839	142.8251700680272	35	127
142.639410430839	142.8251700680272	74	127
142.639410430839	142.8251700680272	47	127
142.87160997732425	143.51015873015874	64	127
142.87160997732425	143.10380952380953	72	127
142.87160997732425	143.78879818594103	48	127
142.87160997732425	143.78879818594103	36	127
143.15024943310658	143.35922902494332	71	127
143.40566893424037	143.63786848072561	69	127
143.71913832199547	143.98614512471656	64	127
143.71913832199547	143.98614512471656	60	127
144.03260770975058	144.6827664399093	67	127
144.03260770975058	145.20521541950114	50	127
144.03260770975058	144.6827664399093	59	127
144.03260770975058	145.20521541950114	38	127
144.78725623582767	145.32131519274375	60	127
144.78725623582767	145.32131519274375	66	127
145.41419501133788	145.79732426303855	43	127
145.41419501133788	145.79732426303855	62	127
145.41419501133788	145.79732426303855	59	127
145.41419501133788	145.79732426303855	50	127
146.1572335600907	146.40104308390022	66	127
146.1572335600907	146.40104308390022	69	127
146.1572335600907	146.40104308390022	51	127
146.1572335600907	146.40104308390022	39	127
146.44748299319727	146.6448299319728	59	127
146.44748299319727	146.6448299319728	67	127
146.44748299319727	146.6448299319728	52	127
146.44748299319727	146.6448299319728	40	127
147.16730158730158	147.46916099773242	62	127
147.16730158730158	147.46916099773242	65	127
147.16730158730158	147.46916099773242	47	127
147.16730158730158	147.46916099773242	35	127
147.51557823129252	147.67814058956915	60	127
147.51557823129252	147.67814058956915	64	127
147.51557823129252	148.1077097505669	48	127
147.51557823129252	148.1077097505669	36	127
147.73619047619047	147.93356009070294	68	127
147.73619047619047	147.93356009070294	62	127
147.99160997732426	148.18897959183673	60	127
147.99160997732426	148.18897959183673	69	127
148.27024943310659	148.45600907029478	67	127
148.27024943310659	148.45600907029478	64	127
148.27024943310659	148.45600907029478	37	127
148.27024943310659	148.45600907029478	49	127
148.50244897959183	149.09455782312926	50	127
148.50244897959183	148.68820861678006	62	127
148.50244897959183	148.68820861678006	66	127
148.50244897959183	149.09455782312926	38	127
148.74625850340135	148.94362811791385	64	127
148.74625850340135	148.94362811791385	61	127
148.9900680272109	149.24548752834468	59	127
148.9900680272109	149.24548752834468	62	127
149.29192743764173	149.4892970521542	66	127
149.29192743764173	149.4892970521542	39	127
149.29192743764173	149.4892970521542	51	127
149.29192743764173	149.4892970521542	60	127
149.53573696145125	150.2091156462585	52	127
149.53573696145125	150.2091156462585	40	127
149.53573696145125	149.75632653061226	59	127
149.53573696145125	149.75632653061226	67	127
149.8027664399093	150.03496598639455	75	127
149.8027664399093	150.03496598639455	69	127
150.09301587301587	150.31360544217688	76	127
150.09301587301587	150.31360544217688	67	127
150.36004535147393	150.5574149659864	32	127
150.36004535147393	150.5574149659864	74	127
150.36004535147393	150.5574149659864	71	127
150.36004535147393	150.5574149659864	44	127
150.61546485260772	151.1263038548753	33	127
150.61546485260772	150.88249433106577	72	127
150.61546485260772	151.1263038548753	45	127
150.61546485260772	151.33528344671203	64	127
150.94052154195012	151.17274376417234	71	127
151.2191836734694	151.4513605442177	69	127
151.2191836734694	151.76485260770974	48	127
151.2191836734694	151.76485260770974	36	127
151.5907029478458	151.81126984126985	60	127
151.5907029478458	151.81126984126985	64	127
151.85773242630387	152.67043083900228	67	127
151.85773242630387	152.67043083900228	59	127
151.85773242630387	152.67043083900228	50	127
151.85773242630387	152.67043083900228	38	127
153.45990929705215	154.77181405895692	66	127
153.45990929705215	154.77181405895692	60	127
153.45990929705215	154.77181405895692	38	127
155.1433560090703	155.5148752834467	43	127
155.1433560090703	155.5148752834467	55	127
155.61936507936508	156.7455328798186	43	127
155.61936507936508	156.7455328798186	31	127
156.0257142857143	156.15340136054422	67	127
156.18825396825397	156.37401360544217	69	127
156.408820861678	156.53655328798186	71	127
156.5597732426304	156.675873015873	69	127
156.71070294784582	156.82680272108843	71	127
156.86163265306124	157.02414965986395	72	127
157.03578231292516	157.14027210884353	71	127
157.03578231292516	157.14027210884353	67	127
157.03578231292516	157.14027210884353	62	127
157.03578231292516	157.39569160997732	41	127
157.03578231292516	157.39569160997732	53	127
157.16349206349207	157.27956916099774	72	127
157.337641723356	157.4653514739229	74	127
157.48857142857142	158.57990929705215	29	127
157.48857142857142	158.57990929705215	41	127
157.95297052154194	158.08068027210885	67	127
158.11551020408163	158.23160997732427	69	127
158.26643990929705	158.3825396825397	71	127
158.40573696145125	158.52185941043084	69	127
158.55666666666667	158.67278911564625	71	127
158.6960090702948	158.7888888888889	72	127
158.81208616780046	158.9398185941043	68	127
158.81208616780046	158.9398185941043	62	127
158.81208616780046	158.9398185941043	71	127
158.81208616780046	159.16040816326532	52	127
158.81208616780046	159.16040816326532	40	127
158.9746485260771	159.06750566893425	72	127
159.102358276644	159.23006802721088	74	127
159.25328798185942	160.3910657596372	40	127
159.25328798185942	160.3910657596372	28	127
159.6828344671202	159.81056689342404	68	127
159.84539682539682	160.0079365079365	69	127
160.04274376417234	160.1704761904762	71	127
160.19367346938776	160.3214058956916	69	127
160.3562358276644	160.4839455782313	71	127
160.51877551020408	160.646485260771	73	127
160.6697052154195	160.78580498866214	68	127
160.6697052154195	160.78580498866214	71	127
160.6697052154195	161.01800453514738	41	127
160.6697052154195	161.01800453514738	53	127
160.82063492063492	160.93673469387755	73	127
160.97156462585033	161.08766439909297	74	127
161.11086167800454	162.20222222222222	29	127
161.11086167800454	161.2385941043084	68	127
161.11086167800454	161.2385941043084	71	127
161.11086167800454	162.20222222222222	41	127
161.27342403628117	161.3895238095238	73	127
161.4243537414966	161.52884353741496	74	127
161.5520634920635	161.67977324263038	71	127
161.5520634920635	161.67977324263038	74	127
161.71460317460318	161.80748299319728	80	127
161.84231292517006	161.97002267573697	83	127
162.01646258503402	162.13256235827666	74	127
162.01646258503402	162.13256235827666	71	127
162.16739229024944	162.29510204081632	80	127
162.32993197278913	162.4344217687075	83	127
162.44603174603174	162.64340136054423	82	127
162.44603174603174	162.56213151927437	42	127
162.44603174603174	162.56213151927437	54	127
162.44603174603174	162.64340136054423	78	127
162.44603174603174	162.64340136054423	73	127
162.5969387755102	162.73628117913833	56	127
162.7711111111111	162.88721088435375	58	127
162.88721088435375	162.99170068027212	56	127
163.0265306122449	163.1542403628118	58	127
163.17746031746032	163.30517006802722	59	127
163.32839002267573	163.4328798185941	66	127
163.32839002267573	163.4328798185941	58	127
163.45609977324264	163.560589569161	68	127
163.45609977324264	163.560589569161	59	127
163.5954195011338	163.72310657596373	61	127
163.5954195011338	163.72310657596373	70	127
163.75795918367348	163.88566893424036	68	127
163.9321088435374	164.03659863945578	70	127
164.07142857142858	164.21074829931973	71	127
164.2455782312925	164.36167800453515	64	127
164.2455782312925	164.36167800453515	70	127
164.2455782312925	164.36167800453515	42	127
164.39650793650793	164.4893650793651	71	127
164.39650793650793	164.4893650793651	44	127
164.51260770975057	164.6402947845805	46	127
164.51260770975057	164.6402947845805	73	127
164.67514739229026	164.79122448979592	44	127
164.8144671201814	164.9073469387755	46	127
164.9421768707483	165.0466439909297	47	127
165.08149659863946	165.20920634920634	66	127
165.08149659863946	165.20920634920634	46	127
165.23242630385488	165.33691609977325	68	127
165.23242630385488	165.33691609977325	47	127
165.37174603174603	165.48784580498867	49	127
165.37174603174603	165.48784580498867	70	127
165.52267573696145	165.62716553287981	68	127
165.63877551020408	165.75487528344672	70	127
165.80131519274377	165.92902494331065	71	127
165.96385487528346	166.06834467120183	70	127
165.96385487528346	166.06834467120183	63	127
165.96385487528346	166.06834467120183	43	127
166.09156462585034	166.21927437641725	71	127
166.09156462585034	166.21927437641725	44	127
166.25410430839003	166.3585941043084	46	127
166.25410430839003	166.3585941043084	73	127
166.38179138321996	166.49791383219954	44	127
166.52113378684808	166.64884353741496	46	127
166.6720634920635	166.79977324263038	47	127
166.8346031746032	166.96231292517007	67	127
166.8346031746032	166.96231292517007	46	127
166.9855328798186	167.0784126984127	47	127
166.9855328798186	167.0784126984127	68	127
167.10163265306122	167.21773242630385	70	127
167.10163265306122	167.21773242630385	49	127
167.2641723356009	167.3918820861678	68	127
167.41510204081632	167.577641723356	70	127
167.6124716553288	167.7401814058957	71	127
167.7634013605442	167.89111111111112	43	127
167.7634013605442	167.89111111111112	70	127
167.91430839002268	168.03043083900226	71	127
167.91430839002268	168.03043083900226	44	127
168.0652380952381	168.16972789115647	73	127
168.0652380952381	168.16972789115647	46	127
168.20458049886622	168.29746031746032	73	127
168.20458049886622	168.29746031746032	46	127
168.3206575963719	168.44839002267574	75	127
168.3206575963719	168.44839002267574	47	127
168.48321995464852	168.6225396825397	76	127
168.48321995464852	168.6225396825397	49	127
168.65736961451248	168.75024943310657	68	127
168.65736961451248	168.75024943310657	47	127
168.7734693877551	168.88956916099772	70	127
168.7734693877551	168.88956916099772	49	127
168.92439909297053	169.04049886621314	71	127
168.92439909297053	169.04049886621314	51	127
169.08691609977325	169.19140589569162	44	127
169.08691609977325	169.19140589569162	71	127
169.2146485260771	169.33074829931974	46	127
169.2146485260771	169.33074829931974	73	127
169.36557823129252	169.4468253968254	75	127
169.36557823129252	169.4468253968254	47	127
169.48167800453515	169.60938775510203	45	127
169.48167800453515	169.60938775510203	72	127
169.63260770975057	169.783537414966	73	127
169.63260770975057	169.783537414966	46	127
169.81836734693877	169.9344671201814	75	127
169.81836734693877	169.9344671201814	48	127
169.9692970521542	170.0970068027211	75	127
169.9692970521542	170.0970068027211	48	127
170.1202267573696	170.22471655328798	77	127
170.1202267573696	170.22471655328798	49	127
170.23632653061225	170.34081632653061	78	127
170.23632653061225	170.34081632653061	51	127
170.36401360544218	170.46850340136055	70	127
170.36401360544218	170.46850340136055	49	127
170.49174603174603	170.63106575963718	51	127
170.49174603174603	170.63106575963718	72	127
170.66589569161	170.80521541950114	73	127
170.66589569161	170.80521541950114	53	127
170.84004535147392	170.95614512471656	46	127
170.84004535147392	170.95614512471656	73	127
170.97934240362812	171.0954648526077	75	127
170.97934240362812	171.0954648526077	48	127
171.13027210884354	171.24639455782312	77	127
171.13027210884354	171.24639455782312	49	127
171.28122448979593	171.42054421768708	74	127
171.28122448979593	171.42054421768708	47	127
171.4437641723356	171.52503401360545	75	127
171.4437641723356	171.52503401360545	48	127
171.55986394557823	171.6643537414966	77	127
171.55986394557823	171.6643537414966	50	127
171.69918367346938	171.82689342403629	77	127
171.69918367346938	171.82689342403629	50	127
171.85009070294785	171.96621315192743	79	127
171.85009070294785	171.96621315192743	51	127
172.00102040816327	172.12875283446712	80	127
172.00102040816327	172.12875283446712	53	127
172.1635827664399	172.30290249433108	51	127
172.1635827664399	172.30290249433108	72	127
172.33773242630386	172.40736961451248	74	127
172.33773242630386	172.40736961451248	53	127
172.44222222222223	172.52349206349206	55	127
172.44222222222223	172.52349206349206	75	127
172.55832199546487	172.697641723356	75	127
172.55832199546487	172.697641723356	48	127
172.7324716553288	172.84857142857143	77	127
172.7324716553288	172.84857142857143	50	127
172.8834013605442	172.9530612244898	79	127
172.8834013605442	172.9530612244898	51	127
172.98789115646258	173.1156009070295	74	127
172.98789115646258	173.1156009070295	47	127
173.138820861678	173.25492063492064	75	127
173.138820861678	173.25492063492064	48	127
173.28975056689342	173.40585034013606	77	127
173.28975056689342	173.40585034013606	50	127
173.44068027210884	173.533537414966	77	127
173.44068027210884	173.533537414966	50	127
173.56839002267574	173.68448979591838	79	127
173.56839002267574	173.68448979591838	51	127
173.7077097505669	173.82380952380953	80	127
173.7077097505669	173.82380952380953	53	127
173.8586394557823	173.97473922902495	71	127
173.8586394557823	173.97473922902495	50	127
174.021179138322	174.14886621315193	72	127
174.021179138322	174.14886621315193	51	127
174.17210884353742	174.29979591836735	74	127
174.17210884353742	174.29979591836735	53	127
174.3346485260771	174.48557823129252	74	127
174.3346485260771	174.48557823129252	53	127
174.5204081632653	174.6132879818594	75	127
174.5204081632653	174.6132879818594	55	127
174.63650793650794	174.7758276643991	77	127
174.63650793650794	174.7758276643991	56	127
174.81063492063493	174.93836734693878	67	127
174.81063492063493	174.93836734693878	55	127
174.97319727891156	175.11251700680273	69	127
174.97319727891156	175.11251700680273	57	127
175.13573696145124	175.25183673469388	71	127
175.13573696145124	175.25183673469388	59	127
175.27503401360545	175.41437641723357	59	127
175.27503401360545	175.41437641723357	71	127
175.42596371882087	175.54208616780045	60	127
175.42596371882087	175.54208616780045	72	127
175.565306122449	175.64657596371882	74	127
175.565306122449	175.64657596371882	62	127
175.68138321995465	175.78587301587302	62	127
175.68138321995465	175.78587301587302	74	127
175.8091156462585	175.9019954648526	63	127
175.8091156462585	175.9019954648526	75	127
175.92521541950114	176.05292517006802	77	127
175.92521541950114	176.05292517006802	65	127
176.08775510204083	176.2154648526077	65	127
176.08775510204083	176.2154648526077	77	127
176.2502947845805	176.35478458049886	67	127
176.2502947845805	176.35478458049886	79	127
176.3780045351474	176.50571428571428	80	127
176.3780045351474	176.50571428571428	68	127
176.54054421768708	176.65662131519275	62	127
176.54054421768708	176.65662131519275	74	127
176.6914739229025	176.79596371882087	63	127
176.6914739229025	176.79596371882087	75	127
176.81918367346938	176.93528344671202	65	127
176.81918367346938	176.93528344671202	77	127
176.9584807256236	177.08621315192744	71	127
176.9584807256236	177.08621315192744	59	127
177.12104308390022	177.24875283446713	72	127
177.12104308390022	177.24875283446713	60	127
177.27197278911564	177.38807256235827	74	127
177.27197278911564	177.38807256235827	62	127
177.4228798185941	177.52739229024942	56	127
177.4228798185941	177.52739229024942	68	127
177.56222222222223	177.6667120181406	58	127
177.56222222222223	177.6667120181406	70	127
177.6782993197279	177.79442176870748	72	127
177.6782993197279	177.79442176870748	60	127
177.81764172335602	177.9453514739229	53	127
177.81764172335602	177.9453514739229	65	127
177.98015873015873	178.10789115646259	55	127
177.98015873015873	178.10789115646259	67	127
178.13111111111112	178.23557823129252	68	127
178.13111111111112	178.23557823129252	56	127
178.27043083900227	178.37492063492064	50	127
178.27043083900227	178.37492063492064	62	127
178.40975056689342	178.52585034013606	51	127
178.40975056689342	178.52585034013606	63	127
178.54907029478457	178.63034013605443	65	127
178.54907029478457	178.63034013605443	53	127
178.6651700680272	178.79287981859412	47	127
178.6651700680272	178.79287981859412	59	127
178.81609977324263	178.93219954648526	48	127
178.81609977324263	178.93219954648526	60	127
178.95539682539683	179.08312925170068	50	127
178.95539682539683	179.08312925170068	62	127
179.11795918367346	179.22244897959183	56	127
179.11795918367346	179.22244897959183	44	127
179.25725623582767	179.37337868480725	58	127
179.25725623582767	179.37337868480725	46	127
179.40820861678006	179.51269841269843	60	127
179.40820861678006	179.51269841269843	48	127
179.5475283446712	179.66362811791385	41	127
179.5475283446712	179.66362811791385	53	127
179.69845804988663	179.802947845805	43	127
179.69845804988663	179.802947845805	55	127
179.8261678004535	179.94226757369614	56	127
179.8261678004535	179.94226757369614	44	127
179.97707482993198	180.10480725623583	44	127
179.97707482993198	180.10480725623583	56	127
180.1396371882086	180.29056689342403	46	127
180.1396371882086	180.29056689342403	58	127
180.31378684807257	180.38342403628118	60	127
180.31378684807257	180.38342403628118	48	127
180.41827664399094	180.53437641723357	41	127
180.41827664399094	180.53437641723357	53	127
180.56920634920635	180.66208616780045	43	127
180.56920634920635	180.66208616780045	55	127
180.685306122449	180.8014058956916	56	127
180.685306122449	180.8014058956916	44	127
180.8478231292517	180.99875283446713	44	127
180.8478231292517	180.99875283446713	56	127
181.03360544217688	181.14968253968254	46	127
181.03360544217688	181.14968253968254	58	127
181.17292517006803	181.31224489795918	60	127
181.17292517006803	181.31224489795918	48	127
181.35866213151928	181.54444444444445	54	127
181.35866213151928	181.54444444444445	42	127
181.57927437641723	181.70698412698414	55	127
181.57927437641723	181.70698412698414	43	127
181.73020408163265	181.83469387755102	45	127
181.73020408163265	181.83469387755102	57	127
181.86950113378686	182.26426303854876	31	127
181.86950113378686	182.26426303854876	43	127
182.38034013605443	182.7518820861678	43	127
182.38034013605443	183.00730158730158	55	127
182.8795918367347	183.30916099773242	56	127
182.8795918367347	183.30916099773242	68	127
183.04210884353742	183.20467120181405	53	127
183.2511111111111	183.39043083900228	51	127
183.42526077097506	184.02897959183673	68	127
183.42526077097506	183.5413605442177	53	127
183.42526077097506	183.5413605442177	41	127
183.42526077097506	184.02897959183673	80	127
183.57619047619048	183.7271201814059	51	127
183.75034013605443	183.8780498866213	50	127
183.90126984126985	184.2727664399093	39	127
183.90126984126985	184.2727664399093	51	127
184.06378684807257	184.19151927437642	79	127
184.21473922902496	184.34244897959184	77	127
184.36566893424038	184.98099773242632	51	127
184.36566893424038	184.50498866213152	67	127
184.36566893424038	184.50498866213152	79	127
184.36566893424038	184.98099773242632	63	127
184.5398185941043	184.6675283446712	77	127
184.69074829931972	184.80684807256236	75	127
184.83004535147393	185.16675736961452	65	127
184.83004535147393	185.16675736961452	77	127
185.0158276643991	185.13192743764174	62	127
185.15514739229025	185.21319727891157	60	127
185.24802721088435	185.88657596371883	89	127
185.24802721088435	185.38734693877552	50	127
185.24802721088435	185.38734693877552	62	127
185.24802721088435	185.88657596371883	77	127
185.43378684807257	185.53827664399094	60	127
185.57310657596372	185.70079365079366	59	127
185.72403628117914	186.0607029478458	60	127
185.72403628117914	186.0607029478458	48	127
185.88657596371883	185.97945578231293	87	127
186.0142857142857	186.13038548752834	86	127
186.15360544217688	186.7224716553288	72	127
186.15360544217688	186.24648526077098	87	127
186.15360544217688	186.24648526077098	75	127
186.15360544217688	186.7224716553288	60	127
186.28131519274376	186.3974149659864	86	127
186.43224489795918	186.57154195011339	84	127
186.59478458049887	187.1172335600907	74	127
186.59478458049887	187.1172335600907	86	127
186.75732426303856	186.8966439909297	70	127
186.8966439909297	186.9895238095238	69	127
187.01274376417234	187.5584126984127	58	127
187.01274376417234	187.5584126984127	70	127
187.16367346938776	187.3029931972789	84	127
187.32621315192745	187.4422902494331	82	127
187.4655328798186	188.04603174603176	72	127
187.4655328798186	188.04603174603176	84	127
187.59321995464853	187.74414965986395	69	127
187.7790022675737	187.89510204081634	67	127
187.91832199546485	188.47560090702947	69	127
187.91832199546485	188.47560090702947	57	127
188.08086167800454	188.20854875283447	82	127
188.24340136054423	188.3478911564626	81	127
188.3711111111111	188.9167800453515	82	127
188.3711111111111	188.9167800453515	70	127
188.5104081632653	188.6265306122449	67	127
188.6613605442177	188.78907029478458	66	127
188.81229024943312	189.07931972789115	55	127
188.81229024943312	189.07931972789115	67	127
189.12573696145125	189.4160090702948	49	127
189.12573696145125	189.4160090702948	70	127
189.12573696145125	189.4160090702948	76	127
189.12573696145125	189.4160090702948	79	127
189.12573696145125	189.4160090702948	82	127
189.12573696145125	189.4160090702948	61	127
189.46244897959184	190.07777777777778	81	127
189.46244897959184	190.07777777777778	78	127
189.46244897959184	190.07777777777778	69	127
189.46244897959184	190.07777777777778	62	127
189.46244897959184	190.07777777777778	50	127
191.23877551020408	191.41292517006804	50	127
191.23877551020408	191.41292517006804	62	127
191.23877551020408	191.41292517006804	66	127
191.23877551020408	191.41292517006804	54	127
191.4825850340136	191.7031746031746	54	127
191.4825850340136	191.7031746031746	69	127
191.4825850340136	191.7031746031746	66	127
191.4825850340136	191.7031746031746	57	127
191.7728344671202	191.94698412698412	54	127
191.7728344671202	191.94698412698412	69	127
191.7728344671202	191.94698412698412	66	127
191.7728344671202	191.94698412698412	57	127
192.00503401360544	192.44621315192742	66	127
192.00503401360544	192.44621315192742	78	127
192.00503401360544	192.44621315192742	69	127
192.00503401360544	192.44621315192742	57	127
192.53909297052155	192.87578231292517	55	127
192.53909297052155	192.87578231292517	76	127
192.53909297052155	192.87578231292517	67	127
192.53909297052155	192.87578231292517	64	127
193.22408163265305	193.40984126984128	61	127
193.22408163265305	193.40984126984128	69	127
193.22408163265305	193.40984126984128	73	127
193.22408163265305	193.40984126984128	57	127
193.45628117913833	193.63043083900226	62	127
193.45628117913833	193.63043083900226	71	127
193.45628117913833	193.63043083900226	74	127
193.45628117913833	193.63043083900226	59	127
193.6768707482993	193.86263038548753	74	127
193.6768707482993	193.86263038548753	71	127
193.6768707482993	193.86263038548753	62	127
193.6768707482993	193.86263038548753	59	127
193.94390022675736	194.38507936507938	83	127
193.94390022675736	194.38507936507938	74	127
193.94390022675736	194.38507936507938	62	127
193.94390022675736	194.38507936507938	71	127
194.5360090702948	195.20938775510203	75	127
194.5360090702948	194.93074829931973	81	127
194.5360090702948	194.93074829931973	69	127
194.5360090702948	195.20938775510203	63	127
195.0352380952381	195.6621768707483	67	127
195.0352380952381	195.68539682539682	79	127
195.24421768707484	195.40675736961452	64	127
195.24421768707484	195.40675736961452	76	127
195.40675736961452	195.5344671201814	74	127
195.40675736961452	195.5344671201814	62	127
195.5344671201814	196.14979591836735	73	127
195.5344671201814	196.14979591836735	61	127
195.68539682539682	195.82471655328797	69	127
195.68539682539682	195.82471655328797	81	127
195.8479365079365	195.9408163265306	79	127
195.8479365079365	195.9408163265306	67	127
195.98725623582766	196.6025850340136	78	127
195.98725623582766	196.6025850340136	66	127
196.14979591836735	196.2891156462585	62	127
196.14979591836735	196.2891156462585	74	127
196.3239455782313	196.46326530612245	73	127
196.3239455782313	196.46326530612245	61	127
196.49809523809523	197.11342403628117	59	127
196.49809523809523	197.11342403628117	71	127
196.62580498866214	196.77673469387756	67	127
196.62580498866214	196.77673469387756	79	127
196.81156462585034	196.93927437641725	66	127
196.81156462585034	196.93927437641725	78	127
196.97410430839003	197.36884353741496	64	127
196.97410430839003	197.36884353741496	76	127
197.1366439909297	197.25274376417232	61	127
197.1366439909297	197.25274376417232	73	127
197.28757369614513	197.63587301587302	71	127
197.28757369614513	197.63587301587302	59	127
197.4849433106576	197.86807256235826	65	127
197.4849433106576	197.86807256235826	77	127
197.65909297052156	197.78680272108843	61	127
197.65909297052156	197.78680272108843	73	127
197.81002267573697	197.94934240362812	71	127
197.81002267573697	197.94934240362812	59	127
197.99578231292517	198.43696145124716	30	127
197.99578231292517	198.43696145124716	66	127
197.99578231292517	198.43696145124716	70	127
197.99578231292517	198.43696145124716	78	127
197.99578231292517	198.43696145124716	73	127
197.99578231292517	198.43696145124716	42	127
198.5530612244898	199.20321995464852	54	127
198.5530612244898	199.20321995464852	42	127
199.06390022675737	199.48185941043084	55	127
199.06390022675737	199.48185941043084	67	127
199.22643990929706	199.35414965986394	52	127
199.38897959183674	199.53990929705216	50	127
199.57473922902494	200.14362811791383	67	127
199.57473922902494	199.7140589569161	52	127
199.57473922902494	199.7140589569161	40	127
199.57473922902494	200.14362811791383	79	127
199.73727891156463	199.8649886621315	50	127
199.88820861678005	199.99269841269842	49	127
200.03913832199547	200.38743764172335	50	127
200.03913832199547	200.38743764172335	38	127
200.16684807256235	200.28294784580498	78	127
200.3177777777778	200.44548752834467	76	127
200.48031746031745	200.60802721088436	66	127
200.48031746031745	201.11886621315193	62	127
200.48031746031745	200.60802721088436	78	127
200.48031746031745	201.11886621315193	50	127
200.63124716553287	200.7473469387755	76	127
200.7821768707483	200.95632653061224	74	127
201.0027664399093	201.35106575963718	64	127
201.0027664399093	201.35106575963718	76	127
201.1304761904762	201.25818594104308	61	127
201.29301587301586	201.39750566893423	59	127
201.43233560090704	201.82707482993197	88	127
201.43233560090704	201.61809523809524	61	127
201.43233560090704	201.61809523809524	49	127
201.43233560090704	201.82707482993197	82	127
201.43233560090704	201.82707482993197	76	127
201.65292517006802	201.8851247165533	54	127
201.65292517006802	201.8851247165533	42	127
201.93156462585034	202.40757369614514	75	127
201.93156462585034	202.40757369614514	83	127
201.93156462585034	202.40757369614514	87	127
201.93156462585034	202.40757369614514	47	127
201.93156462585034	202.40757369614514	59	127
203.0112925170068	203.39442176870747	64	127
203.0112925170068	203.39442176870747	48	127
203.0112925170068	203.39442176870747	36	127
203.0112925170068	203.39442176870747	76	127
203.49891156462584	204.10263038548752	48	127
203.49891156462584	204.10263038548752	76	127
203.49891156462584	204.10263038548752	88	127
203.49891156462584	204.10263038548752	60	127
204.13746031746032	204.2419501133787	59	127
204.13746031746032	204.2419501133787	86	127
204.2651700680272	204.3928798185941	84	127
204.2651700680272	204.3928798185941	57	127
204.4277097505669	204.5554195011338	59	127
204.4277097505669	204.5554195011338	86	127
204.59024943310658	204.70634920634922	84	127
204.59024943310658	204.70634920634922	57	127
204.75278911564627	204.89210884353741	83	127
204.75278911564627	204.89210884353741	55	127
204.95015873015873	205.34489795918367	57	127
204.95015873015873	205.34489795918367	84	127
204.95015873015873	205.34489795918367	45	127
204.95015873015873	205.34489795918367	72	127
205.41455782312926	205.97183673469388	57	127
205.41455782312926	205.97183673469388	84	127
205.41455782312926	205.97183673469388	69	127
205.41455782312926	205.97183673469388	96	127
206.00666666666666	206.13437641723357	95	127
206.00666666666666	206.13437641723357	67	127
206.15759637188208	206.3085260770975	93	127
206.15759637188208	206.3085260770975	66	127
206.3433560090703	206.48267573696145	83	127
206.3433560090703	206.48267573696145	95	127
206.3433560090703	206.48267573696145	67	127
206.3433560090703	206.48267573696145	55	127
206.51750566893423	206.64521541950114	93	127
206.51750566893423	206.64521541950114	66	127
206.66843537414965	206.79614512471656	91	127
206.66843537414965	206.79614512471656	64	127
206.83097505668934	207.45791383219955	93	127
206.83097505668934	207.45791383219955	81	127
206.83097505668934	207.45791383219955	66	127
206.83097505668934	207.45791383219955	54	127
207.49274376417233	207.63206349206348	91	127
207.49274376417233	207.63206349206348	64	127
207.65528344671202	207.7829931972789	90	127
207.65528344671202	207.7829931972789	62	127
207.8178231292517	208.3867120181406	52	127
207.8178231292517	208.3867120181406	79	127
207.8178231292517	208.3867120181406	64	127
207.8178231292517	208.3867120181406	91	127
208.42154195011338	208.54925170068026	90	127
208.42154195011338	208.54925170068026	62	127
208.5724716553288	208.7001814058957	88	127
208.5724716553288	208.7001814058957	61	127
208.73501133786849	209.3851700680272	50	127
208.73501133786849	209.3851700680272	78	127
208.73501133786849	209.3851700680272	90	127
208.73501133786849	209.3851700680272	62	127
209.53609977324263	209.75668934240363	50	127
209.53609977324263	209.75668934240363	78	127
209.53609977324263	209.75668934240363	84	127
209.53609977324263	209.75668934240363	90	127
209.53609977324263	209.75668934240363	38	127
209.81473922902495	210.0469387755102	37	127
209.81473922902495	210.0469387755102	89	127
209.81473922902495	210.0469387755102	85	127
209.81473922902495	210.0469387755102	77	127
209.81473922902495	210.0469387755102	49	127
211.50979591836736	211.75360544217688	61	127
211.50979591836736	211.75360544217688	65	127
211.50979591836736	211.75360544217688	49	127
211.50979591836736	211.75360544217688	53	127
211.80004535147393	212.03224489795917	56	127
211.80004535147393	212.03224489795917	65	127
211.80004535147393	212.03224489795917	68	127
211.80004535147393	212.03224489795917	53	127
212.07868480725622	212.26444444444445	53	127
212.07868480725622	212.26444444444445	68	127
212.07868480725622	212.26444444444445	65	127
212.07868480725622	212.26444444444445	56	127
212.3108843537415	212.7172335600907	56	127
212.3108843537415	212.7172335600907	68	127
212.3108843537415	212.7172335600907	77	127
212.3108843537415	212.7172335600907	65	127
212.82172335600907	213.26290249433106	55	127
212.82172335600907	213.26290249433106	67	127
212.82172335600907	213.26290249433106	76	127
212.82172335600907	213.26290249433106	64	127
213.65764172335602	213.84340136054422	48	127
213.65764172335602	213.84340136054422	64	127
213.65764172335602	213.84340136054422	60	127
213.65764172335602	213.84340136054422	52	127
213.88984126984127	214.11043083900228	55	127
213.88984126984127	214.11043083900228	67	127
213.88984126984127	214.11043083900228	64	127
213.88984126984127	214.11043083900228	52	127
214.1684807256236	214.84185941043083	55	127
214.1684807256236	214.40068027210884	64	127
214.1684807256236	214.40068027210884	52	127
214.1684807256236	214.84185941043083	67	127
214.45873015873016	214.84185941043083	76	127
214.45873015873016	214.84185941043083	64	127
214.93473922902496	215.39913832199545	54	127
214.93473922902496	215.39913832199545	66	127
214.93473922902496	215.39913832199545	75	127
214.93473922902496	215.39913832199545	63	127
215.80548752834468	216.0725170068027	47	127
215.80548752834468	216.0725170068027	59	127
215.80548752834468	216.0725170068027	63	127
215.80548752834468	216.0725170068027	51	127
216.11895691609976	216.3975963718821	51	127
216.11895691609976	216.3975963718821	63	127
216.11895691609976	216.3975963718821	66	127
216.11895691609976	216.3975963718821	54	127
216.4556462585034	217.48893424036282	66	127
216.4556462585034	216.62979591836734	63	127
216.4556462585034	216.62979591836734	51	127
216.4556462585034	217.48893424036282	54	127
216.67623582766439	217.48893424036282	63	127
216.67623582766439	217.48893424036282	75	127
217.98816326530613	218.1855328798186	51	127
217.98816326530613	218.1855328798186	63	127
217.98816326530613	218.41773242630384	66	127
217.98816326530613	218.41773242630384	54	127
218.23197278911564	218.41773242630384	63	127
218.23197278911564	218.41773242630384	75	127
218.46417233560092	219.53229024943312	75	127
218.46417233560092	218.6847619047619	66	127
218.46417233560092	218.6847619047619	54	127
218.46417233560092	219.53229024943312	63	127
218.73120181405895	219.53229024943312	78	127
218.73120181405895	219.53229024943312	66	127
219.9734693877551	220.17083900226757	54	127
219.9734693877551	220.17083900226757	66	127
219.9734693877551	220.43786848072563	75	127
219.9734693877551	220.43786848072563	63	127
220.24049886621316	220.43786848072563	66	127
220.24049886621316	220.43786848072563	78	127
220.49591836734695	220.75133786848073	63	127
220.49591836734695	220.75133786848073	75	127
220.49591836734695	221.59886621315192	78	127
220.49591836734695	221.59886621315192	66	127
220.79777777777778	221.59886621315192	75	127
220.79777777777778	221.59886621315192	87	127
222.1097052154195	222.81791383219954	66	127
222.1097052154195	222.50444444444443	75	127
222.1097052154195	222.50444444444443	63	127
222.1097052154195	222.81791383219954	78	127
222.56249433106575	222.81791383219954	75	127
222.56249433106575	222.81791383219954	87	127
222.8991836734694	223.0849433106576	78	127
222.8991836734694	223.0849433106576	75	127
222.8991836734694	223.0849433106576	87	127
223.15460317460318	224.0601814058957	90	127
223.15460317460318	224.0601814058957	87	127
223.15460317460318	224.0601814058957	78	127
223.67705215419502	223.90925170068027	47	127
223.67705215419502	223.90925170068027	35	127
223.95569160997732	224.54780045351475	59	127
223.95569160997732	224.54780045351475	47	127
224.2111111111111	224.3968707482993	78	127
224.2111111111111	224.3968707482993	75	127
224.2111111111111	224.3968707482993	87	127
224.44331065759638	225.08185941043084	78	127
224.44331065759638	225.08185941043084	90	127
224.44331065759638	225.08185941043084	87	127
224.72195011337868	224.91931972789115	48	127
224.72195011337868	224.91931972789115	36	127
224.9657596371882	225.70879818594105	60	127
224.9657596371882	225.70879818594105	48	127
225.221179138322	225.41854875283445	88	127
225.221179138322	225.41854875283445	79	127
225.221179138322	225.41854875283445	76	127
225.46498866213153	226.09192743764171	79	127
225.46498866213153	226.09192743764171	91	127
225.46498866213153	226.09192743764171	88	127
225.7552380952381	225.9409977324263	35	127
225.7552380952381	225.9409977324263	47	127
225.99904761904762	226.57954648526078	47	127
225.99904761904762	226.57954648526078	59	127
226.21963718820862	226.42861678004536	87	127
226.21963718820862	226.42861678004536	78	127
226.21963718820862	226.42861678004536	75	127
226.48666666666668	227.12521541950113	87	127
226.48666666666668	227.12521541950113	78	127
226.48666666666668	227.12521541950113	90	127
226.7304761904762	226.92784580498866	46	127
226.7304761904762	226.92784580498866	34	127
227.02072562358276	227.68249433106575	58	127
227.02072562358276	227.68249433106575	46	127
227.26453514739228	227.4502947845805	79	127
227.26453514739228	227.4502947845805	88	127
227.26453514739228	227.4502947845805	76	127
227.50834467120183	228.12367346938777	91	127
227.50834467120183	228.12367346938777	79	127
227.50834467120183	228.12367346938777	88	127
227.75215419501134	227.97274376417235	33	127
227.75215419501134	227.97274376417235	45	127
228.03079365079364	228.62290249433107	57	127
228.03079365079364	228.62290249433107	45	127
228.2746031746032	228.46036281179138	88	127
228.2746031746032	228.46036281179138	76	127
228.5184126984127	229.13374149659865	80	127
228.5184126984127	229.13374149659865	92	127
228.5184126984127	229.13374149659865	85	127
228.78544217687076	228.97120181405896	32	127
228.78544217687076	228.97120181405896	44	127
229.02925170068028	229.69102040816327	56	127
229.02925170068028	229.69102040816327	44	127
229.2730612244898	229.47043083900226	88	127
229.2730612244898	229.47043083900226	76	127
229.5168707482993	230.07414965986393	93	127
229.5168707482993	230.07414965986393	85	127
229.5168707482993	230.07414965986393	88	127
229.5168707482993	230.07414965986393	81	127
229.73746031746032	229.93482993197279	43	127
229.73746031746032	229.93482993197279	31	127
229.98126984126984	230.55015873015873	55	127
229.98126984126984	230.55015873015873	43	127
230.2134693877551	230.3992290249433	88	127
230.2134693877551	230.3992290249433	76	127
230.44566893424036	231.11904761904762	82	127
230.44566893424036	231.11904761904762	85	127
230.44566893424036	231.11904761904762	94	127
230.44566893424036	231.11904761904762	88	127
230.72430839002268	230.94489795918366	30	127
230.72430839002268	230.94489795918366	42	127
231.01455782312925	231.4673469387755	54	127
231.01455782312925	231.4673469387755	42	127
231.25836734693877	231.52539682539683	90	127
231.25836734693877	231.52539682539683	78	127
231.57183673469387	232.1291156462585	87	127
231.57183673469387	231.88530612244898	35	127
231.57183673469387	232.1291156462585	90	127
231.57183673469387	232.1291156462585	83	127
231.57183673469387	232.1291156462585	95	127
231.95496598639457	232.18716553287982	47	127
232.23360544217687	232.36131519274377	83	127
232.23360544217687	232.36131519274377	90	127
232.23360544217687	232.36131519274377	87	127
232.23360544217687	232.36131519274377	95	127
232.23360544217687	232.43097505668933	35	127
232.38453514739228	232.52385487528343	93	127
232.47741496598638	232.67478458049888	47	127
232.55868480725624	232.68639455782312	91	127
232.72122448979593	232.83732426303854	81	127
232.72122448979593	232.83732426303854	93	127
232.72122448979593	232.89537414965986	35	127
232.86054421768708	232.99986394557823	91	127
232.9418140589569	233.15079365079364	47	127
233.034693877551	233.16240362811791	90	127
233.1972335600907	233.33655328798187	91	127
233.1972335600907	233.33655328798187	79	127
233.1972335600907	233.40621315192743	35	127
233.37138321995465	233.5107029478458	90	127
233.46426303854875	233.66163265306122	47	127
233.54553287981858	233.6732426303855	88	127
233.70807256235827	234.24213151927438	93	127
233.70807256235827	233.8938321995465	35	127
233.70807256235827	234.24213151927438	81	127
233.94027210884354	234.09120181405896	47	127
234.137641723356	234.3001814058957	35	127
234.2653514739229	234.3930612244898	91	127
234.34662131519275	234.5556009070295	47	127
234.42789115646258	234.56721088435373	90	127
234.60204081632654	234.77619047619046	35	127
234.60204081632654	234.71814058956917	79	127
234.60204081632654	234.71814058956917	91	127
234.74136054421768	234.8690702947846	90	127
234.82263038548754	235.02	47	127
234.90390022675737	235.03160997732425	88	127
235.06643990929706	235.18253968253967	90	127
235.06643990929706	235.18253968253967	78	127
235.06643990929706	235.240589569161	35	127
235.2057596371882	235.32185941043085	88	127
235.28702947845804	235.461179138322	47	127
235.35668934240363	235.47278911564626	87	127
235.50761904761904	236.06489795918367	91	127
235.50761904761904	235.681768707483	35	127
235.50761904761904	236.06489795918367	79	127
235.72820861678005	235.92557823129252	47	127
235.97201814058957	236.13455782312926	35	127
236.0881179138322	236.22743764172336	90	127
236.1809977324263	236.37836734693877	47	127
236.26226757369614	236.38997732426304	88	127
236.42480725623582	236.56412698412697	78	127
236.42480725623582	236.56412698412697	90	127
236.42480725623582	236.6221768707483	35	127
236.59895691609978	236.7150566893424	88	127
236.66861678004534	236.86598639455784	47	127
236.7498866213152	236.87759637188208	87	127
236.9124263038549	237.04013605442177	76	127
236.9124263038549	237.04013605442177	88	127
236.9124263038549	237.09818594104308	35	127
237.07496598639455	237.1794557823129	87	127
237.14462585034013	237.33038548752833	47	127
237.21428571428572	237.3419954648526	85	127
237.3768253968254	237.49292517006802	78	127
237.3768253968254	237.49292517006802	90	127
237.3768253968254	237.55097505668934	35	127
237.52775510204083	237.62063492063493	88	127
237.57419501133788	237.75995464852608	47	127
237.64385487528344	237.77156462585035	87	127
237.8180045351474	237.94571428571427	88	127
237.8180045351474	237.94571428571427	76	127
237.8180045351474	238.0037641723356	35	127
237.98054421768708	238.0966439909297	87	127
238.05020408163264	238.23596371882087	47	127
238.11986394557823	238.24757369614514	85	127
238.28240362811792	238.37528344671202	91	127
238.28240362811792	238.37528344671202	79	127
238.28240362811792	238.43333333333334	35	127
238.4101133786848	238.52621315192744	90	127
238.4797732426304	238.66553287981858	47	127
238.54943310657598	238.67714285714285	88	127
238.71197278911563	238.89773242630386	35	127
238.71197278911563	238.82807256235827	94	127
238.71197278911563	238.82807256235827	82	127
238.87451247165532	239.00222222222223	92	127
238.9441723356009	239.14154195011338	47	127
239.02544217687074	239.15315192743765	90	127
239.18798185941043	239.3853514739229	95	127
239.18798185941043	239.83814058956915	59	127
239.18798185941043	240.0122902494331	47	127
239.43179138321995	239.64077097505668	83	127
239.698820861678	239.89619047619047	95	127
239.87297052154196	240.0122902494331	57	127
239.9542403628118	240.15160997732426	83	127
240.03551020408165	240.16321995464853	55	127
240.1980498866213	240.37219954648526	95	127
240.1980498866213	240.30253968253967	57	127
240.1980498866213	240.96430839002267	47	127
240.34897959183672	240.47668934240363	55	127
240.4186394557823	240.61600907029478	83	127
240.49990929705214	240.62761904761905	54	127
240.6740589569161	240.801768707483	55	127
240.6740589569161	240.8598185941043	95	127
240.8365986394558	240.96430839002267	54	127
240.90625850340135	241.10362811791384	83	127
240.9875283446712	241.11523809523808	52	127
241.1500680272109	241.75378684807256	57	127
241.1500680272109	241.3358276643991	95	127
241.1500680272109	241.92793650793652	47	127
241.37065759637187	241.5564172335601	83	127
241.61446712018142	241.82344671201815	95	127
241.80022675736961	241.92793650793652	55	127
241.88149659863944	242.06725623582767	83	127
241.95115646258503	242.07886621315194	54	127
242.11369614512472	242.2762358276644	95	127
242.11369614512472	242.82190476190476	47	127
242.11369614512472	242.22979591836736	55	127
242.25301587301587	242.3691156462585	54	127
242.32267573696146	242.50843537414966	83	127
242.39233560090702	242.52004535147393	52	127
242.5548752834467	242.6825850340136	54	127
242.5548752834467	242.74063492063493	95	127
242.7174149659864	242.82190476190476	52	127
242.7754648526077	242.9612244897959	83	127
242.8451247165533	242.97283446712018	51	127
243.01927437641723	243.2166439909297	95	127
243.01927437641723	243.64621315192744	55	127
243.01927437641723	243.79714285714286	47	127
243.27469387755102	243.47206349206348	83	127
243.51850340136053	243.70426303854876	95	127
243.68104308390022	243.79714285714286	54	127
243.7507029478458	243.95968253968255	83	127
243.82036281179137	243.97129251700682	52	127
244.0061224489796	244.74916099773242	47	127
244.0061224489796	244.13383219954648	54	127
244.0061224489796	244.1918820861678	95	127
244.16866213151928	244.2847619047619	52	127
244.2499319727891	244.42408163265307	83	127
244.30798185941043	244.4356916099773	51	127
244.47052154195012	244.58662131519273	52	127
244.47052154195012	244.64467120181405	95	127
244.62145124716554	244.74916099773242	51	127
244.70272108843537	244.87687074829932	83	127
244.7607709750567	244.8884807256236	49	127
244.92331065759637	245.15551020408162	95	127
244.92331065759637	245.72439909297051	47	127
244.92331065759637	245.0742403628118	54	127
245.12068027210884	245.27160997732426	52	127
245.20195011337867	245.4109297052154	83	127
245.2948299319728	245.42253968253968	51	127
245.44575963718822	245.56185941043083	52	127
245.44575963718822	245.63151927437642	95	127
245.59668934240364	245.72439909297051	51	127
245.67795918367347	245.8637188208617	83	127
245.74761904761905	245.87532879818593	49	127
245.91015873015874	246.7344671201814	47	127
245.91015873015874	246.0494784580499	55	127
245.91015873015874	246.11913832199548	95	127
246.08430839002267	246.2004081632653	54	127
246.15396825396826	246.33972789115646	83	127
246.22362811791382	246.362947845805	52	127
246.39777777777778	246.53709750566892	58	127
246.39777777777778	246.61836734693878	95	127
246.57192743764173	246.7344671201814	56	127
246.6764172335601	246.94344671201813	83	127
246.78090702947847	246.9550566893424	54	127
246.98988662131518	247.32657596371882	47	127
246.98988662131518	247.32657596371882	59	127
246.98988662131518	247.32657596371882	95	127
247.77936507936508	248.2669841269841	47	127
248.10444444444445	248.3134240362812	63	127
248.10444444444445	248.3134240362812	66	127
248.10444444444445	248.3134240362812	71	127
248.35986394557824	248.80104308390023	49	127
248.63850340136054	248.84748299319727	66	127
248.63850340136054	248.84748299319727	70	127
248.63850340136054	248.84748299319727	64	127
248.92875283446713	249.2886621315193	47	127
248.92875283446713	249.2886621315193	51	127
249.16095238095238	249.34671201814058	66	127
249.16095238095238	249.34671201814058	59	127
249.39315192743763	250.17102040816326	47	127
249.39315192743763	249.75306122448978	52	127
249.6253514739229	249.79950113378686	71	127
249.6253514739229	249.79950113378686	68	127
249.6253514739229	249.79950113378686	64	127
249.8459410430839	250.26390022675736	54	127
250.1245804988662	250.29873015873017	70	127
250.1245804988662	250.29873015873017	61	127
250.1245804988662	250.29873015873017	66	127
250.34517006802722	250.71668934240364	56	127
250.34517006802722	251.1346485260771	47	127
250.57736961451246	250.7631292517007	59	127
250.57736961451246	250.7631292517007	64	127
250.821179138322	251.2275283446712	58	127
251.0765986394558	251.27396825396826	66	127
251.0765986394558	251.27396825396826	61	127
251.3552380952381	251.78480725623584	59	127
251.3552380952381	251.78480725623584	47	127
251.58743764172337	251.8544671201814	66	127
251.58743764172337	251.8544671201814	63	127
251.87768707482994	251.8892970521542	75	127
251.87768707482994	251.8892970521542	71	127
251.90090702947845	252.09827664399094	47	127
251.90090702947845	252.09827664399094	35	127
251.93573696145125	252.12149659863945	75	127
251.93573696145125	252.12149659863945	71	127
251.93573696145125	252.12149659863945	83	127
252.2956462585034	252.44657596371883	82	127
252.43496598639456	252.46979591836734	76	127
252.43496598639456	252.46979591836734	70	127
252.43496598639456	252.6439455782313	49	127
252.43496598639456	252.6439455782313	37	127
252.50462585034015	252.70199546485262	70	127
252.50462585034015	252.70199546485262	82	127
252.50462585034015	252.70199546485262	76	127
252.87614512471654	252.9806349206349	78	127
252.93419501133786	253.1431746031746	51	127
252.93419501133786	253.1431746031746	39	127
252.9806349206349	252.99224489795918	66	127
252.9806349206349	252.99224489795918	70	127
253.03868480725623	253.22444444444446	78	127
253.03868480725623	253.22444444444446	70	127
253.03868480725623	253.22444444444446	66	127
253.38698412698412	253.4914739229025	83	127
253.41020408163266	253.6191836734694	40	127
253.41020408163266	253.6191836734694	52	127
253.41020408163266	253.63079365079366	71	127
253.47986394557824	253.63079365079366	80	127
253.5495238095238	253.63079365079366	83	127
253.92104308390023	254.01392290249433	82	127
254.01392290249433	254.0255328798186	73	127
254.01392290249433	254.0255328798186	70	127
254.03714285714287	254.28095238095239	42	127
254.03714285714287	254.28095238095239	73	127
254.03714285714287	254.28095238095239	70	127
254.03714285714287	254.28095238095239	82	127
254.03714285714287	254.28095238095239	54	127
254.47832199546485	254.617641723356	78	127
254.617641723356	254.62925170068027	71	127
254.617641723356	254.62925170068027	66	127
254.64086167800454	254.86145124716552	71	127
254.64086167800454	254.86145124716552	66	127
254.64086167800454	254.86145124716552	78	127
254.64086167800454	254.86145124716552	44	127
254.64086167800454	254.86145124716552	56	127
254.9078911564626	255.10526077097506	80	127
255.12848072562358	255.14009070294784	66	127
255.12848072562358	255.14009070294784	73	127
255.1517006802721	255.4071201814059	58	127
255.1517006802721	255.4071201814059	46	127
255.1865306122449	255.4303401360544	73	127
255.1865306122449	255.4303401360544	66	127
255.1865306122449	255.4303401360544	78	127
255.47678004535146	255.70897959183674	76	127
255.720589569161	255.95278911564625	75	127
255.720589569161	256.1385487528345	59	127
255.720589569161	256.1385487528345	66	127
255.720589569161	256.1385487528345	47	127
255.9992290249433	256.28947845804987	77	127
256.33591836734695	257.1021768707483	78	127
256.33591836734695	257.2531065759637	46	127
256.33591836734695	257.2531065759637	66	127
256.33591836734695	257.2531065759637	58	127
257.20666666666665	257.42725623582766	80	127
257.47369614512473	257.69428571428574	78	127
257.47369614512473	257.9032426303855	66	127
257.47369614512473	257.9032426303855	54	127
257.47369614512473	257.9032426303855	42	127
257.74072562358276	257.9497052154195	76	127
257.9961451247166	258.2051247165533	75	127
257.9961451247166	258.4256916099773	66	127
257.9961451247166	258.4256916099773	59	127
257.9961451247166	258.4256916099773	47	127
258.2631746031746	258.4837641723356	78	127
258.53020408163263	259.3661224489796	75	127
258.53020408163263	259.3661224489796	87	127
258.53020408163263	259.5751020408163	58	127
258.53020408163263	259.5751020408163	46	127
259.5286621315193	259.7724716553288	86	127
259.5286621315193	259.7724716553288	74	127
259.83052154195013	260.01628117913833	87	127
259.83052154195013	260.01628117913833	75	127
259.83052154195013	260.23687074829934	42	127
259.83052154195013	260.23687074829934	54	127
260.06272108843535	260.3413605442177	85	127
260.06272108843535	260.3413605442177	73	127
260.399410430839	260.5851700680272	75	127
260.399410430839	260.8057596371882	59	127
260.399410430839	260.8057596371882	66	127
260.399410430839	260.8057596371882	47	127
260.6316099773243	260.9682993197279	77	127
261.0263492063492	261.6300680272109	78	127
261.0263492063492	261.8854875283447	58	127
261.0263492063492	261.8854875283447	66	127
261.0263492063492	261.8854875283447	46	127
261.82743764172335	262.0596371882086	80	127
262.164126984127	262.37310657596373	78	127
262.164126984127	262.59369614512474	66	127
262.164126984127	262.59369614512474	42	127
262.164126984127	262.59369614512474	54	127
262.41954648526075	262.68657596371884	76	127
262.73301587301586	263.0232426303855	75	127
262.73301587301586	263.24385487528343	59	127
262.73301587301586	263.24385487528343	66	127
262.73301587301586	263.24385487528343	47	127
263.0697052154195	263.3019047619048	78	127
263.3831746031746	264.12621315192746	75	127
263.3831746031746	264.12621315192746	87	127
263.3831746031746	264.3235827664399	46	127
263.3831746031746	264.3235827664399	58	127
264.27714285714285	264.4861224489796	74	127
264.27714285714285	264.4861224489796	86	127
264.54417233560093	265.3336507936508	75	127
264.54417233560093	265.3336507936508	87	127
264.54417233560093	265.7051700680272	51	127
264.54417233560093	265.7051700680272	39	127
265.3800907029478	265.7864172335601	74	127
265.3800907029478	265.7864172335601	86	127
265.91414965986394	266.57591836734696	87	127
265.91414965986394	266.57591836734696	75	127
265.91414965986394	266.76167800453516	42	127
265.91414965986394	266.76167800453516	54	127
266.7152380952381	267.0170975056689	74	127
266.7152380952381	267.0170975056689	86	127
267.063537414966	267.27251700680273	87	127
267.063537414966	267.27251700680273	75	127
267.063537414966	267.5627664399093	42	127
267.063537414966	267.5627664399093	30	127
267.3770068027211	267.6556462585034	85	127
267.3770068027211	267.6556462585034	73	127
267.71369614512474	268.1548752834467	75	127
267.71369614512474	268.1548752834467	78	127
267.71369614512474	268.1548752834467	66	127
267.71369614512474	268.1548752834467	59	127
267.71369614512474	268.1548752834467	47	127
268.2477551020408	268.874693877551	35	127
268.2477551020408	268.874693877551	47	127
268.89791383219955	269.048820861678	49	127
269.095283446712	269.2346031746032	51	127
269.26943310657595	269.4087528344671	49	127
269.43197278911566	269.55965986394557	51	127
269.58290249433105	269.67578231292515	52	127
269.71061224489796	269.8267120181406	51	127
269.84993197278914	269.97761904761904	52	127
270.0124716553288	270.11696145124716	54	127
270.15179138322	270.7787301587302	47	127
270.80195011337867	270.9296598639456	49	127
270.97609977324265	271.0921768707483	51	127
271.12702947845804	271.2315192743764	49	127
271.2663492063492	271.3708390022676	51	127
271.3940589569161	271.53337868480725	52	127
271.56820861678005	271.70750566893423	51	127
271.7307482993197	271.84684807256235	52	127
271.8700680272109	271.98616780045353	54	127
272.02097505668934	272.6479365079365	55	127
272.6827664399093	272.79886621315194	46	127
272.83367346938775	272.9614058956916	49	127
272.9962358276644	273.5999546485261	54	127
273.6347845804989	273.7857142857143	52	127
273.79732426303855	273.89020408163265	51	127
273.92503401360545	274.0411337868481	49	127
274.07596371882084	274.2268934240363	51	127
274.25011337868483	274.3778231292517	52	127
274.4126530612245	274.5287528344671	51	127
274.56358276643994	274.70290249433106	45	127
274.7261224489796	274.84222222222223	43	127
274.87702947845804	275.0047619047619	42	127
275.0395918367347	275.1673015873016	43	127
275.19049886621315	275.30662131519273	45	127
275.34145124716554	275.5504308390023	43	127
275.34145124716554	275.71297052154193	76	127
275.34145124716554	275.71297052154193	88	127
275.59684807256235	275.759410430839	40	127
275.8058276643991	276.00319727891156	43	127
275.8058276643991	276.43278911564624	76	127
275.8058276643991	276.43278911564624	64	127
276.06126984126985	276.2354195011338	43	127
276.2934693877551	276.65337868480725	52	127
276.4560090702948	276.56049886621315	66	127
276.5837188208617	276.7114285714286	67	127
276.7578684807256	276.8043083900227	51	127
276.7578684807256	276.87396825396826	66	127
276.81591836734697	276.8507482993197	52	127
276.862358276644	276.90879818594107	51	127
276.90879818594107	277.0365079365079	67	127
276.92038548752834	276.9784580498866	52	127
276.9900680272109	277.0365079365079	51	127
277.0481179138322	277.09455782312926	52	127
277.05972789115646	277.18743764172336	69	127
277.10616780045353	277.15260770975055	49	127
277.1642176870748	277.2106575963719	51	127
277.2222675736962	277.40802721088437	52	127
277.2222675736962	277.3615873015873	67	127
277.38480725623583	277.51251700680274	69	127
277.46607709750566	277.6286167800454	40	127
277.55895691609976	277.64020408163265	71	127
277.6750566893424	278.2555328798186	64	127
277.6750566893424	277.87242630385487	43	127
277.91886621315194	278.0930158730159	43	127
278.13945578231295	278.51097505668935	52	127
278.29038548752834	278.41809523809525	66	127
278.4413151927438	278.56902494331064	67	127
278.60385487528345	278.76637188208616	66	127
278.60385487528345	278.6618820861678	50	127
278.673514739229	278.7431746031746	52	127
278.7547845804989	278.8012244897959	50	127
278.8012244897959	278.9057142857143	67	127
278.8128344671202	278.85927437641726	52	127
278.87086167800453	278.9057142857143	50	127
278.91732426303855	278.96374149659863	52	127
278.9289342403628	279.0334240362812	69	127
278.9753514739229	278.9985941043084	48	127
279.01020408163265	279.05664399092973	50	127
279.068231292517	279.1843537414966	67	127
279.068231292517	279.2540136054422	55	127
279.2191836734694	279.3120634920635	69	127
279.27721088435374	279.46299319727893	43	127
279.335283446712	279.4745804988662	71	127
279.50943310657595	279.67197278911567	52	127
279.50943310657595	280.1131519274376	72	127
279.73002267573696	279.9041723356009	40	127
279.95061224489797	280.18281179138324	54	127
280.14798185941044	280.2873015873016	63	127
280.22925170068027	280.41501133786846	42	127
280.3105215419501	280.42662131519273	66	127
280.46145124716554	280.64721088435374	51	127
280.46145124716554	281.05356009070294	71	127
280.6936507936508	280.86780045351475	39	127
280.9142176870748	281.12319727891156	52	127
281.08839002267575	281.23931972789114	69	127
281.18126984126985	281.36702947845805	40	127
281.27414965986395	281.3786394557823	67	127
281.41346938775513	281.7849886621315	47	127
281.41346938775513	281.55278911564625	66	127
281.58761904761906	281.7037188208617	67	127
281.73854875283445	281.8430385487528	69	127
281.8778684807256	282.0636281179138	52	127
281.8778684807256	281.99396825396826	67	127
282.02879818594107	282.1565079365079	64	127
282.1100680272109	282.28421768707483	40	127
282.19133786848073	282.2958276643991	63	127
282.3306575963719	282.44673469387754	61	127
282.3306575963719	282.72539682539684	42	127
282.4815873015873	282.6092970521542	63	127
282.6557142857143	282.77183673469386	64	127
282.8066666666667	282.9575736961451	35	127
282.8066666666667	282.9808163265306	63	127
282.9575736961451	283.0736961451247	47	127
283.0272562358277	283.22462585034015	75	127
283.1201360544218	283.2478458049887	49	127
283.27106575963717	283.3987755102041	51	127
283.27106575963717	283.6425850340136	69	127
283.4219954648526	283.5497052154195	49	127
283.59614512471654	283.7122448979592	47	127
283.7354648526077	283.8980045351474	67	127
283.7354648526077	283.85156462585036	49	127
283.8747619047619	283.97925170068027	52	127
283.9328344671202	284.1185941043084	79	127
284.01410430839	284.1418140589569	54	127
284.16503401360546	284.3043537414966	55	127
284.16503401360546	284.58299319727894	71	127
284.3391836734694	284.47850340136057	54	127
284.5249433106576	284.6526530612245	52	127
284.67587301587304	284.80356009070294	70	127
284.67587301587304	284.8732426303855	54	127
284.8384126984127	284.95451247165533	71	127
284.9196825396825	285.08222222222224	42	127
284.98934240362814	285.0938321995465	73	127
285.117052154195	285.2447619047619	74	127
285.117052154195	285.5001814058957	47	127
285.2795918367347	285.4072789115646	73	127
285.44213151927437	285.5698412698413	71	127
285.5930612244898	285.73238095238094	73	127
285.5930612244898	285.7556009070295	54	127
285.73238095238094	285.8717006802721	76	127
285.80204081632655	285.9761904761905	42	127
285.8717006802721	286.02260770975056	78	127
286.02260770975056	286.39414965986396	46	127
286.02260770975056	286.17356009070295	79	127
286.17356009070295	286.2896598639456	78	127
286.33607709750567	286.4754195011338	76	127
286.4986394557823	286.62634920634923	75	127
286.4986394557823	286.6843990929705	47	127
286.6495691609977	286.7772789115646	76	127
286.7308390022676	286.95142857142855	51	127
286.8237188208617	286.9746485260771	78	127
286.99786848072563	287.1371882086168	79	127
286.99786848072563	287.20684807256237	49	127
287.17201814058956	287.2881179138322	78	127
287.2416780045352	287.43904761904764	52	127
287.322947845805	287.4738775510204	76	127
287.49709750566893	287.62480725623584	78	127
287.49709750566893	287.6944671201814	51	127
287.65961451247165	287.7873469387755	81	127
287.7409070294785	287.90344671201814	54	127
287.81056689342404	287.9266666666667	83	127
287.9498866213152	288.0543764172336	84	127
287.9498866213152	288.12403628117914	47	127
288.08920634920634	288.21691609977324	83	127
288.1704535147392	288.3562358276644	59	127
288.25174603174605	288.37943310657596	81	127
288.42589569161	288.6116553287982	79	127
288.42589569161	288.8322448979592	52	127
288.42589569161	288.8322448979592	64	127
288.6348752834467	288.7625850340136	78	127
288.78578231292516	288.90190476190475	76	127
288.9251247165533	289.5984807256236	40	127
288.9251247165533	289.5984807256236	52	127
289.1457142857143	289.37791383219957	88	127
289.1457142857143	289.37791383219957	76	127
289.4591836734694	289.66816326530613	86	127
289.4591836734694	289.66816326530613	74	127
289.6333333333333	289.7378231292517	42	127
289.6913832199547	289.8307029478458	83	127
289.6913832199547	289.8307029478458	71	127
289.7726530612245	289.85392290249433	43	127
289.87714285714287	290.07451247165534	72	127
289.87714285714287	290.0048299319728	42	127
289.87714285714287	290.07451247165534	84	127
290.03968253968253	290.15578231292517	43	127
290.12095238095236	290.29510204081635	78	127
290.12095238095236	290.29510204081635	66	127
290.190612244898	290.3182993197279	45	127
290.34154195011337	290.4692517006803	43	127
290.34154195011337	290.53891156462583	71	127
290.34154195011337	290.53891156462583	83	127
290.5040816326531	290.63179138321993	45	127
290.5853514739229	290.75950113378684	64	127
290.5853514739229	290.75950113378684	76	127
290.6550113378685	290.7827210884354	47	127
290.8059410430839	291.3748299319728	40	127
291.0613605442177	291.1890702947846	88	127
291.0613605442177	291.1890702947846	76	127
291.2471201814059	291.4560997732426	86	127
291.2471201814059	291.4560997732426	74	127
291.42126984126986	291.560589569161	42	127
291.51414965986396	291.69990929705216	83	127
291.51414965986396	291.69990929705216	71	127
291.5954195011338	291.7231292517007	43	127
291.75795918367345	291.9437188208617	84	127
291.75795918367345	291.8740589569161	42	127
291.75795918367345	291.9437188208617	72	127
291.9088888888889	292.0365986394558	43	127
291.9901587301587	292.1759183673469	78	127
291.9901587301587	292.1759183673469	66	127
292.07142857142856	292.19913832199546	45	127
292.23396825396827	292.41972789115647	71	127
292.23396825396827	292.3500680272109	43	127
292.23396825396827	292.41972789115647	83	127
292.38489795918366	292.51260770975057	45	127
292.46614512471655	292.65192743764175	64	127
292.46614512471655	292.65192743764175	76	127
292.5474376417234	292.6751247165533	47	127
292.70997732426304	293.29047619047617	48	127
292.9073469387755	293.0931065759637	83	127
292.9073469387755	293.0931065759637	71	127
293.1627664399093	293.3485260770975	69	127
293.1627664399093	293.3485260770975	81	127
293.3136961451247	293.4414058956916	39	127
293.39496598639454	293.5807256235828	63	127
293.39496598639454	293.5807256235828	75	127
293.4762358276644	293.6039455782313	42	127
293.6387755102041	294.2308843537415	47	127
293.87097505668936	294.0683446712018	69	127
293.87097505668936	294.0683446712018	81	127
294.10315192743764	294.28893424036283	79	127
294.10315192743764	294.28893424036283	67	127
294.25410430839	294.3585941043084	45	127
294.3121541950113	294.52113378684805	73	127
294.3121541950113	294.52113378684805	61	127
294.3934240362812	294.5327437641723	43	127
294.56757369614513	294.66045351473923	42	127
294.56757369614513	294.7184807256236	75	127
294.56757369614513	294.7184807256236	63	127
294.68367346938777	294.8113605442177	43	127
294.7649433106576	294.96231292517007	66	127
294.7649433106576	294.96231292517007	78	127
294.84621315192743	294.97392290249434	45	127
295.0203401360544	295.1712925170068	43	127
295.0203401360544	295.2061224489796	76	127
295.0203401360544	295.2061224489796	64	127
295.1712925170068	295.357052154195	40	127
295.25256235827663	295.4499319727891	67	127
295.25256235827663	295.4499319727891	79	127
295.357052154195	295.4963718820862	39	127
295.4963718820862	295.6705215419501	58	127
295.4963718820862	295.6124716553288	37	127
295.4963718820862	295.6705215419501	70	127
295.63566893424036	295.7634013605442	39	127
295.7169614512472	295.91433106575965	73	127
295.7169614512472	295.91433106575965	61	127
295.798231292517	295.9259410430839	40	127
295.97238095238095	296.2742403628118	71	127
295.97238095238095	296.2742403628118	59	127
295.97238095238095	296.2742403628118	39	127
296.32068027210886	296.5180498866213	71	127
296.32068027210886	296.5180498866213	59	127
296.32068027210886	296.5180498866213	51	127
296.56448979591835	296.73863945578233	63	127
296.56448979591835	296.73863945578233	75	127
296.56448979591835	296.73863945578233	47	127
296.78507936507935	296.9824489795918	75	127
296.78507936507935	296.9824489795918	63	127
296.78507936507935	296.9824489795918	45	127
297.0288888888889	297.3771655328798	71	127
297.0288888888889	297.3771655328798	83	127
297.0288888888889	297.3771655328798	39	127
297.4932879818594	297.5397278911565	82	127
297.4932879818594	297.8996371882086	70	127
297.4932879818594	297.8996371882086	40	127
297.55133786848074	297.59777777777776	83	127
297.60938775510203	297.6558276643991	82	127
297.6674376417234	297.7138775510204	83	127
297.7254875283447	297.77192743764175	82	127
297.783514739229	297.8415873015873	83	127
297.86480725623585	297.92285714285714	80	127
297.9344671201814	297.9925170068027	82	127
298.00412698412697	298.1898639455782	83	127
298.00412698412697	298.1898639455782	39	127
298.00412698412697	298.1898639455782	71	127
298.23632653061225	298.42208616780044	71	127
298.23632653061225	298.42208616780044	59	127
298.23632653061225	298.42208616780044	51	127
298.445306122449	298.6542857142857	63	127
298.445306122449	298.6542857142857	75	127
298.445306122449	298.6542857142857	47	127
298.7007029478458	298.8748752834467	63	127
298.7007029478458	298.8748752834467	75	127
298.7007029478458	298.8748752834467	47	127
298.92131519274375	299.3508843537415	71	127
298.92131519274375	299.3508843537415	83	127
298.92131519274375	299.3508843537415	51	127
298.92131519274375	299.3508843537415	39	127
299.4321541950113	299.7456235827664	38	127
299.4321541950113	299.46698412698413	84	127
299.4321541950113	299.7456235827664	72	127
299.4321541950113	299.7456235827664	50	127
299.4785941043084	299.50181405895694	85	127
299.50181405895694	299.5250113378685	84	127
299.5366439909297	299.58308390022677	85	127
299.59469387755104	299.6643537414966	84	127
299.67596371882087	299.72238095238095	85	127
299.73401360544216	299.76884353741497	83	127
299.78045351473924	299.8268707482993	84	127
299.8385034013605	300.0126530612245	73	127
299.8385034013605	300.0126530612245	85	127
299.8385034013605	300.0126530612245	49	127
299.8385034013605	300.0126530612245	37	127
300.05909297052153	300.256462585034	61	127
300.05909297052153	300.256462585034	73	127
300.05909297052153	300.256462585034	53	127
300.3029024943311	300.50027210884355	77	127
300.3029024943311	300.50027210884355	65	127
300.3029024943311	300.50027210884355	49	127
300.55832199546484	300.7673015873016	77	127
300.55832199546484	300.7673015873016	65	127
300.55832199546484	300.7673015873016	49	127
300.81374149659865	301.18526077097505	85	127
300.81374149659865	301.18526077097505	73	127
300.81374149659865	301.18526077097505	53	127
300.81374149659865	301.18526077097505	41	127
301.2665306122449	301.6032199546485	54	127
301.2665306122449	301.6032199546485	42	127
301.2665306122449	301.31297052154196	84	127
301.2665306122449	301.6032199546485	72	127
301.3245804988662	301.35938775510203	85	127
301.35938775510203	301.3942403628118	84	127
301.40585034013606	301.45229024943313	85	127
301.4638775510204	301.5103401360544	84	127
301.5219501133787	301.58	85	127
301.59160997732425	301.62643990929706	83	127
301.63804988662133	301.68448979591835	84	127
301.6960997732426	301.90507936507936	73	127
301.6960997732426	301.90507936507936	85	127
301.6960997732426	301.90507936507936	41	127
301.6960997732426	301.90507936507936	53	127
301.95151927437644	302.13727891156464	73	127
301.95151927437644	302.13727891156464	61	127
301.95151927437644	302.13727891156464	53	127
302.1836961451247	302.3462585034014	77	127
302.1836961451247	302.3462585034014	65	127
302.1836961451247	302.3462585034014	49	127
302.3926984126984	302.6132879818594	77	127
302.3926984126984	302.6132879818594	65	127
302.3926984126984	302.6132879818594	49	127
302.6597278911565	302.98480725623585	73	127
302.6597278911565	302.98480725623585	85	127
302.6597278911565	302.98480725623585	41	127
302.6597278911565	302.98480725623585	53	127
303.0660770975057	303.1125170068027	86	127
303.0660770975057	303.9135827664399	52	127
303.0660770975057	303.9135827664399	74	127
303.0660770975057	303.9135827664399	40	127
303.0660770975057	303.9135827664399	44	127
303.124126984127	303.17056689342405	88	127
303.1821768707483	303.22861678004534	86	127
303.2402267573696	303.2866666666667	88	127
303.3098866213152	303.3679365079365	86	127
303.3795464852608	303.41437641723354	88	127
303.4259863945578	303.4608163265306	86	127
303.4724263038549	303.5072335600907	88	127
303.5188662131519	303.9135827664399	86	127
304.006485260771	304.7378911564626	51	127
304.006485260771	304.7378911564626	75	127
304.006485260771	304.7378911564626	44	127
304.006485260771	304.7378911564626	39	127
304.006485260771	304.052925170068	87	127
304.0645351473923	304.0993650793651	88	127
304.11097505668937	304.1458049886621	87	127
304.1574149659864	304.20385487528347	88	127
304.21546485260774	304.27351473922903	87	127
304.2851247165533	304.3315646258503	88	127
304.3431746031746	304.38961451247167	87	127
304.40122448979594	304.4360544217687	88	127
304.44766439909296	304.8307709750567	87	127
304.9120634920635	305.80603174603175	42	127
304.9120634920635	304.95850340136053	90	127
304.9120634920635	305.80603174603175	87	127
304.9120634920635	305.80603174603175	78	127
304.9120634920635	305.80603174603175	47	127
304.9120634920635	305.80603174603175	35	127
304.9701133786848	305.0397505668934	92	127
305.05138321995463	305.109433106576	90	127
305.12104308390025	305.16748299319727	92	127
305.17909297052154	305.24873015873015	90	127
305.26036281179137	305.2951927437642	92	127
305.30680272108845	305.3532199546485	90	127
305.36485260770974	305.4112925170068	92	127
305.4229024943311	305.80603174603175	90	127
305.89891156462585	306.39814058956915	28	127
305.89891156462585	306.39814058956915	40	127
305.89891156462585	306.39814058956915	79	127
305.89891156462585	306.39814058956915	88	127
305.89891156462585	306.39814058956915	91	127
306.5142403628118	307.84938775510204	55	127
306.5142403628118	307.84938775510204	79	127
306.5142403628118	307.84938775510204	67	127
306.5142403628118	307.84938775510204	76	127
306.5142403628118	307.84938775510204	64	127
306.5142403628118	307.84938775510204	52	127
307.88421768707485	308.023537414966	54	127
307.88421768707485	308.023537414966	78	127
307.88421768707485	308.023537414966	57	127
307.88421768707485	308.023537414966	81	127
308.0467573696145	308.1860770975057	55	127
308.0467573696145	308.1860770975057	79	127
308.0467573696145	308.1860770975057	82	127
308.0467573696145	308.1860770975057	58	127
308.22090702947844	308.34861678004535	78	127
308.22090702947844	308.34861678004535	57	127
308.22090702947844	308.34861678004535	81	127
308.22090702947844	308.34861678004535	54	127
308.3718367346939	308.4995464852608	82	127
308.3718367346939	308.4995464852608	79	127
308.3718367346939	308.4995464852608	58	127
308.3718367346939	308.4995464852608	55	127
308.5227664399093	308.685306122449	60	127
308.5227664399093	308.685306122449	57	127
308.5227664399093	308.685306122449	81	127
308.5227664399093	308.685306122449	84	127
308.7201133786848	308.8362358276644	79	127
308.7201133786848	308.8362358276644	55	127
308.7201133786848	308.8362358276644	58	127
308.7201133786848	308.8362358276644	82	127
308.8710657596372	309.01038548752837	81	127
308.8710657596372	309.01038548752837	84	127
308.8710657596372	309.01038548752837	60	127
308.8710657596372	309.01038548752837	57	127
309.0335827664399	309.1845351473923	82	127
309.0335827664399	309.1845351473923	86	127
309.0335827664399	309.1845351473923	58	127
309.0335827664399	309.1845351473923	62	127
309.2309523809524	309.89274376417234	76	127
309.2309523809524	309.89274376417234	79	127
309.2309523809524	309.89274376417234	55	127
309.2309523809524	309.89274376417234	52	127
309.9391836734694	310.05526077097505	81	127
309.9391836734694	310.05526077097505	54	127
309.9391836734694	310.05526077097505	78	127
309.9391836734694	310.05526077097505	57	127
310.07850340136054	310.2178231292517	82	127
310.07850340136054	310.2178231292517	58	127
310.07850340136054	310.2178231292517	79	127
310.07850340136054	310.2178231292517	55	127
310.2526303854875	310.3803628117914	81	127
310.2526303854875	310.3803628117914	78	127
310.2526303854875	310.3803628117914	54	127
310.2526303854875	310.3803628117914	57	127
310.4151927437642	310.5312925170068	79	127
310.4151927437642	310.5312925170068	58	127
310.4151927437642	310.5312925170068	82	127
310.4151927437642	310.5312925170068	55	127
310.55448979591836	310.67061224489794	81	127
310.55448979591836	310.67061224489794	84	127
310.55448979591836	310.67061224489794	60	127
310.55448979591836	310.67061224489794	57	127
310.70544217687075	310.8447619047619	79	127
310.70544217687075	310.8447619047619	82	127
310.70544217687075	310.8447619047619	55	127
310.70544217687075	310.8447619047619	58	127
310.8795918367347	311.0305215419501	57	127
310.8795918367347	311.0305215419501	84	127
310.8795918367347	311.0305215419501	81	127
310.8795918367347	311.0305215419501	60	127
311.0769387755102	311.1814512471655	86	127
311.0769387755102	311.1814512471655	82	127
311.0769387755102	311.1814512471655	58	127
311.0769387755102	311.1814512471655	62	127
311.2162811791383	311.8548299319728	84	127
311.2162811791383	311.82	64	127
311.2162811791383	311.82	60	127
311.2162811791383	311.8548299319728	88	127
311.8548299319728	312.0057596371882	79	127
311.8548299319728	312.0057596371882	55	127
312.040589569161	312.1682993197279	88	127
312.040589569161	312.1682993197279	64	127
312.2031065759637	312.8532879818594	65	127
312.2031065759637	312.8532879818594	57	127
312.2031065759637	312.8532879818594	81	127
312.2031065759637	312.8532879818594	89	127
312.2031065759637	312.8532879818594	84	127
312.2031065759637	312.8532879818594	60	127
312.8881179138322	313.0158049886621	81	127
312.8881179138322	313.0158049886621	57	127
313.0390476190476	313.143537414966	89	127
313.0390476190476	313.143537414966	65	127
313.1783673469388	313.7704761904762	84	127
313.1783673469388	313.7704761904762	60	127
313.1783673469388	313.7704761904762	69	127
313.1783673469388	313.7704761904762	93	127
313.805306122449	313.9446258503401	81	127
313.805306122449	313.9446258503401	69	127
313.9794557823129	314.14197278911564	93	127
313.9794557823129	314.14197278911564	57	127
314.1768253968254	314.8153741496599	99	127
314.1768253968254	314.8153741496599	87	127
314.1768253968254	314.8153741496599	47	127
314.1768253968254	314.8153741496599	57	127
314.1768253968254	314.8153741496599	54	127
314.1768253968254	314.8153741496599	59	127
314.8501814058957	314.97791383219953	69	127
314.8501814058957	315.79061224489794	57	127
315.01274376417234	315.1520634920635	81	127
315.01274376417234	315.79061224489794	54	127
315.175283446712	315.79061224489794	87	127
315.175283446712	315.79061224489794	47	127
315.175283446712	315.79061224489794	75	127
315.82544217687075	315.95315192743766	69	127
315.82544217687075	315.95315192743766	57	127
315.9879818594104	316.1156916099773	81	127
315.9879818594104	316.1156916099773	54	127
316.13891156462586	316.2898185941043	87	127
316.13891156462586	316.2898185941043	75	127
316.13891156462586	316.2898185941043	47	127
316.32467120181406	316.4407709750567	69	127
316.32467120181406	316.4407709750567	57	127
316.4756009070295	316.58009070294787	54	127
316.4756009070295	316.58009070294787	81	127
316.60331065759635	316.7542403628118	75	127
316.60331065759635	316.7542403628118	87	127
316.60331065759635	316.7542403628118	47	127
316.77746031746034	316.90514739229025	69	127
316.77746031746034	316.90514739229025	57	127
316.94	317.0793197278912	87	127
316.94	317.0793197278912	75	127
316.94	317.0793197278912	54	127
317.1025170068027	317.24185941043083	90	127
317.1025170068027	317.24185941043083	78	127
317.1025170068027	317.32312925170066	59	127
317.27668934240364	317.45083900226757	81	127
317.27668934240364	317.45083900226757	69	127
317.40437641723355	317.59015873015875	47	127
317.4856689342404	317.6133560090703	75	127
317.4856689342404	317.6133560090703	87	127
317.63659863945577	318.0081179138322	83	127
317.63659863945577	318.0081179138322	79	127
317.63659863945577	318.0081179138322	52	127
317.63659863945577	318.0081179138322	40	127
317.63659863945577	318.0081179138322	43	127
317.63659863945577	318.0081179138322	47	127
317.63659863945577	318.3448072562358	88	127
317.63659863945577	318.90208616780046	76	127
318.1009977324263	318.99496598639456	52	127
318.1009977324263	318.3448072562358	64	127
318.3796371882086	318.5073469387755	86	127
318.3796371882086	318.5073469387755	62	127
318.53054421768707	318.6582766439909	60	127
318.53054421768707	318.6582766439909	84	127
318.68149659863946	318.82081632653063	62	127
318.68149659863946	318.82081632653063	86	127
318.8556462585034	318.99496598639456	84	127
318.8556462585034	318.99496598639456	60	127
319.02979591836737	319.1575056689342	83	127
319.02979591836737	319.1575056689342	59	127
319.1575056689342	319.27360544217686	60	127
319.1575056689342	319.54063492063494	76	127
319.1575056689342	319.54063492063494	52	127
319.1575056689342	319.27360544217686	84	127
319.32004535147394	319.44775510204084	59	127
319.32004535147394	319.44775510204084	83	127
319.4825850340136	319.6102947845805	81	127
319.4825850340136	319.6102947845805	57	127
319.63351473922904	320.26045351473925	55	127
319.63351473922904	320.26045351473925	88	127
319.63351473922904	320.26045351473925	79	127
319.63351473922904	320.26045351473925	64	127
319.63351473922904	320.81773242630385	76	127
319.63351473922904	320.81773242630385	52	127
320.3068934240363	320.4229931972789	86	127
320.3068934240363	320.4229931972789	62	127
320.4578231292517	320.58551020408163	60	127
320.4578231292517	320.58551020408163	84	127
320.6087528344671	320.7132426303855	86	127
320.6087528344671	320.7132426303855	62	127
320.75968253968256	320.8990022675737	84	127
320.75968253968256	320.8990022675737	60	127
320.9338321995465	321.0499319727891	83	127
320.9338321995465	321.0499319727891	59	127
321.07315192743766	321.47950113378687	76	127
321.07315192743766	321.2008616780045	84	127
321.07315192743766	321.2008616780045	60	127
321.07315192743766	321.47950113378687	52	127
321.2473015873016	321.38662131519277	59	127
321.2473015873016	321.38662131519277	83	127
321.4214512471655	321.54916099773243	81	127
321.4214512471655	321.54916099773243	57	127
321.57238095238097	321.94390022675736	79	127
321.57238095238097	321.94390022675736	59	127
321.57238095238097	321.94390022675736	55	127
321.57238095238097	322.17609977324264	64	127
321.57238095238097	321.94390022675736	83	127
321.57238095238097	322.17609977324264	88	127
322.04839002267573	322.44312925170067	58	127
322.04839002267573	322.44312925170067	82	127
322.04839002267573	322.44312925170067	79	127
322.04839002267573	322.44312925170067	55	127
322.22253968253966	322.35024943310657	86	127
322.22253968253966	322.35024943310657	62	127
322.3850793650794	322.5127891156463	85	127
322.3850793650794	322.5127891156463	61	127
322.54761904761904	322.89591836734695	57	127
322.54761904761904	322.89591836734695	54	127
322.54761904761904	323.0932879818594	62	127
322.54761904761904	322.89591836734695	81	127
322.54761904761904	322.89591836734695	78	127
322.54761904761904	323.0932879818594	86	127
323.0004081632653	323.3487074829932	53	127
323.0004081632653	323.3487074829932	80	127
323.0004081632653	323.3487074829932	56	127
323.0004081632653	323.3487074829932	77	127
323.1281179138322	323.24419501133787	60	127
323.1281179138322	323.24419501133787	84	127
323.2790476190476	323.44156462585033	59	127
323.2790476190476	323.44156462585033	83	127
323.4764172335601	323.84791383219954	76	127
323.4764172335601	323.84791383219954	79	127
323.4764172335601	323.84791383219954	55	127
323.4764172335601	323.84791383219954	52	127
323.4764172335601	324.0568934240363	84	127
323.4764172335601	324.0568934240363	60	127
323.9524036281179	324.3355555555556	76	127
323.9524036281179	324.3355555555556	78	127
323.9524036281179	324.3355555555556	52	127
323.9524036281179	324.3355555555556	54	127
324.091746031746	324.2310657596372	59	127
324.091746031746	324.2310657596372	83	127
324.2775056689342	324.40521541950113	82	127
324.2775056689342	324.40521541950113	58	127
324.44004535147394	324.68385487528343	71	127
324.44004535147394	324.68385487528343	83	127
324.44004535147394	324.68385487528343	78	127
324.44004535147394	324.68385487528343	51	127
324.44004535147394	324.68385487528343	54	127
324.44004535147394	324.68385487528343	59	127
324.7419047619048	324.9624943310658	76	127
324.7419047619048	324.9624943310658	79	127
324.7419047619048	324.9624943310658	67	127
324.7419047619048	324.9624943310658	52	127
324.7419047619048	324.9624943310658	55	127
325.0437641723356	325.5546031746032	78	127
325.0437641723356	325.28755102040816	76	127
325.0437641723356	325.28755102040816	52	127
325.0437641723356	325.5546031746032	71	127
325.0437641723356	325.5546031746032	66	127
325.0437641723356	325.5546031746032	59	127
325.0437641723356	325.5546031746032	47	127
325.0437641723356	325.5546031746032	54	127
325.34562358276645	325.6707029478458	51	127
325.34562358276645	325.6707029478458	75	127
325.71714285714285	326.15832199546486	67	127
325.71714285714285	326.15832199546486	76	127
325.71714285714285	326.15832199546486	71	127
325.71714285714285	326.15832199546486	47	127
325.71714285714285	326.15832199546486	43	127
325.71714285714285	326.5065986394558	64	127
325.71714285714285	326.5065986394558	40	127
325.71714285714285	326.15832199546486	52	127
326.52984126984126	326.65755102040816	66	127
326.52984126984126	326.65755102040816	42	127
326.692380952381	326.8200680272109	67	127
326.692380952381	326.8200680272109	43	127
326.85492063492063	326.97102040816327	66	127
326.85492063492063	326.97102040816327	42	127
326.9942403628118	327.1219274376417	67	127
326.9942403628118	327.1219274376417	43	127
327.15678004535147	327.2844897959184	69	127
327.15678004535147	327.2844897959184	45	127
327.3193197278912	327.48185941043084	67	127
327.3193197278912	327.48185941043084	43	127
327.5050793650794	327.6327664399093	69	127
327.5050793650794	327.6327664399093	45	127
327.66761904761904	327.79532879818595	71	127
327.66761904761904	327.79532879818595	47	127
327.83015873015876	328.4454875283447	64	127
327.83015873015876	328.2248979591837	72	127
327.83015873015876	328.2248979591837	69	127
327.83015873015876	328.2248979591837	48	127
327.83015873015876	328.2248979591837	45	127
327.83015873015876	328.4454875283447	40	127
328.3061678004535	328.503537414966	67	127
328.3061678004535	328.503537414966	47	127
328.3061678004535	328.503537414966	43	127
328.3061678004535	328.503537414966	71	127
328.4687074829932	328.5848072562358	42	127
328.4687074829932	328.5848072562358	66	127
328.6196371882086	328.73573696145127	43	127
328.6196371882086	328.73573696145127	67	127
328.770566893424	328.88666666666666	66	127
328.770566893424	328.88666666666666	42	127
328.9098866213152	329.0375963718821	67	127
328.9098866213152	329.0375963718821	43	127
329.07242630385485	329.20013605442176	69	127
329.07242630385485	329.20013605442176	45	127
329.2581859410431	329.37426303854875	43	127
329.2581859410431	329.37426303854875	67	127
329.39750566893423	329.51360544217687	69	127
329.39750566893423	329.51360544217687	45	127
329.5484353741497	329.6877551020408	71	127
329.5484353741497	329.6877551020408	47	127
329.7225850340136	330.1753741496599	45	127
329.7225850340136	330.1753741496599	69	127
329.7225850340136	330.1753741496599	72	127
329.7225850340136	330.1753741496599	48	127
329.7225850340136	330.4075736961451	64	127
329.7225850340136	330.4075736961451	40	127
330.27986394557826	330.46562358276645	71	127
330.27986394557826	330.46562358276645	43	127
330.27986394557826	330.46562358276645	47	127
330.27986394557826	330.46562358276645	67	127
330.43079365079365	330.55850340136055	66	127
330.43079365079365	330.55850340136055	42	127
330.5817233560091	330.70943310657594	67	127
330.5817233560091	330.70943310657594	43	127
330.74426303854875	331.2551020408163	72	127
330.74426303854875	331.2551020408163	69	127
330.74426303854875	331.2551020408163	48	127
330.74426303854875	331.2551020408163	45	127
330.74426303854875	331.49891156462587	64	127
330.74426303854875	331.49891156462587	40	127
331.3595918367347	331.55696145124716	47	127
331.3595918367347	331.55696145124716	71	127
331.3595918367347	331.55696145124716	43	127
331.3595918367347	331.55696145124716	67	127
331.5221088435374	331.64984126984126	42	127
331.5221088435374	331.64984126984126	66	127
331.7078911564626	331.858820861678	43	127
331.7078911564626	331.858820861678	67	127
331.9284580498866	332.65990929705214	48	127
331.9284580498866	332.06780045351474	64	127
331.9284580498866	332.65990929705214	69	127
331.9284580498866	332.65990929705214	72	127
331.9284580498866	332.06780045351474	40	127
331.9284580498866	332.65990929705214	45	127
332.0910204081633	332.2187301587302	42	127
332.0910204081633	332.2187301587302	66	127
332.25356009070293	332.4044897959184	43	127
332.25356009070293	332.4044897959184	67	127
332.4277097505669	332.5321995464853	64	127
332.4277097505669	332.5321995464853	40	127
332.55541950113377	332.65990929705214	66	127
332.55541950113377	332.65990929705214	42	127
332.6831292517007	332.8108390022676	67	127
332.6831292517007	332.8108390022676	43	127
332.8456462585034	332.97337868480724	64	127
332.8456462585034	332.97337868480724	40	127
332.8456462585034	333.5190476190476	71	127
332.8456462585034	333.5190476190476	47	127
333.00820861678005	333.13591836734696	66	127
333.00820861678005	333.13591836734696	42	127
333.1707482993197	333.22879818594106	67	127
333.1707482993197	333.22879818594106	43	127
333.26360544217687	333.3913378684807	64	127
333.26360544217687	333.3913378684807	40	127
333.41455782312926	333.5190476190476	66	127
333.41455782312926	333.5190476190476	42	127
333.55387755102043	333.69319727891155	43	127
333.55387755102043	333.69319727891155	67	127
333.72802721088436	333.87895691609975	64	127
333.72802721088436	333.87895691609975	40	127
333.72802721088436	334.51750566893423	70	127
333.72802721088436	334.51750566893423	46	127
333.91378684807256	334.00666666666666	66	127
333.91378684807256	334.00666666666666	42	127
334.04149659863947	334.1575963718821	43	127
334.04149659863947	334.1575963718821	67	127
334.2040362811791	334.3433560090703	40	127
334.2040362811791	334.3433560090703	64	127
334.3781632653061	334.51750566893423	66	127
334.3781632653061	334.51750566893423	42	127
334.55233560090704	334.68004535147395	67	127
334.55233560090704	334.68004535147395	43	127
334.72648526077097	334.86580498866215	64	127
334.72648526077097	334.86580498866215	40	127
334.72648526077097	335.51596371882084	70	127
334.72648526077097	335.51596371882084	58	127
334.9006349206349	335.0283446712018	66	127
334.9006349206349	335.0283446712018	42	127
335.0747845804989	335.2024716553288	43	127
335.0747845804989	335.2024716553288	67	127
335.23732426303854	335.36503401360545	40	127
335.23732426303854	335.36503401360545	64	127
335.388253968254	335.51596371882084	66	127
335.388253968254	335.51596371882084	42	127
335.5391836734694	335.71331065759637	43	127
335.5391836734694	335.71331065759637	67	127
335.7481632653061	335.86426303854876	64	127
335.7481632653061	336.50281179138324	69	127
335.7481632653061	336.50281179138324	57	127
335.7481632653061	335.86426303854876	52	127
335.8874829931973	336.0151700680272	66	127
335.8874829931973	336.0151700680272	54	127
336.0384126984127	336.1545124716553	55	127
336.0384126984127	336.1545124716553	67	127
336.18934240362813	336.31705215419504	64	127
336.18934240362813	336.31705215419504	52	127
336.3518820861678	336.50281179138324	66	127
336.3518820861678	336.50281179138324	54	127
336.5260090702948	336.6653514739229	67	127
336.5260090702948	336.6653514739229	55	127
336.71179138322	336.8394784580499	69	127
336.71179138322	337.4780498866213	81	127
336.71179138322	336.8394784580499	37	127
336.86272108843536	336.978820861678	45	127
336.86272108843536	336.978820861678	76	127
337.00204081632654	337.15297052154193	49	127
337.00204081632654	337.15297052154193	79	127
337.18780045351474	337.31551020408165	69	127
337.18780045351474	337.31551020408165	37	127
337.35031746031746	337.4780498866213	76	127
337.35031746031746	337.4780498866213	45	127
337.50126984126985	337.640589569161	79	127
337.50126984126985	337.640589569161	49	127
337.6754195011338	338.5113378684807	70	127
337.6754195011338	337.81473922902495	64	127
337.6754195011338	337.81473922902495	52	127
337.6754195011338	338.5113378684807	58	127
337.87278911564624	338.00049886621315	66	127
337.87278911564624	338.00049886621315	54	127
338.0237188208617	338.16301587301587	55	127
338.0237188208617	338.16301587301587	67	127
338.1978684807256	338.34879818594106	64	127
338.1978684807256	338.34879818594106	52	127
338.3836281179138	338.5113378684807	54	127
338.3836281179138	338.5113378684807	66	127
338.53455782312926	338.66226757369617	67	127
338.53455782312926	338.66226757369617	55	127
338.6970975056689	338.8828344671202	36	127
338.6970975056689	339.44013605442177	82	127
338.6970975056689	338.82480725623583	70	127
338.85963718820864	338.98732426303854	76	127
338.94090702947847	339.1150566893424	48	127
339.010566893424	339.12666666666667	79	127
339.1614965986395	339.2891836734694	70	127
339.1614965986395	339.3472562358277	36	127
339.32403628117913	339.44013605442177	76	127
339.39367346938775	339.5678458049887	48	127
339.4633560090703	339.60267573696143	79	127
339.63750566893424	339.76521541950115	47	127
339.63750566893424	339.76521541950115	64	127
339.63750566893424	340.3689342403628	71	127
339.7884353741497	339.91614512471654	52	127
339.7884353741497	339.91614512471654	66	127
339.9393650793651	340.067074829932	67	127
339.9393650793651	340.067074829932	55	127
340.1018820861678	340.2180045351474	64	127
340.1018820861678	340.2180045351474	47	127
340.2528344671202	340.3689342403628	52	127
340.2528344671202	340.3689342403628	66	127
340.3805442176871	340.5663038548753	67	127
340.3805442176871	340.5663038548753	55	127
340.67079365079366	340.79850340136056	73	127
340.67079365079366	340.89138321995466	34	127
340.67079365079366	343.1901587301587	85	127
340.8333333333333	340.9726530612245	76	127
340.9146031746032	341.18163265306123	46	127
340.99587301587303	341.1468027210884	79	127
341.1932426303855	341.4138321995465	34	127
341.1932426303855	341.3325396825397	73	127
341.3673922902494	341.4718820861678	76	127
341.43702947845804	341.611201814059	46	127
341.49510204081633	341.58798185941043	79	127
341.62281179138324	341.79696145124717	34	127
341.62281179138324	341.7388888888889	73	127
341.76213151927436	341.88984126984127	76	127
341.84337868480725	342.052358276644	46	127
341.9246712018141	342.0639909297052	79	127
342.1104308390023	342.3310204081633	34	127
342.1104308390023	342.26136054421767	73	127
342.2961904761905	342.4471201814059	76	127
342.40068027210884	342.58643990929704	46	127
342.4703401360544	342.5980498866213	79	127
342.6444897959184	342.77219954648524	73	127
342.6444897959184	342.84185941043086	34	127
342.80702947845805	342.93473922902496	76	127
342.8882993197279	343.07403628117913	46	127
342.9579591836735	343.08566893424035	79	127
343.12049886621315	343.21337868480725	73	127
343.12049886621315	343.2946485260771	34	127
343.24820861678006	343.3875283446712	76	127
343.34108843537416	343.52684807256236	46	127
343.4107482993197	343.53845804988663	79	127
343.5848752834467	343.8287074829932	35	127
343.5848752834467	344.3975736961451	83	127
343.5848752834467	343.74743764172337	71	127
343.7822448979592	343.9215873015873	76	127
343.8751473922903	344.084126984127	47	127
343.97963718820864	344.0957142857143	80	127
344.13056689342403	344.31632653061223	35	127
344.13056689342403	344.25827664399094	71	127
344.2814965986395	344.3975736961451	76	127
344.35115646258504	344.5485260770975	47	127
344.43242630385487	344.5601360544218	80	127
344.5949659863946	344.72267573696143	71	127
344.5949659863946	344.8039229024943	35	127
344.5949659863946	345.41925170068026	83	127
344.7691156462585	344.8968253968254	76	127
344.85038548752834	345.03614512471654	47	127
344.9316553287982	345.0477551020408	79	127
345.0941950113379	345.3147619047619	35	127
345.0941950113379	345.2218820861678	71	127
345.25673469387755	345.41925170068026	76	127
345.3612244897959	345.57020408163265	47	127
345.45410430839	345.5818140589569	79	127
345.61664399092973	346.38290249433106	82	127
345.61664399092973	345.75596371882085	70	127
345.61664399092973	345.82562358276647	35	127
345.79079365079366	345.91850340136057	76	127
345.8720634920635	346.0578231292517	47	127
345.9533333333333	346.0810430839002	79	127
346.10426303854877	346.29002267573696	35	127
346.10426303854877	346.24356009070294	70	127
346.2784126984127	346.38290249433106	76	127
346.33646258503404	346.5454195011338	47	127
346.42934240362814	346.56866213151926	79	127
346.5918820861678	346.80086167800454	35	127
346.5918820861678	346.731201814059	69	127
346.5918820861678	347.38136054421767	81	127
346.76603174603173	346.89374149659864	75	127
346.8473015873016	347.0446712018141	47	127
346.92857142857144	347.06789115646257	78	127
347.0911111111111	347.2884807256236	35	127
347.0911111111111	347.218820861678	69	127
347.2536507936508	347.38136054421767	75	127
347.33492063492065	347.57873015873014	47	127
347.4161904761905	347.61356009070295	78	127
347.6367800453515	348.4146485260771	80	127
347.6367800453515	347.7644897959184	68	127
347.6367800453515	347.83414965986395	35	127
347.79931972789115	347.9154195011338	71	127
347.88056689342403	348.0431292517007	47	127
347.9502494331066	348.06634920634923	76	127
348.0895691609977	348.2288888888889	68	127
348.0895691609977	348.321768707483	35	127
348.28691609977324	348.4146485260771	71	127
348.36820861678007	348.5771882086168	47	127
348.47269841269843	348.6004081632653	76	127
348.6236281179138	348.78616780045354	67	127
348.6236281179138	349.5175736961451	79	127
348.6236281179138	348.8558276643991	35	127
348.8209977324263	348.983537414966	70	127
348.93709750566893	349.14607709750567	47	127
349.02997732426303	349.1692970521542	76	127
349.19251700680275	349.3085941043084	67	127
349.19251700680275	349.3898866213152	35	127
349.34344671201814	349.5175736961451	70	127
349.4479365079365	349.65691609977324	47	127
349.5524263038549	349.6801360544218	76	127
349.7033560090703	350.6205442176871	78	127
349.7033560090703	349.9007256235828	66	127
349.7033560090703	349.97038548752835	35	127
349.93555555555554	350.06326530612245	71	127
350.0168253968254	350.2374149659864	47	127
350.1212925170068	350.2606349206349	76	127
350.28385487528345	350.4580045351474	66	127
350.28385487528345	350.527664399093	35	127
350.4928344671202	350.6205442176871	71	127
350.57410430839	350.82952380952383	47	127
350.6785941043084	350.87596371882086	76	127
350.8991836734694	351.9905215419501	78	127
350.8991836734694	351.10816326530613	66	127
350.8991836734694	351.1778231292517	35	127
351.14297052154194	351.29392290249433	69	127
351.22426303854877	351.4912925170068	47	127
351.3519501133787	351.51451247165534	75	127
351.5609297052154	351.79315192743763	35	127
351.5609297052154	351.7234920634921	66	127
351.7582993197279	351.9905215419501	69	127
351.851201814059	352.17625850340136	47	127
352.0253514739229	352.19950113378684	75	127
352.23433106575965	352.54780045351475	40	127
352.23433106575965	352.54780045351475	76	127
352.23433106575965	352.54780045351475	67	127
352.8496598639456	353.000589569161	69	127
352.8496598639456	353.000589569161	51	127
352.8496598639456	353.000589569161	39	127
352.8496598639456	353.000589569161	66	127
352.8496598639456	353.000589569161	59	127
353.0586394557823	353.36049886621316	40	127
353.0586394557823	353.36049886621316	52	127
353.0586394557823	353.36049886621316	59	127
353.0586394557823	353.36049886621316	67	127
353.0586394557823	353.36049886621316	64	127
353.6159183673469	353.76684807256237	69	127
353.6159183673469	353.76684807256237	59	127
353.6159183673469	353.76684807256237	51	127
353.6159183673469	353.76684807256237	39	127
353.6159183673469	353.76684807256237	66	127
353.77845804988664	354.103537414966	52	127
353.77845804988664	354.103537414966	64	127
353.77845804988664	354.103537414966	67	127
353.77845804988664	354.103537414966	59	127
353.77845804988664	354.103537414966	40	127
354.3821768707483	354.5098866213152	50	127
354.3821768707483	354.5098866213152	68	127
354.3821768707483	354.5098866213152	64	127
354.3821768707483	354.5098866213152	59	127
354.3821768707483	354.5098866213152	38	127
354.54471655328797	354.8465759637188	36	127
354.54471655328797	354.8465759637188	57	127
354.54471655328797	354.8465759637188	69	127
354.54471655328797	354.8465759637188	64	127
354.54471655328797	354.8465759637188	48	127
355.13680272108843	355.2877551020408	68	127
355.13680272108843	355.2877551020408	71	127
355.13680272108843	355.2877551020408	62	127
355.13680272108843	355.2877551020408	35	127
355.13680272108843	355.2877551020408	47	127
355.3225850340136	355.7057142857143	33	127
355.3225850340136	355.7057142857143	64	127
355.3225850340136	355.7057142857143	72	127
355.3225850340136	355.7057142857143	69	127
355.3225850340136	355.7057142857143	45	127
355.7869841269841	355.9263038548753	30	127
355.7869841269841	355.9263038548753	42	127
355.7869841269841	355.99596371882086	70	127
355.7869841269841	356.41392290249433	78	127
355.7869841269841	356.41392290249433	73	127
355.9727437641723	356.10045351473923	44	127
356.0539909297052	356.44875283446714	66	127
356.1468934240363	356.32104308390024	46	127
356.3442630385488	356.4371428571429	44	127
356.4603401360544	356.5532426303855	46	127
356.5184126984127	356.68095238095236	71	127
356.5184126984127	356.68095238095236	75	127
356.5184126984127	356.68095238095236	66	127
356.58807256235826	356.69256235827663	47	127
356.71578231292517	356.91315192743764	68	127
356.71578231292517	356.8434920634921	40	127
356.71578231292517	357.07566893424035	71	127
356.71578231292517	357.07566893424035	76	127
356.8899319727891	356.99442176870747	42	127
356.9595918367347	357.3078911564626	64	127
357.017641723356	357.1453514739229	44	127
357.16857142857145	357.2498412698413	42	127
357.16857142857145	357.3078911564626	76	127
357.16857142857145	357.3078911564626	71	127
357.2730612244898	357.3775510204082	44	127
357.3427210884354	357.5517006802721	73	127
357.3427210884354	357.5517006802721	69	127
357.3427210884354	357.5517006802721	64	127
357.4007709750567	357.5633106575964	45	127
357.59814058956914	357.7839002267574	69	127
357.59814058956914	357.7374603174603	38	127
357.59814058956914	357.7839002267574	62	127
357.59814058956914	357.7839002267574	66	127
357.59814058956914	357.7839002267574	74	127
357.76068027210886	357.85356009070296	50	127
357.81873015873015	357.98126984126986	71	127
357.81873015873015	357.98126984126986	67	127
357.81873015873015	357.98126984126986	62	127
357.8767800453515	357.99285714285713	43	127
358.03931972789115	358.17863945578233	45	127
358.03931972789115	358.2366893424036	60	127
358.03931972789115	358.2366893424036	66	127
358.03931972789115	358.2366893424036	72	127
358.20183673469387	358.341179138322	33	127
358.2831292517007	358.44566893424036	69	127
358.2831292517007	358.44566893424036	66	127
358.2831292517007	358.44566893424036	60	127
358.36439909297053	358.45727891156463	45	127
358.5036961451247	358.6894784580499	64	127
358.5036961451247	358.63142857142856	35	127
358.5036961451247	358.6894784580499	67	127
358.5036961451247	358.6894784580499	59	127
358.6546485260771	358.75913832199547	47	127
358.7359183673469	358.89845804988664	59	127
358.7359183673469	358.89845804988664	63	127
358.7359183673469	358.89845804988664	66	127
358.7939682539683	358.9100680272109	35	127
358.9332879818594	359.04938775510203	64	127
358.9332879818594	359.26997732426304	40	127
359.0958276643991	359.1887074829932	66	127
359.21192743764175	359.3164172335601	67	127
359.36285714285714	359.49056689342405	66	127
359.5137868480726	359.61827664399095	67	127
359.5718367346939	359.7575963718821	39	127
359.5718367346939	359.7575963718821	51	127
359.6531065759637	359.76920634920634	69	127
359.80403628117915	359.9201360544218	67	127
359.80403628117915	360.1407029478458	52	127
359.80403628117915	360.1407029478458	40	127
359.95496598639454	360.0710657596372	69	127
360.0942857142857	360.1871655328798	71	127
360.2219954648526	360.326485260771	66	127
360.3845351473923	360.48902494331065	67	127
360.4541723356009	360.6051247165533	39	127
360.4541723356009	360.6051247165533	51	127
360.5122448979592	360.61673469387756	69	127
360.6399546485261	360.9534240362812	52	127
360.6399546485261	360.74444444444447	67	127
360.6399546485261	360.9534240362812	40	127
360.76766439909295	360.8605215419501	69	127
360.9069841269841	360.9998639455782	71	127
361.02308390022677	361.11596371882086	68	127
361.1391836734694	361.2436734693878	69	127
361.20884353741496	361.33655328798187	50	127
361.20884353741496	361.33655328798187	38	127
361.2668707482993	361.3597732426304	71	127
361.3829931972789	361.70807256235827	48	127
361.3829931972789	361.47585034013605	69	127
361.3829931972789	361.70807256235827	36	127
361.49909297052153	361.62680272108844	71	127
361.650022675737	361.7661224489796	72	127
361.7893424036281	361.89383219954647	71	127
361.917052154195	362.03315192743764	72	127
361.97510204081635	362.21891156462584	32	127
361.97510204081635	362.21891156462584	44	127
362.06798185941045	362.2305215419501	74	127
362.25374149659865	362.6368707482993	45	127
362.25374149659865	362.38145124716556	72	127
362.25374149659865	362.6368707482993	33	127
362.4278911564626	362.56721088435376	74	127
362.5904308390023	362.70650793650793	76	127
362.75297052154195	362.9155102040816	42	127
362.75297052154195	362.9155102040816	30	127
362.75297052154195	363.3566893424036	73	127
362.75297052154195	363.3566893424036	78	127
362.75297052154195	363.3566893424036	66	127
362.97356009070296	363.12448979591835	44	127
363.1477097505669	363.25219954648526	46	127
363.28702947845807	363.37990929705217	44	127
363.414716553288	363.5076190476191	46	127
363.47278911564626	363.6004988662132	71	127
363.47278911564626	363.6004988662132	75	127
363.47278911564626	363.6004988662132	66	127
363.51920634920634	363.61210884353744	47	127
363.6469387755102	363.7746485260771	40	127
363.6469387755102	364.2158276643991	71	127
363.6469387755102	364.2158276643991	76	127
363.6469387755102	364.2158276643991	64	127
363.8094784580499	363.92555555555555	42	127
363.94879818594103	364.0300453514739	44	127
364.0532879818594	364.15777777777777	42	127
364.1926077097506	364.3087074829932	44	127
364.2738775510204	364.4363945578231	64	127
364.2738775510204	364.4363945578231	73	127
364.2738775510204	364.4363945578231	69	127
364.33190476190475	364.44802721088433	45	127
364.4712471655329	364.6337868480726	38	127
364.4712471655329	364.6802267573696	62	127
364.4712471655329	364.6802267573696	69	127
364.4712471655329	364.6802267573696	74	127
364.66861678004534	364.7498639455782	50	127
364.7150566893424	364.8659863945578	62	127
364.7150566893424	364.8659863945578	71	127
364.7150566893424	364.8659863945578	67	127
364.7731065759637	364.8775963718821	43	127
364.9008163265306	365.05172335600906	72	127
364.9008163265306	365.005306122449	45	127
364.9008163265306	365.05172335600906	60	127
364.9008163265306	365.05172335600906	66	127
365.0285260770975	365.1330158730159	33	127
365.0981859410431	365.2607029478458	69	127
365.0981859410431	365.2607029478458	60	127
365.0981859410431	365.2607029478458	66	127
365.16784580498864	365.272335600907	45	127
365.29555555555555	365.446485260771	67	127
365.29555555555555	365.446485260771	59	127
365.29555555555555	365.4000453514739	35	127
365.29555555555555	365.446485260771	64	127
365.42326530612246	365.5277551020408	47	127
365.492925170068	365.6322448979592	59	127
365.492925170068	365.6322448979592	63	127
365.492925170068	365.6322448979592	66	127
365.55097505668937	365.65546485260774	35	127
365.6786848072562	365.79478458049886	45	127
365.93410430839003	366.01537414965986	33	127
365.98054421768705	366.1314739229025	66	127
365.98054421768705	366.1314739229025	60	127
366.0385941043084	366.14308390022677	45	127
366.1663038548753	366.28238095238095	35	127
366.1663038548753	366.34045351473924	67	127
366.1663038548753	366.34045351473924	64	127
366.1663038548753	366.34045351473924	59	127
366.3172335600907	366.4565532879819	47	127
366.37528344671205	366.595873015873	66	127
366.37528344671205	366.595873015873	63	127
366.37528344671205	366.595873015873	71	127
366.4797505668934	366.61909297052154	35	127
366.6655328798186	366.7932199546485	48	127
366.6655328798186	366.8512925170068	69	127
366.6655328798186	366.8512925170068	64	127
366.6655328798186	366.8512925170068	76	127
366.816462585034	366.9441723356009	36	127
366.8861224489796	367.0718820861678	72	127
366.8861224489796	367.0718820861678	69	127
366.8861224489796	367.0718820861678	64	127
366.9790022675737	367.0834920634921	48	127
367.1299319727891	367.2228117913832	38	127
367.1299319727891	367.28086167800456	71	127
367.1299319727891	367.28086167800456	67	127
367.1299319727891	367.28086167800456	62	127
367.24603174603175	367.3853514739229	50	127
367.3273015873016	367.50142857142856	62	127
367.3273015873016	367.50142857142856	69	127
367.3273015873016	367.50142857142856	66	127
367.40854875283446	367.51303854875283	38	127
367.5362811791383	367.65238095238095	48	127
367.68721088435376	367.78009070294786	36	127
367.74526077097505	367.91938775510204	64	127
367.74526077097505	367.91938775510204	69	127
367.81489795918367	367.93102040816325	48	127
367.9542403628118	368.0703401360544	38	127
367.9542403628118	368.1167573696145	62	127
367.9542403628118	368.1167573696145	71	127
367.9542403628118	368.1167573696145	67	127
368.09356009070297	368.19804988662133	50	127
368.15160997732426	368.32573696145124	66	127
368.15160997732426	368.32573696145124	69	127
368.15160997732426	368.32573696145124	74	127
368.2212471655329	368.360589569161	38	127
368.38380952380953	368.5231065759637	40	127
368.38380952380953	368.56956916099773	67	127
368.38380952380953	368.56956916099773	73	127
368.38380952380953	368.56956916099773	79	127
368.5463492063492	368.66244897959183	52	127
368.6160090702948	368.8946485260771	73	127
368.6160090702948	368.8946485260771	67	127
368.6160090702948	368.8946485260771	76	127
368.69727891156464	368.9062585034014	40	127
368.9294784580499	369.0804081632653	71	127
368.9294784580499	369.022358276644	54	127
368.9294784580499	369.0804081632653	66	127
368.9294784580499	369.0804081632653	74	127
369.05718820861676	369.15006802721086	42	127
369.1152380952381	369.2661678004535	66	127
369.1152380952381	369.2661678004535	73	127
369.1152380952381	369.2661678004535	70	127
369.1732879818594	369.27777777777777	54	127
369.32421768707485	369.6725170068027	54	127
369.7073469387755	369.82344671201815	66	127
369.78861678004534	369.97437641723354	70	127
369.78861678004534	369.97437641723354	73	127
369.85825396825396	369.9975963718821	54	127
370.0324263038549	370.19496598639455	75	127
370.0324263038549	370.19496598639455	71	127
370.0324263038549	370.14852607709753	59	127
370.171746031746	370.28784580498865	47	127
370.2414058956916	370.4735827664399	76	127
370.2414058956916	370.4735827664399	73	127
370.38072562358275	370.4968253968254	59	127
370.5200453514739	370.6245351473923	47	127
370.5200453514739	370.6825850340136	75	127
370.5200453514739	370.6825850340136	78	127
370.64775510204083	370.74063492063493	59	127
370.7174149659864	370.8451247165533	66	127
370.7174149659864	370.8451247165533	78	127
370.7174149659864	370.8451247165533	75	127
370.76385487528347	370.85673469387757	47	127
370.9031746031746	371.08891156462585	76	127
370.9031746031746	371.0308843537415	52	127
370.9031746031746	371.08891156462585	79	127
370.9031746031746	371.08891156462585	67	127
371.0657142857143	371.1702040816327	40	127
371.1237641723356	371.2979138321995	69	127
371.1237641723356	371.2979138321995	78	127
371.1237641723356	371.2979138321995	81	127
371.1934013605442	371.3095238095238	52	127
371.33274376417233	371.50689342403626	71	127
371.33274376417233	371.448843537415	40	127
371.33274376417233	371.50689342403626	80	127
371.33274376417233	371.50689342403626	83	127
371.4836734693878	371.58816326530615	52	127
371.5417233560091	371.715873015873	83	127
371.5417233560091	371.715873015873	71	127
371.5417233560091	371.715873015873	80	127
371.6229931972789	371.72748299319727	40	127
371.7623129251701	371.91324263038547	84	127
371.7623129251701	371.91324263038547	72	127
371.7623129251701	371.91324263038547	81	127
371.7623129251701	371.86680272108845	45	127
371.890022675737	372.0060997732426	33	127
371.95968253968255	372.14544217687074	86	127
371.95968253968255	372.14544217687074	74	127
371.95968253968255	372.14544217687074	83	127
372.05256235827665	372.157052154195	45	127
372.21507936507936	372.36603174603175	33	127
372.21507936507936	372.4356916099773	88	127
372.21507936507936	372.4356916099773	84	127
372.21507936507936	372.4356916099773	76	127
372.41244897959183	372.5401814058957	45	127
372.4821315192744	372.67950113378686	76	127
372.4821315192744	372.67950113378686	88	127
372.4821315192744	372.67950113378686	84	127
372.5750113378685	372.6911111111111	33	127
372.71430839002267	373.28321995464853	89	127
372.71430839002267	372.80721088435376	45	127
372.71430839002267	373.28321995464853	77	127
372.71430839002267	373.28321995464853	84	127
372.83043083900225	372.95814058956915	33	127
372.9813605442177	373.0742403628118	45	127
373.09746031746033	373.2367573696145	33	127
373.26	373.41092970521544	45	127
373.37609977324263	373.5734693877551	89	127
373.37609977324263	373.5734693877551	77	127
373.434126984127	373.59668934240364	33	127
373.6199092970522	374.1075283446712	93	127
373.6199092970522	373.72439909297054	41	127
373.6199092970522	374.1075283446712	89	127
373.6199092970522	374.1075283446712	81	127
373.7592290249433	373.8521088435374	29	127
373.87532879818593	374.00303854875284	41	127
374.0262585034014	374.13074829931975	29	127
374.1539455782313	374.44421768707485	41	127
374.2932879818594	374.59514739229024	81	127
374.2932879818594	374.59514739229024	93	127
374.4790476190476	374.6067573696145	29	127
374.62997732426305	375.5239455782313	96	127
374.62997732426305	375.5239455782313	93	127
374.62997732426305	374.7344671201814	39	127
374.62997732426305	375.5239455782313	84	127
374.75768707482996	374.94344671201816	27	127
375.00149659863945	375.1059863945578	39	127
375.12920634920636	375.25691609977326	27	127
375.2801133786848	375.44267573696146	39	127
375.46589569161	375.59360544217685	27	127
375.6168253968254	376.41791383219953	96	127
375.6168253968254	375.81419501133786	39	127
375.6168253968254	376.41791383219953	93	127
375.6168253968254	376.41791383219953	84	127
375.8374149659864	375.95351473922904	27	127
375.9767346938776	376.1044444444444	39	127
376.13927437641723	376.2437641723356	27	127
376.26698412698414	376.41791383219953	39	127
376.44113378684807	376.5572335600907	27	127
376.5920634920635	376.6965532879819	39	127
376.5920634920635	376.9751927437642	84	127
376.5920634920635	376.9751927437642	96	127
376.5920634920635	376.9751927437642	93	127
376.73138321995464	376.8823129251701	27	127
376.9055328798186	377.1029024943311	39	127
377.13773242630384	377.3234693877551	28	127
377.13773242630384	377.26544217687075	83	127
377.13773242630384	377.26544217687075	91	127
377.30027210884356	377.39315192743766	93	127
377.35832199546485	377.5092517006803	40	127
377.4163718820862	377.52083900226756	95	127
377.54408163265305	377.6485714285714	81	127
377.54408163265305	377.6485714285714	90	127
377.54408163265305	377.6950113378685	30	127
377.67179138321995	377.7878911564626	91	127
377.7298185941043	377.89238095238096	42	127
377.81111111111113	377.90399092970523	93	127
377.92721088435377	378.03167800453514	79	127
377.92721088435377	378.03167800453514	88	127
377.92721088435377	378.07814058956916	31	127
378.0549206349206	378.17102040816326	90	127
378.12458049886624	378.2871201814059	43	127
378.1942403628118	378.29873015873017	91	127
378.3219501133787	378.4496371882086	78	127
378.3219501133787	378.4496371882086	87	127
378.3219501133787	378.5077097505669	35	127
378.48448979591836	378.58897959183673	88	127
378.5425170068027	378.70507936507937	47	127
378.6121995464853	378.7282993197279	90	127
378.76312925170066	378.90244897959184	88	127
378.76312925170066	378.90244897959184	79	127
378.76312925170066	378.9488888888889	31	127
378.9256689342404	379.0185487528345	90	127
378.98371882086167	379.1462585034014	43	127
379.06496598639455	379.15784580498865	91	127
379.18108843537414	379.2971882086168	86	127
379.18108843537414	379.2971882086168	77	127
379.18108843537414	379.34362811791385	35	127
379.3204081632653	379.4248979591837	88	127
379.3900680272109	379.5177777777778	47	127
379.4481179138322	379.52938775510205	89	127
379.56419501133786	379.6686848072562	84	127
379.56419501133786	379.6686848072562	76	127
379.56419501133786	379.7267573696145	36	127
379.6919274376417	379.7964172335601	86	127
379.7615873015873	379.9125170068027	48	127
379.8196371882086	379.924126984127	88	127
379.9473469387755	380.07505668934243	83	127
379.9473469387755	380.07505668934243	74	127
379.9473469387755	380.12149659863945	43	127
380.0982766439909	380.2027664399093	84	127
380.15632653061226	380.3304761904762	55	127
380.2259863945578	380.365306122449	86	127
380.38850340136054	380.49301587301585	88	127
380.38850340136054	380.49301587301585	79	127
380.38850340136054	380.5394557823129	36	127
380.5162358276644	380.62072562358276	90	127
380.57428571428574	380.7252154195011	48	127
380.6439455782313	380.7368253968254	91	127
380.7832653061225	380.8761451247166	77	127
380.7832653061225	380.8761451247166	86	127
380.7832653061225	380.9225850340136	38	127
380.89936507936505	381.02707482993196	88	127
380.96902494331067	381.1431746031746	50	127
381.0502947845805	381.15478458049887	89	127
381.1780045351474	381.2708843537415	84	127
381.1780045351474	381.2708843537415	76	127
381.1780045351474	381.31732426303853	40	127
381.30571428571426	381.3753741496599	86	127
381.35215419501134	381.4914739229025	52	127
381.3985941043084	381.5030839002268	88	127
381.52630385487527	381.63079365079363	74	127
381.52630385487527	381.63079365079363	83	127
381.52630385487527	381.6772335600907	43	127
381.6540136054422	381.75850340136054	84	127
381.71206349206346	381.8397732426304	55	127
381.7817233560091	381.85138321995464	86	127
381.8746031746032	381.97909297052155	76	127
381.8746031746032	381.97909297052155	84	127
381.8746031746032	382.02553287981857	40	127
382.0023129251701	382.10680272108846	86	127
382.07197278911565	382.2345124716553	52	127
382.13002267573694	382.2461224489796	88	127
382.2693424036281	382.35061224489795	72	127
382.2693424036281	382.35061224489795	81	127
382.2693424036281	382.4086621315193	41	127
382.38544217687075	382.47832199546485	83	127
382.44349206349204	382.5944217687075	53	127
382.5015419501134	382.60603174603176	84	127
382.6292517006803	382.7337414965986	79	127
382.6292517006803	382.7337414965986	71	127
382.6292517006803	382.7801814058957	43	127
382.75696145124715	382.84984126984125	81	127
382.8150113378685	382.9078911564626	55	127
382.8614512471655	382.91950113378687	83	127
382.94272108843535	383.07043083900226	69	127
382.94272108843535	383.07043083900226	77	127
382.94272108843535	383.11687074829933	45	127
383.0936507936508	383.20975056689343	79	127
383.1749206349206	383.3142403628118	57	127
383.232970521542	383.32585034013607	81	127
383.3722902494331	383.6277097505669	67	127
383.3722902494331	383.6277097505669	76	127
383.3722902494331	383.6277097505669	79	127
383.3722902494331	383.6277097505669	59	127
383.3722902494331	383.6277097505669	47	127
383.8482993197279	384.0108390022676	35	127
383.8482993197279	384.0108390022676	47	127
383.8482993197279	384.0108390022676	75	127
383.8482993197279	384.0108390022676	78	127
383.8482993197279	384.0108390022676	66	127
384.0456689342404	384.3243083900227	67	127
384.0456689342404	384.3243083900227	47	127
384.0456689342404	384.3243083900227	59	127
384.0456689342404	384.3243083900227	76	127
384.0456689342404	384.3243083900227	79	127
384.5913378684807	384.7306575963719	83	127
384.5913378684807	384.7306575963719	78	127
384.5913378684807	384.7306575963719	71	127
384.5913378684807	384.7306575963719	75	127
384.5913378684807	384.7306575963719	47	127
384.5913378684807	384.7306575963719	35	127
384.77709750566896	385.044126984127	71	127
384.77709750566896	385.044126984127	83	127
384.77709750566896	385.044126984127	76	127
384.77709750566896	385.044126984127	47	127
384.77709750566896	385.044126984127	59	127
384.77709750566896	385.044126984127	79	127
385.264716553288	385.4156462585034	90	127
385.264716553288	385.4156462585034	78	127
385.264716553288	385.4156462585034	87	127
385.264716553288	385.4156462585034	35	127
385.264716553288	385.4156462585034	47	127
385.4504761904762	385.75233560090703	79	127
385.4504761904762	385.75233560090703	88	127
385.4504761904762	385.75233560090703	59	127
385.4504761904762	385.75233560090703	47	127
385.4504761904762	385.75233560090703	91	127
386.01936507936506	386.1702947845805	95	127
386.01936507936506	386.1702947845805	83	127
386.01936507936506	386.1702947845805	90	127
386.01936507936506	386.1702947845805	87	127
386.01936507936506	386.1702947845805	35	127
386.01936507936506	386.1702947845805	47	127
386.2051247165533	386.55342403628117	91	127
386.2051247165533	386.55342403628117	83	127
386.2051247165533	386.55342403628117	88	127
386.2051247165533	386.55342403628117	95	127
386.2051247165533	386.55342403628117	47	127
386.2051247165533	386.55342403628117	59	127
386.634693877551	386.7624036281179	78	127
386.634693877551	386.7624036281179	66	127
386.78562358276645	386.8901133786848	67	127
386.78562358276645	386.8901133786848	79	127
386.91333333333336	387.00621315192745	69	127
386.91333333333336	387.00621315192745	81	127
387.0410430839002	387.25002267573694	79	127
387.0410430839002	387.25002267573694	67	127
387.28485260770975	387.4009523809524	81	127
387.28485260770975	387.4009523809524	69	127
387.42417233560093	387.5286621315193	71	127
387.42417233560093	387.5286621315193	83	127
387.5518820861678	387.65637188208615	76	127
387.5518820861678	387.65637188208615	64	127
387.6795918367347	387.7724716553288	78	127
387.6795918367347	387.7724716553288	66	127
387.7956916099773	387.91179138321996	67	127
387.7956916099773	387.91179138321996	79	127
387.9350113378685	388.0511111111111	84	127
387.9350113378685	388.0511111111111	60	127
388.0743310657596	388.19043083900226	86	127
388.0743310657596	388.19043083900226	62	127
388.2136507936508	388.3065306122449	76	127
388.2136507936508	388.3065306122449	88	127
388.2136507936508	388.3065306122449	64	127
388.3413605442177	388.41102040816327	81	127
388.3413605442177	388.41102040816327	57	127
388.42263038548754	388.5271201814059	83	127
388.42263038548754	388.5271201814059	59	127
388.55034013605444	388.6548299319728	84	127
388.55034013605444	388.6548299319728	72	127
388.55034013605444	388.6548299319728	60	127
388.68965986394556	388.78253968253966	77	127
388.68965986394556	388.78253968253966	53	127
388.8521995464853	388.9450793650794	80	127
388.8521995464853	388.9450793650794	56	127
388.9682993197279	389.07278911564623	69	127
388.9682993197279	389.07278911564623	81	127
388.9682993197279	389.07278911564623	57	127
389.09600907029477	389.2469387755102	72	127
389.09600907029477	389.2469387755102	48	127
389.27015873015876	389.38625850340134	76	127
389.27015873015876	389.38625850340134	52	127
389.4094784580499	389.51396825396824	77	127
389.4094784580499	389.51396825396824	65	127
389.4094784580499	389.51396825396824	53	127
389.5371882086168	389.8970975056689	69	127
389.5371882086168	389.8970975056689	45	127
390.4775963718821	391.04648526077096	83	127
390.4775963718821	391.04648526077096	78	127
390.4775963718821	391.04648526077096	71	127
390.4775963718821	391.04648526077096	75	127
390.4775963718821	391.04648526077096	54	127
390.4775963718821	391.04648526077096	51	127
390.4775963718821	391.04648526077096	47	127
390.4775963718821	391.04648526077096	59	127
391.83596371882084	393.5310204081633	79	127
391.83596371882084	393.5310204081633	88	127
391.83596371882084	393.5310204081633	76	127
391.83596371882084	393.5310204081633	52	127
391.83596371882084	393.5310204081633	83	127
391.83596371882084	393.5310204081633	40	127
391.83596371882084	393.5310204081633	47	127
391.83596371882084	393.5310204081633	43	127
