# onset,offset,note,velocity
10.610748299319727	11.30734693877551	57	127
11.30734693877551	11.84140589569161	65	127
11.84140589569161	12.363854875283447	61	127
12.363854875283447	12.839863945578232	62	127
12.921133786848072	13.455192743764172	60	127
13.455192743764172	13.989251700680272	55	127
13.989251700680272	14.604580498866213	58	127
14.604580498866213	15.115419501133786	57	127
15.20829931972789	15.719138321995464	65	127
15.719138321995464	16.299637188208617	60	127
16.299637188208617	16.96140589569161	63	127
16.96140589569161	17.472244897959182	62	127
17.553514739229026	18.14562358276644	79	127
17.553514739229026	18.14562358276644	67	127
18.14562358276644	18.72612244897959	74	127
18.14562358276644	18.72612244897959	62	127
18.14562358276644	18.72612244897959	62	127
18.72612244897959	19.260181405895693	77	127
18.72612244897959	19.260181405895693	60	127
18.72612244897959	19.260181405895693	65	127
19.260181405895693	19.71297052154195	75	127
19.260181405895693	19.71297052154195	63	127
19.260181405895693	19.89873015873016	58	127
19.89873015873016	20.421179138321996	74	127
19.89873015873016	20.421179138321996	57	127
19.89873015873016	20.421179138321996	62	127
20.502448979591836	20.583696145124716	70	127
20.502448979591836	21.0481179138322	58	127
20.502448979591836	21.663424036281178	55	127
20.583696145124716	20.71140589569161	72	127
20.71140589569161	20.792698412698414	70	127
20.792698412698414	20.93201814058957	69	127
20.93201814058957	21.0481179138322	70	127
21.0481179138322	21.663424036281178	60	127
21.0481179138322	21.663424036281178	72	127
21.663424036281178	22.220725623582766	69	127
21.663424036281178	22.220725623582766	54	127
21.663424036281178	22.220725623582766	57	127
22.313605442176872	22.870861678004534	67	127
22.313605442176872	22.870861678004534	55	127
22.313605442176872	22.870861678004534	55	127
24.658820861678006	24.914240362811793	58	127
24.914240362811793	25.48312925170068	58	127
25.48312925170068	26.028798185941042	58	127
25.75015873015873	26.89954648526077	82	127
25.75015873015873	26.89954648526077	70	127
26.028798185941042	26.539637188208616	58	127
26.539637188208616	27.154965986394558	58	127
26.89954648526077	27.317505668934242	81	127
26.89954648526077	27.317505668934242	69	127
27.154965986394558	27.630975056689344	58	127
27.630975056689344	28.223083900226758	58	127
27.93283446712018	29.08222222222222	82	127
27.93283446712018	29.08222222222222	70	127
28.223083900226758	28.80358276643991	58	127
28.80358276643991	29.314421768707483	58	127
29.08222222222222	29.511791383219954	80	127
29.08222222222222	29.511791383219954	68	127
29.314421768707483	29.83687074829932	58	127
29.83687074829932	30.33609977324263	58	127
30.080680272108843	30.33609977324263	82	127
30.080680272108843	30.33609977324263	70	127
30.33609977324263	30.579909297052154	81	127
30.33609977324263	30.579909297052154	69	127
30.33609977324263	30.87015873015873	58	127
30.591519274376417	30.87015873015873	81	127
30.591519274376417	30.87015873015873	69	127
30.87015873015873	31.148798185941043	82	127
30.87015873015873	31.148798185941043	70	127
30.87015873015873	31.392607709750568	58	127
31.160408163265306	31.555147392290248	70	127
31.160408163265306	31.555147392290248	58	127
31.392607709750568	31.915056689342403	58	127
31.915056689342403	32.43750566893424	58	127
32.170476190476194	32.43750566893424	82	127
32.170476190476194	32.43750566893424	70	127
32.43750566893424	32.66968253968254	81	127
32.43750566893424	32.66968253968254	69	127
32.43750566893424	32.92510204081633	58	127
32.68131519274377	32.92510204081633	81	127
32.68131519274377	32.92510204081633	69	127
32.92510204081633	33.49401360544218	58	127
32.92510204081633	33.19215419501134	82	127
32.92510204081633	33.19215419501134	70	127
33.2037641723356	33.644943310657595	70	127
33.2037641723356	33.644943310657595	58	127
33.49401360544218	33.97002267573696	58	127
33.97002267573696	34.4924716553288	58	127
34.26027210884354	34.4924716553288	82	127
34.26027210884354	34.4924716553288	70	127
34.4924716553288	34.78272108843537	70	127
34.4924716553288	34.78272108843537	58	127
34.4924716553288	35.0265306122449	58	127
34.794331065759636	35.0265306122449	70	127
34.794331065759636	35.0265306122449	58	127
35.0265306122449	35.31678004535147	82	127
35.0265306122449	35.31678004535147	70	127
35.0265306122449	35.58378684807256	58	127
35.32836734693878	35.58378684807256	82	127
35.32836734693878	35.58378684807256	70	127
35.58378684807256	35.81600907029478	70	127
35.58378684807256	35.81600907029478	58	127
35.58378684807256	36.09462585034014	58	127
35.827619047619045	36.09462585034014	70	127
35.827619047619045	36.09462585034014	58	127
36.09462585034014	36.326848072562356	82	127
36.09462585034014	36.326848072562356	70	127
36.09462585034014	36.66353741496599	58	127
36.35004535147392	36.66353741496599	82	127
36.35004535147392	36.66353741496599	70	127
36.66353741496599	36.884126984126986	70	127
36.66353741496599	36.884126984126986	58	127
36.66353741496599	37.13954648526077	58	127
36.89573696145125	37.13954648526077	70	127
36.89573696145125	37.13954648526077	58	127
37.13954648526077	37.40657596371882	82	127
37.13954648526077	37.40657596371882	70	127
37.13954648526077	37.70843537414966	58	127
37.45301587301587	37.70843537414966	79	127
37.45301587301587	37.70843537414966	67	127
37.70843537414966	37.998662131519275	79	127
37.70843537414966	37.998662131519275	67	127
37.70843537414966	37.998662131519275	58	127
37.998662131519275	38.230884353741494	80	127
37.998662131519275	38.230884353741494	68	127
37.998662131519275	38.230884353741494	56	127
38.230884353741494	38.50952380952381	80	127
38.230884353741494	38.50952380952381	68	127
38.230884353741494	38.50952380952381	56	127
38.50952380952381	38.7649433106576	82	127
38.50952380952381	38.7649433106576	70	127
38.50952380952381	38.7649433106576	55	127
38.7649433106576	39.02036281179139	82	127
38.7649433106576	39.02036281179139	70	127
38.7649433106576	39.02036281179139	55	127
39.02036281179139	39.2990022675737	75	127
39.02036281179139	39.2990022675737	63	127
39.02036281179139	39.2990022675737	56	127
39.2990022675737	39.56603174603175	75	127
39.2990022675737	39.56603174603175	63	127
39.2990022675737	39.56603174603175	56	127
39.56603174603175	39.79823129251701	74	127
39.56603174603175	39.79823129251701	62	127
39.56603174603175	39.79823129251701	53	127
39.79823129251701	40.053650793650796	74	127
39.79823129251701	40.053650793650796	62	127
39.79823129251701	40.053650793650796	53	127
40.053650793650796	40.320680272108845	75	127
40.053650793650796	40.320680272108845	63	127
40.053650793650796	40.320680272108845	51	127
40.320680272108845	40.61092970521542	75	127
40.320680272108845	40.61092970521542	63	127
40.320680272108845	40.61092970521542	51	127
40.61092970521542	40.85473922902494	77	127
40.61092970521542	40.85473922902494	65	127
40.61092970521542	40.85473922902494	50	127
40.85473922902494	41.11015873015873	77	127
40.85473922902494	41.11015873015873	65	127
40.85473922902494	41.11015873015873	50	127
41.11015873015873	41.37718820861678	70	127
41.11015873015873	41.37718820861678	58	127
41.11015873015873	41.37718820861678	51	127
41.37718820861678	41.93446712018141	70	127
41.37718820861678	41.93446712018141	58	127
41.37718820861678	41.93446712018141	51	127
41.93446712018141	42.41047619047619	70	127
41.93446712018141	42.41047619047619	58	127
41.93446712018141	42.41047619047619	51	127
42.41047619047619	42.74716553287982	51	127
42.41047619047619	43.02580498866213	70	127
42.41047619047619	43.02580498866213	58	127
42.74716553287982	43.02580498866213	39	127
43.03741496598639	43.55986394557823	70	127
43.03741496598639	43.55986394557823	58	127
43.03741496598639	43.55986394557823	39	127
43.571451247165534	43.83850340136055	70	127
43.571451247165534	43.83850340136055	58	127
43.571451247165534	43.83850340136055	39	127
43.83850340136055	44.1055328798186	65	127
43.83850340136055	44.1055328798186	65	127
43.83850340136055	44.1055328798186	41	127
44.1055328798186	44.70922902494331	65	127
44.1055328798186	44.70922902494331	65	127
44.1055328798186	44.70922902494331	41	127
44.720839002267574	44.9646485260771	41	127
44.720839002267574	45.20848072562358	65	127
44.720839002267574	45.20848072562358	65	127
44.9646485260771	45.20848072562358	53	127
45.20848072562358	45.77736961451247	65	127
45.20848072562358	45.77736961451247	65	127
45.20848072562358	45.77736961451247	53	127
45.77736961451247	46.04439909297052	65	127
45.77736961451247	46.04439909297052	65	127
45.77736961451247	46.04439909297052	53	127
46.04439909297052	46.555238095238096	77	127
46.04439909297052	46.555238095238096	65	127
46.04439909297052	46.555238095238096	53	127
46.555238095238096	47.100907029478456	89	127
46.555238095238096	47.100907029478456	77	127
46.555238095238096	47.100907029478456	65	127
47.100907029478456	47.704625850340136	84	127
47.100907029478456	47.704625850340136	72	127
47.100907029478456	47.704625850340136	60	127
47.704625850340136	48.22707482993197	85	127
47.704625850340136	48.22707482993197	73	127
47.704625850340136	48.22707482993197	61	127
50.444580498866216	51.0134693877551	54	127
50.444580498866216	51.0134693877551	42	127
51.0134693877551	51.582358276643994	66	127
51.0134693877551	51.582358276643994	54	127
51.582358276643994	52.0815873015873	60	127
51.582358276643994	52.0815873015873	48	127
52.0815873015873	52.511156462585035	61	127
52.0815873015873	52.511156462585035	49	127
52.72013605442177	54.2178231292517	48	127
52.72013605442177	54.2178231292517	60	127
52.72013605442177	54.2178231292517	48	127
54.357142857142854	55.297551020408164	48	127
54.357142857142854	55.297551020408164	60	127
54.357142857142854	55.297551020408164	36	127
55.378820861678	55.83160997732426	72	127
55.378820861678	56.3540589569161	42	127
55.92448979591837	56.388888888888886	70	127
56.493378684807254	56.95777777777778	42	127
56.493378684807254	57.526666666666664	60	127
56.493378684807254	57.526666666666664	69	127
57.03904761904762	57.526666666666664	43	127
57.60793650793651	58.07233560090703	58	127
57.60793650793651	58.07233560090703	67	127
57.60793650793651	58.07233560090703	51	127
58.15360544217687	58.583174603174605	57	127
58.15360544217687	58.583174603174605	67	127
58.15360544217687	58.583174603174605	48	127
58.66444444444444	59.128843537414966	57	127
58.66444444444444	59.128843537414966	66	127
58.66444444444444	59.128843537414966	50	127
59.233333333333334	59.62807256235828	55	127
59.233333333333334	59.62807256235828	58	127
59.233333333333334	59.62807256235828	43	127
59.233333333333334	59.8718820861678	62	127
59.233333333333334	59.8718820861678	67	127
59.233333333333334	59.8718820861678	50	127
59.511972789115646	59.8718820861678	74	127
59.511972789115646	59.8718820861678	74	127
59.511972789115646	59.8718820861678	62	127
59.8718820861678	60.34789115646259	82	127
59.8718820861678	60.34789115646259	70	127
59.8718820861678	60.34789115646259	70	127
60.34789115646259	60.812290249433104	78	127
60.34789115646259	60.812290249433104	66	127
60.34789115646259	60.812290249433104	66	127
60.812290249433104	61.23024943310658	79	127
60.812290249433104	61.23024943310658	67	127
60.812290249433104	61.23024943310658	67	127
61.311519274376415	61.7875283446712	77	127
61.311519274376415	61.7875283446712	65	127
61.311519274376415	61.7875283446712	65	127
61.7875283446712	62.28675736961451	72	127
61.7875283446712	62.28675736961451	60	127
61.7875283446712	62.28675736961451	60	127
62.28675736961451	62.797596371882086	75	127
62.28675736961451	62.797596371882086	63	127
62.28675736961451	62.797596371882086	63	127
62.797596371882086	63.19233560090703	74	127
62.797596371882086	63.19233560090703	62	127
62.797596371882086	63.19233560090703	62	127
63.27360544217687	63.80766439909297	72	127
63.27360544217687	63.80766439909297	60	127
63.27360544217687	63.80766439909297	60	127
63.80766439909297	64.28367346938775	67	127
63.80766439909297	64.28367346938775	55	127
63.80766439909297	64.28367346938775	55	127
64.28367346938775	64.75968253968254	70	127
64.28367346938775	64.75968253968254	58	127
64.28367346938775	64.75968253968254	58	127
64.75968253968254	65.2124716553288	69	127
64.75968253968254	65.2124716553288	57	127
64.75968253968254	65.2124716553288	57	127
65.29374149659864	65.80458049886622	70	127
65.29374149659864	65.80458049886622	58	127
65.29374149659864	65.80458049886622	58	127
65.80458049886622	66.23414965986395	69	127
65.80458049886622	66.23414965986395	57	127
65.80458049886622	66.23414965986395	57	127
66.31541950113379	66.82625850340136	70	127
66.31541950113379	66.82625850340136	58	127
66.31541950113379	66.82625850340136	58	127
66.82625850340136	67.24421768707484	69	127
66.82625850340136	67.24421768707484	57	127
66.82625850340136	67.24421768707484	57	127
67.32548752834467	67.83632653061224	75	127
67.32548752834467	67.83632653061224	63	127
67.32548752834467	67.83632653061224	63	127
67.83632653061224	68.24265306122449	74	127
67.83632653061224	68.24265306122449	62	127
67.83632653061224	68.24265306122449	62	127
68.32394557823129	68.76512471655329	75	127
68.32394557823129	68.76512471655329	63	127
68.32394557823129	68.76512471655329	63	127
68.76512471655329	69.20630385487529	74	127
68.76512471655329	69.20630385487529	62	127
68.76512471655329	69.20630385487529	62	127
69.28757369614513	69.78680272108843	80	127
69.28757369614513	69.78680272108843	68	127
69.28757369614513	69.78680272108843	68	127
69.78680272108843	70.15829931972789	79	127
69.78680272108843	70.15829931972789	67	127
69.78680272108843	70.15829931972789	67	127
70.23959183673469	70.72721088435374	80	127
70.23959183673469	70.72721088435374	68	127
70.23959183673469	70.72721088435374	68	127
70.72721088435374	71.11034013605442	79	127
70.72721088435374	71.11034013605442	67	127
70.72721088435374	71.11034013605442	67	127
71.20321995464853	71.42380952380952	82	127
71.20321995464853	71.42380952380952	70	127
71.20321995464853	71.7140589569161	64	127
71.42380952380952	71.55151927437642	81	127
71.42380952380952	71.55151927437642	69	127
71.56312925170069	71.67922902494331	82	127
71.56312925170069	71.67922902494331	70	127
71.67922902494331	71.78371882086168	79	127
71.67922902494331	71.78371882086168	67	127
71.78371882086168	71.88820861678005	82	127
71.78371882086168	71.88820861678005	70	127
71.78371882086168	72.22489795918368	52	127
71.88820861678005	71.98108843537415	81	127
71.88820861678005	71.98108843537415	69	127
71.99269841269842	72.10879818594104	82	127
71.99269841269842	72.10879818594104	70	127
72.10879818594104	72.22489795918368	79	127
72.10879818594104	72.22489795918368	67	127
72.22489795918368	72.3409977324263	84	127
72.22489795918368	72.3409977324263	72	127
72.22489795918368	72.61963718820861	51	127
72.3409977324263	72.45709750566894	82	127
72.3409977324263	72.45709750566894	70	127
72.4687074829932	72.58480725623583	84	127
72.4687074829932	72.58480725623583	72	127
72.58480725623583	72.70090702947846	81	127
72.58480725623583	72.70090702947846	69	127
72.70090702947846	72.81698412698412	84	127
72.70090702947846	72.81698412698412	72	127
72.70090702947846	73.17689342403628	63	127
72.82861678004535	72.93310657596372	82	127
72.82861678004535	72.93310657596372	70	127
72.94469387755102	73.06081632653061	84	127
72.94469387755102	73.06081632653061	72	127
73.06081632653061	73.17689342403628	81	127
73.06081632653061	73.17689342403628	69	127
73.17689342403628	73.29301587301588	86	127
73.17689342403628	73.29301587301588	74	127
73.17689342403628	73.57165532879819	62	127
73.30460317460317	73.4091156462585	85	127
73.30460317460317	73.4091156462585	73	127
73.42072562358277	73.53682539682539	86	127
73.42072562358277	73.53682539682539	74	127
73.53682539682539	73.65292517006803	82	127
73.53682539682539	73.65292517006803	70	127
73.65292517006803	73.76902494331065	82	127
73.65292517006803	73.76902494331065	70	127
73.65292517006803	73.88512471655329	51	127
73.78063492063492	73.88512471655329	81	127
73.78063492063492	73.88512471655329	69	127
73.89673469387755	74.02444444444444	82	127
73.89673469387755	74.02444444444444	70	127
74.02444444444444	74.15215419501133	79	127
74.02444444444444	74.15215419501133	67	127
74.15215419501133	74.2566439909297	84	127
74.15215419501133	74.2566439909297	72	127
74.15215419501133	74.37274376417234	48	127
74.26825396825397	74.37274376417234	82	127
74.26825396825397	74.37274376417234	70	127
74.3843537414966	74.50045351473923	84	127
74.3843537414966	74.50045351473923	72	127
74.50045351473923	74.62816326530613	81	127
74.50045351473923	74.62816326530613	69	127
74.62816326530613	74.74426303854875	81	127
74.62816326530613	74.74426303854875	69	127
74.62816326530613	74.87197278911565	50	127
74.75587301587302	74.87197278911565	79	127
74.75587301587302	74.87197278911565	67	127
74.88358276643991	74.99968253968254	81	127
74.88358276643991	74.99968253968254	69	127
74.99968253968254	75.12739229024943	78	127
74.99968253968254	75.12739229024943	66	127
75.12739229024943	75.2667120181406	79	127
75.12739229024943	75.2667120181406	67	127
75.12739229024943	75.2667120181406	55	127
75.2667120181406	75.38281179138322	78	127
75.2667120181406	75.38281179138322	66	127
75.2667120181406	75.38281179138322	54	127
75.38281179138322	75.52213151927438	79	127
75.38281179138322	75.52213151927438	67	127
75.38281179138322	75.52213151927438	55	127
75.52213151927438	75.62662131519275	67	127
75.52213151927438	75.62662131519275	55	127
75.52213151927438	75.62662131519275	43	127
75.66145124716553	75.90526077097506	67	127
75.66145124716553	75.90526077097506	55	127
75.66145124716553	75.90526077097506	43	127
76.16068027210885	76.28839002267574	79	127
76.16068027210885	76.28839002267574	67	127
76.16068027210885	76.28839002267574	55	127
76.28839002267574	76.40448979591837	78	127
76.28839002267574	76.40448979591837	66	127
76.28839002267574	76.40448979591837	54	127
76.40448979591837	76.520589569161	79	127
76.40448979591837	76.520589569161	67	127
76.40448979591837	76.520589569161	55	127
76.520589569161	76.60183673469388	67	127
76.520589569161	76.60183673469388	55	127
76.520589569161	76.60183673469388	43	127
76.63668934240363	76.96176870748299	67	127
76.63668934240363	76.96176870748299	55	127
76.63668934240363	76.96176870748299	43	127
77.21718820861678	77.36809523809524	80	127
77.21718820861678	77.36809523809524	68	127
77.21718820861678	77.36809523809524	56	127
77.36809523809524	77.48421768707483	79	127
77.36809523809524	77.48421768707483	67	127
77.36809523809524	77.48421768707483	55	127
77.48421768707483	77.61192743764173	80	127
77.48421768707483	77.61192743764173	68	127
77.48421768707483	77.61192743764173	56	127
77.61192743764173	77.69319727891157	68	127
77.61192743764173	77.69319727891157	56	127
77.61192743764173	77.69319727891157	56	127
77.72802721088435	77.96022675736961	68	127
77.72802721088435	77.96022675736961	56	127
77.72802721088435	77.96022675736961	56	127
78.2156462585034	78.35496598639456	78	127
78.2156462585034	78.35496598639456	66	127
78.2156462585034	78.35496598639456	54	127
78.35496598639456	78.47106575963718	76	127
78.35496598639456	78.47106575963718	64	127
78.35496598639456	78.47106575963718	52	127
78.47106575963718	78.58716553287982	78	127
78.47106575963718	78.58716553287982	66	127
78.47106575963718	78.58716553287982	54	127
78.58716553287982	78.66843537414967	66	127
78.58716553287982	78.66843537414967	54	127
78.58716553287982	78.66843537414967	54	127
78.70326530612245	78.94707482993198	66	127
78.70326530612245	78.94707482993198	54	127
78.70326530612245	78.94707482993198	54	127
79.17927437641724	79.388231292517	79	127
79.17927437641724	79.388231292517	67	127
79.17927437641724	79.388231292517	55	127
79.388231292517	79.5043537414966	78	127
79.388231292517	79.5043537414966	66	127
79.388231292517	79.5043537414966	54	127
79.5043537414966	79.62045351473922	79	127
79.5043537414966	79.62045351473922	67	127
79.5043537414966	79.62045351473922	55	127
79.62045351473922	79.70172335600907	67	127
79.62045351473922	79.70172335600907	55	127
79.62045351473922	79.70172335600907	43	127
79.73655328798186	79.99197278911565	67	127
79.73655328798186	79.99197278911565	55	127
79.73655328798186	79.99197278911565	43	127
80.23578231292517	80.36349206349206	79	127
80.23578231292517	80.36349206349206	67	127
80.23578231292517	80.36349206349206	55	127
80.36349206349206	80.4795918367347	66	127
80.36349206349206	80.4795918367347	54	127
80.36349206349206	80.4795918367347	78	127
80.4795918367347	80.59569160997732	79	127
80.4795918367347	80.59569160997732	67	127
80.4795918367347	80.59569160997732	55	127
80.59569160997732	80.67696145124717	67	127
80.59569160997732	80.67696145124717	55	127
80.59569160997732	80.67696145124717	43	127
80.73501133786849	80.96721088435375	67	127
80.73501133786849	80.96721088435375	55	127
80.73501133786849	80.96721088435375	43	127
81.18780045351474	81.31551020408163	80	127
81.18780045351474	81.31551020408163	68	127
81.18780045351474	81.31551020408163	56	127
81.31551020408163	81.4315873015873	79	127
81.31551020408163	81.4315873015873	67	127
81.31551020408163	81.4315873015873	55	127
81.4315873015873	81.5477097505669	80	127
81.4315873015873	81.5477097505669	68	127
81.4315873015873	81.5477097505669	56	127
81.5477097505669	81.62897959183674	56	127
81.5477097505669	81.66380952380952	68	127
81.5477097505669	81.66380952380952	56	127
81.67541950113379	81.9192290249433	68	127
81.67541950113379	81.9192290249433	56	127
81.67541950113379	81.9192290249433	56	127
82.18625850340136	82.31396825396826	82	127
82.18625850340136	82.31396825396826	70	127
82.18625850340136	82.31396825396826	58	127
82.31396825396826	82.43006802721088	81	127
82.31396825396826	82.43006802721088	69	127
82.31396825396826	82.43006802721088	57	127
82.43006802721088	82.55777777777777	82	127
82.43006802721088	82.55777777777777	70	127
82.43006802721088	82.55777777777777	58	127
82.55777777777777	82.63904761904762	58	127
82.55777777777777	82.69709750566894	70	127
82.55777777777777	82.69709750566894	58	127
82.70868480725623	82.9408843537415	70	127
82.70868480725623	82.9408843537415	58	127
82.70868480725623	82.9408843537415	58	127
83.28920634920635	83.40530612244898	79	127
83.28920634920635	83.40530612244898	67	127
83.28920634920635	83.40530612244898	55	127
83.40530612244898	83.52140589569161	78	127
83.40530612244898	83.52140589569161	66	127
83.40530612244898	83.52140589569161	54	127
83.52140589569161	83.63750566893424	79	127
83.52140589569161	83.63750566893424	67	127
83.52140589569161	83.63750566893424	55	127
83.63750566893424	83.71877551020408	43	127
83.63750566893424	83.75360544217688	67	127
83.63750566893424	83.75360544217688	55	127
83.76521541950113	84.03224489795919	67	127
83.76521541950113	84.03224489795919	55	127
83.76521541950113	84.03224489795919	43	127
84.3108843537415	84.47340136054422	82	127
84.3108843537415	84.47340136054422	70	127
84.3108843537415	84.47340136054422	58	127
84.47340136054422	84.60111111111111	81	127
84.47340136054422	84.60111111111111	69	127
84.47340136054422	84.60111111111111	57	127
84.60111111111111	84.7172335600907	82	127
84.60111111111111	84.7172335600907	70	127
84.60111111111111	84.7172335600907	58	127
84.7172335600907	84.79850340136055	58	127
84.7172335600907	84.83333333333333	70	127
84.7172335600907	84.83333333333333	58	127
84.8449433106576	85.05392290249434	70	127
84.8449433106576	85.05392290249434	58	127
84.8449433106576	85.05392290249434	58	127
85.2861224489796	85.41383219954649	87	127
85.2861224489796	85.41383219954649	75	127
85.2861224489796	85.41383219954649	63	127
85.41383219954649	85.56476190476191	86	127
85.41383219954649	85.56476190476191	74	127
85.41383219954649	85.56476190476191	62	127
85.56476190476191	85.68086167800453	87	127
85.56476190476191	85.68086167800453	75	127
85.56476190476191	85.68086167800453	63	127
85.68086167800453	85.76213151927438	63	127
85.68086167800453	85.79696145124717	75	127
85.68086167800453	85.79696145124717	63	127
85.80857142857143	86.04077097505669	75	127
85.80857142857143	86.04077097505669	63	127
85.80857142857143	86.04077097505669	63	127
86.26133786848072	86.37746031746032	86	127
86.26133786848072	86.37746031746032	74	127
86.26133786848072	86.37746031746032	62	127
86.37746031746032	86.50517006802721	85	127
86.37746031746032	86.50517006802721	73	127
86.37746031746032	86.50517006802721	61	127
86.50517006802721	86.62124716553288	86	127
86.50517006802721	86.62124716553288	74	127
86.50517006802721	86.62124716553288	62	127
86.62124716553288	86.70253968253968	62	127
86.62124716553288	86.73736961451247	74	127
86.62124716553288	86.73736961451247	62	127
86.74895691609977	86.95795918367347	74	127
86.74895691609977	86.95795918367347	62	127
86.74895691609977	86.95795918367347	62	127
87.14371882086168	87.39913832199547	69	127
87.14371882086168	87.39913832199547	45	127
87.14371882086168	87.68938775510205	76	127
87.14371882086168	87.68938775510205	52	127
87.14371882086168	87.7009977324263	57	127
87.27142857142857	87.68938775510205	85	127
87.27142857142857	87.68938775510205	57	127
87.7009977324263	88.32793650793651	70	127
87.7009977324263	88.32793650793651	70	127
88.32793650793651	88.79231292517007	66	127
88.32793650793651	88.79231292517007	66	127
88.79231292517007	89.34961451247166	67	127
88.79231292517007	89.34961451247166	67	127
89.34961451247166	89.88367346938776	43	127
89.34961451247166	91.30009070294784	67	127
89.34961451247166	91.30009070294784	67	127
89.88367346938776	90.40612244897959	45	127
90.40612244897959	90.96337868480725	46	127
90.96337868480725	91.33492063492064	47	127
91.41619047619048	91.98507936507937	55	127
91.98507936507937	92.48430839002268	67	127
91.98507936507937	92.48430839002268	67	127
92.48430839002268	93.0415873015873	64	127
92.48430839002268	93.0415873015873	64	127
93.0415873015873	93.61047619047619	65	127
93.0415873015873	93.61047619047619	65	127
93.61047619047619	94.10968253968254	41	127
93.61047619047619	95.59578231292517	65	127
93.61047619047619	95.59578231292517	65	127
94.10968253968254	94.67859410430839	43	127
94.67859410430839	95.21265306122449	45	127
95.21265306122449	95.63061224489796	47	127
95.73510204081633	96.21111111111111	53	127
96.21111111111111	96.75678004535148	65	127
96.75678004535148	97.23278911564626	61	127
97.23278911564626	97.98743764172336	62	127
97.98743764172336	98.44022675736962	77	127
97.98743764172336	98.44022675736962	38	127
97.98743764172336	99.84503401360544	62	127
98.44022675736962	98.9162358276644	74	127
98.44022675736962	98.9162358276644	41	127
98.9162358276644	99.45029478458049	71	127
98.9162358276644	99.45029478458049	47	127
99.45029478458049	99.89147392290249	69	127
99.45029478458049	99.89147392290249	50	127
99.97274376417234	100.37909297052154	68	127
99.97274376417234	100.46036281179138	52	127
100.46036281179138	100.69256235827665	69	127
100.46036281179138	100.95959183673469	52	127
100.46036281179138	100.95959183673469	50	127
100.71578231292517	100.95959183673469	71	127
100.95959183673469	101.37755102040816	72	127
100.95959183673469	101.458820861678	64	127
100.95959183673469	101.458820861678	48	127
101.458820861678	101.72585034013605	74	127
101.458820861678	101.88839002267574	62	127
101.458820861678	101.88839002267574	47	127
101.73746031746032	101.96965986394558	76	127
101.96965986394558	102.45727891156463	77	127
101.96965986394558	102.45727891156463	60	127
101.96965986394558	102.45727891156463	45	127
102.45727891156463	103.00294784580498	79	127
102.45727891156463	103.00294784580498	59	127
102.45727891156463	103.00294784580498	43	127
103.00294784580498	103.5370068027211	81	127
103.00294784580498	103.5370068027211	57	127
103.00294784580498	103.5370068027211	41	127
103.5370068027211	103.98979591836735	83	127
103.5370068027211	103.98979591836735	56	127
103.5370068027211	103.98979591836735	40	127
104.11750566893424	104.58190476190477	45	127
104.11750566893424	104.6631746031746	57	127
104.11750566893424	104.28004535147392	85	127
104.28004535147392	104.41936507936508	86	127
104.41936507936508	104.54707482993197	85	127
104.54707482993197	104.6631746031746	86	127
104.6631746031746	104.81410430839003	85	127
104.6631746031746	105.31333333333333	67	127
104.81410430839003	105.05791383219955	86	127
105.05791383219955	105.17401360544218	85	127
105.17401360544218	105.31333333333333	86	127
105.31333333333333	105.44104308390023	85	127
105.31333333333333	105.81256235827665	65	127
105.44104308390023	105.56875283446712	86	127
105.56875283446712	105.68485260770976	85	127
105.68485260770976	105.81256235827665	86	127
105.81256235827665	105.9518820861678	85	127
105.81256235827665	106.41628117913832	64	127
105.81256235827665	106.41628117913832	57	127
105.9518820861678	106.07959183673469	86	127
106.07959183673469	106.33501133786848	83	127
106.33501133786848	106.59043083900227	85	127
106.59043083900227	107.03160997732427	86	127
106.59043083900227	107.03160997732427	62	127
106.59043083900227	107.69337868480726	65	127
107.69337868480726	108.21582766439909	67	127
108.21582766439909	108.64539682539683	68	127
108.8079365079365	109.58580498866213	69	127
109.58580498866213	109.80639455782313	65	127
109.80639455782313	110.24757369614512	62	127
110.32884353741497	110.93256235827664	57	127
110.93256235827664	111.47823129251701	59	127
111.47823129251701	111.90780045351474	61	127
111.97746031746031	112.05873015873016	62	127
112.05873015873016	112.1748299319728	64	127
112.1748299319728	112.25609977324262	62	127
112.25609977324262	112.38380952380952	61	127
112.38380952380952	112.55795918367347	62	127
112.55795918367347	112.87142857142857	64	127
112.94108843537416	113.12684807256235	65	127
113.27777777777777	114.0904761904762	64	127
114.0904761904762	114.40394557823129	69	127
114.40394557823129	115.22825396825397	68	127
115.22825396825397	115.4720634920635	71	127
115.48367346938775	116.15705215419501	69	127
115.99451247165533	116.56340136054422	81	127
116.28476190476191	116.55179138321995	69	127
116.56340136054422	117.12068027210884	82	127
116.56340136054422	117.12068027210884	70	127
117.12068027210884	117.61990929705216	83	127
117.12068027210884	117.61990929705216	71	127
117.70117913832199	118.49065759637188	84	127
117.70117913832199	118.49065759637188	72	127
118.49065759637188	118.7692970521542	81	127
118.49065759637188	118.7692970521542	69	127
118.78090702947846	119.24530612244898	78	127
118.78090702947846	119.24530612244898	66	127
119.32657596371882	119.82580498866213	87	127
119.32657596371882	119.82580498866213	63	127
119.9302947845805	120.41791383219955	86	127
119.9302947845805	120.41791383219955	62	127
120.41791383219955	120.94036281179139	85	127
120.41791383219955	120.94036281179139	61	127
120.94036281179139	121.47442176870749	86	127
120.94036281179139	121.47442176870749	62	127
121.47442176870749	121.93882086167801	79	127
121.47442176870749	121.93882086167801	55	127
122.04331065759636	122.56575963718821	86	127
122.04331065759636	122.56575963718821	62	127
122.56575963718821	123.03015873015873	85	127
122.56575963718821	123.03015873015873	61	127
123.03015873015873	123.59904761904762	86	127
123.03015873015873	123.59904761904762	62	127
123.59904761904762	124.09827664399093	77	127
123.59904761904762	124.09827664399093	53	127
124.17954648526077	124.91097505668934	77	127
124.17954648526077	124.91097505668934	53	127
124.91097505668934	125.15478458049887	76	127
124.91097505668934	125.15478458049887	52	127
125.16639455782312	125.4914739229025	81	127
125.16639455782312	125.4914739229025	57	127
125.4914739229025	125.78172335600907	79	127
125.4914739229025	125.78172335600907	55	127
125.78172335600907	126.09519274376417	77	127
125.78172335600907	126.09519274376417	53	127
126.09519274376417	126.39705215419501	76	127
126.09519274376417	126.39705215419501	52	127
126.40866213151928	126.58281179138322	74	127
126.40866213151928	126.8730612244898	50	127
126.40866213151928	127.41873015873016	53	127
126.40866213151928	127.41873015873016	62	127
126.58281179138322	126.79179138321996	62	127
126.79179138321996	126.9659410430839	69	127
126.9659410430839	127.22136054421769	74	127
126.9659410430839	127.29102040816326	57	127
127.22136054421769	127.3722902494331	69	127
127.29102040816326	127.52321995464852	50	127
127.3722902494331	127.52321995464852	62	127
127.5348299319728	128.04566893424035	55	127
127.5348299319728	128.60292517006803	64	127
127.70897959183674	127.87151927437641	64	127
127.77863945578231	128.04566893424035	52	127
127.87151927437641	128.04566893424035	72	127
128.04566893424035	128.37074829931973	76	127
128.04566893424035	128.44040816326532	62	127
128.04566893424035	128.60292517006803	62	127
128.37074829931973	128.52167800453515	74	127
128.44040816326532	128.68421768707483	52	127
128.52167800453515	128.68421768707483	64	127
128.6958276643991	130.18190476190478	62	127
128.6958276643991	130.18190476190478	65	127
128.8815873015873	129.05573696145126	65	127
128.9512471655329	129.21825396825398	53	127
129.05573696145126	129.21825396825398	74	127
129.21825396825398	129.39242630385488	77	127
129.21825396825398	129.46208616780046	62	127
129.39242630385488	129.56657596371883	74	127
129.46208616780046	129.72909297052155	53	127
129.56657596371883	129.72909297052155	65	127
129.72909297052155	129.93809523809523	74	127
129.72909297052155	130.00775510204082	65	127
129.93809523809523	130.10063492063492	69	127
130.00775510204082	130.29800453514738	57	127
130.10063492063492	130.29800453514738	65	127
130.29800453514738	130.47215419501134	69	127
130.29800453514738	130.55342403628117	62	127
130.29800453514738	130.80884353741496	57	127
130.47215419501134	130.63469387755103	65	127
130.55342403628117	130.80884353741496	57	127
130.63469387755103	130.80884353741496	62	127
130.80884353741496	131.9001814058957	52	127
130.80884353741496	131.9001814058957	64	127
130.99460317460318	131.20358276643992	62	127
131.1107029478458	131.36612244897958	56	127
131.20358276643992	131.36612244897958	68	127
131.36612244897958	131.5518820861678	64	127
131.36612244897958	131.62151927437642	55	127
131.5518820861678	131.72603174603174	67	127
131.62151927437642	131.9001814058957	61	127
131.72603174603174	131.9001814058957	73	127
131.9001814058957	133.00312925170067	57	127
132.10916099773243	132.29492063492063	69	127
132.2136507936508	132.51551020408164	57	127
132.29492063492063	132.51551020408164	74	127
132.51551020408164	132.7128798185941	65	127
132.51551020408164	132.794126984127	53	127
132.7128798185941	132.9450566893424	69	127
132.794126984127	133.13083900226758	62	127
132.9450566893424	133.13083900226758	77	127
133.13083900226758	133.98997732426304	52	127
133.13083900226758	133.98997732426304	64	127
133.29337868480727	133.44430839002268	72	127
133.29337868480727	133.44430839002268	57	127
133.44430839002268	133.6184580498866	74	127
133.44430839002268	133.6184580498866	59	127
133.6184580498866	133.7809977324263	76	127
133.6184580498866	133.7809977324263	60	127
133.7809977324263	133.943537414966	74	127
133.7809977324263	133.943537414966	59	127
133.943537414966	134.10607709750568	72	127
133.943537414966	134.10607709750568	57	127
134.10607709750568	135.24385487528346	52	127
134.10607709750568	135.24385487528346	64	127
134.29183673469387	134.4427664399093	74	127
134.29183673469387	134.4427664399093	59	127
134.4427664399093	134.60530612244898	76	127
134.4427664399093	134.60530612244898	61	127
134.60530612244898	134.81428571428572	77	127
134.60530612244898	134.81428571428572	62	127
134.81428571428572	135.19739229024944	76	127
134.81428571428572	135.19739229024944	61	127
135.19739229024944	135.35995464852607	74	127
135.19739229024944	135.35995464852607	59	127
135.35995464852607	136.34680272108844	57	127
135.35995464852607	136.34680272108844	61	127
135.52249433106576	135.68503401360545	61	127
135.60374149659864	135.8824036281179	61	127
135.68503401360545	135.8824036281179	64	127
135.8824036281179	136.1378231292517	73	127
135.8824036281179	136.2307029478458	64	127
136.1378231292517	136.3003628117914	64	127
136.2307029478458	136.46290249433108	57	127
136.3003628117914	136.46290249433108	73	127
136.46290249433108	136.66027210884354	74	127
136.46290249433108	136.74154195011337	58	127
136.66027210884354	136.81120181405896	70	127
136.74154195011337	136.99696145124716	62	127
136.74154195011337	137.28721088435375	50	127
136.74154195011337	137.28721088435375	62	127
136.81120181405896	136.99696145124716	74	127
136.99696145124716	137.21755102040817	74	127
136.99696145124716	137.298820861678	56	127
137.21755102040817	137.36848072562358	68	127
137.298820861678	137.53102040816327	50	127
137.298820861678	137.53102040816327	62	127
137.298820861678	137.53102040816327	62	127
137.36848072562358	137.53102040816327	74	127
137.53102040816327	138.06507936507936	55	127
137.53102040816327	138.63396825396825	60	127
137.76321995464852	137.9025396825397	67	127
137.84448979591838	138.06507936507936	55	127
137.9025396825397	138.06507936507936	72	127
138.06507936507936	138.2392290249433	78	127
138.06507936507936	138.32049886621314	60	127
138.06507936507936	138.63396825396825	57	127
138.2392290249433	138.4249886621315	72	127
138.32049886621314	138.63396825396825	54	127
138.4249886621315	138.63396825396825	69	127
138.63396825396825	139.063537414966	57	127
138.63396825396825	139.063537414966	60	127
138.8081179138322	138.9706575963719	69	127
138.88938775510204	139.17963718820863	54	127
138.9706575963719	139.17963718820863	72	127
139.17963718820863	139.36539682539683	81	127
139.17963718820863	139.48149659863947	63	127
139.17963718820863	139.64401360544218	57	127
139.17963718820863	139.64401360544218	66	127
139.36539682539683	139.57437641723357	75	127
139.48149659863947	139.73691609977325	57	127
139.57437641723357	139.73691609977325	66	127
139.73691609977325	140.21292517006802	67	127
139.73691609977325	140.56120181405896	55	127
139.89943310657597	140.0619954648526	79	127
139.98072562358277	140.21292517006802	55	127
140.0619954648526	140.21292517006802	78	127
140.21292517006802	140.49156462585034	79	127
140.21292517006802	140.56120181405896	62	127
140.21292517006802	140.57283446712017	62	127
140.49156462585034	140.65410430839003	74	127
140.57283446712017	140.83986394557823	50	127
140.65410430839003	140.83986394557823	67	127
140.83986394557823	141.32746031746032	67	127
140.83986394557823	141.6641723356009	55	127
141.00240362811792	141.1649433106576	79	127
141.08367346938775	141.32746031746032	55	127
141.1649433106576	141.32746031746032	78	127
141.32746031746032	141.59451247165532	79	127
141.32746031746032	141.6641723356009	62	127
141.32746031746032	141.67578231292518	62	127
141.59451247165532	141.757052154195	74	127
141.67578231292518	141.90798185941043	50	127
141.757052154195	141.90798185941043	67	127
141.90798185941043	142.50009070294786	66	127
141.90798185941043	142.74390022675738	57	127
142.1053514739229	142.26789115646258	78	127
142.18662131519275	142.50009070294786	57	127
142.26789115646258	142.50009070294786	77	127
142.50009070294786	142.6742403628118	78	127
142.50009070294786	142.74390022675738	62	127
142.50009070294786	142.75551020408165	62	127
142.6742403628118	142.86	74	127
142.75551020408165	143.02253968253967	50	127
142.86	143.02253968253967	66	127
143.02253968253967	143.53337868480725	65	127
143.02253968253967	143.82362811791384	59	127
143.19668934240363	143.35922902494332	77	127
143.27795918367346	143.53337868480725	59	127
143.35922902494332	143.53337868480725	76	127
143.53337868480725	143.75396825396825	77	127
143.53337868480725	143.82362811791384	62	127
143.53337868480725	143.83521541950114	62	127
143.75396825396825	143.91650793650794	74	127
143.83521541950114	144.09063492063493	50	127
143.91650793650794	144.09063492063493	65	127
144.09063492063493	145.33292517006802	58	127
144.09063492063493	145.33292517006802	62	127
144.26480725623583	144.42734693877551	70	127
144.3460544217687	144.65954648526076	58	127
144.42734693877551	144.65954648526076	74	127
144.65954648526076	144.845306122449	64	127
144.65954648526076	144.98462585034014	62	127
144.845306122449	145.14716553287982	70	127
144.98462585034014	145.33292517006802	52	127
145.14716553287982	145.33292517006802	74	127
145.33292517006802	146.34297052154196	57	127
145.33292517006802	146.34297052154196	61	127
145.5302947845805	145.70444444444445	67	127
145.61156462585035	145.87857142857143	57	127
145.70444444444445	145.87857142857143	73	127
145.87857142857143	146.07596371882087	64	127
145.87857142857143	146.1572335600907	61	127
146.07596371882087	146.2849433106576	67	127
146.1572335600907	146.49390022675738	45	127
146.2849433106576	146.49390022675738	73	127
146.49390022675738	147.23696145124717	57	127
146.49390022675738	147.23696145124717	62	127
146.49390022675738	147.23696145124717	53	127
146.66807256235828	146.84222222222223	62	127
146.84222222222223	146.9699319727891	65	127
146.9699319727891	147.14408163265307	69	127
147.14408163265307	147.3878911564626	74	127
147.23696145124717	147.56204081632654	56	127
147.23696145124717	147.56204081632654	52	127
147.3878911564626	147.56204081632654	68	127
147.56204081632654	147.8522902494331	57	127
147.56204081632654	148.46761904761905	57	127
147.56204081632654	148.46761904761905	61	127
147.7709977324263	147.9451700680272	69	127
147.8522902494331	148.09609977324263	55	127
147.9451700680272	148.09609977324263	73	127
148.09609977324263	148.27024943310659	79	127
148.09609977324263	148.35151927437641	53	127
148.27024943310659	148.43278911564627	81	127
148.35151927437641	148.6069387755102	52	127
148.43278911564627	148.6069387755102	73	127
148.6069387755102	149.38480725623583	77	127
148.6069387755102	149.38480725623583	57	127
148.6069387755102	149.38480725623583	62	127
148.6069387755102	149.38480725623583	50	127
149.38480725623583	149.62861678004535	76	127
149.38480725623583	149.62861678004535	56	127
149.38480725623583	149.62861678004535	52	127
149.62861678004535	150.3716553287982	45	127
149.62861678004535	150.66190476190476	57	127
149.62861678004535	150.66190476190476	61	127
149.62861678004535	149.90725623582767	81	127
149.90725623582767	150.17426303854876	79	127
150.17426303854876	150.51097505668935	77	127
150.51097505668935	150.7895918367347	76	127
150.51097505668935	150.7895918367347	55	127
150.8012244897959	151.57909297052154	74	127
150.8012244897959	151.57909297052154	53	127
151.0566439909297	151.57909297052154	57	127
151.0566439909297	151.57909297052154	62	127
151.57909297052154	151.85773242630387	76	127
151.57909297052154	151.85773242630387	56	127
151.57909297052154	151.85773242630387	64	127
151.57909297052154	151.85773242630387	52	127
151.8693424036281	152.1247619047619	57	127
151.8693424036281	152.64721088435374	76	127
152.1247619047619	152.40340136054422	55	127
152.1247619047619	152.64721088435374	61	127
152.1247619047619	152.64721088435374	64	127
152.40340136054422	152.64721088435374	53	127
152.64721088435374	152.90263038548753	77	127
152.64721088435374	152.90263038548753	57	127
152.64721088435374	152.90263038548753	65	127
152.64721088435374	152.90263038548753	50	127
152.9142403628118	153.18126984126985	58	127
152.9142403628118	153.70369614512472	77	127
153.18126984126985	153.47151927437642	57	127
153.18126984126985	153.70369614512472	62	127
153.18126984126985	153.70369614512472	65	127
153.47151927437642	153.70369614512472	55	127
153.70369614512472	153.93591836734694	79	127
153.70369614512472	153.93591836734694	58	127
153.70369614512472	153.93591836734694	67	127
153.70369614512472	153.93591836734694	52	127
153.9475283446712	154.17972789115646	60	127
153.9475283446712	154.76022675736962	79	127
154.17972789115646	154.46995464852608	58	127
154.17972789115646	154.76022675736962	64	127
154.17972789115646	154.76022675736962	67	127
154.46995464852608	154.76022675736962	57	127
154.76022675736962	155.03886621315192	81	127
154.76022675736962	155.03886621315192	60	127
154.76022675736962	155.03886621315192	69	127
154.76022675736962	155.03886621315192	53	127
155.0504761904762	155.88639455782314	64	127
155.0504761904762	155.88639455782314	69	127
155.0504761904762	155.88639455782314	60	127
155.25945578231293	155.43360544217688	64	127
155.43360544217688	155.61936507936508	69	127
155.61936507936508	155.80512471655328	72	127
155.80512471655328	155.9908843537415	76	127
155.88639455782314	156.15340136054422	63	127
155.88639455782314	156.15340136054422	59	127
155.9908843537415	156.15340136054422	75	127
156.16503401360544	156.4320634920635	64	127
156.16503401360544	157.04739229024943	64	127
156.16503401360544	157.04739229024943	68	127
156.31596371882085	156.51331065759638	68	127
156.4320634920635	156.69909297052155	62	127
156.51331065759638	156.69909297052155	71	127
156.69909297052155	156.85002267573697	76	127
156.69909297052155	156.9312925170068	60	127
156.85002267573697	157.01256235827665	80	127
156.9312925170068	157.18671201814058	59	127
157.01256235827665	157.12863945578232	80	127
157.19832199546485	157.98780045351475	81	127
157.19832199546485	157.98780045351475	60	127
157.5001814058957	157.98780045351475	64	127
157.5001814058957	157.98780045351475	69	127
157.98780045351475	158.26643990929705	83	127
157.98780045351475	158.26643990929705	63	127
157.98780045351475	158.26643990929705	71	127
157.98780045351475	158.26643990929705	59	127
158.27804988662132	158.55666666666667	64	127
158.27804988662132	159.04430839002268	83	127
158.55666666666667	158.81208616780046	62	127
158.55666666666667	159.04430839002268	68	127
158.55666666666667	159.04430839002268	71	127
158.81208616780046	159.04430839002268	60	127
159.04430839002268	159.31133786848073	84	127
159.04430839002268	159.31133786848073	64	127
159.04430839002268	159.31133786848073	72	127
159.04430839002268	159.31133786848073	57	127
159.32292517006803	159.64802721088435	65	127
159.32292517006803	160.21691609977324	84	127
159.64802721088435	159.9498866213152	64	127
159.64802721088435	160.21691609977324	69	127
159.64802721088435	160.21691609977324	72	127
159.9498866213152	160.21691609977324	62	127
160.21691609977324	160.44909297052155	86	127
160.21691609977324	160.44909297052155	65	127
160.21691609977324	160.44909297052155	74	127
160.21691609977324	160.44909297052155	59	127
160.46072562358276	160.70451247165533	67	127
160.46072562358276	161.1689342403628	86	127
160.70451247165533	160.94834467120182	65	127
160.70451247165533	161.1689342403628	71	127
160.70451247165533	161.1689342403628	74	127
160.94834467120182	161.1689342403628	64	127
161.1689342403628	161.41274376417235	88	127
161.1689342403628	161.41274376417235	67	127
161.1689342403628	161.41274376417235	76	127
161.1689342403628	161.41274376417235	60	127
161.4707709750567	161.70299319727891	82	127
161.4707709750567	161.70299319727891	70	127
161.4707709750567	161.70299319727891	70	127
161.70299319727891	161.97002267573697	81	127
161.70299319727891	161.97002267573697	69	127
161.70299319727891	161.97002267573697	69	127
161.97002267573697	162.3067120181406	79	127
161.97002267573697	162.3067120181406	67	127
161.97002267573697	162.3067120181406	67	127
162.3067120181406	162.3995918367347	55	127
162.3067120181406	162.3995918367347	55	127
162.3067120181406	162.3995918367347	43	127
162.6201814058957	162.73628117913833	64	127
162.6201814058957	162.73628117913833	64	127
162.6201814058957	162.852358276644	52	127
162.6201814058957	162.852358276644	62	127
162.73628117913833	162.852358276644	74	127
162.73628117913833	162.852358276644	74	127
162.852358276644	162.96848072562358	76	127
162.852358276644	162.98009070294785	76	127
162.852358276644	163.35160997732427	52	127
162.852358276644	163.35160997732427	62	127
162.98009070294785	163.10777777777778	86	127
162.98009070294785	163.10777777777778	74	127
163.119410430839	163.23551020408163	76	127
163.119410430839	163.23551020408163	88	127
163.23551020408163	163.35160997732427	74	127
163.23551020408163	163.35160997732427	86	127
163.35160997732427	163.4328798185941	52	127
163.35160997732427	163.4328798185941	62	127
163.35160997732427	163.46768707482994	76	127
163.35160997732427	163.46768707482994	64	127
163.47931972789115	163.54897959183674	76	127
163.47931972789115	163.54897959183674	64	127
163.5954195011338	163.8392290249433	83	127
163.5954195011338	163.8392290249433	71	127
163.5954195011338	163.8392290249433	59	127
163.8392290249433	164.12945578231293	81	127
163.8392290249433	164.12945578231293	69	127
163.8392290249433	164.12945578231293	57	127
164.12945578231293	164.36167800453515	80	127
164.12945578231293	164.36167800453515	68	127
164.12945578231293	164.36167800453515	56	127
164.36167800453515	164.45455782312925	56	127
164.36167800453515	164.45455782312925	56	127
164.36167800453515	164.45455782312925	44	127
164.6402947845805	164.74478458049887	64	127
164.6402947845805	164.74478458049887	64	127
164.6402947845805	164.86090702947845	52	127
164.6402947845805	164.86090702947845	62	127
164.74478458049887	164.86090702947845	74	127
164.74478458049887	164.86090702947845	74	127
164.86090702947845	164.9770068027211	76	127
164.86090702947845	164.98861678004536	76	127
164.86090702947845	165.37174603174603	52	127
164.86090702947845	165.37174603174603	62	127
164.98861678004536	165.1279365079365	86	127
164.98861678004536	165.1279365079365	74	127
165.1279365079365	165.25562358276645	76	127
165.1279365079365	165.25562358276645	88	127
165.25562358276645	165.37174603174603	74	127
165.25562358276645	165.37174603174603	86	127
165.37174603174603	165.4530158730159	52	127
165.37174603174603	165.4530158730159	62	127
165.37174603174603	165.59233560090703	76	127
165.37174603174603	165.59233560090703	64	127
165.6039455782313	165.68521541950113	76	127
165.6039455782313	165.68521541950113	64	127
165.7200453514739	165.96385487528346	57	127
165.7200453514739	165.96385487528346	45	127
165.7200453514739	166.12639455782312	69	127
165.7200453514739	166.12639455782312	79	127
165.7200453514739	166.20766439909298	64	127
165.7200453514739	166.20766439909298	52	127
165.84775510204082	166.20766439909298	73	127
165.84775510204082	166.20766439909298	61	127
169.66743764172335	170.48013605442176	66	127
169.66743764172335	170.48013605442176	66	127
170.60784580498867	171.0374149659864	67	127
170.60784580498867	171.0374149659864	67	127
171.10707482993197	171.51342403628118	68	127
171.10707482993197	171.51342403628118	68	127
171.58308390022677	172.21002267573695	69	127
171.58308390022677	172.21002267573695	69	127
172.30290249433108	172.55832199546487	71	127
172.30290249433108	172.55832199546487	71	127
172.55832199546487	172.9762811791383	73	127
172.55832199546487	172.9762811791383	73	127
173.05755102040817	173.4290702947846	74	127
173.05755102040817	173.4290702947846	74	127
173.51034013605442	174.16049886621315	78	127
173.51034013605442	174.16049886621315	78	127
174.241768707483	174.4971882086168	76	127
174.241768707483	174.4971882086168	76	127
174.4971882086168	174.88031746031746	73	127
174.4971882086168	174.88031746031746	73	127
174.96158730158731	175.39115646258503	71	127
174.96158730158731	175.39115646258503	71	127
175.44920634920635	175.93680272108844	69	127
175.44920634920635	175.93680272108844	69	127
175.93680272108844	176.05292517006802	71	127
175.93680272108844	176.31995464852608	57	127
176.05292517006802	176.16902494331066	69	127
176.16902494331066	176.2851247165533	68	127
176.2851247165533	176.4012244897959	69	127
176.41283446712018	176.90045351473924	71	127
176.41283446712018	176.90045351473924	71	127
176.90045351473924	177.31839002267574	67	127
176.90045351473924	177.31839002267574	67	127
177.39968253968254	178.0730612244898	66	127
177.39968253968254	178.0730612244898	66	127
178.4213605442177	178.85090702947846	52	127
178.4213605442177	178.93219954648526	64	127
178.4213605442177	178.93219954648526	45	127
178.4213605442177	179.36174603174604	60	127
178.93219954648526	179.36174603174604	66	127
178.93219954648526	179.36174603174604	50	127
178.93219954648526	179.36174603174604	38	127
179.44303854875284	179.83777777777777	59	127
179.44303854875284	180.10480725623583	67	127
179.44303854875284	180.74333333333334	38	127
179.44303854875284	181.2774149659864	50	127
179.93065759637187	180.36022675736962	57	127
180.19768707482993	180.44149659863945	66	127
180.44149659863945	180.78979591836736	64	127
180.44149659863945	180.78979591836736	55	127
180.8710657596372	181.2774149659864	62	127
180.8710657596372	181.2774149659864	54	127
180.8710657596372	181.2774149659864	50	127
181.35866213151928	181.82308390022675	64	127
181.35866213151928	181.82308390022675	50	127
181.35866213151928	181.82308390022675	59	127
181.35866213151928	181.82308390022675	43	127
182.38034013605443	183.10018140589568	65	127
182.38034013605443	183.10018140589568	50	127
182.38034013605443	183.34399092970523	50	127
182.38034013605443	183.34399092970523	59	127
183.10018140589568	183.33238095238096	62	127
183.10018140589568	183.33238095238096	44	127
183.34399092970523	183.79678004535148	61	127
183.34399092970523	183.79678004535148	52	127
183.34399092970523	183.79678004535148	45	127
185.41056689342403	185.53827664399094	62	127
185.53827664399094	185.65437641723355	61	127
185.65437641723355	185.79369614512473	62	127
185.79369614512473	185.87496598639456	62	127
185.93301587301588	186.0607029478458	62	127
186.0607029478458	186.1768253968254	61	127
186.1768253968254	186.3045351473923	62	127
186.3045351473923	186.3974149659864	62	127
186.44385487528345	186.5831746031746	61	127
186.5831746031746	186.69927437641724	60	127
186.69927437641724	186.85020408163265	61	127
186.85020408163265	186.93145124716554	61	127
186.9778911564626	187.09401360544217	59	127
187.09401360544217	187.2101133786848	58	127
187.2101133786848	187.32621315192745	59	127
187.32621315192745	187.41909297052155	59	127
187.47714285714287	187.59321995464853	57	127
187.59321995464853	187.72095238095238	56	127
187.72095238095238	187.84863945578232	57	127
187.84863945578232	187.9647619047619	57	127
187.99956916099774	188.15052154195013	77	127
187.99956916099774	188.15052154195013	65	127
187.99956916099774	188.52204081632652	50	127
188.15052154195013	188.30145124716555	76	127
188.15052154195013	188.30145124716555	64	127
188.30145124716555	188.41755102040815	77	127
188.30145124716555	188.41755102040815	65	127
188.41755102040815	188.48721088435374	65	127
188.41755102040815	188.52204081632652	77	127
188.52204081632652	188.6265306122449	76	127
188.52204081632652	188.6265306122449	64	127
188.52204081632652	189.04448979591837	48	127
188.6265306122449	188.7774603174603	75	127
188.6265306122449	188.7774603174603	63	127
188.7774603174603	188.90517006802722	76	127
188.7774603174603	188.90517006802722	64	127
188.90517006802722	188.99804988662132	64	127
188.90517006802722	189.04448979591837	76	127
189.04448979591837	189.18380952380951	74	127
189.04448979591837	189.18380952380951	62	127
189.04448979591837	189.4740589569161	46	127
189.18380952380951	189.31151927437642	73	127
189.18380952380951	189.31151927437642	61	127
189.31151927437642	189.42761904761906	74	127
189.31151927437642	189.42761904761906	62	127
189.4392290249433	189.52049886621316	62	127
189.4392290249433	189.55532879818594	74	127
189.55532879818594	189.68303854875285	73	127
189.55532879818594	189.68303854875285	61	127
189.55532879818594	190.01972789115646	45	127
189.68303854875285	189.81074829931973	72	127
189.68303854875285	189.81074829931973	60	127
189.81074829931973	189.8919954648526	73	127
189.81074829931973	189.8919954648526	61	127
189.90362811791383	189.98489795918368	61	127
189.90362811791383	190.01972789115646	73	127
190.01972789115646	190.1474149659864	74	127
190.01972789115646	190.1474149659864	62	127
190.01972789115646	190.46090702947845	57	127
190.1474149659864	190.27514739229025	73	127
190.1474149659864	190.27514739229025	61	127
190.27514739229025	190.4144671201814	74	127
190.27514739229025	190.4144671201814	62	127
190.42607709750567	190.5073469387755	62	127
190.42607709750567	190.5421768707483	74	127
190.5421768707483	190.71632653061224	76	127
190.5421768707483	190.71632653061224	64	127
190.5421768707483	191.09945578231293	57	127
190.71632653061224	190.84403628117914	75	127
190.71632653061224	190.84403628117914	63	127
190.84403628117914	190.9485260770975	76	127
190.84403628117914	190.9485260770975	64	127
190.96013605442178	191.0414058956916	64	127
190.96013605442178	191.0762358276644	76	127
191.09945578231293	191.2271655328798	77	127
191.09945578231293	191.2271655328798	65	127
191.09945578231293	191.52902494331065	69	127
191.2271655328798	191.35487528344672	76	127
191.2271655328798	191.35487528344672	64	127
191.35487528344672	191.47097505668935	77	127
191.35487528344672	191.47097505668935	65	127
191.4825850340136	191.57546485260772	65	127
191.4825850340136	191.66834467120182	77	127
191.67995464852606	191.7960544217687	82	127
191.67995464852606	191.7960544217687	70	127
191.67995464852606	192.2024036281179	64	127
191.7960544217687	191.9237641723356	81	127
191.7960544217687	191.9237641723356	69	127
191.9237641723356	192.03986394557822	82	127
191.9237641723356	192.03986394557822	70	127
192.0514739229025	192.1443537414966	70	127
192.0514739229025	192.19079365079364	82	127
192.2024036281179	192.31850340136054	81	127
192.2024036281179	192.31850340136054	69	127
192.2024036281179	192.71324263038548	65	127
192.31850340136054	192.44621315192742	80	127
192.31850340136054	192.44621315192742	68	127
192.44621315192742	192.57392290249433	81	127
192.44621315192742	192.57392290249433	69	127
192.57392290249433	192.65519274376416	69	127
192.57392290249433	192.7016326530612	81	127
192.71324263038548	192.82934240362812	79	127
192.71324263038548	192.82934240362812	67	127
192.71324263038548	193.21247165532878	61	127
192.82934240362812	192.957052154195	78	127
192.82934240362812	192.957052154195	66	127
192.957052154195	193.0847619047619	79	127
192.957052154195	193.0847619047619	67	127
193.0847619047619	193.16603174603173	67	127
193.0847619047619	193.20086167800454	79	127
193.21247165532878	193.3401814058957	77	127
193.21247165532878	193.3401814058957	65	127
193.21247165532878	193.6536507936508	62	127
193.3401814058957	193.47950113378684	76	127
193.3401814058957	193.47950113378684	64	127
193.47950113378684	193.60721088435375	77	127
193.47950113378684	193.60721088435375	65	127
193.60721088435375	193.68848072562358	65	127
193.60721088435375	193.7233106575964	77	127
193.75814058956917	193.90907029478458	77	127
193.75814058956917	193.90907029478458	65	127
193.75814058956917	194.3154195011338	62	127
193.90907029478458	194.02517006802722	76	127
193.90907029478458	194.02517006802722	64	127
194.02517006802722	194.18770975056688	77	127
194.02517006802722	194.18770975056688	65	127
194.18770975056688	194.26897959183674	65	127
194.18770975056688	194.30380952380952	77	127
194.3154195011338	194.43151927437643	77	127
194.3154195011338	194.43151927437643	65	127
194.3154195011338	194.73337868480726	55	127
194.43151927437643	194.5592290249433	76	127
194.43151927437643	194.5592290249433	64	127
194.5592290249433	194.6869387755102	77	127
194.5592290249433	194.6869387755102	65	127
194.6869387755102	194.76820861678004	65	127
194.6869387755102	194.83786848072563	77	127
194.83786848072563	194.9655782312925	76	127
194.83786848072563	194.9655782312925	64	127
194.83786848072563	195.32548752834467	67	127
194.9655782312925	195.08167800453515	75	127
194.9655782312925	195.08167800453515	63	127
195.08167800453515	195.1977777777778	76	127
195.08167800453515	195.1977777777778	64	127
195.1977777777778	195.27904761904762	64	127
195.1977777777778	195.32548752834467	76	127
195.32548752834467	195.46480725623582	76	127
195.32548752834467	195.46480725623582	64	127
195.32548752834467	195.76666666666668	60	127
195.46480725623582	195.604126984127	75	127
195.46480725623582	195.604126984127	63	127
195.604126984127	195.7202267573696	76	127
195.604126984127	195.7202267573696	64	127
195.7202267573696	195.81310657596373	64	127
195.7202267573696	195.8479365079365	76	127
195.8479365079365	195.9756462585034	77	127
195.8479365079365	195.9756462585034	65	127
195.8479365079365	196.2891156462585	60	127
195.9756462585034	196.11496598639457	76	127
195.9756462585034	196.11496598639457	64	127
196.11496598639457	196.24267573696144	77	127
196.11496598639457	196.24267573696144	65	127
196.24267573696144	196.35877551020408	69	127
196.24267573696144	196.4168253968254	81	127
196.4168253968254	197.34562358276645	69	127
196.4168253968254	197.34562358276645	81	127
196.4168253968254	197.34562358276645	57	127
196.4168253968254	197.34562358276645	69	127
196.4168253968254	197.34562358276645	45	127
197.46172335600906	198.40213151927438	69	127
197.46172335600906	198.40213151927438	81	127
197.46172335600906	198.40213151927438	57	127
197.46172335600906	198.40213151927438	69	127
197.46172335600906	198.40213151927438	45	127
198.4834013605442	199.31931972789116	69	127
198.4834013605442	199.31931972789116	81	127
198.4834013605442	199.31931972789116	57	127
198.4834013605442	199.31931972789116	69	127
198.4834013605442	199.31931972789116	45	127
199.44702947845806	200.0043083900227	80	127
199.44702947845806	200.0043083900227	68	127
199.44702947845806	200.44548752834467	45	127
200.0043083900227	200.44548752834467	81	127
200.0043083900227	200.44548752834467	69	127
200.53836734693877	201.08403628117915	69	127
200.53836734693877	201.08403628117915	57	127
200.53836734693877	201.08403628117915	45	127
201.08403628117915	201.59487528344673	68	127
201.08403628117915	201.59487528344673	56	127
201.08403628117915	201.59487528344673	44	127
201.59487528344673	202.15215419501135	67	127
201.59487528344673	202.15215419501135	55	127
201.59487528344673	202.15215419501135	43	127
202.15215419501135	202.6281632653061	66	127
202.15215419501135	202.6281632653061	54	127
202.15215419501135	202.6281632653061	42	127
202.6281632653061	203.12739229024945	69	127
202.6281632653061	203.12739229024945	57	127
202.6281632653061	203.12739229024945	45	127
203.12739229024945	203.96331065759637	74	127
203.12739229024945	203.96331065759637	62	127
203.12739229024945	203.96331065759637	50	127
203.96331065759637	204.19551020408164	76	127
203.96331065759637	204.19551020408164	64	127
203.96331065759637	204.19551020408164	52	127
204.19551020408164	204.6482993197279	74	127
204.19551020408164	204.6482993197279	62	127
204.19551020408164	204.6482993197279	45	127
204.741179138322	205.25201814058957	73	127
204.741179138322	205.25201814058957	61	127
204.741179138322	205.25201814058957	45	127
205.25201814058957	205.7744671201814	74	127
205.25201814058957	205.7744671201814	62	127
205.25201814058957	205.7744671201814	47	127
205.7744671201814	206.33174603174604	76	127
205.7744671201814	206.33174603174604	64	127
205.7744671201814	206.33174603174604	49	127
206.33174603174604	206.76131519274375	69	127
206.33174603174604	206.76131519274375	66	127
206.33174603174604	206.76131519274375	50	127
206.85419501133788	207.33020408163264	66	127
206.85419501133788	207.33020408163264	54	127
206.85419501133788	207.33020408163264	38	127
207.33020408163264	207.84104308390022	67	127
207.33020408163264	207.84104308390022	55	127
207.33020408163264	207.84104308390022	40	127
207.84104308390022	208.3518820861678	69	127
207.84104308390022	208.3518820861678	57	127
207.84104308390022	208.3518820861678	42	127
208.3518820861678	208.81628117913831	62	127
208.3518820861678	208.81628117913831	59	127
208.3518820861678	208.81628117913831	43	127
208.93238095238095	209.4548299319728	71	127
208.93238095238095	209.4548299319728	71	127
208.93238095238095	209.4548299319728	55	127
209.4548299319728	210.0469387755102	81	127
209.4548299319728	210.0469387755102	78	127
209.4548299319728	210.0469387755102	63	127
210.0469387755102	210.55777777777777	79	127
210.0469387755102	210.55777777777777	76	127
210.0469387755102	210.55777777777777	64	127
210.63904761904763	211.60267573696146	69	127
210.63904761904763	211.60267573696146	78	127
210.63904761904763	211.60267573696146	57	127
210.63904761904763	211.60267573696146	69	127
210.63904761904763	214.40068027210884	57	127
210.63904761904763	214.40068027210884	69	127
211.73038548752834	212.75206349206348	69	127
211.73038548752834	212.75206349206348	77	127
211.73038548752834	212.75206349206348	57	127
211.73038548752834	212.75206349206348	68	127
212.89138321995466	214.40068027210884	69	127
212.89138321995466	214.40068027210884	76	127
212.89138321995466	214.40068027210884	57	127
212.89138321995466	214.40068027210884	67	127
214.60965986394558	215.14371882086166	57	127
214.60965986394558	215.14371882086166	69	127
214.60965986394558	215.37591836734694	57	127
214.60965986394558	215.45718820861677	69	127
214.95795918367347	215.45718820861677	73	127
215.14371882086166	215.46879818594104	68	127
215.46879818594104	215.71260770975056	57	127
215.46879818594104	215.71260770975056	38	127
215.46879818594104	215.71260770975056	45	127
215.46879818594104	215.71260770975056	69	127
215.46879818594104	216.00285714285715	66	127
215.58489795918368	216.00285714285715	74	127
215.58489795918368	216.00285714285715	50	127
215.58489795918368	216.00285714285715	57	127
215.71260770975056	216.0144671201814	67	127
216.0144671201814	216.26988662131518	66	127
216.0144671201814	217.17546485260772	50	127
216.0144671201814	217.17546485260772	57	127
216.26988662131518	216.72267573696146	64	127
216.75750566893424	217.01292517006803	66	127
217.01292517006803	217.31478458049887	64	127
217.31478458049887	217.58181405895692	62	127
217.31478458049887	218.2784126984127	50	127
217.31478458049887	218.2784126984127	57	127
217.58181405895692	217.82562358276644	61	127
217.8372335600907	218.08104308390023	62	127
218.08104308390023	218.35968253968255	57	127
218.3712925170068	218.63832199546485	62	127
218.3712925170068	219.35814058956916	50	127
218.3712925170068	219.35814058956916	57	127
218.63832199546485	218.96340136054422	64	127
218.96340136054422	219.20721088435374	66	127
219.20721088435374	219.4974603174603	62	127
219.4974603174603	219.83414965986395	66	127
219.4974603174603	220.01990929705215	50	127
219.4974603174603	220.01990929705215	57	127
219.83414965986395	220.1592290249433	69	127
220.1592290249433	220.4146485260771	71	127
220.1592290249433	220.6004081632653	57	127
220.4146485260771	220.68167800453514	67	127
220.68167800453514	220.77455782312924	71	127
220.68167800453514	221.68013605442178	52	127
220.68167800453514	221.68013605442178	57	127
220.9487074829932	221.0415873015873	70	127
221.23895691609977	221.52920634920636	71	127
221.52920634920636	221.80784580498866	76	127
221.80784580498866	221.91233560090703	71	127
221.80784580498866	222.84113378684808	52	127
221.80784580498866	222.84113378684808	57	127
222.08648526077098	222.21419501133786	70	127
222.37673469387755	222.65537414965988	71	127
222.65537414965988	222.9572335600907	67	127
222.9572335600907	223.06172335600908	71	127
222.9572335600907	223.9673015873016	52	127
222.9572335600907	223.9673015873016	57	127
223.22426303854874	223.31714285714287	70	127
223.51451247165534	223.8047619047619	71	127
223.8047619047619	224.12984126984128	76	127
224.14145124716552	224.38526077097507	71	127
224.14145124716552	224.76839002267573	52	127
224.14145124716552	225.3721088435374	57	127
224.38526077097507	224.76839002267573	70	127
224.76839002267573	225.1863492063492	73	127
224.76839002267573	225.3721088435374	50	127
225.1863492063492	225.46498866213153	71	127
225.46498866213153	225.79006802721088	69	127
225.46498866213153	226.08031746031747	50	127
225.79006802721088	226.0687074829932	67	127
226.08031746031747	226.33573696145126	69	127
226.08031746031747	226.5098866213152	52	127
226.33573696145126	226.59115646258505	67	127
226.59115646258505	226.83496598639456	66	127
226.59115646258505	227.14843537414967	47	127
226.83496598639456	227.1368253968254	64	127
227.14843537414967	227.49673469387756	62	127
227.14843537414967	227.69410430839002	45	127
227.49673469387756	227.7985941043084	61	127
227.7985941043084	228.0424036281179	62	127
227.7985941043084	228.797052154195	45	127
228.0424036281179	228.32104308390024	66	127
228.32104308390024	228.69256235827663	64	127
228.69256235827663	228.9247619047619	61	127
228.9247619047619	229.2034013605442	38	127
228.9247619047619	229.2034013605442	45	127
228.9247619047619	229.21501133786848	81	127
228.9247619047619	229.21501133786848	69	127
229.06408163265306	229.9928798185941	50	127
229.06408163265306	229.9928798185941	57	127
229.21501133786848	229.54009070294785	80	127
229.21501133786848	229.54009070294785	68	127
229.54009070294785	229.79551020408164	81	127
229.54009070294785	229.79551020408164	69	127
229.79551020408164	230.07414965986393	79	127
229.79551020408164	230.07414965986393	67	127
230.07414965986393	230.35278911564626	78	127
230.07414965986393	230.35278911564626	66	127
230.07414965986393	231.01455782312925	50	127
230.07414965986393	231.01455782312925	57	127
230.35278911564626	230.60820861678005	76	127
230.35278911564626	230.60820861678005	64	127
230.60820861678005	230.88684807256234	78	127
230.60820861678005	230.88684807256234	66	127
230.88684807256234	231.14226757369613	76	127
230.88684807256234	231.14226757369613	64	127
231.14226757369613	231.42090702947846	74	127
231.14226757369613	231.42090702947846	62	127
231.14226757369613	232.18716553287982	50	127
231.14226757369613	232.18716553287982	57	127
231.42090702947846	231.6879365079365	73	127
231.42090702947846	231.6879365079365	61	127
231.6879365079365	231.97818594104308	74	127
231.6879365079365	231.97818594104308	62	127
231.97818594104308	232.26843537414965	69	127
231.97818594104308	232.26843537414965	57	127
232.26843537414965	232.52385487528343	74	127
232.26843537414965	232.52385487528343	62	127
232.26843537414965	233.18562358276645	50	127
232.26843537414965	233.18562358276645	57	127
232.52385487528343	232.77927437641722	76	127
232.52385487528343	232.77927437641722	64	127
232.77927437641722	233.05791383219955	78	127
232.77927437641722	233.05791383219955	66	127
233.05791383219955	233.30172335600906	74	127
233.05791383219955	233.30172335600906	62	127
233.31333333333333	233.55714285714285	86	127
233.31333333333333	234.2653514739229	66	127
233.31333333333333	234.2653514739229	74	127
233.31333333333333	234.2653514739229	50	127
233.31333333333333	234.2653514739229	60	127
233.55714285714285	233.84739229024945	85	127
233.84739229024945	234.09120181405896	86	127
234.09120181405896	234.36984126984126	83	127
234.36984126984126	234.6136507936508	81	127
234.36984126984126	235.25219954648526	66	127
234.36984126984126	235.25219954648526	74	127
234.36984126984126	235.25219954648526	50	127
234.36984126984126	235.25219954648526	60	127
234.6136507936508	234.85746031746032	80	127
234.8690702947846	235.1128798185941	81	127
235.1128798185941	235.37990929705217	79	127
235.37990929705217	235.65854875283446	78	127
235.37990929705217	236.343537414966	66	127
235.37990929705217	236.343537414966	74	127
235.37990929705217	236.343537414966	50	127
235.37990929705217	236.343537414966	60	127
235.65854875283446	235.90235827664398	76	127
235.91396825396825	236.16938775510204	78	127
236.16938775510204	236.42480725623582	74	127
236.42480725623582	236.69183673469388	78	127
236.42480725623582	237.3419954648526	66	127
236.42480725623582	237.3419954648526	74	127
236.42480725623582	237.3419954648526	50	127
236.42480725623582	237.3419954648526	60	127
236.69183673469388	236.9356462585034	79	127
236.9356462585034	237.19106575963718	81	127
237.19106575963718	237.48131519274375	78	127
237.48131519274375	237.57419501133788	86	127
237.48131519274375	238.05020408163264	66	127
237.48131519274375	238.05020408163264	60	127
237.48131519274375	238.49138321995466	74	127
237.48131519274375	238.49138321995466	50	127
237.75995464852608	237.8412244897959	85	127
238.05020408163264	238.32884353741497	86	127
238.05020408163264	238.49138321995466	67	127
238.05020408163264	238.49138321995466	59	127
238.32884353741497	238.57265306122449	79	127
238.57265306122449	238.74680272108844	86	127
238.57265306122449	239.17637188208616	67	127
238.57265306122449	239.17637188208616	59	127
238.57265306122449	239.59433106575963	74	127
238.57265306122449	239.59433106575963	50	127
238.92095238095237	239.00222222222223	85	127
239.17637188208616	239.43179138321995	86	127
239.17637188208616	239.59433106575963	66	127
239.17637188208616	239.59433106575963	57	127
239.43179138321995	239.6756009070295	78	127
239.6756009070295	239.7684807256236	86	127
239.6756009070295	240.15160997732426	66	127
239.6756009070295	240.2328798185941	57	127
239.6756009070295	240.68566893424037	74	127
239.6756009070295	240.68566893424037	50	127
239.9542403628118	240.05873015873016	85	127
240.2328798185941	240.4882993197279	86	127
240.2328798185941	240.68566893424037	64	127
240.2328798185941	240.68566893424037	59	127
240.4882993197279	240.7669387755102	76	127
240.77854875283447	241.06879818594103	76	127
240.77854875283447	241.27777777777777	64	127
240.77854875283447	241.27777777777777	74	127
240.77854875283447	241.27777777777777	59	127
241.06879818594103	241.37065759637187	78	127
241.40548752834468	241.66090702947847	81	127
241.40548752834468	241.84666666666666	64	127
241.40548752834468	241.84666666666666	73	127
241.40548752834468	241.84666666666666	57	127
241.66090702947847	241.95115646258503	79	127
241.95115646258503	242.2414058956916	78	127
241.95115646258503	242.4619954648526	64	127
241.95115646258503	242.4619954648526	73	127
241.95115646258503	242.4619954648526	45	127
242.2414058956916	242.5316553287982	76	127
242.54326530612244	243.04249433106577	74	127
242.54326530612244	243.04249433106577	62	127
242.54326530612244	243.04249433106577	74	127
242.54326530612244	243.04249433106577	47	127
243.1237641723356	243.20503401360546	74	127
243.35596371882087	243.4372335600907	73	127
243.63460317460317	243.9132426303855	74	127
243.9132426303855	244.15705215419501	68	127
244.16866213151928	244.26154195011338	62	127
244.4356916099773	244.54018140589568	61	127
244.70272108843537	244.96975056689342	62	127
244.70272108843537	245.28321995464853	62	127
244.96975056689342	245.28321995464853	56	127
245.28321995464853	245.4109297052154	74	127
245.28321995464853	245.75922902494332	56	127
245.5734693877551	245.65473922902495	73	127
245.85210884353742	246.11913832199548	74	127
246.11913832199548	246.30489795918368	68	127
246.30489795918368	246.37455782312927	62	127
246.5487074829932	246.62997732426305	62	127
246.83895691609976	247.09437641723355	67	127
246.83895691609976	247.34979591836733	67	127
247.09437641723355	247.34979591836733	57	127
247.34979591836733	247.4310657596372	76	127
247.34979591836733	247.75614512471654	57	127
247.59360544217688	247.6748752834467	75	127
247.8374149659864	248.10444444444445	76	127
248.10444444444445	248.35986394557824	67	127
248.35986394557824	248.4643537414966	64	127
248.62689342403627	248.7197732426304	64	127
248.91714285714286	249.17256235827665	69	127
248.91714285714286	249.46281179138322	69	127
249.17256235827665	249.45120181405895	60	127
249.46281179138322	249.55569160997732	78	127
249.46281179138322	249.86916099773242	60	127
249.70662131519273	249.7878911564626	77	127
249.95043083900228	250.1942403628118	78	127
250.1942403628118	250.46126984126985	72	127
250.4728798185941	250.55414965986395	69	127
250.71668934240364	250.79795918367347	69	127
251.03015873015872	251.29718820861677	73	127
251.03015873015872	251.56421768707483	69	127
251.29718820861677	251.55260770975056	67	127
251.56421768707483	251.6687074829932	79	127
251.56421768707483	251.99378684807257	61	127
251.8312471655329	251.92412698412699	79	127
251.8312471655329	252.06344671201813	69	127
252.0750566893424	252.34208616780046	81	127
252.0750566893424	252.58589569160998	62	127
252.0750566893424	253.68884353741495	74	127
252.34208616780046	252.58589569160998	69	127
252.58589569160998	253.073514739229	72	127
252.8645351473923	253.15478458049887	78	127
253.15478458049887	253.41020408163266	79	127
253.15478458049887	253.68884353741495	71	127
253.41020408163266	253.68884353741495	67	127
253.68884353741495	254.13002267573697	67	127
253.68884353741495	254.23451247165534	71	127
253.96748299319728	254.23451247165534	74	127
254.23451247165534	254.48993197278912	72	127
254.23451247165534	254.73374149659864	69	127
254.23451247165534	254.73374149659864	63	127
254.48993197278912	254.73374149659864	66	127
254.73374149659864	255.17492063492062	67	127
254.73374149659864	255.17492063492062	64	127
254.98916099773243	255.279410430839	71	127
255.279410430839	255.53482993197278	68	127
255.279410430839	255.82507936507938	65	127
255.279410430839	256.2198185941043	57	127
255.53482993197278	255.82507936507938	57	127
255.82507936507938	256.2546485260771	66	127
256.0921088435374	256.3475283446712	69	127
256.3475283446712	256.61455782312925	66	127
256.3475283446712	256.9048072562358	63	127
256.3475283446712	257.38081632653063	45	127
256.61455782312925	256.9048072562358	57	127
256.9048072562358	257.42725623582766	64	127
257.2298866213152	257.5085260770975	67	127
257.52013605442176	258.00773242630385	68	127
257.52013605442176	258.00773242630385	62	127
257.52013605442176	258.00773242630385	47	127
258.10063492063495	258.1819047619048	68	127
258.34444444444443	258.43732426303853	67	127
258.6114739229025	258.855283446712	68	127
258.6114739229025	259.37773242630385	76	127
258.6114739229025	259.37773242630385	64	127
258.855283446712	259.1107029478458	62	127
259.37773242630385	259.63315192743767	78	127
259.37773242630385	259.63315192743767	68	127
259.37773242630385	259.63315192743767	66	127
259.64473922902494	259.8885714285714	68	127
259.64473922902494	260.1672108843537	78	127
259.64473922902494	260.1672108843537	66	127
259.8885714285714	260.1555782312925	62	127
260.1672108843537	260.5851700680272	76	127
260.1672108843537	260.5851700680272	64	127
260.6548299319728	260.9334693877551	68	127
260.6548299319728	261.42108843537414	76	127
260.6548299319728	261.42108843537414	64	127
260.9334693877551	261.18888888888887	62	127
261.42108843537414	261.6648979591837	78	127
261.42108843537414	261.6648979591837	68	127
261.42108843537414	261.6648979591837	66	127
261.6648979591837	261.943537414966	67	127
261.6648979591837	262.17573696145126	78	127
261.6648979591837	262.17573696145126	66	127
261.943537414966	262.17573696145126	57	127
262.17573696145126	262.59369614512474	76	127
262.17573696145126	262.59369614512474	64	127
262.67496598639457	262.95360544217687	67	127
262.67496598639457	263.45283446712017	76	127
262.67496598639457	263.45283446712017	64	127
262.95360544217687	263.1974149659864	57	127
263.45283446712017	263.71986394557825	79	127
263.45283446712017	263.71986394557825	69	127
263.45283446712017	263.71986394557825	67	127
263.71986394557825	263.975283446712	69	127
263.71986394557825	264.2307029478458	79	127
263.71986394557825	264.2307029478458	67	127
263.975283446712	264.2307029478458	60	127
264.2307029478458	264.6951020408163	78	127
264.2307029478458	264.6951020408163	66	127
264.77637188208615	265.04340136054424	69	127
264.77637188208615	265.58907029478456	78	127
264.77637188208615	265.58907029478456	66	127
265.04340136054424	265.298820861678	60	127
265.58907029478456	265.85609977324265	81	127
265.58907029478456	265.85609977324265	72	127
265.58907029478456	265.85609977324265	69	127
265.8677097505669	266.1115192743764	73	127
265.8677097505669	266.3785487528345	81	127
265.8677097505669	266.3785487528345	69	127
266.1115192743764	266.3669387755102	67	127
266.3785487528345	266.80809523809523	79	127
266.3785487528345	266.80809523809523	67	127
266.63396825396825	266.8777777777778	73	127
266.88938775510206	267.1448072562358	74	127
266.88938775510206	267.40022675736964	81	127
266.88938775510206	267.40022675736964	69	127
267.1448072562358	267.38861678004537	62	127
267.40022675736964	267.6904761904762	72	127
267.40022675736964	267.98072562358277	82	127
267.40022675736964	267.98072562358277	70	127
267.6904761904762	268.05038548752833	62	127
268.0619954648526	268.30580498866215	71	127
268.0619954648526	268.49156462585034	71	127
268.0619954648526	268.5960544217687	83	127
268.30580498866215	268.5960544217687	62	127
268.5960544217687	269.02562358276646	79	127
268.5960544217687	269.11850340136056	59	127
268.83986394557826	269.11850340136056	71	127
269.11850340136056	269.74544217687077	78	127
269.11850340136056	269.74544217687077	72	127
269.11850340136056	269.74544217687077	69	127
269.74544217687077	270.1749886621315	76	127
269.74544217687077	270.1749886621315	71	127
269.74544217687077	270.1749886621315	67	127
270.25628117913834	270.8251700680272	76	127
270.25628117913834	270.8251700680272	68	127
270.25628117913834	270.8251700680272	65	127
270.8251700680272	271.06897959183675	74	127
270.8251700680272	271.06897959183675	69	127
270.8251700680272	271.06897959183675	66	127
271.34761904761905	271.9281179138322	74	127
271.34761904761905	271.9281179138322	66	127
271.34761904761905	271.9281179138322	63	127
271.9281179138322	272.3228344671202	73	127
271.9281179138322	272.3228344671202	67	127
271.9281179138322	272.3228344671202	64	127
272.6479365079365	274.5984126984127	72	127
272.6479365079365	274.5984126984127	66	127
272.6479365079365	274.5984126984127	63	127
274.83061224489796	275.4459410430839	72	127
274.83061224489796	275.4459410430839	63	127
274.83061224489796	275.4459410430839	54	127
275.4459410430839	276.4908390022676	71	127
275.4459410430839	276.4908390022676	64	127
275.4459410430839	276.4908390022676	55	127
276.4908390022676	277.4892970521542	70	127
276.4908390022676	277.4892970521542	62	127
276.4908390022676	277.4892970521542	53	127
277.5821768707483	278.1510430839002	62	127
277.5821768707483	278.1510430839002	54	127
277.5821768707483	278.7431746031746	69	127
278.1510430839002	278.7431746031746	60	127
278.1510430839002	278.7431746031746	51	127
278.7431746031746	279.01020408163265	61	127
278.7431746031746	279.19596371882085	61	127
278.7431746031746	279.19596371882085	52	127
279.01020408163265	279.3120634920635	55	127
279.3120634920635	279.76485260770977	62	127
279.3120634920635	279.76485260770977	54	127
279.3120634920635	279.76485260770977	50	127
281.5643990929705	282.0752380952381	66	127
281.5643990929705	282.0752380952381	62	127
281.5643990929705	282.0752380952381	50	127
282.0752380952381	282.3306575963719	64	127
282.0752380952381	282.3306575963719	61	127
282.0752380952381	282.3306575963719	45	127
282.6673469387755	283.22462585034015	67	127
282.6673469387755	283.22462585034015	64	127
282.6673469387755	283.22462585034015	49	127
283.22462585034015	283.53809523809525	66	127
283.22462585034015	283.53809523809525	62	127
283.22462585034015	283.53809523809525	50	127
286.2548299319728	286.80049886621316	65	127
286.2548299319728	286.80049886621316	62	127
286.2548299319728	286.80049886621316	50	127
286.80049886621316	287.0442857142857	64	127
286.80049886621316	287.0442857142857	61	127
286.80049886621316	287.0442857142857	45	127
287.369387755102	287.8685941043084	67	127
287.369387755102	287.8685941043084	64	127
287.369387755102	287.8685941043084	49	127
287.8685941043084	288.1356462585034	65	127
287.8685941043084	288.1356462585034	62	127
287.8685941043084	288.1356462585034	50	127
290.7711111111111	291.25873015873015	67	127
290.7711111111111	291.25873015873015	63	127
290.7711111111111	291.25873015873015	51	127
291.25873015873015	291.4909297052154	65	127
291.25873015873015	291.4909297052154	62	127
291.25873015873015	291.4909297052154	46	127
291.79278911564626	292.30362811791383	68	127
291.79278911564626	292.30362811791383	65	127
291.79278911564626	292.30362811791383	50	127
292.30362811791383	292.5706349206349	67	127
292.30362811791383	292.5706349206349	63	127
292.30362811791383	292.5706349206349	51	127
294.0102947845805	294.52113378684805	68	127
294.0102947845805	294.52113378684805	65	127
294.0102947845805	294.52113378684805	50	127
294.52113378684805	294.7649433106576	67	127
294.52113378684805	294.7649433106576	63	127
294.52113378684805	294.7649433106576	51	127
296.2509977324263	296.7618367346939	68	127
296.2509977324263	296.7618367346939	65	127
296.2509977324263	296.7618367346939	50	127
296.7618367346939	297.05210884353744	67	127
296.7618367346939	297.05210884353744	64	127
296.7618367346939	297.05210884353744	49	127
298.5730158730159	299.107052154195	67	127
298.5730158730159	299.107052154195	64	127
298.5730158730159	299.107052154195	49	127
299.107052154195	299.3857142857143	66	127
299.107052154195	299.3857142857143	63	127
299.107052154195	299.3857142857143	48	127
301.04594104308393	301.54517006802723	63	127
301.04594104308393	301.54517006802723	60	127
301.54517006802723	301.81219954648526	64	127
301.54517006802723	301.81219954648526	59	127
302.1024489795918	302.7409977324263	61	127
302.1024489795918	302.7409977324263	58	127
302.7409977324263	302.98480725623585	62	127
302.7409977324263	302.98480725623585	57	127
303.2402267573696	303.79750566893426	60	127
303.2402267573696	303.79750566893426	56	127
303.79750566893426	304.0645351473923	61	127
303.79750566893426	304.0645351473923	55	127
304.40122448979594	304.94689342403626	74	127
304.40122448979594	304.94689342403626	62	127
304.40122448979594	304.94689342403626	50	127
304.94689342403626	305.45773242630383	83	127
304.94689342403626	305.45773242630383	71	127
304.94689342403626	305.45773242630383	59	127
305.45773242630383	305.9801814058957	80	127
305.45773242630383	305.9801814058957	68	127
305.45773242630383	305.9801814058957	56	127
305.9801814058957	308.5575963718821	81	127
305.9801814058957	308.5575963718821	69	127
305.9801814058957	308.5575963718821	57	127
308.685306122449	309.25419501133786	74	127
308.685306122449	309.25419501133786	62	127
308.685306122449	309.25419501133786	50	127
309.25419501133786	309.76503401360543	82	127
309.25419501133786	309.76503401360543	70	127
309.25419501133786	309.76503401360543	58	127
309.76503401360543	310.3223129251701	80	127
309.76503401360543	310.3223129251701	68	127
309.76503401360543	310.3223129251701	56	127
310.3223129251701	313.0738775510204	81	127
310.3223129251701	313.0738775510204	69	127
310.3223129251701	313.0738775510204	57	127
313.2015873015873	313.7588662131519	74	127
313.2015873015873	313.7588662131519	62	127
313.2015873015873	313.7588662131519	50	127
313.7588662131519	314.2580952380952	84	127
313.7588662131519	314.2580952380952	72	127
313.7588662131519	314.2580952380952	60	127
314.2580952380952	314.8037641723356	81	127
314.2580952380952	314.8037641723356	69	127
314.2580952380952	314.8037641723356	57	127
314.8037641723356	315.45392290249436	82	127
314.8037641723356	315.45392290249436	70	127
314.8037641723356	315.45392290249436	58	127
315.45392290249436	317.3927891156463	82	127
315.45392290249436	317.3927891156463	70	127
315.45392290249436	317.3927891156463	58	127
317.5321088435374	318.1009977324263	81	127
317.5321088435374	318.1009977324263	69	127
317.5321088435374	318.1009977324263	57	127
318.1009977324263	319.5638321995465	82	127
318.1009977324263	319.5638321995465	70	127
318.1009977324263	319.5638321995465	58	127
319.69156462585033	320.2024036281179	81	127
319.69156462585033	320.2024036281179	69	127
319.69156462585033	320.2024036281179	57	127
320.2024036281179	321.8742403628118	82	127
320.2024036281179	321.8742403628118	70	127
320.2024036281179	321.8742403628118	58	127
322.013537414966	322.54761904761904	82	127
322.013537414966	322.54761904761904	70	127
322.013537414966	322.54761904761904	58	127
322.54761904761904	324.20784580498866	81	127
322.54761904761904	324.20784580498866	69	127
322.54761904761904	324.20784580498866	57	127
324.3355555555556	324.927664399093	81	127
324.3355555555556	324.927664399093	69	127
324.3355555555556	324.927664399093	57	127
324.927664399093	326.4485714285714	80	127
324.927664399093	326.4485714285714	68	127
324.927664399093	326.4485714285714	56	127
326.57628117913833	327.4934693877551	80	127
326.57628117913833	327.4934693877551	68	127
326.57628117913833	327.4934693877551	56	127
327.621179138322	328.5964172335601	81	127
327.621179138322	328.5964172335601	69	127
327.621179138322	328.5964172335601	57	127
328.73573696145127	329.6645351473923	83	127
328.73573696145127	329.6645351473923	71	127
328.73573696145127	329.6645351473923	59	127
329.79224489795916	329.87351473922905	85	127
329.79224489795916	329.87351473922905	73	127
329.79224489795916	329.87351473922905	61	127
329.87351473922905	329.9780045351474	86	127
329.87351473922905	329.9780045351474	74	127
329.87351473922905	329.9780045351474	62	127
329.9780045351474	330.05927437641725	85	127
329.9780045351474	330.05927437641725	73	127
329.9780045351474	330.05927437641725	61	127
330.05927437641725	330.1405442176871	86	127
330.05927437641725	330.1405442176871	74	127
330.05927437641725	330.1405442176871	62	127
330.1405442176871	330.2334240362812	85	127
330.1405442176871	330.2334240362812	73	127
330.1405442176871	330.2334240362812	61	127
330.2334240362812	330.314693877551	86	127
330.2334240362812	330.314693877551	74	127
330.2334240362812	330.314693877551	62	127
330.314693877551	330.4075736961451	85	127
330.314693877551	330.4075736961451	73	127
330.314693877551	330.4075736961451	61	127
330.4075736961451	330.50043083900226	86	127
330.4075736961451	330.50043083900226	74	127
330.4075736961451	330.50043083900226	62	127
330.50043083900226	330.59331065759636	85	127
330.50043083900226	330.59331065759636	73	127
330.50043083900226	330.59331065759636	61	127
330.59331065759636	330.68621315192746	86	127
330.59331065759636	330.68621315192746	74	127
330.59331065759636	330.68621315192746	62	127
330.68621315192746	330.7674829931973	83	127
330.68621315192746	330.7674829931973	71	127
330.68621315192746	330.7674829931973	59	127
330.7674829931973	330.8487528344671	85	127
330.7674829931973	330.8487528344671	73	127
330.7674829931973	330.8487528344671	61	127
330.8487528344671	331.5221088435374	86	127
330.8487528344671	331.5221088435374	74	127
330.8487528344671	331.5221088435374	62	127
331.5221088435374	332.0445804988662	82	127
331.5221088435374	332.0445804988662	70	127
331.5221088435374	332.0445804988662	58	127
332.0445804988662	332.6134693877551	83	127
332.0445804988662	332.6134693877551	71	127
332.0445804988662	332.6134693877551	59	127
332.6134693877551	333.04303854875286	74	127
332.6134693877551	333.04303854875286	62	127
332.6134693877551	333.04303854875286	50	127
333.13591836734696	333.63514739229026	86	127
333.13591836734696	333.63514739229026	74	127
333.13591836734696	333.63514739229026	62	127
333.63514739229026	334.1692063492064	82	127
333.63514739229026	334.1692063492064	70	127
333.63514739229026	334.1692063492064	58	127
334.1692063492064	334.7845124716553	83	127
334.1692063492064	334.7845124716553	71	127
334.1692063492064	334.7845124716553	59	127
334.7845124716553	335.2024716553288	74	127
334.7845124716553	335.2024716553288	62	127
334.7845124716553	335.2024716553288	50	127
335.2953741496599	335.875873015873	81	127
335.2953741496599	335.875873015873	69	127
335.2953741496599	335.875873015873	57	127
335.875873015873	336.9207709750567	78	127
335.875873015873	336.9207709750567	74	127
335.875873015873	336.9207709750567	69	127
337.06009070294783	338.1514285714286	62	127
337.06009070294783	338.4300680272109	74	127
337.06009070294783	338.81319727891156	62	127
338.25591836734696	338.81319727891156	50	127
338.522947845805	338.81319727891156	71	127
338.81319727891156	339.0570068027211	73	127
338.81319727891156	339.6839455782313	64	127
338.81319727891156	339.6839455782313	45	127
339.0570068027211	339.1963265306122	74	127
339.1963265306122	339.31242630385486	73	127
339.31242630385486	339.5562358276644	71	127
339.5562358276644	339.846485260771	73	127
339.846485260771	340.8217006802721	74	127
340.6475736961451	341.1932426303855	62	127
340.6475736961451	341.1932426303855	50	127
340.92619047619047	341.1932426303855	71	127
341.1932426303855	341.5183219954649	73	127
341.1932426303855	342.2381405895692	64	127
341.1932426303855	342.2381405895692	45	127
341.5183219954649	341.657641723356	74	127
341.657641723356	341.79696145124717	73	127
341.79696145124717	342.098820861678	71	127
342.098820861678	342.5051700680272	73	127
342.5167800453515	343.25981859410433	74	127
343.02761904761905	343.6313378684807	62	127
343.02761904761905	343.6313378684807	50	127
343.35269841269843	343.61972789115646	66	127
343.6313378684807	343.9215873015873	67	127
343.6313378684807	344.62979591836734	61	127
343.6313378684807	344.62979591836734	51	127
343.9215873015873	344.084126984127	69	127
344.084126984127	344.20020408163265	67	127
344.20020408163265	344.4672562358277	66	127
344.4672562358277	344.75750566893424	67	127
344.7691156462585	345.3031746031746	66	127
345.3960544217687	346.1507029478458	50	127
345.7211337868481	346.1507029478458	54	127
346.1507029478458	346.56866213151926	55	127
346.1507029478458	347.36972789115646	61	127
346.1507029478458	347.36972789115646	51	127
346.56866213151926	346.76603174603173	57	127
346.76603174603173	346.89374149659864	55	127
346.89374149659864	347.17238095238093	54	127
347.17238095238093	347.4974603174603	55	127
347.4974603174603	347.8225396825397	50	127
347.4974603174603	348.8209977324263	62	127
347.4974603174603	351.29392290249433	54	127
347.8225396825397	347.96185941043086	51	127
347.96185941043086	348.0895691609977	50	127
348.0895691609977	348.4146485260771	49	127
348.4146485260771	349.25056689342404	50	127
348.8209977324263	351.29392290249433	60	127
349.25056689342404	349.7614058956916	51	127
349.7614058956916	350.2141950113379	49	127
350.2141950113379	351.28231292517006	50	127
351.29392290249433	352.2575510204082	58	127
351.29392290249433	352.2575510204082	55	127
351.29392290249433	352.2575510204082	43	127
361.12757369614513	361.7312925170068	57	127
361.7312925170068	362.3350113378685	65	127
362.3350113378685	362.8342403628118	61	127
362.8342403628118	363.2638095238095	62	127
363.34507936507936	363.8210657596372	60	127
363.8210657596372	364.343514739229	55	127
364.343514739229	364.98208616780045	58	127
364.98208616780045	365.42326530612246	57	127
365.51614512471656	366.0966439909297	65	127
366.0966439909297	366.65392290249434	60	127
366.65392290249434	367.1995691609977	63	127
367.1995691609977	367.8497505668934	62	127
367.93102040816325	368.4302267573696	79	127
367.93102040816325	368.4302267573696	67	127
368.4302267573696	368.9294784580499	74	127
368.4302267573696	368.9294784580499	62	127
368.4302267573696	368.9294784580499	62	127
368.9294784580499	369.4403174603175	77	127
368.9294784580499	369.4403174603175	60	127
368.9294784580499	369.4403174603175	65	127
369.4403174603175	369.9279365079365	75	127
369.4403174603175	369.9279365079365	58	127
369.4403174603175	369.9279365079365	63	127
370.0904761904762	370.5897052154195	74	127
370.0904761904762	370.5897052154195	57	127
370.0904761904762	370.5897052154195	62	127
370.6709523809524	370.7522448979592	70	127
370.6709523809524	371.2979138321995	58	127
370.6709523809524	371.890022675737	55	127
370.7522448979592	370.83351473922903	72	127
370.83351473922903	370.94961451247167	70	127
370.94961451247167	371.18179138321995	69	127
371.18179138321995	371.2979138321995	70	127
371.2979138321995	371.890022675737	72	127
371.2979138321995	371.890022675737	60	127
371.890022675737	372.3892517006803	69	127
371.890022675737	372.3892517006803	54	127
371.890022675737	372.3892517006803	57	127
372.4705215419501	372.90009070294786	67	127
372.4705215419501	372.90009070294786	55	127
372.4705215419501	372.90009070294786	55	127
374.7925170068027	375.0479365079365	48	127
374.7925170068027	375.0479365079365	60	127
375.0595464852608	375.6516553287982	48	127
375.0595464852608	375.6516553287982	60	127
375.66326530612247	376.2089342403628	48	127
375.66326530612247	376.2089342403628	60	127
375.90707482993196	376.9984126984127	41	127
376.22054421768706	376.73138321995464	48	127
376.22054421768706	376.73138321995464	60	127
376.7429931972789	377.3699319727891	48	127
376.7429931972789	377.3699319727891	60	127
376.9984126984127	377.5324716553288	36	127
377.3815419501134	377.89238095238096	48	127
377.3815419501134	377.89238095238096	60	127
377.90399092970523	378.43804988662134	48	127
377.90399092970523	378.43804988662134	60	127
378.17102040816326	379.21591836734694	36	127
378.4496371882086	378.9721088435374	48	127
378.4496371882086	378.9721088435374	60	127
378.98371882086167	379.49455782312924	48	127
378.98371882086167	379.49455782312924	60	127
379.21591836734694	379.68031746031744	41	127
379.5061678004535	379.9589569160998	48	127
379.5061678004535	379.9589569160998	60	127
379.97056689342406	380.44657596371883	48	127
379.97056689342406	380.44657596371883	60	127
380.21437641723355	380.4581859410431	41	127
380.4581859410431	380.7948752834467	43	127
380.4581859410431	381.07351473922904	48	127
380.4581859410431	381.07351473922904	60	127
380.7948752834467	381.0851247165533	43	127
381.0851247165533	381.31732426303853	44	127
381.0851247165533	381.5611337868481	48	127
381.0851247165533	381.5611337868481	60	127
381.31732426303853	381.75850340136054	41	127
381.57274376417234	382.0951927437642	48	127
381.57274376417234	382.0951927437642	60	127
382.0951927437642	382.5595918367347	48	127
382.0951927437642	382.5595918367347	60	127
382.3390022675737	382.5595918367347	41	127
382.5595918367347	382.79179138321996	43	127
382.5595918367347	383.10526077097506	48	127
382.5595918367347	383.10526077097506	60	127
382.79179138321996	383.10526077097506	43	127
383.10526077097506	383.34907029478455	44	127
383.10526077097506	383.60448979591837	48	127
383.10526077097506	383.60448979591837	60	127
383.34907029478455	383.8250793650794	42	127
383.60448979591837	384.161768707483	48	127
383.60448979591837	384.161768707483	60	127
384.161768707483	384.6261678004535	48	127
384.161768707483	384.6261678004535	60	127
384.3707482993197	384.6261678004535	42	127
384.6261678004535	384.86997732426306	43	127
384.6261678004535	385.1370068027211	48	127
384.6261678004535	385.1370068027211	60	127
384.8815873015873	385.1370068027211	43	127
385.1370068027211	385.4156462585034	45	127
385.1370068027211	385.69428571428574	48	127
385.1370068027211	385.69428571428574	60	127
385.4388662131519	385.88004535147394	42	127
385.69428571428574	386.2167346938775	48	127
385.69428571428574	386.2167346938775	60	127
386.2167346938775	386.7275736961451	48	127
386.2167346938775	386.7275736961451	60	127
386.4605442176871	386.7275736961451	42	127
386.7275736961451	387.25002267573694	48	127
386.7275736961451	387.0178231292517	43	127
386.7275736961451	387.25002267573694	60	127
387.02943310657594	387.25002267573694	43	127
387.25002267573694	387.47061224489795	60	127
387.25002267573694	387.47061224489795	48	127
387.25002267573694	387.47061224489795	45	127
387.4822222222222	388.0743310657596	43	127
387.4822222222222	388.0743310657596	60	127
387.4822222222222	388.0743310657596	48	127
394.08829931972787	394.16956916099775	60	127
394.08829931972787	394.16956916099775	48	127
394.16956916099775	394.2856689342404	47	127
394.16956916099775	394.2856689342404	59	127
394.2856689342404	394.41337868480724	60	127
394.2856689342404	394.41337868480724	48	127
394.41337868480724	394.5178684807256	45	127
394.41337868480724	394.5178684807256	57	127
394.5294784580499	394.63396825396825	60	127
394.5294784580499	394.63396825396825	48	127
394.63396825396825	394.7500680272109	59	127
394.63396825396825	394.7500680272109	47	127
394.7500680272109	394.8777777777778	60	127
394.7500680272109	394.8777777777778	48	127
394.8777777777778	394.98226757369616	45	127
394.8777777777778	394.98226757369616	57	127
394.99387755102043	395.08675736961453	60	127
394.99387755102043	395.08675736961453	48	127
395.08675736961453	395.17963718820863	59	127
395.08675736961453	395.17963718820863	47	127
395.17963718820863	395.29573696145127	60	127
395.17963718820863	395.29573696145127	48	127
395.29573696145127	395.40022675736964	45	127
395.29573696145127	395.40022675736964	57	127
395.41183673469385	395.5163265306122	60	127
395.41183673469385	395.5163265306122	48	127
395.5163265306122	395.63242630385486	59	127
395.5163265306122	395.63242630385486	47	127
395.63242630385486	395.77174603174603	60	127
395.63242630385486	395.77174603174603	48	127
395.77174603174603	395.8762358276644	45	127
395.77174603174603	395.8762358276644	57	127
395.8878458049887	397.84993197278914	63	127
395.8878458049887	396.0271655328798	69	127
395.8878458049887	397.7338321995465	60	127
396.0271655328798	396.1548752834467	68	127
396.1548752834467	396.2825850340136	69	127
396.2825850340136	396.39868480725625	66	127
396.4219047619048	396.53800453514737	69	127
396.53800453514737	396.65410430839	68	127
396.65410430839	396.7818140589569	69	127
396.7818140589569	396.8863038548753	66	127
396.89791383219955	397.0140136054422	69	127
397.0140136054422	397.1301133786848	68	127
397.1301133786848	397.2578231292517	69	127
397.2578231292517	397.36231292517004	66	127
397.3739229024943	397.49002267573695	69	127
397.49002267573695	397.6061224489796	68	127
397.6061224489796	397.7338321995465	69	127
397.7338321995465	397.83832199546487	66	127
397.84993197278914	398.08213151927436	60	127
397.84993197278914	398.3259410430839	66	127
397.84993197278914	398.24467120181407	38	127
397.84993197278914	398.3259410430839	72	127
397.84993197278914	398.08213151927436	63	127
397.9660317460318	398.3259410430839	75	127
397.9660317460318	398.3259410430839	81	127
401.57673469387754	401.66961451247164	53	127
401.57673469387754	401.66961451247164	65	127
401.66961451247164	401.76249433106574	64	127
401.66961451247164	401.76249433106574	52	127
401.76249433106574	401.8669841269841	65	127
401.76249433106574	401.8669841269841	53	127
401.8669841269841	401.98308390022675	62	127
401.8669841269841	401.98308390022675	50	127
401.994693877551	402.11079365079365	65	127
401.994693877551	402.11079365079365	53	127
402.11079365079365	402.2268934240363	52	127
402.11079365079365	402.2268934240363	64	127
402.2268934240363	402.3197732426304	65	127
402.2268934240363	402.3197732426304	53	127
402.3197732426304	402.42426303854876	62	127
402.3197732426304	402.42426303854876	50	127
402.435873015873	402.5403628117914	65	127
402.435873015873	402.5403628117914	53	127
402.5403628117914	402.65646258503403	64	127
402.5403628117914	402.65646258503403	52	127
402.65646258503403	402.74934240362813	65	127
402.65646258503403	402.74934240362813	53	127
402.74934240362813	402.8538321995465	62	127
402.74934240362813	402.8538321995465	50	127
402.8538321995465	402.96993197278914	65	127
402.8538321995465	402.96993197278914	53	127
402.96993197278914	403.0744217687075	52	127
402.96993197278914	403.0744217687075	64	127
403.0744217687075	403.1905215419501	65	127
403.0744217687075	403.1905215419501	53	127
403.1905215419501	403.30662131519273	62	127
403.1905215419501	403.30662131519273	50	127
403.318231292517	403.42272108843537	74	127
403.318231292517	405.05972789115646	71	127
403.318231292517	405.05972789115646	56	127
403.318231292517	405.05972789115646	62	127
403.42272108843537	403.52721088435374	73	127
403.52721088435374	403.6317006802721	74	127
403.6317006802721	403.74780045351474	71	127
403.759410430839	403.87551020408165	74	127
403.87551020408165	403.9916099773243	73	127
403.9916099773243	404.10770975056687	74	127
404.10770975056687	404.2238095238095	71	127
404.2354195011338	404.3515192743764	74	127
404.3515192743764	404.46761904761905	73	127
404.46761904761905	404.5837188208617	74	127
404.5837188208617	404.69981859410433	71	127
404.7114285714286	404.8275283446712	74	127
404.8275283446712	404.9436281179138	73	127
404.9436281179138	405.05972789115646	74	127
405.05972789115646	405.1758276643991	71	127
405.18743764172336	405.6402267573696	71	127
405.18743764172336	405.6402267573696	68	127
405.18743764172336	405.57056689342403	40	127
405.18743764172336	405.41963718820864	62	127
405.18743764172336	405.41963718820864	59	127
405.303537414966	405.6402267573696	74	127
405.303537414966	405.6402267573696	80	127
409.33219954648524	409.7269387755102	69	127
409.33219954648524	409.4482993197279	64	127
409.33219954648524	409.7269387755102	64	127
409.33219954648524	409.4482993197279	76	127
409.4482993197279	409.5643990929705	63	127
409.4482993197279	409.5643990929705	75	127
409.5643990929705	409.68049886621316	64	127
409.5643990929705	409.68049886621316	76	127
409.6921088435374	409.80820861678006	57	127
409.6921088435374	409.80820861678006	69	127
410.2958276643991	410.4351473922903	76	127
410.2958276643991	410.4351473922903	64	127
410.2958276643991	410.7021768707483	64	127
410.2958276643991	410.7021768707483	69	127
410.4351473922903	410.55124716553286	63	127
410.4351473922903	410.55124716553286	75	127
410.55124716553286	410.6673469387755	64	127
410.55124716553286	410.6673469387755	76	127
410.67895691609976	410.78344671201813	57	127
410.67895691609976	410.78344671201813	69	127
411.2362358276644	411.6774149659864	69	127
411.2362358276644	411.6774149659864	66	127
411.2362358276644	411.3987755102041	78	127
411.2362358276644	411.3987755102041	66	127
411.3987755102041	411.5148752834467	65	127
411.3987755102041	411.5148752834467	77	127
411.5148752834467	411.63097505668935	78	127
411.5148752834467	411.63097505668935	66	127
411.6425850340136	411.75868480725626	69	127
411.6425850340136	411.75868480725626	57	127
412.2114739229025	412.31596371882085	68	127
412.2114739229025	412.31596371882085	56	127
412.2114739229025	412.54816326530613	59	127
412.2114739229025	412.54816326530613	68	127
412.31596371882085	412.3972335600907	67	127
412.31596371882085	412.3972335600907	55	127
412.40884353741495	412.50172335600905	56	127
412.40884353741495	412.50172335600905	68	127
412.5133333333333	412.62943310657596	71	127
412.5133333333333	412.62943310657596	59	127
413.117052154195	413.23315192743763	74	127
413.117052154195	413.51179138321993	62	127
413.117052154195	413.51179138321993	67	127
413.117052154195	413.23315192743763	62	127
413.23315192743763	413.34925170068027	61	127
413.23315192743763	413.34925170068027	73	127
413.36086167800454	413.4653514739229	74	127
413.36086167800454	413.4653514739229	62	127
413.4769614512472	413.5930612244898	67	127
413.4769614512472	413.5930612244898	55	127
414.0690702947846	414.45219954648525	62	127
414.0690702947846	414.45219954648525	67	127
414.0690702947846	414.1851700680272	74	127
414.0690702947846	414.1851700680272	62	127
414.1851700680272	414.2896598639456	73	127
414.1851700680272	414.2896598639456	61	127
414.30126984126986	414.4057596371882	74	127
414.30126984126986	414.4057596371882	62	127
414.4173696145125	414.5334693877551	67	127
414.4173696145125	414.5334693877551	55	127
415.0094784580499	415.11396825396827	76	127
415.0094784580499	415.11396825396827	64	127
415.0094784580499	415.3809977324263	64	127
415.0094784580499	415.3809977324263	67	127
415.11396825396827	415.21845804988664	63	127
415.11396825396827	415.21845804988664	75	127
415.2300680272109	415.3345578231293	64	127
415.2300680272109	415.3345578231293	76	127
415.34616780045354	415.4622675736961	55	127
415.34616780045354	415.4622675736961	67	127
415.90344671201814	416.27496598639453	66	127
415.90344671201814	416.0195464852608	54	127
415.90344671201814	416.27496598639453	57	127
415.90344671201814	416.0195464852608	66	127
416.0195464852608	416.1356462585034	53	127
416.0195464852608	416.1356462585034	65	127
416.1472562358277	416.2285260770975	66	127
416.1472562358277	416.2285260770975	54	127
416.2401360544218	416.3794557823129	69	127
416.2401360544218	416.3794557823129	57	127
416.8206349206349	416.93673469387755	65	127
416.8206349206349	417.2269841269841	57	127
416.8206349206349	417.2269841269841	65	127
416.8206349206349	416.93673469387755	77	127
416.93673469387755	417.06444444444446	76	127
416.93673469387755	417.06444444444446	64	127
417.07605442176873	417.1921541950113	77	127
417.07605442176873	417.1921541950113	65	127
417.1921541950113	417.30825396825395	62	127
417.1921541950113	417.30825396825395	74	127
417.30825396825395	417.6797732426304	56	127
417.30825396825395	417.6797732426304	59	127
417.30825396825395	417.6797732426304	59	127
417.30825396825395	417.6797732426304	71	127
417.7726530612245	417.88875283446714	47	127
417.7726530612245	417.88875283446714	59	127
417.88875283446714	418.0048526077097	58	127
417.88875283446714	418.0048526077097	46	127
418.016462585034	418.12095238095236	59	127
418.016462585034	418.12095238095236	47	127
418.12095238095236	418.22544217687073	59	127
418.12095238095236	418.22544217687073	47	127
418.22544217687073	418.678231292517	62	127
418.22544217687073	418.5969614512472	50	127
418.678231292517	419.1774603174603	57	127
418.678231292517	418.8059410430839	65	127
418.678231292517	418.93365079365077	50	127
418.678231292517	418.8059410430839	77	127
418.8059410430839	418.93365079365077	64	127
418.8059410430839	419.1774603174603	65	127
418.8059410430839	418.93365079365077	76	127
418.94526077097504	419.0497505668934	77	127
418.94526077097504	419.0497505668934	65	127
419.0497505668934	419.1774603174603	62	127
419.0497505668934	419.1774603174603	74	127
419.1774603174603	419.5838095238095	59	127
419.1774603174603	419.5838095238095	71	127
419.1774603174603	419.5838095238095	56	127
419.1774603174603	419.5838095238095	59	127
419.6534693877551	419.79278911564626	47	127
419.6534693877551	419.79278911564626	59	127
419.8160090702948	419.9088888888889	46	127
419.8160090702948	419.9088888888889	58	127
419.92049886621317	420.0365986394558	47	127
419.92049886621317	420.0365986394558	59	127
420.0365986394558	420.1526984126984	47	127
420.0365986394558	420.1526984126984	59	127
420.1526984126984	420.5358276643991	50	127
420.1526984126984	420.6287074829932	62	127
420.6287074829932	420.74480725623584	81	127
420.6287074829932	420.8492970521542	50	127
420.6287074829932	420.8492970521542	69	127
420.6287074829932	421.0931065759637	57	127
420.7564172335601	421.0931065759637	65	127
420.7564172335601	420.8492970521542	80	127
420.8609070294785	420.97700680272106	81	127
420.8609070294785	421.0931065759637	65	127
420.97700680272106	421.0931065759637	77	127
421.0931065759637	421.325306122449	62	127
421.0931065759637	421.20920634920634	74	127
421.2208163265306	421.325306122449	73	127
421.33691609977325	421.4530158730159	74	127
421.33691609977325	421.55750566893425	57	127
421.4530158730159	421.55750566893425	69	127
421.55750566893425	421.7897052154195	53	127
421.55750566893425	421.6736054421769	65	127
421.68521541950116	421.7897052154195	64	127
421.80131519274374	421.92902494331065	65	127
421.80131519274374	422.0451247165533	50	127
421.92902494331065	422.0451247165533	62	127
422.0451247165533	422.4514739229025	56	127
422.0451247165533	422.4514739229025	52	127
422.0451247165533	422.25410430839	47	127
422.0451247165533	422.1380045351474	59	127
422.14961451247166	422.25410430839	58	127
422.2657142857143	422.4050340136054	59	127
422.2657142857143	422.52113378684805	40	127
422.4050340136054	422.52113378684805	56	127
423.9491609977324	424.4367800453515	52	127
424.4367800453515	424.91278911564626	60	127
424.91278911564626	425.4004081632653	56	127
425.4004081632653	425.88802721088433	57	127
425.9692970521542	426.45691609977325	64	127
426.45691609977325	426.9793650793651	72	127
426.9793650793651	427.4785941043084	68	127
427.4785941043084	427.87333333333333	69	127
427.9429931972789	428.40739229024945	55	127
428.40739229024945	428.918231292517	50	127
428.918231292517	429.40585034013606	53	127
429.40585034013606	429.84702947845807	52	127
429.9282993197279	430.4275283446712	67	127
430.4275283446712	430.9383673469388	62	127
430.9383673469388	431.4259863945578	65	127
431.4259863945578	431.832335600907	64	127
431.9252154195011	432.4244444444444	62	127
432.4244444444444	432.9120634920635	57	127
432.9120634920635	433.44612244897957	60	127
433.44612244897957	433.817641723356	59	127
433.9221315192744	434.3865306122449	74	127
434.3865306122449	434.8857596371882	69	127
434.8857596371882	435.3733786848073	72	127
435.3733786848073	435.80294784580497	71	127
435.8958276643991	436.3950566893424	68	127
435.8958276643991	436.3950566893424	64	127
436.3950566893424	437.38190476190476	66	127
436.3950566893424	437.38190476190476	59	127
437.38190476190476	437.78825396825397	64	127
437.38190476190476	437.78825396825397	56	127
437.8695238095238	438.3803628117914	52	127
437.8695238095238	438.3803628117914	56	127
438.3803628117914	439.36721088435377	47	127
438.3803628117914	439.36721088435377	54	127
439.36721088435377	439.7619501133787	52	127
439.36721088435377	439.7619501133787	44	127
439.84321995464853	440.3192290249433	71	127
439.84321995464853	440.3192290249433	62	127
439.84321995464853	440.3192290249433	40	127
440.3192290249433	441.3292970521542	69	127
440.3192290249433	441.3292970521542	60	127
440.3192290249433	441.3292970521542	52	127
441.3292970521542	441.805306122449	68	127
441.3292970521542	441.805306122449	59	127
441.3292970521542	441.805306122449	64	127
441.8865759637188	442.5483446712018	52	127
441.8865759637188	442.18843537414966	76	127
441.8865759637188	442.18843537414966	72	127
442.18843537414966	442.31614512471657	72	127
442.18843537414966	442.31614512471657	76	127
442.31614512471657	442.42063492063494	76	127
442.31614512471657	442.42063492063494	72	127
442.4322448979592	442.5483446712018	72	127
442.4322448979592	442.5483446712018	76	127
442.5483446712018	442.6760544217687	76	127
442.5483446712018	443.14045351473925	60	127
442.5483446712018	442.6760544217687	72	127
442.6760544217687	442.79215419501134	72	127
442.6760544217687	442.79215419501134	76	127
442.79215419501134	443.0011337868481	76	127
442.79215419501134	443.0011337868481	72	127
443.01274376417234	443.14045351473925	72	127
443.01274376417234	443.14045351473925	76	127
443.14045351473925	443.2681632653061	71	127
443.14045351473925	443.2681632653061	74	127
443.14045351473925	443.63968253968255	56	127
443.2681632653061	443.38426303854874	71	127
443.2681632653061	443.38426303854874	74	127
443.395873015873	443.5003628117914	71	127
443.395873015873	443.5003628117914	74	127
443.51197278911565	443.63968253968255	74	127
443.51197278911565	443.63968253968255	71	127
443.63968253968255	443.7557823129252	69	127
443.63968253968255	443.7557823129252	72	127
443.63968253968255	444.0692517006803	57	127
443.7557823129252	443.8718820861678	69	127
443.7557823129252	443.8718820861678	72	127
443.8951020408163	444.0228117913832	72	127
443.8951020408163	444.0228117913832	69	127
444.0344217687075	444.26662131519276	69	127
444.0344217687075	444.26662131519276	72	127
444.26662131519276	444.38272108843535	72	127
444.26662131519276	444.38272108843535	76	127
444.38272108843535	444.498820861678	76	127
444.38272108843535	444.498820861678	72	127
444.51043083900225	444.63814058956916	76	127
444.51043083900225	444.63814058956916	72	127
444.64975056689343	444.76585034013607	72	127
444.64975056689343	444.76585034013607	76	127
444.76585034013607	444.8819501133787	76	127
444.76585034013607	444.8819501133787	72	127
444.8819501133787	444.9980498866213	76	127
444.8819501133787	444.9980498866213	72	127
445.00965986394556	445.1141496598639	76	127
445.00965986394556	445.1141496598639	72	127
445.1257596371882	445.24185941043083	72	127
445.1257596371882	445.24185941043083	76	127
445.24185941043083	445.36956916099774	74	127
445.24185941043083	445.36956916099774	71	127
445.36956916099774	445.4856689342404	74	127
445.36956916099774	445.4856689342404	71	127
445.49727891156465	445.601768707483	71	127
445.49727891156465	445.601768707483	74	127
445.61337868480723	445.72947845804987	74	127
445.61337868480723	445.72947845804987	71	127
445.72947845804987	445.86879818594105	72	127
445.72947845804987	445.86879818594105	69	127
445.86879818594105	445.96167800453514	72	127
445.86879818594105	445.96167800453514	69	127
445.9732879818594	446.0777777777778	72	127
445.9732879818594	446.0777777777778	69	127
446.08938775510205	446.21709750566896	72	127
446.08938775510205	446.21709750566896	69	127
446.21709750566896	446.33319727891154	65	127
446.21709750566896	446.33319727891154	69	127
446.21709750566896	446.33319727891154	72	127
446.33319727891154	446.4492970521542	65	127
446.33319727891154	446.4492970521542	69	127
446.33319727891154	446.4492970521542	72	127
446.46090702947845	446.58861678004536	65	127
446.46090702947845	446.58861678004536	72	127
446.46090702947845	446.58861678004536	69	127
446.6002267573696	446.71632653061226	69	127
446.6002267573696	446.71632653061226	65	127
446.6002267573696	446.71632653061226	72	127
446.71632653061226	446.8440362811791	65	127
446.71632653061226	446.8440362811791	69	127
446.71632653061226	446.8440362811791	72	127
446.8440362811791	446.971746031746	65	127
446.8440362811791	446.971746031746	69	127
446.8440362811791	446.971746031746	72	127
446.9833560090703	447.09945578231293	65	127
446.9833560090703	447.09945578231293	72	127
446.9833560090703	447.09945578231293	69	127
447.1110657596372	447.22716553287984	72	127
447.1110657596372	447.22716553287984	69	127
447.1110657596372	447.22716553287984	65	127
447.22716553287984	447.3548752834467	69	127
447.22716553287984	447.3548752834467	72	127
447.22716553287984	447.3548752834467	57	127
447.3548752834467	447.4709750566893	72	127
447.3548752834467	447.4709750566893	57	127
447.3548752834467	447.4709750566893	69	127
447.4825850340136	447.58707482993196	72	127
447.4825850340136	447.58707482993196	57	127
447.4825850340136	447.58707482993196	69	127
447.59868480725623	447.72639455782314	69	127
447.59868480725623	447.72639455782314	72	127
447.59868480725623	447.72639455782314	57	127
447.72639455782314	447.8424943310658	72	127
447.72639455782314	447.8424943310658	57	127
447.72639455782314	447.8424943310658	69	127
447.8424943310658	447.97020408163263	72	127
447.8424943310658	447.97020408163263	57	127
447.8424943310658	447.97020408163263	69	127
447.9818140589569	448.08630385487527	57	127
447.9818140589569	448.08630385487527	72	127
447.9818140589569	448.08630385487527	69	127
448.1095238095238	448.27206349206347	69	127
448.1095238095238	448.27206349206347	57	127
448.1095238095238	448.27206349206347	72	127
448.27206349206347	448.3881632653061	69	127
448.27206349206347	448.3881632653061	72	127
448.27206349206347	448.3881632653061	57	127
448.3881632653061	448.50426303854874	72	127
448.3881632653061	448.50426303854874	57	127
448.3881632653061	448.50426303854874	69	127
448.515873015873	448.6203628117914	57	127
448.515873015873	448.6203628117914	72	127
448.515873015873	448.6203628117914	69	127
448.63197278911565	448.7480725623583	69	127
448.63197278911565	448.7480725623583	72	127
448.63197278911565	448.7480725623583	57	127
448.7480725623583	448.8641723356009	84	127
448.7480725623583	448.8641723356009	72	127
448.7480725623583	448.8641723356009	69	127
448.8641723356009	448.98027210884356	84	127
448.8641723356009	448.98027210884356	72	127
448.8641723356009	448.98027210884356	69	127
448.9918820861678	449.1079818594104	72	127
448.9918820861678	449.1079818594104	69	127
448.9918820861678	449.1079818594104	84	127
449.1079818594104	449.22408163265305	69	127
449.1079818594104	449.22408163265305	72	127
449.1079818594104	449.22408163265305	84	127
449.22408163265305	449.3401814058957	70	127
449.22408163265305	449.3401814058957	67	127
449.22408163265305	449.3401814058957	82	127
449.3401814058957	449.45628117913833	70	127
449.3401814058957	449.45628117913833	67	127
449.3401814058957	449.45628117913833	82	127
449.45628117913833	449.58399092970524	67	127
449.45628117913833	449.58399092970524	70	127
449.45628117913833	449.58399092970524	82	127
449.58399092970524	449.7000907029478	82	127
449.58399092970524	449.7000907029478	70	127
449.58399092970524	449.7000907029478	67	127
449.7000907029478	449.8045804988662	83	127
449.7000907029478	449.8045804988662	68	127
449.7000907029478	449.8045804988662	71	127
449.8045804988662	449.9206802721088	83	127
449.8045804988662	449.9206802721088	68	127
449.8045804988662	449.9206802721088	71	127
449.9322902494331	450.06	71	127
449.9322902494331	450.06	68	127
449.9322902494331	450.06	83	127
450.06	450.1877097505669	68	127
450.06	450.1877097505669	71	127
450.06	450.1877097505669	83	127
450.1877097505669	450.30380952380955	70	127
450.1877097505669	450.30380952380955	58	127
450.1877097505669	450.30380952380955	67	127
450.30380952380955	450.41990929705213	70	127
450.30380952380955	450.41990929705213	58	127
450.30380952380955	450.41990929705213	67	127
450.4315192743764	450.54761904761904	58	127
450.4315192743764	450.54761904761904	67	127
450.4315192743764	450.54761904761904	70	127
450.54761904761904	450.6521088435374	70	127
450.54761904761904	450.6521088435374	67	127
450.54761904761904	450.6521088435374	58	127
450.6521088435374	450.7565986394558	70	127
450.6521088435374	450.7565986394558	67	127
450.6521088435374	450.7565986394558	82	127
450.7565986394558	450.8494784580499	67	127
450.7565986394558	450.8494784580499	70	127
450.7565986394558	450.8494784580499	82	127
450.86108843537414	450.9771882086168	82	127
450.86108843537414	450.9771882086168	70	127
450.86108843537414	450.9771882086168	67	127
450.9771882086168	451.08167800453515	82	127
450.9771882086168	451.08167800453515	70	127
450.9771882086168	451.08167800453515	67	127
451.08167800453515	451.1977777777778	68	127
451.08167800453515	451.1977777777778	64	127
451.08167800453515	451.1977777777778	80	127
451.1977777777778	451.30226757369616	68	127
451.1977777777778	451.30226757369616	80	127
451.1977777777778	451.30226757369616	64	127
451.3138775510204	451.42997732426306	80	127
451.3138775510204	451.42997732426306	64	127
451.3138775510204	451.42997732426306	68	127
451.42997732426306	451.5576870748299	80	127
451.42997732426306	451.5576870748299	68	127
451.42997732426306	451.5576870748299	64	127
451.5576870748299	451.70861678004536	65	127
451.5576870748299	451.70861678004536	69	127
451.5576870748299	451.70861678004536	81	127
451.72022675736963	451.83632653061227	81	127
451.72022675736963	451.83632653061227	69	127
451.72022675736963	451.83632653061227	65	127
451.8479365079365	451.9756462585034	69	127
451.8479365079365	451.9756462585034	81	127
451.8479365079365	451.9756462585034	65	127
451.9756462585034	452.1033560090703	69	127
451.9756462585034	452.1033560090703	65	127
451.9756462585034	452.1033560090703	81	127
452.1033560090703	452.21945578231293	69	127
452.1033560090703	452.21945578231293	57	127
452.1033560090703	452.21945578231293	63	127
452.2310657596372	452.3355555555556	63	127
452.2310657596372	452.3355555555556	69	127
452.2310657596372	452.3355555555556	57	127
452.34716553287984	452.4632653061224	57	127
452.34716553287984	452.4632653061224	69	127
452.34716553287984	452.4632653061224	63	127
452.4632653061224	452.57936507936506	63	127
452.4632653061224	452.57936507936506	57	127
452.4632653061224	452.57936507936506	69	127
452.57936507936506	452.70707482993197	64	127
452.57936507936506	452.70707482993197	81	127
452.57936507936506	452.70707482993197	69	127
452.71868480725624	452.8231746031746	81	127
452.71868480725624	452.8231746031746	69	127
452.71868480725624	452.8231746031746	64	127
452.8347845804989	452.9508843537415	69	127
452.8347845804989	452.9508843537415	81	127
452.8347845804989	452.9508843537415	64	127
452.9508843537415	453.06698412698415	81	127
452.9508843537415	453.06698412698415	69	127
452.9508843537415	453.06698412698415	64	127
453.06698412698415	453.1714739229025	64	127
453.06698412698415	453.1714739229025	76	127
453.06698412698415	453.1714739229025	57	127
453.18308390022673	453.3224036281179	57	127
453.18308390022673	453.3224036281179	76	127
453.18308390022673	453.3224036281179	64	127
453.34562358276645	453.4617233560091	64	127
453.34562358276645	453.4617233560091	76	127
453.34562358276645	453.4617233560091	57	127
453.4617233560091	453.5778231292517	64	127
453.4617233560091	453.5778231292517	76	127
453.4617233560091	453.5778231292517	57	127
453.5778231292517	453.6823129251701	69	127
453.5778231292517	453.6823129251701	77	127
453.5778231292517	453.6823129251701	65	127
453.6939229024943	453.7984126984127	69	127
453.6939229024943	453.7984126984127	65	127
453.6939229024943	453.7984126984127	77	127
453.81002267573695	453.9261224489796	65	127
453.81002267573695	453.9261224489796	69	127
453.81002267573695	453.9261224489796	77	127
453.9261224489796	454.0422222222222	65	127
453.9261224489796	454.0422222222222	69	127
453.9261224489796	454.0422222222222	77	127
454.0422222222222	454.15832199546486	58	127
454.0422222222222	454.15832199546486	70	127
454.0422222222222	454.15832199546486	64	127
454.16993197278913	454.2744217687075	70	127
454.16993197278913	454.2744217687075	58	127
454.16993197278913	454.2744217687075	64	127
454.28603174603177	454.39052154195014	58	127
454.28603174603177	454.39052154195014	70	127
454.28603174603177	454.39052154195014	64	127
454.39052154195014	454.4950113378685	70	127
454.39052154195014	454.4950113378685	58	127
454.39052154195014	454.4950113378685	64	127
454.4950113378685	454.5878911564626	65	127
454.4950113378685	454.5878911564626	82	127
454.4950113378685	454.5878911564626	70	127
454.5878911564626	454.692380952381	82	127
454.5878911564626	454.692380952381	65	127
454.5878911564626	454.692380952381	70	127
454.70399092970524	454.8317006802721	82	127
454.70399092970524	454.8317006802721	70	127
454.70399092970524	454.8317006802721	65	127
454.8317006802721	454.959410430839	82	127
454.8317006802721	454.959410430839	70	127
454.8317006802721	454.959410430839	65	127
454.959410430839	455.07551020408164	77	127
454.959410430839	455.07551020408164	65	127
454.959410430839	455.07551020408164	58	127
455.0871201814059	455.1916099773243	65	127
455.0871201814059	455.1916099773243	77	127
455.0871201814059	455.1916099773243	58	127
455.20321995464855	455.3309297052154	65	127
455.20321995464855	455.3309297052154	58	127
455.20321995464855	455.3309297052154	77	127
455.3309297052154	455.4586394557823	77	127
455.3309297052154	455.4586394557823	65	127
455.3309297052154	455.4586394557823	58	127
455.4586394557823	455.5979591836735	70	127
455.4586394557823	455.5979591836735	78	127
455.4586394557823	455.5979591836735	66	127
455.60956916099775	455.7140589569161	70	127
455.60956916099775	455.7140589569161	78	127
455.60956916099775	455.7140589569161	66	127
455.7256689342404	455.84176870748297	66	127
455.7256689342404	455.84176870748297	78	127
455.7256689342404	455.84176870748297	70	127
455.84176870748297	455.94625850340134	70	127
455.84176870748297	455.94625850340134	66	127
455.84176870748297	455.94625850340134	78	127
455.94625850340134	456.062358276644	71	127
455.94625850340134	456.062358276644	59	127
455.94625850340134	456.062358276644	65	127
456.07396825396825	456.1784580498866	71	127
456.07396825396825	456.1784580498866	59	127
456.07396825396825	456.1784580498866	65	127
456.1900680272109	456.3061678004535	59	127
456.1900680272109	456.3061678004535	65	127
456.1900680272109	456.3061678004535	71	127
456.3061678004535	456.42226757369616	65	127
456.3061678004535	456.42226757369616	59	127
456.3061678004535	456.42226757369616	71	127
456.42226757369616	456.5383673469388	66	127
456.42226757369616	456.5383673469388	71	127
456.42226757369616	456.5383673469388	83	127
456.549977324263	456.66607709750565	66	127
456.549977324263	456.66607709750565	71	127
456.549977324263	456.66607709750565	83	127
456.6776870748299	456.79378684807256	71	127
456.6776870748299	456.79378684807256	83	127
456.6776870748299	456.79378684807256	66	127
456.79378684807256	456.9098866213152	71	127
456.79378684807256	456.9098866213152	83	127
456.79378684807256	456.9098866213152	66	127
456.9098866213152	457.02598639455783	66	127
456.9098866213152	457.02598639455783	59	127
456.9098866213152	457.02598639455783	78	127
457.0375963718821	457.14208616780047	66	127
457.0375963718821	457.14208616780047	78	127
457.0375963718821	457.14208616780047	59	127
457.14208616780047	457.24657596371884	66	127
457.14208616780047	457.24657596371884	59	127
457.14208616780047	457.24657596371884	78	127
457.24657596371884	457.3626757369615	78	127
457.24657596371884	457.3626757369615	59	127
457.24657596371884	457.3626757369615	66	127
457.3626757369615	457.47877551020406	67	127
457.3626757369615	457.47877551020406	71	127
457.3626757369615	457.47877551020406	79	127
457.49038548752833	457.60648526077097	67	127
457.49038548752833	457.60648526077097	71	127
457.49038548752833	457.60648526077097	79	127
457.60648526077097	457.7225850340136	67	127
457.60648526077097	457.7225850340136	79	127
457.60648526077097	457.7225850340136	71	127
457.7225850340136	457.83868480725624	79	127
457.7225850340136	457.83868480725624	67	127
457.7225850340136	457.83868480725624	71	127
457.83868480725624	457.9547845804989	59	127
457.83868480725624	457.9547845804989	71	127
457.83868480725624	457.9547845804989	66	127
457.9547845804989	458.0708843537415	59	127
457.9547845804989	458.0708843537415	71	127
457.9547845804989	458.0708843537415	66	127
458.08249433106573	458.1869841269841	71	127
458.08249433106573	458.1869841269841	66	127
458.08249433106573	458.1869841269841	59	127
458.1869841269841	458.30308390022674	66	127
458.1869841269841	458.30308390022674	59	127
458.1869841269841	458.30308390022674	71	127
458.314693877551	458.4191836734694	67	127
458.314693877551	458.4191836734694	83	127
458.314693877551	458.4191836734694	71	127
458.4191836734694	458.5468934240363	67	127
458.4191836734694	458.5468934240363	71	127
458.4191836734694	458.5468934240363	83	127
458.5468934240363	458.6629931972789	71	127
458.5468934240363	458.6629931972789	83	127
458.5468934240363	458.6629931972789	67	127
458.6746031746032	458.79070294784583	67	127
458.6746031746032	458.79070294784583	71	127
458.6746031746032	458.79070294784583	83	127
458.79070294784583	458.9184126984127	78	127
458.79070294784583	458.9184126984127	66	127
458.79070294784583	458.9184126984127	59	127
458.9184126984127	459.0345124716553	66	127
458.9184126984127	459.0345124716553	78	127
458.9184126984127	459.0345124716553	59	127
459.0345124716553	459.1622222222222	66	127
459.0345124716553	459.1622222222222	59	127
459.0345124716553	459.1622222222222	78	127
459.1622222222222	459.27832199546486	59	127
459.1622222222222	459.27832199546486	78	127
459.1622222222222	459.27832199546486	66	127
459.27832199546486	459.4060317460318	71	127
459.27832199546486	459.4060317460318	79	127
459.27832199546486	459.4060317460318	67	127
459.4060317460318	459.5337414965986	71	127
459.4060317460318	459.5337414965986	79	127
459.4060317460318	459.5337414965986	67	127
459.5337414965986	459.66145124716553	67	127
459.5337414965986	459.66145124716553	79	127
459.5337414965986	459.66145124716553	71	127
459.66145124716553	459.78916099773244	71	127
459.66145124716553	459.78916099773244	79	127
459.66145124716553	459.78916099773244	67	127
459.8007709750567	460.2071201814059	47	127
459.8007709750567	460.2071201814059	59	127
459.8007709750567	460.2071201814059	83	127
460.3	460.7179591836735	91	127
460.3	460.7179591836735	55	127
460.3	460.7179591836735	67	127
460.8108390022676	461.22879818594106	51	127
460.8108390022676	461.22879818594106	87	127
460.8108390022676	461.22879818594106	63	127
461.3100680272109	461.73963718820863	64	127
461.3100680272109	461.73963718820863	88	127
461.3100680272109	461.73963718820863	52	127
461.8092970521542	462.2156462585034	60	127
461.8092970521542	462.2156462585034	72	127
461.8092970521542	462.2156462585034	84	127
462.2969160997732	462.5407256235828	55	127
462.2969160997732	462.5407256235828	67	127
462.2969160997732	462.5407256235828	79	127
462.5407256235828	462.77292517006805	52	127
462.5407256235828	462.77292517006805	64	127
462.5407256235828	462.77292517006805	76	127
462.78453514739226	463.33020408163264	72	127
462.78453514739226	463.33020408163264	48	127
462.78453514739226	463.33020408163264	60	127
463.4114739229025	463.82943310657595	59	127
463.4114739229025	463.82943310657595	71	127
463.4114739229025	463.82943310657595	47	127
463.9107029478458	464.3518820861678	58	127
463.9107029478458	464.3518820861678	46	127
463.9107029478458	465.14136054421766	70	127
464.4331519274376	465.0252607709751	55	127
464.4331519274376	465.0252607709751	55	127
464.4331519274376	465.0252607709751	64	127
465.14136054421766	465.6754195011338	54	127
465.14136054421766	465.6754195011338	47	127
465.14136054421766	465.6754195011338	71	127
465.14136054421766	465.6754195011338	63	127
465.14136054421766	465.6754195011338	54	127
465.7682993197279	466.27913832199545	59	127
465.7682993197279	466.27913832199545	71	127
466.27913832199545	466.8015873015873	81	127
466.27913832199545	466.8015873015873	47	127
466.27913832199545	466.8015873015873	69	127
466.8015873015873	467.2775963718821	57	127
466.8015873015873	467.2775963718821	63	127
466.8015873015873	467.2775963718821	75	127
467.2775963718821	467.73038548752834	51	127
467.2775963718821	467.67233560090705	66	127
467.2775963718821	467.67233560090705	78	127
467.73038548752834	468.2063945578231	71	127
467.73038548752834	468.113514739229	54	127
467.73038548752834	468.2063945578231	59	127
468.2063945578231	468.6824036281179	47	127
468.2063945578231	468.6824036281179	71	127
468.2063945578231	468.6824036281179	83	127
468.6824036281179	469.17002267573696	76	127
468.6824036281179	469.17002267573696	59	127
468.6824036281179	469.17002267573696	64	127
469.17002267573696	469.5531519274376	67	127
469.17002267573696	469.5531519274376	79	127
469.17002267573696	469.63442176870745	52	127
469.63442176870745	470.0407709750567	55	127
469.63442176870745	470.098820861678	60	127
469.63442176870745	470.098820861678	72	127
470.098820861678	470.5980498866213	84	127
470.098820861678	470.5980498866213	48	127
470.098820861678	470.5980498866213	72	127
470.5980498866213	471.0508390022676	64	127
470.5980498866213	471.0508390022676	60	127
470.5980498866213	471.0508390022676	76	127
471.0508390022676	471.4571882086168	67	127
471.0508390022676	471.4571882086168	79	127
471.0508390022676	471.53845804988663	52	127
471.53845804988663	471.89836734693876	55	127
471.53845804988663	471.9680272108844	61	127
471.53845804988663	471.9680272108844	73	127
471.9680272108844	472.44403628117914	73	127
471.9680272108844	472.44403628117914	85	127
471.9680272108844	472.44403628117914	49	127
472.44403628117914	472.8619954648526	61	127
472.44403628117914	472.8619954648526	64	127
472.44403628117914	472.8619954648526	76	127
472.8619954648526	473.22190476190474	79	127
472.8619954648526	473.22190476190474	67	127
472.8619954648526	473.3031746031746	52	127
473.3031746031746	473.6863038548753	55	127
473.3031746031746	473.7675736961451	61	127
473.3031746031746	473.7675736961451	73	127
473.7675736961451	474.2668027210884	49	127
473.7675736961451	474.1855328798186	85	127
473.7675736961451	474.1855328798186	73	127
474.2668027210884	474.75442176870746	64	127
474.2668027210884	474.75442176870746	76	127
474.2668027210884	474.66154195011336	61	127
474.75442176870746	475.07950113378683	76	127
474.75442176870746	475.07950113378683	88	127
474.75442176870746	475.17238095238093	46	127
475.17238095238093	475.5322902494331	58	127
475.17238095238093	475.6251700680272	67	127
475.17238095238093	475.6251700680272	79	127
475.6251700680272	476.0431292517007	91	127
475.6251700680272	476.0431292517007	79	127
475.6251700680272	476.1243990929705	43	127
476.1243990929705	476.55396825396826	55	127
476.1243990929705	476.6352380952381	79	127
476.1243990929705	476.6352380952381	67	127
476.6352380952381	477.0880272108844	79	127
476.6352380952381	477.0880272108844	91	127
476.6352380952381	477.1809070294785	40	127
477.1809070294785	477.7033560090703	67	127
477.1809070294785	477.7033560090703	79	127
477.1809070294785	477.62208616780043	52	127
477.7033560090703	478.5508843537415	91	127
477.7033560090703	478.1097052154195	79	127
477.7033560090703	478.1097052154195	55	127
478.19097505668935	478.307074829932	79	127
478.19097505668935	478.6785941043084	67	127
478.31868480725626	478.43478458049884	79	127
478.4463945578231	478.5508843537415	79	127
478.5508843537415	478.6785941043084	79	127
478.6785941043084	478.78308390022676	76	127
478.6785941043084	479.10816326530613	64	127
478.794693877551	478.87596371882086	76	127
478.8875736961451	478.9920634920635	76	127
478.9920634920635	479.10816326530613	76	127
479.10816326530613	479.22426303854877	77	127
479.10816326530613	479.22426303854877	89	127
479.10816326530613	479.50290249433107	65	127
479.23587301587304	479.3519727891156	77	127
479.23587301587304	479.3519727891156	89	127
479.3635827664399	479.456462585034	89	127
479.3635827664399	479.456462585034	77	127
479.456462585034	479.5841723356009	77	127
479.456462585034	479.5841723356009	89	127
479.5841723356009	479.7118820861678	86	127
479.5841723356009	479.7118820861678	74	127
479.7118820861678	479.82798185941044	74	127
479.7118820861678	479.82798185941044	86	127
479.8395918367347	479.95569160997735	86	127
479.8395918367347	479.95569160997735	74	127
479.95569160997735	480.0834013605442	74	127
479.95569160997735	480.0834013605442	86	127
480.0834013605442	480.2111111111111	76	127
480.0834013605442	480.2111111111111	88	127
480.0834013605442	480.5826303854875	64	127
480.2111111111111	480.32721088435375	76	127
480.2111111111111	480.32721088435375	88	127
480.338820861678	480.45492063492065	88	127
480.338820861678	480.45492063492065	76	127
480.4665306122449	480.5826303854875	88	127
480.4665306122449	480.5826303854875	76	127
480.5826303854875	480.7103401360544	73	127
480.5826303854875	481.0702494331066	69	127
480.7103401360544	480.82643990929705	73	127
480.8380498866213	480.95414965986396	73	127
480.9657596371882	481.0702494331066	73	127
481.0702494331066	481.19795918367345	74	127
481.0702494331066	481.19795918367345	86	127
481.0702494331066	481.4998185941043	62	127
481.19795918367345	481.3140589569161	86	127
481.19795918367345	481.3140589569161	74	127
481.3372789115646	481.45337868480726	86	127
481.3372789115646	481.45337868480726	74	127
481.46498866213153	481.59269841269844	74	127
481.46498866213153	481.59269841269844	86	127
481.59269841269844	481.7204081632653	70	127
481.59269841269844	481.7204081632653	82	127
481.7204081632653	481.8481179138322	82	127
481.7204081632653	481.8481179138322	70	127
481.8481179138322	481.95260770975057	70	127
481.8481179138322	481.95260770975057	82	127
481.96421768707484	482.0803174603175	82	127
481.96421768707484	482.0803174603175	70	127
482.09192743764174	482.1964172335601	72	127
482.09192743764174	482.1964172335601	84	127
482.09192743764174	482.5795464852608	60	127
482.1964172335601	482.32412698412696	72	127
482.1964172335601	482.32412698412696	84	127
482.32412698412696	482.4402267573696	84	127
482.32412698412696	482.4402267573696	72	127
482.45183673469387	482.5679365079365	72	127
482.45183673469387	482.5679365079365	84	127
482.5795464852608	482.6956462585034	69	127
482.5795464852608	483.05555555555554	65	127
482.6956462585034	482.82335600907027	69	127
482.82335600907027	482.9394557823129	69	127
482.9510657596372	483.0439455782313	69	127
483.05555555555554	483.1716553287982	82	127
483.05555555555554	483.473514739229	58	127
483.05555555555554	483.1716553287982	70	127
483.1716553287982	483.2993650793651	70	127
483.1716553287982	483.2993650793651	82	127
483.2993650793651	483.427074829932	70	127
483.2993650793651	483.427074829932	82	127
483.427074829932	483.5431746031746	70	127
483.427074829932	483.5431746031746	82	127
483.55478458049885	483.6592743764172	79	127
483.55478458049885	483.6592743764172	67	127
483.6592743764172	483.7637641723356	79	127
483.6592743764172	483.7637641723356	67	127
483.7637641723356	483.8798639455782	67	127
483.7637641723356	483.8798639455782	79	127
483.8798639455782	483.99596371882086	67	127
483.8798639455782	483.99596371882086	79	127
484.00757369614513	484.49519274376416	57	127
484.00757369614513	484.12367346938777	69	127
484.00757369614513	484.12367346938777	81	127
484.13528344671204	484.2513832199547	81	127
484.13528344671204	484.2513832199547	69	127
484.2513832199547	484.36748299319726	69	127
484.2513832199547	484.36748299319726	81	127
484.36748299319726	484.4835827664399	69	127
484.36748299319726	484.4835827664399	81	127
484.49519274376416	484.9363718820862	62	127
484.49519274376416	484.58807256235826	66	127
484.58807256235826	484.7041723356009	66	127
484.7041723356009	484.8318820861678	66	127
484.8318820861678	484.9247619047619	66	127
484.9363718820862	485.0292517006803	67	127
484.9363718820862	485.0292517006803	79	127
484.9363718820862	485.2962811791383	55	127
485.04086167800455	485.1221315192744	67	127
485.04086167800455	485.1221315192744	79	127
485.1221315192744	485.2498412698413	79	127
485.1221315192744	485.2498412698413	67	127
485.2498412698413	485.3775510204082	67	127
485.2498412698413	485.3775510204082	79	127
485.3775510204082	485.4936507936508	63	127
485.3775510204082	485.4936507936508	75	127
485.50526077097504	485.6213605442177	63	127
485.50526077097504	485.6213605442177	75	127
485.63297052154195	485.7490702947846	75	127
485.63297052154195	485.7490702947846	63	127
485.7490702947846	485.8767800453515	63	127
485.7490702947846	485.8767800453515	75	127
485.8767800453515	485.9928798185941	65	127
485.8767800453515	485.9928798185941	77	127
485.8767800453515	486.3760090702948	53	127
486.00448979591835	486.120589569161	65	127
486.00448979591835	486.120589569161	77	127
486.13219954648525	486.2482993197279	65	127
486.13219954648525	486.2482993197279	77	127
486.2482993197279	486.3760090702948	77	127
486.2482993197279	486.3760090702948	65	127
486.3760090702948	486.77074829931973	58	127
486.3760090702948	486.49210884353744	58	127
486.3760090702948	486.49210884353744	70	127
486.50371882086165	486.5965986394558	58	127
486.50371882086165	486.5965986394558	70	127
486.60820861678	486.72430839002266	58	127
486.60820861678	486.72430839002266	70	127
486.72430839002266	486.85201814058956	70	127
486.72430839002266	486.85201814058956	58	127
486.85201814058956	487.2815873015873	46	127
486.85201814058956	486.9681179138322	74	127
486.85201814058956	486.9681179138322	62	127
486.9681179138322	487.07260770975057	62	127
486.9681179138322	487.07260770975057	74	127
487.08421768707484	487.17709750566894	62	127
487.08421768707484	487.17709750566894	74	127
487.17709750566894	487.2815873015873	62	127
487.17709750566894	487.2815873015873	74	127
487.2815873015873	487.4092970521542	63	127
487.2815873015873	487.4092970521542	75	127
487.2815873015873	487.7808163265306	48	127
487.4092970521542	487.52539682539685	63	127
487.4092970521542	487.52539682539685	75	127
487.53700680272107	487.6531065759637	63	127
487.53700680272107	487.6531065759637	75	127
487.664716553288	487.7808163265306	63	127
487.664716553288	487.7808163265306	75	127
487.7808163265306	488.2568253968254	50	127
487.7808163265306	487.9085260770975	70	127
487.7808163265306	487.9085260770975	58	127
487.9085260770975	488.0130158730159	70	127
487.9085260770975	488.0130158730159	58	127
488.02462585034016	488.14072562358274	58	127
488.02462585034016	488.14072562358274	70	127
488.152335600907	488.2568253968254	58	127
488.152335600907	488.2568253968254	70	127
488.2568253968254	488.3845351473923	70	127
488.2568253968254	488.3845351473923	58	127
488.2568253968254	488.67478458049885	51	127
488.3845351473923	488.5006349206349	58	127
488.3845351473923	488.5006349206349	70	127
488.5122448979592	488.62834467120183	58	127
488.5122448979592	488.62834467120183	70	127
488.6399546485261	488.7560544217687	58	127
488.6399546485261	488.7560544217687	70	127
488.7560544217687	488.84893424036284	73	127
488.7560544217687	488.84893424036284	61	127
488.7560544217687	489.1856235827664	45	127
488.84893424036284	488.9650340136054	61	127
488.84893424036284	488.9650340136054	73	127
488.9650340136054	489.0579138321996	61	127
488.9650340136054	489.0579138321996	73	127
489.0695238095238	489.1856235827664	73	127
489.0695238095238	489.1856235827664	61	127
489.1856235827664	489.67324263038546	49	127
489.1856235827664	489.2901133786848	64	127
489.1856235827664	489.2901133786848	76	127
489.2901133786848	489.42943310657597	64	127
489.2901133786848	489.42943310657597	76	127
489.42943310657597	489.53392290249434	64	127
489.42943310657597	489.53392290249434	76	127
489.5455328798186	489.66163265306125	64	127
489.5455328798186	489.66163265306125	76	127
489.67324263038546	489.80095238095237	57	127
489.67324263038546	489.80095238095237	69	127
489.67324263038546	490.06798185941045	52	127
489.80095238095237	489.917052154195	57	127
489.80095238095237	489.917052154195	69	127
489.917052154195	490.0215419501134	69	127
489.917052154195	490.0215419501134	57	127
490.03315192743764	490.1492517006803	69	127
490.03315192743764	490.1492517006803	57	127
490.16086167800455	490.6717006802721	45	127
490.16086167800455	490.2769614512472	61	127
490.16086167800455	490.2769614512472	73	127
490.2769614512472	490.4162811791383	61	127
490.2769614512472	490.4162811791383	73	127
490.4162811791383	490.53238095238095	73	127
490.4162811791383	490.53238095238095	61	127
490.5439909297052	490.66009070294785	73	127
490.5439909297052	490.66009070294785	61	127
490.6717006802721	490.78780045351476	64	127
490.6717006802721	490.78780045351476	76	127
490.6717006802721	491.1360997732426	49	127
490.78780045351476	490.9155102040816	64	127
490.78780045351476	490.9155102040816	76	127
490.9155102040816	491.03160997732425	64	127
490.9155102040816	491.03160997732425	76	127
491.03160997732425	491.12448979591835	76	127
491.03160997732425	491.12448979591835	64	127
491.1360997732426	491.5076190476191	52	127
491.1360997732426	491.240589569161	57	127
491.1360997732426	491.240589569161	69	127
491.25219954648526	491.3566893424036	57	127
491.25219954648526	491.3566893424036	69	127
491.3566893424036	491.461179138322	57	127
491.3566893424036	491.461179138322	69	127
491.461179138322	491.57727891156463	69	127
491.461179138322	491.57727891156463	57	127
491.5888888888889	491.70498866213154	61	127
491.5888888888889	491.70498866213154	73	127
491.5888888888889	492.07650793650794	45	127
491.7165986394558	491.8326984126984	61	127
491.7165986394558	491.8326984126984	73	127
491.8326984126984	491.93718820861676	73	127
491.8326984126984	491.93718820861676	61	127
491.93718820861676	492.06489795918367	61	127
491.93718820861676	492.06489795918367	73	127
492.07650793650794	492.5525170068027	49	127
492.07650793650794	492.1809977324263	64	127
492.07650793650794	492.1809977324263	76	127
492.1926077097506	492.3087074829932	64	127
492.1926077097506	492.3087074829932	76	127
492.3087074829932	492.43641723356006	64	127
492.3087074829932	492.43641723356006	76	127
492.43641723356006	492.5525170068027	64	127
492.43641723356006	492.5525170068027	76	127
492.5525170068027	492.66861678004534	57	127
492.5525170068027	492.66861678004534	69	127
492.5525170068027	492.9356462585034	52	127
492.6802267573696	492.7731065759637	69	127
492.6802267573696	492.7731065759637	57	127
492.784716553288	492.88920634920635	69	127
492.784716553288	492.88920634920635	57	127
492.88920634920635	493.01691609977325	57	127
492.88920634920635	493.01691609977325	69	127
493.01691609977325	493.51614512471656	38	127
493.01691609977325	493.1330158730159	69	127
493.01691609977325	493.1330158730159	81	127
493.14462585034016	493.26072562358274	81	127
493.14462585034016	493.26072562358274	69	127
493.272335600907	493.38843537414965	69	127
493.272335600907	493.38843537414965	81	127
493.38843537414965	493.51614512471656	69	127
493.38843537414965	493.51614512471656	81	127
493.51614512471656	493.65546485260774	69	127
493.51614512471656	493.65546485260774	62	127
493.51614512471656	494.0385941043084	45	127
493.66707482993195	493.7831746031746	62	127
493.66707482993195	493.7831746031746	69	127
493.79478458049886	493.9108843537415	69	127
493.79478458049886	493.9108843537415	62	127
493.9108843537415	494.0385941043084	62	127
493.9108843537415	494.0385941043084	69	127
494.0385941043084	494.4565532879819	50	127
494.0385941043084	494.15469387755104	66	127
494.0385941043084	494.15469387755104	69	127
494.1663038548753	494.2824036281179	66	127
494.1663038548753	494.2824036281179	69	127
494.29401360544216	494.4101133786848	66	127
494.29401360544216	494.4101133786848	69	127
494.4101133786848	494.5378231292517	69	127
494.4101133786848	494.5378231292517	66	127
494.5378231292517	495.037052154195	38	127
494.5378231292517	494.6655328798186	69	127
494.5378231292517	494.6655328798186	66	127
494.6655328798186	494.78163265306125	66	127
494.6655328798186	494.78163265306125	69	127
494.79324263038546	494.9093424036281	66	127
494.79324263038546	494.9093424036281	69	127
494.9209523809524	495.037052154195	66	127
494.9209523809524	495.037052154195	69	127
495.037052154195	495.21120181405894	62	127
495.037052154195	495.21120181405894	66	127
495.037052154195	495.52467120181404	45	127
495.21120181405894	495.3273015873016	66	127
495.21120181405894	495.3273015873016	62	127
495.3273015873016	495.4201814058957	62	127
495.3273015873016	495.4201814058957	66	127
495.4201814058957	495.52467120181404	62	127
495.4201814058957	495.52467120181404	66	127
495.52467120181404	495.9426303854875	50	127
495.52467120181404	495.65238095238095	62	127
495.52467120181404	495.65238095238095	66	127
495.65238095238095	495.7684807256236	66	127
495.65238095238095	495.7684807256236	62	127
495.78009070294786	495.8961904761905	66	127
495.78009070294786	495.8961904761905	62	127
495.90780045351477	496.02390022675735	66	127
495.90780045351477	496.02390022675735	62	127
496.02390022675735	496.5347392290249	38	127
496.02390022675735	496.15160997732426	62	127
496.02390022675735	496.15160997732426	57	127
496.15160997732426	496.29092970521543	62	127
496.15160997732426	496.29092970521543	57	127
496.29092970521543	496.40702947845807	62	127
496.29092970521543	496.40702947845807	57	127
496.41863945578234	496.52312925170065	57	127
496.41863945578234	496.52312925170065	62	127
496.5347392290249	496.65083900226756	62	127
496.5347392290249	496.65083900226756	57	127
496.5347392290249	496.9991383219955	45	127
496.65083900226756	496.77854875283447	57	127
496.65083900226756	496.77854875283447	62	127
496.77854875283447	496.8946485260771	57	127
496.77854875283447	496.8946485260771	62	127
496.9062585034014	496.9991383219955	57	127
496.9062585034014	496.9991383219955	62	127
496.9991383219955	497.10362811791384	54	127
496.9991383219955	497.10362811791384	57	127
496.9991383219955	497.3938775510204	50	127
497.10362811791384	497.23133786848075	54	127
497.10362811791384	497.23133786848075	57	127
497.23133786848075	497.3590476190476	54	127
497.23133786848075	497.3590476190476	57	127
497.37065759637187	497.46353741496597	57	127
497.37065759637187	497.46353741496597	54	127
497.47514739229024	497.60285714285715	57	127
497.47514739229024	497.60285714285715	54	127
497.47514739229024	497.9395464852608	38	127
497.60285714285715	497.7421768707483	57	127
497.60285714285715	497.7421768707483	54	127
497.7421768707483	497.8466666666667	54	127
497.7421768707483	497.8466666666667	57	127
497.8582766439909	497.9395464852608	57	127
497.8582766439909	497.9395464852608	54	127
497.9395464852608	498.41555555555556	45	127
498.41555555555556	498.55487528344673	57	127
498.41555555555556	498.55487528344673	54	127
498.41555555555556	498.86834467120184	50	127
498.566485260771	498.6825850340136	57	127
498.566485260771	498.6825850340136	54	127
498.6825850340136	498.82190476190476	54	127
498.6825850340136	498.82190476190476	57	127
498.82190476190476	498.9380045351474	54	127
498.82190476190476	498.9380045351474	57	127
498.94961451247167	499.0773242630386	54	127
498.94961451247167	499.0773242630386	57	127
498.94961451247167	499.448843537415	38	127
499.0773242630386	499.2050340136054	57	127
499.0773242630386	499.2050340136054	54	127
499.2050340136054	499.33274376417233	57	127
499.2050340136054	499.33274376417233	54	127
499.33274376417233	499.448843537415	57	127
499.33274376417233	499.448843537415	54	127
499.448843537415	499.99451247165536	45	127
499.99451247165536	500.4705215419501	50	127
500.5634013605442	500.6911111111111	54	127
500.5634013605442	500.6911111111111	57	127
500.6911111111111	500.80721088435376	57	127
500.6911111111111	500.80721088435376	54	127
500.80721088435376	500.9349206349206	54	127
500.80721088435376	500.9349206349206	57	127
500.9465306122449	501.0742403628118	54	127
500.9465306122449	501.0742403628118	57	127
501.0742403628118	501.32965986394555	54	127
501.0742403628118	501.32965986394555	57	127
506.1826303854875	506.4264399092971	55	127
506.43804988662134	506.9256689342404	55	127
506.93727891156465	507.482947845805	55	127
507.2275283446712	508.2375963718821	67	127
507.2275283446712	508.2375963718821	79	127
507.482947845805	507.9821768707483	55	127
507.9821768707483	508.57428571428574	55	127
508.2375963718821	508.76004535147393	78	127
508.2375963718821	508.76004535147393	66	127
508.57428571428574	509.0851247165533	55	127
509.0851247165533	509.5611337868481	55	127
509.34054421768707	510.35061224489795	67	127
509.34054421768707	510.35061224489795	79	127
509.5611337868481	510.0603628117914	55	127
510.0603628117914	510.5944217687075	55	127
510.35061224489795	510.7453514739229	65	127
510.35061224489795	510.7453514739229	77	127
510.5944217687075	511.0820408163265	55	127
511.0820408163265	511.61609977324264	55	127
511.3722902494331	511.6277097505669	79	127
511.3722902494331	511.6277097505669	67	127
511.6277097505669	511.88312925170067	66	127
511.6277097505669	511.88312925170067	78	127
511.6277097505669	512.1385487528345	55	127
511.88312925170067	512.1501587301588	66	127
511.88312925170067	512.1501587301588	78	127
512.1501587301588	512.4055782312926	67	127
512.1501587301588	512.4055782312926	79	127
512.1501587301588	512.6609977324263	55	127
512.4055782312926	512.8931972789115	55	127
512.4055782312926	512.8931972789115	67	127
512.6726077097505	513.2298866213152	55	127
513.2414739229025	513.7175056689342	55	127
513.4736961451247	513.7291156462585	67	127
513.4736961451247	513.7291156462585	79	127
513.7291156462585	513.9613151927438	66	127
513.7291156462585	514.2051247165533	55	127
513.7291156462585	513.9613151927438	78	127
513.9613151927438	514.2167346938776	66	127
513.9613151927438	514.2167346938776	78	127
514.2167346938776	514.4605442176871	79	127
514.2167346938776	514.4605442176871	67	127
514.2167346938776	514.7043537414966	55	127
514.4605442176871	514.8900907029479	55	127
514.4605442176871	514.8900907029479	67	127
514.7159637188208	515.250022675737	55	127
515.250022675737	515.7260317460317	55	127
515.4822222222223	515.7260317460317	79	127
515.4822222222223	515.7260317460317	67	127
515.7260317460317	516.0046712018141	67	127
515.7260317460317	516.0046712018141	55	127
515.7260317460317	516.2484807256236	55	127
516.0162811791383	516.2484807256236	55	127
516.0162811791383	516.2484807256236	67	127
516.2484807256236	516.7360770975057	55	127
516.2484807256236	516.4922902494332	67	127
516.2484807256236	516.4922902494332	79	127
516.5039002267574	516.7360770975057	67	127
516.5039002267574	516.7360770975057	79	127
516.7360770975057	516.9799092970521	55	127
516.7360770975057	517.2237188208617	55	127
516.7360770975057	516.9799092970521	67	127
516.9915192743764	517.2237188208617	67	127
516.9915192743764	517.2237188208617	55	127
517.2237188208617	517.4907482993198	67	127
517.2237188208617	517.4907482993198	79	127
517.2237188208617	517.7577551020408	55	127
517.502358276644	517.7577551020408	67	127
517.502358276644	517.7577551020408	79	127
517.7577551020408	518.0248072562358	55	127
517.7577551020408	518.2802267573696	55	127
517.7577551020408	518.0248072562358	67	127
518.0364172335601	518.2802267573696	55	127
518.0364172335601	518.2802267573696	67	127
518.2802267573696	518.5356462585034	79	127
518.2802267573696	518.7910657596371	55	127
518.2802267573696	518.5356462585034	67	127
518.5472562358277	518.7910657596371	64	127
518.5472562358277	518.7910657596371	76	127
518.7910657596371	519.0813151927438	64	127
518.7910657596371	519.0813151927438	76	127
518.7910657596371	519.0813151927438	55	127
519.0813151927438	519.3367346938776	53	127
519.0813151927438	519.3367346938776	65	127
519.0813151927438	519.3367346938776	77	127
519.3483446712019	519.6153741496598	77	127
519.3483446712019	519.6153741496598	65	127
519.3483446712019	519.6153741496598	53	127
519.6153741496598	519.8940136054422	79	127
519.6153741496598	519.8940136054422	67	127
519.6153741496598	519.8940136054422	52	127
519.9056235827665	520.1610430839003	52	127
519.9056235827665	520.1610430839003	67	127
519.9056235827665	520.1610430839003	79	127
520.1610430839003	520.4280725623582	60	127
520.1610430839003	520.4280725623582	72	127
520.1610430839003	520.4280725623582	53	127
520.4396825396825	520.683492063492	72	127
520.4396825396825	520.683492063492	60	127
520.4396825396825	520.683492063492	53	127
520.683492063492	520.9156916099773	50	127
520.683492063492	520.9156916099773	71	127
520.683492063492	520.9156916099773	59	127
520.9273015873016	521.1246712018141	59	127
520.9273015873016	521.1246712018141	71	127
520.9273015873016	521.1246712018141	50	127
521.1246712018141	521.3917006802722	48	127
521.1246712018141	521.3917006802722	60	127
521.1246712018141	521.3917006802722	72	127
521.4149206349207	521.6935600907029	72	127
521.4149206349207	521.6935600907029	60	127
521.4149206349207	521.6935600907029	48	127
521.6935600907029	521.9373696145125	74	127
521.6935600907029	521.9373696145125	62	127
521.6935600907029	521.9373696145125	47	127
521.9489795918367	522.181179138322	47	127
521.9489795918367	522.181179138322	62	127
521.9489795918367	522.181179138322	74	127
522.181179138322	522.4481859410431	48	127
522.181179138322	522.4481859410431	55	127
522.181179138322	522.4481859410431	67	127
522.4714285714285	523.0751247165533	55	127
522.4714285714285	523.0751247165533	48	127
522.4714285714285	523.0751247165533	67	127
523.0751247165533	523.5743764172336	48	127
523.0751247165533	523.5743764172336	55	127
523.0751247165533	523.5743764172336	67	127
523.5743764172336	524.1084353741496	55	127
523.5743764172336	524.1084353741496	67	127
523.5743764172336	523.8530158730159	48	127
523.8530158730159	524.1084353741496	36	127
524.1084353741496	524.6308843537415	67	127
524.1084353741496	524.6308843537415	55	127
524.1084353741496	524.6308843537415	36	127
524.6308843537415	524.8746938775511	55	127
524.6308843537415	524.8746938775511	67	127
524.6308843537415	524.8746938775511	36	127
524.8746938775511	525.1301133786848	62	127
524.8746938775511	525.1301133786848	62	127
524.8746938775511	525.1301133786848	38	127
525.1301133786848	525.6641723356009	62	127
525.1301133786848	525.6641723356009	62	127
525.1301133786848	525.6641723356009	38	127
525.6641723356009	526.3375283446712	62	127
525.6641723356009	525.931179138322	38	127
525.6641723356009	526.3375283446712	62	127
525.931179138322	526.3375283446712	50	127
526.3375283446712	526.8483900226757	62	127
526.3375283446712	526.8483900226757	50	127
526.3375283446712	526.8483900226757	62	127
526.8483900226757	527.1270294784581	62	127
526.8483900226757	527.1270294784581	50	127
526.8483900226757	527.1270294784581	62	127
531.5039909297052	531.8987301587301	62	127
531.8987301587301	532.1425396825397	66	127
532.154149659864	532.421179138322	66	127
532.421179138322	532.7114285714285	67	127
532.7230385487528	533.570566893424	63	127
533.570566893424	533.8724263038549	62	127
533.8840362811792	534.1626757369614	62	127
534.1626757369614	534.4297052154195	66	127
534.4413151927438	534.6851247165533	66	127
534.6851247165533	534.9637641723356	67	127
534.9753741496598	535.8112925170068	63	127
535.8112925170068	536.0667120181406	62	127
536.0667120181406	536.4846712018141	62	127
536.4846712018141	536.7517006802722	66	127
536.7517006802722	537.0767800453515	66	127
537.0767800453515	537.3670068027211	67	127
537.3670068027211	537.9243083900227	67	127
537.9243083900227	538.2145578231292	68	127
538.5048072562358	539.0388662131519	67	127
539.0388662131519	539.3291156462585	68	127
539.5845351473923	540.1650340136055	67	127
540.1650340136055	540.501723356009	68	127
540.7919727891157	542.4521995464853	71	127
540.7919727891157	541.4421315192744	65	127
540.7919727891157	542.4521995464853	68	127
541.4421315192744	541.9297505668934	64	127
541.9297505668934	542.4521995464853	62	127
542.4521995464853	542.9398185941043	67	127
542.4521995464853	542.9398185941043	72	127
542.4521995464853	542.9398185941043	64	127
543.0210884353742	544.5884353741496	70	127
543.0210884353742	544.5884353741496	73	127
543.0210884353742	543.5319274376417	67	127
543.5319274376417	544.0659863945579	66	127
544.0659863945579	544.5884353741496	64	127
544.5884353741496	545.1108843537415	69	127
544.5884353741496	545.1108843537415	66	127
544.5884353741496	545.1108843537415	74	127
545.2385941043084	546.1325623582767	75	127
545.2385941043084	546.1325623582767	69	127
545.2385941043084	546.1325623582767	66	127
546.1325623582767	546.3995918367347	64	127
546.1325623582767	546.3995918367347	67	127
546.1325623582767	546.3995918367347	76	127
546.3995918367347	546.678231292517	62	127
546.3995918367347	546.678231292517	65	127
546.3995918367347	546.678231292517	68	127
546.678231292517	546.9452607709751	64	127
546.678231292517	546.9452607709751	60	127
546.678231292517	546.9452607709751	69	127
546.9452607709751	547.2239002267573	71	127
546.9452607709751	547.2239002267573	62	127
546.9452607709751	547.2239002267573	59	127
547.2239002267573	547.4793197278912	72	127
547.2239002267573	547.4793197278912	60	127
547.2239002267573	547.4793197278912	57	127
547.4793197278912	547.827619047619	75	127
547.4793197278912	547.827619047619	69	127
547.4793197278912	547.827619047619	66	127
547.827619047619	548.5822675736962	76	127
547.827619047619	548.5822675736962	67	127
547.827619047619	548.5822675736962	64	127
548.5822675736962	549.3949659863946	62	127
548.5822675736962	549.1395464852608	77	127
548.5822675736962	548.884126984127	68	127
548.884126984127	549.3020861678004	68	127
549.1395464852608	549.3949659863946	76	127
549.3949659863946	549.6619954648526	69	127
549.3949659863946	549.8361451247166	60	127
549.3949659863946	549.6619954648526	72	127
549.6619954648526	550.0335147392291	69	127
549.6619954648526	550.0335147392291	64	127
550.0451020408163	551.1596825396825	59	127
550.0451020408163	552.2974376417234	67	127
550.0451020408163	551.1596825396825	62	127
551.1596825396825	552.2974376417234	61	127
551.1596825396825	552.2974376417234	58	127
552.2974376417234	553.4120181405896	67	127
552.2974376417234	553.7951473922902	62	127
552.2974376417234	553.7951473922902	57	127
553.4120181405896	553.8415873015873	66	127
554.9445351473923	555.4437641723356	74	127
554.9445351473923	555.4437641723356	50	127
554.9445351473923	555.4437641723356	62	127
555.4437641723356	556.0590929705215	74	127
555.4437641723356	556.0590929705215	62	127
555.4437641723356	556.0590929705215	86	127
556.0590929705215	556.5931292517007	57	127
556.0590929705215	556.5931292517007	81	127
556.0590929705215	556.5931292517007	69	127
556.5931292517007	557.2200680272109	58	127
556.5931292517007	557.2200680272109	82	127
556.5931292517007	557.2200680272109	70	127
559.5072562358276	560.0645124716553	63	127
559.5072562358276	560.0645124716553	51	127
560.0645124716553	560.6334240362812	63	127
560.0645124716553	560.6334240362812	75	127
560.6334240362812	561.1210430839002	72	127
560.6334240362812	561.1210430839002	60	127
561.1210430839002	561.5622222222222	73	127
561.1210430839002	561.5622222222222	61	127
561.6667120181406	562.258820861678	72	127
561.6667120181406	562.258820861678	60	127
561.6667120181406	563.1992290249433	72	127
561.6667120181406	563.1992290249433	60	127
562.258820861678	562.8277097505669	70	127
562.258820861678	562.8277097505669	58	127
562.8277097505669	563.2921088435374	56	127
562.8277097505669	563.2921088435374	68	127
563.2921088435374	563.7680952380953	67	127
563.2921088435374	564.3253968253969	72	127
563.2921088435374	564.3253968253969	60	127
563.2921088435374	563.7680952380953	55	127
563.7680952380953	564.3253968253969	54	127
563.7680952380953	564.3253968253969	66	127
564.3950566893424	565.3702947845806	50	127
564.3950566893424	564.9755328798186	63	127
564.3950566893424	564.9755328798186	72	127
564.9755328798186	565.5096145124717	70	127
564.9755328798186	565.5096145124717	62	127
565.5096145124717	566.5312925170068	60	127
565.5096145124717	566.5312925170068	69	127
565.5096145124717	565.9740136054422	38	127
566.0668934240363	566.5312925170068	43	127
566.6125396825397	567.0537414965986	51	127
566.6125396825397	567.0537414965986	58	127
566.6125396825397	567.0537414965986	67	127
567.1466213151928	567.6110204081633	69	127
567.1466213151928	567.6110204081633	60	127
567.1466213151928	567.6110204081633	48	127
567.7039002267574	568.1218594104308	50	127
567.7039002267574	568.1218594104308	66	127
567.7039002267574	568.1218594104308	57	127
568.2031292517007	568.5049886621315	55	127
568.2031292517007	568.7371882086168	62	127
568.2031292517007	568.5049886621315	43	127
568.2031292517007	568.5049886621315	58	127
568.2031292517007	568.7371882086168	50	127
568.2031292517007	568.7371882086168	67	127
568.3772789115646	568.7371882086168	74	127
568.3772789115646	568.7371882086168	74	127
568.3772789115646	568.7371882086168	62	127
568.748798185941	569.2480272108844	82	127
568.748798185941	569.2480272108844	70	127
568.748798185941	569.2480272108844	70	127
569.2480272108844	569.7936961451247	66	127
569.2480272108844	569.7936961451247	78	127
569.2480272108844	569.7936961451247	66	127
569.7936961451247	570.1884353741497	79	127
569.7936961451247	570.1884353741497	67	127
569.7936961451247	570.1884353741497	67	127
570.2813151927438	570.7689342403628	65	127
570.2813151927438	570.7689342403628	77	127
570.2813151927438	570.7689342403628	65	127
570.7689342403628	571.2449433106576	72	127
570.7689342403628	571.2449433106576	60	127
570.7689342403628	571.2449433106576	60	127
571.2449433106576	571.7441723356009	63	127
571.2449433106576	571.7441723356009	75	127
571.2449433106576	571.7441723356009	63	127
571.7441723356009	572.1388888888889	74	127
571.7441723356009	572.1388888888889	62	127
571.7441723356009	572.1388888888889	62	127
572.2201814058957	572.6613605442177	60	127
572.2201814058957	572.6613605442177	72	127
572.2201814058957	572.6613605442177	60	127
572.6613605442177	573.114149659864	55	127
572.6613605442177	573.114149659864	55	127
572.6613605442177	573.114149659864	67	127
573.114149659864	573.6249886621315	58	127
573.114149659864	573.6249886621315	58	127
573.114149659864	573.6249886621315	70	127
573.6249886621315	574.0777777777778	57	127
573.6249886621315	574.0777777777778	57	127
573.6249886621315	574.0777777777778	69	127
574.1706575963719	574.6698866213152	58	127
574.1706575963719	574.6698866213152	58	127
574.1706575963719	574.6698866213152	70	127
574.6698866213152	575.0414058956916	69	127
574.6698866213152	575.0414058956916	57	127
574.6698866213152	575.0414058956916	57	127
575.1226757369615	575.6567346938775	58	127
575.1226757369615	575.6567346938775	70	127
575.1226757369615	575.6567346938775	58	127
575.6567346938775	576.074693877551	57	127
575.6567346938775	576.074693877551	57	127
575.6567346938775	576.074693877551	69	127
576.1559637188209	576.7132426303855	63	127
576.1559637188209	576.7132426303855	75	127
576.1559637188209	576.7132426303855	63	127
576.7132426303855	577.0847619047619	74	127
576.7132426303855	577.0847619047619	62	127
576.7132426303855	577.0847619047619	62	127
577.1660317460318	577.6304308390023	63	127
577.1660317460318	577.6304308390023	63	127
577.1660317460318	577.6304308390023	75	127
577.6304308390023	578.0251700680273	74	127
577.6304308390023	578.0251700680273	62	127
577.6304308390023	578.0251700680273	62	127
578.106439909297	578.6172789115647	68	127
578.106439909297	578.6172789115647	68	127
578.106439909297	578.6172789115647	80	127
578.6172789115647	579.0120181405896	67	127
578.6172789115647	579.0120181405896	67	127
578.6172789115647	579.0120181405896	79	127
579.0932653061225	579.5576870748299	68	127
579.0932653061225	579.5576870748299	68	127
579.0932653061225	579.5576870748299	80	127
579.5576870748299	579.9524263038548	79	127
579.5576870748299	579.9524263038548	67	127
579.5576870748299	579.9524263038548	67	127
580.0336961451247	580.1846258503401	82	127
580.0336961451247	580.1846258503401	70	127
580.0336961451247	580.4980952380953	64	127
580.1846258503401	580.3355555555555	81	127
580.1846258503401	580.3355555555555	69	127
580.3355555555555	580.4516553287982	70	127
580.3355555555555	580.4516553287982	82	127
580.4632653061225	580.5793650793651	67	127
580.4632653061225	580.5793650793651	79	127
580.5793650793651	580.6954648526078	70	127
580.5793650793651	580.6954648526078	82	127
580.5793650793651	581.0205442176871	52	127
580.6954648526078	580.7883446712018	81	127
580.6954648526078	580.7883446712018	69	127
580.7883446712018	580.8928344671202	70	127
580.7883446712018	580.8928344671202	82	127
580.9044444444445	581.0205442176871	67	127
580.9044444444445	581.0205442176871	79	127
581.0205442176871	581.1366213151928	72	127
581.0205442176871	581.415283446712	51	127
581.0205442176871	581.1366213151928	84	127
581.1366213151928	581.2527437641724	82	127
581.1366213151928	581.2527437641724	70	127
581.2643537414966	581.3688435374149	84	127
581.2643537414966	581.3688435374149	72	127
581.3804535147392	581.4965532879819	81	127
581.3804535147392	581.4965532879819	69	127
581.4965532879819	581.9725623582766	63	127
581.4965532879819	581.6242630385487	72	127
581.4965532879819	581.6242630385487	84	127
581.6242630385487	581.7403401360544	70	127
581.6242630385487	581.7403401360544	82	127
581.7519501133787	581.8448526077098	84	127
581.7519501133787	581.8448526077098	72	127
581.856462585034	581.9725623582766	69	127
581.856462585034	581.9725623582766	81	127
581.9725623582766	582.3556689342404	62	127
581.9725623582766	582.0886621315193	74	127
581.9725623582766	582.0886621315193	86	127
582.0886621315193	582.1931519274376	73	127
582.0886621315193	582.1931519274376	85	127
582.2047619047619	582.3092517006803	74	127
582.2047619047619	582.3092517006803	86	127
582.3208616780046	582.4601814058957	82	127
582.3208616780046	582.4601814058957	70	127
582.4601814058957	582.5762585034014	82	127
582.4601814058957	582.6575510204082	51	127
582.4601814058957	582.5762585034014	70	127
582.5762585034014	582.6575510204082	81	127
582.5762585034014	582.6575510204082	69	127
582.6691609977324	582.7620181405896	70	127
582.6691609977324	582.7620181405896	82	127
582.7736281179139	582.912970521542	79	127
582.7736281179139	582.912970521542	67	127
582.912970521542	583.0290702947846	72	127
582.912970521542	583.0290702947846	84	127
582.912970521542	583.1451700680273	48	127
583.0290702947846	583.1451700680273	70	127
583.0290702947846	583.1451700680273	82	127
583.1567800453515	583.2612698412698	84	127
583.1567800453515	583.2612698412698	72	127
583.2728798185941	583.3889569160998	69	127
583.2728798185941	583.3889569160998	81	127
583.3889569160998	583.5050793650794	81	127
583.3889569160998	583.5050793650794	69	127
583.3889569160998	583.621179138322	50	127
583.5050793650794	583.621179138322	79	127
583.5050793650794	583.621179138322	67	127
583.6327891156462	583.7488888888889	69	127
583.6327891156462	583.7488888888889	81	127
583.7604988662132	583.88820861678	78	127
583.7604988662132	583.88820861678	66	127
583.88820861678	584.0042857142857	79	127
583.88820861678	584.0042857142857	67	127
583.88820861678	584.0042857142857	55	127
584.0042857142857	584.1436281179139	66	127
584.0042857142857	584.1436281179139	78	127
584.0042857142857	584.1436281179139	54	127
584.1436281179139	584.2481179138322	79	127
584.1436281179139	584.2481179138322	67	127
584.1436281179139	584.2481179138322	55	127
584.2597278911564	584.3758276643991	43	127
584.2597278911564	584.3409977324263	55	127
584.2597278911564	584.3758276643991	67	127
584.3758276643991	584.5848072562359	43	127
584.3758276643991	584.5848072562359	55	127
584.3758276643991	584.5848072562359	67	127
584.8285941043084	584.944716553288	67	127
584.8285941043084	584.944716553288	55	127
584.8285941043084	584.944716553288	79	127
584.944716553288	585.0956462585034	54	127
584.944716553288	585.0956462585034	66	127
584.944716553288	585.0956462585034	78	127
585.0956462585034	585.2001360544218	79	127
585.0956462585034	585.2001360544218	55	127
585.0956462585034	585.2001360544218	67	127
585.2117460317461	585.3278458049887	43	127
585.2117460317461	585.3278458049887	67	127
585.2117460317461	585.2930158730159	55	127
585.3278458049887	585.5948752834468	67	127
585.3278458049887	585.5948752834468	43	127
585.3278458049887	585.5948752834468	55	127
585.8619047619047	585.9780045351474	80	127
585.8619047619047	585.9780045351474	68	127
585.8619047619047	585.9780045351474	56	127
585.9780045351474	586.1405442176871	67	127
585.9780045351474	586.1405442176871	55	127
585.9780045351474	586.1405442176871	79	127
586.1405442176871	586.2450113378685	68	127
586.1405442176871	586.2450113378685	56	127
586.1405442176871	586.2450113378685	80	127
586.2566213151928	586.3379138321995	56	127
586.2566213151928	586.3727437641724	56	127
586.2566213151928	586.3727437641724	68	127
586.3727437641724	586.6165532879819	56	127
586.3727437641724	586.6165532879819	68	127
586.3727437641724	586.6165532879819	56	127
586.8371428571429	586.9532426303855	78	127
586.8371428571429	586.9532426303855	54	127
586.8371428571429	586.9532426303855	66	127
586.9532426303855	587.0809523809523	77	127
586.9532426303855	587.0809523809523	65	127
586.9532426303855	587.0809523809523	53	127
587.0809523809523	587.197052154195	66	127
587.0809523809523	587.197052154195	54	127
587.0809523809523	587.197052154195	78	127
587.197052154195	587.3247619047619	66	127
587.197052154195	587.2899319727891	54	127
587.197052154195	587.3247619047619	54	127
587.3247619047619	587.5569614512472	54	127
587.3247619047619	587.5569614512472	66	127
587.3247619047619	587.5569614512472	54	127
587.7891609977324	587.905260770975	55	127
587.7891609977324	587.905260770975	79	127
587.7891609977324	587.905260770975	67	127
587.905260770975	588.032970521542	78	127
587.905260770975	588.032970521542	54	127
587.905260770975	588.032970521542	66	127
588.032970521542	588.1490702947846	79	127
588.032970521542	588.1490702947846	55	127
588.032970521542	588.1490702947846	67	127
588.1490702947846	588.2303401360545	55	127
588.1490702947846	588.253560090703	43	127
588.1490702947846	588.253560090703	67	127
588.253560090703	588.474149659864	55	127
588.253560090703	588.474149659864	43	127
588.253560090703	588.474149659864	67	127
588.7063265306123	588.8224489795919	79	127
588.7063265306123	588.8224489795919	55	127
588.7063265306123	588.8224489795919	67	127
588.8224489795919	588.9501587301587	78	127
588.8224489795919	588.9501587301587	54	127
588.8224489795919	588.9501587301587	66	127
588.9501587301587	589.0894784580499	67	127
588.9501587301587	589.0894784580499	55	127
588.9501587301587	589.0894784580499	79	127
589.0894784580499	589.2055782312925	67	127
589.0894784580499	589.2055782312925	43	127
589.0894784580499	589.1707482993197	55	127
589.2055782312925	589.4726077097506	55	127
589.2055782312925	589.4726077097506	43	127
589.2055782312925	589.4726077097506	67	127
589.7163945578232	589.844126984127	68	127
589.7163945578232	589.844126984127	56	127
589.7163945578232	589.844126984127	80	127
589.844126984127	589.9718367346939	67	127
589.844126984127	589.9718367346939	55	127
589.844126984127	589.9718367346939	79	127
589.9718367346939	590.0879365079365	56	127
589.9718367346939	590.0879365079365	80	127
589.9718367346939	590.0879365079365	68	127
590.0879365079365	590.1692063492063	56	127
590.0879365079365	590.2040362811791	68	127
590.0879365079365	590.2040362811791	56	127
590.2040362811791	590.4362358276644	68	127
590.2040362811791	590.4362358276644	56	127
590.2040362811791	590.4362358276644	56	127
590.680045351474	590.8425850340136	58	127
590.680045351474	590.8425850340136	70	127
590.680045351474	590.8425850340136	82	127
590.8425850340136	590.9586621315193	57	127
590.8425850340136	590.9586621315193	81	127
590.8425850340136	590.9586621315193	69	127
590.9586621315193	591.0747845804989	82	127
590.9586621315193	591.0747845804989	70	127
590.9586621315193	591.0747845804989	58	127
591.0747845804989	591.1908843537415	70	127
591.0747845804989	591.1560317460318	58	127
591.0747845804989	591.1908843537415	58	127
591.1908843537415	591.4230839002267	70	127
591.1908843537415	591.4230839002267	58	127
591.1908843537415	591.4230839002267	58	127
591.6320634920635	591.7597505668934	79	127
591.6320634920635	591.7597505668934	55	127
591.6320634920635	591.7597505668934	67	127
591.7597505668934	591.8874829931973	66	127
591.7597505668934	591.8874829931973	54	127
591.7597505668934	591.8874829931973	78	127
591.8874829931973	592.0035827664399	55	127
591.8874829931973	592.0035827664399	79	127
591.8874829931973	592.0035827664399	67	127
592.0035827664399	592.1196825396826	67	127
592.0035827664399	592.0848526077098	55	127
592.0035827664399	592.1196825396826	55	127
592.1196825396826	592.3402721088436	67	127
592.1196825396826	592.3402721088436	55	127
592.1196825396826	592.3402721088436	55	127
592.5608616780046	592.6885714285714	84	127
592.5608616780046	592.6885714285714	60	127
592.5608616780046	592.6885714285714	72	127
592.6885714285714	592.8162811791383	71	127
592.6885714285714	592.8162811791383	83	127
592.6885714285714	592.8162811791383	59	127
592.8162811791383	592.932380952381	84	127
592.8162811791383	592.932380952381	60	127
592.8162811791383	592.932380952381	72	127
592.932380952381	593.0484807256236	72	127
592.932380952381	593.0484807256236	60	127
592.932380952381	593.0136507936508	60	127
593.0484807256236	593.3039002267574	72	127
593.0484807256236	593.3039002267574	60	127
593.0484807256236	593.3039002267574	60	127
593.5360997732427	593.6638095238095	89	127
593.5360997732427	593.6638095238095	65	127
593.5360997732427	593.6638095238095	77	127
593.6638095238095	593.8727891156462	64	127
593.6638095238095	593.8727891156462	88	127
593.6638095238095	593.8727891156462	76	127
593.8727891156462	593.9888888888889	89	127
593.8727891156462	593.9888888888889	77	127
593.8727891156462	593.9888888888889	65	127
593.9888888888889	594.0701587301587	65	127
593.9888888888889	594.1049886621315	77	127
593.9888888888889	594.1049886621315	65	127
594.1049886621315	594.3371882086168	65	127
594.1049886621315	594.3371882086168	77	127
594.1049886621315	594.3371882086168	65	127
594.5577777777778	594.7087074829932	82	127
594.5577777777778	594.7087074829932	70	127
594.5577777777778	594.7087074829932	58	127
594.7087074829932	594.8247845804989	81	127
594.7087074829932	594.8247845804989	69	127
594.7087074829932	594.8247845804989	57	127
594.8247845804989	594.9525170068027	82	127
594.8247845804989	594.9525170068027	58	127
594.8247845804989	594.9525170068027	70	127
594.9525170068027	595.057006802721	70	127
594.9525170068027	595.057006802721	58	127
594.9525170068027	595.0337641723356	58	127
595.057006802721	595.3124263038549	58	127
595.057006802721	595.3124263038549	58	127
595.057006802721	595.3124263038549	70	127
595.5910657596372	596.4966439909297	67	127
595.5910657596372	596.4966439909297	70	127
595.5910657596372	595.9625850340136	63	127
595.5910657596372	596.4966439909297	91	127
595.8348752834468	596.4966439909297	79	127
599.6081179138322	600.3859863945578	67	127
599.6081179138322	600.3859863945578	67	127
600.5020861678005	600.920045351474	68	127
600.5020861678005	600.920045351474	68	127
601.0013151927437	601.3263945578232	69	127
601.0013151927437	601.3263945578232	69	127
601.4076643990929	602.0346031746031	70	127
601.4076643990929	602.0346031746031	70	127
602.115873015873	602.3712925170069	72	127
602.115873015873	602.3712925170069	72	127
602.3712925170069	602.6963718820862	74	127
602.3712925170069	602.6963718820862	74	127
602.777641723356	603.1839909297053	75	127
602.777641723356	603.1839909297053	75	127
603.265260770975	603.9038095238095	79	127
603.265260770975	603.9038095238095	79	127
603.9734693877551	604.2172789115647	77	127
603.9734693877551	604.2172789115647	77	127
604.2172789115647	604.6004081632653	74	127
604.2172789115647	604.6004081632653	74	127
604.6700680272108	605.0880272108843	72	127
604.6700680272108	605.0880272108843	72	127
605.1460770975057	605.5640362811791	70	127
605.1460770975057	605.5640362811791	70	127
605.5640362811791	605.912335600907	58	127
605.5640362811791	605.691746031746	72	127
605.691746031746	605.7846258503401	70	127
605.7846258503401	605.8774829931973	69	127
605.8774829931973	605.9936054421769	70	127
606.0052154195012	606.4231746031746	72	127
606.0052154195012	606.4231746031746	72	127
606.4231746031746	606.8411337868481	68	127
606.4231746031746	606.8411337868481	68	127
606.9340136054421	607.5957823129252	67	127
606.9340136054421	607.5957823129252	67	127
607.9324489795919	608.3387981859411	46	127
607.9324489795919	608.3387981859411	65	127
607.9324489795919	608.3387981859411	53	127
607.9324489795919	608.7567800453514	61	127
608.3387981859411	608.7567800453514	39	127
608.3387981859411	608.7567800453514	67	127
608.3387981859411	608.7567800453514	51	127
608.8148299319728	609.2792290249433	60	127
608.8148299319728	609.4533786848073	68	127
608.8148299319728	610.718866213152	51	127
608.8148299319728	610.6724263038549	39	127
609.2792290249433	609.8016780045351	58	127
609.5462358276644	609.8016780045351	67	127
609.8016780045351	610.2660770975057	56	127
609.8016780045351	610.1848072562358	65	127
610.2660770975057	610.718866213152	55	127
610.2660770975057	610.718866213152	63	127
610.8001360544217	611.1368253968254	65	127
610.8001360544217	611.1368253968254	51	127
610.8001360544217	611.1368253968254	44	127
610.8001360544217	611.1368253968254	60	127
611.7637641723356	612.6112925170069	66	127
611.7637641723356	612.6112925170069	51	127
611.7637641723356	612.8783219954648	51	127
611.7637641723356	612.8783219954648	60	127
612.6112925170069	612.8783219954648	45	127
612.6112925170069	612.8783219954648	63	127
612.8783219954648	613.2614512471655	53	127
612.8783219954648	613.2614512471655	46	127
612.8783219954648	613.2614512471655	62	127
614.8404081632654	614.9681179138322	63	127
614.9681179138322	615.095827664399	62	127
615.095827664399	615.223537414966	63	127
615.223537414966	615.3048072562358	63	127
615.39768707483	615.5718367346939	63	127
615.5718367346939	615.6879138321996	62	127
615.6879138321996	615.8272562358277	63	127
615.8272562358277	615.9085034013606	63	127
615.9549659863945	616.0942630385488	62	127
616.0942630385488	616.1871655328798	61	127
616.1871655328798	616.2916553287982	62	127
616.2916553287982	616.372925170068	62	127
616.4077551020408	616.5238548752834	60	127
616.5238548752834	616.6515646258504	59	127
616.6515646258504	616.7792743764172	60	127
616.7792743764172	616.8605442176871	60	127
616.9069614512472	617.0463038548753	58	127
617.0463038548753	617.1740136054422	57	127
617.1740136054422	617.2901133786849	58	127
617.2901133786849	617.3713832199546	58	127
617.4178231292517	617.8938321995465	51	127
617.4178231292517	617.5339002267574	67	127
617.5339002267574	617.650022675737	66	127
617.650022675737	617.7661224489796	67	127
617.7661224489796	617.8590022675737	67	127
617.8938321995465	618.0215419501134	65	127
617.8938321995465	618.3814512471655	50	127
618.0215419501134	618.1608616780045	64	127
618.1608616780045	618.2653514739229	65	127
618.2653514739229	618.3465986394558	65	127
618.3814512471655	618.5091609977325	63	127
618.3814512471655	618.799410430839	48	127
618.5091609977325	618.6368707482993	62	127
618.6368707482993	618.752947845805	63	127
618.752947845805	618.845850340136	63	127
618.8806802721089	619.3102494331066	46	127
618.8806802721089	618.9967800453514	62	127
618.9967800453514	619.1244897959184	61	127
619.1244897959184	619.2638095238095	62	127
619.2754195011338	619.3566893424037	62	127
619.3915192743764	619.902358276644	55	127
619.3915192743764	619.5308390022676	70	127
619.3915192743764	619.5308390022676	82	127
619.5308390022676	619.6585487528345	81	127
619.5308390022676	619.6585487528345	69	127
619.6585487528345	619.7746258503402	82	127
619.6585487528345	619.7746258503402	70	127
619.7862358276644	619.8675283446712	70	127
619.7862358276644	619.902358276644	82	127
619.902358276644	620.3667573696146	53	127
619.902358276644	620.0300680272109	69	127
619.902358276644	620.0300680272109	81	127
620.0300680272109	620.1577777777778	68	127
620.0300680272109	620.1577777777778	80	127
620.1577777777778	620.2390476190476	81	127
620.1577777777778	620.2390476190476	69	127
620.2506575963719	620.3667573696146	81	127
620.2506575963719	620.3319274376418	69	127
620.3667573696146	620.5060770975057	67	127
620.3667573696146	620.8079138321996	51	127
620.3667573696146	620.5060770975057	79	127
620.5060770975057	620.6453968253968	78	127
620.5060770975057	620.6453968253968	66	127
620.6453968253968	620.7614965986395	79	127
620.6453968253968	620.7614965986395	67	127
620.7731065759638	620.8775963718821	79	127
620.7731065759638	620.8427664399093	67	127
620.8892063492063	621.3652154195012	50	127
620.8892063492063	621.005283446712	78	127
620.8892063492063	621.005283446712	66	127
621.005283446712	621.1214058956916	65	127
621.005283446712	621.1214058956916	77	127
621.1214058956916	621.2375056689342	78	127
621.1214058956916	621.2375056689342	66	127
621.2491156462585	621.3536054421769	78	127
621.2491156462585	621.3303854875284	66	127
621.3652154195012	621.4813151927438	67	127
621.3652154195012	622.2707936507936	62	127
621.3652154195012	621.4813151927438	79	127
621.4813151927438	621.6090022675737	78	127
621.4813151927438	621.6090022675737	66	127
621.6090022675737	621.7251247165533	67	127
621.6090022675737	621.7251247165533	79	127
621.7483446712018	621.8295918367347	67	127
621.7483446712018	621.8644444444444	79	127
621.8760544217687	621.9921541950114	81	127
621.8760544217687	621.9921541950114	69	127
621.9921541950114	622.1314739229025	80	127
621.9921541950114	622.1314739229025	68	127
622.1314739229025	622.2591836734694	69	127
622.1314739229025	622.2591836734694	81	127
622.2707936507936	622.3868934240363	81	127
622.2707936507936	622.3520634920635	69	127
622.3985034013606	622.5262131519274	70	127
622.3985034013606	622.8164625850341	62	127
622.3985034013606	622.5262131519274	82	127
622.5262131519274	622.6539002267574	81	127
622.5262131519274	622.6539002267574	69	127
622.6539002267574	622.770022675737	82	127
622.6539002267574	622.770022675737	70	127
622.770022675737	622.8861224489796	82	127
622.770022675737	622.8512698412699	70	127
622.8977324263038	623.0254421768708	84	127
622.8977324263038	623.3969614512472	69	127
622.8977324263038	623.0254421768708	75	127
623.0254421768708	623.1415419501134	83	127
623.0254421768708	623.1415419501134	74	127
623.1415419501134	623.2692290249433	84	127
623.1415419501134	623.2692290249433	75	127
623.2692290249433	623.3505215419501	75	127
623.2692290249433	623.3853514739229	84	127
623.3969614512472	623.8033106575964	70	127
623.3969614512472	623.524671201814	74	127
623.3969614512472	623.524671201814	82	127
623.524671201814	623.6291609977325	73	127
623.524671201814	623.6291609977325	81	127
623.6291609977325	623.7568707482993	74	127
623.6291609977325	623.7568707482993	82	127
623.7568707482993	623.8381405895692	74	127
623.7568707482993	623.872947845805	82	127
623.8845804988662	624.0122902494331	72	127
623.8845804988662	624.3838095238095	66	127
623.8845804988662	624.0122902494331	81	127
624.0122902494331	624.1283900226757	80	127
624.0122902494331	624.1283900226757	71	127
624.1283900226757	624.2560997732427	72	127
624.1283900226757	624.2560997732427	81	127
624.2560997732427	624.3373696145125	72	127
624.2560997732427	624.3838095238095	81	127
624.3838095238095	624.5115192743764	70	127
624.3838095238095	624.5115192743764	79	127
624.3838095238095	624.8133786848073	67	127
624.5115192743764	624.6508390022676	78	127
624.5115192743764	624.6508390022676	69	127
624.6508390022676	624.7669387755102	70	127
624.6508390022676	624.7669387755102	79	127
624.7669387755102	624.8946258503402	79	127
624.7669387755102	624.8482086167801	70	127
624.8946258503402	625.022358276644	75	127
624.8946258503402	625.8931065759638	69	127
624.8946258503402	625.7653968253968	60	127
625.022358276644	625.1500680272109	74	127
625.1500680272109	625.2545578231293	75	127
625.2545578231293	625.3822675736961	75	127
625.3822675736961	625.5099546485261	75	127
625.5099546485261	625.63768707483	74	127
625.63768707483	625.7653968253968	75	127
625.7653968253968	625.8931065759638	75	127
625.8931065759638	626.8451247165533	67	127
625.8931065759638	626.4155555555556	58	127
625.8931065759638	626.0092063492064	76	127
626.0092063492064	626.1369160997732	75	127
626.1369160997732	626.2646258503402	76	127
626.2646258503402	626.4155555555556	76	127
626.4155555555556	626.8799546485261	49	127
626.4155555555556	626.5897052154195	76	127
626.5897052154195	626.7174149659864	75	127
626.7174149659864	626.833514739229	76	127
626.8451247165533	626.9844444444444	76	127
626.9844444444444	627.4372335600907	66	127
626.9844444444444	627.1585941043083	69	127
626.9844444444444	627.4372335600907	50	127
627.1585941043083	627.2863038548753	68	127
627.2863038548753	627.3907936507936	69	127
627.4024036281179	627.5185034013606	74	127
627.5185034013606	628.3660090702948	74	127
627.5185034013606	628.3660090702948	62	127
627.5185034013606	628.3660090702948	86	127
627.5185034013606	628.3660090702948	38	127
627.5185034013606	628.3660090702948	74	127
627.5185034013606	628.3660090702948	50	127
628.4937414965987	629.4109297052154	86	127
628.4937414965987	629.4109297052154	50	127
628.4937414965987	629.4109297052154	38	127
628.4937414965987	629.4109297052154	74	127
628.4937414965987	629.4109297052154	74	127
628.4937414965987	629.4109297052154	62	127
629.5038095238095	630.3861678004536	86	127
629.5038095238095	630.3861678004536	62	127
629.5038095238095	630.3861678004536	74	127
629.5038095238095	630.3861678004536	50	127
629.5038095238095	630.3861678004536	74	127
629.5038095238095	630.3861678004536	38	127
630.5138775510204	631.024693877551	73	127
630.5138775510204	631.024693877551	85	127
630.5138775510204	631.4775056689342	50	127
630.5138775510204	631.024693877551	73	127
630.5138775510204	631.4775056689342	62	127
630.5138775510204	631.4775056689342	38	127
631.024693877551	631.4775056689342	86	127
631.024693877551	631.4775056689342	74	127
631.024693877551	631.4775056689342	74	127
631.5703854875284	632.0579818594105	50	127
631.5703854875284	632.0579818594105	62	127
631.5703854875284	632.0579818594105	74	127
632.0579818594105	632.5224036281179	49	127
632.0579818594105	632.5224036281179	61	127
632.0579818594105	632.5224036281179	73	127
632.5224036281179	633.0448526077098	48	127
632.5224036281179	633.0448526077098	60	127
632.5224036281179	633.0448526077098	72	127
633.0448526077098	633.544081632653	46	127
633.0448526077098	633.544081632653	58	127
633.0448526077098	633.544081632653	70	127
633.544081632653	634.0433106575964	50	127
633.544081632653	634.0433106575964	62	127
633.544081632653	634.0433106575964	74	127
634.0433106575964	634.7631292517007	55	127
634.0433106575964	634.7631292517007	67	127
634.0433106575964	634.7631292517007	79	127
634.7631292517007	635.0185487528345	57	127
634.7631292517007	635.0185487528345	81	127
634.7631292517007	635.0185487528345	69	127
635.0185487528345	635.4713378684808	79	127
635.0185487528345	635.4713378684808	50	127
635.0185487528345	635.4713378684808	67	127
635.5526077097505	636.0750566893424	78	127
635.5526077097505	636.0750566893424	66	127
635.5526077097505	636.0750566893424	50	127
636.0750566893424	636.5975056689342	79	127
636.0750566893424	636.5975056689342	52	127
636.0750566893424	636.5975056689342	67	127
636.5975056689342	637.1199546485261	69	127
636.5975056689342	637.1199546485261	81	127
636.5975056689342	637.1199546485261	54	127
637.1199546485261	637.5495238095239	71	127
637.1199546485261	637.5495238095239	55	127
637.1199546485261	637.5495238095239	74	127
637.6307936507936	638.0951927437642	71	127
637.6307936507936	638.0951927437642	43	127
637.6307936507936	638.0951927437642	83	127
638.0951927437642	638.6060090702948	84	127
638.0951927437642	638.6060090702948	45	127
638.0951927437642	638.6060090702948	72	127
638.6060090702948	639.1052607709751	47	127
638.6060090702948	639.1052607709751	74	127
638.6060090702948	639.1052607709751	86	127
639.1052607709751	639.5696598639456	48	127
639.1052607709751	639.5696598639456	76	127
639.1052607709751	639.5696598639456	79	127
639.6741496598639	640.5681179138322	36	127
639.6741496598639	640.1965986394558	79	127
639.6741496598639	640.1965986394558	75	127
640.1965986394558	640.7190476190476	74	127
640.1965986394558	640.7190476190476	77	127
640.7190476190476	641.1370068027211	75	127
640.7190476190476	641.1370068027211	72	127
640.7190476190476	641.1370068027211	48	127
641.218276643991	642.3444444444444	74	127
641.218276643991	642.3444444444444	71	127
641.218276643991	641.6710430839003	50	127
641.8219954648526	642.7740136054422	67	127
642.3444444444444	643.4125623582767	70	127
642.3444444444444	643.4125623582767	76	127
642.901723356009	643.4125623582767	55	127
643.4125623582767	644.0162811791383	78	127
643.4125623582767	644.0162811791383	62	127
643.4125623582767	644.0162811791383	69	127
645.5952380952381	645.897097505669	38	127
645.5952380952381	645.7461451247166	74	127
645.5952380952381	645.897097505669	62	127
645.7461451247166	645.897097505669	62	127
645.897097505669	646.1060770975057	73	127
645.897097505669	646.338276643991	66	127
645.897097505669	646.338276643991	50	127
646.1060770975057	646.338276643991	62	127
646.3498639455782	646.6633560090703	43	127
646.3498639455782	646.6633560090703	70	127
646.3498639455782	646.4892063492064	74	127
646.4892063492064	646.6633560090703	62	127
646.6633560090703	646.9536054421769	72	127
646.6633560090703	647.1161451247166	50	127
646.6633560090703	647.1161451247166	69	127
646.9536054421769	647.1161451247166	62	127
647.1161451247166	647.3599546485261	67	127
647.1161451247166	647.2438548752834	70	127
647.1161451247166	647.3599546485261	55	127
647.2438548752834	647.3599546485261	62	127
647.3599546485261	647.5457142857143	69	127
647.3599546485261	647.6618140589569	63	127
647.3599546485261	647.6734240362812	50	127
647.5457142857143	647.6618140589569	62	127
647.6734240362812	647.8011111111111	70	127
647.6734240362812	647.9172335600907	62	127
647.6734240362812	647.9172335600907	55	127
647.8011111111111	647.9172335600907	62	127
647.9172335600907	648.1842630385488	60	127
647.9172335600907	648.1842630385488	50	127
647.9172335600907	648.0565532879818	69	127
648.0565532879818	648.1842630385488	62	127
648.1842630385488	648.4396825396825	43	127
648.1842630385488	648.4396825396825	58	127
648.1842630385488	648.3235827664399	67	127
648.3235827664399	648.4396825396825	62	127
648.4396825396825	648.7183219954649	50	127
648.4396825396825	648.5790022675737	66	127
648.4396825396825	648.7183219954649	57	127
648.5790022675737	648.7183219954649	62	127
648.7183219954649	648.985351473923	43	127
648.7183219954649	648.8692517006803	67	127
648.7183219954649	648.985351473923	58	127
648.8692517006803	648.985351473923	62	127
648.985351473923	649.2756009070295	60	127
648.985351473923	649.1478911564626	62	127
648.985351473923	649.2756009070295	50	127
649.1478911564626	649.2756009070295	62	127
649.2756009070295	649.5310204081633	58	127
649.2756009070295	649.5310204081633	55	127
649.2756009070295	649.4033106575964	67	127
649.4033106575964	649.5310204081633	62	127
649.5310204081633	649.8328571428572	50	127
649.5310204081633	649.8328571428572	60	127
649.5310204081633	649.6587301587301	69	127
649.6587301587301	649.8328571428572	62	127
649.8328571428572	650.1115192743764	62	127
649.8328571428572	649.9721995464853	70	127
649.8328571428572	650.1115192743764	55	127
649.9721995464853	650.1115192743764	62	127
650.1115192743764	650.355328798186	50	127
650.1115192743764	650.355328798186	58	127
650.1115192743764	650.2276190476191	67	127
650.2276190476191	650.355328798186	62	127
650.355328798186	650.6455555555556	43	127
650.355328798186	650.4946485260771	70	127
650.355328798186	650.6455555555556	62	127
650.4946485260771	650.6455555555556	62	127
650.6455555555556	650.9009977324263	67	127
650.6455555555556	650.9009977324263	50	127
650.6455555555556	650.7616780045352	74	127
650.7616780045352	650.9009977324263	62	127
650.9009977324263	651.4466666666667	66	127
650.9009977324263	651.109977324263	75	127
650.9009977324263	651.2724943310658	43	127
651.109977324263	651.2724943310658	62	127
651.2724943310658	651.5279365079365	50	127
651.2724943310658	651.4118367346939	72	127
651.4118367346939	651.5279365079365	62	127
651.5279365079365	651.6672335600907	75	127
651.5279365079365	651.8065759637188	60	127
651.5279365079365	651.8065759637188	57	127
651.6672335600907	651.8065759637188	62	127
651.8065759637188	652.0503854875284	50	127
651.8065759637188	652.0503854875284	59	127
651.8065759637188	651.9342857142857	74	127
651.9342857142857	652.0503854875284	62	127
652.0503854875284	652.3174149659864	60	127
652.0503854875284	652.3174149659864	57	127
652.0503854875284	652.1897052154195	75	127
652.1897052154195	652.3174149659864	62	127
652.3174149659864	652.4915419501134	81	127
652.3174149659864	652.6192743764173	50	127
652.3174149659864	652.6192743764173	54	127
652.4915419501134	652.6192743764173	62	127
652.6192743764173	652.8398639455783	75	127
652.6192743764173	652.9675736961451	60	127
652.6192743764173	652.9675736961451	43	127
652.8398639455783	652.9675736961451	62	127
652.9675736961451	653.2229931972789	59	127
652.9675736961451	653.2229931972789	50	127
652.9675736961451	653.0952834467121	74	127
653.0952834467121	653.2229931972789	62	127
653.2229931972789	653.3507029478458	75	127
653.2229931972789	653.490022675737	60	127
653.2229931972789	653.490022675737	43	127
653.3507029478458	653.490022675737	62	127
653.490022675737	653.757052154195	66	127
653.490022675737	653.6409523809524	72	127
653.490022675737	653.7686621315192	50	127
653.6409523809524	653.757052154195	62	127
653.7686621315192	653.884761904762	75	127
653.7686621315192	654.0124716553288	57	127
653.7686621315192	654.0124716553288	60	127
653.884761904762	654.0124716553288	62	127
654.0124716553288	654.3027210884354	59	127
654.0124716553288	654.1517913832199	74	127
654.0124716553288	654.3027210884354	50	127
654.1517913832199	654.3027210884354	62	127
654.3027210884354	654.5929705215419	60	127
654.3027210884354	654.5929705215419	57	127
654.3027210884354	654.4304308390023	75	127
654.4304308390023	654.5929705215419	62	127
654.5929705215419	654.7206802721089	81	127
654.5929705215419	654.8483900226757	54	127
654.5929705215419	654.86	50	127
654.7206802721089	654.8483900226757	62	127
654.86	654.9760997732426	75	127
654.86	655.1038095238096	43	127
654.86	655.1038095238096	60	127
654.9760997732426	655.1038095238096	62	127
655.1038095238096	655.4637188208617	59	127
655.1038095238096	655.3360090702948	74	127
655.1038095238096	655.4521088435374	50	127
655.3360090702948	655.4637188208617	62	127
655.4637188208617	655.742358276644	43	127
655.4637188208617	655.742358276644	62	127
655.4637188208617	655.6262585034013	77	127
655.6262585034013	655.742358276644	62	127
655.742358276644	655.8932879818594	75	127
655.742358276644	656.0209977324263	50	127
655.742358276644	656.0209977324263	60	127
655.8932879818594	656.0209977324263	62	127
656.0209977324263	656.1603174603175	74	127
656.0209977324263	656.2764172335601	55	127
656.0209977324263	656.2764172335601	58	127
656.1603174603175	656.2764172335601	62	127
656.2764172335601	656.5550566893425	57	127
656.2764172335601	656.5550566893425	50	127
656.2764172335601	656.4157369614512	72	127
656.4157369614512	656.5550566893425	62	127
656.5666666666667	656.8104761904762	65	127
656.5666666666667	656.6943764172336	74	127
656.5666666666667	656.8104761904762	36	127
656.6943764172336	656.8104761904762	63	127
656.8104761904762	656.9962131519275	72	127
656.8104761904762	657.1355555555556	43	127
656.8104761904762	657.1355555555556	63	127
656.9962131519275	657.1355555555556	63	127
657.1355555555556	657.2632653061224	70	127
657.1355555555556	657.3793650793651	62	127
657.1355555555556	657.3793650793651	51	127
657.2632653061224	657.3793650793651	63	127
657.3793650793651	657.6347845804988	48	127
657.3793650793651	657.507074829932	69	127
657.3793650793651	657.6347845804988	60	127
657.507074829932	657.6347845804988	63	127
657.6347845804988	657.9366439909297	58	127
657.6347845804988	657.7857142857143	67	127
657.6347845804988	657.9366439909297	37	127
657.7857142857143	657.9366439909297	55	127
657.9366439909297	658.5403628117914	64	127
657.9366439909297	658.2268707482993	46	127
657.9366439909297	658.0527437641723	66	127
658.0527437641723	658.2268707482993	55	127
658.2268707482993	658.5403628117914	52	127
658.2268707482993	658.4242403628118	67	127
658.4242403628118	658.5519727891157	55	127
658.5519727891157	658.8073922902495	52	127
658.5519727891157	658.8073922902495	37	127
658.5519727891157	658.6680725623582	70	127
658.6680725623582	658.8073922902495	55	127
658.8073922902495	659.051179138322	38	127
658.8073922902495	658.9351020408163	69	127
658.8073922902495	659.0628117913832	54	127
658.9351020408163	659.0628117913832	62	127
659.0628117913832	659.318231292517	57	127
659.0628117913832	659.318231292517	50	127
659.0628117913832	659.1789115646259	66	127
659.1789115646259	659.318231292517	62	127
659.318231292517	659.7129705215419	62	127
659.318231292517	659.7129705215419	54	127
659.318231292517	659.5272108843537	74	127
659.5272108843537	659.7129705215419	62	127
659.7129705215419	659.9567800453515	57	127
659.7129705215419	659.8406802721089	73	127
659.7129705215419	659.9567800453515	66	127
659.8406802721089	659.9567800453515	62	127
659.9567800453515	660.1425396825397	74	127
659.9567800453515	660.2702267573696	70	127
660.1425396825397	660.2702267573696	62	127
660.2702267573696	660.4908390022675	72	127
660.2702267573696	660.6301587301588	69	127
660.4908390022675	660.6301587301588	62	127
660.6301587301588	660.7694784580499	70	127
660.6301587301588	660.9436281179138	67	127
660.7694784580499	660.9436281179138	62	127
660.9436281179138	661.2222675736962	63	127
660.9436281179138	661.1061678004535	69	127
661.1061678004535	661.2222675736962	62	127
661.2222675736962	661.47768707483	62	127
661.2222675736962	661.349977324263	70	127
661.349977324263	661.47768707483	62	127
661.47768707483	661.6053968253968	69	127
661.47768707483	661.7214965986394	60	127
661.6053968253968	661.7214965986394	62	127
661.7214965986394	661.965306122449	67	127
661.7214965986394	662.0930158730159	58	127
661.965306122449	662.0930158730159	62	127
662.0930158730159	662.3368253968254	57	127
662.0930158730159	662.2207256235828	66	127
662.2207256235828	662.3368253968254	62	127
662.3484353741496	662.5922448979592	58	127
662.3484353741496	662.4645351473923	67	127
662.4645351473923	662.5922448979592	62	127
662.5922448979592	662.7199319727891	62	127
662.5922448979592	662.8824943310658	60	127
662.7315419501134	662.8708843537415	62	127
662.8824943310658	663.1959637188208	58	127
662.8824943310658	663.0218140589569	67	127
663.0218140589569	663.1959637188208	62	127
663.1959637188208	663.4513832199547	60	127
663.1959637188208	663.3352607709751	69	127
663.3352607709751	663.4629931972789	62	127
663.4629931972789	663.5790929705215	70	127
663.4629931972789	663.6951927437642	62	127
663.5790929705215	663.6951927437642	62	127
663.6951927437642	663.8229024943311	67	127
663.6951927437642	663.9389795918368	58	127
663.8229024943311	663.9389795918368	62	127
663.950589569161	664.1363718820862	79	127
663.950589569161	664.2756916099773	59	127
664.1363718820862	664.2756916099773	67	127
664.2756916099773	664.4034013605442	78	127
664.2756916099773	664.5195011337869	62	127
664.4034013605442	664.5311111111112	67	127
664.5311111111112	664.7981405895691	71	127
664.5311111111112	664.6820408163265	79	127
664.6820408163265	664.7981405895691	67	127
664.7981405895691	665.053560090703	68	127
664.7981405895691	664.9258503401361	79	127
664.9258503401361	665.053560090703	67	127
665.053560090703	665.1928798185941	79	127
665.053560090703	665.4366893424036	67	127
665.1928798185941	665.4366893424036	67	127
665.4366893424036	665.6921088435374	65	127
665.4366893424036	665.5643990929706	79	127
665.5643990929706	665.6921088435374	67	127
665.6921088435374	665.9591383219955	67	127
665.6921088435374	665.8430385487528	67	127
665.8430385487528	665.9591383219955	55	127
665.9591383219955	666.2145578231292	65	127
665.9591383219955	666.0868480725624	67	127
666.0868480725624	666.2145578231292	55	127
666.2145578231292	666.469977324263	62	127
666.2145578231292	666.3306575963719	67	127
666.3306575963719	666.469977324263	55	127
666.469977324263	666.7486167800454	65	127
666.469977324263	666.5860770975057	67	127
666.5860770975057	666.7486167800454	55	127
666.7486167800454	666.8763265306122	79	127
666.7486167800454	667.1897959183674	65	127
666.8763265306122	667.0156235827665	67	127
667.0156235827665	667.1433560090703	79	127
667.1433560090703	667.2710657596372	67	127
667.2710657596372	667.4452154195011	79	127
667.2710657596372	667.6193424036281	67	127
667.4452154195011	667.6193424036281	67	127
667.6193424036281	667.8863945578231	69	127
667.6193424036281	667.7586848072563	79	127
667.7586848072563	667.8863945578231	67	127
667.8863945578231	668.1302040816327	71	127
667.8863945578231	668.0141043083901	67	127
668.0141043083901	668.1302040816327	55	127
668.1302040816327	668.3856235827665	67	127
668.1302040816327	668.2695238095238	67	127
668.2695238095238	668.3856235827665	55	127
668.3856235827665	668.5597732426304	67	127
668.3856235827665	668.7223129251701	65	127
668.5597732426304	668.7223129251701	55	127
668.7223129251701	669.0009523809524	53	127
668.7223129251701	668.8848526077097	67	127
668.8848526077097	669.0009523809524	55	127
669.0009523809524	669.465328798186	51	127
669.0009523809524	669.1286621315193	79	127
669.1286621315193	669.2563492063492	67	127
669.2563492063492	669.4305215419502	78	127
669.4305215419502	669.5466213151927	67	127
669.5466213151927	669.8600907029479	63	127
669.5466213151927	669.7091609977324	79	127
669.7091609977324	669.8600907029479	67	127
669.8600907029479	669.999410430839	55	127
669.8600907029479	670.1039002267573	51	127
669.999410430839	670.1039002267573	67	127
670.1039002267573	670.6379591836735	50	127
670.1039002267573	670.2316099773243	79	127
670.2316099773243	670.4638095238096	67	127
670.4638095238096	670.6031292517007	78	127
670.6031292517007	670.7192290249433	67	127
670.7192290249433	671.0094784580499	62	127
670.7192290249433	670.835328798186	79	127
670.835328798186	671.0094784580499	67	127
671.0094784580499	671.3113151927438	50	127
671.0094784580499	671.1836281179138	55	127
671.1836281179138	671.3113151927438	67	127
671.322947845805	671.4622675736962	79	127
671.322947845805	671.8686167800454	51	127
671.4622675736962	671.589977324263	67	127
671.589977324263	671.7409070294784	78	127
671.7409070294784	671.8686167800454	67	127
671.8686167800454	672.0079365079365	79	127
671.8686167800454	672.3329931972789	63	127
672.0079365079365	672.1356235827665	67	127
672.1356235827665	672.2749659863946	55	127
672.2749659863946	672.4142857142857	67	127
672.42589569161	673.0412244897959	62	127
672.42589569161	672.5652154195011	70	127
672.5652154195011	672.6929251700681	62	127
672.6929251700681	672.8438548752835	69	127
672.8438548752835	673.0412244897959	62	127
673.0412244897959	673.180544217687	67	127
673.0412244897959	673.5056235827665	50	127
673.180544217687	673.308253968254	62	127
673.308253968254	673.4591836734694	66	127
673.4591836734694	673.6101133786848	62	127
673.621723356009	674.2138321995465	52	127
673.621723356009	674.2138321995465	67	127
674.3067120181406	674.4808616780045	79	127
674.3067120181406	674.4344217687075	64	127
674.4808616780045	674.6666213151927	69	127
674.6666213151927	674.8291609977324	78	127
674.8291609977324	675.1310204081633	79	127
674.8291609977324	675.3980272108844	64	127
675.1310204081633	675.3980272108844	69	127
675.3980272108844	675.9088888888889	57	127
675.3980272108844	675.5838095238096	67	127
675.5838095238096	675.7927891156463	57	127
675.7927891156463	675.9901587301588	66	127
675.9901587301588	676.3036281179138	67	127
676.3036281179138	676.5706575963719	57	127
676.5706575963719	676.709977324263	64	127
676.5706575963719	676.7796371882087	79	127
676.7796371882087	676.9421768707483	69	127
676.9421768707483	677.1279365079365	78	127
677.1279365079365	677.3833560090703	79	127
677.1279365079365	677.6387528344671	64	127
677.3833560090703	677.6387528344671	69	127
677.6387528344671	677.8593424036281	67	127
677.6387528344671	678.1031746031746	57	127
677.8593424036281	678.0219047619048	57	127
678.0219047619048	678.2192743764173	67	127
678.2192743764173	678.5095238095238	66	127
678.5095238095238	678.7649433106576	57	127
678.7649433106576	678.9042630385487	63	127
678.7649433106576	678.9507029478458	78	127
678.9507029478458	679.1132426303855	69	127
679.1132426303855	679.2873696145125	77	127
679.2873696145125	679.5195918367347	78	127
679.2873696145125	679.798231292517	63	127
679.5195918367347	679.7866213151927	69	127
679.798231292517	680.2974376417234	57	127
679.798231292517	679.9839909297052	66	127
679.9839909297052	680.1465306122449	57	127
680.1465306122449	680.413560090703	66	127
680.413560090703	680.680589569161	65	127
680.680589569161	680.9243764172336	56	127
680.9360090702947	681.075328798186	68	127
680.9360090702947	681.1101587301588	77	127
681.1101587301588	681.2843083900227	68	127
681.2843083900227	681.4584580498866	76	127
681.4584580498866	681.7022675736962	77	127
681.4584580498866	681.9809070294784	68	127
681.7022675736962	681.9692970521542	68	127
681.9809070294784	682.1434240362812	65	127
681.9809070294784	682.4685260770975	62	127
682.1434240362812	682.3756462585034	55	127
682.3756462585034	682.6194557823129	62	127
682.6194557823129	682.886485260771	63	127
682.886485260771	683.1883446712018	55	127
683.1883446712018	683.3508843537415	75	127
683.1883446712018	683.3160544217687	67	127
683.3508843537415	683.5250340136055	67	127
683.5250340136055	683.6875736961451	74	127
683.6875736961451	683.9546031746032	75	127
683.6875736961451	684.2216326530612	67	127
683.9546031746032	684.2216326530612	67	127
684.2216326530612	684.4654421768707	63	127
684.2216326530612	684.7440816326531	63	127
684.4654421768707	684.6628117913832	55	127
684.6628117913832	684.8369614512471	63	127
684.8369614512471	685.1620408163266	67	127
684.8369614512471	685.4290476190477	67	127
685.1620408163266	685.4290476190477	58	127
685.4290476190477	685.6032199546486	74	127
685.4290476190477	685.6844897959184	62	127
685.6032199546486	685.7889795918368	62	127
685.7889795918368	685.974739229025	70	127
685.974739229025	686.2649886621315	74	127
685.974739229025	686.5320181405896	66	127
686.2649886621315	686.5320181405896	69	127
686.5320181405896	686.8106575963719	62	127
686.5320181405896	686.7409977324263	66	127
686.7409977324263	686.903537414966	57	127
686.903537414966	687.0776870748299	66	127
687.0776870748299	687.3795464852608	67	127
687.3795464852608	687.6465759637189	57	127
687.6581632653061	687.8207256235828	64	127
688.2154648526077	689.0397732426304	81	127
688.2154648526077	689.0397732426304	69	127
688.2154648526077	688.7727437641723	64	127
688.7727437641723	689.2487528344672	57	127
689.0397732426304	689.3184126984127	82	127
689.0397732426304	689.3184126984127	70	127
689.3416326530612	689.8408616780046	82	127
689.3416326530612	689.8408616780046	70	127
689.8408616780046	689.99179138322	64	127
689.8408616780046	690.2936507936508	69	127
689.8408616780046	690.2936507936508	81	127
690.3749206349206	691.1760090702948	81	127
690.3749206349206	691.1760090702948	69	127
690.3749206349206	690.8973696145125	64	127
690.8973696145125	691.3733786848072	57	127
691.1760090702948	691.4778684807256	82	127
691.1760090702948	691.4778684807256	70	127
691.4778684807256	692.0003174603174	70	127
691.4778684807256	692.0003174603174	82	127
692.0003174603174	692.4182766439909	69	127
692.0003174603174	692.1280272108844	63	127
692.0003174603174	692.4182766439909	81	127
692.5111564625851	693.3006349206349	81	127
692.5111564625851	693.3006349206349	69	127
692.5111564625851	693.0336054421768	63	127
693.0336054421768	693.4631746031746	57	127
693.3006349206349	693.6024716553288	87	127
693.3006349206349	693.6024716553288	75	127
693.6024716553288	694.1597732426304	87	127
693.6024716553288	694.1597732426304	75	127
694.1597732426304	694.6009523809524	86	127
694.1597732426304	694.2990929705215	68	127
694.1597732426304	694.6009523809524	74	127
694.6822222222222	695.4833106575963	86	127
694.6822222222222	695.2046712018141	68	127
694.6822222222222	695.4833106575963	74	127
695.2046712018141	695.6806802721088	62	127
695.4833106575963	695.7851700680272	80	127
695.4833106575963	695.7851700680272	92	127
695.7967800453515	696.307619047619	92	127
695.7967800453515	696.307619047619	80	127
696.307619047619	696.8648752834467	91	127
696.307619047619	696.5398185941043	63	127
696.307619047619	696.8648752834467	79	127
696.9577777777778	697.491814058957	75	127
696.9577777777778	697.491814058957	67	127
696.9577777777778	697.491814058957	87	127
697.491814058957	697.9214058956916	72	127
697.491814058957	697.9214058956916	84	127
697.491814058957	697.7472562358276	63	127
698.0026757369615	698.5483446712018	72	127
698.0026757369615	698.5483446712018	84	127
698.0026757369615	698.5483446712018	67	127
698.5483446712018	698.861814058957	62	127
698.5483446712018	698.861814058957	70	127
698.5483446712018	698.861814058957	82	127
699.1404535147392	699.7093424036282	66	127
699.1404535147392	699.7093424036282	84	127
699.1404535147392	699.7093424036282	72	127
699.7093424036282	700.011201814059	69	127
699.7093424036282	700.011201814059	81	127
699.7093424036282	700.011201814059	62	127
700.4059410430839	703.1575056689343	65	127
700.4059410430839	701.5785260770975	80	127
700.4059410430839	703.1575056689343	71	127
701.5785260770975	703.1575056689343	80	127
703.2619954648526	704.3881632653062	79	127
703.2619954648526	704.3881632653062	63	127
703.2619954648526	704.3881632653062	70	127
704.3881632653062	705.6536281179139	58	127
704.3881632653062	705.6536281179139	78	127
704.3881632653062	705.6536281179139	63	127
705.6536281179139	706.6521088435375	54	127
705.6536281179139	706.6521088435375	58	127
705.6536281179139	706.6521088435375	75	127
706.7914285714286	707.9988662131519	72	127
706.7914285714286	707.4183673469388	57	127
706.7914285714286	707.4183673469388	54	127
707.4183673469388	707.9988662131519	55	127
707.4183673469388	707.9988662131519	69	127
707.9988662131519	708.2542857142857	70	127
707.9988662131519	708.2542857142857	67	127
707.9988662131519	708.2542857142857	55	127
708.486485260771	709.0321541950113	54	127
708.486485260771	709.0321541950113	69	127
708.486485260771	709.0321541950113	72	127
709.0321541950113	709.4036734693877	66	127
709.0321541950113	709.4036734693877	60	127
709.0321541950113	709.4036734693877	69	127
709.6707029478458	710.1582993197279	67	127
709.6707029478458	710.1582993197279	67	127
709.6707029478458	710.1582993197279	58	127
712.1320181405896	712.6544671201814	67	127
712.1320181405896	712.6544671201814	70	127
712.1320181405896	712.6544671201814	55	127
712.6544671201814	712.9331065759637	50	127
712.6544671201814	712.9331065759637	66	127
712.6544671201814	712.9331065759637	69	127
713.2117460317461	713.780634920635	54	127
713.2117460317461	713.780634920635	72	127
713.2117460317461	713.780634920635	69	127
713.780634920635	714.0592743764172	70	127
713.780634920635	714.0592743764172	67	127
713.780634920635	714.0592743764172	55	127
716.4973469387755	717.0430385487529	71	127
716.4973469387755	717.0430385487529	55	127
716.4973469387755	717.2055782312925	65	127
717.0430385487529	717.2868480725624	69	127
717.0430385487529	717.2868480725624	50	127
717.6583673469388	718.2388662131519	72	127
717.6583673469388	718.2388662131519	55	127
717.6583673469388	718.4826757369615	65	127
718.2388662131519	718.5639455782313	71	127
718.2388662131519	718.5639455782313	43	127
721.0600907029478	721.594149659864	56	127
721.0600907029478	721.594149659864	68	127
721.0600907029478	721.594149659864	72	127
721.594149659864	721.8495691609977	67	127
721.594149659864	721.8495691609977	51	127
721.594149659864	721.8495691609977	70	127
722.1398185941043	722.6506575963718	70	127
722.1398185941043	722.6506575963718	55	127
722.1398185941043	722.6506575963718	73	127
722.6506575963718	722.9409070294785	56	127
722.6506575963718	722.9409070294785	68	127
722.6506575963718	722.9409070294785	72	127
724.3457142857143	724.8449433106576	55	127
724.3457142857143	724.8449433106576	70	127
724.3457142857143	724.8449433106576	73	127
724.8449433106576	725.1468027210884	56	127
724.8449433106576	725.1468027210884	72	127
724.8449433106576	725.1468027210884	68	127
726.6328798185941	727.2598185941043	73	127
726.6328798185941	727.2598185941043	55	127
726.6328798185941	727.2598185941043	70	127
727.2598185941043	727.5616780045351	54	127
727.2598185941043	727.5616780045351	72	127
727.2598185941043	727.5616780045351	69	127
729.0825850340136	729.6514739229025	72	127
729.0825850340136	729.6514739229025	54	127
729.0825850340136	729.6514739229025	69	127
729.6514739229025	729.9185034013606	71	127
729.6514739229025	729.9185034013606	68	127
729.6514739229025	729.9185034013606	53	127
731.7180498866213	732.228866213152	65	127
731.7180498866213	732.3914285714286	36	127
731.7180498866213	732.228866213152	71	127
731.7180498866213	732.228866213152	68	127
732.228866213152	732.4726984126984	72	127
732.228866213152	732.4726984126984	63	127
732.228866213152	732.4726984126984	67	127
732.7977777777778	733.3434467120181	66	127
732.7977777777778	733.3434467120181	63	127
732.7977777777778	733.645306122449	38	127
733.3434467120181	733.7614058956916	62	127
733.3434467120181	733.7614058956916	67	127
734.1213151927437	734.6785941043084	64	127
734.1213151927437	734.6785941043084	61	127
734.1213151927437	734.8643537414966	50	127
734.6785941043084	734.9456235827664	60	127
734.6785941043084	734.9456235827664	66	127
736.0253514739229	736.5477777777778	55	127
736.0253514739229	736.5477777777778	67	127
736.292380952381	736.4433106575964	55	127
736.292380952381	736.4433106575964	70	127
736.292380952381	736.4433106575964	58	127
736.559410430839	736.6406802721089	67	127
736.559410430839	736.6406802721089	55	127
737.1398866213152	737.8016780045351	67	127
737.1398866213152	737.8016780045351	55	127
737.4533786848073	737.662358276644	55	127
737.4533786848073	737.662358276644	58	127
737.4533786848073	737.662358276644	70	127
737.8132879818594	737.9061678004535	67	127
737.8132879818594	737.9061678004535	55	127
738.3357369614513	738.8814058956916	66	127
738.3357369614513	738.8814058956916	57	127
738.5795238095238	738.718866213152	60	127
738.5795238095238	738.718866213152	57	127
738.5795238095238	738.718866213152	69	127
738.8930158730159	739.0091156462585	57	127
738.8930158730159	739.0091156462585	66	127
739.7637641723356	739.914693877551	70	127
739.7637641723356	739.914693877551	55	127
739.7637641723356	740.2397732426303	67	127
739.7637641723356	739.914693877551	58	127
739.7637641723356	740.2397732426303	55	127
740.5996825396826	741.1685714285715	67	127
740.5996825396826	741.1685714285715	55	127
740.8783219954648	741.0292290249433	70	127
740.8783219954648	741.0292290249433	55	127
740.8783219954648	741.0292290249433	58	127
741.1685714285715	741.2498185941043	67	127
741.1685714285715	741.2498185941043	55	127
741.7142403628118	742.3063492063492	67	127
741.7142403628118	742.3063492063492	55	127
742.0393197278912	742.1786394557823	70	127
742.0393197278912	742.1786394557823	55	127
742.0393197278912	742.1786394557823	58	127
742.3063492063492	742.3992290249433	67	127
742.3063492063492	742.3992290249433	55	127
742.8752154195012	743.4905442176871	58	127
742.8752154195012	743.4905442176871	67	127
743.2119274376417	743.3396371882086	55	127
743.2119274376417	743.3396371882086	70	127
743.2119274376417	743.3396371882086	61	127
743.4905442176871	743.5834467120181	67	127
743.4905442176871	743.5834467120181	58	127
744.3264852607709	744.4541950113379	60	127
744.3264852607709	744.4541950113379	63	127
744.3264852607709	744.7792743764172	68	127
744.3264852607709	744.7792743764172	56	127
744.3264852607709	744.4541950113379	56	127
745.1275510204082	745.650022675737	53	127
745.1275510204082	745.650022675737	65	127
745.3946031746032	745.5455328798186	60	127
745.3946031746032	745.5455328798186	72	127
745.6616326530612	745.7545124716553	53	127
745.6616326530612	745.7545124716553	65	127
746.2885714285715	746.7878004535147	53	127
746.2885714285715	746.7878004535147	65	127
746.5555782312925	746.6833106575964	61	127
746.5555782312925	746.6833106575964	73	127
746.799410430839	746.8806802721089	65	127
746.799410430839	746.8806802721089	53	127
747.3102494331066	747.8791383219955	55	127
747.3102494331066	747.8791383219955	67	127
747.5772562358277	747.7514285714286	65	127
747.5772562358277	747.7514285714286	74	127
747.8791383219955	747.9952154195012	55	127
747.8791383219955	747.9952154195012	67	127
748.4248072562358	749.005283446712	55	127
748.4248072562358	749.005283446712	67	127
748.7034467120181	748.8543764172335	75	127
748.7034467120181	748.8543764172335	63	127
749.005283446712	749.0865759637188	67	127
749.005283446712	749.0865759637188	55	127
749.4813151927438	749.9805442176871	56	127
749.4813151927438	749.9805442176871	68	127
749.7367346938776	749.8528344671201	75	127
749.7367346938776	749.8528344671201	63	127
749.9805442176871	750.0618140589569	68	127
749.9805442176871	750.0618140589569	56	127
750.5262131519274	751.083492063492	56	127
750.5262131519274	751.083492063492	68	127
750.7932426303855	750.9441723356009	64	127
750.7932426303855	750.9441723356009	76	127
751.083492063492	751.1763718820862	68	127
751.083492063492	751.1763718820862	56	127
751.5711111111111	752.0587301587302	57	127
751.5711111111111	752.0587301587302	69	127
751.8149206349207	752.2444897959184	76	127
751.8149206349207	752.2444897959184	67	127
752.0703174603175	752.1516099773243	57	127
752.0703174603175	752.1516099773243	69	127
752.6392290249433	753.1500680272109	69	127
752.6392290249433	753.1500680272109	57	127
752.9062358276644	753.4054875283447	65	127
752.9062358276644	753.4054875283447	65	127
753.1616780045351	753.242947845805	57	127
753.1616780045351	753.242947845805	69	127
753.4054875283447	753.9743764172335	67	127
753.4054875283447	753.9743764172335	79	127
753.7189342403628	754.2297959183674	70	127
753.7189342403628	754.2297959183674	58	127
753.9743764172335	754.3807256235827	77	127
753.9743764172335	754.3807256235827	65	127
754.2297959183674	754.299455782313	70	127
754.2297959183674	754.299455782313	58	127
754.4619954648526	755.0192743764172	68	127
754.7174149659864	755.2630839002268	70	127
754.7174149659864	755.2630839002268	58	127
755.0192743764172	755.5185034013606	67	127
755.0192743764172	755.4372335600907	67	127
755.274693877551	755.3559410430839	70	127
755.274693877551	755.3559410430839	58	127
755.5185034013606	756.0525623582766	68	127
755.5185034013606	756.0525623582766	80	127
755.7971428571428	756.2963718820862	60	127
755.7971428571428	756.2963718820862	72	127
756.0525623582766	756.4589115646259	79	127
756.0525623582766	756.4589115646259	67	127
756.2963718820862	756.3776190476191	60	127
756.2963718820862	756.3776190476191	72	127
756.55179138322	757.0858503401361	70	127
756.7956009070294	757.3296598639456	72	127
756.7956009070294	757.3296598639456	60	127
757.0858503401361	757.5038095238095	68	127
757.0858503401361	757.5966666666667	68	127
757.3296598639456	757.4109297052154	72	127
757.3296598639456	757.4109297052154	60	127
757.5966666666667	758.1191383219955	70	127
757.5966666666667	758.1191383219955	82	127
757.8404988662131	758.3745578231293	62	127
757.8404988662131	758.3745578231293	74	127
758.1191383219955	758.5487074829932	69	127
758.1191383219955	758.5487074829932	81	127
758.3745578231293	758.4558276643991	74	127
758.3745578231293	758.4558276643991	62	127
758.6299546485261	759.1175963718821	72	127
758.6299546485261	759.1175963718821	84	127
758.8737868480725	759.3497959183674	62	127
758.8737868480725	759.3497959183674	74	127
759.1175963718821	759.512335600907	70	127
759.1175963718821	759.512335600907	82	127
759.3497959183674	759.4310430839002	62	127
759.3497959183674	759.4310430839002	74	127
759.5936054421769	760.1160544217687	66	127
759.5936054421769	760.1160544217687	86	127
759.8490022675737	760.348253968254	74	127
759.8490022675737	760.348253968254	62	127
760.1160544217687	760.568843537415	84	127
760.1160544217687	760.568843537415	57	127
760.3598639455782	760.4875736961451	62	127
760.3598639455782	760.4875736961451	74	127
760.6617006802721	761.1725623582767	67	127
760.6617006802721	761.1725623582767	87	127
760.9171428571428	761.4395918367347	74	127
760.9171428571428	761.4395918367347	62	127
761.1725623582767	761.6137414965987	86	127
761.1725623582767	761.6137414965987	58	127
761.451201814059	761.5324716553288	74	127
761.451201814059	761.5324716553288	62	127
761.6950113378684	761.938820861678	36	127
761.8691609977325	762.0549206349207	79	127
761.8691609977325	762.0549206349207	69	127
762.0549206349207	762.2639002267574	69	127
762.0549206349207	762.2639002267574	79	127
762.2639002267574	763.3204081632653	91	127
762.2639002267574	762.4264399092971	63	127
762.2639002267574	762.4264399092971	79	127
762.2639002267574	763.3204081632653	69	127
762.2639002267574	762.4264399092971	69	127
762.4380498866213	762.600589569161	79	127
762.4380498866213	762.600589569161	69	127
762.4380498866213	762.600589569161	63	127
762.600589569161	762.7863492063492	79	127
762.600589569161	762.7863492063492	63	127
762.600589569161	762.7863492063492	69	127
762.7863492063492	762.9604988662131	60	127
762.7863492063492	762.9604988662131	69	127
762.7863492063492	762.9604988662131	79	127
762.9721088435374	763.1346485260771	60	127
762.9721088435374	763.1346485260771	79	127
762.9721088435374	763.1346485260771	69	127
763.1346485260771	763.3204081632653	60	127
763.1346485260771	763.3204081632653	69	127
763.1346485260771	763.3204081632653	79	127
763.3204081632653	763.7731972789115	81	127
763.3204081632653	763.4945578231293	62	127
763.3204081632653	763.4945578231293	69	127
763.3204081632653	763.4945578231293	78	127
763.5061678004536	763.6919274376418	69	127
763.5061678004536	763.6919274376418	78	127
763.5061678004536	763.6919274376418	62	127
763.6919274376418	763.8544671201814	62	127
763.6919274376418	763.8544671201814	78	127
763.6919274376418	763.8544671201814	69	127
763.8660770975057	764.1331065759637	36	127
764.0518367346939	764.2143764172336	79	127
764.0518367346939	764.2143764172336	69	127
764.2143764172336	764.411746031746	79	127
764.2143764172336	764.411746031746	69	127
764.4233560090703	764.5742857142857	69	127
764.4233560090703	764.5742857142857	79	127
764.4233560090703	764.5742857142857	63	127
764.4233560090703	765.4914739229025	91	127
764.4233560090703	765.4914739229025	69	127
764.58589569161	764.7484353741496	79	127
764.58589569161	764.7484353741496	69	127
764.58589569161	764.7484353741496	63	127
764.7484353741496	764.9806349206349	63	127
764.7484353741496	764.9806349206349	79	127
764.7484353741496	764.9806349206349	69	127
764.9922448979592	765.1547845804988	79	127
764.9922448979592	765.1547845804988	60	127
764.9922448979592	765.1547845804988	69	127
765.1547845804988	765.3173242630386	60	127
765.1547845804988	765.3173242630386	69	127
765.1547845804988	765.3173242630386	79	127
765.3173242630386	765.4798639455782	60	127
765.3173242630386	765.4798639455782	69	127
765.3173242630386	765.4798639455782	79	127
765.4914739229025	765.909433106576	81	127
765.4914739229025	765.6540136054422	62	127
765.4914739229025	765.6540136054422	69	127
765.4914739229025	765.6540136054422	78	127
765.6540136054422	765.8165532879818	69	127
765.6540136054422	765.8165532879818	62	127
765.6540136054422	765.8165532879818	78	127
765.8165532879818	766.00231292517	69	127
765.8165532879818	766.00231292517	78	127
765.8165532879818	766.00231292517	62	127
766.0139229024943	766.3273922902495	36	127
766.2461224489796	766.443492063492	69	127
766.2461224489796	766.443492063492	79	127
766.443492063492	766.6060317460317	69	127
766.443492063492	766.6060317460317	79	127
766.617641723356	766.7801814058957	69	127
766.617641723356	767.5812698412699	69	127
766.617641723356	767.5812698412699	79	127
766.617641723356	767.1400907029479	63	127
766.617641723356	766.7801814058957	79	127
766.7801814058957	766.9427210884354	69	127
766.7801814058957	766.9427210884354	79	127
766.9543310657597	767.1284807256236	79	127
766.9543310657597	767.1284807256236	69	127
767.1400907029479	767.6277097505669	60	127
767.3490702947846	767.5116099773243	67	127
767.3490702947846	767.5116099773243	69	127
767.5232199546485	767.7089795918367	67	127
767.5232199546485	767.7089795918367	69	127
767.7089795918367	768.6958276643991	69	127
767.7089795918367	768.2546485260771	51	127
767.7089795918367	768.6958276643991	79	127
767.7089795918367	767.8831292517007	67	127
767.7089795918367	767.8831292517007	69	127
767.8831292517007	768.0688888888889	69	127
767.8831292517007	768.0688888888889	67	127
768.0804988662131	768.2546485260771	67	127
768.0804988662131	768.2546485260771	69	127
768.2546485260771	768.4404081632653	67	127
768.2546485260771	768.6958276643991	48	127
768.2546485260771	768.4404081632653	69	127
768.4404081632653	768.602947845805	67	127
768.4404081632653	768.602947845805	69	127
768.6145578231293	768.7887074829932	67	127
768.6145578231293	768.7887074829932	69	127
768.7887074829932	769.2995464852607	39	127
768.7887074829932	770.41410430839	79	127
768.7887074829932	770.41410430839	69	127
768.9860770975057	769.1718367346939	55	127
769.1718367346939	769.3808163265306	57	127
769.3808163265306	769.5665759637188	55	127
769.3808163265306	769.8916553287982	36	127
769.5665759637188	769.7291156462585	57	127
769.7291156462585	769.8916553287982	55	127
769.8916553287982	770.41410430839	38	127
769.8916553287982	770.0658049886621	57	127
770.0658049886621	770.2283446712019	55	127
770.2283446712019	770.41410430839	57	127
770.41410430839	770.9713832199546	39	127
770.41410430839	772.5271201814058	79	127
770.41410430839	772.5271201814058	69	127
770.41410430839	770.5998639455782	55	127
770.5998639455782	770.7740136054422	57	127
770.7740136054422	770.9713832199546	55	127
770.9713832199546	771.1455328798186	57	127
770.9713832199546	771.4938321995464	36	127
771.1455328798186	771.3080725623582	55	127
771.3080725623582	771.4938321995464	57	127
771.4938321995464	771.6679818594105	55	127
771.4938321995464	772.0278911564626	38	127
771.6679818594105	771.8421315192744	57	127
771.8421315192744	772.0278911564626	55	127
772.0278911564626	772.1904308390023	57	127
772.0278911564626	772.5271201814058	39	127
772.1904308390023	772.3529705215419	55	127
772.3529705215419	772.5155102040816	57	127
772.5271201814058	773.0263492063492	36	127
772.5271201814058	774.7097959183674	69	127
772.5271201814058	772.6896598639456	54	127
772.6896598639456	772.8521995464853	57	127
772.8521995464853	773.0263492063492	54	127
773.0263492063492	773.6068480725623	38	127
773.0263492063492	773.2121088435374	57	127
773.2121088435374	773.3862585034013	54	127
773.3862585034013	773.6068480725623	57	127
773.6068480725623	774.11768707483	39	127
773.6068480725623	773.8042176870748	54	127
773.8042176870748	774.0131972789115	57	127
774.0131972789115	774.1989569160997	54	127
774.1989569160997	774.3614965986394	57	127
774.3614965986394	774.5240362811792	54	127
774.5240362811792	774.6981859410431	57	127
774.7097959183674	775.1625850340137	54	127
774.7097959183674	775.1625850340137	69	127
786.1572335600907	786.6448526077097	55	127
786.1572335600907	786.6448526077097	55	127
786.1572335600907	786.6448526077097	43	127
786.6448526077097	787.1556916099773	51	127
786.6448526077097	787.1556916099773	63	127
786.6448526077097	787.1556916099773	39	127
787.1556916099773	787.7710204081633	48	127
787.1556916099773	787.7710204081633	60	127
787.1556916099773	787.7710204081633	36	127
787.7710204081633	788.8391383219955	62	127
787.7710204081633	788.8391383219955	38	127
787.7710204081633	788.8391383219955	50	127
788.908798185941	789.5473469387755	45	127
788.908798185941	789.5473469387755	57	127
788.908798185941	789.5473469387755	69	127
789.5473469387755	790.011746031746	54	127
789.5473469387755	790.011746031746	42	127
789.5473469387755	790.011746031746	66	127
790.011746031746	791.1030839002268	67	127
790.011746031746	791.1030839002268	55	127
790.011746031746	791.1030839002268	43	127
791.1727437641723	791.7648526077097	60	127
791.1727437641723	791.7648526077097	72	127
791.1727437641723	791.7648526077097	48	127
791.7648526077097	792.2873015873016	69	127
791.7648526077097	792.2873015873016	45	127
791.7648526077097	792.2873015873016	57	127
792.2873015873016	793.274149659864	58	127
792.2873015873016	793.274149659864	70	127
792.2873015873016	793.274149659864	46	127
793.4018594104308	793.8546485260771	63	127
793.4018594104308	793.8546485260771	75	127
793.4018594104308	793.8546485260771	51	127
793.8546485260771	794.3422675736962	60	127
793.8546485260771	794.3422675736962	48	127
793.8546485260771	794.3422675736962	72	127
794.3422675736962	795.2362358276644	50	127
794.3422675736962	795.2362358276644	62	127
794.3422675736962	795.2362358276644	74	127
795.30589569161	795.8167346938776	57	127
795.30589569161	795.8167346938776	69	127
795.30589569161	795.8167346938776	81	127
795.8167346938776	796.2230839002268	66	127
795.8167346938776	796.2230839002268	54	127
795.8167346938776	796.2230839002268	78	127
796.2927437641723	796.5713832199547	43	127
796.2927437641723	796.5713832199547	55	127
796.2927437641723	796.80358276644	50	127
796.2927437641723	798.661179138322	67	127
796.2927437641723	796.5713832199547	62	127
796.2927437641723	797.8484807256236	70	127
796.455283446712	796.80358276644	58	127
796.455283446712	797.8484807256236	79	127
796.455283446712	798.661179138322	74	127
796.80358276644	798.8004988662132	50	127
796.80358276644	798.8004988662132	58	127
797.8484807256236	798.661179138322	79	127
797.8484807256236	798.661179138322	70	127
798.8004988662132	800.9251247165533	55	127
798.8004988662132	800.9251247165533	50	127
798.8004988662132	800.9251247165533	58	127
798.8004988662132	800.9251247165533	67	127
798.8004988662132	800.9251247165533	70	127
798.8004988662132	800.9251247165533	74	127
801.0644444444445	804.3616780045352	50	127
801.0644444444445	804.3616780045352	58	127
801.0644444444445	804.3616780045352	50	127
801.0644444444445	804.3616780045352	43	127
801.0644444444445	804.3616780045352	67	127
801.0644444444445	804.3616780045352	62	127
804.5938775510205	807.4267120181406	50	127
804.5938775510205	807.4267120181406	62	127
804.5938775510205	805.6852154195011	62	127
804.5938775510205	807.4267120181406	58	127
804.5938775510205	805.6852154195011	50	127
804.5938775510205	807.4267120181406	43	127
805.8129251700681	807.4267120181406	62	127
805.8129251700681	807.4267120181406	50	127
807.6240816326531	815.2286167800454	62	127
807.6240816326531	815.2286167800454	58	127
807.6240816326531	815.2286167800454	62	127
807.6240816326531	815.2286167800454	50	127
807.6240816326531	815.2286167800454	43	127
807.6240816326531	815.2286167800454	50	127
