# onset,offset,note,velocity
0.034058956916099774	1.9497052154195011	74	127
0.034058956916099774	1.9497052154195011	50	127
0.034058956916099774	1.9497052154195011	62	127
1.9497052154195011	2.495374149659864	70	127
1.9497052154195011	2.495374149659864	82	127
1.9497052154195011	2.495374149659864	58	127
2.495374149659864	3.075873015873016	78	127
2.495374149659864	3.075873015873016	54	127
2.495374149659864	3.075873015873016	66	127
3.075873015873016	3.5867120181405894	67	127
3.075873015873016	3.5867120181405894	79	127
3.075873015873016	3.5867120181405894	55	127
3.679591836734694	4.225260770975057	77	127
3.679591836734694	4.225260770975057	65	127
3.679591836734694	4.225260770975057	53	127
4.225260770975057	4.770907029478458	72	127
4.225260770975057	4.770907029478458	48	127
4.225260770975057	4.770907029478458	60	127
4.770907029478458	5.293378684807256	63	127
4.770907029478458	5.293378684807256	75	127
4.770907029478458	5.293378684807256	51	127
5.293378684807256	5.792607709750567	62	127
5.293378684807256	5.792607709750567	74	127
5.293378684807256	5.792607709750567	50	127
5.873877551020408	6.407936507936508	60	127
5.873877551020408	6.407936507936508	72	127
5.873877551020408	6.407936507936508	48	127
6.407936507936508	6.9071655328798185	55	127
6.407936507936508	6.9071655328798185	67	127
6.407936507936508	6.9071655328798185	43	127
6.9071655328798185	7.487664399092971	58	127
6.9071655328798185	7.487664399092971	70	127
6.9071655328798185	7.487664399092971	46	127
7.487664399092971	7.90562358276644	57	127
7.487664399092971	7.90562358276644	69	127
7.487664399092971	9.020181405895691	45	127
7.986893424036281	8.52092970521542	62	127
7.986893424036281	8.52092970521542	66	127
7.986893424036281	9.020181405895691	33	127
8.52092970521542	9.948956916099773	61	127
8.52092970521542	9.948956916099773	64	127
9.147891156462585	10.494648526077098	38	127
9.948956916099773	10.529478458049887	62	127
10.610748299319727	12.805034013605443	26	127
10.610748299319727	12.805034013605443	38	127
11.30734693877551	11.84140589569161	62	127
11.30734693877551	11.84140589569161	65	127
11.30734693877551	11.84140589569161	57	127
11.84140589569161	12.363854875283447	55	127
11.84140589569161	12.363854875283447	58	127
11.84140589569161	12.363854875283447	61	127
12.363854875283447	12.839863945578232	53	127
12.363854875283447	12.839863945578232	57	127
12.363854875283447	12.839863945578232	62	127
12.921133786848072	13.861541950113379	28	127
12.921133786848072	13.861541950113379	40	127
13.455192743764172	14.47687074829932	60	127
13.455192743764172	14.47687074829932	67	127
13.455192743764172	14.47687074829932	55	127
13.989251700680272	15.068979591836735	29	127
13.989251700680272	15.068979591836735	41	127
14.604580498866213	15.115419501133786	57	127
14.604580498866213	15.115419501133786	65	127
15.20829931972789	16.055827664399093	33	127
15.20829931972789	16.055827664399093	45	127
15.719138321995464	16.96140589569161	60	127
15.719138321995464	16.96140589569161	65	127
15.719138321995464	16.96140589569161	72	127
16.299637188208617	17.356145124716555	34	127
16.299637188208617	17.356145124716555	46	127
16.96140589569161	17.472244897959182	62	127
16.96140589569161	17.472244897959182	70	127
17.553514739229026	18.61002267573696	35	127
17.553514739229026	18.61002267573696	47	127
18.14562358276644	18.72612244897959	62	127
18.14562358276644	18.72612244897959	67	127
18.14562358276644	18.72612244897959	74	127
18.72612244897959	19.260181405895693	60	127
18.72612244897959	19.67814058956916	36	127
18.72612244897959	19.67814058956916	48	127
18.72612244897959	19.71297052154195	67	127
19.260181405895693	19.71297052154195	58	127
19.260181405895693	19.71297052154195	63	127
19.89873015873016	20.421179138321996	62	127
19.89873015873016	20.421179138321996	66	127
19.89873015873016	20.421179138321996	38	127
19.89873015873016	20.421179138321996	50	127
19.89873015873016	20.421179138321996	57	127
20.502448979591836	21.0481179138322	58	127
20.502448979591836	21.0481179138322	67	127
20.502448979591836	21.0481179138322	39	127
20.502448979591836	21.0481179138322	51	127
20.502448979591836	21.663424036281178	55	127
21.0481179138322	21.663424036281178	57	127
21.0481179138322	21.663424036281178	63	127
21.0481179138322	21.663424036281178	36	127
21.0481179138322	21.663424036281178	48	127
21.663424036281178	22.220725623582766	54	127
21.663424036281178	22.220725623582766	57	127
21.663424036281178	22.220725623582766	62	127
21.663424036281178	22.220725623582766	38	127
21.663424036281178	22.220725623582766	50	127
22.313605442176872	22.870861678004534	55	127
22.313605442176872	22.870861678004534	58	127
22.313605442176872	22.870861678004534	31	127
22.313605442176872	22.870861678004534	43	127
24.658820861678006	25.75015873015873	77	127
24.658820861678006	25.75015873015873	86	127
24.658820861678006	25.75015873015873	65	127
24.658820861678006	25.75015873015873	74	127
24.658820861678006	26.20294784580499	82	127
24.658820861678006	26.20294784580499	70	127
25.75015873015873	26.20294784580499	75	127
25.75015873015873	26.20294784580499	84	127
25.75015873015873	26.20294784580499	63	127
25.75015873015873	26.20294784580499	72	127
26.89954648526077	27.93283446712018	81	127
26.89954648526077	27.93283446712018	87	127
26.89954648526077	27.93283446712018	91	127
26.89954648526077	27.93283446712018	69	127
26.89954648526077	27.93283446712018	75	127
26.89954648526077	27.93283446712018	79	127
27.93283446712018	28.408843537414967	82	127
27.93283446712018	28.408843537414967	86	127
27.93283446712018	28.408843537414967	89	127
27.93283446712018	28.408843537414967	70	127
27.93283446712018	28.408843537414967	74	127
27.93283446712018	28.408843537414967	77	127
29.08222222222222	29.314421768707483	77	127
29.08222222222222	29.314421768707483	80	127
29.08222222222222	29.314421768707483	89	127
29.08222222222222	29.314421768707483	68	127
29.314421768707483	29.581451247165532	79	127
29.314421768707483	29.581451247165532	87	127
29.314421768707483	29.581451247165532	67	127
29.314421768707483	29.581451247165532	75	127
29.60467120181406	29.83687074829932	79	127
29.60467120181406	29.83687074829932	87	127
29.60467120181406	29.83687074829932	67	127
29.60467120181406	29.83687074829932	75	127
29.83687074829932	30.06907029478458	77	127
29.83687074829932	30.06907029478458	86	127
29.83687074829932	30.06907029478458	65	127
29.83687074829932	30.06907029478458	74	127
30.080680272108843	30.74244897959184	75	127
30.080680272108843	30.74244897959184	84	127
30.080680272108843	30.74244897959184	63	127
30.080680272108843	30.74244897959184	72	127
30.87015873015873	31.148798185941043	77	127
30.87015873015873	31.148798185941043	86	127
30.87015873015873	31.148798185941043	65	127
30.87015873015873	31.148798185941043	74	127
31.160408163265306	31.392607709750568	80	127
31.160408163265306	31.392607709750568	89	127
31.160408163265306	31.392607709750568	68	127
31.160408163265306	31.392607709750568	77	127
31.392607709750568	31.636417233560092	79	127
31.392607709750568	31.636417233560092	87	127
31.392607709750568	31.636417233560092	67	127
31.392607709750568	31.636417233560092	75	127
31.648027210884354	31.915056689342403	79	127
31.648027210884354	31.915056689342403	87	127
31.648027210884354	31.915056689342403	67	127
31.648027210884354	31.915056689342403	75	127
31.915056689342403	32.15884353741497	65	127
31.915056689342403	32.15884353741497	74	127
31.915056689342403	32.15884353741497	77	127
31.915056689342403	32.15884353741497	86	127
32.170476190476194	32.84385487528345	75	127
32.170476190476194	32.84385487528345	84	127
32.170476190476194	32.84385487528345	63	127
32.170476190476194	32.84385487528345	72	127
32.92510204081633	33.19215419501134	77	127
32.92510204081633	33.19215419501134	86	127
32.92510204081633	33.19215419501134	65	127
32.92510204081633	33.19215419501134	74	127
33.2037641723356	33.49401360544218	82	127
33.2037641723356	33.49401360544218	91	127
33.2037641723356	33.49401360544218	70	127
33.2037641723356	33.49401360544218	79	127
33.49401360544218	33.72621315192744	80	127
33.49401360544218	33.72621315192744	89	127
33.49401360544218	33.72621315192744	68	127
33.49401360544218	33.72621315192744	77	127
33.7378231292517	33.97002267573696	80	127
33.7378231292517	33.97002267573696	89	127
33.7378231292517	33.97002267573696	68	127
33.7378231292517	33.97002267573696	77	127
33.97002267573696	34.23705215419501	79	127
33.97002267573696	34.23705215419501	88	127
33.97002267573696	34.23705215419501	67	127
33.97002267573696	34.23705215419501	76	127
34.26027210884354	34.794331065759636	80	127
34.26027210884354	34.794331065759636	89	127
34.26027210884354	34.794331065759636	68	127
34.26027210884354	34.794331065759636	77	127
34.794331065759636	35.0265306122449	79	127
34.794331065759636	35.0265306122449	87	127
34.794331065759636	35.0265306122449	67	127
34.794331065759636	35.0265306122449	75	127
35.32836734693878	35.827619047619045	79	127
35.32836734693878	35.827619047619045	87	127
35.32836734693878	35.827619047619045	67	127
35.32836734693878	35.827619047619045	75	127
35.827619047619045	36.09462585034014	77	127
35.827619047619045	36.09462585034014	86	127
35.827619047619045	36.09462585034014	65	127
35.827619047619045	36.09462585034014	74	127
36.35004535147392	36.89573696145125	77	127
36.35004535147392	36.89573696145125	86	127
36.35004535147392	36.89573696145125	65	127
36.35004535147392	36.89573696145125	74	127
36.89573696145125	37.13954648526077	76	127
36.89573696145125	37.13954648526077	85	127
36.89573696145125	37.13954648526077	64	127
36.89573696145125	37.13954648526077	73	127
37.45301587301587	39.02036281179139	76	127
37.45301587301587	39.02036281179139	85	127
37.45301587301587	39.02036281179139	64	127
37.45301587301587	39.02036281179139	73	127
39.02036281179139	39.4847619047619	75	127
39.02036281179139	39.4847619047619	84	127
39.02036281179139	39.4847619047619	63	127
39.02036281179139	39.4847619047619	72	127
39.56603174603175	41.11015873015873	80	127
39.56603174603175	41.11015873015873	83	127
39.56603174603175	41.11015873015873	68	127
39.56603174603175	41.11015873015873	71	127
41.11015873015873	41.58616780045352	79	127
41.11015873015873	41.58616780045352	82	127
41.11015873015873	41.58616780045352	67	127
41.11015873015873	41.58616780045352	70	127
41.667414965986396	42.41047619047619	77	127
41.667414965986396	42.41047619047619	81	127
41.667414965986396	42.41047619047619	65	127
41.667414965986396	42.41047619047619	69	127
42.41047619047619	42.74716553287982	75	127
42.41047619047619	42.74716553287982	79	127
42.41047619047619	42.74716553287982	63	127
42.41047619047619	42.74716553287982	67	127
42.74716553287982	43.03741496598639	81	127
42.74716553287982	43.03741496598639	89	127
42.74716553287982	43.03741496598639	69	127
42.74716553287982	43.03741496598639	77	127
43.03741496598639	43.30444444444444	79	127
43.03741496598639	43.30444444444444	87	127
43.03741496598639	43.30444444444444	67	127
43.03741496598639	43.30444444444444	75	127
43.30444444444444	43.571451247165534	77	127
43.30444444444444	43.571451247165534	86	127
43.30444444444444	43.571451247165534	65	127
43.30444444444444	43.571451247165534	74	127
43.571451247165534	43.83850340136055	75	127
43.571451247165534	43.83850340136055	84	127
43.571451247165534	43.83850340136055	63	127
43.571451247165534	43.83850340136055	72	127
43.83850340136055	44.9646485260771	74	127
43.83850340136055	44.9646485260771	82	127
43.83850340136055	44.9646485260771	62	127
43.83850340136055	44.9646485260771	70	127
44.9646485260771	45.37102040816327	72	127
44.9646485260771	45.37102040816327	81	127
44.9646485260771	45.37102040816327	60	127
44.9646485260771	45.37102040816327	69	127
46.04439909297052	46.555238095238096	65	127
46.04439909297052	46.555238095238096	77	127
46.04439909297052	46.555238095238096	41	127
46.04439909297052	46.555238095238096	53	127
46.555238095238096	47.100907029478456	77	127
46.555238095238096	47.100907029478456	89	127
46.555238095238096	47.100907029478456	53	127
46.555238095238096	47.100907029478456	65	127
47.100907029478456	47.704625850340136	72	127
47.100907029478456	47.704625850340136	84	127
47.100907029478456	47.704625850340136	48	127
47.100907029478456	47.704625850340136	60	127
47.704625850340136	48.22707482993197	73	127
47.704625850340136	48.22707482993197	85	127
47.704625850340136	48.22707482993197	49	127
47.704625850340136	48.22707482993197	61	127
48.31995464852608	48.86562358276644	54	127
48.31995464852608	48.86562358276644	30	127
48.86562358276644	49.388072562358275	42	127
48.86562358276644	49.388072562358275	66	127
49.388072562358275	49.887301587301586	36	127
49.388072562358275	49.887301587301586	60	127
49.887301587301586	50.29365079365079	61	127
49.887301587301586	50.29365079365079	37	127
50.444580498866216	51.0134693877551	54	127
50.444580498866216	51.0134693877551	30	127
51.0134693877551	51.582358276643994	66	127
51.0134693877551	51.582358276643994	42	127
51.582358276643994	52.0815873015873	60	127
51.582358276643994	52.0815873015873	36	127
52.0815873015873	52.511156462585035	61	127
52.0815873015873	52.511156462585035	37	127
52.72013605442177	54.357142857142854	60	127
52.72013605442177	53.28902494331066	36	127
53.28902494331066	53.83469387755102	58	127
53.28902494331066	53.83469387755102	34	127
53.83469387755102	54.357142857142854	56	127
53.83469387755102	54.357142857142854	32	127
54.357142857142854	54.763492063492066	55	127
54.357142857142854	54.763492063492066	60	127
54.357142857142854	54.763492063492066	31	127
54.357142857142854	54.763492063492066	43	127
54.8447619047619	55.297551020408164	54	127
54.8447619047619	55.297551020408164	30	127
54.8447619047619	55.297551020408164	42	127
55.378820861678	55.92448979591837	75	127
55.378820861678	55.92448979591837	84	127
55.378820861678	55.92448979591837	87	127
55.378820861678	55.92448979591837	60	127
55.378820861678	55.92448979591837	63	127
55.378820861678	56.493378684807254	54	127
55.92448979591837	56.493378684807254	74	127
55.92448979591837	56.493378684807254	82	127
55.92448979591837	56.493378684807254	86	127
55.92448979591837	56.493378684807254	58	127
55.92448979591837	56.493378684807254	62	127
56.493378684807254	56.95777777777778	54	127
56.493378684807254	56.95777777777778	57	127
56.493378684807254	56.95777777777778	60	127
56.493378684807254	57.526666666666664	72	127
56.493378684807254	57.526666666666664	81	127
56.493378684807254	57.526666666666664	84	127
57.03904761904762	57.526666666666664	43	127
57.03904761904762	57.526666666666664	55	127
57.60793650793651	57.712426303854876	82	127
57.60793650793651	58.07233560090703	70	127
57.60793650793651	58.07233560090703	79	127
57.60793650793651	58.07233560090703	39	127
57.60793650793651	58.07233560090703	51	127
57.712426303854876	57.79369614512472	84	127
57.79369614512472	57.88657596371882	82	127
57.88657596371882	58.025895691609975	81	127
58.025895691609975	58.15360544217687	82	127
58.15360544217687	58.583174603174605	72	127
58.15360544217687	58.583174603174605	81	127
58.15360544217687	58.583174603174605	84	127
58.15360544217687	58.583174603174605	36	127
58.15360544217687	58.583174603174605	48	127
58.66444444444444	59.128843537414966	69	127
58.66444444444444	59.128843537414966	72	127
58.66444444444444	59.128843537414966	78	127
58.66444444444444	59.128843537414966	81	127
58.66444444444444	59.128843537414966	38	127
58.66444444444444	59.128843537414966	50	127
59.233333333333334	59.79061224489796	67	127
59.233333333333334	59.79061224489796	70	127
59.233333333333334	59.79061224489796	74	127
59.233333333333334	59.79061224489796	79	127
59.233333333333334	59.79061224489796	43	127
59.233333333333334	59.79061224489796	46	127
59.233333333333334	59.79061224489796	50	127
59.233333333333334	59.79061224489796	55	127
60.812290249433104	60.928390022675735	58	127
60.812290249433104	60.928390022675735	34	127
60.928390022675735	61.05609977324263	57	127
60.928390022675735	61.05609977324263	33	127
61.05609977324263	61.195419501133784	58	127
61.05609977324263	61.195419501133784	34	127
61.195419501133784	61.29990929705215	55	127
61.195419501133784	61.29990929705215	31	127
61.311519274376415	61.70625850340136	57	127
61.311519274376415	61.70625850340136	60	127
61.311519274376415	61.70625850340136	65	127
61.311519274376415	61.70625850340136	33	127
61.311519274376415	61.70625850340136	45	127
62.797596371882086	62.91369614512472	62	127
62.797596371882086	62.91369614512472	38	127
62.91369614512472	63.02979591836735	60	127
62.91369614512472	63.02979591836735	36	127
63.02979591836735	63.15750566893424	62	127
63.02979591836735	63.15750566893424	38	127
63.15750566893424	63.27360544217687	58	127
63.15750566893424	63.27360544217687	34	127
63.27360544217687	63.72639455782313	58	127
63.27360544217687	63.72639455782313	64	127
63.27360544217687	63.72639455782313	67	127
63.27360544217687	63.72639455782313	36	127
63.27360544217687	63.72639455782313	48	127
64.75968253968254	64.87578231292517	64	127
64.75968253968254	64.87578231292517	40	127
64.87578231292517	65.00349206349206	62	127
64.87578231292517	65.00349206349206	38	127
65.00349206349206	65.177641723356	64	127
65.00349206349206	65.177641723356	40	127
65.177641723356	65.29374149659864	61	127
65.177641723356	65.29374149659864	37	127
65.80458049886622	65.93229024943311	66	127
65.80458049886622	65.93229024943311	42	127
65.93229024943311	66.08321995464853	64	127
65.93229024943311	66.08321995464853	40	127
66.08321995464853	66.1992970521542	66	127
66.08321995464853	66.1992970521542	42	127
66.1992970521542	66.31541950113379	62	127
66.1992970521542	66.31541950113379	38	127
66.82625850340136	66.95396825396826	67	127
66.82625850340136	66.95396825396826	43	127
66.95396825396826	67.08167800453515	66	127
66.95396825396826	67.08167800453515	42	127
67.08167800453515	67.19777777777777	67	127
67.08167800453515	67.19777777777777	43	127
67.19777777777777	67.32548752834467	64	127
67.19777777777777	67.32548752834467	40	127
67.83632653061224	67.95242630385488	69	127
67.83632653061224	67.95242630385488	45	127
67.95242630385488	68.09174603174603	67	127
67.95242630385488	68.09174603174603	43	127
68.09174603174603	68.20784580498866	69	127
68.09174603174603	68.20784580498866	45	127
68.20784580498866	68.32394557823129	66	127
68.20784580498866	68.32394557823129	42	127
68.32394557823129	68.44004535147393	70	127
68.32394557823129	68.44004535147393	46	127
68.44004535147393	68.53292517006803	69	127
68.44004535147393	68.53292517006803	45	127
68.53292517006803	68.64902494331066	70	127
68.53292517006803	68.64902494331066	46	127
68.64902494331066	68.76512471655329	67	127
68.64902494331066	68.76512471655329	43	127
68.76512471655329	68.89283446712018	72	127
68.76512471655329	68.89283446712018	48	127
68.89283446712018	69.0437641723356	70	127
68.89283446712018	69.0437641723356	46	127
69.0437641723356	69.17147392290249	72	127
69.0437641723356	69.17147392290249	48	127
69.17147392290249	69.28757369614513	69	127
69.17147392290249	69.28757369614513	45	127
69.78680272108843	69.9028798185941	74	127
69.78680272108843	69.9028798185941	50	127
69.9028798185941	70.030589569161	72	127
69.9028798185941	70.030589569161	48	127
70.030589569161	70.12349206349207	74	127
70.030589569161	70.12349206349207	50	127
70.12349206349207	70.23959183673469	71	127
70.12349206349207	70.23959183673469	47	127
70.23959183673469	70.35569160997733	75	127
70.23959183673469	70.35569160997733	51	127
70.35569160997733	70.48340136054422	74	127
70.35569160997733	70.48340136054422	50	127
70.48340136054422	70.61111111111111	75	127
70.48340136054422	70.61111111111111	51	127
70.61111111111111	70.72721088435374	72	127
70.61111111111111	70.72721088435374	48	127
70.72721088435374	70.8317006802721	77	127
70.72721088435374	70.8317006802721	53	127
70.8317006802721	70.959410430839	75	127
70.8317006802721	70.959410430839	51	127
70.959410430839	71.07551020408164	77	127
70.959410430839	71.07551020408164	53	127
71.07551020408164	71.20321995464853	74	127
71.07551020408164	71.20321995464853	50	127
71.20321995464853	71.42380952380952	67	127
71.20321995464853	71.42380952380952	76	127
71.20321995464853	71.42380952380952	79	127
71.20321995464853	71.42380952380952	49	127
71.20321995464853	71.42380952380952	61	127
71.78371882086168	72.22489795918368	55	127
71.78371882086168	72.22489795918368	64	127
71.78371882086168	72.22489795918368	67	127
71.78371882086168	72.22489795918368	37	127
71.78371882086168	72.22489795918368	49	127
72.22489795918368	72.61963718820861	54	127
72.22489795918368	72.61963718820861	63	127
72.22489795918368	72.61963718820861	66	127
72.22489795918368	72.61963718820861	36	127
72.22489795918368	72.61963718820861	48	127
72.70090702947846	73.17689342403628	66	127
72.70090702947846	73.17689342403628	75	127
72.70090702947846	73.17689342403628	78	127
72.70090702947846	73.17689342403628	48	127
72.70090702947846	73.17689342403628	60	127
73.17689342403628	73.57165532879819	67	127
73.17689342403628	73.57165532879819	74	127
73.17689342403628	73.57165532879819	79	127
73.17689342403628	73.57165532879819	46	127
73.17689342403628	73.57165532879819	58	127
73.65292517006803	73.78063492063492	55	127
73.65292517006803	73.78063492063492	58	127
73.65292517006803	73.78063492063492	67	127
73.65292517006803	73.78063492063492	39	127
73.65292517006803	73.78063492063492	51	127
74.15215419501133	74.26825396825397	57	127
74.15215419501133	74.26825396825397	63	127
74.15215419501133	74.26825396825397	69	127
74.15215419501133	74.26825396825397	36	127
74.15215419501133	74.26825396825397	48	127
74.62816326530613	74.75587301587302	57	127
74.62816326530613	74.75587301587302	62	127
74.62816326530613	74.75587301587302	66	127
74.62816326530613	74.75587301587302	38	127
74.62816326530613	74.75587301587302	50	127
75.12739229024943	75.59179138321996	55	127
75.12739229024943	75.59179138321996	67	127
75.12739229024943	75.59179138321996	31	127
75.12739229024943	75.59179138321996	43	127
75.66145124716553	75.81238095238095	79	127
75.66145124716553	75.81238095238095	55	127
75.81238095238095	75.91687074829932	78	127
75.81238095238095	75.91687074829932	54	127
75.91687074829932	76.04458049886621	79	127
75.91687074829932	76.04458049886621	55	127
76.04458049886621	76.12585034013605	67	127
76.04458049886621	76.12585034013605	43	127
76.16068027210885	76.24192743764172	63	127
76.16068027210885	76.24192743764172	75	127
76.16068027210885	76.24192743764172	39	127
76.16068027210885	76.24192743764172	51	127
76.63668934240363	76.85725623582766	75	127
76.63668934240363	76.85725623582766	51	127
76.85725623582766	76.97337868480726	74	127
76.85725623582766	76.97337868480726	50	127
76.97337868480726	77.10108843537415	75	127
76.97337868480726	77.10108843537415	51	127
77.10108843537415	77.182358276644	63	127
77.10108843537415	77.182358276644	39	127
77.21718820861678	77.31006802721089	60	127
77.21718820861678	77.31006802721089	72	127
77.21718820861678	77.31006802721089	36	127
77.21718820861678	77.31006802721089	48	127
77.72802721088435	77.85573696145124	72	127
77.72802721088435	77.85573696145124	48	127
77.85573696145124	77.97183673469388	71	127
77.85573696145124	77.97183673469388	47	127
77.97183673469388	78.09954648526077	72	127
77.97183673469388	78.09954648526077	48	127
78.09954648526077	78.2156462585034	60	127
78.09954648526077	78.2156462585034	36	127
78.2156462585034	78.30852607709751	62	127
78.2156462585034	78.30852607709751	74	127
78.2156462585034	78.30852607709751	38	127
78.2156462585034	78.30852607709751	50	127
78.70326530612245	78.83097505668934	74	127
78.70326530612245	78.83097505668934	50	127
78.83097505668934	78.94707482993198	73	127
78.83097505668934	78.94707482993198	49	127
78.94707482993198	79.05156462585035	74	127
78.94707482993198	79.05156462585035	50	127
79.05156462585035	79.17927437641724	62	127
79.05156462585035	79.17927437641724	38	127
79.17927437641724	79.34181405895691	67	127
79.17927437641724	79.34181405895691	79	127
79.17927437641724	79.34181405895691	43	127
79.17927437641724	79.34181405895691	55	127
79.73655328798186	79.86426303854876	79	127
79.73655328798186	79.86426303854876	55	127
79.86426303854876	79.99197278911565	54	127
79.86426303854876	79.99197278911565	78	127
79.99197278911565	80.11968253968254	79	127
79.99197278911565	80.11968253968254	55	127
80.11968253968254	80.23578231292517	67	127
80.11968253968254	80.23578231292517	43	127
80.23578231292517	80.31705215419501	63	127
80.23578231292517	80.31705215419501	75	127
80.23578231292517	80.31705215419501	39	127
80.23578231292517	80.31705215419501	51	127
80.73501133786849	80.85111111111111	75	127
80.73501133786849	80.85111111111111	51	127
80.85111111111111	80.96721088435375	74	127
80.85111111111111	80.96721088435375	50	127
80.96721088435375	81.06009070294785	75	127
80.96721088435375	81.06009070294785	51	127
81.06009070294785	81.17616780045351	63	127
81.06009070294785	81.17616780045351	39	127
81.18780045351474	81.25746031746031	60	127
81.18780045351474	81.25746031746031	72	127
81.18780045351474	81.25746031746031	36	127
81.18780045351474	81.25746031746031	48	127
81.67541950113379	81.81471655328798	72	127
81.67541950113379	81.81471655328798	48	127
81.81471655328798	81.9192290249433	71	127
81.81471655328798	81.9192290249433	47	127
81.9192290249433	82.05854875283447	72	127
81.9192290249433	82.05854875283447	48	127
82.05854875283447	82.17464852607709	60	127
82.05854875283447	82.17464852607709	36	127
82.18625850340136	82.2675283446712	62	127
82.18625850340136	82.2675283446712	74	127
82.18625850340136	82.2675283446712	38	127
82.18625850340136	82.2675283446712	50	127
82.70868480725623	82.82480725623583	74	127
82.70868480725623	82.82480725623583	50	127
82.82480725623583	82.9408843537415	73	127
82.82480725623583	82.9408843537415	49	127
82.9408843537415	83.08022675736962	74	127
82.9408843537415	83.08022675736962	50	127
83.08022675736962	83.2195238095238	62	127
83.08022675736962	83.2195238095238	38	127
83.28920634920635	83.35886621315193	63	127
83.28920634920635	83.35886621315193	75	127
83.28920634920635	83.35886621315193	39	127
83.28920634920635	83.35886621315193	51	127
83.76521541950113	83.88131519274377	75	127
83.76521541950113	83.88131519274377	51	127
83.88131519274377	84.03224489795919	74	127
83.88131519274377	84.03224489795919	50	127
84.03224489795919	84.17156462585034	75	127
84.03224489795919	84.17156462585034	51	127
84.17156462585034	84.28766439909298	63	127
84.17156462585034	84.28766439909298	39	127
84.3108843537415	84.4037641723356	58	127
84.3108843537415	84.4037641723356	70	127
84.3108843537415	84.4037641723356	34	127
84.3108843537415	84.4037641723356	46	127
84.8449433106576	84.94943310657597	70	127
84.8449433106576	84.94943310657597	46	127
84.94943310657597	85.05392290249434	69	127
84.94943310657597	85.05392290249434	45	127
85.05392290249434	85.1584126984127	70	127
85.05392290249434	85.1584126984127	46	127
85.1584126984127	85.27451247165533	58	127
85.1584126984127	85.27451247165533	34	127
85.2861224489796	85.36736961451247	55	127
85.2861224489796	85.36736961451247	67	127
85.2861224489796	85.36736961451247	31	127
85.2861224489796	85.36736961451247	43	127
85.80857142857143	85.92467120181406	67	127
85.80857142857143	85.92467120181406	43	127
85.92467120181406	86.04077097505669	66	127
85.92467120181406	86.04077097505669	42	127
86.04077097505669	86.14526077097506	67	127
86.04077097505669	86.14526077097506	43	127
86.14526077097506	86.24975056689343	55	127
86.14526077097506	86.24975056689343	31	127
86.26133786848072	86.34263038548752	56	127
86.26133786848072	86.34263038548752	68	127
86.26133786848072	86.34263038548752	32	127
86.26133786848072	86.34263038548752	44	127
86.74895691609977	86.86507936507937	68	127
86.74895691609977	86.86507936507937	44	127
86.86507936507937	86.95795918367347	67	127
86.86507936507937	86.95795918367347	43	127
86.95795918367347	87.05083900226758	68	127
86.95795918367347	87.05083900226758	44	127
87.05083900226758	87.13208616780045	56	127
87.05083900226758	87.13208616780045	32	127
87.14371882086168	87.39913832199547	57	127
87.14371882086168	87.39913832199547	69	127
87.14371882086168	87.39913832199547	33	127
87.14371882086168	87.39913832199547	45	127
89.34961451247166	89.88367346938776	79	127
89.34961451247166	89.88367346938776	74	127
89.34961451247166	89.88367346938776	82	127
89.34961451247166	89.88367346938776	62	127
89.34961451247166	89.88367346938776	67	127
89.34961451247166	89.88367346938776	70	127
89.88367346938776	90.40612244897959	72	127
89.88367346938776	90.40612244897959	78	127
89.88367346938776	90.40612244897959	81	127
89.88367346938776	90.40612244897959	60	127
89.88367346938776	90.40612244897959	66	127
89.88367346938776	90.40612244897959	69	127
90.40612244897959	90.96337868480725	70	127
90.40612244897959	90.96337868480725	74	127
90.40612244897959	90.96337868480725	79	127
90.40612244897959	90.96337868480725	58	127
90.40612244897959	90.96337868480725	62	127
90.40612244897959	90.96337868480725	67	127
90.96337868480725	91.33492063492064	67	127
90.96337868480725	91.33492063492064	74	127
90.96337868480725	91.33492063492064	77	127
90.96337868480725	91.33492063492064	55	127
90.96337868480725	91.33492063492064	62	127
90.96337868480725	91.33492063492064	65	127
93.61047619047619	94.10968253968254	72	127
93.61047619047619	94.10968253968254	77	127
93.61047619047619	94.10968253968254	81	127
93.61047619047619	94.10968253968254	60	127
93.61047619047619	94.10968253968254	65	127
93.61047619047619	94.10968253968254	69	127
94.10968253968254	94.67859410430839	71	127
94.10968253968254	94.67859410430839	74	127
94.10968253968254	94.67859410430839	79	127
94.10968253968254	94.67859410430839	59	127
94.10968253968254	94.67859410430839	62	127
94.10968253968254	94.67859410430839	67	127
94.67859410430839	95.21265306122449	69	127
94.67859410430839	95.21265306122449	72	127
94.67859410430839	95.21265306122449	77	127
94.67859410430839	95.21265306122449	57	127
94.67859410430839	95.21265306122449	60	127
94.67859410430839	95.21265306122449	65	127
95.21265306122449	95.63061224489796	67	127
95.21265306122449	95.63061224489796	74	127
95.21265306122449	95.63061224489796	55	127
95.21265306122449	95.63061224489796	62	127
97.98743764172336	98.44022675736962	69	127
97.98743764172336	98.44022675736962	74	127
97.98743764172336	98.44022675736962	77	127
97.98743764172336	98.44022675736962	38	127
98.44022675736962	98.9162358276644	65	127
98.44022675736962	98.9162358276644	69	127
98.44022675736962	98.9162358276644	74	127
98.44022675736962	98.9162358276644	41	127
98.9162358276644	99.45029478458049	62	127
98.9162358276644	99.45029478458049	65	127
98.9162358276644	99.45029478458049	71	127
98.9162358276644	99.45029478458049	47	127
99.45029478458049	99.89147392290249	60	127
99.45029478458049	99.89147392290249	65	127
99.45029478458049	99.89147392290249	69	127
99.45029478458049	99.89147392290249	50	127
99.97274376417234	100.37909297052154	59	127
99.97274376417234	100.37909297052154	64	127
99.97274376417234	100.37909297052154	68	127
99.97274376417234	100.46036281179138	52	127
100.46036281179138	100.69256235827665	60	127
100.46036281179138	100.69256235827665	66	127
100.46036281179138	100.69256235827665	69	127
100.46036281179138	100.95959183673469	50	127
100.71578231292517	100.95959183673469	62	127
100.71578231292517	100.95959183673469	68	127
100.71578231292517	100.95959183673469	71	127
100.95959183673469	101.37755102040816	64	127
100.95959183673469	101.37755102040816	69	127
100.95959183673469	101.37755102040816	72	127
100.95959183673469	101.458820861678	48	127
101.458820861678	101.72585034013605	66	127
101.458820861678	101.72585034013605	74	127
101.458820861678	101.88839002267574	47	127
101.73746031746032	101.96965986394558	68	127
101.73746031746032	101.96965986394558	74	127
101.73746031746032	101.96965986394558	76	127
101.96965986394558	102.45727891156463	69	127
101.96965986394558	102.45727891156463	72	127
101.96965986394558	102.45727891156463	77	127
101.96965986394558	102.45727891156463	45	127
102.45727891156463	103.00294784580498	71	127
102.45727891156463	103.00294784580498	74	127
102.45727891156463	103.00294784580498	79	127
102.45727891156463	103.00294784580498	43	127
103.00294784580498	103.5370068027211	72	127
103.00294784580498	103.5370068027211	77	127
103.00294784580498	103.5370068027211	81	127
103.00294784580498	103.5370068027211	41	127
103.5370068027211	103.98979591836735	74	127
103.5370068027211	103.98979591836735	80	127
103.5370068027211	103.98979591836735	83	127
103.5370068027211	103.98979591836735	40	127
104.11750566893424	104.58190476190477	76	127
104.11750566893424	104.58190476190477	79	127
104.11750566893424	104.58190476190477	85	127
104.11750566893424	104.58190476190477	33	127
104.11750566893424	104.58190476190477	45	127
104.6631746031746	105.31333333333333	70	127
104.6631746031746	105.31333333333333	79	127
104.6631746031746	105.31333333333333	82	127
104.6631746031746	105.31333333333333	67	127
104.6631746031746	105.81256235827665	57	127
105.31333333333333	105.81256235827665	69	127
105.31333333333333	105.81256235827665	77	127
105.31333333333333	105.81256235827665	81	127
105.31333333333333	105.81256235827665	65	127
105.81256235827665	106.41628117913832	67	127
105.81256235827665	106.41628117913832	76	127
105.81256235827665	106.41628117913832	79	127
105.81256235827665	106.41628117913832	57	127
105.81256235827665	106.41628117913832	64	127
106.59043083900227	106.86907029478458	77	127
106.59043083900227	106.86907029478458	65	127
106.59043083900227	107.56566893424036	38	127
106.59043083900227	107.56566893424036	50	127
106.86907029478458	107.11287981859411	74	127
106.86907029478458	107.11287981859411	62	127
107.11287981859411	107.3682993197279	69	127
107.11287981859411	107.3682993197279	57	127
107.3682993197279	107.69337868480726	65	127
107.3682993197279	107.69337868480726	53	127
107.69337868480726	107.97201814058957	76	127
107.69337868480726	107.97201814058957	64	127
107.69337868480726	108.61056689342404	50	127
107.97201814058957	108.21582766439909	74	127
107.97201814058957	108.21582766439909	62	127
108.21582766439909	108.48285714285714	70	127
108.21582766439909	108.48285714285714	58	127
108.48285714285714	108.8079365079365	64	127
108.48285714285714	108.8079365079365	52	127
108.8079365079365	109.06335600907029	77	127
108.8079365079365	109.06335600907029	65	127
108.8079365079365	110.20113378684808	38	127
108.8079365079365	110.20113378684808	50	127
109.06335600907029	109.33038548752835	74	127
109.06335600907029	109.33038548752835	62	127
109.33038548752835	109.58580498866213	69	127
109.33038548752835	109.58580498866213	57	127
109.58580498866213	109.80639455782313	65	127
109.58580498866213	109.80639455782313	53	127
109.80639455782313	110.06181405895691	69	127
109.80639455782313	110.06181405895691	57	127
110.06181405895691	110.32884353741497	65	127
110.06181405895691	110.32884353741497	53	127
110.32884353741497	110.6307029478458	62	127
110.32884353741497	110.6307029478458	50	127
110.32884353741497	110.93256235827664	41	127
110.6307029478458	110.93256235827664	57	127
110.6307029478458	110.93256235827664	45	127
110.93256235827664	111.1995918367347	50	127
110.93256235827664	111.1995918367347	62	127
110.93256235827664	111.37374149659864	40	127
111.1995918367347	111.47823129251701	44	127
111.1995918367347	111.47823129251701	56	127
111.47823129251701	111.7336507936508	52	127
111.47823129251701	111.7336507936508	64	127
111.47823129251701	111.97746031746031	33	127
111.47823129251701	111.97746031746031	45	127
111.7336507936508	111.97746031746031	55	127
111.97746031746031	112.25609977324262	50	127
111.97746031746031	112.25609977324262	62	127
111.97746031746031	112.55795918367347	29	127
111.97746031746031	112.55795918367347	41	127
112.25609977324262	112.55795918367347	57	127
112.55795918367347	112.94108843537416	53	127
112.55795918367347	112.94108843537416	65	127
112.55795918367347	113.2081179138322	26	127
112.55795918367347	113.2081179138322	38	127
112.94108843537416	113.27777777777777	57	127
112.94108843537416	113.27777777777777	62	127
113.27777777777777	113.5564172335601	57	127
113.27777777777777	113.5564172335601	60	127
113.27777777777777	114.22979591836734	28	127
113.27777777777777	114.22979591836734	40	127
113.5564172335601	113.81183673469388	59	127
113.5564172335601	113.81183673469388	62	127
113.81183673469388	114.0904761904762	60	127
113.81183673469388	114.0904761904762	64	127
114.0904761904762	114.40394557823129	57	127
114.0904761904762	114.40394557823129	60	127
114.40394557823129	114.72902494331066	62	127
114.40394557823129	114.72902494331066	65	127
114.40394557823129	115.35596371882086	40	127
114.40394557823129	115.35596371882086	52	127
114.72902494331066	114.97283446712018	61	127
114.72902494331066	114.97283446712018	64	127
114.97283446712018	115.22825396825397	62	127
114.97283446712018	115.22825396825397	65	127
115.22825396825397	115.4720634920635	59	127
115.22825396825397	115.4720634920635	62	127
115.48367346938775	116.40086167800453	33	127
115.48367346938775	116.40086167800453	45	127
115.73909297052154	115.99451247165533	61	127
115.99451247165533	116.28476190476191	64	127
116.28476190476191	116.55179138321995	52	127
116.56340136054422	116.77238095238096	65	127
116.77238095238096	116.9465306122449	62	127
116.87687074829932	117.45736961451247	33	127
116.87687074829932	117.45736961451247	45	127
116.95814058956915	117.10907029478459	53	127
117.12068027210884	117.36448979591837	65	127
117.36448979591837	117.52702947845805	62	127
117.45736961451247	117.70117913832199	33	127
117.53863945578232	117.68956916099773	53	127
117.70117913832199	117.99142857142857	78	127
117.70117913832199	118.24684807256236	66	127
117.70117913832199	118.66480725623583	26	127
117.70117913832199	118.66480725623583	38	127
117.99142857142857	118.24684807256236	74	127
118.24684807256236	118.49065759637188	69	127
118.24684807256236	118.49065759637188	57	127
118.49065759637188	118.7692970521542	66	127
118.49065759637188	118.7692970521542	54	127
118.78090702947846	119.07115646258504	81	127
118.78090702947846	119.32657596371882	69	127
118.78090702947846	119.82580498866213	36	127
118.78090702947846	119.82580498866213	48	127
119.07115646258504	119.32657596371882	78	127
119.32657596371882	119.59360544217687	75	127
119.32657596371882	119.59360544217687	63	127
119.59360544217687	119.91868480725624	69	127
119.59360544217687	119.91868480725624	57	127
119.9302947845805	120.3366439909297	35	127
119.9302947845805	120.3366439909297	47	127
120.09283446712018	120.25537414965986	79	127
120.09283446712018	120.41791383219955	67	127
120.25537414965986	120.41791383219955	74	127
120.41791383219955	120.60367346938776	62	127
120.41791383219955	120.85909297052154	67	127
120.60367346938776	120.76621315192743	55	127
120.76621315192743	120.92875283446712	50	127
120.94036281179139	121.38154195011337	34	127
120.94036281179139	121.38154195011337	46	127
121.12612244897959	121.28866213151927	79	127
121.12612244897959	121.47442176870749	67	127
121.28866213151927	121.47442176870749	74	127
121.47442176870749	121.64857142857143	62	127
121.47442176870749	121.93882086167801	67	127
121.64857142857143	121.85755102040817	55	127
121.85755102040817	122.03170068027211	50	127
122.04331065759636	122.48448979591836	33	127
122.04331065759636	122.48448979591836	45	127
122.21746031746032	122.39160997732426	78	127
122.21746031746032	122.56575963718821	66	127
122.39160997732426	122.56575963718821	74	127
122.56575963718821	122.70507936507937	62	127
122.56575963718821	122.94888888888889	66	127
122.70507936507937	122.86761904761904	57	127
122.86761904761904	123.01854875283446	50	127
123.03015873015873	123.51777777777778	32	127
123.03015873015873	123.51777777777778	44	127
123.2275283446712	123.42489795918367	77	127
123.2275283446712	123.59904761904762	65	127
123.42489795918367	123.59904761904762	74	127
123.59904761904762	123.81963718820862	62	127
123.59904761904762	124.09827664399093	65	127
123.81963718820862	124.01700680272108	53	127
124.01700680272108	124.1679365079365	50	127
124.17954648526077	124.58589569160998	31	127
124.17954648526077	124.58589569160998	43	127
124.30725623582767	124.50462585034013	74	127
124.30725623582767	124.66716553287982	62	127
124.50462585034013	124.66716553287982	70	127
124.66716553287982	124.8297052154195	62	127
124.66716553287982	125.08512471655328	64	127
124.8297052154195	125.00385487528345	58	127
125.00385487528345	125.15478458049887	52	127
125.16639455782312	125.70045351473922	33	127
125.16639455782312	125.70045351473922	45	127
125.38698412698413	125.59596371882085	73	127
125.38698412698413	125.78172335600907	61	127
125.59596371882085	125.78172335600907	69	127
125.78172335600907	126.00231292517007	55	127
125.78172335600907	126.09519274376417	64	127
126.00231292517007	126.22290249433107	52	127
126.09519274376417	126.40866213151928	57	127
126.09519274376417	126.40866213151928	69	127
126.22290249433107	126.39705215419501	45	127
126.40866213151928	127.5348299319728	65	127
126.40866213151928	127.5348299319728	77	127
126.40866213151928	127.5348299319728	38	127
126.40866213151928	127.5348299319728	50	127
127.5348299319728	128.04566893424035	67	127
127.5348299319728	128.04566893424035	79	127
127.5348299319728	128.04566893424035	36	127
127.5348299319728	128.04566893424035	48	127
128.04566893424035	128.60292517006803	68	127
128.04566893424035	128.60292517006803	80	127
128.04566893424035	128.60292517006803	34	127
128.04566893424035	128.60292517006803	46	127
128.6958276643991	129.21825396825398	33	127
128.6958276643991	129.21825396825398	45	127
128.6958276643991	129.46208616780046	69	127
128.6958276643991	129.46208616780046	81	127
129.21825396825398	130.18190476190478	26	127
129.21825396825398	130.18190476190478	38	127
129.46208616780046	129.72909297052155	65	127
129.46208616780046	129.72909297052155	77	127
129.72909297052155	130.21673469387756	62	127
129.72909297052155	130.21673469387756	74	127
130.29800453514738	130.72757369614513	29	127
130.29800453514738	130.72757369614513	41	127
130.29800453514738	130.80884353741496	57	127
130.29800453514738	130.80884353741496	69	127
130.80884353741496	131.28485260770975	28	127
130.80884353741496	131.28485260770975	40	127
130.80884353741496	131.36612244897958	59	127
130.80884353741496	131.36612244897958	71	127
131.36612244897958	131.8073015873016	61	127
131.36612244897958	131.8073015873016	73	127
131.36612244897958	131.9001814058957	33	127
131.36612244897958	131.9001814058957	45	127
131.9001814058957	132.01628117913833	74	127
131.9001814058957	132.42263038548754	62	127
131.9001814058957	132.51551020408164	29	127
131.9001814058957	132.51551020408164	41	127
132.01628117913833	132.10916099773243	76	127
132.10916099773243	132.2136507936508	74	127
132.2136507936508	132.38777777777779	73	127
132.38777777777779	132.51551020408164	74	127
132.51551020408164	132.794126984127	64	127
132.51551020408164	132.794126984127	76	127
132.51551020408164	133.03795918367348	26	127
132.51551020408164	133.03795918367348	38	127
132.794126984127	133.13083900226758	65	127
132.794126984127	133.13083900226758	77	127
133.13083900226758	133.86226757369616	64	127
133.13083900226758	133.86226757369616	76	127
133.13083900226758	133.98997732426304	28	127
133.13083900226758	133.98997732426304	40	127
133.86226757369616	134.10607709750568	69	127
133.86226757369616	134.10607709750568	81	127
134.10607709750568	135.12775510204082	68	127
134.10607709750568	135.12775510204082	80	127
134.10607709750568	135.24385487528346	40	127
134.10607709750568	135.24385487528346	52	127
135.12775510204082	135.35995464852607	71	127
135.12775510204082	135.35995464852607	83	127
135.35995464852607	136.46290249433108	69	127
135.35995464852607	136.46290249433108	81	127
135.35995464852607	136.46290249433108	45	127
135.35995464852607	136.46290249433108	57	127
136.46290249433108	136.99696145124716	70	127
136.46290249433108	136.99696145124716	82	127
136.46290249433108	136.99696145124716	43	127
136.46290249433108	136.99696145124716	55	127
136.99696145124716	137.4497505668934	71	127
136.99696145124716	137.4497505668934	83	127
136.99696145124716	137.4497505668934	41	127
136.99696145124716	137.4497505668934	53	127
137.53102040816327	138.06507936507936	39	127
137.53102040816327	138.06507936507936	51	127
137.53102040816327	138.32049886621314	72	127
137.53102040816327	138.32049886621314	84	127
138.06507936507936	139.02868480725624	38	127
138.06507936507936	139.02868480725624	50	127
138.32049886621314	138.63396825396825	69	127
138.32049886621314	138.63396825396825	81	127
138.63396825396825	139.063537414966	66	127
138.63396825396825	139.063537414966	78	127
139.17963718820863	139.64401360544218	75	127
139.17963718820863	139.64401360544218	87	127
139.17963718820863	139.64401360544218	36	127
139.17963718820863	139.64401360544218	48	127
139.73691609977325	140.21292517006802	74	127
139.73691609977325	140.21292517006802	86	127
139.73691609977325	140.71215419501135	35	127
139.73691609977325	140.71215419501135	47	127
140.21292517006802	140.83986394557823	73	127
140.21292517006802	140.83986394557823	85	127
140.83986394557823	141.32746031746032	74	127
140.83986394557823	141.32746031746032	86	127
140.83986394557823	141.79185941043085	34	127
140.83986394557823	141.79185941043085	46	127
141.32746031746032	141.8267120181406	67	127
141.32746031746032	141.8267120181406	79	127
141.90798185941043	142.50009070294786	74	127
141.90798185941043	142.50009070294786	86	127
141.90798185941043	142.8948299319728	33	127
141.90798185941043	142.8948299319728	45	127
142.50009070294786	143.02253968253967	73	127
142.50009070294786	143.02253968253967	85	127
143.02253968253967	143.53337868480725	74	127
143.02253968253967	143.53337868480725	86	127
143.02253968253967	143.95133786848072	32	127
143.02253968253967	143.95133786848072	44	127
143.53337868480725	143.98614512471656	65	127
143.53337868480725	143.98614512471656	77	127
144.09063492063493	144.98462585034014	65	127
144.09063492063493	144.98462585034014	70	127
144.09063492063493	144.98462585034014	74	127
144.09063492063493	144.98462585034014	77	127
144.09063492063493	145.1819954648526	31	127
144.09063492063493	145.1819954648526	43	127
144.98462585034014	145.33292517006802	64	127
144.98462585034014	145.33292517006802	76	127
145.33292517006802	145.61156462585035	69	127
145.33292517006802	145.61156462585035	81	127
145.33292517006802	146.34297052154196	33	127
145.33292517006802	146.34297052154196	45	127
145.33292517006802	146.49390022675738	73	127
145.61156462585035	145.87857142857143	67	127
145.61156462585035	145.87857142857143	79	127
145.87857142857143	146.1572335600907	65	127
145.87857142857143	146.1572335600907	77	127
146.1572335600907	146.49390022675738	64	127
146.1572335600907	146.49390022675738	76	127
146.49390022675738	147.23696145124717	62	127
146.49390022675738	147.23696145124717	69	127
146.49390022675738	147.23696145124717	74	127
146.49390022675738	147.23696145124717	41	127
146.49390022675738	147.23696145124717	53	127
147.23696145124717	147.56204081632654	64	127
147.23696145124717	147.56204081632654	68	127
147.23696145124717	147.56204081632654	71	127
147.23696145124717	147.56204081632654	76	127
147.23696145124717	147.56204081632654	40	127
147.23696145124717	147.56204081632654	52	127
147.56204081632654	147.8522902494331	45	127
147.56204081632654	147.8522902494331	57	127
147.56204081632654	148.46761904761905	64	127
147.56204081632654	148.46761904761905	69	127
147.56204081632654	148.46761904761905	73	127
147.56204081632654	148.46761904761905	76	127
147.8522902494331	148.09609977324263	43	127
147.8522902494331	148.09609977324263	55	127
148.09609977324263	148.35151927437641	41	127
148.09609977324263	148.35151927437641	53	127
148.35151927437641	148.6069387755102	40	127
148.35151927437641	148.6069387755102	52	127
148.6069387755102	149.38480725623583	38	127
148.6069387755102	149.38480725623583	50	127
148.7694784580499	148.93201814058958	65	127
148.93201814058958	149.1061678004535	69	127
149.1061678004535	149.30351473922903	77	127
149.30351473922903	149.47768707482993	69	127
149.38480725623583	149.62861678004535	40	127
149.38480725623583	149.62861678004535	52	127
149.47768707482993	149.62861678004535	68	127
149.47768707482993	149.62861678004535	71	127
149.47768707482993	149.62861678004535	76	127
149.62861678004535	150.3716553287982	33	127
149.62861678004535	150.3716553287982	45	127
149.82598639455782	150.01174603174604	61	127
150.01174603174604	150.17426303854876	69	127
150.17426303854876	150.3716553287982	73	127
150.3716553287982	150.60385487528345	61	127
150.51097505668935	150.7895918367347	43	127
150.51097505668935	150.7895918367347	55	127
150.60385487528345	150.7895918367347	69	127
150.8012244897959	151.57909297052154	41	127
150.8012244897959	151.57909297052154	53	127
150.97537414965987	151.13791383219956	62	127
151.13791383219956	151.30043083900227	69	127
151.30043083900227	151.4978231292517	74	127
151.4978231292517	151.66036281179137	69	127
151.57909297052154	151.85773242630387	40	127
151.57909297052154	151.85773242630387	52	127
151.66036281179137	151.85773242630387	68	127
151.66036281179137	151.85773242630387	71	127
151.66036281179137	151.85773242630387	76	127
151.8693424036281	152.1247619047619	45	127
151.8693424036281	152.1247619047619	57	127
152.0318820861678	152.20603174603175	64	127
152.1247619047619	152.40340136054422	43	127
152.1247619047619	152.40340136054422	55	127
152.20603174603175	152.40340136054422	69	127
152.40340136054422	152.5659410430839	73	127
152.40340136054422	152.5659410430839	76	127
152.40340136054422	152.64721088435374	41	127
152.40340136054422	152.64721088435374	53	127
152.5659410430839	152.72845804988663	69	127
152.64721088435374	152.90263038548753	38	127
152.64721088435374	152.90263038548753	50	127
152.72845804988663	152.90263038548753	74	127
152.72845804988663	152.90263038548753	77	127
152.9142403628118	153.18126984126985	46	127
152.9142403628118	153.18126984126985	58	127
153.06517006802721	153.27414965986395	65	127
153.18126984126985	153.47151927437642	45	127
153.18126984126985	153.47151927437642	57	127
153.27414965986395	153.47151927437642	70	127
153.47151927437642	153.62244897959184	74	127
153.47151927437642	153.62244897959184	77	127
153.47151927437642	153.70369614512472	43	127
153.47151927437642	153.70369614512472	55	127
153.62244897959184	153.78498866213152	70	127
153.70369614512472	153.93591836734694	40	127
153.70369614512472	153.93591836734694	52	127
153.78498866213152	153.93591836734694	76	127
153.78498866213152	153.93591836734694	79	127
153.9475283446712	154.17972789115646	48	127
153.9475283446712	154.17972789115646	60	127
154.09845804988663	154.27260770975056	67	127
154.17972789115646	154.46995464852608	46	127
154.17972789115646	154.46995464852608	58	127
154.27260770975056	154.46995464852608	72	127
154.46995464852608	154.67895691609976	76	127
154.46995464852608	154.67895691609976	79	127
154.46995464852608	154.76022675736962	45	127
154.46995464852608	154.76022675736962	57	127
154.67895691609976	154.8879365079365	72	127
154.76022675736962	155.03886621315192	41	127
154.76022675736962	155.03886621315192	53	127
154.8879365079365	155.03886621315192	77	127
154.8879365079365	155.03886621315192	81	127
155.0504761904762	155.88639455782314	69	127
155.0504761904762	155.88639455782314	76	127
155.0504761904762	155.88639455782314	81	127
155.0504761904762	155.88639455782314	48	127
155.0504761904762	155.88639455782314	60	127
155.88639455782314	156.15340136054422	71	127
155.88639455782314	156.15340136054422	75	127
155.88639455782314	156.15340136054422	78	127
155.88639455782314	156.15340136054422	83	127
155.88639455782314	156.15340136054422	47	127
155.88639455782314	156.15340136054422	59	127
156.16503401360544	156.4320634920635	52	127
156.16503401360544	156.4320634920635	64	127
156.16503401360544	157.04739229024943	76	127
156.16503401360544	157.04739229024943	80	127
156.16503401360544	157.04739229024943	83	127
156.16503401360544	157.04739229024943	71	127
156.4320634920635	156.69909297052155	50	127
156.4320634920635	156.69909297052155	62	127
156.69909297052155	156.9312925170068	48	127
156.69909297052155	156.9312925170068	60	127
156.9312925170068	157.18671201814058	47	127
156.9312925170068	157.18671201814058	59	127
157.19832199546485	157.98780045351475	48	127
157.19832199546485	157.98780045351475	60	127
157.3840589569161	157.58145124716555	69	127
157.58145124716555	157.7439909297052	76	127
157.7439909297052	157.89489795918368	81	127
157.89489795918368	158.06907029478458	76	127
157.98780045351475	158.26643990929705	47	127
157.98780045351475	158.26643990929705	59	127
158.06907029478458	158.26643990929705	75	127
158.06907029478458	158.26643990929705	78	127
158.06907029478458	158.26643990929705	83	127
158.27804988662132	158.55666666666667	52	127
158.27804988662132	158.55666666666667	64	127
158.440589569161	158.63795918367347	71	127
158.55666666666667	158.81208616780046	50	127
158.55666666666667	158.81208616780046	62	127
158.63795918367347	158.81208616780046	76	127
158.81208616780046	158.96303854875285	80	127
158.81208616780046	158.96303854875285	83	127
158.81208616780046	159.04430839002268	48	127
158.81208616780046	159.04430839002268	60	127
158.96303854875285	159.14879818594105	76	127
159.04430839002268	159.31133786848073	45	127
159.04430839002268	159.31133786848073	57	127
159.14879818594105	159.31133786848073	81	127
159.14879818594105	159.31133786848073	84	127
159.32292517006803	159.64802721088435	53	127
159.32292517006803	159.64802721088435	65	127
159.56675736961452	159.75251700680272	72	127
159.64802721088435	159.9498866213152	52	127
159.64802721088435	159.9498866213152	64	127
159.75251700680272	159.9498866213152	77	127
159.9498866213152	160.11242630385487	81	127
159.9498866213152	160.11242630385487	84	127
159.9498866213152	160.21691609977324	50	127
159.9498866213152	160.21691609977324	62	127
160.11242630385487	160.29816326530613	77	127
160.21691609977324	160.44909297052155	47	127
160.21691609977324	160.44909297052155	59	127
160.29816326530613	160.44909297052155	83	127
160.29816326530613	160.44909297052155	86	127
160.46072562358276	160.70451247165533	55	127
160.46072562358276	160.70451247165533	67	127
160.61165532879818	160.78580498866214	74	127
160.70451247165533	160.94834467120182	53	127
160.70451247165533	160.94834467120182	65	127
160.78580498866214	160.94834467120182	79	127
160.94834467120182	161.08766439909297	83	127
160.94834467120182	161.08766439909297	86	127
160.94834467120182	161.1689342403628	52	127
160.94834467120182	161.1689342403628	64	127
161.08766439909297	161.25020408163266	79	127
161.1689342403628	161.41274376417235	48	127
161.1689342403628	161.41274376417235	60	127
161.25020408163266	161.41274376417235	84	127
161.25020408163266	161.41274376417235	88	127
161.4707709750567	161.58689342403628	64	127
161.4707709750567	161.70299319727891	52	127
161.4707709750567	161.70299319727891	62	127
161.58689342403628	161.70299319727891	74	127
161.70299319727891	161.83068027210885	76	127
161.70299319727891	162.3067120181406	64	127
161.70299319727891	162.3067120181406	74	127
161.84231292517006	161.94680272108843	86	127
161.97002267573697	162.1441723356009	88	127
162.1441723356009	162.3067120181406	86	127
162.3067120181406	162.3995918367347	51	127
162.3067120181406	162.3995918367347	62	127
162.3067120181406	162.4344217687075	76	127
162.44603174603174	162.60857142857142	74	127
162.6201814058957	162.852358276644	46	127
162.6201814058957	162.852358276644	58	127
162.6201814058957	163.28195011337868	64	127
162.6201814058957	163.28195011337868	74	127
162.6201814058957	163.28195011337868	76	127
162.852358276644	163.119410430839	45	127
162.852358276644	163.119410430839	57	127
163.119410430839	163.35160997732427	43	127
163.119410430839	163.35160997732427	55	127
163.35160997732427	163.4328798185941	64	127
163.35160997732427	163.4328798185941	74	127
163.35160997732427	163.4328798185941	76	127
163.35160997732427	163.4328798185941	31	127
163.35160997732427	163.4328798185941	43	127
163.5954195011338	163.6882993197279	52	127
163.5954195011338	163.6882993197279	62	127
163.5954195011338	163.72310657596373	64	127
163.72310657596373	163.8392290249433	74	127
163.8392290249433	163.96693877551022	76	127
163.8392290249433	164.36167800453515	64	127
163.8392290249433	164.36167800453515	74	127
163.9785260770975	164.11786848072563	86	127
164.12945578231293	164.2455782312925	88	127
164.2455782312925	164.36167800453515	86	127
164.36167800453515	164.45455782312925	51	127
164.36167800453515	164.45455782312925	62	127
164.36167800453515	164.4893650793651	76	127
164.5009977324263	164.6287074829932	74	127
164.6402947845805	164.86090702947845	47	127
164.6402947845805	164.86090702947845	59	127
164.6402947845805	165.3020634920635	64	127
164.6402947845805	165.3020634920635	74	127
164.6402947845805	165.3020634920635	76	127
164.86090702947845	165.1279365079365	45	127
164.86090702947845	165.1279365079365	57	127
165.1279365079365	165.37174603174603	44	127
165.1279365079365	165.37174603174603	56	127
165.37174603174603	165.4530158730159	64	127
165.37174603174603	165.4530158730159	74	127
165.37174603174603	165.4530158730159	76	127
165.37174603174603	165.4530158730159	32	127
165.37174603174603	165.4530158730159	44	127
165.7200453514739	165.84775510204082	79	127
165.7200453514739	165.84775510204082	85	127
165.7200453514739	165.84775510204082	91	127
165.7200453514739	166.12639455782312	33	127
165.7200453514739	166.12639455782312	45	127
165.84775510204082	165.96385487528346	90	127
165.96385487528346	166.09156462585034	91	127
166.09156462585034	166.20766439909298	79	127
166.20766439909298	166.32376417233561	88	127
166.20766439909298	166.46308390022676	64	127
166.32376417233561	166.46308390022676	87	127
166.46308390022676	166.5791836734694	88	127
166.46308390022676	166.71850340136055	52	127
166.5791836734694	166.71850340136055	76	127
166.71850340136055	166.8346031746032	85	127
166.71850340136055	166.9507029478458	61	127
166.8346031746032	166.9507029478458	84	127
166.9507029478458	167.13646258503402	85	127
166.9507029478458	167.25256235827663	49	127
167.13646258503402	167.25256235827663	73	127
167.25256235827663	167.36866213151927	79	127
167.25256235827663	167.53120181405896	55	127
167.36866213151927	167.53120181405896	78	127
167.53120181405896	167.6473015873016	79	127
167.53120181405896	167.77501133786848	43	127
167.6473015873016	167.77501133786848	67	127
167.77501133786848	167.91430839002268	76	127
167.77501133786848	168.0536507936508	52	127
167.91430839002268	168.0536507936508	75	127
168.0536507936508	168.16972789115647	76	127
168.0536507936508	168.29746031746032	40	127
168.16972789115647	168.29746031746032	64	127
168.29746031746032	168.41356009070296	73	127
168.29746031746032	168.52965986394557	49	127
168.41356009070296	168.52965986394557	72	127
168.52965986394557	168.63414965986394	73	127
168.52965986394557	168.76185941043084	37	127
168.63414965986394	168.76185941043084	61	127
168.76185941043084	168.8663492063492	67	127
168.76185941043084	168.94761904761904	43	127
168.8663492063492	168.94761904761904	66	127
168.94761904761904	169.06371882086168	67	127
168.94761904761904	169.15659863945578	31	127
169.06371882086168	169.15659863945578	55	127
169.15659863945578	169.27269841269842	64	127
169.15659863945578	169.4004081632653	40	127
169.27269841269842	169.4004081632653	63	127
169.4004081632653	169.53972789115647	64	127
169.4004081632653	169.65582766439908	33	127
169.53972789115647	169.65582766439908	57	127
169.66743764172335	169.7487074829932	62	127
169.66743764172335	169.86480725623582	38	127
169.7487074829932	169.86480725623582	61	127
169.86480725623582	169.95766439909298	62	127
169.86480725623582	170.07378684807256	33	127
169.95766439909298	170.07378684807256	57	127
170.08539682539683	170.21308390022676	62	127
170.08539682539683	170.34081632653061	38	127
170.22471655328798	170.34081632653061	61	127
170.34081632653061	170.48013605442176	62	127
170.34081632653061	170.5962358276644	33	127
170.48013605442176	170.5962358276644	57	127
170.60784580498867	170.74716553287982	64	127
170.60784580498867	170.87485260770976	40	127
170.7587755102041	170.87485260770976	63	127
170.87485260770976	170.99097505668934	64	127
170.87485260770976	171.0954648526077	33	127
170.99097505668934	171.0954648526077	57	127
171.10707482993197	171.21156462585034	65	127
171.10707482993197	171.32766439909298	41	127
171.2231746031746	171.32766439909298	64	127
171.32766439909298	171.45537414965986	65	127
171.32766439909298	171.5714739229025	33	127
171.45537414965986	171.5714739229025	57	127
171.58308390022677	171.68757369614514	66	127
171.58308390022677	171.80367346938775	42	127
171.68757369614514	171.80367346938775	65	127
171.80367346938775	171.91977324263038	66	127
171.80367346938775	172.0474829931973	33	127
171.91977324263038	172.0474829931973	57	127
172.0474829931973	172.1635827664399	67	127
172.0474829931973	172.2912925170068	43	127
172.17519274376417	172.2912925170068	66	127
172.30290249433108	172.43061224489796	67	127
172.30290249433108	172.55832199546487	33	127
172.43061224489796	172.55832199546487	57	127
172.55832199546487	172.67442176870748	69	127
172.55832199546487	172.80213151927438	45	127
172.68603174603174	172.80213151927438	68	127
172.80213151927438	172.91823129251702	69	127
172.80213151927438	173.05755102040817	33	127
172.91823129251702	173.05755102040817	57	127
173.05755102040817	173.16204081632654	71	127
173.05755102040817	173.25492063492064	47	127
173.1736507936508	173.25492063492064	70	127
173.2665306122449	173.38260770975057	71	127
173.2665306122449	173.51034013605442	33	127
173.38260770975057	173.51034013605442	57	127
173.51034013605442	173.6148299319728	74	127
173.51034013605442	173.73092970521543	50	127
173.6148299319728	173.73092970521543	73	127
173.74251700680273	173.8586394557823	74	127
173.74251700680273	173.98634920634922	33	127
173.87024943310658	173.98634920634922	57	127
173.98634920634922	174.1140589569161	73	127
173.98634920634922	174.23015873015873	49	127
174.1140589569161	174.23015873015873	72	127
174.241768707483	174.3578684807256	73	127
174.241768707483	174.4971882086168	33	127
174.36947845804988	174.4971882086168	57	127
174.4971882086168	174.62489795918367	69	127
174.4971882086168	174.72938775510204	45	127
174.62489795918367	174.72938775510204	68	127
174.7409977324263	174.84548752834468	69	127
174.7409977324263	174.96158730158731	33	127
174.85709750566895	174.96158730158731	57	127
174.96158730158731	175.0892970521542	67	127
174.96158730158731	175.2170068027211	43	127
175.0892970521542	175.2170068027211	66	127
175.22861678004534	175.34471655328798	67	127
175.22861678004534	175.44920634920635	33	127
175.35632653061225	175.44920634920635	57	127
175.44920634920635	175.57689342403629	66	127
175.44920634920635	175.70462585034014	42	127
175.57689342403629	175.70462585034014	65	127
175.70462585034014	175.8091156462585	66	127
175.70462585034014	175.92521541950114	33	127
175.82072562358277	175.92521541950114	57	127
175.93680272108844	176.05292517006802	65	127
175.93680272108844	176.16902494331066	41	127
176.05292517006802	176.16902494331066	64	127
176.16902494331066	176.27351473922903	65	127
176.16902494331066	176.4012244897959	33	127
176.2851247165533	176.4012244897959	57	127
176.41283446712018	176.52893424036282	64	127
176.41283446712018	176.65662131519275	40	127
176.52893424036282	176.65662131519275	63	127
176.65662131519275	176.76113378684806	64	127
176.65662131519275	176.88884353741497	33	127
176.77274376417233	176.88884353741497	57	127
176.90045351473924	177.01655328798185	61	127
176.90045351473924	177.14426303854876	37	127
177.01655328798185	177.14426303854876	60	127
177.14426303854876	177.27197278911564	61	127
177.14426303854876	177.38807256235827	33	127
177.27197278911564	177.38807256235827	57	127
177.39968253968254	177.51578231292518	62	127
177.39968253968254	177.64349206349206	38	127
177.52739229024942	177.64349206349206	61	127
177.64349206349206	177.77120181405897	62	127
177.64349206349206	177.89891156462585	33	127
177.77120181405897	177.89891156462585	57	127
177.91052154195012	178.02662131519276	62	127
177.91052154195012	178.15433106575964	38	127
178.038231292517	178.15433106575964	61	127
178.15433106575964	178.29365079365078	62	127
178.15433106575964	178.40975056689342	33	127
178.29365079365078	178.40975056689342	57	127
178.4213605442177	178.54907029478457	60	127
178.4213605442177	178.67678004535148	45	127
178.56068027210884	178.67678004535148	59	127
178.67678004535148	178.80448979591836	60	127
178.67678004535148	178.93219954648526	33	127
178.80448979591836	178.920589569161	52	127
178.93219954648526	179.05990929705214	60	127
178.93219954648526	179.18761904761905	38	127
179.0715192743764	179.18761904761905	59	127
179.18761904761905	179.31532879818593	60	127
179.18761904761905	179.44303854875284	26	127
179.31532879818593	179.44303854875284	50	127
179.44303854875284	179.5475283446712	59	127
179.44303854875284	179.6752380952381	38	127
179.55913832199548	179.66362811791385	58	127
179.6752380952381	179.79133786848072	59	127
179.6752380952381	179.93065759637187	26	127
179.79133786848072	179.93065759637187	50	127
179.93065759637187	180.05836734693878	57	127
179.93065759637187	180.19768707482993	38	127
180.06997732426305	180.18607709750566	56	127
180.19768707482993	180.32539682539684	57	127
180.19768707482993	180.44149659863945	26	127
180.32539682539684	180.44149659863945	50	127
180.44149659863945	180.49954648526077	55	127
180.44149659863945	180.63884353741497	38	127
180.51115646258503	180.62725623582767	54	127
180.63884353741497	180.74333333333334	55	127
180.63884353741497	180.8710657596372	26	127
180.74333333333334	180.8710657596372	50	127
180.8710657596372	180.98716553287983	54	127
180.8710657596372	181.1148752834467	38	127
180.98716553287983	181.1032426303855	53	127
181.1148752834467	181.23097505668935	54	127
181.1148752834467	181.35866213151928	26	127
181.24258503401362	181.35866213151928	50	127
181.35866213151928	181.4980045351474	52	127
181.35866213151928	181.63732426303855	43	127
181.4980045351474	181.62571428571428	50	127
181.63732426303855	181.7766439909297	52	127
181.63732426303855	181.9043537414966	31	127
181.78825396825397	181.9043537414966	50	127
181.9043537414966	182.02043083900227	52	127
181.9043537414966	182.13655328798185	43	127
182.02043083900227	182.12492063492064	50	127
182.13655328798185	182.2526530612245	52	127
182.13655328798185	182.38034013605443	31	127
182.26426303854876	182.38034013605443	50	127
182.38034013605443	182.50807256235828	53	127
182.38034013605443	182.62417233560092	44	127
182.50807256235828	182.61256235827665	50	127
182.62417233560092	182.74027210884353	52	127
182.62417233560092	182.85637188208617	32	127
182.7518820861678	182.85637188208617	50	127
182.85637188208617	182.98408163265307	53	127
182.85637188208617	183.10018140589568	44	127
182.98408163265307	183.10018140589568	50	127
183.10018140589568	183.21628117913832	52	127
183.10018140589568	183.33238095238096	32	127
183.2278911564626	183.33238095238096	50	127
183.34399092970523	183.4717006802721	52	127
183.34399092970523	183.61102040816326	45	127
183.4717006802721	183.61102040816326	49	127
183.61102040816326	183.75034013605443	52	127
183.61102040816326	183.88965986394558	33	127
183.75034013605443	183.88965986394558	57	127
183.88965986394558	184.00575963718822	61	127
183.88965986394558	184.16827664399094	45	127
184.00575963718822	184.16827664399094	64	127
184.16827664399094	184.2727664399093	69	127
184.16827664399094	184.38888888888889	33	127
184.2727664399093	184.38888888888889	73	127
184.38888888888889	184.50498866213152	76	127
184.38888888888889	184.6326984126984	45	127
184.50498866213152	184.6326984126984	73	127
184.6326984126984	184.72557823129253	64	127
184.6326984126984	184.8532879818594	33	127
184.72557823129253	184.8532879818594	61	127
184.8532879818594	184.96938775510205	64	127
184.8532879818594	185.12031746031747	57	127
184.96938775510205	185.12031746031747	69	127
185.12031746031747	185.27124716553288	73	127
185.12031746031747	185.39895691609976	45	127
185.27124716553288	185.39895691609976	76	127
185.41056689342403	186.44385487528345	66	127
185.41056689342403	186.44385487528345	74	127
185.41056689342403	186.44385487528345	78	127
185.41056689342403	186.44385487528345	50	127
185.41056689342403	186.44385487528345	62	127
186.44385487528345	186.9778911564626	67	127
186.44385487528345	186.9778911564626	76	127
186.44385487528345	186.9778911564626	79	127
186.44385487528345	186.9778911564626	49	127
186.44385487528345	186.9778911564626	61	127
186.9778911564626	187.47714285714287	68	127
186.9778911564626	187.47714285714287	74	127
186.9778911564626	187.47714285714287	80	127
186.9778911564626	187.47714285714287	47	127
186.9778911564626	187.47714285714287	59	127
187.47714285714287	187.91832199546485	69	127
187.47714285714287	187.91832199546485	73	127
187.47714285714287	187.91832199546485	81	127
187.47714285714287	187.91832199546485	45	127
187.47714285714287	187.91832199546485	57	127
187.99956916099774	188.52204081632652	65	127
187.99956916099774	188.52204081632652	74	127
187.99956916099774	188.52204081632652	77	127
187.99956916099774	188.52204081632652	38	127
187.99956916099774	188.52204081632652	50	127
188.52204081632652	189.04448979591837	67	127
188.52204081632652	189.04448979591837	76	127
188.52204081632652	189.04448979591837	79	127
188.52204081632652	189.04448979591837	36	127
188.52204081632652	189.04448979591837	48	127
189.04448979591837	189.4740589569161	68	127
189.04448979591837	189.4740589569161	74	127
189.04448979591837	189.4740589569161	80	127
189.04448979591837	189.4740589569161	34	127
189.04448979591837	189.4740589569161	46	127
189.55532879818594	189.93845804988663	69	127
189.55532879818594	189.93845804988663	73	127
189.55532879818594	189.93845804988663	81	127
189.55532879818594	190.01972789115646	33	127
189.55532879818594	190.01972789115646	45	127
190.01972789115646	190.5421768707483	74	127
190.01972789115646	190.5421768707483	32	127
190.01972789115646	190.5421768707483	44	127
190.27514739229025	190.5421768707483	71	127
190.27514739229025	190.5421768707483	83	127
190.5421768707483	190.99496598639456	73	127
190.5421768707483	190.99496598639456	76	127
190.5421768707483	190.99496598639456	85	127
190.5421768707483	191.09945578231293	31	127
190.5421768707483	191.09945578231293	43	127
191.09945578231293	191.52902494331065	74	127
191.09945578231293	191.52902494331065	81	127
191.09945578231293	191.52902494331065	86	127
191.09945578231293	191.52902494331065	29	127
191.09945578231293	191.52902494331065	41	127
191.67995464852606	192.2024036281179	79	127
191.67995464852606	192.2024036281179	82	127
191.67995464852606	192.2024036281179	91	127
191.67995464852606	192.2024036281179	25	127
191.67995464852606	192.2024036281179	37	127
192.2024036281179	192.71324263038548	77	127
192.2024036281179	192.71324263038548	81	127
192.2024036281179	192.71324263038548	89	127
192.2024036281179	192.71324263038548	26	127
192.2024036281179	192.71324263038548	38	127
192.71324263038548	193.21247165532878	76	127
192.71324263038548	193.21247165532878	79	127
192.71324263038548	193.21247165532878	88	127
192.71324263038548	193.21247165532878	28	127
192.71324263038548	193.21247165532878	40	127
193.21247165532878	193.6536507936508	74	127
193.21247165532878	193.6536507936508	77	127
193.21247165532878	193.6536507936508	86	127
193.21247165532878	193.6536507936508	29	127
193.21247165532878	193.6536507936508	41	127
193.75814058956917	194.23414965986396	72	127
193.75814058956917	194.23414965986396	77	127
193.75814058956917	194.23414965986396	84	127
193.75814058956917	194.6869387755102	31	127
193.75814058956917	194.6869387755102	43	127
194.3154195011338	194.39668934240362	84	127
194.39668934240362	194.4663492063492	83	127
194.4663492063492	194.5592290249433	81	127
194.5592290249433	194.6869387755102	83	127
194.6869387755102	194.83786848072563	84	127
194.83786848072563	195.32548752834467	74	127
194.83786848072563	195.32548752834467	86	127
194.83786848072563	195.7202267573696	24	127
194.83786848072563	195.7202267573696	36	127
194.83786848072563	195.76666666666668	76	127
195.32548752834467	195.76666666666668	70	127
195.32548752834467	195.76666666666668	82	127
195.8479365079365	196.2891156462585	69	127
195.8479365079365	196.2891156462585	77	127
195.8479365079365	196.2891156462585	81	127
195.8479365079365	196.2891156462585	29	127
195.8479365079365	196.2891156462585	41	127
196.4168253968254	196.93927437641725	69	127
196.4168253968254	196.93927437641725	81	127
196.4168253968254	196.93927437641725	45	127
196.4168253968254	196.93927437641725	57	127
196.93927437641725	197.46172335600906	68	127
196.93927437641725	197.46172335600906	80	127
196.93927437641725	197.46172335600906	47	127
196.93927437641725	197.46172335600906	59	127
197.46172335600906	197.86807256235826	67	127
197.46172335600906	197.86807256235826	79	127
197.46172335600906	197.9841723356009	49	127
197.46172335600906	197.9841723356009	61	127
197.9841723356009	198.4834013605442	66	127
197.9841723356009	198.4834013605442	78	127
197.9841723356009	198.4834013605442	50	127
197.9841723356009	198.4834013605442	62	127
198.4834013605442	198.97102040816327	69	127
198.4834013605442	198.97102040816327	81	127
198.4834013605442	198.97102040816327	49	127
198.4834013605442	198.97102040816327	61	127
198.97102040816327	199.44702947845806	47	127
198.97102040816327	199.44702947845806	59	127
198.97102040816327	199.70244897959185	74	127
198.97102040816327	199.70244897959185	86	127
199.44702947845806	199.89981859410432	52	127
199.44702947845806	199.89981859410432	64	127
199.70244897959185	199.98108843537415	76	127
199.70244897959185	199.98108843537415	88	127
200.0043083900227	200.44548752834467	74	127
200.0043083900227	200.44548752834467	86	127
200.0043083900227	200.44548752834467	45	127
200.0043083900227	200.44548752834467	57	127
200.53836734693877	201.08403628117915	73	127
200.53836734693877	201.08403628117915	81	127
200.53836734693877	201.08403628117915	85	127
200.53836734693877	201.08403628117915	57	127
200.53836734693877	201.08403628117915	61	127
201.08403628117915	201.59487528344673	74	127
201.08403628117915	201.59487528344673	83	127
201.08403628117915	201.59487528344673	86	127
201.08403628117915	201.59487528344673	59	127
201.08403628117915	201.59487528344673	62	127
201.59487528344673	202.15215419501135	76	127
201.59487528344673	202.15215419501135	85	127
201.59487528344673	202.15215419501135	88	127
201.59487528344673	202.15215419501135	61	127
201.59487528344673	202.15215419501135	64	127
202.15215419501135	202.6281632653061	78	127
202.15215419501135	202.6281632653061	86	127
202.15215419501135	202.6281632653061	90	127
202.15215419501135	202.6281632653061	62	127
202.15215419501135	202.6281632653061	66	127
202.6281632653061	203.12739229024945	76	127
202.6281632653061	203.12739229024945	85	127
202.6281632653061	203.12739229024945	88	127
202.6281632653061	203.12739229024945	61	127
202.6281632653061	203.12739229024945	64	127
203.12739229024945	203.68467120181407	78	127
203.12739229024945	203.68467120181407	86	127
203.12739229024945	203.68467120181407	90	127
203.12739229024945	203.68467120181407	62	127
203.12739229024945	203.68467120181407	66	127
203.68467120181407	204.11424036281178	80	127
203.68467120181407	204.11424036281178	83	127
203.68467120181407	204.11424036281178	92	127
203.68467120181407	204.11424036281178	59	127
203.68467120181407	204.11424036281178	68	127
204.19551020408164	204.6482993197279	81	127
204.19551020408164	204.6482993197279	88	127
204.19551020408164	204.6482993197279	93	127
204.19551020408164	204.6482993197279	57	127
204.19551020408164	204.6482993197279	64	127
204.19551020408164	204.6482993197279	69	127
204.741179138322	205.25201814058957	69	127
204.741179138322	205.25201814058957	81	127
204.741179138322	205.25201814058957	45	127
204.741179138322	205.25201814058957	57	127
205.25201814058957	205.7744671201814	68	127
205.25201814058957	205.7744671201814	80	127
205.25201814058957	205.7744671201814	47	127
205.25201814058957	205.7744671201814	59	127
205.7744671201814	206.33174603174604	67	127
205.7744671201814	206.33174603174604	79	127
205.7744671201814	206.33174603174604	49	127
205.7744671201814	206.33174603174604	61	127
206.33174603174604	206.76131519274375	66	127
206.33174603174604	206.76131519274375	78	127
206.33174603174604	206.76131519274375	50	127
206.33174603174604	206.76131519274375	62	127
206.85419501133788	207.33020408163264	74	127
206.85419501133788	207.33020408163264	86	127
206.85419501133788	207.33020408163264	38	127
206.85419501133788	207.33020408163264	50	127
207.33020408163264	207.84104308390022	73	127
207.33020408163264	207.84104308390022	85	127
207.33020408163264	207.84104308390022	40	127
207.33020408163264	207.84104308390022	52	127
207.84104308390022	208.27061224489796	72	127
207.84104308390022	208.27061224489796	84	127
207.84104308390022	208.27061224489796	42	127
207.84104308390022	208.27061224489796	54	127
208.3518820861678	208.81628117913831	71	127
208.3518820861678	208.81628117913831	83	127
208.3518820861678	208.81628117913831	43	127
208.3518820861678	208.81628117913831	55	127
208.93238095238095	209.4548299319728	79	127
208.93238095238095	209.4548299319728	91	127
208.93238095238095	209.91922902494332	31	127
208.93238095238095	209.91922902494332	43	127
209.4548299319728	210.0469387755102	71	127
209.4548299319728	210.0469387755102	83	127
210.0469387755102	210.55777777777777	76	127
210.0469387755102	210.55777777777777	88	127
210.0469387755102	210.55777777777777	31	127
210.0469387755102	210.55777777777777	43	127
210.63904761904763	211.1150566893424	76	127
210.63904761904763	211.1150566893424	88	127
210.63904761904763	211.60267573696146	33	127
210.63904761904763	211.60267573696146	45	127
210.63904761904763	211.6491156462585	78	127
210.63904761904763	211.6491156462585	81	127
211.21954648526076	211.6491156462585	74	127
211.21954648526076	211.6491156462585	86	127
211.73038548752834	212.20639455782313	77	127
211.73038548752834	212.20639455782313	80	127
211.73038548752834	212.75206349206348	33	127
211.73038548752834	212.75206349206348	45	127
212.28766439909296	213.34417233560092	71	127
212.28766439909296	213.34417233560092	83	127
212.89138321995466	213.83179138321995	33	127
212.89138321995466	213.83179138321995	45	127
212.89138321995466	214.40068027210884	76	127
212.89138321995466	214.40068027210884	79	127
213.42544217687075	214.40068027210884	69	127
213.42544217687075	214.40068027210884	81	127
213.98272108843537	215.34108843537416	45	127
213.98272108843537	215.34108843537416	57	127
214.60965986394558	215.14371882086166	66	127
214.60965986394558	215.14371882086166	69	127
214.60965986394558	215.14371882086166	73	127
215.14371882086166	215.45718820861677	65	127
215.14371882086166	215.45718820861677	68	127
215.46879818594104	215.71260770975056	66	127
215.46879818594104	215.71260770975056	69	127
215.46879818594104	216.00285714285715	74	127
215.46879818594104	216.5833560090703	38	127
215.46879818594104	216.5833560090703	45	127
215.71260770975056	216.00285714285715	64	127
215.71260770975056	216.00285714285715	67	127
216.0144671201814	216.26988662131518	62	127
216.0144671201814	216.26988662131518	66	127
216.26988662131518	216.72267573696146	57	127
216.26988662131518	216.72267573696146	64	127
216.75750566893424	217.01292517006803	62	127
216.75750566893424	217.01292517006803	66	127
216.75750566893424	217.69791383219956	38	127
216.75750566893424	217.69791383219956	45	127
217.01292517006803	217.31478458049887	57	127
217.01292517006803	217.31478458049887	64	127
217.31478458049887	217.58181405895692	54	127
217.31478458049887	217.58181405895692	62	127
217.58181405895692	217.82562358276644	53	127
217.58181405895692	217.82562358276644	61	127
217.8372335600907	218.08104308390023	54	127
217.8372335600907	218.08104308390023	62	127
217.8372335600907	218.76603174603176	38	127
217.8372335600907	218.76603174603176	45	127
218.08104308390023	218.35968253968255	57	127
218.3712925170068	218.63832199546485	54	127
218.3712925170068	218.63832199546485	62	127
218.63832199546485	218.96340136054422	57	127
218.63832199546485	218.96340136054422	64	127
218.96340136054422	219.20721088435374	62	127
218.96340136054422	219.20721088435374	66	127
218.96340136054422	219.9734693877551	38	127
218.96340136054422	219.9734693877551	45	127
219.20721088435374	219.4974603174603	54	127
219.20721088435374	219.4974603174603	62	127
219.4974603174603	219.83414965986395	62	127
219.4974603174603	219.83414965986395	66	127
219.83414965986395	220.1592290249433	66	127
219.83414965986395	220.1592290249433	69	127
220.1592290249433	220.4146485260771	67	127
220.1592290249433	220.4146485260771	71	127
220.1592290249433	221.07641723356008	37	127
220.1592290249433	221.07641723356008	45	127
220.4146485260771	220.68167800453514	64	127
220.4146485260771	220.68167800453514	67	127
220.68167800453514	220.77455782312924	67	127
220.68167800453514	220.77455782312924	71	127
220.9487074829932	221.0415873015873	66	127
220.9487074829932	221.0415873015873	70	127
221.23895691609977	221.52920634920636	67	127
221.23895691609977	221.52920634920636	71	127
221.23895691609977	222.2606349206349	37	127
221.23895691609977	222.2606349206349	45	127
221.52920634920636	221.80784580498866	76	127
221.80784580498866	221.91233560090703	67	127
221.80784580498866	221.91233560090703	71	127
222.08648526077098	222.21419501133786	66	127
222.08648526077098	222.21419501133786	70	127
222.37673469387755	222.65537414965988	67	127
222.37673469387755	222.65537414965988	71	127
222.37673469387755	223.36358276643992	37	127
222.37673469387755	223.36358276643992	45	127
222.65537414965988	222.9572335600907	64	127
222.65537414965988	222.9572335600907	67	127
222.9572335600907	223.06172335600908	67	127
222.9572335600907	223.06172335600908	71	127
223.22426303854874	223.31714285714287	66	127
223.22426303854874	223.31714285714287	70	127
223.51451247165534	223.8047619047619	67	127
223.51451247165534	223.8047619047619	71	127
223.51451247165534	224.54780045351475	37	127
223.51451247165534	224.54780045351475	45	127
223.8047619047619	224.12984126984128	76	127
224.14145124716552	224.38526077097507	67	127
224.14145124716552	224.38526077097507	71	127
224.38526077097507	224.76839002267573	66	127
224.38526077097507	224.76839002267573	70	127
224.76839002267573	225.1863492063492	69	127
224.76839002267573	225.1863492063492	73	127
224.76839002267573	225.92938775510203	38	127
224.76839002267573	225.92938775510203	45	127
225.1863492063492	225.46498866213153	67	127
225.1863492063492	225.46498866213153	71	127
225.46498866213153	225.79006802721088	66	127
225.46498866213153	225.79006802721088	69	127
225.79006802721088	226.0687074829932	64	127
225.79006802721088	226.0687074829932	67	127
226.08031746031747	226.33573696145126	61	127
226.08031746031747	226.33573696145126	69	127
226.08031746031747	226.98589569160998	31	127
226.08031746031747	226.98589569160998	43	127
226.33573696145126	226.59115646258505	59	127
226.33573696145126	226.59115646258505	67	127
226.59115646258505	226.83496598639456	57	127
226.59115646258505	226.83496598639456	66	127
226.83496598639456	227.1368253968254	55	127
226.83496598639456	227.1368253968254	64	127
227.14843537414967	227.49673469387756	54	127
227.14843537414967	227.49673469387756	62	127
227.14843537414967	228.18172335600906	33	127
227.14843537414967	228.18172335600906	45	127
227.49673469387756	227.7985941043084	52	127
227.49673469387756	227.7985941043084	61	127
227.7985941043084	228.0424036281179	54	127
227.7985941043084	228.0424036281179	62	127
228.0424036281179	228.32104308390024	56	127
228.0424036281179	228.32104308390024	66	127
228.32104308390024	228.69256235827663	61	127
228.32104308390024	228.69256235827663	64	127
228.32104308390024	229.4007709750567	33	127
228.32104308390024	229.4007709750567	45	127
228.69256235827663	228.9247619047619	57	127
228.69256235827663	228.9247619047619	61	127
228.9247619047619	229.21501133786848	78	127
228.9247619047619	229.21501133786848	81	127
229.21501133786848	229.54009070294785	77	127
229.21501133786848	229.54009070294785	80	127
229.54009070294785	229.79551020408164	78	127
229.54009070294785	229.79551020408164	81	127
229.54009070294785	230.4688888888889	38	127
229.54009070294785	230.4688888888889	45	127
229.79551020408164	230.07414965986393	76	127
229.79551020408164	230.07414965986393	79	127
230.07414965986393	230.35278911564626	74	127
230.07414965986393	230.35278911564626	78	127
230.35278911564626	230.60820861678005	69	127
230.35278911564626	230.60820861678005	76	127
230.60820861678005	230.88684807256234	74	127
230.60820861678005	230.88684807256234	78	127
230.60820861678005	231.5602267573696	38	127
230.60820861678005	231.5602267573696	45	127
230.88684807256234	231.14226757369613	69	127
230.88684807256234	231.14226757369613	76	127
231.14226757369613	231.42090702947846	66	127
231.14226757369613	231.42090702947846	74	127
231.42090702947846	231.6879365079365	65	127
231.42090702947846	231.6879365079365	73	127
231.6879365079365	231.97818594104308	66	127
231.6879365079365	231.97818594104308	74	127
231.6879365079365	232.65156462585034	38	127
231.6879365079365	232.65156462585034	45	127
231.97818594104308	232.26843537414965	69	127
232.26843537414965	232.52385487528343	66	127
232.26843537414965	232.52385487528343	74	127
232.52385487528343	232.77927437641722	69	127
232.52385487528343	232.77927437641722	76	127
232.77927437641722	233.05791383219955	74	127
232.77927437641722	233.05791383219955	78	127
232.77927437641722	233.71968253968254	38	127
232.77927437641722	233.71968253968254	45	127
233.05791383219955	233.30172335600906	66	127
233.05791383219955	233.30172335600906	74	127
233.31333333333333	233.55714285714285	74	127
233.31333333333333	233.55714285714285	78	127
233.31333333333333	233.55714285714285	86	127
233.55714285714285	233.84739229024945	73	127
233.55714285714285	233.84739229024945	85	127
233.84739229024945	234.09120181405896	74	127
233.84739229024945	234.09120181405896	78	127
233.84739229024945	234.09120181405896	86	127
233.84739229024945	234.74136054421768	38	127
233.84739229024945	234.74136054421768	48	127
234.09120181405896	234.36984126984126	71	127
234.09120181405896	234.36984126984126	79	127
234.09120181405896	234.36984126984126	83	127
234.36984126984126	234.6136507936508	69	127
234.36984126984126	234.6136507936508	78	127
234.36984126984126	234.6136507936508	81	127
234.6136507936508	234.85746031746032	68	127
234.6136507936508	234.85746031746032	77	127
234.6136507936508	234.85746031746032	80	127
234.8690702947846	235.1128798185941	69	127
234.8690702947846	235.1128798185941	78	127
234.8690702947846	235.1128798185941	81	127
234.8690702947846	235.78625850340137	38	127
234.8690702947846	235.78625850340137	48	127
234.8690702947846	235.78625850340137	50	127
235.1128798185941	235.37990929705217	67	127
235.1128798185941	235.37990929705217	76	127
235.1128798185941	235.37990929705217	79	127
235.37990929705217	235.65854875283446	66	127
235.37990929705217	235.65854875283446	74	127
235.37990929705217	235.65854875283446	78	127
235.65854875283446	235.90235827664398	64	127
235.65854875283446	235.90235827664398	73	127
235.65854875283446	235.90235827664398	76	127
235.91396825396825	236.16938775510204	66	127
235.91396825396825	236.16938775510204	74	127
235.91396825396825	236.16938775510204	78	127
235.91396825396825	236.80793650793652	38	127
235.91396825396825	236.80793650793652	48	127
235.91396825396825	236.80793650793652	50	127
236.16938775510204	236.42480725623582	62	127
236.16938775510204	236.42480725623582	74	127
236.42480725623582	236.69183673469388	66	127
236.42480725623582	236.69183673469388	74	127
236.42480725623582	236.69183673469388	78	127
236.69183673469388	236.9356462585034	67	127
236.69183673469388	236.9356462585034	76	127
236.69183673469388	236.9356462585034	79	127
236.9356462585034	237.19106575963718	69	127
236.9356462585034	237.19106575963718	78	127
236.9356462585034	237.19106575963718	81	127
236.9356462585034	237.9108843537415	38	127
236.9356462585034	237.9108843537415	48	127
236.9356462585034	237.9108843537415	50	127
237.19106575963718	237.48131519274375	66	127
237.19106575963718	237.48131519274375	74	127
237.19106575963718	237.48131519274375	78	127
237.48131519274375	237.57419501133788	74	127
237.48131519274375	237.57419501133788	78	127
237.48131519274375	237.57419501133788	86	127
237.75995464852608	237.8412244897959	73	127
237.75995464852608	237.8412244897959	85	127
238.05020408163264	238.32884353741497	74	127
238.05020408163264	238.32884353741497	86	127
238.05020408163264	239.04866213151928	38	127
238.05020408163264	239.04866213151928	47	127
238.05020408163264	239.04866213151928	50	127
238.32884353741497	238.57265306122449	79	127
238.57265306122449	238.74680272108844	74	127
238.57265306122449	238.74680272108844	86	127
238.92095238095237	239.00222222222223	73	127
238.92095238095237	239.00222222222223	85	127
239.17637188208616	239.43179138321995	74	127
239.17637188208616	239.43179138321995	86	127
239.17637188208616	240.1051700680272	38	127
239.17637188208616	240.1051700680272	45	127
239.17637188208616	240.1051700680272	50	127
239.43179138321995	239.6756009070295	78	127
239.6756009070295	239.7684807256236	74	127
239.6756009070295	239.7684807256236	86	127
239.9542403628118	240.05873015873016	73	127
239.9542403628118	240.05873015873016	85	127
240.2328798185941	240.4882993197279	74	127
240.2328798185941	240.4882993197279	86	127
240.2328798185941	241.21972789115645	31	127
240.2328798185941	241.21972789115645	43	127
240.4882993197279	240.7669387755102	76	127
240.77854875283447	241.06879818594103	64	127
240.77854875283447	241.06879818594103	74	127
240.77854875283447	241.06879818594103	76	127
241.06879818594103	241.37065759637187	66	127
241.06879818594103	241.37065759637187	78	127
241.40548752834468	241.66090702947847	69	127
241.40548752834468	241.66090702947847	73	127
241.40548752834468	241.66090702947847	81	127
241.40548752834468	242.41555555555556	33	127
241.40548752834468	242.41555555555556	45	127
241.66090702947847	241.95115646258503	67	127
241.66090702947847	241.95115646258503	79	127
241.95115646258503	242.2414058956916	66	127
241.95115646258503	242.2414058956916	78	127
242.2414058956916	242.5316553287982	64	127
242.2414058956916	242.5316553287982	76	127
242.54326530612244	243.04249433106577	62	127
242.54326530612244	243.04249433106577	68	127
242.54326530612244	243.04249433106577	74	127
242.54326530612244	244.5750113378685	35	127
242.54326530612244	244.5750113378685	47	127
243.63460317460317	244.4356916099773	64	127
243.63460317460317	244.4356916099773	68	127
243.63460317460317	244.4356916099773	74	127
243.63460317460317	244.4356916099773	76	127
244.4356916099773	244.70272108843537	66	127
244.4356916099773	244.70272108843537	78	127
244.70272108843537	245.28321995464853	66	127
244.70272108843537	245.28321995464853	78	127
244.70272108843537	245.5734693877551	35	127
244.70272108843537	245.5734693877551	47	127
244.70272108843537	245.75922902494332	68	127
244.70272108843537	245.75922902494332	74	127
245.28321995464853	245.75922902494332	64	127
245.28321995464853	245.75922902494332	76	127
245.5734693877551	245.85210884353742	37	127
245.5734693877551	245.85210884353742	49	127
245.85210884353742	246.30489795918368	37	127
245.85210884353742	246.30489795918368	49	127
245.85210884353742	246.5487074829932	64	127
245.85210884353742	246.5487074829932	68	127
245.85210884353742	246.5487074829932	74	127
245.85210884353742	246.5487074829932	76	127
246.30489795918368	246.7344671201814	35	127
246.30489795918368	246.7344671201814	47	127
246.5487074829932	246.83895691609976	66	127
246.5487074829932	246.83895691609976	78	127
246.83895691609976	247.34979591836733	66	127
246.83895691609976	247.34979591836733	78	127
246.83895691609976	247.59360544217688	37	127
246.83895691609976	247.59360544217688	49	127
246.83895691609976	247.75614512471654	69	127
247.34979591836733	247.75614512471654	64	127
247.34979591836733	247.75614512471654	76	127
247.59360544217688	247.8374149659864	38	127
247.59360544217688	247.8374149659864	50	127
247.8374149659864	248.35986394557824	38	127
247.8374149659864	248.35986394557824	50	127
247.8374149659864	248.62689342403627	64	127
247.8374149659864	248.62689342403627	69	127
247.8374149659864	248.62689342403627	76	127
248.35986394557824	248.80104308390023	37	127
248.35986394557824	248.80104308390023	49	127
248.62689342403627	248.9055328798186	67	127
248.62689342403627	248.9055328798186	79	127
248.91714285714286	249.46281179138322	67	127
248.91714285714286	249.46281179138322	79	127
248.91714285714286	249.70662131519273	39	127
248.91714285714286	249.70662131519273	51	127
248.91714285714286	249.86916099773242	72	127
249.46281179138322	249.86916099773242	66	127
249.46281179138322	249.86916099773242	78	127
249.70662131519273	249.938820861678	40	127
249.70662131519273	249.938820861678	52	127
249.95043083900228	250.4728798185941	40	127
249.95043083900228	250.4728798185941	52	127
249.95043083900228	250.71668934240364	66	127
249.95043083900228	250.71668934240364	72	127
249.95043083900228	250.71668934240364	78	127
250.4728798185941	250.9488888888889	39	127
250.4728798185941	250.9488888888889	51	127
250.71668934240364	251.01854875283448	69	127
250.71668934240364	251.01854875283448	81	127
251.03015873015872	251.56421768707483	69	127
251.03015873015872	251.56421768707483	81	127
251.03015873015872	251.8312471655329	40	127
251.03015873015872	251.8312471655329	52	127
251.03015873015872	251.99378684807257	73	127
251.56421768707483	251.99378684807257	67	127
251.56421768707483	251.99378684807257	79	127
251.8312471655329	252.06344671201813	42	127
251.8312471655329	252.06344671201813	54	127
252.0750566893424	252.58589569160998	69	127
252.0750566893424	252.58589569160998	74	127
252.0750566893424	252.58589569160998	81	127
252.0750566893424	252.58589569160998	42	127
252.0750566893424	252.58589569160998	54	127
252.58589569160998	253.073514739229	70	127
252.58589569160998	253.073514739229	82	127
252.58589569160998	253.073514739229	38	127
252.58589569160998	253.073514739229	50	127
253.15478458049887	253.68884353741495	83	127
253.15478458049887	254.08358276643992	43	127
253.15478458049887	254.08358276643992	55	127
253.15478458049887	254.13002267573697	71	127
253.15478458049887	254.13002267573697	74	127
253.68884353741495	254.13002267573697	79	127
254.23451247165534	254.73374149659864	69	127
254.23451247165534	254.73374149659864	72	127
254.23451247165534	254.73374149659864	75	127
254.23451247165534	254.73374149659864	78	127
254.23451247165534	255.12848072562358	31	127
254.23451247165534	255.12848072562358	43	127
254.73374149659864	255.17492063492062	67	127
254.73374149659864	255.17492063492062	71	127
254.73374149659864	255.17492063492062	76	127
255.279410430839	255.82507936507938	65	127
255.279410430839	255.82507936507938	68	127
255.279410430839	255.82507936507938	76	127
255.279410430839	256.2198185941043	33	127
255.279410430839	256.2198185941043	45	127
255.82507936507938	256.08049886621313	66	127
255.82507936507938	256.08049886621313	69	127
255.82507936507938	256.08049886621313	74	127
256.3475283446712	256.9048072562358	63	127
256.3475283446712	256.9048072562358	66	127
256.3475283446712	256.9048072562358	74	127
256.3475283446712	257.38081632653063	33	127
256.3475283446712	257.38081632653063	45	127
256.9048072562358	257.2298866213152	64	127
256.9048072562358	257.2298866213152	67	127
256.9048072562358	257.2298866213152	73	127
257.52013605442176	258.00773242630385	64	127
257.52013605442176	258.00773242630385	68	127
257.52013605442176	258.00773242630385	74	127
257.52013605442176	259.517052154195	35	127
257.52013605442176	259.517052154195	47	127
258.10063492063495	258.2631746031746	86	127
258.2631746031746	258.43732426303853	85	127
258.43732426303853	258.6114739229025	88	127
258.6114739229025	258.7740136054422	86	127
258.7740136054422	258.9365306122449	80	127
258.9365306122449	259.1223129251701	76	127
259.1223129251701	259.296462585034	74	127
259.296462585034	259.47061224489795	68	127
259.47061224489795	259.63315192743767	64	127
259.64473922902494	260.41102040816327	35	127
259.64473922902494	260.41102040816327	47	127
260.1672108843537	260.32975056689344	86	127
260.32975056689344	260.50390022675737	85	127
260.41102040816327	260.6548299319728	37	127
260.41102040816327	260.6548299319728	49	127
260.50390022675737	260.6548299319728	88	127
260.6548299319728	260.82897959183674	86	127
260.6548299319728	261.18888888888887	37	127
260.6548299319728	261.18888888888887	49	127
260.82897959183674	261.0263492063492	80	127
261.0263492063492	261.18888888888887	76	127
261.18888888888887	261.3398185941043	74	127
261.18888888888887	261.58360544217686	35	127
261.18888888888887	261.58360544217686	47	127
261.3398185941043	261.502358276644	68	127
261.502358276644	261.6648979591837	64	127
261.6648979591837	262.431156462585	37	127
261.6648979591837	262.431156462585	49	127
262.17573696145126	262.3498866213152	88	127
262.3498866213152	262.5124036281179	87	127
262.431156462585	262.67496598639457	38	127
262.431156462585	262.67496598639457	50	127
262.5124036281179	262.67496598639457	90	127
262.67496598639457	262.87233560090704	88	127
262.67496598639457	263.1974149659864	38	127
262.67496598639457	263.1974149659864	50	127
262.87233560090704	263.0348752834467	81	127
263.0348752834467	263.1974149659864	79	127
263.1974149659864	263.37156462585034	76	127
263.1974149659864	263.6153741496599	37	127
263.1974149659864	263.6153741496599	49	127
263.37156462585034	263.53408163265306	69	127
263.53408163265306	263.71986394557825	67	127
263.71986394557825	264.53256235827666	39	127
263.71986394557825	264.53256235827666	51	127
264.2307029478458	264.4280725623583	90	127
264.4280725623583	264.6138321995465	89	127
264.53256235827666	264.77637188208615	40	127
264.53256235827666	264.77637188208615	52	127
264.6138321995465	264.77637188208615	91	127
264.77637188208615	264.9621088435374	90	127
264.77637188208615	265.31043083900227	40	127
264.77637188208615	265.31043083900227	52	127
264.9621088435374	265.13628117913834	84	127
265.13628117913834	265.31043083900227	81	127
265.31043083900227	265.50780045351473	78	127
265.31043083900227	265.7748072562358	39	127
265.31043083900227	265.7748072562358	51	127
265.50780045351473	265.6819274376417	72	127
265.6819274376417	265.85609977324265	69	127
265.8677097505669	266.63396825396825	40	127
265.8677097505669	266.63396825396825	52	127
266.3785487528345	266.5526984126984	91	127
266.5526984126984	266.7152380952381	85	127
266.63396825396825	266.8777777777778	42	127
266.63396825396825	266.8777777777778	54	127
266.7152380952381	266.88938775510206	79	127
266.88938775510206	267.063537414966	93	127
266.88938775510206	267.40022675736964	42	127
266.88938775510206	267.40022675736964	54	127
267.063537414966	267.22607709750565	86	127
267.22607709750565	267.40022675736964	81	127
267.40022675736964	267.5975963718821	94	127
267.40022675736964	267.98072562358277	38	127
267.40022675736964	267.98072562358277	50	127
267.5975963718821	267.8878458049887	86	127
267.8878458049887	268.05038548752833	82	127
268.0619954648526	268.2245351473923	95	127
268.0619954648526	268.9791836734694	43	127
268.0619954648526	268.9791836734694	55	127
268.2245351473923	268.39868480725625	86	127
268.39868480725625	268.5960544217687	83	127
268.5960544217687	268.7585941043084	91	127
268.7585941043084	268.93274376417236	83	127
268.93274376417236	269.11850340136056	79	127
269.11850340136056	269.30426303854875	90	127
269.11850340136056	270.12857142857143	31	127
269.11850340136056	270.12857142857143	43	127
269.30426303854875	269.58290249433105	81	127
269.58290249433105	269.74544217687077	78	127
269.74544217687077	269.9195918367347	88	127
269.9195918367347	270.0937414965986	79	127
270.0937414965986	270.25628117913834	76	127
270.25628117913834	270.4652607709751	88	127
270.25628117913834	271.2315192743764	33	127
270.25628117913834	271.2315192743764	45	127
270.4652607709751	270.66263038548755	80	127
270.66263038548755	270.8251700680272	77	127
270.8251700680272	270.9992970521542	86	127
270.9992970521542	271.1850793650794	81	127
271.1850793650794	271.34761904761905	78	127
271.34761904761905	271.53337868480725	86	127
271.34761904761905	272.5318140589569	33	127
271.34761904761905	272.5318140589569	45	127
271.53337868480725	271.75396825396825	78	127
271.75396825396825	271.9281179138322	75	127
271.9281179138322	272.25319727891156	85	127
272.25319727891156	272.4157369614513	79	127
272.4157369614513	272.6479365079365	76	127
272.6479365079365	274.5984126984127	33	127
272.6479365079365	274.5984126984127	45	127
272.6479365079365	272.8685260770975	84	127
272.8685260770975	273.0426530612245	81	127
273.0426530612245	273.20521541950114	78	127
273.20521541950114	273.3793650793651	75	127
273.3793650793651	273.5419047619048	72	127
273.5419047619048	273.727664399093	69	127
273.727664399093	273.89020408163265	66	127
273.89020408163265	274.05274376417236	63	127
274.05274376417236	274.2268934240363	60	127
274.2268934240363	274.38943310657595	63	127
274.38943310657595	274.55197278911567	66	127
274.55197278911567	274.8190022675737	69	127
274.83061224489796	276.3515192743764	31	127
274.83061224489796	276.3515192743764	43	127
274.83061224489796	275.05120181405897	72	127
275.05120181405897	275.2253514739229	66	127
275.2253514739229	275.4459410430839	63	127
275.4459410430839	275.60848072562356	59	127
275.60848072562356	275.78263038548755	64	127
275.78263038548755	275.98	67	127
275.98	276.1425396825397	71	127
276.1425396825397	276.31666666666666	67	127
276.31666666666666	276.4908390022676	64	127
276.4908390022676	276.72301587301587	58	127
276.4908390022676	277.4892970521542	32	127
276.4908390022676	277.4892970521542	44	127
276.72301587301587	276.90879818594107	62	127
276.90879818594107	277.0713378684807	65	127
277.0713378684807	277.24548752834465	70	127
277.24548752834465	277.3964172335601	65	127
277.3964172335601	277.5821768707483	62	127
277.5821768707483	277.7563265306122	57	127
277.5821768707483	278.60385487528345	33	127
277.5821768707483	278.60385487528345	45	127
277.7563265306122	277.96530612244896	62	127
277.96530612244896	278.1510430839002	66	127
278.1510430839002	278.3136054421769	69	127
278.3136054421769	278.56902494331064	63	127
278.56902494331064	278.7431746031746	60	127
278.7431746031746	278.91732426303855	64	127
278.7431746031746	279.19596371882085	33	127
278.7431746031746	279.19596371882085	45	127
278.91732426303855	279.10308390022675	61	127
279.10308390022675	279.3120634920635	55	127
279.3120634920635	279.85773242630387	54	127
279.3120634920635	279.85773242630387	62	127
279.3120634920635	279.85773242630387	38	127
279.3120634920635	279.85773242630387	50	127
279.85773242630387	280.41501133786846	71	127
279.85773242630387	280.41501133786846	59	127
280.41501133786846	280.99551020408165	68	127
280.41501133786846	280.99551020408165	56	127
280.99551020408165	283.72385487528345	69	127
280.99551020408165	283.72385487528345	57	127
283.8747619047619	284.40884353741495	62	127
283.8747619047619	284.40884353741495	50	127
284.40884353741495	285.0590022675737	70	127
284.40884353741495	285.0590022675737	58	127
285.0590022675737	285.67433106575965	68	127
285.0590022675737	285.67433106575965	56	127
285.67433106575965	288.2749433106576	69	127
285.67433106575965	288.2749433106576	57	127
288.4607256235828	289.0063945578231	62	127
288.4607256235828	289.0063945578231	50	127
289.0063945578231	289.5520634920635	72	127
289.0063945578231	289.5520634920635	60	127
289.5520634920635	290.07451247165534	69	127
289.5520634920635	290.07451247165534	57	127
290.07451247165534	292.74480725623584	70	127
290.07451247165534	292.74480725623584	58	127
292.9073469387755	293.5110657596372	69	127
292.9073469387755	293.5110657596372	57	127
293.5110657596372	294.93909297052153	70	127
293.5110657596372	294.93909297052153	58	127
295.1132426303855	295.69374149659865	69	127
295.1132426303855	295.69374149659865	57	127
295.69374149659865	297.2610884353742	70	127
295.69374149659865	297.2610884353742	58	127
297.4004081632653	297.9925170068027	70	127
297.4004081632653	297.9925170068027	58	127
297.9925170068027	299.55986394557823	69	127
297.9925170068027	299.55986394557823	57	127
299.96621315192743	300.53510204081635	68	127
300.53510204081635	301.54517006802723	69	127
301.04594104308393	301.4638775510204	31	127
301.04594104308393	301.4638775510204	43	127
301.54517006802723	302.7409977324263	67	127
302.1024489795918	302.53201814058957	33	127
302.1024489795918	302.53201814058957	45	127
302.7409977324263	303.79750566893426	66	127
303.2402267573696	303.6930158730159	33	127
303.2402267573696	303.6930158730159	45	127
303.79750566893426	304.26190476190476	64	127
304.40122448979594	304.86562358276643	54	127
304.40122448979594	304.86562358276643	62	127
304.40122448979594	304.86562358276643	38	127
306.61873015873016	306.7928798185941	66	127
306.61873015873016	306.8625396825397	38	127
306.7928798185941	306.94380952380953	78	127
306.8625396825397	307.1063492063492	42	127
306.94380952380953	307.1063492063492	74	127
307.1063492063492	307.30371882086166	64	127
307.1063492063492	307.38496598639455	45	127
307.30371882086166	307.47786848072565	76	127
307.38496598639455	307.6752380952381	49	127
307.47786848072565	307.6752380952381	73	127
307.6752380952381	307.84938775510204	67	127
307.6752380952381	307.9306575963719	52	127
307.84938775510204	308.023537414966	79	127
307.9306575963719	308.19768707482996	57	127
308.023537414966	308.19768707482996	73	127
308.19768707482996	308.3602267573696	66	127
308.19768707482996	308.4298866213152	62	127
308.3602267573696	308.51113378684806	78	127
308.4298866213152	308.6736961451247	50	127
308.51113378684806	308.6736961451247	74	127
311.05374149659866	311.2278911564626	65	127
311.05374149659866	311.33238095238096	38	127
311.2278911564626	311.42526077097506	77	127
311.33238095238096	311.61102040816326	41	127
311.42526077097506	311.61102040816326	74	127
311.61102040816326	311.8548299319728	64	127
311.61102040816326	311.9477097505669	45	127
311.8548299319728	312.02897959183673	76	127
311.9477097505669	312.2031065759637	49	127
312.02897959183673	312.2031065759637	73	127
312.2031065759637	312.3656689342404	67	127
312.2031065759637	312.47015873015874	52	127
312.3656689342404	312.5398185941043	79	127
312.47015873015874	312.702335600907	57	127
312.5398185941043	312.702335600907	73	127
312.702335600907	312.8648979591837	65	127
312.702335600907	312.9577777777778	62	127
312.8648979591837	313.0390476190476	77	127
312.9577777777778	313.2015873015873	50	127
313.0390476190476	313.2015873015873	74	127
315.45392290249436	315.63968253968255	67	127
315.45392290249436	315.7209523809524	39	127
315.63968253968255	315.8022222222222	79	127
315.7209523809524	315.9763492063492	43	127
315.8022222222222	315.9763492063492	75	127
315.9763492063492	316.13891156462586	65	127
315.9763492063492	316.2201814058957	46	127
316.13891156462586	316.3014512471655	77	127
316.2201814058957	316.4756009070295	50	127
316.3014512471655	316.4756009070295	74	127
316.4756009070295	316.63814058956916	68	127
316.4756009070295	316.719410430839	53	127
316.63814058956916	316.8006575963719	80	127
316.719410430839	316.9748299319728	58	127
316.8006575963719	316.9748299319728	74	127
316.9748299319728	317.13736961451247	67	127
316.9748299319728	317.2186394557823	63	127
317.13736961451247	317.2999092970522	79	127
317.2186394557823	317.52049886621313	51	127
317.2999092970522	317.52049886621313	75	127
318.6931065759637	318.86725623582765	68	127
318.6931065759637	318.94850340136054	50	127
318.86725623582765	319.04138321995464	80	127
318.94850340136054	319.2039455782313	58	127
319.04138321995464	319.2039455782313	77	127
319.2039455782313	319.3780952380952	67	127
319.2039455782313	319.4593424036281	63	127
319.3780952380952	319.5522222222222	79	127
319.4593424036281	319.69156462585033	51	127
319.5522222222222	319.69156462585033	75	127
320.8641723356009	321.0615419501134	68	127
320.8641723356009	321.16603174603176	50	127
321.0615419501134	321.2473015873016	80	127
321.16603174603176	321.40984126984125	58	127
321.2473015873016	321.40984126984125	77	127
321.40984126984125	321.618820861678	67	127
321.40984126984125	321.7000680272109	64	127
321.618820861678	321.792970521542	79	127
321.7000680272109	322.013537414966	49	127
321.792970521542	322.013537414966	76	127
323.1513378684807	323.36031746031745	67	127
323.1513378684807	323.44156462585033	49	127
323.36031746031745	323.5692970521542	79	127
323.44156462585033	323.75503401360544	57	127
323.5692970521542	323.75503401360544	76	127
323.75503401360544	323.9756462585034	66	127
323.75503401360544	324.08013605442176	63	127
323.9756462585034	324.16138321995464	78	127
324.08013605442176	324.3239455782313	48	127
324.16138321995464	324.3239455782313	75	127
325.47333333333336	325.635873015873	66	127
325.47333333333336	325.7287528344671	48	127
325.635873015873	325.81002267573695	78	127
325.7287528344671	325.98417233560093	56	127
325.81002267573695	325.98417233560093	75	127
325.98417233560093	326.1815419501134	65	127
325.98417233560093	326.29764172335604	62	127
326.1815419501134	326.4021088435374	77	127
326.29764172335604	326.56467120181406	47	127
326.4021088435374	326.56467120181406	74	127
327.07551020408164	327.24965986394557	65	127
327.07551020408164	327.33090702947845	62	127
327.24965986394557	327.4586394557823	77	127
327.33090702947845	327.60956916099775	46	127
327.4586394557823	327.60956916099775	74	127
328.1204081632653	328.32938775510206	65	127
328.1204081632653	328.42226757369616	62	127
328.32938775510206	328.51514739229026	77	127
328.42226757369616	328.73573696145127	45	127
328.51514739229026	328.73573696145127	74	127
329.2697732426304	329.4439455782313	65	127
329.2697732426304	329.5484353741497	62	127
329.4439455782313	329.6297052154195	77	127
329.5484353741497	329.79224489795916	44	127
329.6297052154195	329.79224489795916	74	127
329.79224489795916	329.9780045351474	70	127
329.79224489795916	330.05927437641725	43	127
329.9780045351474	330.1405442176871	82	127
330.05927437641725	330.314693877551	58	127
330.1405442176871	330.314693877551	76	127
330.314693877551	330.50043083900226	64	127
330.314693877551	330.5817233560091	61	127
330.50043083900226	330.68621315192746	76	127
330.68621315192746	330.8487528344671	70	127
330.8487528344671	331.02290249433105	81	127
330.8487528344671	331.27832199546486	42	127
331.02290249433105	331.3595918367347	74	127
331.27832199546486	331.5221088435374	57	127
331.3595918367347	331.5221088435374	69	127
331.5221088435374	331.69628117913834	74	127
331.5221088435374	331.7659410430839	58	127
331.69628117913834	331.87043083900227	70	127
331.87043083900227	332.0445804988662	62	127
332.0445804988662	332.25356009070293	79	127
332.0445804988662	332.3348072562358	43	127
332.25356009070293	332.41609977324265	71	127
332.3348072562358	332.60185941043085	55	127
332.41609977324265	332.60185941043085	67	127
332.6134693877551	332.7760090702948	74	127
332.6134693877551	332.88049886621314	59	127
332.7760090702948	332.961768707483	71	127
332.961768707483	333.1243083900227	62	127
333.13591836734696	333.2984580498866	83	127
333.13591836734696	333.37972789115645	43	127
333.2984580498866	333.46097505668934	74	127
333.37972789115645	333.63514739229026	55	127
333.46097505668934	333.63514739229026	71	127
333.63514739229026	333.8092970521542	74	127
333.63514739229026	333.890566893424	59	127
333.8092970521542	333.9834467120181	71	127
333.9834467120181	334.1575963718821	64	127
334.1692063492064	334.42462585034014	76	127
334.1692063492064	334.51750566893423	44	127
334.42462585034014	334.59877551020406	74	127
334.51750566893423	334.7845124716553	56	127
334.59877551020406	334.7845124716553	71	127
334.7845124716553	334.947074829932	74	127
334.7845124716553	335.01673469387754	59	127
334.947074829932	335.10961451247164	71	127
335.10961451247164	335.2837641723356	64	127
335.2953741496599	335.39984126984126	45	127
335.2953741496599	335.39984126984126	57	127
335.5624036281179	335.7829931972789	74	127
335.5624036281179	335.7829931972789	78	127
335.5624036281179	335.7829931972789	62	127
335.5624036281179	335.7829931972789	66	127
335.875873015873	336.1312925170068	78	127
335.875873015873	336.1312925170068	81	127
335.875873015873	336.1312925170068	66	127
335.875873015873	336.1312925170068	69	127
336.21256235827667	336.31705215419504	74	127
336.21256235827667	336.31705215419504	78	127
336.21256235827667	336.31705215419504	62	127
336.21256235827667	336.31705215419504	66	127
336.50281179138324	336.68857142857144	69	127
336.50281179138324	336.68857142857144	74	127
336.50281179138324	336.68857142857144	57	127
336.50281179138324	336.68857142857144	62	127
336.7930612244898	336.978820861678	66	127
336.7930612244898	336.978820861678	69	127
336.7930612244898	336.978820861678	54	127
336.7930612244898	336.978820861678	57	127
337.06009070294783	337.28068027210884	62	127
337.06009070294783	337.28068027210884	66	127
337.06009070294783	337.28068027210884	50	127
337.06009070294783	337.28068027210884	54	127
337.36195011337867	337.4316099773243	62	127
337.36195011337867	337.4316099773243	67	127
337.36195011337867	337.4316099773243	47	127
337.36195011337867	337.4316099773243	50	127
337.36195011337867	337.4316099773243	55	127
337.68702947845804	338.25591836734696	62	127
337.68702947845804	338.25591836734696	66	127
337.68702947845804	338.25591836734696	69	127
337.68702947845804	338.25591836734696	45	127
337.68702947845804	338.25591836734696	50	127
337.68702947845804	338.25591836734696	54	127
337.68702947845804	338.25591836734696	57	127
338.25591836734696	338.73192743764173	65	127
338.25591836734696	338.73192743764173	68	127
338.25591836734696	338.81319727891156	50	127
338.25591836734696	338.81319727891156	53	127
338.25591836734696	338.81319727891156	56	127
338.81319727891156	339.6839455782313	64	127
338.81319727891156	339.6839455782313	67	127
338.81319727891156	339.6839455782313	45	127
338.81319727891156	339.6839455782313	52	127
338.81319727891156	339.6839455782313	55	127
340.3689342403628	340.5663038548753	62	127
340.3689342403628	340.5663038548753	66	127
340.3689342403628	340.5663038548753	50	127
340.3689342403628	340.5663038548753	54	127
340.6475736961451	340.8333333333333	66	127
340.6475736961451	340.8333333333333	69	127
340.6475736961451	340.8333333333333	54	127
340.6475736961451	340.8333333333333	57	127
340.92619047619047	341.01909297052157	62	127
340.92619047619047	341.01909297052157	65	127
340.92619047619047	341.01909297052157	50	127
340.92619047619047	341.01909297052157	53	127
341.1932426303855	342.2381405895692	57	127
341.1932426303855	342.2381405895692	64	127
341.1932426303855	342.2381405895692	45	127
341.1932426303855	342.2381405895692	52	127
342.760566893424	342.9579591836735	62	127
342.760566893424	342.9579591836735	66	127
342.760566893424	342.9579591836735	50	127
342.760566893424	342.9579591836735	54	127
343.02761904761905	343.2714058956916	66	127
343.02761904761905	343.2714058956916	69	127
343.02761904761905	343.2714058956916	54	127
343.02761904761905	343.2714058956916	57	127
343.35269841269843	343.44557823129253	54	127
343.35269841269843	343.44557823129253	62	127
343.35269841269843	343.44557823129253	38	127
343.35269841269843	343.44557823129253	50	127
343.6313378684807	344.62979591836734	55	127
343.6313378684807	344.62979591836734	61	127
343.6313378684807	344.62979591836734	39	127
343.6313378684807	344.62979591836734	51	127
345.10580498866216	345.3147619047619	62	127
345.10580498866216	345.3147619047619	66	127
345.10580498866216	345.3147619047619	50	127
345.10580498866216	345.3147619047619	54	127
345.3960544217687	345.628231292517	66	127
345.3960544217687	345.628231292517	69	127
345.3960544217687	345.628231292517	54	127
345.3960544217687	345.628231292517	57	127
345.7211337868481	345.9533333333333	54	127
345.7211337868481	345.9533333333333	62	127
345.7211337868481	345.9533333333333	38	127
345.7211337868481	345.9533333333333	50	127
346.1507029478458	347.36972789115646	55	127
346.1507029478458	347.36972789115646	61	127
346.1507029478458	347.36972789115646	39	127
346.1507029478458	347.36972789115646	51	127
347.4974603174603	348.0082993197279	54	127
347.4974603174603	348.0082993197279	62	127
347.4974603174603	348.0082993197279	38	127
347.4974603174603	348.0082993197279	50	127
351.29392290249433	352.338820861678	74	127
351.29392290249433	352.338820861678	50	127
351.29392290249433	352.338820861678	62	127
352.338820861678	352.8496598639456	70	127
352.338820861678	352.8496598639456	82	127
352.338820861678	352.8496598639456	58	127
352.8496598639456	353.32566893424035	66	127
352.8496598639456	353.32566893424035	78	127
352.8496598639456	353.32566893424035	54	127
353.32566893424035	353.81326530612245	67	127
353.32566893424035	353.81326530612245	79	127
353.32566893424035	353.81326530612245	55	127
353.8945578231293	354.4169841269841	65	127
353.8945578231293	354.4169841269841	77	127
353.8945578231293	354.4169841269841	53	127
354.4169841269841	354.96267573696144	72	127
354.4169841269841	354.96267573696144	48	127
354.4169841269841	354.96267573696144	60	127
354.96267573696144	355.5780045351474	63	127
354.96267573696144	355.5780045351474	75	127
354.96267573696144	355.5780045351474	51	127
355.5780045351474	356.08884353741496	62	127
355.5780045351474	356.08884353741496	74	127
355.5780045351474	356.08884353741496	50	127
356.1933333333333	356.7738095238095	60	127
356.1933333333333	356.7738095238095	72	127
356.1933333333333	356.7738095238095	48	127
356.7738095238095	357.2498412698413	67	127
356.7738095238095	357.2498412698413	43	127
356.7738095238095	357.2498412698413	55	127
357.2498412698413	357.8767800453515	58	127
357.2498412698413	357.8767800453515	70	127
357.2498412698413	357.8767800453515	46	127
357.8767800453515	358.3295691609977	57	127
357.8767800453515	358.3295691609977	69	127
357.8767800453515	359.4673469387755	45	127
358.4224489795918	358.9216553287982	62	127
358.4224489795918	358.9216553287982	66	127
358.4224489795918	359.4673469387755	33	127
358.9216553287982	360.11750566893426	61	127
358.9216553287982	360.11750566893426	64	127
359.5950566893424	361.0114739229025	38	127
360.11750566893426	361.0463038548753	62	127
361.12757369614513	363.2173469387755	26	127
361.12757369614513	363.2173469387755	38	127
361.7312925170068	362.3350113378685	57	127
361.7312925170068	362.3350113378685	62	127
361.7312925170068	362.3350113378685	65	127
362.3350113378685	362.8342403628118	55	127
362.3350113378685	362.8342403628118	58	127
362.3350113378685	362.8342403628118	61	127
362.8342403628118	363.2638095238095	53	127
362.8342403628118	363.2638095238095	57	127
362.8342403628118	363.2638095238095	62	127
363.34507936507936	364.2158276643991	28	127
363.34507936507936	364.2158276643991	40	127
363.8210657596372	364.98208616780045	55	127
363.8210657596372	364.98208616780045	60	127
363.8210657596372	364.98208616780045	67	127
364.343514739229	365.38843537414965	29	127
364.343514739229	365.38843537414965	41	127
364.98208616780045	365.42326530612246	57	127
364.98208616780045	365.42326530612246	65	127
365.51614512471656	366.51460317460317	33	127
365.51614512471656	366.51460317460317	45	127
366.0966439909297	367.1995691609977	60	127
366.0966439909297	367.1995691609977	65	127
366.0966439909297	367.1995691609977	72	127
366.65392290249434	367.81489795918367	34	127
366.65392290249434	367.81489795918367	46	127
367.1995691609977	367.8497505668934	62	127
367.1995691609977	367.8497505668934	70	127
367.93102040816325	368.8133786848073	35	127
367.93102040816325	368.8133786848073	47	127
368.4302267573696	368.9294784580499	62	127
368.4302267573696	368.9294784580499	67	127
368.4302267573696	368.9294784580499	74	127
368.9294784580499	369.4403174603175	60	127
368.9294784580499	369.88149659863944	36	127
368.9294784580499	369.88149659863944	48	127
368.9294784580499	369.9279365079365	67	127
369.4403174603175	369.9279365079365	58	127
369.4403174603175	369.9279365079365	63	127
370.0904761904762	370.5897052154195	57	127
370.0904761904762	370.5897052154195	62	127
370.0904761904762	370.5897052154195	66	127
370.0904761904762	370.5897052154195	38	127
370.0904761904762	370.5897052154195	50	127
370.6709523809524	371.2166439909297	58	127
370.6709523809524	371.2166439909297	67	127
370.6709523809524	371.2979138321995	39	127
370.6709523809524	371.2979138321995	51	127
370.6709523809524	371.8087528344671	55	127
371.2979138321995	371.8087528344671	57	127
371.2979138321995	371.8087528344671	63	127
371.2979138321995	371.890022675737	36	127
371.2979138321995	371.890022675737	48	127
371.890022675737	372.3892517006803	38	127
371.890022675737	372.3892517006803	50	127
371.890022675737	372.4705215419501	54	127
371.890022675737	372.4705215419501	57	127
371.890022675737	372.4705215419501	62	127
372.4705215419501	372.90009070294786	55	127
372.4705215419501	372.90009070294786	58	127
372.4705215419501	372.90009070294786	31	127
372.4705215419501	372.90009070294786	43	127
374.7925170068027	375.90707482993196	67	127
374.7925170068027	375.90707482993196	75	127
374.7925170068027	375.90707482993196	60	127
374.7925170068027	375.90707482993196	63	127
375.90707482993196	376.3714739229025	68	127
375.90707482993196	376.3714739229025	74	127
375.90707482993196	376.3714739229025	59	127
375.90707482993196	376.3714739229025	65	127
376.9984126984127	378.17102040816326	68	127
376.9984126984127	378.17102040816326	71	127
376.9984126984127	378.17102040816326	74	127
376.9984126984127	378.17102040816326	77	127
376.9984126984127	378.17102040816326	80	127
376.9984126984127	378.17102040816326	59	127
376.9984126984127	378.17102040816326	65	127
378.17102040816326	378.62380952380954	67	127
378.17102040816326	378.62380952380954	70	127
378.17102040816326	378.62380952380954	76	127
378.17102040816326	378.62380952380954	79	127
378.17102040816326	378.62380952380954	60	127
378.17102040816326	378.62380952380954	64	127
379.21591836734694	379.49455782312924	58	127
379.21591836734694	379.49455782312924	67	127
379.21591836734694	379.5061678004535	70	127
379.21591836734694	379.5061678004535	79	127
379.5061678004535	379.7383673469388	68	127
379.5061678004535	379.7383673469388	77	127
379.5061678004535	379.7383673469388	56	127
379.5061678004535	379.7383673469388	65	127
379.7383673469388	379.9589569160998	56	127
379.7383673469388	379.9589569160998	65	127
379.7383673469388	379.97056689342406	68	127
379.7383673469388	379.97056689342406	77	127
379.97056689342406	380.21437641723355	67	127
379.97056689342406	380.21437641723355	75	127
379.97056689342406	380.21437641723355	55	127
379.97056689342406	380.21437641723355	63	127
380.21437641723355	380.44657596371883	68	127
380.21437641723355	380.44657596371883	56	127
380.21437641723355	380.7948752834467	74	127
380.21437641723355	380.7948752834467	62	127
380.4581859410431	380.7948752834467	67	127
380.4581859410431	380.7948752834467	55	127
380.7948752834467	381.0851247165533	67	127
380.7948752834467	381.0851247165533	55	127
381.0851247165533	381.31732426303853	65	127
381.0851247165533	381.31732426303853	53	127
381.31732426303853	381.57274376417234	68	127
381.31732426303853	381.57274376417234	77	127
381.31732426303853	381.57274376417234	56	127
381.31732426303853	381.57274376417234	65	127
381.57274376417234	381.8281632653061	67	127
381.57274376417234	381.8281632653061	75	127
381.57274376417234	381.8281632653061	55	127
381.57274376417234	381.8281632653061	63	127
381.8281632653061	382.0951927437642	67	127
381.8281632653061	382.0951927437642	75	127
381.8281632653061	382.0951927437642	55	127
381.8281632653061	382.0951927437642	63	127
382.0951927437642	382.3390022675737	65	127
382.0951927437642	382.3390022675737	74	127
382.0951927437642	382.3390022675737	53	127
382.0951927437642	382.3390022675737	62	127
382.3390022675737	382.5595918367347	68	127
382.3390022675737	382.5595918367347	56	127
382.3390022675737	382.79179138321996	74	127
382.3390022675737	382.79179138321996	62	127
382.5595918367347	382.79179138321996	67	127
382.5595918367347	382.79179138321996	55	127
382.79179138321996	383.10526077097506	67	127
382.79179138321996	383.10526077097506	55	127
383.10526077097506	383.34907029478455	65	127
383.10526077097506	383.34907029478455	53	127
383.34907029478455	383.60448979591837	72	127
383.34907029478455	383.60448979591837	75	127
383.34907029478455	383.60448979591837	60	127
383.34907029478455	383.60448979591837	63	127
383.60448979591837	383.9179591836735	70	127
383.60448979591837	383.9179591836735	74	127
383.60448979591837	383.9179591836735	58	127
383.60448979591837	383.9179591836735	62	127
383.9179591836735	384.161768707483	70	127
383.9179591836735	384.161768707483	74	127
383.9179591836735	384.161768707483	58	127
383.9179591836735	384.161768707483	62	127
384.161768707483	384.3707482993197	69	127
384.161768707483	384.3707482993197	72	127
384.161768707483	384.3707482993197	57	127
384.161768707483	384.3707482993197	60	127
384.3707482993197	384.6261678004535	69	127
384.3707482993197	384.6261678004535	57	127
384.3707482993197	384.86997732426306	72	127
384.3707482993197	384.86997732426306	60	127
384.6261678004535	384.86997732426306	67	127
384.6261678004535	384.86997732426306	55	127
384.8815873015873	385.1370068027211	67	127
384.8815873015873	385.1370068027211	55	127
385.1370068027211	385.4156462585034	66	127
385.1370068027211	385.4156462585034	54	127
385.4388662131519	385.69428571428574	72	127
385.4388662131519	385.69428571428574	75	127
385.4388662131519	385.69428571428574	60	127
385.4388662131519	385.69428571428574	63	127
385.69428571428574	385.9497052154195	70	127
385.69428571428574	385.9497052154195	74	127
385.69428571428574	385.9497052154195	58	127
385.69428571428574	385.9497052154195	62	127
385.96131519274377	386.2167346938775	70	127
385.96131519274377	386.2167346938775	74	127
385.96131519274377	386.2167346938775	58	127
385.96131519274377	386.2167346938775	62	127
386.2167346938775	386.4489342403628	69	127
386.2167346938775	386.4489342403628	72	127
386.2167346938775	386.4489342403628	57	127
386.2167346938775	386.4489342403628	60	127
386.4605442176871	386.7275736961451	69	127
386.4605442176871	386.7275736961451	57	127
386.4605442176871	387.0178231292517	72	127
386.4605442176871	387.0178231292517	60	127
386.7275736961451	387.0178231292517	67	127
386.7275736961451	387.0178231292517	55	127
387.02943310657594	387.25002267573694	55	127
387.02943310657594	387.25002267573694	67	127
387.25002267573694	387.47061224489795	66	127
387.25002267573694	387.47061224489795	54	127
387.4822222222222	387.7956916099773	72	127
387.4822222222222	387.7956916099773	60	127
387.7956916099773	388.15560090702945	55	127
387.7956916099773	388.15560090702945	67	127
388.178820861678	388.399410430839	67	127
388.178820861678	388.399410430839	55	127
388.399410430839	388.6780498866213	51	127
388.399410430839	388.6780498866213	63	127
388.68965986394556	388.9334693877551	51	127
388.68965986394556	388.9334693877551	63	127
388.9334693877551	389.1772789115646	48	127
388.9334693877551	389.1772789115646	60	127
389.18888888888887	389.4094784580499	60	127
389.18888888888887	389.4094784580499	48	127
389.4094784580499	389.64167800453515	55	127
389.4094784580499	389.64167800453515	43	127
389.6532879818594	390.17573696145126	43	127
389.6532879818594	390.17573696145126	55	127
390.17573696145126	391.3831746031746	32	127
390.17573696145126	391.1277551020408	56	127
390.17573696145126	391.3831746031746	44	127
391.3831746031746	391.8243537414966	31	127
391.3831746031746	391.8243537414966	55	127
391.3831746031746	391.8243537414966	43	127
391.90562358276645	392.96213151927435	29	127
391.90562358276645	392.96213151927435	41	127
391.90562358276645	392.96213151927435	53	127
392.96213151927435	393.9721995464853	27	127
392.96213151927435	393.9721995464853	39	127
392.96213151927435	393.9721995464853	51	127
394.08829931972787	395.77174603174603	38	127
394.08829931972787	395.77174603174603	26	127
394.08829931972787	395.77174603174603	50	127
395.8878458049887	397.7338321995465	66	127
395.8878458049887	397.7338321995465	50	127
395.8878458049887	397.7338321995465	38	127
395.8878458049887	397.7338321995465	60	127
395.8878458049887	397.7338321995465	63	127
395.8878458049887	397.7338321995465	69	127
397.84993197278914	397.9660317460318	87	127
397.84993197278914	398.08213151927436	26	127
397.84993197278914	398.08213151927436	38	127
397.9660317460318	398.08213151927436	86	127
398.08213151927436	398.20984126984126	87	127
398.20984126984126	398.33755102040817	75	127
398.33755102040817	398.56975056689345	60	127
398.33755102040817	398.4536507936508	84	127
398.4536507936508	398.56975056689345	83	127
398.56975056689345	398.70907029478457	84	127
398.56975056689345	398.8251700680272	48	127
398.70907029478457	398.8251700680272	72	127
398.8251700680272	398.94126984126984	81	127
398.8251700680272	399.0573696145125	57	127
398.94126984126984	399.0573696145125	80	127
399.0573696145125	399.2779591836735	45	127
399.0573696145125	399.16185941043085	81	127
399.16185941043085	399.2779591836735	69	127
399.2779591836735	399.47532879818596	54	127
399.2779591836735	399.3940589569161	78	127
399.3940589569161	399.47532879818596	77	127
399.47532879818596	399.6030385487528	78	127
399.47532879818596	399.7307482993197	42	127
399.6030385487528	399.7307482993197	66	127
399.7307482993197	399.97455782312926	51	127
399.7307482993197	399.8584580498866	75	127
399.8584580498866	399.97455782312926	74	127
399.97455782312926	400.06743764172336	75	127
399.97455782312926	400.183537414966	39	127
400.06743764172336	400.183537414966	63	127
400.183537414966	400.450566893424	48	127
400.183537414966	400.3228571428571	72	127
400.3228571428571	400.450566893424	71	127
400.450566893424	400.56666666666666	72	127
400.450566893424	400.6479365079365	36	127
400.56666666666666	400.6479365079365	60	127
400.6479365079365	400.7408163265306	69	127
400.6479365079365	400.8685260770975	45	127
400.7408163265306	400.8685260770975	68	127
400.8685260770975	401.1007256235828	33	127
400.8685260770975	400.98462585034014	69	127
400.98462585034014	401.1007256235828	57	127
401.1007256235828	401.35614512471653	42	127
401.1007256235828	401.2168253968254	66	127
401.2168253968254	401.35614512471653	65	127
401.35614512471653	401.4606349206349	66	127
401.35614512471653	401.56512471655327	30	127
401.4606349206349	401.56512471655327	54	127
401.57673469387754	403.1905215419501	43	127
401.57673469387754	403.1905215419501	67	127
401.57673469387754	403.1905215419501	55	127
401.57673469387754	403.1905215419501	31	127
403.318231292517	405.05972789115646	71	127
403.318231292517	405.05972789115646	41	127
403.318231292517	405.05972789115646	68	127
403.318231292517	405.05972789115646	29	127
403.318231292517	405.05972789115646	62	127
405.18743764172336	405.41963718820864	40	127
405.18743764172336	405.303537414966	92	127
405.18743764172336	405.41963718820864	28	127
405.303537414966	405.41963718820864	91	127
405.41963718820864	405.524126984127	92	127
405.524126984127	405.65183673469386	80	127
405.65183673469386	405.9072562358277	62	127
405.65183673469386	405.7679365079365	86	127
405.7679365079365	405.9072562358277	85	127
405.9072562358277	406.0233560090703	86	127
405.9072562358277	406.13945578231295	50	127
406.0233560090703	406.13945578231295	74	127
406.13945578231295	406.38326530612244	59	127
406.13945578231295	406.2671655328798	83	127
406.2671655328798	406.38326530612244	82	127
406.38326530612244	406.4877551020408	83	127
406.38326530612244	406.60385487528345	47	127
406.4877551020408	406.60385487528345	71	127
406.60385487528345	406.8128344671202	56	127
406.60385487528345	406.7083446712018	80	127
406.7083446712018	406.8128344671202	79	127
406.8128344671202	406.9057142857143	80	127
406.8128344671202	407.0218140589569	44	127
406.9057142857143	407.0218140589569	68	127
407.0218140589569	407.1263038548753	74	127
407.0218140589569	407.2191836734694	50	127
407.1263038548753	407.2191836734694	73	127
407.2191836734694	407.46299319727893	38	127
407.2191836734694	407.3468934240363	74	127
407.3468934240363	407.46299319727893	62	127
407.46299319727893	407.64875283446713	47	127
407.46299319727893	407.5674829931973	71	127
407.5674829931973	407.64875283446713	70	127
407.64875283446713	407.74163265306123	71	127
407.64875283446713	407.86934240362814	35	127
407.74163265306123	407.86934240362814	59	127
407.86934240362814	408.10154195011336	44	127
407.86934240362814	407.997052154195	68	127
407.997052154195	408.10154195011336	67	127
408.10154195011336	408.217641723356	68	127
408.10154195011336	408.3569614512472	32	127
408.217641723356	408.3569614512472	56	127
408.3569614512472	408.61238095238093	38	127
408.3569614512472	408.4846712018141	62	127
408.4846712018141	408.61238095238093	61	127
408.61238095238093	408.74009070294784	62	127
408.61238095238093	408.8561904761905	26	127
408.74009070294784	408.8561904761905	50	127
408.86780045351475	409.23931972789114	49	127
408.86780045351475	409.23931972789114	61	127
408.86780045351475	409.23931972789114	25	127
408.86780045351475	409.23931972789114	37	127
409.33219954648524	409.7269387755102	57	127
409.33219954648524	409.7269387755102	69	127
409.33219954648524	409.7269387755102	76	127
409.33219954648524	409.7269387755102	52	127
409.33219954648524	409.7269387755102	81	127
409.33219954648524	409.7269387755102	49	127
409.80820861678006	410.21455782312927	48	127
409.80820861678006	410.21455782312927	63	127
409.80820861678006	410.21455782312927	75	127
409.80820861678006	410.21455782312927	36	127
410.2958276643991	410.7021768707483	48	127
410.2958276643991	410.7021768707483	52	127
410.2958276643991	410.7021768707483	57	127
410.2958276643991	410.7021768707483	69	127
410.2958276643991	410.7021768707483	76	127
410.2958276643991	410.7021768707483	64	127
410.78344671201813	411.15496598639453	35	127
410.78344671201813	411.15496598639453	47	127
411.2362358276644	411.6774149659864	69	127
411.2362358276644	411.6774149659864	75	127
411.2362358276644	411.6774149659864	78	127
411.2362358276644	411.6774149659864	54	127
411.2362358276644	411.6774149659864	59	127
411.2362358276644	411.6774149659864	47	127
411.2362358276644	411.6774149659864	66	127
411.75868480725626	412.13020408163266	57	127
411.75868480725626	412.13020408163266	28	127
411.75868480725626	412.13020408163266	40	127
411.75868480725626	412.13020408163266	69	127
412.2114739229025	412.54816326530613	56	127
412.2114739229025	412.54816326530613	52	127
412.2114739229025	412.54816326530613	59	127
412.2114739229025	412.54816326530613	68	127
412.2114739229025	412.54816326530613	47	127
412.2114739229025	412.54816326530613	64	127
412.62943310657596	413.0241723356009	35	127
412.62943310657596	413.0241723356009	47	127
413.117052154195	413.51179138321993	79	127
413.117052154195	413.51179138321993	67	127
413.117052154195	413.51179138321993	74	127
413.117052154195	413.51179138321993	47	127
413.117052154195	413.51179138321993	50	127
413.117052154195	413.51179138321993	55	127
413.5930612244898	413.95297052154194	34	127
413.5930612244898	413.95297052154194	61	127
413.5930612244898	413.95297052154194	46	127
413.5930612244898	413.95297052154194	73	127
414.0690702947846	414.45219954648525	50	127
414.0690702947846	414.45219954648525	55	127
414.0690702947846	414.45219954648525	62	127
414.0690702947846	414.45219954648525	46	127
414.0690702947846	414.45219954648525	67	127
414.0690702947846	414.45219954648525	74	127
414.5334693877551	414.92820861678007	45	127
414.5334693877551	414.92820861678007	33	127
415.0094784580499	415.3809977324263	64	127
415.0094784580499	415.3809977324263	45	127
415.0094784580499	415.3809977324263	52	127
415.0094784580499	415.3809977324263	57	127
415.0094784580499	415.3809977324263	73	127
415.0094784580499	415.3809977324263	76	127
415.0094784580499	415.3809977324263	67	127
415.4622675736961	415.8337868480726	55	127
415.4622675736961	415.8337868480726	67	127
415.4622675736961	415.8337868480726	38	127
415.4622675736961	415.8337868480726	50	127
415.90344671201814	416.27496598639453	50	127
415.90344671201814	416.27496598639453	62	127
415.90344671201814	416.27496598639453	45	127
415.90344671201814	416.27496598639453	57	127
415.90344671201814	416.27496598639453	54	127
415.90344671201814	416.27496598639453	66	127
416.3794557823129	416.75097505668936	38	127
416.3794557823129	416.75097505668936	26	127
416.8206349206349	417.2269841269841	69	127
416.8206349206349	417.2269841269841	62	127
416.8206349206349	417.2269841269841	50	127
416.8206349206349	417.2269841269841	57	127
416.8206349206349	417.2269841269841	77	127
416.8206349206349	417.2269841269841	65	127
417.30825396825395	417.6797732426304	68	127
417.30825396825395	417.6797732426304	59	127
417.30825396825395	417.6797732426304	56	127
417.30825396825395	417.6797732426304	52	127
417.30825396825395	417.6797732426304	71	127
417.30825396825395	417.6797732426304	64	127
417.7726530612245	418.1441723356009	40	127
417.7726530612245	418.1441723356009	56	127
417.7726530612245	418.1441723356009	59	127
417.7726530612245	418.1441723356009	52	127
417.7726530612245	418.1441723356009	28	127
418.22544217687073	418.5969614512472	38	127
418.22544217687073	418.5969614512472	53	127
418.22544217687073	418.5969614512472	57	127
418.22544217687073	418.5969614512472	62	127
418.22544217687073	418.5969614512472	26	127
418.678231292517	419.0845804988662	65	127
418.678231292517	419.0845804988662	77	127
418.678231292517	419.0845804988662	57	127
418.678231292517	419.0845804988662	69	127
418.678231292517	419.0845804988662	62	127
418.678231292517	419.0845804988662	50	127
419.1774603174603	419.5838095238095	68	127
419.1774603174603	419.5838095238095	71	127
419.1774603174603	419.5838095238095	64	127
419.1774603174603	419.5838095238095	52	127
419.1774603174603	419.5838095238095	59	127
419.1774603174603	419.5838095238095	56	127
419.6534693877551	420.07142857142856	56	127
419.6534693877551	420.07142857142856	52	127
419.6534693877551	420.07142857142856	40	127
419.6534693877551	420.07142857142856	28	127
419.6534693877551	420.07142857142856	59	127
420.1526984126984	420.5358276643991	38	127
420.1526984126984	420.5358276643991	53	127
420.1526984126984	420.5358276643991	26	127
420.1526984126984	420.5358276643991	62	127
420.1526984126984	420.5358276643991	57	127
420.6287074829932	421.0118367346939	77	127
420.6287074829932	421.0118367346939	69	127
420.6287074829932	421.0118367346939	57	127
420.6287074829932	421.0118367346939	53	127
420.6287074829932	421.0118367346939	50	127
420.6287074829932	421.0118367346939	65	127
420.6287074829932	421.0118367346939	81	127
422.0451247165533	422.4514739229025	59	127
422.0451247165533	422.4514739229025	62	127
422.0451247165533	422.4514739229025	28	127
422.0451247165533	422.4514739229025	68	127
422.0451247165533	422.4514739229025	40	127
422.52113378684805	422.77655328798187	62	127
422.52113378684805	422.64884353741496	74	127
422.64884353741496	422.77655328798187	73	127
422.77655328798187	422.9042630385488	74	127
422.77655328798187	423.02036281179136	59	127
422.9042630385488	423.02036281179136	71	127
423.02036281179136	423.14807256235827	68	127
423.02036281179136	423.2641723356009	56	127
423.14807256235827	423.2641723356009	67	127
423.2641723356009	423.38027210884354	68	127
423.2641723356009	423.4963718820862	53	127
423.38027210884354	423.4963718820862	65	127
423.4963718820862	423.6356916099773	62	127
423.4963718820862	423.75179138321994	50	127
423.6356916099773	423.75179138321994	61	127
423.75179138321994	423.9491609977324	47	127
423.75179138321994	423.83306122448977	62	127
423.83306122448977	423.9491609977324	59	127
423.9491609977324	424.19297052154195	57	127
423.9491609977324	424.19297052154195	45	127
423.9491609977324	424.19297052154195	33	127
424.4367800453515	424.91278911564626	60	127
424.4367800453515	424.91278911564626	57	127
424.4367800453515	424.56448979591835	76	127
424.56448979591835	424.6689795918367	75	127
424.6689795918367	424.78507936507935	76	127
424.78507936507935	424.91278911564626	72	127
424.91278911564626	425.04049886621317	74	127
424.91278911564626	425.4004081632653	62	127
424.91278911564626	425.4004081632653	59	127
425.04049886621317	425.1565986394558	73	127
425.1565986394558	425.28430839002266	74	127
425.28430839002266	425.4004081632653	71	127
425.4004081632653	425.5397278911565	72	127
425.4004081632653	425.88802721088433	60	127
425.4004081632653	425.88802721088433	64	127
425.5397278911565	425.6558276643991	71	127
425.6558276643991	425.81836734693877	72	127
425.81836734693877	425.9692970521542	69	127
425.9692970521542	426.9793650793651	57	127
425.9692970521542	426.9793650793651	60	127
425.9692970521542	426.10861678004534	76	127
426.10861678004534	426.2479365079365	75	127
426.2479365079365	426.36403628117915	76	127
426.36403628117915	426.45691609977325	72	127
426.45691609977325	426.58462585034016	76	127
426.58462585034016	426.712335600907	75	127
426.712335600907	426.82843537414965	76	127
426.82843537414965	426.9793650793651	72	127
426.9793650793651	427.4785941043084	59	127
426.9793650793651	427.10707482993195	74	127
426.9793650793651	427.4785941043084	62	127
427.10707482993195	427.23478458049885	73	127
427.23478458049885	427.3508843537415	74	127
427.3508843537415	427.4785941043084	71	127
427.4785941043084	427.87333333333333	64	127
427.4785941043084	427.87333333333333	60	127
427.4785941043084	427.59469387755104	72	127
427.59469387755104	427.7107936507937	71	127
427.7107936507937	427.82689342403626	72	127
427.82689342403626	427.9313832199546	69	127
427.9429931972789	428.04748299319726	74	127
427.9429931972789	429.40585034013606	62	127
427.9429931972789	429.40585034013606	59	127
428.04748299319726	428.1635827664399	73	127
428.1635827664399	428.27968253968254	74	127
428.27968253968254	428.40739229024945	71	127
428.40739229024945	428.5234920634921	79	127
428.40739229024945	429.40585034013606	67	127
428.5234920634921	428.63959183673467	78	127
428.63959183673467	428.7673015873016	79	127
428.7673015873016	428.918231292517	71	127
428.918231292517	429.04594104308393	79	127
429.04594104308393	429.1620408163265	78	127
429.1620408163265	429.27814058956915	79	127
429.27814058956915	429.40585034013606	71	127
429.40585034013606	429.84702947845807	60	127
429.40585034013606	429.84702947845807	64	127
429.40585034013606	429.54517006802723	79	127
429.54517006802723	429.68448979591835	78	127
429.68448979591835	429.7889795918367	79	127
429.7889795918367	429.91668934240363	72	127
429.9282993197279	431.4259863945578	62	127
429.9282993197279	431.4259863945578	59	127
429.9282993197279	430.04439909297054	74	127
430.04439909297054	430.1721088435374	73	127
430.1721088435374	430.28820861678	74	127
430.28820861678	430.4275283446712	71	127
430.4275283446712	430.5552380952381	79	127
430.4275283446712	431.4259863945578	67	127
430.5552380952381	430.68294784580496	78	127
430.68294784580496	430.7990476190476	79	127
430.7990476190476	430.9383673469388	71	127
430.9383673469388	431.07768707482995	79	127
431.07768707482995	431.19378684807253	78	127
431.19378684807253	431.3098866213152	79	127
431.3098866213152	431.4259863945578	71	127
431.4259863945578	431.832335600907	64	127
431.4259863945578	431.54208616780045	79	127
431.4259863945578	431.832335600907	60	127
431.54208616780045	431.66979591836736	78	127
431.66979591836736	431.78589569161	79	127
431.78589569161	431.91360544217684	72	127
431.9252154195011	433.44612244897957	62	127
431.9252154195011	433.44612244897957	66	127
431.9252154195011	432.052925170068	78	127
432.052925170068	432.18063492063493	77	127
432.18063492063493	432.29673469387757	78	127
432.29673469387757	432.4244444444444	74	127
432.4244444444444	433.44612244897957	69	127
432.4244444444444	432.54054421768706	81	127
432.54054421768706	432.6566439909297	80	127
432.6566439909297	432.7843537414966	81	127
432.7843537414966	432.9120634920635	74	127
432.9120634920635	433.02816326530615	81	127
433.02816326530615	433.17909297052154	80	127
433.17909297052154	433.30680272108845	81	127
433.30680272108845	433.44612244897957	74	127
433.44612244897957	433.817641723356	62	127
433.44612244897957	433.817641723356	67	127
433.44612244897957	433.5390022675737	79	127
433.5390022675737	433.6551020408163	78	127
433.6551020408163	433.77120181405894	79	127
433.77120181405894	433.9105215419501	74	127
433.9221315192744	435.3733786848073	66	127
433.9221315192744	435.3733786848073	62	127
433.9221315192744	434.038231292517	78	127
434.038231292517	434.15433106575966	77	127
434.15433106575966	434.27043083900224	78	127
434.27043083900224	434.3865306122449	74	127
434.3865306122449	435.3733786848073	69	127
434.3865306122449	434.5142403628118	81	127
434.5142403628118	434.65356009070297	80	127
434.65356009070297	434.7696598639456	81	127
434.7696598639456	434.8857596371882	72	127
434.8857596371882	435.0018594104308	81	127
435.0018594104308	435.12956916099773	80	127
435.12956916099773	435.25727891156464	81	127
435.25727891156464	435.3733786848073	72	127
435.3733786848073	435.48947845804986	81	127
435.3733786848073	435.80294784580497	63	127
435.3733786848073	435.80294784580497	66	127
435.48947845804986	435.6055782312925	80	127
435.6055782312925	435.7681179138322	81	127
435.7681179138322	435.88421768707485	71	127
435.8958276643991	436.3950566893424	56	127
435.8958276643991	436.3950566893424	64	127
435.8958276643991	436.03514739229024	80	127
436.03514739229024	436.1396371882086	79	127
436.1396371882086	436.2673469387755	80	127
436.2673469387755	436.3950566893424	71	127
436.3950566893424	436.511156462585	83	127
436.3950566893424	437.38190476190476	59	127
436.3950566893424	437.38190476190476	66	127
436.511156462585	436.6388662131519	82	127
436.6388662131519	436.7781859410431	83	127
436.7781859410431	436.89428571428573	71	127
436.89428571428573	437.01038548752837	83	127
437.01038548752837	437.12648526077095	82	127
437.12648526077095	437.2658049886621	83	127
437.2658049886621	437.38190476190476	71	127
437.38190476190476	437.78825396825397	64	127
437.38190476190476	437.78825396825397	68	127
437.38190476190476	437.4980045351474	88	127
437.4980045351474	437.6373242630385	87	127
437.6373242630385	437.76503401360543	88	127
437.76503401360543	437.85791383219953	76	127
437.8695238095238	438.3803628117914	56	127
437.8695238095238	438.3803628117914	64	127
437.8695238095238	437.98562358276644	80	127
437.98562358276644	438.0901133786848	79	127
438.0901133786848	438.24104308390025	80	127
438.24104308390025	438.3803628117914	68	127
438.3803628117914	439.36721088435377	66	127
438.3803628117914	439.36721088435377	59	127
438.3803628117914	438.48485260770974	83	127
438.48485260770974	438.6009523809524	82	127
438.6009523809524	438.74027210884356	83	127
438.74027210884356	438.8679818594104	71	127
438.8679818594104	438.98408163265304	83	127
438.98408163265304	439.1350113378685	82	127
439.1350113378685	439.2627210884354	83	127
439.2627210884354	439.36721088435377	71	127
439.36721088435377	439.7619501133787	64	127
439.36721088435377	439.7619501133787	68	127
439.36721088435377	439.51814058956916	88	127
439.51814058956916	439.6226303854875	87	127
439.6226303854875	439.73873015873016	88	127
439.73873015873016	439.83160997732426	76	127
439.84321995464853	440.3192290249433	71	127
439.84321995464853	440.3192290249433	62	127
439.84321995464853	440.3192290249433	64	127
439.84321995464853	440.0057596371882	88	127
440.0057596371882	440.15668934240364	87	127
440.15668934240364	440.3192290249433	88	127
440.3192290249433	441.3292970521542	64	127
440.3192290249433	441.3292970521542	69	127
440.3192290249433	441.3292970521542	60	127
440.3192290249433	440.51659863945576	76	127
440.51659863945576	440.69074829931975	88	127
440.69074829931975	440.8881179138322	76	127
440.8881179138322	441.0506575963719	88	127
441.0506575963719	441.1667573696145	76	127
441.1667573696145	441.3292970521542	88	127
441.3292970521542	441.805306122449	68	127
441.3292970521542	441.5382766439909	76	127
441.3292970521542	441.805306122449	59	127
441.5382766439909	441.7124263038549	88	127
441.7124263038549	441.8865759637188	76	127
444.26662131519276	444.76585034013607	52	127
444.26662131519276	444.76585034013607	40	127
444.76585034013607	445.24185941043083	60	127
444.76585034013607	445.24185941043083	48	127
445.24185941043083	445.72947845804987	64	127
445.24185941043083	445.72947845804987	76	127
445.24185941043083	445.72947845804987	44	127
445.24185941043083	445.72947845804987	56	127
445.72947845804987	446.1358276643991	45	127
445.72947845804987	446.21709750566896	84	127
445.72947845804987	446.1358276643991	57	127
445.72947845804987	446.21709750566896	72	127
446.21709750566896	446.6350566893424	53	127
446.21709750566896	446.6350566893424	65	127
446.21709750566896	446.71632653061226	68	127
446.21709750566896	446.71632653061226	80	127
446.71632653061226	446.971746031746	60	127
446.71632653061226	447.14589569160995	69	127
446.71632653061226	447.14589569160995	81	127
446.71632653061226	446.971746031746	48	127
446.9833560090703	447.22716553287984	57	127
446.9833560090703	447.22716553287984	45	127
447.22716553287984	447.72639455782314	77	127
447.22716553287984	447.72639455782314	53	127
447.22716553287984	447.72639455782314	89	127
447.22716553287984	447.72639455782314	41	127
447.72639455782314	448.1443537414966	76	127
447.72639455782314	448.1443537414966	52	127
447.72639455782314	448.1443537414966	88	127
447.72639455782314	448.1443537414966	40	127
448.27206349206347	449.1079818594104	39	127
448.27206349206347	449.22408163265305	87	127
448.27206349206347	449.1079818594104	51	127
448.27206349206347	449.22408163265305	75	127
449.22408163265305	449.618820861678	76	127
449.22408163265305	449.7000907029478	28	127
449.22408163265305	449.618820861678	88	127
449.22408163265305	449.7000907029478	40	127
449.7000907029478	450.1877097505669	52	127
449.7000907029478	450.1877097505669	40	127
450.1877097505669	450.6521088435374	37	127
450.1877097505669	450.6521088435374	49	127
450.6521088435374	451.0120181405896	38	127
450.6521088435374	451.0120181405896	50	127
451.08167800453515	451.5576870748299	26	127
451.08167800453515	451.5576870748299	38	127
451.5576870748299	452.02208616780047	38	127
451.5576870748299	452.02208616780047	50	127
452.1033560090703	452.57936507936506	47	127
452.1033560090703	452.57936507936506	35	127
452.57936507936506	452.98571428571427	36	127
452.57936507936506	452.98571428571427	48	127
453.06698412698415	453.49655328798184	57	127
453.06698412698415	453.49655328798184	37	127
453.06698412698415	453.49655328798184	64	127
453.06698412698415	453.49655328798184	49	127
453.06698412698415	453.49655328798184	69	127
453.5778231292517	453.97256235827666	38	127
453.5778231292517	453.97256235827666	50	127
453.5778231292517	453.97256235827666	81	127
453.5778231292517	453.97256235827666	69	127
453.5778231292517	453.97256235827666	77	127
454.0422222222222	454.43696145124716	76	127
454.0422222222222	454.43696145124716	70	127
454.0422222222222	454.43696145124716	61	127
454.0422222222222	454.43696145124716	49	127
454.0422222222222	454.43696145124716	64	127
454.4950113378685	454.87814058956917	50	127
454.4950113378685	454.87814058956917	77	127
454.4950113378685	454.87814058956917	65	127
454.4950113378685	454.87814058956917	70	127
454.4950113378685	454.87814058956917	62	127
454.959410430839	455.3773696145125	38	127
454.959410430839	455.3773696145125	65	127
454.959410430839	455.3773696145125	50	127
454.959410430839	455.3773696145125	58	127
454.959410430839	455.3773696145125	70	127
455.4586394557823	455.8765986394558	51	127
455.4586394557823	455.8765986394558	39	127
455.4586394557823	455.8765986394558	82	127
455.4586394557823	455.8765986394558	78	127
455.4586394557823	455.8765986394558	70	127
455.94625850340134	456.35260770975054	50	127
455.94625850340134	456.35260770975054	77	127
455.94625850340134	456.35260770975054	71	127
455.94625850340134	456.35260770975054	65	127
455.94625850340134	456.35260770975054	62	127
456.42226757369616	456.84022675736963	78	127
456.42226757369616	456.84022675736963	71	127
456.42226757369616	456.84022675736963	66	127
456.42226757369616	456.84022675736963	63	127
456.42226757369616	456.84022675736963	51	127
456.9098866213152	457.29301587301586	59	127
456.9098866213152	457.29301587301586	39	127
456.9098866213152	457.29301587301586	71	127
456.9098866213152	457.29301587301586	66	127
456.9098866213152	457.29301587301586	51	127
457.3626757369615	457.7690249433107	52	127
457.3626757369615	457.7690249433107	40	127
457.3626757369615	457.7690249433107	83	127
457.3626757369615	457.7690249433107	79	127
457.3626757369615	457.7690249433107	71	127
457.83868480725624	458.2334240362812	71	127
457.83868480725624	458.2334240362812	66	127
457.83868480725624	458.2334240362812	78	127
457.83868480725624	458.2334240362812	63	127
457.83868480725624	458.2334240362812	51	127
458.314693877551	458.70943310657594	67	127
458.314693877551	458.70943310657594	64	127
458.314693877551	458.70943310657594	71	127
458.314693877551	458.70943310657594	52	127
458.314693877551	458.70943310657594	79	127
458.79070294784583	459.20866213151925	51	127
458.79070294784583	459.20866213151925	39	127
458.79070294784583	459.20866213151925	59	127
458.79070294784583	459.20866213151925	71	127
458.79070294784583	459.20866213151925	66	127
459.27832199546486	459.7078911564626	40	127
459.27832199546486	459.7078911564626	83	127
459.27832199546486	459.7078911564626	79	127
459.27832199546486	459.7078911564626	71	127
459.27832199546486	459.7078911564626	52	127
459.8007709750567	460.2071201814059	27	127
459.8007709750567	460.2071201814059	71	127
459.8007709750567	460.2071201814059	66	127
459.8007709750567	460.2071201814059	39	127
459.8007709750567	460.2071201814059	78	127
460.3	460.7179591836735	40	127
460.3	460.7179591836735	79	127
460.3	460.7179591836735	28	127
460.3	460.7179591836735	71	127
460.3	460.7179591836735	67	127
461.3100680272109	461.73963718820863	66	127
461.3100680272109	461.73963718820863	24	127
461.3100680272109	461.73963718820863	78	127
461.3100680272109	461.73963718820863	36	127
461.8092970521542	462.2156462585034	60	127
461.8092970521542	462.2156462585034	76	127
461.8092970521542	462.2156462585034	79	127
461.8092970521542	462.2156462585034	67	127
461.8092970521542	462.2156462585034	48	127
461.8092970521542	462.2156462585034	52	127
463.4114739229025	463.82943310657595	55	127
463.4114739229025	463.82943310657595	52	127
463.4114739229025	463.82943310657595	35	127
463.4114739229025	463.82943310657595	47	127
463.4114739229025	463.82943310657595	64	127
463.9107029478458	464.96721088435373	55	127
463.9107029478458	464.96721088435373	67	127
463.9107029478458	464.96721088435373	64	127
463.9107029478458	464.96721088435373	34	127
463.9107029478458	464.96721088435373	46	127
465.14136054421766	465.3271201814059	71	127
465.14136054421766	465.6754195011338	35	127
465.14136054421766	465.6754195011338	47	127
465.3271201814059	465.4780498866213	59	127
465.4780498866213	465.62897959183675	71	127
465.62897959183675	465.7682993197279	59	127
465.7682993197279	465.8960090702948	81	127
465.8960090702948	466.03532879818596	69	127
466.03532879818596	466.1630385487528	81	127
466.1630385487528	466.27913832199545	69	127
466.27913832199545	466.40684807256235	75	127
466.27913832199545	466.8015873015873	47	127
466.27913832199545	466.8015873015873	35	127
466.40684807256235	466.5577777777778	63	127
466.5577777777778	466.68548752834465	75	127
466.68548752834465	466.8015873015873	63	127
466.8015873015873	467.2775963718821	57	127
466.8015873015873	467.2775963718821	45	127
466.8015873015873	466.9176870748299	78	127
466.9176870748299	467.03378684807257	66	127
467.03378684807257	467.1614965986395	78	127
467.1614965986395	467.2775963718821	66	127
467.2775963718821	467.40530612244896	71	127
467.2775963718821	467.73038548752834	51	127
467.2775963718821	467.73038548752834	39	127
467.40530612244896	467.54462585034014	59	127
467.54462585034014	467.6607256235828	71	127
467.6607256235828	467.73038548752834	59	127
467.73038548752834	468.113514739229	54	127
467.73038548752834	468.113514739229	42	127
467.73038548752834	467.8000453514739	83	127
467.8000453514739	467.9277551020408	71	127
467.9277551020408	468.0554648526077	83	127
468.0554648526077	468.2063945578231	71	127
468.2063945578231	468.32249433106574	76	127
468.2063945578231	468.6824036281179	47	127
468.2063945578231	468.6824036281179	35	127
468.32249433106574	468.4385941043084	64	127
468.4385941043084	468.554693877551	76	127
468.554693877551	468.6824036281179	64	127
468.6824036281179	468.79850340136056	79	127
468.6824036281179	469.17002267573696	47	127
468.6824036281179	469.17002267573696	59	127
468.79850340136056	468.9146031746032	67	127
468.9146031746032	469.04231292517005	79	127
469.04231292517005	469.1584126984127	67	127
469.17002267573696	469.26290249433106	72	127
469.17002267573696	469.63442176870745	52	127
469.17002267573696	469.63442176870745	40	127
469.26290249433106	469.39061224489797	60	127
469.39061224489797	469.5067120181406	72	127
469.5067120181406	469.63442176870745	60	127
469.63442176870745	469.7505215419501	84	127
469.63442176870745	470.0407709750567	43	127
469.63442176870745	470.0407709750567	55	127
469.7505215419501	469.86662131519273	72	127
469.86662131519273	469.99433106575964	84	127
469.99433106575964	470.098820861678	72	127
470.098820861678	470.2265306122449	76	127
470.098820861678	470.5980498866213	48	127
470.098820861678	470.5980498866213	36	127
470.2265306122449	470.34263038548755	64	127
470.34263038548755	470.4703401360544	76	127
470.4703401360544	470.5980498866213	64	127
470.5980498866213	471.0508390022676	48	127
470.5980498866213	470.7257596371882	79	127
470.5980498866213	471.0508390022676	60	127
470.7257596371882	470.80702947845805	67	127
470.80702947845805	470.9231292517007	79	127
470.9231292517007	471.0508390022676	67	127
471.0508390022676	471.53845804988663	52	127
471.0508390022676	471.53845804988663	40	127
471.0508390022676	471.16693877551023	73	127
471.16693877551023	471.2946485260771	61	127
471.2946485260771	471.4107482993197	73	127
471.4107482993197	471.53845804988663	61	127
471.53845804988663	471.642947845805	85	127
471.53845804988663	471.89836734693876	43	127
471.53845804988663	471.89836734693876	55	127
471.642947845805	471.7706575963719	73	127
471.7706575963719	471.8751473922903	85	127
471.8751473922903	471.9680272108844	73	127
471.9680272108844	472.084126984127	76	127
471.9680272108844	472.44403628117914	37	127
471.9680272108844	472.44403628117914	49	127
472.084126984127	472.21183673469386	64	127
472.21183673469386	472.33954648526077	76	127
472.33954648526077	472.44403628117914	64	127
472.44403628117914	472.5485260770975	79	127
472.44403628117914	472.8619954648526	49	127
472.44403628117914	472.8619954648526	61	127
472.5485260770975	472.6762358276644	67	127
472.6762358276644	472.7691156462585	79	127
472.7691156462585	472.8619954648526	67	127
472.8619954648526	472.97809523809525	73	127
472.8619954648526	473.3031746031746	52	127
472.8619954648526	473.3031746031746	40	127
472.97809523809525	473.07097505668935	61	127
473.07097505668935	473.187074829932	73	127
473.187074829932	473.3031746031746	61	127
473.3031746031746	473.407664399093	85	127
473.3031746031746	473.6863038548753	43	127
473.3031746031746	473.6863038548753	55	127
473.407664399093	473.53537414965984	73	127
473.53537414965984	473.6514739229025	85	127
473.6514739229025	473.7675736961451	73	127
473.7675736961451	473.895283446712	76	127
473.7675736961451	474.1855328798186	49	127
473.7675736961451	474.1855328798186	37	127
473.895283446712	474.02299319727894	64	127
474.02299319727894	474.1507029478458	76	127
474.1507029478458	474.2668027210884	64	127
474.2668027210884	474.66154195011336	61	127
474.2668027210884	474.38290249433106	88	127
474.2668027210884	474.66154195011336	49	127
474.38290249433106	474.51061224489797	76	127
474.51061224489797	474.6267120181406	88	127
474.6267120181406	474.74281179138325	76	127
474.75442176870746	474.83569160997735	79	127
474.75442176870746	475.07950113378683	34	127
474.75442176870746	475.07950113378683	46	127
474.83569160997735	474.9401814058957	67	127
474.9401814058957	475.0446712018141	79	127
475.0446712018141	475.16077097505666	67	127
475.17238095238093	475.5322902494331	58	127
475.17238095238093	475.5322902494331	46	127
475.17238095238093	475.2884807256236	91	127
475.2884807256236	475.38136054421767	79	127
475.38136054421767	475.4974603174603	91	127
475.4974603174603	475.61356009070295	79	127
475.6251700680272	475.7296598639456	82	127
475.6251700680272	476.0431292517007	43	127
475.6251700680272	476.0431292517007	31	127
475.7296598639456	475.8573696145125	70	127
475.8573696145125	475.98507936507934	82	127
475.98507936507934	476.11278911564625	70	127
476.1243990929705	476.55396825396826	43	127
476.1243990929705	476.24049886621316	94	127
476.1243990929705	476.55396825396826	55	127
476.24049886621316	476.36820861678007	82	127
476.36820861678007	476.5075283446712	94	127
476.5075283446712	476.6236281179138	82	127
476.6352380952381	476.77455782312927	82	127
476.6352380952381	477.0880272108844	28	127
476.6352380952381	477.0880272108844	40	127
476.77455782312927	476.9138775510204	70	127
476.9138775510204	477.0415873015873	82	127
477.0415873015873	477.1692970521542	70	127
477.1809070294785	477.33183673469387	94	127
477.1809070294785	477.62208616780043	52	127
477.1809070294785	477.62208616780043	40	127
477.33183673469387	477.4479365079365	82	127
477.4479365079365	477.5756462585034	94	127
477.5756462585034	477.69174603174605	82	127
477.7033560090703	477.8194557823129	82	127
477.7033560090703	478.1097052154195	37	127
477.7033560090703	478.1097052154195	25	127
477.83106575963717	477.9471655328798	70	127
477.9471655328798	478.06326530612245	82	127
478.06326530612245	478.19097505668935	70	127
478.19097505668935	478.59732426303856	49	127
478.19097505668935	478.59732426303856	37	127
478.19097505668935	478.307074829932	94	127
478.31868480725626	478.43478458049884	82	127
478.4463945578231	478.5508843537415	94	127
478.5508843537415	478.6785941043084	82	127
478.6785941043084	479.0385034013606	26	127
478.6785941043084	478.78308390022676	92	127
478.6785941043084	479.0385034013606	38	127
478.794693877551	478.87596371882086	80	127
478.8875736961451	478.9920634920635	92	127
478.9920634920635	479.10816326530613	80	127
479.10816326530613	479.50290249433107	50	127
479.10816326530613	479.22426303854877	93	127
479.10816326530613	479.50290249433107	38	127
479.23587301587304	479.3519727891156	81	127
479.3635827664399	479.456462585034	93	127
479.456462585034	479.5841723356009	81	127
479.5841723356009	479.7118820861678	79	127
479.5841723356009	480.00213151927437	28	127
479.5841723356009	480.00213151927437	40	127
479.7118820861678	479.82798185941044	67	127
479.8395918367347	479.95569160997735	79	127
479.95569160997735	480.0834013605442	67	127
480.0834013605442	480.5013605442177	52	127
480.0834013605442	480.5013605442177	40	127
480.0834013605442	480.2111111111111	91	127
480.2111111111111	480.32721088435375	79	127
480.338820861678	480.45492063492065	91	127
480.4665306122449	480.5826303854875	79	127
480.5826303854875	481.000589569161	29	127
480.5826303854875	480.7103401360544	88	127
480.5826303854875	481.000589569161	41	127
480.7103401360544	480.82643990929705	76	127
480.8380498866213	480.95414965986396	88	127
480.9657596371882	481.0702494331066	76	127
481.0702494331066	481.19795918367345	89	127
481.0702494331066	481.4998185941043	53	127
481.0702494331066	481.4998185941043	41	127
481.19795918367345	481.3140589569161	77	127
481.3372789115646	481.45337868480726	89	127
481.46498866213153	481.59269841269844	77	127
481.59269841269844	482.09192743764174	43	127
481.59269841269844	482.09192743764174	55	127
482.09192743764174	482.5795464852608	57	127
482.09192743764174	482.1964172335601	87	127
482.09192743764174	482.5795464852608	45	127
482.1964172335601	482.32412698412696	75	127
482.32412698412696	482.45183673469387	87	127
482.45183673469387	482.5795464852608	75	127
482.5795464852608	482.96267573696144	46	127
482.5795464852608	482.6956462585034	85	127
482.5795464852608	482.96267573696144	58	127
482.6956462585034	482.82335600907027	73	127
482.82335600907027	482.9510657596372	85	127
482.9510657596372	483.05555555555554	73	127
483.05555555555554	483.1716553287982	86	127
483.05555555555554	483.55478458049885	38	127
483.05555555555554	483.55478458049885	50	127
483.1716553287982	483.2993650793651	74	127
483.2993650793651	483.427074829932	86	127
483.427074829932	483.5431746031746	74	127
483.55478458049885	484.00757369614513	52	127
483.55478458049885	484.00757369614513	40	127
484.00757369614513	484.49519274376416	54	127
484.00757369614513	484.49519274376416	42	127
484.00757369614513	484.13528344671204	84	127
484.13528344671204	484.2513832199547	72	127
484.2513832199547	484.36748299319726	84	127
484.36748299319726	484.49519274376416	72	127
484.49519274376416	484.87832199546483	55	127
484.49519274376416	484.87832199546483	43	127
484.49519274376416	484.58807256235826	81	127
484.58807256235826	484.7041723356009	69	127
484.7041723356009	484.8318820861678	81	127
484.8318820861678	484.9363718820862	69	127
484.9363718820862	485.3775510204082	34	127
484.9363718820862	485.04086167800455	82	127
484.9363718820862	485.3775510204082	46	127
485.04086167800455	485.1221315192744	70	127
485.1221315192744	485.2498412698413	82	127
485.2498412698413	485.3775510204082	70	127
485.3775510204082	485.8767800453515	36	127
485.3775510204082	485.8767800453515	48	127
485.8767800453515	486.03931972789115	80	127
485.8767800453515	486.3760090702948	38	127
485.8767800453515	486.3760090702948	50	127
486.03931972789115	486.2134693877551	77	127
486.2134693877551	486.3760090702948	68	127
486.3760090702948	486.77074829931973	39	127
486.3760090702948	486.5153287981859	78	127
486.3760090702948	486.77074829931973	51	127
486.5153287981859	486.6894784580499	70	127
486.6894784580499	486.85201814058956	66	127
486.85201814058956	487.2815873015873	46	127
486.85201814058956	487.2815873015873	34	127
486.85201814058956	487.002947845805	79	127
487.002947845805	487.16548752834467	70	127
487.16548752834467	487.2815873015873	67	127
487.2815873015873	487.7808163265306	48	127
487.2815873015873	487.7808163265306	36	127
487.7808163265306	487.95496598639454	80	127
487.7808163265306	488.2568253968254	50	127
487.7808163265306	488.2568253968254	38	127
487.95496598639454	488.10589569161	77	127
488.10589569161	488.2568253968254	68	127
488.2568253968254	488.67478458049885	51	127
488.2568253968254	488.67478458049885	39	127
488.2568253968254	488.43097505668936	78	127
488.43097505668936	488.593514739229	70	127
488.593514739229	488.7560544217687	66	127
488.7560544217687	488.8837641723356	79	127
488.7560544217687	489.1856235827664	45	127
488.7560544217687	489.1856235827664	33	127
488.8837641723356	489.02308390022677	73	127
489.02308390022677	489.1856235827664	67	127
489.1856235827664	489.67324263038546	49	127
489.1856235827664	489.67324263038546	37	127
489.67324263038546	490.06798185941045	52	127
489.67324263038546	489.84739229024945	81	127
489.67324263038546	490.06798185941045	40	127
489.84739229024945	489.98671201814057	73	127
489.98671201814057	490.16086167800455	69	127
490.16086167800455	490.3350113378685	78	127
490.16086167800455	490.6717006802721	33	127
490.16086167800455	490.6717006802721	45	127
490.3350113378685	490.49755102040814	73	127
490.49755102040814	490.6717006802721	66	127
490.6717006802721	490.8342403628118	79	127
490.6717006802721	491.1360997732426	49	127
490.6717006802721	491.1360997732426	37	127
490.8342403628118	490.98517006802723	73	127
490.98517006802723	491.12448979591835	67	127
491.1360997732426	491.5076190476191	40	127
491.1360997732426	491.28702947845807	81	127
491.1360997732426	491.5076190476191	52	127
491.28702947845807	491.4147392290249	73	127
491.4147392290249	491.5888888888889	69	127
491.5888888888889	492.07650793650794	45	127
491.5888888888889	491.75142857142856	78	127
491.5888888888889	492.07650793650794	33	127
491.75142857142856	491.902358276644	73	127
491.902358276644	492.07650793650794	66	127
492.07650793650794	492.5525170068027	49	127
492.07650793650794	492.5525170068027	37	127
492.07650793650794	492.2274376417234	79	127
492.2274376417234	492.4015873015873	73	127
492.4015873015873	492.5525170068027	67	127
492.5525170068027	492.70344671201815	81	127
492.5525170068027	492.9356462585034	40	127
492.5525170068027	492.9356462585034	52	127
492.70344671201815	492.85437641723354	73	127
492.85437641723354	493.01691609977325	69	127
493.01691609977325	493.51614512471656	38	127
493.01691609977325	493.51614512471656	26	127
493.01691609977325	493.1794557823129	77	127
493.1794557823129	493.35360544217684	74	127
493.35360544217684	493.51614512471656	69	127
493.51614512471656	494.0385941043084	45	127
493.51614512471656	493.70190476190476	78	127
493.70190476190476	493.8760544217687	74	127
493.8760544217687	494.0385941043084	69	127
494.0385941043084	494.21274376417233	73	127
494.0385941043084	494.4565532879819	50	127
494.21274376417233	494.37528344671205	69	127
494.37528344671205	494.5378231292517	66	127
494.5378231292517	494.71197278911563	74	127
494.5378231292517	495.037052154195	26	127
494.71197278911563	494.87451247165535	69	127
494.87451247165535	495.037052154195	66	127
495.037052154195	495.257641723356	68	127
495.037052154195	495.52467120181404	33	127
495.257641723356	495.3853514739229	66	127
495.3853514739229	495.52467120181404	62	127
495.52467120181404	495.69882086167803	69	127
495.52467120181404	495.9426303854875	38	127
495.69882086167803	495.8613605442177	66	127
495.8613605442177	496.02390022675735	62	127
496.02390022675735	496.5347392290249	26	127
496.02390022675735	496.19804988662133	65	127
496.19804988662133	496.37219954648526	62	127
496.37219954648526	496.5347392290249	57	127
496.5347392290249	496.69727891156464	66	127
496.5347392290249	496.9991383219955	33	127
496.69727891156464	496.8598185941043	62	127
496.8598185941043	496.9991383219955	57	127
496.9991383219955	497.15006802721086	61	127
496.9991383219955	497.3938775510204	38	127
497.15006802721086	497.3126077097506	57	127
497.3126077097506	497.47514739229024	54	127
497.47514739229024	497.9395464852608	26	127
497.47514739229024	497.66090702947844	62	127
497.66090702947844	497.8118367346939	57	127
497.8118367346939	497.9395464852608	54	127
497.9395464852608	498.41555555555556	33	127
498.41555555555556	498.5897052154195	61	127
498.41555555555556	498.86834467120184	38	127
498.5897052154195	498.76385487528347	57	127
498.76385487528347	498.94961451247167	54	127
498.94961451247167	499.1237641723356	62	127
498.94961451247167	499.448843537415	26	127
499.1237641723356	499.2979138321995	57	127
499.2979138321995	499.448843537415	54	127
499.448843537415	499.99451247165536	33	127
499.99451247165536	500.4705215419501	38	127
500.5634013605442	501.0742403628118	26	127
500.5634013605442	500.7259410430839	61	127
500.7259410430839	500.90009070294786	57	127
500.90009070294786	501.0742403628118	54	127
501.0742403628118	501.5386394557823	33	127
501.0742403628118	501.32965986394555	62	127
501.5386394557823	501.95659863945576	38	127
506.1826303854875	507.0649886621315	83	127
506.1826303854875	507.0649886621315	74	127
506.1826303854875	507.6454875283447	67	127
506.1826303854875	507.0649886621315	62	127
506.1826303854875	507.6454875283447	79	127
506.1826303854875	507.0649886621315	71	127
507.2275283446712	507.6454875283447	81	127
507.2275283446712	507.6454875283447	72	127
507.2275283446712	507.6454875283447	60	127
507.2275283446712	507.6454875283447	69	127
508.2375963718821	509.34054421768707	78	127
508.2375963718821	509.34054421768707	76	127
508.2375963718821	509.34054421768707	72	127
508.2375963718821	509.34054421768707	84	127
508.2375963718821	509.34054421768707	66	127
508.2375963718821	509.34054421768707	88	127
509.34054421768707	509.72367346938773	74	127
509.34054421768707	509.72367346938773	71	127
509.34054421768707	509.72367346938773	67	127
509.34054421768707	509.72367346938773	79	127
509.34054421768707	509.72367346938773	86	127
509.34054421768707	509.72367346938773	83	127
510.35061224489795	510.5944217687075	74	127
510.35061224489795	510.5944217687075	65	127
510.35061224489795	510.5944217687075	77	127
510.35061224489795	510.5944217687075	86	127
510.5944217687075	510.8150113378685	72	127
510.5944217687075	510.8150113378685	76	127
510.5944217687075	510.8150113378685	64	127
510.5944217687075	510.8150113378685	84	127
510.82662131519277	511.0820408163265	64	127
510.82662131519277	511.0820408163265	72	127
510.82662131519277	511.0820408163265	84	127
510.82662131519277	511.0820408163265	76	127
511.0820408163265	511.3722902494331	74	127
511.0820408163265	511.3722902494331	71	127
511.0820408163265	511.3722902494331	83	127
511.0820408163265	511.3722902494331	62	127
511.3722902494331	512.1501587301588	72	127
511.3722902494331	512.1501587301588	81	127
511.3722902494331	512.1501587301588	69	127
511.3722902494331	512.1501587301588	60	127
512.1501587301588	512.4055782312926	62	127
512.1501587301588	512.4055782312926	83	127
512.1501587301588	512.4055782312926	74	127
512.1501587301588	512.4055782312926	71	127
512.4055782312926	512.6726077097505	74	127
512.4055782312926	512.6726077097505	77	127
512.4055782312926	512.6726077097505	65	127
512.4055782312926	512.6726077097505	86	127
512.6726077097505	512.9860770975057	76	127
512.6726077097505	512.9860770975057	64	127
512.6726077097505	512.9860770975057	72	127
512.6726077097505	512.9860770975057	84	127
512.9860770975057	513.2414739229025	64	127
512.9860770975057	513.2414739229025	84	127
512.9860770975057	513.2414739229025	76	127
512.9860770975057	513.2414739229025	72	127
513.2414739229025	513.4736961451247	83	127
513.2414739229025	513.4736961451247	74	127
513.2414739229025	513.4736961451247	62	127
513.2414739229025	513.4736961451247	71	127
513.4736961451247	514.2167346938776	81	127
513.4736961451247	514.2167346938776	72	127
513.4736961451247	514.2167346938776	60	127
513.4736961451247	514.2167346938776	69	127
514.2167346938776	514.4605442176871	71	127
514.2167346938776	514.4605442176871	74	127
514.2167346938776	514.4605442176871	62	127
514.2167346938776	514.4605442176871	83	127
514.4605442176871	514.7159637188208	67	127
514.4605442176871	514.7159637188208	79	127
514.4605442176871	514.7159637188208	88	127
514.4605442176871	514.7159637188208	76	127
514.7159637188208	514.9713832199546	77	127
514.7159637188208	514.9713832199546	65	127
514.7159637188208	514.9713832199546	86	127
514.7159637188208	514.9713832199546	74	127
514.9713832199546	515.250022675737	74	127
514.9713832199546	515.250022675737	65	127
514.9713832199546	515.250022675737	86	127
514.9713832199546	515.250022675737	77	127
515.250022675737	515.470612244898	76	127
515.250022675737	515.470612244898	64	127
515.250022675737	515.470612244898	85	127
515.250022675737	515.470612244898	73	127
515.4822222222223	516.0162811791383	86	127
515.4822222222223	516.0162811791383	77	127
515.4822222222223	516.0162811791383	74	127
515.4822222222223	516.0162811791383	65	127
516.0162811791383	516.2484807256236	72	127
516.0162811791383	516.2484807256236	64	127
516.0162811791383	516.2484807256236	84	127
516.0162811791383	516.2484807256236	76	127
516.5039002267574	516.9915192743764	72	127
516.5039002267574	516.9915192743764	76	127
516.5039002267574	516.9915192743764	84	127
516.5039002267574	516.9915192743764	64	127
516.9915192743764	517.2237188208617	74	127
516.9915192743764	517.2237188208617	62	127
516.9915192743764	517.2237188208617	83	127
516.9915192743764	517.2237188208617	71	127
517.502358276644	518.0364172335601	71	127
517.502358276644	518.0364172335601	74	127
517.502358276644	518.0364172335601	62	127
517.502358276644	518.0364172335601	83	127
518.0364172335601	518.2802267573696	82	127
518.0364172335601	518.2802267573696	73	127
518.0364172335601	518.2802267573696	61	127
518.0364172335601	518.2802267573696	70	127
518.5472562358277	520.1610430839003	70	127
518.5472562358277	520.1610430839003	61	127
518.5472562358277	520.1610430839003	82	127
518.5472562358277	520.1610430839003	73	127
520.1610430839003	520.6021995464853	81	127
520.1610430839003	520.6021995464853	72	127
520.1610430839003	520.6021995464853	69	127
520.1610430839003	520.6021995464853	60	127
520.683492063492	522.181179138322	68	127
520.683492063492	522.181179138322	65	127
520.683492063492	522.181179138322	80	127
520.683492063492	522.181179138322	77	127
522.181179138322	522.6804081632653	79	127
522.181179138322	522.6804081632653	76	127
522.181179138322	522.6804081632653	67	127
522.181179138322	522.6804081632653	64	127
522.7732879818594	523.5743764172336	74	127
522.7732879818594	523.5743764172336	78	127
522.7732879818594	523.5743764172336	66	127
522.7732879818594	523.5743764172336	62	127
523.5743764172336	523.8414058956917	76	127
523.5743764172336	523.8414058956917	64	127
523.5743764172336	523.8414058956917	72	127
523.5743764172336	523.8414058956917	60	127
523.8530158730159	524.1084353741496	66	127
523.8530158730159	524.1084353741496	86	127
523.8530158730159	524.1084353741496	78	127
523.8530158730159	524.1084353741496	74	127
524.1084353741496	524.387074829932	72	127
524.1084353741496	524.387074829932	64	127
524.1084353741496	524.387074829932	84	127
524.1084353741496	524.387074829932	76	127
524.387074829932	524.6308843537415	74	127
524.387074829932	524.6308843537415	71	127
524.387074829932	524.6308843537415	62	127
524.387074829932	524.6308843537415	83	127
524.6308843537415	524.8630839002268	69	127
524.6308843537415	524.8630839002268	60	127
524.6308843537415	524.8630839002268	81	127
524.6308843537415	524.8630839002268	72	127
524.8746938775511	525.931179138322	71	127
524.8746938775511	525.931179138322	79	127
524.8746938775511	525.931179138322	67	127
524.8746938775511	525.931179138322	59	127
525.931179138322	526.5233106575964	66	127
525.931179138322	526.5233106575964	69	127
525.931179138322	526.5233106575964	78	127
525.931179138322	526.5233106575964	57	127
527.1270294784581	527.3824489795918	50	127
527.1270294784581	528.2415873015873	65	127
527.1270294784581	527.3824489795918	38	127
527.1270294784581	528.2415873015873	62	127
527.1270294784581	528.2415873015873	57	127
527.3940589569161	527.9281179138322	38	127
527.3940589569161	527.9281179138322	50	127
527.9397278911565	528.4853968253968	50	127
527.9397278911565	528.4853968253968	38	127
528.2415873015873	528.7640362811792	56	127
528.2415873015873	528.7640362811792	59	127
528.2415873015873	528.7640362811792	64	127
528.4970068027211	529.112335600907	38	127
528.4970068027211	529.112335600907	50	127
529.1239455782313	529.6463945578231	49	127
529.1239455782313	529.6463945578231	37	127
529.4025623582767	530.4242403628118	52	127
529.4025623582767	530.4242403628118	57	127
529.4025623582767	530.4242403628118	64	127
529.6580045351474	530.168843537415	49	127
529.6580045351474	530.168843537415	37	127
530.1804535147393	530.7261224489796	37	127
530.1804535147393	530.7261224489796	49	127
530.4242403628118	530.9002721088435	54	127
530.4242403628118	530.9002721088435	57	127
530.4242403628118	530.9002721088435	63	127
530.7377324263039	531.2369387755102	37	127
530.7377324263039	531.2369387755102	49	127
531.2369387755102	531.8987301587301	47	127
531.2369387755102	531.8987301587301	35	127
531.5039909297052	532.5604988662132	55	127
531.5039909297052	532.5604988662132	62	127
531.8987301587301	532.421179138322	46	127
531.8987301587301	532.421179138322	34	127
532.421179138322	532.9900680272109	34	127
532.421179138322	532.9900680272109	46	127
532.7230385487528	533.570566893424	54	127
532.7230385487528	533.570566893424	63	127
532.7230385487528	533.570566893424	60	127
532.9900680272109	533.570566893424	45	127
532.9900680272109	533.570566893424	33	127
533.570566893424	533.8724263038549	62	127
533.570566893424	534.1626757369614	33	127
533.570566893424	534.1626757369614	45	127
533.8840362811792	534.847664399093	62	127
533.8840362811792	534.847664399093	55	127
534.1626757369614	534.6851247165533	34	127
534.1626757369614	534.6851247165533	46	127
534.6851247165533	535.2307936507937	34	127
534.6851247165533	535.2307936507937	46	127
534.9753741496598	535.8112925170068	63	127
534.9753741496598	535.8112925170068	60	127
534.9753741496598	535.8112925170068	54	127
535.2307936507937	535.7996825396825	33	127
535.2307936507937	535.7996825396825	45	127
535.8112925170068	536.0667120181406	62	127
535.8112925170068	536.4730612244898	33	127
535.8112925170068	536.4730612244898	45	127
536.0667120181406	537.2393197278911	62	127
536.0667120181406	537.2393197278911	55	127
536.4846712018141	537.0651700680272	46	127
536.4846712018141	537.0651700680272	34	127
537.0767800453515	537.6108390022675	46	127
537.0767800453515	537.6108390022675	34	127
537.3670068027211	538.3538775510204	62	127
537.3670068027211	538.3538775510204	55	127
537.6224489795918	538.2145578231292	35	127
537.6224489795918	538.2145578231292	47	127
538.2261678004535	538.7718367346939	47	127
538.2261678004535	538.7718367346939	35	127
538.5048072562358	539.4684353741496	63	127
538.5048072562358	539.4684353741496	55	127
538.7834467120182	539.3291156462585	48	127
538.7834467120182	539.3291156462585	36	127
539.3407256235828	539.8980045351474	48	127
539.3407256235828	539.8980045351474	36	127
539.5845351473923	540.6642630385487	55	127
539.5845351473923	540.6642630385487	65	127
539.8980045351474	540.501723356009	38	127
539.8980045351474	540.501723356009	50	127
540.501723356009	541.1867120181406	50	127
540.501723356009	541.1867120181406	38	127
540.7919727891157	542.4521995464853	71	127
540.7919727891157	542.4521995464853	68	127
540.7919727891157	541.4421315192744	65	127
541.1867120181406	541.4421315192744	50	127
541.1867120181406	541.4421315192744	38	127
541.4421315192744	541.9297505668934	64	127
541.4421315192744	541.685918367347	40	127
541.4421315192744	541.685918367347	52	127
541.685918367347	541.9297505668934	40	127
541.685918367347	541.9297505668934	52	127
541.9297505668934	542.1619501133787	53	127
541.9297505668934	542.1619501133787	41	127
541.9297505668934	542.4521995464853	62	127
542.1619501133787	542.4521995464853	41	127
542.1619501133787	542.4521995464853	53	127
542.4521995464853	542.9398185941043	72	127
542.4521995464853	542.9398185941043	67	127
542.4521995464853	542.9398185941043	64	127
542.4521995464853	542.7656689342404	40	127
542.4521995464853	542.7656689342404	52	127
542.7656689342404	543.276507936508	52	127
542.7656689342404	543.276507936508	40	127
543.0210884353742	543.5319274376417	67	127
543.0210884353742	544.5884353741496	73	127
543.0210884353742	544.5884353741496	70	127
543.276507936508	543.5319274376417	52	127
543.276507936508	543.5319274376417	40	127
543.5319274376417	543.7757369614512	42	127
543.5319274376417	543.7757369614512	54	127
543.5319274376417	544.0659863945579	66	127
543.7757369614512	544.0659863945579	42	127
543.7757369614512	544.0659863945579	54	127
544.0659863945579	544.3213832199547	43	127
544.0659863945579	544.3213832199547	55	127
544.0659863945579	544.5884353741496	64	127
544.3329931972789	544.5884353741496	43	127
544.3329931972789	544.5884353741496	55	127
544.5884353741496	544.9367120181406	54	127
544.5884353741496	545.1108843537415	74	127
544.5884353741496	545.1108843537415	66	127
544.5884353741496	544.9367120181406	42	127
544.5884353741496	545.1108843537415	69	127
544.9483219954649	545.2385941043084	42	127
544.9483219954649	545.2385941043084	54	127
545.2385941043084	546.1325623582767	69	127
545.2385941043084	545.5172335600907	48	127
545.2385941043084	546.1325623582767	66	127
545.2385941043084	546.1325623582767	63	127
545.2385941043084	545.5172335600907	36	127
545.528843537415	546.1093424036281	48	127
545.528843537415	546.1093424036281	36	127
546.1325623582767	546.6666213151927	48	127
546.1325623582767	546.6666213151927	36	127
546.1325623582767	546.3995918367347	64	127
546.1325623582767	546.3995918367347	67	127
546.3995918367347	546.678231292517	62	127
546.3995918367347	546.678231292517	65	127
546.678231292517	547.2122902494331	36	127
546.678231292517	546.9452607709751	60	127
546.678231292517	546.9452607709751	64	127
546.678231292517	547.2122902494331	48	127
546.9452607709751	547.2239002267573	62	127
546.9452607709751	547.2239002267573	59	127
547.2239002267573	547.8159863945579	36	127
547.2239002267573	547.8159863945579	48	127
547.2239002267573	547.4793197278912	57	127
547.2239002267573	547.4793197278912	60	127
547.4793197278912	547.827619047619	63	127
547.4793197278912	547.827619047619	69	127
547.4793197278912	547.827619047619	66	127
547.827619047619	548.5822675736962	36	127
547.827619047619	548.5822675736962	64	127
547.827619047619	548.5822675736962	48	127
547.827619047619	548.5822675736962	67	127
548.5822675736962	549.1395464852608	36	127
548.5822675736962	549.1395464852608	48	127
548.5822675736962	548.8725170068027	62	127
548.5822675736962	548.8725170068027	68	127
548.884126984127	549.3020861678004	68	127
548.884126984127	549.3020861678004	62	127
549.1395464852608	549.6619954648526	48	127
549.1395464852608	549.6619954648526	36	127
549.3949659863946	549.6619954648526	69	127
549.3949659863946	550.0335147392291	60	127
549.6619954648526	550.0335147392291	36	127
549.6619954648526	550.0335147392291	64	127
549.6619954648526	550.0335147392291	48	127
550.0451020408163	551.1596825396825	59	127
550.0451020408163	550.3585941043084	50	127
550.0451020408163	550.3585941043084	38	127
550.0451020408163	551.1596825396825	62	127
550.3585941043084	550.869410430839	38	127
550.3585941043084	550.869410430839	50	127
550.869410430839	551.4615419501134	50	127
550.869410430839	551.4615419501134	38	127
551.1596825396825	552.2974376417234	61	127
551.1596825396825	552.2974376417234	58	127
551.4615419501134	551.9956009070295	50	127
551.4615419501134	551.9956009070295	38	127
551.9956009070295	552.6109297052154	38	127
552.2974376417234	553.7951473922902	62	127
552.2974376417234	553.7951473922902	57	127
552.6109297052154	553.121746031746	38	127
553.1333560090703	553.6558276643991	38	127
553.6674376417234	554.6078458049886	38	127
554.6078458049886	554.9445351473923	38	127
554.9445351473923	555.4437641723356	74	127
554.9445351473923	555.4437641723356	50	127
554.9445351473923	555.4437641723356	38	127
554.9445351473923	555.4437641723356	62	127
555.4437641723356	556.0590929705215	62	127
555.4437641723356	556.0590929705215	86	127
555.4437641723356	556.0590929705215	74	127
555.4437641723356	556.0590929705215	50	127
556.0590929705215	556.5931292517007	81	127
556.0590929705215	556.5931292517007	69	127
556.0590929705215	556.5931292517007	57	127
556.0590929705215	556.5931292517007	45	127
556.5931292517007	557.2200680272109	58	127
556.5931292517007	557.2200680272109	70	127
556.5931292517007	557.2200680272109	46	127
556.5931292517007	557.2200680272109	82	127
557.3013605442177	557.8934693877551	27	127
557.3013605442177	557.8934693877551	51	127
557.8934693877551	558.4391156462585	39	127
557.8934693877551	558.3578684807256	63	127
558.4391156462585	558.9267573696145	33	127
558.4391156462585	558.8454648526077	57	127
558.9267573696145	559.4375963718821	34	127
558.9267573696145	559.4375963718821	58	127
559.5072562358276	560.0645124716553	39	127
559.5072562358276	560.0645124716553	51	127
559.5072562358276	560.0645124716553	27	127
560.0645124716553	560.6334240362812	51	127
560.0645124716553	560.6334240362812	63	127
560.0645124716553	560.6334240362812	39	127
560.6334240362812	561.1210430839002	57	127
560.6334240362812	561.1210430839002	33	127
560.6334240362812	561.1210430839002	45	127
561.1210430839002	561.5622222222222	34	127
561.1210430839002	561.5622222222222	46	127
561.1210430839002	561.5622222222222	58	127
561.6667120181406	562.1891609977324	56	127
561.6667120181406	562.1891609977324	44	127
561.6667120181406	562.1891609977324	32	127
562.258820861678	562.7464172335601	43	127
562.258820861678	562.7464172335601	31	127
562.258820861678	562.7464172335601	55	127
562.8277097505669	563.2224489795918	29	127
562.8277097505669	563.2224489795918	53	127
562.8277097505669	563.2224489795918	41	127
563.2921088435374	563.6984580498867	39	127
563.2921088435374	563.6984580498867	27	127
563.2921088435374	563.6984580498867	51	127
563.7680952380953	564.3253968253969	26	127
563.7680952380953	564.3253968253969	50	127
563.7680952380953	564.3253968253969	38	127
564.3950566893424	564.9755328798186	60	127
564.3950566893424	564.9755328798186	87	127
564.3950566893424	564.9755328798186	75	127
564.3950566893424	564.9755328798186	63	127
564.3950566893424	564.9755328798186	84	127
564.3950566893424	565.5096145124717	54	127
564.9755328798186	565.5096145124717	62	127
564.9755328798186	565.5096145124717	86	127
564.9755328798186	565.5096145124717	74	127
564.9755328798186	565.5096145124717	82	127
564.9755328798186	565.5096145124717	58	127
565.5096145124717	566.5312925170068	81	127
565.5096145124717	566.5312925170068	72	127
565.5096145124717	566.5312925170068	84	127
565.5096145124717	565.9740136054422	60	127
565.5096145124717	565.9740136054422	54	127
565.5096145124717	565.9740136054422	57	127
566.0668934240363	566.6125396825397	43	127
566.0668934240363	566.6125396825397	55	127
566.6125396825397	567.1466213151928	51	127
566.6125396825397	566.6822222222222	82	127
566.6125396825397	567.0537414965986	70	127
566.6125396825397	567.0537414965986	79	127
566.6125396825397	567.1466213151928	39	127
566.6822222222222	566.7867120181406	84	127
566.7867120181406	566.891201814059	82	127
566.891201814059	567.0073015873016	81	127
567.0073015873016	567.1466213151928	82	127
567.1466213151928	567.7039002267574	81	127
567.1466213151928	567.7039002267574	48	127
567.1466213151928	567.7039002267574	72	127
567.1466213151928	567.7039002267574	84	127
567.1466213151928	567.7039002267574	36	127
567.7039002267574	568.1218594104308	50	127
567.7039002267574	568.1218594104308	81	127
567.7039002267574	568.1218594104308	78	127
567.7039002267574	568.1218594104308	38	127
567.7039002267574	568.1218594104308	69	127
567.7039002267574	568.1218594104308	72	127
568.2031292517007	568.6675056689343	79	127
568.2031292517007	568.6675056689343	50	127
568.2031292517007	568.6675056689343	74	127
568.2031292517007	568.6675056689343	70	127
568.2031292517007	568.6675056689343	55	127
568.2031292517007	568.6675056689343	67	127
568.2031292517007	568.6675056689343	46	127
569.7936961451247	569.9097959183673	34	127
569.7936961451247	569.9097959183673	58	127
569.9097959183673	570.02589569161	33	127
569.9097959183673	570.02589569161	57	127
570.02589569161	570.1419954648526	58	127
570.02589569161	570.1419954648526	34	127
570.1419954648526	570.2697052154195	31	127
570.1419954648526	570.2697052154195	55	127
570.2813151927438	570.687664399093	65	127
570.2813151927438	570.687664399093	41	127
570.2813151927438	570.687664399093	60	127
570.2813151927438	570.687664399093	57	127
570.2813151927438	570.687664399093	45	127
570.2813151927438	570.687664399093	33	127
571.7441723356009	571.8602721088436	38	127
571.7441723356009	571.8602721088436	62	127
571.8602721088436	571.9879818594104	36	127
571.8602721088436	571.9879818594104	60	127
571.9879818594104	572.1040816326531	38	127
571.9879818594104	572.1040816326531	62	127
572.1040816326531	572.2085714285714	58	127
572.1040816326531	572.2085714285714	34	127
572.2201814058957	572.5917006802721	48	127
572.2201814058957	572.5917006802721	58	127
572.2201814058957	572.5917006802721	67	127
572.2201814058957	572.5917006802721	64	127
572.2201814058957	572.5917006802721	36	127
573.6249886621315	573.7410884353742	64	127
573.6249886621315	573.7410884353742	40	127
573.7410884353742	573.868798185941	38	127
573.7410884353742	573.868798185941	62	127
573.868798185941	574.0197278911564	40	127
573.868798185941	574.0197278911564	64	127
574.0197278911564	574.1590476190477	37	127
574.0197278911564	574.1590476190477	61	127
574.6698866213152	574.7743764172336	42	127
574.6698866213152	574.7743764172336	66	127
574.7743764172336	574.8904761904762	40	127
574.7743764172336	574.8904761904762	64	127
574.8904761904762	575.0065532879819	66	127
574.8904761904762	575.0065532879819	42	127
575.0065532879819	575.1110657596372	62	127
575.0065532879819	575.1110657596372	38	127
575.6567346938775	575.7844444444445	43	127
575.6567346938775	575.7844444444445	67	127
575.7844444444445	575.9005442176871	66	127
575.7844444444445	575.9005442176871	42	127
575.9005442176871	576.0398639455782	43	127
575.9005442176871	576.0398639455782	67	127
576.0398639455782	576.1443537414966	64	127
576.0398639455782	576.1443537414966	40	127
576.7132426303855	576.8293197278912	45	127
576.7132426303855	576.8293197278912	69	127
576.8293197278912	576.9338321995465	67	127
576.8293197278912	576.9338321995465	43	127
576.9338321995465	577.0499092970522	69	127
576.9338321995465	577.0499092970522	45	127
577.0499092970522	577.1660317460318	42	127
577.0499092970522	577.1660317460318	66	127
577.1660317460318	577.2821315192743	46	127
577.1660317460318	577.2821315192743	70	127
577.2821315192743	577.3866213151928	69	127
577.2821315192743	577.3866213151928	45	127
577.3866213151928	577.5143310657596	46	127
577.3866213151928	577.5143310657596	70	127
577.5143310657596	577.6304308390023	67	127
577.5143310657596	577.6304308390023	43	127
577.6304308390023	577.7581405895692	48	127
577.6304308390023	577.7581405895692	72	127
577.7581405895692	577.8626077097506	46	127
577.7581405895692	577.8626077097506	70	127
577.8626077097506	577.9903401360544	72	127
577.8626077097506	577.9903401360544	48	127
577.9903401360544	578.0948299319728	69	127
577.9903401360544	578.0948299319728	45	127
578.6172789115647	578.7333786848072	50	127
578.6172789115647	578.7333786848072	74	127
578.7333786848072	578.8494784580499	72	127
578.7333786848072	578.8494784580499	48	127
578.8494784580499	578.9771882086168	50	127
578.8494784580499	578.9771882086168	74	127
578.9771882086168	579.0932653061225	71	127
578.9771882086168	579.0932653061225	47	127
579.0932653061225	579.2093877551021	51	127
579.0932653061225	579.2093877551021	75	127
579.2093877551021	579.3254875283446	50	127
579.2093877551021	579.3254875283446	74	127
579.3254875283446	579.4415873015873	75	127
579.3254875283446	579.4415873015873	51	127
579.4415873015873	579.5576870748299	48	127
579.4415873015873	579.5576870748299	72	127
579.5576870748299	579.6737868480726	77	127
579.5576870748299	579.6737868480726	53	127
579.6737868480726	579.7898866213152	51	127
579.6737868480726	579.7898866213152	75	127
579.7898866213152	579.9175736961452	53	127
579.7898866213152	579.9175736961452	77	127
579.9175736961452	580.0336961451247	74	127
579.9175736961452	580.0336961451247	50	127
580.0336961451247	580.1846258503401	67	127
580.0336961451247	580.1846258503401	79	127
580.0336961451247	580.1846258503401	76	127
580.0336961451247	580.1846258503401	49	127
580.0336961451247	580.1846258503401	61	127
580.5793650793651	581.0205442176871	37	127
580.5793650793651	581.0205442176871	67	127
580.5793650793651	581.0205442176871	55	127
580.5793650793651	581.0205442176871	49	127
580.5793650793651	581.0205442176871	64	127
581.0205442176871	581.415283446712	54	127
581.0205442176871	581.415283446712	66	127
581.0205442176871	581.415283446712	63	127
581.0205442176871	581.415283446712	48	127
581.0205442176871	581.415283446712	36	127
581.4965532879819	581.9725623582766	48	127
581.4965532879819	581.9725623582766	60	127
581.4965532879819	581.9725623582766	75	127
581.4965532879819	581.9725623582766	78	127
581.4965532879819	581.9725623582766	66	127
581.9725623582766	582.3556689342404	46	127
581.9725623582766	582.3556689342404	67	127
581.9725623582766	582.3556689342404	58	127
581.9725623582766	582.3556689342404	74	127
581.9725623582766	582.3556689342404	79	127
582.4601814058957	582.5762585034014	67	127
582.4601814058957	582.5762585034014	58	127
582.4601814058957	582.5762585034014	55	127
582.4601814058957	582.5762585034014	51	127
582.4601814058957	582.5762585034014	39	127
582.912970521542	583.0290702947846	63	127
582.912970521542	583.0290702947846	48	127
582.912970521542	583.0290702947846	36	127
582.912970521542	583.0290702947846	57	127
582.912970521542	583.0290702947846	69	127
583.3889569160998	583.5050793650794	38	127
583.3889569160998	583.5050793650794	66	127
583.3889569160998	583.5050793650794	62	127
583.3889569160998	583.5050793650794	50	127
583.3889569160998	583.5050793650794	57	127
583.88820861678	584.2945578231293	31	127
583.88820861678	584.2945578231293	55	127
583.88820861678	584.2945578231293	43	127
583.88820861678	584.2945578231293	67	127
584.3758276643991	584.4803174603175	79	127
584.3758276643991	584.4803174603175	55	127
584.4803174603175	584.5964172335601	78	127
584.4803174603175	584.5964172335601	54	127
584.5964172335601	584.7009070294785	55	127
584.5964172335601	584.7009070294785	79	127
584.7125170068027	584.8285941043084	67	127
584.7125170068027	584.8285941043084	43	127
584.8285941043084	585.0840362811791	63	127
584.8285941043084	585.0840362811791	75	127
584.8285941043084	585.0840362811791	51	127
584.8285941043084	585.0840362811791	39	127
585.3278458049887	585.4555555555555	75	127
585.3278458049887	585.4555555555555	51	127
585.4555555555555	585.606485260771	50	127
585.4555555555555	585.606485260771	74	127
585.606485260771	585.7341950113379	51	127
585.606485260771	585.7341950113379	75	127
585.7458049886621	585.8619047619047	63	127
585.7458049886621	585.8619047619047	39	127
585.8619047619047	586.1289342403628	60	127
585.8619047619047	586.1289342403628	72	127
585.8619047619047	586.1289342403628	36	127
585.8619047619047	586.1289342403628	48	127
586.3727437641724	586.5004535147392	48	127
586.3727437641724	586.5004535147392	72	127
586.5004535147392	586.6165532879819	71	127
586.5004535147392	586.6165532879819	47	127
586.6165532879819	586.709433106576	48	127
586.6165532879819	586.709433106576	72	127
586.7210430839002	586.8371428571429	60	127
586.7210430839002	586.8371428571429	36	127
586.8371428571429	587.0693197278912	50	127
586.8371428571429	587.0693197278912	38	127
586.8371428571429	587.0693197278912	62	127
586.8371428571429	587.0693197278912	74	127
587.3247619047619	587.4408616780046	74	127
587.3247619047619	587.4408616780046	50	127
587.4408616780046	587.5685714285714	73	127
587.4408616780046	587.5685714285714	49	127
587.5685714285714	587.6730385487529	50	127
587.5685714285714	587.6730385487529	74	127
587.6730385487529	587.7891609977324	62	127
587.6730385487529	587.7891609977324	38	127
587.7891609977324	588.0213605442177	67	127
587.7891609977324	588.0213605442177	43	127
587.7891609977324	588.0213605442177	79	127
587.7891609977324	588.0213605442177	55	127
588.253560090703	588.3696598639456	79	127
588.253560090703	588.3696598639456	55	127
588.3696598639456	588.4857369614513	78	127
588.3696598639456	588.4857369614513	54	127
588.4857369614513	588.6018594104308	55	127
588.4857369614513	588.6018594104308	79	127
588.6018594104308	588.7063265306123	67	127
588.6018594104308	588.7063265306123	43	127
588.7063265306123	588.9385487528344	39	127
588.7063265306123	588.9385487528344	75	127
588.7063265306123	588.9385487528344	51	127
588.7063265306123	588.9385487528344	63	127
589.2055782312925	589.3681179138322	75	127
589.2055782312925	589.3681179138322	51	127
589.3681179138322	589.4842176870749	50	127
589.3681179138322	589.4842176870749	74	127
589.4842176870749	589.6003174603175	75	127
589.4842176870749	589.6003174603175	51	127
589.6003174603175	589.7163945578232	39	127
589.6003174603175	589.7163945578232	63	127
589.7163945578232	589.9602267573696	48	127
589.7163945578232	589.9602267573696	60	127
589.7163945578232	589.9602267573696	36	127
589.7163945578232	589.9602267573696	72	127
590.2040362811791	590.3201360544218	72	127
590.2040362811791	590.3201360544218	48	127
590.3201360544218	590.4478458049887	47	127
590.3201360544218	590.4478458049887	71	127
590.4478458049887	590.5639455782313	72	127
590.4478458049887	590.5639455782313	48	127
590.5639455782313	590.680045351474	36	127
590.5639455782313	590.680045351474	60	127
590.680045351474	590.947052154195	38	127
590.680045351474	590.947052154195	62	127
590.680045351474	590.947052154195	74	127
590.680045351474	590.947052154195	50	127
591.1908843537415	591.3185941043084	50	127
591.1908843537415	591.3185941043084	74	127
591.3185941043084	591.4230839002267	49	127
591.3185941043084	591.4230839002267	73	127
591.4230839002267	591.5159637188209	50	127
591.4230839002267	591.5159637188209	74	127
591.5159637188209	591.6320634920635	62	127
591.5159637188209	591.6320634920635	38	127
591.6320634920635	591.8642630385488	75	127
591.6320634920635	591.8642630385488	63	127
591.6320634920635	591.8642630385488	51	127
591.6320634920635	591.8642630385488	39	127
592.1196825396826	592.2473922902494	51	127
592.1196825396826	592.2473922902494	75	127
592.2473922902494	592.3518820861678	74	127
592.2473922902494	592.3518820861678	50	127
592.3518820861678	592.4447619047619	51	127
592.3518820861678	592.4447619047619	75	127
592.4447619047619	592.5608616780046	39	127
592.4447619047619	592.5608616780046	63	127
592.5608616780046	592.804671201814	36	127
592.5608616780046	592.804671201814	60	127
592.5608616780046	592.804671201814	48	127
592.5608616780046	592.804671201814	72	127
593.0484807256236	593.1877777777778	72	127
593.0484807256236	593.1877777777778	48	127
593.1877777777778	593.3155102040816	47	127
593.1877777777778	593.3155102040816	71	127
593.3155102040816	593.42	48	127
593.3155102040816	593.42	72	127
593.42	593.5360997732427	60	127
593.42	593.5360997732427	36	127
593.5360997732427	593.8379591836734	44	127
593.5360997732427	593.8379591836734	32	127
593.5360997732427	593.8379591836734	68	127
593.5360997732427	593.8379591836734	56	127
594.1049886621315	594.2326757369615	68	127
594.1049886621315	594.2326757369615	44	127
594.2326757369615	594.3487981859411	67	127
594.2326757369615	594.3487981859411	43	127
594.3487981859411	594.4532879818594	68	127
594.3487981859411	594.4532879818594	44	127
594.4532879818594	594.5577777777778	32	127
594.4532879818594	594.5577777777778	56	127
594.5577777777778	594.8247845804989	46	127
594.5577777777778	594.8247845804989	34	127
594.5577777777778	594.8247845804989	58	127
594.5577777777778	594.8247845804989	70	127
595.057006802721	595.184716553288	70	127
595.057006802721	595.184716553288	46	127
595.184716553288	595.3124263038549	69	127
595.184716553288	595.3124263038549	45	127
595.3124263038549	595.4401133786848	70	127
595.3124263038549	595.4401133786848	46	127
595.4401133786848	595.5910657596372	34	127
595.4401133786848	595.5910657596372	58	127
595.5910657596372	596.2528344671202	75	127
595.5910657596372	596.2528344671202	39	127
595.5910657596372	596.2528344671202	79	127
595.5910657596372	596.2528344671202	27	127
595.5910657596372	596.2528344671202	67	127
596.33410430839	596.46179138322	91	127
596.33410430839	596.5779138321996	67	127
596.46179138322	596.5779138321996	90	127
596.5779138321996	596.8101133786848	55	127
596.5779138321996	596.6940136054421	91	127
596.6940136054421	596.8101133786848	79	127
596.8101133786848	597.0655328798186	63	127
596.8101133786848	596.949433106576	87	127
596.949433106576	597.0655328798186	86	127
597.0655328798186	597.1816326530612	87	127
597.0655328798186	597.3325623582766	51	127
597.1816326530612	597.3325623582766	75	127
597.3325623582766	597.5531519274376	58	127
597.3325623582766	597.437052154195	82	127
597.437052154195	597.5531519274376	81	127
597.5531519274376	597.7389115646258	46	127
597.5531519274376	597.6460317460318	82	127
597.6460317460318	597.7389115646258	70	127
597.7505215419501	597.8550113378685	79	127
597.7505215419501	597.9943310657596	55	127
597.8550113378685	597.9943310657596	78	127
597.9943310657596	598.1220408163265	79	127
597.9943310657596	598.2497505668935	43	127
598.1220408163265	598.2497505668935	67	127
598.2497505668935	598.4703401360545	51	127
598.2497505668935	598.3426303854875	75	127
598.3426303854875	598.4703401360545	74	127
598.4703401360545	598.714126984127	39	127
598.4703401360545	598.5980498866213	75	127
598.5980498866213	598.714126984127	63	127
598.714126984127	598.9579591836734	46	127
598.714126984127	598.8302494331066	70	127
598.8302494331066	598.9579591836734	69	127
598.9579591836734	599.0740589569161	70	127
598.9579591836734	599.1901587301587	34	127
599.0740589569161	599.1901587301587	58	127
599.1901587301587	599.2946485260771	67	127
599.1901587301587	599.3643083900226	43	127
599.2946485260771	599.3643083900226	66	127
599.3643083900226	599.4687981859411	67	127
599.3643083900226	599.5965079365079	34	127
599.4687981859411	599.5965079365079	58	127
599.6081179138322	599.7242176870749	63	127
599.6081179138322	599.8403174603175	39	127
599.7242176870749	599.8403174603175	62	127
599.8403174603175	599.9563945578232	63	127
599.8403174603175	600.084126984127	34	127
599.9680272108843	600.084126984127	58	127
600.0957369614513	600.2931065759637	39	127
600.0957369614513	600.2118367346939	63	127
600.2118367346939	600.2931065759637	62	127
600.2931065759637	600.4904761904762	34	127
600.2931065759637	600.3859863945578	63	127
600.3859863945578	600.4904761904762	58	127
600.5020861678005	600.74589569161	41	127
600.5020861678005	600.6181859410431	65	127
600.6181859410431	600.74589569161	64	127
600.74589569161	600.9897052154195	34	127
600.74589569161	600.8736054421769	65	127
600.8736054421769	600.9897052154195	58	127
601.0013151927437	601.1522448979592	42	127
601.0013151927437	601.1174149659864	66	127
601.1290249433107	601.1522448979592	65	127
601.1522448979592	601.3960544217687	34	127
601.1522448979592	601.2799546485261	66	127
601.2799546485261	601.3960544217687	58	127
601.4076643990929	601.6166439909297	43	127
601.4076643990929	601.5121541950114	67	127
601.5237641723356	601.6166439909297	66	127
601.6166439909297	601.7443537414966	67	127
601.6166439909297	601.8604535147392	34	127
601.7443537414966	601.8604535147392	58	127
601.8720634920635	601.9881405895692	68	127
601.8720634920635	602.115873015873	44	127
601.9997505668935	602.115873015873	67	127
602.115873015873	602.2435827664399	68	127
602.115873015873	602.3712925170069	34	127
602.2435827664399	602.3712925170069	58	127
602.3712925170069	602.557052154195	46	127
602.3712925170069	602.4525623582766	70	127
602.4641723356009	602.557052154195	69	127
602.5686621315193	602.777641723356	34	127
602.5686621315193	602.6499319727891	70	127
602.6499319727891	602.777641723356	58	127
602.777641723356	603.0098185941043	48	127
602.777641723356	602.8821315192744	72	127
602.8937414965986	603.0098185941043	71	127
603.0214285714286	603.265260770975	34	127
603.0214285714286	603.1375510204082	72	127
603.1375510204082	603.265260770975	58	127
603.265260770975	603.3813605442177	75	127
603.265260770975	603.4974603174603	51	127
603.392970521542	603.4974603174603	74	127
603.5090702947846	603.613560090703	75	127
603.5090702947846	603.7296598639456	34	127
603.613560090703	603.7296598639456	58	127
603.7296598639456	603.8573696145124	74	127
603.7296598639456	603.9618594104309	50	127
603.8573696145124	603.9618594104309	73	127
603.9734693877551	604.0895691609977	74	127
603.9734693877551	604.2172789115647	34	127
604.0895691609977	604.2172789115647	58	127
604.2172789115647	604.4262585034014	46	127
604.2172789115647	604.3101587301587	70	127
604.3101587301587	604.4262585034014	69	127
604.4378458049887	604.6700680272108	34	127
604.4378458049887	604.5539682539683	70	127
604.5655782312925	604.6700680272108	58	127
604.6700680272108	604.9138775510204	44	127
604.6700680272108	604.7977777777778	68	127
604.7977777777778	604.9138775510204	67	127
604.9254875283447	605.1460770975057	34	127
604.9254875283447	605.0415873015874	68	127
605.0531746031746	605.1460770975057	58	127
605.1460770975057	605.3550566893424	43	127
605.1460770975057	605.2737641723356	67	127
605.2737641723356	605.3550566893424	66	127
605.3666666666667	605.4827664399093	67	127
605.3666666666667	605.5640362811791	34	127
605.4943764172335	605.5640362811791	58	127
605.5640362811791	605.7846258503401	42	127
605.5640362811791	605.691746031746	66	127
605.691746031746	605.7846258503401	65	127
605.7846258503401	605.865873015873	66	127
605.7846258503401	605.9936054421769	34	127
605.8774829931973	605.9936054421769	58	127
606.0052154195012	606.1213151927437	65	127
606.0052154195012	606.2025850340136	41	127
606.1213151927437	606.2025850340136	64	127
606.2025850340136	606.2838321995465	65	127
606.2025850340136	606.4115646258504	34	127
606.2954421768708	606.4115646258504	58	127
606.4231746031746	606.6901814058957	38	127
606.4231746031746	606.5624943310657	62	127
606.5624943310657	606.6901814058957	61	127
606.6901814058957	606.794693877551	62	127
606.6901814058957	606.9224036281179	34	127
606.8063038548753	606.9224036281179	58	127
606.9340136054421	607.0385034013606	63	127
606.9340136054421	607.1662131519274	39	127
607.0385034013606	607.1662131519274	62	127
607.1662131519274	607.3055102040817	63	127
607.1662131519274	607.4216326530612	34	127
607.3055102040817	607.4216326530612	58	127
607.4332426303855	607.677052154195	39	127
607.4332426303855	607.5493424036281	63	127
607.5493424036281	607.677052154195	62	127
607.677052154195	607.8047619047619	63	127
607.677052154195	607.9208390022676	34	127
607.8047619047619	607.9208390022676	58	127
607.9324489795919	608.1182086167801	46	127
607.9324489795919	608.0369614512472	61	127
608.0485714285714	608.1182086167801	60	127
608.1182086167801	608.3271882086168	34	127
608.1182086167801	608.2343310657596	61	127
608.2343310657596	608.3271882086168	53	127
608.3387981859411	608.5942403628118	39	127
608.3387981859411	608.4549206349207	61	127
608.4665306122449	608.5942403628118	60	127
608.5942403628118	608.8148299319728	27	127
608.5942403628118	608.7219501133787	61	127
608.7219501133787	608.8148299319728	51	127
608.8148299319728	609.0354195011338	39	127
608.8148299319728	608.9309297052155	60	127
608.9425170068027	609.0354195011338	59	127
609.0354195011338	609.1398866213152	60	127
609.0354195011338	609.2792290249433	27	127
609.1398866213152	609.2792290249433	51	127
609.2792290249433	609.4185487528345	58	127
609.2792290249433	609.5346485260771	39	127
609.4301587301587	609.5346485260771	57	127
609.5462358276644	609.8016780045351	27	127
609.5462358276644	609.6739682539683	58	127
609.6739682539683	609.8016780045351	51	127
609.8016780045351	609.9177777777778	56	127
609.8016780045351	610.0338775510204	39	127
609.9293877551021	610.0338775510204	55	127
610.0454875283447	610.2660770975057	27	127
610.0454875283447	610.1615646258504	56	127
610.1615646258504	610.2660770975057	51	127
610.2660770975057	610.544716553288	39	127
610.2660770975057	610.3937868480725	55	127
610.4053968253968	610.544716553288	54	127
610.5563265306123	610.8001360544217	27	127
610.5563265306123	610.6724263038549	55	127
610.6724263038549	610.8001360544217	51	127
610.8001360544217	610.985873015873	44	127
610.8001360544217	610.8697959183673	53	127
610.8697959183673	610.985873015873	51	127
611.0091156462585	611.1019954648526	53	127
611.0091156462585	611.206462585034	32	127
611.1019954648526	611.206462585034	51	127
611.206462585034	611.4619047619047	44	127
611.206462585034	611.3341950113379	53	127
611.3341950113379	611.4619047619047	51	127
611.473514739229	611.7637641723356	32	127
611.473514739229	611.6128117913833	53	127
611.6244444444444	611.7637641723356	51	127
611.7637641723356	612.0424036281179	45	127
611.7637641723356	611.9030839002268	54	127
611.9030839002268	612.0424036281179	51	127
612.0540136054422	612.3210430839002	33	127
612.0540136054422	612.1701133786848	53	127
612.1817233560091	612.3210430839002	51	127
612.3210430839002	612.5996825396826	45	127
612.3210430839002	612.4603628117914	54	127
612.4603628117914	612.5996825396826	51	127
612.6112925170069	612.7390022675737	53	127
612.6112925170069	612.8783219954648	33	127
612.750612244898	612.8783219954648	51	127
612.8783219954648	613.0060317460318	53	127
612.8783219954648	613.1221315192744	46	127
613.0060317460318	613.1221315192744	50	127
613.1221315192744	613.2265986394558	53	127
613.1221315192744	613.3311111111111	34	127
613.2265986394558	613.3427210884354	58	127
613.3427210884354	613.5981405895692	46	127
613.3427210884354	613.458820861678	62	127
613.458820861678	613.5981405895692	65	127
613.5981405895692	613.853537414966	34	127
613.5981405895692	613.7374603174603	70	127
613.7374603174603	613.8651700680272	74	127
613.8651700680272	614.0857596371882	46	127
613.8651700680272	613.9812698412699	77	127
613.9812698412699	614.0857596371882	74	127
614.0857596371882	614.2018594104309	65	127
614.0857596371882	614.3295691609977	34	127
614.2018594104309	614.341179138322	62	127
614.341179138322	614.6082086167801	58	127
614.341179138322	614.4572562358277	65	127
614.4572562358277	614.6082086167801	70	127
614.6082086167801	614.7126984126984	74	127
614.6082086167801	614.8287981859411	46	127
614.7126984126984	614.8287981859411	77	127
614.8404081632654	615.9549659863945	51	127
614.8404081632654	615.9549659863945	75	127
614.8404081632654	615.9549659863945	67	127
614.8404081632654	615.9549659863945	79	127
614.8404081632654	615.9549659863945	63	127
615.9549659863945	616.4077551020408	50	127
615.9549659863945	616.4077551020408	68	127
615.9549659863945	616.4077551020408	62	127
615.9549659863945	616.4077551020408	77	127
615.9549659863945	616.4077551020408	80	127
616.4077551020408	616.9069614512472	81	127
616.4077551020408	616.9069614512472	69	127
616.4077551020408	616.9069614512472	75	127
616.4077551020408	616.9069614512472	60	127
616.4077551020408	616.9069614512472	48	127
616.9069614512472	617.3365306122449	70	127
616.9069614512472	617.3365306122449	58	127
616.9069614512472	617.3365306122449	82	127
616.9069614512472	617.3365306122449	46	127
616.9069614512472	617.3365306122449	74	127
617.4178231292517	617.8938321995465	67	127
617.4178231292517	617.8938321995465	75	127
617.4178231292517	617.8938321995465	79	127
617.4178231292517	617.8938321995465	39	127
617.4178231292517	617.8938321995465	51	127
617.8938321995465	618.3814512471655	38	127
617.8938321995465	618.3814512471655	80	127
617.8938321995465	618.3814512471655	68	127
617.8938321995465	618.3814512471655	77	127
617.8938321995465	618.3814512471655	50	127
618.3814512471655	618.8806802721089	36	127
618.3814512471655	618.8806802721089	69	127
618.3814512471655	618.8806802721089	48	127
618.3814512471655	618.8806802721089	81	127
618.3814512471655	618.8806802721089	75	127
618.8806802721089	619.3102494331066	46	127
618.8806802721089	619.3102494331066	70	127
618.8806802721089	619.3102494331066	74	127
618.8806802721089	619.3102494331066	34	127
618.8806802721089	619.3102494331066	82	127
619.3915192743764	619.902358276644	55	127
619.3915192743764	619.902358276644	82	127
619.3915192743764	619.902358276644	67	127
619.3915192743764	619.902358276644	79	127
619.3915192743764	619.902358276644	70	127
619.902358276644	620.3667573696146	72	127
619.902358276644	620.3667573696146	65	127
619.902358276644	620.3667573696146	84	127
619.902358276644	620.3667573696146	81	127
619.902358276644	620.3667573696146	53	127
620.3667573696146	620.8079138321996	63	127
620.3667573696146	620.8079138321996	85	127
620.3667573696146	620.8079138321996	73	127
620.3667573696146	620.8079138321996	79	127
620.3667573696146	620.8079138321996	51	127
620.8892063492063	621.2839455782313	86	127
620.8892063492063	621.3652154195012	50	127
620.8892063492063	621.3652154195012	62	127
620.8892063492063	621.2839455782313	74	127
620.8892063492063	621.2839455782313	78	127
621.3652154195012	621.8760544217687	49	127
621.3652154195012	621.8644444444444	79	127
621.3652154195012	621.8760544217687	61	127
621.6090022675737	621.8644444444444	76	127
621.6090022675737	621.8644444444444	88	127
621.8760544217687	622.3985034013606	60	127
621.8760544217687	622.3172335600907	81	127
621.8760544217687	622.3985034013606	48	127
621.8760544217687	622.3172335600907	78	127
621.8760544217687	622.3172335600907	90	127
622.3985034013606	622.8164625850341	91	127
622.3985034013606	622.8164625850341	58	127
622.3985034013606	622.8164625850341	82	127
622.3985034013606	622.8164625850341	79	127
622.3985034013606	622.8164625850341	46	127
622.8977324263038	623.3969614512472	87	127
622.8977324263038	623.3969614512472	54	127
622.8977324263038	623.3969614512472	42	127
622.8977324263038	623.3969614512472	96	127
622.8977324263038	623.3969614512472	84	127
623.3969614512472	623.8845804988662	94	127
623.3969614512472	623.8845804988662	86	127
623.3969614512472	623.8845804988662	43	127
623.3969614512472	623.8845804988662	82	127
623.3969614512472	623.8845804988662	55	127
623.8845804988662	624.3838095238095	81	127
623.8845804988662	624.3838095238095	57	127
623.8845804988662	624.3838095238095	45	127
623.8845804988662	624.3838095238095	84	127
623.8845804988662	624.3838095238095	93	127
624.3838095238095	624.8133786848073	46	127
624.3838095238095	624.8133786848073	79	127
624.3838095238095	624.8133786848073	82	127
624.3838095238095	624.8133786848073	58	127
624.3838095238095	624.8133786848073	91	127
624.8946258503402	625.0571882086168	90	127
624.8946258503402	625.7653968253968	87	127
624.8946258503402	625.7653968253968	81	127
624.8946258503402	625.7653968253968	48	127
624.8946258503402	625.7653968253968	78	127
624.8946258503402	625.7653968253968	60	127
625.0571882086168	625.2313378684808	91	127
625.2313378684808	625.3822675736961	90	127
625.3822675736961	625.63768707483	88	127
625.63768707483	625.8931065759638	90	127
625.8931065759638	626.8451247165533	49	127
625.8931065759638	626.8451247165533	61	127
625.8931065759638	626.4155555555556	82	127
625.8931065759638	626.4155555555556	79	127
625.8931065759638	626.4155555555556	88	127
625.8931065759638	626.4155555555556	91	127
626.4155555555556	626.8799546485261	76	127
626.4155555555556	626.8799546485261	79	127
626.4155555555556	626.8799546485261	82	127
626.4155555555556	626.8799546485261	70	127
626.9844444444444	627.4372335600907	62	127
626.9844444444444	627.4372335600907	78	127
626.9844444444444	627.4372335600907	81	127
626.9844444444444	627.4372335600907	50	127
626.9844444444444	627.4372335600907	69	127
627.5185034013606	628.0061224489796	38	127
627.5185034013606	628.0061224489796	86	127
627.5185034013606	628.0061224489796	50	127
627.5185034013606	628.0061224489796	74	127
628.0061224489796	628.4937414965987	73	127
628.0061224489796	628.4937414965987	85	127
628.0061224489796	628.4937414965987	52	127
628.0061224489796	628.4937414965987	40	127
628.4937414965987	629.0045804988662	54	127
628.4937414965987	629.0045804988662	84	127
628.4937414965987	629.0045804988662	42	127
628.4937414965987	629.0045804988662	72	127
629.0045804988662	629.5038095238095	82	127
629.0045804988662	629.5038095238095	70	127
629.0045804988662	629.5038095238095	43	127
629.0045804988662	629.5038095238095	55	127
629.5038095238095	630.0030158730159	74	127
629.5038095238095	630.0030158730159	86	127
629.5038095238095	630.0030158730159	41	127
629.5038095238095	630.0030158730159	53	127
630.0030158730159	630.5138775510204	40	127
630.0030158730159	630.5138775510204	52	127
630.0030158730159	630.75768707483	91	127
630.0030158730159	630.75768707483	79	127
630.5138775510204	630.9434467120182	51	127
630.5138775510204	630.9434467120182	39	127
630.75768707483	631.0131065759638	93	127
630.75768707483	631.0131065759638	81	127
631.024693877551	631.4775056689342	50	127
631.024693877551	631.4775056689342	91	127
631.024693877551	631.4775056689342	79	127
631.024693877551	631.4775056689342	38	127
631.5703854875284	632.0579818594105	86	127
631.5703854875284	632.0579818594105	62	127
631.5703854875284	632.0579818594105	78	127
631.5703854875284	632.0579818594105	66	127
631.5703854875284	632.0579818594105	90	127
632.0579818594105	632.5224036281179	64	127
632.0579818594105	632.5224036281179	67	127
632.0579818594105	632.5224036281179	88	127
632.0579818594105	632.5224036281179	91	127
632.0579818594105	632.5224036281179	79	127
632.5224036281179	633.0448526077098	93	127
632.5224036281179	633.0448526077098	69	127
632.5224036281179	633.0448526077098	90	127
632.5224036281179	633.0448526077098	81	127
632.5224036281179	633.0448526077098	66	127
633.0448526077098	633.544081632653	67	127
633.0448526077098	633.544081632653	91	127
633.0448526077098	633.544081632653	94	127
633.0448526077098	633.544081632653	70	127
633.0448526077098	633.544081632653	82	127
633.544081632653	634.0433106575964	69	127
633.544081632653	634.0433106575964	66	127
633.544081632653	634.0433106575964	90	127
633.544081632653	634.0433106575964	93	127
633.544081632653	634.0433106575964	81	127
634.0433106575964	634.50768707483	91	127
634.0433106575964	634.50768707483	70	127
634.0433106575964	634.50768707483	82	127
634.0433106575964	634.50768707483	94	127
634.0433106575964	634.50768707483	67	127
634.50768707483	634.9372789115646	67	127
634.50768707483	634.9372789115646	97	127
634.50768707483	634.9372789115646	85	127
634.50768707483	634.9372789115646	91	127
634.50768707483	634.9372789115646	63	127
634.50768707483	634.9372789115646	73	127
635.0185487528345	635.4713378684808	93	127
635.0185487528345	635.4713378684808	74	127
635.0185487528345	635.4713378684808	62	127
635.0185487528345	635.4713378684808	86	127
635.0185487528345	635.4713378684808	69	127
635.0185487528345	635.4713378684808	98	127
635.5526077097505	636.0750566893424	38	127
635.5526077097505	636.0750566893424	50	127
635.5526077097505	636.0750566893424	74	127
635.5526077097505	636.0750566893424	86	127
636.0750566893424	636.5975056689342	73	127
636.0750566893424	636.5975056689342	85	127
636.0750566893424	636.5975056689342	52	127
636.0750566893424	636.5975056689342	40	127
636.5975056689342	637.1199546485261	84	127
636.5975056689342	637.1199546485261	72	127
636.5975056689342	637.1199546485261	42	127
636.5975056689342	637.1199546485261	54	127
637.1199546485261	637.5495238095239	83	127
637.1199546485261	637.5495238095239	43	127
637.1199546485261	637.5495238095239	71	127
637.1199546485261	637.5495238095239	55	127
637.6307936507936	638.0951927437642	43	127
637.6307936507936	638.0951927437642	31	127
637.6307936507936	638.0951927437642	79	127
637.6307936507936	638.0951927437642	91	127
638.0951927437642	638.6060090702948	78	127
638.0951927437642	638.6060090702948	45	127
638.0951927437642	638.6060090702948	90	127
638.0951927437642	638.6060090702948	33	127
638.6060090702948	639.1052607709751	89	127
638.6060090702948	639.1052607709751	77	127
638.6060090702948	639.1052607709751	47	127
638.6060090702948	639.1052607709751	35	127
639.1052607709751	639.5696598639456	48	127
639.1052607709751	639.5696598639456	88	127
639.1052607709751	639.5696598639456	36	127
639.1052607709751	639.5696598639456	76	127
639.6741496598639	640.1965986394558	96	127
639.6741496598639	640.5681179138322	51	127
639.6741496598639	640.5681179138322	60	127
639.6741496598639	640.1965986394558	84	127
639.6741496598639	640.5681179138322	55	127
639.6741496598639	640.5681179138322	48	127
640.1965986394558	640.7190476190476	87	127
640.1965986394558	640.7190476190476	75	127
640.7190476190476	641.1370068027211	48	127
640.7190476190476	641.1370068027211	93	127
640.7190476190476	641.1370068027211	81	127
640.7190476190476	641.1370068027211	36	127
641.218276643991	642.2283446712019	38	127
641.218276643991	641.8219954648526	81	127
641.218276643991	642.2283446712019	50	127
641.218276643991	641.8219954648526	93	127
641.8219954648526	642.7740136054422	91	127
641.8219954648526	642.7740136054422	79	127
642.3444444444444	643.2964399092971	55	127
642.3444444444444	643.2964399092971	58	127
642.3444444444444	643.2964399092971	50	127
642.3444444444444	643.2964399092971	61	127
642.901723356009	644.0162811791383	73	127
642.901723356009	644.0162811791383	85	127
643.4125623582767	644.6896598639456	50	127
643.4125623582767	644.6896598639456	62	127
643.4125623582767	644.6896598639456	60	127
643.4125623582767	644.6896598639456	57	127
643.4125623582767	644.6896598639456	54	127
644.2020408163265	645.4443083900227	81	127
644.2020408163265	645.4443083900227	72	127
644.2020408163265	645.4443083900227	86	127
644.2020408163265	645.4443083900227	74	127
644.2020408163265	645.4443083900227	78	127
644.840589569161	646.1060770975057	38	127
644.840589569161	646.1060770975057	50	127
645.5952380952381	646.1873469387755	57	127
645.5952380952381	646.1873469387755	66	127
645.5952380952381	646.1873469387755	60	127
646.3498639455782	647.0348752834467	43	127
646.3498639455782	647.0348752834467	58	127
646.3498639455782	647.0348752834467	67	127
646.3498639455782	647.0348752834467	55	127
659.318231292517	659.6200907029479	86	127
659.318231292517	659.7013605442177	38	127
659.6200907029479	659.7942403628118	74	127
659.7129705215419	659.9567800453515	50	127
659.7942403628118	659.9567800453515	85	127
659.9567800453515	660.2702267573696	43	127
659.9567800453515	660.1889795918368	86	127
660.1889795918368	660.421179138322	87	127
660.2702267573696	660.6301587301588	50	127
660.421179138322	660.6301587301588	84	127
660.6301587301588	660.9436281179138	58	127
660.6301587301588	660.8507482993198	82	127
660.8507482993198	661.0481179138322	84	127
660.9436281179138	661.2222675736962	50	127
661.0481179138322	661.2222675736962	81	127
661.2222675736962	661.47768707483	43	127
661.2222675736962	661.3964172335601	82	127
661.3964172335601	661.5589569160998	84	127
661.47768707483	661.7214965986394	50	127
661.5589569160998	661.7214965986394	81	127
661.7214965986394	662.011746031746	79	127
661.7214965986394	662.0930158730159	58	127
662.011746031746	662.1742857142857	81	127
662.0930158730159	662.3368253968254	50	127
662.1742857142857	662.3368253968254	78	127
662.3484353741496	662.5922448979592	43	127
662.3484353741496	662.5109523809524	79	127
662.5109523809524	662.6851247165533	67	127
662.5922448979592	662.8824943310658	50	127
662.6851247165533	662.8824943310658	74	127
662.8824943310658	663.0798639455783	79	127
662.8824943310658	663.1959637188208	58	127
663.0798639455783	663.288843537415	74	127
663.1959637188208	663.4513832199547	50	127
663.288843537415	663.4629931972789	81	127
663.4629931972789	663.6255328798186	82	127
663.4629931972789	663.6951927437642	43	127
663.6255328798186	663.776462585034	74	127
663.6951927437642	663.950589569161	50	127
663.776462585034	663.9389795918368	79	127
663.950589569161	664.2756916099773	59	127
663.950589569161	664.1712018140589	91	127
664.1712018140589	664.3569387755102	79	127
664.2756916099773	664.5195011337869	50	127
664.3569387755102	664.5195011337869	90	127
664.5311111111112	664.7168707482994	91	127
664.5311111111112	664.7981405895691	43	127
664.7168707482994	664.8910204081633	92	127
664.7981405895691	665.053560090703	50	127
664.8910204081633	665.053560090703	89	127
665.053560090703	665.4366893424036	59	127
665.053560090703	665.3554195011338	87	127
665.3554195011338	665.5295691609978	89	127
665.4366893424036	665.6921088435374	50	127
665.5295691609978	665.6921088435374	86	127
665.6921088435374	665.8778684807256	87	127
665.6921088435374	665.9591383219955	43	127
665.8778684807256	666.0404081632653	89	127
665.9591383219955	666.2145578231292	50	127
666.0520181405896	666.2145578231292	86	127
666.2145578231292	666.377097505669	84	127
666.2145578231292	666.469977324263	57	127
666.2145578231292	666.911156462585	77	127
666.377097505669	666.5396371882086	86	127
666.469977324263	666.7486167800454	50	127
666.5512471655329	666.7486167800454	81	127
666.7486167800454	667.0156235827665	43	127
666.7486167800454	666.911156462585	83	127
666.911156462585	667.085306122449	74	127
667.0156235827665	667.2710657596372	50	127
667.0969160997732	667.2710657596372	79	127
667.2710657596372	667.6193424036281	55	127
667.2710657596372	667.5380952380953	83	127
667.5380952380953	667.7006349206349	79	127
667.6193424036281	667.8863945578231	50	127
667.7006349206349	667.8863945578231	84	127
667.8863945578231	668.1302040816327	43	127
667.8863945578231	668.0489115646259	86	127
668.0489115646259	668.2114739229025	79	127
668.1302040816327	668.3856235827665	50	127
668.2114739229025	668.3856235827665	83	127
668.3856235827665	668.7223129251701	59	127
668.3856235827665	668.6410204081633	91	127
668.6410204081633	668.8268027210885	79	127
668.7223129251701	669.0009523809524	50	127
668.8268027210885	669.0009523809524	90	127
669.0009523809524	669.2563492063492	43	127
669.0009523809524	669.1751020408163	91	127
669.1751020408163	669.3840816326531	79	127
669.2563492063492	669.5466213151927	51	127
669.3840816326531	669.5466213151927	84	127
669.5466213151927	669.7556009070295	91	127
669.5466213151927	669.8600907029479	60	127
669.7556009070295	669.9529705215419	79	127
669.8600907029479	670.1039002267573	51	127
669.9529705215419	670.1039002267573	90	127
670.1039002267573	670.3012698412698	91	127
670.1039002267573	670.4638095238096	43	127
670.3012698412698	670.5450793650793	79	127
670.4638095238096	670.7192290249433	50	127
670.5450793650793	670.7075963718821	82	127
670.7192290249433	671.0094784580499	58	127
670.7192290249433	670.8933560090703	91	127
670.8933560090703	671.1371882086167	79	127
671.0094784580499	671.3113151927438	50	127
671.1371882086167	671.322947845805	90	127
671.322947845805	671.589977324263	36	127
671.322947845805	671.5086848072563	91	127
671.5086848072563	671.6944671201815	79	127
671.589977324263	671.8686167800454	48	127
671.6944671201815	671.8570068027211	81	127
671.8686167800454	672.1356235827665	51	127
671.8686167800454	672.0543764172336	81	127
672.0543764172336	672.2285260770975	79	127
672.1356235827665	672.4142857142857	48	127
672.2285260770975	672.42589569161	82	127
672.42589569161	672.6116553287982	86	127
672.42589569161	672.6929251700681	38	127
672.6116553287982	672.7741950113378	78	127
672.6929251700681	673.0412244897959	50	127
672.7741950113378	673.0412244897959	84	127
673.0412244897959	673.2153741496599	82	127
673.0412244897959	673.308253968254	57	127
673.2153741496599	673.4127437641723	74	127
673.308253968254	673.6101133786848	50	127
673.4127437641723	673.6101133786848	81	127
673.621723356009	674.2138321995465	76	127
673.621723356009	674.2138321995465	79	127
673.621723356009	675.827619047619	49	127
673.621723356009	674.2138321995465	69	127
673.621723356009	675.827619047619	37	127
674.8291609977324	675.6766893424036	69	127
674.8291609977324	675.6766893424036	76	127
674.8291609977324	675.6766893424036	81	127
674.8291609977324	675.6766893424036	79	127
675.6766893424036	675.9901587301588	82	127
675.6766893424036	675.9901587301588	70	127
675.9901587301588	676.5706575963719	70	127
675.9901587301588	677.0234240362812	79	127
675.9901587301588	676.5706575963719	82	127
675.9901587301588	677.0234240362812	76	127
675.9901587301588	676.8609070294784	49	127
675.9901587301588	676.8609070294784	37	127
676.5706575963719	677.0234240362812	81	127
676.5706575963719	677.0234240362812	69	127
676.8609070294784	677.1279365079365	38	127
676.8609070294784	677.1279365079365	50	127
677.1279365079365	677.9406349206349	79	127
677.1279365079365	677.6387528344671	50	127
677.1279365079365	677.9406349206349	76	127
677.1279365079365	677.9406349206349	81	127
677.1279365079365	677.9406349206349	69	127
677.1279365079365	677.6387528344671	38	127
677.6387528344671	678.1031746031746	37	127
677.6387528344671	678.1031746031746	49	127
677.9406349206349	678.2192743764173	82	127
677.9406349206349	678.2192743764173	70	127
678.2192743764173	679.0319727891157	36	127
678.2192743764173	679.0319727891157	48	127
678.2192743764173	679.1945124716553	78	127
678.2192743764173	679.1945124716553	75	127
678.2192743764173	678.7649433106576	70	127
678.2192743764173	678.7649433106576	82	127
678.7649433106576	679.1945124716553	69	127
678.7649433106576	679.1945124716553	81	127
679.0319727891157	679.2757596371882	50	127
679.0319727891157	679.2757596371882	38	127
679.2873696145125	679.798231292517	50	127
679.2873696145125	680.0652607709751	75	127
679.2873696145125	680.0652607709751	69	127
679.2873696145125	679.798231292517	38	127
679.2873696145125	680.0652607709751	78	127
679.2873696145125	680.0652607709751	81	127
679.798231292517	680.2974376417234	48	127
679.798231292517	680.2974376417234	36	127
680.0652607709751	680.4019501133787	87	127
680.0652607709751	680.4019501133787	75	127
680.413560090703	681.3771882086168	79	127
680.413560090703	681.3771882086168	80	127
680.413560090703	681.2030385487528	35	127
680.413560090703	680.9360090702947	87	127
680.413560090703	680.9360090702947	75	127
680.413560090703	681.2030385487528	47	127
680.9360090702947	681.3771882086168	74	127
680.9360090702947	681.3771882086168	86	127
681.2030385487528	681.4468480725624	48	127
681.2030385487528	681.4468480725624	36	127
681.4584580498866	682.2363265306122	86	127
681.4584580498866	682.2363265306122	80	127
681.4584580498866	681.9809070294784	48	127
681.4584580498866	682.2363265306122	77	127
681.4584580498866	681.9809070294784	36	127
681.4584580498866	682.2363265306122	74	127
681.9809070294784	682.4685260770975	35	127
681.9809070294784	682.4685260770975	47	127
682.2363265306122	682.6194557823129	92	127
682.2363265306122	682.6194557823129	80	127
682.6194557823129	683.1883446712018	92	127
682.6194557823129	683.5598639455783	48	127
682.6194557823129	683.6063038548753	84	127
682.6194557823129	683.5598639455783	36	127
682.6194557823129	683.1883446712018	80	127
682.6194557823129	683.6063038548753	87	127
683.1883446712018	683.6063038548753	91	127
683.1883446712018	683.6063038548753	79	127
683.6875736961451	684.2216326530612	87	127
683.6875736961451	684.7440816326531	79	127
683.6875736961451	684.697641723356	48	127
683.6875736961451	684.697641723356	36	127
683.6875736961451	684.2216326530612	75	127
684.2216326530612	684.7440816326531	84	127
684.2216326530612	684.7440816326531	72	127
684.8369614512471	685.4290476190477	72	127
684.8369614512471	685.4290476190477	74	127
684.8369614512471	685.8353968253969	50	127
684.8369614512471	685.4290476190477	84	127
684.8369614512471	685.4290476190477	79	127
684.8369614512471	685.8353968253969	38	127
685.4290476190477	685.6844897959184	70	127
685.4290476190477	685.6844897959184	82	127
685.974739229025	686.949977324263	38	127
685.974739229025	686.949977324263	50	127
685.974739229025	686.5320181405896	84	127
685.974739229025	686.5320181405896	78	127
685.974739229025	686.5320181405896	72	127
686.5320181405896	686.8106575963719	69	127
686.5320181405896	686.8106575963719	81	127
687.0776870748299	689.1790929705215	37	127
687.0776870748299	689.1790929705215	49	127
687.0776870748299	687.5420861678004	76	127
687.0776870748299	687.5420861678004	69	127
687.0776870748299	687.5420861678004	79	127
687.6581632653061	687.8671428571429	79	127
687.8671428571429	688.0413151927438	78	127
688.0413151927438	688.2154648526077	81	127
688.2154648526077	688.4012244897959	79	127
688.4012244897959	688.5985941043084	76	127
688.5985941043084	688.7727437641723	69	127
688.7727437641723	688.9585034013605	67	127
688.9585034013605	689.1326530612245	64	127
689.1326530612245	689.3184126984127	57	127
689.3416326530612	690.1078684807256	37	127
689.3416326530612	690.1078684807256	49	127
689.8408616780046	690.0266213151928	79	127
690.0266213151928	690.2007709750567	78	127
690.1078684807256	690.3633106575963	50	127
690.1078684807256	690.3633106575963	38	127
690.2007709750567	690.3749206349206	81	127
690.3749206349206	690.8973696145125	50	127
690.3749206349206	690.5374376417234	79	127
690.3749206349206	690.8973696145125	38	127
690.5374376417234	690.7231972789116	76	127
690.7231972789116	690.8973696145125	69	127
690.8973696145125	691.3733786848072	49	127
690.8973696145125	691.3733786848072	37	127
690.8973696145125	691.0599092970522	67	127
691.0599092970522	691.2804988662132	64	127
691.2804988662132	691.4778684807256	57	127
691.4778684807256	692.2557369614512	36	127
691.4778684807256	692.2557369614512	48	127
692.0003174603174	692.1628344671202	78	127
692.1628344671202	692.3370068027211	77	127
692.2557369614512	692.5111564625851	38	127
692.2557369614512	692.5111564625851	50	127
692.3370068027211	692.5111564625851	79	127
692.5111564625851	692.685306122449	78	127
692.5111564625851	693.0336054421768	38	127
692.5111564625851	693.0336054421768	50	127
692.685306122449	692.8478458049887	75	127
692.8478458049887	693.0336054421768	69	127
693.0336054421768	693.4631746031746	36	127
693.0336054421768	693.2077551020408	66	127
693.0336054421768	693.4631746031746	48	127
693.2077551020408	693.3818820861678	63	127
693.3818820861678	693.6024716553288	57	127
693.6024716553288	694.4267800453515	35	127
693.6024716553288	694.4267800453515	47	127
694.1597732426304	694.3455328798186	77	127
694.3455328798186	694.5080725623583	76	127
694.4267800453515	694.6822222222222	48	127
694.4267800453515	694.6822222222222	36	127
694.5080725623583	694.6822222222222	79	127
694.6822222222222	695.2046712018141	48	127
694.6822222222222	694.8679818594104	77	127
694.6822222222222	695.2046712018141	36	127
694.8679818594104	695.0304988662132	74	127
695.0304988662132	695.2046712018141	68	127
695.2046712018141	695.6806802721088	47	127
695.2046712018141	695.6806802721088	35	127
695.2046712018141	695.4020408163266	65	127
695.4020408163266	695.5645804988662	62	127
695.5645804988662	695.7851700680272	56	127
695.7967800453515	696.8416780045352	48	127
695.7967800453515	696.8416780045352	36	127
696.307619047619	696.5862585034014	75	127
696.5862585034014	696.7952380952381	72	127
696.7952380952381	696.9577777777778	67	127
696.9577777777778	697.1203174603174	79	127
696.9577777777778	697.8749659863946	60	127
696.9577777777778	697.8749659863946	48	127
697.1203174603174	697.3060770975056	75	127
697.3060770975056	697.491814058957	67	127
697.491814058957	697.6659863945579	75	127
697.6659863945579	697.8285260770975	72	127
697.8285260770975	697.9910657596372	67	127
698.0026757369615	698.1652154195011	79	127
698.0026757369615	699.0011337868481	50	127
698.0026757369615	699.0011337868481	62	127
698.1652154195011	698.339365079365	70	127
698.339365079365	698.5483446712018	67	127
698.5483446712018	698.7805442176871	74	127
698.7805442176871	698.9663038548753	70	127
698.9663038548753	699.128820861678	67	127
699.1404535147392	700.1737414965986	50	127
699.1404535147392	699.3145804988662	78	127
699.1404535147392	700.1737414965986	38	127
699.3145804988662	699.523560090703	72	127
699.523560090703	699.7093424036282	69	127
699.7093424036282	699.9299092970522	74	127
699.9299092970522	700.1388888888889	72	127
700.1388888888889	700.4059410430839	69	127
700.4059410430839	702.5421768707483	38	127
700.4059410430839	700.5917006802721	77	127
700.4059410430839	702.5421768707483	26	127
700.5917006802721	700.8703401360544	74	127
700.8703401360544	701.0677097505669	71	127
701.0677097505669	701.2418594104308	68	127
701.2418594104308	701.4160090702948	65	127
701.4160090702948	701.5785260770975	62	127
701.5785260770975	701.7526984126985	59	127
701.7526984126985	701.9384580498867	62	127
701.9384580498867	702.1126077097506	65	127
702.1126077097506	702.3331972789116	68	127
702.3331972789116	702.4957369614513	71	127
702.4957369614513	702.6931065759637	74	127
702.6931065759637	703.7380045351474	39	127
702.6931065759637	702.9136961451247	77	127
702.6931065759637	703.7380045351474	51	127
702.9136961451247	703.0762358276644	74	127
703.0762358276644	703.2619954648526	71	127
703.2619954648526	703.5174149659864	63	127
703.5174149659864	703.6915646258503	67	127
703.6915646258503	703.85410430839	70	127
703.85410430839	704.7829024943311	46	127
703.85410430839	704.028231292517	75	127
703.85410430839	704.7829024943311	34	127
704.028231292517	704.2140136054422	70	127
704.2140136054422	704.3881632653062	67	127
704.3881632653062	704.5739229024944	63	127
704.5739229024944	704.736462585034	66	127
704.736462585034	704.9802721088436	70	127
704.9918820861678	706.0715873015873	30	127
704.9918820861678	705.1544217687075	75	127
704.9918820861678	706.0715873015873	42	127
705.1544217687075	705.4330612244898	70	127
705.4330612244898	705.6536281179139	66	127
705.6536281179139	705.8278004535148	58	127
705.8278004535148	706.013560090703	63	127
706.013560090703	706.1993197278912	66	127
706.1993197278912	707.2674376417234	27	127
706.1993197278912	707.2674376417234	39	127
706.1993197278912	706.4199092970522	70	127
706.4199092970522	706.5940589569161	66	127
706.5940589569161	706.7914285714286	63	127
706.7914285714286	707.0236281179139	60	127
707.0236281179139	707.2326077097506	63	127
707.2326077097506	707.3951473922903	66	127
707.4183673469388	708.3703854875283	38	127
707.4183673469388	707.6157369614513	69	127
707.4183673469388	708.3703854875283	26	127
707.6157369614513	707.8131065759637	66	127
707.8131065759637	707.9988662131519	60	127
707.9988662131519	708.1730158730159	67	127
708.1730158730159	708.3355555555555	62	127
708.3355555555555	708.486485260771	58	127
708.486485260771	709.542970521542	38	127
708.486485260771	709.542970521542	50	127
708.486485260771	708.6490249433107	69	127
708.6490249433107	708.8580045351474	62	127
708.8580045351474	709.0321541950113	60	127
709.0321541950113	709.2643537414966	66	127
709.2643537414966	709.5081632653062	62	127
709.5081632653062	709.6707029478458	60	127
709.6707029478458	710.1582993197279	31	127
709.6707029478458	710.2395918367347	67	127
709.6707029478458	710.2395918367347	58	127
709.6707029478458	710.1582993197279	43	127
710.2395918367347	710.8084807256236	75	127
710.2395918367347	710.8084807256236	63	127
710.8084807256236	711.3773469387755	73	127
710.8084807256236	711.3773469387755	61	127
711.3773469387755	714.1985941043084	62	127
711.3773469387755	714.1985941043084	74	127
714.3263038548753	714.8603401360544	67	127
714.3263038548753	714.8603401360544	55	127
714.8603401360544	715.3944217687075	75	127
714.8603401360544	715.3944217687075	63	127
715.3944217687075	715.9284807256236	61	127
715.3944217687075	715.9284807256236	73	127
715.9284807256236	718.7032653061225	74	127
715.9284807256236	718.7032653061225	62	127
718.8309750566893	719.3882539682539	55	127
718.8309750566893	719.3882539682539	67	127
719.3882539682539	719.875873015873	65	127
719.3882539682539	719.875873015873	77	127
719.875873015873	720.491201814059	62	127
719.875873015873	720.491201814059	74	127
720.491201814059	723.0918367346939	63	127
720.491201814059	723.0918367346939	75	127
723.2195464852608	723.7768253968254	62	127
723.2195464852608	723.7768253968254	74	127
723.7768253968254	725.2745124716554	63	127
723.7768253968254	725.2745124716554	75	127
725.437052154195	726.052380952381	74	127
725.437052154195	726.052380952381	62	127
726.052380952381	727.7009977324263	75	127
726.052380952381	727.7009977324263	63	127
727.8403174603175	728.4440362811791	63	127
727.8403174603175	728.4440362811791	75	127
728.4440362811791	730.0462131519274	74	127
728.4440362811791	730.0462131519274	62	127
730.3829024943311	731.0678911564626	73	127
730.3829024943311	731.0678911564626	61	127
731.0678911564626	732.228866213152	74	127
731.0678911564626	732.228866213152	62	127
732.228866213152	733.3434467120181	60	127
732.228866213152	733.3434467120181	72	127
733.3434467120181	734.6785941043084	70	127
733.3434467120181	734.6785941043084	58	127
734.6785941043084	735.5028798185941	69	127
734.6785941043084	735.5028798185941	57	127
735.5841723356009	736.292380952381	43	127
735.5841723356009	736.292380952381	31	127
736.292380952381	736.8844897959184	51	127
736.292380952381	736.4781405895692	58	127
736.292380952381	736.8844897959184	39	127
736.292380952381	736.8844897959184	70	127
736.4781405895692	736.6406802721089	67	127
736.6406802721089	736.8844897959184	58	127
736.8844897959184	737.4533786848073	49	127
736.8844897959184	737.4533786848073	37	127
737.4533786848073	737.9990476190476	50	127
737.4533786848073	737.9990476190476	38	127
737.4533786848073	737.7087981859411	58	127
737.4533786848073	738.0803174603175	70	127
737.7087981859411	737.9061678004535	67	127
737.9061678004535	738.0803174603175	58	127
738.0803174603175	738.5795238095238	43	127
738.0803174603175	738.5795238095238	31	127
738.5795238095238	738.7885034013606	69	127
738.5795238095238	739.2297052154195	51	127
738.5795238095238	739.2297052154195	81	127
738.5795238095238	739.2297052154195	39	127
738.7885034013606	739.0091156462585	78	127
739.0091156462585	739.2297052154195	69	127
739.2297052154195	739.7521541950114	84	127
739.2297052154195	739.7637641723356	37	127
739.2297052154195	739.7637641723356	49	127
739.3922222222222	739.5663945578232	78	127
739.5663945578232	739.7521541950114	72	127
739.7637641723356	740.2397732426303	38	127
739.7637641723356	740.3326530612245	82	127
739.7637641723356	740.2397732426303	50	127
739.9611337868481	740.1468934240363	79	127
740.1468934240363	740.3326530612245	70	127
740.3442630385488	740.8783219954648	31	127
740.3442630385488	740.8783219954648	43	127
740.8783219954648	741.0873015873016	58	127
740.8783219954648	741.4355782312925	41	127
740.8783219954648	741.4355782312925	53	127
740.8783219954648	741.4239909297053	70	127
741.0873015873016	741.2498185941043	67	127
741.2498185941043	741.4239909297053	58	127
741.4355782312925	742.0393197278912	38	127
741.4355782312925	742.0393197278912	50	127
742.0393197278912	742.6198185941043	70	127
742.0393197278912	742.2250793650794	58	127
742.0393197278912	742.5037188208616	51	127
742.0393197278912	742.5037188208616	39	127
742.2250793650794	742.3992290249433	67	127
742.3992290249433	742.6198185941043	58	127
742.6314285714286	743.2119274376417	44	127
742.6314285714286	743.2119274376417	32	127
743.2119274376417	743.7924263038549	41	127
743.2119274376417	743.3744671201814	70	127
743.2119274376417	743.7924263038549	82	127
743.2119274376417	743.7924263038549	53	127
743.3744671201814	743.5834467120181	79	127
743.5834467120181	743.7924263038549	70	127
743.7924263038549	744.3264852607709	50	127
743.7924263038549	744.3264852607709	38	127
743.7924263038549	744.3264852607709	85	127
743.9665759637188	744.1639455782313	79	127
744.1639455782313	744.3264852607709	73	127
744.3264852607709	744.8605442176871	84	127
744.3264852607709	744.7792743764172	39	127
744.3264852607709	744.7792743764172	51	127
744.500612244898	744.6863945578232	80	127
744.6863945578232	744.8605442176871	72	127
744.8605442176871	745.3946031746032	45	127
744.8605442176871	745.3946031746032	33	127
745.3946031746032	745.5919727891156	60	127
745.3946031746032	745.9983219954648	41	127
745.3946031746032	745.9983219954648	53	127
745.3946031746032	745.9983219954648	72	127
745.5919727891156	745.7545124716553	65	127
745.7545124716553	745.9983219954648	60	127
745.9983219954648	746.5555782312925	34	127
745.9983219954648	746.5555782312925	46	127
746.5555782312925	747.0316099773243	73	127
746.5555782312925	746.7297505668935	61	127
746.5555782312925	746.9619274376417	53	127
746.5555782312925	746.9619274376417	41	127
746.7297505668935	746.8806802721089	65	127
746.8806802721089	747.0316099773243	61	127
747.0316099773243	747.5772562358277	35	127
747.0316099773243	747.5772562358277	47	127
747.5772562358277	747.7978684807256	74	127
747.5772562358277	748.1693877551021	43	127
747.5772562358277	748.1693877551021	55	127
747.5772562358277	748.1577777777778	86	127
747.7978684807256	747.9952154195012	79	127
747.9952154195012	748.1577777777778	74	127
748.1693877551021	748.7034467120181	36	127
748.1693877551021	748.7034467120181	48	127
748.1693877551021	748.6918367346939	89	127
748.343537414966	748.5292970521542	79	127
748.5292970521542	748.6918367346939	77	127
748.7034467120181	749.1678458049887	43	127
748.7034467120181	749.2375056689342	87	127
748.7034467120181	749.1678458049887	55	127
748.9008163265306	749.0865759637188	79	127
749.0865759637188	749.2375056689342	75	127
749.2491156462585	749.7367346938776	36	127
749.2491156462585	749.7367346938776	48	127
749.7367346938776	750.2243310657597	56	127
749.7367346938776	750.2127437641724	75	127
749.7367346938776	749.8992743764172	63	127
749.7367346938776	750.2243310657597	44	127
749.8992743764172	750.0618140589569	68	127
750.0618140589569	750.2127437641724	63	127
750.2243310657597	750.7932426303855	49	127
750.2243310657597	750.7932426303855	37	127
750.7932426303855	751.2576190476191	44	127
750.7932426303855	751.2576190476191	56	127
750.7932426303855	750.9790022675737	64	127
750.7932426303855	751.3273015873016	76	127
750.9790022675737	751.1763718820862	68	127
751.1763718820862	751.3273015873016	64	127
751.3389115646258	751.8149206349207	49	127
751.3389115646258	751.8149206349207	37	127
751.8149206349207	752.3257596371882	45	127
751.8149206349207	752.3257596371882	88	127
751.8149206349207	752.3257596371882	57	127
751.8149206349207	751.9774603174603	76	127
751.9774603174603	752.1516099773243	81	127
752.1516099773243	752.3257596371882	76	127
752.3257596371882	752.9062358276644	38	127
752.3257596371882	752.9062358276644	91	127
752.3257596371882	752.9062358276644	50	127
752.5463492063492	752.7204988662131	81	127
752.7204988662131	752.9062358276644	79	127
752.9062358276644	753.3242176870748	57	127
752.9062358276644	753.3242176870748	45	127
752.9062358276644	753.4054875283447	89	127
753.0687981859411	753.242947845805	81	127
753.242947845805	753.4054875283447	77	127
753.4054875283447	753.9743764172335	38	127
753.4054875283447	753.9743764172335	50	127
753.9743764172335	754.4619954648526	46	127
753.9743764172335	754.1601360544217	77	127
753.9743764172335	754.4619954648526	89	127
753.9743764172335	754.4619954648526	58	127
754.1601360544217	754.299455782313	82	127
754.299455782313	754.4619954648526	77	127
754.4619954648526	755.0192743764172	51	127
754.4619954648526	755.0192743764172	92	127
754.4619954648526	755.0192743764172	39	127
754.6361451247166	754.7986848072562	82	127
754.7986848072562	755.0192743764172	80	127
755.0192743764172	755.4372335600907	46	127
755.0192743764172	755.4372335600907	58	127
755.0192743764172	755.5185034013606	91	127
755.1818140589569	755.3559410430839	82	127
755.3559410430839	755.5185034013606	79	127
755.5185034013606	756.0525623582766	40	127
755.5185034013606	756.0525623582766	52	127
756.0525623582766	756.5401814058957	91	127
756.0525623582766	756.2151020408163	79	127
756.0525623582766	756.55179138322	60	127
756.0525623582766	756.55179138322	48	127
756.2151020408163	756.3776190476191	84	127
756.3776190476191	756.5401814058957	79	127
756.55179138322	757.0858503401361	41	127
756.55179138322	757.0858503401361	53	127
756.55179138322	757.0742403628118	94	127
756.7143310657597	756.8884807256236	84	127
756.8884807256236	757.0742403628118	82	127
757.0858503401361	757.5850566893424	92	127
757.0858503401361	757.5038095238095	60	127
757.0858503401361	757.5038095238095	48	127
757.2483900226757	757.4109297052154	84	127
757.4109297052154	757.5850566893424	80	127
757.5966666666667	758.1191383219955	54	127
757.5966666666667	758.1191383219955	42	127
758.1191383219955	758.6299546485261	62	127
758.1191383219955	758.6299546485261	50	127
758.1191383219955	758.6299546485261	81	127
758.2932879818594	758.4558276643991	74	127
758.4558276643991	758.6299546485261	69	127
758.6299546485261	759.1175963718821	84	127
758.6299546485261	759.1175963718821	43	127
758.6299546485261	759.1175963718821	55	127
758.7925170068028	758.9550566893424	78	127
758.9550566893424	759.1175963718821	72	127
759.1175963718821	759.5936054421769	82	127
759.1175963718821	759.512335600907	62	127
759.1175963718821	759.512335600907	50	127
759.2685260770975	759.4310430839002	79	127
759.4310430839002	759.5936054421769	70	127
759.5936054421769	760.0231746031747	57	127
759.5936054421769	759.7561451247166	86	127
759.5936054421769	760.0231746031747	45	127
759.7561451247166	759.9302947845805	78	127
759.9302947845805	760.1160544217687	74	127
760.1160544217687	760.2785941043084	84	127
760.1160544217687	760.568843537415	54	127
760.1160544217687	760.568843537415	66	127
760.2785941043084	760.4875736961451	78	127
760.4875736961451	760.6617006802721	72	127
760.6617006802721	761.0796825396825	58	127
760.6617006802721	761.0796825396825	46	127
760.6617006802721	760.8242630385488	87	127
760.8242630385488	760.9984126984127	79	127
760.9984126984127	761.1725623582767	75	127
761.1725623582767	761.3699319727891	86	127
761.1725623582767	761.6137414965987	67	127
761.1725623582767	761.6137414965987	55	127
761.3699319727891	761.5324716553288	79	127
761.5324716553288	761.6950113378684	74	127
761.6950113378684	761.8227210884354	48	127
761.6950113378684	761.8227210884354	36	127
762.2639002267574	762.4380498866213	91	127
762.2639002267574	762.7863492063492	63	127
762.2639002267574	762.7863492063492	75	127
762.4380498866213	762.600589569161	87	127
762.600589569161	762.7863492063492	79	127
762.7863492063492	762.9721088435374	91	127
762.7863492063492	763.3204081632653	60	127
762.7863492063492	763.3204081632653	72	127
762.9721088435374	763.1346485260771	87	127
763.1346485260771	763.3204081632653	79	127
763.3204081632653	763.5061678004536	81	127
763.3204081632653	763.7731972789115	62	127
763.3204081632653	763.7731972789115	74	127
763.5061678004536	763.6919274376418	78	127
763.6919274376418	763.8544671201814	69	127
763.8660770975057	764.0053968253968	48	127
763.8660770975057	764.0053968253968	36	127
764.4233560090703	764.8645351473923	75	127
764.4233560090703	764.8645351473923	63	127
764.4233560090703	764.58589569161	91	127
764.58589569161	764.7484353741496	87	127
764.7484353741496	764.9922448979592	79	127
764.9922448979592	765.4102040816326	60	127
764.9922448979592	765.1547845804988	91	127
764.9922448979592	765.4102040816326	72	127
765.1547845804988	765.3173242630386	87	127
765.3173242630386	765.4914739229025	79	127
765.4914739229025	765.6540136054422	81	127
765.4914739229025	765.909433106576	62	127
765.4914739229025	765.909433106576	74	127
765.6540136054422	765.8165532879818	78	127
765.8165532879818	766.00231292517	69	127
766.0139229024943	766.2112925170068	36	127
766.0139229024943	766.2112925170068	48	127
766.617641723356	766.7801814058957	91	127
766.617641723356	767.1400907029479	75	127
766.617641723356	767.1400907029479	63	127
766.7801814058957	766.9543310657597	87	127
766.9543310657597	767.1400907029479	79	127
767.1400907029479	767.6277097505669	72	127
767.1400907029479	767.3490702947846	91	127
767.1400907029479	767.6277097505669	60	127
767.3490702947846	767.5232199546485	87	127
767.5232199546485	767.7089795918367	79	127
767.7089795918367	768.2546485260771	63	127
767.7089795918367	768.2546485260771	51	127
767.7089795918367	767.8831292517007	79	127
767.8831292517007	768.0804988662131	75	127
768.0804988662131	768.2546485260771	67	127
768.2546485260771	768.6958276643991	60	127
768.2546485260771	768.4404081632653	79	127
768.2546485260771	768.6958276643991	48	127
768.4404081632653	768.6145578231293	75	127
768.6145578231293	768.7887074829932	67	127
768.7887074829932	769.3808163265306	51	127
768.7887074829932	769.3808163265306	39	127
768.7887074829932	768.9860770975057	67	127
768.9860770975057	769.1718367346939	63	127
769.1718367346939	769.3808163265306	55	127
769.3808163265306	769.8916553287982	36	127
769.3808163265306	769.5665759637188	67	127
769.3808163265306	769.8916553287982	48	127
769.5665759637188	769.7291156462585	63	127
769.7291156462585	769.8916553287982	55	127
769.8916553287982	770.0658049886621	67	127
769.8916553287982	770.3096145124716	50	127
769.8916553287982	770.3096145124716	38	127
770.0658049886621	770.2283446712019	63	127
770.2283446712019	770.41410430839	55	127
770.41410430839	770.9713832199546	51	127
770.41410430839	770.9713832199546	39	127
770.41410430839	770.5998639455782	67	127
770.5998639455782	770.7740136054422	63	127
770.7740136054422	770.9713832199546	55	127
770.9713832199546	771.1455328798186	67	127
770.9713832199546	771.4938321995464	36	127
770.9713832199546	771.4938321995464	48	127
771.1455328798186	771.3080725623582	63	127
771.3080725623582	771.4938321995464	55	127
771.4938321995464	772.0278911564626	50	127
771.4938321995464	772.0278911564626	38	127
771.4938321995464	771.6679818594105	67	127
771.6679818594105	771.8421315192744	63	127
771.8421315192744	772.0278911564626	55	127
772.0278911564626	772.1904308390023	67	127
772.0278911564626	772.4342403628118	39	127
772.0278911564626	772.4342403628118	51	127
772.1904308390023	772.3529705215419	63	127
772.3529705215419	772.5155102040816	55	127
772.5271201814058	773.0263492063492	36	127
772.5271201814058	772.6896598639456	57	127
772.5271201814058	773.0263492063492	48	127
772.6896598639456	772.8521995464853	54	127
772.8521995464853	773.0263492063492	57	127
773.0263492063492	773.6068480725623	38	127
773.0263492063492	773.2121088435374	54	127
773.0263492063492	773.6068480725623	50	127
773.2121088435374	773.3862585034013	57	127
773.3862585034013	773.6068480725623	54	127
773.6068480725623	773.8042176870748	57	127
773.6068480725623	774.1989569160997	51	127
773.6068480725623	774.1989569160997	39	127
773.8042176870748	774.0131972789115	54	127
774.0131972789115	774.1989569160997	57	127
774.1989569160997	774.7097959183674	48	127
774.1989569160997	774.7097959183674	36	127
774.1989569160997	774.3614965986394	54	127
774.3614965986394	774.5240362811792	57	127
774.5240362811792	774.7097959183674	54	127
774.7097959183674	775.2554648526077	50	127
774.7097959183674	774.8955555555556	57	127
774.7097959183674	775.2554648526077	38	127
774.8955555555556	775.0813151927438	54	127
775.0813151927438	775.2554648526077	57	127
775.2554648526077	775.4180045351474	54	127
775.2554648526077	775.7546938775511	39	127
775.2554648526077	775.7546938775511	51	127
775.4180045351474	775.5921541950113	57	127
775.5921541950113	775.7546938775511	54	127
775.7546938775511	775.928843537415	57	127
775.7546938775511	776.3119727891157	36	127
775.928843537415	776.1262131519275	54	127
776.1262131519275	776.3119727891157	57	127
776.3119727891157	776.9389115646259	38	127
776.3119727891157	776.4977324263039	54	127
776.4977324263039	776.7183219954649	57	127
776.7183219954649	776.9389115646259	54	127
776.9389115646259	777.3800907029479	57	127
776.9389115646259	777.3800907029479	39	127
786.1572335600907	787.6549206349206	43	127
786.1572335600907	787.6549206349206	55	127
786.1572335600907	787.6549206349206	31	127
787.7710204081633	788.908798185941	62	127
787.7710204081633	788.421179138322	36	127
787.7710204081633	788.421179138322	72	127
787.7710204081633	788.421179138322	48	127
787.7710204081633	788.421179138322	60	127
787.7710204081633	788.908798185941	38	127
788.421179138322	788.908798185941	33	127
788.421179138322	788.908798185941	69	127
788.421179138322	788.908798185941	45	127
788.421179138322	788.908798185941	57	127
788.908798185941	789.8956462585033	58	127
788.908798185941	789.8956462585033	62	127
788.908798185941	789.8956462585033	38	127
788.908798185941	789.8956462585033	34	127
788.908798185941	789.8956462585033	70	127
788.908798185941	789.8956462585033	46	127
790.011746031746	791.1727437641723	43	127
790.011746031746	790.6154648526077	75	127
790.011746031746	790.6154648526077	51	127
790.011746031746	790.6154648526077	63	127
790.011746031746	790.6154648526077	39	127
790.011746031746	791.1727437641723	67	127
790.6154648526077	791.1727437641723	72	127
790.6154648526077	791.1727437641723	36	127
790.6154648526077	791.1727437641723	48	127
790.6154648526077	791.1727437641723	60	127
791.1727437641723	792.1712018140589	62	127
791.1727437641723	792.1712018140589	43	127
791.1727437641723	792.1712018140589	74	127
791.1727437641723	792.1712018140589	67	127
791.1727437641723	792.1712018140589	50	127
791.1727437641723	792.1712018140589	38	127
792.2873015873016	792.8910204081633	57	127
792.2873015873016	793.4018594104308	70	127
792.2873015873016	792.8910204081633	81	127
792.2873015873016	792.8910204081633	69	127
792.2873015873016	793.4018594104308	46	127
792.2873015873016	792.8910204081633	45	127
792.8910204081633	793.4018594104308	78	127
792.8910204081633	793.4018594104308	42	127
792.8910204081633	793.4018594104308	66	127
792.8910204081633	793.4018594104308	54	127
793.4018594104308	794.2261678004535	43	127
793.4018594104308	794.2261678004535	67	127
793.4018594104308	794.2261678004535	79	127
793.4018594104308	794.2261678004535	55	127
793.4018594104308	794.2261678004535	70	127
793.4018594104308	794.2261678004535	46	127
794.3422675736962	794.8298866213152	72	127
794.3422675736962	795.30589569161	74	127
794.3422675736962	795.30589569161	50	127
794.3422675736962	794.8298866213152	48	127
794.3422675736962	794.8298866213152	84	127
794.3422675736962	794.8298866213152	60	127
794.8298866213152	795.30589569161	57	127
794.8298866213152	795.30589569161	69	127
794.8298866213152	795.30589569161	81	127
794.8298866213152	795.30589569161	45	127
795.30589569161	796.188253968254	82	127
795.30589569161	796.188253968254	50	127
795.30589569161	796.188253968254	46	127
795.30589569161	796.188253968254	74	127
795.30589569161	796.188253968254	58	127
795.30589569161	796.188253968254	70	127
796.2927437641723	796.7339229024943	43	127
796.2927437641723	796.7339229024943	31	127
796.2927437641723	797.337641723356	82	127
796.2927437641723	797.337641723356	86	127
796.2927437641723	796.4901133786848	74	127
796.4901133786848	796.6410430839002	79	127
796.6526530612244	796.80358276644	74	127
796.80358276644	797.7556009070295	58	127
796.80358276644	797.7556009070295	62	127
796.80358276644	797.7556009070295	67	127
796.80358276644	796.9777324263039	79	127
796.80358276644	797.2563718820861	70	127
796.9777324263039	797.1634920634921	74	127
797.1751020408163	797.337641723356	79	127
797.337641723356	797.5117913832199	70	127
797.337641723356	798.3012698412698	82	127
797.5117913832199	797.6627210884353	74	127
797.6743310657596	797.8368707482994	70	127
797.8484807256236	798.707619047619	58	127
797.8484807256236	798.707619047619	62	127
797.8484807256236	798.0110204081633	74	127
797.8484807256236	798.2432199546486	67	127
797.8484807256236	798.707619047619	55	127
798.0110204081633	798.1503401360544	70	127
798.1619501133787	798.3012698412698	74	127
798.3128798185941	798.4638095238096	67	127
798.3128798185941	799.3461678004535	79	127
798.4638095238096	798.614739229025	70	127
798.6263492063492	798.7888888888889	67	127
798.8004988662132	799.2648979591837	62	127
798.8004988662132	799.7989569160998	58	127
798.8004988662132	799.7989569160998	50	127
798.8004988662132	799.7989569160998	55	127
798.8004988662132	798.9746485260771	70	127
798.9862585034014	799.1836281179138	67	127
799.1836281179138	799.3461678004535	70	127
799.3577777777778	800.4955555555556	74	127
799.3577777777778	799.5319274376417	62	127
799.5319274376417	799.7060770975056	67	127
799.7060770975056	799.9034467120182	62	127
799.9150566893424	800.9831746031746	55	127
799.9150566893424	800.42589569161	58	127
799.9150566893424	800.1240362811791	67	127
799.9150566893424	800.9831746031746	50	127
799.9150566893424	800.9831746031746	46	127
800.1240362811791	800.3214058956916	62	127
800.3214058956916	800.4955555555556	67	127
800.5187755102041	801.8190929705215	70	127
800.5187755102041	800.7045351473923	58	127
800.7045351473923	800.8786848072563	62	127
800.8786848072563	801.0528344671202	58	127
801.0644444444445	801.621723356009	50	127
801.0644444444445	801.621723356009	43	127
801.0644444444445	801.621723356009	55	127
801.0644444444445	801.621723356009	46	127
801.0644444444445	801.308253968254	62	127
801.3198639455783	801.4940136054422	58	127
801.5056235827665	801.8190929705215	62	127
801.8190929705215	802.0396825396825	55	127
801.8190929705215	803.6766893424036	67	127
802.0396825396825	802.237052154195	58	127
802.237052154195	802.4112018140589	55	127
802.4228117913832	804.3616780045352	46	127
802.4228117913832	804.3616780045352	38	127
802.4228117913832	802.8175510204081	58	127
802.8291609977324	803.5025396825397	55	127
803.514149659864	803.6766893424036	58	127
803.6766893424036	804.5938775510205	62	127
803.6766893424036	803.8508390022675	50	127
803.8508390022675	804.0830385487528	58	127
804.0830385487528	804.5938775510205	50	127
804.5938775510205	804.8028571428572	58	127
804.5938775510205	805.6852154195011	43	127
804.5938775510205	805.6852154195011	31	127
804.5938775510205	805.8129251700681	62	127
804.8028571428572	805.0118367346939	50	127
805.0234467120181	805.1975963718821	58	127
805.1975963718821	805.3833560090703	50	127
805.4065759637189	805.6039455782313	58	127
805.6271655328799	805.8129251700681	50	127
805.8129251700681	807.4267120181406	43	127
805.8129251700681	806.0102947845805	58	127
805.8129251700681	807.4267120181406	31	127
805.8129251700681	807.6124716553288	62	127
806.0219047619048	806.2308843537415	50	127
806.2424943310658	806.4514739229026	58	127
806.4630839002267	806.7068934240363	50	127
806.7185034013605	807.04358276644	58	127
807.3222222222222	815.2286167800454	50	127
807.6240816326531	815.2286167800454	43	127
807.6240816326531	815.2286167800454	58	127
807.6240816326531	815.2286167800454	31	127
807.6240816326531	815.2286167800454	62	127
820.6040362811791	821.4283446712018	43	127
