# onset,offset,note,velocity
19.120861678004534	19.48077097505669	74	127
19.120861678004534	19.48077097505669	79	127
19.120861678004534	19.48077097505669	83	127
19.120861678004534	19.48077097505669	62	127
19.120861678004534	19.48077097505669	67	127
19.120861678004534	19.48077097505669	71	127
19.48077097505669	19.67814058956916	72	127
19.48077097505669	19.67814058956916	79	127
19.48077097505669	19.67814058956916	81	127
19.48077097505669	19.67814058956916	60	127
19.48077097505669	19.67814058956916	67	127
19.48077097505669	19.67814058956916	69	127
19.67814058956916	20.13092970521542	72	127
19.67814058956916	20.13092970521542	64	127
19.67814058956916	20.13092970521542	67	127
19.67814058956916	20.13092970521542	76	127
19.67814058956916	20.13092970521542	79	127
19.67814058956916	20.13092970521542	84	127
20.13092970521542	20.560498866213152	83	127
20.13092970521542	20.560498866213152	62	127
20.13092970521542	20.560498866213152	71	127
20.13092970521542	20.560498866213152	67	127
20.13092970521542	20.560498866213152	74	127
20.13092970521542	20.560498866213152	79	127
20.618548752834467	20.955238095238094	77	127
20.618548752834467	20.955238095238094	79	127
20.618548752834467	20.955238095238094	86	127
20.618548752834467	20.955238095238094	74	127
20.618548752834467	20.955238095238094	65	127
20.618548752834467	20.955238095238094	67	127
20.955238095238094	21.09453514739229	64	127
20.955238095238094	21.09453514739229	76	127
20.955238095238094	21.09453514739229	79	127
20.955238095238094	21.09453514739229	84	127
20.955238095238094	21.09453514739229	67	127
20.955238095238094	21.09453514739229	72	127
21.09453514739229	21.628616780045352	76	127
21.09453514739229	21.628616780045352	72	127
21.09453514739229	21.628616780045352	79	127
21.09453514739229	21.628616780045352	84	127
21.09453514739229	21.628616780045352	88	127
21.09453514739229	21.628616780045352	67	127
21.628616780045352	22.058185941043085	71	127
21.628616780045352	22.058185941043085	77	127
21.628616780045352	22.058185941043085	83	127
21.628616780045352	22.058185941043085	86	127
21.628616780045352	22.058185941043085	65	127
21.628616780045352	22.058185941043085	74	127
22.1162358276644	22.627074829931974	81	127
22.1162358276644	22.627074829931974	83	127
22.1162358276644	22.627074829931974	86	127
22.1162358276644	22.627074829931974	93	127
22.1162358276644	22.627074829931974	71	127
22.1162358276644	22.627074829931974	74	127
22.627074829931974	23.12628117913832	72	127
22.627074829931974	23.12628117913832	91	127
22.627074829931974	23.12628117913832	76	127
22.627074829931974	23.12628117913832	84	127
22.627074829931974	23.12628117913832	79	127
22.627074829931974	23.12628117913832	88	127
23.12628117913832	23.625532879818593	72	127
23.12628117913832	23.625532879818593	81	127
23.12628117913832	23.625532879818593	84	127
23.12628117913832	23.625532879818593	90	127
23.12628117913832	23.625532879818593	69	127
23.12628117913832	23.625532879818593	78	127
23.625532879818593	24.18281179138322	77	127
23.625532879818593	24.18281179138322	72	127
23.625532879818593	24.18281179138322	80	127
23.625532879818593	24.18281179138322	84	127
23.625532879818593	24.18281179138322	89	127
23.625532879818593	24.18281179138322	68	127
24.18281179138322	24.5659410430839	65	127
24.18281179138322	24.5659410430839	74	127
24.18281179138322	24.5659410430839	77	127
24.18281179138322	24.5659410430839	83	127
24.18281179138322	24.5659410430839	86	127
24.18281179138322	24.5659410430839	71	127
25.506349206349206	25.66888888888889	75	127
25.506349206349206	25.66888888888889	67	127
25.506349206349206	25.66888888888889	55	127
25.506349206349206	25.66888888888889	63	127
25.66888888888889	26.01718820861678	62	127
25.66888888888889	26.01718820861678	65	127
25.66888888888889	26.01718820861678	74	127
25.66888888888889	26.01718820861678	53	127
26.01718820861678	26.20294784580499	51	127
26.01718820861678	26.20294784580499	63	127
26.01718820861678	26.20294784580499	72	127
26.01718820861678	26.20294784580499	60	127
26.20294784580499	26.713786848072562	59	127
26.20294784580499	26.713786848072562	62	127
26.20294784580499	26.713786848072562	71	127
26.20294784580499	26.713786848072562	50	127
26.713786848072562	27.015646258503402	51	127
26.713786848072562	27.015646258503402	63	127
26.713786848072562	27.015646258503402	72	127
26.713786848072562	27.015646258503402	60	127
27.073696145124718	27.27106575963719	67	127
27.073696145124718	27.27106575963719	75	127
27.073696145124718	27.27106575963719	55	127
27.073696145124718	27.27106575963719	63	127
27.27106575963719	27.630975056689344	65	127
27.27106575963719	27.630975056689344	74	127
27.27106575963719	27.630975056689344	53	127
27.27106575963719	27.630975056689344	62	127
27.630975056689344	27.793514739229025	63	127
27.630975056689344	27.793514739229025	72	127
27.630975056689344	27.793514739229025	60	127
27.630975056689344	27.793514739229025	51	127
27.793514739229025	28.257913832199545	62	127
27.793514739229025	28.257913832199545	50	127
27.793514739229025	28.257913832199545	59	127
27.793514739229025	28.257913832199545	71	127
28.257913832199545	28.524943310657598	60	127
28.257913832199545	28.524943310657598	63	127
28.257913832199545	28.524943310657598	72	127
28.257913832199545	28.524943310657598	51	127
28.582993197278913	28.73392290249433	63	127
28.582993197278913	28.73392290249433	72	127
28.582993197278913	28.73392290249433	51	127
28.582993197278913	28.73392290249433	60	127
28.73392290249433	29.093832199546487	62	127
28.73392290249433	29.093832199546487	65	127
28.73392290249433	29.093832199546487	74	127
28.73392290249433	29.093832199546487	53	127
29.093832199546487	29.26798185941043	64	127
29.093832199546487	29.26798185941043	67	127
29.093832199546487	29.26798185941043	76	127
29.093832199546487	29.26798185941043	55	127
29.26798185941043	29.639501133786847	65	127
29.26798185941043	29.639501133786847	68	127
29.26798185941043	29.639501133786847	77	127
29.26798185941043	29.639501133786847	56	127
29.639501133786847	29.80204081632653	58	127
29.639501133786847	29.80204081632653	70	127
29.639501133786847	29.80204081632653	79	127
29.639501133786847	29.80204081632653	67	127
29.80204081632653	30.243219954648527	72	127
29.80204081632653	30.243219954648527	80	127
29.80204081632653	30.243219954648527	60	127
29.80204081632653	30.243219954648527	68	127
30.301269841269843	30.63795918367347	79	127
30.301269841269843	30.63795918367347	70	127
30.301269841269843	30.63795918367347	58	127
30.301269841269843	30.63795918367347	67	127
30.63795918367347	30.788888888888888	77	127
30.63795918367347	30.788888888888888	56	127
30.63795918367347	30.788888888888888	65	127
30.63795918367347	30.788888888888888	68	127
30.788888888888888	31.2881179138322	75	127
30.788888888888888	31.2881179138322	55	127
30.788888888888888	31.2881179138322	63	127
30.788888888888888	31.2881179138322	67	127
31.2881179138322	31.566757369614514	62	127
31.2881179138322	31.566757369614514	53	127
31.2881179138322	31.566757369614514	65	127
31.2881179138322	31.566757369614514	74	127
31.624807256235826	31.810566893424035	63	127
31.624807256235826	31.810566893424035	67	127
31.624807256235826	31.810566893424035	75	127
31.624807256235826	31.810566893424035	55	127
31.810566893424035	32.21691609977324	65	127
31.810566893424035	32.21691609977324	74	127
31.810566893424035	32.21691609977324	53	127
31.810566893424035	32.21691609977324	62	127
32.21691609977324	32.40267573696145	51	127
32.21691609977324	32.40267573696145	63	127
32.21691609977324	32.40267573696145	72	127
32.21691609977324	32.40267573696145	60	127
32.40267573696145	32.8902947845805	62	127
32.40267573696145	32.8902947845805	71	127
32.40267573696145	32.8902947845805	50	127
32.40267573696145	32.8902947845805	59	127
32.8902947845805	33.145714285714284	63	127
32.8902947845805	33.145714285714284	72	127
32.8902947845805	33.145714285714284	51	127
32.8902947845805	33.145714285714284	60	127
33.19215419501134	33.377913832199546	68	127
33.19215419501134	33.377913832199546	77	127
33.19215419501134	33.377913832199546	56	127
33.19215419501134	33.377913832199546	65	127
33.377913832199546	33.71460317460318	66	127
33.377913832199546	33.71460317460318	75	127
33.377913832199546	33.71460317460318	54	127
33.377913832199546	33.71460317460318	63	127
33.71460317460318	33.83070294784581	65	127
33.71460317460318	33.83070294784581	73	127
33.71460317460318	33.83070294784581	53	127
33.71460317460318	33.83070294784581	61	127
33.84231292517007	34.26027210884354	65	127
33.84231292517007	34.26027210884354	73	127
33.84231292517007	34.26027210884354	53	127
33.84231292517007	34.26027210884354	61	127
34.678231292517005	34.852380952380955	68	127
34.678231292517005	34.852380952380955	77	127
34.678231292517005	34.852380952380955	56	127
34.678231292517005	34.852380952380955	65	127
34.852380952380955	35.18907029478458	66	127
34.852380952380955	35.18907029478458	75	127
34.852380952380955	35.18907029478458	54	127
34.852380952380955	35.18907029478458	63	127
35.18907029478458	35.36321995464853	65	127
35.18907029478458	35.36321995464853	73	127
35.18907029478458	35.36321995464853	61	127
35.18907029478458	35.36321995464853	53	127
35.36321995464853	35.86244897959184	60	127
35.36321995464853	35.86244897959184	63	127
35.36321995464853	35.86244897959184	72	127
35.36321995464853	35.86244897959184	51	127
35.86244897959184	36.17591836734694	65	127
35.86244897959184	36.17591836734694	73	127
35.86244897959184	36.17591836734694	53	127
35.86244897959184	36.17591836734694	61	127
36.23396825396826	36.431337868480725	72	127
36.23396825396826	36.431337868480725	80	127
36.23396825396826	36.431337868480725	60	127
36.23396825396826	36.431337868480725	68	127
36.431337868480725	36.768027210884355	70	127
36.431337868480725	36.768027210884355	67	127
36.431337868480725	36.768027210884355	58	127
36.431337868480725	36.768027210884355	79	127
36.768027210884355	36.91895691609977	78	127
36.768027210884355	36.91895691609977	69	127
36.768027210884355	36.91895691609977	57	127
36.768027210884355	36.91895691609977	66	127
36.91895691609977	37.3485260770975	57	127
36.91895691609977	37.3485260770975	66	127
36.91895691609977	37.3485260770975	69	127
36.91895691609977	37.3485260770975	78	127
37.754875283446715	37.92902494331066	66	127
37.754875283446715	37.92902494331066	74	127
37.754875283446715	37.92902494331066	54	127
37.754875283446715	37.92902494331066	62	127
37.92902494331066	38.31215419501134	64	127
37.92902494331066	38.31215419501134	67	127
37.92902494331066	38.31215419501134	76	127
37.92902494331066	38.31215419501134	55	127
38.31215419501134	38.463083900226756	69	127
38.31215419501134	38.463083900226756	78	127
38.31215419501134	38.463083900226756	57	127
38.31215419501134	38.463083900226756	66	127
38.463083900226756	38.788163265306125	67	127
38.463083900226756	38.788163265306125	70	127
38.463083900226756	38.788163265306125	79	127
38.463083900226756	38.788163265306125	58	127
38.788163265306125	38.97392290249433	81	127
38.788163265306125	38.97392290249433	72	127
38.788163265306125	38.97392290249433	60	127
38.788163265306125	38.97392290249433	69	127
38.97392290249433	39.4847619047619	70	127
38.97392290249433	39.4847619047619	61	127
38.97392290249433	39.4847619047619	73	127
38.97392290249433	39.4847619047619	82	127
39.4847619047619	39.937551020408165	67	127
39.4847619047619	39.937551020408165	73	127
39.4847619047619	39.937551020408165	55	127
39.4847619047619	39.937551020408165	61	127
39.99560090702948	40.425170068027214	66	127
39.99560090702948	40.425170068027214	74	127
39.99560090702948	40.425170068027214	54	127
39.99560090702948	40.425170068027214	62	127
40.84312925170068	41.00566893424036	66	127
40.84312925170068	41.00566893424036	74	127
40.84312925170068	41.00566893424036	54	127
40.84312925170068	41.00566893424036	62	127
41.00566893424036	41.353968253968254	64	127
41.00566893424036	41.353968253968254	67	127
41.00566893424036	41.353968253968254	76	127
41.00566893424036	41.353968253968254	55	127
41.353968253968254	41.5397052154195	69	127
41.353968253968254	41.5397052154195	78	127
41.353968253968254	41.5397052154195	57	127
41.353968253968254	41.5397052154195	66	127
41.5397052154195	41.86480725623583	67	127
41.5397052154195	41.86480725623583	70	127
41.5397052154195	41.86480725623583	79	127
41.5397052154195	41.86480725623583	58	127
41.86480725623583	42.050544217687076	72	127
41.86480725623583	42.050544217687076	81	127
41.86480725623583	42.050544217687076	60	127
41.86480725623583	42.050544217687076	69	127
42.050544217687076	42.41047619047619	82	127
42.050544217687076	42.41047619047619	61	127
42.050544217687076	42.41047619047619	70	127
42.050544217687076	42.41047619047619	73	127
42.41047619047619	42.573015873015876	61	127
42.41047619047619	42.573015873015876	67	127
42.41047619047619	42.573015873015876	73	127
42.41047619047619	42.573015873015876	55	127
42.573015873015876	42.86326530612245	66	127
42.573015873015876	42.86326530612245	74	127
42.573015873015876	42.86326530612245	54	127
42.573015873015876	42.86326530612245	62	127
42.86326530612245	43.002585034013606	54	127
42.86326530612245	43.002585034013606	60	127
42.86326530612245	43.002585034013606	66	127
42.86326530612245	43.002585034013606	48	127
43.002585034013606	43.049024943310656	67	127
43.002585034013606	43.049024943310656	59	127
43.002585034013606	43.049024943310656	47	127
43.002585034013606	43.049024943310656	55	127
43.51342403628118	43.59469387755102	55	127
43.51342403628118	43.59469387755102	67	127
43.51342403628118	43.59469387755102	43	127
44.55832199546485	44.62798185941043	43	127
44.55832199546485	44.62798185941043	55	127
44.55832199546485	44.62798185941043	67	127
45.05755102040816	45.11560090702948	43	127
45.05755102040816	45.11560090702948	55	127
45.05755102040816	45.11560090702948	67	127
46.06761904761905	46.16049886621315	55	127
46.06761904761905	46.16049886621315	31	127
46.06761904761905	46.16049886621315	43	127
46.601678004535145	46.67133786848073	55	127
46.601678004535145	46.67133786848073	31	127
46.601678004535145	46.67133786848073	43	127
47.57691609977324	47.646575963718824	55	127
47.57691609977324	47.646575963718824	31	127
47.57691609977324	47.646575963718824	43	127
48.06453514739229	48.1225850340136	55	127
48.06453514739229	48.1225850340136	31	127
48.06453514739229	48.1225850340136	43	127
49.62027210884354	50.1659410430839	79	127
49.62027210884354	50.1659410430839	76	127
49.62027210884354	50.1659410430839	85	127
49.62027210884354	50.1659410430839	64	127
49.62027210884354	50.1659410430839	67	127
49.62027210884354	50.1659410430839	73	127
50.1659410430839	50.68839002267574	68	127
50.1659410430839	50.68839002267574	77	127
50.1659410430839	50.68839002267574	65	127
50.1659410430839	50.68839002267574	80	127
50.1659410430839	50.68839002267574	72	127
50.1659410430839	50.68839002267574	84	127
50.68839002267574	51.2340589569161	71	127
50.68839002267574	51.2340589569161	77	127
50.68839002267574	51.2340589569161	83	127
50.68839002267574	51.2340589569161	62	127
50.68839002267574	51.2340589569161	65	127
50.68839002267574	51.2340589569161	74	127
51.2340589569161	51.87260770975057	70	127
51.2340589569161	51.87260770975057	73	127
51.2340589569161	51.87260770975057	77	127
51.2340589569161	51.87260770975057	82	127
51.2340589569161	51.87260770975057	61	127
51.2340589569161	51.87260770975057	65	127
51.87260770975057	52.348616780045354	67	127
51.87260770975057	52.348616780045354	72	127
51.87260770975057	52.348616780045354	76	127
51.87260770975057	52.348616780045354	79	127
51.87260770975057	52.348616780045354	60	127
51.87260770975057	52.348616780045354	64	127
52.406666666666666	52.557596371882084	41	127
52.406666666666666	52.557596371882084	49	127
52.557596371882084	52.731746031746034	53	127
52.731746031746034	52.90589569160998	56	127
52.90589569160998	53.08004535147392	61	127
53.08004535147392	53.25419501133787	59	127
53.25419501133787	53.41673469387755	60	127
53.41673469387755	53.590884353741494	56	127
53.590884353741494	53.75342403628118	53	127
53.75342403628118	53.927573696145124	49	127
53.927573696145124	54.11333333333334	48	127
53.927573696145124	54.11333333333334	40	127
54.11333333333334	54.28748299319728	52	127
54.28748299319728	54.46163265306122	55	127
54.473242630385485	54.63578231292517	61	127
54.63578231292517	54.809931972789116	59	127
54.809931972789116	54.98408163265306	60	127
54.98408163265306	55.15823129251701	55	127
55.15823129251701	55.33238095238095	52	127
55.33238095238095	55.506530612244894	48	127
55.506530612244894	55.66907029478458	49	127
55.506530612244894	55.66907029478458	41	127
55.66907029478458	55.843219954648525	53	127
55.843219954648525	56.005759637188206	56	127
56.005759637188206	56.19151927437642	63	127
56.19151927437642	56.342448979591836	60	127
56.342448979591836	56.50498866213152	61	127
56.50498866213152	56.65591836734694	56	127
56.65591836734694	56.81845804988662	53	127
56.81845804988662	57.00421768707483	49	127
57.01582766439909	57.18997732426304	48	127
57.01582766439909	57.18997732426304	40	127
57.18997732426304	57.36412698412698	52	127
57.36412698412698	57.53827664399093	55	127
57.53827664399093	57.712426303854876	61	127
57.712426303854876	57.89818594104308	59	127
57.89818594104308	58.07233560090703	60	127
58.07233560090703	58.246485260770974	55	127
58.246485260770974	58.409024943310655	52	127
58.409024943310655	58.583174603174605	48	127
58.583174603174605	58.83859410430839	41	127
58.583174603174605	58.745714285714286	56	127
58.745714285714286	58.896643990929704	60	127
58.896643990929704	59.070793650793654	68	127
59.070793650793654	59.349433106575965	43	127
59.070793650793654	59.2449433106576	58	127
59.2449433106576	59.40748299319728	60	127
59.40748299319728	59.58163265306123	64	127
59.58163265306123	59.72095238095238	53	127
59.58163265306123	59.837052154195014	44	127
59.72095238095238	59.895102040816326	60	127
59.895102040816326	60.06925170068027	65	127
60.06925170068027	60.24340136054422	53	127
60.06925170068027	60.37111111111111	46	127
60.24340136054422	60.429160997732424	61	127
60.429160997732424	60.603310657596374	65	127
60.603310657596374	60.77746031746032	53	127
60.77746031746032	60.95160997732426	61	127
60.95160997732426	61.148979591836735	65	127
61.148979591836735	61.33473922902494	53	127
61.148979591836735	61.648208616780046	34	127
61.148979591836735	61.648208616780046	46	127
61.33473922902494	61.50888888888889	62	127
61.50888888888889	61.648208616780046	65	127
61.648208616780046	61.81074829931973	56	127
61.648208616780046	62.611836734693874	47	127
61.648208616780046	62.611836734693874	35	127
61.81074829931973	61.97328798185941	62	127
61.97328798185941	62.15904761904762	65	127
62.15904761904762	62.33319727891156	62	127
62.33319727891156	62.518956916099775	65	127
62.518956916099775	62.69310657596372	68	127
62.69310657596372	62.86725623582767	56	127
62.69310657596372	63.169115646258504	35	127
62.69310657596372	63.169115646258504	47	127
62.86725623582767	63.02979591836735	62	127
63.02979591836735	63.23877551020408	65	127
63.23877551020408	63.56385487528345	48	127
63.23877551020408	63.56385487528345	36	127
63.23877551020408	63.43614512471655	55	127
63.43614512471655	63.62190476190476	64	127
63.62190476190476	63.772834467120184	67	127
63.772834467120184	63.94698412698413	76	127
63.94698412698413	64.09791383219955	79	127
64.09791383219955	64.22562358276645	84	127
64.09791383219955	64.22562358276645	72	127
64.22562358276645	64.2720634920635	75	127
64.22562358276645	64.2720634920635	87	127
64.2720634920635	64.44621315192744	85	127
64.2720634920635	64.44621315192744	73	127
64.62036281179138	64.79451247165532	72	127
64.62036281179138	64.79451247165532	84	127
64.79451247165532	64.96866213151928	41	127
64.79451247165532	64.96866213151928	49	127
64.79451247165532	65.68845804988662	73	127
64.79451247165532	65.68845804988662	85	127
64.96866213151928	65.15442176870748	53	127
65.15442176870748	65.34018140589569	56	127
65.15442176870748	65.34018140589569	61	127
65.34018140589569	65.64204081632653	65	127
65.70009070294785	65.87424036281179	72	127
65.70009070294785	65.87424036281179	84	127
65.87424036281179	66.04839002267573	68	127
65.87424036281179	66.04839002267573	80	127
65.87424036281179	66.1528798185941	61	127
65.87424036281179	66.1528798185941	56	127
66.21092970521542	66.38507936507936	70	127
66.21092970521542	66.38507936507936	82	127
66.38507936507936	66.88430839002268	79	127
66.38507936507936	66.88430839002268	67	127
66.38507936507936	66.5940589569161	48	127
66.38507936507936	66.5940589569161	40	127
66.5940589569161	66.76820861678004	52	127
66.76820861678004	66.94235827664399	55	127
66.76820861678004	66.94235827664399	60	127
66.94235827664399	67.23260770975057	64	127
67.30226757369614	67.4415873015873	84	127
67.30226757369614	67.4415873015873	72	127
67.4415873015873	67.48802721088435	87	127
67.48802721088435	67.70861678004535	60	127
67.48802721088435	67.60410430839002	73	127
67.48802721088435	67.60410430839002	85	127
67.48802721088435	67.70861678004535	55	127
67.76666666666667	67.94081632653061	72	127
67.76666666666667	67.94081632653061	84	127
67.94081632653061	68.1033560090703	49	127
67.94081632653061	68.76512471655329	87	127
67.94081632653061	68.1033560090703	41	127
67.94081632653061	68.76512471655329	75	127
68.1033560090703	68.28911564625851	53	127
68.28911564625851	68.44004535147393	56	127
68.28911564625851	68.44004535147393	61	127
68.44004535147393	68.70707482993197	65	127
68.76512471655329	68.9508843537415	73	127
68.76512471655329	68.9508843537415	85	127
68.9508843537415	69.12503401360544	68	127
68.9508843537415	69.12503401360544	80	127
68.9508843537415	69.25274376417234	56	127
68.9508843537415	69.25274376417234	61	127
69.31079365079366	69.4849433106576	70	127
69.31079365079366	69.4849433106576	82	127
69.4849433106576	69.64746031746031	39	127
69.4849433106576	69.64746031746031	49	127
69.4849433106576	69.9261224489796	67	127
69.4849433106576	69.9261224489796	79	127
69.64746031746031	69.7984126984127	55	127
69.7984126984127	69.9841723356009	58	127
69.7984126984127	69.9841723356009	61	127
69.9841723356009	70.23959183673469	67	127
70.28600907029478	70.41371882086167	87	127
70.28600907029478	70.41371882086167	75	127
70.41371882086167	70.4601814058957	91	127
70.4601814058957	70.59950113378684	77	127
70.4601814058957	70.59950113378684	89	127
70.4601814058957	70.72721088435374	58	127
70.4601814058957	70.72721088435374	61	127
70.78526077097506	70.94780045351474	75	127
70.78526077097506	70.94780045351474	87	127
70.94780045351474	71.15675736961451	44	127
70.94780045351474	71.24965986394558	84	127
70.94780045351474	71.24965986394558	96	127
71.15675736961451	71.34253968253968	51	127
71.24965986394558	71.52829931972789	82	127
71.24965986394558	71.52829931972789	94	127
71.34253968253968	71.52829931972789	60	127
71.52829931972789	71.79530612244898	80	127
71.52829931972789	71.7140589569161	46	127
71.52829931972789	71.79530612244898	92	127
71.7140589569161	71.87659863945578	51	127
71.79530612244898	72.05072562358276	79	127
71.79530612244898	72.05072562358276	91	127
71.87659863945578	72.05072562358276	61	127
72.05072562358276	72.22489795918368	48	127
72.05072562358276	72.31777777777778	80	127
72.05072562358276	72.31777777777778	92	127
72.22489795918368	72.39904761904762	56	127
72.31777777777778	72.57319727891156	90	127
72.31777777777778	72.57319727891156	78	127
72.39904761904762	72.57319727891156	63	127
72.58480725623583	72.86344671201815	88	127
72.58480725623583	72.7821768707483	49	127
72.58480725623583	72.86344671201815	76	127
72.7821768707483	72.94469387755102	56	127
72.86344671201815	73.11886621315193	77	127
72.86344671201815	73.11886621315193	89	127
72.94469387755102	73.11886621315193	65	127
73.11886621315193	73.2814058956916	56	127
73.11886621315193	73.36267573696145	68	127
73.11886621315193	73.36267573696145	80	127
73.2814058956916	73.4439455782313	65	127
73.36267573696145	73.64131519274376	70	127
73.36267573696145	73.64131519274376	82	127
73.45553287981859	73.64131519274376	56	127
73.64131519274376	74.41918367346939	71	127
73.64131519274376	74.41918367346939	83	127
73.64131519274376	74.15215419501133	50	127
73.81544217687075	73.97800453514739	56	127
73.97800453514739	74.15215419501133	65	127
74.15215419501133	74.34952380952382	49	127
74.34952380952382	74.51206349206349	58	127
74.41918367346939	74.67460317460318	70	127
74.41918367346939	74.67460317460318	82	127
74.51206349206349	74.67460317460318	66	127
74.67460317460318	74.84875283446712	58	127
74.67460317460318	74.94163265306122	73	127
74.67460317460318	74.94163265306122	85	127
74.84875283446712	75.02290249433106	66	127
74.94163265306122	75.197052154195	70	127
74.94163265306122	75.197052154195	82	127
75.02290249433106	75.18544217687075	58	127
75.197052154195	75.46408163265306	68	127
75.197052154195	75.71950113378685	50	127
75.197052154195	75.46408163265306	80	127
75.38281179138322	75.55696145124716	56	127
75.46408163265306	75.71950113378685	82	127
75.46408163265306	75.71950113378685	70	127
75.55696145124716	75.71950113378685	65	127
75.71950113378685	75.89365079365079	49	127
75.71950113378685	75.98650793650793	71	127
75.71950113378685	75.98650793650793	83	127
75.89365079365079	76.079410430839	58	127
75.98650793650793	76.25356009070295	70	127
75.98650793650793	76.25356009070295	82	127
76.079410430839	76.25356009070295	66	127
76.25356009070295	76.50897959183673	78	127
76.25356009070295	76.41609977324264	58	127
76.25356009070295	76.50897959183673	90	127
76.41609977324264	76.60183673469388	66	127
76.50897959183673	76.78761904761905	70	127
76.50897959183673	76.78761904761905	82	127
76.60183673469388	76.78761904761905	58	127
76.78761904761905	77.04303854875283	68	127
76.78761904761905	77.04303854875283	80	127
76.78761904761905	77.35650793650794	50	127
76.96176870748299	77.15913832199547	56	127
77.04303854875283	77.35650793650794	71	127
77.04303854875283	77.35650793650794	83	127
77.15913832199547	77.35650793650794	65	127
77.35650793650794	77.51904761904763	48	127
77.35650793650794	78.19242630385487	84	127
77.35650793650794	78.19242630385487	72	127
77.51904761904763	77.69319727891157	56	127
77.69319727891157	77.87893424036281	65	127
77.87893424036281	78.0298866213152	56	127
78.0298866213152	78.19242630385487	65	127
78.19242630385487	78.35496598639456	72	127
78.19242630385487	78.35496598639456	80	127
78.19242630385487	78.35496598639456	56	127
78.35496598639456	78.5291156462585	73	127
78.35496598639456	78.5291156462585	82	127
78.35496598639456	78.5291156462585	48	127
78.5291156462585	78.71487528344672	55	127
78.71487528344672	78.81936507936508	70	127
78.71487528344672	78.81936507936508	64	127
78.71487528344672	78.81936507936508	79	127
78.81936507936508	79.05156462585035	68	127
78.81936507936508	79.05156462585035	77	127
78.81936507936508	79.05156462585035	53	127
78.81936507936508	79.05156462585035	56	127
78.81936507936508	79.05156462585035	65	127
81.19941043083901	81.38517006802721	48	127
81.19941043083901	81.38517006802721	72	127
81.19941043083901	81.38517006802721	80	127
81.19941043083901	81.38517006802721	56	127
81.38517006802721	81.72185941043084	70	127
81.38517006802721	81.72185941043084	79	127
81.38517006802721	81.72185941043084	46	127
81.38517006802721	81.72185941043084	55	127
81.72185941043084	81.861179138322	68	127
81.72185941043084	81.861179138322	77	127
81.72185941043084	81.861179138322	44	127
81.72185941043084	81.861179138322	53	127
81.861179138322	82.33718820861678	76	127
81.861179138322	82.33718820861678	67	127
81.861179138322	82.33718820861678	41	127
81.861179138322	82.33718820861678	43	127
81.861179138322	82.33718820861678	52	127
82.33718820861678	82.62743764172336	77	127
82.33718820861678	82.62743764172336	68	127
82.33718820861678	82.62743764172336	44	127
82.33718820861678	82.62743764172336	53	127
84.2760544217687	84.45020408163265	77	127
84.2760544217687	84.45020408163265	85	127
84.2760544217687	84.45020408163265	53	127
84.2760544217687	84.45020408163265	61	127
84.45020408163265	84.76367346938775	58	127
84.45020408163265	84.76367346938775	73	127
84.45020408163265	84.76367346938775	82	127
84.45020408163265	84.76367346938775	49	127
84.76367346938775	84.92621315192744	55	127
84.76367346938775	84.92621315192744	70	127
84.76367346938775	84.92621315192744	79	127
84.76367346938775	84.92621315192744	46	127
84.92621315192744	85.46027210884354	68	127
84.92621315192744	85.46027210884354	77	127
84.92621315192744	85.46027210884354	48	127
84.92621315192744	85.46027210884354	53	127
84.92621315192744	85.46027210884354	56	127
85.46027210884354	85.76213151927438	76	127
85.46027210884354	85.76213151927438	55	127
85.46027210884354	85.76213151927438	52	127
85.46027210884354	85.76213151927438	67	127
87.2946485260771	87.45718820861678	73	127
87.2946485260771	87.45718820861678	82	127
87.2946485260771	87.45718820861678	49	127
87.2946485260771	87.45718820861678	58	127
87.45718820861678	87.79387755102042	56	127
87.45718820861678	87.79387755102042	71	127
87.45718820861678	87.79387755102042	80	127
87.45718820861678	87.79387755102042	47	127
87.79387755102042	87.95641723356009	46	127
87.79387755102042	87.95641723356009	70	127
87.79387755102042	87.95641723356009	78	127
87.79387755102042	87.95641723356009	54	127
87.96802721088436	88.39759637188209	70	127
87.96802721088436	88.39759637188209	78	127
87.96802721088436	88.39759637188209	42	127
87.96802721088436	88.39759637188209	46	127
87.96802721088436	88.39759637188209	54	127
90.35968253968254	90.54544217687075	85	127
90.35968253968254	90.54544217687075	77	127
90.35968253968254	90.54544217687075	53	127
90.35968253968254	90.54544217687075	61	127
90.54544217687075	90.88213151927438	75	127
90.54544217687075	90.88213151927438	84	127
90.54544217687075	90.88213151927438	51	127
90.54544217687075	90.88213151927438	60	127
90.88213151927438	91.0330612244898	59	127
90.88213151927438	91.0330612244898	74	127
90.88213151927438	91.0330612244898	83	127
90.88213151927438	91.0330612244898	50	127
91.0330612244898	91.439410430839	74	127
91.0330612244898	91.439410430839	83	127
91.0330612244898	91.439410430839	43	127
91.0330612244898	91.439410430839	50	127
91.0330612244898	91.439410430839	59	127
94.9572335600907	95.11977324263039	67	127
94.9572335600907	95.11977324263039	71	127
94.9572335600907	95.11977324263039	79	127
94.9572335600907	95.11977324263039	59	127
95.11977324263039	95.4332426303855	72	127
95.11977324263039	95.4332426303855	81	127
95.11977324263039	95.4332426303855	60	127
95.11977324263039	95.4332426303855	69	127
95.4332426303855	95.60739229024944	71	127
95.4332426303855	95.60739229024944	74	127
95.4332426303855	95.60739229024944	83	127
95.4332426303855	95.60739229024944	62	127
95.61900226757369	95.95569160997732	84	127
95.61900226757369	95.88603174603175	63	127
95.61900226757369	95.88603174603175	72	127
95.61900226757369	95.95569160997732	75	127
95.95569160997732	96.12984126984126	65	127
95.95569160997732	96.12984126984126	74	127
95.95569160997732	96.12984126984126	77	127
95.95569160997732	96.12984126984126	86	127
96.12984126984126	96.64068027210884	78	127
96.12984126984126	96.64068027210884	87	127
96.12984126984126	96.59424036281179	66	127
96.12984126984126	96.59424036281179	75	127
96.64068027210884	97.96421768707484	78	127
96.64068027210884	97.96421768707484	72	127
96.64068027210884	97.96421768707484	66	127
96.64068027210884	97.96421768707484	60	127
100.95959183673469	101.13374149659865	68	127
100.95959183673469	101.13374149659865	72	127
100.95959183673469	101.13374149659865	80	127
100.95959183673469	101.13374149659865	60	127
101.13374149659865	101.50526077097506	70	127
101.13374149659865	101.50526077097506	73	127
101.13374149659865	101.50526077097506	82	127
101.13374149659865	101.50526077097506	61	127
101.50526077097506	101.679410430839	75	127
101.50526077097506	101.679410430839	84	127
101.50526077097506	101.679410430839	63	127
101.50526077097506	101.679410430839	72	127
101.679410430839	102.01609977324263	64	127
101.679410430839	102.01609977324263	76	127
101.679410430839	102.01609977324263	85	127
101.679410430839	102.01609977324263	73	127
102.01609977324263	102.19024943310657	78	127
102.01609977324263	102.19024943310657	87	127
102.01609977324263	102.19024943310657	66	127
102.01609977324263	102.19024943310657	75	127
102.19024943310657	102.70108843537415	67	127
102.19024943310657	102.70108843537415	76	127
102.19024943310657	102.70108843537415	79	127
102.19024943310657	102.70108843537415	88	127
102.70108843537415	103.88530612244898	79	127
102.70108843537415	103.88530612244898	73	127
102.70108843537415	103.88530612244898	67	127
102.70108843537415	103.88530612244898	61	127
105.42943310657597	105.60358276643991	69	127
105.42943310657597	105.60358276643991	81	127
105.61519274376417	105.89383219954648	71	127
105.61519274376417	105.89383219954648	68	127
105.61519274376417	105.89383219954648	80	127
105.61519274376417	105.89383219954648	83	127
105.9518820861678	106.11442176870749	79	127
105.9518820861678	106.11442176870749	85	127
105.9518820861678	106.11442176870749	67	127
105.9518820861678	106.11442176870749	73	127
106.11442176870749	106.33501133786848	74	127
106.11442176870749	106.33501133786848	77	127
106.11442176870749	106.33501133786848	86	127
106.11442176870749	106.33501133786848	65	127
106.3930612244898	106.55560090702947	88	127
106.3930612244898	106.55560090702947	76	127
106.3930612244898	106.55560090702947	85	127
106.3930612244898	106.55560090702947	64	127
106.3930612244898	106.55560090702947	73	127
106.55560090702947	107.00839002267574	86	127
106.55560090702947	107.00839002267574	89	127
106.55560090702947	107.00839002267574	62	127
106.55560090702947	107.00839002267574	74	127
106.55560090702947	107.00839002267574	77	127
107.06643990929705	107.53083900226757	72	127
107.06643990929705	107.53083900226757	86	127
107.06643990929705	107.53083900226757	90	127
107.06643990929705	107.53083900226757	60	127
107.06643990929705	107.53083900226757	62	127
107.06643990929705	107.53083900226757	78	127
107.58888888888889	107.87913832199547	79	127
107.58888888888889	107.87913832199547	86	127
107.58888888888889	107.87913832199547	91	127
107.58888888888889	107.87913832199547	59	127
107.58888888888889	107.87913832199547	62	127
107.58888888888889	107.87913832199547	71	127
108.11133786848073	108.38997732426304	83	127
108.11133786848073	108.38997732426304	86	127
108.11133786848073	108.38997732426304	92	127
108.11133786848073	108.38997732426304	53	127
108.11133786848073	108.38997732426304	56	127
108.11133786848073	108.38997732426304	59	127
108.11133786848073	108.38997732426304	62	127
108.11133786848073	108.38997732426304	80	127
108.11133786848073	108.38997732426304	65	127
109.63224489795918	109.85283446712018	68	127
109.63224489795918	109.85283446712018	71	127
109.63224489795918	109.85283446712018	74	127
109.63224489795918	109.85283446712018	80	127
109.63224489795918	109.85283446712018	53	127
109.63224489795918	109.85283446712018	56	127
109.63224489795918	109.85283446712018	59	127
109.63224489795918	109.85283446712018	62	127
109.63224489795918	109.85283446712018	65	127
111.14154195011338	111.44340136054421	68	127
111.14154195011338	111.44340136054421	71	127
111.14154195011338	111.44340136054421	75	127
111.14154195011338	111.44340136054421	80	127
111.14154195011338	111.44340136054421	51	127
111.14154195011338	111.44340136054421	56	127
111.14154195011338	111.44340136054421	59	127
111.14154195011338	111.44340136054421	63	127
112.73210884353742	113.02235827664398	80	127
112.73210884353742	113.02235827664398	68	127
112.73210884353742	113.02235827664398	71	127
112.73210884353742	113.02235827664398	77	127
112.73210884353742	113.02235827664398	50	127
112.73210884353742	113.02235827664398	53	127
112.73210884353742	113.02235827664398	59	127
112.73210884353742	113.02235827664398	62	127
113.26616780045352	113.56802721088435	67	127
113.26616780045352	113.56802721088435	72	127
113.26616780045352	113.56802721088435	75	127
113.26616780045352	113.56802721088435	79	127
113.26616780045352	113.56802721088435	51	127
113.26616780045352	113.56802721088435	55	127
113.26616780045352	113.56802721088435	60	127
113.26616780045352	113.56802721088435	63	127
113.80022675736961	113.98598639455783	47	127
113.80022675736961	113.98598639455783	35	127
113.98598639455783	114.17174603174603	50	127
114.17174603174603	114.35750566893424	55	127
114.35750566893424	114.53165532879818	68	127
114.53165532879818	114.69419501133787	66	127
114.69419501133787	114.86834467120181	67	127
114.86834467120181	115.05410430839002	62	127
115.05410430839002	115.22825396825397	59	127
115.22825396825397	115.40240362811791	55	127
115.40240362811791	115.57655328798187	36	127
115.40240362811791	115.57655328798187	48	127
115.57655328798187	115.75070294784581	51	127
115.75070294784581	115.92485260770975	56	127
115.93646258503401	116.0990022675737	70	127
116.0990022675737	116.26154195011338	67	127
116.26154195011338	116.42408163265306	68	127
116.42408163265306	116.59823129251701	63	127
116.59823129251701	116.76077097505669	60	127
116.76077097505669	116.93492063492063	56	127
116.93492063492063	117.12068027210884	47	127
116.93492063492063	117.12068027210884	35	127
117.12068027210884	117.28321995464853	50	127
117.28321995464853	117.45736961451247	55	127
117.45736961451247	117.64312925170069	68	127
117.64312925170069	117.80566893424036	66	127
117.80566893424036	117.96820861678005	67	127
117.96820861678005	118.14235827664399	62	127
118.14235827664399	118.31650793650793	59	127
118.31650793650793	118.49065759637188	55	127
118.50226757369614	118.67641723356009	63	127
118.50226757369614	118.75768707482993	36	127
118.67641723356009	118.85056689342403	67	127
118.75768707482993	119.05954648526077	48	127
118.85056689342403	119.05954648526077	75	127
119.05954648526077	119.23369614512471	65	127
119.05954648526077	119.31496598639455	38	127
119.23369614512471	119.40784580498867	67	127
119.31496598639455	119.58199546485261	50	127
119.40784580498867	119.58199546485261	71	127
119.58199546485261	119.75614512471655	60	127
119.58199546485261	119.8374149659864	39	127
119.75614512471655	119.89546485260772	67	127
119.8374149659864	120.06961451247166	51	127
119.89546485260772	120.06961451247166	72	127
120.06961451247166	120.25537414965986	60	127
120.06961451247166	120.34825396825397	41	127
120.25537414965986	120.44113378684807	65	127
120.34825396825397	120.61528344671201	53	127
120.44113378684807	120.61528344671201	68	127
120.61528344671201	120.7778231292517	56	127
120.61528344671201	120.8707029478458	41	127
120.7778231292517	120.96358276643991	60	127
120.8707029478458	121.13773242630386	53	127
120.96358276643991	121.14934240362811	68	127
121.14934240362811	121.33510204081632	57	127
121.14934240362811	121.41637188208617	41	127
121.33510204081632	121.50925170068027	60	127
121.41637188208617	121.68340136054422	53	127
121.50925170068027	121.68340136054422	69	127
121.68340136054422	121.93882086167801	42	127
121.68340136054422	121.8459410430839	57	127
121.8459410430839	122.03170068027211	60	127
121.93882086167801	122.20585034013605	54	127
122.03170068027211	122.20585034013605	69	127
122.20585034013605	122.39160997732426	57	127
122.39160997732426	122.51931972789116	60	127
122.51931972789116	122.6934693877551	69	127
122.6934693877551	122.89083900226757	60	127
122.6934693877551	122.97210884353741	30	127
122.89083900226757	123.06498866213153	63	127
122.97210884353741	123.2275283446712	42	127
123.06498866213153	123.2275283446712	69	127
123.2275283446712	123.40167800453514	59	127
123.2275283446712	123.49455782312926	31	127
123.40167800453514	123.5758276643991	62	127
123.49455782312926	123.78480725623582	43	127
123.5758276643991	123.79641723356009	67	127
123.79641723356009	123.97056689342404	71	127
123.97056689342404	124.1679365079365	74	127
124.1679365079365	124.30725623582767	79	127
124.1679365079365	124.30725623582767	67	127
124.30725623582767	124.36530612244898	83	127
124.30725623582767	124.36530612244898	71	127
124.36530612244898	124.55106575963718	81	127
124.36530612244898	124.55106575963718	69	127
124.72521541950114	124.92258503401361	79	127
124.72521541950114	124.92258503401361	67	127
124.92258503401361	125.77011337868481	69	127
124.92258503401361	125.77011337868481	81	127
125.77011337868481	125.94426303854875	79	127
125.77011337868481	125.94426303854875	67	127
125.94426303854875	126.17646258503402	71	127
125.94426303854875	126.17646258503402	59	127
126.35061224489796	126.5247619047619	60	127
126.35061224489796	126.5247619047619	72	127
126.5247619047619	126.79179138321996	74	127
126.5247619047619	126.79179138321996	62	127
127.3722902494331	127.48839002267573	79	127
127.3722902494331	127.48839002267573	67	127
127.48839002267573	127.5348299319728	83	127
127.48839002267573	127.5348299319728	71	127
127.5348299319728	127.70897959183674	81	127
127.5348299319728	127.70897959183674	69	127
127.88312925170068	128.05727891156462	79	127
127.88312925170068	128.05727891156462	67	127
128.05727891156462	128.9744671201814	70	127
128.05727891156462	128.91641723356008	82	127
128.9744671201814	129.16022675736963	81	127
128.9744671201814	129.16022675736963	69	127
129.16022675736963	129.31115646258505	71	127
129.16022675736963	129.31115646258505	59	127
129.47367346938776	129.61301587301588	72	127
129.47367346938776	129.61301587301588	60	127
129.61301587301588	129.86843537414967	74	127
129.61301587301588	129.86843537414967	62	127
130.4489342403628	130.59986394557822	79	127
130.4489342403628	130.59986394557822	67	127
130.59986394557822	130.63469387755103	83	127
130.59986394557822	130.63469387755103	71	127
130.63469387755103	130.80884353741496	81	127
130.63469387755103	130.80884353741496	69	127
130.99460317460318	131.20358276643992	79	127
130.99460317460318	131.20358276643992	67	127
131.20358276643992	131.4009523809524	48	127
131.20358276643992	131.4938321995465	76	127
131.20358276643992	131.4938321995465	88	127
131.4009523809524	131.57510204081632	55	127
131.4938321995465	131.737641723356	74	127
131.4938321995465	131.737641723356	86	127
131.57510204081632	131.737641723356	64	127
131.74925170068028	131.9001814058957	50	127
131.74925170068028	131.958231292517	72	127
131.74925170068028	131.958231292517	84	127
131.9001814058957	132.0511111111111	55	127
131.958231292517	132.22526077097507	71	127
131.958231292517	132.22526077097507	83	127
132.0511111111111	132.22526077097507	65	127
132.22526077097507	132.399410430839	52	127
132.22526077097507	132.4922902494331	72	127
132.22526077097507	132.4922902494331	84	127
132.399410430839	132.58517006802722	60	127
132.4922902494331	132.74770975056688	70	127
132.4922902494331	132.74770975056688	82	127
132.58517006802722	132.74770975056688	67	127
132.75931972789115	133.03795918367348	80	127
132.75931972789115	133.03795918367348	68	127
132.75931972789115	133.74616780045352	53	127
132.9334693877551	133.1192290249433	60	127
133.03795918367348	133.29337868480727	81	127
133.03795918367348	133.29337868480727	69	127
133.1192290249433	133.29337868480727	65	127
133.29337868480727	133.47913832199546	60	127
133.29337868480727	133.56038548752835	72	127
133.47913832199546	133.65328798185942	65	127
133.56038548752835	133.83904761904762	74	127
133.65328798185942	133.83904761904762	60	127
133.83904761904762	134.65174603174603	75	127
133.83904761904762	134.3498866213152	69	127
133.83904761904762	134.39632653061224	54	127
134.04802721088436	134.21056689342404	60	127
134.21056689342404	134.39632653061224	63	127
134.4079365079365	134.65174603174603	70	127
134.4079365079365	135.39478458049888	53	127
134.5704761904762	134.77945578231294	58	127
134.65174603174603	134.95360544217687	74	127
134.77945578231294	134.95360544217687	62	127
134.95360544217687	135.1393650793651	58	127
134.95360544217687	135.2322448979592	77	127
135.1393650793651	135.31351473922902	62	127
135.2322448979592	135.4760544217687	74	127
135.31351473922902	135.4760544217687	58	127
135.48766439909298	136.01011337868482	54	127
135.48766439909298	135.74308390022676	72	127
135.48766439909298	136.01011337868482	69	127
135.6618140589569	135.84757369614513	60	127
135.75469387755103	136.01011337868482	74	127
135.84757369614513	136.01011337868482	63	127
136.01011337868482	136.2655328798186	75	127
136.01011337868482	136.96213151927438	53	127
136.01011337868482	136.2655328798186	70	127
136.17265306122448	136.3584126984127	58	127
136.2655328798186	136.53256235827664	74	127
136.3584126984127	136.53256235827664	62	127
136.53256235827664	136.7067120181406	58	127
136.53256235827664	136.7995918367347	82	127
136.7067120181406	136.86925170068028	62	127
136.7995918367347	137.0434013605442	74	127
136.86925170068028	137.0434013605442	58	127
137.05501133786848	138.04185941043085	69	127
137.05501133786848	137.31043083900227	72	127
137.05501133786848	137.54263038548754	54	127
137.22916099773244	137.38009070294785	60	127
137.31043083900227	137.54263038548754	74	127
137.38009070294785	137.54263038548754	63	127
137.54263038548754	137.72839002267574	60	127
137.54263038548754	138.401768707483	75	127
137.72839002267574	137.91414965986394	63	127
137.91414965986394	138.09990929705216	60	127
138.09990929705216	138.401768707483	72	127
138.09990929705216	138.401768707483	67	127
138.09990929705216	138.6571882086168	55	127
138.28566893424036	138.45981859410432	60	127
138.45981859410432	138.62233560090704	76	127
138.45981859410432	138.6571882086168	64	127
138.62233560090704	138.6571882086168	79	127
138.6571882086168	138.81972789115648	71	127
138.6571882086168	138.81972789115648	77	127
138.6571882086168	139.19124716553287	55	127
138.83133786848072	139.00548752834467	62	127
139.00548752834467	139.19124716553287	65	127
139.00548752834467	139.19124716553287	74	127
139.19124716553287	139.67886621315193	69	127
139.19124716553287	139.72530612244898	54	127
139.19124716553287	140.01555555555555	72	127
139.19124716553287	140.01555555555555	75	127
139.3770068027211	139.55115646258503	60	127
139.55115646258503	139.72530612244898	63	127
139.73691609977325	140.25934240362812	55	127
139.73691609977325	140.01555555555555	67	127
139.89943310657597	140.07360544217687	60	127
140.07360544217687	140.2245351473923	76	127
140.07360544217687	140.25934240362812	64	127
140.2245351473923	140.25934240362812	79	127
140.25934240362812	140.79342403628118	55	127
140.25934240362812	140.4451247165533	77	127
140.25934240362812	140.4451247165533	71	127
140.4451247165533	140.61927437641722	62	127
140.6308843537415	140.79342403628118	74	127
140.6308843537415	140.79342403628118	65	127
140.80503401360545	141.24621315192744	75	127
140.80503401360545	141.30426303854875	54	127
140.80503401360545	141.24621315192744	69	127
140.80503401360545	141.24621315192744	72	127
140.9443537414966	141.11850340136056	57	127
141.11850340136056	141.30426303854875	60	127
141.30426303854875	141.78027210884355	69	127
141.30426303854875	141.78027210884355	72	127
141.30426303854875	141.83832199546487	53	127
141.49002267573695	141.6641723356009	57	127
141.6641723356009	141.83832199546487	60	127
141.83832199546487	142.27950113378685	69	127
141.83832199546487	142.27950113378685	72	127
141.83832199546487	142.27950113378685	76	127
141.83832199546487	142.33755102040817	52	127
141.98925170068028	142.151768707483	57	127
142.151768707483	142.33755102040817	60	127
142.33755102040817	142.60458049886623	69	127
142.33755102040817	142.60458049886623	72	127
142.33755102040817	142.813537414966	50	127
142.5117006802721	142.639410430839	57	127
142.639410430839	142.813537414966	60	127
142.7671201814059	142.813537414966	79	127
142.813537414966	142.97609977324262	38	127
142.813537414966	143.25473922902495	69	127
142.813537414966	143.25473922902495	72	127
142.813537414966	143.66108843537415	77	127
142.97609977324262	143.16185941043085	45	127
143.16185941043085	143.301179138322	50	127
143.301179138322	143.4869387755102	43	127
143.301179138322	143.66108843537415	71	127
143.301179138322	143.66108843537415	65	127
143.4869387755102	143.66108843537415	50	127
143.66108843537415	143.83521541950114	74	127
143.66108843537415	143.83521541950114	43	127
143.83521541950114	144.1487074829932	72	127
143.83521541950114	143.90489795918367	36	127
143.83521541950114	144.1487074829932	64	127
144.03260770975058	144.09063492063493	36	127
144.2067573696145	144.26480725623583	36	127
144.38090702947846	144.65954648526076	72	127
144.38090702947846	144.43895691609978	36	127
144.38090702947846	144.65954648526076	60	127
144.54344671201815	144.6014739229025	36	127
144.71759637188208	144.7756462585034	36	127
144.9033560090703	144.96138321995466	36	127
145.07750566893424	145.13555555555556	36	127
145.24004535147392	145.29809523809524	36	127
145.4025850340136	145.6812244897959	60	127
145.4025850340136	145.46063492063493	36	127
145.4025850340136	145.6812244897959	72	127
145.55351473922903	145.61156462585035	36	127
145.73927437641723	145.79732426303855	36	127
145.91342403628119	146.20367346938775	60	127
145.91342403628119	146.20367346938775	72	127
145.91342403628119	145.9714739229025	36	127
146.08755102040817	146.14562358276643	36	127
146.26172335600907	146.3197732426304	36	127
146.42426303854876	146.48231292517008	36	127
146.61002267573696	146.66807256235828	36	127
146.7841723356009	146.84222222222223	36	127
146.95832199546484	147.01637188208616	36	127
146.95832199546484	147.24857142857144	48	127
146.95832199546484	147.24857142857144	60	127
147.1324716553288	147.19052154195012	36	127
147.30662131519276	147.3646485260771	36	127
147.49238095238096	147.7709977324263	48	127
147.49238095238096	147.538820861678	36	127
147.49238095238096	147.7709977324263	60	127
147.65492063492064	147.71297052154196	36	127
147.81746031746033	147.87548752834468	36	127
147.99160997732426	148.04965986394558	36	127
148.14253968253968	148.15414965986395	36	127
148.28183673469388	148.33990929705215	36	127
148.4443990929705	148.50244897959183	36	127
148.4443990929705	148.7346485260771	48	127
148.4443990929705	148.7346485260771	60	127
148.61854875283447	148.6765986394558	36	127
148.79267573696146	148.85074829931972	36	127
148.9552380952381	148.9900680272109	36	127
148.9552380952381	149.2338775510204	48	127
148.9552380952381	149.2338775510204	60	127
149.11777777777777	149.1758276643991	36	127
149.29192743764173	149.34997732426305	36	127
149.46607709750566	149.52412698412698	36	127
149.64022675736962	149.69827664399094	36	127
149.8143537414966	149.87242630385487	36	127
150.00013605442177	150.03496598639455	41	127
150.00013605442177	150.26716553287983	48	127
150.00013605442177	150.26716553287983	60	127
150.1510657596372	150.2091156462585	41	127
150.32519274376418	150.38326530612244	41	127
150.49936507936508	151.02181405895692	41	127
150.49936507936508	151.02181405895692	71	127
150.49936507936508	151.02181405895692	74	127
150.49936507936508	151.02181405895692	81	127
151.02181405895692	151.56748299319727	72	127
151.02181405895692	151.56748299319727	76	127
151.02181405895692	151.56748299319727	79	127
151.02181405895692	151.56748299319727	40	127
151.56748299319727	152.08993197278912	51	127
151.56748299319727	152.08993197278912	69	127
151.56748299319727	152.08993197278912	72	127
151.56748299319727	152.08993197278912	78	127
151.56748299319727	152.08993197278912	39	127
152.08993197278912	152.5775283446712	68	127
152.08993197278912	152.5775283446712	72	127
152.08993197278912	152.5775283446712	77	127
152.08993197278912	152.5775283446712	38	127
152.08993197278912	152.5775283446712	50	127
152.5775283446712	152.9838775510204	65	127
152.5775283446712	152.9838775510204	43	127
152.5775283446712	152.9838775510204	71	127
152.5775283446712	152.9838775510204	74	127
153.05356009070294	153.320589569161	64	127
153.05356009070294	153.320589569161	72	127
153.05356009070294	153.20448979591836	36	127
153.20448979591836	153.36702947845805	36	127
153.37863945578232	153.541179138322	36	127
153.55278911564625	153.69210884353743	36	127
153.55278911564625	153.7965986394558	48	127
153.55278911564625	153.7965986394558	60	127
153.69210884353743	153.85462585034014	36	127
153.85462585034014	154.01718820861677	36	127
154.01718820861677	154.19133786848073	36	127
154.202947845805	154.34226757369615	36	127
154.35387755102042	154.52802721088435	36	127
154.52802721088435	154.7021768707483	36	127
154.52802721088435	154.7950566893424	48	127
154.52802721088435	154.7950566893424	60	127
154.7021768707483	154.84149659863945	36	127
154.84149659863945	155.0156462585034	36	127
155.0272335600907	155.31750566893425	60	127
155.0272335600907	155.31750566893425	48	127
155.0272335600907	155.18979591836734	36	127
155.2014058956916	155.37555555555556	36	127
155.37555555555556	155.5497052154195	36	127
155.5497052154195	155.72385487528345	36	127
155.72385487528345	155.89798185941044	36	127
155.90961451247165	156.07215419501134	36	127
156.0837641723356	156.2578911564626	41	127
156.2578911564626	156.42045351473922	41	127
156.42045351473922	156.5829931972789	41	127
156.5829931972789	157.11705215419502	41	127
156.5829931972789	157.11705215419502	62	127
156.5829931972789	157.11705215419502	69	127
156.5829931972789	157.11705215419502	59	127
157.11705215419502	157.6394784580499	60	127
157.11705215419502	157.6394784580499	64	127
157.11705215419502	157.6394784580499	40	127
157.11705215419502	157.6394784580499	67	127
157.6394784580499	158.13873015873017	39	127
157.6394784580499	158.13873015873017	57	127
157.6394784580499	158.13873015873017	60	127
157.6394784580499	158.13873015873017	66	127
158.13873015873017	158.67278911564625	60	127
158.13873015873017	158.67278911564625	38	127
158.13873015873017	158.67278911564625	56	127
158.13873015873017	158.67278911564625	65	127
158.67278911564625	159.14879818594105	59	127
158.67278911564625	159.14879818594105	62	127
158.67278911564625	159.14879818594105	31	127
158.67278911564625	159.14879818594105	43	127
158.67278911564625	159.14879818594105	53	127
159.1952380952381	159.47387755102042	58	127
159.1952380952381	159.47387755102042	36	127
159.1952380952381	159.47387755102042	46	127
159.1952380952381	159.47387755102042	48	127
159.1952380952381	161.6217006802721	60	127
159.6712471655329	159.90344671201814	36	127
159.6712471655329	159.90344671201814	46	127
159.6712471655329	159.90344671201814	48	127
159.6712471655329	159.90344671201814	58	127
160.68131519274377	160.94834467120182	36	127
160.68131519274377	160.94834467120182	46	127
160.68131519274377	160.94834467120182	48	127
160.68131519274377	160.94834467120182	58	127
161.18054421768707	161.4824036281179	46	127
161.18054421768707	161.4824036281179	48	127
161.18054421768707	161.4824036281179	58	127
161.18054421768707	161.4824036281179	36	127
162.2718820861678	162.56213151927437	36	127
162.2718820861678	162.56213151927437	46	127
162.2718820861678	162.56213151927437	48	127
162.2718820861678	162.56213151927437	58	127
162.78272108843538	163.01492063492063	36	127
162.78272108843538	163.01492063492063	46	127
162.78272108843538	163.01492063492063	48	127
162.78272108843538	163.01492063492063	58	127
163.69990929705216	163.9785260770975	48	127
163.69990929705216	163.9785260770975	57	127
163.69990929705216	163.9785260770975	36	127
163.69990929705216	163.9785260770975	45	127
164.21074829931973	164.51260770975057	36	127
164.21074829931973	164.51260770975057	44	127
164.21074829931973	164.51260770975057	48	127
164.21074829931973	164.51260770975057	56	127
164.73319727891158	165.18598639455783	62	127
164.73319727891158	165.18598639455783	65	127
164.73319727891158	165.18598639455783	68	127
164.73319727891158	165.18598639455783	71	127
165.24403628117915	165.53428571428572	43	127
165.24403628117915	165.53428571428572	48	127
165.24403628117915	165.53428571428572	55	127
165.24403628117915	165.59233560090703	64	127
165.24403628117915	165.59233560090703	67	127
165.24403628117915	165.59233560090703	72	127
165.59233560090703	165.77809523809523	74	127
165.59233560090703	165.77809523809523	67	127
165.77809523809523	166.07995464852607	42	127
165.77809523809523	166.07995464852607	48	127
165.77809523809523	166.07995464852607	54	127
165.77809523809523	166.32376417233561	75	127
165.77809523809523	166.32376417233561	72	127
166.32376417233561	166.7649433106576	69	127
166.32376417233561	166.7649433106576	72	127
166.32376417233561	166.7649433106576	78	127
166.82299319727892	167.13646258503402	71	127
166.82299319727892	167.13646258503402	74	127
166.82299319727892	167.13646258503402	67	127
166.82299319727892	167.13646258503402	79	127
166.82299319727892	167.13646258503402	41	127
166.82299319727892	167.13646258503402	48	127
166.82299319727892	167.13646258503402	53	127
167.94916099773243	168.239410430839	39	127
167.94916099773243	168.239410430839	51	127
167.94916099773243	168.239410430839	48	127
167.94916099773243	168.239410430839	66	127
167.94916099773243	168.239410430839	72	127
167.94916099773243	168.239410430839	78	127
168.901179138322	169.19140589569162	72	127
168.901179138322	169.19140589569162	65	127
168.901179138322	169.19140589569162	77	127
168.901179138322	169.19140589569162	36	127
168.901179138322	169.19140589569162	37	127
168.901179138322	169.19140589569162	49	127
169.91124716553287	170.22471655328798	36	127
169.91124716553287	170.22471655328798	48	127
169.91124716553287	170.22471655328798	64	127
169.91124716553287	170.22471655328798	72	127
169.91124716553287	170.22471655328798	76	127
170.46850340136055	171.46698412698413	72	127
170.46850340136055	171.46698412698413	80	127
170.46850340136055	171.46698412698413	54	127
170.46850340136055	171.46698412698413	60	127
170.46850340136055	171.46698412698413	63	127
170.46850340136055	171.46698412698413	68	127
170.46850340136055	171.46698412698413	75	127
171.46698412698413	171.78045351473924	79	127
171.46698412698413	171.78045351473924	55	127
171.46698412698413	171.78045351473924	67	127
171.46698412698413	171.78045351473924	60	127
171.46698412698413	171.78045351473924	64	127
171.46698412698413	171.78045351473924	76	127
172.02426303854875	173.10399092970522	69	127
172.02426303854875	173.10399092970522	75	127
172.02426303854875	173.10399092970522	81	127
172.02426303854875	173.10399092970522	54	127
172.02426303854875	173.10399092970522	60	127
172.02426303854875	173.10399092970522	63	127
172.02426303854875	173.10399092970522	72	127
173.10399092970522	173.4290702947846	79	127
173.10399092970522	173.4290702947846	67	127
173.10399092970522	173.4290702947846	76	127
173.10399092970522	173.4290702947846	55	127
173.10399092970522	173.4290702947846	64	127
173.6728798185941	174.82226757369614	42	127
173.6728798185941	174.82226757369614	56	127
173.6728798185941	174.82226757369614	60	127
173.6728798185941	174.82226757369614	63	127
173.6728798185941	174.82226757369614	68	127
173.6728798185941	174.82226757369614	36	127
174.82226757369614	175.1821768707483	43	127
174.82226757369614	175.1821768707483	55	127
174.82226757369614	175.1821768707483	64	127
174.82226757369614	175.1821768707483	67	127
174.82226757369614	175.1821768707483	36	127
175.37954648526076	176.43605442176872	60	127
175.37954648526076	176.43605442176872	57	127
175.37954648526076	176.43605442176872	63	127
175.37954648526076	176.43605442176872	69	127
175.37954648526076	176.43605442176872	36	127
175.37954648526076	176.43605442176872	42	127
176.55213151927438	176.81918367346938	55	127
176.55213151927438	176.81918367346938	64	127
176.55213151927438	176.81918367346938	67	127
176.55213151927438	176.81918367346938	36	127
176.55213151927438	176.81918367346938	43	127
177.71315192743765	178.09628117913832	55	127
177.71315192743765	178.09628117913832	60	127
177.71315192743765	178.09628117913832	36	127
177.71315192743765	178.09628117913832	43	127
177.71315192743765	178.09628117913832	64	127
178.71160997732426	179.0482993197279	43	127
178.71160997732426	179.0482993197279	52	127
178.71160997732426	179.0482993197279	60	127
178.71160997732426	179.0482993197279	36	127
180.69691609977323	180.78979591836736	32	127
180.78979591836736	180.9291156462585	44	127
180.9291156462585	181.0568253968254	48	127
181.0568253968254	181.17292517006803	51	127
181.17292517006803	181.28902494331066	56	127
181.28902494331066	181.40510204081633	60	127
181.40510204081633	181.53283446712018	63	127
181.53283446712018	181.64893424036282	65	127
181.64893424036282	181.79986394557824	63	127
181.79986394557824	181.89274376417234	60	127
181.89274376417234	182.0320634920635	61	127
182.0320634920635	182.14816326530612	60	127
182.14816326530612	182.28748299319727	63	127
182.28748299319727	182.4035827664399	65	127
182.4035827664399	182.51968253968255	63	127
182.51968253968255	182.62417233560092	60	127
182.62417233560092	182.78668934240363	61	127
182.78668934240363	182.91442176870748	60	127
182.91442176870748	183.01891156462585	66	127
183.01891156462585	183.1350113378685	68	127
183.1350113378685	183.27433106575964	66	127
183.27433106575964	183.378820861678	63	127
183.378820861678	183.51814058956916	65	127
183.51814058956916	183.65743764172336	63	127
183.65743764172336	183.7851700680272	66	127
183.7851700680272	183.93609977324263	68	127
183.93609977324263	184.05219954648527	66	127
184.06378684807257	184.16827664399094	65	127
184.16827664399094	184.30761904761906	66	127
184.30761904761906	184.43532879818594	65	127
184.43532879818594	184.58625850340135	67	127
184.58625850340135	184.73718820861677	65	127
184.73718820861677	184.87650793650795	67	127
184.87650793650795	184.96938775510205	68	127
184.96938775510205	185.06226757369615	67	127
185.06226757369615	185.2015873015873	68	127
185.2015873015873	185.3292970521542	70	127
185.3292970521542	185.44537414965987	72	127
185.44537414965987	185.54986394557824	74	127
185.54986394557824	185.66598639455782	75	127
185.66598639455782	185.80528344671202	74	127
185.80528344671202	185.94462585034015	75	127
185.94462585034015	186.0607029478458	77	127
186.0607029478458	186.18843537414966	75	127
186.18843537414966	186.35097505668935	77	127
186.35097505668935	186.4902947845805	39	127
186.35097505668935	186.5831746031746	79	127
186.4902947845805	186.59478458049887	46	127
186.59478458049887	186.66444444444446	67	127
186.59478458049887	186.66444444444446	55	127
186.66444444444446	186.79215419501134	70	127
186.66444444444446	186.79215419501134	58	127
186.79215419501134	186.93145124716554	63	127
186.79215419501134	186.93145124716554	75	127
186.93145124716554	187.07079365079366	79	127
186.93145124716554	187.07079365079366	67	127
187.07079365079366	187.22172335600908	82	127
187.07079365079366	187.22172335600908	70	127
187.22172335600908	187.33780045351475	84	127
187.22172335600908	187.33780045351475	72	127
187.33780045351475	187.4422902494331	70	127
187.33780045351475	187.4422902494331	82	127
187.4422902494331	187.61646258503401	67	127
187.4422902494331	187.61646258503401	79	127
187.61646258503401	187.6861224489796	68	127
187.61646258503401	187.6861224489796	80	127
187.6861224489796	187.84863945578232	79	127
187.6861224489796	187.84863945578232	67	127
187.84863945578232	187.97637188208617	82	127
187.84863945578232	187.97637188208617	70	127
187.97637188208617	188.11569160997732	72	127
187.97637188208617	188.11569160997732	84	127
188.11569160997732	188.20854875283447	70	127
188.11569160997732	188.20854875283447	82	127
188.20854875283447	188.3711111111111	67	127
188.20854875283447	188.3711111111111	79	127
188.3711111111111	188.48721088435374	80	127
188.3711111111111	188.48721088435374	68	127
188.48721088435374	188.63814058956916	79	127
188.48721088435374	188.63814058956916	67	127
188.63814058956916	188.7658276643991	85	127
188.63814058956916	188.7658276643991	73	127
188.7658276643991	188.87031746031747	87	127
188.7658276643991	188.87031746031747	75	127
188.87031746031747	188.99804988662132	85	127
188.87031746031747	188.99804988662132	73	127
188.99804988662132	189.13736961451247	82	127
188.99804988662132	189.13736961451247	70	127
189.13736961451247	189.26507936507937	72	127
189.13736961451247	189.26507936507937	84	127
189.26507936507937	189.42761904761906	82	127
189.26507936507937	189.42761904761906	70	127
189.42761904761906	189.52049886621316	85	127
189.42761904761906	189.52049886621316	73	127
189.52049886621316	189.601768707483	87	127
189.52049886621316	189.601768707483	75	127
189.601768707483	189.70625850340136	85	127
189.601768707483	189.70625850340136	73	127
189.71786848072563	189.86879818594105	84	127
189.71786848072563	189.86879818594105	72	127
189.86879818594105	190.03133786848073	85	127
189.86879818594105	190.03133786848073	73	127
190.03133786848073	190.20548752834466	84	127
190.03133786848073	190.20548752834466	72	127
190.20548752834466	190.33319727891157	86	127
190.20548752834466	190.33319727891157	74	127
190.33319727891157	190.484126984127	84	127
190.33319727891157	190.484126984127	72	127
190.484126984127	190.60022675736963	86	127
190.484126984127	190.60022675736963	74	127
190.60022675736963	190.704716553288	75	127
190.60022675736963	190.704716553288	87	127
190.704716553288	190.77437641723355	74	127
190.704716553288	190.77437641723355	86	127
190.77437641723355	190.9136961451247	87	127
190.77437641723355	190.9136961451247	75	127
190.9136961451247	191.05301587301588	89	127
190.9136961451247	191.05301587301588	77	127
191.05301587301588	191.1691156462585	91	127
191.05301587301588	191.1691156462585	79	127
191.1691156462585	191.2968253968254	93	127
191.1691156462585	191.2968253968254	81	127
191.2968253968254	191.40131519274377	82	127
191.2968253968254	191.40131519274377	94	127
191.40131519274377	191.55224489795918	93	127
191.40131519274377	191.55224489795918	81	127
191.55224489795918	191.62190476190477	94	127
191.55224489795918	191.62190476190477	82	127
191.62190476190477	191.74961451247165	91	127
191.62190476190477	191.74961451247165	79	127
191.74961451247165	191.8889342403628	89	127
191.74961451247165	191.8889342403628	77	127
191.8889342403628	192.03986394557822	91	127
191.8889342403628	192.03986394557822	79	127
192.03986394557822	192.1791836734694	92	127
192.1791836734694	192.28367346938776	80	127
192.295283446712	192.41138321995464	76	127
192.41138321995464	192.57392290249433	71	127
192.57392290249433	192.69002267573697	68	127
192.69002267573697	192.7480725623583	64	127
192.7480725623583	192.88739229024944	56	127
192.88739229024944	193.06154195011337	57	127
193.06154195011337	193.22408163265305	56	127
193.22408163265305	193.37501133786847	64	127
193.37501133786847	193.47950113378684	66	127
193.47950113378684	193.5607709750567	64	127
193.5607709750567	193.71170068027212	56	127
193.71170068027212	193.8742403628118	57	127
193.8742403628118	194.02517006802722	56	127
194.02517006802722	194.19931972789115	64	127
194.19931972789115	194.2457596371882	66	127
194.2457596371882	194.32702947845806	64	127
194.32702947845806	194.501179138322	52	127
194.501179138322	194.64049886621316	54	127
194.64049886621316	194.69854875283445	52	127
194.69854875283445	194.86108843537414	68	127
194.86108843537414	194.942358276644	69	127
194.942358276644	195.08167800453515	68	127
195.09328798185942	195.2558276643991	51	127
195.2558276643991	195.3487074829932	52	127
195.3487074829932	195.46480725623582	51	127
195.47641723356008	195.59251700680272	75	127
195.59251700680272	195.74344671201814	76	127
195.74344671201814	195.90598639455783	75	127
195.9175963718821	196.08013605442176	51	127
196.08013605442176	196.18462585034013	52	127
196.18462585034013	196.31233560090703	51	127
196.3239455782313	196.4400453514739	63	127
196.4400453514739	196.52131519274377	64	127
196.52131519274377	196.6722448979592	63	127
196.68385487528346	196.84639455782312	44	127
196.84639455782312	196.92766439909298	45	127
196.92766439909298	197.03215419501134	44	127
197.03215419501134	197.15986394557822	56	127
197.15986394557822	197.2295238095238	57	127
197.2295238095238	197.3572335600907	56	127
197.3572335600907	197.54299319727892	32	127
197.54299319727892	197.74036281179139	33	127
197.74036281179139	197.85646258503402	32	127
198.51823129251702	198.66916099773243	75	127
198.51823129251702	198.66916099773243	63	127
198.66916099773243	198.99424036281178	80	127
198.66916099773243	198.99424036281178	68	127
198.99424036281178	199.0871201814059	84	127
198.99424036281178	199.0871201814059	72	127
199.0871201814059	199.5282993197279	87	127
199.0871201814059	199.5282993197279	75	127
199.5282993197279	199.65600907029477	72	127
199.5282993197279	199.65600907029477	84	127
199.8649886621315	200.2713378684807	75	127
199.8649886621315	200.2713378684807	87	127
200.2713378684807	200.44548752834467	84	127
200.2713378684807	200.44548752834467	72	127
200.58480725623582	201.02598639455783	78	127
200.58480725623582	201.02598639455783	90	127
201.02598639455783	201.23496598639457	87	127
201.02598639455783	201.23496598639457	75	127
201.42072562358277	201.7225850340136	85	127
201.42072562358277	201.7225850340136	73	127
201.7225850340136	201.83868480725624	87	127
201.7225850340136	201.83868480725624	75	127
201.83868480725624	202.30308390022677	85	127
201.83868480725624	202.30308390022677	73	127
202.30308390022677	202.63977324263038	84	127
202.30308390022677	202.63977324263038	72	127
202.68621315192743	202.99968253968254	70	127
202.68621315192743	202.99968253968254	82	127
202.99968253968254	203.15061224489796	80	127
202.99968253968254	203.15061224489796	68	127
203.15061224489796	203.59179138321994	79	127
203.15061224489796	203.59179138321994	67	127
203.59179138321994	203.8356009070295	70	127
203.59179138321994	203.8356009070295	82	127
203.8936507936508	204.19551020408164	75	127
203.8936507936508	204.19551020408164	63	127
204.520589569161	204.6715192743764	46	127
204.520589569161	204.6715192743764	58	127
204.6715192743764	204.9849886621315	63	127
204.6715192743764	204.9849886621315	51	127
204.9849886621315	205.1475283446712	67	127
204.9849886621315	205.1475283446712	55	127
205.1475283446712	205.5306575963719	70	127
205.1475283446712	205.5306575963719	58	127
205.5306575963719	205.6467573696145	55	127
205.5306575963719	205.6467573696145	67	127
205.85573696145124	206.3085260770975	58	127
205.85573696145124	206.3085260770975	70	127
206.3085260770975	206.47106575963718	67	127
206.3085260770975	206.47106575963718	55	127
206.68004535147392	207.08639455782313	73	127
206.68004535147392	207.08639455782313	61	127
207.08639455782313	207.27215419501132	58	127
207.08639455782313	207.27215419501132	70	127
207.45791383219955	207.7597732426304	71	127
207.45791383219955	207.7597732426304	59	127
207.7597732426304	207.9107029478458	72	127
207.7597732426304	207.9107029478458	60	127
207.9107029478458	208.24739229024942	73	127
207.9107029478458	208.24739229024942	61	127
208.24739229024942	208.63052154195012	75	127
208.24739229024942	208.63052154195012	63	127
208.6653514739229	208.92077097505668	64	127
208.6653514739229	208.92077097505668	76	127
208.92077097505668	209.0717006802721	77	127
208.92077097505668	209.0717006802721	65	127
209.0717006802721	209.4780498866213	66	127
209.0717006802721	209.4780498866213	78	127
209.4780498866213	209.83795918367346	67	127
209.4780498866213	209.83795918367346	79	127
209.89600907029478	210.40684807256235	80	127
209.89600907029478	210.40684807256235	68	127
210.19786848072562	210.24430839002267	35	127
210.32557823129252	210.38362811791384	40	127
210.4881179138322	210.63904761904763	76	127
210.63904761904763	210.7667573696145	71	127
210.7667573696145	210.90607709750566	68	127
210.90607709750566	210.96412698412698	64	127
210.96412698412698	211.08022675736962	59	127
211.08022675736962	211.19632653061225	56	127
211.19632653061225	211.35886621315194	57	127
211.35886621315194	211.4981859410431	56	127
211.4981859410431	211.66072562358278	64	127
211.66072562358278	211.80004535147393	66	127
211.80004535147393	211.91614512471656	64	127
211.91614512471656	211.9974149659864	56	127
211.9974149659864	212.11351473922903	57	127
212.11351473922903	212.26444444444445	56	127
212.26444444444445	212.3805442176871	64	127
212.3805442176871	212.5314739229025	66	127
212.5314739229025	212.63596371882088	64	127
212.63596371882088	212.75206349206348	52	127
212.75206349206348	212.92621315192744	54	127
212.92621315192744	213.08875283446713	52	127
213.08875283446713	213.22807256235828	51	127
213.08875283446713	213.23968253968255	68	127
213.23968253968255	213.34417233560092	70	127
213.34417233560092	213.50671201814058	68	127
213.50671201814058	213.68086167800453	63	127
213.68086167800453	213.77374149659863	64	127
213.77374149659863	213.86662131519273	63	127
213.86662131519273	214.01755102040818	75	127
214.01755102040818	214.1336507936508	76	127
214.1336507936508	214.27297052154196	75	127
214.27297052154196	214.43551020408162	51	127
214.43551020408162	214.5748299319728	52	127
214.5748299319728	214.70253968253968	51	127
214.70253968253968	214.79541950113378	63	127
214.79541950113378	214.89990929705215	64	127
214.89990929705215	215.06244897959184	63	127
215.06244897959184	215.19015873015874	39	127
215.19015873015874	215.31786848072562	40	127
215.31786848072562	215.45718820861677	39	127
215.46879818594104	215.6081179138322	51	127
215.6081179138322	215.77065759637188	52	127
215.77065759637188	215.93319727891156	51	127
215.94480725623583	216.2118367346939	47	127
215.94480725623583	215.99124716553288	51	127
215.94480725623583	215.99124716553288	54	127
215.94480725623583	215.99124716553288	57	127
215.94480725623583	216.2118367346939	35	127
216.09573696145125	216.15378684807257	57	127
216.09573696145125	216.15378684807257	54	127
216.09573696145125	216.15378684807257	51	127
216.43242630385487	216.46725623582768	51	127
216.43242630385487	216.46725623582768	54	127
216.43242630385487	216.46725623582768	57	127
216.43242630385487	216.68784580498865	48	127
216.43242630385487	216.68784580498865	36	127
216.57174603174604	216.62979591836734	51	127
216.57174603174604	216.62979591836734	54	127
216.57174603174604	216.62979591836734	57	127
217.29156462585033	217.34961451247165	56	127
217.29156462585033	217.34961451247165	52	127
217.29156462585033	217.53537414965987	35	127
217.29156462585033	217.53537414965987	47	127
217.44249433106575	217.50054421768706	56	127
217.44249433106575	217.50054421768706	52	127
217.73274376417234	217.75596371882085	52	127
217.73274376417234	217.75596371882085	56	127
217.73274376417234	217.95333333333335	36	127
217.73274376417234	217.95333333333335	48	127
217.8372335600907	217.89528344671203	52	127
217.8372335600907	217.89528344671203	56	127
218.62671201814058	218.6847619047619	51	127
218.62671201814058	218.6847619047619	54	127
218.62671201814058	218.6847619047619	57	127
218.62671201814058	218.83569160997732	35	127
218.62671201814058	218.83569160997732	47	127
218.74281179138322	218.777641723356	51	127
218.74281179138322	218.777641723356	54	127
218.74281179138322	218.777641723356	57	127
219.05628117913832	219.11433106575964	51	127
219.05628117913832	219.11433106575964	54	127
219.05628117913832	219.11433106575964	57	127
219.05628117913832	219.33492063492062	36	127
219.05628117913832	219.33492063492062	48	127
219.218820861678	219.27687074829933	54	127
219.218820861678	219.27687074829933	51	127
219.218820861678	219.27687074829933	57	127
220.01990929705215	220.1940589569161	47	127
220.01990929705215	220.1940589569161	35	127
220.11278911564625	220.1360090702948	52	127
220.11278911564625	220.1360090702948	56	127
220.4146485260771	220.4726984126984	56	127
220.4146485260771	220.4726984126984	52	127
220.4146485260771	220.65845804988663	36	127
220.4146485260771	220.65845804988663	48	127
220.58879818594104	220.6352380952381	52	127
220.58879818594104	220.6352380952381	56	127
221.28539682539682	221.32022675736962	52	127
221.28539682539682	221.32022675736962	56	127
221.28539682539682	221.48276643990928	49	127
221.28539682539682	221.48276643990928	37	127
221.424716553288	221.47115646258504	52	127
221.424716553288	221.47115646258504	56	127
221.69174603174602	221.87750566893425	38	127
221.69174603174602	221.73818594104307	52	127
221.69174603174602	221.73818594104307	56	127
221.69174603174602	221.87750566893425	50	127
221.8310657596372	221.87750566893425	56	127
221.8310657596372	221.87750566893425	52	127
222.59732426303856	222.8295238095238	49	127
222.59732426303856	222.6437641723356	52	127
222.59732426303856	222.6437641723356	57	127
222.59732426303856	222.8295238095238	37	127
222.72503401360544	222.78308390022676	57	127
222.72503401360544	222.78308390022676	52	127
223.02689342403627	223.0849433106576	58	127
223.02689342403627	223.24748299319728	48	127
223.02689342403627	223.24748299319728	36	127
223.02689342403627	223.0849433106576	52	127
223.1778231292517	223.22426303854874	58	127
223.1778231292517	223.22426303854874	52	127
223.81637188208617	223.8744217687075	52	127
223.81637188208617	223.8744217687075	59	127
223.81637188208617	224.08340136054423	35	127
223.81637188208617	224.08340136054423	47	127
223.97891156462586	224.03696145124715	52	127
223.97891156462586	224.03696145124715	59	127
224.29238095238094	224.35043083900226	63	127
224.29238095238094	224.35043083900226	54	127
224.29238095238094	224.35043083900226	59	127
224.29238095238094	224.52458049886621	33	127
224.29238095238094	224.52458049886621	45	127
224.45492063492063	224.51297052154194	54	127
224.45492063492063	224.51297052154194	59	127
224.45492063492063	224.51297052154194	63	127
225.20956916099775	225.47659863945577	64	127
225.20956916099775	225.47659863945577	44	127
225.20956916099775	225.47659863945577	52	127
225.20956916099775	225.47659863945577	59	127
225.20956916099775	225.47659863945577	32	127
226.0687074829932	226.3473469387755	59	127
226.0687074829932	226.3473469387755	57	127
226.0687074829932	226.3473469387755	63	127
226.0687074829932	226.3473469387755	30	127
226.0687074829932	226.3473469387755	42	127
227.03233560090703	227.33419501133787	28	127
227.03233560090703	227.33419501133787	40	127
227.03233560090703	227.33419501133787	56	127
227.03233560090703	227.33419501133787	62	127
227.03233560090703	227.33419501133787	64	127
229.70263038548754	229.8651700680272	55	127
229.70263038548754	229.98126984126984	39	127
229.70263038548754	229.98126984126984	51	127
229.8651700680272	230.02770975056688	58	127
230.02770975056688	230.20185941043084	60	127
230.20185941043084	230.36439909297053	55	127
230.20185941043084	230.48049886621314	40	127
230.20185941043084	230.48049886621314	52	127
230.36439909297053	230.52693877551022	58	127
230.52693877551022	230.70108843537415	61	127
230.70108843537415	230.86362811791383	58	127
230.86362811791383	231.01455782312925	61	127
231.01455782312925	231.16548752834467	67	127
231.16548752834467	231.29319727891158	60	127
231.16548752834467	231.38607709750568	39	127
231.16548752834467	231.38607709750568	51	127
231.29319727891158	231.444126984127	63	127
231.444126984127	231.60666666666665	67	127
231.60666666666665	231.8504761904762	52	127
231.60666666666665	231.73437641723356	60	127
231.60666666666665	231.8504761904762	40	127
231.73437641723356	231.89691609977325	68	127
231.89691609977325	232.04784580498867	72	127
232.04784580498867	232.21038548752836	68	127
232.21038548752836	232.38453514739228	72	127
232.38453514739228	232.54707482993197	80	127
232.54707482993197	232.6631746031746	55	127
232.54707482993197	232.7560544217687	39	127
232.54707482993197	232.7560544217687	51	127
232.6631746031746	232.81410430839003	58	127
232.81410430839003	232.9418140589569	60	127
232.9418140589569	233.09274376417233	55	127
232.9418140589569	233.1972335600907	40	127
232.9418140589569	233.1972335600907	52	127
233.09274376417233	233.255283446712	58	127
233.255283446712	233.4178231292517	61	127
233.4178231292517	233.55714285714285	58	127
233.55714285714285	233.6384126984127	61	127
233.6384126984127	233.77773242630386	67	127
233.77773242630386	233.94027210884354	60	127
233.77773242630386	234.02154195011337	39	127
233.77773242630386	234.02154195011337	51	127
233.94027210884354	234.05637188208615	63	127
234.05637188208615	234.21891156462584	67	127
234.21891156462584	234.3930612244898	60	127
234.21891156462584	234.4859410430839	40	127
234.21891156462584	234.4859410430839	52	127
234.3930612244898	234.54399092970522	68	127
234.54399092970522	234.69492063492063	72	127
234.69492063492063	234.81102040816327	68	127
234.81102040816327	234.95034013605442	72	127
234.95034013605442	235.10126984126984	80	127
235.10126984126984	235.25219954648526	60	127
235.10126984126984	235.35668934240363	41	127
235.10126984126984	235.35668934240363	53	127
235.25219954648526	235.40312925170068	65	127
235.40312925170068	235.57727891156463	67	127
235.57727891156463	235.73981859410432	60	127
235.57727891156463	235.80947845804988	42	127
235.57727891156463	235.80947845804988	54	127
235.73981859410432	235.8675283446712	68	127
235.8675283446712	236.0300680272109	72	127
236.0300680272109	236.1809977324263	68	127
236.1809977324263	236.33192743764172	72	127
236.33192743764172	236.4944671201814	80	127
236.4944671201814	236.64539682539683	56	127
236.4944671201814	236.76149659863947	41	127
236.4944671201814	236.76149659863947	53	127
236.64539682539683	236.80793650793652	61	127
236.80793650793652	236.98208616780045	68	127
236.98208616780045	237.23750566893423	40	127
236.98208616780045	237.14462585034013	62	127
236.98208616780045	237.23750566893423	52	127
237.14462585034013	237.27233560090704	68	127
237.27233560090704	237.44648526077097	71	127
237.44648526077097	237.60902494331066	62	127
237.60902494331066	237.6902947845805	68	127
237.6902947845805	237.79478458049886	72	127
237.79478458049886	237.93410430839003	63	127
237.79478458049886	237.99215419501132	39	127
237.79478458049886	237.99215419501132	51	127
237.93410430839003	238.05020408163264	68	127
238.05020408163264	238.18952380952382	73	127
238.18952380952382	238.35206349206348	63	127
238.18952380952382	238.45655328798185	49	127
238.18952380952382	238.45655328798185	37	127
238.35206349206348	238.51460317460317	67	127
238.51460317460317	238.66553287981858	74	127
238.66553287981858	238.82807256235827	63	127
238.82807256235827	238.96739229024942	67	127
238.96739229024942	239.1067120181406	75	127
239.1067120181406	239.36213151927439	36	127
239.1067120181406	239.36213151927439	48	127
239.1067120181406	239.25764172335602	63	127
239.25764172335602	239.4201814058957	68	127
239.4201814058957	239.54789115646258	75	127
239.54789115646258	239.68721088435373	63	127
239.68721088435373	239.84975056689342	68	127
239.84975056689342	239.98907029478457	72	127
239.98907029478457	240.14	63	127
239.98907029478457	240.22126984126984	46	127
239.98907029478457	240.22126984126984	34	127
240.14	240.27931972789116	67	127
240.27931972789116	240.39541950113377	75	127
240.39541950113377	240.52312925170068	63	127
240.52312925170068	240.66244897959183	67	127
240.66244897959183	240.81337868480725	70	127
240.81337868480725	241.02235827664398	44	127
240.81337868480725	240.94108843537416	66	127
240.81337868480725	241.02235827664398	32	127
240.94108843537416	241.0804081632653	72	127
241.0804081632653	241.242947845805	75	127
241.242947845805	241.35904761904763	68	127
241.35904761904763	241.45192743764173	72	127
241.45192743764173	241.60285714285715	75	127
241.60285714285715	241.77700680272108	72	127
241.77700680272108	241.8931065759637	75	127
241.8931065759637	242.0556462585034	78	127
242.0556462585034	242.20657596371882	75	127
242.20657596371882	242.29945578231292	78	127
242.29945578231292	242.45038548752834	80	127
242.45038548752834	242.5897052154195	78	127
242.5897052154195	242.75224489795917	79	127
242.75224489795917	242.85673469387754	80	127
242.8683446712018	243.0308843537415	79	127
243.0308843537415	243.18181405895692	80	127
243.18181405895692	243.32113378684807	79	127
243.32113378684807	243.4372335600907	80	127
243.4372335600907	243.55333333333334	82	127
243.55333333333334	243.6926530612245	80	127
243.6926530612245	243.8435827664399	79	127
243.8435827664399	243.97129251700682	80	127
243.97129251700682	244.13383219954648	79	127
244.13383219954648	244.2499319727891	80	127
244.2499319727891	244.33120181405894	82	127
244.33120181405894	244.4821315192744	80	127
244.4821315192744	244.64467120181405	77	127
244.64467120181405	244.818820861678	78	127
244.818820861678	244.96975056689342	77	127
244.96975056689342	245.06263038548752	80	127
245.06263038548752	245.21356009070294	82	127
245.21356009070294	245.36448979591836	80	127
245.36448979591836	245.51541950113378	77	127
245.51541950113378	245.6663492063492	78	127
245.6663492063492	245.78244897959183	77	127
245.78244897959183	245.94498866213152	83	127
245.94498866213152	246.0726984126984	85	127
246.0726984126984	246.16557823129253	83	127
246.16557823129253	246.3281179138322	80	127
246.3281179138322	246.4790476190476	82	127
246.4790476190476	246.61836734693878	80	127
246.61836734693878	246.7692970521542	78	127
246.7692970521542	246.88539682539684	80	127
246.88539682539684	247.03632653061226	78	127
247.03632653061226	247.18725623582768	78	127
247.18725623582768	247.3381859410431	80	127
247.3381859410431	247.44267573696146	78	127
247.44267573696146	247.60521541950112	77	127
247.60521541950112	247.72131519274376	78	127
247.72131519274376	247.82580498866213	77	127
247.82580498866213	247.97673469387755	75	127
247.97673469387755	248.09283446712018	77	127
248.09283446712018	248.2669841269841	73	127
248.2669841269841	248.4295238095238	72	127
248.4295238095238	248.58045351473922	73	127
248.58045351473922	248.75460317460318	72	127
248.75460317460318	248.835873015873	75	127
248.835873015873	248.89392290249432	77	127
248.89392290249432	248.9984126984127	75	127
249.01002267573696	249.17256235827665	32	127
249.17256235827665	249.30027210884353	44	127
249.30027210884353	249.46281179138322	48	127
249.30027210884353	249.46281179138322	60	127
249.46281179138322	249.60213151927437	51	127
249.46281179138322	249.60213151927437	63	127
249.60213151927437	249.718231292517	68	127
249.60213151927437	249.718231292517	56	127
249.718231292517	249.85755102040815	60	127
249.718231292517	249.85755102040815	72	127
249.85755102040815	250.00848072562357	63	127
249.85755102040815	250.00848072562357	75	127
250.00848072562357	250.14780045351475	77	127
250.00848072562357	250.14780045351475	65	127
250.14780045351475	250.26390022675736	63	127
250.14780045351475	250.26390022675736	75	127
250.26390022675736	250.39160997732426	72	127
250.26390022675736	250.39160997732426	60	127
250.39160997732426	250.54253968253968	73	127
250.39160997732426	250.54253968253968	61	127
250.54253968253968	250.68185941043083	60	127
250.54253968253968	250.68185941043083	72	127
250.68185941043083	250.821179138322	63	127
250.68185941043083	250.821179138322	75	127
250.821179138322	250.92566893424035	65	127
250.821179138322	250.92566893424035	77	127
250.92566893424035	251.0765986394558	75	127
250.92566893424035	251.0765986394558	63	127
251.0765986394558	251.2275283446712	60	127
251.0765986394558	251.2275283446712	72	127
251.2275283446712	251.40167800453514	73	127
251.2275283446712	251.40167800453514	61	127
251.40167800453514	251.56421768707483	72	127
251.40167800453514	251.56421768707483	60	127
251.56421768707483	251.6687074829932	66	127
251.56421768707483	251.6687074829932	78	127
251.6687074829932	251.77319727891157	68	127
251.6687074829932	251.77319727891157	80	127
251.77319727891157	251.86607709750567	66	127
251.77319727891157	251.86607709750567	78	127
251.86607709750567	252.01700680272108	75	127
251.86607709750567	252.01700680272108	63	127
252.01700680272108	252.15632653061223	77	127
252.01700680272108	252.15632653061223	65	127
252.15632653061223	252.31886621315192	63	127
252.15632653061223	252.31886621315192	75	127
252.31886621315192	252.46979591836734	66	127
252.31886621315192	252.46979591836734	78	127
252.46979591836734	252.5742857142857	68	127
252.46979591836734	252.5742857142857	80	127
252.5742857142857	252.67877551020408	66	127
252.5742857142857	252.67877551020408	78	127
252.67877551020408	252.84131519274376	77	127
252.67877551020408	252.84131519274376	65	127
252.84131519274376	252.99224489795918	78	127
252.84131519274376	252.99224489795918	66	127
252.99224489795918	253.15478458049887	65	127
252.99224489795918	253.15478458049887	77	127
253.15478458049887	253.31732426303856	79	127
253.15478458049887	253.31732426303856	67	127
253.31732426303856	253.43342403628117	68	127
253.31732426303856	253.43342403628117	80	127
253.43342403628117	253.53791383219954	67	127
253.43342403628117	253.53791383219954	79	127
253.53791383219954	253.66562358276644	80	127
253.53791383219954	253.66562358276644	68	127
253.66562358276644	253.8049433106576	82	127
253.66562358276644	253.8049433106576	70	127
253.8049433106576	253.9326530612245	68	127
253.8049433106576	253.9326530612245	80	127
253.9326530612245	254.10680272108843	70	127
253.9326530612245	254.10680272108843	82	127
254.10680272108843	254.19968253968253	84	127
254.10680272108843	254.19968253968253	72	127
254.19968253968253	254.31578231292517	74	127
254.19968253968253	254.31578231292517	86	127
254.31578231292517	254.40866213151926	87	127
254.31578231292517	254.40866213151926	75	127
254.40866213151926	254.53637188208617	86	127
254.40866213151926	254.53637188208617	74	127
254.53637188208617	254.67569160997732	75	127
254.53637188208617	254.67569160997732	87	127
254.67569160997732	254.838231292517	84	127
254.67569160997732	254.838231292517	72	127
254.838231292517	254.9659410430839	82	127
254.838231292517	254.9659410430839	70	127
254.9659410430839	255.10526077097506	72	127
254.9659410430839	255.10526077097506	84	127
255.1168707482993	255.279410430839	85	127
255.279410430839	255.34907029478458	80	127
255.34907029478458	255.48839002267573	77	127
255.48839002267573	255.63931972789115	73	127
255.63931972789115	255.76702947845806	68	127
255.76702947845806	255.92956916099774	65	127
255.94117913832198	256.1037188208617	61	127
256.1037188208617	256.1965986394558	56	127
256.1965986394558	256.3475283446712	53	127
256.3475283446712	256.4752154195011	49	127
256.4752154195011	256.602947845805	61	127
256.602947845805	256.7654875283447	49	127
256.7654875283447	256.9048072562358	80	127
256.7654875283447	256.9048072562358	77	127
256.9048072562358	257.0325170068027	68	127
257.0325170068027	257.18344671201817	80	127
257.0325170068027	257.18344671201817	77	127
257.18344671201817	257.27632653061227	49	127
257.27632653061227	257.4040136054422	61	127
257.4040136054422	257.56657596371883	49	127
257.56657596371883	257.705873015873	77	127
257.56657596371883	257.705873015873	80	127
257.705873015873	257.84521541950113	68	127
257.84521541950113	258.00773242630385	80	127
257.84521541950113	258.00773242630385	77	127
258.00773242630385	258.10063492063495	44	127
258.10063492063495	258.2747845804989	56	127
258.2747845804989	258.4256916099773	44	127
258.4256916099773	258.5185714285714	75	127
258.4256916099773	258.5185714285714	83	127
258.5185714285714	258.65791383219954	71	127
258.65791383219954	258.82045351473926	83	127
258.65791383219954	258.82045351473926	75	127
258.82045351473926	258.9829931972789	40	127
258.9829931972789	259.1223129251701	52	127
259.1223129251701	259.15714285714284	40	127
259.15714285714284	259.28485260770975	80	127
259.15714285714284	259.28485260770975	83	127
259.28485260770975	259.4357823129252	71	127
259.4357823129252	259.59832199546486	80	127
259.4357823129252	259.59832199546486	83	127
259.59832199546486	259.7608616780045	40	127
259.7608616780045	259.8653514739229	52	127
259.8653514739229	259.9814512471655	40	127
259.9814512471655	260.1207709750567	80	127
259.9814512471655	260.1207709750567	83	127
260.1207709750567	260.2484807256236	71	127
260.2484807256236	260.3878004535147	83	127
260.2484807256236	260.3878004535147	80	127
260.3878004535147	260.5271201814059	35	127
260.5271201814059	260.60839002267574	47	127
260.60839002267574	260.7477097505669	35	127
260.7593197278912	260.91024943310657	78	127
260.7593197278912	260.91024943310657	86	127
260.91024943310657	261.04956916099775	74	127
261.04956916099775	261.09600907029477	78	127
261.04956916099775	261.09600907029477	86	127
261.10761904761904	261.2121088435374	31	127
261.2121088435374	261.36303854875285	43	127
261.36303854875285	261.49072562358276	31	127
261.502358276644	261.6648979591837	86	127
261.502358276644	261.6648979591837	83	127
261.6648979591837	261.82743764172335	74	127
261.82743764172335	261.9667573696145	83	127
261.82743764172335	261.9667573696145	86	127
261.9667573696145	262.0364172335601	43	127
262.0364172335601	262.1525170068027	55	127
262.1525170068027	262.26861678004536	43	127
262.26861678004536	262.431156462585	83	127
262.26861678004536	262.431156462585	86	127
262.431156462585	262.58208616780047	74	127
262.58208616780047	262.73301587301586	86	127
262.58208616780047	262.73301587301586	83	127
262.73301587301586	262.86072562358277	55	127
262.86072562358277	263.0232426303855	67	127
263.0232426303855	263.09292517006804	55	127
263.09292517006804	263.23224489795916	86	127
263.09292517006804	263.23224489795916	89	127
263.23224489795916	263.3831746031746	77	127
263.3831746031746	263.54571428571427	89	127
263.3831746031746	263.54571428571427	86	127
263.54571428571427	263.68503401360545	92	127
263.68503401360545	263.8243537414966	80	127
263.8243537414966	263.9868934240363	92	127
263.9868934240363	264.12621315192746	77	127
264.12621315192746	264.21909297052156	65	127
264.21909297052156	264.3235827664399	77	127
264.3235827664399	264.49773242630386	80	127
264.49773242630386	264.66024943310657	68	127
264.66024943310657	264.82281179138323	80	127
264.82281179138323	264.9621088435374	65	127
264.9621088435374	265.0201814058957	53	127
265.0201814058957	265.08984126984126	65	127
265.08984126984126	265.21755102040817	68	127
265.21755102040817	265.3800907029478	56	127
265.3800907029478	265.50780045351473	68	127
265.50780045351473	265.6471201814059	53	127
265.6471201814059	265.7864172335601	41	127
265.7864172335601	265.94897959183675	53	127
265.94897959183675	266.1115192743764	92	127
266.1115192743764	266.2392290249433	80	127
266.2392290249433	266.401768707483	92	127
266.401768707483	266.54108843537415	78	127
266.54108843537415	266.5875283446712	66	127
266.5875283446712	266.6804081632653	78	127
266.6804081632653	266.8313378684807	80	127
266.8313378684807	266.9590476190476	68	127
266.9590476190476	267.063537414966	80	127
267.07514739229026	267.21444444444444	66	127
267.21444444444444	267.35378684807256	54	127
267.35378684807256	267.504716553288	66	127
267.5163038548753	267.66725623582767	68	127
267.66725623582767	267.7833560090703	56	127
267.7833560090703	267.9226530612245	68	127
267.93426303854875	268.0039455782313	54	127
268.0039455782313	268.0619954648526	42	127
268.0619954648526	268.21292517006805	54	127
273.79732426303855	275.02798185941043	41	127
273.79732426303855	275.02798185941043	65	127
275.02798185941043	275.27179138322	63	127
275.02798185941043	275.27179138322	39	127
275.27179138322	276.0496598639456	38	127
275.27179138322	276.0496598639456	62	127
276.0496598639456	276.7694784580499	67	127
276.0496598639456	276.7694784580499	43	127
294.68367346938777	295.0435827664399	79	127
294.68367346938777	295.0435827664399	83	127
294.68367346938777	295.0435827664399	62	127
294.68367346938777	295.0435827664399	67	127
294.68367346938777	295.0435827664399	71	127
294.68367346938777	295.0435827664399	74	127
295.0435827664399	295.2061224489796	72	127
295.0435827664399	295.2061224489796	81	127
295.0435827664399	295.2061224489796	60	127
295.0435827664399	295.2061224489796	67	127
295.0435827664399	295.2061224489796	69	127
295.0435827664399	295.2061224489796	79	127
295.2061224489796	295.6705215419501	72	127
295.2061224489796	295.6705215419501	67	127
295.2061224489796	295.6705215419501	76	127
295.2061224489796	295.6705215419501	79	127
295.2061224489796	295.6705215419501	84	127
295.2061224489796	295.6705215419501	64	127
295.6705215419501	296.0884807256236	67	127
295.6705215419501	296.0884807256236	71	127
295.6705215419501	296.0884807256236	74	127
295.6705215419501	296.0884807256236	79	127
295.6705215419501	296.0884807256236	62	127
295.6705215419501	296.0884807256236	83	127
296.14650793650793	296.47160997732425	77	127
296.14650793650793	296.47160997732425	79	127
296.14650793650793	296.47160997732425	86	127
296.14650793650793	296.47160997732425	65	127
296.14650793650793	296.47160997732425	67	127
296.14650793650793	296.47160997732425	74	127
296.47160997732425	296.6689795918367	76	127
296.47160997732425	296.6689795918367	79	127
296.47160997732425	296.6689795918367	67	127
296.47160997732425	296.6689795918367	72	127
296.47160997732425	296.6689795918367	84	127
296.47160997732425	296.6689795918367	64	127
296.6689795918367	297.19142857142856	76	127
296.6689795918367	297.19142857142856	79	127
296.6689795918367	297.19142857142856	84	127
296.6689795918367	297.19142857142856	88	127
296.6689795918367	297.19142857142856	67	127
296.6689795918367	297.19142857142856	72	127
297.19142857142856	297.60938775510203	77	127
297.19142857142856	297.60938775510203	83	127
297.19142857142856	297.60938775510203	65	127
297.19142857142856	297.60938775510203	71	127
297.19142857142856	297.60938775510203	86	127
297.19142857142856	297.60938775510203	74	127
297.6326077097506	298.1202267573696	81	127
297.6326077097506	298.1202267573696	71	127
297.6326077097506	298.1202267573696	74	127
297.6326077097506	298.1202267573696	83	127
297.6326077097506	298.1202267573696	86	127
297.6326077097506	298.1202267573696	93	127
298.1202267573696	298.6310657596372	84	127
298.1202267573696	298.6310657596372	79	127
298.1202267573696	298.6310657596372	88	127
298.1202267573696	298.6310657596372	91	127
298.1202267573696	298.6310657596372	72	127
298.1202267573696	298.6310657596372	76	127
298.6310657596372	299.1651247165533	72	127
298.6310657596372	299.1651247165533	81	127
298.6310657596372	299.1651247165533	69	127
298.6310657596372	299.1651247165533	84	127
298.6310657596372	299.1651247165533	78	127
298.6310657596372	299.1651247165533	90	127
299.1651247165533	299.6295238095238	89	127
299.1651247165533	299.6295238095238	72	127
299.1651247165533	299.6295238095238	68	127
299.1651247165533	299.6295238095238	80	127
299.1651247165533	299.6295238095238	84	127
299.1651247165533	299.6295238095238	77	127
299.6295238095238	300.0823129251701	71	127
299.6295238095238	300.0823129251701	83	127
299.6295238095238	300.0823129251701	65	127
299.6295238095238	300.0823129251701	86	127
299.6295238095238	300.0823129251701	77	127
299.6295238095238	300.0823129251701	74	127
300.918231292517	301.0575283446712	75	127
300.918231292517	301.0575283446712	67	127
300.918231292517	301.0575283446712	55	127
300.918231292517	301.0575283446712	63	127
301.0575283446712	301.3942403628118	62	127
301.0575283446712	301.3942403628118	65	127
301.0575283446712	301.3942403628118	74	127
301.0575283446712	301.3942403628118	53	127
301.3942403628118	301.56836734693877	60	127
301.3942403628118	301.56836734693877	63	127
301.3942403628118	301.56836734693877	72	127
301.3942403628118	301.56836734693877	51	127
301.56836734693877	302.0560090702948	59	127
301.56836734693877	302.0560090702948	62	127
301.56836734693877	302.0560090702948	71	127
301.56836734693877	302.0560090702948	50	127
302.0560090702948	302.3346485260771	63	127
302.0560090702948	302.3346485260771	72	127
302.0560090702948	302.3346485260771	51	127
302.0560090702948	302.3346485260771	60	127
302.40430839002266	302.5668480725624	55	127
302.40430839002266	302.5668480725624	67	127
302.40430839002266	302.5668480725624	75	127
302.40430839002266	302.5668480725624	63	127
302.5668480725624	302.89190476190475	74	127
302.5668480725624	302.89190476190475	62	127
302.5668480725624	302.89190476190475	53	127
302.5668480725624	302.89190476190475	65	127
302.89190476190475	303.0544671201814	72	127
302.89190476190475	303.0544671201814	60	127
302.89190476190475	303.0544671201814	63	127
302.89190476190475	303.0544671201814	51	127
303.0544671201814	303.5536961451247	59	127
303.0544671201814	303.5536961451247	50	127
303.0544671201814	303.5536961451247	62	127
303.0544671201814	303.5536961451247	71	127
303.5536961451247	303.82072562358275	60	127
303.5536961451247	303.82072562358275	63	127
303.5536961451247	303.82072562358275	72	127
303.5536961451247	303.82072562358275	51	127
303.8787755102041	304.0645351473923	51	127
303.8787755102041	304.0645351473923	63	127
303.8787755102041	304.0645351473923	72	127
303.8787755102041	304.0645351473923	60	127
304.0645351473923	304.40122448979594	65	127
304.0645351473923	304.40122448979594	62	127
304.0645351473923	304.40122448979594	74	127
304.0645351473923	304.40122448979594	53	127
304.40122448979594	304.58698412698413	76	127
304.40122448979594	304.58698412698413	67	127
304.40122448979594	304.58698412698413	55	127
304.40122448979594	304.58698412698413	64	127
304.58698412698413	304.90045351473924	56	127
304.58698412698413	304.90045351473924	68	127
304.58698412698413	304.90045351473924	77	127
304.58698412698413	304.90045351473924	65	127
304.90045351473924	305.0397505668934	79	127
304.90045351473924	305.0397505668934	67	127
304.90045351473924	305.0397505668934	70	127
304.90045351473924	305.0397505668934	58	127
305.05138321995463	305.49256235827664	80	127
305.05138321995463	305.49256235827664	60	127
305.05138321995463	305.49256235827664	68	127
305.05138321995463	305.49256235827664	72	127
305.550589569161	305.8873015873016	70	127
305.550589569161	305.8873015873016	79	127
305.550589569161	305.8873015873016	67	127
305.550589569161	305.8873015873016	58	127
305.8873015873016	306.0498412698413	77	127
305.8873015873016	306.0498412698413	65	127
305.8873015873016	306.0498412698413	68	127
305.8873015873016	306.0498412698413	56	127
306.0498412698413	306.53746031746033	75	127
306.0498412698413	306.53746031746033	67	127
306.0498412698413	306.53746031746033	55	127
306.0498412698413	306.53746031746033	63	127
306.53746031746033	306.8160997732426	65	127
306.53746031746033	306.8160997732426	53	127
306.53746031746033	306.8160997732426	74	127
306.53746031746033	306.8160997732426	62	127
306.874126984127	307.02507936507936	75	127
306.874126984127	307.02507936507936	67	127
306.874126984127	307.02507936507936	63	127
306.874126984127	307.02507936507936	55	127
307.02507936507936	307.3965759637188	53	127
307.02507936507936	307.3965759637188	65	127
307.02507936507936	307.3965759637188	74	127
307.02507936507936	307.3965759637188	62	127
307.3965759637188	307.57074829931975	72	127
307.3965759637188	307.57074829931975	60	127
307.3965759637188	307.57074829931975	63	127
307.3965759637188	307.57074829931975	51	127
307.57074829931975	308.0583673469388	59	127
307.57074829931975	308.0583673469388	50	127
307.57074829931975	308.0583673469388	62	127
307.57074829931975	308.0583673469388	71	127
308.0583673469388	308.3370068027211	63	127
308.0583673469388	308.3370068027211	72	127
308.0583673469388	308.3370068027211	51	127
308.0583673469388	308.3370068027211	60	127
308.3950566893424	308.5808163265306	65	127
308.3950566893424	308.5808163265306	68	127
308.3950566893424	308.5808163265306	77	127
308.3950566893424	308.5808163265306	56	127
308.5808163265306	308.94072562358275	75	127
308.5808163265306	308.94072562358275	54	127
308.5808163265306	308.94072562358275	66	127
308.5808163265306	308.94072562358275	63	127
308.94072562358275	309.11487528344674	53	127
308.94072562358275	309.11487528344674	61	127
308.94072562358275	309.11487528344674	65	127
308.94072562358275	309.11487528344674	73	127
309.126462585034	309.4399319727891	61	127
309.126462585034	309.4399319727891	53	127
309.126462585034	309.4399319727891	73	127
309.126462585034	309.4399319727891	65	127
309.8462811791383	310.008843537415	56	127
309.8462811791383	310.008843537415	77	127
309.8462811791383	310.008843537415	65	127
309.8462811791383	310.008843537415	68	127
310.008843537415	310.3571201814059	63	127
310.008843537415	310.3571201814059	66	127
310.008843537415	310.3571201814059	75	127
310.008843537415	310.3571201814059	54	127
310.3571201814059	310.51968253968255	53	127
310.3571201814059	310.51968253968255	73	127
310.3571201814059	310.51968253968255	61	127
310.3571201814059	310.51968253968255	65	127
310.51968253968255	310.9956916099773	51	127
310.51968253968255	310.9956916099773	63	127
310.51968253968255	310.9956916099773	60	127
310.51968253968255	310.9956916099773	72	127
310.9956916099773	311.27430839002267	53	127
310.9956916099773	311.27430839002267	61	127
310.9956916099773	311.27430839002267	65	127
310.9956916099773	311.27430839002267	73	127
311.3556009070295	311.5413605442177	72	127
311.3556009070295	311.5413605442177	80	127
311.3556009070295	311.5413605442177	60	127
311.3556009070295	311.5413605442177	68	127
311.5413605442177	311.87804988662134	79	127
311.5413605442177	311.87804988662134	58	127
311.5413605442177	311.87804988662134	67	127
311.5413605442177	311.87804988662134	70	127
311.87804988662134	312.040589569161	78	127
311.87804988662134	312.040589569161	66	127
311.87804988662134	312.040589569161	69	127
311.87804988662134	312.040589569161	57	127
312.040589569161	312.50496598639455	66	127
312.040589569161	312.50496598639455	69	127
312.040589569161	312.50496598639455	78	127
312.040589569161	312.50496598639455	57	127
312.91131519274376	313.0738775510204	66	127
312.91131519274376	313.0738775510204	74	127
312.91131519274376	313.0738775510204	54	127
312.91131519274376	313.0738775510204	62	127
313.0738775510204	313.41056689342406	76	127
313.0738775510204	313.41056689342406	67	127
313.0738775510204	313.41056689342406	55	127
313.0738775510204	313.41056689342406	64	127
313.41056689342406	313.56149659863945	78	127
313.41056689342406	313.56149659863945	57	127
313.41056689342406	313.56149659863945	66	127
313.41056689342406	313.56149659863945	69	127
313.56149659863945	313.84013605442175	67	127
313.56149659863945	313.84013605442175	79	127
313.56149659863945	313.84013605442175	58	127
313.56149659863945	313.84013605442175	70	127
313.84013605442175	314.02589569161	81	127
313.84013605442175	314.02589569161	72	127
313.84013605442175	314.02589569161	60	127
313.84013605442175	314.02589569161	69	127
314.02589569161	314.5367346938776	73	127
314.02589569161	314.5367346938776	82	127
314.02589569161	314.5367346938776	70	127
314.02589569161	314.5367346938776	61	127
314.5367346938776	314.9430839002268	67	127
314.5367346938776	314.9430839002268	73	127
314.5367346938776	314.9430839002268	55	127
314.5367346938776	314.9430839002268	61	127
314.97791383219953	315.4074829931973	66	127
314.97791383219953	315.4074829931973	74	127
314.97791383219953	315.4074829931973	54	127
314.97791383219953	315.4074829931973	62	127
315.8486621315193	316.01120181405895	66	127
315.8486621315193	316.01120181405895	54	127
315.8486621315193	316.01120181405895	74	127
315.8486621315193	316.01120181405895	62	127
316.01120181405895	316.3362811791383	64	127
316.01120181405895	316.3362811791383	67	127
316.01120181405895	316.3362811791383	76	127
316.01120181405895	316.3362811791383	55	127
316.3362811791383	316.498820861678	69	127
316.3362811791383	316.498820861678	66	127
316.3362811791383	316.498820861678	78	127
316.3362811791383	316.498820861678	57	127
316.51043083900225	316.82390022675736	58	127
316.51043083900225	316.82390022675736	70	127
316.51043083900225	316.82390022675736	79	127
316.51043083900225	316.82390022675736	67	127
316.82390022675736	316.99802721088435	72	127
316.82390022675736	316.99802721088435	81	127
316.82390022675736	316.99802721088435	60	127
316.82390022675736	316.99802721088435	69	127
316.99802721088435	317.32312925170066	73	127
316.99802721088435	317.32312925170066	61	127
316.99802721088435	317.32312925170066	82	127
316.99802721088435	317.32312925170066	70	127
317.32312925170066	317.49727891156465	55	127
317.32312925170066	317.49727891156465	73	127
317.32312925170066	317.49727891156465	61	127
317.32312925170066	317.49727891156465	67	127
317.5088662131519	317.83396825396824	62	127
317.5088662131519	317.83396825396824	66	127
317.5088662131519	317.83396825396824	74	127
317.5088662131519	317.83396825396824	54	127
317.83396825396824	317.99650793650795	54	127
317.83396825396824	317.99650793650795	66	127
317.83396825396824	317.99650793650795	48	127
317.83396825396824	317.99650793650795	60	127
317.99650793650795	318.08938775510205	59	127
317.99650793650795	318.08938775510205	55	127
317.99650793650795	318.08938775510205	67	127
317.99650793650795	318.08938775510205	47	127
318.5189569160998	318.6002267573696	55	127
318.5189569160998	318.6002267573696	67	127
318.5189569160998	318.6002267573696	43	127
319.5522222222222	319.6102947845805	43	127
319.5522222222222	319.6102947845805	67	127
319.5522222222222	319.6102947845805	55	127
319.9818140589569	320.0630612244898	67	127
319.9818140589569	320.0630612244898	43	127
319.9818140589569	320.0630612244898	55	127
321.00349206349205	321.0615419501134	55	127
321.00349206349205	321.0615419501134	43	127
321.00349206349205	321.0615419501134	31	127
321.5026984126984	321.58399092970524	43	127
321.5026984126984	321.58399092970524	31	127
321.5026984126984	321.58399092970524	55	127
322.4315192743764	322.5127891156463	31	127
322.4315192743764	322.5127891156463	43	127
322.4315192743764	322.5127891156463	55	127
322.942358276644	323.0352154195011	43	127
322.942358276644	323.0352154195011	55	127
322.942358276644	323.0352154195011	31	127
324.5097052154195	325.0437641723356	79	127
324.5097052154195	325.0437641723356	85	127
324.5097052154195	325.0437641723356	73	127
324.5097052154195	325.0437641723356	67	127
324.5097052154195	325.0437641723356	64	127
324.5097052154195	325.0437641723356	76	127
325.0437641723356	325.53138321995465	84	127
325.0437641723356	325.53138321995465	68	127
325.0437641723356	325.53138321995465	72	127
325.0437641723356	325.53138321995465	65	127
325.0437641723356	325.53138321995465	77	127
325.0437641723356	325.53138321995465	80	127
325.53138321995465	326.07705215419503	83	127
325.53138321995465	326.07705215419503	65	127
325.53138321995465	326.07705215419503	71	127
325.53138321995465	326.07705215419503	77	127
325.53138321995465	326.07705215419503	62	127
325.53138321995465	326.07705215419503	74	127
326.07705215419503	326.61108843537414	77	127
326.07705215419503	326.61108843537414	61	127
326.07705215419503	326.61108843537414	70	127
326.07705215419503	326.61108843537414	82	127
326.07705215419503	326.61108843537414	65	127
326.07705215419503	326.61108843537414	73	127
326.61108843537414	327.07551020408164	72	127
326.61108843537414	327.07551020408164	79	127
326.61108843537414	327.07551020408164	64	127
326.61108843537414	327.07551020408164	60	127
326.61108843537414	327.07551020408164	76	127
326.61108843537414	327.07551020408164	67	127
327.13356009070293	327.3077097505669	49	127
327.13356009070293	327.3077097505669	41	127
327.3077097505669	327.48185941043084	53	127
327.48185941043084	327.6560090702948	56	127
327.66761904761904	327.841746031746	61	127
327.841746031746	328.0043083900227	59	127
328.0043083900227	328.1784580498866	60	127
328.1784580498866	328.3642176870748	56	127
328.3642176870748	328.51514739229026	53	127
328.51514739229026	328.6892970521542	49	127
328.6892970521542	328.8750566893424	40	127
328.6892970521542	328.8750566893424	48	127
328.8750566893424	329.0375963718821	52	127
329.0375963718821	329.20013605442176	55	127
329.20013605442176	329.3626757369615	61	127
329.3626757369615	329.52521541950114	59	127
329.52521541950114	329.71097505668934	60	127
329.71097505668934	329.8851020408163	55	127
329.8851020408163	330.05927437641725	52	127
330.05927437641725	330.2334240362812	48	127
330.24503401360545	330.4191836734694	49	127
330.24503401360545	330.4191836734694	41	127
330.4191836734694	330.5817233560091	53	127
330.5817233560091	330.74426303854875	56	127
330.74426303854875	330.90678004535147	63	127
330.90678004535147	331.09256235827667	60	127
331.09256235827667	331.27832199546486	61	127
331.27832199546486	331.47569160997733	56	127
331.47569160997733	331.638231292517	53	127
331.638231292517	331.78916099773244	49	127
331.78916099773244	331.97492063492064	40	127
331.78916099773244	331.97492063492064	48	127
331.97492063492064	332.14907029478456	52	127
332.14907029478456	332.3116099773243	55	127
332.3116099773243	332.46253968253967	61	127
332.46253968253967	332.63668934240366	59	127
332.63668934240366	332.8108390022676	60	127
332.82244897959185	333.00820861678005	55	127
333.00820861678005	333.182358276644	52	127
333.182358276644	333.35648526077097	48	127
333.35648526077097	333.6583673469388	41	127
333.35648526077097	333.5306575963719	56	127
333.5306575963719	333.7164172335601	60	127
333.7164172335601	333.890566893424	68	127
333.890566893424	334.05310657596374	58	127
333.890566893424	334.13437641723357	43	127
334.05310657596374	334.19242630385486	60	127
334.19242630385486	334.36657596371884	64	127
334.36657596371884	334.6568253968254	44	127
334.36657596371884	334.5407256235828	53	127
334.5407256235828	334.7148752834467	60	127
334.7148752834467	334.8890022675737	65	127
334.8890022675737	335.0631746031746	53	127
334.8890022675737	335.167664399093	46	127
335.0631746031746	335.2257142857143	61	127
335.2257142857143	335.4114739229025	65	127
335.4114739229025	335.58562358276646	53	127
335.58562358276646	335.7597732426304	61	127
335.7597732426304	335.9339229024943	65	127
335.9339229024943	336.3867120181406	46	127
335.9339229024943	336.3867120181406	34	127
335.9339229024943	336.1080725623583	53	127
336.1080725623583	336.28222222222223	62	127
336.28222222222223	336.4331292517007	65	127
336.4331292517007	337.42	35	127
336.4331292517007	337.42	47	127
336.4331292517007	336.59569160997734	56	127
336.59569160997734	336.76984126984127	62	127
336.76984126984127	336.94396825396825	65	127
336.94396825396825	337.15297052154193	62	127
337.15297052154193	337.3271201814059	65	127
337.3271201814059	337.5128798185941	68	127
337.5128798185941	337.9656462585034	47	127
337.5128798185941	337.9656462585034	35	127
337.5128798185941	337.68702947845804	56	127
337.68702947845804	337.8379591836735	62	127
337.8379591836735	338.0121088435374	65	127
338.0237188208617	338.1978684807256	55	127
338.0237188208617	338.3255782312925	36	127
338.0237188208617	338.3255782312925	48	127
338.1978684807256	338.3836281179138	64	127
338.3836281179138	338.5577777777778	67	127
338.5577777777778	338.72031746031746	76	127
338.72031746031746	338.90607709750566	79	127
338.90607709750566	339.010566893424	72	127
338.90607709750566	339.010566893424	84	127
339.010566893424	339.0570068027211	87	127
339.010566893424	339.0570068027211	75	127
339.0570068027211	339.23115646258503	85	127
339.0570068027211	339.23115646258503	73	127
339.3704761904762	339.5562358276644	72	127
339.3704761904762	339.5562358276644	84	127
339.5562358276644	340.4153514739229	85	127
339.5562358276644	339.7536054421769	49	127
339.5562358276644	340.4153514739229	73	127
339.5562358276644	339.7536054421769	41	127
339.7536054421769	339.9393650793651	53	127
339.9393650793651	340.11349206349206	61	127
339.9393650793651	340.11349206349206	56	127
340.11349206349206	340.35732426303855	65	127
340.4153514739229	340.6011337868481	84	127
340.4153514739229	340.6011337868481	72	127
340.6011337868481	340.89138321995466	56	127
340.6011337868481	340.775283446712	80	127
340.6011337868481	340.89138321995466	61	127
340.6011337868481	340.775283446712	68	127
340.94943310657595	341.1351700680272	82	127
340.94943310657595	341.1351700680272	70	127
341.1351700680272	341.62281179138324	67	127
341.1351700680272	341.3441723356009	48	127
341.1351700680272	341.62281179138324	79	127
341.1351700680272	341.3441723356009	40	127
341.3441723356009	341.52993197278914	52	127
341.52993197278914	341.66925170068026	55	127
341.52993197278914	341.66925170068026	60	127
341.66925170068026	341.90145124716554	64	127
341.9478684807256	342.08721088435374	72	127
341.9478684807256	342.08721088435374	84	127
342.08721088435374	342.12204081632655	87	127
342.12204081632655	342.3774603174603	55	127
342.12204081632655	342.2845804988662	73	127
342.12204081632655	342.3774603174603	60	127
342.12204081632655	342.2845804988662	85	127
342.43551020408165	342.6328798185941	84	127
342.43551020408165	342.6328798185941	72	127
342.6328798185941	343.43396825396826	75	127
342.6328798185941	342.80702947845805	49	127
342.6328798185941	343.43396825396826	87	127
342.6328798185941	342.80702947845805	41	127
342.80702947845805	342.9463492063492	53	127
342.9463492063492	343.1321088435374	61	127
342.9463492063492	343.1321088435374	56	127
343.1321088435374	343.3643083900227	65	127
343.43396825396826	343.6081179138322	73	127
343.43396825396826	343.6081179138322	85	127
343.6081179138322	343.909977324263	61	127
343.6081179138322	343.7822448979592	80	127
343.6081179138322	343.909977324263	56	127
343.6081179138322	343.7822448979592	68	127
343.9680272108844	344.1421768707483	82	127
343.9680272108844	344.1421768707483	70	127
344.1421768707483	344.304693877551	39	127
344.1421768707483	344.57174603174604	67	127
344.1421768707483	344.304693877551	49	127
344.1421768707483	344.57174603174604	79	127
344.304693877551	344.4672562358277	55	127
344.4672562358277	344.62979591836734	61	127
344.4672562358277	344.62979591836734	58	127
344.62979591836734	344.8968253968254	67	127
344.9548752834467	345.0825850340136	75	127
344.9548752834467	345.0825850340136	87	127
345.0825850340136	345.12902494331064	91	127
345.12902494331064	345.3031746031746	77	127
345.12902494331064	345.41925170068026	61	127
345.12902494331064	345.3031746031746	89	127
345.12902494331064	345.41925170068026	58	127
345.47732426303855	345.6514739229025	87	127
345.47732426303855	345.6514739229025	75	127
345.66308390022675	345.93009070294784	84	127
345.66308390022675	345.83721088435374	44	127
345.66308390022675	345.93009070294784	96	127
345.83721088435374	346.02299319727894	51	127
345.93009070294784	346.20875283446713	94	127
345.93009070294784	346.20875283446713	82	127
346.02299319727894	346.20875283446713	60	127
346.20875283446713	346.48739229024943	80	127
346.20875283446713	346.39451247165533	46	127
346.20875283446713	346.48739229024943	92	127
346.39451247165533	346.58027210884353	51	127
346.48739229024943	346.731201814059	79	127
346.48739229024943	346.731201814059	91	127
346.58027210884353	346.731201814059	61	127
346.731201814059	346.98662131519274	80	127
346.731201814059	346.89374149659864	48	127
346.731201814059	346.98662131519274	92	127
346.89374149659864	347.06789115646257	56	127
346.98662131519274	347.2304308390023	90	127
346.98662131519274	347.2304308390023	78	127
347.06789115646257	347.2304308390023	63	127
347.2304308390023	347.439410430839	49	127
347.2304308390023	347.4974603174603	76	127
347.2304308390023	347.4974603174603	88	127
347.439410430839	347.5903401360544	56	127
347.4974603174603	347.7877097505669	89	127
347.4974603174603	347.7877097505669	77	127
347.5903401360544	347.7877097505669	65	127
347.7877097505669	347.96185941043086	56	127
347.7877097505669	348.05473922902496	80	127
347.7877097505669	348.05473922902496	68	127
347.96185941043086	348.1360090702948	65	127
348.05473922902496	348.321768707483	70	127
348.05473922902496	348.321768707483	82	127
348.1360090702948	348.321768707483	56	127
348.33337868480726	349.12285714285713	83	127
348.33337868480726	349.12285714285713	71	127
348.33337868480726	348.51913832199546	50	127
348.51913832199546	348.6700680272109	56	127
348.6700680272109	348.83260770975056	65	127
348.83260770975056	349.02997732426303	49	127
349.02997732426303	349.2157369614512	58	127
349.12285714285713	349.3898866213152	70	127
349.12285714285713	349.3898866213152	82	127
349.2157369614512	349.3898866213152	66	127
349.3898866213152	349.62208616780043	85	127
349.3898866213152	349.62208616780043	73	127
349.3898866213152	349.52920634920633	58	127
349.52920634920633	349.7033560090703	66	127
349.62208616780043	349.8542857142857	82	127
349.62208616780043	349.8542857142857	70	127
349.7033560090703	349.8542857142857	58	127
349.8542857142857	350.0400453514739	50	127
349.8542857142857	350.13290249433106	68	127
349.8542857142857	350.13290249433106	80	127
350.0400453514739	350.22578231292516	56	127
350.13290249433106	350.37673469387755	82	127
350.13290249433106	350.37673469387755	70	127
350.22578231292516	350.37673469387755	65	127
350.37673469387755	350.5857142857143	83	127
350.37673469387755	350.4928344671202	49	127
350.37673469387755	350.5857142857143	71	127
350.4928344671202	350.6669841269841	58	127
350.5857142857143	350.8527437641723	70	127
350.5857142857143	350.8527437641723	82	127
350.6669841269841	350.8527437641723	66	127
350.8527437641723	351.09655328798186	90	127
350.8527437641723	351.01528344671203	58	127
350.8527437641723	351.09655328798186	78	127
351.01528344671203	351.18943310657596	66	127
351.09655328798186	351.3635827664399	82	127
351.09655328798186	351.3635827664399	70	127
351.18943310657596	351.3635827664399	58	127
351.3635827664399	351.5377324263039	50	127
351.3635827664399	351.64222222222224	68	127
351.3635827664399	351.64222222222224	80	127
351.5377324263039	351.73510204081634	56	127
351.64222222222224	351.9092517006803	71	127
351.64222222222224	351.9092517006803	83	127
351.73510204081634	351.9092517006803	65	127
351.9092517006803	352.73356009070295	84	127
351.9092517006803	352.09501133786847	48	127
351.9092517006803	352.73356009070295	72	127
352.09501133786847	352.2575510204082	56	127
352.2575510204082	352.4317006802721	65	127
352.4317006802721	352.5710204081633	56	127
352.5710204081633	352.73356009070295	65	127
352.73356009070295	352.9657596371882	72	127
352.73356009070295	352.9657596371882	80	127
352.73356009070295	352.9657596371882	56	127
352.9657596371882	353.13990929705216	73	127
352.9657596371882	353.13990929705216	48	127
352.9657596371882	353.13990929705216	82	127
353.13990929705216	353.3140589569161	55	127
353.3140589569161	353.4765986394558	70	127
353.3140589569161	353.4765986394558	64	127
353.3140589569161	353.4765986394558	79	127
353.4765986394558	353.76684807256237	65	127
353.4765986394558	353.76684807256237	53	127
353.4765986394558	353.76684807256237	68	127
353.4765986394558	353.76684807256237	56	127
353.4765986394558	353.76684807256237	77	127
355.82181405895693	356.0191836734694	48	127
355.82181405895693	356.0191836734694	80	127
355.82181405895693	356.0191836734694	72	127
355.82181405895693	356.0191836734694	56	127
356.0191836734694	356.30943310657597	79	127
356.0191836734694	356.30943310657597	55	127
356.0191836734694	356.30943310657597	70	127
356.0191836734694	356.30943310657597	46	127
356.30943310657597	356.4835827664399	68	127
356.30943310657597	356.4835827664399	77	127
356.30943310657597	356.4835827664399	53	127
356.30943310657597	356.4835827664399	44	127
356.4835827664399	356.90154195011337	43	127
356.4835827664399	356.90154195011337	67	127
356.4835827664399	356.90154195011337	76	127
356.4835827664399	356.90154195011337	52	127
356.4835827664399	356.90154195011337	41	127
356.90154195011337	357.1801587301587	77	127
356.90154195011337	357.1801587301587	68	127
356.90154195011337	357.1801587301587	53	127
356.90154195011337	357.1801587301587	44	127
358.80557823129254	358.9797278911565	61	127
358.80557823129254	358.9797278911565	77	127
358.80557823129254	358.9797278911565	85	127
358.80557823129254	358.9797278911565	53	127
358.9797278911565	359.3280045351474	58	127
358.9797278911565	359.3280045351474	73	127
358.9797278911565	359.3280045351474	82	127
358.9797278911565	359.3280045351474	49	127
359.3280045351474	359.4673469387755	79	127
359.3280045351474	359.4673469387755	46	127
359.3280045351474	359.4673469387755	55	127
359.3280045351474	359.4673469387755	70	127
359.4673469387755	359.9433333333333	53	127
359.4673469387755	359.9433333333333	48	127
359.4673469387755	359.9433333333333	77	127
359.4673469387755	359.9433333333333	56	127
359.4673469387755	359.9433333333333	68	127
359.9433333333333	360.2336054421769	55	127
359.9433333333333	360.2336054421769	76	127
359.9433333333333	360.2336054421769	67	127
359.9433333333333	360.2336054421769	52	127
361.8357823129252	362.0099319727891	58	127
361.8357823129252	362.0099319727891	82	127
361.8357823129252	362.0099319727891	73	127
361.8357823129252	362.0099319727891	49	127
362.0099319727891	362.3350113378685	71	127
362.0099319727891	362.3350113378685	80	127
362.0099319727891	362.3350113378685	56	127
362.0099319727891	362.3350113378685	47	127
362.3350113378685	362.47433106575966	54	127
362.3350113378685	362.47433106575966	78	127
362.3350113378685	362.47433106575966	70	127
362.3350113378685	362.47433106575966	46	127
362.47433106575966	362.84585034013605	70	127
362.47433106575966	362.84585034013605	54	127
362.47433106575966	362.84585034013605	42	127
362.47433106575966	362.84585034013605	46	127
362.47433106575966	362.84585034013605	78	127
364.88920634920635	365.0633560090703	53	127
364.88920634920635	365.0633560090703	61	127
364.88920634920635	365.0633560090703	85	127
364.88920634920635	365.0633560090703	77	127
365.0633560090703	365.4000453514739	60	127
365.0633560090703	365.4000453514739	51	127
365.0633560090703	365.4000453514739	84	127
365.0633560090703	365.4000453514739	75	127
365.4000453514739	365.4697052154195	59	127
365.4000453514739	365.4697052154195	83	127
365.4000453514739	365.4697052154195	74	127
365.4000453514739	365.4697052154195	50	127
365.4697052154195	365.92249433106576	83	127
365.4697052154195	365.92249433106576	59	127
365.4697052154195	365.92249433106576	43	127
365.4697052154195	365.92249433106576	74	127
365.4697052154195	365.92249433106576	50	127
369.38226757369614	369.54478458049886	67	127
369.38226757369614	369.54478458049886	59	127
369.38226757369614	369.54478458049886	79	127
369.38226757369614	369.54478458049886	71	127
369.54478458049886	369.88149659863944	69	127
369.54478458049886	369.88149659863944	60	127
369.54478458049886	369.88149659863944	72	127
369.54478458049886	369.88149659863944	81	127
369.88149659863944	370.05564625850343	71	127
369.88149659863944	370.05564625850343	83	127
369.88149659863944	370.05564625850343	74	127
369.88149659863944	370.05564625850343	62	127
370.05564625850343	370.4039455782313	84	127
370.05564625850343	370.4039455782313	75	127
370.05564625850343	370.4039455782313	72	127
370.05564625850343	370.4039455782313	63	127
370.4039455782313	370.55487528344673	65	127
370.4039455782313	370.55487528344673	77	127
370.4039455782313	370.55487528344673	74	127
370.4039455782313	370.55487528344673	86	127
370.55487528344673	371.0657142857143	78	127
370.55487528344673	371.0657142857143	87	127
370.55487528344673	371.0657142857143	75	127
370.55487528344673	371.0657142857143	66	127
371.0657142857143	372.33120181405894	72	127
371.0657142857143	372.33120181405894	66	127
371.0657142857143	372.33120181405894	60	127
371.0657142857143	372.33120181405894	78	127
375.2801133786848	375.45428571428573	80	127
375.2801133786848	375.45428571428573	60	127
375.2801133786848	375.45428571428573	68	127
375.2801133786848	375.45428571428573	72	127
375.45428571428573	375.7793650793651	82	127
375.45428571428573	375.7793650793651	73	127
375.45428571428573	375.7793650793651	70	127
375.45428571428573	375.7793650793651	61	127
375.7793650793651	375.95351473922904	72	127
375.7793650793651	375.95351473922904	84	127
375.7793650793651	375.95351473922904	63	127
375.7793650793651	375.95351473922904	75	127
375.9651247165533	376.30179138321995	73	127
375.9651247165533	376.30179138321995	76	127
375.9651247165533	376.30179138321995	64	127
375.9651247165533	376.30179138321995	85	127
376.30179138321995	376.4643537414966	66	127
376.30179138321995	376.4643537414966	75	127
376.30179138321995	376.4643537414966	87	127
376.30179138321995	376.4643537414966	78	127
376.4643537414966	376.98680272108845	88	127
376.4643537414966	376.98680272108845	67	127
376.4643537414966	376.98680272108845	79	127
376.4643537414966	376.98680272108845	76	127
376.98680272108845	378.26390022675736	61	127
376.98680272108845	378.26390022675736	79	127
376.98680272108845	378.26390022675736	73	127
376.98680272108845	378.26390022675736	67	127
379.7615873015873	379.9125170068027	69	127
379.7615873015873	379.9125170068027	81	127
379.9125170068027	380.2027664399093	80	127
379.9125170068027	380.2027664399093	68	127
379.9125170068027	380.2027664399093	83	127
379.9125170068027	380.2027664399093	71	127
380.24920634920636	380.411746031746	67	127
380.24920634920636	380.411746031746	73	127
380.24920634920636	380.411746031746	85	127
380.24920634920636	380.411746031746	79	127
380.411746031746	380.62072562358276	74	127
380.411746031746	380.62072562358276	86	127
380.411746031746	380.62072562358276	65	127
380.411746031746	380.62072562358276	77	127
380.6787755102041	380.8645351473923	73	127
380.6787755102041	380.8645351473923	85	127
380.6787755102041	380.8645351473923	64	127
380.6787755102041	380.8645351473923	88	127
380.6787755102041	380.8645351473923	76	127
380.8761451247166	381.30571428571426	86	127
380.8761451247166	381.30571428571426	74	127
380.8761451247166	381.30571428571426	89	127
380.8761451247166	381.30571428571426	62	127
380.8761451247166	381.30571428571426	77	127
381.3637641723356	381.8281632653061	86	127
381.3637641723356	381.8281632653061	62	127
381.3637641723356	381.8281632653061	60	127
381.3637641723356	381.8281632653061	72	127
381.3637641723356	381.8281632653061	90	127
381.3637641723356	381.8281632653061	78	127
381.88621315192745	382.1880725623583	79	127
381.88621315192745	382.1880725623583	91	127
381.88621315192745	382.1880725623583	62	127
381.88621315192745	382.1880725623583	71	127
381.88621315192745	382.1880725623583	59	127
381.88621315192745	382.1880725623583	86	127
382.397052154195	382.6756916099773	92	127
382.397052154195	382.6756916099773	80	127
382.397052154195	382.6756916099773	62	127
382.397052154195	382.6756916099773	86	127
382.397052154195	382.6756916099773	83	127
382.397052154195	382.6756916099773	65	127
382.397052154195	382.6756916099773	56	127
382.397052154195	382.6756916099773	53	127
382.397052154195	382.6756916099773	59	127
383.83668934240364	384.1037188208617	68	127
383.83668934240364	384.1037188208617	80	127
383.83668934240364	384.1037188208617	62	127
383.83668934240364	384.1037188208617	65	127
383.83668934240364	384.1037188208617	71	127
383.83668934240364	384.1037188208617	74	127
383.83668934240364	384.1037188208617	53	127
383.83668934240364	384.1037188208617	59	127
383.83668934240364	384.1037188208617	56	127
385.36920634920637	385.6246258503401	51	127
385.36920634920637	385.6246258503401	71	127
385.36920634920637	385.6246258503401	63	127
385.36920634920637	385.6246258503401	80	127
385.36920634920637	385.6246258503401	68	127
385.36920634920637	385.6246258503401	59	127
385.36920634920637	385.6246258503401	75	127
385.36920634920637	385.6246258503401	56	127
386.92494331065757	387.2384126984127	80	127
386.92494331065757	387.2384126984127	71	127
386.92494331065757	387.2384126984127	62	127
386.92494331065757	387.2384126984127	53	127
386.92494331065757	387.2384126984127	50	127
386.92494331065757	387.2384126984127	59	127
386.92494331065757	387.2384126984127	77	127
386.92494331065757	387.2384126984127	68	127
387.47061224489795	387.78408163265306	75	127
387.47061224489795	387.78408163265306	51	127
387.47061224489795	387.78408163265306	79	127
387.47061224489795	387.78408163265306	63	127
387.47061224489795	387.78408163265306	67	127
387.47061224489795	387.78408163265306	60	127
387.47061224489795	387.78408163265306	55	127
387.47061224489795	387.78408163265306	72	127
388.01628117913833	388.19043083900226	35	127
388.01628117913833	388.19043083900226	47	127
388.19043083900226	388.3645804988662	50	127
388.3645804988662	388.5387301587302	55	127
388.55034013605444	388.7244897959184	68	127
388.7244897959184	388.8986394557823	66	127
388.8986394557823	389.07278911564623	67	127
389.07278911564623	389.2469387755102	62	127
389.2469387755102	389.3978684807256	59	127
389.3978684807256	389.5604081632653	55	127
389.5604081632653	389.73455782312925	36	127
389.5604081632653	389.73455782312925	48	127
389.73455782312925	389.9087074829932	51	127
389.9087074829932	390.0712471655329	56	127
390.0712471655329	390.2570068027211	70	127
390.2570068027211	390.431156462585	67	127
390.431156462585	390.605306122449	68	127
390.605306122449	390.76784580498867	63	127
390.76784580498867	390.9303854875283	60	127
390.9303854875283	391.1161451247166	56	127
391.1277551020408	391.3019047619048	47	127
391.1277551020408	391.3019047619048	35	127
391.3019047619048	391.4760544217687	50	127
391.4760544217687	391.63859410430837	55	127
391.63859410430837	391.8011337868481	68	127
391.8011337868481	391.96367346938774	66	127
391.96367346938774	392.13782312925173	67	127
392.13782312925173	392.31197278911566	62	127
392.31197278911566	392.4861224489796	59	127
392.4861224489796	392.6718820861678	55	127
392.6718820861678	392.93891156462587	36	127
392.6718820861678	392.857641723356	63	127
392.857641723356	393.03179138321997	67	127
392.93891156462587	393.2059410430839	48	127
393.03179138321997	393.2059410430839	75	127
393.2059410430839	393.4845804988662	38	127
393.2059410430839	393.3917006802721	65	127
393.3917006802721	393.5658503401361	67	127
393.4845804988662	393.72839002267574	50	127
393.5658503401361	393.74	71	127
393.74	393.91414965986394	60	127
393.74	393.99541950113377	39	127
393.91414965986394	394.08829931972787	67	127
393.99541950113377	394.26244897959185	51	127
394.08829931972787	394.26244897959185	72	127
394.26244897959185	394.4249886621315	60	127
394.26244897959185	394.5178684807256	41	127
394.4249886621315	394.6107482993197	65	127
394.5178684807256	394.7848979591837	53	127
394.6107482993197	394.7848979591837	68	127
394.7848979591837	394.9590476190476	56	127
394.7848979591837	395.0287074829932	41	127
394.9590476190476	395.0983673469388	60	127
395.0287074829932	395.26090702947846	53	127
395.0983673469388	395.26090702947846	68	127
395.26090702947846	395.44666666666666	57	127
395.26090702947846	395.5279365079365	41	127
395.44666666666666	395.6208163265306	60	127
395.5279365079365	395.7833560090703	53	127
395.6208163265306	395.7833560090703	69	127
395.7833560090703	395.9342857142857	57	127
395.7833560090703	396.0271655328798	42	127
395.9342857142857	396.0968253968254	60	127
396.0271655328798	396.27097505668934	54	127
396.0968253968254	396.2825850340136	69	127
396.2825850340136	396.4799546485261	57	127
396.4799546485261	396.64249433106573	60	127
396.64249433106573	396.8166439909297	69	127
396.8166439909297	396.9791836734694	60	127
396.8166439909297	397.0720634920635	30	127
396.9791836734694	397.1417233560091	63	127
397.0720634920635	397.315873015873	42	127
397.1417233560091	397.315873015873	69	127
397.315873015873	397.6409523809524	31	127
397.315873015873	397.49002267573695	59	127
397.49002267573695	397.72222222222223	62	127
397.6409523809524	397.89637188208616	43	127
397.72222222222223	397.89637188208616	67	127
397.89637188208616	398.0705215419501	71	127
398.0705215419501	398.2330612244898	74	127
398.2330612244898	398.3607709750567	67	127
398.2330612244898	398.3607709750567	79	127
398.3607709750567	398.418820861678	71	127
398.3607709750567	398.418820861678	83	127
398.418820861678	398.59297052154193	69	127
398.418820861678	398.59297052154193	81	127
398.7671201814059	398.9644897959184	79	127
398.7671201814059	398.9644897959184	67	127
398.9644897959184	399.8236281179138	69	127
398.9644897959184	399.8236281179138	81	127
399.8352380952381	400.00938775510207	79	127
399.8352380952381	400.00938775510207	67	127
400.00938775510207	400.183537414966	59	127
400.00938775510207	400.183537414966	71	127
400.34607709750566	400.5086167800454	72	127
400.34607709750566	400.5086167800454	60	127
400.5086167800454	400.7756462585034	74	127
400.5086167800454	400.7756462585034	62	127
401.34453514739226	401.4722448979592	67	127
401.34453514739226	401.4722448979592	79	127
401.4722448979592	401.51868480725625	71	127
401.4722448979592	401.51868480725625	83	127
401.51868480725625	401.6928344671202	69	127
401.51868480725625	401.6928344671202	81	127
401.8785941043084	402.05274376417236	67	127
401.8785941043084	402.05274376417236	79	127
402.05274376417236	402.93510204081633	70	127
402.05274376417236	402.93510204081633	82	127
402.93510204081633	403.10925170068026	81	127
402.93510204081633	403.10925170068026	69	127
403.10925170068026	403.29501133786846	59	127
403.10925170068026	403.29501133786846	71	127
403.46916099773244	403.62009070294783	60	127
403.46916099773244	403.62009070294783	72	127
403.62009070294783	403.8639002267574	62	127
403.62009070294783	403.8639002267574	74	127
404.43278911564624	404.5721088435374	79	127
404.43278911564624	404.5721088435374	67	127
404.5721088435374	404.61854875283444	83	127
404.5721088435374	404.61854875283444	71	127
404.61854875283444	404.8043083900227	69	127
404.61854875283444	404.8043083900227	81	127
404.9900680272109	405.1758276643991	79	127
404.9900680272109	405.1758276643991	67	127
405.1758276643991	405.349977324263	48	127
405.1758276643991	405.4428571428571	88	127
405.1758276643991	405.4428571428571	76	127
405.349977324263	405.5357369614512	55	127
405.4428571428571	405.7098866213152	86	127
405.4428571428571	405.7098866213152	74	127
405.5357369614512	405.7098866213152	64	127
405.7098866213152	405.9420861678004	84	127
405.7098866213152	405.9420861678004	72	127
405.7098866213152	405.8608163265306	50	127
405.8608163265306	406.0349659863946	55	127
405.9420861678004	406.2091156462585	83	127
405.9420861678004	406.2091156462585	71	127
406.0349659863946	406.2091156462585	65	127
406.2091156462585	406.38326530612244	52	127
406.2091156462585	406.4877551020408	84	127
406.2091156462585	406.4877551020408	72	127
406.38326530612244	406.56902494331064	60	127
406.4877551020408	406.7431746031746	70	127
406.4877551020408	406.7431746031746	82	127
406.56902494331064	406.7431746031746	67	127
406.7547845804989	407.04503401360546	68	127
406.7547845804989	407.04503401360546	80	127
406.7547845804989	407.4049433106576	53	127
406.9637641723356	407.13791383219956	60	127
407.04503401360546	407.3120634920635	81	127
407.04503401360546	407.3120634920635	69	127
407.13791383219956	407.3120634920635	65	127
407.3120634920635	407.4862131519274	60	127
407.3120634920635	407.5790929705215	72	127
407.4862131519274	407.67197278911567	65	127
407.5790929705215	407.83451247165533	74	127
407.67197278911567	407.83451247165533	60	127
407.83451247165533	408.61238095238093	75	127
407.83451247165533	408.27569160997734	69	127
407.83451247165533	408.33374149659863	54	127
407.997052154195	408.171201814059	60	127
408.171201814059	408.33374149659863	63	127
408.33374149659863	408.61238095238093	70	127
408.33374149659863	408.96068027210885	53	127
408.5311111111111	408.70526077097503	58	127
408.61238095238093	408.879410430839	74	127
408.70526077097503	408.879410430839	62	127
408.879410430839	409.1580498866213	77	127
408.879410430839	409.0419501133787	58	127
409.0419501133787	409.23931972789114	62	127
409.1580498866213	409.42507936507934	74	127
409.23931972789114	409.41346938775513	58	127
409.42507936507934	409.95913832199545	54	127
409.42507936507934	409.6688888888889	72	127
409.42507936507934	409.95913832199545	69	127
409.58761904761906	409.7849886621315	60	127
409.6688888888889	409.95913832199545	74	127
409.7849886621315	409.95913832199545	63	127
409.95913832199545	410.21455782312927	75	127
409.95913832199545	410.21455782312927	70	127
409.95913832199545	410.5744671201814	53	127
410.1332879818594	410.31904761904764	58	127
410.21455782312927	410.49319727891157	74	127
410.31904761904764	410.49319727891157	62	127
410.49319727891157	410.7602267573696	82	127
410.49319727891157	410.6673469387755	58	127
410.6673469387755	410.8531065759637	62	127
410.7602267573696	411.0156462585034	74	127
410.8531065759637	411.0156462585034	58	127
411.0156462585034	412.09537414965985	54	127
411.0156462585034	412.03732426303856	69	127
411.0156462585034	411.2594557823129	72	127
411.17818594104307	411.36394557823127	60	127
411.2594557823129	411.5497052154195	74	127
411.36394557823127	411.5497052154195	63	127
411.5497052154195	412.3856235827664	75	127
411.5497052154195	411.7354648526077	60	127
411.7354648526077	411.90961451247165	63	127
411.90961451247165	412.09537414965985	60	127
412.09537414965985	412.6062131519274	55	127
412.09537414965985	412.3856235827664	72	127
412.09537414965985	412.3856235827664	67	127
412.26952380952383	412.44367346938776	60	127
412.44367346938776	412.6062131519274	64	127
412.44367346938776	412.5597732426304	76	127
412.5597732426304	412.6062131519274	79	127
412.6062131519274	412.7919727891156	77	127
412.6062131519274	413.117052154195	55	127
412.6062131519274	412.7919727891156	71	127
412.7919727891156	412.9661224489796	62	127
412.9661224489796	413.117052154195	65	127
412.9661224489796	413.117052154195	74	127
413.117052154195	413.62789115646257	72	127
413.117052154195	413.62789115646257	69	127
413.117052154195	413.62789115646257	54	127
413.117052154195	413.62789115646257	75	127
413.291201814059	413.45374149659864	60	127
413.45374149659864	413.62789115646257	63	127
413.62789115646257	414.1619501133787	55	127
413.62789115646257	413.91814058956913	72	127
413.62789115646257	413.91814058956913	67	127
413.80204081632655	413.9761904761905	60	127
413.9761904761905	414.1619501133787	64	127
413.9761904761905	414.1039002267574	76	127
414.1039002267574	414.1619501133787	79	127
414.1619501133787	414.3360997732426	71	127
414.1619501133787	414.6960090702948	55	127
414.1619501133787	414.3360997732426	77	127
414.3360997732426	414.5102494331066	62	127
414.5102494331066	414.6960090702948	74	127
414.5102494331066	414.6960090702948	65	127
414.70761904761906	415.17201814058956	54	127
414.70761904761906	415.17201814058956	75	127
414.70761904761906	415.17201814058956	69	127
414.70761904761906	415.17201814058956	72	127
414.881768707483	415.03269841269844	57	127
415.03269841269844	415.17201814058956	60	127
415.17201814058956	415.57836734693876	69	127
415.17201814058956	415.57836734693876	72	127
415.17201814058956	415.6364172335601	53	127
415.322947845805	415.4622675736961	57	127
415.4622675736961	415.6364172335601	60	127
415.6364172335601	416.18208616780043	69	127
415.6364172335601	416.18208616780043	76	127
415.6364172335601	416.18208616780043	72	127
415.6364172335601	416.18208616780043	52	127
415.81056689342404	416.0079365079365	57	127
416.0079365079365	416.18208616780043	60	127
416.18208616780043	416.7045351473923	50	127
416.18208616780043	416.472335600907	72	127
416.18208616780043	416.472335600907	69	127
416.3562358276644	416.5071655328798	57	127
416.5071655328798	416.7045351473923	60	127
416.65809523809526	416.7045351473923	79	127
416.7045351473923	416.87868480725626	38	127
416.7045351473923	417.2269841269841	77	127
416.7045351473923	417.2269841269841	69	127
416.7045351473923	417.2269841269841	72	127
416.87868480725626	417.0528344671202	45	127
417.0528344671202	417.2269841269841	50	127
417.2269841269841	417.56367346938777	71	127
417.2269841269841	417.40113378684805	43	127
417.2269841269841	417.56367346938777	65	127
417.40113378684805	417.56367346938777	50	127
417.56367346938777	417.7262131519274	43	127
417.56367346938777	417.7262131519274	74	127
417.7262131519274	418.02807256235826	72	127
417.7262131519274	418.02807256235826	64	127
417.7262131519274	417.7842630385488	36	127
417.9003628117914	417.97002267573697	36	127
418.0861224489796	418.13256235827663	36	127
418.24866213151927	418.51569160997735	72	127
418.24866213151927	418.3067120181406	36	127
418.24866213151927	418.51569160997735	60	127
418.4228117913832	418.4692517006803	36	127
418.57374149659864	418.63179138321993	36	127
418.7478911564626	418.8175510204082	36	127
418.92204081632656	418.98009070294785	36	127
419.0961904761905	419.1542403628118	36	127
419.2355102040816	419.52575963718823	72	127
419.2355102040816	419.52575963718823	60	127
419.2355102040816	419.29356009070295	36	127
419.4096598639456	419.4677097505669	36	127
419.5838095238095	419.6534693877551	36	127
419.75795918367345	420.0365986394558	60	127
419.75795918367345	419.8043990929705	36	127
419.75795918367345	420.0365986394558	72	127
419.92049886621317	419.97854875283446	36	127
420.0946485260771	420.1526984126984	36	127
420.268798185941	420.3152380952381	36	127
420.41972789115647	420.47777777777776	36	127
420.57065759637186	420.6287074829932	36	127
420.74480725623584	420.7680272108843	36	127
420.74480725623584	420.98861678004533	60	127
420.74480725623584	420.98861678004533	48	127
420.8725170068027	420.93056689342404	36	127
421.0466666666667	421.104716553288	36	127
421.2208163265306	421.52267573696145	60	127
421.2208163265306	421.29047619047617	36	127
421.2208163265306	421.52267573696145	48	127
421.4065759637188	421.46462585034016	36	127
421.5807256235828	421.6387755102041	36	127
421.766485260771	421.83614512471655	36	127
421.9522448979592	422.0102947845805	36	127
422.1263945578231	422.19605442176874	36	127
422.3121541950113	422.59079365079367	48	127
422.3121541950113	422.37020408163266	36	127
422.3121541950113	422.59079365079367	60	127
422.4863038548753	422.5443537414966	36	127
422.64884353741496	422.7068934240363	36	127
422.8113832199546	423.090022675737	60	127
422.8113832199546	423.090022675737	48	127
422.8113832199546	422.86943310657597	36	127
422.97392290249434	423.0319727891156	36	127
423.14807256235827	423.2061224489796	36	127
423.3222222222222	423.3686621315193	36	127
423.46154195011337	423.50798185941045	36	127
423.6240816326531	423.6821315192744	36	127
423.798231292517	423.8678911564626	41	127
423.798231292517	424.10009070294785	60	127
423.798231292517	424.10009070294785	48	127
423.9839909297052	424.0420408163265	41	127
424.15814058956914	424.2161904761905	41	127
424.32068027210886	424.8547392290249	81	127
424.32068027210886	424.8547392290249	41	127
424.32068027210886	424.8547392290249	74	127
424.32068027210886	424.8547392290249	71	127
424.8547392290249	425.3539682539683	76	127
424.8547392290249	425.3539682539683	79	127
424.8547392290249	425.3539682539683	40	127
424.8547392290249	425.3539682539683	72	127
425.3539682539683	425.86480725623585	51	127
425.3539682539683	425.86480725623585	78	127
425.3539682539683	425.86480725623585	72	127
425.3539682539683	425.86480725623585	69	127
425.3539682539683	425.86480725623585	39	127
425.86480725623585	426.32920634920634	38	127
425.86480725623585	426.32920634920634	68	127
425.86480725623585	426.32920634920634	77	127
425.86480725623585	426.32920634920634	50	127
425.86480725623585	426.32920634920634	72	127
426.32920634920634	426.77038548752836	71	127
426.32920634920634	426.77038548752836	74	127
426.32920634920634	426.77038548752836	43	127
426.32920634920634	426.77038548752836	65	127
426.82843537414965	427.1302947845805	72	127
426.82843537414965	427.1302947845805	64	127
426.82843537414965	426.886485260771	36	127
427.0025850340136	427.0722448979592	36	127
427.18834467120183	427.2580045351474	36	127
427.37410430839003	427.4321541950113	36	127
427.37410430839003	427.64113378684806	48	127
427.37410430839003	427.64113378684806	60	127
427.5366439909297	427.58308390022677	36	127
427.6991836734694	427.7572335600907	36	127
427.87333333333333	427.9313832199546	36	127
428.035873015873	428.09392290249434	36	127
428.1635827664399	428.22163265306125	36	127
428.31451247165535	428.6047619047619	48	127
428.31451247165535	428.6047619047619	60	127
428.31451247165535	428.37256235827664	36	127
428.4886621315193	428.54671201814057	36	127
428.6628117913832	428.72086167800455	36	127
428.8369614512472	428.90662131519275	36	127
428.8369614512472	429.1039909297052	60	127
428.8369614512472	429.1039909297052	48	127
429.0227210884354	429.04594104308393	36	127
429.15043083900224	429.2084807256236	36	127
429.3245804988662	429.40585034013606	36	127
429.5219501133787	429.58	36	127
429.6960997732426	429.75414965986397	36	127
429.87024943310655	429.91668934240363	41	127
430.04439909297054	430.1024489795918	41	127
430.21854875283447	430.27659863945576	41	127
430.3926984126984	430.9383673469388	41	127
430.3926984126984	430.9383673469388	69	127
430.3926984126984	430.9383673469388	59	127
430.3926984126984	430.9383673469388	62	127
430.9383673469388	431.39115646258506	67	127
430.9383673469388	431.39115646258506	60	127
430.9383673469388	431.39115646258506	64	127
430.9383673469388	431.39115646258506	40	127
431.39115646258506	431.8671655328798	39	127
431.39115646258506	431.8671655328798	66	127
431.39115646258506	431.8671655328798	60	127
431.39115646258506	431.8671655328798	57	127
431.8671655328798	432.3780045351474	65	127
431.8671655328798	432.3780045351474	56	127
431.8671655328798	432.3780045351474	38	127
431.8671655328798	432.3780045351474	60	127
432.3780045351474	432.7959637188209	59	127
432.3780045351474	432.7959637188209	43	127
432.3780045351474	432.7959637188209	31	127
432.3780045351474	432.7959637188209	53	127
432.3780045351474	432.7959637188209	62	127
432.86562358276643	433.155873015873	46	127
432.86562358276643	433.155873015873	58	127
432.86562358276643	433.155873015873	48	127
432.86562358276643	435.3733786848073	60	127
432.86562358276643	433.155873015873	36	127
433.4112925170068	433.6899319727891	48	127
433.4112925170068	433.6899319727891	58	127
433.4112925170068	433.6899319727891	46	127
433.4112925170068	433.6899319727891	36	127
434.39814058956915	434.6883900226757	48	127
434.39814058956915	434.6883900226757	46	127
434.39814058956915	434.6883900226757	58	127
434.39814058956915	434.6883900226757	36	127
434.93219954648526	435.22244897959183	46	127
434.93219954648526	435.22244897959183	58	127
434.93219954648526	435.22244897959183	48	127
434.93219954648526	435.22244897959183	36	127
435.9538775510204	436.244126984127	48	127
435.9538775510204	436.244126984127	46	127
435.9538775510204	436.244126984127	36	127
435.9538775510204	436.244126984127	58	127
436.464716553288	436.7433560090703	48	127
436.464716553288	436.7433560090703	58	127
436.464716553288	436.7433560090703	46	127
436.464716553288	436.7433560090703	36	127
437.4980045351474	437.7766439909297	45	127
437.4980045351474	437.7766439909297	57	127
437.4980045351474	437.7766439909297	48	127
437.4980045351474	437.7766439909297	36	127
437.9972335600907	438.25265306122446	36	127
437.9972335600907	438.25265306122446	48	127
437.9972335600907	438.25265306122446	56	127
437.9972335600907	438.25265306122446	44	127
438.47324263038547	438.9028117913832	68	127
438.47324263038547	438.9028117913832	71	127
438.47324263038547	438.9028117913832	62	127
438.47324263038547	438.9028117913832	65	127
438.96086167800456	439.25111111111113	43	127
438.96086167800456	439.3091609977324	67	127
438.96086167800456	439.25111111111113	55	127
438.96086167800456	439.3091609977324	64	127
438.96086167800456	439.25111111111113	48	127
438.96086167800456	439.3091609977324	72	127
439.3091609977324	439.46009070294787	67	127
439.3091609977324	439.46009070294787	74	127
439.46009070294787	439.75034013605443	48	127
439.46009070294787	439.75034013605443	54	127
439.46009070294787	440.4585487528345	72	127
439.46009070294787	440.4585487528345	75	127
439.46009070294787	439.75034013605443	42	127
439.9941496598639	440.4585487528345	69	127
439.9941496598639	440.4585487528345	78	127
440.51659863945576	440.84167800453514	48	127
440.51659863945576	440.84167800453514	53	127
440.51659863945576	440.84167800453514	71	127
440.51659863945576	440.84167800453514	67	127
440.51659863945576	440.84167800453514	79	127
440.51659863945576	440.84167800453514	41	127
440.51659863945576	440.84167800453514	74	127
441.60793650793653	441.90979591836737	72	127
441.60793650793653	441.90979591836737	78	127
441.60793650793653	441.90979591836737	66	127
441.60793650793653	441.90979591836737	39	127
441.60793650793653	441.90979591836737	48	127
441.60793650793653	441.90979591836737	51	127
442.6760544217687	442.91986394557824	72	127
442.6760544217687	442.91986394557824	77	127
442.6760544217687	442.91986394557824	49	127
442.6760544217687	442.91986394557824	65	127
442.6760544217687	442.91986394557824	36	127
442.6760544217687	442.91986394557824	37	127
443.616462585034	443.9415419501134	72	127
443.616462585034	443.9415419501134	64	127
443.616462585034	443.9415419501134	76	127
443.616462585034	443.9415419501134	36	127
443.616462585034	443.9415419501134	48	127
444.17374149659867	445.24185941043083	54	127
444.17374149659867	445.24185941043083	80	127
444.17374149659867	445.24185941043083	60	127
444.17374149659867	445.24185941043083	72	127
444.17374149659867	445.24185941043083	75	127
444.17374149659867	445.24185941043083	63	127
444.17374149659867	445.24185941043083	68	127
445.24185941043083	445.54371882086167	79	127
445.24185941043083	445.54371882086167	67	127
445.24185941043083	445.54371882086167	64	127
445.24185941043083	445.54371882086167	55	127
445.24185941043083	445.54371882086167	76	127
445.77591836734695	446.7975963718821	63	127
445.77591836734695	446.7975963718821	75	127
445.77591836734695	446.7975963718821	81	127
445.77591836734695	446.7975963718821	69	127
445.77591836734695	446.7975963718821	60	127
445.77591836734695	446.7975963718821	54	127
445.77591836734695	446.7975963718821	72	127
446.7975963718821	447.09945578231293	64	127
446.7975963718821	447.09945578231293	76	127
446.7975963718821	447.09945578231293	79	127
446.7975963718821	447.09945578231293	67	127
446.7975963718821	447.09945578231293	55	127
447.3316553287982	448.3301133786848	63	127
447.3316553287982	448.3301133786848	56	127
447.3316553287982	448.3301133786848	60	127
447.3316553287982	448.3301133786848	68	127
447.3316553287982	448.3301133786848	42	127
447.3316553287982	448.3301133786848	36	127
448.3301133786848	448.6551927437642	67	127
448.3301133786848	448.6551927437642	43	127
448.3301133786848	448.6551927437642	55	127
448.3301133786848	448.6551927437642	36	127
448.3301133786848	448.6551927437642	64	127
448.8873922902494	449.94390022675736	69	127
448.8873922902494	449.94390022675736	36	127
448.8873922902494	449.94390022675736	57	127
448.8873922902494	449.94390022675736	63	127
448.8873922902494	449.94390022675736	60	127
448.8873922902494	449.94390022675736	42	127
449.94390022675736	450.23414965986393	43	127
449.94390022675736	450.23414965986393	36	127
449.94390022675736	450.23414965986393	55	127
449.94390022675736	450.23414965986393	67	127
449.94390022675736	450.23414965986393	64	127
451.04684807256234	451.39514739229026	36	127
451.04684807256234	451.39514739229026	55	127
451.04684807256234	451.39514739229026	60	127
451.04684807256234	451.39514739229026	43	127
451.04684807256234	451.39514739229026	64	127
452.31233560090703	452.68385487528343	52	127
452.31233560090703	452.68385487528343	60	127
452.31233560090703	452.68385487528343	36	127
452.31233560090703	452.68385487528343	43	127
453.6823129251701	453.856462585034	36	127
453.856462585034	454.03061224489795	48	127
454.03061224489795	454.19315192743767	52	127
454.19315192743767	454.3556916099773	55	127
454.3556916099773	454.518231292517	60	127
454.518231292517	454.6807709750567	64	127
454.6807709750567	454.79687074829934	67	127
454.79687074829934	454.9245804988662	69	127
454.9245804988662	455.0522902494331	67	127
455.0522902494331	455.1916099773243	48	127
455.1916099773243	455.3077097505669	60	127
455.3077097505669	455.48185941043084	64	127
455.48185941043084	455.6908390022676	67	127
455.6908390022676	455.83015873015876	72	127
455.83015873015876	455.9694784580499	76	127
455.9694784580499	456.07396825396825	79	127
456.07396825396825	456.10879818594105	81	127
456.10879818594105	456.1436281179138	79	127
456.1436281179138	456.2713378684807	60	127
456.2713378684807	456.3758276643991	72	127
456.3758276643991	456.48031746031745	76	127
456.48031746031745	456.5964172335601	79	127
456.5964172335601	456.73573696145127	84	127
456.73573696145127	456.8170068027211	88	127
456.8170068027211	456.9679365079365	91	127
456.9679365079365	457.10725623582766	93	127
457.10725623582766	457.2581859410431	91	127
457.2581859410431	457.42072562358277	76	127
457.42072562358277	457.57165532879816	77	127
457.57165532879816	457.7225850340136	76	127
457.7341950113379	457.7806349206349	91	127
457.7806349206349	457.8502947845805	93	127
457.8502947845805	458.0128344671202	91	127
458.02444444444444	458.1637641723356	76	127
458.1637641723356	458.3263038548753	77	127
458.3263038548753	458.4424036281179	76	127
458.4540136054422	458.535283446712	91	127
458.535283446712	458.6978231292517	93	127
458.6978231292517	458.8255328798186	91	127
458.8255328798186	458.9416326530612	79	127
458.9416326530612	459.09256235827667	81	127
459.09256235827667	459.24349206349206	79	127
459.24349206349206	459.4060317460318	94	127
459.4060317460318	459.5801814058957	96	127
459.5801814058957	459.7195011337868	94	127
459.7195011337868	459.83560090702946	81	127
459.83560090702946	459.9981405895692	82	127
459.9981405895692	460.1374603174603	81	127
460.1374603174603	460.24195011337866	93	127
460.24195011337866	460.32321995464855	93	127
460.32321995464855	460.46253968253967	79	127
460.46253968253967	460.6250793650794	81	127
460.6250793650794	460.7063492063492	79	127
460.7063492063492	460.8340589569161	91	127
460.8340589569161	460.961768707483	93	127
460.961768707483	461.0894784580499	91	127
461.0894784580499	461.24040816326533	67	127
461.24040816326533	461.37972789115645	69	127
461.37972789115645	461.50743764172336	67	127
461.50743764172336	461.669977324263	79	127
461.669977324263	461.8092970521542	81	127
461.8092970521542	461.94861678004537	79	127
461.94861678004537	462.05310657596374	55	127
462.05310657596374	462.1575963718821	57	127
462.1575963718821	462.2504761904762	55	127
462.2504761904762	462.42462585034014	67	127
462.42462585034014	462.5871655328798	69	127
462.5871655328798	462.73809523809524	67	127
462.73809523809524	462.8774149659864	55	127
462.8774149659864	462.993514739229	57	127
462.993514739229	463.10961451247164	55	127
463.1212244897959	463.2257142857143	67	127
463.2257142857143	463.3185941043084	69	127
463.3185941043084	463.42308390022674	67	127
463.434693877551	463.58562358276646	43	127
463.58562358276646	463.7017233560091	45	127
463.7017233560091	463.8410430839002	43	127
463.8526530612245	464.01519274376415	55	127
464.01519274376415	464.1661224489796	57	127
464.1661224489796	464.28222222222223	55	127
464.28222222222223	464.37510204081633	36	127
464.37510204081633	464.4447619047619	43	127
464.4447619047619	464.5724716553288	52	127
464.5724716553288	464.7001814058957	55	127
464.7001814058957	464.8511111111111	60	127
464.8511111111111	464.96721088435373	64	127
464.96721088435373	465.12975056689345	67	127
465.12975056689345	465.3039002267574	72	127
465.3039002267574	465.46643990929704	76	127
465.46643990929704	465.59414965986394	48	127
465.59414965986394	465.7334693877551	55	127
465.7450793650794	465.8843990929705	60	127
465.8843990929705	466.0237188208617	64	127
466.0237188208617	466.1978684807256	67	127
466.1978684807256	466.36040816326533	72	127
466.36040816326533	466.49972789115645	76	127
466.49972789115645	466.63904761904763	79	127
466.63904761904763	466.8015873015873	84	127
466.8015873015873	466.8944671201814	60	127
466.8944671201814	467.0570068027211	64	127
467.0570068027211	467.2427664399093	67	127
467.2427664399093	467.4285260770975	72	127
467.4285260770975	467.63750566893424	76	127
467.63750566893424	467.82326530612244	79	127
467.82326530612244	468.0322448979592	84	127
468.0322448979592	468.2528344671202	88	127
468.2528344671202	468.4618140589569	91	127
468.4618140589569	469.3209523809524	60	127
468.54308390022675	469.3209523809524	64	127
468.6127437641723	469.3209523809524	67	127
468.67079365079366	469.3209523809524	72	127
468.7520634920635	469.3209523809524	84	127
468.82172335600904	469.3209523809524	88	127
468.90299319727893	469.3209523809524	91	127
468.9726530612245	469.3209523809524	96	127
474.1507029478458	474.4525623582766	40	127
