# onset,offset,note,velocity
0.7654875283446712	0.8235374149659864	60	127
0.9512471655328798	1.009297052154195	60	127
1.1253968253968254	1.1834467120181407	60	127
1.299546485260771	1.3575963718820863	60	127
1.4736961451247166	1.5317460317460319	60	127
1.6478458049886622	1.8219954648526078	75	127
1.6478458049886622	1.8219954648526078	67	127
1.6478458049886622	1.7058956916099772	60	127
1.8219954648526078	2.147074829931973	65	127
1.8219954648526078	2.147074829931973	74	127
1.8219954648526078	1.8684353741496598	60	127
1.9729251700680273	2.0309750566893423	60	127
2.147074829931973	2.309614512471655	63	127
2.147074829931973	2.193514739229025	60	127
2.147074829931973	2.309614512471655	72	127
2.309614512471655	2.3676643990929707	60	127
2.309614512471655	2.762380952380952	71	127
2.309614512471655	2.762380952380952	62	127
2.4837641723356008	2.51859410430839	60	127
2.5998639455782313	2.6463038548752835	60	127
2.762380952380952	2.820453514739229	60	127
2.762380952380952	3.0526530612244898	72	127
2.762380952380952	3.0526530612244898	63	127
2.9365306122448978	2.9946031746031747	60	127
3.110702947845805	3.157142857142857	60	127
3.110702947845805	3.2732426303854876	75	127
3.110702947845805	3.2732426303854876	67	127
3.2732426303854876	3.31968253968254	60	127
3.2732426303854876	3.5983219954648527	74	127
3.2732426303854876	3.5983219954648527	65	127
3.447392290249433	3.4938321995464854	60	127
3.5983219954648527	3.7724716553287982	72	127
3.5983219954648527	3.6563718820861677	60	127
3.5983219954648527	3.7724716553287982	63	127
3.7724716553287982	3.7956916099773244	60	127
3.7724716553287982	4.248458049886621	71	127
3.7724716553287982	4.248458049886621	62	127
3.888571428571429	3.946621315192744	60	127
4.062721088435374	4.120748299319728	60	127
4.248458049886621	4.515510204081632	72	127
4.248458049886621	4.306530612244898	60	127
4.248458049886621	4.515510204081632	63	127
4.411020408163266	4.46907029478458	60	127
4.561950113378685	4.608390022675737	60	127
4.561950113378685	4.678049886621316	72	127
4.561950113378685	4.678049886621316	63	127
4.678049886621316	5.026349206349207	65	127
4.678049886621316	4.73609977324263	60	127
4.678049886621316	5.026349206349207	74	127
4.852199546485261	4.910249433106576	60	127
5.026349206349207	5.084399092970521	60	127
5.026349206349207	5.188888888888889	75	127
5.026349206349207	5.188888888888889	67	127
5.2004761904761905	5.548775510204082	68	127
5.2004761904761905	5.258548752834467	60	127
5.2004761904761905	5.548775510204082	77	127
5.374625850340136	5.432698412698413	60	127
5.548775510204082	5.606848072562358	60	127
5.548775510204082	5.722925170068027	79	127
5.548775510204082	5.722925170068027	70	127
5.722925170068027	5.780997732426304	60	127
5.722925170068027	6.233786848072563	80	127
5.722925170068027	6.233786848072563	72	127
5.908707482993197	5.966757369614513	60	127
6.082857142857143	6.140907029478458	60	127
6.233786848072563	6.291836734693877	60	127
6.233786848072563	6.547256235827664	79	127
6.233786848072563	6.547256235827664	70	127
6.407936507936508	6.4543764172335605	60	127
6.547256235827664	6.6053061224489795	60	127
6.547256235827664	6.72140589569161	77	127
6.547256235827664	6.72140589569161	68	127
6.733015873015873	7.220634920634921	75	127
6.733015873015873	6.791065759637188	60	127
6.733015873015873	7.220634920634921	67	127
6.8723356009070296	6.930385487528345	60	127
7.046485260770975	7.104535147392291	60	127
7.220634920634921	7.278684807256236	60	127
7.220634920634921	7.487664399092971	74	127
7.220634920634921	7.487664399092971	65	127
7.394784580498866	7.452834467120182	60	127
7.557324263038549	7.719863945578231	75	127
7.557324263038549	7.615374149659864	60	127
7.557324263038549	7.719863945578231	67	127
7.719863945578231	8.010113378684807	74	127
7.719863945578231	7.7779138321995465	60	127
7.719863945578231	8.010113378684807	65	127
7.870793650793651	7.894013605442177	60	127
8.010113378684807	8.184263038548753	63	127
8.010113378684807	8.068163265306122	60	127
8.010113378684807	8.184263038548753	72	127
8.184263038548753	8.242312925170069	60	127
8.184263038548753	8.637052154195011	71	127
8.184263038548753	8.637052154195011	62	127
8.358412698412698	8.416462585034013	60	127
8.462902494331066	8.52092970521542	60	127
8.637052154195011	8.927301587301587	63	127
8.637052154195011	8.695102040816327	60	127
8.637052154195011	8.927301587301587	72	127
8.811201814058958	8.86922902494331	60	127
8.985351473922902	9.043401360544218	60	127
8.985351473922902	9.171111111111111	77	127
8.985351473922902	9.171111111111111	68	127
9.171111111111111	9.2059410430839	60	127
9.171111111111111	9.496190476190476	66	127
9.171111111111111	9.496190476190476	75	127
9.322040816326531	9.380090702947847	60	127
9.496190476190476	9.554240362811791	60	127
9.496190476190476	9.658730158730158	73	127
9.496190476190476	9.658730158730158	65	127
9.658730158730158	10.12312925170068	73	127
9.658730158730158	9.716780045351474	61	127
9.658730158730158	10.12312925170068	65	127
9.82124716553288	9.879319727891156	61	127
10.00702947845805	10.065079365079365	61	127
10.16954648526077	10.216009070294785	61	127
10.320498866213152	10.378548752834467	61	127
10.494648526077098	10.552698412698414	61	127
10.494648526077098	10.668798185941043	77	127
10.494648526077098	10.668798185941043	68	127
10.668798185941043	11.005487528344672	75	127
10.668798185941043	10.726848072562358	61	127
10.668798185941043	11.005487528344672	66	127
10.831337868480725	10.88938775510204	61	127
11.005487528344672	11.04031746031746	61	127
11.005487528344672	11.156417233560092	73	127
11.005487528344672	11.156417233560092	65	127
11.156417233560092	11.6556462585034	72	127
11.156417233560092	11.202857142857143	61	127
11.156417233560092	11.6556462585034	63	127
11.318956916099774	11.376984126984127	61	127
11.481496598639456	11.539546485260772	61	127
11.6556462585034	11.702086167800454	61	127
11.6556462585034	11.911065759637188	73	127
11.6556462585034	11.911065759637188	65	127
11.794965986394558	11.853015873015874	61	127
11.969115646258503	12.120045351473923	80	127
11.969115646258503	12.027165532879819	61	127
11.969115646258503	12.120045351473923	72	127
12.120045351473923	12.178095238095239	61	127
12.120045351473923	12.445124716553288	79	127
12.120045351473923	12.445124716553288	70	127
12.282585034013605	12.34063492063492	61	127
12.445124716553288	12.60766439909297	69	127
12.445124716553288	12.503174603174603	61	127
12.445124716553288	12.60766439909297	78	127
12.619274376417234	12.99079365079365	78	127
12.619274376417234	12.677324263038548	62	127
12.619274376417234	12.99079365079365	69	127
12.723764172335601	12.75859410430839	62	127
12.874693877551021	12.932743764172336	62	127
13.048843537414966	13.083673469387755	62	127
13.211383219954648	13.257823129251701	62	127
13.37392290249433	13.431972789115646	62	127
13.37392290249433	13.536462585034014	74	127
13.37392290249433	13.536462585034014	66	127
13.536462585034014	13.594512471655328	62	127
13.536462585034014	13.849931972789115	76	127
13.536462585034014	13.849931972789115	67	127
13.710612244897959	13.768662131519275	62	127
13.849931972789115	14.024081632653061	69	127
13.849931972789115	13.90798185941043	62	127
13.849931972789115	14.024081632653061	78	127
14.035691609977324	14.09374149659864	62	127
14.035691609977324	14.36077097505669	79	127
14.035691609977324	14.36077097505669	70	127
14.186621315192744	14.244671201814059	62	127
14.36077097505669	14.534920634920635	72	127
14.36077097505669	14.418820861678004	62	127
14.36077097505669	14.534920634920635	81	127
14.534920634920635	14.59297052154195	62	127
14.534920634920635	14.97609977324263	82	127
14.534920634920635	14.97609977324263	73	127
14.709070294784581	14.755510204081633	62	127
14.801950113378684	14.86	62	127
14.97609977324263	15.440498866213153	73	127
14.97609977324263	15.034149659863946	62	127
14.97609977324263	15.440498866213153	67	127
15.150249433106575	15.20829931972789	62	127
15.324399092970522	15.382448979591837	62	127
15.498548752834466	15.97455782312925	74	127
15.498548752834466	15.556598639455782	62	127
15.498548752834466	15.97455782312925	66	127
15.684308390022675	15.74235827664399	62	127
15.858458049886622	15.916507936507937	62	127
16.032607709750568	16.090657596371884	62	127
16.19514739229025	16.253197278911564	62	127
16.369297052154195	16.42734693877551	62	127
16.369297052154195	16.555056689342404	74	127
16.369297052154195	16.555056689342404	66	127
16.555056689342404	16.61310657596372	62	127
16.555056689342404	16.79886621315193	76	127
16.555056689342404	16.79886621315193	67	127
16.705986394557822	16.717573696145124	62	127
16.79886621315193	16.856916099773244	62	127
16.79886621315193	16.97299319727891	78	127
16.79886621315193	16.97299319727891	69	127
16.97299319727891	17.309705215419502	79	127
16.97299319727891	17.031043083900226	62	127
16.97299319727891	17.309705215419502	70	127
17.147165532879818	17.18199546485261	62	127
17.309705215419502	17.472244897959182	81	127
17.309705215419502	17.367755102040817	62	127
17.309705215419502	17.472244897959182	72	127
17.48385487528345	17.5418820861678	62	127
17.48385487528345	17.832154195011338	82	127
17.48385487528345	17.832154195011338	73	127
17.65800453514739	17.716054421768707	62	127
17.832154195011338	18.006303854875284	67	127
17.832154195011338	17.890204081632653	62	127
17.832154195011338	18.006303854875284	73	127
18.006303854875284	18.377823129251702	74	127
18.006303854875284	18.0643537414966	62	127
18.006303854875284	18.377823129251702	66	127
18.192063492063493	18.26172335600907	62	127
18.377823129251702	18.551972789115645	60	127
18.377823129251702	18.435873015873018	62	127
18.377823129251702	18.551972789115645	66	127
18.551972789115645	18.621609977324262	55	127
18.551972789115645	18.865442176870747	67	127
18.551972789115645	18.865442176870747	59	127
18.737732426303854	18.80736961451247	55	127
18.923492063492063	18.99315192743764	55	127
19.120861678004534	19.17891156462585	55	127
19.120861678004534	19.39950113378685	67	127
19.120861678004534	19.39950113378685	55	127
19.283401360544218	19.341451247165534	55	127
19.48077097505669	19.538820861678005	55	127
19.67814058956916	19.736190476190476	55	127
19.829070294784582	19.887097505668933	55	127
20.003219954648525	20.038049886621316	55	127
20.13092970521542	20.17736961451247	55	127
20.270226757369613	20.32829931972789	55	127
20.44439909297052	20.502448979591836	55	127
20.618548752834467	20.641768707482992	55	127
20.769478458049885	20.839115646258502	55	127
20.955238095238094	21.001678004535147	55	127
21.09453514739229	21.152607709750566	55	127
21.268707482993197	21.326757369614512	55	127
21.442857142857143	21.50090702947846	55	127
21.628616780045352	21.651836734693877	55	127
21.767936507936508	21.825986394557823	55	127
21.942086167800454	22.00013605442177	55	127
22.1162358276644	22.17426303854875	55	127
22.290385487528344	22.325215419501134	55	127
22.452925170068028	22.510975056689343	55	127
22.627074829931974	22.68512471655329	55	127
22.812834467120183	22.870861678004534	55	127
22.9637641723356	23.021814058956917	55	127
23.12628117913832	23.172743764172335	55	127
23.288843537414966	23.34689342403628	55	127
23.462993197278912	23.521043083900228	55	127
23.625532879818593	23.68358276643991	55	127
23.788072562358277	23.857732426303855	55	127
23.973832199546486	24.043492063492064	55	127
24.18281179138322	24.21764172335601	55	127
24.240861678004535	24.29891156462585	55	127
24.41501133786848	24.49628117913832	55	127
24.635600907029477	24.693650793650793	48	127
24.809750566893424	24.86780045351474	48	127
24.98390022675737	25.041950113378686	48	127
25.14643990929705	25.21609977324263	48	127
25.33219954648526	25.390249433106575	48	127
25.506349206349206	25.564399092970522	48	127
25.506349206349206	25.66888888888889	60	127
25.506349206349206	25.66888888888889	36	127
25.66888888888889	26.01718820861678	62	127
25.66888888888889	26.01718820861678	38	127
25.66888888888889	25.726938775510202	48	127
25.843038548752833	25.90108843537415	48	127
26.01718820861678	26.086848072562358	48	127
26.01718820861678	26.20294784580499	63	127
26.01718820861678	26.20294784580499	39	127
26.20294784580499	26.249387755102042	48	127
26.20294784580499	26.539637188208616	68	127
26.20294784580499	26.539637188208616	44	127
26.365487528344673	26.423537414965985	48	127
26.539637188208616	26.713786848072562	67	127
26.539637188208616	26.713786848072562	43	127
26.539637188208616	26.59768707482993	48	127
26.713786848072562	26.771836734693878	48	127
26.713786848072562	27.015646258503402	60	127
26.713786848072562	27.015646258503402	36	127
26.88793650793651	26.957596371882087	48	127
27.073696145124718	27.27106575963719	60	127
27.073696145124718	27.143356009070295	48	127
27.073696145124718	27.27106575963719	36	127
27.27106575963719	27.630975056689344	38	127
27.27106575963719	27.329115646258504	48	127
27.27106575963719	27.630975056689344	62	127
27.456825396825398	27.514875283446713	48	127
27.630975056689344	27.689024943310656	48	127
27.630975056689344	27.793514739229025	63	127
27.630975056689344	27.793514739229025	39	127
27.793514739229025	27.863174603174603	48	127
27.793514739229025	28.13020408163265	68	127
27.793514739229025	28.13020408163265	44	127
27.95605442176871	28.014104308390024	48	127
28.13020408163265	28.257913832199545	67	127
28.13020408163265	28.188253968253967	48	127
28.13020408163265	28.257913832199545	43	127
28.257913832199545	28.524943310657598	60	127
28.257913832199545	28.524943310657598	36	127
28.257913832199545	28.31596371882086	48	127
28.408843537414967	28.466893424036282	48	127
28.582993197278913	28.629433106575963	48	127
28.582993197278913	28.73392290249433	72	127
28.582993197278913	28.73392290249433	60	127
28.73392290249433	28.791972789115647	48	127
28.73392290249433	29.093832199546487	71	127
28.73392290249433	29.093832199546487	59	127
28.908072562358278	28.977732426303856	48	127
29.093832199546487	29.1518820861678	48	127
29.093832199546487	29.26798185941043	70	127
29.093832199546487	29.26798185941043	58	127
29.26798185941043	29.639501133786847	68	127
29.26798185941043	29.639501133786847	56	127
29.26798185941043	29.326031746031745	48	127
29.45374149659864	29.523401360544216	48	127
29.639501133786847	29.6859410430839	48	127
29.639501133786847	29.80204081632653	67	127
29.639501133786847	29.80204081632653	55	127
29.80204081632653	29.860090702947847	48	127
29.80204081632653	30.13873015873016	65	127
29.80204081632653	30.13873015873016	53	127
29.976190476190474	30.03424036281179	48	127
30.13873015873016	30.301269841269843	68	127
30.13873015873016	30.301269841269843	56	127
30.13873015873016	30.196780045351474	48	127
30.301269841269843	30.359319727891158	48	127
30.301269841269843	30.730839002267572	72	127
30.301269841269843	30.730839002267572	60	127
30.475419501133786	30.5334693877551	48	127
30.63795918367347	30.696009070294785	48	127
30.788888888888888	30.83532879818594	48	127
30.788888888888888	31.10235827664399	60	127
30.788888888888888	31.10235827664399	48	127
30.93981859410431	30.997868480725625	48	127
31.10235827664399	31.2881179138322	51	127
31.10235827664399	31.172018140589568	48	127
31.10235827664399	31.2881179138322	63	127
31.2881179138322	31.346167800453514	48	127
31.2881179138322	31.566757369614514	67	127
31.2881179138322	31.566757369614514	55	127
31.450657596371883	31.5087074829932	48	127
31.624807256235826	31.68285714285714	48	127
31.624807256235826	31.810566893424035	60	127
31.624807256235826	31.810566893424035	36	127
31.810566893424035	31.86861678004535	48	127
31.810566893424035	32.21691609977324	38	127
31.810566893424035	32.21691609977324	62	127
32.01954648526077	32.08920634920635	48	127
32.21691609977324	32.274965986394555	48	127
32.21691609977324	32.40267573696145	63	127
32.21691609977324	32.40267573696145	39	127
32.40267573696145	32.46072562358277	48	127
32.40267573696145	32.716145124716554	68	127
32.40267573696145	32.716145124716554	44	127
32.54197278911565	32.60004535147392	48	127
32.716145124716554	32.8902947845805	43	127
32.716145124716554	32.8902947845805	67	127
32.716145124716554	32.774195011337866	48	127
32.8902947845805	33.145714285714284	60	127
32.8902947845805	32.948344671201816	48	127
32.8902947845805	33.145714285714284	36	127
33.05281179138322	33.08766439909297	48	127
33.19215419501134	33.65655328798186	48	127
33.19215419501134	33.25020408163265	48	127
33.19215419501134	33.65655328798186	68	127
33.19215419501134	33.65655328798186	56	127
33.377913832199546	33.435963718820865	48	127
33.55204081632653	33.598503401360546	48	127
33.71460317460318	33.761043083900226	48	127
33.71460317460318	33.83070294784581	48	127
33.71460317460318	34.26027210884354	68	127
33.71460317460318	34.26027210884354	56	127
33.84231292517007	33.90036281179138	49	127
33.84231292517007	34.26027210884354	49	127
34.00485260770975	34.0512925170068	49	127
34.144172335600906	34.202222222222225	49	127
34.31829931972789	34.37637188208617	49	127
34.4924716553288	34.562108843537416	49	127
34.678231292517005	34.747891156462586	49	127
34.678231292517005	34.852380952380955	61	127
34.678231292517005	34.852380952380955	37	127
34.852380952380955	35.18907029478458	63	127
34.852380952380955	34.91043083900227	49	127
34.852380952380955	35.18907029478458	39	127
35.0265306122449	35.08458049886622	49	127
35.18907029478458	35.2471201814059	49	127
35.18907029478458	35.36321995464853	65	127
35.18907029478458	35.36321995464853	41	127
35.36321995464853	35.42126984126984	49	127
35.36321995464853	35.69990929705215	69	127
35.36321995464853	35.69990929705215	45	127
35.52575963718821	35.58378684807256	49	127
35.69990929705215	35.74634920634921	49	127
35.69990929705215	35.86244897959184	44	127
35.69990929705215	35.86244897959184	68	127
35.86244897959184	35.92049886621315	49	127
35.86244897959184	36.17591836734694	61	127
35.86244897959184	36.17591836734694	37	127
36.05981859410431	36.117868480725626	49	127
36.23396825396826	36.431337868480725	65	127
36.23396825396826	36.326848072562356	49	127
36.23396825396826	36.709977324263036	49	127
36.431337868480725	36.768027210884355	67	127
36.431337868480725	36.489387755102044	49	127
36.60546485260771	36.651927437641724	49	127
36.768027210884355	36.82607709750567	49	127
36.768027210884355	36.91895691609977	69	127
36.768027210884355	36.91895691609977	49	127
36.91895691609977	36.97698412698413	50	127
36.91895691609977	37.3485260770975	69	127
36.91895691609977	37.3485260770975	50	127
37.081496598639454	37.13954648526077	50	127
37.232403628117915	37.27886621315193	50	127
37.40657596371882	37.464625850340134	50	127
37.580725623582765	37.638775510204084	50	127
37.754875283446715	37.92902494331066	62	127
37.754875283446715	37.81292517006803	50	127
37.754875283446715	37.92902494331066	74	127
37.92902494331066	37.998662131519275	50	127
37.92902494331066	38.31215419501134	73	127
37.92902494331066	38.31215419501134	61	127
38.114761904761906	38.184444444444445	50	127
38.31215419501134	38.463083900226756	60	127
38.31215419501134	38.37018140589569	50	127
38.31215419501134	38.463083900226756	72	127
38.463083900226756	38.788163265306125	70	127
38.463083900226756	38.788163265306125	58	127
38.463083900226756	38.50952380952381	50	127
38.614013605442175	38.672063492063494	50	127
38.788163265306125	38.8578231292517	50	127
38.788163265306125	38.97392290249433	69	127
38.788163265306125	38.97392290249433	57	127
38.97392290249433	39.03197278911565	50	127
38.97392290249433	39.4847619047619	67	127
38.97392290249433	39.4847619047619	55	127
39.13643990929705	39.19451247165533	50	127
39.31061224489796	39.36866213151927	50	127
39.4847619047619	39.937551020408165	64	127
39.4847619047619	39.54281179138322	50	127
39.4847619047619	39.937551020408165	76	127
39.64727891156463	39.716961451247165	50	127
39.821451247165534	39.879501133786846	50	127
39.99560090702948	40.425170068027214	57	127
39.99560090702948	40.053650793650796	50	127
39.99560090702948	40.425170068027214	69	127
40.14650793650794	40.204580498866214	50	127
40.33229024943311	40.39034013605442	50	127
40.483219954648526	40.55287981859411	50	127
40.66897959183674	40.72702947845805	50	127
40.84312925170068	41.00566893424036	74	127
40.84312925170068	40.88956916099773	50	127
40.84312925170068	41.00566893424036	62	127
41.00566893424036	41.06371882086168	50	127
41.00566893424036	41.353968253968254	73	127
41.00566893424036	41.353968253968254	61	127
41.17981859410431	41.23786848072562	50	127
41.353968253968254	41.5281179138322	72	127
41.353968253968254	41.42360544217687	50	127
41.353968253968254	41.5281179138322	60	127
41.5397052154195	41.86480725623583	70	127
41.5397052154195	41.86480725623583	58	127
41.5397052154195	41.58616780045352	50	127
41.690657596371885	41.7487074829932	50	127
41.86480725623583	41.93446712018141	50	127
41.86480725623583	42.050544217687076	69	127
41.86480725623583	42.050544217687076	57	127
42.050544217687076	42.10861678004535	50	127
42.050544217687076	42.41047619047619	67	127
42.050544217687076	42.41047619047619	55	127
42.22471655328798	42.29437641723356	50	127
42.41047619047619	42.46852607709751	50	127
42.41047619047619	42.573015873015876	64	127
42.41047619047619	42.573015873015876	52	127
42.573015873015876	42.63106575963719	50	127
42.573015873015876	42.82843537414966	62	127
42.573015873015876	42.82843537414966	50	127
42.723945578231294	42.770385487528344	50	127
42.86326530612245	42.9097052154195	50	127
43.002585034013606	43.049024943310656	43	127
43.14190476190476	43.199931972789116	43	127
43.31603174603175	43.374104308390024	43	127
43.51342403628118	43.85011337868481	62	127
43.51342403628118	43.85011337868481	71	127
43.51342403628118	43.571451247165534	43	127
43.67596371882086	43.73401360544218	43	127
43.85011337868481	43.919773242630384	43	127
43.85011337868481	44.035873015873015	69	127
43.85011337868481	44.035873015873015	60	127
44.035873015873015	44.55832199546485	72	127
44.035873015873015	44.093922902494334	43	127
44.035873015873015	44.55832199546485	64	127
44.21	44.26807256235828	43	127
44.38417233560091	44.44222222222222	43	127
44.55832199546485	44.61637188208617	43	127
44.55832199546485	44.836938775510205	62	127
44.55832199546485	44.836938775510205	71	127
44.70922902494331	44.77891156462585	43	127
44.89501133786848	44.953061224489794	43	127
45.05755102040816	45.09235827664399	43	127
45.05755102040816	45.37102040816327	65	127
45.05755102040816	45.37102040816327	74	127
45.20848072562358	45.2665306122449	43	127
45.37102040816327	45.42907029478458	43	127
45.37102040816327	45.54517006802721	72	127
45.37102040816327	45.54517006802721	64	127
45.54517006802721	45.61482993197279	43	127
45.54517006802721	46.06761904761905	76	127
45.54517006802721	46.06761904761905	72	127
45.719319727891154	45.77736961451247	43	127
45.893469387755104	45.951519274376416	43	127
46.06761904761905	46.125668934240366	43	127
46.06761904761905	46.35784580498866	74	127
46.06761904761905	46.35784580498866	71	127
46.24174603174603	46.29981859410431	43	127
46.41591836734694	46.48555555555556	43	127
46.601678004535145	46.6481179138322	43	127
46.601678004535145	47.05446712018141	81	127
46.601678004535145	47.05446712018141	65	127
46.601678004535145	47.05446712018141	71	127
46.76421768707483	46.822267573696145	43	127
46.938367346938776	46.99639455782313	43	127
47.05446712018141	47.11251700680272	43	127
47.05446712018141	47.51886621315193	64	127
47.05446712018141	47.51886621315193	72	127
47.05446712018141	47.57691609977324	79	127
47.22861678004535	47.29827664399093	43	127
47.4027664399093	47.46081632653061	43	127
47.57691609977324	48.06453514739229	63	127
47.57691609977324	47.62335600907029	43	127
47.57691609977324	48.06453514739229	69	127
47.57691609977324	48.06453514739229	78	127
47.72784580498866	47.78589569160998	43	127
47.90199546485261	47.94843537414966	43	127
48.06453514739229	48.1225850340136	43	127
48.06453514739229	48.54054421768708	62	127
48.06453514739229	48.54054421768708	68	127
48.06453514739229	48.54054421768708	77	127
48.20385487528345	48.2502947845805	43	127
48.36639455782313	48.42444444444445	43	127
48.54054421768708	49.01655328798186	74	127
48.54054421768708	48.59859410430839	43	127
48.54054421768708	49.01655328798186	65	127
48.71469387755102	48.77274376417233	43	127
48.888843537414964	48.958503401360545	43	127
49.074603174603176	49.26036281179138	49	127
49.074603174603176	49.26036281179138	37	127
49.26036281179138	49.446122448979594	48	127
49.26036281179138	49.446122448979594	36	127
49.446122448979594	49.62027210884354	49	127
49.446122448979594	49.62027210884354	37	127
49.62027210884354	49.79442176870748	48	127
49.62027210884354	49.79442176870748	36	127
49.79442176870748	49.98018140589569	49	127
49.79442176870748	49.98018140589569	37	127
49.98018140589569	50.1659410430839	36	127
49.98018140589569	50.1659410430839	48	127
50.1659410430839	50.34009070294785	37	127
50.1659410430839	50.34009070294785	49	127
50.34009070294785	50.51424036281179	36	127
50.34009070294785	50.51424036281179	48	127
50.51424036281179	50.68839002267574	49	127
50.51424036281179	50.68839002267574	37	127
50.68839002267574	50.874149659863946	48	127
50.68839002267574	50.874149659863946	36	127
50.874149659863946	51.05990929705215	37	127
50.874149659863946	51.05990929705215	49	127
51.05990929705215	51.2340589569161	36	127
51.05990929705215	51.2340589569161	48	127
51.2340589569161	51.48947845804989	49	127
51.2340589569161	51.48947845804989	37	127
51.48947845804989	51.686848072562356	48	127
51.48947845804989	51.686848072562356	36	127
51.686848072562356	51.82616780045351	72	127
51.686848072562356	51.87260770975057	49	127
51.686848072562356	51.87260770975057	37	127
51.82616780045351	51.87260770975057	75	127
51.87260770975057	52.04675736961451	73	127
51.87260770975057	52.04675736961451	48	127
51.87260770975057	52.04675736961451	36	127
52.04675736961451	52.23251700680272	49	127
52.04675736961451	52.23251700680272	37	127
52.23251700680272	52.406666666666666	48	127
52.23251700680272	52.406666666666666	36	127
52.23251700680272	52.406666666666666	72	127
52.406666666666666	53.25419501133787	73	127
52.406666666666666	52.673696145124715	56	127
52.406666666666666	52.673696145124715	41	127
52.90589569160998	53.19614512471655	56	127
52.90589569160998	53.19614512471655	41	127
53.25419501133787	53.41673469387755	72	127
53.41673469387755	53.590884353741494	68	127
53.75342403628118	53.927573696145124	70	127
53.927573696145124	54.22943310657596	48	127
53.927573696145124	54.22943310657596	55	127
53.927573696145124	54.22943310657596	40	127
53.927573696145124	54.41519274376417	67	127
54.473242630385485	54.751882086167804	48	127
54.473242630385485	54.751882086167804	55	127
54.473242630385485	54.751882086167804	40	127
54.809931972789116	54.93764172335601	72	127
54.93764172335601	54.98408163265306	75	127
54.98408163265306	55.15823129251701	73	127
55.33238095238095	55.506530612244894	72	127
55.506530612244894	56.342448979591836	75	127
55.506530612244894	55.78517006802721	56	127
55.506530612244894	55.78517006802721	41	127
56.005759637188206	56.284399092970524	56	127
56.005759637188206	56.284399092970524	41	127
56.342448979591836	56.50498866213152	73	127
56.50498866213152	56.65591836734694	68	127
56.81845804988662	57.01582766439909	70	127
57.01582766439909	57.317687074829934	48	127
57.01582766439909	57.317687074829934	55	127
57.01582766439909	57.317687074829934	40	127
57.01582766439909	57.480226757369614	67	127
57.53827664399093	57.84013605442177	48	127
57.53827664399093	57.84013605442177	55	127
57.53827664399093	57.84013605442177	40	127
57.89818594104308	58.025895691609975	72	127
58.025895691609975	58.07233560090703	75	127
58.07233560090703	58.246485260770974	73	127
58.409024943310655	58.583174603174605	72	127
58.583174603174605	58.83859410430839	41	127
58.583174603174605	58.83859410430839	48	127
58.583174603174605	58.745714285714286	80	127
58.583174603174605	58.83859410430839	56	127
58.8037641723356	58.98952380952381	79	127
59.070793650793654	59.349433106575965	48	127
59.070793650793654	59.349433106575965	43	127
59.070793650793654	59.349433106575965	58	127
59.070793650793654	59.25655328798186	77	127
59.32621315192744	59.40748299319728	76	127
59.58163265306123	59.837052154195014	48	127
59.58163265306123	59.80222222222222	77	127
59.58163265306123	59.837052154195014	60	127
59.58163265306123	59.837052154195014	44	127
59.80222222222222	60.06925170068027	75	127
60.06925170068027	60.336281179138325	72	127
60.06925170068027	60.37111111111111	53	127
60.06925170068027	60.37111111111111	61	127
60.06925170068027	60.37111111111111	46	127
60.336281179138325	60.603310657596374	73	127
60.603310657596374	60.78907029478458	65	127
60.603310657596374	61.148979591836735	61	127
60.87034013605442	60.95160997732426	67	127
61.148979591836735	61.90362811791383	68	127
61.148979591836735	62.1009977324263	62	127
61.148979591836735	61.648208616780046	53	127
61.648208616780046	62.15904761904762	65	127
61.90362811791383	62.15904761904762	67	127
62.15904761904762	62.414467120181406	70	127
62.15904761904762	62.69310657596372	62	127
62.15904761904762	62.69310657596372	53	127
62.414467120181406	62.69310657596372	68	127
62.69310657596372	63.169115646258504	56	127
62.69310657596372	62.86725623582767	64	127
62.69310657596372	63.169115646258504	50	127
63.02979591836735	63.23877551020408	65	127
63.23877551020408	63.56385487528345	52	127
63.23877551020408	63.56385487528345	55	127
63.23877551020408	63.56385487528345	72	127
64.2720634920635	64.5622902494331	55	127
64.2720634920635	64.5622902494331	64	127
64.2720634920635	64.5622902494331	48	127
64.2720634920635	64.5622902494331	58	127
64.2720634920635	64.5622902494331	36	127
64.79451247165532	64.96866213151928	56	127
64.79451247165532	64.96866213151928	53	127
64.79451247165532	65.15442176870748	41	127
64.96866213151928	65.15442176870748	61	127
64.96866213151928	65.15442176870748	56	127
65.15442176870748	65.34018140589569	44	127
65.15442176870748	65.34018140589569	61	127
65.15442176870748	65.34018140589569	65	127
65.34018140589569	65.64204081632653	49	127
65.34018140589569	65.39823129251701	68	127
65.34018140589569	65.39823129251701	65	127
65.51433106575963	65.58396825396825	68	127
65.51433106575963	65.58396825396825	65	127
65.70009070294785	65.75814058956917	65	127
65.70009070294785	65.75814058956917	68	127
65.87424036281179	65.93229024943311	65	127
65.87424036281179	65.93229024943311	61	127
65.87424036281179	66.1528798185941	53	127
66.04839002267573	66.10643990929705	65	127
66.04839002267573	66.10643990929705	61	127
66.21092970521542	66.26897959183674	61	127
66.21092970521542	66.26897959183674	65	127
66.38507936507936	66.76820861678004	40	127
66.38507936507936	66.5940589569161	48	127
66.38507936507936	66.5940589569161	55	127
66.5940589569161	66.76820861678004	60	127
66.5940589569161	66.76820861678004	55	127
66.76820861678004	66.94235827664399	64	127
66.76820861678004	66.94235827664399	60	127
66.76820861678004	66.94235827664399	43	127
66.94235827664399	67.0004081632653	67	127
66.94235827664399	67.0004081632653	64	127
66.94235827664399	67.23260770975057	48	127
67.11650793650794	67.17455782312925	64	127
67.11650793650794	67.17455782312925	67	127
67.30226757369614	67.37192743764173	64	127
67.30226757369614	67.37192743764173	67	127
67.48802721088435	67.70861678004535	52	127
67.48802721088435	67.51124716553288	58	127
67.48802721088435	67.51124716553288	60	127
67.60410430839002	67.65056689342404	58	127
67.60410430839002	67.65056689342404	60	127
67.76666666666667	67.82471655328798	60	127
67.76666666666667	67.82471655328798	58	127
67.94081632653061	68.1033560090703	56	127
67.94081632653061	68.1033560090703	53	127
67.94081632653061	68.28911564625851	41	127
68.1033560090703	68.28911564625851	56	127
68.1033560090703	68.28911564625851	61	127
68.28911564625851	68.44004535147393	44	127
68.28911564625851	68.44004535147393	65	127
68.28911564625851	68.44004535147393	61	127
68.44004535147393	68.70707482993197	50	127
68.44004535147393	68.48648526077098	68	127
68.44004535147393	68.48648526077098	65	127
68.59097505668935	68.64902494331066	68	127
68.59097505668935	68.64902494331066	65	127
68.76512471655329	68.8231746031746	65	127
68.76512471655329	68.8231746031746	68	127
68.9508843537415	69.02054421768707	65	127
68.9508843537415	69.02054421768707	61	127
68.9508843537415	69.25274376417234	53	127
69.13662131519274	69.19469387755102	65	127
69.13662131519274	69.19469387755102	61	127
69.31079365079366	69.368820861678	65	127
69.31079365079366	69.368820861678	61	127
69.4849433106576	69.64746031746031	55	127
69.4849433106576	69.64746031746031	61	127
69.4849433106576	69.7984126984127	39	127
69.64746031746031	69.7984126984127	63	127
69.64746031746031	69.7984126984127	61	127
69.7984126984127	69.9841723356009	67	127
69.7984126984127	69.9841723356009	63	127
69.7984126984127	69.9841723356009	46	127
69.9841723356009	70.04222222222222	67	127
69.9841723356009	70.04222222222222	73	127
69.9841723356009	70.23959183673469	51	127
70.15829931972789	70.20476190476191	73	127
70.15829931972789	70.20476190476191	67	127
70.28600907029478	70.34408163265306	67	127
70.28600907029478	70.34408163265306	73	127
70.4601814058957	70.72721088435374	55	127
70.4601814058957	70.50662131519275	70	127
70.4601814058957	70.50662131519275	61	127
70.59950113378684	70.66916099773243	70	127
70.59950113378684	70.66916099773243	61	127
70.78526077097506	70.8317006802721	70	127
70.78526077097506	70.8317006802721	61	127
70.94780045351474	71.2844671201814	44	127
71.15675736961451	71.34253968253968	63	127
71.15675736961451	71.34253968253968	60	127
71.34253968253968	71.52829931972789	63	127
71.34253968253968	71.52829931972789	72	127
71.52829931972789	71.81854875283447	46	127
71.7140589569161	71.87659863945578	63	127
71.7140589569161	71.87659863945578	61	127
71.87659863945578	72.05072562358276	67	127
71.87659863945578	72.05072562358276	63	127
72.05072562358276	72.3409977324263	48	127
72.22489795918368	72.39904761904762	63	127
72.22489795918368	72.39904761904762	60	127
72.39904761904762	72.57319727891156	68	127
72.39904761904762	72.57319727891156	63	127
72.58480725623583	72.89827664399093	49	127
72.7821768707483	72.94469387755102	56	127
72.7821768707483	72.94469387755102	53	127
72.94469387755102	73.11886621315193	61	127
72.94469387755102	73.11886621315193	56	127
73.11886621315193	73.17689342403628	65	127
73.11886621315193	73.17689342403628	61	127
73.2814058956916	73.3510657596372	65	127
73.2814058956916	73.3510657596372	61	127
73.45553287981859	73.51360544217687	61	127
73.45553287981859	73.51360544217687	65	127
73.64131519274376	73.69936507936508	59	127
73.64131519274376	73.69936507936508	68	127
73.64131519274376	73.69936507936508	65	127
73.64131519274376	74.15215419501133	38	127
73.81544217687075	73.87351473922902	59	127
73.81544217687075	73.87351473922902	68	127
73.81544217687075	73.87351473922902	65	127
73.97800453514739	74.03605442176871	59	127
73.97800453514739	74.03605442176871	68	127
73.97800453514739	74.03605442176871	65	127
74.15215419501133	74.45399092970521	37	127
74.34952380952382	74.51206349206349	54	127
74.34952380952382	74.51206349206349	58	127
74.51206349206349	74.67460317460318	61	127
74.51206349206349	74.67460317460318	58	127
74.67460317460318	74.7326530612245	66	127
74.67460317460318	74.7326530612245	58	127
74.84875283446712	74.90680272108844	61	127
74.84875283446712	74.90680272108844	58	127
74.84875283446712	74.90680272108844	66	127
75.02290249433106	75.08095238095238	58	127
75.02290249433106	75.08095238095238	66	127
75.02290249433106	75.08095238095238	61	127
75.197052154195	75.71950113378685	50	127
75.197052154195	75.2667120181406	59	127
75.197052154195	75.2667120181406	68	127
75.197052154195	75.2667120181406	65	127
75.38281179138322	75.44086167800454	68	127
75.38281179138322	75.44086167800454	59	127
75.38281179138322	75.44086167800454	65	127
75.55696145124716	75.61501133786848	68	127
75.55696145124716	75.61501133786848	59	127
75.55696145124716	75.61501133786848	65	127
75.71950113378685	76.02136054421769	49	127
75.89365079365079	76.079410430839	54	127
75.89365079365079	76.079410430839	58	127
76.079410430839	76.25356009070295	61	127
76.079410430839	76.25356009070295	58	127
76.25356009070295	76.3	66	127
76.25356009070295	76.3	58	127
76.41609977324264	76.47412698412698	61	127
76.41609977324264	76.47412698412698	58	127
76.41609977324264	76.47412698412698	66	127
76.60183673469388	76.65990929705215	61	127
76.60183673469388	76.65990929705215	58	127
76.60183673469388	76.65990929705215	66	127
76.78761904761905	76.86888888888889	59	127
76.78761904761905	76.86888888888889	68	127
76.78761904761905	76.86888888888889	65	127
76.78761904761905	77.35650793650794	38	127
76.96176870748299	77.01981859410431	59	127
76.96176870748299	77.01981859410431	68	127
76.96176870748299	77.01981859410431	65	127
77.15913832199547	77.21718820861678	68	127
77.15913832199547	77.21718820861678	65	127
77.15913832199547	77.21718820861678	59	127
77.35650793650794	77.63514739229025	36	127
77.51904761904763	77.69319727891157	60	127
77.51904761904763	77.69319727891157	56	127
77.69319727891157	77.87893424036281	60	127
77.69319727891157	77.87893424036281	65	127
77.87893424036281	77.93700680272109	65	127
77.87893424036281	77.93700680272109	68	127
77.87893424036281	78.14598639455782	48	127
78.0298866213152	78.0879365079365	68	127
78.0298866213152	78.0879365079365	65	127
78.19242630385487	78.25047619047619	65	127
78.19242630385487	78.25047619047619	56	127
78.35496598639456	78.41301587301588	58	127
78.35496598639456	78.41301587301588	67	127
78.35496598639456	78.6568253968254	48	127
78.5291156462585	78.59877551020408	58	127
78.5291156462585	78.59877551020408	67	127
78.71487528344672	78.7497052154195	64	127
78.71487528344672	78.7497052154195	55	127
78.81936507936508	79.05156462585035	65	127
78.81936507936508	78.87741496598639	41	127
78.81936507936508	79.05156462585035	56	127
78.95868480725623	78.99351473922903	41	127
79.0980045351474	79.14444444444445	41	127
79.24893424036281	79.31859410430839	41	127
79.42308390022676	79.48113378684808	41	127
79.58562358276644	79.64365079365079	41	127
79.58562358276644	79.75977324263039	68	127
79.58562358276644	79.75977324263039	60	127
79.75977324263039	79.8178231292517	41	127
79.75977324263039	80.10807256235827	67	127
79.75977324263039	80.10807256235827	58	127
79.93392290249433	79.99197278911565	41	127
80.10807256235827	80.29383219954649	56	127
80.10807256235827	80.17770975056689	41	127
80.10807256235827	80.29383219954649	65	127
80.29383219954649	80.36349206349206	41	127
80.29383219954649	80.83950113378685	64	127
80.29383219954649	80.83950113378685	55	127
80.49120181405895	80.54925170068027	41	127
80.66532879818594	80.72340136054422	41	127
80.83950113378685	81.14136054421769	65	127
80.83950113378685	81.14136054421769	56	127
80.83950113378685	80.89755102040816	41	127
81.0136507936508	81.08331065759637	41	127
81.19941043083901	81.25746031746031	41	127
81.38517006802721	81.44321995464853	41	127
81.5592970521542	81.60575963718821	41	127
81.72185941043084	81.76829931972789	41	127
81.861179138322	81.9192290249433	41	127
82.01210884353742	82.05854875283447	41	127
82.16303854875284	82.22108843537416	41	127
82.33718820861678	82.3952380952381	41	127
82.51133786848072	82.56938775510204	41	127
82.68548752834467	82.75514739229025	41	127
82.68548752834467	82.87124716553288	56	127
82.68548752834467	82.87124716553288	65	127
82.87124716553288	83.20793650793651	67	127
82.87124716553288	82.9292970521542	41	127
82.87124716553288	83.20793650793651	58	127
83.03378684807257	83.09181405895691	41	127
83.20793650793651	83.26598639455783	41	127
83.20793650793651	83.38208616780045	68	127
83.20793650793651	83.38208616780045	60	127
83.38208616780045	83.44013605442177	41	127
83.38208616780045	83.74199546485261	61	127
83.38208616780045	83.74199546485261	70	127
83.5562358276644	83.62589569160998	41	127
83.74199546485261	83.80004535147393	41	127
83.74199546485261	83.91614512471655	72	127
83.74199546485261	83.91614512471655	63	127
83.91614512471655	84.21798185941043	73	127
83.91614512471655	83.97419501133787	41	127
83.91614512471655	84.21798185941043	65	127
84.09027210884354	84.15995464852608	41	127
84.2760544217687	84.33410430839002	46	127
84.45020408163265	84.50825396825397	46	127
84.60111111111111	84.64757369614513	46	127
84.76367346938775	84.8101133786848	46	127
84.92621315192744	84.98424036281179	48	127
85.10036281179138	85.1584126984127	48	127
85.27451247165533	85.3441723356009	48	127
85.46027210884354	85.51832199546486	48	127
85.64603174603175	85.70408163265306	48	127
85.80857142857143	85.85501133786848	41	127
85.80857142857143	85.97111111111111	68	127
85.80857142857143	85.97111111111111	60	127
85.97111111111111	86.28458049886622	67	127
85.97111111111111	86.01755102040816	41	127
85.97111111111111	86.28458049886622	58	127
86.12204081632653	86.1917006802721	41	127
86.28458049886622	86.45873015873016	56	127
86.28458049886622	86.34263038548752	41	127
86.28458049886622	86.45873015873016	65	127
86.45873015873016	86.51675736961451	41	127
86.45873015873016	86.94634920634921	64	127
86.45873015873016	86.94634920634921	55	127
86.62124716553288	86.67931972789115	41	127
86.7721768707483	86.83024943310657	41	127
86.94634920634921	87.24820861678005	65	127
86.94634920634921	87.01600907029479	41	127
86.94634920634921	87.24820861678005	56	127
87.13208616780045	87.19015873015873	41	127
87.2946485260771	87.34108843537415	41	127
87.45718820861678	87.51521541950113	41	127
87.63133786848073	87.67777777777778	41	127
87.79387755102042	87.86353741496599	41	127
87.96802721088436	88.01446712018141	42	127
88.11895691609978	88.1770068027211	42	127
88.2698866213152	88.32793650793651	42	127
88.4556462585034	88.51369614512471	42	127
88.62979591836735	88.69945578231292	42	127
88.81555555555556	88.9897052154195	61	127
88.81555555555556	88.9897052154195	70	127
88.81555555555556	88.87360544217687	42	127
88.9897052154195	89.30315192743764	68	127
88.9897052154195	89.04773242630385	42	127
88.9897052154195	89.30315192743764	59	127
89.15224489795918	89.2102947845805	42	127
89.30315192743764	89.47732426303855	58	127
89.30315192743764	89.47732426303855	66	127
89.30315192743764	89.36122448979592	42	127
89.47732426303855	90.01138321995465	65	127
89.47732426303855	89.54698412698413	42	127
89.47732426303855	90.01138321995465	56	127
89.66308390022675	89.72113378684807	42	127
89.83723356009071	89.89528344671201	42	127
90.01138321995465	90.30160997732426	58	127
90.01138321995465	90.069410430839	42	127
90.01138321995465	90.30160997732426	66	127
90.1855328798186	90.24358276643991	42	127
90.35968253968254	90.42931972789115	42	127
90.54544217687075	90.60349206349207	42	127
90.7195918367347	90.77764172335601	42	127
90.88213151927438	90.92857142857143	42	127
91.0330612244898	91.05628117913832	43	127
91.16077097505669	91.23043083900227	43	127
91.32328798185941	91.38136054421769	43	127
91.49746031746032	91.55551020408163	43	127
91.69482993197279	91.75287981859411	43	127
91.86897959183673	92.03151927437642	67	127
91.86897959183673	91.92702947845805	43	127
91.86897959183673	92.03151927437642	67	127
92.03151927437642	92.101179138322	43	127
92.03151927437642	92.34496598639456	69	127
92.03151927437642	92.34496598639456	66	127
92.1940589569161	92.24049886621316	43	127
92.34496598639456	92.5075283446712	71	127
92.34496598639456	92.39142857142858	43	127
92.34496598639456	92.5075283446712	65	127
92.5075283446712	92.56557823129252	43	127
92.5075283446712	92.8209977324263	72	127
92.5075283446712	92.8209977324263	63	127
92.65845804988662	92.71650793650794	43	127
92.8209977324263	93.00675736961452	74	127
92.8209977324263	92.89065759637188	43	127
92.8209977324263	93.00675736961452	62	127
93.00675736961452	93.06480725623582	43	127
93.00675736961452	93.3666439909297	60	127
93.00675736961452	93.54081632653062	75	127
93.18090702947846	93.23893424036281	43	127
93.3666439909297	93.98197278911564	60	127
93.3666439909297	93.42471655328798	43	127
93.54081632653062	93.59884353741496	43	127
93.54081632653062	94.0168253968254	66	127
93.71496598639456	93.78462585034013	43	127
93.90072562358277	93.95877551020408	43	127
94.07487528344672	94.13290249433106	43	127
94.07487528344672	94.53927437641724	67	127
94.07487528344672	94.53927437641724	59	127
94.24902494331066	94.30707482993198	43	127
94.4231746031746	94.48122448979592	43	127
94.59732426303854	94.66698412698413	43	127
94.78308390022676	94.84113378684808	43	127
94.9572335600907	95.02689342403629	43	127
95.11977324263039	95.16621315192744	43	127
95.28231292517007	95.34036281179138	43	127
95.4332426303855	95.50290249433107	43	127
95.61900226757369	95.67705215419501	43	127
95.76993197278911	95.82798185941043	43	127
95.95569160997732	96.01374149659864	43	127
96.12984126984126	97.12829931972789	55	127
96.12984126984126	96.17628117913833	43	127
96.26916099773243	96.35043083900227	43	127
96.4665306122449	96.52458049886621	43	127
96.64068027210884	96.6871201814059	43	127
96.80321995464853	96.86126984126984	43	127
96.96575963718821	97.02380952380952	43	127
97.12829931972789	97.19795918367348	44	127
97.12829931972789	97.96421768707484	56	127
97.3140589569161	97.36049886621315	44	127
97.45337868480726	97.51142857142857	44	127
97.6275283446712	97.68557823129251	44	127
97.79006802721088	97.8481179138322	44	127
97.96421768707484	98.02226757369614	44	127
97.96421768707484	98.1615873015873	68	127
97.96421768707484	98.1615873015873	68	127
98.1615873015873	98.21963718820862	44	127
98.1615873015873	98.49827664399093	70	127
98.1615873015873	98.49827664399093	67	127
98.33573696145125	98.39378684807257	44	127
98.49827664399093	98.67242630385488	72	127
98.49827664399093	98.55632653061224	44	127
98.49827664399093	98.67242630385488	66	127
98.67242630385488	98.9162358276644	64	127
98.67242630385488	98.7304761904762	44	127
98.67242630385488	98.9162358276644	73	127
98.84657596371882	98.88140589569161	44	127
98.9162358276644	99.07877551020408	63	127
98.9162358276644	98.97428571428571	44	127
98.9162358276644	99.07877551020408	75	127
99.07877551020408	99.1368253968254	44	127
99.07877551020408	100.01918367346939	61	127
99.07877551020408	99.58961451247166	76	127
99.25292517006802	99.31097505668934	44	127
99.41546485260771	99.47351473922903	44	127
99.58961451247166	100.05401360544218	67	127
99.58961451247166	99.64766439909297	44	127
99.77537414965987	99.83342403628117	44	127
99.94952380952381	99.99596371882086	44	127
100.10045351473923	100.54163265306123	68	127
100.10045351473923	100.15850340136055	44	127
100.10045351473923	100.54163265306123	60	127
100.25138321995465	100.2978231292517	44	127
100.41392290249433	100.47197278911564	44	127
100.59968253968253	100.65773242630385	44	127
100.77383219954649	100.8318820861678	44	127
100.95959183673469	101.01764172335601	44	127
101.13374149659865	101.21501133786848	44	127
101.33111111111111	101.38916099773243	44	127
101.50526077097506	101.56331065759638	44	127
101.679410430839	101.73746031746032	44	127
101.84195011337869	101.9	44	127
102.01609977324263	102.07414965986395	44	127
102.19024943310657	103.07260770975057	56	127
102.19024943310657	102.24829931972789	44	127
102.37600907029478	102.42244897959183	44	127
102.53854875283447	102.58498866213152	44	127
102.70108843537415	102.72430839002267	44	127
102.81718820861678	102.86362811791383	44	127
102.93328798185941	102.95650793650793	44	127
103.07260770975057	103.88530612244898	57	127
103.07260770975057	103.13065759637188	45	127
103.20031746031746	103.24675736961451	45	127
103.37446712018141	103.43251700680273	45	127
103.54861678004535	103.60666666666667	45	127
103.7227664399093	103.78081632653061	45	127
103.88530612244898	103.9433560090703	45	127
103.88530612244898	104.05945578231292	69	127
103.88530612244898	104.05945578231292	69	127
104.05945578231292	104.15233560090702	45	127
104.05945578231292	104.4425850340136	71	127
104.05945578231292	104.4425850340136	68	127
104.26843537414966	104.32648526077098	45	127
104.4425850340136	104.50063492063492	45	127
104.4425850340136	104.61673469387755	73	127
104.4425850340136	104.61673469387755	67	127
104.61673469387755	104.67478458049887	45	127
104.61673469387755	104.94181405895692	74	127
104.61673469387755	104.94181405895692	65	127
104.79088435374149	104.84893424036281	45	127
104.94181405895692	105.11596371882086	76	127
104.94181405895692	104.99986394557823	45	127
104.94181405895692	105.11596371882086	64	127
105.11596371882086	105.17401360544218	45	127
105.11596371882086	105.9518820861678	77	127
105.11596371882086	105.9518820861678	62	127
105.26689342403628	105.3249433106576	45	127
105.42943310657597	105.48748299319728	45	127
105.61519274376417	105.67324263038549	45	127
105.77773242630386	105.83578231292518	45	127
105.9518820861678	106.00993197278912	45	127
105.9518820861678	106.11442176870749	76	127
105.9518820861678	106.11442176870749	64	127
106.11442176870749	106.12603174603174	45	127
106.11442176870749	106.33501133786848	74	127
106.11442176870749	106.33501133786848	65	127
106.21891156462586	106.2653514739229	45	127
106.3930612244898	106.43950113378685	45	127
106.3930612244898	106.55560090702947	73	127
106.3930612244898	106.55560090702947	57	127
106.55560090702947	106.61365079365079	45	127
106.55560090702947	106.61365079365079	57	127
106.55560090702947	106.82263038548753	74	127
106.7065306122449	106.76458049886621	57	127
106.7065306122449	106.76458049886621	45	127
106.88068027210885	106.95034013605442	57	127
106.88068027210885	106.95034013605442	45	127
107.06643990929705	107.12448979591836	56	127
107.06643990929705	107.12448979591836	44	127
107.06643990929705	107.35668934240363	62	127
107.06643990929705	107.35668934240363	72	127
107.25219954648526	107.31024943310658	44	127
107.25219954648526	107.31024943310658	56	127
107.41473922902495	107.47278911564626	44	127
107.41473922902495	107.47278911564626	56	127
107.58888888888889	107.87913832199547	62	127
107.58888888888889	107.64693877551021	55	127
107.58888888888889	107.64693877551021	43	127
107.58888888888889	107.87913832199547	71	127
107.76303854875283	107.82108843537415	55	127
107.76303854875283	107.82108843537415	43	127
107.92557823129252	107.98362811791384	43	127
107.92557823129252	107.98362811791384	55	127
108.11133786848073	108.16938775510204	41	127
108.11133786848073	108.2738775510204	53	127
108.2738775510204	108.33192743764172	41	127
108.44802721088435	108.50607709750567	41	127
108.44802721088435	108.56412698412699	67	127
108.44802721088435	108.56412698412699	67	127
108.56412698412699	108.59895691609978	70	127
108.56412698412699	108.59895691609978	70	127
108.59895691609978	108.65700680272109	41	127
108.59895691609978	108.76149659863945	68	127
108.59895691609978	108.76149659863945	68	127
108.76149659863945	108.81954648526077	41	127
108.94725623582767	109.00530612244899	41	127
108.94725623582767	109.12140589569161	67	127
108.94725623582767	109.12140589569161	67	127
109.12140589569161	109.40004535147392	68	127
109.12140589569161	109.16784580498866	41	127
109.12140589569161	109.40004535147392	68	127
109.2839455782313	109.3419954648526	41	127
109.45809523809524	109.52775510204081	41	127
109.63224489795918	109.67868480725623	41	127
109.79478458049887	109.82961451247165	41	127
109.9108843537415	110.03859410430839	67	127
109.9108843537415	109.96893424036281	41	127
109.9108843537415	110.03859410430839	67	127
110.03859410430839	110.08503401360544	70	127
110.03859410430839	110.08503401360544	70	127
110.08503401360544	110.14308390022676	41	127
110.08503401360544	110.2591836734694	68	127
110.08503401360544	110.2591836734694	68	127
110.2591836734694	110.32884353741497	41	127
110.44494331065759	110.50299319727891	41	127
110.44494331065759	110.6307029478458	67	127
110.44494331065759	110.6307029478458	67	127
110.6307029478458	110.67714285714285	41	127
110.6307029478458	110.90934240362812	68	127
110.6307029478458	110.90934240362812	68	127
110.79324263038549	110.8512925170068	41	127
110.96739229024944	111.02544217687075	41	127
111.14154195011338	111.1995918367347	39	127
111.32730158730159	111.37374149659864	39	127
111.50145124716553	111.62916099773243	67	127
111.50145124716553	111.55950113378685	39	127
111.50145124716553	111.62916099773243	67	127
111.62916099773243	111.65238095238095	70	127
111.62916099773243	111.65238095238095	70	127
111.65238095238095	111.80331065759637	68	127
111.65238095238095	111.80331065759637	68	127
111.65238095238095	111.71043083900227	39	127
111.80331065759637	111.84975056689342	39	127
111.96585034013606	112.14	67	127
111.96585034013606	112.02390022675738	39	127
111.96585034013606	112.14	67	127
112.14	112.20965986394557	39	127
112.14	113.06879818594105	68	127
112.14	113.06879818594105	68	127
112.360589569161	112.43024943310658	39	127
112.5463492063492	112.61600907029478	39	127
112.73210884353742	112.79015873015874	38	127
112.90625850340136	112.96430839002268	38	127
113.06879818594105	113.12684807256235	38	127
113.06879818594105	113.26616780045352	67	127
113.06879818594105	113.26616780045352	67	127
113.26616780045352	113.32421768707484	36	127
113.26616780045352	113.45192743764173	63	127
113.26616780045352	113.45192743764173	63	127
113.45192743764173	113.50997732426303	36	127
113.62607709750567	113.80022675736961	65	127
113.62607709750567	113.68412698412699	36	127
113.62607709750567	113.80022675736961	65	127
113.80022675736961	114.11369614512472	43	127
113.80022675736961	114.29945578231292	62	127
113.80022675736961	114.29945578231292	62	127
114.69419501133787	114.83351473922903	67	127
114.69419501133787	114.83351473922903	67	127
114.83351473922903	114.86834467120181	70	127
114.83351473922903	114.86834467120181	70	127
114.86834467120181	115.04249433106575	68	127
114.86834467120181	115.04249433106575	68	127
115.22825396825397	115.40240362811791	67	127
115.22825396825397	115.40240362811791	67	127
115.40240362811791	116.26154195011338	70	127
115.40240362811791	116.26154195011338	70	127
116.26154195011338	116.42408163265306	68	127
116.26154195011338	116.42408163265306	68	127
116.42408163265306	116.59823129251701	63	127
116.42408163265306	116.59823129251701	63	127
116.76077097505669	116.93492063492063	65	127
116.76077097505669	116.93492063492063	65	127
116.93492063492063	117.39931972789115	62	127
116.93492063492063	117.39931972789115	62	127
117.80566893424036	117.93337868480725	67	127
117.80566893424036	117.93337868480725	67	127
117.93337868480725	117.96820861678005	70	127
117.93337868480725	117.96820861678005	70	127
117.96820861678005	118.14235827664399	68	127
117.96820861678005	118.14235827664399	68	127
118.31650793650793	118.50226757369614	67	127
118.31650793650793	118.50226757369614	67	127
118.50226757369614	118.68802721088436	75	127
118.50226757369614	118.68802721088436	75	127
118.75768707482993	118.9898866213152	74	127
118.75768707482993	118.9898866213152	74	127
119.05954648526077	119.24530612244898	72	127
119.05954648526077	119.24530612244898	72	127
119.31496598639455	119.50072562358277	71	127
119.31496598639455	119.50072562358277	71	127
119.58199546485261	119.76775510204082	72	127
119.58199546485261	119.76775510204082	72	127
119.8374149659864	119.89546485260772	70	127
119.8374149659864	119.89546485260772	70	127
120.06961451247166	120.34825396825397	67	127
120.06961451247166	120.34825396825397	67	127
120.34825396825397	120.61528344671201	68	127
120.34825396825397	120.61528344671201	68	127
120.61528344671201	120.8707029478458	60	127
120.61528344671201	120.8707029478458	60	127
120.8707029478458	121.13773242630386	62	127
120.8707029478458	121.13773242630386	62	127
121.14934240362811	121.93882086167801	63	127
121.14934240362811	121.93882086167801	63	127
121.93882086167801	122.20585034013605	62	127
121.93882086167801	122.20585034013605	62	127
122.20585034013605	122.43804988662131	65	127
122.20585034013605	122.43804988662131	65	127
122.43804988662131	122.6934693877551	63	127
122.43804988662131	122.6934693877551	63	127
122.6934693877551	122.87922902494331	59	127
122.6934693877551	122.87922902494331	59	127
123.06498866213153	123.2275283446712	60	127
123.06498866213153	123.2275283446712	60	127
123.2275283446712	123.51777777777778	67	127
123.2275283446712	123.51777777777778	67	127
124.92258503401361	125.39859410430839	54	127
125.08512471655328	125.23605442176871	62	127
125.08512471655328	125.23605442176871	60	127
125.23605442176871	125.39859410430839	62	127
125.23605442176871	125.39859410430839	69	127
125.39859410430839	125.4566439909297	72	127
125.39859410430839	125.94426303854875	55	127
125.39859410430839	125.4566439909297	69	127
125.5843537414966	125.65401360544217	62	127
125.5843537414966	125.65401360544217	72	127
125.5843537414966	125.65401360544217	69	127
125.77011337868481	125.82816326530612	67	127
125.77011337868481	125.82816326530612	62	127
125.77011337868481	125.82816326530612	72	127
125.94426303854875	126.00231292517007	72	127
125.94426303854875	126.46671201814058	57	127
125.94426303854875	126.00231292517007	62	127
125.94426303854875	126.00231292517007	66	127
126.17646258503402	126.23451247165534	72	127
126.17646258503402	126.23451247165534	66	127
126.17646258503402	126.23451247165534	62	127
126.35061224489796	126.40866213151928	62	127
126.35061224489796	126.40866213151928	72	127
126.35061224489796	126.40866213151928	66	127
126.5247619047619	127.02399092970522	54	127
126.67569160997732	126.84984126984126	60	127
126.67569160997732	126.84984126984126	62	127
126.84984126984126	127.02399092970522	62	127
126.84984126984126	127.02399092970522	69	127
127.02399092970522	127.08204081632653	72	127
127.02399092970522	127.08204081632653	69	127
127.02399092970522	127.5348299319728	55	127
127.19814058956916	127.25619047619048	62	127
127.19814058956916	127.25619047619048	72	127
127.19814058956916	127.25619047619048	69	127
127.3722902494331	127.43034013605443	72	127
127.3722902494331	127.43034013605443	62	127
127.3722902494331	127.43034013605443	67	127
127.5348299319728	127.82507936507936	43	127
127.5348299319728	127.5928798185941	67	127
127.5348299319728	127.5928798185941	62	127
127.5348299319728	127.5928798185941	71	127
127.70897959183674	127.76702947845806	71	127
127.70897959183674	127.76702947845806	67	127
127.70897959183674	127.76702947845806	62	127
127.88312925170068	127.941179138322	62	127
127.88312925170068	127.941179138322	71	127
127.88312925170068	127.941179138322	67	127
128.05727891156462	128.63777777777779	52	127
128.3126984126984	128.4752380952381	58	127
128.3126984126984	128.4752380952381	60	127
128.4752380952381	128.63777777777779	60	127
128.4752380952381	128.63777777777779	67	127
128.63777777777779	129.16022675736963	53	127
128.63777777777779	128.6958276643991	70	127
128.63777777777779	128.6958276643991	67	127
128.80031746031747	128.85834467120182	67	127
128.80031746031747	128.85834467120182	70	127
128.80031746031747	128.85834467120182	60	127
128.9744671201814	129.03251700680272	69	127
128.9744671201814	129.03251700680272	60	127
128.9744671201814	129.03251700680272	65	127
129.16022675736963	129.21825396825398	65	127
129.16022675736963	129.56657596371883	57	127
129.16022675736963	129.21825396825398	60	127
129.16022675736963	129.21825396825398	65	127
129.3227664399093	129.3691836734694	65	127
129.3227664399093	129.3691836734694	65	127
129.3227664399093	129.3691836734694	60	127
129.47367346938776	129.53174603174602	60	127
129.47367346938776	129.53174603174602	65	127
129.47367346938776	129.53174603174602	65	127
129.61301587301588	130.10063492063492	54	127
129.7871655328798	129.926485260771	62	127
129.7871655328798	129.926485260771	60	127
129.926485260771	130.10063492063492	62	127
129.926485260771	130.10063492063492	69	127
130.10063492063492	130.15868480725624	72	127
130.10063492063492	130.15868480725624	67	127
130.10063492063492	130.63469387755103	55	127
130.27478458049887	130.3328344671202	72	127
130.27478458049887	130.3328344671202	62	127
130.27478458049887	130.3328344671202	67	127
130.4489342403628	130.5185941043084	67	127
130.4489342403628	130.5185941043084	72	127
130.4489342403628	130.5185941043084	62	127
130.63469387755103	130.69274376417235	62	127
130.63469387755103	130.69274376417235	71	127
130.63469387755103	130.69274376417235	65	127
130.63469387755103	131.13392290249433	43	127
130.82045351473923	130.87850340136055	65	127
130.82045351473923	130.87850340136055	62	127
130.82045351473923	130.87850340136055	71	127
130.99460317460318	131.0526530612245	65	127
130.99460317460318	131.0526530612245	62	127
130.99460317460318	131.0526530612245	71	127
131.20358276643992	131.74925170068028	36	127
131.4009523809524	131.57510204081632	55	127
131.4009523809524	131.57510204081632	64	127
131.4009523809524	131.57510204081632	67	127
131.57510204081632	131.737641723356	55	127
131.57510204081632	131.737641723356	76	127
131.57510204081632	131.737641723356	67	127
131.74925170068028	132.22526077097507	38	127
131.9001814058957	132.0511111111111	55	127
131.9001814058957	132.0511111111111	65	127
131.9001814058957	132.0511111111111	67	127
132.0511111111111	132.22526077097507	55	127
132.0511111111111	132.22526077097507	67	127
132.0511111111111	132.22526077097507	71	127
132.22526077097507	132.68963718820862	40	127
132.399410430839	132.58517006802722	55	127
132.399410430839	132.58517006802722	64	127
132.399410430839	132.58517006802722	67	127
132.58517006802722	132.74770975056688	72	127
132.58517006802722	132.74770975056688	55	127
132.58517006802722	132.74770975056688	67	127
132.75931972789115	133.23532879818595	41	127
132.9334693877551	133.1192290249433	69	127
132.9334693877551	133.1192290249433	60	127
133.1192290249433	133.29337868480727	72	127
133.1192290249433	133.29337868480727	69	127
133.29337868480727	133.83904761904762	53	127
133.47913832199546	133.65328798185942	60	127
133.47913832199546	133.65328798185942	57	127
133.65328798185942	133.83904761904762	63	127
133.65328798185942	133.83904761904762	60	127
133.83904761904762	133.89709750566894	69	127
133.83904761904762	133.89709750566894	60	127
133.83904761904762	134.4079365079365	54	127
134.04802721088436	134.10607709750568	69	127
134.04802721088436	134.10607709750568	60	127
134.21056689342404	134.26861678004536	60	127
134.21056689342404	134.26861678004536	69	127
134.4079365079365	134.89555555555555	53	127
134.5704761904762	134.77945578231294	62	127
134.5704761904762	134.77945578231294	58	127
134.77945578231294	134.95360544217687	62	127
134.77945578231294	134.95360544217687	65	127
134.95360544217687	135.02326530612245	70	127
134.95360544217687	135.02326530612245	65	127
134.95360544217687	135.02326530612245	62	127
134.95360544217687	135.48766439909298	41	127
135.1393650793651	135.19739229024944	62	127
135.1393650793651	135.19739229024944	70	127
135.1393650793651	135.19739229024944	65	127
135.31351473922902	135.37156462585034	70	127
135.31351473922902	135.37156462585034	62	127
135.31351473922902	135.37156462585034	65	127
135.48766439909298	135.5457142857143	63	127
135.48766439909298	135.5457142857143	72	127
135.48766439909298	135.5457142857143	69	127
135.48766439909298	136.01011337868482	42	127
135.6618140589569	135.71986394557823	63	127
135.6618140589569	135.71986394557823	72	127
135.6618140589569	135.71986394557823	69	127
135.84757369614513	135.89401360544218	63	127
135.84757369614513	135.89401360544218	69	127
135.84757369614513	135.89401360544218	72	127
136.01011337868482	136.47448979591837	41	127
136.17265306122448	136.3584126984127	62	127
136.17265306122448	136.3584126984127	58	127
136.3584126984127	136.53256235827664	65	127
136.3584126984127	136.53256235827664	62	127
136.53256235827664	136.59061224489795	70	127
136.53256235827664	136.59061224489795	65	127
136.53256235827664	136.59061224489795	62	127
136.53256235827664	137.05501133786848	53	127
136.7067120181406	136.7647619047619	65	127
136.7067120181406	136.7647619047619	62	127
136.7067120181406	136.7647619047619	70	127
136.86925170068028	136.9273015873016	62	127
136.86925170068028	136.9273015873016	70	127
136.86925170068028	136.9273015873016	65	127
137.05501133786848	138.04185941043085	54	127
137.05501133786848	137.1130612244898	63	127
137.05501133786848	137.1130612244898	72	127
137.05501133786848	137.1130612244898	69	127
137.22916099773244	137.28721088435375	63	127
137.22916099773244	137.28721088435375	72	127
137.22916099773244	137.28721088435375	69	127
137.38009070294785	137.43814058956917	72	127
137.38009070294785	137.43814058956917	63	127
137.38009070294785	137.43814058956917	69	127
137.72839002267574	137.91414965986394	63	127
137.72839002267574	137.91414965986394	60	127
137.91414965986394	138.09990929705216	63	127
137.91414965986394	138.09990929705216	69	127
138.09990929705216	138.15795918367348	72	127
138.09990929705216	138.15795918367348	67	127
138.09990929705216	138.6571882086168	55	127
138.28566893424036	138.34371882086168	72	127
138.28566893424036	138.34371882086168	67	127
138.45981859410432	138.52947845804988	72	127
138.45981859410432	138.52947845804988	60	127
138.45981859410432	138.52947845804988	64	127
138.6571882086168	138.7152380952381	62	127
138.6571882086168	138.7152380952381	71	127
138.6571882086168	138.7152380952381	67	127
138.6571882086168	139.1215873015873	43	127
138.83133786848072	138.88938775510204	67	127
138.83133786848072	138.88938775510204	62	127
138.83133786848072	138.88938775510204	71	127
139.00548752834467	139.063537414966	55	127
139.00548752834467	139.063537414966	65	127
139.00548752834467	139.063537414966	71	127
139.19124716553287	139.73691609977325	42	127
139.3770068027211	139.55115646258503	60	127
139.3770068027211	139.55115646258503	63	127
139.55115646258503	139.73691609977325	63	127
139.55115646258503	139.73691609977325	69	127
139.73691609977325	139.7833560090703	67	127
139.73691609977325	139.7833560090703	72	127
139.73691609977325	140.25934240362812	43	127
139.89943310657597	139.95750566893423	67	127
139.89943310657597	139.95750566893423	72	127
140.07360544217687	140.15485260770976	72	127
140.07360544217687	140.15485260770976	64	127
140.07360544217687	140.15485260770976	60	127
140.25934240362812	140.3174149659864	62	127
140.25934240362812	140.3174149659864	71	127
140.25934240362812	140.3174149659864	67	127
140.25934240362812	140.74698412698413	55	127
140.4451247165533	140.5031746031746	62	127
140.4451247165533	140.5031746031746	71	127
140.4451247165533	140.5031746031746	67	127
140.6308843537415	140.6889342403628	71	127
140.6308843537415	140.6889342403628	65	127
140.6308843537415	140.6889342403628	55	127
140.80503401360545	141.24621315192744	54	127
140.9443537414966	141.11850340136056	60	127
140.9443537414966	141.11850340136056	63	127
141.11850340136056	141.30426303854875	69	127
141.11850340136056	141.30426303854875	63	127
141.30426303854875	141.36231292517007	72	127
141.30426303854875	141.36231292517007	69	127
141.30426303854875	141.78027210884355	53	127
141.49002267573695	141.54807256235827	72	127
141.49002267573695	141.54807256235827	63	127
141.49002267573695	141.54807256235827	69	127
141.6641723356009	141.72222222222223	63	127
141.6641723356009	141.72222222222223	72	127
141.6641723356009	141.72222222222223	69	127
141.83832199546487	141.89637188208616	64	127
141.83832199546487	141.89637188208616	72	127
141.83832199546487	141.89637188208616	69	127
141.83832199546487	142.33755102040817	52	127
141.98925170068028	142.03569160997733	72	127
141.98925170068028	142.03569160997733	64	127
141.98925170068028	142.03569160997733	69	127
142.151768707483	142.20984126984126	72	127
142.151768707483	142.20984126984126	69	127
142.151768707483	142.20984126984126	64	127
142.33755102040817	142.3956009070295	64	127
142.33755102040817	142.3956009070295	72	127
142.33755102040817	142.3956009070295	69	127
142.33755102040817	142.75551020408165	50	127
142.5117006802721	142.5581179138322	64	127
142.5117006802721	142.5581179138322	72	127
142.5117006802721	142.5581179138322	69	127
142.639410430839	142.69746031746033	72	127
142.639410430839	142.69746031746033	64	127
142.639410430839	142.69746031746033	69	127
142.813537414966	142.87160997732425	69	127
142.813537414966	142.87160997732425	65	127
142.813537414966	143.25473922902495	38	127
142.813537414966	142.87160997732425	72	127
142.97609977324262	143.03414965986394	69	127
142.97609977324262	143.03414965986394	72	127
142.97609977324262	143.03414965986394	65	127
143.16185941043085	143.2198866213152	65	127
143.16185941043085	143.2198866213152	72	127
143.16185941043085	143.2198866213152	69	127
143.301179138322	143.35922902494332	71	127
143.301179138322	143.35922902494332	55	127
143.301179138322	143.35922902494332	67	127
143.301179138322	143.7771882086168	43	127
143.301179138322	143.35922902494332	65	127
143.4869387755102	143.54498866213152	65	127
143.4869387755102	143.54498866213152	71	127
143.4869387755102	143.54498866213152	55	127
143.4869387755102	143.54498866213152	67	127
143.66108843537415	143.71913832199547	55	127
143.66108843537415	143.71913832199547	65	127
143.66108843537415	143.71913832199547	71	127
143.66108843537415	143.71913832199547	67	127
143.83521541950114	144.1487074829932	64	127
143.83521541950114	144.1487074829932	72	127
143.83521541950114	144.1487074829932	55	127
143.83521541950114	144.1487074829932	67	127
143.83521541950114	144.1487074829932	36	127
144.38090702947846	144.71759637188208	76	127
144.38090702947846	144.71759637188208	67	127
144.38090702947846	144.9033560090703	60	127
144.71759637188208	144.9033560090703	65	127
144.71759637188208	144.9033560090703	74	127
144.9033560090703	145.4025850340136	69	127
144.9033560090703	145.4025850340136	59	127
144.9033560090703	145.4025850340136	77	127
145.4025850340136	145.6812244897959	76	127
145.4025850340136	145.6812244897959	67	127
145.4025850340136	145.6812244897959	60	127
145.91342403628119	146.26172335600907	79	127
145.91342403628119	146.26172335600907	70	127
145.91342403628119	146.42426303854876	60	127
146.26172335600907	146.42426303854876	77	127
146.26172335600907	146.42426303854876	69	127
146.42426303854876	146.95832199546484	81	127
146.42426303854876	146.95832199546484	65	127
146.42426303854876	146.95832199546484	71	127
146.95832199546484	147.24857142857144	79	127
146.95832199546484	147.24857142857144	72	127
146.95832199546484	147.24857142857144	64	127
147.49238095238096	147.93356009070294	64	127
147.49238095238096	147.99160997732426	86	127
147.49238095238096	147.99160997732426	58	127
147.99160997732426	148.9552380952381	65	127
147.99160997732426	148.4443990929705	84	127
147.99160997732426	148.4443990929705	57	127
148.4443990929705	148.9552380952381	56	127
148.4443990929705	148.9552380952381	83	127
148.4443990929705	148.9552380952381	74	127
148.9552380952381	149.46607709750566	65	127
148.9552380952381	149.46607709750566	55	127
148.9552380952381	149.46607709750566	82	127
148.9552380952381	149.46607709750566	73	127
149.46607709750566	150.00013605442177	48	127
149.46607709750566	149.94208616780045	64	127
149.46607709750566	149.94208616780045	72	127
149.46607709750566	150.00013605442177	79	127
150.00013605442177	150.26716553287983	77	127
150.00013605442177	150.26716553287983	65	127
150.00013605442177	150.26716553287983	69	127
150.00013605442177	150.26716553287983	41	127
150.49936507936508	150.5574149659864	67	127
150.49936507936508	150.5574149659864	55	127
150.49936507936508	150.7895918367347	67	127
150.49936507936508	150.7895918367347	55	127
150.66190476190476	150.71995464852608	55	127
150.66190476190476	150.71995464852608	67	127
150.84766439909296	150.90571428571428	55	127
150.84766439909296	150.90571428571428	67	127
151.02181405895692	151.07986394557824	55	127
151.02181405895692	151.07986394557824	67	127
151.1959410430839	151.25401360544217	67	127
151.1959410430839	151.25401360544217	55	127
151.38172335600908	151.4397732426304	67	127
151.38172335600908	151.4397732426304	55	127
151.56748299319727	151.6255328798186	67	127
151.56748299319727	151.6255328798186	55	127
151.56748299319727	151.85773242630387	55	127
151.56748299319727	151.85773242630387	67	127
151.74163265306123	151.79968253968255	55	127
151.74163265306123	151.79968253968255	67	127
151.91578231292516	151.97383219954648	55	127
151.91578231292516	151.97383219954648	67	127
152.08993197278912	152.14798185941044	55	127
152.08993197278912	152.14798185941044	67	127
152.08993197278912	152.36857142857144	55	127
152.08993197278912	152.36857142857144	67	127
152.26408163265307	152.31052154195012	55	127
152.26408163265307	152.31052154195012	67	127
152.4150113378685	152.47303854875284	67	127
152.4150113378685	152.47303854875284	55	127
152.5775283446712	152.63560090702947	67	127
152.5775283446712	152.63560090702947	55	127
152.72845804988663	152.76331065759638	67	127
152.72845804988663	152.76331065759638	55	127
152.86780045351475	152.92585034013607	67	127
152.86780045351475	152.92585034013607	55	127
153.05356009070294	153.320589569161	67	127
153.05356009070294	153.320589569161	48	127
153.55278911564625	154.01718820861677	64	127
153.55278911564625	154.01718820861677	58	127
153.55278911564625	154.01718820861677	73	127
153.55278911564625	154.01718820861677	67	127
154.01718820861677	154.46995464852608	65	127
154.01718820861677	154.46995464852608	68	127
154.01718820861677	154.52802721088435	56	127
154.01718820861677	154.52802721088435	72	127
154.52802721088435	155.0272335600907	71	127
154.52802721088435	155.0272335600907	62	127
154.52802721088435	155.0272335600907	65	127
154.52802721088435	155.0272335600907	55	127
155.0272335600907	155.5497052154195	65	127
155.0272335600907	155.5497052154195	43	127
155.0272335600907	155.5497052154195	70	127
155.0272335600907	155.5497052154195	61	127
155.5497052154195	156.0257142857143	64	127
155.5497052154195	156.0257142857143	67	127
155.5497052154195	156.0257142857143	58	127
155.5497052154195	156.0257142857143	36	127
156.0837641723356	156.36238095238096	65	127
156.0837641723356	156.36238095238096	57	127
156.0837641723356	156.36238095238096	65	127
156.0837641723356	156.36238095238096	41	127
156.5829931972789	156.64104308390023	55	127
156.5829931972789	156.64104308390023	43	127
156.5829931972789	156.87321995464853	55	127
156.5829931972789	156.87321995464853	67	127
156.76873015873016	156.82680272108843	43	127
156.76873015873016	156.82680272108843	55	127
156.9312925170068	156.98934240362811	43	127
156.9312925170068	156.98934240362811	55	127
157.11705215419502	157.16349206349207	55	127
157.11705215419502	157.16349206349207	43	127
157.26798185941044	157.32603174603176	43	127
157.26798185941044	157.32603174603176	55	127
157.45374149659864	157.51179138321996	43	127
157.45374149659864	157.51179138321996	55	127
157.6394784580499	157.68591836734694	55	127
157.6394784580499	157.68591836734694	43	127
157.6394784580499	157.91814058956916	67	127
157.6394784580499	157.91814058956916	55	127
157.80204081632652	157.86009070294784	43	127
157.80204081632652	157.86009070294784	55	127
157.97619047619048	158.0342403628118	43	127
157.97619047619048	158.0342403628118	55	127
158.13873015873017	158.20839002267573	55	127
158.13873015873017	158.20839002267573	43	127
158.13873015873017	158.440589569161	55	127
158.13873015873017	158.440589569161	67	127
158.3128798185941	158.37092970521542	43	127
158.3128798185941	158.37092970521542	55	127
158.49863945578232	158.55666666666667	43	127
158.49863945578232	158.55666666666667	55	127
158.67278911564625	158.73083900226757	43	127
158.67278911564625	158.73083900226757	55	127
158.85854875283448	158.91657596371883	55	127
158.85854875283448	158.91657596371883	43	127
159.0326984126984	159.09074829931973	55	127
159.0326984126984	159.09074829931973	43	127
159.1952380952381	159.26489795918368	36	127
159.1952380952381	159.47387755102042	48	127
159.3809977324263	159.4274149659864	36	127
159.5087074829932	159.55514739229025	36	127
159.6712471655329	159.71768707482994	36	127
159.8337641723356	159.84539682539682	36	127
159.96149659863946	160.01954648526078	36	127
159.96149659863946	160.14725623582765	55	127
159.96149659863946	160.14725623582765	64	127
160.14725623582765	160.20530612244897	36	127
160.14725623582765	160.49555555555557	62	127
160.14725623582765	160.49555555555557	53	127
160.3214058956916	160.37945578231293	36	127
160.49555555555557	160.68131519274377	60	127
160.49555555555557	160.68131519274377	52	127
160.49555555555557	160.55358276643992	36	127
160.68131519274377	161.18054421768707	50	127
160.68131519274377	160.7393650793651	36	127
160.68131519274377	161.18054421768707	59	127
160.83224489795919	160.8902947845805	36	127
161.00639455782314	161.0644217687075	36	127
161.18054421768707	161.4824036281179	60	127
161.18054421768707	161.4824036281179	52	127
161.18054421768707	161.25020408163266	36	127
161.36628117913833	161.4243537414966	36	127
161.54045351473923	161.70299319727891	64	127
161.54045351473923	161.58689342403628	36	127
161.54045351473923	161.70299319727891	55	127
161.70299319727891	162.08609977324264	53	127
161.70299319727891	161.76104308390023	36	127
161.70299319727891	162.08609977324264	62	127
161.8887528344671	161.9584126984127	36	127
162.08609977324264	162.1441723356009	36	127
162.08609977324264	162.2718820861678	60	127
162.08609977324264	162.2718820861678	52	127
162.2718820861678	162.78272108843538	59	127
162.2718820861678	162.32993197278913	36	127
162.2718820861678	162.78272108843538	50	127
162.44603174603174	162.50408163265305	36	127
162.60857142857142	162.66662131519274	36	127
162.78272108843538	162.82916099773243	36	127
162.78272108843538	163.01492063492063	60	127
162.78272108843538	163.01492063492063	52	127
162.9336507936508	162.99170068027212	36	127
163.01492063492063	163.06136054421768	36	127
163.01492063492063	163.16585034013605	60	127
163.01492063492063	163.16585034013605	52	127
163.16585034013605	163.5257596371882	62	127
163.16585034013605	163.22390022675737	36	127
163.16585034013605	163.5257596371882	53	127
163.34	163.39804988662132	36	127
163.5257596371882	163.69990929705216	55	127
163.5257596371882	163.58380952380952	36	127
163.5257596371882	163.69990929705216	64	127
163.69990929705216	164.03659863945578	65	127
163.69990929705216	164.03659863945578	57	127
163.69990929705216	163.75795918367348	36	127
163.86244897959185	163.92049886621317	36	127
164.03659863945578	164.0946485260771	36	127
164.03659863945578	164.21074829931973	67	127
164.03659863945578	164.21074829931973	60	127
164.21074829931973	164.73319727891158	65	127
164.21074829931973	164.73319727891158	68	127
164.21074829931973	164.26879818594105	36	127
164.39650793650793	164.45455782312925	36	127
164.55904761904762	164.61709750566894	36	127
164.73319727891158	164.79122448979592	36	127
164.73319727891158	165.18598639455783	71	127
164.73319727891158	165.18598639455783	62	127
164.8957142857143	164.9421768707483	36	127
165.05827664399092	165.11632653061224	36	127
165.24403628117915	165.59233560090703	72	127
165.24403628117915	165.59233560090703	64	127
165.24403628117915	165.3020634920635	36	127
165.41818594104308	165.4762358276644	36	127
165.59233560090703	165.65038548752835	36	127
165.59233560090703	165.77809523809523	74	127
165.59233560090703	165.77809523809523	67	127
165.77809523809523	166.32376417233561	72	127
165.77809523809523	165.83614512471655	36	127
165.77809523809523	166.32376417233561	75	127
165.9522448979592	166.0102947845805	36	127
166.1380045351474	166.1960544217687	36	127
166.32376417233561	166.7649433106576	78	127
166.32376417233561	166.38179138321996	36	127
166.32376417233561	166.7649433106576	69	127
166.49791383219954	166.5443537414966	36	127
166.66045351473923	166.70689342403628	36	127
166.82299319727892	166.88104308390024	36	127
166.82299319727892	167.41510204081632	79	127
166.82299319727892	167.41510204081632	67	127
167.0203628117914	167.0784126984127	36	127
167.2409523809524	167.29897959183674	36	127
167.41510204081632	168.4715873015873	69	127
167.41510204081632	167.47315192743764	36	127
167.41510204081632	168.4715873015873	81	127
167.58925170068028	167.6473015873016	36	127
167.7634013605442	167.82145124716553	36	127
167.94916099773243	168.00721088435375	36	127
168.12331065759636	168.18136054421768	36	127
168.29746031746032	168.35551020408164	36	127
168.4715873015873	168.52965986394557	36	127
168.4715873015873	169.41201814058957	82	127
168.4715873015873	169.41201814058957	70	127
168.6457596371882	168.68056689342404	36	127
168.7386394557823	168.79668934240362	36	127
168.901179138322	168.9592290249433	36	127
169.07532879818595	169.13337868480727	36	127
169.24947845804988	169.29591836734693	36	127
169.41201814058957	169.8531746031746	83	127
169.41201814058957	169.8531746031746	71	127
169.41201814058957	169.47006802721089	36	127
169.58616780045352	169.64421768707484	36	127
169.7487074829932	169.80673469387756	36	127
169.91124716553287	173.10399092970522	72	127
169.91124716553287	169.9692970521542	36	127
169.91124716553287	176.55213151927438	84	127
170.1085941043084	170.16666666666666	36	127
170.2827664399093	170.34081632653061	36	127
170.46850340136055	170.51496598639457	36	127
170.63106575963718	170.67750566893423	36	127
170.80521541950114	170.86326530612246	36	127
170.97934240362812	171.04902494331066	36	127
171.15351473922902	171.21156462585034	36	127
171.33925170068028	171.3508843537415	36	127
171.46698412698413	171.52503401360545	36	127
171.65274376417233	171.72240362811792	36	127
171.83850340136055	171.90816326530611	36	127
172.02426303854875	172.08231292517007	36	127
172.21002267573695	172.26807256235827	36	127
172.3841723356009	172.44222222222223	36	127
172.5699319727891	172.6163492063492	36	127
172.7324716553288	172.80213151927438	36	127
172.91823129251702	172.98789115646258	36	127
173.10399092970522	173.1736507936508	36	127
173.10399092970522	179.47786848072562	72	127
173.3013605442177	173.359410430839	36	127
173.49873015873015	173.5451700680272	36	127
173.6728798185941	173.74251700680273	36	127
173.87024943310658	173.93990929705217	36	127
174.05600907029478	174.1140589569161	36	127
174.241768707483	174.31142857142856	36	127
174.43913832199547	174.4971882086168	36	127
174.62489795918367	174.69455782312926	36	127
174.82226757369614	174.903537414966	36	127
175.04285714285714	175.11251700680273	36	127
175.2170068027211	175.2402267573696	36	127
175.37954648526076	175.44920634920635	36	127
175.565306122449	175.63496598639455	36	127
175.76267573696146	175.83231292517007	36	127
175.96004535147392	176.01809523809524	36	127
176.13419501133788	176.20385487528344	36	127
176.33156462585035	176.4012244897959	36	127
176.55213151927438	179.47786848072562	84	127
176.55213151927438	176.61020408163265	36	127
176.66825396825396	176.73791383219955	36	127
176.88884353741497	176.9701133786848	36	127
177.12104308390022	177.20231292517008	36	127
177.33002267573696	177.4112925170068	36	127
177.55061224489796	177.6318820861678	36	127
177.71315192743765	177.7828117913832	36	127
177.9453514739229	178.0150113378685	36	127
178.17755102040817	178.24721088435373	36	127
178.39814058956915	178.479410430839	36	127
178.63034013605443	178.67678004535148	36	127
178.71160997732426	178.7464172335601	36	127
178.89736961451248	178.97863945578231	36	127
179.12956916099773	179.17600907029478	36	127
179.17600907029478	179.31532879818593	36	127
179.37337868480725	179.53591836734694	36	127
179.65201814058958	179.8725850340136	36	127
181.28902494331066	181.40510204081633	63	127
181.40510204081633	181.64893424036282	68	127
181.64893424036282	181.79986394557824	72	127
181.79986394557824	182.14816326530612	75	127
182.14816326530612	182.38034013605443	72	127
182.51968253968255	182.91442176870748	75	127
182.91442176870748	183.08857142857144	72	127
183.27433106575964	183.65743764172336	78	127
183.65743764172336	183.88965986394558	75	127
184.06378684807257	184.30761904761906	73	127
184.30761904761906	184.43532879818594	75	127
184.43532879818594	184.87650793650795	73	127
184.87650793650795	185.15514739229025	72	127
185.2015873015873	185.44537414965987	70	127
185.44537414965987	185.54986394557824	68	127
185.54986394557824	185.94462585034015	67	127
185.94462585034015	186.29292517006803	70	127
186.35097505668935	186.5831746031746	63	127
186.93145124716554	187.07079365079366	46	127
186.93145124716554	187.07079365079366	58	127
187.07079365079366	187.33780045351475	51	127
187.07079365079366	187.33780045351475	63	127
187.33780045351475	187.4422902494331	55	127
187.33780045351475	187.4422902494331	67	127
187.4422902494331	187.84863945578232	70	127
187.4422902494331	187.84863945578232	58	127
187.84863945578232	188.08086167800454	67	127
187.84863945578232	188.08086167800454	55	127
188.20854875283447	188.63814058956916	58	127
188.20854875283447	188.63814058956916	70	127
188.63814058956916	188.83551020408163	67	127
188.63814058956916	188.83551020408163	55	127
188.99804988662132	189.42761904761906	73	127
188.99804988662132	189.42761904761906	61	127
189.42761904761906	189.5669387755102	70	127
189.42761904761906	189.5669387755102	58	127
189.71786848072563	190.03133786848073	68	127
189.71786848072563	190.03133786848073	56	127
190.03133786848073	190.20548752834466	70	127
190.03133786848073	190.20548752834466	58	127
190.20548752834466	190.60022675736963	56	127
190.20548752834466	190.60022675736963	68	127
190.60022675736963	190.86725623582765	67	127
190.60022675736963	190.86725623582765	55	127
190.9136961451247	191.1691156462585	65	127
190.9136961451247	191.1691156462585	53	127
191.1691156462585	191.2968253968254	63	127
191.1691156462585	191.2968253968254	51	127
191.2968253968254	191.62190476190477	61	127
191.2968253968254	191.62190476190477	49	127
191.62190476190477	191.99342403628117	51	127
191.62190476190477	191.99342403628117	63	127
192.295283446712	192.41138321995464	59	127
192.295283446712	192.41138321995464	47	127
192.41138321995464	192.69002267573697	64	127
192.41138321995464	192.69002267573697	52	127
192.69002267573697	192.7480725623583	68	127
192.69002267573697	192.7480725623583	56	127
192.69002267573697	192.7480725623583	71	127
192.7480725623583	193.06154195011337	76	127
192.7480725623583	193.22408163265305	71	127
192.7480725623583	193.22408163265305	59	127
193.06154195011337	193.22408163265305	80	127
193.22408163265305	193.42145124716552	68	127
193.22408163265305	193.42145124716552	56	127
193.22408163265305	193.5607709750567	83	127
193.5607709750567	194.02517006802722	59	127
193.5607709750567	193.81619047619049	80	127
193.5607709750567	194.02517006802722	71	127
194.02517006802722	194.2457596371882	68	127
194.02517006802722	194.2457596371882	56	127
194.02517006802722	194.32702947845806	83	127
194.32702947845806	194.69854875283445	62	127
194.32702947845806	194.60566893424036	80	127
194.32702947845806	194.69854875283445	74	127
194.69854875283445	194.91913832199546	59	127
194.69854875283445	194.91913832199546	71	127
194.69854875283445	195.09328798185942	86	127
195.09328798185942	195.74344671201814	75	127
195.09328798185942	195.3487074829932	63	127
195.09328798185942	195.30226757369616	83	127
195.3487074829932	195.46480725623582	61	127
195.47641723356008	195.74344671201814	87	127
195.47641723356008	195.74344671201814	59	127
195.74344671201814	195.9175963718821	85	127
195.74344671201814	195.9175963718821	73	127
195.74344671201814	195.9175963718821	58	127
195.9175963718821	196.3239455782313	56	127
195.9175963718821	196.3239455782313	83	127
195.9175963718821	196.3239455782313	71	127
196.3239455782313	196.62580498866214	51	127
196.3239455782313	196.62580498866214	82	127
196.3239455782313	196.62580498866214	70	127
196.68385487528346	196.92766439909298	68	127
196.68385487528346	197.03215419501134	48	127
196.68385487528346	197.3572335600907	80	127
196.92766439909298	197.03215419501134	66	127
197.03215419501134	197.3572335600907	49	127
197.03215419501134	197.3572335600907	64	127
197.3572335600907	197.81002267573697	52	127
197.3572335600907	197.6707029478458	68	127
197.3572335600907	197.81002267573697	61	127
197.85646258503402	197.93773242630385	43	127
197.93773242630385	198.0538321995465	44	127
198.0538321995465	198.21637188208618	43	127
198.0538321995465	198.21637188208618	48	127
198.21637188208618	198.35569160997733	44	127
198.21637188208618	198.35569160997733	51	127
198.35569160997733	198.51823129251702	56	127
198.51823129251702	198.66916099773243	60	127
198.66916099773243	198.82009070294785	63	127
198.82009070294785	198.99424036281178	65	127
198.99424036281178	199.0871201814059	63	127
199.0871201814059	199.2148299319728	60	127
199.2148299319728	199.37736961451247	61	127
199.37736961451247	199.5282993197279	60	127
199.5282993197279	199.59795918367348	63	127
199.59795918367348	199.70244897959185	65	127
199.70244897959185	199.8649886621315	63	127
199.8649886621315	199.96947845804988	60	127
199.96947845804988	200.1204081632653	61	127
200.1204081632653	200.2713378684807	60	127
200.2713378684807	200.4106575963719	66	127
200.4106575963719	200.48031746031745	68	127
200.48031746031745	200.58480725623582	66	127
200.58480725623582	200.724126984127	63	127
200.724126984127	200.87505668934241	65	127
200.87505668934241	201.02598639455783	63	127
201.02598639455783	201.1304761904762	66	127
201.1304761904762	201.25818594104308	68	127
201.25818594104308	201.42072562358277	66	127
201.42072562358277	201.59487528344673	65	127
201.59487528344673	201.7225850340136	66	127
201.7225850340136	201.83868480725624	65	127
201.83868480725624	202.01283446712017	67	127
202.01283446712017	202.1637641723356	65	127
202.1637641723356	202.30308390022677	67	127
202.30308390022677	202.41918367346938	68	127
202.41918367346938	202.53528344671201	67	127
202.53528344671201	202.68621315192743	68	127
202.68621315192743	202.94163265306122	70	127
202.68621315192743	202.84875283446712	70	127
202.84875283446712	202.99968253968254	72	127
202.99968253968254	203.15061224489796	74	127
203.15061224489796	203.31315192743764	75	127
203.31315192743764	203.44086167800452	74	127
203.44086167800452	203.59179138321994	75	127
203.59179138321994	203.75433106575963	77	127
203.75433106575963	203.77755102040817	75	127
203.77755102040817	203.88204081632654	77	127
203.8936507936508	204.05619047619047	38	127
203.8936507936508	204.10263038548752	79	127
204.05619047619047	204.12585034013605	39	127
204.12585034013605	204.25356009070296	55	127
204.12585034013605	204.25356009070296	67	127
204.12585034013605	204.25356009070296	38	127
204.25356009070296	204.41609977324262	39	127
204.25356009070296	204.41609977324262	70	127
204.25356009070296	204.41609977324262	58	127
204.41609977324262	204.520589569161	75	127
204.41609977324262	204.520589569161	63	127
204.520589569161	204.6715192743764	79	127
204.520589569161	204.6715192743764	67	127
204.6715192743764	204.82244897959183	82	127
204.6715192743764	204.82244897959183	70	127
204.82244897959183	204.9849886621315	72	127
204.82244897959183	204.9849886621315	84	127
204.9849886621315	205.1475283446712	82	127
204.9849886621315	205.1475283446712	70	127
205.1475283446712	205.25201814058957	79	127
205.1475283446712	205.25201814058957	67	127
205.25201814058957	205.37972789115645	68	127
205.25201814058957	205.37972789115645	80	127
205.37972789115645	205.5306575963719	79	127
205.37972789115645	205.5306575963719	67	127
205.5306575963719	205.57709750566895	70	127
205.5306575963719	205.57709750566895	82	127
205.57709750566895	205.69319727891155	84	127
205.57709750566895	205.69319727891155	72	127
205.69319727891155	205.85573696145124	82	127
205.69319727891155	205.85573696145124	70	127
205.85573696145124	205.98344671201815	67	127
205.85573696145124	205.98344671201815	79	127
205.98344671201815	206.1459863945578	68	127
205.98344671201815	206.1459863945578	80	127
206.1459863945578	206.3085260770975	79	127
206.1459863945578	206.3085260770975	67	127
206.3085260770975	206.42462585034014	85	127
206.3085260770975	206.42462585034014	73	127
206.42462585034014	206.5291156462585	87	127
206.42462585034014	206.5291156462585	75	127
206.5291156462585	206.68004535147392	85	127
206.5291156462585	206.68004535147392	73	127
206.68004535147392	206.81936507936507	82	127
206.68004535147392	206.81936507936507	70	127
206.81936507936507	206.99351473922903	72	127
206.81936507936507	206.99351473922903	84	127
206.99351473922903	207.08639455782313	82	127
206.99351473922903	207.08639455782313	70	127
207.08639455782313	207.16766439909298	88	127
207.08639455782313	207.16766439909298	76	127
207.16766439909298	207.30698412698413	90	127
207.16766439909298	207.30698412698413	78	127
207.30698412698413	207.45791383219955	76	127
207.30698412698413	207.45791383219955	88	127
207.45791383219955	207.5972335600907	87	127
207.45791383219955	207.5972335600907	75	127
207.5972335600907	207.7597732426304	76	127
207.5972335600907	207.7597732426304	88	127
207.7597732426304	207.9107029478458	87	127
207.7597732426304	207.9107029478458	75	127
207.9107029478458	207.96875283446713	85	127
207.9107029478458	207.96875283446713	73	127
207.96875283446713	208.096462585034	75	127
207.96875283446713	208.096462585034	87	127
208.096462585034	208.24739229024942	85	127
208.096462585034	208.24739229024942	73	127
208.24739229024942	208.36349206349206	84	127
208.24739229024942	208.36349206349206	72	127
208.36349206349206	208.51442176870748	73	127
208.36349206349206	208.51442176870748	85	127
208.51442176870748	208.6653514739229	72	127
208.51442176870748	208.6653514739229	84	127
208.6653514739229	208.78145124716553	83	127
208.6653514739229	208.78145124716553	71	127
208.78145124716553	208.92077097505668	73	127
208.78145124716553	208.92077097505668	85	127
208.92077097505668	209.0717006802721	83	127
208.92077097505668	209.0717006802721	71	127
209.0717006802721	209.21102040816328	82	127
209.0717006802721	209.21102040816328	70	127
209.21102040816328	209.3619501133787	71	127
209.21102040816328	209.3619501133787	83	127
209.3619501133787	209.4780498866213	82	127
209.3619501133787	209.4780498866213	70	127
209.4780498866213	209.58253968253968	75	127
209.4780498866213	209.58253968253968	63	127
209.58253968253968	209.72185941043085	64	127
209.58253968253968	209.72185941043085	76	127
209.72185941043085	209.8843990929705	75	127
209.72185941043085	209.8843990929705	63	127
209.89600907029478	210.05854875283447	55	127
209.89600907029478	210.05854875283447	43	127
210.05854875283447	210.19786848072562	44	127
210.05854875283447	210.19786848072562	56	127
210.19786848072562	210.32557823129252	43	127
210.19786848072562	210.32557823129252	55	127
210.32557823129252	210.4881179138322	56	127
210.32557823129252	210.4881179138322	44	127
210.63904761904763	210.7667573696145	71	127
210.7667573696145	210.96412698412698	76	127
210.96412698412698	211.08022675736962	47	127
210.96412698412698	211.08022675736962	80	127
210.96412698412698	211.08022675736962	59	127
211.08022675736962	211.4981859410431	83	127
211.08022675736962	211.35886621315194	64	127
211.08022675736962	211.35886621315194	52	127
211.35886621315194	211.4981859410431	68	127
211.35886621315194	211.4981859410431	56	127
211.4981859410431	211.91614512471656	71	127
211.4981859410431	211.7419954648526	80	127
211.4981859410431	211.91614512471656	59	127
211.91614512471656	212.07868480725622	68	127
211.91614512471656	212.07868480725622	56	127
211.91614512471656	212.26444444444445	83	127
212.26444444444445	212.4734240362812	80	127
212.26444444444445	212.63596371882088	74	127
212.26444444444445	212.63596371882088	62	127
212.63596371882088	213.08875283446713	86	127
212.63596371882088	212.86816326530612	71	127
212.63596371882088	212.86816326530612	59	127
213.08875283446713	213.77374149659863	75	127
213.08875283446713	213.29773242630387	83	127
213.08875283446713	213.34417233560092	63	127
213.34417233560092	213.50671201814058	61	127
213.50671201814058	214.27297052154196	87	127
213.50671201814058	213.77374149659863	59	127
213.77374149659863	213.86662131519273	73	127
213.77374149659863	213.86662131519273	58	127
213.86662131519273	214.27297052154196	71	127
213.86662131519273	214.27297052154196	56	127
214.27297052154196	215.06244897959184	75	127
214.27297052154196	214.6677097505669	70	127
214.27297052154196	214.6677097505669	51	127
214.70253968253968	214.89990929705215	68	127
214.70253968253968	214.89990929705215	47	127
214.89990929705215	215.06244897959184	63	127
214.89990929705215	215.06244897959184	46	127
215.06244897959184	215.46879818594104	59	127
215.06244897959184	215.28303854875284	63	127
215.06244897959184	215.46879818594104	44	127
215.46879818594104	215.88675736961451	39	127
215.46879818594104	215.88675736961451	58	127
215.94480725623583	216.25827664399094	69	127
215.94480725623583	216.25827664399094	66	127
215.94480725623583	216.25827664399094	63	127
216.25827664399094	216.43242630385487	62	127
216.25827664399094	216.43242630385487	71	127
216.25827664399094	216.43242630385487	68	127
216.43242630385487	216.88521541950112	66	127
216.43242630385487	216.88521541950112	69	127
216.43242630385487	216.88521541950112	63	127
216.88521541950112	217.23351473922904	63	127
216.88521541950112	217.23351473922904	78	127
216.88521541950112	217.23351473922904	57	127
217.29156462585033	217.58181405895692	76	127
217.29156462585033	217.58181405895692	64	127
217.29156462585033	217.58181405895692	56	127
217.58181405895692	217.73274376417234	55	127
217.58181405895692	217.73274376417234	75	127
217.58181405895692	217.73274376417234	66	127
217.73274376417234	218.15070294784582	64	127
217.73274376417234	218.15070294784582	76	127
217.73274376417234	218.15070294784582	56	127
218.15070294784582	218.58027210884353	68	127
218.15070294784582	218.58027210884353	68	127
218.15070294784582	218.58027210884353	64	127
218.62671201814058	218.89374149659864	69	127
218.62671201814058	218.89374149659864	63	127
218.62671201814058	218.89374149659864	66	127
218.89374149659864	219.05628117913832	62	127
218.89374149659864	219.05628117913832	68	127
218.89374149659864	219.05628117913832	71	127
219.05628117913832	219.55551020408163	69	127
219.05628117913832	219.55551020408163	66	127
219.05628117913832	219.55551020408163	63	127
219.55551020408163	219.9734693877551	63	127
219.55551020408163	219.9734693877551	57	127
219.55551020408163	219.9734693877551	78	127
220.01990929705215	220.25210884353743	76	127
220.01990929705215	220.25210884353743	56	127
220.01990929705215	220.25210884353743	64	127
220.25210884353743	220.4146485260771	75	127
220.25210884353743	220.4146485260771	55	127
220.25210884353743	220.4146485260771	66	127
220.4146485260771	220.84421768707483	76	127
220.4146485260771	220.84421768707483	64	127
220.4146485260771	220.84421768707483	56	127
220.84421768707483	221.23895691609977	64	127
220.84421768707483	221.23895691609977	68	127
220.84421768707483	221.23895691609977	68	127
221.28539682539682	221.5408163265306	76	127
221.28539682539682	221.5408163265306	56	127
221.28539682539682	221.5408163265306	64	127
221.5408163265306	221.69174603174602	75	127
221.5408163265306	221.69174603174602	55	127
221.5408163265306	221.69174603174602	66	127
221.69174603174602	222.08648526077098	56	127
221.69174603174602	222.08648526077098	64	127
221.69174603174602	222.08648526077098	76	127
222.08648526077098	222.52766439909297	68	127
222.08648526077098	222.52766439909297	64	127
222.08648526077098	222.52766439909297	68	127
222.59732426303856	222.87596371882086	76	127
222.59732426303856	222.87596371882086	52	127
222.59732426303856	222.96884353741495	69	127
222.87596371882086	223.015283446712	78	127
222.87596371882086	223.015283446712	64	127
223.02689342403627	223.29392290249433	64	127
223.02689342403627	223.29392290249433	78	127
223.02689342403627	223.73510204081632	70	127
223.29392290249433	223.44485260770975	79	127
223.29392290249433	223.44485260770975	52	127
223.44485260770975	223.65383219954649	79	127
223.44485260770975	223.65383219954649	52	127
223.65383219954649	223.81637188208617	80	127
223.65383219954649	223.81637188208617	64	127
223.81637188208617	224.12984126984128	80	127
223.81637188208617	224.12984126984128	59	127
223.81637188208617	224.29238095238094	52	127
224.12984126984128	224.29238095238094	71	127
224.12984126984128	224.29238095238094	81	127
224.29238095238094	224.57102040816326	81	127
224.29238095238094	224.73356009070295	54	127
224.29238095238094	224.57102040816326	71	127
224.57102040816326	224.73356009070295	82	127
224.57102040816326	224.73356009070295	59	127
224.73356009070295	225.15151927437643	63	127
224.73356009070295	225.04702947845806	82	127
224.73356009070295	225.04702947845806	59	127
225.04702947845806	225.20956916099775	71	127
225.04702947845806	225.20956916099775	83	127
225.20956916099775	225.63913832199546	71	127
225.20956916099775	225.63913832199546	64	127
225.20956916099775	225.69718820861678	83	127
225.69718820861678	225.90616780045352	80	127
226.0687074829932	226.3473469387755	63	127
226.0687074829932	226.3473469387755	71	127
226.0687074829932	226.3473469387755	69	127
226.0687074829932	226.40539682539682	82	127
226.40539682539682	226.5679365079365	83	127
226.5679365079365	227.03233560090703	83	127
227.03233560090703	227.5431746031746	68	127
227.03233560090703	227.33419501133787	74	127
227.03233560090703	227.33419501133787	64	127
227.03233560090703	227.33419501133787	71	127
227.5431746031746	228.03079365079364	64	127
228.03079365079364	228.5416326530612	62	127
228.5416326530612	229.04086167800455	59	127
228.5416326530612	229.04086167800455	56	127
229.04086167800455	229.64458049886622	57	127
229.04086167800455	229.64458049886622	60	127
229.70263038548754	230.02770975056688	55	127
229.70263038548754	230.02770975056688	61	127
229.70263038548754	230.02770975056688	58	127
230.02770975056688	230.20185941043084	54	127
230.02770975056688	230.20185941043084	60	127
230.02770975056688	230.20185941043084	63	127
230.20185941043084	230.70108843537415	58	127
230.20185941043084	230.70108843537415	55	127
230.20185941043084	230.70108843537415	61	127
230.70108843537415	231.11904761904762	49	127
230.70108843537415	231.11904761904762	55	127
230.70108843537415	231.11904761904762	70	127
231.16548752834467	231.444126984127	56	127
231.16548752834467	231.444126984127	48	127
231.16548752834467	231.444126984127	68	127
231.444126984127	231.60666666666665	67	127
231.444126984127	231.60666666666665	58	127
231.444126984127	231.60666666666665	49	127
231.60666666666665	232.04784580498867	68	127
231.60666666666665	232.04784580498867	48	127
231.60666666666665	232.04784580498867	56	127
232.04784580498867	232.48902494331065	60	127
232.04784580498867	232.48902494331065	60	127
232.04784580498867	232.48902494331065	56	127
232.54707482993197	232.81410430839003	55	127
232.54707482993197	232.81410430839003	61	127
232.54707482993197	232.81410430839003	58	127
232.81410430839003	232.9418140589569	63	127
232.81410430839003	232.9418140589569	54	127
232.81410430839003	232.9418140589569	60	127
232.9418140589569	233.4178231292517	55	127
232.9418140589569	233.4178231292517	58	127
232.9418140589569	233.4178231292517	61	127
233.4178231292517	233.7312925170068	49	127
233.4178231292517	233.7312925170068	55	127
233.4178231292517	233.7312925170068	70	127
233.77773242630386	234.05637188208615	48	127
233.77773242630386	234.05637188208615	56	127
233.77773242630386	234.05637188208615	68	127
234.05637188208615	234.21891156462584	67	127
234.05637188208615	234.21891156462584	58	127
234.05637188208615	234.21891156462584	49	127
234.21891156462584	234.69492063492063	48	127
234.21891156462584	234.69492063492063	56	127
234.21891156462584	234.69492063492063	68	127
234.69492063492063	235.0548299319728	60	127
234.69492063492063	235.0548299319728	60	127
234.69492063492063	235.0548299319728	56	127
235.10126984126984	235.40312925170068	68	127
235.10126984126984	235.40312925170068	48	127
235.10126984126984	235.40312925170068	56	127
235.40312925170068	235.57727891156463	67	127
235.40312925170068	235.57727891156463	58	127
235.40312925170068	235.57727891156463	49	127
235.57727891156463	236.0300680272109	48	127
235.57727891156463	236.0300680272109	56	127
235.57727891156463	236.0300680272109	68	127
236.0300680272109	236.44802721088436	56	127
236.0300680272109	236.44802721088436	60	127
236.0300680272109	236.44802721088436	60	127
236.4944671201814	236.80793650793652	68	127
236.4944671201814	236.98208616780045	61	127
236.4944671201814	236.80793650793652	56	127
236.80793650793652	236.97047619047618	68	127
236.80793650793652	236.97047619047618	70	127
236.98208616780045	237.27233560090704	70	127
236.98208616780045	237.27233560090704	68	127
236.98208616780045	237.73673469387754	62	127
237.27233560090704	237.4348752834467	71	127
237.27233560090704	237.4348752834467	56	127
237.44648526077097	237.6902947845805	71	127
237.44648526077097	237.6902947845805	56	127
237.6902947845805	237.79478458049886	68	127
237.6902947845805	237.79478458049886	72	127
237.79478458049886	238.05020408163264	51	127
237.79478458049886	238.18952380952382	68	127
237.79478458049886	238.05020408163264	72	127
238.05020408163264	238.18952380952382	73	127
238.05020408163264	238.18952380952382	63	127
238.18952380952382	238.66553287981858	70	127
238.18952380952382	238.51460317460317	73	127
238.18952380952382	238.51460317460317	63	127
238.51460317460317	238.66553287981858	74	127
238.51460317460317	238.66553287981858	51	127
238.66553287981858	239.0718820861678	67	127
238.66553287981858	238.96739229024942	74	127
238.66553287981858	238.96739229024942	51	127
238.96739229024942	239.1067120181406	75	127
238.96739229024942	239.1067120181406	63	127
239.1067120181406	239.36213151927439	63	127
239.1067120181406	239.36213151927439	68	127
239.1067120181406	239.54789115646258	75	127
239.54789115646258	239.7917006802721	72	127
239.98907029478457	240.22126984126984	55	127
239.98907029478457	240.22126984126984	63	127
239.98907029478457	240.22126984126984	73	127
239.98907029478457	240.27931972789116	74	127
240.27931972789116	240.39541950113377	75	127
240.39541950113377	240.81337868480725	75	127
240.81337868480725	241.242947845805	72	127
240.81337868480725	241.02235827664398	63	127
240.81337868480725	241.02235827664398	66	127
240.81337868480725	241.02235827664398	56	127
241.242947845805	241.60285714285715	68	127
241.60285714285715	242.0556462585034	66	127
242.0556462585034	242.45038548752834	63	127
242.45038548752834	242.8683446712018	60	127
242.8683446712018	243.14698412698414	56	127
243.55333333333334	243.6926530612245	68	127
243.55333333333334	243.6926530612245	65	127
243.6926530612245	243.97129251700682	73	127
243.6926530612245	243.97129251700682	68	127
243.97129251700682	244.13383219954648	73	127
243.97129251700682	244.13383219954648	77	127
244.13383219954648	244.4821315192744	77	127
244.13383219954648	244.4821315192744	49	127
244.13383219954648	244.4821315192744	80	127
244.4821315192744	244.7607709750567	61	127
244.4821315192744	244.7607709750567	77	127
244.4821315192744	244.7607709750567	73	127
244.96975056689342	245.36448979591836	77	127
244.96975056689342	245.36448979591836	80	127
244.96975056689342	245.36448979591836	49	127
245.36448979591836	245.61990929705215	73	127
245.36448979591836	245.61990929705215	61	127
245.36448979591836	245.61990929705215	77	127
245.78244897959183	246.16557823129253	75	127
245.78244897959183	246.16557823129253	83	127
245.78244897959183	246.16557823129253	56	127
246.16557823129253	246.43260770975056	80	127
246.16557823129253	246.43260770975056	77	127
246.16557823129253	246.43260770975056	61	127
246.61836734693878	247.03632653061226	70	127
246.61836734693878	246.88539682539684	78	127
246.61836734693878	247.03632653061226	54	127
246.88539682539684	247.03632653061226	80	127
247.03632653061226	247.44267573696146	78	127
247.03632653061226	247.44267573696146	56	127
247.03632653061226	247.44267573696146	72	127
247.44267573696146	247.79097505668935	77	127
247.44267573696146	247.79097505668935	73	127
247.44267573696146	247.79097505668935	58	127
247.82580498866213	248.2669841269841	67	127
247.82580498866213	248.09283446712018	75	127
247.82580498866213	248.2669841269841	51	127
248.09283446712018	248.2669841269841	73	127
248.2669841269841	248.75460317460318	68	127
248.2669841269841	248.75460317460318	72	127
248.2669841269841	248.75460317460318	56	127
248.75460317460318	248.9635827664399	67	127
248.75460317460318	248.9635827664399	51	127
248.75460317460318	248.9635827664399	75	127
249.01002267573696	249.26544217687075	68	127
249.01002267573696	249.26544217687075	56	127
249.01002267573696	249.26544217687075	68	127
249.718231292517	249.85755102040815	63	127
249.718231292517	249.85755102040815	51	127
249.85755102040815	250.14780045351475	56	127
249.85755102040815	250.14780045351475	68	127
250.14780045351475	250.26390022675736	60	127
250.14780045351475	250.26390022675736	72	127
250.26390022675736	250.68185941043083	63	127
250.26390022675736	250.68185941043083	75	127
250.68185941043083	250.89083900226757	60	127
250.68185941043083	250.89083900226757	72	127
251.0765986394558	251.56421768707483	75	127
251.0765986394558	251.56421768707483	63	127
251.56421768707483	251.74997732426303	60	127
251.56421768707483	251.74997732426303	72	127
251.86607709750567	252.31886621315192	66	127
251.86607709750567	252.31886621315192	78	127
252.31886621315192	252.5510657596372	63	127
252.31886621315192	252.5510657596372	75	127
252.67877551020408	252.99224489795918	61	127
252.67877551020408	252.99224489795918	73	127
252.99224489795918	253.15478458049887	63	127
252.99224489795918	253.15478458049887	75	127
253.15478458049887	253.53791383219954	73	127
253.15478458049887	253.53791383219954	61	127
253.53791383219954	253.88621315192745	72	127
253.53791383219954	253.88621315192745	60	127
253.9326530612245	254.19968253968253	70	127
253.9326530612245	254.19968253968253	58	127
254.19968253968253	254.31578231292517	68	127
254.19968253968253	254.31578231292517	56	127
254.31578231292517	254.67569160997732	66	127
254.31578231292517	254.67569160997732	54	127
254.67569160997732	255.05882086167802	56	127
254.67569160997732	255.05882086167802	68	127
255.34907029478458	255.48839002267573	56	127
255.34907029478458	255.48839002267573	44	127
255.48839002267573	255.76702947845806	49	127
255.48839002267573	255.76702947845806	61	127
255.76702947845806	255.94117913832198	68	127
255.76702947845806	255.92956916099774	53	127
255.76702947845806	255.92956916099774	65	127
255.94117913832198	256.3475283446712	68	127
255.94117913832198	256.3475283446712	56	127
255.94117913832198	256.1965986394558	73	127
256.1965986394558	256.3475283446712	77	127
256.3475283446712	256.5448979591837	65	127
256.3475283446712	256.7654875283447	80	127
256.3475283446712	256.5448979591837	53	127
256.7654875283447	256.9860544217687	77	127
256.7654875283447	257.18344671201817	68	127
256.7654875283447	257.18344671201817	56	127
257.18344671201817	257.3459863945578	65	127
257.18344671201817	257.3459863945578	53	127
257.18344671201817	257.56657596371883	80	127
257.56657596371883	258.00773242630385	59	127
257.56657596371883	257.7987755102041	77	127
257.56657596371883	258.00773242630385	71	127
258.00773242630385	258.2167120181406	56	127
258.00773242630385	258.4256916099773	83	127
258.00773242630385	258.2167120181406	68	127
258.4256916099773	258.59986394557825	80	127
258.4256916099773	258.82045351473926	59	127
258.4256916099773	258.82045351473926	71	127
258.82045351473926	259.06426303854875	56	127
258.82045351473926	259.15714285714284	83	127
258.82045351473926	259.06426303854875	68	127
259.15714285714284	259.59832199546486	59	127
259.15714285714284	259.37773242630385	80	127
259.15714285714284	259.59832199546486	71	127
259.59832199546486	259.81891156462586	68	127
259.59832199546486	259.9814512471655	83	127
259.59832199546486	259.81891156462586	56	127
259.9814512471655	260.22526077097507	80	127
259.9814512471655	260.3878004535147	74	127
259.9814512471655	260.3878004535147	62	127
260.3878004535147	260.60839002267574	71	127
260.3878004535147	260.60839002267574	59	127
260.3878004535147	260.7593197278912	86	127
260.7593197278912	260.9915192743764	83	127
260.7593197278912	261.10761904761904	74	127
260.7593197278912	261.10761904761904	62	127
261.10761904761904	261.3165986394558	71	127
261.10761904761904	261.502358276644	86	127
261.10761904761904	261.3165986394558	59	127
261.502358276644	261.78099773242633	83	127
261.502358276644	261.9667573696145	74	127
261.502358276644	261.9667573696145	62	127
261.9667573696145	262.26861678004536	86	127
261.9667573696145	262.14090702947846	71	127
261.9667573696145	262.14090702947846	59	127
262.26861678004536	262.73301587301586	77	127
262.26861678004536	262.5240362811791	83	127
262.26861678004536	262.73301587301586	65	127
262.73301587301586	262.9768253968254	74	127
262.73301587301586	262.9768253968254	62	127
262.73301587301586	263.09292517006804	89	127
263.09292517006804	263.33673469387753	86	127
263.09292517006804	263.9868934240363	80	127
263.09292517006804	263.9868934240363	68	127
263.54571428571427	263.9868934240363	92	127
263.9868934240363	264.2074829931973	65	127
263.9868934240363	264.2074829931973	77	127
263.9868934240363	264.2074829931973	89	127
264.3235827664399	264.82281179138323	56	127
264.3235827664399	264.82281179138323	68	127
264.3235827664399	264.82281179138323	80	127
264.82281179138323	265.0201814058957	77	127
264.82281179138323	265.0201814058957	65	127
264.82281179138323	265.0201814058957	53	127
265.08984126984126	265.50780045351473	56	127
265.08984126984126	265.50780045351473	44	127
265.08984126984126	265.50780045351473	68	127
265.50780045351473	265.74	65	127
265.50780045351473	265.74	41	127
265.50780045351473	265.74	53	127
265.94897959183675	266.401768707483	80	127
265.94897959183675	266.401768707483	80	127
265.94897959183675	266.401768707483	68	127
266.401768707483	266.5875283446712	78	127
266.401768707483	266.5875283446712	78	127
266.401768707483	266.5875283446712	66	127
266.6804081632653	267.07514739229026	68	127
266.6804081632653	267.07514739229026	68	127
266.6804081632653	267.07514739229026	56	127
267.07514739229026	267.3189342403628	66	127
267.07514739229026	267.3189342403628	66	127
267.07514739229026	267.3189342403628	54	127
267.5163038548753	267.93426303854875	44	127
267.5163038548753	267.93426303854875	56	127
267.93426303854875	268.0155555555556	54	127
267.93426303854875	268.0155555555556	42	127
268.21292517006805	268.52639455782315	56	127
268.21292517006805	268.52639455782315	44	127
268.21292517006805	268.52639455782315	68	127
268.52639455782315	268.67732426303854	70	127
268.52639455782315	268.67732426303854	46	127
268.52639455782315	268.67732426303854	58	127
268.67732426303854	269.1997732426304	44	127
268.67732426303854	269.1997732426304	68	127
268.67732426303854	269.1997732426304	56	127
269.1997732426304	269.5945124716553	67	127
269.1997732426304	269.5945124716553	55	127
269.1997732426304	269.5945124716553	43	127
269.62934240362813	269.9660317460318	65	127
269.62934240362813	269.9660317460318	53	127
269.62934240362813	269.9660317460318	41	127
269.9660317460318	270.0937414965986	63	127
269.9660317460318	270.0937414965986	39	127
269.9660317460318	270.0937414965986	51	127
270.0937414965986	270.592947845805	62	127
270.0937414965986	270.592947845805	50	127
270.0937414965986	270.592947845805	38	127
270.592947845805	270.97609977324265	65	127
270.592947845805	270.97609977324265	53	127
270.592947845805	270.97609977324265	41	127
271.03414965986394	271.38244897959186	68	127
271.03414965986394	271.38244897959186	56	127
271.03414965986394	271.38244897959186	44	127
271.38244897959186	271.53337868480725	58	127
271.38244897959186	271.53337868480725	46	127
271.38244897959186	271.53337868480725	70	127
271.53337868480725	272.03260770975055	68	127
271.53337868480725	272.03260770975055	56	127
271.53337868480725	272.03260770975055	44	127
272.03260770975055	272.5086167800454	67	127
272.03260770975055	272.5086167800454	55	127
272.03260770975055	272.5086167800454	43	127
272.57827664399093	272.9381632653061	53	127
272.57827664399093	272.9381632653061	41	127
272.57827664399093	272.9381632653061	65	127
272.9381632653061	273.1355555555556	63	127
272.9381632653061	273.1355555555556	39	127
272.9381632653061	273.1355555555556	51	127
273.1355555555556	273.79732426303855	62	127
273.1355555555556	273.79732426303855	50	127
273.1355555555556	273.79732426303855	38	127
273.79732426303855	274.2268934240363	65	127
273.79732426303855	274.2268934240363	53	127
273.79732426303855	274.2268934240363	41	127
276.862358276644	276.92038548752834	60	127
277.0365079365079	277.09455782312926	60	127
277.2106575963719	277.2687074829932	60	127
277.3615873015873	277.41963718820864	60	127
277.524126984127	277.5821768707483	60	127
277.69827664399094	277.7563265306122	60	127
277.69827664399094	277.87242630385487	75	127
277.69827664399094	277.87242630385487	67	127
277.87242630385487	278.16267573696143	74	127
277.87242630385487	278.16267573696143	65	127
277.87242630385487	277.9304761904762	60	127
278.04655328798185	278.0930158730159	60	127
278.16267573696143	278.19750566893424	60	127
278.16267573696143	278.3136054421769	72	127
278.16267573696143	278.3136054421769	63	127
278.3136054421769	278.8012244897959	62	127
278.3136054421769	278.8012244897959	71	127
278.3136054421769	278.37165532879817	60	127
278.4645124716553	278.5225850340136	60	127
278.63868480725625	278.69673469387754	60	127
278.8012244897959	278.85927437641726	60	127
278.8012244897959	279.10308390022675	72	127
278.8012244897959	279.10308390022675	63	127
278.9869841269841	279.04503401360546	60	127
279.1611337868481	279.2191836734694	60	127
279.1611337868481	279.335283446712	67	127
279.1611337868481	279.335283446712	75	127
279.335283446712	279.3933333333333	60	127
279.335283446712	279.6255328798186	65	127
279.335283446712	279.6255328798186	74	127
279.4861904761905	279.54426303854876	60	127
279.6255328798186	279.7880498866213	63	127
279.6255328798186	279.7880498866213	72	127
279.6255328798186	279.67197278911567	60	127
279.7880498866213	279.83451247165533	60	127
279.7880498866213	280.27569160997734	71	127
279.7880498866213	280.27569160997734	62	127
279.95061224489797	280.00866213151926	60	127
280.1247619047619	280.18281179138324	60	127
280.27569160997734	280.5659410430839	72	127
280.27569160997734	280.5659410430839	63	127
280.27569160997734	280.33374149659863	60	127
280.4498412698413	280.5078684807256	60	127
280.63560090702947	280.6936507936508	60	127
280.63560090702947	280.7517006802721	63	127
280.63560090702947	280.7517006802721	72	127
280.7517006802721	281.05356009070294	65	127
280.7517006802721	280.7865306122449	60	127
280.7517006802721	281.05356009070294	74	127
280.90263038548756	280.96068027210885	60	127
281.05356009070294	281.1	60	127
281.05356009070294	281.21607709750566	75	127
281.05356009070294	281.21607709750566	67	127
281.21607709750566	281.541179138322	68	127
281.21607709750566	281.27414965986395	60	127
281.21607709750566	281.541179138322	77	127
281.3786394557823	281.4250566893424	60	127
281.541179138322	281.5992290249433	60	127
281.541179138322	281.71532879818596	79	127
281.541179138322	281.71532879818596	70	127
281.71532879818596	282.1681179138322	80	127
281.71532879818596	282.1681179138322	72	127
281.71532879818596	281.77337868480726	60	127
281.8894784580499	281.9475283446712	60	127
282.04038548752834	282.08684807256236	60	127
282.1681179138322	282.22616780045354	60	127
282.1681179138322	282.5164172335601	79	127
282.1681179138322	282.5164172335601	70	127
282.3422448979592	282.40031746031747	60	127
282.5164172335601	282.5744671201814	60	127
282.5164172335601	282.69056689342403	77	127
282.5164172335601	282.69056689342403	68	127
282.69056689342403	282.7485941043084	60	127
282.69056689342403	283.18979591836734	75	127
282.69056689342403	283.18979591836734	67	127
282.85308390022675	282.89954648526077	60	127
283.0156462585034	283.0736961451247	60	127
283.18979591836734	283.4568253968254	74	127
283.18979591836734	283.2478458049887	60	127
283.18979591836734	283.4568253968254	65	127
283.35233560090705	283.41038548752834	60	127
283.4916553287982	283.5497052154195	60	127
283.4916553287982	283.6541950113379	75	127
283.4916553287982	283.6541950113379	67	127
283.6541950113379	283.7122448979592	60	127
283.6541950113379	283.9908843537415	65	127
283.6541950113379	283.9908843537415	74	127
283.8399546485261	283.8747619047619	60	127
283.9908843537415	284.1418140589569	72	127
283.9908843537415	284.1418140589569	63	127
283.9908843537415	284.0489342403628	60	127
284.1418140589569	284.5597732426304	71	127
284.1418140589569	284.5597732426304	62	127
284.1418140589569	284.188231292517	60	127
284.2811111111111	284.3275736961451	60	127
284.4320634920635	284.45528344671203	60	127
284.5597732426304	284.8384126984127	72	127
284.5597732426304	284.8384126984127	63	127
284.5597732426304	284.6178231292517	60	127
284.72231292517006	284.7803628117914	60	127
284.89643990929704	285.070612244898	77	127
284.89643990929704	285.070612244898	68	127
284.89643990929704	284.95451247165533	60	127
285.070612244898	285.12866213151926	60	127
285.070612244898	285.4072789115646	66	127
285.070612244898	285.4072789115646	75	127
285.2447619047619	285.291201814059	60	127
285.4072789115646	285.4653514739229	60	127
285.4072789115646	285.5698412698413	65	127
285.4072789115646	285.5698412698413	73	127
285.58145124716555	285.9645804988662	73	127
285.58145124716555	285.62789115646257	61	127
285.58145124716555	285.9645804988662	65	127
285.7439909297052	285.80204081632655	61	127
286.02260770975056	286.08068027210885	61	127
286.20839002267576	286.26643990929705	61	127
286.3825396825397	286.440589569161	61	127
286.3825396825397	286.5566893424036	77	127
286.3825396825397	286.5566893424036	68	127
286.5566893424036	286.85854875283445	75	127
286.5566893424036	286.61473922902496	61	127
286.5566893424036	286.85854875283445	66	127
286.6960090702948	286.7540589569161	61	127
286.85854875283445	286.9165986394558	61	127
286.85854875283445	287.03269841269844	65	127
286.85854875283445	287.03269841269844	73	127
287.03269841269844	287.49709750566893	72	127
287.03269841269844	287.07913832199546	61	127
287.03269841269844	287.49709750566893	63	127
287.1952380952381	287.2416780045352	61	127
287.34616780045354	287.39260770975056	61	127
287.49709750566893	287.75251700680275	65	127
287.49709750566893	287.75251700680275	73	127
287.49709750566893	287.5551247165533	61	127
287.67124716553286	287.71768707482994	61	127
287.8221768707483	287.99632653061224	72	127
287.8221768707483	287.99632653061224	80	127
287.8221768707483	287.8802267573696	61	127
287.99632653061224	288.0543764172336	61	127
287.99632653061224	288.3214058956916	79	127
287.99632653061224	288.3214058956916	70	127
288.15886621315195	288.205306122449	61	127
288.3214058956916	288.47231292517006	69	127
288.3214058956916	288.3678458049887	61	127
288.3214058956916	288.47231292517006	78	127
288.47231292517006	288.53038548752835	62	127
288.47231292517006	288.8554648526077	78	127
288.47231292517006	288.8554648526077	69	127
288.62326530612245	288.6697052154195	62	127
288.78578231292516	288.84385487528345	62	127
288.90190476190475	288.9483446712018	62	127
289.0412244897959	289.087641723356	62	127
289.2037641723356	289.26181405895693	62	127
289.2037641723356	289.38952380952384	66	127
289.2037641723356	289.38952380952384	74	127
289.38952380952384	289.4475736961451	62	127
289.38952380952384	289.7262131519274	67	127
289.38952380952384	289.7262131519274	76	127
289.56367346938777	289.6101133786848	62	127
289.7262131519274	289.8655328798186	78	127
289.7262131519274	289.8655328798186	69	127
289.7262131519274	289.76104308390023	62	127
289.8655328798186	290.20222222222225	79	127
289.8655328798186	289.9235827664399	62	127
289.8655328798186	290.20222222222225	70	127
290.01643990929705	290.07451247165534	62	127
290.20222222222225	290.3647619047619	72	127
290.20222222222225	290.26027210884354	62	127
290.20222222222225	290.3647619047619	81	127
290.3763718820862	290.43442176870747	62	127
290.3763718820862	290.66662131519274	82	127
290.3763718820862	290.66662131519274	73	127
290.5505215419501	290.5853514739229	62	127
290.66662131519274	291.1426303854875	67	127
290.66662131519274	290.7246485260771	62	127
290.66662131519274	291.1426303854875	73	127
290.85238095238094	290.9104308390023	62	127
291.0265306122449	291.0845804988662	62	127
291.20068027210885	291.25873015873015	62	127
291.20068027210885	291.65344671201814	66	127
291.20068027210885	291.65344671201814	74	127
291.3632199546485	291.42126984126986	62	127
291.5373696145125	291.5954195011338	62	127
291.7231292517007	291.781179138322	62	127
291.8972789115646	291.955306122449	62	127
292.07142857142856	292.1294784580499	62	127
292.07142857142856	292.24557823129254	74	127
292.07142857142856	292.24557823129254	66	127
292.24557823129254	292.30362811791383	62	127
292.24557823129254	292.5474376417234	76	127
292.24557823129254	292.5474376417234	67	127
292.39650793650793	292.4545578231293	62	127
292.5474376417234	292.6751247165533	78	127
292.5474376417234	292.6751247165533	69	127
292.5474376417234	292.5938775510204	62	127
292.6867573696145	293.0118367346939	70	127
292.6867573696145	292.74480725623584	62	127
292.6867573696145	293.0118367346939	79	127
292.83768707482994	292.89573696145123	62	127
293.0118367346939	293.0698866213152	62	127
293.0118367346939	293.18596371882086	72	127
293.0118367346939	293.18596371882086	81	127
293.18596371882086	293.46462585034016	73	127
293.18596371882086	293.24403628117915	62	127
293.18596371882086	293.46462585034016	82	127
293.33691609977325	293.3485260770975	62	127
293.46462585034016	293.52267573696145	62	127
293.46462585034016	293.6387755102041	73	127
293.46462585034016	293.6387755102041	67	127
293.6387755102041	293.97546485260773	74	127
293.6387755102041	293.69680272108843	62	127
293.6387755102041	293.97546485260773	66	127
293.80131519274374	293.8593650793651	62	127
293.97546485260773	294.14961451247166	60	127
293.97546485260773	294.033514739229	62	127
293.97546485260773	294.14961451247166	66	127
294.1612244897959	294.4514739229025	67	127
294.1612244897959	294.4514739229025	59	127
294.1612244897959	294.2192743764172	55	127
294.33537414965986	294.3934240362812	55	127
294.50950113378684	294.56757369614513	55	127
294.68367346938777	294.74172335600906	55	127
294.68367346938777	294.97392290249434	67	127
294.68367346938777	294.97392290249434	55	127
294.8578231292517	294.91585034013605	55	127
295.0435827664399	295.10163265306124	55	127
295.2061224489796	295.2641723356009	55	127
295.357052154195	295.41510204081635	55	127
295.531179138322	295.577641723356	55	127
295.6705215419501	295.7053514739229	55	127
295.8330385487528	295.8911111111111	55	127
296.00721088435375	296.04201814058956	55	127
296.14650793650793	296.2045804988662	55	127
296.3090702947846	296.35548752834467	55	127
296.47160997732425	296.54126984126987	55	127
296.6689795918367	296.72702947845806	55	127
296.8431292517007	296.901179138322	55	127
297.01727891156463	297.0753287981859	55	127
297.19142857142856	297.22625850340137	55	127
297.342358276644	297.388798185941	55	127
297.51650793650794	297.562947845805	55	127
297.6326077097506	297.67902494331065	55	127
297.783514739229	297.82997732426304	55	127
297.9460770975057	298.00412698412697	55	127
298.1202267573696	298.1898639455782	55	127
298.3175963718821	298.3756462585034	55	127
298.4801360544218	298.51496598639454	55	127
298.6310657596372	298.68911564625853	55	127
298.80519274376417	298.86326530612246	55	127
298.9793650793651	299.0374149659864	55	127
299.1651247165533	299.2231746031746	55	127
299.3392743764172	299.39732426303857	55	127
299.49020408163267	299.5250113378685	55	127
299.6295238095238	299.68757369614514	55	127
299.7920634920635	299.8501133786848	55	127
299.96621315192743	300.0242403628118	55	127
300.14036281179136	300.1984126984127	48	127
300.31451247165535	300.36095238095237	48	127
300.46544217687074	300.5234920634921	48	127
300.6395691609977	300.697641723356	48	127
300.81374149659865	300.84854875283446	48	127
300.918231292517	301.0575283446712	36	127
300.918231292517	300.94145124716556	48	127
300.918231292517	301.0575283446712	60	127
301.0575283446712	301.3942403628118	62	127
301.0575283446712	301.3942403628118	38	127
301.0575283446712	301.1156009070295	48	127
301.2317006802721	301.2897505668934	48	127
301.3942403628118	301.56836734693877	63	127
301.3942403628118	301.45229024943313	48	127
301.3942403628118	301.56836734693877	39	127
301.56836734693877	301.62643990929706	48	127
301.56836734693877	301.8818594104308	44	127
301.56836734693877	301.8818594104308	68	127
301.73092970521543	301.7889795918367	48	127
301.8818594104308	301.93990929705217	48	127
301.8818594104308	302.0560090702948	67	127
301.8818594104308	302.0560090702948	43	127
302.0560090702948	302.1140589569161	48	127
302.0560090702948	302.3346485260771	60	127
302.0560090702948	302.3346485260771	36	127
302.23015873015873	302.2765759637188	48	127
302.40430839002266	302.462358276644	48	127
302.40430839002266	302.5668480725624	36	127
302.40430839002266	302.5668480725624	60	127
302.5668480725624	302.62489795918367	48	127
302.5668480725624	302.89190476190475	62	127
302.5668480725624	302.89190476190475	38	127
302.7409977324263	302.7990476190476	48	127
302.89190476190475	302.94997732426305	48	127
302.89190476190475	303.0544671201814	63	127
302.89190476190475	303.0544671201814	39	127
303.0544671201814	303.3795464852608	68	127
303.0544671201814	303.1125170068027	48	127
303.0544671201814	303.3795464852608	44	127
303.20537414965986	303.26344671201815	48	127
303.3795464852608	303.5536961451247	67	127
303.3795464852608	303.5536961451247	43	127
303.3795464852608	303.4375963718821	48	127
303.5536961451247	303.61172335600907	48	127
303.5536961451247	303.82072562358275	60	127
303.5536961451247	303.82072562358275	36	127
303.70460317460316	303.76267573696146	48	127
303.8787755102041	304.0645351473923	72	127
303.8787755102041	303.9368253968254	48	127
303.8787755102041	304.0645351473923	60	127
304.0645351473923	304.12256235827664	48	127
304.0645351473923	304.40122448979594	71	127
304.0645351473923	304.40122448979594	59	127
304.2386848072562	304.29673469387757	48	127
304.40122448979594	304.4592743764172	48	127
304.40122448979594	304.58698412698413	70	127
304.40122448979594	304.58698412698413	58	127
304.58698412698413	304.6450340136054	48	127
304.58698412698413	304.90045351473924	68	127
304.58698412698413	304.90045351473924	56	127
304.76113378684806	304.7959637188209	48	127
304.90045351473924	304.93526077097505	48	127
304.90045351473924	305.0397505668934	67	127
304.90045351473924	305.0397505668934	55	127
305.05138321995463	305.109433106576	48	127
305.05138321995463	305.3880725623583	53	127
305.05138321995463	305.3880725623583	65	127
305.2255328798186	305.2835827664399	48	127
305.3880725623583	305.550589569161	68	127
305.3880725623583	305.4460997732426	48	127
305.3880725623583	305.550589569161	56	127
305.550589569161	305.597052154195	48	127
305.550589569161	306.0034013605442	72	127
305.550589569161	306.0034013605442	60	127
305.7247619047619	305.7828117913832	48	127
305.8873015873016	305.9453514739229	48	127
306.0498412698413	306.08467120181405	48	127
306.0498412698413	306.37489795918367	48	127
306.0498412698413	306.37489795918367	60	127
306.2007709750567	306.25882086167803	48	127
306.37489795918367	306.53746031746033	51	127
306.37489795918367	306.4213605442177	48	127
306.37489795918367	306.53746031746033	63	127
306.53746031746033	306.8160997732426	67	127
306.53746031746033	306.8160997732426	55	127
306.53746031746033	306.58390022675735	48	127
306.7	306.75804988662134	48	127
306.874126984127	307.02507936507936	36	127
306.874126984127	307.02507936507936	60	127
306.874126984127	306.93219954648526	48	127
307.02507936507936	307.3965759637188	62	127
307.02507936507936	307.0831065759637	48	127
307.02507936507936	307.3965759637188	38	127
307.1992290249433	307.25727891156464	48	127
307.3965759637188	307.4546485260771	48	127
307.3965759637188	307.57074829931975	39	127
307.3965759637188	307.57074829931975	63	127
307.57074829931975	307.88421768707485	44	127
307.57074829931975	307.88421768707485	68	127
307.57074829931975	307.61718820861677	48	127
307.72167800453514	307.7797278911565	48	127
307.88421768707485	308.0583673469388	67	127
307.88421768707485	307.94226757369614	48	127
307.88421768707485	308.0583673469388	43	127
308.0583673469388	308.10478458049886	48	127
308.0583673469388	308.3370068027211	36	127
308.0583673469388	308.3370068027211	60	127
308.2325170068027	308.2789569160998	48	127
308.3950566893424	308.8710657596372	56	127
308.3950566893424	308.4531065759637	48	127
308.3950566893424	308.8710657596372	68	127
308.3950566893424	308.8710657596372	48	127
308.5808163265306	308.6388662131519	48	127
308.75496598639455	308.8130158730159	48	127
308.94072562358275	309.4399319727891	56	127
308.94072562358275	309.11487528344674	48	127
308.94072562358275	309.4399319727891	68	127
308.94072562358275	308.9987755102041	48	127
309.126462585034	309.4399319727891	49	127
309.126462585034	309.1845351473923	49	127
309.28902494331066	309.3238548752835	49	127
309.4051247165533	309.4399319727891	49	127
309.4980045351474	309.5560544217687	49	127
309.6489342403628	309.7185941043084	49	127
309.8462811791383	309.9043537414966	49	127
309.8462811791383	310.008843537415	61	127
309.8462811791383	310.008843537415	37	127
310.008843537415	310.3571201814059	63	127
310.008843537415	310.3571201814059	39	127
310.008843537415	310.06689342403627	49	127
310.1829931972789	310.24104308390025	49	127
310.3571201814059	310.51968253968255	41	127
310.3571201814059	310.4151927437642	49	127
310.3571201814059	310.51968253968255	65	127
310.51968253968255	310.5893424036281	49	127
310.51968253968255	310.8563718820862	69	127
310.51968253968255	310.8563718820862	45	127
310.6938321995465	310.74027210884356	49	127
310.8563718820862	310.9956916099773	44	127
310.8563718820862	310.9956916099773	68	127
310.8563718820862	310.9144217687075	49	127
310.9956916099773	311.27430839002267	37	127
310.9956916099773	311.0421315192744	49	127
310.9956916099773	311.27430839002267	61	127
311.14662131519276	311.20467120181405	49	127
311.3556009070295	311.82	49	127
311.3556009070295	311.5413605442177	65	127
311.3556009070295	311.4136507936508	49	127
311.5413605442177	311.599410430839	49	127
311.5413605442177	311.87804988662134	67	127
311.70390022675736	311.7619501133787	49	127
311.87804988662134	312.040589569161	49	127
311.87804988662134	312.040589569161	69	127
311.87804988662134	311.92448979591836	49	127
312.040589569161	312.50496598639455	69	127
312.040589569161	312.50496598639455	50	127
312.040589569161	312.12185941043083	50	127
312.23795918367347	312.2959863945578	50	127
312.3888888888889	312.4469387755102	50	127
312.56303854875284	312.62108843537413	50	127
312.7371882086168	312.7952380952381	50	127
312.91131519274376	313.0738775510204	74	127
312.91131519274376	313.0738775510204	62	127
312.91131519274376	312.96938775510205	50	127
313.0738775510204	313.41056689342406	61	127
313.0738775510204	313.1319274376417	50	127
313.0738775510204	313.41056689342406	73	127
313.2364172335601	313.2944671201814	50	127
313.41056689342406	313.56149659863945	60	127
313.41056689342406	313.46861678004535	50	127
313.41056689342406	313.56149659863945	72	127
313.56149659863945	313.84013605442175	58	127
313.56149659863945	313.84013605442175	70	127
313.56149659863945	313.60793650793653	50	127
313.7124263038549	313.74725623582765	50	127
313.84013605442175	314.02589569161	69	127
313.84013605442175	314.02589569161	57	127
313.84013605442175	313.8981859410431	50	127
314.02589569161	314.5367346938776	67	127
314.02589569161	314.5367346938776	55	127
314.02589569161	314.0839455782313	50	127
314.20004535147393	314.2580952380952	50	127
314.37419501133786	314.42063492063494	50	127
314.5367346938776	314.9430839002268	64	127
314.5367346938776	314.9430839002268	76	127
314.5367346938776	314.59478458049887	50	127
314.69927437641724	314.7573015873016	50	127
314.8618140589569	314.8966439909297	50	127
314.97791383219953	315.4074829931973	69	127
314.97791383219953	315.4074829931973	57	127
314.97791383219953	315.0243537414966	50	127
315.128843537415	315.18689342403627	50	127
315.29138321995464	315.349433106576	50	127
315.47714285714284	315.5351927437642	50	127
315.67448979591836	315.73256235827665	50	127
315.8486621315193	316.01120181405895	62	127
315.8486621315193	316.01120181405895	74	127
315.8486621315193	315.9067120181406	50	127
316.01120181405895	316.3362811791383	73	127
316.01120181405895	316.04603174603176	50	127
316.01120181405895	316.3362811791383	61	127
316.1505215419501	316.2085714285714	50	127
316.3362811791383	316.3943083900227	50	127
316.3362811791383	316.498820861678	72	127
316.3362811791383	316.498820861678	60	127
316.51043083900225	316.82390022675736	70	127
316.51043083900225	316.82390022675736	58	127
316.51043083900225	316.5684807256236	50	127
316.6613605442177	316.7078004535147	50	127
316.82390022675736	316.99802721088435	57	127
316.82390022675736	316.8819501133787	50	127
316.82390022675736	316.99802721088435	69	127
316.99802721088435	317.32312925170066	67	127
316.99802721088435	317.32312925170066	55	127
316.99802721088435	317.05609977324264	50	127
317.14897959183673	317.2070068027211	50	127
317.32312925170066	317.5088662131519	52	127
317.32312925170066	317.5088662131519	64	127
317.32312925170066	317.3927891156463	50	127
317.5088662131519	317.7875283446712	62	127
317.5088662131519	317.7875283446712	50	127
317.5088662131519	317.5669387755102	50	127
317.68303854875285	317.74108843537414	50	127
317.83396825396824	317.8920181405896	50	127
317.99650793650795	318.05455782312924	43	127
318.1590476190476	318.22868480725623	43	127
318.3448072562358	318.40285714285716	43	127
318.5189569160998	318.5770068027211	43	127
318.5189569160998	318.86725623582765	62	127
318.5189569160998	318.86725623582765	71	127
318.6931065759637	318.751156462585	43	127
318.86725623582765	319.02979591836737	69	127
318.86725623582765	319.02979591836737	60	127
318.86725623582765	318.91369614512473	43	127
319.02979591836737	319.09945578231293	43	127
319.02979591836737	319.5522222222222	72	127
319.02979591836737	319.5522222222222	64	127
319.21555555555557	319.27360544217686	43	127
319.3897052154195	319.4361451247166	43	127
319.5522222222222	319.80766439909297	71	127
319.5522222222222	319.80766439909297	62	127
319.5522222222222	319.59868480725623	43	127
319.69156462585033	319.7496145124717	43	127
319.8656916099773	319.9353741496599	43	127
319.9818140589569	320.3068934240363	65	127
319.9818140589569	320.3068934240363	74	127
319.9818140589569	320.03986394557825	43	127
320.1559637188209	320.19079365079364	43	127
320.3068934240363	320.469433106576	64	127
320.3068934240363	320.469433106576	72	127
320.3068934240363	320.3649433106576	43	127
320.469433106576	321.00349206349205	72	127
320.469433106576	320.5274829931973	43	127
320.469433106576	321.00349206349205	76	127
320.6435827664399	320.7132426303855	43	127
320.8293424036281	320.88736961451247	43	127
321.00349206349205	321.27052154195013	71	127
321.00349206349205	321.27052154195013	74	127
321.00349206349205	321.03832199546486	43	127
321.1544217687075	321.2124716553288	43	127
321.3285714285714	321.38662131519277	43	127
321.5026984126984	321.94390022675736	71	127
321.5026984126984	321.94390022675736	65	127
321.5026984126984	321.5607709750567	43	127
321.5026984126984	321.94390022675736	81	127
321.67687074829934	321.7349206349206	43	127
321.85102040816327	321.9090476190476	43	127
321.94390022675736	322.4315192743764	79	127
321.94390022675736	322.3734693877551	64	127
321.94390022675736	321.9787301587302	43	127
321.94390022675736	322.3734693877551	72	127
322.0948299319728	322.1528798185941	43	127
322.25736961451247	322.32702947845803	43	127
322.4315192743764	322.942358276644	63	127
322.4315192743764	322.942358276644	78	127
322.4315192743764	322.942358276644	69	127
322.4315192743764	322.48956916099775	43	127
322.5940589569161	322.6521088435374	43	127
322.76820861678004	322.8262358276644	43	127
322.942358276644	323.0004081632653	43	127
322.942358276644	323.42997732426306	68	127
322.942358276644	323.42997732426306	77	127
322.942358276644	323.42997732426306	62	127
323.11650793650796	323.1861678004535	43	127
323.2558276643991	323.3138775510204	43	127
323.42997732426306	323.89437641723356	65	127
323.42997732426306	323.89437641723356	74	127
323.42997732426306	323.48802721088435	43	127
323.604126984127	323.6621768707483	43	127
323.7782766439909	323.83632653061227	43	127
323.9524036281179	324.1381859410431	37	127
323.9524036281179	324.1381859410431	49	127
324.1381859410431	324.31233560090703	48	127
324.1381859410431	324.31233560090703	36	127
324.31233560090703	324.5097052154195	37	127
324.31233560090703	324.5097052154195	49	127
324.5097052154195	324.68385487528343	48	127
324.5097052154195	324.68385487528343	36	127
324.68385487528343	324.84639455782315	37	127
324.68385487528343	324.84639455782315	49	127
324.84639455782315	325.0437641723356	48	127
324.84639455782315	325.0437641723356	36	127
325.0437641723356	325.2063038548753	49	127
325.0437641723356	325.2063038548753	37	127
325.2063038548753	325.368843537415	48	127
325.2063038548753	325.368843537415	36	127
325.368843537415	325.53138321995465	49	127
325.368843537415	325.53138321995465	37	127
325.53138321995465	325.71714285714285	36	127
325.53138321995465	325.71714285714285	48	127
325.71714285714285	325.9028798185941	49	127
325.71714285714285	325.9028798185941	37	127
325.9028798185941	326.07705215419503	48	127
325.9028798185941	326.07705215419503	36	127
326.07705215419503	326.2744217687075	37	127
326.07705215419503	326.2744217687075	49	127
326.2744217687075	326.43696145124716	48	127
326.2744217687075	326.43696145124716	36	127
326.43696145124716	326.57628117913833	72	127
326.43696145124716	326.61108843537414	37	127
326.43696145124716	326.61108843537414	49	127
326.57628117913833	326.61108843537414	75	127
326.61108843537414	326.7736507936508	48	127
326.61108843537414	326.76204081632653	73	127
326.61108843537414	326.7736507936508	36	127
326.7736507936508	326.959410430839	37	127
326.7736507936508	326.959410430839	49	127
326.959410430839	327.13356009070293	36	127
326.959410430839	327.13356009070293	72	127
326.959410430839	327.13356009070293	48	127
327.13356009070293	327.42378684807255	41	127
327.13356009070293	328.0043083900227	73	127
327.13356009070293	327.42378684807255	56	127
327.66761904761904	327.9462358276644	56	127
327.66761904761904	327.9462358276644	41	127
328.0043083900227	328.1784580498866	72	127
328.1784580498866	328.3642176870748	68	127
328.51514739229026	328.6892970521542	70	127
328.6892970521542	328.97954648526076	40	127
328.6892970521542	328.97954648526076	48	127
328.6892970521542	328.97954648526076	55	127
328.6892970521542	329.15369614512474	67	127
329.20013605442176	329.4787528344671	48	127
329.20013605442176	329.4787528344671	40	127
329.20013605442176	329.4787528344671	55	127
329.52521541950114	329.6645351473923	72	127
329.6645351473923	329.71097505668934	75	127
329.71097505668934	329.8851020408163	73	127
330.05927437641725	330.24503401360545	72	127
330.24503401360545	331.0809523809524	75	127
330.24503401360545	330.52367346938775	41	127
330.24503401360545	330.52367346938775	56	127
330.74426303854875	331.0345124716553	41	127
330.74426303854875	331.0345124716553	56	127
331.09256235827667	331.27832199546486	73	127
331.27832199546486	331.47569160997733	68	127
331.638231292517	331.78916099773244	70	127
331.78916099773244	332.0910204081633	48	127
331.78916099773244	332.0910204081633	55	127
331.78916099773244	332.25356009070293	67	127
331.78916099773244	332.0910204081633	40	127
332.3116099773243	332.5786394557823	48	127
332.3116099773243	332.5786394557823	55	127
332.3116099773243	332.5786394557823	40	127
332.63668934240366	332.7760090702948	72	127
332.7760090702948	332.82244897959185	75	127
332.82244897959185	333.00820861678005	73	127
333.182358276644	333.35648526077097	72	127
333.35648526077097	333.6583673469388	41	127
333.35648526077097	333.44938775510207	80	127
333.35648526077097	333.6583673469388	56	127
333.35648526077097	333.6583673469388	48	127
333.623537414966	333.7164172335601	79	127
333.890566893424	333.9718140589569	77	127
333.890566893424	334.13437641723357	48	127
333.890566893424	334.13437641723357	43	127
333.890566893424	334.13437641723357	58	127
334.11115646258503	334.19242630385486	76	127
334.36657596371884	334.6568253968254	48	127
334.36657596371884	334.6568253968254	60	127
334.36657596371884	334.6568253968254	44	127
334.36657596371884	334.6219954648526	77	127
334.6219954648526	334.8890022675737	75	127
334.8890022675737	335.167664399093	46	127
334.8890022675737	335.14444444444445	72	127
334.8890022675737	335.167664399093	53	127
334.8890022675737	335.167664399093	61	127
335.14444444444445	335.39984126984126	73	127
335.4114739229025	335.9339229024943	61	127
335.4114739229025	335.59723356009073	65	127
335.6668934240363	335.7597732426304	67	127
335.9339229024943	336.4331292517007	53	127
335.9339229024943	336.67696145124717	68	127
335.9339229024943	336.8859410430839	62	127
336.4331292517007	336.94396825396825	65	127
336.68857142857144	336.94396825396825	67	127
336.94396825396825	337.5128798185941	62	127
336.94396825396825	337.5128798185941	53	127
336.94396825396825	337.2342403628118	70	127
337.2342403628118	337.5128798185941	68	127
337.5128798185941	337.68702947845804	64	127
337.5128798185941	337.9656462585034	56	127
337.5128798185941	337.9656462585034	50	127
337.8379591836735	338.0121088435374	65	127
338.0237188208617	338.3255782312925	72	127
338.0237188208617	338.3255782312925	52	127
338.0237188208617	338.3255782312925	55	127
339.0570068027211	339.3356462585034	48	127
339.0570068027211	339.3356462585034	55	127
339.0570068027211	339.3356462585034	64	127
339.0570068027211	339.3356462585034	58	127
339.0570068027211	339.3356462585034	36	127
339.5562358276644	339.9393650793651	41	127
339.5562358276644	339.7536054421769	56	127
339.5562358276644	339.7536054421769	53	127
339.7536054421769	339.9393650793651	56	127
339.7536054421769	339.9393650793651	61	127
339.9393650793651	340.11349206349206	65	127
339.9393650793651	340.11349206349206	61	127
339.9393650793651	340.11349206349206	44	127
340.11349206349206	340.1599546485261	65	127
340.11349206349206	340.1599546485261	68	127
340.11349206349206	340.35732426303855	49	127
340.2412244897959	340.29927437641726	68	127
340.2412244897959	340.29927437641726	65	127
340.4153514739229	340.48503401360546	65	127
340.4153514739229	340.48503401360546	68	127
340.6011337868481	340.89138321995466	53	127
340.6011337868481	340.6591836734694	61	127
340.6011337868481	340.6591836734694	65	127
340.775283446712	340.8333333333333	65	127
340.775283446712	340.8333333333333	61	127
340.94943310657595	341.01909297052157	65	127
340.94943310657595	341.01909297052157	61	127
341.1351700680272	341.3441723356009	55	127
341.1351700680272	341.3441723356009	48	127
341.1351700680272	341.52993197278914	40	127
341.3441723356009	341.52993197278914	60	127
341.3441723356009	341.52993197278914	55	127
341.52993197278914	341.66925170068026	64	127
341.52993197278914	341.66925170068026	60	127
341.52993197278914	341.66925170068026	43	127
341.66925170068026	341.71569160997734	67	127
341.66925170068026	341.71569160997734	64	127
341.66925170068026	341.90145124716554	48	127
341.8201814058957	341.878231292517	64	127
341.8201814058957	341.878231292517	67	127
341.9478684807256	342.0059410430839	67	127
341.9478684807256	342.0059410430839	64	127
342.12204081632655	342.1917006802721	60	127
342.12204081632655	342.3774603174603	52	127
342.12204081632655	342.1917006802721	58	127
342.2961904761905	342.319410430839	60	127
342.2961904761905	342.319410430839	58	127
342.43551020408165	342.49356009070294	60	127
342.43551020408165	342.49356009070294	58	127
342.6328798185941	342.80702947845805	53	127
342.6328798185941	342.9463492063492	41	127
342.6328798185941	342.80702947845805	56	127
342.80702947845805	342.9463492063492	56	127
342.80702947845805	342.9463492063492	61	127
342.9463492063492	343.1321088435374	61	127
342.9463492063492	343.1321088435374	65	127
342.9463492063492	343.1321088435374	44	127
343.1321088435374	343.1785260770975	65	127
343.1321088435374	343.1785260770975	68	127
343.1321088435374	343.3643083900227	49	127
343.2714058956916	343.3178684807256	65	127
343.2714058956916	343.3178684807256	68	127
343.43396825396826	343.49201814058955	65	127
343.43396825396826	343.49201814058955	68	127
343.6081179138322	343.66616780045354	61	127
343.6081179138322	343.66616780045354	65	127
343.6081179138322	343.909977324263	53	127
343.7822448979592	343.85192743764173	61	127
343.7822448979592	343.85192743764173	65	127
343.9680272108844	344.02607709750566	65	127
343.9680272108844	344.02607709750566	61	127
344.1421768707483	344.304693877551	61	127
344.1421768707483	344.4672562358277	39	127
344.1421768707483	344.304693877551	55	127
344.304693877551	344.4672562358277	63	127
344.304693877551	344.4672562358277	61	127
344.4672562358277	344.62979591836734	63	127
344.4672562358277	344.62979591836734	67	127
344.4672562358277	344.62979591836734	46	127
344.62979591836734	344.6878458049887	67	127
344.62979591836734	344.8968253968254	51	127
344.62979591836734	344.6878458049887	73	127
344.79233560090705	344.85038548752834	73	127
344.79233560090705	344.85038548752834	67	127
344.9548752834467	345.01290249433106	73	127
344.9548752834467	345.01290249433106	67	127
345.12902494331064	345.187074829932	70	127
345.12902494331064	345.187074829932	61	127
345.12902494331064	345.41925170068026	55	127
345.3031746031746	345.3612244897959	70	127
345.3031746031746	345.3612244897959	61	127
345.47732426303855	345.5469841269841	61	127
345.47732426303855	345.5469841269841	70	127
345.66308390022675	345.9649433106576	44	127
345.83721088435374	346.02299319727894	60	127
345.83721088435374	346.02299319727894	63	127
346.02299319727894	346.20875283446713	72	127
346.02299319727894	346.20875283446713	63	127
346.20875283446713	346.52222222222224	46	127
346.39451247165533	346.58027210884353	63	127
346.39451247165533	346.58027210884353	61	127
346.58027210884353	346.731201814059	63	127
346.58027210884353	346.731201814059	67	127
346.731201814059	347.0098412698413	48	127
346.89374149659864	347.06789115646257	63	127
346.89374149659864	347.06789115646257	60	127
347.06789115646257	347.2304308390023	63	127
347.06789115646257	347.2304308390023	68	127
347.2304308390023	347.5322902494331	49	127
347.439410430839	347.5903401360544	56	127
347.439410430839	347.5903401360544	53	127
347.5903401360544	347.7877097505669	56	127
347.5903401360544	347.7877097505669	61	127
347.7877097505669	347.8457596371882	65	127
347.7877097505669	347.8457596371882	61	127
347.96185941043086	348.01990929705215	61	127
347.96185941043086	348.01990929705215	65	127
348.1360090702948	348.20566893424035	65	127
348.1360090702948	348.20566893424035	61	127
348.33337868480726	348.83260770975056	38	127
348.33337868480726	348.3914058956916	59	127
348.33337868480726	348.3914058956916	65	127
348.33337868480726	348.3914058956916	68	127
348.51913832199546	348.5771882086168	59	127
348.51913832199546	348.5771882086168	68	127
348.51913832199546	348.5771882086168	65	127
348.6700680272109	348.7165079365079	59	127
348.6700680272109	348.7165079365079	65	127
348.6700680272109	348.7165079365079	68	127
348.83260770975056	349.15768707482994	37	127
349.02997732426303	349.2157369614512	58	127
349.02997732426303	349.2157369614512	54	127
349.2157369614512	349.3898866213152	58	127
349.2157369614512	349.3898866213152	61	127
349.3898866213152	349.43632653061223	58	127
349.3898866213152	349.43632653061223	66	127
349.52920634920633	349.5872562358277	66	127
349.52920634920633	349.5872562358277	58	127
349.52920634920633	349.5872562358277	61	127
349.7033560090703	349.74979591836734	66	127
349.7033560090703	349.74979591836734	61	127
349.7033560090703	349.74979591836734	58	127
349.8542857142857	350.37673469387755	50	127
349.8542857142857	349.9239229024943	65	127
349.8542857142857	349.9239229024943	68	127
349.8542857142857	349.9239229024943	59	127
350.0400453514739	350.1097052154195	68	127
350.0400453514739	350.1097052154195	59	127
350.0400453514739	350.1097052154195	65	127
350.22578231292516	350.28385487528345	65	127
350.22578231292516	350.28385487528345	68	127
350.22578231292516	350.28385487528345	59	127
350.37673469387755	350.6089342403628	49	127
350.4928344671202	350.6669841269841	58	127
350.4928344671202	350.6669841269841	54	127
350.6669841269841	350.8527437641723	61	127
350.6669841269841	350.8411111111111	58	127
350.8527437641723	350.91079365079366	66	127
350.8527437641723	350.91079365079366	58	127
351.01528344671203	351.0733333333333	66	127
351.01528344671203	351.0733333333333	61	127
351.01528344671203	351.0733333333333	58	127
351.18943310657596	351.2474603174603	58	127
351.18943310657596	351.2474603174603	66	127
351.18943310657596	351.2474603174603	61	127
351.3635827664399	351.42163265306124	65	127
351.3635827664399	351.9092517006803	38	127
351.3635827664399	351.42163265306124	59	127
351.3635827664399	351.42163265306124	68	127
351.5377324263039	351.6190022675737	68	127
351.5377324263039	351.6190022675737	65	127
351.5377324263039	351.6190022675737	59	127
351.73510204081634	351.79315192743763	68	127
351.73510204081634	351.79315192743763	59	127
351.73510204081634	351.79315192743763	65	127
351.9092517006803	352.19950113378684	36	127
352.09501133786847	352.2575510204082	60	127
352.09501133786847	352.2575510204082	56	127
352.2575510204082	352.4317006802721	65	127
352.2575510204082	352.4317006802721	60	127
352.4317006802721	352.67551020408166	48	127
352.4317006802721	352.4781179138322	68	127
352.4317006802721	352.4781179138322	65	127
352.5710204081633	352.6290702947846	65	127
352.5710204081633	352.6290702947846	68	127
352.73356009070295	352.8032199546485	56	127
352.73356009070295	352.8032199546485	65	127
352.9657596371882	353.0238095238095	58	127
352.9657596371882	353.0238095238095	67	127
352.9657596371882	353.2560090702948	48	127
353.13990929705216	353.1979365079365	58	127
353.13990929705216	353.1979365079365	67	127
353.3140589569161	353.3837188208617	64	127
353.3140589569161	353.3837188208617	55	127
353.4765986394558	353.5346485260771	41	127
353.4765986394558	353.76684807256237	65	127
353.4765986394558	353.76684807256237	56	127
353.65074829931973	353.7087755102041	41	127
353.81326530612245	353.87133786848074	41	127
353.929387755102	353.9758276643991	41	127
354.09192743764174	354.14997732426303	41	127
354.23124716553286	354.40539682539685	60	127
354.23124716553286	354.2892970521542	41	127
354.23124716553286	354.40539682539685	68	127
354.40539682539685	354.7536961451247	58	127
354.40539682539685	354.7536961451247	67	127
354.40539682539685	354.46344671201814	41	127
354.5795464852608	354.63759637188207	41	127
354.7536961451247	354.9278231292517	56	127
354.7536961451247	354.81174603174605	41	127
354.7536961451247	354.9278231292517	65	127
354.9278231292517	355.46190476190475	55	127
354.9278231292517	355.46190476190475	64	127
354.9278231292517	354.99750566893425	41	127
355.1136054421769	355.1716553287982	41	127
355.2877551020408	355.34578231292517	41	127
355.46190476190475	355.7637641723356	56	127
355.46190476190475	355.5199546485261	41	127
355.46190476190475	355.7637641723356	65	127
355.63605442176873	355.7057142857143	41	127
355.82181405895693	355.8914739229025	41	127
356.0191836734694	356.0772335600907	41	127
356.1584807256236	356.21655328798187	41	127
356.30943310657597	356.3674603174603	41	127
356.4835827664399	356.54163265306124	41	127
356.6577324263039	356.7041723356009	41	127
356.7738095238095	356.82027210884354	41	127
356.90154195011337	356.9595918367347	41	127
357.07566893424035	357.1221315192744	41	127
357.238231292517	357.41238095238094	56	127
357.238231292517	357.41238095238094	65	127
357.238231292517	357.2962811791383	41	127
357.41238095238094	357.76068027210886	67	127
357.41238095238094	357.76068027210886	58	127
357.41238095238094	357.48201814058956	41	127
357.59814058956914	357.6561904761905	41	127
357.76068027210886	357.81873015873015	41	127
357.76068027210886	357.9348299319728	60	127
357.76068027210886	357.9348299319728	68	127
357.9348299319728	358.2831292517007	70	127
357.9348299319728	358.2831292517007	61	127
357.9348299319728	357.99285714285713	41	127
358.1089795918367	358.16702947845806	41	127
358.2831292517007	358.45727891156463	63	127
358.2831292517007	358.45727891156463	72	127
358.2831292517007	358.341179138322	41	127
358.45727891156463	358.7475283446712	73	127
358.45727891156463	358.515306122449	41	127
358.45727891156463	358.7475283446712	65	127
358.63142857142856	358.6894784580499	41	127
358.80557823129254	358.86362811791383	46	127
358.9797278911565	359.03777777777776	46	127
359.17709750566894	359.23514739229023	46	127
359.3280045351474	359.3860770975057	46	127
359.4673469387755	359.52539682539685	48	127
359.64149659863943	359.6879365079365	48	127
359.7924263038549	359.8504761904762	48	127
359.9433333333333	360.0130158730159	48	127
360.11750566893426	360.17555555555555	48	127
360.2916553287982	360.33809523809526	41	127
360.2916553287982	360.4541723356009	68	127
360.2916553287982	360.4541723356009	60	127
360.4541723356009	360.7908843537415	58	127
360.4541723356009	360.5122448979592	41	127
360.4541723356009	360.7908843537415	67	127
360.62834467120183	360.6863945578231	41	127
360.7908843537415	360.9766439909297	65	127
360.7908843537415	360.9766439909297	56	127
360.7908843537415	360.8605215419501	41	127
360.9766439909297	361.47585034013605	64	127
360.9766439909297	361.47585034013605	55	127
360.9766439909297	361.02308390022677	41	127
361.1391836734694	361.1972335600907	41	127
361.31333333333333	361.3713605442177	41	127
361.47585034013605	361.7777097505669	56	127
361.47585034013605	361.53392290249434	41	127
361.47585034013605	361.7777097505669	65	127
361.650022675737	361.71968253968254	41	127
361.8357823129252	361.89383219954647	41	127
362.0099319727891	362.0563718820862	41	127
362.16086167800455	362.21891156462584	41	127
362.3350113378685	362.3698412698413	41	127
362.47433106575966	362.4975283446712	42	127
362.5904308390023	362.6484807256236	42	127
362.75297052154195	362.79938775510203	42	127
362.9038775510204	362.9619501133787	42	127
363.07804988662133	363.1360997732426	42	127
363.2754195011338	363.34507936507936	42	127
363.2754195011338	363.461179138322	70	127
363.2754195011338	363.461179138322	61	127
363.461179138322	363.51920634920634	42	127
363.461179138322	363.8094784580499	68	127
363.461179138322	363.8094784580499	59	127
363.6353287981859	363.69337868480727	42	127
363.8094784580499	363.98362811791384	66	127
363.8094784580499	363.8675283446712	42	127
363.8094784580499	363.98362811791384	58	127
363.98362811791384	364.4944671201814	56	127
363.98362811791384	364.4944671201814	65	127
363.98362811791384	364.04167800453513	42	127
364.15777777777777	364.2274376417234	42	127
364.3203174603175	364.3783673469388	42	127
364.4944671201814	364.8195464852608	58	127
364.4944671201814	364.8195464852608	66	127
364.4944671201814	364.5525170068027	42	127
364.6802267573696	364.76149659863944	42	127
364.88920634920635	364.9472335600907	42	127
365.0633560090703	365.1330158730159	42	127
365.24911564625853	365.2839455782313	42	127
365.4697052154195	365.5277551020408	43	127
365.6322448979592	365.6902947845805	43	127
365.8063945578231	365.8644217687075	43	127
365.98054421768705	366.0385941043084	43	127
366.15469387755104	366.21274376417233	43	127
366.32884353741497	366.5029931972789	67	127
366.32884353741497	366.3868707482993	43	127
366.32884353741497	366.5029931972789	67	127
366.5029931972789	366.8512925170068	69	127
366.5029931972789	366.8512925170068	66	127
366.5029931972789	366.56104308390024	43	127
366.6771428571429	366.7351927437642	43	127
366.8512925170068	366.9093424036281	43	127
366.8512925170068	367.02544217687074	71	127
366.8512925170068	367.02544217687074	65	127
367.02544217687074	367.0834920634921	43	127
367.02544217687074	367.3621315192744	72	127
367.02544217687074	367.3621315192744	63	127
367.1995691609977	367.24603174603175	43	127
367.3621315192744	367.4898412698413	62	127
367.3621315192744	367.37374149659865	43	127
367.3621315192744	367.4898412698413	74	127
367.4898412698413	368.41863945578234	60	127
367.4898412698413	368.0238775510204	75	127
367.4898412698413	367.55950113378685	43	127
367.6756009070295	367.7336507936508	43	127
367.8497505668934	367.90780045351477	43	127
368.0238775510204	368.0819501133787	43	127
368.0238775510204	368.4534693877551	66	127
368.1632199546485	368.2212471655329	43	127
368.33736961451245	368.40702947845807	43	127
368.49990929705217	368.55795918367346	43	127
368.49990929705217	368.9410657596372	67	127
368.49990929705217	368.9410657596372	59	127
368.6740589569161	368.73208616780045	43	127
368.82498866213155	368.88303854875284	43	127
368.9991383219955	369.05718820861676	43	127
369.1848979591837	369.2661678004535	43	127
369.38226757369614	369.4403174603175	43	127
369.54478458049886	369.60285714285715	43	127
369.7189569160998	369.7653968253968	43	127
369.88149659863944	369.9395464852608	43	127
370.05564625850343	370.125306122449	43	127
370.2414058956916	370.2994557823129	43	127
370.4039455782313	370.45038548752837	43	127
370.55487528344673	371.4372335600907	55	127
370.55487528344673	370.5897052154195	43	127
370.69419501133785	370.7522448979592	43	127
370.8799319727891	370.94961451247167	43	127
371.0657142857143	371.1237641723356	43	127
371.18179138321995	371.22825396825397	43	127
371.27469387755104	371.33274376417233	43	127
371.4372335600907	372.33120181405894	56	127
371.4372335600907	371.50689342403626	44	127
371.6229931972789	371.6926303854875	44	127
371.8087528344671	371.86680272108845	44	127
371.9829024943311	372.0409523809524	44	127
372.157052154195	372.21507936507936	44	127
372.33120181405894	372.50535147392293	68	127
372.33120181405894	372.50535147392293	68	127
372.33120181405894	372.3892517006803	44	127
372.50535147392293	372.5750113378685	44	127
372.50535147392293	372.83043083900225	70	127
372.50535147392293	372.83043083900225	67	127
372.6562811791383	372.71430839002267	44	127
372.83043083900225	373.00458049886623	66	127
372.83043083900225	372.8884807256236	44	127
372.83043083900225	373.00458049886623	72	127
373.00458049886623	373.0626303854875	44	127
373.00458049886623	373.3412698412698	64	127
373.00458049886623	373.3412698412698	73	127
373.1671201814059	373.22517006802724	44	127
373.3412698412698	373.5154195011338	63	127
373.3412698412698	373.41092970521544	44	127
373.3412698412698	373.5154195011338	75	127
373.5154195011338	373.921768707483	76	127
373.5154195011338	373.5734693877551	44	127
373.5154195011338	374.3397278911565	61	127
373.6547392290249	373.7127891156463	44	127
373.77083900226756	373.8288888888889	44	127
373.921768707483	374.37455782312924	67	127
373.921768707483	373.9798185941043	44	127
374.09591836734694	374.1655782312925	44	127
374.25843537414966	374.31650793650795	44	127
374.4326077097506	374.8853968253968	60	127
374.4326077097506	374.8853968253968	68	127
374.4326077097506	374.4906575963719	44	127
374.59514739229024	374.6531972789116	44	127
374.76927437641723	374.8273469387755	44	127
374.94344671201816	375.0131065759637	44	127
375.1175963718821	375.17562358276643	44	127
375.2801133786848	375.3381859410431	44	127
375.45428571428573	375.50072562358275	44	127
375.6052154195011	375.66326530612247	44	127
375.7793650793651	375.84902494331067	44	127
375.9651247165533	376.0231746031746	44	127
376.13927437641723	376.1857142857143	44	127
376.30179138321995	376.34825396825397	44	127
376.4643537414966	377.3815419501134	56	127
376.4643537414966	376.5224036281179	44	127
376.62689342403627	376.6849433106576	44	127
376.8126303854875	376.8707029478458	44	127
376.98680272108845	377.04485260770974	44	127
377.1493424036281	377.1841723356009	44	127
377.2886621315193	377.3467120181406	44	127
377.4628117913832	378.26390022675736	57	127
377.4628117913832	377.5324716553288	45	127
377.6485714285714	377.70662131519276	45	127
377.7878911564626	377.83430839002267	45	127
377.95043083900225	378.0084807256236	45	127
378.11297052154197	378.1478004535147	45	127
378.26390022675736	378.333560090703	45	127
378.26390022675736	378.43804988662134	69	127
378.26390022675736	378.43804988662134	69	127
378.43804988662134	378.71668934240364	71	127
378.43804988662134	378.71668934240364	68	127
378.43804988662134	378.48448979591836	45	127
378.5657596371882	378.62380952380954	45	127
378.71668934240364	378.77473922902493	45	127
378.71668934240364	378.89083900226757	67	127
378.71668934240364	378.89083900226757	73	127
378.89083900226757	378.9488888888889	45	127
378.89083900226757	379.2391383219955	74	127
378.89083900226757	379.2391383219955	65	127
379.0533560090703	379.12303854875285	45	127
379.2391383219955	379.4132879818594	64	127
379.2391383219955	379.4132879818594	76	127
379.2391383219955	379.2971882086168	45	127
379.4132879818594	380.24920634920636	77	127
379.4132879818594	380.24920634920636	62	127
379.4132879818594	379.47131519274376	45	127
379.58743764172334	379.6454875283447	45	127
379.7615873015873	379.80802721088435	45	127
379.9125170068027	379.98215419501133	45	127
380.0982766439909	380.15632653061226	45	127
380.24920634920636	380.411746031746	76	127
380.24920634920636	380.30725623582765	45	127
380.24920634920636	380.411746031746	64	127
380.411746031746	380.62072562358276	74	127
380.411746031746	380.62072562358276	65	127
380.411746031746	380.46979591836737	45	127
380.52784580498866	380.58589569161	45	127
380.6787755102041	380.8645351473923	57	127
380.6787755102041	380.8645351473923	73	127
380.6787755102041	380.74843537414966	45	127
380.8761451247166	380.93419501133786	57	127
380.8761451247166	380.93419501133786	45	127
380.8761451247166	381.1431746031746	74	127
381.02707482993196	381.0851247165533	45	127
381.02707482993196	381.0851247165533	57	127
381.2012244897959	381.24766439909297	45	127
381.2012244897959	381.24766439909297	57	127
381.3637641723356	381.6424036281179	72	127
381.3637641723356	381.6424036281179	62	127
381.3637641723356	381.4218140589569	56	127
381.3637641723356	381.4218140589569	44	127
381.514693877551	381.5843537414966	44	127
381.514693877551	381.5843537414966	56	127
381.70045351473925	381.75850340136054	44	127
381.70045351473925	381.75850340136054	56	127
381.88621315192745	382.1880725623583	62	127
381.88621315192745	381.955873015873	43	127
381.88621315192745	381.955873015873	55	127
381.88621315192745	382.1880725623583	71	127
382.07197278911565	382.13002267573694	55	127
382.07197278911565	382.13002267573694	43	127
382.2345124716553	382.2809523809524	43	127
382.2345124716553	382.2809523809524	55	127
382.397052154195	382.5595918367347	53	127
382.397052154195	382.4667120181406	41	127
382.57120181405895	382.61764172335603	41	127
382.7337414965986	382.84984126984125	67	127
382.7337414965986	382.84984126984125	67	127
382.7337414965986	382.7801814058957	41	127
382.84984126984125	382.8962811791383	70	127
382.84984126984125	382.8962811791383	71	127
382.8962811791383	382.94272108843535	41	127
382.8962811791383	383.058820861678	68	127
382.8962811791383	383.058820861678	68	127
383.058820861678	383.11687074829933	41	127
383.232970521542	383.4071201814059	67	127
383.232970521542	383.30263038548753	41	127
383.232970521542	383.4071201814059	67	127
383.4071201814059	383.4535600907029	41	127
383.4071201814059	383.6277097505669	68	127
383.4071201814059	383.6277097505669	68	127
383.5348299319728	383.56965986394556	41	127
383.6857596371882	383.74380952380955	41	127
383.83668934240364	383.89473922902494	41	127
384.0108390022676	384.0456689342404	41	127
384.161768707483	384.28947845804987	67	127
384.161768707483	384.2198185941043	41	127
384.161768707483	384.28947845804987	67	127
384.28947845804987	384.33591836734695	70	127
384.28947845804987	384.33591836734695	70	127
384.33591836734695	384.39396825396824	41	127
384.33591836734695	384.4984580498866	68	127
384.33591836734695	384.4984580498866	68	127
384.4984580498866	384.55650793650796	41	127
384.6726077097506	384.83514739229025	67	127
384.6726077097506	384.7306575963719	41	127
384.6726077097506	384.83514739229025	67	127
384.83514739229025	384.9048072562358	41	127
384.83514739229025	385.1370068027211	68	127
384.83514739229025	385.1370068027211	68	127
385.02090702947845	385.0789569160998	41	127
385.1950566893424	385.2531065759637	41	127
385.36920634920637	385.42725623582766	39	127
385.5085260770975	385.56657596371883	39	127
385.64784580498866	385.7175056689342	39	127
385.64784580498866	385.75233560090703	67	127
385.64784580498866	385.75233560090703	67	127
385.75233560090703	385.7987755102041	70	127
385.75233560090703	385.7987755102041	70	127
385.7987755102041	385.9845351473923	68	127
385.7987755102041	385.8568253968254	39	127
385.7987755102041	385.9845351473923	68	127
385.9845351473923	386.0425850340136	39	127
386.15868480725624	386.2167346938775	39	127
386.15868480725624	386.33283446712016	67	127
386.15868480725624	386.33283446712016	67	127
386.33283446712016	386.3908843537415	39	127
386.33283446712016	387.296462585034	68	127
386.33283446712016	387.296462585034	68	127
386.51859410430836	386.588253968254	39	127
386.7159637188209	386.808843537415	39	127
386.92494331065757	386.9829931972789	38	127
387.1107029478458	387.1687528344671	38	127
387.296462585034	387.47061224489795	67	127
387.296462585034	387.3545124716553	38	127
387.296462585034	387.47061224489795	67	127
387.47061224489795	387.56349206349205	36	127
387.47061224489795	387.6679818594104	63	127
387.47061224489795	387.6679818594104	63	127
387.6795918367347	387.72603174603177	36	127
387.8421315192744	388.01628117913833	65	127
387.8421315192744	388.01628117913833	65	127
387.8421315192744	387.9001814058957	36	127
388.01628117913833	388.4922902494331	62	127
388.01628117913833	388.4922902494331	62	127
388.01628117913833	388.3065306122449	43	127
388.8986394557823	389.0263492063492	67	127
388.8986394557823	389.0263492063492	67	127
389.0263492063492	389.07278911564623	70	127
389.0263492063492	389.07278911564623	70	127
389.07278911564623	389.2469387755102	68	127
389.07278911564623	389.2469387755102	68	127
389.3978684807256	389.5604081632653	67	127
389.3978684807256	389.5604081632653	67	127
389.5604081632653	390.431156462585	70	127
389.5604081632653	390.431156462585	70	127
390.431156462585	390.605306122449	68	127
390.431156462585	390.605306122449	68	127
390.605306122449	390.76784580498867	63	127
390.605306122449	390.76784580498867	63	127
390.9303854875283	391.1277551020408	65	127
390.9303854875283	391.1277551020408	65	127
391.1277551020408	391.5805442176871	62	127
391.1277551020408	391.5805442176871	62	127
391.96367346938774	392.09138321995465	67	127
391.96367346938774	392.09138321995465	67	127
392.09138321995465	392.13782312925173	70	127
392.09138321995465	392.13782312925173	70	127
392.13782312925173	392.31197278911566	68	127
392.13782312925173	392.31197278911566	68	127
392.4861224489796	392.6718820861678	67	127
392.4861224489796	392.6718820861678	67	127
392.6718820861678	392.86925170068025	75	127
392.6718820861678	392.86925170068025	75	127
392.93891156462587	393.12467120181407	74	127
392.93891156462587	393.12467120181407	74	127
393.2059410430839	393.40331065759636	72	127
393.2059410430839	393.40331065759636	72	127
393.4845804988662	393.67034013605445	71	127
393.4845804988662	393.67034013605445	71	127
393.74	393.9257596371882	72	127
393.74	393.9257596371882	72	127
393.99541950113377	394.08829931972787	70	127
393.99541950113377	394.08829931972787	70	127
394.26244897959185	394.5178684807256	67	127
394.26244897959185	394.5178684807256	67	127
394.5178684807256	394.7848979591837	68	127
394.5178684807256	394.7848979591837	68	127
394.7848979591837	395.0287074829932	60	127
394.7848979591837	395.0287074829932	60	127
395.0287074829932	395.26090702947846	62	127
395.0287074829932	395.26090702947846	62	127
395.26090702947846	396.0271655328798	63	127
395.26090702947846	396.0271655328798	63	127
396.0271655328798	396.2825850340136	62	127
396.0271655328798	396.2825850340136	62	127
396.2825850340136	396.5612244897959	65	127
396.2825850340136	396.5612244897959	65	127
396.5612244897959	396.8166439909297	63	127
396.5612244897959	396.8166439909297	63	127
396.8166439909297	396.9791836734694	59	127
396.8166439909297	396.9791836734694	59	127
397.1417233560091	397.315873015873	60	127
397.1417233560091	397.315873015873	60	127
397.315873015873	397.6641723356009	67	127
397.315873015873	397.6641723356009	67	127
398.9644897959184	399.4869387755102	54	127
399.1386394557823	399.30117913832197	62	127
399.1386394557823	399.30117913832197	60	127
399.30117913832197	399.4869387755102	62	127
399.30117913832197	399.4869387755102	69	127
399.4869387755102	399.5449886621315	72	127
399.4869387755102	400.00938775510207	55	127
399.4869387755102	399.5449886621315	69	127
399.6494784580499	399.71913832199544	69	127
399.6494784580499	399.71913832199544	72	127
399.6494784580499	399.71913832199544	62	127
399.8352380952381	399.8700680272109	62	127
399.8352380952381	399.8700680272109	72	127
399.8352380952381	399.8700680272109	67	127
400.00938775510207	400.06743764172336	66	127
400.00938775510207	400.06743764172336	72	127
400.00938775510207	400.4621768707483	57	127
400.00938775510207	400.06743764172336	62	127
400.183537414966	400.21836734693875	72	127
400.183537414966	400.21836734693875	62	127
400.183537414966	400.21836734693875	66	127
400.34607709750566	400.404126984127	62	127
400.34607709750566	400.404126984127	72	127
400.34607709750566	400.404126984127	66	127
400.5086167800454	400.9962358276644	54	127
400.67115646258503	400.8336961451247	62	127
400.67115646258503	400.8336961451247	60	127
400.8336961451247	400.9962358276644	69	127
400.8336961451247	400.9962358276644	62	127
400.9962358276644	401.0542857142857	69	127
400.9962358276644	401.0542857142857	72	127
400.9962358276644	401.51868480725625	55	127
401.17038548752834	401.2284353741497	62	127
401.17038548752834	401.2284353741497	72	127
401.17038548752834	401.2284353741497	69	127
401.34453514739226	401.4025850340136	62	127
401.34453514739226	401.4025850340136	72	127
401.34453514739226	401.4025850340136	67	127
401.51868480725625	401.57673469387754	67	127
401.51868480725625	401.57673469387754	62	127
401.51868480725625	401.57673469387754	71	127
401.51868480725625	401.8205442176871	43	127
401.6928344671202	401.75088435374147	67	127
401.6928344671202	401.75088435374147	62	127
401.6928344671202	401.75088435374147	71	127
401.8785941043084	401.9366439909297	62	127
401.8785941043084	401.9366439909297	67	127
401.8785941043084	401.9366439909297	71	127
402.05274376417236	402.5868027210884	52	127
402.23850340136056	402.4126530612245	60	127
402.23850340136056	402.4126530612245	58	127
402.4126530612245	402.5868027210884	60	127
402.4126530612245	402.5868027210884	67	127
402.5868027210884	402.64485260770977	67	127
402.5868027210884	403.10925170068026	53	127
402.5868027210884	402.64485260770977	70	127
402.7609523809524	402.8190022675737	60	127
402.7609523809524	402.8190022675737	67	127
402.7609523809524	402.8190022675737	70	127
402.93510204081633	402.9931519274376	69	127
402.93510204081633	402.9931519274376	60	127
402.93510204081633	402.9931519274376	65	127
403.10925170068026	403.1905215419501	65	127
403.10925170068026	403.1905215419501	65	127
403.10925170068026	403.56204081632654	57	127
403.10925170068026	403.1905215419501	60	127
403.30662131519273	403.3646712018141	65	127
403.30662131519273	403.3646712018141	65	127
403.30662131519273	403.3646712018141	60	127
403.46916099773244	403.51560090702947	65	127
403.46916099773244	403.51560090702947	65	127
403.46916099773244	403.51560090702947	60	127
403.62009070294783	404.0844897959184	54	127
403.7710204081633	403.92195011337867	62	127
403.7710204081633	403.92195011337867	60	127
403.92195011337867	404.0844897959184	62	127
403.92195011337867	404.0844897959184	69	127
404.0844897959184	404.61854875283444	55	127
404.0844897959184	404.1425396825397	72	127
404.0844897959184	404.1425396825397	67	127
404.2586394557823	404.3166893424036	72	127
404.2586394557823	404.3166893424036	67	127
404.2586394557823	404.3166893424036	62	127
404.43278911564624	404.50244897959186	62	127
404.43278911564624	404.50244897959186	67	127
404.43278911564624	404.50244897959186	72	127
404.61854875283444	404.6765986394558	62	127
404.61854875283444	404.6765986394558	71	127
404.61854875283444	404.6765986394558	65	127
404.61854875283444	405.1177777777778	43	127
404.8043083900227	404.87396825396826	71	127
404.8043083900227	404.87396825396826	65	127
404.8043083900227	404.87396825396826	62	127
404.9900680272109	405.05972789115646	71	127
404.9900680272109	405.05972789115646	65	127
404.9900680272109	405.05972789115646	62	127
405.1758276643991	405.7098866213152	36	127
405.349977324263	405.5357369614512	67	127
405.349977324263	405.5357369614512	64	127
405.349977324263	405.5357369614512	55	127
405.5357369614512	405.7098866213152	67	127
405.5357369614512	405.7098866213152	55	127
405.5357369614512	405.7098866213152	76	127
405.7098866213152	406.2091156462585	38	127
405.8608163265306	406.0349659863946	65	127
405.8608163265306	406.0349659863946	55	127
405.8608163265306	406.0349659863946	67	127
406.0349659863946	406.2091156462585	67	127
406.0349659863946	406.2091156462585	71	127
406.0349659863946	406.2091156462585	55	127
406.2091156462585	406.69673469387754	40	127
406.38326530612244	406.56902494331064	64	127
406.38326530612244	406.56902494331064	67	127
406.38326530612244	406.56902494331064	55	127
406.56902494331064	406.7431746031746	67	127
406.56902494331064	406.7431746031746	72	127
406.56902494331064	406.7431746031746	55	127
406.7547845804989	407.2540136054422	41	127
406.9637641723356	407.13791383219956	60	127
406.9637641723356	407.13791383219956	69	127
407.13791383219956	407.3120634920635	69	127
407.13791383219956	407.3120634920635	72	127
407.3120634920635	407.83451247165533	53	127
407.4862131519274	407.67197278911567	57	127
407.4862131519274	407.67197278911567	60	127
407.67197278911567	407.83451247165533	60	127
407.67197278911567	407.83451247165533	63	127
407.83451247165533	407.8809523809524	69	127
407.83451247165533	408.33374149659863	54	127
407.83451247165533	407.8809523809524	60	127
407.997052154195	408.05510204081634	60	127
407.997052154195	408.05510204081634	69	127
408.171201814059	408.217641723356	69	127
408.171201814059	408.217641723356	60	127
408.33374149659863	408.82136054421767	53	127
408.5311111111111	408.70526077097503	62	127
408.5311111111111	408.70526077097503	58	127
408.70526077097503	408.879410430839	62	127
408.70526077097503	408.879410430839	65	127
408.879410430839	409.42507936507934	41	127
408.879410430839	408.92585034013604	70	127
408.879410430839	408.92585034013604	65	127
408.879410430839	408.92585034013604	62	127
409.0419501133787	409.1232199546485	62	127
409.0419501133787	409.1232199546485	65	127
409.0419501133787	409.1232199546485	70	127
409.23931972789114	409.30897959183676	62	127
409.23931972789114	409.30897959183676	70	127
409.23931972789114	409.30897959183676	65	127
409.42507936507934	409.4831292517007	72	127
409.42507936507934	409.4831292517007	63	127
409.42507936507934	409.4831292517007	69	127
409.42507936507934	409.95913832199545	42	127
409.58761904761906	409.64566893424035	69	127
409.58761904761906	409.64566893424035	63	127
409.58761904761906	409.64566893424035	72	127
409.7849886621315	409.8430385487528	63	127
409.7849886621315	409.8430385487528	72	127
409.7849886621315	409.8430385487528	69	127
409.95913832199545	410.4351473922903	41	127
410.1332879818594	410.31904761904764	58	127
410.1332879818594	410.31904761904764	62	127
410.31904761904764	410.49319727891157	65	127
410.31904761904764	410.49319727891157	62	127
410.49319727891157	410.55124716553286	65	127
410.49319727891157	410.55124716553286	70	127
410.49319727891157	411.0156462585034	53	127
410.49319727891157	410.55124716553286	62	127
410.6673469387755	410.72539682539684	62	127
410.6673469387755	410.72539682539684	70	127
410.6673469387755	410.72539682539684	65	127
410.8531065759637	410.89954648526077	62	127
410.8531065759637	410.89954648526077	70	127
410.8531065759637	410.89954648526077	65	127
411.0156462585034	411.0736961451247	69	127
411.0156462585034	412.09537414965985	54	127
411.0156462585034	411.0736961451247	63	127
411.0156462585034	411.0736961451247	72	127
411.17818594104307	411.2362358276644	63	127
411.17818594104307	411.2362358276644	72	127
411.17818594104307	411.2362358276644	69	127
411.36394557823127	411.4336054421769	63	127
411.36394557823127	411.4336054421769	69	127
411.36394557823127	411.4336054421769	72	127
411.7354648526077	411.90961451247165	63	127
411.7354648526077	411.90961451247165	60	127
411.90961451247165	412.09537414965985	63	127
411.90961451247165	412.09537414965985	69	127
412.09537414965985	412.1534240362812	72	127
412.09537414965985	412.6062131519274	55	127
412.09537414965985	412.1534240362812	67	127
412.26952380952383	412.3275736961451	67	127
412.26952380952383	412.3275736961451	72	127
412.44367346938776	412.4901133786848	60	127
412.44367346938776	412.4901133786848	64	127
412.44367346938776	412.4901133786848	72	127
412.6062131519274	412.67587301587304	62	127
412.6062131519274	413.0590022675737	43	127
412.6062131519274	412.67587301587304	71	127
412.6062131519274	412.67587301587304	67	127
412.7919727891156	412.86163265306124	71	127
412.7919727891156	412.86163265306124	62	127
412.7919727891156	412.86163265306124	67	127
412.9661224489796	413.0241723356009	55	127
412.9661224489796	413.0241723356009	71	127
412.9661224489796	413.0241723356009	65	127
413.117052154195	413.62789115646257	42	127
413.291201814059	413.45374149659864	63	127
413.291201814059	413.45374149659864	60	127
413.45374149659864	413.62789115646257	63	127
413.45374149659864	413.62789115646257	69	127
413.62789115646257	413.6975510204082	72	127
413.62789115646257	413.6975510204082	67	127
413.62789115646257	414.1619501133787	43	127
413.80204081632655	413.86009070294784	67	127
413.80204081632655	413.86009070294784	72	127
413.9761904761905	414.0342403628118	60	127
413.9761904761905	414.0342403628118	72	127
413.9761904761905	414.0342403628118	64	127
414.1619501133787	414.22	67	127
414.1619501133787	414.22	71	127
414.1619501133787	414.22	62	127
414.1619501133787	414.6495691609977	55	127
414.3360997732426	414.39414965986396	71	127
414.3360997732426	414.39414965986396	62	127
414.3360997732426	414.39414965986396	67	127
414.5102494331066	414.57990929705215	65	127
414.5102494331066	414.57990929705215	71	127
414.5102494331066	414.57990929705215	55	127
414.70761904761906	415.11396825396827	54	127
414.881768707483	415.03269841269844	63	127
414.881768707483	415.03269841269844	60	127
415.03269841269844	415.17201814058956	63	127
415.03269841269844	415.17201814058956	69	127
415.17201814058956	415.21845804988664	69	127
415.17201814058956	415.21845804988664	72	127
415.17201814058956	415.57836734693876	53	127
415.322947845805	415.369387755102	63	127
415.322947845805	415.369387755102	72	127
415.322947845805	415.369387755102	69	127
415.4622675736961	415.5203174603175	72	127
415.4622675736961	415.5203174603175	63	127
415.4622675736961	415.5203174603175	69	127
415.6364172335601	416.18208616780043	52	127
415.6364172335601	415.6944671201814	64	127
415.6364172335601	415.6944671201814	69	127
415.6364172335601	415.6944671201814	72	127
415.81056689342404	415.86861678004533	64	127
415.81056689342404	415.86861678004533	69	127
415.81056689342404	415.86861678004533	72	127
416.0079365079365	416.0659863945578	72	127
416.0079365079365	416.0659863945578	69	127
416.0079365079365	416.0659863945578	64	127
416.18208616780043	416.25174603174605	72	127
416.18208616780043	416.25174603174605	69	127
416.18208616780043	416.25174603174605	64	127
416.18208616780043	416.62326530612245	50	127
416.3562358276644	416.4142857142857	69	127
416.3562358276644	416.4142857142857	72	127
416.3562358276644	416.4142857142857	64	127
416.5071655328798	416.56521541950116	64	127
416.5071655328798	416.56521541950116	72	127
416.5071655328798	416.56521541950116	69	127
416.7045351473923	416.7625850340136	72	127
416.7045351473923	416.7625850340136	65	127
416.7045351473923	417.1805442176871	38	127
416.7045351473923	416.7625850340136	69	127
416.87868480725626	416.93673469387755	72	127
416.87868480725626	416.93673469387755	69	127
416.87868480725626	416.93673469387755	65	127
417.0528344671202	417.12249433106575	69	127
417.0528344671202	417.12249433106575	72	127
417.0528344671202	417.12249433106575	65	127
417.2269841269841	417.28503401360547	65	127
417.2269841269841	417.28503401360547	71	127
417.2269841269841	417.28503401360547	55	127
417.2269841269841	417.66816326530613	43	127
417.2269841269841	417.28503401360547	67	127
417.40113378684805	417.4591836734694	55	127
417.40113378684805	417.4591836734694	65	127
417.40113378684805	417.4591836734694	67	127
417.40113378684805	417.4591836734694	71	127
417.56367346938777	417.62172335600906	71	127
417.56367346938777	417.62172335600906	55	127
417.56367346938777	417.62172335600906	65	127
417.56367346938777	417.62172335600906	67	127
417.7262131519274	418.02807256235826	55	127
417.7262131519274	418.02807256235826	67	127
417.7262131519274	418.02807256235826	64	127
417.7262131519274	418.02807256235826	72	127
417.7262131519274	418.02807256235826	36	127
418.24866213151927	418.57374149659864	76	127
418.24866213151927	418.57374149659864	67	127
418.24866213151927	418.7478911564626	60	127
418.57374149659864	418.7478911564626	74	127
418.57374149659864	418.7478911564626	65	127
418.7478911564626	419.2355102040816	59	127
418.7478911564626	419.2355102040816	77	127
418.7478911564626	419.2355102040816	69	127
419.2355102040816	419.52575963718823	76	127
419.2355102040816	419.52575963718823	60	127
419.2355102040816	419.52575963718823	67	127
419.75795918367345	420.0946485260771	70	127
419.75795918367345	420.268798185941	60	127
419.75795918367345	420.0946485260771	79	127
420.0946485260771	420.268798185941	77	127
420.0946485260771	420.268798185941	69	127
420.268798185941	420.74480725623584	71	127
420.268798185941	420.74480725623584	65	127
420.268798185941	420.74480725623584	81	127
420.74480725623584	420.98861678004533	72	127
420.74480725623584	420.98861678004533	64	127
420.74480725623584	420.98861678004533	79	127
421.2208163265306	421.766485260771	86	127
421.2208163265306	421.766485260771	58	127
421.2208163265306	421.6968253968254	64	127
421.766485260771	422.3121541950113	84	127
421.766485260771	422.3121541950113	57	127
421.766485260771	422.8113832199546	65	127
422.3121541950113	422.8113832199546	56	127
422.3121541950113	422.8113832199546	74	127
422.3121541950113	422.8113832199546	83	127
422.8113832199546	423.3222222222222	73	127
422.8113832199546	423.3222222222222	55	127
422.8113832199546	423.3222222222222	82	127
422.8113832199546	423.3222222222222	65	127
423.3222222222222	423.798231292517	48	127
423.3222222222222	423.74018140589567	64	127
423.3222222222222	423.798231292517	79	127
423.3222222222222	423.74018140589567	72	127
423.798231292517	424.10009070294785	41	127
423.798231292517	424.10009070294785	69	127
423.798231292517	424.10009070294785	65	127
423.798231292517	424.10009070294785	77	127
424.32068027210886	424.6109297052154	55	127
424.32068027210886	424.37873015873015	67	127
424.32068027210886	424.6109297052154	67	127
424.32068027210886	424.37873015873015	55	127
424.4948299319728	424.5528798185941	55	127
424.4948299319728	424.5528798185941	67	127
424.6689795918367	424.73863945578233	55	127
424.6689795918367	424.73863945578233	67	127
424.8547392290249	424.901179138322	67	127
424.8547392290249	424.901179138322	55	127
425.01727891156463	425.06371882086165	55	127
425.01727891156463	425.06371882086165	67	127
425.1798185941043	425.23786848072564	55	127
425.1798185941043	425.23786848072564	67	127
425.3539682539683	425.4004081632653	67	127
425.3539682539683	425.6326077097506	67	127
425.3539682539683	425.6326077097506	55	127
425.3539682539683	425.4004081632653	55	127
425.51650793650794	425.5745578231292	55	127
425.51650793650794	425.5745578231292	67	127
425.69065759637186	425.7487074829932	67	127
425.69065759637186	425.7487074829932	55	127
425.86480725623585	426.09700680272107	55	127
425.86480725623585	425.8996371882086	55	127
425.86480725623585	426.09700680272107	67	127
425.86480725623585	425.8996371882086	67	127
425.9925170068027	426.0389569160998	55	127
425.9925170068027	426.0389569160998	67	127
426.1550566893424	426.2131065759637	67	127
426.1550566893424	426.2131065759637	55	127
426.32920634920634	426.3988662131519	67	127
426.32920634920634	426.3988662131519	55	127
426.5033560090703	426.54979591836735	55	127
426.5033560090703	426.54979591836735	67	127
426.6542857142857	426.712335600907	67	127
426.6542857142857	426.712335600907	55	127
426.82843537414965	427.1302947845805	48	127
426.82843537414965	427.1302947845805	67	127
427.37410430839003	427.87333333333333	58	127
427.37410430839003	427.87333333333333	73	127
427.37410430839003	427.87333333333333	64	127
427.37410430839003	427.87333333333333	67	127
427.87333333333333	428.31451247165535	72	127
427.87333333333333	428.26807256235827	68	127
427.87333333333333	428.31451247165535	56	127
427.87333333333333	428.26807256235827	65	127
428.31451247165535	428.8369614512472	65	127
428.31451247165535	428.8369614512472	71	127
428.31451247165535	428.8369614512472	55	127
428.31451247165535	428.8369614512472	62	127
428.8369614512472	429.3245804988662	70	127
428.8369614512472	429.3245804988662	65	127
428.8369614512472	429.3245804988662	43	127
428.8369614512472	429.3245804988662	61	127
429.3245804988662	429.81219954648526	64	127
429.3245804988662	429.81219954648526	58	127
429.3245804988662	429.81219954648526	67	127
429.3245804988662	429.81219954648526	36	127
429.87024943310655	430.1604988662132	41	127
429.87024943310655	430.1604988662132	57	127
429.87024943310655	430.1604988662132	65	127
429.87024943310655	430.1604988662132	65	127
430.3926984126984	430.462358276644	43	127
430.3926984126984	430.7061678004535	55	127
430.3926984126984	430.7061678004535	67	127
430.3926984126984	430.462358276644	55	127
430.57845804988665	430.6481179138322	43	127
430.57845804988665	430.6481179138322	55	127
430.76421768707485	430.82226757369614	43	127
430.76421768707485	430.82226757369614	55	127
430.9383673469388	430.99641723356007	55	127
430.9383673469388	430.99641723356007	43	127
431.0660770975057	431.10090702947844	43	127
431.0660770975057	431.10090702947844	55	127
431.2170068027211	431.2750566893424	55	127
431.2170068027211	431.2750566893424	43	127
431.39115646258506	431.6581859410431	55	127
431.39115646258506	431.6581859410431	67	127
431.39115646258506	431.44920634920635	43	127
431.39115646258506	431.44920634920635	55	127
431.5536961451247	431.611746031746	55	127
431.5536961451247	431.611746031746	43	127
431.7162358276644	431.7742857142857	43	127
431.7162358276644	431.7742857142857	55	127
431.8671655328798	432.1458049886621	67	127
431.8671655328798	432.1458049886621	55	127
431.8671655328798	431.9252154195011	55	127
431.8671655328798	431.9252154195011	43	127
432.0297052154195	432.08775510204083	43	127
432.0297052154195	432.08775510204083	55	127
432.20385487528347	432.2502947845805	43	127
432.20385487528347	432.2502947845805	55	127
432.3780045351474	432.4244444444444	55	127
432.3780045351474	432.4244444444444	43	127
432.5173242630386	432.5637641723356	55	127
432.5173242630386	432.5637641723356	43	127
432.67986394557823	432.7379138321995	55	127
432.67986394557823	432.7379138321995	43	127
432.86562358276643	433.155873015873	48	127
432.86562358276643	432.9236734693878	36	127
433.03977324263036	433.08621315192744	36	127
433.21392290249435	433.27197278911564	36	127
433.4112925170068	433.4693424036281	36	127
433.58544217687074	433.6318820861678	36	127
433.7363718820862	433.89891156462585	55	127
433.7363718820862	433.7828117913832	36	127
433.7363718820862	433.89891156462585	64	127
433.89891156462585	434.2239909297052	62	127
433.89891156462585	433.95696145124714	36	127
433.89891156462585	434.2239909297052	53	127
434.08467120181405	434.1427210884354	36	127
434.2239909297052	434.2820408163265	36	127
434.2239909297052	434.39814058956915	60	127
434.2239909297052	434.39814058956915	52	127
434.39814058956915	434.93219954648526	59	127
434.39814058956915	434.4561904761905	36	127
434.39814058956915	434.93219954648526	50	127
434.5722902494331	434.63034013605443	36	127
434.74643990929707	434.80448979591836	36	127
434.93219954648526	435.22244897959183	52	127
434.93219954648526	434.99024943310656	36	127
434.93219954648526	435.22244897959183	60	127
435.1063492063492	435.16439909297054	36	127
435.2804988662132	435.4546485260771	64	127
435.2804988662132	435.4546485260771	55	127
435.2804988662132	435.33854875283447	36	127
435.4546485260771	435.81455782312923	62	127
435.4546485260771	435.5126984126984	36	127
435.4546485260771	435.81455782312923	53	127
435.62879818594104	435.6868480725624	36	127
435.81455782312923	435.8609977324263	36	127
435.81455782312923	435.9538775510204	52	127
435.81455782312923	435.9538775510204	60	127
435.9538775510204	436.464716553288	59	127
435.9538775510204	436.464716553288	50	127
435.9538775510204	436.0119274376417	36	127
436.12802721088434	436.1860770975057	36	127
436.29056689342406	436.34861678004535	36	127
436.464716553288	436.7433560090703	52	127
436.464716553288	436.7433560090703	60	127
436.464716553288	436.5227664399093	36	127
436.6388662131519	436.685306122449	36	127
436.80140589569163	436.9639455782313	60	127
436.80140589569163	436.84784580498865	36	127
436.80140589569163	436.9639455782313	52	127
436.9639455782313	437.0219954648526	36	127
436.9639455782313	437.3122448979592	53	127
436.9639455782313	437.3122448979592	62	127
437.1380952380952	437.19614512471657	36	127
437.3122448979592	437.4980045351474	55	127
437.3122448979592	437.3702947845805	36	127
437.3122448979592	437.4980045351474	64	127
437.4980045351474	437.83469387755105	57	127
437.4980045351474	437.5444444444444	36	127
437.4980045351474	437.83469387755105	65	127
437.66054421768706	437.7185941043084	36	127
437.83469387755105	437.9972335600907	60	127
437.83469387755105	437.89274376417234	36	127
437.83469387755105	437.9972335600907	67	127
437.9972335600907	438.055283446712	36	127
437.9972335600907	438.47324263038547	65	127
437.9972335600907	438.47324263038547	68	127
438.17138321995463	438.1829931972789	36	127
438.3107029478458	438.3687528344671	36	127
438.47324263038547	438.9028117913832	71	127
438.47324263038547	438.9028117913832	62	127
438.47324263038547	438.51968253968255	36	127
438.6241723356009	438.6822222222222	36	127
438.7867120181406	438.8447619047619	36	127
438.96086167800456	439.01891156462585	36	127
438.96086167800456	439.3091609977324	72	127
438.96086167800456	439.3091609977324	64	127
439.1350113378685	439.1930612244898	36	127
439.3091609977324	439.46009070294787	74	127
439.3091609977324	439.46009070294787	67	127
439.3091609977324	439.3439909297052	36	127
439.46009070294787	439.9941496598639	75	127
439.46009070294787	439.51814058956916	36	127
439.46009070294787	439.9941496598639	72	127
439.6342403628118	439.6922902494331	36	127
439.8083900226757	439.86643990929707	36	127
439.9941496598639	440.05219954648527	36	127
439.9941496598639	440.4585487528345	69	127
439.9941496598639	440.4585487528345	78	127
440.1682993197279	440.2263492063492	36	127
440.34244897959184	440.4004988662131	36	127
440.51659863945576	441.0854875283447	67	127
440.51659863945576	441.0854875283447	79	127
440.51659863945576	440.5862585034014	36	127
440.71396825396823	440.7720181405896	36	127
440.8997278911565	440.96938775510205	36	127
441.0854875283447	442.1419954648526	69	127
441.0854875283447	442.1419954648526	81	127
441.0854875283447	441.143537414966	36	127
441.2596371882086	441.3176870748299	36	127
441.43378684807254	441.4918367346939	36	127
441.60793650793653	441.6659863945578	36	127
441.7936961451247	441.851746031746	36	127
441.96784580498866	442.02589569161	36	127
442.1419954648526	442.20004535147393	36	127
442.1419954648526	443.14045351473925	70	127
442.1419954648526	443.14045351473925	82	127
442.31614512471657	442.37419501133786	36	127
442.4902947845805	442.5483446712018	36	127
442.6760544217687	442.7108843537415	36	127
442.82698412698414	442.87342403628116	36	127
442.97791383219953	443.0359637188209	36	127
443.14045351473925	443.54680272108845	71	127
443.14045351473925	443.54680272108845	83	127
443.14045351473925	443.19850340136054	36	127
443.3146031746032	443.37265306122447	36	127
443.45392290249436	443.4887528344671	36	127
443.616462585034	449.94390022675736	72	127
443.616462585034	448.3301133786848	84	127
443.616462585034	443.6745124716553	36	127
443.8022222222222	443.86027210884356	36	127
443.9995918367347	444.057641723356	36	127
444.17374149659867	444.2434013605442	36	127
444.38272108843535	444.4407709750567	36	127
444.55687074829933	444.6149206349206	36	127
444.73102040816326	444.77746031746034	36	127
444.8819501133787	444.94	36	127
445.05609977324264	445.1141496598639	36	127
445.24185941043083	445.2999092970522	36	127
445.42761904761903	445.4856689342404	36	127
445.601768707483	445.6598185941043	36	127
445.77591836734695	445.83396825396824	36	127
445.9500680272109	445.99650793650795	36	127
446.1242176870748	446.18226757369615	36	127
446.2983673469388	446.3564172335601	36	127
446.4725170068027	446.530566893424	36	127
446.62344671201816	446.68149659863946	36	127
446.7975963718821	446.8556462585034	36	127
446.9833560090703	447.0414058956916	36	127
447.1575056689342	447.21555555555557	36	127
447.3316553287982	447.3897052154195	36	127
447.45936507936506	447.49419501133787	36	127
447.6102947845805	447.6683446712018	36	127
447.7960544217687	447.85410430839005	36	127
447.9818140589569	448.03986394557825	36	127
448.1559637188209	448.2140136054422	36	127
448.3301133786848	453.21791383219954	84	127
448.3301133786848	448.3881632653061	36	127
448.515873015873	448.5855328798186	36	127
448.7132426303855	448.7712925170068	36	127
448.8873922902494	448.94544217687076	36	127
449.0615419501134	449.1195918367347	36	127
449.2356916099773	449.2937414965986	36	127
449.40984126984125	449.4678911564626	36	127
449.5956009070295	449.6536507936508	36	127
449.76975056689344	449.8278004535147	36	127
449.94390022675736	450.0019501133787	36	127
449.94390022675736	453.21791383219954	72	127
450.1180498866213	450.1877097505669	36	127
450.2921995464853	450.36185941043084	36	127
450.4779591836735	450.54761904761904	36	127
450.6521088435374	450.71015873015875	36	127
450.8494784580499	450.9191383219955	36	127
451.04684807256234	451.11650793650796	36	127
451.2442176870748	451.3254875283447	36	127
451.4764172335601	451.53446712018143	36	127
451.67378684807255	451.7434467120181	36	127
451.8827664399093	451.95242630385485	36	127
452.1033560090703	452.17301587301586	36	127
452.31233560090703	452.3819954648526	36	127
452.53292517006804	452.6025850340136	36	127
452.75351473922905	452.8347845804989	36	127
452.98571428571427	453.06698412698415	36	127
453.21791383219954	453.2991836734694	36	127
453.4501133786848	453.53138321995465	36	127
453.6823129251701	453.856462585034	36	127
456.73573696145127	456.8170068027211	48	127
456.73573696145127	456.8170068027211	55	127
456.73573696145127	456.8170068027211	52	127
456.8170068027211	457.10725623582766	60	127
456.8170068027211	457.10725623582766	52	127
456.8170068027211	457.10725623582766	55	127
457.10725623582766	457.2581859410431	64	127
457.10725623582766	457.2581859410431	60	127
457.10725623582766	457.2581859410431	55	127
457.2581859410431	457.7341950113379	67	127
457.2581859410431	457.7341950113379	64	127
457.2581859410431	457.7341950113379	60	127
457.7341950113379	457.8154648526077	60	127
457.7341950113379	457.8154648526077	48	127
457.7341950113379	457.8154648526077	64	127
458.02444444444444	458.4540136054422	67	127
458.02444444444444	458.4540136054422	60	127
458.02444444444444	458.4540136054422	64	127
458.4540136054422	458.65138321995465	60	127
458.4540136054422	458.65138321995465	48	127
458.4540136054422	458.65138321995465	64	127
458.8255328798186	459.24349206349206	64	127
458.8255328798186	459.24349206349206	60	127
458.8255328798186	459.24349206349206	70	127
459.24349206349206	459.52213151927435	48	127
459.24349206349206	459.52213151927435	67	127
459.24349206349206	459.52213151927435	60	127
459.7195011337868	459.9981405895692	65	127
459.7195011337868	460.24195011337866	36	127
459.7195011337868	459.9981405895692	60	127
459.9981405895692	460.1374603174603	48	127
459.9981405895692	460.1374603174603	67	127
460.1374603174603	460.32321995464855	65	127
460.1374603174603	460.2651700680272	60	127
460.32321995464855	460.65990929705214	60	127
460.32321995464855	460.65990929705214	64	127
460.32321995464855	460.65990929705214	36	127
460.7063492063492	461.4377777777778	36	127
460.7063492063492	460.961768707483	53	127
460.7063492063492	460.961768707483	62	127
460.961768707483	461.0894784580499	55	127
460.961768707483	461.0894784580499	64	127
461.0894784580499	461.50743764172336	62	127
461.0894784580499	461.50743764172336	53	127
461.50743764172336	461.92539682539683	60	127
461.50743764172336	461.92539682539683	52	127
461.50743764172336	461.92539682539683	36	127
461.94861678004537	462.6568253968254	50	127
461.94861678004537	462.6568253968254	55	127
461.94861678004537	462.6568253968254	43	127
461.94861678004537	462.6568253968254	36	127
462.73809523809524	463.388253968254	52	127
462.73809523809524	463.388253968254	36	127
462.73809523809524	463.388253968254	48	127
462.73809523809524	463.388253968254	55	127
463.434693877551	464.21256235827667	55	127
463.434693877551	464.21256235827667	53	127
463.434693877551	464.21256235827667	36	127
463.434693877551	464.21256235827667	50	127
464.28222222222223	465.46643990929704	48	127
464.28222222222223	465.46643990929704	55	127
464.28222222222223	465.46643990929704	36	127
464.28222222222223	465.46643990929704	52	127
465.46643990929704	466.8015873015873	52	127
465.46643990929704	466.8015873015873	48	127
465.46643990929704	466.8015873015873	36	127
465.46643990929704	466.8015873015873	55	127
466.8015873015873	468.2528344671202	55	127
466.8015873015873	468.2528344671202	48	127
466.8015873015873	468.2528344671202	36	127
466.8015873015873	468.7404535147392	52	127
468.2528344671202	468.7404535147392	36	127
468.2528344671202	468.7404535147392	48	127
468.2528344671202	468.7404535147392	55	127
