# onset,offset,note,velocity
1.9613151927437642	2.460521541950113	51	127
1.9613151927437642	2.460521541950113	39	127
2.460521541950113	3.0062131519274375	55	127
2.460521541950113	3.0062131519274375	43	127
3.0062131519274375	3.482222222222222	58	127
3.0062131519274375	3.482222222222222	46	127
3.482222222222222	3.8769614512471655	56	127
3.482222222222222	3.8769614512471655	44	127
3.8769614512471655	4.376190476190477	55	127
3.8769614512471655	4.376190476190477	43	127
4.376190476190477	4.852199546485261	51	127
4.376190476190477	4.852199546485261	39	127
4.852199546485261	5.328208616780046	50	127
4.852199546485261	5.328208616780046	38	127
5.328208616780046	5.688117913832199	53	127
5.328208616780046	5.688117913832199	41	127
5.688117913832199	6.175736961451247	58	127
5.688117913832199	6.175736961451247	46	127
6.175736961451247	6.674965986394557	44	127
6.175736961451247	6.674965986394557	56	127
6.674965986394557	7.116145124716553	43	127
6.674965986394557	7.116145124716553	55	127
7.116145124716553	7.603764172335601	39	127
7.116145124716553	7.603764172335601	51	127
7.615374149659864	8.114603174603175	48	127
7.615374149659864	8.114603174603175	36	127
8.114603174603175	8.613832199546485	51	127
8.114603174603175	8.613832199546485	39	127
8.613832199546485	9.147891156462585	34	127
8.613832199546485	9.147891156462585	46	127
9.147891156462585	9.647120181405896	51	127
9.147891156462585	9.647120181405896	39	127
9.647120181405896	10.134739229024943	32	127
9.647120181405896	10.134739229024943	44	127
10.134739229024943	10.552698412698414	53	127
10.134739229024943	10.552698412698414	41	127
10.552698412698414	11.07514739229025	45	127
10.552698412698414	11.07514739229025	33	127
11.07514739229025	11.539546485260772	41	127
11.07514739229025	11.539546485260772	53	127
11.539546485260772	12.038775510204081	46	127
11.539546485260772	12.038775510204081	34	127
12.050385487528345	12.52639455782313	53	127
12.050385487528345	12.52639455782313	41	127
12.52639455782313	13.072063492063492	58	127
12.52639455782313	13.072063492063492	46	127
13.072063492063492	13.606122448979592	56	127
13.072063492063492	13.606122448979592	44	127
13.606122448979592	14.151791383219955	55	127
13.606122448979592	14.151791383219955	43	127
14.151791383219955	14.604580498866213	31	127
14.151791383219955	14.604580498866213	43	127
14.604580498866213	15.092199546485261	48	127
14.604580498866213	15.092199546485261	36	127
15.103809523809524	15.603038548752835	43	127
15.103809523809524	15.603038548752835	55	127
15.603038548752835	16.11387755102041	60	127
15.603038548752835	16.11387755102041	48	127
16.11387755102041	16.601496598639457	58	127
16.11387755102041	16.601496598639457	46	127
16.601496598639457	17.100702947845804	56	127
16.601496598639457	17.100702947845804	44	127
17.100702947845804	17.65800453514739	44	127
17.100702947845804	17.65800453514739	32	127
17.65800453514739	18.192063492063493	49	127
17.65800453514739	18.192063492063493	37	127
18.203673469387756	18.61002267573696	56	127
18.203673469387756	18.61002267573696	44	127
18.61002267573696	19.09764172335601	61	127
18.61002267573696	19.09764172335601	49	127
19.09764172335601	19.59687074829932	59	127
19.09764172335601	19.59687074829932	47	127
19.59687074829932	20.119319727891156	58	127
19.59687074829932	20.119319727891156	46	127
20.119319727891156	20.63015873015873	46	127
20.119319727891156	20.63015873015873	34	127
20.63015873015873	21.140997732426303	51	127
20.63015873015873	21.140997732426303	39	127
21.140997732426303	21.686666666666667	55	127
21.140997732426303	21.686666666666667	43	127
21.686666666666667	22.232312925170067	41	127
21.686666666666667	22.232312925170067	53	127
22.232312925170067	22.719954648526077	29	127
22.232312925170067	22.719954648526077	41	127
22.73156462585034	23.26562358276644	46	127
22.73156462585034	23.26562358276644	34	127
23.26562358276644	23.79968253968254	50	127
23.26562358276644	23.79968253968254	38	127
23.79968253968254	24.33374149659864	41	127
23.79968253968254	24.33374149659864	53	127
24.33374149659864	24.86780045351474	58	127
24.33374149659864	24.86780045351474	46	127
24.86780045351474	25.390249433106575	57	127
24.86780045351474	25.390249433106575	45	127
25.390249433106575	25.982358276643993	58	127
25.390249433106575	25.982358276643993	46	127
25.993968253968255	26.4815873015873	46	127
25.993968253968255	26.4815873015873	34	127
26.4815873015873	26.96920634920635	50	127
26.4815873015873	26.96920634920635	38	127
26.96920634920635	27.43360544217687	53	127
26.96920634920635	27.43360544217687	41	127
27.43360544217687	27.909614512471656	58	127
27.43360544217687	27.909614512471656	46	127
27.909614512471656	28.408843537414967	57	127
27.909614512471656	28.408843537414967	45	127
28.408843537414967	28.91968253968254	58	127
28.408843537414967	28.91968253968254	46	127
28.942902494331065	29.442131519274376	46	127
28.942902494331065	29.442131519274376	34	127
29.442131519274376	29.918140589569163	50	127
29.442131519274376	29.918140589569163	38	127
29.918140589569163	30.301269841269843	53	127
29.918140589569163	30.301269841269843	41	127
30.301269841269843	30.82371882086168	46	127
30.301269841269843	30.82371882086168	58	127
30.82371882086168	31.334557823129252	56	127
30.82371882086168	31.334557823129252	44	127
31.334557823129252	31.833786848072563	58	127
31.334557823129252	31.833786848072563	46	127
31.845396825396826	32.29818594104309	55	127
31.845396825396826	32.29818594104309	43	127
32.29818594104309	32.78578231292517	58	127
32.29818594104309	32.78578231292517	46	127
32.78578231292517	33.27342403628118	55	127
32.78578231292517	33.27342403628118	43	127
33.27342403628118	33.77265306122449	51	127
33.27342403628118	33.77265306122449	39	127
33.77265306122449	34.22544217687075	34	127
33.77265306122449	34.22544217687075	46	127
34.22544217687075	34.70142857142857	31	127
34.22544217687075	34.70142857142857	43	127
34.70142857142857	35.22390022675737	48	127
34.70142857142857	35.22390022675737	36	127
35.22390022675737	35.75795918367347	51	127
35.22390022675737	35.75795918367347	39	127
35.75795918367347	36.30362811791383	43	127
35.75795918367347	36.30362811791383	55	127
36.30362811791383	36.930566893424036	60	127
36.30362811791383	36.930566893424036	48	127
36.9421768707483	37.65038548752835	43	127
36.9421768707483	37.65038548752835	55	127
37.65038548752835	38.16122448979592	58	127
37.65038548752835	38.16122448979592	46	127
38.16122448979592	38.683673469387756	60	127
38.16122448979592	38.683673469387756	48	127
38.683673469387756	39.19451247165533	63	127
38.683673469387756	39.19451247165533	51	127
39.19451247165533	39.72857142857143	67	127
39.19451247165533	39.72857142857143	55	127
39.74018140589569	40.12331065759637	45	127
39.74018140589569	40.12331065759637	33	127
40.320680272108845	40.72702947845805	46	127
40.320680272108845	40.72702947845805	34	127
40.88956916099773	41.09854875283447	48	127
40.88956916099773	41.09854875283447	36	127
41.44684807256236	41.94607709750567	50	127
41.44684807256236	41.94607709750567	38	127
41.94607709750567	42.433673469387756	50	127
41.94607709750567	42.433673469387756	62	127
42.433673469387756	42.94451247165533	55	127
42.433673469387756	42.94451247165533	67	127
42.94451247165533	43.42054421768707	55	127
42.94451247165533	43.42054421768707	43	127
43.42054421768707	43.9778231292517	53	127
43.42054421768707	43.9778231292517	41	127
43.9778231292517	44.45383219954648	65	127
43.9778231292517	44.45383219954648	53	127
44.45383219954648	44.99950113378685	58	127
44.45383219954648	44.99950113378685	46	127
44.99950113378685	45.510340136054424	46	127
44.99950113378685	45.510340136054424	34	127
45.510340136054424	46.021179138322	45	127
45.510340136054424	46.021179138322	33	127
46.021179138322	46.52040816326531	57	127
46.021179138322	46.52040816326531	45	127
46.52040816326531	47.24022675736961	50	127
46.52040816326531	47.24022675736961	38	127
47.24022675736961	47.77428571428572	33	127
47.24022675736961	47.77428571428572	45	127
47.77428571428572	48.401224489795915	41	127
47.77428571428572	48.401224489795915	29	127
48.401224489795915	48.94689342403628	38	127
48.401224489795915	48.94689342403628	26	127
48.94689342403628	49.58544217687075	31	127
48.94689342403628	49.58544217687075	43	127
49.58544217687075	50.258820861678004	55	127
49.58544217687075	50.258820861678004	43	127
50.258820861678004	50.7928798185941	57	127
50.258820861678004	50.7928798185941	45	127
50.7928798185941	51.29210884353741	45	127
50.7928798185941	51.29210884353741	33	127
51.303718820861675	51.93065759637188	38	127
51.303718820861675	52.26734693877551	50	127
51.93065759637188	52.42988662131519	38	127
52.42988662131519	52.789795918367346	66	127
52.42988662131519	52.789795918367346	62	127
52.42988662131519	54.194603174603174	38	127
52.42988662131519	52.789795918367346	74	127
52.80140589569161	53.12648526077098	62	127
52.80140589569161	53.12648526077098	66	127
52.80140589569161	53.12648526077098	74	127
53.13809523809524	53.41673469387755	74	127
53.13809523809524	53.41673469387755	66	127
53.13809523809524	53.41673469387755	62	127
53.42834467120181	53.776643990929706	62	127
53.42834467120181	53.776643990929706	64	127
53.42834467120181	53.776643990929706	67	127
53.42834467120181	53.776643990929706	73	127
53.78825396825397	54.10172335600907	73	127
53.78825396825397	54.10172335600907	64	127
53.78825396825397	54.10172335600907	62	127
53.78825396825397	54.10172335600907	67	127
54.11333333333334	54.45002267573696	64	127
54.11333333333334	54.45002267573696	67	127
54.11333333333334	54.45002267573696	73	127
54.11333333333334	54.45002267573696	62	127
54.46163265306122	54.78671201814059	62	127
54.46163265306122	54.78671201814059	66	127
54.46163265306122	54.78671201814059	69	127
54.46163265306122	54.78671201814059	72	127
54.46163265306122	55.26272108843538	38	127
54.78671201814059	55.10018140589569	72	127
54.78671201814059	55.10018140589569	69	127
54.78671201814059	55.10018140589569	66	127
54.78671201814059	55.10018140589569	62	127
55.11179138321995	55.36721088435374	66	127
55.11179138321995	55.36721088435374	69	127
55.11179138321995	55.36721088435374	62	127
55.11179138321995	55.36721088435374	72	127
55.378820861678	57.03904761904762	38	127
55.378820861678	55.70390022675737	62	127
55.378820861678	55.70390022675737	67	127
55.378820861678	55.70390022675737	71	127
55.71551020408163	55.98253968253968	71	127
55.71551020408163	55.98253968253968	67	127
55.71551020408163	55.98253968253968	62	127
55.99414965986394	56.284399092970524	67	127
55.99414965986394	56.284399092970524	71	127
55.99414965986394	56.284399092970524	62	127
56.29600907029479	56.609478458049885	70	127
56.29600907029479	56.609478458049885	61	127
56.29600907029479	56.609478458049885	67	127
56.62108843537415	56.946167800453516	70	127
56.62108843537415	56.946167800453516	61	127
56.62108843537415	56.946167800453516	67	127
56.946167800453516	57.22480725623583	67	127
56.946167800453516	57.22480725623583	61	127
56.946167800453516	57.22480725623583	70	127
57.23641723356009	58.01428571428571	38	127
57.23641723356009	57.549886621315196	60	127
57.23641723356009	57.549886621315196	69	127
57.56149659863946	57.87496598639456	69	127
57.56149659863946	57.87496598639456	60	127
57.88657596371882	58.11877551020408	60	127
57.88657596371882	58.11877551020408	69	127
58.13038548752834	58.42063492063492	59	127
58.13038548752834	58.42063492063492	62	127
58.13038548752834	58.42063492063492	69	127
58.13038548752834	59.732562358276645	38	127
58.43224489795919	58.73410430839002	62	127
58.43224489795919	58.73410430839002	59	127
58.43224489795919	58.73410430839002	69	127
58.745714285714286	59.0243537414966	59	127
58.745714285714286	59.0243537414966	62	127
58.745714285714286	59.0243537414966	69	127
59.0243537414966	59.3378231292517	67	127
59.0243537414966	59.3378231292517	58	127
59.0243537414966	59.3378231292517	62	127
59.349433106575965	59.662902494331064	67	127
59.349433106575965	59.662902494331064	62	127
59.349433106575965	59.662902494331064	58	127
59.674512471655326	59.97637188208617	62	127
59.674512471655326	59.97637188208617	58	127
59.674512471655326	59.97637188208617	67	127
59.98798185941043	61.59015873015873	38	127
59.98798185941043	60.30145124716553	55	127
59.98798185941043	60.30145124716553	61	127
59.98798185941043	60.30145124716553	64	127
60.31306122448979	60.6265306122449	55	127
60.31306122448979	60.6265306122449	64	127
60.31306122448979	60.6265306122449	61	127
60.63814058956916	60.85873015873016	61	127
60.63814058956916	60.85873015873016	64	127
60.63814058956916	60.85873015873016	55	127
60.87034013605442	61.18380952380952	54	127
60.87034013605442	61.18380952380952	62	127
60.87034013605442	61.18380952380952	66	127
61.195419501133784	61.50888888888889	54	127
61.195419501133784	61.50888888888889	62	127
61.195419501133784	61.50888888888889	66	127
61.50888888888889	61.81074829931973	62	127
61.50888888888889	61.81074829931973	66	127
61.50888888888889	61.81074829931973	54	127
61.82235827664399	63.54063492063492	50	127
61.82235827664399	63.54063492063492	62	127
62.77437641723356	65.25891156462585	43	127
62.77437641723356	65.25891156462585	31	127
63.69156462585034	64.88739229024944	50	127
63.69156462585034	64.88739229024944	62	127
65.04993197278911	65.46789115646258	50	127
65.04993197278911	65.46789115646258	62	127
65.47950113378685	65.9438775510204	50	127
65.47950113378685	65.9438775510204	62	127
65.47950113378685	66.22251700680272	31	127
65.47950113378685	66.22251700680272	43	127
65.9438775510204	66.36185941043084	63	127
65.9438775510204	66.36185941043084	51	127
66.36185941043084	67.52285714285715	63	127
66.36185941043084	67.91759637188208	43	127
66.36185941043084	67.91759637188208	31	127
66.36185941043084	67.52285714285715	51	127
67.68539682539682	68.1149433106576	64	127
67.68539682539682	68.1149433106576	52	127
68.1149433106576	68.57936507936508	67	127
68.1149433106576	68.86961451247166	43	127
68.1149433106576	68.86961451247166	31	127
68.1149433106576	68.57936507936508	55	127
68.57936507936508	68.97410430839003	52	127
68.57936507936508	68.97410430839003	64	127
68.98571428571428	70.14671201814059	65	127
68.98571428571428	70.14671201814059	53	127
68.98571428571428	70.54145124716554	31	127
68.98571428571428	70.54145124716554	43	127
70.29764172335601	70.75043083900226	68	127
70.29764172335601	70.75043083900226	56	127
70.76204081632653	71.63278911564626	72	127
70.76204081632653	72.30614512471655	43	127
70.76204081632653	72.30614512471655	31	127
70.76204081632653	71.63278911564626	60	127
71.63278911564626	72.35260770975057	59	127
71.63278911564626	72.35260770975057	71	127
72.50353741496599	73.2233560090703	60	127
72.50353741496599	73.2233560090703	72	127
72.50353741496599	74.09410430839003	31	127
72.50353741496599	74.09410430839003	43	127
73.37428571428572	74.09410430839003	59	127
73.37428571428572	74.09410430839003	71	127
74.23342403628118	75.20866213151928	63	127
74.23342403628118	75.98650793650793	31	127
74.23342403628118	75.98650793650793	43	127
74.23342403628118	75.20866213151928	75	127
75.20866213151928	76.0909977324263	62	127
75.20866213151928	76.0909977324263	74	127
76.28839002267574	76.86888888888889	70	127
76.28839002267574	76.86888888888889	75	127
76.28839002267574	76.86888888888889	82	127
76.28839002267574	77.75122448979592	43	127
76.28839002267574	77.75122448979592	46	127
76.28839002267574	77.75122448979592	51	127
76.28839002267574	77.75122448979592	55	127
76.86888888888889	77.40294784580499	67	127
76.86888888888889	77.40294784580499	79	127
77.40294784580499	77.9021768707483	63	127
77.40294784580499	77.9021768707483	75	127
77.9021768707483	78.40140589569161	70	127
77.9021768707483	78.40140589569161	58	127
78.40140589569161	78.87741496598639	55	127
78.40140589569161	78.87741496598639	67	127
78.87741496598639	79.24893424036281	63	127
78.87741496598639	79.24893424036281	51	127
79.24893424036281	79.74816326530612	58	127
79.24893424036281	79.74816326530612	46	127
79.74816326530612	80.20095238095239	55	127
79.74816326530612	80.20095238095239	43	127
80.20095238095239	80.61891156462585	58	127
80.20095238095239	80.61891156462585	46	127
80.61891156462585	81.1065306122449	56	127
80.61891156462585	81.1065306122449	44	127
81.1065306122449	81.57092970521542	55	127
81.1065306122449	81.57092970521542	43	127
81.57092970521542	81.97727891156462	51	127
81.57092970521542	81.97727891156462	39	127
81.97727891156462	82.41845804988662	50	127
81.97727891156462	82.41845804988662	38	127
82.41845804988662	82.87124716553288	53	127
82.41845804988662	82.87124716553288	41	127
82.87124716553288	83.2427664399093	58	127
82.87124716553288	83.2427664399093	46	127
83.2427664399093	83.69555555555556	56	127
83.2427664399093	83.69555555555556	44	127
83.69555555555556	84.15995464852608	55	127
83.69555555555556	84.15995464852608	43	127
84.15995464852608	84.69401360544218	39	127
84.15995464852608	84.69401360544218	51	127
84.70562358276644	85.14680272108843	48	127
84.70562358276644	85.14680272108843	36	127
85.14680272108843	85.59959183673469	51	127
85.14680272108843	85.59959183673469	39	127
85.59959183673469	86.06399092970521	46	127
85.59959183673469	86.06399092970521	34	127
86.06399092970521	86.51675736961451	51	127
86.06399092970521	86.51675736961451	39	127
86.51675736961451	86.94634920634921	32	127
86.51675736961451	86.94634920634921	44	127
86.94634920634921	87.42235827664399	41	127
86.94634920634921	87.42235827664399	53	127
87.42235827664399	87.96802721088436	45	127
87.42235827664399	87.96802721088436	33	127
87.96802721088436	88.47886621315193	41	127
87.96802721088436	88.47886621315193	53	127
88.47886621315193	88.97809523809524	34	127
88.47886621315193	88.97809523809524	46	127
88.97809523809524	89.46571428571428	41	127
88.97809523809524	89.46571428571428	53	127
89.46571428571428	89.91848072562358	58	127
89.46571428571428	89.91848072562358	46	127
89.91848072562358	90.35968253968254	56	127
89.91848072562358	90.35968253968254	44	127
90.37129251700681	90.88213151927438	55	127
90.37129251700681	90.88213151927438	43	127
90.88213151927438	91.26526077097506	58	127
90.88213151927438	91.26526077097506	46	127
91.26526077097506	91.76448979591837	53	127
91.26526077097506	91.76448979591837	41	127
91.76448979591837	92.17083900226757	46	127
91.76448979591837	92.17083900226757	58	127
92.17083900226757	92.67006802721089	39	127
92.17083900226757	92.67006802721089	51	127
92.67006802721089	93.13446712018141	49	127
92.67006802721089	93.13446712018141	37	127
93.13446712018141	93.59884353741496	48	127
93.13446712018141	93.59884353741496	36	127
93.59884353741496	94.0168253968254	51	127
93.59884353741496	94.0168253968254	39	127
94.0168253968254	94.49281179138322	34	127
94.0168253968254	94.49281179138322	46	127
94.49281179138322	94.91079365079365	51	127
94.49281179138322	94.91079365079365	39	127
94.91079365079365	95.3635827664399	32	127
94.91079365079365	95.3635827664399	44	127
95.3635827664399	95.86281179138322	51	127
95.3635827664399	95.86281179138322	39	127
95.87442176870748	96.39687074829932	43	127
95.87442176870748	96.39687074829932	31	127
96.39687074829932	96.83804988662132	30	127
96.39687074829932	96.83804988662132	42	127
96.83804988662132	97.33727891156462	41	127
96.83804988662132	97.33727891156462	29	127
97.33727891156462	97.8481179138322	51	127
97.33727891156462	97.8481179138322	39	127
97.85972789115647	98.37056689342404	41	127
97.85972789115647	98.37056689342404	29	127
98.37056689342404	98.88140589569161	40	127
98.37056689342404	98.88140589569161	28	127
98.88140589569161	99.34580498866214	27	127
98.88140589569161	99.34580498866214	39	127
99.34580498866214	99.82181405895692	51	127
99.34580498866214	99.82181405895692	39	127
99.82181405895692	100.34426303854875	46	127
99.82181405895692	100.34426303854875	34	127
100.34426303854875	100.85510204081632	42	127
100.34426303854875	100.85510204081632	30	127
100.85510204081632	101.41238095238096	32	127
100.85510204081632	101.41238095238096	44	127
101.41238095238096	101.98126984126984	44	127
101.41238095238096	101.98126984126984	56	127
101.9928798185941	102.49210884353741	34	127
101.9928798185941	102.49210884353741	46	127
102.49210884353741	103.02616780045352	39	127
102.49210884353741	103.02616780045352	51	127
103.02616780045352	103.56022675736962	54	127
103.02616780045352	103.56022675736962	42	127
103.56022675736962	104.08267573696145	58	127
103.56022675736962	104.08267573696145	46	127
104.08267573696145	104.62834467120182	34	127
104.08267573696145	104.62834467120182	46	127
104.62834467120182	105.13918367346939	58	127
104.62834467120182	105.13918367346939	46	127
105.15079365079364	108.26226757369615	45	127
105.15079365079364	108.26226757369615	33	127
108.58734693877551	109.07496598639456	46	127
108.58734693877551	109.07496598639456	34	127
109.07496598639456	109.57419501133786	51	127
109.07496598639456	109.57419501133786	39	127
109.57419501133786	110.06181405895691	55	127
109.57419501133786	110.06181405895691	43	127
110.06181405895691	110.54943310657596	58	127
110.06181405895691	110.54943310657596	46	127
110.54943310657596	111.00222222222222	60	127
110.54943310657596	111.00222222222222	48	127
111.00222222222222	111.48984126984126	48	127
111.00222222222222	111.48984126984126	36	127
111.50145124716553	112.01229024943311	44	127
111.50145124716553	112.01229024943311	32	127
112.01229024943311	112.49990929705216	48	127
112.01229024943311	112.49990929705216	36	127
112.49990929705216	112.99913832199546	41	127
112.49990929705216	112.99913832199546	53	127
112.99913832199546	113.48675736961451	56	127
112.99913832199546	113.48675736961451	44	127
113.48675736961451	113.97437641723356	44	127
113.48675736961451	113.97437641723356	32	127
113.97437641723356	114.47360544217688	56	127
113.97437641723356	114.47360544217688	44	127
114.47360544217688	115.11215419501134	46	127
114.47360544217688	115.11215419501134	34	127
115.11215419501134	115.6578231292517	51	127
115.11215419501134	115.6578231292517	39	127
115.6578231292517	116.08739229024944	55	127
115.6578231292517	116.08739229024944	43	127
116.08739229024944	116.58662131519274	58	127
116.08739229024944	116.58662131519274	46	127
116.58662131519274	117.10907029478459	34	127
116.58662131519274	117.10907029478459	46	127
117.10907029478459	117.74761904761905	46	127
117.10907029478459	117.74761904761905	58	127
117.75922902494331	118.7692970521542	39	127
117.75922902494331	118.7692970521542	51	127
117.87532879818595	118.00303854875284	55	127
118.00303854875284	118.14235827664399	58	127
118.14235827664399	118.25845804988663	63	127
118.25845804988663	118.37455782312925	67	127
118.37455782312925	118.50226757369614	63	127
118.50226757369614	118.61836734693877	58	127
118.61836734693877	118.75768707482993	55	127
118.7692970521542	119.75614512471655	38	127
118.7692970521542	119.75614512471655	50	127
118.9550566893424	119.09437641723356	68	127
119.09437641723356	119.24530612244898	77	127
119.24530612244898	119.41945578231292	82	127
119.41945578231292	119.58199546485261	77	127
119.58199546485261	119.74453514739228	68	127
119.75614512471655	120.63850340136054	39	127
119.75614512471655	120.63850340136054	51	127
119.87224489795918	119.98834467120182	55	127
119.98834467120182	120.10444444444444	58	127
120.10444444444444	120.22054421768708	63	127
120.22054421768708	120.3366439909297	67	127
120.3366439909297	120.44113378684807	63	127
120.44113378684807	120.53401360544218	58	127
120.53401360544218	120.62689342403628	55	127
120.63850340136054	121.55569160997733	53	127
120.63850340136054	121.55569160997733	41	127
120.76621315192743	120.88231292517007	56	127
120.88231292517007	120.98680272108844	58	127
120.98680272108844	121.0912925170068	62	127
121.0912925170068	121.2190022675737	68	127
121.2190022675737	121.33510204081632	62	127
121.33510204081632	121.43959183673469	58	127
121.43959183673469	121.54408163265306	56	127
121.55569160997733	122.54253968253968	38	127
121.55569160997733	122.54253968253968	50	127
121.718231292517	121.89238095238095	68	127
121.89238095238095	122.05492063492063	77	127
122.05492063492063	122.21746031746032	82	127
122.21746031746032	122.38	77	127
122.38	122.53092970521541	68	127
122.54253968253968	123.32040816326531	39	127
122.54253968253968	123.32040816326531	51	127
122.6586394557823	122.77473922902495	61	127
122.77473922902495	122.87922902494331	67	127
122.87922902494331	123.0069387755102	70	127
123.0069387755102	123.12303854875283	73	127
123.12303854875283	123.25074829931972	70	127
123.25074829931972	123.36684807256236	67	127
123.36684807256236	123.47133786848073	61	127
123.47133786848073	124.44657596371881	56	127
123.47133786848073	124.44657596371881	44	127
123.5758276643991	123.703537414966	60	127
123.703537414966	123.84285714285714	63	127
123.84285714285714	123.94734693877551	68	127
123.94734693877551	124.0750566893424	72	127
124.0750566893424	124.2027664399093	75	127
124.2027664399093	124.33047619047619	80	127
124.33047619047619	124.44657596371881	84	127
124.44657596371881	125.29410430839002	55	127
124.44657596371881	125.29410430839002	43	127
124.56267573696145	124.67877551020408	70	127
124.67877551020408	124.74843537414966	75	127
124.74843537414966	124.84131519274376	79	127
124.84131519274376	124.94580498866213	82	127
124.94580498866213	125.06190476190476	79	127
125.06190476190476	125.1780045351474	75	127
125.1780045351474	125.28249433106576	70	127
125.29410430839002	125.74689342403629	41	127
125.29410430839002	125.74689342403629	53	127
125.39859410430839	125.52630385487528	69	127
125.52630385487528	125.64240362811792	72	127
125.64240362811792	125.75850340136054	75	127
125.75850340136054	126.22290249433107	36	127
125.75850340136054	125.87460317460318	81	127
125.75850340136054	126.22290249433107	48	127
125.87460317460318	125.9907029478458	75	127
125.9907029478458	126.09519274376417	72	127
126.09519274376417	126.2112925170068	69	127
126.22290249433107	127.16331065759637	39	127
126.22290249433107	127.16331065759637	51	127
126.32739229024943	126.4318820861678	68	127
126.4318820861678	126.54798185941043	70	127
126.54798185941043	126.66408163265307	77	127
126.66408163265307	126.80340136054421	80	127
126.80340136054421	126.91950113378685	77	127
126.91950113378685	127.03560090702948	70	127
127.03560090702948	127.15170068027211	68	127
127.16331065759637	127.95278911564625	50	127
127.16331065759637	127.95278911564625	38	127
127.29102040816326	127.44195011337868	68	127
127.44195011337868	127.5928798185941	77	127
127.5928798185941	127.77863945578231	82	127
127.77863945578231	127.95278911564625	77	127
127.95278911564625	128.11532879818594	68	127
128.1269387755102	128.63777777777779	39	127
128.1269387755102	128.63777777777779	51	127
128.24301587301588	128.35913832199546	66	127
128.35913832199546	128.49843537414966	72	127
128.49843537414966	128.63777777777779	75	127
128.63777777777779	129.12539682539682	33	127
128.63777777777779	128.76548752834466	78	127
128.63777777777779	129.12539682539682	45	127
128.76548752834466	128.89319727891157	75	127
128.89319727891157	129.00927437641724	72	127
129.00927437641724	129.12539682539682	66	127
129.1370068027211	129.26469387755103	34	127
129.26469387755103	129.39242630385488	46	127
129.39242630385488	129.5085260770975	53	127
129.5085260770975	129.65945578231293	58	127
129.6710657596372	129.79877551020408	62	127
129.79877551020408	129.89165532879818	65	127
129.89165532879818	129.99614512471655	70	127
129.99614512471655	130.12385487528346	74	127
130.12385487528346	130.6114739229025	77	127
139.89943310657597	140.81662131519275	41	127
139.89943310657597	140.81662131519275	53	127
140.02716553287982	140.15485260770976	56	127
140.15485260770976	140.20131519274378	60	127
140.20131519274378	140.3174149659864	65	127
140.3174149659864	140.4451247165533	68	127
140.4451247165533	140.56120181405896	65	127
140.56120181405896	140.6889342403628	60	127
140.6889342403628	140.80503401360545	56	127
140.81662131519275	141.65256235827664	40	127
140.81662131519275	141.65256235827664	52	127
140.9443537414966	141.0372335600907	72	127
141.0372335600907	141.11850340136056	79	127
141.11850340136056	141.22299319727892	82	127
141.22299319727892	141.32746031746032	84	127
141.32746031746032	141.40875283446712	82	127
141.40875283446712	141.52485260770976	79	127
141.52485260770976	141.64095238095237	72	127
141.65256235827664	142.53492063492064	41	127
141.65256235827664	142.53492063492064	53	127
141.78027210884355	141.88476190476192	56	127
141.88476190476192	142.0124716553288	60	127
142.0124716553288	142.1401814058957	65	127
142.1401814058957	142.26789115646258	68	127
142.26789115646258	142.37238095238095	65	127
142.37238095238095	142.418820861678	60	127
142.418820861678	142.52331065759637	56	127
142.53492063492064	143.47530612244898	55	127
142.53492063492064	143.47530612244898	43	127
142.65102040816328	142.77873015873016	58	127
142.77873015873016	142.8948299319728	60	127
142.8948299319728	143.03414965986394	64	127
143.03414965986394	143.16185941043085	70	127
143.16185941043085	143.27795918367346	64	127
143.27795918367346	143.3940589569161	60	127
143.3940589569161	143.4637188208617	58	127
143.47530612244898	144.32285714285715	52	127
143.47530612244898	144.32285714285715	40	127
143.56820861678005	143.67269841269842	72	127
143.67269841269842	143.8004081632653	79	127
143.8004081632653	143.8700680272109	82	127
143.8700680272109	143.97455782312926	84	127
143.97455782312926	144.07904761904763	82	127
144.07904761904763	144.2067573696145	79	127
144.2067573696145	144.31124716553288	72	127
144.32285714285715	145.1239455782313	41	127
144.32285714285715	145.1239455782313	53	127
144.43895691609978	144.56666666666666	63	127
144.56666666666666	144.6827664399093	69	127
144.6827664399093	144.78725623582767	72	127
144.78725623582767	144.92657596371882	75	127
144.92657596371882	145.05428571428573	72	127
145.05428571428573	145.17038548752834	69	127
145.17038548752834	145.2748752834467	63	127
145.2748752834467	146.2268934240363	58	127
145.2748752834467	146.2268934240363	46	127
145.4025850340136	145.51868480725625	61	127
145.51868480725625	145.62315192743765	65	127
145.62315192743765	145.7508843537415	70	127
145.7508843537415	145.85537414965987	73	127
145.85537414965987	145.9830612244898	77	127
145.9830612244898	146.11079365079365	82	127
146.11079365079365	146.21528344671202	85	127
146.2268934240363	147.07442176870748	44	127
146.2268934240363	147.07442176870748	56	127
146.33138321995466	146.42426303854876	72	127
146.42426303854876	146.5403628117914	77	127
146.5403628117914	146.656462585034	80	127
146.656462585034	146.73773242630386	84	127
146.73773242630386	146.85380952380953	80	127
146.85380952380953	146.95832199546484	77	127
146.95832199546484	147.0628117913832	72	127
147.07442176870748	147.49238095238096	43	127
147.07442176870748	147.49238095238096	55	127
147.16730158730158	147.27179138321995	71	127
147.27179138321995	147.37628117913832	74	127
147.37628117913832	147.50399092970522	77	127
147.50399092970522	147.98	38	127
147.50399092970522	147.6317006802721	83	127
147.50399092970522	147.98	50	127
147.6317006802721	147.74780045351474	77	127
147.74780045351474	147.87548752834468	74	127
147.87548752834468	147.98	71	127
147.99160997732426	148.96684807256236	41	127
147.99160997732426	148.96684807256236	53	127
148.13090702947846	148.24702947845805	70	127
148.24702947845805	148.36312925170068	72	127
148.36312925170068	148.50244897959183	79	127
148.50244897959183	148.63015873015874	82	127
148.63015873015874	148.75786848072562	79	127
148.75786848072562	148.88557823129253	72	127
148.88557823129253	148.9552380952381	70	127
148.96684807256236	149.8143537414966	52	127
148.96684807256236	149.8143537414966	40	127
149.09455782312926	149.16421768707482	72	127
149.16421768707482	149.21065759637187	79	127
149.21065759637187	149.31514739229024	82	127
149.31514739229024	149.44285714285715	84	127
149.44285714285715	149.57056689342403	82	127
149.57056689342403	149.68666666666667	79	127
149.68666666666667	149.8027664399093	72	127
149.8143537414966	150.31360544217688	53	127
149.8143537414966	150.31360544217688	41	127
149.93047619047618	150.0697732426304	68	127
150.0697732426304	150.19750566893424	74	127
150.19750566893424	150.31360544217688	77	127
150.31360544217688	150.44131519274376	80	127
150.31360544217688	150.81283446712018	47	127
150.31360544217688	150.81283446712018	35	127
150.44131519274376	150.58061224489796	77	127
150.58061224489796	150.70834467120181	74	127
150.70834467120181	150.81283446712018	68	127
150.82444444444445	150.95215419501133	36	127
150.95215419501133	151.11469387755102	48	127
151.11469387755102	151.25401360544217	55	127
151.25401360544217	151.35850340136054	60	127
151.3701133786848	151.4978231292517	64	127
151.4978231292517	151.6022902494331	67	127
151.6022902494331	151.73002267573696	72	127
151.73002267573696	151.8461224489796	76	127
151.8461224489796	152.28730158730158	79	127
161.49401360544218	161.74943310657596	70	127
161.49401360544218	161.74943310657596	74	127
161.49401360544218	162.31832199546486	55	127
161.49401360544218	162.31832199546486	67	127
161.76104308390023	162.03968253968253	70	127
161.76104308390023	162.03968253968253	74	127
162.03968253968253	162.3067120181406	70	127
162.03968253968253	162.3067120181406	74	127
162.31832199546486	162.5853514739229	73	127
162.31832199546486	162.5853514739229	67	127
162.31832199546486	162.5853514739229	75	127
162.31832199546486	163.0265306122449	51	127
162.31832199546486	163.0265306122449	63	127
162.5969387755102	162.87560090702948	67	127
162.5969387755102	162.87560090702948	73	127
162.5969387755102	162.87560090702948	75	127
162.87560090702948	163.17746031746032	67	127
162.87560090702948	163.17746031746032	75	127
162.87560090702948	163.17746031746032	73	127
163.18907029478459	163.45609977324264	75	127
163.18907029478459	163.45609977324264	68	127
163.18907029478459	163.45609977324264	72	127
163.46768707482994	163.76954648526078	75	127
163.46768707482994	163.76954648526078	68	127
163.46768707482994	163.76954648526078	72	127
163.781179138322	164.0598185941043	75	127
163.781179138322	164.0598185941043	68	127
163.781179138322	164.0598185941043	72	127
164.07142857142858	164.38487528344672	75	127
164.07142857142858	164.38487528344672	77	127
164.07142857142858	164.38487528344672	69	127
164.39650793650793	164.69836734693877	77	127
164.39650793650793	164.69836734693877	69	127
164.39650793650793	164.69836734693877	75	127
164.70997732426304	164.93056689342404	75	127
164.70997732426304	164.93056689342404	69	127
164.70997732426304	164.93056689342404	77	127
164.93056689342404	165.1975963718821	74	127
164.93056689342404	165.1975963718821	77	127
164.93056689342404	165.1975963718821	70	127
164.93056689342404	165.80131519274377	34	127
164.93056689342404	165.80131519274377	46	127
165.20920634920634	165.48784580498867	70	127
165.20920634920634	165.48784580498867	74	127
165.20920634920634	165.48784580498867	77	127
165.49945578231294	165.7897052154195	77	127
165.49945578231294	165.7897052154195	74	127
165.49945578231294	165.7897052154195	70	127
165.80131519274377	166.03351473922902	71	127
165.80131519274377	166.03351473922902	77	127
165.80131519274377	166.03351473922902	79	127
165.80131519274377	166.52113378684808	31	127
165.80131519274377	166.52113378684808	43	127
166.03351473922902	166.34698412698413	79	127
166.03351473922902	166.34698412698413	71	127
166.03351473922902	166.34698412698413	77	127
166.37020408163266	166.6720634920635	71	127
166.37020408163266	166.6720634920635	77	127
166.37020408163266	166.6720634920635	79	127
166.6836507936508	167.0203628117914	79	127
166.6836507936508	167.0203628117914	72	127
166.6836507936508	167.0203628117914	75	127
166.6836507936508	167.0203628117914	36	127
166.6836507936508	167.0203628117914	48	127
167.19448979591837	167.357052154195	67	127
167.19448979591837	167.357052154195	73	127
167.19448979591837	167.357052154195	76	127
167.19448979591837	167.357052154195	79	127
167.19448979591837	167.357052154195	34	127
167.19448979591837	167.357052154195	46	127
167.68213151927438	168.4715873015873	65	127
167.68213151927438	168.4715873015873	72	127
167.68213151927438	168.4715873015873	77	127
167.68213151927438	168.4715873015873	33	127
167.68213151927438	168.4715873015873	45	127
168.63414965986394	169.47006802721089	66	127
168.63414965986394	169.47006802721089	72	127
168.63414965986394	169.47006802721089	74	127
168.63414965986394	169.47006802721089	78	127
168.63414965986394	169.47006802721089	32	127
168.63414965986394	169.47006802721089	44	127
169.63260770975057	170.1202267573696	67	127
169.63260770975057	170.1202267573696	71	127
169.63260770975057	170.1202267573696	79	127
169.63260770975057	170.1202267573696	31	127
169.63260770975057	170.1202267573696	43	127
170.42208616780044	170.66589569161	67	127
170.42208616780044	170.66589569161	79	127
170.42208616780044	170.66589569161	31	127
170.42208616780044	170.66589569161	43	127
170.67750566893423	171.19995464852607	67	127
170.67750566893423	171.19995464852607	79	127
170.67750566893423	171.19995464852607	31	127
170.67750566893423	171.19995464852607	43	127
171.4901814058957	171.72240362811792	67	127
171.4901814058957	171.72240362811792	79	127
171.4901814058957	171.72240362811792	31	127
171.4901814058957	171.72240362811792	43	127
171.7340136054422	172.22163265306122	67	127
171.7340136054422	172.22163265306122	79	127
171.7340136054422	172.22163265306122	31	127
171.7340136054422	172.22163265306122	43	127
172.46544217687074	172.70925170068028	67	127
172.46544217687074	172.70925170068028	79	127
172.46544217687074	172.70925170068028	31	127
172.46544217687074	172.70925170068028	43	127
172.70925170068028	173.22009070294786	67	127
172.70925170068028	173.22009070294786	79	127
172.70925170068028	173.22009070294786	31	127
172.70925170068028	173.22009070294786	43	127
173.5219501133787	173.7657596371882	67	127
173.5219501133787	173.7657596371882	78	127
173.5219501133787	173.7657596371882	79	127
173.5219501133787	173.7657596371882	31	127
173.5219501133787	173.7657596371882	42	127
173.77736961451248	174.26498866213151	67	127
173.77736961451248	174.26498866213151	78	127
173.77736961451248	174.26498866213151	79	127
173.77736961451248	174.26498866213151	31	127
173.77736961451248	174.26498866213151	42	127
174.6132879818594	174.89192743764173	67	127
174.6132879818594	174.89192743764173	78	127
174.6132879818594	174.89192743764173	79	127
174.6132879818594	174.89192743764173	31	127
174.6132879818594	174.89192743764173	42	127
174.903537414966	175.4027664399093	67	127
174.903537414966	175.4027664399093	78	127
174.903537414966	175.4027664399093	79	127
174.903537414966	175.4027664399093	31	127
174.903537414966	175.4027664399093	42	127
175.68138321995465	175.94843537414965	67	127
175.68138321995465	175.94843537414965	78	127
175.68138321995465	175.94843537414965	79	127
175.68138321995465	175.94843537414965	31	127
175.68138321995465	175.94843537414965	42	127
175.96004535147392	176.447641723356	67	127
175.96004535147392	176.447641723356	78	127
175.96004535147392	176.447641723356	79	127
175.96004535147392	176.447641723356	31	127
175.96004535147392	176.447641723356	42	127
176.7030612244898	176.93528344671202	67	127
176.7030612244898	176.93528344671202	77	127
176.7030612244898	176.93528344671202	79	127
176.7030612244898	176.93528344671202	31	127
176.7030612244898	176.93528344671202	41	127
176.7030612244898	176.93528344671202	43	127
176.9468934240363	177.4112925170068	77	127
176.9468934240363	177.4112925170068	79	127
176.9468934240363	177.4112925170068	31	127
176.9468934240363	177.4112925170068	67	127
176.9468934240363	177.4112925170068	41	127
176.9468934240363	177.4112925170068	43	127
177.6782993197279	177.91052154195012	77	127
177.6782993197279	177.91052154195012	79	127
177.6782993197279	177.91052154195012	31	127
177.6782993197279	177.91052154195012	41	127
177.6782993197279	177.91052154195012	43	127
177.6782993197279	177.91052154195012	67	127
177.9221315192744	178.39814058956915	67	127
177.9221315192744	178.39814058956915	77	127
177.9221315192744	178.39814058956915	79	127
177.9221315192744	178.39814058956915	31	127
177.9221315192744	178.39814058956915	41	127
177.9221315192744	178.39814058956915	43	127
178.7348299319728	178.99024943310658	67	127
178.7348299319728	178.99024943310658	77	127
178.7348299319728	178.99024943310658	79	127
178.7348299319728	178.99024943310658	31	127
178.7348299319728	178.99024943310658	41	127
178.7348299319728	178.99024943310658	43	127
179.00183673469388	179.4662358276644	67	127
179.00183673469388	179.4662358276644	77	127
179.00183673469388	179.4662358276644	79	127
179.00183673469388	179.4662358276644	31	127
179.00183673469388	179.4662358276644	41	127
179.00183673469388	179.4662358276644	43	127
179.7100680272109	179.8725850340136	76	127
179.7100680272109	179.8725850340136	79	127
179.7100680272109	179.8725850340136	31	127
179.7100680272109	179.8725850340136	40	127
179.7100680272109	179.8725850340136	43	127
179.7100680272109	179.8725850340136	67	127
179.8725850340136	180.31378684807257	67	127
179.8725850340136	180.31378684807257	76	127
179.8725850340136	180.31378684807257	79	127
179.8725850340136	180.31378684807257	31	127
179.8725850340136	180.31378684807257	40	127
179.8725850340136	180.31378684807257	43	127
180.55759637188208	180.69691609977323	76	127
180.55759637188208	180.69691609977323	79	127
180.55759637188208	180.69691609977323	31	127
180.55759637188208	180.69691609977323	40	127
180.55759637188208	180.69691609977323	43	127
180.55759637188208	180.69691609977323	67	127
180.7085260770975	181.13809523809525	31	127
180.7085260770975	181.13809523809525	67	127
180.7085260770975	181.13809523809525	76	127
180.7085260770975	181.13809523809525	79	127
180.7085260770975	181.13809523809525	40	127
180.7085260770975	181.13809523809525	43	127
181.3702947845805	181.62571428571428	31	127
181.3702947845805	181.62571428571428	40	127
181.3702947845805	181.62571428571428	43	127
181.3702947845805	181.62571428571428	76	127
181.3702947845805	181.62571428571428	79	127
181.3702947845805	181.62571428571428	67	127
181.63732426303855	182.12492063492064	67	127
181.63732426303855	182.12492063492064	79	127
181.63732426303855	182.12492063492064	31	127
181.63732426303855	182.12492063492064	40	127
181.63732426303855	182.12492063492064	43	127
181.63732426303855	182.12492063492064	76	127
182.39197278911564	182.63575963718822	79	127
182.39197278911564	182.63575963718822	31	127
182.39197278911564	182.63575963718822	39	127
182.39197278911564	182.63575963718822	43	127
182.39197278911564	182.63575963718822	67	127
182.39197278911564	182.63575963718822	75	127
182.64739229024943	183.1350113378685	67	127
182.64739229024943	183.1350113378685	75	127
182.64739229024943	183.1350113378685	79	127
182.64739229024943	183.1350113378685	31	127
182.64739229024943	183.1350113378685	39	127
182.64739229024943	183.1350113378685	43	127
183.4136507936508	183.66907029478458	31	127
183.4136507936508	183.66907029478458	67	127
183.4136507936508	183.66907029478458	75	127
183.4136507936508	183.66907029478458	79	127
183.4136507936508	183.66907029478458	39	127
183.4136507936508	183.66907029478458	43	127
183.68068027210884	184.17990929705215	67	127
183.68068027210884	184.17990929705215	75	127
183.68068027210884	184.17990929705215	79	127
183.68068027210884	184.17990929705215	31	127
183.68068027210884	184.17990929705215	39	127
183.68068027210884	184.17990929705215	43	127
184.4469387755102	184.69074829931972	75	127
184.4469387755102	184.69074829931972	79	127
184.4469387755102	184.69074829931972	67	127
184.4469387755102	184.69074829931972	39	127
184.4469387755102	184.69074829931972	43	127
184.4469387755102	184.69074829931972	31	127
184.702358276644	185.22480725623583	67	127
184.702358276644	185.22480725623583	75	127
184.702358276644	185.22480725623583	79	127
184.702358276644	185.22480725623583	31	127
184.702358276644	185.22480725623583	39	127
184.702358276644	185.22480725623583	43	127
185.48022675736962	185.72403628117914	79	127
185.48022675736962	185.72403628117914	67	127
185.48022675736962	185.72403628117914	74	127
185.48022675736962	185.72403628117914	31	127
185.48022675736962	185.72403628117914	38	127
185.48022675736962	185.72403628117914	43	127
185.7356462585034	186.18843537414966	43	127
185.7356462585034	186.18843537414966	67	127
185.7356462585034	186.18843537414966	74	127
185.7356462585034	186.18843537414966	79	127
185.7356462585034	186.18843537414966	55	127
186.46705215419502	186.69927437641724	67	127
186.46705215419502	186.69927437641724	71	127
186.46705215419502	186.69927437641724	79	127
186.46705215419502	186.69927437641724	41	127
186.46705215419502	186.69927437641724	53	127
186.7108843537415	187.19850340136054	67	127
186.7108843537415	187.19850340136054	72	127
186.7108843537415	187.19850340136054	79	127
186.7108843537415	187.19850340136054	39	127
186.7108843537415	187.19850340136054	51	127
187.45392290249433	187.74414965986395	67	127
187.45392290249433	187.74414965986395	74	127
187.45392290249433	187.74414965986395	79	127
187.45392290249433	187.74414965986395	38	127
187.45392290249433	187.74414965986395	50	127
187.74414965986395	188.20854875283447	67	127
187.74414965986395	188.20854875283447	75	127
187.74414965986395	188.20854875283447	79	127
187.74414965986395	188.20854875283447	36	127
187.74414965986395	188.20854875283447	48	127
188.45238095238096	188.67297052154194	67	127
188.45238095238096	188.67297052154194	74	127
188.45238095238096	188.67297052154194	79	127
188.45238095238096	188.67297052154194	35	127
188.45238095238096	188.67297052154194	47	127
188.6845804988662	189.17219954648527	36	127
188.6845804988662	189.17219954648527	67	127
188.6845804988662	189.17219954648527	75	127
188.6845804988662	189.17219954648527	79	127
188.6845804988662	189.17219954648527	48	127
189.4392290249433	189.68303854875285	67	127
189.4392290249433	189.68303854875285	76	127
189.4392290249433	189.68303854875285	79	127
189.4392290249433	189.68303854875285	34	127
189.4392290249433	189.68303854875285	46	127
189.6946485260771	190.1474149659864	67	127
189.6946485260771	190.1474149659864	77	127
189.6946485260771	190.1474149659864	79	127
189.6946485260771	190.1474149659864	33	127
189.6946485260771	190.1474149659864	45	127
190.36802721088435	190.62344671201814	67	127
190.36802721088435	190.62344671201814	78	127
190.36802721088435	190.62344671201814	79	127
190.36802721088435	190.62344671201814	32	127
190.36802721088435	190.62344671201814	44	127
190.6350566893424	191.14589569160998	79	127
190.6350566893424	191.14589569160998	67	127
190.6350566893424	191.14589569160998	31	127
190.6350566893424	191.14589569160998	43	127
191.633514739229	192.957052154195	50	127
191.633514739229	192.957052154195	38	127
192.957052154195	193.3053514739229	39	127
192.957052154195	193.3053514739229	51	127
193.3053514739229	193.6536507936508	35	127
193.3053514739229	193.6536507936508	47	127
193.66526077097507	194.5592290249433	50	127
193.66526077097507	194.5592290249433	38	127
194.721768707483	195.49963718820862	36	127
194.721768707483	195.49963718820862	48	127
194.721768707483	195.99886621315193	67	127
195.67378684807255	197.47333333333333	45	127
195.67378684807255	197.47333333333333	33	127
195.99886621315193	196.3239455782313	69	127
196.3239455782313	196.62580498866214	64	127
196.63741496598638	197.6707029478458	67	127
197.6707029478458	198.65755102040816	51	127
197.6707029478458	198.99424036281178	66	127
197.6707029478458	198.99424036281178	72	127
197.6707029478458	198.65755102040816	39	127
197.6707029478458	198.99424036281178	60	127
198.65755102040816	199.53990929705216	36	127
198.65755102040816	199.53990929705216	48	127
198.99424036281178	199.35414965986394	62	127
198.99424036281178	199.35414965986394	74	127
199.35414965986394	199.6792290249433	69	127
199.35414965986394	199.6792290249433	57	127
199.6792290249433	200.14362811791383	31	127
199.6792290249433	200.14362811791383	43	127
199.6792290249433	200.51514739229026	60	127
199.6792290249433	200.51514739229026	66	127
199.6792290249433	200.51514739229026	72	127
200.4338775510204	200.6544671201814	31	127
200.4338775510204	200.6544671201814	43	127
200.66607709750568	201.10725623582766	67	127
200.66607709750568	201.10725623582766	43	127
200.66607709750568	201.10725623582766	55	127
201.33945578231294	201.58326530612246	59	127
201.33945578231294	201.58326530612246	67	127
201.33945578231294	201.58326530612246	71	127
201.33945578231294	201.58326530612246	41	127
201.33945578231294	201.58326530612246	53	127
201.59487528344673	202.05927437641722	60	127
201.59487528344673	202.05927437641722	69	127
201.59487528344673	202.05927437641722	72	127
201.59487528344673	202.05927437641722	39	127
201.59487528344673	202.05927437641722	51	127
202.32630385487528	202.58172335600906	62	127
202.32630385487528	202.58172335600906	71	127
202.32630385487528	202.58172335600906	74	127
202.32630385487528	202.58172335600906	38	127
202.32630385487528	202.58172335600906	50	127
202.58172335600906	203.03451247165532	63	127
202.58172335600906	203.03451247165532	72	127
202.58172335600906	203.03451247165532	75	127
202.58172335600906	203.03451247165532	36	127
202.58172335600906	203.03451247165532	48	127
203.2899319727891	203.49891156462584	62	127
203.2899319727891	203.49891156462584	67	127
203.2899319727891	203.49891156462584	74	127
203.2899319727891	203.49891156462584	35	127
203.2899319727891	203.49891156462584	47	127
203.5105215419501	203.99814058956918	63	127
203.5105215419501	203.99814058956918	67	127
203.5105215419501	203.99814058956918	75	127
203.5105215419501	203.99814058956918	36	127
203.5105215419501	203.99814058956918	48	127
204.2651700680272	204.56702947845804	64	127
204.2651700680272	204.56702947845804	72	127
204.2651700680272	204.56702947845804	76	127
204.2651700680272	204.56702947845804	34	127
204.2651700680272	204.56702947845804	46	127
204.5786394557823	205.06625850340137	65	127
204.5786394557823	205.06625850340137	72	127
204.5786394557823	205.06625850340137	77	127
204.5786394557823	205.06625850340137	33	127
204.5786394557823	205.06625850340137	45	127
205.3100680272109	205.5306575963719	66	127
205.3100680272109	205.5306575963719	72	127
205.3100680272109	205.5306575963719	78	127
205.3100680272109	205.5306575963719	32	127
205.3100680272109	205.5306575963719	44	127
205.54226757369614	206.00666666666666	67	127
205.54226757369614	206.00666666666666	71	127
205.54226757369614	206.00666666666666	79	127
205.54226757369614	206.00666666666666	31	127
205.54226757369614	206.00666666666666	43	127
206.1924263038549	206.42462585034014	65	127
206.1924263038549	206.42462585034014	67	127
206.4362358276644	206.90063492063493	65	127
206.4362358276644	206.90063492063493	67	127
207.15605442176872	207.36503401360545	65	127
207.15605442176872	207.36503401360545	67	127
207.3766439909297	207.82943310657598	65	127
207.3766439909297	207.82943310657598	67	127
208.11968253968254	208.37510204081633	67	127
208.11968253968254	208.37510204081633	65	127
208.3867120181406	208.85111111111112	64	127
208.3867120181406	208.85111111111112	67	127
209.11814058956915	209.33873015873016	64	127
209.11814058956915	209.33873015873016	67	127
209.33873015873016	209.81473922902495	64	127
209.33873015873016	209.81473922902495	67	127
210.07015873015874	210.33718820861677	67	127
210.07015873015874	210.33718820861677	64	127
210.34879818594104	210.8015873015873	67	127
210.34879818594104	210.8015873015873	63	127
211.06861678004535	211.32403628117913	63	127
211.06861678004535	211.32403628117913	67	127
211.3356462585034	211.82326530612244	62	127
211.3356462585034	211.82326530612244	66	127
212.07868480725622	212.32249433106577	66	127
212.07868480725622	212.32249433106577	62	127
212.33410430839	212.79850340136053	62	127
212.33410430839	212.79850340136053	66	127
213.05392290249432	213.29773242630387	62	127
213.05392290249432	213.29773242630387	66	127
213.3093424036281	213.76213151927436	62	127
213.3093424036281	213.76213151927436	66	127
214.0407709750567	214.29619047619047	62	127
214.0407709750567	214.29619047619047	66	127
214.30780045351474	214.8302494331066	55	127
214.30780045351474	214.8302494331066	62	127
214.30780045351474	214.8302494331066	65	127
215.10888888888888	215.36430839002267	62	127
215.10888888888888	215.36430839002267	55	127
215.10888888888888	215.36430839002267	65	127
215.36430839002267	215.85192743764173	65	127
215.36430839002267	215.85192743764173	62	127
215.36430839002267	215.85192743764173	55	127
216.02607709750566	216.24666666666667	65	127
216.02607709750566	216.24666666666667	55	127
216.02607709750566	216.24666666666667	62	127
216.24666666666667	216.78072562358275	55	127
216.24666666666667	216.78072562358275	62	127
216.24666666666667	216.78072562358275	65	127
217.05936507936508	217.34961451247165	55	127
217.05936507936508	217.34961451247165	62	127
217.05936507936508	217.34961451247165	65	127
217.37283446712019	218.34807256235828	60	127
217.37283446712019	218.34807256235828	76	127
217.37283446712019	218.34807256235828	84	127
217.37283446712019	218.34807256235828	88	127
217.37283446712019	218.34807256235828	64	127
218.62671201814058	218.74281179138322	74	127
218.62671201814058	218.74281179138322	79	127
218.62671201814058	218.74281179138322	86	127
218.62671201814058	218.74281179138322	55	127
218.62671201814058	218.74281179138322	62	127
218.74281179138322	219.04467120181405	76	127
218.74281179138322	219.04467120181405	84	127
218.74281179138322	219.04467120181405	60	127
218.74281179138322	219.04467120181405	64	127
218.74281179138322	219.04467120181405	88	127
219.1839909297052	219.3117006802721	86	127
219.1839909297052	219.3117006802721	74	127
219.1839909297052	219.3117006802721	79	127
219.1839909297052	219.3117006802721	55	127
219.1839909297052	219.3117006802721	62	127
219.32331065759638	219.6367800453515	72	127
219.32331065759638	219.6367800453515	76	127
219.32331065759638	219.6367800453515	84	127
219.32331065759638	219.6367800453515	52	127
219.32331065759638	219.6367800453515	60	127
219.82253968253968	219.96185941043083	79	127
219.82253968253968	219.96185941043083	55	127
219.96185941043083	220.24049886621316	52	127
219.96185941043083	220.24049886621316	76	127
219.96185941043083	220.24049886621316	84	127
219.96185941043083	220.24049886621316	72	127
219.96185941043083	220.24049886621316	60	127
220.39142857142858	220.542358276644	74	127
220.39142857142858	220.542358276644	79	127
220.39142857142858	220.542358276644	86	127
220.39142857142858	220.542358276644	55	127
220.39142857142858	220.542358276644	62	127
220.55396825396826	220.84421768707483	76	127
220.55396825396826	220.84421768707483	84	127
220.55396825396826	220.84421768707483	88	127
220.55396825396826	220.84421768707483	60	127
220.55396825396826	220.84421768707483	64	127
220.99514739229025	221.204126984127	60	127
220.99514739229025	221.204126984127	84	127
221.23895691609977	222.0168253968254	81	127
221.23895691609977	222.0168253968254	89	127
221.23895691609977	222.0168253968254	93	127
221.23895691609977	222.0168253968254	65	127
221.23895691609977	222.0168253968254	69	127
222.02843537414967	222.22580498866213	79	127
222.02843537414967	222.22580498866213	88	127
222.02843537414967	222.22580498866213	91	127
222.02843537414967	222.22580498866213	64	127
222.02843537414967	222.22580498866213	67	127
222.2374149659864	222.43478458049887	65	127
222.2374149659864	222.43478458049887	86	127
222.2374149659864	222.43478458049887	89	127
222.2374149659864	222.43478458049887	62	127
222.2374149659864	222.43478458049887	77	127
222.44639455782314	222.6437641723356	79	127
222.44639455782314	222.6437641723356	88	127
222.44639455782314	222.6437641723356	91	127
222.44639455782314	222.6437641723356	64	127
222.44639455782314	222.6437641723356	67	127
222.6437641723356	222.84113378684808	76	127
222.6437641723356	222.84113378684808	84	127
222.6437641723356	222.84113378684808	88	127
222.6437641723356	222.84113378684808	60	127
222.6437641723356	222.84113378684808	64	127
222.96884353741495	223.06172335600908	79	127
222.96884353741495	223.06172335600908	88	127
222.96884353741495	223.06172335600908	91	127
222.96884353741495	223.06172335600908	64	127
222.96884353741495	223.06172335600908	67	127
223.06172335600908	223.81637188208617	93	127
223.06172335600908	223.81637188208617	69	127
223.06172335600908	223.81637188208617	81	127
223.06172335600908	223.81637188208617	89	127
223.06172335600908	223.81637188208617	65	127
223.81637188208617	223.97891156462586	79	127
223.81637188208617	223.97891156462586	88	127
223.81637188208617	223.97891156462586	91	127
223.81637188208617	223.97891156462586	64	127
223.81637188208617	223.97891156462586	67	127
223.9905215419501	224.1878911564626	77	127
223.9905215419501	224.1878911564626	86	127
223.9905215419501	224.1878911564626	89	127
223.9905215419501	224.1878911564626	62	127
223.9905215419501	224.1878911564626	65	127
224.1878911564626	224.33882086167802	79	127
224.1878911564626	224.33882086167802	88	127
224.1878911564626	224.33882086167802	91	127
224.1878911564626	224.33882086167802	67	127
224.1878911564626	224.33882086167802	64	127
224.33882086167802	224.559410430839	76	127
224.33882086167802	224.559410430839	84	127
224.33882086167802	224.559410430839	88	127
224.33882086167802	224.559410430839	60	127
224.33882086167802	224.559410430839	64	127
224.66390022675736	224.76839002267573	67	127
224.66390022675736	224.76839002267573	91	127
224.66390022675736	224.76839002267573	64	127
224.66390022675736	224.76839002267573	79	127
224.66390022675736	224.76839002267573	88	127
224.78	225.51142857142858	61	127
224.78	225.51142857142858	64	127
224.78	225.51142857142858	69	127
224.78	225.51142857142858	81	127
224.78	225.51142857142858	85	127
224.78	225.51142857142858	88	127
224.78	225.51142857142858	93	127
224.78	225.51142857142858	57	127
225.6275283446712	225.9409977324263	76	127
225.6275283446712	225.9409977324263	64	127
225.6275283446712	225.9409977324263	88	127
225.9409977324263	226.2312471655329	73	127
225.9409977324263	226.2312471655329	85	127
225.9409977324263	226.2312471655329	61	127
226.3821768707483	226.54471655328797	76	127
226.3821768707483	226.54471655328797	88	127
226.3821768707483	226.54471655328797	64	127
226.55632653061224	227.20648526077096	66	127
226.55632653061224	227.20648526077096	60	127
226.55632653061224	227.20648526077096	62	127
226.55632653061224	227.20648526077096	78	127
226.55632653061224	227.20648526077096	81	127
226.55632653061224	227.20648526077096	84	127
226.55632653061224	227.20648526077096	86	127
226.55632653061224	227.20648526077096	90	127
226.55632653061224	227.20648526077096	57	127
227.20648526077096	228.2978231292517	77	127
227.20648526077096	228.2978231292517	79	127
227.20648526077096	228.2978231292517	83	127
227.20648526077096	228.2978231292517	86	127
227.20648526077096	228.2978231292517	91	127
227.20648526077096	228.2978231292517	59	127
227.20648526077096	228.2978231292517	62	127
227.20648526077096	228.2978231292517	65	127
227.20648526077096	228.2978231292517	67	127
228.30943310657597	228.43714285714285	86	127
228.30943310657597	228.43714285714285	74	127
228.30943310657597	228.43714285714285	62	127
228.44875283446711	228.78544217687076	89	127
228.44875283446711	228.78544217687076	77	127
228.44875283446711	228.78544217687076	65	127
228.78544217687076	229.04086167800455	88	127
228.78544217687076	229.04086167800455	76	127
228.78544217687076	229.04086167800455	64	127
229.04086167800455	229.15696145124716	74	127
229.04086167800455	229.15696145124716	86	127
229.04086167800455	229.15696145124716	62	127
229.37755102040816	229.4936507936508	72	127
229.37755102040816	229.4936507936508	84	127
229.37755102040816	229.4936507936508	60	127
229.69102040816327	230.00448979591837	59	127
229.69102040816327	230.00448979591837	54	127
229.69102040816327	230.00448979591837	71	127
229.69102040816327	230.00448979591837	78	127
229.69102040816327	230.00448979591837	83	127
230.16702947845806	230.31795918367348	72	127
230.16702947845806	230.31795918367348	60	127
230.16702947845806	230.31795918367348	84	127
230.31795918367348	230.80557823129251	74	127
230.31795918367348	230.80557823129251	79	127
230.31795918367348	230.80557823129251	83	127
230.31795918367348	230.80557823129251	86	127
230.31795918367348	230.80557823129251	55	127
230.31795918367348	230.80557823129251	59	127
230.31795918367348	230.80557823129251	62	127
231.1538775510204	231.35124716553287	67	127
231.1538775510204	231.35124716553287	79	127
231.1538775510204	231.35124716553287	55	127
231.42090702947846	231.5602267573696	69	127
231.42090702947846	231.5602267573696	57	127
231.42090702947846	231.5602267573696	81	127
231.6298866213152	231.74598639455783	59	127
231.6298866213152	231.74598639455783	83	127
231.6298866213152	231.74598639455783	71	127
231.79242630385488	231.9433560090703	60	127
231.79242630385488	231.9433560090703	72	127
231.79242630385488	231.9433560090703	81	127
231.79242630385488	231.9433560090703	84	127
232.00140589569162	232.14072562358277	86	127
232.00140589569162	232.14072562358277	55	127
232.00140589569162	232.14072562358277	62	127
232.00140589569162	232.14072562358277	74	127
232.00140589569162	232.14072562358277	79	127
232.2219954648526	233.11596371882086	60	127
232.2219954648526	233.11596371882086	64	127
232.2219954648526	233.11596371882086	84	127
232.2219954648526	233.11596371882086	88	127
232.2219954648526	233.11596371882086	76	127
233.40621315192743	233.53392290249434	74	127
233.40621315192743	233.53392290249434	79	127
233.40621315192743	233.53392290249434	86	127
233.40621315192743	233.53392290249434	55	127
233.40621315192743	233.53392290249434	62	127
233.53392290249434	233.81256235827664	76	127
233.53392290249434	233.81256235827664	84	127
233.53392290249434	233.81256235827664	88	127
233.53392290249434	233.81256235827664	60	127
233.53392290249434	233.81256235827664	64	127
233.97510204081632	234.12603174603174	62	127
233.97510204081632	234.12603174603174	74	127
233.97510204081632	234.12603174603174	79	127
233.97510204081632	234.12603174603174	86	127
233.97510204081632	234.12603174603174	55	127
234.137641723356	234.43950113378685	72	127
234.137641723356	234.43950113378685	76	127
234.137641723356	234.43950113378685	84	127
234.137641723356	234.43950113378685	52	127
234.137641723356	234.43950113378685	60	127
234.5556009070295	234.7065306122449	55	127
234.5556009070295	234.7065306122449	79	127
234.7065306122449	234.97356009070296	76	127
234.7065306122449	234.97356009070296	72	127
234.7065306122449	234.97356009070296	84	127
234.7065306122449	234.97356009070296	52	127
234.7065306122449	234.97356009070296	60	127
235.15931972789116	235.31024943310658	62	127
235.15931972789116	235.31024943310658	55	127
235.15931972789116	235.31024943310658	74	127
235.15931972789116	235.31024943310658	79	127
235.15931972789116	235.31024943310658	86	127
235.32185941043085	235.90235827664398	88	127
235.32185941043085	235.90235827664398	76	127
235.32185941043085	235.90235827664398	84	127
235.32185941043085	235.90235827664398	60	127
235.32185941043085	235.90235827664398	64	127
235.9952380952381	236.79632653061225	58	127
235.9952380952381	236.79632653061225	87	127
235.9952380952381	236.79632653061225	91	127
235.9952380952381	236.79632653061225	63	127
235.9952380952381	236.79632653061225	67	127
235.9952380952381	236.79632653061225	79	127
237.0633560090703	237.19106575963718	82	127
237.0633560090703	237.19106575963718	89	127
237.0633560090703	237.19106575963718	58	127
237.0633560090703	237.19106575963718	65	127
237.0633560090703	237.19106575963718	77	127
237.20267573696145	237.5045351473923	79	127
237.20267573696145	237.5045351473923	87	127
237.20267573696145	237.5045351473923	91	127
237.20267573696145	237.5045351473923	63	127
237.20267573696145	237.5045351473923	67	127
237.6554648526077	237.8180045351474	77	127
237.6554648526077	237.8180045351474	82	127
237.6554648526077	237.8180045351474	89	127
237.6554648526077	237.8180045351474	58	127
237.6554648526077	237.8180045351474	65	127
237.8180045351474	238.0966439909297	79	127
237.8180045351474	238.0966439909297	75	127
237.8180045351474	238.0966439909297	87	127
237.8180045351474	238.0966439909297	55	127
237.8180045351474	238.0966439909297	63	127
238.25918367346938	238.43333333333334	58	127
238.25918367346938	238.43333333333334	82	127
238.4449433106576	238.7235827664399	63	127
238.4449433106576	238.7235827664399	79	127
238.4449433106576	238.7235827664399	75	127
238.4449433106576	238.7235827664399	87	127
238.4449433106576	238.7235827664399	55	127
238.8512925170068	238.99061224489796	82	127
238.8512925170068	238.99061224489796	65	127
238.8512925170068	238.99061224489796	77	127
238.8512925170068	238.99061224489796	89	127
238.8512925170068	238.99061224489796	58	127
238.99061224489796	239.25764172335602	79	127
238.99061224489796	239.25764172335602	82	127
238.99061224489796	239.25764172335602	91	127
238.99061224489796	239.25764172335602	63	127
238.99061224489796	239.25764172335602	67	127
239.44340136054421	239.59433106575963	87	127
239.44340136054421	239.59433106575963	63	127
239.6059410430839	240.38380952380953	96	127
239.6059410430839	240.38380952380953	84	127
239.6059410430839	240.38380952380953	92	127
239.6059410430839	240.38380952380953	68	127
239.6059410430839	240.38380952380953	72	127
240.38380952380953	240.59278911564627	82	127
240.38380952380953	240.59278911564627	70	127
240.38380952380953	240.59278911564627	67	127
240.38380952380953	240.59278911564627	91	127
240.38380952380953	240.59278911564627	94	127
240.59278911564627	240.73210884353742	80	127
240.59278911564627	240.73210884353742	89	127
240.59278911564627	240.73210884353742	92	127
240.59278911564627	240.73210884353742	65	127
240.59278911564627	240.73210884353742	68	127
240.7437188208617	240.92947845804989	67	127
240.7437188208617	240.92947845804989	70	127
240.7437188208617	240.92947845804989	82	127
240.7437188208617	240.92947845804989	91	127
240.7437188208617	240.92947845804989	94	127
240.92947845804989	241.11523809523808	79	127
240.92947845804989	241.11523809523808	87	127
240.92947845804989	241.11523809523808	91	127
240.92947845804989	241.11523809523808	63	127
240.92947845804989	241.11523809523808	67	127
241.21972789115645	241.31260770975058	91	127
241.21972789115645	241.31260770975058	67	127
241.21972789115645	241.31260770975058	70	127
241.21972789115645	241.31260770975058	82	127
241.21972789115645	241.31260770975058	94	127
241.31260770975058	242.09047619047618	96	127
241.31260770975058	242.09047619047618	84	127
241.31260770975058	242.09047619047618	92	127
241.31260770975058	242.09047619047618	68	127
241.31260770975058	242.09047619047618	72	127
242.09047619047618	242.3110657596372	82	127
242.09047619047618	242.3110657596372	91	127
242.09047619047618	242.3110657596372	94	127
242.09047619047618	242.3110657596372	67	127
242.09047619047618	242.3110657596372	70	127
242.32267573696146	242.47360544217688	89	127
242.32267573696146	242.47360544217688	65	127
242.32267573696146	242.47360544217688	68	127
242.32267573696146	242.47360544217688	80	127
242.32267573696146	242.47360544217688	92	127
242.48521541950115	242.69419501133788	82	127
242.48521541950115	242.69419501133788	91	127
242.48521541950115	242.69419501133788	94	127
242.48521541950115	242.69419501133788	67	127
242.48521541950115	242.69419501133788	70	127
242.69419501133788	242.87995464852608	87	127
242.69419501133788	242.87995464852608	79	127
242.69419501133788	242.87995464852608	91	127
242.69419501133788	242.87995464852608	63	127
242.69419501133788	242.87995464852608	67	127
243.00766439909296	243.1237641723356	91	127
243.00766439909296	243.1237641723356	67	127
243.00766439909296	243.1237641723356	70	127
243.00766439909296	243.1237641723356	94	127
243.00766439909296	243.1237641723356	82	127
243.1237641723356	243.97129251700682	96	127
243.1237641723356	243.97129251700682	88	127
243.1237641723356	243.97129251700682	91	127
243.1237641723356	243.97129251700682	67	127
243.1237641723356	243.97129251700682	64	127
243.1237641723356	243.97129251700682	60	127
243.1237641723356	243.97129251700682	72	127
243.1237641723356	243.97129251700682	84	127
244.06417233560092	244.3195918367347	67	127
244.06417233560092	244.3195918367347	91	127
244.06417233560092	244.3195918367347	79	127
244.33120181405894	244.60984126984127	64	127
244.33120181405894	244.60984126984127	76	127
244.33120181405894	244.60984126984127	88	127
244.78399092970523	244.93492063492064	79	127
244.78399092970523	244.93492063492064	91	127
244.78399092970523	244.93492063492064	67	127
244.93492063492064	245.37609977324263	80	127
244.93492063492064	245.37609977324263	84	127
244.93492063492064	245.37609977324263	88	127
244.93492063492064	245.37609977324263	92	127
244.93492063492064	245.37609977324263	58	127
244.93492063492064	245.37609977324263	60	127
244.93492063492064	245.37609977324263	64	127
244.93492063492064	245.37609977324263	68	127
245.49219954648527	246.2700680272109	93	127
245.49219954648527	246.2700680272109	81	127
245.49219954648527	246.2700680272109	84	127
245.49219954648527	246.2700680272109	89	127
245.49219954648527	246.2700680272109	57	127
245.49219954648527	246.2700680272109	60	127
245.49219954648527	246.2700680272109	65	127
245.49219954648527	246.2700680272109	69	127
246.37455782312927	246.6996371882086	62	127
246.37455782312927	246.6996371882086	53	127
246.37455782312927	246.6996371882086	86	127
246.37455782312927	246.6996371882086	72	127
246.37455782312927	246.6996371882086	74	127
246.37455782312927	246.6996371882086	84	127
246.37455782312927	246.6996371882086	60	127
246.71124716553288	247.5239455782313	84	127
246.71124716553288	247.5239455782313	86	127
246.71124716553288	247.5239455782313	60	127
246.71124716553288	247.5239455782313	62	127
246.71124716553288	247.16403628117914	54	127
246.71124716553288	247.5239455782313	72	127
246.71124716553288	247.5239455782313	74	127
247.1756462585034	247.31496598639455	55	127
247.31496598639455	247.5239455782313	56	127
247.5239455782313	247.7097052154195	74	127
247.5239455782313	247.7097052154195	84	127
247.5239455782313	247.7097052154195	86	127
247.5239455782313	247.7097052154195	56	127
247.5239455782313	247.7097052154195	60	127
247.5239455782313	247.7097052154195	62	127
247.7097052154195	247.9302947845805	76	127
247.7097052154195	247.9302947845805	84	127
247.7097052154195	247.9302947845805	88	127
247.7097052154195	247.9302947845805	60	127
247.7097052154195	247.9302947845805	62	127
247.94190476190477	248.1508843537415	77	127
247.94190476190477	248.1508843537415	84	127
247.94190476190477	248.1508843537415	89	127
247.94190476190477	248.1508843537415	55	127
247.94190476190477	248.1508843537415	60	127
247.94190476190477	248.1508843537415	64	127
247.94190476190477	248.1508843537415	65	127
248.1508843537415	248.38308390022675	75	127
248.1508843537415	248.38308390022675	84	127
248.1508843537415	248.38308390022675	87	127
248.1508843537415	248.38308390022675	60	127
248.1508843537415	248.38308390022675	63	127
248.51079365079366	248.61528344671203	72	127
248.51079365079366	248.61528344671203	74	127
248.51079365079366	248.61528344671203	84	127
248.51079365079366	248.61528344671203	86	127
248.51079365079366	248.61528344671203	60	127
248.51079365079366	248.61528344671203	62	127
248.62689342403627	249.4395918367347	84	127
248.62689342403627	249.11451247165533	54	127
248.62689342403627	249.4395918367347	72	127
248.62689342403627	249.4395918367347	74	127
248.62689342403627	249.4395918367347	86	127
248.62689342403627	249.4395918367347	60	127
248.62689342403627	249.4395918367347	62	127
249.1261224489796	249.2886621315193	55	127
249.2886621315193	249.4395918367347	56	127
249.45120181405895	249.60213151927437	60	127
249.45120181405895	249.60213151927437	74	127
249.45120181405895	249.60213151927437	84	127
249.45120181405895	249.60213151927437	86	127
249.45120181405895	249.60213151927437	62	127
249.61374149659864	249.79950113378686	76	127
249.61374149659864	249.79950113378686	84	127
249.61374149659864	249.79950113378686	88	127
249.61374149659864	249.79950113378686	60	127
249.61374149659864	249.79950113378686	64	127
249.8111111111111	250.00848072562357	77	127
249.8111111111111	250.00848072562357	84	127
249.8111111111111	250.00848072562357	89	127
249.8111111111111	250.00848072562357	55	127
249.8111111111111	250.00848072562357	60	127
249.8111111111111	250.00848072562357	65	127
250.02009070294784	250.25229024943312	75	127
250.02009070294784	250.25229024943312	84	127
250.02009070294784	250.25229024943312	87	127
250.02009070294784	250.25229024943312	60	127
250.02009070294784	250.25229024943312	63	127
250.36839002267573	250.4728798185941	72	127
250.36839002267573	250.4728798185941	74	127
250.36839002267573	250.4728798185941	84	127
250.36839002267573	250.4728798185941	86	127
250.36839002267573	250.4728798185941	60	127
250.36839002267573	250.4728798185941	62	127
250.4728798185941	250.7863492063492	72	127
250.4728798185941	250.7863492063492	74	127
250.4728798185941	250.7863492063492	84	127
250.4728798185941	250.7863492063492	86	127
250.4728798185941	250.96049886621316	54	127
250.4728798185941	250.96049886621316	60	127
250.4728798185941	250.96049886621316	62	127
250.96049886621316	251.11142857142858	59	127
250.96049886621316	251.11142857142858	81	127
250.96049886621316	251.11142857142858	83	127
250.96049886621316	251.11142857142858	93	127
250.96049886621316	251.11142857142858	53	127
250.96049886621316	251.11142857142858	62	127
251.12303854875285	251.5758276643991	79	127
251.12303854875285	251.5758276643991	84	127
251.12303854875285	251.5758276643991	91	127
251.12303854875285	251.5758276643991	52	127
251.12303854875285	251.5758276643991	60	127
251.12303854875285	251.5758276643991	64	127
251.72675736961452	252.04022675736962	72	127
251.72675736961452	252.04022675736962	76	127
251.72675736961452	252.04022675736962	84	127
251.72675736961452	252.04022675736962	57	127
251.72675736961452	252.04022675736962	60	127
251.72675736961452	252.04022675736962	64	127
252.2027664399093	252.34208616780046	74	127
252.2027664399093	252.34208616780046	77	127
252.2027664399093	252.34208616780046	86	127
252.2027664399093	252.34208616780046	57	127
252.2027664399093	252.34208616780046	62	127
252.2027664399093	252.34208616780046	65	127
252.35369614512473	252.78326530612244	76	127
252.35369614512473	252.78326530612244	79	127
252.35369614512473	252.78326530612244	88	127
252.35369614512473	252.78326530612244	55	127
252.35369614512473	252.78326530612244	64	127
252.35369614512473	252.78326530612244	67	127
252.93419501133786	253.25927437641724	76	127
252.93419501133786	253.25927437641724	79	127
252.93419501133786	253.25927437641724	88	127
252.93419501133786	253.25927437641724	55	127
252.93419501133786	253.25927437641724	64	127
252.93419501133786	253.25927437641724	67	127
253.43342403628117	253.59596371882085	77	127
253.43342403628117	253.59596371882085	89	127
253.59596371882085	253.8629931972789	74	127
253.59596371882085	253.8629931972789	79	127
253.59596371882085	253.8629931972789	86	127
253.59596371882085	253.8629931972789	55	127
253.59596371882085	253.8629931972789	62	127
253.59596371882085	253.8629931972789	67	127
254.0255328798186	254.19968253968253	88	127
254.0255328798186	254.19968253968253	76	127
254.2112925170068	254.53637188208617	72	127
254.2112925170068	254.53637188208617	84	127
254.2112925170068	254.53637188208617	54	127
254.2112925170068	254.53637188208617	60	127
254.2112925170068	254.53637188208617	62	127
254.67569160997732	254.72213151927437	43	127
254.67569160997732	254.72213151927437	72	127
254.73374149659864	254.7801814058957	60	127
254.73374149659864	254.7801814058957	48	127
254.7801814058957	254.838231292517	43	127
254.7801814058957	255.26780045351475	72	127
254.838231292517	255.26780045351475	60	127
254.838231292517	255.26780045351475	44	127
255.44195011337868	255.8831292517007	72	127
255.44195011337868	255.8831292517007	43	127
255.44195011337868	255.8831292517007	48	127
255.44195011337868	255.8831292517007	60	127
256.08049886621313	256.4171882086168	60	127
256.08049886621313	256.4171882086168	72	127
256.08049886621313	256.4171882086168	42	127
256.08049886621313	256.4171882086168	48	127
256.61455782312925	256.6609977324263	72	127
256.61455782312925	256.6609977324263	43	127
256.6726077097506	256.7306575963719	60	127
256.6726077097506	256.7306575963719	48	127
256.74226757369615	257.264716553288	72	127
256.74226757369615	256.78868480725623	43	127
256.78868480725623	257.264716553288	44	127
256.78868480725623	257.264716553288	60	127
257.4388662131519	257.9497052154195	60	127
257.4388662131519	257.9497052154195	72	127
257.4388662131519	257.9497052154195	43	127
257.4388662131519	257.9497052154195	48	127
258.15868480725624	258.55342403628117	60	127
258.15868480725624	258.55342403628117	42	127
258.15868480725624	258.55342403628117	72	127
258.15868480725624	258.55342403628117	48	127
258.7159637188209	258.87850340136055	60	127
258.7159637188209	258.87850340136055	72	127
258.7159637188209	258.87850340136055	41	127
258.7159637188209	258.87850340136055	48	127
258.8901133786848	259.3661224489796	60	127
258.8901133786848	259.3661224489796	72	127
258.8901133786848	259.3661224489796	40	127
258.8901133786848	259.3661224489796	48	127
259.517052154195	259.95820861678004	60	127
259.517052154195	259.95820861678004	72	127
259.517052154195	259.95820861678004	45	127
259.517052154195	259.95820861678004	48	127
260.10916099773243	260.42263038548754	60	127
260.10916099773243	260.42263038548754	72	127
260.10916099773243	260.42263038548754	43	127
260.10916099773243	260.42263038548754	48	127
260.7477097505669	261.0727664399093	55	127
260.7477097505669	261.0727664399093	67	127
260.7477097505669	261.0727664399093	43	127
261.3862358276644	261.69972789115644	55	127
261.3862358276644	261.69972789115644	31	127
261.3862358276644	261.69972789115644	43	127
262.0364172335601	262.3382766439909	24	127
262.0364172335601	262.3382766439909	36	127
262.0364172335601	262.3382766439909	48	127
266.22761904761904	266.5526984126984	32	127
266.22761904761904	266.5526984126984	36	127
266.22761904761904	266.5526984126984	39	127
266.22761904761904	266.5526984126984	44	127
266.22761904761904	267.0983673469388	72	127
266.22761904761904	267.0983673469388	80	127
266.22761904761904	267.0983673469388	75	127
266.22761904761904	267.0983673469388	84	127
266.88938775510206	267.7485260770975	51	127
266.88938775510206	267.7485260770975	56	127
266.88938775510206	267.7485260770975	60	127
266.88938775510206	267.7485260770975	48	127
267.36539682539683	267.53954648526076	70	127
267.36539682539683	267.53954648526076	82	127
267.53954648526076	267.85301587301586	84	127
267.53954648526076	267.85301587301586	72	127
268.0155555555556	268.1548752834467	82	127
268.0155555555556	268.1548752834467	46	127
268.0155555555556	268.1548752834467	58	127
268.0155555555556	268.1548752834467	70	127
268.16648526077097	268.4683446712018	48	127
268.16648526077097	268.4683446712018	68	127
268.16648526077097	268.4683446712018	80	127
268.16648526077097	268.4683446712018	60	127
268.6424716553288	268.7818140589569	75	127
268.6424716553288	268.7818140589569	46	127
268.6424716553288	268.7818140589569	58	127
268.6424716553288	268.7818140589569	63	127
268.7818140589569	269.1301133786848	56	127
268.7818140589569	269.1301133786848	80	127
268.7818140589569	269.1301133786848	44	127
268.7818140589569	269.1301133786848	68	127
269.315873015873	269.46678004535147	70	127
269.315873015873	269.46678004535147	82	127
269.315873015873	269.46678004535147	39	127
269.315873015873	269.46678004535147	51	127
269.4784126984127	269.74544217687077	56	127
269.4784126984127	269.74544217687077	84	127
269.4784126984127	269.74544217687077	44	127
269.4784126984127	269.74544217687077	72	127
269.89637188208616	270.03569160997733	68	127
269.89637188208616	270.03569160997733	80	127
269.89637188208616	270.03569160997733	46	127
269.89637188208616	270.03569160997733	58	127
270.03569160997733	270.80195011337867	77	127
270.03569160997733	270.31433106575963	48	127
270.03569160997733	270.31433106575963	60	127
270.03569160997733	270.80195011337867	80	127
270.03569160997733	270.80195011337867	89	127
270.4536507936508	270.6045804988662	41	127
270.4536507936508	270.6045804988662	29	127
270.61619047619047	271.47532879818596	53	127
270.61619047619047	271.47532879818596	56	127
270.61619047619047	271.47532879818596	61	127
270.61619047619047	271.47532879818596	65	127
271.080589569161	271.2315192743764	87	127
271.080589569161	271.2315192743764	75	127
271.2431292517007	271.56820861678005	89	127
271.2431292517007	271.56820861678005	77	127
271.742358276644	271.9048979591837	75	127
271.742358276644	271.9048979591837	87	127
271.742358276644	271.9048979591837	51	127
271.742358276644	271.9048979591837	63	127
271.9048979591837	272.2648072562358	73	127
271.9048979591837	272.2648072562358	85	127
271.9048979591837	272.2648072562358	53	127
271.9048979591837	272.2648072562358	65	127
272.42732426303854	272.57827664399093	68	127
272.42732426303854	272.57827664399093	80	127
272.42732426303854	272.57827664399093	51	127
272.42732426303854	272.57827664399093	63	127
272.5898866213152	272.84530612244896	73	127
272.5898866213152	272.84530612244896	85	127
272.5898866213152	272.84530612244896	49	127
272.5898866213152	272.84530612244896	61	127
273.0078458049887	273.1819954648526	56	127
273.0078458049887	273.1819954648526	44	127
273.0078458049887	273.1819954648526	87	127
273.0078458049887	273.1819954648526	75	127
273.1819954648526	273.4374149659864	77	127
273.1819954648526	273.4374149659864	89	127
273.1819954648526	273.4374149659864	49	127
273.1819954648526	273.4374149659864	61	127
273.57673469387754	273.727664399093	85	127
273.57673469387754	273.727664399093	51	127
273.57673469387754	273.727664399093	63	127
273.57673469387754	273.727664399093	73	127
273.73927437641726	274.65646258503403	80	127
273.73927437641726	274.65646258503403	92	127
273.73927437641726	274.0991836734694	53	127
273.73927437641726	274.0991836734694	65	127
273.73927437641726	274.65646258503403	89	127
274.27331065759637	274.4474829931973	25	127
274.27331065759637	274.4474829931973	37	127
274.4474829931973	275.32984126984127	68	127
274.4474829931973	275.32984126984127	56	127
274.93510204081633	275.097641723356	91	127
274.93510204081633	275.097641723356	79	127
275.10925170068026	275.43433106575964	77	127
275.10925170068026	275.43433106575964	89	127
275.5504308390023	275.7013378684807	91	127
275.5504308390023	275.7013378684807	79	127
275.5504308390023	275.7013378684807	55	127
275.5504308390023	275.7013378684807	67	127
275.71297052154193	275.9916099773243	53	127
275.71297052154193	275.9916099773243	65	127
275.71297052154193	275.9916099773243	80	127
275.71297052154193	275.9916099773243	92	127
276.15414965986395	276.3282993197279	79	127
276.15414965986395	276.3282993197279	91	127
276.3282993197279	276.862358276644	36	127
276.3282993197279	276.6185260770975	77	127
276.3282993197279	276.6185260770975	89	127
276.3282993197279	276.862358276644	48	127
276.8043083900227	276.9552380952381	79	127
276.8043083900227	276.9552380952381	91	127
276.96684807256236	277.2687074829932	80	127
276.96684807256236	277.2687074829932	92	127
276.96684807256236	277.50090702947847	35	127
276.96684807256236	277.50090702947847	47	127
277.4428571428571	277.6286167800454	77	127
277.4428571428571	277.6286167800454	89	127
277.6286167800454	277.95367346938775	76	127
277.6286167800454	277.95367346938775	72	127
277.6286167800454	277.95367346938775	84	127
277.6286167800454	277.95367346938775	36	127
277.6286167800454	277.95367346938775	48	127
288.34462585034015	289.0180045351474	43	127
288.34462585034015	289.0180045351474	31	127
289.0180045351474	289.74943310657596	32	127
289.0180045351474	289.74943310657596	44	127
289.74943310657596	290.6550113378685	50	127
289.74943310657596	290.6550113378685	38	127
290.44603174603174	291.0845804988662	55	127
290.44603174603174	291.0845804988662	67	127
290.7711111111111	291.0845804988662	35	127
290.7711111111111	291.0845804988662	47	127
291.0845804988662	291.8160090702948	68	127
291.0845804988662	291.4677097505669	36	127
291.0845804988662	291.4677097505669	48	127
291.0845804988662	291.8160090702948	56	127
291.4677097505669	291.8160090702948	43	127
291.4677097505669	291.8160090702948	55	127
291.8160090702948	292.15267573696144	53	127
291.8160090702948	292.15267573696144	41	127
291.8160090702948	292.663514739229	62	127
291.8160090702948	292.663514739229	74	127
292.15267573696144	292.442947845805	60	127
292.15267573696144	292.442947845805	48	127
292.442947845805	292.7796371882086	59	127
292.442947845805	292.7796371882086	47	127
292.7796371882086	293.0814739229025	59	127
292.7796371882086	293.0814739229025	71	127
292.7796371882086	293.0814739229025	53	127
292.7796371882086	293.0814739229025	65	127
293.0814739229025	293.6387755102041	51	127
293.0814739229025	293.6387755102041	63	127
293.0814739229025	293.42979591836735	60	127
293.0814739229025	293.42979591836735	72	127
293.42979591836735	293.74326530612245	67	127
293.42979591836735	293.74326530612245	79	127
293.74326530612245	294.09156462585037	66	127
293.74326530612245	294.09156462585037	78	127
293.74326530612245	294.09156462585037	62	127
293.74326530612245	294.09156462585037	50	127
294.09156462585037	294.4166439909297	84	127
294.09156462585037	294.4166439909297	72	127
294.09156462585037	294.4166439909297	66	127
294.09156462585037	294.4166439909297	54	127
294.4166439909297	294.74172335600906	53	127
294.4166439909297	294.74172335600906	71	127
294.4166439909297	294.74172335600906	83	127
294.4166439909297	294.74172335600906	55	127
294.4166439909297	294.74172335600906	67	127
294.74172335600906	295.06680272108844	62	127
294.74172335600906	295.06680272108844	77	127
294.74172335600906	295.06680272108844	89	127
294.74172335600906	295.06680272108844	50	127
295.06680272108844	296.0768707482993	87	127
295.06680272108844	296.0768707482993	75	127
295.06680272108844	295.2990022675737	55	127
295.06680272108844	295.2990022675737	67	127
295.2990022675737	295.531179138322	48	127
295.2990022675737	295.531179138322	60	127
295.531179138322	295.7169614512472	43	127
295.531179138322	295.7169614512472	55	127
295.72857142857146	296.0768707482993	48	127
295.72857142857146	296.0768707482993	36	127
296.0768707482993	296.3903401360544	74	127
296.0768707482993	296.3903401360544	34	127
296.0768707482993	296.3903401360544	86	127
296.0768707482993	296.3903401360544	46	127
296.4019501133787	296.72702947845806	84	127
296.4019501133787	296.72702947845806	72	127
296.4019501133787	296.95920634920634	32	127
296.4019501133787	296.95920634920634	44	127
296.73863945578233	297.0753287981859	74	127
296.73863945578233	297.0753287981859	86	127
297.0753287981859	297.42362811791384	75	127
297.0753287981859	297.42362811791384	87	127
297.0753287981859	297.6674376417234	44	127
297.0753287981859	297.6674376417234	56	127
297.42362811791384	297.77192743764175	89	127
297.42362811791384	297.77192743764175	77	127
297.783514739229	298.09700680272107	55	127
297.783514739229	298.09700680272107	79	127
297.783514739229	298.09700680272107	83	127
297.783514739229	298.09700680272107	91	127
297.783514739229	298.09700680272107	43	127
297.783514739229	298.09700680272107	50	127
298.2827664399093	298.3524263038549	79	127
298.2827664399093	298.3524263038549	67	127
298.2827664399093	298.3524263038549	43	127
298.3524263038549	298.4336961451247	67	127
298.3524263038549	298.4336961451247	43	127
298.3524263038549	298.4336961451247	79	127
298.4336961451247	298.7819954648526	79	127
298.4336961451247	298.7819954648526	43	127
298.4336961451247	298.7819954648526	67	127
300.36095238095237	300.45383219954647	53	127
300.36095238095237	300.45383219954647	65	127
300.36095238095237	300.45383219954647	67	127
300.36095238095237	300.45383219954647	71	127
300.36095238095237	300.45383219954647	79	127
300.36095238095237	300.45383219954647	43	127
300.36095238095237	300.45383219954647	50	127
300.36095238095237	300.45383219954647	55	127
300.45383219954647	300.5466893424036	53	127
300.45383219954647	300.5466893424036	67	127
300.45383219954647	300.5466893424036	71	127
300.45383219954647	300.5466893424036	79	127
300.45383219954647	300.5466893424036	50	127
300.45383219954647	300.5466893424036	55	127
300.45383219954647	300.5466893424036	43	127
300.45383219954647	300.5466893424036	65	127
300.55832199546484	301.3245804988662	71	127
300.55832199546484	301.3245804988662	65	127
300.55832199546484	301.3245804988662	67	127
300.55832199546484	301.3245804988662	79	127
300.55832199546484	301.3245804988662	43	127
300.55832199546484	301.3245804988662	53	127
300.55832199546484	301.3245804988662	55	127
300.55832199546484	301.3245804988662	50	127
302.45074829931974	302.8803174603175	64	127
302.45074829931974	302.8803174603175	76	127
302.45074829931974	302.8803174603175	36	127
302.45074829931974	302.8803174603175	43	127
302.45074829931974	302.8803174603175	48	127
302.45074829931974	302.8803174603175	72	127
303.04285714285714	303.124126984127	67	127
303.04285714285714	303.124126984127	79	127
303.13573696145124	303.1937641723356	79	127
303.13573696145124	303.1937641723356	67	127
303.20537414965986	303.5188662131519	72	127
303.20537414965986	303.5188662131519	84	127
303.20537414965986	303.5188662131519	88	127
303.20537414965986	303.5188662131519	60	127
303.20537414965986	303.5188662131519	76	127
303.70460317460316	303.7742857142857	67	127
303.70460317460316	303.7742857142857	55	127
303.78589569161	303.8671655328798	67	127
303.78589569161	303.8671655328798	55	127
303.8671655328798	304.1922448979592	48	127
303.8671655328798	304.1922448979592	64	127
303.8671655328798	304.1922448979592	76	127
303.8671655328798	304.1922448979592	60	127
303.8671655328798	304.1922448979592	72	127
304.3431746031746	304.4360544217687	43	127
304.3431746031746	304.4360544217687	55	127
304.4360544217687	304.5173242630386	43	127
304.4360544217687	304.5173242630386	55	127
304.52891156462584	304.86562358276643	52	127
304.52891156462584	304.86562358276643	60	127
304.52891156462584	304.86562358276643	36	127
304.52891156462584	304.86562358276643	48	127
305.16748299319727	305.2371428571429	79	127
305.16748299319727	305.2371428571429	67	127
305.24873015873015	305.34160997732425	79	127
305.24873015873015	305.34160997732425	67	127
305.3532199546485	305.7363718820862	60	127
305.3532199546485	305.7363718820862	76	127
305.3532199546485	305.7363718820862	84	127
305.3532199546485	305.7363718820862	88	127
305.3532199546485	305.7363718820862	72	127
305.89891156462585	305.9801814058957	67	127
305.89891156462585	305.9801814058957	55	127
305.9801814058957	306.06142857142856	55	127
305.9801814058957	306.06142857142856	67	127
306.0730612244898	306.49102040816325	64	127
306.0730612244898	306.49102040816325	72	127
306.0730612244898	306.49102040816325	76	127
306.0730612244898	306.49102040816325	48	127
306.0730612244898	306.49102040816325	60	127
306.66517006802724	306.7348299319728	48	127
306.66517006802724	306.7348299319728	60	127
306.74643990929707	306.8160997732426	60	127
306.74643990929707	306.8160997732426	48	127
306.8277097505669	307.1992290249433	57	127
306.8277097505669	307.1992290249433	69	127
306.8277097505669	307.1992290249433	36	127
306.8277097505669	307.1992290249433	48	127
306.8277097505669	307.1992290249433	65	127
307.3733786848073	307.4546485260771	84	127
307.3733786848073	307.4546485260771	72	127
307.4546485260771	307.5475283446712	72	127
307.4546485260771	307.5475283446712	84	127
307.5475283446712	308.0583673469388	89	127
307.5475283446712	307.88421768707485	60	127
307.5475283446712	308.0583673469388	81	127
307.5475283446712	308.0583673469388	93	127
307.5475283446712	307.88421768707485	72	127
308.0583673469388	308.1512471655329	60	127
308.0583673469388	308.1512471655329	72	127
308.16285714285715	308.2325170068027	60	127
308.16285714285715	308.2325170068027	72	127
308.25573696145125	308.5808163265306	67	127
308.25573696145125	308.5808163265306	76	127
308.25573696145125	308.5808163265306	79	127
308.25573696145125	308.5808163265306	48	127
308.25573696145125	308.5808163265306	60	127
308.88267573696146	308.97555555555556	60	127
308.88267573696146	308.97555555555556	48	127
308.9871655328798	309.06843537414966	60	127
308.9871655328798	309.06843537414966	48	127
309.06843537414966	309.42834467120184	57	127
309.06843537414966	309.42834467120184	65	127
309.06843537414966	309.42834467120184	69	127
309.06843537414966	309.42834467120184	48	127
309.06843537414966	309.42834467120184	36	127
309.60249433106577	309.69537414965987	84	127
309.60249433106577	309.69537414965987	60	127
309.60249433106577	309.69537414965987	72	127
309.69537414965987	309.7766439909297	84	127
309.69537414965987	309.7766439909297	72	127
309.69537414965987	309.7766439909297	60	127
309.78825396825397	310.15977324263037	93	127
309.78825396825397	310.15977324263037	72	127
309.78825396825397	310.15977324263037	60	127
309.78825396825397	310.15977324263037	89	127
309.78825396825397	310.15977324263037	81	127
310.3223129251701	310.4035827664399	72	127
310.3223129251701	310.4035827664399	60	127
310.4151927437642	310.47324263038547	72	127
310.4151927437642	310.47324263038547	60	127
310.48485260770974	310.8563718820862	76	127
310.48485260770974	310.8563718820862	79	127
310.48485260770974	310.8563718820862	60	127
310.48485260770974	310.8563718820862	67	127
310.48485260770974	310.8563718820862	48	127
311.0305215419501	311.11179138321995	40	127
311.0305215419501	311.11179138321995	64	127
311.11179138321995	311.1814512471655	64	127
311.11179138321995	311.1814512471655	40	127
311.1814512471655	311.5877777777778	57	127
311.1814512471655	311.5877777777778	69	127
311.1814512471655	311.5877777777778	33	127
311.1814512471655	311.5877777777778	45	127
311.1814512471655	311.5877777777778	61	127
311.7619501133787	311.83160997732426	88	127
311.7619501133787	311.83160997732426	64	127
311.84321995464853	311.9012698412698	64	127
311.84321995464853	311.9012698412698	88	127
311.9128798185941	312.23795918367347	93	127
311.9128798185941	312.23795918367347	85	127
311.9128798185941	312.23795918367347	69	127
311.9128798185941	312.23795918367347	57	127
311.9128798185941	312.23795918367347	81	127
312.4004761904762	312.481768707483	52	127
312.4004761904762	312.481768707483	76	127
312.481768707483	312.5862585034014	52	127
312.481768707483	312.5862585034014	76	127
312.5862585034014	312.9577777777778	69	127
312.5862585034014	312.9577777777778	73	127
312.5862585034014	312.9577777777778	81	127
312.5862585034014	312.9577777777778	57	127
312.5862585034014	312.9577777777778	45	127
313.1319274376417	313.2131746031746	45	127
313.1319274376417	313.2131746031746	69	127
313.22478458049886	313.2944671201814	45	127
313.22478458049886	313.2944671201814	69	127
313.3060770975057	313.6659863945578	62	127
313.3060770975057	313.6659863945578	60	127
313.3060770975057	313.6659863945578	66	127
313.3060770975057	313.6659863945578	74	127
313.3060770975057	313.6659863945578	38	127
313.3060770975057	313.6659863945578	50	127
313.84013605442175	313.90979591836737	86	127
313.84013605442175	313.90979591836737	62	127
313.92140589569163	314.06072562358275	62	127
313.92140589569163	314.06072562358275	86	127
314.06072562358275	314.51351473922904	83	127
314.06072562358275	314.51351473922904	91	127
314.06072562358275	314.51351473922904	55	127
314.06072562358275	314.51351473922904	67	127
314.06072562358275	314.51351473922904	77	127
314.06072562358275	314.51351473922904	79	127
314.7108843537415	314.79215419501134	50	127
314.7108843537415	314.79215419501134	74	127
314.79215419501134	314.87342403628116	50	127
314.79215419501134	314.87342403628116	74	127
314.88503401360543	315.2565532879819	67	127
314.88503401360543	315.2565532879819	71	127
314.88503401360543	315.2565532879819	79	127
314.88503401360543	315.2565532879819	55	127
314.88503401360543	315.2565532879819	43	127
314.88503401360543	315.2565532879819	65	127
315.4307029478458	315.5003628117914	43	127
315.4307029478458	315.5003628117914	67	127
315.51197278911565	315.5816326530612	43	127
315.51197278911565	315.5816326530612	67	127
315.5932426303855	315.9415419501134	72	127
315.5932426303855	315.9415419501134	36	127
315.5932426303855	315.9415419501134	60	127
315.5932426303855	315.9415419501134	48	127
316.1156916099773	316.19696145124715	55	127
316.1156916099773	316.19696145124715	79	127
316.19696145124715	316.27823129251703	79	127
316.19696145124715	316.27823129251703	55	127
316.27823129251703	316.6265306122449	76	127
316.27823129251703	316.6265306122449	84	127
316.27823129251703	316.6265306122449	60	127
316.27823129251703	316.6265306122449	72	127
316.27823129251703	316.6265306122449	48	127
316.82390022675736	316.90514739229025	72	127
316.82390022675736	316.90514739229025	48	127
316.91678004535146	316.9864399092971	72	127
316.91678004535146	316.9864399092971	48	127
316.99802721088435	317.3579591836735	57	127
316.99802721088435	317.3579591836735	66	127
316.99802721088435	317.3579591836735	45	127
316.99802721088435	317.3579591836735	78	127
317.55532879818594	317.6598185941043	60	127
317.55532879818594	317.6598185941043	36	127
317.6714285714286	317.7643083900227	60	127
317.6714285714286	317.7643083900227	36	127
317.7643083900227	318.14743764172334	67	127
317.7643083900227	318.14743764172334	31	127
317.7643083900227	318.14743764172334	43	127
317.7643083900227	318.14743764172334	55	127
318.3331746031746	318.4144671201814	62	127
318.3331746031746	318.4144671201814	86	127
318.4260770975057	318.5189569160998	86	127
318.4260770975057	318.5189569160998	62	127
318.53054421768707	318.7859863945578	79	127
318.53054421768707	318.7859863945578	91	127
318.53054421768707	318.7859863945578	67	127
318.53054421768707	318.7859863945578	55	127
318.7975963718821	318.99496598639456	79	127
318.7975963718821	318.99496598639456	67	127
318.7975963718821	318.99496598639456	43	127
318.7975963718821	318.99496598639456	55	127
319.0762358276644	319.22716553287984	69	127
319.0762358276644	319.22716553287984	81	127
319.0762358276644	319.22716553287984	45	127
319.0762358276644	319.22716553287984	57	127
319.2968253968254	319.4593424036281	71	127
319.2968253968254	319.4593424036281	83	127
319.2968253968254	319.4593424036281	47	127
319.2968253968254	319.4593424036281	59	127
319.5174149659864	319.6683446712018	72	127
319.5174149659864	319.6683446712018	84	127
319.5174149659864	319.6683446712018	48	127
319.5174149659864	319.6683446712018	60	127
319.7380045351474	319.87732426303853	62	127
319.7380045351474	319.87732426303853	74	127
319.7380045351474	319.87732426303853	86	127
319.7380045351474	319.87732426303853	50	127
319.94698412698415	320.9222222222222	79	127
319.94698412698415	320.28367346938774	48	127
319.94698412698415	320.9222222222222	84	127
319.94698412698415	320.28367346938774	55	127
319.94698412698415	320.28367346938774	64	127
319.94698412698415	320.28367346938774	60	127
319.94698412698415	320.9222222222222	76	127
319.94698412698415	320.9222222222222	88	127
320.50426303854874	320.57390022675736	43	127
320.58551020408163	320.6783900226757	43	127
320.69002267573694	321.0267120181406	36	127
320.69002267573694	321.0267120181406	48	127
321.2124716553288	321.3750113378685	55	127
321.2124716553288	321.3750113378685	79	127
321.2124716553288	321.3750113378685	86	127
321.2124716553288	321.3750113378685	74	127
321.2124716553288	321.3750113378685	62	127
321.3750113378685	321.7000680272109	76	127
321.3750113378685	321.7000680272109	84	127
321.3750113378685	321.7000680272109	88	127
321.3750113378685	321.7000680272109	60	127
321.3750113378685	321.7000680272109	64	127
321.9206802721088	322.0948299319728	62	127
321.9206802721088	322.0948299319728	86	127
321.9206802721088	322.0948299319728	74	127
321.9206802721088	322.0948299319728	79	127
321.9206802721088	322.0948299319728	55	127
322.1064399092971	322.44312925170067	52	127
322.1064399092971	322.44312925170067	60	127
322.1064399092971	322.44312925170067	76	127
322.1064399092971	322.44312925170067	84	127
322.1064399092971	322.44312925170067	72	127
322.6056689342404	322.7565986394558	79	127
322.6056689342404	322.7565986394558	55	127
322.7565986394558	323.11650793650796	72	127
322.7565986394558	323.11650793650796	76	127
322.7565986394558	323.11650793650796	84	127
322.7565986394558	323.11650793650796	60	127
322.7565986394558	323.11650793650796	52	127
323.2906575963719	323.4648072562358	62	127
323.2906575963719	323.4648072562358	79	127
323.2906575963719	323.4648072562358	86	127
323.2906575963719	323.4648072562358	55	127
323.2906575963719	323.4648072562358	74	127
323.48802721088435	324.0685260770975	60	127
323.48802721088435	324.0685260770975	64	127
323.48802721088435	324.0685260770975	76	127
323.48802721088435	324.0685260770975	84	127
323.48802721088435	324.0685260770975	88	127
324.1846258503401	324.52131519274377	34	127
324.1846258503401	324.52131519274377	46	127
324.1846258503401	325.2411337868481	82	127
324.1846258503401	325.2411337868481	87	127
324.1846258503401	325.2411337868481	91	127
324.1846258503401	325.2411337868481	79	127
324.7419047619048	324.8231746031746	51	127
324.8231746031746	324.90444444444444	51	127
324.90444444444444	325.2411337868481	58	127
324.90444444444444	325.2411337868481	46	127
325.40367346938774	325.56621315192746	82	127
325.40367346938774	325.56621315192746	65	127
325.40367346938774	325.56621315192746	58	127
325.40367346938774	325.56621315192746	89	127
325.40367346938774	325.56621315192746	77	127
325.5778231292517	325.9028798185941	67	127
325.5778231292517	325.9028798185941	63	127
325.5778231292517	325.9028798185941	79	127
325.5778231292517	325.9028798185941	87	127
325.5778231292517	325.9028798185941	91	127
326.10024943310657	326.3092290249433	89	127
326.10024943310657	326.3092290249433	77	127
326.10024943310657	326.3092290249433	82	127
326.10024943310657	326.3092290249433	58	127
326.10024943310657	326.3092290249433	65	127
326.3092290249433	326.6459410430839	63	127
326.3092290249433	326.6459410430839	75	127
326.3092290249433	326.6459410430839	87	127
326.3092290249433	326.6459410430839	55	127
326.3092290249433	326.6459410430839	79	127
326.8200680272109	326.959410430839	58	127
326.8200680272109	326.959410430839	82	127
326.97102040816327	327.29609977324264	75	127
326.97102040816327	327.29609977324264	87	127
326.97102040816327	327.29609977324264	63	127
326.97102040816327	327.29609977324264	55	127
326.97102040816327	327.29609977324264	79	127
327.4702494331066	327.6560090702948	77	127
327.4702494331066	327.6560090702948	82	127
327.4702494331066	327.6560090702948	89	127
327.4702494331066	327.6560090702948	58	127
327.4702494331066	327.6560090702948	65	127
327.6560090702948	328.0043083900227	91	127
327.6560090702948	328.0043083900227	63	127
327.6560090702948	328.0043083900227	67	127
327.6560090702948	328.0043083900227	87	127
327.6560090702948	328.0043083900227	79	127
328.2132879818594	328.3758276643991	39	127
328.2132879818594	328.3758276643991	87	127
328.2132879818594	328.3758276643991	75	127
328.38743764172335	328.7589342403628	32	127
328.38743764172335	328.7589342403628	44	127
328.38743764172335	328.9563265306123	87	127
328.38743764172335	328.9563265306123	99	127
328.93310657596373	328.97954648526076	63	127
328.991156462585	329.06079365079364	63	127
329.07242630385485	329.39750566893423	87	127
329.07242630385485	329.39750566893423	68	127
329.07242630385485	329.39750566893423	56	127
329.07242630385485	329.39750566893423	99	127
329.5716326530612	329.7341950113379	86	127
329.5716326530612	329.7341950113379	98	127
329.5716326530612	329.65292517006804	51	127
329.65292517006804	329.7341950113379	51	127
329.7341950113379	330.09408163265306	84	127
329.7341950113379	330.09408163265306	96	127
329.7341950113379	330.09408163265306	44	127
329.7341950113379	330.09408163265306	56	127
330.268253968254	330.33791383219955	39	127
330.268253968254	330.4191836734694	86	127
330.268253968254	330.4191836734694	98	127
330.3495238095238	330.4191836734694	39	127
330.43079365079365	330.8022902494331	87	127
330.43079365079365	330.8022902494331	99	127
330.43079365079365	330.8022902494331	32	127
330.43079365079365	330.8022902494331	44	127
330.9880725623583	331.0693424036281	63	127
330.9880725623583	331.15061224489796	86	127
330.9880725623583	331.15061224489796	98	127
331.0693424036281	331.15061224489796	63	127
331.15061224489796	331.5337414965986	68	127
331.15061224489796	331.7078911564626	84	127
331.15061224489796	331.7078911564626	96	127
331.15061224489796	331.5337414965986	56	127
331.7078911564626	331.78916099773244	51	127
331.8007709750567	331.87043083900227	51	127
331.88204081632654	332.19551020408164	44	127
331.88204081632654	332.032947845805	87	127
331.88204081632654	332.032947845805	99	127
331.88204081632654	332.19551020408164	56	127
332.36965986394557	332.60185941043085	84	127
332.36965986394557	332.60185941043085	96	127
332.36965986394557	332.60185941043085	32	127
332.36965986394557	332.60185941043085	44	127
332.60185941043085	332.9269387755102	79	127
332.60185941043085	332.9269387755102	91	127
332.60185941043085	332.9269387755102	31	127
332.60185941043085	332.9269387755102	43	127
333.41455782312926	334.0879365079365	55	127
333.41455782312926	334.0879365079365	67	127
334.0879365079365	334.7497052154195	68	127
334.0879365079365	334.7497052154195	56	127
334.7497052154195	335.73655328798185	62	127
334.7497052154195	335.73655328798185	74	127
335.50433106575963	336.21256235827667	31	127
335.50433106575963	336.21256235827667	43	127
335.8526530612245	336.21256235827667	59	127
335.8526530612245	336.21256235827667	71	127
336.21256235827667	336.86272108843536	44	127
336.21256235827667	336.54925170068026	72	127
336.21256235827667	336.86272108843536	32	127
336.21256235827667	336.54925170068026	60	127
336.54925170068026	336.86272108843536	67	127
336.54925170068026	336.86272108843536	79	127
336.86272108843536	337.1645804988662	66	127
336.86272108843536	337.6754195011338	38	127
336.86272108843536	337.6754195011338	50	127
336.86272108843536	337.1645804988662	78	127
337.1645804988662	337.46643990929704	72	127
337.1645804988662	337.46643990929704	84	127
337.46643990929704	337.77990929705214	71	127
337.46643990929704	337.77990929705214	83	127
337.77990929705214	338.1049886621315	47	127
337.77990929705214	338.1049886621315	77	127
337.77990929705214	338.1049886621315	89	127
337.77990929705214	338.1049886621315	35	127
338.1049886621315	338.44167800453516	88	127
338.1049886621315	338.44167800453516	48	127
338.1049886621315	338.44167800453516	36	127
338.1049886621315	338.44167800453516	76	127
338.44167800453516	338.7783446712018	70	127
338.44167800453516	338.789977324263	43	127
338.44167800453516	338.789977324263	55	127
338.44167800453516	338.7783446712018	82	127
338.789977324263	339.13827664399093	69	127
338.789977324263	339.13827664399093	81	127
338.789977324263	339.13827664399093	54	127
338.789977324263	339.13827664399093	42	127
339.13827664399093	339.4285260770975	75	127
339.13827664399093	339.4285260770975	87	127
339.13827664399093	339.4285260770975	60	127
339.13827664399093	339.4285260770975	48	127
339.4285260770975	339.76521541950115	74	127
339.4285260770975	339.76521541950115	86	127
339.4285260770975	339.76521541950115	47	127
339.4285260770975	339.76521541950115	59	127
339.76521541950115	340.1018820861678	53	127
339.76521541950115	340.1018820861678	68	127
339.76521541950115	340.1018820861678	80	127
339.76521541950115	340.1018820861678	65	127
340.1018820861678	340.4269841269841	79	127
340.1018820861678	340.4269841269841	51	127
340.1018820861678	340.4269841269841	63	127
340.1018820861678	340.4269841269841	67	127
340.4269841269841	340.76367346938775	50	127
340.4269841269841	340.76367346938775	71	127
340.4269841269841	340.76367346938775	83	127
340.4269841269841	340.76367346938775	62	127
340.76367346938775	341.0655328798186	75	127
340.76367346938775	341.0655328798186	84	127
340.76367346938775	341.0655328798186	48	127
340.76367346938775	341.0655328798186	60	127
340.76367346938775	341.0655328798186	72	127
341.07714285714286	341.39061224489797	77	127
341.07714285714286	341.39061224489797	44	127
341.07714285714286	341.39061224489797	56	127
341.07714285714286	341.39061224489797	86	127
341.07714285714286	341.39061224489797	74	127
341.40222222222224	341.9478684807256	75	127
341.40222222222224	341.9478684807256	87	127
341.40222222222224	341.9478684807256	43	127
341.40222222222224	341.9478684807256	55	127
341.40222222222224	341.9478684807256	79	127
342.12204081632655	342.7373696145125	77	127
342.12204081632655	342.7373696145125	83	127
342.12204081632655	342.7373696145125	31	127
342.12204081632655	342.7373696145125	43	127
342.12204081632655	342.7373696145125	71	127
343.4571882086168	344.0957142857143	43	127
343.4571882086168	344.0957142857143	31	127
344.0957142857143	344.7691156462585	44	127
344.0957142857143	344.7691156462585	32	127
344.7691156462585	345.70952380952383	38	127
344.7691156462585	345.70952380952383	50	127
345.4889342403628	346.1390702947846	55	127
345.4889342403628	346.1390702947846	67	127
345.8140136054422	346.1390702947846	35	127
345.8140136054422	346.1390702947846	47	127
346.1390702947846	346.731201814059	68	127
346.1390702947846	346.42934240362814	36	127
346.1390702947846	346.731201814059	56	127
346.1390702947846	346.42934240362814	48	127
346.42934240362814	346.7195918367347	43	127
346.42934240362814	346.7195918367347	55	127
346.731201814059	347.0446712018141	42	127
346.731201814059	347.0446712018141	54	127
346.731201814059	347.64839002267576	74	127
346.731201814059	347.64839002267576	62	127
347.0446712018141	347.4161904761905	48	127
347.0446712018141	347.4161904761905	60	127
347.4161904761905	347.7528798185941	59	127
347.4161904761905	347.7528798185941	47	127
347.7528798185941	348.101179138322	65	127
347.7528798185941	348.101179138322	53	127
347.7528798185941	348.101179138322	59	127
347.7528798185941	348.101179138322	71	127
348.101179138322	348.4030385487528	52	127
348.101179138322	348.4030385487528	60	127
348.101179138322	348.4030385487528	72	127
348.101179138322	348.4030385487528	64	127
348.4030385487528	348.6816780045352	79	127
348.4030385487528	348.6816780045352	46	127
348.4030385487528	348.6816780045352	67	127
348.4030385487528	348.6816780045352	58	127
348.6816780045352	349.01836734693876	66	127
348.6816780045352	349.01836734693876	78	127
348.6816780045352	349.01836734693876	45	127
348.6816780045352	349.01836734693876	57	127
349.01836734693876	349.34344671201814	62	127
349.01836734693876	349.34344671201814	72	127
349.01836734693876	349.34344671201814	84	127
349.01836734693876	349.34344671201814	50	127
349.34344671201814	349.69174603174605	61	127
349.34344671201814	349.69174603174605	83	127
349.34344671201814	349.69174603174605	49	127
349.34344671201814	349.69174603174605	71	127
349.69174603174605	350.0168253968254	77	127
349.69174603174605	350.0168253968254	44	127
349.69174603174605	350.0168253968254	89	127
349.69174603174605	350.0168253968254	56	127
350.0168253968254	350.3651247165533	88	127
350.0168253968254	350.3651247165533	76	127
350.0168253968254	350.3651247165533	43	127
350.0168253968254	350.3651247165533	55	127
350.3651247165533	350.6669841269841	70	127
350.3651247165533	350.6669841269841	60	127
350.3651247165533	350.6669841269841	82	127
350.3651247165533	350.6669841269841	48	127
350.6785941043084	350.96884353741495	47	127
350.6785941043084	350.96884353741495	69	127
350.6785941043084	350.96884353741495	59	127
350.6785941043084	350.96884353741495	81	127
350.96884353741495	351.2126530612245	75	127
350.96884353741495	351.2126530612245	54	127
350.96884353741495	351.2126530612245	87	127
350.96884353741495	351.2126530612245	42	127
351.2126530612245	351.5841723356009	86	127
351.2126530612245	351.5841723356009	41	127
351.2126530612245	351.5841723356009	74	127
351.2126530612245	351.5841723356009	53	127
351.5841723356009	351.897641723356	46	127
351.5841723356009	351.897641723356	58	127
351.5841723356009	351.897641723356	68	127
351.5841723356009	351.897641723356	80	127
351.897641723356	352.2227210884354	59	127
351.897641723356	352.2227210884354	67	127
351.897641723356	352.2227210884354	79	127
351.897641723356	352.2227210884354	47	127
352.2227210884354	352.5245804988662	71	127
352.2227210884354	352.5245804988662	41	127
352.2227210884354	352.5245804988662	83	127
352.2227210884354	352.5245804988662	53	127
352.5361904761905	352.6522902494331	39	127
352.5361904761905	352.6522902494331	72	127
352.5361904761905	352.6522902494331	51	127
352.5361904761905	352.6522902494331	84	127
352.87287981859413	353.000589569161	77	127
352.87287981859413	353.000589569161	74	127
352.87287981859413	353.000589569161	44	127
352.87287981859413	353.000589569161	86	127
352.87287981859413	353.000589569161	32	127
353.2095691609977	353.4301587301587	79	127
353.2095691609977	353.4301587301587	75	127
353.2095691609977	353.4301587301587	43	127
353.2095691609977	353.4301587301587	87	127
353.2095691609977	353.4301587301587	31	127
353.929387755102	354.1731972789116	77	127
353.929387755102	354.1731972789116	43	127
353.929387755102	354.1731972789116	71	127
353.929387755102	354.1731972789116	55	127
353.929387755102	354.1731972789116	83	127
354.81174603174605	355.43866213151927	75	127
354.81174603174605	359.3396371882086	36	127
354.81174603174605	356.8782993197279	33	127
354.81174603174605	359.3396371882086	39	127
354.81174603174605	356.8782993197279	45	127
354.81174603174605	355.43866213151927	78	127
354.81174603174605	355.43866213151927	84	127
354.81174603174605	355.43866213151927	72	127
357.08730158730157	359.3396371882086	31	127
357.08730158730157	359.3396371882086	43	127
359.3396371882086	361.5803401360544	30	127
359.3396371882086	361.5803401360544	42	127
359.3396371882086	361.5803401360544	40	127
361.5803401360544	363.5540589569161	40	127
361.5803401360544	363.5540589569161	43	127
361.5803401360544	363.5540589569161	31	127
363.7165986394558	364.4944671201814	44	127
363.7165986394558	364.4944671201814	32	127
364.4944671201814	365.87603174603174	43	127
364.4944671201814	365.87603174603174	31	127
366.06181405895694	366.83968253968254	42	127
366.06181405895694	366.83968253968254	30	127
366.83968253968254	368.2096598639456	31	127
366.83968253968254	368.2096598639456	43	127
368.4302267573696	369.27777777777777	32	127
368.4302267573696	369.27777777777777	44	127
369.27777777777777	370.5897052154195	43	127
369.27777777777777	370.5897052154195	31	127
370.83351473922903	371.715873015873	30	127
370.83351473922903	371.715873015873	42	127
371.715873015873	373.50380952380954	31	127
371.715873015873	373.50380952380954	43	127
373.7127891156463	374.46743764172334	31	127
373.7127891156463	374.46743764172334	43	127
374.6415873015873	377.0216326530612	31	127
374.6415873015873	377.0216326530612	43	127
377.1841723356009	379.6106575963719	31	127
377.1841723356009	379.6106575963719	43	127
379.6686848072562	381.11995464852606	31	127
379.6686848072562	381.11995464852606	43	127
381.3753741496599	382.53637188208614	43	127
381.3753741496599	382.53637188208614	31	127
382.6873015873016	383.0936507936508	31	127
382.6873015873016	383.0936507936508	43	127
383.0936507936508	383.83668934240364	71	127
383.0936507936508	383.51160997732427	55	127
383.0936507936508	383.83668934240364	67	127
383.0936507936508	383.83668934240364	62	127
383.0936507936508	383.51160997732427	43	127
383.51160997732427	383.98761904761903	41	127
383.51160997732427	383.98761904761903	53	127
383.9992290249433	384.823537414966	62	127
383.9992290249433	384.823537414966	68	127
383.9992290249433	384.823537414966	71	127
383.9992290249433	384.48684807256234	52	127
383.9992290249433	384.48684807256234	40	127
384.48684807256234	384.823537414966	28	127
384.48684807256234	384.823537414966	40	127
384.823537414966	385.9148752834467	60	127
384.823537414966	385.9148752834467	72	127
384.823537414966	385.29954648526075	33	127
384.823537414966	385.9148752834467	69	127
384.823537414966	385.29954648526075	45	127
385.29954648526075	385.6710657596372	40	127
385.29954648526075	385.6710657596372	52	127
385.6710657596372	386.06580498866214	45	127
385.6710657596372	386.06580498866214	57	127
386.06580498866214	386.50698412698415	55	127
386.06580498866214	386.50698412698415	72	127
386.06580498866214	386.50698412698415	70	127
386.06580498866214	386.50698412698415	43	127
386.06580498866214	386.50698412698415	64	127
386.50698412698415	387.296462585034	63	127
386.50698412698415	387.296462585034	69	127
386.50698412698415	386.92494331065757	41	127
386.50698412698415	386.92494331065757	72	127
386.50698412698415	386.92494331065757	53	127
386.92494331065757	387.296462585034	73	127
386.92494331065757	387.3080725623583	29	127
386.92494331065757	387.3080725623583	41	127
387.3080725623583	387.78408163265306	46	127
387.3080725623583	388.50390022675737	62	127
387.3080725623583	388.50390022675737	70	127
387.3080725623583	388.50390022675737	74	127
387.3080725623583	387.78408163265306	34	127
387.78408163265306	388.178820861678	53	127
387.78408163265306	388.178820861678	41	127
388.178820861678	388.6548299319728	58	127
388.178820861678	388.6548299319728	46	127
388.6548299319728	389.1192290249433	74	127
388.6548299319728	389.1192290249433	65	127
388.6548299319728	389.1192290249433	70	127
388.6548299319728	389.1192290249433	56	127
388.6548299319728	389.1192290249433	44	127
389.1308390022676	389.5836281179138	43	127
389.1308390022676	389.5836281179138	55	127
389.1308390022676	389.5836281179138	75	127
389.1308390022676	389.5836281179138	67	127
389.1308390022676	389.5836281179138	70	127
389.5836281179138	390.0596371882086	70	127
389.5836281179138	390.0596371882086	76	127
389.5836281179138	390.0596371882086	67	127
389.5836281179138	390.0596371882086	48	127
389.5836281179138	390.0596371882086	36	127
390.0596371882086	391.26707482993197	41	127
390.0596371882086	391.26707482993197	29	127
390.0596371882086	390.90716553287984	72	127
390.0596371882086	390.50081632653064	77	127
390.0596371882086	390.50081632653064	69	127
390.50081632653064	390.90716553287984	67	127
390.50081632653064	390.90716553287984	76	127
390.90716553287984	391.26707482993197	65	127
390.90716553287984	391.77791383219954	69	127
390.90716553287984	391.26707482993197	74	127
391.26707482993197	391.77791383219954	30	127
391.26707482993197	391.77791383219954	72	127
391.26707482993197	391.77791383219954	63	127
391.26707482993197	391.77791383219954	42	127
391.77791383219954	392.55578231292515	31	127
391.77791383219954	392.55578231292515	43	127
391.77791383219954	392.2655328798186	72	127
391.77791383219954	393.4265306122449	62	127
391.77791383219954	393.4265306122449	67	127
392.27714285714285	392.68349206349205	69	127
392.6951020408163	393.80965986394557	55	127
392.6951020408163	393.80965986394557	43	127
392.6951020408163	393.4265306122449	71	127
393.58907029478456	393.9257596371882	59	127
393.58907029478456	394.8313378684807	67	127
393.9373696145125	394.3437188208617	62	127
393.9373696145125	394.3437188208617	41	127
393.9373696145125	394.3437188208617	53	127
394.35532879818595	394.8313378684807	52	127
394.35532879818595	394.8313378684807	60	127
394.35532879818595	394.8313378684807	40	127
394.8313378684807	395.2492970521542	58	127
394.8313378684807	395.2492970521542	68	127
394.8313378684807	395.2492970521542	28	127
394.8313378684807	395.2492970521542	40	127
395.2492970521542	395.551156462585	57	127
395.2492970521542	395.9226757369614	69	127
395.2492970521542	395.551156462585	41	127
395.2492970521542	395.551156462585	29	127
395.551156462585	395.9226757369614	61	127
395.551156462585	395.9226757369614	41	127
395.551156462585	395.9226757369614	53	127
395.9226757369614	396.3174149659864	42	127
395.9226757369614	396.3174149659864	62	127
395.9226757369614	396.3174149659864	54	127
396.3174149659864	396.65410430839	60	127
396.3174149659864	396.65410430839	30	127
396.3174149659864	396.65410430839	70	127
396.3174149659864	396.65410430839	42	127
396.6657142857143	397.1301133786848	59	127
396.6657142857143	397.4784126984127	71	127
396.6657142857143	397.1301133786848	43	127
396.6657142857143	397.1301133786848	31	127
397.1301133786848	397.4784126984127	63	127
397.1301133786848	397.4784126984127	43	127
397.1301133786848	397.4784126984127	55	127
397.4784126984127	397.89637188208616	44	127
397.4784126984127	397.89637188208616	56	127
397.4784126984127	397.89637188208616	64	127
397.89637188208616	398.3259410430839	44	127
397.89637188208616	398.3259410430839	32	127
397.89637188208616	398.31433106575963	62	127
397.89637188208616	398.31433106575963	71	127
398.3259410430839	400.75242630385486	72	127
398.3259410430839	398.80195011337867	45	127
398.3259410430839	398.80195011337867	33	127
398.3259410430839	400.75242630385486	60	127
398.81356009070294	399.31278911564624	58	127
398.81356009070294	399.31278911564624	46	127
399.31278911564624	399.742358276644	45	127
399.31278911564624	399.742358276644	57	127
399.742358276644	400.12548752834465	43	127
399.742358276644	400.12548752834465	55	127
400.12548752834465	400.4970068027211	53	127
400.12548752834465	400.4970068027211	41	127
400.5086167800454	400.98462585034014	34	127
400.5086167800454	400.98462585034014	46	127
400.98462585034014	401.3793650793651	33	127
400.98462585034014	403.0744217687075	72	127
400.98462585034014	401.3793650793651	45	127
400.98462585034014	403.0744217687075	60	127
401.3793650793651	401.76249433106574	31	127
401.3793650793651	401.76249433106574	43	127
401.77410430839	403.8871201814059	30	127
401.77410430839	403.8871201814059	42	127
403.2834013605442	404.60693877551023	87	127
403.2834013605442	404.60693877551023	75	127
404.1309297052154	406.3948752834467	45	127
404.1309297052154	406.3948752834467	33	127
404.61854875283444	404.9436281179138	72	127
404.61854875283444	404.9436281179138	84	127
404.9552380952381	405.33836734693875	69	127
404.9552380952381	405.33836734693875	81	127
405.349977324263	405.8143764172336	78	127
405.349977324263	405.8143764172336	66	127
405.82598639455784	406.18589569160997	75	127
405.82598639455784	406.18589569160997	63	127
406.18589569160997	406.56902494331064	60	127
406.18589569160997	406.56902494331064	72	127
406.5806349206349	408.6239909297052	36	127
406.5806349206349	408.6239909297052	48	127
406.5806349206349	407.114693877551	69	127
406.5806349206349	407.114693877551	57	127
407.95061224489797	409.18126984126985	78	127
407.95061224489797	409.18126984126985	90	127
408.8445804988662	410.9343764172336	35	127
408.8445804988662	410.9343764172336	47	127
409.1928798185941	409.6340589569161	87	127
409.1928798185941	409.6340589569161	75	127
409.6340589569161	410.0636281179138	69	127
409.6340589569161	410.0636281179138	81	127
410.0636281179138	410.55124716553286	78	127
410.0636281179138	410.55124716553286	66	127
410.5628571428571	411.5497052154195	90	127
410.5628571428571	411.5497052154195	78	127
411.13174603174605	413.5001814058957	47	127
411.13174603174605	413.5001814058957	35	127
411.5613151927438	412.0489342403628	87	127
411.5613151927438	412.0489342403628	75	127
412.0605442176871	412.3972335600907	81	127
412.0605442176871	412.3972335600907	69	127
412.40884353741495	412.90807256235826	66	127
412.40884353741495	412.90807256235826	78	127
412.90807256235826	413.2447619047619	75	127
412.90807256235826	413.2447619047619	63	127
413.25637188208617	413.7556009070295	69	127
413.25637188208617	413.7556009070295	57	127
413.76721088435374	414.0690702947846	70	127
413.76721088435374	414.0690702947846	46	127
413.76721088435374	414.67278911564625	34	127
414.0690702947846	414.3709297052154	75	127
414.0690702947846	414.3709297052154	51	127
414.3709297052154	414.67278911564625	55	127
414.3709297052154	414.67278911564625	79	127
414.67278911564625	414.92820861678007	70	127
414.67278911564625	414.92820861678007	82	127
414.67278911564625	415.4274376417234	46	127
414.67278911564625	414.92820861678007	58	127
414.92820861678007	415.21845804988664	80	127
414.92820861678007	415.21845804988664	56	127
415.21845804988664	415.4274376417234	53	127
415.21845804988664	415.4274376417234	77	127
415.4274376417234	415.71768707482994	70	127
415.4274376417234	416.21691609977324	46	127
415.4274376417234	415.71768707482994	82	127
415.4274376417234	415.71768707482994	58	127
415.71768707482994	415.98471655328797	79	127
415.71768707482994	415.98471655328797	55	127
415.98471655328797	416.21691609977324	75	127
415.98471655328797	416.21691609977324	51	127
416.21691609977324	417.0412244897959	34	127
416.21691609977324	416.48394557823127	70	127
416.21691609977324	416.48394557823127	46	127
416.48394557823127	416.7393650793651	50	127
416.48394557823127	416.7393650793651	74	127
416.7393650793651	417.0412244897959	53	127
416.7393650793651	417.0412244897959	77	127
417.0412244897959	417.7726530612245	46	127
417.0412244897959	417.3314739229025	70	127
417.0412244897959	417.3314739229025	58	127
417.0412244897959	417.3314739229025	82	127
417.3314739229025	417.5404535147392	56	127
417.3314739229025	417.5404535147392	80	127
417.5404535147392	417.7726530612245	53	127
417.5404535147392	417.7726530612245	77	127
417.7726530612245	417.98163265306124	82	127
417.7726530612245	417.98163265306124	70	127
417.7726530612245	417.98163265306124	58	127
417.7726530612245	418.5853514739229	46	127
417.98163265306124	418.26027210884354	79	127
417.98163265306124	418.26027210884354	55	127
418.26027210884354	418.5853514739229	75	127
418.26027210884354	418.5853514739229	51	127
418.5969614512472	418.84077097505667	82	127
418.5969614512472	418.84077097505667	48	127
418.84077097505667	419.0033106575964	51	127
418.84077097505667	419.0033106575964	75	127
419.0033106575964	419.3051700680272	56	127
419.0033106575964	419.3051700680272	68	127
419.3051700680272	419.6302494331066	46	127
419.3051700680272	419.6302494331066	80	127
419.6302494331066	419.9088888888889	75	127
419.6302494331066	419.9088888888889	51	127
419.9088888888889	420.222358276644	67	127
419.9088888888889	420.222358276644	58	127
420.222358276644	420.5358276643991	79	127
420.222358276644	420.5358276643991	44	127
420.5358276643991	420.7796371882086	48	127
420.5358276643991	420.7796371882086	72	127
420.7796371882086	420.9537868480726	53	127
420.7796371882086	420.9537868480726	65	127
420.9537868480726	421.2208163265306	45	127
420.9537868480726	421.2208163265306	77	127
421.2208163265306	421.4762358276644	72	127
421.2208163265306	421.4762358276644	48	127
421.4762358276644	421.70843537414964	65	127
421.4762358276644	421.70843537414964	53	127
421.70843537414964	421.987074829932	46	127
421.70843537414964	421.987074829932	77	127
421.987074829932	422.25410430839	74	127
421.987074829932	422.25410430839	50	127
422.25410430839	422.4514739229025	65	127
422.25410430839	422.4514739229025	53	127
422.4514739229025	422.7185034013605	77	127
422.4514739229025	422.7185034013605	46	127
422.7185034013605	422.9971428571429	74	127
422.7185034013605	422.9971428571429	58	127
422.9971428571429	423.25256235827663	65	127
422.9971428571429	423.25256235827663	56	127
423.2641723356009	423.50798185941045	77	127
423.2641723356009	423.50798185941045	55	127
423.50798185941045	423.798231292517	50	127
423.50798185941045	423.798231292517	71	127
423.798231292517	424.0884807256236	65	127
423.798231292517	424.0884807256236	43	127
424.0884807256236	424.37873015873015	75	127
424.0884807256236	424.37873015873015	48	127
424.37873015873015	424.5760997732426	51	127
424.37873015873015	424.5760997732426	72	127
424.5760997732426	424.81990929705216	63	127
424.5760997732426	424.81990929705216	55	127
424.81990929705216	425.11015873015873	75	127
424.81990929705216	425.11015873015873	48	127
425.11015873015873	425.3075283446712	67	127
425.11015873015873	425.3075283446712	60	127
425.3075283446712	425.6209977324263	58	127
425.3075283446712	425.6209977324263	63	127
425.6326077097506	425.8996371882086	78	127
425.6326077097506	425.8996371882086	56	127
425.8996371882086	426.1550566893424	51	127
425.8996371882086	426.1550566893424	72	127
426.1550566893424	426.4104761904762	44	127
426.1550566893424	426.4104761904762	66	127
426.4104761904762	426.67750566893426	49	127
426.4104761904762	426.67750566893426	77	127
426.67750566893426	426.95614512471656	53	127
426.67750566893426	426.95614512471656	73	127
426.95614512471656	427.1186848072562	65	127
426.95614512471656	427.1186848072562	56	127
427.1186848072562	427.3857142857143	77	127
427.1186848072562	427.3857142857143	49	127
427.3857142857143	427.68757369614514	61	127
427.3857142857143	427.68757369614514	65	127
427.68757369614514	427.96621315192743	69	127
427.68757369614514	427.96621315192743	59	127
427.96621315192743	428.24485260770973	58	127
427.96621315192743	428.24485260770973	70	127
428.24485260770973	428.54671201814057	53	127
428.24485260770973	428.54671201814057	74	127
428.54671201814057	428.8485714285714	68	127
428.54671201814057	428.8485714285714	78	127
428.54671201814057	428.8485714285714	46	127
428.8485714285714	429.0691609977324	79	127
428.8485714285714	429.0691609977324	51	127
429.0691609977324	429.3826303854875	46	127
429.0691609977324	429.3826303854875	70	127
429.3826303854875	429.62643990929706	67	127
429.3826303854875	429.62643990929706	75	127
429.3826303854875	429.62643990929706	39	127
429.62643990929706	429.9747392290249	72	127
429.62643990929706	429.9747392290249	41	127
429.9747392290249	430.31142857142856	63	127
429.9747392290249	430.31142857142856	36	127
430.31142857142856	430.57845804988665	60	127
430.31142857142856	430.57845804988665	29	127
430.31142857142856	430.57845804988665	69	127
430.59006802721086	431.39115646258506	63	127
430.59006802721086	431.39115646258506	72	127
430.59006802721086	430.85709750566895	34	127
430.85709750566895	431.10090702947844	41	127
431.1125170068027	431.3795464852608	46	127
431.39115646258506	432.13419501133785	62	127
431.39115646258506	432.13419501133785	70	127
431.39115646258506	431.6930158730159	45	127
431.7046258503401	431.94843537414965	46	127
431.9600453514739	432.27351473922903	45	127
432.2851247165533	432.62181405895694	46	127
432.63342403628116	432.9236734693878	45	127
432.935283446712	433.2371428571429	46	127
432.935283446712	433.2371428571429	58	127
433.2487528344671	433.71315192743765	56	127
433.2487528344671	434.2239909297052	38	127
433.2487528344671	434.2239909297052	65	127
433.2487528344671	435.5939682539682	46	127
433.71315192743765	434.2239909297052	58	127
434.2239909297052	435.5939682539682	34	127
434.2239909297052	434.7	53	127
434.2239909297052	435.15278911564627	62	127
434.7	435.15278911564627	56	127
435.15278911564627	435.4198185941043	50	127
435.15278911564627	435.8261678004535	58	127
435.4198185941043	435.8261678004535	56	127
435.8261678004535	436.29056689342406	56	127
435.8261678004535	436.66208616780045	65	127
435.8261678004535	436.53437641723355	38	127
435.8261678004535	438.055283446712	46	127
436.3021768707483	436.66208616780045	58	127
436.6736961451247	437.03360544217685	56	127
436.6736961451247	438.055283446712	34	127
436.6736961451247	437.03360544217685	67	127
437.03360544217685	437.4167346938776	58	127
437.03360544217685	437.4167346938776	65	127
437.4167346938776	437.84630385487526	53	127
437.4167346938776	437.84630385487526	62	127
437.84630385487526	438.2874829931973	56	127
437.84630385487526	438.2874829931973	58	127
438.29909297052154	439.9941496598639	46	127
438.29909297052154	439.1930612244898	58	127
438.29909297052154	439.1930612244898	43	127
438.29909297052154	438.74027210884356	51	127
438.7518820861678	439.1930612244898	55	127
439.1930612244898	439.6226303854875	55	127
439.1930612244898	440.12185941043083	63	127
439.1930612244898	439.9941496598639	39	127
439.6342403628118	440.12185941043083	58	127
440.1334693877551	440.52820861678003	58	127
440.1334693877551	440.9113378684807	70	127
440.1334693877551	440.7720181405896	31	127
440.1334693877551	440.7720181405896	43	127
440.52820861678003	440.9113378684807	63	127
440.9113378684807	442.6296145124717	48	127
440.9113378684807	442.6296145124717	36	127
440.9113378684807	441.3873469387755	57	127
440.9113378684807	442.88503401360543	69	127
441.3873469387755	441.8981859410431	63	127
441.8981859410431	442.3509750566893	57	127
442.3509750566893	442.88503401360543	63	127
442.8966439909297	445.04448979591837	63	127
442.8966439909297	443.6629024943311	55	127
442.8966439909297	445.04448979591837	67	127
442.8966439909297	443.37265306122447	82	127
442.8966439909297	443.37265306122447	70	127
443.37265306122447	443.837052154195	75	127
443.837052154195	445.04448979591837	60	127
443.837052154195	444.28984126984125	69	127
443.837052154195	445.1954195011338	81	127
444.28984126984125	444.73102040816326	75	127
444.73102040816326	445.1954195011338	69	127
445.207029478458	445.33473922902493	67	127
445.207029478458	445.33473922902493	63	127
445.207029478458	445.54371882086167	45	127
445.207029478458	445.33473922902493	72	127
445.207029478458	445.54371882086167	33	127
445.55532879818594	445.6946485260771	62	127
445.55532879818594	445.9384580498866	46	127
445.55532879818594	445.9384580498866	34	127
445.55532879818594	445.6946485260771	67	127
445.55532879818594	445.6946485260771	70	127
445.9500680272109	446.40285714285716	48	127
445.9500680272109	446.40285714285716	36	127
445.9500680272109	446.1242176870748	67	127
445.9500680272109	446.1242176870748	69	127
446.4144671201814	447.2387755102041	50	127
446.4144671201814	447.2387755102041	38	127
446.4144671201814	446.8788662131519	60	127
446.4144671201814	447.2387755102041	69	127
446.8788662131519	447.2387755102041	66	127
447.2387755102041	448.0166439909297	55	127
447.2387755102041	448.0166439909297	43	127
447.2387755102041	447.69156462585033	67	127
447.2387755102041	448.0166439909297	70	127
447.69156462585033	448.0166439909297	62	127
448.0166439909297	448.8409523809524	72	127
448.0166439909297	448.8409523809524	41	127
448.0166439909297	448.8409523809524	53	127
448.0166439909297	448.44621315192745	63	127
448.44621315192745	448.8409523809524	69	127
448.8409523809524	449.6884807256236	46	127
448.8409523809524	449.6884807256236	74	127
448.8409523809524	449.3053514739229	70	127
448.8409523809524	449.6884807256236	58	127
449.3053514739229	449.6884807256236	65	127
449.6884807256236	450.5708390022676	45	127
449.6884807256236	450.5708390022676	76	127
449.6884807256236	450.5708390022676	57	127
449.6884807256236	450.1064399092971	67	127
450.1064399092971	450.5708390022676	73	127
450.5708390022676	451.6389569160998	62	127
450.5708390022676	451.6389569160998	50	127
450.5708390022676	451.26743764172335	74	127
450.5708390022676	452.84639455782315	77	127
451.26743764172335	451.7898866213152	69	127
451.80149659863946	452.84639455782315	41	127
451.80149659863946	452.84639455782315	29	127
451.80149659863946	452.2891156462585	74	127
452.2891156462585	452.84639455782315	69	127
452.84639455782315	453.856462585034	43	127
452.84639455782315	453.856462585034	75	127
452.84639455782315	453.856462585034	31	127
452.84639455782315	453.368843537415	70	127
453.368843537415	453.856462585034	67	127
453.856462585034	454.6459410430839	45	127
453.856462585034	454.30925170068025	64	127
453.856462585034	454.6459410430839	33	127
453.856462585034	454.8084807256236	73	127
454.30925170068025	454.8084807256236	67	127
454.8084807256236	457.3626757369615	26	127
454.8084807256236	455.621179138322	74	127
454.8084807256236	455.621179138322	66	127
454.8084807256236	455.29609977324264	38	127
455.29609977324264	455.7837188208617	38	127
455.79532879818595	456.1204081632653	74	127
455.79532879818595	456.3177777777778	38	127
456.1204081632653	456.4687074829932	75	127
456.32938775510206	456.73573696145127	38	127
456.4687074829932	456.74734693877554	74	127
456.74734693877554	457.02598639455783	73	127
456.74734693877554	457.14208616780047	38	127
457.02598639455783	457.29301587301586	74	127
457.15369614512474	457.5484353741497	38	127
457.29301587301586	457.56004535147395	73	127
457.56004535147395	457.89673469387753	72	127
457.56004535147395	458.02444444444444	38	127
457.56004535147395	459.83560090702946	26	127
457.89673469387753	458.1637641723356	74	127
458.02444444444444	458.4191836734694	38	127
458.1637641723356	458.43079365079365	72	127
458.43079365079365	458.8487528344671	38	127
458.43079365079365	458.74426303854875	71	127
458.74426303854875	458.87197278911566	72	127
458.8487528344671	459.1390022675737	38	127
458.87197278911566	459.15061224489796	71	127
459.15061224489796	459.4524716553288	70	127
459.15061224489796	459.56857142857143	38	127
459.4524716553288	459.75433106575963	72	127
459.5801814058957	459.96331065759637	38	127
459.75433106575963	459.97492063492064	70	127
459.97492063492064	460.38126984126984	38	127
459.97492063492064	462.1808163265306	26	127
459.97492063492064	460.24195011337866	69	127
460.24195011337866	460.55541950113377	70	127
460.38126984126984	460.7179591836735	38	127
460.55541950113377	460.72956916099776	69	127
460.72956916099776	461.00820861678005	69	127
460.72956916099776	461.1126984126984	38	127
461.00820861678005	461.28684807256235	62	127
461.1126984126984	461.50743764172336	38	127
461.28684807256235	461.50743764172336	69	127
461.50743764172336	461.82090702947846	67	127
461.50743764172336	461.9950566893424	38	127
461.82090702947846	462.11115646258503	69	127
462.00666666666666	462.36657596371884	38	127
462.11115646258503	462.37818594104306	67	127
462.37818594104306	464.758231292517	26	127
462.37818594104306	462.6684353741497	64	127
462.37818594104306	462.8077551020408	38	127
462.6684353741497	462.9702947845805	66	127
462.81936507936507	463.2489342403628	38	127
462.9702947845805	463.2605442176871	64	127
463.2605442176871	463.5624036281179	66	127
463.2605442176871	463.6901133786848	38	127
463.5624036281179	463.8526530612245	67	127
463.7017233560091	464.17773242630386	38	127
463.8526530612245	464.17773242630386	66	127
464.18934240362813	465.7450793650794	62	127
464.18934240362813	465.7450793650794	50	127
464.96721088435373	467.4633560090703	31	127
464.96721088435373	465.42	43	127
465.4316099773243	465.8843990929705	43	127
465.8960090702948	467.1150566893424	50	127
465.8960090702948	467.1150566893424	62	127
465.8960090702948	466.31396825396826	43	127
466.3255782312925	466.77836734693875	43	127
466.789977324263	467.2427664399093	43	127
467.2543764172336	467.6839455782313	50	127
467.2543764172336	467.6839455782313	62	127
467.2543764172336	467.6839455782313	43	127
467.6839455782313	468.13673469387754	43	127
467.6839455782313	468.13673469387754	50	127
467.6839455782313	468.13673469387754	62	127
467.6839455782313	469.83179138322	31	127
468.13673469387754	468.4037641723356	51	127
468.13673469387754	468.4037641723356	43	127
468.13673469387754	468.4037641723356	63	127
468.41537414965984	469.5647619047619	63	127
468.41537414965984	469.5647619047619	51	127
468.41537414965984	468.8333333333333	43	127
468.8449433106576	469.29773242630387	43	127
469.30934240362814	469.6924716553288	43	127
469.6924716553288	470.05238095238093	64	127
469.6924716553288	470.05238095238093	43	127
469.6924716553288	470.05238095238093	52	127
470.0639909297052	470.49356009070294	67	127
470.0639909297052	470.4819501133787	43	127
470.0639909297052	470.49356009070294	55	127
470.0639909297052	472.35115646258504	31	127
470.49356009070294	470.89990929705215	43	127
470.49356009070294	470.89990929705215	52	127
470.49356009070294	470.89990929705215	64	127
470.9115192743764	471.9564172335601	53	127
470.9115192743764	471.9564172335601	65	127
470.9115192743764	471.30625850340135	43	127
471.3178684807256	471.61972789115646	43	127
471.6313378684807	472.1073469387755	43	127
472.11895691609976	472.53691609977324	56	127
472.11895691609976	472.53691609977324	43	127
472.11895691609976	472.53691609977324	68	127
472.5485260770975	473.3612244897959	72	127
472.5485260770975	473.97655328798186	31	127
472.5485260770975	472.9316553287982	43	127
472.5485260770975	473.3612244897959	60	127
472.94326530612244	473.34961451247165	43	127
473.3612244897959	473.80240362811793	43	127
473.3612244897959	474.0578231292517	71	127
473.3612244897959	474.0578231292517	59	127
473.80240362811793	474.19714285714286	43	127
474.19714285714286	475.07950113378683	60	127
474.19714285714286	474.9401814058957	31	127
474.19714285714286	475.07950113378683	72	127
474.19714285714286	474.6383219954649	43	127
474.6499319727891	475.06789115646257	43	127
475.07950113378683	475.52068027210885	43	127
475.07950113378683	475.74126984126985	71	127
475.07950113378683	475.74126984126985	59	127
475.5322902494331	475.89219954648524	43	127
475.9038095238095	476.809387755102	75	127
475.9038095238095	476.809387755102	63	127
475.9038095238095	476.37981859410434	43	127
475.9038095238095	477.5408163265306	31	127
476.39142857142855	476.809387755102	43	127
476.809387755102	477.3086167800453	43	127
476.809387755102	477.6336961451247	74	127
476.809387755102	477.6336961451247	62	127
477.3202267573696	477.7730158730159	43	127
477.78462585034015	478.353514739229	43	127
477.78462585034015	478.353514739229	39	127
477.78462585034015	478.353514739229	31	127
477.78462585034015	478.3651247165533	70	127
477.78462585034015	478.3651247165533	75	127
477.78462585034015	478.3651247165533	82	127
478.3651247165533	478.82952380952383	67	127
478.3651247165533	478.82952380952383	79	127
478.82952380952383	479.1197732426304	63	127
478.82952380952383	479.1778231292517	75	127
479.1197732426304	479.3519727891156	58	127
479.1778231292517	479.65383219954646	70	127
479.3519727891156	479.65383219954646	55	127
479.65383219954646	479.9324716553288	51	127
479.65383219954646	480.0369614512472	67	127
479.9324716553288	480.19950113378684	46	127
480.0369614512472	480.47814058956914	70	127
480.19950113378684	480.47814058956914	43	127
480.47814058956914	481.4069387755102	75	127
480.47814058956914	480.95414965986396	63	127
480.47814058956914	481.41854875283445	43	127
480.47814058956914	481.41854875283445	31	127
480.95414965986396	481.4069387755102	70	127
481.41854875283445	482.24285714285713	74	127
481.41854875283445	481.82489795918366	62	127
481.41854875283445	482.2544671201814	41	127
481.41854875283445	482.2544671201814	29	127
481.8365079365079	482.24285714285713	70	127
482.2544671201814	482.73047619047617	63	127
482.2544671201814	483.05555555555554	43	127
482.2544671201814	483.0439455782313	75	127
482.2544671201814	483.05555555555554	31	127
482.74208616780044	483.0439455782313	70	127
483.05555555555554	483.4851247165533	64	127
483.05555555555554	483.8914739229025	46	127
483.05555555555554	483.8914739229025	34	127
483.05555555555554	483.8798639455782	70	127
483.05555555555554	483.4851247165533	76	127
483.49673469387756	483.8798639455782	65	127
483.49673469387756	483.8798639455782	77	127
483.8914739229025	484.2862131519274	70	127
483.8914739229025	484.2862131519274	61	127
483.8914739229025	484.68095238095236	32	127
483.8914739229025	484.68095238095236	44	127
483.8914739229025	484.2862131519274	73	127
484.2978231292517	484.6693424036281	74	127
484.2978231292517	484.6693424036281	62	127
484.68095238095236	485.1453514739229	75	127
484.68095238095236	485.4704308390023	31	127
484.68095238095236	485.5517006802721	70	127
484.68095238095236	485.4704308390023	43	127
484.68095238095236	485.1453514739229	63	127
485.1569614512472	485.5517006802721	79	127
485.1569614512472	485.5517006802721	67	127
485.5517006802721	486.00448979591835	70	127
485.5517006802721	486.41083900226755	36	127
485.5517006802721	486.41083900226755	48	127
485.5517006802721	486.00448979591835	82	127
486.00448979591835	486.41083900226755	80	127
486.00448979591835	486.41083900226755	68	127
486.41083900226755	486.782358276644	78	127
486.41083900226755	486.782358276644	66	127
486.41083900226755	487.16548752834467	34	127
486.41083900226755	487.16548752834467	46	127
486.782358276644	487.16548752834467	67	127
486.782358276644	487.16548752834467	79	127
487.16548752834467	487.664716553288	64	127
487.16548752834467	487.664716553288	76	127
487.16548752834467	488.0014058956916	44	127
487.16548752834467	488.0014058956916	32	127
487.664716553288	487.98979591836735	77	127
487.664716553288	487.98979591836735	65	127
488.0014058956916	488.8257142857143	33	127
488.0014058956916	488.372925170068	62	127
488.0014058956916	488.8257142857143	45	127
488.0014058956916	488.372925170068	74	127
488.372925170068	488.8257142857143	75	127
488.372925170068	488.8257142857143	63	127
488.8257142857143	489.2436734693878	61	127
488.8257142857143	489.2436734693878	73	127
488.8257142857143	489.68485260770973	46	127
488.8257142857143	489.68485260770973	34	127
489.2436734693878	489.68485260770973	62	127
489.2436734693878	489.68485260770973	74	127
489.68485260770973	490.38145124716556	32	127
489.68485260770973	490.09120181405893	77	127
489.68485260770973	490.38145124716556	44	127
489.68485260770973	490.09120181405893	65	127
490.09120181405893	490.53238095238095	68	127
490.09120181405893	490.53238095238095	80	127
490.5439909297052	490.93873015873015	31	127
490.5439909297052	490.93873015873015	84	127
490.5439909297052	490.93873015873015	43	127
490.5439909297052	490.93873015873015	72	127
490.93873015873015	491.3682993197279	82	127
490.93873015873015	491.3682993197279	34	127
490.93873015873015	491.3682993197279	70	127
490.93873015873015	491.3682993197279	46	127
491.3682993197279	491.69337868480727	79	127
491.3682993197279	491.69337868480727	67	127
491.3682993197279	491.69337868480727	41	127
491.3682993197279	491.69337868480727	29	127
491.69337868480727	492.122947845805	46	127
491.69337868480727	492.122947845805	80	127
491.69337868480727	492.122947845805	68	127
491.69337868480727	492.122947845805	34	127
492.122947845805	492.5292970521542	66	127
492.122947845805	492.5292970521542	39	127
492.122947845805	492.5292970521542	78	127
492.122947845805	492.5292970521542	27	127
492.5292970521542	492.83115646258506	79	127
492.5292970521542	492.83115646258506	67	127
492.5292970521542	492.83115646258506	49	127
492.5292970521542	492.83115646258506	37	127
492.84276643990927	493.2142857142857	48	127
492.84276643990927	493.2142857142857	36	127
492.84276643990927	493.2142857142857	89	127
492.84276643990927	493.2142857142857	77	127
493.2142857142857	493.6206349206349	39	127
493.2142857142857	493.6206349206349	75	127
493.2142857142857	493.6206349206349	87	127
493.2142857142857	493.6206349206349	51	127
493.6206349206349	493.9689342403628	72	127
493.6206349206349	493.9689342403628	34	127
493.6206349206349	493.9689342403628	46	127
493.6206349206349	493.9689342403628	84	127
493.9689342403628	494.3172335600907	39	127
493.9689342403628	494.3172335600907	51	127
493.9689342403628	494.3172335600907	73	127
493.9689342403628	494.3172335600907	85	127
494.3172335600907	494.7584126984127	71	127
494.3172335600907	494.7584126984127	83	127
494.3172335600907	494.7584126984127	44	127
494.3172335600907	494.7584126984127	32	127
494.7584126984127	495.1763718820862	39	127
494.7584126984127	495.1763718820862	72	127
494.7584126984127	495.1763718820862	84	127
494.7584126984127	495.1763718820862	51	127
495.18798185941046	495.5827210884354	69	127
495.18798185941046	495.5827210884354	43	127
495.18798185941046	495.5827210884354	31	127
495.18798185941046	495.5827210884354	81	127
495.5827210884354	496.00068027210887	70	127
495.5827210884354	496.00068027210887	42	127
495.5827210884354	496.00068027210887	82	127
495.5827210884354	496.00068027210887	30	127
496.00068027210887	496.41863945578234	69	127
496.00068027210887	496.41863945578234	41	127
496.00068027210887	496.41863945578234	29	127
496.00068027210887	496.41863945578234	81	127
496.41863945578234	496.74371882086166	39	127
496.41863945578234	496.74371882086166	63	127
496.41863945578234	496.74371882086166	75	127
496.41863945578234	496.74371882086166	51	127
496.74371882086166	497.15006802721086	41	127
496.74371882086166	497.15006802721086	29	127
496.74371882086166	497.15006802721086	68	127
496.74371882086166	497.15006802721086	80	127
497.15006802721086	497.55641723356007	70	127
497.15006802721086	497.55641723356007	82	127
497.15006802721086	497.55641723356007	28	127
497.15006802721086	497.55641723356007	40	127
497.55641723356007	498.00920634920635	67	127
497.55641723356007	498.00920634920635	27	127
497.55641723356007	498.00920634920635	39	127
497.55641723356007	498.00920634920635	79	127
498.0208163265306	498.392335600907	46	127
498.0208163265306	498.4039455782313	58	127
498.0208163265306	498.392335600907	34	127
498.0208163265306	498.4039455782313	70	127
498.4039455782313	498.8102947845805	30	127
498.4039455782313	498.6709750566893	66	127
498.4039455782313	498.6709750566893	78	127
498.4039455782313	498.8102947845805	42	127
498.6709750566893	498.96122448979594	68	127
498.6709750566893	498.96122448979594	80	127
498.82190476190476	499.1702040816327	27	127
498.82190476190476	499.1702040816327	39	127
498.96122448979594	499.1702040816327	78	127
498.96122448979594	499.1702040816327	66	127
499.1702040816327	499.9480725623583	30	127
499.1702040816327	499.64621315192744	44	127
499.1702040816327	499.3907936507936	64	127
499.1702040816327	499.3907936507936	76	127
499.4836734693878	499.715873015873	80	127
499.4836734693878	499.715873015873	68	127
499.6578231292517	500.05256235827665	44	127
499.8087528344671	499.9829024943311	83	127
499.8087528344671	499.9829024943311	71	127
500.0641723356009	501.2948299319728	66	127
500.0641723356009	501.2948299319728	70	127
500.0641723356009	501.2948299319728	75	127
500.0641723356009	500.58662131519276	46	127
500.0641723356009	501.2948299319728	63	127
500.0641723356009	500.58662131519276	34	127
500.58662131519276	500.95814058956915	39	127
500.58662131519276	500.95814058956915	51	127
500.95814058956915	501.2948299319728	54	127
500.95814058956915	501.2948299319728	42	127
501.2948299319728	501.7940589569161	58	127
501.2948299319728	501.7940589569161	46	127
501.2948299319728	501.4341496598639	77	127
501.4341496598639	501.55024943310656	75	127
501.55024943310656	501.67795918367347	74	127
501.67795918367347	501.7940589569161	75	127
501.8056689342404	502.2004081632653	58	127
501.8056689342404	502.06108843537413	78	127
501.8056689342404	502.2004081632653	34	127
502.06108843537413	502.37455782312924	74	127
502.2120181405896	502.72285714285715	56	127
502.2120181405896	502.72285714285715	46	127
502.37455782312924	502.72285714285715	77	127
502.7460770975057	504.49918367346936	72	127
502.7460770975057	505.54408163265305	39	127
502.7460770975057	504.49918367346936	75	127
502.7460770975057	505.54408163265305	36	127
502.7460770975057	505.54408163265305	42	127
502.7460770975057	505.54408163265305	33	127
502.7460770975057	504.49918367346936	63	127
502.7460770975057	504.49918367346936	66	127
502.7460770975057	505.54408163265305	45	127
504.9984126984127	505.2422222222222	75	127
505.2422222222222	505.4163718820862	77	127
505.4163718820862	505.54408163265305	75	127
505.54408163265305	505.70662131519276	74	127
505.70662131519276	505.81111111111113	75	127
505.8227210884354	506.3683900226757	75	127
505.8227210884354	506.3683900226757	72	127
505.8227210884354	506.3683900226757	84	127
505.8227210884354	506.3683900226757	34	127
505.8227210884354	506.3683900226757	79	127
505.8227210884354	506.3683900226757	46	127
506.3683900226757	506.821179138322	39	127
506.3683900226757	506.821179138322	70	127
506.3683900226757	506.821179138322	82	127
506.3683900226757	506.821179138322	51	127
506.3683900226757	506.821179138322	79	127
506.821179138322	507.16947845804987	68	127
506.821179138322	507.16947845804987	80	127
506.821179138322	507.16947845804987	55	127
506.821179138322	507.16947845804987	43	127
506.821179138322	507.16947845804987	77	127
507.16947845804987	507.5990476190476	67	127
507.16947845804987	507.5990476190476	58	127
507.16947845804987	507.5990476190476	79	127
507.16947845804987	507.5990476190476	75	127
507.16947845804987	507.5990476190476	46	127
507.5990476190476	508.0982766439909	60	127
507.5990476190476	508.0982766439909	77	127
507.5990476190476	508.0982766439909	48	127
507.5990476190476	508.0982766439909	74	127
507.5990476190476	508.0982766439909	65	127
508.0982766439909	508.49301587301585	36	127
508.0982766439909	508.49301587301585	72	127
508.0982766439909	508.49301587301585	63	127
508.0982766439909	508.49301587301585	48	127
508.0982766439909	508.49301587301585	75	127
508.5046258503401	508.9225850340136	70	127
508.5046258503401	508.9225850340136	62	127
508.5046258503401	508.93419501133786	44	127
508.5046258503401	508.93419501133786	32	127
508.5046258503401	508.9225850340136	74	127
508.93419501133786	509.34054421768707	48	127
508.93419501133786	509.34054421768707	59	127
508.93419501133786	509.34054421768707	71	127
508.93419501133786	509.34054421768707	36	127
509.34054421768707	510.2693424036281	68	127
509.34054421768707	509.8049433106576	41	127
509.34054421768707	509.8049433106576	53	127
509.34054421768707	509.8049433106576	73	127
509.34054421768707	509.8049433106576	61	127
509.8049433106576	510.2693424036281	44	127
509.8049433106576	510.2693424036281	72	127
509.8049433106576	510.2693424036281	60	127
509.8049433106576	510.2693424036281	56	127
510.2809523809524	511.10526077097506	32	127
510.2809523809524	510.47832199546485	77	127
510.2809523809524	510.47832199546485	65	127
510.5595918367347	510.75696145124715	68	127
510.5595918367347	510.75696145124715	80	127
510.6873015873016	511.10526077097506	44	127
510.84984126984125	511.0356009070295	72	127
510.84984126984125	511.0356009070295	84	127
511.10526077097506	511.5580498866213	79	127
511.10526077097506	511.5580498866213	75	127
511.10526077097506	511.5580498866213	84	127
511.10526077097506	511.5580498866213	34	127
511.10526077097506	511.5580498866213	72	127
511.10526077097506	511.5580498866213	46	127
511.5580498866213	512.4171882086168	75	127
511.5580498866213	512.0340362811792	51	127
511.5580498866213	512.4171882086168	63	127
511.5580498866213	512.0340362811792	39	127
512.0340362811792	512.4287755102041	55	127
512.0340362811792	512.4287755102041	43	127
512.4287755102041	512.8931972789115	58	127
512.4287755102041	512.5681179138322	77	127
512.4287755102041	512.8931972789115	46	127
512.5681179138322	512.6726077097505	75	127
512.6726077097505	512.7654875283447	74	127
512.7654875283447	512.8931972789115	75	127
512.8931972789115	513.8800453514739	34	127
512.8931972789115	513.3924263038549	67	127
512.8931972789115	513.8800453514739	74	127
512.8931972789115	513.3924263038549	79	127
513.3924263038549	513.8800453514739	65	127
513.3924263038549	513.8800453514739	77	127
513.3924263038549	513.8800453514739	46	127
513.8916553287982	514.6230839002268	75	127
513.8916553287982	514.6230839002268	67	127
513.8916553287982	514.1122448979592	39	127
514.1122448979592	514.3212244897959	46	127
514.3212244897959	514.5534240362812	55	127
514.5534240362812	514.7740136054422	58	127
514.7856235827664	515.1455328798186	79	127
514.7856235827664	515.1455328798186	67	127
514.7856235827664	515.1455328798186	75	127
514.7856235827664	515.1455328798186	63	127
515.1455328798186	515.4357823129252	65	127
515.1455328798186	515.4357823129252	70	127
515.1455328798186	515.4357823129252	77	127
515.1455328798186	515.4357823129252	58	127
515.4473922902495	515.737641723356	55	127
515.4473922902495	515.737641723356	75	127
515.4473922902495	515.737641723356	67	127
515.4473922902495	515.737641723356	63	127
515.7492517006802	515.9814512471655	75	127
515.7492517006802	515.9814512471655	79	127
515.7492517006802	515.9814512471655	63	127
515.7492517006802	515.9814512471655	67	127
515.9930612244898	516.2252607709751	65	127
515.9930612244898	516.2252607709751	58	127
515.9930612244898	516.2252607709751	70	127
515.9930612244898	516.2252607709751	77	127
516.2368707482993	516.4806802721089	67	127
516.2368707482993	516.4806802721089	63	127
516.2368707482993	516.4806802721089	55	127
516.2368707482993	516.4806802721089	75	127
516.4922902494332	516.8057596371882	63	127
516.4922902494332	516.8057596371882	67	127
516.4922902494332	516.8057596371882	79	127
516.4922902494332	516.8057596371882	75	127
516.8173696145125	517.1540589569161	63	127
516.8173696145125	517.1540589569161	55	127
516.8173696145125	517.1540589569161	75	127
516.8173696145125	517.1540589569161	67	127
517.1540589569161	517.4210884353741	70	127
517.1540589569161	517.4210884353741	58	127
517.1540589569161	517.4210884353741	77	127
517.1540589569161	517.4210884353741	65	127
517.4326984126984	517.7345578231293	68	127
517.4326984126984	517.7345578231293	65	127
517.4326984126984	517.7345578231293	77	127
517.4326984126984	517.7345578231293	80	127
517.7461451247166	517.989977324263	75	127
517.7461451247166	517.989977324263	63	127
517.7461451247166	517.989977324263	67	127
517.7461451247166	517.989977324263	79	127
518.0015873015873	518.2686167800454	70	127
518.0015873015873	518.2686167800454	65	127
518.0015873015873	518.2686167800454	58	127
518.0015873015873	518.2686167800454	77	127
518.2802267573696	518.5124263038549	65	127
518.2802267573696	518.5124263038549	80	127
518.2802267573696	518.5124263038549	68	127
518.2802267573696	518.5124263038549	77	127
518.5240362811792	518.7678231292517	63	127
518.5240362811792	518.7678231292517	67	127
518.5240362811792	518.7678231292517	79	127
518.5240362811792	518.7678231292517	75	127
518.7678231292517	519.0580952380952	77	127
518.7678231292517	519.0580952380952	58	127
518.7678231292517	519.0580952380952	65	127
518.7678231292517	519.0580952380952	70	127
519.0580952380952	519.3367346938776	80	127
519.0580952380952	519.3367346938776	77	127
519.0580952380952	519.3367346938776	68	127
519.0580952380952	519.3367346938776	65	127
519.3483446712019	519.6269841269841	70	127
519.3483446712019	519.6269841269841	77	127
519.3483446712019	519.6269841269841	65	127
519.3483446712019	519.6269841269841	58	127
519.6385941043084	519.9636734693878	67	127
519.6385941043084	519.9636734693878	79	127
519.6385941043084	519.9636734693878	63	127
519.6385941043084	519.9636734693878	75	127
519.9752834467121	520.24231292517	67	127
519.9752834467121	520.24231292517	82	127
519.9752834467121	520.24231292517	70	127
519.9752834467121	520.24231292517	79	127
520.2539229024943	520.462902494331	65	127
520.2539229024943	520.462902494331	80	127
520.2539229024943	520.462902494331	68	127
520.2539229024943	520.462902494331	77	127
520.4745124716553	520.7299319727891	63	127
520.4745124716553	520.7299319727891	79	127
520.4745124716553	520.7299319727891	67	127
520.4745124716553	520.7299319727891	75	127
520.7415419501134	521.031768707483	70	127
520.7415419501134	521.031768707483	67	127
520.7415419501134	521.031768707483	82	127
520.7415419501134	521.031768707483	79	127
521.0434013605442	521.3336507936508	80	127
521.0434013605442	521.3336507936508	65	127
521.0434013605442	521.3336507936508	77	127
521.0434013605442	521.3336507936508	68	127
521.3452607709751	521.647097505669	63	127
521.3452607709751	521.647097505669	79	127
521.3452607709751	521.647097505669	67	127
521.3452607709751	521.647097505669	75	127
521.6587301587301	521.9025396825397	75	127
521.6587301587301	521.9025396825397	87	127
521.6587301587301	521.9025396825397	72	127
521.6587301587301	521.9025396825397	84	127
521.9025396825397	522.0882993197279	75	127
521.9025396825397	522.0882993197279	63	127
522.0999092970521	522.3785487528345	74	127
522.0999092970521	522.3785487528345	82	127
522.0999092970521	522.3785487528345	86	127
522.0999092970521	522.3785487528345	70	127
522.3901587301588	522.6339682539683	68	127
522.3901587301588	522.6339682539683	72	127
522.3901587301588	522.6339682539683	80	127
522.3901587301588	522.6339682539683	84	127
522.6455555555556	522.842947845805	63	127
522.6455555555556	522.842947845805	75	127
522.8545351473923	523.1448072562358	72	127
522.8545351473923	523.1448072562358	68	127
522.8545351473923	523.1448072562358	84	127
522.8545351473923	523.1448072562358	80	127
523.1564172335601	523.458276643991	70	127
523.1564172335601	523.458276643991	79	127
523.1564172335601	523.458276643991	67	127
523.1564172335601	523.458276643991	82	127
523.4698639455783	523.7833560090703	70	127
523.4698639455783	523.7833560090703	58	127
523.7833560090703	524.0736054421769	65	127
523.7833560090703	524.0736054421769	80	127
523.7833560090703	524.0736054421769	68	127
523.7833560090703	524.0736054421769	77	127
524.0851927437642	524.3754648526077	75	127
524.0851927437642	524.3754648526077	67	127
524.0851927437642	524.3754648526077	63	127
524.0851927437642	524.3754648526077	79	127
524.387074829932	524.6889115646259	75	127
524.387074829932	524.6889115646259	63	127
524.387074829932	524.6889115646259	58	127
524.387074829932	524.6889115646259	70	127
524.7005215419501	525.0140136054422	70	127
524.7005215419501	525.0140136054422	58	127
524.7005215419501	525.0140136054422	55	127
524.7005215419501	525.0140136054422	67	127
525.0256235827665	525.3390929705215	55	127
525.0256235827665	525.3390929705215	67	127
525.0256235827665	525.3390929705215	51	127
525.0256235827665	525.3390929705215	63	127
525.3507029478458	525.6641723356009	53	127
525.3507029478458	525.6641723356009	58	127
525.3507029478458	525.6641723356009	46	127
525.3507029478458	525.6641723356009	65	127
525.6757823129252	525.9428117913832	51	127
525.6757823129252	525.9428117913832	43	127
525.6757823129252	525.9428117913832	55	127
525.6757823129252	525.9428117913832	63	127
525.9428117913832	526.198231292517	51	127
525.9428117913832	526.198231292517	63	127
525.9428117913832	526.198231292517	67	127
525.9428117913832	526.198231292517	55	127
526.198231292517	526.418820861678	53	127
526.198231292517	526.418820861678	58	127
526.198231292517	526.418820861678	65	127
526.198231292517	526.418820861678	46	127
526.4304308390023	526.7554875283447	55	127
526.4304308390023	526.7554875283447	63	127
526.4304308390023	526.7554875283447	51	127
526.4304308390023	526.7554875283447	43	127
526.7671201814059	527.0573696145125	51	127
526.7671201814059	527.0573696145125	63	127
526.7671201814059	527.0573696145125	67	127
526.7671201814059	527.0573696145125	55	127
527.0689795918368	527.3708163265306	55	127
527.0689795918368	527.3708163265306	63	127
527.0689795918368	527.3708163265306	43	127
527.0689795918368	527.3708163265306	51	127
527.3824489795918	527.6378684807256	58	127
527.3824489795918	527.6378684807256	65	127
527.3824489795918	527.6378684807256	53	127
527.3824489795918	527.6378684807256	46	127
527.6494784580499	527.916507936508	53	127
527.6494784580499	527.916507936508	65	127
527.6494784580499	527.916507936508	56	127
527.6494784580499	527.916507936508	68	127
527.916507936508	528.183514739229	67	127
527.916507936508	528.183514739229	55	127
527.916507936508	528.183514739229	51	127
527.916507936508	528.183514739229	63	127
528.183514739229	528.4273469387755	53	127
528.183514739229	528.4273469387755	65	127
528.183514739229	528.4273469387755	58	127
528.183514739229	528.4273469387755	46	127
528.4389569160998	528.7292063492064	56	127
528.4389569160998	528.7292063492064	68	127
528.4389569160998	528.7292063492064	65	127
528.4389569160998	528.7292063492064	53	127
528.7408163265306	528.9962131519275	63	127
528.7408163265306	528.9962131519275	55	127
528.7408163265306	528.9962131519275	67	127
528.7408163265306	528.9962131519275	51	127
529.0078231292517	529.3213151927438	53	127
529.0078231292517	529.3213151927438	58	127
529.0078231292517	529.3213151927438	65	127
529.0078231292517	529.3213151927438	46	127
529.332925170068	529.6347845804988	68	127
529.332925170068	529.6347845804988	53	127
529.332925170068	529.6347845804988	65	127
529.332925170068	529.6347845804988	56	127
529.6463945578231	529.948253968254	53	127
529.6463945578231	529.948253968254	58	127
529.6463945578231	529.948253968254	65	127
529.6463945578231	529.948253968254	46	127
529.9598639455783	530.2733333333333	67	127
529.9598639455783	530.2733333333333	55	127
529.9598639455783	530.2733333333333	63	127
529.9598639455783	530.2733333333333	51	127
530.2849433106576	530.5403628117914	67	127
530.2849433106576	530.5403628117914	58	127
530.2849433106576	530.5403628117914	55	127
530.2849433106576	530.5403628117914	70	127
530.5519727891157	530.8190022675738	53	127
530.5519727891157	530.8190022675738	68	127
530.5519727891157	530.8190022675738	56	127
530.5519727891157	530.8190022675738	65	127
530.830589569161	531.1092517006803	67	127
530.830589569161	531.1092517006803	51	127
530.830589569161	531.1092517006803	63	127
530.830589569161	531.1092517006803	55	127
531.1092517006803	531.3530612244898	67	127
531.1092517006803	531.3530612244898	55	127
531.1092517006803	531.3530612244898	70	127
531.1092517006803	531.3530612244898	58	127
531.3646712018141	531.6432879818594	65	127
531.3646712018141	531.6432879818594	56	127
531.3646712018141	531.6432879818594	53	127
531.3646712018141	531.6432879818594	68	127
531.6548979591837	531.98	63	127
531.6548979591837	531.98	67	127
531.6548979591837	531.98	55	127
531.6548979591837	531.98	51	127
531.98	532.2702267573696	63	127
531.98	532.2702267573696	60	127
531.98	532.2702267573696	75	127
531.98	532.2702267573696	72	127
532.2818594104308	532.595328798186	63	127
532.2818594104308	532.595328798186	51	127
532.6069387755102	532.9204081632653	74	127
532.6069387755102	532.9204081632653	70	127
532.6069387755102	532.9204081632653	62	127
532.6069387755102	532.9204081632653	58	127
532.9320181405895	533.2338775510204	60	127
532.9320181405895	533.2338775510204	68	127
532.9320181405895	533.2338775510204	56	127
532.9320181405895	533.2338775510204	72	127
533.2454875283447	533.4312471655329	63	127
533.2454875283447	533.4312471655329	51	127
533.4428571428572	533.7214965986394	56	127
533.4428571428572	533.7214965986394	68	127
533.4428571428572	533.7214965986394	72	127
533.4428571428572	533.7214965986394	60	127
533.7331065759637	534.011746031746	58	127
533.7331065759637	534.011746031746	67	127
533.7331065759637	534.011746031746	55	127
533.7331065759637	534.011746031746	70	127
534.0233560090703	534.2671655328799	46	127
534.0233560090703	534.2671655328799	58	127
534.2787755102041	534.5341950113378	53	127
534.2787755102041	534.5341950113378	65	127
534.2787755102041	534.5341950113378	68	127
534.2787755102041	534.5341950113378	56	127
534.5458049886621	534.8360544217687	63	127
534.5458049886621	534.8360544217687	67	127
534.5458049886621	534.8360544217687	51	127
534.5458049886621	534.8360544217687	55	127
534.8360544217687	535.161133786848	58	127
534.8360544217687	535.161133786848	46	127
535.1727437641723	535.4513832199547	46	127
535.1727437641723	535.4513832199547	65	127
535.1727437641723	535.4513832199547	68	127
535.4629931972789	535.7068027210885	67	127
535.4629931972789	535.7068027210885	63	127
535.4629931972789	535.7068027210885	46	127
535.7184126984127	535.9622222222222	39	127
535.7184126984127	535.9622222222222	58	127
535.9738321995465	536.3337414965987	61	127
535.9738321995465	536.3337414965987	39	127
535.9738321995465	536.3337414965987	65	127
536.345328798186	536.6356009070295	63	127
536.345328798186	536.6356009070295	60	127
536.345328798186	536.6356009070295	39	127
536.6472108843537	536.9606575963719	27	127
536.6472108843537	536.9606575963719	51	127
536.9606575963719	537.2509297052154	58	127
536.9606575963719	537.2509297052154	39	127
536.9606575963719	537.2509297052154	61	127
537.2625396825397	537.5643990929706	63	127
537.2625396825397	537.5643990929706	27	127
537.2625396825397	537.5643990929706	60	127
537.5759863945578	537.80820861678	51	127
537.5759863945578	537.80820861678	39	127
537.8198185941043	538.0868480725624	58	127
537.8198185941043	538.0868480725624	27	127
537.8198185941043	538.0868480725624	62	127
538.0868480725624	538.377097505669	56	127
538.0868480725624	538.377097505669	60	127
538.0868480725624	538.377097505669	27	127
538.3886848072563	538.7137868480726	39	127
538.3886848072563	538.7137868480726	51	127
538.7253968253968	539.0504761904762	56	127
538.7253968253968	539.0504761904762	60	127
538.7253968253968	539.0504761904762	27	127
539.0504761904762	539.3987755102041	27	127
539.0504761904762	539.3987755102041	55	127
539.0504761904762	539.3987755102041	58	127
539.4103854875284	539.7006349206349	46	127
539.4103854875284	539.7006349206349	39	127
539.7122448979592	540.0024943310658	56	127
539.7122448979592	540.0024943310658	53	127
539.7122448979592	540.0024943310658	27	127
540.0141043083901	540.3275736961451	55	127
540.0141043083901	540.3275736961451	58	127
540.0141043083901	540.3275736961451	27	127
540.3275736961451	540.6874829931972	46	127
540.3275736961451	540.6874829931972	39	127
540.6990929705215	540.9777324263039	53	127
540.6990929705215	540.9777324263039	27	127
540.6990929705215	540.9777324263039	56	127
540.9893424036281	541.3956916099773	27	127
540.9893424036281	541.3956916099773	58	127
540.9893424036281	541.3956916099773	55	127
541.3956916099773	541.7672108843537	46	127
541.3956916099773	541.7672108843537	39	127
541.778820861678	542.1039002267573	27	127
541.778820861678	542.1039002267573	53	127
541.778820861678	542.1039002267573	56	127
542.1155102040816	542.6495691609978	55	127
542.1155102040816	542.4638095238096	27	127
542.1155102040816	542.6495691609978	46	127
542.4754195011338	542.8237188208617	39	127
542.661179138322	543.2416780045352	44	127
542.661179138322	543.2416780045352	53	127
542.835328798186	543.2416780045352	27	127
543.2532879818594	545.5520408163266	39	127
543.2532879818594	543.7292743764173	55	127
543.2532879818594	544.2401360544218	63	127
543.2532879818594	544.0775963718821	51	127
543.7292743764173	544.2401360544218	58	127
544.2401360544218	545.5520408163266	46	127
544.2401360544218	544.6000453514739	53	127
544.2401360544218	545.0180045351474	62	127
544.6000453514739	545.0180045351474	58	127
545.0180045351474	545.4475736961451	55	127
545.0180045351474	545.7726303854876	63	127
545.4475736961451	545.7726303854876	58	127
545.7726303854876	547.7231292517007	39	127
545.7726303854876	546.4692517006803	65	127
545.7726303854876	546.0861224489796	56	127
545.7726303854876	546.3067120181406	50	127
546.0861224489796	546.4692517006803	58	127
546.4692517006803	546.8639909297052	53	127
546.4692517006803	547.293560090703	62	127
546.4692517006803	547.7231292517007	46	127
546.8639909297052	547.293560090703	58	127
547.293560090703	547.8972789115646	63	127
547.293560090703	547.5373696145125	55	127
547.5373696145125	547.8972789115646	58	127
547.8972789115646	548.5242176870748	48	127
547.8972789115646	548.5242176870748	68	127
547.8972789115646	549.6852154195011	39	127
547.8972789115646	548.2223356009071	56	127
548.2223356009071	548.5242176870748	63	127
548.5242176870748	548.884126984127	58	127
548.5242176870748	549.2092063492064	67	127
548.5242176870748	549.2092063492064	46	127
548.884126984127	549.2092063492064	63	127
549.2092063492064	549.5226757369614	60	127
549.2092063492064	549.7548752834467	44	127
549.2092063492064	549.9174149659864	65	127
549.5226757369614	549.9174149659864	63	127
549.9290249433107	551.7634013605442	46	127
549.9290249433107	551.7634013605442	39	127
549.9290249433107	550.2540816326531	62	127
549.9290249433107	550.6140136054422	72	127
550.2540816326531	550.6140136054422	65	127
550.6140136054422	550.9390929705215	62	127
550.6140136054422	551.3106122448979	70	127
550.9390929705215	551.3106122448979	67	127
551.3106122448979	552.0072108843538	68	127
551.3106122448979	551.6124716553288	62	127
551.6124716553288	552.0072108843538	65	127
552.018820861678	552.8199092970522	77	127
552.018820861678	552.46	67	127
552.018820861678	553.8764172335601	39	127
552.018820861678	553.8764172335601	51	127
552.46	552.8199092970522	70	127
552.8199092970522	553.4120181405896	75	127
552.8199092970522	553.1449886621315	67	127
553.1449886621315	553.4120181405896	70	127
553.4120181405896	553.7138775510205	63	127
553.4120181405896	554.050566893424	73	127
553.7138775510205	554.050566893424	67	127
554.0621768707483	554.7471428571429	72	127
554.0621768707483	554.3407936507937	63	127
554.0621768707483	555.8733333333333	39	127
554.0621768707483	555.8733333333333	51	127
554.3407936507937	554.7471428571429	68	127
554.7471428571429	555.0374149659864	60	127
554.7471428571429	555.3624716553288	68	127
555.0374149659864	555.3624716553288	63	127
555.3624716553288	556.0707029478458	65	127
555.3624716553288	555.722403628118	56	127
555.722403628118	556.0707029478458	60	127
556.0823129251701	556.8601814058957	63	127
556.0823129251701	556.477052154195	56	127
556.0823129251701	557.4174376417234	47	127
556.0823129251701	557.4174376417234	39	127
556.477052154195	556.8601814058957	53	127
556.8601814058957	557.6264172335601	62	127
556.8601814058957	557.2317006802721	56	127
557.2317006802721	557.6264172335601	53	127
557.6264172335601	557.974739229025	46	127
557.6264172335601	558.1256689342404	63	127
557.6264172335601	557.9631292517007	55	127
557.9631292517007	558.1256689342404	51	127
558.1372789115646	559.6465759637189	59	127
558.1372789115646	558.5668480725624	56	127
558.1372789115646	558.9615873015873	39	127
558.5784580498866	558.9615873015873	53	127
558.9615873015873	559.6581632653061	38	127
558.9615873015873	559.2750566893424	56	127
559.2866666666666	559.6465759637189	53	127
559.6581632653061	560.0180952380953	55	127
559.6581632653061	560.447664399093	58	127
559.6581632653061	560.3083446712018	39	127
560.0297052154195	560.447664399093	51	127
560.4592743764173	561.8524716553288	35	127
560.4592743764173	560.8540136054422	56	127
560.4592743764173	561.8524716553288	47	127
560.4592743764173	561.109410430839	63	127
560.8540136054422	561.109410430839	53	127
561.109410430839	561.8524716553288	62	127
561.109410430839	561.504149659864	56	127
561.504149659864	561.8524716553288	53	127
561.8524716553288	562.7	46	127
561.8524716553288	562.8509297052154	63	127
561.8524716553288	562.7	34	127
561.8524716553288	562.3749206349206	55	127
562.3749206349206	562.8509297052154	51	127
562.8625396825397	563.2688888888889	56	127
562.8625396825397	563.6404081632653	39	127
562.8625396825397	564.1744444444445	59	127
563.2688888888889	563.6404081632653	53	127
563.6404081632653	564.1744444444445	38	127
563.6404081632653	563.9190476190477	56	127
563.9190476190477	564.1744444444445	53	127
564.1744444444445	564.9871428571429	58	127
564.1744444444445	564.5575963718821	55	127
564.1744444444445	564.8826757369615	39	127
564.5575963718821	564.9871428571429	51	127
564.998775510204	566.6357823129251	47	127
564.998775510204	565.8230839002267	63	127
564.998775510204	565.4631746031746	56	127
564.998775510204	566.6357823129251	35	127
565.4631746031746	565.8230839002267	53	127
565.8230839002267	566.6357823129251	62	127
565.8230839002267	566.182993197279	56	127
566.182993197279	566.6357823129251	53	127
566.6357823129251	567.2743310657596	46	127
566.6357823129251	566.9724716553288	55	127
566.6357823129251	567.2743310657596	34	127
566.6357823129251	567.4252380952381	63	127
566.9724716553288	567.4252380952381	51	127
567.4368480725624	569.0274376417234	59	127
567.4368480725624	567.8896598639456	56	127
567.4368480725624	568.1682993197279	39	127
567.4368480725624	568.1682993197279	27	127
567.8896598639456	568.1682993197279	53	127
568.1682993197279	568.5862585034014	56	127
568.1682993197279	569.0274376417234	38	127
568.1682993197279	569.0274376417234	26	127
568.5862585034014	569.0274376417234	53	127
569.0274376417234	570.6296145124717	27	127
569.0274376417234	570.6296145124717	39	127
569.0274376417234	569.8633560090703	58	127
569.0274376417234	569.3989569160998	55	127
569.3989569160998	569.8633560090703	51	127
569.8749659863946	570.2929024943311	56	127
569.8749659863946	571.5816326530612	59	127
570.2929024943311	570.6296145124717	53	127
570.6296145124717	571.5816326530612	26	127
570.6296145124717	571.128820861678	56	127
570.6296145124717	571.5816326530612	38	127
571.128820861678	571.5816326530612	53	127
571.5816326530612	573.2650793650794	27	127
571.5816326530612	571.9531519274376	55	127
571.5816326530612	572.3595011337868	58	127
571.5816326530612	573.2650793650794	39	127
571.9531519274376	572.3595011337868	51	127
572.3711111111111	572.7426077097506	47	127
572.3711111111111	574.0545578231292	56	127
572.7426077097506	573.2650793650794	53	127
573.2650793650794	573.7294784580499	47	127
573.2650793650794	574.0545578231292	38	127
573.2650793650794	574.0545578231292	26	127
573.7294784580499	574.0545578231292	53	127
574.0545578231292	576.2372108843538	27	127
574.0545578231292	576.2372108843538	39	127
574.0545578231292	575.1110657596372	55	127
574.0545578231292	574.5653968253969	46	127
574.5653968253969	575.1110657596372	51	127
575.1226757369615	577.3401814058957	56	127
575.1226757369615	575.6799546485261	47	127
575.6915646258503	576.2256009070295	53	127
576.2372108843538	576.7132426303855	47	127
576.2372108843538	577.3634013605442	26	127
576.2372108843538	577.3634013605442	38	127
576.736462585034	577.3401814058957	53	127
577.3634013605442	578.5592290249433	39	127
577.3634013605442	578.0599773242631	46	127
577.3634013605442	578.7449886621315	55	127
577.3634013605442	578.5592290249433	27	127
578.0715873015873	578.7449886621315	51	127
578.7565986394558	582.5530612244899	27	127
578.7565986394558	579.4996145124717	46	127
578.7565986394558	579.4996145124717	55	127
578.7565986394558	582.5530612244899	39	127
579.4996145124717	580.2194557823129	51	127
580.2194557823129	580.9392517006803	46	127
580.9392517006803	581.5662131519274	51	127
581.5662131519274	582.2047619047619	55	127
582.2047619047619	582.8665306122449	58	127
582.9013605442177	587.0925623582766	51	127
582.9013605442177	587.0925623582766	39	127
582.9013605442177	587.0925623582766	46	127
582.9013605442177	583.795306122449	67	127
582.9013605442177	583.795306122449	55	127
583.795306122449	584.503537414966	63	127
584.503537414966	585.2117460317461	58	127
585.2117460317461	585.9199546485261	63	127
585.9199546485261	586.6397732426304	67	127
586.6397732426304	587.417641723356	70	127
587.4292517006803	591.655283446712	75	127
587.4292517006803	591.655283446712	63	127
587.4292517006803	591.655283446712	58	127
587.4292517006803	591.655283446712	67	127
587.4292517006803	591.655283446712	51	127
587.4292517006803	591.655283446712	79	127
597.5299319727891	598.7838095238095	39	127
