# onset,offset,note,velocity
0.7538775510204082	1.9613151927437642	58	127
0.7538775510204082	1.9613151927437642	70	127
1.9613151927437642	3.0062131519274375	67	127
1.9613151927437642	3.8769614512471655	58	127
1.9613151927437642	3.0062131519274375	63	127
1.9613151927437642	3.0062131519274375	75	127
3.0062131519274375	3.8769614512471655	65	127
3.0062131519274375	3.8769614512471655	62	127
3.0062131519274375	3.8769614512471655	74	127
3.8769614512471655	4.852199546485261	63	127
3.8769614512471655	4.689659863945578	58	127
3.8769614512471655	4.852199546485261	75	127
3.8769614512471655	4.689659863945578	67	127
4.852199546485261	5.688117913832199	65	127
4.852199546485261	5.688117913832199	77	127
4.852199546485261	5.688117913832199	68	127
4.852199546485261	6.674965986394557	58	127
5.688117913832199	6.674965986394557	62	127
5.688117913832199	6.674965986394557	74	127
5.688117913832199	6.674965986394557	65	127
6.674965986394557	7.4412244897959186	67	127
6.674965986394557	7.4412244897959186	75	127
6.674965986394557	7.4412244897959186	58	127
6.674965986394557	7.4412244897959186	63	127
7.615374149659864	8.613832199546485	68	127
7.615374149659864	8.102993197278911	51	127
7.615374149659864	8.102993197278911	63	127
7.615374149659864	8.613832199546485	80	127
8.114603174603175	9.124648526077097	63	127
8.114603174603175	9.124648526077097	51	127
8.613832199546485	9.647120181405896	67	127
8.613832199546485	9.647120181405896	79	127
9.147891156462585	10.134739229024943	63	127
9.147891156462585	10.134739229024943	51	127
9.647120181405896	10.134739229024943	77	127
9.647120181405896	10.134739229024943	65	127
10.134739229024943	10.54108843537415	60	127
10.134739229024943	10.54108843537415	63	127
10.134739229024943	10.552698412698414	72	127
10.134739229024943	10.552698412698414	60	127
10.552698412698414	11.539546485260772	63	127
10.552698412698414	11.539546485260772	75	127
10.552698412698414	11.539546485260772	60	127
10.552698412698414	12.874693877551021	65	127
11.539546485260772	12.874693877551021	58	127
11.539546485260772	12.874693877551021	74	127
11.539546485260772	12.874693877551021	62	127
13.072063492063492	13.594512471655328	74	127
13.072063492063492	13.594512471655328	50	127
13.072063492063492	13.594512471655328	60	127
13.072063492063492	13.594512471655328	62	127
13.606122448979592	14.604580498866213	62	127
13.606122448979592	14.151791383219955	59	127
13.606122448979592	14.151791383219955	50	127
13.606122448979592	14.604580498866213	74	127
14.151791383219955	14.59297052154195	65	127
14.604580498866213	15.951337868480726	63	127
14.604580498866213	15.951337868480726	63	127
14.604580498866213	15.951337868480726	75	127
14.604580498866213	15.951337868480726	55	127
16.11387755102041	16.58986394557823	75	127
16.11387755102041	16.58986394557823	51	127
16.11387755102041	16.58986394557823	61	127
16.11387755102041	16.58986394557823	63	127
16.601496598639457	17.100702947845804	75	127
16.601496598639457	17.100702947845804	51	127
16.601496598639457	17.100702947845804	63	127
16.601496598639457	17.100702947845804	60	127
17.100702947845804	17.64639455782313	76	127
17.100702947845804	17.64639455782313	66	127
17.100702947845804	17.64639455782313	64	127
17.65800453514739	18.923492063492063	56	127
17.65800453514739	18.923492063492063	65	127
17.65800453514739	18.923492063492063	77	127
17.65800453514739	18.923492063492063	65	127
19.09764172335601	19.585260770975058	77	127
19.09764172335601	19.585260770975058	57	127
19.09764172335601	19.585260770975058	63	127
19.09764172335601	19.585260770975058	65	127
19.59687074829932	20.119319727891156	62	127
19.59687074829932	20.119319727891156	77	127
19.59687074829932	20.119319727891156	58	127
19.59687074829932	20.119319727891156	65	127
20.119319727891156	20.63015873015873	78	127
20.119319727891156	20.63015873015873	68	127
20.119319727891156	20.63015873015873	66	127
20.63015873015873	21.140997732426303	79	127
20.63015873015873	21.140997732426303	67	127
20.63015873015873	21.51251700680272	58	127
20.63015873015873	21.51251700680272	67	127
21.140997732426303	21.675056689342405	63	127
21.140997732426303	21.675056689342405	75	127
21.686666666666667	22.557414965986396	57	127
21.686666666666667	22.557414965986396	63	127
21.686666666666667	22.069795918367348	72	127
21.686666666666667	22.069795918367348	60	127
22.232312925170067	22.406485260770975	69	127
22.232312925170067	22.406485260770975	57	127
22.73156462585034	23.79968253968254	72	127
22.73156462585034	23.79968253968254	57	127
22.73156462585034	23.79968253968254	63	127
22.73156462585034	23.79968253968254	60	127
23.79968253968254	25.71532879818594	62	127
23.79968253968254	25.227709750566895	70	127
23.79968253968254	25.227709750566895	58	127
23.79968253968254	25.71532879818594	58	127
25.390249433106575	25.982358276643993	58	127
25.390249433106575	25.982358276643993	70	127
25.993968253968255	26.469977324263038	58	127
25.993968253968255	26.469977324263038	68	127
25.993968253968255	26.96920634920635	77	127
25.993968253968255	26.96920634920635	65	127
26.4815873015873	27.43360544217687	58	127
26.4815873015873	27.43360544217687	68	127
26.96920634920635	27.909614512471656	74	127
26.96920634920635	27.909614512471656	62	127
27.43360544217687	28.408843537414967	58	127
27.43360544217687	28.408843537414967	68	127
27.909614512471656	28.757142857142856	70	127
27.909614512471656	28.757142857142856	58	127
28.408843537414967	28.91968253968254	58	127
28.408843537414967	28.91968253968254	62	127
28.942902494331065	29.430521541950114	58	127
28.942902494331065	29.430521541950114	68	127
28.942902494331065	29.75560090702948	77	127
28.942902494331065	29.75560090702948	65	127
29.442131519274376	30.289659863945577	58	127
29.442131519274376	30.289659863945577	68	127
29.918140589569163	30.301269841269843	79	127
29.918140589569163	30.301269841269843	67	127
30.301269841269843	30.812108843537416	77	127
30.301269841269843	30.812108843537416	65	127
30.301269841269843	30.82371882086168	68	127
30.301269841269843	31.29972789115646	58	127
30.82371882086168	31.29972789115646	65	127
30.82371882086168	31.172018140589568	74	127
30.82371882086168	31.172018140589568	62	127
31.334557823129252	31.5087074829932	70	127
31.334557823129252	31.5087074829932	58	127
31.334557823129252	31.833786848072563	58	127
31.334557823129252	31.833786848072563	65	127
31.845396825396826	32.78578231292517	70	127
31.845396825396826	32.78578231292517	58	127
32.29818594104309	33.261814058956915	55	127
32.29818594104309	33.261814058956915	63	127
32.78578231292517	33.61011337868481	75	127
32.78578231292517	33.61011337868481	63	127
33.27342403628118	34.21383219954649	55	127
33.27342403628118	34.21383219954649	63	127
33.77265306122449	34.70142857142857	82	127
33.77265306122449	34.70142857142857	70	127
34.22544217687075	35.22390022675737	63	127
34.22544217687075	35.22390022675737	67	127
34.70142857142857	36.55904761904762	69	127
34.70142857142857	36.55904761904762	81	127
35.22390022675737	36.29201814058957	63	127
35.22390022675737	36.29201814058957	67	127
36.30362811791383	37.638775510204084	63	127
36.30362811791383	37.638775510204084	67	127
36.9421768707483	38.16122448979592	82	127
36.9421768707483	38.16122448979592	70	127
37.65038548752835	38.672063492063494	67	127
37.65038548752835	38.672063492063494	63	127
38.16122448979592	39.56603174603175	81	127
38.16122448979592	39.56603174603175	69	127
38.683673469387756	39.72857142857143	63	127
38.683673469387756	39.72857142857143	67	127
39.74018140589569	40.87795918367347	67	127
39.74018140589569	40.12331065759637	84	127
39.74018140589569	40.12331065759637	72	127
39.74018140589569	40.87795918367347	63	127
40.320680272108845	40.72702947845805	82	127
40.320680272108845	40.72702947845805	70	127
40.88956916099773	41.09854875283447	81	127
40.88956916099773	41.09854875283447	69	127
40.88956916099773	41.4352380952381	63	127
40.88956916099773	41.4352380952381	67	127
41.44684807256236	42.27115646258503	60	127
41.44684807256236	42.27115646258503	66	127
41.44684807256236	42.433673469387756	81	127
41.44684807256236	42.433673469387756	57	127
42.433673469387756	43.269614512471655	58	127
42.433673469387756	43.269614512471655	67	127
42.433673469387756	43.42054421768707	82	127
42.433673469387756	43.42054421768707	58	127
43.42054421768707	44.2912925170068	63	127
43.42054421768707	44.2912925170068	69	127
43.42054421768707	44.45383219954648	84	127
43.42054421768707	44.45383219954648	60	127
44.45383219954648	45.32458049886621	62	127
44.45383219954648	45.32458049886621	70	127
44.45383219954648	45.510340136054424	86	127
44.45383219954648	45.510340136054424	62	127
45.510340136054424	46.34625850340136	67	127
45.510340136054424	46.34625850340136	73	127
45.510340136054424	46.52040816326531	88	127
45.510340136054424	46.52040816326531	64	127
46.52040816326531	48.74952380952381	89	127
46.52040816326531	48.74952380952381	65	127
46.52040816326531	48.74952380952381	74	127
46.52040816326531	48.74952380952381	65	127
48.94689342403628	50.258820861678004	87	127
48.94689342403628	50.258820861678004	67	127
48.94689342403628	50.258820861678004	70	127
48.94689342403628	50.258820861678004	63	127
50.258820861678004	51.12956916099773	85	127
50.258820861678004	51.12956916099773	64	127
50.258820861678004	51.12956916099773	67	127
50.258820861678004	51.12956916099773	61	127
51.303718820861675	52.26734693877551	86	127
51.303718820861675	52.26734693877551	57	127
51.303718820861675	52.26734693877551	66	127
51.303718820861675	52.26734693877551	62	127
52.42988662131519	53.42834467120181	66	127
52.42988662131519	53.42834467120181	74	127
52.42988662131519	53.78825396825397	74	127
53.42834467120181	54.46163265306122	67	127
53.42834467120181	54.46163265306122	73	127
53.93918367346939	54.45002267573696	74	127
54.46163265306122	55.378820861678	72	127
54.46163265306122	54.960861678004534	74	127
54.46163265306122	55.378820861678	69	127
54.960861678004534	55.36721088435374	75	127
55.378820861678	56.29600907029479	71	127
55.378820861678	56.29600907029479	62	127
55.378820861678	56.62108843537415	75	127
56.29600907029479	57.07387755102041	70	127
56.29600907029479	57.07387755102041	67	127
56.783628117913835	57.22480725623583	76	127
57.23641723356009	58.13038548752834	69	127
57.23641723356009	57.7356462585034	79	127
57.23641723356009	58.13038548752834	60	127
57.7356462585034	58.11877551020408	76	127
58.13038548752834	59.0243537414966	62	127
58.13038548752834	59.349433106575965	78	127
58.13038548752834	59.0243537414966	59	127
59.0243537414966	59.98798185941043	67	127
59.0243537414966	59.98798185941043	58	127
59.50036281179138	59.97637188208617	79	127
59.98798185941043	60.87034013605442	64	127
59.98798185941043	60.87034013605442	55	127
59.98798185941043	60.87034013605442	82	127
60.87034013605442	61.65981859410431	54	127
60.87034013605442	61.65981859410431	81	127
60.87034013605442	61.65981859410431	66	127
61.82235827664399	62.17065759637188	50	127
61.82235827664399	62.17065759637188	62	127
62.182267573696144	62.48412698412698	50	127
62.182267573696144	62.48412698412698	62	127
62.48412698412698	62.7627664399093	50	127
62.48412698412698	62.7627664399093	62	127
62.77437641723356	63.02979591836735	50	127
62.77437641723356	63.02979591836735	62	127
62.77437641723356	63.02979591836735	43	127
63.04140589569161	63.36648526077097	43	127
63.04140589569161	63.36648526077097	62	127
63.04140589569161	63.36648526077097	50	127
63.37809523809524	63.67995464852608	50	127
63.37809523809524	63.67995464852608	62	127
63.37809523809524	63.67995464852608	43	127
63.69156462585034	63.935374149659864	43	127
63.69156462585034	63.935374149659864	71	127
63.69156462585034	63.935374149659864	79	127
63.69156462585034	63.935374149659864	55	127
63.69156462585034	63.935374149659864	67	127
63.94698412698413	64.2720634920635	79	127
63.94698412698413	64.2720634920635	43	127
63.94698412698413	64.2720634920635	55	127
63.94698412698413	64.2720634920635	67	127
63.94698412698413	64.2720634920635	71	127
64.2720634920635	64.5855328798186	79	127
64.2720634920635	64.5855328798186	55	127
64.2720634920635	64.5855328798186	67	127
64.2720634920635	64.5855328798186	43	127
64.2720634920635	64.5855328798186	71	127
64.59714285714286	64.88739229024944	43	127
64.59714285714286	64.88739229024944	60	127
64.59714285714286	64.88739229024944	78	127
64.59714285714286	64.88739229024944	69	127
64.59714285714286	64.88739229024944	67	127
64.88739229024944	65.20083900226757	69	127
64.88739229024944	65.20083900226757	78	127
64.88739229024944	65.20083900226757	60	127
64.88739229024944	65.20083900226757	67	127
64.88739229024944	65.20083900226757	43	127
65.20083900226757	65.46789115646258	60	127
65.20083900226757	65.46789115646258	69	127
65.20083900226757	65.46789115646258	43	127
65.20083900226757	65.46789115646258	67	127
65.20083900226757	65.46789115646258	78	127
65.47950113378685	65.76975056689342	77	127
65.47950113378685	65.76975056689342	68	127
65.47950113378685	65.76975056689342	59	127
65.47950113378685	65.76975056689342	67	127
65.47950113378685	65.76975056689342	43	127
65.78136054421769	66.0715873015873	59	127
65.78136054421769	66.0715873015873	67	127
65.78136054421769	66.0715873015873	43	127
65.78136054421769	66.0715873015873	68	127
65.78136054421769	66.0715873015873	77	127
66.08321995464853	66.36185941043084	68	127
66.08321995464853	66.36185941043084	67	127
66.08321995464853	66.36185941043084	77	127
66.08321995464853	66.36185941043084	59	127
66.08321995464853	66.36185941043084	43	127
66.36185941043084	66.6288888888889	67	127
66.36185941043084	66.6288888888889	75	127
66.36185941043084	66.6288888888889	60	127
66.36185941043084	66.6288888888889	67	127
66.36185941043084	66.6288888888889	43	127
66.6288888888889	66.91913832199546	43	127
66.6288888888889	66.91913832199546	67	127
66.6288888888889	66.91913832199546	75	127
66.6288888888889	66.91913832199546	60	127
66.6288888888889	66.91913832199546	67	127
66.93074829931973	67.20938775510204	43	127
66.93074829931973	67.20938775510204	67	127
66.93074829931973	67.20938775510204	60	127
66.93074829931973	67.20938775510204	67	127
66.93074829931973	67.20938775510204	75	127
67.22097505668934	67.51124716553288	67	127
67.22097505668934	67.51124716553288	67	127
67.22097505668934	67.51124716553288	43	127
67.22097505668934	67.51124716553288	58	127
67.22097505668934	67.51124716553288	73	127
67.52285714285715	67.83632653061224	58	127
67.52285714285715	67.83632653061224	67	127
67.52285714285715	67.83632653061224	43	127
67.52285714285715	67.83632653061224	67	127
67.52285714285715	67.83632653061224	73	127
67.84793650793651	68.1149433106576	64	127
67.84793650793651	68.1149433106576	67	127
67.84793650793651	68.1149433106576	73	127
67.84793650793651	68.1149433106576	58	127
67.84793650793651	68.1149433106576	43	127
68.1149433106576	68.4168253968254	64	127
68.1149433106576	68.4168253968254	72	127
68.1149433106576	68.4168253968254	57	127
68.1149433106576	68.4168253968254	67	127
68.1149433106576	68.4168253968254	43	127
68.4168253968254	68.71868480725624	57	127
68.4168253968254	68.71868480725624	64	127
68.4168253968254	68.71868480725624	72	127
68.4168253968254	68.71868480725624	67	127
68.4168253968254	68.71868480725624	43	127
68.7302947845805	68.97410430839003	67	127
68.7302947845805	68.97410430839003	72	127
68.7302947845805	68.97410430839003	64	127
68.7302947845805	68.97410430839003	43	127
68.7302947845805	68.97410430839003	57	127
68.98571428571428	69.22952380952381	65	127
68.98571428571428	69.22952380952381	72	127
68.98571428571428	69.22952380952381	56	127
68.98571428571428	69.22952380952381	65	127
68.98571428571428	69.22952380952381	43	127
69.24111111111111	69.55460317460317	43	127
69.24111111111111	69.55460317460317	65	127
69.24111111111111	69.55460317460317	72	127
69.24111111111111	69.55460317460317	56	127
69.24111111111111	69.55460317460317	65	127
69.56621315192744	69.86807256235828	43	127
69.56621315192744	69.86807256235828	65	127
69.56621315192744	69.86807256235828	72	127
69.56621315192744	69.86807256235828	56	127
69.56621315192744	69.86807256235828	65	127
69.86807256235828	70.13507936507936	68	127
69.86807256235828	70.13507936507936	60	127
69.86807256235828	70.13507936507936	65	127
69.86807256235828	70.13507936507936	43	127
70.14671201814059	70.44857142857143	60	127
70.14671201814059	70.44857142857143	43	127
70.14671201814059	70.44857142857143	68	127
70.14671201814059	70.44857142857143	65	127
70.44857142857143	70.75043083900226	65	127
70.44857142857143	70.75043083900226	68	127
70.44857142857143	70.75043083900226	60	127
70.44857142857143	70.75043083900226	43	127
70.76204081632653	71.01746031746032	66	127
70.76204081632653	71.01746031746032	57	127
70.76204081632653	71.01746031746032	63	127
70.76204081632653	71.01746031746032	43	127
71.02904761904762	71.35414965986395	43	127
71.02904761904762	71.35414965986395	63	127
71.02904761904762	71.35414965986395	66	127
71.02904761904762	71.35414965986395	57	127
71.35414965986395	71.62117913832199	63	127
71.35414965986395	71.62117913832199	57	127
71.35414965986395	71.62117913832199	66	127
71.35414965986395	71.62117913832199	43	127
71.63278911564626	71.8998185941043	43	127
71.63278911564626	71.8998185941043	67	127
71.63278911564626	71.8998185941043	59	127
71.63278911564626	71.8998185941043	62	127
71.91142857142857	72.22489795918368	59	127
71.91142857142857	72.22489795918368	67	127
71.91142857142857	72.22489795918368	43	127
71.91142857142857	72.22489795918368	62	127
72.22489795918368	72.50353741496599	43	127
72.22489795918368	72.50353741496599	59	127
72.22489795918368	72.50353741496599	67	127
72.22489795918368	72.50353741496599	62	127
72.50353741496599	72.7821768707483	57	127
72.50353741496599	72.7821768707483	63	127
72.50353741496599	72.7821768707483	54	127
72.50353741496599	72.7821768707483	43	127
72.7937641723356	73.04918367346939	57	127
72.7937641723356	73.04918367346939	63	127
72.7937641723356	73.04918367346939	54	127
72.7937641723356	73.04918367346939	43	127
73.06081632653061	73.37428571428572	57	127
73.06081632653061	73.37428571428572	63	127
73.06081632653061	73.37428571428572	54	127
73.06081632653061	73.37428571428572	43	127
73.37428571428572	73.59487528344671	62	127
73.37428571428572	73.59487528344671	59	127
73.37428571428572	73.59487528344671	55	127
73.37428571428572	73.59487528344671	43	127
73.60648526077098	73.91995464852607	43	127
73.60648526077098	73.91995464852607	59	127
73.60648526077098	73.91995464852607	55	127
73.60648526077098	73.91995464852607	62	127
73.93156462585034	74.23342403628118	43	127
73.93156462585034	74.23342403628118	59	127
73.93156462585034	74.23342403628118	62	127
73.93156462585034	74.23342403628118	55	127
74.23342403628118	74.5817006802721	60	127
74.23342403628118	74.5817006802721	54	127
74.23342403628118	74.5817006802721	57	127
74.23342403628118	74.5817006802721	43	127
74.59333333333333	74.89519274376417	60	127
74.59333333333333	74.89519274376417	54	127
74.59333333333333	74.89519274376417	57	127
74.59333333333333	74.89519274376417	43	127
74.90680272108844	75.197052154195	54	127
74.90680272108844	75.197052154195	60	127
74.90680272108844	75.197052154195	57	127
74.90680272108844	75.197052154195	43	127
75.20866213151928	75.5453514739229	43	127
75.20866213151928	75.5453514739229	59	127
75.20866213151928	75.5453514739229	55	127
75.20866213151928	75.5453514739229	59	127
75.55696145124716	75.88204081632654	43	127
75.55696145124716	75.88204081632654	59	127
75.55696145124716	75.88204081632654	55	127
75.55696145124716	75.88204081632654	59	127
75.89365079365079	76.27678004535147	59	127
75.89365079365079	76.27678004535147	55	127
75.89365079365079	76.27678004535147	59	127
75.89365079365079	76.27678004535147	43	127
76.28839002267574	76.85725623582766	67	127
76.28839002267574	76.85725623582766	58	127
76.28839002267574	76.86888888888889	43	127
76.28839002267574	77.75122448979592	55	127
76.28839002267574	77.75122448979592	58	127
76.56702947845805	80.20095238095239	75	127
76.86888888888889	77.40294784580499	46	127
77.40294784580499	77.9021768707483	51	127
77.9021768707483	78.38977324263038	55	127
77.9021768707483	78.40140589569161	55	127
78.40140589569161	78.87741496598639	58	127
78.40140589569161	80.20095238095239	63	127
78.87741496598639	79.23732426303854	63	127
79.24893424036281	80.20095238095239	58	127
79.24893424036281	80.20095238095239	67	127
80.20095238095239	81.1065306122449	74	127
80.20095238095239	81.1065306122449	58	127
80.20095238095239	81.1065306122449	65	127
80.20095238095239	81.1065306122449	62	127
81.1065306122449	81.80312925170068	58	127
81.1065306122449	81.80312925170068	67	127
81.1065306122449	81.97727891156462	75	127
81.1065306122449	81.97727891156462	63	127
81.97727891156462	82.87124716553288	77	127
81.97727891156462	82.87124716553288	58	127
81.97727891156462	82.87124716553288	68	127
81.97727891156462	82.87124716553288	65	127
82.87124716553288	83.69555555555556	74	127
82.87124716553288	83.69555555555556	58	127
82.87124716553288	83.69555555555556	65	127
82.87124716553288	83.69555555555556	62	127
83.69555555555556	84.51986394557824	75	127
83.69555555555556	84.51986394557824	58	127
83.69555555555556	84.51986394557824	67	127
83.69555555555556	84.51986394557824	63	127
84.70562358276644	85.13519274376418	63	127
84.70562358276644	85.13519274376418	51	127
84.70562358276644	85.59959183673469	80	127
84.70562358276644	85.59959183673469	68	127
85.14680272108843	86.05238095238096	51	127
85.14680272108843	86.05238095238096	63	127
85.59959183673469	86.51675736961451	79	127
85.59959183673469	86.51675736961451	67	127
86.06399092970521	86.94634920634921	51	127
86.06399092970521	86.94634920634921	63	127
86.51675736961451	86.94634920634921	65	127
86.51675736961451	86.94634920634921	77	127
86.94634920634921	87.42235827664399	60	127
86.94634920634921	87.41072562358276	60	127
86.94634920634921	87.41072562358276	63	127
86.94634920634921	87.42235827664399	72	127
87.42235827664399	88.47886621315193	75	127
87.42235827664399	88.47886621315193	60	127
87.42235827664399	88.47886621315193	63	127
87.42235827664399	89.29156462585034	65	127
88.47886621315193	89.29156462585034	58	127
88.47886621315193	89.75596371882087	74	127
88.47886621315193	89.75596371882087	62	127
89.46571428571428	90.22036281179139	58	127
89.46571428571428	90.22036281179139	70	127
89.91848072562358	90.37129251700681	77	127
89.91848072562358	90.37129251700681	65	127
90.37129251700681	90.87052154195011	63	127
90.37129251700681	90.87052154195011	70	127
90.37129251700681	91.26526077097506	70	127
90.37129251700681	91.26526077097506	82	127
90.88213151927438	91.75287981859411	63	127
90.88213151927438	91.75287981859411	70	127
91.26526077097506	92.17083900226757	68	127
91.26526077097506	92.17083900226757	80	127
91.76448979591837	92.17083900226757	62	127
91.76448979591837	92.65845804988662	70	127
92.17083900226757	92.65845804988662	63	127
92.17083900226757	92.65845804988662	67	127
92.17083900226757	92.65845804988662	79	127
92.67006802721089	93.12285714285714	67	127
92.67006802721089	93.12285714285714	70	127
92.67006802721089	93.13446712018141	75	127
92.67006802721089	93.13446712018141	63	127
93.13446712018141	94.0168253968254	87	127
93.13446712018141	93.58725623582767	63	127
93.13446712018141	93.58725623582767	68	127
93.13446712018141	94.0168253968254	75	127
93.59884353741496	94.48122448979592	63	127
93.59884353741496	94.48122448979592	68	127
94.0168253968254	94.91079365079365	85	127
94.0168253968254	94.91079365079365	73	127
94.49281179138322	94.8991836734694	63	127
94.49281179138322	94.8991836734694	67	127
94.91079365079365	95.20104308390023	68	127
94.91079365079365	95.35197278911565	84	127
94.91079365079365	95.35197278911565	72	127
95.20104308390023	95.52612244897959	63	127
95.3635827664399	95.87442176870748	75	127
95.3635827664399	95.87442176870748	63	127
95.52612244897959	95.86281179138322	60	127
95.87442176870748	96.83804988662132	70	127
95.87442176870748	96.21111111111111	63	127
95.87442176870748	96.83804988662132	82	127
96.21111111111111	96.55941043083901	65	127
96.55941043083901	96.82643990929705	63	127
96.83804988662132	97.32566893424037	81	127
96.83804988662132	97.17473922902494	63	127
96.83804988662132	97.32566893424037	69	127
97.17473922902494	97.51142857142857	60	127
97.33727891156462	97.85972789115647	63	127
97.33727891156462	97.85972789115647	75	127
97.51142857142857	97.8481179138322	57	127
97.85972789115647	98.88140589569161	68	127
97.85972789115647	98.20802721088435	62	127
97.85972789115647	98.88140589569161	80	127
98.20802721088435	98.53310657596371	63	127
98.53310657596371	98.86979591836734	62	127
98.88140589569161	99.20648526077098	63	127
98.88140589569161	99.33419501133787	79	127
98.88140589569161	99.33419501133787	67	127
99.20648526077098	99.50834467120181	58	127
99.34580498866214	99.82181405895692	70	127
99.34580498866214	99.82181405895692	58	127
99.50834467120181	99.81020408163265	55	127
99.82181405895692	100.19333333333333	54	127
99.82181405895692	100.66934240362812	78	127
99.82181405895692	100.66934240362812	66	127
100.19333333333333	100.50680272108843	58	127
100.50680272108843	100.84349206349206	63	127
100.85510204081632	101.1453514739229	76	127
100.85510204081632	101.1453514739229	64	127
100.85510204081632	101.41238095238096	59	127
101.24984126984127	101.48204081632653	80	127
101.24984126984127	101.48204081632653	68	127
101.41238095238096	101.98126984126984	64	127
101.5865306122449	101.87678004535148	71	127
101.5865306122449	101.87678004535148	83	127
101.9928798185941	103.6298866213152	75	127
101.9928798185941	104.08267573696145	63	127
101.9928798185941	102.82879818594104	66	127
103.02616780045352	103.56022675736962	63	127
103.56022675736962	104.08267573696145	66	127
103.64149659863945	103.7227664399093	75	127
103.7227664399093	103.80403628117914	77	127
103.80403628117914	103.89691609977324	75	127
103.89691609977324	104.0014058956916	74	127
104.0014058956916	104.08267573696145	75	127
104.08267573696145	104.62834467120182	78	127
104.08267573696145	104.62834467120182	70	127
104.08267573696145	104.98825396825397	62	127
104.62834467120182	105.13918367346939	77	127
104.62834467120182	105.13918367346939	68	127
105.15079365079364	106.11442176870749	66	127
105.15079365079364	105.67324263038549	63	127
105.15079365079364	106.11442176870749	75	127
105.15079365079364	106.11442176870749	60	127
105.15079365079364	106.11442176870749	66	127
105.68485260770976	106.2653514739229	51	127
106.2653514739229	106.86907029478458	54	127
106.86907029478458	107.43795918367347	63	127
106.86907029478458	107.4263492063492	51	127
107.43795918367347	107.9604081632653	66	127
107.9604081632653	108.55251700680272	63	127
107.9604081632653	108.58734693877551	63	127
107.9604081632653	108.04167800453514	75	127
108.04167800453514	108.13455782312926	77	127
108.13455782312926	108.26226757369615	75	127
108.26226757369615	108.44802721088435	74	127
108.44802721088435	108.58734693877551	75	127
108.58734693877551	108.81954648526077	67	127
108.58734693877551	109.07496598639456	84	127
108.58734693877551	109.07496598639456	72	127
108.92403628117914	109.14462585034013	63	127
109.07496598639456	109.57419501133786	82	127
109.07496598639456	109.57419501133786	70	127
109.2491156462585	109.4697052154195	79	127
109.57419501133786	110.06181405895691	80	127
109.57419501133786	110.06181405895691	77	127
109.57419501133786	110.06181405895691	68	127
110.06181405895691	110.54943310657596	79	127
110.06181405895691	110.54943310657596	75	127
110.06181405895691	110.54943310657596	67	127
110.54943310657596	111.00222222222222	77	127
110.54943310657596	111.00222222222222	74	127
110.54943310657596	111.00222222222222	65	127
111.00222222222222	111.50145124716553	63	127
111.00222222222222	111.48984126984126	72	127
111.00222222222222	111.50145124716553	75	127
111.50145124716553	112.00068027210884	62	127
111.50145124716553	112.00068027210884	74	127
111.50145124716553	112.49990929705216	70	127
112.01229024943311	112.49990929705216	71	127
112.01229024943311	112.49990929705216	59	127
112.49990929705216	113.33582766439909	68	127
112.49990929705216	112.99913832199546	73	127
112.49990929705216	112.99913832199546	61	127
112.99913832199546	113.47514739229025	72	127
112.99913832199546	113.47514739229025	60	127
113.48675736961451	113.70734693877552	77	127
113.48675736961451	113.70734693877552	65	127
113.48675736961451	113.97437641723356	60	127
113.81183673469388	114.04403628117913	80	127
113.81183673469388	114.04403628117913	68	127
113.97437641723356	114.47360544217688	65	127
114.1485260770975	114.38072562358276	84	127
114.1485260770975	114.38072562358276	72	127
114.47360544217688	115.11215419501134	72	127
114.47360544217688	115.11215419501134	84	127
114.47360544217688	115.11215419501134	67	127
115.11215419501134	116.07578231292517	63	127
115.11215419501134	115.6578231292517	58	127
115.11215419501134	116.07578231292517	75	127
115.6578231292517	116.08739229024944	70	127
116.08739229024944	116.21510204081633	77	127
116.08739229024944	116.21510204081633	65	127
116.08739229024944	116.58662131519274	67	127
116.08739229024944	116.58662131519274	58	127
116.21510204081633	116.34281179138323	75	127
116.21510204081633	116.34281179138323	63	127
116.34281179138323	116.47052154195012	62	127
116.34281179138323	116.47052154195012	74	127
116.47052154195012	116.58662131519274	63	127
116.47052154195012	116.58662131519274	75	127
116.58662131519274	117.10907029478459	67	127
116.58662131519274	117.10907029478459	70	127
116.58662131519274	117.10907029478459	79	127
116.58662131519274	117.10907029478459	68	127
117.10907029478459	117.74761904761905	68	127
117.10907029478459	117.74761904761905	77	127
117.10907029478459	117.74761904761905	62	127
117.10907029478459	117.74761904761905	65	127
117.75922902494331	118.25845804988663	51	127
117.75922902494331	118.58353741496599	67	127
117.75922902494331	118.58353741496599	75	127
117.75922902494331	118.58353741496599	63	127
117.75922902494331	118.75768707482993	58	127
118.00303854875284	118.75768707482993	67	127
118.7692970521542	120.22054421768708	58	127
118.7692970521542	120.22054421768708	70	127
118.7692970521542	120.22054421768708	82	127
120.22054421768708	120.62689342403628	63	127
120.22054421768708	120.62689342403628	75	127
120.22054421768708	120.62689342403628	67	127
120.63850340136054	121.4047619047619	74	127
120.63850340136054	121.4047619047619	68	127
120.63850340136054	121.4047619047619	62	127
121.55569160997733	123.0069387755102	70	127
121.55569160997733	123.0069387755102	82	127
121.55569160997733	123.0069387755102	58	127
123.0069387755102	123.47133786848073	70	127
123.0069387755102	123.47133786848073	61	127
123.0069387755102	123.47133786848073	73	127
123.47133786848073	124.44657596371881	63	127
123.47133786848073	123.94734693877551	72	127
123.47133786848073	123.94734693877551	60	127
123.94734693877551	124.8297052154195	72	127
123.94734693877551	124.8297052154195	84	127
124.44657596371881	125.13156462585034	75	127
124.84131519274376	125.74689342403629	70	127
124.84131519274376	125.74689342403629	82	127
125.29410430839002	126.06036281179138	63	127
125.75850340136054	126.2112925170068	81	127
125.75850340136054	126.2112925170068	69	127
126.22290249433107	127.44195011337868	68	127
126.22290249433107	127.16331065759637	65	127
126.22290249433107	127.44195011337868	80	127
127.16331065759637	127.95278911564625	77	127
127.5928798185941	128.11532879818594	82	127
127.5928798185941	128.11532879818594	70	127
128.1269387755102	128.80031746031747	66	127
128.1269387755102	128.80031746031747	78	127
128.1269387755102	128.63777777777779	70	127
128.63777777777779	129.12539682539682	72	127
128.80031746031747	129.12539682539682	80	127
128.80031746031747	129.12539682539682	68	127
129.1370068027211	129.96131519274377	74	127
129.1370068027211	129.96131519274377	77	127
129.1370068027211	129.96131519274377	65	127
130.12385487528346	130.4489342403628	65	127
130.12385487528346	131.4241723356009	74	127
130.12385487528346	131.08748299319728	58	127
130.46054421768707	130.7624036281179	65	127
130.77401360544218	131.07587301587301	65	127
131.08748299319728	132.82897959183674	59	127
131.08748299319728	131.4125396825397	65	127
131.08748299319728	131.4125396825397	68	127
131.4241723356009	131.72603174603174	68	127
131.4241723356009	131.72603174603174	65	127
131.57510204081632	132.06272108843538	74	127
131.737641723356	132.06272108843538	65	127
131.737641723356	132.06272108843538	68	127
132.06272108843538	132.3761904761905	68	127
132.06272108843538	132.3761904761905	65	127
132.06272108843538	132.5387074829932	74	127
132.38777777777779	132.67804988662132	65	127
132.38777777777779	132.67804988662132	68	127
132.5387074829932	132.9334693877551	75	127
132.68963718820862	132.9334693877551	65	127
132.68963718820862	132.9334693877551	68	127
132.9450566893424	133.2004761904762	69	127
132.9450566893424	133.2004761904762	65	127
132.9450566893424	133.71131519274377	60	127
132.9450566893424	134.0015873015873	75	127
133.2121088435374	133.51396825396824	69	127
133.2121088435374	133.51396825396824	65	127
133.5255782312925	133.71131519274377	69	127
133.5255782312925	133.71131519274377	65	127
133.71131519274377	135.37156462585034	61	127
133.71131519274377	134.0015873015873	65	127
133.71131519274377	134.0015873015873	70	127
134.0015873015873	134.3266439909297	65	127
134.0015873015873	134.3266439909297	70	127
134.1757142857143	134.5704761904762	76	127
134.33827664399092	134.5704761904762	65	127
134.33827664399092	134.5704761904762	70	127
134.5820634920635	135.04646258503402	79	127
134.5820634920635	134.87233560090704	65	127
134.5820634920635	134.87233560090704	70	127
134.8839455782313	135.19739229024944	70	127
134.8839455782313	135.19739229024944	65	127
135.04646258503402	135.52249433106576	76	127
135.20902494331065	135.52249433106576	70	127
135.20902494331065	135.52249433106576	65	127
135.53410430839003	136.27714285714285	62	127
135.53410430839003	136.60222222222222	77	127
135.53410430839003	135.83596371882086	65	127
135.53410430839003	135.83596371882086	70	127
135.84757369614513	136.07977324263038	70	127
135.84757369614513	136.07977324263038	65	127
136.07977324263038	136.2655328798186	65	127
136.07977324263038	136.2655328798186	70	127
136.27714285714285	136.59061224489795	70	127
136.27714285714285	136.59061224489795	68	127
136.27714285714285	137.98380952380953	63	127
136.60222222222222	136.91569160997733	70	127
136.60222222222222	136.91569160997733	68	127
136.75315192743764	137.24074829931973	78	127
136.9273015873016	137.24074829931973	68	127
136.9273015873016	137.24074829931973	70	127
137.25238095238095	137.54263038548754	68	127
137.25238095238095	137.54263038548754	70	127
137.25238095238095	137.71678004535147	78	127
137.55424036281178	137.8677097505669	68	127
137.55424036281178	137.8677097505669	70	127
137.71678004535147	138.44820861678005	79	127
137.87931972789116	138.1463492063492	67	127
137.87931972789116	138.1463492063492	70	127
138.1463492063492	138.28566893424036	70	127
138.1463492063492	138.28566893424036	67	127
138.1463492063492	138.92421768707484	61	127
138.29727891156463	138.61074829931974	67	127
138.29727891156463	138.61074829931974	70	127
138.44820861678005	138.92421768707484	79	127
138.62233560090704	138.91260770975057	65	127
138.62233560090704	138.91260770975057	70	127
138.92421768707484	139.72530612244898	60	127
138.92421768707484	139.2144671201814	64	127
138.92421768707484	139.2144671201814	70	127
138.92421768707484	139.4002267573696	84	127
139.22607709750568	139.55115646258503	64	127
139.22607709750568	139.55115646258503	70	127
139.4002267573696	139.88784580498867	79	127
139.5627664399093	139.88784580498867	64	127
139.5627664399093	139.88784580498867	70	127
139.89943310657597	140.64249433106576	80	127
139.89943310657597	140.64249433106576	65	127
139.89943310657597	140.64249433106576	68	127
139.89943310657597	140.64249433106576	53	127
140.81662131519275	142.1401814058957	60	127
140.81662131519275	142.1401814058957	72	127
140.81662131519275	142.1401814058957	84	127
142.1401814058957	142.52331065759637	77	127
142.1401814058957	142.52331065759637	68	127
142.1401814058957	142.52331065759637	65	127
142.53492063492064	143.35922902494332	64	127
142.53492063492064	143.35922902494332	76	127
142.53492063492064	143.35922902494332	70	127
143.47530612244898	144.78725623582767	84	127
143.47530612244898	144.78725623582767	60	127
143.47530612244898	144.78725623582767	72	127
144.78725623582767	145.2748752834467	75	127
144.78725623582767	145.2748752834467	72	127
144.78725623582767	145.2748752834467	63	127
145.2748752834467	146.2268934240363	65	127
145.2748752834467	145.7508843537415	73	127
145.2748752834467	145.7508843537415	61	127
145.7508843537415	146.6448299319728	73	127
145.7508843537415	146.6448299319728	85	127
146.2268934240363	146.9118820861678	77	127
146.656462585034	147.49238095238096	84	127
146.656462585034	147.49238095238096	72	127
147.07442176870748	147.84068027210884	77	127
147.50399092970522	147.98	83	127
147.50399092970522	147.98	71	127
147.99160997732426	148.96684807256236	79	127
147.99160997732426	149.1758276643991	82	127
147.99160997732426	149.1758276643991	70	127
148.96684807256236	149.6518367346939	67	127
149.31514739229024	149.8027664399093	84	127
149.31514739229024	149.8027664399093	72	127
149.8143537414966	150.4877551020408	80	127
149.8143537414966	150.31360544217688	65	127
149.8143537414966	150.4877551020408	68	127
150.31360544217688	150.81283446712018	67	127
150.4877551020408	150.81283446712018	70	127
150.4877551020408	150.81283446712018	82	127
150.82444444444445	151.6835827664399	64	127
150.82444444444445	151.6835827664399	67	127
150.82444444444445	151.6835827664399	79	127
151.8461224489796	152.96068027210885	76	127
151.8461224489796	152.14798185941044	67	127
151.8461224489796	152.6936507936508	60	127
152.14798185941044	152.438231292517	67	127
152.44984126984127	152.68201814058958	67	127
152.6936507936508	154.35387755102042	61	127
152.6936507936508	152.96068027210885	67	127
152.6936507936508	152.96068027210885	70	127
152.96068027210885	153.2392970521542	67	127
152.96068027210885	153.2392970521542	70	127
153.08836734693878	153.55278911564625	76	127
153.2509297052154	153.55278911564625	67	127
153.2509297052154	153.55278911564625	70	127
153.56439909297052	154.02879818594104	76	127
153.56439909297052	153.85462585034014	70	127
153.56439909297052	153.85462585034014	67	127
153.86625850340135	154.17972789115646	70	127
153.86625850340135	154.17972789115646	67	127
154.02879818594104	154.51639455782313	77	127
154.19133786848073	154.51639455782313	67	127
154.19133786848073	154.51639455782313	70	127
154.52802721088435	155.2710657596372	62	127
154.52802721088435	155.56131519274376	77	127
154.52802721088435	154.84149659863945	71	127
154.52802721088435	154.84149659863945	67	127
154.85310657596372	155.0272335600907	67	127
154.85310657596372	155.0272335600907	71	127
155.03886621315192	155.2710657596372	71	127
155.03886621315192	155.2710657596372	67	127
155.2710657596372	155.5497052154195	72	127
155.2710657596372	155.5497052154195	67	127
155.2710657596372	156.91965986394558	63	127
155.56131519274376	155.8515419501134	67	127
155.56131519274376	155.8515419501134	72	127
155.7006349206349	156.16503401360544	78	127
155.8631746031746	156.16503401360544	72	127
155.8631746031746	156.16503401360544	67	127
156.1766439909297	156.50172335600908	67	127
156.1766439909297	156.50172335600908	72	127
156.1766439909297	156.62943310657596	81	127
156.51331065759638	156.78036281179138	67	127
156.51331065759638	156.78036281179138	72	127
156.62943310657596	157.00095238095238	78	127
156.79197278911565	157.00095238095238	67	127
156.79197278911565	157.00095238095238	72	127
157.00095238095238	158.10390022675736	79	127
157.00095238095238	157.29120181405895	67	127
157.00095238095238	157.29120181405895	72	127
157.00095238095238	157.778820861678	64	127
157.30281179138322	157.558231292517	72	127
157.30281179138322	157.558231292517	67	127
157.56984126984128	157.76721088435374	67	127
157.56984126984128	157.76721088435374	72	127
157.778820861678	158.09229024943312	72	127
157.778820861678	158.09229024943312	70	127
157.778820861678	159.64802721088435	65	127
158.10390022675736	158.42897959183674	72	127
158.10390022675736	158.42897959183674	70	127
158.26643990929705	158.80049886621316	80	127
158.440589569161	158.80049886621316	72	127
158.440589569161	158.80049886621316	70	127
158.80049886621316	159.1255782312925	72	127
158.80049886621316	159.31133786848073	80	127
158.80049886621316	159.1255782312925	70	127
159.13718820861678	159.47387755102042	72	127
159.13718820861678	159.47387755102042	70	127
159.31133786848073	159.81056689342404	81	127
159.48548752834466	159.81056689342404	69	127
159.48548752834466	159.81056689342404	72	127
159.8221768707483	160.646485260771	66	127
159.8221768707483	160.1356462585034	69	127
159.8221768707483	160.1356462585034	72	127
160.14725623582765	160.37945578231293	72	127
160.14725623582765	160.37945578231293	69	127
160.2633560090703	160.646485260771	81	127
160.3910657596372	160.646485260771	69	127
160.3910657596372	160.646485260771	72	127
160.646485260771	160.94834467120182	72	127
160.646485260771	160.94834467120182	69	127
160.646485260771	161.0760544217687	86	127
160.646485260771	161.3314739229025	62	127
160.94834467120182	161.22698412698412	72	127
160.94834467120182	161.22698412698412	69	127
161.0760544217687	161.90036281179138	81	127
161.2385941043084	161.4824036281179	69	127
161.2385941043084	161.4824036281179	72	127
161.49401360544218	162.15578231292517	70	127
161.91197278911565	162.31832199546486	82	127
162.31832199546486	162.7130612244898	87	127
162.7130612244898	163.60702947845806	83	127
163.18907029478459	164.07142857142858	56	127
163.18907029478459	164.07142857142858	44	127
163.61861678004536	164.07142857142858	84	127
164.07142857142858	164.55904761904762	89	127
164.07142857142858	164.83768707482994	53	127
164.07142857142858	164.83768707482994	41	127
164.55904761904762	165.34852607709752	85	127
165.34852607709752	165.80131519274377	62	127
165.34852607709752	165.80131519274377	86	127
165.34852607709752	165.80131519274377	74	127
165.80131519274377	166.1960544217687	59	127
165.80131519274377	166.1960544217687	91	127
165.80131519274377	166.1960544217687	79	127
166.1960544217687	166.6720634920635	86	127
166.1960544217687	166.6720634920635	74	127
166.1960544217687	166.6720634920635	65	127
166.6836507936508	167.0203628117914	87	127
166.6836507936508	167.0203628117914	75	127
166.6836507936508	167.0203628117914	63	127
167.19448979591837	167.357052154195	88	127
167.19448979591837	167.357052154195	76	127
167.19448979591837	167.357052154195	61	127
167.68213151927438	168.4715873015873	89	127
167.68213151927438	168.4715873015873	77	127
167.68213151927438	168.4715873015873	60	127
168.63414965986394	169.47006802721089	90	127
168.63414965986394	169.47006802721089	78	127
168.63414965986394	169.47006802721089	48	127
169.63260770975057	170.1202267573696	55	127
169.63260770975057	170.1202267573696	91	127
169.63260770975057	170.1202267573696	79	127
176.9468934240363	178.258820861678	50	127
178.258820861678	178.59548752834468	51	127
178.59548752834468	178.99024943310658	47	127
179.00183673469388	179.8725850340136	50	127
179.8725850340136	180.63884353741497	48	127
179.8725850340136	180.99875283446713	67	127
180.7085260770975	182.64739229024943	60	127
180.99875283446713	181.30063492063493	69	127
181.30063492063493	181.62571428571428	64	127
181.63732426303855	182.64739229024943	67	127
182.64739229024943	183.50650793650794	66	127
182.64739229024943	183.50650793650794	57	127
182.64739229024943	184.02897959183673	72	127
183.68068027210884	184.040589569161	51	127
183.68068027210884	185.7356462585034	78	127
184.02897959183673	184.3540589569161	74	127
184.19151927437642	184.3540589569161	48	127
184.3540589569161	184.69074829931972	69	127
184.702358276644	185.56149659863945	43	127
184.702358276644	186.03750566893424	72	127
185.7356462585034	186.18843537414966	74	127
186.46705215419502	186.69927437641724	71	127
186.46705215419502	186.69927437641724	67	127
186.46705215419502	186.69927437641724	43	127
186.7108843537415	187.19850340136054	72	127
186.7108843537415	187.19850340136054	69	127
186.7108843537415	187.19850340136054	55	127
187.45392290249433	187.74414965986395	74	127
187.45392290249433	187.74414965986395	71	127
187.45392290249433	187.74414965986395	53	127
187.74414965986395	188.20854875283447	75	127
187.74414965986395	188.20854875283447	72	127
187.74414965986395	188.20854875283447	51	127
188.45238095238096	188.67297052154194	74	127
188.45238095238096	188.67297052154194	74	127
188.45238095238096	188.67297052154194	55	127
188.6845804988662	189.17219954648527	75	127
188.6845804988662	189.17219954648527	72	127
188.6845804988662	189.17219954648527	48	127
189.4392290249433	189.68303854875285	60	127
189.4392290249433	189.68303854875285	76	127
189.4392290249433	189.68303854875285	60	127
189.6946485260771	190.1474149659864	77	127
189.6946485260771	190.1474149659864	72	127
189.6946485260771	190.1474149659864	48	127
190.36802721088435	190.62344671201814	78	127
190.36802721088435	190.62344671201814	72	127
190.36802721088435	190.62344671201814	48	127
190.6350566893424	191.14589569160998	79	127
190.6350566893424	191.14589569160998	71	127
190.6350566893424	191.14589569160998	55	127
191.37809523809523	191.62190476190477	55	127
191.37809523809523	191.62190476190477	65	127
191.37809523809523	191.62190476190477	79	127
191.37809523809523	191.62190476190477	67	127
191.633514739229	192.2024036281179	65	127
191.633514739229	192.2024036281179	67	127
191.633514739229	192.2024036281179	79	127
191.633514739229	192.2024036281179	55	127
192.46943310657596	192.69002267573697	55	127
192.46943310657596	192.69002267573697	65	127
192.46943310657596	192.69002267573697	67	127
192.46943310657596	192.69002267573697	79	127
192.7016326530612	193.10798185941044	67	127
192.7016326530612	193.10798185941044	79	127
192.7016326530612	193.10798185941044	55	127
192.7016326530612	193.10798185941044	65	127
193.42145124716552	193.6536507936508	55	127
193.42145124716552	193.6536507936508	65	127
193.42145124716552	193.6536507936508	67	127
193.42145124716552	193.6536507936508	79	127
193.66526077097507	194.17609977324264	67	127
193.66526077097507	194.17609977324264	79	127
193.66526077097507	194.17609977324264	55	127
193.66526077097507	194.17609977324264	65	127
194.45473922902494	194.71015873015872	79	127
194.45473922902494	194.71015873015872	55	127
194.45473922902494	194.71015873015872	67	127
194.45473922902494	194.71015873015872	64	127
194.721768707483	195.17455782312925	67	127
194.721768707483	195.17455782312925	79	127
194.721768707483	195.17455782312925	55	127
194.721768707483	195.17455782312925	64	127
194.721768707483	195.99886621315193	55	127
195.41836734693877	195.6621768707483	64	127
195.41836734693877	195.6621768707483	67	127
195.41836734693877	195.6621768707483	79	127
195.41836734693877	195.6621768707483	55	127
195.67378684807255	196.14979591836735	55	127
195.67378684807255	196.14979591836735	64	127
195.67378684807255	196.14979591836735	79	127
195.67378684807255	196.14979591836735	67	127
195.99886621315193	196.3239455782313	57	127
196.3239455782313	196.62580498866214	52	127
196.40521541950113	196.62580498866214	55	127
196.40521541950113	196.62580498866214	67	127
196.40521541950113	196.62580498866214	79	127
196.40521541950113	196.62580498866214	64	127
196.63741496598638	197.14825396825398	79	127
196.63741496598638	197.14825396825398	67	127
196.63741496598638	197.14825396825398	55	127
196.63741496598638	197.6707029478458	55	127
196.63741496598638	197.14825396825398	64	127
197.3920634920635	197.65909297052156	79	127
197.3920634920635	197.65909297052156	55	127
197.3920634920635	197.65909297052156	63	127
197.3920634920635	197.65909297052156	67	127
197.6707029478458	200.14362811791383	54	127
197.6707029478458	198.1118820861678	67	127
197.6707029478458	198.1118820861678	79	127
197.6707029478458	198.1118820861678	55	127
197.6707029478458	198.1118820861678	63	127
198.3673015873016	198.6459410430839	63	127
198.3673015873016	198.6459410430839	67	127
198.3673015873016	198.6459410430839	79	127
198.3673015873016	198.6459410430839	55	127
198.65755102040816	199.19160997732428	79	127
198.65755102040816	199.19160997732428	55	127
198.65755102040816	199.19160997732428	63	127
198.65755102040816	199.19160997732428	67	127
199.44702947845806	199.66761904761904	67	127
199.44702947845806	199.66761904761904	79	127
199.44702947845806	199.66761904761904	55	127
199.44702947845806	199.66761904761904	63	127
199.6792290249433	200.14362811791383	79	127
199.6792290249433	200.14362811791383	55	127
199.6792290249433	200.14362811791383	63	127
199.6792290249433	200.14362811791383	67	127
200.4338775510204	200.6544671201814	67	127
200.4338775510204	200.6544671201814	79	127
200.4338775510204	200.6544671201814	55	127
200.4338775510204	200.6544671201814	62	127
200.4338775510204	200.6544671201814	43	127
200.66607709750568	201.10725623582766	67	127
200.66607709750568	201.10725623582766	79	127
200.66607709750568	201.10725623582766	55	127
200.66607709750568	201.10725623582766	62	127
200.66607709750568	201.10725623582766	55	127
201.33945578231294	201.58326530612246	67	127
201.33945578231294	201.58326530612246	79	127
201.33945578231294	201.58326530612246	55	127
201.33945578231294	201.58326530612246	67	127
201.33945578231294	201.58326530612246	55	127
201.59487528344673	202.05927437641722	67	127
201.59487528344673	202.05927437641722	79	127
201.59487528344673	202.05927437641722	55	127
201.59487528344673	202.05927437641722	67	127
201.59487528344673	202.05927437641722	67	127
202.32630385487528	202.58172335600906	67	127
202.32630385487528	202.58172335600906	79	127
202.32630385487528	202.58172335600906	55	127
202.32630385487528	202.58172335600906	67	127
202.32630385487528	202.58172335600906	65	127
202.58172335600906	203.03451247165532	79	127
202.58172335600906	203.03451247165532	67	127
202.58172335600906	203.03451247165532	55	127
202.58172335600906	203.03451247165532	67	127
202.58172335600906	203.03451247165532	63	127
203.2899319727891	203.49891156462584	55	127
203.2899319727891	203.49891156462584	67	127
203.2899319727891	203.49891156462584	67	127
203.2899319727891	203.49891156462584	67	127
203.2899319727891	203.49891156462584	79	127
203.5105215419501	203.99814058956918	67	127
203.5105215419501	203.99814058956918	79	127
203.5105215419501	203.99814058956918	55	127
203.5105215419501	203.99814058956918	67	127
203.5105215419501	203.99814058956918	63	127
204.2651700680272	204.56702947845804	67	127
204.2651700680272	204.56702947845804	79	127
204.2651700680272	204.56702947845804	60	127
204.2651700680272	204.56702947845804	72	127
204.2651700680272	204.56702947845804	60	127
204.5786394557823	205.06625850340137	67	127
204.5786394557823	205.06625850340137	79	127
204.5786394557823	205.06625850340137	60	127
204.5786394557823	205.06625850340137	72	127
204.5786394557823	205.06625850340137	48	127
205.3100680272109	205.5306575963719	67	127
205.3100680272109	205.5306575963719	79	127
205.3100680272109	205.5306575963719	60	127
205.3100680272109	205.5306575963719	72	127
205.3100680272109	205.5306575963719	48	127
205.54226757369614	206.73809523809524	74	127
205.54226757369614	206.00666666666666	67	127
205.54226757369614	206.00666666666666	79	127
205.54226757369614	206.00666666666666	55	127
206.7497052154195	206.98190476190476	71	127
207.07478458049886	207.2837641723356	72	127
207.3766439909297	207.5740136054422	74	127
207.67850340136056	207.9107029478458	76	127
208.02680272108844	208.2590022675737	77	127
208.3867120181406	209.33873015873016	78	127
208.3867120181406	209.640589569161	74	127
209.33873015873016	210.16303854875284	79	127
209.65219954648526	209.8843990929705	71	127
209.98888888888888	210.24430839002267	72	127
210.34879818594104	210.5809977324263	74	127
210.65065759637187	210.8596371882086	75	127
210.97573696145125	211.2079365079365	79	127
211.3356462585034	212.63596371882088	74	127
211.3356462585034	212.33410430839	80	127
212.33410430839	213.14680272108845	81	127
212.63596371882088	212.8797732426304	71	127
212.9726530612245	213.20485260770974	72	127
213.3093424036281	213.55315192743765	74	127
213.5995918367347	213.84340136054422	78	127
213.9478911564626	214.1917006802721	81	127
214.30780045351474	215.36430839002267	82	127
214.30780045351474	215.67777777777778	62	127
214.30780045351474	215.67777777777778	74	127
215.36430839002267	216.11895691609976	83	127
215.68938775510205	215.85192743764173	71	127
215.68938775510205	215.85192743764173	59	127
215.94480725623583	216.18861678004535	62	127
215.94480725623583	216.18861678004535	74	127
216.24666666666667	216.4556462585034	77	127
216.24666666666667	216.4556462585034	65	127
216.5833560090703	216.8619954648526	83	127
216.5833560090703	216.8619954648526	62	127
216.97809523809525	217.22190476190477	86	127
216.97809523809525	217.22190476190477	55	127
217.37283446712019	217.7791836734694	88	127
217.37283446712019	217.7791836734694	36	127
217.91850340136054	218.0229931972789	67	127
217.91850340136054	218.15070294784582	55	127
217.91850340136054	218.0229931972789	79	127
218.03460317460318	218.15070294784582	67	127
218.03460317460318	218.15070294784582	79	127
218.15070294784582	218.45256235827665	67	127
218.15070294784582	218.45256235827665	79	127
218.15070294784582	218.45256235827665	60	127
218.62671201814058	218.70798185941044	55	127
218.62671201814058	218.70798185941044	67	127
218.70798185941044	218.74281179138322	55	127
218.70798185941044	218.74281179138322	67	127
218.74281179138322	219.04467120181405	55	127
218.74281179138322	219.04467120181405	67	127
219.1839909297052	219.3117006802721	43	127
219.32331065759638	219.6367800453515	36	127
219.82253968253968	219.96185941043083	55	127
219.82253968253968	219.880589569161	67	127
219.82253968253968	219.880589569161	79	127
219.89219954648527	219.96185941043083	79	127
219.89219954648527	219.96185941043083	67	127
219.96185941043083	220.24049886621316	67	127
219.96185941043083	220.24049886621316	79	127
219.96185941043083	220.24049886621316	60	127
220.39142857142858	220.4726984126984	55	127
220.39142857142858	220.4726984126984	67	127
220.4726984126984	220.542358276644	55	127
220.4726984126984	220.542358276644	67	127
220.55396825396826	220.84421768707483	67	127
220.55396825396826	220.84421768707483	55	127
220.99514739229025	221.204126984127	48	127
221.23895691609977	221.5175963718821	36	127
221.64530612244897	221.72657596371883	72	127
221.64530612244897	221.72657596371883	84	127
221.64530612244897	221.7962358276644	60	127
221.72657596371883	221.7962358276644	72	127
221.72657596371883	221.7962358276644	84	127
221.7962358276644	222.12131519274377	72	127
221.7962358276644	222.12131519274377	60	127
221.7962358276644	222.12131519274377	84	127
222.28385487528345	222.36512471655328	60	127
222.28385487528345	222.43478458049887	48	127
222.37673469387755	222.43478458049887	60	127
222.44639455782314	222.74825396825398	60	127
222.44639455782314	222.74825396825398	48	127
222.8991836734694	223.06172335600908	48	127
223.06172335600908	223.31714285714287	36	127
223.47968253968253	223.5609523809524	84	127
223.47968253968253	223.5609523809524	72	127
223.47968253968253	223.6190022675737	60	127
223.57256235827666	223.6190022675737	84	127
223.57256235827666	223.6190022675737	72	127
223.63061224489795	223.90925170068027	72	127
223.63061224489795	223.90925170068027	84	127
223.63061224489795	223.90925170068027	60	127
224.04857142857142	224.1878911564626	48	127
224.04857142857142	224.09501133786847	60	127
224.10662131519274	224.1878911564626	60	127
224.1878911564626	224.44331065759638	60	127
224.1878911564626	224.44331065759638	48	127
224.6174603174603	224.76839002267573	48	127
224.6174603174603	224.6871201814059	76	127
224.6174603174603	224.6871201814059	64	127
224.6871201814059	224.76839002267573	76	127
224.6871201814059	224.76839002267573	64	127
224.78	225.04702947845806	45	127
224.78	225.04702947845806	64	127
224.78	225.04702947845806	76	127
225.16312925170067	225.221179138322	57	127
225.23278911564626	225.29083900226757	57	127
225.30244897959184	225.61591836734695	57	127
225.76684807256237	225.85972789115647	69	127
225.76684807256237	225.85972789115647	81	127
225.85972789115647	225.9409977324263	81	127
225.85972789115647	225.9409977324263	69	127
225.9409977324263	226.2312471655329	81	127
225.9409977324263	226.2312471655329	45	127
225.9409977324263	226.2312471655329	69	127
226.3821768707483	226.46344671201814	57	127
226.4750566893424	226.54471655328797	57	127
226.55632653061224	226.85818594104308	62	127
226.55632653061224	226.85818594104308	38	127
227.0439455782313	227.11360544217686	74	127
227.12521541950113	227.20648526077096	74	127
227.20648526077096	227.51995464852607	79	127
227.20648526077096	227.51995464852607	67	127
227.68249433106575	227.7289342403628	67	127
227.68249433106575	227.7289342403628	55	127
227.7289342403628	227.78698412698412	67	127
227.7289342403628	227.78698412698412	55	127
227.7985941043084	228.1120634920635	55	127
227.7985941043084	228.1120634920635	43	127
227.7985941043084	228.1120634920635	67	127
228.30943310657597	228.36748299319729	67	127
228.30943310657597	228.36748299319729	79	127
228.37909297052155	228.43714285714285	67	127
228.37909297052155	228.43714285714285	79	127
228.44875283446711	228.7738321995465	67	127
228.44875283446711	228.7738321995465	79	127
228.44875283446711	228.7738321995465	36	127
228.91315192743764	228.9595918367347	55	127
228.9595918367347	229.04086167800455	55	127
229.04086167800455	229.37755102040816	60	127
229.04086167800455	229.37755102040816	64	127
229.55170068027212	229.6097505668934	60	127
229.55170068027212	229.6097505668934	64	127
229.62136054421768	229.679410430839	60	127
229.62136054421768	229.679410430839	64	127
229.69102040816327	230.00448979591837	60	127
229.69102040816327	230.00448979591837	66	127
229.69102040816327	230.00448979591837	45	127
230.16702947845806	230.2482993197279	60	127
230.16702947845806	230.2482993197279	66	127
230.2482993197279	230.31795918367348	66	127
230.2482993197279	230.31795918367348	60	127
230.31795918367348	230.60820861678005	59	127
230.31795918367348	230.60820861678005	67	127
230.31795918367348	230.60820861678005	43	127
230.7475283446712	230.82879818594105	67	127
230.7475283446712	230.82879818594105	79	127
230.8404081632653	230.91006802721088	79	127
230.8404081632653	230.91006802721088	67	127
230.92167800453515	231.30480725623582	79	127
230.92167800453515	231.30480725623582	67	127
231.47895691609978	231.5370068027211	67	127
231.47895691609978	231.5370068027211	55	127
231.54861678004536	231.6298866213152	67	127
231.54861678004536	231.6298866213152	55	127
231.6298866213152	231.88530612244898	55	127
231.6298866213152	231.88530612244898	67	127
231.6298866213152	231.88530612244898	43	127
232.04784580498867	232.1291156462585	67	127
232.04784580498867	232.21038548752836	43	127
232.1291156462585	232.21038548752836	67	127
232.2219954648526	232.6051247165533	72	127
232.2219954648526	232.6051247165533	76	127
232.2219954648526	232.6051247165533	36	127
232.74444444444444	232.89537414965986	55	127
232.74444444444444	232.81410430839003	67	127
232.74444444444444	232.81410430839003	79	127
232.8257142857143	232.89537414965986	79	127
232.8257142857143	232.89537414965986	67	127
232.90698412698413	233.22045351473923	67	127
232.90698412698413	233.22045351473923	79	127
232.90698412698413	233.22045351473923	60	127
233.40621315192743	233.46426303854875	55	127
233.40621315192743	233.46426303854875	67	127
233.46426303854875	233.53392290249434	67	127
233.46426303854875	233.53392290249434	55	127
233.53392290249434	233.81256235827664	55	127
233.53392290249434	233.81256235827664	67	127
233.97510204081632	234.12603174603174	43	127
234.137641723356	234.43950113378685	36	127
234.5556009070295	234.63687074829932	67	127
234.5556009070295	234.63687074829932	79	127
234.5556009070295	234.7065306122449	55	127
234.63687074829932	234.7065306122449	79	127
234.63687074829932	234.7065306122449	67	127
234.7065306122449	234.97356009070296	67	127
234.7065306122449	234.97356009070296	79	127
234.7065306122449	234.97356009070296	60	127
235.15931972789116	235.22897959183675	67	127
235.15931972789116	235.22897959183675	55	127
235.240589569161	235.31024943310658	55	127
235.240589569161	235.31024943310658	67	127
235.32185941043085	235.67015873015873	55	127
235.32185941043085	235.67015873015873	67	127
235.32185941043085	235.67015873015873	48	127
235.9952380952381	236.30870748299319	46	127
235.9952380952381	236.30870748299319	58	127
236.4364172335601	236.48285714285714	70	127
236.4364172335601	236.48285714285714	82	127
236.4364172335601	236.56412698412697	58	127
236.48285714285714	236.56412698412697	82	127
236.48285714285714	236.56412698412697	70	127
236.57573696145124	236.90081632653062	70	127
236.57573696145124	236.90081632653062	63	127
236.57573696145124	236.90081632653062	82	127
237.0633560090703	237.13301587301586	58	127
237.14462585034013	237.19106575963718	58	127
237.20267573696145	237.5045351473923	58	127
237.6554648526077	237.8180045351474	46	127
237.8180045351474	238.0966439909297	58	127
237.8180045351474	238.0966439909297	46	127
238.25918367346938	238.35206349206348	70	127
238.25918367346938	238.35206349206348	82	127
238.25918367346938	238.43333333333334	58	127
238.36367346938775	238.43333333333334	82	127
238.36367346938775	238.43333333333334	70	127
238.4449433106576	238.7235827664399	70	127
238.4449433106576	238.7235827664399	82	127
238.4449433106576	238.7235827664399	63	127
238.8512925170068	238.90934240362813	58	127
238.92095238095237	238.99061224489796	58	127
238.99061224489796	239.25764172335602	58	127
239.44340136054421	239.59433106575963	63	127
239.44340136054421	239.59433106575963	51	127
239.6059410430839	239.89619047619047	56	127
239.6059410430839	239.89619047619047	44	127
240.05873015873016	240.16321995464853	56	127
240.05873015873016	240.12839002267575	75	127
240.14	240.16321995464853	75	127
240.1748299319728	240.47668934240363	63	127
240.1748299319728	240.47668934240363	72	127
240.1748299319728	240.47668934240363	75	127
240.61600907029478	240.73210884353742	44	127
240.61600907029478	240.6740589569161	63	127
240.6740589569161	240.73210884353742	63	127
240.7437188208617	241.03396825396825	55	127
240.7437188208617	241.03396825396825	63	127
240.7437188208617	241.03396825396825	51	127
241.1732879818594	241.31260770975058	63	127
241.1732879818594	241.31260770975058	51	127
241.31260770975058	241.53319727891156	56	127
241.31260770975058	241.53319727891156	44	127
241.70734693877552	241.85827664399093	56	127
241.70734693877552	241.77700680272108	75	127
241.77700680272108	241.85827664399093	75	127
241.85827664399093	242.19496598639455	63	127
241.85827664399093	242.19496598639455	72	127
241.85827664399093	242.19496598639455	75	127
242.35750566893424	242.47360544217688	44	127
242.35750566893424	242.39233560090702	63	127
242.4039455782313	242.47360544217688	63	127
242.48521541950115	242.7754648526077	55	127
242.48521541950115	242.7754648526077	63	127
242.48521541950115	242.7754648526077	51	127
242.94961451247167	243.1237641723356	39	127
242.94961451247167	243.1237641723356	63	127
243.1237641723356	243.2514739229025	36	127
243.1237641723356	243.41401360544216	55	127
243.1237641723356	243.41401360544216	64	127
243.1237641723356	243.41401360544216	43	127
243.18181405895692	243.41401360544216	52	127
243.61138321995466	243.70426303854876	72	127
243.61138321995466	243.70426303854876	84	127
243.61138321995466	243.77392290249432	55	127
243.70426303854876	243.77392290249432	72	127
243.70426303854876	243.77392290249432	84	127
243.7855328798186	244.06417233560092	72	127
243.7855328798186	244.06417233560092	84	127
243.7855328798186	244.06417233560092	60	127
244.18027210884352	244.3195918367347	48	127
244.18027210884352	244.23832199546484	72	127
244.18027210884352	244.23832199546484	60	127
244.2499319727891	244.3195918367347	60	127
244.2499319727891	244.3195918367347	72	127
244.33120181405894	244.60984126984127	60	127
244.33120181405894	244.60984126984127	72	127
244.33120181405894	244.60984126984127	48	127
244.78399092970523	244.93492063492064	72	127
244.78399092970523	244.93492063492064	60	127
244.78399092970523	244.93492063492064	36	127
244.93492063492064	245.2251700680272	60	127
244.93492063492064	245.2251700680272	72	127
244.93492063492064	245.2251700680272	36	127
245.35287981859412	245.39931972789117	72	127
245.35287981859412	245.39931972789117	84	127
245.4109297052154	245.480589569161	84	127
245.4109297052154	245.480589569161	72	127
245.49219954648527	245.7940589569161	72	127
245.49219954648527	245.7940589569161	84	127
245.49219954648527	245.7940589569161	48	127
245.49219954648527	245.63151927437642	41	127
245.56185941043083	245.7940589569161	57	127
245.93337868480725	245.99142857142857	72	127
245.93337868480725	245.99142857142857	60	127
245.93337868480725	246.06108843537416	60	127
245.99142857142857	246.06108843537416	60	127
245.99142857142857	246.06108843537416	72	127
246.06108843537416	246.362947845805	65	127
246.06108843537416	246.362947845805	60	127
246.06108843537416	246.362947845805	72	127
246.5138775510204	246.6996371882086	72	127
246.5138775510204	246.6996371882086	60	127
246.5138775510204	246.6996371882086	48	127
246.5138775510204	246.6996371882086	60	127
246.5138775510204	246.6996371882086	41	127
246.71124716553288	247.01310657596372	42	127
246.71124716553288	247.01310657596372	72	127
246.71124716553288	247.01310657596372	48	127
246.71124716553288	247.01310657596372	60	127
246.71124716553288	247.01310657596372	60	127
247.1756462585034	247.24530612244897	48	127
247.1756462585034	247.24530612244897	60	127
247.1756462585034	247.31496598639455	43	127
247.1756462585034	247.24530612244897	72	127
247.1756462585034	247.24530612244897	84	127
247.25691609977324	247.31496598639455	84	127
247.25691609977324	247.31496598639455	60	127
247.25691609977324	247.31496598639455	72	127
247.25691609977324	247.31496598639455	48	127
247.31496598639455	247.5239455782313	48	127
247.31496598639455	247.5239455782313	72	127
247.31496598639455	247.5239455782313	84	127
247.31496598639455	247.5239455782313	60	127
247.31496598639455	247.7677551020408	44	127
247.5239455782313	247.7097052154195	72	127
247.5239455782313	247.7097052154195	48	127
247.5239455782313	247.7097052154195	60	127
247.5239455782313	247.7097052154195	60	127
247.7097052154195	247.9302947845805	60	127
247.7097052154195	247.9302947845805	72	127
247.7097052154195	247.9302947845805	48	127
247.7097052154195	247.9302947845805	60	127
247.94190476190477	248.1508843537415	48	127
247.94190476190477	248.1508843537415	60	127
247.94190476190477	248.1508843537415	72	127
247.94190476190477	248.1508843537415	60	127
247.94190476190477	248.44113378684807	43	127
248.1508843537415	248.38308390022675	72	127
248.1508843537415	248.38308390022675	60	127
248.1508843537415	248.38308390022675	60	127
248.1508843537415	248.38308390022675	48	127
248.39469387755102	248.61528344671203	60	127
248.39469387755102	248.61528344671203	72	127
248.39469387755102	248.61528344671203	48	127
248.39469387755102	248.61528344671203	60	127
248.62689342403627	248.94036281179137	60	127
248.62689342403627	248.94036281179137	72	127
248.62689342403627	248.94036281179137	48	127
248.62689342403627	248.94036281179137	60	127
248.62689342403627	248.94036281179137	42	127
249.1261224489796	249.20739229024943	84	127
249.1261224489796	249.20739229024943	72	127
249.1261224489796	249.2886621315193	43	127
249.1261224489796	249.20739229024943	60	127
249.1261224489796	249.20739229024943	48	127
249.20739229024943	249.2886621315193	48	127
249.20739229024943	249.2886621315193	60	127
249.20739229024943	249.2886621315193	72	127
249.20739229024943	249.2886621315193	84	127
249.2886621315193	249.4395918367347	60	127
249.2886621315193	249.4395918367347	48	127
249.2886621315193	249.4395918367347	84	127
249.2886621315193	249.4395918367347	72	127
249.2886621315193	249.66018140589568	44	127
249.45120181405895	249.60213151927437	60	127
249.45120181405895	249.60213151927437	72	127
249.45120181405895	249.60213151927437	48	127
249.45120181405895	249.60213151927437	60	127
249.61374149659864	249.79950113378686	72	127
249.61374149659864	249.79950113378686	48	127
249.61374149659864	249.79950113378686	60	127
249.61374149659864	249.79950113378686	60	127
249.8111111111111	250.00848072562357	60	127
249.8111111111111	250.00848072562357	72	127
249.8111111111111	250.00848072562357	48	127
249.8111111111111	250.00848072562357	60	127
249.8111111111111	250.29873015873017	43	127
250.02009070294784	250.25229024943312	60	127
250.02009070294784	250.25229024943312	72	127
250.02009070294784	250.25229024943312	48	127
250.02009070294784	250.25229024943312	60	127
250.25229024943312	250.4728798185941	60	127
250.25229024943312	250.4728798185941	72	127
250.25229024943312	250.4728798185941	48	127
250.25229024943312	250.4728798185941	60	127
250.4728798185941	250.7863492063492	60	127
250.4728798185941	250.7863492063492	72	127
250.4728798185941	250.7863492063492	48	127
250.4728798185941	250.7863492063492	60	127
250.4728798185941	250.7863492063492	42	127
250.96049886621316	251.11142857142858	60	127
250.96049886621316	251.11142857142858	72	127
250.96049886621316	251.11142857142858	48	127
250.96049886621316	251.11142857142858	60	127
250.96049886621316	251.11142857142858	41	127
251.12303854875285	251.5758276643991	72	127
251.12303854875285	251.5758276643991	60	127
251.12303854875285	251.5758276643991	48	127
251.12303854875285	251.5758276643991	60	127
251.12303854875285	251.5758276643991	40	127
251.72675736961452	252.04022675736962	60	127
251.72675736961452	252.04022675736962	72	127
251.72675736961452	252.04022675736962	48	127
251.72675736961452	252.04022675736962	60	127
251.72675736961452	252.04022675736962	45	127
252.2027664399093	252.34208616780046	60	127
252.2027664399093	252.34208616780046	72	127
252.2027664399093	252.34208616780046	48	127
252.2027664399093	252.34208616780046	60	127
252.2027664399093	252.34208616780046	45	127
252.35369614512473	252.63233560090703	60	127
252.35369614512473	252.63233560090703	72	127
252.35369614512473	252.63233560090703	48	127
252.35369614512473	252.63233560090703	60	127
252.35369614512473	252.63233560090703	43	127
252.93419501133786	253.25927437641724	55	127
252.93419501133786	253.25927437641724	67	127
252.93419501133786	253.25927437641724	55	127
252.93419501133786	253.25927437641724	43	127
253.43342403628117	253.59596371882085	43	127
253.59596371882085	253.8629931972789	55	127
253.59596371882085	253.8629931972789	67	127
253.59596371882085	253.8629931972789	55	127
253.59596371882085	253.8629931972789	43	127
254.0255328798186	254.19968253968253	43	127
254.2112925170068	255.0239909297052	50	127
254.2112925170068	255.0239909297052	62	127
254.2112925170068	254.53637188208617	42	127
254.67569160997732	254.838231292517	43	127
254.838231292517	255.26780045351475	44	127
255.0239909297052	255.23297052154194	50	127
255.0239909297052	255.23297052154194	62	127
255.23297052154194	255.4303401360544	52	127
255.23297052154194	255.4303401360544	64	127
255.44195011337868	255.5928798185941	53	127
255.44195011337868	255.5928798185941	65	127
255.44195011337868	255.8831292517007	43	127
255.60448979591837	255.82507936507938	63	127
255.60448979591837	255.82507936507938	51	127
255.94117913832198	256.0688662131519	62	127
255.94117913832198	256.0688662131519	50	127
256.08049886621313	256.9976870748299	62	127
256.08049886621313	256.4171882086168	42	127
256.08049886621313	256.9976870748299	50	127
256.61455782312925	256.78868480725623	43	127
256.78868480725623	257.264716553288	44	127
257.0092970521542	257.20666666666665	50	127
257.0092970521542	257.20666666666665	62	127
257.2182766439909	257.42725623582766	64	127
257.2182766439909	257.42725623582766	52	127
257.4388662131519	257.65945578231293	65	127
257.4388662131519	257.65945578231293	53	127
257.4388662131519	257.9497052154195	43	127
257.6710657596372	257.8916553287982	51	127
257.6710657596372	257.8916553287982	63	127
258.01936507936506	258.15868480725624	50	127
258.01936507936506	258.15868480725624	62	127
258.15868480725624	258.55342403628117	42	127
258.15868480725624	258.55342403628117	62	127
258.15868480725624	258.55342403628117	50	127
258.7159637188209	258.8901133786848	69	127
258.7159637188209	258.87850340136055	59	127
258.7159637188209	258.87850340136055	41	127
258.8901133786848	259.3661224489796	67	127
258.8901133786848	259.3661224489796	60	127
258.8901133786848	259.3661224489796	40	127
259.517052154195	259.7956916099773	60	127
259.517052154195	259.7956916099773	52	127
259.517052154195	259.7956916099773	45	127
259.95820861678004	260.10916099773243	53	127
259.95820861678004	260.10916099773243	45	127
259.95820861678004	260.10916099773243	62	127
260.10916099773243	260.42263038548754	64	127
260.10916099773243	260.42263038548754	55	127
260.10916099773243	260.42263038548754	43	127
260.7477097505669	261.0727664399093	64	127
260.7477097505669	261.0727664399093	55	127
260.7477097505669	261.0727664399093	43	127
261.2469387755102	261.3862358276644	65	127
261.3862358276644	261.69972789115644	55	127
261.3862358276644	261.69972789115644	62	127
261.3862358276644	261.69972789115644	43	127
261.86226757369616	262.0364172335601	64	127
262.0364172335601	262.3382766439909	60	127
262.0364172335601	262.3382766439909	52	127
262.0364172335601	262.3382766439909	36	127
262.5124036281179	262.59369614512474	36	127
262.605306122449	262.68657596371884	36	127
262.68657596371884	263.00004535147394	36	127
263.1625850340136	263.33673469387753	62	127
263.1625850340136	263.33673469387753	55	127
263.33673469387753	263.6618140589569	60	127
263.33673469387753	263.6618140589569	52	127
263.8359410430839	264.0101133786848	62	127
263.8359410430839	264.0101133786848	55	127
264.0101133786848	264.3351927437642	60	127
264.0101133786848	264.3351927437642	52	127
264.5093424036281	264.5790022675737	36	127
264.59061224489795	264.66024943310657	36	127
264.66024943310657	265.00857142857143	36	127
265.2059410430839	265.3452607709751	62	127
265.2059410430839	265.3452607709751	55	127
265.3452607709751	265.76321995464855	48	127
265.3452607709751	265.76321995464855	60	127
265.98378684807255	266.22761904761904	55	127
265.98378684807255	266.22761904761904	62	127
266.22761904761904	266.5526984126984	48	127
266.22761904761904	266.5526984126984	44	127
266.22761904761904	266.5526984126984	60	127
266.88938775510206	267.04031746031745	75	127
266.88938775510206	267.04031746031745	63	127
266.88938775510206	267.21444444444444	44	127
266.88938775510206	267.53954648526076	51	127
267.04031746031745	267.53954648526076	60	127
267.04031746031745	267.21444444444444	75	127
267.04031746031745	267.21444444444444	63	127
267.22607709750565	267.36539682539683	75	127
267.22607709750565	267.36539682539683	63	127
267.36539682539683	267.53954648526076	63	127
267.36539682539683	267.53954648526076	51	127
267.53954648526076	267.7020861678005	75	127
267.53954648526076	267.7020861678005	63	127
267.7020861678005	267.85301587301586	75	127
267.7020861678005	267.85301587301586	63	127
267.85301587301586	268.0039455782313	63	127
267.85301587301586	268.0039455782313	75	127
268.0155555555556	268.1548752834467	63	127
268.0155555555556	268.1548752834467	51	127
268.16648526077097	268.30580498866215	63	127
268.16648526077097	268.4683446712018	75	127
268.30580498866215	268.4683446712018	63	127
268.4799546485261	268.6308843537415	63	127
268.6424716553288	268.7818140589569	51	127
268.7818140589569	268.9791836734694	63	127
268.7818140589569	268.9791836734694	51	127
268.99079365079365	269.1301133786848	51	127
268.99079365079365	269.1301133786848	63	127
269.1417233560091	269.315873015873	51	127
269.1417233560091	269.315873015873	63	127
269.315873015873	269.46678004535147	51	127
269.315873015873	269.46678004535147	39	127
269.4784126984127	269.58290249433105	63	127
269.4784126984127	269.58290249433105	51	127
269.5945124716553	269.74544217687077	51	127
269.5945124716553	269.74544217687077	63	127
269.74544217687077	269.8847619047619	51	127
269.74544217687077	269.8847619047619	63	127
269.89637188208616	270.03569160997733	44	127
269.89637188208616	270.03569160997733	56	127
270.03569160997733	270.31433106575963	68	127
270.03569160997733	270.31433106575963	41	127
270.61619047619047	270.7439002267574	80	127
270.61619047619047	270.7439002267574	68	127
270.61619047619047	271.12702947845804	56	127
270.61619047619047	271.12702947845804	65	127
270.75551020408165	270.90643990929703	68	127
270.75551020408165	270.90643990929703	80	127
270.90643990929703	271.06897959183675	80	127
270.90643990929703	271.06897959183675	68	127
271.080589569161	271.2315192743764	56	127
271.080589569161	271.2315192743764	68	127
271.2431292517007	271.4172789115646	80	127
271.2431292517007	271.4172789115646	68	127
271.4172789115646	271.56820861678005	68	127
271.4172789115646	271.56820861678005	80	127
271.5798185941043	271.7307482993197	80	127
271.5798185941043	271.7307482993197	68	127
271.742358276644	271.9048979591837	68	127
271.742358276644	271.9048979591837	56	127
271.9048979591837	272.0790476190476	68	127
271.9048979591837	272.2648072562358	80	127
272.0906575963719	272.2648072562358	68	127
272.2648072562358	272.42732426303854	68	127
272.42732426303854	272.57827664399093	56	127
272.5898866213152	272.7408163265306	56	127
272.5898866213152	272.7408163265306	68	127
272.7408163265306	272.84530612244896	68	127
272.7408163265306	272.84530612244896	56	127
272.85691609977323	272.9962358276644	68	127
272.85691609977323	272.9962358276644	56	127
273.0078458049887	273.1819954648526	56	127
273.0078458049887	273.1819954648526	44	127
273.1819954648526	273.3445124716553	68	127
273.1819954648526	273.3445124716553	56	127
273.35614512471653	273.4374149659864	68	127
273.35614512471653	273.4374149659864	56	127
273.4490022675737	273.57673469387754	56	127
273.4490022675737	273.57673469387754	68	127
273.57673469387754	273.727664399093	68	127
273.57673469387754	273.727664399093	44	127
273.73927437641726	274.0991836734694	73	127
273.73927437641726	274.0991836734694	37	127
274.4474829931973	275.32984126984127	68	127
274.4474829931973	274.5984126984127	83	127
274.4474829931973	274.5984126984127	71	127
274.5984126984127	274.7609523809524	83	127
274.5984126984127	274.7609523809524	71	127
274.7725396825397	274.93510204081633	71	127
274.7725396825397	274.93510204081633	83	127
274.93510204081633	275.097641723356	71	127
274.93510204081633	275.097641723356	59	127
275.10925170068026	275.2601814058957	83	127
275.10925170068026	275.2601814058957	71	127
275.27179138322	275.43433106575964	83	127
275.27179138322	275.43433106575964	71	127
275.43433106575964	275.538820861678	83	127
275.43433106575964	275.538820861678	71	127
275.5504308390023	275.7013378684807	71	127
275.5504308390023	275.7013378684807	59	127
275.5504308390023	275.7013378684807	67	127
275.71297052154193	275.84068027210884	83	127
275.71297052154193	275.9916099773243	71	127
275.71297052154193	275.9916099773243	65	127
275.84068027210884	275.9916099773243	83	127
276.00319727891156	276.1425396825397	83	127
276.15414965986395	276.3282993197279	55	127
276.15414965986395	276.3282993197279	71	127
276.15414965986395	276.3282993197279	67	127
276.3282993197279	276.6185260770975	68	127
276.3282993197279	276.6185260770975	56	127
276.3282993197279	276.46761904761905	84	127
276.4792290249433	276.6185260770975	84	127
276.6301587301587	276.8043083900227	84	127
276.8043083900227	276.9552380952381	72	127
276.8043083900227	276.9552380952381	67	127
276.8043083900227	276.9552380952381	55	127
276.96684807256236	277.1293650793651	86	127
276.96684807256236	277.2687074829932	65	127
276.96684807256236	277.2687074829932	53	127
277.1293650793651	277.2687074829932	86	127
277.28031746031746	277.4312244897959	86	127
277.4428571428571	277.6286167800454	68	127
277.4428571428571	277.6286167800454	41	127
277.4428571428571	277.6286167800454	74	127
277.6286167800454	277.8027664399093	36	127
277.6286167800454	277.95367346938775	84	127
277.6286167800454	277.95367346938775	64	127
277.6286167800454	277.95367346938775	72	127
277.6286167800454	277.95367346938775	43	127
277.7214965986395	277.95367346938775	52	127
278.32521541950115	278.5341950113379	60	127
278.32521541950115	278.5341950113379	60	127
278.32521541950115	278.9985941043084	60	127
278.54580498866216	278.76637188208616	60	127
278.54580498866216	278.76637188208616	60	127
278.7780045351474	278.9869841269841	60	127
278.7780045351474	278.9869841269841	60	127
278.9985941043084	279.6255328798186	61	127
278.9985941043084	279.1843537414966	61	127
278.9985941043084	279.1843537414966	60	127
279.1843537414966	279.4049433106576	61	127
279.1843537414966	279.4049433106576	60	127
279.4049433106576	279.6255328798186	61	127
279.4049433106576	279.6255328798186	60	127
279.6255328798186	279.85773242630387	58	127
279.6255328798186	280.51950113378683	67	127
279.6255328798186	279.85773242630387	61	127
279.86934240362814	280.05510204081634	58	127
279.86934240362814	280.05510204081634	61	127
280.0667120181406	280.2524716553288	58	127
280.0667120181406	280.2524716553288	61	127
280.2640816326531	280.5078684807256	57	127
280.2640816326531	280.5078684807256	60	127
280.51950113378683	280.77492063492065	60	127
280.51950113378683	280.77492063492065	57	127
280.658820861678	280.9490702947846	64	127
280.77492063492065	280.9490702947846	60	127
280.77492063492065	280.9490702947846	57	127
280.9490702947846	281.1696598639456	60	127
280.9490702947846	281.1696598639456	56	127
280.9490702947846	281.2857596371882	65	127
281.1696598639456	281.3902494331066	60	127
281.1696598639456	281.3902494331066	56	127
281.2857596371882	281.64566893424035	72	127
281.40185941043086	281.63403628117914	60	127
281.40185941043086	281.63403628117914	56	127
281.64566893424035	281.86625850340135	62	127
281.64566893424035	281.86625850340135	55	127
281.64566893424035	281.86625850340135	55	127
281.64566893424035	281.982358276644	71	127
281.8778684807256	282.1100680272109	62	127
281.8778684807256	282.1100680272109	55	127
281.8778684807256	282.1100680272109	55	127
281.982358276644	282.3538775510204	77	127
282.12167800453517	282.3538775510204	55	127
282.12167800453517	282.3538775510204	62	127
282.12167800453517	282.3538775510204	55	127
282.3538775510204	282.5628571428571	55	127
282.3538775510204	282.5628571428571	60	127
282.3538775510204	282.5628571428571	48	127
282.3538775510204	282.67895691609976	76	127
282.5628571428571	282.78344671201813	48	127
282.5628571428571	282.78344671201813	55	127
282.5628571428571	282.78344671201813	60	127
282.67895691609976	283.00403628117914	82	127
282.78344671201813	283.00403628117914	55	127
282.78344671201813	283.00403628117914	60	127
282.78344671201813	283.00403628117914	48	127
283.0156462585034	283.22462585034015	53	127
283.0156462585034	283.22462585034015	60	127
283.0156462585034	283.22462585034015	41	127
283.0156462585034	284.01410430839	80	127
283.2362358276644	283.44521541950115	44	127
283.2362358276644	283.44521541950115	53	127
283.2362358276644	283.44521541950115	60	127
283.4568253968254	283.66580498866216	60	127
283.4568253968254	283.66580498866216	48	127
283.4568253968254	283.66580498866216	53	127
283.67739229024943	283.90961451247165	65	127
283.67739229024943	283.90961451247165	53	127
283.67739229024943	283.90961451247165	60	127
283.90961451247165	284.13020408163266	60	127
283.90961451247165	284.13020408163266	65	127
283.90961451247165	284.13020408163266	53	127
284.0257142857143	284.40884353741495	79	127
284.13020408163266	284.40884353741495	60	127
284.13020408163266	284.40884353741495	67	127
284.13020408163266	284.40884353741495	55	127
284.40884353741495	284.64104308390023	68	127
284.40884353741495	284.64104308390023	60	127
284.40884353741495	285.0009297052154	77	127
284.40884353741495	284.64104308390023	56	127
284.6526530612245	284.8848526077098	56	127
284.6526530612245	284.8848526077098	60	127
284.6526530612245	284.8848526077098	68	127
284.89643990929704	285.1054195011338	60	127
284.89643990929704	285.1054195011338	68	127
284.89643990929704	285.1054195011338	56	127
285.117052154195	285.3143990929705	44	127
285.117052154195	285.3143990929705	62	127
285.117052154195	285.3143990929705	72	127
285.117052154195	285.6627210884354	78	127
285.32603174603173	285.54662131519274	72	127
285.32603174603173	285.54662131519274	44	127
285.32603174603173	285.54662131519274	62	127
285.54662131519274	285.76721088435374	62	127
285.54662131519274	285.76721088435374	72	127
285.54662131519274	285.76721088435374	44	127
285.76721088435374	285.999410430839	71	127
285.76721088435374	285.999410430839	79	127
285.76721088435374	286.1270975056689	62	127
285.76721088435374	286.1270975056689	71	127
285.76721088435374	286.1270975056689	43	127
285.999410430839	286.2548299319728	79	127
285.999410430839	286.2548299319728	71	127
286.26643990929705	286.42895691609976	79	127
286.26643990929705	286.42895691609976	71	127
286.440589569161	286.6379365079365	71	127
286.440589569161	286.6379365079365	79	127
286.440589569161	287.0442857142857	55	127
286.440589569161	287.0442857142857	55	127
286.6495691609977	286.84691609977324	79	127
286.6495691609977	286.84691609977324	71	127
286.85854875283445	287.0442857142857	79	127
286.85854875283445	287.0442857142857	71	127
287.0442857142857	287.2416780045352	72	127
287.0442857142857	287.2416780045352	79	127
287.0442857142857	287.67124716553286	56	127
287.0442857142857	287.67124716553286	56	127
287.2416780045352	287.4506349206349	79	127
287.2416780045352	287.4506349206349	72	127
287.4506349206349	287.65961451247165	72	127
287.4506349206349	287.65961451247165	79	127
287.67124716553286	287.89183673469387	77	127
287.67124716553286	288.5536054421769	62	127
287.67124716553286	287.89183673469387	72	127
287.67124716553286	288.5536054421769	62	127
287.90344671201814	288.1124263038549	72	127
287.90344671201814	288.1124263038549	77	127
288.12403628117914	288.3330158730159	72	127
288.12403628117914	288.3330158730159	77	127
288.34462585034015	288.5536054421769	71	127
288.34462585034015	288.5536054421769	77	127
288.5536054421769	288.7625850340136	77	127
288.5536054421769	288.7625850340136	71	127
288.65809523809526	289.0180045351474	59	127
288.65809523809526	289.0180045351474	59	127
288.7625850340136	289.0180045351474	77	127
288.7625850340136	289.0180045351474	74	127
289.0180045351474	289.25020408163266	72	127
289.0180045351474	289.25020408163266	75	127
289.0180045351474	289.3663038548753	60	127
289.0180045351474	289.3663038548753	60	127
289.26181405895693	289.48240362811794	75	127
289.26181405895693	289.48240362811794	72	127
289.3663038548753	289.74943310657596	67	127
289.3663038548753	289.74943310657596	55	127
289.4939909297052	289.7378231292517	72	127
289.4939909297052	289.7378231292517	75	127
289.74943310657596	289.97002267573697	72	127
289.74943310657596	289.97002267573697	74	127
289.74943310657596	290.10931972789115	66	127
289.74943310657596	290.10931972789115	54	127
289.98163265306124	290.2138095238095	74	127
289.98163265306124	290.2138095238095	72	127
290.10931972789115	290.44603174603174	72	127
290.10931972789115	290.44603174603174	60	127
290.2138095238095	290.44603174603174	72	127
290.2138095238095	290.44603174603174	74	127
290.44603174603174	290.6550113378685	67	127
290.44603174603174	290.6550113378685	74	127
290.44603174603174	290.7711111111111	71	127
290.44603174603174	290.7711111111111	59	127
290.6550113378685	290.85238095238094	74	127
290.6550113378685	290.85238095238094	67	127
290.7711111111111	291.07297052154195	77	127
290.7711111111111	291.07297052154195	65	127
290.8639909297052	291.07297052154195	74	127
290.8639909297052	291.07297052154195	67	127
291.0845804988662	291.32839002267576	63	127
291.0845804988662	291.32839002267576	72	127
291.0845804988662	291.7115192743764	75	127
291.0845804988662	291.7115192743764	63	127
291.33997732426303	291.57219954648525	63	127
291.33997732426303	291.57219954648525	72	127
291.5838095238095	291.8043990929705	63	127
291.5838095238095	291.8043990929705	72	127
291.8160090702948	292.0365986394558	62	127
291.8160090702948	292.0365986394558	72	127
291.8160090702948	292.15267573696144	74	127
291.8160090702948	292.15267573696144	62	127
292.0365986394558	292.2571655328798	62	127
292.0365986394558	292.2571655328798	72	127
292.15267573696144	292.442947845805	77	127
292.15267573696144	292.442947845805	65	127
292.2571655328798	292.43133786848074	62	127
292.2571655328798	292.43133786848074	74	127
292.442947845805	292.65192743764175	67	127
292.442947845805	292.65192743764175	74	127
292.442947845805	292.7796371882086	79	127
292.442947845805	292.7796371882086	67	127
292.663514739229	292.87249433106575	67	127
292.663514739229	292.87249433106575	74	127
292.7796371882086	293.0814739229025	62	127
292.7796371882086	293.0814739229025	74	127
292.88412698412696	293.0698866213152	79	127
292.88412698412696	293.0698866213152	67	127
293.0814739229025	293.30208616780044	67	127
293.0814739229025	293.30208616780044	79	127
293.0814739229025	293.42979591836735	79	127
293.0814739229025	293.42979591836735	67	127
293.3136961451247	293.5342857142857	67	127
293.3136961451247	293.5342857142857	79	127
293.42979591836735	293.74326530612245	72	127
293.42979591836735	293.74326530612245	60	127
293.5342857142857	293.74326530612245	67	127
293.5342857142857	293.74326530612245	79	127
293.74326530612245	293.96385487528346	72	127
293.74326530612245	293.96385487528346	74	127
293.74326530612245	293.96385487528346	60	127
293.74326530612245	293.96385487528346	62	127
293.74326530612245	294.09156462585037	62	127
293.96385487528346	294.207641723356	60	127
293.96385487528346	294.207641723356	72	127
293.96385487528346	294.207641723356	74	127
293.96385487528346	294.207641723356	62	127
294.09156462585037	294.4166439909297	66	127
294.2192743764172	294.4050113378685	72	127
294.2192743764172	294.4050113378685	74	127
294.2192743764172	294.4050113378685	60	127
294.2192743764172	294.4050113378685	62	127
294.4166439909297	294.74172335600906	67	127
294.4166439909297	294.6256235827664	67	127
294.4166439909297	294.6256235827664	74	127
294.4166439909297	294.6256235827664	55	127
294.4166439909297	294.6256235827664	62	127
294.6372335600907	294.83460317460316	55	127
294.6372335600907	294.83460317460316	74	127
294.6372335600907	294.83460317460316	62	127
294.6372335600907	294.83460317460316	67	127
294.74172335600906	295.06680272108844	62	127
294.84621315192743	295.06680272108844	74	127
294.84621315192743	295.06680272108844	55	127
294.84621315192743	295.06680272108844	62	127
294.84621315192743	295.06680272108844	67	127
295.06680272108844	295.2990022675737	51	127
295.06680272108844	295.2990022675737	63	127
295.06680272108844	295.2990022675737	72	127
295.06680272108844	295.2990022675737	60	127
295.06680272108844	295.2990022675737	67	127
295.2990022675737	295.531179138322	60	127
295.2990022675737	295.531179138322	72	127
295.2990022675737	295.531179138322	51	127
295.2990022675737	295.531179138322	60	127
295.2990022675737	295.531179138322	63	127
295.531179138322	295.7169614512472	55	127
295.531179138322	295.7169614512472	63	127
295.531179138322	295.7169614512472	72	127
295.531179138322	295.7169614512472	51	127
295.531179138322	295.7169614512472	60	127
295.72857142857146	295.9375283446712	72	127
295.72857142857146	295.9375283446712	51	127
295.72857142857146	295.9375283446712	60	127
295.72857142857146	296.0768707482993	48	127
295.72857142857146	295.9375283446712	63	127
295.97238095238095	296.1813605442177	72	127
295.97238095238095	296.1813605442177	51	127
295.97238095238095	296.1813605442177	63	127
295.97238095238095	296.1813605442177	60	127
296.0768707482993	296.3903401360544	46	127
296.19297052154195	296.3903401360544	67	127
296.19297052154195	296.3903401360544	74	127
296.19297052154195	296.3903401360544	55	127
296.19297052154195	296.3903401360544	62	127
296.4019501133787	296.6225396825397	72	127
296.4019501133787	296.6225396825397	75	127
296.4019501133787	296.6225396825397	60	127
296.4019501133787	296.6225396825397	63	127
296.4019501133787	296.95920634920634	44	127
296.6225396825397	296.8431292517007	75	127
296.6225396825397	296.8431292517007	60	127
296.6225396825397	296.8431292517007	72	127
296.6225396825397	296.8431292517007	63	127
296.8431292517007	297.0753287981859	60	127
296.8431292517007	297.0753287981859	72	127
296.8431292517007	297.0753287981859	77	127
296.8431292517007	297.0753287981859	65	127
297.0753287981859	297.3075283446712	72	127
297.0753287981859	297.3075283446712	75	127
297.0753287981859	297.3075283446712	60	127
297.0753287981859	297.3075283446712	63	127
297.0753287981859	297.6674376417234	44	127
297.31913832199547	297.5397278911565	60	127
297.31913832199547	297.5397278911565	63	127
297.31913832199547	297.5397278911565	72	127
297.31913832199547	297.5397278911565	75	127
297.562947845805	297.77192743764175	62	127
297.562947845805	297.77192743764175	60	127
297.562947845805	297.77192743764175	72	127
297.562947845805	297.77192743764175	74	127
297.783514739229	298.09700680272107	59	127
297.783514739229	298.09700680272107	71	127
297.783514739229	298.09700680272107	74	127
297.783514739229	298.09700680272107	62	127
297.783514739229	298.09700680272107	43	127
298.66589569161	298.90968253968254	55	127
298.66589569161	298.90968253968254	55	127
298.66589569161	298.8400453514739	67	127
298.92131519274375	299.1186848072562	57	127
298.92131519274375	299.0722448979592	69	127
298.92131519274375	299.1186848072562	57	127
299.1302947845805	299.32766439909295	59	127
299.1302947845805	299.26961451247166	71	127
299.1302947845805	299.32766439909295	59	127
299.3392743764172	299.5366439909297	62	127
299.3392743764172	299.5366439909297	62	127
299.3392743764172	299.49020408163267	74	127
299.54825396825396	299.76884353741497	66	127
299.54825396825396	299.68757369614514	78	127
299.54825396825396	299.76884353741497	66	127
299.76884353741497	300.18680272108844	79	127
299.76884353741497	300.18680272108844	67	127
299.76884353741497	300.18680272108844	67	127
300.9878911564626	301.4755102040816	71	127
300.9878911564626	301.53356009070296	59	127
300.9878911564626	301.53356009070296	59	127
301.54517006802723	301.75414965986397	62	127
301.54517006802723	301.6960997732426	74	127
301.54517006802723	301.75414965986397	62	127
301.76573696145124	301.9863492063492	67	127
301.76573696145124	301.91668934240363	79	127
301.76573696145124	301.9863492063492	55	127
301.9863492063492	302.2069387755102	71	127
301.9863492063492	302.1488888888889	83	127
301.9863492063492	302.2069387755102	50	127
302.2069387755102	302.45074829931974	74	127
302.2069387755102	302.45074829931974	43	127
302.2069387755102	302.3810657596372	86	127
302.45074829931974	303.41437641723354	60	127
302.45074829931974	303.41437641723354	76	127
302.45074829931974	303.41437641723354	88	127
303.70460317460316	303.8671655328798	86	127
303.70460317460316	303.8671655328798	55	127
303.70460317460316	303.8671655328798	74	127
303.8671655328798	304.1922448979592	88	127
303.8671655328798	304.1922448979592	76	127
303.8671655328798	304.1922448979592	60	127
304.3431746031746	304.5173242630386	74	127
304.3431746031746	304.5173242630386	86	127
304.3431746031746	304.5173242630386	55	127
304.52891156462584	304.86562358276643	84	127
304.52891156462584	304.86562358276643	72	127
304.52891156462584	304.86562358276643	52	127
305.16748299319727	305.34160997732425	79	127
305.16748299319727	305.34160997732425	55	127
305.16748299319727	305.34160997732425	67	127
305.3532199546485	305.7363718820862	84	127
305.3532199546485	305.7363718820862	72	127
305.3532199546485	305.7363718820862	52	127
305.89891156462585	306.06142857142856	86	127
305.89891156462585	306.06142857142856	74	127
305.89891156462585	306.06142857142856	55	127
306.0730612244898	306.49102040816325	76	127
306.0730612244898	306.49102040816325	60	127
306.0730612244898	306.49102040816325	88	127
306.66517006802724	306.8160997732426	84	127
306.66517006802724	306.8160997732426	72	127
306.66517006802724	306.8160997732426	60	127
306.8277097505669	307.7797278911565	81	127
306.8277097505669	307.7797278911565	93	127
306.8277097505669	307.7797278911565	65	127
307.79133786848075	308.0002947845805	64	127
307.79133786848075	308.0002947845805	79	127
307.79133786848075	308.0002947845805	91	127
308.0119274376417	308.2325170068027	89	127
308.0119274376417	308.2325170068027	77	127
308.0119274376417	308.2325170068027	62	127
308.25573696145125	308.4531065759637	91	127
308.25573696145125	308.4531065759637	79	127
308.25573696145125	308.4531065759637	64	127
308.464716553288	308.8130158730159	60	127
308.464716553288	308.8130158730159	84	127
308.464716553288	308.8130158730159	72	127
308.952335600907	309.06843537414966	91	127
308.952335600907	309.06843537414966	79	127
308.952335600907	309.06843537414966	64	127
309.06843537414966	310.0436507936508	93	127
309.06843537414966	310.0436507936508	81	127
309.06843537414966	310.0436507936508	65	127
310.05526077097505	310.2526303854875	79	127
310.05526077097505	310.2526303854875	91	127
310.05526077097505	310.2526303854875	64	127
310.26426303854873	310.47324263038547	77	127
310.26426303854873	310.47324263038547	89	127
310.26426303854873	310.47324263038547	62	127
310.48485260770974	310.7286621315193	91	127
310.48485260770974	310.7286621315193	79	127
310.48485260770974	310.7286621315193	64	127
310.7286621315193	310.97244897959183	72	127
310.7286621315193	310.97244897959183	60	127
310.7286621315193	310.97244897959183	84	127
311.0885714285714	311.1814512471655	91	127
311.0885714285714	311.1814512471655	79	127
311.0885714285714	311.1814512471655	64	127
311.1814512471655	312.1334693877551	81	127
311.1814512471655	312.1334693877551	73	127
311.1814512471655	312.1334693877551	61	127
311.1814512471655	312.1334693877551	93	127
312.24956916099774	312.5862585034014	76	127
312.24956916099774	312.5862585034014	61	127
312.24956916099774	312.5862585034014	88	127
312.5862585034014	312.9577777777778	73	127
312.5862585034014	312.9577777777778	57	127
312.5862585034014	312.9577777777778	85	127
313.1319274376417	313.2944671201814	76	127
313.1319274376417	313.2944671201814	88	127
313.1319274376417	313.2944671201814	61	127
313.3060770975057	313.8981859410431	90	127
313.3060770975057	313.8981859410431	72	127
313.3060770975057	313.8981859410431	78	127
313.3060770975057	313.8981859410431	50	127
313.3060770975057	313.8981859410431	60	127
314.06072562358275	315.41909297052155	71	127
314.06072562358275	314.51351473922904	43	127
314.06072562358275	315.1520634920635	50	127
314.06072562358275	315.41909297052155	79	127
314.06072562358275	315.41909297052155	91	127
314.3625850340136	315.1520634920635	59	127
315.4307029478458	315.5816326530612	74	127
315.4307029478458	315.5816326530612	86	127
315.4307029478458	315.5816326530612	59	127
315.5932426303855	315.95315192743766	89	127
315.5932426303855	315.95315192743766	62	127
315.5932426303855	315.95315192743766	77	127
315.95315192743766	316.27823129251703	76	127
315.95315192743766	316.27823129251703	88	127
315.95315192743766	316.27823129251703	60	127
316.27823129251703	316.3943083900227	86	127
316.27823129251703	316.3943083900227	74	127
316.27823129251703	316.3943083900227	59	127
316.6265306122449	316.74263038548753	72	127
316.6265306122449	316.74263038548753	84	127
316.6265306122449	316.74263038548753	60	127
316.99802721088435	317.1141496598639	71	127
316.99802721088435	317.1141496598639	54	127
316.99802721088435	317.1141496598639	83	127
317.55532879818594	317.6946485260771	60	127
317.55532879818594	317.6946485260771	72	127
317.55532879818594	317.7643083900227	84	127
317.7643083900227	318.5189569160998	50	127
317.7643083900227	318.14743764172334	59	127
317.7643083900227	318.14743764172334	43	127
317.7643083900227	318.5189569160998	67	127
317.7643083900227	318.3912471655329	86	127
317.9732879818594	318.5189569160998	74	127
317.9732879818594	318.5189569160998	59	127
319.13428571428574	319.2039455782313	55	127
319.13428571428574	319.2039455782313	67	127
319.13428571428574	319.2039455782313	79	127
319.13428571428574	319.2039455782313	67	127
319.21555555555557	319.2968253968254	67	127
319.21555555555557	319.2968253968254	79	127
319.21555555555557	319.2968253968254	55	127
319.21555555555557	319.2968253968254	67	127
319.2968253968254	319.6219047619048	67	127
319.2968253968254	319.6219047619048	79	127
319.2968253968254	319.6219047619048	55	127
319.2968253968254	319.6219047619048	67	127
319.7960544217687	319.8656916099773	67	127
319.7960544217687	319.8656916099773	55	127
319.7960544217687	319.9353741496599	43	127
319.8656916099773	319.9353741496599	67	127
319.8656916099773	319.9353741496599	55	127
319.94698412698415	320.09791383219954	60	127
319.94698412698415	320.09791383219954	43	127
319.94698412698415	320.28367346938774	67	127
319.94698412698415	320.28367346938774	72	127
319.94698412698415	320.28367346938774	64	127
319.94698412698415	320.09791383219954	36	127
320.028253968254	320.28367346938774	52	127
320.028253968254	320.28367346938774	60	127
320.028253968254	320.28367346938774	76	127
320.50426303854874	320.57390022675736	67	127
320.50426303854874	320.57390022675736	67	127
320.50426303854874	320.57390022675736	79	127
320.58551020408163	320.6783900226757	67	127
320.58551020408163	320.6783900226757	67	127
320.58551020408163	320.6783900226757	79	127
320.69002267573694	320.8641723356009	60	127
320.69002267573694	321.0267120181406	79	127
320.69002267573694	321.0267120181406	67	127
320.69002267573694	321.0267120181406	67	127
320.69002267573694	321.0267120181406	67	127
320.7828798185941	321.0267120181406	76	127
321.2124716553288	321.29371882086167	55	127
321.2124716553288	321.29371882086167	67	127
321.2124716553288	321.29371882086167	55	127
321.29371882086167	321.3750113378685	55	127
321.29371882086167	321.3750113378685	67	127
321.29371882086167	321.3750113378685	55	127
321.3750113378685	321.7000680272109	55	127
321.3750113378685	321.53755102040816	60	127
321.3750113378685	321.7000680272109	55	127
321.3750113378685	321.7000680272109	67	127
321.3750113378685	321.7000680272109	67	127
321.4678911564626	321.7000680272109	76	127
321.9206802721088	322.013537414966	43	127
321.9206802721088	322.013537414966	55	127
322.0251700680272	322.0948299319728	55	127
322.0251700680272	322.0948299319728	43	127
322.1064399092971	322.26897959183674	60	127
322.1064399092971	322.44312925170067	64	127
322.1064399092971	322.44312925170067	72	127
322.1064399092971	322.44312925170067	67	127
322.1064399092971	322.44312925170067	36	127
322.1877097505669	322.44312925170067	76	127
322.6056689342404	322.6637188208617	67	127
322.6056689342404	322.6637188208617	79	127
322.6056689342404	322.6637188208617	67	127
322.67532879818594	322.7565986394558	79	127
322.67532879818594	322.7565986394558	67	127
322.67532879818594	322.7565986394558	67	127
322.7565986394558	322.93072562358276	60	127
322.7565986394558	323.11650793650796	67	127
322.7565986394558	323.11650793650796	79	127
322.7565986394558	323.11650793650796	67	127
322.7565986394558	323.11650793650796	67	127
322.8378684807256	323.11650793650796	76	127
323.2906575963719	323.3719274376417	55	127
323.2906575963719	323.3719274376417	43	127
323.2906575963719	323.3719274376417	67	127
323.3719274376417	323.4648072562358	55	127
323.3719274376417	323.4648072562358	43	127
323.3719274376417	323.4648072562358	67	127
323.48802721088435	323.6621768707483	60	127
323.48802721088435	323.84791383219954	67	127
323.48802721088435	323.84791383219954	67	127
323.48802721088435	323.84791383219954	36	127
323.48802721088435	323.84791383219954	55	127
323.5925170068027	323.84791383219954	76	127
324.1846258503401	324.52131519274377	46	127
324.1846258503401	324.3587528344671	58	127
324.1846258503401	324.3587528344671	58	127
324.1846258503401	324.52131519274377	67	127
324.1846258503401	324.52131519274377	67	127
324.265873015873	324.52131519274377	75	127
324.265873015873	324.52131519274377	75	127
324.7419047619048	324.8231746031746	82	127
324.7419047619048	324.8231746031746	70	127
324.7419047619048	324.8231746031746	70	127
324.8231746031746	324.90444444444444	82	127
324.8231746031746	324.90444444444444	70	127
324.8231746031746	324.90444444444444	70	127
324.90444444444444	325.2411337868481	82	127
324.90444444444444	325.2411337868481	70	127
324.90444444444444	325.06698412698415	58	127
324.90444444444444	325.2411337868481	70	127
324.90444444444444	325.2411337868481	67	127
324.99732426303854	325.2411337868481	75	127
325.40367346938774	325.4849206349206	70	127
325.40367346938774	325.4849206349206	58	127
325.40367346938774	325.4849206349206	58	127
325.49655328798184	325.56621315192746	58	127
325.49655328798184	325.56621315192746	70	127
325.49655328798184	325.56621315192746	58	127
325.5778231292517	325.7403628117914	58	127
325.5778231292517	325.9028798185941	58	127
325.5778231292517	325.9028798185941	67	127
325.5778231292517	325.9028798185941	58	127
325.5778231292517	325.9028798185941	70	127
325.65909297052156	325.9028798185941	75	127
326.10024943310657	326.1815419501134	58	127
326.10024943310657	326.1815419501134	46	127
326.1815419501134	326.3092290249433	58	127
326.1815419501134	326.3092290249433	46	127
326.3092290249433	326.48340136054424	58	127
326.3092290249433	326.6459410430839	67	127
326.3092290249433	326.6459410430839	75	127
326.3092290249433	326.6459410430839	67	127
326.3092290249433	326.6459410430839	46	127
326.4137188208617	326.6459410430839	75	127
326.8200680272109	326.88975056689344	82	127
326.8200680272109	326.88975056689344	70	127
326.8200680272109	326.88975056689344	70	127
326.9013605442177	326.959410430839	70	127
326.9013605442177	326.959410430839	70	127
326.9013605442177	326.959410430839	82	127
326.97102040816327	327.13356009070293	58	127
326.97102040816327	327.29609977324264	82	127
326.97102040816327	327.29609977324264	67	127
326.97102040816327	327.29609977324264	70	127
326.97102040816327	327.29609977324264	70	127
327.0522902494331	327.29609977324264	75	127
327.4702494331066	327.53990929705213	58	127
327.4702494331066	327.53990929705213	70	127
327.4702494331066	327.53990929705213	58	127
327.5515192743764	327.6560090702948	58	127
327.5515192743764	327.6560090702948	58	127
327.5515192743764	327.6560090702948	70	127
327.6560090702948	328.0043083900227	70	127
327.6560090702948	328.0043083900227	67	127
327.6560090702948	327.841746031746	58	127
327.6560090702948	328.0043083900227	58	127
327.6560090702948	328.0043083900227	58	127
327.76049886621314	328.0043083900227	75	127
328.2132879818594	328.29455782312925	63	127
328.2132879818594	328.29455782312925	51	127
328.29455782312925	328.3758276643991	51	127
328.29455782312925	328.3758276643991	63	127
328.38743764172335	328.5615873015873	60	127
328.38743764172335	328.7589342403628	56	127
328.38743764172335	328.7589342403628	72	127
328.38743764172335	328.7589342403628	44	127
328.38743764172335	328.7589342403628	68	127
328.38743764172335	328.7589342403628	63	127
328.4687074829932	328.7589342403628	75	127
328.93310657596373	328.97954648526076	78	127
328.93310657596373	328.97954648526076	66	127
328.93310657596373	328.97954648526076	72	127
328.93310657596373	329.06079365079364	51	127
328.93310657596373	328.97954648526076	63	127
328.991156462585	329.06079365079364	78	127
328.991156462585	329.06079365079364	63	127
328.991156462585	329.06079365079364	66	127
328.991156462585	329.06079365079364	72	127
329.07242630385485	329.39750566893423	72	127
329.07242630385485	329.39750566893423	78	127
329.07242630385485	329.39750566893423	63	127
329.07242630385485	329.39750566893423	66	127
329.07242630385485	329.39750566893423	60	127
329.5716326530612	329.65292517006804	78	127
329.5716326530612	329.65292517006804	63	127
329.5716326530612	329.65292517006804	66	127
329.5716326530612	329.7341950113379	62	127
329.5716326530612	329.65292517006804	72	127
329.65292517006804	329.7341950113379	63	127
329.65292517006804	329.7341950113379	72	127
329.65292517006804	329.7341950113379	78	127
329.65292517006804	329.7341950113379	66	127
329.7341950113379	330.09408163265306	66	127
329.7341950113379	330.09408163265306	78	127
329.7341950113379	330.09408163265306	63	127
329.7341950113379	330.09408163265306	72	127
329.7341950113379	330.09408163265306	63	127
330.268253968254	330.33791383219955	63	127
330.268253968254	330.33791383219955	72	127
330.268253968254	330.33791383219955	78	127
330.268253968254	330.33791383219955	66	127
330.268253968254	330.4191836734694	62	127
330.3495238095238	330.4191836734694	66	127
330.3495238095238	330.4191836734694	72	127
330.3495238095238	330.4191836734694	63	127
330.3495238095238	330.4191836734694	78	127
330.43079365079365	330.8022902494331	60	127
330.43079365079365	330.8022902494331	72	127
330.43079365079365	330.8022902494331	63	127
330.43079365079365	330.8022902494331	66	127
330.43079365079365	330.8022902494331	78	127
330.9880725623583	331.0693424036281	72	127
330.9880725623583	331.0693424036281	63	127
330.9880725623583	331.0693424036281	66	127
330.9880725623583	331.15061224489796	62	127
330.9880725623583	331.0693424036281	78	127
331.0693424036281	331.15061224489796	66	127
331.0693424036281	331.15061224489796	72	127
331.0693424036281	331.15061224489796	78	127
331.0693424036281	331.15061224489796	63	127
331.15061224489796	331.5337414965986	72	127
331.15061224489796	331.5337414965986	78	127
331.15061224489796	331.5337414965986	63	127
331.15061224489796	331.5337414965986	66	127
331.15061224489796	331.5337414965986	63	127
331.7078911564626	331.78916099773244	63	127
331.7078911564626	331.78916099773244	72	127
331.7078911564626	331.78916099773244	78	127
331.7078911564626	331.87043083900227	62	127
331.7078911564626	331.78916099773244	66	127
331.8007709750567	331.87043083900227	66	127
331.8007709750567	331.87043083900227	72	127
331.8007709750567	331.87043083900227	78	127
331.8007709750567	331.87043083900227	63	127
331.88204081632654	332.19551020408164	66	127
331.88204081632654	332.19551020408164	60	127
331.88204081632654	332.19551020408164	72	127
331.88204081632654	332.19551020408164	78	127
331.88204081632654	332.19551020408164	63	127
332.36965986394557	332.4973696145125	72	127
332.36965986394557	332.4973696145125	78	127
332.36965986394557	332.4973696145125	62	127
332.36965986394557	332.4973696145125	66	127
332.36965986394557	332.60185941043085	62	127
332.520589569161	332.60185941043085	72	127
332.520589569161	332.60185941043085	78	127
332.520589569161	332.60185941043085	66	127
332.520589569161	332.60185941043085	62	127
332.60185941043085	332.9269387755102	67	127
332.60185941043085	332.9269387755102	71	127
332.60185941043085	332.9269387755102	62	127
332.60185941043085	332.9269387755102	55	127
332.60185941043085	332.9269387755102	79	127
333.41455782312926	333.623537414966	55	127
333.41455782312926	333.623537414966	67	127
333.63514739229026	333.844126984127	55	127
333.63514739229026	333.844126984127	67	127
333.85573696145127	334.0763038548753	67	127
333.85573696145127	334.0763038548753	55	127
334.0879365079365	334.2969160997732	68	127
334.0879365079365	334.2969160997732	56	127
334.2969160997732	334.50589569160996	68	127
334.2969160997732	334.50589569160996	56	127
334.50589569160996	334.7497052154195	68	127
334.50589569160996	334.7497052154195	56	127
334.7497052154195	335.01673469387754	74	127
334.7497052154195	335.01673469387754	62	127
335.0283446712018	335.2605442176871	74	127
335.0283446712018	335.2605442176871	62	127
335.27215419501135	335.49274376417236	74	127
335.27215419501135	335.49274376417236	62	127
335.50433106575963	335.71331065759637	74	127
335.50433106575963	335.71331065759637	62	127
335.73655328798185	335.9455328798186	62	127
335.73655328798185	335.9455328798186	74	127
335.95714285714286	336.21256235827667	71	127
335.95714285714286	336.21256235827667	59	127
336.21256235827667	336.4331292517007	72	127
336.21256235827667	336.4331292517007	60	127
336.4331292517007	336.63049886621314	72	127
336.4331292517007	336.63049886621314	60	127
336.64213151927436	336.8511111111111	79	127
336.64213151927436	336.8511111111111	67	127
336.86272108843536	337.04848072562356	78	127
336.86272108843536	337.04848072562356	72	127
337.06009070294783	337.2458276643991	72	127
337.06009070294783	337.2458276643991	78	127
337.2574603174603	337.4548072562358	78	127
337.2574603174603	337.4548072562358	72	127
337.46643990929704	337.6754195011338	74	127
337.46643990929704	337.6754195011338	67	127
337.46643990929704	337.6754195011338	77	127
337.6754195011338	337.8843990929705	77	127
337.6754195011338	337.8843990929705	67	127
337.6754195011338	337.8843990929705	74	127
337.8843990929705	338.09337868480725	74	127
337.8843990929705	338.09337868480725	67	127
337.8843990929705	338.09337868480725	77	127
338.1049886621315	338.31396825396826	76	127
338.1049886621315	338.31396825396826	70	127
338.3255782312925	338.53455782312926	76	127
338.3255782312925	338.53455782312926	70	127
338.54616780045353	338.7783446712018	70	127
338.54616780045353	338.7783446712018	76	127
338.789977324263	339.010566893424	75	127
338.789977324263	339.010566893424	69	127
339.010566893424	339.2427664399093	75	127
339.010566893424	339.2427664399093	69	127
339.2427664399093	339.4285260770975	75	127
339.2427664399093	339.4285260770975	69	127
339.4285260770975	339.6491156462585	74	127
339.4285260770975	339.6491156462585	68	127
339.6491156462585	339.846485260771	68	127
339.6491156462585	339.846485260771	74	127
339.85809523809525	340.0902947845805	68	127
339.85809523809525	340.0902947845805	74	127
340.1018820861678	340.32249433106574	72	127
340.1018820861678	340.32249433106574	67	127
340.33410430839	340.51984126984127	67	127
340.33410430839	340.51984126984127	72	127
340.5314739229025	340.76367346938775	67	127
340.5314739229025	340.76367346938775	74	127
340.76367346938775	340.8681632653061	75	127
341.07714285714286	341.18163265306123	72	127
341.07714285714286	341.18163265306123	77	127
341.40222222222224	341.5995918367347	55	127
341.40222222222224	341.71569160997734	67	127
341.40222222222224	342.12204081632655	55	127
341.40222222222224	342.08721088435374	72	127
341.5531519274376	342.08721088435374	79	127
341.611201814059	341.83179138322	55	127
341.84337868480725	342.08721088435374	55	127
342.12204081632655	342.84185941043086	56	127
342.12204081632655	342.40068027210884	56	127
342.12204081632655	342.84185941043086	56	127
342.40068027210884	342.62126984126985	56	127
342.62126984126985	342.84185941043086	56	127
342.84185941043086	343.66616780045354	50	127
342.84185941043086	343.66616780045354	62	127
342.84185941043086	343.0508390022676	62	127
343.06244897959186	343.2249886621315	62	127
343.2365986394558	343.44557823129253	62	127
343.4571882086168	343.65455782312927	62	127
343.66616780045354	343.8751473922903	62	127
343.7706575963719	344.0957142857143	59	127
343.7706575963719	344.0957142857143	47	127
343.8751473922903	344.0957142857143	59	127
344.0957142857143	344.4556462585034	48	127
344.0957142857143	344.33954648526077	60	127
344.0957142857143	344.4556462585034	60	127
344.33954648526077	344.5485260770975	60	127
344.4556462585034	344.7691156462585	55	127
344.4556462585034	344.7691156462585	67	127
344.5601360544218	344.75750566893424	67	127
344.7691156462585	344.9897052154195	66	127
344.7691156462585	345.0941950113379	66	127
344.7691156462585	345.0941950113379	54	127
344.9897052154195	345.233514739229	66	127
345.0941950113379	345.4889342403628	72	127
345.0941950113379	345.4889342403628	60	127
345.25673469387755	345.4889342403628	72	127
345.4889342403628	345.8140136054422	71	127
345.4889342403628	345.8140136054422	59	127
345.4889342403628	345.70952380952383	71	127
345.70952380952383	345.9068934240363	71	127
345.8140136054422	346.1274829931973	65	127
345.8140136054422	346.1274829931973	77	127
345.9068934240363	346.1274829931973	65	127
346.1390702947846	346.6383219954649	63	127
346.1390702947846	346.33646258503404	63	127
346.1390702947846	346.6383219954649	75	127
346.3480498866213	346.52222222222224	63	127
346.5338321995465	346.7195918367347	63	127
346.951768707483	347.14916099773245	62	127
347.0446712018141	347.4161904761905	60	127
347.0446712018141	347.7528798185941	74	127
347.14916099773245	347.4161904761905	62	127
347.4161904761905	347.6367800453515	62	127
347.4161904761905	347.7528798185941	59	127
347.64839002267576	347.86897959183676	62	127
347.7528798185941	348.101179138322	65	127
347.7528798185941	348.101179138322	71	127
347.88056689342403	348.0895691609977	59	127
348.101179138322	348.4030385487528	64	127
348.101179138322	348.29854875283445	60	127
348.101179138322	348.4030385487528	72	127
348.3101587301587	348.4494784580499	60	127
348.4030385487528	348.6816780045352	79	127
348.4030385487528	348.6816780045352	58	127
348.4494784580499	348.6816780045352	67	127
348.6816780045352	348.8906575963719	78	127
348.6816780045352	348.8906575963719	72	127
348.6816780045352	349.01836734693876	57	127
348.8906575963719	349.11124716553286	72	127
348.8906575963719	349.11124716553286	78	127
349.01836734693876	349.34344671201814	62	127
349.12285714285713	349.33183673469387	78	127
349.12285714285713	349.33183673469387	72	127
349.34344671201814	349.56403628117914	77	127
349.34344671201814	349.56403628117914	71	127
349.34344671201814	349.69174603174605	61	127
349.5756462585034	349.7962358276644	71	127
349.5756462585034	349.7962358276644	77	127
349.69174603174605	350.0168253968254	56	127
349.8078458049887	350.00521541950116	71	127
349.8078458049887	350.00521541950116	77	127
350.0168253968254	350.22578231292516	76	127
350.0168253968254	350.22578231292516	70	127
350.0168253968254	350.3651247165533	55	127
350.22578231292516	350.46961451247165	70	127
350.22578231292516	350.46961451247165	76	127
350.3651247165533	350.6669841269841	60	127
350.46961451247165	350.6669841269841	70	127
350.46961451247165	350.6669841269841	76	127
350.6785941043084	350.8643537414966	75	127
350.6785941043084	350.8643537414966	69	127
350.6785941043084	350.96884353741495	59	127
350.87596371882086	351.06172335600905	69	127
350.87596371882086	351.06172335600905	75	127
350.96884353741495	351.2126530612245	54	127
351.06172335600905	351.20104308390023	75	127
351.06172335600905	351.20104308390023	69	127
351.2126530612245	351.4448526077098	74	127
351.2126530612245	351.4448526077098	68	127
351.2126530612245	351.5841723356009	53	127
351.45643990929705	351.677052154195	74	127
351.45643990929705	351.677052154195	68	127
351.5841723356009	351.897641723356	58	127
351.677052154195	351.897641723356	68	127
351.677052154195	351.897641723356	74	127
351.897641723356	352.10662131519274	74	127
351.897641723356	352.2227210884354	59	127
351.897641723356	352.10662131519274	67	127
352.118231292517	352.3039909297052	67	127
352.118231292517	352.3039909297052	74	127
352.2227210884354	352.5245804988662	53	127
352.3156009070295	352.5245804988662	74	127
352.3156009070295	352.5245804988662	67	127
352.5361904761905	352.6522902494331	75	127
352.5361904761905	352.6522902494331	67	127
352.5361904761905	352.6522902494331	51	127
352.87287981859413	353.000589569161	72	127
352.87287981859413	353.000589569161	77	127
352.87287981859413	353.000589569161	60	127
352.87287981859413	353.000589569161	44	127
352.87287981859413	353.000589569161	65	127
353.2095691609977	353.4301587301587	60	127
353.2095691609977	353.4301587301587	67	127
353.2095691609977	353.6159183673469	72	127
353.2095691609977	353.6159183673469	79	127
353.2095691609977	353.4301587301587	43	127
353.929387755102	354.3821768707483	71	127
353.929387755102	354.59115646258505	62	127
353.929387755102	354.3821768707483	79	127
353.929387755102	354.3821768707483	55	127
353.929387755102	354.1731972789116	55	127
354.1731972789116	354.59115646258505	67	127
354.81174603174605	355.18326530612245	60	127
354.81174603174605	355.5663945578231	36	127
354.81174603174605	355.5663945578231	48	127
354.81174603174605	355.55478458049885	66	127
354.81174603174605	355.5663945578231	60	127
355.03231292517006	355.55478458049885	72	127
355.5663945578231	357.8419501133787	48	127
355.5663945578231	357.8419501133787	60	127
357.8419501133787	358.57337868480727	59	127
357.8419501133787	358.57337868480727	47	127
358.57337868480727	359.2003174603175	60	127
358.57337868480727	359.2003174603175	48	127
359.3396371882086	362.38145124716556	48	127
359.3396371882086	362.38145124716556	60	127
362.38145124716556	363.0432199546485	59	127
362.38145124716556	363.0432199546485	47	127
363.0432199546485	364.0997278911565	48	127
363.0432199546485	364.4944671201814	60	127
364.11133786848075	364.8775963718821	51	127
364.4944671201814	365.272335600907	59	127
364.88920634920635	365.65546485260774	51	127
365.272335600907	366.06181405895694	60	127
365.65546485260774	366.4101133786848	51	127
366.06181405895694	366.83968253968254	62	127
366.42172335600907	367.1647619047619	51	127
366.83968253968254	367.5478911564626	59	127
367.1763718820862	367.96585034013606	51	127
367.5478911564626	368.27931972789116	60	127
367.9774603174603	368.41863945578234	51	127
368.4302267573696	369.27777777777777	65	127
368.4302267573696	368.84820861678	48	127
368.84820861678	369.66090702947844	48	127
369.27777777777777	369.9975963718821	63	127
369.66090702947844	370.38072562358275	48	127
369.9975963718821	370.392335600907	62	127
370.392335600907	370.83351473922903	48	127
370.392335600907	370.83351473922903	57	127
370.83351473922903	371.1934013605442	51	127
370.83351473922903	372.5634013605442	60	127
371.1934013605442	371.715873015873	57	127
371.715873015873	372.2847619047619	50	127
372.2847619047619	372.7839909297052	55	127
372.7839909297052	373.7127891156463	67	127
372.7839909297052	373.27160997732426	59	127
372.7839909297052	373.27160997732426	50	127
373.27160997732426	373.701179138322	55	127
373.27160997732426	373.701179138322	65	127
373.7127891156463	374.2004081632653	64	127
373.7127891156463	374.2004081632653	52	127
373.7127891156463	374.6415873015873	72	127
374.2004081632653	374.6415873015873	67	127
374.2004081632653	374.6415873015873	55	127
374.6415873015873	375.1059863945578	62	127
374.6415873015873	375.50072562358275	71	127
374.6415873015873	375.1059863945578	50	127
375.1059863945578	375.50072562358275	67	127
375.1059863945578	375.50072562358275	55	127
375.50072562358275	375.9767346938776	52	127
375.50072562358275	375.9767346938776	64	127
375.50072562358275	375.66326530612247	72	127
375.66326530612247	375.8374149659864	74	127
375.8374149659864	375.9767346938776	72	127
375.9767346938776	376.3830839002268	55	127
375.9767346938776	376.1973015873016	71	127
375.9767346938776	376.3830839002268	67	127
376.1973015873016	376.39467120181405	72	127
376.39467120181405	376.6965532879819	65	127
376.39467120181405	376.6965532879819	53	127
376.39467120181405	377.1841723356009	74	127
376.6965532879819	377.1841723356009	67	127
376.6965532879819	377.1841723356009	55	127
377.1841723356009	377.5556916099773	62	127
377.1841723356009	377.98526077097506	71	127
377.1841723356009	377.5556916099773	50	127
377.5556916099773	377.98526077097506	67	127
377.5556916099773	377.98526077097506	55	127
377.98526077097506	378.4496371882086	64	127
377.98526077097506	378.7282993197279	72	127
377.98526077097506	378.4496371882086	52	127
378.4496371882086	378.8792290249433	67	127
378.4496371882086	378.8792290249433	55	127
378.8792290249433	379.3900680272109	57	127
378.8792290249433	379.3900680272109	69	127
378.8792290249433	379.6686848072562	77	127
379.3900680272109	379.6686848072562	72	127
379.3900680272109	379.6686848072562	60	127
379.6686848072562	380.4581859410431	76	127
379.6686848072562	380.0866439909297	67	127
379.6686848072562	380.0866439909297	55	127
380.0866439909297	380.4581859410431	60	127
380.0866439909297	380.4581859410431	72	127
380.4581859410431	380.8761451247166	53	127
380.4581859410431	380.8761451247166	65	127
380.4581859410431	380.8761451247166	74	127
380.8761451247166	381.3637641723356	54	127
380.8761451247166	381.3637641723356	69	127
380.8761451247166	381.3637641723356	66	127
381.3753741496599	382.2345124716553	72	127
381.3753741496599	381.8281632653061	69	127
381.3753741496599	381.8281632653061	57	127
381.8281632653061	382.2345124716553	50	127
381.8281632653061	382.2345124716553	62	127
382.2345124716553	382.6873015873016	55	127
382.2345124716553	382.6873015873016	67	127
382.2345124716553	383.34907029478455	71	127
382.6873015873016	383.0936507936508	62	127
382.6873015873016	383.0936507936508	50	127
383.0936507936508	383.51160997732427	55	127
383.0936507936508	383.5	67	127
383.51160997732427	383.98761904761903	67	127
383.51160997732427	383.98761904761903	71	127
383.51160997732427	383.98761904761903	62	127
383.9992290249433	384.823537414966	62	127
383.9992290249433	384.823537414966	71	127
383.9992290249433	384.823537414966	68	127
384.823537414966	385.9148752834467	60	127
384.823537414966	385.9148752834467	69	127
384.823537414966	385.9148752834467	72	127
386.06580498866214	386.50698412698415	70	127
386.06580498866214	386.50698412698415	64	127
386.06580498866214	386.50698412698415	72	127
386.50698412698415	387.3080725623583	69	127
386.50698412698415	386.92494331065757	65	127
386.50698412698415	386.92494331065757	72	127
386.92494331065757	387.3080725623583	73	127
386.92494331065757	387.296462585034	63	127
387.3080725623583	388.50390022675737	70	127
387.3080725623583	388.50390022675737	62	127
387.3080725623583	388.50390022675737	74	127
388.6548299319728	389.1192290249433	74	127
388.6548299319728	389.5720181405896	70	127
388.6548299319728	389.1192290249433	65	127
389.1308390022676	389.5720181405896	67	127
389.1308390022676	389.5836281179138	75	127
389.5836281179138	390.0596371882086	76	127
389.5836281179138	390.0596371882086	67	127
389.5836281179138	390.0596371882086	70	127
390.0596371882086	390.90716553287984	72	127
390.0596371882086	390.50081632653064	77	127
390.0596371882086	390.50081632653064	69	127
390.50081632653064	390.90716553287984	76	127
390.50081632653064	390.90716553287984	67	127
390.90716553287984	391.26707482993197	65	127
390.90716553287984	391.62698412698415	69	127
390.90716553287984	391.26707482993197	74	127
391.26707482993197	391.77791383219954	63	127
391.26707482993197	391.77791383219954	72	127
391.77791383219954	392.99696145124716	62	127
391.77791383219954	392.27714285714285	72	127
391.77791383219954	392.99696145124716	67	127
392.27714285714285	392.6951020408163	69	127
392.6951020408163	393.1478911564626	71	127
393.1478911564626	393.58907029478456	69	127
393.1478911564626	393.58907029478456	57	127
393.1478911564626	393.5774603174603	74	127
393.58907029478456	393.9373696145125	71	127
393.58907029478456	394.81972789115645	79	127
393.58907029478456	393.9373696145125	59	127
393.9373696145125	394.3437188208617	74	127
393.9373696145125	394.3437188208617	62	127
394.35532879818595	394.8313378684807	60	127
394.35532879818595	394.8313378684807	72	127
394.8313378684807	395.2492970521542	58	127
394.8313378684807	395.2492970521542	70	127
394.8313378684807	395.2376870748299	80	127
395.2492970521542	395.551156462585	57	127
395.2492970521542	395.551156462585	69	127
395.2492970521542	396.1897052154195	81	127
395.551156462585	395.9226757369614	61	127
395.551156462585	395.9226757369614	73	127
395.9226757369614	396.3174149659864	62	127
395.9226757369614	396.3174149659864	74	127
396.3174149659864	396.65410430839	82	127
396.3174149659864	396.65410430839	72	127
396.3174149659864	396.65410430839	60	127
396.6657142857143	397.1301133786848	59	127
396.6657142857143	397.7338321995465	83	127
396.6657142857143	397.1301133786848	71	127
397.1301133786848	397.4784126984127	75	127
397.1301133786848	397.4784126984127	63	127
397.4784126984127	397.89637188208616	76	127
397.4784126984127	397.89637188208616	64	127
397.89637188208616	398.3259410430839	62	127
397.89637188208616	398.3259410430839	74	127
397.89637188208616	398.31433106575963	83	127
398.3259410430839	398.80195011337867	72	127
398.3259410430839	398.80195011337867	60	127
398.3259410430839	400.75242630385486	84	127
398.81356009070294	399.31278911564624	67	127
398.81356009070294	399.31278911564624	79	127
399.31278911564624	399.7307482993197	65	127
399.31278911564624	399.7307482993197	77	127
399.742358276644	400.12548752834465	70	127
399.742358276644	400.12548752834465	58	127
400.12548752834465	400.4970068027211	57	127
400.12548752834465	400.4970068027211	69	127
400.5086167800454	400.98462585034014	67	127
400.5086167800454	400.98462585034014	55	127
400.98462585034014	401.3793650793651	53	127
400.98462585034014	402.0991836734694	84	127
400.98462585034014	401.3793650793651	65	127
401.3793650793651	401.76249433106574	64	127
401.3793650793651	401.76249433106574	52	127
401.77410430839	403.0744217687075	63	127
401.77410430839	403.0744217687075	51	127
402.0991836734694	402.5287528344671	81	127
402.5287528344671	402.84222222222223	78	127
402.84222222222223	403.2834013605442	75	127
403.2834013605442	403.70136054421766	72	127
403.2834013605442	404.1309297052154	60	127
403.2834013605442	404.1309297052154	69	127
403.70136054421766	404.1309297052154	69	127
404.1309297052154	404.78108843537416	66	127
404.1309297052154	405.5821768707483	63	127
404.1309297052154	405.5821768707483	72	127
405.82598639455784	406.85927437641726	90	127
405.82598639455784	406.5806349206349	72	127
405.82598639455784	406.5806349206349	63	127
406.5806349206349	407.76485260770977	75	127
406.5806349206349	407.76485260770977	66	127
406.85927437641726	407.2540136054422	87	127
407.2540136054422	407.5674829931973	84	127
407.5674829931973	407.95061224489797	81	127
407.95061224489797	408.4034013605442	78	127
407.95061224489797	408.8445804988662	66	127
407.95061224489797	408.8445804988662	75	127
408.4034013605442	408.83297052154194	75	127
408.8445804988662	409.4831292517007	69	127
408.8445804988662	410.3306575963719	78	127
408.8445804988662	410.3306575963719	69	127
409.6340589569161	410.78344671201813	90	127
410.5628571428571	411.13174603174605	66	127
410.5628571428571	411.13174603174605	75	127
410.78344671201813	411.13174603174605	87	127
411.13174603174605	412.6990929705215	78	127
411.13174603174605	412.6990929705215	69	127
411.13174603174605	411.5613151927438	81	127
411.5613151927438	412.0605442176871	78	127
412.0605442176871	412.40884353741495	77	127
412.40884353741495	413.2447619047619	75	127
412.90807256235826	413.76721088435374	54	127
412.90807256235826	413.76721088435374	69	127
413.25637188208617	413.76721088435374	75	127
413.76721088435374	414.67278911564625	55	127
413.76721088435374	414.22	77	127
413.76721088435374	414.54507936507935	70	127
414.23160997732424	415.0559183673469	75	127
414.67278911564625	415.4274376417234	53	127
415.0675283446712	415.84539682539685	74	127
415.4274376417234	416.21691609977324	55	127
415.8570068027211	416.21691609977324	75	127
416.21691609977324	416.6000453514739	76	127
416.21691609977324	417.0412244897959	56	127
416.6000453514739	417.4243537414966	77	127
417.0412244897959	417.7726530612245	53	127
417.43596371882086	418.1093424036281	74	127
417.7726530612245	418.4228117913832	55	127
418.12095238095236	418.22544217687073	75	127
418.22544217687073	418.3067120181406	77	127
418.3067120181406	418.38798185941044	75	127
418.38798185941044	418.4692517006803	74	127
418.4692517006803	418.5853514739229	75	127
418.5969614512472	418.92204081632656	82	127
418.5969614512472	418.92204081632656	51	127
418.92204081632656	419.29356009070295	80	127
418.92204081632656	419.75795918367345	63	127
419.3051700680272	419.7695691609977	80	127
419.7695691609977	420.222358276644	63	127
419.7695691609977	420.21074829931973	79	127
420.222358276644	420.5358276643991	79	127
420.222358276644	420.66353741496596	60	127
420.5358276643991	420.7796371882086	77	127
420.66353741496596	420.9537868480726	53	127
420.7796371882086	420.9537868480726	72	127
420.9537868480726	421.70843537414964	75	127
420.9537868480726	421.3601360544218	60	127
421.3601360544218	421.70843537414964	53	127
421.70843537414964	422.7185034013605	74	127
421.70843537414964	422.11478458049885	46	127
422.11478458049885	422.4514739229025	53	127
422.11478458049885	422.4514739229025	62	127
422.4514739229025	422.86943310657597	74	127
422.4514739229025	422.86943310657597	58	127
422.86943310657597	423.25256235827663	56	127
422.86943310657597	423.25256235827663	74	127
422.86943310657597	423.25256235827663	72	127
423.2641723356009	424.0884807256236	74	127
423.2641723356009	423.6821315192744	71	127
423.2641723356009	423.6821315192744	55	127
423.6821315192744	424.0884807256236	43	127
423.6821315192744	424.0884807256236	65	127
424.0884807256236	424.50643990929706	63	127
424.0884807256236	424.50643990929706	48	127
424.0884807256236	425.11015873015873	75	127
424.50643990929706	424.81990929705216	55	127
424.50643990929706	424.81990929705216	72	127
424.81990929705216	425.1798185941043	60	127
424.81990929705216	425.1798185941043	75	127
425.1798185941043	425.6209977324263	75	127
425.1798185941043	425.6209977324263	73	127
425.1798185941043	425.6209977324263	58	127
425.6326077097506	426.0273469387755	56	127
425.6326077097506	426.0273469387755	72	127
425.6326077097506	425.8996371882086	75	127
426.0273469387755	426.4104761904762	66	127
426.0273469387755	426.4104761904762	44	127
426.0273469387755	426.1550566893424	76	127
426.4104761904762	426.82843537414965	49	127
426.4104761904762	426.82843537414965	65	127
426.4104761904762	427.3857142857143	77	127
426.82843537414965	427.1186848072562	73	127
426.82843537414965	427.1186848072562	56	127
427.1186848072562	427.5250340136054	77	127
427.1186848072562	427.5250340136054	61	127
427.5250340136054	427.96621315192743	59	127
427.5250340136054	427.96621315192743	77	127
427.5250340136054	427.96621315192743	75	127
427.96621315192743	428.37256235827664	77	127
427.96621315192743	428.37256235827664	74	127
427.96621315192743	428.37256235827664	58	127
428.37256235827664	428.8369614512472	46	127
428.37256235827664	428.8485714285714	68	127
428.37256235827664	428.8485714285714	78	127
428.8485714285714	429.22009070294786	70	127
428.8485714285714	429.2084807256236	51	127
428.8485714285714	429.22009070294786	79	127
429.22009070294786	429.6148299319728	39	127
429.22009070294786	429.62643990929706	67	127
429.22009070294786	429.6148299319728	75	127
429.62643990929706	430.1488888888889	63	127
429.62643990929706	430.13727891156464	41	127
429.62643990929706	429.99795918367346	72	127
430.1488888888889	430.57845804988665	60	127
430.1488888888889	430.57845804988665	41	127
430.1488888888889	430.31142857142856	69	127
430.59006802721086	431.26344671201815	46	127
430.59006802721086	431.39115646258506	72	127
430.59006802721086	431.39115646258506	63	127
431.39115646258506	432.13419501133785	70	127
431.39115646258506	432.13419501133785	62	127
451.80149659863946	452.84639455782315	50	127
451.80149659863946	452.84639455782315	65	127
451.80149659863946	452.84639455782315	69	127
452.84639455782315	453.856462585034	63	127
452.84639455782315	453.856462585034	58	127
452.84639455782315	453.856462585034	67	127
453.856462585034	454.6459410430839	55	127
453.856462585034	454.6459410430839	64	127
453.856462585034	454.6459410430839	61	127
454.8084807256236	455.621179138322	66	127
454.8084807256236	455.621179138322	62	127
454.8084807256236	455.621179138322	50	127
455.79532879818595	456.74734693877554	66	127
455.79532879818595	456.74734693877554	62	127
455.79532879818595	457.02598639455783	74	127
456.74734693877554	457.56004535147395	64	127
456.74734693877554	457.56004535147395	67	127
457.15369614512474	457.5484353741497	74	127
457.56004535147395	458.43079365079365	69	127
457.56004535147395	458.43079365079365	66	127
457.56004535147395	458.02444444444444	74	127
458.02444444444444	458.4191836734694	75	127
458.43079365079365	459.4524716553288	75	127
458.43079365079365	459.0345124716553	67	127
458.43079365079365	459.0345124716553	67	127
459.15061224489796	459.97492063492064	67	127
459.15061224489796	459.97492063492064	61	127
459.5801814058957	459.96331065759637	76	127
459.97492063492064	460.72956916099776	60	127
459.97492063492064	460.72956916099776	69	127
459.97492063492064	460.38126984126984	79	127
460.38126984126984	460.7179591836735	76	127
460.72956916099776	461.82090702947846	78	127
460.72956916099776	461.3448979591837	62	127
460.72956916099776	461.3448979591837	59	127
461.50743764172336	462.37818594104306	62	127
461.50743764172336	462.37818594104306	58	127
462.00666666666666	462.36657596371884	79	127
462.37818594104306	463.2605442176871	55	127
462.37818594104306	463.2605442176871	82	127
462.37818594104306	463.2605442176871	61	127
463.2605442176871	464.0268027210884	62	127
463.2605442176871	464.0268027210884	54	127
463.2605442176871	464.0268027210884	81	127
464.18934240362813	464.42154195011335	50	127
464.18934240362813	464.96721088435373	50	127
464.42154195011335	464.67696145124717	61	127
464.67696145124717	464.95560090702946	62	127
464.758231292517	464.96721088435373	62	127
464.96721088435373	465.2574603174603	73	127
464.96721088435373	465.7450793650794	43	127
465.2574603174603	465.5709297052154	74	127
465.5709297052154	465.8843990929705	78	127
465.8960090702948	466.789977324263	62	127
465.8960090702948	466.789977324263	71	127
465.8960090702948	466.2094784580499	79	127
466.2094784580499	466.49972789115645	81	127
466.49972789115645	466.789977324263	79	127
466.789977324263	467.6839455782313	69	127
466.789977324263	467.6839455782313	60	127
466.789977324263	467.1150566893424	78	127
467.1150566893424	467.40530612244896	79	127
467.40530612244896	467.6839455782313	78	127
467.6839455782313	468.41537414965984	59	127
467.6839455782313	468.41537414965984	68	127
467.6839455782313	467.9974149659864	77	127
467.9974149659864	468.2760544217687	79	127
468.2760544217687	468.41537414965984	77	127
468.41537414965984	468.67079365079366	75	127
468.41537414965984	469.1584126984127	67	127
468.41537414965984	469.1584126984127	60	127
468.67079365079366	469.01909297052157	77	127
469.01909297052157	469.30934240362814	75	127
469.30934240362814	470.0639909297052	58	127
469.30934240362814	470.0639909297052	67	127
469.30934240362814	469.5647619047619	73	127
469.5647619047619	469.80857142857144	75	127
469.80857142857144	470.05238095238093	73	127
470.0639909297052	470.9115192743764	57	127
470.0639909297052	470.49356009070294	64	127
470.0639909297052	470.319410430839	72	127
470.319410430839	470.6444897959184	71	127
470.49356009070294	470.9115192743764	67	127
470.6444897959184	470.9115192743764	72	127
470.9115192743764	471.15532879818596	72	127
470.9115192743764	471.4804081632653	60	127
470.9115192743764	471.4804081632653	56	127
471.15532879818596	471.4107482993197	73	127
471.4107482993197	471.6313378684807	72	127
471.6313378684807	471.9564172335601	68	127
471.6313378684807	472.5485260770975	60	127
471.6313378684807	472.5485260770975	65	127
471.9564172335601	472.25827664399094	70	127
472.25827664399094	472.53691609977324	68	127
472.5485260770975	473.3612244897959	57	127
472.5485260770975	472.79233560090705	66	127
472.5485260770975	473.3612244897959	63	127
472.79233560090705	473.0941950113379	67	127
473.0941950113379	473.3612244897959	66	127
473.3612244897959	474.0578231292517	62	127
473.3612244897959	474.0578231292517	59	127
473.3612244897959	473.66308390022675	67	127
473.66308390022675	473.895283446712	69	127
473.895283446712	474.19714285714286	67	127
474.19714285714286	474.48739229024943	63	127
474.19714285714286	475.07950113378683	57	127
474.19714285714286	475.07950113378683	66	127
474.48739229024943	474.80086167800454	65	127
474.80086167800454	475.07950113378683	63	127
475.07950113378683	475.74126984126985	59	127
475.07950113378683	475.74126984126985	67	127
475.07950113378683	475.3581405895692	62	127
475.3581405895692	475.61356009070295	63	127
475.61356009070295	475.89219954648524	62	127
475.9038095238095	476.809387755102	54	127
475.9038095238095	476.809387755102	69	127
475.9038095238095	476.2172789115646	60	127
476.2172789115646	476.51913832199546	62	127
476.51913832199546	476.809387755102	60	127
476.809387755102	477.15768707482994	59	127
476.809387755102	477.6336961451247	55	127
476.809387755102	477.6336961451247	71	127
477.15768707482994	477.4595464852608	60	127
477.4595464852608	477.7730158730159	59	127
477.78462585034015	478.1445351473923	58	127
477.78462585034015	478.5392743764172	51	127
477.78462585034015	478.5392743764172	43	127
478.1445351473923	478.5392743764172	63	127
478.5392743764172	478.82952380952383	67	127
478.5392743764172	478.82952380952383	55	127
478.82952380952383	479.1778231292517	58	127
478.82952380952383	479.1197732426304	58	127
478.82952380952383	479.1197732426304	70	127
479.1197732426304	479.3519727891156	75	127
479.1197732426304	479.3519727891156	63	127
479.3519727891156	479.65383219954646	67	127
479.3519727891156	479.65383219954646	79	127
479.65383219954646	479.9324716553288	70	127
479.65383219954646	479.9324716553288	82	127
479.9324716553288	480.19950113378684	67	127
479.9324716553288	480.19950113378684	79	127
480.19950113378684	480.47814058956914	75	127
480.19950113378684	480.47814058956914	63	127
480.47814058956914	480.95414965986396	58	127
480.47814058956914	480.95414965986396	70	127
480.47814058956914	480.8032199546485	46	127
480.8032199546485	481.1166893424036	51	127
481.1166893424036	481.4069387755102	55	127
481.41854875283445	481.6971882086168	58	127
481.41854875283445	482.2544671201814	56	127
481.6971882086168	481.96421768707484	62	127
481.96421768707484	482.2544671201814	65	127
482.2544671201814	482.73047619047617	55	127
482.2544671201814	482.73047619047617	70	127
482.2544671201814	482.5679365079365	82	127
482.5679365079365	482.8465759637188	79	127
482.8465759637188	483.05555555555554	75	127
483.05555555555554	483.4851247165533	70	127
483.05555555555554	483.3574149659864	46	127
483.3574149659864	483.6128344671202	50	127
483.6128344671202	483.8914739229025	53	127
483.8914739229025	484.2862131519274	58	127
483.8914739229025	484.1701133786848	58	127
484.1701133786848	484.4371428571429	62	127
484.4371428571429	484.68095238095236	65	127
484.68095238095236	484.99442176870747	82	127
484.68095238095236	485.1453514739229	70	127
484.99442176870747	485.31950113378684	79	127
485.31950113378684	485.5517006802721	75	127
485.5517006802721	485.9928798185941	75	127
485.5517006802721	485.85356009070296	48	127
485.85356009070296	486.1438095238095	51	127
486.1438095238095	486.41083900226755	56	127
486.41083900226755	486.77074829931973	58	127
486.41083900226755	486.6546485260771	63	127
486.6546485260771	486.89845804988664	67	127
486.89845804988664	487.16548752834467	70	127
487.16548752834467	487.6531065759637	72	127
487.16548752834467	487.49056689342405	68	127
487.49056689342405	487.7924263038549	72	127
487.7924263038549	487.98979591836735	77	127
488.0014058956916	488.8257142857143	66	127
488.0014058956916	488.2219954648526	45	127
488.2219954648526	488.52385487528346	48	127
488.52385487528346	488.8257142857143	51	127
488.8257142857143	489.2320634920635	46	127
488.8257142857143	489.2320634920635	65	127
488.8257142857143	489.0927437641723	58	127
489.0927437641723	489.3829931972789	62	127
489.3829931972789	489.68485260770973	65	127
489.68485260770973	490.0795918367347	70	127
489.68485260770973	489.9518820861678	77	127
489.9518820861678	490.21891156462584	74	127
490.21891156462584	490.53238095238095	70	127
490.5439909297052	490.93873015873015	70	127
490.5439909297052	490.81102040816324	46	127
490.81102040816324	491.07804988662133	51	127
491.07804988662133	491.3682993197279	55	127
491.3682993197279	491.681768707483	58	127
491.3682993197279	491.5540589569161	58	127
491.5540589569161	491.8675283446712	62	127
491.8675283446712	492.122947845805	65	127
492.122947845805	492.51768707482995	70	127
492.122947845805	492.38997732426304	82	127
492.38997732426304	492.6802267573696	79	127
492.6802267573696	492.83115646258506	75	127
492.84276643990927	493.2142857142857	75	127
492.84276643990927	493.1214058956916	51	127
493.1214058956916	493.3652154195011	56	127
493.3652154195011	493.6206349206349	60	127
493.6206349206349	493.9573242630386	63	127
493.6206349206349	493.8180045351474	63	127
493.8180045351474	494.11986394557823	67	127
494.11986394557823	494.30562358276643	70	127
494.3172335600907	494.74680272108844	75	127
494.3172335600907	494.6307029478458	87	127
494.6307029478458	494.8861224489796	84	127
494.8861224489796	495.18798185941046	80	127
495.18798185941046	495.5711111111111	75	127
495.18798185941046	495.4550113378685	46	127
495.4550113378685	495.7220408163265	51	127
495.7220408163265	496.00068027210887	58	127
496.00068027210887	496.41863945578234	60	127
496.00068027210887	496.29092970521543	63	127
496.29092970521543	496.5347392290249	69	127
496.5347392290249	496.74371882086166	72	127
496.74371882086166	497.01074829931974	70	127
496.74371882086166	497.1384580498866	74	127
497.01074829931974	497.2661678004535	74	127
497.2661678004535	497.5448072562358	80	127
497.55641723356007	498.00920634920635	79	127
497.55641723356007	497.8698866213152	46	127
497.8698866213152	498.19496598639455	51	127
498.19496598639455	498.4039455782313	55	127
498.4039455782313	498.6709750566893	63	127
498.4039455782313	498.8102947845805	78	127
498.4039455782313	498.8102947845805	58	127
498.6709750566893	498.96122448979594	66	127
498.96122448979594	499.1702040816327	70	127
499.1702040816327	499.64621315192744	71	127
499.1702040816327	499.4836734693878	68	127
499.4836734693878	499.8087528344671	71	127
499.8087528344671	500.05256235827665	76	127
500.0641723356009	500.5750113378685	75	127
500.0641723356009	500.377641723356	46	127
500.3892517006803	500.7259410430839	51	127
500.73755102040815	500.9465306122449	54	127
500.95814058956915	501.28321995464853	58	127
500.95814058956915	501.17873015873016	70	127
500.95814058956915	501.17873015873016	58	127
501.17873015873016	501.4689795918367	63	127
501.17873015873016	501.4689795918367	75	127
501.4689795918367	501.7940589569161	78	127
501.4689795918367	501.7940589569161	66	127
501.8056689342404	502.06108843537413	46	127
501.8056689342404	502.2120181405896	82	127
501.8056689342404	502.5719274376417	58	127
501.8056689342404	502.5719274376417	68	127
502.06108843537413	502.37455782312924	53	127
502.2120181405896	502.72285714285715	74	127
502.37455782312924	502.72285714285715	58	127
502.7460770975057	503.4891156462585	75	127
502.7460770975057	503.4891156462585	66	127
502.7460770975057	503.16403628117916	51	127
502.7460770975057	503.16403628117916	66	127
503.1756462585034	503.6516553287982	51	127
503.1756462585034	503.6516553287982	39	127
503.6516553287982	504.17410430839004	42	127
503.6516553287982	504.17410430839004	54	127
504.17410430839004	504.73138321995464	39	127
504.17410430839004	504.73138321995464	51	127
504.17410430839004	504.7546031746032	63	127
504.7546031746032	505.23061224489794	54	127
504.7546031746032	505.2422222222222	66	127
505.2422222222222	505.81111111111113	63	127
505.2422222222222	505.81111111111113	51	127
505.8227210884354	506.21746031746034	58	127
505.8227210884354	506.21746031746034	46	127
506.21746031746034	506.5541496598639	63	127
506.21746031746034	506.5541496598639	51	127
506.5541496598639	506.80956916099774	67	127
506.5541496598639	506.821179138322	55	127
506.821179138322	507.0069387755102	58	127
506.821179138322	507.0069387755102	70	127
506.821179138322	507.1578684807256	58	127
507.0069387755102	507.30879818594104	63	127
507.0069387755102	507.30879818594104	75	127
507.30879818594104	507.58743764172334	67	127
507.30879818594104	507.58743764172334	79	127
507.5990476190476	508.0982766439909	74	127
507.5990476190476	507.90090702947845	87	127
507.90090702947845	508.2259863945578	79	127
508.0982766439909	508.49301587301585	72	127
508.2259863945578	508.49301587301585	75	127
508.5046258503401	508.76004535147393	44	127
508.5046258503401	508.76004535147393	56	127
508.76004535147393	509.0502947845805	48	127
508.76004535147393	509.0502947845805	60	127
509.0502947845805	509.3289342403628	65	127
509.0502947845805	509.34054421768707	53	127
509.34054421768707	509.79333333333335	56	127
509.34054421768707	509.63079365079363	68	127
509.34054421768707	509.63079365079363	56	127
509.63079365079363	509.97909297052155	60	127
509.63079365079363	509.97909297052155	72	127
509.97909297052155	510.2693424036281	65	127
509.97909297052155	510.2693424036281	77	127
510.2809523809524	510.6873015873016	72	127
510.2809523809524	510.5595918367347	84	127
510.5595918367347	510.84984126984125	80	127
510.6873015873016	511.10526077097506	68	127
510.84984126984125	511.10526077097506	72	127
511.10526077097506	511.41873015873017	58	127
511.10526077097506	511.41873015873017	46	127
511.41873015873017	511.720589569161	51	127
511.41873015873017	511.720589569161	63	127
511.720589569161	512.0340362811792	55	127
511.720589569161	512.0340362811792	67	127
512.0340362811792	512.2894784580499	58	127
512.0340362811792	512.2894784580499	70	127
512.0340362811792	512.4171882086168	58	127
512.2894784580499	512.6145578231293	75	127
512.2894784580499	512.6145578231293	63	127
512.6145578231293	512.8931972789115	67	127
512.6145578231293	512.8931972789115	79	127
512.8931972789115	513.2066666666667	46	127
512.8931972789115	513.3924263038549	82	127
512.8931972789115	513.7175056689342	58	127
512.8931972789115	513.7175056689342	68	127
513.2066666666667	513.5549659863946	53	127
513.3924263038549	513.8800453514739	74	127
513.5549659863946	513.8800453514739	58	127
513.8916553287982	514.6230839002268	67	127
513.8916553287982	514.6230839002268	51	127
513.8916553287982	514.6230839002268	75	127
513.8916553287982	514.6230839002268	58	127
513.8916553287982	514.6230839002268	67	127
514.7856235827664	515.1455328798186	51	127
514.7856235827664	515.9930612244898	79	127
514.7856235827664	515.1455328798186	58	127
514.7856235827664	515.1455328798186	46	127
514.7856235827664	515.1455328798186	39	127
515.1455328798186	515.4357823129252	58	127
515.1455328798186	515.4357823129252	39	127
515.1455328798186	515.4357823129252	46	127
515.1455328798186	515.4357823129252	51	127
515.4473922902495	515.737641723356	46	127
515.4473922902495	515.737641723356	39	127
515.4473922902495	515.737641723356	58	127
515.4473922902495	515.737641723356	51	127
515.7492517006802	515.9814512471655	51	127
515.7492517006802	515.9814512471655	39	127
515.7492517006802	515.9814512471655	58	127
515.7492517006802	515.9814512471655	46	127
515.9930612244898	516.2252607709751	46	127
515.9930612244898	516.2252607709751	51	127
515.9930612244898	516.2252607709751	39	127
515.9930612244898	516.2252607709751	58	127
516.1323809523809	516.4806802721089	79	127
516.2368707482993	516.4806802721089	39	127
516.2368707482993	516.4806802721089	58	127
516.2368707482993	516.4806802721089	51	127
516.2368707482993	516.4806802721089	46	127
516.4922902494332	516.8057596371882	46	127
516.4922902494332	516.9682993197279	79	127
516.4922902494332	516.8057596371882	39	127
516.4922902494332	516.8057596371882	51	127
516.4922902494332	516.8057596371882	58	127
516.8173696145125	517.1540589569161	46	127
516.8173696145125	517.1540589569161	51	127
516.8173696145125	517.1540589569161	58	127
516.8173696145125	517.1540589569161	39	127
516.9682993197279	517.4210884353741	80	127
517.1540589569161	517.4210884353741	46	127
517.1540589569161	517.4210884353741	39	127
517.1540589569161	517.4210884353741	58	127
517.1540589569161	517.4210884353741	51	127
517.4326984126984	518.651746031746	80	127
517.4326984126984	517.7345578231293	58	127
517.4326984126984	517.7345578231293	46	127
517.4326984126984	517.7345578231293	51	127
517.4326984126984	517.7345578231293	39	127
517.7461451247166	517.989977324263	51	127
517.7461451247166	517.989977324263	58	127
517.7461451247166	517.989977324263	39	127
517.7461451247166	517.989977324263	46	127
518.0015873015873	518.2686167800454	51	127
518.0015873015873	518.2686167800454	58	127
518.0015873015873	518.2686167800454	46	127
518.0015873015873	518.2686167800454	39	127
518.2802267573696	518.5124263038549	46	127
518.2802267573696	518.5124263038549	58	127
518.2802267573696	518.5124263038549	51	127
518.2802267573696	518.5124263038549	39	127
518.5240362811792	518.7678231292517	51	127
518.5240362811792	518.7678231292517	39	127
518.5240362811792	518.7678231292517	58	127
518.5240362811792	518.7678231292517	46	127
518.651746031746	519.0580952380952	86	127
518.7678231292517	519.0580952380952	51	127
518.7678231292517	519.0580952380952	58	127
518.7678231292517	519.0580952380952	46	127
518.7678231292517	519.0580952380952	39	127
519.0580952380952	519.3367346938776	58	127
519.0580952380952	519.3367346938776	39	127
519.0580952380952	519.3367346938776	46	127
519.0580952380952	519.3367346938776	51	127
519.0580952380952	519.4760544217687	86	127
519.3483446712019	519.6269841269841	46	127
519.3483446712019	519.6269841269841	51	127
519.3483446712019	519.6269841269841	58	127
519.3483446712019	519.6269841269841	39	127
519.4760544217687	519.9636734693878	87	127
519.6385941043084	519.9636734693878	46	127
519.6385941043084	519.9636734693878	51	127
519.6385941043084	519.9636734693878	58	127
519.6385941043084	519.9636734693878	39	127
519.9752834467121	520.24231292517	39	127
519.9752834467121	520.24231292517	58	127
519.9752834467121	520.24231292517	51	127
519.9752834467121	520.24231292517	46	127
519.9752834467121	521.0434013605442	87	127
520.2539229024943	520.462902494331	39	127
520.2539229024943	520.462902494331	46	127
520.2539229024943	520.462902494331	58	127
520.2539229024943	520.462902494331	51	127
520.4745124716553	520.7299319727891	46	127
520.4745124716553	520.7299319727891	58	127
520.4745124716553	520.7299319727891	51	127
520.4745124716553	520.7299319727891	39	127
520.7415419501134	521.031768707483	39	127
520.7415419501134	521.031768707483	58	127
520.7415419501134	521.031768707483	51	127
520.7415419501134	521.031768707483	46	127
521.0434013605442	521.3336507936508	39	127
521.0434013605442	521.3336507936508	58	127
521.0434013605442	521.3336507936508	46	127
521.0434013605442	521.3336507936508	51	127
521.1943310657597	521.647097505669	87	127
521.3452607709751	521.647097505669	51	127
521.3452607709751	521.647097505669	39	127
521.3452607709751	521.647097505669	58	127
521.3452607709751	521.647097505669	46	127
521.6587301587301	521.9025396825397	51	127
521.6587301587301	521.9025396825397	39	127
521.6587301587301	521.9025396825397	63	127
521.6587301587301	521.960589569161	92	127
521.9025396825397	522.0882993197279	51	127
521.9025396825397	522.0882993197279	39	127
521.9025396825397	522.0882993197279	63	127
521.960589569161	522.3901587301588	91	127
522.0999092970521	522.3785487528345	51	127
522.0999092970521	522.3785487528345	63	127
522.0999092970521	522.3785487528345	39	127
522.3901587301588	522.6920181405895	89	127
522.3901587301588	522.6339682539683	39	127
522.3901587301588	522.6339682539683	63	127
522.3901587301588	522.6339682539683	51	127
522.6455555555556	522.842947845805	51	127
522.6455555555556	522.842947845805	63	127
522.6455555555556	522.842947845805	39	127
522.6920181405895	523.1448072562358	84	127
522.8545351473923	523.1448072562358	51	127
522.8545351473923	523.1448072562358	39	127
522.8545351473923	523.1448072562358	63	127
523.1564172335601	523.458276643991	39	127
523.1564172335601	523.458276643991	51	127
523.1564172335601	523.458276643991	46	127
523.1564172335601	523.458276643991	58	127
523.1564172335601	523.2841269841269	86	127
523.2841269841269	523.4002267573696	87	127
523.4002267573696	523.504716553288	86	127
523.4698639455783	523.7833560090703	58	127
523.4698639455783	523.7833560090703	46	127
523.4698639455783	523.7833560090703	51	127
523.4698639455783	523.7833560090703	39	127
523.504716553288	523.6324263038549	87	127
523.6324263038549	523.7485260770975	86	127
523.7485260770975	523.8646258503402	87	127
523.7833560090703	524.0736054421769	46	127
523.7833560090703	524.0736054421769	51	127
523.7833560090703	524.0736054421769	39	127
523.7833560090703	524.0736054421769	58	127
523.8646258503402	523.9691156462585	84	127
523.9691156462585	524.0736054421769	86	127
524.0851927437642	524.5263945578231	87	127
524.0851927437642	524.3754648526077	39	127
524.0851927437642	524.5147845804988	58	127
524.0851927437642	524.5147845804988	51	127
524.0851927437642	524.3754648526077	46	127
524.387074829932	524.6889115646259	46	127
524.387074829932	524.6889115646259	39	127
524.5263945578231	525.0140136054422	82	127
524.7005215419501	525.0140136054422	46	127
524.7005215419501	525.0140136054422	39	127
525.0256235827665	527.916507936508	82	127
525.0256235827665	525.3390929705215	39	127
525.0256235827665	525.3390929705215	46	127
525.0256235827665	526.198231292517	67	127
525.3507029478458	525.6641723356009	46	127
525.3507029478458	525.6641723356009	39	127
525.6757823129252	525.9428117913832	46	127
525.6757823129252	525.9428117913832	39	127
525.9428117913832	526.198231292517	46	127
525.9428117913832	526.198231292517	39	127
526.198231292517	526.418820861678	46	127
526.198231292517	526.418820861678	39	127
526.2795011337869	526.7554875283447	67	127
526.4304308390023	526.7554875283447	39	127
526.4304308390023	526.7554875283447	46	127
526.7671201814059	527.0573696145125	46	127
526.7671201814059	527.0573696145125	39	127
526.7671201814059	527.2199092970521	67	127
527.0689795918368	527.3708163265306	39	127
527.0689795918368	527.3708163265306	46	127
527.2199092970521	527.6378684807256	68	127
527.3824489795918	527.6378684807256	46	127
527.3824489795918	527.6378684807256	39	127
527.6494784580499	527.916507936508	46	127
527.6494784580499	527.916507936508	39	127
527.6494784580499	528.8569160997732	68	127
527.916507936508	528.183514739229	39	127
527.916507936508	528.183514739229	46	127
528.0558276643991	528.4273469387755	82	127
528.183514739229	528.4273469387755	46	127
528.183514739229	528.4273469387755	39	127
528.4389569160998	528.7292063492064	39	127
528.4389569160998	530.7145124716553	82	127
528.4389569160998	528.7292063492064	46	127
528.7408163265306	528.9962131519275	39	127
528.7408163265306	528.9962131519275	46	127
528.8569160997732	529.3213151927438	74	127
529.0078231292517	529.3213151927438	46	127
529.0078231292517	529.3213151927438	39	127
529.332925170068	529.6347845804988	39	127
529.332925170068	529.7857142857143	74	127
529.6463945578231	529.948253968254	39	127
529.7857142857143	530.2733333333333	75	127
529.9598639455783	530.2733333333333	39	127
530.2849433106576	530.5403628117914	39	127
530.2849433106576	531.3646712018141	75	127
530.5519727891157	530.8190022675738	39	127
530.7145124716553	531.1092517006803	87	127
530.830589569161	531.1092517006803	39	127
531.1092517006803	531.3530612244898	39	127
531.1092517006803	531.8058503401361	87	127
531.3646712018141	531.6432879818594	39	127
531.5156009070295	531.98	75	127
531.6548979591837	531.98	39	127
531.98	532.2702267573696	39	127
531.98	532.4327891156463	92	127
531.98	532.4327891156463	80	127
532.2818594104308	532.595328798186	39	127
532.4327891156463	532.9320181405895	79	127
532.4327891156463	532.9320181405895	91	127
532.6069387755102	532.9204081632653	39	127
532.9320181405895	533.2338775510204	39	127
532.9320181405895	533.3151473922902	89	127
532.9320181405895	533.3151473922902	77	127
533.2454875283447	533.4312471655329	39	127
533.3151473922902	533.7214965986394	84	127
533.3151473922902	533.7214965986394	72	127
533.4428571428572	533.7214965986394	39	127
533.7331065759637	534.011746031746	39	127
533.7331065759637	533.8375963718821	86	127
533.7331065759637	533.8375963718821	74	127
533.8375963718821	533.9420861678004	87	127
533.8375963718821	533.9420861678004	75	127
533.9420861678004	534.0581859410431	74	127
533.9420861678004	534.0581859410431	86	127
534.0233560090703	534.2671655328799	39	127
534.0581859410431	534.1394557823129	87	127
534.0581859410431	534.1394557823129	75	127
534.1394557823129	534.232335600907	74	127
534.1394557823129	534.232335600907	86	127
534.232335600907	534.3484353741496	75	127
534.232335600907	534.3484353741496	87	127
534.2787755102041	534.5341950113378	39	127
534.3484353741496	534.4180952380952	84	127
534.3484353741496	534.4180952380952	72	127
534.4180952380952	534.5341950113378	74	127
534.4180952380952	534.5341950113378	86	127
534.5458049886621	535.0102040816327	75	127
534.5458049886621	534.8360544217687	39	127
534.5458049886621	535.0102040816327	87	127
534.8360544217687	535.161133786848	39	127
535.0102040816327	535.4629931972789	74	127
535.0102040816327	535.4629931972789	86	127
535.1727437641723	535.4513832199547	39	127
535.4629931972789	535.8461224489796	72	127
535.4629931972789	535.8461224489796	84	127
535.4629931972789	535.7068027210885	39	127
535.7184126984127	535.9622222222222	39	127
535.8461224489796	536.3337414965987	67	127
535.8461224489796	536.3337414965987	79	127
535.9738321995465	536.3337414965987	39	127
536.345328798186	536.4498412698413	67	127
536.345328798186	536.6356009070295	39	127
536.345328798186	536.4498412698413	79	127
536.4498412698413	536.565918367347	68	127
536.4498412698413	536.565918367347	80	127
536.565918367347	536.6820408163265	67	127
536.565918367347	536.6820408163265	79	127
536.6472108843537	536.9606575963719	39	127
536.6820408163265	536.8097505668934	68	127
536.6820408163265	536.8097505668934	80	127
536.8097505668934	536.9258503401361	79	127
536.8097505668934	536.9258503401361	67	127
536.9258503401361	537.0419501133787	80	127
536.9258503401361	537.0419501133787	68	127
536.9606575963719	537.2509297052154	39	127
537.0419501133787	537.1464399092971	65	127
537.0419501133787	537.1464399092971	77	127
537.1464399092971	537.2509297052154	67	127
537.1464399092971	537.2509297052154	79	127
537.2625396825397	537.5643990929706	39	127
537.2625396825397	537.6688888888889	68	127
537.2625396825397	537.6688888888889	80	127
537.5759863945578	537.80820861678	39	127
537.6688888888889	538.0868480725624	67	127
537.6688888888889	538.0868480725624	79	127
537.8198185941043	538.0868480725624	39	127
538.0868480725624	538.377097505669	39	127
538.0868480725624	538.5396371882086	77	127
538.0868480725624	538.5396371882086	65	127
538.3886848072563	538.7137868480726	39	127
538.5396371882086	539.0504761904762	72	127
538.5396371882086	539.0504761904762	60	127
538.7253968253968	539.0504761904762	39	127
539.0504761904762	539.5729251700681	46	127
539.0504761904762	539.1665759637189	62	127
539.0504761904762	539.5729251700681	39	127
539.0504761904762	539.1665759637189	74	127
539.1665759637189	539.2826757369614	63	127
539.1665759637189	539.2826757369614	75	127
539.2826757369614	539.4568253968254	74	127
539.2826757369614	539.4568253968254	62	127
539.4568253968254	539.5729251700681	75	127
539.4568253968254	539.5729251700681	63	127
539.5729251700681	539.6774149659864	62	127
539.5729251700681	540.0024943310658	39	127
539.5729251700681	540.0024943310658	46	127
539.5729251700681	539.6774149659864	74	127
539.6774149659864	539.7702947845805	63	127
539.6774149659864	539.7702947845805	75	127
539.7702947845805	539.8980045351474	74	127
539.7702947845805	539.8980045351474	62	127
539.8980045351474	540.0141043083901	63	127
539.8980045351474	540.0141043083901	75	127
540.0141043083901	540.4901133786848	39	127
540.0141043083901	540.1650340136055	74	127
540.0141043083901	540.4901133786848	46	127
540.0141043083901	540.1650340136055	62	127
540.1650340136055	540.2579138321995	75	127
540.1650340136055	540.2579138321995	63	127
540.2579138321995	540.3740136054422	62	127
540.2579138321995	540.3740136054422	74	127
540.3740136054422	540.501723356009	63	127
540.3740136054422	540.501723356009	75	127
540.501723356009	540.9777324263039	46	127
540.501723356009	540.6410204081633	74	127
540.501723356009	540.9777324263039	39	127
540.501723356009	540.6410204081633	62	127
540.6410204081633	540.7803628117914	63	127
540.6410204081633	540.7803628117914	75	127
540.7803628117914	540.8732426303854	62	127
540.7803628117914	540.8732426303854	74	127
540.8732426303854	540.9893424036281	63	127
540.8732426303854	540.9893424036281	75	127
540.9893424036281	541.5698412698413	39	127
540.9893424036281	541.1286621315193	74	127
540.9893424036281	541.1286621315193	62	127
540.9893424036281	541.5698412698413	46	127
541.1286621315193	541.2795918367347	75	127
541.1286621315193	541.2795918367347	63	127
541.2795918367347	541.4421315192744	74	127
541.2795918367347	541.4421315192744	62	127
541.4421315192744	541.5814512471655	63	127
541.4421315192744	541.5814512471655	75	127
541.5814512471655	541.7323809523809	62	127
541.5814512471655	541.7323809523809	74	127
541.5814512471655	542.1039002267573	46	127
541.5814512471655	542.1039002267573	39	127
541.7323809523809	541.8600907029479	63	127
541.7323809523809	541.8600907029479	75	127
541.8600907029479	542.0110204081633	74	127
541.8600907029479	542.0110204081633	62	127
542.0110204081633	542.1155102040816	75	127
542.0110204081633	542.1155102040816	63	127
542.1155102040816	542.2316099773243	74	127
542.1155102040816	542.6495691609978	39	127
542.1155102040816	542.2316099773243	62	127
542.1155102040816	542.6495691609978	46	127
542.2316099773243	542.3825396825397	63	127
542.2316099773243	542.3825396825397	75	127
542.3825396825397	542.5218594104308	74	127
542.3825396825397	542.5218594104308	62	127
542.5218594104308	542.661179138322	75	127
542.5218594104308	542.661179138322	63	127
542.661179138322	543.2416780045352	46	127
542.661179138322	543.2416780045352	39	127
542.661179138322	542.92820861678	72	127
542.661179138322	542.8004988662132	62	127
542.8004988662132	542.92820861678	63	127
542.92820861678	543.055918367347	60	127
542.92820861678	543.2416780045352	74	127
543.055918367347	543.2416780045352	62	127
543.2532879818594	544.2401360544218	51	127
543.2532879818594	544.0775963718821	75	127
543.2532879818594	544.0775963718821	63	127
544.2401360544218	545.5520408163266	46	127
545.7726303854876	546.4692517006803	50	127
546.4692517006803	547.7231292517007	46	127
547.8972789115646	548.5242176870748	48	127
548.5242176870748	549.2092063492064	46	127
549.2092063492064	549.9290249433107	65	127
549.2092063492064	549.7548752834467	44	127
549.9290249433107	551.1248526077097	46	127
549.9290249433107	550.6140136054422	68	127
550.6140136054422	551.3106122448979	67	127
551.3106122448979	551.8446712018141	65	127
551.3106122448979	552.018820861678	68	127
551.3106122448979	552.018820861678	58	127
552.018820861678	552.1116780045352	67	127
552.018820861678	552.8199092970522	61	127
552.018820861678	552.8199092970522	77	127
552.1116780045352	552.2161904761905	68	127
552.2161904761905	552.3439002267573	67	127
552.3439002267573	552.46	68	127
552.46	552.5760997732426	67	127
552.5760997732426	552.5993197278912	68	127
552.5993197278912	552.6921995464853	67	127
552.6921995464853	552.8199092970522	68	127
552.8199092970522	553.4120181405896	75	127
552.8199092970522	553.4120181405896	60	127
552.8199092970522	552.901179138322	67	127
552.901179138322	553.0172789115646	68	127
553.0172789115646	553.0521088435374	67	127
553.0521088435374	553.1449886621315	68	127
553.1449886621315	553.2726984126984	67	127
553.2726984126984	553.3191156462585	68	127
553.3191156462585	553.3307256235828	67	127
553.3307256235828	553.4120181405896	68	127
553.4120181405896	553.9228571428572	58	127
553.4120181405896	553.4236281179138	67	127
553.4120181405896	553.9228571428572	73	127
553.4236281179138	553.516507936508	68	127
553.516507936508	553.6326077097506	67	127
553.6326077097506	553.7138775510205	68	127
553.7138775510205	553.8183673469388	67	127
553.8183673469388	553.8764172335601	68	127
553.8764172335601	553.9576870748299	65	127
553.9576870748299	554.050566893424	67	127
554.0621768707483	554.7471428571429	68	127
554.0621768707483	554.7471428571429	63	127
554.0621768707483	554.7471428571429	72	127
554.7471428571429	555.3624716553288	60	127
554.7471428571429	555.3624716553288	68	127
554.7471428571429	555.3624716553288	63	127
555.3624716553288	555.9546031746032	60	127
555.3624716553288	555.9546031746032	65	127
555.3624716553288	555.9546031746032	56	127
556.0823129251701	557.6264172335601	47	127
556.0823129251701	556.8601814058957	63	127
556.0823129251701	557.6264172335601	56	127
556.8601814058957	557.6264172335601	62	127
557.6264172335601	557.974739229025	55	127
557.6264172335601	557.974739229025	46	127
557.6264172335601	557.974739229025	63	127
558.1372789115646	558.9615873015873	51	127
558.1372789115646	559.6581632653061	56	127
558.1372789115646	559.6581632653061	59	127
558.9615873015873	559.6581632653061	50	127
559.6581632653061	560.3083446712018	55	127
559.6581632653061	560.3083446712018	58	127
559.6581632653061	560.3083446712018	51	127
560.4592743764173	561.8524716553288	56	127
560.4592743764173	561.8524716553288	47	127
560.4592743764173	561.109410430839	63	127
561.109410430839	561.8524716553288	62	127
561.8524716553288	562.7	46	127
561.8524716553288	562.7	63	127
561.8524716553288	562.7	55	127
562.8625396825397	563.6404081632653	51	127
562.8625396825397	564.1744444444445	59	127
562.8625396825397	564.1744444444445	56	127
563.6404081632653	564.1744444444445	50	127
564.1744444444445	564.8826757369615	58	127
564.1744444444445	564.8826757369615	55	127
564.1744444444445	564.8826757369615	51	127
564.998775510204	566.6357823129251	56	127
564.998775510204	565.8230839002267	63	127
564.998775510204	566.6357823129251	47	127
565.8230839002267	566.6357823129251	62	127
566.6357823129251	567.2743310657596	55	127
566.6357823129251	567.2743310657596	46	127
566.6357823129251	567.2743310657596	63	127
567.4368480725624	569.0274376417234	59	127
567.4368480725624	569.0274376417234	56	127
567.4368480725624	568.1682993197279	39	127
568.1682993197279	569.0274376417234	38	127
569.0274376417234	569.7008163265306	58	127
569.0274376417234	570.6296145124717	39	127
569.0274376417234	569.7008163265306	55	127
569.8749659863946	571.5816326530612	56	127
569.8749659863946	571.5816326530612	59	127
570.6296145124717	571.5816326530612	38	127
571.5816326530612	572.2434013605442	58	127
571.5816326530612	572.2434013605442	55	127
571.5816326530612	572.2434013605442	39	127
572.3711111111111	574.0545578231292	56	127
572.3711111111111	573.2650793650794	39	127
572.3711111111111	574.0545578231292	53	127
572.3711111111111	574.0545578231292	47	127
573.2650793650794	574.0545578231292	38	127
574.0545578231292	574.9369160997733	51	127
574.0545578231292	574.9369160997733	39	127
574.0545578231292	574.9369160997733	55	127
574.0545578231292	574.9369160997733	46	127
575.1226757369615	577.3634013605442	56	127
575.1226757369615	577.3634013605442	47	127
575.1226757369615	577.3634013605442	53	127
575.1226757369615	576.2372108843538	39	127
576.2372108843538	577.3634013605442	38	127
577.3634013605442	578.5592290249433	55	127
577.3634013605442	578.5592290249433	39	127
577.3634013605442	578.5592290249433	51	127
577.3634013605442	578.5592290249433	46	127
578.7565986394558	582.5530612244899	46	127
578.7565986394558	582.5530612244899	55	127
578.7565986394558	582.5530612244899	51	127
578.7565986394558	582.5530612244899	39	127
582.9013605442177	587.0925623582766	51	127
582.9013605442177	587.0925623582766	55	127
582.9013605442177	587.0925623582766	39	127
582.9013605442177	587.0925623582766	46	127
587.4292517006803	591.655283446712	39	127
587.4292517006803	591.655283446712	46	127
587.4292517006803	591.655283446712	51	127
587.4292517006803	591.655283446712	55	127
