# onset,offset,note,velocity
0.034058956916099774	0.9164172335600907	62	127
0.9164172335600907	0.997687074829932	43	127
0.9164172335600907	1.2298866213151927	67	127
0.9164172335600907	0.997687074829932	50	127
0.9164172335600907	1.2298866213151927	58	127
0.9164172335600907	0.997687074829932	55	127
1.1370068027210884	1.2066666666666668	55	127
1.2414965986394557	1.3575963718820863	67	127
1.3575963718820863	1.4272562358276644	55	127
1.3575963718820863	1.6594557823129252	62	127
1.3575963718820863	1.6594557823129252	70	127
1.60140589569161	1.6478458049886622	55	127
1.6710657596371883	1.7639455782312925	70	127
1.7639455782312925	1.8336054421768708	60	127
1.7639455782312925	1.8336054421768708	69	127
1.7639455782312925	1.8336054421768708	43	127
1.7639455782312925	1.8336054421768708	50	127
1.7639455782312925	1.8336054421768708	55	127
1.9729251700680273	2.0541950113378684	58	127
1.9729251700680273	2.0541950113378684	67	127
1.9729251700680273	2.0541950113378684	55	127
2.147074829931973	2.193514739229025	57	127
2.147074829931973	2.193514739229025	66	127
2.147074829931973	2.193514739229025	55	127
2.309614512471655	2.3908843537414968	58	127
2.309614512471655	2.3908843537414968	67	127
2.309614512471655	2.3908843537414968	55	127
2.495374149659864	2.5882539682539685	43	127
2.495374149659864	2.5882539682539685	50	127
2.495374149659864	2.5882539682539685	55	127
2.495374149659864	2.8668934240362813	62	127
2.495374149659864	2.8668934240362813	66	127
2.495374149659864	2.8668934240362813	74	127
2.715963718820862	2.797233560090703	55	127
2.9133333333333336	2.9713832199546486	55	127
2.9133333333333336	3.122312925170068	62	127
2.9133333333333336	3.122312925170068	66	127
2.9133333333333336	3.122312925170068	69	127
3.0294331065759637	3.099092970521542	55	127
3.133922902494331	3.2384126984126986	62	127
3.2384126984126986	3.2964625850340137	43	127
3.2384126984126986	3.2964625850340137	50	127
3.2384126984126986	3.2964625850340137	55	127
3.2384126984126986	3.4938321995464854	58	127
3.2384126984126986	3.4938321995464854	67	127
3.447392290249433	3.459002267573696	55	127
3.4938321995464854	3.5867120181405894	67	127
3.5867120181405894	3.644761904761905	55	127
3.5867120181405894	3.749251700680272	62	127
3.5867120181405894	3.749251700680272	70	127
3.749251700680272	3.807301587301587	70	127
3.807301587301587	3.888571428571429	60	127
3.807301587301587	3.888571428571429	69	127
3.807301587301587	3.888571428571429	43	127
3.807301587301587	3.888571428571429	50	127
3.807301587301587	3.888571428571429	55	127
4.027891156462585	4.0859410430839	58	127
4.027891156462585	4.0859410430839	67	127
4.027891156462585	4.0859410430839	55	127
4.190430839002268	4.248458049886621	66	127
4.190430839002268	4.248458049886621	55	127
4.190430839002268	4.248458049886621	57	127
4.376190476190477	4.4458503401360545	58	127
4.376190476190477	4.4458503401360545	67	127
4.376190476190477	4.4458503401360545	55	127
4.527120181405896	4.561950113378685	62	127
4.527120181405896	4.561950113378685	70	127
4.527120181405896	4.561950113378685	74	127
4.527120181405896	4.561950113378685	43	127
4.527120181405896	4.561950113378685	50	127
4.527120181405896	4.561950113378685	55	127
4.678049886621316	4.724467120181406	64	127
4.678049886621316	4.724467120181406	73	127
4.678049886621316	4.724467120181406	76	127
4.678049886621316	4.724467120181406	40	127
4.678049886621316	4.724467120181406	52	127
4.852199546485261	4.910249433106576	38	127
4.852199546485261	4.910249433106576	50	127
4.852199546485261	5.130839002267574	66	127
4.852199546485261	5.130839002267574	74	127
4.852199546485261	5.130839002267574	78	127
5.0495691609977325	5.096009070294785	36	127
5.0495691609977325	5.096009070294785	48	127
5.130839002267574	5.212108843537415	74	127
5.212108843537415	5.27015873015873	34	127
5.212108843537415	5.27015873015873	46	127
5.212108843537415	5.513968253968254	67	127
5.212108843537415	5.513968253968254	79	127
5.397868480725624	5.479138321995465	33	127
5.397868480725624	5.479138321995465	45	127
5.513968253968254	5.6184580498866215	79	127
5.6184580498866215	5.688117913832199	31	127
5.6184580498866215	5.688117913832199	43	127
5.6184580498866215	5.8854875283446715	70	127
5.6184580498866215	5.8854875283446715	74	127
5.6184580498866215	5.8854875283446715	82	127
5.80421768707483	5.850634920634921	43	127
5.897074829931973	5.943537414965986	82	127
5.943537414965986	6.013197278911565	72	127
5.943537414965986	6.013197278911565	81	127
5.943537414965986	6.013197278911565	31	127
5.943537414965986	6.013197278911565	38	127
5.943537414965986	6.013197278911565	43	127
6.117687074829932	6.1873469387755105	70	127
6.117687074829932	6.1873469387755105	79	127
6.117687074829932	6.1873469387755105	43	127
6.3034467120181406	6.373106575963718	69	127
6.3034467120181406	6.373106575963718	78	127
6.3034467120181406	6.373106575963718	43	127
6.465986394557823	6.512426303854875	70	127
6.465986394557823	6.512426303854875	79	127
6.465986394557823	6.512426303854875	43	127
6.6401360544217685	6.698185941043084	31	127
6.6401360544217685	6.698185941043084	38	127
6.6401360544217685	6.698185941043084	43	127
6.6401360544217685	6.953605442176871	74	127
6.6401360544217685	6.953605442176871	78	127
6.6401360544217685	6.953605442176871	86	127
6.814285714285714	6.895555555555555	43	127
7.034875283446712	7.116145124716553	43	127
7.034875283446712	7.232244897959184	69	127
7.034875283446712	7.232244897959184	78	127
7.034875283446712	7.232244897959184	81	127
7.162585034013605	7.2090249433106575	43	127
7.243854875283446	7.359954648526077	74	127
7.359954648526077	7.661814058956916	70	127
7.359954648526077	7.661814058956916	79	127
7.359954648526077	7.429614512471655	43	127
7.359954648526077	7.429614512471655	50	127
7.359954648526077	7.429614512471655	55	127
7.359954648526077	7.661814058956916	67	127
7.568934240362812	7.63859410430839	55	127
7.661814058956916	7.731473922902494	79	127
7.731473922902494	7.78952380952381	55	127
7.731473922902494	7.975283446712018	70	127
7.731473922902494	7.975283446712018	74	127
7.731473922902494	7.975283446712018	82	127
7.894013605442177	7.940453514739229	55	127
7.975283446712018	8.05655328798186	82	127
8.05655328798186	8.126213151927438	72	127
8.05655328798186	8.126213151927438	81	127
8.05655328798186	8.126213151927438	43	127
8.05655328798186	8.126213151927438	50	127
8.05655328798186	8.126213151927438	55	127
8.242312925170069	8.323582766439909	70	127
8.242312925170069	8.323582766439909	79	127
8.242312925170069	8.323582766439909	55	127
8.462902494331066	8.509342403628118	69	127
8.462902494331066	8.509342403628118	78	127
8.462902494331066	8.509342403628118	55	127
8.625442176870749	8.695102040816327	70	127
8.625442176870749	8.695102040816327	79	127
8.625442176870749	8.695102040816327	55	127
8.799591836734693	8.82281179138322	74	127
8.799591836734693	8.82281179138322	82	127
8.799591836734693	8.82281179138322	86	127
8.799591836734693	8.82281179138322	43	127
8.799591836734693	8.82281179138322	50	127
8.799591836734693	8.82281179138322	55	127
8.892471655328798	8.915691609977324	76	127
8.892471655328798	8.915691609977324	85	127
8.892471655328798	8.915691609977324	88	127
8.892471655328798	8.915691609977324	40	127
8.892471655328798	8.915691609977324	52	127
9.043401360544218	9.089818594104308	38	127
9.043401360544218	9.089818594104308	50	127
9.043401360544218	9.287210884353742	78	127
9.043401360544218	9.287210884353742	86	127
9.043401360544218	9.287210884353742	90	127
9.194331065759638	9.275600907029478	36	127
9.194331065759638	9.275600907029478	48	127
9.333650793650794	9.519410430839002	34	127
9.333650793650794	9.519410430839002	46	127
9.333650793650794	9.612290249433107	79	127
9.333650793650794	9.612290249433107	87	127
9.333650793650794	9.612290249433107	91	127
9.519410430839002	9.681950113378685	63	127
9.519410430839002	9.681950113378685	67	127
9.693537414965986	9.809659863945578	77	127
9.693537414965986	9.809659863945578	86	127
9.693537414965986	9.809659863945578	89	127
9.693537414965986	9.856099773242631	58	127
9.809659863945578	9.867709750566894	91	127
9.867709750566894	9.925759637188209	77	127
9.867709750566894	9.925759637188209	86	127
9.867709750566894	9.925759637188209	89	127
9.867709750566894	10.030249433106576	62	127
9.867709750566894	10.030249433106576	65	127
10.041836734693877	10.111519274376418	46	127
10.041836734693877	10.413378684807256	75	127
10.041836734693877	10.413378684807256	84	127
10.041836734693877	10.413378684807256	87	127
10.285668934240363	10.343718820861678	60	127
10.285668934240363	10.343718820861678	63	127
10.45981859410431	10.529478458049887	46	127
10.45981859410431	10.73845804988662	74	127
10.45981859410431	10.73845804988662	82	127
10.45981859410431	10.73845804988662	86	127
10.645555555555555	10.65718820861678	58	127
10.645555555555555	10.65718820861678	62	127
10.784897959183674	10.84294784580499	46	127
10.784897959183674	10.877777777777778	72	127
10.784897959183674	10.877777777777778	81	127
10.784897959183674	10.877777777777778	84	127
10.877777777777778	10.959047619047618	86	127
10.959047619047618	11.04031746031746	72	127
10.959047619047618	11.04031746031746	81	127
10.959047619047618	11.04031746031746	84	127
10.959047619047618	11.04031746031746	57	127
10.959047619047618	11.04031746031746	60	127
11.179637188208616	11.260907029478458	70	127
11.179637188208616	11.260907029478458	79	127
11.179637188208616	11.260907029478458	82	127
11.179637188208616	11.260907029478458	46	127
11.353786848072563	11.42344671201814	67	127
11.353786848072563	11.42344671201814	75	127
11.353786848072563	11.42344671201814	79	127
11.353786848072563	11.42344671201814	55	127
11.353786848072563	11.42344671201814	58	127
11.504716553287983	11.57437641723356	45	127
11.504716553287983	11.57437641723356	57	127
11.504716553287983	11.80657596371882	79	127
11.504716553287983	11.80657596371882	88	127
11.504716553287983	11.80657596371882	91	127
11.736916099773243	11.794965986394558	64	127
11.736916099773243	11.794965986394558	67	127
11.876235827664399	11.945895691609977	57	127
11.876235827664399	11.969115646258503	77	127
11.876235827664399	11.969115646258503	86	127
11.876235827664399	11.969115646258503	89	127
11.969115646258503	12.038775510204081	91	127
12.038775510204081	12.085215419501134	77	127
12.038775510204081	12.085215419501134	86	127
12.038775510204081	12.085215419501134	89	127
12.038775510204081	12.085215419501134	62	127
12.038775510204081	12.085215419501134	65	127
12.166485260770974	12.22453514739229	57	127
12.166485260770974	12.398684807256236	76	127
12.166485260770974	12.398684807256236	85	127
12.166485260770974	12.398684807256236	88	127
12.270975056689343	12.329024943310658	61	127
12.270975056689343	12.329024943310658	64	127
12.479954648526077	12.561224489795919	57	127
12.479954648526077	12.816643990929705	74	127
12.479954648526077	12.816643990929705	82	127
12.479954648526077	12.816643990929705	86	127
12.677324263038548	12.735374149659863	58	127
12.677324263038548	12.735374149659863	62	127
12.886303854875283	12.932743764172336	45	127
12.886303854875283	12.944353741496599	73	127
12.886303854875283	12.944353741496599	81	127
12.886303854875283	12.944353741496599	85	127
12.944353741496599	13.06045351473923	86	127
13.06045351473923	13.118503401360543	73	127
13.06045351473923	13.118503401360543	81	127
13.06045351473923	13.118503401360543	85	127
13.06045351473923	13.118503401360543	57	127
13.06045351473923	13.118503401360543	61	127
13.269433106575963	13.362312925170068	70	127
13.269433106575963	13.362312925170068	79	127
13.269433106575963	13.362312925170068	82	127
13.269433106575963	13.362312925170068	50	127
13.52485260770975	13.629342403628119	69	127
13.52485260770975	13.629342403628119	78	127
13.52485260770975	13.629342403628119	81	127
13.52485260770975	13.629342403628119	54	127
13.52485260770975	13.629342403628119	57	127
13.52485260770975	13.629342403628119	62	127
13.745442176870748	13.815102040816326	61	127
13.815102040816326	13.884761904761906	43	127
13.815102040816326	13.884761904761906	50	127
13.815102040816326	13.884761904761906	55	127
13.815102040816326	14.175011337868481	58	127
13.815102040816326	14.175011337868481	67	127
14.05891156462585	14.140181405895692	55	127
14.186621315192744	14.302721088435375	67	127
14.302721088435375	14.372380952380952	55	127
14.302721088435375	14.59297052154195	62	127
14.302721088435375	14.59297052154195	70	127
14.488480725623583	14.569750566893424	55	127
14.59297052154195	14.604580498866213	70	127
14.604580498866213	14.685850340136055	60	127
14.604580498866213	14.685850340136055	69	127
14.604580498866213	14.685850340136055	43	127
14.604580498866213	14.685850340136055	50	127
14.604580498866213	14.685850340136055	55	127
14.82517006802721	14.894829931972788	58	127
14.82517006802721	14.894829931972788	67	127
14.82517006802721	14.894829931972788	55	127
15.034149659863946	15.103809523809524	57	127
15.034149659863946	15.103809523809524	66	127
15.034149659863946	15.103809523809524	55	127
15.20829931972789	15.277959183673469	58	127
15.20829931972789	15.277959183673469	67	127
15.20829931972789	15.277959183673469	55	127
15.428888888888888	15.486938775510204	43	127
15.428888888888888	15.486938775510204	50	127
15.428888888888888	15.486938775510204	55	127
15.428888888888888	15.69591836734694	62	127
15.428888888888888	15.69591836734694	66	127
15.428888888888888	15.69591836734694	74	127
15.579818594104308	15.637868480725624	55	127
15.765578231292517	15.812018140589569	55	127
15.765578231292517	16.04421768707483	62	127
15.765578231292517	16.04421768707483	66	127
15.765578231292517	16.04421768707483	69	127
15.962947845804988	16.02097505668934	55	127
16.04421768707483	16.148684807256235	62	127
16.148684807256235	16.218367346938777	43	127
16.148684807256235	16.218367346938777	50	127
16.148684807256235	16.218367346938777	55	127
16.148684807256235	16.485396825396826	58	127
16.148684807256235	16.485396825396826	67	127
16.369297052154195	16.450566893424035	55	127
16.485396825396826	16.58986394557823	67	127
16.58986394557823	16.671156462585035	55	127
16.58986394557823	16.740816326530613	62	127
16.58986394557823	16.740816326530613	70	127
16.705986394557822	16.72920634920635	55	127
16.752426303854875	16.822086167800453	70	127
16.822086167800453	16.88013605442177	60	127
16.822086167800453	16.88013605442177	69	127
16.822086167800453	16.88013605442177	43	127
16.822086167800453	16.88013605442177	50	127
16.822086167800453	16.88013605442177	55	127
17.007845804988662	17.065895691609978	58	127
17.007845804988662	17.065895691609978	67	127
17.007845804988662	17.065895691609978	55	127
17.170385487528346	17.228412698412697	57	127
17.170385487528346	17.228412698412697	66	127
17.170385487528346	17.228412698412697	55	127
17.34453514739229	17.414172335600906	58	127
17.34453514739229	17.414172335600906	67	127
17.34453514739229	17.414172335600906	55	127
17.530294784580498	17.599954648526076	62	127
17.530294784580498	17.599954648526076	70	127
17.530294784580498	17.599954648526076	74	127
17.530294784580498	17.599954648526076	43	127
17.530294784580498	17.599954648526076	50	127
17.530294784580498	17.599954648526076	55	127
17.692834467120182	17.750884353741498	64	127
17.692834467120182	17.750884353741498	73	127
17.692834467120182	17.750884353741498	76	127
17.692834467120182	17.750884353741498	40	127
17.692834467120182	17.750884353741498	52	127
17.87859410430839	17.936643990929706	38	127
17.87859410430839	17.936643990929706	50	127
17.87859410430839	18.157233560090702	66	127
17.87859410430839	18.157233560090702	74	127
17.87859410430839	18.157233560090702	78	127
18.052721088435373	18.122403628117915	36	127
18.052721088435373	18.122403628117915	48	127
18.157233560090702	18.26172335600907	74	127
18.26172335600907	18.33138321995465	34	127
18.26172335600907	18.33138321995465	46	127
18.26172335600907	18.52875283446712	67	127
18.26172335600907	18.52875283446712	79	127
18.435873015873018	18.505532879818595	33	127
18.435873015873018	18.505532879818595	45	127
18.52875283446712	18.61002267573696	79	127
18.61002267573696	18.64485260770975	31	127
18.61002267573696	18.64485260770975	43	127
18.61002267573696	18.83061224489796	70	127
18.61002267573696	18.83061224489796	74	127
18.61002267573696	18.83061224489796	82	127
18.72612244897959	18.79578231292517	43	127
18.83061224489796	18.94671201814059	82	127
18.94671201814059	19.02798185941043	72	127
18.94671201814059	19.02798185941043	81	127
18.94671201814059	19.02798185941043	31	127
18.94671201814059	19.02798185941043	38	127
18.94671201814059	19.02798185941043	43	127
19.155691609977325	19.202131519274378	70	127
19.155691609977325	19.202131519274378	79	127
19.155691609977325	19.202131519274378	43	127
19.341451247165534	19.36467120181406	69	127
19.341451247165534	19.36467120181406	78	127
19.341451247165534	19.36467120181406	43	127
19.422721088435374	19.48077097505669	70	127
19.422721088435374	19.48077097505669	79	127
19.422721088435374	19.48077097505669	43	127
19.608480725623583	19.689750566893423	31	127
19.608480725623583	19.689750566893423	38	127
19.608480725623583	19.689750566893423	43	127
19.608480725623583	19.887097505668933	74	127
19.608480725623583	19.887097505668933	78	127
19.608480725623583	19.887097505668933	86	127
19.817460317460316	19.887097505668933	43	127
19.968390022675738	20.026439909297054	43	127
19.968390022675738	20.223809523809525	69	127
19.968390022675738	20.223809523809525	78	127
19.968390022675738	20.223809523809525	81	127
20.119319727891156	20.188979591836734	43	127
20.223809523809525	20.339909297052156	83	127
20.339909297052156	20.409569160997734	43	127
20.339909297052156	20.409569160997734	50	127
20.339909297052156	20.409569160997734	55	127
20.339909297052156	20.641768707482992	74	127
20.339909297052156	20.641768707482992	79	127
20.339909297052156	20.641768707482992	86	127
20.537278911564627	20.618548752834467	55	127
20.641768707482992	20.688208616780045	86	127
20.688208616780045	20.757868480725623	55	127
20.688208616780045	20.943628117913832	79	127
20.688208616780045	20.943628117913832	83	127
20.688208616780045	20.943628117913832	91	127
20.8275283446712	20.908798185941045	55	127
20.943628117913832	21.059727891156463	91	127
21.059727891156463	21.140997732426303	80	127
21.059727891156463	21.140997732426303	89	127
21.059727891156463	21.140997732426303	36	127
21.059727891156463	21.140997732426303	43	127
21.059727891156463	21.140997732426303	48	127
21.291927437641725	21.349954648526076	79	127
21.291927437641725	21.349954648526076	87	127
21.291927437641725	21.349954648526076	48	127
21.454467120181405	21.47766439909297	77	127
21.454467120181405	21.47766439909297	86	127
21.454467120181405	21.47766439909297	48	127
21.605396825396827	21.675056689342405	79	127
21.605396825396827	21.675056689342405	87	127
21.605396825396827	21.675056689342405	48	127
21.837596371882086	21.97691609977324	69	127
21.837596371882086	21.97691609977324	72	127
21.837596371882086	21.97691609977324	78	127
21.837596371882086	21.97691609977324	38	127
21.837596371882086	21.97691609977324	50	127
22.38326530612245	22.54580498866213	67	127
22.38326530612245	22.54580498866213	70	127
22.38326530612245	22.54580498866213	79	127
22.38326530612245	22.54580498866213	31	127
22.38326530612245	22.54580498866213	43	127
22.9637641723356	23.34689342403628	30	127
22.9637641723356	23.34689342403628	42	127
23.462993197278912	23.869342403628117	31	127
23.462993197278912	23.869342403628117	43	127
24.21764172335601	24.41501133786848	62	127
24.21764172335601	24.41501133786848	66	127
24.21764172335601	24.41501133786848	69	127
24.21764172335601	24.41501133786848	72	127
24.21764172335601	24.41501133786848	74	127
24.21764172335601	24.41501133786848	50	127
24.21764172335601	24.41501133786848	54	127
24.21764172335601	24.41501133786848	57	127
24.21764172335601	24.41501133786848	60	127
24.670430839002268	24.79814058956916	62	127
24.670430839002268	24.79814058956916	66	127
24.670430839002268	24.79814058956916	69	127
24.670430839002268	24.79814058956916	72	127
24.670430839002268	24.79814058956916	74	127
24.670430839002268	24.79814058956916	38	127
24.670430839002268	24.79814058956916	42	127
24.670430839002268	24.79814058956916	45	127
24.670430839002268	24.79814058956916	50	127
25.030340136054424	25.25092970521542	62	127
25.030340136054424	25.25092970521542	67	127
25.030340136054424	25.25092970521542	70	127
25.030340136054424	25.25092970521542	74	127
25.030340136054424	25.25092970521542	43	127
25.030340136054424	25.25092970521542	46	127
25.030340136054424	25.25092970521542	50	127
25.030340136054424	25.25092970521542	55	127
25.48312925170068	25.66888888888889	62	127
25.48312925170068	25.66888888888889	67	127
25.48312925170068	25.66888888888889	70	127
25.48312925170068	25.66888888888889	74	127
25.48312925170068	25.66888888888889	31	127
25.48312925170068	25.66888888888889	34	127
25.48312925170068	25.66888888888889	38	127
25.48312925170068	25.66888888888889	43	127
25.680498866213153	26.028798185941042	33	127
25.680498866213153	26.028798185941042	45	127
26.110068027210886	26.43514739229025	34	127
26.110068027210886	26.43514739229025	46	127
26.725396825396825	26.957596371882087	65	127
26.725396825396825	26.957596371882087	72	127
26.725396825396825	26.957596371882087	75	127
26.725396825396825	26.957596371882087	77	127
26.725396825396825	26.957596371882087	53	127
26.725396825396825	26.957596371882087	57	127
26.725396825396825	26.957596371882087	60	127
26.725396825396825	26.957596371882087	63	127
27.16657596371882	27.305895691609976	65	127
27.16657596371882	27.305895691609976	69	127
27.16657596371882	27.305895691609976	72	127
27.16657596371882	27.305895691609976	75	127
27.16657596371882	27.305895691609976	77	127
27.16657596371882	27.305895691609976	41	127
27.16657596371882	27.305895691609976	45	127
27.16657596371882	27.305895691609976	48	127
27.16657596371882	27.305895691609976	53	127
27.5497052154195	27.758684807256238	65	127
27.5497052154195	27.758684807256238	70	127
27.5497052154195	27.758684807256238	74	127
27.5497052154195	27.758684807256238	77	127
27.5497052154195	27.758684807256238	46	127
27.5497052154195	27.758684807256238	50	127
27.5497052154195	27.758684807256238	53	127
27.5497052154195	27.758684807256238	58	127
27.990884353741496	28.223083900226758	65	127
27.990884353741496	28.223083900226758	70	127
27.990884353741496	28.223083900226758	74	127
27.990884353741496	28.223083900226758	77	127
27.990884353741496	28.223083900226758	34	127
27.990884353741496	28.223083900226758	38	127
27.990884353741496	28.223083900226758	41	127
27.990884353741496	28.223083900226758	46	127
28.223083900226758	28.606213151927438	37	127
28.223083900226758	28.606213151927438	49	127
28.675873015873016	29.047392290249434	38	127
28.675873015873016	29.047392290249434	50	127
29.11705215419501	29.45374149659864	61	127
29.11705215419501	29.45374149659864	37	127
29.11705215419501	29.45374149659864	49	127
29.523401360544216	29.883310657596372	62	127
29.523401360544216	29.883310657596372	38	127
29.523401360544216	29.883310657596372	50	127
29.95297052154195	30.359319727891158	65	127
29.95297052154195	30.359319727891158	73	127
29.95297052154195	30.359319727891158	77	127
29.95297052154195	30.359319727891158	49	127
29.95297052154195	30.359319727891158	61	127
30.428979591836736	30.707619047619048	66	127
30.428979591836736	30.707619047619048	74	127
30.428979591836736	30.707619047619048	78	127
30.428979591836736	30.707619047619048	50	127
30.428979591836736	30.707619047619048	62	127
30.777278911564625	30.881768707482994	80	127
30.777278911564625	30.881768707482994	68	127
30.893378684807256	30.997868480725625	81	127
30.893378684807256	30.997868480725625	69	127
31.009478458049887	31.113968253968252	83	127
31.009478458049887	31.113968253968252	71	127
31.12557823129252	31.195238095238096	85	127
31.12557823129252	31.195238095238096	73	127
31.20684807256236	31.29972789115646	87	127
31.20684807256236	31.29972789115646	75	127
31.29972789115646	31.392607709750568	77	127
31.29972789115646	31.392607709750568	89	127
31.40421768707483	31.5087074829932	90	127
31.40421768707483	31.5087074829932	78	127
31.5087074829932	31.578367346938776	92	127
31.5087074829932	31.578367346938776	80	127
31.578367346938776	31.694467120181407	93	127
31.578367346938776	31.694467120181407	81	127
31.694467120181407	31.810566893424035	92	127
31.694467120181407	31.810566893424035	80	127
31.810566893424035	31.90344671201814	93	127
31.810566893424035	31.90344671201814	81	127
31.90344671201814	31.996326530612244	92	127
31.90344671201814	31.996326530612244	80	127
31.996326530612244	32.065986394557825	93	127
31.996326530612244	32.065986394557825	81	127
32.228526077097506	32.32140589569161	90	127
32.228526077097506	32.32140589569161	78	127
32.449115646258505	32.530362811791385	94	127
32.449115646258505	32.530362811791385	82	127
32.54197278911565	32.63487528344671	93	127
32.54197278911565	32.63487528344671	81	127
32.63487528344671	32.75097505668934	94	127
32.63487528344671	32.75097505668934	82	127
32.762585034013604	32.85546485260771	91	127
32.762585034013604	32.85546485260771	79	127
32.86707482993197	32.936734693877554	93	127
32.86707482993197	32.936734693877554	81	127
33.099274376417235	33.16891156462585	90	127
33.099274376417235	33.16891156462585	78	127
33.319863945578234	33.41274376417233	37	127
33.319863945578234	33.44757369614513	80	127
33.44757369614513	33.56367346938776	81	127
33.56367346938776	33.62172335600907	49	127
33.56367346938776	33.644943310657595	83	127
33.644943310657595	33.761043083900226	85	127
33.761043083900226	33.83070294784581	37	127
33.761043083900226	33.85392290249433	87	127
33.85392290249433	33.97002267573696	89	127
33.97002267573696	34.0512925170068	49	127
33.97002267573696	34.086122448979594	90	127
34.086122448979594	34.17900226757369	92	127
34.17900226757369	34.26027210884354	42	127
34.17900226757369	34.28349206349206	93	127
34.17900226757369	34.50408163265306	81	127
34.295102040816325	34.39959183673469	92	127
34.411201814058956	34.48086167800454	54	127
34.411201814058956	34.4924716553288	93	127
34.4924716553288	34.57371882086168	90	127
34.585351473922906	34.65501133786848	38	127
34.585351473922906	34.68981859410431	93	127
34.585351473922906	34.945238095238096	81	127
34.70142857142857	34.794331065759636	92	127
34.8059410430839	34.86399092970522	50	127
34.8059410430839	34.898820861678004	93	127
34.91043083900227	35.014920634920635	90	127
35.014920634920635	35.09619047619048	31	127
35.014920634920635	35.131020408163266	94	127
35.014920634920635	35.351609977324266	82	127
35.131020408163266	35.21229024943311	93	127
35.21229024943311	35.281950113378684	43	127
35.21229024943311	35.31678004535147	94	127
35.31678004535147	35.42126984126984	91	127
35.42126984126984	35.502539682539684	38	127
35.42126984126984	35.54897959183673	93	127
35.42126984126984	35.79278911564626	81	127
35.54897959183673	35.6534693877551	92	127
35.6534693877551	35.72312925170068	50	127
35.6534693877551	35.75795918367347	93	127
35.75795918367347	35.8740589569161	90	127
35.8740589569161	36.25718820861678	78	127
35.8740589569161	36.25718820861678	84	127
35.8740589569161	36.25718820861678	90	127
35.8740589569161	36.25718820861678	62	127
35.8740589569161	36.25718820861678	69	127
35.8740589569161	36.25718820861678	74	127
36.33843537414966	36.709977324263036	79	127
36.33843537414966	36.709977324263036	82	127
36.33843537414966	36.709977324263036	91	127
36.33843537414966	36.709977324263036	55	127
36.33843537414966	36.709977324263036	58	127
36.33843537414966	36.709977324263036	62	127
36.33843537414966	36.709977324263036	67	127
37.02344671201814	37.232403628117915	74	127
37.02344671201814	37.232403628117915	81	127
37.02344671201814	37.232403628117915	84	127
37.02344671201814	37.232403628117915	86	127
37.02344671201814	37.232403628117915	50	127
37.02344671201814	37.232403628117915	54	127
37.02344671201814	37.232403628117915	57	127
37.02344671201814	37.232403628117915	62	127
37.464625850340134	37.65038548752835	74	127
37.464625850340134	37.65038548752835	81	127
37.464625850340134	37.65038548752835	84	127
37.464625850340134	37.65038548752835	86	127
37.464625850340134	37.65038548752835	50	127
37.464625850340134	37.65038548752835	54	127
37.464625850340134	37.65038548752835	57	127
37.464625850340134	37.65038548752835	62	127
37.847755102040814	38.03351473922903	74	127
37.847755102040814	38.03351473922903	79	127
37.847755102040814	38.03351473922903	82	127
37.847755102040814	38.03351473922903	86	127
37.847755102040814	38.03351473922903	55	127
37.847755102040814	38.03351473922903	58	127
37.847755102040814	38.03351473922903	62	127
38.27732426303855	38.50952380952381	74	127
38.27732426303855	38.50952380952381	79	127
38.27732426303855	38.50952380952381	82	127
38.27732426303855	38.50952380952381	86	127
38.27732426303855	38.50952380952381	55	127
38.27732426303855	38.50952380952381	58	127
38.27732426303855	38.50952380952381	62	127
38.50952380952381	38.881020408163266	81	127
38.50952380952381	38.881020408163266	87	127
38.50952380952381	38.881020408163266	93	127
38.50952380952381	38.881020408163266	65	127
38.50952380952381	38.881020408163266	72	127
38.50952380952381	38.881020408163266	77	127
38.950702947845805	39.35705215419501	82	127
38.950702947845805	39.35705215419501	86	127
38.950702947845805	39.35705215419501	94	127
38.950702947845805	39.35705215419501	58	127
38.950702947845805	39.35705215419501	62	127
38.950702947845805	39.35705215419501	65	127
38.950702947845805	39.35705215419501	70	127
39.670521541950116	39.879501133786846	77	127
39.670521541950116	39.879501133786846	84	127
39.670521541950116	39.879501133786846	87	127
39.670521541950116	39.879501133786846	89	127
39.670521541950116	39.879501133786846	53	127
39.670521541950116	39.879501133786846	57	127
39.670521541950116	39.879501133786846	60	127
39.670521541950116	39.879501133786846	65	127
40.12331065759637	40.34390022675737	77	127
40.12331065759637	40.34390022675737	84	127
40.12331065759637	40.34390022675737	87	127
40.12331065759637	40.34390022675737	89	127
40.12331065759637	40.34390022675737	53	127
40.12331065759637	40.34390022675737	57	127
40.12331065759637	40.34390022675737	60	127
40.12331065759637	40.34390022675737	65	127
40.57609977324263	40.819909297052156	77	127
40.57609977324263	40.819909297052156	82	127
40.57609977324263	40.819909297052156	86	127
40.57609977324263	40.819909297052156	89	127
40.57609977324263	40.819909297052156	58	127
40.57609977324263	40.819909297052156	62	127
40.57609977324263	40.819909297052156	65	127
41.05210884353742	41.31913832199547	77	127
41.05210884353742	41.31913832199547	82	127
41.05210884353742	41.31913832199547	86	127
41.05210884353742	41.31913832199547	89	127
41.05210884353742	41.31913832199547	58	127
41.05210884353742	41.31913832199547	62	127
41.05210884353742	41.31913832199547	65	127
41.31913832199547	41.690657596371885	85	127
41.31913832199547	41.690657596371885	97	127
41.31913832199547	41.690657596371885	61	127
41.31913832199547	41.690657596371885	73	127
41.77192743764172	42.120226757369615	86	127
41.77192743764172	42.120226757369615	98	127
41.77192743764172	42.120226757369615	62	127
41.77192743764172	42.120226757369615	74	127
42.20149659863946	42.56138321995465	73	127
42.20149659863946	42.56138321995465	81	127
42.20149659863946	42.56138321995465	85	127
42.20149659863946	42.56138321995465	53	127
42.20149659863946	42.56138321995465	65	127
42.63106575963719	42.990975056689344	74	127
42.63106575963719	42.990975056689344	82	127
42.63106575963719	42.990975056689344	86	127
42.63106575963719	42.990975056689344	46	127
42.63106575963719	42.990975056689344	58	127
43.07222222222222	43.44374149659864	61	127
43.07222222222222	43.44374149659864	69	127
43.07222222222222	43.44374149659864	73	127
43.07222222222222	43.44374149659864	50	127
43.07222222222222	43.44374149659864	62	127
43.52503401360544	43.93138321995465	62	127
43.52503401360544	43.93138321995465	70	127
43.52503401360544	43.93138321995465	74	127
43.52503401360544	43.93138321995465	43	127
43.52503401360544	43.93138321995465	55	127
44.02426303854875	44.23324263038549	45	127
44.23324263038549	44.44222222222222	69	127
44.23324263038549	44.44222222222222	76	127
44.23324263038549	44.44222222222222	79	127
44.23324263038549	44.44222222222222	57	127
44.23324263038549	44.44222222222222	64	127
44.23324263038549	44.44222222222222	67	127
44.66281179138322	44.860181405895695	69	127
44.66281179138322	44.860181405895695	76	127
44.66281179138322	44.860181405895695	79	127
44.66281179138322	44.860181405895695	57	127
44.66281179138322	44.860181405895695	64	127
44.66281179138322	44.860181405895695	67	127
45.069160997732425	45.289750566893424	65	127
45.069160997732425	45.289750566893424	69	127
45.069160997732425	45.289750566893424	77	127
45.069160997732425	45.289750566893424	50	127
45.069160997732425	45.289750566893424	62	127
45.53356009070295	45.742539682539686	65	127
45.53356009070295	45.742539682539686	70	127
45.53356009070295	45.742539682539686	74	127
45.53356009070295	45.742539682539686	46	127
45.53356009070295	45.742539682539686	58	127
45.97473922902494	46.2069387755102	64	127
45.97473922902494	46.2069387755102	70	127
45.97473922902494	46.2069387755102	74	127
45.97473922902494	46.2069387755102	43	127
45.97473922902494	46.2069387755102	55	127
46.439138321995465	46.67133786848073	65	127
46.439138321995465	46.67133786848073	69	127
46.439138321995465	46.67133786848073	74	127
46.439138321995465	46.67133786848073	50	127
46.439138321995465	46.67133786848073	62	127
46.67133786848073	46.752585034013606	45	127
46.67133786848073	46.78743764172336	76	127
46.78743764172336	46.891927437641726	77	127
46.891927437641726	46.97319727891156	57	127
46.891927437641726	46.984807256235825	79	127
46.984807256235825	47.089297052154194	81	127
47.100907029478456	47.17056689342404	45	127
47.100907029478456	47.21700680272109	83	127
47.22861678004535	47.33310657596372	85	127
47.34471655328798	47.41437641723356	57	127
47.34471655328798	47.44920634920635	86	127
47.46081632653061	47.542086167800456	88	127
47.55369614512472	47.61174603174603	50	127
47.55369614512472	47.62335600907029	89	127
47.55369614512472	47.89038548752834	77	127
47.634965986394555	47.72784580498866	88	127
47.72784580498866	47.809115646258505	62	127
47.72784580498866	47.84394557823129	89	127
47.84394557823129	47.96004535147392	86	127
47.96004535147392	48.05292517006803	46	127
47.96004535147392	48.09936507936508	89	127
47.96004535147392	48.354784580498865	77	127
48.09936507936508	48.20385487528345	88	127
48.20385487528345	48.28512471655329	58	127
48.20385487528345	48.31995464852608	89	127
48.31995464852608	48.43605442176871	86	127
48.43605442176871	48.505714285714284	39	127
48.43605442176871	48.52893424036281	91	127
48.43605442176871	48.77274376417233	79	127
48.52893424036281	48.63342403628118	89	127
48.63342403628118	48.70308390022676	51	127
48.63342403628118	48.72630385487528	91	127
48.737913832199546	48.842403628117914	87	127
48.85401360544218	48.888843537414964	46	127
48.85401360544218	48.92367346938776	89	127
48.85401360544218	49.179092970521545	77	127
48.93528344671202	49.02816326530612	87	127
49.03977324263039	49.0978231292517	58	127
49.03977324263039	49.13265306122449	89	127
49.14426303854875	49.225532879818594	86	127
49.23714285714286	49.341632653061225	91	127
49.23714285714286	49.457732426303856	27	127
49.35324263038549	49.457732426303856	87	127
49.457732426303856	49.57383219954649	79	127
49.457732426303856	49.666712018140586	39	127
49.57383219954649	49.666712018140586	91	127
49.666712018140586	49.771201814058955	89	127
49.666712018140586	49.8524716553288	34	127
49.771201814058955	49.8524716553288	86	127
49.8524716553288	49.92213151927437	77	127
49.8524716553288	50.038231292517004	46	127
49.92213151927437	50.038231292517004	89	127
50.038231292517004	50.154331065759635	87	127
50.038231292517004	50.270430839002266	36	127
50.154331065759635	50.270430839002266	84	127
50.270430839002266	50.36331065759637	75	127
50.270430839002266	50.46780045351474	48	127
50.374920634920635	50.46780045351474	87	127
50.479410430839	50.58390022675737	86	127
50.479410430839	50.66517006802721	43	127
50.58390022675737	50.66517006802721	82	127
50.67678004535147	50.78126984126984	74	127
50.67678004535147	50.86253968253968	55	127
50.7928798185941	50.86253968253968	86	127
50.874149659863946	50.96702947845805	84	127
50.874149659863946	51.07151927437642	44	127
50.978639455782314	51.07151927437642	80	127
51.07151927437642	51.187619047619044	72	127
51.07151927437642	51.29210884353741	56	127
51.187619047619044	51.29210884353741	84	127
51.29210884353741	51.37337868480726	82	127
51.29210884353741	51.44303854875283	51	127
51.37337868480726	51.44303854875283	79	127
51.44303854875283	51.5475283446712	70	127
51.44303854875283	51.65201814058957	63	127
51.5475283446712	51.65201814058957	82	127
51.65201814058957	51.7681179138322	91	127
51.65201814058957	51.87260770975057	33	127
51.7681179138322	51.87260770975057	88	127
51.87260770975057	51.97709750566894	79	127
51.87260770975057	52.069977324263036	45	127
51.9887074829932	52.069977324263036	91	127
52.0815873015873	52.174467120181404	89	127
52.0815873015873	52.26734693877551	38	127
52.174467120181404	52.26734693877551	86	127
52.27895691609977	52.38344671201814	77	127
52.27895691609977	52.49954648526077	50	127
52.395056689342404	52.49954648526077	89	127
52.511156462585035	52.59242630385488	88	127
52.511156462585035	52.68530612244898	41	127
52.60403628117914	52.68530612244898	84	127
52.68530612244898	52.778185941043084	76	127
52.68530612244898	52.847845804988665	53	127
52.778185941043084	52.847845804988665	88	127
52.847845804988665	52.96394557823129	86	127
52.847845804988665	53.06843537414966	46	127
52.96394557823129	53.06843537414966	82	127
53.06843537414966	53.17292517006803	74	127
53.06843537414966	53.277414965986395	58	127
53.17292517006803	53.277414965986395	86	127
53.277414965986395	53.3702947845805	84	127
53.277414965986395	53.4631746031746	48	127
53.3702947845805	53.4631746031746	81	127
53.4631746031746	53.544444444444444	72	127
53.4631746031746	53.62571428571429	60	127
53.544444444444444	53.62571428571429	84	127
53.63732426303855	53.71859410430839	70	127
53.63732426303855	53.71859410430839	79	127
53.63732426303855	53.71859410430839	82	127
53.63732426303855	53.71859410430839	50	127
53.63732426303855	53.71859410430839	62	127
53.85791383219954	53.985623582766436	69	127
53.85791383219954	53.985623582766436	78	127
53.85791383219954	53.985623582766436	81	127
53.85791383219954	53.985623582766436	38	127
53.85791383219954	53.985623582766436	50	127
54.05528344671202	54.22943310657596	62	127
54.22943310657596	54.310702947845805	43	127
54.22943310657596	54.310702947845805	50	127
54.22943310657596	54.310702947845805	55	127
54.22943310657596	54.531292517006804	58	127
54.22943310657596	54.531292517006804	67	127
54.426802721088436	54.50807256235828	55	127
54.54290249433107	54.6590022675737	67	127
54.6590022675737	54.740272108843534	55	127
54.6590022675737	54.98408163265306	62	127
54.6590022675737	54.98408163265306	70	127
54.89120181405896	54.94925170068027	55	127
54.99569160997732	55.10018140589569	70	127
55.10018140589569	55.16984126984127	60	127
55.10018140589569	55.16984126984127	69	127
55.10018140589569	55.16984126984127	43	127
55.10018140589569	55.16984126984127	50	127
55.10018140589569	55.16984126984127	55	127
55.297551020408164	55.36721088435374	58	127
55.297551020408164	55.36721088435374	67	127
55.297551020408164	55.36721088435374	55	127
55.48331065759637	55.56458049886621	57	127
55.48331065759637	55.56458049886621	66	127
55.48331065759637	55.56458049886621	55	127
55.87804988662131	55.959319727891156	43	127
55.87804988662131	55.959319727891156	50	127
55.87804988662131	55.959319727891156	55	127
55.87804988662131	56.26117913832199	62	127
55.87804988662131	56.26117913832199	66	127
55.87804988662131	56.26117913832199	74	127
56.110249433106574	56.19151927437642	55	127
56.29600907029479	56.36566893424036	55	127
56.29600907029479	56.5746485260771	62	127
56.29600907029479	56.5746485260771	66	127
56.29600907029479	56.5746485260771	69	127
56.493378684807254	56.55142857142857	55	127
56.58625850340136	56.70235827664399	62	127
56.70235827664399	56.772018140589566	43	127
56.70235827664399	56.772018140589566	50	127
56.70235827664399	56.772018140589566	55	127
56.70235827664399	57.01582766439909	58	127
56.70235827664399	57.01582766439909	67	127
56.91133786848073	56.992607709750565	55	127
57.01582766439909	57.03904761904762	67	127
57.03904761904762	57.07387755102041	55	127
57.03904761904762	57.166757369614515	62	127
57.03904761904762	57.166757369614515	70	127
57.108707482993196	57.13192743764172	55	127
57.166757369614515	57.23641723356009	70	127
57.23641723356009	57.317687074829934	60	127
57.23641723356009	57.317687074829934	69	127
57.23641723356009	57.317687074829934	43	127
57.23641723356009	57.317687074829934	50	127
57.23641723356009	57.317687074829934	55	127
57.46861678004535	57.56149659863946	58	127
57.46861678004535	57.56149659863946	67	127
57.46861678004535	57.56149659863946	55	127
57.67759637188209	57.7356462585034	57	127
57.67759637188209	57.7356462585034	66	127
57.67759637188209	57.7356462585034	55	127
57.88657596371882	57.92140589569161	58	127
57.88657596371882	57.92140589569161	67	127
57.88657596371882	57.92140589569161	55	127
58.083945578231294	58.15360544217687	43	127
58.083945578231294	58.15360544217687	50	127
58.083945578231294	58.15360544217687	55	127
58.083945578231294	58.28131519274376	62	127
58.083945578231294	58.28131519274376	70	127
58.083945578231294	58.28131519274376	74	127
58.28131519274376	58.33936507936508	40	127
58.28131519274376	58.33936507936508	52	127
58.28131519274376	58.4902947845805	64	127
58.28131519274376	58.4902947845805	73	127
58.28131519274376	58.4902947845805	76	127
58.4902947845805	58.57156462585034	38	127
58.4902947845805	58.57156462585034	50	127
58.4902947845805	58.699274376417236	66	127
58.4902947845805	58.699274376417236	74	127
58.4902947845805	58.699274376417236	78	127
58.60639455782313	58.676054421768704	36	127
58.60639455782313	58.676054421768704	48	127
58.699274376417236	58.8037641723356	74	127
58.8037641723356	58.82698412698413	34	127
58.8037641723356	58.82698412698413	46	127
58.8037641723356	59.04757369614512	67	127
58.8037641723356	59.04757369614512	79	127
58.95469387755102	59.0243537414966	33	127
58.95469387755102	59.0243537414966	45	127
59.059183673469384	59.14045351473923	79	127
59.14045351473923	59.16367346938775	31	127
59.14045351473923	59.16367346938775	43	127
59.14045351473923	59.291383219954646	70	127
59.14045351473923	59.291383219954646	74	127
59.14045351473923	59.291383219954646	82	127
59.19850340136055	59.25655328798186	43	127
59.291383219954646	59.38426303854875	82	127
59.38426303854875	59.453922902494334	72	127
59.38426303854875	59.453922902494334	81	127
59.38426303854875	59.453922902494334	31	127
59.38426303854875	59.453922902494334	38	127
59.38426303854875	59.453922902494334	43	127
59.60485260770975	59.68612244897959	70	127
59.60485260770975	59.68612244897959	79	127
59.60485260770975	59.68612244897959	43	127
59.76739229024943	59.837052154195014	69	127
59.76739229024943	59.837052154195014	78	127
59.76739229024943	59.837052154195014	43	127
59.97637188208617	60.05764172335601	70	127
59.97637188208617	60.05764172335601	79	127
59.97637188208617	60.05764172335601	43	127
60.19696145124716	60.278231292517006	31	127
60.19696145124716	60.278231292517006	38	127
60.19696145124716	60.278231292517006	43	127
60.19696145124716	60.545260770975055	74	127
60.19696145124716	60.545260770975055	78	127
60.19696145124716	60.545260770975055	86	127
60.41755102040816	60.498820861678006	43	127
60.603310657596374	60.67297052154195	43	127
60.603310657596374	60.87034013605442	69	127
60.603310657596374	60.87034013605442	78	127
60.603310657596374	60.87034013605442	81	127
60.765850340136055	60.83551020408163	43	127
60.881950113378686	60.99804988662132	83	127
60.99804988662132	61.06770975056689	43	127
60.99804988662132	61.06770975056689	50	127
60.99804988662132	61.06770975056689	55	127
60.99804988662132	61.265079365079366	74	127
60.99804988662132	61.265079365079366	79	127
60.99804988662132	61.265079365079366	86	127
61.18380952380952	61.2534693877551	55	127
61.265079365079366	61.33473922902494	86	127
61.33473922902494	61.416009070294784	55	127
61.33473922902494	61.61337868480726	79	127
61.33473922902494	61.61337868480726	83	127
61.33473922902494	61.61337868480726	91	127
61.49727891156463	61.578548752834465	55	127
61.61337868480726	61.72947845804989	91	127
61.72947845804989	61.81074829931973	80	127
61.72947845804989	61.81074829931973	89	127
61.72947845804989	61.81074829931973	36	127
61.72947845804989	61.81074829931973	43	127
61.72947845804989	61.81074829931973	48	127
61.92684807256236	61.99650793650794	79	127
61.92684807256236	61.99650793650794	87	127
61.92684807256236	61.99650793650794	48	127
62.12421768707483	62.135827664399095	77	127
62.12421768707483	62.135827664399095	86	127
62.12421768707483	62.135827664399095	48	127
62.24031746031746	62.30997732426304	79	127
62.24031746031746	62.30997732426304	87	127
62.24031746031746	62.30997732426304	48	127
62.49573696145125	62.611836734693874	69	127
62.49573696145125	62.611836734693874	72	127
62.49573696145125	62.611836734693874	78	127
62.49573696145125	62.611836734693874	38	127
62.49573696145125	62.611836734693874	50	127
62.902086167800455	62.99496598639456	67	127
62.902086167800455	62.99496598639456	70	127
62.902086167800455	62.99496598639456	79	127
62.902086167800455	62.99496598639456	31	127
62.902086167800455	62.99496598639456	43	127
64.45782312925171	64.5622902494331	77	127
64.45782312925171	64.5622902494331	65	127
64.5622902494331	64.6784126984127	79	127
64.5622902494331	64.6784126984127	67	127
64.6784126984127	64.75968253968254	77	127
64.6784126984127	64.75968253968254	65	127
64.75968253968254	64.86417233560091	75	127
64.75968253968254	64.86417233560091	63	127
64.86417233560091	64.96866213151928	74	127
64.86417233560091	64.96866213151928	62	127
64.96866213151928	65.06154195011338	75	127
64.96866213151928	65.06154195011338	63	127
65.06154195011338	65.1195918367347	74	127
65.06154195011338	65.1195918367347	62	127
65.13120181405895	65.22408163265307	75	127
65.13120181405895	65.22408163265307	63	127
65.23569160997732	65.32854875283446	77	127
65.23569160997732	65.32854875283446	65	127
65.34018140589569	65.43306122448979	79	127
65.34018140589569	65.43306122448979	67	127
65.44467120181406	65.53755102040816	77	127
65.44467120181406	65.53755102040816	65	127
65.54916099773243	65.6536507936508	75	127
65.54916099773243	65.6536507936508	63	127
65.66526077097505	65.76975056689342	74	127
65.66526077097505	65.76975056689342	62	127
65.76975056689342	65.88585034013606	75	127
65.76975056689342	65.88585034013606	63	127
65.88585034013606	66.00195011337868	74	127
65.88585034013606	66.00195011337868	62	127
66.00195011337868	66.11804988662132	75	127
66.00195011337868	66.11804988662132	63	127
66.11804988662132	66.22251700680272	77	127
66.11804988662132	66.22251700680272	65	127
66.22251700680272	66.30380952380952	79	127
66.22251700680272	66.30380952380952	67	127
66.30380952380952	66.38507936507936	77	127
66.30380952380952	66.38507936507936	65	127
66.38507936507936	66.46634920634921	79	127
66.38507936507936	66.46634920634921	67	127
66.46634920634921	66.57083900226758	81	127
66.46634920634921	66.57083900226758	69	127
66.57083900226758	66.65210884353742	82	127
66.57083900226758	66.65210884353742	70	127
66.65210884353742	66.75659863945579	81	127
66.65210884353742	66.75659863945579	69	127
66.76820861678004	66.84947845804989	82	127
66.76820861678004	66.84947845804989	70	127
66.86106575963719	66.96555555555555	84	127
66.86106575963719	66.96555555555555	72	127
66.96555555555555	67.07006802721088	82	127
66.96555555555555	67.07006802721088	70	127
67.07006802721088	67.15133786848072	84	127
67.07006802721088	67.15133786848072	72	127
67.162947845805	67.26743764172336	82	127
67.162947845805	67.26743764172336	70	127
67.27904761904762	67.33709750566894	81	127
67.27904761904762	67.33709750566894	69	127
67.34868480725623	67.4415873015873	79	127
67.34868480725623	67.4415873015873	67	127
67.4415873015873	67.55768707482993	81	127
67.4415873015873	67.55768707482993	69	127
67.55768707482993	67.6621768707483	79	127
67.55768707482993	67.6621768707483	67	127
67.6621768707483	67.72022675736962	77	127
67.6621768707483	67.72022675736962	65	127
67.72022675736962	67.81310657596372	79	127
67.72022675736962	67.81310657596372	67	127
67.81310657596372	67.92920634920635	77	127
67.81310657596372	67.92920634920635	65	127
67.92920634920635	68.0104761904762	79	127
67.92920634920635	68.0104761904762	67	127
68.0104761904762	68.1033560090703	81	127
68.0104761904762	68.1033560090703	69	127
68.1033560090703	68.21945578231292	84	127
68.1033560090703	68.21945578231292	72	127
68.21945578231292	68.30072562358276	81	127
68.21945578231292	68.30072562358276	69	127
68.30072562358276	68.39360544217688	84	127
68.30072562358276	68.39360544217688	72	127
68.40521541950113	68.5097052154195	89	127
68.40521541950113	68.5097052154195	77	127
68.52131519274377	68.57936507936508	87	127
68.52131519274377	68.57936507936508	75	127
68.59097505668935	68.69546485260771	89	127
68.59097505668935	68.69546485260771	77	127
68.70707482993197	68.78834467120181	87	127
68.70707482993197	68.78834467120181	75	127
68.79995464852608	68.90444444444445	74	127
68.79995464852608	68.90444444444445	86	127
68.9160544217687	68.99732426303855	84	127
68.9160544217687	68.99732426303855	72	127
68.99732426303855	69.11340136054422	86	127
68.99732426303855	69.11340136054422	74	127
69.11340136054422	69.20630385487529	84	127
69.11340136054422	69.20630385487529	72	127
69.20630385487529	69.31079365079366	82	127
69.20630385487529	69.31079365079366	70	127
69.31079365079366	69.40367346938775	86	127
69.31079365079366	69.40367346938775	74	127
69.40367346938775	69.50816326530612	82	127
69.40367346938775	69.50816326530612	70	127
69.50816326530612	69.61265306122449	86	127
69.50816326530612	69.61265306122449	74	127
69.61265306122449	69.71714285714286	92	127
69.61265306122449	69.71714285714286	80	127
69.71714285714286	69.78680272108843	84	127
69.71714285714286	69.78680272108843	72	127
69.78680272108843	69.85646258503401	92	127
69.78680272108843	69.85646258503401	80	127
69.86807256235828	69.97256235827665	84	127
69.86807256235828	69.97256235827665	72	127
69.9841723356009	70.08866213151927	82	127
69.9841723356009	70.08866213151927	70	127
70.10027210884354	70.20476190476191	91	127
70.10027210884354	70.20476190476191	79	127
70.21637188208616	70.32086167800453	82	127
70.21637188208616	70.32086167800453	70	127
70.3324716553288	70.43696145124717	91	127
70.3324716553288	70.43696145124717	79	127
70.43696145124717	70.54145124716554	90	127
70.43696145124717	70.54145124716554	78	127
70.5530612244898	70.58789115646259	81	127
70.5530612244898	70.58789115646259	69	127
70.58789115646259	70.68077097505669	90	127
70.58789115646259	70.68077097505669	78	127
70.68077097505669	70.78526077097506	81	127
70.68077097505669	70.78526077097506	69	127
70.78526077097506	70.88975056689343	91	127
70.78526077097506	70.88975056689343	79	127
70.88975056689343	70.9942403628118	86	127
70.88975056689343	70.9942403628118	74	127
70.9942403628118	71.11034013605442	82	127
70.9942403628118	71.11034013605442	70	127
71.11034013605442	71.22643990929706	79	127
71.11034013605442	71.22643990929706	67	127
71.22643990929706	71.3077097505669	81	127
71.22643990929706	71.3077097505669	69	127
71.3077097505669	71.400589569161	82	127
71.3077097505669	71.400589569161	70	127
71.400589569161	71.4934693877551	84	127
71.400589569161	71.4934693877551	72	127
71.4934693877551	71.58634920634921	86	127
71.4934693877551	71.58634920634921	74	127
71.59795918367347	71.67922902494331	91	127
71.59795918367347	71.67922902494331	79	127
71.67922902494331	71.78371882086168	86	127
71.67922902494331	71.78371882086168	74	127
71.79530612244898	71.8998185941043	82	127
71.79530612244898	71.8998185941043	70	127
71.91142857142857	71.98108843537415	79	127
71.91142857142857	71.98108843537415	67	127
71.99269841269842	72.09718820861679	81	127
71.99269841269842	72.09718820861679	69	127
72.10879818594104	72.21328798185941	82	127
72.10879818594104	72.21328798185941	70	127
72.21328798185941	72.30614512471655	84	127
72.21328798185941	72.30614512471655	72	127
72.30614512471655	72.38743764172335	86	127
72.30614512471655	72.38743764172335	74	127
72.38743764172335	72.48031746031747	91	127
72.38743764172335	72.48031746031747	79	127
72.48031746031747	72.60802721088436	86	127
72.48031746031747	72.60802721088436	74	127
72.60802721088436	72.73573696145125	82	127
72.60802721088436	72.73573696145125	70	127
72.73573696145125	72.86344671201815	79	127
72.73573696145125	72.86344671201815	67	127
72.86344671201815	72.94469387755102	81	127
72.86344671201815	72.94469387755102	69	127
72.94469387755102	73.04918367346939	82	127
72.94469387755102	73.04918367346939	70	127
73.04918367346939	73.11886621315193	84	127
73.04918367346939	73.11886621315193	72	127
73.11886621315193	73.23496598639456	86	127
73.11886621315193	73.23496598639456	74	127
73.24657596371883	73.33945578231292	91	127
73.24657596371883	73.4091156462585	79	127
73.33945578231292	73.4091156462585	86	127
73.4091156462585	73.49038548752834	82	127
73.49038548752834	73.58324263038548	79	127
73.59487528344671	73.66453514739229	74	127
73.66453514739229	73.74580498866213	70	127
73.74580498866213	73.88512471655329	67	127
73.88512471655329	74.03605442176871	62	127
74.03605442176871	74.15215419501133	77	127
74.03605442176871	74.15215419501133	65	127
74.15215419501133	74.23342403628118	79	127
74.15215419501133	74.23342403628118	67	127
74.23342403628118	74.33791383219955	77	127
74.23342403628118	74.33791383219955	65	127
74.33791383219955	74.45399092970521	75	127
74.33791383219955	74.45399092970521	63	127
74.45399092970521	74.55850340136054	74	127
74.45399092970521	74.55850340136054	62	127
74.55850340136054	74.65138321995465	75	127
74.55850340136054	74.65138321995465	63	127
74.65138321995465	74.709410430839	74	127
74.65138321995465	74.709410430839	62	127
74.72104308390023	74.8255328798186	75	127
74.72104308390023	74.8255328798186	63	127
74.8371201814059	74.9184126984127	77	127
74.8371201814059	74.9184126984127	65	127
74.93002267573696	75.01129251700681	79	127
74.93002267573696	75.01129251700681	67	127
75.02290249433106	75.11578231292518	77	127
75.02290249433106	75.11578231292518	65	127
75.12739229024943	75.22024943310657	75	127
75.12739229024943	75.22024943310657	63	127
75.2318820861678	75.33637188208617	74	127
75.2318820861678	75.33637188208617	62	127
75.33637188208617	75.39442176870749	75	127
75.33637188208617	75.39442176870749	63	127
75.39442176870749	75.49891156462586	74	127
75.39442176870749	75.49891156462586	62	127
75.49891156462586	75.59179138321996	75	127
75.49891156462586	75.59179138321996	63	127
75.59179138321996	75.69628117913832	77	127
75.59179138321996	75.69628117913832	65	127
75.69628117913832	75.81238095238095	79	127
75.69628117913832	75.81238095238095	67	127
75.81238095238095	75.89365079365079	77	127
75.81238095238095	75.89365079365079	65	127
75.89365079365079	76.00975056689343	79	127
75.89365079365079	76.00975056689343	67	127
76.00975056689343	76.12585034013605	81	127
76.00975056689343	76.12585034013605	69	127
76.12585034013605	76.19551020408163	82	127
76.12585034013605	76.19551020408163	70	127
76.19551020408163	76.28839002267574	81	127
76.19551020408163	76.28839002267574	69	127
76.3	76.38126984126984	82	127
76.3	76.38126984126984	70	127
76.39287981859411	76.49734693877551	84	127
76.39287981859411	76.49734693877551	72	127
76.49734693877551	76.59024943310658	82	127
76.49734693877551	76.59024943310658	70	127
76.60183673469388	76.68312925170068	84	127
76.60183673469388	76.68312925170068	72	127
76.69473922902495	76.79922902494332	82	127
76.69473922902495	76.79922902494332	70	127
76.81083900226757	76.91532879818594	81	127
76.81083900226757	76.91532879818594	69	127
76.91532879818594	77.01981859410431	79	127
76.91532879818594	77.01981859410431	67	127
77.01981859410431	77.08947845804988	81	127
77.01981859410431	77.08947845804988	69	127
77.08947845804988	77.20557823129252	79	127
77.08947845804988	77.20557823129252	67	127
77.20557823129252	77.29845804988662	77	127
77.20557823129252	77.29845804988662	65	127
77.29845804988662	77.41455782312926	79	127
77.29845804988662	77.41455782312926	67	127
77.41455782312926	77.51904761904763	77	127
77.41455782312926	77.51904761904763	65	127
77.51904761904763	77.62351473922902	79	127
77.51904761904763	77.62351473922902	67	127
77.62351473922902	77.73963718820862	81	127
77.62351473922902	77.73963718820862	69	127
77.73963718820862	77.83251700680272	84	127
77.73963718820862	77.83251700680272	72	127
77.83251700680272	77.9021768707483	81	127
77.83251700680272	77.9021768707483	69	127
77.9021768707483	77.9950566893424	84	127
77.9021768707483	77.9950566893424	72	127
78.0066439909297	78.11115646258503	89	127
78.0066439909297	78.11115646258503	77	127
78.1227664399093	78.19242630385487	87	127
78.1227664399093	78.19242630385487	75	127
78.20403628117914	78.30852607709751	89	127
78.20403628117914	78.30852607709751	77	127
78.32013605442177	78.40140589569161	87	127
78.32013605442177	78.40140589569161	75	127
78.41301587301588	78.47106575963718	86	127
78.41301587301588	78.47106575963718	74	127
78.47106575963718	78.5639455782313	84	127
78.47106575963718	78.5639455782313	72	127
78.5639455782313	78.66843537414967	86	127
78.5639455782313	78.66843537414967	74	127
78.66843537414967	78.76131519274377	84	127
78.66843537414967	78.76131519274377	72	127
78.76131519274377	78.85419501133786	82	127
78.76131519274377	78.85419501133786	70	127
78.85419501133786	78.95868480725623	86	127
78.85419501133786	78.95868480725623	74	127
78.95868480725623	79.03995464852608	82	127
78.95868480725623	79.03995464852608	70	127
79.03995464852608	79.15603174603174	86	127
79.03995464852608	79.15603174603174	74	127
79.15603174603174	79.27215419501134	92	127
79.15603174603174	79.27215419501134	80	127
79.27215419501134	79.37664399092971	84	127
79.27215419501134	79.37664399092971	72	127
79.37664399092971	79.44630385487528	92	127
79.37664399092971	79.44630385487528	80	127
79.45791383219955	79.53916099773242	84	127
79.45791383219955	79.53916099773242	72	127
79.55079365079365	79.65528344671202	82	127
79.55079365079365	79.65528344671202	70	127
79.66687074829932	79.75977324263039	91	127
79.66687074829932	79.75977324263039	79	127
79.77136054421769	79.86426303854876	82	127
79.77136054421769	79.86426303854876	70	127
79.87587301587301	79.96875283446713	91	127
79.87587301587301	79.96875283446713	79	127
79.98036281179138	80.0732426303855	90	127
79.98036281179138	80.0732426303855	78	127
80.08485260770975	80.17770975056689	81	127
80.08485260770975	80.17770975056689	69	127
80.17770975056689	80.28219954648526	90	127
80.17770975056689	80.28219954648526	78	127
80.28219954648526	80.38671201814059	81	127
80.28219954648526	80.38671201814059	69	127
80.38671201814059	80.49120181405895	91	127
80.38671201814059	80.49120181405895	79	127
80.49120181405895	80.60730158730159	86	127
80.49120181405895	80.60730158730159	74	127
80.60730158730159	80.71179138321996	82	127
80.60730158730159	80.71179138321996	70	127
80.71179138321996	80.81628117913833	79	127
80.71179138321996	80.81628117913833	67	127
80.81628117913833	80.87433106575963	81	127
80.81628117913833	80.87433106575963	69	127
80.87433106575963	80.978820861678	82	127
80.87433106575963	80.978820861678	70	127
80.978820861678	81.06009070294785	84	127
80.978820861678	81.06009070294785	72	127
81.07170068027212	81.17616780045351	86	127
81.07170068027212	81.17616780045351	74	127
81.18780045351474	81.26907029478458	91	127
81.18780045351474	81.26907029478458	79	127
81.28068027210884	81.38517006802721	86	127
81.28068027210884	81.38517006802721	74	127
81.39678004535148	81.46643990929705	82	127
81.39678004535148	81.46643990929705	70	127
81.46643990929705	81.5592970521542	79	127
81.46643990929705	81.5592970521542	67	127
81.57092970521542	81.640589569161	81	127
81.57092970521542	81.640589569161	69	127
81.65219954648526	81.74507936507936	82	127
81.65219954648526	81.74507936507936	70	127
81.74507936507936	81.861179138322	84	127
81.74507936507936	81.861179138322	72	127
81.861179138322	81.96566893424037	86	127
81.861179138322	81.96566893424037	74	127
81.96566893424037	82.05854875283447	91	127
81.96566893424037	82.05854875283447	79	127
82.05854875283447	82.16303854875284	86	127
82.05854875283447	82.16303854875284	74	127
82.16303854875284	82.2675283446712	82	127
82.16303854875284	82.2675283446712	70	127
82.2675283446712	82.3952380952381	79	127
82.2675283446712	82.3952380952381	67	127
82.3952380952381	82.4881179138322	81	127
82.3952380952381	82.4881179138322	69	127
82.4881179138322	82.58097505668934	82	127
82.4881179138322	82.58097505668934	70	127
82.58097505668934	82.65065759637189	84	127
82.58097505668934	82.65065759637189	72	127
82.66226757369614	82.76675736961451	86	127
82.66226757369614	82.76675736961451	74	127
82.76675736961451	82.87124716553288	91	127
82.76675736961451	82.9408843537415	79	127
82.88285714285715	82.9408843537415	86	127
82.9408843537415	83.01056689342404	82	127
83.01056689342404	83.11505668934241	79	127
83.12666666666667	83.25437641723356	74	127
83.26598639455783	83.3356462585034	70	127
83.3356462585034	83.45172335600907	67	127
83.45172335600907	83.60265306122449	62	127
83.60265306122449	83.70714285714286	71	127
83.60265306122449	83.70714285714286	59	127
83.70714285714286	83.82326530612245	72	127
83.70714285714286	83.82326530612245	60	127
83.82326530612245	83.9045351473923	71	127
83.82326530612245	83.9045351473923	59	127
83.9045351473923	84.00902494331066	72	127
83.9045351473923	84.00902494331066	60	127
84.00902494331066	84.10190476190476	74	127
84.00902494331066	84.10190476190476	62	127
84.10190476190476	84.17156462585034	72	127
84.10190476190476	84.17156462585034	60	127
84.1831746031746	84.2760544217687	74	127
84.1831746031746	84.2760544217687	62	127
84.28766439909298	84.35732426303855	72	127
84.28766439909298	84.35732426303855	60	127
84.36893424036282	84.45020408163265	71	127
84.36893424036282	84.45020408163265	59	127
84.46181405895692	84.55469387755102	72	127
84.46181405895692	84.55469387755102	60	127
84.55469387755102	84.63596371882086	71	127
84.55469387755102	84.63596371882086	59	127
84.64757369614513	84.7520634920635	72	127
84.64757369614513	84.7520634920635	60	127
84.76367346938775	84.86816326530612	74	127
84.76367346938775	84.86816326530612	62	127
84.86816326530612	84.99587301587302	72	127
84.86816326530612	84.99587301587302	60	127
84.99587301587302	85.10036281179138	74	127
84.99587301587302	85.10036281179138	62	127
85.10036281179138	85.20485260770975	72	127
85.10036281179138	85.20485260770975	60	127
85.20485260770975	85.27451247165533	71	127
85.20485260770975	85.27451247165533	59	127
85.27451247165533	85.3790022675737	72	127
85.27451247165533	85.3790022675737	60	127
85.3790022675737	85.48349206349206	71	127
85.3790022675737	85.48349206349206	59	127
85.48349206349206	85.61120181405896	72	127
85.48349206349206	85.61120181405896	60	127
85.61120181405896	85.70408163265306	74	127
85.61120181405896	85.70408163265306	62	127
85.70408163265306	85.79696145124717	76	127
85.70408163265306	85.79696145124717	64	127
85.80857142857143	85.90145124716554	74	127
85.80857142857143	85.90145124716554	62	127
85.9130612244898	86.01755102040816	76	127
85.9130612244898	86.01755102040816	64	127
86.02916099773243	86.12204081632653	77	127
86.02916099773243	86.12204081632653	65	127
86.12204081632653	86.16848072562358	76	127
86.12204081632653	86.16848072562358	64	127
86.16848072562358	86.26133786848072	77	127
86.16848072562358	86.26133786848072	65	127
86.27297052154195	86.40068027210884	76	127
86.27297052154195	86.40068027210884	64	127
86.41229024943311	86.50517006802721	75	127
86.41229024943311	86.50517006802721	63	127
86.50517006802721	86.59804988662131	76	127
86.50517006802721	86.59804988662131	64	127
86.59804988662131	86.67931972789115	74	127
86.59804988662131	86.67931972789115	62	127
86.67931972789115	86.760589569161	76	127
86.67931972789115	86.760589569161	64	127
86.760589569161	86.87666666666667	73	127
86.760589569161	86.87666666666667	61	127
86.87666666666667	86.98117913832199	74	127
86.87666666666667	86.98117913832199	62	127
86.98117913832199	87.08566893424036	73	127
86.98117913832199	87.08566893424036	61	127
87.08566893424036	87.1669387755102	74	127
87.08566893424036	87.1669387755102	62	127
87.1669387755102	87.27142857142857	76	127
87.1669387755102	87.27142857142857	64	127
87.27142857142857	87.37591836734694	74	127
87.27142857142857	87.37591836734694	62	127
87.38750566893424	87.46879818594104	76	127
87.38750566893424	87.46879818594104	64	127
87.48040816326531	87.58489795918368	74	127
87.48040816326531	87.58489795918368	62	127
87.59650793650793	87.68938775510205	73	127
87.59650793650793	87.68938775510205	61	127
87.7009977324263	87.81709750566894	74	127
87.7009977324263	87.81709750566894	62	127
87.8287074829932	87.90997732426304	73	127
87.8287074829932	87.90997732426304	61	127
87.92158730158731	88.00285714285714	74	127
87.92158730158731	88.00285714285714	62	127
88.01446712018141	88.09573696145125	76	127
88.01446712018141	88.09573696145125	64	127
88.09573696145125	88.20022675736962	74	127
88.09573696145125	88.20022675736962	62	127
88.20022675736962	88.30471655328799	76	127
88.20022675736962	88.30471655328799	64	127
88.30471655328799	88.40918367346939	74	127
88.30471655328799	88.40918367346939	62	127
88.40918367346939	88.52530612244898	73	127
88.40918367346939	88.52530612244898	61	127
88.52530612244898	88.61818594104308	74	127
88.52530612244898	88.61818594104308	62	127
88.61818594104308	88.73428571428572	73	127
88.61818594104308	88.73428571428572	61	127
88.73428571428572	88.85038548752834	74	127
88.73428571428572	88.85038548752834	62	127
88.85038548752834	88.96648526077098	76	127
88.85038548752834	88.96648526077098	64	127
88.96648526077098	89.03614512471655	78	127
88.96648526077098	89.03614512471655	66	127
89.03614512471655	89.14063492063492	76	127
89.03614512471655	89.14063492063492	64	127
89.15224489795918	89.23351473922902	78	127
89.15224489795918	89.23351473922902	66	127
89.23351473922902	89.31478458049887	79	127
89.23351473922902	89.31478458049887	67	127
89.32639455782314	89.38444444444444	78	127
89.32639455782314	89.38444444444444	66	127
89.39605442176871	89.48893424036281	79	127
89.39605442176871	89.48893424036281	67	127
89.50054421768708	89.59342403628118	78	127
89.50054421768708	89.59342403628118	66	127
89.60503401360545	89.68628117913832	77	127
89.60503401360545	89.68628117913832	65	127
89.68628117913832	89.80240362811791	78	127
89.68628117913832	89.80240362811791	66	127
89.80240362811791	89.91848072562358	76	127
89.80240362811791	89.91848072562358	64	127
89.91848072562358	90.03460317460318	78	127
89.91848072562358	90.03460317460318	66	127
90.03460317460318	90.13909297052155	74	127
90.03460317460318	90.13909297052155	62	127
90.13909297052155	90.23197278911564	76	127
90.13909297052155	90.23197278911564	64	127
90.23197278911564	90.33646258503401	74	127
90.23197278911564	90.33646258503401	62	127
90.33646258503401	90.45253968253968	76	127
90.33646258503401	90.45253968253968	64	127
90.45253968253968	90.56866213151928	78	127
90.45253968253968	90.56866213151928	66	127
90.56866213151928	90.67315192743764	79	127
90.56866213151928	90.67315192743764	67	127
90.67315192743764	90.76603174603174	78	127
90.67315192743764	90.76603174603174	66	127
90.77764172335601	90.87052154195011	79	127
90.77764172335601	90.87052154195011	67	127
90.88213151927438	90.98662131519275	81	127
90.88213151927438	90.98662131519275	69	127
90.998231292517	91.10272108843537	83	127
90.998231292517	91.10272108843537	71	127
91.11433106575964	91.20721088435374	81	127
91.11433106575964	91.20721088435374	69	127
91.21882086167801	91.32328798185941	83	127
91.21882086167801	91.32328798185941	71	127
91.3465306122449	91.4509977324263	79	127
91.3465306122449	91.4509977324263	67	127
91.4509977324263	91.5671201814059	81	127
91.4509977324263	91.5671201814059	69	127
91.5671201814059	91.67160997732427	79	127
91.5671201814059	91.67160997732427	67	127
91.67160997732427	91.78770975056689	81	127
91.67160997732427	91.78770975056689	69	127
91.78770975056689	91.89219954648526	78	127
91.78770975056689	91.89219954648526	66	127
91.89219954648526	92.0082993197279	79	127
91.89219954648526	92.0082993197279	67	127
92.0082993197279	92.12439909297052	78	127
92.0082993197279	92.12439909297052	66	127
92.12439909297052	92.24049886621316	79	127
92.12439909297052	92.24049886621316	67	127
92.24049886621316	92.37981859410431	78	127
92.24049886621316	92.37981859410431	66	127
92.37981859410431	92.51913832199547	79	127
92.37981859410431	92.51913832199547	67	127
92.51913832199547	92.6352380952381	78	127
92.51913832199547	92.6352380952381	66	127
92.64684807256236	92.76294784580499	79	127
92.64684807256236	92.76294784580499	67	127
92.77455782312926	92.90226757369615	77	127
92.77455782312926	92.90226757369615	65	127
92.9138775510204	93.02997732426304	79	127
92.9138775510204	93.02997732426304	67	127
93.0415873015873	93.23893424036281	77	127
93.0415873015873	93.23893424036281	65	127
93.25056689342404	93.41310657596372	79	127
93.25056689342404	93.41310657596372	67	127
93.42471655328798	93.54081632653062	77	127
93.42471655328798	93.54081632653062	65	127
93.55242630385487	93.65691609977324	79	127
93.55242630385487	93.65691609977324	67	127
93.65691609977324	93.8891156462585	77	127
93.65691609977324	93.8891156462585	65	127
93.8891156462585	94.0168253968254	79	127
93.8891156462585	94.0168253968254	67	127
94.0168253968254	94.14453514739229	77	127
94.0168253968254	94.14453514739229	65	127
94.14453514739229	94.26061224489796	79	127
94.14453514739229	94.26061224489796	67	127
94.26061224489796	94.39995464852608	77	127
94.26061224489796	94.39995464852608	65	127
94.39995464852608	94.51603174603174	75	127
94.39995464852608	94.51603174603174	63	127
94.51603174603174	94.63215419501134	74	127
94.51603174603174	94.63215419501134	62	127
94.63215419501134	94.748231292517	75	127
94.63215419501134	94.748231292517	63	127
94.748231292517	94.85274376417233	74	127
94.748231292517	94.85274376417233	62	127
94.8643537414966	94.9920634920635	75	127
94.8643537414966	94.9920634920635	63	127
95.00365079365079	95.10816326530612	77	127
95.00365079365079	95.10816326530612	65	127
95.11977324263039	95.22426303854876	79	127
95.11977324263039	95.22426303854876	67	127
95.23587301587301	95.34036281179138	77	127
95.23587301587301	95.34036281179138	65	127
95.35197278911565	95.45646258503402	75	127
95.35197278911565	95.45646258503402	63	127
95.46807256235827	95.58417233560091	74	127
95.46807256235827	95.58417233560091	62	127
95.59578231292517	95.68866213151928	75	127
95.59578231292517	95.68866213151928	63	127
95.68866213151928	95.79315192743765	74	127
95.68866213151928	95.79315192743765	62	127
95.79315192743765	95.897641723356	75	127
95.79315192743765	95.897641723356	63	127
95.897641723356	96.01374149659864	77	127
95.897641723356	96.01374149659864	65	127
96.01374149659864	96.10662131519274	79	127
96.01374149659864	96.10662131519274	67	127
96.10662131519274	96.18789115646258	77	127
96.10662131519274	96.18789115646258	65	127
96.18789115646258	96.28077097505668	79	127
96.18789115646258	96.28077097505668	67	127
96.28077097505668	96.38526077097505	81	127
96.28077097505668	96.38526077097505	69	127
96.38526077097505	96.47814058956916	82	127
96.38526077097505	96.47814058956916	70	127
96.47814058956916	96.57102040816326	81	127
96.47814058956916	96.57102040816326	69	127
96.57102040816326	96.66390022675736	82	127
96.57102040816326	96.66390022675736	70	127
96.67551020408163	96.79160997732426	84	127
96.67551020408163	96.79160997732426	72	127
96.80321995464853	96.9077097505669	82	127
96.80321995464853	96.9077097505669	70	127
96.91931972789115	96.98897959183674	84	127
96.91931972789115	96.98897959183674	72	127
97.000589569161	97.07024943310658	82	127
97.000589569161	97.07024943310658	70	127
97.08185941043084	97.1863492063492	81	127
97.08185941043084	97.1863492063492	69	127
97.19795918367348	97.2792290249433	79	127
97.19795918367348	97.2792290249433	67	127
97.2792290249433	97.3488888888889	81	127
97.2792290249433	97.3488888888889	69	127
97.3488888888889	97.46498866213152	79	127
97.3488888888889	97.46498866213152	67	127
97.46498866213152	97.54625850340136	77	127
97.46498866213152	97.54625850340136	65	127
97.54625850340136	97.6275283446712	79	127
97.54625850340136	97.6275283446712	67	127
97.6275283446712	97.7204081632653	77	127
97.6275283446712	97.7204081632653	65	127
97.7204081632653	97.8481179138322	79	127
97.7204081632653	97.8481179138322	67	127
97.8481179138322	97.96421768707484	81	127
97.8481179138322	97.96421768707484	69	127
97.96421768707484	98.08031746031746	84	127
97.96421768707484	98.08031746031746	72	127
98.08031746031746	98.17319727891156	81	127
98.08031746031746	98.17319727891156	69	127
98.17319727891156	98.27768707482993	84	127
98.17319727891156	98.27768707482993	72	127
98.2892970521542	98.39378684807257	93	127
98.2892970521542	98.39378684807257	81	127
98.39378684807257	98.44022675736962	91	127
98.39378684807257	98.44022675736962	79	127
98.45183673469388	98.55632653061224	93	127
98.45183673469388	98.55632653061224	81	127
98.56793650793651	98.67242630385488	91	127
98.56793650793651	98.67242630385488	79	127
98.68403628117913	98.76530612244898	89	127
98.68403628117913	98.76530612244898	77	127
98.77691609977325	98.86979591836734	87	127
98.77691609977325	98.86979591836734	75	127
98.86979591836734	98.96267573696146	89	127
98.86979591836734	98.96267573696146	77	127
98.96267573696146	99.07877551020408	87	127
98.96267573696146	99.07877551020408	75	127
99.07877551020408	99.17165532879818	86	127
99.07877551020408	99.17165532879818	74	127
99.17165532879818	99.2645351473923	89	127
99.17165532879818	99.2645351473923	77	127
99.2645351473923	99.36902494331066	86	127
99.2645351473923	99.36902494331066	74	127
99.36902494331066	99.47351473922903	89	127
99.36902494331066	99.47351473922903	77	127
99.47351473922903	99.57800453514739	96	127
99.47351473922903	99.57800453514739	84	127
99.57800453514739	99.6708843537415	87	127
99.57800453514739	99.6708843537415	75	127
99.6708843537415	99.77537414965987	96	127
99.6708843537415	99.77537414965987	84	127
99.77537414965987	99.85664399092971	87	127
99.77537414965987	99.85664399092971	75	127
99.86825396825397	99.93791383219954	86	127
99.86825396825397	99.93791383219954	74	127
99.93791383219954	100.01918367346939	94	127
99.93791383219954	100.01918367346939	82	127
100.01918367346939	100.12367346938775	86	127
100.01918367346939	100.12367346938775	74	127
100.13528344671202	100.23977324263039	94	127
100.13528344671202	100.23977324263039	82	127
100.25138321995465	100.35587301587302	93	127
100.25138321995465	100.35587301587302	81	127
100.36748299319729	100.42553287981859	84	127
100.36748299319729	100.42553287981859	72	127
100.43714285714286	100.53002267573696	93	127
100.43714285714286	100.53002267573696	81	127
100.53002267573696	100.6461224489796	84	127
100.53002267573696	100.6461224489796	72	127
100.6461224489796	100.7390022675737	94	127
100.6461224489796	100.7390022675737	82	127
100.7390022675737	100.8318820861678	89	127
100.7390022675737	100.8318820861678	77	127
100.8318820861678	100.91315192743764	86	127
100.8318820861678	100.91315192743764	74	127
100.91315192743764	101.00603174603175	82	127
100.91315192743764	101.00603174603175	70	127
101.00603174603175	101.1105215419501	83	127
101.00603174603175	101.1105215419501	71	127
101.1105215419501	101.22662131519274	82	127
101.1105215419501	101.22662131519274	70	127
101.22662131519274	101.30789115646259	81	127
101.22662131519274	101.30789115646259	69	127
101.30789115646259	101.3659410430839	82	127
101.30789115646259	101.40077097505669	70	127
101.3659410430839	101.40077097505669	82	127
101.40077097505669	101.49365079365079	94	127
101.50526077097506	101.59814058956916	89	127
101.59814058956916	101.65619047619047	86	127
101.66780045351474	101.77229024943311	82	127
101.66780045351474	101.77229024943311	70	127
101.78390022675737	101.88839002267574	83	127
101.78390022675737	101.88839002267574	71	127
101.9	101.9928798185941	82	127
101.9	101.9928798185941	70	127
101.9928798185941	102.0857596371882	81	127
101.9928798185941	102.0857596371882	69	127
102.0857596371882	102.14380952380952	82	127
102.0857596371882	102.20185941043084	70	127
102.14380952380952	102.20185941043084	82	127
102.20185941043084	102.29473922902494	94	127
102.29473922902494	102.41083900226758	89	127
102.41083900226758	102.44566893424036	86	127
102.44566893424036	102.55015873015873	82	127
102.44566893424036	102.55015873015873	70	127
102.55015873015873	102.66625850340137	83	127
102.55015873015873	102.66625850340137	71	127
102.66625850340137	102.77074829931973	82	127
102.66625850340137	102.77074829931973	70	127
102.77074829931973	102.87523809523809	81	127
102.77074829931973	102.87523809523809	69	127
102.87523809523809	102.91006802721088	82	127
102.87523809523809	102.95650793650793	70	127
102.91006802721088	102.9681179138322	82	127
102.9681179138322	103.08421768707483	94	127
103.0958276643991	103.21192743764172	89	127
103.21192743764172	103.35124716553288	86	127
103.35124716553288	103.45573696145125	82	127
103.45573696145125	103.56022675736962	77	127
103.45573696145125	103.56022675736962	65	127
103.57183673469387	103.68793650793651	74	127
103.57183673469387	103.68793650793651	62	127
103.68793650793651	103.75759637188209	69	127
103.68793650793651	103.75759637188209	57	127
103.75759637188209	103.87369614512471	70	127
103.75759637188209	103.87369614512471	58	127
103.87369614512471	103.98979591836735	71	127
103.87369614512471	103.98979591836735	59	127
103.98979591836735	104.08267573696145	72	127
103.98979591836735	104.08267573696145	60	127
104.08267573696145	104.16394557823129	71	127
104.08267573696145	104.16394557823129	59	127
104.16394557823129	104.23360544217687	72	127
104.16394557823129	104.23360544217687	60	127
104.23360544217687	104.36131519274376	74	127
104.23360544217687	104.36131519274376	62	127
104.36131519274376	104.46580498866213	72	127
104.36131519274376	104.46580498866213	60	127
104.46580498866213	104.5702947845805	74	127
104.46580498866213	104.5702947845805	62	127
104.58190476190477	104.68639455782314	72	127
104.58190476190477	104.68639455782314	60	127
104.69800453514739	104.79088435374149	71	127
104.69800453514739	104.79088435374149	59	127
104.80249433106576	104.89537414965986	72	127
104.80249433106576	104.89537414965986	60	127
104.90698412698413	104.99986394557823	71	127
104.90698412698413	104.99986394557823	59	127
105.0114739229025	105.11596371882086	72	127
105.0114739229025	105.11596371882086	60	127
105.12757369614512	105.20884353741496	74	127
105.12757369614512	105.20884353741496	62	127
105.22045351473923	105.27850340136054	72	127
105.22045351473923	105.27850340136054	60	127
105.27850340136054	105.3829931972789	74	127
105.27850340136054	105.3829931972789	62	127
105.3829931972789	105.49909297052154	72	127
105.3829931972789	105.49909297052154	60	127
105.49909297052154	105.61519274376417	71	127
105.49909297052154	105.61519274376417	59	127
105.61519274376417	105.71968253968254	72	127
105.61519274376417	105.71968253968254	60	127
105.71968253968254	105.83578231292518	71	127
105.71968253968254	105.83578231292518	59	127
105.83578231292518	105.9518820861678	72	127
105.83578231292518	105.9518820861678	60	127
105.9518820861678	106.06798185941044	74	127
105.9518820861678	106.06798185941044	62	127
106.06798185941044	106.19569160997733	76	127
106.06798185941044	106.19569160997733	64	127
106.19569160997733	106.28857142857143	74	127
106.19569160997733	106.28857142857143	62	127
106.28857142857143	106.36984126984127	76	127
106.28857142857143	106.36984126984127	64	127
106.38145124716553	106.43950113378685	77	127
106.38145124716553	106.43950113378685	65	127
106.43950113378685	106.50916099773242	76	127
106.43950113378685	106.50916099773242	64	127
106.52077097505669	106.60204081632654	77	127
106.52077097505669	106.60204081632654	65	127
106.60204081632654	106.69492063492063	76	127
106.60204081632654	106.69492063492063	64	127
106.7065306122449	106.81102040816326	75	127
106.7065306122449	106.81102040816326	63	127
106.82263038548753	106.9271201814059	76	127
106.82263038548753	106.9271201814059	64	127
106.9271201814059	106.98517006802722	74	127
106.9271201814059	106.98517006802722	62	127
106.98517006802722	107.07804988662132	76	127
106.98517006802722	107.07804988662132	64	127
107.07804988662132	107.18253968253968	73	127
107.07804988662132	107.18253968253968	61	127
107.18253968253968	107.31024943310658	74	127
107.18253968253968	107.31024943310658	62	127
107.31024943310658	107.43795918367347	73	127
107.31024943310658	107.43795918367347	61	127
107.43795918367347	107.56566893424036	74	127
107.43795918367347	107.56566893424036	62	127
107.56566893424036	107.68176870748299	76	127
107.56566893424036	107.68176870748299	64	127
107.68176870748299	107.78625850340136	74	127
107.68176870748299	107.78625850340136	62	127
107.78625850340136	107.87913832199547	76	127
107.78625850340136	107.87913832199547	64	127
107.89074829931972	107.9952380952381	74	127
107.89074829931972	107.9952380952381	62	127
108.00684807256236	108.09972789115646	73	127
108.00684807256236	108.09972789115646	61	127
108.11133786848073	108.12294784580499	74	127
108.11133786848073	108.12294784580499	62	127
108.13455782312926	108.23904761904762	73	127
108.13455782312926	108.23904761904762	61	127
108.25065759637188	108.35514739229025	74	127
108.25065759637188	108.35514739229025	62	127
108.36675736961452	108.44802721088435	76	127
108.36675736961452	108.44802721088435	64	127
108.45963718820862	108.56412698412699	74	127
108.45963718820862	108.56412698412699	62	127
108.56412698412699	108.66861678004535	76	127
108.56412698412699	108.66861678004535	64	127
108.66861678004535	108.7498866213152	74	127
108.66861678004535	108.7498866213152	62	127
108.7498866213152	108.86598639455782	73	127
108.7498866213152	108.86598639455782	61	127
108.86598639455782	108.94725623582767	74	127
108.86598639455782	108.94725623582767	62	127
108.94725623582767	109.05174603174603	73	127
108.94725623582767	109.05174603174603	61	127
109.05174603174603	109.1562358276644	74	127
109.05174603174603	109.1562358276644	62	127
109.1562358276644	109.27233560090703	76	127
109.1562358276644	109.27233560090703	64	127
109.27233560090703	109.38843537414967	78	127
109.27233560090703	109.38843537414967	66	127
109.38843537414967	109.49292517006803	76	127
109.38843537414967	109.49292517006803	64	127
109.50453514739229	109.59741496598639	78	127
109.50453514739229	109.59741496598639	66	127
109.60902494331066	109.71351473922903	79	127
109.60902494331066	109.71351473922903	67	127
109.72512471655328	109.8180045351474	78	127
109.72512471655328	109.8180045351474	66	127
109.82961451247165	109.87605442176871	79	127
109.82961451247165	109.87605442176871	67	127
109.88766439909297	109.99215419501134	78	127
109.88766439909297	109.99215419501134	66	127
110.00376417233561	110.08503401360544	77	127
110.00376417233561	110.08503401360544	65	127
110.0966439909297	110.1895238095238	78	127
110.0966439909297	110.1895238095238	66	127
110.1895238095238	110.30562358276644	76	127
110.1895238095238	110.30562358276644	64	127
110.30562358276644	110.39850340136054	78	127
110.30562358276644	110.39850340136054	66	127
110.39850340136054	110.50299319727891	74	127
110.39850340136054	110.50299319727891	62	127
110.50299319727891	110.58426303854876	76	127
110.50299319727891	110.58426303854876	64	127
110.58426303854876	110.68875283446712	74	127
110.58426303854876	110.68875283446712	62	127
110.68875283446712	110.79324263038549	76	127
110.68875283446712	110.79324263038549	64	127
110.79324263038549	110.90934240362812	78	127
110.79324263038549	110.90934240362812	66	127
110.90934240362812	111.01383219954648	79	127
110.90934240362812	111.01383219954648	67	127
111.01383219954648	111.12993197278911	78	127
111.01383219954648	111.12993197278911	66	127
111.12993197278911	111.22281179138322	79	127
111.12993197278911	111.22281179138322	67	127
111.23442176870748	111.31569160997732	81	127
111.23442176870748	111.31569160997732	69	127
111.32730158730159	111.42018140589569	83	127
111.32730158730159	111.42018140589569	71	127
111.43179138321996	111.52467120181406	81	127
111.43179138321996	111.52467120181406	69	127
111.53628117913833	111.64077097505668	83	127
111.53628117913833	111.64077097505668	71	127
111.65238095238095	111.76848072562358	79	127
111.65238095238095	111.76848072562358	67	127
111.78009070294785	111.87297052154194	81	127
111.78009070294785	111.87297052154194	69	127
111.87297052154194	111.98907029478458	79	127
111.87297052154194	111.98907029478458	67	127
111.98907029478458	112.09356009070295	81	127
111.98907029478458	112.09356009070295	69	127
112.09356009070295	112.20965986394557	78	127
112.09356009070295	112.20965986394557	66	127
112.20965986394557	112.30253968253969	79	127
112.20965986394557	112.30253968253969	67	127
112.30253968253969	112.44185941043084	78	127
112.30253968253969	112.44185941043084	66	127
112.44185941043084	112.55795918367347	79	127
112.44185941043084	112.55795918367347	67	127
112.55795918367347	112.68566893424037	78	127
112.55795918367347	112.68566893424037	66	127
112.68566893424037	112.82498866213152	79	127
112.68566893424037	112.82498866213152	67	127
112.82498866213152	112.96430839002268	78	127
112.82498866213152	112.96430839002268	66	127
112.96430839002268	113.0804081632653	79	127
112.96430839002268	113.0804081632653	67	127
113.09201814058957	113.2081179138322	77	127
113.09201814058957	113.2081179138322	65	127
113.21972789115647	113.33582766439909	79	127
113.21972789115647	113.33582766439909	67	127
113.34743764172336	113.47514739229025	77	127
113.34743764172336	113.47514739229025	65	127
113.48675736961451	113.69573696145125	79	127
113.48675736961451	113.69573696145125	67	127
113.70734693877552	113.86988662131519	77	127
113.70734693877552	113.86988662131519	65	127
113.88149659863946	113.99759637188208	79	127
113.88149659863946	113.99759637188208	67	127
114.00920634920635	114.17174603174603	77	127
114.00920634920635	114.17174603174603	65	127
114.17174603174603	114.4968253968254	79	127
114.17174603174603	114.4968253968254	67	127
114.4968253968254	114.69419501133787	77	127
114.4968253968254	114.69419501133787	65	127
114.69419501133787	114.82190476190476	79	127
114.69419501133787	114.82190476190476	67	127
114.82190476190476	114.92639455782313	77	127
114.82190476190476	114.92639455782313	65	127
114.92639455782313	115.04249433106575	75	127
114.92639455782313	115.04249433106575	63	127
115.04249433106575	115.14698412698412	74	127
115.04249433106575	115.14698412698412	62	127
115.14698412698412	115.25147392290249	75	127
115.14698412698412	115.25147392290249	63	127
115.25147392290249	115.36757369614513	74	127
115.25147392290249	115.36757369614513	62	127
115.36757369614513	115.4720634920635	75	127
115.36757369614513	115.4720634920635	63	127
115.48367346938775	115.55333333333333	77	127
115.48367346938775	115.55333333333333	65	127
115.5649433106576	115.6578231292517	79	127
115.5649433106576	115.6578231292517	67	127
115.66943310657597	115.76231292517006	77	127
115.66943310657597	115.76231292517006	65	127
115.77392290249433	115.8784126984127	75	127
115.77392290249433	115.8784126984127	63	127
115.89002267573696	115.98290249433107	74	127
115.89002267573696	115.98290249433107	62	127
115.99451247165533	116.08739229024944	75	127
115.99451247165533	116.08739229024944	63	127
116.0990022675737	116.18027210884354	74	127
116.0990022675737	116.18027210884354	62	127
116.18027210884354	116.28476190476191	75	127
116.18027210884354	116.28476190476191	63	127
116.28476190476191	116.36603174603175	77	127
116.28476190476191	116.36603174603175	65	127
116.36603174603175	116.45891156462585	79	127
116.36603174603175	116.45891156462585	67	127
116.45891156462585	116.5053514739229	77	127
116.45891156462585	116.5053514739229	65	127
116.5053514739229	116.62145124716554	79	127
116.5053514739229	116.62145124716554	67	127
116.62145124716554	116.7259410430839	81	127
116.62145124716554	116.7259410430839	69	127
116.7259410430839	116.818820861678	82	127
116.7259410430839	116.818820861678	70	127
116.818820861678	116.92331065759637	81	127
116.818820861678	116.92331065759637	69	127
116.92331065759637	116.9813605442177	82	127
116.92331065759637	116.9813605442177	70	127
116.99297052154195	117.09746031746032	84	127
116.99297052154195	117.09746031746032	72	127
117.10907029478459	117.16712018140589	82	127
117.10907029478459	117.16712018140589	70	127
117.17873015873016	117.27160997732426	84	127
117.17873015873016	117.27160997732426	72	127
117.28321995464853	117.3877097505669	82	127
117.28321995464853	117.3877097505669	70	127
117.39931972789115	117.46897959183673	81	127
117.39931972789115	117.46897959183673	69	127
117.480589569161	117.58507936507937	79	127
117.480589569161	117.58507936507937	67	127
117.59668934240362	117.66634920634921	81	127
117.59668934240362	117.66634920634921	69	127
117.66634920634921	117.77083900226758	79	127
117.66634920634921	117.77083900226758	67	127
117.77083900226758	117.8869387755102	77	127
117.77083900226758	117.8869387755102	65	127
117.8869387755102	118.00303854875284	79	127
117.8869387755102	118.00303854875284	67	127
118.00303854875284	118.09591836734694	77	127
118.00303854875284	118.09591836734694	65	127
118.09591836734694	118.20040816326531	79	127
118.09591836734694	118.20040816326531	67	127
118.20040816326531	118.30489795918368	81	127
118.20040816326531	118.30489795918368	69	127
118.30489795918368	118.38616780045352	84	127
118.30489795918368	118.38616780045352	72	127
118.38616780045352	118.49065759637188	81	127
118.38616780045352	118.49065759637188	69	127
118.49065759637188	118.58353741496599	84	127
118.49065759637188	118.58353741496599	72	127
118.58353741496599	118.67641723356009	93	127
118.58353741496599	118.67641723356009	81	127
118.67641723356009	118.7692970521542	91	127
118.67641723356009	118.7692970521542	79	127
118.78090702947846	118.8621768707483	93	127
118.78090702947846	118.8621768707483	81	127
118.87378684807257	118.97827664399092	91	127
118.87378684807257	118.97827664399092	79	127
118.9898866213152	119.07115646258504	89	127
118.9898866213152	119.07115646258504	77	127
119.08276643990929	119.18725623582766	87	127
119.08276643990929	119.18725623582766	75	127
119.19886621315193	119.29174603174603	89	127
119.19886621315193	119.29174603174603	77	127
119.29174603174603	119.38462585034014	87	127
119.29174603174603	119.38462585034014	75	127
119.38462585034014	119.4891156462585	86	127
119.38462585034014	119.4891156462585	74	127
119.4891156462585	119.60521541950114	89	127
119.4891156462585	119.60521541950114	77	127
119.60521541950114	119.67487528344671	86	127
119.60521541950114	119.67487528344671	74	127
119.67487528344671	119.77936507936508	89	127
119.67487528344671	119.77936507936508	77	127
119.77936507936508	119.89546485260772	96	127
119.77936507936508	119.89546485260772	84	127
119.89546485260772	120.01156462585034	87	127
119.89546485260772	120.01156462585034	75	127
120.01156462585034	120.06961451247166	96	127
120.01156462585034	120.06961451247166	84	127
120.06961451247166	120.11605442176871	87	127
120.06961451247166	120.11605442176871	75	127
120.11605442176871	120.22054421768708	86	127
120.11605442176871	120.22054421768708	74	127
120.23215419501133	120.30181405895692	94	127
120.23215419501133	120.30181405895692	82	127
120.31342403628118	120.39469387755102	86	127
120.31342403628118	120.39469387755102	74	127
120.40630385487529	120.48757369614512	94	127
120.40630385487529	120.48757369614512	82	127
120.49918367346939	120.59206349206349	93	127
120.49918367346939	120.59206349206349	81	127
120.60367346938776	120.70816326530613	84	127
120.60367346938776	120.70816326530613	72	127
120.71977324263038	120.80104308390023	93	127
120.71977324263038	120.80104308390023	81	127
120.8126530612245	120.9055328798186	84	127
120.8126530612245	120.9055328798186	72	127
120.9055328798186	121.02163265306122	94	127
120.9055328798186	121.02163265306122	82	127
121.02163265306122	121.13773242630386	89	127
121.02163265306122	121.13773242630386	77	127
121.13773242630386	121.23061224489796	86	127
121.13773242630386	121.23061224489796	74	127
121.23061224489796	121.33510204081632	82	127
121.23061224489796	121.33510204081632	70	127
121.33510204081632	121.41637188208617	83	127
121.33510204081632	121.41637188208617	71	127
121.41637188208617	121.52086167800454	82	127
121.41637188208617	121.52086167800454	70	127
121.52086167800454	121.63696145124716	81	127
121.52086167800454	121.63696145124716	69	127
121.63696145124716	121.69501133786848	82	127
121.63696145124716	121.76467120181405	70	127
121.69501133786848	121.76467120181405	82	127
121.76467120181405	121.86916099773242	94	127
121.88077097505669	121.92721088435374	89	127
121.93882086167801	121.99687074829932	86	127
122.00848072562358	122.0665306122449	82	127
122.00848072562358	122.0665306122449	70	127
122.07814058956916	122.17102040816326	83	127
122.07814058956916	122.17102040816326	71	127
122.18263038548753	122.27551020408163	82	127
122.18263038548753	122.27551020408163	70	127
122.2871201814059	122.39160997732426	81	127
122.2871201814059	122.39160997732426	69	127
122.40321995464852	122.44965986394558	82	127
122.40321995464852	122.50770975056689	70	127
122.44965986394558	122.50770975056689	82	127
122.50770975056689	122.600589569161	94	127
122.600589569161	122.71668934240363	89	127
122.71668934240363	122.77473922902495	86	127
122.77473922902495	122.87922902494331	82	127
122.77473922902495	122.87922902494331	70	127
122.87922902494331	122.99532879818594	83	127
122.87922902494331	122.99532879818594	71	127
122.99532879818594	123.11142857142858	82	127
122.99532879818594	123.11142857142858	70	127
123.11142857142858	123.20430839002267	81	127
123.11142857142858	123.20430839002267	69	127
123.20430839002267	123.23913832199547	82	127
123.20430839002267	123.29718820861677	70	127
123.23913832199547	123.29718820861677	82	127
123.29718820861677	123.40167800453514	94	127
123.41328798185941	123.52938775510204	89	127
123.52938775510204	123.62226757369615	86	127
123.62226757369615	123.73836734693877	82	127
123.73836734693877	123.85446712018141	77	127
123.73836734693877	123.85446712018141	65	127
123.86607709750567	123.9821768707483	74	127
123.86607709750567	123.9821768707483	62	127
123.99378684807256	124.02861678004535	69	127
123.99378684807256	124.02861678004535	57	127
124.02861678004535	124.1098866213152	70	127
124.02861678004535	124.1098866213152	58	127
124.1098866213152	124.19115646258503	43	127
124.1098866213152	124.19115646258503	50	127
124.1098866213152	124.19115646258503	55	127
124.1098866213152	124.30725623582767	67	127
124.30725623582767	124.37691609977324	55	127
124.41174603174603	124.5162358276644	58	127
124.5162358276644	124.56267573696145	55	127
124.5162358276644	125.16639455782312	62	127
124.69038548752835	124.77165532879819	55	127
124.89936507936508	124.96902494331066	43	127
124.89936507936508	124.96902494331066	50	127
124.89936507936508	124.96902494331066	55	127
125.10834467120182	125.15478458049887	55	127
125.1780045351474	125.2708843537415	58	127
125.2708843537415	125.34054421768707	55	127
125.2708843537415	125.81655328798186	62	127
125.47986394557823	125.53791383219955	55	127
125.70045351473922	125.78172335600907	43	127
125.70045351473922	125.78172335600907	50	127
125.70045351473922	125.78172335600907	55	127
125.81655328798186	125.92104308390023	57	127
125.92104308390023	125.97909297052155	62	127
125.92104308390023	125.97909297052155	55	127
126.06036281179138	126.09519274376417	62	127
126.06036281179138	126.09519274376417	66	127
126.06036281179138	126.09519274376417	55	127
126.2112925170068	126.23451247165534	62	127
126.2112925170068	126.23451247165534	69	127
126.2112925170068	126.23451247165534	55	127
126.26934240362812	126.38544217687075	62	127
126.38544217687075	126.45510204081633	43	127
126.38544217687075	126.45510204081633	50	127
126.38544217687075	126.45510204081633	55	127
126.38544217687075	126.59442176870748	58	127
126.38544217687075	126.59442176870748	67	127
126.60603174603175	126.67569160997732	55	127
126.72213151927437	126.81501133786848	58	127
126.81501133786848	126.86145124716553	55	127
126.81501133786848	127.39551020408163	62	127
126.97755102040816	127.02399092970522	55	127
127.12848072562359	127.20975056689342	43	127
127.12848072562359	127.20975056689342	50	127
127.12848072562359	127.20975056689342	55	127
127.33746031746031	127.38390022675738	55	127
127.39551020408163	127.5	58	127
127.5	127.5348299319728	55	127
127.5	127.91795918367347	62	127
127.5928798185941	127.66253968253969	55	127
127.74380952380952	127.8134693877551	43	127
127.74380952380952	127.8134693877551	50	127
127.74380952380952	127.8134693877551	55	127
127.91795918367347	127.97600907029478	64	127
127.91795918367347	127.97600907029478	67	127
127.91795918367347	127.97600907029478	40	127
127.91795918367347	127.97600907029478	52	127
128.13854875283448	128.20820861678004	66	127
128.13854875283448	128.20820861678004	69	127
128.13854875283448	128.20820861678004	38	127
128.13854875283448	128.20820861678004	50	127
128.34750566893425	128.41718820861678	62	127
128.34750566893425	128.41718820861678	74	127
128.34750566893425	128.41718820861678	36	127
128.34750566893425	128.41718820861678	48	127
128.45199546485262	128.5448979591837	74	127
128.5448979591837	128.62616780045352	34	127
128.5448979591837	128.62616780045352	46	127
128.5448979591837	128.85834467120182	67	127
128.5448979591837	128.85834467120182	70	127
128.5448979591837	128.85834467120182	79	127
128.76548752834466	128.82353741496598	33	127
128.76548752834466	128.82353741496598	45	127
128.85834467120182	128.9628344671202	70	127
128.9628344671202	129.00927437641724	31	127
128.9628344671202	129.00927437641724	43	127
128.9628344671202	129.56657596371883	62	127
128.9628344671202	129.56657596371883	74	127
129.09056689342404	129.17183673469387	43	127
129.29954648526078	129.3808163265306	31	127
129.29954648526078	129.3808163265306	38	127
129.29954648526078	129.3808163265306	43	127
129.5085260770975	129.55496598639456	43	127
129.57818594104307	129.6942857142857	70	127
129.6942857142857	129.75233560090703	43	127
129.6942857142857	130.08902494331065	62	127
129.6942857142857	130.08902494331065	74	127
129.86843537414967	129.91487528344672	43	127
129.99614512471655	130.06580498866214	31	127
129.99614512471655	130.06580498866214	38	127
129.99614512471655	130.06580498866214	43	127
130.08902494331065	130.1702947845805	69	127
130.1702947845805	130.25156462585034	62	127
130.1702947845805	130.25156462585034	74	127
130.1702947845805	130.25156462585034	43	127
130.37927437641724	130.41410430839002	66	127
130.37927437641724	130.41410430839002	78	127
130.37927437641724	130.41410430839002	43	127
130.50698412698412	130.58825396825398	69	127
130.50698412698412	130.58825396825398	81	127
130.50698412698412	130.58825396825398	43	127
130.62308390022676	130.7507709750567	74	127
130.7507709750567	130.8320634920635	43	127
130.7507709750567	130.8320634920635	50	127
130.7507709750567	130.8320634920635	55	127
130.7507709750567	131.06426303854875	67	127
130.7507709750567	131.06426303854875	70	127
130.7507709750567	131.06426303854875	79	127
130.98299319727892	131.04104308390023	55	127
131.07587301587301	131.19197278911565	70	127
131.19197278911565	131.25002267573697	55	127
131.19197278911565	131.79569160997733	62	127
131.19197278911565	131.79569160997733	74	127
131.38934240362812	131.4241723356009	55	127
131.4938321995465	131.57510204081632	43	127
131.4938321995465	131.57510204081632	50	127
131.4938321995465	131.57510204081632	55	127
131.7144217687075	131.78408163265306	55	127
131.79569160997733	131.85374149659864	70	127
131.85374149659864	131.88857142857142	55	127
131.85374149659864	132.3761904761905	62	127
131.85374149659864	132.3761904761905	74	127
131.9930612244898	132.06272108843538	55	127
132.20204081632653	132.27170068027212	43	127
132.20204081632653	132.27170068027212	50	127
132.20204081632653	132.27170068027212	55	127
132.38777777777779	132.43421768707483	67	127
132.38777777777779	132.43421768707483	73	127
132.38777777777779	132.43421768707483	79	127
132.38777777777779	132.43421768707483	40	127
132.38777777777779	132.43421768707483	52	127
132.5271201814059	132.58517006802722	69	127
132.5271201814059	132.58517006802722	78	127
132.5271201814059	132.58517006802722	81	127
132.5271201814059	132.58517006802722	38	127
132.5271201814059	132.58517006802722	50	127
132.7128798185941	132.7825396825397	74	127
132.7128798185941	132.7825396825397	86	127
132.7128798185941	132.7825396825397	36	127
132.7128798185941	132.7825396825397	48	127
132.82897959183674	132.91024943310657	34	127
132.82897959183674	132.91024943310657	46	127
132.82897959183674	133.13083900226758	79	127
132.82897959183674	133.13083900226758	87	127
132.82897959183674	133.13083900226758	91	127
133.0263492063492	133.10761904761904	63	127
133.0263492063492	133.10761904761904	67	127
133.17727891156463	133.25854875283446	46	127
133.17727891156463	133.29337868480727	77	127
133.17727891156463	133.29337868480727	86	127
133.17727891156463	133.29337868480727	89	127
133.29337868480727	133.40945578231293	91	127
133.40945578231293	133.47913832199546	77	127
133.40945578231293	133.47913832199546	86	127
133.40945578231293	133.47913832199546	89	127
133.40945578231293	133.47913832199546	62	127
133.40945578231293	133.47913832199546	65	127
133.5952380952381	133.64167800453515	46	127
133.5952380952381	133.9087074829932	75	127
133.5952380952381	133.9087074829932	84	127
133.5952380952381	133.9087074829932	87	127
133.76938775510203	133.82743764172335	60	127
133.76938775510203	133.82743764172335	63	127
133.98997732426304	134.0015873015873	46	127
133.98997732426304	134.19895691609977	74	127
133.98997732426304	134.19895691609977	82	127
133.98997732426304	134.19895691609977	86	127
134.14090702947846	134.19895691609977	58	127
134.14090702947846	134.19895691609977	62	127
134.24539682539682	134.3266439909297	46	127
134.24539682539682	134.36149659863946	72	127
134.24539682539682	134.36149659863946	81	127
134.24539682539682	134.36149659863946	84	127
134.36149659863946	134.45437641723356	86	127
134.45437641723356	134.52403628117915	72	127
134.45437641723356	134.52403628117915	81	127
134.45437641723356	134.52403628117915	84	127
134.45437641723356	134.52403628117915	57	127
134.45437641723356	134.52403628117915	60	127
134.6633560090703	134.7330158730159	70	127
134.6633560090703	134.7330158730159	79	127
134.6633560090703	134.7330158730159	82	127
134.6633560090703	134.7330158730159	46	127
134.83748299319728	134.89555555555555	67	127
134.83748299319728	134.89555555555555	75	127
134.83748299319728	134.89555555555555	79	127
134.83748299319728	134.89555555555555	55	127
134.83748299319728	134.89555555555555	58	127
134.9768253968254	135.04646258503402	45	127
134.9768253968254	135.2554648526077	79	127
134.9768253968254	135.2554648526077	88	127
134.9768253968254	135.2554648526077	91	127
135.17419501133787	135.22063492063492	64	127
135.17419501133787	135.22063492063492	67	127
135.3251247165533	135.39478458049888	45	127
135.3251247165533	135.4180045351474	77	127
135.3251247165533	135.4180045351474	86	127
135.3251247165533	135.4180045351474	89	127
135.4180045351474	135.53410430839003	91	127
135.53410430839003	135.58054421768708	77	127
135.53410430839003	135.58054421768708	86	127
135.53410430839003	135.58054421768708	89	127
135.53410430839003	135.58054421768708	62	127
135.53410430839003	135.58054421768708	65	127
135.67342403628118	135.8824036281179	45	127
135.67342403628118	135.99850340136055	76	127
135.67342403628118	135.99850340136055	85	127
135.67342403628118	135.99850340136055	88	127
135.8824036281179	136.06814058956917	61	127
135.8824036281179	136.06814058956917	64	127
136.06814058956917	136.3003628117914	45	127
136.06814058956917	136.4512925170068	74	127
136.06814058956917	136.4512925170068	82	127
136.06814058956917	136.4512925170068	86	127
136.3003628117914	136.53256235827664	58	127
136.3003628117914	136.53256235827664	62	127
136.53256235827664	136.64866213151927	73	127
136.53256235827664	136.64866213151927	81	127
136.53256235827664	136.64866213151927	85	127
136.53256235827664	136.75315192743764	45	127
136.64866213151927	136.7647619047619	86	127
136.7647619047619	136.83439909297053	73	127
136.7647619047619	136.83439909297053	81	127
136.7647619047619	136.83439909297053	85	127
136.7647619047619	136.96213151927438	57	127
136.7647619047619	136.96213151927438	61	127
136.97374149659865	137.0434013605442	70	127
136.97374149659865	137.0434013605442	79	127
136.97374149659865	137.0434013605442	82	127
136.97374149659865	137.19433106575963	50	127
137.2059410430839	137.31043083900227	69	127
137.2059410430839	137.31043083900227	78	127
137.2059410430839	137.31043083900227	81	127
137.2059410430839	137.4265306122449	54	127
137.2059410430839	137.4265306122449	57	127
137.2059410430839	137.4265306122449	62	127
137.32204081632653	137.4265306122449	61	127
137.4265306122449	137.50780045351473	43	127
137.4265306122449	137.50780045351473	50	127
137.4265306122449	137.50780045351473	55	127
137.4265306122449	137.7515873015873	58	127
137.4265306122449	137.7515873015873	67	127
137.63551020408164	137.71678004535147	55	127
137.7515873015873	137.8677097505669	67	127
137.8677097505669	137.93736961451248	55	127
137.8677097505669	138.15795918367348	62	127
137.8677097505669	138.15795918367348	70	127
138.06507936507936	138.12312925170068	55	127
138.15795918367348	138.22761904761904	70	127
138.22761904761904	138.3088888888889	60	127
138.22761904761904	138.3088888888889	69	127
138.22761904761904	138.3088888888889	43	127
138.22761904761904	138.3088888888889	50	127
138.22761904761904	138.3088888888889	55	127
138.43659863945578	138.4946485260771	58	127
138.43659863945578	138.4946485260771	67	127
138.43659863945578	138.4946485260771	55	127
138.63396825396825	138.70362811791384	57	127
138.63396825396825	138.70362811791384	66	127
138.63396825396825	138.70362811791384	55	127
138.85455782312926	138.92421768707484	58	127
138.85455782312926	138.92421768707484	67	127
138.85455782312926	138.92421768707484	55	127
139.063537414966	139.3073469387755	62	127
139.063537414966	139.3073469387755	66	127
139.063537414966	139.3073469387755	74	127
139.17963718820863	139.2492970521542	55	127
139.3421768707483	139.41183673469388	55	127
139.3421768707483	139.60920634920635	62	127
139.3421768707483	139.60920634920635	66	127
139.3421768707483	139.60920634920635	69	127
139.5395238095238	139.57437641723357	55	127
139.60920634920635	139.72530612244898	62	127
139.72530612244898	139.8065759637188	43	127
139.72530612244898	139.8065759637188	50	127
139.72530612244898	139.8065759637188	55	127
139.72530612244898	139.98072562358277	58	127
139.72530612244898	139.98072562358277	67	127
139.91106575963718	139.98072562358277	55	127
139.98072562358277	140.01555555555555	67	127
140.01555555555555	140.07360544217687	55	127
140.01555555555555	140.23614512471656	62	127
140.01555555555555	140.23614512471656	70	127
140.16648526077097	140.20131519274378	55	127
140.24775510204083	140.36385487528344	70	127
140.36385487528344	140.4451247165533	60	127
140.36385487528344	140.4451247165533	69	127
140.36385487528344	140.4451247165533	43	127
140.36385487528344	140.4451247165533	50	127
140.36385487528344	140.4451247165533	55	127
140.5960544217687	140.67732426303854	58	127
140.5960544217687	140.67732426303854	67	127
140.5960544217687	140.67732426303854	55	127
140.81662131519275	140.86308390022677	57	127
140.81662131519275	140.86308390022677	66	127
140.81662131519275	140.86308390022677	55	127
140.9443537414966	141.0140136054422	58	127
140.9443537414966	141.0140136054422	67	127
140.9443537414966	141.0140136054422	55	127
141.11850340136056	141.18816326530612	62	127
141.11850340136056	141.18816326530612	70	127
141.11850340136056	141.18816326530612	74	127
141.11850340136056	141.18816326530612	43	127
141.11850340136056	141.18816326530612	50	127
141.11850340136056	141.18816326530612	55	127
141.28102040816327	141.36231292517007	64	127
141.28102040816327	141.36231292517007	73	127
141.28102040816327	141.36231292517007	76	127
141.28102040816327	141.36231292517007	52	127
141.49002267573695	141.52485260770976	50	127
141.49002267573695	141.757052154195	66	127
141.49002267573695	141.757052154195	74	127
141.49002267573695	141.757052154195	78	127
141.67578231292518	141.72222222222223	48	127
141.76866213151928	141.88476190476192	74	127
141.88476190476192	141.94278911564626	46	127
141.88476190476192	142.12857142857143	67	127
141.88476190476192	142.12857142857143	70	127
141.88476190476192	142.12857142857143	79	127
142.03569160997733	142.11696145124716	45	127
142.12857142857143	142.19820861678005	79	127
142.19820861678005	142.2330612244898	43	127
142.19820861678005	142.46526077097505	70	127
142.19820861678005	142.46526077097505	74	127
142.19820861678005	142.46526077097505	82	127
142.46526077097505	142.5581179138322	82	127
142.5581179138322	142.61619047619047	72	127
142.5581179138322	142.61619047619047	81	127
142.5581179138322	142.75551020408165	43	127
142.5581179138322	142.75551020408165	50	127
142.5581179138322	142.75551020408165	55	127
142.75551020408165	142.8019501133787	70	127
142.75551020408165	142.8019501133787	79	127
142.9528798185941	143.02253968253967	69	127
142.9528798185941	143.02253968253967	78	127
143.1154195011338	143.17344671201815	70	127
143.1154195011338	143.17344671201815	79	127
143.33600907029478	143.55659863945579	43	127
143.33600907029478	143.55659863945579	50	127
143.33600907029478	143.55659863945579	55	127
143.33600907029478	143.67269841269842	74	127
143.33600907029478	143.67269841269842	78	127
143.33600907029478	143.67269841269842	86	127
143.7075283446712	143.95133786848072	74	127
143.7075283446712	143.95133786848072	78	127
143.7075283446712	143.95133786848072	81	127
143.95133786848072	144.03260770975058	83	127
144.03260770975058	144.1951247165533	43	127
144.03260770975058	144.1951247165533	50	127
144.03260770975058	144.1951247165533	55	127
144.03260770975058	144.2764172335601	74	127
144.03260770975058	144.2764172335601	79	127
144.03260770975058	144.2764172335601	86	127
144.28802721088437	144.38090702947846	86	127
144.38090702947846	144.62471655328798	79	127
144.38090702947846	144.62471655328798	83	127
144.38090702947846	144.62471655328798	91	127
144.63632653061225	144.75240362811792	91	127
144.75240362811792	144.81047619047618	80	127
144.75240362811792	144.81047619047618	89	127
144.75240362811792	144.9381859410431	43	127
144.75240362811792	144.9381859410431	48	127
144.75240362811792	144.9381859410431	55	127
144.9381859410431	144.9962358276644	79	127
144.9381859410431	144.9962358276644	87	127
145.13555555555556	145.20521541950114	77	127
145.13555555555556	145.20521541950114	86	127
145.28648526077097	145.3445351473923	79	127
145.28648526077097	145.3445351473923	87	127
145.4374149659864	145.51868480725625	43	127
145.4374149659864	145.51868480725625	55	127
145.4374149659864	145.55351473922903	69	127
145.4374149659864	145.55351473922903	72	127
145.4374149659864	145.55351473922903	75	127
145.4374149659864	145.55351473922903	78	127
145.6580045351474	145.73927437641723	51	127
145.86698412698414	145.9366439909297	50	127
145.86698412698414	145.9714739229025	70	127
145.86698412698414	145.9714739229025	74	127
145.86698412698414	145.9714739229025	79	127
146.08755102040817	146.13399092970522	48	127
146.2849433106576	146.33138321995466	46	127
146.4707029478458	146.52875283446713	45	127
146.656462585034	146.93510204081633	70	127
146.656462585034	146.93510204081633	79	127
146.656462585034	146.73773242630386	43	127
146.98154195011338	147.0628117913832	68	127
146.98154195011338	147.0628117913832	77	127
146.98154195011338	147.15566893424037	43	127
146.98154195011338	147.15566893424037	55	127
147.15566893424037	147.23696145124717	67	127
147.15566893424037	147.23696145124717	75	127
147.37628117913832	147.4459410430839	65	127
147.37628117913832	147.4459410430839	74	127
147.57365079365078	147.64331065759637	67	127
147.57365079365078	147.64331065759637	75	127
147.78263038548752	147.81746031746033	43	127
147.78263038548752	147.81746031746033	55	127
147.78263038548752	147.9451700680272	57	127
147.78263038548752	147.9451700680272	60	127
147.78263038548752	147.9451700680272	63	127
147.78263038548752	147.9451700680272	66	127
147.89873015873016	147.96839002267575	51	127
148.11931972789117	148.200589569161	50	127
148.11931972789117	148.23541950113378	58	127
148.11931972789117	148.23541950113378	62	127
148.11931972789117	148.23541950113378	67	127
148.30507936507937	148.37473922902495	48	127
148.52566893424037	148.5837188208617	46	127
148.68820861678006	148.7694784580499	45	127
148.93201814058958	148.97845804988663	43	127
148.93201814058958	149.1525850340136	54	127
148.93201814058958	149.1525850340136	60	127
148.93201814058958	149.1525850340136	63	127
149.29192743764173	149.34997732426305	43	127
149.29192743764173	149.34997732426305	55	127
149.29192743764173	149.44285714285715	57	127
149.29192743764173	149.44285714285715	60	127
149.29192743764173	149.44285714285715	63	127
149.29192743764173	149.44285714285715	66	127
149.4196371882086	149.45446712018142	51	127
149.61700680272108	149.68666666666667	50	127
149.61700680272108	149.72149659863945	58	127
149.61700680272108	149.72149659863945	62	127
149.61700680272108	149.72149659863945	67	127
149.84920634920636	149.93047619047618	48	127
150.0697732426304	150.1510657596372	46	127
150.3019954648526	150.3716553287982	45	127
150.5341723356009	150.61546485260772	43	127
150.5341723356009	150.83603174603175	54	127
150.5341723356009	150.83603174603175	60	127
150.5341723356009	150.83603174603175	63	127
150.99859410430838	151.0566439909297	55	127
150.99859410430838	151.1263038548753	57	127
150.99859410430838	151.1263038548753	60	127
150.99859410430838	151.1263038548753	63	127
150.99859410430838	151.1263038548753	66	127
151.07986394557824	151.1495238095238	51	127
151.32367346938776	151.41655328798186	48	127
151.32367346938776	151.4513605442177	57	127
151.32367346938776	151.4513605442177	60	127
151.32367346938776	151.4513605442177	63	127
151.32367346938776	151.4513605442177	66	127
151.57909297052154	151.69519274376418	45	127
151.83451247165533	151.95061224489797	43	127
152.1595918367347	152.22925170068027	39	127
152.4265986394558	152.51950113378686	36	127
152.4265986394558	152.5775283446712	57	127
152.4265986394558	152.5775283446712	60	127
152.4265986394558	152.5775283446712	63	127
152.4265986394558	152.5775283446712	66	127
152.62399092970523	152.68201814058958	33	127
152.89102040816326	153.16965986394558	31	127
153.5063492063492	153.70369614512472	55	127
153.5063492063492	153.70369614512472	58	127
153.5063492063492	153.70369614512472	62	127
153.5063492063492	153.70369614512472	67	127
154.56285714285715	154.9227664399093	78	127
154.56285714285715	154.9227664399093	86	127
154.56285714285715	154.9227664399093	90	127
154.56285714285715	154.9227664399093	38	127
154.56285714285715	154.9227664399093	50	127
154.9227664399093	155.23621315192744	79	127
154.9227664399093	155.23621315192744	86	127
154.9227664399093	155.23621315192744	91	127
154.9227664399093	155.23621315192744	35	127
154.9227664399093	155.23621315192744	47	127
155.24784580498866	155.48004535147393	74	127
155.24784580498866	155.48004535147393	83	127
155.24784580498866	155.48004535147393	86	127
155.24784580498866	155.48004535147393	31	127
155.24784580498866	155.48004535147393	43	127
155.66580498866213	156.16503401360544	76	127
155.66580498866213	156.16503401360544	79	127
155.66580498866213	156.16503401360544	84	127
155.66580498866213	156.16503401360544	88	127
155.66580498866213	156.16503401360544	36	127
155.66580498866213	156.16503401360544	48	127
156.3043537414966	156.89646258503402	74	127
156.3043537414966	156.89646258503402	79	127
156.3043537414966	156.89646258503402	83	127
156.3043537414966	156.89646258503402	86	127
156.3043537414966	156.89646258503402	43	127
156.3043537414966	156.89646258503402	55	127
156.98934240362811	157.5930612244898	72	127
156.98934240362811	157.5930612244898	78	127
156.98934240362811	157.5930612244898	81	127
156.98934240362811	157.5930612244898	84	127
156.98934240362811	157.5930612244898	50	127
156.98934240362811	157.5930612244898	54	127
156.98934240362811	157.5930612244898	62	127
157.73238095238096	158.41736961451247	71	127
157.73238095238096	158.41736961451247	79	127
157.73238095238096	158.41736961451247	83	127
157.73238095238096	158.41736961451247	55	127
157.73238095238096	158.41736961451247	62	127
157.73238095238096	158.41736961451247	67	127
158.80049886621316	159.07913832199546	78	127
158.80049886621316	159.07913832199546	86	127
158.80049886621316	159.07913832199546	90	127
158.80049886621316	159.07913832199546	38	127
158.80049886621316	159.07913832199546	50	127
159.07913832199546	159.4158276643991	79	127
159.07913832199546	159.4158276643991	91	127
159.07913832199546	159.4158276643991	35	127
159.07913832199546	159.4158276643991	47	127
159.4158276643991	159.54353741496598	74	127
159.4158276643991	159.54353741496598	83	127
159.4158276643991	159.54353741496598	86	127
159.4158276643991	159.54353741496598	31	127
159.4158276643991	159.54353741496598	43	127
159.77573696145126	160.30979591836734	76	127
159.77573696145126	160.30979591836734	83	127
159.77573696145126	160.30979591836734	86	127
159.77573696145126	160.30979591836734	88	127
159.77573696145126	160.30979591836734	43	127
159.77573696145126	160.30979591836734	55	127
160.4142857142857	160.8902947845805	81	127
160.4142857142857	160.8902947845805	86	127
160.4142857142857	160.8902947845805	90	127
160.4142857142857	160.8902947845805	93	127
160.4142857142857	160.8902947845805	42	127
160.4142857142857	160.8902947845805	54	127
161.1689342403628	161.26181405895693	97	127
161.1689342403628	161.76104308390023	85	127
161.1689342403628	161.76104308390023	40	127
161.1689342403628	161.76104308390023	52	127
161.26181405895693	161.34308390022676	98	127
161.34308390022676	161.4243537414966	97	127
161.4243537414966	161.4824036281179	98	127
161.4824036281179	161.58689342403628	97	127
161.58689342403628	161.71460317460318	98	127
161.71460317460318	161.78426303854874	95	127
161.78426303854874	161.84231292517006	97	127
161.85392290249433	162.5273015873016	86	127
161.85392290249433	162.5273015873016	98	127
161.85392290249433	162.5273015873016	38	127
161.85392290249433	162.5273015873016	50	127
163.03814058956917	163.32839002267573	78	127
163.03814058956917	163.32839002267573	86	127
163.03814058956917	163.32839002267573	90	127
163.03814058956917	163.32839002267573	38	127
163.03814058956917	163.32839002267573	50	127
163.32839002267573	163.66507936507938	79	127
163.32839002267573	163.66507936507938	86	127
163.32839002267573	163.66507936507938	91	127
163.32839002267573	163.66507936507938	35	127
163.32839002267573	163.66507936507938	47	127
163.66507936507938	163.781179138322	74	127
163.66507936507938	163.781179138322	83	127
163.66507936507938	163.781179138322	86	127
163.66507936507938	163.781179138322	31	127
163.66507936507938	163.781179138322	43	127
163.9785260770975	164.5938775510204	76	127
163.9785260770975	164.5938775510204	79	127
163.9785260770975	164.5938775510204	84	127
163.9785260770975	164.5938775510204	88	127
163.9785260770975	164.5938775510204	36	127
163.9785260770975	164.5938775510204	48	127
164.7215873015873	165.18598639455783	74	127
164.7215873015873	165.18598639455783	79	127
164.7215873015873	165.18598639455783	83	127
164.7215873015873	165.18598639455783	86	127
164.7215873015873	165.18598639455783	43	127
164.7215873015873	165.18598639455783	55	127
165.34852607709752	165.8825850340136	72	127
165.34852607709752	165.8825850340136	78	127
165.34852607709752	165.8825850340136	81	127
165.34852607709752	165.8825850340136	84	127
165.34852607709752	165.8825850340136	50	127
165.34852607709752	165.8825850340136	54	127
165.34852607709752	165.8825850340136	62	127
165.98707482993197	166.73011337868482	71	127
165.98707482993197	166.73011337868482	79	127
165.98707482993197	166.73011337868482	83	127
165.98707482993197	166.73011337868482	55	127
165.98707482993197	166.73011337868482	62	127
165.98707482993197	166.73011337868482	67	127
167.12485260770976	167.44990929705216	78	127
167.12485260770976	167.44990929705216	86	127
167.12485260770976	167.44990929705216	90	127
167.12485260770976	167.44990929705216	38	127
167.12485260770976	167.44990929705216	50	127
167.44990929705216	167.7401814058957	79	127
167.44990929705216	167.7401814058957	91	127
167.44990929705216	167.7401814058957	35	127
167.44990929705216	167.7401814058957	47	127
167.7401814058957	167.9259410430839	74	127
167.7401814058957	167.9259410430839	83	127
167.7401814058957	167.9259410430839	86	127
167.7401814058957	167.9259410430839	31	127
167.7401814058957	167.9259410430839	43	127
168.11170068027212	168.61092970521543	76	127
168.11170068027212	168.61092970521543	83	127
168.11170068027212	168.61092970521543	86	127
168.11170068027212	168.61092970521543	88	127
168.11170068027212	168.61092970521543	43	127
168.11170068027212	168.61092970521543	55	127
168.76185941043084	169.41201814058957	81	127
168.76185941043084	169.41201814058957	86	127
168.76185941043084	169.41201814058957	90	127
168.76185941043084	169.41201814058957	93	127
168.76185941043084	169.41201814058957	42	127
168.76185941043084	169.41201814058957	54	127
169.51650793650794	169.60938775510203	97	127
169.51650793650794	170.21308390022676	85	127
169.51650793650794	170.21308390022676	40	127
169.51650793650794	170.21308390022676	52	127
169.60938775510203	169.67904761904762	98	127
169.67904761904762	169.9344671201814	97	127
169.9344671201814	170.01573696145124	98	127
170.01573696145124	170.08539682539683	97	127
170.08539682539683	170.16666666666666	98	127
170.16666666666666	170.23632653061225	95	127
170.23632653061225	170.29437641723356	97	127
170.30598639455783	171.30444444444444	86	127
170.30598639455783	171.30444444444444	98	127
170.30598639455783	171.30444444444444	38	127
170.30598639455783	171.30444444444444	50	127
171.4089342403628	172.1403628117914	67	127
171.4089342403628	172.1403628117914	70	127
171.4089342403628	172.1403628117914	74	127
171.4089342403628	172.1403628117914	55	127
171.4089342403628	172.1403628117914	58	127
171.4089342403628	172.1403628117914	62	127
172.2332426303855	172.9530612244898	70	127
172.2332426303855	172.9530612244898	74	127
172.2332426303855	172.9530612244898	79	127
172.2332426303855	172.9530612244898	58	127
172.2332426303855	172.9530612244898	62	127
172.2332426303855	172.9530612244898	67	127
173.0459410430839	173.1156009070295	84	127
173.0459410430839	173.1156009070295	72	127
173.0459410430839	173.62643990929706	79	127
173.0459410430839	173.62643990929706	67	127
173.1156009070295	173.18526077097505	86	127
173.1156009070295	173.18526077097505	74	127
173.18526077097505	173.2665306122449	84	127
173.18526077097505	173.2665306122449	72	127
173.2665306122449	173.37102040816328	86	127
173.2665306122449	173.37102040816328	74	127
173.37102040816328	173.48709750566894	84	127
173.37102040816328	173.48709750566894	72	127
173.48709750566894	173.55678004535147	86	127
173.48709750566894	173.55678004535147	74	127
173.55678004535147	173.64965986394557	83	127
173.55678004535147	173.64965986394557	71	127
173.64965986394557	173.71931972789116	84	127
173.64965986394557	173.71931972789116	72	127
173.75414965986394	174.2533560090703	79	127
173.75414965986394	174.2533560090703	84	127
173.75414965986394	174.2533560090703	87	127
173.75414965986394	174.2533560090703	67	127
173.75414965986394	174.2533560090703	72	127
173.75414965986394	174.2533560090703	75	127
174.26498866213151	174.41591836734693	86	127
174.26498866213151	174.41591836734693	74	127
174.41591836734693	174.62489795918367	81	127
174.41591836734693	174.62489795918367	84	127
174.41591836734693	174.62489795918367	69	127
174.41591836734693	174.62489795918367	72	127
174.69455782312926	174.82226757369614	79	127
174.69455782312926	174.82226757369614	82	127
174.69455782312926	174.82226757369614	67	127
174.69455782312926	174.82226757369614	70	127
174.9151247165533	175.03124716553287	81	127
174.9151247165533	175.03124716553287	84	127
174.9151247165533	175.03124716553287	69	127
174.9151247165533	175.03124716553287	72	127
175.12412698412697	175.76267573696146	82	127
175.12412698412697	175.76267573696146	86	127
175.12412698412697	175.76267573696146	70	127
175.12412698412697	175.76267573696146	74	127
175.85555555555555	176.31995464852608	79	127
175.85555555555555	176.31995464852608	82	127
175.85555555555555	176.31995464852608	67	127
175.85555555555555	176.31995464852608	70	127
176.52893424036282	177.06297052154196	81	127
176.52893424036282	177.06297052154196	84	127
176.52893424036282	177.06297052154196	69	127
176.52893424036282	177.06297052154196	72	127
177.07460317460317	177.2255328798186	82	127
177.07460317460317	177.2255328798186	70	127
177.2255328798186	177.39968253968254	78	127
177.2255328798186	177.39968253968254	81	127
177.2255328798186	177.39968253968254	66	127
177.2255328798186	177.39968253968254	69	127
177.45773242630386	177.597052154195	76	127
177.45773242630386	177.597052154195	79	127
177.45773242630386	177.597052154195	64	127
177.45773242630386	177.597052154195	67	127
177.71315192743765	177.84086167800453	78	127
177.71315192743765	177.84086167800453	81	127
177.71315192743765	177.84086167800453	66	127
177.71315192743765	177.84086167800453	69	127
177.89891156462585	178.04984126984127	79	127
177.89891156462585	178.04984126984127	82	127
177.89891156462585	178.04984126984127	67	127
177.89891156462585	178.04984126984127	70	127
178.10789115646259	178.23557823129252	82	127
178.10789115646259	178.23557823129252	86	127
178.10789115646259	178.23557823129252	70	127
178.10789115646259	178.23557823129252	74	127
178.3517006802721	178.479410430839	86	127
178.3517006802721	178.479410430839	91	127
178.3517006802721	178.479410430839	74	127
178.3517006802721	178.479410430839	79	127
178.6419501133787	179.2340589569161	79	127
178.6419501133787	179.2340589569161	85	127
178.6419501133787	179.2340589569161	88	127
178.6419501133787	179.24566893424037	69	127
178.6419501133787	179.24566893424037	73	127
178.6419501133787	179.24566893424037	76	127
179.24566893424037	179.38498866213152	86	127
179.24566893424037	179.38498866213152	74	127
179.38498866213152	180.01192743764173	78	127
179.38498866213152	180.01192743764173	86	127
179.38498866213152	180.01192743764173	62	127
179.38498866213152	180.01192743764173	69	127
179.38498866213152	180.01192743764173	74	127
180.38342403628118	180.51115646258503	90	127
180.38342403628118	180.51115646258503	38	127
180.51115646258503	180.62725623582767	78	127
180.51115646258503	180.62725623582767	50	127
180.62725623582767	180.7085260770975	90	127
180.62725623582767	180.7085260770975	38	127
180.7085260770975	180.81301587301587	79	127
180.7085260770975	180.81301587301587	91	127
180.7085260770975	180.81301587301587	35	127
180.7085260770975	180.81301587301587	47	127
180.99875283446713	181.2077551020408	74	127
180.99875283446713	181.2077551020408	83	127
180.99875283446713	181.2077551020408	86	127
180.99875283446713	181.2077551020408	31	127
180.99875283446713	181.2077551020408	43	127
181.38190476190476	181.96240362811793	76	127
181.38190476190476	181.96240362811793	84	127
181.38190476190476	181.96240362811793	88	127
181.38190476190476	181.96240362811793	36	127
181.38190476190476	181.96240362811793	48	127
182.04367346938776	182.60095238095238	74	127
182.04367346938776	182.60095238095238	83	127
182.04367346938776	182.60095238095238	86	127
182.04367346938776	182.60095238095238	43	127
182.04367346938776	182.60095238095238	50	127
182.04367346938776	182.60095238095238	55	127
182.69383219954648	182.8447619047619	84	127
182.69383219954648	183.2859410430839	72	127
182.69383219954648	183.2859410430839	81	127
182.69383219954648	183.34399092970523	50	127
182.69383219954648	183.34399092970523	54	127
182.69383219954648	183.34399092970523	62	127
182.8447619047619	182.94925170068026	86	127
182.94925170068026	183.2975283446712	84	127
183.2975283446712	183.4484807256236	71	127
183.2975283446712	183.4484807256236	79	127
183.2975283446712	183.4484807256236	83	127
183.4484807256236	184.00575963718822	71	127
183.4484807256236	184.00575963718822	79	127
183.4484807256236	184.00575963718822	83	127
183.4484807256236	184.00575963718822	55	127
183.4484807256236	184.00575963718822	62	127
183.4484807256236	184.00575963718822	67	127
184.48176870748298	184.58625850340135	90	127
184.48176870748298	184.58625850340135	38	127
184.58625850340135	184.6675283446712	78	127
184.58625850340135	184.6675283446712	50	127
184.6675283446712	184.78360544217688	90	127
184.6675283446712	184.78360544217688	38	127
184.78360544217688	184.87650793650795	79	127
184.78360544217688	184.87650793650795	91	127
184.78360544217688	184.87650793650795	35	127
184.78360544217688	184.87650793650795	47	127
185.06226757369615	185.15514739229025	83	127
185.06226757369615	185.15514739229025	95	127
185.06226757369615	185.15514739229025	31	127
185.06226757369615	185.15514739229025	43	127
185.8285260770975	185.9214058956916	95	127
185.8285260770975	185.9214058956916	43	127
185.9214058956916	186.00267573696146	83	127
185.9214058956916	186.00267573696146	55	127
186.00267573696146	186.09555555555556	95	127
186.00267573696146	186.09555555555556	43	127
186.09555555555556	186.1768253968254	84	127
186.09555555555556	186.1768253968254	96	127
186.09555555555556	186.1768253968254	40	127
186.09555555555556	186.1768253968254	52	127
186.37419501133786	186.47868480725623	88	127
186.37419501133786	186.47868480725623	100	127
186.37419501133786	186.47868480725623	36	127
186.37419501133786	186.47868480725623	48	127
186.6528344671202	186.73410430839002	102	127
186.6528344671202	187.1520634920635	90	127
186.6528344671202	187.1520634920635	38	127
186.6528344671202	187.1520634920635	50	127
186.73410430839002	186.8037641723356	103	127
186.8037641723356	186.8734240362812	102	127
186.8734240362812	186.95469387755102	103	127
186.95469387755102	187.0243537414966	102	127
187.0243537414966	187.10562358276644	103	127
187.10562358276644	187.17528344671203	100	127
187.17528344671203	187.47714285714287	102	127
187.47714285714287	188.46396825396826	91	127
187.47714285714287	188.46396825396826	103	127
187.47714285714287	188.46396825396826	31	127
187.47714285714287	188.46396825396826	43	127
188.61489795918368	189.36956916099774	67	127
188.61489795918368	189.36956916099774	70	127
188.61489795918368	189.36956916099774	74	127
188.61489795918368	189.36956916099774	55	127
188.61489795918368	189.36956916099774	58	127
188.61489795918368	189.36956916099774	62	127
189.54371882086167	190.11260770975056	70	127
189.54371882086167	190.11260770975056	74	127
189.54371882086167	190.11260770975056	79	127
189.54371882086167	190.11260770975056	58	127
189.54371882086167	190.11260770975056	62	127
189.54371882086167	190.11260770975056	67	127
190.2287074829932	190.30997732426303	84	127
190.2287074829932	190.30997732426303	72	127
190.2287074829932	190.8208163265306	79	127
190.2287074829932	190.8208163265306	67	127
190.30997732426303	190.37963718820862	86	127
190.30997732426303	190.37963718820862	74	127
190.37963718820862	190.484126984127	84	127
190.37963718820862	190.484126984127	72	127
190.484126984127	190.55378684807258	86	127
190.484126984127	190.55378684807258	74	127
190.55378684807258	190.71632653061224	84	127
190.55378684807258	190.71632653061224	72	127
190.71632653061224	190.77437641723355	86	127
190.71632653061224	190.77437641723355	74	127
190.77437641723355	190.84403628117914	83	127
190.77437641723355	190.84403628117914	71	127
190.84403628117914	190.92530612244897	84	127
190.84403628117914	190.92530612244897	72	127
190.92530612244897	191.52902494331065	79	127
190.92530612244897	191.52902494331065	84	127
190.92530612244897	191.52902494331065	87	127
190.92530612244897	191.52902494331065	67	127
190.92530612244897	191.52902494331065	72	127
190.92530612244897	191.52902494331065	75	127
191.52902494331065	191.66834467120182	86	127
191.52902494331065	191.66834467120182	74	127
191.66834467120182	191.8657142857143	81	127
191.66834467120182	191.8657142857143	84	127
191.66834467120182	191.8657142857143	69	127
191.66834467120182	191.8657142857143	72	127
191.93537414965985	192.02825396825398	79	127
191.93537414965985	192.02825396825398	82	127
191.93537414965985	192.02825396825398	67	127
191.93537414965985	192.02825396825398	70	127
192.0863038548753	192.22562358276645	81	127
192.0863038548753	192.22562358276645	84	127
192.0863038548753	192.22562358276645	69	127
192.0863038548753	192.22562358276645	72	127
192.31850340136054	192.92222222222222	82	127
192.31850340136054	192.92222222222222	86	127
192.31850340136054	192.92222222222222	70	127
192.31850340136054	192.92222222222222	74	127
193.07315192743764	193.66526077097507	79	127
193.07315192743764	193.66526077097507	82	127
193.07315192743764	193.66526077097507	67	127
193.07315192743764	193.66526077097507	70	127
193.81619047619049	194.3734693877551	81	127
193.81619047619049	194.3734693877551	84	127
193.81619047619049	194.3734693877551	69	127
193.81619047619049	194.3734693877551	72	127
194.3734693877551	194.54761904761904	82	127
194.3734693877551	194.54761904761904	70	127
194.54761904761904	194.721768707483	78	127
194.54761904761904	194.721768707483	81	127
194.54761904761904	194.721768707483	66	127
194.54761904761904	194.721768707483	69	127
194.79142857142858	194.91913832199546	76	127
194.79142857142858	194.91913832199546	79	127
194.79142857142858	194.91913832199546	64	127
194.79142857142858	194.91913832199546	67	127
194.97718820861678	195.11650793650793	66	127
194.97718820861678	195.11650793650793	78	127
194.97718820861678	195.11650793650793	81	127
194.97718820861678	195.11650793650793	69	127
195.17455782312925	195.36031746031745	79	127
195.17455782312925	195.36031746031745	82	127
195.17455782312925	195.36031746031745	67	127
195.17455782312925	195.36031746031745	70	127
195.48802721088435	195.61573696145123	86	127
195.48802721088435	195.61573696145123	74	127
195.48802721088435	195.61573696145123	82	127
195.48802721088435	195.61573696145123	70	127
195.67378684807255	195.80149659863946	79	127
195.67378684807255	195.80149659863946	91	127
195.67378684807255	195.80149659863946	86	127
195.67378684807255	195.80149659863946	74	127
195.87115646258502	196.40521541950113	73	127
195.87115646258502	196.40521541950113	79	127
195.87115646258502	196.40521541950113	69	127
195.87115646258502	196.40521541950113	88	127
195.87115646258502	196.40521541950113	85	127
195.87115646258502	196.40521541950113	76	127
196.40521541950113	196.62580498866214	74	127
196.40521541950113	196.62580498866214	86	127
196.62580498866214	197.2991836734694	86	127
196.62580498866214	197.2991836734694	69	127
196.62580498866214	197.2991836734694	78	127
196.62580498866214	197.2991836734694	62	127
196.62580498866214	197.2991836734694	74	127
197.7055328798186	197.85646258503402	38	127
197.7055328798186	197.85646258503402	90	127
197.85646258503402	197.9841723356009	50	127
197.85646258503402	197.9841723356009	78	127
197.9841723356009	198.08866213151927	38	127
197.9841723356009	198.08866213151927	90	127
198.08866213151927	198.19315192743764	91	127
198.08866213151927	198.19315192743764	35	127
198.08866213151927	198.19315192743764	47	127
198.08866213151927	198.19315192743764	79	127
198.40213151927438	198.59950113378684	83	127
198.40213151927438	198.59950113378684	74	127
198.40213151927438	198.59950113378684	86	127
198.40213151927438	198.59950113378684	31	127
198.40213151927438	198.59950113378684	43	127
198.80848072562358	199.3657596371882	88	127
198.80848072562358	199.3657596371882	48	127
198.80848072562358	199.3657596371882	84	127
198.80848072562358	199.3657596371882	76	127
198.80848072562358	199.3657596371882	36	127
199.47024943310657	199.94625850340137	86	127
199.47024943310657	199.94625850340137	50	127
199.47024943310657	199.94625850340137	83	127
199.47024943310657	199.94625850340137	74	127
199.47024943310657	199.94625850340137	43	127
199.47024943310657	199.94625850340137	55	127
200.1204081632653	200.21328798185942	84	127
200.1204081632653	200.77056689342405	54	127
200.1204081632653	200.77056689342405	62	127
200.1204081632653	200.724126984127	72	127
200.1204081632653	200.77056689342405	50	127
200.1204081632653	200.724126984127	81	127
200.21328798185942	200.32938775510203	86	127
200.32938775510203	200.724126984127	84	127
200.724126984127	200.86344671201815	79	127
200.724126984127	200.86344671201815	71	127
200.724126984127	200.86344671201815	83	127
200.87505668934241	201.52521541950114	83	127
200.87505668934241	201.52521541950114	55	127
200.87505668934241	201.52521541950114	62	127
200.87505668934241	201.52521541950114	71	127
200.87505668934241	201.52521541950114	79	127
200.87505668934241	201.52521541950114	67	127
201.9431746031746	202.04766439909298	90	127
201.9431746031746	202.04766439909298	38	127
202.04766439909298	202.18698412698413	78	127
202.04766439909298	202.18698412698413	50	127
202.18698412698413	202.27986394557823	90	127
202.18698412698413	202.27986394557823	38	127
202.27986394557823	202.3843537414966	91	127
202.27986394557823	202.3843537414966	79	127
202.27986394557823	202.3843537414966	47	127
202.27986394557823	202.3843537414966	35	127
202.6281632653061	202.75587301587302	83	127
202.6281632653061	202.75587301587302	43	127
202.6281632653061	202.75587301587302	95	127
202.6281632653061	202.75587301587302	31	127
203.37120181405896	203.47569160997733	95	127
203.37120181405896	203.47569160997733	43	127
203.47569160997733	203.62662131519275	83	127
203.47569160997733	203.62662131519275	55	127
203.62662131519275	203.7427210884354	43	127
203.62662131519275	203.7427210884354	95	127
203.7427210884354	203.858820861678	40	127
203.7427210884354	203.858820861678	52	127
203.7427210884354	203.858820861678	84	127
203.7427210884354	203.858820861678	96	127
204.05619047619047	204.16068027210883	88	127
204.05619047619047	204.16068027210883	48	127
204.05619047619047	204.16068027210883	36	127
204.05619047619047	204.16068027210883	100	127
204.40448979591838	205.15913832199547	50	127
204.40448979591838	205.15913832199547	90	127
204.40448979591838	205.15913832199547	38	127
204.40448979591838	204.68312925170068	102	127
204.68312925170068	204.76439909297054	103	127
204.76439909297054	204.84566893424036	102	127
204.84566893424036	204.91532879818595	103	127
204.91532879818595	205.03142857142856	102	127
205.03142857142856	205.10108843537415	103	127
205.10108843537415	205.18235827664398	100	127
205.18235827664398	205.29845804988662	102	127
205.32167800453516	207.15605442176872	91	127
205.32167800453516	207.15605442176872	103	127
205.32167800453516	207.15605442176872	43	127
205.32167800453516	207.15605442176872	31	127
207.67850340136056	208.11968253968254	28	127
207.67850340136056	208.11968253968254	40	127
208.1312925170068	208.65374149659863	67	127
208.1312925170068	208.65374149659863	59	127
208.1312925170068	208.65374149659863	64	127
208.65374149659863	209.199410430839	40	127
208.65374149659863	209.199410430839	52	127
209.199410430839	209.75668934240363	64	127
209.199410430839	209.75668934240363	59	127
209.199410430839	209.75668934240363	67	127
209.75668934240363	210.24430839002267	50	127
209.75668934240363	210.24430839002267	38	127
210.25591836734694	210.59260770975058	66	127
210.25591836734694	210.59260770975058	69	127
210.25591836734694	210.59260770975058	60	127
210.6158276643991	211.17310657596371	26	127
210.6158276643991	211.17310657596371	38	127
211.23115646258503	211.80004535147393	60	127
211.23115646258503	211.80004535147393	66	127
211.23115646258503	211.80004535147393	69	127
211.80004535147393	212.2412244897959	31	127
211.80004535147393	212.2412244897959	43	127
212.2412244897959	212.9378231292517	59	127
212.2412244897959	212.9378231292517	62	127
212.2412244897959	212.9378231292517	67	127
212.9378231292517	213.40222222222224	45	127
212.9378231292517	213.40222222222224	33	127
213.41383219954648	213.99433106575964	60	127
213.41383219954648	213.99433106575964	65	127
213.41383219954648	213.99433106575964	57	127
214.0059410430839	214.4471201814059	35	127
214.0059410430839	214.4471201814059	47	127
214.45873015873016	214.9463492063492	59	127
214.45873015873016	214.9463492063492	64	127
214.45873015873016	214.9463492063492	55	127
214.95795918367347	215.3875283446712	47	127
215.3875283446712	215.89836734693878	63	127
215.3875283446712	215.89836734693878	54	127
215.3875283446712	215.89836734693878	59	127
215.89836734693878	216.75750566893424	35	127
216.75750566893424	217.23351473922904	62	127
216.75750566893424	217.23351473922904	54	127
216.75750566893424	217.23351473922904	59	127
217.24512471655328	217.7095238095238	47	127
217.8024036281179	218.26680272108842	50	127
217.8024036281179	218.26680272108842	54	127
217.8024036281179	218.26680272108842	59	127
218.2784126984127	218.91696145124718	45	127
218.91696145124718	219.32331065759638	52	127
218.91696145124718	219.32331065759638	61	127
218.91696145124718	219.32331065759638	55	127
219.32331065759638	219.7528798185941	33	127
219.7528798185941	220.2869387755102	61	127
219.7528798185941	220.2869387755102	64	127
219.7528798185941	220.2869387755102	55	127
220.34498866213153	220.79777777777778	26	127
220.34498866213153	220.79777777777778	38	127
220.80938775510205	221.23895691609977	62	127
220.80938775510205	221.23895691609977	54	127
220.80938775510205	221.23895691609977	57	127
221.25056689342404	221.86589569160998	28	127
221.25056689342404	221.86589569160998	40	127
221.86589569160998	222.27224489795918	60	127
221.86589569160998	222.27224489795918	52	127
221.86589569160998	222.27224489795918	55	127
222.27224489795918	222.81791383219954	30	127
222.27224489795918	222.81791383219954	42	127
222.81791383219954	223.4680725623583	58	127
222.81791383219954	223.4680725623583	49	127
222.81791383219954	223.4680725623583	52	127
223.4912925170068	224.01374149659864	35	127
223.4912925170068	224.01374149659864	47	127
224.0253514739229	224.52458049886621	59	127
224.0253514739229	224.52458049886621	54	127
224.0253514739229	224.52458049886621	51	127
224.53619047619048	225.5694784580499	40	127
224.53619047619048	225.5694784580499	28	127
225.5694784580499	226.08031746031747	67	127
225.5694784580499	226.08031746031747	64	127
225.5694784580499	226.08031746031747	59	127
226.08031746031747	226.52149659863946	40	127
226.08031746031747	226.52149659863946	52	127
226.52149659863946	227.07877551020408	67	127
226.52149659863946	227.07877551020408	59	127
226.52149659863946	227.07877551020408	64	127
227.09038548752835	227.64766439909297	50	127
227.09038548752835	227.64766439909297	38	127
227.67088435374149	228.28621315192743	66	127
227.67088435374149	228.28621315192743	69	127
227.67088435374149	228.28621315192743	60	127
228.2978231292517	228.8318820861678	38	127
228.2978231292517	228.8318820861678	26	127
228.85510204081632	229.22662131519274	60	127
228.85510204081632	229.22662131519274	66	127
228.85510204081632	229.22662131519274	69	127
229.22662131519274	229.52848072562358	43	127
229.22662131519274	229.52848072562358	31	127
229.52848072562358	230.25990929705216	59	127
229.52848072562358	230.25990929705216	67	127
229.52848072562358	230.25990929705216	62	127
230.25990929705216	230.782358276644	33	127
230.25990929705216	230.782358276644	45	127
230.79396825396825	231.444126984127	57	127
230.79396825396825	231.444126984127	65	127
230.79396825396825	231.444126984127	60	127
231.45573696145124	231.79242630385488	47	127
231.45573696145124	231.79242630385488	35	127
231.80403628117915	232.43097505668933	55	127
231.80403628117915	232.43097505668933	64	127
231.80403628117915	232.43097505668933	59	127
232.43097505668933	232.76766439909298	35	127
232.76766439909298	233.5803628117914	59	127
232.76766439909298	233.5803628117914	63	127
232.76766439909298	233.5803628117914	54	127
233.5803628117914	234.18408163265306	47	127
234.19569160997733	234.92712018140588	62	127
234.19569160997733	234.92712018140588	59	127
234.19569160997733	234.92712018140588	54	127
234.93873015873015	235.42634920634922	35	127
235.43795918367346	235.85591836734693	54	127
235.43795918367346	235.85591836734693	59	127
235.43795918367346	235.85591836734693	50	127
235.85591836734693	236.4015873015873	33	127
236.4015873015873	236.9124263038549	52	127
236.4015873015873	236.9124263038549	61	127
236.4015873015873	236.9124263038549	55	127
236.9124263038549	237.30716553287982	45	127
237.40004535147392	237.99215419501132	52	127
237.40004535147392	237.99215419501132	61	127
237.40004535147392	237.99215419501132	55	127
238.01537414965986	238.5378231292517	26	127
238.01537414965986	238.5378231292517	38	127
238.54943310657598	239.09510204081633	57	127
238.54943310657598	239.09510204081633	62	127
238.54943310657598	239.09510204081633	54	127
239.09510204081633	239.57111111111112	28	127
239.09510204081633	239.57111111111112	40	127
239.57111111111112	240.14	52	127
239.57111111111112	240.14	55	127
239.57111111111112	240.14	60	127
240.14	240.54634920634922	42	127
240.14	240.54634920634922	30	127
240.56956916099773	241.5215873015873	58	127
240.56956916099773	241.5215873015873	52	127
240.56956916099773	241.5215873015873	49	127
241.53319727891156	241.95115646258503	35	127
241.53319727891156	241.95115646258503	47	127
241.9627664399093	243.51850340136053	54	127
241.9627664399093	243.51850340136053	51	127
241.9627664399093	243.51850340136053	59	127
243.5301133786848	244.42408163265307	71	127
243.5301133786848	243.6229931972789	35	127
243.5301133786848	244.42408163265307	59	127
243.5301133786848	244.42408163265307	63	127
243.92485260770974	244.04095238095238	47	127
244.52857142857144	244.64467120181405	35	127
244.52857142857144	244.79560090702947	59	127
244.79560090702947	245.05102040816325	63	127
244.92331065759637	245.05102040816325	47	127
245.05102040816325	245.35287981859412	71	127
245.36448979591836	246.52548752834468	72	127
245.36448979591836	246.52548752834468	60	127
245.36448979591836	245.61990929705215	36	127
245.91015873015874	246.02625850340135	48	127
246.25845804988663	246.43260770975056	35	127
246.25845804988663	246.43260770975056	47	127
246.53709750566892	246.89700680272108	71	127
246.53709750566892	246.89700680272108	59	127
246.7344671201814	246.90861678004535	46	127
246.7344671201814	246.90861678004535	34	127
246.90861678004535	247.18725623582768	70	127
246.90861678004535	247.18725623582768	58	127
247.18725623582768	247.32657596371882	35	127
247.18725623582768	247.80258503401362	59	127
247.18725623582768	247.80258503401362	71	127
247.53555555555556	247.6748752834467	47	127
248.18571428571428	248.41791383219956	35	127
248.18571428571428	248.54562358276644	59	127
248.54562358276644	248.75460317460318	63	127
248.66172335600908	248.75460317460318	47	127
248.75460317460318	249.0332426303855	71	127
249.04485260770974	250.32195011337868	74	127
249.04485260770974	249.2422222222222	38	127
249.04485260770974	250.32195011337868	62	127
249.50925170068027	249.61374149659864	50	127
249.98526077097506	250.18263038548753	49	127
249.98526077097506	250.18263038548753	37	127
250.36839002267573	250.61219954648527	73	127
250.36839002267573	250.61219954648527	61	127
250.5077097505669	250.6238095238095	36	127
250.5077097505669	250.6238095238095	48	127
250.6238095238095	250.86761904761906	72	127
250.6238095238095	250.86761904761906	60	127
250.8792290249433	251.0069387755102	37	127
250.8792290249433	251.8312471655329	61	127
250.8792290249433	251.8312471655329	73	127
251.3552380952381	251.4481179138322	49	127
251.95895691609977	252.0750566893424	37	127
251.95895691609977	252.17954648526077	61	127
252.17954648526077	252.4581859410431	65	127
252.35369614512473	252.4581859410431	49	127
252.4581859410431	252.84131519274376	73	127
252.84131519274376	253.8049433106576	76	127
252.84131519274376	253.8049433106576	64	127
252.84131519274376	252.9574149659864	40	127
253.18961451247165	253.34054421768707	52	127
253.58435374149659	253.68884353741495	51	127
253.58435374149659	253.68884353741495	39	127
253.8049433106576	254.2112925170068	75	127
253.8049433106576	254.2112925170068	63	127
254.1184126984127	254.2112925170068	38	127
254.1184126984127	254.2112925170068	50	127
254.2112925170068	254.55959183673468	62	127
254.2112925170068	254.55959183673468	74	127
254.57120181405895	254.66408163265305	40	127
254.9659410430839	255.17492063492062	52	127
254.9659410430839	255.82507936507938	64	127
254.9659410430839	255.82507936507938	76	127
255.41873015873017	255.60448979591837	51	127
255.41873015873017	255.60448979591837	39	127
255.83668934240362	256.1269387755102	63	127
255.83668934240362	256.1269387755102	75	127
256.02244897959184	256.1385487528345	50	127
256.02244897959184	256.1385487528345	38	127
256.1385487528345	256.5100680272109	62	127
256.1385487528345	256.5100680272109	74	127
256.52167800453515	256.6377777777778	39	127
256.88156462585033	258.1354648526077	63	127
256.88156462585033	258.1354648526077	75	127
256.88156462585033	257.0092970521542	51	127
257.4040136054422	257.5085260770975	39	127
257.92648526077096	258.01936507936506	51	127
258.50698412698415	258.7159637188209	35	127
258.97138321995465	260.3878004535147	71	127
258.97138321995465	260.3878004535147	78	127
258.97138321995465	259.5286621315193	47	127
258.97138321995465	260.3878004535147	66	127
259.72603174603177	259.8421315192744	35	127
260.03950113378687	260.23687074829934	47	127
260.5619274376417	260.7128798185941	28	127
261.29337868480724	261.4094784580499	40	127
261.29337868480724	262.50081632653064	67	127
261.29337868480724	262.50081632653064	71	127
261.29337868480724	262.50081632653064	76	127
261.29337868480724	262.50081632653064	79	127
261.6532879818594	261.7577777777778	28	127
262.50081632653064	263.12773242630385	64	127
262.50081632653064	263.12773242630385	67	127
262.50081632653064	263.12773242630385	59	127
262.50081632653064	262.64013605442176	40	127
263.12773242630385	263.26707482993197	26	127
263.65020408163264	264.54417233560093	69	127
263.65020408163264	264.54417233560093	72	127
263.65020408163264	264.54417233560093	78	127
263.65020408163264	264.54417233560093	81	127
263.65020408163264	263.928843537415	38	127
264.149410430839	264.27714285714285	26	127
264.5557596371882	265.1014512471655	60	127
264.5557596371882	265.1014512471655	66	127
264.5557596371882	265.1014512471655	69	127
264.5557596371882	264.66024943310657	38	127
265.1014512471655	265.252380952381	31	127
265.54263038548754	266.1115192743764	74	127
265.54263038548754	266.1115192743764	71	127
265.54263038548754	265.71678004535147	43	127
265.54263038548754	266.1115192743764	62	127
266.1115192743764	266.2740589569161	33	127
266.6571882086168	267.16802721088436	69	127
266.6571882086168	267.16802721088436	65	127
266.6571882086168	266.90097505668933	45	127
266.6571882086168	267.16802721088436	60	127
267.1912471655329	267.38861678004537	35	127
267.76013605442176	268.2361224489796	67	127
267.76013605442176	268.2361224489796	59	127
267.76013605442176	267.8414058956916	47	127
267.76013605442176	268.2361224489796	64	127
268.34061224489795	268.5031746031746	35	127
268.71215419501135	269.33909297052156	63	127
268.71215419501135	269.095283446712	47	127
268.71215419501135	269.33909297052156	59	127
268.71215419501135	269.33909297052156	66	127
269.33909297052156	269.46678004535147	35	127
269.9195918367347	271.0457596371882	66	127
269.9195918367347	271.0457596371882	74	127
269.9195918367347	271.0457596371882	78	127
269.9195918367347	270.1053514739229	47	127
270.43043083900227	270.70907029478457	35	127
271.0457596371882	271.3940589569161	62	127
271.0457596371882	271.3940589569161	66	127
271.0457596371882	271.3940589569161	59	127
271.0457596371882	271.1502494331066	47	127
271.4056462585034	271.6843083900227	33	127
271.93972789115645	272.10226757369617	45	127
271.93972789115645	272.9149659863946	67	127
271.93972789115645	272.9149659863946	73	127
271.93972789115645	272.9149659863946	79	127
272.34607709750566	272.7175963718821	33	127
272.9149659863946	273.507074829932	73	127
272.9149659863946	273.507074829932	67	127
272.9149659863946	273.0426530612245	45	127
272.9149659863946	273.507074829932	64	127
273.55349206349206	273.76249433106574	26	127
274.07596371882084	274.4939229024943	74	127
274.07596371882084	274.4939229024943	66	127
274.07596371882084	274.168820861678	38	127
274.07596371882084	274.4939229024943	69	127
274.5403628117914	274.74934240362813	28	127
275.01637188208616	275.1673015873016	40	127
275.01637188208616	275.51560090702947	60	127
275.01637188208616	275.51560090702947	67	127
275.01637188208616	275.51560090702947	64	127
275.51560090702947	275.68975056689345	30	127
276.1309297052154	276.78108843537416	61	127
276.1309297052154	276.78108843537416	64	127
276.1309297052154	276.78108843537416	58	127
276.1309297052154	276.5488888888889	42	127
276.7926984126984	277.2222675736962	35	127
277.57056689342403	278.29038548752834	63	127
277.57056689342403	278.29038548752834	59	127
277.57056689342403	278.06979591836733	47	127
278.3019954648526	279.5210430839002	59	127
278.3019954648526	279.5210430839002	71	127
278.3019954648526	278.5922448979592	35	127
278.3019954648526	279.5210430839002	63	127
279.0798639455782	279.1843537414966	47	127
279.6139229024943	279.8809523809524	35	127
279.6139229024943	280.0202721088435	59	127
280.0202721088435	280.27569160997734	63	127
280.1595918367347	280.27569160997734	47	127
280.27569160997734	280.51950113378683	71	127
280.5775510204082	281.8430385487528	72	127
280.5775510204082	281.8430385487528	60	127
280.5775510204082	281.0419501133787	36	127
281.2973696145125	281.40185941043086	48	127
281.62242630385487	281.7501587301587	47	127
281.62242630385487	281.7501587301587	35	127
281.8546485260771	282.1681179138322	59	127
281.8546485260771	282.1681179138322	71	127
282.05201814058955	282.1681179138322	46	127
282.05201814058955	282.1681179138322	34	127
282.1681179138322	282.44673469387754	70	127
282.1681179138322	282.44673469387754	58	127
282.44673469387754	282.59768707482993	35	127
282.44673469387754	283.09691609977324	59	127
282.44673469387754	283.09691609977324	71	127
282.8879365079365	283.00403628117914	47	127
283.59614512471654	283.7702721088435	35	127
283.59614512471654	283.8980045351474	59	127
283.8980045351474	284.22308390022675	63	127
284.08374149659863	284.22308390022675	47	127
284.22308390022675	284.47850340136057	71	127
284.49009070294784	284.7455328798186	38	127
284.49009070294784	285.73238095238094	62	127
284.49009070294784	285.73238095238094	74	127
285.1054195011338	285.1983219954649	50	127
285.48857142857145	285.63950113378684	49	127
285.48857142857145	285.63950113378684	37	127
285.7904308390023	286.0690702947846	61	127
285.7904308390023	286.0690702947846	73	127
285.9645804988662	286.08068027210885	36	127
285.9645804988662	286.08068027210885	48	127
286.08068027210885	286.33607709750567	72	127
286.08068027210885	286.33607709750567	60	127
286.33607709750567	287.3577551020408	73	127
286.33607709750567	286.440589569161	37	127
286.33607709750567	287.3577551020408	61	127
286.81210884353743	286.95142857142855	49	127
287.48548752834466	287.70607709750567	61	127
287.48548752834466	287.57836734693876	37	127
287.70607709750567	287.97308390022675	65	127
287.84539682539685	287.97308390022675	49	127
287.97308390022675	288.2865759637188	73	127
288.2865759637188	289.66816326530613	64	127
288.2865759637188	289.66816326530613	76	127
288.2865759637188	288.4839229024943	40	127
288.7277551020408	288.913514739229	52	127
289.38952380952384	289.57528344671204	51	127
289.38952380952384	289.57528344671204	39	127
289.66816326530613	289.9235827664399	75	127
289.66816326530613	289.9235827664399	63	127
289.8074603174603	289.93519274376416	38	127
289.8074603174603	289.93519274376416	50	127
289.93519274376416	290.26027210884354	62	127
289.93519274376416	290.26027210884354	74	127
290.2718820861678	290.457641723356	40	127
290.7711111111111	291.01492063492066	52	127
290.7711111111111	291.560589569161	64	127
290.7711111111111	291.560589569161	76	127
291.2471201814059	291.4560997732426	51	127
291.2471201814059	291.4560997732426	39	127
291.57219954648525	291.955306122449	75	127
291.57219954648525	291.955306122449	63	127
291.7695691609977	291.9669387755102	38	127
291.7695691609977	291.9669387755102	50	127
291.9669387755102	292.32684807256237	62	127
291.9669387755102	292.32684807256237	74	127
292.32684807256237	292.43133786848074	39	127
292.6751247165533	293.0466666666667	51	127
292.6751247165533	294.2308843537415	63	127
292.6751247165533	294.2308843537415	75	127
293.4878231292517	293.68521541950116	39	127
293.9522448979592	294.0451247165533	51	127
294.38181405895693	294.5327437641723	35	127
294.84621315192743	296.41356009070296	71	127
294.84621315192743	295.15968253968254	47	127
294.84621315192743	296.41356009070296	66	127
294.84621315192743	296.41356009070296	78	127
295.38027210884354	295.69374149659865	35	127
295.9839909297052	296.3090702947846	47	127
296.5180498866213	296.7154195011338	28	127
297.14498866213154	298.224716553288	79	127
297.14498866213154	298.224716553288	76	127
297.14498866213154	298.224716553288	67	127
297.14498866213154	298.224716553288	71	127
297.14498866213154	297.2959183673469	40	127
297.81836734693877	297.92285714285714	28	127
298.224716553288	298.7936054421769	64	127
298.224716553288	298.7936054421769	67	127
298.224716553288	298.3408163265306	40	127
298.224716553288	298.7936054421769	59	127
298.7936054421769	299.0374149659864	26	127
299.26961451247166	299.4437641723356	38	127
299.26961451247166	300.3957823129252	69	127
299.26961451247166	300.3957823129252	81	127
299.26961451247166	300.3957823129252	72	127
299.26961451247166	300.3957823129252	78	127
299.7107936507937	299.8385034013605	26	127
300.3957823129252	300.8950113378685	69	127
300.3957823129252	300.8950113378685	66	127
300.3957823129252	300.50027210884355	38	127
300.3957823129252	300.8950113378685	60	127
300.90662131519275	301.0227210884354	31	127
301.4290702947846	301.8934693877551	74	127
301.4290702947846	301.53356009070296	43	127
301.4290702947846	301.8934693877551	71	127
301.4290702947846	301.8934693877551	62	127
301.8934693877551	302.12566893424037	33	127
302.48555555555555	302.62489795918367	45	127
302.48555555555555	303.0892970521542	65	127
302.48555555555555	303.0892970521542	69	127
302.48555555555555	303.0892970521542	60	127
303.1008843537415	303.2518367346939	35	127
303.5885260770975	304.12256235827664	64	127
303.5885260770975	304.12256235827664	59	127
303.5885260770975	304.12256235827664	67	127
303.5885260770975	303.7394557823129	47	127
304.13419501133785	304.30834467120184	35	127
304.57537414965986	304.67986394557823	47	127
304.57537414965986	305.08621315192744	59	127
304.57537414965986	305.08621315192744	66	127
304.57537414965986	305.08621315192744	63	127
305.08621315192744	305.2371428571429	35	127
305.7363718820862	306.874126984127	78	127
305.7363718820862	306.874126984127	74	127
305.7363718820862	306.02662131519276	47	127
305.7363718820862	306.874126984127	66	127
306.2936507936508	306.6419501133787	35	127
306.874126984127	307.3269387755102	62	127
306.874126984127	307.3269387755102	66	127
306.874126984127	307.0831065759637	47	127
306.874126984127	307.3269387755102	59	127
307.33854875283447	307.5475283446712	33	127
308.0002947845805	308.9987755102041	73	127
308.0002947845805	308.9987755102041	79	127
308.0002947845805	308.9987755102041	67	127
308.0002947845805	308.3137641723356	45	127
308.5459863945578	308.7781859410431	33	127
308.9987755102041	309.1380952380952	45	127
308.9987755102041	309.66054421768706	64	127
308.9987755102041	309.66054421768706	67	127
308.9987755102041	309.66054421768706	73	127
309.6837641723356	309.8114739229025	26	127
310.008843537415	310.74027210884356	74	127
310.008843537415	310.74027210884356	69	127
310.008843537415	310.1017233560091	38	127
310.008843537415	310.74027210884356	66	127
310.8099319727891	311.1234013605442	28	127
311.3556009070295	311.46009070294787	40	127
311.3556009070295	311.82	67	127
311.3556009070295	311.82	60	127
311.3556009070295	311.82	64	127
311.82	311.95931972789117	30	127
312.5398185941043	313.2712471655329	58	127
312.5398185941043	312.9577777777778	42	127
312.5398185941043	313.2712471655329	64	127
312.5398185941043	313.2712471655329	61	127
313.2712471655329	313.87496598639456	35	127
314.32775510204084	315.67448979591836	63	127
314.32775510204084	314.79215419501134	47	127
314.32775510204084	315.67448979591836	59	127
315.67448979591836	315.79061224489794	74	127
315.67448979591836	315.79061224489794	71	127
315.79061224489794	315.9067120181406	76	127
315.79061224489794	315.9067120181406	72	127
315.9067120181406	316.01120181405895	74	127
315.9067120181406	316.01120181405895	71	127
316.01120181405895	316.1273015873016	69	127
316.01120181405895	316.1273015873016	72	127
316.1273015873016	316.2434013605442	71	127
316.1273015873016	316.2434013605442	67	127
316.2434013605442	316.35950113378686	72	127
316.2434013605442	316.35950113378686	69	127
316.35950113378686	316.45238095238096	71	127
316.35950113378686	316.45238095238096	67	127
316.45238095238096	316.54526077097506	69	127
316.45238095238096	316.54526077097506	72	127
316.55687074829933	316.6613605442177	74	127
316.55687074829933	316.6613605442177	71	127
316.67297052154197	316.7542403628118	72	127
316.67297052154197	316.7542403628118	76	127
316.76585034013607	316.8819501133787	74	127
316.76585034013607	316.8819501133787	71	127
316.893537414966	316.9864399092971	72	127
316.893537414966	316.9864399092971	69	127
316.99802721088435	317.1025170068027	71	127
316.99802721088435	317.1025170068027	67	127
317.1141496598639	317.160589569161	69	127
317.1141496598639	317.160589569161	72	127
317.160589569161	317.27668934240364	71	127
317.160589569161	317.27668934240364	67	127
317.27668934240364	317.381179138322	72	127
317.27668934240364	317.381179138322	69	127
317.381179138322	317.49727891156465	71	127
317.381179138322	317.49727891156465	74	127
317.49727891156465	317.6133560090703	73	127
317.49727891156465	317.6133560090703	76	127
317.6133560090703	317.6946485260771	74	127
317.6133560090703	317.6946485260771	71	127
317.6946485260771	317.7875283446712	76	127
317.6946485260771	317.7875283446712	73	127
317.7875283446712	317.8571882086168	74	127
317.7875283446712	317.8571882086168	78	127
317.8571882086168	317.9732879818594	76	127
317.8571882086168	317.9732879818594	79	127
317.9732879818594	318.0777777777778	74	127
317.9732879818594	318.0777777777778	78	127
318.0777777777778	318.1706575963719	76	127
318.0777777777778	318.1706575963719	79	127
318.18226757369615	318.2867573696145	78	127
318.18226757369615	318.2867573696145	81	127
318.2983673469388	318.3912471655329	79	127
318.2983673469388	318.3912471655329	76	127
318.3912471655329	318.49573696145126	78	127
318.3912471655329	318.49573696145126	81	127
318.5073469387755	318.58861678004536	79	127
318.5073469387755	318.58861678004536	76	127
318.6002267573696	318.704716553288	74	127
318.6002267573696	318.704716553288	78	127
318.71632653061226	318.82081632653063	73	127
318.71632653061226	318.82081632653063	76	127
318.82081632653063	318.925306122449	78	127
318.82081632653063	318.925306122449	74	127
318.925306122449	319.0181859410431	73	127
318.925306122449	319.0181859410431	76	127
319.0181859410431	319.12267573696147	74	127
319.0181859410431	319.12267573696147	71	127
319.12267573696147	319.2387755102041	76	127
319.12267573696147	319.2387755102041	73	127
319.2387755102041	319.3316553287982	74	127
319.2387755102041	319.3316553287982	71	127
319.3316553287982	319.44775510204084	76	127
319.3316553287982	319.44775510204084	73	127
319.44775510204084	319.5638321995465	71	127
319.44775510204084	319.5638321995465	78	127
319.5638321995465	319.6567120181406	81	127
319.5638321995465	319.6567120181406	75	127
319.6567120181406	319.7380045351474	78	127
319.6567120181406	319.7380045351474	71	127
319.7380045351474	319.8424943310658	75	127
319.7380045351474	319.8424943310658	81	127
319.8424943310658	319.9237641723356	71	127
319.8424943310658	319.9237641723356	86	127
319.9353741496599	320.0166439909297	76	127
319.9353741496599	320.0166439909297	84	127
320.028253968254	320.1211337868481	71	127
320.028253968254	320.1211337868481	86	127
320.13274376417235	320.2372335600907	76	127
320.13274376417235	320.2372335600907	84	127
320.248843537415	320.3649433106576	71	127
320.248843537415	320.3649433106576	83	127
320.3765306122449	320.469433106576	81	127
320.3765306122449	320.469433106576	75	127
320.48102040816326	320.57390022675736	71	127
320.48102040816326	320.57390022675736	83	127
320.57390022675736	320.6435827664399	75	127
320.57390022675736	320.6435827664399	81	127
320.6435827664399	320.72485260770975	71	127
320.6435827664399	320.72485260770975	79	127
320.72485260770975	320.8293424036281	76	127
320.72485260770975	320.8293424036281	83	127
320.8293424036281	320.8990022675737	71	127
320.8293424036281	320.8990022675737	79	127
320.8990022675737	321.00349206349205	76	127
320.8990022675737	321.00349206349205	83	127
321.00349206349205	321.1079818594104	72	127
321.00349206349205	321.1079818594104	89	127
321.1079818594104	321.2008616780045	81	127
321.1079818594104	321.2008616780045	77	127
321.2008616780045	321.31696145124715	89	127
321.2008616780045	321.31696145124715	72	127
321.31696145124715	321.4214512471655	77	127
321.31696145124715	321.4214512471655	81	127
321.4330612244898	321.5259410430839	71	127
321.4330612244898	321.5259410430839	79	127
321.5259410430839	321.58399092970524	76	127
321.5259410430839	321.58399092970524	88	127
321.5956009070295	321.7000680272109	71	127
321.5956009070295	321.7000680272109	79	127
321.7117006802721	321.80455782312924	76	127
321.7117006802721	321.80455782312924	88	127
321.81619047619046	321.9322902494331	69	127
321.81619047619046	321.9322902494331	87	127
321.9322902494331	322.03678004535146	78	127
321.9322902494331	322.03678004535146	71	127
322.04839002267573	322.14126984126983	69	127
322.04839002267573	322.14126984126983	87	127
322.14126984126983	322.2457596371882	71	127
322.14126984126983	322.2457596371882	78	127
322.2457596371882	322.36185941043084	64	127
322.2457596371882	322.36185941043084	88	127
322.36185941043084	322.45473922902494	67	127
322.36185941043084	322.45473922902494	83	127
322.45473922902494	322.53600907029477	71	127
322.45473922902494	322.53600907029477	79	127
322.53600907029477	322.6521088435374	67	127
322.53600907029477	322.6521088435374	76	127
322.6521088435374	323.0004081632653	75	127
322.6521088435374	323.0004081632653	69	127
322.6521088435374	323.0004081632653	66	127
322.6521088435374	323.0004081632653	64	127
322.6521088435374	322.76820861678004	78	127
322.76820861678004	322.86108843537414	79	127
322.86108843537414	322.9655782312925	81	127
322.9655782312925	323.0700680272109	83	127
323.08167800453515	323.1977777777778	64	127
323.08167800453515	323.1977777777778	88	127
323.20938775510206	323.3138775510204	67	127
323.20938775510206	323.3138775510204	83	127
323.3254875283447	323.4183673469388	71	127
323.3254875283447	323.4183673469388	79	127
323.42997732426306	323.53446712018143	67	127
323.42997732426306	323.53446712018143	76	127
323.5460544217687	323.92920634920637	75	127
323.5460544217687	323.92920634920637	69	127
323.5460544217687	323.92920634920637	66	127
323.5460544217687	323.92920634920637	64	127
323.5460544217687	323.6621768707483	78	127
323.67378684807255	323.7782766439909	79	127
323.7898866213152	323.8827664399093	81	127
323.8827664399093	323.98725623582766	83	127
323.98725623582766	324.03369614512474	88	127
323.98725623582766	324.03369614512474	64	127
324.03369614512474	324.045306122449	67	127
324.03369614512474	324.045306122449	83	127
324.045306122449	324.1497959183674	71	127
324.045306122449	324.1497959183674	79	127
324.1497959183674	324.21945578231293	67	127
324.1497959183674	324.21945578231293	76	127
324.21945578231293	324.57936507936506	75	127
324.21945578231293	324.57936507936506	69	127
324.21945578231293	324.57936507936506	66	127
324.21945578231293	324.57936507936506	64	127
324.21945578231293	324.3239455782313	78	127
324.3239455782313	324.44004535147394	79	127
324.44004535147394	324.5445351473923	81	127
324.5445351473923	324.66063492063495	83	127
324.66063492063495	324.8580045351474	71	127
324.66063492063495	324.8580045351474	67	127
324.66063492063495	324.8580045351474	64	127
324.66063492063495	324.7651247165533	88	127
324.7767120181406	324.8580045351474	83	127
324.8695918367347	324.9508843537415	79	127
324.9624943310658	325.06698412698415	76	127
325.0785714285714	325.1830612244898	71	127
325.194693877551	325.2759637188209	67	127
325.28755102040816	325.39206349206347	64	127
325.39206349206347	325.49655328798184	59	127
325.7055328798186	325.9261224489796	57	127
325.7055328798186	325.9261224489796	78	127
325.7055328798186	325.9261224489796	69	127
325.7055328798186	325.9261224489796	60	127
325.9261224489796	326.39052154195014	67	127
325.9261224489796	326.15832199546486	59	127
325.9261224489796	326.15832199546486	55	127
325.9261224489796	326.15832199546486	79	127
326.15832199546486	326.39052154195014	62	127
326.15832199546486	326.39052154195014	74	127
326.62272108843536	326.8200680272109	60	127
326.62272108843536	326.8200680272109	78	127
326.62272108843536	326.8200680272109	69	127
326.62272108843536	326.8200680272109	57	127
326.8200680272109	327.0058503401361	79	127
326.8200680272109	327.2264172335601	67	127
326.8200680272109	327.0058503401361	59	127
326.8200680272109	327.0058503401361	55	127
327.0058503401361	327.2264172335601	62	127
327.0058503401361	327.2264172335601	74	127
327.400589569161	327.5631292517007	78	127
327.400589569161	327.5631292517007	66	127
327.400589569161	327.5631292517007	57	127
327.5631292517007	327.8185487528345	81	127
327.5631292517007	327.8185487528345	69	127
327.5631292517007	327.8185487528345	62	127
327.8185487528345	327.9694784580499	69	127
327.8185487528345	328.4106575963719	62	127
327.8185487528345	328.1900680272109	81	127
327.8185487528345	327.9694784580499	66	127
327.9694784580499	328.4106575963719	71	127
327.9694784580499	328.1900680272109	69	127
327.9694784580499	328.4106575963719	83	127
328.20167800453515	328.3177777777778	78	127
328.20167800453515	328.3061678004535	66	127
328.3177777777778	328.4106575963719	79	127
328.3177777777778	328.4106575963719	67	127
328.42226757369616	328.8982766439909	64	127
328.42226757369616	328.8982766439909	85	127
328.42226757369616	328.8982766439909	73	127
328.42226757369616	328.6312471655329	69	127
328.42226757369616	328.6312471655329	81	127
328.64285714285717	328.8982766439909	79	127
328.64285714285717	328.8982766439909	67	127
328.8982766439909	329.11886621315193	62	127
328.8982766439909	329.11886621315193	86	127
328.8982766439909	329.11886621315193	78	127
328.8982766439909	329.11886621315193	74	127
328.8982766439909	329.11886621315193	66	127
329.11886621315193	329.29301587301586	81	127
329.11886621315193	329.29301587301586	78	127
329.11886621315193	329.52521541950114	69	127
329.11886621315193	329.52521541950114	66	127
329.11886621315193	329.52521541950114	62	127
329.29301587301586	329.52521541950114	86	127
329.29301587301586	329.52521541950114	74	127
329.52521541950114	329.74580498866214	67	127
329.52521541950114	329.74580498866214	79	127
329.9431746031746	330.15215419501135	81	127
329.9431746031746	330.15215419501135	78	127
329.9431746031746	330.3495238095238	66	127
329.9431746031746	330.3495238095238	62	127
329.9431746031746	330.3495238095238	69	127
330.15215419501135	330.3495238095238	74	127
330.15215419501135	330.3495238095238	86	127
330.3495238095238	330.5468934240363	67	127
330.3495238095238	330.5468934240363	79	127
330.7674829931973	330.9416326530612	78	127
330.7674829931973	330.9416326530612	69	127
330.7674829931973	330.9416326530612	66	127
330.7674829931973	330.9416326530612	81	127
330.9416326530612	331.15061224489796	74	127
330.9416326530612	331.15061224489796	86	127
331.15061224489796	331.3247619047619	78	127
331.15061224489796	331.3247619047619	90	127
331.15061224489796	331.5337414965986	74	127
331.15061224489796	331.5337414965986	86	127
331.3247619047619	331.7311111111111	76	127
331.3247619047619	331.7311111111111	88	127
331.5337414965986	331.6265986394558	73	127
331.5337414965986	331.6265986394558	85	127
331.6265986394558	331.7311111111111	71	127
331.6265986394558	331.7311111111111	83	127
331.74272108843536	332.14907029478456	70	127
331.74272108843536	331.97492063492064	88	127
331.74272108843536	332.14907029478456	82	127
331.74272108843536	331.97492063492064	76	127
331.97492063492064	332.079410430839	78	127
331.97492063492064	332.079410430839	90	127
332.079410430839	332.14907029478456	79	127
332.079410430839	332.14907029478456	91	127
332.14907029478456	332.38126984126984	78	127
332.14907029478456	332.38126984126984	83	127
332.14907029478456	332.38126984126984	71	127
332.14907029478456	332.38126984126984	90	127
332.38126984126984	332.82244897959185	81	127
332.38126984126984	332.5902494331066	78	127
332.38126984126984	332.5902494331066	90	127
332.38126984126984	332.82244897959185	69	127
332.38126984126984	332.82244897959185	66	127
332.5902494331066	333.06625850340134	74	127
332.5902494331066	333.06625850340134	86	127
332.82244897959185	333.06625850340134	79	127
332.82244897959185	333.06625850340134	67	127
333.28684807256235	333.72802721088436	69	127
333.28684807256235	333.72802721088436	66	127
333.28684807256235	333.72802721088436	81	127
333.28684807256235	333.4958276643991	78	127
333.28684807256235	333.4958276643991	90	127
333.50743764172336	333.91378684807256	74	127
333.50743764172336	333.91378684807256	86	127
333.72802721088436	333.91378684807256	67	127
333.72802721088436	333.91378684807256	79	127
334.0879365079365	334.2969160997732	77	127
334.0879365079365	334.2969160997732	89	127
334.0879365079365	334.4942857142857	69	127
334.0879365079365	334.4942857142857	65	127
334.0879365079365	334.4942857142857	81	127
334.2969160997732	334.4942857142857	74	127
334.2969160997732	334.4942857142857	86	127
334.4942857142857	334.72648526077097	72	127
334.4942857142857	334.72648526077097	64	127
334.4942857142857	334.72648526077097	84	127
334.4942857142857	334.72648526077097	76	127
334.72648526077097	335.14444444444445	71	127
334.72648526077097	335.14444444444445	62	127
334.72648526077097	335.14444444444445	83	127
334.72648526077097	335.14444444444445	74	127
335.14444444444445	335.388253968254	69	127
335.14444444444445	335.388253968254	81	127
335.14444444444445	335.608820861678	73	127
335.14444444444445	335.608820861678	61	127
335.388253968254	335.608820861678	67	127
335.388253968254	335.608820861678	79	127
335.6204535147392	335.8410430839002	62	127
335.6204535147392	335.8410430839002	77	127
335.6204535147392	335.8410430839002	74	127
335.6204535147392	335.8410430839002	65	127
335.8410430839002	336.05002267573695	81	127
335.8410430839002	336.05002267573695	77	127
335.8410430839002	336.05002267573695	65	127
335.8410430839002	336.2473922902494	57	127
335.8410430839002	336.2473922902494	69	127
336.05002267573695	336.4215192743764	62	127
336.05002267573695	336.4215192743764	74	127
336.2473922902494	336.4215192743764	55	127
336.2473922902494	336.4215192743764	67	127
336.6073015873016	337.0136507936508	57	127
336.6073015873016	337.0136507936508	69	127
336.6073015873016	336.8278911564626	77	127
336.6073015873016	336.8278911564626	65	127
336.6073015873016	336.8278911564626	81	127
336.8278911564626	337.2110204081633	62	127
336.8278911564626	337.2110204081633	74	127
337.0136507936508	337.2110204081633	55	127
337.0136507936508	337.2110204081633	67	127
337.4316099773243	337.7915192743764	65	127
337.4316099773243	337.7915192743764	62	127
337.4316099773243	337.7915192743764	69	127
337.4316099773243	337.7915192743764	57	127
337.4316099773243	337.7915192743764	77	127
337.7915192743764	338.26750566893423	59	127
337.7915192743764	338.26750566893423	55	127
337.7915192743764	338.26750566893423	74	127
337.7915192743764	338.26750566893423	67	127
337.7915192743764	338.26750566893423	62	127
338.26750566893423	338.67385487528344	75	127
338.26750566893423	338.67385487528344	71	127
338.26750566893423	338.67385487528344	63	127
338.26750566893423	338.67385487528344	59	127
338.26750566893423	338.67385487528344	55	127
338.68548752834465	339.1498866213152	72	127
338.68548752834465	339.1498866213152	64	127
338.68548752834465	339.1498866213152	60	127
338.68548752834465	339.1498866213152	76	127
339.1498866213152	339.5910430839002	76	127
339.1498866213152	339.5910430839002	67	127
339.1498866213152	339.5910430839002	60	127
339.1498866213152	339.5910430839002	79	127
339.1498866213152	339.5910430839002	64	127
339.5910430839002	340.0206349206349	84	127
339.5910430839002	340.0206349206349	81	127
339.5910430839002	340.0206349206349	76	127
339.5910430839002	340.0206349206349	64	127
339.5910430839002	340.0206349206349	72	127
339.5910430839002	340.0206349206349	69	127
340.0206349206349	340.4037641723356	74	127
340.0206349206349	340.4037641723356	72	127
340.0206349206349	340.4037641723356	69	127
340.0206349206349	340.4037641723356	81	127
340.0206349206349	340.4037641723356	62	127
340.0206349206349	340.4037641723356	84	127
340.4153514739229	340.62433106575963	67	127
340.4153514739229	340.62433106575963	72	127
340.4153514739229	340.62433106575963	62	127
340.4153514739229	340.62433106575963	74	127
340.4153514739229	340.62433106575963	84	127
340.4153514739229	340.62433106575963	79	127
340.63596371882085	340.71721088435373	84	127
340.63596371882085	340.71721088435373	78	127
340.63596371882085	340.71721088435373	74	127
340.63596371882085	340.81011337868483	62	127
340.63596371882085	340.81011337868483	66	127
340.63596371882085	340.81011337868483	72	127
340.71721088435373	340.76367346938775	86	127
340.76367346938775	340.81011337868483	84	127
340.81011337868483	340.8797732426304	83	127
340.8797732426304	340.9610430839002	81	127
340.9610430839002	341.0539229024943	83	127
341.0539229024943	341.1351700680272	81	127
341.0539229024943	341.30934240362814	50	127
341.1351700680272	341.2280498866213	79	127
341.2280498866213	341.30934240362814	78	127
341.30934240362814	341.3790022675737	76	127
341.3790022675737	341.43702947845804	74	127
341.43702947845804	341.48349206349206	72	127
341.48349206349206	341.5531519274376	71	127
341.5531519274376	341.611201814059	69	127
341.5531519274376	341.76213151927436	38	127
341.611201814059	341.66925170068026	71	127
341.66925170068026	341.76213151927436	72	127
341.76213151927436	341.85501133786846	74	127
341.85501133786846	341.9246712018141	76	127
341.9246712018141	341.99433106575964	78	127
341.99433106575964	342.07560090702947	79	127
342.07560090702947	342.16848072562357	81	127
342.16848072562357	342.26136054421767	83	127
342.26136054421767	342.3542176870748	84	127
342.3542176870748	342.4239002267574	86	127
342.4239002267574	342.5167800453515	88	127
342.5167800453515	342.5980498866213	90	127
342.6096598639456	342.71414965986395	91	127
342.6096598639456	342.71414965986395	86	127
342.6096598639456	342.71414965986395	83	127
342.6096598639456	342.71414965986395	79	127
342.6096598639456	342.71414965986395	43	127
342.6096598639456	342.71414965986395	38	127
342.6096598639456	342.71414965986395	31	127
342.93473922902496	343.1785260770975	38	127
342.93473922902496	343.1785260770975	90	127
342.93473922902496	343.1785260770975	78	127
342.93473922902496	343.1785260770975	50	127
342.93473922902496	343.49201814058955	86	127
343.1785260770975	343.49201814058955	35	127
343.1785260770975	343.49201814058955	91	127
343.1785260770975	343.49201814058955	79	127
343.1785260770975	343.49201814058955	47	127
343.49201814058955	343.5965079365079	74	127
343.49201814058955	343.5965079365079	43	127
343.49201814058955	343.5965079365079	31	127
343.49201814058955	343.5965079365079	86	127
343.49201814058955	343.5965079365079	83	127
343.85192743764173	344.38598639455785	88	127
343.85192743764173	344.38598639455785	84	127
343.85192743764173	344.38598639455785	76	127
343.85192743764173	344.38598639455785	48	127
343.85192743764173	344.38598639455785	36	127
344.4904761904762	344.9548752834467	86	127
344.4904761904762	344.9548752834467	83	127
344.4904761904762	344.9548752834467	74	127
344.4904761904762	344.9548752834467	55	127
344.4904761904762	344.9548752834467	50	127
344.4904761904762	344.9548752834467	43	127
345.0593650793651	345.628231292517	78	127
345.0593650793651	345.628231292517	72	127
345.0593650793651	345.628231292517	54	127
345.0593650793651	345.628231292517	84	127
345.0593650793651	345.628231292517	81	127
345.0593650793651	345.628231292517	57	127
345.0593650793651	345.628231292517	50	127
345.0593650793651	345.628231292517	62	127
345.7211337868481	346.2784126984127	67	127
345.7211337868481	346.2784126984127	71	127
345.7211337868481	346.2784126984127	79	127
345.7211337868481	346.2784126984127	55	127
345.7211337868481	346.2784126984127	59	127
345.7211337868481	346.2784126984127	83	127
346.6847619047619	346.998231292517	50	127
346.6847619047619	347.2884807256236	86	127
346.6847619047619	346.998231292517	78	127
346.6847619047619	346.998231292517	38	127
346.6847619047619	346.998231292517	90	127
346.998231292517	347.2884807256236	91	127
346.998231292517	347.2884807256236	47	127
346.998231292517	347.2884807256236	35	127
346.998231292517	347.2884807256236	79	127
347.2884807256236	347.46260770975056	86	127
347.2884807256236	347.46260770975056	31	127
347.2884807256236	347.46260770975056	74	127
347.2884807256236	347.46260770975056	83	127
347.2884807256236	347.46260770975056	43	127
347.6948299319728	348.2172789115646	76	127
347.6948299319728	348.2172789115646	88	127
347.6948299319728	348.2172789115646	43	127
347.6948299319728	348.2172789115646	83	127
347.6948299319728	348.2172789115646	55	127
347.6948299319728	348.2172789115646	86	127
347.6948299319728	348.2172789115646	50	127
348.321768707483	348.84421768707483	81	127
348.321768707483	348.84421768707483	50	127
348.321768707483	348.84421768707483	54	127
348.321768707483	348.84421768707483	42	127
348.321768707483	348.84421768707483	93	127
348.321768707483	348.84421768707483	86	127
348.97192743764174	349.5756462585034	52	127
348.97192743764174	349.5756462585034	45	127
348.97192743764174	349.5756462585034	40	127
348.97192743764174	349.05319727891157	97	127
348.97192743764174	349.5756462585034	85	127
349.05319727891157	349.2157369614512	98	127
349.2157369614512	349.2970068027211	97	127
349.2970068027211	349.3666666666667	98	127
349.3666666666667	349.4479365079365	97	127
349.4479365079365	349.5175736961451	98	127
349.5175736961451	349.59886621315195	95	127
349.59886621315195	349.6685260770975	97	127
349.6685260770975	350.7134240362812	86	127
349.6685260770975	350.7134240362812	50	127
349.6685260770975	350.7134240362812	98	127
349.6685260770975	350.7134240362812	45	127
349.6685260770975	350.7134240362812	38	127
350.92240362811793	351.42163265306124	38	127
350.92240362811793	351.42163265306124	43	127
350.92240362811793	351.42163265306124	31	127
351.4332426303855	351.73510204081634	70	127
351.4332426303855	351.73510204081634	74	127
351.4332426303855	351.73510204081634	67	127
351.4332426303855	351.73510204081634	62	127
351.7467120181406	352.0834013605442	55	127
351.7467120181406	352.0834013605442	46	127
351.7467120181406	352.0834013605442	50	127
351.7467120181406	352.0834013605442	43	127
352.0834013605442	352.3968707482993	67	127
352.0834013605442	352.3968707482993	70	127
352.0834013605442	352.3968707482993	62	127
352.0834013605442	352.3968707482993	74	127
352.3968707482993	352.79160997732424	39	127
352.3968707482993	352.79160997732424	51	127
352.3968707482993	352.79160997732424	48	127
352.79160997732424	353.221179138322	67	127
352.79160997732424	353.221179138322	60	127
352.79160997732424	353.221179138322	72	127
353.2443990929705	353.65074829931973	43	127
353.2443990929705	353.65074829931973	48	127
353.2443990929705	353.65074829931973	36	127
353.67396825396827	354.0338775510204	72	127
353.67396825396827	354.0338775510204	67	127
353.67396825396827	354.0338775510204	63	127
353.67396825396827	354.0338775510204	75	127
354.04548752834467	354.46344671201814	41	127
354.04548752834467	354.46344671201814	53	127
354.04548752834467	354.46344671201814	45	127
354.4750566893424	354.9278231292517	69	127
354.4750566893424	354.9278231292517	65	127
354.4750566893424	354.9278231292517	60	127
354.4750566893424	354.9278231292517	72	127
354.9278231292517	355.27614512471655	41	127
354.9278231292517	355.27614512471655	46	127
354.9278231292517	355.27614512471655	34	127
355.27614512471655	355.68249433106575	74	127
355.27614512471655	355.68249433106575	65	127
355.27614512471655	355.68249433106575	62	127
355.27614512471655	355.68249433106575	70	127
355.68249433106575	356.1120634920635	51	127
355.68249433106575	356.1120634920635	39	127
356.12367346938777	356.4603401360544	70	127
356.12367346938777	356.4603401360544	63	127
356.12367346938777	356.4603401360544	67	127
356.12367346938777	356.4603401360544	58	127
356.4719727891156	356.8434920634921	33	127
356.4719727891156	356.8434920634921	45	127
356.85510204081635	357.19179138321994	63	127
356.85510204081635	357.19179138321994	69	127
356.85510204081635	357.19179138321994	72	127
356.85510204081635	357.19179138321994	60	127
357.19179138321994	357.7026303854875	38	127
357.19179138321994	357.7026303854875	50	127
357.7026303854875	358.0044671201814	57	127
357.7026303854875	358.0044671201814	62	127
357.7026303854875	358.0044671201814	66	127
357.7026303854875	358.0044671201814	69	127
358.0044671201814	358.3760090702948	43	127
358.0044671201814	358.3760090702948	31	127
358.38761904761907	358.8868480725624	62	127
358.38761904761907	358.8868480725624	70	127
358.38761904761907	358.8868480725624	58	127
358.38761904761907	358.8868480725624	67	127
358.9100680272109	359.3164172335601	45	127
358.9100680272109	359.3164172335601	33	127
359.3280045351474	359.61827664399095	61	127
359.3280045351474	359.61827664399095	64	127
359.3280045351474	359.61827664399095	57	127
359.3280045351474	359.61827664399095	69	127
359.61827664399095	360.152335600907	57	127
359.61827664399095	360.152335600907	38	127
359.61827664399095	360.152335600907	62	127
359.61827664399095	360.152335600907	26	127
359.61827664399095	360.152335600907	69	127
359.61827664399095	360.152335600907	66	127
360.2568253968254	360.52385487528346	50	127
360.2568253968254	360.52385487528346	62	127
360.2568253968254	360.52385487528346	74	127
360.2568253968254	360.52385487528346	38	127
360.5702947845805	360.72122448979593	50	127
360.5702947845805	360.72122448979593	38	127
360.5702947845805	360.72122448979593	74	127
360.5702947845805	360.72122448979593	62	127
360.89537414965986	361.52231292517007	74	127
360.89537414965986	361.20884353741496	38	127
360.89537414965986	361.52231292517007	62	127
360.89537414965986	361.20884353741496	50	127
361.20884353741496	361.5107029478458	35	127
361.20884353741496	361.5107029478458	47	127
361.52231292517007	361.6848299319728	79	127
361.52231292517007	361.6848299319728	71	127
361.52231292517007	361.6848299319728	43	127
361.52231292517007	361.6848299319728	31	127
361.52231292517007	361.6848299319728	67	127
361.52231292517007	361.6848299319728	74	127
361.88219954648525	362.4511111111111	79	127
361.88219954648525	362.4511111111111	48	127
361.88219954648525	362.4511111111111	72	127
361.88219954648525	362.4511111111111	76	127
361.88219954648525	362.4511111111111	36	127
361.88219954648525	362.4511111111111	67	127
362.5439909297052	363.06643990929706	71	127
362.5439909297052	363.06643990929706	55	127
362.5439909297052	363.06643990929706	79	127
362.5439909297052	363.06643990929706	74	127
362.5439909297052	363.06643990929706	43	127
362.5439909297052	363.06643990929706	67	127
363.2173469387755	363.85591836734693	74	127
363.2173469387755	363.85591836734693	50	127
363.2173469387755	363.85591836734693	62	127
363.2173469387755	363.85591836734693	66	127
363.2173469387755	363.85591836734693	78	127
363.2173469387755	363.85591836734693	57	127
363.2173469387755	363.85591836734693	72	127
363.97201814058957	364.61056689342405	55	127
363.97201814058957	364.61056689342405	59	127
363.97201814058957	364.61056689342405	74	127
363.97201814058957	364.61056689342405	62	127
363.97201814058957	364.61056689342405	71	127
363.97201814058957	364.61056689342405	67	127
363.97201814058957	364.61056689342405	79	127
364.76149659863944	364.92403628117916	38	127
364.76149659863944	364.92403628117916	50	127
364.76149659863944	364.92403628117916	74	127
364.76149659863944	364.92403628117916	62	127
364.9704761904762	365.0865759637188	74	127
364.9704761904762	365.0865759637188	62	127
364.9704761904762	365.0865759637188	50	127
364.9704761904762	365.0865759637188	38	127
365.14462585034016	365.446485260771	38	127
365.14462585034016	365.446485260771	50	127
365.14462585034016	365.7831746031746	74	127
365.14462585034016	365.7831746031746	62	127
365.446485260771	365.7599546485261	35	127
365.446485260771	365.7599546485261	47	127
365.7831746031746	365.87603174603174	31	127
365.7831746031746	365.87603174603174	79	127
365.7831746031746	365.87603174603174	67	127
365.7831746031746	365.87603174603174	71	127
365.7831746031746	365.87603174603174	43	127
365.7831746031746	365.87603174603174	74	127
366.0966439909297	366.1895238095238	67	127
366.0966439909297	366.1895238095238	55	127
366.0966439909297	366.1895238095238	43	127
366.0966439909297	366.1895238095238	79	127
366.23596371882087	366.4101133786848	43	127
366.23596371882087	366.4101133786848	67	127
366.23596371882087	366.4101133786848	79	127
366.23596371882087	366.4101133786848	55	127
366.4797505668934	366.9441723356009	43	127
366.4797505668934	367.3040589569161	67	127
366.4797505668934	367.3040589569161	79	127
366.4797505668934	366.9441723356009	55	127
366.9441723356009	367.3040589569161	40	127
366.9441723356009	367.3040589569161	52	127
367.3040589569161	367.43179138321995	76	127
367.3040589569161	367.43179138321995	84	127
367.3040589569161	367.43179138321995	72	127
367.3040589569161	367.43179138321995	79	127
367.3040589569161	367.43179138321995	48	127
367.3040589569161	367.43179138321995	36	127
367.6407709750567	368.37219954648526	78	127
367.6407709750567	368.37219954648526	72	127
367.6407709750567	368.37219954648526	38	127
367.6407709750567	368.37219954648526	50	127
367.6407709750567	368.37219954648526	81	127
367.6407709750567	368.37219954648526	69	127
368.47668934240363	368.87142857142857	55	127
368.47668934240363	368.87142857142857	50	127
368.47668934240363	368.87142857142857	79	127
368.47668934240363	368.87142857142857	43	127
368.47668934240363	368.87142857142857	74	127
368.47668934240363	368.87142857142857	67	127
368.47668934240363	368.87142857142857	71	127
369.4403174603175	369.9859863945578	30	127
369.4403174603175	369.9859863945578	42	127
369.4403174603175	369.5331972789116	54	127
369.5331972789116	369.6725170068027	55	127
369.6725170068027	369.7421768707483	54	127
369.7421768707483	369.82344671201815	55	127
369.82344671201815	369.88149659863944	54	127
369.88149659863944	369.95115646258506	55	127
369.95115646258506	370.00920634920635	52	127
370.00920634920635	370.0788662131519	54	127
370.0788662131519	370.4387755102041	43	127
370.0788662131519	370.4387755102041	55	127
370.0788662131519	370.4387755102041	31	127
370.86834467120184	371.0657142857143	50	127
370.86834467120184	371.0657142857143	62	127
370.86834467120184	371.0657142857143	72	127
370.86834467120184	371.0657142857143	57	127
370.86834467120184	371.0657142857143	54	127
370.86834467120184	371.0657142857143	69	127
370.86834467120184	371.0657142857143	66	127
370.86834467120184	371.0657142857143	60	127
370.86834467120184	371.0657142857143	74	127
371.2862811791383	371.49526077097505	72	127
371.2862811791383	371.49526077097505	74	127
371.2862811791383	371.49526077097505	42	127
371.2862811791383	371.49526077097505	50	127
371.2862811791383	371.49526077097505	69	127
371.2862811791383	371.49526077097505	66	127
371.2862811791383	371.49526077097505	62	127
371.2862811791383	371.49526077097505	38	127
371.2862811791383	371.49526077097505	45	127
371.72748299319727	371.9712925170068	46	127
371.72748299319727	371.9712925170068	55	127
371.72748299319727	371.9712925170068	67	127
371.72748299319727	371.9712925170068	74	127
371.72748299319727	371.9712925170068	70	127
371.72748299319727	371.9712925170068	62	127
371.72748299319727	371.9712925170068	43	127
371.72748299319727	371.9712925170068	50	127
372.21507936507936	372.45891156462585	70	127
372.21507936507936	372.45891156462585	74	127
372.21507936507936	372.45891156462585	38	127
372.21507936507936	372.45891156462585	34	127
372.21507936507936	372.45891156462585	31	127
372.21507936507936	372.45891156462585	67	127
372.21507936507936	372.45891156462585	62	127
372.21507936507936	372.45891156462585	43	127
372.4705215419501	372.86526077097506	33	127
372.4705215419501	372.5285714285714	57	127
372.4705215419501	372.86526077097506	45	127
372.5285714285714	372.58662131519276	58	127
372.58662131519276	372.64467120181405	57	127
372.64467120181405	372.71430839002267	58	127
372.71430839002267	372.77238095238096	57	127
372.77238095238096	372.83043083900225	58	127
372.83043083900225	372.8884807256236	55	127
372.8884807256236	372.9349206349206	57	127
372.9465306122449	373.26	34	127
372.9465306122449	373.26	58	127
372.9465306122449	373.26	46	127
373.5154195011338	373.7127891156463	63	127
373.5154195011338	373.7127891156463	77	127
373.5154195011338	373.7127891156463	65	127
373.5154195011338	373.7127891156463	75	127
373.5154195011338	373.7127891156463	57	127
373.5154195011338	373.7127891156463	72	127
373.5154195011338	373.7127891156463	69	127
373.5154195011338	373.7127891156463	60	127
373.5154195011338	373.7127891156463	53	127
373.9333786848073	374.13074829931975	41	127
373.9333786848073	374.13074829931975	75	127
373.9333786848073	374.13074829931975	48	127
373.9333786848073	374.13074829931975	72	127
373.9333786848073	374.13074829931975	45	127
373.9333786848073	374.13074829931975	69	127
373.9333786848073	374.13074829931975	65	127
373.9333786848073	374.13074829931975	53	127
373.9333786848073	374.13074829931975	77	127
374.3977777777778	374.583537414966	70	127
374.3977777777778	374.583537414966	74	127
374.3977777777778	374.583537414966	53	127
374.3977777777778	374.583537414966	46	127
374.3977777777778	374.583537414966	65	127
374.3977777777778	374.583537414966	50	127
374.3977777777778	374.583537414966	58	127
374.3977777777778	374.583537414966	77	127
374.8273469387755	375.0595464852608	74	127
374.8273469387755	375.0595464852608	41	127
374.8273469387755	375.0595464852608	65	127
374.8273469387755	375.0595464852608	70	127
374.8273469387755	375.0595464852608	46	127
374.8273469387755	375.0595464852608	38	127
374.8273469387755	375.0595464852608	34	127
374.8273469387755	375.0595464852608	77	127
375.0595464852608	375.4310657596372	37	127
375.0595464852608	375.4310657596372	49	127
375.512335600907	375.89544217687074	38	127
375.512335600907	375.89544217687074	50	127
375.99995464852606	376.3366439909297	49	127
375.99995464852606	376.3366439909297	61	127
375.99995464852606	376.3366439909297	37	127
376.41791383219953	376.7546031746032	50	127
376.41791383219953	376.7546031746032	38	127
376.41791383219953	376.7546031746032	62	127
376.835873015873	377.23061224489794	77	127
376.835873015873	377.23061224489794	49	127
376.835873015873	377.23061224489794	73	127
376.835873015873	377.23061224489794	61	127
376.835873015873	377.23061224489794	65	127
377.3118820861678	377.67179138321995	50	127
377.3118820861678	377.67179138321995	74	127
377.3118820861678	377.67179138321995	62	127
377.3118820861678	377.67179138321995	66	127
377.3118820861678	377.67179138321995	78	127
377.7530612244898	377.8459410430839	80	127
377.7530612244898	377.8459410430839	68	127
377.85755102040815	377.95043083900225	81	127
377.85755102040815	377.95043083900225	69	127
377.9620408163265	378.0665306122449	83	127
377.9620408163265	378.0665306122449	71	127
378.07814058956916	378.1826303854875	73	127
378.07814058956916	378.1826303854875	85	127
378.1942403628118	378.2871201814059	87	127
378.1942403628118	378.2871201814059	75	127
378.29873015873017	378.40321995464853	89	127
378.29873015873017	378.40321995464853	77	127
378.40321995464853	378.48448979591836	90	127
378.40321995464853	378.48448979591836	78	127
378.48448979591836	378.58897959183673	92	127
378.48448979591836	378.58897959183673	80	127
378.58897959183673	378.70507936507937	81	127
378.58897959183673	378.70507936507937	93	127
378.70507936507937	378.77473922902493	80	127
378.70507936507937	378.77473922902493	92	127
378.77473922902493	378.8792290249433	93	127
378.77473922902493	378.8792290249433	81	127
378.8792290249433	378.99532879818594	80	127
378.8792290249433	378.99532879818594	92	127
378.99532879818594	379.041768707483	93	127
378.99532879818594	379.041768707483	81	127
379.18108843537414	379.262335600907	78	127
379.18108843537414	379.262335600907	90	127
379.4132879818594	379.5177777777778	82	127
379.4132879818594	379.5177777777778	94	127
379.52938775510205	379.62226757369615	81	127
379.52938775510205	379.62226757369615	93	127
379.6338775510204	379.7383673469388	94	127
379.6338775510204	379.7383673469388	82	127
379.74997732426306	379.84285714285716	79	127
379.74997732426306	379.84285714285716	91	127
379.8544671201814	379.9125170068027	81	127
379.8544671201814	379.9125170068027	93	127
380.0402267573696	380.12149659863945	90	127
380.0402267573696	380.12149659863945	78	127
380.2724263038549	380.35369614512473	38	127
380.2724263038549	380.38850340136054	81	127
380.38850340136054	380.5046258503401	82	127
380.5046258503401	380.58589569161	50	127
380.5046258503401	380.62072562358276	84	127
380.62072562358276	380.7368253968254	86	127
380.7368253968254	380.8180952380952	38	127
380.7368253968254	380.8297052154195	88	127
380.8297052154195	380.94580498866213	90	127
380.94580498866213	381.0154648526077	91	127
380.94580498866213	380.98063492063494	50	127
381.0154648526077	381.0851247165533	93	127
381.0967346938776	381.16639455782314	94	127
381.0967346938776	381.15478458049887	43	127
381.0967346938776	381.43342403628117	82	127
381.16639455782314	381.25927437641724	93	127
381.2708843537415	381.35215419501134	55	127
381.2708843537415	381.38698412698415	94	127
381.3985941043084	381.468253968254	91	127
381.47986394557824	381.5959637188209	94	127
381.47986394557824	381.5495238095238	39	127
381.47986394557824	381.8629931972789	82	127
381.63079365079363	381.735283446712	93	127
381.7468934240363	381.81655328798183	94	127
381.7468934240363	381.79333333333335	51	127
381.81655328798183	381.9210430839002	91	127
381.9210430839002	382.03714285714284	96	127
381.9210430839002	382.0023129251701	32	127
381.9210430839002	382.2809523809524	84	127
382.03714285714284	382.13002267573694	95	127
382.13002267573694	382.2461224489796	96	127
382.13002267573694	382.2112925170068	44	127
382.2461224489796	382.35061224489795	92	127
382.35061224489795	382.47832199546485	94	127
382.35061224489795	382.44349206349204	39	127
382.35061224489795	382.7337414965986	82	127
382.47832199546485	382.5944217687075	93	127
382.5944217687075	382.69891156462586	94	127
382.5944217687075	382.6756916099773	51	127
382.69891156462586	382.7801814058957	91	127
382.79179138321996	383.1865306122449	78	127
382.79179138321996	383.1865306122449	62	127
382.79179138321996	383.1865306122449	90	127
382.79179138321996	383.1865306122449	69	127
382.79179138321996	383.1865306122449	84	127
382.79179138321996	383.1865306122449	74	127
383.2678004535147	383.65092970521545	58	127
383.2678004535147	383.65092970521545	82	127
383.2678004535147	383.65092970521545	55	127
383.2678004535147	383.65092970521545	62	127
383.2678004535147	383.65092970521545	79	127
383.2678004535147	383.65092970521545	91	127
383.2678004535147	383.65092970521545	67	127
383.9063492063492	384.1385487528345	54	127
383.9063492063492	384.1385487528345	57	127
383.9063492063492	384.1385487528345	81	127
383.9063492063492	384.1385487528345	84	127
383.9063492063492	384.1385487528345	50	127
383.9063492063492	384.1385487528345	74	127
383.9063492063492	384.1385487528345	86	127
383.9063492063492	384.1385487528345	62	127
384.38235827664397	384.55650793650796	42	127
384.38235827664397	384.55650793650796	45	127
384.38235827664397	384.55650793650796	84	127
384.38235827664397	384.55650793650796	38	127
384.38235827664397	384.55650793650796	81	127
384.38235827664397	384.55650793650796	74	127
384.38235827664397	384.55650793650796	86	127
384.38235827664397	384.55650793650796	50	127
384.77709750566896	384.9512471655329	43	127
384.77709750566896	384.9512471655329	79	127
384.77709750566896	384.9512471655329	46	127
384.77709750566896	384.9512471655329	82	127
384.77709750566896	384.9512471655329	50	127
384.77709750566896	384.9512471655329	74	127
384.77709750566896	384.9512471655329	86	127
384.77709750566896	384.9512471655329	55	127
385.18344671201817	385.485306122449	62	127
385.18344671201817	385.485306122449	55	127
385.18344671201817	385.485306122449	58	127
385.18344671201817	385.485306122449	82	127
385.18344671201817	385.485306122449	86	127
385.18344671201817	385.485306122449	79	127
385.18344671201817	385.485306122449	74	127
385.485306122449	385.9032653061224	72	127
385.485306122449	385.9032653061224	87	127
385.485306122449	385.9032653061224	81	127
385.485306122449	385.9032653061224	65	127
385.485306122449	385.9032653061224	93	127
385.485306122449	385.9032653061224	77	127
385.97292517006804	386.28639455782314	86	127
385.97292517006804	386.28639455782314	62	127
385.97292517006804	386.28639455782314	58	127
385.97292517006804	386.28639455782314	65	127
385.97292517006804	386.28639455782314	82	127
385.97292517006804	386.28639455782314	94	127
385.97292517006804	386.28639455782314	70	127
386.6114739229025	386.82045351473926	84	127
386.6114739229025	386.82045351473926	65	127
386.6114739229025	386.82045351473926	77	127
386.6114739229025	386.82045351473926	60	127
386.6114739229025	386.82045351473926	57	127
386.6114739229025	386.82045351473926	53	127
386.6114739229025	386.82045351473926	89	127
386.6114739229025	386.82045351473926	87	127
387.06426303854875	387.28485260770975	77	127
387.06426303854875	387.28485260770975	53	127
387.06426303854875	387.28485260770975	48	127
387.06426303854875	387.28485260770975	45	127
387.06426303854875	387.28485260770975	84	127
387.06426303854875	387.28485260770975	41	127
387.06426303854875	387.28485260770975	89	127
387.06426303854875	387.28485260770975	87	127
387.4938321995465	387.72603174603177	86	127
387.4938321995465	387.72603174603177	46	127
387.4938321995465	387.72603174603177	89	127
387.4938321995465	387.72603174603177	53	127
387.4938321995465	387.72603174603177	58	127
387.4938321995465	387.72603174603177	50	127
387.4938321995465	387.72603174603177	82	127
387.4938321995465	387.72603174603177	77	127
387.9814512471655	388.2136507936508	65	127
387.9814512471655	388.2136507936508	77	127
387.9814512471655	388.2136507936508	58	127
387.9814512471655	388.2136507936508	82	127
387.9814512471655	388.2136507936508	89	127
387.9814512471655	388.2136507936508	86	127
387.9814512471655	388.2136507936508	62	127
388.2136507936508	388.5735600907029	73	127
388.2136507936508	388.5735600907029	85	127
388.2136507936508	388.5735600907029	61	127
388.2136507936508	388.5735600907029	97	127
388.6316099773243	389.00312925170067	98	127
388.6316099773243	389.00312925170067	86	127
388.6316099773243	389.00312925170067	74	127
388.6316099773243	389.00312925170067	62	127
389.0843990929705	389.45591836734695	65	127
389.0843990929705	389.45591836734695	53	127
389.0843990929705	389.45591836734695	81	127
389.0843990929705	389.45591836734695	73	127
389.0843990929705	389.45591836734695	85	127
389.5255782312925	389.9087074829932	58	127
389.5255782312925	389.9087074829932	86	127
389.5255782312925	389.9087074829932	46	127
389.5255782312925	389.9087074829932	74	127
389.5255782312925	389.9087074829932	82	127
390.0015873015873	390.39632653061227	50	127
390.0015873015873	390.39632653061227	73	127
390.0015873015873	390.39632653061227	61	127
390.0015873015873	390.39632653061227	69	127
390.0015873015873	390.39632653061227	62	127
390.4775963718821	390.87233560090704	74	127
390.4775963718821	390.87233560090704	55	127
390.4775963718821	390.87233560090704	70	127
390.4775963718821	390.87233560090704	62	127
390.4775963718821	390.87233560090704	43	127
390.9419954648526	391.1741950113379	45	127
391.1741950113379	391.3831746031746	64	127
391.1741950113379	391.3831746031746	76	127
391.1741950113379	391.3831746031746	67	127
391.1741950113379	391.3831746031746	69	127
391.1741950113379	391.3831746031746	79	127
391.1741950113379	391.3831746031746	57	127
391.55732426303854	391.7895238095238	57	127
391.55732426303854	391.7895238095238	64	127
391.55732426303854	391.7895238095238	69	127
391.55732426303854	391.7895238095238	79	127
391.55732426303854	391.7895238095238	67	127
391.55732426303854	391.7895238095238	76	127
392.03333333333336	392.2307029478458	62	127
392.03333333333336	392.2307029478458	69	127
392.03333333333336	392.2307029478458	77	127
392.03333333333336	392.2307029478458	50	127
392.03333333333336	392.2307029478458	65	127
392.46290249433105	392.7067120181406	70	127
392.46290249433105	392.7067120181406	65	127
392.46290249433105	392.7067120181406	58	127
392.46290249433105	392.7067120181406	46	127
392.46290249433105	392.7067120181406	74	127
392.93891156462587	393.1478911564626	70	127
392.93891156462587	393.1478911564626	64	127
392.93891156462587	393.1478911564626	55	127
392.93891156462587	393.1478911564626	43	127
392.93891156462587	393.1478911564626	74	127
393.35687074829934	393.58907029478456	62	127
393.35687074829934	393.58907029478456	69	127
393.35687074829934	393.58907029478456	65	127
393.35687074829934	393.58907029478456	74	127
393.35687074829934	393.58907029478456	50	127
393.58907029478456	393.69356009070293	76	127
393.58907029478456	393.67034013605445	45	127
393.7051700680272	393.82126984126984	77	127
393.8328798185941	393.90253968253967	57	127
393.8328798185941	393.9373696145125	79	127
393.94897959183675	394.0186394557823	81	127
394.0302494331066	394.1231292517007	83	127
394.0302494331066	394.08829931972787	45	127
394.13473922902494	394.2392290249433	85	127
394.2508390022676	394.35532879818595	86	127
394.2508390022676	394.32049886621314	57	127
394.3669387755102	394.4598185941043	88	127
394.4598185941043	394.5294784580499	89	127
394.4598185941043	394.7732879818594	77	127
394.4598185941043	394.49464852607707	50	127
394.5294784580499	394.622358276644	88	127
394.622358276644	394.7036281179138	62	127
394.622358276644	394.7384580498866	89	127
394.7384580498866	394.8081179138322	86	127
394.8081179138322	394.8777777777778	46	127
394.8081179138322	394.91260770975055	89	127
394.8081179138322	395.16802721088436	77	127
394.91260770975055	395.0170975056689	88	127
395.0170975056689	395.0983673469388	58	127
395.0170975056689	395.13319727891155	89	127
395.13319727891155	395.2492970521542	86	127
395.2492970521542	395.6208163265306	79	127
395.2492970521542	395.36539682539683	91	127
395.2492970521542	395.330566893424	39	127
395.36539682539683	395.4698866213152	89	127
395.48149659863947	395.551156462585	51	127
395.48149659863947	395.57437641723357	91	127
395.58598639455784	395.67886621315193	87	127
395.6904761904762	396.0155555555556	77	127
395.6904761904762	395.77174603174603	89	127
395.6904761904762	395.7369160997732	46	127
395.7833560090703	395.8762358276644	87	127
395.8878458049887	395.94589569160996	58	127
395.8878458049887	395.98072562358277	89	127
395.99233560090704	396.0619954648526	86	127
396.0619954648526	396.17809523809524	91	127
396.0619954648526	396.14326530612243	27	127
396.17809523809524	396.2941950113379	87	127
396.2941950113379	396.39868480725625	79	127
396.2941950113379	396.36385487528344	39	127
396.39868480725625	396.5147845804989	91	127
396.5147845804989	396.5728344671202	34	127
396.5147845804989	396.607664399093	89	127
396.607664399093	396.7005442176871	86	127
396.7005442176871	396.7585941043084	46	127
396.7005442176871	396.7818140589569	77	127
396.7818140589569	396.8863038548753	89	127
396.8863038548753	396.9675736961451	36	127
396.8863038548753	396.99079365079365	87	127
396.99079365079365	397.08367346938775	84	127
397.095283446712	397.17655328798185	48	127
397.095283446712	397.1997732426304	75	127
397.21138321995466	397.30426303854875	87	127
397.315873015873	397.4203628117914	86	127
397.315873015873	397.3855328798186	43	127
397.43197278911566	397.53646258503403	82	127
397.5480725623583	397.62934240362813	74	127
397.5480725623583	397.6061224489796	55	127
397.6409523809524	397.67578231292515	86	127
397.67578231292515	397.76866213151925	84	127
397.67578231292515	397.8847619047619	44	127
397.76866213151925	397.8847619047619	80	127
397.8847619047619	398.08213151927436	56	127
397.8847619047619	397.977641723356	72	127
397.977641723356	398.08213151927436	84	127
398.08213151927436	398.25628117913834	51	127
398.08213151927436	398.15179138322	82	127
398.15179138322	398.25628117913834	79	127
398.25628117913834	398.44204081632654	63	127
398.25628117913834	398.33755102040817	70	127
398.33755102040817	398.44204081632654	82	127
398.44204081632654	398.5581405895692	91	127
398.44204081632654	398.66263038548755	33	127
398.5581405895692	398.66263038548755	88	127
398.6742403628118	398.7787301587302	79	127
398.6742403628118	398.86	45	127
398.7903401360544	398.86	91	127
398.86	398.9296598639456	89	127
398.86	399.0225396825397	38	127
398.94126984126984	399.0225396825397	86	127
399.03414965986394	399.12702947845804	77	127
399.03414965986394	399.21990929705214	50	127
399.1386394557823	399.21990929705214	89	127
399.2315192743764	399.3360090702948	88	127
399.2315192743764	399.4521088435374	41	127
399.3360090702948	399.4521088435374	84	127
399.4521088435374	399.53337868480725	76	127
399.4521088435374	399.6378684807256	53	127
399.53337868480725	399.6378684807256	88	127
399.6378684807256	399.75396825396825	86	127
399.6378684807256	399.8700680272109	46	127
399.75396825396825	399.8700680272109	82	127
399.8700680272109	400.10226757369617	58	127
399.8700680272109	399.98616780045353	74	127
399.98616780045353	400.10226757369617	86	127
400.10226757369617	400.3344671201814	48	127
400.10226757369617	400.3344671201814	84	127
400.34607709750566	400.57827664399093	60	127
400.34607709750566	400.57827664399093	81	127
400.5898866213152	400.7175963718821	72	127
400.5898866213152	400.7175963718821	82	127
400.5898866213152	400.8336961451247	49	127
400.7292063492063	400.8336961451247	79	127
400.84530612244896	401.06589569160997	61	127
400.84530612244896	400.94979591836733	84	127
400.84530612244896	400.94979591836733	70	127
400.9614058956916	401.06589569160997	82	127
401.07750566893424	401.4374149659864	69	127
401.07750566893424	401.4374149659864	78	127
401.07750566893424	401.4374149659864	81	127
401.07750566893424	401.4374149659864	62	127
401.07750566893424	401.4374149659864	50	127
402.20367346938775	403.5968707482993	84	127
402.20367346938775	403.9567800453515	87	127
402.20367346938775	403.5968707482993	38	127
402.20367346938775	403.5968707482993	26	127
402.20367346938775	403.5968707482993	78	127
402.20367346938775	403.5968707482993	75	127
402.20367346938775	403.5968707482993	81	127
403.96839002267575	404.10770975056687	86	127
404.11931972789114	404.24702947845805	84	127
404.2586394557823	404.3979591836735	82	127
404.4095691609977	404.69981859410433	81	127
404.4095691609977	404.5372789115646	84	127
404.5488888888889	404.69981859410433	82	127
404.7114285714286	404.862358276644	81	127
404.87396825396826	405.00167800453517	79	127
405.01328798185943	405.2687074829932	78	127
405.082947845805	405.1758276643991	81	127
405.18743764172336	405.2687074829932	79	127
405.2687074829932	405.37319727891156	77	127
405.37319727891156	405.46607709750566	75	127
405.46607709750566	405.524126984127	74	127
405.524126984127	405.77954648526077	72	127
405.60539682539684	405.6750566893424	77	127
405.68666666666667	405.77954648526077	75	127
405.77954648526077	405.87242630385487	74	127
405.88403628117914	405.96530612244896	72	127
405.96530612244896	406.05818594104306	70	127
406.06979591836733	406.3019954648526	69	127
406.16267573696143	406.2439455782313	74	127
406.2439455782313	406.3019954648526	72	127
406.3136054421769	406.3948752834467	70	127
406.3948752834467	406.47614512471654	69	127
406.47614512471654	406.51097505668935	67	127
406.5225850340136	406.78961451247164	66	127
406.6154648526077	406.69673469387754	72	127
406.7083446712018	406.78961451247164	69	127
406.78961451247164	406.85927437641726	67	127
406.85927437641726	406.95215419501136	65	127
406.9637641723356	407.05664399092973	62	127
407.05664399092973	407.3120634920635	63	127
407.1611337868481	407.2191836734694	69	127
407.23079365079366	407.3120634920635	65	127
407.3120634920635	407.38172335600905	63	127
407.3933333333333	407.4978231292517	62	127
407.4978231292517	407.5674829931973	60	127
407.5790929705215	407.8461224489796	62	127
407.6603628117914	407.7532426303855	65	127
407.7532426303855	407.8461224489796	63	127
407.85773242630387	407.9041723356009	60	127
407.9041723356009	407.96222222222224	58	127
407.96222222222224	408.00866213151926	57	127
408.00866213151926	408.24086167800453	62	127
408.10154195011336	408.171201814059	65	127
408.18281179138324	408.24086167800453	63	127
408.2524716553288	408.2989115646258	60	127
408.2989115646258	408.3801814058957	58	127
408.3801814058957	408.4498412698413	57	127
408.4498412698413	408.74009070294784	62	127
408.5311111111111	408.61238095238093	65	127
408.6239909297052	408.74009070294784	62	127
408.74009070294784	408.82136054421767	60	127
408.82136054421767	408.8561904761905	59	127
408.8561904761905	408.96068027210885	56	127
408.96068027210885	409.2044897959184	62	127
409.0767800453515	409.14643990929704	65	127
409.14643990929704	409.2044897959184	62	127
409.2160997732426	409.2857596371882	60	127
409.2857596371882	409.3438095238095	59	127
409.3438095238095	409.41346938775513	56	127
409.42507936507934	409.68049886621316	62	127
409.5179591836735	409.58761904761906	64	127
409.5992290249433	409.68049886621316	61	127
409.68049886621316	409.73854875283445	58	127
409.73854875283445	409.83142857142855	57	127
409.83142857142855	409.91269841269843	55	127
409.91269841269843	410.19133786848073	62	127
410.0171882086168	410.1100680272109	63	127
410.12167800453517	410.19133786848073	60	127
410.19133786848073	410.27260770975056	57	127
410.27260770975056	410.3422675736961	55	127
410.3422675736961	410.3887074829932	54	127
410.3887074829932	410.6673469387755	62	127
410.49319727891157	410.5628571428571	62	127
410.5628571428571	410.6673469387755	59	127
410.67895691609976	410.77183673469386	56	127
410.77183673469386	410.8531065759637	55	127
410.8531065759637	410.94598639455785	53	127
410.9808163265306	411.3871655328798	62	127
411.08530612244897	411.27106575963717	61	127
411.28267573696144	411.3871655328798	58	127
411.3987755102041	411.5148752834467	55	127
411.5148752834467	411.6541950113379	54	127
411.66580498866216	411.75868480725626	52	127
411.75868480725626	412.1185941043084	50	127
411.87478458049884	411.9908843537415	62	127
412.00249433106575	412.1185941043084	57	127
412.1185941043084	412.2114739229025	55	127
412.22308390022675	412.35079365079366	54	127
412.35079365079366	412.4668934240363	52	127
412.47850340136057	413.00095238095236	50	127
412.66426303854877	412.8035827664399	50	127
412.8035827664399	413.00095238095236	45	127
413.0125623582766	413.14027210884353	43	127
413.1518820861678	413.26798185941044	42	127
413.2795918367347	413.39569160997735	40	127
413.39569160997735	415.8221768707483	38	127
413.39569160997735	415.8221768707483	26	127
439.1001814058957	439.378820861678	47	127
439.1001814058957	439.23950113378686	66	127
439.25111111111113	439.3439909297052	67	127
439.378820861678	439.5878004535147	51	127
439.378820861678	439.4949206349206	66	127
439.4949206349206	439.5878004535147	64	127
439.5878004535147	439.79678004535145	59	127
439.5878004535147	439.6806802721088	63	127
439.6922902494331	439.7851700680272	64	127
439.79678004535145	440.0870294784581	54	127
439.79678004535145	439.9477097505669	63	127
439.9477097505669	440.0870294784581	64	127
440.0870294784581	440.3192290249433	47	127
440.0870294784581	440.1915192743764	66	127
440.1915192743764	440.307619047619	67	127
440.3192290249433	440.4004988662131	66	127
440.3192290249433	440.5049886621315	51	127
440.4004988662131	440.5049886621315	64	127
440.5049886621315	440.7604081632653	59	127
440.5049886621315	440.62108843537413	63	127
440.62108843537413	440.74879818594104	64	127
440.7604081632653	440.96938775510205	54	127
440.7604081632653	440.8532879818594	63	127
440.8648979591837	440.96938775510205	64	127
440.96938775510205	441.2015873015873	45	127
440.96938775510205	441.0854875283447	66	127
441.0854875283447	441.1783673469388	67	127
441.2015873015873	441.41056689342406	57	127
441.2015873015873	441.2944671201814	66	127
441.3060770975057	441.41056689342406	67	127
441.41056689342406	441.50344671201816	69	127
441.41056689342406	441.60793650793653	42	127
441.50344671201816	441.60793650793653	71	127
441.60793650793653	441.8285260770975	54	127
441.60793650793653	441.7124263038549	69	127
441.7240362811791	441.8285260770975	71	127
441.8285260770975	442.0375056689342	39	127
441.8285260770975	441.9446258503401	72	127
441.9446258503401	442.0375056689342	71	127
442.0375056689342	442.1419954648526	72	127
442.0375056689342	442.28131519274376	51	127
442.1652154195011	442.2697052154195	71	127
442.28131519274376	442.38580498866213	69	127
442.28131519274376	442.47868480725623	42	127
442.38580498866213	442.47868480725623	67	127
442.47868480725623	442.73410430839004	54	127
442.47868480725623	442.6296145124717	69	127
442.6296145124717	442.73410430839004	67	127
442.7457142857143	442.8502040816326	66	127
442.7457142857143	442.96630385487526	45	127
442.8502040816326	442.96630385487526	67	127
442.96630385487526	443.19850340136054	57	127
442.96630385487526	443.05918367346936	66	127
443.05918367346936	443.18689342403627	67	127
443.19850340136054	443.29138321995464	69	127
443.19850340136054	443.4074829931973	42	127
443.3029931972789	443.4074829931973	71	127
443.4074829931973	443.6280725623583	54	127
443.4074829931973	443.51197278911565	69	127
443.51197278911565	443.616462585034	71	127
443.6280725623583	443.837052154195	38	127
443.6280725623583	443.7209523809524	72	127
443.73256235827665	443.837052154195	71	127
443.837052154195	444.04603174603176	50	127
443.837052154195	443.9415419501134	72	127
443.9415419501134	444.04603174603176	71	127
444.04603174603176	444.23179138321996	42	127
444.04603174603176	444.13891156462586	69	127
444.1505215419501	444.23179138321996	67	127
444.23179138321996	444.4407709750567	54	127
444.23179138321996	444.3362811791383	69	127
444.3362811791383	444.4407709750567	67	127
444.4407709750567	444.7078004535147	45	127
444.4407709750567	444.54526077097506	66	127
444.5917006802721	444.69619047619045	68	127
444.7078004535147	444.7890702947846	66	127
444.7078004535147	444.85873015873017	57	127
444.7890702947846	444.85873015873017	68	127
444.85873015873017	444.96321995464854	69	127
444.85873015873017	445.09092970521544	42	127
444.9748299319728	445.0793197278912	71	127
445.09092970521544	445.2882993197279	54	127
445.09092970521544	445.18380952380954	69	127
445.18380952380954	445.2882993197279	71	127
445.2882993197279	445.3927891156463	72	127
445.2882993197279	445.49727891156465	38	127
445.3927891156463	445.4856689342404	78	127
445.49727891156465	445.601768707483	72	127
445.49727891156465	445.72947845804987	50	127
445.601768707483	445.72947845804987	78	127
445.72947845804987	445.8455782312925	81	127
445.72947845804987	445.9732879818594	36	127
445.8455782312925	445.96167800453514	90	127
445.9732879818594	446.18226757369615	48	127
445.9732879818594	446.0661678004535	81	127
446.0777777777778	446.18226757369615	90	127
446.18226757369615	446.4492970521542	49	127
446.18226757369615	446.2983673469388	80	127
446.18226757369615	446.4492970521542	37	127
446.18226757369615	446.2983673469388	89	127
446.33319727891154	446.4492970521542	86	127
446.46090702947845	446.58861678004536	85	127
446.58861678004536	446.71632653061226	83	127
446.71632653061226	446.77437641723355	81	127
446.7859863945578	446.8556462585034	80	127
446.8556462585034	446.925306122449	78	127
446.93691609977327	446.9833560090703	77	127
446.99496598639456	447.0414058956916	73	127
447.05301587301585	447.1110657596372	73	127
447.12267573696147	447.13428571428574	71	127
447.14589569160995	447.19233560090703	69	127
447.19233560090703	447.22716553287984	68	127
447.2387755102041	447.3432653061225	66	127
447.3548752834467	447.4361451247166	65	127
447.44775510204084	447.50580498866213	62	127
447.50580498866213	447.54063492063494	61	127
447.54063492063494	447.55224489795916	59	127
447.55224489795916	447.6219047619048	57	127
447.6219047619048	447.67995464852606	56	127
447.69156462585033	447.7147845804989	54	127
447.7147845804989	447.77283446712016	53	127
447.77283446712016	447.8424943310658	50	127
447.85410430839005	448.4810430839002	49	127
468.8797732426304	469.08875283446713	61	127
468.8797732426304	469.08875283446713	49	127
469.08875283446713	469.17002267573696	50	127
469.08875283446713	469.21646258503404	62	127
469.21646258503404	469.35578231292516	63	127
469.35578231292516	469.437052154195	38	127
469.35578231292516	469.44866213151926	62	127
469.4602721088435	469.5531519274376	60	127
469.5647619047619	469.6460317460317	58	127
469.6460317460317	469.7505215419501	60	127
469.7505215419501	469.85501133786846	58	127
469.86662131519273	469.98272108843537	60	127
469.99433106575964	470.08721088435374	62	127
469.99433106575964	470.0639909297052	50	127
470.08721088435374	470.2033106575964	63	127
470.2033106575964	470.2961904761905	38	127
470.2033106575964	470.3310204081633	62	127
470.3310204081633	470.4239002267574	60	127
470.43551020408165	470.54	58	127
470.54	470.6444897959184	60	127
470.6444897959184	470.74897959183676	58	127
470.74897959183676	470.8766893424036	60	127
470.8882993197279	470.9695691609977	62	127
470.8882993197279	470.9463492063492	50	127
470.981179138322	471.08566893424035	63	127
471.08566893424035	471.1901587301587	62	127
471.08566893424035	471.1437188208617	38	127
471.1901587301587	471.2946485260771	63	127
471.2946485260771	471.39913832199545	65	127
471.2946485260771	471.3759183673469	50	127
471.4107482993197	471.5036281179138	67	127
471.5036281179138	471.642947845805	65	127
471.5036281179138	471.6081179138322	38	127
471.642947845805	471.7358276643991	67	127
471.7358276643991	471.863537414966	68	127
471.7358276643991	471.8287074829932	50	127
471.8751473922903	471.9680272108844	65	127
471.97963718820864	472.084126984127	68	127
471.97963718820864	472.0492970521542	38	127
472.084126984127	472.1886167800454	65	127
472.1886167800454	472.2931065759637	67	127
472.1886167800454	472.25827664399094	50	127
472.30471655328796	472.39759637188206	63	127
472.43242630385487	472.53691609977324	60	127
472.43242630385487	472.5020861678004	38	127
472.53691609977324	472.6414058956916	55	127
472.6414058956916	472.71106575963717	50	127
472.6414058956916	472.74589569161	69	127
472.74589569161	472.8619954648526	70	127
472.8736054421769	473.012925170068	69	127
472.8736054421769	472.97809523809525	38	127
473.012925170068	473.11741496598637	67	127
473.11741496598637	473.22190476190474	66	127
473.22190476190474	473.3263945578231	67	127
473.34961451247165	473.44249433106575	66	127
473.45410430839	473.5469841269841	67	127
473.5469841269841	473.62825396825394	69	127
473.5469841269841	473.5934240362812	50	127
473.62825396825394	473.7327437641723	70	127
473.7443537414966	473.8604535147392	69	127
473.7443537414966	473.8140136054422	38	127
473.8720634920635	473.9881632653061	67	127
473.9881632653061	474.0926530612245	66	127
474.0926530612245	474.1739229024943	67	127
474.1739229024943	474.2784126984127	66	127
474.29002267573696	474.3712925170068	67	127
474.3712925170068	474.47578231292516	69	127
474.3712925170068	474.44095238095235	50	127
474.47578231292516	474.5918820861678	70	127
474.5918820861678	474.69637188208617	69	127
474.5918820861678	474.67315192743763	38	127
474.70798185941044	474.78925170068027	70	127
474.80086167800454	474.92857142857144	72	127
474.80086167800454	474.8705215419501	50	127
474.92857142857144	475.0330612244898	74	127
475.0330612244898	475.1375510204082	72	127
475.0330612244898	475.1027210884354	38	127
475.1375510204082	475.24204081632655	74	127
475.2536507936508	475.3697505668934	75	127
475.2536507936508	475.3233106575964	50	127
475.3697505668934	475.48585034013604	72	127
475.48585034013604	475.5903401360544	75	127
475.48585034013604	475.55551020408166	38	127
475.5903401360544	475.6948299319728	72	127
475.70643990929705	475.7760997732426	50	127
475.70643990929705	475.79931972789115	74	127
475.8109297052154	475.9154195011338	70	127
475.9154195011338	475.9734693877551	38	127
475.9154195011338	475.9966893424036	67	127
475.9966893424036	476.07795918367344	62	127
476.0895691609977	476.15922902494333	50	127
476.0895691609977	476.1824489795918	76	127
476.1940589569161	476.2869387755102	77	127
476.2869387755102	476.39142857142855	76	127
476.2869387755102	476.3565986394558	38	127
476.39142857142855	476.4959183673469	74	127
476.4959183673469	476.61201814058956	73	127
476.6236281179138	476.73972789115646	74	127
476.73972789115646	476.86743764172337	73	127
476.86743764172337	476.9951473922903	74	127
476.9951473922903	477.0996371882086	76	127
476.9951473922903	477.0764172335601	50	127
477.11124716553286	477.19251700680275	77	127
477.20412698412696	477.2621768707483	38	127
477.20412698412696	477.2970068027211	76	127
477.2970068027211	477.4014965986395	74	127
477.4014965986395	477.50598639455785	73	127
477.51759637188206	477.61047619047616	74	127
477.62208616780043	477.71496598639453	73	127
477.71496598639453	477.8194557823129	74	127
477.8194557823129	477.8891156462585	50	127
477.8194557823129	477.91233560090706	76	127
477.91233560090706	478.02843537414964	77	127
478.0400453514739	478.09809523809525	38	127
478.0400453514739	478.132925170068	76	127
478.132925170068	478.2374149659864	77	127
478.2374149659864	478.34190476190474	79	127
478.2374149659864	478.307074829932	50	127
478.34190476190474	478.4580045351474	81	127
478.46961451247165	478.56249433106575	79	127
478.46961451247165	478.5392743764172	38	127
478.57410430839	478.6785941043084	81	127
478.6785941043084	478.74825396825395	50	127
478.6785941043084	478.78308390022676	82	127
478.78308390022676	478.8875736961451	84	127
478.8875736961451	478.9920634920635	82	127
478.8875736961451	478.96884353741495	38	127
479.00367346938776	479.10816326530613	84	127
479.10816326530613	479.20104308390023	85	127
479.10816326530613	479.1662131519274	50	127
479.20104308390023	479.3055328798186	82	127
479.3055328798186	479.41002267573697	79	127
479.3055328798186	479.38680272108843	38	127
479.42163265306124	479.51451247165534	76	127
479.5261224489796	479.59578231292517	50	127
479.5261224489796	479.64222222222224	78	127
479.64222222222224	479.73510204081634	79	127
479.73510204081634	479.82798185941044	78	127
479.73510204081634	479.79315192743763	38	127
479.8395918367347	479.95569160997735	79	127
479.96730158730156	480.0601814058957	50	127
479.96730158730156	480.09501133786847	81	127
480.09501133786847	480.19950113378684	82	127
480.19950113378684	480.3156009070295	81	127
480.19950113378684	480.28077097505667	38	127
480.3156009070295	480.42009070294785	82	127
480.4317006802721	480.5361904761905	84	127
480.4317006802721	480.5013605442177	50	127
480.5361904761905	480.6290702947846	86	127
480.6290702947846	480.6871201814059	84	127
480.6290702947846	480.6639002267574	38	127
480.6871201814059	480.78	86	127
480.79160997732424	480.88448979591834	87	127
480.79160997732424	480.86126984126986	50	127
480.8960997732426	481.01219954648525	84	127
481.01219954648525	481.08185941043087	38	127
481.01219954648525	481.1166893424036	81	127
481.1166893424036	481.2095691609977	78	127
481.221179138322	481.29083900226755	50	127
481.221179138322	481.3140589569161	80	127
481.32566893424035	481.441768707483	81	127
481.441768707483	481.5694784580499	80	127
481.441768707483	481.51142857142855	38	127
481.5694784580499	481.67396825396827	81	127
481.67396825396827	481.7552380952381	50	127
481.67396825396827	481.77845804988664	83	127
481.7900680272109	481.882947845805	85	127
481.882947845805	481.929387755102	38	127
481.882947845805	481.96421768707484	83	127
481.96421768707484	482.0687074829932	85	127
482.0687074829932	482.13836734693876	50	127
482.0687074829932	482.1615873015873	86	127
482.1731972789116	482.24285714285713	88	127
482.2544671201814	482.35895691609977	86	127
482.2544671201814	482.32412698412696	38	127
482.35895691609977	482.45183673469387	88	127
482.45183673469387	482.52149659863943	50	127
482.45183673469387	482.55632653061224	89	127
482.55632653061224	482.6143764172336	86	127
482.6259863945578	482.73047619047617	83	127
482.6259863945578	482.6956462585034	38	127
482.73047619047617	482.765306122449	80	127
482.765306122449	482.86979591836734	88	127
482.765306122449	482.83496598639454	50	127
482.86979591836734	482.9742857142857	84	127
482.98589569161	483.05555555555554	38	127
482.98589569161	483.0787755102041	79	127
483.09038548752835	483.1948752834467	76	127
483.1948752834467	483.2993650793651	87	127
483.1948752834467	483.2645351473923	50	127
483.2993650793651	483.3806349206349	84	127
483.3922448979592	483.46190476190475	38	127
483.3922448979592	483.4851247165533	81	127
483.4851247165533	483.5663945578231	78	127
483.5663945578231	483.6592743764172	86	127
483.5663945578231	483.62444444444446	50	127
483.6592743764172	483.7521541950113	83	127
483.7521541950113	483.8566439909297	80	127
483.7521541950113	483.8334240362812	38	127
483.86825396825395	483.9727437641723	77	127
483.9727437641723	484.0772335600907	84	127
483.9727437641723	484.04240362811794	50	127
484.0772335600907	484.18172335600906	79	127
484.18172335600906	484.2513832199547	38	127
484.18172335600906	484.27460317460316	76	127
484.2862131519274	484.35587301587304	72	127
484.36748299319726	484.4371428571429	50	127
484.36748299319726	484.4719727891156	82	127
484.4719727891156	484.6112925170068	79	127
484.6112925170068	484.6693424036281	38	127
484.6112925170068	484.7041723356009	75	127
484.71578231292517	484.80866213151927	73	127
484.82027210884354	484.87832199546483	50	127
484.82027210884354	484.91315192743764	70	127
484.91315192743764	485.017641723356	67	127
485.017641723356	485.09891156462584	63	127
485.017641723356	485.0640816326531	38	127
485.09891156462584	485.19179138321994	61	127
485.2034013605442	485.3775510204082	50	127
485.2034013605442	485.2730612244898	58	127
485.3078911564626	485.3775510204082	55	127
485.3775510204082	485.5517006802721	38	127
485.3775510204082	485.4704308390023	51	127
485.4704308390023	485.5517006802721	49	127
485.5633106575964	485.7374603174603	50	127
485.5633106575964	485.6561904761905	58	127
485.66780045351476	485.7374603174603	55	127
485.7374603174603	485.8071201814059	51	127
485.7374603174603	485.91160997732425	38	127
485.8071201814059	485.91160997732425	49	127
485.91160997732425	486.0160997732426	50	127
485.91160997732425	486.0160997732426	26	127
486.0277097505669	486.08575963718823	38	127
486.0277097505669	486.08575963718823	52	127
486.08575963718823	486.17863945578233	54	127
486.08575963718823	486.17863945578233	26	127
486.17863945578233	486.27151927437643	55	127
486.17863945578233	486.27151927437643	38	127
486.27151927437643	486.3760090702948	26	127
486.27151927437643	486.3760090702948	54	127
486.38761904761907	486.44566893424036	55	127
486.38761904761907	486.44566893424036	38	127
486.45727891156463	486.5501587301587	26	127
486.45727891156463	486.5501587301587	57	127
486.5501587301587	486.6546485260771	38	127
486.5501587301587	486.6546485260771	58	127
486.6546485260771	486.7126984126984	57	127
486.6546485260771	486.7126984126984	26	127
486.7126984126984	486.782358276644	38	127
486.7126984126984	486.782358276644	58	127
486.7939682539683	486.8868480725624	26	127
486.7939682539683	486.8868480725624	60	127
486.8868480725624	486.9681179138322	38	127
486.8868480725624	486.9681179138322	62	127
486.9681179138322	487.07260770975057	60	127
486.9681179138322	487.07260770975057	26	127
487.07260770975057	487.0958276643991	62	127
487.07260770975057	487.0958276643991	38	127
487.1074376417234	487.1887074829932	63	127
487.1074376417234	487.1887074829932	26	127
487.1887074829932	487.2931972789116	66	127
487.1887074829932	487.2931972789116	38	127
487.2931972789116	487.39768707482995	26	127
487.2931972789116	487.39768707482995	62	127
487.39768707482995	487.45573696145124	38	127
487.39768707482995	487.45573696145124	63	127
487.4673469387755	487.54861678004534	26	127
487.4673469387755	487.54861678004534	66	127
487.5602267573696	487.6531065759637	38	127
487.5602267573696	487.6531065759637	67	127
487.6531065759637	487.7459863945578	26	127
487.6531065759637	487.7459863945578	66	127
487.7459863945578	487.8504761904762	67	127
487.7459863945578	487.8504761904762	38	127
487.86208616780044	487.9085260770975	69	127
487.86208616780044	487.9085260770975	26	127
487.9201360544218	488.0014058956916	70	127
487.9201360544218	488.0014058956916	38	127
488.0014058956916	488.0942857142857	26	127
488.0014058956916	488.0942857142857	69	127
488.0942857142857	488.17555555555555	38	127
488.0942857142857	488.17555555555555	70	127
488.17555555555555	488.2568253968254	72	127
488.17555555555555	488.2568253968254	26	127
488.26843537414965	488.33809523809526	38	127
488.26843537414965	488.33809523809526	74	127
488.33809523809526	488.372925170068	72	127
488.33809523809526	488.372925170068	26	127
488.372925170068	488.45419501133784	38	127
488.372925170068	488.45419501133784	74	127
488.45419501133784	488.547074829932	75	127
488.45419501133784	488.547074829932	26	127
488.5586848072562	488.6631746031746	38	127
488.5586848072562	488.6631746031746	78	127
488.67478458049885	488.76766439909295	26	127
488.67478458049885	488.7328344671202	74	127
488.76766439909295	488.86054421768705	75	127
488.76766439909295	488.86054421768705	38	127
488.86054421768705	488.93020408163267	78	127
488.86054421768705	488.93020408163267	26	127
488.93020408163267	488.9998639455782	79	127
488.93020408163267	488.9998639455782	38	127
489.0114739229025	489.0927437641723	26	127
489.0114739229025	489.0579138321996	78	127
489.0927437641723	489.1624036281179	38	127
489.0927437641723	489.1624036281179	79	127
489.1624036281179	489.26689342403625	81	127
489.1624036281179	489.26689342403625	26	127
489.26689342403625	489.34816326530614	82	127
489.26689342403625	489.34816326530614	38	127
489.3597732426304	489.42943310657597	81	127
489.3597732426304	489.4526530612245	26	127
489.4642630385488	489.56875283446715	38	127
489.4642630385488	489.56875283446715	82	127
489.56875283446715	489.67324263038546	84	127
489.56875283446715	489.67324263038546	26	127
489.67324263038546	489.71968253968254	38	127
489.67324263038546	489.71968253968254	86	127
489.7312925170068	489.7777324263038	84	127
489.7312925170068	489.7893424036281	26	127
489.80095238095237	489.870612244898	38	127
489.80095238095237	489.870612244898	86	127
489.870612244898	489.9634920634921	26	127
489.870612244898	489.9634920634921	87	127
489.9634920634921	490.0447619047619	90	127
489.9634920634921	490.0447619047619	38	127
490.0447619047619	490.1492517006803	26	127
490.0447619047619	490.12603174603174	84	127
490.16086167800455	490.2653514739229	38	127
490.16086167800455	490.2653514739229	86	127
490.2653514739229	490.358231292517	87	127
490.2653514739229	490.358231292517	26	127
490.358231292517	490.4627210884354	90	127
490.358231292517	490.4627210884354	38	127
490.4627210884354	490.53238095238095	84	127
490.4627210884354	490.5556009070295	26	127
490.56721088435376	490.66009070294785	86	127
490.56721088435376	490.66009070294785	38	127
490.6717006802721	490.7413605442177	87	127
490.6717006802721	490.7413605442177	26	127
490.7413605442177	490.8342403628118	90	127
490.7413605442177	490.8342403628118	38	127
490.8342403628118	490.93873015873015	26	127
490.8342403628118	490.90390022675734	84	127
490.9503401360544	491.03160997732425	86	127
490.9503401360544	491.03160997732425	38	127
491.03160997732425	491.07804988662133	87	127
491.03160997732425	491.07804988662133	26	127
491.07804988662133	491.1709297052154	90	127
491.07804988662133	491.1709297052154	38	127
491.1709297052154	491.2638095238095	26	127
491.1709297052154	491.2289795918367	84	127
491.2638095238095	491.3566893424036	38	127
491.2638095238095	491.3566893424036	86	127
491.3682993197279	491.47278911564626	87	127
491.3682993197279	491.47278911564626	26	127
491.47278911564626	491.57727891156463	90	127
491.47278911564626	491.57727891156463	38	127
491.57727891156463	491.902358276644	31	127
491.57727891156463	491.902358276644	38	127
491.57727891156463	491.8675283446712	86	127
491.57727891156463	491.8675283446712	91	127
491.57727891156463	491.8675283446712	82	127
491.57727891156463	491.8675283446712	79	127
491.57727891156463	491.902358276644	43	127
491.8675283446712	491.9604081632653	67	127
491.9604081632653	492.0068480725624	50	127
491.9604081632653	492.0068480725624	43	127
491.9604081632653	492.2158276643991	70	127
491.9604081632653	492.2158276643991	62	127
492.1461678004535	492.1926077097506	55	127
492.2158276643991	492.3203174603175	70	127
492.3203174603175	492.35514739229023	50	127
492.3203174603175	492.35514739229023	43	127
492.3203174603175	492.35514739229023	60	127
492.3203174603175	492.35514739229023	69	127
492.43641723356006	492.4596371882086	58	127
492.43641723356006	492.4596371882086	67	127
492.43641723356006	492.4596371882086	55	127
492.57573696145124	492.6337868480726	66	127
492.57573696145124	492.6337868480726	50	127
492.57573696145124	492.6337868480726	57	127
492.57573696145124	492.6337868480726	43	127
492.7731065759637	492.83115646258506	55	127
492.7731065759637	492.83115646258506	67	127
492.7731065759637	492.83115646258506	58	127
492.9704761904762	493.051746031746	43	127
492.9704761904762	493.29555555555555	74	127
492.9704761904762	493.29555555555555	62	127
492.9704761904762	493.29555555555555	66	127
492.9704761904762	493.051746031746	50	127
493.1794557823129	493.22589569161	55	127
493.35360544217684	493.5974149659864	66	127
493.35360544217684	493.4116553287982	50	127
493.35360544217684	493.5974149659864	69	127
493.35360544217684	493.4116553287982	43	127
493.35360544217684	493.5974149659864	62	127
493.55097505668937	493.57419501133785	55	127
493.5974149659864	493.6786848072562	62	127
493.6786848072562	493.93410430839003	67	127
493.6786848072562	493.74834467120183	50	127
493.6786848072562	493.93410430839003	58	127
493.6786848072562	493.74834467120183	43	127
493.8760544217687	493.92249433106576	55	127
493.9457142857143	494.0385941043084	67	127
494.0385941043084	494.29401360544216	62	127
494.0385941043084	494.15469387755104	50	127
494.0385941043084	494.29401360544216	70	127
494.0385941043084	494.15469387755104	43	127
494.24757369614514	494.2824036281179	55	127
494.29401360544216	494.3520634920635	70	127
494.3520634920635	494.37528344671205	43	127
494.3520634920635	494.37528344671205	69	127
494.3520634920635	494.37528344671205	50	127
494.3520634920635	494.37528344671205	60	127
494.4913832199546	494.56104308390024	67	127
494.4913832199546	494.56104308390024	55	127
494.4913832199546	494.56104308390024	58	127
494.6655328798186	494.7235827664399	57	127
494.6655328798186	494.7235827664399	66	127
494.6655328798186	494.7235827664399	43	127
494.6655328798186	494.7235827664399	50	127
494.80485260770973	494.83968253968254	58	127
494.80485260770973	494.83968253968254	55	127
494.80485260770973	494.83968253968254	67	127
494.96739229024945	495.02544217687074	55	127
494.96739229024945	495.02544217687074	62	127
494.96739229024945	495.02544217687074	70	127
494.96739229024945	495.02544217687074	74	127
494.96739229024945	495.02544217687074	43	127
495.11832199546484	495.1763718820862	64	127
495.11832199546484	495.1763718820862	40	127
495.11832199546484	495.1763718820862	76	127
495.11832199546484	495.1763718820862	73	127
495.11832199546484	495.1763718820862	52	127
495.28086167800456	495.5827210884354	78	127
495.28086167800456	495.5827210884354	66	127
495.28086167800456	495.5827210884354	74	127
495.28086167800456	495.33891156462585	50	127
495.28086167800456	495.33891156462585	38	127
495.46662131519275	495.5362811791383	36	127
495.46662131519275	495.5362811791383	48	127
495.6407709750567	495.69882086167803	46	127
495.6407709750567	495.90780045351477	70	127
495.6407709750567	495.90780045351477	79	127
495.6407709750567	495.69882086167803	34	127
495.6407709750567	495.90780045351477	67	127
495.6407709750567	495.90780045351477	74	127
495.8149206349206	495.8613605442177	45	127
495.8149206349206	495.8613605442177	33	127
495.96585034013606	496.2328798185941	82	127
495.96585034013606	496.0355102040816	31	127
495.96585034013606	496.0355102040816	43	127
495.96585034013606	496.2328798185941	70	127
495.96585034013606	496.2328798185941	74	127
496.14	496.2096598639456	43	127
496.24448979591835	496.27931972789116	82	127
496.27931972789116	496.3257596371882	72	127
496.27931972789116	496.3257596371882	81	127
496.27931972789116	496.3257596371882	31	127
496.4418594104308	496.4882993197279	43	127
496.4418594104308	496.4882993197279	70	127
496.4418594104308	496.4882993197279	79	127
496.6160090702948	496.6392290249433	31	127
496.6160090702948	496.6392290249433	78	127
496.6160090702948	496.6392290249433	69	127
496.7204988662132	496.77854875283447	79	127
496.7204988662132	496.77854875283447	70	127
496.7204988662132	496.77854875283447	43	127
496.87142857142857	497.19650793650794	86	127
496.87142857142857	497.19650793650794	78	127
496.87142857142857	497.19650793650794	74	127
496.87142857142857	496.9410884353741	31	127
497.0804081632653	497.1384580498866	43	127
497.2661678004535	497.55641723356007	69	127
497.2661678004535	497.55641723356007	81	127
497.2661678004535	497.3358276643991	31	127
497.2661678004535	497.55641723356007	78	127
497.4403174603175	497.4867573696145	43	127
497.60285714285715	497.8582766439909	79	127
497.60285714285715	497.66090702947844	31	127
497.60285714285715	497.8582766439909	70	127
497.60285714285715	497.8582766439909	74	127
497.60285714285715	497.8582766439909	67	127
497.7653968253968	497.8002267573696	43	127
497.9279365079365	497.9627664399093	31	127
497.9279365079365	498.19496598639455	79	127
497.9279365079365	498.19496598639455	70	127
497.9279365079365	498.19496598639455	82	127
497.9279365079365	498.19496598639455	74	127
498.10208616780045	498.171746031746	43	127
498.2065759637188	498.28784580498865	82	127
498.28784580498865	498.3342857142857	81	127
498.28784580498865	498.3342857142857	72	127
498.28784580498865	498.3342857142857	31	127
498.45038548752837	498.50843537414966	43	127
498.45038548752837	498.50843537414966	79	127
498.45038548752837	498.50843537414966	70	127
498.6245351473923	498.6709750566893	69	127
498.6245351473923	498.6709750566893	31	127
498.6245351473923	498.6709750566893	78	127
498.7986848072562	498.85673469387757	70	127
498.7986848072562	498.85673469387757	79	127
498.7986848072562	498.85673469387757	43	127
498.9380045351474	498.9728344671202	82	127
498.9380045351474	498.9728344671202	43	127
498.9380045351474	498.9728344671202	74	127
498.9380045351474	498.9728344671202	86	127
498.9380045351474	498.9728344671202	55	127
499.01927437641723	499.0773242630386	76	127
499.01927437641723	499.0773242630386	40	127
499.01927437641723	499.0773242630386	52	127
499.01927437641723	499.0773242630386	85	127
499.01927437641723	499.0773242630386	88	127
499.2166439909297	499.448843537415	86	127
499.2166439909297	499.27469387755104	50	127
499.2166439909297	499.448843537415	90	127
499.2166439909297	499.27469387755104	38	127
499.2166439909297	499.448843537415	78	127
499.4024036281179	499.448843537415	48	127
499.4024036281179	499.448843537415	36	127
499.51850340136053	499.68104308390025	46	127
499.51850340136053	499.7855328798186	79	127
499.51850340136053	499.68104308390025	34	127
499.51850340136053	499.7855328798186	91	127
499.51850340136053	499.7855328798186	87	127
499.68104308390025	499.8435827664399	63	127
499.68104308390025	499.8435827664399	67	127
499.8435827664399	499.9016326530612	86	127
499.8435827664399	499.9016326530612	77	127
499.8435827664399	499.9016326530612	89	127
499.8435827664399	499.9829024943311	58	127
499.9016326530612	499.9829024943311	91	127
499.9829024943311	500.0990022675737	65	127
499.9829024943311	500.0990022675737	62	127
500.0990022675737	500.42408163265304	87	127
500.0990022675737	500.2847619047619	46	127
500.0990022675737	500.42408163265304	84	127
500.0990022675737	500.42408163265304	75	127
500.2847619047619	500.4821315192744	60	127
500.2847619047619	500.4821315192744	63	127
500.4821315192744	500.7491609977324	82	127
500.4821315192744	500.7491609977324	86	127
500.4821315192744	500.7491609977324	74	127
500.4821315192744	500.6562811791383	46	127
500.6562811791383	500.80721088435376	62	127
500.6562811791383	500.80721088435376	58	127
500.818820861678	500.91170068027213	72	127
500.818820861678	500.91170068027213	81	127
500.818820861678	501.00458049886623	46	127
500.818820861678	500.91170068027213	84	127
500.91170068027213	501.00458049886623	86	127
501.00458049886623	501.039410430839	72	127
501.00458049886623	501.039410430839	84	127
501.00458049886623	501.039410430839	81	127
501.00458049886623	501.1090702947846	57	127
501.00458049886623	501.1090702947846	60	127
501.1090702947846	501.27160997732426	46	127
501.1090702947846	501.1671201814059	82	127
501.1090702947846	501.1671201814059	70	127
501.1090702947846	501.1671201814059	79	127
501.27160997732426	501.3412698412698	75	127
501.27160997732426	501.3412698412698	67	127
501.27160997732426	501.45736961451246	58	127
501.27160997732426	501.45736961451246	55	127
501.27160997732426	501.3412698412698	79	127
501.4689795918367	501.67795918367347	89	127
501.4689795918367	501.67795918367347	80	127
501.4689795918367	501.6199092970522	34	127
501.4689795918367	501.67795918367347	92	127
501.6199092970522	501.72439909297054	46	127
501.72439909297054	501.8288888888889	79	127
501.72439909297054	501.8288888888889	91	127
501.72439909297054	501.921768707483	34	127
501.72439909297054	501.8288888888889	87	127
501.8288888888889	501.921768707483	92	127
501.921768707483	501.9798185941043	91	127
501.921768707483	502.09591836734694	46	127
501.921768707483	501.9798185941043	87	127
501.921768707483	501.9798185941043	79	127
502.1075283446712	502.2120181405896	34	127
502.1075283446712	502.28167800453514	86	127
502.1075283446712	502.28167800453514	77	127
502.1075283446712	502.28167800453514	89	127
502.22362811791385	502.3513378684807	46	127
502.3513378684807	502.6648072562358	94	127
502.3513378684807	502.6648072562358	91	127
502.3513378684807	502.6648072562358	82	127
502.3513378684807	502.53709750566895	34	127
502.53709750566895	502.72285714285715	46	127
502.7344671201814	502.8273469387755	89	127
502.7344671201814	502.90861678004535	34	127
502.7344671201814	502.8273469387755	80	127
502.7344671201814	502.8273469387755	92	127
502.8273469387755	502.9202267573696	94	127
502.9202267573696	503.0827664399093	46	127
502.9202267573696	502.9782766439909	92	127
502.9202267573696	502.9782766439909	80	127
502.9202267573696	502.9782766439909	89	127
503.0827664399093	503.1988662131519	34	127
503.0827664399093	503.31496598639455	87	127
503.0827664399093	503.31496598639455	91	127
503.0827664399093	503.31496598639455	79	127
503.1988662131519	503.37301587301585	46	127
503.37301587301585	503.62843537414966	100	127
503.37301587301585	503.5587755102041	33	127
503.37301587301585	503.62843537414966	88	127
503.5587755102041	503.67487528344674	45	127
503.67487528344674	503.75614512471657	98	127
503.67487528344674	503.75614512471657	86	127
503.67487528344674	503.84902494331067	33	127
503.75614512471657	503.84902494331067	100	127
503.84902494331067	503.9883446712018	45	127
503.84902494331067	503.86063492063494	98	127
503.84902494331067	503.86063492063494	86	127
503.9883446712018	504.2902040816327	97	127
503.9883446712018	504.2902040816327	85	127
503.9883446712018	504.1624943310658	33	127
504.1624943310658	504.34825396825397	45	127
504.35986394557824	504.41791383219953	94	127
504.35986394557824	504.49918367346936	33	127
504.35986394557824	504.41791383219953	82	127
504.41791383219953	504.49918367346936	96	127
504.49918367346936	504.5572335600907	94	127
504.49918367346936	504.5572335600907	82	127
504.49918367346936	504.6617233560091	45	127
504.6617233560091	504.98680272108845	81	127
504.6617233560091	504.98680272108845	93	127
504.6617233560091	504.8474829931973	33	127
504.8474829931973	505.04485260770974	45	127
505.056462585034	505.1493424036281	91	127
505.056462585034	505.1493424036281	79	127
505.056462585034	505.23061224489794	33	127
505.1493424036281	505.23061224489794	93	127
505.23061224489794	505.4047619047619	45	127
505.23061224489794	505.30027210884356	91	127
505.23061224489794	505.30027210884356	79	127
505.4047619047619	505.4279818594104	89	127
505.4047619047619	505.4279818594104	33	127
505.4047619047619	505.4279818594104	77	127
505.5556916099773	505.61374149659866	91	127
505.5556916099773	505.61374149659866	79	127
505.5556916099773	505.61374149659866	45	127
505.72984126984124	505.7762811791383	33	127
505.72984126984124	505.7762811791383	93	127
505.72984126984124	505.7762811791383	81	127
505.8343310657596	505.85755102040815	94	127
505.8343310657596	505.85755102040815	82	127
505.8343310657596	505.85755102040815	45	127
505.98526077097506	506.0317006802721	33	127
505.98526077097506	506.0317006802721	93	127
505.98526077097506	506.0317006802721	81	127
506.11297052154197	506.17102040816326	45	127
506.11297052154197	506.17102040816326	91	127
506.11297052154197	506.17102040816326	79	127
506.2871201814059	506.3451700680272	89	127
506.2871201814059	506.3451700680272	77	127
506.2871201814059	506.3451700680272	33	127
506.4728798185941	506.5193197278912	88	127
506.4728798185941	506.5193197278912	45	127
506.4728798185941	506.5193197278912	76	127
506.62380952380954	506.68185941043083	77	127
506.62380952380954	506.68185941043083	33	127
506.62380952380954	506.68185941043083	89	127
506.76312925170066	506.80956916099774	91	127
506.76312925170066	506.80956916099774	45	127
506.76312925170066	506.80956916099774	79	127
506.9256689342404	506.98371882086167	81	127
506.9256689342404	506.98371882086167	93	127
506.9256689342404	506.98371882086167	33	127
507.08820861678004	507.1346485260771	45	127
507.08820861678004	507.1346485260771	94	127
507.08820861678004	507.1346485260771	82	127
507.2043083900227	507.27396825396823	93	127
507.2043083900227	507.27396825396823	81	127
507.2043083900227	507.27396825396823	26	127
507.36684807256233	507.43650793650795	79	127
507.36684807256233	507.43650793650795	91	127
507.36684807256233	507.43650793650795	38	127
507.5409977324263	507.57582766439907	26	127
507.5409977324263	507.57582766439907	89	127
507.5409977324263	507.57582766439907	77	127
507.65709750566896	507.703537414966	88	127
507.65709750566896	507.703537414966	76	127
507.65709750566896	507.703537414966	38	127
507.7964172335601	507.8660770975057	26	127
507.7964172335601	507.8660770975057	77	127
507.7964172335601	507.8660770975057	89	127
507.9589569160998	508.0053968253968	38	127
507.9589569160998	508.0053968253968	91	127
507.9589569160998	508.0053968253968	79	127
508.1098866213152	508.17954648526074	81	127
508.1098866213152	508.17954648526074	26	127
508.1098866213152	508.17954648526074	93	127
508.2956462585034	508.365306122449	94	127
508.2956462585034	508.365306122449	38	127
508.2956462585034	508.365306122449	82	127
508.46979591836737	508.5046258503401	26	127
508.46979591836737	508.5046258503401	96	127
508.46979591836737	508.5046258503401	84	127
508.62072562358276	508.6787755102041	38	127
508.62072562358276	508.6787755102041	86	127
508.62072562358276	508.6787755102041	98	127
508.7948752834467	508.8297052154195	26	127
508.7948752834467	508.8297052154195	100	127
508.7948752834467	508.8297052154195	88	127
508.9574149659864	508.98063492063494	38	127
508.9574149659864	508.98063492063494	102	127
508.9574149659864	508.98063492063494	90	127
509.11995464852606	509.31732426303853	31	127
509.11995464852606	509.31732426303853	43	127
509.11995464852606	509.31732426303853	103	127
509.11995464852606	509.31732426303853	91	127
509.11995464852606	509.31732426303853	94	127
509.468253968254	509.75850340136054	58	127
509.468253968254	509.75850340136054	46	127
509.468253968254	509.75850340136054	70	127
509.468253968254	509.75850340136054	34	127
509.8049433106576	509.9674829931973	69	127
509.8049433106576	509.9674829931973	33	127
509.8049433106576	509.9674829931973	45	127
509.9674829931973	510.0603628117914	31	127
509.9674829931973	510.0603628117914	43	127
509.9674829931973	510.0603628117914	67	127
510.0603628117914	510.2345124716553	30	127
510.0603628117914	510.2345124716553	42	127
510.0603628117914	510.2345124716553	66	127
510.2345124716553	510.397052154195	43	127
510.2345124716553	510.397052154195	31	127
510.2345124716553	510.397052154195	67	127
510.397052154195	510.5479818594104	75	127
510.397052154195	510.5479818594104	39	127
510.5479818594104	510.69891156462586	37	127
510.5479818594104	510.69891156462586	73	127
510.69891156462586	510.8730612244898	38	127
510.69891156462586	510.8730612244898	74	127
510.8730612244898	510.9891609977324	81	127
510.8730612244898	510.9891609977324	45	127
510.9891609977324	511.1400907029479	42	127
510.9891609977324	511.1400907029479	78	127
511.1400907029479	511.2678004535147	79	127
511.1400907029479	511.2678004535147	43	127
511.2678004535147	511.41873015873017	51	127
511.2678004535147	511.41873015873017	87	127
511.43034013605444	511.60448979591837	49	127
511.43034013605444	511.60448979591837	85	127
511.61609977324264	511.7554195011338	50	127
511.61609977324264	511.7554195011338	86	127
511.7554195011338	511.9063492063492	57	127
511.7554195011338	511.9063492063492	93	127
511.9063492063492	512.0224263038549	90	127
511.9063492063492	512.0224263038549	54	127
512.0224263038549	512.1965986394558	91	127
512.0224263038549	512.1965986394558	55	127
512.2082086167801	512.3243083900227	96	127
512.2082086167801	512.3243083900227	60	127
512.3243083900227	512.4171882086168	57	127
512.3243083900227	512.4171882086168	93	127
512.4171882086168	512.5448979591837	58	127
512.4171882086168	512.5448979591837	94	127
512.5448979591837	512.7306575963719	63	127
512.5448979591837	512.7306575963719	99	127
512.7306575963719	512.869977324263	97	127
512.7306575963719	512.869977324263	61	127
512.869977324263	513.0209070294785	98	127
512.869977324263	513.0209070294785	62	127
513.0209070294785	513.1834467120182	67	127
513.0209070294785	513.1834467120182	91	127
513.0209070294785	513.1834467120182	103	127
513.1950566893424	513.3459863945578	98	127
513.1950566893424	513.3459863945578	62	127
513.3459863945578	513.438866213152	103	127
513.3459863945578	513.438866213152	91	127
513.3459863945578	513.438866213152	67	127
513.4504535147393	513.6130158730159	98	127
513.4504535147393	513.6130158730159	62	127
513.6130158730159	513.7175056689342	91	127
513.6130158730159	513.7175056689342	67	127
513.6130158730159	513.7175056689342	103	127
513.7175056689342	513.8800453514739	62	127
513.7175056689342	513.8800453514739	98	127
513.8916553287982	513.9961451247166	67	127
513.8916553287982	513.9961451247166	103	127
513.8916553287982	513.9961451247166	91	127
514.3096145124716	514.4721315192744	57	127
514.3096145124716	514.4721315192744	81	127
514.3096145124716	514.4721315192744	78	127
514.3096145124716	514.4721315192744	54	127
514.3096145124716	514.4721315192744	62	127
514.3096145124716	514.4721315192744	74	127
514.3096145124716	514.4721315192744	50	127
514.3096145124716	514.4721315192744	86	127
514.4721315192744	514.5418140589569	79	127
514.4721315192744	514.5418140589569	55	127
514.4721315192744	514.5418140589569	62	127
514.4721315192744	514.5418140589569	58	127
514.4721315192744	514.5418140589569	86	127
514.4721315192744	514.5418140589569	67	127
514.4721315192744	514.5418140589569	82	127
514.4721315192744	514.5418140589569	91	127
514.901723356009	515.0178231292517	81	127
514.901723356009	515.0178231292517	57	127
514.901723356009	515.0178231292517	74	127
514.901723356009	515.0178231292517	86	127
514.901723356009	515.0178231292517	62	127
514.901723356009	515.0178231292517	54	127
514.901723356009	515.0178231292517	78	127
514.901723356009	515.0178231292517	50	127
515.0178231292517	515.1803628117914	86	127
515.0178231292517	515.1803628117914	62	127
515.0178231292517	515.1803628117914	58	127
515.0178231292517	515.1803628117914	82	127
515.0178231292517	515.1803628117914	67	127
515.0178231292517	515.1803628117914	91	127
515.0178231292517	515.1803628117914	55	127
515.0178231292517	515.1803628117914	79	127
515.5054195011338	515.563492063492	42	127
515.5054195011338	515.563492063492	38	127
515.5054195011338	515.563492063492	74	127
515.5054195011338	515.563492063492	69	127
515.5054195011338	515.563492063492	62	127
515.5054195011338	515.563492063492	50	127
515.5054195011338	515.563492063492	66	127
515.5054195011338	515.563492063492	45	127
515.563492063492	515.7143990929706	74	127
515.563492063492	515.7143990929706	50	127
515.563492063492	515.7143990929706	43	127
515.563492063492	515.7143990929706	55	127
515.563492063492	515.7143990929706	70	127
515.563492063492	515.7143990929706	79	127
515.563492063492	515.7143990929706	46	127
515.563492063492	515.7143990929706	67	127
516.085941043084	516.2833106575964	42	127
516.085941043084	516.2833106575964	45	127
516.085941043084	516.2833106575964	38	127
516.085941043084	516.2833106575964	74	127
516.085941043084	516.2833106575964	62	127
516.085941043084	516.2833106575964	50	127
516.085941043084	516.2833106575964	66	127
516.085941043084	516.2833106575964	69	127
516.2833106575964	518.11768707483	55	127
516.2833106575964	518.11768707483	67	127
516.2833106575964	518.11768707483	70	127
516.2833106575964	518.11768707483	74	127
516.2833106575964	518.11768707483	43	127
516.2833106575964	518.11768707483	46	127
516.2833106575964	518.11768707483	50	127
516.2833106575964	518.11768707483	79	127
518.11768707483	518.4543764172336	55	127
518.11768707483	518.4543764172336	43	127
518.11768707483	518.4543764172336	31	127
529.5302947845805	529.8205215419501	43	127
