# onset,offset,note,velocity
0.034058956916099774	0.9164172335600907	62	127
0.034058956916099774	0.9164172335600907	63	127
0.9164172335600907	0.997687074829932	43	127
0.9164172335600907	1.2298866213151927	67	127
0.9164172335600907	0.997687074829932	50	127
0.9164172335600907	1.2298866213151927	58	127
1.1370068027210884	1.2066666666666668	55	127
1.2414965986394557	1.3575963718820863	67	127
1.2414965986394557	1.3575963718820863	67	127
1.3575963718820863	1.4272562358276644	55	127
1.3575963718820863	1.6594557823129252	70	127
1.3575963718820863	1.6594557823129252	62	127
1.60140589569161	1.6478458049886622	55	127
1.6710657596371883	1.7639455782312925	70	127
1.6710657596371883	1.7639455782312925	62	127
1.7639455782312925	1.8336054421768708	69	127
1.7639455782312925	1.8336054421768708	60	127
1.7639455782312925	1.8336054421768708	43	127
1.7639455782312925	1.8336054421768708	50	127
1.9729251700680273	2.0541950113378684	67	127
1.9729251700680273	2.0541950113378684	58	127
1.9729251700680273	2.0541950113378684	55	127
2.147074829931973	2.193514739229025	66	127
2.147074829931973	2.193514739229025	57	127
2.147074829931973	2.193514739229025	55	127
2.309614512471655	2.3908843537414968	67	127
2.309614512471655	2.3908843537414968	58	127
2.309614512471655	2.3908843537414968	55	127
2.495374149659864	2.8668934240362813	66	127
2.495374149659864	2.8668934240362813	74	127
2.495374149659864	2.8668934240362813	57	127
2.495374149659864	2.5882539682539685	43	127
2.495374149659864	2.5882539682539685	50	127
2.715963718820862	2.797233560090703	55	127
2.9133333333333336	2.9713832199546486	55	127
2.9133333333333336	3.122312925170068	66	127
2.9133333333333336	3.122312925170068	69	127
2.9133333333333336	3.122312925170068	62	127
3.0294331065759637	3.099092970521542	55	127
3.133922902494331	3.2384126984126986	62	127
3.133922902494331	3.2384126984126986	62	127
3.2384126984126986	3.2964625850340137	43	127
3.2384126984126986	3.2964625850340137	50	127
3.2384126984126986	3.4938321995464854	67	127
3.2384126984126986	3.4938321995464854	58	127
3.447392290249433	3.459002267573696	55	127
3.4938321995464854	3.5867120181405894	67	127
3.4938321995464854	3.5867120181405894	67	127
3.5867120181405894	3.644761904761905	55	127
3.5867120181405894	3.749251700680272	70	127
3.5867120181405894	3.749251700680272	62	127
3.749251700680272	3.807301587301587	70	127
3.749251700680272	3.807301587301587	62	127
3.807301587301587	3.888571428571429	69	127
3.807301587301587	3.888571428571429	60	127
3.807301587301587	3.888571428571429	43	127
3.807301587301587	3.888571428571429	50	127
4.027891156462585	4.0859410430839	67	127
4.027891156462585	4.0859410430839	58	127
4.027891156462585	4.0859410430839	55	127
4.190430839002268	4.248458049886621	66	127
4.190430839002268	4.248458049886621	57	127
4.190430839002268	4.248458049886621	55	127
4.376190476190477	4.4458503401360545	55	127
4.376190476190477	4.4458503401360545	67	127
4.376190476190477	4.4458503401360545	58	127
4.527120181405896	4.561950113378685	70	127
4.527120181405896	4.561950113378685	43	127
4.527120181405896	4.561950113378685	55	127
4.527120181405896	4.561950113378685	74	127
4.678049886621316	4.724467120181406	67	127
4.678049886621316	4.724467120181406	76	127
4.678049886621316	4.724467120181406	61	127
4.678049886621316	4.724467120181406	52	127
4.852199546485261	4.910249433106576	50	127
4.852199546485261	5.130839002267574	69	127
4.852199546485261	5.130839002267574	78	127
4.852199546485261	5.130839002267574	62	127
5.0495691609977325	5.096009070294785	48	127
5.130839002267574	5.212108843537415	74	127
5.130839002267574	5.212108843537415	62	127
5.212108843537415	5.27015873015873	46	127
5.212108843537415	5.513968253968254	79	127
5.212108843537415	5.513968253968254	58	127
5.397868480725624	5.479138321995465	45	127
5.513968253968254	5.6184580498866215	79	127
5.513968253968254	5.6184580498866215	67	127
5.6184580498866215	5.688117913832199	43	127
5.6184580498866215	5.8854875283446715	82	127
5.6184580498866215	5.8854875283446715	62	127
5.80421768707483	5.850634920634921	43	127
5.897074829931973	5.943537414965986	82	127
5.897074829931973	5.943537414965986	62	127
5.943537414965986	6.013197278911565	81	127
5.943537414965986	6.013197278911565	60	127
5.943537414965986	6.013197278911565	43	127
5.943537414965986	6.013197278911565	50	127
6.117687074829932	6.1873469387755105	79	127
6.117687074829932	6.1873469387755105	58	127
6.117687074829932	6.1873469387755105	55	127
6.3034467120181406	6.373106575963718	78	127
6.3034467120181406	6.373106575963718	57	127
6.3034467120181406	6.373106575963718	55	127
6.465986394557823	6.512426303854875	79	127
6.465986394557823	6.512426303854875	58	127
6.465986394557823	6.512426303854875	55	127
6.6401360544217685	6.698185941043084	43	127
6.6401360544217685	6.698185941043084	50	127
6.6401360544217685	6.953605442176871	86	127
6.6401360544217685	6.953605442176871	57	127
6.814285714285714	6.895555555555555	55	127
7.034875283446712	7.116145124716553	55	127
7.034875283446712	7.232244897959184	81	127
7.034875283446712	7.232244897959184	62	127
7.162585034013605	7.2090249433106575	55	127
7.243854875283446	7.359954648526077	74	127
7.243854875283446	7.359954648526077	62	127
7.359954648526077	7.429614512471655	43	127
7.359954648526077	7.429614512471655	50	127
7.359954648526077	7.661814058956916	79	127
7.359954648526077	7.661814058956916	58	127
7.568934240362812	7.63859410430839	55	127
7.661814058956916	7.731473922902494	67	127
7.661814058956916	7.731473922902494	79	127
7.731473922902494	7.78952380952381	55	127
7.731473922902494	7.975283446712018	82	127
7.731473922902494	7.975283446712018	62	127
7.894013605442177	7.940453514739229	55	127
7.975283446712018	8.05655328798186	82	127
7.975283446712018	8.05655328798186	62	127
8.05655328798186	8.126213151927438	81	127
8.05655328798186	8.126213151927438	60	127
8.05655328798186	8.126213151927438	43	127
8.05655328798186	8.126213151927438	50	127
8.242312925170069	8.323582766439909	79	127
8.242312925170069	8.323582766439909	58	127
8.242312925170069	8.323582766439909	55	127
8.462902494331066	8.509342403628118	78	127
8.462902494331066	8.509342403628118	57	127
8.462902494331066	8.509342403628118	55	127
8.625442176870749	8.695102040816327	79	127
8.625442176870749	8.695102040816327	58	127
8.625442176870749	8.695102040816327	55	127
8.799591836734693	8.82281179138322	86	127
8.799591836734693	8.82281179138322	70	127
8.799591836734693	8.82281179138322	43	127
8.799591836734693	8.82281179138322	55	127
8.892471655328798	8.915691609977324	88	127
8.892471655328798	8.915691609977324	61	127
8.892471655328798	8.915691609977324	52	127
9.043401360544218	9.089818594104308	50	127
9.043401360544218	9.287210884353742	90	127
9.043401360544218	9.287210884353742	62	127
9.194331065759638	9.275600907029478	48	127
9.333650793650794	9.403310657596371	46	127
9.333650793650794	9.612290249433107	91	127
9.333650793650794	9.612290249433107	63	127
9.333650793650794	9.612290249433107	75	127
9.519410430839002	9.600657596371882	58	127
9.693537414965986	9.77482993197279	46	127
9.693537414965986	9.809659863945578	89	127
9.693537414965986	9.809659863945578	74	127
9.809659863945578	9.867709750566894	91	127
9.809659863945578	9.867709750566894	75	127
9.867709750566894	9.925759637188209	89	127
9.867709750566894	9.925759637188209	74	127
9.867709750566894	9.925759637188209	58	127
10.041836734693877	10.111519274376418	46	127
10.041836734693877	10.15795918367347	87	127
10.041836734693877	10.413378684807256	72	127
10.285668934240363	10.343718820861678	58	127
10.45981859410431	10.529478458049887	46	127
10.45981859410431	10.564308390022676	86	127
10.45981859410431	10.73845804988662	70	127
10.645555555555555	10.65718820861678	58	127
10.784897959183674	10.84294784580499	46	127
10.784897959183674	10.877777777777778	84	127
10.784897959183674	10.877777777777778	69	127
10.877777777777778	10.959047619047618	86	127
10.877777777777778	10.959047619047618	70	127
10.959047619047618	11.04031746031746	84	127
10.959047619047618	11.04031746031746	69	127
10.959047619047618	11.04031746031746	58	127
11.179637188208616	11.260907029478458	82	127
11.179637188208616	11.260907029478458	67	127
11.179637188208616	11.260907029478458	46	127
11.353786848072563	11.42344671201814	79	127
11.353786848072563	11.42344671201814	63	127
11.353786848072563	11.42344671201814	58	127
11.504716553287983	11.57437641723356	45	127
11.504716553287983	11.80657596371882	69	127
11.504716553287983	11.80657596371882	91	127
11.504716553287983	11.80657596371882	64	127
11.504716553287983	11.80657596371882	76	127
11.736916099773243	11.794965986394558	57	127
11.876235827664399	11.945895691609977	45	127
11.876235827664399	11.969115646258503	89	127
11.876235827664399	11.969115646258503	74	127
11.876235827664399	12.085215419501134	69	127
11.969115646258503	12.038775510204081	91	127
11.969115646258503	12.038775510204081	76	127
12.038775510204081	12.085215419501134	89	127
12.038775510204081	12.085215419501134	74	127
12.038775510204081	12.085215419501134	57	127
12.166485260770974	12.22453514739229	45	127
12.166485260770974	12.398684807256236	69	127
12.166485260770974	12.398684807256236	88	127
12.166485260770974	12.398684807256236	73	127
12.270975056689343	12.329024943310658	57	127
12.479954648526077	12.561224489795919	45	127
12.479954648526077	12.816643990929705	69	127
12.479954648526077	12.816643990929705	86	127
12.479954648526077	12.816643990929705	70	127
12.677324263038548	12.735374149659863	57	127
12.886303854875283	12.932743764172336	45	127
12.886303854875283	12.944353741496599	85	127
12.886303854875283	12.944353741496599	69	127
12.886303854875283	13.118503401360543	69	127
12.944353741496599	13.06045351473923	86	127
12.944353741496599	13.06045351473923	70	127
13.06045351473923	13.118503401360543	85	127
13.06045351473923	13.118503401360543	69	127
13.06045351473923	13.118503401360543	57	127
13.269433106575963	13.362312925170068	82	127
13.269433106575963	13.362312925170068	67	127
13.269433106575963	13.52485260770975	38	127
13.52485260770975	13.629342403628119	66	127
13.52485260770975	13.629342403628119	74	127
13.52485260770975	13.664172335600908	62	127
13.52485260770975	13.664172335600908	45	127
13.52485260770975	13.745442176870748	69	127
13.52485260770975	13.745442176870748	54	127
13.594512471655328	13.745442176870748	81	127
13.594512471655328	13.745442176870748	62	127
13.745442176870748	13.815102040816326	79	127
13.745442176870748	13.815102040816326	62	127
13.815102040816326	13.884761904761906	43	127
13.815102040816326	13.884761904761906	50	127
13.815102040816326	14.175011337868481	67	127
13.815102040816326	14.175011337868481	58	127
14.05891156462585	14.140181405895692	55	127
14.186621315192744	14.302721088435375	67	127
14.186621315192744	14.302721088435375	67	127
14.302721088435375	14.372380952380952	55	127
14.302721088435375	14.59297052154195	70	127
14.302721088435375	14.59297052154195	62	127
14.488480725623583	14.569750566893424	55	127
14.59297052154195	14.604580498866213	70	127
14.59297052154195	14.604580498866213	62	127
14.604580498866213	14.685850340136055	69	127
14.604580498866213	14.685850340136055	60	127
14.604580498866213	14.685850340136055	43	127
14.604580498866213	14.685850340136055	50	127
14.82517006802721	14.894829931972788	67	127
14.82517006802721	14.894829931972788	58	127
14.82517006802721	14.894829931972788	55	127
15.034149659863946	15.103809523809524	66	127
15.034149659863946	15.103809523809524	57	127
15.034149659863946	15.103809523809524	55	127
15.20829931972789	15.277959183673469	67	127
15.20829931972789	15.277959183673469	58	127
15.20829931972789	15.277959183673469	55	127
15.428888888888888	15.486938775510204	43	127
15.428888888888888	15.486938775510204	50	127
15.428888888888888	15.69591836734694	66	127
15.428888888888888	15.69591836734694	74	127
15.428888888888888	15.69591836734694	57	127
15.579818594104308	15.637868480725624	55	127
15.765578231292517	15.812018140589569	55	127
15.765578231292517	16.04421768707483	66	127
15.765578231292517	16.04421768707483	69	127
15.765578231292517	16.04421768707483	62	127
15.962947845804988	16.02097505668934	55	127
16.04421768707483	16.148684807256235	62	127
16.04421768707483	16.148684807256235	62	127
16.148684807256235	16.218367346938777	43	127
16.148684807256235	16.218367346938777	50	127
16.148684807256235	16.485396825396826	67	127
16.148684807256235	16.485396825396826	58	127
16.369297052154195	16.450566893424035	55	127
16.485396825396826	16.58986394557823	67	127
16.485396825396826	16.58986394557823	67	127
16.58986394557823	16.671156462585035	55	127
16.58986394557823	16.740816326530613	70	127
16.58986394557823	16.740816326530613	62	127
16.705986394557822	16.72920634920635	55	127
16.752426303854875	16.822086167800453	70	127
16.752426303854875	16.822086167800453	62	127
16.822086167800453	16.88013605442177	69	127
16.822086167800453	16.88013605442177	60	127
16.822086167800453	16.88013605442177	43	127
16.822086167800453	16.88013605442177	50	127
17.007845804988662	17.065895691609978	67	127
17.007845804988662	17.065895691609978	58	127
17.007845804988662	17.065895691609978	55	127
17.170385487528346	17.228412698412697	66	127
17.170385487528346	17.228412698412697	57	127
17.170385487528346	17.228412698412697	55	127
17.34453514739229	17.414172335600906	67	127
17.34453514739229	17.414172335600906	58	127
17.34453514739229	17.414172335600906	55	127
17.530294784580498	17.599954648526076	74	127
17.530294784580498	17.599954648526076	70	127
17.530294784580498	17.599954648526076	43	127
17.530294784580498	17.599954648526076	55	127
17.692834467120182	17.750884353741498	67	127
17.692834467120182	17.750884353741498	76	127
17.692834467120182	17.750884353741498	61	127
17.692834467120182	17.750884353741498	52	127
17.87859410430839	17.936643990929706	50	127
17.87859410430839	18.157233560090702	69	127
17.87859410430839	18.157233560090702	78	127
17.87859410430839	18.157233560090702	62	127
18.052721088435373	18.122403628117915	48	127
18.157233560090702	18.26172335600907	74	127
18.157233560090702	18.26172335600907	62	127
18.26172335600907	18.33138321995465	46	127
18.26172335600907	18.52875283446712	79	127
18.26172335600907	18.52875283446712	58	127
18.435873015873018	18.505532879818595	45	127
18.52875283446712	18.61002267573696	79	127
18.52875283446712	18.61002267573696	67	127
18.61002267573696	18.64485260770975	43	127
18.61002267573696	18.83061224489796	82	127
18.61002267573696	18.83061224489796	62	127
18.72612244897959	18.79578231292517	43	127
18.83061224489796	18.94671201814059	82	127
18.83061224489796	18.94671201814059	62	127
18.94671201814059	19.02798185941043	81	127
18.94671201814059	19.02798185941043	60	127
18.94671201814059	19.02798185941043	43	127
18.94671201814059	19.02798185941043	50	127
19.155691609977325	19.202131519274378	79	127
19.155691609977325	19.202131519274378	58	127
19.155691609977325	19.202131519274378	55	127
19.341451247165534	19.36467120181406	78	127
19.341451247165534	19.36467120181406	57	127
19.341451247165534	19.36467120181406	55	127
19.422721088435374	19.48077097505669	79	127
19.422721088435374	19.48077097505669	58	127
19.422721088435374	19.48077097505669	55	127
19.608480725623583	19.689750566893423	43	127
19.608480725623583	19.689750566893423	50	127
19.608480725623583	19.887097505668933	86	127
19.608480725623583	19.887097505668933	57	127
19.817460317460316	19.887097505668933	55	127
19.968390022675738	20.026439909297054	55	127
19.968390022675738	20.223809523809525	81	127
19.968390022675738	20.270226757369613	62	127
20.119319727891156	20.188979591836734	55	127
20.223809523809525	20.339909297052156	83	127
20.339909297052156	20.409569160997734	43	127
20.339909297052156	20.409569160997734	50	127
20.339909297052156	20.641768707482992	86	127
20.339909297052156	20.641768707482992	67	127
20.339909297052156	20.641768707482992	71	127
20.537278911564627	20.618548752834467	55	127
20.641768707482992	20.688208616780045	86	127
20.688208616780045	20.757868480725623	55	127
20.688208616780045	20.943628117913832	91	127
20.688208616780045	20.978458049886623	62	127
20.688208616780045	20.978458049886623	71	127
20.8275283446712	20.908798185941045	55	127
20.943628117913832	21.059727891156463	91	127
21.059727891156463	21.140997732426303	89	127
21.059727891156463	21.140997732426303	68	127
21.059727891156463	21.140997732426303	36	127
21.059727891156463	21.140997732426303	43	127
21.291927437641725	21.349954648526076	87	127
21.291927437641725	21.349954648526076	67	127
21.291927437641725	21.349954648526076	48	127
21.454467120181405	21.47766439909297	86	127
21.454467120181405	21.47766439909297	65	127
21.454467120181405	21.47766439909297	48	127
21.605396825396827	21.675056689342405	87	127
21.605396825396827	21.675056689342405	67	127
21.605396825396827	21.675056689342405	48	127
21.837596371882086	21.97691609977324	62	127
21.837596371882086	21.97691609977324	72	127
21.837596371882086	22.104603174603174	62	127
21.837596371882086	22.104603174603174	38	127
21.837596371882086	22.243945578231294	69	127
21.837596371882086	22.243945578231294	45	127
21.97691609977324	22.243945578231294	78	127
21.97691609977324	22.243945578231294	50	127
22.38326530612245	22.54580498866213	62	127
22.38326530612245	22.54580498866213	70	127
22.38326530612245	22.673514739229024	62	127
22.38326530612245	22.673514739229024	43	127
22.38326530612245	22.673514739229024	50	127
22.38326530612245	22.812834467120183	70	127
22.54580498866213	22.812834467120183	79	127
22.9637641723356	23.34689342403628	54	127
22.9637641723356	23.34689342403628	42	127
23.462993197278912	23.869342403628117	55	127
23.462993197278912	23.869342403628117	43	127
23.962222222222223	24.06671201814059	66	127
23.962222222222223	24.06671201814059	54	127
24.07832199546485	24.206031746031748	67	127
24.07832199546485	24.206031746031748	55	127
24.21764172335601	24.310521541950113	69	127
24.21764172335601	24.310521541950113	57	127
24.322131519274375	24.41501133786848	70	127
24.322131519274375	24.41501133786848	58	127
24.426621315192744	24.542721088435375	72	127
24.426621315192744	24.542721088435375	60	127
24.554331065759637	24.658820861678006	74	127
24.554331065759637	24.658820861678006	62	127
24.670430839002268	24.71687074829932	76	127
24.670430839002268	24.71687074829932	64	127
24.71687074829932	24.79814058956916	78	127
24.71687074829932	24.79814058956916	66	127
24.79814058956916	24.914240362811793	79	127
24.79814058956916	24.914240362811793	67	127
24.914240362811793	25.030340136054424	81	127
24.914240362811793	25.030340136054424	69	127
25.030340136054424	25.13482993197279	82	127
25.030340136054424	25.13482993197279	70	127
25.13482993197279	25.25092970521542	81	127
25.13482993197279	25.25092970521542	69	127
25.25092970521542	25.33219954648526	82	127
25.25092970521542	25.33219954648526	70	127
25.48312925170068	25.564399092970522	79	127
25.48312925170068	25.564399092970522	67	127
25.680498866213153	26.028798185941042	57	127
25.680498866213153	26.028798185941042	45	127
26.110068027210886	26.43514739229025	58	127
26.110068027210886	26.43514739229025	46	127
26.493197278911566	26.609297052154194	69	127
26.493197278911566	26.609297052154194	57	127
26.609297052154194	26.725396825396825	70	127
26.609297052154194	26.725396825396825	58	127
26.725396825396825	26.829886621315193	72	127
26.725396825396825	26.829886621315193	60	127
26.829886621315193	26.957596371882087	74	127
26.829886621315193	26.957596371882087	62	127
26.957596371882087	27.073696145124718	75	127
26.957596371882087	27.073696145124718	63	127
27.073696145124718	27.16657596371882	77	127
27.073696145124718	27.16657596371882	65	127
27.16657596371882	27.20140589569161	79	127
27.16657596371882	27.20140589569161	67	127
27.20140589569161	27.305895691609976	81	127
27.20140589569161	27.305895691609976	69	127
27.317505668934242	27.421995464852607	82	127
27.317505668934242	27.421995464852607	70	127
27.43360544217687	27.538095238095238	84	127
27.43360544217687	27.538095238095238	72	127
27.5497052154195	27.642585034013607	86	127
27.5497052154195	27.642585034013607	74	127
27.65419501133787	27.758684807256238	85	127
27.65419501133787	27.758684807256238	73	127
27.7702947845805	27.839954648526078	86	127
27.7702947845805	27.839954648526078	74	127
27.990884353741496	28.060544217687074	82	127
27.990884353741496	28.060544217687074	70	127
28.223083900226758	28.606213151927438	61	127
28.223083900226758	28.606213151927438	49	127
28.675873015873016	29.047392290249434	62	127
28.675873015873016	29.047392290249434	50	127
29.11705215419501	29.45374149659864	61	127
29.11705215419501	29.45374149659864	49	127
29.11705215419501	29.45374149659864	49	127
29.523401360544216	29.883310657596372	62	127
29.523401360544216	29.883310657596372	50	127
29.523401360544216	29.883310657596372	50	127
29.95297052154195	30.359319727891158	77	127
29.95297052154195	30.359319727891158	49	127
29.95297052154195	30.359319727891158	37	127
30.428979591836736	30.707619047619048	78	127
30.428979591836736	30.707619047619048	50	127
30.428979591836736	30.707619047619048	38	127
30.777278911564625	30.997868480725625	71	127
30.777278911564625	30.997868480725625	77	127
30.777278911564625	30.997868480725625	61	127
30.777278911564625	30.997868480725625	68	127
30.777278911564625	30.997868480725625	37	127
31.009478458049887	31.195238095238096	71	127
31.009478458049887	31.195238095238096	77	127
31.009478458049887	31.195238095238096	61	127
31.009478458049887	31.195238095238096	68	127
31.009478458049887	31.195238095238096	49	127
31.40421768707483	31.578367346938776	71	127
31.40421768707483	31.578367346938776	77	127
31.40421768707483	31.578367346938776	61	127
31.40421768707483	31.578367346938776	68	127
31.40421768707483	31.578367346938776	49	127
31.810566893424035	31.996326530612244	69	127
31.810566893424035	31.996326530612244	78	127
31.810566893424035	31.996326530612244	61	127
31.810566893424035	31.996326530612244	69	127
31.810566893424035	31.996326530612244	54	127
32.228526077097506	32.449115646258505	69	127
32.228526077097506	32.449115646258505	78	127
32.228526077097506	32.449115646258505	62	127
32.228526077097506	32.449115646258505	69	127
32.228526077097506	32.449115646258505	50	127
32.63487528344671	32.85546485260771	70	127
32.63487528344671	32.85546485260771	79	127
32.63487528344671	32.85546485260771	55	127
32.63487528344671	32.85546485260771	67	127
32.63487528344671	32.85546485260771	43	127
32.63487528344671	32.85546485260771	50	127
33.099274376417235	33.319863945578234	69	127
33.099274376417235	33.319863945578234	78	127
33.099274376417235	33.319863945578234	62	127
33.099274376417235	33.319863945578234	69	127
33.099274376417235	33.319863945578234	50	127
33.56367346938776	33.761043083900226	71	127
33.56367346938776	33.761043083900226	80	127
33.56367346938776	33.761043083900226	65	127
33.56367346938776	33.761043083900226	73	127
33.56367346938776	33.761043083900226	49	127
33.97002267573696	34.17900226757369	71	127
33.97002267573696	34.17900226757369	80	127
33.97002267573696	34.17900226757369	65	127
33.97002267573696	34.17900226757369	73	127
33.97002267573696	34.17900226757369	49	127
34.411201814058956	34.57371882086168	69	127
34.411201814058956	34.57371882086168	81	127
34.411201814058956	34.57371882086168	66	127
34.411201814058956	34.57371882086168	73	127
34.411201814058956	34.57371882086168	54	127
34.8059410430839	35.014920634920635	69	127
34.8059410430839	35.014920634920635	81	127
34.8059410430839	35.014920634920635	66	127
34.8059410430839	35.014920634920635	74	127
34.8059410430839	35.014920634920635	50	127
35.21229024943311	35.42126984126984	74	127
35.21229024943311	35.42126984126984	82	127
35.21229024943311	35.42126984126984	62	127
35.21229024943311	35.42126984126984	74	127
35.21229024943311	35.42126984126984	43	127
35.21229024943311	35.42126984126984	50	127
35.6534693877551	35.8740589569161	69	127
35.6534693877551	35.8740589569161	81	127
35.6534693877551	35.8740589569161	66	127
35.6534693877551	35.8740589569161	74	127
35.6534693877551	35.8740589569161	50	127
35.8740589569161	36.09462585034014	62	127
35.8740589569161	36.21072562358277	69	127
35.99015873015873	36.21072562358277	78	127
36.33843537414966	36.547437641723356	62	127
36.33843537414966	36.66353741496599	70	127
36.44294784580499	36.66353741496599	79	127
36.768027210884355	36.884126984126986	54	127
36.768027210884355	36.884126984126986	42	127
36.884126984126986	37.02344671201814	55	127
36.884126984126986	37.02344671201814	43	127
37.02344671201814	37.12793650793651	57	127
37.02344671201814	37.12793650793651	45	127
37.12793650793651	37.232403628117915	58	127
37.12793650793651	37.232403628117915	46	127
37.232403628117915	37.3485260770975	60	127
37.232403628117915	37.3485260770975	48	127
37.3485260770975	37.464625850340134	62	127
37.3485260770975	37.464625850340134	50	127
37.464625850340134	37.55750566893424	64	127
37.464625850340134	37.55750566893424	52	127
37.55750566893424	37.65038548752835	66	127
37.55750566893424	37.65038548752835	54	127
37.65038548752835	37.731632653061226	67	127
37.65038548752835	37.731632653061226	55	127
37.731632653061226	37.83614512471655	69	127
37.731632653061226	37.83614512471655	57	127
37.847755102040814	37.94063492063492	70	127
37.847755102040814	37.94063492063492	58	127
37.95224489795918	38.03351473922903	69	127
37.95224489795918	38.03351473922903	57	127
38.04512471655329	38.1031746031746	70	127
38.04512471655329	38.1031746031746	58	127
38.27732426303855	38.35859410430839	67	127
38.27732426303855	38.35859410430839	55	127
38.50952380952381	38.71850340136054	65	127
38.50952380952381	38.834603174603174	72	127
38.62560090702948	38.834603174603174	81	127
38.950702947845805	39.20612244897959	65	127
38.950702947845805	39.32222222222222	74	127
39.066802721088436	39.32222222222222	82	127
39.449931972789116	39.56603174603175	57	127
39.449931972789116	39.56603174603175	45	127
39.56603174603175	39.65891156462585	58	127
39.56603174603175	39.65891156462585	46	127
39.670521541950116	39.77498866213152	60	127
39.670521541950116	39.77498866213152	48	127
39.78662131519275	39.879501133786846	62	127
39.78662131519275	39.879501133786846	50	127
39.89108843537415	39.99560090702948	63	127
39.89108843537415	39.99560090702948	51	127
40.00721088435374	40.11170068027211	65	127
40.00721088435374	40.11170068027211	53	127
40.12331065759637	40.22780045351474	67	127
40.12331065759637	40.22780045351474	55	127
40.239410430839	40.34390022675737	69	127
40.239410430839	40.34390022675737	57	127
40.35551020408163	40.46	70	127
40.35551020408163	40.46	58	127
40.46	40.57609977324263	72	127
40.46	40.57609977324263	60	127
40.57609977324263	40.69219954648526	74	127
40.57609977324263	40.69219954648526	62	127
40.69219954648526	40.819909297052156	73	127
40.69219954648526	40.819909297052156	61	127
40.819909297052156	40.90117913832199	74	127
40.819909297052156	40.90117913832199	62	127
41.05210884353742	41.14498866213152	70	127
41.05210884353742	41.14498866213152	58	127
41.31913832199547	41.690657596371885	85	127
41.77192743764172	42.120226757369615	86	127
42.20149659863946	42.56138321995465	73	127
42.20149659863946	42.56138321995465	85	127
42.63106575963719	42.990975056689344	74	127
42.63106575963719	42.990975056689344	86	127
43.07222222222222	43.44374149659864	73	127
43.07222222222222	43.44374149659864	85	127
43.52503401360544	43.93138321995465	74	127
43.52503401360544	43.93138321995465	86	127
44.02426303854875	44.12875283446712	61	127
44.02426303854875	44.12875283446712	49	127
44.12875283446712	44.23324263038549	62	127
44.12875283446712	44.23324263038549	50	127
44.23324263038549	44.337709750566894	64	127
44.23324263038549	44.337709750566894	52	127
44.337709750566894	44.44222222222222	65	127
44.337709750566894	44.44222222222222	53	127
44.44222222222222	44.55832199546485	67	127
44.44222222222222	44.55832199546485	55	127
44.55832199546485	44.66281179138322	69	127
44.55832199546485	44.66281179138322	57	127
44.66281179138322	44.744081632653064	71	127
44.66281179138322	44.744081632653064	59	127
44.744081632653064	44.860181405895695	73	127
44.744081632653064	44.860181405895695	61	127
44.860181405895695	44.9646485260771	74	127
44.860181405895695	44.9646485260771	62	127
44.9646485260771	45.069160997732425	76	127
44.9646485260771	45.069160997732425	64	127
45.069160997732425	45.17365079365079	77	127
45.069160997732425	45.17365079365079	65	127
45.185260770975056	45.289750566893424	76	127
45.185260770975056	45.289750566893424	64	127
45.30136054421769	45.37102040816327	77	127
45.30136054421769	45.37102040816327	65	127
45.53356009070295	45.603197278911566	74	127
45.53356009070295	45.603197278911566	62	127
45.75414965986395	45.85861678004535	79	127
45.75414965986395	45.85861678004535	67	127
45.85861678004535	45.97473922902494	78	127
45.85861678004535	45.97473922902494	66	127
45.97473922902494	46.09083900226757	79	127
45.97473922902494	46.09083900226757	67	127
46.09083900226757	46.2069387755102	76	127
46.09083900226757	46.2069387755102	64	127
46.2069387755102	46.28820861678005	77	127
46.2069387755102	46.28820861678005	65	127
46.439138321995465	46.52040816326531	74	127
46.439138321995465	46.52040816326531	62	127
46.67133786848073	46.78743764172336	73	127
46.78743764172336	46.891927437641726	74	127
46.891927437641726	46.984807256235825	76	127
46.891927437641726	47.089297052154194	64	127
46.891927437641726	47.089297052154194	67	127
46.891927437641726	47.089297052154194	57	127
46.984807256235825	47.089297052154194	77	127
47.100907029478456	47.21700680272109	79	127
47.22861678004535	47.33310657596372	81	127
47.34471655328798	47.44920634920635	83	127
47.34471655328798	47.542086167800456	64	127
47.34471655328798	47.542086167800456	67	127
47.34471655328798	47.542086167800456	57	127
47.46081632653061	47.542086167800456	85	127
47.55369614512472	47.61174603174603	86	127
47.72784580498866	47.809115646258505	74	127
47.72784580498866	47.96004535147392	62	127
47.72784580498866	47.96004535147392	65	127
47.72784580498866	47.96004535147392	50	127
47.96004535147392	48.05292517006803	86	127
48.20385487528345	48.28512471655329	74	127
48.20385487528345	48.43605442176871	62	127
48.20385487528345	48.43605442176871	65	127
48.20385487528345	48.43605442176871	46	127
48.43605442176871	48.52893424036281	75	127
48.52893424036281	48.63342403628118	77	127
48.63342403628118	48.72630385487528	79	127
48.63342403628118	48.842403628117914	63	127
48.63342403628118	48.842403628117914	67	127
48.63342403628118	48.842403628117914	39	127
48.737913832199546	48.842403628117914	81	127
48.85401360544218	48.92367346938776	82	127
48.93528344671202	49.02816326530612	84	127
49.03977324263039	49.13265306122449	86	127
49.03977324263039	49.225532879818594	62	127
49.03977324263039	49.225532879818594	65	127
49.03977324263039	49.225532879818594	46	127
49.14426303854875	49.225532879818594	89	127
49.23714285714286	49.35324263038549	70	127
49.23714285714286	49.608662131519274	91	127
49.23714285714286	49.608662131519274	63	127
49.35324263038549	49.457732426303856	72	127
49.457732426303856	49.53900226757369	70	127
49.666712018140586	49.771201814058955	89	127
49.666712018140586	49.771201814058955	62	127
49.666712018140586	49.95696145124717	70	127
49.771201814058955	49.8524716553288	91	127
49.771201814058955	49.8524716553288	63	127
49.8524716553288	49.91052154195011	89	127
49.8524716553288	49.91052154195011	62	127
50.038231292517004	50.154331065759635	67	127
50.038231292517004	50.40975056689342	87	127
50.038231292517004	50.40975056689342	60	127
50.154331065759635	50.270430839002266	69	127
50.270430839002266	50.34009070294785	67	127
50.479410430839	50.804489795918364	86	127
50.479410430839	50.804489795918364	67	127
50.479410430839	50.804489795918364	58	127
50.874149659863946	50.93219954648526	63	127
50.874149659863946	50.978639455782314	84	127
50.874149659863946	50.978639455782314	56	127
50.978639455782314	51.07151927437642	86	127
50.978639455782314	51.07151927437642	58	127
51.07151927437642	51.15278911564626	84	127
51.07151927437642	51.15278911564626	75	127
51.07151927437642	51.15278911564626	56	127
51.29210884353741	51.361768707482995	82	127
51.29210884353741	51.361768707482995	75	127
51.29210884353741	51.361768707482995	55	127
51.44303854875283	51.51269841269841	79	127
51.44303854875283	51.51269841269841	63	127
51.44303854875283	51.51269841269841	63	127
51.65201814058957	51.7681179138322	73	127
51.65201814058957	52.00031746031746	91	127
51.65201814058957	52.00031746031746	64	127
51.7681179138322	51.87260770975057	74	127
51.87260770975057	51.953877551020405	73	127
52.0815873015873	52.174467120181404	89	127
52.0815873015873	52.174467120181404	62	127
52.0815873015873	52.42988662131519	74	127
52.174467120181404	52.27895691609977	91	127
52.174467120181404	52.27895691609977	64	127
52.27895691609977	52.348616780045354	89	127
52.27895691609977	52.348616780045354	62	127
52.511156462585035	52.60403628117914	88	127
52.511156462585035	52.60403628117914	69	127
52.511156462585035	52.789795918367346	60	127
52.60403628117914	52.68530612244898	70	127
52.68530612244898	52.75496598639456	69	127
52.847845804988665	52.96394557823129	86	127
52.847845804988665	53.19614512471655	70	127
52.847845804988665	53.19614512471655	58	127
53.277414965986395	53.33546485260771	60	127
53.277414965986395	53.3702947845805	84	127
53.277414965986395	53.3702947845805	69	127
53.3702947845805	53.4631746031746	86	127
53.3702947845805	53.4631746031746	70	127
53.4631746031746	53.50961451247166	84	127
53.4631746031746	53.50961451247166	69	127
53.4631746031746	53.50961451247166	48	127
53.63732426303855	53.71859410430839	82	127
53.63732426303855	53.71859410430839	67	127
53.63732426303855	53.71859410430839	50	127
53.85791383219954	53.985623582766436	81	127
53.85791383219954	53.985623582766436	38	127
53.85791383219954	54.043673469387755	66	127
54.05528344671202	54.22943310657596	62	127
54.05528344671202	54.22943310657596	62	127
54.22943310657596	54.310702947845805	43	127
54.22943310657596	54.310702947845805	50	127
54.22943310657596	54.531292517006804	67	127
54.22943310657596	54.531292517006804	58	127
54.426802721088436	54.50807256235828	55	127
54.54290249433107	54.6590022675737	67	127
54.54290249433107	54.6590022675737	67	127
54.6590022675737	54.740272108843534	55	127
54.6590022675737	54.98408163265306	70	127
54.6590022675737	54.98408163265306	62	127
54.89120181405896	54.94925170068027	55	127
54.99569160997732	55.10018140589569	70	127
54.99569160997732	55.10018140589569	62	127
55.10018140589569	55.16984126984127	69	127
55.10018140589569	55.16984126984127	60	127
55.10018140589569	55.16984126984127	43	127
55.10018140589569	55.16984126984127	50	127
55.297551020408164	55.36721088435374	67	127
55.297551020408164	55.36721088435374	58	127
55.297551020408164	55.36721088435374	55	127
55.48331065759637	55.56458049886621	66	127
55.48331065759637	55.56458049886621	57	127
55.48331065759637	55.56458049886621	55	127
55.87804988662131	55.959319727891156	43	127
55.87804988662131	55.959319727891156	50	127
55.87804988662131	56.26117913832199	66	127
55.87804988662131	56.26117913832199	74	127
55.87804988662131	56.26117913832199	57	127
56.110249433106574	56.19151927437642	55	127
56.29600907029479	56.36566893424036	55	127
56.29600907029479	56.5746485260771	66	127
56.29600907029479	56.5746485260771	69	127
56.29600907029479	56.5746485260771	62	127
56.493378684807254	56.55142857142857	55	127
56.58625850340136	56.70235827664399	62	127
56.58625850340136	56.70235827664399	62	127
56.70235827664399	56.772018140589566	43	127
56.70235827664399	56.772018140589566	50	127
56.70235827664399	57.01582766439909	67	127
56.70235827664399	57.01582766439909	58	127
56.91133786848073	56.992607709750565	55	127
57.01582766439909	57.03904761904762	67	127
57.01582766439909	57.03904761904762	67	127
57.03904761904762	57.07387755102041	55	127
57.03904761904762	57.166757369614515	70	127
57.03904761904762	57.166757369614515	62	127
57.108707482993196	57.13192743764172	55	127
57.166757369614515	57.23641723356009	62	127
57.166757369614515	57.23641723356009	70	127
57.23641723356009	57.317687074829934	69	127
57.23641723356009	57.317687074829934	60	127
57.23641723356009	57.317687074829934	43	127
57.23641723356009	57.317687074829934	50	127
57.46861678004535	57.56149659863946	67	127
57.46861678004535	57.56149659863946	58	127
57.46861678004535	57.56149659863946	55	127
57.67759637188209	57.7356462585034	66	127
57.67759637188209	57.7356462585034	57	127
57.67759637188209	57.7356462585034	55	127
57.88657596371882	57.92140589569161	67	127
57.88657596371882	57.92140589569161	58	127
57.88657596371882	57.92140589569161	55	127
58.083945578231294	58.15360544217687	74	127
58.083945578231294	58.15360544217687	70	127
58.083945578231294	58.15360544217687	43	127
58.083945578231294	58.15360544217687	55	127
58.28131519274376	58.33936507936508	67	127
58.28131519274376	58.33936507936508	76	127
58.28131519274376	58.33936507936508	61	127
58.28131519274376	58.33936507936508	52	127
58.4902947845805	58.57156462585034	50	127
58.4902947845805	58.699274376417236	69	127
58.4902947845805	58.699274376417236	78	127
58.4902947845805	58.699274376417236	62	127
58.60639455782313	58.676054421768704	48	127
58.699274376417236	58.8037641723356	74	127
58.699274376417236	58.8037641723356	62	127
58.8037641723356	58.82698412698413	46	127
58.8037641723356	59.04757369614512	79	127
58.8037641723356	59.04757369614512	58	127
58.95469387755102	59.0243537414966	45	127
59.059183673469384	59.14045351473923	79	127
59.059183673469384	59.14045351473923	67	127
59.14045351473923	59.16367346938775	43	127
59.14045351473923	59.291383219954646	82	127
59.14045351473923	59.291383219954646	62	127
59.19850340136055	59.25655328798186	43	127
59.291383219954646	59.38426303854875	82	127
59.291383219954646	59.38426303854875	62	127
59.38426303854875	59.453922902494334	81	127
59.38426303854875	59.453922902494334	60	127
59.38426303854875	59.453922902494334	43	127
59.38426303854875	59.453922902494334	50	127
59.60485260770975	59.68612244897959	79	127
59.60485260770975	59.68612244897959	58	127
59.60485260770975	59.68612244897959	55	127
59.76739229024943	59.837052154195014	78	127
59.76739229024943	59.837052154195014	57	127
59.76739229024943	59.837052154195014	55	127
59.97637188208617	60.05764172335601	79	127
59.97637188208617	60.05764172335601	58	127
59.97637188208617	60.05764172335601	55	127
60.19696145124716	60.278231292517006	43	127
60.19696145124716	60.278231292517006	50	127
60.19696145124716	60.545260770975055	86	127
60.19696145124716	60.545260770975055	57	127
60.41755102040816	60.498820861678006	55	127
60.603310657596374	60.67297052154195	55	127
60.603310657596374	60.87034013605442	81	127
60.603310657596374	60.91678004535147	62	127
60.765850340136055	60.83551020408163	55	127
60.881950113378686	60.99804988662132	83	127
60.99804988662132	61.06770975056689	43	127
60.99804988662132	61.06770975056689	50	127
60.99804988662132	61.265079365079366	86	127
60.99804988662132	61.265079365079366	67	127
60.99804988662132	61.265079365079366	71	127
61.18380952380952	61.2534693877551	55	127
61.265079365079366	61.33473922902494	86	127
61.33473922902494	61.416009070294784	55	127
61.33473922902494	61.61337868480726	91	127
61.33473922902494	61.648208616780046	62	127
61.33473922902494	61.648208616780046	71	127
61.49727891156463	61.578548752834465	55	127
61.61337868480726	61.72947845804989	91	127
61.72947845804989	61.81074829931973	89	127
61.72947845804989	61.81074829931973	68	127
61.72947845804989	61.81074829931973	36	127
61.72947845804989	61.81074829931973	43	127
61.92684807256236	61.99650793650794	87	127
61.92684807256236	61.99650793650794	67	127
61.92684807256236	61.99650793650794	48	127
62.12421768707483	62.135827664399095	86	127
62.12421768707483	62.135827664399095	65	127
62.12421768707483	62.135827664399095	48	127
62.24031746031746	62.30997732426304	87	127
62.24031746031746	62.30997732426304	67	127
62.24031746031746	62.30997732426304	48	127
62.49573696145125	62.70471655328798	62	127
62.49573696145125	62.70471655328798	62	127
62.49573696145125	62.70471655328798	72	127
62.49573696145125	62.70471655328798	38	127
62.49573696145125	62.785986394557824	69	127
62.49573696145125	62.785986394557824	45	127
62.611836734693874	62.785986394557824	78	127
62.611836734693874	62.785986394557824	50	127
62.902086167800455	63.111065759637185	62	127
62.902086167800455	63.111065759637185	62	127
62.902086167800455	63.111065759637185	70	127
62.902086167800455	63.111065759637185	43	127
62.902086167800455	63.111065759637185	50	127
62.902086167800455	63.18072562358277	70	127
62.99496598639456	63.18072562358277	79	127
83.60265306122449	83.68394557823129	62	127
83.60265306122449	83.82326530612245	55	127
83.70714285714286	83.78843537414966	62	127
83.82326530612245	83.88131519274377	62	127
83.82326530612245	84.00902494331066	67	127
83.9045351473923	83.98578231292517	62	127
84.00902494331066	84.06707482993197	62	127
84.00902494331066	84.17156462585034	68	127
84.10190476190476	84.14834467120181	62	127
84.1831746031746	84.25283446712018	62	127
84.1831746031746	84.35732426303855	53	127
84.28766439909298	84.33410430839002	62	127
84.36893424036282	84.42698412698412	62	127
84.36893424036282	84.55469387755102	55	127
84.46181405895692	84.51986394557824	62	127
84.55469387755102	84.60111111111111	62	127
84.55469387755102	84.7520634920635	67	127
84.64757369614513	84.7172335600907	62	127
84.76367346938775	84.83333333333333	62	127
84.76367346938775	84.99587301587302	68	127
84.86816326530612	84.94943310657597	62	127
84.99587301587302	85.06553287981859	62	127
84.99587301587302	85.20485260770975	53	127
85.10036281179138	85.17002267573696	62	127
85.20485260770975	85.2512925170068	62	127
85.20485260770975	85.3790022675737	55	127
85.27451247165533	85.3441723356009	62	127
85.3790022675737	85.46027210884354	62	127
85.3790022675737	85.61120181405896	67	127
85.48349206349206	85.56476190476191	62	127
85.61120181405896	85.68086167800453	62	127
85.61120181405896	85.79696145124717	68	127
85.70408163265306	85.7853514739229	62	127
85.80857142857143	85.87820861678004	62	127
85.80857142857143	86.01755102040816	53	127
85.9130612244898	85.98272108843537	62	127
86.02916099773243	86.098820861678	62	127
86.02916099773243	86.16848072562358	52	127
86.12204081632653	86.14526077097506	62	127
86.16848072562358	86.2265306122449	62	127
86.16848072562358	86.40068027210884	68	127
86.27297052154195	86.36582766439909	62	127
86.41229024943311	86.48195011337869	62	127
86.41229024943311	86.59804988662131	71	127
86.50517006802721	86.57482993197279	62	127
86.59804988662131	86.6444671201814	64	127
86.59804988662131	86.760589569161	52	127
86.67931972789115	86.73736961451247	64	127
86.760589569161	86.84185941043084	64	127
86.760589569161	86.98117913832199	57	127
86.87666666666667	86.94634920634921	64	127
86.98117913832199	87.06244897959184	64	127
86.98117913832199	87.1669387755102	69	127
87.08566893424036	87.13208616780045	64	127
87.1669387755102	87.24820861678005	64	127
87.1669387755102	87.37591836734694	70	127
87.27142857142857	87.35269841269842	64	127
87.38750566893424	87.44557823129252	64	127
87.38750566893424	87.58489795918368	55	127
87.48040816326531	87.55006802721088	64	127
87.59650793650793	87.65455782312925	64	127
87.59650793650793	87.81709750566894	57	127
87.7009977324263	87.77063492063492	64	127
87.8287074829932	87.87514739229024	64	127
87.8287074829932	88.00285714285714	69	127
87.92158730158731	87.97963718820861	64	127
88.01446712018141	88.06090702947846	64	127
88.01446712018141	88.20022675736962	70	127
88.09573696145125	88.16539682539683	64	127
88.20022675736962	88.2698866213152	64	127
88.20022675736962	88.40918367346939	55	127
88.30471655328799	88.38598639455782	64	127
88.40918367346939	88.49047619047619	64	127
88.40918367346939	88.61818594104308	57	127
88.52530612244898	88.5833560090703	64	127
88.61818594104308	88.68784580498867	64	127
88.61818594104308	88.85038548752834	69	127
88.73428571428572	88.81555555555556	64	127
88.85038548752834	88.93165532879819	64	127
88.85038548752834	89.03614512471655	70	127
88.96648526077098	89.00131519274376	64	127
89.03614512471655	89.1174149659864	64	127
89.03614512471655	89.23351473922902	55	127
89.15224489795918	89.2102947845805	64	127
89.23351473922902	89.30315192743764	64	127
89.23351473922902	89.38444444444444	54	127
89.32639455782314	89.36122448979592	64	127
89.39605442176871	89.46571428571428	64	127
89.39605442176871	89.59342403628118	70	127
89.50054421768708	89.55857142857143	64	127
89.60503401360545	89.6514739229025	64	127
89.60503401360545	89.80240362811791	73	127
89.68628117913832	89.76757369614512	64	127
89.80240362811791	89.88367346938776	66	127
89.80240362811791	90.03460317460318	58	127
89.91848072562358	89.99977324263038	66	127
90.03460317460318	90.11587301587302	66	127
90.03460317460318	90.23197278911564	59	127
90.13909297052155	90.1971201814059	66	127
90.23197278911564	90.31324263038549	66	127
90.23197278911564	90.45253968253968	73	127
90.33646258503401	90.41773242630386	66	127
90.45253968253968	90.53383219954648	66	127
90.45253968253968	90.67315192743764	74	127
90.56866213151928	90.64993197278912	66	127
90.67315192743764	90.74281179138322	66	127
90.67315192743764	90.87052154195011	59	127
90.77764172335601	90.84730158730159	66	127
90.88213151927438	90.95179138321996	66	127
90.88213151927438	91.10272108843537	57	127
90.998231292517	91.06786848072562	66	127
91.11433106575964	91.17238095238095	66	127
91.11433106575964	91.32328798185941	74	127
91.21882086167801	91.28848072562359	66	127
91.3465306122449	91.41619047619048	64	127
91.3465306122449	91.5671201814059	45	127
91.4509977324263	91.5322902494331	64	127
91.5671201814059	91.63678004535147	64	127
91.5671201814059	91.78770975056689	73	127
91.67160997732427	91.75287981859411	64	127
91.78770975056689	91.85736961451248	69	127
91.78770975056689	92.0082993197279	50	127
91.89219954648526	91.9734693877551	57	127
92.0082993197279	92.08954648526077	69	127
92.0082993197279	92.24049886621316	73	127
92.12439909297052	92.20566893424036	57	127
92.24049886621316	92.34496598639456	69	127
92.24049886621316	92.51913832199547	74	127
92.37981859410431	92.48430839002268	57	127
92.51913832199547	92.61201814058957	69	127
92.51913832199547	92.76294784580499	45	127
92.64684807256236	92.72809523809524	57	127
92.77455782312926	92.86743764172336	69	127
92.77455782312926	93.02997732426304	50	127
92.9138775510204	92.98351473922902	57	127
93.0415873015873	93.16929705215419	69	127
93.0415873015873	93.41310657596372	73	127
93.25056689342404	93.37827664399093	57	127
93.42471655328798	93.65691609977324	74	127
93.42471655328798	93.65691609977324	69	127
103.87369614512471	103.95496598639455	62	127
103.87369614512471	104.08267573696145	55	127
103.98979591836735	104.05945578231292	62	127
104.08267573696145	104.15233560090702	62	127
104.08267573696145	104.23360544217687	67	127
104.16394557823129	104.19877551020409	62	127
104.23360544217687	104.32648526077098	62	127
104.23360544217687	104.46580498866213	68	127
104.36131519274376	104.43097505668935	62	127
104.46580498866213	104.54707482993197	62	127
104.46580498866213	104.68639455782314	53	127
104.58190476190477	104.65156462585034	62	127
104.69800453514739	104.75605442176871	62	127
104.69800453514739	104.89537414965986	55	127
104.80249433106576	104.87215419501133	62	127
104.90698412698413	104.96503401360545	62	127
104.90698412698413	105.11596371882086	67	127
105.0114739229025	105.08113378684807	62	127
105.12757369614512	105.17401360544218	62	127
105.12757369614512	105.27850340136054	68	127
105.22045351473923	105.24367346938776	62	127
105.27850340136054	105.35977324263038	62	127
105.27850340136054	105.49909297052154	53	127
105.3829931972789	105.46426303854875	62	127
105.49909297052154	105.58036281179139	62	127
105.49909297052154	105.71968253968254	55	127
105.61519274376417	105.69646258503401	62	127
105.71968253968254	105.80095238095238	62	127
105.71968253968254	105.9518820861678	67	127
105.83578231292518	105.917052154195	62	127
105.9518820861678	106.03315192743764	62	127
105.9518820861678	106.19569160997733	68	127
106.06798185941044	106.16086167800454	62	127
106.19569160997733	106.2653514739229	62	127
106.19569160997733	106.36984126984127	53	127
106.28857142857143	106.358231292517	62	127
106.38145124716553	106.41628117913832	62	127
106.38145124716553	106.50916099773242	52	127
106.43950113378685	106.47433106575964	62	127
106.52077097505669	106.59043083900227	62	127
106.52077097505669	106.69492063492063	68	127
106.60204081632654	106.66009070294784	62	127
106.7065306122449	106.77619047619048	62	127
106.7065306122449	106.9271201814059	71	127
106.82263038548753	106.8922902494331	62	127
106.9271201814059	106.96195011337869	64	127
106.9271201814059	107.07804988662132	52	127
106.98517006802722	107.04321995464852	64	127
107.07804988662132	107.14770975056689	64	127
107.07804988662132	107.31024943310658	57	127
107.18253968253968	107.26380952380953	64	127
107.31024943310658	107.40312925170068	64	127
107.31024943310658	107.56566893424036	69	127
107.43795918367347	107.53083900226757	64	127
107.56566893424036	107.64693877551021	64	127
107.56566893424036	107.78625850340136	70	127
107.68176870748299	107.75142857142858	64	127
107.78625850340136	107.8675283446712	64	127
107.78625850340136	107.9952380952381	55	127
107.89074829931972	107.97201814058957	64	127
108.00684807256236	108.07650793650794	64	127
108.00684807256236	108.12294784580499	57	127
108.11133786848073	108.12294784580499	64	127
108.13455782312926	108.20421768707483	64	127
108.13455782312926	108.35514739229025	69	127
108.25065759637188	108.32031746031745	64	127
108.36675736961452	108.43641723356009	64	127
108.36675736961452	108.56412698412699	70	127
108.45963718820862	108.52929705215419	64	127
108.56412698412699	108.64539682539683	64	127
108.56412698412699	108.7498866213152	55	127
108.66861678004535	108.7150566893424	64	127
108.7498866213152	108.83115646258503	64	127
108.7498866213152	108.94725623582767	57	127
108.86598639455782	108.91242630385487	64	127
108.94725623582767	109.01691609977324	64	127
108.94725623582767	109.1562358276644	69	127
109.05174603174603	109.12140589569161	64	127
109.1562358276644	109.23750566893425	64	127
109.1562358276644	109.38843537414967	70	127
109.27233560090703	109.35360544217687	64	127
109.38843537414967	109.4697052154195	64	127
109.38843537414967	109.59741496598639	55	127
109.50453514739229	109.58580498866213	64	127
109.60902494331066	109.67868480725623	64	127
109.60902494331066	109.8180045351474	54	127
109.72512471655328	109.7831746031746	64	127
109.82961451247165	109.85283446712018	64	127
109.82961451247165	109.99215419501134	70	127
109.88766439909297	109.95732426303854	64	127
110.00376417233561	110.05020408163266	64	127
110.00376417233561	110.1895238095238	73	127
110.0966439909297	110.15469387755103	64	127
110.1895238095238	110.27079365079365	66	127
110.1895238095238	110.39850340136054	58	127
110.30562358276644	110.36367346938775	66	127
110.39850340136054	110.46816326530612	66	127
110.39850340136054	110.58426303854876	59	127
110.50299319727891	110.56104308390023	66	127
110.58426303854876	110.65392290249433	66	127
110.58426303854876	110.79324263038549	73	127
110.68875283446712	110.7584126984127	66	127
110.79324263038549	110.87451247165532	66	127
110.79324263038549	111.01383219954648	74	127
110.90934240362812	110.97900226757369	66	127
111.01383219954648	111.09510204081633	66	127
111.01383219954648	111.22281179138322	59	127
111.12993197278911	111.1995918367347	66	127
111.23442176870748	111.28086167800454	66	127
111.23442176870748	111.42018140589569	57	127
111.32730158730159	111.3853514739229	66	127
111.43179138321996	111.50145124716553	66	127
111.43179138321996	111.64077097505668	74	127
111.53628117913833	111.6059410430839	66	127
111.65238095238095	111.7336507936508	64	127
111.65238095238095	111.87297052154194	45	127
111.78009070294785	111.83814058956916	64	127
111.87297052154194	111.95424036281179	64	127
111.87297052154194	112.09356009070295	73	127
111.98907029478458	112.05873015873016	64	127
112.09356009070295	112.1748299319728	69	127
112.09356009070295	112.30253968253969	50	127
112.20965986394557	112.27931972789116	57	127
112.30253968253969	112.40702947845806	69	127
112.30253968253969	112.55795918367347	73	127
112.44185941043084	112.52312925170068	57	127
112.55795918367347	112.65083900226757	69	127
112.55795918367347	112.82498866213152	74	127
112.68566893424037	112.79015873015874	57	127
112.82498866213152	112.92947845804989	69	127
112.82498866213152	113.0804081632653	45	127
112.96430839002268	113.05718820861678	57	127
113.09201814058957	113.18489795918367	69	127
113.09201814058957	113.33582766439909	50	127
113.21972789115647	113.30099773242631	57	127
113.34743764172336	113.44031746031746	69	127
113.34743764172336	113.69573696145125	73	127
113.48675736961451	113.66090702947845	57	127
113.70734693877552	113.99759637188208	74	127
113.70734693877552	113.99759637188208	69	127
124.02861678004535	124.1098866213152	62	127
124.02861678004535	124.1098866213152	62	127
124.1098866213152	124.19115646258503	43	127
124.1098866213152	124.19115646258503	50	127
124.1098866213152	124.41174603174603	67	127
124.1098866213152	124.41174603174603	58	127
124.30725623582767	124.37691609977324	55	127
124.41174603174603	124.5162358276644	67	127
124.41174603174603	124.5162358276644	67	127
124.5162358276644	124.56267573696145	55	127
124.5162358276644	124.78326530612244	70	127
124.5162358276644	124.78326530612244	62	127
124.69038548752835	124.77165532879819	55	127
124.78326530612244	124.89936507936508	70	127
124.78326530612244	124.89936507936508	62	127
124.89936507936508	124.96902494331066	69	127
124.89936507936508	124.96902494331066	60	127
124.89936507936508	124.96902494331066	43	127
124.89936507936508	124.96902494331066	50	127
125.10834467120182	125.15478458049887	67	127
125.10834467120182	125.15478458049887	58	127
125.10834467120182	125.15478458049887	55	127
125.2708843537415	125.34054421768707	66	127
125.2708843537415	125.34054421768707	57	127
125.2708843537415	125.34054421768707	55	127
125.47986394557823	125.53791383219955	67	127
125.47986394557823	125.53791383219955	58	127
125.47986394557823	125.53791383219955	55	127
125.70045351473922	125.78172335600907	43	127
125.70045351473922	125.78172335600907	50	127
125.70045351473922	126.03714285714285	66	127
125.70045351473922	126.03714285714285	74	127
125.70045351473922	126.03714285714285	57	127
125.92104308390023	125.97909297052155	55	127
126.06036281179138	126.09519274376417	55	127
126.06036281179138	126.26934240362812	66	127
126.06036281179138	126.26934240362812	69	127
126.06036281179138	126.26934240362812	62	127
126.2112925170068	126.23451247165534	55	127
126.26934240362812	126.38544217687075	62	127
126.26934240362812	126.38544217687075	62	127
126.38544217687075	126.45510204081633	43	127
126.38544217687075	126.45510204081633	50	127
126.38544217687075	126.71052154195011	67	127
126.38544217687075	126.71052154195011	58	127
126.60603174603175	126.67569160997732	55	127
126.72213151927437	126.81501133786848	67	127
126.72213151927437	126.81501133786848	67	127
126.81501133786848	126.86145124716553	55	127
126.81501133786848	127.03560090702948	70	127
126.81501133786848	127.03560090702948	62	127
126.97755102040816	127.02399092970522	55	127
127.03560090702948	127.12848072562359	70	127
127.03560090702948	127.12848072562359	62	127
127.12848072562359	127.20975056689342	69	127
127.12848072562359	127.20975056689342	60	127
127.12848072562359	127.20975056689342	43	127
127.12848072562359	127.20975056689342	50	127
127.33746031746031	127.38390022675738	67	127
127.33746031746031	127.38390022675738	58	127
127.33746031746031	127.38390022675738	55	127
127.5	127.5348299319728	66	127
127.5	127.5348299319728	57	127
127.5	127.5348299319728	55	127
127.5928798185941	127.66253968253969	67	127
127.5928798185941	127.66253968253969	58	127
127.5928798185941	127.66253968253969	55	127
127.74380952380952	127.8134693877551	74	127
127.74380952380952	127.8134693877551	70	127
127.74380952380952	127.8134693877551	43	127
127.74380952380952	127.8134693877551	55	127
127.91795918367347	127.97600907029478	67	127
127.91795918367347	127.97600907029478	76	127
127.91795918367347	127.97600907029478	61	127
127.91795918367347	127.97600907029478	52	127
128.13854875283448	128.20820861678004	50	127
128.13854875283448	128.45199546485262	69	127
128.13854875283448	128.45199546485262	78	127
128.13854875283448	128.45199546485262	62	127
128.34750566893425	128.41718820861678	48	127
128.45199546485262	128.5448979591837	74	127
128.45199546485262	128.5448979591837	62	127
128.5448979591837	128.62616780045352	46	127
128.5448979591837	128.85834467120182	79	127
128.5448979591837	128.85834467120182	58	127
128.76548752834466	128.82353741496598	45	127
128.85834467120182	128.9628344671202	79	127
128.85834467120182	128.9628344671202	67	127
128.9628344671202	129.00927437641724	43	127
128.9628344671202	129.20666666666668	82	127
128.9628344671202	129.20666666666668	62	127
129.09056689342404	129.17183673469387	43	127
129.20666666666668	129.29954648526078	82	127
129.20666666666668	129.29954648526078	62	127
129.29954648526078	129.3808163265306	81	127
129.29954648526078	129.3808163265306	60	127
129.29954648526078	129.3808163265306	43	127
129.29954648526078	129.3808163265306	50	127
129.5085260770975	129.55496598639456	79	127
129.5085260770975	129.55496598639456	58	127
129.5085260770975	129.55496598639456	55	127
129.6942857142857	129.75233560090703	78	127
129.6942857142857	129.75233560090703	57	127
129.6942857142857	129.75233560090703	55	127
129.86843537414967	129.91487528344672	79	127
129.86843537414967	129.91487528344672	58	127
129.86843537414967	129.91487528344672	55	127
129.99614512471655	130.06580498866214	43	127
129.99614512471655	130.06580498866214	50	127
129.99614512471655	130.3328344671202	86	127
129.99614512471655	130.3328344671202	57	127
130.1702947845805	130.25156462585034	55	127
130.37927437641724	130.41410430839002	55	127
130.37927437641724	130.62308390022676	81	127
130.37927437641724	130.62308390022676	62	127
130.50698412698412	130.58825396825398	55	127
130.62308390022676	130.7507709750567	74	127
130.62308390022676	130.7507709750567	62	127
130.7507709750567	130.8320634920635	43	127
130.7507709750567	130.8320634920635	50	127
130.7507709750567	131.06426303854875	79	127
130.7507709750567	131.06426303854875	58	127
130.98299319727892	131.04104308390023	55	127
131.07587301587301	131.19197278911565	79	127
131.07587301587301	131.19197278911565	67	127
131.19197278911565	131.25002267573697	55	127
131.19197278911565	131.4241723356009	82	127
131.19197278911565	131.4241723356009	62	127
131.38934240362812	131.4241723356009	55	127
131.4241723356009	131.4938321995465	82	127
131.4241723356009	131.4938321995465	62	127
131.4938321995465	131.57510204081632	81	127
131.4938321995465	131.57510204081632	60	127
131.4938321995465	131.57510204081632	43	127
131.4938321995465	131.57510204081632	50	127
131.7144217687075	131.78408163265306	79	127
131.7144217687075	131.78408163265306	58	127
131.7144217687075	131.78408163265306	55	127
131.85374149659864	131.88857142857142	78	127
131.85374149659864	131.88857142857142	57	127
131.85374149659864	131.88857142857142	55	127
131.9930612244898	132.06272108843538	79	127
131.9930612244898	132.06272108843538	58	127
131.9930612244898	132.06272108843538	55	127
132.20204081632653	132.27170068027212	86	127
132.20204081632653	132.27170068027212	70	127
132.20204081632653	132.27170068027212	43	127
132.20204081632653	132.27170068027212	55	127
132.38777777777779	132.43421768707483	88	127
132.38777777777779	132.43421768707483	61	127
132.38777777777779	132.43421768707483	52	127
132.5271201814059	132.58517006802722	50	127
132.5271201814059	132.7825396825397	90	127
132.5271201814059	132.7825396825397	62	127
132.7128798185941	132.7825396825397	48	127
132.82897959183674	132.91024943310657	46	127
132.82897959183674	133.13083900226758	91	127
132.82897959183674	133.13083900226758	63	127
132.82897959183674	133.13083900226758	75	127
133.0263492063492	133.10761904761904	58	127
133.17727891156463	133.25854875283446	46	127
133.17727891156463	133.29337868480727	89	127
133.17727891156463	133.29337868480727	74	127
133.29337868480727	133.40945578231293	91	127
133.29337868480727	133.40945578231293	75	127
133.40945578231293	133.47913832199546	89	127
133.40945578231293	133.47913832199546	74	127
133.40945578231293	133.47913832199546	58	127
133.5952380952381	133.64167800453515	46	127
133.5952380952381	133.9087074829932	87	127
133.5952380952381	133.9087074829932	72	127
133.76938775510203	133.82743764172335	58	127
133.98997732426304	134.0015873015873	46	127
133.98997732426304	134.19895691609977	86	127
133.98997732426304	134.19895691609977	70	127
134.14090702947846	134.19895691609977	58	127
134.24539682539682	134.3266439909297	46	127
134.24539682539682	134.36149659863946	84	127
134.24539682539682	134.36149659863946	69	127
134.36149659863946	134.45437641723356	86	127
134.36149659863946	134.45437641723356	70	127
134.45437641723356	134.52403628117915	84	127
134.45437641723356	134.52403628117915	69	127
134.45437641723356	134.52403628117915	58	127
134.6633560090703	134.7330158730159	82	127
134.6633560090703	134.7330158730159	67	127
134.6633560090703	134.7330158730159	46	127
134.83748299319728	134.89555555555555	79	127
134.83748299319728	134.89555555555555	63	127
134.83748299319728	134.89555555555555	58	127
134.9768253968254	135.04646258503402	45	127
134.9768253968254	135.2554648526077	69	127
134.9768253968254	135.2554648526077	91	127
134.9768253968254	135.2554648526077	64	127
134.9768253968254	135.2554648526077	76	127
135.17419501133787	135.22063492063492	57	127
135.3251247165533	135.39478458049888	45	127
135.3251247165533	135.4180045351474	89	127
135.3251247165533	135.4180045351474	74	127
135.3251247165533	135.58054421768708	69	127
135.4180045351474	135.53410430839003	91	127
135.4180045351474	135.53410430839003	76	127
135.53410430839003	135.58054421768708	89	127
135.53410430839003	135.58054421768708	74	127
135.53410430839003	135.58054421768708	57	127
135.67342403628118	135.75469387755103	45	127
135.67342403628118	135.99850340136055	69	127
135.67342403628118	135.99850340136055	88	127
135.67342403628118	135.99850340136055	73	127
135.8824036281179	135.9520634920635	57	127
136.06814058956917	136.14943310657597	45	127
136.06814058956917	136.4512925170068	69	127
136.06814058956917	136.4512925170068	86	127
136.06814058956917	136.4512925170068	70	127
136.3003628117914	136.38163265306122	57	127
136.53256235827664	136.6138321995465	69	127
136.53256235827664	136.6138321995465	45	127
136.53256235827664	136.64866213151927	85	127
136.53256235827664	136.83439909297053	69	127
136.64866213151927	136.72990929705216	70	127
136.64866213151927	136.7647619047619	86	127
136.7647619047619	136.83439909297053	85	127
136.7647619047619	136.83439909297053	69	127
136.7647619047619	136.83439909297053	57	127
136.97374149659865	137.0434013605442	82	127
136.97374149659865	137.0434013605442	67	127
136.97374149659865	137.2059410430839	38	127
137.2059410430839	137.27560090702949	66	127
137.2059410430839	137.27560090702949	74	127
137.2059410430839	137.31043083900227	62	127
137.2059410430839	137.31043083900227	45	127
137.2059410430839	137.36848072562358	69	127
137.2059410430839	137.4265306122449	54	127
137.26399092970522	137.36848072562358	81	127
137.26399092970522	137.4265306122449	62	127
137.32204081632653	137.4265306122449	62	127
137.38009070294785	137.4265306122449	62	127
137.4265306122449	137.50780045351473	43	127
137.4265306122449	137.7515873015873	67	127
137.4265306122449	137.7515873015873	58	127
137.63551020408164	137.71678004535147	43	127
137.7515873015873	137.8677097505669	58	127
137.7515873015873	137.8677097505669	58	127
137.8677097505669	137.93736961451248	43	127
137.8677097505669	138.51784580498867	62	127
137.8677097505669	138.51784580498867	50	127
138.06507936507936	138.12312925170068	43	127
138.22761904761904	138.3088888888889	43	127
138.43659863945578	138.4946485260771	43	127
138.52947845804988	138.63396825396825	58	127
138.52947845804988	138.63396825396825	58	127
138.63396825396825	138.70362811791384	43	127
138.63396825396825	139.17963718820863	62	127
138.63396825396825	139.17963718820863	50	127
138.85455782312926	138.92421768707484	43	127
139.17963718820863	139.2492970521542	62	127
139.17963718820863	139.2492970521542	57	127
139.17963718820863	139.2492970521542	43	127
139.3421768707483	139.41183673469388	66	127
139.3421768707483	139.41183673469388	62	127
139.3421768707483	139.41183673469388	43	127
139.5395238095238	139.57437641723357	69	127
139.5395238095238	139.57437641723357	50	127
139.5395238095238	139.57437641723357	43	127
139.60920634920635	139.72530612244898	60	127
139.60920634920635	139.72530612244898	62	127
139.72530612244898	139.8065759637188	43	127
139.72530612244898	139.98072562358277	67	127
139.72530612244898	139.98072562358277	58	127
139.91106575963718	139.98072562358277	43	127
139.98072562358277	140.01555555555555	58	127
139.98072562358277	140.01555555555555	58	127
140.01555555555555	140.07360544217687	43	127
140.01555555555555	140.70054421768708	62	127
140.01555555555555	140.74698412698413	50	127
140.16648526077097	140.20131519274378	43	127
140.36385487528344	140.4451247165533	43	127
140.5960544217687	140.67732426303854	43	127
140.70054421768708	140.81662131519275	58	127
140.81662131519275	140.86308390022677	43	127
140.81662131519275	141.18816326530612	62	127
140.81662131519275	141.28102040816327	50	127
140.9443537414966	141.0140136054422	43	127
141.11850340136056	141.18816326530612	43	127
141.28102040816327	141.36231292517007	67	127
141.28102040816327	141.36231292517007	64	127
141.28102040816327	141.36231292517007	43	127
141.49002267573695	141.52485260770976	69	127
141.49002267573695	141.52485260770976	66	127
141.49002267573695	141.52485260770976	43	127
141.67578231292518	141.72222222222223	74	127
141.67578231292518	141.72222222222223	43	127
141.67578231292518	141.757052154195	62	127
141.76866213151928	141.88476190476192	74	127
141.76866213151928	141.88476190476192	62	127
141.88476190476192	141.94278911564626	43	127
141.88476190476192	142.12857142857143	67	127
141.88476190476192	142.12857142857143	58	127
142.03569160997733	142.11696145124716	43	127
142.12857142857143	142.19820861678005	58	127
142.12857142857143	142.19820861678005	58	127
142.19820861678005	142.2330612244898	43	127
142.19820861678005	142.8251700680272	62	127
142.19820861678005	142.8251700680272	50	127
142.36077097505668	142.44204081632654	43	127
142.5581179138322	142.61619047619047	43	127
142.75551020408165	142.8019501133787	43	127
142.83678004535147	142.9528798185941	58	127
142.83678004535147	142.9528798185941	58	127
142.9528798185941	143.02253968253967	43	127
142.9528798185941	143.25473922902495	50	127
142.9528798185941	143.55659863945579	62	127
143.1154195011338	143.17344671201815	43	127
143.33600907029478	143.40566893424037	43	127
143.55659863945579	143.6146485260771	62	127
143.55659863945579	143.6146485260771	57	127
143.55659863945579	143.6146485260771	43	127
143.7075283446712	143.76557823129252	66	127
143.7075283446712	143.76557823129252	62	127
143.7075283446712	143.76557823129252	43	127
143.8932879818594	143.9281179138322	69	127
143.8932879818594	143.9281179138322	50	127
143.8932879818594	143.9281179138322	43	127
143.95133786848072	144.03260770975058	62	127
144.03260770975058	144.09063492063493	43	127
144.03260770975058	144.31124716553288	67	127
144.03260770975058	144.31124716553288	59	127
144.1951247165533	144.25319727891156	43	127
144.38090702947846	144.43895691609978	43	127
144.38090702947846	145.06589569160997	67	127
144.38090702947846	145.06589569160997	55	127
144.5202267573696	144.5898866213152	43	127
144.75240362811792	144.81047619047618	43	127
144.9381859410431	144.9962358276644	43	127
145.13555555555556	145.20521541950114	43	127
145.13555555555556	145.80893424036282	60	127
145.13555555555556	145.80893424036282	48	127
145.28648526077097	145.3445351473923	43	127
145.4374149659864	145.51868480725625	43	127
145.6580045351474	145.73927437641723	43	127
145.86698412698414	145.9366439909297	43	127
145.86698412698414	146.21528344671202	55	127
145.86698412698414	146.21528344671202	55	127
146.08755102040817	146.13399092970522	43	127
146.2849433106576	146.33138321995466	43	127
146.4707029478458	146.52875283446713	43	127
146.656462585034	146.76095238095238	67	127
146.656462585034	146.76095238095238	55	127
146.656462585034	146.73773242630386	43	127
146.85380952380953	146.90024943310658	43	127
146.98154195011338	147.0628117913832	43	127
147.15566893424037	147.23696145124717	43	127
147.37628117913832	147.4459410430839	43	127
147.37628117913832	147.49238095238096	60	127
147.37628117913832	147.49238095238096	48	127
147.57365079365078	147.64331065759637	43	127
147.78263038548752	147.81746031746033	43	127
147.89873015873016	147.96839002267575	43	127
148.11931972789117	148.200589569161	43	127
148.11931972789117	148.23541950113378	55	127
148.11931972789117	148.23541950113378	55	127
148.30507936507937	148.37473922902495	43	127
148.52566893424037	148.5837188208617	43	127
148.68820861678006	148.7694784580499	43	127
148.93201814058958	148.97845804988663	43	127
148.93201814058958	149.0016553287982	60	127
148.93201814058958	149.0016553287982	48	127
149.09455782312926	149.16421768707482	43	127
149.29192743764173	149.34997732426305	43	127
149.4196371882086	149.45446712018142	43	127
149.61700680272108	149.68666666666667	43	127
149.61700680272108	149.72149659863945	55	127
149.61700680272108	149.72149659863945	55	127
149.84920634920636	149.93047619047618	43	127
150.0697732426304	150.1510657596372	43	127
150.3019954648526	150.3716553287982	43	127
150.5341723356009	150.61546485260772	43	127
150.5341723356009	150.63868480725623	60	127
150.5341723356009	150.63868480725623	48	127
150.76639455782313	150.84766439909296	43	127
150.99859410430838	151.0566439909297	43	127
151.07986394557824	151.1495238095238	43	127
151.32367346938776	151.41655328798186	43	127
151.32367346938776	151.4513605442177	60	127
151.32367346938776	151.4513605442177	48	127
151.57909297052154	151.69519274376418	43	127
151.83451247165533	151.95061224489797	43	127
152.1595918367347	152.22925170068027	43	127
152.4265986394558	152.51950113378686	43	127
152.4265986394558	152.5775283446712	60	127
152.4265986394558	152.5775283446712	48	127
152.62399092970523	152.68201814058958	43	127
152.89102040816326	152.97229024943312	43	127
153.16965986394558	153.28575963718822	43	127
153.5063492063492	153.70369614512472	55	127
153.5063492063492	153.70369614512472	50	127
153.5063492063492	153.8894784580499	43	127
154.56285714285715	154.9227664399093	78	127
154.56285714285715	154.9227664399093	69	127
154.56285714285715	154.9227664399093	50	127
154.56285714285715	155.23621315192744	62	127
154.9227664399093	155.23621315192744	79	127
154.9227664399093	155.23621315192744	71	127
154.9227664399093	155.23621315192744	47	127
155.24784580498866	155.48004535147393	74	127
155.24784580498866	155.48004535147393	67	127
155.24784580498866	155.48004535147393	71	127
155.24784580498866	155.48004535147393	43	127
155.66580498866213	155.79351473922904	76	127
155.66580498866213	155.79351473922904	67	127
155.66580498866213	155.79351473922904	72	127
155.66580498866213	155.79351473922904	36	127
155.66580498866213	155.79351473922904	43	127
155.8399546485261	156.3043537414966	76	127
155.8399546485261	156.3043537414966	67	127
155.8399546485261	156.3043537414966	72	127
155.8399546485261	156.3043537414966	48	127
156.3043537414966	156.45528344671203	74	127
156.3043537414966	156.45528344671203	67	127
156.3043537414966	156.45528344671203	71	127
156.3043537414966	156.45528344671203	43	127
156.3043537414966	156.45528344671203	50	127
156.46689342403627	156.98934240362811	74	127
156.46689342403627	156.98934240362811	67	127
156.46689342403627	156.98934240362811	71	127
156.46689342403627	156.98934240362811	55	127
156.98934240362811	157.0822222222222	72	127
156.98934240362811	157.16349206349207	50	127
156.98934240362811	157.16349206349207	57	127
156.98934240362811	157.54662131519274	66	127
156.98934240362811	157.54662131519274	69	127
157.0822222222222	157.2215419501134	74	127
157.2215419501134	157.54662131519274	72	127
157.2215419501134	157.73238095238096	62	127
157.54662131519274	157.73238095238096	71	127
157.54662131519274	157.73238095238096	67	127
157.73238095238096	158.41736961451247	71	127
157.73238095238096	158.41736961451247	67	127
157.73238095238096	158.41736961451247	43	127
158.80049886621316	159.07913832199546	78	127
158.80049886621316	159.07913832199546	69	127
158.80049886621316	159.07913832199546	50	127
158.80049886621316	159.4158276643991	62	127
159.07913832199546	159.4158276643991	79	127
159.07913832199546	159.4158276643991	71	127
159.07913832199546	159.4158276643991	47	127
159.4158276643991	159.54353741496598	74	127
159.4158276643991	159.54353741496598	67	127
159.4158276643991	159.54353741496598	71	127
159.4158276643991	159.54353741496598	43	127
159.77573696145126	159.90344671201814	76	127
159.77573696145126	159.90344671201814	62	127
159.77573696145126	159.90344671201814	71	127
159.77573696145126	159.90344671201814	43	127
159.77573696145126	159.90344671201814	50	127
159.9150566893424	160.40267573696144	76	127
159.9150566893424	160.40267573696144	62	127
159.9150566893424	160.40267573696144	71	127
159.9150566893424	160.40267573696144	55	127
160.4142857142857	160.54199546485262	81	127
160.4142857142857	160.54199546485262	62	127
160.4142857142857	160.54199546485262	69	127
160.4142857142857	160.54199546485262	54	127
160.55358276643992	161.11086167800454	81	127
160.55358276643992	161.11086167800454	62	127
160.55358276643992	161.11086167800454	69	127
160.55358276643992	161.11086167800454	42	127
161.1689342403628	161.26181405895693	79	127
161.1689342403628	161.26181405895693	73	127
161.1689342403628	161.3314739229025	40	127
161.1689342403628	161.3314739229025	45	127
161.1689342403628	161.76104308390023	69	127
161.26181405895693	161.34308390022676	81	127
161.26181405895693	161.34308390022676	74	127
161.34308390022676	161.4243537414966	79	127
161.34308390022676	161.4243537414966	73	127
161.34308390022676	161.84231292517006	52	127
161.4243537414966	161.4824036281179	81	127
161.4243537414966	161.4824036281179	74	127
161.4824036281179	161.58689342403628	79	127
161.4824036281179	161.58689342403628	73	127
161.58689342403628	161.71460317460318	81	127
161.58689342403628	161.71460317460318	74	127
161.71460317460318	161.78426303854874	78	127
161.71460317460318	161.78426303854874	71	127
161.78426303854874	161.84231292517006	79	127
161.78426303854874	161.84231292517006	73	127
161.85392290249433	162.5273015873016	69	127
161.85392290249433	162.5273015873016	78	127
161.85392290249433	162.5273015873016	74	127
161.85392290249433	162.5273015873016	38	127
163.03814058956917	163.32839002267573	78	127
163.03814058956917	163.32839002267573	69	127
163.03814058956917	163.32839002267573	50	127
163.03814058956917	163.66507936507938	62	127
163.32839002267573	163.66507936507938	79	127
163.32839002267573	163.66507936507938	71	127
163.32839002267573	163.66507936507938	47	127
163.66507936507938	163.781179138322	74	127
163.66507936507938	163.781179138322	67	127
163.66507936507938	163.781179138322	71	127
163.66507936507938	163.781179138322	43	127
163.9785260770975	164.12945578231293	76	127
163.9785260770975	164.12945578231293	67	127
163.9785260770975	164.12945578231293	72	127
163.9785260770975	164.12945578231293	36	127
163.9785260770975	164.12945578231293	43	127
164.14108843537414	164.67514739229026	76	127
164.14108843537414	164.67514739229026	67	127
164.14108843537414	164.67514739229026	72	127
164.14108843537414	164.67514739229026	48	127
164.7215873015873	164.86090702947845	74	127
164.7215873015873	164.86090702947845	67	127
164.7215873015873	164.86090702947845	71	127
164.7215873015873	164.86090702947845	43	127
164.7215873015873	164.86090702947845	50	127
164.87251700680272	165.33691609977325	74	127
164.87251700680272	165.33691609977325	67	127
164.87251700680272	165.33691609977325	71	127
164.87251700680272	165.33691609977325	55	127
165.34852607709752	165.4530158730159	72	127
165.34852607709752	165.51104308390023	50	127
165.34852607709752	165.51104308390023	57	127
165.34852607709752	165.83614512471655	66	127
165.34852607709752	165.83614512471655	69	127
165.4530158730159	165.52267573696145	74	127
165.52267573696145	165.83614512471655	72	127
165.52267573696145	165.9754648526077	62	127
165.83614512471655	165.9754648526077	71	127
165.83614512471655	165.9754648526077	67	127
165.98707482993197	166.73011337868482	71	127
165.98707482993197	166.73011337868482	67	127
165.98707482993197	166.73011337868482	43	127
167.12485260770976	167.44990929705216	78	127
167.12485260770976	167.44990929705216	69	127
167.12485260770976	167.44990929705216	50	127
167.12485260770976	167.7401814058957	62	127
167.44990929705216	167.7401814058957	79	127
167.44990929705216	167.7401814058957	71	127
167.44990929705216	167.7401814058957	47	127
167.7401814058957	167.9259410430839	74	127
167.7401814058957	167.9259410430839	67	127
167.7401814058957	167.9259410430839	71	127
167.7401814058957	167.9259410430839	43	127
168.11170068027212	168.239410430839	76	127
168.11170068027212	168.239410430839	62	127
168.11170068027212	168.239410430839	71	127
168.11170068027212	168.239410430839	43	127
168.11170068027212	168.239410430839	50	127
168.239410430839	168.75024943310657	76	127
168.239410430839	168.75024943310657	62	127
168.239410430839	168.75024943310657	71	127
168.239410430839	168.75024943310657	55	127
168.76185941043084	168.97083900226758	81	127
168.76185941043084	168.97083900226758	62	127
168.76185941043084	168.97083900226758	69	127
168.76185941043084	168.97083900226758	54	127
168.97083900226758	169.49328798185942	81	127
168.97083900226758	169.49328798185942	62	127
168.97083900226758	169.49328798185942	69	127
168.97083900226758	169.49328798185942	42	127
169.51650793650794	169.60938775510203	79	127
169.51650793650794	169.60938775510203	73	127
169.51650793650794	169.67904761904762	40	127
169.51650793650794	169.67904761904762	45	127
169.51650793650794	170.21308390022676	69	127
169.60938775510203	169.67904761904762	81	127
169.60938775510203	169.67904761904762	74	127
169.67904761904762	169.9344671201814	79	127
169.67904761904762	169.9344671201814	73	127
169.67904761904762	170.29437641723356	52	127
169.9344671201814	170.01573696145124	81	127
169.9344671201814	170.01573696145124	74	127
170.01573696145124	170.08539682539683	79	127
170.01573696145124	170.08539682539683	73	127
170.08539682539683	170.16666666666666	81	127
170.08539682539683	170.16666666666666	74	127
170.16666666666666	170.23632653061225	78	127
170.16666666666666	170.23632653061225	71	127
170.23632653061225	170.29437641723356	79	127
170.23632653061225	170.29437641723356	73	127
170.30598639455783	171.30444444444444	69	127
170.30598639455783	171.30444444444444	78	127
170.30598639455783	171.30444444444444	74	127
170.30598639455783	171.30444444444444	38	127
171.4089342403628	171.90816326530611	43	127
171.90816326530611	172.22163265306122	62	127
171.90816326530611	172.22163265306122	70	127
171.90816326530611	172.22163265306122	55	127
171.90816326530611	172.22163265306122	62	127
172.2332426303855	172.74408163265306	55	127
172.74408163265306	173.03433106575963	67	127
172.74408163265306	173.03433106575963	70	127
172.74408163265306	173.03433106575963	55	127
172.74408163265306	173.03433106575963	62	127
173.0459410430839	173.37102040816328	51	127
173.37102040816328	173.71931972789116	67	127
173.37102040816328	173.71931972789116	72	127
173.37102040816328	173.71931972789116	55	127
173.37102040816328	173.71931972789116	63	127
173.75414965986394	174.0908390022676	48	127
174.0908390022676	174.40428571428572	67	127
174.0908390022676	174.40428571428572	75	127
174.0908390022676	174.40428571428572	55	127
174.0908390022676	174.40428571428572	63	127
174.41591836734693	174.78743764172336	53	127
174.78743764172336	175.11251700680273	69	127
174.78743764172336	175.11251700680273	72	127
174.78743764172336	175.11251700680273	57	127
174.78743764172336	175.11251700680273	65	127
175.12412698412697	175.41437641723357	46	127
175.41437641723357	175.84394557823128	65	127
175.41437641723357	175.84394557823128	74	127
175.41437641723357	175.84394557823128	58	127
175.41437641723357	175.84394557823128	65	127
175.85555555555555	176.11097505668934	51	127
176.11097505668934	176.51732426303855	67	127
176.11097505668934	176.51732426303855	70	127
176.11097505668934	176.51732426303855	55	127
176.11097505668934	176.51732426303855	63	127
176.52893424036282	176.88884353741497	45	127
176.88884353741497	177.21390022675737	63	127
176.88884353741497	177.21390022675737	72	127
176.88884353741497	177.21390022675737	57	127
176.88884353741497	177.21390022675737	63	127
177.2255328798186	177.57380952380953	50	127
177.57380952380953	177.89891156462585	66	127
177.57380952380953	177.89891156462585	69	127
177.57380952380953	177.89891156462585	57	127
177.57380952380953	177.89891156462585	62	127
177.89891156462585	178.20077097505668	43	127
178.21238095238095	178.6419501133787	62	127
178.21238095238095	178.6419501133787	70	127
178.21238095238095	178.6419501133787	55	127
178.21238095238095	178.6419501133787	62	127
178.6419501133787	179.03668934240363	45	127
179.0482993197279	179.38498866213152	67	127
179.0482993197279	179.38498866213152	73	127
179.0482993197279	179.38498866213152	57	127
179.0482993197279	179.38498866213152	64	127
179.38498866213152	179.57074829931972	50	127
179.38498866213152	179.57074829931972	38	127
179.38498866213152	179.7681179138322	57	127
179.38498866213152	179.7681179138322	66	127
179.38498866213152	179.7681179138322	74	127
179.38498866213152	179.7681179138322	57	127
179.38498866213152	179.7681179138322	45	127
179.4894784580499	179.7681179138322	62	127
179.4894784580499	179.7681179138322	50	127
180.10480725623583	180.24412698412698	62	127
180.10480725623583	180.24412698412698	74	127
180.10480725623583	180.24412698412698	50	127
180.10480725623583	180.24412698412698	62	127
180.24412698412698	180.3718367346939	62	127
180.24412698412698	180.3718367346939	74	127
180.24412698412698	180.3718367346939	50	127
180.24412698412698	180.3718367346939	62	127
180.38342403628118	180.7085260770975	50	127
180.38342403628118	180.99875283446713	62	127
180.38342403628118	180.99875283446713	74	127
180.38342403628118	180.99875283446713	50	127
180.38342403628118	180.99875283446713	62	127
180.7085260770975	180.98716553287983	47	127
180.99875283446713	181.2077551020408	43	127
180.99875283446713	181.38190476190476	71	127
180.99875283446713	181.38190476190476	79	127
180.99875283446713	181.38190476190476	59	127
180.99875283446713	181.38190476190476	67	127
181.38190476190476	181.63732426303855	72	127
181.38190476190476	181.63732426303855	79	127
181.38190476190476	181.63732426303855	64	127
181.38190476190476	181.63732426303855	67	127
181.38190476190476	181.63732426303855	36	127
181.38190476190476	181.63732426303855	43	127
181.63732426303855	182.04367346938776	72	127
181.63732426303855	182.04367346938776	79	127
181.63732426303855	182.04367346938776	64	127
181.63732426303855	182.04367346938776	67	127
181.63732426303855	182.04367346938776	48	127
182.04367346938776	182.2178231292517	71	127
182.04367346938776	182.2178231292517	79	127
182.04367346938776	182.2178231292517	62	127
182.04367346938776	182.2178231292517	67	127
182.04367346938776	182.2178231292517	43	127
182.04367346938776	182.2178231292517	50	127
182.2178231292517	182.69383219954648	71	127
182.2178231292517	182.69383219954648	79	127
182.2178231292517	182.69383219954648	62	127
182.2178231292517	182.69383219954648	67	127
182.2178231292517	182.69383219954648	55	127
182.69383219954648	182.8447619047619	78	127
182.69383219954648	182.94925170068026	50	127
182.69383219954648	182.94925170068026	57	127
182.69383219954648	183.2859410430839	69	127
182.69383219954648	183.2859410430839	62	127
182.69383219954648	183.2859410430839	69	127
182.8447619047619	182.94925170068026	79	127
182.94925170068026	183.03052154195012	78	127
182.94925170068026	183.4484807256236	62	127
183.03052154195012	183.10018140589568	79	127
183.10018140589568	183.1930612244898	76	127
183.1930612244898	183.2975283446712	78	127
183.2975283446712	183.35560090702947	76	127
183.2975283446712	183.4484807256236	67	127
183.35560090702947	183.4484807256236	78	127
183.4484807256236	184.00575963718822	71	127
183.4484807256236	184.00575963718822	79	127
183.4484807256236	184.00575963718822	59	127
183.4484807256236	184.00575963718822	67	127
183.4484807256236	184.00575963718822	43	127
184.14507936507937	184.31920634920635	62	127
184.14507936507937	184.31920634920635	74	127
184.14507936507937	184.31920634920635	62	127
184.31920634920635	184.47015873015874	62	127
184.31920634920635	184.47015873015874	74	127
184.31920634920635	184.47015873015874	62	127
184.48176870748298	184.78360544217688	50	127
184.48176870748298	185.06226757369615	62	127
184.48176870748298	185.06226757369615	74	127
184.48176870748298	185.06226757369615	62	127
184.78360544217688	185.05065759637188	47	127
185.06226757369615	185.13192743764174	50	127
185.06226757369615	185.13192743764174	59	127
185.06226757369615	185.15514739229025	43	127
185.06226757369615	185.54986394557824	71	127
185.06226757369615	185.54986394557824	79	127
185.13192743764174	185.41056689342403	50	127
185.13192743764174	185.54986394557824	59	127
185.13192743764174	185.54986394557824	67	127
185.54986394557824	185.68920634920636	67	127
185.54986394557824	185.68920634920636	79	127
185.54986394557824	185.68920634920636	67	127
185.68920634920636	185.81691609977324	67	127
185.68920634920636	185.81691609977324	79	127
185.68920634920636	185.81691609977324	67	127
185.8285260770975	186.09555555555556	55	127
185.8285260770975	186.37419501133786	67	127
185.8285260770975	186.37419501133786	79	127
185.8285260770975	186.37419501133786	67	127
186.09555555555556	186.35097505668935	52	127
186.37419501133786	186.47868480725623	48	127
186.37419501133786	186.51351473922904	55	127
186.37419501133786	186.6528344671202	76	127
186.37419501133786	186.6528344671202	84	127
186.37419501133786	186.6528344671202	64	127
186.45546485260772	186.6528344671202	72	127
186.6528344671202	186.73410430839002	81	127
186.6528344671202	186.73410430839002	72	127
186.6528344671202	186.8037641723356	50	127
186.6528344671202	187.1520634920635	62	127
186.73410430839002	186.8037641723356	83	127
186.73410430839002	186.8037641723356	74	127
186.8037641723356	186.8734240362812	81	127
186.8037641723356	186.8734240362812	72	127
186.8037641723356	187.47714285714287	50	127
186.8734240362812	186.95469387755102	83	127
186.8734240362812	186.95469387755102	74	127
186.95469387755102	187.0243537414966	81	127
186.95469387755102	187.0243537414966	72	127
187.0243537414966	187.10562358276644	83	127
187.0243537414966	187.10562358276644	74	127
187.10562358276644	187.17528344671203	79	127
187.10562358276644	187.17528344671203	71	127
187.17528344671203	187.47714285714287	81	127
187.17528344671203	187.47714285714287	72	127
187.47714285714287	188.46396825396826	79	127
187.47714285714287	188.46396825396826	62	127
187.47714285714287	188.46396825396826	71	127
187.47714285714287	188.46396825396826	43	127
187.47714285714287	188.46396825396826	50	127
188.61489795918368	189.0677097505669	43	127
189.09092970521542	189.54371882086167	62	127
189.09092970521542	189.54371882086167	70	127
189.09092970521542	189.54371882086167	55	127
189.09092970521542	189.54371882086167	62	127
189.54371882086167	189.83396825396827	55	127
189.8455782312925	190.2287074829932	67	127
189.8455782312925	190.2287074829932	70	127
189.8455782312925	190.2287074829932	55	127
189.8455782312925	190.2287074829932	62	127
190.2287074829932	190.5421768707483	51	127
190.55378684807258	190.92530612244897	67	127
190.55378684807258	190.92530612244897	72	127
190.55378684807258	190.92530612244897	55	127
190.55378684807258	190.92530612244897	63	127
190.92530612244897	191.30843537414967	48	127
191.32004535147394	191.66834467120182	67	127
191.32004535147394	191.66834467120182	75	127
191.32004535147394	191.66834467120182	55	127
191.32004535147394	191.66834467120182	63	127
191.66834467120182	192.00503401360544	53	127
192.00503401360544	192.31850340136054	69	127
192.00503401360544	192.31850340136054	72	127
192.00503401360544	192.31850340136054	57	127
192.00503401360544	192.31850340136054	65	127
192.31850340136054	192.64358276643992	46	127
192.65519274376416	193.07315192743764	65	127
192.65519274376416	193.07315192743764	74	127
192.65519274376416	193.07315192743764	58	127
192.65519274376416	193.07315192743764	65	127
193.07315192743764	193.398231292517	51	127
193.40984126984128	193.81619047619049	67	127
193.40984126984128	193.81619047619049	70	127
193.40984126984128	193.81619047619049	55	127
193.40984126984128	193.81619047619049	63	127
193.81619047619049	194.21092970521542	45	127
194.2225396825397	194.54761904761904	63	127
194.2225396825397	194.54761904761904	72	127
194.2225396825397	194.54761904761904	57	127
194.2225396825397	194.54761904761904	63	127
194.54761904761904	194.88430839002268	50	127
194.89591836734695	195.17455782312925	66	127
194.89591836734695	195.17455782312925	69	127
194.89591836734695	195.17455782312925	57	127
194.89591836734695	195.17455782312925	62	127
195.17455782312925	195.56929705215418	43	127
195.58090702947845	195.87115646258502	70	127
195.58090702947845	195.87115646258502	62	127
195.58090702947845	195.87115646258502	62	127
195.58090702947845	195.87115646258502	55	127
195.87115646258502	196.20784580498866	45	127
196.21945578231293	196.62580498866214	73	127
196.21945578231293	196.62580498866214	57	127
196.21945578231293	196.62580498866214	67	127
196.21945578231293	196.62580498866214	64	127
196.62580498866214	197.0785941043084	57	127
196.62580498866214	197.0785941043084	66	127
196.62580498866214	197.0785941043084	74	127
196.62580498866214	197.0785941043084	57	127
196.62580498866214	197.0785941043084	45	127
196.62580498866214	196.92766439909298	50	127
196.62580498866214	196.92766439909298	38	127
196.83478458049888	197.0785941043084	62	127
196.83478458049888	197.0785941043084	50	127
197.40367346938777	197.53138321995465	74	127
197.40367346938777	197.53138321995465	50	127
197.40367346938777	197.53138321995465	62	127
197.40367346938777	197.53138321995465	62	127
197.54299319727892	197.7055328798186	62	127
197.54299319727892	197.7055328798186	74	127
197.54299319727892	197.7055328798186	50	127
197.54299319727892	197.7055328798186	62	127
197.7055328798186	198.40213151927438	50	127
197.7055328798186	198.40213151927438	62	127
197.7055328798186	198.08866213151927	50	127
197.7055328798186	198.40213151927438	74	127
197.7055328798186	198.40213151927438	62	127
198.08866213151927	198.40213151927438	47	127
198.40213151927438	198.7968707482993	71	127
198.40213151927438	198.7968707482993	67	127
198.40213151927438	198.7968707482993	59	127
198.40213151927438	198.59950113378684	43	127
198.40213151927438	198.7968707482993	79	127
198.80848072562358	199.00585034013605	64	127
198.80848072562358	199.00585034013605	36	127
198.80848072562358	199.00585034013605	72	127
198.80848072562358	199.00585034013605	79	127
198.80848072562358	199.00585034013605	67	127
198.80848072562358	199.00585034013605	43	127
199.01746031746032	199.44702947845806	79	127
199.01746031746032	199.44702947845806	48	127
199.01746031746032	199.44702947845806	67	127
199.01746031746032	199.44702947845806	72	127
199.01746031746032	199.44702947845806	64	127
199.47024943310657	199.59795918367348	62	127
199.47024943310657	199.59795918367348	67	127
199.47024943310657	199.59795918367348	43	127
199.47024943310657	199.59795918367348	71	127
199.47024943310657	199.59795918367348	79	127
199.47024943310657	199.59795918367348	50	127
199.60956916099772	200.10879818594105	55	127
199.60956916099772	200.10879818594105	71	127
199.60956916099772	200.10879818594105	67	127
199.60956916099772	200.10879818594105	62	127
199.60956916099772	200.10879818594105	79	127
200.1204081632653	200.30616780045352	50	127
200.1204081632653	200.30616780045352	57	127
200.1204081632653	200.724126984127	69	127
200.1204081632653	200.724126984127	69	127
200.1204081632653	200.724126984127	62	127
200.1204081632653	200.21328798185942	78	127
200.21328798185942	200.32938775510203	79	127
200.32938775510203	200.45709750566894	78	127
200.32938775510203	200.86344671201815	62	127
200.45709750566894	200.51514739229026	79	127
200.51514739229026	200.64285714285714	76	127
200.64285714285714	200.724126984127	78	127
200.724126984127	200.80539682539683	76	127
200.724126984127	200.86344671201815	67	127
200.80539682539683	200.86344671201815	78	127
200.87505668934241	201.52521541950114	79	127
200.87505668934241	201.52521541950114	43	127
200.87505668934241	201.52521541950114	67	127
200.87505668934241	201.52521541950114	71	127
200.87505668934241	201.52521541950114	59	127
201.61809523809524	201.76902494331065	62	127
201.61809523809524	201.76902494331065	74	127
201.61809523809524	201.76902494331065	62	127
201.78063492063492	201.9431746031746	62	127
201.78063492063492	201.9431746031746	74	127
201.78063492063492	201.9431746031746	62	127
201.9431746031746	202.6281632653061	74	127
201.9431746031746	202.6281632653061	62	127
201.9431746031746	202.27986394557823	50	127
201.9431746031746	202.6281632653061	62	127
202.27986394557823	202.6281632653061	47	127
202.6281632653061	202.73265306122448	59	127
202.6281632653061	202.73265306122448	50	127
202.6281632653061	202.75587301587302	43	127
202.6281632653061	203.09256235827664	71	127
202.6281632653061	203.09256235827664	79	127
202.73265306122448	203.09256235827664	67	127
202.73265306122448	202.81392290249434	50	127
202.73265306122448	203.09256235827664	59	127
203.1041723356009	203.2318820861678	67	127
203.1041723356009	203.2318820861678	67	127
203.1041723356009	203.2318820861678	79	127
203.24349206349206	203.37120181405896	67	127
203.24349206349206	203.37120181405896	79	127
203.24349206349206	203.37120181405896	67	127
203.37120181405896	204.05619047619047	79	127
203.37120181405896	204.05619047619047	67	127
203.37120181405896	203.7427210884354	55	127
203.37120181405896	204.05619047619047	67	127
203.7427210884354	204.05619047619047	52	127
204.05619047619047	204.21873015873015	55	127
204.05619047619047	204.3928798185941	84	127
204.05619047619047	204.3928798185941	76	127
204.05619047619047	204.3928798185941	64	127
204.05619047619047	204.16068027210883	48	127
204.12585034013605	204.3928798185941	72	127
204.40448979591838	204.75278911564627	50	127
204.40448979591838	205.15913832199547	62	127
204.40448979591838	204.68312925170068	72	127
204.40448979591838	204.68312925170068	81	127
204.68312925170068	204.76439909297054	74	127
204.68312925170068	204.76439909297054	83	127
204.76439909297054	204.84566893424036	81	127
204.76439909297054	204.84566893424036	72	127
204.76439909297054	205.29845804988662	50	127
204.84566893424036	204.91532879818595	74	127
204.84566893424036	204.91532879818595	83	127
204.91532879818595	205.03142857142856	72	127
204.91532879818595	205.03142857142856	81	127
205.03142857142856	205.10108843537415	83	127
205.03142857142856	205.10108843537415	74	127
205.10108843537415	205.18235827664398	79	127
205.10108843537415	205.18235827664398	71	127
205.18235827664398	205.29845804988662	81	127
205.18235827664398	205.29845804988662	72	127
205.32167800453516	207.15605442176872	50	127
205.32167800453516	207.15605442176872	62	127
205.32167800453516	207.15605442176872	71	127
205.32167800453516	207.15605442176872	79	127
205.32167800453516	207.15605442176872	43	127
207.67850340136056	208.54925170068026	67	127
207.67850340136056	208.54925170068026	71	127
208.65374149659863	209.1065306122449	55	127
208.65374149659863	209.03687074829932	64	127
209.1065306122449	209.44321995464853	64	127
209.1065306122449	209.28068027210884	67	127
209.44321995464853	209.75668934240363	67	127
209.44321995464853	209.67541950113377	71	127
209.75668934240363	210.90607709750566	69	127
209.75668934240363	210.90607709750566	72	127
210.91768707482993	211.35886621315194	74	127
210.91768707482993	211.35886621315194	71	127
211.47496598639455	211.6491156462585	72	127
211.47496598639455	211.6491156462585	69	127
211.80004535147393	212.84494331065758	67	127
211.80004535147393	212.84494331065758	71	127
212.9378231292517	213.11197278911564	65	127
212.9378231292517	213.11197278911564	69	127
213.26290249433106	213.49510204081633	67	127
213.26290249433106	213.49510204081633	71	127
213.61120181405894	213.8550113378685	69	127
213.61120181405894	213.8550113378685	72	127
214.0059410430839	214.95795918367347	64	127
214.0059410430839	214.95795918367347	67	127
214.95795918367347	215.80548752834468	63	127
214.95795918367347	215.80548752834468	66	127
216.75750566893424	217.24512471655328	62	127
216.75750566893424	217.24512471655328	66	127
217.24512471655328	217.41927437641723	50	127
217.24512471655328	217.41927437641723	59	127
217.5469841269841	217.86045351473922	52	127
217.5469841269841	217.86045351473922	61	127
217.8024036281179	218.2784126984127	71	127
217.98816326530613	218.19714285714286	62	127
217.98816326530613	218.19714285714286	54	127
218.2784126984127	219.5903401360544	55	127
218.2784126984127	219.5903401360544	64	127
218.2784126984127	218.62671201814058	61	127
218.62671201814058	219.05628117913832	62	127
219.05628117913832	219.5903401360544	64	127
219.5903401360544	219.91541950113378	62	127
219.5903401360544	219.9038095238095	54	127
219.5903401360544	219.9038095238095	66	127
219.91541950113378	220.2869387755102	67	127
219.91541950113378	220.2869387755102	61	127
219.91541950113378	220.2869387755102	52	127
220.34498866213153	221.1112471655329	66	127
220.34498866213153	221.1112471655329	62	127
220.34498866213153	221.1112471655329	57	127
221.25056689342404	222.16775510204081	55	127
221.25056689342404	222.16775510204081	64	127
221.25056689342404	222.16775510204081	60	127
222.27224489795918	222.4231746031746	61	127
222.27224489795918	222.4231746031746	58	127
222.27224489795918	223.1429931972789	52	127
222.4231746031746	222.56249433106575	62	127
222.4231746031746	222.56249433106575	59	127
222.56249433106575	223.07333333333332	61	127
222.56249433106575	223.07333333333332	58	127
223.07333333333332	223.4680725623583	59	127
223.07333333333332	223.4680725623583	59	127
223.4912925170068	224.23433106575965	59	127
223.4912925170068	224.42009070294785	59	127
223.4912925170068	224.42009070294785	51	127
224.2459410430839	224.52458049886621	83	127
224.53619047619048	225.9409977324263	71	127
224.53619047619048	224.89609977324264	67	127
224.53619047619048	225.9409977324263	83	127
224.90770975056688	225.83650793650793	55	127
225.83650793650793	226.08031746031747	64	127
226.08031746031747	226.35895691609977	64	127
226.08031746031747	226.4170068027211	67	127
226.08031746031747	226.35895691609977	76	127
226.42861678004536	226.62598639455783	67	127
226.42861678004536	226.80013605442176	59	127
226.42861678004536	226.62598639455783	79	127
226.80013605442176	227.02072562358276	71	127
226.80013605442176	227.09038548752835	64	127
226.80013605442176	227.02072562358276	83	127
227.09038548752835	227.55478458049888	69	127
227.09038548752835	228.59968253968253	84	127
227.09038548752835	228.59968253968253	72	127
227.55478458049888	227.77537414965985	60	127
227.77537414965985	228.2978231292517	66	127
228.2978231292517	228.5416326530612	69	127
228.64612244897958	228.88993197278913	86	127
228.64612244897958	228.88993197278913	71	127
228.64612244897958	228.88993197278913	74	127
228.94798185941042	229.15696145124716	69	127
228.94798185941042	229.15696145124716	72	127
228.94798185941042	229.15696145124716	84	127
229.22662131519274	229.8651700680272	83	127
229.22662131519274	229.8651700680272	71	127
229.22662131519274	229.4239909297052	67	127
229.43560090702948	229.679410430839	59	127
229.679410430839	230.25990929705216	64	127
230.25990929705216	230.45727891156463	69	127
230.25990929705216	230.45727891156463	81	127
230.25990929705216	230.45727891156463	65	127
230.68947845804988	230.82879818594105	83	127
230.68947845804988	230.82879818594105	71	127
230.68947845804988	230.82879818594105	67	127
230.9913378684807	231.30480725623582	84	127
230.9913378684807	231.30480725623582	69	127
230.9913378684807	231.30480725623582	72	127
231.45573696145124	232.43097505668933	67	127
231.45573696145124	232.43097505668933	79	127
231.45573696145124	231.69954648526078	64	127
231.69954648526078	231.90852607709752	63	127
231.90852607709752	232.08267573696145	61	127
232.08267573696145	232.43097505668933	61	127
232.43097505668933	233.35977324263038	66	127
232.43097505668933	233.35977324263038	78	127
232.43097505668933	233.35977324263038	63	127
233.5803628117914	233.9518820861678	62	127
233.9518820861678	234.47433106575963	50	127
234.19569160997733	234.93873015873015	66	127
234.19569160997733	234.93873015873015	78	127
234.47433106575963	234.93873015873015	59	127
234.93873015873015	235.08965986394557	71	127
234.93873015873015	235.08965986394557	62	127
234.93873015873015	235.42634920634922	59	127
235.15931972789116	235.50761904761904	64	127
235.15931972789116	235.50761904761904	73	127
235.43795918367346	235.85591836734693	71	127
235.56566893424036	235.7978684807256	66	127
235.56566893424036	235.7978684807256	74	127
235.85591836734693	237.21428571428572	76	127
235.85591836734693	236.28548752834467	67	127
235.85591836734693	236.4015873015873	61	127
236.29709750566894	236.6570068027211	64	127
236.4015873015873	236.9124263038549	64	127
236.6570068027211	236.9124263038549	67	127
236.9124263038549	237.1562358276644	73	127
236.9124263038549	237.40004535147392	67	127
237.21428571428572	237.73673469387754	74	127
237.21428571428572	237.73673469387754	78	127
237.40004535147392	237.99215419501132	64	127
237.80639455782313	237.93410430839003	79	127
237.80639455782313	237.93410430839003	73	127
238.01537414965986	238.5378231292517	62	127
238.01537414965986	238.36367346938775	74	127
238.01537414965986	238.80485260770976	78	127
238.36367346938775	238.64231292517007	69	127
238.54943310657598	239.09510204081633	57	127
238.64231292517007	239.09510204081633	66	127
239.09510204081633	239.57111111111112	55	127
239.09510204081633	239.31569160997734	72	127
239.09510204081633	239.93102040816328	76	127
239.31569160997734	239.71043083900227	67	127
239.57111111111112	240.14	60	127
239.71043083900227	240.14	64	127
240.14	240.24448979591835	64	127
240.14	240.24448979591835	73	127
240.14	240.24448979591835	58	127
240.24448979591835	240.3257596371882	74	127
240.24448979591835	240.3257596371882	59	127
240.24448979591835	240.3257596371882	66	127
240.3257596371882	241.32421768707482	64	127
240.3257596371882	241.32421768707482	73	127
240.3257596371882	241.32421768707482	58	127
241.32421768707482	241.5215873015873	71	127
241.32421768707482	241.5215873015873	63	127
241.32421768707482	241.5215873015873	59	127
241.53319727891156	243.37918367346938	63	127
241.53319727891156	243.37918367346938	71	127
241.53319727891156	243.37918367346938	59	127
245.36448979591836	246.53709750566892	72	127
245.36448979591836	246.53709750566892	60	127
245.36448979591836	246.53709750566892	48	127
249.04485260770974	250.36839002267573	74	127
249.04485260770974	250.36839002267573	62	127
249.04485260770974	250.36839002267573	50	127
252.84131519274376	253.8049433106576	76	127
252.84131519274376	253.8049433106576	64	127
252.84131519274376	253.8049433106576	52	127
254.57120181405895	255.83668934240362	52	127
254.57120181405895	255.83668934240362	76	127
254.57120181405895	255.83668934240362	64	127
256.52167800453515	257.64784580498866	75	127
256.52167800453515	257.64784580498866	63	127
256.52167800453515	257.64784580498866	51	127
258.50698412698415	259.9350113378685	47	127
258.50698412698415	259.9350113378685	71	127
258.50698412698415	259.9350113378685	59	127
261.29337868480724	261.6532879818594	64	127
261.29337868480724	261.6532879818594	79	127
261.29337868480724	261.82743764172335	67	127
261.6532879818594	261.8158276643991	64	127
261.6532879818594	261.82743764172335	79	127
261.943537414966	262.5704761904762	66	127
261.943537414966	262.58208616780047	69	127
261.943537414966	262.58208616780047	81	127
262.64013605442176	262.8375056689342	83	127
262.64013605442176	262.8375056689342	67	127
262.64013605442176	262.8375056689342	71	127
263.12773242630385	264.3816326530612	72	127
263.12773242630385	264.3816326530612	69	127
263.12773242630385	264.3816326530612	84	127
264.3932426303855	264.6022222222222	86	127
264.3932426303855	264.6022222222222	71	127
264.3932426303855	264.6022222222222	74	127
264.66024943310657	265.03179138321997	84	127
264.66024943310657	265.03179138321997	69	127
264.66024943310657	265.03179138321997	72	127
265.1014512471655	265.960589569161	83	127
265.1014512471655	265.960589569161	71	127
265.1014512471655	265.960589569161	67	127
266.1115192743764	266.35532879818595	65	127
266.1115192743764	266.35532879818595	69	127
266.1115192743764	266.35532879818595	81	127
266.5526984126984	266.70360544217687	71	127
266.5526984126984	266.70360544217687	83	127
266.5526984126984	266.70360544217687	67	127
266.90097505668933	267.07514739229026	72	127
266.90097505668933	267.07514739229026	84	127
266.90097505668933	267.07514739229026	69	127
267.1912471655329	268.34061224489795	79	127
267.1912471655329	268.34061224489795	64	127
267.1912471655329	268.34061224489795	67	127
268.34061224489795	269.2229931972789	78	127
268.34061224489795	269.2229931972789	63	127
268.34061224489795	269.2229931972789	66	127
269.9195918367347	270.43043083900227	66	127
269.9195918367347	270.43043083900227	78	127
269.9195918367347	270.43043083900227	62	127
270.43043083900227	270.75551020408165	59	127
270.43043083900227	270.75551020408165	50	127
270.43043083900227	270.75551020408165	71	127
270.8367800453515	271.080589569161	61	127
270.8367800453515	271.080589569161	73	127
270.8367800453515	271.080589569161	52	127
271.1502494331066	271.3360090702948	74	127
271.1502494331066	271.3360090702948	54	127
271.1502494331066	271.3360090702948	62	127
271.4056462585034	271.93972789115645	64	127
271.4056462585034	272.8104761904762	76	127
271.4056462585034	271.80040816326533	55	127
271.8236281179138	272.10226757369617	61	127
271.93972789115645	272.34607709750566	61	127
272.10226757369617	272.34607709750566	67	127
272.34607709750566	272.9149659863946	67	127
272.34607709750566	272.8104761904762	73	127
272.8104761904762	272.98462585034014	78	127
272.8104761904762	272.98462585034014	74	127
272.9149659863946	273.55349206349206	64	127
273.0426530612245	273.39097505668934	79	127
273.0426530612245	273.39097505668934	73	127
273.55349206349206	274.4010430839002	69	127
273.55349206349206	274.4010430839002	78	127
273.55349206349206	274.4010430839002	74	127
274.5403628117914	275.3646712018141	67	127
274.5403628117914	275.3646712018141	76	127
274.5403628117914	275.3646712018141	72	127
275.51560090702947	275.6665306122449	70	127
275.51560090702947	275.6665306122449	73	127
275.51560090702947	275.6665306122449	64	127
275.6665306122449	275.759410430839	71	127
275.6665306122449	275.759410430839	74	127
275.6665306122449	275.759410430839	66	127
275.759410430839	276.59532879818596	70	127
275.759410430839	276.59532879818596	73	127
275.759410430839	276.59532879818596	64	127
276.59532879818596	276.78108843537416	71	127
276.59532879818596	276.78108843537416	63	127
276.59532879818596	276.78108843537416	71	127
276.7926984126984	278.19750566893424	71	127
276.7926984126984	278.19750566893424	71	127
276.7926984126984	278.19750566893424	63	127
280.5775510204082	281.8546485260771	60	127
280.5775510204082	281.8546485260771	72	127
280.5775510204082	281.8546485260771	48	127
284.49009070294784	285.7904308390023	74	127
284.49009070294784	285.7904308390023	50	127
284.49009070294784	285.7904308390023	62	127
288.2865759637188	289.66816326530613	76	127
288.2865759637188	289.66816326530613	64	127
288.2865759637188	289.66816326530613	52	127
290.2718820861678	291.57219954648525	52	127
290.2718820861678	291.57219954648525	64	127
290.2718820861678	291.57219954648525	76	127
292.32684807256237	293.8245351473923	51	127
292.32684807256237	293.8245351473923	75	127
292.32684807256237	293.8245351473923	63	127
294.38181405895693	295.8678911564626	71	127
294.38181405895693	295.8678911564626	59	127
294.38181405895693	295.8678911564626	47	127
297.14498866213154	297.81836734693877	64	127
297.14498866213154	297.81836734693877	67	127
297.14498866213154	297.81836734693877	79	127
297.81836734693877	297.9692970521542	79	127
297.81836734693877	297.9692970521542	67	127
297.81836734693877	297.95768707482995	64	127
298.05056689342405	298.27115646258505	69	127
298.05056689342405	298.2595464852608	66	127
298.05056689342405	298.27115646258505	81	127
298.3408163265306	298.5381859410431	67	127
298.3408163265306	298.5381859410431	83	127
298.3408163265306	298.5381859410431	71	127
298.7936054421769	300.17519274376417	69	127
298.7936054421769	300.17519274376417	72	127
298.7936054421769	299.7107936507937	84	127
299.7107936507937	299.96621315192743	84	127
300.17519274376417	300.430612244898	74	127
300.17519274376417	300.430612244898	71	127
300.17519274376417	300.430612244898	86	127
300.50027210884355	300.7673015873016	69	127
300.50027210884355	300.7673015873016	72	127
300.50027210884355	300.7673015873016	84	127
300.90662131519275	301.77736961451245	71	127
300.90662131519275	301.77736961451245	83	127
300.90662131519275	301.77736961451245	67	127
301.8934693877551	302.1604988662132	65	127
301.8934693877551	302.1604988662132	69	127
301.8934693877551	302.1604988662132	81	127
302.35786848072564	302.54362811791384	83	127
302.35786848072564	302.54362811791384	71	127
302.35786848072564	302.54362811791384	67	127
302.62489795918367	302.8803174603175	69	127
302.62489795918367	302.8803174603175	84	127
302.62489795918367	302.8803174603175	72	127
303.1008843537415	304.13419501133785	79	127
303.1008843537415	304.13419501133785	67	127
303.1008843537415	304.13419501133785	64	127
304.13419501133785	304.88884353741497	66	127
304.13419501133785	304.88884353741497	78	127
304.13419501133785	304.88884353741497	63	127
305.7363718820862	306.2936507936508	66	127
305.7363718820862	306.2936507936508	62	127
305.7363718820862	306.2936507936508	78	127
306.2936507936508	306.6883900226757	59	127
306.2936507936508	306.6883900226757	71	127
306.2936507936508	306.6767573696145	50	127
306.74643990929707	307.02507936507936	52	127
306.74643990929707	307.02507936507936	61	127
306.74643990929707	307.02507936507936	73	127
307.0831065759637	307.22244897959183	54	127
307.0831065759637	307.22244897959183	62	127
307.0831065759637	307.22244897959183	74	127
307.33854875283447	307.9887074829932	64	127
307.33854875283447	308.8710657596372	76	127
307.33854875283447	307.8261678004535	55	127
307.8377777777778	308.3137641723356	61	127
308.0002947845805	308.5459863945578	61	127
308.3137641723356	308.5459863945578	67	127
308.5459863945578	308.9987755102041	67	127
308.5459863945578	308.8710657596372	73	127
308.88267573696146	309.0452154195011	78	127
308.88267573696146	309.0452154195011	74	127
308.9987755102041	309.6837641723356	64	127
309.1380952380952	309.57927437641723	73	127
309.1380952380952	309.57927437641723	79	127
309.6837641723356	310.20621315192744	69	127
309.6837641723356	310.20621315192744	78	127
309.6837641723356	310.20621315192744	74	127
310.8099319727891	311.5877777777778	72	127
310.8099319727891	311.5877777777778	67	127
310.8099319727891	311.5877777777778	76	127
311.82	311.93609977324263	64	127
311.82	311.93609977324263	73	127
311.82	311.93609977324263	70	127
311.93609977324263	312.01736961451246	71	127
311.93609977324263	312.01736961451246	74	127
311.93609977324263	312.01736961451246	66	127
312.01736961451246	313.02743764172334	64	127
312.01736961451246	313.02743764172334	70	127
312.01736961451246	313.02743764172334	73	127
313.02743764172334	313.2712471655329	71	127
313.02743764172334	313.2712471655329	71	127
313.02743764172334	313.2712471655329	63	127
313.2712471655329	314.908253968254	71	127
313.2712471655329	314.908253968254	63	127
313.2712471655329	314.908253968254	71	127
325.49655328798184	325.6010430839002	50	127
325.49655328798184	325.6010430839002	62	127
325.6010430839002	325.7055328798186	64	127
325.6010430839002	325.7055328798186	52	127
325.7055328798186	325.81002267573695	62	127
325.7055328798186	325.81002267573695	50	127
325.81002267573695	325.9261224489796	48	127
325.81002267573695	325.9261224489796	60	127
325.9261224489796	326.0422222222222	59	127
325.9261224489796	326.0422222222222	47	127
326.0422222222222	326.15832199546486	48	127
326.0422222222222	326.15832199546486	60	127
326.15832199546486	326.2744217687075	47	127
326.15832199546486	326.2744217687075	59	127
326.2744217687075	326.39052154195014	60	127
326.2744217687075	326.39052154195014	48	127
326.39052154195014	326.4950113378685	50	127
326.39052154195014	326.4950113378685	62	127
326.5065986394558	326.61108843537414	64	127
326.5065986394558	326.61108843537414	52	127
326.62272108843536	326.7272108843537	50	127
326.62272108843536	326.7272108843537	62	127
326.738820861678	326.8084807256236	60	127
326.738820861678	326.8084807256236	48	127
326.8200680272109	326.87814058956917	47	127
326.8200680272109	326.87814058956917	59	127
326.88975056689344	326.9942403628118	60	127
326.88975056689344	326.9942403628118	48	127
327.0058503401361	327.0987301587302	47	127
327.0058503401361	327.0987301587302	59	127
327.11034013605445	327.2264172335601	60	127
327.11034013605445	327.2264172335601	48	127
327.2264172335601	327.33090702947845	62	127
327.2264172335601	327.33090702947845	50	127
327.33090702947845	327.400589569161	52	127
327.33090702947845	327.400589569161	64	127
327.400589569161	327.4702494331066	62	127
327.400589569161	327.4702494331066	50	127
327.4702494331066	327.5631292517007	64	127
327.4702494331066	327.5631292517007	52	127
327.5631292517007	327.6908390022676	66	127
327.5631292517007	327.6908390022676	54	127
327.6908390022676	327.8185487528345	55	127
327.6908390022676	327.8185487528345	67	127
327.8185487528345	327.8998185941043	54	127
327.8185487528345	327.8998185941043	66	127
327.8998185941043	327.9694784580499	67	127
327.8998185941043	327.9694784580499	55	127
327.9694784580499	328.0855782312925	57	127
327.9694784580499	328.0855782312925	69	127
328.0971882086168	328.1900680272109	67	127
328.0971882086168	328.1900680272109	55	127
328.20167800453515	328.3061678004535	57	127
328.20167800453515	328.3061678004535	69	127
328.3177777777778	328.4106575963719	55	127
328.3177777777778	328.4106575963719	67	127
328.42226757369616	328.51514739229026	54	127
328.42226757369616	328.51514739229026	66	127
328.52675736961453	328.6312471655329	52	127
328.52675736961453	328.6312471655329	64	127
328.64285714285717	328.770566893424	66	127
328.64285714285717	328.770566893424	54	127
328.79378684807256	328.8982766439909	52	127
328.79378684807256	328.8982766439909	64	127
328.8982766439909	329.01437641723356	62	127
328.8982766439909	329.01437641723356	50	127
329.01437641723356	329.11886621315193	64	127
329.01437641723356	329.11886621315193	52	127
329.11886621315193	329.21174603174603	50	127
329.11886621315193	329.21174603174603	62	127
329.21174603174603	329.29301587301586	60	127
329.21174603174603	329.29301587301586	48	127
329.29301587301586	329.4091156462585	47	127
329.29301587301586	329.4091156462585	59	127
329.4091156462585	329.52521541950114	60	127
329.4091156462585	329.52521541950114	48	127
329.52521541950114	329.6413151927438	59	127
329.52521541950114	329.6413151927438	47	127
329.6413151927438	329.74580498866214	60	127
329.6413151927438	329.74580498866214	48	127
329.74580498866214	329.8502947845805	50	127
329.74580498866214	329.8502947845805	62	127
329.8502947845805	329.9431746031746	52	127
329.8502947845805	329.9431746031746	64	127
329.9431746031746	330.0360544217687	50	127
329.9431746031746	330.0360544217687	62	127
330.047664399093	330.1405442176871	60	127
330.047664399093	330.1405442176871	48	127
330.15215419501135	330.268253968254	47	127
330.15215419501135	330.268253968254	59	127
330.27986394557826	330.33791383219955	60	127
330.27986394557826	330.33791383219955	48	127
330.3495238095238	330.4540136054422	47	127
330.3495238095238	330.4540136054422	59	127
330.4540136054422	330.5468934240363	48	127
330.4540136054422	330.5468934240363	60	127
330.5468934240363	330.65138321995465	62	127
330.5468934240363	330.65138321995465	50	127
330.65138321995465	330.7674829931973	52	127
330.65138321995465	330.7674829931973	64	127
330.7674829931973	330.8603628117914	50	127
330.7674829931973	330.8603628117914	62	127
330.8603628117914	330.9416326530612	52	127
330.8603628117914	330.9416326530612	64	127
330.9416326530612	331.05773242630386	66	127
330.9416326530612	331.05773242630386	54	127
331.05773242630386	331.15061224489796	67	127
331.05773242630386	331.15061224489796	55	127
331.15061224489796	331.24349206349206	54	127
331.15061224489796	331.24349206349206	66	127
331.24349206349206	331.3247619047619	67	127
331.24349206349206	331.3247619047619	55	127
331.3247619047619	331.4408616780045	57	127
331.3247619047619	331.4408616780045	69	127
331.4408616780045	331.5221088435374	55	127
331.4408616780045	331.5221088435374	67	127
331.5337414965986	331.6150113378685	69	127
331.5337414965986	331.6150113378685	57	127
331.6265986394558	331.7311111111111	55	127
331.6265986394558	331.7311111111111	67	127
331.74272108843536	331.84721088435373	66	127
331.74272108843536	331.84721088435373	54	127
331.858820861678	331.96331065759637	64	127
331.858820861678	331.96331065759637	52	127
331.97492063492064	332.06780045351474	66	127
331.97492063492064	332.06780045351474	54	127
332.079410430839	332.14907029478456	52	127
332.079410430839	332.14907029478456	64	127
332.14907029478456	332.2651700680272	62	127
332.14907029478456	332.2651700680272	50	127
332.2651700680272	332.38126984126984	52	127
332.2651700680272	332.38126984126984	64	127
332.38126984126984	332.47414965986394	62	127
332.38126984126984	332.47414965986394	50	127
332.47414965986394	332.5902494331066	48	127
332.47414965986394	332.5902494331066	60	127
332.5902494331066	332.7063492063492	59	127
332.5902494331066	332.7063492063492	47	127
332.7063492063492	332.82244897959185	48	127
332.7063492063492	332.82244897959185	60	127
332.82244897959185	332.9385487528345	47	127
332.82244897959185	332.9385487528345	59	127
332.9385487528345	333.06625850340134	48	127
332.9385487528345	333.06625850340134	60	127
333.06625850340134	333.1707482993197	62	127
333.06625850340134	333.1707482993197	50	127
333.1707482993197	333.2752380952381	52	127
333.1707482993197	333.2752380952381	64	127
333.28684807256235	333.37972789115645	62	127
333.28684807256235	333.37972789115645	50	127
333.3913378684807	333.4958276643991	60	127
333.3913378684807	333.4958276643991	48	127
333.50743764172336	333.60031746031746	47	127
333.50743764172336	333.60031746031746	59	127
333.6119274376417	333.7164172335601	60	127
333.6119274376417	333.7164172335601	48	127
333.72802721088436	333.7976870748299	59	127
333.72802721088436	333.7976870748299	47	127
333.8092970521542	333.91378684807256	48	127
333.8092970521542	333.91378684807256	60	127
333.92539682539683	333.9950566893424	62	127
333.92539682539683	333.9950566893424	50	127
333.9950566893424	334.0879365079365	64	127
333.9950566893424	334.0879365079365	52	127
334.0879365079365	334.19242630385486	50	127
334.0879365079365	334.19242630385486	62	127
334.19242630385486	334.2969160997732	64	127
334.19242630385486	334.2969160997732	52	127
334.2969160997732	334.3781632653061	53	127
334.2969160997732	334.3781632653061	65	127
334.3781632653061	334.4942857142857	55	127
334.3781632653061	334.4942857142857	67	127
334.4942857142857	334.6219954648526	53	127
334.4942857142857	334.6219954648526	65	127
334.6219954648526	334.72648526077097	55	127
334.6219954648526	334.72648526077097	67	127
334.72648526077097	334.83097505668934	69	127
334.72648526077097	334.83097505668934	57	127
334.83097505668934	334.9006349206349	55	127
334.83097505668934	334.9006349206349	67	127
334.91224489795917	335.01673469387754	57	127
334.91224489795917	335.01673469387754	69	127
335.0283446712018	335.1328344671202	67	127
335.0283446712018	335.1328344671202	55	127
335.14444444444445	335.23732426303854	65	127
335.14444444444445	335.23732426303854	53	127
335.27215419501135	335.3766439909297	52	127
335.27215419501135	335.3766439909297	64	127
335.388253968254	335.50433106575963	53	127
335.388253968254	335.50433106575963	65	127
335.51596371882084	335.608820861678	52	127
335.51596371882084	335.608820861678	64	127
335.6204535147392	335.73655328798185	50	127
335.6204535147392	335.73655328798185	62	127
335.6204535147392	335.73655328798185	62	127
335.73655328798185	335.8410430839002	64	127
335.73655328798185	335.8410430839002	52	127
335.73655328798185	335.8410430839002	64	127
335.8410430839002	335.9455328798186	50	127
335.8410430839002	335.9455328798186	62	127
335.8410430839002	335.9455328798186	62	127
335.9455328798186	336.05002267573695	60	127
335.9455328798186	336.05002267573695	60	127
335.9455328798186	336.05002267573695	48	127
336.05002267573695	336.1312925170068	59	127
336.05002267573695	336.1312925170068	59	127
336.05002267573695	336.1312925170068	47	127
336.1312925170068	336.2473922902494	60	127
336.1312925170068	336.2473922902494	48	127
336.1312925170068	336.2473922902494	60	127
336.2473922902494	336.3518820861678	59	127
336.2473922902494	336.3518820861678	59	127
336.2473922902494	336.3518820861678	47	127
336.3518820861678	336.4215192743764	60	127
336.3518820861678	336.4215192743764	60	127
336.3518820861678	336.4215192743764	48	127
336.4215192743764	336.537641723356	62	127
336.4215192743764	336.537641723356	62	127
336.4215192743764	336.537641723356	50	127
336.537641723356	336.59569160997734	52	127
336.537641723356	336.59569160997734	64	127
336.537641723356	336.59569160997734	64	127
336.6073015873016	336.71179138322	62	127
336.6073015873016	336.71179138322	50	127
336.6073015873016	336.71179138322	62	127
336.71179138322	336.81628117913834	60	127
336.71179138322	336.81628117913834	48	127
336.71179138322	336.81628117913834	60	127
336.8278911564626	336.9207709750567	47	127
336.8278911564626	336.9207709750567	59	127
336.8278911564626	336.9207709750567	59	127
336.932358276644	337.0136507936508	60	127
336.932358276644	337.0136507936508	60	127
336.932358276644	337.0136507936508	48	127
337.0136507936508	337.1181405895692	47	127
337.0136507936508	337.1181405895692	59	127
337.0136507936508	337.1181405895692	59	127
337.1181405895692	337.2110204081633	48	127
337.1181405895692	337.2110204081633	60	127
337.1181405895692	337.2110204081633	60	127
337.22263038548755	337.31551020408165	62	127
337.22263038548755	337.31551020408165	50	127
337.22263038548755	337.31551020408165	62	127
337.31551020408165	337.4316099773243	64	127
337.31551020408165	337.4316099773243	52	127
337.31551020408165	337.4316099773243	64	127
337.4316099773243	337.5128798185941	62	127
337.4316099773243	337.5128798185941	62	127
337.4316099773243	337.5128798185941	50	127
337.5128798185941	337.59414965986394	60	127
337.5128798185941	337.59414965986394	60	127
337.5128798185941	337.59414965986394	48	127
337.59414965986394	337.6638095238095	59	127
337.59414965986394	337.6638095238095	47	127
337.59414965986394	337.6638095238095	59	127
337.6638095238095	337.7915192743764	60	127
337.6638095238095	337.7915192743764	48	127
337.6638095238095	337.7915192743764	60	127
337.7915192743764	337.8960090702948	59	127
337.7915192743764	337.8960090702948	47	127
337.7915192743764	337.8960090702948	59	127
337.8960090702948	338.00049886621315	57	127
337.8960090702948	338.00049886621315	57	127
337.8960090702948	338.00049886621315	45	127
338.00049886621315	338.1165986394558	43	127
338.00049886621315	338.1165986394558	55	127
338.00049886621315	338.1165986394558	55	127
338.1165986394558	338.26750566893423	57	127
338.1165986394558	338.26750566893423	69	127
338.1165986394558	338.26750566893423	45	127
338.26750566893423	338.34879818594106	67	127
338.26750566893423	338.34879818594106	43	127
338.26750566893423	338.34879818594106	55	127
338.36040816326533	338.45328798185943	65	127
338.36040816326533	338.45328798185943	41	127
338.36040816326533	338.45328798185943	53	127
338.4648752834467	338.5577777777778	40	127
338.4648752834467	338.5577777777778	52	127
338.4648752834467	338.5577777777778	64	127
338.56936507936507	338.67385487528344	65	127
338.56936507936507	338.67385487528344	53	127
338.56936507936507	338.67385487528344	41	127
338.68548752834465	338.84802721088437	40	127
338.68548752834465	338.84802721088437	52	127
338.68548752834465	338.84802721088437	64	127
338.85963718820864	338.9292970521542	62	127
338.85963718820864	338.9292970521542	38	127
338.85963718820864	338.9292970521542	50	127
338.94090702947847	339.03378684807257	48	127
338.94090702947847	339.03378684807257	36	127
338.94090702947847	339.03378684807257	60	127
339.03378684807257	339.1498866213152	62	127
339.03378684807257	339.1498866213152	62	127
339.03378684807257	339.1498866213152	50	127
339.1498866213152	339.26598639455784	48	127
339.1498866213152	339.26598639455784	60	127
339.1498866213152	339.26598639455784	60	127
339.26598639455784	339.3704761904762	47	127
339.26598639455784	339.3704761904762	59	127
339.26598639455784	339.3704761904762	59	127
339.3704761904762	339.4749659863946	57	127
339.3704761904762	339.4749659863946	45	127
339.3704761904762	339.4749659863946	57	127
339.4749659863946	339.5910430839002	47	127
339.4749659863946	339.5910430839002	59	127
339.4749659863946	339.5910430839002	59	127
339.5910430839002	339.7071655328798	45	127
339.5910430839002	339.7071655328798	57	127
339.5910430839002	339.7071655328798	57	127
339.7071655328798	339.81165532879817	43	127
339.7071655328798	339.81165532879817	55	127
339.7071655328798	339.81165532879817	55	127
339.81165532879817	339.91614512471654	42	127
339.81165532879817	339.91614512471654	54	127
339.81165532879817	339.91614512471654	66	127
339.91614512471654	340.0206349206349	57	127
339.91614512471654	340.0206349206349	45	127
339.91614512471654	340.0206349206349	69	127
340.0206349206349	340.1018820861678	67	127
340.0206349206349	340.1018820861678	43	127
340.0206349206349	340.1018820861678	55	127
340.11349206349206	340.2180045351474	42	127
340.11349206349206	340.2180045351474	66	127
340.11349206349206	340.2180045351474	54	127
340.2180045351474	340.32249433106574	64	127
340.2180045351474	340.32249433106574	40	127
340.2180045351474	340.32249433106574	52	127
340.32249433106574	340.4037641723356	55	127
340.32249433106574	340.4037641723356	67	127
340.32249433106574	340.4037641723356	43	127
340.4153514739229	340.51984126984127	54	127
340.4153514739229	340.51984126984127	66	127
340.4153514739229	340.51984126984127	42	127
340.5314739229025	340.62433106575963	64	127
340.5314739229025	340.62433106575963	52	127
340.5314739229025	340.62433106575963	40	127
340.63596371882085	340.81011337868483	50	127
340.63596371882085	340.81011337868483	62	127
340.63596371882085	340.81011337868483	38	127
341.0539229024943	341.30934240362814	50	127
341.0539229024943	341.30934240362814	66	127
341.0539229024943	341.30934240362814	62	127
341.0539229024943	341.30934240362814	62	127
341.0539229024943	341.30934240362814	72	127
341.5531519274376	341.76213151927436	69	127
341.5531519274376	341.76213151927436	62	127
341.5531519274376	341.76213151927436	62	127
341.5531519274376	341.76213151927436	38	127
341.5531519274376	341.88984126984127	72	127
341.6343990929705	341.88984126984127	78	127
342.6096598639456	342.77219954648524	62	127
342.6096598639456	342.9231292517007	50	127
342.6096598639456	342.9231292517007	62	127
342.6096598639456	342.77219954648524	55	127
342.6096598639456	342.9231292517007	71	127
342.6096598639456	342.77219954648524	43	127
342.6909297052154	342.9231292517007	79	127
342.6909297052154	342.9231292517007	71	127
342.6909297052154	342.9231292517007	59	127
342.93473922902496	343.1785260770975	50	127
342.93473922902496	343.1785260770975	69	127
342.93473922902496	343.1785260770975	78	127
342.93473922902496	343.1785260770975	69	127
342.93473922902496	343.49201814058955	62	127
343.1785260770975	343.49201814058955	47	127
343.1785260770975	343.49201814058955	71	127
343.1785260770975	343.49201814058955	79	127
343.1785260770975	343.49201814058955	71	127
343.49201814058955	343.5965079365079	71	127
343.49201814058955	343.5965079365079	71	127
343.49201814058955	343.5965079365079	67	127
343.49201814058955	343.5965079365079	74	127
343.49201814058955	343.5965079365079	43	127
343.85192743764173	344.02607709750566	67	127
343.85192743764173	344.02607709750566	67	127
343.85192743764173	344.02607709750566	76	127
343.85192743764173	344.02607709750566	36	127
343.85192743764173	344.02607709750566	43	127
343.85192743764173	344.02607709750566	72	127
344.02607709750566	344.47886621315195	67	127
344.02607709750566	344.47886621315195	48	127
344.02607709750566	344.47886621315195	76	127
344.02607709750566	344.47886621315195	72	127
344.02607709750566	344.47886621315195	67	127
344.4904761904762	344.62979591836734	74	127
344.4904761904762	344.62979591836734	67	127
344.4904761904762	344.62979591836734	67	127
344.4904761904762	344.62979591836734	43	127
344.4904761904762	344.62979591836734	50	127
344.4904761904762	344.62979591836734	71	127
344.6414058956916	345.0477551020408	71	127
344.6414058956916	345.0477551020408	55	127
344.6414058956916	345.0477551020408	67	127
344.6414058956916	345.0477551020408	74	127
344.6414058956916	345.0477551020408	67	127
345.0593650793651	345.12902494331064	69	127
345.0593650793651	345.12902494331064	72	127
345.0593650793651	345.19868480725626	57	127
345.0593650793651	345.5585941043084	66	127
345.0593650793651	345.5585941043084	62	127
345.0593650793651	345.19868480725626	50	127
345.12902494331064	345.19868480725626	71	127
345.12902494331064	345.19868480725626	74	127
345.19868480725626	345.7211337868481	62	127
345.19868480725626	345.5585941043084	72	127
345.19868480725626	345.5585941043084	69	127
345.5585941043084	345.7211337868481	71	127
345.5585941043084	345.7211337868481	67	127
345.7211337868481	346.2784126984127	62	127
345.7211337868481	346.2784126984127	71	127
345.7211337868481	346.2784126984127	43	127
345.7211337868481	346.2784126984127	67	127
346.6847619047619	347.2884807256236	62	127
346.6847619047619	346.998231292517	69	127
346.6847619047619	346.998231292517	78	127
346.6847619047619	346.998231292517	69	127
346.6847619047619	346.998231292517	50	127
346.998231292517	347.2884807256236	71	127
346.998231292517	347.2884807256236	47	127
346.998231292517	347.0911111111111	79	127
346.998231292517	347.0911111111111	71	127
347.2884807256236	347.46260770975056	67	127
347.2884807256236	347.46260770975056	43	127
347.2884807256236	347.46260770975056	74	127
347.2884807256236	347.46260770975056	71	127
347.2884807256236	347.46260770975056	71	127
347.6948299319728	347.86897959183676	76	127
347.6948299319728	347.86897959183676	71	127
347.6948299319728	347.86897959183676	62	127
347.6948299319728	347.86897959183676	50	127
347.6948299319728	347.86897959183676	74	127
347.6948299319728	347.86897959183676	43	127
347.86897959183676	348.3101587301587	74	127
347.86897959183676	348.3101587301587	55	127
347.86897959183676	348.3101587301587	71	127
347.86897959183676	348.3101587301587	62	127
347.86897959183676	348.3101587301587	76	127
348.321768707483	348.4842857142857	69	127
348.321768707483	348.4842857142857	62	127
348.321768707483	348.4842857142857	74	127
348.321768707483	348.4842857142857	81	127
348.321768707483	348.4842857142857	54	127
348.49589569161	348.93709750566893	74	127
348.49589569161	348.93709750566893	42	127
348.49589569161	348.93709750566893	69	127
348.49589569161	348.93709750566893	62	127
348.49589569161	348.93709750566893	81	127
348.97192743764174	349.05319727891157	73	127
348.97192743764174	349.05319727891157	79	127
348.97192743764174	349.20410430839	45	127
348.97192743764174	349.5756462585034	69	127
348.97192743764174	349.20410430839	40	127
349.05319727891157	349.2157369614512	74	127
349.05319727891157	349.2157369614512	81	127
349.2157369614512	349.6685260770975	52	127
349.2157369614512	349.2970068027211	79	127
349.2157369614512	349.2970068027211	73	127
349.2970068027211	349.3666666666667	74	127
349.2970068027211	349.3666666666667	81	127
349.3666666666667	349.4479365079365	73	127
349.3666666666667	349.4479365079365	79	127
349.4479365079365	349.5175736961451	81	127
349.4479365079365	349.5175736961451	74	127
349.5175736961451	349.59886621315195	71	127
349.5175736961451	349.59886621315195	78	127
349.59886621315195	349.6685260770975	79	127
349.59886621315195	349.6685260770975	73	127
349.6685260770975	350.7134240362812	78	127
349.6685260770975	350.7134240362812	69	127
349.6685260770975	350.7134240362812	38	127
349.6685260770975	350.7134240362812	74	127
350.92240362811793	351.630612244898	50	127
350.92240362811793	351.630612244898	74	127
350.92240362811793	351.630612244898	62	127
351.7467120181406	352.3039909297052	55	127
351.7467120181406	352.3039909297052	79	127
351.7467120181406	352.3039909297052	67	127
352.3968707482993	352.4781179138322	72	127
352.3968707482993	352.4781179138322	84	127
352.3968707482993	352.4781179138322	60	127
352.4781179138322	352.5942403628118	62	127
352.4781179138322	352.5942403628118	86	127
352.4781179138322	352.5942403628118	74	127
352.5942403628118	352.7103401360544	60	127
352.5942403628118	352.7103401360544	84	127
352.5942403628118	352.7103401360544	72	127
352.7103401360544	352.79160997732424	62	127
352.7103401360544	352.79160997732424	74	127
352.7103401360544	352.79160997732424	86	127
352.79160997732424	352.9773696145125	84	127
352.79160997732424	352.9773696145125	60	127
352.79160997732424	352.9773696145125	72	127
352.9773696145125	353.04702947845806	86	127
352.9773696145125	353.04702947845806	62	127
352.9773696145125	353.04702947845806	74	127
353.04702947845806	353.1282993197279	83	127
353.04702947845806	353.1282993197279	71	127
353.04702947845806	353.1282993197279	59	127
353.1282993197279	353.221179138322	72	127
353.1282993197279	353.221179138322	84	127
353.1282993197279	353.221179138322	60	127
353.2443990929705	353.81326530612245	75	127
353.2443990929705	353.81326530612245	63	127
353.2443990929705	353.81326530612245	87	127
353.929387755102	354.04548752834467	74	127
353.929387755102	354.04548752834467	58	127
353.929387755102	354.04548752834467	86	127
354.04548752834467	354.24285714285713	72	127
354.04548752834467	354.24285714285713	57	127
354.04548752834467	354.24285714285713	84	127
354.3473469387755	354.5331065759637	55	127
354.3473469387755	354.5331065759637	82	127
354.3473469387755	354.5331065759637	70	127
354.62596371882086	354.765306122449	72	127
354.62596371882086	354.765306122449	84	127
354.62596371882086	354.765306122449	57	127
354.9278231292517	355.5199546485261	86	127
354.9278231292517	355.5199546485261	58	127
354.9278231292517	355.5199546485261	74	127
355.68249433106575	356.3674603174603	70	127
355.68249433106575	356.3674603174603	82	127
355.68249433106575	356.3674603174603	55	127
356.4719727891156	357.04086167800455	72	127
356.4719727891156	357.04086167800455	84	127
356.4719727891156	357.04086167800455	57	127
357.1221315192744	357.19179138321994	82	127
357.1221315192744	357.19179138321994	55	127
357.1221315192744	357.19179138321994	70	127
357.19179138321994	357.3427210884354	54	127
357.19179138321994	357.3427210884354	81	127
357.19179138321994	357.3427210884354	69	127
357.44721088435375	357.7374603174603	79	127
357.44721088435375	357.7374603174603	67	127
357.44721088435375	357.7374603174603	52	127
357.8071201814059	357.9348299319728	69	127
357.8071201814059	357.9348299319728	81	127
357.8071201814059	357.9348299319728	54	127
358.0044671201814	358.16702947845806	55	127
358.0044671201814	358.16702947845806	82	127
358.0044671201814	358.16702947845806	70	127
358.25990929705216	358.4224489795918	86	127
358.25990929705216	358.4224489795918	67	127
358.25990929705216	358.4224489795918	58	127
358.5036961451247	358.7939682539683	70	127
358.5036961451247	358.7939682539683	91	127
358.5036961451247	358.7939682539683	62	127
358.9100680272109	358.9797278911565	61	127
358.9100680272109	358.9797278911565	67	127
358.9100680272109	358.9797278911565	88	127
358.9797278911565	359.07260770975057	62	127
358.9797278911565	359.07260770975057	69	127
358.9797278911565	359.07260770975057	90	127
359.07260770975057	359.4789569160998	61	127
359.07260770975057	359.4673469387755	88	127
359.07260770975057	359.4789569160998	67	127
359.4789569160998	359.61827664399095	66	127
359.4789569160998	359.61827664399095	62	127
359.4789569160998	359.61827664399095	86	127
359.61827664399095	360.152335600907	62	127
359.61827664399095	360.152335600907	86	127
359.61827664399095	360.152335600907	66	127
360.89537414965986	361.0463038548753	62	127
360.89537414965986	361.0463038548753	90	127
360.89537414965986	361.0463038548753	50	127
360.89537414965986	361.0463038548753	69	127
361.0579138321996	361.1972335600907	50	127
361.0579138321996	361.1972335600907	69	127
361.0579138321996	361.1972335600907	62	127
361.0579138321996	361.1972335600907	90	127
361.20884353741496	361.30172335600906	62	127
361.20884353741496	361.30172335600906	91	127
361.20884353741496	361.30172335600906	71	127
361.20884353741496	361.30172335600906	47	127
361.52231292517007	361.6848299319728	43	127
361.52231292517007	361.6848299319728	86	127
361.52231292517007	361.6848299319728	71	127
361.52231292517007	361.6848299319728	67	127
361.88219954648525	362.03315192743764	43	127
361.88219954648525	362.03315192743764	72	127
361.88219954648525	362.03315192743764	36	127
361.88219954648525	362.03315192743764	67	127
361.88219954648525	362.03315192743764	88	127
362.03315192743764	362.5439909297052	67	127
362.03315192743764	362.5439909297052	48	127
362.03315192743764	362.5439909297052	72	127
362.03315192743764	362.5439909297052	88	127
362.5439909297052	362.71814058956915	67	127
362.5439909297052	362.71814058956915	50	127
362.5439909297052	362.71814058956915	71	127
362.5439909297052	362.71814058956915	86	127
362.5439909297052	362.71814058956915	43	127
362.71814058956915	363.20575963718824	71	127
362.71814058956915	363.20575963718824	67	127
362.71814058956915	363.20575963718824	55	127
362.71814058956915	363.20575963718824	86	127
363.2173469387755	363.414716553288	66	127
363.2173469387755	363.414716553288	84	127
363.2173469387755	363.414716553288	69	127
363.2173469387755	363.414716553288	57	127
363.2173469387755	363.414716553288	50	127
363.4263492063492	363.9604081632653	84	127
363.4263492063492	363.9604081632653	66	127
363.4263492063492	363.9604081632653	62	127
363.4263492063492	363.9604081632653	69	127
363.97201814058957	364.61056689342405	83	127
363.97201814058957	364.33190476190475	43	127
363.97201814058957	364.61056689342405	67	127
363.97201814058957	364.76149659863944	50	127
364.122947845805	364.76149659863944	59	127
365.14462585034016	365.272335600907	50	127
365.14462585034016	365.272335600907	62	127
365.14462585034016	365.272335600907	69	127
365.14462585034016	365.272335600907	78	127
365.2839455782313	365.43487528344673	50	127
365.2839455782313	365.43487528344673	62	127
365.2839455782313	365.43487528344673	78	127
365.2839455782313	365.43487528344673	69	127
365.446485260771	365.5393650793651	62	127
365.446485260771	365.5393650793651	79	127
365.446485260771	365.5393650793651	71	127
365.446485260771	365.5393650793651	62	127
365.7831746031746	365.87603174603174	59	127
365.7831746031746	365.87603174603174	83	127
365.7831746031746	365.87603174603174	71	127
365.7831746031746	365.87603174603174	67	127
366.4797505668934	366.78163265306125	83	127
366.4797505668934	366.78163265306125	55	127
366.4797505668934	366.78163265306125	67	127
366.4797505668934	366.78163265306125	74	127
366.78163265306125	366.9441723356009	74	127
366.78163265306125	366.9441723356009	83	127
366.78163265306125	366.9441723356009	67	127
366.78163265306125	366.9441723356009	55	127
366.9441723356009	367.0834920634921	76	127
366.9441723356009	367.0834920634921	84	127
366.9441723356009	367.0834920634921	67	127
366.9441723356009	367.0834920634921	67	127
367.3040589569161	367.43179138321995	64	127
367.3040589569161	367.43179138321995	67	127
367.3040589569161	367.43179138321995	76	127
367.3040589569161	367.43179138321995	88	127
367.6407709750567	367.7336507936508	90	127
367.6407709750567	367.7336507936508	69	127
367.6407709750567	367.7336507936508	81	127
367.7336507936508	367.90780045351477	91	127
367.7336507936508	367.90780045351477	83	127
367.7336507936508	367.90780045351477	71	127
367.90780045351477	368.05873015873016	90	127
367.90780045351477	368.05873015873016	69	127
367.90780045351477	368.05873015873016	81	127
368.05873015873016	368.1632199546485	91	127
368.05873015873016	368.1632199546485	83	127
368.05873015873016	368.1632199546485	71	127
368.1632199546485	368.24448979591835	69	127
368.1632199546485	368.24448979591835	81	127
368.1632199546485	368.24448979591835	90	127
368.24448979591835	368.32573696145124	71	127
368.24448979591835	368.32573696145124	91	127
368.24448979591835	368.32573696145124	83	127
368.32573696145124	368.3954195011338	79	127
368.32573696145124	368.3954195011338	67	127
368.32573696145124	368.3954195011338	88	127
368.3954195011338	368.46507936507936	81	127
368.3954195011338	368.46507936507936	90	127
368.3954195011338	368.46507936507936	69	127
368.47668934240363	368.87142857142857	67	127
368.47668934240363	368.87142857142857	79	127
368.47668934240363	368.87142857142857	91	127
369.4403174603175	369.5331972789116	54	127
369.4403174603175	369.5331972789116	42	127
369.5331972789116	369.6725170068027	43	127
369.5331972789116	369.6725170068027	55	127
369.6725170068027	369.7421768707483	42	127
369.6725170068027	369.7421768707483	54	127
369.7421768707483	369.82344671201815	43	127
369.7421768707483	369.82344671201815	55	127
369.82344671201815	369.88149659863944	54	127
369.82344671201815	369.88149659863944	42	127
369.88149659863944	369.95115646258506	55	127
369.88149659863944	369.95115646258506	43	127
369.95115646258506	370.00920634920635	40	127
369.95115646258506	370.00920634920635	52	127
370.00920634920635	370.0788662131519	54	127
370.00920634920635	370.0788662131519	42	127
370.0788662131519	370.4387755102041	55	127
370.0788662131519	370.4387755102041	43	127
370.55487528344673	370.72902494331066	54	127
370.55487528344673	370.72902494331066	66	127
370.74063492063493	370.85673469387757	55	127
370.74063492063493	370.85673469387757	67	127
370.86834467120184	370.9728344671202	57	127
370.86834467120184	370.9728344671202	69	127
370.9728344671202	371.0657142857143	70	127
370.9728344671202	371.0657142857143	58	127
371.0773242630386	371.1702040816327	60	127
371.0773242630386	371.1702040816327	72	127
371.1702040816327	371.2862811791383	74	127
371.1702040816327	371.2862811791383	62	127
371.2862811791383	371.3907709750567	76	127
371.2862811791383	371.3907709750567	64	127
371.3907709750567	371.49526077097505	78	127
371.3907709750567	371.49526077097505	66	127
371.49526077097505	371.61138321995463	67	127
371.49526077097505	371.61138321995463	79	127
371.61138321995463	371.72748299319727	81	127
371.61138321995463	371.72748299319727	69	127
371.72748299319727	371.8551927437642	70	127
371.72748299319727	371.8551927437642	82	127
371.8551927437642	371.9712925170068	81	127
371.8551927437642	371.9712925170068	69	127
371.9712925170068	372.0641723356009	82	127
371.9712925170068	372.0641723356009	70	127
372.21507936507936	372.3195918367347	79	127
372.21507936507936	372.3195918367347	67	127
372.4705215419501	372.5285714285714	45	127
372.4705215419501	372.5285714285714	57	127
372.5285714285714	372.58662131519276	46	127
372.5285714285714	372.58662131519276	58	127
372.58662131519276	372.64467120181405	45	127
372.58662131519276	372.64467120181405	57	127
372.64467120181405	372.71430839002267	46	127
372.64467120181405	372.71430839002267	58	127
372.71430839002267	372.77238095238096	45	127
372.71430839002267	372.77238095238096	57	127
372.77238095238096	372.83043083900225	46	127
372.77238095238096	372.83043083900225	58	127
372.83043083900225	372.8884807256236	55	127
372.83043083900225	372.8884807256236	43	127
372.8884807256236	372.9349206349206	57	127
372.8884807256236	372.9349206349206	45	127
372.9465306122449	373.26	58	127
372.9465306122449	373.26	46	127
373.31804988662134	373.4225396825397	69	127
373.31804988662134	373.4225396825397	57	127
373.4225396825397	373.5154195011338	58	127
373.4225396825397	373.5154195011338	70	127
373.5154195011338	373.59668934240364	72	127
373.5154195011338	373.59668934240364	60	127
373.59668934240364	373.7127891156463	74	127
373.59668934240364	373.7127891156463	62	127
373.7127891156463	373.8288888888889	63	127
373.7127891156463	373.8288888888889	75	127
373.8288888888889	373.9333786848073	77	127
373.8288888888889	373.9333786848073	65	127
373.9333786848073	374.0146485260771	67	127
373.9333786848073	374.0146485260771	79	127
374.0262585034014	374.13074829931975	69	127
374.0262585034014	374.13074829931975	81	127
374.142358276644	374.25843537414966	82	127
374.142358276644	374.25843537414966	70	127
374.27006802721087	374.3861678004535	72	127
374.27006802721087	374.3861678004535	84	127
374.3977777777778	374.4906575963719	86	127
374.3977777777778	374.4906575963719	74	127
374.50226757369614	374.583537414966	85	127
374.50226757369614	374.583537414966	73	127
374.59514739229024	374.6764172335601	74	127
374.59514739229024	374.6764172335601	86	127
374.8273469387755	374.8970068027211	82	127
374.8273469387755	374.8970068027211	70	127
375.0595464852608	375.1175963718821	61	127
375.0595464852608	375.1175963718821	49	127
375.1175963718821	375.16403628117916	50	127
375.1175963718821	375.16403628117916	62	127
375.16403628117916	375.22208616780046	49	127
375.16403628117916	375.22208616780046	61	127
375.22208616780046	375.2801133786848	62	127
375.22208616780046	375.2801133786848	50	127
375.2801133786848	375.3381859410431	61	127
375.2801133786848	375.3381859410431	49	127
375.3381859410431	375.3962358276644	50	127
375.3381859410431	375.3962358276644	62	127
375.3962358276644	375.45428571428573	47	127
375.3962358276644	375.45428571428573	59	127
375.45428571428573	375.512335600907	49	127
375.45428571428573	375.512335600907	61	127
375.512335600907	375.89544217687074	62	127
375.512335600907	375.89544217687074	50	127
375.99995464852606	376.3366439909297	61	127
375.99995464852606	376.0580045351474	49	127
375.99995464852606	376.0580045351474	61	127
376.0580045351474	376.1160544217687	62	127
376.0580045351474	376.1160544217687	50	127
376.1160544217687	376.17410430839004	49	127
376.1160544217687	376.17410430839004	61	127
376.17410430839004	376.23215419501133	62	127
376.17410430839004	376.23215419501133	50	127
376.23215419501133	376.2553741496599	61	127
376.23215419501133	376.2553741496599	49	127
376.2553741496599	376.30179138321995	50	127
376.2553741496599	376.30179138321995	62	127
376.30179138321995	376.35986394557824	47	127
376.30179138321995	376.35986394557824	59	127
376.35986394557824	376.4062811791383	61	127
376.35986394557824	376.4062811791383	49	127
376.41791383219953	376.7546031746032	62	127
376.41791383219953	376.7546031746032	50	127
376.41791383219953	376.7546031746032	62	127
376.835873015873	376.8823129251701	61	127
376.835873015873	377.23061224489794	77	127
376.835873015873	376.8823129251701	49	127
376.8823129251701	376.9403628117914	50	127
376.8823129251701	376.9403628117914	62	127
376.9403628117914	376.9984126984127	49	127
376.9403628117914	376.9984126984127	61	127
376.9984126984127	377.056462585034	50	127
376.9984126984127	377.056462585034	62	127
377.056462585034	377.11448979591836	49	127
377.056462585034	377.11448979591836	61	127
377.11448979591836	377.1957823129252	50	127
377.11448979591836	377.1957823129252	62	127
377.1957823129252	377.2538321995465	59	127
377.1957823129252	377.2538321995465	47	127
377.2538321995465	377.3118820861678	49	127
377.2538321995465	377.3118820861678	61	127
377.3118820861678	377.67179138321995	50	127
377.3118820861678	377.67179138321995	78	127
377.3118820861678	377.67179138321995	62	127
377.7530612244898	377.95043083900225	61	127
377.7530612244898	377.95043083900225	77	127
377.7530612244898	377.95043083900225	71	127
377.7530612244898	377.95043083900225	37	127
377.7530612244898	377.95043083900225	68	127
377.9620408163265	378.1826303854875	71	127
377.9620408163265	378.1826303854875	77	127
377.9620408163265	378.1826303854875	61	127
377.9620408163265	378.1826303854875	49	127
377.9620408163265	378.1826303854875	68	127
378.40321995464853	378.58897959183673	49	127
378.40321995464853	378.58897959183673	71	127
378.40321995464853	378.58897959183673	61	127
378.40321995464853	378.58897959183673	77	127
378.40321995464853	378.58897959183673	68	127
378.77473922902493	378.99532879818594	54	127
378.77473922902493	378.99532879818594	78	127
378.77473922902493	378.99532879818594	69	127
378.77473922902493	378.99532879818594	61	127
378.77473922902493	378.99532879818594	69	127
379.18108843537414	379.40167800453514	50	127
379.18108843537414	379.40167800453514	69	127
379.18108843537414	379.40167800453514	62	127
379.18108843537414	379.40167800453514	69	127
379.18108843537414	379.40167800453514	78	127
379.6338775510204	379.84285714285716	67	127
379.6338775510204	379.84285714285716	79	127
379.6338775510204	379.84285714285716	50	127
379.6338775510204	379.84285714285716	70	127
379.6338775510204	379.84285714285716	43	127
379.6338775510204	379.84285714285716	55	127
380.0402267573696	380.2724263038549	78	127
380.0402267573696	380.2724263038549	62	127
380.0402267573696	380.2724263038549	69	127
380.0402267573696	380.2724263038549	50	127
380.0402267573696	380.2724263038549	69	127
380.2724263038549	380.5046258503401	38	127
380.2724263038549	380.5046258503401	62	127
380.2724263038549	380.5046258503401	81	127
380.2724263038549	380.5046258503401	72	127
380.2724263038549	380.5046258503401	66	127
380.5046258503401	380.7368253968254	50	127
380.5046258503401	380.7368253968254	72	127
380.5046258503401	380.7368253968254	81	127
380.5046258503401	380.7368253968254	66	127
380.5046258503401	380.7368253968254	62	127
380.94580498866213	381.0851247165533	81	127
380.94580498866213	381.0851247165533	66	127
380.94580498866213	381.0851247165533	72	127
380.94580498866213	381.0851247165533	62	127
380.94580498866213	381.0851247165533	50	127
381.2708843537415	381.468253968254	62	127
381.2708843537415	381.468253968254	67	127
381.2708843537415	381.468253968254	55	127
381.2708843537415	381.468253968254	82	127
381.2708843537415	381.468253968254	70	127
381.7468934240363	381.9210430839002	67	127
381.7468934240363	381.9210430839002	63	127
381.7468934240363	381.9210430839002	82	127
381.7468934240363	381.9210430839002	70	127
381.7468934240363	381.9210430839002	51	127
382.13002267573694	382.35061224489795	68	127
382.13002267573694	382.35061224489795	44	127
382.13002267573694	382.35061224489795	84	127
382.13002267573694	382.35061224489795	63	127
382.13002267573694	382.35061224489795	75	127
382.5944217687075	382.7801814058957	82	127
382.5944217687075	382.7801814058957	67	127
382.5944217687075	382.7801814058957	63	127
382.5944217687075	382.7801814058957	70	127
382.5944217687075	382.7801814058957	51	127
382.79179138321996	383.25619047619045	69	127
382.79179138321996	383.02399092970523	62	127
382.91950113378687	383.25619047619045	78	127
383.2678004535147	383.69736961451247	70	127
383.2678004535147	383.48839002267573	62	127
383.39551020408163	383.69736961451247	79	127
383.69736961451247	383.8134693877551	42	127
383.69736961451247	383.8134693877551	54	127
383.8134693877551	383.9063492063492	55	127
383.8134693877551	383.9063492063492	43	127
383.9063492063492	384.0108390022676	45	127
383.9063492063492	384.0108390022676	57	127
384.0108390022676	384.1385487528345	46	127
384.0108390022676	384.1385487528345	58	127
384.1385487528345	384.2662585034014	60	127
384.1385487528345	384.2662585034014	48	127
384.2662585034014	384.38235827664397	62	127
384.2662585034014	384.38235827664397	50	127
384.38235827664397	384.46362811791386	64	127
384.38235827664397	384.46362811791386	52	127
384.46362811791386	384.55650793650796	54	127
384.46362811791386	384.55650793650796	66	127
384.5681179138322	384.6609977324263	67	127
384.5681179138322	384.6609977324263	55	127
384.6726077097506	384.7654875283447	57	127
384.6726077097506	384.7654875283447	69	127
384.77709750566896	384.8583673469388	58	127
384.77709750566896	384.8583673469388	70	127
384.86997732426306	384.9512471655329	57	127
384.86997732426306	384.9512471655329	69	127
384.96285714285716	385.0325170068027	70	127
384.96285714285716	385.0325170068027	58	127
385.18344671201817	385.2531065759637	55	127
385.18344671201817	385.2531065759637	67	127
385.485306122449	385.74072562358276	65	127
385.485306122449	385.97292517006804	72	127
385.61301587301585	385.97292517006804	81	127
385.97292517006804	386.367664399093	74	127
385.97292517006804	386.19351473922904	65	127
386.0890249433107	386.367664399093	82	127
386.367664399093	386.4837641723356	57	127
386.367664399093	386.4837641723356	45	127
386.4953741496599	386.59986394557825	46	127
386.4953741496599	386.59986394557825	58	127
386.6114739229025	386.7159637188209	48	127
386.6114739229025	386.7159637188209	60	127
386.7275736961451	386.82045351473926	62	127
386.7275736961451	386.82045351473926	50	127
386.83206349206347	386.93655328798184	63	127
386.83206349206347	386.93655328798184	51	127
386.9481632653061	387.0526530612245	65	127
386.9481632653061	387.0526530612245	53	127
387.06426303854875	387.15714285714284	55	127
387.06426303854875	387.15714285714284	67	127
387.15714285714284	387.28485260770975	69	127
387.15714285714284	387.28485260770975	57	127
387.28485260770975	387.3893424036281	58	127
387.28485260770975	387.3893424036281	70	127
387.3893424036281	387.4938321995465	60	127
387.3893424036281	387.4938321995465	72	127
387.4938321995465	387.6099319727891	74	127
387.4938321995465	387.6099319727891	62	127
387.6099319727891	387.72603174603177	73	127
387.6099319727891	387.72603174603177	61	127
387.72603174603177	387.81891156462586	74	127
387.72603174603177	387.81891156462586	62	127
387.9814512471655	388.06272108843535	58	127
387.9814512471655	388.06272108843535	70	127
388.2136507936508	388.5735600907029	85	127
388.6316099773243	389.00312925170067	86	127
389.0843990929705	389.45591836734695	85	127
389.0843990929705	389.45591836734695	73	127
389.5255782312925	389.9087074829932	86	127
389.5255782312925	389.9087074829932	74	127
390.0015873015873	390.39632653061227	85	127
390.0015873015873	390.39632653061227	73	127
390.4775963718821	390.87233560090704	74	127
390.4775963718821	390.87233560090704	86	127
390.9419954648526	391.05809523809523	49	127
390.9419954648526	391.05809523809523	61	127
391.05809523809523	391.1741950113379	50	127
391.05809523809523	391.1741950113379	62	127
391.1741950113379	391.26707482993197	64	127
391.1741950113379	391.26707482993197	52	127
391.26707482993197	391.3831746031746	53	127
391.26707482993197	391.3831746031746	65	127
391.3831746031746	391.4760544217687	67	127
391.3831746031746	391.4760544217687	55	127
391.4760544217687	391.55732426303854	69	127
391.4760544217687	391.55732426303854	57	127
391.55732426303854	391.6734240362812	71	127
391.55732426303854	391.6734240362812	59	127
391.6734240362812	391.7895238095238	73	127
391.6734240362812	391.7895238095238	61	127
391.7895238095238	391.8940136054422	74	127
391.7895238095238	391.8940136054422	62	127
391.90562358276645	392.0217233560091	76	127
391.90562358276645	392.0217233560091	64	127
392.03333333333336	392.1146031746032	65	127
392.03333333333336	392.1146031746032	77	127
392.12621315192746	392.2307029478458	64	127
392.12621315192746	392.2307029478458	76	127
392.2307029478458	392.3003628117914	65	127
392.2307029478458	392.3003628117914	77	127
392.46290249433105	392.53256235827666	74	127
392.46290249433105	392.53256235827666	62	127
392.7067120181406	392.82281179138323	67	127
392.7067120181406	392.82281179138323	79	127
392.82281179138323	392.93891156462587	66	127
392.82281179138323	392.93891156462587	78	127
392.93891156462587	393.04340136054424	67	127
392.93891156462587	393.04340136054424	79	127
393.04340136054424	393.1478911564626	64	127
393.04340136054424	393.1478911564626	76	127
393.1478911564626	393.22916099773244	65	127
393.1478911564626	393.22916099773244	77	127
393.35687074829934	393.44975056689344	62	127
393.35687074829934	393.44975056689344	74	127
393.58907029478456	393.69356009070293	73	127
393.7051700680272	393.82126984126984	74	127
393.8328798185941	393.9373696145125	76	127
393.8328798185941	394.0186394557823	67	127
393.8328798185941	394.0186394557823	57	127
393.8328798185941	394.0186394557823	64	127
393.94897959183675	394.0186394557823	77	127
394.0302494331066	394.1231292517007	79	127
394.13473922902494	394.2392290249433	81	127
394.2508390022676	394.4598185941043	57	127
394.2508390022676	394.35532879818595	83	127
394.2508390022676	394.4598185941043	64	127
394.2508390022676	394.4598185941043	67	127
394.3669387755102	394.4598185941043	85	127
394.4598185941043	394.49464852607707	86	127
394.622358276644	394.8081179138322	62	127
394.622358276644	394.8081179138322	50	127
394.622358276644	394.8081179138322	65	127
394.622358276644	394.7036281179138	74	127
394.8081179138322	394.8777777777778	86	127
395.0170975056689	395.2492970521542	46	127
395.0170975056689	395.0983673469388	74	127
395.0170975056689	395.2492970521542	62	127
395.0170975056689	395.2492970521542	65	127
395.2492970521542	395.36539682539683	75	127
395.36539682539683	395.4698866213152	77	127
395.48149659863947	395.67886621315193	39	127
395.48149659863947	395.67886621315193	63	127
395.48149659863947	395.67886621315193	67	127
395.48149659863947	395.57437641723357	79	127
395.58598639455784	395.67886621315193	81	127
395.6904761904762	395.77174603174603	82	127
395.7833560090703	395.8762358276644	84	127
395.8878458049887	396.0619954648526	65	127
395.8878458049887	396.0619954648526	46	127
395.8878458049887	395.98072562358277	86	127
395.8878458049887	396.0619954648526	62	127
395.99233560090704	396.0619954648526	89	127
396.0619954648526	396.17809523809524	70	127
396.0619954648526	396.44512471655327	91	127
396.0619954648526	396.44512471655327	63	127
396.17809523809524	396.2941950113379	72	127
396.2941950113379	396.36385487528344	70	127
396.5147845804989	396.607664399093	89	127
396.5147845804989	396.80503401360545	70	127
396.5147845804989	396.607664399093	62	127
396.607664399093	396.7005442176871	63	127
396.607664399093	396.7005442176871	91	127
396.7005442176871	396.7585941043084	62	127
396.7005442176871	396.7585941043084	89	127
396.8863038548753	396.99079365079365	67	127
396.8863038548753	397.24621315192746	60	127
396.8863038548753	397.24621315192746	87	127
396.99079365079365	397.095283446712	69	127
397.095283446712	397.17655328798185	67	127
397.315873015873	397.65256235827667	86	127
397.315873015873	397.65256235827667	67	127
397.315873015873	397.65256235827667	58	127
397.67578231292515	397.7338321995465	63	127
397.67578231292515	397.76866213151925	56	127
397.67578231292515	397.76866213151925	84	127
397.76866213151925	397.8847619047619	58	127
397.76866213151925	397.8847619047619	86	127
397.8847619047619	397.9544217687075	75	127
397.8847619047619	397.9544217687075	56	127
397.8847619047619	397.9544217687075	84	127
398.08213151927436	398.11696145124716	82	127
398.08213151927436	398.11696145124716	75	127
398.08213151927436	398.11696145124716	55	127
398.25628117913834	398.31433106575963	63	127
398.25628117913834	398.31433106575963	63	127
398.25628117913834	398.31433106575963	79	127
398.44204081632654	398.8251700680272	91	127
398.44204081632654	398.8251700680272	64	127
398.44204081632654	398.5581405895692	73	127
398.5581405895692	398.6742403628118	74	127
398.6742403628118	398.75551020408165	73	127
398.86	398.94126984126984	89	127
398.86	399.1502494331066	74	127
398.86	398.94126984126984	62	127
398.94126984126984	399.03414965986394	91	127
398.94126984126984	399.03414965986394	64	127
399.03414965986394	399.09219954648523	62	127
399.03414965986394	399.09219954648523	89	127
399.2315192743764	399.5798185941043	88	127
399.2315192743764	399.3360090702948	69	127
399.2315192743764	399.5798185941043	60	127
399.3360090702948	399.4521088435374	70	127
399.4521088435374	399.4985487528345	69	127
399.6378684807256	400.0209977324263	86	127
399.6378684807256	400.0209977324263	58	127
399.6378684807256	400.0209977324263	70	127
400.10226757369617	400.21836734693875	84	127
400.10226757369617	400.183537414966	60	127
400.10226757369617	400.21836734693875	69	127
400.21836734693875	400.34607709750566	86	127
400.21836734693875	400.34607709750566	70	127
400.34607709750566	400.43895691609976	48	127
400.34607709750566	400.43895691609976	84	127
400.34607709750566	400.43895691609976	69	127
400.5898866213152	400.6827664399093	49	127
400.5898866213152	400.7292063492063	67	127
400.5898866213152	400.7292063492063	82	127
400.7292063492063	400.84530612244896	84	127
400.7292063492063	400.84530612244896	69	127
400.84530612244896	400.9149659863946	37	127
400.84530612244896	400.9149659863946	67	127
400.84530612244896	400.9149659863946	82	127
401.07750566893424	401.4374149659864	50	127
401.07750566893424	401.4374149659864	81	127
401.07750566893424	401.4374149659864	66	127
402.20367346938775	403.5968707482993	66	127
402.20367346938775	403.5968707482993	69	127
402.20367346938775	403.5968707482993	87	127
402.20367346938775	403.5968707482993	72	127
402.20367346938775	403.5968707482993	45	127
402.20367346938775	403.5968707482993	38	127
417.49401360544215	417.94680272108843	74	127
418.0512925170068	418.3763718820862	67	127
418.3763718820862	418.7478911564626	70	127
418.51569160997735	419.2819501133787	67	127
418.7478911564626	419.2819501133787	74	127
419.29356009070295	420.57065759637186	75	127
419.29356009070295	419.52575963718823	60	127
419.52575963718823	420.001768707483	63	127
419.75795918367345	420.30362811791383	60	127
420.001768707483	420.30362811791383	67	127
420.30362811791383	420.57065759637186	53	127
420.30362811791383	421.74326530612245	68	127
420.57065759637186	420.9073469387755	77	127
420.57065759637186	420.9189569160998	56	127
420.9189569160998	421.2788662131519	75	127
420.9189569160998	421.2788662131519	60	127
421.29047619047617	422.7301133786848	74	127
421.29047619047617	421.8593650793651	58	127
421.74326530612245	421.97546485260773	70	127
421.87097505668936	422.3121541950113	46	127
421.97546485260773	422.3121541950113	68	127
422.3237641723356	423.8098412698413	67	127
422.3237641723356	422.74172335600906	51	127
422.74172335600906	423.1248526077097	75	127
422.74172335600906	423.136462585034	55	127
423.136462585034	423.42671201814056	58	127
423.136462585034	423.42671201814056	74	127
423.42671201814056	424.9592290249433	72	127
423.42671201814056	424.0304308390023	57	127
423.8098412698413	424.1465306122449	69	127
424.0304308390023	424.6225396825397	45	127
424.1813605442177	424.6225396825397	67	127
424.63414965986397	425.4468480725624	66	127
424.63414965986397	424.9592290249433	50	127
424.9592290249433	425.3075283446712	54	127
424.9592290249433	425.3075283446712	74	127
425.3075283446712	425.7603174603175	72	127
425.3075283446712	425.7603174603175	57	127
425.78353741496596	426.3175963718821	38	127
426.3175963718821	426.6542857142857	60	127
426.3175963718821	426.6542857142857	45	127
426.6542857142857	426.92131519274375	66	127
426.6542857142857	426.92131519274375	50	127
426.92131519274375	427.37410430839003	69	127
426.92131519274375	427.37410430839003	54	127
427.2580045351474	427.4785941043084	74	127
427.50181405895694	428.09392290249434	72	127
428.1055328798186	428.477052154195	38	127
428.477052154195	428.72086167800455	60	127
428.477052154195	428.72086167800455	45	127
428.72086167800455	429.2665306122449	50	127
428.72086167800455	429.2665306122449	66	127
429.2665306122449	429.8354195011338	54	127
429.2665306122449	429.8354195011338	69	127
429.71931972789116	430.1140589569161	74	127
430.1140589569161	430.5552380952381	72	127
430.5552380952381	431.2170068027211	39	127
431.2170068027211	431.4608163265306	60	127
431.2170068027211	431.4608163265306	45	127
431.4608163265306	431.7742857142857	66	127
431.4608163265306	431.7742857142857	51	127
431.7742857142857	432.26190476190476	54	127
431.7742857142857	432.0993650793651	69	127
432.0993650793651	432.6102040816327	71	127
432.0993650793651	432.6102040816327	74	127
432.31995464852605	433.2371428571429	39	127
432.6102040816327	433.2371428571429	72	127
432.6102040816327	433.2371428571429	69	127
433.2487528344671	433.95696145124714	71	127
433.2487528344671	433.95696145124714	67	127
433.2487528344671	433.43451247165535	40	127
433.44612244897957	433.71315192743765	47	127
433.71315192743765	434.1311111111111	52	127
434.1311111111111	434.479410430839	69	127
434.1311111111111	434.479410430839	65	127
434.1311111111111	434.479410430839	45	127
434.49102040816325	434.9089795918367	48	127
434.49102040816325	434.9089795918367	71	127
434.49102040816325	434.9089795918367	67	127
434.920589569161	435.2804988662132	72	127
434.920589569161	435.2804988662132	69	127
434.920589569161	435.2804988662132	53	127
435.2804988662132	436.6388662131519	67	127
435.2804988662132	436.6388662131519	64	127
435.2804988662132	435.6984580498866	47	127
435.6984580498866	436.1396371882086	52	127
436.1512471655329	436.62725623582764	55	127
436.6388662131519	436.8710657596372	58	127
436.6388662131519	438.98408163265304	64	127
436.6388662131519	438.98408163265304	67	127
436.8710657596372	437.12648526077095	59	127
437.12648526077095	437.2658049886621	58	127
437.2658049886621	437.34707482993196	59	127
437.34707482993196	438.6822222222222	58	127
438.6822222222222	438.89120181405895	59	127
438.89120181405895	439.0305215419501	56	127
439.0305215419501	439.1001814058957	58	127
439.1001814058957	439.5297505668934	63	127
439.1001814058957	439.5297505668934	59	127
439.1001814058957	439.5297505668934	66	127
449.03832199546486	449.16603174603176	77	127
449.16603174603176	449.2821315192744	78	127
449.2821315192744	449.35179138321996	73	127
449.5143310657596	449.9671201814059	74	127
449.81619047619046	450.04839002267573	65	127
449.81619047619046	450.04839002267573	68	127
450.04839002267573	450.53600907029477	73	127
450.04839002267573	450.35024943310657	69	127
450.04839002267573	450.35024943310657	66	127
450.35024943310657	450.44312925170067	61	127
450.35024943310657	450.44312925170067	65	127
450.6056689342404	450.98879818594105	62	127
450.6056689342404	450.98879818594105	66	127
450.6056689342404	450.98879818594105	71	127
451.11650793650796	451.52285714285716	64	127
451.11650793650796	451.52285714285716	69	127
451.11650793650796	451.52285714285716	61	127
451.5925170068027	451.9640362811791	62	127
451.5925170068027	451.650566893424	68	127
451.5925170068027	451.9640362811791	59	127
451.650566893424	451.6970068027211	69	127
451.6970068027211	451.92920634920637	68	127
451.92920634920637	452.03369614512474	66	127
452.03369614512474	452.4284353741497	57	127
452.03369614512474	452.4284353741497	61	127
452.03369614512474	452.4284353741497	66	127
452.5445351473923	452.6025850340136	56	127
452.5445351473923	452.927664399093	59	127
452.6025850340136	452.66063492063495	57	127
452.66063492063495	452.89283446712017	56	127
452.7651247165533	452.99732426303854	77	127
452.89283446712017	452.99732426303854	54	127
452.99732426303854	453.43850340136055	54	127
452.99732426303854	453.43850340136055	57	127
452.99732426303854	453.2643537414966	78	127
453.2643537414966	453.3572335600907	73	127
453.53138321995465	453.9261224489796	74	127
453.7751927437642	453.99578231292514	68	127
453.7751927437642	453.99578231292514	65	127
453.99578231292514	454.2395918367347	66	127
453.99578231292514	454.39052154195014	73	127
453.99578231292514	454.2395918367347	69	127
454.2395918367347	454.30925170068025	61	127
454.2395918367347	454.30925170068025	65	127
454.4601814058957	454.8317006802721	66	127
454.4601814058957	454.8317006802721	62	127
454.692380952381	454.9129705215419	80	127
454.9129705215419	455.1451700680272	81	127
454.9129705215419	455.3309297052154	61	127
454.9129705215419	455.3309297052154	64	127
455.1451700680272	455.26126984126984	76	127
455.4121995464853	455.8998185941043	77	127
455.70244897959185	455.8998185941043	71	127
455.70244897959185	455.8998185941043	68	127
455.8998185941043	456.32938775510206	76	127
455.8998185941043	456.1436281179138	73	127
455.8998185941043	456.1436281179138	69	127
456.16684807256235	456.25972789115644	64	127
456.16684807256235	456.25972789115644	61	127
456.3990476190476	456.82861678004537	62	127
456.3990476190476	456.82861678004537	65	127
456.6776870748299	456.8982766439909	80	127
456.8982766439909	457.2697959183673	64	127
456.8982766439909	457.11886621315193	81	127
456.8982766439909	457.2697959183673	61	127
457.1304761904762	457.20013605442176	76	127
457.33945578231294	457.8154648526077	77	127
457.5948752834467	457.8154648526077	68	127
457.5948752834467	457.8154648526077	71	127
457.8154648526077	458.1753741496599	76	127
457.8154648526077	458.02444444444444	73	127
457.8154648526077	458.02444444444444	69	127
458.0360544217687	458.10571428571427	61	127
458.0360544217687	458.10571428571427	64	127
458.24503401360545	458.6397732426304	62	127
458.24503401360545	458.6397732426304	65	127
458.488843537415	458.755873015873	80	127
458.755873015873	458.976462585034	81	127
458.755873015873	458.976462585034	64	127
458.755873015873	458.976462585034	61	127
458.976462585034	459.2202721088435	73	127
458.976462585034	459.2202721088435	76	127
459.2202721088435	459.4408616780045	74	127
459.2202721088435	459.4408616780045	77	127
459.4408616780045	459.64984126984126	64	127
459.4408616780045	459.64984126984126	73	127
459.4408616780045	459.64984126984126	69	127
459.64984126984126	459.87043083900227	74	127
459.64984126984126	459.87043083900227	65	127
459.64984126984126	459.87043083900227	70	127
459.87043083900227	460.1374603174603	61	127
459.87043083900227	460.1374603174603	69	127
459.87043083900227	460.1374603174603	64	127
460.1374603174603	460.36965986394557	65	127
460.1374603174603	460.36965986394557	62	127
460.1374603174603	460.36965986394557	70	127
460.36965986394557	460.5902494331066	66	127
460.36965986394557	460.5902494331066	57	127
460.36965986394557	460.5902494331066	60	127
460.5902494331066	460.8108390022676	58	127
460.5902494331066	460.8108390022676	67	127
460.5902494331066	460.8108390022676	62	127
460.8108390022676	461.04303854875286	54	127
460.8108390022676	461.04303854875286	81	127
461.04303854875286	461.2636281179138	55	127
461.04303854875286	461.2636281179138	82	127
461.2636281179138	461.47260770975055	78	127
461.2636281179138	461.47260770975055	74	127
461.47260770975055	461.6815873015873	79	127
461.47260770975055	461.6815873015873	75	127
461.69319727891155	461.9370068027211	74	127
461.69319727891155	461.9370068027211	66	127
461.69319727891155	461.9370068027211	71	127
461.9370068027211	462.14598639455784	72	127
461.9370068027211	462.14598639455784	67	127
461.9370068027211	462.14598639455784	75	127
462.1575963718821	462.4014058956916	66	127
462.1575963718821	462.4014058956916	62	127
462.1575963718821	462.4014058956916	71	127
462.4014058956916	462.64521541950114	72	127
462.4014058956916	462.6336054421769	63	127
462.4014058956916	462.64521541950114	67	127
462.64521541950114	462.86580498866215	62	127
462.64521541950114	462.86580498866215	59	127
462.64521541950114	462.86580498866215	67	127
462.86580498866215	463.08639455782316	60	127
462.86580498866215	463.0747845804989	63	127
462.86580498866215	462.9354648526077	68	127
463.08639455782316	463.3185941043084	55	127
463.08639455782316	463.167664399093	63	127
463.3185941043084	463.5275736961451	56	127
463.5391836734694	463.7481632653061	83	127
463.7481632653061	463.9107029478458	84	127
463.9107029478458	464.14290249433105	67	127
463.9107029478458	464.14290249433105	52	127
463.9107029478458	463.99197278911566	72	127
464.14290249433105	464.21256235827667	53	127
464.14290249433105	464.21256235827667	68	127
464.3867120181406	464.45637188208616	53	127
464.3867120181406	464.6073015873016	83	127
464.3867120181406	464.45637188208616	56	127
464.6073015873016	464.81628117913834	84	127
464.81628117913834	465.0368707482993	52	127
464.81628117913834	464.8859410430839	72	127
464.81628117913834	465.0368707482993	67	127
465.0368707482993	465.1065306122449	68	127
465.0368707482993	465.1065306122449	53	127
465.26907029478457	465.3503401360544	53	127
465.26907029478457	465.50126984126985	84	127
465.26907029478457	465.3503401360544	56	127
465.50126984126985	465.7102494331066	85	127
465.7102494331066	465.77990929705214	73	127
465.7102494331066	465.9308390022676	52	127
465.7102494331066	465.9308390022676	67	127
465.9308390022676	466.00049886621315	53	127
465.9308390022676	466.00049886621315	68	127
466.18625850340135	466.25591836734696	53	127
466.18625850340135	466.25591836734696	56	127
466.18625850340135	466.3952380952381	84	127
466.3952380952381	466.59260770975055	85	127
466.59260770975055	466.82480725623583	53	127
466.59260770975055	466.66226757369617	73	127
466.59260770975055	466.82480725623583	68	127
466.82480725623583	466.90607709750566	69	127
466.82480725623583	466.90607709750566	54	127
467.0686167800454	467.13827664399093	54	127
467.0686167800454	467.13827664399093	57	127
467.0686167800454	467.2543764172336	85	127
467.2543764172336	467.4633560090703	86	127
467.4749659863946	467.6839455782313	53	127
467.4749659863946	467.54462585034014	74	127
467.4749659863946	467.6839455782313	68	127
467.6839455782313	467.7536054421769	69	127
467.6839455782313	467.7536054421769	54	127
467.91614512471654	468.1251247165533	85	127
467.91614512471654	467.98580498866215	57	127
467.91614512471654	467.98580498866215	54	127
468.1251247165533	468.33410430839	86	127
468.3457142857143	468.41537414965984	74	127
468.3457142857143	468.5895238095238	69	127
468.3457142857143	468.5895238095238	54	127
468.5895238095238	468.7172335600907	70	127
468.5895238095238	468.7172335600907	55	127
468.8797732426304	468.9610430839002	58	127
468.8797732426304	468.9610430839002	55	127
469.35578231292516	469.5647619047619	57	127
469.35578231292516	469.5647619047619	66	127
469.5647619047619	469.7505215419501	58	127
469.5647619047619	469.7505215419501	67	127
469.7505215419501	469.8201814058957	62	127
469.7505215419501	469.8201814058957	58	127
470.2033106575964	470.43551020408165	57	127
470.2033106575964	470.43551020408165	66	127
470.43551020408165	470.6444897959184	67	127
470.43551020408165	470.6444897959184	58	127
470.6444897959184	470.71414965986395	62	127
470.6444897959184	470.71414965986395	58	127
471.08566893424035	471.2946485260771	65	127
471.08566893424035	471.2946485260771	56	127
471.2946485260771	471.5036281179138	59	127
471.2946485260771	471.5036281179138	68	127
471.5036281179138	471.7358276643991	59	127
471.5036281179138	471.7358276643991	68	127
471.7358276643991	471.9680272108844	71	127
471.7358276643991	471.9680272108844	62	127
471.97963718820864	472.1886167800454	62	127
471.97963718820864	472.1886167800454	71	127
472.1886167800454	472.57174603174604	72	127
472.1886167800454	472.57174603174604	63	127
472.8736054421769	473.11741496598637	57	127
472.8736054421769	473.11741496598637	64	127
472.8736054421769	473.11741496598637	73	127
473.11741496598637	473.3263945578231	50	127
473.11741496598637	473.3263945578231	74	127
473.11741496598637	473.3263945578231	66	127
473.34961451247165	473.4192743764172	66	127
473.34961451247165	473.4192743764172	69	127
473.34961451247165	473.4192743764172	50	127
473.7443537414966	473.9881632653061	57	127
473.7443537414966	473.9881632653061	73	127
473.7443537414966	473.9881632653061	64	127
473.9881632653061	474.1739229024943	50	127
473.9881632653061	474.1739229024943	66	127
473.9881632653061	474.1739229024943	74	127
474.1739229024943	474.25519274376416	50	127
474.1739229024943	474.25519274376416	66	127
474.1739229024943	474.25519274376416	69	127
474.5918820861678	474.80086167800454	63	127
474.5918820861678	474.80086167800454	72	127
474.80086167800454	475.0330612244898	66	127
474.80086167800454	475.0330612244898	75	127
475.0330612244898	475.2536507936508	66	127
475.0330612244898	475.2536507936508	75	127
475.2536507936508	475.48585034013604	69	127
475.2536507936508	475.48585034013604	78	127
475.48585034013604	475.70643990929705	69	127
475.48585034013604	475.70643990929705	78	127
475.70643990929705	476.0315192743764	79	127
475.70643990929705	476.0315192743764	70	127
476.2869387755102	476.4959183673469	71	127
476.2869387755102	476.4959183673469	64	127
476.2869387755102	476.4959183673469	80	127
476.4959183673469	476.73972789115646	73	127
476.4959183673469	476.73972789115646	57	127
476.4959183673469	476.73972789115646	81	127
476.73972789115646	476.8209977324263	76	127
476.73972789115646	476.8209977324263	73	127
476.73972789115646	476.8209977324263	57	127
477.20412698412696	477.4014965986395	64	127
477.20412698412696	477.4014965986395	80	127
477.20412698412696	477.4014965986395	71	127
477.4014965986395	477.61047619047616	57	127
477.4014965986395	477.61047619047616	81	127
477.4014965986395	477.61047619047616	73	127
477.62208616780043	477.69174603174605	76	127
477.62208616780043	477.69174603174605	57	127
477.62208616780043	477.69174603174605	73	127
478.0400453514739	478.2374149659864	67	127
478.0400453514739	478.2374149659864	61	127
478.0400453514739	478.2374149659864	58	127
478.2374149659864	478.4580045351474	61	127
478.2374149659864	478.4580045351474	64	127
478.2374149659864	478.4580045351474	70	127
478.46961451247165	478.6785941043084	70	127
478.46961451247165	478.6785941043084	64	127
478.46961451247165	478.6785941043084	61	127
478.6785941043084	478.8875736961451	73	127
478.6785941043084	478.8875736961451	67	127
478.6785941043084	478.8875736961451	64	127
478.8875736961451	479.10816326530613	64	127
478.8875736961451	479.10816326530613	67	127
478.8875736961451	479.10816326530613	73	127
479.10816326530613	479.456462585034	70	127
479.10816326530613	479.456462585034	76	127
479.10816326530613	479.456462585034	67	127
479.73510204081634	479.96730158730156	69	127
479.73510204081634	479.96730158730156	63	127
479.73510204081634	479.96730158730156	60	127
479.96730158730156	480.19950113378684	63	127
479.96730158730156	480.19950113378684	66	127
479.96730158730156	480.19950113378684	72	127
480.19950113378684	480.4317006802721	72	127
480.19950113378684	480.4317006802721	63	127
480.19950113378684	480.4317006802721	66	127
480.4317006802721	480.6290702947846	69	127
480.4317006802721	480.6290702947846	66	127
480.4317006802721	480.6290702947846	75	127
480.6290702947846	480.79160997732424	69	127
480.6290702947846	480.79160997732424	66	127
480.6290702947846	480.79160997732424	75	127
480.79160997732424	481.1515192743764	72	127
480.79160997732424	481.1515192743764	69	127
480.79160997732424	481.1515192743764	78	127
481.441768707483	481.67396825396827	71	127
481.441768707483	481.67396825396827	65	127
481.441768707483	481.67396825396827	62	127
481.67396825396827	481.882947845805	68	127
481.67396825396827	481.882947845805	65	127
481.67396825396827	481.882947845805	74	127
481.882947845805	482.0687074829932	65	127
481.882947845805	482.0687074829932	74	127
481.882947845805	482.0687074829932	68	127
482.0687074829932	482.24285714285713	68	127
482.0687074829932	482.24285714285713	77	127
482.0687074829932	482.24285714285713	71	127
482.2544671201814	482.45183673469387	71	127
482.2544671201814	482.45183673469387	68	127
482.2544671201814	482.45183673469387	77	127
482.45183673469387	482.6143764172336	74	127
482.45183673469387	482.6143764172336	80	127
482.45183673469387	482.6143764172336	59	127
482.6259863945578	482.765306122449	74	127
482.6259863945578	482.765306122449	59	127
482.6259863945578	482.765306122449	80	127
482.765306122449	483.12521541950116	55	127
482.765306122449	483.12521541950116	79	127
482.765306122449	483.12521541950116	76	127
483.1948752834467	483.5083446712018	75	127
483.1948752834467	483.5083446712018	57	127
483.1948752834467	483.5083446712018	78	127
483.5663945578231	483.90308390022676	77	127
483.5663945578231	483.90308390022676	59	127
483.5663945578231	483.90308390022676	74	127
483.9727437641723	484.30943310657597	76	127
483.9727437641723	484.30943310657597	72	127
483.9727437641723	484.30943310657597	60	127
484.36748299319726	485.09891156462584	70	127
484.36748299319726	485.2034013605442	75	127
484.36748299319726	485.2034013605442	61	127
484.36748299319726	485.09891156462584	67	127
485.2034013605442	485.8071201814059	73	127
485.2034013605442	485.8071201814059	63	127
485.2034013605442	485.8071201814059	67	127
485.91160997732425	486.2134693877551	62	127
485.91160997732425	486.2134693877551	66	127
485.91160997732425	486.2134693877551	74	127
488.67478458049885	488.94181405895694	62	127
488.67478458049885	488.94181405895694	50	127
488.67478458049885	488.94181405895694	50	127
489.0114739229025	489.2901133786848	54	127
489.0114739229025	489.2901133786848	54	127
489.0114739229025	489.2901133786848	66	127
489.3597732426304	489.68485260770973	57	127
489.3597732426304	489.68485260770973	57	127
489.3597732426304	489.68485260770973	69	127
489.7312925170068	489.98671201814057	72	127
489.7312925170068	489.98671201814057	60	127
489.7312925170068	489.98671201814057	60	127
490.0447619047619	490.12603174603174	78	127
490.0447619047619	490.12603174603174	69	127
490.0447619047619	490.12603174603174	72	127
490.12603174603174	490.1956916099773	70	127
490.12603174603174	490.1956916099773	74	127
490.12603174603174	490.1956916099773	79	127
490.1956916099773	490.2653514739229	69	127
490.1956916099773	490.2653514739229	78	127
490.1956916099773	490.2653514739229	72	127
490.2653514739229	490.3350113378685	74	127
490.2653514739229	490.3350113378685	70	127
490.2653514739229	490.3350113378685	79	127
490.3350113378685	490.39306122448977	69	127
490.3350113378685	490.39306122448977	78	127
490.3350113378685	490.39306122448977	72	127
490.39306122448977	490.4627210884354	74	127
490.39306122448977	490.4627210884354	70	127
490.39306122448977	490.4627210884354	79	127
490.4627210884354	490.53238095238095	78	127
490.4627210884354	490.53238095238095	72	127
490.4627210884354	490.53238095238095	69	127
490.53238095238095	490.6020408163265	79	127
490.53238095238095	490.6020408163265	74	127
490.53238095238095	490.6020408163265	70	127
490.6020408163265	490.6717006802721	78	127
490.6020408163265	490.6717006802721	72	127
490.6020408163265	490.6717006802721	69	127
490.6717006802721	490.7413605442177	70	127
490.6717006802721	490.7413605442177	74	127
490.6717006802721	490.7413605442177	79	127
490.7413605442177	490.7645804988662	78	127
490.7413605442177	490.7645804988662	72	127
490.7413605442177	490.7645804988662	69	127
490.7645804988662	490.8342403628118	74	127
490.7645804988662	490.8342403628118	79	127
490.7645804988662	490.8342403628118	70	127
490.8342403628118	490.90390022675734	72	127
490.8342403628118	490.90390022675734	78	127
490.8342403628118	490.90390022675734	69	127
490.90390022675734	490.97356009070296	70	127
490.90390022675734	490.97356009070296	74	127
490.90390022675734	490.97356009070296	79	127
490.97356009070296	491.03160997732425	78	127
490.97356009070296	491.03160997732425	72	127
490.97356009070296	491.03160997732425	69	127
491.03160997732425	491.0432199546485	70	127
491.03160997732425	491.0432199546485	79	127
491.03160997732425	491.0432199546485	74	127
491.0432199546485	491.1128798185941	72	127
491.0432199546485	491.1128798185941	69	127
491.0432199546485	491.1128798185941	78	127
491.1128798185941	491.1709297052154	79	127
491.1128798185941	491.1709297052154	70	127
491.1128798185941	491.1709297052154	74	127
491.1709297052154	491.2289795918367	72	127
491.1709297052154	491.2289795918367	69	127
491.1709297052154	491.2289795918367	78	127
491.2289795918367	491.29863945578234	79	127
491.2289795918367	491.29863945578234	74	127
491.2289795918367	491.29863945578234	70	127
491.29863945578234	491.3682993197279	72	127
491.29863945578234	491.3682993197279	69	127
491.29863945578234	491.3682993197279	78	127
491.3682993197279	491.43795918367346	74	127
491.3682993197279	491.43795918367346	79	127
491.3682993197279	491.43795918367346	70	127
491.43795918367346	491.5076190476191	67	127
491.43795918367346	491.5076190476191	70	127
491.43795918367346	491.5076190476191	76	127
491.5076190476191	491.57727891156463	69	127
491.5076190476191	491.57727891156463	78	127
491.5076190476191	491.57727891156463	72	127
491.57727891156463	491.902358276644	67	127
491.57727891156463	491.8675283446712	70	127
491.57727891156463	491.8675283446712	62	127
491.57727891156463	491.76303854875283	55	127
491.57727891156463	491.76303854875283	62	127
491.67015873015873	491.8675283446712	70	127
491.67015873015873	491.8675283446712	79	127
491.8675283446712	491.9604081632653	67	127
491.8675283446712	491.9604081632653	67	127
491.9604081632653	492.2158276643991	62	127
491.9604081632653	492.1345578231292	43	127
491.9604081632653	492.2158276643991	70	127
491.9604081632653	492.1345578231292	50	127
492.1461678004535	492.3203174603175	55	127
492.2158276643991	492.3203174603175	70	127
492.2158276643991	492.3203174603175	62	127
492.3203174603175	492.43641723356006	50	127
492.3203174603175	492.35514739229023	69	127
492.3203174603175	492.43641723356006	43	127
492.3203174603175	492.35514739229023	60	127
492.43641723356006	492.4596371882086	58	127
492.43641723356006	492.57573696145124	55	127
492.43641723356006	492.4596371882086	67	127
492.57573696145124	492.76149659863944	50	127
492.57573696145124	492.6337868480726	57	127
492.57573696145124	492.6337868480726	66	127
492.57573696145124	492.76149659863944	43	127
492.7731065759637	492.83115646258506	67	127
492.7731065759637	492.9704761904762	55	127
492.7731065759637	492.83115646258506	58	127
492.9704761904762	493.29555555555555	57	127
492.9704761904762	493.29555555555555	74	127
492.9704761904762	493.1794557823129	43	127
492.9704761904762	493.1794557823129	50	127
492.9704761904762	493.29555555555555	66	127
493.1794557823129	493.35360544217684	55	127
493.35360544217684	493.5974149659864	66	127
493.35360544217684	493.5393650793651	43	127
493.35360544217684	493.5974149659864	69	127
493.35360544217684	493.5393650793651	50	127
493.35360544217684	493.5974149659864	62	127
493.55097505668937	493.6786848072562	55	127
493.5974149659864	493.6786848072562	62	127
493.5974149659864	493.6786848072562	62	127
493.6786848072562	493.93410430839003	58	127
493.6786848072562	493.93410430839003	67	127
493.6786848072562	493.8760544217687	43	127
493.6786848072562	493.8760544217687	50	127
493.8760544217687	494.0385941043084	55	127
493.9457142857143	494.0385941043084	67	127
493.9457142857143	494.0385941043084	67	127
494.0385941043084	494.29401360544216	62	127
494.0385941043084	494.24757369614514	50	127
494.0385941043084	494.29401360544216	70	127
494.0385941043084	494.24757369614514	43	127
494.24757369614514	494.3520634920635	55	127
494.29401360544216	494.3520634920635	70	127
494.29401360544216	494.3520634920635	62	127
494.3520634920635	494.4913832199546	50	127
494.3520634920635	494.37528344671205	60	127
494.3520634920635	494.4913832199546	43	127
494.3520634920635	494.37528344671205	69	127
494.4913832199546	494.6655328798186	55	127
494.4913832199546	494.56104308390024	58	127
494.4913832199546	494.56104308390024	67	127
494.6655328798186	494.7235827664399	66	127
494.6655328798186	494.80485260770973	50	127
494.6655328798186	494.7235827664399	57	127
494.6655328798186	494.80485260770973	43	127
494.80485260770973	494.83968253968254	58	127
494.80485260770973	494.83968253968254	67	127
494.80485260770973	494.9557823129252	55	127
494.96739229024945	495.11832199546484	74	127
494.96739229024945	495.02544217687074	55	127
494.96739229024945	495.11832199546484	70	127
495.11832199546484	495.1763718820862	52	127
495.11832199546484	495.28086167800456	76	127
495.11832199546484	495.28086167800456	67	127
495.11832199546484	495.28086167800456	61	127
495.28086167800456	495.33891156462585	50	127
495.28086167800456	495.5827210884354	69	127
495.28086167800456	495.5827210884354	78	127
495.28086167800456	495.55950113378685	62	127
495.46662131519275	495.5362811791383	48	127
495.55950113378685	495.6407709750567	62	127
495.6407709750567	495.87297052154196	70	127
495.6407709750567	495.87297052154196	58	127
495.6407709750567	495.8033106575964	46	127
495.6407709750567	495.8033106575964	62	127
495.7336507936508	495.87297052154196	79	127
495.8149206349206	495.96585034013606	45	127
495.87297052154196	495.96585034013606	67	127
495.87297052154196	495.96585034013606	79	127
495.96585034013606	496.14	50	127
495.96585034013606	496.14	43	127
495.96585034013606	496.2328798185941	62	127
495.96585034013606	496.2328798185941	82	127
496.14	496.27931972789116	55	127
496.24448979591835	496.27931972789116	82	127
496.24448979591835	496.27931972789116	62	127
496.27931972789116	496.4418594104308	50	127
496.27931972789116	496.3257596371882	60	127
496.27931972789116	496.4418594104308	43	127
496.27931972789116	496.3257596371882	81	127
496.4418594104308	496.6160090702948	55	127
496.4418594104308	496.4882993197279	58	127
496.4418594104308	496.4882993197279	79	127
496.6160090702948	496.6392290249433	78	127
496.6160090702948	496.7204988662132	50	127
496.6160090702948	496.7204988662132	43	127
496.6160090702948	496.6392290249433	57	127
496.7204988662132	496.87142857142857	55	127
496.7204988662132	496.77854875283447	79	127
496.7204988662132	496.77854875283447	58	127
496.87142857142857	497.06879818594103	50	127
496.87142857142857	497.19650793650794	57	127
496.87142857142857	497.19650793650794	86	127
496.87142857142857	497.06879818594103	43	127
497.0804081632653	497.25455782312923	55	127
497.2661678004535	497.50997732426305	62	127
497.2661678004535	497.4403174603175	50	127
497.2661678004535	497.50997732426305	81	127
497.2661678004535	497.4403174603175	43	127
497.4403174603175	497.60285714285715	55	127
497.5215873015873	497.60285714285715	62	127
497.5215873015873	497.60285714285715	74	127
497.60285714285715	497.8350566893424	58	127
497.60285714285715	497.8350566893424	79	127
497.60285714285715	497.7653968253968	50	127
497.60285714285715	497.7653968253968	43	127
497.7653968253968	497.91632653061225	55	127
497.8350566893424	497.9279365079365	79	127
497.8350566893424	497.9279365079365	67	127
497.9279365079365	498.19496598639455	82	127
497.9279365079365	498.19496598639455	62	127
497.9279365079365	498.10208616780045	43	127
497.9279365079365	498.10208616780045	50	127
498.10208616780045	498.28784580498865	55	127
498.2065759637188	498.28784580498865	82	127
498.2065759637188	498.28784580498865	62	127
498.28784580498865	498.3342857142857	60	127
498.28784580498865	498.3342857142857	81	127
498.28784580498865	498.45038548752837	43	127
498.28784580498865	498.45038548752837	50	127
498.45038548752837	498.50843537414966	79	127
498.45038548752837	498.612925170068	55	127
498.45038548752837	498.50843537414966	58	127
498.6245351473923	498.6709750566893	57	127
498.6245351473923	498.78707482993195	43	127
498.6245351473923	498.78707482993195	50	127
498.6245351473923	498.6709750566893	78	127
498.7986848072562	498.9380045351474	55	127
498.7986848072562	498.85673469387757	79	127
498.7986848072562	498.85673469387757	58	127
498.9380045351474	499.01927437641723	70	127
498.9380045351474	498.9728344671202	55	127
498.9380045351474	499.01927437641723	86	127
499.01927437641723	499.0773242630386	52	127
499.01927437641723	499.2050340136054	61	127
499.01927437641723	499.2050340136054	88	127
499.2166439909297	499.448843537415	62	127
499.2166439909297	499.448843537415	90	127
499.2166439909297	499.27469387755104	50	127
499.4024036281179	499.448843537415	48	127
499.51850340136053	499.68104308390025	46	127
499.51850340136053	499.7855328798186	75	127
499.51850340136053	499.7855328798186	91	127
499.68104308390025	499.8435827664399	58	127
499.8435827664399	499.9829024943311	46	127
499.8435827664399	499.9016326530612	89	127
499.8435827664399	499.9016326530612	74	127
499.9016326530612	499.9829024943311	91	127
499.9016326530612	499.9829024943311	75	127
499.9829024943311	500.0990022675737	58	127
500.0990022675737	500.2847619047619	46	127
500.0990022675737	500.42408163265304	72	127
500.0990022675737	500.42408163265304	87	127
500.2847619047619	500.4821315192744	58	127
500.4821315192744	500.6562811791383	46	127
500.4821315192744	500.7491609977324	70	127
500.4821315192744	500.7491609977324	86	127
500.6562811791383	500.80721088435376	58	127
500.818820861678	500.91170068027213	69	127
500.818820861678	500.91170068027213	84	127
500.818820861678	501.00458049886623	46	127
500.91170068027213	501.00458049886623	86	127
500.91170068027213	501.00458049886623	70	127
501.00458049886623	501.039410430839	84	127
501.00458049886623	501.1090702947846	58	127
501.00458049886623	501.039410430839	69	127
501.1090702947846	501.27160997732426	46	127
501.1090702947846	501.1671201814059	67	127
501.1090702947846	501.1671201814059	82	127
501.27160997732426	501.3412698412698	63	127
501.27160997732426	501.3412698412698	79	127
501.27160997732426	501.45736961451246	58	127
501.4689795918367	501.67795918367347	77	127
501.4689795918367	501.6199092970522	46	127
501.4689795918367	501.67795918367347	68	127
501.6199092970522	501.72439909297054	58	127
501.72439909297054	501.8288888888889	75	127
501.72439909297054	501.8288888888889	67	127
501.72439909297054	501.921768707483	46	127
501.8288888888889	501.921768707483	68	127
501.8288888888889	501.921768707483	77	127
501.921768707483	502.09591836734694	58	127
501.921768707483	501.9798185941043	75	127
501.921768707483	501.9798185941043	67	127
502.1075283446712	502.28167800453514	65	127
502.1075283446712	502.28167800453514	74	127
502.1075283446712	502.2120181405896	46	127
502.22362811791385	502.3513378684807	58	127
502.3513378684807	502.53709750566895	46	127
502.3513378684807	502.6648072562358	70	127
502.3513378684807	502.6648072562358	79	127
502.53709750566895	502.72285714285715	58	127
502.7344671201814	502.8273469387755	77	127
502.7344671201814	502.90861678004535	46	127
502.7344671201814	502.8273469387755	68	127
502.8273469387755	502.9202267573696	70	127
502.8273469387755	502.9202267573696	79	127
502.9202267573696	502.9782766439909	77	127
502.9202267573696	503.0827664399093	58	127
502.9202267573696	502.9782766439909	68	127
503.0827664399093	503.31496598639455	75	127
503.0827664399093	503.31496598639455	67	127
503.0827664399093	503.1988662131519	46	127
503.1988662131519	503.37301587301585	58	127
503.37301587301585	503.5587755102041	76	127
503.37301587301585	503.5587755102041	79	127
503.37301587301585	503.62843537414966	88	127
503.37301587301585	503.62843537414966	69	127
503.37301587301585	503.5587755102041	67	127
503.5587755102041	503.67487528344674	57	127
503.5587755102041	503.67487528344674	79	127
503.5587755102041	503.67487528344674	76	127
503.67487528344674	503.84902494331067	74	127
503.67487528344674	503.84902494331067	65	127
503.67487528344674	503.75614512471657	86	127
503.67487528344674	503.75614512471657	69	127
503.67487528344674	503.84902494331067	77	127
503.75614512471657	503.84902494331067	88	127
503.84902494331067	503.9883446712018	57	127
503.84902494331067	503.86063492063494	86	127
503.84902494331067	503.9883446712018	77	127
503.84902494331067	503.9883446712018	74	127
503.9883446712018	504.1624943310658	73	127
503.9883446712018	504.2902040816327	85	127
503.9883446712018	504.2902040816327	69	127
503.9883446712018	504.1624943310658	64	127
503.9883446712018	504.1624943310658	76	127
504.1624943310658	504.34825396825397	73	127
504.1624943310658	504.34825396825397	57	127
504.1624943310658	504.34825396825397	76	127
504.35986394557824	504.41791383219953	69	127
504.35986394557824	504.49918367346936	70	127
504.35986394557824	504.49918367346936	62	127
504.35986394557824	504.49918367346936	74	127
504.35986394557824	504.41791383219953	82	127
504.41791383219953	504.49918367346936	84	127
504.49918367346936	504.6617233560091	74	127
504.49918367346936	504.5572335600907	82	127
504.49918367346936	504.6617233560091	70	127
504.49918367346936	504.6617233560091	57	127
504.49918367346936	504.5572335600907	69	127
504.6617233560091	504.8474829931973	61	127
504.6617233560091	504.98680272108845	81	127
504.6617233560091	504.8474829931973	69	127
504.6617233560091	504.98680272108845	69	127
504.6617233560091	504.8474829931973	73	127
504.8474829931973	505.04485260770974	45	127
504.8474829931973	505.04485260770974	69	127
504.8474829931973	505.04485260770974	73	127
505.056462585034	505.1493424036281	69	127
505.056462585034	505.23061224489794	70	127
505.056462585034	505.23061224489794	58	127
505.056462585034	505.1493424036281	79	127
505.056462585034	505.23061224489794	67	127
505.1493424036281	505.23061224489794	81	127
505.23061224489794	505.4047619047619	70	127
505.23061224489794	505.4047619047619	67	127
505.23061224489794	505.30027210884356	79	127
505.23061224489794	505.4047619047619	45	127
505.4047619047619	505.4279818594104	69	127
505.4047619047619	505.5556916099773	65	127
505.4047619047619	505.4279818594104	77	127
505.4047619047619	505.5556916099773	69	127
505.4047619047619	505.5556916099773	57	127
505.5556916099773	505.71823129251703	69	127
505.5556916099773	505.61374149659866	76	127
505.5556916099773	505.71823129251703	65	127
505.5556916099773	505.71823129251703	45	127
505.72984126984124	505.8343310657596	55	127
505.72984126984124	505.8343310657596	64	127
505.72984126984124	505.8343310657596	67	127
505.72984126984124	505.7762811791383	77	127
505.8343310657596	505.98526077097506	64	127
505.8343310657596	505.85755102040815	79	127
505.8343310657596	505.98526077097506	45	127
505.8343310657596	505.98526077097506	67	127
505.98526077097506	506.11297052154197	57	127
505.98526077097506	506.11297052154197	65	127
505.98526077097506	506.11297052154197	69	127
505.98526077097506	506.0317006802721	77	127
506.11297052154197	506.17102040816326	76	127
506.11297052154197	506.2871201814059	69	127
506.11297052154197	506.2871201814059	65	127
506.11297052154197	506.2871201814059	45	127
506.2871201814059	506.4612698412698	67	127
506.2871201814059	506.3451700680272	74	127
506.2871201814059	506.4612698412698	70	127
506.2871201814059	506.4612698412698	58	127
506.4728798185941	506.5193197278912	73	127
506.4728798185941	506.62380952380954	45	127
506.4728798185941	506.62380952380954	70	127
506.4728798185941	506.62380952380954	67	127
506.62380952380954	506.76312925170066	65	127
506.62380952380954	506.68185941043083	74	127
506.62380952380954	506.76312925170066	69	127
506.62380952380954	506.76312925170066	57	127
506.76312925170066	506.9256689342404	45	127
506.76312925170066	506.80956916099774	76	127
506.76312925170066	506.9256689342404	65	127
506.76312925170066	506.9256689342404	69	127
506.9256689342404	507.07659863945577	55	127
506.9256689342404	506.98371882086167	77	127
506.9256689342404	507.07659863945577	67	127
506.9256689342404	507.07659863945577	64	127
507.08820861678004	507.2043083900227	45	127
507.08820861678004	507.2043083900227	64	127
507.08820861678004	507.2043083900227	67	127
507.08820861678004	507.1346485260771	79	127
507.2043083900227	507.36684807256233	65	127
507.2043083900227	507.27396825396823	77	127
507.2043083900227	507.36684807256233	69	127
507.2043083900227	507.36684807256233	57	127
507.36684807256233	507.5409977324263	50	127
507.36684807256233	507.5409977324263	69	127
507.36684807256233	507.43650793650795	76	127
507.36684807256233	507.5409977324263	65	127
507.5409977324263	507.6454875283447	58	127
507.5409977324263	507.6454875283447	70	127
507.5409977324263	507.6454875283447	67	127
507.5409977324263	507.57582766439907	74	127
507.65709750566896	507.703537414966	73	127
507.65709750566896	507.7848072562358	67	127
507.65709750566896	507.7848072562358	50	127
507.65709750566896	507.7848072562358	70	127
507.7964172335601	507.9589569160998	65	127
507.7964172335601	507.8660770975057	74	127
507.7964172335601	507.9589569160998	69	127
507.7964172335601	507.9589569160998	57	127
507.9589569160998	508.0053968253968	76	127
507.9589569160998	508.1098866213152	50	127
507.9589569160998	508.1098866213152	69	127
507.9589569160998	508.1098866213152	65	127
508.1098866213152	508.17954648526074	77	127
508.1098866213152	508.2956462585034	67	127
508.1098866213152	508.2956462585034	55	127
508.1098866213152	508.2956462585034	64	127
508.2956462585034	508.365306122449	79	127
508.2956462585034	508.4581859410431	64	127
508.2956462585034	508.4581859410431	67	127
508.2956462585034	508.4581859410431	50	127
508.46979591836737	508.62072562358276	66	127
508.46979591836737	508.5046258503401	81	127
508.46979591836737	508.62072562358276	62	127
508.46979591836737	508.62072562358276	54	127
508.62072562358276	508.6787755102041	82	127
508.62072562358276	508.7948752834467	66	127
508.62072562358276	508.7948752834467	62	127
508.62072562358276	508.7948752834467	50	127
508.7948752834467	508.9574149659864	38	127
508.7948752834467	508.9574149659864	72	127
508.7948752834467	508.8297052154195	84	127
508.7948752834467	508.9574149659864	62	127
508.9574149659864	509.1083446712018	72	127
508.9574149659864	508.98063492063494	81	127
508.9574149659864	509.1083446712018	62	127
508.9574149659864	509.1083446712018	50	127
509.11995464852606	509.31732426303853	70	127
509.11995464852606	509.31732426303853	43	127
509.11995464852606	509.31732426303853	70	127
509.11995464852606	509.31732426303853	79	127
509.11995464852606	509.31732426303853	62	127
509.468253968254	509.75850340136054	58	127
509.468253968254	509.75850340136054	70	127
509.468253968254	509.75850340136054	46	127
509.8049433106576	509.9674829931973	69	127
509.8049433106576	509.9674829931973	45	127
509.8049433106576	509.9674829931973	57	127
509.9674829931973	510.0603628117914	55	127
509.9674829931973	510.0603628117914	67	127
509.9674829931973	510.0603628117914	43	127
510.0603628117914	510.2345124716553	54	127
510.0603628117914	510.2345124716553	42	127
510.0603628117914	510.2345124716553	66	127
510.2345124716553	510.397052154195	55	127
510.2345124716553	510.397052154195	67	127
510.2345124716553	510.397052154195	43	127
510.397052154195	510.5479818594104	63	127
510.397052154195	510.5479818594104	75	127
510.397052154195	510.5479818594104	51	127
510.5479818594104	510.69891156462586	61	127
510.5479818594104	510.69891156462586	49	127
510.5479818594104	510.69891156462586	73	127
510.69891156462586	510.8730612244898	74	127
510.69891156462586	510.8730612244898	62	127
510.69891156462586	510.8730612244898	50	127
510.8730612244898	510.9891609977324	81	127
510.8730612244898	510.9891609977324	69	127
510.8730612244898	510.9891609977324	57	127
510.9891609977324	511.1400907029479	66	127
510.9891609977324	511.1400907029479	78	127
510.9891609977324	511.1400907029479	54	127
511.1400907029479	511.2678004535147	79	127
511.1400907029479	511.2678004535147	67	127
511.1400907029479	511.2678004535147	55	127
511.2678004535147	511.41873015873017	75	127
511.2678004535147	511.41873015873017	75	127
511.2678004535147	511.41873015873017	63	127
511.43034013605444	511.60448979591837	73	127
511.43034013605444	511.60448979591837	61	127
511.43034013605444	511.60448979591837	73	127
511.61609977324264	511.7554195011338	62	127
511.61609977324264	511.7554195011338	74	127
511.61609977324264	511.7554195011338	74	127
511.7554195011338	511.9063492063492	57	127
511.7554195011338	511.9063492063492	81	127
511.7554195011338	511.9063492063492	69	127
511.9063492063492	512.0224263038549	54	127
511.9063492063492	512.0224263038549	66	127
511.9063492063492	512.0224263038549	78	127
512.0224263038549	512.1965986394558	55	127
512.0224263038549	512.1965986394558	79	127
512.0224263038549	512.1965986394558	67	127
512.2082086167801	512.3243083900227	72	127
512.2082086167801	512.3243083900227	84	127
512.2082086167801	512.3243083900227	60	127
512.3243083900227	512.4171882086168	57	127
512.3243083900227	512.4171882086168	81	127
512.3243083900227	512.4171882086168	69	127
512.4171882086168	512.5448979591837	82	127
512.4171882086168	512.5448979591837	58	127
512.4171882086168	512.5448979591837	70	127
512.5448979591837	512.7306575963719	63	127
512.5448979591837	512.7306575963719	75	127
512.5448979591837	512.7306575963719	87	127
512.7306575963719	512.869977324263	85	127
512.7306575963719	512.869977324263	73	127
512.7306575963719	512.869977324263	61	127
512.869977324263	513.0209070294785	86	127
512.869977324263	513.0209070294785	62	127
512.869977324263	513.0209070294785	74	127
513.0209070294785	513.1834467120182	91	127
513.0209070294785	513.1834467120182	67	127
513.0209070294785	513.1834467120182	79	127
513.1950566893424	513.3459863945578	62	127
513.1950566893424	513.3459863945578	86	127
513.1950566893424	513.3459863945578	74	127
513.3459863945578	513.438866213152	67	127
513.3459863945578	513.438866213152	91	127
513.3459863945578	513.438866213152	79	127
513.4504535147393	513.6130158730159	62	127
513.4504535147393	513.6130158730159	74	127
513.4504535147393	513.6130158730159	86	127
513.6130158730159	513.7175056689342	67	127
513.6130158730159	513.7175056689342	91	127
513.6130158730159	513.7175056689342	79	127
513.7175056689342	513.8800453514739	86	127
513.7175056689342	513.8800453514739	74	127
513.7175056689342	513.8800453514739	62	127
513.8916553287982	513.9961451247166	79	127
513.8916553287982	513.9961451247166	91	127
513.8916553287982	513.9961451247166	67	127
514.3096145124716	514.4721315192744	62	127
514.3096145124716	514.4721315192744	62	127
514.3096145124716	514.4721315192744	74	127
514.3096145124716	514.4721315192744	86	127
514.4721315192744	514.5418140589569	62	127
514.4721315192744	514.5418140589569	67	127
514.4721315192744	514.5418140589569	91	127
514.4721315192744	514.5418140589569	70	127
514.901723356009	515.0178231292517	74	127
514.901723356009	515.0178231292517	62	127
514.901723356009	515.0178231292517	62	127
514.901723356009	515.0178231292517	86	127
515.0178231292517	515.1803628117914	67	127
515.0178231292517	515.1803628117914	91	127
515.0178231292517	515.1803628117914	70	127
515.0178231292517	515.1803628117914	62	127
515.5054195011338	515.563492063492	50	127
515.5054195011338	515.563492063492	74	127
515.5054195011338	515.563492063492	74	127
515.5054195011338	515.563492063492	62	127
515.563492063492	515.7143990929706	70	127
515.563492063492	515.7143990929706	70	127
515.563492063492	515.7143990929706	79	127
515.563492063492	515.7143990929706	62	127
515.563492063492	515.7143990929706	55	127
516.085941043084	516.2833106575964	62	127
516.085941043084	516.2833106575964	50	127
516.085941043084	516.2833106575964	74	127
516.085941043084	516.2833106575964	74	127
516.2833106575964	518.11768707483	55	127
516.2833106575964	518.11768707483	70	127
516.2833106575964	518.11768707483	70	127
516.2833106575964	518.11768707483	79	127
516.2833106575964	518.11768707483	62	127
518.11768707483	518.4543764172336	43	127
518.11768707483	518.4543764172336	55	127
518.11768707483	518.4543764172336	55	127
