# onset,offset,note,velocity
3.667981859410431	4.248458049886621	55	127
3.667981859410431	4.248458049886621	67	127
3.667981859410431	4.248458049886621	55	127
4.387800453514739	5.00312925170068	79	127
4.387800453514739	5.00312925170068	67	127
4.387800453514739	5.00312925170068	67	127
5.11922902494331	6.524036281179138	65	127
5.11922902494331	6.524036281179138	77	127
5.11922902494331	6.524036281179138	65	127
6.524036281179138	6.918775510204082	63	127
6.524036281179138	6.918775510204082	75	127
6.524036281179138	6.918775510204082	63	127
6.918775510204082	7.092925170068027	74	127
6.918775510204082	7.092925170068027	62	127
6.918775510204082	7.092925170068027	62	127
7.092925170068027	7.232244897959184	72	127
7.092925170068027	7.232244897959184	60	127
7.092925170068027	7.232244897959184	60	127
7.243854875283446	7.917233560090703	63	127
7.243854875283446	7.917233560090703	63	127
7.243854875283446	7.917233560090703	75	127
7.917233560090703	9.113061224489796	74	127
7.917233560090703	9.113061224489796	62	127
7.917233560090703	9.113061224489796	62	127
9.275600907029478	9.635510204081633	60	127
9.275600907029478	9.635510204081633	72	127
9.275600907029478	9.635510204081633	60	127
9.635510204081633	9.82124716553288	58	127
9.635510204081633	9.82124716553288	58	127
9.635510204081633	9.82124716553288	70	127
9.82124716553288	9.995419501133787	72	127
9.82124716553288	9.995419501133787	60	127
9.82124716553288	9.995419501133787	60	127
10.00702947845805	11.168027210884354	74	127
10.00702947845805	11.168027210884354	62	127
10.00702947845805	11.168027210884354	62	127
11.179637188208616	11.353786848072563	62	127
11.179637188208616	11.353786848072563	62	127
11.179637188208616	11.353786848072563	74	127
11.365396825396825	11.736916099773243	75	127
11.365396825396825	11.736916099773243	63	127
11.365396825396825	11.736916099773243	63	127
11.736916099773243	11.911065759637188	74	127
11.736916099773243	11.911065759637188	62	127
11.736916099773243	11.911065759637188	62	127
11.911065759637188	12.07360544217687	75	127
11.911065759637188	12.07360544217687	63	127
11.911065759637188	12.07360544217687	63	127
12.07360544217687	12.421904761904761	64	127
12.07360544217687	12.421904761904761	64	127
12.07360544217687	12.421904761904761	76	127
12.421904761904761	12.60766439909297	63	127
12.421904761904761	12.60766439909297	63	127
12.421904761904761	12.60766439909297	75	127
12.60766439909297	12.770204081632652	64	127
12.60766439909297	12.770204081632652	64	127
12.60766439909297	12.770204081632652	76	127
12.781814058956916	13.327482993197279	79	127
12.781814058956916	13.327482993197279	67	127
12.781814058956916	13.327482993197279	67	127
13.327482993197279	13.490022675736961	66	127
13.327482993197279	13.490022675736961	78	127
13.327482993197279	13.490022675736961	66	127
13.490022675736961	15.219909297052155	74	127
13.490022675736961	15.219909297052155	62	127
13.490022675736961	15.219909297052155	62	127
15.219909297052155	15.568208616780046	62	127
15.219909297052155	15.568208616780046	74	127
15.219909297052155	15.568208616780046	62	127
15.579818594104308	16.288027210884355	82	127
15.579818594104308	16.288027210884355	70	127
15.579818594104308	16.288027210884355	70	127
16.288027210884355	17.64639455782313	80	127
16.288027210884355	17.64639455782313	68	127
16.288027210884355	17.64639455782313	68	127
17.64639455782313	17.983061224489795	79	127
17.64639455782313	17.983061224489795	67	127
17.64639455782313	17.983061224489795	67	127
17.983061224489795	18.157233560090702	65	127
17.983061224489795	18.157233560090702	77	127
17.983061224489795	18.157233560090702	65	127
18.157233560090702	18.308163265306124	63	127
18.157233560090702	18.308163265306124	63	127
18.157233560090702	18.308163265306124	75	127
18.308163265306124	18.958321995464853	67	127
18.308163265306124	18.958321995464853	67	127
18.308163265306124	18.958321995464853	79	127
18.958321995464853	20.397936507936507	77	127
18.958321995464853	20.397936507936507	65	127
18.958321995464853	20.397936507936507	65	127
20.397936507936507	20.757868480725623	63	127
20.397936507936507	20.757868480725623	63	127
20.397936507936507	20.757868480725623	75	127
20.757868480725623	20.943628117913832	62	127
20.757868480725623	20.943628117913832	74	127
20.757868480725623	20.943628117913832	62	127
20.943628117913832	21.11777777777778	72	127
20.943628117913832	21.11777777777778	60	127
20.943628117913832	21.11777777777778	60	127
21.11777777777778	22.336825396825397	59	127
21.11777777777778	22.336825396825397	71	127
21.11777777777778	22.336825396825397	59	127
22.34843537414966	22.534195011337868	71	127
22.34843537414966	22.534195011337868	59	127
22.34843537414966	22.534195011337868	59	127
22.534195011337868	22.894104308390023	60	127
22.534195011337868	22.894104308390023	60	127
22.534195011337868	22.894104308390023	72	127
22.894104308390023	23.06825396825397	58	127
22.894104308390023	23.06825396825397	58	127
22.894104308390023	23.06825396825397	70	127
23.06825396825397	23.219183673469388	55	127
23.06825396825397	23.219183673469388	55	127
23.06825396825397	23.219183673469388	67	127
23.23079365079365	23.567460317460316	56	127
23.23079365079365	23.567460317460316	68	127
23.23079365079365	23.567460317460316	56	127
23.567460317460316	23.73002267573696	58	127
23.567460317460316	23.73002267573696	58	127
23.567460317460316	23.73002267573696	70	127
23.73002267573696	23.904172335600908	60	127
23.73002267573696	23.904172335600908	60	127
23.73002267573696	23.904172335600908	72	127
23.904172335600908	25.076780045351473	71	127
23.904172335600908	25.076780045351473	59	127
23.904172335600908	25.076780045351473	59	127
25.088390022675735	25.274149659863944	59	127
25.088390022675735	25.274149659863944	71	127
25.088390022675735	25.274149659863944	59	127
25.274149659863944	25.6340589569161	60	127
25.274149659863944	25.6340589569161	72	127
25.274149659863944	25.6340589569161	60	127
25.6340589569161	25.796598639455784	70	127
25.6340589569161	25.796598639455784	58	127
25.6340589569161	25.796598639455784	58	127
25.796598639455784	25.93591836734694	55	127
25.796598639455784	25.93591836734694	67	127
25.796598639455784	25.93591836734694	55	127
25.947528344671202	26.29582766439909	68	127
25.947528344671202	26.29582766439909	56	127
25.947528344671202	26.29582766439909	56	127
26.29582766439909	26.469977324263038	58	127
26.29582766439909	26.469977324263038	58	127
26.29582766439909	26.469977324263038	70	127
26.469977324263038	26.644126984126984	60	127
26.469977324263038	26.644126984126984	72	127
26.469977324263038	26.644126984126984	60	127
26.644126984126984	27.793514739229025	54	127
26.644126984126984	27.793514739229025	66	127
26.644126984126984	27.793514739229025	54	127
27.805124716553287	27.990884353741496	62	127
27.805124716553287	27.990884353741496	74	127
27.805124716553287	27.990884353741496	62	127
27.990884353741496	28.524943310657598	58	127
27.990884353741496	28.524943310657598	58	127
27.990884353741496	28.524943310657598	70	127
28.524943310657598	28.68748299319728	62	127
28.524943310657598	28.68748299319728	50	127
28.524943310657598	28.68748299319728	50	127
28.68748299319728	29.395691609977323	57	127
28.68748299319728	29.395691609977323	57	127
28.68748299319728	29.395691609977323	69	127
29.395691609977323	31.113968253968252	67	127
29.395691609977323	31.113968253968252	55	127
29.395691609977323	31.113968253968252	55	127
32.92510204081633	33.62172335600907	62	127
32.92510204081633	33.62172335600907	62	127
33.62172335600907	34.37637188208617	74	127
33.62172335600907	34.37637188208617	74	127
34.37637188208617	35.10780045351474	72	127
34.37637188208617	35.10780045351474	72	127
35.10780045351474	35.74634920634921	71	127
35.10780045351474	35.74634920634921	71	127
35.74634920634921	36.106258503401364	70	127
35.74634920634921	36.106258503401364	70	127
36.106258503401364	36.25718820861678	69	127
36.106258503401364	36.25718820861678	69	127
36.25718820861678	36.431337868480725	67	127
36.25718820861678	36.431337868480725	67	127
36.431337868480725	37.4878231292517	65	127
36.431337868480725	37.4878231292517	65	127
37.4878231292517	37.66199546485261	64	127
37.4878231292517	37.66199546485261	64	127
37.66199546485261	37.847755102040814	65	127
37.66199546485261	37.847755102040814	65	127
37.847755102040814	38.19605442176871	66	127
37.847755102040814	38.19605442176871	66	127
38.19605442176871	38.381791383219955	65	127
38.19605442176871	38.381791383219955	65	127
38.381791383219955	38.5443537414966	66	127
38.381791383219955	38.5443537414966	66	127
38.5443537414966	39.97238095238095	67	127
38.5443537414966	39.97238095238095	67	127
39.24095238095238	40.65734693877551	38	127
39.97238095238095	40.65734693877551	68	127
39.97238095238095	40.65734693877551	68	127
40.65734693877551	41.36557823129252	36	127
40.65734693877551	41.72548752834467	69	127
40.65734693877551	41.72548752834467	69	127
41.36557823129252	42.09700680272109	39	127
41.72548752834467	41.92283446712018	70	127
41.72548752834467	41.92283446712018	70	127
41.92283446712018	42.09700680272109	72	127
41.92283446712018	42.09700680272109	72	127
42.09700680272109	42.456916099773245	74	127
42.09700680272109	42.816802721088436	38	127
42.09700680272109	42.456916099773245	74	127
42.456916099773245	42.64267573696145	75	127
42.456916099773245	42.64267573696145	75	127
42.64267573696145	42.816802721088436	76	127
42.64267573696145	42.816802721088436	76	127
42.816802721088436	43.002585034013606	77	127
42.816802721088436	43.536643990929704	36	127
42.816802721088436	43.17673469387755	77	127
43.002585034013606	43.17673469387755	78	127
43.17673469387755	43.536643990929704	65	127
43.17673469387755	43.36249433106576	79	127
43.36249433106576	43.536643990929704	81	127
43.536643990929704	44.61637188208617	82	127
43.536643990929704	44.256462585034015	63	127
43.536643990929704	44.140362811791384	46	127
44.256462585034015	44.87179138321996	62	127
44.61637188208617	44.98789115646259	53	127
44.99950113378685	45.75414965986395	67	127
44.99950113378685	45.75414965986395	57	127
45.54517006802721	45.742539682539686	60	127
45.75414965986395	46.508798185941046	65	127
45.75414965986395	45.951519274376416	62	127
45.75414965986395	46.13727891156463	58	127
45.951519274376416	46.13727891156463	65	127
46.13727891156463	46.49716553287982	57	127
46.13727891156463	46.334648526077096	65	127
46.334648526077096	46.49716553287982	74	127
46.508798185941046	47.21700680272109	64	127
46.508798185941046	47.21700680272109	82	127
46.508798185941046	47.21700680272109	55	127
47.21700680272109	48.33156462585034	81	127
47.21700680272109	48.33156462585034	57	127
47.21700680272109	48.33156462585034	65	127
48.517324263038546	48.691473922902496	48	127
48.70308390022676	48.900453514739226	53	127
48.900453514739226	49.074603174603176	57	127
49.074603174603176	49.283582766439906	60	127
49.283582766439906	49.457732426303856	65	127
49.457732426303856	50.22399092970522	61	127
50.22399092970522	50.94380952380953	60	127
50.57229024943311	50.94380952380953	51	127
50.94380952380953	51.72167800453515	55	127
50.94380952380953	51.72167800453515	65	127
51.53591836734694	51.72167800453515	58	127
51.72167800453515	52.511156462585035	63	127
51.72167800453515	51.89582766439909	60	127
51.72167800453515	52.069977324263036	56	127
51.89582766439909	52.069977324263036	63	127
52.069977324263036	52.511156462585035	55	127
52.069977324263036	52.26734693877551	63	127
52.26734693877551	52.511156462585035	72	127
52.511156462585035	53.25419501133787	80	127
52.511156462585035	53.25419501133787	53	127
52.511156462585035	53.25419501133787	62	127
53.25419501133787	54.368752834467124	55	127
53.25419501133787	54.368752834467124	79	127
53.25419501133787	54.368752834467124	63	127
55.123401360544214	55.47170068027211	58	127
55.47170068027211	56.96938775510204	67	127
56.96938775510204	57.72403628117914	65	127
57.72403628117914	58.44385487528345	63	127
58.44385487528345	59.0243537414966	62	127
59.0243537414966	59.19850340136055	63	127
59.19850340136055	59.91832199546485	65	127
59.91832199546485	60.51043083900227	67	127
60.52204081632653	60.603310657596374	67	127
60.69619047619047	61.416009070294784	67	127
61.416009070294784	62.727936507936505	72	127
62.727936507936505	62.80920634920635	67	127
62.91369614512472	64.85256235827664	67	127
65.66526077097505	66.02517006802721	60	127
66.04839002267573	66.76820861678004	68	127
66.76820861678004	67.49963718820862	67	127
67.15133786848072	67.49963718820862	58	127
67.49963718820862	68.23106575963719	72	127
67.49963718820862	68.23106575963719	62	127
68.04530612244898	68.23106575963719	65	127
68.23106575963719	68.98571428571428	70	127
68.23106575963719	68.4168253968254	67	127
68.23106575963719	68.59097505668935	63	127
68.4168253968254	68.59097505668935	70	127
68.59097505668935	68.98571428571428	62	127
68.59097505668935	68.77673469387756	70	127
68.77673469387756	68.98571428571428	79	127
68.98571428571428	69.71714285714286	60	127
68.98571428571428	69.71714285714286	87	127
68.98571428571428	69.71714285714286	69	127
69.71714285714286	70.80848072562358	86	127
69.71714285714286	70.80848072562358	62	127
69.71714285714286	70.80848072562358	70	127
71.59795918367347	71.95786848072562	58	127
71.96947845804989	73.42072562358277	67	127
73.42072562358277	74.17537414965986	65	127
74.17537414965986	74.86036281179139	63	127
74.86036281179139	75.38281179138322	62	127
75.38281179138322	75.55696145124716	63	127
75.55696145124716	76.25356009070295	65	127
76.25356009070295	76.79922902494332	67	127
76.81083900226757	76.98496598639456	67	127
76.99659863945578	77.75122448979592	67	127
77.75122448979592	79.0631746031746	72	127
79.07478458049887	79.15603174603174	67	127
79.27215419501134	80.76984126984127	67	127
80.76984126984127	81.25746031746031	67	127
81.25746031746031	82.58097505668934	73	127
82.59260770975057	82.67387755102041	67	127
82.76675736961451	86.16848072562358	67	127
91.02145124716553	91.41619047619048	67	127
91.41619047619048	91.77609977324263	65	127
91.77609977324263	92.15922902494331	63	127
92.17083900226757	92.36820861678005	62	127
92.36820861678005	92.56557823129252	63	127
92.57718820861678	92.97192743764172	65	127
92.97192743764172	93.4943537414966	67	127
93.4943537414966	93.68013605442177	67	127
93.68013605442177	94.43478458049887	67	127
94.43478458049887	95.16621315192744	52	127
94.43478458049887	96.48975056689342	58	127
94.43478458049887	94.98045351473922	72	127
94.98045351473922	95.16621315192744	67	127
95.16621315192744	96.48975056689342	67	127
95.16621315192744	96.48975056689342	51	127
96.98897959183674	97.36049886621315	67	127
97.36049886621315	97.74362811791383	65	127
97.74362811791383	98.11514739229025	63	127
98.11514739229025	98.32412698412699	62	127
98.32412698412699	98.49827664399093	63	127
98.49827664399093	98.86979591836734	65	127
98.86979591836734	99.41546485260771	67	127
99.41546485260771	99.60122448979592	67	127
99.60122448979592	100.26299319727892	67	127
100.26299319727892	100.80866213151927	73	127
100.80866213151927	100.99442176870748	67	127
100.99442176870748	102.06253968253968	67	127
101.7142403628118	102.4340589569161	58	127
102.07414965986395	102.4340589569161	64	127
102.4340589569161	102.81718820861678	65	127
102.4340589569161	102.81718820861678	56	127
102.81718820861678	103.21192743764172	51	127
102.81718820861678	103.21192743764172	67	127
103.21192743764172	103.56022675736962	55	127
103.21192743764172	103.56022675736962	70	127
103.56022675736962	103.93174603174603	68	127
103.56022675736962	103.93174603174603	56	127
103.93174603174603	104.55868480725624	58	127
103.93174603174603	104.30326530612246	68	127
104.30326530612246	104.68639455782314	67	127
104.68639455782314	105.44104308390023	57	127
104.68639455782314	108.1809977324263	51	127
104.68639455782314	105.25528344671201	67	127
105.25528344671201	105.44104308390023	63	127
105.44104308390023	106.18408163265306	63	127
105.44104308390023	106.18408163265306	56	127
106.18408163265306	106.86907029478458	57	127
106.18408163265306	106.67170068027211	67	127
106.67170068027211	106.86907029478458	63	127
106.86907029478458	107.5540589569161	56	127
106.86907029478458	107.92557823129252	63	127
107.5540589569161	108.1809977324263	57	127
107.93718820861677	108.3087074829932	65	127
108.3087074829932	108.66861678004535	67	127
108.66861678004535	109.02852607709751	69	127
109.02852607709751	109.3768253968254	70	127
109.3768253968254	109.74834467120182	72	127
109.74834467120182	110.02698412698413	74	127
110.02698412698413	110.11986394557823	77	127
110.11986394557823	110.51460317460318	75	127
110.52621315192744	111.09510204081633	75	127
110.52621315192744	111.28086167800454	65	127
110.52621315192744	114.04403628117913	59	127
111.09510204081633	111.28086167800454	71	127
111.28086167800454	112.05873015873016	64	127
111.28086167800454	112.05873015873016	71	127
112.05873015873016	112.62761904761905	75	127
112.05873015873016	112.80176870748299	65	127
112.62761904761905	112.80176870748299	71	127
112.80176870748299	113.4287074829932	64	127
112.80176870748299	113.78861678004534	71	127
113.4287074829932	114.04403628117913	65	127
113.78861678004534	114.17174603174603	75	127
114.17174603174603	114.54326530612245	73	127
114.54326530612245	114.9031746031746	71	127
114.9031746031746	115.07732426303855	73	127
115.07732426303855	115.27469387755102	75	127
115.27469387755102	115.64621315192744	76	127
115.64621315192744	116.1918820861678	78	127
116.1918820861678	116.377641723356	78	127
116.377641723356	116.73755102040816	78	127
116.73755102040816	117.12068027210884	80	127
117.12068027210884	117.68956916099773	82	127
117.68956916099773	117.93337868480725	82	127
117.94498866213152	118.69963718820861	82	127
118.69963718820861	119.28013605442177	85	127
119.10598639455782	119.46589569160997	66	127
119.28013605442177	119.45428571428572	82	127
119.46589569160997	121.74145124716553	82	127
119.46589569160997	119.98834467120182	65	127
119.98834467120182	120.17410430839003	58	127
120.17410430839003	120.82426303854875	58	127
120.56884353741496	120.94036281179139	70	127
120.95197278911564	121.3467120181406	64	127
120.95197278911564	121.53247165532879	68	127
121.3467120181406	121.74145124716553	70	127
121.53247165532879	121.72984126984127	58	127
121.74145124716553	122.29873015873015	85	127
121.74145124716553	122.11297052154195	68	127
121.74145124716553	122.87922902494331	58	127
122.11297052154195	122.50770975056689	66	127
122.29873015873015	122.50770975056689	82	127
122.50770975056689	123.08820861678005	65	127
122.50770975056689	124.76004535147392	82	127
122.89083900226757	123.27396825396825	51	127
123.08820861678005	123.262358276644	58	127
123.27396825396825	123.90090702947846	58	127
123.27396825396825	123.6338775510204	58	127
123.64548752834467	124.01700680272108	70	127
124.01700680272108	124.41174603174603	64	127
124.01700680272108	124.58589569160998	68	127
124.41174603174603	124.76004535147392	70	127
124.58589569160998	124.76004535147392	58	127
124.76004535147392	125.29410430839002	85	127
124.76004535147392	125.83977324263039	58	127
124.76004535147392	125.10834467120182	68	127
125.10834467120182	125.4914739229025	64	127
125.29410430839002	125.47986394557823	82	127
125.4914739229025	126.22290249433107	82	127
125.4914739229025	126.03714285714285	63	127
125.85138321995466	126.22290249433107	51	127
126.03714285714285	126.22290249433107	58	127
126.22290249433107	126.59442176870748	58	127
126.22290249433107	126.98916099773243	58	127
126.22290249433107	126.79179138321996	87	127
126.60603174603175	126.98916099773243	70	127
126.79179138321996	126.97755102040816	82	127
126.98916099773243	127.52321995464852	68	127
126.98916099773243	127.70897959183674	82	127
126.98916099773243	127.70897959183674	64	127
127.52321995464852	127.70897959183674	58	127
127.70897959183674	128.09208616780046	58	127
127.70897959183674	128.30108843537414	89	127
127.70897959183674	128.49843537414966	65	127
128.09208616780046	128.48684807256237	68	127
128.30108843537414	128.48684807256237	82	127
128.49843537414966	131.51702947845806	67	127
128.49843537414966	131.51702947845806	61	127
128.49843537414966	129.6362358276644	89	127
129.6362358276644	130.0193650793651	88	127
130.0193650793651	130.40249433106575	87	127
130.40249433106575	130.78562358276645	85	127
130.78562358276645	131.1571201814059	84	127
131.1571201814059	131.51702947845806	82	127
131.51702947845806	132.9682993197279	62	127
131.51702947845806	132.26009070294785	80	127
131.51702947845806	132.26009070294785	68	127
132.26009070294785	132.9682993197279	66	127
132.26009070294785	133.30496598639456	81	127
132.9682993197279	133.31659863945578	62	127
132.9682993197279	133.69972789115647	57	127
133.31659863945578	133.69972789115647	64	127
133.69972789115647	137.40331065759636	61	127
133.69972789115647	134.4775963718821	66	127
134.4775963718821	135.58054421768708	89	127
134.4775963718821	137.40331065759636	67	127
135.58054421768708	135.9520634920635	88	127
135.9520634920635	136.3003628117914	87	127
136.3003628117914	136.68349206349205	85	127
136.68349206349205	137.03179138321997	84	127
137.03179138321997	137.40331065759636	82	127
137.40331065759636	138.09990929705216	80	127
137.40331065759636	138.09990929705216	68	127
137.40331065759636	138.83133786848072	62	127
138.09990929705216	138.83133786848072	66	127
138.09990929705216	139.2144671201814	81	127
138.83133786848072	139.57437641723357	57	127
138.83133786848072	139.22607709750568	62	127
139.22607709750568	139.57437641723357	64	127
139.57437641723357	143.2082993197279	61	127
139.57437641723357	140.16648526077097	66	127
140.29419501133788	143.2082993197279	67	127
140.29419501133788	141.37392290249434	89	127
141.37392290249434	141.74544217687074	88	127
141.74544217687074	142.11696145124716	87	127
142.11696145124716	142.47687074829932	85	127
142.47687074829932	142.83678004535147	84	127
142.83678004535147	143.2082993197279	82	127
143.2082993197279	143.97455782312926	64	127
143.2082993197279	144.70596371882087	68	127
143.2082993197279	143.56820861678005	80	127
143.56820861678005	143.97455782312926	75	127
143.97455782312926	144.33446712018142	78	127
143.97455782312926	145.4374149659864	59	127
144.33446712018142	144.70596371882087	76	127
144.70596371882087	145.4374149659864	70	127
144.70596371882087	145.07750566893424	75	127
145.07750566893424	145.4374149659864	73	127
145.4374149659864	146.20367346938775	63	127
145.4374149659864	146.20367346938775	71	127
145.4374149659864	145.80893424036282	71	127
145.80893424036282	146.20367346938775	70	127
146.20367346938775	147.30662131519276	62	127
146.20367346938775	147.30662131519276	72	127
146.20367346938775	146.57519274376418	68	127
146.57519274376418	146.93510204081633	67	127
146.93510204081633	147.30662131519276	65	127
147.30662131519276	147.67814058956915	63	127
147.30662131519276	147.67814058956915	56	127
147.30662131519276	147.67814058956915	60	127
147.67814058956915	147.95678004535148	62	127
147.67814058956915	147.95678004535148	58	127
147.67814058956915	147.95678004535148	58	127
147.95678004535148	148.31668934240363	60	127
147.95678004535148	148.31668934240363	56	127
147.95678004535148	148.31668934240363	60	127
148.31668934240363	149.082947845805	62	127
148.31668934240363	148.6998185941043	58	127
148.31668934240363	148.6998185941043	55	127
148.6998185941043	149.082947845805	53	127
148.6998185941043	149.082947845805	56	127
149.082947845805	150.99859410430838	55	127
149.082947845805	150.99859410430838	51	127
149.082947845805	150.99859410430838	63	127
151.16113378684807	151.776462585034	63	127
151.16113378684807	151.776462585034	63	127
151.16113378684807	151.776462585034	51	127
151.91578231292516	152.63560090702947	75	127
151.91578231292516	152.63560090702947	75	127
151.91578231292516	152.63560090702947	63	127
152.63560090702947	154.01718820861677	74	127
152.63560090702947	154.01718820861677	62	127
152.63560090702947	154.01718820861677	74	127
154.01718820861677	154.40031746031747	59	127
154.01718820861677	154.40031746031747	71	127
154.01718820861677	154.40031746031747	71	127
154.40031746031747	154.58607709750567	69	127
154.40031746031747	154.58607709750567	69	127
154.40031746031747	154.58607709750567	57	127
154.58607709750567	154.77181405895692	67	127
154.58607709750567	154.77181405895692	67	127
154.58607709750567	154.77181405895692	55	127
154.78344671201813	156.76873015873016	67	127
154.78344671201813	156.76873015873016	55	127
154.78344671201813	156.76873015873016	67	127
156.76873015873016	157.39569160997732	55	127
156.76873015873016	157.39569160997732	67	127
156.76873015873016	157.39569160997732	67	127
157.51179138321996	158.24321995464854	67	127
157.51179138321996	158.24321995464854	79	127
157.51179138321996	158.24321995464854	79	127
158.24321995464854	159.54353741496598	78	127
158.24321995464854	159.54353741496598	78	127
158.24321995464854	159.54353741496598	66	127
159.54353741496598	160.93673469387755	75	127
159.54353741496598	160.93673469387755	63	127
159.54353741496598	160.93673469387755	75	127
160.93673469387755	162.32993197278913	74	127
160.93673469387755	162.32993197278913	74	127
160.93673469387755	162.32993197278913	62	127
162.32993197278913	162.7130612244898	71	127
162.32993197278913	162.7130612244898	59	127
162.32993197278913	162.7130612244898	71	127
162.7130612244898	162.8639909297052	69	127
162.7130612244898	162.8639909297052	69	127
162.7130612244898	162.8639909297052	57	127
162.8639909297052	163.03814058956917	67	127
162.8639909297052	163.03814058956917	55	127
162.8639909297052	163.03814058956917	67	127
163.04975056689344	172.3841723356009	67	127
163.04975056689344	172.3841723356009	55	127
163.04975056689344	166.4514739229025	67	127
172.51185941043084	173.25492063492064	63	127
172.51185941043084	173.25492063492064	51	127
173.25492063492064	174.00956916099773	58	127
173.25492063492064	174.00956916099773	46	127
174.00956916099773	174.78743764172336	55	127
174.00956916099773	174.78743764172336	43	127
174.78743764172336	175.42596371882087	48	127
174.78743764172336	175.42596371882087	60	127
175.55369614512472	176.33156462585035	67	127
175.55369614512472	176.33156462585035	55	127
176.33156462585035	177.38807256235827	58	127
176.33156462585035	177.38807256235827	70	127
177.38807256235827	177.72473922902495	61	127
177.38807256235827	177.72473922902495	49	127
177.72473922902495	178.29365079365078	60	127
177.72473922902495	178.29365079365078	48	127
178.4213605442177	179.18761904761905	55	127
178.4213605442177	179.18761904761905	67	127
179.18761904761905	180.3021768707483	58	127
179.18761904761905	180.3021768707483	70	127
180.3021768707483	180.7781859410431	61	127
180.3021768707483	180.7781859410431	49	127
180.78979591836736	182.02043083900227	60	127
180.78979591836736	182.02043083900227	48	127
182.02043083900227	182.4035827664399	67	127
182.02043083900227	182.4035827664399	55	127
182.41519274376418	187.07079365079366	55	127
182.41519274376418	187.07079365079366	67	127
187.07079365079366	192.71324263038548	68	127
187.07079365079366	192.71324263038548	56	127
189.8455782312925	190.55378684807258	88	127
190.55378684807258	191.9585941043084	87	127
191.9585941043084	192.3301133786848	85	127
192.3301133786848	192.515873015873	83	127
192.515873015873	192.71324263038548	82	127
192.71324263038548	194.71015873015872	57	127
192.71324263038548	194.71015873015872	69	127
192.71324263038548	193.4330612244898	85	127
193.4330612244898	194.82625850340136	83	127
194.82625850340136	195.2209977324263	81	127
195.2209977324263	195.40675736961452	80	127
195.40675736961452	195.604126984127	81	127
195.604126984127	196.6722448979592	83	127
196.6722448979592	196.8231746031746	82	127
196.8231746031746	196.99732426303854	83	127
196.99732426303854	197.34562358276645	84	127
197.34562358276645	197.51977324263038	83	127
197.51977324263038	197.7055328798186	84	127
197.7055328798186	198.08866213151927	85	127
198.08866213151927	198.26281179138323	84	127
198.26281179138323	198.42535147392292	85	127
198.42535147392292	201.33945578231294	59	127
198.42535147392292	198.99424036281178	88	127
198.42535147392292	201.33945578231294	59	127
198.99424036281178	199.16839002267574	87	127
199.16839002267574	200.44548752834467	83	127
201.33945578231294	202.11732426303854	60	127
201.33945578231294	202.11732426303854	60	127
202.11732426303854	202.89519274376417	56	127
202.11732426303854	202.89519274376417	56	127
202.89519274376417	203.70789115646258	51	127
202.89519274376417	203.70789115646258	51	127
203.70789115646258	204.38126984126984	48	127
203.70789115646258	204.49736961451248	48	127
204.49736961451248	205.2171882086168	53	127
204.49736961451248	205.2171882086168	53	127
205.2171882086168	205.85573696145124	60	127
205.2171882086168	205.85573696145124	60	127
205.85573696145124	206.8425850340136	63	127
205.85573696145124	206.8425850340136	63	127
206.8425850340136	207.17927437641723	54	127
206.8425850340136	207.17927437641723	54	127
207.17927437641723	207.87587301587303	53	127
207.17927437641723	207.77138321995466	53	127
207.87587301587303	208.60730158730158	60	127
207.87587301587303	208.60730158730158	60	127
208.60730158730158	209.75668934240363	63	127
208.60730158730158	209.75668934240363	63	127
209.75668934240363	210.16303854875284	54	127
209.75668934240363	210.16303854875284	54	127
210.16303854875284	211.32403628117913	53	127
210.16303854875284	211.32403628117913	53	127
211.32403628117913	211.66072562358278	60	127
211.32403628117913	211.66072562358278	60	127
211.66072562358278	214.4122902494331	60	127
211.66072562358278	214.4122902494331	60	127
214.4122902494331	214.80702947845805	64	127
214.4122902494331	214.80702947845805	52	127
214.80702947845805	216.37437641723355	64	127
214.80702947845805	216.37437641723355	52	127
216.37437641723355	222.16775510204081	65	127
216.37437641723355	222.16775510204081	53	127
219.20721088435374	220.00829931972788	85	127
220.00829931972788	221.43632653061223	84	127
221.43632653061223	221.80784580498866	82	127
221.80784580498866	221.98199546485262	80	127
221.98199546485262	222.16775510204081	79	127
222.16775510204081	224.14145124716552	54	127
222.16775510204081	224.14145124716552	66	127
222.16775510204081	222.85274376417235	82	127
222.85274376417235	224.2459410430839	80	127
224.2459410430839	224.60585034013604	78	127
224.60585034013604	224.78	77	127
224.78	224.95414965986396	78	127
224.9657596371882	226.02226757369615	80	127
226.02226757369615	226.19641723356008	79	127
226.19641723356008	226.3821768707483	80	127
226.3821768707483	226.7304761904762	81	127
226.7304761904762	226.8814058956916	80	127
226.8814058956916	227.05555555555554	81	127
227.05555555555554	227.40385487528346	82	127
227.40385487528346	227.5780045351474	81	127
227.5780045351474	227.75215419501134	82	127
227.7637641723356	228.35587301587302	85	127
228.35587301587302	228.5416326530612	84	127
228.5416326530612	229.81873015873015	80	127
229.81873015873015	230.01609977324264	89	127
230.01609977324264	230.71269841269842	87	127
230.8404081632653	231.57183673469387	87	127
231.57183673469387	233.0114739229025	85	127
233.0114739229025	233.4178231292517	83	127
233.4178231292517	233.61519274376417	82	127
233.61519274376417	233.77773242630386	80	127
233.78934240362813	234.4859410430839	83	127
234.4859410430839	235.9604081632653	82	127
235.75142857142856	235.9604081632653	67	127
235.9604081632653	236.30870748299319	80	127
235.9604081632653	236.55251700680273	65	127
236.30870748299319	236.4944671201814	79	127
236.4944671201814	236.66861678004534	80	127
236.6802267573696	237.4348752834467	65	127
236.6802267573696	237.78317460317461	82	127
237.4348752834467	238.89773242630386	63	127
237.78317460317461	238.154693877551	84	127
238.154693877551	238.52621315192744	85	127
238.52621315192744	238.89773242630386	87	127
238.89773242630386	239.24603174603175	89	127
238.89773242630386	239.24603174603175	61	127
239.24603174603175	239.43179138321995	60	127
239.24603174603175	239.6291609977324	77	127
239.43179138321995	239.6291609977324	58	127
239.6291609977324	240.33736961451248	77	127
239.6291609977324	240.33736961451248	61	127
240.33736961451248	240.66244897959183	76	127
240.33736961451248	241.73056689342403	60	127
240.66244897959183	241.03396825396825	72	127
241.03396825396825	242.10208616780045	84	127
241.54480725623583	241.73056689342403	69	127
241.73056689342403	242.10208616780045	58	127
241.73056689342403	242.38072562358278	67	127
242.10208616780045	242.29945578231292	57	127
242.10208616780045	242.4968253968254	72	127
242.29945578231292	242.4968253968254	58	127
242.4968253968254	243.6229931972789	60	127
242.4968253968254	243.26308390022675	67	127
242.4968253968254	243.26308390022675	70	127
243.26308390022675	244.7259410430839	65	127
243.26308390022675	244.3195918367347	69	127
243.6229931972789	243.95968253968255	62	127
243.95968253968255	244.33120181405894	63	127
244.33120181405894	244.7259410430839	65	127
244.7259410430839	245.0742403628118	67	127
244.7259410430839	245.08585034013606	63	127
245.08585034013606	245.26	62	127
245.08585034013606	245.43414965986395	55	127
245.26	245.43414965986395	60	127
245.43414965986395	246.13074829931972	55	127
245.43414965986395	246.13074829931972	63	127
246.13074829931972	246.5138775510204	54	127
246.13074829931972	247.59360544217688	62	127
246.5138775510204	246.83895691609976	50	127
246.83895691609976	247.46589569160997	62	127
247.59360544217688	247.97673469387755	60	127
247.97673469387755	248.1508843537415	58	127
248.1508843537415	248.3366439909297	60	127
248.3366439909297	250.49609977324263	62	127
250.49609977324263	250.84439909297052	63	127
250.84439909297052	250.98371882086167	62	127
250.98371882086167	251.14625850340136	60	127
251.15786848072563	253.2360544217687	62	127
253.2360544217687	253.59596371882085	63	127
253.59596371882085	253.7701133786848	62	127
253.7701133786848	253.94426303854874	60	127
253.955873015873	256.08049886621313	65	127
256.08049886621313	256.46362811791386	66	127
256.46362811791386	256.6377777777778	65	127
256.6377777777778	256.80031746031744	63	127
256.8119274376417	258.8320408163265	65	127
258.8320408163265	259.19197278911565	66	127
259.19197278911565	259.3893424036281	65	127
259.3893424036281	259.6099319727891	63	127
259.6215419501134	261.7577777777778	62	127
259.6215419501134	260.3413605442177	72	127
259.6215419501134	260.3413605442177	56	127
260.3413605442177	261.061179138322	70	127
260.3413605442177	261.061179138322	58	127
261.061179138322	261.7577777777778	68	127
261.061179138322	261.7577777777778	59	127
261.7577777777778	262.08285714285716	63	127
261.7577777777778	262.08285714285716	67	127
261.7577777777778	262.08285714285716	60	127
262.08285714285716	262.2570068027211	62	127
262.2570068027211	262.431156462585	60	127
262.4427664399093	264.66024943310657	65	127
262.4427664399093	263.18580498866214	75	127
262.4427664399093	263.18580498866214	59	127
263.18580498866214	263.9520634920635	61	127
263.18580498866214	263.9520634920635	73	127
263.9520634920635	264.66024943310657	71	127
263.9520634920635	264.66024943310657	62	127
264.66024943310657	264.9737414965986	70	127
264.66024943310657	264.9737414965986	66	127
264.66024943310657	264.9737414965986	63	127
264.9737414965986	265.1595011337869	65	127
264.9737414965986	265.1595011337869	68	127
264.9737414965986	265.1595011337869	65	127
265.1595011337869	265.32204081632653	66	127
265.1595011337869	265.32204081632653	63	127
265.1595011337869	265.32204081632653	66	127
265.3452607709751	267.38861678004537	68	127
265.3452607709751	266.0302494331066	78	127
265.3452607709751	266.0302494331066	62	127
266.0302494331066	266.7152380952381	76	127
266.0302494331066	266.7152380952381	64	127
266.7152380952381	267.38861678004537	65	127
266.7152380952381	267.38861678004537	74	127
267.38861678004537	267.7369160997732	69	127
267.38861678004537	267.7369160997732	66	127
267.38861678004537	267.7369160997732	73	127
267.7369160997732	267.9226530612245	68	127
267.7369160997732	267.9226530612245	68	127
267.7369160997732	267.9226530612245	71	127
267.9226530612245	268.1084353741497	69	127
267.9226530612245	268.1084353741497	69	127
267.9226530612245	268.1084353741497	66	127
268.12004535147395	268.5960544217687	66	127
268.12004535147395	268.5960544217687	81	127
268.12004535147395	268.5960544217687	57	127
268.12004535147395	268.5960544217687	62	127
268.12004535147395	268.5960544217687	69	127
268.12004535147395	268.5960544217687	57	127
268.12004535147395	268.5960544217687	66	127
268.12004535147395	268.5960544217687	74	127
269.08367346938775	269.6409523809524	38	127
269.7686394557823	270.418820861678	50	127
270.56975056689345	271.89328798185943	49	127
270.56975056689345	271.1734693877551	69	127
271.28956916099776	272.03260770975055	81	127
272.03260770975055	272.61310657596374	50	127
272.03260770975055	273.42580498866215	80	127
272.03260770975055	273.42580498866215	47	127
272.7291836734694	273.3097052154195	62	127
273.42580498866215	274.84222222222223	59	127
273.42580498866215	273.7857142857143	78	127
273.42580498866215	274.0295238095238	45	127
273.7857142857143	273.9714739229025	76	127
273.9714739229025	274.14562358276646	74	127
274.14562358276646	274.84222222222223	44	127
274.14562358276646	274.84222222222223	78	127
274.84222222222223	275.538820861678	47	127
274.84222222222223	275.538820861678	56	127
274.84222222222223	276.28185941043085	77	127
275.538820861678	276.28185941043085	45	127
275.538820861678	277.0481179138322	61	127
276.28185941043085	277.0481179138322	78	127
276.28185941043085	277.0481179138322	49	127
277.0481179138322	277.66344671201813	42	127
277.0481179138322	277.66344671201813	81	127
277.0481179138322	277.66344671201813	57	127
277.8027664399093	278.37165532879817	38	127
278.4877551020408	279.0798639455782	50	127
279.19596371882085	279.7880498866213	69	127
279.19596371882085	280.55433106575964	49	127
279.92739229024943	280.6704308390023	81	127
280.6704308390023	282.1100680272109	47	127
280.6704308390023	281.36702947845805	50	127
280.6704308390023	282.1100680272109	80	127
281.36702947845805	282.1100680272109	62	127
282.1100680272109	283.5148752834467	45	127
282.1100680272109	285.2795918367347	59	127
282.1100680272109	282.45836734693876	78	127
282.45836734693876	282.63251700680274	76	127
282.63251700680274	282.8066666666667	74	127
282.8066666666667	283.5148752834467	78	127
283.5148752834467	284.1998639455782	43	127
283.5148752834467	284.1998639455782	77	127
284.1998639455782	284.9196825396825	76	127
284.1998639455782	284.9196825396825	44	127
284.9196825396825	285.2795918367347	74	127
284.9196825396825	285.6627210884354	37	127
285.2795918367347	285.45374149659864	73	127
285.2795918367347	285.45374149659864	61	127
285.45374149659864	285.6627210884354	62	127
285.45374149659864	285.6627210884354	71	127
285.6627210884354	286.2432199546485	70	127
285.6627210884354	286.2432199546485	61	127
285.6627210884354	286.2432199546485	42	127
287.9150566893424	288.5187755102041	66	127
288.6348752834467	289.3314739229025	78	127
289.3314739229025	290.70145124716555	79	127
290.70145124716555	291.32839002267576	50	127
290.70145124716555	291.0845804988662	78	127
291.0845804988662	291.25873015873015	74	127
291.25873015873015	291.43287981859413	76	127
291.4444671201814	292.663514739229	78	127
291.4444671201814	292.11786848072563	62	127
292.11786848072563	293.54589569161	63	127
293.54589569161	293.87097505668936	62	127
293.87097505668936	294.05673469387756	58	127
294.05673469387756	294.19605442176874	60	127
294.207641723356	295.46154195011337	62	127
294.207641723356	294.9042630385488	66	127
294.9042630385488	296.3903401360544	67	127
296.3903401360544	296.7502494331066	66	127
296.7502494331066	296.9360090702948	62	127
296.9360090702948	297.09854875283446	64	127
297.11015873015873	298.39884353741496	66	127
297.11015873015873	297.8531972789116	62	127
297.8531972789116	299.32766439909295	63	127
299.32766439909295	299.68757369614514	62	127
299.68757369614514	299.87333333333333	58	127
299.87333333333333	300.0823129251701	60	127
300.0823129251701	300.7556916099773	54	127
300.0823129251701	301.27814058956915	62	127
300.7556916099773	302.1604988662132	55	127
302.1604988662132	302.5668480725624	54	127
302.5668480725624	302.7526077097506	50	127
302.7526077097506	303.00802721088434	52	127
303.00802721088434	303.6465759637188	54	127
303.00802721088434	303.76267573696146	42	127
303.76267573696146	305.30680272108845	43	127
305.30680272108845	305.58544217687074	42	127
305.58544217687074	305.84086167800456	38	127
305.84086167800456	306.11950113378686	40	127
306.11950113378686	307.0134693877551	42	127
307.0134693877551	308.60403628117916	43	127
308.60403628117916	308.84784580498865	42	127
308.84784580498865	309.0916553287982	38	127
309.0916553287982	309.3238548752835	40	127
309.3238548752835	315.27977324263037	42	127
312.2959863945578	315.27977324263037	63	127
312.2959863945578	319.6102947845805	57	127
312.2959863945578	319.6102947845805	61	127
315.27977324263037	318.1706575963719	40	127
315.27977324263037	318.1706575963719	64	127
318.1706575963719	319.6102947845805	66	127
318.1706575963719	325.79839002267573	37	127
319.6102947845805	320.94544217687076	55	127
319.6102947845805	320.94544217687076	64	127
319.6102947845805	320.94544217687076	59	127
320.94544217687076	322.45473922902494	57	127
320.94544217687076	322.45473922902494	61	127
320.94544217687076	322.45473922902494	66	127
322.45473922902494	323.92920634920637	55	127
322.45473922902494	323.92920634920637	59	127
322.45473922902494	323.92920634920637	64	127
323.92920634920637	326.20473922902494	66	127
323.92920634920637	326.20473922902494	57	127
323.92920634920637	325.25274376417235	61	127
325.4501133786848	325.81002267573695	49	127
325.81002267573695	326.20473922902494	54	127
325.81002267573695	326.20473922902494	42	127
326.20473922902494	326.5530612244898	69	127
326.20473922902494	326.5530612244898	57	127
326.20473922902494	326.5530612244898	45	127
326.5530612244898	326.94780045351473	61	127
326.5530612244898	326.94780045351473	73	127
326.5530612244898	326.94780045351473	49	127
326.94780045351473	327.6792290249433	80	127
326.94780045351473	331.1273922902494	56	127
326.94780045351473	329.51360544217687	47	127
326.94780045351473	331.1273922902494	64	127
327.6792290249433	328.3758276643991	76	127
328.3758276643991	329.06079365079364	71	127
329.06079365079364	329.69936507936507	68	127
329.69936507936507	334.9819047619048	40	127
329.69936507936507	330.3959410430839	73	127
330.3959410430839	331.1273922902494	80	127
331.1273922902494	332.38126984126984	62	127
331.1273922902494	332.38126984126984	66	127
331.1273922902494	332.0445804988662	83	127
332.0445804988662	332.38126984126984	74	127
332.38126984126984	333.7048072562358	56	127
332.38126984126984	333.05462585034013	73	127
332.38126984126984	333.7048072562358	64	127
333.05462585034013	333.7048072562358	80	127
333.7048072562358	334.7961224489796	83	127
333.7048072562358	335.1560544217687	62	127
333.7048072562358	335.1560544217687	66	127
334.7961224489796	335.14444444444445	74	127
335.1560544217687	337.90761904761905	64	127
335.1560544217687	336.2473922902494	73	127
335.1560544217687	340.6824036281179	40	127
335.1560544217687	337.90761904761905	56	127
336.2473922902494	336.59569160997734	80	127
336.59569160997734	338.09337868480725	80	127
338.09337868480725	339.0221768707483	72	127
338.09337868480725	341.4718820861678	58	127
339.0221768707483	339.3820861678005	80	127
339.3820861678005	340.85655328798185	48	127
339.3820861678005	340.6824036281179	80	127
340.85655328798185	341.2280498866213	62	127
340.85655328798185	341.4138321995465	79	127
340.85655328798185	341.4718820861678	50	127
341.2280498866213	341.5995918367347	58	127
341.4138321995465	341.5995918367347	74	127
341.5995918367347	342.6909297052154	74	127
341.5995918367347	341.9478684807256	53	127
341.9478684807256	342.30780045351474	50	127
342.319410430839	342.6909297052154	55	127
342.6909297052154	343.07403628117913	62	127
343.07403628117913	343.6313378684807	65	127
343.6313378684807	343.8170975056689	56	127
343.8170975056689	344.13056689342403	55	127
344.13056689342403	344.4556462585034	62	127
344.4556462585034	344.9897052154195	65	127
344.9897052154195	345.1754648526077	56	127
345.187074829932	345.52374149659863	74	127
345.187074829932	345.70952380952383	55	127
345.52374149659863	345.895283446712	70	127
345.70952380952383	345.88367346938776	62	127
345.895283446712	346.25519274376416	65	127
345.895283446712	346.98662131519274	62	127
346.25519274376416	346.61510204081634	62	127
346.6267120181406	346.998231292517	67	127
346.998231292517	347.3581405895692	55	127
346.998231292517	347.3581405895692	74	127
347.3581405895692	347.70643990929705	56	127
347.3581405895692	347.86897959183676	77	127
347.70643990929705	348.4146485260771	62	127
347.86897959183676	348.0315192743764	68	127
348.0431292517007	348.4146485260771	67	127
348.4146485260771	348.7977551020408	74	127
348.4146485260771	348.7977551020408	55	127
348.7977551020408	349.14607709750567	56	127
348.7977551020408	349.3085941043084	77	127
349.14607709750567	349.83106575963717	62	127
349.3085941043084	349.4595464852608	68	127
349.47115646258504	349.83106575963717	71	127
349.47115646258504	350.0168253968254	67	127
349.83106575963717	350.2025850340136	59	127
349.83106575963717	350.2141950113379	67	127
350.0168253968254	350.09809523809525	79	127
350.2141950113379	350.5508843537415	62	127
350.2141950113379	350.5508843537415	58	127
350.2141950113379	351.630612244898	79	127
350.5508843537415	350.91079365079366	58	127
350.5508843537415	350.91079365079366	55	127
350.91079365079366	351.2707029478458	63	127
350.91079365079366	351.2707029478458	61	127
351.2707029478458	351.630612244898	70	127
351.2707029478458	351.630612244898	51	127
351.630612244898	352.18789115646257	73	127
351.630612244898	351.9905215419501	53	127
351.630612244898	351.9905215419501	77	127
351.9905215419501	352.3504308390023	68	127
351.9905215419501	352.6639002267574	61	127
352.18789115646257	352.3504308390023	65	127
352.36204081632656	353.000589569161	79	127
352.36204081632656	352.6639002267574	63	127
352.6639002267574	353.000589569161	70	127
352.6639002267574	353.000589569161	51	127
353.000589569161	353.3488888888889	77	127
353.000589569161	353.49979591836734	73	127
353.000589569161	353.3488888888889	53	127
353.3488888888889	353.67396825396827	61	127
353.3488888888889	353.67396825396827	68	127
353.49979591836734	353.67396825396827	65	127
353.67396825396827	354.0106349206349	59	127
353.67396825396827	354.0106349206349	66	127
353.67396825396827	354.1731972789116	63	127
354.0106349206349	354.3473469387755	59	127
354.0106349206349	354.3473469387755	54	127
354.1731972789116	354.24285714285713	75	127
354.3473469387755	354.62596371882086	63	127
354.3473469387755	355.36902494331065	75	127
354.3473469387755	354.62596371882086	51	127
354.62596371882086	355.0091156462585	47	127
354.62596371882086	355.0091156462585	66	127
355.0091156462585	355.36902494331065	67	127
355.0091156462585	355.36902494331065	46	127
355.36902494331065	355.71732426303856	52	127
355.36902494331065	355.71732426303856	79	127
355.36902494331065	355.71732426303856	70	127
355.71732426303856	356.0539909297052	77	127
355.71732426303856	356.0539909297052	53	127
355.71732426303856	356.2397732426304	73	127
356.0539909297052	356.40231292517007	68	127
356.0539909297052	356.40231292517007	61	127
356.2397732426304	356.40231292517007	65	127
356.41392290249433	356.7738095238095	66	127
356.41392290249433	356.7738095238095	59	127
356.41392290249433	356.9595918367347	63	127
356.7738095238095	357.1453514739229	59	127
356.7738095238095	357.1453514739229	54	127
356.9595918367347	357.04086167800455	75	127
357.1453514739229	358.20183673469387	75	127
357.1453514739229	357.48201814058956	51	127
357.1453514739229	357.48201814058956	63	127
357.48201814058956	357.8419501133787	66	127
357.48201814058956	357.8419501133787	47	127
357.85356009070296	358.20183673469387	67	127
357.85356009070296	358.20183673469387	46	127
358.20183673469387	358.49210884353744	70	127
358.20183673469387	358.49210884353744	52	127
358.20183673469387	358.49210884353744	79	127
358.49210884353744	358.828798185941	77	127
358.49210884353744	358.828798185941	53	127
358.49210884353744	358.9797278911565	73	127
358.828798185941	359.1538775510204	73	127
358.828798185941	359.1538775510204	56	127
358.9797278911565	359.1538775510204	65	127
359.16548752834467	359.5369841269841	57	127
359.16548752834467	359.5369841269841	71	127
359.16548752834467	359.5369841269841	66	127
359.5369841269841	359.885306122449	78	127
359.5369841269841	359.885306122449	57	127
359.5369841269841	359.885306122449	47	127
359.885306122449	360.1987755102041	53	127
359.885306122449	360.36131519274375	81	127
359.885306122449	360.1987755102041	60	127
360.1987755102041	360.8837641723356	57	127
360.1987755102041	360.547074829932	65	127
360.36131519274375	360.547074829932	72	127
360.547074829932	360.8837641723356	66	127
360.547074829932	360.89537414965986	71	127
360.89537414965986	361.2668707482993	78	127
360.89537414965986	361.2668707482993	57	127
360.89537414965986	361.2668707482993	47	127
361.2668707482993	361.6384126984127	53	127
361.2668707482993	361.80095238095237	81	127
361.2668707482993	361.62680272108844	60	127
361.6384126984127	361.9866893424036	65	127
361.6384126984127	361.9866893424036	57	127
361.80095238095237	361.9866893424036	72	127
361.9866893424036	362.34662131519275	66	127
361.9866893424036	362.4975283446712	71	127
361.9866893424036	362.66009070294785	59	127
362.34662131519275	362.66009070294785	62	127
362.5091609977324	362.5904308390023	83	127
362.66009070294785	363.02	59	127
362.66009070294785	363.7165986394558	83	127
362.66009070294785	363.7165986394558	54	127
363.02	363.3566893424036	54	127
363.3566893424036	363.7281859410431	57	127
363.7281859410431	364.07650793650794	47	127
363.7281859410431	364.07650793650794	59	127
363.7281859410431	364.07650793650794	78	127
364.07650793650794	364.38997732426304	53	127
364.07650793650794	364.57573696145124	81	127
364.07650793650794	364.4015873015873	60	127
364.4015873015873	364.73827664399096	65	127
364.4015873015873	364.73827664399096	57	127
364.57573696145124	364.73827664399096	72	127
364.73827664399096	365.07496598639455	66	127
364.73827664399096	365.24911564625853	71	127
364.73827664399096	365.42326530612246	59	127
365.07496598639455	365.42326530612246	62	127
365.2607029478458	365.33038548752836	83	127
365.42326530612246	366.43333333333334	83	127
365.42326530612246	365.7715419501134	59	127
365.42326530612246	366.43333333333334	54	127
365.7715419501134	366.11986394557823	54	127
366.11986394557823	366.4449433106576	57	127
366.4449433106576	366.78163265306125	59	127
366.4449433106576	366.78163265306125	47	127
366.4449433106576	366.78163265306125	78	127
366.78163265306125	367.3273015873016	81	127
366.78163265306125	367.1415419501134	60	127
366.78163265306125	367.1415419501134	53	127
367.1415419501134	367.4898412698413	57	127
367.1415419501134	367.4898412698413	65	127
367.3273015873016	367.4898412698413	72	127
367.4898412698413	367.83814058956915	66	127
367.4898412698413	368.01226757369614	71	127
367.4898412698413	368.19804988662133	59	127
367.8497505668934	368.19804988662133	54	127
368.0238775510204	368.10517006802723	83	127
368.19804988662133	368.55795918367346	55	127
368.19804988662133	368.77854875283447	83	127
368.19804988662133	368.55795918367346	59	127
368.55795918367346	369.19650793650794	67	127
368.55795918367346	368.88303854875284	50	127
368.8946485260771	369.38226757369614	72	127
369.2081179138322	369.56802721088434	60	127
369.2081179138322	369.56802721088434	55	127
369.38226757369614	369.47514739229024	84	127
369.56802721088434	369.9279365079365	60	127
369.56802721088434	369.9279365079365	56	127
369.56802721088434	370.171746031746	84	127
369.9279365079365	370.63614512471656	68	127
369.9279365079365	370.28784580498865	51	127
370.28784580498865	370.78707482993195	73	127
370.63614512471656	370.9960544217687	56	127
370.63614512471656	370.9960544217687	61	127
370.7986848072562	370.8915646258503	85	127
370.9960544217687	372.110589569161	85	127
370.9960544217687	371.3559637188209	61	127
370.9960544217687	371.3559637188209	57	127
371.3559637188209	371.72748299319727	69	127
371.3559637188209	371.72748299319727	52	127
371.73909297052154	372.110589569161	67	127
371.73909297052154	372.110589569161	70	127
371.73909297052154	372.110589569161	51	127
372.1222222222222	372.4821315192744	82	127
372.1222222222222	372.4821315192744	70	127
372.4821315192744	372.7607709750567	67	127
372.4821315192744	372.7607709750567	79	127
372.7607709750567	373.0626303854875	75	127
372.7607709750567	373.0626303854875	63	127
373.0626303854875	373.3877097505669	61	127
373.0626303854875	373.3877097505669	73	127
373.3877097505669	373.72439909297054	58	127
373.3877097505669	373.72439909297054	70	127
373.7360090702948	374.27006802721087	55	127
373.7360090702948	374.27006802721087	55	127
373.7360090702948	374.27006802721087	67	127
374.27006802721087	374.35131519274375	79	127
374.27006802721087	374.35131519274375	67	127
374.27006802721087	374.35131519274375	67	127
374.4558049886621	375.5239455782313	65	127
374.4558049886621	375.5239455782313	77	127
374.4558049886621	375.5239455782313	65	127
376.26698412698414	376.8823129251701	67	127
376.26698412698414	376.8823129251701	55	127
376.26698412698414	376.8823129251701	55	127
376.9984126984127	377.57891156462586	79	127
376.9984126984127	377.57891156462586	67	127
376.9984126984127	377.57891156462586	67	127
377.6950113378685	378.7399092970522	65	127
377.6950113378685	378.7399092970522	77	127
377.6950113378685	378.7399092970522	65	127
379.0998185941043	379.6454875283447	67	127
379.0998185941043	379.6454875283447	55	127
379.0998185941043	379.6454875283447	55	127
379.74997732426306	380.30725623582765	67	127
379.74997732426306	380.30725623582765	67	127
379.74997732426306	380.30725623582765	79	127
380.46979591836737	381.0502947845805	67	127
380.46979591836737	381.0502947845805	55	127
380.46979591836737	381.0502947845805	55	127
381.16639455782314	381.8746031746032	79	127
381.16639455782314	381.8746031746032	67	127
381.16639455782314	381.8746031746032	67	127
382.0835827664399	382.6873015873016	55	127
382.0835827664399	382.6873015873016	55	127
382.0835827664399	382.6873015873016	67	127
382.8730612244898	383.5928798185941	79	127
382.8730612244898	383.5928798185941	67	127
382.8730612244898	383.5928798185941	67	127
383.720589569161	385.1021768707483	65	127
383.720589569161	385.1021768707483	65	127
383.720589569161	385.1021768707483	77	127
385.1021768707483	385.4504761904762	75	127
385.1021768707483	385.4504761904762	63	127
385.1021768707483	385.4504761904762	63	127
385.4504761904762	385.6362358276644	62	127
385.4504761904762	385.6362358276644	74	127
385.4504761904762	385.6362358276644	62	127
385.6362358276644	385.8103854875283	60	127
385.6362358276644	385.8103854875283	60	127
385.6362358276644	385.8103854875283	72	127
385.8103854875283	386.4489342403628	63	127
385.8103854875283	386.4489342403628	63	127
385.8103854875283	386.4489342403628	75	127
386.4489342403628	387.6679818594104	62	127
386.4489342403628	387.6679818594104	74	127
386.4489342403628	387.6679818594104	62	127
387.8537414965986	388.2136507936508	60	127
387.8537414965986	388.2136507936508	72	127
387.8537414965986	388.2136507936508	60	127
388.2136507936508	388.3878004535147	70	127
388.2136507936508	388.3878004535147	58	127
388.2136507936508	388.3878004535147	58	127
388.3878004535147	388.55034013605444	60	127
388.3878004535147	388.55034013605444	60	127
388.3878004535147	388.55034013605444	72	127
388.55034013605444	389.7577777777778	74	127
388.55034013605444	389.7577777777778	62	127
388.55034013605444	389.7577777777778	62	127
389.76938775510206	389.943537414966	74	127
389.76938775510206	389.943537414966	62	127
389.76938775510206	389.943537414966	62	127
389.943537414966	390.3034467120181	75	127
389.943537414966	390.3034467120181	63	127
389.943537414966	390.3034467120181	63	127
390.3034467120181	390.46598639455783	62	127
390.3034467120181	390.46598639455783	62	127
390.3034467120181	390.46598639455783	74	127
390.46598639455783	390.6169160997732	75	127
390.46598639455783	390.6169160997732	63	127
390.46598639455783	390.6169160997732	63	127
390.6285260770975	390.9768253968254	64	127
390.6285260770975	390.9768253968254	76	127
390.6285260770975	390.9768253968254	64	127
390.9768253968254	391.1625850340136	75	127
390.9768253968254	391.1625850340136	63	127
390.9768253968254	391.1625850340136	63	127
391.1625850340136	391.33673469387753	76	127
391.1625850340136	391.33673469387753	64	127
391.1625850340136	391.33673469387753	64	127
391.33673469387753	391.87079365079364	79	127
391.33673469387753	391.87079365079364	67	127
391.33673469387753	391.87079365079364	67	127
391.87079365079364	392.03333333333336	66	127
391.87079365079364	392.03333333333336	66	127
391.87079365079364	392.03333333333336	78	127
392.0449433106576	393.78643990929703	74	127
392.0449433106576	393.78643990929703	62	127
392.0449433106576	393.78643990929703	62	127
393.7980498866213	394.1463492063492	62	127
393.7980498866213	394.1463492063492	74	127
393.7980498866213	394.1463492063492	62	127
394.1463492063492	394.8661678004535	82	127
394.1463492063492	394.8661678004535	70	127
394.1463492063492	394.8661678004535	70	127
394.8661678004535	396.2245351473923	68	127
394.8661678004535	396.2245351473923	80	127
394.8661678004535	396.2245351473923	68	127
396.2245351473923	396.54961451247163	67	127
396.2245351473923	396.54961451247163	79	127
396.2245351473923	396.54961451247163	67	127
396.54961451247163	396.7237641723356	77	127
396.54961451247163	396.7237641723356	65	127
396.54961451247163	396.7237641723356	65	127
396.7237641723356	396.9095238095238	63	127
396.7237641723356	396.9095238095238	75	127
396.7237641723356	396.9095238095238	63	127
396.9095238095238	397.5945124716553	67	127
396.9095238095238	397.5945124716553	79	127
396.9095238095238	397.5945124716553	67	127
397.5945124716553	398.89482993197277	65	127
397.5945124716553	398.89482993197277	65	127
397.5945124716553	398.89482993197277	77	127
398.89482993197277	399.2431292517007	75	127
398.89482993197277	399.2431292517007	63	127
398.89482993197277	399.2431292517007	63	127
399.2431292517007	399.4288888888889	62	127
399.2431292517007	399.4288888888889	74	127
399.2431292517007	399.4288888888889	62	127
399.4288888888889	399.6030385487528	72	127
399.4288888888889	399.6030385487528	60	127
399.4288888888889	399.6030385487528	60	127
399.6030385487528	400.8220861678005	71	127
399.6030385487528	400.8220861678005	59	127
399.6030385487528	400.8220861678005	59	127
400.8220861678005	401.0078458049887	59	127
400.8220861678005	401.0078458049887	59	127
400.8220861678005	401.0078458049887	71	127
401.01945578231295	401.35614512471653	72	127
401.01945578231295	401.35614512471653	60	127
401.01945578231295	401.35614512471653	60	127
401.35614512471653	401.507074829932	58	127
401.35614512471653	401.507074829932	70	127
401.35614512471653	401.507074829932	58	127
401.507074829932	401.66961451247164	67	127
401.507074829932	401.66961451247164	55	127
401.507074829932	401.66961451247164	55	127
401.66961451247164	402.01791383219955	56	127
401.66961451247164	402.01791383219955	68	127
401.66961451247164	402.01791383219955	56	127
402.01791383219955	402.1920634920635	70	127
402.01791383219955	402.1920634920635	58	127
402.01791383219955	402.1920634920635	58	127
402.1920634920635	402.3546031746032	72	127
402.1920634920635	402.3546031746032	60	127
402.1920634920635	402.3546031746032	60	127
402.3662131519274	403.538820861678	59	127
402.3662131519274	403.538820861678	59	127
402.3662131519274	403.538820861678	71	127
403.538820861678	403.70136054421766	59	127
403.538820861678	403.70136054421766	59	127
403.538820861678	403.70136054421766	71	127
403.71297052154193	404.0844897959184	60	127
403.71297052154193	404.0844897959184	72	127
403.71297052154193	404.0844897959184	60	127
404.0844897959184	404.24702947845805	70	127
404.0844897959184	404.24702947845805	58	127
404.0844897959184	404.24702947845805	58	127
404.24702947845805	404.4095691609977	67	127
404.24702947845805	404.4095691609977	55	127
404.24702947845805	404.4095691609977	55	127
404.4095691609977	404.7578684807256	56	127
404.4095691609977	404.7578684807256	68	127
404.4095691609977	404.7578684807256	56	127
404.7578684807256	404.9204081632653	58	127
404.7578684807256	404.9204081632653	70	127
404.7578684807256	404.9204081632653	58	127
404.9204081632653	405.05972789115646	72	127
404.9204081632653	405.05972789115646	60	127
404.9204081632653	405.05972789115646	60	127
405.0713378684807	406.3019954648526	66	127
405.0713378684807	406.3019954648526	54	127
405.0713378684807	406.3019954648526	54	127
406.3019954648526	406.47614512471654	62	127
406.3019954648526	406.47614512471654	62	127
406.3019954648526	406.47614512471654	74	127
406.4877551020408	407.0218140589569	58	127
406.4877551020408	407.0218140589569	58	127
406.4877551020408	407.0218140589569	70	127
407.0218140589569	407.19596371882085	62	127
407.0218140589569	407.19596371882085	50	127
407.0218140589569	407.19596371882085	50	127
407.19596371882085	407.8809523809524	57	127
407.19596371882085	407.8809523809524	69	127
407.19596371882085	407.8809523809524	57	127
407.8809523809524	409.5643990929705	55	127
407.8809523809524	409.5643990929705	67	127
407.8809523809524	409.5643990929705	55	127
411.3407256235828	412.0489342403628	62	127
411.3407256235828	412.0489342403628	62	127
412.0489342403628	412.7803628117914	74	127
412.0489342403628	412.7803628117914	74	127
412.7803628117914	413.4653514739229	72	127
412.7803628117914	413.4653514739229	72	127
413.4653514739229	414.1851700680272	71	127
413.4653514739229	414.1851700680272	71	127
414.1851700680272	414.4754195011338	70	127
414.1851700680272	414.4754195011338	70	127
414.4754195011338	414.6495691609977	69	127
414.4754195011338	414.6495691609977	69	127
414.6495691609977	414.81210884353743	67	127
414.6495691609977	414.81210884353743	67	127
414.81210884353743	415.86861678004533	65	127
414.81210884353743	415.86861678004533	65	127
415.86861678004533	416.0543764172336	64	127
415.86861678004533	416.0543764172336	64	127
416.0543764172336	416.21691609977324	65	127
416.0543764172336	416.21691609977324	65	127
416.21691609977324	416.57682539682537	66	127
416.21691609977324	416.57682539682537	66	127
416.57682539682537	416.75097505668936	65	127
416.57682539682537	416.75097505668936	65	127
416.75097505668936	416.93673469387755	66	127
416.75097505668936	416.93673469387755	66	127
416.93673469387755	418.34154195011337	67	127
416.93673469387755	418.34154195011337	67	127
417.65655328798186	419.03814058956914	38	127
418.34154195011337	419.03814058956914	68	127
418.34154195011337	419.03814058956914	68	127
419.03814058956914	420.7680272108843	69	127
419.03814058956914	419.8972789115646	69	127
419.03814058956914	419.73473922902497	39	127
419.73473922902497	420.30362811791383	38	127
419.8972789115646	420.07142857142856	70	127
420.07142857142856	420.24557823129254	72	127
420.24557823129254	420.41972789115647	74	127
420.41972789115647	420.60548752834467	75	127
420.41972789115647	420.7796371882086	36	127
420.60548752834467	420.7796371882086	69	127
420.7796371882086	421.1627664399093	67	127
420.7796371882086	420.9537868480726	70	127
420.7796371882086	421.1627664399093	48	127
420.9537868480726	421.1627664399093	72	127
421.1627664399093	421.5342857142857	65	127
421.1627664399093	421.766485260771	47	127
421.1627664399093	421.3485260770975	74	127
421.3485260770975	421.5342857142857	76	127
421.5342857142857	421.70843537414964	77	127
421.5342857142857	421.89419501133784	64	127
421.70843537414964	421.89419501133784	79	127
421.89419501133784	423.02036281179136	81	127
421.89419501133784	422.915873015873	45	127
421.89419501133784	422.68367346938777	62	127
421.89419501133784	422.68367346938777	52	127
422.68367346938777	423.2990022675737	61	127
423.0319727891156	423.41510204081635	52	127
423.41510204081635	424.1117006802721	56	127
423.41510204081635	424.1117006802721	66	127
423.9491609977324	424.1117006802721	59	127
424.1117006802721	424.2974603174603	61	127
424.1117006802721	424.7502494331066	64	127
424.1117006802721	424.4832199546485	57	127
424.2974603174603	424.47160997732425	64	127
424.4832199546485	424.6689795918367	64	127
424.4832199546485	424.8663492063492	56	127
424.6689795918367	424.8663492063492	73	127
424.8663492063492	425.6209977324263	54	127
424.8663492063492	425.6209977324263	63	127
424.8663492063492	425.6209977324263	81	127
425.6209977324263	426.6194557823129	56	127
425.6209977324263	426.6194557823129	80	127
425.6209977324263	426.6194557823129	64	127
426.7936054421769	426.9677551020408	59	127
426.9677551020408	427.1302947845805	52	127
427.1302947845805	427.32766439909295	56	127
427.32766439909295	427.51342403628115	59	127
427.51342403628115	427.7107936507937	64	127
427.7224036281179	428.4422222222222	60	127
428.4422222222222	429.04594104308393	59	127
428.81374149659865	429.1620408163265	50	127
429.1736507936508	429.90507936507936	54	127
429.1736507936508	429.90507936507936	64	127
429.73092970521543	429.90507936507936	57	127
429.90507936507936	430.09083900226756	59	127
429.90507936507936	430.26498866213154	55	127
429.90507936507936	430.4855782312925	62	127
430.09083900226756	430.2533786848073	62	127
430.26498866213154	430.4275283446712	62	127
430.26498866213154	430.60167800453513	54	127
430.4275283446712	430.60167800453513	71	127
430.6132879818594	431.35632653061225	52	127
430.6132879818594	431.35632653061225	79	127
430.6132879818594	431.35632653061225	61	127
431.35632653061225	432.4244444444444	62	127
431.35632653061225	432.4244444444444	78	127
431.35632653061225	432.4244444444444	54	127
433.2023129251701	433.597052154195	50	127
433.597052154195	435.11795918367346	59	127
435.11795918367346	435.8261678004535	57	127
435.8261678004535	436.4182766439909	55	127
436.53437641723355	437.11487528344674	54	127
437.11487528344674	437.28902494331066	55	127
437.28902494331066	437.97401360544217	57	127
437.97401360544217	438.450022675737	59	127
438.5429024943311	438.7518820861678	59	127
438.7518820861678	439.5065306122449	59	127
439.5065306122449	440.7952380952381	64	127
440.8997278911565	441.06226757369615	59	127
441.0738775510204	442.2697052154195	59	127
442.2697052154195	442.78054421768707	59	127
442.78054421768707	443.9879818594104	65	127
444.0924716553288	444.2550113378685	59	127
444.26662131519276	447.97020408163263	59	127
452.71868480725624	453.09020408163263	59	127
453.09020408163263	453.43850340136055	57	127
453.43850340136055	453.7984126984127	55	127
453.81002267573695	453.98417233560093	54	127
453.98417233560093	454.16993197278913	55	127
454.16993197278913	454.5414512471655	57	127
454.5414512471655	455.0522902494331	59	127
455.06390022675737	455.18	59	127
455.26126984126984	456.0043083900227	59	127
456.0043083900227	456.60802721088436	64	127
456.0043083900227	456.7821768707483	56	127
456.0043083900227	458.0708843537415	50	127
456.60802721088436	456.73573696145127	59	127
456.7821768707483	458.0708843537415	59	127
456.7821768707483	458.0708843537415	55	127
458.5701133786848	458.9416326530612	59	127
458.9416326530612	459.27832199546486	57	127
459.27832199546486	459.66145124716553	55	127
459.6730612244898	459.83560090702946	54	127
459.83560090702946	460.0213605442177	55	127
460.0329705215419	460.3928798185941	57	127
460.3928798185941	460.97337868480724	59	127
460.9849886621315	461.10108843537415	59	127
461.15913832199544	461.85573696145127	59	127
461.85573696145127	462.37818594104306	65	127
462.37818594104306	462.51750566893423	59	127
462.55233560090704	463.7597732426304	59	127
463.77138321995466	464.1196825396825	56	127
464.1196825396825	464.50281179138324	57	127
464.50281179138324	464.87433106575963	55	127
464.50281179138324	464.86272108843536	59	127
464.87433106575963	465.28068027210884	59	127
464.87433106575963	465.28068027210884	62	127
465.28068027210884	465.6638095238095	60	127
465.28068027210884	465.65219954648524	60	127
465.6638095238095	466.4184580498866	55	127
465.6638095238095	466.0469387755102	60	127
465.6638095238095	466.4184580498866	62	127
466.0469387755102	466.4184580498866	59	127
466.4184580498866	467.0570068027211	61	127
466.4184580498866	466.99895691609976	59	127
466.4184580498866	467.0570068027211	52	127
466.99895691609976	467.12666666666667	55	127
467.18471655328796	467.846485260771	60	127
467.18471655328796	467.846485260771	51	127
467.18471655328796	467.846485260771	55	127
467.846485260771	468.63596371882085	52	127
467.846485260771	468.4385941043084	59	127
467.846485260771	468.63596371882085	61	127
468.4385941043084	468.5663038548753	55	127
468.63596371882085	469.437052154195	51	127
468.63596371882085	469.79696145124717	55	127
468.63596371882085	469.437052154195	60	127
469.437052154195	469.79696145124717	52	127
469.437052154195	469.79696145124717	61	127
469.80857142857144	470.18009070294784	57	127
470.18009070294784	470.5516099773243	59	127
470.5516099773243	470.9115192743764	61	127
470.9115192743764	471.2830385487528	62	127
471.2830385487528	471.642947845805	64	127
471.642947845805	471.94480725623583	66	127
471.94480725623583	472.0492970521542	69	127
472.0492970521542	472.4672562358277	67	127
472.47886621315195	473.233514739229	57	127
472.47886621315195	473.233514739229	51	127
472.47886621315195	473.03614512471654	67	127
473.03614512471654	473.22190476190474	63	127
473.233514739229	473.94172335600905	63	127
473.233514739229	473.94172335600905	56	127
473.94172335600905	474.6499319727891	51	127
473.94172335600905	474.6499319727891	57	127
473.94172335600905	474.48739229024943	67	127
474.48739229024943	474.6383219954649	63	127
474.6499319727891	475.30009070294784	63	127
474.6499319727891	475.30009070294784	56	127
475.30009070294784	475.92702947845805	51	127
475.30009070294784	475.92702947845805	63	127
475.30009070294784	475.92702947845805	57	127
475.6832199546485	476.05473922902496	79	127
476.05473922902496	476.4378684807256	77	127
476.4378684807256	476.809387755102	75	127
476.809387755102	476.9487074829932	77	127
476.9487074829932	477.0996371882086	79	127
477.0996371882086	477.4827664399093	80	127
477.4827664399093	478.0168253968254	82	127
478.02843537414964	478.2141950113379	82	127
478.2258049886621	478.57410430839	82	127
478.57410430839	478.91079365079366	84	127
478.91079365079366	479.4448526077098	86	127
479.456462585034	479.630612244898	86	127
479.64222222222224	480.4084807256236	86	127
480.4084807256236	481.0238095238095	89	127
480.82643990929705	481.19795918367345	70	127
481.0238095238095	481.19795918367345	86	127
481.19795918367345	481.7204081632653	69	127
481.19795918367345	483.4502947845805	86	127
481.7204081632653	481.9061678004535	62	127
481.91777777777776	482.55632653061224	62	127
482.3009070294785	482.6724263038549	62	127
482.6724263038549	483.2645351473923	60	127
482.6724263038549	483.0787755102041	68	127
483.0787755102041	483.4502947845805	74	127
483.2645351473923	483.4386848072562	50	127
483.4502947845805	483.82181405895693	72	127
483.4502947845805	483.9843537414966	89	127
483.4502947845805	484.54163265306124	50	127
483.82181405895693	484.1468934240363	70	127
483.9843537414966	484.1468934240363	86	127
484.1585034013605	484.7390022675737	69	127
484.1585034013605	486.2134693877551	86	127
484.5532426303855	484.9247619047619	50	127
484.7390022675737	484.9247619047619	62	127
484.9247619047619	485.31950113378684	55	127
484.9247619047619	485.57492063492066	62	127
485.3311111111111	485.69102040816324	62	127
485.7026303854875	486.0277097505669	68	127
485.7026303854875	486.2134693877551	60	127
486.0277097505669	486.38761904761907	74	127
486.2134693877551	486.38761904761907	50	127
486.38761904761907	486.72430839002266	72	127
486.38761904761907	486.89845804988664	77	127
486.38761904761907	487.44412698412697	50	127
486.72430839002266	487.07260770975057	68	127
486.89845804988664	487.07260770975057	74	127
487.08421768707484	487.61827664399095	67	127
487.08421768707484	487.67632653061224	74	127
487.44412698412697	487.8272562358277	50	127
487.61827664399095	487.8156462585034	62	127
487.8272562358277	488.39614512471655	79	127
487.8272562358277	488.58190476190475	62	127
487.8272562358277	488.1871655328798	55	127
488.21038548752836	488.58190476190475	62	127
488.39614512471655	488.58190476190475	74	127
488.58190476190475	489.1507936507937	60	127
488.58190476190475	489.20884353741496	74	127
488.58190476190475	489.20884353741496	68	127
489.1507936507937	489.33655328798187	50	127
489.34816326530614	489.7312925170068	50	127
489.34816326530614	489.917052154195	81	127
489.34816326530614	489.98671201814057	69	127
489.7312925170068	490.1028117913832	60	127
489.917052154195	490.1028117913832	74	127
490.1028117913832	492.85437641723354	65	127
490.1028117913832	491.21736961451245	81	127
490.1028117913832	492.85437641723354	59	127
491.21736961451245	491.5888888888889	80	127
491.5888888888889	491.93718820861676	79	127
491.93718820861676	492.3087074829932	77	127
492.3087074829932	492.6802267573696	76	127
492.6802267573696	493.0285260770975	74	127
493.0401360544218	493.73673469387757	72	127
493.0401360544218	494.9790022675737	66	127
493.0401360544218	493.73673469387757	60	127
493.73673469387757	494.42172335600907	58	127
493.73673469387757	494.79324263038546	73	127
494.42172335600907	494.79324263038546	54	127
494.79324263038546	495.1763718820862	56	127
495.1763718820862	498.8102947845805	65	127
495.1763718820862	495.79170068027213	58	127
495.919410430839	498.8102947845805	59	127
495.919410430839	496.9526984126984	81	127
496.9526984126984	497.32421768707485	80	127
497.32421768707485	497.69573696145125	79	127
497.69573696145125	498.0904761904762	77	127
498.0904761904762	498.46199546485263	76	127
498.46199546485263	498.7986848072562	74	127
498.8102947845805	500.8536507936508	66	127
498.8102947845805	499.448843537415	72	127
498.8102947845805	499.448843537415	60	127
499.448843537415	500.14544217687074	58	127
499.448843537415	500.4821315192744	73	127
500.14544217687074	500.49374149659866	54	127
500.49374149659866	500.8536507936508	56	127
500.8536507936508	501.4457596371882	58	127
500.8536507936508	503.0479365079365	65	127
501.5618594104308	503.0479365079365	59	127
501.5618594104308	501.921768707483	81	127
501.921768707483	502.6764172335601	93	127
502.6764172335601	503.0479365079365	92	127
503.0479365079365	504.568843537415	71	127
503.0479365079365	504.568843537415	65	127
503.0479365079365	503.45428571428573	91	127
503.45428571428573	503.8258049886621	89	127
503.8258049886621	504.1857142857143	88	127
504.1857142857143	504.568843537415	86	127
504.568843537415	506.0317006802721	72	127
504.568843537415	504.9403628117914	84	127
504.568843537415	505.3118820861678	68	127
504.9403628117914	505.3118820861678	79	127
505.3118820861678	506.7515192743764	63	127
505.3118820861678	505.67179138321995	82	127
505.67179138321995	506.0317006802721	80	127
506.0317006802721	506.39160997732426	79	127
506.0317006802721	506.7515192743764	74	127
506.39160997732426	506.7515192743764	77	127
506.7515192743764	507.1346485260771	75	127
506.7515192743764	507.3900680272109	67	127
506.7515192743764	507.3900680272109	75	127
507.1346485260771	507.52938775510205	74	127
507.52938775510205	508.5975056689342	66	127
507.52938775510205	508.5975056689342	76	127
507.52938775510205	507.8544671201814	72	127
507.8544671201814	508.2259863945578	71	127
508.2259863945578	508.5975056689342	69	127
508.5975056689342	508.93419501133786	64	127
508.5975056689342	508.93419501133786	67	127
508.5975056689342	508.93419501133786	60	127
508.93419501133786	509.25927437641724	62	127
508.93419501133786	509.25927437641724	66	127
508.93419501133786	509.25927437641724	62	127
509.25927437641724	509.63079365079363	64	127
509.25927437641724	509.63079365079363	64	127
509.25927437641724	509.63079365079363	60	127
509.63079365079363	510.2693424036281	66	127
509.63079365079363	510.03714285714284	62	127
509.63079365079363	510.03714285714284	59	127
510.03714285714284	510.397052154195	60	127
510.03714285714284	510.397052154195	57	127
510.397052154195	512.2894784580499	59	127
510.397052154195	512.2894784580499	67	127
510.397052154195	512.2894784580499	55	127
512.4636281179138	513.090566893424	67	127
512.4636281179138	513.090566893424	55	127
512.4636281179138	513.090566893424	55	127
513.218276643991	513.9148752834467	67	127
513.218276643991	513.9148752834467	79	127
513.218276643991	513.9148752834467	67	127
513.9148752834467	515.3196825396825	78	127
513.9148752834467	515.3196825396825	66	127
513.9148752834467	515.3196825396825	66	127
515.3196825396825	515.691201814059	75	127
515.3196825396825	515.691201814059	63	127
515.3196825396825	515.691201814059	63	127
515.691201814059	515.8653514739229	61	127
515.691201814059	515.8653514739229	73	127
515.691201814059	515.8653514739229	61	127
515.8653514739229	516.0511111111111	71	127
515.8653514739229	516.0511111111111	59	127
515.8653514739229	516.0511111111111	59	127
516.0511111111111	517.9319274376418	59	127
516.0511111111111	517.9319274376418	59	127
516.0511111111111	517.9319274376418	71	127
518.0944671201814	518.7214058956916	71	127
518.0944671201814	518.7214058956916	59	127
518.0944671201814	518.7214058956916	59	127
518.82589569161	519.5573242630386	71	127
518.82589569161	519.5573242630386	83	127
518.82589569161	519.5573242630386	71	127
519.5573242630386	520.9273015873016	82	127
519.5573242630386	520.9273015873016	70	127
519.5573242630386	520.9273015873016	70	127
520.9273015873016	522.3204988662131	79	127
520.9273015873016	522.3204988662131	67	127
520.9273015873016	522.3204988662131	67	127
522.3204988662131	523.7485260770975	66	127
522.3204988662131	523.7485260770975	66	127
522.3204988662131	523.7485260770975	78	127
523.7485260770975	524.3290249433106	63	127
523.7485260770975	524.0968027210885	63	127
523.7485260770975	524.0968027210885	75	127
524.0968027210885	524.2709750566894	61	127
524.0968027210885	524.2709750566894	73	127
524.2709750566894	524.4567346938776	71	127
524.2709750566894	524.4567346938776	59	127
524.4567346938776	524.8514739229025	62	127
524.4567346938776	526.7903401360544	71	127
524.4567346938776	527.1502267573696	59	127
524.8514739229025	525.2229931972789	64	127
525.2229931972789	525.6641723356009	66	127
525.6641723356009	526.0356916099773	67	127
526.0356916099773	526.418820861678	70	127
526.418820861678	526.7903401360544	68	127
526.7903401360544	527.1502267573696	75	127
526.7903401360544	527.4056689342403	67	127
527.1502267573696	527.521768707483	58	127
527.1502267573696	527.3360090702948	73	127
527.3360090702948	527.521768707483	71	127
527.5333786848073	530.1456235827665	59	127
527.5333786848073	529.7160544217687	71	127
527.5333786848073	527.9048979591837	62	127
527.9048979591837	528.2648072562358	63	127
528.2648072562358	528.6131065759637	64	127
528.6131065759637	528.9497959183674	66	127
528.9614058956917	529.332925170068	69	127
529.332925170068	529.7160544217687	67	127
529.7160544217687	530.1456235827665	74	127
529.7160544217687	530.389433106576	66	127
530.1456235827665	530.3313832199547	72	127
530.1456235827665	530.5055328798186	57	127
530.3313832199547	530.5055328798186	71	127
530.5171428571429	530.8538321995464	62	127
530.5171428571429	532.6998185941043	71	127
530.5171428571429	533.0132879818594	59	127
530.8538321995464	531.2369387755102	64	127
531.2369387755102	531.5736507936508	66	127
531.5736507936508	531.9451700680272	67	127
531.9451700680272	532.3166893424036	70	127
532.3166893424036	532.6998185941043	68	127
532.6998185941043	533.257097505669	67	127
532.6998185941043	532.8391383219955	76	127
532.8391383219955	533.0132879818594	75	127
533.0132879818594	533.3731972789116	58	127
533.0132879818594	533.1874376417234	73	127
533.1874376417234	533.3731972789116	71	127
533.3731972789116	535.60231292517	71	127
533.3731972789116	535.997052154195	59	127
533.3731972789116	533.7563265306122	62	127
533.7563265306122	534.0930158730159	63	127
534.0930158730159	534.4645351473923	64	127
534.4645351473923	534.8708843537415	66	127
534.8708843537415	535.2307936507937	69	127
535.2307936507937	535.60231292517	67	127
535.60231292517	535.997052154195	74	127
535.60231292517	536.3801814058957	66	127
535.997052154195	536.2060317460317	72	127
535.997052154195	536.7748979591837	57	127
536.2060317460317	536.3685487528345	71	127
536.3801814058957	536.7748979591837	65	127
536.3801814058957	536.7748979591837	71	127
542.4986167800454	543.2416780045352	74	127
543.2416780045352	543.7989569160998	72	127
543.7989569160998	543.8802267573697	71	127
543.984716553288	545.2734240362812	71	127
543.984716553288	544.7045351473923	65	127
544.7045351473923	545.2734240362812	64	127
545.2734240362812	545.3662811791384	62	127
545.4707936507937	546.1209523809524	83	127
545.4707936507937	546.237052154195	68	127
545.4707936507937	546.237052154195	62	127
546.237052154195	546.6201814058957	69	127
546.237052154195	547.560589569161	81	127
546.237052154195	546.6201814058957	60	127
546.6201814058957	546.9916780045352	62	127
546.6201814058957	546.9916780045352	71	127
547.0033106575963	547.3632199546486	64	127
547.0033106575963	547.3632199546486	72	127
547.3632199546486	547.7463492063492	74	127
547.3632199546486	547.7463492063492	66	127
547.7463492063492	548.1062585034014	79	127
547.7463492063492	548.3500680272109	64	127
547.7463492063492	548.8144671201815	72	127
548.1062585034014	548.2804081632653	78	127
548.2804081632653	548.4661678004535	76	127
548.4661678004535	549.8709750566893	63	127
548.4661678004535	549.151156462585	79	127
548.8144671201815	549.151156462585	71	127
549.151156462585	549.5110657596372	69	127
549.151156462585	549.8709750566893	78	127
549.5110657596372	549.6968253968254	67	127
549.6968253968254	549.8709750566893	66	127
549.8709750566893	550.2540816326531	69	127
549.8709750566893	550.6256235827665	76	127
549.8709750566893	550.4979138321995	64	127
550.2540816326531	550.6256235827665	67	127
550.6256235827665	551.4034920634921	57	127
550.6256235827665	551.0087528344671	66	127
550.6256235827665	551.0087528344671	66	127
551.0087528344671	551.2293424036282	64	127
551.0087528344671	551.7750113378685	67	127
551.2293424036282	551.4034920634921	63	127
551.4034920634921	551.7866213151927	59	127
551.4034920634921	551.7866213151927	66	127
551.7866213151927	552.1813605442177	64	127
551.7866213151927	552.1813605442177	69	127
551.7866213151927	552.1813605442177	60	127
552.1813605442177	553.3539682539682	71	127
552.1813605442177	553.3655782312925	62	127
552.1813605442177	552.5644897959183	62	127
552.5644897959183	552.9708390022676	64	127
552.9708390022676	553.8067573696145	65	127
553.3655782312925	553.7951473922902	72	127
553.3655782312925	553.8067573696145	60	127
553.8067573696145	554.2363265306122	74	127
553.8067573696145	554.2479365079365	66	127
553.8067573696145	554.2479365079365	59	127
554.2479365079365	554.6775056689343	66	127
554.2479365079365	554.6775056689343	57	127
554.2479365079365	554.6775056689343	60	127
554.6775056689343	555.2812244897959	59	127
554.6775056689343	556.1403628117914	50	127
554.6775056689343	555.4089342403628	69	127
555.4089342403628	556.1403628117914	55	127
555.4089342403628	556.8834013605442	67	127
556.1403628117914	556.8834013605442	64	127
556.1403628117914	556.8834013605442	55	127
556.8834013605442	558.2533786848072	62	127
556.8834013605442	557.6380498866213	56	127
556.8834013605442	557.2433106575963	66	127
557.2433106575963	557.4522902494331	64	127
557.4522902494331	557.6380498866213	62	127
557.6380498866213	558.3462585034014	71	127
557.6380498866213	558.3462585034014	55	127
558.3462585034014	558.6713378684807	61	127
558.3462585034014	559.3679365079365	69	127
558.3462585034014	558.6713378684807	57	127
558.6713378684807	559.0080272108844	59	127
558.6713378684807	558.8338775510205	59	127
558.8338775510205	558.9964172335601	57	127
559.0080272108844	560.4244444444445	60	127
559.0080272108844	559.7278458049886	67	127
559.3679365079365	559.7278458049886	71	127
559.7278458049886	560.2967346938775	66	127
559.7278458049886	560.0761224489796	72	127
560.0761224489796	560.4244444444445	74	127
560.4244444444445	563.9422675736962	59	127
560.4244444444445	560.9236734693877	67	127
560.4244444444445	561.0397732426304	76	127
561.0397732426304	562.920589569161	74	127
561.0397732426304	561.8060317460317	62	127
561.8060317460317	562.5722902494331	69	127
562.5722902494331	563.1295464852608	68	127
562.920589569161	563.0831292517007	73	127
563.0831292517007	563.2456689342404	71	127
563.2572789115646	564.3021768707483	67	127
563.2572789115646	563.9422675736962	78	127
563.9422675736962	564.6504761904762	61	127
563.9422675736962	565.0103854875283	76	127
564.3021768707483	564.4763265306123	66	127
564.4879365079365	564.6388662131519	64	127
564.6504761904762	565.3702947845806	71	127
564.6504761904762	566.8099092970522	62	127
565.0219954648526	565.3702947845806	74	127
565.3702947845806	566.8099092970522	69	127
565.3702947845806	565.7302040816327	76	127
565.7302040816327	566.0785034013605	78	127
566.0785034013605	566.8099092970522	81	127
566.8099092970522	568.1682993197279	67	127
566.8099092970522	568.1682993197279	79	127
566.8099092970522	567.5065306122449	55	127
567.5065306122449	568.1682993197279	64	127
568.1682993197279	568.52820861678	78	127
568.1682993197279	569.5034467120181	62	127
568.1682993197279	568.52820861678	66	127
568.52820861678	568.7255782312925	76	127
568.52820861678	568.7255782312925	64	127
568.7255782312925	568.9113378684807	74	127
568.7255782312925	568.9113378684807	62	127
568.9113378684807	569.6311564625851	71	127
568.9113378684807	569.6311564625851	83	127
569.6311564625851	570.5715646258503	81	127
569.6311564625851	569.9678458049887	61	127
569.6311564625851	570.5599546485261	69	127
569.9678458049887	570.1071428571429	59	127
570.1071428571429	570.2116553287982	57	127
570.2116553287982	570.8850340136055	67	127
570.5715646258503	570.8850340136055	71	127
570.5715646258503	570.8850340136055	83	127
570.8850340136055	571.4771428571429	84	127
570.8850340136055	571.2449433106576	72	127
570.8850340136055	571.4771428571429	66	127
571.2449433106576	571.5932426303855	74	127
571.6048526077097	574.9949433106576	83	127
571.6048526077097	572.278231292517	76	127
571.6048526077097	572.1621315192743	67	127
572.278231292517	572.986439909297	62	127
572.278231292517	574.0545578231292	74	127
572.986439909297	573.7178684807257	69	127
573.7178684807257	574.2751473922903	68	127
574.0545578231292	574.2170975056689	73	127
574.2170975056689	574.391224489796	71	127
574.4028571428571	575.0878458049887	78	127
574.4028571428571	575.4709750566893	67	127
575.0878458049887	576.0630839002267	76	127
575.0878458049887	575.6915646258503	85	127
575.4709750566893	575.6451247165533	66	127
575.6451247165533	575.807641723356	64	127
575.807641723356	581.8796825396826	86	127
575.807641723356	576.422970521542	71	127
576.074693877551	576.422970521542	74	127
576.422970521542	576.7712925170068	69	127
576.422970521542	576.7829024943311	76	127
576.7829024943311	581.8796825396826	62	127
576.7829024943311	577.1892517006803	78	127
577.2008616780046	581.8796825396826	74	127
581.8912925170068	582.2628117913832	71	127
581.8912925170068	582.251201814059	59	127
581.8912925170068	582.2628117913832	83	127
582.2628117913832	582.6459410430839	67	127
582.2628117913832	583.7256689342404	55	127
582.2628117913832	582.6459410430839	79	127
582.6459410430839	583.0174603174603	74	127
582.6459410430839	583.0174603174603	62	127
583.0174603174603	583.3773469387755	76	127
583.0174603174603	583.7256689342404	60	127
583.3773469387755	583.7256689342404	79	127
583.7256689342404	584.2945578231293	54	127
583.7256689342404	584.2365079365079	83	127
583.7256689342404	584.410634920635	62	127
584.2365079365079	584.410634920635	78	127
584.410634920635	585.1304761904762	60	127
584.410634920635	584.7589569160998	76	127
584.410634920635	585.1304761904762	55	127
584.7589569160998	585.1304761904762	79	127
585.1304761904762	585.652925170068	83	127
585.1304761904762	585.827052154195	54	127
585.1304761904762	585.7109750566893	62	127
585.652925170068	585.827052154195	78	127
585.827052154195	586.535283446712	60	127
585.827052154195	586.3495238095238	76	127
585.827052154195	586.535283446712	55	127
586.3495238095238	586.5236734693877	83	127
586.535283446712	587.9749206349206	54	127
586.535283446712	586.8951927437641	62	127
586.535283446712	587.1273922902494	83	127
586.9068027210884	587.2434920634921	66	127
587.2434920634921	587.6150113378685	71	127
587.6266213151928	587.9749206349206	70	127
587.9749206349206	588.567029478458	55	127
587.9749206349206	588.3232199546485	67	127
588.3232199546485	588.5089569160998	65	127
588.5089569160998	588.6831292517007	63	127
588.6831292517007	589.0778684807257	87	127
588.6831292517007	589.4493877551021	58	127
589.0778684807257	589.4493877551021	86	127
589.4493877551021	589.7628571428571	83	127
589.4493877551021	589.7512471655328	59	127
589.7628571428571	589.9369841269842	81	127
589.7628571428571	590.1111564625851	62	127
589.9369841269842	590.1111564625851	79	127
590.1111564625851	590.7961451247165	78	127
590.1111564625851	590.459455782313	71	127
590.459455782313	590.7845351473923	70	127
590.7961451247165	591.3534013605442	79	127
590.7961451247165	591.121224489796	67	127
591.121224489796	591.2837641723356	65	127
591.121224489796	591.4579138321996	58	127
591.2953741496599	591.4579138321996	63	127
591.4579138321996	591.829433106576	63	127
591.4579138321996	592.2009523809523	58	127
591.829433106576	592.2009523809523	62	127
592.2009523809523	592.5492517006803	59	127
592.2009523809523	592.5492517006803	59	127
592.5492517006803	592.71179138322	57	127
592.5492517006803	592.8859410430839	62	127
592.71179138322	592.8859410430839	55	127
592.8859410430839	593.5709297052155	54	127
592.8859410430839	593.1993877551021	71	127
593.1993877551021	593.5709297052155	70	127
593.5709297052155	594.1049886621315	67	127
593.5709297052155	593.8843990929705	67	127
593.5709297052155	594.1049886621315	55	127
593.8843990929705	594.0469387755102	65	127
594.0469387755102	594.2210657596372	63	127
594.2326757369615	594.8363945578232	79	127
594.2326757369615	594.8363945578232	67	127
594.2326757369615	594.8363945578232	79	127
594.2326757369615	594.8363945578232	67	127
594.964126984127	596.2992743764172	77	127
594.964126984127	596.2992743764172	65	127
594.964126984127	596.2992743764172	65	127
594.964126984127	596.2992743764172	77	127
596.2992743764172	596.6475736961452	75	127
596.2992743764172	596.6475736961452	75	127
596.2992743764172	596.6475736961452	63	127
596.6475736961452	596.8217233560091	74	127
596.6475736961452	596.8217233560091	74	127
596.6475736961452	596.8217233560091	62	127
596.8217233560091	596.995873015873	72	127
596.8217233560091	596.995873015873	60	127
596.8217233560091	596.995873015873	72	127
597.0074829931973	597.5879818594104	75	127
597.0074829931973	597.5879818594104	75	127
597.0074829931973	597.5879818594104	63	127
597.7040589569161	599.0160090702948	74	127
597.7040589569161	599.0160090702948	62	127
597.7040589569161	599.0160090702948	74	127
599.0160090702948	599.3759183673469	60	127
599.0160090702948	599.3759183673469	72	127
599.0160090702948	599.3759183673469	72	127
599.3759183673469	599.5616780045351	58	127
599.3759183673469	599.5616780045351	70	127
599.3759183673469	599.5616780045351	70	127
599.5616780045351	599.7358049886622	68	127
599.5616780045351	599.7358049886622	56	127
599.5616780045351	599.7358049886622	68	127
599.7474149659864	600.2466666666667	60	127
599.7474149659864	600.2466666666667	72	127
599.7474149659864	600.2466666666667	72	127
600.3511337868481	601.674693877551	59	127
600.3511337868481	601.674693877551	71	127
600.3511337868481	601.674693877551	71	127
601.674693877551	601.9997505668935	68	127
601.674693877551	601.9997505668935	68	127
601.674693877551	601.9997505668935	56	127
601.9997505668935	602.1623129251701	66	127
601.9997505668935	602.1623129251701	66	127
601.9997505668935	602.1623129251701	54	127
602.1623129251701	602.336462585034	64	127
602.1623129251701	602.336462585034	64	127
602.1623129251701	602.336462585034	52	127
602.3480725623583	602.8705215419501	64	127
602.3480725623583	602.8705215419501	64	127
602.3480725623583	602.8705215419501	52	127
602.9750113378685	604.4030385487529	51	127
602.9750113378685	604.4030385487529	63	127
602.9750113378685	604.4030385487529	63	127
604.4030385487529	604.7745578231293	59	127
604.4030385487529	604.7745578231293	47	127
604.4030385487529	604.7745578231293	59	127
604.7745578231293	604.9370975056689	58	127
604.7745578231293	604.9370975056689	46	127
604.7745578231293	604.9370975056689	58	127
604.9370975056689	605.0880272108843	44	127
604.9370975056689	605.0880272108843	56	127
604.9370975056689	605.0880272108843	56	127
605.0996371882086	605.6801133786848	63	127
605.0996371882086	605.6801133786848	63	127
605.0996371882086	605.6801133786848	51	127
605.7962358276644	607.2010430839002	62	127
605.7962358276644	607.2010430839002	62	127
605.7962358276644	607.2010430839002	50	127
607.2010430839002	607.5609523809524	47	127
607.2010430839002	607.5609523809524	59	127
607.2010430839002	607.5609523809524	59	127
607.5609523809524	607.7699319727891	57	127
607.5609523809524	607.7699319727891	57	127
607.5609523809524	607.7699319727891	45	127
607.7699319727891	607.9208390022676	43	127
607.7699319727891	607.9208390022676	55	127
607.7699319727891	607.9208390022676	55	127
607.9324489795919	608.5361678004535	64	127
607.9324489795919	608.5361678004535	64	127
607.9324489795919	608.5361678004535	52	127
608.6639002267574	610.103537414966	63	127
608.6639002267574	610.103537414966	63	127
608.6639002267574	610.103537414966	51	127
610.103537414966	610.4518367346939	59	127
610.103537414966	610.4518367346939	59	127
610.103537414966	610.4518367346939	47	127
610.4518367346939	610.6724263038549	58	127
610.4518367346939	610.6724263038549	46	127
610.4518367346939	610.6724263038549	58	127
610.6724263038549	610.8465759637188	56	127
610.6724263038549	610.8465759637188	56	127
610.6724263038549	610.8465759637188	44	127
610.8465759637188	611.5780045351474	63	127
610.8465759637188	611.5780045351474	63	127
610.8465759637188	611.5780045351474	51	127
611.5780045351474	612.6925623582766	62	127
611.5780045351474	612.6925623582766	62	127
611.5780045351474	612.6925623582766	50	127
612.8551020408163	613.2150113378685	59	127
612.8551020408163	613.2150113378685	47	127
612.8551020408163	613.2150113378685	59	127
613.2150113378685	613.3891609977325	57	127
613.2150113378685	613.3891609977325	57	127
613.2150113378685	613.3891609977325	45	127
613.3891609977325	613.5517006802721	43	127
613.3891609977325	613.5517006802721	55	127
613.3891609977325	613.5517006802721	55	127
613.5517006802721	614.2831292517006	63	127
613.5517006802721	614.2831292517006	63	127
613.5517006802721	614.2831292517006	51	127
614.2831292517006	615.5021768707483	50	127
614.2831292517006	615.5021768707483	62	127
614.2831292517006	615.5021768707483	62	127
615.6995238095238	616.059455782313	59	127
615.6995238095238	617.1507936507936	50	127
615.6995238095238	618.6717006802721	47	127
616.059455782313	616.2336054421769	57	127
616.2336054421769	616.4193650793651	55	127
616.4193650793651	617.9170521541951	55	127
617.1507936507936	619.2057596371882	52	127
617.9170521541951	618.6717006802721	56	127
618.6717006802721	619.2638095238095	49	127
618.6717006802721	619.2638095238095	57	127
619.3798866213152	620.784716553288	55	127
619.3798866213152	621.5161451247166	47	127
619.3798866213152	620.0881179138322	50	127
620.0881179138322	621.9921541950114	52	127
620.784716553288	621.5161451247166	56	127
621.5161451247166	622.0618140589569	49	127
621.5161451247166	622.0618140589569	57	127
622.1663038548753	624.2444897959184	59	127
622.1663038548753	624.2444897959184	55	127
622.1663038548753	624.2444897959184	50	127
624.2444897959184	626.9379818594105	50	127
624.2444897959184	626.9379818594105	59	127
624.2444897959184	626.9379818594105	50	127
624.2444897959184	626.9379818594105	43	127
624.2444897959184	626.9379818594105	55	127
626.9379818594105	634.4496598639456	43	127
626.9379818594105	634.4496598639456	50	127
626.9379818594105	634.4496598639456	50	127
626.9379818594105	634.4496598639456	55	127
626.9379818594105	634.4496598639456	59	127
