# onset,offset,note,velocity
0.3475283446712018	0.4287981859410431	67	127
0.3475283446712018	0.5100680272108844	43	127
0.4287981859410431	0.5100680272108844	74	127
0.521655328798186	1.7058956916099772	70	127
0.521655328798186	1.8800453514739228	46	127
1.7175056689342403	1.8800453514739228	74	127
1.8800453514739228	1.9613151927437642	67	127
1.8800453514739228	2.0541950113378684	43	127
1.9729251700680273	2.0541950113378684	74	127
2.0658049886621317	2.2399546485260773	38	127
2.0658049886621317	2.147074829931973	62	127
2.147074829931973	2.2399546485260773	74	127
2.25156462585034	2.460521541950113	43	127
2.25156462585034	2.3328344671201813	67	127
2.3444444444444446	2.460521541950113	74	127
2.460521541950113	2.6346938775510202	46	127
2.460521541950113	2.553424036281179	70	127
2.553424036281179	2.6346938775510202	74	127
2.6463038548752835	2.820453514739229	43	127
2.6463038548752835	2.7275736961451247	67	127
2.739183673469388	2.820453514739229	74	127
2.820453514739229	2.9713832199546486	38	127
2.820453514739229	2.9017233560090703	62	127
2.9133333333333336	2.9713832199546486	74	127
2.9829931972789114	3.0526530612244898	67	127
2.9829931972789114	3.133922902494331	43	127
3.0526530612244898	3.133922902494331	74	127
3.145532879818594	3.2268027210884354	70	127
3.145532879818594	3.31968253968254	46	127
3.2384126984126986	3.31968253968254	74	127
3.31968253968254	3.400952380952381	67	127
3.31968253968254	3.4938321995464854	43	127
3.412562358276644	3.4938321995464854	74	127
3.505442176870748	3.6563718820861677	38	127
3.505442176870748	3.5867120181405894	62	127
3.5867120181405894	3.6563718820861677	74	127
3.667981859410431	3.749251700680272	67	127
3.667981859410431	3.8421315192743766	43	127
3.760861678004535	3.8421315192743766	74	127
3.8537414965986394	3.9350113378684806	70	127
3.8537414965986394	4.016281179138322	46	127
3.9350113378684806	4.016281179138322	74	127
4.027891156462585	4.202040816326531	43	127
4.027891156462585	4.109160997732427	67	127
4.120748299319728	4.202040816326531	74	127
4.202040816326531	4.271700680272109	62	127
4.202040816326531	4.376190476190477	38	127
4.283310657596372	4.376190476190477	74	127
4.387800453514739	4.46907029478458	67	127
4.387800453514739	4.55031746031746	43	127
4.46907029478458	4.55031746031746	74	127
4.561950113378685	4.643219954648526	70	127
4.561950113378685	4.73609977324263	46	127
4.654829931972789	4.73609977324263	74	127
4.73609977324263	4.817369614512471	67	127
4.73609977324263	4.933469387755102	43	127
4.828979591836735	4.933469387755102	74	127
4.945056689342404	5.026349206349207	62	127
4.945056689342404	5.11922902494331	38	127
5.026349206349207	5.11922902494331	74	127
5.11922902494331	5.2004761904761905	69	127
5.11922902494331	5.293378684807256	45	127
5.212108843537415	5.293378684807256	74	127
5.304988662131519	5.38625850340136	72	127
5.304988662131519	5.4675283446712015	48	127
5.38625850340136	5.4675283446712015	74	127
5.479138321995465	5.560408163265306	69	127
5.479138321995465	5.65328798185941	45	127
5.572018140589569	5.65328798185941	74	127
5.65328798185941	5.827437641723356	38	127
5.65328798185941	5.7345578231292516	62	127
5.746167800453515	5.827437641723356	74	127
5.839047619047619	5.908707482993197	69	127
5.839047619047619	5.978367346938776	45	127
5.908707482993197	5.978367346938776	74	127
5.989977324263038	6.0712471655328795	72	127
5.989977324263038	6.164126984126984	48	127
6.082857142857143	6.164126984126984	74	127
6.164126984126984	6.3382766439909295	45	127
6.164126984126984	6.257006802721088	69	127
6.257006802721088	6.3382766439909295	74	127
6.349886621315193	6.431156462585034	62	127
6.349886621315193	6.524036281179138	38	127
6.442766439909297	6.524036281179138	74	127
6.524036281179138	6.698185941043084	43	127
6.524036281179138	6.6053061224489795	69	127
6.616916099773243	6.698185941043084	74	127
6.709795918367347	6.9071655328798185	46	127
6.709795918367347	6.791065759637188	72	127
6.791065759637188	6.9071655328798185	74	127
6.918775510204082	7.092925170068027	43	127
6.918775510204082	7.000045351473923	69	127
7.011655328798186	7.092925170068027	74	127
7.092925170068027	7.150975056689342	62	127
7.092925170068027	7.232244897959184	38	127
7.162585034013605	7.232244897959184	74	127
7.243854875283446	7.325124716553288	67	127
7.243854875283446	7.40639455782313	43	127
7.325124716553288	7.40639455782313	74	127
7.418004535147392	7.592154195011338	45	127
7.418004535147392	7.499274376417233	69	127
7.510884353741496	7.592154195011338	74	127
7.603764172335601	7.685034013605442	67	127
7.603764172335601	7.754693877551021	43	127
7.685034013605442	7.754693877551021	74	127
7.766303854875283	7.917233560090703	38	127
7.766303854875283	7.835963718820862	62	127
7.847573696145124	7.917233560090703	74	127
7.917233560090703	8.079773242630386	41	127
7.917233560090703	7.986893424036281	65	127
7.998503401360544	8.079773242630386	74	127
8.091383219954649	8.172630385487528	69	127
8.091383219954649	8.242312925170069	45	127
8.172630385487528	8.242312925170069	74	127
8.253922902494331	8.393219954648526	41	127
8.253922902494331	8.335192743764173	65	127
8.346802721088435	8.393219954648526	74	127
8.393219954648526	8.474512471655329	62	127
8.393219954648526	8.567392290249433	38	127
8.486122448979591	8.567392290249433	74	127
8.579002267573696	8.753151927437642	41	127
8.579002267573696	8.660272108843538	65	127
8.660272108843538	8.753151927437642	74	127
8.753151927437642	8.927301587301587	45	127
8.753151927437642	8.834421768707482	69	127
8.846031746031747	8.927301587301587	74	127
8.938911564625851	9.101451247165533	41	127
8.938911564625851	9.020181405895691	65	127
9.020181405895691	9.101451247165533	74	127
9.113061224489796	9.275600907029478	38	127
9.113061224489796	9.182721088435374	62	127
9.194331065759638	9.275600907029478	74	127
9.275600907029478	9.35687074829932	63	127
9.275600907029478	9.449750566893425	39	127
9.368480725623582	9.449750566893425	74	127
9.461360544217687	9.542630385487529	67	127
9.461360544217687	9.62390022675737	43	127
9.542630385487529	9.62390022675737	74	127
9.635510204081633	9.82124716553288	39	127
9.635510204081633	9.716780045351474	63	127
9.74	9.82124716553288	74	127
9.82124716553288	9.914149659863945	62	127
9.82124716553288	9.995419501133787	38	127
9.914149659863945	9.995419501133787	74	127
10.00702947845805	10.088299319727891	64	127
10.00702947845805	10.16954648526077	40	127
10.099909297052154	10.16954648526077	74	127
10.16954648526077	10.250839002267574	67	127
10.16954648526077	10.320498866213152	43	127
10.262448979591836	10.320498866213152	74	127
10.332108843537416	10.413378684807256	64	127
10.332108843537416	10.483038548752834	40	127
10.413378684807256	10.483038548752834	74	127
10.494648526077098	10.622358276643991	38	127
10.494648526077098	10.575918367346938	62	127
10.575918367346938	10.622358276643991	74	127
10.622358276643991	10.796507936507936	41	127
10.622358276643991	10.703628117913832	65	127
10.715238095238096	10.796507936507936	74	127
10.8081179138322	10.88938775510204	68	127
10.8081179138322	10.982267573696145	44	127
10.88938775510204	10.982267573696145	74	127
10.993854875283446	11.07514739229025	65	127
10.993854875283446	11.168027210884354	41	127
11.086757369614512	11.168027210884354	74	127
11.179637188208616	11.353786848072563	38	127
11.179637188208616	11.260907029478458	62	127
11.260907029478458	11.353786848072563	74	127
11.365396825396825	11.45827664399093	66	127
11.365396825396825	11.551156462585034	42	127
11.469863945578231	11.551156462585034	74	127
11.551156462585034	11.725283446712018	45	127
11.551156462585034	11.632426303854876	69	127
11.644036281179138	11.725283446712018	74	127
11.736916099773243	11.818163265306122	66	127
11.736916099773243	11.899455782312925	42	127
11.818163265306122	11.899455782312925	74	127
11.911065759637188	11.99233560090703	62	127
11.911065759637188	12.07360544217687	38	127
12.003945578231292	12.07360544217687	74	127
12.07360544217687	12.22453514739229	43	127
12.07360544217687	12.131655328798185	67	127
12.14326530612245	12.22453514739229	74	127
12.236145124716554	12.317414965986394	70	127
12.236145124716554	12.421904761904761	46	127
12.317414965986394	12.421904761904761	74	127
12.421904761904761	12.596054421768708	43	127
12.421904761904761	12.503174603174603	67	127
12.514784580498866	12.596054421768708	74	127
12.60766439909297	12.770204081632652	38	127
12.60766439909297	12.688934240362812	62	127
12.688934240362812	12.770204081632652	74	127
12.781814058956916	12.863083900226757	68	127
12.781814058956916	12.955963718820861	44	127
12.874693877551021	12.955963718820861	74	127
12.955963718820861	13.037233560090703	71	127
12.955963718820861	13.14172335600907	47	127
13.048843537414966	13.14172335600907	74	127
13.153333333333334	13.234603174603174	68	127
13.153333333333334	13.315873015873017	44	127
13.234603174603174	13.315873015873017	74	127
13.327482993197279	13.397142857142857	62	127
13.327482993197279	13.490022675736961	38	127
13.408752834467121	13.490022675736961	74	127
13.490022675736961	13.55968253968254	69	127
13.490022675736961	13.640952380952381	45	127
13.55968253968254	13.640952380952381	74	127
13.652562358276644	13.82671201814059	48	127
13.652562358276644	13.733832199546486	72	127
13.745442176870748	13.82671201814059	74	127
13.82671201814059	13.919591836734694	69	127
13.82671201814059	14.000861678004535	45	127
13.931201814058957	14.000861678004535	74	127
14.012471655328799	14.175011337868481	38	127
14.012471655328799	14.09374149659864	62	127
14.09374149659864	14.175011337868481	74	127
14.186621315192744	14.267891156462586	69	127
14.186621315192744	14.36077097505669	45	127
14.279501133786848	14.36077097505669	74	127
14.36077097505669	14.44204081632653	72	127
14.36077097505669	14.534920634920635	48	127
14.453650793650795	14.534920634920635	74	127
14.546530612244897	14.697460317460317	45	127
14.546530612244897	14.62780045351474	69	127
14.62780045351474	14.697460317460317	74	127
14.697460317460317	14.77873015873016	62	127
14.697460317460317	14.871609977324264	38	127
14.790340136054422	14.871609977324264	74	127
14.883219954648526	14.952879818594104	69	127
14.883219954648526	15.034149659863946	45	127
14.952879818594104	15.034149659863946	74	127
15.045759637188208	15.219909297052155	48	127
15.045759637188208	15.12702947845805	72	127
15.138639455782313	15.219909297052155	74	127
15.219909297052155	15.301179138321995	69	127
15.219909297052155	15.3940589569161	45	127
15.31278911564626	15.3940589569161	74	127
15.405668934240364	15.568208616780046	38	127
15.405668934240364	15.486938775510204	62	127
15.486938775510204	15.568208616780046	74	127
15.579818594104308	15.66108843537415	65	127
15.579818594104308	15.753968253968255	41	127
15.579818594104308	15.753968253968255	46	127
15.672698412698413	15.753968253968255	74	127
15.753968253968255	15.916507936507937	50	127
15.753968253968255	15.835238095238095	70	127
15.846848072562358	15.916507936507937	74	127
15.9281179138322	16.102267573696146	41	127
15.9281179138322	16.00938775510204	65	127
15.9281179138322	16.102267573696146	46	127
16.00938775510204	16.102267573696146	74	127
16.102267573696146	16.183537414965986	62	127
16.102267573696146	16.276394557823128	38	127
16.19514739229025	16.276394557823128	74	127
16.288027210884355	16.369297052154195	65	127
16.288027210884355	16.450566893424035	41	127
16.288027210884355	16.450566893424035	48	127
16.369297052154195	16.450566893424035	74	127
16.462154195011337	16.624716553287982	50	127
16.462154195011337	16.54344671201814	72	127
16.54344671201814	16.624716553287982	74	127
16.624716553287982	16.79886621315193	48	127
16.624716553287982	16.705986394557822	65	127
16.624716553287982	16.79886621315193	41	127
16.717573696145124	16.79886621315193	74	127
16.81047619047619	16.88013605442177	62	127
16.81047619047619	16.96140589569161	38	127
16.88013605442177	16.96140589569161	74	127
16.97299319727891	17.147165532879818	48	127
16.97299319727891	17.054285714285715	65	127
16.97299319727891	17.147165532879818	41	127
17.065895691609978	17.147165532879818	74	127
17.147165532879818	17.205215419501133	72	127
17.147165532879818	17.286462585034013	50	127
17.205215419501133	17.286462585034013	74	127
17.29809523809524	17.472244897959182	48	127
17.29809523809524	17.472244897959182	41	127
17.29809523809524	17.37936507936508	65	127
17.390975056689342	17.472244897959182	74	127
17.472244897959182	17.634784580498867	38	127
17.472244897959182	17.553514739229026	62	127
17.553514739229026	17.634784580498867	74	127
17.64639455782313	17.72766439909297	67	127
17.64639455782313	17.808934240362813	43	127
17.64639455782313	17.808934240362813	48	127
17.72766439909297	17.808934240362813	74	127
17.820544217687075	17.901814058956916	72	127
17.820544217687075	17.983061224489795	50	127
17.901814058956916	17.983061224489795	74	127
17.983061224489795	18.0643537414966	67	127
17.983061224489795	18.14562358276644	43	127
17.983061224489795	18.14562358276644	48	127
18.075963718820862	18.14562358276644	74	127
18.157233560090702	18.23848072562358	62	127
18.157233560090702	18.296553287981858	38	127
18.23848072562358	18.296553287981858	74	127
18.308163265306124	18.482312925170067	48	127
18.308163265306124	18.389433106575964	68	127
18.308163265306124	18.482312925170067	44	127
18.401043083900227	18.482312925170067	74	127
18.49390022675737	18.656462585034014	50	127
18.49390022675737	18.575192743764173	72	127
18.575192743764173	18.656462585034014	74	127
18.668072562358276	18.80736961451247	44	127
18.668072562358276	18.80736961451247	48	127
18.668072562358276	18.737732426303854	68	127
18.749319727891155	18.80736961451247	74	127
18.80736961451247	18.94671201814059	38	127
18.80736961451247	18.87702947845805	62	127
18.888662131519276	18.94671201814059	74	127
18.958321995464853	19.039591836734694	67	127
18.958321995464853	19.120861678004534	44	127
18.958321995464853	19.120861678004534	48	127
19.039591836734694	19.120861678004534	74	127
19.1324716553288	19.318208616780044	50	127
19.1324716553288	19.21374149659864	72	127
19.225351473922903	19.318208616780044	74	127
19.318208616780044	19.39950113378685	67	127
19.318208616780044	19.49238095238095	44	127
19.318208616780044	19.49238095238095	48	127
19.41111111111111	19.49238095238095	74	127
19.503968253968253	19.585260770975058	62	127
19.503968253968253	19.67814058956916	38	127
19.585260770975058	19.67814058956916	74	127
19.67814058956916	19.852290249433107	44	127
19.67814058956916	19.75938775510204	67	127
19.67814058956916	19.852290249433107	48	127
19.771020408163267	19.852290249433107	74	127
19.86390022675737	19.94517006802721	72	127
19.86390022675737	20.026439909297054	50	127
19.94517006802721	20.026439909297054	74	127
20.038049886621316	20.119319727891156	67	127
20.038049886621316	20.200589569160996	44	127
20.038049886621316	20.200589569160996	48	127
20.13092970521542	20.200589569160996	74	127
20.200589569160996	20.293469387755103	62	127
20.200589569160996	20.386349206349205	38	127
20.305079365079365	20.386349206349205	74	127
20.397936507936507	20.560498866213152	48	127
20.397936507936507	20.47922902494331	69	127
20.397936507936507	20.560498866213152	45	127
20.47922902494331	20.560498866213152	74	127
20.572108843537414	20.653356009070293	72	127
20.572108843537414	20.757868480725623	50	127
20.66498866213152	20.757868480725623	74	127
20.757868480725623	20.93201814058957	48	127
20.757868480725623	20.85074829931973	69	127
20.757868480725623	20.93201814058957	45	127
20.85074829931973	20.93201814058957	74	127
20.943628117913832	21.024897959183672	62	127
20.943628117913832	21.11777777777778	38	127
21.036507936507938	21.11777777777778	74	127
21.11777777777778	21.19904761904762	68	127
21.11777777777778	21.291927437641725	44	127
21.11777777777778	21.291927437641725	47	127
21.21065759637188	21.291927437641725	76	127
21.303537414965987	21.466077097505668	52	127
21.303537414965987	21.384807256235828	71	127
21.384807256235828	21.466077097505668	76	127
21.47766439909297	21.628616780045352	47	127
21.47766439909297	21.558956916099774	68	127
21.47766439909297	21.628616780045352	44	127
21.570566893424036	21.628616780045352	76	127
21.628616780045352	21.709886621315192	62	127
21.628616780045352	21.8027664399093	38	127
21.721496598639455	21.8027664399093	76	127
21.81437641723356	21.97691609977324	47	127
21.81437641723356	21.97691609977324	44	127
21.81437641723356	21.8956462585034	68	127
21.8956462585034	21.97691609977324	76	127
21.988526077097507	22.16267573696145	52	127
21.988526077097507	22.069795918367348	71	127
22.08140589569161	22.16267573696145	76	127
22.17426303854875	22.336825396825397	44	127
22.17426303854875	22.255555555555556	68	127
22.17426303854875	22.336825396825397	47	127
22.255555555555556	22.336825396825397	76	127
22.34843537414966	22.534195011337868	38	127
22.34843537414966	22.429705215419503	62	127
22.441315192743765	22.534195011337868	76	127
22.534195011337868	22.708344671201814	48	127
22.534195011337868	22.615442176870747	68	127
22.534195011337868	22.708344671201814	44	127
22.627074829931974	22.708344671201814	75	127
22.719954648526077	22.801224489795917	72	127
22.719954648526077	22.88249433106576	51	127
22.801224489795917	22.88249433106576	75	127
22.894104308390023	23.06825396825397	48	127
22.894104308390023	22.975374149659864	68	127
22.894104308390023	23.06825396825397	44	127
22.986984126984126	23.06825396825397	75	127
23.06825396825397	23.219183673469388	38	127
23.06825396825397	23.14952380952381	62	127
23.161133786848072	23.219183673469388	75	127
23.23079365079365	23.381723356009072	43	127
23.23079365079365	23.288843537414966	67	127
23.23079365079365	23.381723356009072	48	127
23.288843537414966	23.381723356009072	75	127
23.381723356009072	23.555873015873015	51	127
23.381723356009072	23.462993197278912	72	127
23.474603174603175	23.555873015873015	75	127
23.567460317460316	23.64875283446712	67	127
23.567460317460316	23.7184126984127	48	127
23.567460317460316	23.7184126984127	43	127
23.64875283446712	23.7184126984127	75	127
23.73002267573696	23.904172335600908	38	127
23.73002267573696	23.8112925170068	62	127
23.822902494331064	23.904172335600908	75	127
23.904172335600908	23.985442176870748	68	127
23.904172335600908	24.089931972789117	44	127
23.904172335600908	24.089931972789117	47	127
23.99705215419501	24.089931972789117	76	127
24.10154195011338	24.147981859410432	71	127
24.10154195011338	24.229251700680273	52	127
24.147981859410432	24.229251700680273	76	127
24.240861678004535	24.40340136054422	47	127
24.240861678004535	24.322131519274375	68	127
24.240861678004535	24.40340136054422	44	127
24.33374149659864	24.40340136054422	76	127
24.40340136054422	24.49628117913832	62	127
24.40340136054422	24.577551020408162	38	127
24.49628117913832	24.577551020408162	76	127
24.589160997732428	24.740090702947846	47	127
24.589160997732428	24.64721088435374	68	127
24.589160997732428	24.740090702947846	44	127
24.658820861678006	24.740090702947846	76	127
24.740090702947846	24.821360544217686	71	127
24.740090702947846	24.914240362811793	52	127
24.83297052154195	24.914240362811793	76	127
24.925850340136055	25.076780045351473	47	127
24.925850340136055	25.007120181405895	68	127
24.925850340136055	25.076780045351473	44	127
25.007120181405895	25.076780045351473	76	127
25.088390022675735	25.274149659863944	38	127
25.088390022675735	25.16965986394558	62	127
25.18126984126984	25.274149659863944	76	127
25.274149659863944	25.355419501133788	68	127
25.274149659863944	25.44829931972789	44	127
25.274149659863944	25.44829931972789	48	127
25.36702947845805	25.44829931972789	75	127
25.459909297052153	25.622448979591837	51	127
25.459909297052153	25.541179138321997	72	127
25.541179138321997	25.622448979591837	75	127
25.6340589569161	25.796598639455784	48	127
25.6340589569161	25.703718820861678	68	127
25.6340589569161	25.796598639455784	44	127
25.71532879818594	25.796598639455784	75	127
25.796598639455784	25.93591836734694	38	127
25.796598639455784	25.854648526077096	62	127
25.854648526077096	25.93591836734694	75	127
25.947528344671202	26.01718820861678	67	127
25.947528344671202	26.110068027210886	43	127
25.947528344671202	26.110068027210886	48	127
26.028798185941042	26.110068027210886	75	127
26.110068027210886	26.28421768707483	51	127
26.110068027210886	26.191337868480726	72	127
26.20294784580499	26.28421768707483	75	127
26.29582766439909	26.458367346938775	48	127
26.29582766439909	26.377097505668935	67	127
26.29582766439909	26.458367346938775	43	127
26.377097505668935	26.458367346938775	75	127
26.469977324263038	26.551247165532878	62	127
26.469977324263038	26.644126984126984	38	127
26.562857142857144	26.644126984126984	75	127
26.644126984126984	26.690566893424037	66	127
26.644126984126984	26.78344671201814	42	127
26.644126984126984	26.78344671201814	47	127
26.7021768707483	26.78344671201814	74	127
26.795056689342402	26.876326530612246	71	127
26.795056689342402	26.96920634920635	50	127
26.876326530612246	26.96920634920635	74	127
26.96920634920635	27.131746031746033	47	127
26.96920634920635	27.038866213151927	66	127
26.96920634920635	27.131746031746033	42	127
27.05047619047619	27.131746031746033	74	127
27.143356009070295	27.213015873015873	62	127
27.143356009070295	27.294285714285714	38	127
27.213015873015873	27.294285714285714	74	127
27.305895691609976	27.375555555555554	66	127
27.305895691609976	27.46843537414966	42	127
27.305895691609976	27.46843537414966	47	127
27.38716553287982	27.46843537414966	74	127
27.46843537414966	27.61936507936508	50	127
27.46843537414966	27.526485260770976	71	127
27.538095238095238	27.61936507936508	74	127
27.630975056689344	27.712244897959184	66	127
27.630975056689344	27.793514739229025	47	127
27.630975056689344	27.793514739229025	42	127
27.712244897959184	27.793514739229025	74	127
27.805124716553287	27.898004535147393	62	127
27.805124716553287	27.990884353741496	38	127
27.909614512471656	27.990884353741496	74	127
27.990884353741496	28.083764172335602	66	127
27.990884353741496	28.165034013605442	42	127
27.990884353741496	28.165034013605442	46	127
28.083764172335602	28.165034013605442	74	127
28.176643990929705	28.246303854875283	70	127
28.176643990929705	28.33918367346939	50	127
28.257913832199545	28.33918367346939	74	127
28.33918367346939	28.513333333333332	46	127
28.33918367346939	28.42045351473923	66	127
28.33918367346939	28.513333333333332	42	127
28.43206349206349	28.513333333333332	74	127
28.524943310657598	28.594603174603176	62	127
28.524943310657598	28.675873015873016	38	127
28.594603174603176	28.675873015873016	74	127
28.68748299319728	28.861632653061225	48	127
28.68748299319728	28.76875283446712	66	127
28.68748299319728	28.861632653061225	42	127
28.780362811791385	28.861632653061225	74	127
28.861632653061225	28.942902494331065	72	127
28.861632653061225	29.03578231292517	50	127
28.954512471655327	29.03578231292517	74	127
29.047392290249434	29.128662131519274	66	127
29.047392290249434	29.209931972789114	42	127
29.047392290249434	29.209931972789114	48	127
29.128662131519274	29.209931972789114	74	127
29.22154195011338	29.291201814058958	62	127
29.22154195011338	29.38408163265306	38	127
29.30281179138322	29.38408163265306	74	127
29.395691609977323	29.476961451247167	67	127
29.395691609977323	29.558231292517007	43	127
29.476961451247167	29.558231292517007	74	127
29.56984126984127	29.75560090702948	46	127
29.56984126984127	29.65111111111111	70	127
29.674331065759638	29.75560090702948	74	127
29.75560090702948	29.941360544217687	43	127
29.75560090702948	29.83687074829932	67	127
29.84848072562358	29.941360544217687	74	127
29.95297052154195	30.03424036281179	62	127
29.95297052154195	30.115510204081634	38	127
30.03424036281179	30.115510204081634	74	127
30.127120181405896	30.196780045351474	55	127
30.208390022675736	30.289659863945577	62	127
30.289659863945577	30.37092970521542	58	127
30.382539682539683	30.463809523809523	62	127
30.475419501133786	30.55668934240363	55	127
30.55668934240363	30.649569160997732	62	127
30.649569160997732	30.730839002267572	50	127
30.74244897959184	30.80049886621315	62	127
30.80049886621315	30.881768707482994	55	127
30.881768707482994	30.951428571428572	62	127
30.963038548752834	31.044308390022675	58	127
31.055918367346937	31.113968253968252	62	127
31.113968253968252	31.183628117913834	55	127
31.195238095238096	31.264897959183674	62	127
31.276507936507937	31.357777777777777	50	127
31.357777777777777	31.43904761904762	62	127
31.450657596371883	32.182086167800456	67	127
31.450657596371883	32.182086167800456	79	127
31.450657596371883	31.531927437641723	55	127
31.543537414965986	31.624807256235826	62	127
31.624807256235826	31.717687074829932	58	127
31.717687074829932	31.798956916099772	62	127
31.810566893424035	31.89183673469388	55	127
31.90344671201814	31.98471655328798	62	127
31.98471655328798	32.065986394557825	50	127
32.07759637188209	32.170476190476194	62	127
32.182086167800456	32.92510204081633	79	127
32.182086167800456	32.92510204081633	91	127
32.182086167800456	32.26335600907029	55	127
32.26335600907029	32.333015873015874	62	127
32.34462585034014	32.42589569160998	58	127
32.43750566893424	32.51877551020408	62	127
32.51877551020408	32.60004535147392	55	127
32.611655328798186	32.716145124716554	62	127
32.72775510204082	32.82063492063492	50	127
32.82063492063492	32.913492063492065	62	127
32.92510204081633	32.994784580498866	56	127
32.92510204081633	34.37637188208617	77	127
32.92510204081633	34.37637188208617	89	127
33.00639455782313	33.08766439909297	62	127
33.08766439909297	33.180521541950114	60	127
33.180521541950114	33.25020408163265	62	127
33.261814058956915	33.34308390022676	56	127
33.35469387755102	33.44757369614513	62	127
33.44757369614513	33.528843537414964	50	127
33.54045351473923	33.61011337868481	62	127
33.62172335600907	33.702993197278914	56	127
33.702993197278914	33.78426303854875	62	127
33.79587301587301	33.87714285714286	60	127
33.88875283446712	33.981632653061226	62	127
33.981632653061226	34.07451247165533	56	127
34.086122448979594	34.190589569161	62	127
34.202222222222225	34.28349206349206	50	127
34.28349206349206	34.37637188208617	62	127
34.37637188208617	34.736281179138324	75	127
34.37637188208617	34.736281179138324	87	127
34.37637188208617	34.45764172335601	54	127
34.469251700680275	34.55052154195011	63	127
34.562108843537416	34.64340136054422	60	127
34.64340136054422	34.72467120181406	63	127
34.736281179138324	34.91043083900227	74	127
34.736281179138324	34.8175283446712	54	127
34.736281179138324	34.91043083900227	86	127
34.829138321995465	34.91043083900227	63	127
34.91043083900227	35.10780045351474	72	127
34.91043083900227	35.10780045351474	84	127
34.91043083900227	35.00331065759637	50	127
35.014920634920635	35.09619047619048	63	127
35.10780045351474	35.74634920634921	87	127
35.10780045351474	35.74634920634921	75	127
35.10780045351474	35.18907029478458	55	127
35.18907029478458	35.27034013605442	63	127
35.281950113378684	35.36321995464853	59	127
35.37482993197279	35.4328798185941	63	127
35.4328798185941	35.514149659863946	55	127
35.52575963718821	35.60702947845805	63	127
35.618639455782315	35.67668934240363	50	127
35.68829931972789	35.74634920634921	63	127
35.74634920634921	37.11632653061225	74	127
35.74634920634921	35.827619047619045	55	127
35.74634920634921	37.11632653061225	86	127
35.83920634920635	35.92049886621315	62	127
35.932108843537414	36.01337868480726	58	127
36.01337868480726	36.09462585034014	62	127
36.106258503401364	36.17591836734694	55	127
36.17591836734694	36.25718820861678	62	127
36.25718820861678	36.33843537414966	50	127
36.35004535147392	36.41972789115646	62	127
36.431337868480725	36.51260770975057	53	127
36.51260770975057	36.59385487528345	62	127
36.60546485260771	36.66353741496599	58	127
36.67514739229025	36.75641723356009	62	127
36.75641723356009	36.849274376417235	53	127
36.849274376417235	36.930566893424036	62	127
36.9421768707483	37.02344671201814	50	127
37.035056689342404	37.11632653061225	62	127
37.11632653061225	37.847755102040814	82	127
37.11632653061225	37.847755102040814	94	127
37.11632653061225	37.20920634920635	53	127
37.22081632653061	37.302086167800454	62	127
37.313696145124716	37.39496598639456	58	127
37.39496598639456	37.4762358276644	62	127
37.4878231292517	37.5691156462585	53	127
37.580725623582765	37.66199546485261	62	127
37.66199546485261	37.74324263038549	50	127
37.754875283446715	37.83614512471655	62	127
37.847755102040814	37.917414965986396	54	127
37.847755102040814	38.881020408163266	74	127
37.847755102040814	38.881020408163266	86	127
37.917414965986396	38.0102947845805	62	127
38.0102947845805	38.09156462585034	58	127
38.1031746031746	38.184444444444445	62	127
38.19605442176871	38.27732426303855	54	127
38.27732426303855	38.37018140589569	62	127
38.381791383219955	38.451473922902494	50	127
38.463083900226756	38.5443537414966	62	127
38.5443537414966	38.614013605442175	55	127
38.62560090702948	38.70689342403628	62	127
38.71850340136054	38.788163265306125	58	127
38.788163265306125	38.86943310657596	62	127
38.881020408163266	38.96231292517007	55	127
38.881020408163266	39.055192743764174	85	127
38.881020408163266	39.055192743764174	73	127
38.97392290249433	39.055192743764174	62	127
39.055192743764174	39.24095238095238	86	127
39.055192743764174	39.13643990929705	50	127
39.055192743764174	39.24095238095238	74	127
39.14807256235828	39.22934240362812	62	127
39.24095238095238	39.333832199546485	55	127
39.24095238095238	39.6124716553288	75	127
39.24095238095238	39.6124716553288	87	127
39.34544217687075	39.42671201814059	63	127
39.42671201814059	39.50795918367347	58	127
39.51956916099773	39.600861678004534	63	127
39.6124716553288	39.78662131519275	86	127
39.6124716553288	39.69374149659864	55	127
39.6124716553288	39.78662131519275	74	127
39.69374149659864	39.77498866213152	63	127
39.78662131519275	39.97238095238095	75	127
39.78662131519275	39.86789115646258	50	127
39.78662131519275	39.97238095238095	87	127
39.879501133786846	39.97238095238095	63	127
39.97238095238095	40.053650793650796	56	127
39.97238095238095	40.33229024943311	76	127
39.97238095238095	40.33229024943311	88	127
40.06526077097506	40.14650793650794	64	127
40.158140589569165	40.239410430839	59	127
40.239410430839	40.320680272108845	64	127
40.33229024943311	40.483219954648526	75	127
40.33229024943311	40.41356009070295	56	127
40.33229024943311	40.483219954648526	87	127
40.425170068027214	40.483219954648526	64	127
40.483219954648526	40.645759637188206	88	127
40.483219954648526	40.56448979591837	50	127
40.483219954648526	40.645759637188206	76	127
40.56448979591837	40.645759637188206	64	127
40.65734693877551	41.191428571428574	91	127
40.65734693877551	40.73863945578231	63	127
40.65734693877551	41.191428571428574	79	127
40.750249433106575	40.83151927437642	69	127
40.83151927437642	40.9127664399093	65	127
40.924399092970525	41.017278911564624	69	127
41.028888888888886	41.09854875283447	63	127
41.09854875283447	41.17981859410431	69	127
41.191428571428574	41.27269841269841	57	127
41.191428571428574	41.36557823129252	75	127
41.191428571428574	41.36557823129252	87	127
41.284285714285716	41.36557823129252	69	127
41.36557823129252	41.44684807256236	60	127
41.36557823129252	42.44530612244898	77	127
41.36557823129252	42.44530612244898	89	127
41.45845804988662	41.5397052154195	69	127
41.551315192743765	41.632607709750566	65	127
41.632607709750566	41.72548752834467	69	127
41.72548752834467	41.80673469387755	60	127
41.81836734693878	41.91124716553288	69	127
41.92283446712018	42.004126984126984	57	127
42.004126984126984	42.08539682539683	69	127
42.09700680272109	42.17825396825397	62	127
42.189886621315196	42.27115646258503	69	127
42.27115646258503	42.35242630385488	65	127
42.36403628117914	42.44530612244898	69	127
42.456916099773245	42.53818594104308	62	127
42.53818594104308	42.63106575963719	69	127
42.64267573696145	42.723945578231294	57	127
42.73555555555556	42.816802721088436	69	127
42.816802721088436	42.89809523809524	63	127
42.816802721088436	43.42054421768707	81	127
42.9097052154195	42.990975056689344	69	127
43.002585034013606	43.08385487528345	65	127
43.09546485260771	43.17673469387755	69	127
43.17673469387755	43.25800453514739	63	127
43.269614512471655	43.3508843537415	69	127
43.36249433106576	43.44374149659864	57	127
43.44374149659864	43.52503401360544	69	127
43.536643990929704	43.72240362811792	46	127
43.536643990929704	44.256462585034015	91	127
43.536643990929704	44.256462585034015	79	127
43.72240362811792	43.89655328798186	53	127
43.90816326530612	44.0707029478458	58	127
44.08229024943311	44.256462585034015	63	127
44.256462585034015	45.37102040816327	77	127
44.256462585034015	45.37102040816327	89	127
44.44222222222222	44.61637188208617	53	127
44.61637188208617	44.802131519274376	58	127
44.81374149659864	44.98789115646259	62	127
44.99950113378685	45.185260770975056	46	127
45.185260770975056	45.359410430839006	57	127
45.37102040816327	45.75414965986395	87	127
45.37102040816327	45.54517006802721	63	127
45.37102040816327	45.75414965986395	75	127
45.54517006802721	45.742539682539686	67	127
45.75414965986395	46.13727891156463	74	127
45.75414965986395	46.13727891156463	86	127
45.951519274376416	46.13727891156463	65	127
45.951519274376416	46.13727891156463	58	127
46.13727891156463	46.334648526077096	84	127
46.13727891156463	46.323038548752834	57	127
46.13727891156463	46.334648526077096	72	127
46.334648526077096	46.49716553287982	82	127
46.334648526077096	46.49716553287982	70	127
46.334648526077096	46.49716553287982	65	127
46.508798185941046	47.21700680272109	86	127
46.508798185941046	46.68294784580499	48	127
46.508798185941046	47.21700680272109	74	127
46.68294784580499	46.85709750566893	55	127
46.86868480725624	47.03124716553288	58	127
47.03124716553288	47.205396825396825	64	127
47.21700680272109	47.37952380952381	41	127
47.21700680272109	48.33156462585034	72	127
47.21700680272109	48.33156462585034	84	127
47.39115646258504	47.56530612244898	48	127
47.56530612244898	47.77428571428572	53	127
47.78589569160998	47.971655328798185	57	127
47.98326530612245	48.1574149659864	60	127
48.1574149659864	48.33156462585034	69	127
48.3431746031746	48.517324263038546	65	127
48.517324263038546	48.691473922902496	60	127
48.70308390022676	48.888843537414964	57	127
48.900453514739226	49.074603174603176	53	127
49.074603174603176	49.457732426303856	65	127
49.074603174603176	49.457732426303856	77	127
49.074603174603176	49.271972789115644	48	127
49.283582766439906	49.457732426303856	41	127
49.457732426303856	50.22399092970522	77	127
49.457732426303856	50.22399092970522	89	127
49.457732426303856	49.678321995464856	44	127
49.68993197278912	49.840861678004536	51	127
49.8524716553288	50.02662131519274	56	127
50.02662131519274	50.212380952380954	61	127
50.22399092970522	51.31532879818594	87	127
50.22399092970522	51.31532879818594	75	127
50.39814058956916	50.57229024943311	51	127
50.57229024943311	50.758049886621315	56	127
50.76965986394558	50.94380952380953	60	127
50.94380952380953	51.11795918367347	44	127
51.12956916099773	51.303718820861675	55	127
51.31532879818594	51.53591836734694	61	127
51.31532879818594	51.72167800453515	85	127
51.31532879818594	51.72167800453515	73	127
51.53591836734694	51.71006802721089	65	127
51.72167800453515	52.069977324263036	84	127
51.72167800453515	52.069977324263036	72	127
51.89582766439909	52.069977324263036	56	127
51.89582766439909	52.069977324263036	63	127
52.069977324263036	52.25573696145125	55	127
52.069977324263036	52.26734693877551	70	127
52.069977324263036	52.26734693877551	82	127
52.26734693877551	52.511156462585035	68	127
52.26734693877551	52.511156462585035	80	127
52.26734693877551	52.511156462585035	63	127
52.511156462585035	53.25419501133787	84	127
52.511156462585035	53.25419501133787	72	127
52.511156462585035	52.69691609977324	46	127
52.7085260770975	52.87106575963719	53	127
52.88267573696145	53.056825396825396	56	127
53.056825396825396	53.24258503401361	62	127
53.25419501133787	53.42834467120181	39	127
53.25419501133787	54.368752834467124	70	127
53.25419501133787	54.368752834467124	82	127
53.42834467120181	53.602494331065756	46	127
53.614104308390026	53.823083900226756	51	127
53.83469387755102	54.02045351473923	55	127
54.02045351473923	54.194603174603174	58	127
54.206213151927436	54.368752834467124	67	127
54.380362811791386	54.55451247165533	63	127
54.55451247165533	54.751882086167804	58	127
54.763492063492066	54.93764172335601	55	127
54.93764172335601	55.11179138321995	51	127
55.123401360544214	55.2859410430839	46	127
55.297551020408164	55.47170068027211	39	127
56.21473922902494	57.72403628117914	70	127
56.21473922902494	56.96938775510204	48	127
56.96938775510204	57.72403628117914	50	127
57.72403628117914	58.44385487528345	51	127
57.72403628117914	58.44385487528345	72	127
58.44385487528345	59.19850340136055	74	127
58.44385487528345	59.74417233560091	56	127
58.44385487528345	59.19850340136055	59	127
59.19850340136055	59.91832199546485	60	127
59.19850340136055	59.91832199546485	72	127
59.91832199546485	60.51043083900227	71	127
59.91832199546485	60.336281179138325	55	127
59.91832199546485	60.336281179138325	62	127
60.336281179138325	61.23024943310658	43	127
60.429160997732424	61.23024943310658	50	127
60.52204081632653	61.23024943310658	62	127
60.52204081632653	61.23024943310658	59	127
60.58009070294784	61.23024943310658	67	127
60.63814058956916	61.23024943310658	71	127
60.69619047619047	61.23024943310658	74	127
61.23024943310658	63.505804988662135	64	127
61.23024943310658	61.28829931972789	36	127
61.28829931972789	63.505804988662135	48	127
61.28829931972789	63.505804988662135	67	127
61.34634920634921	63.505804988662135	55	127
61.34634920634921	63.505804988662135	72	127
61.416009070294784	63.505804988662135	60	127
61.416009070294784	63.505804988662135	76	127
63.63351473922903	63.81927437641723	55	127
63.81927437641723	64.00503401360544	60	127
64.01664399092971	64.21401360544218	64	127
64.21401360544218	64.39977324263039	67	127
64.41138321995464	64.60875283446713	67	127
64.62036281179138	64.85256235827664	72	127
64.85256235827664	65.04993197278911	76	127
65.06154195011338	65.25891156462585	79	127
65.25891156462585	65.45625850340136	79	127
65.46789115646258	65.6536507936508	84	127
65.66526077097505	65.83938775510204	88	127
65.83938775510204	66.02517006802721	91	127
66.04839002267573	66.76820861678004	96	127
66.04839002267573	66.22251700680272	51	127
66.04839002267573	66.76820861678004	84	127
66.23414965986395	66.40829931972789	58	127
66.40829931972789	66.58242630385487	63	127
66.5940589569161	66.76820861678004	68	127
66.76820861678004	67.84793650793651	94	127
66.76820861678004	67.84793650793651	82	127
66.97718820861678	67.13972789115647	58	127
67.15133786848072	67.31387755102041	63	127
67.31387755102041	67.48802721088435	67	127
67.49963718820862	67.6621768707483	51	127
67.67378684807257	67.84793650793651	65	127
67.84793650793651	68.23106575963719	80	127
67.84793650793651	68.23106575963719	92	127
67.84793650793651	68.03369614512472	68	127
68.04530612244898	68.23106575963719	72	127
68.23106575963719	68.59097505668935	79	127
68.23106575963719	68.59097505668935	91	127
68.4168253968254	68.57936507936508	63	127
68.4168253968254	68.57936507936508	70	127
68.59097505668935	68.77673469387756	62	127
68.59097505668935	68.77673469387756	77	127
68.59097505668935	68.77673469387756	89	127
68.77673469387756	68.97410430839003	75	127
68.77673469387756	68.97410430839003	87	127
68.77673469387756	68.97410430839003	70	127
68.98571428571428	69.71714285714286	91	127
68.98571428571428	69.17147392290249	53	127
68.98571428571428	69.71714285714286	79	127
69.17147392290249	69.3572335600907	60	127
69.368820861678	69.53138321995465	63	127
69.54299319727892	69.71714285714286	69	127
69.71714285714286	69.8912925170068	46	127
69.71714285714286	70.80848072562358	89	127
69.71714285714286	70.80848072562358	77	127
69.9028798185941	70.06544217687075	53	127
70.07705215419502	70.25120181405896	58	127
70.25120181405896	70.43696145124717	62	127
70.44857142857143	70.62272108843537	65	127
70.62272108843537	70.80848072562358	74	127
70.82009070294785	71.04068027210884	70	127
71.05229024943311	71.23804988662131	65	127
71.23804988662131	71.4121768707483	62	127
71.42380952380952	71.58634920634921	58	127
71.59795918367347	71.77210884353741	53	127
71.77210884353741	71.95786848072562	46	127
72.70090702947846	73.42072562358277	58	127
72.70090702947846	73.98961451247166	70	127
72.70090702947846	73.42072562358277	36	127
73.42072562358277	74.17537414965986	56	127
73.42072562358277	74.09410430839003	38	127
74.09410430839003	74.77909297052155	39	127
74.17537414965986	74.77909297052155	55	127
74.17537414965986	74.86036281179139	72	127
74.77909297052155	76.25356009070295	44	127
74.86036281179139	75.55696145124716	74	127
74.86036281179139	75.55696145124716	59	127
75.55696145124716	76.13746031746032	60	127
75.55696145124716	76.25356009070295	72	127
76.25356009070295	76.86888888888889	43	127
76.25356009070295	76.86888888888889	62	127
76.25356009070295	76.86888888888889	71	127
76.99659863945578	77.54226757369615	50	127
76.99659863945578	77.54226757369615	59	127
76.99659863945578	77.54226757369615	62	127
76.99659863945578	77.54226757369615	67	127
76.99659863945578	77.54226757369615	71	127
76.99659863945578	77.54226757369615	74	127
76.99659863945578	77.54226757369615	43	127
77.5538775510204	79.96875283446713	64	127
77.5538775510204	77.61192743764173	36	127
77.61192743764173	79.96875283446713	48	127
77.61192743764173	79.96875283446713	67	127
77.69319727891157	79.96875283446713	72	127
77.69319727891157	79.96875283446713	55	127
77.75122448979592	79.96875283446713	76	127
77.75122448979592	79.96875283446713	60	127
80.27061224489796	81.00204081632653	64	127
80.27061224489796	80.76984126984127	48	127
80.27061224489796	80.76984126984127	55	127
80.27061224489796	80.76984126984127	60	127
80.27061224489796	81.00204081632653	67	127
80.27061224489796	81.00204081632653	72	127
80.27061224489796	81.00204081632653	76	127
80.76984126984127	84.82172335600907	46	127
80.85111111111111	84.82172335600907	52	127
80.93238095238095	84.82172335600907	55	127
81.0136507936508	84.82172335600907	61	127
81.1065306122449	81.25746031746031	67	127
81.16458049886621	84.82172335600907	70	127
81.25746031746031	84.82172335600907	67	127
84.9378231292517	85.11195011337868	46	127
85.11195011337868	85.29773242630385	53	127
85.29773242630385	85.4718820861678	52	127
85.4718820861678	85.63442176870748	49	127
85.63442176870748	85.8201814058957	56	127
85.8201814058957	85.95950113378684	55	127
85.95950113378684	86.11043083900226	52	127
86.11043083900226	86.26133786848072	49	127
86.27297052154195	86.41229024943311	46	127
86.41229024943311	86.60965986394558	53	127
86.60965986394558	86.78380952380952	52	127
86.78380952380952	86.92312925170069	49	127
86.92312925170069	87.0740589569161	56	127
87.0740589569161	87.27142857142857	55	127
87.27142857142857	87.44557823129252	52	127
87.44557823129252	87.63133786848073	49	127
87.63133786848073	87.80548752834467	60	127
87.80548752834467	87.97963718820861	58	127
87.97963718820861	88.16539682539683	55	127
88.16539682539683	88.35115646258504	52	127
88.35115646258504	88.93165532879819	34	127
88.35115646258504	88.52530612244898	58	127
88.52530612244898	88.69945578231292	56	127
88.69945578231292	88.86199546485261	53	127
88.86199546485261	89.07097505668935	50	127
89.07097505668935	89.26834467120182	48	127
89.26834467120182	89.46571428571428	46	127
89.46571428571428	89.69791383219955	44	127
89.69791383219955	89.90689342403628	41	127
89.91848072562358	91.41619047619048	39	127
90.0926530612245	90.2784126984127	58	127
90.2784126984127	90.45253968253968	63	127
90.2784126984127	90.45253968253968	67	127
90.2784126984127	90.45253968253968	70	127
90.83566893424036	91.02145124716553	58	127
91.02145124716553	91.19557823129252	63	127
91.02145124716553	91.19557823129252	67	127
91.41619047619048	92.17083900226757	41	127
91.59034013605442	91.77609977324263	56	127
91.77609977324263	91.9734693877551	60	127
91.77609977324263	91.9734693877551	63	127
92.17083900226757	92.97192743764172	44	127
92.36820861678005	92.57718820861678	53	127
92.57718820861678	92.75133786848073	60	127
92.57718820861678	92.75133786848073	62	127
92.97192743764172	93.68013605442177	47	127
93.13446712018141	93.32022675736961	51	127
93.32022675736961	93.4827664399093	55	127
93.32022675736961	93.4827664399093	63	127
93.68013605442177	94.43478458049887	48	127
93.86589569160998	94.05165532879819	52	127
94.05165532879819	94.23739229024943	55	127
94.05165532879819	94.23739229024943	64	127
94.43478458049887	95.03850340136054	43	127
94.63215419501134	94.8295238095238	52	127
94.8295238095238	94.96884353741497	64	127
94.8295238095238	94.96884353741497	58	127
95.16621315192744	95.70027210884354	46	127
95.34036281179138	95.51451247165532	51	127
95.51451247165532	95.70027210884354	63	127
95.51451247165532	95.70027210884354	58	127
95.51451247165532	95.70027210884354	55	127
95.70027210884354	95.88603174603175	39	127
95.897641723356	97.36049886621315	39	127
96.07179138321996	96.2459410430839	58	127
96.2459410430839	96.42009070294785	70	127
96.2459410430839	96.42009070294785	67	127
96.2459410430839	96.42009070294785	63	127
96.80321995464853	96.98897959183674	58	127
96.98897959183674	97.16312925170068	63	127
96.98897959183674	97.16312925170068	67	127
97.36049886621315	98.11514739229025	41	127
97.54625850340136	97.74362811791383	56	127
97.74362811791383	97.92938775510204	60	127
97.74362811791383	97.92938775510204	63	127
98.11514739229025	98.86979591836734	44	127
98.32412698412699	98.49827664399093	53	127
98.49827664399093	98.67242630385488	62	127
98.49827664399093	98.67242630385488	60	127
98.86979591836734	99.60122448979592	47	127
99.05555555555556	99.25292517006802	51	127
99.25292517006802	99.41546485260771	63	127
99.25292517006802	99.41546485260771	55	127
99.60122448979592	100.26299319727892	48	127
99.78698412698412	99.97274376417234	52	127
99.97274376417234	100.10045351473923	55	127
99.97274376417234	100.10045351473923	64	127
100.26299319727892	100.99442176870748	43	127
100.46036281179138	100.65773242630385	52	127
100.65773242630385	100.79705215419501	58	127
100.65773242630385	100.79705215419501	61	127
100.65773242630385	100.79705215419501	64	127
100.99442176870748	101.52848072562358	46	127
101.16857142857143	101.34272108843537	52	127
101.34272108843537	101.52848072562358	55	127
101.34272108843537	101.52848072562358	61	127
101.34272108843537	101.52848072562358	64	127
101.52848072562358	101.7142403628118	37	127
101.7142403628118	102.4340589569161	37	127
101.9	102.07414965986395	52	127
102.07414965986395	102.24829931972789	55	127
102.07414965986395	102.24829931972789	58	127
102.07414965986395	102.24829931972789	64	127
102.4340589569161	103.93174603174603	35	127
102.63142857142857	102.81718820861678	51	127
102.81718820861678	103.00294784580498	55	127
102.81718820861678	103.00294784580498	63	127
103.38607709750566	103.56022675736962	51	127
103.56022675736962	103.73437641723356	56	127
103.56022675736962	103.73437641723356	63	127
103.93174603174603	104.68639455782314	36	127
104.10589569160997	104.30326530612246	51	127
104.30326530612246	104.48902494331065	58	127
104.30326530612246	104.48902494331065	63	127
104.68639455782314	105.3249433106576	29	127
104.68639455782314	105.3249433106576	41	127
104.87215419501133	105.06952380952382	51	127
105.06952380952382	105.25528344671201	57	127
105.06952380952382	105.25528344671201	63	127
105.44104308390023	106.00993197278912	47	127
105.44104308390023	106.00993197278912	35	127
105.6384126984127	105.8241723356009	51	127
105.8241723356009	105.99832199546485	63	127
105.8241723356009	105.99832199546485	56	127
106.00993197278912	106.17247165532879	29	127
106.00993197278912	106.17247165532879	41	127
106.18408163265306	106.74136054421768	29	127
106.18408163265306	106.74136054421768	41	127
106.36984126984127	106.53238095238095	51	127
106.53238095238095	106.67170068027211	63	127
106.53238095238095	106.67170068027211	57	127
106.86907029478458	107.3682993197279	35	127
106.86907029478458	107.3682993197279	47	127
107.03160997732427	107.21736961451248	51	127
107.21736961451248	107.35668934240363	56	127
107.21736961451248	107.35668934240363	63	127
107.3682993197279	107.5540589569161	29	127
107.3682993197279	107.5540589569161	41	127
107.5540589569161	108.3087074829932	41	127
107.5540589569161	108.3087074829932	29	127
107.7398185941043	107.93718820861677	51	127
107.93718820861677	108.11133786848073	63	127
107.93718820861677	108.11133786848073	57	127
108.3087074829932	109.02852607709751	39	127
108.3087074829932	109.02852607709751	51	127
108.49446712018141	108.66861678004535	53	127
108.66861678004535	108.85437641723357	60	127
108.66861678004535	108.85437641723357	65	127
109.02852607709751	109.74834467120182	38	127
109.02852607709751	109.74834467120182	50	127
109.21428571428571	109.3768253968254	53	127
109.3768253968254	109.55097505668934	58	127
109.3768253968254	109.55097505668934	65	127
109.74834467120182	110.52621315192744	48	127
109.74834467120182	110.52621315192744	36	127
109.93410430839002	110.11986394557823	54	127
110.11986394557823	110.30562358276644	57	127
110.11986394557823	110.30562358276644	66	127
110.52621315192744	111.28086167800454	49	127
110.52621315192744	111.28086167800454	37	127
110.7235827664399	110.90934240362812	53	127
110.90934240362812	111.08349206349206	65	127
110.90934240362812	111.08349206349206	59	127
111.28086167800454	111.87297052154194	43	127
111.28086167800454	111.87297052154194	55	127
111.46662131519274	111.67560090702948	59	127
111.67560090702948	111.86136054421769	64	127
111.67560090702948	111.86136054421769	71	127
111.87297052154194	112.05873015873016	37	127
111.87297052154194	112.05873015873016	49	127
112.05873015873016	112.80176870748299	37	127
112.05873015873016	112.80176870748299	49	127
112.24448979591837	112.44185941043084	53	127
112.44185941043084	112.62761904761905	65	127
112.44185941043084	112.62761904761905	59	127
112.80176870748299	113.28938775510204	43	127
112.80176870748299	113.28938775510204	55	127
112.95269841269841	113.1152380952381	59	127
113.1152380952381	113.27777777777777	71	127
113.1152380952381	113.27777777777777	64	127
113.28938775510204	113.4287074829932	49	127
113.28938775510204	113.4287074829932	37	127
113.4287074829932	114.17174603174603	49	127
113.4287074829932	114.17174603174603	37	127
113.60285714285715	113.78861678004534	53	127
113.78861678004534	113.97437641723356	59	127
113.78861678004534	113.97437641723356	65	127
114.17174603174603	115.64621315192744	43	127
114.17174603174603	115.64621315192744	55	127
114.35750566893424	114.54326530612245	59	127
114.54326530612245	114.71741496598639	64	127
114.54326530612245	114.71741496598639	71	127
115.07732426303855	115.27469387755102	64	127
115.07732426303855	115.27469387755102	71	127
115.27469387755102	115.44884353741497	59	127
115.64621315192744	116.377641723356	35	127
115.64621315192744	116.377641723356	47	127
115.83197278911565	116.0061224489796	63	127
116.0061224489796	116.1918820861678	66	127
116.0061224489796	116.1918820861678	75	127
116.377641723356	117.94498866213152	38	127
116.377641723356	117.94498866213152	50	127
116.55179138321995	116.73755102040816	58	127
116.73755102040816	116.92331065759637	66	127
116.73755102040816	116.92331065759637	70	127
117.30643990929705	117.50380952380952	58	127
117.50380952380952	117.68956916099773	65	127
117.50380952380952	117.68956916099773	70	127
117.94498866213152	118.69963718820861	49	127
117.94498866213152	118.69963718820861	37	127
118.13074829931973	118.31650793650793	53	127
118.31650793650793	118.49065759637188	58	127
118.31650793650793	118.49065759637188	65	127
118.69963718820861	119.33818594104308	42	127
118.69963718820861	119.33818594104308	30	127
118.8970068027211	119.10598639455782	54	127
119.10598639455782	119.2685260770975	58	127
119.10598639455782	119.2685260770975	61	127
119.10598639455782	119.2685260770975	66	127
119.46589569160997	119.61682539682539	31	127
119.46589569160997	119.61682539682539	43	127
119.61682539682539	119.8025850340136	46	127
119.8025850340136	119.98834467120182	58	127
120.3714739229025	120.56884353741496	58	127
120.3714739229025	120.56884353741496	51	127
120.56884353741496	120.95197278911564	82	127
120.56884353741496	120.75460317460318	46	127
120.95197278911564	121.14934240362811	30	127
120.95197278911564	121.14934240362811	42	127
120.95197278911564	121.53247165532879	80	127
121.14934240362811	121.3467120181406	52	127
121.3467120181406	121.53247165532879	64	127
121.3467120181406	121.53247165532879	58	127
121.53247165532879	121.72984126984127	70	127
121.74145124716553	122.36839002267574	70	127
121.92721088435374	122.11297052154195	64	127
121.92721088435374	122.11297052154195	58	127
122.11297052154195	122.2871201814059	52	127
122.50770975056689	122.68185941043085	31	127
122.50770975056689	122.68185941043085	43	127
122.68185941043085	122.89083900226757	46	127
122.89083900226757	123.07659863945578	58	127
123.45972789115646	123.64548752834467	51	127
123.45972789115646	123.64548752834467	58	127
123.64548752834467	123.83124716553289	46	127
123.64548752834467	124.01700680272108	82	127
124.01700680272108	124.58589569160998	80	127
124.01700680272108	124.24920634920635	30	127
124.01700680272108	124.24920634920635	42	127
124.24920634920635	124.41174603174603	52	127
124.41174603174603	124.58589569160998	58	127
124.41174603174603	124.58589569160998	64	127
124.58589569160998	124.76004535147392	70	127
124.76004535147392	125.3637641723356	70	127
124.92258503401361	125.10834467120182	64	127
124.92258503401361	125.10834467120182	58	127
125.10834467120182	125.29410430839002	52	127
125.4914739229025	126.09519274376417	36	127
125.4914739229025	126.09519274376417	48	127
125.66562358276644	125.85138321995466	58	127
125.85138321995466	126.0255328798186	70	127
125.85138321995466	126.0255328798186	67	127
125.85138321995466	126.0255328798186	63	127
126.22290249433107	127.52321995464852	37	127
126.22290249433107	127.52321995464852	49	127
126.40866213151928	126.60603174603175	70	127
126.40866213151928	126.60603174603175	63	127
126.40866213151928	126.60603174603175	67	127
126.60603174603175	126.78018140589569	58	127
127.17492063492064	127.33746031746031	58	127
127.33746031746031	127.52321995464852	70	127
127.33746031746031	127.52321995464852	68	127
127.33746031746031	127.52321995464852	64	127
127.70897959183674	128.35913832199546	50	127
127.70897959183674	128.35913832199546	38	127
127.9063492063492	128.09208616780046	65	127
127.9063492063492	128.09208616780046	68	127
127.9063492063492	128.09208616780046	70	127
128.09208616780046	128.26625850340136	58	127
128.49843537414966	128.68421768707483	39	127
128.68421768707483	128.86997732426303	51	127
128.86997732426303	129.05573696145126	58	127
129.05573696145126	129.26469387755103	61	127
129.26469387755103	129.43886621315193	63	127
129.4504761904762	129.6362358276644	67	127
129.6362358276644	129.82199546485262	70	127
129.82199546485262	130.0193650793651	73	127
130.0193650793651	130.20512471655329	79	127
130.20512471655329	130.40249433106575	73	127
130.40249433106575	130.58825396825398	70	127
130.58825396825398	130.78562358276645	67	127
130.78562358276645	130.97138321995465	63	127
130.97138321995465	131.1571201814059	61	127
131.1571201814059	131.34290249433107	58	127
131.34290249433107	131.51702947845806	51	127
131.51702947845806	132.26009070294785	80	127
131.51702947845806	131.7144217687075	42	127
131.51702947845806	132.26009070294785	68	127
131.7144217687075	131.88857142857142	54	127
131.9001814058957	132.0859410430839	54	127
132.0859410430839	132.26009070294785	57	127
132.26009070294785	132.60839002267574	62	127
132.26009070294785	132.60839002267574	69	127
132.26009070294785	132.60839002267574	81	127
132.60839002267574	132.9682993197279	83	127
132.60839002267574	132.9682993197279	71	127
132.9682993197279	133.69972789115647	85	127
132.9682993197279	133.14244897959185	42	127
132.9682993197279	133.69972789115647	73	127
133.14244897959185	133.31659863945578	54	127
133.31659863945578	133.502358276644	57	127
133.69972789115647	133.89709750566894	40	127
133.69972789115647	134.10607709750568	74	127
133.69972789115647	134.10607709750568	86	127
133.89709750566894	134.10607709750568	52	127
134.10607709750568	134.2802267573696	57	127
134.10607709750568	134.4775963718821	76	127
134.10607709750568	134.4775963718821	88	127
134.4775963718821	134.82589569161	89	127
134.4775963718821	134.6633560090703	39	127
134.4775963718821	134.82589569161	77	127
134.6633560090703	134.83748299319728	51	127
134.83748299319728	135.01165532879818	58	127
135.01165532879818	135.19739229024944	61	127
135.19739229024944	135.39478458049888	63	127
135.39478458049888	135.58054421768708	67	127
135.58054421768708	135.76630385487528	70	127
135.76630385487528	135.9520634920635	73	127
135.9520634920635	136.12621315192743	79	127
136.12621315192743	136.3003628117914	73	127
136.3003628117914	136.4861224489796	70	127
136.4861224489796	136.68349206349205	67	127
136.68349206349205	136.86925170068028	63	127
136.86925170068028	137.03179138321997	61	127
137.03179138321997	137.21755102040817	58	127
137.21755102040817	137.40331065759636	51	127
137.40331065759636	138.09990929705216	80	127
137.40331065759636	137.54263038548754	42	127
137.40331065759636	138.09990929705216	68	127
137.54263038548754	137.71678004535147	54	127
137.72839002267574	137.91414965986394	54	127
137.91414965986394	138.09990929705216	57	127
138.09990929705216	138.45981859410432	69	127
138.09990929705216	138.45981859410432	81	127
138.09990929705216	138.44820861678005	62	127
138.45981859410432	138.83133786848072	71	127
138.45981859410432	138.83133786848072	83	127
138.83133786848072	139.57437641723357	85	127
138.83133786848072	139.04031746031745	42	127
138.83133786848072	139.57437641723357	73	127
139.04031746031745	139.22607709750568	54	127
139.22607709750568	139.3770068027211	57	127
139.57437641723357	139.73691609977325	40	127
139.57437641723357	139.92267573696145	86	127
139.57437641723357	139.92267573696145	74	127
139.73691609977325	139.92267573696145	52	127
139.92267573696145	140.2825850340136	88	127
139.92267573696145	140.10843537414965	57	127
139.92267573696145	140.2825850340136	76	127
140.29419501133788	140.4683446712018	41	127
140.29419501133788	140.6308843537415	77	127
140.29419501133788	140.6308843537415	89	127
140.4683446712018	140.64249433106576	53	127
140.64249433106576	140.82825396825396	58	127
140.82825396825396	141.0140136054422	61	127
141.0140136054422	141.1765306122449	63	127
141.1765306122449	141.37392290249434	67	127
141.37392290249434	141.55968253968254	70	127
141.55968253968254	141.74544217687074	73	127
141.74544217687074	142.1053514739229	79	127
143.2082993197279	143.3940589569161	47	127
143.3940589569161	143.56820861678005	52	127
143.56820861678005	143.7771882086168	56	127
143.7771882086168	143.97455782312926	60	127
143.97455782312926	144.32285714285715	71	127
143.97455782312926	144.32285714285715	64	127
144.70596371882087	144.89174603174604	44	127
144.89174603174604	145.06589569160997	52	127
145.07750566893424	145.24004535147392	56	127
145.2516553287982	145.4374149659864	59	127
145.4374149659864	145.79732426303855	63	127
145.4374149659864	145.79732426303855	71	127
146.20367346938775	146.40104308390022	34	127
146.40104308390022	146.57519274376418	46	127
146.57519274376418	146.74931972789116	56	127
146.74931972789116	146.93510204081633	58	127
146.93510204081633	147.30662131519276	62	127
149.082947845805	151.7184126984127	39	127
149.082947845805	149.16421768707482	55	127
149.082947845805	151.7184126984127	27	127
149.1758276643991	149.25707482993198	63	127
149.2687074829932	149.34997732426305	58	127
149.3615873015873	149.45446712018142	63	127
149.46607709750566	149.55893424036282	55	127
149.55893424036282	149.6518367346939	63	127
149.6518367346939	149.744716553288	51	127
149.744716553288	149.82598639455782	63	127
149.82598639455782	149.8956462585034	55	127
149.8956462585034	149.9885260770975	63	127
149.9885260770975	150.0697732426304	58	127
150.0814058956916	150.16267573696146	63	127
150.16267573696146	150.23233560090702	55	127
150.2439455782313	150.31360544217688	63	127
150.32519274376418	150.3948752834467	51	127
150.40648526077098	150.4877551020408	63	127
150.49936507936508	150.5574149659864	55	127
150.56902494331067	150.6502947845805	63	127
150.66190476190476	150.73156462585035	58	127
150.73156462585035	150.81283446712018	63	127
150.81283446712018	150.90571428571428	55	127
150.90571428571428	150.99859410430838	63	127
150.99859410430838	151.07986394557824	51	127
151.07986394557824	151.1495238095238	63	127
151.16113378684807	151.24240362811793	55	127
151.25401360544217	151.33528344671203	63	127
151.34687074829932	151.41655328798186	58	127
151.42816326530613	151.4978231292517	63	127
151.50943310657595	151.57909297052154	55	127
151.5907029478458	151.69519274376418	63	127
151.7184126984127	151.79968253968255	51	127
151.81126984126985	151.91578231292516	63	127
151.91578231292516	152.1015419501134	47	127
151.91578231292516	152.1015419501134	51	127
151.91578231292516	152.0086621315193	63	127
152.0086621315193	152.1015419501134	71	127
152.1015419501134	152.28730158730158	55	127
152.1015419501134	152.19442176870749	67	127
152.19442176870749	152.28730158730158	71	127
152.29891156462585	152.438231292517	47	127
152.29891156462585	152.36857142857144	63	127
152.29891156462585	152.438231292517	51	127
152.38018140589568	152.438231292517	71	127
152.44984126984127	152.62399092970523	43	127
152.44984126984127	152.5311111111111	59	127
152.54272108843537	152.62399092970523	71	127
152.63560090702947	152.70526077097506	62	127
152.63560090702947	152.7865306122449	47	127
152.63560090702947	152.7865306122449	50	127
152.71687074829933	152.7865306122449	71	127
152.79814058956916	152.97229024943312	55	127
152.79814058956916	152.87941043083902	67	127
152.89102040816326	152.97229024943312	71	127
152.9838775510204	153.06517006802721	62	127
152.9838775510204	153.1580498866213	47	127
152.9838775510204	153.1580498866213	50	127
153.06517006802721	153.1580498866213	71	127
153.1580498866213	153.2509297052154	59	127
153.1580498866213	153.33219954648527	43	127
153.2509297052154	153.33219954648527	71	127
153.33219954648527	153.40185941043083	62	127
153.33219954648527	153.47151927437642	47	127
153.33219954648527	153.47151927437642	50	127
153.40185941043083	153.47151927437642	71	127
153.4831292517007	153.6340589569161	55	127
153.4831292517007	153.55278911564625	67	127
153.55278911564625	153.6340589569161	71	127
153.64566893424038	153.80820861678004	50	127
153.64566893424038	153.71532879818594	62	127
153.64566893424038	153.80820861678004	47	127
153.7269387755102	153.80820861678004	71	127
153.8198185941043	154.00555555555556	43	127
153.8198185941043	153.9126984126984	59	127
153.92430839002267	154.00555555555556	71	127
154.01718820861677	154.09845804988663	62	127
154.01718820861677	154.17972789115646	47	127
154.01718820861677	154.17972789115646	50	127
154.11004535147393	154.17972789115646	71	127
154.19133786848073	154.40031746031747	55	127
154.19133786848073	154.28421768707483	67	127
154.28421768707483	154.40031746031747	71	127
154.40031746031747	154.49319727891157	62	127
154.40031746031747	154.58607709750567	47	127
154.40031746031747	154.58607709750567	50	127
154.49319727891157	154.58607709750567	71	127
154.58607709750567	154.67895691609976	59	127
154.58607709750567	154.77181405895692	43	127
154.69056689342403	154.77181405895692	71	127
154.78344671201813	154.864716553288	55	127
154.78344671201813	157.337641723356	39	127
154.78344671201813	157.337641723356	27	127
154.8763038548753	154.9575963718821	63	127
154.96920634920636	155.0504761904762	58	127
155.0504761904762	155.12013605442178	63	127
155.13172335600908	155.21301587301588	55	127
155.22462585034015	155.30589569160998	63	127
155.31750566893425	155.39877551020408	51	127
155.41038548752834	155.48004535147393	63	127
155.48004535147393	155.5497052154195	55	127
155.5497052154195	155.61936507936508	63	127
155.61936507936508	155.68902494331067	58	127
155.68902494331067	155.7702947845805	63	127
155.78190476190477	155.8631746031746	55	127
155.87478458049887	155.94444444444446	63	127
155.9560544217687	156.01410430839002	51	127
156.0257142857143	156.10696145124717	63	127
156.1185941043084	156.18825396825397	55	127
156.19986394557824	156.2463038548753	63	127
156.2578911564626	156.3043537414966	58	127
156.31596371882085	156.3972335600907	63	127
156.408820861678	156.50172335600908	55	127
156.50172335600908	156.59460317460318	63	127
156.59460317460318	156.675873015873	51	127
156.675873015873	156.76873015873016	63	127
156.76873015873016	156.86163265306124	55	127
156.86163265306124	156.95451247165533	63	127
156.9661224489796	157.04739229024943	58	127
157.0590022675737	157.14027210884353	63	127
157.1518820861678	157.23315192743763	55	127
157.2447619047619	157.32603174603176	63	127
157.337641723356	157.41891156462586	51	127
157.43049886621316	157.5001814058957	63	127
157.51179138321996	157.5930612244898	63	127
157.51179138321996	157.68591836734694	51	127
157.60467120181406	157.68591836734694	71	127
157.69755102040816	157.8717006802721	55	127
157.69755102040816	157.778820861678	67	127
157.778820861678	157.8717006802721	71	127
157.8717006802721	158.0458276643991	51	127
157.8717006802721	157.95297052154194	63	127
157.95297052154194	158.0458276643991	71	127
158.0458276643991	158.13873015873017	59	127
158.0458276643991	158.23160997732427	47	127
158.15031746031747	158.23160997732427	71	127
158.24321995464854	158.32448979591837	63	127
158.24321995464854	158.40573696145125	51	127
158.32448979591837	158.40573696145125	71	127
158.41736961451247	158.59151927437642	54	127
158.41736961451247	158.49863945578232	66	127
158.51024943310657	158.59151927437642	71	127
158.6031292517007	158.74244897959184	51	127
158.6031292517007	158.68439909297052	63	127
158.6960090702948	158.74244897959184	71	127
158.7540589569161	158.89337868480726	47	127
158.7540589569161	158.81208616780046	59	127
158.82371882086167	158.89337868480726	71	127
158.89337868480726	159.06750566893425	51	127
158.89337868480726	158.98625850340136	63	127
158.98625850340136	159.06750566893425	71	127
159.06750566893425	159.13718820861678	66	127
159.06750566893425	159.23006802721088	54	127
159.13718820861678	159.23006802721088	71	127
159.24167800453515	159.3809977324263	51	127
159.24167800453515	159.29972789115646	63	127
159.31133786848073	159.3809977324263	71	127
159.39260770975056	159.53190476190477	47	127
159.39260770975056	159.4390476190476	59	127
159.45065759637188	159.53190476190477	71	127
159.54353741496598	159.62480725623584	63	127
159.54353741496598	159.71768707482994	51	127
159.63641723356008	159.71768707482994	71	127
159.7292970521542	159.89183673469387	54	127
159.7292970521542	159.81056689342404	66	127
159.8221768707483	159.89183673469387	71	127
159.90344671201814	159.99632653061224	63	127
159.90344671201814	160.0775963718821	51	127
159.99632653061224	160.0775963718821	71	127
160.0775963718821	160.25174603174602	47	127
160.0775963718821	160.15886621315192	59	127
160.15886621315192	160.25174603174602	71	127
160.25174603174602	160.43750566893425	51	127
160.25174603174602	160.43750566893425	47	127
160.25174603174602	160.34460317460318	63	127
160.34460317460318	160.43750566893425	71	127
160.44909297052155	160.51877551020408	67	127
160.44909297052155	160.61165532879818	55	127
160.53038548752835	160.61165532879818	71	127
160.62326530612245	160.70451247165533	63	127
160.62326530612245	160.78580498866214	47	127
160.62326530612245	160.78580498866214	51	127
160.71614512471655	160.78580498866214	71	127
160.7974149659864	160.92512471655328	43	127
160.7974149659864	160.86707482993197	59	127
160.86707482993197	160.92512471655328	71	127
160.93673469387755	161.01800453514738	62	127
160.93673469387755	161.11086167800454	47	127
160.93673469387755	161.11086167800454	50	127
161.02961451247165	161.11086167800454	71	127
161.12249433106575	161.19215419501134	67	127
161.12249433106575	161.26181405895693	55	127
161.19215419501134	161.26181405895693	71	127
161.26181405895693	161.35469387755103	62	127
161.26181405895693	161.43596371882086	47	127
161.26181405895693	161.43596371882086	50	127
161.35469387755103	161.43596371882086	71	127
161.43596371882086	161.6217006802721	43	127
161.43596371882086	161.52884353741496	59	127
161.54045351473923	161.6217006802721	71	127
161.63333333333333	161.795873015873	50	127
161.63333333333333	161.795873015873	47	127
161.63333333333333	161.70299319727891	62	127
161.71460317460318	161.795873015873	71	127
161.80748299319728	161.85392290249433	67	127
161.80748299319728	161.94680272108843	55	127
161.8655328798186	161.94680272108843	71	127
161.9584126984127	162.03968253968253	62	127
161.9584126984127	162.13256235827666	47	127
161.9584126984127	162.13256235827666	50	127
162.0512925170068	162.13256235827666	71	127
162.1441723356009	162.32993197278913	43	127
162.1441723356009	162.22544217687076	59	127
162.23702947845806	162.32993197278913	71	127
162.32993197278913	162.42281179138322	62	127
162.32993197278913	162.51569160997732	47	127
162.32993197278913	162.51569160997732	50	127
162.42281179138322	162.51569160997732	71	127
162.51569160997732	162.5969387755102	67	127
162.51569160997732	162.70142857142858	55	127
162.5969387755102	162.70142857142858	71	127
162.7130612244898	162.8639909297052	50	127
162.7130612244898	162.79433106575965	62	127
162.7130612244898	162.8639909297052	47	127
162.8059410430839	162.8639909297052	71	127
162.8639909297052	162.94526077097507	59	127
162.8639909297052	163.03814058956917	43	127
162.95684807256237	163.03814058956917	71	127
163.04975056689344	163.13102040816327	55	127
163.04975056689344	165.0466439909297	39	127
163.04975056689344	165.0466439909297	27	127
163.14263038548754	163.22390022675737	63	127
163.22390022675737	163.30517006802722	58	127
163.31678004535146	163.38643990929705	63	127
163.38643990929705	163.46768707482994	55	127
163.46768707482994	163.560589569161	63	127
163.560589569161	163.6534693877551	51	127
163.6534693877551	163.7463492063492	63	127
163.7463492063492	163.8392290249433	55	127
163.8392290249433	163.9321088435374	63	127
163.94371882086168	164.02496598639456	58	127
164.03659863945578	164.11786848072563	63	127
164.12945578231293	164.21074829931973	55	127
164.222358276644	164.30362811791383	63	127
164.3152380952381	164.39650793650793	51	127
164.4081179138322	164.4893650793651	63	127
164.5009977324263	164.58226757369616	55	127
164.5938775510204	164.67514739229026	63	127
164.68675736961453	164.77963718820862	58	127
164.77963718820862	164.87251700680272	63	127
164.87251700680272	164.95378684807255	55	127
164.95378684807255	165.0466439909297	63	127
165.0466439909297	165.13954648526078	51	127
165.15113378684808	165.23242630385488	63	127
165.24403628117915	165.32530612244898	55	127
165.24403628117915	165.81292517006804	34	127
165.24403628117915	165.81292517006804	46	127
165.33691609977325	165.41818594104308	63	127
165.42979591836735	165.51104308390023	58	127
165.52267573696145	165.6039455782313	63	127
165.61555555555555	165.67360544217686	55	127
165.68521541950113	165.75487528344672	63	127
165.76646258503402	165.83614512471655	51	127
165.84775510204082	165.94063492063492	63	127
165.94063492063492	166.4514739229025	39	127
165.94063492063492	166.0218820861678	55	127
165.94063492063492	166.4514739229025	27	127
166.0218820861678	166.09156462585034	63	127
166.09156462585034	166.14961451247166	58	127
166.14961451247166	166.24249433106576	63	127
166.24249433106576	166.31215419501135	55	127
166.32376417233561	166.39342403628117	63	127
166.40503401360544	166.46308390022676	51	127
166.47469387755103	166.55596371882086	63	127
166.56757369614513	166.64884353741496	55	127
166.66045351473923	166.70689342403628	63	127
166.70689342403628	166.78814058956917	58	127
166.79977324263038	166.8578231292517	63	127
166.86943310657597	167.2409523809524	46	127
166.86943310657597	166.96231292517007	55	127
166.86943310657597	167.2409523809524	34	127
166.96231292517007	167.03197278911566	63	127
167.03197278911566	167.12485260770976	51	127
167.12485260770976	167.2409523809524	63	127
167.2409523809524	167.3338321995465	55	127
167.2409523809524	167.85628117913834	27	127
167.2409523809524	167.85628117913834	39	127
167.3338321995465	167.4267120181406	63	127
167.4267120181406	167.49637188208618	58	127
167.50798185941042	167.58925170068028	63	127
167.60086167800455	167.68213151927438	55	127
167.69374149659865	167.77501133786848	63	127
167.78662131519275	167.87950113378685	51	127
167.89111111111112	167.97238095238095	63	127
167.98399092970521	168.0652380952381	55	127
168.0768707482993	168.1465306122449	63	127
168.15814058956917	168.25102040816327	58	127
168.25102040816327	168.34390022675737	63	127
168.34390022675737	168.51804988662133	46	127
168.34390022675737	168.43678004535147	55	127
168.34390022675737	168.51804988662133	34	127
168.43678004535147	168.51804988662133	63	127
168.51804988662133	170.03895691609978	51	127
168.51804988662133	170.03895691609978	27	127
168.5877097505669	170.03895691609978	55	127
168.6457596371882	170.03895691609978	58	127
168.69219954648526	170.03895691609978	63	127
168.69219954648526	170.03895691609978	39	127
174.40428571428572	175.42596371882087	39	127
174.4971882086168	175.42596371882087	48	127
174.60167800453516	175.42596371882087	51	127
174.60167800453516	175.42596371882087	55	127
174.67133786848072	175.42596371882087	60	127
174.72938775510204	175.42596371882087	63	127
174.78743764172336	175.42596371882087	67	127
175.94843537414965	176.88884353741497	39	127
176.0412925170068	176.88884353741497	46	127
176.14580498866212	176.88884353741497	55	127
176.14580498866212	176.88884353741497	51	127
176.2154648526077	176.88884353741497	61	127
176.26190476190476	176.88884353741497	65	127
176.33156462585035	176.88884353741497	67	127
177.38807256235827	178.29365079365078	39	127
177.46931972789116	178.29365079365078	48	127
177.5390022675737	178.29365079365078	51	127
177.5390022675737	178.29365079365078	55	127
177.60866213151928	178.29365079365078	60	127
177.6667120181406	178.29365079365078	63	127
177.72473922902495	178.29365079365078	67	127
178.79287981859412	179.802947845805	39	127
178.88575963718822	179.802947845805	46	127
178.99024943310658	179.802947845805	51	127
178.99024943310658	179.802947845805	55	127
179.05990929705214	179.802947845805	61	127
179.11795918367346	179.802947845805	65	127
179.18761904761905	179.802947845805	67	127
180.3021768707483	181.47478458049886	39	127
180.4298866213152	181.47478458049886	48	127
180.54598639455781	181.47478458049886	51	127
180.54598639455781	181.47478458049886	55	127
180.63884353741497	181.47478458049886	60	127
180.69691609977323	181.47478458049886	63	127
180.78979591836736	181.47478458049886	67	127
184.78360544217688	186.16521541950112	47	127
184.98099773242632	186.16521541950112	51	127
185.16675736961452	186.16521541950112	59	127
185.28285714285715	186.16521541950112	63	127
185.41056689342403	186.16521541950112	67	127
185.5150566893424	186.16521541950112	71	127
185.5150566893424	186.16521541950112	55	127
187.07079365079366	187.2449433106576	64	127
187.07079365079366	187.2449433106576	68	127
187.07079365079366	187.41909297052155	28	127
187.07079365079366	187.41909297052155	40	127
187.2449433106576	187.41909297052155	71	127
187.43070294784582	187.57002267573696	68	127
187.43070294784582	187.75578231292516	56	127
187.43070294784582	187.57002267573696	64	127
187.58163265306123	187.75578231292516	59	127
187.76739229024943	187.90671201814058	68	127
187.76739229024943	187.90671201814058	64	127
187.76739229024943	188.08086167800454	52	127
187.91832199546485	188.08086167800454	71	127
188.08086167800454	188.4059410430839	47	127
188.08086167800454	188.23179138321996	64	127
188.08086167800454	188.23179138321996	68	127
188.24340136054423	188.4059410430839	59	127
188.41755102040815	188.7774603174603	52	127
188.41755102040815	188.5917006802721	68	127
188.41755102040815	188.5917006802721	64	127
188.5917006802721	188.7774603174603	71	127
188.78907029478458	189.11414965986395	56	127
188.78907029478458	188.96321995464854	68	127
188.78907029478458	188.96321995464854	64	127
188.96321995464854	189.11414965986395	59	127
189.12573696145125	189.28829931972788	68	127
189.12573696145125	189.4740589569161	52	127
189.12573696145125	189.28829931972788	64	127
189.29990929705215	189.4740589569161	71	127
189.4740589569161	189.83396825396827	47	127
189.4740589569161	189.6598185941043	68	127
189.4740589569161	189.6598185941043	64	127
189.67142857142858	189.83396825396827	59	127
189.8455782312925	190.01972789115646	64	127
189.8455782312925	190.01972789115646	68	127
189.8455782312925	190.19387755102042	52	127
190.01972789115646	190.19387755102042	71	127
190.19387755102042	190.5421768707483	56	127
190.19387755102042	190.36802721088435	64	127
190.19387755102042	190.36802721088435	68	127
190.36802721088435	190.5421768707483	59	127
190.55378684807258	190.704716553288	63	127
190.55378684807258	190.8904761904762	52	127
190.55378684807258	190.704716553288	68	127
190.71632653061224	190.8904761904762	71	127
190.8904761904762	191.2271655328798	47	127
190.8904761904762	191.05301587301588	68	127
190.8904761904762	191.05301587301588	63	127
191.06462585034015	191.2271655328798	59	127
191.23877551020408	191.57546485260772	53	127
191.23877551020408	191.41292517006804	68	127
191.23877551020408	191.41292517006804	63	127
191.42453514739228	191.57546485260772	71	127
191.58707482993196	191.94698412698412	56	127
191.58707482993196	191.76122448979592	68	127
191.58707482993196	191.76122448979592	63	127
191.76122448979592	191.94698412698412	59	127
191.9585941043084	192.1443537414966	68	127
191.9585941043084	192.3301133786848	53	127
191.9585941043084	192.1443537414966	61	127
192.15596371882086	192.3301133786848	71	127
192.3301133786848	192.50426303854874	61	127
192.3301133786848	192.50426303854874	68	127
192.3301133786848	192.71324263038548	47	127
192.515873015873	192.71324263038548	59	127
192.71324263038548	193.04993197278912	53	127
192.71324263038548	192.8990022675737	62	127
192.71324263038548	192.8990022675737	69	127
192.91061224489795	193.04993197278912	71	127
193.06154195011337	193.42145124716552	57	127
193.06154195011337	193.23569160997732	62	127
193.06154195011337	193.23569160997732	69	127
193.23569160997732	193.42145124716552	59	127
193.4330612244898	193.59560090702948	62	127
193.4330612244898	193.59560090702948	69	127
193.4330612244898	193.78136054421768	53	127
193.60721088435375	193.78136054421768	71	127
193.78136054421768	193.95551020408163	69	127
193.78136054421768	194.14126984126983	47	127
193.78136054421768	193.95551020408163	62	127
193.9671201814059	194.14126984126983	59	127
194.14126984126983	194.3154195011338	63	127
194.14126984126983	194.3154195011338	69	127
194.14126984126983	194.47795918367348	54	127
194.32702947845806	194.47795918367348	71	127
194.47795918367348	194.8146485260771	57	127
194.47795918367348	194.6521088435374	63	127
194.47795918367348	194.6521088435374	69	127
194.6521088435374	194.8146485260771	59	127
194.82625850340136	195.20938775510203	47	127
194.82625850340136	195.02362811791383	63	127
194.82625850340136	195.02362811791383	66	127
195.0352380952381	195.20938775510203	71	127
195.2209977324263	195.39514739229026	63	127
195.2209977324263	195.604126984127	45	127
195.2209977324263	195.39514739229026	66	127
195.40675736961452	195.604126984127	59	127
195.604126984127	195.77827664399092	64	127
195.604126984127	195.95242630385488	44	127
195.7898866213152	195.95242630385488	71	127
195.96403628117915	196.2891156462585	47	127
195.96403628117915	196.1265759637188	64	127
196.1265759637188	196.2891156462585	59	127
196.30072562358276	196.47487528344672	65	127
196.30072562358276	196.66063492063492	38	127
196.47487528344672	196.66063492063492	71	127
196.6722448979592	196.8231746031746	65	127
196.6722448979592	196.99732426303854	47	127
196.8231746031746	196.99732426303854	59	127
196.99732426303854	197.33401360544218	39	127
196.99732426303854	197.1714739229025	66	127
197.18308390022676	197.33401360544218	72	127
197.34562358276645	197.51977324263038	66	127
197.34562358276645	197.69392290249434	47	127
197.51977324263038	197.69392290249434	59	127
197.7055328798186	198.077052154195	40	127
197.7055328798186	197.90290249433107	67	127
197.90290249433107	198.077052154195	73	127
198.08866213151927	198.42535147392292	47	127
198.08866213151927	198.25120181405896	68	127
198.26281179138323	198.42535147392292	59	127
198.42535147392292	198.61111111111111	64	127
198.42535147392292	198.61111111111111	69	127
198.42535147392292	198.7968707482993	41	127
198.62272108843538	198.7968707482993	71	127
198.80848072562358	199.15678004535147	47	127
198.80848072562358	198.98263038548754	69	127
198.80848072562358	198.98263038548754	64	127
198.99424036281178	199.15678004535147	59	127
199.16839002267574	199.53990929705216	42	127
199.16839002267574	199.35414965986394	63	127
199.16839002267574	199.35414965986394	69	127
199.35414965986394	199.53990929705216	71	127
199.5515192743764	199.89981859410432	35	127
199.5515192743764	199.7140589569161	63	127
199.5515192743764	199.7140589569161	69	127
199.72566893424036	199.89981859410432	59	127
199.89981859410432	200.07396825396825	68	127
199.89981859410432	200.07396825396825	64	127
199.89981859410432	200.2481179138322	47	127
200.07396825396825	200.2481179138322	71	127
200.2481179138322	200.4338775510204	64	127
200.2481179138322	200.4338775510204	68	127
200.2481179138322	200.60802721088436	49	127
200.44548752834467	200.60802721088436	59	127
200.61963718820863	200.7821768707483	67	127
200.61963718820863	200.7821768707483	63	127
200.61963718820863	201.0027664399093	51	127
200.7821768707483	201.01437641723356	71	127
201.01437641723356	201.16530612244898	63	127
201.01437641723356	201.07242630385488	39	127
201.01437641723356	201.16530612244898	67	127
201.07242630385488	201.96639455782312	44	127
201.11886621315193	201.96639455782312	51	127
201.16530612244898	201.96639455782312	60	127
201.16530612244898	201.96639455782312	56	127
201.2233560090703	201.96639455782312	63	127
201.28140589569162	201.96639455782312	68	127
201.33945578231294	201.96639455782312	72	127
204.11424036281178	205.11269841269842	44	127
204.21873015873015	205.11269841269842	53	127
204.31160997732425	205.11269841269842	56	127
204.31160997732425	205.11269841269842	60	127
204.38126984126984	205.11269841269842	65	127
204.45092970521543	205.11269841269842	68	127
204.49736961451248	205.11269841269842	72	127
205.57709750566895	206.4362358276644	44	127
205.6815873015873	206.4362358276644	51	127
205.7396371882086	206.4362358276644	56	127
205.7396371882086	206.4362358276644	60	127
205.7744671201814	206.4362358276644	66	127
205.82090702947846	206.4362358276644	70	127
205.85573696145124	206.4362358276644	72	127
206.99351473922903	207.77138321995466	60	127
206.99351473922903	207.77138321995466	44	127
207.06317460317462	207.77138321995466	65	127
207.0980045351474	207.77138321995466	53	127
207.13283446712018	207.77138321995466	68	127
207.17927437641723	207.77138321995466	72	127
207.17927437641723	207.77138321995466	56	127
208.21256235827664	209.24585034013606	44	127
208.317052154195	209.24585034013606	51	127
208.4099319727891	209.24585034013606	60	127
208.4099319727891	209.24585034013606	56	127
208.4795918367347	209.24585034013606	66	127
208.54925170068026	208.60730158730158	70	127
208.60730158730158	209.24585034013606	70	127
208.60730158730158	209.24585034013606	72	127
209.75668934240363	210.8364172335601	44	127
209.861179138322	210.8364172335601	53	127
209.9540589569161	210.8364172335601	60	127
209.9540589569161	210.8364172335601	56	127
210.03532879818593	210.8364172335601	65	127
210.10498866213152	210.8364172335601	68	127
210.16303854875284	210.8364172335601	72	127
212.43859410430838	212.63596371882088	32	127
212.63596371882088	213.88984126984127	44	127
212.75206349206348	213.88984126984127	51	127
212.84494331065758	213.88984126984127	60	127
212.84494331065758	213.88984126984127	56	127
212.98426303854876	213.88984126984127	64	127
213.10036281179137	213.88984126984127	68	127
213.22807256235828	213.88984126984127	72	127
216.37437641723355	216.5485260770975	61	127
216.37437641723355	216.5485260770975	65	127
216.37437641723355	216.74589569160997	25	127
216.37437641723355	216.74589569160997	37	127
216.56013605442178	216.74589569160997	68	127
216.74589569160997	217.09419501133786	53	127
216.74589569160997	216.92004535147393	65	127
216.74589569160997	216.92004535147393	61	127
216.93165532879817	217.09419501133786	56	127
217.10580498866213	217.46571428571428	49	127
217.10580498866213	217.2799546485261	65	127
217.10580498866213	217.2799546485261	61	127
217.2799546485261	217.46571428571428	68	127
217.47732426303855	217.8024036281179	44	127
217.47732426303855	217.63986394557824	65	127
217.47732426303855	217.63986394557824	61	127
217.65147392290248	217.8024036281179	56	127
217.8024036281179	217.9649433106576	65	127
217.8024036281179	218.12748299319728	49	127
217.8024036281179	217.9649433106576	61	127
217.9649433106576	218.12748299319728	68	127
218.12748299319728	218.30163265306123	61	127
218.12748299319728	218.30163265306123	65	127
218.12748299319728	218.48739229024943	53	127
218.31324263038547	218.48739229024943	56	127
218.4990022675737	218.6615419501134	61	127
218.4990022675737	218.83569160997732	49	127
218.4990022675737	218.6615419501134	65	127
218.6615419501134	218.83569160997732	68	127
218.8473015873016	219.19560090702947	44	127
218.8473015873016	219.02145124716554	65	127
218.8473015873016	219.02145124716554	61	127
219.02145124716554	219.19560090702947	56	127
219.20721088435374	219.5671201814059	49	127
219.20721088435374	219.36975056689343	65	127
219.20721088435374	219.36975056689343	61	127
219.3813605442177	219.5671201814059	68	127
219.5671201814059	219.74126984126985	61	127
219.5671201814059	219.99668934240364	53	127
219.5671201814059	219.74126984126985	65	127
219.7528798185941	219.99668934240364	56	127
220.00829931972788	220.35659863945577	49	127
220.00829931972788	220.18244897959184	60	127
220.00829931972788	220.18244897959184	65	127
220.18244897959184	220.35659863945577	68	127
220.36820861678004	220.71650793650792	44	127
220.36820861678004	220.542358276644	65	127
220.36820861678004	220.542358276644	60	127
220.542358276644	220.71650793650792	56	127
220.7281179138322	221.07641723356008	50	127
220.7281179138322	220.89065759637188	60	127
220.7281179138322	220.89065759637188	65	127
220.90226757369615	221.07641723356008	68	127
221.07641723356008	221.25056689342404	60	127
221.07641723356008	221.25056689342404	65	127
221.07641723356008	221.424716553288	53	127
221.2621768707483	221.424716553288	56	127
221.43632653061223	221.7962358276644	50	127
221.43632653061223	221.62208616780046	65	127
221.43632653061223	221.62208616780046	58	127
221.62208616780046	221.7962358276644	68	127
221.80784580498866	222.15614512471655	44	127
221.80784580498866	221.98199546485262	65	127
221.80784580498866	221.98199546485262	58	127
221.98199546485262	222.15614512471655	56	127
222.16775510204081	222.31868480725623	66	127
222.16775510204081	222.4928344671202	50	127
222.16775510204081	222.31868480725623	59	127
222.3302947845805	222.4928344671202	68	127
222.4928344671202	222.85274376417235	54	127
222.4928344671202	222.66698412698412	59	127
222.4928344671202	222.66698412698412	66	127
222.6785941043084	222.85274376417235	56	127
222.85274376417235	223.00367346938776	66	127
222.85274376417235	223.16621315192745	50	127
222.85274376417235	223.00367346938776	59	127
223.00367346938776	223.16621315192745	68	127
223.1778231292517	223.52612244897958	44	127
223.1778231292517	223.35197278911565	66	127
223.1778231292517	223.35197278911565	59	127
223.35197278911565	223.52612244897958	56	127
223.53773242630385	223.70027210884354	60	127
223.53773242630385	223.897641723356	51	127
223.53773242630385	223.70027210884354	66	127
223.7118820861678	223.897641723356	68	127
223.897641723356	224.07179138321996	66	127
223.897641723356	224.07179138321996	60	127
223.897641723356	224.2459410430839	54	127
224.08340136054423	224.2459410430839	56	127
224.2459410430839	224.42009070294785	63	127
224.2459410430839	224.5942403628118	44	127
224.2459410430839	224.42009070294785	60	127
224.43170068027212	224.5942403628118	68	127
224.60585034013604	224.95414965986396	42	127
224.60585034013604	224.78	60	127
224.60585034013604	224.78	63	127
224.78	224.95414965986396	56	127
224.9657596371882	225.3140589569161	41	127
224.9657596371882	225.1282993197279	61	127
225.13990929705216	225.3140589569161	68	127
225.3140589569161	225.67396825396824	44	127
225.3140589569161	225.48820861678004	61	127
225.4998185941043	225.67396825396824	56	127
225.67396825396824	226.01065759637189	35	127
225.67396825396824	225.83650793650793	62	127
225.8481179138322	226.01065759637189	68	127
226.02226757369615	226.19641723356008	62	127
226.02226757369615	226.37056689342404	44	127
226.19641723356008	226.37056689342404	56	127
226.3821768707483	226.71886621315193	36	127
226.3821768707483	226.55632653061224	63	127
226.55632653061224	226.71886621315193	69	127
226.7304761904762	226.86979591836734	63	127
226.7304761904762	227.05555555555554	44	127
226.8814058956916	227.05555555555554	56	127
227.05555555555554	227.21809523809523	64	127
227.05555555555554	227.3922448979592	37	127
227.2297052154195	227.3922448979592	70	127
227.40385487528346	227.75215419501134	44	127
227.40385487528346	227.5780045351474	65	127
227.5780045351474	227.75215419501134	56	127
227.7637641723356	227.93791383219954	66	127
227.7637641723356	228.1120634920635	38	127
227.7637641723356	227.93791383219954	61	127
227.93791383219954	228.1120634920635	68	127
228.12367346938777	228.5416326530612	44	127
228.12367346938777	228.34426303854875	61	127
228.12367346938777	228.34426303854875	66	127
228.35587301587302	228.5416326530612	56	127
228.5416326530612	228.7041723356009	60	127
228.5416326530612	228.7041723356009	66	127
228.5416326530612	228.87832199546486	39	127
228.71578231292517	228.87832199546486	68	127
228.88993197278913	229.06408163265306	60	127
228.88993197278913	229.06408163265306	66	127
228.88993197278913	229.26145124716552	44	127
229.06408163265306	229.26145124716552	56	127
229.2730612244898	229.44721088435375	61	127
229.2730612244898	229.63297052154195	46	127
229.2730612244898	229.44721088435375	65	127
229.44721088435375	229.63297052154195	68	127
229.64458049886622	229.8071201814059	65	127
229.64458049886622	229.8071201814059	61	127
229.64458049886622	230.01609977324264	44	127
229.81873015873015	230.01609977324264	56	127
230.01609977324264	230.20185941043084	63	127
230.01609977324264	230.20185941043084	66	127
230.01609977324264	230.41083900226758	48	127
230.2134693877551	230.41083900226758	68	127
230.41083900226758	230.5849886621315	63	127
230.41083900226758	230.82879818594105	44	127
230.41083900226758	230.5849886621315	66	127
230.59659863945578	230.82879818594105	56	127
230.8404081632653	231.01455782312925	59	127
230.8404081632653	231.01455782312925	66	127
230.8404081632653	232.32648526077097	49	127
231.01455782312925	231.20031746031745	68	127
231.21192743764172	231.3744671201814	66	127
231.21192743764172	231.3744671201814	59	127
231.38607709750568	231.57183673469387	56	127
231.57183673469387	231.74598639455783	59	127
231.57183673469387	231.74598639455783	65	127
231.75759637188207	231.93174603174603	68	127
231.93174603174603	232.11750566893423	65	127
231.93174603174603	232.11750566893423	59	127
232.1291156462585	232.30326530612246	56	127
232.32648526077097	233.78934240362813	44	127
232.32648526077097	232.50063492063492	59	127
232.50063492063492	232.67478458049888	65	127
232.68639455782312	232.83732426303854	59	127
232.8489342403628	233.0114739229025	53	127
233.0114739229025	233.18562358276645	59	127
233.0114739229025	233.18562358276645	63	127
233.20884353741496	233.4178231292517	66	127
233.4178231292517	233.6035827664399	59	127
233.4178231292517	233.6035827664399	63	127
233.61519274376417	233.77773242630386	54	127
233.78934240362813	233.96349206349205	63	127
233.78934240362813	233.96349206349205	59	127
233.78934240362813	234.4859410430839	42	127
233.96349206349205	234.12603174603174	68	127
234.137641723356	234.31179138321994	63	127
234.137641723356	234.31179138321994	59	127
234.31179138321994	234.47433106575963	56	127
234.4859410430839	234.64848072562359	58	127
234.4859410430839	234.64848072562359	62	127
234.4859410430839	235.08965986394557	41	127
234.66009070294785	234.83424036281178	68	127
234.83424036281178	235.02	62	127
234.83424036281178	235.02	58	127
235.03160997732425	235.19414965986394	56	127
235.2057596371882	235.3915192743764	63	127
235.2057596371882	235.3915192743764	67	127
235.2057596371882	235.56566893424036	48	127
235.3915192743764	235.56566893424036	70	127
235.57727891156463	235.75142857142856	67	127
235.57727891156463	235.75142857142856	63	127
235.57727891156463	235.94879818594103	46	127
235.75142857142856	235.94879818594103	58	127
235.9604081632653	236.30870748299319	50	127
235.9604081632653	236.122947845805	65	127
235.9604081632653	236.122947845805	68	127
236.13455782312926	236.30870748299319	70	127
236.30870748299319	236.48285714285714	68	127
236.30870748299319	236.48285714285714	65	127
236.30870748299319	236.66861678004534	46	127
236.4944671201814	236.66861678004534	58	127
236.6802267573696	237.9689342403628	51	127
236.6802267573696	236.86598639455784	61	127
236.6802267573696	236.86598639455784	68	127
236.86598639455784	237.0633560090703	70	127
237.07496598639455	237.2491156462585	68	127
237.07496598639455	237.2491156462585	61	127
237.2491156462585	237.42326530612246	58	127
237.4348752834467	237.5974149659864	67	127
237.4348752834467	237.5974149659864	61	127
237.60902494331066	237.78317460317461	70	127
237.78317460317461	237.95732426303854	67	127
237.78317460317461	237.95732426303854	61	127
237.9689342403628	238.154693877551	58	127
238.154693877551	238.34045351473924	61	127
238.154693877551	239.43179138321995	46	127
238.35206349206348	238.51460317460317	67	127
238.52621315192744	238.7003628117914	61	127
238.7003628117914	238.8861224489796	55	127
238.89773242630386	239.06027210884355	65	127
238.89773242630386	239.06027210884355	61	127
239.0718820861678	239.24603174603175	68	127
239.24603174603175	239.4201814058957	65	127
239.24603174603175	239.4201814058957	61	127
239.43179138321995	239.6291609977324	56	127
239.6291609977324	239.80331065759637	61	127
239.6291609977324	239.80331065759637	65	127
239.6291609977324	240.22126984126984	44	127
239.81492063492064	239.97746031746033	70	127
239.98907029478457	240.16321995464853	61	127
239.98907029478457	240.16321995464853	65	127
240.16321995464853	240.3257596371882	58	127
240.33736961451248	240.4882993197279	60	127
240.33736961451248	240.4882993197279	64	127
240.33736961451248	240.91786848072562	43	127
240.49990929705214	240.66244897959183	70	127
240.66244897959183	240.8365986394558	64	127
240.66244897959183	240.8365986394558	60	127
240.84820861678006	241.03396825396825	58	127
241.03396825396825	241.2081179138322	65	127
241.03396825396825	241.2081179138322	69	127
241.03396825396825	241.38226757369614	50	127
241.21972789115645	241.38226757369614	72	127
241.3938775510204	241.54480725623583	69	127
241.3938775510204	241.54480725623583	65	127
241.3938775510204	241.71895691609978	48	127
241.54480725623583	241.71895691609978	60	127
241.73056689342403	241.91632653061225	67	127
241.73056689342403	241.91632653061225	70	127
241.73056689342403	242.09047619047618	52	127
241.91632653061225	242.09047619047618	72	127
242.10208616780045	242.28784580498865	70	127
242.10208616780045	242.28784580498865	67	127
242.10208616780045	242.4968253968254	48	127
242.29945578231292	242.4968253968254	60	127
242.4968253968254	243.95968253968255	53	127
242.4968253968254	242.67097505668934	63	127
242.4968253968254	243.95968253968255	41	127
242.4968253968254	242.67097505668934	70	127
242.6825850340136	242.85673469387754	72	127
242.8683446712018	243.05410430839	70	127
242.8683446712018	243.05410430839	63	127
243.05410430839	243.2514739229025	60	127
243.26308390022675	243.4372335600907	63	127
243.26308390022675	243.4372335600907	69	127
243.4372335600907	243.61138321995466	72	127
243.6229931972789	243.7855328798186	63	127
243.6229931972789	243.7855328798186	69	127
243.79714285714286	243.95968253968255	60	127
243.95968253968255	245.43414965986395	48	127
243.95968253968255	245.43414965986395	36	127
243.95968253968255	244.13383219954648	63	127
244.14544217687074	244.3195918367347	69	127
244.33120181405894	244.51696145124717	63	127
244.51696145124717	244.71433106575964	57	127
244.7259410430839	244.90009070294784	67	127
244.7259410430839	244.90009070294784	63	127
244.90009070294784	245.0742403628118	70	127
245.08585034013606	245.24839002267575	67	127
245.08585034013606	245.24839002267575	63	127
245.26	245.43414965986395	58	127
245.43414965986395	245.6082993197279	63	127
245.43414965986395	245.6082993197279	67	127
245.43414965986395	246.13074829931972	46	127
245.43414965986395	246.13074829931972	34	127
245.6082993197279	245.78244897959183	72	127
245.78244897959183	245.9565986394558	63	127
245.78244897959183	245.9565986394558	67	127
245.96820861678003	246.11913832199548	60	127
246.13074829931972	247.59360544217688	33	127
246.13074829931972	246.30489795918368	62	127
246.13074829931972	246.30489795918368	66	127
246.13074829931972	247.59360544217688	45	127
246.30489795918368	246.50226757369614	72	127
246.5138775510204	246.65319727891156	62	127
246.5138775510204	246.65319727891156	66	127
246.66480725623583	246.83895691609976	60	127
246.83895691609976	247.00149659863945	67	127
246.83895691609976	247.00149659863945	62	127
247.01310657596372	247.2104761904762	72	127
247.2104761904762	247.38462585034014	62	127
247.2104761904762	247.38462585034014	67	127
247.40784580498865	247.57038548752834	60	127
247.59360544217688	248.3366439909297	43	127
247.59360544217688	247.7677551020408	63	127
247.59360544217688	247.7677551020408	69	127
247.7677551020408	247.96512471655328	72	127
247.97673469387755	248.13927437641723	69	127
247.97673469387755	248.13927437641723	63	127
248.1508843537415	248.3366439909297	60	127
248.3366439909297	249.79950113378686	41	127
248.3366439909297	248.53401360544217	72	127
248.53401360544217	248.70816326530613	68	127
248.70816326530613	248.89392290249432	56	127
248.89392290249432	249.06807256235828	62	127
249.06807256235828	249.2422222222222	70	127
249.2422222222222	249.42798185941044	67	127
249.42798185941044	249.60213151927437	58	127
249.60213151927437	249.79950113378686	62	127
249.79950113378686	251.15786848072563	43	127
249.79950113378686	249.96204081632652	68	127
249.96204081632652	250.13619047619048	65	127
250.13619047619048	250.32195011337868	59	127
250.32195011337868	250.49609977324263	62	127
250.49609977324263	250.83278911564625	67	127
250.65863945578232	250.84439909297052	60	127
250.84439909297052	250.98371882086167	65	127
250.84439909297052	250.98371882086167	62	127
250.98371882086167	251.14625850340136	63	127
251.15786848072563	252.5742857142857	41	127
251.15786848072563	251.33201814058958	72	127
251.33201814058958	251.5061678004535	68	127
251.5061678004535	251.6919274376417	56	127
251.6919274376417	251.86607709750567	62	127
251.86607709750567	252.02861678004535	70	127
252.02861678004535	252.2027664399093	67	127
252.2027664399093	252.3885260770975	58	127
252.3885260770975	252.5742857142857	62	127
252.5742857142857	252.71360544217688	68	127
252.5742857142857	253.955873015873	43	127
252.71360544217688	252.8877551020408	65	127
252.8877551020408	253.073514739229	59	127
253.073514739229	253.2360544217687	62	127
253.2360544217687	253.58435374149659	67	127
253.42181405895693	253.59596371882085	60	127
253.59596371882085	253.7701133786848	65	127
253.59596371882085	253.7701133786848	62	127
253.7701133786848	253.94426303854874	63	127
253.955873015873	255.4303401360544	44	127
253.955873015873	254.15324263038548	75	127
254.15324263038548	254.36222222222221	71	127
254.36222222222221	254.54798185941044	59	127
254.54798185941044	254.69891156462586	65	127
254.69891156462586	254.89628117913833	73	127
254.89628117913833	255.08204081632653	70	127
255.08204081632653	255.2445804988662	61	127
255.2445804988662	255.4303401360544	65	127
255.4303401360544	256.8119274376417	46	127
255.4303401360544	255.58126984126983	71	127
255.58126984126983	255.73219954648525	68	127
255.73219954648525	255.91795918367347	62	127
255.91795918367347	256.08049886621313	65	127
256.08049886621313	256.4520181405896	70	127
256.27784580498866	256.46362811791386	63	127
256.46362811791386	256.6377777777778	68	127
256.46362811791386	256.6377777777778	65	127
256.6377777777778	256.80031746031744	66	127
256.8119274376417	256.97446712018143	75	127
256.8119274376417	258.15868480725624	44	127
256.97446712018143	257.14861678004536	71	127
257.14861678004536	257.3227664399093	59	127
257.3227664399093	257.5085260770975	65	127
257.5085260770975	257.6710657596372	73	127
257.6710657596372	257.83360544217686	70	127
257.83360544217686	257.97292517006804	61	127
257.97292517006804	258.15868480725624	65	127
258.15868480725624	258.32120181405895	71	127
258.15868480725624	259.6215419501134	46	127
258.32120181405895	258.4953741496599	68	127
258.4953741496599	258.65791383219954	62	127
258.65791383219954	258.8320408163265	65	127
258.8320408163265	259.1803628117914	70	127
259.0178231292517	259.19197278911565	63	127
259.19197278911565	259.3893424036281	68	127
259.19197278911565	259.3893424036281	65	127
259.3893424036281	259.6099319727891	66	127
259.6215419501134	261.061179138322	29	127
259.6215419501134	261.061179138322	41	127
259.7956916099773	259.9814512471655	68	127
259.9930612244898	260.1555782312925	56	127
260.1672108843537	260.3413605442177	62	127
260.5387301587302	260.70126984126983	67	127
260.7128798185941	260.8753968253968	58	127
260.88702947845803	261.04956916099775	62	127
261.061179138322	262.4427664399093	43	127
261.061179138322	262.4427664399093	31	127
261.23532879818595	261.4094784580499	65	127
261.42108843537414	261.5720181405896	59	127
261.58360544217686	261.7577777777778	62	127
261.9087074829932	262.08285714285716	60	127
261.9087074829932	262.08285714285716	63	127
262.08285714285716	262.2570068027211	62	127
262.08285714285716	262.2570068027211	65	127
262.2570068027211	262.431156462585	67	127
262.2570068027211	262.431156462585	63	127
262.4427664399093	263.9520634920635	44	127
262.4427664399093	263.9520634920635	32	127
262.6285260770975	262.81426303854875	71	127
262.82589569160996	262.9884353741497	59	127
263.0116553287982	263.18580498866214	63	127
263.3831746031746	263.55732426303854	70	127
263.55732426303854	263.7430612244898	61	127
263.754693877551	263.94043083900226	65	127
263.9520634920635	265.3452607709751	34	127
263.9520634920635	265.3452607709751	46	127
264.12621315192746	264.3003628117914	68	127
264.31197278911566	264.46290249433105	62	127
264.4745124716553	264.6486621315193	65	127
264.82281179138323	264.9737414965986	66	127
264.82281179138323	264.9737414965986	63	127
264.9737414965986	265.1595011337869	65	127
264.9737414965986	265.1595011337869	68	127
265.1595011337869	265.32204081632653	70	127
265.1595011337869	265.32204081632653	66	127
265.3452607709751	266.7152380952381	35	127
265.3452607709751	266.7152380952381	47	127
265.519410430839	265.6819274376417	74	127
265.69356009070293	265.85609977324265	62	127
265.85609977324265	266.0186394557823	68	127
266.2043990929705	266.3785487528345	73	127
266.3785487528345	266.54108843537415	64	127
266.5526984126984	266.70360544217687	68	127
266.7152380952381	267.9226530612245	37	127
266.7152380952381	267.9226530612245	49	127
266.88938775510206	267.063537414966	71	127
267.07514739229026	267.2492970521542	65	127
267.2492970521542	267.3770068027211	68	127
267.5627664399093	267.7369160997732	69	127
267.5627664399093	267.7369160997732	66	127
267.7369160997732	267.9226530612245	68	127
267.7369160997732	267.9226530612245	71	127
267.9226530612245	268.1084353741497	69	127
267.9226530612245	268.1084353741497	73	127
268.12004535147395	268.2013151927438	62	127
268.21292517006805	268.3290249433107	69	127
268.36385487528344	268.5031746031746	66	127
268.5031746031746	268.5960544217687	69	127
268.607664399093	268.7585941043084	62	127
268.77020408163264	268.8514512471655	69	127
268.8514512471655	268.9559410430839	57	127
268.9675736961451	269.0720634920635	69	127
269.08367346938775	269.15331065759636	62	127
269.08367346938775	269.6409523809524	38	127
269.08367346938775	269.6409523809524	26	127
269.15331065759636	269.2346031746032	69	127
269.24621315192746	269.3274829931973	66	127
269.33909297052156	269.4203628117914	69	127
269.4203628117914	269.49002267573695	62	127
269.5016326530612	269.5712925170068	69	127
269.58290249433105	269.66414965986394	57	127
269.66414965986394	269.7686394557823	69	127
269.7686394557823	270.418820861678	38	127
269.7686394557823	269.84993197278914	62	127
269.7686394557823	270.418820861678	50	127
269.8731292517007	269.9660317460318	69	127
269.98925170068026	270.07049886621314	66	127
270.07049886621314	270.1749886621315	69	127
270.1866213151927	270.2678911564626	62	127
270.2794784580499	270.3607709750567	69	127
270.3607709750567	270.44204081632654	57	127
270.4536507936508	270.5581405895692	69	127
270.56975056689345	271.28956916099776	37	127
270.56975056689345	270.639410430839	62	127
270.56975056689345	271.28956916099776	49	127
270.639410430839	270.7439002267574	69	127
270.75551020408165	270.84839002267574	66	127
270.86	270.94126984126984	69	127
270.94126984126984	271.0225396825397	62	127
271.0225396825397	271.10378684807256	69	127
271.1154195011338	271.19666666666666	57	127
271.20829931972787	271.28956916099776	69	127
271.28956916099776	272.03260770975055	54	127
271.28956916099776	271.89328798185943	49	127
271.66108843537415	271.8352380952381	66	127
271.8352380952381	272.02097505668934	62	127
272.03260770975055	272.7291836734694	56	127
272.03260770975055	273.24002267573695	47	127
272.38090702947846	272.5550566893424	68	127
272.5550566893424	272.7291836734694	62	127
272.7291836734694	273.42580498866215	57	127
273.06589569160997	273.24002267573695	69	127
273.24002267573695	273.4141950113379	62	127
273.42580498866215	274.0295238095238	59	127
273.42580498866215	274.14562358276646	45	127
273.7857142857143	273.9714739229025	71	127
273.9714739229025	274.14562358276646	62	127
273.9714739229025	274.14562358276646	66	127
274.14562358276646	274.7261224489796	61	127
274.14562358276646	274.84222222222223	44	127
274.48231292517005	274.65646258503403	73	127
274.65646258503403	274.83061224489796	66	127
274.65646258503403	274.83061224489796	71	127
274.84222222222223	275.43433106575964	62	127
274.84222222222223	275.538820861678	47	127
275.19049886621315	275.3646712018141	74	127
275.3646712018141	275.538820861678	65	127
275.3646712018141	275.538820861678	68	127
275.538820861678	276.28185941043085	45	127
275.538820861678	276.1657596371882	61	127
275.8987074829932	276.09609977324266	73	127
276.09609977324266	276.2702494331066	69	127
276.09609977324266	276.2702494331066	65	127
276.28185941043085	276.92038548752834	49	127
276.28185941043085	277.66344671201813	57	127
276.68820861678006	276.8507482993197	69	127
276.862358276644	277.66344671201813	61	127
276.862358276644	277.66344671201813	66	127
277.0481179138322	277.66344671201813	42	127
277.8027664399093	278.37165532879817	38	127
277.8027664399093	277.88403628117914	62	127
277.8027664399093	278.37165532879817	26	127
277.8956462585034	277.96530612244896	69	127
277.96530612244896	278.0349659863946	66	127
278.04655328798185	278.1278458049887	69	127
278.13945578231295	278.2091156462585	62	127
278.2091156462585	278.29038548752834	69	127
278.3019954648526	278.3948752834467	57	127
278.406485260771	278.4877551020408	69	127
278.4877551020408	279.0798639455782	38	127
278.4877551020408	278.5806349206349	62	127
278.4877551020408	279.0798639455782	50	127
278.5806349206349	278.6502947845805	69	127
278.6618820861678	278.7431746031746	66	127
278.7547845804989	278.82444444444445	69	127
278.82444444444445	278.91732426303855	62	127
278.9289342403628	279.01020408163265	69	127
279.0218140589569	279.10308390022675	57	127
279.10308390022675	279.1843537414966	69	127
279.19596371882085	279.27721088435374	62	127
279.19596371882085	279.92739229024943	49	127
279.19596371882085	279.92739229024943	37	127
279.28884353741495	279.37011337868483	69	127
279.37011337868483	279.45138321995466	66	127
279.46299319727893	279.55587301587303	69	127
279.5674829931973	279.64875283446713	62	127
279.64875283446713	279.7184126984127	69	127
279.73002267573696	279.8112925170068	57	127
279.82290249433106	279.91578231292516	69	127
279.92739229024943	280.55433106575964	49	127
279.92739229024943	280.55433106575964	54	127
280.2988888888889	280.49628117913835	66	127
280.49628117913835	280.658820861678	62	127
280.6704308390023	281.23931972789114	56	127
280.6704308390023	281.93589569160997	47	127
280.99551020408165	281.18126984126985	68	127
281.18126984126985	281.3554195011338	62	127
281.36702947845805	281.99396825396826	57	127
281.73854875283445	281.93589569160997	69	127
281.93589569160997	282.09845804988663	62	127
282.1100680272109	282.69056689342403	59	127
282.1100680272109	283.5148752834467	45	127
282.45836734693876	282.63251700680274	71	127
282.63251700680274	282.7950566893424	62	127
282.63251700680274	282.7950566893424	66	127
282.8066666666667	283.3987755102041	61	127
283.1433560090703	283.3407256235828	73	127
283.3407256235828	283.50326530612244	66	127
283.3407256235828	283.50326530612244	71	127
283.5148752834467	284.07215419501136	62	127
283.5148752834467	284.1998639455782	43	127
283.8399546485261	284.01410430839	74	127
284.01410430839	284.188231292517	71	127
284.01410430839	284.188231292517	65	127
284.1998639455782	284.9196825396825	44	127
284.53655328798186	284.72231292517006	73	127
284.72231292517006	284.7919501133787	64	127
284.72231292517006	284.9196825396825	69	127
284.9196825396825	285.511768707483	65	127
284.9196825396825	285.6627210884354	37	127
285.2795918367347	285.45374149659864	77	127
285.45374149659864	285.6511111111111	71	127
285.45374149659864	285.6511111111111	74	127
285.6627210884354	286.2432199546485	82	127
285.6627210884354	286.2432199546485	70	127
285.6627210884354	286.2432199546485	73	127
285.6627210884354	286.2432199546485	78	127
285.6627210884354	286.2432199546485	42	127
286.35931972789115	286.45219954648525	61	127
286.35931972789115	287.0094784580499	42	127
286.35931972789115	287.0094784580499	30	127
286.4638095238095	286.5566893424036	70	127
286.5682993197279	286.6495691609977	66	127
286.6495691609977	286.7540589569161	70	127
286.76566893424035	286.84691609977324	61	127
286.85854875283445	286.93979591836734	70	127
286.93979591836734	287.03269841269844	58	127
287.0442857142857	287.12557823129254	70	127
287.1371882086168	287.79895691609977	54	127
287.1371882086168	287.21845804988664	61	127
287.1371882086168	287.79895691609977	42	127
287.21845804988664	287.34616780045354	70	127
287.3577551020408	287.43904761904764	66	127
287.4506349206349	287.543537414966	70	127
287.543537414966	287.6364172335601	61	127
287.6364172335601	287.7292970521542	70	127
287.7409070294785	287.8221768707483	58	127
287.8337868480726	287.9150566893424	70	127
287.9150566893424	288.0079365079365	61	127
287.9150566893424	288.4491156462585	40	127
287.9150566893424	288.4491156462585	52	127
288.0195464852608	288.1008163265306	70	127
288.1124263038549	288.1936961451247	66	127
288.1936961451247	288.2633560090703	70	127
288.2749433106576	288.3562358276644	61	127
288.3678458049887	288.4491156462585	70	127
288.4491156462585	288.6348752834467	38	127
288.4491156462585	288.53038548752835	58	127
288.5419954648526	288.62326530612245	70	127
288.6348752834467	288.80902494331065	54	127
288.6348752834467	289.56367346938777	50	127
288.80902494331065	288.98315192743763	58	127
288.9947619047619	289.15732426303856	62	127
289.16893424036283	289.3314739229025	66	127
289.3314739229025	289.4939909297052	58	127
289.5056009070295	289.65655328798186	62	127
289.66816326530613	289.8307029478458	70	127
289.66816326530613	290.0048299319728	48	127
290.01643990929705	290.190612244898	50	127
290.01643990929705	290.5853514739229	46	127
290.190612244898	290.34154195011337	55	127
290.35315192743764	290.51569160997735	58	127
290.5272789115646	290.70145124716555	62	127
290.70145124716555	291.32839002267576	44	127
290.70145124716555	290.88721088435375	54	127
290.898820861678	291.07297052154195	59	127
291.0845804988662	291.25873015873015	66	127
291.4444671201814	291.5954195011338	50	127
291.4444671201814	292.47777777777776	46	127
291.5954195011338	291.75795918367345	54	127
291.7695691609977	291.93210884353743	58	127
291.9437188208617	292.11786848072563	62	127
292.11786848072563	292.29201814058956	54	127
292.30362811791383	292.47777777777776	58	127
292.47777777777776	292.65192743764175	66	127
292.47777777777776	292.8492970521542	44	127
292.8492970521542	293.02344671201814	46	127
292.8492970521542	293.54589569161	42	127
293.02344671201814	293.18596371882086	51	127
293.19759637188207	293.3601360544218	54	127
293.37174603174606	293.54589569161	58	127
293.54589569161	293.70843537414964	50	127
293.54589569161	294.207641723356	40	127
293.7200453514739	293.87097505668936	55	127
293.87097505668936	294.0451247165533	62	127
294.207641723356	294.37020408163266	54	127
294.207641723356	294.9042630385488	38	127
294.37020408163266	294.5327437641723	58	127
294.5443537414966	294.7068934240363	62	127
294.7184807256236	294.9042630385488	66	127
294.9042630385488	295.0784126984127	58	127
294.9042630385488	295.2757823129252	50	127
295.090022675737	295.2757823129252	62	127
295.2757823129252	295.63566893424036	48	127
295.2757823129252	295.4499319727891	70	127
295.63566893424036	295.8098412698413	50	127
295.63566893424036	296.3903401360544	46	127
295.8098412698413	295.9839909297052	55	127
295.9956009070295	296.1813605442177	58	127
296.1813605442177	296.37873015873015	62	127
296.3903401360544	297.11015873015873	44	127
296.3903401360544	296.56448979591835	54	127
296.5760997732426	296.7502494331066	59	127
296.7502494331066	296.92439909297053	66	127
297.11015873015873	298.2131065759637	46	127
297.11015873015873	297.28430839002266	50	127
297.28430839002266	297.4700453514739	54	127
297.4816780045351	297.6558276643991	58	127
297.6558276643991	297.8415873015873	62	127
297.8531972789116	298.01573696145124	54	127
298.0273469387755	298.2131065759637	58	127
298.2131065759637	298.5730158730159	44	127
298.2131065759637	298.3872562358277	66	127
298.5730158730159	298.7587755102041	46	127
298.5730158730159	299.32766439909295	42	127
298.7587755102041	298.9445351473923	51	127
298.95614512471656	299.14190476190475	54	127
299.14190476190475	299.31603174603174	58	127
299.32766439909295	300.0823129251701	40	127
299.32766439909295	299.49020408163267	50	127
299.50181405895694	299.68757369614514	55	127
299.68757369614514	299.86172335600907	62	127
300.0823129251701	300.256462585034	54	127
300.0823129251701	300.7556916099773	38	127
300.26807256235827	300.3957823129252	58	127
300.40739229024945	300.5699319727891	62	127
300.5699319727891	300.7440589569161	66	127
300.7556916099773	300.918231292517	58	127
300.7556916099773	301.09238095238095	50	127
300.9298412698413	301.09238095238095	62	127
301.09238095238095	301.45229024943313	48	127
301.09238095238095	301.2665306122449	70	127
301.45229024943313	302.1604988662132	46	127
301.45229024943313	301.62643990929706	50	127
301.63804988662133	301.7889795918367	55	127
301.800589569161	301.974716553288	58	127
301.974716553288	302.1488888888889	62	127
302.1604988662132	302.3462585034014	54	127
302.1604988662132	302.81065759637187	44	127
302.35786848072564	302.5668480725624	59	127
302.5668480725624	302.7409977324263	66	127
303.00802721088434	303.76267573696146	42	127
303.00802721088434	303.2518367346939	49	127
303.26344671201815	303.5072335600907	58	127
303.5072335600907	303.7510657596372	61	127
303.76267573696146	305.30680272108845	43	127
303.76267573696146	304.006485260771	52	127
304.006485260771	304.27351473922903	61	127
304.2851247165533	304.5521541950113	64	127
304.5521541950113	304.80757369614514	50	127
304.8191836734694	305.05138321995463	59	127
305.05138321995463	305.2835827664399	62	127
305.30680272108845	305.58544217687074	42	127
305.58544217687074	305.84086167800456	38	127
305.84086167800456	306.11950113378686	40	127
306.11950113378686	307.0134693877551	42	127
307.0134693877551	307.8377777777778	61	127
307.0134693877551	307.8377777777778	58	127
307.0134693877551	307.8377777777778	49	127
307.8377777777778	308.47632653061225	62	127
307.8377777777778	308.47632653061225	50	127
307.8377777777778	308.47632653061225	59	127
309.5908843537415	309.8462811791383	49	127
309.8462811791383	310.1249433106576	58	127
310.1249433106576	310.3687528344671	61	127
310.3687528344671	310.6357823129252	58	127
310.6357823129252	310.86795918367346	49	127
310.86795918367346	311.0885714285714	57	127
311.0885714285714	311.3091609977324	61	127
311.3091609977324	311.5297505668934	70	127
311.5297505668934	312.1682993197279	73	127
312.5398185941043	312.83006802721087	61	127
312.8532879818594	313.0738775510204	69	127
313.0854875283447	313.31766439909296	73	127
313.3292970521542	313.5266439909297	69	127
313.5382766439909	313.78208616780046	61	127
313.7936961451247	314.0374829931973	69	127
314.0491156462585	314.246462585034	73	127
314.2580952380952	314.50190476190477	81	127
314.51351473922904	316.0228117913832	85	127
315.54680272108845	315.79061224489794	64	127
315.79061224489794	316.01120181405895	69	127
316.0228117913832	316.68458049886624	81	127
316.0228117913832	316.27823129251703	64	127
316.2898185941043	316.46399092970523	61	127
316.46399092970523	316.67297052154197	57	127
316.68458049886624	317.45083900226757	76	127
316.68458049886624	316.94	52	127
316.94	317.1954195011338	57	127
317.1954195011338	317.4392290249433	61	127
317.45083900226757	318.1706575963719	73	127
317.45083900226757	317.6946485260771	57	127
317.7062585034014	317.9152380952381	52	127
317.9152380952381	318.1590476190476	49	127
318.1706575963719	318.43766439909297	54	127
318.1706575963719	318.86725623582765	78	127
318.4492970521542	318.62344671201816	57	127
318.62344671201816	318.86725623582765	61	127
318.86725623582765	319.6102947845805	85	127
318.86725623582765	319.09945578231293	66	127
319.09945578231293	319.3432653061225	61	127
319.3432653061225	319.59868480725623	69	127
319.6102947845805	320.6087528344671	88	127
319.6102947845805	319.8308843537415	64	127
319.8424943310658	320.0630612244898	71	127
320.0630612244898	320.31850340136054	67	127
320.3301133786848	320.515873015873	64	127
320.5274829931973	320.69002267573694	59	127
320.6087528344671	320.9338321995465	79	127
320.69002267573694	320.9338321995465	55	127
320.94544217687076	321.2008616780045	54	127
320.94544217687076	321.6420408163265	78	127
321.2124716553288	321.39820861678004	57	127
321.39820861678004	321.6420408163265	61	127
321.6420408163265	321.89746031746034	66	127
321.6420408163265	322.45473922902494	85	127
321.9090476190476	322.17609977324264	61	127
322.17609977324264	322.44312925170067	69	127
322.45473922902494	322.6869387755102	64	127
322.45473922902494	323.5460544217687	88	127
322.6985487528345	322.93072562358276	71	127
322.93072562358276	323.1861678004535	67	127
323.1977777777778	323.45319727891155	64	127
323.45319727891155	323.67378684807255	59	127
323.5460544217687	323.92920634920637	79	127
323.67378684807255	323.9175963718821	55	127
323.92920634920637	324.93927437641725	78	127
323.92920634920637	324.17301587301586	54	127
324.1846258503401	324.44004535147394	61	127
324.44004535147394	324.68385487528343	66	127
324.6954648526077	324.927664399093	69	127
324.93927437641725	325.1830612244898	73	127
325.0437641723356	325.43850340136055	85	127
325.1830612244898	325.43850340136055	78	127
325.4501133786848	326.75043083900226	85	127
325.4501133786848	325.6707029478458	73	127
325.6823129251701	325.93773242630385	69	127
325.93773242630385	326.19315192743767	66	127
326.20473922902494	326.4253514739229	61	127
326.43696145124716	326.6807709750567	57	127
326.6807709750567	326.93619047619046	54	127
326.94780045351473	327.04068027210883	73	127
326.94780045351473	327.18	35	127
326.94780045351473	327.18	47	127
327.04068027210883	328.0391156462585	85	127
327.04068027210883	328.0391156462585	73	127
327.44702947845803	327.66761904761904	52	127
327.6792290249433	327.92303854875286	56	127
327.9346258503401	328.1320181405896	59	127
328.0391156462585	328.3642176870748	68	127
328.0391156462585	328.3642176870748	80	127
328.14360544217686	328.3642176870748	56	127
328.3758276643991	329.51360544217687	80	127
328.3758276643991	328.60802721088436	64	127
328.3758276643991	329.51360544217687	68	127
328.6196371882086	328.84022675736963	59	127
328.84022675736963	329.0492063492064	56	127
329.06079365079364	329.23496598639457	52	127
329.23496598639457	329.4555555555556	47	127
329.46716553287985	329.69936507936507	44	127
329.69936507936507	329.9431746031746	40	127
329.9547845804989	330.19859410430837	49	127
330.19859410430837	330.3843537414966	52	127
330.3959410430839	330.61655328798184	56	127
330.3959410430839	331.1273922902494	73	127
330.3959410430839	331.1273922902494	85	127
330.61655328798184	330.8603628117914	61	127
330.87197278911566	331.1157596371882	64	127
331.1273922902494	331.2667120181406	56	127
331.1273922902494	331.68467120181407	68	127
331.1273922902494	331.68467120181407	80	127
331.2667120181406	331.42925170068025	66	127
331.4408616780045	331.6730612244898	62	127
331.68467120181407	331.9284580498866	59	127
331.68467120181407	332.2767800453515	83	127
331.68467120181407	332.2767800453515	71	127
331.9400907029478	332.1722902494331	56	127
332.1722902494331	332.36965986394557	47	127
332.38126984126984	332.46253968253967	73	127
332.38126984126984	332.60185941043085	40	127
332.46253968253967	333.37972789115645	85	127
332.46253968253967	333.37972789115645	73	127
332.60185941043085	332.82244897959185	49	127
332.8340589569161	333.05462585034013	52	127
333.05462585034013	333.2752380952381	56	127
333.28684807256235	333.4842176870748	61	127
333.37972789115645	333.69319727891155	68	127
333.37972789115645	333.69319727891155	80	127
333.4842176870748	333.69319727891155	64	127
333.7048072562358	334.42462585034014	68	127
333.7048072562358	333.9370068027211	56	127
333.7048072562358	334.42462585034014	80	127
333.9370068027211	334.1575963718821	66	127
334.1692063492064	334.41301587301587	62	127
334.42462585034014	335.1560544217687	83	127
334.42462585034014	335.1560544217687	71	127
334.42462585034014	334.6568253968254	59	127
334.6684353741497	334.91224489795917	56	127
334.92385487528344	335.14444444444445	47	127
335.1560544217687	335.388253968254	40	127
335.1560544217687	335.86426303854876	73	127
335.1560544217687	335.86426303854876	85	127
335.39984126984126	335.608820861678	49	127
335.608820861678	335.8526530612245	52	127
335.86426303854876	336.11965986394557	56	127
335.86426303854876	336.59569160997734	80	127
336.11965986394557	336.3518820861678	61	127
336.36349206349206	336.59569160997734	64	127
336.59569160997734	337.37356009070294	76	127
336.59569160997734	336.8511111111111	56	127
336.86272108843536	337.1181405895692	64	127
337.1181405895692	337.36195011337867	61	127
337.37356009070294	337.6173696145125	56	127
337.37356009070294	337.9772789115646	73	127
337.6173696145125	337.8379591836735	52	127
337.84956916099776	338.081768707483	49	127
338.09337868480725	338.302358276644	40	127
338.31396825396826	338.522947845805	48	127
338.31396825396826	338.522947845805	68	127
338.53455782312926	338.6970975056689	58	127
338.53455782312926	338.6970975056689	72	127
338.7087074829932	338.9176870748299	70	127
338.7087074829932	338.9176870748299	48	127
338.9292970521542	339.12666666666667	58	127
338.9292970521542	339.12666666666667	72	127
339.12666666666667	339.3704761904762	48	127
339.12666666666667	339.3704761904762	68	127
339.3820861678005	339.63750566893424	60	127
339.3820861678005	339.63750566893424	40	127
339.63750566893424	339.8697052154195	48	127
339.63750566893424	339.8697052154195	68	127
339.8813151927438	340.1251247165533	58	127
339.8813151927438	340.1251247165533	72	127
340.1251247165533	340.35732426303855	48	127
340.1251247165533	340.35732426303855	70	127
340.3689342403628	340.61272108843536	58	127
340.3689342403628	340.61272108843536	72	127
340.61272108843536	340.85655328798185	68	127
340.61272108843536	340.85655328798185	48	127
340.85655328798185	342.8650566893424	41	127
340.85655328798185	341.03068027210884	67	127
341.04231292517005	341.2280498866213	70	127
341.04231292517005	341.2280498866213	74	127
341.2280498866213	341.4138321995465	67	127
341.4138321995465	341.58798185941043	62	127
341.5995918367347	341.7505215419501	65	127
341.76213151927436	341.93628117913835	74	127
341.76213151927436	341.93628117913835	70	127
341.9478684807256	342.1104308390023	65	127
342.12204081632655	342.30780045351474	62	127
342.319410430839	342.5051700680272	67	127
342.5051700680272	342.6909297052154	74	127
342.5051700680272	342.6909297052154	70	127
342.6909297052154	342.8534693877551	67	127
342.8650566893424	343.06244897959186	62	127
343.07403628117913	343.24820861678006	68	127
343.07403628117913	343.7009977324263	40	127
343.25981859410433	343.44557823129253	71	127
343.25981859410433	343.44557823129253	74	127
343.4571882086168	343.61972789115646	68	127
343.6313378684807	343.8170975056689	62	127
343.8170975056689	344.0028571428571	67	127
343.8170975056689	344.3627664399093	41	127
344.0028571428571	344.11895691609976	70	127
344.0028571428571	344.11895691609976	74	127
344.13056689342403	344.29308390022675	67	127
344.304693877551	344.44403628117914	62	127
344.4556462585034	345.0593650793651	40	127
344.4556462585034	344.62979591836734	68	127
344.6414058956916	344.8039229024943	71	127
344.6414058956916	344.8039229024943	74	127
344.8039229024943	344.9897052154195	68	127
344.9897052154195	345.1754648526077	62	127
345.187074829932	345.7675736961451	41	127
345.187074829932	345.34961451247165	67	127
345.3612244897959	345.51215419501136	70	127
345.3612244897959	345.51215419501136	74	127
345.52374149659863	345.69791383219956	67	127
345.70952380952383	345.88367346938776	62	127
345.895283446712	346.4990022675737	34	127
345.895283446712	346.06943310657596	65	127
346.06943310657596	346.25519274376416	70	127
346.06943310657596	346.25519274376416	74	127
346.25519274376416	346.42934240362814	65	127
346.4409297052154	346.61510204081634	62	127
346.6267120181406	346.80086167800454	59	127
346.6267120181406	347.2536507936508	38	127
346.8124716553288	346.98662131519274	67	127
346.998231292517	347.17238095238093	59	127
347.1839909297052	347.3581405895692	55	127
347.3581405895692	347.9154195011338	34	127
347.3581405895692	347.5322902494331	62	127
347.5322902494331	347.6948299319728	68	127
347.70643990929705	347.8573696145125	62	127
347.86897959183676	348.0315192743764	56	127
348.0431292517007	348.20566893424035	59	127
348.0431292517007	348.6700680272109	38	127
348.2172789115646	348.4146485260771	67	127
348.4146485260771	348.61201814058956	59	127
348.61201814058956	348.78616780045354	55	127
348.7977551020408	349.3666666666667	34	127
348.7977551020408	348.96031746031747	62	127
348.97192743764174	349.1344671201814	68	127
349.14607709750567	349.2970068027211	62	127
349.3085941043084	349.4595464852608	56	127
349.47115646258504	350.2141950113379	38	127
349.47115646258504	349.65691609977324	59	127
349.65691609977324	349.83106575963717	67	127
349.83106575963717	350.00521541950116	59	127
350.0168253968254	350.2025850340136	55	127
350.2141950113379	350.91079365079366	50	127
350.2141950113379	350.37673469387755	58	127
350.3883446712018	350.53925170068027	67	127
350.5508843537415	350.72503401360547	58	127
350.73662131519274	350.91079365079366	55	127
350.91079365079366	351.0849433106576	61	127
350.91079365079366	351.0849433106576	63	127
350.91079365079366	351.630612244898	46	127
351.0849433106576	351.2707029478458	67	127
351.2707029478458	351.45643990929705	61	127
351.2707029478458	351.45643990929705	63	127
351.45643990929705	351.630612244898	55	127
351.630612244898	352.36204081632656	39	127
351.630612244898	351.8047619047619	61	127
351.630612244898	351.8047619047619	65	127
351.8047619047619	351.9905215419501	68	127
351.9905215419501	352.18789115646257	61	127
351.9905215419501	352.18789115646257	65	127
352.18789115646257	352.3504308390023	56	127
352.36204081632656	352.51297052154194	63	127
352.36204081632656	353.000589569161	46	127
352.36204081632656	352.51297052154194	61	127
352.5245804988662	352.6639002267574	67	127
352.6639002267574	352.8148299319728	63	127
352.6639002267574	352.8148299319728	61	127
352.82643990929705	352.98895691609977	55	127
353.000589569161	355.62444444444446	39	127
353.000589569161	353.1631292517007	65	127
353.000589569161	353.1631292517007	61	127
353.17473922902496	353.3372789115646	68	127
353.3488888888889	353.48820861678007	61	127
353.3488888888889	353.48820861678007	65	127
353.49979591836734	353.67396825396827	56	127
353.67396825396827	353.8016553287982	66	127
353.67396825396827	353.8016553287982	63	127
353.67396825396827	355.62444444444446	27	127
353.81326530612245	353.99904761904764	71	127
354.0106349206349	354.1615873015873	63	127
354.0106349206349	354.1615873015873	66	127
354.1731972789116	354.33573696145123	59	127
354.3473469387755	354.5214739229025	59	127
354.3473469387755	354.5214739229025	63	127
354.5214739229025	354.62596371882086	66	127
354.62596371882086	354.81174603174605	59	127
354.62596371882086	354.81174603174605	63	127
354.81174603174605	355.0091156462585	54	127
355.0091156462585	355.18326530612245	63	127
355.0091156462585	355.18326530612245	61	127
355.18326530612245	355.36902494331065	67	127
355.36902494331065	355.5663945578231	61	127
355.36902494331065	355.5663945578231	64	127
355.5663945578231	355.7057142857143	55	127
355.71732426303856	355.8914739229025	61	127
355.71732426303856	355.8914739229025	65	127
355.71732426303856	356.2978231292517	39	127
355.90308390022676	356.04240362811794	68	127
356.0539909297052	356.22816326530614	65	127
356.0539909297052	356.22816326530614	61	127
356.2397732426304	356.40231292517007	56	127
356.41392290249433	356.58807256235826	63	127
356.41392290249433	356.58807256235826	66	127
356.41392290249433	358.3760090702948	39	127
356.41392290249433	358.3760090702948	27	127
356.58807256235826	356.76222222222225	71	127
356.7738095238095	356.94798185941045	66	127
356.7738095238095	356.94798185941045	63	127
356.9595918367347	357.13374149659865	59	127
357.1453514739229	357.3078911564626	59	127
357.1453514739229	357.3078911564626	63	127
357.3078911564626	357.4704308390023	66	127
357.48201814058956	357.6561904761905	63	127
357.48201814058956	357.6561904761905	59	127
357.66780045351476	357.8419501133787	54	127
357.85356009070296	358.0160997732426	63	127
357.85356009070296	358.0160997732426	61	127
358.0160997732426	358.20183673469387	67	127
358.20183673469387	358.3295691609977	61	127
358.20183673469387	358.3295691609977	64	127
358.3295691609977	358.49210884353744	55	127
358.49210884353744	358.66625850340137	65	127
358.49210884353744	359.16548752834467	39	127
358.49210884353744	359.16548752834467	51	127
358.49210884353744	358.66625850340137	61	127
358.66625850340137	358.828798185941	68	127
358.828798185941	358.9797278911565	61	127
358.828798185941	358.9797278911565	65	127
358.9797278911565	359.1538775510204	56	127
359.16548752834467	359.76920634920634	39	127
359.16548752834467	359.3396371882086	57	127
359.16548752834467	359.76920634920634	51	127
359.35124716553287	359.52539682539685	66	127
359.5369841269841	359.71115646258505	57	127
359.71115646258505	359.885306122449	54	127
359.885306122449	360.43097505668936	39	127
359.885306122449	360.0130158730159	65	127
359.885306122449	360.0130158730159	60	127
360.02462585034016	360.1871655328798	69	127
360.1987755102041	360.36131519274375	60	127
360.1987755102041	360.36131519274375	65	127
360.36131519274375	360.547074829932	57	127
360.547074829932	360.70961451247166	57	127
360.547074829932	361.1507936507937	51	127
360.72122448979593	360.8837641723356	66	127
360.89537414965986	361.08113378684806	57	127
361.08113378684806	361.2668707482993	54	127
361.2668707482993	361.870612244898	39	127
361.2668707482993	361.44104308390024	60	127
361.2668707482993	361.44104308390024	65	127
361.4526530612245	361.62680272108844	69	127
361.6384126984127	361.80095238095237	65	127
361.6384126984127	361.80095238095237	60	127
361.80095238095237	361.9866893424036	57	127
361.9866893424036	362.1492517006803	66	127
361.9866893424036	362.56721088435376	38	127
362.16086167800455	362.3350113378685	71	127
362.34662131519275	362.4975283446712	66	127
362.5091609977324	362.66009070294785	59	127
362.66009070294785	362.8342403628118	59	127
362.66009070294785	363.240589569161	50	127
362.84585034013605	363.02	66	127
363.02	363.1825396825397	59	127
363.19414965986397	363.3566893424036	54	127
363.3566893424036	363.9604081632653	51	127
363.3566893424036	363.53083900226756	57	127
363.5424489795918	363.7165986394558	66	127
363.7281859410431	363.87913832199547	57	127
363.89074829931974	364.07650793650794	54	127
364.07650793650794	364.6337868480726	39	127
364.07650793650794	364.2274376417234	60	127
364.07650793650794	364.2274376417234	65	127
364.23902494331065	364.38997732426304	69	127
364.4015873015873	364.564126984127	65	127
364.4015873015873	364.564126984127	60	127
364.57573696145124	364.73827664399096	57	127
364.73827664399096	364.9008163265306	66	127
364.73827664399096	365.3187755102041	38	127
364.9124263038549	365.0633560090703	71	127
365.07496598639455	365.24911564625853	66	127
365.2607029478458	365.42326530612246	59	127
365.42326530612246	366.01537414965986	38	127
365.42326530612246	366.01537414965986	50	127
365.42326530612246	365.5858049886621	59	127
365.5974149659864	365.7599546485261	66	127
365.7715419501134	365.9457142857143	59	127
365.9573242630386	366.11986394557823	54	127
366.11986394557823	366.6655328798186	39	127
366.11986394557823	366.24757369614514	57	127
366.11986394557823	366.6655328798186	51	127
366.2591836734694	366.43333333333334	66	127
366.4449433106576	366.595873015873	57	127
366.60748299319727	366.78163265306125	54	127
366.78163265306125	366.96739229024945	60	127
366.78163265306125	366.96739229024945	65	127
366.78163265306125	367.3853514739229	27	127
366.78163265306125	367.3853514739229	39	127
366.96739229024945	367.1299319727891	69	127
367.1415419501134	367.3156916099773	65	127
367.1415419501134	367.3156916099773	60	127
367.3273015873016	367.4898412698413	57	127
367.4898412698413	368.0819501133787	26	127
367.4898412698413	368.0819501133787	38	127
367.4898412698413	367.6756009070295	66	127
367.6756009070295	367.83814058956915	71	127
367.8497505668934	368.01226757369614	66	127
368.0238775510204	368.19804988662133	59	127
368.19804988662133	368.360589569161	59	127
368.19804988662133	368.77854875283447	50	127
368.19804988662133	368.77854875283447	38	127
368.37219954648526	368.5463492063492	67	127
368.55795918367346	368.7204988662132	59	127
368.7204988662132	368.88303854875284	55	127
368.8946485260771	369.45190476190476	27	127
368.8946485260771	369.0339455782313	67	127
368.8946485260771	369.45190476190476	39	127
369.0339455782313	369.19650793650794	72	127
369.2081179138322	369.38226757369614	67	127
369.38226757369614	369.5563945578231	60	127
369.56802721088434	370.171746031746	39	127
369.56802721088434	370.171746031746	51	127
369.56802721088434	369.7421768707483	60	127
369.7537641723356	369.91632653061225	68	127
369.9279365079365	370.10208616780045	60	127
370.1136961451247	370.28784580498865	56	127
370.28784580498865	370.46199546485263	68	127
370.28784580498865	370.86834467120184	28	127
370.28784580498865	370.86834467120184	40	127
370.46199546485263	370.63614512471656	73	127
370.63614512471656	370.78707482993195	68	127
370.7986848072562	370.9844217687075	61	127
370.9960544217687	371.58816326530615	52	127
370.9960544217687	371.1585941043084	61	127
370.9960544217687	371.58816326530615	40	127
371.1702040816327	371.3443537414966	69	127
371.3559637188209	371.5301133786848	61	127
371.5301133786848	371.72748299319727	57	127
371.73909297052154	372.110589569161	61	127
371.73909297052154	372.110589569161	67	127
371.73909297052154	372.110589569161	70	127
371.73909297052154	372.110589569161	39	127
371.73909297052154	372.110589569161	51	127
371.73909297052154	372.110589569161	58	127
374.81573696145125	375.0595464852608	53	127
374.81573696145125	374.9318367346939	57	127
374.9318367346939	375.0595464852608	60	127
374.9318367346939	375.0595464852608	69	127
374.9318367346939	375.0595464852608	65	127
375.07113378684807	375.1988662131519	60	127
375.07113378684807	375.34979591836736	51	127
375.2104761904762	375.34979591836736	65	127
375.2104761904762	375.34979591836736	72	127
375.2104761904762	375.34979591836736	69	127
375.34979591836736	375.512335600907	65	127
375.34979591836736	375.66326530612247	48	127
375.5239455782313	375.66326530612247	69	127
375.5239455782313	375.66326530612247	72	127
375.5239455782313	375.66326530612247	77	127
375.66326530612247	375.8025850340136	69	127
375.66326530612247	375.9651247165533	45	127
375.81419501133786	375.9651247165533	77	127
375.81419501133786	375.9651247165533	81	127
375.81419501133786	375.9651247165533	72	127
375.9651247165533	376.2553741496599	41	127
375.9651247165533	376.13927437641723	72	127
376.1508843537415	376.2553741496599	81	127
376.1508843537415	376.2553741496599	77	127
376.1508843537415	376.2553741496599	84	127
376.26698412698414	376.6036507936508	73	127
376.26698412698414	376.6036507936508	79	127
376.26698412698414	376.6036507936508	82	127
376.26698412698414	376.6036507936508	85	127
376.26698412698414	376.6036507936508	39	127
376.615283446712	376.98680272108845	61	127
376.615283446712	376.98680272108845	39	127
376.615283446712	376.98680272108845	27	127
376.615283446712	376.98680272108845	73	127
376.615283446712	376.98680272108845	70	127
377.35832199546485	377.6950113378685	73	127
377.35832199546485	377.6950113378685	70	127
377.35832199546485	377.6950113378685	61	127
377.35832199546485	377.6950113378685	58	127
377.6950113378685	378.0432879818594	60	127
377.6950113378685	378.0432879818594	72	127
377.6950113378685	378.0432879818594	57	127
377.6950113378685	378.0432879818594	69	127
378.0432879818594	378.20585034013607	57	127
378.0432879818594	378.20585034013607	65	127
378.21746031746034	378.38	53	127
378.21746031746034	378.38	77	127
378.21746031746034	378.38	69	127
378.21746031746034	378.38	72	127
378.39160997732426	378.5657596371882	69	127
378.39160997732426	378.5657596371882	51	127
378.5657596371882	378.7399092970522	81	127
378.5657596371882	378.7399092970522	72	127
378.5657596371882	378.7399092970522	77	127
378.5657596371882	378.7399092970522	48	127
378.75149659863945	378.9140589569161	72	127
378.75149659863945	378.9140589569161	45	127
378.9256689342404	379.0998185941043	77	127
378.9256689342404	379.0998185941043	84	127
378.9256689342404	379.0998185941043	41	127
378.9256689342404	379.0998185941043	81	127
379.0998185941043	379.43650793650795	73	127
379.0998185941043	379.43650793650795	82	127
379.0998185941043	379.43650793650795	85	127
379.0998185941043	379.43650793650795	39	127
379.0998185941043	379.43650793650795	79	127
379.43650793650795	379.7383673469388	61	127
379.43650793650795	379.7383673469388	70	127
379.43650793650795	379.7383673469388	73	127
379.43650793650795	379.7383673469388	27	127
379.43650793650795	379.7383673469388	39	127
379.74997732426306	380.0518367346939	69	127
379.74997732426306	380.0518367346939	72	127
379.74997732426306	380.0518367346939	57	127
379.74997732426306	380.0518367346939	60	127
380.06344671201816	380.4581859410431	27	127
380.06344671201816	380.4581859410431	51	127
380.06344671201816	380.4581859410431	39	127
380.80648526077096	381.15478458049887	70	127
380.80648526077096	381.15478458049887	73	127
380.80648526077096	381.15478458049887	58	127
380.80648526077096	381.15478458049887	61	127
381.16639455782314	381.52630385487527	69	127
381.16639455782314	381.52630385487527	72	127
381.16639455782314	381.52630385487527	57	127
381.16639455782314	381.52630385487527	60	127
381.53791383219954	382.07197278911565	51	127
381.53791383219954	382.07197278911565	27	127
381.53791383219954	382.07197278911565	39	127
382.4318820861678	382.84984126984125	61	127
382.4318820861678	382.84984126984125	73	127
382.4318820861678	382.84984126984125	70	127
382.4318820861678	382.84984126984125	58	127
382.8730612244898	383.32585034013607	74	127
382.8730612244898	383.32585034013607	26	127
382.8730612244898	383.32585034013607	62	127
382.8730612244898	383.32585034013607	67	127
382.8730612244898	383.32585034013607	70	127
382.8730612244898	383.32585034013607	38	127
383.33746031746034	383.4419501133787	70	127
383.33746031746034	383.5348299319728	46	127
383.4535600907029	383.5348299319728	74	127
383.5348299319728	383.61609977324264	67	127
383.5348299319728	383.70897959183674	43	127
383.6277097505669	383.70897959183674	74	127
383.720589569161	383.80185941043084	69	127
383.720589569161	383.8715192743764	45	127
383.80185941043084	383.8715192743764	74	127
383.88312925170067	383.9643990929705	72	127
383.88312925170067	384.0456689342404	48	127
383.97600907029477	384.0456689342404	74	127
384.0456689342404	384.1269387755102	69	127
384.0456689342404	384.2198185941043	45	127
384.1385487528345	384.2198185941043	74	127
384.2314285714286	384.4055782312925	38	127
384.2314285714286	384.3126984126984	62	127
384.3126984126984	384.4055782312925	74	127
384.4171882086168	384.5913378684807	45	127
384.4171882086168	384.4984580498866	69	127
384.5100680272109	384.5913378684807	74	127
384.602947845805	384.7654875283447	48	127
384.602947845805	384.6842176870748	72	127
384.6842176870748	384.7654875283447	74	127
384.77709750566896	384.92802721088435	45	127
384.77709750566896	384.83514739229025	69	127
384.8467573696145	384.92802721088435	74	127
384.92802721088435	385.090566893424	38	127
384.92802721088435	385.0092970521542	62	127
385.02090702947845	385.090566893424	74	127
385.1021768707483	385.18344671201817	69	127
385.1021768707483	385.264716553288	43	127
385.18344671201817	385.264716553288	74	127
385.27632653061227	385.4504761904762	46	127
385.27632653061227	385.3575963718821	72	127
385.36920634920637	385.4504761904762	74	127
385.4504761904762	385.531746031746	69	127
385.4504761904762	385.6246258503401	43	127
385.5433560090703	385.6246258503401	74	127
385.6362358276644	385.7175056689342	62	127
385.6362358276644	385.8103854875283	38	127
385.7175056689342	385.8103854875283	74	127
385.8103854875283	385.86843537414967	67	127
385.8103854875283	385.93809523809523	43	127
385.86843537414967	385.93809523809523	74	127
385.9497052154195	386.11224489795916	45	127
385.9497052154195	386.03097505668933	69	127
386.03097505668933	386.11224489795916	74	127
386.11224489795916	386.28639455782314	43	127
386.11224489795916	386.19351473922904	67	127
386.2051247165533	386.28639455782314	74	127
386.28639455782314	386.367664399093	62	127
386.28639455782314	386.43732426303853	38	127
386.37927437641724	386.43732426303853	74	127
386.4489342403628	386.53020408163263	65	127
386.4489342403628	386.5766439909297	41	127
386.53020408163263	386.5766439909297	74	127
386.588253968254	386.7624036281179	45	127
386.588253968254	386.6695238095238	69	127
386.6811337868481	386.7624036281179	74	127
386.7624036281179	386.93655328798184	41	127
386.7624036281179	386.855283446712	65	127
386.855283446712	386.93655328798184	74	127
386.9481632653061	387.1223129251701	38	127
386.9481632653061	387.02943310657594	62	127
387.0410430839002	387.1223129251701	74	127
387.1223129251701	387.296462585034	41	127
387.1223129251701	387.2035827664399	65	127
387.2151927437642	387.296462585034	74	127
387.3080725623583	387.4009523809524	69	127
387.3080725623583	387.4822222222222	45	127
387.4009523809524	387.4822222222222	74	127
387.4938321995465	387.6679818594104	41	127
387.4938321995465	387.5751020408163	65	127
387.5867120181406	387.6679818594104	74	127
387.6679818594104	387.74925170068025	62	127
387.6679818594104	387.8421315192744	38	127
387.7608616780045	387.8421315192744	74	127
387.8537414965986	388.01628117913833	39	127
387.8537414965986	387.9350113378685	63	127
387.9350113378685	388.01628117913833	74	127
388.0278911564626	388.20204081632653	43	127
388.0278911564626	388.10916099773243	67	127
388.1207709750567	388.20204081632653	74	127
388.2136507936508	388.37619047619046	39	127
388.2136507936508	388.29492063492063	63	127
388.29492063492063	388.37619047619046	74	127
388.3878004535147	388.55034013605444	38	127
388.3878004535147	388.45746031746035	62	127
388.46907029478456	388.55034013605444	74	127
388.55034013605444	388.7244897959184	40	127
388.55034013605444	388.6316099773243	64	127
388.64321995464854	388.7244897959184	74	127
388.73609977324264	388.8986394557823	43	127
388.73609977324264	388.8173696145125	67	127
388.8173696145125	388.8986394557823	74	127
388.91024943310657	388.9915192743764	64	127
388.91024943310657	389.061179138322	40	127
388.9915192743764	389.061179138322	74	127
389.061179138322	389.2237188208617	38	127
389.061179138322	389.1308390022676	62	127
389.14244897959185	389.2237188208617	74	127
389.23532879818595	389.3978684807256	41	127
389.23532879818595	389.3165986394558	65	127
389.3165986394558	389.3978684807256	74	127
389.3978684807256	389.4791383219955	68	127
389.3978684807256	389.5720181405896	44	127
389.4907482993197	389.5720181405896	74	127
389.5836281179138	389.6648979591837	65	127
389.5836281179138	389.7577777777778	41	127
389.6648979591837	389.7577777777778	74	127
389.76938775510206	389.943537414966	38	127
389.76938775510206	389.8506575963719	62	127
389.86226757369616	389.943537414966	74	127
389.943537414966	390.0248072562358	66	127
389.943537414966	390.1176870748299	42	127
390.0364172335601	390.1176870748299	74	127
390.1292970521542	390.210566893424	69	127
390.1292970521542	390.2918367346939	45	127
390.210566893424	390.2918367346939	74	127
390.3034467120181	390.384716553288	66	127
390.3034467120181	390.46598639455783	42	127
390.39632653061227	390.46598639455783	74	127
390.46598639455783	390.6169160997732	38	127
390.46598639455783	390.54725623582766	62	127
390.54725623582766	390.6169160997732	74	127
390.6285260770975	390.7097959183673	67	127
390.6285260770975	390.7910657596372	43	127
390.7214058956916	390.7910657596372	74	127
390.7910657596372	390.87233560090704	70	127
390.7910657596372	390.96521541950113	46	127
390.8839455782313	390.96521541950113	74	127
390.9768253968254	391.15097505668933	43	127
390.9768253968254	391.05809523809523	67	127
391.05809523809523	391.15097505668933	74	127
391.1625850340136	391.24385487528343	62	127
391.1625850340136	391.33673469387753	38	127
391.2554648526077	391.33673469387753	74	127
391.33673469387753	391.40639455782315	68	127
391.33673469387753	391.49927437641725	44	127
391.4180045351474	391.49927437641725	74	127
391.5108843537415	391.6734240362812	47	127
391.5108843537415	391.59215419501135	71	127
391.59215419501135	391.6734240362812	74	127
391.68503401360545	391.7663038548753	68	127
391.68503401360545	391.8591836734694	44	127
391.77791383219954	391.8591836734694	74	127
391.87079365079364	391.9520634920635	62	127
391.87079365079364	392.03333333333336	38	127
391.9520634920635	392.03333333333336	74	127
392.0449433106576	392.12621315192746	69	127
392.0449433106576	392.2074829931973	45	127
392.13782312925173	392.2074829931973	74	127
392.2074829931973	392.2887528344671	72	127
392.2074829931973	392.3816326530612	48	127
392.3003628117914	392.3816326530612	74	127
392.3932426303855	392.4745124716553	69	127
392.3932426303855	392.55578231292515	45	127
392.4745124716553	392.55578231292515	74	127
392.5673922902494	392.7415419501134	38	127
392.5673922902494	392.6486621315193	62	127
392.6602721088435	392.7415419501134	74	127
392.7415419501134	392.9273015873016	45	127
392.7415419501134	392.82281179138323	69	127
392.8344217687075	392.9273015873016	74	127
392.93891156462587	393.1130612244898	48	127
392.93891156462587	393.0201814058957	72	127
393.0201814058957	393.1130612244898	74	127
393.1130612244898	393.2872108843537	45	127
393.1130612244898	393.1943310657596	69	127
393.2059410430839	393.2872108843537	74	127
393.298820861678	393.36848072562356	62	127
393.298820861678	393.44975056689344	38	127
393.36848072562356	393.44975056689344	74	127
393.4613605442177	393.62390022675737	45	127
393.4613605442177	393.54263038548754	69	127
393.5542403628118	393.62390022675737	74	127
393.62390022675737	393.69356009070293	72	127
393.62390022675737	393.78643990929703	48	127
393.7051700680272	393.78643990929703	74	127
393.7980498866213	393.960589569161	45	127
393.7980498866213	393.87931972789113	69	127
393.87931972789113	393.960589569161	74	127
393.9721995464853	394.0534693877551	62	127
393.9721995464853	394.1463492063492	38	127
394.0650793650794	394.1463492063492	74	127
394.1463492063492	394.2392290249433	65	127
394.1463492063492	394.32049886621314	41	127
394.1463492063492	394.32049886621314	46	127
394.2392290249433	394.32049886621314	74	127
394.3321088435374	394.50625850340134	50	127
394.3321088435374	394.41337868480724	70	127
394.4249886621315	394.50625850340134	74	127
394.50625850340134	394.6804081632653	41	127
394.50625850340134	394.5875283446712	65	127
394.50625850340134	394.6804081632653	46	127
394.59913832199544	394.6804081632653	74	127
394.6920181405896	394.85455782312926	38	127
394.6920181405896	394.7732879818594	62	127
394.7732879818594	394.85455782312926	74	127
394.8661678004535	394.94743764172335	65	127
394.8661678004535	395.0170975056689	41	127
394.8661678004535	395.0170975056689	48	127
394.9590476190476	395.0170975056689	74	127
395.0170975056689	395.0983673469388	72	127
395.0170975056689	395.1564172335601	50	127
395.109977324263	395.1564172335601	74	127
395.16802721088436	395.31895691609975	48	127
395.16802721088436	395.2376870748299	65	127
395.16802721088436	395.31895691609975	41	127
395.2376870748299	395.31895691609975	74	127
395.330566893424	395.504716553288	38	127
395.330566893424	395.41183673469385	62	127
395.4234467120181	395.504716553288	74	127
395.504716553288	395.67886621315193	48	127
395.504716553288	395.67886621315193	41	127
395.504716553288	395.5975963718821	65	127
395.5975963718821	395.67886621315193	74	127
395.6904761904762	395.86462585034013	50	127
395.6904761904762	395.77174603174603	72	127
395.7833560090703	395.86462585034013	74	127
395.86462585034013	396.03877551020406	41	127
395.86462585034013	395.94589569160996	65	127
395.86462585034013	396.03877551020406	48	127
395.95750566893423	396.03877551020406	74	127
396.05038548752833	396.21292517006805	38	127
396.05038548752833	396.13165532879816	62	127
396.13165532879816	396.21292517006805	74	127
396.2245351473923	396.30580498866215	67	127
396.2245351473923	396.3754648526077	43	127
396.2245351473923	396.3754648526077	48	127
396.30580498866215	396.3754648526077	74	127
396.3754648526077	396.53800453514737	50	127
396.3754648526077	396.45673469387754	72	127
396.45673469387754	396.53800453514737	74	127
396.54961451247163	396.7237641723356	48	127
396.54961451247163	396.6308843537415	67	127
396.54961451247163	396.7237641723356	43	127
396.6308843537415	396.7237641723356	74	127
396.7237641723356	396.80503401360545	62	127
396.7237641723356	396.89791383219955	38	127
396.8166439909297	396.89791383219955	74	127
396.9095238095238	396.99079365079365	68	127
396.9095238095238	397.0720634920635	48	127
396.9095238095238	397.0720634920635	44	127
396.99079365079365	397.0720634920635	74	127
397.08367346938775	397.2578231292517	50	127
397.08367346938775	397.1649433106576	72	127
397.17655328798185	397.2578231292517	74	127
397.2578231292517	397.43197278911566	48	127
397.2578231292517	397.43197278911566	44	127
397.2578231292517	397.35070294784583	68	127
397.36231292517004	397.43197278911566	74	127
397.43197278911566	397.58290249433105	38	127
397.43197278911566	397.5132426303855	62	127
397.5132426303855	397.58290249433105	74	127
397.5945124716553	397.6990022675737	44	127
397.5945124716553	397.6990022675737	48	127
397.5945124716553	397.62934240362813	67	127
397.6409523809524	397.6990022675737	74	127
397.6990022675737	397.8731519274376	50	127
397.6990022675737	397.7918820861678	72	127
397.7918820861678	397.8731519274376	74	127
397.8847619047619	398.0473015873016	48	127
397.8847619047619	398.0473015873016	44	127
397.8847619047619	397.9660317460318	67	127
397.977641723356	398.0473015873016	74	127
398.0473015873016	398.20984126984126	38	127
398.0473015873016	398.12857142857143	62	127
398.1401814058957	398.20984126984126	74	127
398.22145124716553	398.3607709750567	48	127
398.22145124716553	398.3607709750567	44	127
398.22145124716553	398.2795011337868	67	127
398.2795011337868	398.3607709750567	74	127
398.372380952381	398.53492063492064	50	127
398.372380952381	398.44204081632654	72	127
398.4536507936508	398.53492063492064	74	127
398.53492063492064	398.70907029478457	44	127
398.53492063492064	398.61619047619047	67	127
398.53492063492064	398.70907029478457	48	127
398.62780045351474	398.70907029478457	74	127
398.72068027210884	398.80195011337867	62	127
398.72068027210884	398.88321995464855	38	127
398.80195011337867	398.88321995464855	74	127
398.89482993197277	399.0573696145125	45	127
398.89482993197277	399.0573696145125	48	127
398.89482993197277	398.97609977324265	69	127
398.9877097505669	399.0573696145125	74	127
399.0573696145125	399.2315192743764	50	127
399.0573696145125	399.1502494331066	72	127
399.1502494331066	399.2315192743764	74	127
399.2431292517007	399.3360090702948	69	127
399.2431292517007	399.4288888888889	45	127
399.2431292517007	399.4288888888889	48	127
399.34761904761905	399.4288888888889	74	127
399.4288888888889	399.6030385487528	38	127
399.4288888888889	399.5101587301587	62	127
399.521768707483	399.6030385487528	74	127
399.6030385487528	399.75396825396825	47	127
399.6030385487528	399.6726984126984	68	127
399.6030385487528	399.75396825396825	44	127
399.6726984126984	399.75396825396825	76	127
399.75396825396825	399.81201814058954	71	127
399.75396825396825	399.9048979591837	52	127
399.8236281179138	399.9048979591837	76	127
399.9048979591837	400.0790476190476	47	127
399.9048979591837	400.0790476190476	44	127
399.9048979591837	399.98616780045353	68	127
399.9977777777778	400.0790476190476	76	127
400.10226757369617	400.183537414966	62	127
400.10226757369617	400.2764172335601	38	127
400.183537414966	400.2764172335601	76	127
400.2764172335601	400.4621768707483	47	127
400.2764172335601	400.4621768707483	44	127
400.2764172335601	400.3576870748299	68	127
400.3692970521542	400.4621768707483	76	127
400.47378684807256	400.6363265306122	52	127
400.47378684807256	400.5550566893424	71	127
400.5550566893424	400.6363265306122	76	127
400.6479365079365	400.8220861678005	47	127
400.6479365079365	400.7292063492063	68	127
400.6479365079365	400.8220861678005	44	127
400.7408163265306	400.8220861678005	76	127
400.8220861678005	400.9149659863946	62	127
400.8220861678005	401.0078458049887	38	127
400.92657596371885	401.0078458049887	76	127
401.01945578231295	401.1819954648526	48	127
401.01945578231295	401.1819954648526	44	127
401.01945578231295	401.1007256235828	68	127
401.1007256235828	401.1819954648526	75	127
401.1936054421769	401.35614512471653	51	127
401.1936054421769	401.26326530612243	72	127
401.2748752834467	401.35614512471653	75	127
401.35614512471653	401.42580498866215	68	127
401.35614512471653	401.507074829932	48	127
401.35614512471653	401.507074829932	44	127
401.4374149659864	401.507074829932	75	127
401.507074829932	401.57673469387754	62	127
401.507074829932	401.66961451247164	38	127
401.5883446712018	401.66961451247164	75	127
401.66961451247164	401.8437641723356	43	127
401.66961451247164	401.8437641723356	48	127
401.66961451247164	401.75088435374147	67	127
401.76249433106574	401.8437641723356	75	127
401.85537414965984	402.0063038548753	51	127
401.85537414965984	401.9366439909297	72	127
401.9366439909297	402.0063038548753	75	127
402.01791383219955	402.0991836734694	67	127
402.01791383219955	402.1920634920635	43	127
402.01791383219955	402.1920634920635	48	127
402.11079365079365	402.1920634920635	75	127
402.1920634920635	402.26172335600904	62	127
402.1920634920635	402.3546031746032	38	127
402.2733333333333	402.3546031746032	75	127
402.3662131519274	402.4474829931973	68	127
402.3662131519274	402.51714285714286	44	127
402.3662131519274	402.51714285714286	47	127
402.4474829931973	402.51714285714286	76	127
402.5287528344671	402.6912925170068	52	127
402.5287528344671	402.61002267573696	71	127
402.6216326530612	402.6912925170068	76	127
402.6912925170068	402.8190022675737	47	127
402.6912925170068	402.73773242630386	68	127
402.6912925170068	402.8190022675737	44	127
402.73773242630386	402.8190022675737	76	127
402.83061224489796	402.9118820861678	62	127
402.83061224489796	402.96993197278914	38	127
402.9118820861678	402.96993197278914	76	127
402.96993197278914	403.1673015873016	47	127
402.96993197278914	403.05120181405897	68	127
402.96993197278914	403.1673015873016	44	127
403.06281179138324	403.1673015873016	76	127
403.1789115646259	403.2601814058957	71	127
403.1789115646259	403.34145124716554	52	127
403.2601814058957	403.34145124716554	76	127
403.3530612244898	403.43433106575964	68	127
403.3530612244898	403.538820861678	44	127
403.3530612244898	403.538820861678	47	127
403.4459410430839	403.538820861678	76	127
403.538820861678	403.62009070294783	62	127
403.538820861678	403.70136054421766	38	127
403.6317006802721	403.70136054421766	76	127
403.71297052154193	403.89873015873013	44	127
403.71297052154193	403.89873015873013	48	127
403.71297052154193	403.80585034013603	68	127
403.80585034013603	403.89873015873013	75	127
403.89873015873013	404.0728798185941	51	127
403.89873015873013	403.98	72	127
403.9916099773243	404.0728798185941	75	127
404.0844897959184	404.15414965986395	68	127
404.0844897959184	404.2354195011338	48	127
404.0844897959184	404.2354195011338	44	127
404.15414965986395	404.2354195011338	75	127
404.24702947845805	404.3166893424036	62	127
404.24702947845805	404.4095691609977	38	127
404.3282993197279	404.4095691609977	75	127
404.4095691609977	404.5721088435374	43	127
404.4095691609977	404.5721088435374	48	127
404.4095691609977	404.4908390022676	67	127
404.50244897959186	404.5721088435374	75	127
404.5837188208617	404.74625850340135	51	127
404.5837188208617	404.6649886621315	72	127
404.6649886621315	404.74625850340135	75	127
404.7578684807256	404.9204081632653	48	127
404.7578684807256	404.9204081632653	43	127
404.7578684807256	404.8275283446712	67	127
404.83913832199545	404.9204081632653	75	127
404.9204081632653	404.96684807256236	62	127
404.9204081632653	405.05972789115646	38	127
404.9784580498866	405.05972789115646	75	127
405.0713378684807	405.24548752834465	42	127
405.0713378684807	405.15260770975055	66	127
405.0713378684807	405.24548752834465	47	127
405.1642176870748	405.24548752834465	74	127
405.24548752834465	405.41963718820864	50	127
405.24548752834465	405.32675736961454	71	127
405.33836734693875	405.41963718820864	74	127
405.43124716553285	405.60539682539684	42	127
405.43124716553285	405.524126984127	66	127
405.43124716553285	405.60539682539684	47	127
405.524126984127	405.60539682539684	74	127
405.60539682539684	405.68666666666667	62	127
405.60539682539684	405.79115646258504	38	127
405.69827664399094	405.79115646258504	74	127
405.79115646258504	405.9536961451247	42	127
405.79115646258504	405.87242630385487	66	127
405.79115646258504	405.9536961451247	47	127
405.88403628117914	405.9536961451247	74	127
405.96530612244896	406.0465759637188	71	127
405.96530612244896	406.1278458049887	50	127
406.0465759637188	406.1278458049887	74	127
406.13945578231295	406.2207256235828	66	127
406.13945578231295	406.3019954648526	42	127
406.13945578231295	406.3019954648526	47	127
406.23233560090705	406.3019954648526	74	127
406.3019954648526	406.3948752834467	62	127
406.3019954648526	406.47614512471654	38	127
406.3948752834467	406.47614512471654	74	127
406.4877551020408	406.63868480725625	42	127
406.4877551020408	406.63868480725625	46	127
406.4877551020408	406.56902494331064	66	127
406.56902494331064	406.63868480725625	74	127
406.63868480725625	406.8360544217687	50	127
406.63868480725625	406.7199546485261	70	127
406.73156462585035	406.8360544217687	74	127
406.847664399093	407.01020408163265	42	127
406.847664399093	406.9289342403628	66	127
406.847664399093	407.01020408163265	46	127
406.9289342403628	407.01020408163265	74	127
407.0218140589569	407.10308390022675	62	127
407.0218140589569	407.19596371882085	38	127
407.114693877551	407.19596371882085	74	127
407.19596371882085	407.2772335600907	66	127
407.19596371882085	407.37011337868483	42	127
407.19596371882085	407.37011337868483	48	127
407.28884353741495	407.37011337868483	74	127
407.38172335600905	407.54426303854876	50	127
407.38172335600905	407.45138321995466	72	127
407.45138321995466	407.54426303854876	74	127
407.54426303854876	407.6255328798186	66	127
407.54426303854876	407.69519274376415	42	127
407.54426303854876	407.69519274376415	48	127
407.6255328798186	407.69519274376415	74	127
407.7068027210884	407.86934240362814	38	127
407.7068027210884	407.78807256235825	62	127
407.78807256235825	407.86934240362814	74	127
407.8809523809524	407.96222222222224	67	127
407.8809523809524	408.05510204081634	43	127
407.9738321995465	408.05510204081634	74	127
408.05510204081634	408.217641723356	46	127
408.05510204081634	408.1247619047619	70	127
408.13637188208617	408.217641723356	74	127
408.22925170068027	408.3801814058957	43	127
408.22925170068027	408.2989115646258	67	127
408.2989115646258	408.3801814058957	74	127
408.39179138322	408.4730612244898	62	127
408.39179138322	408.5659410430839	38	127
408.4846712018141	408.5659410430839	74	127
408.5659410430839	408.64721088435374	55	127
408.658820861678	408.74009070294784	62	127
408.7517006802721	408.83297052154194	58	127
408.8445804988662	408.92585034013604	62	127
408.92585034013604	409.0071201814059	55	127
409.01873015873014	409.0767800453515	62	127
409.08839002267575	409.1696598639456	50	127
409.1696598639456	409.23931972789114	62	127
409.2509297052154	409.33219954648524	55	127
409.3438095238095	409.40185941043086	62	127
409.40185941043086	409.4831292517007	58	127
409.49473922902496	409.5643990929705	62	127
409.5760090702948	409.6572789115646	55	127
409.6572789115646	409.71532879818596	62	127
409.7269387755102	409.7965986394558	50	127
409.80820861678006	409.8894784580499	62	127
409.8894784580499	410.6209070294785	79	127
409.8894784580499	409.982358276644	55	127
409.8894784580499	410.6209070294785	67	127
409.982358276644	410.0636281179138	62	127
410.0752380952381	410.1565079365079	58	127
410.1681179138322	410.249387755102	62	127
410.249387755102	410.3306575963719	55	127
410.3422675736961	410.423537414966	62	127
410.4351473922903	410.5280272108844	50	127
410.5280272108844	410.6092970521542	62	127
410.6209070294785	411.3407256235828	79	127
410.6209070294785	411.3407256235828	91	127
410.6209070294785	410.7021768707483	55	127
410.7137868480726	410.8066666666667	62	127
410.8066666666667	410.87632653061223	58	127
410.8879365079365	410.95759637188206	62	127
410.96920634920633	411.0504761904762	55	127
411.0504761904762	411.1433560090703	62	127
411.1433560090703	411.2362358276644	50	127
411.2478458049887	411.3291156462585	62	127
411.3407256235828	412.7803628117914	89	127
411.3407256235828	412.7803628117914	77	127
411.3407256235828	411.4219954648526	56	127
411.4219954648526	411.526485260771	62	127
411.53809523809525	411.6193650793651	60	127
411.63097505668935	411.7006349206349	62	127
411.7006349206349	411.78190476190474	56	127
411.793514739229	411.8631746031746	62	127
411.87478458049884	411.9560544217687	50	127
411.9560544217687	412.03732426303856	62	127
412.0489342403628	412.13020408163266	56	127
412.1418140589569	412.22308390022675	62	127
412.22308390022675	412.3043537414966	60	127
412.31596371882085	412.3972335600907	62	127
412.40884353741495	412.4901133786848	56	127
412.50172335600905	412.59460317460315	62	127
412.59460317460315	412.67587301587304	50	127
412.6874829931973	412.76875283446714	62	127
412.7803628117914	413.117052154195	87	127
412.7803628117914	413.117052154195	75	127
412.7803628117914	412.85002267573697	54	127
412.85002267573697	412.9196825396825	63	127
412.9312925170068	413.0241723356009	60	127
413.03578231292516	413.117052154195	63	127
413.117052154195	413.1867120181406	54	127
413.117052154195	413.291201814059	74	127
413.117052154195	413.291201814059	86	127
413.1983219954649	413.2795918367347	63	127
413.291201814059	413.4653514739229	84	127
413.291201814059	413.4653514739229	72	127
413.291201814059	413.3724716553288	50	127
413.3724716553288	413.45374149659864	63	127
413.4653514739229	414.1851700680272	75	127
413.4653514739229	414.1851700680272	87	127
413.4653514739229	413.54662131519274	55	127
413.558231292517	413.6511111111111	63	127
413.6511111111111	413.7439909297052	59	127
413.7439909297052	413.82526077097504	63	127
413.8368707482993	413.91814058956913	55	127
413.9297505668934	414.0110204081633	63	127
414.0110204081633	414.08068027210885	50	127
414.0922902494331	414.17356009070295	63	127
414.1851700680272	415.5203174603175	74	127
414.1851700680272	414.26643990929705	55	127
414.1851700680272	415.5203174603175	86	127
414.26643990929705	414.3477097505669	62	127
414.35931972789115	414.4173696145125	58	127
414.4289795918367	414.4754195011338	62	127
414.4754195011338	414.5566893424036	55	127
414.5682993197279	414.63795918367344	62	127
414.6495691609977	414.71922902494333	50	127
414.71922902494333	414.81210884353743	62	127
414.81210884353743	414.89337868480726	53	127
414.90498866213153	414.99786848072563	62	127
415.0094784580499	415.0907482993197	58	127
415.0907482993197	415.1604081632653	62	127
415.17201814058956	415.2416780045352	53	127
415.2532879818594	415.3345578231293	62	127
415.3345578231293	415.4158276643991	50	127
415.4274376417234	415.5087074829932	62	127
415.5203174603175	416.21691609977324	94	127
415.5203174603175	415.6015873015873	53	127
415.5203174603175	416.21691609977324	82	127
415.6015873015873	415.68285714285713	62	127
415.6944671201814	415.77573696145123	58	127
415.7873469387755	415.86861678004533	62	127
415.86861678004533	415.9498866213152	53	127
415.9614965986394	416.0427664399093	62	127
416.0543764172336	416.12403628117914	50	127
416.1356462585034	416.21691609977324	62	127
416.21691609977324	416.2981859410431	54	127
416.21691609977324	417.2734240362812	86	127
416.21691609977324	417.2734240362812	74	127
416.30979591836734	416.3910657596372	62	127
416.40267573696144	416.48394557823127	58	127
416.48394557823127	416.56521541950116	62	127
416.57682539682537	416.65809523809526	54	127
416.6697052154195	416.75097505668936	62	127
416.75097505668936	416.8322448979592	50	127
416.84385487528345	416.9251247165533	62	127
416.93673469387755	417.0180045351474	55	127
417.0180045351474	417.0992743764172	62	127
417.1108843537415	417.16893424036283	58	127
417.1805442176871	417.2734240362812	62	127
417.2734240362812	417.37791383219957	55	127
417.2734240362812	417.47079365079367	73	127
417.2734240362812	417.47079365079367	85	127
417.37791383219957	417.4591836734694	62	127
417.47079365079367	417.5520634920635	50	127
417.47079365079367	417.65655328798186	86	127
417.47079365079367	417.65655328798186	74	127
417.56367346938777	417.65655328798186	62	127
417.65655328798186	417.7378231292517	55	127
417.65655328798186	418.0048526077097	75	127
417.65655328798186	418.0048526077097	87	127
417.74943310657596	417.8307029478458	63	127
417.84231292517006	417.9235827664399	58	127
417.9235827664399	417.9932426303855	63	127
418.0048526077097	418.16739229024944	74	127
418.0048526077097	418.16739229024944	86	127
418.0048526077097	418.0861224489796	55	127
418.0977324263039	418.16739229024944	63	127
418.16739229024944	418.34154195011337	75	127
418.16739229024944	418.34154195011337	87	127
418.16739229024944	418.237052154195	50	127
418.24866213151927	418.3299319727891	63	127
418.34154195011337	418.70145124716555	88	127
418.34154195011337	418.70145124716555	76	127
418.34154195011337	418.4228117913832	56	127
418.4228117913832	418.51569160997735	64	127
418.51569160997735	418.5969614512472	59	127
418.60857142857145	418.6898412698413	64	127
418.70145124716555	418.8639909297052	87	127
418.70145124716555	418.8639909297052	75	127
418.70145124716555	418.7711111111111	56	127
418.7711111111111	418.85238095238094	64	127
418.8639909297052	418.94526077097504	50	127
418.8639909297052	419.03814058956914	88	127
418.8639909297052	419.03814058956914	76	127
418.9568707482993	419.03814058956914	64	127
419.03814058956914	419.119410430839	57	127
419.03814058956914	419.560589569161	79	127
419.03814058956914	419.560589569161	91	127
419.13102040816324	419.20068027210885	65	127
419.2122902494331	419.29356009070295	60	127
419.29356009070295	419.3748299319728	65	127
419.38643990929705	419.4677097505669	57	127
419.47931972789115	419.560589569161	65	127
419.560589569161	419.7231292517007	75	127
419.560589569161	419.7231292517007	87	127
419.560589569161	419.6418594104308	53	127
419.6534693877551	419.7231292517007	65	127
419.73473922902497	420.7680272108843	89	127
419.73473922902497	419.8043990929705	57	127
419.73473922902497	420.7680272108843	77	127
419.8160090702948	419.8972789115646	65	127
419.8972789115646	419.9669387755102	62	127
419.97854875283446	420.0598185941043	65	127
420.07142857142856	420.1526984126984	57	127
420.1526984126984	420.23396825396827	65	127
420.24557823129254	420.32684807256237	53	127
420.33845804988664	420.41972789115647	65	127
420.41972789115647	420.5009977324263	57	127
420.51260770975057	420.5938775510204	65	127
420.60548752834467	420.6867573696145	63	127
420.6867573696145	420.7680272108843	65	127
420.7796371882086	420.8609070294785	57	127
420.8725170068027	420.9537868480726	65	127
420.9537868480726	421.0466666666667	53	127
421.0466666666667	421.15115646258505	65	127
421.1627664399093	421.766485260771	89	127
421.1627664399093	421.2556462585034	57	127
421.1627664399093	421.766485260771	77	127
421.2672562358277	421.3485260770975	65	127
421.3485260770975	421.42979591836735	62	127
421.4414058956916	421.52267573696145	65	127
421.5342857142857	421.61555555555555	57	127
421.61555555555555	421.6968253968254	65	127
421.70843537414964	421.80131519274374	53	127
421.812925170068	421.89419501133784	65	127
421.89419501133784	422.09156462585037	45	127
421.89419501133784	422.68367346938777	90	127
421.89419501133784	422.68367346938777	78	127
422.1031746031746	422.3237641723356	52	127
422.3237641723356	422.4979138321996	57	127
422.5095238095238	422.6720634920635	62	127
422.68367346938777	423.7634013605442	88	127
422.68367346938777	423.7634013605442	76	127
422.8578231292517	423.02036281179136	52	127
423.0319727891156	423.2177324263039	57	127
423.2293424036281	423.41510204081635	61	127
423.41510204081635	423.5892517006803	45	127
423.60086167800455	423.7634013605442	56	127
423.7634013605442	424.1117006802721	86	127
423.7634013605442	424.1117006802721	74	127
423.7634013605442	423.93755102040814	62	127
423.9491609977324	424.10009070294785	66	127
424.1117006802721	424.4832199546485	73	127
424.1117006802721	424.4832199546485	85	127
424.2974603174603	424.47160997732425	64	127
424.2974603174603	424.47160997732425	57	127
424.4832199546485	424.6689795918367	71	127
424.4832199546485	424.6689795918367	83	127
424.4832199546485	424.65736961451245	56	127
424.6689795918367	424.8663492063492	64	127
424.6689795918367	424.8663492063492	81	127
424.6689795918367	424.8663492063492	69	127
424.8663492063492	425.6209977324263	73	127
424.8663492063492	425.6209977324263	85	127
424.8663492063492	425.06371882086165	47	127
425.0753287981859	425.23786848072564	54	127
425.23786848072564	425.4004081632653	57	127
425.41201814058957	425.60938775510203	63	127
425.6209977324263	426.6194557823129	71	127
425.6209977324263	426.6194557823129	83	127
425.6209977324263	425.79514739229023	40	127
425.79514739229023	425.9692970521542	47	127
425.98090702947843	426.1550566893424	52	127
426.1550566893424	426.3175963718821	56	127
426.32920634920634	426.445306122449	59	127
426.45691609977325	426.6194557823129	68	127
426.6194557823129	426.7819954648526	64	127
426.7936054421769	426.95614512471656	59	127
426.9677551020408	427.1302947845805	56	127
427.1302947845805	427.3160544217687	52	127
427.32766439909295	427.7107936507937	76	127
427.32766439909295	427.51342403628115	47	127
427.32766439909295	427.7107936507937	64	127
427.51342403628115	427.7107936507937	40	127
427.7224036281179	427.81528344671204	76	127
427.7224036281179	427.8965532879819	43	127
427.81528344671204	428.4422222222222	76	127
427.81528344671204	428.4422222222222	88	127
427.90816326530614	428.0823129251701	50	127
428.0823129251701	428.256462585034	55	127
428.26807256235827	428.430612244898	60	127
428.4422222222222	429.53356009070296	74	127
428.4422222222222	429.53356009070296	86	127
428.6163718820862	428.8021315192744	50	127
428.81374149659865	428.9878911564626	55	127
428.9878911564626	429.1620408163265	58	127
429.1736507936508	429.3361904761905	43	127
429.34780045351476	429.53356009070296	54	127
429.53356009070296	429.90507936507936	84	127
429.53356009070296	429.90507936507936	72	127
429.53356009070296	429.71931972789116	60	127
429.73092970521543	429.90507936507936	64	127
429.90507936507936	430.26498866213154	71	127
429.90507936507936	430.26498866213154	83	127
430.09083900226756	430.2533786848073	62	127
430.09083900226756	430.2533786848073	55	127
430.26498866213154	430.4275283446712	69	127
430.26498866213154	430.4275283446712	81	127
430.26498866213154	430.4275283446712	54	127
430.4275283446712	430.60167800453513	79	127
430.4275283446712	430.60167800453513	62	127
430.4275283446712	430.60167800453513	67	127
430.6132879818594	431.35632653061225	83	127
430.6132879818594	431.35632653061225	71	127
430.6132879818594	430.7758276643991	45	127
430.78743764172333	430.9731972789116	52	127
430.9731972789116	431.1589569160998	55	127
431.17056689342405	431.35632653061225	61	127
431.35632653061225	432.4244444444444	69	127
431.35632653061225	432.4244444444444	81	127
431.35632653061225	431.5304761904762	38	127
431.54208616780045	431.6930158730159	45	127
431.7046258503401	431.89038548752836	50	127
431.89038548752836	432.0645351473923	54	127
432.07614512471656	432.2386848072562	57	127
432.2502947845805	432.4244444444444	66	127
432.4244444444444	432.5985941043084	62	127
432.6450340136054	432.8307936507936	57	127
432.8307936507936	433.0049433106576	54	127
433.0165532879819	433.1907029478458	50	127
433.2023129251701	433.376462585034	45	127
433.376462585034	433.58544217687074	38	127
434.36331065759634	435.8261678004535	62	127
434.36331065759634	435.11795918367346	40	127
435.11795918367346	435.8261678004535	42	127
435.8261678004535	436.53437641723355	43	127
435.8261678004535	436.53437641723355	64	127
436.53437641723355	437.28902494331066	66	127
436.53437641723355	437.79986394557824	48	127
436.53437641723355	437.28902494331066	51	127
437.28902494331066	437.97401360544217	52	127
437.28902494331066	437.97401360544217	64	127
437.97401360544217	438.6009523809524	54	127
437.97401360544217	438.6009523809524	47	127
437.97401360544217	438.6009523809524	63	127
438.7518820861678	439.2278911564626	47	127
438.7518820861678	439.3207709750567	66	127
438.7518820861678	439.3207709750567	63	127
438.7518820861678	439.2278911564626	54	127
438.7518820861678	439.3207709750567	54	127
438.7518820861678	439.3207709750567	59	127
439.23950113378686	441.7356462585034	40	127
439.2859410430839	441.7356462585034	47	127
439.33238095238096	441.7356462585034	56	127
439.39043083900225	441.7356462585034	59	127
439.4484807256236	441.7356462585034	64	127
439.5065306122449	441.7356462585034	68	127
441.92140589569163	442.5715646258503	68	127
441.92140589569163	442.38580498866213	40	127
441.92140589569163	442.5715646258503	59	127
441.92140589569163	442.5715646258503	56	127
441.92140589569163	442.38580498866213	47	127
441.92140589569163	442.5715646258503	64	127
442.3974149659864	446.55378684807255	38	127
442.50190476190477	446.55378684807255	50	127
442.5831746031746	446.55378684807255	56	127
442.64122448979595	446.55378684807255	59	127
442.69927437641724	446.55378684807255	65	127
442.78054421768707	446.55378684807255	68	127
446.68149659863946	446.8556462585034	50	127
446.86725623582765	447.0414058956916	57	127
447.0414058956916	447.2387755102041	56	127
447.2503854875283	447.4245351473923	53	127
447.4245351473923	447.59868480725623	60	127
447.6102947845805	447.7612244897959	59	127
447.77283446712016	447.91215419501134	56	127
447.91215419501134	448.08630385487527	53	127
448.09791383219954	448.22562358276645	50	127
448.2372335600907	448.41138321995464	57	127
448.41138321995464	448.5855328798186	56	127
448.59714285714284	448.75968253968256	53	127
448.75968253968256	448.9222222222222	60	127
448.9338321995465	449.0267120181406	59	127
449.03832199546486	449.17764172335603	56	127
449.17764172335603	449.35179138321996	52	127
449.36340136054423	449.5143310657596	64	127
449.5259410430839	449.6884807256236	62	127
449.7000907029478	449.8742403628118	59	127
449.8742403628118	450.06	56	127
450.0716099773243	450.6637188208617	26	127
450.0716099773243	450.6637188208617	38	127
450.0716099773243	450.23414965986393	62	127
450.2457596371882	450.4082993197279	60	127
450.41990929705213	450.5940589569161	57	127
450.5940589569161	450.76820861678004	54	127
450.7798185941043	450.9771882086168	52	127
450.9771882086168	451.17455782312925	50	127
451.17455782312925	451.383537414966	48	127
451.383537414966	451.5925170068027	45	127
451.604126984127	453.09020408163263	43	127
451.7782766439909	451.95242630385485	62	127
451.95242630385485	452.1381859410431	71	127
451.95242630385485	452.1381859410431	74	127
451.95242630385485	452.1381859410431	67	127
452.53292517006804	452.71868480725624	62	127
452.71868480725624	452.89283446712017	71	127
452.71868480725624	452.89283446712017	67	127
453.09020408163263	453.81002267573695	45	127
453.2759637188209	453.43850340136055	60	127
453.43850340136055	453.6126530612245	64	127
453.43850340136055	453.6126530612245	67	127
453.81002267573695	454.5414512471655	48	127
453.98417233560093	454.16993197278913	57	127
454.16993197278913	454.34408163265306	66	127
454.16993197278913	454.34408163265306	64	127
454.5414512471655	455.26126984126984	51	127
454.71560090702945	454.88975056689344	55	127
454.88975056689344	455.0522902494331	59	127
454.88975056689344	455.0522902494331	67	127
455.26126984126984	456.0043083900227	52	127
455.44702947845803	455.63278911564623	56	127
455.63278911564623	455.8185487528345	68	127
455.63278911564623	455.8185487528345	59	127
456.0043083900227	456.7821768707483	47	127
456.2248979591837	456.4106575963719	56	127
456.4106575963719	456.5964172335601	68	127
456.4106575963719	456.5964172335601	62	127
456.7821768707483	457.29301587301586	50	127
456.944716553288	457.14208616780047	55	127
457.14208616780047	457.2814058956916	59	127
457.14208616780047	457.2814058956916	67	127
457.14208616780047	457.2814058956916	62	127
457.29301587301586	457.46716553287985	43	127
457.47877551020406	458.9416326530612	43	127
457.6413151927438	457.8154648526077	62	127
457.8154648526077	458.0128344671202	67	127
457.8154648526077	458.0128344671202	71	127
457.8154648526077	458.0128344671202	74	127
458.3843537414966	458.5701133786848	62	127
458.5701133786848	458.74426303854875	71	127
458.5701133786848	458.74426303854875	67	127
458.9416326530612	459.6730612244898	45	127
459.09256235827667	459.27832199546486	60	127
459.27832199546486	459.47569160997733	67	127
459.27832199546486	459.47569160997733	64	127
459.6730612244898	460.3928798185941	48	127
459.83560090702946	460.0329705215419	57	127
460.0329705215419	460.2071201814059	66	127
460.0329705215419	460.2071201814059	64	127
460.3928798185941	461.15913832199544	51	127
460.60185941043085	460.82244897959185	55	127
460.82244897959185	460.97337868480724	59	127
460.82244897959185	460.97337868480724	67	127
461.15913832199544	461.85573696145127	52	127
461.3565079365079	461.54226757369617	56	127
461.54226757369617	461.69319727891155	68	127
461.54226757369617	461.69319727891155	59	127
461.85573696145127	462.55233560090704	47	127
462.04149659863947	462.22725623582767	56	127
462.22725623582767	462.36657596371884	65	127
462.22725623582767	462.36657596371884	62	127
462.22725623582767	462.36657596371884	68	127
462.55233560090704	463.17927437641725	50	127
462.7497052154195	462.95868480725625	56	127
462.95868480725625	463.14444444444445	65	127
462.95868480725625	463.14444444444445	59	127
462.95868480725625	463.14444444444445	68	127
463.17927437641725	463.36503401360545	41	127
463.3766439909297	464.01519274376415	41	127
463.5624036281179	463.77138321995466	56	127
463.77138321995466	463.9455328798186	68	127
463.77138321995466	463.9455328798186	59	127
463.77138321995466	463.9455328798186	62	127
464.1196825396825	465.45482993197277	39	127
464.32866213151925	464.50281179138324	55	127
464.50281179138324	464.67696145124717	59	127
464.50281179138324	464.67696145124717	67	127
465.08331065759637	465.28068027210884	55	127
465.28068027210884	465.45482993197277	67	127
465.28068027210884	465.45482993197277	60	127
465.6638095238095	466.2907482993197	40	127
465.861179138322	466.0469387755102	55	127
466.0469387755102	466.22108843537416	67	127
466.0469387755102	466.22108843537416	62	127
466.4184580498866	467.0570068027211	45	127
466.62743764172336	466.82480725623583	55	127
466.82480725623583	466.9873469387755	61	127
466.82480725623583	466.9873469387755	67	127
467.18471655328796	467.67233560090705	51	127
467.3472562358277	467.50979591836733	55	127
467.50979591836733	467.67233560090705	67	127
467.50979591836733	467.67233560090705	60	127
467.67233560090705	467.846485260771	45	127
467.846485260771	468.4966439909297	45	127
468.04385487528344	468.22961451247164	55	127
468.22961451247164	468.4269841269841	61	127
468.22961451247164	468.4269841269841	67	127
468.63596371882085	469.21646258503404	51	127
468.82172335600904	468.99587301587303	55	127
468.99587301587303	469.21646258503404	60	127
468.99587301587303	469.21646258503404	67	127
469.21646258503404	469.4254421768708	45	127
469.437052154195	470.05238095238093	45	127
469.62281179138324	469.80857142857144	55	127
469.80857142857144	469.98272108843537	61	127
469.80857142857144	469.98272108843537	67	127
470.18009070294784	470.7838095238095	55	127
470.18009070294784	470.7838095238095	43	127
470.36585034013603	470.5516099773243	57	127
470.5516099773243	470.7257596371882	64	127
470.5516099773243	470.7257596371882	69	127
470.9115192743764	471.52684807256236	42	127
470.9115192743764	471.52684807256236	54	127
471.0972789115646	471.2830385487528	57	127
471.2830385487528	471.4571882086168	62	127
471.2830385487528	471.4571882086168	69	127
471.642947845805	472.33954648526077	52	127
471.642947845805	472.33954648526077	40	127
471.85192743764173	472.0492970521542	58	127
472.0492970521542	472.2698866213152	70	127
472.0492970521542	472.2698866213152	61	127
472.47886621315195	473.10580498866216	53	127
472.47886621315195	473.10580498866216	41	127
472.66462585034014	472.85038548752834	57	127
472.85038548752834	473.03614512471654	63	127
472.85038548752834	473.03614512471654	69	127
473.233514739229	473.75596371882085	59	127
473.233514739229	473.75596371882085	47	127
473.4308843537415	473.5934240362812	63	127
473.5934240362812	473.75596371882085	75	127
473.5934240362812	473.75596371882085	68	127
473.7675736961451	473.94172335600905	41	127
473.7675736961451	473.94172335600905	53	127
473.94172335600905	474.5338321995465	41	127
473.94172335600905	474.5338321995465	53	127
474.1274829931973	474.3248526077098	57	127
474.3248526077098	474.47578231292516	63	127
474.3248526077098	474.47578231292516	69	127
474.6499319727891	475.1375510204082	47	127
474.6499319727891	475.1375510204082	59	127
474.8124716553288	474.998231292517	63	127
474.998231292517	475.1375510204082	68	127
474.998231292517	475.1375510204082	75	127
475.1375510204082	475.30009070294784	41	127
475.1375510204082	475.30009070294784	53	127
475.30009070294784	475.92702947845805	53	127
475.30009070294784	475.92702947845805	41	127
475.4974603174603	475.6832199546485	57	127
475.6832199546485	475.8573696145125	69	127
475.6832199546485	475.8573696145125	63	127
476.05473922902496	477.28539682539684	47	127
476.05473922902496	477.28539682539684	59	127
476.2521088435374	476.4378684807256	63	127
476.4378684807256	476.61201814058956	68	127
476.4378684807256	476.61201814058956	75	127
476.9487074829932	477.0996371882086	68	127
476.9487074829932	477.0996371882086	75	127
477.0996371882086	477.2737868480726	63	127
477.4827664399093	478.086485260771	39	127
477.4827664399093	478.086485260771	51	127
477.65691609977324	477.84267573696144	67	127
477.84267573696144	478.0168253968254	70	127
477.84267573696144	478.0168253968254	79	127
478.2258049886621	479.456462585034	54	127
478.2258049886621	479.456462585034	42	127
478.41156462585036	478.57410430839	62	127
478.57410430839	478.7366439909297	74	127
478.57410430839	478.7366439909297	70	127
479.10816326530613	479.28231292517006	62	127
479.28231292517006	479.4448526077098	69	127
479.28231292517006	479.4448526077098	74	127
479.64222222222224	480.2575510204082	53	127
479.64222222222224	480.2575510204082	41	127
479.8163718820862	480.00213151927437	57	127
480.00213151927437	480.18789115646257	69	127
480.00213151927437	480.18789115646257	62	127
480.4084807256236	481.0702494331066	34	127
480.4084807256236	481.0702494331066	46	127
480.64068027210885	480.82643990929705	58	127
480.82643990929705	481.01219954648525	65	127
480.82643990929705	481.01219954648525	70	127
480.82643990929705	481.01219954648525	62	127
481.19795918367345	481.36049886621316	35	127
481.19795918367345	481.36049886621316	47	127
481.36049886621316	481.55786848072563	50	127
481.55786848072563	481.708798185941	62	127
482.1151473922902	482.3009070294785	62	127
482.1151473922902	482.3009070294785	55	127
482.3009070294785	482.6724263038549	86	127
482.3009070294785	482.4866666666667	50	127
482.6724263038549	482.8930158730159	34	127
482.6724263038549	483.2645351473923	84	127
482.6724263038549	482.8930158730159	46	127
482.8930158730159	483.0787755102041	56	127
483.0787755102041	483.252925170068	62	127
483.0787755102041	483.252925170068	68	127
483.2645351473923	483.4386848072562	74	127
483.4502947845805	484.54163265306124	74	127
483.63605442176873	483.82181405895693	68	127
483.63605442176873	483.82181405895693	62	127
483.82181405895693	483.9843537414966	56	127
484.1585034013605	484.3442630385488	47	127
484.1585034013605	484.3442630385488	35	127
484.3442630385488	484.5532426303855	50	127
484.5532426303855	484.72739229024944	62	127
484.5532426303855	484.9247619047619	74	127
484.9247619047619	485.3311111111111	79	127
485.1105215419501	485.3311111111111	55	127
485.1105215419501	485.3311111111111	62	127
485.3311111111111	485.50526077097504	50	127
485.3311111111111	485.7026303854875	86	127
485.7026303854875	486.2134693877551	84	127
485.7026303854875	485.8651700680272	34	127
485.7026303854875	485.8651700680272	46	127
485.8651700680272	486.0277097505669	56	127
486.0277097505669	486.2134693877551	68	127
486.0277097505669	486.2134693877551	62	127
486.2134693877551	486.38761904761907	74	127
486.38761904761907	486.95650793650793	74	127
486.57337868480727	486.72430839002266	68	127
486.57337868480727	486.72430839002266	62	127
486.72430839002266	486.8868480725624	56	127
487.08421768707484	487.67632653061224	52	127
487.08421768707484	487.67632653061224	40	127
487.25836734693877	487.44412698412697	62	127
487.44412698412697	487.61827664399095	71	127
487.44412698412697	487.61827664399095	67	127
487.44412698412697	487.61827664399095	74	127
487.8272562358277	489.1507936507937	53	127
487.8272562358277	489.1507936507937	41	127
488.0130158730159	488.21038548752836	74	127
488.0130158730159	488.21038548752836	67	127
488.0130158730159	488.21038548752836	71	127
488.21038548752836	488.3845351473923	62	127
488.7792743764172	488.9650340136054	62	127
488.9650340136054	489.1391836734694	74	127
488.9650340136054	489.1391836734694	72	127
488.9650340136054	489.1391836734694	68	127
489.34816326530614	489.98671201814057	54	127
489.34816326530614	489.98671201814057	42	127
489.5455328798186	489.7312925170068	74	127
489.5455328798186	489.7312925170068	69	127
489.5455328798186	489.7312925170068	72	127
489.7312925170068	489.917052154195	62	127
490.1028117913832	490.2769614512472	31	127
490.2885714285714	490.4627210884354	43	127
490.47433106575966	490.62526077097505	50	127
490.6368707482993	490.81102040816324	53	127
490.8226303854875	490.9967800453515	55	127
491.0083900226757	491.21736961451245	59	127
491.21736961451245	491.39151927437644	62	127
491.39151927437644	491.57727891156463	65	127
491.5888888888889	491.75142857142856	71	127
491.76303854875283	491.9255782312925	67	127
491.93718820861676	492.11133786848075	62	127
492.122947845805	492.3087074829932	59	127
492.3087074829932	492.48285714285714	55	127
492.48285714285714	492.66861678004534	53	127
492.6802267573696	492.84276643990927	50	127
492.85437641723354	493.0285260770975	43	127
493.0401360544218	493.73673469387757	72	127
493.0401360544218	493.73673469387757	84	127
493.0401360544218	493.20267573696145	34	127
493.20267573696145	493.4000453514739	46	127
493.4000453514739	493.5858049886621	49	127
493.5858049886621	493.73673469387757	54	127
493.73673469387757	494.07342403628115	85	127
493.73673469387757	494.06181405895694	61	127
493.73673469387757	494.07342403628115	73	127
494.07342403628115	494.42172335600907	87	127
494.07342403628115	494.42172335600907	75	127
494.42172335600907	495.1763718820862	77	127
494.42172335600907	494.60748299319727	46	127
494.42172335600907	495.1763718820862	89	127
494.60748299319727	494.79324263038546	49	127
494.79324263038546	494.9790022675737	61	127
495.1763718820862	495.5478911564626	78	127
495.1763718820862	495.5478911564626	90	127
495.1763718820862	495.3621315192744	44	127
495.3621315192744	495.5478911564626	49	127
495.5478911564626	495.919410430839	92	127
495.5478911564626	495.7220408163265	61	127
495.5478911564626	495.919410430839	80	127
495.919410430839	496.29092970521543	93	127
495.919410430839	496.10517006802723	31	127
495.919410430839	496.29092970521543	81	127
496.10517006802723	496.3025396825397	43	127
496.3025396825397	496.4882993197279	50	127
496.4882993197279	496.627619047619	53	127
496.627619047619	496.79015873015874	55	127
496.79015873015874	496.9526984126984	59	127
496.9526984126984	497.1384580498866	62	127
497.1384580498866	497.32421768707485	65	127
497.32421768707485	497.50997732426305	71	127
497.50997732426305	497.69573696145125	67	127
497.69573696145125	497.8931065759637	62	127
497.8931065759637	498.0904761904762	59	127
498.0904761904762	498.2762358276644	55	127
498.2762358276644	498.46199546485263	53	127
498.46199546485263	498.63614512471656	50	127
498.63614512471656	498.8102947845805	43	127
498.8102947845805	498.9844444444444	34	127
498.8102947845805	499.448843537415	72	127
498.8102947845805	499.448843537415	84	127
498.9960544217687	499.1702040816327	46	127
499.1818140589569	499.33274376417233	49	127
499.3443537414966	499.448843537415	54	127
499.448843537415	499.7855328798186	61	127
499.448843537415	499.79714285714283	73	127
499.448843537415	499.79714285714283	85	127
499.79714285714283	500.14544217687074	87	127
499.79714285714283	500.14544217687074	75	127
500.14544217687074	500.8536507936508	77	127
500.14544217687074	500.8536507936508	89	127
500.14544217687074	500.2963718820862	46	127
500.2963718820862	500.49374149659866	49	127
500.49374149659866	500.6678911564626	61	127
500.8536507936508	501.22517006802724	78	127
500.8536507936508	501.05102040816325	44	127
500.8536507936508	501.22517006802724	90	127
501.05102040816325	501.22517006802724	49	127
501.22517006802724	501.5618594104308	92	127
501.22517006802724	501.5618594104308	80	127
501.22517006802724	501.37609977324263	61	127
501.5618594104308	501.921768707483	93	127
501.5618594104308	501.747619047619	31	127
501.5618594104308	501.921768707483	81	127
501.747619047619	501.921768707483	43	127
501.921768707483	502.1075283446712	50	127
502.1075283446712	502.3048979591837	53	127
502.3048979591837	502.4906575963719	55	127
502.4906575963719	502.6764172335601	59	127
502.6764172335601	502.86217687074827	62	127
502.86217687074827	503.0479365079365	65	127
503.0479365079365	503.44267573696146	71	127
504.568843537415	504.7546031746032	39	127
504.568843537415	504.7546031746032	51	127
504.7546031746032	504.9403628117914	56	127
504.9403628117914	505.1261224489796	60	127
505.1261224489796	505.3118820861678	63	127
505.3118820861678	505.67179138321995	68	127
505.3118820861678	505.67179138321995	75	127
506.0317006802721	506.20585034013607	39	127
506.0317006802721	506.20585034013607	51	127
506.20585034013607	506.39160997732426	56	127
506.39160997732426	506.5657596371882	60	127
506.5657596371882	506.7515192743764	63	127
506.7515192743764	507.12303854875285	75	127
506.7515192743764	507.12303854875285	67	127
507.52938775510205	507.703537414966	38	127
507.703537414966	507.8544671201814	50	127
507.8544671201814	508.0402267573696	60	127
508.0402267573696	508.2259863945578	62	127
508.2259863945578	508.58589569161	66	127
508.2259863945578	508.58589569161	72	127
510.397052154195	513.0209070294785	31	127
510.397052154195	513.0209070294785	43	127
510.397052154195	510.4899319727891	59	127
510.4899319727891	510.5828117913832	67	127
510.5828117913832	510.6756916099773	62	127
510.6756916099773	510.7337414965986	67	127
510.7453514739229	510.82662131519277	59	127
510.838231292517	510.91950113378687	67	127
510.93111111111114	511.01238095238097	55	127
511.02399092970523	511.10526077097506	67	127
511.11687074829933	511.19814058956916	59	127
511.20975056689343	511.29102040816326	67	127
511.30263038548753	511.38390022675736	62	127
511.39551020408163	511.47678004535146	67	127
511.48839002267573	511.56965986394556	59	127
511.56965986394556	511.66253968253966	67	127
511.66253968253966	511.7554195011338	55	127
511.7554195011338	511.8482993197279	67	127
511.8482993197279	511.941179138322	59	127
511.941179138322	512.0224263038549	67	127
512.0224263038549	512.0921088435374	62	127
512.1037188208617	512.161768707483	67	127
512.161768707483	512.2082086167801	59	127
512.2082086167801	512.2894784580499	67	127
512.2894784580499	512.3707482993198	55	127
512.382358276644	512.4520181405895	67	127
512.4636281179138	512.5448979591837	59	127
512.556507936508	512.6261451247166	67	127
512.6377551020408	512.7422675736962	62	127
512.7422675736962	512.8351247165533	67	127
512.8351247165533	512.9280272108844	59	127
512.9280272108844	513.0209070294785	67	127
513.0209070294785	513.1137868480726	55	127
513.1253968253968	513.2066666666667	67	127
513.218276643991	513.3924263038549	55	127
513.218276643991	513.2995464852607	67	127
513.218276643991	513.3924263038549	51	127
513.311156462585	513.3924263038549	75	127
513.4040362811792	513.5549659863946	59	127
513.4040362811792	513.485306122449	71	127
513.485306122449	513.5549659863946	75	127
513.5665759637188	513.7291156462585	51	127
513.5665759637188	513.6362358276644	67	127
513.5665759637188	513.7291156462585	55	127
513.6478231292517	513.7291156462585	75	127
513.7407256235828	513.8219954648526	63	127
513.7407256235828	513.9148752834467	47	127
513.8336054421769	513.9148752834467	75	127
513.9148752834467	514.0077551020408	66	127
513.9148752834467	514.1006349206349	51	127
513.9148752834467	514.1006349206349	54	127
514.0077551020408	514.1006349206349	75	127
514.1006349206349	514.193514739229	71	127
514.1006349206349	514.2863718820862	59	127
514.193514739229	514.2863718820862	75	127
514.2980045351474	514.4721315192744	54	127
514.2980045351474	514.3792743764172	66	127
514.2980045351474	514.4721315192744	51	127
514.3908843537415	514.4721315192744	75	127
514.4721315192744	514.5534240362812	63	127
514.4721315192744	514.6230839002268	47	127
514.5650340136054	514.6230839002268	75	127
514.6230839002268	514.7740136054422	54	127
514.6230839002268	514.6927210884354	66	127
514.6230839002268	514.7740136054422	51	127
514.7043537414966	514.7740136054422	75	127
514.7856235827664	514.9365532879818	59	127
514.7856235827664	514.8552834467121	71	127
514.8668934240363	514.9365532879818	75	127
514.9481632653061	515.1455328798186	51	127
514.9481632653061	515.1455328798186	54	127
514.9481632653061	515.0410430839003	66	127
515.0410430839003	515.1455328798186	75	127
515.1455328798186	515.2384126984127	63	127
515.1455328798186	515.3196825396825	47	127
515.2384126984127	515.3196825396825	75	127
515.3196825396825	515.4125623582767	66	127
515.3196825396825	515.5054195011338	51	127
515.3196825396825	515.5054195011338	54	127
515.4125623582767	515.5054195011338	75	127
515.517052154195	515.5867120181406	71	127
515.517052154195	515.6795918367347	59	127
515.5983219954649	515.6795918367347	75	127
515.691201814059	515.7608616780045	66	127
515.691201814059	515.8537414965987	54	127
515.691201814059	515.8537414965987	51	127
515.7724716553288	515.8537414965987	75	127
515.8653514739229	515.9466213151927	63	127
515.8653514739229	516.0395011337869	47	127
515.958231292517	516.0395011337869	75	127
516.0511111111111	518.651746031746	43	127
516.0511111111111	516.1439909297052	59	127
516.0511111111111	518.651746031746	31	127
516.1556009070295	516.2368707482993	67	127
516.2484807256236	516.3413605442177	62	127
516.3413605442177	516.4226303854875	67	127
516.4226303854875	516.5154875283447	59	127
516.5154875283447	516.5967800453515	67	127
516.5967800453515	516.6780498866214	55	127
516.6896598639456	516.7477097505669	67	127
516.7593197278911	516.840589569161	59	127
516.8521995464853	516.9218367346939	67	127
516.9334467120182	517.0031292517007	62	127
517.0147392290249	517.061179138322	67	127
517.061179138322	517.1424263038549	59	127
517.1540589569161	517.2121088435374	67	127
517.2237188208617	517.3049886621316	55	127
517.3165986394558	517.3978684807256	67	127
517.3978684807256	517.4907482993198	59	127
517.4907482993198	517.5836281179138	67	127
517.5836281179138	517.6532879818594	62	127
517.6532879818594	517.7461451247166	67	127
517.7577551020408	517.8390476190476	59	127
517.8506575963719	517.9203174603175	67	127
517.9319274376418	518.0015873015873	55	127
518.0131972789115	518.0828571428572	67	127
518.0944671201814	518.1757369614512	59	127
518.1873469387755	518.2686167800454	67	127
518.2802267573696	518.3614739229025	62	127
518.3730839002268	518.4543764172336	67	127
518.4659863945578	518.558843537415	59	127
518.558843537415	518.651746031746	67	127
518.651746031746	518.7330158730159	55	127
518.7330158730159	518.82589569161	67	127
518.82589569161	518.9187755102041	67	127
518.82589569161	519.0116553287982	55	127
518.9187755102041	519.0116553287982	75	127
519.0232653061224	519.1045351473923	71	127
519.0232653061224	519.1974149659864	59	127
519.1161451247166	519.1974149659864	75	127
519.1974149659864	519.3599546485261	55	127
519.1974149659864	519.2786848072562	67	127
519.2902947845805	519.3599546485261	75	127
519.3715646258504	519.5457142857143	51	127
519.3715646258504	519.4528344671202	63	127
519.4644444444444	519.5457142857143	75	127
519.5573242630386	519.6385941043084	67	127
519.5573242630386	519.7314739229025	55	127
519.6502040816326	519.7314739229025	75	127
519.7430839002268	519.9056235827665	58	127
519.7430839002268	519.8359637188208	70	127
519.8359637188208	519.9056235827665	75	127
519.9056235827665	519.9752834467121	67	127
519.9056235827665	520.0565532879818	55	127
519.9752834467121	520.0565532879818	75	127
520.0565532879818	520.1378231292517	63	127
520.0565532879818	520.2074603174603	51	127
520.149433106576	520.2074603174603	75	127
520.2190929705215	520.3003628117914	67	127
520.2190929705215	520.3932426303855	55	127
520.3119727891157	520.3932426303855	75	127
520.4048299319728	520.5673922902495	58	127
520.4048299319728	520.4861224489796	70	127
520.4977324263039	520.5673922902495	75	127
520.5790022675737	520.7299319727891	55	127
520.5790022675737	520.6602721088435	67	127
520.6718820861678	520.7299319727891	75	127
520.7415419501134	520.9273015873016	51	127
520.7415419501134	520.8227891156463	63	127
520.8344217687074	520.9273015873016	75	127
520.9273015873016	521.0201587301588	67	127
520.9273015873016	521.1130612244898	55	127
521.0201587301588	521.1130612244898	75	127
521.1130612244898	521.2756009070295	58	127
521.1130612244898	521.1827210884354	70	127
521.1827210884354	521.2756009070295	75	127
521.2872108843537	521.4381179138322	55	127
521.2872108843537	521.3684807256236	67	127
521.3800907029479	521.4381179138322	75	127
521.4497505668934	521.5310204081633	63	127
521.4497505668934	521.6238775510204	51	127
521.5426303854875	521.6238775510204	75	127
521.6354875283447	521.7167800453515	67	127
521.6354875283447	521.8096598639456	51	127
521.6354875283447	521.8096598639456	55	127
521.7283900226757	521.8096598639456	75	127
521.8212698412699	521.9838095238096	59	127
521.8212698412699	521.8909297052154	71	127
521.9025396825397	521.9838095238096	75	127
521.9954195011338	522.0882993197279	67	127
521.9954195011338	522.1579591836735	55	127
521.9954195011338	522.1579591836735	51	127
522.0882993197279	522.1579591836735	75	127
522.1579591836735	522.2276190476191	63	127
522.1579591836735	522.3204988662131	47	127
522.2276190476191	522.3204988662131	75	127
522.3204988662131	522.4830385487528	54	127
522.3204988662131	522.4830385487528	51	127
522.3204988662131	522.401768707483	66	127
522.401768707483	522.4830385487528	75	127
522.4946485260771	522.6687755102041	59	127
522.4946485260771	522.575918367347	71	127
522.5875283446712	522.6687755102041	75	127
522.6804081632653	522.7500680272109	66	127
522.6804081632653	522.842947845805	54	127
522.6804081632653	522.842947845805	51	127
522.7616780045352	522.842947845805	75	127
522.8545351473923	522.9126077097505	63	127
522.8545351473923	522.9938775510204	47	127
522.9242176870748	522.9938775510204	75	127
523.0054875283447	523.0867573696145	66	127
523.0054875283447	523.1796371882086	54	127
523.0054875283447	523.1796371882086	51	127
523.0983673469387	523.1796371882086	75	127
523.1912471655329	523.2841269841269	71	127
523.1912471655329	523.3770068027211	59	127
523.2841269841269	523.3770068027211	75	127
523.3770068027211	523.551156462585	54	127
523.3770068027211	523.4698639455783	66	127
523.3770068027211	523.551156462585	51	127
523.4698639455783	523.551156462585	75	127
523.551156462585	523.7369160997732	47	127
523.551156462585	523.6440362811792	63	127
523.6556462585035	523.7369160997732	75	127
523.7485260770975	523.9226757369614	54	127
523.7485260770975	523.9226757369614	51	127
523.7485260770975	523.8297959183674	66	127
523.8414058956917	523.9226757369614	75	127
523.9342857142857	524.0851927437642	59	127
523.9342857142857	524.0155555555556	71	127
524.0271655328798	524.0851927437642	75	127
524.0968027210885	524.2593650793651	51	127
524.0968027210885	524.166485260771	66	127
524.0968027210885	524.2593650793651	54	127
524.1780952380952	524.2593650793651	75	127
524.2709750566894	524.4567346938776	47	127
524.2709750566894	524.3522448979592	63	127
524.3638548752834	524.4567346938776	75	127
524.4567346938776	525.2229931972789	43	127
524.6541043083901	524.8398639455783	59	127
524.8514739229025	525.0256235827665	64	127
525.0372335600907	525.2113832199547	71	127
525.2229931972789	525.4319727891157	66	127
525.2229931972789	526.0356916099773	42	127
525.4435827664399	525.6525623582767	59	127
525.6641723356009	525.8499319727891	67	127
525.8499319727891	526.0356916099773	71	127
526.0356916099773	526.2214512471655	70	127
526.0356916099773	526.7903401360544	40	127
526.2330612244898	526.4072108843537	59	127
526.418820861678	526.5929705215419	68	127
526.6045804988662	526.7787301587301	71	127
526.7903401360544	527.4056689342403	39	127
526.7903401360544	526.9644897959183	67	127
526.9760997732426	527.1502267573696	59	127
527.1502267573696	527.3360090702948	63	127
527.3360090702948	527.521768707483	67	127
527.5333786848073	528.2648072562358	43	127
527.7191383219955	527.8932879818594	59	127
527.9048979591837	528.0790476190476	63	127
528.0906575963719	528.2648072562358	71	127
528.2648072562358	528.9614058956917	42	127
528.2648072562358	528.4157369614512	64	127
528.4157369614512	528.6014965986394	59	127
528.6131065759637	528.7872335600907	66	127
528.798843537415	528.9497959183674	71	127
528.9614058956917	529.7160544217687	40	127
528.9614058956917	529.1355555555556	69	127
529.1471655328799	529.3213151927438	59	127
529.332925170068	529.5186848072562	67	127
529.5186848072562	529.7160544217687	71	127
529.7160544217687	530.389433106576	38	127
529.7160544217687	529.9134240362812	66	127
529.9250340136055	530.1107936507937	59	127
530.1456235827665	530.3197732426304	62	127
530.3313832199547	530.5055328798186	66	127
530.5171428571429	531.2369387755102	43	127
530.6912925170068	530.8538321995464	59	127
530.8538321995464	531.051179138322	64	127
531.051179138322	531.225351473923	71	127
531.2369387755102	531.9451700680272	42	127
531.2369387755102	531.3878911564626	66	127
531.3995011337869	531.5620408163265	59	127
531.5736507936508	531.7478004535147	67	127
531.759410430839	531.9451700680272	71	127
531.9451700680272	532.6998185941043	40	127
531.9451700680272	532.1309297052154	70	127
532.1309297052154	532.3166893424036	59	127
532.3166893424036	532.5024489795918	68	127
532.5140589569161	532.6881859410431	71	127
532.6998185941043	532.8275283446712	67	127
532.6998185941043	533.257097505669	39	127
532.8391383219955	533.0016780045352	59	127
533.0132879818594	533.1874376417234	63	127
533.1874376417234	533.3731972789116	67	127
533.3731972789116	534.0930158730159	43	127
533.570566893424	533.744716553288	59	127
533.7563265306122	533.8956235827665	63	127
533.9072335600907	534.0814058956917	71	127
534.0930158730159	534.2671655328799	64	127
534.0930158730159	534.8708843537415	42	127
534.2787755102041	534.4645351473923	59	127
534.4645351473923	534.6619047619048	66	127
534.6619047619048	534.8592743764173	71	127
534.8708843537415	535.60231292517	40	127
534.8708843537415	535.0450340136055	69	127
535.0566439909297	535.2307936507937	59	127
535.2307936507937	535.4049433106576	67	127
535.4165532879819	535.60231292517	71	127
535.60231292517	535.7996825396825	66	127
535.60231292517	537.0419501133787	38	127
535.7996825396825	535.997052154195	59	127
535.997052154195	536.1944217687075	62	127
536.2060317460317	536.3685487528345	66	127
536.3801814058957	536.7865306122449	74	127
536.7865306122449	536.9722675736962	72	127
536.7865306122449	537.5759863945578	65	127
536.7865306122449	537.1580498866214	57	127
536.9722675736962	537.1580498866214	71	127
537.1580498866214	537.8314285714285	56	127
537.1580498866214	537.8314285714285	71	127
537.1580498866214	537.5759863945578	50	127
537.5759863945578	537.9591383219955	52	127
537.5759863945578	537.7733786848073	64	127
537.7733786848073	537.9591383219955	62	127
537.9591383219955	538.3306575963719	57	127
537.9591383219955	538.3306575963719	60	127
537.9591383219955	538.3306575963719	53	127
537.9591383219955	538.8879365079365	69	127
538.3306575963719	538.7021768707483	55	127
538.3306575963719	538.7021768707483	52	127
538.3306575963719	538.5164172335601	62	127
538.5164172335601	538.7021768707483	64	127
538.7021768707483	539.3639455782313	64	127
538.7021768707483	539.1085260770975	54	127
538.7021768707483	539.1085260770975	50	127
538.8879365079365	539.1085260770975	72	127
539.1085260770975	539.5032653061224	48	127
539.1085260770975	539.30589569161	71	127
539.1085260770975	539.5032653061224	55	127
539.30589569161	539.5032653061224	69	127
539.5032653061224	540.1302040816327	56	127
539.5032653061224	540.6062131519275	65	127
539.5032653061224	539.8631746031746	47	127
539.5032653061224	539.8631746031746	74	127
539.8631746031746	540.060544217687	72	127
539.8631746031746	540.2579138321995	48	127
540.060544217687	540.2579138321995	71	127
540.2579138321995	540.8268027210885	71	127
540.2579138321995	540.6062131519275	50	127
540.6062131519275	540.7803628117914	64	127
540.6062131519275	540.9545124716553	52	127
540.7803628117914	540.9545124716553	62	127
540.9545124716553	541.3028117913832	60	127
540.9545124716553	541.8716780045352	69	127
540.9545124716553	541.3028117913832	53	127
540.9545124716553	541.3028117913832	57	127
541.3028117913832	541.6626984126984	52	127
541.3028117913832	541.6626984126984	55	127
541.3028117913832	541.4769387755102	62	127
541.4769387755102	541.6626984126984	64	127
541.6626984126984	542.0806575963719	54	127
541.6626984126984	542.0806575963719	50	127
541.6626984126984	542.3709297052154	64	127
541.8716780045352	542.0806575963719	72	127
542.0806575963719	542.4986167800454	48	127
542.0806575963719	542.3012698412698	71	127
542.0806575963719	542.4986167800454	55	127
542.3012698412698	542.4986167800454	69	127
542.4986167800454	542.6843764172336	48	127
542.4986167800454	543.1139455782313	47	127
542.6959863945578	542.8585487528345	56	127
542.8701587301588	543.0443083900227	74	127
543.055918367347	543.2300680272109	65	127
543.2416780045352	543.4274376417234	48	127
543.4274376417234	543.6131972789116	56	127
543.6131972789116	543.7873469387755	72	127
543.7989569160998	543.9731065759637	65	127
543.984716553288	544.6000453514739	50	127
543.984716553288	544.6000453514739	38	127
544.1704761904762	544.3329931972789	56	127
544.3446258503401	544.5187755102041	68	127
544.3446258503401	544.5187755102041	65	127
544.5303628117914	544.7045351473923	56	127
544.7045351473923	545.3430612244898	52	127
544.7045351473923	545.3430612244898	40	127
544.8786848072563	545.0644444444445	56	127
545.0760544217687	545.2618140589569	68	127
545.0760544217687	545.2618140589569	64	127
545.2734240362812	545.4591836734694	56	127
545.4707936507937	546.1209523809524	29	127
545.4707936507937	546.1209523809524	41	127
545.6681632653061	545.8423129251701	56	127
545.8539229024943	546.0512925170068	68	127
545.8539229024943	546.0512925170068	62	127
546.0512925170068	546.237052154195	56	127
546.237052154195	546.8756009070295	42	127
546.237052154195	546.8756009070295	30	127
546.4344217687075	546.6085714285714	57	127
546.6201814058957	546.8059410430839	62	127
546.6201814058957	546.8059410430839	69	127
546.8175510204081	546.9916780045352	57	127
547.0033106575963	547.6186394557823	38	127
547.0033106575963	547.6186394557823	50	127
547.1890476190476	547.3632199546486	57	127
547.3632199546486	547.5489795918368	66	127
547.3632199546486	547.5489795918368	69	127
547.560589569161	547.734739229025	57	127
547.7463492063492	548.3500680272109	52	127
547.7463492063492	548.3500680272109	40	127
547.9321088435374	548.0946485260771	60	127
548.1062585034014	548.268798185941	72	127
548.1062585034014	548.268798185941	68	127
548.2804081632653	548.4661678004535	60	127
548.4661678004535	549.0234240362812	47	127
548.4661678004535	549.0234240362812	35	127
548.617074829932	548.8028571428572	63	127
548.8144671201815	548.9886167800454	71	127
548.8144671201815	548.9886167800454	75	127
548.9886167800454	549.1395464852608	63	127
549.151156462585	550.4398639455783	48	127
549.151156462585	550.4398639455783	36	127
549.325306122449	549.4994557823129	63	127
549.5110657596372	549.6968253968254	69	127
549.5110657596372	549.6968253968254	75	127
549.6968253968254	549.8709750566893	63	127
550.0683219954649	550.2424943310658	64	127
550.2540816326531	550.428253968254	67	127
550.2540816326531	550.428253968254	76	127
550.4398639455783	550.6140136054422	64	127
550.6256235827665	551.2873696145125	37	127
550.822993197279	551.0087528344671	57	127
551.0087528344671	551.2177324263039	67	127
551.2293424036282	551.3918820861678	57	127
551.4034920634921	552.1813605442177	38	127
551.5892517006803	551.7750113378685	59	127
551.7866213151927	551.972380952381	67	127
551.9839909297052	552.1813605442177	59	127
552.1813605442177	552.5644897959183	50	127
553.8067573696145	554.2363265306122	38	127
553.8067573696145	554.2363265306122	50	127
554.6775056689343	555.7572335600908	43	127
554.6775056689343	554.8748752834467	50	127
554.8748752834467	555.0606349206349	59	127
555.0722448979592	555.2231746031746	62	127
555.2347845804989	555.3973242630385	59	127
555.4089342403628	555.5598639455783	50	127
555.5714512471656	555.7572335600908	59	127
555.7572335600908	556.1403628117914	38	127
555.7572335600908	555.9546031746032	62	127
555.9546031746032	556.1403628117914	59	127
556.1403628117914	556.3145124716553	55	127
556.1403628117914	557.2433106575963	47	127
556.3261224489796	556.5002721088435	64	127
556.5118820861678	556.6860317460317	67	127
556.697641723356	556.8717913832199	64	127
556.8834013605442	557.0691609977324	56	127
557.0691609977324	557.2433106575963	62	127
557.2433106575963	557.4406802721088	66	127
557.2433106575963	557.6380498866213	40	127
557.4522902494331	557.6264172335601	62	127
557.6380498866213	557.8121995464853	55	127
557.6380498866213	558.8338775510205	45	127
557.8237868480726	557.9863492063492	62	127
557.9979591836735	558.1721088435374	64	127
558.1837188208617	558.3462585034014	62	127
558.3462585034014	558.5320181405896	61	127
558.3462585034014	558.5320181405896	57	127
558.5320181405896	558.6597278911564	69	127
558.6713378684807	558.8338775510205	59	127
558.8338775510205	558.9964172335601	69	127
559.0080272108844	559.1821768707483	60	127
559.0080272108844	559.7278458049886	52	127
559.1937868480726	559.3679365079365	67	127
559.3679365079365	559.5536961451247	71	127
559.5536961451247	559.7162358276644	67	127
559.7278458049886	561.4112925170068	50	127
559.7278458049886	559.9019954648526	60	127
559.9136054421768	560.0761224489796	66	127
560.0761224489796	560.2386848072563	72	127
560.2502947845805	560.4128344671202	66	127
560.4244444444445	560.5985941043084	59	127
560.5985941043084	560.7495238095238	67	127
560.7495238095238	560.8772335600908	71	127
560.888820861678	561.0281632653061	67	127
561.0397732426304	561.2139229024943	59	127
561.2255328798186	561.4112925170068	67	127
561.4229024943311	561.6202721088436	49	127
561.4229024943311	561.6202721088436	71	127
561.6202721088436	561.8060317460317	47	127
561.6202721088436	561.8060317460317	67	127
561.8060317460317	562.5722902494331	54	127
561.8060317460317	561.99179138322	59	127
561.99179138322	562.1891609977324	62	127
562.2007709750567	562.3749206349206	69	127
562.3865306122449	562.5606802721088	62	127
562.5722902494331	562.7348072562359	59	127
562.5722902494331	563.1295464852608	52	127
562.7464172335601	562.920589569161	62	127
562.920589569161	563.0831292517007	68	127
563.0831292517007	563.2456689342404	62	127
563.2572789115646	564.4879365079365	45	127
563.2572789115646	563.4198185941043	59	127
563.4314285714286	563.5939682539682	67	127
563.6055782312925	563.7797278911564	71	127
563.7913378684807	563.9306575963719	67	127
563.9422675736962	564.1164172335601	61	127
564.1164172335601	564.3021768707483	67	127
564.3021768707483	564.4763265306123	73	127
564.4879365079365	564.6388662131519	67	127
564.6504761904762	564.8246258503401	62	127
564.6504761904762	565.9159637188209	48	127
564.8362358276644	565.0103854875283	71	127
565.0219954648526	565.1729251700681	74	127
565.1845124716554	565.3702947845806	71	127
565.3702947845806	565.5560544217687	62	127
565.5560544217687	565.7185941043084	69	127
565.7302040816327	565.9043537414966	74	127
565.9159637188209	566.0668934240363	69	127
566.0785034013605	566.2294331065759	62	127
566.0785034013605	567.0073015873016	47	127
566.2410430839002	566.4267800453515	69	127
566.4267800453515	566.6125396825397	74	127
566.6125396825397	566.7983219954649	69	127
566.8099092970522	566.9608616780046	62	127
566.9608616780046	567.1234013605442	67	127
567.1350113378685	567.5065306122449	38	127
567.1350113378685	567.3091609977324	74	127
567.1350113378685	567.5065306122449	26	127
567.3207709750567	567.4949206349206	67	127
567.5065306122449	568.52820861678	35	127
567.5065306122449	567.6226303854876	55	127
567.5065306122449	568.52820861678	47	127
567.6226303854876	567.7851700680272	64	127
567.7851700680272	567.9709297052154	67	127
567.9825396825397	568.1566893424036	64	127
568.1682993197279	568.3308390022676	56	127
568.3424489795918	568.5165986394558	62	127
568.52820861678	568.9113378684807	28	127
568.52820861678	568.9113378684807	40	127
568.52820861678	568.7139682539682	66	127
568.7255782312925	568.9113378684807	62	127
568.9113378684807	570.1071428571429	45	127
568.9113378684807	570.1071428571429	33	127
568.9113378684807	569.0854875283446	55	127
569.0854875283446	569.2480272108844	62	127
569.2596371882087	569.4337868480726	64	127
569.4453968253969	569.6195464852608	62	127
569.6311564625851	569.7936961451247	61	127
569.6311564625851	569.7936961451247	57	127
569.805306122449	569.9678458049887	69	127
569.9678458049887	570.1071428571429	59	127
570.1071428571429	570.2116553287982	69	127
570.2116553287982	570.3858049886621	60	127
570.2116553287982	570.8850340136055	52	127
570.2116553287982	570.8850340136055	40	127
570.3974149659864	570.5599546485261	67	127
570.5715646258503	570.7457142857143	71	127
570.7573242630385	570.8850340136055	67	127
570.8850340136055	572.6381405895692	50	127
570.8850340136055	571.0707936507937	72	127
570.8850340136055	572.6381405895692	38	127
571.0707936507937	571.2449433106576	66	127
571.2449433106576	571.4074829931973	60	127
571.4190929705215	571.5932426303855	72	127
571.6048526077097	571.7673922902494	71	127
571.7790022675737	571.9415192743764	67	127
571.9531519274376	572.0808616780046	64	127
572.0924716553288	572.278231292517	59	127
572.278231292517	572.4407709750567	71	127
572.4407709750567	572.6265306122449	67	127
572.6381405895692	572.8122902494331	37	127
572.6381405895692	572.8006802721088	62	127
572.6381405895692	572.8122902494331	49	127
572.8122902494331	572.986439909297	47	127
572.8122902494331	572.9748299319727	59	127
572.8122902494331	572.986439909297	35	127
572.986439909297	573.7178684807257	42	127
572.986439909297	573.1373696145125	71	127
572.986439909297	573.7178684807257	54	127
573.1489569160998	573.334739229025	69	127
573.334739229025	573.5204988662132	62	127
573.5204988662132	573.7062585034014	59	127
573.7178684807257	574.2751473922903	52	127
573.7178684807257	574.2751473922903	40	127
573.7178684807257	573.8804081632653	71	127
573.8920181405896	574.042947845805	68	127
574.0545578231292	574.2054875283446	62	127
574.2170975056689	574.391224489796	59	127
574.4028571428571	574.5653968253969	71	127
574.4028571428571	575.6451247165533	33	127
574.4028571428571	575.6451247165533	45	127
574.5653968253969	574.7511564625851	67	127
574.7511564625851	574.925306122449	59	127
574.9369160997733	575.0762358276644	67	127
575.0878458049887	575.2736054421769	73	127
575.2852154195011	575.4709750566893	67	127
575.4709750566893	575.6451247165533	61	127
575.6451247165533	575.807641723356	67	127
575.807641723356	575.9353741496599	62	127
575.807641723356	576.9802721088436	36	127
575.807641723356	576.9802721088436	48	127
575.9353741496599	576.0630839002267	71	127
576.074693877551	576.202403628118	74	127
576.2140136054422	576.4113832199547	62	127
576.422970521542	576.5855328798186	69	127
576.5971428571429	576.7712925170068	74	127
576.7829024943311	576.9802721088436	78	127
576.9802721088436	577.1892517006803	81	127
577.2008616780046	577.5491609977324	34	127
577.2008616780046	577.5491609977324	46	127
577.2008616780046	577.5607709750567	86	127
577.5607709750567	577.9090702947846	82	127
577.5607709750567	577.7233106575964	46	127
577.7349206349206	577.9090702947846	53	127
577.9090702947846	578.2921995464852	77	127
577.9090702947846	578.0832199546485	58	127
578.0948299319728	578.2921995464852	62	127
578.2921995464852	578.4779365079365	58	127
578.2921995464852	578.6521088435375	74	127
578.4895464852608	578.6404988662132	53	127
578.6521088435375	578.8262585034014	46	127
578.6521088435375	579.0004081632653	79	127
578.8262585034014	578.988798185941	55	127
579.0004081632653	579.1745578231292	58	127
579.0004081632653	579.3719274376417	86	127
579.1745578231292	579.3603174603174	62	127
579.3719274376417	579.8943764172336	89	127
579.3719274376417	579.5344671201814	56	127
579.5460770975056	579.7085941043084	62	127
579.7085941043084	579.8827664399093	65	127
579.8943764172336	580.0801360544218	80	127
580.0801360544218	580.26589569161	46	127
580.0801360544218	580.4516553287982	79	127
580.26589569161	580.4400453514739	55	127
580.4516553287982	580.6490249433107	58	127
580.4516553287982	580.8463945578231	86	127
580.6490249433107	580.8347845804989	62	127
580.8463945578231	581.3688435374149	89	127
580.8463945578231	581.0089342403628	56	127
581.0205442176871	581.1830839002267	62	127
581.1830839002267	581.3572335600907	65	127
581.3688435374149	581.542970521542	80	127
581.542970521542	581.7055328798186	35	127
581.542970521542	582.0654421768708	79	127
581.7055328798186	581.8796825396826	47	127
581.8912925170068	582.0654421768708	50	127
582.0654421768708	582.251201814059	86	127
582.0654421768708	582.251201814059	55	127
582.2628117913832	582.8897505668934	86	127
582.2628117913832	582.4253514739229	59	127
582.4485714285714	582.6459410430839	55	127
582.6459410430839	582.8200907029478	50	127
582.8317006802721	583.0174603174603	47	127
583.0174603174603	583.7256689342404	45	127
583.2032199546485	583.3657596371883	55	127
583.3773469387755	583.5515192743765	60	127
583.5515192743765	583.7140589569161	64	127
583.7256689342404	584.410634920635	38	127
583.8998185941043	584.0507482993197	59	127
584.0507482993197	584.2248979591836	62	127
584.2365079365079	584.410634920635	66	127
584.410634920635	585.1304761904762	45	127
584.5964172335601	584.7473469387755	55	127
584.7589569160998	584.9331065759637	60	127
584.9331065759637	585.1188662131519	64	127
585.1304761904762	585.827052154195	38	127
585.3046258503401	585.4787755102041	59	127
585.4787755102041	585.6412925170068	62	127
585.652925170068	585.827052154195	66	127
585.827052154195	586.535283446712	45	127
586.0128344671202	586.1637641723356	55	127
586.1753741496599	586.3495238095238	60	127
586.3495238095238	586.5236734693877	64	127
586.535283446712	587.2434920634921	38	127
586.709433106576	586.8951927437641	59	127
586.9068027210884	587.0577097505669	62	127
587.0693197278912	587.2434920634921	66	127
587.2434920634921	587.9749206349206	39	127
587.2434920634921	587.9749206349206	27	127
587.4292517006803	587.6150113378685	66	127
587.6266213151928	587.7891609977324	54	127
587.7891609977324	587.9633106575964	63	127
587.9749206349206	588.6831292517007	34	127
587.9749206349206	588.1490702947846	55	127
587.9749206349206	588.6831292517007	46	127
588.1490702947846	588.3116099773242	63	127
588.3232199546485	588.4973469387755	67	127
588.5089569160998	588.6831292517007	55	127
588.6831292517007	589.4493877551021	43	127
588.6831292517007	589.4493877551021	31	127
588.8688888888889	589.0314285714286	70	127
589.0778684807257	589.2520181405896	58	127
589.2520181405896	589.4377777777778	67	127
589.4493877551021	590.1111564625851	50	127
589.4493877551021	590.1111564625851	38	127
589.4493877551021	589.623537414966	59	127
589.623537414966	589.7512471655328	67	127
589.7628571428571	589.9253741496599	71	127
589.9369841269842	590.1111564625851	59	127
590.1111564625851	590.7961451247165	27	127
590.1111564625851	590.7961451247165	39	127
590.2969160997733	590.459455782313	66	127
590.459455782313	590.6336054421769	54	127
590.6452154195011	590.7845351473923	63	127
590.7961451247165	591.4579138321996	46	127
590.7961451247165	591.4579138321996	34	127
590.7961451247165	590.9702947845805	55	127
590.9702947845805	591.121224489796	63	127
591.121224489796	591.2837641723356	67	127
591.2953741496599	591.4579138321996	55	127
591.4579138321996	592.2009523809523	31	127
591.4579138321996	592.2009523809523	43	127
591.6436734693877	591.829433106576	70	127
591.829433106576	592.0035827664399	58	127
592.0151927437641	592.1893197278912	67	127
592.2009523809523	592.8859410430839	50	127
592.2009523809523	592.3866893424037	59	127
592.2009523809523	592.8859410430839	38	127
592.3866893424037	592.5492517006803	67	127
592.5492517006803	592.7001814058957	71	127
592.71179138322	592.8859410430839	59	127
592.8859410430839	593.5709297052155	39	127
592.8859410430839	593.5709297052155	27	127
593.0484807256236	593.1993877551021	66	127
593.1993877551021	593.3851700680273	54	127
593.3967573696145	593.5593197278912	63	127
593.5709297052155	594.2326757369615	46	127
593.5709297052155	594.2326757369615	34	127
593.5709297052155	593.7102494331066	55	127
593.7102494331066	593.8727891156462	63	127
593.8843990929705	594.0469387755102	67	127
594.0469387755102	594.2210657596372	55	127
594.2326757369615	595.6490929705216	48	127
594.2326757369615	595.6490929705216	36	127
594.2326757369615	594.3139682539683	58	127
594.3139682539683	594.3952380952381	67	127
594.4068480725624	594.4881179138322	63	127
594.4997278911565	594.5809977324263	67	127
594.5809977324263	594.6622675736961	58	127
594.6738775510204	594.7667573696145	67	127
594.7783673469388	594.8596371882086	55	127
594.8596371882086	594.9525170068027	67	127
594.964126984127	595.0453741496599	63	127
595.057006802721	595.1382766439909	69	127
595.1382766439909	595.2195464852608	65	127
595.2311564625851	595.3124263038549	69	127
595.3240362811791	595.405306122449	63	127
595.4169160997733	595.4865759637188	69	127
595.4865759637188	595.5562358276644	57	127
595.5678458049887	595.6375056689343	69	127
595.6490929705216	596.2992743764172	34	127
595.6490929705216	595.6839455782313	63	127
595.6490929705216	596.2992743764172	46	127
595.6839455782313	595.7652154195011	70	127
595.7768253968254	595.8580725623583	65	127
595.8696825396826	595.9509750566893	70	127
595.9509750566893	596.020634920635	63	127
596.0322448979592	596.113514739229	70	127
596.1251247165533	596.2063945578232	58	127
596.2063945578232	596.2876643990929	70	127
596.2992743764172	597.0074829931973	33	127
596.2992743764172	597.0074829931973	45	127
596.2992743764172	596.3805442176871	63	127
596.3921541950114	596.46179138322	72	127
596.46179138322	596.554693877551	67	127
596.554693877551	596.6359637188209	72	127
596.6475736961452	596.728843537415	63	127
596.7404535147392	596.8217233560091	72	127
596.8217233560091	596.9029931972789	60	127
596.9146031746031	596.995873015873	72	127
597.0074829931973	597.7040589569161	43	127
597.0074829931973	597.0771201814059	63	127
597.0074829931973	597.7040589569161	31	127
597.0771201814059	597.1468027210884	72	127
597.1584126984127	597.2396825396826	68	127
597.2512925170068	597.3209523809523	72	127
597.3209523809523	597.4022222222222	63	127
597.4138321995465	597.4950793650794	72	127
597.5183219954648	597.611201814059	60	127
597.611201814059	597.7040589569161	72	127
597.7040589569161	598.365850340136	53	127
597.7040589569161	597.7853514739229	68	127
597.7040589569161	598.365850340136	41	127
597.7969614512472	597.8666213151928	74	127
597.8782312925171	597.9478911564626	72	127
597.9478911564626	598.0059410430839	74	127
598.0175510204082	598.0987981859411	68	127
598.0987981859411	598.1800907029478	74	127
598.1800907029478	598.2613605442177	62	127
598.272970521542	598.3542403628118	74	127
598.365850340136	599.0160090702948	51	127
598.365850340136	599.0160090702948	39	127
598.365850340136	598.4355102040817	68	127
598.4355102040817	598.5167573696145	75	127
598.5283673469388	598.5980498866213	72	127
598.6096598639456	598.6793197278912	75	127
598.6793197278912	598.760589569161	68	127
598.7721995464852	598.8534693877551	75	127
598.8534693877551	598.934716553288	63	127
598.9463492063492	599.0160090702948	75	127
599.0160090702948	599.0972789115647	68	127
599.0160090702948	600.3511337868481	50	127
599.0160090702948	600.3511337868481	38	127
599.1088888888889	599.1901587301587	77	127
599.201768707483	599.2830385487529	72	127
599.2830385487529	599.3643083900226	77	127
599.3759183673469	599.4571882086168	68	127
599.4804081632653	599.5616780045351	77	127
599.5616780045351	599.642947845805	65	127
599.6545578231293	599.7358049886622	77	127
599.7474149659864	599.8287074829932	69	127
599.8287074829932	599.9099773242631	78	127
599.9215873015874	599.9796371882086	72	127
599.9796371882086	600.0492970521542	78	127
600.0492970521542	600.0957369614513	69	127
600.0957369614513	600.177006802721	78	127
600.1886167800453	600.2698866213152	66	127
600.2814965986395	600.3511337868481	78	127
600.3511337868481	601.0245351473923	39	127
600.3511337868481	601.0245351473923	51	127
600.3511337868481	600.3859863945578	69	127
600.3975963718821	600.478866213152	78	127
600.4904761904762	600.5717233560091	71	127
600.5717233560091	600.6530158730159	78	127
600.6646258503401	600.74589569161	69	127
600.7574829931973	600.8387755102041	78	127
600.8387755102041	600.920045351474	66	127
600.9316553287982	601.012925170068	78	127
601.0245351473923	601.1058049886622	68	127
601.0245351473923	601.674693877551	40	127
601.0245351473923	601.674693877551	52	127
601.1058049886622	601.1986848072562	76	127
601.1986848072562	601.2683446712018	71	127
601.2799546485261	601.3263945578232	76	127
601.3380045351474	601.4192743764172	68	127
601.4192743764172	601.4889342403628	76	127
601.5005442176871	601.58179138322	64	127
601.5934013605442	601.674693877551	76	127
601.674693877551	602.3480725623583	47	127
601.674693877551	601.7559637188209	64	127
601.674693877551	602.3480725623583	35	127
601.7675736961452	601.848843537415	71	127
601.848843537415	601.9185034013606	68	127
601.9185034013606	601.9997505668935	71	127
601.9997505668935	602.069433106576	64	127
602.0810430839002	602.1623129251701	71	127
602.1623129251701	602.2435827664399	59	127
602.2551927437642	602.336462585034	71	127
602.3480725623583	602.9750113378685	44	127
602.3480725623583	602.4293424036281	64	127
602.3480725623583	602.9750113378685	32	127
602.4293424036281	602.510612244898	71	127
602.510612244898	602.5918820861679	68	127
602.6034693877551	602.6615419501134	71	127
602.6731519274376	602.7544217687075	64	127
602.7544217687075	602.8356916099773	71	127
602.8356916099773	602.8821315192744	59	127
602.8937414965986	602.9750113378685	71	127
602.9750113378685	603.6716099773242	35	127
602.9750113378685	603.0562811791383	63	127
602.9750113378685	603.6716099773242	47	127
603.0678911564626	603.1375510204082	71	127
603.1491609977325	603.2304081632653	68	127
603.2304081632653	603.3117006802721	71	127
603.3117006802721	603.3813605442177	63	127
603.392970521542	603.4742403628118	71	127
603.4742403628118	603.5787301587302	59	127
603.5787301587302	603.66	71	127
603.6716099773242	604.4030385487529	39	127
603.6716099773242	604.4030385487529	51	127
603.6716099773242	603.7528798185941	63	127
603.7644897959184	603.8457596371882	71	127
603.8457596371882	603.9386394557823	68	127
603.9502494331066	604.0431065759637	71	127
604.0547392290249	604.1360090702948	63	127
604.1360090702948	604.2172789115647	71	127
604.228866213152	604.3101587301587	59	127
604.321768707483	604.4030385487529	71	127
604.4030385487529	604.4843083900226	63	127
604.4030385487529	605.0996371882086	27	127
604.4030385487529	605.0996371882086	39	127
604.5075283446712	604.5887981859411	71	127
604.6004081632653	604.6816780045351	68	127
604.6816780045351	604.762947845805	71	127
604.7745578231293	604.8558049886622	63	127
604.8674149659864	604.9254875283447	71	127
604.9370975056689	605.0183673469388	59	127
605.0183673469388	605.0880272108843	71	127
605.0996371882086	605.7962358276644	43	127
605.0996371882086	605.7962358276644	31	127
605.0996371882086	605.1809070294785	59	127
605.1925170068027	605.2737641723356	67	127
605.2737641723356	605.3550566893424	63	127
605.3666666666667	605.4479365079366	67	127
605.4595238095238	605.5175963718821	59	127
605.5175963718821	605.598866213152	67	127
605.6104761904762	605.7033560090703	55	127
605.7149659863945	605.7962358276644	67	127
605.7962358276644	605.8774829931973	59	127
605.7962358276644	606.5276643990929	47	127
605.7962358276644	606.5276643990929	35	127
605.8890929705216	605.9819954648526	67	127
605.9936054421769	606.0632653061225	62	127
606.0632653061225	606.1561451247165	67	127
606.1561451247165	606.2374149659864	59	127
606.2490249433107	606.3302947845805	67	127
606.3419047619047	606.4347845804989	55	127
606.4347845804989	606.5160544217687	67	127
606.5276643990929	606.6089342403628	59	127
606.5276643990929	607.2010430839002	50	127
606.5276643990929	607.2010430839002	38	127
606.6205442176871	606.6669841269842	67	127
606.6669841269842	606.748253968254	62	127
606.7714739229025	606.8527437641724	67	127
606.8527437641724	606.9340136054421	59	127
606.9340136054421	607.015283446712	67	127
607.0268934240363	607.1081405895692	55	127
607.1197732426303	607.2010430839002	67	127
607.2010430839002	607.9324489795919	26	127
607.2010430839002	607.2939229024944	59	127
607.2010430839002	607.9324489795919	38	127
607.2939229024944	607.3751927437642	67	127
607.3868027210884	607.4680725623583	62	127
607.4796825396826	607.5609523809524	67	127
607.5609523809524	607.6422222222222	59	127
607.6538321995465	607.7583219954648	67	127
607.7699319727891	607.851201814059	55	127
607.851201814059	607.9208390022676	67	127
607.9324489795919	608.0137414965986	64	127
607.9324489795919	608.6639002267574	43	127
607.9324489795919	608.6639002267574	31	127
608.0253514739229	608.1066213151928	71	127
608.1066213151928	608.1878911564626	67	127
608.1995011337868	608.292380952381	71	127
608.3039909297053	608.385260770975	64	127
608.385260770975	608.4665306122449	71	127
608.4781405895692	608.559410430839	59	127
608.5710204081632	608.6522902494331	71	127
608.6639002267574	609.3837188208616	35	127
608.6639002267574	609.3837188208616	47	127
608.6639002267574	608.7451473922903	63	127
608.7451473922903	608.826439909297	71	127
608.8380498866213	608.9309297052155	68	127
608.9425170068027	609.0238095238095	71	127
609.0238095238095	609.1050793650794	63	127
609.1166893424037	609.1979591836734	71	127
609.2095691609977	609.2908390022676	59	127
609.2908390022676	609.3721088435374	71	127
609.3837188208616	610.103537414966	39	127
609.3837188208616	609.4649886621315	63	127
609.3837188208616	610.103537414966	51	127
609.4765986394558	609.5578458049887	71	127
609.5578458049887	609.6391383219955	68	127
609.6507482993197	609.7320181405896	71	127
609.7436281179139	609.8016780045351	63	127
609.8016780045351	609.9061678004535	71	127
609.9061678004535	609.9990476190476	59	127
610.0106575963719	610.0919274376417	71	127
610.103537414966	610.8465759637188	27	127
610.103537414966	610.1848072562358	63	127
610.103537414966	610.8465759637188	39	127
610.1848072562358	610.2660770975057	71	127
610.2776870748299	610.3589569160998	68	127
610.3705442176871	610.4518367346939	71	127
610.4518367346939	610.5563265306123	63	127
610.5679138321996	610.6608163265306	71	127
610.6724263038549	610.7536961451248	59	127
610.7536961451248	610.8349659863945	71	127
610.8465759637188	610.9626757369615	59	127
610.8465759637188	611.4619047619047	43	127
610.8465759637188	611.4619047619047	31	127
610.9742857142858	611.0555555555555	67	127
611.0555555555555	611.1484353741497	63	127
611.1484353741497	611.2180952380952	67	127
611.2297052154195	611.3109750566894	59	127
611.3225850340136	611.4038321995465	67	127
611.4038321995465	611.473514739229	55	127
611.4851247165533	611.5663945578232	67	127
611.5780045351474	611.6592743764172	59	127
611.5780045351474	612.0772335600907	47	127
611.5780045351474	612.0772335600907	35	127
611.6592743764172	611.7289342403628	67	127
611.7405442176871	611.7753741496599	62	127
611.7753741496599	611.8450340136054	67	127
611.8450340136054	611.9263038548753	59	127
611.9379138321996	612.0075510204082	67	127
612.0191609977325	612.1004535147392	55	127
612.1004535147392	612.1817233560091	67	127
612.1933333333334	612.7390022675737	50	127
612.1933333333334	612.7390022675737	38	127
612.1933333333334	612.2746031746032	59	127
612.2746031746032	612.3442630385488	67	127
612.355873015873	612.4255102040817	62	127
612.4255102040817	612.4951927437642	67	127
612.5068027210884	612.5880725623583	59	127
612.6112925170069	612.6925623582766	67	127
612.6925623582766	612.750612244898	55	127
612.7622222222222	612.843492063492	67	127
612.8551020408163	612.9363718820862	59	127
612.8551020408163	613.4471882086168	26	127
612.8551020408163	613.4471882086168	38	127
612.9363718820862	613.0292290249433	67	127
613.0408390022676	613.1221315192744	62	127
613.1337414965986	613.2150113378685	67	127
613.2150113378685	613.2962811791383	59	127
613.3078911564626	613.3775510204082	67	127
613.3891609977325	613.4704308390022	55	127
613.4704308390022	613.5517006802721	67	127
613.5517006802721	613.632970521542	59	127
613.5517006802721	614.1554195011338	31	127
613.5517006802721	614.1554195011338	43	127
613.6445578231293	613.7374603174603	67	127
613.7490702947846	613.8303401360545	63	127
613.8303401360545	613.9116099773242	67	127
613.9232199546485	614.0044897959184	59	127
614.0160997732427	614.0973696145124	67	127
614.0973696145124	614.1786394557823	55	127
614.1902494331066	614.2714965986395	67	127
614.2831292517006	614.8404081632654	47	127
614.2831292517006	614.3643990929705	59	127
614.2831292517006	614.8404081632654	35	127
614.3643990929705	614.4456689342404	67	127
614.4572562358277	614.5385487528345	62	127
614.5501587301587	614.6314285714286	67	127
614.6314285714286	614.7126984126984	59	127
614.7126984126984	614.7939682539683	67	127
614.7939682539683	614.8636054421769	55	127
614.8752154195012	614.9565079365079	67	127
614.9565079365079	615.0377777777778	59	127
614.9565079365079	615.5718367346939	50	127
614.9565079365079	615.5718367346939	38	127
615.0493877551021	615.1306575963719	67	127
615.1422675736961	615.223537414966	62	127
615.223537414966	615.3048072562358	67	127
615.3164172335601	615.39768707483	59	127
615.4092970521542	615.5021768707483	67	127
615.5021768707483	615.5950566893424	55	127
615.6066666666667	615.6879138321996	67	127
615.6995238095238	615.7808163265306	59	127
615.6995238095238	616.2916553287982	38	127
615.6995238095238	616.2916553287982	26	127
615.7808163265306	615.8620861678005	67	127
615.8736961451248	615.9549659863945	62	127
615.9665759637188	616.0478458049887	67	127
616.059455782313	616.1407256235827	59	127
616.1407256235827	616.2219954648526	67	127
616.2336054421769	616.3148526077098	55	127
616.3264852607709	616.4193650793651	67	127
616.4193650793651	617.0230839002268	29	127
616.4193650793651	617.0230839002268	41	127
616.6051247165533	616.7792743764172	55	127
616.7792743764172	616.9534240362811	59	127
616.9534240362811	617.1391836734693	62	127
617.1507936507936	618.4859410430839	40	127
617.1507936507936	618.4859410430839	28	127
617.3481632653061	617.5687528344671	55	127
617.5687528344671	617.7428798185941	59	127
617.7428798185941	617.9170521541951	64	127
618.1144217687075	618.3001814058957	56	127
618.3001814058957	618.4859410430839	59	127
618.4859410430839	618.6600907029479	64	127
618.6717006802721	619.0316099773243	37	127
619.0316099773243	619.2057596371882	35	127
619.2057596371882	619.3798866213152	33	127
619.3798866213152	619.9836054421769	29	127
619.3798866213152	619.9836054421769	41	127
619.5656462585034	619.7398185941043	55	127
619.7398185941043	619.9255782312925	59	127
619.9255782312925	620.0765079365079	62	127
620.0881179138322	621.3419954648526	28	127
620.0881179138322	621.3419954648526	40	127
620.2622675736961	620.4248072562358	55	127
620.4248072562358	620.5989342403628	59	127
620.5989342403628	620.784716553288	64	127
620.9820861678005	621.1562358276644	56	127
621.1562358276644	621.3419954648526	59	127
621.3419954648526	621.5045351473923	64	127
621.5161451247166	621.8295918367347	37	127
621.8295918367347	621.9921541950114	35	127
621.9921541950114	622.1663038548753	33	127
622.1663038548753	622.5146031746032	31	127
622.1663038548753	622.5146031746032	43	127
622.5146031746032	622.7003628117914	59	127
622.7003628117914	622.8512698412699	62	127
622.7003628117914	622.8512698412699	67	127
622.862902494331	623.1995918367347	50	127
622.862902494331	623.1995918367347	55	127
623.211201814059	623.3853514739229	59	127
623.3853514739229	623.5595011337869	71	127
623.3853514739229	623.5595011337869	62	127
623.5711111111111	623.919410430839	59	127
623.5711111111111	623.919410430839	55	127
623.919410430839	624.0935600907029	62	127
624.0935600907029	624.2328798185941	74	127
624.0935600907029	624.2328798185941	67	127
624.9526984126984	625.2777777777778	43	127
624.9526984126984	625.2777777777778	31	127
625.2777777777778	625.4287074829932	67	127
625.4287074829932	625.5796371882086	79	127
625.4287074829932	625.5796371882086	71	127
625.5912471655329	625.8931065759638	67	127
625.5912471655329	625.8931065759638	62	127
625.904693877551	626.078866213152	71	127
626.078866213152	626.2297959183674	74	127
626.078866213152	626.2297959183674	83	127
626.2414058956916	626.566485260771	67	127
626.2414058956916	626.566485260771	71	127
626.566485260771	626.7638548752834	74	127
626.7638548752834	626.9263718820862	86	127
626.7638548752834	626.9263718820862	79	127
627.6229931972789	628.1802721088435	31	127
627.6229931972789	628.1802721088435	43	127
628.6330612244898	629.4457596371882	59	127
628.6795011337869	629.4457596371882	62	127
628.7375510204082	629.4457596371882	67	127
628.7956009070294	629.4457596371882	71	127
628.7956009070294	629.4457596371882	74	127
628.8536507936508	629.4457596371882	79	127
628.9117006802721	629.4457596371882	83	127
628.9697278911565	629.4457596371882	86	127
630.2816780045351	630.9550566893424	43	127
630.2816780045351	630.9550566893424	31	127
631.3149659863946	632.5804535147392	59	127
631.3846258503402	632.5804535147392	62	127
631.4426530612245	632.5804535147392	67	127
631.5007256235828	632.5804535147392	74	127
631.5007256235828	632.5804535147392	71	127
631.640022675737	632.5804535147392	79	127
631.7677551020408	632.5804535147392	83	127
631.8954648526077	632.5804535147392	86	127
633.6833786848073	634.4496598639456	55	127
633.6833786848073	634.4496598639456	43	127
633.6833786848073	634.4496598639456	31	127
