# onset,offset,note,velocity
0.034058956916099774	0.3126984126984127	51	127
0.3126984126984127	0.47523809523809524	55	127
0.47523809523809524	0.6145578231292517	51	127
0.6145578231292517	0.7306575963718821	55	127
0.7422675736961452	0.8583673469387755	63	127
0.8583673469387755	0.9512471655328798	55	127
0.9512471655328798	1.0673469387755101	51	127
1.0673469387755101	1.1834467120181407	55	127
1.1950566893424037	1.322766439909297	51	127
1.322766439909297	1.4388662131519274	55	127
1.4388662131519274	1.5665759637188208	63	127
1.5665759637188208	1.6942857142857144	55	127
1.7058956916099772	1.8219954648526078	51	127
1.8219954648526078	1.938095238095238	55	127
1.938095238095238	2.0541950113378684	51	127
2.0541950113378684	2.147074829931973	55	127
2.1586848072562357	2.2747845804988662	63	127
2.2747845804988662	2.3676643990929707	55	127
2.3676643990929707	2.472154195011338	51	127
2.472154195011338	2.5882539682539685	55	127
2.5998639455782313	2.7043537414965986	51	127
2.7043537414965986	2.820453514739229	55	127
2.820453514739229	2.9365306122448978	63	127
2.9365306122448978	3.0526530612244898	55	127
3.064263038548753	3.1687528344671203	51	127
3.1687528344671203	3.2848526077097504	55	127
3.2848526077097504	3.412562358276644	51	127
3.412562358276644	3.5286621315192743	55	127
3.5402721088435376	3.644761904761905	63	127
3.644761904761905	3.760861678004535	55	127
3.760861678004535	3.8537414965986394	51	127
3.8537414965986394	3.96984126984127	55	127
3.981451247165533	4.0859410430839	51	127
4.0859410430839	4.202040816326531	55	127
4.202040816326531	4.260090702947846	63	127
4.260090702947846	4.318140589569161	55	127
4.318140589569161	4.434240362811791	51	127
4.434240362811791	4.55031746031746	55	127
4.55031746031746	4.666439909297052	51	127
4.666439909297052	4.782539682539682	55	127
4.782539682539682	4.8986167800453515	63	127
4.8986167800453515	4.991519274376417	55	127
4.991519274376417	5.084399092970521	51	127
5.084399092970521	5.212108843537415	55	127
5.212108843537415	5.3165986394557825	51	127
5.3165986394557825	5.421065759637188	55	127
5.421065759637188	5.53718820861678	63	127
5.53718820861678	5.664897959183674	55	127
5.664897959183674	5.780997732426304	51	127
5.780997732426304	5.897074829931973	55	127
5.897074829931973	6.013197278911565	51	127
6.024807256235827	6.140907029478458	55	127
6.140907029478458	6.257006802721088	63	127
6.257006802721088	6.361496598639456	55	127
6.361496598639456	6.4543764172335605	51	127
6.465986394557823	6.570476190476191	55	127
6.570476190476191	6.651746031746032	51	127
6.651746031746032	6.733015873015873	55	127
6.733015873015873	6.837505668934241	63	127
6.849115646258503	6.953605442176871	55	127
6.953605442176871	7.058095238095238	51	127
7.058095238095238	7.1741950113378685	72	127
7.058095238095238	7.1741950113378685	55	127
7.1741950113378685	7.278684807256236	70	127
7.1741950113378685	7.278684807256236	51	127
7.290294784580499	7.37156462585034	68	127
7.290294784580499	7.37156462585034	55	127
7.37156462585034	7.429614512471655	67	127
7.37156462585034	7.429614512471655	63	127
7.429614512471655	7.545714285714285	55	127
7.429614512471655	7.661814058956916	65	127
7.545714285714285	7.661814058956916	51	127
7.673424036281179	7.78952380952381	62	127
7.673424036281179	7.78952380952381	55	127
7.78952380952381	7.90562358276644	63	127
7.78952380952381	7.90562358276644	51	127
7.90562358276644	8.02172335600907	65	127
7.90562358276644	8.02172335600907	55	127
8.02172335600907	8.1378231292517	67	127
8.02172335600907	8.1378231292517	63	127
8.149433106575964	8.277142857142858	55	127
8.149433106575964	8.381632653061224	68	127
8.277142857142858	8.381632653061224	51	127
8.381632653061224	8.486122448979591	70	127
8.381632653061224	8.486122448979591	55	127
8.486122448979591	8.602222222222222	72	127
8.486122448979591	8.602222222222222	51	127
8.613832199546485	8.648639455782313	74	127
8.613832199546485	8.648639455782313	55	127
8.648639455782313	8.718321995464853	75	127
8.648639455782313	8.718321995464853	63	127
8.718321995464853	8.82281179138322	77	127
8.718321995464853	8.82281179138322	55	127
8.82281179138322	8.927301587301587	67	127
8.82281179138322	8.927301587301587	79	127
8.82281179138322	8.927301587301587	51	127
8.927301587301587	8.962131519274376	68	127
8.927301587301587	8.962131519274376	80	127
8.927301587301587	8.962131519274376	55	127
8.962131519274376	9.066621315192744	51	127
8.962131519274376	9.322040816326531	67	127
8.962131519274376	9.322040816326531	79	127
9.066621315192744	9.136281179138322	55	127
9.136281179138322	9.240770975056689	63	127
9.252380952380953	9.368480725623582	55	127
9.368480725623582	9.484580498866213	51	127
9.484580498866213	9.600657596371882	72	127
9.484580498866213	9.600657596371882	55	127
9.600657596371882	9.716780045351474	70	127
9.600657596371882	9.716780045351474	51	127
9.728390022675738	9.844489795918367	68	127
9.728390022675738	9.844489795918367	55	127
9.844489795918367	9.960589569160998	63	127
9.844489795918367	9.960589569160998	67	127
9.960589569160998	10.076666666666666	55	127
9.960589569160998	10.192789115646258	65	127
10.076666666666666	10.192789115646258	51	127
10.204399092970522	10.320498866213152	62	127
10.204399092970522	10.320498866213152	55	127
10.320498866213152	10.413378684807256	63	127
10.320498866213152	10.413378684807256	51	127
10.413378684807256	10.483038548752834	65	127
10.413378684807256	10.483038548752834	55	127
10.483038548752834	10.587528344671203	67	127
10.483038548752834	10.587528344671203	63	127
10.599138321995465	10.8081179138322	68	127
10.599138321995465	10.69201814058957	55	127
10.69201814058957	10.8081179138322	51	127
10.8081179138322	10.935827664399094	70	127
10.8081179138322	10.935827664399094	55	127
10.935827664399094	11.051927437641723	72	127
10.935827664399094	11.051927437641723	51	127
11.063537414965987	11.156417233560092	74	127
11.063537414965987	11.156417233560092	55	127
11.156417233560092	11.260907029478458	75	127
11.156417233560092	11.260907029478458	63	127
11.260907029478458	11.330566893424036	77	127
11.260907029478458	11.330566893424036	55	127
11.330566893424036	11.42344671201814	67	127
11.330566893424036	11.42344671201814	79	127
11.330566893424036	11.42344671201814	51	127
11.42344671201814	11.539546485260772	80	127
11.42344671201814	11.539546485260772	55	127
11.42344671201814	11.539546485260772	68	127
11.539546485260772	11.911065759637188	67	127
11.539546485260772	11.632426303854876	51	127
11.539546485260772	11.911065759637188	79	127
11.632426303854876	11.748526077097505	55	127
11.748526077097505	11.853015873015874	63	127
11.853015873015874	11.911065759637188	55	127
11.911065759637188	12.015555555555556	70	127
11.911065759637188	12.015555555555556	82	127
11.911065759637188	12.015555555555556	51	127
12.015555555555556	12.131655328798185	68	127
12.015555555555556	12.131655328798185	80	127
12.015555555555556	12.131655328798185	55	127
12.131655328798185	12.259365079365079	51	127
12.131655328798185	12.34063492063492	67	127
12.131655328798185	12.34063492063492	79	127
12.259365079365079	12.387074829931972	56	127
12.387074829931972	12.503174603174603	51	127
12.387074829931972	12.596054421768708	65	127
12.387074829931972	12.596054421768708	77	127
12.503174603174603	12.619274376417234	57	127
12.630884353741497	12.746984126984128	67	127
12.630884353741497	12.746984126984128	79	127
12.630884353741497	12.746984126984128	51	127
12.746984126984128	12.851473922902494	80	127
12.746984126984128	12.851473922902494	55	127
12.746984126984128	12.851473922902494	68	127
12.851473922902494	13.257823129251701	67	127
12.851473922902494	12.955963718820861	51	127
12.851473922902494	13.257823129251701	79	127
12.955963718820861	13.072063492063492	55	127
13.083673469387755	13.199773242630386	63	127
13.199773242630386	13.257823129251701	55	127
13.257823129251701	13.37392290249433	70	127
13.257823129251701	13.37392290249433	82	127
13.257823129251701	13.37392290249433	51	127
13.37392290249433	13.490022675736961	68	127
13.37392290249433	13.490022675736961	80	127
13.37392290249433	13.490022675736961	55	127
13.501632653061224	13.606122448979592	51	127
13.501632653061224	13.687392290249432	67	127
13.501632653061224	13.687392290249432	79	127
13.606122448979592	13.722222222222221	56	127
13.722222222222221	13.82671201814059	51	127
13.722222222222221	13.884761904761906	65	127
13.722222222222221	13.884761904761906	77	127
13.82671201814059	13.90798185941043	57	127
13.919591836734694	14.012471655328799	67	127
13.919591836734694	14.012471655328799	79	127
13.919591836734694	14.012471655328799	51	127
14.012471655328799	14.105351473922903	68	127
14.012471655328799	14.105351473922903	80	127
14.012471655328799	14.105351473922903	55	127
14.116961451247166	14.221451247165533	51	127
14.116961451247166	14.546530612244897	67	127
14.116961451247166	14.546530612244897	79	127
14.221451247165533	14.337551020408164	55	127
14.349160997732426	14.465260770975057	63	127
14.47687074829932	14.59297052154195	55	127
14.59297052154195	14.662630385487528	70	127
14.59297052154195	14.662630385487528	82	127
14.59297052154195	14.662630385487528	52	127
14.662630385487528	14.77873015873016	72	127
14.662630385487528	14.77873015873016	84	127
14.662630385487528	14.77873015873016	55	127
14.790340136054422	15.219909297052155	82	127
14.790340136054422	14.906439909297053	52	127
14.790340136054422	15.219909297052155	70	127
14.906439909297053	15.022539682539682	55	127
15.022539682539682	15.138639455782313	64	127
15.138639455782313	15.254739229024944	55	127
15.266349206349206	15.382448979591837	53	127
15.382448979591837	15.463718820861677	58	127
15.463718820861677	15.62625850340136	77	127
15.463718820861677	15.54498866213152	53	127
15.463718820861677	15.62625850340136	89	127
15.54498866213152	15.66108843537415	58	127
15.672698412698413	15.788798185941044	65	127
15.672698412698413	15.870068027210884	70	127
15.672698412698413	15.870068027210884	82	127
15.788798185941044	15.904897959183673	58	127
15.904897959183673	15.986167800453515	54	127
15.904897959183673	17.390975056689342	70	127
15.904897959183673	17.390975056689342	82	127
15.986167800453515	16.102267573696146	58	127
16.102267573696146	16.19514739229025	54	127
16.19514739229025	16.31124716553288	58	127
16.31124716553288	16.42734693877551	66	127
16.42734693877551	16.53183673469388	58	127
16.53183673469388	16.647936507936507	54	127
16.647936507936507	16.740816326530613	58	127
16.740816326530613	16.845283446712017	54	127
16.856916099773244	16.96140589569161	58	127
16.96140589569161	17.07750566893424	66	127
17.07750566893424	17.19360544217687	58	127
17.19360544217687	17.309705215419502	54	127
17.321315192743764	17.437414965986395	58	127
17.437414965986395	17.507074829931973	54	127
17.437414965986395	17.623174603174604	70	127
17.437414965986395	17.623174603174604	82	127
17.507074829931973	17.623174603174604	58	127
17.623174603174604	17.704444444444444	66	127
17.623174603174604	17.832154195011338	82	127
17.623174603174604	17.832154195011338	70	127
17.716054421768707	17.832154195011338	58	127
17.832154195011338	17.94825396825397	54	127
17.832154195011338	18.075963718820862	70	127
17.832154195011338	18.075963718820862	82	127
17.94825396825397	18.075963718820862	58	127
18.075963718820862	18.215283446712018	54	127
18.075963718820862	18.319773242630387	70	127
18.075963718820862	18.319773242630387	82	127
18.22689342403628	18.319773242630387	58	127
18.319773242630387	18.41265306122449	66	127
18.319773242630387	18.517142857142858	70	127
18.319773242630387	18.517142857142858	82	127
18.41265306122449	18.517142857142858	58	127
18.517142857142858	18.621609977324262	43	127
18.517142857142858	18.621609977324262	67	127
18.63324263038549	18.737732426303854	70	127
18.63324263038549	18.737732426303854	46	127
18.737732426303854	18.842222222222222	67	127
18.737732426303854	18.842222222222222	43	127
18.842222222222222	18.958321995464853	70	127
18.842222222222222	18.958321995464853	46	127
18.958321995464853	19.02798185941043	79	127
18.958321995464853	19.02798185941043	55	127
19.02798185941043	19.1324716553288	70	127
19.02798185941043	19.1324716553288	46	127
19.1324716553288	19.248571428571427	43	127
19.1324716553288	19.248571428571427	67	127
19.248571428571427	19.36467120181406	70	127
19.248571428571427	19.36467120181406	46	127
19.36467120181406	19.434331065759636	67	127
19.36467120181406	19.434331065759636	43	127
19.445918367346938	19.550430839002267	70	127
19.445918367346938	19.550430839002267	46	127
19.550430839002267	19.654920634920636	79	127
19.550430839002267	19.654920634920636	55	127
19.654920634920636	19.771020408163267	70	127
19.654920634920636	19.771020408163267	46	127
19.771020408163267	19.887097505668933	67	127
19.771020408163267	19.887097505668933	43	127
19.89873015873016	20.003219954648525	71	127
19.89873015873016	20.003219954648525	47	127
20.003219954648525	20.08448979591837	43	127
20.003219954648525	20.08448979591837	67	127
20.08448979591837	20.17736961451247	47	127
20.08448979591837	20.17736961451247	71	127
20.17736961451247	20.270226757369613	55	127
20.17736961451247	20.270226757369613	79	127
20.28185941043084	20.397936507936507	71	127
20.28185941043084	20.397936507936507	47	127
20.397936507936507	20.502448979591836	67	127
20.397936507936507	20.502448979591836	43	127
20.502448979591836	20.618548752834467	71	127
20.502448979591836	20.618548752834467	47	127
20.618548752834467	20.723038548752836	67	127
20.618548752834467	20.723038548752836	43	127
20.723038548752836	20.8275283446712	71	127
20.723038548752836	20.8275283446712	47	127
20.8275283446712	20.93201814058957	79	127
20.8275283446712	20.93201814058957	55	127
20.93201814058957	21.059727891156463	71	127
20.93201814058957	21.059727891156463	47	127
21.059727891156463	21.21065759637188	51	127
21.21065759637188	21.326757369614512	72	127
21.21065759637188	21.326757369614512	55	127
21.326757369614512	21.43124716553288	70	127
21.326757369614512	21.43124716553288	51	127
21.43124716553288	21.54734693877551	68	127
21.43124716553288	21.54734693877551	55	127
21.54734693877551	21.663424036281178	67	127
21.54734693877551	21.663424036281178	63	127
21.663424036281178	21.767936507936508	55	127
21.663424036281178	21.860816326530614	65	127
21.767936507936508	21.860816326530614	51	127
21.860816326530614	21.96530612244898	62	127
21.860816326530614	21.96530612244898	55	127
21.97691609977324	22.08140589569161	63	127
21.97691609977324	22.08140589569161	51	127
22.08140589569161	22.19750566893424	65	127
22.08140589569161	22.19750566893424	55	127
22.19750566893424	22.313605442176872	67	127
22.19750566893424	22.313605442176872	63	127
22.313605442176872	22.429705215419503	55	127
22.313605442176872	22.557414965986396	68	127
22.441315192743765	22.557414965986396	51	127
22.557414965986396	22.66190476190476	70	127
22.557414965986396	22.66190476190476	55	127
22.66190476190476	22.76639455782313	72	127
22.66190476190476	22.76639455782313	51	127
22.76639455782313	22.836054421768708	74	127
22.76639455782313	22.836054421768708	55	127
22.84766439909297	22.9637641723356	75	127
22.84766439909297	22.9637641723356	63	127
22.9637641723356	23.079863945578232	55	127
22.9637641723356	23.079863945578232	77	127
23.079863945578232	23.184331065759636	67	127
23.079863945578232	23.184331065759636	79	127
23.079863945578232	23.184331065759636	51	127
23.184331065759636	23.23079365079365	68	127
23.184331065759636	23.23079365079365	80	127
23.184331065759636	23.23079365079365	55	127
23.242403628117913	23.33528344671202	51	127
23.242403628117913	23.63714285714286	67	127
23.242403628117913	23.63714285714286	79	127
23.33528344671202	23.439750566893423	55	127
23.439750566893423	23.555873015873015	63	127
23.555873015873015	23.671972789115646	55	127
23.68358276643991	23.8112925170068	51	127
23.8112925170068	23.927392290249433	72	127
23.8112925170068	23.927392290249433	55	127
23.927392290249433	24.043492063492064	70	127
23.927392290249433	24.043492063492064	51	127
24.043492063492064	24.159591836734695	68	127
24.043492063492064	24.159591836734695	55	127
24.171201814058957	24.275691609977326	67	127
24.171201814058957	24.275691609977326	63	127
24.275691609977326	24.36857142857143	55	127
24.275691609977326	24.473061224489797	65	127
24.36857142857143	24.473061224489797	51	127
24.473061224489797	24.5659410430839	62	127
24.473061224489797	24.5659410430839	55	127
24.577551020408162	24.670430839002268	63	127
24.577551020408162	24.670430839002268	51	127
24.670430839002268	24.7865306122449	65	127
24.670430839002268	24.7865306122449	55	127
24.7865306122449	24.83297052154195	67	127
24.7865306122449	24.83297052154195	63	127
24.83297052154195	24.937460317460317	55	127
24.83297052154195	25.05356009070295	68	127
24.94907029478458	25.05356009070295	51	127
25.05356009070295	25.16965986394558	70	127
25.05356009070295	25.16965986394558	55	127
25.16965986394558	25.274149659863944	72	127
25.16965986394558	25.274149659863944	51	127
25.274149659863944	25.355419501133788	74	127
25.274149659863944	25.355419501133788	55	127
25.36702947845805	25.48312925170068	75	127
25.36702947845805	25.48312925170068	63	127
25.48312925170068	25.576009070294784	77	127
25.48312925170068	25.576009070294784	55	127
25.576009070294784	25.680498866213153	67	127
25.576009070294784	25.680498866213153	79	127
25.576009070294784	25.680498866213153	51	127
25.680498866213153	25.773378684807255	55	127
25.680498866213153	25.773378684807255	68	127
25.680498866213153	25.773378684807255	80	127
25.784988662131518	26.191337868480726	67	127
25.784988662131518	26.191337868480726	79	127
25.784988662131518	25.889478458049886	51	127
25.889478458049886	26.005578231292517	55	127
26.005578231292517	26.12167800453515	63	127
26.12167800453515	26.21455782312925	55	127
26.226167800453513	26.342267573696144	70	127
26.226167800453513	26.342267573696144	82	127
26.226167800453513	26.342267573696144	51	127
26.342267573696144	26.446757369614513	55	127
26.342267573696144	26.446757369614513	68	127
26.342267573696144	26.446757369614513	80	127
26.446757369614513	26.562857142857144	51	127
26.446757369614513	26.644126984126984	67	127
26.446757369614513	26.644126984126984	79	127
26.562857142857144	26.67895691609977	56	127
26.690566893424037	26.795056689342402	51	127
26.690566893424037	26.829886621315193	65	127
26.690566893424037	26.829886621315193	77	127
26.795056689342402	26.86471655328798	57	127
26.86471655328798	26.96920634920635	67	127
26.86471655328798	26.96920634920635	79	127
26.86471655328798	26.96920634920635	51	127
26.96920634920635	27.073696145124718	68	127
26.96920634920635	27.073696145124718	80	127
26.96920634920635	27.073696145124718	55	127
27.08530612244898	27.480045351473922	67	127
27.08530612244898	27.20140589569161	51	127
27.08530612244898	27.480045351473922	79	127
27.20140589569161	27.317505668934242	55	127
27.317505668934242	27.43360544217687	63	127
27.43360544217687	27.514875283446713	55	127
27.514875283446713	27.61936507936508	70	127
27.514875283446713	27.61936507936508	82	127
27.514875283446713	27.61936507936508	51	127
27.61936507936508	27.73546485260771	80	127
27.61936507936508	27.73546485260771	68	127
27.61936507936508	27.73546485260771	55	127
27.73546485260771	27.839954648526078	51	127
27.73546485260771	27.95605442176871	67	127
27.73546485260771	27.95605442176871	79	127
27.839954648526078	27.95605442176871	56	127
27.95605442176871	28.072154195011336	51	127
27.95605442176871	28.141814058956918	65	127
27.95605442176871	28.141814058956918	77	127
28.072154195011336	28.176643990929705	57	127
28.176643990929705	28.26952380952381	51	127
28.176643990929705	28.26952380952381	67	127
28.176643990929705	28.26952380952381	79	127
28.281133786848073	28.38562358276644	68	127
28.281133786848073	28.38562358276644	80	127
28.281133786848073	28.38562358276644	55	127
28.38562358276644	28.780362811791385	79	127
28.38562358276644	28.50172335600907	51	127
28.38562358276644	28.780362811791385	67	127
28.50172335600907	28.606213151927438	55	127
28.606213151927438	28.69909297052154	63	127
28.710702947845807	28.826802721088434	55	127
28.826802721088434	28.931292517006803	82	127
28.826802721088434	28.931292517006803	70	127
28.826802721088434	28.931292517006803	52	127
28.931292517006803	29.012562358276643	72	127
28.931292517006803	29.012562358276643	84	127
28.931292517006803	29.012562358276643	55	127
29.012562358276643	29.41891156462585	70	127
29.012562358276643	29.10544217687075	52	127
29.012562358276643	29.41891156462585	82	127
29.11705215419501	29.22154195011338	55	127
29.22154195011338	29.337641723356008	64	127
29.337641723356008	29.45374149659864	55	127
29.45374149659864	29.581451247165532	53	127
29.593061224489794	29.697551020408163	58	127
29.697551020408163	29.743990929705216	77	127
29.697551020408163	29.743990929705216	89	127
29.697551020408163	29.80204081632653	53	127
29.80204081632653	29.918140589569163	58	127
29.918140589569163	30.022630385487528	65	127
29.918140589569163	29.964580498866212	70	127
29.918140589569163	29.964580498866212	82	127
30.03424036281179	30.15034013605442	58	127
30.15034013605442	31.694467120181407	81	127
30.15034013605442	30.266439909297052	54	127
30.15034013605442	31.694467120181407	69	127
30.266439909297052	30.382539682539683	60	127
30.382539682539683	30.498639455782314	54	127
30.510249433106576	30.626349206349207	60	127
30.626349206349207	30.74244897959184	66	127
30.74244897959184	30.83532879818594	60	127
30.83532879818594	30.928208616780044	54	127
30.93981859410431	31.055918367346937	60	127
31.055918367346937	31.172018140589568	54	127
31.172018140589568	31.264897959183674	60	127
31.264897959183674	31.357777777777777	66	127
31.36938775510204	31.48548752834467	60	127
31.48548752834467	31.613197278911564	53	127
31.613197278911564	31.729297052154195	59	127
31.729297052154195	31.915056689342403	81	127
31.729297052154195	31.845396825396826	53	127
31.729297052154195	31.915056689342403	69	127
31.857006802721088	31.97310657596372	59	127
31.97310657596372	32.08920634920635	65	127
31.97310657596372	32.14725623582766	69	127
31.97310657596372	32.14725623582766	81	127
32.08920634920635	32.20530612244898	59	127
32.20530612244898	32.391065759637186	81	127
32.20530612244898	32.32140589569161	53	127
32.20530612244898	32.391065759637186	69	127
32.333015873015874	32.47233560090703	59	127
32.47233560090703	32.63487528344671	81	127
32.47233560090703	32.60004535147392	53	127
32.47233560090703	32.63487528344671	69	127
32.60004535147392	32.70453514739229	59	127
32.70453514739229	32.82063492063492	81	127
32.70453514739229	32.80902494331066	65	127
32.70453514739229	32.82063492063492	69	127
32.80902494331066	32.878684807256235	59	127
32.878684807256235	32.97156462585034	30	127
32.878684807256235	32.97156462585034	42	127
32.97156462585034	33.07605442176871	49	127
33.08766439909297	33.2037641723356	54	127
33.08766439909297	33.2037641723356	58	127
33.08766439909297	33.2037641723356	61	127
33.2037641723356	33.3314739229025	49	127
33.3314739229025	33.45918367346939	54	127
33.3314739229025	33.45918367346939	58	127
33.3314739229025	33.45918367346939	61	127
33.45918367346939	33.57528344671202	49	127
33.57528344671202	33.679750566893425	34	127
33.57528344671202	33.679750566893425	46	127
33.679750566893425	33.77265306122449	56	127
33.77265306122449	33.88875283446712	58	127
33.77265306122449	33.88875283446712	62	127
33.88875283446712	34.01646258503401	56	127
34.01646258503401	34.132562358276644	58	127
34.01646258503401	34.132562358276644	62	127
34.132562358276644	34.248662131519275	56	127
34.248662131519275	34.364761904761906	37	127
34.248662131519275	34.364761904761906	49	127
34.364761904761906	34.50408163265306	51	127
34.50408163265306	34.62018140589569	58	127
34.50408163265306	34.62018140589569	63	127
34.50408163265306	34.62018140589569	55	127
34.62018140589569	34.72467120181406	51	127
34.72467120181406	34.8175283446712	55	127
34.72467120181406	34.8175283446712	58	127
34.72467120181406	34.8175283446712	63	127
34.829138321995465	34.92204081632653	51	127
34.92204081632653	35.04975056689342	34	127
34.92204081632653	35.04975056689342	46	127
35.04975056689342	35.16585034013605	51	127
35.16585034013605	35.281950113378684	63	127
35.16585034013605	35.281950113378684	55	127
35.16585034013605	35.281950113378684	61	127
35.29356009070295	35.40965986394558	51	127
35.40965986394558	35.52575963718821	55	127
35.40965986394558	35.52575963718821	61	127
35.40965986394558	35.52575963718821	63	127
35.52575963718821	35.64185941043084	51	127
35.64185941043084	35.74634920634921	31	127
35.64185941043084	35.74634920634921	43	127
35.75795918367347	35.83920634920635	50	127
35.83920634920635	35.90888888888889	58	127
35.83920634920635	35.90888888888889	62	127
35.83920634920635	35.90888888888889	55	127
35.90888888888889	36.01337868480726	50	127
36.01337868480726	36.12947845804989	58	127
36.01337868480726	36.12947845804989	55	127
36.01337868480726	36.12947845804989	62	127
36.14108843537415	36.22233560090703	50	127
36.22233560090703	36.29201814058957	33	127
36.22233560090703	36.29201814058957	45	127
36.29201814058957	36.4081179138322	52	127
36.4081179138322	36.500997732426306	61	127
36.4081179138322	36.500997732426306	57	127
36.4081179138322	36.500997732426306	55	127
36.51260770975057	36.58226757369614	52	127
36.58226757369614	36.68675736961451	61	127
36.58226757369614	36.68675736961451	57	127
36.58226757369614	36.68675736961451	55	127
36.68675736961451	36.79124716553288	52	127
36.79124716553288	36.90734693877551	26	127
36.79124716553288	36.90734693877551	38	127
36.91895691609977	36.988616780045355	45	127
36.988616780045355	37.081496598639454	54	127
36.988616780045355	37.081496598639454	57	127
36.988616780045355	37.081496598639454	50	127
37.081496598639454	37.18598639455782	45	127
37.18598639455782	37.302086167800454	54	127
37.18598639455782	37.302086167800454	50	127
37.18598639455782	37.302086167800454	57	127
37.313696145124716	37.418185941043085	45	127
37.418185941043085	37.52267573696145	38	127
37.418185941043085	37.52267573696145	26	127
37.52267573696145	37.638775510204084	45	127
37.638775510204084	37.72004535147392	57	127
37.638775510204084	37.72004535147392	54	127
37.638775510204084	37.72004535147392	50	127
37.731632653061226	37.847755102040814	45	127
37.847755102040814	37.963854875283445	57	127
37.847755102040814	37.963854875283445	54	127
37.847755102040814	37.963854875283445	50	127
37.963854875283445	38.04512471655329	45	127
38.04512471655329	38.16122448979592	26	127
38.17283446712018	38.27732426303855	38	127
38.17283446712018	38.27732426303855	74	127
38.27732426303855	38.381791383219955	73	127
38.27732426303855	38.381791383219955	33	127
38.381791383219955	38.48630385487528	71	127
38.381791383219955	38.48630385487528	38	127
38.48630385487528	38.55596371882086	33	127
38.48630385487528	38.55596371882086	69	127
38.567573696145125	38.75331065759637	68	127
38.567573696145125	38.66045351473923	38	127
38.66045351473923	38.75331065759637	26	127
38.75331065759637	38.834603174603174	38	127
38.75331065759637	38.834603174603174	65	127
38.834603174603174	38.950702947845805	33	127
38.834603174603174	38.950702947845805	66	127
38.96231292517007	39.0784126984127	38	127
38.96231292517007	39.0784126984127	68	127
39.0784126984127	39.15968253968254	33	127
39.0784126984127	39.15968253968254	69	127
39.15968253968254	39.34544217687075	71	127
39.15968253968254	39.25256235827664	38	127
39.25256235827664	39.34544217687075	26	127
39.35705215419501	39.449931972789116	38	127
39.35705215419501	39.449931972789116	73	127
39.449931972789116	39.554421768707485	33	127
39.449931972789116	39.554421768707485	74	127
39.554421768707485	39.635668934240364	38	127
39.554421768707485	39.635668934240364	76	127
39.635668934240364	39.72857142857143	78	127
39.635668934240364	39.72857142857143	33	127
39.74018140589569	39.821451247165534	80	127
39.74018140589569	39.821451247165534	38	127
39.821451247165534	39.90269841269841	81	127
39.821451247165534	39.90269841269841	26	127
39.90269841269841	39.99560090702948	38	127
39.90269841269841	39.99560090702948	83	127
39.99560090702948	40.41356009070295	81	127
39.99560090702948	40.08848072562358	33	127
40.100090702947846	40.21619047619048	38	127
40.21619047619048	40.33229024943311	33	127
40.33229024943311	40.44839002267574	38	127
40.44839002267574	40.56448979591837	26	127
40.56448979591837	40.680589569161	38	127
40.56448979591837	40.680589569161	74	127
40.680589569161	40.808299319727894	33	127
40.680589569161	40.808299319727894	73	127
40.808299319727894	40.87795918367347	38	127
40.808299319727894	40.87795918367347	71	127
40.87795918367347	40.970839002267574	69	127
40.87795918367347	40.970839002267574	33	127
40.970839002267574	41.203038548752836	68	127
40.970839002267574	41.086938775510205	38	127
41.086938775510205	41.203038548752836	26	127
41.203038548752836	41.307528344671205	65	127
41.203038548752836	41.307528344671205	38	127
41.307528344671205	41.41199546485261	33	127
41.307528344671205	41.41199546485261	66	127
41.41199546485261	41.50489795918367	38	127
41.41199546485261	41.50489795918367	68	127
41.50489795918367	41.58616780045352	69	127
41.50489795918367	41.58616780045352	33	127
41.58616780045352	41.67902494331066	38	127
41.58616780045352	41.76031746031746	71	127
41.67902494331066	41.76031746031746	26	127
41.76031746031746	41.8415873015873	38	127
41.76031746031746	41.8415873015873	73	127
41.8415873015873	41.957687074829934	33	127
41.8415873015873	41.957687074829934	74	127
41.957687074829934	42.073786848072565	76	127
41.957687074829934	42.073786848072565	38	127
42.08539682539683	42.20149659863946	78	127
42.08539682539683	42.20149659863946	33	127
42.20149659863946	42.29437641723356	80	127
42.20149659863946	42.29437641723356	38	127
42.29437641723356	42.35242630385488	81	127
42.29437641723356	42.35242630385488	26	127
42.35242630385488	42.456916099773245	83	127
42.35242630385488	42.456916099773245	38	127
42.46852607709751	43.54825396825397	81	127
42.46852607709751	42.58462585034014	33	127
42.58462585034014	42.68909297052154	38	127
42.68909297052154	42.80521541950113	33	127
42.80521541950113	42.9097052154195	38	127
42.92131519274376	43.01419501133787	26	127
43.01419501133787	43.1302947845805	38	127
43.1302947845805	43.24639455782313	33	127
43.24639455782313	43.36249433106576	38	127
43.374104308390024	43.490204081632655	33	127
43.490204081632655	43.606303854875286	38	127
43.606303854875286	43.73401360544218	30	127
43.606303854875286	43.73401360544218	42	127
43.73401360544218	43.86172335600907	49	127
43.873333333333335	43.989433106575966	54	127
43.873333333333335	43.989433106575966	58	127
43.873333333333335	43.989433106575966	61	127
43.989433106575966	44.1055328798186	49	127
44.1055328798186	44.23324263038549	61	127
44.1055328798186	44.23324263038549	54	127
44.1055328798186	44.23324263038549	58	127
44.23324263038549	44.32612244897959	49	127
44.337709750566894	44.45383219954648	38	127
44.337709750566894	44.45383219954648	50	127
44.45383219954648	44.569931972789114	56	127
44.569931972789114	44.67442176870748	58	127
44.569931972789114	44.67442176870748	62	127
44.67442176870748	44.79052154195011	56	127
44.802131519274376	44.906621315192744	58	127
44.802131519274376	44.906621315192744	62	127
44.906621315192744	44.99950113378685	56	127
44.99950113378685	45.11560090702948	37	127
44.99950113378685	45.11560090702948	49	127
45.11560090702948	45.243310657596375	51	127
45.25492063492064	45.37102040816327	63	127
45.25492063492064	45.37102040816327	55	127
45.25492063492064	45.37102040816327	58	127
45.37102040816327	45.4871201814059	51	127
45.4871201814059	45.58	55	127
45.4871201814059	45.58	58	127
45.4871201814059	45.58	63	127
45.58	45.672879818594105	51	127
45.68448979591837	45.788979591836735	34	127
45.68448979591837	45.788979591836735	46	127
45.788979591836735	45.88185941043084	51	127
45.88185941043084	45.97473922902494	55	127
45.88185941043084	45.97473922902494	61	127
45.88185941043084	45.97473922902494	63	127
45.97473922902494	46.03278911564626	51	127
46.04439909297052	46.13727891156463	55	127
46.04439909297052	46.13727891156463	63	127
46.04439909297052	46.13727891156463	61	127
46.13727891156463	46.25337868480726	51	127
46.25337868480726	46.34625850340136	31	127
46.25337868480726	46.34625850340136	43	127
46.34625850340136	46.46235827664399	50	127
46.47396825396825	46.555238095238096	62	127
46.47396825396825	46.555238095238096	55	127
46.47396825396825	46.555238095238096	58	127
46.555238095238096	46.659727891156464	50	127
46.659727891156464	46.775827664399095	58	127
46.659727891156464	46.775827664399095	55	127
46.659727891156464	46.775827664399095	62	127
46.775827664399095	46.891927437641726	50	127
46.90353741496599	47.00800453514739	33	127
46.90353741496599	47.00800453514739	45	127
47.00800453514739	47.124104308390024	52	127
47.124104308390024	47.205396825396825	55	127
47.124104308390024	47.205396825396825	57	127
47.124104308390024	47.205396825396825	61	127
47.205396825396825	47.33310657596372	52	127
47.33310657596372	47.43759637188209	57	127
47.33310657596372	47.43759637188209	55	127
47.33310657596372	47.43759637188209	61	127
47.43759637188209	47.55369614512472	52	127
47.55369614512472	47.65818594104309	26	127
47.55369614512472	47.65818594104309	38	127
47.65818594104309	47.751065759637186	45	127
47.751065759637186	47.78589569160998	57	127
47.751065759637186	47.78589569160998	50	127
47.751065759637186	47.78589569160998	54	127
47.78589569160998	47.89038548752834	45	127
47.89038548752834	48.00648526077097	57	127
47.89038548752834	48.00648526077097	50	127
47.89038548752834	48.00648526077097	54	127
48.018095238095235	48.11097505668934	45	127
48.11097505668934	48.22707482993197	38	127
48.11097505668934	48.22707482993197	26	127
48.22707482993197	48.3431746031746	45	127
48.3431746031746	48.459274376417234	54	127
48.3431746031746	48.459274376417234	57	127
48.3431746031746	48.459274376417234	50	127
48.470884353741496	48.58698412698413	45	127
48.58698412698413	48.70308390022676	57	127
48.58698412698413	48.70308390022676	54	127
48.58698412698413	48.70308390022676	50	127
48.70308390022676	48.795963718820865	45	127
48.795963718820865	48.900453514739226	26	127
48.912063492063496	49.004943310657595	74	127
48.912063492063496	49.004943310657595	38	127
49.004943310657595	49.121043083900226	73	127
49.004943310657595	49.121043083900226	33	127
49.121043083900226	49.24875283446712	71	127
49.121043083900226	49.24875283446712	38	127
49.24875283446712	49.35324263038549	69	127
49.24875283446712	49.35324263038549	33	127
49.36485260770975	49.59705215419501	68	127
49.36485260770975	49.48095238095238	38	127
49.48095238095238	49.59705215419501	26	127
49.59705215419501	49.68993197278912	65	127
49.59705215419501	49.68993197278912	38	127
49.68993197278912	49.79442176870748	66	127
49.68993197278912	49.79442176870748	33	127
49.80603174603175	49.89891156462585	68	127
49.80603174603175	49.89891156462585	38	127
49.89891156462585	49.98018140589569	69	127
49.89891156462585	49.98018140589569	33	127
49.98018140589569	50.18916099773243	71	127
49.98018140589569	50.0730612244898	38	127
50.0730612244898	50.18916099773243	26	127
50.20077097505669	50.30526077097505	73	127
50.20077097505669	50.30526077097505	38	127
50.30526077097505	50.3865306122449	74	127
50.30526077097505	50.3865306122449	33	127
50.3865306122449	50.491020408163266	76	127
50.3865306122449	50.491020408163266	38	127
50.491020408163266	50.58390022675737	78	127
50.491020408163266	50.58390022675737	33	127
50.595510204081634	50.66517006802721	38	127
50.595510204081634	50.66517006802721	80	127
50.66517006802721	50.78126984126984	81	127
50.66517006802721	50.78126984126984	26	127
50.78126984126984	50.874149659863946	38	127
50.78126984126984	50.874149659863946	83	127
50.874149659863946	50.93219954648526	33	127
50.874149659863946	51.26888888888889	81	127
50.94380952380953	51.07151927437642	38	127
51.07151927437642	51.187619047619044	33	127
51.187619047619044	51.303718820861675	38	127
51.303718820861675	51.408208616780044	26	127
51.419818594104306	51.48947845804989	38	127
51.419818594104306	51.48947845804989	74	127
51.48947845804989	51.59396825396826	33	127
51.48947845804989	51.59396825396826	73	127
51.59396825396826	51.71006802721089	71	127
51.59396825396826	51.71006802721089	38	127
51.71006802721089	51.82616780045351	69	127
51.71006802721089	51.82616780045351	33	127
51.83777777777778	51.93065759637188	38	127
51.83777777777778	52.023537414965986	68	127
51.93065759637188	52.023537414965986	26	127
52.023537414965986	52.13963718820862	38	127
52.023537414965986	52.13963718820862	65	127
52.13963718820862	52.244126984126986	66	127
52.13963718820862	52.244126984126986	33	127
52.25573696145125	52.37183673469388	68	127
52.25573696145125	52.37183673469388	38	127
52.37183673469388	52.464716553287985	69	127
52.37183673469388	52.464716553287985	33	127
52.464716553287985	52.58081632653061	38	127
52.464716553287985	52.66208616780045	71	127
52.58081632653061	52.66208616780045	26	127
52.66208616780045	52.75496598639456	73	127
52.66208616780045	52.75496598639456	38	127
52.75496598639456	52.85945578231293	33	127
52.75496598639456	52.85945578231293	74	127
52.85945578231293	52.95233560090703	76	127
52.85945578231293	52.95233560090703	38	127
52.95233560090703	53.06843537414966	33	127
52.95233560090703	53.06843537414966	78	127
53.08004535147392	53.13809523809524	80	127
53.08004535147392	53.13809523809524	38	127
53.13809523809524	53.24258503401361	26	127
53.13809523809524	53.24258503401361	81	127
53.24258503401361	53.34707482993197	38	127
53.24258503401361	53.34707482993197	83	127
53.34707482993197	53.45156462585034	33	127
53.34707482993197	53.765034013605444	81	127
53.4631746031746	53.57927437641723	38	127
53.57927437641723	53.69537414965986	33	127
53.69537414965986	53.79986394557823	38	127
53.79986394557823	53.91596371882086	38	127
53.91596371882086	53.985623582766436	42	127
53.985623582766436	54.10172335600907	38	127
54.10172335600907	54.206213151927436	42	127
54.206213151927436	54.33392290249433	54	127
54.33392290249433	54.41519274376417	42	127
54.41519274376417	54.49646258503402	38	127
54.49646258503402	54.54290249433107	42	127
54.54290249433107	54.63578231292517	38	127
54.63578231292517	54.693832199546485	42	127
54.693832199546485	54.79832199546485	54	127
54.79832199546485	54.92603174603175	42	127
54.93764172335601	55.05374149659864	83	127
54.93764172335601	55.05374149659864	38	127
55.05374149659864	55.16984126984127	42	127
55.16984126984127	55.2859410430839	38	127
55.2859410430839	55.39043083900227	77	127
55.2859410430839	55.39043083900227	42	127
55.39043083900227	55.48331065759637	54	127
55.48331065759637	55.576190476190476	42	127
55.576190476190476	55.70390022675737	68	127
55.576190476190476	55.70390022675737	38	127
55.70390022675737	55.82	42	127
55.82	55.91287981859411	38	127
55.91287981859411	56.02897959183674	42	127
56.02897959183674	56.14507936507937	54	127
56.14507936507937	56.24956916099773	42	127
56.26117913832199	56.36566893424036	38	127
56.36566893424036	56.48176870748299	42	127
56.48176870748299	56.58625850340136	38	127
56.58625850340136	56.69074829931973	42	127
56.70235827664399	56.80684807256236	54	127
56.80684807256236	56.91133786848073	42	127
56.91133786848073	56.992607709750565	38	127
56.992607709750565	57.097097505668934	42	127
57.108707482993196	57.2015873015873	38	127
57.2015873015873	57.317687074829934	42	127
57.317687074829934	57.41056689342403	54	127
57.41056689342403	57.5150566893424	42	127
57.526666666666664	57.642766439909295	84	127
57.526666666666664	57.642766439909295	38	127
57.642766439909295	57.74725623582766	42	127
57.74725623582766	57.85174603174603	38	127
57.85174603174603	57.96784580498866	77	127
57.85174603174603	57.96784580498866	42	127
57.979455782312925	58.06072562358277	54	127
58.06072562358277	58.13038548752834	42	127
58.13038548752834	58.200045351473925	38	127
58.13038548752834	58.200045351473925	68	127
58.200045351473925	58.316145124716556	42	127
58.32775510204082	58.39741496598639	38	127
58.39741496598639	58.513514739229024	42	127
58.513514739229024	58.57156462585034	54	127
58.57156462585034	58.699274376417236	42	127
58.7108843537415	58.75732426303855	38	127
58.75732426303855	58.850204081632654	42	127
58.850204081632654	58.94308390022676	38	127
58.94308390022676	59.03596371882086	42	127
59.04757369614512	59.1172335600907	54	127
59.1172335600907	59.22172335600907	42	127
59.22172335600907	59.291383219954646	38	127
59.291383219954646	59.41909297052154	38	127
59.41909297052154	59.54680272108843	42	127
59.558412698412695	59.68612244897959	38	127
59.68612244897959	59.81383219954648	42	127
59.81383219954648	59.895102040816326	54	127
59.895102040816326	59.999591836734695	42	127
59.999591836734695	60.77746031746032	38	127
59.999591836734695	60.77746031746032	26	127
60.34789115646259	60.39433106575964	63	127
60.661360544217686	60.707800453514736	75	127
61.032879818594104	61.07931972789115	26	127
61.032879818594104	61.07931972789115	38	127
61.40439909297052	62.182267573696144	23	127
61.40439909297052	62.182267573696144	35	127
61.752698412698415	61.799138321995464	63	127
62.12421768707483	62.15904761904762	75	127
62.39124716553288	62.53056689342404	35	127
62.39124716553288	62.53056689342404	23	127
62.785986394557824	63.714784580498865	26	127
62.785986394557824	63.714784580498865	38	127
63.15750566893424	63.20394557823129	63	127
63.57546485260771	63.62190476190476	75	127
63.981814058956914	64.12113378684808	38	127
63.981814058956914	64.12113378684808	26	127
64.38816326530612	65.31696145124717	23	127
64.38816326530612	65.31696145124717	35	127
64.79451247165532	64.82934240362812	63	127
65.18925170068027	65.23569160997732	75	127
65.59560090702948	65.73492063492064	35	127
65.59560090702948	65.73492063492064	23	127
66.02517006802721	69.19469387755102	26	127
66.02517006802721	69.19469387755102	38	127
66.44312925170068	66.48956916099773	63	127
66.83784580498866	66.87269841269841	75	127
68.04530612244898	68.09174603174603	63	127
68.45165532879818	68.49807256235827	75	127
69.24111111111111	69.33401360544218	42	127
69.33401360544218	69.4501133786848	54	127
69.46172335600907	69.55460317460317	42	127
69.55460317460317	69.64746031746031	54	127
69.64746031746031	69.75195011337868	42	127
69.75195011337868	69.84485260770975	54	127
69.85646258503401	69.94934240362812	44	127
69.94934240362812	70.06544217687075	56	127
70.06544217687075	70.16993197278912	44	127
70.16993197278912	70.25120181405896	56	127
70.26278911564626	70.37891156462585	44	127
70.37891156462585	70.47179138321995	56	127
70.47179138321995	70.57628117913832	42	127
70.57628117913832	70.65755102040816	54	127
70.66916099773243	70.76204081632653	42	127
70.76204081632653	70.85492063492063	54	127
70.85492063492063	70.959410430839	42	127
70.959410430839	71.07551020408164	54	127
71.0871201814059	71.20321995464853	44	127
71.20321995464853	71.2844671201814	56	127
71.2844671201814	71.37736961451247	44	127
71.37736961451247	71.4934693877551	56	127
71.50507936507937	71.59795918367347	44	127
71.59795918367347	71.70244897959184	56	127
71.70244897959184	71.8069387755102	42	127
71.8069387755102	71.8998185941043	54	127
71.91142857142857	72.01591836734694	42	127
72.01591836734694	72.13201814058957	54	127
72.13201814058957	72.22489795918368	42	127
72.22489795918368	72.35260770975057	54	127
72.35260770975057	72.43385487528344	44	127
72.43385487528344	72.52675736961451	56	127
72.52675736961451	72.61963718820861	44	127
72.61963718820861	72.74734693877551	56	127
72.74734693877551	72.84022675736962	44	127
72.84022675736962	72.95632653061224	56	127
72.95632653061224	73.07240362811791	42	127
73.08403628117914	73.1885260770975	54	127
73.1885260770975	73.26979591836735	42	127
73.26979591836735	73.3510657596372	54	127
73.3510657596372	73.4439455782313	42	127
73.45553287981859	73.53682539682539	54	127
73.53682539682539	73.65292517006803	43	127
73.65292517006803	73.74580498866213	55	127
73.74580498866213	73.8502947845805	43	127
73.86190476190477	73.97800453514739	55	127
73.97800453514739	74.09410430839003	43	127
74.09410430839003	74.19857142857143	55	127
74.19857142857143	74.30308390022675	51	127
74.31469387755102	74.36113378684807	72	127
74.31469387755102	74.36113378684807	55	127
74.36113378684807	74.47723356009071	70	127
74.36113378684807	74.47723356009071	51	127
74.47723356009071	74.59333333333333	68	127
74.47723356009071	74.59333333333333	55	127
74.59333333333333	74.709410430839	67	127
74.59333333333333	74.709410430839	63	127
74.72104308390023	74.81392290249433	55	127
74.72104308390023	74.9184126984127	65	127
74.81392290249433	74.9184126984127	51	127
74.9184126984127	75.03451247165533	62	127
74.9184126984127	75.03451247165533	55	127
75.03451247165533	75.1390022675737	63	127
75.03451247165533	75.1390022675737	51	127
75.15061224489796	75.2667120181406	65	127
75.15061224489796	75.2667120181406	55	127
75.2667120181406	75.37120181405896	67	127
75.2667120181406	75.37120181405896	63	127
75.37120181405896	75.48730158730159	55	127
75.37120181405896	75.51052154195011	68	127
75.48730158730159	75.51052154195011	51	127
75.52213151927438	75.61501133786848	70	127
75.52213151927438	75.61501133786848	55	127
75.61501133786848	75.71950113378685	72	127
75.61501133786848	75.71950113378685	51	127
75.71950113378685	75.81238095238095	74	127
75.71950113378685	75.81238095238095	55	127
75.81238095238095	75.91687074829932	75	127
75.81238095238095	75.91687074829932	63	127
75.92848072562359	76.00975056689343	77	127
75.92848072562359	76.00975056689343	55	127
76.00975056689343	76.12585034013605	67	127
76.00975056689343	76.12585034013605	79	127
76.00975056689343	76.12585034013605	51	127
76.12585034013605	76.2187074829932	68	127
76.12585034013605	76.2187074829932	80	127
76.12585034013605	76.2187074829932	55	127
76.2187074829932	76.3	51	127
76.2187074829932	76.6250566893424	67	127
76.2187074829932	76.6250566893424	79	127
76.31160997732427	76.42770975056689	55	127
76.42770975056689	76.54380952380953	63	127
76.54380952380953	76.65990929705215	55	127
76.65990929705215	76.741179138322	51	127
76.7527664399093	76.84566893424036	72	127
76.7527664399093	76.84566893424036	55	127
76.84566893424036	76.96176870748299	70	127
76.84566893424036	76.96176870748299	51	127
76.96176870748299	77.03142857142858	68	127
76.96176870748299	77.03142857142858	55	127
77.03142857142858	77.11267573696145	67	127
77.03142857142858	77.11267573696145	63	127
77.12430839002268	77.24038548752834	55	127
77.12430839002268	77.35650793650794	65	127
77.24038548752834	77.35650793650794	51	127
77.35650793650794	77.43777777777778	62	127
77.35650793650794	77.43777777777778	55	127
77.43777777777778	77.5538775510204	63	127
77.43777777777778	77.5538775510204	51	127
77.56548752834468	77.6815873015873	65	127
77.56548752834468	77.6815873015873	55	127
77.6815873015873	77.79768707482994	63	127
77.6815873015873	77.79768707482994	67	127
77.79768707482994	77.91378684807256	55	127
77.79768707482994	78.0298866213152	68	127
77.91378684807256	78.0298866213152	51	127
78.04149659863945	78.1575963718821	70	127
78.04149659863945	78.1575963718821	55	127
78.1575963718821	78.28530612244899	72	127
78.1575963718821	78.28530612244899	51	127
78.28530612244899	78.37818594104309	74	127
78.28530612244899	78.37818594104309	55	127
78.37818594104309	78.45945578231293	75	127
78.37818594104309	78.45945578231293	63	127
78.45945578231293	78.51748299319728	77	127
78.45945578231293	78.51748299319728	55	127
78.51748299319728	78.6219954648526	67	127
78.51748299319728	78.6219954648526	79	127
78.51748299319728	78.6219954648526	51	127
78.6219954648526	78.72648526077097	68	127
78.6219954648526	78.72648526077097	80	127
78.6219954648526	78.72648526077097	55	127
78.72648526077097	79.08639455782313	67	127
78.72648526077097	78.80775510204082	51	127
78.72648526077097	79.08639455782313	79	127
78.80775510204082	78.88902494331066	55	127
78.88902494331066	79.00512471655328	63	127
79.00512471655328	79.12122448979592	55	127
79.12122448979592	79.20249433106576	70	127
79.12122448979592	79.20249433106576	82	127
79.12122448979592	79.20249433106576	51	127
79.20249433106576	79.31859410430839	68	127
79.20249433106576	79.31859410430839	80	127
79.20249433106576	79.31859410430839	55	127
79.31859410430839	79.43469387755103	51	127
79.31859410430839	79.5159410430839	67	127
79.31859410430839	79.5159410430839	79	127
79.43469387755103	79.55079365079365	56	127
79.55079365079365	79.67850340136054	51	127
79.55079365079365	79.75977324263039	65	127
79.55079365079365	79.75977324263039	77	127
79.67850340136054	79.79458049886621	57	127
79.79458049886621	79.89907029478458	67	127
79.79458049886621	79.89907029478458	79	127
79.79458049886621	79.89907029478458	51	127
79.89907029478458	79.99197278911565	68	127
79.89907029478458	79.99197278911565	80	127
79.89907029478458	79.99197278911565	55	127
80.0035827664399	80.42154195011338	79	127
80.0035827664399	80.11968253968254	51	127
80.0035827664399	80.42154195011338	67	127
80.11968253968254	80.22417233560091	55	127
80.22417233560091	80.34027210884354	63	127
80.34027210884354	80.45637188208617	55	127
80.46798185941043	80.54925170068027	70	127
80.46798185941043	80.54925170068027	82	127
80.46798185941043	80.54925170068027	51	127
80.54925170068027	80.59569160997732	68	127
80.54925170068027	80.59569160997732	80	127
80.54925170068027	80.59569160997732	55	127
80.59569160997732	80.70018140589569	51	127
80.59569160997732	80.75823129251701	67	127
80.59569160997732	80.75823129251701	79	127
80.70018140589569	80.79303854875283	56	127
80.80467120181406	80.92074829931973	51	127
80.80467120181406	80.99043083900227	65	127
80.80467120181406	80.99043083900227	77	127
80.92074829931973	81.02526077097505	57	127
81.02526077097505	81.14136054421769	67	127
81.02526077097505	81.14136054421769	79	127
81.02526077097505	81.14136054421769	51	127
81.14136054421769	81.25746031746031	68	127
81.14136054421769	81.25746031746031	80	127
81.14136054421769	81.25746031746031	55	127
81.26907029478458	81.640589569161	67	127
81.26907029478458	81.37356009070295	51	127
81.26907029478458	81.640589569161	79	127
81.37356009070295	81.47804988662132	55	127
81.47804988662132	81.5592970521542	63	127
81.5592970521542	81.67541950113379	55	127
81.68700680272109	81.80312925170068	82	127
81.68700680272109	81.80312925170068	70	127
81.68700680272109	81.80312925170068	52	127
81.80312925170068	81.9192290249433	72	127
81.80312925170068	81.9192290249433	84	127
81.80312925170068	81.9192290249433	55	127
81.9192290249433	82.20947845804989	82	127
81.9192290249433	82.02371882086167	52	127
81.9192290249433	82.20947845804989	70	127
82.02371882086167	82.05854875283447	55	127
82.07013605442177	82.16303854875284	64	127
82.16303854875284	82.24430839002268	55	127
82.24430839002268	82.38362811791383	53	127
82.38362811791383	82.49972789115647	58	127
82.51133786848072	82.69709750566894	77	127
82.51133786848072	82.62743764172336	53	127
82.51133786848072	82.69709750566894	89	127
82.62743764172336	82.73192743764173	58	127
82.73192743764173	82.83639455782313	65	127
82.73192743764173	82.91768707482993	70	127
82.73192743764173	82.91768707482993	82	127
82.83639455782313	82.95251700680272	58	127
82.96410430839002	83.08022675736962	54	127
82.96410430839002	84.39215419501134	70	127
82.96410430839002	84.39215419501134	82	127
83.08022675736962	83.19630385487528	58	127
83.19630385487528	83.27759637188208	54	127
83.27759637188208	83.38208616780045	58	127
83.39369614512472	83.48657596371882	66	127
83.48657596371882	83.5562358276644	58	127
83.5562358276644	83.67233560090703	53	127
83.67233560090703	83.78843537414966	58	127
83.80004535147393	83.91614512471655	53	127
83.91614512471655	84.02063492063492	58	127
84.02063492063492	84.13673469387756	65	127
84.13673469387756	84.25283446712018	58	127
84.26444444444445	84.36893424036282	52	127
84.36893424036282	84.42698412698412	58	127
84.42698412698412	84.51986394557824	52	127
84.42698412698412	84.63596371882086	70	127
84.42698412698412	84.63596371882086	82	127
84.51986394557824	84.6243537414966	58	127
84.63596371882086	84.82172335600907	82	127
84.63596371882086	84.728820861678	64	127
84.63596371882086	84.82172335600907	70	127
84.728820861678	84.82172335600907	58	127
84.82172335600907	85.01909297052154	70	127
84.82172335600907	84.91460317460317	52	127
84.82172335600907	85.01909297052154	82	127
84.91460317460317	85.00748299319729	58	127
85.01909297052154	85.13519274376418	52	127
85.01909297052154	85.23965986394558	70	127
85.01909297052154	85.23965986394558	82	127
85.13519274376418	85.23965986394558	58	127
85.23965986394558	85.4718820861678	82	127
85.23965986394558	85.3441723356009	64	127
85.23965986394558	85.4718820861678	70	127
85.3441723356009	85.4718820861678	58	127
85.4718820861678	85.58798185941043	40	127
85.4718820861678	85.58798185941043	28	127
85.58798185941043	85.70408163265306	71	127
85.70408163265306	85.80857142857143	69	127
85.80857142857143	85.90145124716554	52	127
85.80857142857143	85.90145124716554	68	127
85.90145124716554	86.00591836734694	66	127
86.00591836734694	86.2265306122449	64	127
86.11043083900226	86.2265306122449	40	127
86.11043083900226	86.2265306122449	52	127
86.2265306122449	86.3542403628118	63	127
86.3542403628118	86.47034013605442	64	127
86.47034013605442	86.58643990929706	66	127
86.58643990929706	86.70253968253968	68	127
86.71414965986395	86.89988662131519	70	127
86.81863945578232	86.89988662131519	40	127
86.81863945578232	86.89988662131519	28	127
86.89988662131519	87.01600907029479	72	127
87.01600907029479	87.12049886621315	74	127
87.13208616780045	87.21337868480725	52	127
87.13208616780045	87.21337868480725	76	127
87.21337868480725	87.32947845804989	78	127
87.32947845804989	87.56167800453515	79	127
87.44557823129252	87.56167800453515	52	127
87.44557823129252	87.56167800453515	40	127
87.57328798185941	87.68938775510205	86	127
87.68938775510205	87.80548752834467	84	127
87.80548752834467	87.88675736961451	83	127
87.88675736961451	88.00285714285714	81	127
88.01446712018141	88.24666666666667	80	127
88.13056689342403	88.24666666666667	36	127
88.13056689342403	88.24666666666667	48	127
88.24666666666667	88.3627664399093	78	127
88.3627664399093	88.46725623582766	76	127
88.47886621315193	88.56013605442178	48	127
88.47886621315193	88.56013605442178	74	127
88.56013605442178	88.6762358276644	72	127
88.6762358276644	88.7691156462585	71	127
88.7691156462585	88.87360544217687	37	127
88.7691156462585	88.87360544217687	49	127
88.7691156462585	88.87360544217687	70	127
88.88521541950114	88.9897052154195	63	127
88.9897052154195	89.10580498866213	65	127
89.10580498866213	89.22190476190477	67	127
89.10580498866213	89.22190476190477	49	127
89.22190476190477	89.31478458049887	68	127
89.32639455782314	89.41927437641723	70	127
89.41927437641723	89.5237641723356	51	127
89.41927437641723	89.5237641723356	39	127
89.41927437641723	89.5237641723356	71	127
89.5237641723356	89.62825396825397	73	127
89.62825396825397	89.69791383219955	75	127
89.70952380952382	89.80240362811791	51	127
89.70952380952382	89.80240362811791	77	127
89.80240362811791	89.86045351473923	79	127
89.86045351473923	89.97655328798186	80	127
89.97655328798186	90.0926530612245	82	127
89.97655328798186	90.0926530612245	32	127
89.97655328798186	90.0926530612245	44	127
90.10426303854875	90.22036281179139	83	127
90.22036281179139	90.31324263038549	85	127
90.31324263038549	90.40612244897959	87	127
90.31324263038549	90.40612244897959	44	127
90.64993197278912	90.74281179138322	28	127
90.64993197278912	90.74281179138322	40	127
90.74281179138322	90.85891156462586	71	127
90.85891156462586	90.95179138321996	69	127
90.96337868480725	91.0330612244898	52	127
90.96337868480725	91.0330612244898	67	127
91.0330612244898	91.13755102040817	66	127
91.13755102040817	91.35814058956916	64	127
91.25365079365079	91.35814058956916	52	127
91.25365079365079	91.35814058956916	40	127
91.36975056689343	91.4509977324263	63	127
91.4509977324263	91.55551020408163	64	127
91.55551020408163	91.67160997732427	66	127
91.67160997732427	91.75287981859411	67	127
91.76448979591837	91.880589569161	69	127
91.880589569161	91.99668934240363	40	127
91.880589569161	91.99668934240363	28	127
91.880589569161	91.99668934240363	70	127
91.99668934240363	92.11278911564627	72	127
92.11278911564627	92.21725623582766	74	127
92.21725623582766	92.28693877551021	76	127
92.21725623582766	92.28693877551021	52	127
92.28693877551021	92.40303854875283	78	127
92.40303854875283	92.64684807256236	79	127
92.51913832199547	92.64684807256236	40	127
92.51913832199547	92.64684807256236	52	127
92.64684807256236	92.76294784580499	86	127
92.76294784580499	92.84421768707483	84	127
92.84421768707483	92.93709750566893	83	127
92.93709750566893	93.06480725623582	81	127
93.06480725623582	93.28539682539683	80	127
93.16929705215419	93.28539682539683	36	127
93.16929705215419	93.28539682539683	48	127
93.28539682539683	93.37827664399093	78	127
93.3898866213152	93.50598639455782	76	127
93.50598639455782	93.59884353741496	48	127
93.50598639455782	93.59884353741496	74	127
93.59884353741496	93.69174603174604	72	127
93.69174603174604	93.80784580498866	71	127
93.81945578231293	93.9239455782313	37	127
93.81945578231293	93.9239455782313	49	127
93.81945578231293	93.9239455782313	70	127
93.9239455782313	94.02843537414967	63	127
94.02843537414967	94.12131519274377	65	127
94.12131519274377	94.24902494331066	49	127
94.12131519274377	94.24902494331066	67	127
94.26061224489796	94.36510204081632	68	127
94.36510204081632	94.4580045351474	70	127
94.4580045351474	94.56249433106576	51	127
94.4580045351474	94.56249433106576	71	127
94.4580045351474	94.56249433106576	39	127
94.56249433106576	94.67859410430839	73	127
94.67859410430839	94.79469387755103	75	127
94.79469387755103	94.91079365079365	77	127
94.79469387755103	94.91079365079365	51	127
94.91079365079365	94.9572335600907	79	127
94.9572335600907	95.00365079365079	80	127
95.01528344671202	95.11977324263039	44	127
95.01528344671202	95.11977324263039	82	127
95.01528344671202	95.11977324263039	32	127
95.11977324263039	95.24748299319728	83	127
95.24748299319728	95.3635827664399	85	127
95.3635827664399	95.47968253968254	44	127
95.3635827664399	95.47968253968254	87	127
95.68866213151928	95.79315192743765	28	127
95.68866213151928	95.79315192743765	52	127
95.68866213151928	95.79315192743765	40	127
95.79315192743765	95.88603174603175	55	127
95.897641723356	96.01374149659864	52	127
96.01374149659864	96.10662131519274	40	127
96.01374149659864	96.10662131519274	55	127
96.10662131519274	96.21111111111111	64	127
96.21111111111111	96.32721088435375	55	127
96.338820861678	96.44331065759637	40	127
96.338820861678	96.44331065759637	52	127
96.338820861678	96.44331065759637	28	127
96.44331065759637	96.55941043083901	55	127
96.55941043083901	96.67551020408163	52	127
96.67551020408163	96.76839002267573	55	127
96.78	96.88448979591837	64	127
96.88448979591837	96.98897959183674	55	127
96.98897959183674	97.0934693877551	40	127
96.98897959183674	97.0934693877551	52	127
96.98897959183674	97.0934693877551	28	127
97.0934693877551	97.19795918367348	55	127
97.20956916099773	97.3140589569161	52	127
97.3140589569161	97.39532879818594	55	127
97.3140589569161	97.39532879818594	40	127
97.39532879818594	97.48820861678004	64	127
97.48820861678004	97.58108843537416	55	127
97.59269841269841	97.69718820861678	52	127
97.59269841269841	97.69718820861678	28	127
97.59269841269841	97.69718820861678	40	127
97.69718820861678	97.8132879818594	55	127
97.8132879818594	97.92938775510204	52	127
97.92938775510204	98.04548752834467	55	127
98.04548752834467	98.14997732426303	64	127
98.14997732426303	98.26607709750567	55	127
98.26607709750567	98.37056689342404	52	127
98.26607709750567	98.37056689342404	38	127
98.26607709750567	98.37056689342404	50	127
98.37056689342404	98.41700680272109	56	127
98.41700680272109	98.53310657596371	52	127
98.53310657596371	98.64920634920635	56	127
98.53310657596371	98.64920634920635	50	127
98.64920634920635	98.75369614512472	64	127
98.75369614512472	98.86979591836734	56	127
98.88140589569161	98.98589569160998	53	127
98.88140589569161	98.98589569160998	36	127
98.88140589569161	98.98589569160998	48	127
98.98589569160998	99.1019954648526	62	127
99.1019954648526	99.21809523809524	53	127
99.21809523809524	99.33419501133787	48	127
99.21809523809524	99.33419501133787	62	127
99.33419501133787	99.40385487528344	65	127
99.40385487528344	99.50834467120181	62	127
99.50834467120181	99.61283446712018	53	127
99.50834467120181	99.61283446712018	31	127
99.50834467120181	99.61283446712018	43	127
99.61283446712018	99.70571428571428	62	127
99.70571428571428	99.81020408163265	53	127
99.81020408163265	99.90308390022676	62	127
99.81020408163265	99.90308390022676	43	127
99.90308390022676	100.01918367346939	65	127
100.01918367346939	100.14689342403628	62	127
100.14689342403628	100.26299319727892	54	127
100.14689342403628	100.26299319727892	32	127
100.14689342403628	100.26299319727892	46	127
100.26299319727892	100.37909297052154	60	127
100.37909297052154	100.49519274376418	54	127
100.50680272108843	100.62290249433107	45	127
100.50680272108843	100.62290249433107	60	127
100.62290249433107	100.7390022675737	66	127
100.7390022675737	100.84349206349206	60	127
100.84349206349206	100.93637188208616	28	127
100.84349206349206	100.93637188208616	40	127
100.94798185941043	101.06408163265306	83	127
101.06408163265306	101.15696145124717	81	127
101.15696145124717	101.24984126984127	40	127
101.15696145124717	101.24984126984127	79	127
101.24984126984127	101.33111111111111	78	127
101.34272108843537	101.44721088435374	76	127
101.44721088435374	101.5517006802721	40	127
101.44721088435374	101.5517006802721	28	127
101.44721088435374	101.5517006802721	74	127
101.5517006802721	101.64458049886622	72	127
101.64458049886622	101.70263038548752	71	127
101.7142403628118	101.81873015873016	69	127
101.81873015873016	101.9	67	127
101.9	101.95804988662131	66	127
101.95804988662131	102.07414965986395	67	127
101.95804988662131	102.07414965986395	55	127
102.0857596371882	102.19024943310657	67	127
102.19024943310657	102.30634920634921	66	127
102.30634920634921	102.36439909297052	64	127
102.36439909297052	102.46888888888888	62	127
102.48049886621315	102.59659863945578	60	127
102.59659863945578	102.68947845804989	62	127
102.59659863945578	102.68947845804989	50	127
102.68947845804989	102.80557823129251	60	127
102.80557823129251	102.89845804988663	59	127
102.91006802721088	103.00294784580498	57	127
103.00294784580498	103.10743764172335	55	127
103.10743764172335	103.21192743764172	54	127
103.21192743764172	103.31641723356009	28	127
103.21192743764172	103.31641723356009	40	127
103.21192743764172	103.31641723356009	52	127
103.32802721088436	103.44412698412698	55	127
103.44412698412698	103.54861678004535	52	127
103.54861678004535	103.64149659863945	40	127
103.54861678004535	103.64149659863945	55	127
103.64149659863945	103.75759637188209	64	127
103.76920634920634	103.88530612244898	55	127
103.88530612244898	103.9433560090703	52	127
103.88530612244898	103.9433560090703	28	127
103.88530612244898	103.9433560090703	40	127
103.9433560090703	104.02462585034013	55	127
104.02462585034013	104.1291156462585	52	127
104.14072562358277	104.24521541950114	55	127
104.24521541950114	104.3497052154195	64	127
104.3497052154195	104.46580498866213	55	127
104.46580498866213	104.5702947845805	28	127
104.46580498866213	104.5702947845805	40	127
104.46580498866213	104.5702947845805	52	127
104.58190476190477	104.65156462585034	55	127
104.65156462585034	104.76766439909296	52	127
104.76766439909296	104.8837641723356	55	127
104.76766439909296	104.8837641723356	40	127
104.8837641723356	104.99986394557823	64	127
105.0114739229025	105.12757369614512	55	127
105.12757369614512	105.22045351473923	28	127
105.12757369614512	105.22045351473923	52	127
105.12757369614512	105.22045351473923	40	127
105.22045351473923	105.30172335600908	55	127
105.30172335600908	105.40621315192743	52	127
105.4178231292517	105.53392290249433	55	127
105.53392290249433	105.65002267573696	64	127
105.65002267573696	105.7312925170068	55	127
105.7312925170068	105.83578231292518	52	127
105.7312925170068	105.83578231292518	38	127
105.7312925170068	105.83578231292518	50	127
105.83578231292518	105.9518820861678	56	127
105.9518820861678	106.07959183673469	52	127
106.07959183673469	106.19569160997733	56	127
106.07959183673469	106.19569160997733	50	127
106.19569160997733	106.31179138321995	64	127
106.31179138321995	106.42789115646258	56	127
106.42789115646258	106.54399092970522	48	127
106.42789115646258	106.54399092970522	53	127
106.42789115646258	106.54399092970522	36	127
106.54399092970522	106.66009070294784	62	127
106.66009070294784	106.77619047619048	53	127
106.77619047619048	106.86907029478458	62	127
106.77619047619048	106.86907029478458	48	127
106.86907029478458	106.98517006802722	65	127
106.98517006802722	107.07804988662132	62	127
107.08965986394558	107.18253968253968	53	127
107.08965986394558	107.18253968253968	31	127
107.08965986394558	107.18253968253968	43	127
107.18253968253968	107.25219954648526	62	127
107.25219954648526	107.35668934240363	53	127
107.35668934240363	107.461179138322	43	127
107.35668934240363	107.461179138322	62	127
107.47278911564626	107.56566893424036	65	127
107.56566893424036	107.67015873015873	62	127
107.67015873015873	107.78625850340136	33	127
107.67015873015873	107.78625850340136	45	127
107.67015873015873	107.78625850340136	54	127
107.78625850340136	107.89074829931972	60	127
107.902358276644	108.01845804988662	55	127
108.01845804988662	108.13455782312926	45	127
108.01845804988662	108.13455782312926	60	127
108.13455782312926	108.25065759637188	66	127
108.25065759637188	108.36675736961452	60	127
108.36675736961452	108.47124716553287	28	127
108.36675736961452	108.47124716553287	40	127
108.47124716553287	108.57573696145124	83	127
108.57573696145124	108.69183673469388	81	127
108.69183673469388	108.77310657596372	40	127
108.69183673469388	108.77310657596372	79	127
108.77310657596372	108.87759637188209	78	127
108.87759637188209	108.99369614512472	76	127
108.99369614512472	109.10979591836735	40	127
108.99369614512472	109.10979591836735	74	127
108.99369614512472	109.10979591836735	28	127
109.10979591836735	109.21428571428571	72	127
109.22589569160998	109.27233560090703	71	127
109.27233560090703	109.33038548752835	69	127
109.33038548752835	109.44648526077097	67	127
109.44648526077097	109.52775510204081	66	127
109.52775510204081	109.63224489795918	67	127
109.52775510204081	109.63224489795918	55	127
109.63224489795918	109.74834467120182	67	127
109.74834467120182	109.86444444444444	66	127
109.86444444444444	109.95732426303854	64	127
109.95732426303854	110.06181405895691	62	127
110.06181405895691	110.17791383219955	60	127
110.17791383219955	110.27079365079365	62	127
110.17791383219955	110.27079365079365	50	127
110.27079365079365	110.3520634920635	60	127
110.36367346938775	110.45655328798186	59	127
110.45655328798186	110.5378231292517	57	127
110.5378231292517	110.64231292517007	55	127
110.64231292517007	110.74680272108843	54	127
110.7584126984127	110.8512925170068	41	127
110.8512925170068	110.95578231292517	45	127
110.95578231292517	111.0718820861678	41	127
111.0718820861678	111.17637188208617	45	127
111.18798185941043	111.26925170068027	57	127
111.26925170068027	111.35052154195012	45	127
111.35052154195012	111.45501133786848	66	127
111.35052154195012	111.45501133786848	41	127
111.45501133786848	111.58272108843538	45	127
111.59433106575963	111.698820861678	41	127
111.698820861678	111.79170068027211	60	127
111.698820861678	111.79170068027211	45	127
111.79170068027211	111.89619047619047	57	127
111.89619047619047	112.02390022675738	45	127
112.03551020408163	112.12839002267573	51	127
112.03551020408163	112.12839002267573	41	127
112.12839002267573	112.2328798185941	45	127
112.2328798185941	112.33736961451247	41	127
112.33736961451247	112.4534693877551	45	127
112.46507936507936	112.56956916099773	57	127
112.56956916099773	112.68566893424037	45	127
112.68566893424037	112.80176870748299	41	127
112.80176870748299	112.90625850340136	45	127
112.90625850340136	112.97591836734694	41	127
112.97591836734694	113.0804081632653	45	127
113.0804081632653	113.19650793650794	57	127
113.19650793650794	113.32421768707484	45	127
113.32421768707484	113.44031746031746	55	127
113.32421768707484	113.44031746031746	28	127
113.32421768707484	113.44031746031746	40	127
113.44031746031746	113.54480725623583	59	127
113.54480725623583	113.66090702947845	55	127
113.67251700680272	113.78861678004534	59	127
113.67251700680272	113.78861678004534	40	127
113.78861678004534	113.89310657596371	67	127
113.89310657596371	114.00920634920635	59	127
114.00920634920635	114.12530612244898	40	127
114.00920634920635	114.12530612244898	55	127
114.00920634920635	114.12530612244898	28	127
114.13691609977325	114.25301587301587	59	127
114.25301587301587	114.3691156462585	55	127
114.3691156462585	114.48521541950113	59	127
114.48521541950113	114.56648526077097	67	127
114.56648526077097	114.60131519274377	59	127
114.60131519274377	114.70580498866214	40	127
114.60131519274377	114.70580498866214	28	127
114.70580498866214	114.82190476190476	71	127
114.82190476190476	114.92639455782313	69	127
114.92639455782313	115.0308843537415	67	127
115.0308843537415	115.1237641723356	66	127
115.1237641723356	115.22825396825397	64	127
115.22825396825397	115.29791383219954	50	127
115.22825396825397	115.29791383219954	62	127
115.30952380952381	115.42562358276643	60	127
115.42562358276643	115.54172335600907	59	127
115.54172335600907	115.6578231292517	57	127
115.6578231292517	115.73909297052154	55	127
115.75070294784581	115.83197278911565	54	127
115.83197278911565	115.91324263038548	41	127
115.91324263038548	116.0061224489796	45	127
116.0061224489796	116.12222222222222	41	127
116.13383219954649	116.24993197278911	45	127
116.24993197278911	116.35442176870748	57	127
116.35442176870748	116.47052154195012	45	127
116.47052154195012	116.58662131519274	41	127
116.47052154195012	116.58662131519274	66	127
116.59823129251701	116.69111111111111	45	127
116.69111111111111	116.79560090702948	41	127
116.79560090702948	116.90009070294785	60	127
116.79560090702948	116.90009070294785	45	127
116.90009070294785	117.02780045351474	57	127
117.039410430839	117.14390022675737	45	127
117.14390022675737	117.24839002267574	41	127
117.14390022675737	117.24839002267574	51	127
117.24839002267574	117.32965986394558	45	127
117.32965986394558	117.43414965986395	41	127
117.4457596371882	117.5734693877551	45	127
117.5734693877551	117.68956916099773	57	127
117.68956916099773	117.7940589569161	45	127
117.7940589569161	117.91015873015873	41	127
117.921768707483	118.00303854875284	45	127
118.00303854875284	118.08430839002267	41	127
118.08430839002267	118.16557823129251	45	127
118.16557823129251	118.28167800453515	57	127
118.29328798185941	118.38616780045352	45	127
118.38616780045352	118.50226757369614	38	127
118.50226757369614	118.60675736961451	45	127
118.60675736961451	118.72285714285714	38	127
118.7344671201814	118.83895691609978	45	127
118.83895691609978	118.94344671201814	57	127
118.94344671201814	119.04793650793651	45	127
119.04793650793651	119.16403628117914	38	127
119.1756462585034	119.29174603174603	45	127
119.29174603174603	119.3614058956916	38	127
119.3614058956916	119.46589569160997	45	127
119.46589569160997	119.57038548752834	57	127
119.57038548752834	119.68648526077098	45	127
119.68648526077098	119.8025850340136	38	127
119.8025850340136	119.90707482993197	45	127
119.90707482993197	120.03478458049887	38	127
120.03478458049887	120.12766439909296	45	127
120.12766439909296	120.2437641723356	57	127
120.2437641723356	120.30181405895692	45	127
120.31342403628118	120.42952380952381	38	127
120.42952380952381	120.54562358276644	45	127
120.54562358276644	120.66172335600908	38	127
120.66172335600908	120.76621315192743	45	127
120.7778231292517	120.89392290249432	57	127
120.89392290249432	120.98680272108844	45	127
120.98680272108844	121.0912925170068	55	127
120.98680272108844	121.0912925170068	28	127
120.98680272108844	121.0912925170068	40	127
121.0912925170068	121.20739229024943	59	127
121.2190022675737	121.33510204081632	55	127
121.33510204081632	121.35832199546485	40	127
121.33510204081632	121.35832199546485	59	127
121.35832199546485	121.47442176870749	67	127
121.47442176870749	121.56730158730159	59	127
121.57891156462586	121.68340136054422	40	127
121.57891156462586	121.68340136054422	28	127
121.57891156462586	121.68340136054422	55	127
121.68340136054422	121.78789115646258	59	127
121.78789115646258	121.90399092970522	55	127
121.90399092970522	122.00848072562358	59	127
122.02009070294784	122.11297052154195	67	127
122.11297052154195	122.18263038548753	59	127
122.18263038548753	122.27551020408163	40	127
122.18263038548753	122.27551020408163	55	127
122.18263038548753	122.27551020408163	28	127
122.27551020408163	122.38	59	127
122.39160997732426	122.50770975056689	55	127
122.50770975056689	122.62380952380953	40	127
122.50770975056689	122.62380952380953	59	127
122.62380952380953	122.73990929705215	67	127
122.73990929705215	122.821179138322	59	127
122.83278911564626	122.94888888888889	28	127
122.83278911564626	122.94888888888889	40	127
122.83278911564626	122.94888888888889	55	127
122.94888888888889	123.06498866213153	59	127
123.06498866213153	123.16947845804988	55	127
123.16947845804988	123.27396825396825	59	127
123.28557823129252	123.40167800453514	67	127
123.40167800453514	123.51777777777778	59	127
123.51777777777778	123.61065759637188	28	127
123.51777777777778	123.61065759637188	40	127
123.61065759637188	123.72675736961452	83	127
123.73836734693877	123.83124716553289	81	127
123.83124716553289	123.92412698412699	40	127
123.83124716553289	123.92412698412699	79	127
123.92412698412699	124.00539682539683	78	127
124.00539682539683	124.09827664399093	76	127
124.1098866213152	124.22598639455782	40	127
124.1098866213152	124.22598639455782	28	127
124.1098866213152	124.22598639455782	74	127
124.22598639455782	124.31886621315192	72	127
124.31886621315192	124.41174603174603	71	127
124.41174603174603	124.48140589569161	69	127
124.49301587301588	124.55106575963718	67	127
124.55106575963718	124.65555555555555	66	127
124.65555555555555	124.74843537414966	55	127
124.65555555555555	124.74843537414966	67	127
124.74843537414966	124.86453514739229	67	127
124.87614512471656	124.99224489795918	66	127
124.99224489795918	125.09673469387755	64	127
125.09673469387755	125.1780045351474	62	127
125.1780045351474	125.25927437641724	60	127
125.2708843537415	125.38698412698413	59	127
125.2708843537415	125.38698412698413	47	127
125.38698412698413	125.44503401360544	57	127
125.44503401360544	125.53791383219955	55	127
125.53791383219955	125.6191836734694	54	127
125.63079365079365	125.74689342403629	52	127
125.74689342403629	125.83977324263039	50	127
125.83977324263039	125.93265306122449	45	127
125.83977324263039	125.93265306122449	48	127
125.93265306122449	126.06036281179138	52	127
126.06036281179138	126.17646258503402	48	127
126.17646258503402	126.24612244897959	52	127
126.17646258503402	126.24612244897959	40	127
126.24612244897959	126.36222222222223	57	127
126.36222222222223	126.47832199546485	60	127
126.47832199546485	126.58281179138322	48	127
126.47832199546485	126.58281179138322	41	127
126.58281179138322	126.68730158730159	50	127
126.68730158730159	126.80340136054421	48	127
126.80340136054421	126.91950113378685	50	127
126.80340136054421	126.91950113378685	29	127
126.80340136054421	126.91950113378685	41	127
126.91950113378685	127.03560090702948	57	127
127.03560090702948	127.14009070294784	60	127
127.14009070294784	127.22136054421769	48	127
127.14009070294784	127.22136054421769	45	127
127.23297052154194	127.33746031746031	52	127
127.33746031746031	127.43034013605443	48	127
127.43034013605443	127.54643990929705	52	127
127.43034013605443	127.54643990929705	40	127
127.54643990929705	127.6277097505669	57	127
127.63931972789116	127.74380952380952	60	127
127.74380952380952	127.85990929705216	48	127
127.74380952380952	127.85990929705216	41	127
127.85990929705216	127.96439909297052	50	127
127.96439909297052	128.0688888888889	48	127
128.08049886621316	128.19657596371883	50	127
128.08049886621316	128.19657596371883	29	127
128.08049886621316	128.19657596371883	41	127
128.19657596371883	128.2894784580499	57	127
128.2894784580499	128.382358276644	60	127
128.382358276644	128.4752380952381	48	127
128.382358276644	128.4752380952381	45	127
128.48684807256237	128.59133786848074	52	127
128.59133786848074	128.6958276643991	48	127
128.6958276643991	128.80031746031747	52	127
128.6958276643991	128.80031746031747	40	127
128.80031746031747	128.89319727891157	57	127
128.89319727891157	128.98607709750567	60	127
128.98607709750567	129.07895691609977	41	127
128.98607709750567	129.07895691609977	48	127
129.07895691609977	129.18344671201814	50	127
129.18344671201814	129.2879365079365	48	127
129.29954648526078	129.34598639455783	29	127
129.29954648526078	129.34598639455783	41	127
129.29954648526078	129.34598639455783	50	127
129.34598639455783	129.46208616780046	57	127
129.46208616780046	129.56657596371883	60	127
129.56657596371883	129.68267573696144	48	127
129.56657596371883	129.68267573696144	45	127
129.6942857142857	129.7871655328798	52	127
129.7871655328798	129.90326530612245	48	127
129.90326530612245	130.00775510204082	52	127
129.90326530612245	130.00775510204082	40	127
130.00775510204082	130.08902494331065	57	127
130.10063492063492	130.18190476190478	60	127
130.18190476190478	130.28637188208617	48	127
130.18190476190478	130.28637188208617	41	127
130.28637188208617	130.37927437641724	50	127
130.37927437641724	130.4837641723356	48	127
130.4953514739229	130.59986394557822	41	127
130.4953514739229	130.59986394557822	50	127
130.4953514739229	130.59986394557822	29	127
130.59986394557822	130.69274376417235	57	127
130.69274376417235	130.80884353741496	60	127
130.80884353741496	130.9249433106576	48	127
130.80884353741496	130.9249433106576	45	127
130.93655328798187	131.04104308390023	52	127
131.04104308390023	131.13392290249433	48	127
131.13392290249433	131.21519274376416	52	127
131.13392290249433	131.21519274376416	40	127
131.21519274376416	131.31968253968253	57	127
131.3312925170068	131.4241723356009	60	127
131.4241723356009	131.52866213151927	48	127
131.4241723356009	131.52866213151927	41	127
131.52866213151927	131.62151927437642	50	127
131.62151927437642	131.737641723356	48	127
131.74925170068028	131.85374149659864	50	127
131.74925170068028	131.85374149659864	29	127
131.74925170068028	131.85374149659864	41	127
131.85374149659864	131.96984126984128	57	127
131.96984126984128	132.0511111111111	60	127
132.0511111111111	132.16721088435375	55	127
132.0511111111111	132.16721088435375	36	127
132.17879818594105	132.29492063492063	57	127
132.29492063492063	132.3761904761905	61	127
132.3761904761905	132.4922902494331	53	127
132.3761904761905	132.4922902494331	38	127
132.4922902494331	132.62	59	127
132.62	132.72448979591837	62	127
132.72448979591837	132.840589569161	48	127
132.72448979591837	132.840589569161	45	127
132.840589569161	132.95668934240362	52	127
132.95668934240362	133.04954648526078	48	127
133.04954648526078	133.15403628117915	52	127
133.04954648526078	133.15403628117915	33	127
133.04954648526078	133.15403628117915	45	127
133.15403628117915	133.281768707483	57	127
133.281768707483	133.33981859410432	60	127
133.33981859410432	133.44430839002268	55	127
133.33981859410432	133.44430839002268	36	127
133.44430839002268	133.56038548752835	57	127
133.56038548752835	133.67650793650793	63	127
133.67650793650793	133.79260770975057	53	127
133.67650793650793	133.79260770975057	38	127
133.80421768707484	133.9202947845805	59	127
133.9202947845805	134.01319727891158	62	127
134.01319727891158	134.0944671201814	48	127
134.01319727891158	134.0944671201814	45	127
134.0944671201814	134.19895691609977	52	127
134.19895691609977	134.2570068027211	48	127
134.2570068027211	134.3266439909297	45	127
134.2570068027211	134.3266439909297	52	127
134.2570068027211	134.3266439909297	33	127
134.3266439909297	134.43113378684808	57	127
134.43113378684808	134.54725623582766	60	127
134.55886621315193	134.67496598639457	52	127
134.55886621315193	134.67496598639457	46	127
134.67496598639457	134.80267573696145	55	127
134.80267573696145	134.91877551020409	52	127
134.91877551020409	135.03487528344672	46	127
134.91877551020409	135.03487528344672	55	127
134.91877551020409	135.03487528344672	34	127
135.04646258503402	135.1625850340136	60	127
135.1625850340136	135.27868480725624	64	127
135.27868480725624	135.4180045351474	51	127
135.27868480725624	135.4180045351474	35	127
135.27868480725624	135.4180045351474	47	127
135.4180045351474	135.52249433106576	54	127
135.53410430839003	135.62698412698413	51	127
135.62698412698413	135.74308390022676	54	127
135.74308390022676	135.83596371882086	59	127
135.83596371882086	135.92884353741496	63	127
135.94045351473923	136.0449433106576	66	127
136.0449433106576	136.14943310657597	71	127
136.14943310657597	136.24231292517007	71	127
136.25392290249434	136.37	75	127
136.37	136.56739229024944	54	127
136.37	136.42807256235827	78	127
136.38163265306122	136.56739229024944	58	127
136.3932426303855	136.56739229024944	63	127
136.41646258503403	136.56739229024944	66	127
136.42807256235827	136.46290249433108	70	127
136.46290249433108	136.56739229024944	70	127
136.46290249433108	136.56739229024944	75	127
136.4861224489796	136.56739229024944	82	127
136.9505215419501	137.19433106575963	42	127
136.97374149659865	137.19433106575963	51	127
136.99696145124716	137.19433106575963	54	127
137.0201814058957	137.19433106575963	58	127
137.0434013605442	137.19433106575963	63	127
137.07823129251702	137.19433106575963	70	127
137.76321995464852	137.87931972789116	35	127
137.76321995464852	137.87931972789116	42	127
137.76321995464852	137.87931972789116	47	127
137.87931972789116	137.960589569161	63	127
137.97219954648526	138.0882993197279	59	127
138.0882993197279	138.16956916099772	63	127
138.16956916099772	138.2740589569161	66	127
138.2740589569161	138.35532879818595	71	127
138.36691609977325	138.47142857142856	66	127
138.47142857142856	138.5875283446712	71	127
138.5875283446712	138.70362811791384	66	127
138.70362811791384	138.8081179138322	71	127
138.81972789115648	138.93582766439908	75	127
138.9009977324263	139.14480725623582	59	127
138.93582766439908	139.14480725623582	63	127
138.93582766439908	138.9938775510204	78	127
138.9938775510204	139.14480725623582	71	127
139.02868480725624	139.14480725623582	75	127
139.05192743764172	139.14480725623582	83	127
139.5627664399093	139.81818594104308	43	127
139.58598639455784	139.81818594104308	51	127
139.62081632653062	139.81818594104308	55	127
139.64401360544218	139.81818594104308	59	127
139.66725623582767	139.81818594104308	63	127
139.70208616780045	139.81818594104308	71	127
140.34063492063493	140.45673469387756	51	127
140.34063492063493	140.45673469387756	36	127
140.34063492063493	140.45673469387756	43	127
140.4683446712018	140.5380045351474	63	127
140.5380045351474	140.64249433106576	51	127
140.64249433106576	140.74698412698413	63	127
140.64249433106576	140.74698412698413	43	127
140.74698412698413	140.83986394557823	51	127
140.8514739229025	140.95596371882087	63	127
140.95596371882087	141.07204081632653	51	127
140.95596371882087	141.07204081632653	48	127
140.95596371882087	141.07204081632653	55	127
141.07204081632653	141.18816326530612	63	127
141.18816326530612	141.24621315192744	51	127
141.2578231292517	141.33909297052153	63	127
141.2578231292517	141.33909297052153	43	127
141.33909297052153	141.4435827664399	51	127
141.4435827664399	141.54807256235827	63	127
141.54807256235827	141.62934240362813	51	127
141.54807256235827	141.62934240362813	36	127
141.54807256235827	141.62934240362813	43	127
141.64095238095237	141.757052154195	55	127
141.757052154195	141.83832199546487	51	127
141.83832199546487	141.94278911564626	55	127
141.94278911564626	142.05891156462584	63	127
142.07052154195011	142.18662131519275	55	127
142.18662131519275	142.27950113378685	51	127
142.27950113378685	142.3956009070295	55	127
142.3956009070295	142.50009070294786	51	127
142.5117006802721	142.60458049886623	55	127
142.5117006802721	142.60458049886623	43	127
142.60458049886623	142.72068027210884	63	127
142.72068027210884	142.83678004535147	55	127
142.83678004535147	142.9528798185941	51	127
142.83678004535147	142.9528798185941	36	127
142.83678004535147	142.9528798185941	43	127
142.9644671201814	143.0457596371882	63	127
143.0457596371882	143.15024943310658	51	127
143.15024943310658	143.24312925170068	63	127
143.15024943310658	143.24312925170068	43	127
143.24312925170068	143.34761904761905	51	127
143.35922902494332	143.47530612244898	63	127
143.47530612244898	143.59142857142857	51	127
143.47530612244898	143.59142857142857	48	127
143.47530612244898	143.59142857142857	55	127
143.59142857142857	143.67269841269842	63	127
143.67269841269842	143.7771882086168	51	127
143.78879818594103	143.8932879818594	63	127
143.78879818594103	143.8932879818594	43	127
143.8932879818594	144.00938775510204	51	127
144.00938775510204	144.1138775510204	63	127
144.1138775510204	144.21836734693878	51	127
144.1138775510204	144.21836734693878	36	127
144.1138775510204	144.21836734693878	43	127
144.22997732426305	144.33446712018142	55	127
144.33446712018142	144.45054421768708	51	127
144.45054421768708	144.5550566893424	55	127
144.5550566893424	144.64793650793652	63	127
144.64793650793652	144.72920634920635	55	127
144.72920634920635	144.82208616780045	51	127
144.82208616780045	144.8685260770975	55	127
144.8685260770975	144.98462585034014	51	127
144.9962358276644	145.10072562358278	55	127
144.9962358276644	145.10072562358278	36	127
145.10072562358278	145.21680272108844	63	127
145.21680272108844	145.33292517006802	55	127
145.33292517006802	145.44902494331066	51	127
145.33292517006802	145.44902494331066	29	127
145.33292517006802	145.44902494331066	41	127
145.44902494331066	145.5651247165533	55	127
145.5651247165533	145.6812244897959	63	127
145.6812244897959	145.79732426303855	51	127
145.79732426303855	145.91342403628119	57	127
145.92503401360545	146.04113378684806	63	127
146.04113378684806	146.13399092970522	51	127
146.04113378684806	146.13399092970522	36	127
146.04113378684806	146.13399092970522	48	127
146.13399092970522	146.2501133786848	55	127
146.2501133786848	146.3778231292517	63	127
146.3778231292517	146.4707029478458	51	127
146.4707029478458	146.57519274376418	56	127
146.57519274376418	146.66807256235828	63	127
146.66807256235828	146.77256235827664	51	127
146.66807256235828	146.77256235827664	29	127
146.66807256235828	146.77256235827664	41	127
146.77256235827664	146.86544217687074	55	127
146.86544217687074	146.9699319727891	63	127
146.9699319727891	147.08603174603175	51	127
147.08603174603175	147.21374149659863	57	127
147.21374149659863	147.32984126984127	63	127
147.32984126984127	147.42272108843537	51	127
147.32984126984127	147.42272108843537	36	127
147.32984126984127	147.42272108843537	48	127
147.42272108843537	147.45755102040818	55	127
147.46916099773242	147.58526077097505	63	127
147.58526077097505	147.7013605442177	51	127
147.7013605442177	147.81746031746033	56	127
147.81746031746033	147.91034013605443	63	127
147.92192743764173	148.0264172335601	52	127
147.92192743764173	148.0264172335601	37	127
147.92192743764173	148.0264172335601	49	127
148.0264172335601	148.14253968253968	58	127
148.14253968253968	148.25863945578232	64	127
148.25863945578232	148.35151927437641	58	127
148.35151927437641	148.4443990929705	52	127
148.4443990929705	148.52566893424037	58	127
148.52566893424037	148.61854875283447	29	127
148.52566893424037	148.61854875283447	41	127
148.52566893424037	148.61854875283447	53	127
148.61854875283447	148.71142857142857	58	127
148.72303854875284	148.80430839002267	65	127
148.80430839002267	148.9204081632653	58	127
148.9204081632653	149.0132879818594	50	127
149.0132879818594	149.12938775510204	58	127
149.1409977324263	149.25707482993198	54	127
149.25707482993198	149.3615873015873	58	127
149.3615873015873	149.45446712018142	66	127
149.45446712018142	149.55893424036282	58	127
149.57056689342403	149.68666666666667	54	127
149.68666666666667	149.8027664399093	58	127
149.8027664399093	149.90725623582767	29	127
149.8027664399093	149.90725623582767	41	127
149.8027664399093	149.90725623582767	55	127
149.90725623582767	150.01174603174604	58	127
150.02333333333334	150.13945578231292	67	127
150.13945578231292	150.2439455782313	58	127
150.2439455782313	150.34843537414966	55	127
150.34843537414966	150.45292517006803	58	127
150.4645351473923	150.56902494331067	32	127
150.4645351473923	150.56902494331067	44	127
150.4645351473923	150.56902494331067	53	127
150.56902494331067	150.68510204081633	60	127
150.68510204081633	150.8012244897959	65	127
150.8012244897959	150.91732426303855	60	127
150.92893424036282	151.0334240362812	53	127
151.0334240362812	151.13791383219956	60	127
151.13791383219956	151.25401360544217	53	127
151.13791383219956	151.25401360544217	31	127
151.13791383219956	151.25401360544217	43	127
151.25401360544217	151.38172335600908	59	127
151.39333333333335	151.50943310657595	65	127
151.50943310657595	151.6255328798186	59	127
151.6255328798186	151.74163265306123	53	127
151.74163265306123	151.85773242630387	59	127
151.8693424036281	152.07832199546485	87	127
151.8693424036281	151.99705215419502	47	127
151.8693424036281	152.07832199546485	75	127
151.99705215419502	152.07832199546485	54	127
152.07832199546485	152.31052154195012	73	127
152.07832199546485	152.31052154195012	85	127
152.07832199546485	152.19442176870749	59	127
152.19442176870749	152.29891156462585	54	127
152.31052154195012	152.4150113378685	59	127
152.31052154195012	152.5311111111111	71	127
152.31052154195012	152.5311111111111	83	127
152.4150113378685	152.5311111111111	63	127
152.5311111111111	152.76331065759638	70	127
152.5311111111111	152.76331065759638	82	127
152.5311111111111	152.63560090702947	51	127
152.63560090702947	152.7517006802721	55	127
152.76331065759638	152.87941043083902	61	127
152.76331065759638	152.99551020408163	71	127
152.76331065759638	152.99551020408163	83	127
152.87941043083902	152.99551020408163	55	127
152.99551020408163	153.2277097505669	73	127
152.99551020408163	153.1	61	127
152.99551020408163	153.2277097505669	85	127
153.1	153.2277097505669	67	127
153.2277097505669	153.70369614512472	75	127
153.2277097505669	153.34378684807257	44	127
153.2277097505669	153.70369614512472	87	127
153.34378684807257	153.44827664399094	54	127
153.44827664399094	153.5760090702948	60	127
153.5760090702948	153.70369614512472	54	127
153.70369614512472	153.83142857142857	60	127
153.70369614512472	153.9475283446712	75	127
153.70369614512472	153.9475283446712	87	127
153.83142857142857	153.9475283446712	66	127
153.9475283446712	154.42353741496598	80	127
153.9475283446712	154.06362811791382	51	127
153.9475283446712	154.42353741496598	92	127
154.06362811791382	154.2145351473923	54	127
154.2145351473923	154.33065759637188	60	127
154.33065759637188	154.42353741496598	54	127
154.42353741496598	154.53963718820862	60	127
154.42353741496598	154.6208843537415	75	127
154.42353741496598	154.6208843537415	87	127
154.55124716553289	154.66734693877552	66	127
154.66734693877552	154.78344671201813	48	127
154.66734693877552	155.34072562358276	75	127
154.66734693877552	155.34072562358276	87	127
154.78344671201813	154.8763038548753	55	127
154.8763038548753	154.99242630385487	60	127
155.00403628117914	155.12013605442178	55	127
155.12013605442178	155.23621315192744	60	127
155.23621315192744	155.34072562358276	67	127
155.34072562358276	155.4568253968254	50	127
155.34072562358276	155.9908843537415	86	127
155.34072562358276	155.9908843537415	74	127
155.46843537414966	155.5497052154195	54	127
155.5497052154195	155.64256235827665	60	127
155.64256235827665	155.74705215419502	55	127
155.74705215419502	155.8631746031746	60	127
155.87478458049887	155.9908843537415	66	127
155.9908843537415	156.10696145124717	43	127
155.9908843537415	156.675873015873	72	127
155.9908843537415	156.675873015873	84	127
156.10696145124717	156.22308390022675	51	127
156.22308390022675	156.32757369614512	55	127
156.3391836734694	156.45528344671203	51	127
156.45528344671203	156.5597732426304	55	127
156.5597732426304	156.675873015873	60	127
156.675873015873	157.3144217687075	71	127
156.675873015873	156.79197278911565	39	127
156.675873015873	157.3144217687075	83	127
156.80358276643992	156.90807256235829	51	127
156.90807256235829	157.01256235827665	56	127
157.01256235827665	157.12863945578232	51	127
157.12863945578232	157.2447619047619	56	127
157.25637188208617	157.3724716553288	59	127
157.25637188208617	157.3724716553288	63	127
157.3724716553288	157.48857142857142	47	127
157.3724716553288	157.60467120181406	75	127
157.3724716553288	157.60467120181406	87	127
157.48857142857142	157.60467120181406	54	127
157.60467120181406	157.7207709750567	59	127
157.60467120181406	157.83687074829933	85	127
157.60467120181406	157.83687074829933	73	127
157.73238095238096	157.83687074829933	54	127
157.83687074829933	158.0458276643991	71	127
157.83687074829933	158.0458276643991	83	127
157.83687074829933	157.92975056689343	59	127
157.92975056689343	158.0458276643991	63	127
158.0458276643991	158.1271201814059	51	127
158.0458276643991	158.24321995464854	70	127
158.0458276643991	158.24321995464854	82	127
158.13873015873017	158.24321995464854	55	127
158.24321995464854	158.47541950113379	71	127
158.24321995464854	158.35931972789115	61	127
158.24321995464854	158.47541950113379	83	127
158.35931972789115	158.47541950113379	55	127
158.47541950113379	158.59151927437642	61	127
158.47541950113379	158.7192290249433	73	127
158.47541950113379	158.7192290249433	85	127
158.6031292517007	158.7192290249433	63	127
158.7192290249433	158.83532879818594	44	127
158.7192290249433	159.1255782312925	75	127
158.7192290249433	159.1255782312925	87	127
158.83532879818594	158.9398185941043	54	127
158.9398185941043	159.05591836734695	60	127
159.06750566893425	159.18362811791383	54	127
159.18362811791383	159.4158276643991	75	127
159.18362811791383	159.29972789115646	60	127
159.18362811791383	159.4158276643991	87	127
159.29972789115646	159.4158276643991	66	127
159.4158276643991	159.53190476190477	51	127
159.4158276643991	159.89183673469387	81	127
159.4158276643991	159.89183673469387	93	127
159.54353741496598	159.65963718820862	54	127
159.65963718820862	159.77573696145126	60	127
159.77573696145126	159.89183673469387	54	127
159.89183673469387	160.0079365079365	60	127
159.89183673469387	160.1008163265306	75	127
159.89183673469387	160.1008163265306	87	127
160.01954648526078	160.1356462585034	66	127
160.1356462585034	160.7625850340136	87	127
160.1356462585034	160.21691609977324	48	127
160.1356462585034	160.7625850340136	75	127
160.21691609977324	160.3214058956916	55	127
160.33301587301588	160.43750566893425	60	127
160.44909297052155	160.54199546485262	55	127
160.55358276643992	160.646485260771	60	127
160.646485260771	160.7625850340136	67	127
160.7625850340136	161.44757369614513	86	127
160.7625850340136	160.86707482993197	50	127
160.7625850340136	161.44757369614513	74	127
160.86707482993197	160.97156462585033	54	127
160.97156462585033	161.08766439909297	60	127
161.08766439909297	161.2153514739229	55	127
161.2153514739229	161.3314739229025	60	127
161.3314739229025	161.44757369614513	67	127
161.44757369614513	162.13256235827666	72	127
161.44757369614513	161.57526077097506	43	127
161.44757369614513	162.13256235827666	84	127
161.57526077097506	161.69138321995464	51	127
161.69138321995464	161.80748299319728	55	127
161.80748299319728	161.90036281179138	51	127
161.90036281179138	162.01646258503402	55	127
162.01646258503402	162.1209523809524	60	127
162.13256235827666	162.23702947845806	41	127
162.13256235827666	162.74786848072563	71	127
162.13256235827666	162.74786848072563	83	127
162.24866213151927	162.35315192743764	51	127
162.3647619047619	162.46925170068027	56	127
162.48086167800454	162.5853514739229	51	127
162.5853514739229	162.68984126984128	56	127
162.68984126984128	162.8059410430839	59	127
162.8059410430839	163.45609977324264	72	127
162.8059410430839	163.45609977324264	84	127
162.8059410430839	162.9336507936508	48	127
162.9336507936508	163.04975056689344	51	127
163.04975056689344	163.16585034013605	55	127
163.16585034013605	163.28195011337868	51	127
163.28195011337868	163.39804988662132	55	127
163.39804988662132	163.514126984127	60	127
163.514126984127	164.16430839002268	71	127
163.514126984127	163.6534693877551	41	127
163.514126984127	164.16430839002268	83	127
163.6534693877551	163.76954648526078	51	127
163.76954648526078	163.87403628117914	56	127
163.87403628117914	163.9785260770975	51	127
163.99015873015873	164.0946485260771	56	127
164.10625850340136	164.21074829931973	59	127
164.21074829931973	164.8144671201814	48	127
164.21074829931973	164.8144671201814	36	127
164.32684807256237	164.4081179138322	67	127
164.4081179138322	164.52421768707484	60	127
164.52421768707484	164.6402947845805	67	127
164.6402947845805	164.7564172335601	72	127
164.7564172335601	164.884126984127	67	127
164.884126984127	165.49945578231294	38	127
164.884126984127	165.49945578231294	50	127
165.00020408163266	165.11632653061224	66	127
165.11632653061224	165.23242630385488	57	127
165.23242630385488	165.33691609977325	66	127
165.33691609977325	165.44140589569162	69	127
165.44140589569162	165.54589569160999	66	127
165.54589569160999	166.1960544217687	51	127
165.54589569160999	166.1960544217687	39	127
165.66197278911565	165.77809523809523	66	127
165.77809523809523	165.89419501133787	57	127
165.90580498866214	166.0102947845805	66	127
166.0218820861678	166.1380045351474	69	127
166.14961451247166	166.25410430839003	66	127
166.25410430839003	166.88104308390024	32	127
166.25410430839003	166.88104308390024	44	127
166.37020408163266	166.48630385487527	63	127
166.48630385487527	166.64884353741496	56	127
166.64884353741496	166.7649433106576	63	127
166.7649433106576	166.88104308390024	68	127
166.88104308390024	167.00875283446712	63	127
166.88104308390024	167.21773242630385	51	127
166.91587301587302	167.21773242630385	56	127
166.97392290249434	167.21773242630385	59	127
167.00875283446712	167.21773242630385	63	127
167.12485260770976	167.25256235827663	92	127
167.25256235827663	167.357052154195	90	127
167.357052154195	167.47315192743764	88	127
167.47315192743764	167.56603174603174	87	127
167.56603174603174	167.68213151927438	85	127
167.68213151927438	167.78662131519275	85	127
167.79823129251702	167.90272108843538	82	127
167.91430839002268	168.018820861678	83	127
168.03043083900226	168.13492063492063	85	127
168.13492063492063	168.239410430839	87	127
168.239410430839	168.35551020408164	88	127
168.35551020408164	168.4715873015873	88	127
168.4715873015873	168.5877097505669	90	127
168.5877097505669	168.63414965986394	92	127
168.63414965986394	168.7154195011338	94	127
168.7154195011338	168.7734693877551	95	127
168.7734693877551	168.88956916099772	97	127
168.88956916099772	169.00566893424036	98	127
169.00566893424036	169.09854875283446	99	127
169.09854875283446	169.19140589569162	100	127
169.19140589569162	169.2843083900227	101	127
169.2843083900227	169.3771882086168	103	127
169.38879818594106	169.49328798185942	104	127
169.50489795918367	170.13183673469388	36	127
169.50489795918367	170.13183673469388	24	127
169.60938775510203	169.72548752834467	60	127
169.72548752834467	169.8531746031746	55	127
169.8531746031746	169.9692970521542	60	127
169.9692970521542	170.07378684807256	67	127
170.07378684807256	170.1898866213152	60	127
170.1898866213152	170.79360544217687	26	127
170.1898866213152	170.79360544217687	38	127
170.29437641723356	170.4104761904762	57	127
170.4104761904762	170.5033560090703	54	127
170.5033560090703	170.61943310657597	57	127
170.61943310657597	170.73555555555555	66	127
170.73555555555555	170.86326530612246	57	127
170.86326530612246	171.5018140589569	39	127
170.86326530612246	171.5018140589569	27	127
170.97934240362812	171.0954648526077	57	127
171.0954648526077	171.19995464852607	54	127
171.21156462585034	171.3160544217687	57	127
171.32766439909298	171.43215419501135	66	127
171.4437641723356	171.55986394557823	57	127
171.58308390022677	172.1635827664399	32	127
171.58308390022677	172.1635827664399	44	127
171.69918367346938	171.82689342403629	56	127
171.82689342403629	171.94299319727892	51	127
171.94299319727892	172.0474829931973	56	127
172.0474829931973	172.1635827664399	63	127
172.1635827664399	172.26807256235827	56	127
172.1635827664399	172.46544217687074	51	127
172.21002267573695	172.46544217687074	56	127
172.24485260770976	172.46544217687074	59	127
172.26807256235827	172.46544217687074	63	127
172.37256235827664	172.50027210884355	80	127
172.50027210884355	172.6163492063492	78	127
172.6163492063492	172.7324716553288	76	127
172.7324716553288	172.84857142857143	75	127
172.84857142857143	172.96467120181407	73	127
172.96467120181407	173.08077097505668	73	127
173.08077097505668	173.16204081632654	70	127
173.1736507936508	173.2781179138322	71	127
173.28975056689342	173.3942403628118	73	127
173.40585034013606	173.49873015873015	75	127
173.49873015873015	173.56839002267574	76	127
173.56839002267574	173.68448979591838	76	127
173.68448979591838	173.7657596371882	78	127
173.7657596371882	173.88185941043085	80	127
173.88185941043085	173.97473922902495	82	127
173.97473922902495	174.0908390022676	83	127
174.0908390022676	174.21854875283447	85	127
174.21854875283447	174.3346485260771	86	127
174.3346485260771	174.43913832199547	87	127
174.43913832199547	174.54362811791384	88	127
174.54362811791384	174.6597052154195	89	127
174.6597052154195	174.7758276643991	91	127
174.7758276643991	174.8687074829932	92	127
174.88031746031746	174.98480725623583	24	127
174.88031746031746	174.98480725623583	36	127
174.9964172335601	175.10090702947846	55	127
175.11251700680273	175.20539682539683	58	127
175.20539682539683	175.3214739229025	55	127
175.3214739229025	175.43759637188208	48	127
175.43759637188208	175.55369614512472	55	127
175.55369614512472	175.68138321995465	26	127
175.55369614512472	175.68138321995465	38	127
175.68138321995465	175.77428571428572	54	127
175.77428571428572	175.8787755102041	57	127
175.8787755102041	175.9948752834467	55	127
175.9948752834467	176.13419501133788	50	127
176.13419501133788	176.2502947845805	55	127
176.2502947845805	176.3780045351474	27	127
176.2502947845805	176.3780045351474	39	127
176.3780045351474	176.50571428571428	54	127
176.50571428571428	176.62181405895691	57	127
176.62181405895691	176.74952380952382	54	127
176.76113378684806	176.86562358276643	51	127
176.8772335600907	176.99333333333334	54	127
177.0049433106576	177.10943310657598	32	127
177.0049433106576	177.10943310657598	44	127
177.10943310657598	177.2255328798186	51	127
177.2255328798186	177.33002267573696	56	127
177.33002267573696	177.4228798185941	51	127
177.4228798185941	177.5390022675737	44	127
177.5390022675737	177.64349206349206	51	127
177.64349206349206	177.73637188208616	24	127
177.64349206349206	177.73637188208616	36	127
177.73637188208616	177.8524716553288	72	127
177.8524716553288	177.96857142857144	70	127
177.96857142857144	178.038231292517	68	127
178.038231292517	178.15433106575964	67	127
178.15433106575964	178.24721088435373	65	127
178.24721088435373	178.36331065759637	65	127
178.36331065759637	178.46780045351474	62	127
178.479410430839	178.56068027210884	63	127
178.5722902494331	178.67678004535148	65	127
178.68839002267575	178.79287981859412	67	127
178.80448979591836	178.89736961451248	68	127
178.89736961451248	178.97863945578231	68	127
178.97863945578231	179.0482993197279	70	127
179.0482993197279	179.1643990929705	72	127
179.1643990929705	179.26888888888888	74	127
179.26888888888888	179.38498866213152	75	127
179.38498866213152	179.50108843537416	77	127
179.50108843537416	179.582358276644	77	127
179.582358276644	179.69845804988663	79	127
179.69845804988663	179.75650793650794	80	127
179.75650793650794	179.8725850340136	82	127
179.8725850340136	179.9887074829932	84	127
179.9887074829932	180.06997732426305	86	127
180.06997732426305	180.17446712018142	86	127
180.18607709750566	180.29056689342403	87	127
180.3021768707483	180.3718367346939	89	127
180.38342403628118	180.45310657596372	91	127
180.45310657596372	180.55759637188208	92	127
180.55759637188208	180.66208616780045	94	127
180.66208616780045	180.69691609977323	84	127
180.66208616780045	180.69691609977323	96	127
180.69691609977323	180.78979591836736	82	127
180.78979591836736	180.89426303854876	80	127
180.89426303854876	181.01038548752834	79	127
181.01038548752834	181.1148752834467	77	127
181.1148752834467	181.21936507936508	75	127
181.21936507936508	181.4283446712018	73	127
181.28902494331066	181.35866213151928	75	127
181.35866213151928	181.47478458049886	77	127
181.47478458049886	181.5908843537415	79	127
181.47478458049886	181.5908843537415	75	127
181.5908843537415	181.67215419501133	77	127
181.5908843537415	181.67215419501133	80	127
181.6837641723356	181.7766439909297	82	127
181.6837641723356	181.7766439909297	74	127
181.78825396825397	181.89274376417234	84	127
181.78825396825397	181.89274376417234	72	127
181.9043537414966	181.9972335600907	70	127
181.9972335600907	182.07850340136054	68	127
182.07850340136054	182.1829931972789	67	127
182.1829931972789	182.29909297052154	65	127
182.29909297052154	182.41519274376418	63	127
182.41519274376418	182.7286621315193	61	127
182.53126984126985	182.64739229024943	63	127
182.64739229024943	182.76349206349207	65	127
182.76349206349207	182.86798185941043	63	127
182.76349206349207	182.86798185941043	67	127
182.86798185941043	182.9724716553288	68	127
182.86798185941043	182.9724716553288	65	127
182.9724716553288	183.08857142857144	70	127
182.9724716553288	183.08857142857144	62	127
183.08857142857144	183.20467120181405	72	127
183.08857142857144	183.20467120181405	60	127
183.20467120181405	183.2859410430839	58	127
183.2859410430839	183.36721088435374	56	127
183.378820861678	183.48331065759638	55	127
183.49492063492065	183.59941043083901	53	127
183.61102040816326	183.71551020408162	51	127
183.71551020408162	183.98253968253968	49	127
183.82	183.91285714285715	51	127
183.91285714285715	184.01734693877552	53	127
184.01734693877552	184.1334693877551	51	127
184.01734693877552	184.1334693877551	55	127
184.1334693877551	184.2263492063492	56	127
184.1334693877551	184.2263492063492	53	127
184.2263492063492	184.34244897959184	50	127
184.2263492063492	184.34244897959184	58	127
184.34244897959184	184.45854875283447	48	127
184.34244897959184	184.45854875283447	60	127
184.45854875283447	184.57462585034014	46	127
184.57462585034014	184.6675283446712	44	127
184.6675283446712	184.78360544217688	43	127
184.78360544217688	184.89972789115646	41	127
184.89972789115646	184.98099773242632	39	127
184.98099773242632	185.22480725623583	37	127
185.0854648526077	185.16675736961452	39	127
185.17836734693878	185.25963718820861	41	127
185.27124716553288	185.3292970521542	43	127
185.27124716553288	185.3292970521542	39	127
185.3408843537415	185.4221768707483	44	127
185.3408843537415	185.4221768707483	41	127
185.4221768707483	185.52666666666667	46	127
185.4221768707483	185.52666666666667	38	127
185.52666666666667	185.6427664399093	48	127
185.52666666666667	185.72403628117914	36	127
185.6427664399093	185.75886621315192	50	127
185.75886621315192	185.87496598639456	51	127
185.75886621315192	185.87496598639456	43	127
185.87496598639456	185.97945578231293	48	127
185.87496598639456	185.97945578231293	55	127
185.97945578231293	186.09555555555556	51	127
185.97945578231293	186.09555555555556	60	127
186.09555555555556	186.20004535147393	55	127
186.09555555555556	186.20004535147393	63	127
186.20004535147393	186.28131519274376	53	127
186.20004535147393	186.28131519274376	62	127
186.28131519274376	186.37419501133786	60	127
186.28131519274376	186.37419501133786	51	127
186.37419501133786	186.45546485260772	55	127
186.37419501133786	186.45546485260772	63	127
186.45546485260772	186.57154195011339	60	127
186.45546485260772	186.57154195011339	67	127
186.57154195011339	186.6760544217687	72	127
186.57154195011339	186.6760544217687	63	127
186.68766439909297	186.78054421768707	75	127
186.68766439909297	186.78054421768707	67	127
186.78054421768707	186.8734240362812	65	127
186.78054421768707	186.8734240362812	74	127
186.88503401360543	186.9895238095238	63	127
186.88503401360543	186.9895238095238	72	127
187.00113378684807	187.10562358276644	67	127
187.00113378684807	187.10562358276644	75	127
187.10562358276644	187.22172335600908	72	127
187.10562358276644	187.22172335600908	79	127
187.22172335600908	187.33780045351475	75	127
187.22172335600908	187.33780045351475	84	127
187.33780045351475	187.45392290249433	87	127
187.33780045351475	187.45392290249433	79	127
187.45392290249433	187.59321995464853	77	127
187.45392290249433	187.59321995464853	86	127
187.59321995464853	187.72095238095238	84	127
187.59321995464853	187.72095238095238	75	127
187.73256235827665	187.86027210884353	87	127
187.73256235827665	187.86027210884353	79	127
187.86027210884353	187.98798185941044	84	127
187.86027210884353	187.98798185941044	91	127
187.98798185941044	188.1040589569161	87	127
187.98798185941044	188.1040589569161	96	127
188.1040589569161	188.24340136054423	91	127
188.1040589569161	188.24340136054423	99	127
188.24340136054423	188.38272108843537	91	127
188.24340136054423	188.38272108843537	96	127
188.24340136054423	188.38272108843537	103	127
188.24340136054423	188.38272108843537	79	127
188.24340136054423	188.38272108843537	87	127
189.53208616780046	189.76430839002268	36	127
189.53208616780046	189.76430839002268	48	127
189.76430839002268	189.8919954648526	72	127
189.76430839002268	189.8919954648526	75	127
189.76430839002268	189.8919954648526	79	127
189.76430839002268	189.8919954648526	84	127
189.76430839002268	189.8919954648526	55	127
189.76430839002268	189.8919954648526	67	127
189.76430839002268	189.8919954648526	63	127
189.76430839002268	189.8919954648526	60	127
