# onset,offset,note,velocity
1.287936507936508	1.7291156462585033	46	127
1.287936507936508	2.0425850340136056	39	127
1.7407256235827664	2.181904761904762	48	127
1.7407256235827664	2.309614512471655	51	127
2.193514739229025	2.9481632653061225	43	127
2.193514739229025	2.6346938775510202	50	127
2.6463038548752835	3.0874829931972787	48	127
2.6463038548752835	3.2035827664399092	55	127
3.099092970521542	3.5286621315192743	46	127
3.099092970521542	3.8421315192743766	39	127
3.5518820861678004	3.981451247165533	48	127
3.5518820861678004	4.097551020408163	51	127
3.993061224489796	4.7477097505668935	43	127
3.993061224489796	4.411020408163266	50	127
4.422607709750567	4.88702947845805	48	127
4.422607709750567	5.00312925170068	55	127
4.8986167800453515	5.328208616780046	46	127
4.8986167800453515	5.792607709750567	39	127
5.363038548752835	5.792607709750567	48	127
5.363038548752835	5.908707482993197	51	127
5.80421768707483	6.245396825396825	50	127
5.80421768707483	6.558866213151927	43	127
6.257006802721088	6.709795918367347	48	127
6.257006802721088	6.837505668934241	55	127
6.72140589569161	7.1741950113378685	46	127
6.72140589569161	7.510884353741496	39	127
7.185804988662132	7.661814058956916	48	127
7.185804988662132	7.429614512471655	51	127
7.673424036281179	8.172630385487528	50	127
7.673424036281179	12.317414965986394	43	127
8.184263038548753	12.317414965986394	55	127
8.184263038548753	8.648639455782313	48	127
8.660272108843538	10.216009070294785	46	127
10.227619047619047	10.471428571428572	50	127
10.483038548752834	10.69201814058957	55	127
10.703628117913832	10.947437641723356	58	127
10.959047619047618	11.156417233560092	62	127
11.168027210884354	11.411836734693878	67	127
11.42344671201814	11.60920634920635	70	127
11.620816326530612	11.818163265306122	74	127
11.829795918367347	12.061995464852608	79	127
12.061995464852608	12.305804988662132	82	127
12.317414965986394	12.561224489795919	86	127
12.561224489795919	13.06045351473923	91	127
24.147981859410432	24.71687074829932	46	127
24.147981859410432	25.018730158730158	39	127
24.728480725623584	25.158049886621317	48	127
24.728480725623584	25.28575963718821	51	127
25.16965986394558	25.947528344671202	43	127
25.16965986394558	25.645668934240362	50	127
25.657278911564624	26.086848072562358	48	127
25.657278911564624	26.20294784580499	55	127
26.09845804988662	26.51641723356009	46	127
26.09845804988662	26.829886621315193	39	127
26.528027210884353	26.992426303854874	48	127
26.528027210884353	27.108526077097505	51	127
27.00403628117914	27.503265306122447	50	127
27.00403628117914	27.828344671201815	43	127
27.526485260770976	27.96766439909297	48	127
27.526485260770976	28.083764172335602	55	127
27.979274376417234	28.42045351473923	46	127
27.979274376417234	28.88485260770975	39	127
28.43206349206349	29.03578231292517	51	127
28.43206349206349	28.88485260770975	48	127
28.91968253968254	29.395691609977323	50	127
28.91968253968254	29.697551020408163	43	127
29.395691609977323	29.964580498866212	55	127
29.395691609977323	29.84848072562358	48	127
29.84848072562358	30.324489795918367	46	127
29.84848072562358	30.649569160997732	39	127
30.33609977324263	30.579909297052154	51	127
30.33609977324263	30.82371882086168	48	127
30.83532879818594	35.444489795918365	43	127
30.83532879818594	31.32294784580499	50	127
31.334557823129252	31.78734693877551	48	127
31.334557823129252	35.444489795918365	55	127
31.798956916099772	33.25020408163265	46	127
33.261814058956915	33.49401360544218	50	127
33.49401360544218	33.7378231292517	55	127
33.749433106575964	33.9584126984127	58	127
33.97002267573696	34.190589569161	62	127
34.202222222222225	34.446009070294785	67	127
34.45764172335601	34.68981859410431	70	127
34.70142857142857	34.95684807256236	74	127
34.968480725623586	35.177460317460316	79	127
35.18907029478458	35.4328798185941	82	127
35.444489795918365	35.67668934240363	86	127
35.68829931972789	36.14108843537415	91	127
46.24174603174603	47.60013605442177	53	127
46.24174603174603	47.60013605442177	62	127
47.77428571428572	49.01655328798186	56	127
47.77428571428572	49.01655328798186	60	127
49.20231292517007	51.67523809523809	55	127
49.20231292517007	50.3865306122449	58	127
50.537460317460315	53.19614512471655	62	127
51.00185941043084	51.2340589569161	86	127
51.2340589569161	51.4546485260771	88	127
51.4546485260771	51.67523809523809	90	127
51.67523809523809	51.97709750566894	91	127
51.97709750566894	52.20929705215419	94	127
51.97709750566894	53.19614512471655	53	127
52.20929705215419	52.44149659863945	92	127
52.44149659863945	52.673696145124715	91	127
52.673696145124715	52.90589569160998	89	127
52.90589569160998	53.12648526077098	87	127
53.12648526077098	53.3702947845805	86	127
53.3702947845805	54.56612244897959	56	127
53.3702947845805	53.590884353741494	84	127
53.3702947845805	54.56612244897959	60	127
53.590884353741494	53.81147392290249	82	127
53.81147392290249	54.043673469387755	80	127
54.043673469387755	54.264263038548755	79	127
54.264263038548755	54.49646258503402	77	127
54.49646258503402	54.71705215419501	78	127
54.71705215419501	54.93764172335601	79	127
54.71705215419501	57.143537414965984	55	127
54.71705215419501	55.86643990929705	58	127
54.93764172335601	55.146621315192746	81	127
55.146621315192746	55.355600907029476	82	127
55.355600907029476	55.576190476190476	85	127
55.576190476190476	55.796780045351476	86	127
55.796780045351476	56.02897959183674	90	127
56.02897959183674	57.22480725623583	62	127
56.24956916099773	56.48176870748299	91	127
56.48176870748299	56.70235827664399	93	127
56.70235827664399	56.92294784580499	94	127
56.92294784580499	57.143537414965984	98	127
57.143537414965984	57.549886621315196	96	127
57.549886621315196	57.79369614512472	94	127
57.549886621315196	61.416009070294784	60	127
57.549886621315196	61.416009070294784	63	127
57.79369614512472	58.025895691609975	91	127
58.025895691609975	58.246485260770974	92	127
58.246485260770974	58.467074829931974	96	127
58.467074829931974	58.687664399092974	101	127
58.687664399092974	58.908253968253966	99	127
58.908253968253966	59.128843537414966	98	127
59.128843537414966	59.36104308390023	96	127
59.36104308390023	59.570022675736965	94	127
59.570022675736965	59.79061224489796	92	127
59.79061224489796	60.01120181405896	91	127
60.01120181405896	60.23179138321996	89	127
60.23179138321996	60.45238095238095	87	127
60.45238095238095	60.68458049886621	86	127
60.68458049886621	60.90517006802721	84	127
60.90517006802721	61.12575963718821	82	127
61.12575963718821	61.34634920634921	80	127
61.34634920634921	61.65981859410431	79	127
61.65981859410431	61.89201814058957	78	127
61.65981859410431	65.46789115646258	69	127
61.65981859410431	62.89047619047619	62	127
61.89201814058957	62.12421768707483	81	127
62.12421768707483	62.36802721088436	84	127
62.36802721088436	62.58861678004535	87	127
62.58861678004535	62.82081632653061	90	127
62.82081632653061	63.02979591836735	78	127
63.04140589569161	65.46789115646258	63	127
63.4825850340136	63.7031746031746	78	127
63.7031746031746	63.9237641723356	81	127
63.9237641723356	64.1443537414966	84	127
64.1443537414966	64.35333333333334	90	127
64.8061224489796	65.02671201814059	90	127
65.02671201814059	65.24730158730159	83	127
65.24730158730159	65.46789115646258	81	127
65.46789115646258	65.67687074829932	78	127
65.68845804988662	68.13818594104309	64	127
65.68845804988662	66.86106575963719	67	127
66.10643990929705	66.33863945578231	76	127
66.33863945578231	66.5592290249433	79	127
66.5592290249433	66.79142857142857	83	127
66.79142857142857	67.0004081632653	88	127
67.01201814058957	70.82009070294785	68	127
67.47639455782313	67.69700680272109	87	127
67.69700680272109	67.91759637188208	83	127
67.91759637188208	68.13818594104309	80	127
68.13818594104309	68.34716553287981	75	127
68.35877551020408	70.82009070294785	65	127
68.79995464852608	69.03215419501134	74	127
69.03215419501134	69.26433106575963	80	127
69.26433106575963	69.4965306122449	86	127
69.4965306122449	69.72875283446712	84	127
69.72875283446712	69.94934240362812	82	127
69.94934240362812	70.16993197278912	80	127
70.16993197278912	70.39049886621315	79	127
70.39049886621315	70.59950113378684	77	127
70.59950113378684	70.82009070294785	75	127
70.82009070294785	71.04068027210884	74	127
71.04068027210884	71.26126984126984	72	127
71.26126984126984	71.44702947845805	70	127
71.44702947845805	71.63278911564626	68	127
71.63278911564626	71.841768707483	67	127
71.841768707483	72.06235827664399	65	127
72.06235827664399	72.2481179138322	63	127
72.2481179138322	72.49192743764172	62	127
72.49192743764172	72.71251700680273	60	127
72.71251700680273	72.89827664399093	58	127
72.89827664399093	73.16530612244898	56	127
73.16530612244898	73.46716553287982	55	127
73.46716553287982	73.78063492063492	53	127
73.79224489795918	74.24503401360545	46	127
73.79224489795918	74.61655328798186	39	127
74.2566439909297	74.74426303854875	48	127
74.2566439909297	74.87197278911565	51	127
74.75587301587302	75.197052154195	50	127
74.75587301587302	75.56857142857143	43	127
75.20866213151928	75.70789115646258	48	127
75.20866213151928	75.83560090702947	55	127
75.71950113378685	76.19551020408163	46	127
75.71950113378685	76.520589569161	39	127
76.2071201814059	76.67151927437642	48	127
76.2071201814059	76.8340589569161	51	127
76.68312925170068	77.182358276644	50	127
76.68312925170068	77.50743764172336	43	127
77.19396825396825	77.63514739229025	48	127
77.19396825396825	77.78607709750567	55	127
77.64675736961452	78.09954648526077	46	127
77.64675736961452	78.4362358276644	39	127
78.11115646258503	78.5639455782313	48	127
78.11115646258503	78.71487528344672	51	127
78.57555555555555	79.14444444444445	50	127
78.57555555555555	81.08331065759637	43	127
79.1908843537415	81.08331065759637	55	127
79.1908843537415	79.6320634920635	48	127
79.64365079365079	81.08331065759637	46	127
81.24585034013606	81.69863945578231	62	127
81.24585034013606	81.69863945578231	67	127
81.24585034013606	81.69863945578231	70	127
81.69863945578231	81.94242630385487	74	127
81.69863945578231	81.94242630385487	86	127
81.69863945578231	81.94242630385487	79	127
82.72031746031746	83.17310657596371	67	127
82.72031746031746	83.17310657596371	70	127
82.72031746031746	83.17310657596371	62	127
83.17310657596371	83.32401360544218	86	127
83.17310657596371	83.32401360544218	79	127
83.17310657596371	83.32401360544218	74	127
85.90145124716554	86.6677097505669	39	127
85.90145124716554	86.3542403628118	46	127
86.36582766439909	86.91151927437642	51	127
86.36582766439909	86.7954195011338	48	127
86.80702947845805	87.28301587301587	50	127
86.80702947845805	87.6081179138322	43	127
87.2946485260771	87.7358276643991	48	127
87.2946485260771	87.86353741496599	55	127
87.74743764172335	88.18861678004535	46	127
87.74743764172335	88.50208616780046	39	127
88.20022675736962	88.62979591836735	48	127
88.20022675736962	88.79231292517007	51	127
88.66460317460317	89.15224489795918	50	127
88.66460317460317	89.45410430839003	43	127
89.16385487528345	89.70952380952382	55	127
89.16385487528345	89.58181405895692	48	127
89.59342403628118	90.38290249433106	39	127
89.59342403628118	90.069410430839	46	127
90.08104308390023	90.51061224489796	48	127
90.08104308390023	90.66154195011337	51	127
90.52222222222223	93.13446712018141	43	127
90.52222222222223	90.998231292517	50	127
91.00984126984127	91.439410430839	48	127
91.00984126984127	93.13446712018141	55	127
91.4509977324263	93.13446712018141	46	127
93.27378684807256	93.71496598639456	62	127
93.27378684807256	93.71496598639456	67	127
93.27378684807256	93.71496598639456	70	127
93.71496598639456	93.86589569160998	74	127
93.71496598639456	93.86589569160998	79	127
93.71496598639456	93.86589569160998	86	127
94.59732426303854	95.05011337868481	62	127
94.59732426303854	95.05011337868481	70	127
94.59732426303854	95.05011337868481	67	127
95.05011337868481	95.20104308390023	86	127
95.05011337868481	95.20104308390023	79	127
95.05011337868481	95.20104308390023	74	127
97.95260770975057	98.40539682539682	53	127
97.95260770975057	98.40539682539682	60	127
98.40539682539682	98.66081632653061	86	127
98.40539682539682	98.66081632653061	74	127
99.47351473922903	99.94952380952381	56	127
99.47351473922903	99.94952380952381	60	127
99.94952380952381	100.13528344671202	65	127
99.94952380952381	100.13528344671202	74	127
100.87832199546486	101.79551020408164	61	127
100.87832199546486	102.09736961451247	55	127
100.87832199546486	102.09736961451247	58	127
101.35433106575964	101.78390022675737	86	127
101.35433106575964	101.78390022675737	74	127
101.79551020408164	102.24829931972789	62	127
102.25990929705216	102.73591836734694	62	127
102.7475283446712	102.89845804988663	74	127
102.7475283446712	102.89845804988663	65	127
103.66471655328799	103.97818594104308	74	127
104.10589569160997	104.25682539682539	86	127
104.10589569160997	104.25682539682539	74	127
105.04630385487529	105.33655328798186	62	127
105.4526530612245	105.60358276643991	65	127
105.4526530612245	105.60358276643991	74	127
106.47433106575964	106.78780045351473	74	127
106.8922902494331	107.39151927437642	74	127
106.8922902494331	107.39151927437642	86	127
107.85591836734694	108.19260770975056	62	127
108.32031746031745	108.50607709750567	74	127
108.32031746031745	108.50607709750567	65	127
109.2491156462585	109.58580498866213	75	127
109.71351473922903	109.86444444444444	75	127
109.71351473922903	109.86444444444444	87	127
110.50299319727891	110.81646258503402	72	127
110.94417233560091	111.10671201814058	84	127
110.94417233560091	111.10671201814058	75	127
112.0471201814059	112.34897959183674	68	127
112.47668934240363	112.91786848072563	80	127
112.47668934240363	112.91786848072563	68	127
113.44031746031746	113.73056689342404	69	127
113.85827664399093	114.0208163265306	72	127
113.85827664399093	114.0208163265306	81	127
114.75224489795919	115.92485260770975	63	127
114.75224489795919	115.92485260770975	66	127
115.18181405895692	115.40240362811791	69	127
115.40240362811791	115.62299319727892	72	127
115.62299319727892	115.84358276643991	78	127
115.84358276643991	116.05256235827665	81	127
116.0641723356009	117.27160997732426	67	127
116.0641723356009	119.91868480725624	63	127
116.52857142857142	116.74916099773243	72	127
116.74916099773243	116.96975056689342	75	127
116.96975056689342	117.19034013605442	79	127
117.19034013605442	117.39931972789115	84	127
117.41092970521542	119.91868480725624	68	127
117.41092970521542	118.59514739229024	72	127
117.84049886621315	118.07269841269841	75	127
118.07269841269841	118.29328798185941	80	127
118.29328798185941	118.51387755102041	84	127
118.51387755102041	118.72285714285714	87	127
118.7344671201814	119.91868480725624	71	127
119.12920634920636	119.3033560090703	80	127
119.3033560090703	119.52394557823129	83	127
119.52394557823129	119.72131519274376	87	127
119.72131519274376	119.90707482993197	92	127
119.91868480725624	124.71360544217687	69	127
119.91868480725624	124.71360544217687	71	127
119.91868480725624	124.71360544217687	63	127
120.34825396825397	120.54562358276644	81	127
120.54562358276644	120.75460317460318	83	127
120.75460317460318	120.94036281179139	90	127
120.94036281179139	121.04485260770976	93	127
121.04485260770976	121.1841723356009	95	127
121.1841723356009	121.35832199546485	93	127
121.35832199546485	121.46281179138322	90	127
121.46281179138322	121.68340136054422	83	127
121.68340136054422	121.88077097505669	81	127
121.88077097505669	122.08975056689343	78	127
122.08975056689343	122.33356009070295	71	127
122.33356009070295	122.55414965986395	69	127
122.55414965986395	122.7863492063492	71	127
122.7863492063492	123.0069387755102	78	127
123.0069387755102	123.23913832199547	81	127
123.23913832199547	123.40167800453514	83	127
123.40167800453514	123.65709750566893	81	127
123.65709750566893	123.93573696145124	78	127
123.93573696145124	124.19115646258503	71	127
124.19115646258503	124.44657596371881	69	127
124.44657596371881	124.71360544217687	66	127
124.71360544217687	124.95741496598639	59	127
124.96902494331066	125.83977324263039	57	127
126.01392290249433	127.058820861678	57	127
127.07043083900227	127.89473922902495	57	127
128.05727891156462	128.80031746031747	57	127
128.49843537414966	128.9744671201814	59	127
128.49843537414966	128.9744671201814	63	127
128.9744671201814	129.41564625850341	61	127
128.9744671201814	129.41564625850341	64	127
128.9744671201814	129.926485260771	56	127
129.41564625850341	129.93809523809523	63	127
129.41564625850341	129.93809523809523	65	127
129.93809523809523	130.4837641723356	64	127
129.93809523809523	130.4837641723356	68	127
129.93809523809523	130.84367346938777	54	127
130.4837641723356	131.43578231292517	63	127
130.4837641723356	131.43578231292517	69	127
131.44739229024944	131.9930612244898	46	127
131.44739229024944	132.28328798185942	55	127
131.44739229024944	132.43421768707483	63	127
131.44739229024944	132.43421768707483	70	127
131.9930612244898	132.42263038548754	34	127
132.43421768707483	133.32820861678005	62	127
132.43421768707483	133.32820861678005	72	127
132.43421768707483	133.32820861678005	54	127
133.33981859410432	134.10607709750568	55	127
133.33981859410432	133.7809977324263	69	127
133.33981859410432	134.10607709750568	63	127
133.80421768707484	134.2802267573696	70	127
134.29183673469387	134.79106575963718	35	127
134.29183673469387	135.76630385487528	75	127
134.79106575963718	135.24385487528346	47	127
135.2554648526077	135.76630385487528	30	127
135.76630385487528	136.2190702947846	42	127
135.76630385487528	136.72990929705216	73	127
136.2307029478458	136.72990929705216	32	127
136.72990929705216	137.15950113378685	44	127
136.72990929705216	137.15950113378685	71	127
137.17111111111112	137.93736961451248	63	127
137.17111111111112	137.93736961451248	55	127
137.17111111111112	138.0882993197279	70	127
137.17111111111112	137.64709750566894	46	127
137.64709750566894	138.07668934240363	34	127
138.0882993197279	139.00548752834467	54	127
138.0882993197279	139.00548752834467	62	127
138.0882993197279	139.01709750566894	72	127
139.01709750566894	139.82979591836735	63	127
139.01709750566894	139.52793650793652	69	127
139.01709750566894	139.82979591836735	55	127
139.52793650793652	139.98072562358277	70	127
139.98072562358277	140.43351473922903	35	127
139.98072562358277	142.5813605442177	75	127
140.43351473922903	140.89791383219955	47	127
140.90952380952382	141.4203628117914	41	127
141.4203628117914	141.8499319727891	53	127
141.86154195011338	142.33755102040817	44	127
142.33755102040817	142.8251700680272	56	127
142.83678004535147	144.21836734693878	75	127
142.83678004535147	143.28956916099773	42	127
143.28956916099773	143.75396825396825	54	127
144.21836734693878	145.14716553287982	77	127
144.21836734693878	144.65954648526076	39	127
144.65954648526076	145.13555555555556	51	127
145.14716553287982	145.61156462585035	78	127
145.62315192743765	146.11079365079365	38	127
145.62315192743765	146.4126530612245	80	127
146.11079365079365	146.55197278911564	50	127
146.5635827664399	147.49238095238096	78	127
147.0395918367347	147.50399092970522	37	127
147.50399092970522	147.95678004535148	80	127
147.50399092970522	147.95678004535148	49	127
147.96839002267575	148.57210884353742	82	127
148.5837188208617	148.79267573696146	44	127
148.5837188208617	149.4892970521542	83	127
148.80430839002267	149.03650793650795	51	127
149.04809523809524	149.25707482993198	53	127
149.2687074829932	149.47768707482993	59	127
149.4892970521542	149.7098866213152	63	127
149.4892970521542	149.94208616780045	82	127
149.72149659863945	149.93047619047618	65	127
149.94208616780045	150.66190476190476	80	127
149.94208616780045	150.3948752834467	71	127
150.66190476190476	150.88249433106577	78	127
150.88249433106577	151.32367346938776	77	127
151.32367346938776	151.54426303854876	45	127
151.32367346938776	152.19442176870749	76	127
151.55585034013606	151.7532426303855	51	127
151.76485260770974	151.97383219954648	53	127
151.98544217687075	152.18281179138322	60	127
152.19442176870749	152.62399092970523	77	127
152.19442176870749	152.38018140589568	63	127
152.39179138321995	152.61238095238096	65	127
152.62399092970523	153.87786848072562	84	127
152.62399092970523	153.06517006802721	72	127
154.08684807256236	154.34226757369615	44	127
154.08684807256236	155.0272335600907	83	127
154.35387755102042	154.5744671201814	51	127
154.58607709750567	154.7950566893424	53	127
154.80666666666667	155.0156462585034	59	127
155.0272335600907	155.44521541950112	82	127
155.0272335600907	155.23621315192744	63	127
155.24784580498866	155.43360544217688	65	127
155.44521541950112	155.87478458049887	71	127
155.44521541950112	156.10696145124717	80	127
156.10696145124717	156.32757369614512	78	127
156.32757369614512	156.76873015873016	77	127
156.76873015873016	156.97773242630385	45	127
156.76873015873016	157.66272108843538	76	127
156.98934240362811	157.20993197278912	51	127
157.2215419501134	157.43049886621316	53	127
157.44213151927437	157.6511111111111	60	127
157.66272108843538	158.10390022675736	77	127
157.66272108843538	157.8717006802721	63	127
157.88331065759638	158.09229024943312	65	127
158.10390022675736	158.5334693877551	72	127
158.10390022675736	159.2881179138322	84	127
159.4390476190476	159.64802721088435	46	127
159.4390476190476	160.28657596371883	77	127
159.64802721088435	159.8570068027211	52	127
159.86861678004536	160.05437641723356	54	127
160.06598639455783	160.27496598639456	61	127
160.28657596371883	160.49555555555557	64	127
160.28657596371883	160.75097505668936	78	127
160.5071655328798	160.7393650793651	66	127
160.75097505668936	161.18054421768707	73	127
160.75097505668936	161.94680272108843	85	127
162.09773242630385	162.28349206349208	47	127
162.09773242630385	162.9336507936508	78	127
162.29510204081632	162.49244897959184	53	127
162.50408163265305	162.7130612244898	55	127
162.72467120181406	162.92204081632653	62	127
162.9336507936508	163.13102040816327	65	127
162.9336507936508	163.31678004535146	79	127
163.14263038548754	163.30517006802722	67	127
163.31678004535146	163.73473922902494	74	127
163.31678004535146	164.4893650793651	86	127
164.6402947845805	164.84929705215418	48	127
164.6402947845805	165.46462585034013	79	127
164.86090702947845	165.0350566893424	54	127
165.0466439909297	165.23242630385488	56	127
165.24403628117915	165.4530158730159	63	127
165.46462585034013	165.66197278911565	66	127
165.46462585034013	165.89419501133787	80	127
165.67360544217686	165.8825850340136	68	127
165.89419501133787	166.33537414965986	75	127
165.89419501133787	167.15968253968254	87	127
170.45691609977325	170.66589569161	34	127
170.67750566893423	170.88648526077097	46	127
170.89809523809524	171.10707482993197	56	127
171.11868480725624	171.32766439909298	58	127
171.33925170068028	171.54825396825396	62	127
171.55986394557823	171.76884353741497	65	127
171.78045351473924	172.22163265306122	68	127
171.78045351473924	172.70925170068028	80	127
171.78045351473924	172.70925170068028	92	127
172.70925170068028	173.19687074829932	79	127
172.70925170068028	173.19687074829932	91	127
173.19687074829932	173.40585034013606	36	127
173.19687074829932	173.63802721088436	75	127
173.19687074829932	173.63802721088436	87	127
173.41746031746032	173.62643990929706	48	127
173.63802721088436	174.05600907029478	89	127
173.63802721088436	174.05600907029478	77	127
173.63802721088436	173.84702947845804	51	127
173.8586394557823	174.05600907029478	56	127
174.05600907029478	174.47396825396825	91	127
174.05600907029478	174.26498866213151	60	127
174.05600907029478	174.47396825396825	79	127
174.26498866213151	174.46235827664398	63	127
174.47396825396825	174.903537414966	92	127
174.47396825396825	174.903537414966	80	127
174.47396825396825	174.89192743764173	68	127
174.903537414966	175.8091156462585	94	127
174.903537414966	175.8091156462585	82	127
175.8091156462585	176.23868480725625	83	127
175.8091156462585	176.0297052154195	37	127
175.8091156462585	176.23868480725625	95	127
176.0412925170068	176.23868480725625	49	127
176.2502947845805	176.45927437641723	53	127
176.4708843537415	176.67986394557823	56	127
176.6914739229025	176.8772335600907	59	127
176.88884353741497	177.05138321995466	61	127
177.06297052154196	177.9221315192744	89	127
177.06297052154196	177.9221315192744	77	127
177.06297052154196	177.46931972789116	65	127
177.9221315192744	178.3517006802721	75	127
177.9221315192744	178.3517006802721	87	127
178.3517006802721	178.80448979591836	83	127
178.3517006802721	178.56068027210884	39	127
178.3517006802721	178.80448979591836	71	127
178.5722902494331	178.79287981859412	51	127
178.80448979591836	179.29210884353742	85	127
178.80448979591836	179.29210884353742	73	127
178.80448979591836	179.02507936507936	54	127
179.03668934240363	179.28049886621315	59	127
179.29210884353742	179.74489795918367	75	127
179.29210884353742	179.74489795918367	87	127
179.29210884353742	179.51269841269843	63	127
179.52430839002267	179.7332879818594	66	127
179.74489795918367	180.18607709750566	71	127
179.74489795918367	180.19768707482993	77	127
179.74489795918367	180.19768707482993	89	127
180.19768707482993	181.04521541950115	78	127
180.19768707482993	181.04521541950115	90	127
181.04521541950115	181.26580498866213	40	127
181.04521541950115	181.4980045351474	80	127
181.04521541950115	181.4980045351474	92	127
181.2774149659864	181.4980045351474	49	127
181.5095918367347	181.74181405895692	52	127
181.7534240362812	181.95079365079366	56	127
181.96240362811793	182.1597732426304	59	127
182.1713605442177	182.4035827664399	61	127
182.41519274376418	183.36721088435374	73	127
182.41519274376418	183.36721088435374	85	127
182.41519274376418	182.92603174603175	64	127
183.36721088435374	183.7851700680272	71	127
183.36721088435374	183.7851700680272	83	127
183.7851700680272	184.23795918367347	67	127
183.7851700680272	184.00575963718822	41	127
183.7851700680272	184.23795918367347	79	127
184.01734693877552	184.2263492063492	49	127
184.23795918367347	184.6791156462585	68	127
184.23795918367347	184.6791156462585	80	127
184.23795918367347	184.4469387755102	53	127
184.45854875283447	184.6675283446712	56	127
184.6791156462585	185.09709750566893	70	127
184.6791156462585	185.09709750566893	82	127
184.6791156462585	184.86489795918368	59	127
184.87650793650795	185.0854648526077	61	127
185.09709750566893	185.4221768707483	71	127
185.09709750566893	185.4221768707483	83	127
185.09709750566893	185.53827664399094	65	127
185.54986394557824	185.81691609977324	73	127
185.54986394557824	185.81691609977324	85	127
185.94462585034015	186.28131519274376	87	127
185.94462585034015	186.28131519274376	75	127
186.40902494331067	186.5599546485261	77	127
186.40902494331067	186.5599546485261	89	127
186.40902494331067	186.6180045351474	34	127
186.62961451247165	186.88503401360543	46	127
186.8966439909297	187.10562358276644	53	127
187.1172335600907	187.32621315192745	56	127
187.33780045351475	187.54680272108843	58	127
187.5584126984127	187.76739229024943	62	127
187.7790022675737	188.71938775510205	70	127
187.7790022675737	188.2201814058957	68	127
188.71938775510205	189.2534693877551	68	127
189.2534693877551	189.46244897959184	41	127
189.2534693877551	189.67142857142858	67	127
189.4740589569161	189.67142857142858	49	127
189.67142857142858	190.1009977324263	68	127
189.67142857142858	189.88040816326532	53	127
189.8919954648526	190.08938775510205	56	127
190.1009977324263	190.3215873015873	59	127
190.1009977324263	190.56539682539682	70	127
190.33319727891157	190.55378684807258	61	127
190.56539682539682	190.92530612244897	71	127
190.56539682539682	191.0414058956916	65	127
191.05301587301588	191.366485260771	73	127
191.49419501133787	191.87732426303856	75	127
192.0166439909297	192.16757369614513	77	127
192.0166439909297	192.22562358276645	34	127
192.23723356009071	192.44621315192742	46	127
192.4578231292517	192.66680272108843	53	127
192.6784126984127	192.88739229024944	56	127
192.8990022675737	193.11959183673468	58	127
193.13120181405895	193.35179138321996	62	127
193.36340136054423	194.26897959183674	58	127
194.26897959183674	194.73337868480726	56	127
194.74498866213153	194.86108843537414	41	127
194.86108843537414	195.1977777777778	55	127
194.86108843537414	197.2295238095238	41	127
194.9655782312925	195.18616780045352	59	127
195.1977777777778	195.5344671201814	56	127
195.1977777777778	195.42997732426304	61	127
195.4415873015873	195.6621768707483	68	127
195.67378684807255	195.98725623582766	58	127
195.67378684807255	195.8827664399093	71	127
195.89437641723356	196.1033560090703	73	127
196.11496598639457	196.52131519274377	85	127
196.11496598639457	196.40521541950113	59	127
196.53292517006804	196.86961451247166	61	127
196.99732426303854	197.14825396825398	63	127
197.4849433106576	197.77519274376417	65	127
197.90290249433107	198.2047619047619	66	127
198.28603174603174	198.61111111111111	68	127
198.738820861678	199.0290702947846	70	127
199.13356009070296	199.4354195011338	71	127
199.56312925170067	199.85337868480727	73	127
199.96947845804988	200.28294784580498	75	127
200.38743764172335	200.64285714285714	77	127
200.77056689342405	201.07242630385488	78	127
201.21174603174603	201.52521541950114	80	127
201.65292517006802	201.96639455782312	82	127
202.09410430839003	202.41918367346938	83	127
202.54689342403628	202.93002267573695	85	127
203.06934240362813	203.44086167800452	87	127
203.59179138321994	203.858820861678	89	127
203.84721088435373	204.63668934240363	70	127
203.90526077097505	204.63668934240363	74	127
203.97492063492064	204.49736961451248	78	127
204.03297052154196	204.49736961451248	86	127
204.10263038548752	204.49736961451248	90	127
204.6482993197279	205.03142857142856	92	127
205.18235827664398	205.37972789115645	94	127
207.44630385487528	207.87587301587303	78	127
207.44630385487528	207.87587301587303	66	127
207.44630385487528	207.87587301587303	74	127
207.44630385487528	208.02680272108844	58	127
207.44630385487528	208.02680272108844	62	127
208.03841269841269	208.4099319727891	80	127
208.56086167800453	208.72340136054422	82	127
214.43551020408162	214.64448979591836	43	127
214.65609977324263	214.86507936507937	50	127
214.87668934240364	215.08566893424037	55	127
215.09727891156462	215.30625850340135	58	127
215.31786848072562	215.52684807256236	62	127
215.53845804988663	215.74743764172337	67	127
215.7590476190476	216.43242630385487	74	127
215.99124716553288	216.20022675736962	58	127
216.2118367346939	216.4208163265306	62	127
216.43242630385487	216.65301587301587	75	127
216.43242630385487	216.6414058956916	67	127
216.65301587301587	217.09419501133786	77	127
216.65301587301587	216.8619954648526	70	127
216.87360544217688	217.08258503401362	67	127
217.09419501133786	217.9649433106576	79	127
217.31478458049887	217.5237641723356	50	127
217.53537414965987	217.7443537414966	55	127
217.75596371882085	217.95333333333335	58	127
217.9649433106576	218.17392290249433	62	127
217.9649433106576	218.41773242630384	77	127
218.1855328798186	218.39451247165533	58	127
218.41773242630384	219.48585034013607	75	127
218.63832199546485	218.8473015873016	55	127
218.85891156462586	219.10272108843537	58	127
219.11433106575964	219.4742403628118	62	127
219.48585034013607	219.69482993197278	67	127
219.48585034013607	219.81092970521541	74	127
219.70643990929705	220.40303854875285	51	127
219.74126984126985	220.40303854875285	58	127
219.77609977324263	220.40303854875285	63	127
219.82253968253968	220.40303854875285	67	127
219.85736961451246	220.40303854875285	70	127
219.89219954648527	220.40303854875285	75	127
219.92702947845805	220.40303854875285	79	127
225.41854875283445	225.61591836734695	39	127
225.6275283446712	225.83650793650793	46	127
225.8481179138322	226.04548752834467	51	127
226.05709750566893	226.26607709750567	55	127
226.27768707482994	226.48666666666668	58	127
226.49827664399092	226.6956462585034	63	127
226.70725623582766	227.53156462585034	85	127
226.92784580498866	227.1368253968254	55	127
227.14843537414967	227.3574149659864	58	127
227.3574149659864	227.51995464852607	63	127
227.53156462585034	227.74054421768707	67	127
227.53156462585034	227.97274376417235	84	127
227.75215419501134	227.96113378684808	63	127
227.97274376417235	228.64612244897958	82	127
228.19333333333333	228.40231292517007	58	127
228.41392290249433	228.63451247165534	63	127
228.64612244897958	228.85510204081632	67	127
228.64612244897958	228.8667120181406	80	127
228.8667120181406	229.07569160997733	70	127
228.8667120181406	229.29628117913833	79	127
229.0873015873016	229.28467120181406	67	127
229.29628117913833	230.05092970521542	78	127
229.5168707482993	229.73746031746032	60	127
229.7490702947846	229.95804988662132	63	127
229.96965986394557	230.19024943310657	67	127
230.20185941043084	230.55015873015873	73	127
230.20185941043084	230.66625850340137	79	127
230.561768707483	231.223537414966	55	127
230.59659863945578	231.223537414966	62	127
230.63142857142856	231.223537414966	70	127
230.67786848072564	231.223537414966	74	127
230.72430839002268	231.223537414966	79	127
230.782358276644	231.223537414966	86	127
236.26226757369614	237.1562358276644	62	127
236.26226757369614	237.1562358276644	58	127
237.1562358276644	237.6322448979592	63	127
237.1562358276644	237.6322448979592	60	127
237.6322448979592	238.08503401360545	65	127
237.6322448979592	238.08503401360545	62	127
238.08503401360545	238.56104308390022	67	127
238.08503401360545	238.56104308390022	63	127
238.56104308390022	239.08349206349206	68	127
238.56104308390022	239.08349206349206	65	127
239.08349206349206	240.0122902494331	70	127
239.08349206349206	240.0122902494331	67	127
240.0122902494331	240.96430839002267	66	127
240.0122902494331	240.96430839002267	72	127
240.96430839002267	241.50997732426305	69	127
240.96430839002267	241.84666666666666	67	127
241.50997732426305	242.125306122449	70	127
242.13691609977323	244.6911111111111	75	127
242.13691609977323	242.9380045351474	66	127
243.11215419501133	244.01773242630387	67	127
244.0293424036281	244.7607709750567	66	127
244.96975056689342	245.72439909297051	67	127
244.96975056689342	245.72439909297051	70	127
244.96975056689342	245.87532879818593	79	127
244.96975056689342	245.72439909297051	82	127
245.87532879818593	246.89700680272108	84	127
245.87532879818593	246.83895691609976	78	127
245.87532879818593	246.83895691609976	66	127
245.87532879818593	246.83895691609976	72	127
246.89700680272108	247.60521541950112	69	127
246.89700680272108	247.6168253968254	81	127
246.89700680272108	247.907074829932	79	127
246.89700680272108	247.907074829932	67	127
247.6168253968254	248.04639455782313	82	127
247.6168253968254	248.04639455782313	70	127
248.0580045351474	250.77473922902493	66	127
248.0580045351474	250.77473922902493	78	127
248.0580045351474	250.77473922902493	87	127
248.0580045351474	250.77473922902493	75	127
250.77473922902493	252.12149659863945	73	127
250.77473922902493	252.12149659863945	66	127
250.77473922902493	252.12149659863945	77	127
250.77473922902493	252.12149659863945	78	127
250.77473922902493	252.12149659863945	85	127
250.77473922902493	252.12149659863945	65	127
252.12149659863945	253.34054421768707	83	127
252.12149659863945	253.34054421768707	75	127
252.12149659863945	253.34054421768707	78	127
252.12149659863945	253.34054421768707	63	127
252.12149659863945	253.34054421768707	66	127
252.12149659863945	253.34054421768707	71	127
253.51469387755103	256.33591836734695	70	127
253.51469387755103	256.33591836734695	73	127
253.51469387755103	256.33591836734695	78	127
253.51469387755103	256.33591836734695	82	127
253.51469387755103	256.33591836734695	61	127
253.51469387755103	256.33591836734695	66	127
256.33591836734695	259.0178231292517	73	127
256.33591836734695	259.0178231292517	77	127
256.33591836734695	257.88004535147394	85	127
256.33591836734695	257.88004535147394	73	127
256.33591836734695	259.0178231292517	65	127
256.33591836734695	259.0178231292517	61	127
257.88004535147394	259.28485260770975	81	127
257.88004535147394	259.28485260770975	69	127
259.28485260770975	262.00156462585034	65	127
259.28485260770975	262.00156462585034	69	127
259.28485260770975	262.00156462585034	77	127
259.28485260770975	262.00156462585034	81	127
259.28485260770975	262.00156462585034	57	127
259.28485260770975	262.00156462585034	60	127
262.00156462585034	264.9737414965986	60	127
262.00156462585034	264.9737414965986	68	127
262.00156462585034	264.9737414965986	76	127
262.00156462585034	264.9737414965986	80	127
262.00156462585034	264.9737414965986	56	127
262.00156462585034	264.9737414965986	64	127
265.1943310657596	268.7353741496599	69	127
265.1943310657596	268.7353741496599	76	127
265.1943310657596	268.7353741496599	52	127
265.1943310657596	268.7353741496599	81	127
265.1943310657596	268.7353741496599	64	127
265.1943310657596	268.7353741496599	61	127
265.1943310657596	268.7353741496599	57	127
271.47532879818596	271.6843083900227	41	127
271.47532879818596	272.3576870748299	81	127
271.47532879818596	272.3576870748299	69	127
271.47532879818596	272.3576870748299	72	127
271.69591836734696	271.9048979591837	51	127
271.91648526077097	272.1254648526077	57	127
272.1370975056689	272.34607709750566	53	127
272.3576870748299	272.79886621315194	79	127
272.3576870748299	272.56666666666666	63	127
272.3576870748299	272.79886621315194	87	127
272.3576870748299	272.79886621315194	75	127
272.57827664399093	272.78725623582767	69	127
272.79886621315194	273.6231746031746	74	127
272.79886621315194	273.6231746031746	77	127
272.79886621315194	273.6231746031746	86	127
273.01945578231295	273.2284353741497	69	127
273.24002267573695	273.4141950113379	63	127
273.42580498866215	273.61156462585035	53	127
273.6231746031746	273.8205442176871	57	127
273.6231746031746	274.0411337868481	72	127
273.6231746031746	274.0411337868481	75	127
273.6231746031746	274.0411337868481	84	127
273.83215419501136	274.0411337868481	51	127
274.05274376417236	274.48231292517005	41	127
274.05274376417236	274.27331065759637	73	127
274.27331065759637	274.4939229024943	75	127
274.4939229024943	274.9002721088435	49	127
274.4939229024943	274.7145124716553	77	127
274.7145124716553	274.9118820861678	80	127
274.9118820861678	275.10925170068026	85	127
274.9118820861678	276.02643990929704	59	127
275.10925170068026	275.318231292517	84	127
275.318231292517	275.51560090702947	83	127
275.51560090702947	275.7361904761905	77	127
275.7361904761905	275.9567800453515	75	127
275.9567800453515	276.1773696145125	73	127
276.1773696145125	276.3863492063492	70	127
276.1773696145125	276.60693877551023	49	127
276.3863492063492	276.60693877551023	71	127
276.6185260770975	276.82750566893424	41	127
276.6185260770975	277.40802721088437	72	127
276.6185260770975	277.40802721088437	81	127
276.6185260770975	277.40802721088437	69	127
276.83913832199545	277.0481179138322	51	127
277.0481179138322	277.19904761904763	57	127
277.2106575963719	277.3964172335601	53	127
277.40802721088437	277.6170068027211	63	127
277.40802721088437	277.8491836734694	75	127
277.40802721088437	277.8491836734694	79	127
277.40802721088437	277.8491836734694	87	127
277.6286167800454	277.8375963718821	69	127
277.8491836734694	278.673514739229	74	127
277.8491836734694	278.673514739229	77	127
277.8491836734694	278.673514739229	86	127
278.04655328798185	278.2555328798186	69	127
278.2671655328798	278.4413151927438	63	127
278.45290249433106	278.6618820861678	53	127
278.673514739229	279.10308390022675	84	127
278.673514739229	278.88249433106574	57	127
278.673514739229	279.10308390022675	72	127
278.673514739229	279.10308390022675	75	127
278.89410430839	279.10308390022675	51	127
279.10308390022675	279.3004535147392	73	127
279.10308390022675	279.4861904761905	41	127
279.3004535147392	279.4978231292517	75	127
279.4978231292517	279.68356009070294	77	127
279.4978231292517	279.8925396825397	49	127
279.68356009070294	279.9041723356009	80	127
279.9041723356009	280.1247619047619	85	127
279.9041723356009	281.05356009070294	59	127
280.1247619047619	280.32213151927436	84	127
280.32213151927436	280.54272108843537	83	127
280.54272108843537	280.7633106575964	77	127
280.7633106575964	280.9839002267574	75	127
280.9839002267574	281.18126984126985	73	127
281.18126984126985	281.3902494331066	70	127
281.18126984126985	281.58761904761906	49	127
281.3902494331066	281.58761904761906	71	127
281.5992290249433	281.80820861678006	39	127
281.5992290249433	282.40031746031747	71	127
281.5992290249433	282.40031746031747	83	127
281.81981859410433	282.02879818594107	47	127
282.04038548752834	282.19133786848073	54	127
282.202947845805	282.3887074829932	51	127
282.40031746031747	282.8414965986395	81	127
282.40031746031747	282.6092970521542	59	127
282.40031746031747	282.8414965986395	93	127
282.6209070294785	282.8298866213152	66	127
282.8414965986395	283.6541950113379	92	127
282.8414965986395	283.6541950113379	80	127
283.03886621315195	283.2478458049887	66	127
283.25943310657595	283.4684126984127	59	127
283.4800453514739	283.6425850340136	51	127
283.6541950113379	284.0489342403628	90	127
283.6541950113379	283.8399546485261	54	127
283.6541950113379	284.0489342403628	78	127
283.85156462585036	284.0489342403628	47	127
284.0489342403628	285.34925170068027	89	127
284.0489342403628	284.4668934240363	39	127
284.0489342403628	285.34925170068027	77	127
284.47850340136057	284.6874829931973	57	127
284.6990702947846	284.90807256235826	65	127
284.9196825396825	285.12866213151926	57	127
285.14027210884353	285.337641723356	51	127
285.34925170068027	285.7556009070295	57	127
285.34925170068027	286.1851700680272	86	127
285.34925170068027	286.1851700680272	74	127
285.76721088435374	286.17356009070295	51	127
286.1851700680272	286.6031292517007	72	127
286.1851700680272	286.6031292517007	84	127
286.61473922902496	286.8237188208617	38	127
286.61473922902496	287.5087074829932	83	127
286.61473922902496	287.5087074829932	71	127
286.83532879818597	287.0675283446712	45	127
287.07913832199546	287.2881179138322	53	127
287.29972789115646	287.49709750566893	50	127
287.5087074829932	287.7292970521542	57	127
287.5087074829932	287.9614739229025	79	127
287.5087074829932	287.9614739229025	91	127
287.7409070294785	287.9498866213152	65	127
287.9614739229025	288.7045351473923	89	127
287.9614739229025	288.7045351473923	77	127
288.1356462585034	288.2865759637188	65	127
288.2981859410431	288.49555555555554	57	127
288.5071655328798	288.692925170068	50	127
288.7045351473923	288.913514739229	53	127
288.7045351473923	289.12249433106575	77	127
288.7045351473923	289.12249433106575	89	127
288.9251247165533	289.1108843537415	45	127
289.12249433106575	289.52884353741496	39	127
289.12249433106575	289.94680272108843	74	127
289.12249433106575	289.94680272108843	86	127
289.5404535147392	289.74943310657596	57	127
289.76104308390023	289.94680272108843	65	127
289.94680272108843	290.3647619047619	72	127
289.94680272108843	290.3647619047619	84	127
289.94680272108843	290.13256235827663	57	127
290.1441723356009	290.35315192743764	51	127
290.3647619047619	290.75950113378684	57	127
290.3647619047619	290.7711111111111	65	127
290.3647619047619	290.7711111111111	77	127
290.7711111111111	291.0613605442177	79	127
290.7711111111111	291.0497505668934	51	127
290.7711111111111	291.0613605442177	67	127
291.0613605442177	291.4560997732426	80	127
291.0613605442177	291.4560997732426	68	127
291.4677097505669	291.6766893424036	39	127
291.4677097505669	292.32684807256237	71	127
291.4677097505669	292.32684807256237	83	127
291.6882993197279	291.8972789115646	47	127
291.9088888888889	292.0946485260771	54	127
292.10625850340136	292.3152380952381	51	127
292.32684807256237	292.7680045351474	81	127
292.32684807256237	292.7680045351474	93	127
292.32684807256237	292.52421768707484	59	127
292.5358276643991	292.7564172335601	66	127
292.7680045351474	293.59231292517006	80	127
292.7680045351474	293.59231292517006	92	127
293.0002267573696	293.20920634920634	66	127
293.2208163265306	293.4065759637188	59	127
293.4065759637188	293.5807256235828	51	127
293.59231292517006	294.0102947845805	78	127
293.59231292517006	293.78968253968253	54	127
293.59231292517006	294.0102947845805	90	127
293.80131519274374	293.99866213151927	47	127
294.0102947845805	294.46308390022676	39	127
294.0102947845805	295.34544217687073	77	127
294.0102947845805	295.34544217687073	89	127
294.47469387755103	294.69528344671204	57	127
294.7068934240363	294.91585034013605	65	127
294.92748299319726	295.1248299319728	57	127
295.136462585034	295.3338095238095	51	127
295.34544217687073	296.1117006802721	74	127
295.34544217687073	295.6705215419501	57	127
295.34544217687073	296.1117006802721	86	127
295.6821315192744	296.10009070294785	51	127
296.1117006802721	296.5180498866213	72	127
296.1117006802721	296.5180498866213	84	127
296.5296598639456	296.7502494331066	38	127
296.5296598639456	297.41201814058957	71	127
296.5296598639456	297.41201814058957	83	127
296.7618367346939	296.97083900226755	45	127
296.9824489795918	297.1798185941043	53	127
297.19142857142856	297.4004081632653	50	127
297.41201814058957	297.8067573696145	91	127
297.41201814058957	297.8067573696145	79	127
297.41201814058957	297.5745351473923	57	127
297.5861678004535	297.79514739229023	65	127
297.8067573696145	298.54979591836735	77	127
297.8067573696145	298.54979591836735	89	127
297.8996371882086	298.09700680272107	65	127
298.10861678004534	298.3175963718821	57	127
298.32920634920634	298.5381859410431	50	127
298.54979591836735	298.7587755102041	53	127
298.54979591836735	298.9793650793651	76	127
298.54979591836735	298.9793650793651	88	127
298.77038548752836	298.9677551020408	45	127
298.9793650793651	299.7920634920635	74	127
298.9793650793651	299.3857142857143	39	127
298.9793650793651	299.7920634920635	86	127
299.39732426303857	299.59469387755104	57	127
299.59469387755104	299.78045351473924	65	127
299.7920634920635	300.15197278911563	84	127
299.7920634920635	299.9429931972789	57	127
299.7920634920635	300.15197278911563	72	127
299.95460317460316	300.15197278911563	51	127
300.15197278911563	300.5699319727891	57	127
300.15197278911563	300.5815419501134	65	127
300.15197278911563	300.5815419501134	77	127
300.5815419501134	301.0111111111111	51	127
300.5815419501134	301.0227210884354	69	127
300.5815419501134	301.0227210884354	81	127
301.0227210884354	301.45229024943313	82	127
301.0227210884354	301.45229024943313	70	127
301.45229024943313	301.8702267573696	84	127
301.45229024943313	302.5204081632653	39	127
301.45229024943313	301.6496598639456	51	127
301.45229024943313	301.8702267573696	72	127
301.66124716553287	301.8702267573696	53	127
301.8818594104308	302.07920634920634	56	127
302.09083900226756	302.26498866213154	60	127
302.2765759637188	302.4391383219955	56	127
302.45074829931974	302.6597278911565	53	127
302.6597278911565	303.00802721088434	51	127
303.4608163265306	303.8787755102041	92	127
303.4608163265306	303.8787755102041	80	127
303.8787755102041	304.08775510204083	53	127
303.8787755102041	304.71469387755104	79	127
303.8787755102041	304.71469387755104	91	127
303.8787755102041	304.98172335600907	41	127
304.0993650793651	304.29673469387757	55	127
304.30834467120184	304.48249433106577	59	127
304.49410430839004	304.7030839002268	63	127
304.71469387755104	305.12104308390025	77	127
304.71469387755104	304.9120634920635	59	127
304.71469387755104	305.12104308390025	89	127
304.9120634920635	305.109433106576	55	127
305.12104308390025	305.4809523809524	53	127
305.12104308390025	305.8756916099773	75	127
305.12104308390025	305.8756916099773	87	127
305.8756916099773	306.2820408163265	86	127
305.8756916099773	306.2820408163265	74	127
306.2936507936508	307.35015873015874	41	127
306.2936507936508	306.5026303854875	53	127
306.5142403628118	306.71160997732426	55	127
306.71160997732426	306.83931972789117	58	127
306.85092970521544	307.0599092970522	62	127
307.07151927437644	307.2804988662132	58	127
307.29208616780045	307.4894557823129	55	127
307.50108843537413	307.9190476190476	53	127
308.3602267573696	308.78979591836736	82	127
308.3602267573696	308.78979591836736	94	127
308.78979591836736	308.9871655328798	55	127
308.78979591836736	309.6257142857143	81	127
308.78979591836736	309.6257142857143	93	127
308.78979591836736	309.88113378684807	43	127
308.9987755102041	309.19614512471657	57	127
309.20775510204084	309.4051247165533	61	127
309.4051247165533	309.61410430839004	65	127
309.6257142857143	310.008843537415	79	127
309.6257142857143	309.8230839002268	61	127
309.6257142857143	310.008843537415	91	127
309.83469387755105	309.9972335600907	57	127
310.008843537415	310.7867120181406	77	127
310.008843537415	310.4035827664399	55	127
310.008843537415	310.7867120181406	89	127
310.7867120181406	311.14662131519276	76	127
310.7867120181406	311.14662131519276	88	127
311.15823129251703	311.36721088435377	55	127
311.15823129251703	312.1799092970522	43	127
311.37879818594104	311.5761904761905	57	127
311.5761904761905	311.73873015873016	60	127
311.75034013605443	311.87804988662134	64	127
311.8896371882086	312.09861678004535	60	127
312.11024943310656	312.3192290249433	57	127
312.33083900226757	312.702335600907	55	127
313.15514739229025	313.59632653061226	84	127
313.15514739229025	313.59632653061226	96	127
313.59632653061226	313.805306122449	57	127
313.59632653061226	314.47868480725623	83	127
313.59632653061226	314.47868480725623	95	127
313.59632653061226	314.7457142857143	45	127
313.81691609977327	314.02589569161	59	127
314.0374829931973	314.246462585034	63	127
314.2580952380952	314.46707482993196	67	127
314.47868480725623	314.8966439909297	93	127
314.47868480725623	314.6644444444444	63	127
314.47868480725623	314.8966439909297	81	127
314.6760544217687	314.88503401360543	59	127
314.8966439909297	315.77897959183673	79	127
314.8966439909297	315.77897959183673	91	127
314.8966439909297	315.3146031746032	57	127
315.77897959183673	316.2085714285714	78	127
315.77897959183673	316.2085714285714	90	127
316.2201814058957	317.4740589569161	45	127
316.41755102040815	316.60331065759635	60	127
316.6149206349206	316.82390022675736	63	127
316.83551020408163	317.0212698412698	67	127
317.0328798185941	317.24185941043083	72	127
317.2534693877551	317.46244897959184	60	127
317.4740589569161	318.751156462585	43	127
317.7062585034014	317.9152380952381	61	127
317.9268253968254	318.12419501133786	64	127
318.1358276643991	318.3448072562358	69	127
318.3564172335601	318.5421768707483	73	127
318.55378684807255	318.7395238095238	70	127
318.751156462585	319.99342403628117	41	127
318.971746031746	319.145873015873	62	127
319.1575056689342	319.3316553287982	65	127
319.3432653061225	319.5522222222222	70	127
319.5638321995465	319.76120181405895	74	127
319.77283446712016	319.9818140589569	62	127
319.99342403628117	321.1428117913832	43	127
320.2024036281179	320.3997732426304	61	127
320.41138321995464	320.6203628117914	64	127
320.63197278911565	320.8409523809524	69	127
320.85256235827666	321.0615419501134	73	127
321.07315192743766	321.27052154195013	61	127
321.2821315192744	322.6056689342404	45	127
321.49111111111114	321.7000680272109	60	127
321.7117006802721	321.9322902494331	63	127
321.94390022675736	322.1528798185941	67	127
322.16448979591837	322.3734693877551	72	127
322.3850793650794	322.5940589569161	60	127
322.6056689342404	323.9175963718821	43	127
322.8262358276644	323.0352154195011	61	127
323.04684807256234	323.2558276643991	64	127
323.26743764172335	323.4648072562358	69	127
323.4764172335601	323.6853968253968	73	127
323.6970068027211	323.90598639455783	70	127
323.9175963718821	326.2744217687075	41	127
324.12657596371884	324.3355555555556	62	127
324.34716553287984	324.5561451247166	65	127
324.56773242630385	324.7767120181406	70	127
324.7883446712018	324.99732426303854	74	127
325.0089342403628	325.2063038548753	62	127
325.43850340136055	325.6474829931973	62	127
325.65909297052156	325.8680725623583	65	127
325.87968253968256	326.07705215419503	70	127
326.0886621315193	326.2744217687075	74	127
326.2744217687075	326.43696145124716	62	127
326.4485714285714	326.66916099773243	41	127
326.4485714285714	326.7736507936508	73	127
326.6807709750567	326.88975056689344	49	127
326.9013605442177	327.2148299319728	75	127
326.9013605442177	327.11034013605445	53	127
327.1219274376417	327.34253968253967	56	127
327.35414965986394	327.6560090702948	77	127
327.35414965986394	327.5631292517007	61	127
327.57473922902494	327.7721088435374	65	127
327.7837188208617	328.0855782312925	79	127
327.9926984126984	328.20167800453515	65	127
328.2132879818594	328.52675736961453	80	127
328.2132879818594	328.42226757369616	61	127
328.43387755102043	328.64285714285717	56	127
328.65444444444444	328.79378684807256	82	127
328.65444444444444	328.8518367346939	53	127
328.8634240362812	329.0840362811791	49	127
329.0956462585034	329.30462585034013	41	127
329.0956462585034	330.4075736961451	84	127
329.0956462585034	330.4075736961451	96	127
329.3162358276644	329.52521541950114	50	127
329.5368253968254	329.7574149659864	53	127
329.7690249433107	329.9780045351474	58	127
329.9895918367347	330.19859410430837	62	127
330.21020408163264	330.3959410430839	65	127
330.4075736961451	331.2667120181406	82	127
330.4075736961451	331.2667120181406	94	127
330.6281632653061	330.8255328798186	65	127
330.83714285714285	331.0345124716553	62	127
331.0461224489796	331.2551020408163	58	127
331.2667120181406	331.47569160997733	53	127
331.2667120181406	331.6730612244898	77	127
331.2667120181406	331.6730612244898	89	127
331.4873015873016	331.6730612244898	50	127
331.68467120181407	332.9965986394558	91	127
331.68467120181407	331.8936507936508	41	127
331.68467120181407	332.9965986394558	79	127
331.9052607709751	332.10263038548754	49	127
332.1142403628118	332.32321995464855	53	127
332.3348072562358	332.54378684807256	56	127
332.55541950113377	332.7643990929705	61	127
332.7760090702948	332.9849886621315	65	127
332.9965986394558	334.01827664399093	77	127
332.9965986394558	334.01827664399093	89	127
333.2171882086168	333.41455782312926	65	127
333.4261678004535	333.55387755102043	68	127
333.55387755102043	333.7164172335601	73	127
333.72802721088436	333.9370068027211	77	127
333.94861678004537	334.1575963718821	80	127
334.1692063492064	334.3781632653061	61	127
334.1692063492064	336.46798185941043	56	127
334.3897959183673	334.55233560090704	65	127
334.5639455782313	334.7613151927438	72	127
334.77292517006805	334.95868480725625	77	127
334.9702947845805	335.17927437641725	80	127
335.1908843537415	335.3766439909297	84	127
335.388253968254	335.58562358276646	62	127
335.59723356009073	335.80621315192747	65	127
335.81780045351474	335.99197278911566	70	127
336.00358276643993	336.2009523809524	74	127
336.2009523809524	336.3867120181406	77	127
336.39832199546487	336.6073015873016	82	127
336.6189115646259	337.68702947845804	56	127
336.6189115646259	336.81628117913834	63	127
336.8278911564626	337.03684807256235	67	127
337.04848072562356	337.2574603174603	71	127
337.26907029478457	337.4548072562358	75	127
337.46643990929704	337.6057596371882	79	127
337.6173696145125	337.8031292517007	83	127
337.81473922902495	338.8828344671202	57	127
337.81473922902495	338.00049886621315	63	127
338.00049886621315	338.1746485260771	65	127
338.18625850340135	338.36040816326533	72	127
338.3719954648526	338.5809977324263	75	127
338.59260770975055	338.8015873015873	77	127
338.81319727891156	339.0221768707483	84	127
339.03378684807257	339.23115646258503	60	127
339.03378684807257	340.1018820861678	58	127
339.2427664399093	339.3820861678005	66	127
339.39367346938775	339.60267573696143	72	127
339.6142857142857	339.80002267573695	75	127
339.81165532879817	340.0206349206349	78	127
340.0322448979592	340.2412244897959	84	127
340.2528344671202	340.4269841269841	61	127
340.2528344671202	341.26290249433106	58	127
340.4385941043084	340.5314739229025	66	127
340.54308390022675	340.7520634920635	73	127
340.76367346938775	340.9726530612245	78	127
340.98426303854876	341.3790022675737	63	127
340.98426303854876	341.18163265306123	83	127
341.1932426303855	341.3790022675737	85	127
341.39061224489797	341.58798185941043	64	127
341.39061224489797	342.5167800453515	59	127
341.58798185941043	341.77374149659863	68	127
341.7853514739229	341.9711111111111	75	127
341.9711111111111	342.1917006802721	80	127
342.2033106575964	342.4239002267574	83	127
342.43551020408165	342.6676870748299	87	127
342.67931972789114	342.8534693877551	66	127
342.67931972789114	343.84031746031746	61	127
342.8650566893424	343.07403628117913	70	127
343.07403628117913	343.21337868480725	76	127
343.2249886621315	343.46879818594107	78	127
343.48038548752834	343.7358276643991	82	127
343.74743764172337	344.0028571428571	88	127
344.0144671201814	344.21183673469386	35	127
344.21183673469386	344.4208163265306	47	127
344.43242630385487	344.6414058956916	56	127
344.43242630385487	344.6414058956916	52	127
344.6414058956916	344.85038548752834	59	127
344.8619954648526	345.0593650793651	64	127
345.07097505668935	345.2451247165533	59	127
345.25673469387755	345.45410430839	40	127
345.4657142857143	345.66308390022675	52	127
345.674693877551	345.8720634920635	56	127
345.674693877551	345.8720634920635	59	127
345.88367346938776	346.0926530612245	64	127
346.10426303854877	346.30163265306123	68	127
346.3132426303855	346.51061224489797	64	127
346.51061224489797	346.7195918367347	44	127
346.731201814059	346.9401814058957	56	127
346.9401814058957	347.14916099773245	61	127
346.9401814058957	347.14916099773245	59	127
347.1607482993197	347.3465306122449	68	127
347.3465306122449	347.5439002267574	71	127
347.55551020408166	347.6948299319728	68	127
347.70643990929705	347.89219954648524	47	127
347.9038095238095	348.0895691609977	56	127
348.101179138322	348.29854875283445	59	127
348.101179138322	348.29854875283445	64	127
348.3101587301587	348.49589569161	68	127
348.5075283446712	348.7165079365079	71	127
348.7165079365079	348.9022448979592	68	127
348.9138775510204	349.11124716553286	44	127
349.11124716553286	349.3202267573696	56	127
349.33183673469387	349.5408163265306	59	127
349.33183673469387	349.5408163265306	61	127
349.5408163265306	349.74979591836734	68	127
349.7614058956916	349.97038548752835	71	127
349.9819954648526	350.19097505668935	68	127
350.2025850340136	350.3883446712018	40	127
350.3999546485261	350.5857142857143	52	127
350.59732426303856	350.794693877551	59	127
350.59732426303856	350.794693877551	62	127
350.8063038548753	351.0268934240363	68	127
351.0385034013606	351.23587301587304	71	127
351.2474603174603	351.45643990929705	68	127
351.45643990929705	352.54780045351475	41	127
351.45643990929705	352.54780045351475	29	127
351.6654195011338	351.851201814059	62	127
351.851201814059	352.04857142857145	70	127
352.0601814058957	352.2575510204082	62	127
352.26913832199546	352.4665306122449	58	127
352.4781179138322	352.67551020408166	62	127
352.68709750566893	353.81326530612245	31	127
352.68709750566893	353.81326530612245	43	127
352.87287981859413	353.08185941043087	62	127
353.09344671201814	353.3024489795918	70	127
353.3140589569161	353.51142857142855	62	127
353.5230385487528	353.73201814058956	58	127
353.73201814058956	353.9409977324263	62	127
353.95260770975057	355.03231292517006	45	127
353.95260770975057	355.03231292517006	33	127
354.13836734693876	354.33573696145123	61	127
354.33573696145123	354.54471655328797	67	127
354.54471655328797	354.7536961451247	61	127
354.765306122449	354.9510657596372	55	127
354.96267573696144	355.1716553287982	61	127
355.18326530612245	356.26297052154194	47	127
355.18326530612245	356.26297052154194	35	127
355.34578231292517	355.55478458049885	62	127
355.5663945578231	355.7637641723356	65	127
355.77537414965985	355.9843537414966	62	127
355.9843537414966	356.1933333333333	56	127
356.2049433106576	356.40231292517007	62	127
356.40231292517007	358.77074829931973	48	127
356.40231292517007	358.77074829931973	36	127
356.63451247165534	356.8434920634921	58	127
356.8434920634921	357.04086167800455	64	127
357.0524716553288	357.238231292517	58	127
357.2498412698413	357.44721088435375	55	127
357.458820861678	357.66780045351476	64	127
357.91160997732425	358.1089795918367	58	127
358.120589569161	358.3295691609977	63	127
358.341179138322	358.53854875283446	58	127
358.5501587301587	358.77074829931973	55	127
358.77074829931973	358.9797278911565	58	127
358.99133786848074	363.97201814058957	41	127
358.99133786848074	363.97201814058957	29	127
359.2003174603175	359.4092970521542	62	127
359.4209070294785	359.6066666666667	57	127
359.61827664399095	359.86208616780044	53	127
359.8736961451247	360.0594557823129	51	127
360.0710657596372	360.2800453514739	60	127
360.2916553287982	360.5006349206349	49	127
360.5122448979592	360.70961451247166	58	127
360.72122448979593	360.9069841269841	61	127
360.9185941043084	361.11596371882086	58	127
361.11596371882086	361.3249433106576	49	127
361.33655328798187	361.5571428571429	58	127
361.5571428571429	361.7661224489796	50	127
361.7777097505669	361.9866893424036	57	127
361.9866893424036	362.19566893424036	62	127
362.2073015873016	362.40467120181404	57	127
362.4162811791383	362.62526077097505	50	127
362.6368707482993	362.79938775510203	62	127
362.81102040816324	363.02	51	127
363.03160997732425	363.2173469387755	53	127
363.2289795918367	363.4495691609977	63	127
364.11133786848075	364.3203174603175	49	127
364.11133786848075	367.81489795918367	41	127
364.11133786848075	367.81489795918367	29	127
364.3203174603175	364.5060770975057	58	127
364.51768707482995	364.70344671201815	61	127
364.7150566893424	364.9124263038549	58	127
364.92403628117916	365.1214058956916	49	127
365.1330158730159	365.36519274376417	58	127
365.3768253968254	365.5858049886621	50	127
365.5974149659864	365.8063945578231	57	127
365.8063945578231	366.01537414965986	62	127
366.02698412698413	366.23596371882087	57	127
366.23596371882087	366.4449433106576	50	127
366.4565532879819	366.6655328798186	62	127
366.6655328798186	366.87451247165535	51	127
366.8861224489796	367.0834920634921	53	127
367.09507936507936	367.3040589569161	63	127
368.0238775510204	372.0990022675737	41	127
368.0238775510204	372.0990022675737	29	127
368.0238775510204	368.2328798185941	49	127
368.24448979591835	368.4418594104308	58	127
368.4534693877551	368.66244897959183	61	127
368.6740589569161	368.88303854875284	58	127
368.8946485260771	369.1152380952381	49	127
369.1268480725624	369.3474149659864	58	127
369.3590476190476	369.5796371882086	50	127
369.5912471655329	369.8118367346939	57	127
369.82344671201815	370.05564625850343	62	127
370.05564625850343	370.26460317460317	57	127
370.2762358276644	370.5200453514739	50	127
370.5316553287982	370.76385487528347	62	127
370.77544217687074	371.0308843537415	51	127
371.04249433106577	371.27469387755104	53	127
371.2862811791383	371.5301133786848	63	127
372.110589569161	372.21507936507936	29	127
372.21507936507936	373.05102040816325	41	127
373.05102040816325	373.4225396825397	43	127
373.4225396825397	373.86371882086166	45	127
373.86371882086166	374.2932879818594	46	127
374.2932879818594	374.72285714285715	48	127
374.72285714285715	375.1175963718821	50	127
375.1175963718821	375.5587755102041	51	127
375.5587755102041	375.9767346938776	53	127
375.9767346938776	376.26698412698414	50	127
376.4062811791383	376.71977324263037	48	127
376.8474829931973	377.1841723356009	46	127
377.3118820861678	377.6485714285714	48	127
377.7878911564626	378.1013605442177	50	127
378.2406575963719	378.5657596371882	51	127
378.71668934240364	379.06496598639455	53	127
379.21591836734694	379.5758049886621	55	127
379.80802721088435	380.1795238095238	56	127
380.52784580498866	381.2824943310658	27	127
380.52784580498866	380.96902494331067	58	127
380.52784580498866	381.2824943310658	39	127
380.7368253968254	380.96902494331067	51	127
380.98063492063494	381.2012244897959	63	127
380.98063492063494	381.4218140589569	60	127
381.2012244897959	381.4218140589569	51	127
381.43342403628117	382.1416326530612	31	127
381.43342403628117	382.1416326530612	43	127
381.43342403628117	381.8397732426304	62	127
381.63079365079363	381.8397732426304	55	127
381.85138321995464	382.2809523809524	60	127
381.85138321995464	382.0603628117914	67	127
382.07197278911565	382.2809523809524	55	127
382.29256235827665	382.7221315192744	58	127
382.29256235827665	383.01238095238097	27	127
382.29256235827665	383.01238095238097	39	127
382.5015419501134	382.7221315192744	51	127
382.7337414965986	382.93111111111114	63	127
382.7337414965986	383.16331065759636	60	127
382.94272108843535	383.16331065759636	51	127
383.16331065759636	383.61609977324264	62	127
383.16331065759636	383.9179591836735	31	127
383.16331065759636	383.9179591836735	43	127
383.4071201814059	383.61609977324264	55	127
383.61609977324264	384.05727891156465	60	127
383.61609977324264	383.83668934240364	67	127
383.8482993197279	384.05727891156465	55	127
384.05727891156465	384.7887074829932	27	127
384.05727891156465	384.48684807256234	58	127
384.05727891156465	384.7887074829932	39	127
384.2778684807256	384.48684807256234	51	127
384.4984580498866	384.70743764172335	63	127
384.4984580498866	384.9164172335601	60	127
384.7190476190476	384.9164172335601	51	127
384.92802721088435	386.9597732426304	43	127
384.92802721088435	385.33437641723356	62	127
384.92802721088435	386.9597732426304	31	127
385.1370068027211	385.33437641723356	55	127
385.3459863945578	385.7639455782313	60	127
385.3459863945578	385.55496598639456	67	127
385.55496598639456	385.7639455782313	55	127
385.77555555555557	385.9845351473923	58	127
385.9845351473923	386.2051247165533	50	127
386.2167346938775	386.42571428571426	55	127
386.42571428571426	386.65791383219954	58	127
386.6695238095238	386.87850340136055	62	127
386.8901133786848	387.09909297052155	67	127
387.1107029478458	387.9814512471655	55	127
387.1107029478458	387.3080725623583	70	127
387.1107029478458	387.9814512471655	50	127
387.1107029478458	387.9814512471655	58	127
387.31968253968256	387.5286621315193	74	127
387.5402721088435	387.74925170068025	79	127
387.7608616780045	387.96984126984125	82	127
387.9814512471655	388.178820861678	86	127
388.19043083900226	388.399410430839	91	127
388.399410430839	388.82897959183674	94	127
388.399410430839	389.28176870748297	62	127
388.399410430839	389.28176870748297	55	127
388.399410430839	389.28176870748297	58	127
389.73455782312925	390.46598639455783	50	127
389.73455782312925	390.46598639455783	55	127
389.73455782312925	390.46598639455783	58	127
391.1741950113379	391.81274376417235	27	127
391.1741950113379	391.5689342403628	58	127
391.1741950113379	391.81274376417235	39	127
391.35995464852607	391.5689342403628	51	127
391.5805442176871	391.754693877551	63	127
391.5805442176871	391.9520634920635	60	127
391.754693877551	391.9520634920635	51	127
391.96367346938774	392.6602721088435	43	127
391.96367346938774	392.37002267573695	62	127
391.96367346938774	392.6602721088435	31	127
392.1726530612245	392.37002267573695	55	127
392.3816326530612	392.7879818594104	60	127
392.3816326530612	392.5790022675737	67	127
392.59061224489795	392.7879818594104	55	127
392.7995918367347	393.4729705215419	39	127
392.7995918367347	393.21755102040817	58	127
392.7995918367347	393.4729705215419	27	127
393.0201814058957	393.21755102040817	51	127
393.21755102040817	393.41492063492063	63	127
393.21755102040817	393.6122902494331	60	127
393.4265306122449	393.6122902494331	51	127
393.6122902494331	394.32049886621314	31	127
393.6122902494331	394.32049886621314	43	127
393.6122902494331	394.0302494331066	62	127
393.80965986394557	394.0302494331066	55	127
394.0302494331066	394.44820861678005	60	127
394.0302494331066	394.2392290249433	67	127
394.2508390022676	394.44820861678005	55	127
394.4598185941043	395.2144671201814	39	127
394.4598185941043	394.91260770975055	58	127
394.4598185941043	395.2144671201814	27	127
394.6804081632653	394.91260770975055	51	127
394.9242176870748	395.13319727891155	63	127
394.9242176870748	395.3421768707483	60	127
395.1448072562358	395.3421768707483	51	127
395.35378684807256	397.4087528344671	31	127
395.35378684807256	397.4087528344671	43	127
395.35378684807256	395.7833560090703	62	127
395.57437641723357	395.7833560090703	55	127
395.7949659863946	396.0039455782313	67	127
395.7949659863946	396.21292517006805	60	127
396.0039455782313	396.21292517006805	55	127
396.2245351473923	396.44512471655327	58	127
396.44512471655327	396.6657142857143	50	127
396.67732426303854	396.874693877551	55	127
396.8863038548753	397.1068934240363	58	127
397.11850340136056	397.3274829931973	62	127
397.33909297052156	397.5596825396825	67	127
397.5712925170068	398.39560090702946	50	127
397.5712925170068	398.39560090702946	58	127
397.5712925170068	397.76866213151925	70	127
397.5712925170068	398.39560090702946	55	127
397.7802721088435	397.98925170068026	74	127
398.0008616780045	398.198231292517	79	127
398.20984126984126	398.39560090702946	82	127
398.39560090702946	398.59297052154193	86	127
398.6045804988662	398.8251700680272	91	127
398.8251700680272	399.6726984126984	58	127
398.8251700680272	399.6726984126984	62	127
398.8251700680272	399.2431292517007	94	127
398.8251700680272	399.2431292517007	98	127
398.8251700680272	399.6726984126984	55	127
400.183537414966	400.92657596371885	55	127
400.183537414966	400.92657596371885	50	127
400.183537414966	400.92657596371885	58	127
401.8089342403628	403.0395918367347	62	127
401.8089342403628	403.0395918367347	53	127
403.21374149659863	404.4443990929705	56	127
403.21374149659863	404.4443990929705	60	127
404.59532879818596	405.7563265306122	58	127
404.59532879818596	406.9985941043084	55	127
405.8956462585034	408.3453514739229	62	127
406.3484353741497	406.56902494331064	86	127
406.56902494331064	406.78961451247164	88	127
406.78961451247164	406.9985941043084	90	127
406.9985941043084	407.2191836734694	91	127
407.2191836734694	408.3453514739229	53	127
407.2191836734694	407.4397732426304	94	127
407.4397732426304	407.6603628117914	92	127
407.6603628117914	407.86934240362814	91	127
407.86934240362814	408.0783219954649	89	127
408.0783219954649	408.27569160997734	87	127
408.27569160997734	408.4846712018141	86	127
408.4846712018141	409.5992290249433	56	127
408.4846712018141	409.5992290249433	60	127
408.4846712018141	408.68204081632655	84	127
408.68204081632655	408.8910204081633	82	127
408.8910204081633	409.1	80	127
409.1	409.30897959183676	79	127
409.30897959183676	409.5295691609977	77	127
409.5295691609977	409.73854875283445	78	127
409.73854875283445	412.07215419501136	55	127
409.73854875283445	410.86471655328796	58	127
409.73854875283445	409.9475283446712	79	127
409.9475283446712	410.14489795918365	81	127
410.14489795918365	410.36548752834466	82	127
410.36548752834466	410.5744671201814	85	127
410.5744671201814	410.7950566893424	86	127
410.7950566893424	411.00403628117914	90	127
411.00403628117914	412.1418140589569	62	127
411.2478458049887	411.4568253968254	91	127
411.4568253968254	411.6425850340136	93	127
411.6425850340136	411.8631746031746	94	127
411.8631746031746	412.07215419501136	98	127
412.07215419501136	412.26952380952383	96	127
412.26952380952383	415.9498866213152	60	127
412.26952380952383	412.45528344671203	94	127
412.26952380952383	415.9498866213152	63	127
412.45528344671203	412.67587301587304	91	127
412.67587301587304	412.8732426303855	92	127
412.8732426303855	413.0938321995465	96	127
413.0938321995465	413.3028117913832	101	127
413.3028117913832	413.53501133786847	99	127
413.53501133786847	413.7439909297052	98	127
413.7439909297052	413.95297052154194	96	127
413.95297052154194	414.17356009070295	94	127
414.17356009070295	414.3825396825397	92	127
414.3825396825397	414.6031292517007	91	127
414.6031292517007	414.81210884353743	89	127
414.81210884353743	415.03269841269844	87	127
415.03269841269844	415.2416780045352	86	127
415.2416780045352	415.45065759637185	84	127
415.45065759637185	415.6596371882086	82	127
415.6596371882086	415.8802267573696	80	127
415.8802267573696	416.08920634920634	79	127
416.08920634920634	416.2981859410431	78	127
416.08920634920634	417.1805442176871	62	127
416.08920634920634	417.1805442176871	69	127
416.2981859410431	416.48394557823127	81	127
416.48394557823127	416.68131519274374	84	127
416.68131519274374	416.90190476190475	87	127
416.90190476190475	417.1108843537415	90	127
417.1108843537415	417.3314739229025	78	127
417.34308390022676	419.8972789115646	63	127
417.34308390022676	419.8972789115646	69	127
417.74943310657596	417.9584126984127	78	127
417.9584126984127	418.1790022675737	81	127
418.1790022675737	418.38798185941044	84	127
418.38798185941044	418.5969614512472	90	127
419.0265306122449	419.2471201814059	90	127
419.2471201814059	419.4560997732426	83	127
419.4560997732426	419.6766893424036	81	127
419.6766893424036	419.88566893424036	78	127
419.8972789115646	421.20920634920634	64	127
419.8972789115646	421.20920634920634	68	127
420.32684807256237	420.55904761904765	76	127
420.55904761904765	420.7680272108843	80	127
420.7680272108843	421.0002267573696	83	127
421.0002267573696	421.19759637188207	88	127
421.20920634920634	422.5791836734694	67	127
421.20920634920634	422.5791836734694	59	127
421.20920634920634	422.5791836734694	63	127
421.6619954648526	421.88258503401363	87	127
421.88258503401363	422.14961451247166	83	127
422.14961451247166	422.3585941043084	79	127
422.3585941043084	422.56757369614513	75	127
422.5791836734694	426.45691609977325	56	127
422.5791836734694	423.91433106575965	66	127
422.5791836734694	424.9940589569161	62	127
423.02036281179136	423.2641723356009	74	127
423.2641723356009	423.4963718820862	78	127
423.4963718820862	423.7053514739229	83	127
423.7053514739229	423.91433106575965	86	127
423.91433106575965	425.19142857142856	65	127
424.34390022675734	424.56448979591835	86	127
424.56448979591835	424.7734693877551	82	127
424.7734693877551	424.9940589569161	77	127
424.9940589569161	425.1798185941043	74	127
425.19142857142856	426.45691609977325	64	127
425.19142857142856	426.45691609977325	61	127
425.59777777777776	425.82997732426304	73	127
425.82997732426304	426.0273469387755	76	127
426.0273469387755	426.23632653061225	82	127
426.23632653061225	426.445306122449	85	127
426.45691609977325	427.68757369614514	64	127
426.45691609977325	427.68757369614514	57	127
426.45691609977325	427.68757369614514	60	127
426.82843537414965	427.0374149659864	83	127
427.0374149659864	427.2580045351474	81	127
427.2580045351474	427.46698412698413	76	127
427.46698412698413	427.67596371882087	71	127
427.68757369614514	429.0227210884354	53	127
427.68757369614514	429.0227210884354	63	127
427.68757369614514	429.0227210884354	59	127
428.1171428571429	428.3261224489796	71	127
428.3261224489796	428.55832199546484	75	127
428.55832199546484	428.77891156462584	80	127
428.77891156462584	429.0227210884354	83	127
429.0227210884354	430.68294784580496	59	127
429.0227210884354	430.68294784580496	55	127
429.0227210884354	430.68294784580496	62	127
429.44068027210886	429.6496598639456	83	127
429.6496598639456	429.85863945578234	79	127
429.85863945578234	430.0792290249433	74	127
430.0792290249433	430.28820861678	71	127
430.28820861678	430.50879818594103	67	127
430.50879818594103	430.69455782312923	62	127
430.69455782312923	430.91514739229024	71	127
430.91514739229024	431.124126984127	67	127
431.124126984127	431.3098866213152	62	127
431.3098866213152	431.5304761904762	59	127
431.5304761904762	431.6814058956916	55	127
431.6814058956916	431.85555555555555	50	127
431.85555555555555	432.04131519274375	59	127
432.04131519274375	432.22707482993195	55	127
432.22707482993195	432.40122448979594	50	127
432.40122448979594	432.62181405895694	47	127
432.62181405895694	432.80757369614514	43	127
432.8191836734694	433.0165532879819	45	127
433.0165532879819	433.1907029478458	47	127
433.1907029478458	433.39968253968254	48	127
433.39968253968254	433.5622222222222	50	127
433.5622222222222	433.7363718820862	52	127
433.7363718820862	433.9221315192744	54	127
433.9221315192744	434.1311111111111	55	127
434.1311111111111	434.3168707482993	57	127
434.3168707482993	434.49102040816325	59	127
434.49102040816325	434.6883900226757	60	127
434.6883900226757	434.8277097505669	61	127
434.83931972789117	435.11795918367346	62	127
435.03668934240363	435.30371882086166	59	127
435.2340589569161	435.50108843537413	63	127
435.40820861678003	435.7448979591837	60	127
435.6404081632653	436.00031746031743	64	127
435.8958276643991	436.3253968253968	61	127
436.1396371882086	436.4995464852608	66	127
436.3950566893424	436.7665759637188	62	127
436.66208616780045	437.0219954648526	67	127
436.91750566893427	437.28902494331066	63	127
437.172925170068	437.34707482993196	69	127
437.43995464852605	437.61410430839004	65	127
437.70698412698414	438.20621315192744	55	127
437.70698412698414	438.65900226757367	63	127
437.70698412698414	438.65900226757367	70	127
437.70698412698414	438.20621315192744	46	127
438.20621315192744	438.6357823129252	34	127
438.65900226757367	439.5413605442177	54	127
438.65900226757367	439.55297052154197	72	127
438.65900226757367	439.55297052154197	62	127
439.55297052154197	440.307619047619	49	127
439.55297052154197	440.307619047619	55	127
439.55297052154197	439.9941496598639	69	127
439.55297052154197	440.307619047619	63	127
439.9941496598639	440.47015873015874	70	127
440.47015873015874	441.9562358276644	75	127
440.47015873015874	441.02743764172334	35	127
441.02743764172334	441.4802267573696	47	127
441.4918367346939	441.9562358276644	30	127
441.9562358276644	442.908253968254	73	127
441.9562358276644	442.40902494331067	42	127
442.42063492063494	442.908253968254	30	127
442.908253968254	443.3610430839002	44	127
442.908253968254	443.3610430839002	71	127
443.37265306122447	444.28984126984125	63	127
443.37265306122447	444.28984126984125	70	127
443.37265306122447	443.837052154195	46	127
443.37265306122447	443.837052154195	55	127
443.837052154195	444.27823129251703	34	127
444.28984126984125	445.160589569161	54	127
444.28984126984125	445.1721995464853	72	127
444.28984126984125	445.1721995464853	62	127
445.1721995464853	445.9384580498866	55	127
445.1721995464853	445.9384580498866	49	127
445.1721995464853	445.9384580498866	63	127
445.1721995464853	445.59015873015875	69	127
445.59015873015875	446.0777777777778	70	127
446.08938775510205	446.55378684807255	35	127
446.08938775510205	448.6551927437642	75	127
446.55378684807255	446.971746031746	47	127
446.9833560090703	447.4361451247166	42	127
447.4361451247166	447.8889342403628	54	127
447.90054421768707	448.4229931972789	44	127
448.4229931972789	448.8641723356009	58	127
448.8757823129252	450.23414965986393	75	127
448.8757823129252	449.31696145124715	42	127
449.3285714285714	449.792970521542	54	127
450.23414965986393	451.13972789115644	77	127
450.23414965986393	450.67532879818594	39	127
450.6869387755102	451.1281179138322	51	127
451.13972789115644	451.604126984127	78	127
451.604126984127	452.08013605442176	38	127
451.604126984127	452.53292517006804	80	127
452.08013605442176	452.52131519274377	50	127
452.53292517006804	453.53138321995465	78	127
453.06698412698415	453.5197732426304	37	127
453.53138321995465	453.98417233560093	49	127
453.53138321995465	453.99578231292514	80	127
453.99578231292514	454.48340136054424	82	127
454.4950113378685	455.34253968253967	83	127
454.4950113378685	455.34253968253967	95	127
454.71560090702945	454.9129705215419	63	127
454.9245804988662	455.12195011337866	68	127
455.13356009070293	455.3309297052154	71	127
455.34253968253967	455.74888888888887	82	127
455.34253968253967	455.53990929705213	68	127
455.34253968253967	455.74888888888887	94	127
455.53990929705213	455.74888888888887	64	127
455.74888888888887	456.38743764172335	92	127
455.74888888888887	456.16684807256235	65	127
455.74888888888887	456.38743764172335	80	127
456.16684807256235	456.5964172335601	73	127
456.38743764172335	456.60802721088436	78	127
456.38743764172335	456.60802721088436	90	127
456.60802721088436	457.01437641723356	89	127
456.60802721088436	457.01437641723356	77	127
457.01437641723356	457.83868480725624	75	127
457.01437641723356	457.83868480725624	87	127
457.2233560090703	457.42072562358277	61	127
457.43233560090704	457.61809523809524	66	127
457.6297052154195	457.827074829932	70	127
457.83868480725624	458.29147392290247	73	127
457.83868480725624	458.29147392290247	85	127
457.83868480725624	458.0360544217687	66	127
458.047664399093	458.27986394557826	61	127
458.29147392290247	459.1390022675737	71	127
458.29147392290247	459.1390022675737	83	127
458.7210430839002	459.1390022675737	63	127
459.1390022675737	459.56857142857143	61	127
459.1390022675737	459.56857142857143	85	127
459.1390022675737	459.56857142857143	73	127
459.56857142857143	460.3928798185941	83	127
459.56857142857143	460.3928798185941	95	127
459.77755102040817	459.9865306122449	63	127
459.9865306122449	460.1722902494331	68	127
460.1839002267574	460.38126984126984	71	127
460.3928798185941	460.8108390022676	82	127
460.3928798185941	460.5902494331066	68	127
460.3928798185941	460.8108390022676	94	127
460.6134693877551	460.8108390022676	64	127
460.8108390022676	461.3913378684807	80	127
460.8108390022676	461.2171882086168	65	127
460.8108390022676	461.3913378684807	92	127
461.2171882086168	461.5887074829932	73	127
461.3913378684807	461.60031746031746	78	127
461.3913378684807	461.60031746031746	90	127
461.60031746031746	462.01827664399093	89	127
461.60031746031746	462.01827664399093	77	127
462.01827664399093	462.83097505668934	75	127
462.01827664399093	462.83097505668934	87	127
462.2156462585034	462.41301587301587	61	127
462.42462585034014	462.6219954648526	66	127
462.6336054421769	462.81936507936507	70	127
462.83097505668934	463.21410430839	73	127
462.83097505668934	463.21410430839	85	127
462.83097505668934	463.0283446712018	66	127
463.0283446712018	463.21410430839	61	127
463.21410430839	464.0384126984127	71	127
463.21410430839	464.0384126984127	83	127
463.6320634920635	464.0384126984127	63	127
464.0384126984127	464.4447619047619	73	127
464.0384126984127	464.4447619047619	61	127
464.0384126984127	464.4447619047619	85	127
464.45637188208616	465.53609977324265	45	127
464.45637188208616	465.53609977324265	33	127
464.6653514739229	464.8278911564626	61	127
464.8395011337868	465.0368707482993	64	127
465.04848072562356	465.24585034013603	67	127
465.2574603174603	465.45482993197277	61	127
465.46643990929704	465.6638095238095	64	127
465.6754195011338	466.73192743764173	35	127
465.6754195011338	466.73192743764173	47	127
465.8843990929705	466.0701587301587	62	127
466.081768707483	466.25591836734696	66	127
466.2675283446712	466.45328798185943	69	127
466.46489795918365	466.66226757369617	62	127
466.66226757369617	466.8712471655329	66	127
466.8712471655329	469.08875283446713	49	127
466.8712471655329	469.08875283446713	37	127
467.04539682539684	467.2079365079365	61	127
467.2079365079365	467.40530612244896	68	127
467.41691609977323	467.6142857142857	70	127
467.62589569160997	467.82326530612244	61	127
467.8348752834467	468.0322448979592	66	127
468.2528344671202	468.45020408163265	61	127
468.4618140589569	468.6591836734694	65	127
468.67079365079366	468.8681632653061	69	127
468.8797732426304	469.07714285714286	61	127
469.08875283446713	469.2861224489796	65	127
469.29773242630387	470.1452607709751	73	127
469.29773242630387	469.49510204081633	51	127
469.29773242630387	470.1452607709751	85	127
469.49510204081633	469.6924716553288	55	127
469.7040816326531	469.90145124716554	58	127
469.9130612244898	470.1336507936508	63	127
470.1452607709751	470.5632199546485	84	127
470.1452607709751	470.5632199546485	72	127
470.5632199546485	471.201768707483	82	127
470.5632199546485	470.7838095238095	49	127
470.5632199546485	471.201768707483	70	127
470.7838095238095	470.99278911564625	51	127
470.99278911564625	471.1901587301587	55	127
471.201768707483	471.4107482993197	80	127
471.201768707483	471.4107482993197	68	127
471.201768707483	471.39913832199545	58	127
471.4107482993197	471.84031746031746	67	127
471.4107482993197	471.84031746031746	79	127
471.84031746031746	472.6762358276644	66	127
471.84031746031746	472.03768707482993	48	127
471.84031746031746	472.6762358276644	78	127
472.0492970521542	472.24666666666667	55	127
472.25827664399094	472.4556462585034	60	127
472.4672562358277	472.66462585034014	64	127
472.6762358276644	473.10580498866216	67	127
472.6762358276644	473.10580498866216	79	127
473.10580498866216	473.31478458049884	55	127
473.10580498866216	473.5585941043084	78	127
473.10580498866216	473.5585941043084	90	127
473.3263945578231	473.5469841269841	60	127
473.5585941043084	473.82562358276647	64	127
473.5585941043084	474.0578231292517	76	127
473.5585941043084	474.0578231292517	88	127
473.8372335600907	474.0462131519274	67	127
474.0578231292517	474.48739229024943	86	127
474.0578231292517	474.48739229024943	74	127
474.48739229024943	474.69637188208617	39	127
474.48739229024943	475.33492063492065	73	127
474.48739229024943	475.33492063492065	85	127
474.69637188208617	474.9169614512472	51	127
474.9169614512472	475.11433106575964	54	127
475.1259410430839	475.3233106575964	58	127
475.33492063492065	475.70643990929705	70	127
475.33492063492065	475.70643990929705	82	127
475.33492063492065	475.5090702947846	61	127
475.7180498866213	475.9154195011338	71	127
475.7180498866213	475.9154195011338	83	127
475.7180498866213	476.11278911564625	51	127
475.7180498866213	476.11278911564625	54	127
475.7180498866213	476.11278911564625	59	127
475.7180498866213	476.11278911564625	66	127
475.92702947845805	476.11278911564625	78	127
476.1243990929705	476.321768707483	75	127
476.33337868480726	476.5307482993197	71	127
476.542358276644	476.73972789115646	66	127
476.75133786848073	476.9487074829932	63	127
476.96031746031747	478.132925170068	39	127
476.96031746031747	477.1809070294785	71	127
476.96031746031747	478.132925170068	27	127
477.1809070294785	477.4014965986395	66	127
477.4014965986395	477.61047619047616	63	127
477.61047619047616	477.8194557823129	59	127
477.8194557823129	478.06326530612245	70	127
478.06326530612245	478.2722448979592	58	127
478.2722448979592	480.5826303854875	29	127
478.2722448979592	478.50444444444446	69	127
478.2722448979592	480.5826303854875	41	127
478.50444444444446	478.7134240362812	63	127
478.7134240362812	478.8991836734694	59	127
478.91079365079366	479.0849433106576	57	127
479.09655328798186	479.29392290249433	51	127
479.3055328798186	479.46807256235826	47	127
479.4796825396825	479.677052154195	47	127
479.68866213151927	479.897641723356	51	127
479.9092517006803	480.10662131519274	56	127
480.118231292517	480.29238095238094	59	127
480.3039909297052	480.5013605442177	63	127
480.51297052154194	480.7103401360544	68	127
480.7219501133787	480.86126984126986	62	127
480.7219501133787	482.8814058956916	41	127
480.7219501133787	482.8814058956916	53	127
480.87287981859413	481.0354195011338	68	127
481.04702947845806	481.221179138322	72	127
481.23278911564626	481.4301587301587	74	127
481.441768707483	481.6275283446712	80	127
481.6275283446712	481.8365079365079	84	127
481.8365079365079	482.04548752834467	86	127
482.04548752834467	482.2544671201814	84	127
482.2544671201814	482.45183673469387	80	127
482.46344671201814	482.6608163265306	74	127
482.6724263038549	482.86979591836734	72	127
482.8814058956916	483.0671655328798	68	127
483.0787755102041	484.21655328798187	41	127
483.0787755102041	483.27614512471655	62	127
483.0787755102041	484.21655328798187	29	127
483.2877551020408	483.4851247165533	60	127
483.49673469387756	483.69410430839	56	127
483.7057142857143	483.90308390022676	50	127
483.91469387755103	484.12367346938777	56	127
484.13528344671204	484.3442630385488	60	127
484.35587301587304	489.49909297052153	30	127
484.35587301587304	484.8434920634921	50	127
484.35587301587304	489.49909297052153	42	127
484.85510204081635	485.0524716553288	57	127
485.0640816326531	485.28467120181404	60	127
485.2962811791383	485.5168707482993	62	127
485.5168707482993	485.72585034013605	69	127
485.72585034013605	485.9348299319728	72	127
485.9348299319728	486.1438095238095	74	127
486.1438095238095	486.3760090702948	72	127
486.3760090702948	486.57337868480727	69	127
486.58498866213154	486.782358276644	62	127
486.7939682539683	486.99133786848074	69	127
487.002947845805	487.2003174603175	72	127
487.21192743764175	487.4209070294785	74	127
487.4325170068027	487.62988662131517	81	127
487.64149659863943	487.8388662131519	84	127
487.8504761904762	488.04784580498864	86	127
488.0594557823129	488.2568253968254	93	127
488.26843537414965	488.4658049886621	96	127
488.4774149659864	488.8837641723356	98	127
495.4201814058957	495.8845804988662	62	127
495.4201814058957	495.8845804988662	74	127
495.4201814058957	495.8845804988662	50	127
495.4201814058957	495.8845804988662	54	127
495.4201814058957	495.8845804988662	70	127
495.8845804988662	496.314149659864	72	127
495.8845804988662	496.314149659864	66	127
495.8845804988662	496.314149659864	60	127
496.314149659864	496.7204988662132	54	127
496.314149659864	496.7204988662132	62	127
496.314149659864	496.7204988662132	70	127
496.314149659864	496.7204988662132	58	127
496.7204988662132	497.1384580498866	72	127
496.7204988662132	497.1384580498866	66	127
496.7204988662132	497.1384580498866	60	127
497.1384580498866	497.56802721088434	54	127
497.1384580498866	497.56802721088434	70	127
497.1384580498866	497.56802721088434	74	127
497.1384580498866	497.56802721088434	50	127
497.1384580498866	497.56802721088434	62	127
497.56802721088434	497.9975963718821	72	127
497.56802721088434	497.9975963718821	66	127
497.56802721088434	497.9975963718821	60	127
497.9975963718821	498.41555555555556	70	127
497.9975963718821	498.41555555555556	58	127
497.9975963718821	498.41555555555556	62	127
497.9975963718821	498.41555555555556	54	127
498.41555555555556	498.85673469387757	66	127
498.41555555555556	498.85673469387757	72	127
498.41555555555556	498.85673469387757	60	127
498.85673469387757	499.32113378684807	54	127
498.85673469387757	499.32113378684807	70	127
498.85673469387757	499.32113378684807	74	127
498.85673469387757	499.32113378684807	50	127
498.85673469387757	499.32113378684807	62	127
499.32113378684807	499.73909297052154	60	127
499.32113378684807	499.73909297052154	66	127
499.32113378684807	499.73909297052154	72	127
499.73909297052154	500.18027210884355	54	127
499.73909297052154	500.18027210884355	62	127
499.73909297052154	500.18027210884355	70	127
499.73909297052154	500.18027210884355	58	127
500.18027210884355	500.3892517006803	60	127
500.18027210884355	500.4473015873016	66	127
500.18027210884355	500.4473015873016	72	127
500.3892517006803	501.17873015873016	51	127
500.45891156462585	501.17873015873016	66	127
500.45891156462585	500.6214512471655	54	127
500.5285714285714	501.17873015873016	58	127
500.5285714285714	501.17873015873016	70	127
500.6214512471655	501.17873015873016	74	127
500.6214512471655	501.17873015873016	54	127
500.6214512471655	501.17873015873016	62	127
506.7282993197279	507.1578684807256	55	127
506.7282993197279	507.1578684807256	70	127
506.7282993197279	507.1578684807256	74	127
506.7282993197279	507.1578684807256	52	127
506.7282993197279	507.1578684807256	62	127
507.1578684807256	507.6454875283447	60	127
507.1578684807256	507.6454875283447	67	127
507.1578684807256	507.6454875283447	72	127
507.6454875283447	508.06344671201816	58	127
507.6454875283447	508.06344671201816	64	127
507.6454875283447	508.06344671201816	70	127
507.6454875283447	508.06344671201816	55	127
508.06344671201816	508.49301587301585	72	127
508.06344671201816	508.49301587301585	67	127
508.06344671201816	508.49301587301585	60	127
508.49301587301585	508.89936507936505	55	127
508.49301587301585	508.89936507936505	70	127
508.49301587301585	508.89936507936505	74	127
508.49301587301585	508.89936507936505	52	127
508.49301587301585	508.89936507936505	62	127
508.89936507936505	509.34054421768707	72	127
508.89936507936505	509.34054421768707	67	127
508.89936507936505	509.34054421768707	60	127
509.34054421768707	509.8049433106576	55	127
509.34054421768707	509.8049433106576	64	127
509.34054421768707	509.8049433106576	70	127
509.34054421768707	509.8049433106576	58	127
509.8049433106576	510.2112925170068	60	127
509.8049433106576	510.2112925170068	67	127
509.8049433106576	510.2112925170068	72	127
510.2112925170068	510.6292517006803	55	127
510.2112925170068	510.6292517006803	70	127
510.2112925170068	510.6292517006803	74	127
510.2112925170068	510.6292517006803	52	127
510.2112925170068	510.6292517006803	62	127
510.6292517006803	511.07043083900226	60	127
510.6292517006803	511.07043083900226	67	127
510.6292517006803	511.07043083900226	72	127
511.07043083900226	511.51160997732427	55	127
511.07043083900226	511.51160997732427	64	127
511.07043083900226	511.51160997732427	70	127
511.07043083900226	511.51160997732427	58	127
511.51160997732427	511.7321995464853	60	127
511.51160997732427	511.8599092970521	67	127
511.51160997732427	511.8599092970521	72	127
511.7321995464853	512.5100680272109	53	127
511.8599092970521	512.5100680272109	68	127
511.8599092970521	512.5100680272109	56	127
511.9527891156463	512.5100680272109	58	127
511.9527891156463	512.5100680272109	70	127
512.0224263038549	512.5100680272109	74	127
512.0224263038549	512.5100680272109	62	127
515.8769614512472	516.3413605442177	55	127
515.8769614512472	516.3413605442177	70	127
515.8769614512472	516.3413605442177	74	127
515.8769614512472	516.3413605442177	52	127
515.8769614512472	516.3413605442177	62	127
516.3413605442177	516.7709297052154	72	127
516.3413605442177	516.7709297052154	67	127
516.3413605442177	516.7709297052154	60	127
516.7709297052154	517.2004988662131	70	127
516.7709297052154	517.2004988662131	58	127
516.7709297052154	517.2004988662131	64	127
516.7709297052154	517.2004988662131	55	127
522.3785487528345	522.889387755102	53	127
522.3785487528345	522.889387755102	70	127
522.3785487528345	522.889387755102	74	127
522.3785487528345	522.889387755102	56	127
522.3785487528345	522.889387755102	62	127
522.889387755102	523.3886167800454	60	127
522.889387755102	523.3886167800454	72	127
523.3886167800454	523.8762131519275	56	127
523.3886167800454	523.8762131519275	65	127
523.3886167800454	523.8762131519275	70	127
523.3886167800454	523.8762131519275	58	127
525.3971428571429	525.6177324263039	46	127
525.6177324263039	525.9079818594105	39	127
525.9079818594105	526.1401587301588	46	127
526.1401587301588	526.3723809523809	51	127
526.3723809523809	526.639410430839	55	127
526.639410430839	526.86	58	127
526.86	527.1038095238096	63	127
527.1038095238096	527.3127891156463	67	127
527.3127891156463	527.5333786848073	70	127
527.5333786848073	527.7191383219955	67	127
527.7191383219955	527.9397278911565	63	127
527.9397278911565	528.1603174603175	58	127
528.1603174603175	528.3924943310658	49	127
528.3924943310658	528.6014965986394	42	127
528.6014965986394	528.8220861678004	49	127
528.8220861678004	529.06589569161	54	127
529.06589569161	529.3097052154195	58	127
529.3097052154195	529.5186848072562	61	127
529.5186848072562	529.7508843537415	51	127
529.7508843537415	529.9946938775511	54	127
529.9946938775511	530.2152607709751	58	127
530.2152607709751	530.4358503401361	63	127
530.4358503401361	530.656462585034	66	127
530.656462585034	530.877052154195	70	127
530.877052154195	531.1092517006803	46	127
531.1092517006803	531.3762811791383	39	127
531.3762811791383	531.5968707482994	46	127
531.5968707482994	531.8522675736962	51	127
531.8522675736962	532.0728571428572	55	127
532.0728571428572	532.2818594104308	58	127
532.2818594104308	532.5024489795918	63	127
532.5024489795918	532.7230385487528	67	127
532.7230385487528	532.8971882086167	70	127
532.8971882086167	533.1061678004535	67	127
533.1061678004535	533.3151473922902	63	127
533.3151473922902	533.524126984127	58	127
533.524126984127	533.744716553288	49	127
533.744716553288	533.9536961451247	42	127
533.9536961451247	534.1742857142857	49	127
534.1742857142857	534.3948752834467	54	127
534.3948752834467	534.6154648526077	58	127
534.6154648526077	534.8360544217687	61	127
534.8360544217687	535.0334240362812	51	127
535.0334240362812	535.2424036281179	54	127
535.2424036281179	535.4513832199547	58	127
535.4513832199547	535.6719727891157	60	127
535.6719727891157	535.8809523809524	63	127
535.8809523809524	536.1015419501134	66	127
536.1015419501134	536.3105215419502	52	127
536.3105215419502	536.5195011337869	54	127
536.5195011337869	536.7400907029479	58	127
536.7400907029479	536.9374603174604	61	127
536.7400907029479	536.9374603174604	65	127
536.7400907029479	536.9374603174604	77	127
536.9374603174604	537.3786167800454	78	127
536.9374603174604	537.3786167800454	66	127
537.3786167800454	538.2377777777778	68	127
537.3786167800454	537.5992290249433	51	127
537.3786167800454	538.2377777777778	80	127
537.5992290249433	537.8198185941043	54	127
537.8198185941043	538.0171882086167	59	127
538.0171882086167	538.2377777777778	63	127
538.2377777777778	538.6789569160998	81	127
538.2377777777778	538.6789569160998	69	127
538.6789569160998	538.911156462585	56	127
538.911156462585	539.131746031746	58	127
539.131746031746	539.352335600907	62	127
539.352335600907	539.5729251700681	64	127
539.352335600907	539.5729251700681	68	127
539.352335600907	539.5729251700681	80	127
539.5729251700681	540.0141043083901	81	127
539.5729251700681	540.0141043083901	69	127
540.0141043083901	540.2346712018141	54	127
540.0141043083901	540.9080725623583	82	127
540.0141043083901	540.9080725623583	70	127
540.2346712018141	540.4552607709751	57	127
540.4552607709751	540.675873015873	63	127
540.675873015873	540.9080725623583	69	127
540.9080725623583	541.3492517006803	71	127
540.9080725623583	541.3492517006803	83	127
541.3492517006803	541.5698412698413	56	127
541.5698412698413	541.8136507936508	59	127
541.8136507936508	542.0458503401361	64	127
542.0458503401361	542.2780272108844	82	127
542.0458503401361	542.2780272108844	70	127
542.0458503401361	542.2780272108844	68	127
542.2780272108844	542.7192290249433	83	127
542.2780272108844	542.7192290249433	71	127
542.7192290249433	542.9746485260771	57	127
542.7192290249433	543.3809977324263	84	127
542.7192290249433	543.3809977324263	72	127
542.9746485260771	543.1836281179138	60	127
543.1836281179138	543.3809977324263	63	127
543.3809977324263	543.6015873015873	74	127
543.3809977324263	543.6015873015873	67	127
543.3809977324263	543.6015873015873	86	127
543.6015873015873	544.0427664399093	87	127
543.6015873015873	544.0427664399093	75	127
544.0427664399093	544.2633560090703	58	127
544.0427664399093	544.7045351473923	88	127
544.0427664399093	544.7045351473923	76	127
544.2633560090703	544.4955555555556	61	127
544.4955555555556	544.7045351473923	66	127
544.7045351473923	544.9251247165533	78	127
544.7045351473923	544.9251247165533	70	127
544.7045351473923	544.9251247165533	90	127
544.9251247165533	545.3662811791384	80	127
544.9251247165533	545.3662811791384	92	127
545.3662811791384	545.5985034013605	34	127
545.3662811791384	546.2022222222222	82	127
545.3662811791384	546.2022222222222	94	127
545.5985034013605	545.9468027210885	46	127
545.9468027210885	546.2022222222222	56	127
546.2022222222222	546.4692517006803	84	127
546.2022222222222	546.4692517006803	58	127
546.2022222222222	546.4692517006803	96	127
546.4692517006803	546.9336507936508	98	127
546.4692517006803	546.9336507936508	86	127
546.9336507936508	547.1426303854876	46	127
547.1426303854876	547.3864172335601	39	127
547.3864172335601	547.6302494331065	46	127
547.6302494331065	547.8740589569161	51	127
547.8856689342404	548.1294784580499	55	127
548.1410884353742	548.3848979591837	58	127
548.396507936508	548.5938775510205	63	127
548.6054875283447	548.8028571428572	67	127
548.8144671201815	549.0118367346939	70	127
549.0234240362812	549.2208163265307	67	127
549.2324036281179	549.4413832199547	63	127
549.4529931972789	549.6503628117914	58	127
549.6619954648526	549.8593424036281	49	127
549.8709750566893	550.1147845804988	42	127
550.1263945578231	550.3237641723356	49	127
550.3353741496599	550.5327437641723	54	127
550.5443537414966	550.7417233560091	58	127
550.7533333333333	550.9507029478458	61	127
550.9507029478458	551.2293424036282	51	127
551.2293424036282	551.4499319727892	54	127
551.4499319727892	551.6937188208617	58	127
551.6937188208617	551.8910884353742	60	127
551.9026984126984	552.1000680272109	63	127
552.1116780045352	552.3322902494331	66	127
552.3439002267573	552.5296598639455	46	127
552.5412698412698	552.7618594104308	39	127
552.7734693877551	552.9940589569161	46	127
553.0056689342404	553.2146485260771	51	127
553.2262585034014	553.4236281179138	55	127
553.4468480725624	553.6442176870748	58	127
553.6558276643991	553.8531972789116	63	127
553.8648072562358	554.0621768707483	67	127
554.0737868480726	554.2827664399093	70	127
554.2943764172336	554.5033560090703	67	127
554.5149659863946	554.7123356009071	63	127
554.7239455782313	554.9213151927438	58	127
554.9213151927438	555.2115646258503	49	127
555.2115646258503	555.4553741496599	42	127
555.4553741496599	555.6643537414966	49	127
555.6643537414966	555.8733333333333	54	127
555.8849433106576	556.0823129251701	58	127
556.0939229024943	556.3029024943311	61	127
556.3145124716553	556.5931292517007	51	127
556.604739229025	556.8253514739229	54	127
556.8369614512471	557.0343310657596	58	127
557.0459410430839	557.2549206349206	60	127
557.2665306122449	557.4639002267573	63	127
557.4755102040816	557.6960997732426	66	127
557.7077097505669	557.9166893424036	52	127
557.9282993197279	558.1372789115646	54	127
558.1488888888889	558.3462585034014	58	127
558.3578684807256	558.5552380952381	61	127
558.3578684807256	558.5668480725624	65	127
558.3578684807256	558.5668480725624	77	127
558.5668480725624	558.9615873015873	78	127
558.5668480725624	558.9615873015873	66	127
558.9615873015873	559.8787528344672	68	127
558.9615873015873	559.2053968253969	51	127
558.9615873015873	559.8787528344672	80	127
559.2053968253969	559.4607936507937	54	127
559.4607936507937	559.6697732426304	59	127
559.6697732426304	559.8671428571429	63	127
559.8787528344672	560.3083446712018	81	127
559.8787528344672	560.3083446712018	69	127
560.319954648526	560.5289342403628	56	127
560.540544217687	560.7379138321995	58	127
560.7495238095238	560.9701133786848	62	127
560.9817233560091	561.2023129251701	65	127
560.9817233560091	561.2139229024943	68	127
560.9817233560091	561.2139229024943	80	127
561.2139229024943	561.6783219954649	69	127
561.2139229024943	561.6783219954649	81	127
561.6783219954649	561.8989115646259	54	127
561.6783219954649	562.5490702947845	70	127
561.6783219954649	562.5490702947845	82	127
561.9104988662132	562.1194784580499	57	127
562.1310884353742	562.3284580498866	63	127
562.3400907029478	562.5374376417234	69	127
562.5490702947845	562.9554195011337	71	127
562.5490702947845	562.9554195011337	83	127
562.9554195011337	563.1760090702948	56	127
563.1760090702948	563.3849886621315	59	127
563.3849886621315	563.5939682539682	64	127
563.5939682539682	563.7680952380953	68	127
563.5939682539682	563.7797278911564	70	127
563.5939682539682	563.7797278911564	82	127
563.7797278911564	564.2673469387755	71	127
563.7797278911564	564.2673469387755	83	127
564.2673469387755	564.464716553288	57	127
564.2673469387755	564.9523356009071	72	127
564.2673469387755	564.9523356009071	84	127
564.4763265306123	564.6969160997733	60	127
564.7201360544218	564.9407256235828	63	127
564.9523356009071	565.1497052154195	74	127
564.9523356009071	565.1380952380953	67	127
564.9523356009071	565.1497052154195	86	127
565.1497052154195	565.5792743764173	87	127
565.1497052154195	565.5792743764173	75	127
565.5792743764173	565.788231292517	58	127
565.5792743764173	566.4500226757369	77	127
565.5792743764173	566.4500226757369	89	127
565.7998412698413	566.0204535147392	61	127
566.0320634920635	566.2410430839002	66	127
566.2526530612245	566.4384126984127	70	127
566.4500226757369	566.9608616780046	90	127
566.4500226757369	566.9608616780046	78	127
566.9608616780046	567.2743310657596	34	127
566.9608616780046	567.5645804988662	82	127
566.9608616780046	567.5645804988662	94	127
567.2743310657596	567.5645804988662	46	127
567.5645804988662	567.8548072562359	56	127
567.8548072562359	568.0521768707483	58	127
568.0638095238095	568.4933786848072	70	127
568.5049886621315	568.7371882086168	39	127
568.7371882086168	569.0738548752835	46	127
569.0854875283446	569.3060770975056	55	127
569.3176870748299	569.5266666666666	70	127
569.5382766439909	569.7356462585034	64	127
569.7356462585034	569.9330158730158	58	127
569.9330158730158	570.1652154195011	39	127
570.1768253968254	570.3858049886621	47	127
570.3974149659864	570.6180045351474	54	127
570.6296145124717	571.0011337868481	71	127
571.0011337868481	571.2101133786848	66	127
571.2217233560091	571.4074829931973	59	127
571.4190929705215	571.6048526077097	51	127
571.616462585034	571.8834920634921	58	127
571.8834920634921	572.0692517006803	64	127
572.0808616780046	572.2666213151928	73	127
572.278231292517	572.4639909297052	68	127
572.4756009070295	572.6613605442177	61	127
572.6845804988662	572.9283900226758	51	127
572.9283900226758	573.1257596371883	56	127
573.1373696145125	573.3231292517007	61	127
573.334739229025	573.5088888888889	70	127
573.5204988662132	573.7294784580499	64	127
573.7294784580499	573.9384580498867	58	127
573.9500680272109	574.1938548752835	39	127
574.2054875283446	574.4609070294784	46	127
574.4725170068027	574.6931065759637	55	127
574.6931065759637	574.8904761904762	70	127
574.8904761904762	575.0878458049887	64	127
575.0994557823129	575.2968253968254	58	127
575.3084353741497	575.5638548752835	39	127
575.5754648526078	575.7728344671202	47	127
575.7728344671202	575.981814058957	54	127
576.0050340136055	576.2836734693877	71	127
576.295283446712	576.5042630385487	66	127
576.515873015873	576.7132426303855	59	127
576.7132426303855	576.9222222222222	51	127
576.9338321995465	577.1544217687075	58	127
577.177641723356	577.3750113378685	64	127
577.3866213151928	577.572380952381	73	127
577.5839909297052	577.792970521542	68	127
577.792970521542	578.0019501133787	61	127
578.013560090703	578.234149659864	51	127
578.2457596371883	578.501179138322	56	127
578.5127891156462	578.7101587301587	61	127
578.7101587301587	578.9191383219954	68	127
578.9307482993197	579.1165079365079	63	127
579.1281179138322	579.3138775510204	56	127
579.3254875283446	579.5925170068027	39	127
579.5925170068027	579.8014965986395	46	127
579.8014965986395	579.9988662131519	56	127
580.0104761904762	580.2194557823129	73	127
580.2310657596372	580.4168253968254	64	127
580.4284353741497	580.6838548752835	59	127
580.6838548752835	580.9044444444445	39	127
580.9160544217688	581.1134240362812	46	127
581.1250113378685	581.322403628118	56	127
581.3339909297052	581.542970521542	71	127
581.542970521542	581.8216326530612	65	127
581.8216326530612	582.0422222222222	61	127
582.0538321995465	582.251201814059	39	127
582.2744217687075	582.47179138322	46	127
582.4834013605442	582.6691609977324	55	127
582.6691609977324	582.8781405895692	70	127
582.8897505668934	583.0871201814059	67	127
583.0987301587302	583.2960997732426	63	127
583.3193197278912	583.5399092970522	39	127
583.5399092970522	583.7721088435375	47	127
583.841768707483	584.0391383219954	57	127
584.0507482993197	584.282947845805	71	127
584.2945578231293	584.503537414966	66	127
584.5151473922903	585.0027664399094	59	127
585.0027664399094	585.2001360544218	39	127
585.2117460317461	585.4787755102041	46	127
585.4903854875283	585.6877551020408	56	127
585.6993650793651	585.8967346938775	73	127
585.8967346938775	586.1289342403628	64	127
586.1405442176871	586.3379138321995	59	127
586.3495238095238	586.5585034013606	39	127
586.5701133786848	586.8023129251701	46	127
586.8023129251701	587.0809523809523	56	127
587.0809523809523	587.2782993197279	71	127
587.2899319727891	587.4989115646258	65	127
587.5105215419501	587.6962811791383	61	127
587.7078911564626	587.9168707482993	39	127
587.9168707482993	588.125850340136	46	127
588.1374603174603	588.3232199546485	55	127
588.3348299319728	588.5902494331066	70	127
588.6018594104308	588.7992290249433	67	127
588.7992290249433	589.00820861678	63	127
589.0198185941043	589.2636281179139	39	127
589.2868480725624	589.5074149659864	47	127
589.530634920635	589.7860770975057	57	127
589.7976870748299	590.0414965986395	71	127
590.0414965986395	590.3085260770976	66	127
590.3201360544218	590.5871655328798	59	127
590.6103854875283	590.8658049886621	39	127
590.8774149659864	591.0747845804989	46	127
591.0747845804989	591.2721541950114	55	127
591.2837641723356	591.4695238095238	70	127
591.4811337868481	591.6668934240363	67	127
591.6785034013606	591.9339229024944	63	127
591.9339229024944	592.2473922902494	39	127
592.2473922902494	592.4795918367347	47	127
592.491201814059	592.6885714285714	57	127
592.7001814058957	592.8975510204082	71	127
592.9091609977324	593.2226303854875	66	127
593.2226303854875	593.4432199546485	59	127
593.4548299319728	593.687029478458	39	127
593.6986394557823	593.8843990929705	46	127
593.8960090702948	594.1049886621315	55	127
594.1049886621315	594.3604081632653	70	127
594.3604081632653	594.5577777777778	67	127
594.5693877551021	594.8480045351474	63	127
594.8596371882086	595.0802267573696	39	127
595.0918367346939	595.4169160997733	47	127
595.4169160997733	595.6490929705216	57	127
595.6607029478458	595.9509750566893	71	127
595.9625850340136	596.1715646258504	66	127
596.1831746031746	596.5663038548753	59	127
596.5663038548753	596.7985034013606	39	127
596.8101133786848	596.995873015873	46	127
597.0074829931973	597.2396825396826	51	127
597.2512925170068	597.4486621315193	55	127
597.4486621315193	597.6460317460318	58	127
597.6460317460318	597.8434013605442	63	127
597.8550113378685	598.0407709750567	67	127
598.0639909297053	598.2497505668935	70	127
598.2613605442177	598.4587301587302	75	127
598.4587301587302	598.6444897959184	79	127
598.6560997732427	598.8418594104309	82	127
598.8534693877551	599.0392290249433	87	127
599.0508390022676	599.2598185941043	89	127
599.2714285714286	599.4804081632653	87	127
599.4920181405896	599.7009977324263	82	127
599.7009977324263	599.9215873015874	79	127
599.9331972789116	600.1537641723356	77	127
600.1653968253968	600.3859863945578	75	127
600.3975963718821	600.6181859410431	70	127
600.6297959183673	600.8736054421769	67	127
600.8852154195012	601.1290249433107	65	127
601.140634920635	601.3728117913832	63	127
601.3844217687075	601.6166439909297	58	127
601.628253968254	601.8836734693878	55	127
601.895283446712	602.4060997732427	51	127
601.895283446712	602.4060997732427	39	127
604.3565986394558	605.4014965986395	39	127
604.4378458049887	605.4014965986395	46	127
604.5307482993197	605.4014965986395	51	127
604.6120181405896	605.4014965986395	55	127
604.6932879818594	605.4014965986395	58	127
604.7861678004535	605.4014965986395	63	127
604.8790476190476	605.4014965986395	67	127
