# onset,offset,note,velocity
2.437301587301587	3.505442176870748	55	127
2.437301587301587	3.505442176870748	55	127
3.505442176870748	3.6099319727891155	57	127
3.505442176870748	3.6099319727891155	57	127
3.6099319727891155	3.70281179138322	58	127
3.6099319727891155	3.70281179138322	58	127
3.70281179138322	4.608390022675737	58	127
3.70281179138322	4.608390022675737	58	127
4.608390022675737	5.513968253968254	55	127
4.608390022675737	5.513968253968254	55	127
5.513968253968254	5.606848072562358	57	127
5.513968253968254	5.606848072562358	57	127
5.606848072562358	5.711337868480726	58	127
5.606848072562358	5.711337868480726	58	127
5.711337868480726	5.815827664399093	60	127
5.711337868480726	5.815827664399093	60	127
5.815827664399093	5.897074829931973	62	127
5.815827664399093	5.897074829931973	62	127
5.897074829931973	6.1873469387755105	62	127
5.897074829931973	6.1873469387755105	62	127
6.1873469387755105	6.396326530612245	58	127
6.1873469387755105	6.396326530612245	58	127
6.396326530612245	6.489206349206349	60	127
6.396326530612245	6.489206349206349	60	127
6.489206349206349	6.582086167800454	62	127
6.489206349206349	6.582086167800454	62	127
6.582086167800454	6.686575963718821	63	127
6.582086167800454	6.686575963718821	63	127
6.686575963718821	6.791065759637188	65	127
6.686575963718821	6.791065759637188	65	127
6.791065759637188	6.883945578231293	65	127
6.791065759637188	6.883945578231293	65	127
6.883945578231293	7.011655328798186	67	127
6.883945578231293	7.011655328798186	67	127
7.011655328798186	7.104535147392291	68	127
7.011655328798186	7.104535147392291	68	127
7.104535147392291	8.28875283446712	68	127
7.104535147392291	8.28875283446712	68	127
8.28875283446712	8.451292517006802	67	127
8.28875283446712	8.451292517006802	67	127
8.451292517006802	8.613832199546485	65	127
8.451292517006802	8.613832199546485	65	127
8.613832199546485	8.776349206349206	63	127
8.613832199546485	8.776349206349206	63	127
8.776349206349206	9.020181405895691	62	127
8.776349206349206	9.020181405895691	62	127
9.020181405895691	9.089818594104308	62	127
9.020181405895691	9.101451247165533	62	127
9.101451247165533	9.263990929705216	62	127
9.101451247165533	9.368480725623582	62	127
9.101451247165533	9.263990929705216	62	127
9.263990929705216	9.426530612244898	60	127
9.263990929705216	9.426530612244898	60	127
9.426530612244898	9.565827664399093	58	127
9.426530612244898	9.565827664399093	58	127
9.565827664399093	9.705170068027211	57	127
9.565827664399093	9.705170068027211	57	127
9.705170068027211	9.902539682539683	55	127
9.705170068027211	9.902539682539683	55	127
9.902539682539683	9.97219954648526	55	127
9.902539682539683	9.97219954648526	55	127
9.983809523809525	10.529478458049887	55	127
9.983809523809525	10.529478458049887	55	127
10.529478458049887	10.69201814058957	53	127
10.529478458049887	10.69201814058957	53	127
10.69201814058957	10.935827664399094	58	127
10.69201814058957	10.935827664399094	58	127
10.982267573696145	11.516326530612245	57	127
10.982267573696145	11.516326530612245	57	127
11.516326530612245	11.6556462585034	55	127
11.516326530612245	11.6556462585034	55	127
11.6556462585034	11.899455782312925	51	127
11.6556462585034	11.899455782312925	51	127
11.945895691609977	12.433514739229025	55	127
11.945895691609977	12.433514739229025	55	127
12.433514739229025	12.596054421768708	53	127
12.433514739229025	12.596054421768708	53	127
12.596054421768708	12.863083900226757	58	127
12.596054421768708	12.863083900226757	58	127
12.90952380952381	13.408752834467121	57	127
12.90952380952381	13.408752834467121	57	127
13.408752834467121	13.55968253968254	55	127
13.408752834467121	13.55968253968254	55	127
13.55968253968254	13.884761904761906	62	127
13.55968253968254	13.884761904761906	62	127
13.94281179138322	14.395600907029479	60	127
13.94281179138322	14.395600907029479	60	127
14.395600907029479	14.534920634920635	58	127
14.395600907029479	14.534920634920635	58	127
14.534920634920635	14.82517006802721	65	127
14.534920634920635	14.82517006802721	65	127
14.918049886621315	15.31278911564626	66	127
14.918049886621315	15.31278911564626	66	127
15.31278911564626	15.417278911564626	64	127
15.31278911564626	15.417278911564626	64	127
15.417278911564626	15.51015873015873	62	127
15.417278911564626	15.51015873015873	62	127
15.51015873015873	15.916507936507937	62	127
15.51015873015873	15.916507936507937	62	127
15.916507936507937	16.02097505668934	57	127
15.916507936507937	16.02097505668934	57	127
16.02097505668934	16.11387755102041	55	127
16.02097505668934	16.11387755102041	55	127
16.11387755102041	16.19514739229025	54	127
16.11387755102041	16.19514739229025	54	127
16.19514739229025	16.31124716553288	52	127
16.19514739229025	16.31124716553288	52	127
16.31124716553288	16.41573696145125	50	127
16.31124716553288	16.41573696145125	50	127
16.41573696145125	18.505532879818595	50	127
16.41573696145125	18.505532879818595	50	127
18.575192743764173	19.608480725623583	55	127
18.575192743764173	19.608480725623583	67	127
18.900272108843538	19.202131519274378	58	127
19.202131519274378	19.457551020408165	50	127
19.51560090702948	19.817460317460316	51	127
19.620090702947845	19.71297052154195	69	127
19.620090702947845	19.724580498866214	57	127
19.724580498866214	19.817460317460316	70	127
19.724580498866214	19.817460317460316	58	127
19.817460317460316	20.769478458049885	70	127
19.817460317460316	20.072879818594103	55	127
19.817460317460316	20.769478458049885	58	127
20.14251700680272	20.258639455782312	63	127
20.258639455782312	20.374739229024943	62	127
20.374739229024943	20.47922902494331	60	127
20.47922902494331	20.769478458049885	62	127
20.8275283446712	21.709886621315192	67	127
20.8275283446712	21.709886621315192	55	127
20.8275283446712	21.140997732426303	58	127
21.140997732426303	21.40800453514739	50	127
21.50090702947846	21.767936507936508	52	127
21.709886621315192	21.81437641723356	57	127
21.709886621315192	21.81437641723356	69	127
21.81437641723356	22.220725623582766	64	127
21.81437641723356	21.918843537414965	70	127
21.81437641723356	21.918843537414965	58	127
21.918843537414965	22.023356009070294	72	127
21.918843537414965	22.023356009070294	60	127
22.023356009070294	22.1162358276644	62	127
22.023356009070294	22.1162358276644	74	127
22.1162358276644	22.394875283446712	62	127
22.1162358276644	22.394875283446712	74	127
22.220725623582766	22.336825396825397	62	127
22.34843537414966	22.441315192743765	60	127
22.441315192743765	22.68512471655329	70	127
22.441315192743765	22.68512471655329	58	127
22.441315192743765	23.323673469387757	62	127
22.68512471655329	22.789614512471655	60	127
22.68512471655329	22.789614512471655	72	127
22.789614512471655	22.894104308390023	74	127
22.789614512471655	22.894104308390023	62	127
22.894104308390023	22.998571428571427	75	127
22.894104308390023	22.998571428571427	63	127
22.998571428571427	23.091473922902495	65	127
22.998571428571427	23.091473922902495	77	127
23.091473922902495	23.195963718820863	77	127
23.091473922902495	23.195963718820863	65	127
23.195963718820863	23.300453514739228	79	127
23.195963718820863	23.300453514739228	67	127
23.300453514739228	23.404943310657597	68	127
23.300453514739228	23.404943310657597	80	127
23.404943310657597	23.63714285714286	60	127
23.404943310657597	24.577551020408162	80	127
23.404943310657597	24.577551020408162	68	127
23.63714285714286	23.788072562358277	65	127
23.788072562358277	23.950612244897957	63	127
23.950612244897957	24.10154195011338	62	127
24.10154195011338	24.252471655328797	60	127
24.252471655328797	24.426621315192744	58	127
24.426621315192744	24.693650793650793	56	127
24.589160997732428	24.740090702947846	67	127
24.589160997732428	24.740090702947846	79	127
24.740090702947846	25.041950113378686	60	127
24.740090702947846	24.891020408163264	77	127
24.740090702947846	24.891020408163264	65	127
24.891020408163264	25.041950113378686	75	127
24.891020408163264	25.041950113378686	63	127
25.041950113378686	25.308979591836735	74	127
25.041950113378686	25.308979591836735	62	127
25.041950113378686	25.343809523809522	58	127
25.308979591836735	25.390249433106575	62	127
25.308979591836735	25.390249433106575	74	127
25.390249433106575	25.55278911564626	74	127
25.390249433106575	25.55278911564626	62	127
25.390249433106575	25.680498866213153	52	127
25.55278911564626	25.726938775510202	60	127
25.55278911564626	25.726938775510202	72	127
25.726938775510202	25.877868480725624	58	127
25.726938775510202	26.028798185941042	62	127
25.726938775510202	25.877868480725624	70	127
25.877868480725624	26.028798185941042	69	127
25.877868480725624	26.028798185941042	57	127
26.028798185941042	26.31904761904762	61	127
26.028798185941042	26.29582766439909	67	127
26.028798185941042	26.29582766439909	55	127
26.29582766439909	26.377097505668935	55	127
26.29582766439909	26.377097505668935	67	127
26.377097505668935	26.89954648526077	55	127
26.377097505668935	26.89954648526077	67	127
26.737006802721087	27.073696145124718	58	127
26.89954648526077	27.073696145124718	53	127
26.89954648526077	27.073696145124718	65	127
27.073696145124718	27.36394557823129	53	127
27.073696145124718	27.36394557823129	70	127
27.073696145124718	27.36394557823129	58	127
27.410385487528345	27.85156462585034	69	127
27.410385487528345	27.85156462585034	57	127
27.700634920634922	28.00249433106576	46	127
27.85156462585034	28.00249433106576	67	127
27.85156462585034	28.00249433106576	55	127
28.00249433106576	28.292743764172336	55	127
28.00249433106576	28.292743764172336	63	127
28.00249433106576	28.292743764172336	51	127
28.33918367346939	28.850022675736962	55	127
28.33918367346939	28.850022675736962	67	127
28.69909297052154	29.00095238095238	58	127
28.850022675736962	29.00095238095238	53	127
28.850022675736962	29.00095238095238	65	127
29.00095238095238	29.30281179138322	53	127
29.00095238095238	29.30281179138322	70	127
29.00095238095238	29.30281179138322	58	127
29.349251700680274	29.87170068027211	69	127
29.349251700680274	29.87170068027211	57	127
29.674331065759638	30.022630385487528	50	127
29.87170068027211	30.022630385487528	67	127
29.87170068027211	30.022630385487528	55	127
30.022630385487528	30.278049886621314	58	127
30.022630385487528	30.278049886621314	74	127
30.022630385487528	30.278049886621314	62	127
30.324489795918367	30.80049886621315	72	127
30.324489795918367	30.80049886621315	60	127
30.63795918367347	30.951428571428572	53	127
30.80049886621315	30.951428571428572	58	127
30.80049886621315	30.951428571428572	70	127
30.951428571428572	31.241678004535146	61	127
30.951428571428572	31.241678004535146	77	127
30.951428571428572	31.241678004535146	65	127
31.311337868480727	31.798956916099772	76	127
31.311337868480727	31.798956916099772	64	127
31.636417233560092	31.961496598639457	57	127
31.798956916099772	31.961496598639457	62	127
31.798956916099772	31.961496598639457	74	127
31.961496598639457	32.228526077097506	65	127
31.961496598639457	33.05281179138322	69	127
31.961496598639457	33.05281179138322	81	127
32.62326530612245	32.948344671201816	66	127
32.948344671201816	33.215374149659866	61	127
33.05281179138322	33.15732426303855	80	127
33.05281179138322	33.15732426303855	68	127
33.15732426303855	33.261814058956915	78	127
33.15732426303855	33.261814058956915	66	127
33.261814058956915	33.69138321995465	66	127
33.261814058956915	33.57528344671202	57	127
33.261814058956915	33.69138321995465	78	127
33.57528344671202	34.12095238095238	54	127
33.69138321995465	33.79587301587301	76	127
33.69138321995465	33.79587301587301	64	127
33.79587301587301	33.90036281179138	74	127
33.79587301587301	33.90036281179138	62	127
33.90036281179138	34.28349206349206	74	127
33.90036281179138	34.28349206349206	62	127
34.17900226757369	34.8175283446712	50	127
34.28349206349206	34.38798185941043	57	127
34.28349206349206	34.38798185941043	69	127
34.38798185941043	34.4924716553288	67	127
34.38798185941043	34.4924716553288	55	127
34.4924716553288	34.62018140589569	66	127
34.4924716553288	34.62018140589569	54	127
34.62018140589569	34.736281179138324	52	127
34.62018140589569	34.736281179138324	64	127
34.736281179138324	34.8175283446712	50	127
34.736281179138324	34.8175283446712	62	127
34.8175283446712	35.31678004535147	45	127
34.8175283446712	37.81292517006803	50	127
34.8175283446712	36.83768707482993	62	127
35.38643990929705	35.69990929705215	38	127
35.69990929705215	35.932108843537414	39	127
35.99015873015873	36.23396825396826	40	127
36.28040816326531	36.61709750566894	41	127
36.61709750566894	36.872517006802724	42	127
36.91895691609977	37.1627664399093	43	127
37.90580498866213	38.521133786848075	52	127
38.20766439909297	38.463083900226756	58	127
38.521133786848075	38.834603174603174	51	127
38.834603174603174	39.15968253968254	61	127
39.15968253968254	39.496371882086166	62	127
39.15968253968254	39.264149659863946	58	127
39.264149659863946	39.36866213151927	60	127
39.36866213151927	39.496371882086166	62	127
39.496371882086166	39.85628117913832	50	127
39.496371882086166	39.79823129251701	62	127
39.85628117913832	40.56448979591837	52	127
40.19297052154195	40.50643990929705	58	127
40.56448979591837	40.85473922902494	51	127
40.85473922902494	41.191428571428574	61	127
41.191428571428574	41.284285714285716	58	127
41.191428571428574	41.45845804988662	62	127
41.284285714285716	41.38879818594104	58	127
41.38879818594104	41.516507936507935	60	127
41.516507936507935	41.82997732426304	50	127
41.516507936507935	41.620997732426304	62	127
41.620997732426304	41.76031746031746	62	127
41.76031746031746	41.87641723356009	63	127
41.88802721088435	42.20149659863946	65	127
41.88802721088435	43.74562358276644	46	127
41.88802721088435	43.74562358276644	56	127
42.20149659863946	42.70072562358277	56	127
42.70072562358277	42.85165532879819	58	127
42.85165532879819	43.36249433106576	62	127
43.36249433106576	43.51342403628118	65	127
43.51342403628118	43.768843537414966	68	127
43.873333333333335	45.39424036281179	67	127
43.873333333333335	45.39424036281179	62	127
43.873333333333335	44.34934240362812	47	127
44.34934240362812	44.50027210884354	50	127
44.5118820861678	44.9646485260771	53	127
44.9646485260771	45.11560090702948	55	127
45.127210884353744	45.742539682539686	59	127
45.47548752834467	45.76575963718821	53	127
45.47548752834467	45.76575963718821	62	127
45.84702947845805	46.53201814058957	54	127
46.172108843537416	46.439138321995465	63	127
46.53201814058957	46.86868480725624	57	127
46.86868480725624	47.43759637188209	55	127
47.19378684807256	47.29827664399093	59	127
47.29827664399093	47.41437641723356	61	127
47.41437641723356	47.51886621315193	62	127
47.51886621315193	47.809115646258505	53	127
47.51886621315193	47.809115646258505	62	127
47.86716553287982	48.505714285714284	54	127
48.192244897959185	48.44766439909297	63	127
48.505714285714284	48.80757369614513	57	127
48.80757369614513	49.43451247165533	55	127
49.21392290249433	49.30680272108844	59	127
49.30680272108844	49.4112925170068	61	127
49.4112925170068	49.51578231292517	62	127
49.51578231292517	49.80603174603175	53	127
49.51578231292517	49.80603174603175	62	127
49.86408163265306	51.71006802721089	54	127
49.86408163265306	50.491020408163266	47	127
50.17755102040816	50.43297052154195	63	127
50.491020408163266	50.827709750566896	46	127
50.827709750566896	51.4546485260771	39	127
51.15278911564626	51.24566893424036	63	127
51.24566893424036	51.35015873015873	65	127
51.35015873015873	51.4546485260771	66	127
51.4546485260771	51.83777777777778	38	127
51.4546485260771	51.55913832199546	66	127
51.55913832199546	51.67523809523809	68	127
51.67523809523809	51.82616780045351	70	127
51.83777777777778	53.73020408163265	50	127
51.83777777777778	53.73020408163265	43	127
51.83777777777778	52.97555555555556	58	127
52.97555555555556	53.13809523809524	67	127
53.161315192743764	53.62571428571429	70	127
53.62571428571429	53.823083900226756	74	127
53.83469387755102	53.985623582766436	48	127
53.83469387755102	55.69229024943311	36	127
53.83469387755102	54.29909297052154	79	127
53.985623582766436	54.13655328798186	58	127
54.13655328798186	54.62417233560091	62	127
54.29909297052154	54.46163265306122	81	127
54.473242630385485	54.92603174603175	79	127
54.62417233560091	54.77510204081633	64	127
54.77510204081633	55.2859410430839	62	127
54.92603174603175	55.08857142857143	76	127
55.11179138321995	55.599410430839	74	127
55.2859410430839	55.44848072562358	58	127
55.44848072562358	55.727120181405894	48	127
55.599410430839	55.77356009070295	69	127
55.78517006802721	57.642766439909295	43	127
55.78517006802721	56.08702947845805	50	127
55.78517006802721	56.24956916099773	67	127
56.08702947845805	56.41210884353742	51	127
56.24956916099773	56.400498866213155	74	127
56.41210884353742	56.91133786848073	74	127
56.41210884353742	56.74879818594104	50	127
56.74879818594104	57.07387755102041	53	127
56.91133786848073	57.06226757369615	67	127
57.07387755102041	57.41056689342403	51	127
57.07387755102041	57.56149659863946	70	127
57.41056689342403	57.66598639455783	50	127
57.56149659863946	57.712426303854876	74	127
57.7356462585034	57.88657596371882	48	127
57.7356462585034	58.246485260770974	79	127
57.7356462585034	63.4825850340136	36	127
57.88657596371882	58.07233560090703	58	127
58.07233560090703	58.54834467120181	62	127
58.246485260770974	58.39741496598639	81	127
58.409024943310655	58.88503401360544	79	127
58.54834467120181	58.699274376417236	64	127
58.699274376417236	59.21011337868481	62	127
58.88503401360544	59.03596371882086	76	127
59.04757369614512	59.52358276643991	74	127
59.21011337868481	59.37265306122449	58	127
59.37265306122449	59.62807256235828	48	127
59.52358276643991	59.70934240362812	70	127
59.72095238095238	60.06925170068027	52	127
59.72095238095238	60.23179138321996	69	127
60.06925170068027	60.39433106575964	53	127
60.23179138321996	60.382721088435375	81	127
60.39433106575964	60.649750566893424	52	127
60.39433106575964	60.85873015873016	81	127
60.707800453514736	61.00965986394558	55	127
60.85873015873016	60.99804988662132	72	127
61.00965986394558	61.49727891156463	76	127
61.00965986394558	61.32312925170068	53	127
61.32312925170068	61.601768707483	52	127
61.49727891156463	61.648208616780046	81	127
61.65981859410431	62.11260770975057	82	127
61.65981859410431	61.81074829931973	50	127
61.81074829931973	61.961678004535145	58	127
61.961678004535145	62.44929705215419	62	127
62.11260770975057	62.28675736961451	84	127
62.298367346938775	62.75115646258504	82	127
62.44929705215419	62.60022675736961	64	127
62.60022675736961	63.0762358276644	62	127
62.75115646258504	62.91369614512472	79	127
62.92530612244898	63.37809523809524	77	127
63.0762358276644	63.227165532879816	52	127
63.227165532879816	63.505804988662135	50	127
63.37809523809524	63.56385487528345	72	127
63.57546485260771	64.05145124716553	71	127
63.57546485260771	65.53755102040816	38	127
63.57546485260771	63.877324263038545	53	127
63.877324263038545	64.21401360544218	55	127
64.05145124716553	64.20240362811792	83	127
64.21401360544218	64.48104308390023	53	127
64.21401360544218	64.7132426303855	83	127
64.53909297052154	64.91061224489796	56	127
64.7132426303855	64.88739229024944	74	127
64.91061224489796	65.45625850340136	77	127
64.91061224489796	65.3053514739229	55	127
65.3053514739229	65.56074829931973	53	127
65.45625850340136	65.60721088435375	83	127
65.9438775510204	66.14126984126985	57	127
65.9438775510204	66.14126984126985	57	127
65.9438775510204	66.14126984126985	45	127
66.32700680272109	66.4779365079365	48	127
66.32700680272109	66.4779365079365	60	127
66.32700680272109	66.4779365079365	48	127
67.01201814058957	67.18616780045352	50	127
67.01201814058957	67.18616780045352	50	127
67.01201814058957	67.18616780045352	62	127
67.36031746031746	67.54607709750567	53	127
67.36031746031746	67.54607709750567	65	127
67.36031746031746	67.54607709750567	53	127
68.04530612244898	68.20784580498866	67	127
68.04530612244898	68.20784580498866	55	127
68.04530612244898	68.20784580498866	55	127
68.37036281179138	68.52131519274377	52	127
68.37036281179138	68.52131519274377	52	127
68.37036281179138	68.52131519274377	64	127
69.03215419501134	69.18308390022676	48	127
69.03215419501134	69.18308390022676	60	127
69.03215419501134	69.18308390022676	48	127
69.34562358276644	69.4965306122449	52	127
69.34562358276644	69.4965306122449	52	127
69.34562358276644	69.4965306122449	64	127
70.05383219954649	70.22798185941043	53	127
70.05383219954649	70.22798185941043	53	127
70.05383219954649	70.22798185941043	65	127
70.41371882086167	70.56467120181406	57	127
70.41371882086167	70.56467120181406	69	127
70.41371882086167	70.56467120181406	57	127
71.05229024943311	71.23804988662131	67	127
71.05229024943311	71.23804988662131	55	127
71.05229024943311	71.23804988662131	55	127
71.400589569161	71.56312925170069	52	127
71.400589569161	71.56312925170069	64	127
71.400589569161	71.56312925170069	52	127
71.79530612244898	72.09718820861679	69	127
71.79530612244898	72.09718820861679	45	127
71.79530612244898	72.09718820861679	57	127
71.83015873015873	72.09718820861679	52	127
71.83015873015873	72.41065759637188	84	127
71.83015873015873	72.41065759637188	72	127
71.83015873015873	72.41065759637188	60	127
71.83015873015873	72.09718820861679	76	127
71.83015873015873	72.09718820861679	64	127
72.41065759637188	72.70090702947846	69	127
72.41065759637188	72.70090702947846	81	127
72.41065759637188	72.70090702947846	57	127
72.74734693877551	73.4091156462585	65	127
72.74734693877551	73.4091156462585	53	127
72.74734693877551	73.4091156462585	77	127
73.4091156462585	73.64131519274376	74	127
73.4091156462585	73.64131519274376	62	127
73.4091156462585	73.64131519274376	50	127
73.73419501133787	74.03605442176871	59	127
73.73419501133787	74.03605442176871	64	127
73.73419501133787	74.03605442176871	64	127
73.73419501133787	74.03605442176871	52	127
73.73419501133787	74.03605442176871	59	127
73.76902494331065	74.03605442176871	71	127
73.76902494331065	74.03605442176871	76	127
74.03605442176871	74.34952380952382	67	127
74.03605442176871	74.34952380952382	55	127
74.03605442176871	74.34952380952382	79	127
74.34952380952382	74.63977324263038	71	127
74.34952380952382	74.63977324263038	83	127
74.34952380952382	74.63977324263038	59	127
74.68621315192743	75.04612244897959	67	127
74.68621315192743	75.04612244897959	60	127
74.68621315192743	75.04612244897959	48	127
74.77909297052155	75.34795918367347	88	127
74.77909297052155	75.34795918367347	76	127
74.77909297052155	75.34795918367347	64	127
74.77909297052155	75.04612244897959	55	127
74.77909297052155	75.04612244897959	67	127
74.77909297052155	75.04612244897959	76	127
75.34795918367347	75.62662131519275	72	127
75.34795918367347	75.62662131519275	84	127
75.34795918367347	75.62662131519275	60	127
75.68467120181406	76.3	81	127
75.68467120181406	76.3	69	127
75.68467120181406	76.3	57	127
76.3	76.54380952380953	65	127
76.3	76.54380952380953	77	127
76.3	76.54380952380953	53	127
76.59024943310658	76.90371882086168	64	127
76.59024943310658	76.90371882086168	64	127
76.59024943310658	76.90371882086168	59	127
76.59024943310658	76.90371882086168	55	127
76.59024943310658	76.90371882086168	52	127
76.63668934240363	76.90371882086168	71	127
76.63668934240363	76.90371882086168	76	127
76.90371882086168	77.2752380952381	79	127
76.90371882086168	77.2752380952381	67	127
76.90371882086168	77.2752380952381	55	127
77.2752380952381	77.60031746031746	71	127
77.2752380952381	77.60031746031746	83	127
77.2752380952381	77.60031746031746	59	127
89.18707482993197	92.64684807256236	65	127
89.18707482993197	92.64684807256236	53	127
92.64684807256236	93.51759637188209	64	127
92.64684807256236	93.51759637188209	52	127
93.51759637188209	94.39995464852608	51	127
93.51759637188209	94.39995464852608	63	127
94.39995464852608	95.60739229024944	50	127
94.39995464852608	95.60739229024944	62	127
95.60739229024944	95.90925170068027	63	127
95.60739229024944	95.90925170068027	51	127
95.90925170068027	96.17628117913833	53	127
95.90925170068027	96.17628117913833	65	127
96.22272108843538	96.50136054421769	67	127
96.22272108843538	96.50136054421769	55	127
96.50136054421769	96.8148299319728	50	127
96.50136054421769	96.8148299319728	62	127
96.8148299319728	97.10507936507936	63	127
96.8148299319728	97.10507936507936	51	127
97.10507936507936	98.01065759637189	65	127
97.10507936507936	98.01065759637189	53	127
98.01065759637189	98.6027664399093	63	127
98.01065759637189	98.6027664399093	51	127
98.6027664399093	98.88140589569161	53	127
98.6027664399093	98.88140589569161	65	127
98.92784580498866	99.85664399092971	55	127
98.92784580498866	99.85664399092971	67	127
99.85664399092971	101.06408163265306	69	127
99.85664399092971	101.06408163265306	57	127
101.06408163265306	101.3659410430839	67	127
101.06408163265306	101.3659410430839	55	127
101.3659410430839	101.60975056689342	57	127
101.3659410430839	101.60975056689342	69	127
101.64458049886622	101.93482993197279	70	127
101.64458049886622	101.93482993197279	58	127
101.93482993197279	102.2134693877551	53	127
101.93482993197279	102.2134693877551	65	127
102.2134693877551	102.53854875283447	67	127
102.2134693877551	102.53854875283447	55	127
102.53854875283447	103.44412698412698	57	127
102.53854875283447	103.44412698412698	69	127
103.44412698412698	104.01301587301587	67	127
103.44412698412698	104.01301587301587	55	127
104.01301587301587	104.24521541950114	69	127
104.01301587301587	104.24521541950114	57	127
104.30326530612246	104.90698412698413	70	127
104.30326530612246	104.90698412698413	58	127
104.90698412698413	105.16240362811791	60	127
104.90698412698413	105.16240362811791	72	127
105.20884353741496	106.33501133786848	74	127
105.20884353741496	106.33501133786848	62	127
106.33501133786848	106.63687074829932	72	127
106.33501133786848	106.63687074829932	60	127
106.63687074829932	106.90390022675737	74	127
106.63687074829932	106.90390022675737	62	127
106.95034013605442	107.26380952380953	76	127
106.95034013605442	107.26380952380953	64	127
107.26380952380953	107.57727891156462	74	127
107.26380952380953	107.57727891156462	62	127
107.57727891156462	107.89074829931972	76	127
107.57727891156462	107.89074829931972	64	127
107.89074829931972	108.72666666666667	77	127
107.89074829931972	108.50607709750567	77	127
107.89074829931972	108.72666666666667	65	127
108.50607709750567	109.12140589569161	87	127
109.12140589569161	109.41165532879819	86	127
109.41165532879819	109.6902947845805	82	127
109.74834467120182	110.6655328798186	81	127
110.6655328798186	111.53628117913833	79	127
111.61755102040816	112.22126984126984	77	127
112.22126984126984	112.80176870748299	87	127
112.80176870748299	113.10362811791383	86	127
113.10362811791383	113.37065759637188	82	127
113.4287074829932	114.33428571428571	81	127
114.33428571428571	115.18181405895692	79	127
115.26308390022676	115.8784126984127	79	127
115.8784126984127	116.5053514739229	90	127
116.5053514739229	116.80721088435374	89	127
116.80721088435374	117.06263038548752	85	127
117.12068027210884	118.03786848072562	82	127
118.03786848072562	118.35133786848073	80	127
118.35133786848073	118.65319727891156	82	127
118.65319727891156	118.93183673469387	83	127
118.93183673469387	119.8374149659864	61	127
118.93183673469387	119.46589569160997	85	127
118.93183673469387	119.8374149659864	73	127
119.8374149659864	120.80104308390023	60	127
119.8374149659864	120.80104308390023	72	127
120.80104308390023	121.64857142857143	59	127
120.80104308390023	121.64857142857143	71	127
121.718231292517	122.90244897959184	58	127
121.718231292517	122.90244897959184	70	127
122.90244897959184	123.21591836734694	72	127
122.90244897959184	123.21591836734694	60	127
123.21591836734694	123.47133786848073	74	127
123.21591836734694	123.47133786848073	62	127
123.51777777777778	123.80802721088435	75	127
123.51777777777778	123.80802721088435	63	127
123.80802721088435	124.1098866213152	70	127
123.80802721088435	124.1098866213152	58	127
124.1098866213152	124.36530612244898	72	127
124.1098866213152	124.36530612244898	60	127
124.42335600907029	125.34054421768707	73	127
124.42335600907029	125.34054421768707	61	127
125.34054421768707	126.23451247165534	60	127
125.34054421768707	126.23451247165534	72	127
126.23451247165534	127.0007709750567	71	127
126.23451247165534	127.0007709750567	59	127
127.08204081632653	128.01083900226757	58	127
127.08204081632653	128.01083900226757	70	127
128.01083900226757	128.3126984126984	71	127
128.01083900226757	128.3126984126984	59	127
128.3126984126984	128.60292517006803	73	127
128.3126984126984	128.60292517006803	61	127
128.60292517006803	128.86997732426303	75	127
128.60292517006803	128.86997732426303	63	127
128.91641723356008	129.2298866213152	76	127
128.91641723356008	129.2298866213152	64	127
129.2298866213152	129.5433560090703	71	127
129.2298866213152	129.5433560090703	59	127
129.5433560090703	129.8568253968254	73	127
129.5433560090703	129.8568253968254	61	127
129.8568253968254	130.46054421768707	74	127
129.8568253968254	130.69274376417235	74	127
129.8568253968254	130.69274376417235	62	127
130.46054421768707	131.06426303854875	84	127
131.06426303854875	131.36612244897958	83	127
131.36612244897958	131.63315192743764	79	127
131.69120181405896	132.60839002267574	78	127
132.60839002267574	133.43269841269841	76	127
133.51396825396824	134.14090702947846	75	127
134.14090702947846	134.69818594104308	87	127
134.69818594104308	135.00004535147391	86	127
135.00004535147391	135.24385487528346	82	127
135.3018820861678	136.2074829931973	79	127
136.2074829931973	137.0201814058957	78	127
137.10145124716553	137.71678004535147	77	127
137.71678004535147	138.37854875283446	89	127
138.37854875283446	138.6804081632653	88	127
138.6804081632653	138.93582766439908	86	127
138.9822448979592	139.8762358276644	81	127
139.8762358276644	140.6889342403628	80	127
140.7701814058957	141.4203628117914	79	127
141.4203628117914	142.00086167800453	91	127
141.71061224489796	142.5581179138322	67	127
141.71061224489796	142.5581179138322	67	127
142.00086167800453	142.29111111111112	90	127
142.29111111111112	142.5813605442177	91	127
142.62780045351474	143.42886621315193	66	127
142.62780045351474	143.42886621315193	66	127
142.62780045351474	142.91802721088436	93	127
142.91802721088436	143.19668934240363	81	127
143.19668934240363	143.45210884353742	69	127
143.51015873015874	144.33446712018142	64	127
143.51015873015874	143.81201814058957	67	127
143.51015873015874	144.33446712018142	64	127
143.81201814058957	144.1138775510204	60	127
144.1138775510204	144.35768707482993	57	127
144.40412698412698	145.59995464852608	63	127
144.40412698412698	145.59995464852608	63	127
144.40412698412698	146.2268934240363	55	127
145.64639455782313	145.9830612244898	62	127
145.64639455782313	145.9830612244898	62	127
145.9830612244898	146.29655328798185	63	127
145.9830612244898	146.29655328798185	63	127
146.29655328798185	146.58680272108845	65	127
146.29655328798185	146.43587301587303	58	127
146.29655328798185	146.58680272108845	65	127
146.43587301587303	146.58680272108845	63	127
146.58680272108845	146.877052154195	63	127
146.58680272108845	146.7261224489796	67	127
146.58680272108845	146.877052154195	63	127
146.7261224489796	146.877052154195	70	127
146.877052154195	147.01637188208616	75	127
146.877052154195	147.19052154195012	65	127
146.877052154195	147.19052154195012	65	127
147.01637188208616	147.17891156462585	79	127
147.19052154195012	147.48077097505669	91	127
147.19052154195012	148.04965986394558	67	127
147.19052154195012	148.04965986394558	67	127
147.48077097505669	147.82907029478457	90	127
147.82907029478457	148.13090702947846	91	127
148.13090702947846	148.421179138322	93	127
148.13090702947846	148.94362811791385	66	127
148.13090702947846	148.94362811791385	66	127
148.421179138322	148.72303854875284	81	127
148.72303854875284	148.96684807256236	69	127
149.02489795918368	149.3267573696145	67	127
149.02489795918368	149.86081632653062	64	127
149.02489795918368	149.86081632653062	64	127
149.3267573696145	149.64022675736962	60	127
149.64022675736962	149.88403628117914	57	127
149.93047619047618	150.7780045351474	63	127
149.93047619047618	150.7780045351474	63	127
149.93047619047618	151.70678004535148	55	127
150.85927437641723	151.16113378684807	62	127
150.85927437641723	151.16113378684807	62	127
151.16113378684807	151.4629931972789	63	127
151.16113378684807	151.4629931972789	63	127
151.4629931972789	151.73002267573696	65	127
151.4629931972789	151.73002267573696	65	127
151.78807256235828	151.9390022675737	58	127
151.78807256235828	152.08993197278912	67	127
151.78807256235828	152.08993197278912	67	127
151.9390022675737	152.08993197278912	63	127
152.08993197278912	152.24086167800453	67	127
152.08993197278912	152.38018140589568	65	127
152.08993197278912	152.38018140589568	65	127
152.24086167800453	152.38018140589568	70	127
152.38018140589568	152.61238095238096	67	127
152.38018140589568	152.61238095238096	67	127
152.38018140589568	152.51950113378686	75	127
152.51950113378686	152.658820861678	79	127
152.658820861678	153.4831292517007	69	127
152.658820861678	152.9142403628118	91	127
152.658820861678	153.4831292517007	69	127
152.96068027210885	153.2509297052154	81	127
153.2509297052154	153.5760090702948	79	127
153.5760090702948	154.4815873015873	70	127
153.5760090702948	153.9126984126984	70	127
153.5760090702948	154.2261678004535	78	127
153.9126984126984	154.2261678004535	68	127
154.2261678004535	154.55124716553289	75	127
154.2261678004535	154.55124716553289	66	127
154.55124716553289	154.91115646258504	66	127
154.55124716553289	155.2014058956916	65	127
154.55124716553289	155.2014058956916	77	127
154.91115646258504	155.2014058956916	68	127
155.2014058956916	155.4568253968254	70	127
155.2014058956916	155.4568253968254	63	127
155.2014058956916	155.4568253968254	78	127
155.53809523809525	156.13020408163266	62	127
155.53809523809525	156.4320634920635	72	127
155.53809523809525	157.01256235827665	77	127
156.13020408163266	156.4320634920635	53	127
156.4320634920635	156.72231292517006	58	127
156.4320634920635	158.09229024943312	74	127
156.72231292517006	157.01256235827665	60	127
157.01256235827665	157.2447619047619	62	127
157.01256235827665	157.2447619047619	86	127
157.30281179138322	157.5930612244898	63	127
157.30281179138322	157.88331065759638	84	127
157.5930612244898	157.88331065759638	65	127
157.88331065759638	158.11551020408163	82	127
157.88331065759638	158.11551020408163	67	127
158.17356009070295	158.80049886621316	81	127
158.17356009070295	159.0326984126984	69	127
158.17356009070295	159.0326984126984	69	127
158.80049886621316	159.102358276644	79	127
159.102358276644	159.6828344671202	78	127
159.102358276644	159.4158276643991	70	127
159.102358276644	159.90344671201814	70	127
159.4158276643991	159.6828344671202	68	127
159.6828344671202	159.96149659863946	75	127
159.6828344671202	159.96149659863946	66	127
159.96149659863946	160.21691609977324	66	127
159.96149659863946	160.4839455782313	77	127
159.96149659863946	160.4839455782313	65	127
160.21691609977324	160.4839455782313	68	127
160.4839455782313	160.7393650793651	70	127
160.4839455782313	160.7393650793651	63	127
160.4839455782313	160.7393650793651	78	127
160.78580498866214	161.69138321995464	72	127
160.78580498866214	162.28349206349208	77	127
160.78580498866214	161.40113378684808	62	127
161.40113378684808	161.99324263038548	53	127
161.69138321995464	163.39804988662132	74	127
161.99324263038548	162.28349206349208	58	127
162.28349206349208	162.5853514739229	60	127
162.28349206349208	162.53891156462586	86	127
162.5853514739229	162.87560090702948	62	127
162.5853514739229	163.16585034013605	84	127
162.87560090702948	163.16585034013605	63	127
163.16585034013605	163.42126984126983	82	127
163.16585034013605	163.42126984126983	65	127
163.46768707482994	164.11786848072563	62	127
163.46768707482994	164.4081179138322	72	127
163.46768707482994	165.00020408163266	77	127
164.11786848072563	164.69836734693877	53	127
164.4081179138322	166.1031746031746	74	127
164.69836734693877	165.00020408163266	58	127
165.00020408163266	165.2904761904762	60	127
165.00020408163266	165.24403628117915	86	127
165.2904761904762	165.59233560090703	62	127
165.2904761904762	165.89419501133787	84	127
165.59233560090703	165.89419501133787	63	127
165.89419501133787	166.12639455782312	82	127
165.89419501133787	166.12639455782312	65	127
166.18444444444444	166.77655328798187	77	127
166.18444444444444	166.77655328798187	62	127
166.18444444444444	167.06680272108844	72	127
166.77655328798187	168.48321995464852	53	127
166.77655328798187	167.0203628117914	74	127
167.06680272108844	167.6473015873016	72	127
167.06680272108844	167.86789115646258	74	127
167.6473015873016	167.89111111111112	70	127
167.93755102040816	168.5528798185941	72	127
167.93755102040816	168.85473922902494	65	127
168.5528798185941	168.85473922902494	62	127
168.5528798185941	168.8082993197279	70	127
168.85473922902494	169.47006802721089	65	127
168.85473922902494	169.4004081632653	60	127
168.85473922902494	170.53818594104308	62	127
169.47006802721089	169.76031746031745	58	127
169.47006802721089	169.7138775510204	62	127
169.76031746031745	170.32920634920634	60	127
169.76031746031745	170.60784580498867	53	127
170.32920634920634	170.56140589569162	58	127
170.60784580498867	171.37410430839003	50	127
170.60784580498867	171.15351473922902	60	127
170.60784580498867	171.37410430839003	53	127
171.15351473922902	171.39732426303854	58	127
171.4437641723356	176.51732426303855	53	127
171.4437641723356	176.51732426303855	50	127
171.4437641723356	176.51732426303855	58	127
176.55213151927438	179.29210884353742	58	127
179.29210884353742	179.3965986394558	60	127
179.3965986394558	179.4894784580499	62	127
179.4894784580499	179.66362811791385	64	127
179.4894784580499	181.06843537414966	64	127
181.06843537414966	181.17292517006803	62	127
181.17292517006803	181.26580498866213	60	127
181.2774149659864	181.41673469387754	58	127
181.2774149659864	182.63575963718822	58	127
182.63575963718822	182.7518820861678	60	127
182.7518820861678	182.85637188208617	62	127
182.85637188208617	182.94925170068026	64	127
182.94925170068026	183.05374149659863	65	127
183.05374149659863	184.40049886621316	67	127
183.05374149659863	183.1930612244898	67	127
184.40049886621316	184.49337868480725	65	127
184.49337868480725	184.58625850340135	64	127
184.58625850340135	184.69074829931972	62	127
184.69074829931972	184.78360544217688	60	127
184.78360544217688	184.9345351473923	58	127
184.78360544217688	185.66598639455782	58	127
185.66598639455782	185.7704761904762	60	127
185.7704761904762	185.8633560090703	62	127
185.8633560090703	185.96784580498866	64	127
185.96784580498866	186.07233560090702	65	127
186.07233560090702	186.16521541950112	67	127
186.16521541950112	186.24648526077098	69	127
186.25809523809525	187.25655328798186	70	127
186.25809523809525	187.25655328798186	70	127
187.26816326530613	187.43070294784582	69	127
187.43070294784582	187.58163265306123	67	127
187.58163265306123	187.74414965986395	65	127
187.74414965986395	187.9647619047619	64	127
187.9647619047619	188.04603174603176	62	127
188.04603174603176	188.20854875283447	62	127
188.20854875283447	188.3711111111111	60	127
188.3711111111111	188.52204081632652	58	127
188.52204081632652	188.6845804988662	57	127
188.6845804988662	188.94	55	127
188.94	189.0096598639456	53	127
189.0096598639456	189.4740589569161	53	127
189.4740589569161	189.601768707483	52	127
189.601768707483	189.85718820861678	62	127
189.90362811791383	190.20548752834466	64	127
189.90362811791383	190.35641723356008	60	127
190.20548752834466	190.4492970521542	65	127
190.35641723356008	190.53056689342404	58	127
190.5421768707483	190.7975963718821	70	127
190.5421768707483	190.7975963718821	53	127
190.84403628117914	191.1691156462585	72	127
190.84403628117914	191.34326530612245	56	127
191.1691156462585	191.52902494331065	73	127
191.34326530612245	191.5174149659864	55	127
191.52902494331065	191.76122448979592	65	127
191.52902494331065	191.76122448979592	65	127
191.80766439909297	192.1095238095238	67	127
191.80766439909297	192.26045351473923	63	127
192.1095238095238	192.38816326530613	68	127
192.26045351473923	192.43460317460318	61	127
192.43460317460318	192.69002267573697	73	127
192.43460317460318	192.69002267573697	56	127
192.73646258503402	192.957052154195	75	127
192.73646258503402	193.14281179138322	59	127
193.00349206349208	193.29374149659864	76	127
193.14281179138322	193.29374149659864	58	127
193.29374149659864	193.53755102040816	68	127
193.29374149659864	193.53755102040816	68	127
193.60721088435375	193.89746031746031	70	127
193.60721088435375	194.04839002267573	66	127
193.89746031746031	194.1528798185941	71	127
194.04839002267573	194.19931972789115	63	127
194.19931972789115	194.45473922902494	76	127
194.19931972789115	194.45473922902494	68	127
194.501179138322	194.88430839002268	59	127
194.501179138322	194.98879818594105	80	127
194.88430839002268	195.1977777777778	52	127
194.98879818594105	195.10489795918366	78	127
195.10489795918366	195.1977777777778	76	127
195.1977777777778	195.45319727891157	59	127
195.1977777777778	195.95242630385488	76	127
195.49963718820862	195.77827664399092	60	127
195.77827664399092	196.04530612244898	62	127
195.95242630385488	196.04530612244898	74	127
196.04530612244898	196.14979591836735	72	127
196.04530612244898	196.30072562358276	64	127
196.14979591836735	196.25428571428571	71	127
196.25428571428571	196.3471655328798	69	127
196.3471655328798	196.75351473922902	65	127
196.3471655328798	197.14825396825398	69	127
196.75351473922902	196.84639455782312	64	127
196.84639455782312	196.93927437641725	62	127
196.9508843537415	197.49655328798187	62	127
197.14825396825398	197.2295238095238	67	127
197.2295238095238	197.33401360544218	65	127
197.33401360544218	197.43850340136055	64	127
197.43850340136055	197.54299319727892	62	127
197.54299319727892	200.7473469387755	62	127
197.54299319727892	197.6474829931973	60	127
197.6474829931973	197.72875283446712	58	127
197.72875283446712	197.82163265306122	57	127
197.83324263038548	198.3673015873016	57	127
198.3673015873016	198.4601814058957	55	127
198.4601814058957	198.54145124716553	53	127
198.54145124716553	198.63433106575962	52	127
198.63433106575962	198.72721088435375	50	127
198.72721088435375	200.7473469387755	50	127
201.74580498866214	202.74426303854875	70	127
202.74426303854875	202.84875283446712	72	127
202.84875283446712	202.9532426303855	74	127
202.9532426303855	204.49736961451248	64	127
202.9532426303855	203.34798185941042	76	127
204.49736961451248	204.59024943310658	62	127
204.59024943310658	204.70634920634922	60	127
204.70634920634922	204.85727891156463	58	127
204.70634920634922	206.07632653061225	70	127
206.07632653061225	206.18081632653062	72	127
206.18081632653062	206.29691609977326	74	127
206.29691609977326	206.41301587301587	76	127
206.41301587301587	206.50589569160996	77	127
206.50589569160996	207.87587301587303	67	127
206.50589569160996	206.91224489795917	79	127
207.87587301587303	207.9803628117914	65	127
207.9803628117914	208.0732426303855	64	127
208.0732426303855	208.17773242630386	62	127
208.17773242630386	208.28222222222223	60	127
208.28222222222223	208.4099319727891	58	127
208.28222222222223	209.09492063492064	70	127
209.15297052154196	209.24585034013606	72	127
209.24585034013606	209.35034013605443	74	127
209.35034013605443	209.43160997732426	76	127
209.43160997732426	209.53609977324263	77	127
209.53609977324263	209.640589569161	79	127
209.640589569161	209.7334693877551	81	127
209.7334693877551	210.7667573696145	70	127
209.7334693877551	210.7667573696145	82	127
210.7667573696145	210.91768707482993	81	127
210.7667573696145	210.91768707482993	69	127
210.91768707482993	211.08022675736962	79	127
210.91768707482993	211.08022675736962	67	127
211.08022675736962	211.23115646258503	78	127
211.08022675736962	211.23115646258503	66	127
211.23115646258503	211.45174603174604	76	127
211.23115646258503	211.45174603174604	64	127
211.45174603174604	211.5214058956916	62	127
211.45174603174604	211.5214058956916	74	127
211.5214058956916	211.66072562358278	74	127
211.5214058956916	212.69401360544217	62	127
211.66072562358278	211.82326530612244	73	127
211.82326530612244	211.95097505668934	71	127
211.95097505668934	212.10190476190476	69	127
212.10190476190476	212.35732426303855	67	127
212.35732426303855	212.42698412698414	66	127
212.43859410430838	212.74045351473922	66	127
212.74045351473922	213.07714285714286	56	127
212.74045351473922	212.91460317460317	64	127
212.91460317460317	213.07714285714286	66	127
213.07714285714286	213.34417233560092	62	127
213.07714285714286	213.64603174603175	68	127
213.41383219954648	213.84340136054422	63	127
213.6924716553288	213.9711111111111	63	127
213.84340136054422	213.9711111111111	61	127
213.9711111111111	214.24975056689343	65	127
213.9711111111111	214.24975056689343	56	127
214.29619047619047	214.5980498866213	62	127
214.29619047619047	214.5980498866213	66	127
214.5980498866213	214.91151927437642	56	127
214.5980498866213	214.74897959183673	64	127
214.74897959183673	214.91151927437642	66	127
214.91151927437642	215.50362811791382	68	127
214.91151927437642	215.21337868480725	62	127
215.2598185941043	215.72421768707483	63	127
215.58489795918368	215.87514739229024	65	127
215.72421768707483	215.87514739229024	61	127
215.87514739229024	216.13056689342403	66	127
215.87514739229024	216.13056689342403	56	127
216.17700680272108	216.4904761904762	68	127
216.17700680272108	216.4904761904762	64	127
216.4904761904762	216.7691156462585	58	127
216.4904761904762	216.62979591836734	66	127
216.62979591836734	216.7691156462585	68	127
216.7691156462585	217.01292517006803	64	127
216.7691156462585	217.31478458049887	70	127
217.05936507936508	217.50054421768706	65	127
217.36122448979592	217.63986394557824	67	127
217.50054421768706	217.63986394557824	63	127
217.63986394557824	217.90689342403627	68	127
217.63986394557824	217.90689342403627	58	127
217.95333333333335	218.25519274376418	70	127
217.95333333333335	218.25519274376418	66	127
218.25519274376418	218.4061224489796	68	127
218.25519274376418	218.55705215419502	60	127
218.4061224489796	218.55705215419502	70	127
218.55705215419502	219.11433106575964	72	127
218.55705215419502	218.82408163265305	66	127
218.87052154195013	219.30009070294784	67	127
219.1607709750567	219.439410430839	45	127
219.1607709750567	219.439410430839	77	127
219.30009070294784	219.439410430839	65	127
219.439410430839	219.72965986394559	79	127
219.439410430839	219.72965986394559	60	127
219.439410430839	219.72965986394559	46	127
219.7877097505669	220.08956916099774	53	127
219.7877097505669	220.08956916099774	48	127
219.7877097505669	220.4726984126984	81	127
220.08956916099774	220.36820861678004	57	127
220.08956916099774	220.2288888888889	47	127
220.2288888888889	220.36820861678004	48	127
220.36820861678004	220.9719274376417	50	127
220.36820861678004	220.68167800453514	60	127
220.4726984126984	220.57718820861678	79	127
220.57718820861678	220.67006802721087	77	127
220.68167800453514	220.9719274376417	65	127
220.68167800453514	221.21573696145126	77	127
220.9719274376417	221.23895691609977	69	127
220.9719274376417	221.23895691609977	48	127
221.28539682539682	221.5408163265306	72	127
221.28539682539682	221.5408163265306	50	127
221.28539682539682	222.37673469387755	72	127
221.58725623582765	221.88911564625852	57	127
221.58725623582765	221.88911564625852	51	127
221.88911564625852	222.02843537414967	53	127
221.88911564625852	222.17936507936508	60	127
222.02843537414967	222.17936507936508	55	127
222.17936507936508	222.70181405895693	65	127
222.17936507936508	222.48122448979592	57	127
222.37673469387755	222.48122448979592	70	127
222.48122448979592	222.56249433106575	69	127
222.48122448979592	222.75986394557822	58	127
222.56249433106575	222.65537414965988	67	127
222.65537414965988	222.74825396825398	65	127
222.75986394557822	223.00367346938776	60	127
222.75986394557822	223.0501133786848	69	127
222.75986394557822	223.28231292517006	65	127
223.0501133786848	223.3055328798186	81	127
223.0501133786848	223.3055328798186	48	127
223.35197278911565	223.65383219954649	52	127
223.35197278911565	223.65383219954649	50	127
223.35197278911565	224.0601814058957	80	127
223.65383219954649	223.9673015873016	56	127
223.65383219954649	223.8047619047619	46	127
223.8047619047619	223.9673015873016	47	127
223.9673015873016	224.25755102040816	59	127
223.9673015873016	224.58263038548753	49	127
224.0601814058957	224.16467120181406	78	127
224.16467120181406	224.25755102040816	76	127
224.25755102040816	224.81482993197278	76	127
224.25755102040816	224.58263038548753	64	127
224.58263038548753	224.82643990929705	68	127
224.58263038548753	224.82643990929705	47	127
224.88448979591837	225.05863945578233	71	127
224.88448979591837	225.05863945578233	49	127
224.88448979591837	225.89455782312925	71	127
225.10507936507938	225.4069387755102	50	127
225.10507936507938	225.4069387755102	56	127
225.4069387755102	225.55786848072563	52	127
225.4069387755102	225.70879818594105	59	127
225.55786848072563	225.70879818594105	54	127
225.70879818594105	225.98743764172335	56	127
225.70879818594105	226.2312471655329	64	127
225.89455782312925	225.9758276643991	69	127
225.98743764172335	226.08031746031747	68	127
225.98743764172335	226.27768707482994	57	127
226.08031746031747	226.1848072562358	66	127
226.1848072562358	226.27768707482994	64	127
226.27768707482994	226.8233560090703	64	127
226.27768707482994	226.54471655328797	59	127
226.27768707482994	226.59115646258505	68	127
226.59115646258505	226.84657596371883	80	127
226.59115646258505	226.84657596371883	47	127
226.90462585034012	227.20648526077096	49	127
226.90462585034012	227.20648526077096	51	127
226.90462585034012	227.6128344671202	79	127
227.20648526077096	227.3574149659864	44	127
227.20648526077096	227.50834467120183	55	127
227.3574149659864	227.50834467120183	46	127
227.50834467120183	227.81020408163266	58	127
227.50834467120183	228.1120634920635	48	127
227.6128344671202	227.7057142857143	77	127
227.7057142857143	227.81020408163266	75	127
227.81020408163266	228.1120634920635	63	127
227.81020408163266	228.32104308390024	75	127
228.1120634920635	228.34426303854875	67	127
228.1120634920635	228.34426303854875	46	127
228.3907029478458	228.63451247165534	70	127
228.3907029478458	229.47043083900226	70	127
228.3907029478458	228.63451247165534	48	127
228.6809523809524	228.97120181405896	49	127
228.6809523809524	228.97120181405896	55	127
228.97120181405896	229.12213151927438	51	127
228.97120181405896	229.26145124716552	58	127
229.12213151927438	229.26145124716552	53	127
229.26145124716552	229.56331065759636	55	127
229.26145124716552	229.8651700680272	63	127
229.47043083900226	229.56331065759636	68	127
229.56331065759636	229.8651700680272	56	127
229.56331065759636	229.6561904761905	67	127
229.6561904761905	229.76068027210886	65	127
229.76068027210886	229.8651700680272	63	127
229.8651700680272	230.10897959183674	63	127
229.8651700680272	230.10897959183674	58	127
229.8651700680272	230.37600907029477	67	127
230.14380952380952	230.97972789115647	60	127
230.14380952380952	230.79396825396825	51	127
230.4688888888889	230.79396825396825	56	127
230.79396825396825	231.1306575963719	56	127
230.79396825396825	231.1306575963719	53	127
230.97972789115647	231.1306575963719	58	127
231.1306575963719	231.71115646258502	55	127
231.1306575963719	231.36285714285714	63	127
231.1306575963719	231.89691609977325	58	127
231.42090702947846	231.71115646258502	64	127
231.71115646258502	232.0362358276644	65	127
231.71115646258502	232.09428571428572	53	127
231.89691609977325	232.09428571428572	56	127
232.09428571428572	232.32648526077097	56	127
232.09428571428572	232.32648526077097	60	127
232.09428571428572	232.8257142857143	63	127
232.37292517006802	232.67478458049888	59	127
232.37292517006802	232.67478458049888	55	127
232.67478458049888	232.96503401360545	57	127
232.67478458049888	232.96503401360545	60	127
232.8257142857143	232.96503401360545	62	127
232.96503401360545	233.53392290249434	67	127
232.96503401360545	233.1972335600907	59	127
232.96503401360545	233.1972335600907	62	127
233.255283446712	233.53392290249434	58	127
233.255283446712	233.66163265306122	61	127
233.53392290249434	233.81256235827664	56	127
233.53392290249434	233.81256235827664	68	127
233.66163265306122	233.81256235827664	60	127
233.81256235827664	234.05637188208615	63	127
233.81256235827664	234.05637188208615	60	127
233.81256235827664	233.96349206349205	63	127
233.96349206349205	234.12603174603174	68	127
234.137641723356	235.10126984126984	61	127
234.137641723356	234.47433106575963	63	127
234.137641723356	234.63687074829932	72	127
234.47433106575963	234.78780045351473	65	127
234.63687074829932	234.78780045351473	70	127
234.78780045351473	235.60049886621314	67	127
234.78780045351473	235.0548299319728	75	127
235.10126984126984	235.44956916099773	60	127
235.10126984126984	235.44956916099773	76	127
235.44956916099773	235.75142857142856	56	127
235.44956916099773	235.7049886621315	77	127
235.60049886621314	235.75142857142856	65	127
235.75142857142856	236.4944671201814	75	127
235.75142857142856	236.00684807256235	60	127
235.75142857142856	236.00684807256235	68	127
236.0532879818594	236.35514739229026	59	127
236.0532879818594	236.35514739229026	67	127
236.35514739229026	236.63378684807256	69	127
236.35514739229026	236.63378684807256	60	127
236.4944671201814	236.63378684807256	74	127
236.63378684807256	236.86598639455784	71	127
236.63378684807256	236.86598639455784	62	127
236.63378684807256	237.22589569160996	79	127
236.92403628117913	237.22589569160996	70	127
236.92403628117913	237.3768253968254	61	127
237.22589569160996	237.4697052154195	80	127
237.22589569160996	237.52775510204083	68	127
237.3768253968254	237.51614512471656	60	127
237.52775510204083	237.78317460317461	63	127
237.52775510204083	238.0966439909297	72	127
237.52775510204083	238.24757369614514	67	127
237.8180045351474	238.0966439909297	57	127
238.0966439909297	238.4101133786848	58	127
238.0966439909297	238.4101133786848	74	127
238.24757369614514	238.39850340136056	66	127
238.4101133786848	239.16476190476192	60	127
238.4101133786848	238.66553287981858	69	127
238.4101133786848	238.66553287981858	75	127
238.71197278911563	239.0138321995465	67	127
238.71197278911563	239.0138321995465	76	127
239.0138321995465	239.31569160997734	69	127
239.0138321995465	239.31569160997734	78	127
239.16476190476192	239.31569160997734	58	127
239.31569160997734	239.55950113378685	79	127
239.31569160997734	239.55950113378685	70	127
239.31569160997734	239.55950113378685	62	127
239.61755102040817	239.90780045351474	81	127
239.61755102040817	239.90780045351474	61	127
239.61755102040817	240.05873015873016	69	127
239.90780045351474	240.20965986394557	82	127
239.90780045351474	240.20965986394557	62	127
240.05873015873016	240.20965986394557	67	127
240.20965986394557	240.49990929705214	74	127
240.20965986394557	240.49990929705214	65	127
240.20965986394557	240.7669387755102	70	127
240.49990929705214	240.7669387755102	77	127
240.49990929705214	240.8946485260771	62	127
240.7669387755102	241.0571882086168	79	127
240.7669387755102	241.0571882086168	69	127
240.8946485260771	241.0571882086168	61	127
241.0571882086168	241.32421768707482	67	127
241.0571882086168	241.32421768707482	64	127
241.0571882086168	241.32421768707482	73	127
241.37065759637187	241.95115646258503	65	127
241.37065759637187	241.67251700680274	57	127
241.37065759637187	241.80022675736961	74	127
241.67251700680274	241.95115646258503	55	127
241.80022675736961	241.95115646258503	75	127
241.95115646258503	242.2414058956916	67	127
241.95115646258503	242.2414058956916	63	127
241.95115646258503	242.2414058956916	58	127
242.2414058956916	242.52004535147393	55	127
242.2414058956916	242.52004535147393	63	127
242.2414058956916	242.52004535147393	58	127
242.52004535147393	242.6825850340136	60	127
242.52004535147393	242.83351473922903	65	127
242.52004535147393	242.83351473922903	57	127
242.6825850340136	242.83351473922903	62	127
242.83351473922903	243.07732426303855	67	127
242.83351473922903	243.07732426303855	63	127
242.83351473922903	243.07732426303855	58	127
243.13537414965987	243.7507029478458	67	127
243.13537414965987	243.57655328798185	76	127
243.13537414965987	243.4372335600907	59	127
243.4372335600907	243.7507029478458	57	127
243.57655328798185	243.7507029478458	77	127
243.7507029478458	244.04095238095238	69	127
243.7507029478458	244.04095238095238	60	127
243.7507029478458	244.04095238095238	65	127
244.04095238095238	244.30798185941043	65	127
244.04095238095238	244.30798185941043	60	127
244.04095238095238	244.30798185941043	57	127
244.30798185941043	244.44730158730158	62	127
244.30798185941043	244.58662131519273	67	127
244.30798185941043	244.58662131519273	59	127
244.44730158730158	244.58662131519273	64	127
244.58662131519273	244.83043083900228	65	127
244.58662131519273	244.83043083900228	69	127
244.58662131519273	244.83043083900228	60	127
244.8884807256236	245.46897959183673	69	127
244.8884807256236	245.32965986394558	78	127
244.8884807256236	245.17873015873016	61	127
245.17873015873016	245.46897959183673	59	127
245.32965986394558	245.46897959183673	79	127
245.46897959183673	245.75922902494332	67	127
245.46897959183673	245.75922902494332	71	127
245.46897959183673	245.75922902494332	62	127
245.75922902494332	246.02625850340135	67	127
245.75922902494332	246.02625850340135	62	127
245.75922902494332	246.02625850340135	59	127
246.02625850340135	246.30489795918368	69	127
246.02625850340135	246.30489795918368	61	127
246.02625850340135	246.15396825396826	64	127
246.15396825396826	246.30489795918368	66	127
246.30489795918368	246.85056689342403	67	127
246.30489795918368	246.5487074829932	71	127
246.30489795918368	246.5487074829932	62	127
246.6067573696145	246.89700680272108	73	127
246.6067573696145	246.89700680272108	64	127
246.89700680272108	247.14081632653063	74	127
246.89700680272108	247.00149659863945	66	127
246.89700680272108	247.14081632653063	62	127
247.00149659863945	247.14081632653063	67	127
247.14081632653063	247.7097052154195	69	127
247.14081632653063	247.40784580498865	76	127
247.14081632653063	247.40784580498865	61	127
247.40784580498865	247.7097052154195	78	127
247.40784580498865	247.7097052154195	60	127
247.7097052154195	247.87224489795918	62	127
247.7097052154195	248.0231746031746	79	127
247.7097052154195	248.0231746031746	58	127
247.87224489795918	248.0231746031746	64	127
248.0231746031746	248.27859410430838	81	127
248.0231746031746	248.27859410430838	66	127
248.0231746031746	248.27859410430838	60	127
248.32503401360543	248.76621315192745	82	127
248.32503401360543	248.56884353741498	63	127
248.32503401360543	248.56884353741498	67	127
248.32503401360543	248.62689342403627	67	127
248.32503401360543	248.62689342403627	75	127
248.32503401360543	248.76621315192745	70	127
248.32503401360543	248.76621315192745	58	127
248.76621315192745	248.9055328798186	84	127
248.76621315192745	248.9055328798186	72	127
248.76621315192745	248.9055328798186	60	127
248.9055328798186	249.17256235827665	82	127
248.9055328798186	249.17256235827665	70	127
248.9055328798186	249.17256235827665	58	127
250.1245804988662	250.5309297052154	58	127
250.1245804988662	250.35678004535148	63	127
250.1245804988662	250.5309297052154	82	127
250.1245804988662	250.5309297052154	70	127
250.1245804988662	250.39160997732426	75	127
250.1245804988662	250.39160997732426	51	127
250.5309297052154	250.67024943310656	83	127
250.5309297052154	250.67024943310656	71	127
250.5309297052154	250.67024943310656	59	127
250.68185941043083	250.89083900226757	82	127
250.68185941043083	250.89083900226757	70	127
250.68185941043083	250.89083900226757	58	127
251.78480725623584	252.21437641723355	61	127
251.78480725623584	252.02861678004535	69	127
251.78480725623584	252.02861678004535	57	127
251.78480725623584	252.02861678004535	66	127
251.78480725623584	252.21437641723355	85	127
251.78480725623584	252.21437641723355	73	127
252.21437641723355	252.36530612244897	62	127
252.21437641723355	252.36530612244897	86	127
252.21437641723355	252.36530612244897	74	127
252.36530612244897	252.60911564625852	73	127
252.36530612244897	252.60911564625852	61	127
252.36530612244897	252.60911564625852	85	127
253.46825396825398	253.87460317460318	74	127
253.46825396825398	253.73528344671203	50	127
253.46825396825398	253.87460317460318	86	127
253.46825396825398	253.87460317460318	62	127
253.46825396825398	253.73528344671203	74	127
253.46825396825398	253.73528344671203	62	127
253.87460317460318	254.0255328798186	75	127
253.87460317460318	254.0255328798186	87	127
253.87460317460318	254.0255328798186	63	127
254.0255328798186	254.28095238095239	86	127
254.0255328798186	254.28095238095239	74	127
254.0255328798186	254.28095238095239	62	127
254.32739229024943	254.73374149659864	78	127
254.32739229024943	254.73374149659864	66	127
254.32739229024943	254.73374149659864	66	127
254.32739229024943	254.60603174603173	66	127
254.32739229024943	254.60603174603173	54	127
254.73374149659864	254.8730612244898	74	127
254.73374149659864	254.8730612244898	62	127
254.73374149659864	254.8730612244898	62	127
254.8730612244898	255.12848072562358	66	127
254.8730612244898	255.12848072562358	78	127
254.8730612244898	255.12848072562358	66	127
255.17492063492062	255.47678004535146	62	127
255.17492063492062	255.58126984126983	74	127
255.17492063492062	255.58126984126983	62	127
255.17492063492062	255.58126984126983	62	127
255.58126984126983	255.70897959183674	75	127
255.58126984126983	255.70897959183674	63	127
255.58126984126983	255.70897959183674	63	127
255.70897959183674	255.96439909297052	74	127
255.70897959183674	255.96439909297052	62	127
255.70897959183674	255.96439909297052	62	127
256.0108390022676	256.42879818594105	66	127
256.0108390022676	256.42879818594105	54	127
256.0108390022676	256.42879818594105	54	127
256.42879818594105	256.5681179138322	62	127
256.42879818594105	256.5681179138322	50	127
256.42879818594105	256.5681179138322	50	127
256.5797052154195	256.80031746031744	66	127
256.5797052154195	256.80031746031744	54	127
256.5797052154195	256.80031746031744	54	127
256.8467573696145	257.2531065759637	62	127
256.8467573696145	257.2531065759637	62	127
256.8467573696145	257.2531065759637	50	127
257.2531065759637	257.3924036281179	63	127
257.2531065759637	257.3924036281179	63	127
257.2531065759637	257.3924036281179	51	127
257.4040136054422	257.83360544217686	50	127
257.4040136054422	257.83360544217686	62	127
257.4040136054422	257.83360544217686	62	127
257.83360544217686	257.97292517006804	51	127
257.83360544217686	257.97292517006804	63	127
257.83360544217686	257.97292517006804	63	127
257.9845351473923	258.41408163265305	48	127
257.9845351473923	258.41408163265305	60	127
257.9845351473923	258.41408163265305	60	127
258.41408163265305	258.56503401360544	62	127
258.41408163265305	258.56503401360544	62	127
258.41408163265305	258.56503401360544	50	127
258.56503401360544	258.9365306122449	58	127
258.56503401360544	258.9365306122449	58	127
258.56503401360544	258.9365306122449	46	127
258.9365306122449	259.09909297052155	60	127
258.9365306122449	259.09909297052155	60	127
258.9365306122449	259.09909297052155	48	127
259.09909297052155	259.5751020408163	58	127
259.09909297052155	259.5751020408163	58	127
259.09909297052155	259.5751020408163	46	127
259.5751020408163	259.7608616780045	60	127
259.5751020408163	259.7608616780045	60	127
259.5751020408163	259.7608616780045	48	127
259.7608616780045	260.32975056689344	57	127
259.7608616780045	260.32975056689344	57	127
259.7608616780045	260.32975056689344	45	127
260.32975056689344	260.5619274376417	58	127
260.32975056689344	260.5619274376417	58	127
260.32975056689344	260.5619274376417	46	127
260.5619274376417	260.8753968253968	43	127
260.5619274376417	261.7577777777778	55	127
260.5619274376417	261.7577777777778	55	127
261.7577777777778	261.8506575963719	57	127
261.7577777777778	261.8506575963719	57	127
261.8506575963719	261.95514739229026	58	127
261.8506575963719	261.95514739229026	58	127
261.95514739229026	262.8491156462585	58	127
261.95514739229026	262.8491156462585	58	127
262.8491156462585	263.68503401360545	55	127
262.8491156462585	263.68503401360545	55	127
263.68503401360545	263.77791383219954	57	127
263.68503401360545	263.77791383219954	57	127
263.77791383219954	263.87079365079364	58	127
263.77791383219954	263.87079365079364	58	127
263.87079365079364	263.96367346938774	60	127
263.87079365079364	263.96367346938774	60	127
263.96367346938774	264.0681632653061	62	127
263.96367346938774	264.0681632653061	62	127
264.0681632653061	264.3351927437642	62	127
264.0681632653061	264.3351927437642	62	127
264.40485260770976	264.6022222222222	58	127
264.40485260770976	264.6022222222222	58	127
264.6022222222222	264.7067120181406	60	127
264.6022222222222	264.7067120181406	60	127
264.7067120181406	264.8344217687075	62	127
264.7067120181406	264.8344217687075	62	127
264.8344217687075	264.9273015873016	63	127
264.8344217687075	264.9273015873016	63	127
264.9273015873016	265.0201814058957	65	127
264.9273015873016	265.0201814058957	65	127
265.0201814058957	265.08984126984126	65	127
265.0201814058957	265.08984126984126	65	127
265.08984126984126	265.18272108843536	67	127
265.08984126984126	265.18272108843536	67	127
265.18272108843536	265.2755782312925	68	127
265.18272108843536	265.2755782312925	68	127
265.2872108843537	266.401768707483	68	127
265.2872108843537	266.401768707483	68	127
266.41337868480724	266.57591836734696	67	127
266.41337868480724	266.57591836734696	67	127
266.57591836734696	266.7152380952381	65	127
266.57591836734696	266.7152380952381	65	127
266.7152380952381	266.88938775510206	63	127
266.7152380952381	266.88938775510206	63	127
266.88938775510206	267.13319727891155	62	127
266.88938775510206	267.13319727891155	62	127
267.1448072562358	267.21444444444444	62	127
267.1448072562358	267.21444444444444	62	127
267.21444444444444	267.40022675736964	62	127
267.21444444444444	267.40022675736964	62	127
267.21444444444444	267.49310657596374	62	127
267.40022675736964	267.53954648526076	60	127
267.40022675736964	267.53954648526076	60	127
267.53954648526076	267.6904761904762	58	127
267.53954648526076	267.6904761904762	58	127
267.6904761904762	267.8297732426304	57	127
267.6904761904762	267.8297732426304	57	127
267.8297732426304	268.08521541950114	55	127
267.8297732426304	268.08521541950114	55	127
268.0968253968254	268.17809523809524	55	127
268.0968253968254	268.17809523809524	55	127
268.17809523809524	268.6424716553288	55	127
268.17809523809524	268.6424716553288	55	127
268.6424716553288	268.7818140589569	53	127
268.6424716553288	268.7818140589569	53	127
268.7934240362812	269.02562358276646	58	127
268.7934240362812	269.02562358276646	58	127
269.08367346938775	269.5712925170068	57	127
269.08367346938775	269.5712925170068	57	127
269.5712925170068	269.72222222222223	55	127
269.5712925170068	269.72222222222223	55	127
269.7338321995465	270.0124716553288	51	127
269.7338321995465	270.0124716553288	51	127
270.0589115646259	270.5117006802721	55	127
270.0589115646259	270.5117006802721	55	127
270.5117006802721	270.66263038548755	53	127
270.5117006802721	270.66263038548755	53	127
270.66263038548755	270.94126984126984	58	127
270.66263038548755	270.94126984126984	58	127
270.9992970521542	271.4637188208617	57	127
270.9992970521542	271.4637188208617	57	127
271.4637188208617	271.6378684807256	55	127
271.4637188208617	271.6378684807256	55	127
271.6378684807256	271.9048979591837	62	127
271.6378684807256	271.9048979591837	62	127
271.962947845805	272.42732426303854	60	127
271.962947845805	272.42732426303854	60	127
272.42732426303854	272.5550566893424	58	127
272.42732426303854	272.5550566893424	58	127
272.5550566893424	272.8104761904762	65	127
272.5550566893424	272.8104761904762	65	127
272.85691609977323	273.286485260771	66	127
272.85691609977323	273.286485260771	66	127
273.286485260771	273.3677551020408	64	127
273.286485260771	273.3677551020408	64	127
273.3677551020408	273.4606349206349	62	127
273.3677551020408	273.4606349206349	62	127
273.4606349206349	273.79732426303855	62	127
273.4606349206349	273.79732426303855	62	127
273.8089342403628	273.9018140589569	57	127
273.8089342403628	273.9018140589569	57	127
273.9018140589569	274.0063038548753	55	127
273.9018140589569	274.0063038548753	55	127
274.0063038548753	274.0991836734694	54	127
274.0063038548753	274.0991836734694	54	127
274.0991836734694	274.1920634920635	52	127
274.0991836734694	274.1920634920635	52	127
274.1920634920635	274.2849433106576	50	127
274.1920634920635	274.2849433106576	50	127
274.2849433106576	276.4908390022676	50	127
274.2849433106576	276.4908390022676	50	127
276.56049886621315	277.60539682539684	67	127
276.56049886621315	277.60539682539684	55	127
276.87396825396826	277.1758276643991	58	127
277.1758276643991	277.4312244897959	50	127
277.47768707482993	277.8143764172336	51	127
277.60539682539684	277.7214965986395	57	127
277.60539682539684	277.7098866213152	69	127
277.7214965986395	277.8143764172336	58	127
277.7214965986395	277.8143764172336	70	127
277.8143764172336	278.0930158730159	55	127
277.8143764172336	278.73156462585035	70	127
277.8143764172336	278.7780045351474	58	127
278.1510430839002	278.2555328798186	63	127
278.2555328798186	278.36002267573696	62	127
278.36002267573696	278.45290249433106	60	127
278.4645124716553	278.73156462585035	62	127
278.7780045351474	279.6139229024943	67	127
278.7780045351474	279.0798639455782	58	127
278.7780045351474	279.6139229024943	55	127
279.0798639455782	279.32367346938776	50	127
279.41655328798186	279.6603628117914	52	127
279.6139229024943	279.7068027210884	57	127
279.6139229024943	279.7068027210884	69	127
279.7068027210884	279.8112925170068	58	127
279.7068027210884	280.1247619047619	64	127
279.7068027210884	279.8112925170068	70	127
279.8112925170068	279.91578231292516	72	127
279.8112925170068	279.91578231292516	60	127
279.91578231292516	280.0202721088435	62	127
279.91578231292516	280.0202721088435	74	127
280.0202721088435	280.3105215419501	74	127
280.0202721088435	280.3105215419501	62	127
280.1247619047619	280.24086167800453	62	127
280.24086167800453	280.3569614512472	60	127
280.3569614512472	281.21607709750566	62	127
280.3569614512472	280.5659410430839	70	127
280.3569614512472	280.5659410430839	58	127
280.5659410430839	280.658820861678	60	127
280.5659410430839	280.658820861678	72	127
280.6704308390023	280.7633106575964	74	127
280.6704308390023	280.7633106575964	62	127
280.7633106575964	280.8910204081633	63	127
280.7633106575964	280.8910204081633	75	127
280.8910204081633	280.9839002267574	77	127
280.8910204081633	280.9839002267574	65	127
280.9839002267574	281.08839002267575	77	127
280.9839002267574	281.08839002267575	65	127
281.08839002267575	281.18126984126985	67	127
281.08839002267575	281.18126984126985	79	127
281.18126984126985	281.2973696145125	68	127
281.18126984126985	281.2973696145125	80	127
281.2973696145125	282.3422448979592	80	127
281.2973696145125	281.4482993197279	60	127
281.2973696145125	282.3422448979592	68	127
281.4482993197279	281.5992290249433	65	127
281.5992290249433	281.73854875283445	63	127
281.73854875283445	281.8778684807256	62	127
281.8778684807256	282.04038548752834	60	127
282.04038548752834	282.19133786848073	58	127
282.19133786848073	282.44673469387754	56	127
282.3422448979592	282.49319727891157	67	127
282.3422448979592	282.49319727891157	79	127
282.49319727891157	282.64410430839	77	127
282.49319727891157	282.7950566893424	60	127
282.49319727891157	282.64410430839	65	127
282.64410430839	282.7950566893424	63	127
282.64410430839	282.7950566893424	75	127
282.7950566893424	283.0736961451247	58	127
282.7950566893424	283.0504761904762	74	127
282.7950566893424	283.0504761904762	62	127
283.0504761904762	283.1201360544218	74	127
283.0504761904762	283.1201360544218	62	127
283.1201360544218	283.30589569161	74	127
283.1201360544218	283.41038548752834	52	127
283.1201360544218	283.30589569161	62	127
283.30589569161	283.4568253968254	72	127
283.30589569161	283.4568253968254	60	127
283.4568253968254	283.75868480725626	62	127
283.4568253968254	283.6077551020408	70	127
283.4568253968254	283.6077551020408	58	127
283.6077551020408	283.75868480725626	69	127
283.6077551020408	283.75868480725626	57	127
283.75868480725626	284.07215419501136	55	127
283.75868480725626	284.07215419501136	67	127
283.75868480725626	284.1069841269841	61	127
284.07215419501136	284.1534240362812	55	127
284.07215419501136	284.1534240362812	67	127
284.1534240362812	284.67587301587304	67	127
284.1534240362812	284.67587301587304	55	127
284.4668934240363	284.8268027210884	58	127
284.67587301587304	284.8268027210884	65	127
284.67587301587304	284.8268027210884	53	127
284.8268027210884	285.0938321995465	70	127
284.8268027210884	285.0938321995465	58	127
284.8268027210884	285.0938321995465	53	127
285.1518820861678	285.6046712018141	57	127
285.1518820861678	285.6046712018141	69	127
285.45374149659864	285.76721088435374	46	127
285.6046712018141	285.76721088435374	55	127
285.6046712018141	285.76721088435374	67	127
285.76721088435374	286.02260770975056	63	127
285.76721088435374	286.02260770975056	55	127
285.76721088435374	286.02260770975056	51	127
286.08068027210885	286.54507936507935	67	127
286.08068027210885	286.54507936507935	55	127
286.39414965986396	286.6960090702948	58	127
286.54507936507935	286.6960090702948	65	127
286.54507936507935	286.6960090702948	53	127
286.6960090702948	286.9630385487528	70	127
286.6960090702948	286.9630385487528	53	127
286.6960090702948	286.9630385487528	58	127
287.0094784580499	287.43904761904764	57	127
287.0094784580499	287.43904761904764	69	127
287.31133786848073	287.61319727891157	50	127
287.43904761904764	287.61319727891157	67	127
287.43904761904764	287.61319727891157	55	127
287.61319727891157	287.9150566893424	74	127
287.61319727891157	287.9150566893424	62	127
287.61319727891157	287.9150566893424	58	127
287.9614739229025	288.40267573696144	72	127
287.9614739229025	288.40267573696144	60	127
288.25174603174605	288.5536054421769	53	127
288.40267573696144	288.5536054421769	70	127
288.40267573696144	288.5536054421769	58	127
288.5536054421769	288.8322448979592	77	127
288.5536054421769	288.8322448979592	65	127
288.5536054421769	288.8322448979592	61	127
288.87868480725626	289.3314739229025	64	127
288.87868480725626	289.3314739229025	76	127
289.1805442176871	289.48240362811794	57	127
289.3314739229025	289.47079365079367	62	127
289.3314739229025	289.47079365079367	74	127
289.48240362811794	290.57374149659864	81	127
289.48240362811794	290.57374149659864	69	127
289.48240362811794	289.79587301587304	65	127
290.1790022675737	290.48086167800454	66	127
290.48086167800454	290.7246485260771	61	127
290.57374149659864	290.678231292517	80	127
290.57374149659864	290.678231292517	68	127
290.678231292517	290.7711111111111	66	127
290.678231292517	290.7711111111111	78	127
290.7711111111111	291.20068027210885	78	127
290.7711111111111	291.20068027210885	66	127
290.7711111111111	291.0961904761905	57	127
291.0961904761905	291.5954195011338	54	127
291.20068027210885	291.2819501133787	64	127
291.20068027210885	291.2819501133787	76	127
291.2819501133787	291.38643990929705	62	127
291.2819501133787	291.38643990929705	74	127
291.38643990929705	291.7695691609977	62	127
291.38643990929705	291.7695691609977	74	127
291.6766893424036	292.268798185941	50	127
291.7695691609977	291.88566893424036	69	127
291.7695691609977	291.88566893424036	57	127
291.88566893424036	291.97854875283446	67	127
291.88566893424036	291.97854875283446	55	127
291.97854875283446	292.07142857142856	66	127
291.97854875283446	292.07142857142856	54	127
292.07142857142856	292.1642857142857	52	127
292.07142857142856	292.1642857142857	64	127
292.1642857142857	292.268798185941	62	127
292.1642857142857	292.268798185941	50	127
292.268798185941	292.7680045351474	45	127
292.268798185941	296.13492063492066	50	127
292.268798185941	294.46308390022676	62	127
292.8144671201814	293.1395464852608	38	127
293.1395464852608	293.46462585034016	39	127
293.52267573696145	293.8477551020408	40	127
293.9058049886621	294.2192743764172	41	127
294.2192743764172	294.4979138321996	42	127
294.60240362811794	295.4847619047619	43	127
296.22780045351476	296.83151927437643	52	127
296.55285714285714	296.78507936507935	58	127
296.83151927437643	297.1565986394558	51	127
297.1565986394558	297.45845804988664	61	127
297.45845804988664	297.77192743764175	62	127
297.45845804988664	297.55133786848074	58	127
297.55133786848074	297.6674376417234	60	127
297.6674376417234	297.7603174603175	62	127
297.77192743764175	298.0737868480726	50	127
297.77192743764175	298.0273469387755	62	127
298.0737868480726	298.712335600907	52	127
298.3872562358277	298.6542857142857	58	127
298.712335600907	299.0374149659864	51	127
299.0374149659864	299.32766439909295	61	127
299.32766439909295	299.58308390022677	62	127
299.32766439909295	299.4205215419501	58	127
299.4321541950113	299.5250113378685	58	127
299.5250113378685	299.6295238095238	60	127
299.6295238095238	299.7456235827664	62	127
299.6295238095238	299.8965532879819	50	127
299.7456235827664	299.8501133786848	62	127
299.8501133786848	299.9429931972789	63	127
299.95460317460316	301.68448979591835	56	127
299.95460317460316	300.256462585034	65	127
299.95460317460316	301.68448979591835	46	127
300.256462585034	300.7092517006803	56	127
300.7092517006803	300.8601814058957	58	127
300.8601814058957	301.3013605442177	62	127
301.3013605442177	301.4638775510204	65	127
301.4638775510204	301.71931972789116	68	127
301.76573696145124	303.32149659863944	67	127
301.76573696145124	302.31142857142856	47	127
301.76573696145124	303.32149659863944	62	127
302.31142857142856	302.462358276644	50	127
302.462358276644	302.9383673469388	53	127
302.9383673469388	303.07768707482995	55	127
303.0892970521542	303.6465759637188	59	127
303.39115646258506	303.6814058956916	53	127
303.39115646258506	303.6814058956916	62	127
303.7394557823129	304.3431746031746	54	127
304.04131519274375	304.2851247165533	63	127
304.3431746031746	304.6334013605442	57	127
304.6334013605442	305.2371428571429	55	127
304.98172335600907	305.0978231292517	59	127
305.0978231292517	305.1907029478458	61	127
305.1907029478458	305.34160997732425	62	127
305.3532199546485	305.597052154195	62	127
305.3532199546485	305.597052154195	53	127
305.6434920634921	306.35170068027213	54	127
306.038231292517	306.30526077097505	63	127
306.35170068027213	306.66517006802724	57	127
306.66517006802724	307.1760090702948	55	127
306.94380952380953	307.0482993197279	59	127
307.0482993197279	307.141179138322	61	127
307.141179138322	307.2688888888889	62	127
307.2688888888889	307.5475283446712	62	127
307.2688888888889	307.5475283446712	53	127
307.6055782312925	309.39351473922903	54	127
307.6055782312925	308.29056689342406	47	127
307.9190476190476	308.244126984127	63	127
308.29056689342406	308.5924263038549	46	127
308.5924263038549	309.16131519274376	39	127
308.8710657596372	309.06843537414966	63	127
309.06843537414966	309.16131519274376	65	127
309.16131519274376	309.2658049886621	66	127
309.16131519274376	309.4631746031746	38	127
309.2658049886621	309.3702947845805	68	127
309.3702947845805	309.4631746031746	70	127
309.4631746031746	310.0436507936508	58	127
309.4631746031746	311.2859410430839	43	127
309.4631746031746	311.2859410430839	50	127
310.11333333333334	310.61256235827665	62	127
310.61256235827665	310.7518820861678	67	127
310.7634693877551	311.2278911564626	70	127
311.2278911564626	311.3556009070295	74	127
311.3556009070295	311.5065306122449	48	127
311.3556009070295	311.82	79	127
311.3556009070295	313.15514739229025	36	127
311.5065306122449	311.6690702947846	58	127
311.6690702947846	312.11024943310656	62	127
311.82	311.95931972789117	81	127
311.97092970521544	312.43532879818594	79	127
312.11024943310656	312.2727891156463	64	127
312.2727891156463	312.7720181405896	62	127
312.43532879818594	312.6094557823129	76	127
312.6094557823129	313.0854875283447	74	127
312.7720181405896	312.93455782312924	58	127
312.93455782312924	313.1783673469388	48	127
313.0854875283447	313.2364172335601	69	127
313.2364172335601	313.5382766439909	50	127
313.2364172335601	313.72401360544217	67	127
313.2364172335601	315.0591609977324	43	127
313.5382766439909	313.90979591836737	51	127
313.72401360544217	313.90979591836737	74	127
313.90979591836737	314.14197278911564	50	127
313.90979591836737	314.3393424036281	74	127
314.20004535147393	314.51351473922904	53	127
314.3393424036281	314.51351473922904	70	127
314.51351473922904	314.9895238095238	74	127
314.51351473922904	314.8385941043084	51	127
314.8385941043084	315.0824036281179	50	127
314.9895238095238	315.175283446712	77	127
315.18689342403627	315.3378231292517	48	127
315.18689342403627	315.6280725623583	82	127
315.18689342403627	316.9748299319728	36	127
315.3378231292517	315.47714285714284	58	127
315.47714285714284	315.9879818594104	63	127
315.6280725623583	315.8138321995465	84	127
315.8138321995465	316.2898185941043	82	127
315.9879818594104	316.13891156462586	65	127
316.13891156462586	316.5684807256236	63	127
316.2898185941043	316.4407709750567	79	127
316.4407709750567	316.893537414966	75	127
316.5684807256236	316.719410430839	58	127
316.719410430839	316.99802721088435	48	127
316.893537414966	317.04448979591837	70	127
317.04448979591837	318.82081632653063	41	127
317.04448979591837	317.36956916099774	53	127
317.04448979591837	317.52049886621313	74	127
317.36956916099774	317.6714285714286	55	127
317.52049886621313	317.6714285714286	86	127
317.6714285714286	317.9268253968254	53	127
317.6714285714286	318.1358276643991	86	127
317.9848979591837	318.2867573696145	57	127
318.1358276643991	318.2867573696145	77	127
318.2867573696145	318.6002267573696	55	127
318.2867573696145	318.7395238095238	81	127
318.6002267573696	318.84401360544217	53	127
318.7395238095238	318.8904761904762	86	127
318.8904761904762	319.04138321995464	56	127
318.8904761904762	319.3897052154195	89	127
318.8904761904762	320.7712925170068	40	127
319.04138321995464	319.19233560090703	62	127
319.19233560090703	319.7380045351474	71	127
319.3897052154195	319.54063492063494	91	127
319.54063492063494	320.0514739229025	89	127
319.7380045351474	319.8889342403628	72	127
319.8889342403628	320.3997732426304	71	127
320.0514739229025	320.2140136054422	86	127
320.2140136054422	320.7016326530612	83	127
320.3997732426304	320.5507029478458	62	127
320.5507029478458	320.7945124716553	56	127
320.7016326530612	320.8409523809524	77	127
320.85256235827666	322.721746031746	45	127
320.85256235827666	321.1079818594104	61	127
320.85256235827666	321.27052154195013	76	127
321.1079818594104	321.4214512471655	62	127
321.27052154195013	321.4214512471655	88	127
321.4214512471655	321.67687074829934	61	127
321.4214512471655	321.95551020408163	88	127
321.7349206349206	322.12965986394556	64	127
321.9671201814059	322.12965986394556	81	127
322.12965986394556	322.4663492063492	62	127
322.12965986394556	322.64049886621314	85	127
322.4663492063492	322.7798185941043	61	127
322.64049886621314	322.8378684807256	88	127
323.24419501133787	323.4067573696145	54	127
323.24419501133787	323.4067573696145	42	127
323.24419501133787	323.4067573696145	66	127
323.5576870748299	323.6970068027211	69	127
323.5576870748299	323.6970068027211	57	127
323.5576870748299	323.6970068027211	45	127
324.20784580498866	324.3587528344671	59	127
324.20784580498866	324.3587528344671	59	127
324.20784580498866	324.3587528344671	47	127
324.52131519274377	324.6722222222222	62	127
324.52131519274377	324.6722222222222	50	127
324.52131519274377	324.6722222222222	62	127
325.15986394557825	325.2991836734694	64	127
325.15986394557825	325.2991836734694	52	127
325.15986394557825	325.2991836734694	64	127
325.4617233560091	325.6010430839002	61	127
325.4617233560091	325.6010430839002	61	127
325.4617233560091	325.6010430839002	49	127
326.12349206349205	326.2628117913832	57	127
326.12349206349205	326.2628117913832	45	127
326.12349206349205	326.2628117913832	57	127
326.43696145124716	326.62272108843536	61	127
326.43696145124716	326.62272108843536	61	127
326.43696145124716	326.62272108843536	49	127
327.13356009070293	327.29609977324264	62	127
327.13356009070293	327.29609977324264	62	127
327.13356009070293	327.29609977324264	50	127
327.44702947845803	327.60956916099775	66	127
327.44702947845803	327.60956916099775	66	127
327.44702947845803	327.60956916099775	54	127
328.10879818594105	328.25972789115644	64	127
328.10879818594105	328.25972789115644	52	127
328.10879818594105	328.25972789115644	64	127
328.4106575963719	328.54995464852607	61	127
328.4106575963719	328.54995464852607	49	127
328.4106575963719	328.54995464852607	61	127
328.74734693877554	329.0375963718821	61	127
328.74734693877554	329.0375963718821	73	127
328.74734693877554	329.0375963718821	54	127
328.74734693877554	329.0375963718821	61	127
328.74734693877554	329.0375963718821	54	127
328.74734693877554	329.3626757369615	81	127
328.74734693877554	329.3626757369615	69	127
328.74734693877554	329.3626757369615	69	127
328.74734693877554	329.0375963718821	66	127
329.3626757369615	329.71097505668934	66	127
329.3626757369615	329.71097505668934	66	127
329.3626757369615	329.71097505668934	78	127
329.7690249433107	330.37274376417236	74	127
329.7690249433107	330.37274376417236	62	127
329.7690249433107	330.37274376417236	62	127
330.37274376417236	330.60492063492063	71	127
330.37274376417236	330.60492063492063	59	127
330.37274376417236	330.60492063492063	59	127
330.65138321995465	330.976462585034	52	127
330.65138321995465	330.976462585034	61	127
330.65138321995465	330.976462585034	73	127
330.65138321995465	330.976462585034	68	127
330.65138321995465	330.976462585034	61	127
330.65138321995465	330.976462585034	61	127
330.976462585034	331.27832199546486	64	127
330.976462585034	331.27832199546486	64	127
330.976462585034	331.27832199546486	76	127
331.27832199546486	331.6730612244898	68	127
331.27832199546486	331.6730612244898	80	127
331.27832199546486	331.6730612244898	68	127
331.7194784580499	332.3116099773243	73	127
331.7194784580499	332.0213605442177	57	127
331.7194784580499	332.0213605442177	69	127
331.7194784580499	332.0213605442177	76	127
331.7194784580499	332.0213605442177	64	127
331.7194784580499	332.0213605442177	57	127
331.7194784580499	332.0213605442177	64	127
331.7194784580499	332.3116099773243	73	127
331.7194784580499	332.3116099773243	85	127
332.3116099773243	332.63668934240366	81	127
332.3116099773243	332.63668934240366	69	127
332.3116099773243	332.63668934240366	69	127
332.7063492063492	333.3448979591837	66	127
332.7063492063492	333.3448979591837	78	127
332.7063492063492	333.3448979591837	66	127
333.3448979591837	333.5770975056689	62	127
333.3448979591837	333.5770975056689	74	127
333.3448979591837	333.5770975056689	62	127
333.623537414966	333.91378684807256	73	127
333.623537414966	333.91378684807256	52	127
333.623537414966	333.91378684807256	61	127
333.623537414966	333.91378684807256	61	127
333.623537414966	333.91378684807256	61	127
333.623537414966	333.91378684807256	68	127
333.91378684807256	334.22725623582767	76	127
333.91378684807256	334.22725623582767	64	127
333.91378684807256	334.22725623582767	64	127
334.22725623582767	334.50589569160996	80	127
334.22725623582767	334.50589569160996	68	127
334.22725623582767	334.50589569160996	68	127
334.59877551020406	335.27215419501135	48	127
334.59877551020406	335.27215419501135	60	127
335.27215419501135	335.58562358276646	56	127
335.27215419501135	335.58562358276646	44	127
335.64367346938775	336.28222222222223	58	127
335.64367346938775	336.28222222222223	46	127
336.28222222222223	336.5260090702948	49	127
336.28222222222223	336.5260090702948	61	127
336.58408163265307	337.199410430839	63	127
336.58408163265307	337.199410430839	51	127
337.199410430839	337.46643990929704	48	127
337.199410430839	337.46643990929704	60	127
337.5128798185941	338.1049886621315	56	127
337.5128798185941	338.1049886621315	44	127
338.1049886621315	338.3836281179138	48	127
338.1049886621315	338.3836281179138	60	127
338.4300680272109	339.04539682539684	49	127
338.4300680272109	339.04539682539684	61	127
339.04539682539684	339.32403628117913	65	127
339.04539682539684	339.32403628117913	53	127
339.3704761904762	339.9974149659864	63	127
339.3704761904762	339.9974149659864	51	127
339.9974149659864	340.26444444444445	60	127
339.9974149659864	340.26444444444445	48	127
340.3108616780045	341.20485260770977	53	127
340.3108616780045	341.20485260770977	41	127
341.20485260770977	341.85501133786846	44	127
341.20485260770977	341.85501133786846	56	127
341.85501133786846	342.098820861678	47	127
341.85501133786846	342.098820861678	59	127
342.1452607709751	342.74897959183676	51	127
342.1452607709751	342.74897959183676	55	127
342.1452607709751	342.74897959183676	63	127
342.74897959183676	343.0043990929705	48	127
342.74897959183676	343.0043990929705	60	127
343.06244897959186	343.9680272108844	53	127
343.06244897959186	343.9680272108844	41	127
343.9680272108844	344.57174603174604	56	127
343.9680272108844	344.57174603174604	44	127
344.57174603174604	344.8271655328798	47	127
344.57174603174604	344.8271655328798	59	127
344.8619954648526	345.44249433106575	55	127
344.8619954648526	345.44249433106575	63	127
344.8619954648526	345.44249433106575	51	127
345.44249433106575	345.69791383219956	60	127
345.44249433106575	345.69791383219956	48	127
345.75596371882085	346.38290249433106	80	127
346.38290249433106	346.64990929705215	77	127
346.69637188208617	347.39297052154194	65	127
346.69637188208617	347.39297052154194	74	127
347.39297052154194	347.6715873015873	62	127
347.39297052154194	347.6715873015873	70	127
347.7180498866213	348.0315192743764	71	127
347.7180498866213	348.36820861678007	63	127
347.7180498866213	348.36820861678007	54	127
348.0315192743764	348.36820861678007	75	127
348.36820861678007	348.64684807256236	51	127
348.36820861678007	348.64684807256236	78	127
348.36820861678007	348.64684807256236	59	127
348.69326530612244	349.2970068027211	80	127
349.2970068027211	349.5524263038549	77	127
349.59886621315195	350.19097505668935	74	127
349.59886621315195	350.19097505668935	65	127
350.19097505668935	350.4812244897959	70	127
350.19097505668935	350.4812244897959	62	127
350.5508843537415	351.2474603174603	63	127
350.5508843537415	350.92240362811793	71	127
350.5508843537415	351.2474603174603	54	127
350.92240362811793	351.2474603174603	75	127
351.2474603174603	351.51451247165534	78	127
351.2474603174603	351.51451247165534	59	127
351.2474603174603	351.51451247165534	51	127
351.5725623582766	352.4897505668934	54	127
351.5725623582766	362.8342403628118	45	127
351.5725623582766	352.4897505668934	61	127
352.4897505668934	353.3372789115646	55	127
352.4897505668934	353.3372789115646	64	127
353.4069387755102	355.18326530612245	54	127
353.4069387755102	354.35895691609977	63	127
354.35895691609977	355.18326530612245	61	127
355.2645351473923	356.1120634920635	55	127
355.2645351473923	356.18172335600906	64	127
356.18172335600906	357.09891156462584	63	127
356.18172335600906	362.8342403628118	54	127
357.1801587301587	362.8342403628118	61	127
366.2707936507937	368.9410657596372	62	127
366.2707936507937	368.9410657596372	62	127
366.2707936507937	368.9410657596372	62	127
369.01074829931974	369.88149659863944	61	127
369.01074829931974	369.88149659863944	61	127
369.01074829931974	369.88149659863944	61	127
369.88149659863944	370.82190476190476	60	127
369.88149659863944	370.82190476190476	60	127
369.88149659863944	370.82190476190476	60	127
370.82190476190476	372.0293424036281	59	127
370.82190476190476	372.0293424036281	59	127
370.82190476190476	372.0293424036281	59	127
372.0293424036281	372.3195918367347	60	127
372.0293424036281	372.3195918367347	60	127
372.0293424036281	372.3195918367347	60	127
372.3195918367347	372.58662131519276	62	127
372.3195918367347	372.58662131519276	62	127
372.3195918367347	372.58662131519276	62	127
372.6330612244898	372.9349206349206	64	127
372.6330612244898	372.9349206349206	64	127
372.6330612244898	372.9349206349206	64	127
372.9349206349206	373.17873015873016	59	127
372.9349206349206	373.17873015873016	59	127
372.9349206349206	373.17873015873016	59	127
373.17873015873016	373.480589569161	60	127
373.17873015873016	373.480589569161	60	127
373.17873015873016	373.480589569161	60	127
373.480589569161	374.3048979591837	62	127
373.480589569161	374.3048979591837	62	127
373.480589569161	374.3048979591837	62	127
374.37455782312924	374.9898866213152	60	127
374.37455782312924	374.9898866213152	60	127
374.9898866213152	375.22208616780046	62	127
374.9898866213152	375.22208616780046	62	127
375.25691609977326	376.13927437641723	64	127
375.25691609977326	376.13927437641723	64	127
376.13927437641723	377.3815419501134	66	127
376.13927437641723	377.3815419501134	66	127
377.3815419501134	377.6834013605442	64	127
377.3815419501134	377.6834013605442	64	127
377.6834013605442	377.9156009070295	66	127
377.6834013605442	377.9156009070295	66	127
377.98526077097506	378.2755102040816	67	127
377.98526077097506	378.2755102040816	67	127
378.2755102040816	378.5657596371882	62	127
378.2755102040816	378.5657596371882	62	127
378.5657596371882	378.8559863945578	64	127
378.5657596371882	378.8559863945578	64	127
378.8559863945578	379.6338775510204	66	127
378.8559863945578	379.6338775510204	66	127
379.703537414966	380.28401360544217	64	127
379.703537414966	380.28401360544217	64	127
379.703537414966	380.28401360544217	52	127
380.28401360544217	380.5510657596372	66	127
380.28401360544217	380.5510657596372	66	127
380.28401360544217	380.5510657596372	54	127
380.5975056689342	381.2012244897959	67	127
380.5975056689342	381.2012244897959	55	127
380.5975056689342	381.2012244897959	67	127
381.2012244897959	381.468253968254	69	127
381.2012244897959	381.468253968254	69	127
381.2012244897959	381.468253968254	57	127
381.52630385487527	382.69891156462586	71	127
381.52630385487527	382.69891156462586	71	127
381.52630385487527	382.69891156462586	59	127
382.69891156462586	383.0007709750567	69	127
382.69891156462586	383.0007709750567	57	127
382.69891156462586	383.0007709750567	69	127
383.0007709750567	383.29102040816326	71	127
383.0007709750567	383.29102040816326	71	127
383.0007709750567	383.29102040816326	59	127
383.29102040816326	383.6277097505669	73	127
383.29102040816326	383.6277097505669	73	127
383.29102040816326	383.6277097505669	61	127
383.6277097505669	383.9527891156463	71	127
383.6277097505669	384.1965986394558	59	127
383.6277097505669	383.9527891156463	71	127
383.9527891156463	384.2198185941043	73	127
383.9527891156463	384.2778684807256	73	127
384.2778684807256	385.1370068027211	74	127
384.2778684807256	384.89319727891154	74	127
384.2778684807256	386.7275736961451	60	127
384.89319727891154	385.531746031746	84	127
385.531746031746	385.83360544217686	83	127
385.83360544217686	386.11224489795916	79	127
386.15868480725624	387.02943310657594	78	127
386.7275736961451	386.9829931972789	62	127
387.02943310657594	387.34290249433104	64	127
387.02943310657594	387.87696145124715	76	127
387.34290249433104	387.6447619047619	57	127
387.6447619047619	387.9001814058957	59	127
387.9466213151928	390.3498866213152	60	127
387.9466213151928	388.5851700680272	74	127
388.5851700680272	389.1656689342404	84	127
389.1656689342404	389.4791383219955	83	127
389.4791383219955	389.722947845805	79	127
389.76938775510206	390.67496598639457	78	127
390.3498866213152	390.605306122449	62	127
390.67496598639457	390.96521541950113	64	127
390.67496598639457	391.49927437641725	76	127
390.96521541950113	391.26707482993197	57	127
391.26707482993197	391.5224943310658	59	127
391.5805442176871	392.1726530612245	75	127
391.5805442176871	392.4745124716553	60	127
392.1726530612245	392.7647619047619	87	127
392.4745124716553	393.32204081632653	58	127
392.7647619047619	393.0201814058957	86	127
393.0201814058957	393.27560090702946	82	127
393.32204081632653	393.6471201814059	59	127
393.32204081632653	394.26244897959185	79	127
393.6471201814059	393.9373696145125	60	127
393.9373696145125	394.26244897959185	62	127
394.26244897959185	394.5643083900227	63	127
394.26244897959185	394.5643083900227	78	127
394.5643083900227	394.8777777777778	62	127
394.5643083900227	394.8777777777778	79	127
394.8777777777778	395.1215873015873	80	127
394.8777777777778	395.1215873015873	60	127
395.16802721088436	395.85301587301586	82	127
395.16802721088436	396.23614512471653	70	127
395.16802721088436	396.23614512471653	58	127
396.23614512471653	397.0720634920635	69	127
396.23614512471653	397.0720634920635	57	127
397.0720634920635	397.98925170068026	56	127
397.0720634920635	397.98925170068026	68	127
397.98925170068026	399.1850793650794	67	127
397.98925170068026	399.1850793650794	55	127
399.1850793650794	399.47532879818596	57	127
399.1850793650794	399.47532879818596	69	127
399.47532879818596	399.7307482993197	71	127
399.47532879818596	399.7307482993197	59	127
399.7655782312925	400.06743764172336	72	127
399.7655782312925	400.06743764172336	60	127
400.06743764172336	400.29963718820864	67	127
400.06743764172336	400.29963718820864	55	127
400.29963718820864	400.5550566893424	57	127
400.29963718820864	400.5550566893424	69	127
400.60149659863947	401.4954648526077	70	127
400.60149659863947	401.4954648526077	58	127
401.4954648526077	402.38943310657595	69	127
401.4954648526077	402.38943310657595	57	127
402.38943310657595	403.20213151927436	68	127
402.38943310657595	403.20213151927436	56	127
403.2834013605442	404.15414965986395	67	127
403.2834013605442	404.15414965986395	55	127
404.15414965986395	404.4443990929705	56	127
404.15414965986395	404.4443990929705	68	127
404.4443990929705	404.7346485260771	58	127
404.4443990929705	404.7346485260771	70	127
404.7346485260771	404.9436281179138	72	127
404.7346485260771	404.9436281179138	60	127
404.9900680272109	405.28031746031746	73	127
404.9900680272109	405.28031746031746	61	127
405.28031746031746	405.6286167800454	68	127
405.28031746031746	405.6286167800454	56	127
405.6286167800454	405.97691609977323	70	127
405.6286167800454	405.97691609977323	58	127
405.97691609977323	406.8128344671202	59	127
405.97691609977323	406.5806349206349	71	127
405.97691609977323	406.8128344671202	71	127
406.5806349206349	407.1727437641723	81	127
407.1727437641723	407.45138321995466	80	127
407.45138321995466	407.73002267573696	76	127
407.77646258503404	408.60077097505666	75	127
408.60077097505666	409.4715192743764	73	127
409.541179138322	410.14489795918365	72	127
410.14489795918365	410.7137868480726	84	127
410.7137868480726	411.0156462585034	83	127
411.0156462585034	411.2594557823129	79	127
411.31750566893425	412.2114739229025	76	127
412.2114739229025	413.04739229024943	75	127
413.12866213151926	413.70916099773245	74	127
413.70916099773245	414.2896598639456	86	127
414.2896598639456	414.5915192743764	85	127
414.5915192743764	414.8469387755102	83	127
414.89337868480726	415.75251700680275	78	127
415.75251700680275	416.56521541950116	77	127
416.6000453514739	417.2037641723356	76	127
417.2037641723356	417.8655328798186	88	127
417.5985034013605	418.3763718820862	64	127
417.5985034013605	418.3763718820862	64	127
417.8655328798186	418.16739229024944	87	127
418.16739229024944	418.411201814059	88	127
418.457641723356	419.3051700680272	63	127
418.457641723356	419.3051700680272	63	127
418.457641723356	418.7711111111111	90	127
418.7711111111111	419.0961904761905	78	127
419.0961904761905	419.32839002267576	66	127
419.3748299319728	420.21074829931973	61	127
419.3748299319728	420.21074829931973	61	127
419.3748299319728	419.66507936507935	64	127
419.66507936507935	419.9901587301587	61	127
419.9901587301587	420.23396825396827	57	127
420.29201814058956	422.2308843537415	55	127
420.29201814058956	421.4414058956916	60	127
420.29201814058956	421.4414058956916	60	127
421.48784580498864	421.7897052154195	59	127
421.48784580498864	421.7897052154195	59	127
421.7897052154195	422.0451247165533	60	127
421.7897052154195	422.0451247165533	60	127
422.1031746031746	422.3934240362812	62	127
422.1031746031746	422.3934240362812	62	127
422.2308843537415	422.3934240362812	60	127
422.3934240362812	422.52113378684805	64	127
422.3934240362812	422.66045351473923	60	127
422.3934240362812	422.66045351473923	60	127
422.52113378684805	422.66045351473923	67	127
422.66045351473923	422.88104308390024	62	127
422.66045351473923	422.88104308390024	62	127
422.66045351473923	422.78816326530614	72	127
422.78816326530614	422.92748299319726	76	127
422.92748299319726	423.72857142857146	64	127
422.92748299319726	423.19451247165534	88	127
422.92748299319726	423.72857142857146	64	127
423.19451247165534	423.4963718820862	87	127
423.4963718820862	423.7634013605442	88	127
423.82145124716556	424.13492063492066	90	127
423.82145124716556	424.680589569161	63	127
423.82145124716556	424.680589569161	63	127
424.13492063492066	424.4483900226757	78	127
424.4483900226757	424.7038095238095	66	127
424.7502494331066	425.5745578231292	61	127
424.7502494331066	425.5745578231292	61	127
424.7502494331066	425.06371882086165	64	127
425.06371882086165	425.388798185941	61	127
425.388798185941	425.59777777777776	57	127
425.6558276643991	426.51496598639454	60	127
425.6558276643991	426.51496598639454	60	127
425.6558276643991	427.5366439909297	55	127
426.51496598639454	426.7819954648526	59	127
426.51496598639454	426.7819954648526	59	127
426.7819954648526	427.10707482993195	60	127
426.7819954648526	427.10707482993195	60	127
427.10707482993195	427.32766439909295	62	127
427.10707482993195	427.32766439909295	62	127
427.3857142857143	427.68757369614514	64	127
427.3857142857143	427.68757369614514	64	127
427.54825396825396	427.68757369614514	60	127
427.68757369614514	427.8501133786848	64	127
427.68757369614514	428.0126530612245	62	127
427.68757369614514	428.0126530612245	62	127
427.8501133786848	428.0126530612245	67	127
428.0126530612245	428.15197278911563	72	127
428.0126530612245	428.256462585034	64	127
428.0126530612245	428.256462585034	64	127
428.15197278911563	428.31451247165535	76	127
428.31451247165535	428.94145124716556	66	127
428.31451247165535	429.1620408163265	78	127
428.31451247165535	429.1620408163265	66	127
428.94145124716556	429.1968707482993	64	127
429.2433106575964	429.8818594104308	63	127
429.2433106575964	430.1721088435374	79	127
429.2433106575964	429.5683900226757	67	127
429.5683900226757	429.8818594104308	65	127
429.8818594104308	430.1721088435374	63	127
429.8818594104308	430.1721088435374	60	127
430.1721088435374	430.76421768707485	62	127
430.1721088435374	430.4855782312925	75	127
430.1721088435374	430.76421768707485	62	127
430.4855782312925	430.76421768707485	77	127
430.76421768707485	431.0196371882086	63	127
430.76421768707485	431.0196371882086	60	127
430.76421768707485	431.0196371882086	79	127
431.0544671201814	432.5289342403628	62	127
431.0544671201814	431.6581859410431	59	127
431.0544671201814	431.94843537414965	81	127
431.6581859410431	431.94843537414965	50	127
431.94843537414965	432.21546485260774	55	127
431.94843537414965	433.7015419501134	83	127
432.21546485260774	432.5289342403628	57	127
432.5289342403628	432.7959637188209	71	127
432.5289342403628	432.7959637188209	59	127
432.8424036281179	433.4693424036281	69	127
432.8424036281179	433.16748299319727	60	127
433.16748299319727	433.4693424036281	62	127
433.4693424036281	433.7363718820862	64	127
433.4693424036281	433.7363718820862	67	127
433.7828117913832	434.7	78	127
433.7828117913832	434.7	66	127
433.7828117913832	434.3865306122449	66	127
434.3865306122449	434.7	64	127
434.7	435.361768707483	63	127
434.7	435.6752380952381	79	127
434.7	435.0482993197279	67	127
435.0482993197279	435.361768707483	65	127
435.361768707483	435.6752380952381	63	127
435.361768707483	435.6752380952381	60	127
435.6752380952381	435.9887074829932	75	127
435.6752380952381	436.29056689342406	62	127
435.6752380952381	436.29056689342406	62	127
435.9887074829932	436.29056689342406	77	127
436.29056689342406	436.5459863945578	60	127
436.29056689342406	436.5459863945578	63	127
436.29056689342406	436.5459863945578	79	127
436.5924263038549	437.53283446712015	81	127
436.5924263038549	437.2193650793651	59	127
436.5924263038549	438.1365532879819	62	127
437.2193650793651	437.84630385487526	50	127
437.53283446712015	438.3803628117914	83	127
437.84630385487526	438.1365532879819	55	127
438.1365532879819	438.4035827664399	74	127
438.1365532879819	438.4035827664399	57	127
438.450022675737	438.76349206349204	79	127
438.450022675737	438.76349206349204	59	127
438.450022675737	439.06535147392293	73	127
438.76349206349204	439.06535147392293	60	127
438.76349206349204	439.06535147392293	81	127
439.06535147392293	439.3556009070295	62	127
439.06535147392293	439.3556009070295	71	127
439.06535147392293	439.3556009070295	83	127
439.4020408163265	440.3192290249433	70	127
439.4020408163265	440.0057596371882	64	127
439.4020408163265	440.3192290249433	85	127
440.0057596371882	440.62108843537413	66	127
440.3192290249433	441.15514739229025	86	127
440.3192290249433	440.92294784580497	71	127
440.62108843537413	440.92294784580497	59	127
440.92294784580497	441.1783673469388	78	127
440.92294784580497	441.1783673469388	61	127
441.2248072562358	441.87496598639456	76	127
441.2248072562358	441.56149659863945	62	127
441.2248072562358	441.56149659863945	83	127
441.56149659863945	441.87496598639456	64	127
441.56149659863945	441.87496598639456	85	127
441.87496598639456	442.1303854875284	66	127
441.87496598639456	442.1303854875284	74	127
441.87496598639456	442.1303854875284	86	127
442.1652154195011	442.6644444444444	67	127
442.1652154195011	442.96630385487526	73	127
442.1652154195011	442.96630385487526	88	127
442.7457142857143	443.837052154195	69	127
443.04757369614515	444.17374149659867	89	127
443.04757369614515	443.32621315192745	74	127
443.32621315192745	443.6280725623583	62	127
443.6280725623583	443.86027210884356	64	127
443.91832199546485	444.23179138321996	65	127
443.91832199546485	444.23179138321996	62	127
444.23179138321996	444.54526077097506	67	127
444.23179138321996	444.8006802721088	88	127
444.23179138321996	444.54526077097506	64	127
444.54526077097506	444.87034013605444	65	127
444.54526077097506	444.87034013605444	69	127
444.87034013605444	445.46244897959184	66	127
444.87034013605444	446.3448072562358	86	127
444.87034013605444	445.7875283446712	71	127
445.46244897959184	445.7875283446712	67	127
445.7875283446712	446.6698866213152	66	127
445.7875283446712	446.6698866213152	69	127
446.4260770975057	446.6931065759637	81	127
446.751156462585	447.05301587301585	83	127
446.751156462585	447.32004535147394	64	127
446.751156462585	447.32004535147394	67	127
447.05301587301585	447.32004535147394	84	127
447.32004535147394	447.58707482993196	66	127
447.32004535147394	447.58707482993196	86	127
447.32004535147394	447.58707482993196	62	127
447.6451247165533	448.4810430839002	88	127
447.6451247165533	448.4810430839002	61	127
447.6451247165533	448.17918367346937	67	127
448.248843537415	448.81773242630385	69	127
448.5623129251701	449.13120181405895	62	127
448.5623129251701	449.72331065759636	89	127
448.81773242630385	449.13120181405895	62	127
449.13120181405895	449.45628117913833	64	127
449.13120181405895	449.45628117913833	57	127
449.45628117913833	449.76975056689344	65	127
449.45628117913833	449.76975056689344	62	127
449.76975056689344	450.31541950113376	88	127
449.76975056689344	450.08321995464854	67	127
449.76975056689344	450.08321995464854	64	127
450.08321995464854	450.3386394557823	65	127
450.08321995464854	450.3386394557823	69	127
450.3734693877551	451.30226757369616	71	127
450.3734693877551	451.30226757369616	86	127
450.3734693877551	450.9771882086168	66	127
450.9771882086168	451.30226757369616	67	127
451.30226757369616	451.95242630385485	69	127
451.30226757369616	451.62734693877553	81	127
451.30226757369616	451.95242630385485	66	127
451.62734693877553	451.95242630385485	83	127
451.95242630385485	452.2426757369615	67	127
451.95242630385485	452.2426757369615	84	127
451.95242630385485	452.2426757369615	64	127
452.2426757369615	452.4748752834467	66	127
452.2426757369615	452.4748752834467	86	127
452.2426757369615	453.03215419501134	62	127
452.4748752834467	452.79995464852607	67	127
452.4748752834467	452.79995464852607	88	127
452.79995464852607	453.0553741496599	90	127
452.79995464852607	454.3208616780045	69	127
453.1134240362812	454.9129705215419	63	127
453.1134240362812	454.06544217687076	91	127
454.06544217687076	454.9942403628118	90	127
454.3673015873016	454.692380952381	71	127
454.692380952381	454.93619047619046	73	127
454.9942403628118	455.88820861678005	89	127
454.9942403628118	455.88820861678005	62	127
454.9942403628118	455.88820861678005	74	127
455.88820861678005	457.0492063492064	88	127
455.88820861678005	456.79378684807256	60	127
455.88820861678005	456.79378684807256	72	127
456.79378684807256	457.6297052154195	71	127
456.79378684807256	457.6297052154195	59	127
457.0840362811791	457.39750566893423	87	127
457.39750566893423	457.71097505668934	88	127
457.71097505668934	458.6281632653061	70	127
457.71097505668934	458.6281632653061	58	127
457.71097505668934	457.98961451247163	89	127
457.98961451247163	458.314693877551	88	127
458.314693877551	458.5817233560091	89	127
458.6281632653061	458.87197278911566	69	127
458.6281632653061	459.3479818594104	93	127
458.6281632653061	458.87197278911566	57	127
458.9184126984127	459.19705215419503	70	127
458.9184126984127	459.19705215419503	58	127
459.2551020408163	459.7659410430839	71	127
459.2551020408163	459.7659410430839	59	127
459.42925170068025	460.3580498866213	92	127
459.7659410430839	460.1258503401361	73	127
459.7659410430839	460.1258503401361	61	127
460.1258503401361	460.43931972789113	63	127
460.1258503401361	460.43931972789113	75	127
460.43931972789113	461.32167800453516	64	127
460.43931972789113	461.24040816326533	91	127
460.43931972789113	461.32167800453516	76	127
461.32167800453516	462.2040362811791	74	127
461.32167800453516	462.4710657596372	90	127
461.32167800453516	462.2040362811791	62	127
462.2040362811791	463.0747845804989	61	127
462.2040362811791	463.0747845804989	73	127
462.5291156462585	462.8425850340136	89	127
462.8425850340136	463.1212244897959	90	127
463.167664399093	464.1312925170068	60	127
463.167664399093	463.49274376417236	91	127
463.167664399093	464.1312925170068	72	127
463.49274376417236	463.8178231292517	90	127
463.8178231292517	464.08485260770976	91	127
464.1312925170068	464.37510204081633	71	127
464.1312925170068	464.37510204081633	59	127
464.1312925170068	465.04848072562356	95	127
464.4331519274376	464.7001814058957	60	127
464.4331519274376	464.7001814058957	72	127
464.758231292517	465.3039002267574	61	127
464.758231292517	465.3039002267574	73	127
465.04848072562356	465.9192290249433	94	127
465.3039002267574	465.6057596371882	75	127
465.3039002267574	465.6057596371882	63	127
465.6057596371882	465.87278911564624	77	127
465.6057596371882	465.87278911564624	65	127
465.9192290249433	466.8015873015873	93	127
465.9192290249433	466.8712471655329	66	127
465.9192290249433	466.8712471655329	78	127
466.8712471655329	467.7419954648526	64	127
466.8712471655329	467.7419954648526	76	127
466.8712471655329	468.00902494331064	92	127
467.7419954648526	468.6243537414966	75	127
467.7419954648526	468.6243537414966	63	127
468.067074829932	468.3805442176871	91	127
468.3805442176871	468.6475736961451	92	127
468.6940136054422	470.45873015873013	73	127
468.6940136054422	470.45873015873013	61	127
468.6940136054422	469.01909297052157	93	127
469.01909297052157	469.29773242630387	92	127
469.29773242630387	469.5531519274376	93	127
469.5995918367347	470.7373696145125	89	127
470.52839002267575	471.422358276644	72	127
470.52839002267575	471.422358276644	60	127
470.7838095238095	471.0972789115646	88	127
471.0972789115646	471.3643083900227	89	127
471.422358276644	472.2814965986395	58	127
471.422358276644	472.2814965986395	70	127
471.422358276644	471.71260770975056	90	127
471.71260770975056	472.03768707482993	89	127
472.03768707482993	472.30471655328796	90	127
472.3627664399093	472.6530158730159	86	127
472.3627664399093	473.19868480725626	59	127
472.3627664399093	473.19868480725626	71	127
472.6530158730159	472.9548752834467	71	127
472.9548752834467	473.1522448979592	72	127
473.19868480725626	473.47732426303855	74	127
473.19868480725626	474.02299319727894	69	127
473.19868480725626	474.02299319727894	57	127
473.47732426303855	473.7443537414966	76	127
473.7443537414966	474.02299319727894	78	127
474.02299319727894	474.69637188208617	74	127
474.02299319727894	474.20875283446713	79	127
474.02299319727894	474.69637188208617	52	127
474.02299319727894	474.69637188208617	67	127
474.20875283446713	474.41773242630387	83	127
474.41773242630387	474.777641723356	86	127
474.777641723356	476.6816780045352	67	127
474.777641723356	476.4378684807256	88	127
474.777641723356	477.59886621315195	45	127
474.777641723356	476.6816780045352	61	127
476.542358276644	476.6816780045352	88	127
476.6816780045352	477.59886621315195	55	127
476.6816780045352	477.3086167800453	86	127
476.6816780045352	477.59886621315195	64	127
477.3086167800453	477.6336961451247	85	127
477.65691609977324	477.86589569161	50	127
477.65691609977324	477.7265759637188	83	127
477.65691609977324	477.7265759637188	67	127
477.65691609977324	477.7265759637188	59	127
477.73818594104307	477.93555555555554	71	127
477.73818594104307	477.93555555555554	83	127
477.93555555555554	478.1097052154195	67	127
477.93555555555554	478.1097052154195	79	127
478.1097052154195	478.2954648526077	62	127
478.1097052154195	478.2954648526077	74	127
478.2954648526077	478.4580045351474	62	127
478.2954648526077	478.4580045351474	74	127
478.2954648526077	478.4580045351474	74	127
478.4580045351474	478.50444444444446	71	127
478.4580045351474	478.50444444444446	71	127
478.4580045351474	478.50444444444446	59	127
478.50444444444446	478.6321541950113	55	127
478.50444444444446	478.6321541950113	67	127
478.50444444444446	478.6321541950113	67	127
478.6321541950113	478.78308390022676	62	127
478.6321541950113	478.78308390022676	62	127
478.6321541950113	478.78308390022676	50	127
478.78308390022676	478.9572335600907	59	127
478.78308390022676	478.9572335600907	59	127
478.78308390022676	478.9572335600907	47	127
478.9572335600907	479.0849433106576	60	127
478.9572335600907	479.0849433106576	48	127
478.9572335600907	479.0849433106576	60	127
479.0849433106576	479.22426303854877	62	127
479.0849433106576	479.22426303854877	62	127
479.0849433106576	479.22426303854877	50	127
479.22426303854877	479.37519274376416	64	127
479.22426303854877	479.37519274376416	52	127
479.22426303854877	479.37519274376416	64	127
479.37519274376416	479.5261224489796	66	127
479.37519274376416	479.5261224489796	66	127
479.37519274376416	479.5261224489796	54	127
479.5261224489796	479.64222222222224	67	127
479.5261224489796	479.64222222222224	55	127
479.5261224489796	479.64222222222224	67	127
479.64222222222224	479.78154195011336	69	127
479.64222222222224	479.78154195011336	57	127
479.64222222222224	479.78154195011336	69	127
479.78154195011336	479.92086167800454	71	127
479.78154195011336	479.92086167800454	71	127
479.78154195011336	479.92086167800454	59	127
479.92086167800454	480.0601814058957	72	127
479.92086167800454	480.0601814058957	60	127
479.92086167800454	480.0601814058957	72	127
480.0601814058957	480.1530612244898	62	127
480.0601814058957	480.1530612244898	74	127
480.0601814058957	480.1530612244898	74	127
480.1530612244898	480.29238095238094	64	127
480.1530612244898	480.29238095238094	76	127
480.1530612244898	480.29238095238094	64	127
480.29238095238094	480.4433106575964	66	127
480.29238095238094	480.4433106575964	78	127
480.29238095238094	480.4433106575964	66	127
480.4433106575964	480.5710204081633	67	127
480.4433106575964	480.5710204081633	79	127
480.4433106575964	480.5710204081633	67	127
480.5710204081633	480.7219501133787	69	127
480.5710204081633	480.7219501133787	81	127
480.5710204081633	480.7219501133787	69	127
480.7219501133787	480.8496598639456	71	127
480.7219501133787	480.8496598639456	71	127
480.7219501133787	480.8496598639456	83	127
480.8496598639456	481.0238095238095	84	127
480.8496598639456	481.0238095238095	72	127
480.8496598639456	481.0238095238095	72	127
481.0238095238095	481.29083900226755	74	127
481.0238095238095	481.29083900226755	74	127
481.0238095238095	481.29083900226755	86	127
481.9409977324263	482.0338775510204	67	127
481.9409977324263	482.9162358276644	74	127
482.0338775510204	482.1267573696145	67	127
482.1267573696145	482.23124716553286	67	127
482.24285714285713	482.33573696145123	66	127
482.33573696145123	482.42861678004533	66	127
482.42861678004533	482.52149659863943	66	127
482.52149659863943	482.6143764172336	64	127
482.6259863945578	482.71886621315195	64	127
482.71886621315195	482.81174603174605	64	127
482.81174603174605	482.9162358276644	62	127
482.9162358276644	483.0207256235828	76	127
482.9162358276644	483.0091156462585	62	127
483.0207256235828	483.1136054421769	78	127
483.0207256235828	483.1136054421769	62	127
483.1136054421769	483.206485260771	60	127
483.1136054421769	483.6128344671202	79	127
483.206485260771	483.2993650793651	60	127
483.2993650793651	483.3922448979592	60	127
483.40385487528346	483.49673469387756	72	127
483.49673469387756	483.58961451247166	72	127
483.58961451247166	483.68249433106575	72	127
483.68249433106575	483.77537414965985	59	127
483.68249433106575	484.6577324263039	80	127
483.77537414965985	483.86825396825395	59	127
483.86825396825395	483.9727437641723	59	127
483.9843537414966	484.0772335600907	56	127
484.0772335600907	484.1701133786848	56	127
484.1701133786848	484.2629931972789	56	127
484.2629931972789	484.35587301587304	57	127
484.35587301587304	484.44875283446714	57	127
484.44875283446714	484.54163265306124	57	127
484.5532426303855	484.6577324263039	59	127
484.6577324263039	484.78544217687073	78	127
484.6577324263039	484.78544217687073	59	127
484.78544217687073	484.87832199546483	59	127
484.78544217687073	484.87832199546483	76	127
484.87832199546483	485.00603174603174	60	127
484.87832199546483	485.41238095238094	74	127
485.00603174603174	485.09891156462584	60	127
485.09891156462584	485.19179138321994	60	127
485.2034013605442	485.28467120181404	50	127
485.2962811791383	485.3891609977324	50	127
485.3891609977324	485.4820408163265	50	127
485.4820408163265	486.45727891156463	74	127
485.4820408163265	485.57492063492066	67	127
485.57492063492066	485.66780045351476	67	127
485.66780045351476	485.76068027210886	67	127
485.7722902494331	485.85356009070296	66	127
485.8651700680272	485.9696598639456	66	127
485.9696598639456	486.0625396825397	66	127
486.0625396825397	486.17863945578233	64	127
486.17863945578233	486.27151927437643	64	127
486.27151927437643	486.36439909297053	64	127
486.36439909297053	486.45727891156463	62	127
486.45727891156463	486.5501587301587	76	127
486.45727891156463	486.5501587301587	62	127
486.5501587301587	486.6430385487528	62	127
486.5501587301587	486.6430385487528	78	127
486.6546485260771	486.7359183673469	60	127
486.6546485260771	487.16548752834467	79	127
486.7475283446712	486.828798185941	60	127
486.8404081632653	486.9332879818594	60	127
486.9332879818594	487.03777777777776	72	127
487.03777777777776	487.14226757369613	72	127
487.14226757369613	487.23514739229023	72	127
487.23514739229023	488.1987755102041	80	127
487.23514739229023	487.3396371882086	59	127
487.3396371882086	487.44412698412697	59	127
487.44412698412697	487.53700680272107	59	127
487.53700680272107	487.62988662131517	56	127
487.62988662131517	487.7227664399093	56	127
487.7227664399093	487.8156462585034	56	127
487.8272562358277	487.9085260770975	57	127
487.9201360544218	488.0014058956916	57	127
488.0130158730159	488.10589569161	57	127
488.10589569161	488.1987755102041	59	127
488.1987755102041	488.2800453514739	78	127
488.1987755102041	488.2800453514739	59	127
488.2800453514739	488.36131519274375	59	127
488.2800453514739	488.36131519274375	76	127
488.36131519274375	488.84893424036284	74	127
488.36131519274375	488.45419501133784	60	127
488.45419501133784	488.547074829932	60	127
488.547074829932	488.6399546485261	60	127
488.6399546485261	488.7328344671202	50	127
488.7328344671202	488.8257142857143	50	127
488.8257142857143	488.9069841269841	50	127
488.9069841269841	489.8590022675737	81	127
488.9069841269841	488.9998639455782	62	127
488.9998639455782	489.0927437641723	62	127
489.0927437641723	489.1856235827664	62	127
489.1856235827664	489.2901133786848	55	127
489.2901133786848	489.3829931972789	55	127
489.3829931972789	489.475873015873	55	127
489.475873015873	489.56875283446715	57	127
489.56875283446715	489.67324263038546	57	127
489.67324263038546	489.7661224489796	57	127
489.7661224489796	489.8590022675737	58	127
489.8590022675737	489.9518820861678	79	127
489.8590022675737	489.9518820861678	58	127
489.9518820861678	490.0447619047619	58	127
489.9518820861678	490.0447619047619	77	127
490.0447619047619	490.137641723356	70	127
490.0447619047619	490.53238095238095	75	127
490.137641723356	490.2305215419501	70	127
490.2305215419501	490.3234013605442	70	127
490.3234013605442	490.4162811791383	58	127
490.4162811791383	490.5091609977324	58	127
490.5091609977324	490.6020408163265	58	127
490.6020408163265	490.6949206349206	57	127
490.6020408163265	491.61210884353744	76	127
490.6949206349206	490.799410430839	57	127
490.799410430839	490.90390022675734	57	127
490.90390022675734	491.0083900226757	62	127
491.0083900226757	491.1360997732426	62	127
491.1360997732426	491.2289795918367	62	127
491.2289795918367	491.3218594104308	64	127
491.3218594104308	491.4147392290249	64	127
491.4147392290249	491.5192290249433	64	127
491.5192290249433	491.61210884353744	65	127
491.61210884353744	491.70498866213154	65	127
491.61210884353744	491.70498866213154	74	127
491.70498866213154	491.79786848072564	65	127
491.70498866213154	491.79786848072564	72	127
491.79786848072564	492.35514739229023	70	127
491.79786848072564	491.9139682539683	77	127
491.9139682539683	492.0068480725624	77	127
492.0068480725624	492.0881179138322	77	127
492.0997278911565	492.20421768707484	65	127
492.2158276643991	492.3203174603175	65	127
492.3319274376417	492.4131972789116	65	127
492.42480725623585	493.3768253968254	81	127
492.42480725623585	492.5060770975057	62	127
492.5060770975057	492.61056689342405	62	127
492.61056689342405	492.70344671201815	62	127
492.70344671201815	492.79632653061225	55	127
492.79632653061225	492.88920634920635	55	127
492.88920634920635	492.98208616780045	55	127
492.98208616780045	493.07496598639455	57	127
493.07496598639455	493.16784580498864	57	127
493.16784580498864	493.26072562358274	57	127
493.26072562358274	493.3768253968254	58	127
493.3768253968254	493.4697052154195	79	127
493.3768253968254	493.4697052154195	58	127
493.4697052154195	493.55097505668937	77	127
493.4697052154195	493.55097505668937	58	127
493.5625850340136	493.64385487528347	70	127
493.5625850340136	493.7831746031746	75	127
493.65546485260774	493.73673469387757	70	127
493.73673469387757	493.82961451247166	70	127
493.82961451247166	493.92249433106576	77	127
493.82961451247166	493.92249433106576	58	127
493.92249433106576	494.01537414965986	79	127
493.92249433106576	494.01537414965986	58	127
494.01537414965986	494.10825396825396	58	127
494.01537414965986	494.10825396825396	81	127
494.10825396825396	495.0022222222222	83	127
494.10825396825396	494.1895238095238	64	127
494.20113378684806	494.2824036281179	64	127
494.29401360544216	494.37528344671205	64	127
494.37528344671205	494.46816326530615	57	127
494.46816326530615	494.56104308390024	57	127
494.56104308390024	494.65392290249434	57	127
494.65392290249434	494.74680272108844	59	127
494.74680272108844	494.83968253968254	59	127
494.83968253968254	494.89773242630383	59	127
494.9093424036281	494.99061224489793	60	127
495.0022222222222	495.0834920634921	60	127
495.0022222222222	495.0834920634921	81	127
495.0834920634921	495.18798185941046	79	127
495.0834920634921	495.18798185941046	60	127
495.18798185941046	495.30408163265304	72	127
495.18798185941046	495.478231292517	77	127
495.30408163265304	495.3969614512472	72	127
495.3969614512472	495.52467120181404	72	127
495.52467120181404	495.6291609977324	79	127
495.52467120181404	495.61755102040814	60	127
495.6291609977324	495.71043083900224	60	127
495.6291609977324	495.7220408163265	81	127
495.7220408163265	495.8033106575964	83	127
495.7220408163265	495.8033106575964	60	127
495.8033106575964	495.9426303854875	57	127
495.8033106575964	496.75532879818593	85	127
495.8033106575964	496.75532879818593	73	127
495.9426303854875	496.0819501133787	54	127
496.0819501133787	496.2096598639456	56	127
496.2096598639456	496.38380952380953	57	127
496.38380952380953	496.52312925170065	59	127
496.52312925170065	496.66244897959183	61	127
496.66244897959183	497.10362811791384	62	127
496.75532879818593	496.84820861678	71	127
496.75532879818593	496.84820861678	83	127
496.84820861678	496.9294784580499	69	127
496.84820861678	496.9294784580499	81	127
496.9410884353741	497.05718820861676	81	127
496.9410884353741	497.05718820861676	69	127
497.05718820861676	497.15006802721086	79	127
497.05718820861676	497.15006802721086	67	127
497.10362811791384	497.24294784580496	67	127
497.15006802721086	497.24294784580496	66	127
497.15006802721086	497.24294784580496	78	127
497.24294784580496	497.34743764172333	67	127
497.24294784580496	497.4983673469388	71	127
497.24294784580496	497.34743764172333	79	127
497.34743764172333	497.4287074829932	81	127
497.34743764172333	497.4287074829932	69	127
497.4287074829932	497.55641723356007	83	127
497.4287074829932	497.55641723356007	71	127
497.55641723356007	498.5200453514739	85	127
497.55641723356007	498.5200453514739	73	127
497.55641723356007	497.73056689342405	57	127
497.73056689342405	497.8698866213152	54	127
497.8698866213152	498.00920634920635	56	127
498.00920634920635	498.14852607709753	57	127
498.14852607709753	498.2762358276644	59	127
498.2762358276644	498.4271655328798	61	127
498.4271655328798	498.87995464852605	62	127
498.5200453514739	498.60131519274375	83	127
498.5200453514739	498.60131519274375	71	127
498.60131519274375	498.72902494331066	69	127
498.60131519274375	498.72902494331066	81	127
498.72902494331066	498.82190476190476	69	127
498.72902494331066	498.82190476190476	81	127
498.82190476190476	498.92639455782313	79	127
498.82190476190476	498.92639455782313	67	127
498.87995464852605	499.00766439909296	67	127
498.92639455782313	499.00766439909296	66	127
498.92639455782313	499.00766439909296	78	127
499.01927437641723	499.10054421768706	79	127
499.01927437641723	499.10054421768706	67	127
499.01927437641723	499.2979138321995	71	127
499.10054421768706	499.23986394557824	83	127
499.10054421768706	499.23986394557824	71	127
499.23986394557824	499.3443537414966	86	127
499.23986394557824	499.3443537414966	74	127
499.3443537414966	499.448843537415	86	127
499.3443537414966	499.5765532879819	58	127
499.3443537414966	499.715873015873	74	127
499.448843537415	499.5301133786848	84	127
499.5301133786848	499.6229931972789	82	127
499.6229931972789	499.715873015873	82	127
499.6229931972789	499.8435827664399	64	127
499.715873015873	499.8087528344671	72	127
499.715873015873	499.8087528344671	80	127
499.8087528344671	499.9016326530612	70	127
499.8087528344671	499.9016326530612	79	127
499.9016326530612	499.99451247165536	68	127
499.9016326530612	499.99451247165536	80	127
499.9016326530612	500.0409523809524	63	127
499.99451247165536	500.08739229024945	72	127
499.99451247165536	500.08739229024945	84	127
500.0409523809524	500.1686621315193	56	127
500.08739229024945	500.1686621315193	87	127
500.08739229024945	500.1686621315193	75	127
500.18027210884355	500.2963718820862	87	127
500.18027210884355	500.6214512471655	75	127
500.18027210884355	500.4821315192744	59	127
500.2963718820862	500.4356916099773	85	127
500.4356916099773	500.5285714285714	83	127
500.5285714285714	500.6214512471655	83	127
500.5285714285714	500.7607709750567	65	127
500.6214512471655	500.7143310657596	73	127
500.6214512471655	500.7143310657596	81	127
500.7143310657596	500.80721088435376	80	127
500.7143310657596	500.80721088435376	71	127
500.80721088435376	500.90009070294786	69	127
500.80721088435376	500.90009070294786	81	127
500.80721088435376	500.9465306122449	64	127
500.90009070294786	500.99297052154196	85	127
500.90009070294786	500.99297052154196	73	127
500.9465306122449	501.08585034013606	57	127
500.99297052154196	501.08585034013606	76	127
500.99297052154196	501.08585034013606	88	127
501.09746031746033	501.19034013605443	88	127
501.09746031746033	501.5154195011338	76	127
501.09746031746033	501.36448979591836	60	127
501.19034013605443	501.31804988662134	86	127
501.31804988662134	501.41092970521544	84	127
501.4225396825397	501.6663492063492	66	127
501.4225396825397	501.5154195011338	84	127
501.5154195011338	501.6199092970522	82	127
501.5154195011338	501.6199092970522	74	127
501.6199092970522	501.7127891156463	72	127
501.6199092970522	501.7127891156463	81	127
501.7127891156463	501.86371882086166	65	127
501.7127891156463	501.81727891156464	70	127
501.7127891156463	501.81727891156464	82	127
501.81727891156464	501.921768707483	86	127
501.81727891156464	501.921768707483	74	127
501.86371882086166	502.0146485260771	58	127
501.921768707483	502.0146485260771	77	127
501.921768707483	502.0146485260771	89	127
502.0262585034014	502.4209977324263	77	127
502.0262585034014	502.1191383219955	89	127
502.0262585034014	502.27006802721087	61	127
502.1191383219955	502.22362811791385	87	127
502.22362811791385	502.31650793650795	85	127
502.31650793650795	502.4209977324263	85	127
502.31650793650795	502.56031746031744	67	127
502.4209977324263	502.5138775510204	83	127
502.4209977324263	502.5138775510204	75	127
502.5138775510204	502.6183673469388	73	127
502.5138775510204	502.6183673469388	82	127
502.6183673469388	502.72285714285715	71	127
502.6183673469388	502.72285714285715	83	127
502.6183673469388	502.78090702947844	66	127
502.72285714285715	502.8389569160998	87	127
502.72285714285715	502.8389569160998	75	127
502.78090702947844	502.94344671201816	59	127
502.8389569160998	502.94344671201816	90	127
502.8389569160998	502.94344671201816	78	127
502.94344671201816	503.46589569161	91	127
502.94344671201816	503.46589569161	79	127
502.94344671201816	503.46589569161	59	127
503.54716553287983	503.7793650793651	67	127
503.54716553287983	503.7793650793651	79	127
503.54716553287983	503.7793650793651	59	127
503.54716553287983	503.7793650793651	62	127
503.8258049886621	504.3714739229025	65	127
503.8258049886621	504.3714739229025	69	127
503.8258049886621	504.3714739229025	60	127
503.8258049886621	503.90707482993196	60	127
503.90707482993196	504.3714739229025	77	127
503.90707482993196	504.1044444444444	69	127
504.3714739229025	504.615283446712	57	127
504.3714739229025	504.615283446712	72	127
504.3714739229025	504.615283446712	60	127
504.67333333333335	504.9403628117914	59	127
504.67333333333335	505.2422222222222	62	127
504.67333333333335	504.9403628117914	71	127
504.67333333333335	505.2422222222222	54	127
504.67333333333335	504.9403628117914	59	127
504.9403628117914	505.2422222222222	62	127
504.9403628117914	505.2422222222222	74	127
505.2422222222222	505.4744217687075	78	127
505.2422222222222	505.4744217687075	59	127
505.2422222222222	505.4744217687075	66	127
505.2422222222222	505.4744217687075	66	127
505.5208616780045	506.11297052154197	59	127
505.5208616780045	505.5905215419501	55	127
505.5208616780045	505.81111111111113	62	127
505.5208616780045	505.5905215419501	62	127
505.5208616780045	505.81111111111113	71	127
505.5905215419501	505.81111111111113	86	127
505.5905215419501	505.81111111111113	74	127
505.81111111111113	506.11297052154197	71	127
505.81111111111113	506.11297052154197	83	127
506.11297052154197	506.35678004535146	79	127
506.11297052154197	506.35678004535146	62	127
506.11297052154197	506.35678004535146	59	127
506.11297052154197	506.35678004535146	67	127
506.40321995464853	506.4728798185941	60	127
506.40321995464853	506.67024943310656	69	127
506.40321995464853	506.9721088435374	65	127
506.40321995464853	506.9721088435374	69	127
506.40321995464853	506.9721088435374	60	127
506.4728798185941	506.9721088435374	77	127
506.9721088435374	507.21591836734694	72	127
506.9721088435374	507.21591836734694	57	127
506.9721088435374	507.21591836734694	60	127
507.26235827664397	507.7964172335601	62	127
507.26235827664397	507.7964172335601	54	127
507.26235827664397	507.5526077097506	71	127
507.26235827664397	507.5526077097506	59	127
507.26235827664397	507.5526077097506	59	127
507.5526077097506	507.7964172335601	74	127
507.5526077097506	507.7964172335601	62	127
507.7964172335601	508.0402267573696	78	127
507.7964172335601	508.0402267573696	66	127
507.7964172335601	508.0402267573696	66	127
507.7964172335601	508.0402267573696	59	127
508.08666666666664	508.16793650793653	62	127
508.08666666666664	508.40013605442175	71	127
508.08666666666664	508.71360544217686	50	127
508.08666666666664	508.71360544217686	59	127
508.08666666666664	508.40013605442175	62	127
508.08666666666664	508.16793650793653	55	127
508.16793650793653	508.40013605442175	71	127
508.16793650793653	508.40013605442175	83	127
508.40013605442175	508.71360544217686	79	127
508.40013605442175	508.71360544217686	67	127
508.71360544217686	508.96902494331067	59	127
508.71360544217686	508.96902494331067	74	127
508.71360544217686	508.96902494331067	62	127
509.0154648526077	509.30571428571426	71	127
509.0154648526077	509.30571428571426	59	127
509.0154648526077	509.30571428571426	59	127
509.0154648526077	509.57274376417234	66	127
509.0154648526077	509.57274376417234	59	127
509.30571428571426	509.57274376417234	74	127
509.30571428571426	509.57274376417234	62	127
509.57274376417234	509.8281632653061	78	127
509.57274376417234	509.8281632653061	66	127
509.57274376417234	509.8281632653061	62	127
509.8746031746032	510.176462585034	71	127
509.8746031746032	509.955873015873	55	127
509.8746031746032	510.4667120181406	59	127
509.8746031746032	510.176462585034	62	127
509.8746031746032	510.4667120181406	50	127
509.8746031746032	509.955873015873	62	127
509.955873015873	510.176462585034	74	127
509.955873015873	510.176462585034	86	127
510.176462585034	510.4667120181406	71	127
510.176462585034	510.4667120181406	83	127
510.4667120181406	510.69891156462586	62	127
510.4667120181406	510.69891156462586	79	127
510.4667120181406	510.69891156462586	59	127
510.4667120181406	510.69891156462586	67	127
510.7453514739229	511.02399092970523	62	127
510.7453514739229	511.30263038548753	54	127
510.7453514739229	511.02399092970523	59	127
510.7453514739229	511.02399092970523	66	127
510.7453514739229	511.30263038548753	62	127
510.7453514739229	511.02399092970523	71	127
510.7453514739229	511.02399092970523	78	127
511.02399092970523	511.30263038548753	83	127
511.02399092970523	511.30263038548753	71	127
511.30263038548753	511.5	66	127
511.30263038548753	511.5	74	127
511.30263038548753	511.5	86	127
511.5580498866213	511.6277097505669	62	127
511.5580498866213	511.80185941043084	71	127
511.5580498866213	511.6277097505669	43	127
511.5580498866213	511.80185941043084	55	127
511.5580498866213	511.8482993197279	50	127
511.5580498866213	511.6277097505669	55	127
511.6277097505669	511.8482993197279	59	127
511.6277097505669	511.8482993197279	91	127
511.6277097505669	511.8482993197279	79	127
511.8482993197279	512.5448979591837	67	127
511.8482993197279	512.5448979591837	55	127
512.5448979591837	512.6493650793651	69	127
512.5448979591837	512.6493650793651	57	127
512.6493650793651	512.7538775510204	71	127
512.6493650793651	512.7538775510204	59	127
512.7654875283447	513.4040362811792	59	127
512.7654875283447	513.4040362811792	71	127
513.4040362811792	513.4969160997732	72	127
513.4040362811792	513.4969160997732	60	127
513.4969160997732	513.5897959183674	74	127
513.4969160997732	513.5897959183674	62	127
513.6014058956916	513.926485260771	62	127
513.6014058956916	513.926485260771	74	127
513.8219954648526	513.926485260771	50	127
513.926485260771	514.0193650793651	52	127
513.926485260771	514.0193650793651	64	127
513.926485260771	514.0193650793651	76	127
514.0193650793651	514.1238548752834	66	127
514.0193650793651	514.1238548752834	78	127
514.0193650793651	514.1238548752834	54	127
514.1238548752834	514.2283446712019	79	127
514.1238548752834	514.2283446712019	67	127
514.1238548752834	514.2283446712019	55	127
514.2283446712019	514.3096145124716	81	127
514.2283446712019	514.3096145124716	57	127
514.2283446712019	514.3096145124716	69	127
514.3096145124716	514.41410430839	71	127
514.3096145124716	514.41410430839	83	127
514.3096145124716	514.41410430839	59	127
514.41410430839	514.4953741496598	83	127
514.41410430839	514.4953741496598	71	127
514.41410430839	514.4953741496598	59	127
514.4953741496598	514.588253968254	84	127
514.4953741496598	514.588253968254	72	127
514.4953741496598	514.588253968254	60	127
514.588253968254	514.6811111111111	62	127
514.588253968254	514.6811111111111	86	127
514.588253968254	514.6811111111111	74	127
514.6811111111111	514.7740136054422	74	127
514.6811111111111	514.7740136054422	86	127
514.6811111111111	514.7740136054422	62	127
514.7740136054422	514.8668934240363	76	127
514.7740136054422	514.8668934240363	64	127
514.7740136054422	514.8668934240363	88	127
514.8668934240363	514.9597732426304	66	127
514.8668934240363	514.9597732426304	78	127
514.8668934240363	514.9597732426304	90	127
514.9597732426304	515.1919727891157	67	127
514.9597732426304	515.1919727891157	91	127
514.9597732426304	515.1919727891157	79	127
515.8305215419501	516.0743310657597	55	127
515.8305215419501	516.0743310657597	67	127
515.8305215419501	516.0743310657597	55	127
515.8305215419501	516.0743310657597	55	127
515.8305215419501	516.0743310657597	67	127
516.5851700680272	516.6548299319728	43	127
516.5851700680272	516.6548299319728	55	127
516.5851700680272	516.9218367346939	50	127
516.5851700680272	516.6548299319728	62	127
516.5851700680272	516.9218367346939	62	127
516.5851700680272	516.6548299319728	55	127
516.6548299319728	516.9218367346939	59	127
516.6548299319728	516.9218367346939	71	127
516.6548299319728	516.9218367346939	79	127
516.6548299319728	516.9218367346939	91	127
