# onset,offset,note,velocity
0.034058956916099774	1.4504761904761905	43	127
0.034058956916099774	1.4504761904761905	31	127
0.8583673469387755	0.9744671201814059	50	127
0.9744671201814059	1.0789569160997732	58	127
1.0789569160997732	1.1834467120181407	62	127
1.1834467120181407	1.322766439909297	62	127
1.322766439909297	1.4272562358276644	58	127
1.4272562358276644	1.5317460317460319	50	127
1.5317460317460319	2.3444444444444446	31	127
1.5317460317460319	2.3444444444444446	43	127
1.8103854875283447	1.914875283446712	50	127
1.914875283446712	2.0193650793650795	58	127
2.0193650793650795	2.1006349206349206	62	127
2.1006349206349206	2.205124716553288	62	127
2.205124716553288	2.309614512471655	58	127
2.309614512471655	2.437301587301587	50	127
2.437301587301587	3.3080725623582765	43	127
2.437301587301587	3.3080725623582765	31	127
2.750793650793651	2.8901133786848074	50	127
2.8901133786848074	2.9829931972789114	58	127
2.9829931972789114	3.0874829931972787	62	127
3.0874829931972787	3.1919727891156464	62	127
3.1919727891156464	3.2848526077097504	58	127
3.2848526077097504	3.377732426303855	50	127
3.377732426303855	4.225260770975057	36	127
3.70281179138322	3.807301587301587	51	127
3.807301587301587	3.9001814058956916	55	127
3.9001814058956916	3.993061224489796	63	127
3.993061224489796	4.109160997732427	63	127
4.109160997732427	4.202040816326531	55	127
4.202040816326531	4.294897959183674	51	127
4.294897959183674	5.2004761904761905	31	127
4.294897959183674	5.2004761904761905	43	127
4.608390022675737	4.701269841269841	50	127
4.701269841269841	4.805759637188209	58	127
4.805759637188209	4.933469387755102	62	127
4.933469387755102	5.037959183673469	62	127
5.037959183673469	5.177278911564626	58	127
5.177278911564626	5.2817687074829935	50	127
5.2817687074829935	6.129297052154195	36	127
5.606848072562358	5.711337868480726	52	127
5.711337868480726	5.815827664399093	58	127
5.815827664399093	5.897074829931973	64	127
5.897074829931973	5.989977324263038	64	127
5.989977324263038	6.094467120181406	58	127
6.094467120181406	6.1873469387755105	52	127
6.1873469387755105	7.034875283446712	41	127
6.1873469387755105	7.034875283446712	29	127
6.489206349206349	6.582086167800454	50	127
6.582086167800454	6.686575963718821	58	127
6.686575963718821	6.791065759637188	62	127
6.791065759637188	6.883945578231293	62	127
6.883945578231293	7.011655328798186	58	127
7.011655328798186	7.104535147392291	50	127
7.104535147392291	7.766303854875283	38	127
7.534104308390023	7.63859410430839	53	127
7.63859410430839	7.7430839002267575	60	127
7.7430839002267575	7.835963718820862	65	127
7.835963718820862	8.079773242630386	39	127
7.835963718820862	7.928843537414966	63	127
7.928843537414966	8.02172335600907	60	127
8.02172335600907	8.1378231292517	51	127
8.149433106575964	8.683492063492064	41	127
8.451292517006802	8.567392290249433	50	127
8.567392290249433	8.660272108843538	56	127
8.660272108843538	8.764761904761905	60	127
8.776349206349206	9.043401360544218	42	127
8.776349206349206	8.892471655328798	58	127
8.892471655328798	8.996938775510204	50	127
8.996938775510204	9.089818594104308	58	127
9.101451247165533	9.635510204081633	43	127
9.426530612244898	9.519410430839002	52	127
9.519410430839002	9.612290249433107	55	127
9.612290249433107	9.693537414965986	62	127
9.705170068027211	9.925759637188209	45	127
9.705170068027211	9.798049886621316	61	127
9.798049886621316	9.879319727891156	55	127
9.879319727891156	9.97219954648526	52	127
9.983809523809525	10.599138321995465	38	127
10.35532879818594	10.622358276643991	58	127
10.35532879818594	10.622358276643991	55	127
10.35532879818594	10.622358276643991	62	127
10.69201814058957	10.935827664399094	34	127
10.69201814058957	10.84294784580499	53	127
10.84294784580499	10.982267573696145	65	127
10.982267573696145	11.585986394557823	39	127
11.330566893424036	11.60920634920635	63	127
11.330566893424036	11.60920634920635	57	127
11.330566893424036	11.60920634920635	58	127
11.6556462585034	11.899455782312925	46	127
11.6556462585034	11.80657596371882	55	127
11.80657596371882	11.945895691609977	67	127
11.945895691609977	12.514784580498866	38	127
12.270975056689343	12.549614512471654	55	127
12.270975056689343	12.549614512471654	58	127
12.270975056689343	12.549614512471654	62	127
12.596054421768708	12.863083900226757	34	127
12.596054421768708	12.770204081632652	53	127
12.770204081632652	12.90952380952381	65	127
12.90952380952381	13.490022675736961	40	127
13.246213151927437	13.513242630385488	58	127
13.246213151927437	13.513242630385488	62	127
13.246213151927437	13.513242630385488	69	127
13.55968253968254	13.884761904761906	41	127
13.55968253968254	13.757052154195012	67	127
13.55968253968254	13.757052154195012	70	127
13.757052154195012	13.94281179138322	58	127
13.94281179138322	14.465260770975057	43	127
14.267891156462586	14.488480725623583	72	127
14.267891156462586	14.488480725623583	62	127
14.267891156462586	14.488480725623583	65	127
14.534920634920635	14.82517006802721	45	127
14.534920634920635	14.732290249433106	73	127
14.732290249433106	14.918049886621315	61	127
14.918049886621315	15.219909297052155	50	127
14.918049886621315	15.219909297052155	38	127
15.219909297052155	15.51015873015873	37	127
15.219909297052155	15.31278911564626	53	127
15.219909297052155	15.51015873015873	49	127
15.31278911564626	15.417278911564626	57	127
15.417278911564626	15.51015873015873	66	127
15.51015873015873	15.62625850340136	66	127
15.51015873015873	15.823628117913833	35	127
15.51015873015873	15.823628117913833	47	127
15.62625850340136	15.730748299319728	57	127
15.730748299319728	15.823628117913833	54	127
15.823628117913833	16.11387755102041	33	127
15.823628117913833	16.11387755102041	45	127
16.11387755102041	16.41573696145125	43	127
16.11387755102041	16.41573696145125	31	127
16.11387755102041	16.19514739229025	54	127
16.19514739229025	16.31124716553288	62	127
16.31124716553288	16.41573696145125	66	127
16.41573696145125	16.50861678004535	66	127
16.41573696145125	16.717573696145124	30	127
16.41573696145125	16.717573696145124	42	127
16.50861678004535	16.624716553287982	62	127
16.624716553287982	16.717573696145124	54	127
16.717573696145124	17.042675736961453	28	127
16.717573696145124	17.042675736961453	40	127
17.042675736961453	17.332925170068027	38	127
17.042675736961453	17.332925170068027	26	127
17.135555555555555	17.240045351473924	53	127
17.240045351473924	17.332925170068027	62	127
17.240045351473924	17.332925170068027	65	127
17.332925170068027	17.634784580498867	39	127
17.332925170068027	17.634784580498867	27	127
17.437414965986395	17.5418820861678	54	127
17.5418820861678	17.634784580498867	66	127
17.5418820861678	17.634784580498867	62	127
17.634784580498867	17.936643990929706	28	127
17.634784580498867	17.936643990929706	40	127
17.739274376417235	17.8437641723356	55	127
17.8437641723356	17.936643990929706	62	127
17.8437641723356	17.936643990929706	67	127
17.936643990929706	18.22689342403628	41	127
17.936643990929706	18.22689342403628	29	127
18.04113378684807	18.122403628117915	56	127
18.122403628117915	18.22689342403628	68	127
18.122403628117915	18.22689342403628	62	127
18.22689342403628	18.575192743764173	30	127
18.22689342403628	18.575192743764173	42	127
18.34299319727891	18.482312925170067	57	127
18.482312925170067	18.575192743764173	62	127
18.482312925170067	18.575192743764173	69	127
18.575192743764173	19.434331065759636	43	127
18.575192743764173	19.434331065759636	31	127
18.900272108843538	18.99315192743764	50	127
19.004761904761907	19.09764172335601	58	127
19.10925170068027	19.202131519274378	62	127
19.202131519274378	19.306621315192743	62	127
19.306621315192743	19.41111111111111	58	127
19.41111111111111	19.51560090702948	50	127
19.51560090702948	20.397936507936507	36	127
19.817460317460316	19.921950113378685	51	127
19.921950113378685	20.026439909297054	55	127
20.026439909297054	20.14251700680272	63	127
20.14251700680272	20.24702947845805	63	127
20.258639455782312	20.36312925170068	55	127
20.374739229024943	20.47922902494331	51	127
20.47922902494331	21.373197278911565	31	127
20.47922902494331	21.373197278911565	43	127
20.8275283446712	20.920408163265307	50	127
20.93201814058957	21.036507936507938	58	127
21.0481179138322	21.140997732426303	62	127
21.140997732426303	21.245487528344672	62	127
21.245487528344672	21.349954648526076	58	127
21.349954648526076	21.50090702947846	50	127
21.50090702947846	22.371655328798187	36	127
21.81437641723356	21.918843537414965	52	127
21.918843537414965	22.023356009070294	58	127
22.023356009070294	22.1162358276644	64	127
22.1162358276644	22.209115646258503	64	127
22.220725623582766	22.336825396825397	58	127
22.34843537414966	22.441315192743765	52	127
22.441315192743765	23.323673469387757	43	127
22.441315192743765	23.323673469387757	31	127
22.789614512471655	22.88249433106576	50	127
22.894104308390023	22.986984126984126	58	127
22.998571428571427	23.091473922902495	62	127
23.091473922902495	23.195963718820863	62	127
23.195963718820863	23.300453514739228	58	127
23.300453514739228	23.404943310657597	50	127
23.404943310657597	24.02027210884354	38	127
23.788072562358277	23.892562358276646	53	127
23.892562358276646	23.99705215419501	60	127
23.99705215419501	24.10154195011338	65	127
24.10154195011338	24.194421768707482	65	127
24.10154195011338	24.38018140589569	39	127
24.206031746031748	24.29891156462585	60	127
24.310521541950113	24.426621315192744	53	127
24.426621315192744	24.972290249433108	41	127
24.740090702947846	24.83297052154195	50	127
24.844580498866215	24.937460317460317	56	127
24.94907029478458	25.041950113378686	60	127
25.041950113378686	25.14643990929705	58	127
25.041950113378686	25.343809523809522	42	127
25.14643990929705	25.28575963718821	50	127
25.28575963718821	25.390249433106575	58	127
25.390249433106575	25.947528344671202	43	127
25.726938775510202	25.83142857142857	52	127
25.83142857142857	25.924308390022677	58	127
25.924308390022677	26.028798185941042	62	127
26.028798185941042	26.31904761904762	45	127
26.028798185941042	26.13328798185941	61	127
26.144897959183673	26.260997732426304	55	127
26.272607709750567	26.377097505668935	52	127
26.377097505668935	26.992426303854874	38	127
26.737006802721087	27.015646258503402	55	127
26.737006802721087	27.015646258503402	58	127
26.737006802721087	27.015646258503402	62	127
27.073696145124718	27.36394557823129	34	127
27.073696145124718	27.259455782312926	53	127
27.259455782312926	27.410385487528345	65	127
27.410385487528345	27.921224489795918	39	127
27.700634920634922	27.95605442176871	58	127
27.700634920634922	27.95605442176871	57	127
27.700634920634922	27.95605442176871	63	127
28.00249433106576	28.292743764172336	46	127
28.00249433106576	28.165034013605442	55	127
28.165034013605442	28.33918367346939	67	127
28.33918367346939	28.931292517006803	38	127
28.69909297052154	28.954512471655327	55	127
28.69909297052154	28.954512471655327	58	127
28.69909297052154	28.954512471655327	62	127
29.00095238095238	29.30281179138322	34	127
29.00095238095238	29.175102040816327	53	127
29.175102040816327	29.349251700680274	65	127
29.349251700680274	29.941360544217687	40	127
29.674331065759638	29.976190476190474	62	127
29.674331065759638	29.976190476190474	58	127
29.674331065759638	29.976190476190474	69	127
30.022630385487528	30.278049886621314	41	127
30.022630385487528	30.17356009070295	67	127
30.17356009070295	30.324489795918367	55	127
30.324489795918367	30.881768707482994	43	127
30.63795918367347	30.90498866213152	65	127
30.63795918367347	30.90498866213152	62	127
30.63795918367347	30.90498866213152	72	127
30.951428571428572	31.241678004535146	45	127
30.951428571428572	31.113968253968252	73	127
31.113968253968252	31.311337868480727	61	127
31.311337868480727	31.880226757369613	47	127
31.636417233560092	31.915056689342403	65	127
31.636417233560092	31.915056689342403	69	127
31.636417233560092	31.915056689342403	76	127
31.961496598639457	32.112426303854875	77	127
31.961496598639457	32.228526077097506	49	127
32.112426303854875	32.274965986394555	65	127
32.274965986394555	32.62326530612245	30	127
32.274965986394555	32.62326530612245	42	127
32.62326530612245	32.73936507936508	54	127
32.62326530612245	32.948344671201816	33	127
32.62326530612245	32.948344671201816	45	127
32.73936507936508	32.832244897959185	61	127
32.84385487528345	32.948344671201816	66	127
32.948344671201816	33.05281179138322	66	127
32.948344671201816	33.261814058956915	37	127
32.948344671201816	33.261814058956915	49	127
33.05281179138322	33.15732426303855	61	127
33.15732426303855	33.261814058956915	54	127
33.261814058956915	33.57528344671202	38	127
33.261814058956915	33.57528344671202	50	127
33.57528344671202	33.90036281179138	49	127
33.57528344671202	33.90036281179138	37	127
33.57528344671202	33.69138321995465	54	127
33.69138321995465	33.79587301587301	57	127
33.79587301587301	33.90036281179138	66	127
33.90036281179138	34.17900226757369	35	127
33.90036281179138	34.00485260770975	66	127
33.90036281179138	34.17900226757369	47	127
34.00485260770975	34.086122448979594	57	127
34.09773242630386	34.17900226757369	54	127
34.17900226757369	34.4924716553288	45	127
34.17900226757369	34.4924716553288	33	127
34.4924716553288	34.8175283446712	43	127
34.4924716553288	34.62018140589569	54	127
34.4924716553288	34.8175283446712	31	127
34.62018140589569	34.72467120181406	62	127
34.736281179138324	34.8175283446712	66	127
34.8175283446712	34.88721088435374	66	127
34.8175283446712	35.04975056689342	42	127
34.8175283446712	35.04975056689342	30	127
34.88721088435374	34.95684807256236	62	127
34.95684807256236	35.04975056689342	54	127
35.04975056689342	35.38643990929705	28	127
35.04975056689342	35.38643990929705	40	127
35.38643990929705	35.69990929705215	38	127
35.38643990929705	35.69990929705215	26	127
35.49092970521542	35.59541950113379	53	127
35.59541950113379	35.69990929705215	62	127
35.59541950113379	35.69990929705215	65	127
35.69990929705215	35.99015873015873	27	127
35.69990929705215	35.99015873015873	39	127
35.781179138321995	35.8740589569161	54	127
35.885668934240364	35.97854875283447	62	127
35.885668934240364	35.97854875283447	66	127
35.99015873015873	36.28040816326531	40	127
35.99015873015873	36.28040816326531	28	127
36.083015873015874	36.164308390022676	55	127
36.164308390022676	36.28040816326531	67	127
36.164308390022676	36.28040816326531	62	127
36.28040816326531	36.61709750566894	41	127
36.28040816326531	36.61709750566894	29	127
36.384897959183675	36.489387755102044	56	127
36.500997732426306	36.60546485260771	62	127
36.500997732426306	36.60546485260771	68	127
36.61709750566894	36.872517006802724	30	127
36.61709750566894	36.872517006802724	42	127
36.709977324263036	36.814467120181405	57	127
36.814467120181405	36.91895691609977	69	127
36.814467120181405	36.91895691609977	62	127
36.91895691609977	37.01183673469388	43	127
37.01183673469388	37.10469387755102	50	127
37.11632653061225	37.20920634920635	55	127
37.22081632653061	37.313696145124716	50	127
37.313696145124716	37.418185941043085	58	127
37.371746031746035	37.534285714285716	79	127
37.418185941043085	37.534285714285716	62	127
37.534285714285716	37.685215419501134	50	127
37.534285714285716	37.90580498866213	82	127
37.685215419501134	37.77809523809524	58	127
37.7897052154195	37.89419501133787	62	127
37.90580498866213	38.0102947845805	52	127
37.90580498866213	38.35859410430839	81	127
38.0102947845805	38.114761904761906	58	127
38.114761904761906	38.20766439909297	62	127
38.20766439909297	38.31215419501134	52	127
38.31215419501134	38.405034013605444	58	127
38.35859410430839	38.521133786848075	79	127
38.41664399092971	38.50952380952381	62	127
38.521133786848075	38.834603174603174	78	127
38.521133786848075	38.614013605442175	51	127
38.614013605442175	38.71850340136054	58	127
38.71850340136054	38.834603174603174	61	127
38.834603174603174	39.32222222222222	81	127
38.834603174603174	38.93909297052154	43	127
38.93909297052154	39.03197278911565	50	127
39.04358276643991	39.14807256235828	55	127
39.15968253968254	39.264149659863946	50	127
39.264149659863946	39.36866213151927	58	127
39.32222222222222	39.496371882086166	79	127
39.36866213151927	39.496371882086166	62	127
39.496371882086166	39.85628117913832	82	127
39.496371882086166	39.6124716553288	50	127
39.6124716553288	39.716961451247165	58	127
39.72857142857143	39.84467120181406	62	127
39.85628117913832	39.96077097505669	52	127
39.85628117913832	40.34390022675737	81	127
39.96077097505669	40.06526077097506	58	127
40.06526077097506	40.19297052154195	62	127
40.19297052154195	40.29746031746032	52	127
40.29746031746032	40.39034013605442	58	127
40.34390022675737	40.56448979591837	79	127
40.401927437641724	40.55287981859411	62	127
40.56448979591837	40.85473922902494	78	127
40.56448979591837	40.65734693877551	51	127
40.65734693877551	40.750249433106575	58	127
40.750249433106575	40.85473922902494	61	127
40.85473922902494	40.98244897959184	43	127
40.85473922902494	41.34235827664399	81	127
40.98244897959184	41.07532879818594	50	127
41.086938775510205	41.17981859410431	55	127
41.191428571428574	41.284285714285716	50	127
41.284285714285716	41.38879818594104	58	127
41.34235827664399	41.516507936507935	79	127
41.38879818594104	41.516507936507935	62	127
41.516507936507935	41.620997732426304	50	127
41.516507936507935	41.88802721088435	82	127
41.620997732426304	41.7487074829932	58	127
41.76031746031746	41.87641723356009	62	127
41.88802721088435	41.99251700680272	62	127
41.88802721088435	42.36403628117914	86	127
41.99251700680272	42.09700680272109	58	127
42.09700680272109	42.20149659863946	56	127
42.20149659863946	42.31759637188209	62	127
42.31759637188209	42.41047619047619	58	127
42.36403628117914	42.52657596371882	84	127
42.42208616780045	42.51496598639456	56	127
42.52657596371882	43.002585034013606	84	127
42.52657596371882	42.64267573696145	62	127
42.64267573696145	42.74716553287982	58	127
42.74716553287982	42.85165532879819	56	127
42.85165532879819	42.956145124716556	62	127
42.956145124716556	43.049024943310656	58	127
43.002585034013606	43.199931972789116	80	127
43.06061224489796	43.188321995464854	56	127
43.199931972789116	43.29283446712018	63	127
43.199931972789116	43.6643537414966	80	127
43.29283446712018	43.40893424036281	60	127
43.40893424036281	43.51342403628118	56	127
43.51342403628118	43.61791383219955	64	127
43.61791383219955	43.710793650793654	61	127
43.6643537414966	43.86172335600907	77	127
43.72240362811792	43.86172335600907	56	127
43.873333333333335	45.23167800453515	77	127
43.873333333333335	43.96621315192744	65	127
43.96621315192744	44.0707029478458	62	127
44.0707029478458	44.18680272108843	55	127
44.18680272108843	44.302902494331065	65	127
44.302902494331065	44.39578231292517	62	127
44.40739229024943	44.50027210884354	55	127
44.5118820861678	44.60476190476191	65	127
44.60476190476191	44.70922902494331	62	127
44.70922902494331	44.81374149659864	55	127
44.81374149659864	44.91823129251701	65	127
44.91823129251701	45.01111111111111	62	127
45.022721088435375	45.11560090702948	55	127
45.127210884353744	45.23167800453515	65	127
45.23167800453515	45.37102040816327	62	127
45.289750566893424	45.47548752834467	77	127
45.37102040816327	45.47548752834467	55	127
45.47548752834467	45.59160997732426	53	127
45.47548752834467	45.84702947845805	79	127
45.59160997732426	45.70770975056689	59	127
45.719319727891154	45.835419501133785	62	127
45.84702947845805	46.323038548752834	78	127
45.84702947845805	45.939909297052154	54	127
45.939909297052154	46.056009070294785	59	127
46.056009070294785	46.172108843537416	63	127
46.172108843537416	46.276598639455784	54	127
46.276598639455784	46.38108843537415	59	127
46.323038548752834	46.53201814058957	76	127
46.392698412698415	46.48555555555556	63	127
46.53201814058957	46.86868480725624	75	127
46.53201814058957	46.6481179138322	57	127
46.6481179138322	46.76421768707483	59	127
46.76421768707483	46.86868480725624	63	127
46.86868480725624	47.367936507936506	78	127
46.86868480725624	46.984807256235825	47	127
46.984807256235825	47.07768707482993	55	127
47.089297052154194	47.1821768707483	59	127
47.19378684807256	47.29827664399093	55	127
47.29827664399093	47.41437641723356	59	127
47.367936507936506	47.51886621315193	77	127
47.41437641723356	47.51886621315193	62	127
47.51886621315193	47.86716553287982	79	127
47.51886621315193	47.646575963718824	53	127
47.646575963718824	47.751065759637186	59	127
47.76267573696145	47.855555555555554	62	127
47.86716553287982	48.3431746031746	78	127
47.86716553287982	47.96004535147392	54	127
47.96004535147392	48.076145124716554	59	127
48.076145124716554	48.192244897959185	63	127
48.192244897959185	48.29673469387755	54	127
48.29673469387755	48.38961451247165	59	127
48.3431746031746	48.505714285714284	76	127
48.401224489795915	48.49410430839002	63	127
48.505714285714284	48.80757369614513	75	127
48.505714285714284	48.59859410430839	57	127
48.59859410430839	48.70308390022676	59	127
48.70308390022676	48.80757369614513	63	127
48.80757369614513	48.958503401360545	47	127
48.80757369614513	49.36485260770975	78	127
48.958503401360545	49.08621315192744	55	127
49.0978231292517	49.20231292517007	59	127
49.21392290249433	49.30680272108844	55	127
49.30680272108844	49.4112925170068	59	127
49.36485260770975	49.51578231292517	77	127
49.4112925170068	49.51578231292517	62	127
49.51578231292517	49.6318820861678	53	127
49.51578231292517	49.86408163265306	79	127
49.6318820861678	49.74798185941043	59	127
49.75959183673469	49.8524716553288	62	127
49.86408163265306	49.96857142857143	63	127
49.86408163265306	50.328480725623585	78	127
49.96857142857143	50.0730612244898	59	127
50.0730612244898	50.17755102040816	54	127
50.17755102040816	50.28204081632653	63	127
50.28204081632653	50.3865306122449	59	127
50.328480725623585	50.491020408163266	75	127
50.3865306122449	50.479410430839	54	127
50.491020408163266	50.595510204081634	63	127
50.491020408163266	50.827709750566896	75	127
50.595510204081634	50.711609977324265	59	127
50.711609977324265	50.827709750566896	51	127
50.827709750566896	50.93219954648526	58	127
50.827709750566896	50.978639455782314	75	127
50.93219954648526	51.036689342403626	54	127
50.978639455782314	51.15278911564626	70	127
51.036689342403626	51.141179138321995	46	127
51.15278911564626	51.61718820861678	70	127
51.15278911564626	51.24566893424036	58	127
51.24566893424036	51.35015873015873	54	127
51.35015873015873	51.4546485260771	46	127
51.4546485260771	51.55913832199546	58	127
51.55913832199546	51.67523809523809	54	127
51.61718820861678	51.82616780045351	62	127
51.67523809523809	51.82616780045351	46	127
51.83777777777778	52.53437641723356	62	127
51.965487528344674	52.069977324263036	58	127
52.069977324263036	52.19768707482993	50	127
52.19768707482993	52.3021768707483	62	127
52.3021768707483	52.42988662131519	58	127
52.42988662131519	52.5227664399093	50	127
52.53437641723356	52.627256235827666	62	127
52.53437641723356	52.789795918367346	67	127
52.627256235827666	52.731746031746034	58	127
52.731746031746034	52.836235827664396	50	127
52.836235827664396	52.940725623582765	62	127
52.940725623582765	53.03360544217687	58	127
53.03360544217687	53.13809523809524	50	127
53.161315192743764	53.25419501133787	62	127
53.25419501133787	53.35868480725624	58	127
53.35868480725624	53.47478458049886	50	127
53.47478458049886	53.57927437641723	62	127
53.57927437641723	53.706984126984125	58	127
53.706984126984125	53.823083900226756	50	127
53.83469387755102	55.69229024943311	36	127
53.83469387755102	53.927573696145124	64	127
53.927573696145124	54.03206349206349	58	127
54.03206349206349	54.13655328798186	52	127
54.13655328798186	54.24104308390023	65	127
54.24104308390023	54.357142857142854	58	127
54.357142857142854	54.46163265306122	53	127
54.473242630385485	54.56612244897959	64	127
54.56612244897959	54.67061224489796	58	127
54.67061224489796	54.77510204081633	52	127
54.77510204081633	54.8795918367347	67	127
54.8795918367347	54.99569160997732	58	127
54.99569160997732	55.08857142857143	55	127
55.11179138321995	55.22789115646258	65	127
55.22789115646258	55.343990929705214	58	127
55.343990929705214	55.44848072562358	53	127
55.44848072562358	55.55297052154195	64	127
55.55297052154195	55.65746031746032	58	127
55.65746031746032	55.77356009070295	52	127
55.78517006802721	55.87804988662131	50	127
55.78517006802721	57.642766439909295	31	127
55.78517006802721	57.642766439909295	43	127
55.87804988662131	55.98253968253968	58	127
55.98253968253968	56.08702947845805	62	127
56.08702947845805	56.21473922902494	51	127
56.21473922902494	56.30761904761905	58	127
56.30761904761905	56.400498866213155	62	127
56.41210884353742	56.52820861678005	50	127
56.52820861678005	56.64430839002267	58	127
56.64430839002267	56.74879818594104	62	127
56.74879818594104	56.85328798185941	53	127
56.85328798185941	56.96938775510204	58	127
56.96938775510204	57.06226757369615	62	127
57.07387755102041	57.17836734693878	51	127
57.17836734693878	57.28285714285714	58	127
57.28285714285714	57.41056689342403	62	127
57.41056689342403	57.5150566893424	50	127
57.5150566893424	57.61954648526077	58	127
57.61954648526077	57.712426303854876	62	127
57.7356462585034	59.60485260770975	36	127
57.7356462585034	57.82852607709751	64	127
57.84013605442177	57.933015873015876	58	127
57.933015873015876	58.07233560090703	52	127
58.07233560090703	58.200045351473925	65	127
58.200045351473925	58.30453514739229	58	127
58.30453514739229	58.39741496598639	53	127
58.409024943310655	58.4902947845805	64	127
58.50190476190476	58.59478458049887	58	127
58.59478458049887	58.699274376417236	52	127
58.699274376417236	58.83859410430839	67	127
58.83859410430839	58.94308390022676	58	127
58.94308390022676	59.03596371882086	55	127
59.04757369614512	59.15206349206349	65	127
59.16367346938775	59.25655328798186	58	127
59.25655328798186	59.37265306122449	53	127
59.37265306122449	59.47714285714286	64	127
59.47714285714286	59.58163265306123	58	127
59.58163265306123	59.70934240362812	52	127
59.72095238095238	61.578548752834465	36	127
59.72095238095238	59.848662131519276	52	127
59.72095238095238	61.578548752834465	48	127
59.86027210884354	59.953151927437645	57	127
59.953151927437645	60.06925170068027	64	127
60.06925170068027	60.1853514739229	53	127
60.1853514739229	60.28984126984127	57	127
60.28984126984127	60.382721088435375	64	127
60.39433106575964	60.48721088435374	52	127
60.498820861678006	60.59170068027211	57	127
60.59170068027211	60.707800453514736	64	127
60.707800453514736	60.812290249433104	55	127
60.812290249433104	60.91678004535147	57	127
60.91678004535147	60.99804988662132	64	127
61.00965986394558	61.102539682539685	53	127
61.11414965986395	61.20702947845805	57	127
61.20702947845805	61.32312925170068	64	127
61.32312925170068	61.43922902494331	52	127
61.43922902494331	61.55532879818594	57	127
61.55532879818594	61.648208616780046	64	127
61.65981859410431	63.4825850340136	36	127
61.65981859410431	61.752698412698415	65	127
61.76430839002268	61.85718820861678	58	127
61.85718820861678	61.961678004535145	52	127
61.961678004535145	62.06616780045351	67	127
62.06616780045351	62.17065759637188	58	127
62.17065759637188	62.28675736961451	55	127
62.298367346938775	62.39124716553288	65	127
62.402857142857144	62.49573696145125	58	127
62.49573696145125	62.60022675736961	53	127
62.60022675736961	62.70471655328798	69	127
62.70471655328798	62.80920634920635	58	127
62.80920634920635	62.91369614512472	57	127
62.92530612244898	63.018185941043086	67	127
63.02979591836735	63.122675736961455	58	127
63.122675736961455	63.227165532879816	55	127
63.227165532879816	63.331655328798185	65	127
63.331655328798185	63.45936507936508	58	127
63.45936507936508	63.56385487528345	53	127
63.57546485260771	65.45625850340136	38	127
63.57546485260771	63.668344671201815	53	127
63.67995464852608	63.772834467120184	56	127
63.772834467120184	63.877324263038545	59	127
63.877324263038545	64.00503401360544	53	127
64.00503401360544	64.10952380952381	56	127
64.10952380952381	64.20240362811792	59	127
64.21401360544218	64.31850340136054	53	127
64.33011337868481	64.42299319727891	56	127
64.42299319727891	64.53909297052154	59	127
64.53909297052154	64.6435827664399	56	127
64.6435827664399	64.78290249433107	59	127
64.78290249433107	64.88739229024944	62	127
64.91061224489796	65.07312925170068	55	127
65.0847619047619	65.18925170068027	56	127
65.18925170068027	65.3053514739229	59	127
65.3053514739229	65.40984126984127	53	127
65.40984126984127	65.51433106575963	56	127
65.45625850340136	65.87424036281179	33	127
65.51433106575963	65.60721088435375	59	127
65.53755102040816	65.87424036281179	45	127
65.618820861678	66.22251700680272	72	127
65.618820861678	66.22251700680272	76	127
65.618820861678	66.22251700680272	81	127
65.618820861678	66.22251700680272	84	127
65.9438775510204	66.24575963718821	57	127
65.9438775510204	66.24575963718821	60	127
65.9438775510204	66.24575963718821	52	127
66.32700680272109	66.58242630385487	69	127
66.32700680272109	66.58242630385487	57	127
66.32700680272109	66.58242630385487	81	127
66.66371882086167	66.94235827664399	50	127
66.66371882086167	66.94235827664399	38	127
66.66371882086167	67.29065759637189	65	127
66.66371882086167	67.29065759637189	69	127
66.66371882086167	67.29065759637189	74	127
66.66371882086167	67.29065759637189	77	127
67.01201814058957	67.31387755102041	53	127
67.01201814058957	67.31387755102041	57	127
67.01201814058957	67.31387755102041	62	127
67.36031746031746	67.65056689342404	74	127
67.36031746031746	67.65056689342404	50	127
67.36031746031746	67.65056689342404	62	127
67.70861678004535	67.99886621315193	71	127
67.70861678004535	67.99886621315193	55	127
67.70861678004535	67.99886621315193	43	127
67.70861678004535	67.99886621315193	64	127
67.70861678004535	67.99886621315193	67	127
67.70861678004535	67.99886621315193	76	127
68.04530612244898	68.31233560090703	79	127
68.04530612244898	68.31233560090703	67	127
68.04530612244898	68.31233560090703	55	127
68.04530612244898	68.31233560090703	59	127
68.04530612244898	68.31233560090703	64	127
68.37036281179138	68.52131519274377	59	127
68.37036281179138	68.66063492063492	71	127
68.37036281179138	68.66063492063492	83	127
68.52131519274377	68.97410430839003	36	127
68.6374149659864	68.97410430839003	48	127
68.70707482993197	69.27596371882086	84	127
68.70707482993197	69.27596371882086	88	127
68.70707482993197	69.27596371882086	79	127
68.70707482993197	69.27596371882086	76	127
69.03215419501134	69.29918367346939	55	127
69.03215419501134	69.29918367346939	60	127
69.03215419501134	69.29918367346939	64	127
69.34562358276644	69.61265306122449	72	127
69.34562358276644	69.61265306122449	84	127
69.34562358276644	69.61265306122449	60	127
69.75195011337868	70.30925170068028	69	127
69.75195011337868	70.00736961451247	41	127
69.75195011337868	70.00736961451247	53	127
69.75195011337868	70.30925170068028	72	127
69.75195011337868	70.30925170068028	77	127
69.75195011337868	70.30925170068028	81	127
70.05383219954649	70.3324716553288	57	127
70.05383219954649	70.3324716553288	60	127
70.05383219954649	70.3324716553288	65	127
70.41371882086167	70.68077097505669	77	127
70.41371882086167	70.68077097505669	53	127
70.41371882086167	70.68077097505669	65	127
70.73882086167801	70.9942403628118	71	127
70.73882086167801	70.9942403628118	43	127
70.73882086167801	70.9942403628118	55	127
70.73882086167801	70.9942403628118	64	127
70.73882086167801	70.9942403628118	67	127
70.73882086167801	70.9942403628118	76	127
71.05229024943311	71.35414965986395	79	127
71.05229024943311	71.35414965986395	64	127
71.05229024943311	71.35414965986395	59	127
71.05229024943311	71.35414965986395	67	127
71.05229024943311	71.35414965986395	55	127
71.400589569161	71.66759637188208	71	127
71.400589569161	71.66759637188208	83	127
71.400589569161	71.66759637188208	59	127
71.79530612244898	72.32938775510205	33	127
71.79530612244898	72.32938775510205	45	127
72.09718820861679	72.35260770975057	72	127
72.09718820861679	72.35260770975057	76	127
72.09718820861679	72.35260770975057	81	127
72.09718820861679	72.35260770975057	84	127
72.41065759637188	72.70090702947846	36	127
72.41065759637188	72.70090702947846	48	127
72.74734693877551	73.3510657596372	38	127
72.74734693877551	73.3510657596372	50	127
73.13047619047619	73.36267573696145	74	127
73.13047619047619	73.36267573696145	69	127
73.13047619047619	73.36267573696145	77	127
73.13047619047619	73.36267573696145	65	127
73.4091156462585	73.66453514739229	53	127
73.4091156462585	73.66453514739229	41	127
73.73419501133787	74.26825396825397	43	127
73.73419501133787	74.26825396825397	55	127
74.03605442176871	74.2914739229025	79	127
74.03605442176871	74.2914739229025	67	127
74.03605442176871	74.2914739229025	71	127
74.03605442176871	74.2914739229025	76	127
74.34952380952382	74.63977324263038	52	127
74.34952380952382	74.63977324263038	40	127
74.68621315192743	75.27832199546485	36	127
74.68621315192743	75.27832199546485	48	127
75.04612244897959	75.30154195011337	76	127
75.04612244897959	75.30154195011337	79	127
75.04612244897959	75.30154195011337	84	127
75.04612244897959	75.30154195011337	88	127
75.34795918367347	75.62662131519275	52	127
75.34795918367347	75.62662131519275	40	127
75.68467120181406	76.2187074829932	41	127
75.68467120181406	76.2187074829932	53	127
75.98650793650793	76.24192743764172	69	127
75.98650793650793	76.24192743764172	72	127
75.98650793650793	76.24192743764172	77	127
75.98650793650793	76.24192743764172	81	127
76.3	76.54380952380953	45	127
76.3	76.54380952380953	57	127
76.59024943310658	77.13589569160997	55	127
76.59024943310658	77.13589569160997	43	127
76.90371882086168	77.21718820861678	67	127
76.90371882086168	77.21718820861678	71	127
76.90371882086168	77.21718820861678	76	127
76.90371882086168	77.21718820861678	79	127
77.2752380952381	77.60031746031746	52	127
77.2752380952381	77.60031746031746	40	127
77.65836734693877	78.20403628117914	45	127
77.65836734693877	78.20403628117914	72	127
77.65836734693877	78.20403628117914	33	127
77.97183673469388	78.22725623582767	76	127
77.97183673469388	78.22725623582767	81	127
77.97183673469388	78.22725623582767	84	127
78.28530612244899	78.61038548752835	48	127
78.28530612244899	78.61038548752835	69	127
78.28530612244899	78.61038548752835	36	127
78.6568253968254	79.26054421768707	65	127
78.6568253968254	79.26054421768707	38	127
78.6568253968254	79.26054421768707	50	127
79.02832199546485	79.28374149659864	69	127
79.02832199546485	79.28374149659864	74	127
79.02832199546485	79.28374149659864	77	127
79.33020408163266	79.58562358276644	62	127
79.33020408163266	79.58562358276644	41	127
79.33020408163266	79.58562358276644	53	127
79.64365079365079	79.9222902494331	60	127
79.64365079365079	80.20095238095239	40	127
79.64365079365079	80.20095238095239	52	127
79.96875283446713	80.22417233560091	64	127
79.96875283446713	80.22417233560091	76	127
79.96875283446713	80.22417233560091	72	127
79.96875283446713	80.22417233560091	67	127
80.28219954648526	80.53761904761905	48	127
80.28219954648526	80.53761904761905	67	127
80.28219954648526	80.53761904761905	36	127
80.58408163265307	81.14136054421769	72	127
80.58408163265307	81.14136054421769	33	127
80.58408163265307	81.14136054421769	45	127
80.89755102040816	81.16458049886621	69	127
80.89755102040816	81.16458049886621	60	127
80.89755102040816	81.16458049886621	64	127
81.23424036281179	81.50126984126985	69	127
81.23424036281179	81.50126984126985	48	127
81.23424036281179	81.50126984126985	36	127
81.5592970521542	82.18625850340136	50	127
81.5592970521542	82.18625850340136	65	127
81.5592970521542	82.18625850340136	38	127
81.94242630385487	82.20947845804989	62	127
81.94242630385487	82.20947845804989	57	127
82.2675283446712	82.52294784580499	53	127
82.2675283446712	82.52294784580499	62	127
82.2675283446712	82.52294784580499	41	127
82.56938775510204	82.83639455782313	60	127
82.56938775510204	83.13827664399093	52	127
82.56938775510204	83.13827664399093	40	127
82.8944671201814	83.16149659863946	64	127
82.8944671201814	83.16149659863946	55	127
82.8944671201814	83.16149659863946	60	127
83.20793650793651	83.4633560090703	67	127
83.20793650793651	83.4633560090703	36	127
83.20793650793651	83.4633560090703	48	127
83.52140589569161	84.07868480725624	72	127
83.52140589569161	84.05546485260771	33	127
83.52140589569161	84.05546485260771	45	127
83.82326530612245	84.07868480725624	69	127
83.82326530612245	84.07868480725624	60	127
83.82326530612245	84.07868480725624	64	127
84.13673469387756	84.4037641723356	36	127
84.13673469387756	84.4037641723356	48	127
84.13673469387756	85.06553287981859	69	127
84.45020408163265	85.04231292517007	45	127
84.45020408163265	85.04231292517007	33	127
84.8101133786848	85.06553287981859	57	127
84.8101133786848	85.06553287981859	64	127
85.11195011337868	85.35578231292517	36	127
85.11195011337868	85.35578231292517	48	127
85.41383219954649	85.94789115646259	45	127
85.41383219954649	85.94789115646259	33	127
85.71569160997733	85.97111111111111	57	127
85.71569160997733	85.97111111111111	52	127
86.06399092970521	86.33102040816327	36	127
86.06399092970521	86.33102040816327	48	127
86.06399092970521	86.65609977324263	57	127
86.37746031746032	86.95795918367347	33	127
86.37746031746032	86.95795918367347	45	127
86.71414965986395	86.98117913832199	57	127
87.02759637188208	87.30625850340137	48	127
87.02759637188208	87.30625850340137	60	127
87.02759637188208	87.30625850340137	36	127
87.36430839002267	87.84031746031746	33	127
87.36430839002267	87.84031746031746	45	127
87.6081179138322	87.86353741496599	57	127
87.93319727891156	88.18861678004535	36	127
87.93319727891156	88.18861678004535	60	127
87.93319727891156	88.18861678004535	48	127
88.2350566893424	88.78072562358277	33	127
88.2350566893424	88.78072562358277	45	127
88.56013605442178	88.80394557823129	57	127
88.85038548752834	89.12902494331065	36	127
88.85038548752834	89.12902494331065	48	127
88.85038548752834	89.12902494331065	60	127
89.18707482993197	89.69791383219955	33	127
89.18707482993197	89.69791383219955	45	127
89.46571428571428	89.72113378684807	60	127
89.79077097505669	90.04619047619047	57	127
89.79077097505669	90.04619047619047	36	127
89.79077097505669	90.04619047619047	48	127
90.11587301587302	90.63832199546485	45	127
90.11587301587302	90.63832199546485	33	127
90.40612244897959	90.66154195011337	60	127
90.70795918367347	90.92857142857143	48	127
90.70795918367347	90.92857142857143	57	127
90.70795918367347	90.92857142857143	36	127
90.98662131519275	91.46263038548753	33	127
90.98662131519275	91.46263038548753	45	127
91.26526077097506	91.48585034013605	60	127
91.54390022675737	91.69482993197279	48	127
91.54390022675737	91.69482993197279	57	127
91.54390022675737	91.69482993197279	36	127
91.74126984126984	92.26371882086168	45	127
91.74126984126984	92.26371882086168	33	127
92.03151927437642	92.28693877551021	60	127
92.33337868480726	92.60038548752834	36	127
92.33337868480726	92.60038548752834	57	127
92.33337868480726	92.60038548752834	48	127
92.64684807256236	93.14607709750567	45	127
92.64684807256236	93.14607709750567	33	127
92.9487074829932	93.18090702947846	60	127
93.22734693877551	93.47113378684807	36	127
93.22734693877551	93.47113378684807	57	127
93.22734693877551	93.47113378684807	48	127
93.51759637188209	94.0168253968254	34	127
93.51759637188209	94.0168253968254	46	127
93.80784580498866	94.04004535147392	58	127
94.08648526077097	94.35351473922903	55	127
94.08648526077097	94.35351473922903	38	127
94.08648526077097	94.35351473922903	50	127
94.39995464852608	94.93401360544217	36	127
94.39995464852608	94.93401360544217	48	127
94.70181405895691	94.96884353741497	54	127
95.02689342403629	95.2707029478458	38	127
95.02689342403629	95.2707029478458	57	127
95.02689342403629	95.2707029478458	50	127
95.31714285714285	95.8395918367347	46	127
95.31714285714285	95.8395918367347	34	127
95.60739229024944	95.86281179138322	55	127
95.90925170068027	96.17628117913833	33	127
95.90925170068027	96.17628117913833	45	127
95.90925170068027	96.17628117913833	60	127
96.22272108843538	96.73356009070295	34	127
96.22272108843538	96.73356009070295	46	127
96.50136054421769	96.76839002267573	55	127
96.8148299319728	97.05863945578231	43	127
96.8148299319728	97.05863945578231	58	127
96.8148299319728	97.05863945578231	31	127
97.10507936507936	97.63913832199546	33	127
97.10507936507936	97.63913832199546	45	127
97.43015873015872	97.66235827664399	53	127
97.70879818594105	97.96421768707484	34	127
97.70879818594105	97.96421768707484	55	127
97.70879818594105	97.96421768707484	46	127
98.01065759637189	98.52149659863946	36	127
98.01065759637189	98.52149659863946	48	127
98.30090702947845	98.55632653061224	57	127
98.6027664399093	98.88140589569161	38	127
98.6027664399093	98.88140589569161	50	127
98.6027664399093	98.88140589569161	58	127
98.92784580498866	99.45029478458049	51	127
98.92784580498866	99.45029478458049	39	127
99.21809523809524	99.47351473922903	60	127
99.5431746031746	99.81020408163265	43	127
99.5431746031746	99.81020408163265	62	127
99.5431746031746	99.81020408163265	55	127
99.85664399092971	100.37909297052154	40	127
99.85664399092971	100.37909297052154	52	127
100.13528344671202	100.41392290249433	61	127
100.46036281179138	100.71578231292517	55	127
100.46036281179138	100.71578231292517	64	127
100.46036281179138	100.71578231292517	43	127
100.76222222222222	101.29628117913832	53	127
100.76222222222222	101.29628117913832	41	127
101.06408163265306	101.31950113378684	62	127
101.3659410430839	101.60975056689342	57	127
101.3659410430839	101.60975056689342	45	127
101.3659410430839	101.60975056689342	65	127
101.64458049886622	102.13219954648527	55	127
101.64458049886622	102.13219954648527	43	127
101.93482993197279	102.16702947845805	64	127
102.2134693877551	102.48049886621315	41	127
102.2134693877551	102.48049886621315	62	127
102.2134693877551	102.48049886621315	53	127
102.53854875283447	103.04938775510205	40	127
102.53854875283447	103.04938775510205	52	127
102.81718820861678	103.07260770975057	61	127
103.13065759637188	103.39768707482993	39	127
103.13065759637188	103.39768707482993	60	127
103.13065759637188	103.39768707482993	51	127
103.44412698412698	103.93174603174603	38	127
103.44412698412698	103.93174603174603	50	127
103.73437641723356	103.96657596371882	58	127
104.01301587301587	104.24521541950114	63	127
104.01301587301587	104.24521541950114	36	127
104.01301587301587	104.24521541950114	48	127
104.30326530612246	104.82571428571428	46	127
104.30326530612246	104.82571428571428	34	127
104.58190476190477	104.84893424036281	62	127
104.90698412698413	105.16240362811791	44	127
104.90698412698413	105.16240362811791	32	127
104.90698412698413	105.16240362811791	65	127
105.20884353741496	105.71968253968254	31	127
105.20884353741496	105.71968253968254	43	127
105.49909297052154	105.75451247165533	59	127
105.80095238095238	106.02154195011337	53	127
105.80095238095238	106.02154195011337	62	127
105.80095238095238	106.02154195011337	41	127
106.07959183673469	106.56721088435374	40	127
106.07959183673469	106.56721088435374	52	127
106.33501133786848	106.59043083900227	55	127
106.33501133786848	106.59043083900227	67	127
106.63687074829932	106.90390022675737	50	127
106.63687074829932	106.90390022675737	53	127
106.63687074829932	106.90390022675737	65	127
106.63687074829932	106.90390022675737	38	127
106.95034013605442	107.49600907029479	36	127
106.95034013605442	107.49600907029479	48	127
107.26380952380953	107.53083900226757	57	127
107.26380952380953	107.53083900226757	69	127
107.57727891156462	107.8326984126984	55	127
107.57727891156462	107.8326984126984	67	127
107.57727891156462	107.8326984126984	34	127
107.57727891156462	107.8326984126984	46	127
107.89074829931972	108.04167800453514	45	127
107.89074829931972	108.04167800453514	53	127
108.04167800453514	108.19260770975056	60	127
108.19260770975056	108.34353741496598	75	127
108.34353741496598	108.49446712018141	65	127
108.50607709750567	108.65700680272109	63	127
108.65700680272109	108.8079365079365	75	127
108.8079365079365	108.95886621315192	46	127
108.8079365079365	108.95886621315192	53	127
108.95886621315192	109.10979591836735	58	127
109.12140589569161	109.27233560090703	75	127
109.27233560090703	109.41165532879819	67	127
109.41165532879819	109.56258503401361	63	127
109.56258503401361	109.73673469387755	75	127
109.74834467120182	109.89927437641724	48	127
109.74834467120182	109.89927437641724	53	127
109.89927437641724	110.05020408163266	57	127
110.05020408163266	110.20113378684808	75	127
110.20113378684808	110.36367346938775	63	127
110.36367346938775	110.50299319727891	77	127
110.50299319727891	110.6655328798186	65	127
110.6655328798186	110.82807256235827	46	127
110.6655328798186	110.82807256235827	53	127
110.6655328798186	110.82807256235827	79	127
110.82807256235827	110.97900226757369	58	127
110.82807256235827	110.99061224489796	67	127
110.99061224489796	111.14154195011338	72	127
111.14154195011338	111.2924716553288	60	127
111.2924716553288	111.45501133786848	74	127
111.45501133786848	111.6059410430839	62	127
111.61755102040816	111.75687074829932	53	127
111.61755102040816	111.75687074829932	45	127
111.75687074829932	111.90780045351474	60	127
111.90780045351474	112.05873015873016	75	127
112.05873015873016	112.20965986394557	65	127
112.22126984126984	112.37219954648526	63	127
112.37219954648526	112.48829931972789	75	127
112.48829931972789	112.6392290249433	46	127
112.48829931972789	112.6392290249433	53	127
112.6392290249433	112.79015873015874	58	127
112.80176870748299	112.95269841269841	75	127
112.95269841269841	113.10362811791383	67	127
113.10362811791383	113.25455782312925	63	127
113.25455782312925	113.41709750566893	75	127
113.4287074829932	113.57963718820862	48	127
113.4287074829932	113.57963718820862	53	127
113.57963718820862	113.73056689342404	57	127
113.73056689342404	113.86988662131519	75	127
113.86988662131519	114.03242630385488	63	127
114.03242630385488	114.1833560090703	77	127
114.1833560090703	114.33428571428571	65	127
114.33428571428571	114.52004535147393	53	127
114.33428571428571	114.52004535147393	46	127
114.33428571428571	114.52004535147393	79	127
114.52004535147393	114.67097505668934	58	127
114.52004535147393	114.6825850340136	67	127
114.6825850340136	114.83351473922903	72	127
114.83351473922903	114.94961451247165	60	127
114.94961451247165	115.10054421768707	74	127
115.10054421768707	115.25147392290249	62	127
115.26308390022676	115.40240362811791	45	127
115.26308390022676	115.40240362811791	54	127
115.40240362811791	115.55333333333333	60	127
115.55333333333333	115.70426303854876	75	127
115.70426303854876	115.86680272108843	66	127
115.8784126984127	116.02934240362812	63	127
116.02934240362812	116.18027210884354	75	127
116.18027210884354	116.34281179138323	46	127
116.18027210884354	116.34281179138323	54	127
116.34281179138323	116.49374149659864	58	127
116.5053514739229	116.65628117913832	73	127
116.65628117913832	116.80721088435374	65	127
116.80721088435374	116.96975056689342	61	127
116.96975056689342	117.10907029478459	73	127
117.12068027210884	117.27160997732426	47	127
117.12068027210884	117.27160997732426	54	127
117.27160997732426	117.42253968253968	58	127
117.42253968253968	117.5734693877551	75	127
117.5734693877551	117.73600907029478	63	127
117.73600907029478	117.8869387755102	77	127
117.8869387755102	118.03786848072562	65	127
118.03786848072562	118.18879818594104	78	127
118.03786848072562	118.8621768707483	49	127
118.03786848072562	118.29328798185941	59	127
118.18879818594104	118.35133786848073	66	127
118.35133786848073	118.60675736961451	58	127
118.35133786848073	118.50226757369614	71	127
118.50226757369614	118.65319727891156	59	127
118.65319727891156	118.78090702947846	74	127
118.65319727891156	118.88539682539682	56	127
118.78090702947846	118.92022675736962	62	127
118.93183673469387	120.70816326530613	30	127
118.93183673469387	120.70816326530613	42	127
119.23369614512471	119.4891156462585	76	127
119.23369614512471	119.4891156462585	64	127
119.23369614512471	119.4891156462585	70	127
119.23369614512471	119.4891156462585	73	127
119.54716553287982	119.79097505668935	52	127
119.54716553287982	119.79097505668935	58	127
119.54716553287982	119.79097505668935	61	127
120.18571428571428	120.42952380952381	76	127
120.18571428571428	120.42952380952381	72	127
120.18571428571428	120.42952380952381	69	127
120.18571428571428	120.42952380952381	64	127
120.47596371882086	120.73138321995465	52	127
120.47596371882086	120.73138321995465	57	127
120.47596371882086	120.73138321995465	60	127
120.80104308390023	121.64857142857143	42	127
120.80104308390023	121.64857142857143	30	127
121.0912925170068	121.3467120181406	69	127
121.0912925170068	121.3467120181406	63	127
121.0912925170068	121.3467120181406	71	127
121.0912925170068	121.3467120181406	75	127
121.4047619047619	121.67179138321995	59	127
121.4047619047619	121.67179138321995	57	127
121.4047619047619	121.67179138321995	51	127
121.718231292517	122.26390022675737	31	127
121.718231292517	122.26390022675737	43	127
122.03170068027211	122.2871201814059	67	127
122.03170068027211	122.2871201814059	70	127
122.03170068027211	122.2871201814059	74	127
122.03170068027211	122.2871201814059	62	127
122.33356009070295	122.56575963718821	34	127
122.33356009070295	122.56575963718821	46	127
122.600589569161	123.1346485260771	31	127
122.600589569161	123.1346485260771	43	127
122.90244897959184	123.15786848072563	63	127
122.90244897959184	123.15786848072563	67	127
122.90244897959184	123.15786848072563	70	127
122.90244897959184	123.15786848072563	75	127
123.21591836734694	123.47133786848073	34	127
123.21591836734694	123.47133786848073	46	127
123.51777777777778	124.04022675736961	31	127
123.51777777777778	124.04022675736961	43	127
123.80802721088435	124.06344671201813	63	127
123.80802721088435	124.06344671201813	58	127
123.80802721088435	124.06344671201813	67	127
123.80802721088435	124.06344671201813	70	127
124.1098866213152	124.36530612244898	46	127
124.1098866213152	124.36530612244898	34	127
124.42335600907029	126.15324263038549	30	127
124.42335600907029	126.15324263038549	42	127
124.7368253968254	124.99224489795918	76	127
124.7368253968254	124.99224489795918	64	127
124.7368253968254	124.99224489795918	70	127
124.7368253968254	124.99224489795918	73	127
125.0502947845805	125.29410430839002	52	127
125.0502947845805	125.29410430839002	61	127
125.0502947845805	125.29410430839002	58	127
125.6191836734694	125.87460317460318	69	127
125.6191836734694	125.87460317460318	64	127
125.6191836734694	125.87460317460318	72	127
125.6191836734694	125.87460317460318	76	127
125.92104308390023	126.17646258503402	52	127
125.92104308390023	126.17646258503402	60	127
125.92104308390023	126.17646258503402	57	127
126.23451247165534	127.0007709750567	30	127
126.23451247165534	127.0007709750567	42	127
126.50154195011338	126.73374149659864	63	127
126.50154195011338	126.73374149659864	69	127
126.50154195011338	126.73374149659864	71	127
126.50154195011338	126.73374149659864	75	127
126.79179138321996	127.02399092970522	57	127
126.79179138321996	127.02399092970522	59	127
126.79179138321996	127.02399092970522	51	127
127.08204081632653	127.63931972789116	31	127
127.08204081632653	127.63931972789116	43	127
127.41873015873016	127.66253968253969	70	127
127.41873015873016	127.66253968253969	76	127
127.41873015873016	127.66253968253969	64	127
127.41873015873016	127.66253968253969	67	127
127.70897959183674	127.95278911564625	34	127
127.70897959183674	127.95278911564625	46	127
128.01083900226757	128.52167800453515	31	127
128.01083900226757	128.52167800453515	43	127
128.3126984126984	128.5448979591837	63	127
128.3126984126984	128.5448979591837	67	127
128.3126984126984	128.5448979591837	71	127
128.3126984126984	128.5448979591837	75	127
128.60292517006803	128.86997732426303	35	127
128.60292517006803	128.86997732426303	47	127
128.91641723356008	129.47367346938776	31	127
128.91641723356008	129.47367346938776	43	127
129.2298866213152	129.49691609977324	69	127
129.2298866213152	129.49691609977324	64	127
129.2298866213152	129.49691609977324	73	127
129.2298866213152	129.49691609977324	76	127
129.5433560090703	129.79877551020408	33	127
129.5433560090703	129.79877551020408	45	127
129.8568253968254	130.0193650793651	62	127
129.8568253968254	130.0193650793651	54	127
130.0193650793651	130.1702947845805	69	127
130.1702947845805	130.32122448979592	84	127
130.32122448979592	130.4489342403628	74	127
130.46054421768707	130.6114739229025	72	127
130.6114739229025	130.7624036281179	84	127
130.7624036281179	130.91333333333333	55	127
130.7624036281179	130.91333333333333	62	127
130.91333333333333	131.0526530612245	67	127
131.06426303854875	131.21519274376416	84	127
131.21519274376416	131.36612244897958	75	127
131.36612244897958	131.52866213151927	72	127
131.52866213151927	131.6795918367347	84	127
131.69120181405896	131.85374149659864	62	127
131.69120181405896	131.85374149659864	57	127
131.85374149659864	132.00467120181406	66	127
132.00467120181406	132.15560090702948	84	127
132.15560090702948	132.31814058956917	72	127
132.31814058956917	132.4690702947846	86	127
132.4690702947846	132.60839002267574	74	127
132.60839002267574	132.75931972789115	62	127
132.60839002267574	132.75931972789115	55	127
132.60839002267574	132.75931972789115	88	127
132.75931972789115	132.89861678004536	76	127
132.75931972789115	132.88702947845806	67	127
132.89861678004536	133.04954648526078	81	127
133.04954648526078	133.2004761904762	69	127
133.2004761904762	133.35142857142858	83	127
133.35142857142858	133.502358276644	71	127
133.51396825396824	133.66487528344672	63	127
133.51396825396824	133.66487528344672	54	127
133.66487528344672	133.81580498866214	69	127
133.81580498866214	133.96673469387756	84	127
133.96673469387756	134.1292970521542	75	127
134.14090702947846	134.2802267573696	72	127
134.2802267573696	134.43113378684808	84	127
134.43113378684808	134.5820634920635	63	127
134.43113378684808	134.5820634920635	55	127
134.5936961451247	134.68655328798187	67	127
134.69818594104308	134.8491156462585	82	127
134.8491156462585	135.00004535147391	74	127
135.00004535147391	135.1393650793651	70	127
135.15097505668933	135.2902947845805	82	127
135.3018820861678	135.44122448979593	56	127
135.3018820861678	135.44122448979593	63	127
135.44122448979593	135.59215419501135	67	127
135.59215419501135	135.7314739229025	83	127
135.7314739229025	135.8824036281179	71	127
135.8824036281179	136.05655328798187	84	127
136.05655328798187	136.2074829931973	72	127
136.2074829931973	136.37	86	127
136.2074829931973	137.97219954648526	57	127
136.2074829931973	136.82281179138323	60	127
136.2074829931973	137.0434013605442	66	127
136.37	136.5209523809524	74	127
136.5209523809524	136.6718820861678	89	127
136.6718820861678	136.82281179138323	77	127
136.82281179138323	136.9505215419501	87	127
136.82281179138323	137.0434013605442	62	127
136.9505215419501	137.10145124716553	75	127
137.10145124716553	137.25238095238095	86	127
137.10145124716553	137.97219954648526	65	127
137.10145124716553	137.97219954648526	63	127
137.25238095238095	137.40331065759636	74	127
137.40331065759636	137.56585034013605	83	127
137.56585034013605	137.71678004535147	71	127
137.71678004535147	137.89092970521543	84	127
137.89092970521543	138.06507936507936	72	127
138.06507936507936	138.21600907029477	58	127
138.06507936507936	138.21600907029477	62	127
138.22761904761904	138.37854875283446	69	127
138.37854875283446	138.51784580498867	89	127
138.51784580498867	138.6804081632653	81	127
138.6804081632653	138.83133786848072	77	127
138.84294784580499	138.9822448979592	89	127
138.9822448979592	139.1215873015873	58	127
138.9822448979592	139.1215873015873	65	127
139.1215873015873	139.26090702947846	69	127
139.26090702947846	139.41183673469388	85	127
139.41183673469388	139.5627664399093	73	127
139.5627664399093	139.72530612244898	86	127
139.72530612244898	139.8762358276644	74	127
139.8762358276644	140.71215419501135	68	127
139.8762358276644	139.95750566893423	88	127
139.8762358276644	140.43351473922903	62	127
139.8762358276644	141.64095238095237	59	127
139.95750566893423	140.12004535147392	76	127
140.12004535147392	140.27097505668934	91	127
140.27097505668934	140.43351473922903	79	127
140.43351473922903	140.60766439909298	89	127
140.43351473922903	140.71215419501135	64	127
140.60766439909298	140.7701814058957	77	127
140.7701814058957	141.64095238095237	65	127
140.7701814058957	140.9443537414966	88	127
140.7701814058957	141.64095238095237	67	127
140.9443537414966	141.1068934240363	76	127
141.1068934240363	141.2578231292517	85	127
141.2578231292517	141.4203628117914	73	127
141.4203628117914	141.5712925170068	86	127
141.5712925170068	141.71061224489796	74	127
141.71061224489796	143.42886621315193	48	127
141.71061224489796	143.42886621315193	36	127
141.86154195011338	142.00086167800453	52	127
142.00086167800453	142.151768707483	60	127
142.00086167800453	142.151768707483	55	127
142.151768707483	142.29111111111112	64	127
142.29111111111112	142.43043083900227	52	127
142.44204081632654	142.62780045351474	64	127
142.77873015873016	142.91802721088436	54	127
142.91802721088436	143.05736961451248	62	127
142.91802721088436	143.05736961451248	57	127
143.06895691609978	143.19668934240363	66	127
143.19668934240363	143.34761904761905	54	127
143.35922902494332	143.51015873015874	66	127
143.51015873015874	144.33446712018142	48	127
143.51015873015874	144.33446712018142	36	127
143.66108843537415	143.81201814058957	55	127
143.81201814058957	143.95133786848072	64	127
143.81201814058957	143.95133786848072	60	127
143.962947845805	144.1138775510204	67	127
144.1138775510204	144.25319727891156	57	127
144.26480725623583	144.40412698412698	69	127
144.40412698412698	147.10922902494332	36	127
144.40412698412698	147.10922902494332	24	127
144.56666666666666	144.71759637188208	58	127
144.71759637188208	144.88013605442177	63	127
144.88013605442177	145.04267573696146	67	127
145.04267573696146	145.1819954648526	70	127
145.1819954648526	145.3445351473923	75	127
145.3445351473923	145.4954648526077	46	127
145.3445351473923	145.4954648526077	79	127
145.4954648526077	145.64639455782313	51	127
145.4954648526077	145.64639455782313	82	127
145.64639455782313	145.83213151927438	87	127
145.64639455782313	145.83213151927438	55	127
145.83213151927438	145.9830612244898	58	127
145.83213151927438	145.9830612244898	91	127
145.9830612244898	146.12240362811792	63	127
145.9830612244898	146.12240362811792	87	127
146.12240362811792	146.29655328798185	82	127
146.12240362811792	146.29655328798185	67	127
146.29655328798185	146.43587301587303	79	127
146.29655328798185	146.43587301587303	70	127
146.43587301587303	146.58680272108845	75	127
146.58680272108845	146.7261224489796	70	127
146.7261224489796	146.86544217687074	67	127
146.877052154195	147.01637188208616	63	127
147.01637188208616	147.17891156462585	58	127
147.19052154195012	148.94362811791385	48	127
147.19052154195012	148.94362811791385	36	127
147.32984126984127	147.46916099773242	52	127
147.48077097505669	147.65492063492064	60	127
147.48077097505669	147.65492063492064	55	127
147.65492063492064	147.81746031746033	64	127
147.82907029478457	147.98	52	127
147.98	148.11931972789117	64	127
148.27024943310659	148.40956916099773	54	127
148.421179138322	148.56049886621315	62	127
148.421179138322	148.56049886621315	57	127
148.56049886621315	148.71142857142857	66	127
148.72303854875284	148.87396825396826	54	127
148.87396825396826	149.0132879818594	66	127
149.02489795918368	149.86081632653062	48	127
149.02489795918368	149.86081632653062	36	127
149.1758276643991	149.3267573696145	55	127
149.3267573696145	149.47768707482993	60	127
149.3267573696145	149.47768707482993	64	127
149.47768707482993	149.64022675736962	67	127
149.64022675736962	149.79115646258504	57	127
149.79115646258504	149.93047619047618	69	127
149.93047619047618	152.58916099773242	36	127
149.93047619047618	152.58916099773242	24	127
150.0814058956916	150.23233560090702	58	127
150.23233560090702	150.40648526077098	63	127
150.40648526077098	150.5574149659864	67	127
150.5574149659864	150.70834467120181	70	127
150.70834467120181	150.85927437641723	75	127
150.85927437641723	151.01020408163265	79	127
150.85927437641723	151.01020408163265	46	127
151.01020408163265	151.16113378684807	51	127
151.01020408163265	151.16113378684807	82	127
151.16113378684807	151.30043083900227	87	127
151.16113378684807	151.30043083900227	55	127
151.3120634920635	151.4629931972789	58	127
151.3120634920635	151.4629931972789	91	127
151.4629931972789	151.6255328798186	87	127
151.4629931972789	151.6255328798186	63	127
151.63714285714286	151.78807256235828	67	127
151.63714285714286	151.78807256235828	82	127
151.78807256235828	151.92739229024943	70	127
151.78807256235828	151.92739229024943	79	127
151.9390022675737	152.08993197278912	75	127
152.08993197278912	152.22925170068027	70	127
152.24086167800453	152.38018140589568	67	127
152.38018140589568	152.5078911564626	63	127
152.51950113378686	152.658820861678	58	127
152.658820861678	153.4831292517007	52	127
152.8213605442177	152.96068027210885	55	127
152.96068027210885	153.1	61	127
152.96068027210885	153.1	57	127
153.11160997732426	153.2509297052154	67	127
153.2509297052154	153.40185941043083	57	127
153.2509297052154	153.40185941043083	61	127
153.4134693877551	153.5760090702948	55	127
153.5760090702948	155.43360544217688	51	127
153.761768707483	153.9126984126984	54	127
153.9126984126984	154.05201814058958	56	127
153.9126984126984	154.05201814058958	60	127
154.05201814058958	154.2261678004535	66	127
154.2261678004535	154.36546485260772	56	127
154.2261678004535	154.36546485260772	60	127
154.36546485260772	154.55124716553289	54	127
154.76022675736962	154.91115646258504	54	127
154.91115646258504	155.0504761904762	60	127
154.91115646258504	155.0504761904762	56	127
155.0504761904762	155.2014058956916	66	127
155.2014058956916	155.35233560090703	60	127
155.2014058956916	155.35233560090703	56	127
155.35233560090703	155.53809523809525	54	127
155.53809523809525	158.09229024943312	34	127
155.53809523809525	158.09229024943312	46	127
155.6774149659864	155.81673469387755	53	127
155.82834467120182	155.96766439909297	62	127
155.96766439909297	156.1185941043084	65	127
156.13020408163266	156.28113378684807	65	127
156.28113378684807	156.42045351473922	74	127
156.4320634920635	156.57138321995464	77	127
156.57138321995464	156.71070294784582	77	127
156.72231292517006	156.86163265306124	86	127
156.86163265306124	157.00095238095238	89	127
157.01256235827665	157.1518820861678	86	127
157.1518820861678	157.29120181405895	77	127
157.30281179138322	157.44213151927437	77	127
157.44213151927437	157.58145124716555	74	127
157.5930612244898	157.73238095238096	65	127
157.73238095238096	157.8717006802721	65	127
157.88331065759638	158.02263038548753	62	127
158.02263038548753	158.17356009070295	53	127
158.17356009070295	159.0326984126984	52	127
158.32448979591837	158.46380952380952	55	127
158.46380952380952	158.6263492063492	61	127
158.46380952380952	158.6263492063492	57	127
158.6263492063492	158.80049886621316	67	127
158.80049886621316	158.95142857142858	61	127
158.80049886621316	158.95142857142858	57	127
158.95142857142858	159.102358276644	55	127
159.102358276644	160.71614512471655	51	127
159.27648526077098	159.4158276643991	54	127
159.4158276643991	159.55514739229025	56	127
159.4158276643991	159.55514739229025	60	127
159.55514739229025	159.6828344671202	66	127
159.6828344671202	159.8337641723356	56	127
159.6828344671202	159.8337641723356	60	127
159.8337641723356	159.96149659863946	54	127
160.11242630385487	160.21691609977324	54	127
160.21691609977324	160.3562358276644	60	127
160.21691609977324	160.3562358276644	56	127
160.36784580498866	160.4839455782313	66	127
160.4839455782313	160.62326530612245	60	127
160.4839455782313	160.62326530612245	56	127
160.63487528344672	160.78580498866214	54	127
160.78580498866214	163.39804988662132	34	127
160.78580498866214	163.39804988662132	46	127
160.95993197278912	161.12249433106575	53	127
161.12249433106575	161.26181405895693	62	127
161.27342403628117	161.40113378684808	65	127
161.40113378684808	161.54045351473923	65	127
161.5520634920635	161.69138321995464	74	127
161.69138321995464	161.83068027210885	77	127
161.84231292517006	161.99324263038548	77	127
161.99324263038548	162.13256235827666	86	127
162.1441723356009	162.28349206349208	89	127
162.28349206349208	162.4344217687075	86	127
162.4344217687075	162.5853514739229	77	127
162.5853514739229	162.72467120181406	77	127
162.72467120181406	162.87560090702948	74	127
162.87560090702948	163.01492063492063	65	127
163.01492063492063	163.16585034013605	65	127
163.16585034013605	163.31678004535146	62	127
163.31678004535146	163.46768707482994	53	127
163.46768707482994	166.1031746031746	34	127
163.46768707482994	166.1031746031746	46	127
163.61861678004536	163.79278911564626	53	127
163.79278911564626	163.95532879818595	62	127
163.95532879818595	164.11786848072563	65	127
164.11786848072563	164.25718820861678	65	127
164.25718820861678	164.4081179138322	74	127
164.4081179138322	164.54743764172335	77	127
164.54743764172335	164.68675736961453	77	127
164.69836734693877	164.84929705215418	86	127
164.84929705215418	164.98861678004536	89	127
165.00020408163266	165.13954648526078	86	127
165.13954648526078	165.27886621315193	77	127
165.2904761904762	165.42979591836735	77	127
165.42979591836735	165.58072562358277	74	127
165.59233560090703	165.73165532879818	65	127
165.73165532879818	165.8825850340136	65	127
165.89419501133787	166.03351473922902	62	127
166.03351473922902	166.17281179138322	53	127
166.18444444444444	168.78507936507935	34	127
166.18444444444444	168.78507936507935	46	127
166.32376417233561	166.47469387755103	53	127
166.48630385487527	166.63721088435375	62	127
166.63721088435375	166.77655328798187	65	127
166.77655328798187	166.9274829931973	65	127
166.9274829931973	167.06680272108844	74	127
167.06680272108844	167.21773242630385	77	127
167.21773242630385	167.357052154195	77	127
167.357052154195	167.50798185941042	86	127
167.50798185941042	167.6473015873016	89	127
167.6473015873016	167.79823129251702	86	127
167.79823129251702	167.93755102040816	77	127
167.93755102040816	168.08848072562358	77	127
168.08848072562358	168.26263038548754	74	127
168.26263038548754	168.41356009070296	65	127
168.41356009070296	168.5528798185941	65	127
168.5528798185941	168.7154195011338	62	127
168.7154195011338	168.85473922902494	53	127
168.85473922902494	171.37410430839003	34	127
168.85473922902494	171.37410430839003	46	127
169.01727891156463	169.16820861678005	53	127
169.16820861678005	169.31913832199547	62	127
169.33074829931974	169.47006802721089	65	127
169.47006802721089	169.60938775510203	65	127
169.6209977324263	169.76031746031745	74	127
169.76031746031745	169.89963718820863	77	127
169.91124716553287	170.05056689342405	77	127
170.05056689342405	170.17827664399093	86	127
170.1898866213152	170.32920634920634	89	127
170.32920634920634	170.45691609977325	86	127
170.46850340136055	170.60784580498867	77	127
170.60784580498867	170.74716553287982	77	127
170.7587755102041	170.88648526077097	74	127
170.88648526077097	171.02580498866214	65	127
171.0374149659864	171.15351473922902	65	127
171.15351473922902	171.29283446712017	62	127
171.29283446712017	171.4437641723356	53	127
171.4437641723356	173.9282993197279	34	127
171.4437641723356	173.9282993197279	46	127
171.58308390022677	171.7340136054422	53	127
171.7340136054422	171.87333333333333	62	127
171.87333333333333	172.02426303854875	65	127
172.02426303854875	172.1635827664399	65	127
172.1635827664399	172.30290249433108	74	127
172.30290249433108	172.44222222222223	77	127
172.44222222222223	172.58154195011338	77	127
172.58154195011338	172.72086167800452	86	127
172.72086167800452	172.8601814058957	89	127
172.8601814058957	172.98789115646258	86	127
172.98789115646258	173.1271882086168	77	127
173.138820861678	173.2781179138322	77	127
173.2781179138322	173.41746031746032	74	127
173.4290702947846	173.56839002267574	65	127
173.56839002267574	173.7077097505669	65	127
173.71931972789116	173.84702947845804	62	127
173.84702947845804	173.99793650793652	53	127
174.00956916099773	176.51732426303855	46	127
174.00956916099773	176.51732426303855	34	127
174.1140589569161	174.26498866213151	53	127
174.26498866213151	174.41591836734693	62	127
174.41591836734693	174.56684807256235	65	127
174.56684807256235	174.70616780045353	65	127
174.70616780045353	174.85709750566895	74	127
174.8687074829932	175.00802721088436	77	127
175.01961451247166	175.1473469387755	77	127
175.15895691609978	175.29827664399093	86	127
175.3098866213152	175.4724263038549	89	127
175.4724263038549	175.64657596371882	86	127
175.64657596371882	175.79750566893424	77	127
175.79750566893424	175.82072562358277	77	127
175.82072562358277	175.93680272108844	74	127
175.93680272108844	176.0645351473923	65	127
176.07614512471656	176.23868480725625	65	127
176.23868480725625	176.42444444444445	62	127
176.42444444444445	176.55213151927438	53	127
176.55213151927438	176.79596371882087	34	127
176.55213151927438	176.79596371882087	46	127
176.84240362811792	176.93528344671202	53	127
176.93528344671202	177.02816326530612	58	127
177.02816326530612	177.0978231292517	62	127
177.10943310657598	177.20231292517008	62	127
177.20231292517008	177.29519274376418	58	127
177.30680272108845	177.4112925170068	53	127
177.4112925170068	177.6782993197279	46	127
177.4112925170068	177.6782993197279	34	127
177.72473922902495	177.81764172335602	53	127
177.81764172335602	177.89891156462585	58	127
177.89891156462585	177.98015873015873	62	127
177.99179138321995	178.0730612244898	62	127
178.0730612244898	178.15433106575964	58	127
178.15433106575964	178.23557823129252	53	127
178.23557823129252	178.50263038548752	34	127
178.23557823129252	178.50263038548752	46	127
178.54907029478457	178.65356009070294	53	127
178.6651700680272	178.76965986394558	58	127
178.76965986394558	178.89736961451248	62	127
178.89736961451248	178.99024943310658	62	127
178.99024943310658	179.09473922902495	58	127
179.09473922902495	179.18761904761905	53	127
179.19922902494332	179.44303854875284	46	127
179.19922902494332	179.44303854875284	34	127
179.4894784580499	179.61716553287982	55	127
179.61716553287982	179.7100680272109	62	127
179.7100680272109	179.81455782312926	64	127
179.81455782312926	179.90743764172336	64	127
179.91904761904763	180.00031746031746	62	127
180.00031746031746	180.09319727891156	55	127
180.10480725623583	180.33698412698413	45	127
180.10480725623583	180.33698412698413	33	127
180.38342403628118	180.48791383219955	55	127
180.48791383219955	180.58081632653062	61	127
180.59240362811792	180.67369614512472	64	127
180.67369614512472	180.76657596371882	64	127
180.7781859410431	180.8710657596372	61	127
180.8710657596372	180.97555555555556	55	127
180.97555555555556	181.21936507936508	46	127
180.97555555555556	181.21936507936508	34	127
181.2774149659864	181.3702947845805	56	127
181.3702947845805	181.4631746031746	62	127
181.4631746031746	181.55605442176872	66	127
181.55605442176872	181.66052154195012	66	127
181.66052154195012	181.7534240362812	62	127
181.7534240362812	181.8463038548753	56	127
181.8463038548753	182.10172335600907	39	127
181.8463038548753	182.10172335600907	27	127
182.1597732426304	182.24104308390022	58	127
182.24104308390022	182.3455328798186	62	127
182.3455328798186	182.4384126984127	67	127
182.4384126984127	182.53126984126985	67	127
182.53126984126985	182.62417233560092	62	127
182.63575963718822	182.7518820861678	58	127
182.7518820861678	183.00730158730158	40	127
182.7518820861678	183.00730158730158	28	127
183.05374149659863	183.1465986394558	61	127
183.1465986394558	183.2511111111111	67	127
183.2511111111111	183.34399092970523	69	127
183.35560090702947	183.42526077097506	69	127
183.42526077097506	183.50650793650794	67	127
183.51814058956916	183.61102040816326	61	127
183.61102040816326	183.86643990929704	29	127
183.61102040816326	183.86643990929704	41	127
183.91285714285715	184.00575963718822	62	127
184.01734693877552	184.09863945578232	67	127
184.09863945578232	184.19151927437642	70	127
184.2031292517007	184.2960090702948	70	127
184.2960090702948	184.40049886621316	67	127
184.40049886621316	184.49337868480725	62	127
184.49337868480725	184.73718820861677	31	127
184.49337868480725	184.73718820861677	43	127
184.78360544217688	184.87650793650795	64	127
184.8881179138322	184.98099773242632	70	127
184.98099773242632	185.07387755102042	72	127
185.07387755102042	185.14353741496598	72	127
185.14353741496598	185.2364172335601	70	127
185.2364172335601	185.3408843537415	64	127
185.3525170068027	185.61954648526077	34	127
185.3525170068027	185.61954648526077	46	127
185.66598639455782	185.7704761904762	64	127
185.7704761904762	185.8633560090703	69	127
185.8633560090703	185.96784580498866	72	127
185.96784580498866	186.0607029478458	72	127
186.07233560090702	186.16521541950112	69	127
186.16521541950112	186.24648526077098	64	127
186.25809523809525	186.50190476190477	45	127
186.25809523809525	186.50190476190477	33	127
186.54834467120182	186.6528344671202	64	127
186.6528344671202	186.73410430839002	67	127
186.74571428571429	186.83859410430838	73	127
186.83859410430838	186.91986394557824	73	127
186.93145124716554	187.01274376417234	67	127
187.01274376417234	187.1172335600907	64	127
187.1172335600907	187.3726530612245	26	127
187.1172335600907	187.3726530612245	38	127
187.43070294784582	187.53519274376418	65	127
187.53519274376418	187.62807256235828	70	127
187.63968253968255	187.74414965986395	74	127
187.74414965986395	187.84863945578232	74	127
187.84863945578232	187.9415419501134	70	127
187.9415419501134	188.04603174603176	65	127
188.04603174603176	188.61489795918368	40	127
188.3711111111111	188.47560090702947	62	127
188.47560090702947	188.5917006802721	67	127
188.5917006802721	188.6845804988662	70	127
188.6845804988662	188.81229024943312	70	127
188.6845804988662	188.96321995464854	41	127
188.81229024943312	188.90517006802722	67	127
188.90517006802722	189.0096598639456	62	127
189.0096598639456	189.54371882086167	43	127
189.31151927437642	189.55532879818594	62	127
189.31151927437642	189.55532879818594	65	127
189.31151927437642	189.7526984126984	58	127
189.601768707483	189.7526984126984	64	127
189.601768707483	189.85718820861678	48	127
189.7526984126984	189.90362811791383	52	127
189.90362811791383	190.1590476190476	36	127
190.20548752834466	190.68149659863946	65	127
190.20548752834466	190.4492970521542	60	127
190.20548752834466	190.4492970521542	38	127
190.20548752834466	190.4492970521542	53	127
190.5421768707483	190.7975963718821	50	127
190.5421768707483	190.68149659863946	58	127
190.68149659863946	190.84403628117914	53	127
190.84403628117914	191.44775510204082	46	127
191.1691156462585	191.47097505668935	68	127
191.1691156462585	191.47097505668935	65	127
191.1691156462585	191.66834467120182	61	127
191.52902494331065	191.66834467120182	67	127
191.52902494331065	191.76122448979592	51	127
191.66834467120182	191.80766439909297	55	127
191.80766439909297	192.06308390022676	39	127
192.1095238095238	192.38816326530613	56	127
192.1095238095238	192.38816326530613	63	127
192.1095238095238	192.38816326530613	41	127
192.1095238095238	192.6087528344671	68	127
192.43460317460318	192.6087528344671	61	127
192.43460317460318	192.69002267573697	53	127
192.6087528344671	192.72485260770975	56	127
192.73646258503402	193.22408163265305	49	127
193.00349206349208	193.2473015873016	68	127
193.00349206349208	193.2473015873016	71	127
193.00349206349208	193.44467120181406	64	127
193.29374149659864	193.44467120181406	70	127
193.29374149659864	193.53755102040816	54	127
193.44467120181406	193.5839909297052	58	127
193.60721088435375	193.85102040816327	42	127
193.89746031746031	194.1528798185941	59	127
193.89746031746031	194.1528798185941	66	127
193.89746031746031	194.1528798185941	44	127
193.89746031746031	194.35024943310657	71	127
194.19931972789115	194.35024943310657	64	127
194.19931972789115	194.45473922902494	47	127
194.35024943310657	194.501179138322	59	127
194.501179138322	194.88430839002268	40	127
194.501179138322	194.88430839002268	28	127
194.88430839002268	195.1977777777778	42	127
194.88430839002268	195.1977777777778	30	127
195.1977777777778	195.30226757369616	59	127
195.1977777777778	195.49963718820862	32	127
195.1977777777778	195.49963718820862	44	127
195.30226757369616	195.39514739229026	64	127
195.39514739229026	195.49963718820862	71	127
195.49963718820862	195.77827664399092	33	127
195.49963718820862	195.77827664399092	45	127
195.77827664399092	196.04530612244898	35	127
195.77827664399092	196.04530612244898	47	127
196.04530612244898	196.3471655328798	48	127
196.04530612244898	196.3471655328798	36	127
196.04530612244898	196.14979591836735	57	127
196.14979591836735	196.24267573696144	64	127
196.25428571428571	196.3471655328798	69	127
196.3471655328798	196.66063492063492	38	127
196.3471655328798	196.66063492063492	50	127
196.66063492063492	196.9508843537415	36	127
196.66063492063492	196.9508843537415	48	127
196.9508843537415	197.0437641723356	57	127
196.9508843537415	197.2295238095238	34	127
196.9508843537415	197.2295238095238	46	127
197.0437641723356	197.1366439909297	65	127
197.14825396825398	197.2295238095238	69	127
197.2295238095238	197.54299319727892	45	127
197.2295238095238	197.54299319727892	33	127
197.54299319727892	197.83324263038548	31	127
197.54299319727892	197.83324263038548	43	127
197.83324263038548	198.1467120181406	29	127
197.83324263038548	198.1467120181406	41	127
197.83324263038548	197.92612244897958	57	127
197.92612244897958	198.04222222222222	62	127
198.04222222222222	198.1467120181406	69	127
198.1467120181406	198.4601814058957	28	127
198.1467120181406	198.4601814058957	40	127
198.4601814058957	198.72721088435375	29	127
198.4601814058957	198.72721088435375	41	127
198.72721088435375	199.00585034013605	31	127
198.72721088435375	199.00585034013605	43	127
198.72721088435375	198.82009070294785	57	127
198.82009070294785	198.90136054421768	62	127
198.90136054421768	198.99424036281178	69	127
199.00585034013605	199.3077097505669	29	127
199.00585034013605	199.3077097505669	41	127
199.3077097505669	199.621179138322	31	127
199.3077097505669	199.621179138322	43	127
199.621179138322	199.92303854875283	34	127
199.621179138322	199.7140589569161	57	127
199.621179138322	199.92303854875283	46	127
199.72566893424036	199.81854875283446	62	127
199.81854875283446	199.91142857142856	69	127
199.92303854875283	200.22489795918366	33	127
199.92303854875283	200.22489795918366	45	127
200.22489795918366	200.51514739229026	43	127
200.51514739229026	200.8402267573696	41	127
200.51514739229026	200.60802721088436	50	127
200.61963718820863	200.724126984127	57	127
200.724126984127	200.8402267573696	62	127
200.8402267573696	201.1536961451247	40	127
201.1536961451247	201.44394557823128	38	127
201.44394557823128	201.74580498866214	36	127
201.44394557823128	201.54843537414965	50	127
201.54843537414965	201.64131519274378	57	127
201.64131519274378	201.74580498866214	62	127
201.74580498866214	202.00122448979593	34	127
202.05927437641722	202.14054421768708	53	127
202.14054421768708	202.24503401360545	58	127
202.24503401360545	202.33791383219955	62	127
202.33791383219955	202.44240362811792	62	127
202.44240362811792	202.53528344671201	58	127
202.53528344671201	202.63977324263038	53	127
202.63977324263038	202.89519274376417	34	127
202.63977324263038	202.89519274376417	46	127
202.9532426303855	203.0461224489796	55	127
203.0461224489796	203.15061224489796	62	127
203.15061224489796	203.24349206349206	64	127
203.24349206349206	203.34798185941042	64	127
203.34798185941042	203.44086167800452	62	127
203.4524716553288	203.5453514739229	55	127
203.5453514739229	203.78916099773244	45	127
203.5453514739229	203.78916099773244	33	127
203.82399092970522	203.91687074829932	55	127
203.91687074829932	204.02136054421769	61	127
204.02136054421769	204.11424036281178	64	127
204.12585034013605	204.21873015873015	64	127
204.21873015873015	204.28839002267574	61	127
204.3	204.3928798185941	55	127
204.3928798185941	204.65990929705217	46	127
204.3928798185941	204.65990929705217	34	127
204.70634920634922	204.79922902494332	56	127
204.81083900226758	204.90371882086168	62	127
204.90371882086168	204.99659863945578	66	127
205.00820861678005	205.10108843537415	66	127
205.10108843537415	205.2171882086168	62	127
205.2171882086168	205.29845804988662	56	127
205.29845804988662	205.4958276643991	39	127
205.29845804988662	205.4958276643991	27	127
205.54226757369614	205.623537414966	58	127
205.63514739229024	205.75124716553287	62	127
205.75124716553287	205.85573696145124	67	127
205.85573696145124	205.94861678004534	67	127
205.94861678004534	206.07632653061225	62	127
206.07632653061225	206.16920634920635	58	127
206.18081632653062	206.45945578231292	40	127
206.18081632653062	206.45945578231292	28	127
206.50589569160996	206.61038548752833	61	127
206.61038548752833	206.7148752834467	67	127
206.7148752834467	206.81936507936507	69	127
206.81936507936507	206.90063492063493	69	127
206.91224489795917	207.0051247165533	67	127
207.0051247165533	207.0980045351474	61	127
207.10961451247167	207.3418140589569	34	127
207.10961451247167	207.3418140589569	46	127
207.3766439909297	207.48113378684806	62	127
207.48113378684806	207.5740136054422	67	127
207.58562358276643	207.67850340136056	70	127
207.67850340136056	207.77138321995466	70	127
207.7829931972789	207.87587301587303	65	127
207.87587301587303	207.9803628117914	62	127
207.9803628117914	208.2241723356009	34	127
207.9803628117914	208.2241723356009	46	127
208.28222222222223	208.36349206349206	64	127
208.36349206349206	208.45637188208616	70	127
208.46798185941043	208.56086167800453	72	127
208.56086167800453	208.65374149659863	72	127
208.65374149659863	208.76984126984127	70	127
208.76984126984127	208.87433106575963	64	127
208.87433106575963	209.09492063492064	34	127
208.87433106575963	209.09492063492064	46	127
209.15297052154196	209.24585034013606	64	127
209.24585034013606	209.35034013605443	69	127
209.35034013605443	209.43160997732426	72	127
209.43160997732426	209.53609977324263	72	127
209.53609977324263	209.62897959183672	69	127
209.640589569161	209.7334693877551	64	127
209.7334693877551	209.98888888888888	33	127
209.7334693877551	209.98888888888888	45	127
210.03532879818593	210.12820861678006	64	127
210.12820861678006	210.23269841269843	67	127
210.23269841269843	210.32557823129252	73	127
210.33718820861677	210.41845804988662	73	127
210.41845804988662	210.51133786848072	67	127
210.522947845805	210.6158276643991	64	127
210.6158276643991	211.45174603174604	38	127
210.6158276643991	211.45174603174604	26	127
210.91768707482993	211.0221768707483	57	127
211.03378684807257	211.12666666666667	66	127
211.12666666666667	211.21954648526076	69	127
211.23115646258503	211.32403628117913	69	127
211.32403628117913	211.4285260770975	66	127
211.4285260770975	211.5214058956916	57	127
211.5214058956916	212.35732426303855	30	127
211.5214058956916	212.35732426303855	42	127
211.82326530612244	211.91614512471656	57	127
211.91614512471656	211.9974149659864	62	127
211.9974149659864	212.10190476190476	69	127
212.10190476190476	212.20639455782313	69	127
212.20639455782313	212.33410430839	62	127
212.33410430839	212.42698412698414	57	127
212.43859410430838	213.00748299319727	47	127
212.74045351473922	212.91460317460317	56	127
212.74045351473922	212.91460317460317	62	127
212.91460317460317	213.07714285714286	61	127
213.07714285714286	213.23968253968255	62	127
213.07714285714286	213.34417233560092	40	127
213.23968253968255	213.40222222222224	56	127
213.41383219954648	213.92467120181405	41	127
213.5647619047619	213.6924716553288	56	127
213.6924716553288	213.84340136054422	63	127
213.84340136054422	213.9711111111111	68	127
213.9711111111111	214.1336507936508	61	127
213.9711111111111	214.24975056689343	49	127
214.1336507936508	214.29619047619047	56	127
214.29619047619047	214.84185941043083	47	127
214.5980498866213	214.74897959183673	56	127
214.5980498866213	214.74897959183673	62	127
214.74897959183673	214.91151927437642	61	127
214.91151927437642	215.21337868480725	40	127
214.91151927437642	215.10888888888888	62	127
215.10888888888888	215.2598185941043	56	127
215.2598185941043	215.80548752834468	41	127
215.41074829931972	215.58489795918368	56	127
215.58489795918368	215.72421768707483	63	127
215.72421768707483	215.87514739229024	68	127
215.87514739229024	216.02607709750566	61	127
215.87514739229024	216.13056689342403	49	127
216.02607709750566	216.17700680272108	56	127
216.17700680272108	216.69945578231292	37	127
216.4904761904762	216.62979591836734	58	127
216.4904761904762	216.62979591836734	64	127
216.62979591836734	216.7691156462585	63	127
216.7691156462585	216.92004535147393	64	127
216.7691156462585	217.01292517006803	42	127
216.92004535147393	217.05936507936508	58	127
217.05936507936508	217.57020408163265	43	127
217.22190476190477	217.36122448979592	58	127
217.36122448979592	217.50054421768706	65	127
217.50054421768706	217.63986394557824	70	127
217.63986394557824	217.7791836734694	63	127
217.63986394557824	217.90689342403627	51	127
217.7791836734694	217.95333333333335	58	127
217.95333333333335	218.47578231292516	39	127
218.25519274376418	218.4061224489796	66	127
218.25519274376418	218.4061224489796	60	127
218.4061224489796	218.55705215419502	65	127
218.55705215419502	218.73120181405895	66	127
218.55705215419502	218.82408163265305	44	127
218.73120181405895	218.87052154195013	60	127
218.87052154195013	219.36975056689343	45	127
219.00984126984127	219.1607709750567	60	127
219.1607709750567	219.30009070294784	67	127
219.30009070294784	219.439410430839	72	127
219.439410430839	219.60195011337868	65	127
219.439410430839	219.72965986394559	46	127
219.60195011337868	219.77609977324263	60	127
219.7877097505669	220.08956916099774	48	127
219.93863945578232	220.08956916099774	57	127
220.08956916099774	220.2288888888889	65	127
220.08956916099774	220.2288888888889	47	127
220.2288888888889	220.36820861678004	69	127
220.2288888888889	220.36820861678004	48	127
220.36820861678004	220.53074829931973	69	127
220.36820861678004	220.9719274376417	50	127
220.53074829931973	220.68167800453514	77	127
220.68167800453514	220.8209977324263	81	127
220.83260770975056	220.9719274376417	81	127
220.9719274376417	221.12285714285716	89	127
220.9719274376417	221.23895691609977	48	127
221.12285714285716	221.28539682539682	93	127
221.28539682539682	221.43632653061223	89	127
221.43632653061223	221.58725623582765	81	127
221.58725623582765	221.73818594104307	81	127
221.73818594104307	221.88911564625852	77	127
221.88911564625852	222.02843537414967	69	127
222.02843537414967	222.17936507936508	81	127
222.17936507936508	222.3302947845805	77	127
222.3302947845805	222.48122448979592	69	127
222.48122448979592	222.6089342403628	69	127
222.6089342403628	222.75986394557822	65	127
222.75986394557822	222.8991836734694	57	127
222.91079365079366	223.0501133786848	69	127
223.0501133786848	223.20104308390023	65	127
223.20104308390023	223.35197278911565	57	127
223.35197278911565	223.65383219954649	50	127
223.51451247165534	223.65383219954649	56	127
223.65383219954649	223.8047619047619	64	127
223.65383219954649	223.8047619047619	46	127
223.8047619047619	223.9673015873016	47	127
223.8047619047619	223.95569160997732	68	127
223.9673015873016	224.10662131519274	68	127
223.9673015873016	224.58263038548753	49	127
224.10662131519274	224.25755102040816	76	127
224.25755102040816	224.42009070294785	80	127
224.42009070294785	224.58263038548753	80	127
224.58263038548753	224.74517006802722	88	127
224.58263038548753	224.82643990929705	47	127
224.74517006802722	224.88448979591837	92	127
224.88448979591837	224.98897959183674	88	127
224.98897959183674	225.10507936507938	80	127
225.10507936507938	225.2560090702948	80	127
225.2560090702948	225.4069387755102	76	127
225.4069387755102	225.55786848072563	68	127
225.55786848072563	225.70879818594105	80	127
225.70879818594105	225.8481179138322	76	127
225.8481179138322	225.9758276643991	68	127
225.98743764172335	226.12675736961452	68	127
226.12675736961452	226.27768707482994	64	127
226.27768707482994	226.4402267573696	56	127
226.4402267573696	226.59115646258505	68	127
226.59115646258505	226.7536961451247	64	127
226.7536961451247	226.89301587301588	56	127
226.90462585034012	227.20648526077096	49	127
227.0671655328798	227.20648526077096	55	127
227.20648526077096	227.3574149659864	45	127
227.20648526077096	227.3574149659864	63	127
227.3574149659864	227.50834467120183	67	127
227.3574149659864	227.50834467120183	46	127
227.50834467120183	228.1120634920635	48	127
227.50834467120183	227.65927437641724	67	127
227.65927437641724	227.81020408163266	75	127
227.81020408163266	227.9495238095238	79	127
227.96113378684808	228.1120634920635	79	127
228.1120634920635	228.34426303854875	46	127
228.1120634920635	228.23977324263038	87	127
228.23977324263038	228.3907029478458	91	127
228.3907029478458	228.53002267573697	87	127
228.53002267573697	228.6809523809524	79	127
228.6809523809524	228.8318820861678	79	127
228.8318820861678	228.97120181405896	75	127
228.97120181405896	229.1105215419501	67	127
229.12213151927438	229.26145124716552	79	127
229.26145124716552	229.41238095238094	75	127
229.41238095238094	229.56331065759636	67	127
229.56331065759636	229.70263038548754	67	127
229.70263038548754	229.8651700680272	63	127
229.8651700680272	230.00448979591837	55	127
230.01609977324264	230.14380952380952	67	127
230.14380952380952	230.29473922902494	63	127
230.29473922902494	230.4688888888889	55	127
230.4688888888889	231.33963718820863	37	127
230.79396825396825	230.97972789115647	53	127
230.97972789115647	231.1306575963719	56	127
231.1306575963719	231.25836734693877	55	127
231.25836734693877	231.42090702947846	58	127
231.42090702947846	232.30326530612246	36	127
231.71115646258502	231.89691609977325	53	127
231.89691609977325	232.09428571428572	56	127
232.09428571428572	232.23360544217687	60	127
232.23360544217687	232.37292517006802	56	127
232.37292517006802	233.17401360544218	41	127
232.67478458049888	232.8257142857143	57	127
232.8257142857143	232.96503401360545	60	127
232.96503401360545	233.1043537414966	59	127
233.1043537414966	233.24367346938774	62	127
233.255283446712	234.03315192743764	39	127
233.53392290249434	233.66163265306122	56	127
233.66163265306122	233.81256235827664	60	127
233.81256235827664	233.96349206349205	63	127
233.96349206349205	234.12603174603174	68	127
234.137641723356	234.4162811791383	55	127
234.47433106575963	234.63687074829932	65	127
234.47433106575963	234.74136054421768	56	127
234.63687074829932	234.78780045351473	70	127
234.78780045351473	234.93873015873015	67	127
234.78780045351473	235.0548299319728	58	127
234.93873015873015	235.10126984126984	75	127
235.10126984126984	235.3915192743764	56	127
235.44956916099773	235.7049886621315	48	127
235.44956916099773	235.60049886621314	77	127
235.60049886621314	235.75142857142856	65	127
235.75142857142856	236.00684807256235	53	127
235.75142857142856	235.90235827664398	68	127
235.90235827664398	236.0532879818594	63	127
236.0532879818594	236.85437641723357	41	127
236.35514739229026	236.4944671201814	69	127
236.4944671201814	236.63378684807256	74	127
236.63378684807256	236.78471655328798	71	127
236.78471655328798	236.92403628117913	79	127
236.92403628117913	237.75995464852608	39	127
237.22589569160996	237.3768253968254	80	127
237.3768253968254	237.52775510204083	68	127
237.52775510204083	237.67868480725625	72	127
237.67868480725625	237.8180045351474	67	127
237.8180045351474	238.64231292517007	38	127
238.0966439909297	238.24757369614514	58	127
238.24757369614514	238.4101133786848	66	127
238.4101133786848	238.57265306122449	60	127
238.57265306122449	238.71197278911563	69	127
238.71197278911563	239.5362811791383	50	127
239.0138321995465	239.16476190476192	69	127
239.16476190476192	239.31569160997734	58	127
239.31569160997734	239.46662131519275	70	127
239.46662131519275	239.6059410430839	62	127
239.61755102040817	239.8613605442177	52	127
239.90780045351474	240.05873015873016	62	127
239.90780045351474	240.16321995464853	53	127
240.05873015873016	240.20965986394557	67	127
240.20965986394557	240.44185941043085	55	127
240.20965986394557	240.360589569161	65	127
240.360589569161	240.4882993197279	70	127
240.49990929705214	241.28938775510204	57	127
240.7669387755102	240.8946485260771	69	127
240.8946485260771	241.0571882086168	61	127
241.0571882086168	241.21972789115645	67	127
241.21972789115645	241.37065759637187	64	127
241.37065759637187	241.41709750566892	35	127
241.37065759637187	241.41709750566892	47	127
241.5215873015873	241.56802721088437	59	127
241.67251700680274	241.70734693877552	35	127
241.80022675736961	241.85827664399093	47	127
241.95115646258503	242.00920634920635	36	127
242.10208616780045	242.13691609977323	48	127
242.2414058956916	242.28784580498865	36	127
242.2414058956916	242.28784580498865	48	127
242.3691156462585	242.41555555555556	60	127
242.52004535147393	242.57809523809524	41	127
242.52004535147393	242.57809523809524	29	127
242.6825850340136	242.74063492063493	53	127
242.83351473922903	242.87995464852608	48	127
242.83351473922903	242.87995464852608	36	127
242.97283446712018	243.0308843537415	60	127
243.13537414965987	243.18181405895692	37	127
243.13537414965987	243.18181405895692	49	127
243.28630385487529	243.33274376417233	59	127
243.4372335600907	243.48367346938775	25	127
243.4372335600907	243.48367346938775	37	127
243.57655328798185	243.6229931972789	47	127
243.7507029478458	243.79714285714286	26	127
243.7507029478458	243.79714285714286	38	127
243.89002267573696	243.94807256235828	48	127
244.04095238095238	244.07578231292516	38	127
244.04095238095238	244.07578231292516	50	127
244.16866213151928	244.20349206349206	60	127
244.30798185941043	244.35442176870748	31	127
244.30798185941043	244.35442176870748	43	127
244.44730158730158	244.49374149659863	53	127
244.58662131519273	244.6330612244898	38	127
244.58662131519273	244.6330612244898	50	127
244.7259410430839	244.78399092970523	60	127
244.8884807256236	244.94653061224489	51	127
244.8884807256236	244.94653061224489	39	127
245.039410430839	245.0742403628118	63	127
245.17873015873016	245.2251700680272	39	127
245.17873015873016	245.2251700680272	27	127
245.32965986394558	245.37609977324263	51	127
245.46897959183673	245.51541950113378	28	127
245.46897959183673	245.51541950113378	40	127
245.61990929705215	245.6663492063492	52	127
245.75922902494332	245.8172789115646	40	127
245.75922902494332	245.8172789115646	52	127
245.89854875283447	245.94498866213152	64	127
246.02625850340135	246.0726984126984	33	127
246.02625850340135	246.0726984126984	45	127
246.15396825396826	246.2004081632653	57	127
246.30489795918368	246.35133786848073	40	127
246.30489795918368	246.35133786848073	52	127
246.4558276643991	246.50226757369614	64	127
246.6067573696145	246.74607709750566	45	127
246.74607709750566	246.80412698412698	57	127
246.89700680272108	247.00149659863945	33	127
247.00149659863945	247.03632653061226	45	127
247.14081632653063	247.25691609977324	45	127
247.25691609977324	247.30335600907028	57	127
247.40784580498865	247.54716553287983	38	127
247.55877551020407	247.60521541950112	50	127
247.7097052154195	247.87224489795918	38	127
247.7097052154195	247.87224489795918	26	127
247.87224489795918	247.9302947845805	43	127
248.0231746031746	248.17410430839	38	127
248.0231746031746	248.17410430839	50	127
248.17410430839	248.22054421768706	50	127
248.32503401360543	248.4643537414966	55	127
248.32503401360543	248.4643537414966	31	127
248.32503401360543	248.4643537414966	43	127
248.47596371882085	248.61528344671203	57	127
248.47596371882085	248.61528344671203	45	127
248.47596371882085	248.61528344671203	33	127
248.62689342403627	248.76621315192745	34	127
248.62689342403627	248.76621315192745	46	127
248.62689342403627	248.76621315192745	58	127
248.76621315192745	248.9055328798186	31	127
248.76621315192745	248.9055328798186	43	127
248.9055328798186	249.06807256235828	34	127
248.9055328798186	249.06807256235828	46	127
249.06807256235828	249.2190022675737	48	127
249.06807256235828	249.2190022675737	36	127
249.2190022675737	249.3815419501134	50	127
249.2190022675737	249.68340136054422	66	127
249.2190022675737	249.3815419501134	38	127
249.2190022675737	250.07814058956916	70	127
249.2190022675737	249.68340136054422	78	127
249.3815419501134	249.52086167800454	40	127
249.3815419501134	249.52086167800454	52	127
249.5324716553288	249.67179138321995	54	127
249.5324716553288	249.67179138321995	42	127
249.68340136054422	249.82272108843537	62	127
249.68340136054422	249.82272108843537	74	127
249.82272108843537	250.07814058956916	78	127
249.82272108843537	250.07814058956916	66	127
250.1245804988662	250.26390022675736	30	127
250.1245804988662	250.26390022675736	42	127
250.1245804988662	250.26390022675736	54	127
250.26390022675736	250.39160997732426	44	127
250.26390022675736	250.39160997732426	32	127
250.26390022675736	250.39160997732426	56	127
250.39160997732426	250.51931972789114	46	127
250.39160997732426	250.51931972789114	58	127
250.39160997732426	250.51931972789114	34	127
250.5309297052154	250.67024943310656	30	127
250.5309297052154	250.67024943310656	42	127
250.68185941043083	250.80956916099774	34	127
250.68185941043083	250.80956916099774	46	127
250.80956916099774	250.93727891156462	48	127
250.80956916099774	250.93727891156462	36	127
250.93727891156462	251.05337868480726	50	127
250.93727891156462	251.3552380952381	66	127
250.93727891156462	251.05337868480726	38	127
250.93727891156462	251.3552380952381	78	127
250.93727891156462	251.7383673469388	70	127
251.05337868480726	251.20430839002267	40	127
251.05337868480726	251.20430839002267	52	127
251.20430839002267	251.3552380952381	54	127
251.20430839002267	251.3552380952381	42	127
251.3552380952381	251.49455782312924	74	127
251.3552380952381	251.49455782312924	62	127
251.5061678004535	251.7383673469388	78	127
251.5061678004535	251.7383673469388	66	127
251.78480725623584	251.93573696145125	54	127
251.78480725623584	251.93573696145125	30	127
251.78480725623584	251.93573696145125	42	127
251.93573696145125	252.06344671201813	56	127
251.93573696145125	252.06344671201813	32	127
251.93573696145125	252.06344671201813	44	127
252.06344671201813	252.21437641723355	57	127
252.06344671201813	252.21437641723355	33	127
252.06344671201813	252.21437641723355	45	127
252.21437641723355	252.36530612244897	30	127
252.21437641723355	252.36530612244897	42	127
252.36530612244897	252.50462585034015	33	127
252.36530612244897	252.50462585034015	45	127
252.5162358276644	252.65555555555557	49	127
252.5162358276644	252.65555555555557	37	127
252.6671655328798	252.78326530612244	50	127
252.6671655328798	253.08512471655328	78	127
252.6671655328798	252.78326530612244	38	127
252.6671655328798	253.41020408163266	70	127
252.6671655328798	253.08512471655328	66	127
252.78326530612244	252.94580498866213	40	127
252.78326530612244	252.94580498866213	52	127
252.94580498866213	253.08512471655328	54	127
252.94580498866213	253.08512471655328	42	127
253.08512471655328	253.20122448979592	74	127
253.08512471655328	253.20122448979592	62	127
253.20122448979592	253.41020408163266	78	127
253.20122448979592	253.41020408163266	66	127
253.46825396825398	253.60757369614512	54	127
253.46825396825398	253.60757369614512	30	127
253.46825396825398	253.60757369614512	42	127
253.6191836734694	253.73528344671203	56	127
253.6191836734694	253.73528344671203	32	127
253.6191836734694	253.73528344671203	44	127
253.73528344671203	253.87460317460318	58	127
253.73528344671203	253.87460317460318	46	127
253.73528344671203	253.87460317460318	34	127
253.87460317460318	254.0255328798186	42	127
253.87460317460318	254.0255328798186	54	127
253.87460317460318	254.0255328798186	30	127
254.0255328798186	254.17646258503402	44	127
254.0255328798186	254.17646258503402	56	127
254.0255328798186	254.17646258503402	32	127
254.17646258503402	254.32739229024943	58	127
254.17646258503402	254.32739229024943	46	127
254.17646258503402	254.32739229024943	34	127
254.32739229024943	254.46671201814058	48	127
254.32739229024943	254.46671201814058	60	127
254.32739229024943	254.46671201814058	36	127
254.47832199546485	254.5944217687075	50	127
254.47832199546485	254.5944217687075	62	127
254.47832199546485	254.5944217687075	38	127
254.60603174603173	254.73374149659864	40	127
254.60603174603173	254.73374149659864	52	127
254.60603174603173	254.73374149659864	64	127
254.73374149659864	254.8730612244898	54	127
254.73374149659864	254.8730612244898	66	127
254.73374149659864	254.8730612244898	42	127
254.8730612244898	255.0239909297052	50	127
254.8730612244898	255.0239909297052	62	127
254.8730612244898	255.0239909297052	38	127
255.0239909297052	255.17492063492062	52	127
255.0239909297052	255.17492063492062	64	127
255.0239909297052	255.17492063492062	40	127
255.17492063492062	255.3374603174603	54	127
255.17492063492062	255.3374603174603	66	127
255.17492063492062	255.3374603174603	30	127
255.17492063492062	255.3374603174603	42	127
255.3374603174603	255.46517006802722	32	127
255.3374603174603	255.46517006802722	56	127
255.3374603174603	255.46517006802722	68	127
255.3374603174603	255.46517006802722	44	127
255.47678004535146	255.5696598639456	46	127
255.47678004535146	255.5696598639456	34	127
255.47678004535146	255.5696598639456	70	127
255.47678004535146	255.5696598639456	58	127
255.58126984126983	255.70897959183674	54	127
255.58126984126983	255.70897959183674	66	127
255.58126984126983	255.70897959183674	30	127
255.58126984126983	255.70897959183674	42	127
255.70897959183674	255.85990929705216	56	127
255.70897959183674	255.85990929705216	68	127
255.70897959183674	255.85990929705216	32	127
255.70897959183674	255.85990929705216	44	127
255.85990929705216	256.0108390022676	58	127
255.85990929705216	256.0108390022676	70	127
255.85990929705216	256.0108390022676	34	127
255.85990929705216	256.0108390022676	46	127
256.0108390022676	256.1269387755102	60	127
256.0108390022676	256.1269387755102	72	127
256.0108390022676	256.1269387755102	36	127
256.0108390022676	256.1269387755102	48	127
256.1269387755102	256.27784580498866	38	127
256.1269387755102	256.27784580498866	62	127
256.1269387755102	256.27784580498866	74	127
256.1269387755102	256.27784580498866	50	127
256.27784580498866	256.4171882086168	76	127
256.27784580498866	256.4171882086168	52	127
256.27784580498866	256.4171882086168	64	127
256.27784580498866	256.4171882086168	40	127
256.42879818594105	256.5681179138322	78	127
256.42879818594105	256.5681179138322	42	127
256.42879818594105	256.5681179138322	54	127
256.42879818594105	256.5681179138322	66	127
256.5797052154195	256.7306575963719	62	127
256.5797052154195	256.7306575963719	74	127
256.5797052154195	256.7306575963719	38	127
256.5797052154195	256.7306575963719	50	127
256.7306575963719	256.8467573696145	64	127
256.7306575963719	256.8467573696145	76	127
256.7306575963719	256.8467573696145	40	127
256.7306575963719	256.8467573696145	52	127
256.8467573696145	256.9976870748299	66	127
256.8467573696145	256.9976870748299	78	127
256.8467573696145	256.9976870748299	42	127
256.8467573696145	256.9976870748299	54	127
256.9976870748299	257.1253968253968	80	127
256.9976870748299	257.1253968253968	68	127
256.9976870748299	257.1253968253968	44	127
256.9976870748299	257.1253968253968	56	127
257.1253968253968	257.2531065759637	58	127
257.1253968253968	257.2531065759637	70	127
257.1253968253968	257.2531065759637	82	127
257.1253968253968	257.2531065759637	46	127
257.2531065759637	257.3924036281179	66	127
257.2531065759637	257.3924036281179	78	127
257.2531065759637	257.3924036281179	42	127
257.2531065759637	257.3924036281179	54	127
257.4040136054422	257.5433560090703	68	127
257.4040136054422	257.5433560090703	80	127
257.4040136054422	257.5433560090703	44	127
257.4040136054422	257.5433560090703	56	127
257.5433560090703	257.69428571428574	58	127
257.5433560090703	257.69428571428574	70	127
257.5433560090703	257.69428571428574	82	127
257.5433560090703	257.69428571428574	46	127
257.69428571428574	257.83360544217686	71	127
257.69428571428574	257.83360544217686	83	127
257.69428571428574	257.83360544217686	47	127
257.69428571428574	257.83360544217686	59	127
257.83360544217686	257.97292517006804	72	127
257.83360544217686	257.97292517006804	84	127
257.83360544217686	257.97292517006804	48	127
257.83360544217686	257.97292517006804	60	127
257.9845351473923	258.1238548752834	74	127
257.9845351473923	258.1238548752834	86	127
257.9845351473923	258.1238548752834	50	127
257.9845351473923	258.1238548752834	62	127
258.1238548752834	258.2631746031746	63	127
258.1238548752834	258.2631746031746	75	127
258.1238548752834	258.2631746031746	87	127
258.1238548752834	258.2631746031746	51	127
258.2631746031746	258.41408163265305	60	127
258.2631746031746	258.41408163265305	72	127
258.2631746031746	258.41408163265305	84	127
258.2631746031746	258.41408163265305	48	127
258.41408163265305	258.56503401360544	74	127
258.41408163265305	258.56503401360544	86	127
258.41408163265305	258.56503401360544	50	127
258.41408163265305	258.56503401360544	62	127
258.56503401360544	258.6695238095238	75	127
258.56503401360544	258.6695238095238	87	127
258.56503401360544	258.6695238095238	51	127
258.56503401360544	258.6695238095238	63	127
258.6695238095238	258.82045351473926	65	127
258.6695238095238	258.82045351473926	77	127
258.6695238095238	258.82045351473926	89	127
258.6695238095238	258.82045351473926	53	127
258.82045351473926	258.9365306122449	67	127
258.82045351473926	258.9365306122449	79	127
258.82045351473926	258.9365306122449	91	127
258.82045351473926	258.9365306122449	55	127
258.9365306122449	259.09909297052155	81	127
258.9365306122449	259.09909297052155	93	127
258.9365306122449	259.09909297052155	57	127
258.9365306122449	259.09909297052155	69	127
259.09909297052155	259.25002267573694	82	127
259.09909297052155	259.25002267573694	94	127
259.09909297052155	259.25002267573694	58	127
259.09909297052155	259.25002267573694	70	127
259.25002267573694	259.4009523809524	72	127
259.25002267573694	259.4009523809524	60	127
259.25002267573694	259.4009523809524	84	127
259.25002267573694	259.4009523809524	96	127
259.41256235827666	259.7028117913832	86	127
259.41256235827666	259.7028117913832	90	127
259.41256235827666	259.7028117913832	94	127
259.41256235827666	259.7028117913832	98	127
259.41256235827666	259.7028117913832	62	127
259.41256235827666	259.7028117913832	66	127
259.41256235827666	259.7028117913832	70	127
259.41256235827666	259.7028117913832	74	127
260.10916099773243	260.50390022675737	60	127
260.10916099773243	260.50390022675737	62	127
260.10916099773243	260.50390022675737	66	127
260.10916099773243	260.50390022675737	74	127
260.10916099773243	260.50390022675737	38	127
260.10916099773243	260.50390022675737	50	127
260.5619274376417	261.5604081632653	43	127
260.5619274376417	261.5604081632653	31	127
260.92185941043084	261.0263492063492	50	127
261.0263492063492	261.14244897959185	58	127
261.14244897959185	261.281746031746	62	127
261.29337868480724	261.4094784580499	62	127
261.4094784580499	261.5371882086168	58	127
261.5371882086168	261.64167800453515	50	127
261.64167800453515	262.5240362811791	36	127
261.95514739229026	262.08285714285716	51	127
262.08285714285716	262.18734693877553	55	127
262.18734693877553	262.28022675736963	63	127
262.2918367346939	262.384716553288	63	127
262.384716553288	262.48920634920637	55	127
262.48920634920637	262.59369614512474	51	127
262.59369614512474	263.4180045351474	31	127
262.59369614512474	263.4180045351474	43	127
262.8491156462585	262.9768253968254	50	127
262.9768253968254	263.0697052154195	58	127
263.0697052154195	263.1741950113379	62	127
263.1741950113379	263.26707482993197	62	127
263.26707482993197	263.37156462585034	58	127
263.37156462585034	263.487664399093	50	127
263.487664399093	264.2887528344671	36	127
263.77791383219954	263.87079365079364	52	127
263.87079365079364	263.96367346938774	58	127
263.96367346938774	264.0681632653061	64	127
264.0681632653061	264.1610430839002	64	127
264.1610430839002	264.2655328798186	58	127
264.2655328798186	264.3932426303855	52	127
264.40485260770976	265.2059410430839	41	127
264.40485260770976	265.2059410430839	29	127
264.7067120181406	264.8344217687075	50	127
264.8344217687075	264.9273015873016	58	127
264.9273015873016	265.0201814058957	62	127
265.0201814058957	265.08984126984126	62	127
265.08984126984126	265.18272108843536	58	127
265.18272108843536	265.2755782312925	50	127
265.2872108843537	265.85609977324265	38	127
265.57743764172335	265.72839002267574	53	127
265.72839002267574	265.8328798185941	60	127
265.8328798185941	265.9257596371882	65	127
265.9257596371882	266.0302494331066	65	127
265.9257596371882	266.1927664399093	39	127
266.0302494331066	266.1231292517007	60	127
266.1231292517007	266.2392290249433	53	127
266.2392290249433	266.79650793650796	41	127
266.57591836734696	266.66879818594106	50	127
266.66879818594106	266.7732879818594	56	127
266.7732879818594	266.88938775510206	60	127
266.88938775510206	266.99387755102043	58	127
266.88938775510206	267.16802721088436	42	127
266.99387755102043	267.10995464852607	50	127
267.10995464852607	267.21444444444444	58	127
267.21444444444444	267.76013605442176	43	127
267.53954648526076	267.63242630385486	52	127
267.63242630385486	267.7369160997732	55	127
267.7369160997732	267.8297732426304	62	127
267.8297732426304	268.1316326530612	45	127
267.8297732426304	267.95750566893423	61	127
267.95750566893423	268.07360544217687	55	127
268.07360544217687	268.17809523809524	52	127
268.17809523809524	268.71215419501135	38	127
268.5031746031746	268.7353741496599	55	127
268.5031746031746	268.7353741496599	58	127
268.5031746031746	268.7353741496599	62	127
268.7934240362812	268.9211337868481	53	127
268.7934240362812	269.02562358276646	34	127
268.9211337868481	269.08367346938775	65	127
269.08367346938775	269.6409523809524	39	127
269.4203628117914	269.66414965986394	57	127
269.4203628117914	269.66414965986394	58	127
269.4203628117914	269.66414965986394	63	127
269.7338321995465	270.0124716553288	46	127
269.7338321995465	269.9079818594104	55	127
269.9079818594104	270.0589115646259	67	127
270.0589115646259	270.5813378684807	38	127
270.372380952381	270.61619047619047	58	127
270.372380952381	270.61619047619047	55	127
270.372380952381	270.61619047619047	62	127
270.66263038548755	270.8367800453515	53	127
270.66263038548755	270.94126984126984	34	127
270.8367800453515	270.9877097505669	65	127
270.9992970521542	271.5565986394558	40	127
271.28956916099776	271.5914285714286	62	127
271.28956916099776	271.5914285714286	58	127
271.28956916099776	271.5914285714286	69	127
271.6378684807256	271.80040816326533	67	127
271.6378684807256	271.9048979591837	41	127
271.6378684807256	271.80040816326533	70	127
271.80040816326533	271.9513378684807	58	127
271.962947845805	272.4970068027211	43	127
272.2764172335601	272.5086167800454	65	127
272.2764172335601	272.5086167800454	62	127
272.2764172335601	272.5086167800454	72	127
272.5550566893424	272.8104761904762	45	127
272.5550566893424	272.69437641723357	73	127
272.69437641723357	272.85691609977323	61	127
272.85691609977323	273.1936054421769	38	127
272.85691609977323	273.1936054421769	50	127
273.1936054421769	273.4606349206349	37	127
273.1936054421769	273.4606349206349	49	127
273.1936054421769	273.286485260771	53	127
273.286485260771	273.3677551020408	57	127
273.3677551020408	273.4606349206349	66	127
273.4606349206349	273.5419047619048	66	127
273.4606349206349	273.727664399093	47	127
273.4606349206349	273.727664399093	35	127
273.5419047619048	273.6347845804989	57	127
273.6347845804989	273.727664399093	54	127
273.727664399093	274.0063038548753	33	127
273.727664399093	274.0063038548753	45	127
274.0063038548753	274.0991836734694	54	127
274.0063038548753	274.2849433106576	43	127
274.0063038548753	274.2849433106576	31	127
274.0991836734694	274.1920634920635	62	127
274.1920634920635	274.2849433106576	66	127
274.2849433106576	274.38943310657595	66	127
274.2849433106576	274.65646258503403	30	127
274.2849433106576	274.65646258503403	42	127
274.38943310657595	274.5287528344671	62	127
274.5287528344671	274.65646258503403	54	127
274.65646258503403	274.9931519274376	40	127
274.65646258503403	274.9931519274376	28	127
274.9931519274376	275.2949886621315	38	127
274.9931519274376	275.2949886621315	26	127
275.0744217687075	275.1789115646259	53	127
275.1789115646259	275.28337868480725	65	127
275.1789115646259	275.28337868480725	62	127
275.2949886621315	275.65492063492064	27	127
275.2949886621315	275.65492063492064	39	127
275.4111111111111	275.56204081632654	54	127
275.56204081632654	275.65492063492064	62	127
275.56204081632654	275.65492063492064	66	127
275.65492063492064	275.9567800453515	28	127
275.65492063492064	275.9567800453515	40	127
275.759410430839	275.8522902494331	55	127
275.8522902494331	275.9567800453515	62	127
275.8522902494331	275.9567800453515	67	127
275.9567800453515	276.2586394557823	29	127
275.9567800453515	276.2586394557823	41	127
276.06126984126985	276.15414965986395	56	127
276.15414965986395	276.24702947845805	62	127
276.15414965986395	276.24702947845805	68	127
276.2586394557823	276.56049886621315	30	127
276.2586394557823	276.56049886621315	42	127
276.3631292517007	276.4792290249433	57	127
276.4792290249433	276.56049886621315	69	127
276.4792290249433	276.56049886621315	62	127
276.56049886621315	277.40802721088437	43	127
276.56049886621315	277.40802721088437	31	127
276.87396825396826	276.96684807256236	50	127
276.9784580498866	277.0713378684807	58	127
277.0713378684807	277.1758276643991	62	127
277.1758276643991	277.2687074829932	62	127
277.2687074829932	277.38480725623583	58	127
277.38480725623583	277.47768707482993	50	127
277.47768707482993	278.38326530612244	36	127
277.8143764172336	277.9304761904762	51	127
277.9304761904762	278.0233560090703	55	127
278.0233560090703	278.1510430839002	63	127
278.1510430839002	278.2555328798186	63	127
278.2555328798186	278.36002267573696	55	127
278.36002267573696	278.45290249433106	51	127
278.4645124716553	279.3004535147392	43	127
278.4645124716553	279.3004535147392	31	127
278.7780045351474	278.88249433106574	50	127
278.88249433106574	278.9753514739229	58	127
278.9753514739229	279.0798639455782	62	127
279.0798639455782	279.17272108843537	62	127
279.1843537414966	279.27721088435374	58	127
279.27721088435374	279.4049433106576	50	127
279.41655328798186	280.27569160997734	36	127
279.7068027210884	279.8112925170068	52	127
279.8112925170068	279.9041723356009	58	127
279.91578231292516	280.0202721088435	64	127
280.0202721088435	280.1131519274376	64	127
280.1247619047619	280.24086167800453	58	127
280.24086167800453	280.3569614512472	52	127
280.3569614512472	281.21607709750566	43	127
280.3569614512472	281.21607709750566	31	127
280.6704308390023	280.7633106575964	50	127
280.7633106575964	280.879410430839	58	127
280.8910204081633	280.9839002267574	62	127
280.9839002267574	281.08839002267575	62	127
281.08839002267575	281.18126984126985	58	127
281.18126984126985	281.2973696145125	50	127
281.2973696145125	281.80820861678006	38	127
281.5992290249433	281.68049886621316	53	127
281.68049886621316	281.7849886621315	60	127
281.7849886621315	281.8778684807256	65	127
281.8778684807256	281.982358276644	65	127
281.8778684807256	282.1448752834467	39	127
281.982358276644	282.08684807256236	60	127
282.09845804988663	282.19133786848073	53	127
282.19133786848073	282.7137868480726	41	127
282.49319727891157	282.58607709750567	50	127
282.58607709750567	282.69056689342403	56	127
282.69056689342403	282.78344671201813	60	127
282.7950566893424	282.89954648526077	58	127
282.7950566893424	283.0736961451247	42	127
282.89954648526077	283.00403628117914	50	127
283.0272562358277	283.1201360544218	58	127
283.1201360544218	283.67739229024943	43	127
283.4568253968254	283.5497052154195	52	127
283.5613151927438	283.6541950113379	58	127
283.6541950113379	283.747074829932	62	127
283.75868480725626	283.8980045351474	61	127
283.75868480725626	284.1069841269841	45	127
283.8980045351474	284.03732426303856	55	127
284.03732426303856	284.1534240362812	52	127
284.1534240362812	284.7455328798186	38	127
284.4668934240363	284.7803628117914	55	127
284.4668934240363	284.7803628117914	58	127
284.4668934240363	284.7803628117914	62	127
284.8268027210884	285.0938321995465	34	127
284.8268027210884	285.0009297052154	53	127
285.0009297052154	285.14027210884353	65	127
285.1518820861678	285.6975510204082	39	127
285.45374149659864	285.7207482993197	57	127
285.45374149659864	285.7207482993197	58	127
285.45374149659864	285.7207482993197	63	127
285.76721088435374	285.9297505668934	55	127
285.76721088435374	286.02260770975056	46	127
285.9297505668934	286.0690702947846	67	127
286.08068027210885	286.62634920634923	38	127
286.39414965986396	286.6495691609977	58	127
286.39414965986396	286.6495691609977	62	127
286.39414965986396	286.6495691609977	55	127
286.6960090702948	286.9630385487528	34	127
286.6960090702948	286.84691609977324	53	127
286.84691609977324	287.0094784580499	65	127
287.0094784580499	287.53192743764174	40	127
287.31133786848073	287.5551247165533	69	127
287.31133786848073	287.5551247165533	58	127
287.31133786848073	287.5551247165533	62	127
287.61319727891157	287.81056689342404	67	127
287.61319727891157	287.9150566893424	41	127
287.81056689342404	287.9614739229025	55	127
287.9614739229025	288.4839229024943	43	127
288.25174603174605	288.5071655328798	62	127
288.25174603174605	288.5071655328798	65	127
288.25174603174605	288.5071655328798	72	127
288.5536054421769	288.8322448979592	45	127
288.5536054421769	288.71614512471655	73	127
288.71614512471655	288.87868480725626	61	127
288.87868480725626	289.4011111111111	47	127
289.1805442176871	289.4243537414966	65	127
289.1805442176871	289.4243537414966	69	127
289.1805442176871	289.4243537414966	76	127
289.48240362811794	289.6449433106576	77	127
289.48240362811794	289.79587301587304	49	127
289.6449433106576	289.84231292517006	65	127
289.84231292517006	290.1790022675737	42	127
289.84231292517006	290.1790022675737	30	127
290.1790022675737	290.48086167800454	33	127
290.1790022675737	290.48086167800454	45	127
290.1790022675737	290.2718820861678	54	127
290.2834920634921	290.3763718820862	61	127
290.3763718820862	290.4692517006803	66	127
290.48086167800454	290.7711111111111	49	127
290.48086167800454	290.57374149659864	66	127
290.48086167800454	290.7711111111111	37	127
290.57374149659864	290.678231292517	61	127
290.678231292517	290.7711111111111	54	127
290.7711111111111	291.0961904761905	38	127
290.7711111111111	291.0961904761905	50	127
291.0961904761905	291.1890702947846	54	127
291.0961904761905	291.38643990929705	37	127
291.0961904761905	291.38643990929705	49	127
291.20068027210885	291.2819501133787	57	127
291.2819501133787	291.38643990929705	66	127
291.38643990929705	291.6766893424036	47	127
291.38643990929705	291.4677097505669	66	127
291.38643990929705	291.6766893424036	35	127
291.4677097505669	291.57219954648525	57	127
291.57219954648525	291.66507936507935	54	127
291.6766893424036	291.97854875283446	33	127
291.6766893424036	291.97854875283446	45	127
291.97854875283446	292.268798185941	31	127
291.97854875283446	292.268798185941	43	127
291.97854875283446	292.07142857142856	54	127
292.07142857142856	292.1642857142857	62	127
292.1642857142857	292.268798185941	66	127
292.268798185941	292.5474376417234	30	127
292.268798185941	292.5474376417234	42	127
292.268798185941	292.3732879818594	66	127
292.3732879818594	292.4545578231293	62	127
292.4545578231293	292.5358276643991	54	127
292.5474376417234	292.8144671201814	28	127
292.5474376417234	292.8144671201814	40	127
292.8144671201814	293.1395464852608	26	127
292.8144671201814	293.1395464852608	38	127
292.9189569160998	293.0118367346939	53	127
293.0118367346939	293.1395464852608	65	127
293.0118367346939	293.1395464852608	62	127
293.1395464852608	293.52267573696145	39	127
293.1395464852608	293.52267573696145	27	127
293.24403628117915	293.37174603174606	54	127
293.37174603174606	293.52267573696145	62	127
293.37174603174606	293.52267573696145	66	127
293.52267573696145	293.9058049886621	40	127
293.52267573696145	293.9058049886621	28	127
293.6387755102041	293.766485260771	55	127
293.766485260771	293.9058049886621	62	127
293.766485260771	293.9058049886621	67	127
293.9058049886621	294.2192743764172	41	127
293.9058049886621	294.2192743764172	29	127
294.02190476190475	294.11478458049885	56	127
294.1263945578231	294.2192743764172	68	127
294.1263945578231	294.2192743764172	62	127
294.2192743764172	294.4979138321996	30	127
294.2192743764172	294.4979138321996	42	127
294.3469841269841	294.4398639455782	57	127
294.4398639455782	294.60240362811794	69	127
294.4398639455782	294.60240362811794	62	127
294.60240362811794	295.3338095238095	43	127
295.3338095238095	295.43832199546483	50	127
295.43832199546483	295.5428117913832	55	127
295.55442176870747	295.65891156462584	50	127
295.65891156462584	295.75179138321994	58	127
295.7053514739229	295.8678911564626	79	127
295.7634013605442	295.8678911564626	62	127
295.8678911564626	296.22780045351476	82	127
295.8678911564626	295.9956009070295	50	127
295.9956009070295	296.0884807256236	58	127
296.0884807256236	296.22780045351476	62	127
296.22780045351476	296.33229024943313	52	127
296.22780045351476	296.69219954648526	81	127
296.35548752834467	296.44836734693877	58	127
296.44836734693877	296.54126984126987	62	127
296.55285714285714	296.63414965986397	52	127
296.63414965986397	296.73863945578233	58	127
296.69219954648526	296.83151927437643	79	127
296.73863945578233	296.83151927437643	62	127
296.83151927437643	296.95920634920634	51	127
296.83151927437643	297.1565986394558	78	127
296.95920634920634	297.0636961451247	58	127
297.0753287981859	297.1565986394558	61	127
297.1565986394558	297.2494784580499	43	127
297.1565986394558	297.60938775510203	81	127
297.2610884353742	297.3539682539683	50	127
297.3539682539683	297.45845804988664	55	127
297.45845804988664	297.55133786848074	50	127
297.55133786848074	297.6674376417234	58	127
297.60938775510203	297.77192743764175	79	127
297.6674376417234	297.7603174603175	62	127
297.77192743764175	298.0737868480726	82	127
297.77192743764175	297.8764172335601	50	127
297.8764172335601	297.9692970521542	58	127
297.9808843537415	298.0737868480726	62	127
298.0737868480726	298.1898639455782	52	127
298.0737868480726	298.5614058956916	81	127
298.1898639455782	298.2827664399093	58	127
298.2827664399093	298.3872562358277	62	127
298.3872562358277	298.49172335600906	52	127
298.50333333333333	298.60784580498864	58	127
298.5614058956916	298.712335600907	79	127
298.60784580498864	298.7007029478458	62	127
298.712335600907	299.0374149659864	78	127
298.712335600907	298.8516553287982	51	127
298.8516553287982	298.9445351473923	58	127
298.9445351473923	299.0374149659864	61	127
299.0374149659864	299.1302947845805	43	127
299.0374149659864	299.4785941043084	81	127
299.1302947845805	299.2231746031746	50	127
299.23478458049885	299.32766439909295	55	127
299.32766439909295	299.4205215419501	50	127
299.4321541950113	299.5250113378685	58	127
299.4785941043084	299.6295238095238	79	127
299.5250113378685	299.6295238095238	62	127
299.6295238095238	299.7456235827664	50	127
299.6295238095238	299.95460317460316	82	127
299.7456235827664	299.8501133786848	58	127
299.8501133786848	299.9429931972789	62	127
299.95460317460316	300.05909297052153	62	127
299.95460317460316	300.40739229024945	86	127
300.05909297052153	300.15197278911563	58	127
300.1635827664399	300.256462585034	56	127
300.256462585034	300.36095238095237	62	127
300.36095238095237	300.45383219954647	58	127
300.40739229024945	300.55832199546484	84	127
300.45383219954647	300.55832199546484	56	127
300.55832199546484	301.0227210884354	84	127
300.55832199546484	300.65120181405894	62	127
300.6628117913832	300.7556916099773	58	127
300.7556916099773	300.84854875283446	56	127
300.8601814058957	300.96467120181404	62	127
300.96467120181404	301.0691609977324	58	127
301.0227210884354	301.1504081632653	80	127
301.0691609977324	301.1504081632653	56	127
301.1504081632653	301.6148299319728	80	127
301.1504081632653	301.25489795918367	63	127
301.25489795918367	301.35938775510203	60	127
301.37102040816325	301.4638775510204	56	127
301.4638775510204	301.5567800453515	64	127
301.56836734693877	301.66124716553287	61	127
301.6148299319728	301.76573696145124	77	127
301.66124716553287	301.76573696145124	56	127
301.76573696145124	301.8702267573696	65	127
301.76573696145124	303.1821768707483	77	127
301.8702267573696	302.0676190476191	62	127
302.0676190476191	302.1604988662132	55	127
302.17208616780044	302.26498866213154	65	127
302.26498866213154	302.35786848072564	62	127
302.3694784580499	302.462358276644	55	127
302.462358276644	302.5668480725624	65	127
302.5668480725624	302.6597278911565	62	127
302.6597278911565	302.7874149659864	55	127
302.7874149659864	302.8803174603175	65	127
302.89190476190475	302.98480725623585	62	127
302.98480725623585	303.07768707482995	55	127
303.0892970521542	303.1821768707483	65	127
303.1821768707483	303.29825396825396	62	127
303.2518367346939	303.39115646258506	77	127
303.29825396825396	303.39115646258506	55	127
303.39115646258506	303.5188662131519	53	127
303.39115646258506	303.7394557823129	79	127
303.5188662131519	303.61172335600907	59	127
303.6233560090703	303.7394557823129	62	127
303.7394557823129	303.832335600907	54	127
303.7394557823129	304.1922448979592	78	127
303.8439455782313	303.9368253968254	59	127
303.9368253968254	304.04131519274375	63	127
304.04131519274375	304.13419501133785	54	127
304.13419501133785	304.2386848072562	59	127
304.1922448979592	304.3431746031746	76	127
304.2386848072562	304.3315646258503	63	127
304.3431746031746	304.6334013605442	75	127
304.3431746031746	304.4360544217687	57	127
304.4360544217687	304.52891156462584	59	127
304.54054421768706	304.6334013605442	63	127
304.6334013605442	305.1442403628118	78	127
304.6334013605442	304.76113378684806	47	127
304.76113378684806	304.8772335600907	55	127
304.8772335600907	304.98172335600907	59	127
304.98172335600907	305.07460317460317	55	127
305.0978231292517	305.1907029478458	59	127
305.1442403628118	305.3532199546485	77	127
305.1907029478458	305.34160997732425	62	127
305.3532199546485	305.6434920634921	79	127
305.3532199546485	305.4460997732426	53	127
305.4460997732426	305.550589569161	59	127
305.550589569161	305.6434920634921	62	127
305.6434920634921	305.80603174603175	54	127
305.6434920634921	306.2007709750567	78	127
305.80603174603175	305.9221315192744	59	127
305.93374149659866	306.038231292517	63	127
306.038231292517	306.1427210884354	54	127
306.15433106575966	306.24721088435376	59	127
306.2007709750567	306.35170068027213	76	127
306.24721088435376	306.35170068027213	63	127
306.35170068027213	306.66517006802724	75	127
306.35170068027213	306.46777777777777	57	127
306.46777777777777	306.57226757369614	59	127
306.57226757369614	306.65356009070297	63	127
306.66517006802724	307.0947392290249	78	127
306.66517006802724	306.75804988662134	47	127
306.75804988662134	306.85092970521544	55	127
306.8625396825397	306.94380952380953	59	127
306.94380952380953	307.0482993197279	55	127
307.0482993197279	307.141179138322	59	127
307.0947392290249	307.2688888888889	77	127
307.141179138322	307.2688888888889	62	127
307.2688888888889	307.6055782312925	79	127
307.2688888888889	307.40820861678003	53	127
307.4198185941043	307.50108843537413	59	127
307.50108843537413	307.5939455782313	62	127
307.6055782312925	307.69843537414965	63	127
307.6055782312925	308.0931972789116	78	127
307.69843537414965	307.802925170068	59	127
307.802925170068	307.9190476190476	54	127
307.9190476190476	308.0467573696145	63	127
308.0467573696145	308.1512471655329	59	127
308.0931972789116	308.29056689342406	75	127
308.1512471655329	308.29056689342406	54	127
308.29056689342406	308.5924263038549	75	127
308.29056689342406	308.38344671201816	63	127
308.3950566893424	308.4879365079365	59	127
308.4879365079365	308.5924263038549	51	127
308.5924263038549	308.6736961451247	58	127
308.5924263038549	308.731746031746	75	127
308.6736961451247	308.7781859410431	54	127
308.731746031746	308.8710657596372	70	127
308.7781859410431	308.8710657596372	46	127
308.8710657596372	309.3122448979592	70	127
308.8710657596372	308.97555555555556	58	127
308.97555555555556	309.0568253968254	54	127
309.06843537414966	309.16131519274376	46	127
309.16131519274376	309.2658049886621	58	127
309.2658049886621	309.3702947845805	54	127
309.3122448979592	309.4631746031746	62	127
309.3702947845805	309.4631746031746	46	127
309.4631746031746	310.11333333333334	62	127
309.5560544217687	309.67215419501133	58	127
309.67215419501133	309.76503401360543	50	127
309.7766439909297	309.88113378684807	62	127
309.88113378684807	309.9972335600907	58	127
310.02045351473924	310.11333333333334	50	127
310.11333333333334	310.3803628117914	67	127
310.11333333333334	310.2178231292517	62	127
310.2178231292517	310.3223129251701	58	127
310.3223129251701	310.42680272108845	50	127
310.42680272108845	310.5429024943311	62	127
310.55448979591836	310.6589795918367	58	127
310.6589795918367	310.7518820861678	50	127
310.7634693877551	310.86795918367346	62	127
310.86795918367346	310.97244897959183	58	127
310.97244897959183	311.06535147392293	50	127
311.06535147392293	311.1814512471655	62	127
311.1814512471655	311.2627210884354	58	127
311.27430839002267	311.3556009070295	50	127
311.3556009070295	313.15514739229025	36	127
311.3556009070295	311.4484807256236	64	127
311.46009070294787	311.55297052154197	58	127
311.55297052154197	311.6690702947846	52	127
311.6690702947846	311.7619501133787	65	127
311.7619501133787	311.86643990929707	58	127
311.86643990929707	311.95931972789117	53	127
311.97092970521544	312.06380952380954	64	127
312.06380952380954	312.15668934240364	58	127
312.1682993197279	312.2727891156463	52	127
312.2727891156463	312.37727891156464	67	127
312.37727891156464	312.481768707483	58	127
312.481768707483	312.6094557823129	55	127
312.6094557823129	312.702335600907	65	127
312.7139455782313	312.8184580498866	58	127
312.8184580498866	312.92294784580497	53	127
312.93455782312924	313.02743764172334	64	127
313.02743764172334	313.1319274376417	58	127
313.1319274376417	313.2364172335601	52	127
313.2364172335601	315.0591609977324	31	127
313.2364172335601	313.34090702947844	50	127
313.2364172335601	315.0591609977324	43	127
313.34090702947844	313.42215419501133	58	127
313.43378684807254	313.5382766439909	62	127
313.5382766439909	313.6427664399093	51	127
313.6659863945578	313.7936961451247	58	127
313.7936961451247	313.90979591836737	62	127
313.90979591836737	313.9910657596372	50	127
313.9910657596372	314.09555555555556	58	127
314.09555555555556	314.18843537414966	62	127
314.20004535147393	314.29292517006803	53	127
314.29292517006803	314.40902494331067	58	127
314.42063492063494	314.51351473922904	62	127
314.51351473922904	314.6180045351474	51	127
314.6180045351474	314.73410430839004	58	127
314.73410430839004	314.8385941043084	62	127
314.8385941043084	314.9314739229025	50	127
314.9430839002268	315.0359637188209	58	127
315.0359637188209	315.175283446712	62	127
315.18689342403627	316.9748299319728	36	127
315.18689342403627	315.27977324263037	67	127
315.27977324263037	315.38426303854874	58	127
315.38426303854874	315.47714285714284	55	127
315.47714285714284	315.5816326530612	69	127
315.5816326530612	315.67448979591836	58	127
315.6861224489796	315.8138321995465	57	127
315.8138321995465	315.91832199546485	67	127
315.9299319727891	316.0344217687075	58	127
316.0344217687075	316.13891156462586	55	127
316.13891156462586	316.23179138321996	70	127
316.23179138321996	316.3362811791383	63	127
316.3362811791383	316.4291609977324	58	127
316.4407709750567	316.5220408163265	69	127
316.5220408163265	316.6149206349206	58	127
316.6265306122449	316.719410430839	57	127
316.719410430839	316.82390022675736	67	127
316.82390022675736	316.94	58	127
316.94	317.04448979591837	55	127
317.04448979591837	317.13736961451247	53	127
317.04448979591837	318.82081632653063	41	127
317.04448979591837	318.82081632653063	29	127
317.14897959183673	317.2650793650794	57	127
317.2650793650794	317.3579591836735	65	127
317.36956916099774	317.46244897959184	55	127
317.46244897959184	317.5669387755102	57	127
317.5669387755102	317.6714285714286	62	127
317.6714285714286	317.77591836734695	53	127
317.77591836734695	317.86879818594105	57	127
317.8804081632653	317.9848979591837	62	127
317.9848979591837	318.0777777777778	57	127
318.08938775510205	318.18226757369615	62	127
318.18226757369615	318.2867573696145	65	127
318.2867573696145	318.3796371882086	55	127
318.3796371882086	318.484126984127	57	127
318.484126984127	318.5770068027211	62	127
318.6002267573696	318.6931065759637	53	127
318.6931065759637	318.7859863945578	57	127
318.7975963718821	318.8904761904762	62	127
318.8904761904762	318.99496598639456	62	127
318.8904761904762	320.7712925170068	40	127
318.8904761904762	320.7712925170068	28	127
318.99496598639456	319.08784580498866	65	127
319.08784580498866	319.19233560090703	68	127
319.19233560090703	319.3316553287982	64	127
319.3432653061225	319.4361451247166	65	127
319.4361451247166	319.5290249433107	68	127
319.54063492063494	319.67995464852606	62	127
319.67995464852606	319.7960544217687	65	127
319.7960544217687	319.8889342403628	68	127
319.8889342403628	319.99342403628117	65	127
319.99342403628117	320.09791383219954	68	127
320.1095238095238	320.2140136054422	71	127
320.2140136054422	320.3417233560091	64	127
320.35333333333335	320.44621315192745	65	127
320.44621315192745	320.5507029478458	68	127
320.5507029478458	320.6435827664399	62	127
320.6435827664399	320.7480725623583	65	127
320.7480725623583	320.8409523809524	68	127
320.85256235827666	320.9338321995465	61	127
320.85256235827666	322.721746031746	33	127
320.85256235827666	322.721746031746	45	127
320.9338321995465	321.0267120181406	57	127
321.03832199546486	321.1079818594104	52	127
321.1079818594104	321.2124716553288	62	127
321.2124716553288	321.31696145124715	57	127
321.31696145124715	321.4214512471655	52	127
321.4214512471655	321.5259410430839	61	127
321.53755102040816	321.63043083900226	57	127
321.63043083900226	321.72331065759636	52	127
321.7349206349206	321.8742403628118	64	127
321.8742403628118	322.0251700680272	57	127
322.0251700680272	322.12965986394556	52	127
322.12965986394556	322.25736961451247	62	127
322.25736961451247	322.36185941043084	57	127
322.3734693877551	322.4663492063492	52	127
322.4663492063492	322.58244897959185	61	127
322.5940589569161	322.6985487528345	57	127
322.6985487528345	322.8378684807256	52	127
322.8378684807256	323.162947845805	30	127
322.8378684807256	323.162947845805	42	127
322.8378684807256	323.48802721088435	81	127
322.8378684807256	323.48802721088435	90	127
322.8378684807256	323.48802721088435	85	127
322.8378684807256	323.48802721088435	93	127
323.24419501133787	323.5112471655329	69	127
323.24419501133787	323.5112471655329	57	127
323.24419501133787	323.5112471655329	61	127
323.24419501133787	323.5112471655329	66	127
323.5576870748299	323.80149659863946	78	127
323.5576870748299	323.80149659863946	90	127
323.5576870748299	323.80149659863946	66	127
323.85954648526075	324.1497959183674	35	127
323.85954648526075	324.1497959183674	47	127
323.85954648526075	324.44004535147394	74	127
323.85954648526075	324.44004535147394	86	127
323.85954648526075	324.44004535147394	78	127
323.85954648526075	324.44004535147394	83	127
324.20784580498866	324.4748752834467	50	127
324.20784580498866	324.4748752834467	54	127
324.20784580498866	324.4748752834467	59	127
324.20784580498866	324.4748752834467	62	127
324.52131519274377	324.7767120181406	83	127
324.52131519274377	324.7767120181406	59	127
324.52131519274377	324.7767120181406	71	127
324.8231746031746	325.1018140589569	40	127
324.8231746031746	325.1018140589569	76	127
324.8231746031746	325.1018140589569	80	127
324.8231746031746	325.1018140589569	85	127
324.8231746031746	325.1018140589569	52	127
324.8231746031746	325.1018140589569	73	127
325.15986394557825	325.415283446712	76	127
325.15986394557825	325.415283446712	56	127
325.15986394557825	325.415283446712	61	127
325.15986394557825	325.415283446712	64	127
325.15986394557825	325.415283446712	88	127
325.4617233560091	325.7055328798186	73	127
325.4617233560091	325.7055328798186	80	127
325.4617233560091	325.7055328798186	92	127
325.75197278911565	326.06544217687076	33	127
325.75197278911565	326.06544217687076	45	127
325.75197278911565	326.3556916099773	85	127
325.75197278911565	326.3556916099773	88	127
325.75197278911565	326.3556916099773	93	127
325.75197278911565	326.3556916099773	97	127
326.12349206349205	326.37891156462587	64	127
326.12349206349205	326.37891156462587	69	127
326.12349206349205	326.37891156462587	73	127
326.12349206349205	326.37891156462587	61	127
326.43696145124716	326.7272108843537	93	127
326.43696145124716	326.7272108843537	69	127
326.43696145124716	326.7272108843537	81	127
326.7736507936508	327.3657596371882	86	127
326.7736507936508	327.3657596371882	90	127
326.7736507936508	327.3657596371882	78	127
326.7736507936508	327.3657596371882	81	127
326.7736507936508	327.0871201814059	50	127
326.7736507936508	327.0871201814059	38	127
327.13356009070293	327.38897959183674	66	127
327.13356009070293	327.38897959183674	54	127
327.13356009070293	327.38897959183674	57	127
327.13356009070293	327.38897959183674	62	127
327.44702947845803	327.7256689342404	74	127
327.44702947845803	327.7256689342404	86	127
327.44702947845803	327.7256689342404	62	127
327.7721088435374	328.062358276644	73	127
327.7721088435374	328.062358276644	76	127
327.7721088435374	328.062358276644	80	127
327.7721088435374	328.062358276644	40	127
327.7721088435374	328.062358276644	52	127
327.7721088435374	328.062358276644	85	127
328.10879818594105	328.3642176870748	88	127
328.10879818594105	328.3642176870748	76	127
328.10879818594105	328.3642176870748	56	127
328.10879818594105	328.3642176870748	61	127
328.10879818594105	328.3642176870748	64	127
328.4106575963719	328.66607709750565	80	127
328.4106575963719	328.66607709750565	68	127
328.4106575963719	328.66607709750565	92	127
328.74734693877554	329.2697732426304	30	127
328.74734693877554	329.2697732426304	42	127
329.0375963718821	329.29301587301586	69	127
329.0375963718821	329.29301587301586	73	127
329.0375963718821	329.29301587301586	78	127
329.0375963718821	329.29301587301586	81	127
329.3626757369615	329.71097505668934	33	127
329.3626757369615	329.71097505668934	45	127
329.7690249433107	330.30308390022674	47	127
329.7690249433107	330.30308390022674	35	127
330.047664399093	330.3263038548753	71	127
330.047664399093	330.3263038548753	66	127
330.047664399093	330.3263038548753	62	127
330.047664399093	330.3263038548753	74	127
330.37274376417236	330.60492063492063	38	127
330.37274376417236	330.60492063492063	50	127
330.65138321995465	331.2086394557823	40	127
330.65138321995465	331.2086394557823	52	127
330.976462585034	331.2318820861678	68	127
330.976462585034	331.2318820861678	73	127
330.976462585034	331.2318820861678	64	127
330.976462585034	331.2318820861678	76	127
331.27832199546486	331.6730612244898	37	127
331.27832199546486	331.6730612244898	49	127
331.7194784580499	332.24195011337866	33	127
331.7194784580499	332.24195011337866	45	127
332.0213605442177	332.2651700680272	76	127
332.0213605442177	332.2651700680272	81	127
332.0213605442177	332.2651700680272	85	127
332.0213605442177	332.2651700680272	73	127
332.3116099773243	332.63668934240366	37	127
332.3116099773243	332.63668934240366	49	127
332.7063492063492	333.2752380952381	38	127
332.7063492063492	333.2752380952381	50	127
333.06625850340134	333.2984580498866	78	127
333.06625850340134	333.2984580498866	69	127
333.06625850340134	333.2984580498866	66	127
333.06625850340134	333.2984580498866	74	127
333.3448979591837	333.5770975056689	54	127
333.3448979591837	333.5770975056689	42	127
333.623537414966	334.14598639455784	52	127
333.623537414966	334.14598639455784	40	127
333.91378684807256	334.1692063492064	73	127
333.91378684807256	334.1692063492064	76	127
333.91378684807256	334.1692063492064	64	127
333.91378684807256	334.1692063492064	68	127
334.22725623582767	334.50589569160996	44	127
334.22725623582767	334.50589569160996	32	127
334.59877551020406	335.27215419501135	68	127
334.7845124716553	334.947074829932	92	127
334.947074829932	335.0979818594104	80	127
335.0979818594104	335.27215419501135	84	127
335.27215419501135	335.4695238095238	89	127
335.27215419501135	335.64367346938775	65	127
335.4811337868481	335.6320634920635	77	127
335.64367346938775	336.28222222222223	61	127
335.7829931972789	335.95714285714286	85	127
335.95714285714286	336.1312925170068	73	127
336.1312925170068	336.28222222222223	77	127
336.28222222222223	336.58408163265307	58	127
336.28222222222223	336.4331292517007	82	127
336.4331292517007	336.5724716553288	70	127
336.58408163265307	336.8859410430839	60	127
336.7466213151927	336.8859410430839	84	127
336.8859410430839	337.03684807256235	75	127
336.8859410430839	337.199410430839	63	127
337.03684807256235	337.199410430839	87	127
337.199410430839	337.46643990929704	67	127
337.199410430839	337.35031746031746	91	127
337.35031746031746	337.5128798185941	79	127
337.5128798185941	338.1049886621315	72	127
337.6638095238095	337.8031292517007	96	127
337.8031292517007	337.9540362811791	84	127
337.9540362811791	338.1049886621315	87	127
338.1049886621315	338.4300680272109	68	127
338.1049886621315	338.25591836734696	92	127
338.25591836734696	338.4300680272109	80	127
338.4300680272109	339.04539682539684	65	127
338.5809977324263	338.743537414966	89	127
338.75514739229027	338.8944671201814	77	127
338.8944671201814	339.04539682539684	80	127
339.04539682539684	339.21954648526076	85	127
339.04539682539684	339.3704761904762	61	127
339.21954648526076	339.3704761904762	73	127
339.3704761904762	339.6839455782313	60	127
339.53301587301587	339.67233560090705	72	127
339.6839455782313	339.9974149659864	63	127
339.6839455782313	339.82326530612244	63	127
339.8348752834467	339.9974149659864	75	127
339.9974149659864	340.1483446712018	79	127
339.9974149659864	340.26444444444445	67	127
340.1483446712018	340.3108616780045	67	127
340.3108616780045	340.90299319727893	68	127
340.4618140589569	340.6011337868481	92	127
340.6011337868481	340.7404535147392	80	127
340.7520634920635	340.89138321995466	84	127
340.90299319727893	341.04231292517005	89	127
340.90299319727893	341.20485260770977	63	127
341.04231292517005	341.20485260770977	77	127
341.20485260770977	341.85501133786846	59	127
341.3790022675737	341.5415192743764	83	127
341.5415192743764	341.7040816326531	71	127
341.7040816326531	341.84337868480725	75	127
341.85501133786846	341.99433106575964	80	127
341.85501133786846	342.1452607709751	56	127
342.0059410430839	342.1452607709751	68	127
342.1452607709751	342.4471201814059	59	127
342.1452607709751	343.0043990929705	67	127
342.30780045351474	342.4471201814059	83	127
342.4471201814059	342.5980498866213	72	127
342.4471201814059	342.74897959183676	60	127
342.5980498866213	342.74897959183676	84	127
342.74897959183676	343.0043990929705	63	127
342.74897959183676	342.89990929705215	87	127
342.9115192743764	343.0508390022676	75	127
343.06244897959186	343.65455782312927	68	127
343.201768707483	343.35269841269843	92	127
343.35269841269843	343.5036281179138	80	127
343.5036281179138	343.65455782312927	84	127
343.65455782312927	343.80548752834466	89	127
343.65455782312927	343.9680272108844	63	127
343.80548752834466	343.9564172335601	77	127
343.9680272108844	344.57174603174604	59	127
344.13056689342403	344.2698866213152	83	127
344.2698866213152	344.40920634920633	71	127
344.40920634920633	344.57174603174604	75	127
344.57174603174604	344.8619954648526	56	127
344.57174603174604	344.72267573696143	80	127
344.72267573696143	344.8619954648526	68	127
344.8619954648526	345.69791383219956	67	127
344.8619954648526	345.16385487528345	59	127
345.0013151927438	345.1522448979592	83	127
345.16385487528345	345.44249433106575	60	127
345.16385487528345	345.29156462585036	72	127
345.29156462585036	345.44249433106575	84	127
345.44249433106575	345.5934240362812	87	127
345.44249433106575	345.69791383219956	63	127
345.5934240362812	345.75596371882085	75	127
345.75596371882085	346.6267120181406	43	127
345.75596371882085	346.6267120181406	31	127
345.91850340136057	346.06943310657596	53	127
346.0926530612245	346.2319727891157	62	127
346.0926530612245	346.2319727891157	59	127
346.24356009070294	346.38290249433106	65	127
346.38290249433106	346.5454195011338	62	127
346.38290249433106	346.5454195011338	59	127
346.5454195011338	346.69637188208617	53	127
346.69637188208617	348.61201814058956	44	127
346.69637188208617	348.61201814058956	32	127
346.9053514739229	347.07950113378683	53	127
347.07950113378683	347.218820861678	58	127
347.07950113378683	347.218820861678	62	127
347.2304308390023	347.38136054421767	65	127
347.39297052154194	347.5322902494331	58	127
347.39297052154194	347.5322902494331	62	127
347.5322902494331	347.7180498866213	53	127
347.88056689342403	348.0315192743764	54	127
348.0315192743764	348.20566893424035	63	127
348.0315192743764	348.20566893424035	59	127
348.20566893424035	348.3565986394558	66	127
348.36820861678007	348.5307482993197	59	127
348.36820861678007	348.5307482993197	63	127
348.542358276644	348.69326530612244	54	127
348.69326530612244	349.5175736961451	31	127
348.69326530612244	349.5175736961451	43	127
348.8558276643991	349.00673469387755	53	127
349.00673469387755	349.15768707482994	59	127
349.00673469387755	349.15768707482994	62	127
349.15768707482994	349.2970068027211	65	127
349.2970068027211	349.43632653061223	59	127
349.2970068027211	349.43632653061223	62	127
349.4479365079365	349.59886621315195	53	127
349.59886621315195	351.4796825396825	32	127
349.59886621315195	351.4796825396825	44	127
349.73818594104307	349.8891156462585	53	127
349.8891156462585	350.0400453514739	62	127
349.8891156462585	350.0400453514739	58	127
350.0400453514739	350.19097505668935	65	127
350.19097505668935	350.353514739229	58	127
350.19097505668935	350.353514739229	62	127
350.353514739229	350.53925170068027	53	127
350.78308390022676	350.92240362811793	54	127
350.92240362811793	351.10816326530613	63	127
350.92240362811793	351.10816326530613	59	127
351.10816326530613	351.2474603174603	66	127
351.2474603174603	351.41002267573697	63	127
351.2474603174603	351.41002267573697	59	127
351.41002267573697	351.5725623582766	54	127
351.5725623582766	352.1646485260771	66	127
351.7234920634921	351.86278911564625	90	127
351.87442176870746	352.01374149659864	78	127
352.01374149659864	352.1646485260771	81	127
352.1646485260771	352.338820861678	85	127
352.1646485260771	352.4897505668934	61	127
352.338820861678	352.4897505668934	73	127
352.4897505668934	353.0702494331066	57	127
352.6290702947846	352.76839002267576	81	127
352.77997732426303	352.91931972789115	69	127
352.91931972789115	353.0702494331066	73	127
353.0702494331066	353.4069387755102	52	127
353.0702494331066	353.2560090702948	76	127
353.2560090702948	353.4069387755102	64	127
353.4069387755102	353.74362811791383	54	127
353.5694784580499	353.74362811791383	78	127
353.74362811791383	353.882947845805	69	127
353.74362811791383	354.0338775510204	57	127
353.8945578231293	354.0338775510204	81	127
354.0338775510204	354.1964172335601	85	127
354.0338775510204	354.31249433106575	61	127
354.1964172335601	354.35895691609977	73	127
354.35895691609977	354.9510657596372	66	127
354.5098866213152	354.6608163265306	90	127
354.6608163265306	354.7885260770975	78	127
354.8001360544218	354.9394557823129	81	127
354.9510657596372	355.1019954648526	85	127
354.9510657596372	355.2645351473923	61	127
355.1019954648526	355.2645351473923	73	127
355.2645351473923	355.90308390022676	57	127
355.43866213151927	355.5780045351474	81	127
355.5780045351474	355.72893424036283	69	127
355.72893424036283	355.8914739229025	73	127
355.90308390022676	356.18172335600906	52	127
355.90308390022676	356.04240362811794	76	127
356.0539909297052	356.18172335600906	64	127
356.18172335600906	356.54163265306124	54	127
356.3790929705215	356.54163265306124	78	127
356.54163265306124	356.7041723356009	69	127
356.54163265306124	356.85510204081635	57	127
356.7041723356009	356.85510204081635	81	127
356.85510204081635	357.00603174603174	85	127
356.85510204081635	357.1221315192744	61	127
357.017641723356	357.16857142857145	73	127
357.1801587301587	357.81873015873015	69	127
357.31950113378684	357.50526077097504	93	127
357.50526077097504	357.66780045351476	81	127
357.66780045351476	357.81873015873015	85	127
357.81873015873015	358.1438095238095	66	127
357.81873015873015	358.0044671201814	90	127
358.0044671201814	358.13219954648525	78	127
358.1438095238095	358.7359183673469	61	127
358.29473922902497	358.4340589569161	85	127
358.4340589569161	358.561768707483	73	127
358.561768707483	358.7359183673469	78	127
358.7359183673469	359.03777777777776	57	127
358.7359183673469	358.8868480725624	81	127
358.8868480725624	359.03777777777776	69	127
359.03777777777776	359.6066666666667	54	127
359.17709750566894	359.3396371882086	78	127
359.35124716553287	359.4789569160998	66	127
359.4789569160998	359.6066666666667	69	127
359.6066666666667	359.76920634920634	73	127
359.6066666666667	359.9201360544218	49	127
359.76920634920634	359.9201360544218	61	127
359.9201360544218	360.48902494331065	45	127
360.0594557823129	360.1987755102041	69	127
360.21038548752836	360.34968253968253	57	127
360.36131519274375	360.48902494331065	69	127
360.48902494331065	360.76766439909295	49	127
360.48902494331065	360.62834467120183	73	127
360.62834467120183	360.76766439909295	61	127
360.76766439909295	361.3829931972789	45	127
360.9185941043084	361.06950113378684	69	127
361.06950113378684	361.22045351473923	57	127
361.2320634920635	361.3713605442177	69	127
361.3829931972789	361.52231292517007	73	127
361.3829931972789	361.6732199546485	49	127
361.52231292517007	361.6732199546485	61	127
361.6732199546485	362.2653514739229	45	127
361.80095238095237	361.94027210884354	69	127
361.94027210884354	362.1028117913832	57	127
362.1028117913832	362.25374149659865	69	127
362.2653514739229	362.43950113378685	73	127
362.2653514739229	362.5439909297052	49	127
362.4511111111111	362.5904308390023	61	127
362.5904308390023	363.11285714285714	45	127
362.5904308390023	363.11285714285714	33	127
362.88068027210886	363.1477097505669	57	127
363.19414965986397	363.47278911564626	37	127
363.19414965986397	363.47278911564626	49	127
363.19414965986397	363.47278911564626	61	127
363.53083900226756	364.04167800453513	33	127
363.53083900226756	364.04167800453513	45	127
363.79786848072564	364.06489795918367	57	127
364.1345351473923	364.3783673469388	37	127
364.1345351473923	364.3783673469388	61	127
364.1345351473923	364.3783673469388	49	127
364.44802721088433	365.005306122449	45	127
364.44802721088433	365.005306122449	33	127
364.76149659863944	365.0285260770975	57	127
365.07496598639455	365.34199546485263	49	127
365.07496598639455	365.34199546485263	61	127
365.07496598639455	365.34199546485263	37	127
365.38843537414965	365.88766439909296	45	127
365.38843537414965	365.88766439909296	33	127
365.64385487528347	365.8992743764172	57	127
365.9457142857143	366.2243537414966	37	127
365.9457142857143	366.2243537414966	49	127
365.9457142857143	366.2243537414966	61	127
366.2707936507937	366.78163265306125	33	127
366.2707936507937	366.78163265306125	45	127
366.56104308390024	366.80485260770973	56	127
366.8512925170068	367.09507936507936	59	127
366.8512925170068	367.09507936507936	35	127
366.8512925170068	367.09507936507936	47	127
367.1415419501134	367.7220408163265	43	127
367.1415419501134	367.7220408163265	31	127
367.4898412698413	367.74526077097505	55	127
367.79170068027213	368.05873015873016	34	127
367.79170068027213	368.05873015873016	46	127
367.79170068027213	368.05873015873016	58	127
368.10517006802723	368.65083900226756	30	127
368.10517006802723	368.65083900226756	42	127
368.41863945578234	368.6740589569161	57	127
368.73208616780045	368.96430839002267	33	127
368.73208616780045	368.96430839002267	54	127
368.73208616780045	368.96430839002267	45	127
369.01074829931974	369.50997732426305	42	127
369.01074829931974	369.50997732426305	30	127
369.28938775510204	369.5331972789116	57	127
369.5912471655329	369.8350566893424	54	127
369.5912471655329	369.8350566893424	33	127
369.5912471655329	369.8350566893424	45	127
369.88149659863944	370.41555555555556	31	127
369.88149659863944	370.41555555555556	43	127
370.19496598639455	370.46199546485263	55	127
370.50843537414966	370.76385487528347	52	127
370.50843537414966	370.76385487528347	47	127
370.50843537414966	370.76385487528347	35	127
370.82190476190476	371.2979138321995	43	127
370.82190476190476	371.2979138321995	31	127
371.0773242630386	371.32113378684807	51	127
371.36757369614514	371.6578231292517	30	127
371.36757369614514	371.6578231292517	54	127
371.36757369614514	371.6578231292517	42	127
371.72748299319727	372.2499319727891	31	127
371.72748299319727	372.2499319727891	43	127
372.0293424036281	372.27315192743765	52	127
372.3195918367347	372.58662131519276	57	127
372.3195918367347	372.58662131519276	28	127
372.3195918367347	372.58662131519276	40	127
372.6330612244898	373.1090702947846	42	127
372.6330612244898	373.1090702947846	30	127
372.9349206349206	373.13226757369614	52	127
373.17873015873016	373.434126984127	55	127
373.17873015873016	373.434126984127	31	127
373.17873015873016	373.434126984127	43	127
373.480589569161	373.99142857142857	45	127
373.480589569161	373.99142857142857	33	127
373.78244897959183	374.0146485260771	50	127
374.06108843537413	374.3281179138322	47	127
374.06108843537413	374.3281179138322	52	127
374.06108843537413	374.3281179138322	35	127
374.37455782312924	374.9202267573696	48	127
374.37455782312924	374.9202267573696	36	127
374.7112471655329	374.94344671201816	54	127
374.9898866213152	375.22208616780046	38	127
374.9898866213152	375.22208616780046	50	127
374.9898866213152	375.22208616780046	55	127
375.25691609977326	375.76775510204084	33	127
375.25691609977326	375.76775510204084	45	127
375.5587755102041	375.7909523809524	57	127
375.84902494331067	376.0928117913832	49	127
375.84902494331067	376.0928117913832	59	127
375.84902494331067	376.0928117913832	37	127
376.13927437641723	376.6617233560091	37	127
376.13927437641723	376.6617233560091	49	127
376.44113378684807	376.6965532879819	58	127
376.76621315192745	377.01	40	127
376.76621315192745	377.01	61	127
376.76621315192745	377.01	52	127
377.0912925170068	377.6021315192744	38	127
377.0912925170068	377.6021315192744	50	127
377.3815419501134	377.63696145124715	59	127
377.6834013605442	377.9156009070295	62	127
377.6834013605442	377.9156009070295	42	127
377.6834013605442	377.9156009070295	54	127
377.98526077097506	378.49609977324263	52	127
377.98526077097506	378.49609977324263	40	127
378.2755102040816	378.5193197278912	61	127
378.5657596371882	378.80956916099774	50	127
378.5657596371882	378.80956916099774	59	127
378.5657596371882	378.80956916099774	38	127
378.8559863945578	379.3784580498866	37	127
378.8559863945578	379.3784580498866	49	127
379.1346485260771	379.40167800453514	58	127
379.4481179138322	379.65709750566896	48	127
379.4481179138322	379.65709750566896	57	127
379.4481179138322	379.65709750566896	36	127
379.703537414966	380.21437641723355	35	127
379.703537414966	380.21437641723355	47	127
379.99378684807255	380.2375963718821	55	127
380.28401360544217	380.5510657596372	45	127
380.28401360544217	380.5510657596372	33	127
380.28401360544217	380.5510657596372	60	127
380.5975056689342	381.13156462585033	43	127
380.5975056689342	381.13156462585033	31	127
380.9109750566893	381.15478458049887	59	127
381.2012244897959	381.468253968254	41	127
381.2012244897959	381.468253968254	29	127
381.2012244897959	381.468253968254	62	127
381.52630385487527	382.0487528344671	40	127
381.52630385487527	382.0487528344671	28	127
381.8397732426304	382.07197278911565	56	127
382.13002267573694	382.3738321995465	59	127
382.13002267573694	382.3738321995465	38	127
382.13002267573694	382.3738321995465	50	127
382.42027210884356	382.9078911564626	37	127
382.42027210884356	382.9078911564626	49	127
382.69891156462586	382.93111111111114	64	127
382.69891156462586	382.93111111111114	52	127
383.0007709750567	383.2445804988662	47	127
383.0007709750567	383.2445804988662	62	127
383.0007709750567	383.2445804988662	50	127
383.0007709750567	383.2445804988662	35	127
383.29102040816326	383.8715192743764	33	127
383.29102040816326	383.8715192743764	45	127
383.6277097505669	383.9063492063492	54	127
383.6277097505669	383.9063492063492	66	127
383.9527891156463	384.2198185941043	52	127
383.9527891156463	384.2198185941043	43	127
383.9527891156463	384.2198185941043	64	127
383.9527891156463	384.2198185941043	31	127
384.2778684807256	384.42879818594105	62	127
384.2778684807256	384.42879818594105	54	127
384.42879818594105	384.57972789115644	69	127
384.57972789115644	384.7306575963719	84	127
384.7306575963719	384.89319727891154	74	127
384.89319727891154	385.06734693877553	72	127
385.06734693877553	385.2298866213152	84	127
385.24149659863946	385.38081632653063	55	127
385.24149659863946	385.38081632653063	62	127
385.39242630385485	385.531746031746	67	127
385.531746031746	385.68267573696147	84	127
385.68267573696147	385.83360544217686	76	127
385.83360544217686	385.9845351473923	72	127
385.9845351473923	386.15868480725624	84	127
386.15868480725624	386.28639455782314	57	127
386.15868480725624	386.28639455782314	62	127
386.2980045351474	386.42571428571426	66	127
386.43732426303853	386.5766439909297	84	127
386.5766439909297	386.7275736961451	72	127
386.7275736961451	386.87850340136055	83	127
386.87850340136055	387.02943310657594	71	127
387.02943310657594	387.1803628117914	84	127
387.02943310657594	387.1803628117914	55	127
387.02943310657594	387.1803628117914	62	127
387.1803628117914	387.34290249433104	72	127
387.1803628117914	387.31968253968256	67	127
387.34290249433104	387.50544217687076	88	127
387.50544217687076	387.6447619047619	76	127
387.6447619047619	387.7956916099773	86	127
387.7956916099773	387.9466213151928	74	127
387.9466213151928	388.0859410430839	62	127
387.9466213151928	388.0859410430839	54	127
388.0859410430839	388.23687074829934	69	127
388.23687074829934	388.399410430839	84	127
388.41102040816327	388.5735600907029	74	127
388.5851700680272	388.7128798185941	72	127
388.7128798185941	388.86380952380955	84	127
388.86380952380955	389.01473922902494	55	127
388.86380952380955	389.01473922902494	62	127
389.01473922902494	389.1656689342404	67	127
389.1656689342404	389.32820861678005	84	127
389.32820861678005	389.4675283446712	76	127
389.4791383219955	389.6184580498866	72	127
389.6300680272109	389.76938775510206	84	127
389.76938775510206	389.9087074829932	57	127
389.76938775510206	389.9087074829932	62	127
389.9087074829932	390.04802721088436	66	127
390.04802721088436	390.19895691609975	84	127
390.19895691609975	390.3498866213152	72	127
390.3498866213152	390.50081632653064	83	127
390.50081632653064	390.67496598639457	71	127
390.67496598639457	390.8142857142857	55	127
390.67496598639457	390.8142857142857	84	127
390.67496598639457	390.8142857142857	62	127
390.8142857142857	390.96521541950113	72	127
390.8142857142857	390.96521541950113	67	127
390.96521541950113	391.1161451247166	88	127
391.1161451247166	391.26707482993197	76	127
391.26707482993197	391.42961451247163	86	127
391.42961451247163	391.5689342403628	74	127
391.5805442176871	391.71986394557825	54	127
391.5805442176871	391.71986394557825	63	127
391.73147392290247	391.8591836734694	69	127
391.8591836734694	392.0101133786848	84	127
392.0101133786848	392.1726530612245	75	127
392.1726530612245	392.3235827664399	72	127
392.3235827664399	392.4745124716553	84	127
392.4745124716553	392.6138321995465	55	127
392.4745124716553	392.6138321995465	63	127
392.62544217687076	392.7531519274376	67	127
392.7647619047619	392.90408163265306	86	127
392.90408163265306	393.0201814058957	82	127
393.0201814058957	393.1711111111111	74	127
393.1711111111111	393.32204081632653	86	127
393.32204081632653	393.4729705215419	63	127
393.32204081632653	393.4729705215419	56	127
393.4729705215419	393.63551020408164	67	127
393.6471201814059	393.7980498866213	84	127
393.7980498866213	393.9373696145125	72	127
393.9373696145125	394.08829931972787	82	127
394.08829931972787	394.26244897959185	70	127
394.26244897959185	394.41337868480724	80	127
394.26244897959185	395.0983673469388	58	127
394.26244897959185	394.5178684807256	66	127
394.41337868480724	394.5643083900227	68	127
394.5643083900227	394.81972789115645	67	127
394.5643083900227	394.72684807256235	82	127
394.72684807256235	394.8777777777778	70	127
394.8777777777778	395.1215873015873	68	127
394.8777777777778	395.0170975056689	84	127
395.0170975056689	395.16802721088436	72	127
395.16802721088436	397.0024036281179	27	127
395.16802721088436	397.0024036281179	39	127
395.504716553288	395.8762358276644	67	127
395.504716553288	395.8762358276644	61	127
395.504716553288	395.8762358276644	73	127
395.504716553288	395.8762358276644	70	127
395.94589569160996	396.1897052154195	55	127
395.94589569160996	396.1897052154195	58	127
395.94589569160996	396.1897052154195	49	127
396.49156462585034	396.7237641723356	73	127
396.49156462585034	396.7237641723356	61	127
396.49156462585034	396.7237641723356	69	127
396.49156462585034	396.7237641723356	66	127
396.7818140589569	397.02562358276646	49	127
396.7818140589569	397.02562358276646	54	127
396.7818140589569	397.02562358276646	57	127
397.0720634920635	397.8847619047619	39	127
397.0720634920635	397.8847619047619	27	127
397.3739229024943	397.61773242630386	68	127
397.3739229024943	397.61773242630386	72	127
397.3739229024943	397.61773242630386	60	127
397.6641723356009	397.9079818594104	56	127
397.6641723356009	397.9079818594104	54	127
397.6641723356009	397.9079818594104	48	127
397.98925170068026	398.52331065759637	28	127
397.98925170068026	398.52331065759637	40	127
398.2911111111111	398.5465306122449	64	127
398.2911111111111	398.5465306122449	71	127
398.2911111111111	398.5465306122449	67	127
398.2911111111111	398.5465306122449	59	127
398.59297052154193	398.86	43	127
398.59297052154193	398.86	31	127
398.9180498866213	399.40566893424034	40	127
398.9180498866213	399.40566893424034	28	127
399.1850793650794	399.4288888888889	60	127
399.1850793650794	399.4288888888889	64	127
399.1850793650794	399.4288888888889	72	127
399.1850793650794	399.4288888888889	67	127
399.47532879818596	399.7307482993197	31	127
399.47532879818596	399.7307482993197	43	127
399.7655782312925	400.2415873015873	40	127
399.7655782312925	400.2415873015873	28	127
400.06743764172336	400.2648072562358	67	127
400.06743764172336	400.2648072562358	55	127
400.06743764172336	400.2648072562358	60	127
400.06743764172336	400.2648072562358	64	127
400.29963718820864	400.5550566893424	43	127
400.29963718820864	400.5550566893424	31	127
400.60149659863947	402.3197732426304	39	127
400.60149659863947	402.3197732426304	27	127
400.9149659863946	401.15877551020407	61	127
400.9149659863946	401.15877551020407	73	127
400.9149659863946	401.15877551020407	67	127
400.9149659863946	401.15877551020407	70	127
401.20521541950114	401.44902494331063	49	127
401.20521541950114	401.44902494331063	58	127
401.20521541950114	401.44902494331063	55	127
401.79732426303855	402.0411337868481	61	127
401.79732426303855	402.0411337868481	66	127
401.79732426303855	402.0411337868481	69	127
401.79732426303855	402.0411337868481	73	127
402.0875736961451	402.34299319727893	54	127
402.0875736961451	402.34299319727893	49	127
402.0875736961451	402.34299319727893	57	127
402.38943310657595	403.20213151927436	39	127
402.38943310657595	403.20213151927436	27	127
402.6680725623583	402.9118820861678	66	127
402.6680725623583	402.9118820861678	60	127
402.6680725623583	402.9118820861678	72	127
402.6680725623583	402.9118820861678	68	127
402.96993197278914	403.2253514739229	54	127
402.96993197278914	403.2253514739229	56	127
402.96993197278914	403.2253514739229	48	127
403.2834013605442	403.78263038548755	28	127
403.2834013605442	403.78263038548755	40	127
403.5968707482993	403.8174603174603	67	127
403.5968707482993	403.8174603174603	73	127
403.5968707482993	403.8174603174603	61	127
403.5968707482993	403.8174603174603	64	127
403.8639002267574	404.09609977324266	43	127
403.8639002267574	404.09609977324266	31	127
404.15414965986395	404.6649886621315	28	127
404.15414965986395	404.6649886621315	40	127
404.4443990929705	404.68820861678006	60	127
404.4443990929705	404.68820861678006	68	127
404.4443990929705	404.68820861678006	72	127
404.4443990929705	404.68820861678006	64	127
404.7346485260771	404.9436281179138	44	127
404.7346485260771	404.9436281179138	32	127
404.9900680272109	405.5357369614512	28	127
404.9900680272109	405.5357369614512	40	127
405.28031746031746	405.55895691609976	70	127
405.28031746031746	405.55895691609976	73	127
405.28031746031746	405.55895691609976	61	127
405.28031746031746	405.55895691609976	66	127
405.6286167800454	405.9304761904762	30	127
405.6286167800454	405.9304761904762	42	127
405.97691609977323	406.1278458049887	51	127
405.97691609977323	406.1278458049887	59	127
406.13945578231295	406.27877551020407	66	127
406.29038548752834	406.4297052154195	81	127
406.4297052154195	406.5806349206349	71	127
406.5806349206349	406.73156462585035	69	127
406.73156462585035	406.88249433106574	81	127
406.88249433106574	407.0334240362812	52	127
406.88249433106574	407.0334240362812	59	127
407.0334240362812	407.1611337868481	64	127
407.1727437641723	407.3004535147392	81	127
407.3120634920635	407.45138321995466	73	127
407.45138321995466	407.6255328798186	69	127
407.6255328798186	407.77646258503404	81	127
407.77646258503404	407.92739229024943	54	127
407.77646258503404	407.92739229024943	59	127
407.92739229024943	408.0783219954649	63	127
408.0783219954649	408.217641723356	81	127
408.22925170068027	408.2989115646258	69	127
408.3105215419501	408.4498412698413	83	127
408.4498412698413	408.60077097505666	71	127
408.60077097505666	408.7517006802721	85	127
408.60077097505666	408.7517006802721	59	127
408.60077097505666	408.7517006802721	52	127
408.7517006802721	408.90263038548756	64	127
408.7517006802721	408.90263038548756	73	127
408.90263038548756	409.0651700680272	78	127
409.0651700680272	409.2160997732426	66	127
409.23931972789114	409.3902494331066	80	127
409.3902494331066	409.541179138322	68	127
409.541179138322	409.6921088435374	60	127
409.541179138322	409.6921088435374	51	127
409.6921088435374	409.8430385487528	66	127
409.8430385487528	409.99396825396826	81	127
409.99396825396826	410.14489795918365	72	127
410.14489795918365	410.2958276643991	69	127
410.30743764172337	410.4467573696145	81	127
410.4467573696145	410.5744671201814	60	127
410.4467573696145	410.5744671201814	52	127
410.5744671201814	410.7137868480726	64	127
410.7137868480726	410.86471655328796	79	127
410.86471655328796	411.0156462585034	71	127
411.0156462585034	411.15496598639453	67	127
411.1665759637188	411.30589569161	79	127
411.31750566893425	411.4568253968254	60	127
411.31750566893425	411.4568253968254	53	127
411.4568253968254	411.6077551020408	64	127
411.6077551020408	411.77029478458047	80	127
411.77029478458047	411.9212244897959	68	127
411.9212244897959	412.0605442176871	81	127
412.0605442176871	412.1998639455782	69	127
412.2114739229025	413.08222222222224	63	127
412.2114739229025	412.3391836734694	83	127
412.2114739229025	413.9297505668934	54	127
412.2114739229025	412.8268027210884	57	127
412.35079365079366	412.4901133786848	71	127
412.4901133786848	412.66426303854877	86	127
412.66426303854877	412.8268027210884	74	127
412.8268027210884	412.9777324263039	84	127
412.8268027210884	413.08222222222224	59	127
412.9777324263039	413.12866213151926	72	127
413.12866213151926	413.9297505668934	60	127
413.12866213151926	413.26798185941044	83	127
413.12866213151926	413.9297505668934	62	127
413.26798185941044	413.41891156462583	71	127
413.41891156462583	413.558231292517	80	127
413.558231292517	413.70916099773245	68	127
413.70916099773245	413.8484807256236	81	127
413.8484807256236	413.999410430839	69	127
413.999410430839	414.13873015873014	55	127
413.999410430839	414.13873015873014	59	127
414.1503401360544	414.2896598639456	66	127
414.2896598639456	414.440589569161	86	127
414.440589569161	414.57990929705215	78	127
414.5915192743764	414.7308390022676	74	127
414.7308390022676	414.89337868480726	86	127
414.89337868480726	415.02108843537417	62	127
414.89337868480726	415.02108843537417	55	127
415.03269841269844	415.17201814058956	66	127
415.17201814058956	415.31133786848073	82	127
415.31133786848073	415.4622675736961	70	127
415.4622675736961	415.6015873015873	83	127
415.6015873015873	415.75251700680275	71	127
415.75251700680275	417.4243537414966	56	127
415.75251700680275	416.58843537414964	65	127
415.75251700680275	416.34462585034015	59	127
415.75251700680275	415.89183673469387	85	127
415.90344671201814	416.0427664399093	73	127
416.0543764172336	416.1936961451247	88	127
416.205306122449	416.34462585034015	76	127
416.34462585034015	416.58843537414964	61	127
416.34462585034015	416.49555555555554	86	127
416.49555555555554	416.6000453514739	74	127
416.6000453514739	417.4243537414966	64	127
416.6000453514739	417.4243537414966	62	127
416.6000453514739	416.7393650793651	85	127
416.7393650793651	416.8902947845805	73	127
416.90190476190475	417.0412244897959	82	127
417.0528344671202	417.1921541950113	70	127
417.2037641723356	417.35469387755103	83	127
417.35469387755103	417.5985034013605	71	127
417.5985034013605	419.3051700680272	33	127
417.5985034013605	419.3051700680272	45	127
417.71460317460316	417.8655328798186	61	127
417.8655328798186	418.016462585034	57	127
417.8655328798186	418.016462585034	52	127
418.016462585034	418.16739229024944	49	127
418.16739229024944	418.3067120181406	61	127
418.3183219954648	418.457641723356	49	127
418.60857142857145	418.75950113378684	63	127
418.7711111111111	418.93365079365077	59	127
418.7711111111111	418.93365079365077	54	127
418.93365079365077	419.0845804988662	51	127
419.0961904761905	419.2355102040816	63	127
419.2355102040816	419.3748299319728	51	127
419.3748299319728	420.21074829931973	33	127
419.3748299319728	420.21074829931973	45	127
419.51414965986396	419.66507936507935	64	127
419.66507936507935	419.82761904761907	57	127
419.66507936507935	419.82761904761907	61	127
419.82761904761907	419.97854875283446	52	127
419.9901587301587	420.1294784580499	66	127
420.1294784580499	420.2804081632653	54	127
420.29201814058956	422.8578231292517	21	127
420.4545578231293	420.61709750566894	55	127
420.61709750566894	420.7680272108843	60	127
420.7796371882086	420.88412698412696	64	127
420.88412698412696	421.0466666666667	67	127
421.0466666666667	421.19759637188207	72	127
421.19759637188207	421.33691609977325	43	127
421.19759637188207	421.33691609977325	76	127
421.33691609977325	421.48784580498864	79	127
421.33691609977325	421.48784580498864	48	127
421.48784580498864	421.65038548752835	84	127
421.48784580498864	421.65038548752835	52	127
421.65038548752835	421.7897052154195	55	127
421.65038548752835	421.7897052154195	88	127
421.7897052154195	421.9522448979592	84	127
421.7897052154195	421.9522448979592	60	127
421.9522448979592	422.1031746031746	64	127
421.9522448979592	422.1031746031746	79	127
422.1031746031746	422.2308843537415	76	127
422.1031746031746	422.2308843537415	67	127
422.2308843537415	422.3934240362812	72	127
422.3934240362812	422.52113378684805	67	127
422.52113378684805	422.64884353741496	64	127
422.66045351473923	422.78816326530614	60	127
422.78816326530614	422.92748299319726	55	127
422.92748299319726	424.680589569161	45	127
422.92748299319726	424.680589569161	33	127
423.05519274376417	423.19451247165534	61	127
423.19451247165534	423.34544217687073	57	127
423.19451247165534	423.34544217687073	52	127
423.34544217687073	423.4847619047619	49	127
423.4963718820862	423.64730158730157	61	127
423.64730158730157	423.82145124716556	49	127
423.9839909297052	424.13492063492066	63	127
424.13492063492066	424.2974603174603	59	127
424.13492063492066	424.2974603174603	54	127
424.2974603174603	424.4367800453515	51	127
424.4483900226757	424.5877097505669	63	127
424.5877097505669	424.7502494331066	51	127
424.7502494331066	425.5745578231292	33	127
424.7502494331066	425.5745578231292	45	127
424.91278911564626	425.06371882086165	64	127
425.06371882086165	425.22625850340137	61	127
425.06371882086165	425.22625850340137	57	127
425.22625850340137	425.37718820861676	52	127
425.388798185941	425.4932879818594	66	127
425.4932879818594	425.6558276643991	54	127
425.6558276643991	428.23324263038546	38	127
425.6558276643991	428.23324263038546	26	127
425.8067573696145	425.9460770975057	55	127
425.9460770975057	426.0853968253968	60	127
426.0853968253968	426.18988662131517	64	127
426.20149659863944	426.3524263038549	67	127
426.3524263038549	426.51496598639454	72	127
426.51496598639454	426.6542857142857	76	127
426.66589569161	426.7819954648526	79	127
426.7819954648526	426.9445351473923	84	127
426.9445351473923	427.09546485260773	88	127
427.10707482993195	427.2231746031746	84	127
427.2231746031746	427.3857142857143	79	127
427.3857142857143	427.5366439909297	76	127
427.3857142857143	427.5366439909297	67	127
427.54825396825396	427.68757369614514	72	127
427.68757369614514	427.8501133786848	67	127
427.8501133786848	428.00104308390024	64	127
428.0126530612245	428.15197278911563	60	127
428.15197278911563	428.31451247165535	55	127
428.31451247165535	429.1620408163265	49	127
428.4886621315193	428.63959183673467	54	127
428.63959183673467	428.7905215419501	58	127
428.63959183673467	428.7905215419501	64	127
428.7905215419501	428.9298412698413	66	127
428.94145124716556	429.09238095238095	64	127
428.94145124716556	429.09238095238095	58	127
429.09238095238095	429.2433106575964	54	127
429.2433106575964	430.98480725623585	48	127
429.4174603174603	429.5683900226757	55	127
429.5683900226757	429.71931972789116	63	127
429.5683900226757	429.71931972789116	57	127
429.71931972789116	429.87024943310655	67	127
429.8818594104308	430.0095691609977	57	127
429.8818594104308	430.0095691609977	63	127
430.0095691609977	430.1721088435374	55	127
430.3346485260771	430.4855782312925	55	127
430.4855782312925	430.63650793650794	57	127
430.4855782312925	430.63650793650794	63	127
430.63650793650794	430.76421768707485	67	127
430.76421768707485	430.90353741496597	57	127
430.76421768707485	430.90353741496597	63	127
430.90353741496597	431.0544671201814	55	127
431.0544671201814	433.7015419501134	31	127
431.0544671201814	433.7015419501134	43	127
431.22861678004534	431.3679365079365	50	127
431.3679365079365	431.5188662131519	59	127
431.5188662131519	431.6581859410431	62	127
431.6581859410431	431.78589569161	62	127
431.78589569161	431.94843537414965	71	127
431.94843537414965	432.08775510204083	74	127
432.08775510204083	432.20385487528347	74	127
432.21546485260774	432.3663945578231	83	127
432.3663945578231	432.5289342403628	86	127
432.5289342403628	432.67986394557823	83	127
432.6914739229025	432.8424036281179	74	127
432.8424036281179	433.0049433106576	74	127
433.0049433106576	433.155873015873	71	127
433.16748299319727	433.30680272108845	62	127
433.30680272108845	433.4693424036281	62	127
433.4693424036281	433.62027210884355	59	127
433.6318820861678	433.7828117913832	50	127
433.7828117913832	434.61873015873016	49	127
433.9453514739229	434.0614512471655	54	127
434.0730612244898	434.2239909297052	64	127
434.0730612244898	434.2239909297052	58	127
434.2239909297052	434.3865306122449	66	127
434.3865306122449	434.53746031746033	58	127
434.3865306122449	434.53746031746033	64	127
434.5490702947846	434.7	54	127
434.7	436.511156462585	48	127
434.8625396825397	435.03668934240363	55	127
435.0482993197279	435.1992290249433	63	127
435.0482993197279	435.1992290249433	57	127
435.1992290249433	435.361768707483	67	127
435.361768707483	435.5126984126984	63	127
435.361768707483	435.5126984126984	57	127
435.52430839002267	435.6752380952381	55	127
435.8261678004535	435.97709750566895	55	127
435.9887074829932	436.1396371882086	63	127
435.9887074829932	436.1396371882086	57	127
436.1396371882086	436.29056689342406	67	127
436.29056689342406	436.4298866213152	57	127
436.29056689342406	436.4298866213152	63	127
436.44149659863945	436.5924263038549	55	127
436.5924263038549	439.33238095238096	43	127
436.5924263038549	439.33238095238096	31	127
436.75496598639455	436.90589569161	50	127
436.91750566893427	437.0568253968254	59	127
437.0568253968254	437.2193650793651	62	127
437.2193650793651	437.3702947845805	62	127
437.38190476190476	437.53283446712015	71	127
437.53283446712015	437.6837641723356	74	127
437.6837641723356	437.83469387755105	74	127
437.84630385487526	437.9972335600907	83	127
437.9972335600907	438.1365532879819	86	127
438.1365532879819	438.2874829931973	83	127
438.29909297052154	438.450022675737	74	127
438.450022675737	438.6009523809524	74	127
438.6009523809524	438.7518820861678	71	127
438.76349206349204	438.9028117913832	62	127
438.9028117913832	439.06535147392293	62	127
439.06535147392293	439.23950113378686	59	127
439.25111111111113	439.4020408163265	50	127
439.4020408163265	440.24956916099774	42	127
439.4020408163265	440.24956916099774	30	127
439.5297505668934	439.6806802721088	58	127
439.6922902494331	439.84321995464853	64	127
439.84321995464853	440.0057596371882	70	127
440.0057596371882	440.15668934240364	64	127
440.1682993197279	440.3192290249433	58	127
440.3192290249433	442.1187755102041	32	127
440.47015873015874	440.62108843537413	59	127
440.62108843537413	440.7604081632653	66	127
440.7604081632653	440.92294784580497	71	127
440.92294784580497	441.0738775510204	71	127
441.0738775510204	441.2248072562358	78	127
441.2248072562358	441.3873469387755	83	127
441.3873469387755	441.56149659863945	78	127
441.3873469387755	441.56149659863945	54	127
441.56149659863945	441.7124263038549	59	127
441.56149659863945	441.7124263038549	71	127
441.7124263038549	441.87496598639456	54	127
441.7124263038549	441.87496598639456	71	127
441.87496598639456	442.0375056689342	44	127
441.87496598639456	442.0375056689342	66	127
442.0375056689342	442.15360544217685	59	127
442.1652154195011	442.96630385487526	46	127
442.1652154195011	442.96630385487526	34	127
442.31614512471657	442.4438548752834	61	127
442.4438548752834	442.59478458049887	67	127
442.60639455782314	442.7457142857143	73	127
442.7457142857143	442.88503401360543	69	127
442.88503401360543	443.0359637188209	61	127
443.04757369614515	444.8006802721088	35	127
443.19850340136054	443.32621315192745	57	127
443.32621315192745	443.47714285714284	62	127
443.4887528344671	443.6280725623583	69	127
443.6280725623583	443.76739229024946	69	127
443.76739229024946	443.9067120181406	74	127
443.91832199546485	444.0692517006803	81	127
444.0692517006803	444.23179138321996	53	127
444.0692517006803	444.23179138321996	74	127
444.23179138321996	444.38272108843535	69	127
444.23179138321996	444.38272108843535	57	127
444.3943310657596	444.54526077097506	53	127
444.3943310657596	444.54526077097506	69	127
444.54526077097506	444.719410430839	64	127
444.54526077097506	444.719410430839	47	127
444.719410430839	444.85873015873017	57	127
444.87034013605444	446.6698866213152	36	127
444.9980498866213	445.14897959183673	62	127
445.14897959183673	445.2999092970522	71	127
445.3115192743764	445.46244897959184	74	127
445.46244897959184	445.6249886621315	74	127
445.6249886621315	445.77591836734695	83	127
445.7875283446712	445.9384580498866	86	127
445.9384580498866	446.1126077097506	81	127
445.9384580498866	446.1126077097506	54	127
446.1126077097506	446.263537414966	62	127
446.1126077097506	446.263537414966	74	127
446.27514739229025	446.4260770975057	74	127
446.27514739229025	446.4260770975057	54	127
446.4260770975057	446.5770068027211	48	127
446.4260770975057	446.5770068027211	69	127
446.5770068027211	446.73954648526075	62	127
446.751156462585	447.5638548752834	36	127
446.751156462585	447.5638548752834	48	127
446.90208616780046	447.05301587301585	59	127
447.05301587301585	447.1691156462585	64	127
447.18072562358276	447.32004535147394	67	127
447.32004535147394	447.4825850340136	62	127
447.32004535147394	447.4825850340136	66	127
447.4825850340136	447.63351473922904	57	127
447.6451247165533	448.4810430839002	34	127
447.6451247165533	448.4810430839002	46	127
447.7960544217687	447.9585941043084	61	127
447.9585941043084	448.08630385487527	67	127
448.09791383219954	448.248843537415	73	127
448.248843537415	448.3997732426304	69	127
448.3997732426304	448.5507029478458	61	127
448.5623129251701	450.31541950113376	35	127
448.69002267573694	448.81773242630385	57	127
448.81773242630385	448.9686621315193	62	127
448.98027210884356	449.13120181405895	69	127
449.13120181405895	449.2937414965986	69	127
449.2937414965986	449.44467120181406	74	127
449.45628117913833	449.6072108843537	81	127
449.6072108843537	449.76975056689344	53	127
449.6072108843537	449.76975056689344	74	127
449.76975056689344	449.9206802721088	57	127
449.76975056689344	449.9206802721088	69	127
449.9322902494331	450.08321995464854	53	127
449.9322902494331	450.08321995464854	69	127
450.08321995464854	450.23414965986393	47	127
450.08321995464854	450.23414965986393	64	127
450.23414965986393	450.3734693877551	57	127
450.3734693877551	452.17301587301586	36	127
450.5243990929705	450.6869387755102	62	127
450.6869387755102	450.8378684807256	71	127
450.8378684807256	450.9771882086168	74	127
450.9771882086168	451.13972789115644	74	127
451.13972789115644	451.30226757369616	83	127
451.30226757369616	451.45319727891155	86	127
451.45319727891155	451.62734693877553	81	127
451.45319727891155	451.62734693877553	54	127
451.62734693877553	451.7898866213152	74	127
451.62734693877553	451.7898866213152	62	127
451.7898866213152	451.94081632653064	74	127
451.7898866213152	451.94081632653064	54	127
451.95242630385485	452.1033560090703	48	127
451.95242630385485	452.1033560090703	69	127
452.1033560090703	452.2426757369615	62	127
452.2426757369615	453.03215419501134	48	127
452.2426757369615	453.03215419501134	36	127
452.39360544217686	452.4748752834467	69	127
452.4748752834467	452.6374149659864	74	127
452.6374149659864	452.7883446712018	81	127
452.79995464852607	452.9508843537415	81	127
452.9508843537415	453.1134240362812	86	127
453.1134240362812	454.93619047619046	47	127
453.1134240362812	454.93619047619046	35	127
453.1134240362812	453.2643537414966	91	127
453.2759637188209	453.4268934240363	90	127
453.4268934240363	453.58943310657594	88	127
453.58943310657594	453.7403628117914	86	127
453.75197278911565	454.6111111111111	63	127
453.75197278911565	454.0073922902494	67	127
453.75197278911565	454.6111111111111	57	127
453.75197278911565	453.90290249433104	84	127
453.90290249433104	454.06544217687076	83	127
454.06544217687076	454.6111111111111	66	127
454.06544217687076	454.21637188208615	81	127
454.21637188208615	454.3673015873016	83	127
454.3673015873016	454.52984126984126	81	127
454.52984126984126	454.6807709750567	79	127
454.692380952381	454.84331065759636	78	127
454.84331065759636	454.9942403628118	76	127
454.9942403628118	455.8069387755102	48	127
454.9942403628118	455.1451700680272	74	127
454.9942403628118	455.8069387755102	36	127
455.15678004535147	455.24965986394557	76	127
455.24965986394557	455.4121995464853	74	127
455.4121995464853	455.5631292517007	72	127
455.57473922902494	455.7256689342404	71	127
455.7256689342404	455.88820861678005	69	127
455.88820861678005	457.65292517006804	38	127
455.88820861678005	457.65292517006804	50	127
455.88820861678005	456.0507482993197	68	127
456.062358276644	456.1784580498866	69	127
456.1784580498866	456.32938775510206	66	127
456.32938775510206	456.48031746031745	68	127
456.4919274376417	457.3162358276644	64	127
456.4919274376417	456.64285714285717	69	127
456.4919274376417	456.73573696145127	60	127
456.4919274376417	457.3162358276644	56	127
456.64285714285717	456.79378684807256	71	127
456.79378684807256	457.3162358276644	59	127
456.79378684807256	456.93310657596373	72	127
456.944716553288	457.0840362811791	74	127
457.0840362811791	457.23496598639457	76	127
457.23496598639457	457.38589569160996	78	127
457.39750566893423	457.5484353741497	80	127
457.5484353741497	457.71097505668934	81	127
457.71097505668934	458.5468934240363	50	127
457.71097505668934	458.5468934240363	38	127
457.71097505668934	457.8619047619048	82	127
457.87351473922905	457.98961451247163	74	127
457.98961451247163	458.15215419501135	77	127
458.15215419501135	458.30308390022674	82	127
458.314693877551	458.46562358276645	86	127
458.46562358276645	458.6281632653061	89	127
458.6281632653061	460.3928798185941	37	127
458.6281632653061	460.3928798185941	49	127
458.6281632653061	458.77909297052156	93	127
458.79070294784583	458.9184126984127	92	127
458.9184126984127	459.0809523809524	90	127
459.0809523809524	459.24349206349206	88	127
459.2551020408163	460.0213605442177	65	127
459.2551020408163	460.0213605442177	59	127
459.2551020408163	459.38281179138323	69	127
459.2551020408163	459.3247619047619	86	127
459.3247619047619	459.42925170068025	85	127
459.42925170068025	460.0213605442177	68	127
459.42925170068025	459.5801814058957	83	127
459.59179138321997	459.7659410430839	85	127
459.7659410430839	459.9400907029478	83	127
459.9400907029478	460.1142403628118	81	127
460.1258503401361	460.2767800453515	80	127
460.2767800453515	460.43931972789113	78	127
460.43931972789113	460.5786394557823	76	127
460.43931972789113	461.24040816326533	50	127
460.43931972789113	461.24040816326533	38	127
460.5786394557823	460.69473922902495	78	127
460.69473922902495	460.8572789115646	76	127
460.8572789115646	461.0198185941043	74	127
461.0198185941043	461.15913832199544	73	127
461.15913832199544	461.32167800453516	71	127
461.32167800453516	463.1212244897959	52	127
461.32167800453516	463.1212244897959	40	127
461.32167800453516	461.4842176870748	70	127
461.4842176870748	461.6119274376417	71	127
461.623537414966	461.7628571428571	68	127
461.7628571428571	461.92539682539683	70	127
461.92539682539683	462.0763265306122	71	127
461.92539682539683	462.1575963718821	62	127
461.92539682539683	462.7613151927438	58	127
461.92539682539683	462.7613151927438	66	127
462.0763265306122	462.2040362811791	73	127
462.2040362811791	462.7613151927438	61	127
462.2040362811791	462.36657596371884	74	127
462.36657596371884	462.51750566893423	76	127
462.5291156462585	462.68004535147395	78	127
462.68004535147395	462.8425850340136	80	127
462.8425850340136	462.993514739229	82	127
463.00512471655327	463.167664399093	83	127
463.167664399093	464.05002267573695	52	127
463.167664399093	464.05002267573695	40	127
463.167664399093	463.33020408163264	84	127
463.33020408163264	463.4811337868481	76	127
463.49274376417236	463.64367346938775	79	127
463.64367346938775	463.8178231292517	84	127
463.8178231292517	463.9687528344671	88	127
463.9803628117914	464.1312925170068	91	127
464.1312925170068	464.28222222222223	95	127
464.1312925170068	465.87278911564624	51	127
464.1312925170068	465.87278911564624	39	127
464.28222222222223	464.42154195011335	94	127
464.4331519274376	464.58408163265307	92	127
464.58408163265307	464.758231292517	90	127
464.758231292517	465.5244897959184	61	127
464.758231292517	464.8975510204082	88	127
464.758231292517	465.5244897959184	67	127
464.758231292517	465.00204081632654	71	127
464.90916099773244	465.04848072562356	87	127
465.04848072562356	465.15297052154193	85	127
465.04848072562356	465.5244897959184	70	127
465.15297052154193	465.2922902494331	87	127
465.3039002267574	465.4432199546485	85	127
465.4432199546485	465.6057596371882	83	127
465.6057596371882	465.7566893424036	82	127
465.7682993197279	465.9192290249433	80	127
465.9192290249433	466.081768707483	78	127
465.9192290249433	466.8015873015873	40	127
465.9192290249433	466.8015873015873	52	127
466.081768707483	466.2326984126984	80	127
466.2443083900227	466.3952380952381	78	127
466.3952380952381	466.5577777777778	76	127
466.5577777777778	466.7087074829932	75	127
466.72031746031746	466.8712471655329	73	127
466.8712471655329	467.0570068027211	72	127
466.8712471655329	468.6475736961451	42	127
466.8712471655329	468.6475736961451	54	127
467.0570068027211	467.2079365079365	70	127
467.21954648526076	467.3704761904762	68	127
467.3704761904762	467.5214058956916	72	127
467.5214058956916	467.71877551020407	64	127
467.5214058956916	467.6491156462585	76	127
467.5214058956916	468.29927437641726	68	127
467.5214058956916	468.29927437641726	60	127
467.6491156462585	467.7419954648526	80	127
467.7419954648526	467.90453514739227	84	127
467.7419954648526	468.29927437641726	63	127
467.90453514739227	468.0554648526077	87	127
468.067074829932	468.2180045351474	91	127
468.2180045351474	468.3805442176871	87	127
468.3805442176871	468.5314739229025	92	127
468.3805442176871	468.5314739229025	84	127
468.54308390022675	468.6940136054422	87	127
468.6940136054422	469.52993197278914	53	127
468.6940136054422	469.52993197278914	41	127
468.6940136054422	468.85655328798185	93	127
468.85655328798185	469.0074829931973	89	127
469.01909297052157	469.1584126984127	85	127
469.1584126984127	469.29773242630387	81	127
469.29773242630387	469.44866213151926	77	127
469.4602721088435	469.5995918367347	73	127
469.5995918367347	471.3643083900227	51	127
469.5995918367347	471.3643083900227	39	127
469.5995918367347	469.7505215419501	69	127
469.7505215419501	469.90145124716554	67	127
469.9130612244898	470.0639909297052	65	127
470.0639909297052	470.21492063492065	69	127
470.21492063492065	470.4819501133787	61	127
470.21492063492065	471.0160090702948	65	127
470.21492063492065	470.3774603174603	73	127
470.21492063492065	471.0160090702948	57	127
470.3774603174603	470.52839002267575	77	127
470.52839002267575	470.6444897959184	81	127
470.52839002267575	471.0160090702948	60	127
470.6444897959184	470.7838095238095	84	127
470.7838095238095	470.93473922902496	88	127
470.93473922902496	471.0972789115646	84	127
471.0972789115646	471.25981859410433	81	127
471.0972789115646	471.25981859410433	89	127
471.25981859410433	471.4107482993197	84	127
471.422358276644	472.2814965986395	38	127
471.422358276644	472.2814965986395	50	127
471.422358276644	471.56167800453517	90	127
471.56167800453517	471.71260770975056	86	127
471.71260770975056	471.863537414966	82	127
471.8751473922903	472.03768707482993	78	127
472.03768707482993	472.2002267573696	74	127
472.2002267573696	472.35115646258504	70	127
472.3627664399093	473.97655328798186	48	127
472.3627664399093	472.5136961451247	66	127
472.3627664399093	473.97655328798186	36	127
472.5136961451247	472.6530158730159	64	127
472.6530158730159	472.79233560090705	62	127
472.80394557823126	472.9548752834467	66	127
472.9548752834467	473.66308390022675	62	127
472.9548752834467	473.0825850340136	71	127
472.9548752834467	473.66308390022675	54	127
472.9548752834467	473.1522448979592	59	127
473.0825850340136	473.187074829932	74	127
473.19868480725626	473.66308390022675	57	127
473.19868480725626	473.3263945578231	78	127
473.3263945578231	473.47732426303855	86	127
473.47732426303855	473.62825396825394	78	127
473.62825396825394	473.7443537414966	74	127
473.7443537414966	473.88367346938776	74	127
473.895283446712	474.02299319727894	66	127
474.02299319727894	474.69637188208617	47	127
474.02299319727894	474.69637188208617	35	127
474.1739229024943	474.20875283446713	74	127
474.20875283446713	474.29002267573696	67	127
474.29002267573696	474.41773242630387	64	127
474.41773242630387	474.60349206349207	64	127
474.60349206349207	474.777641723356	55	127
474.777641723356	474.97501133786847	33	127
474.98662131519274	475.1375510204082	59	127
474.98662131519274	475.1375510204082	40	127
475.14916099773245	475.33492063492065	45	127
475.14916099773245	475.33492063492065	61	127
475.33492063492065	475.48585034013604	45	127
475.33492063492065	475.48585034013604	67	127
475.33492063492065	475.48585034013604	71	127
475.48585034013604	475.6367800453515	71	127
475.48585034013604	475.6367800453515	52	127
475.6367800453515	475.7877097505669	57	127
475.6367800453515	475.7877097505669	73	127
475.79931972789115	475.9966893424036	83	127
475.79931972789115	475.9966893424036	45	127
475.79931972789115	475.9966893424036	79	127
475.9966893424036	476.1940589569161	71	127
475.9966893424036	476.1940589569161	52	127
476.1940589569161	476.33337868480726	57	127
476.1940589569161	476.33337868480726	73	127
476.33337868480726	476.5307482993197	83	127
476.33337868480726	476.5307482993197	79	127
476.33337868480726	476.5307482993197	57	127
476.542358276644	476.6816780045352	83	127
476.542358276644	476.6816780045352	64	127
476.6816780045352	476.86743764172337	64	127
476.6816780045352	476.86743764172337	95	127
476.6816780045352	476.86743764172337	91	127
476.6816780045352	476.86743764172337	57	127
477.4943764172336	477.86589569161	38	127
477.56403628117914	477.86589569161	43	127
477.6336961451247	477.86589569161	50	127
477.65691609977324	477.92394557823127	62	127
477.65691609977324	477.92394557823127	59	127
477.6801360544218	477.92394557823127	67	127
477.73818594104307	477.92394557823127	71	127
481.0238095238095	481.29083900226755	60	127
481.0238095238095	481.29083900226755	66	127
481.0238095238095	481.29083900226755	50	127
481.0238095238095	481.29083900226755	38	127
481.0238095238095	481.29083900226755	69	127
481.0238095238095	481.29083900226755	74	127
481.9409977324263	482.0338775510204	71	127
482.0338775510204	482.1267573696145	72	127
482.1267573696145	482.23124716553286	74	127
482.24285714285713	482.33573696145123	74	127
482.33573696145123	482.42861678004533	76	127
482.42861678004533	482.52149659863943	78	127
482.52149659863943	482.6143764172336	79	127
482.6259863945578	482.71886621315195	81	127
482.71886621315195	482.81174603174605	83	127
482.81174603174605	482.9162358276644	83	127
482.9162358276644	483.0091156462585	84	127
483.0207256235828	483.1136054421769	86	127
483.1136054421769	483.3458049886621	81	127
483.1136054421769	483.3458049886621	87	127
483.40385487528346	483.63605442176873	75	127
483.40385487528346	483.63605442176873	63	127
483.40385487528346	483.63605442176873	69	127
483.68249433106575	483.77537414965985	64	127
483.77537414965985	483.86825396825395	66	127
483.86825396825395	483.9727437641723	68	127
483.9843537414966	484.0772335600907	68	127
484.0772335600907	484.1701133786848	69	127
484.1701133786848	484.2629931972789	71	127
484.2629931972789	484.35587301587304	71	127
484.35587301587304	484.44875283446714	73	127
484.44875283446714	484.54163265306124	75	127
484.5532426303855	484.6577324263039	76	127
484.6577324263039	484.78544217687073	78	127
484.78544217687073	484.87832199546483	80	127
484.87832199546483	485.1453514739229	74	127
484.87832199546483	485.1453514739229	78	127
485.2034013605442	485.4356009070295	62	127
485.2034013605442	485.4356009070295	66	127
485.2034013605442	485.4356009070295	54	127
485.4820408163265	485.57492063492066	71	127
485.57492063492066	485.66780045351476	72	127
485.66780045351476	485.76068027210886	74	127
485.7722902494331	485.85356009070296	74	127
485.8651700680272	485.9696598639456	76	127
485.9696598639456	486.0625396825397	78	127
486.0625396825397	486.17863945578233	79	127
486.17863945578233	486.27151927437643	81	127
486.27151927437643	486.36439909297053	83	127
486.36439909297053	486.45727891156463	83	127
486.45727891156463	486.5501587301587	84	127
486.5501587301587	486.6430385487528	86	127
486.6546485260771	486.8868480725624	81	127
486.6546485260771	486.8868480725624	87	127
486.9332879818594	487.1887074829932	69	127
486.9332879818594	487.1887074829932	75	127
486.9332879818594	487.1887074829932	63	127
487.23514739229023	487.3396371882086	64	127
487.3396371882086	487.44412698412697	66	127
487.44412698412697	487.53700680272107	68	127
487.53700680272107	487.62988662131517	68	127
487.62988662131517	487.7227664399093	69	127
487.7227664399093	487.8156462585034	71	127
487.8272562358277	487.9085260770975	71	127
487.9201360544218	488.0014058956916	73	127
488.0130158730159	488.10589569161	75	127
488.10589569161	488.1987755102041	76	127
488.1987755102041	488.2800453514739	78	127
488.2800453514739	488.36131519274375	80	127
488.36131519274375	488.593514739229	74	127
488.36131519274375	488.593514739229	78	127
488.6399546485261	488.86054421768705	66	127
488.6399546485261	488.86054421768705	54	127
488.6399546485261	488.86054421768705	62	127
488.9069841269841	488.9998639455782	65	127
488.9998639455782	489.0927437641723	71	127
489.0927437641723	489.1856235827664	74	127
489.1856235827664	489.2901133786848	74	127
489.2901133786848	489.3829931972789	76	127
489.3829931972789	489.475873015873	77	127
489.475873015873	489.56875283446715	77	127
489.56875283446715	489.67324263038546	83	127
489.67324263038546	489.7661224489796	86	127
489.7661224489796	489.8590022675737	86	127
489.8590022675737	489.9518820861678	87	127
489.9518820861678	490.0447619047619	89	127
490.0447619047619	490.2769614512472	91	127
490.0447619047619	490.2769614512472	87	127
490.3234013605442	490.5556009070295	79	127
490.3234013605442	490.5556009070295	67	127
490.3234013605442	490.5556009070295	75	127
490.6020408163265	490.6949206349206	60	127
490.6949206349206	490.799410430839	66	127
490.799410430839	490.90390022675734	69	127
490.90390022675734	491.0083900226757	69	127
491.0083900226757	491.1360997732426	71	127
491.1360997732426	491.2289795918367	72	127
491.2289795918367	491.3218594104308	72	127
491.3218594104308	491.4147392290249	78	127
491.4147392290249	491.5192290249433	81	127
491.5192290249433	491.61210884353744	81	127
491.61210884353744	491.70498866213154	82	127
491.70498866213154	491.79786848072564	84	127
491.79786848072564	492.0532879818594	82	127
491.79786848072564	492.0532879818594	86	127
492.0997278911565	492.3783673469388	74	127
492.0997278911565	492.3783673469388	62	127
492.0997278911565	492.3783673469388	70	127
492.42480725623585	492.5060770975057	65	127
492.5060770975057	492.61056689342405	71	127
492.61056689342405	492.70344671201815	74	127
492.70344671201815	492.79632653061225	74	127
492.79632653061225	492.88920634920635	76	127
492.88920634920635	492.98208616780045	77	127
492.98208616780045	493.07496598639455	77	127
493.07496598639455	493.16784580498864	83	127
493.16784580498864	493.26072562358274	86	127
493.26072562358274	493.3768253968254	86	127
493.3768253968254	493.4697052154195	87	127
493.4697052154195	493.55097505668937	89	127
493.5625850340136	493.7831746031746	91	127
493.5625850340136	493.7831746031746	87	127
493.82961451247166	494.06181405895694	75	127
493.82961451247166	494.06181405895694	67	127
493.82961451247166	494.06181405895694	79	127
494.10825396825396	494.1895238095238	67	127
494.20113378684806	494.2824036281179	73	127
494.29401360544216	494.37528344671205	76	127
494.37528344671205	494.46816326530615	76	127
494.46816326530615	494.56104308390024	78	127
494.56104308390024	494.65392290249434	79	127
494.65392290249434	494.74680272108844	79	127
494.74680272108844	494.83968253968254	85	127
494.83968253968254	494.89773242630383	88	127
494.9093424036281	494.99061224489793	88	127
495.0022222222222	495.0834920634921	89	127
495.0834920634921	495.18798185941046	91	127
495.18798185941046	495.478231292517	93	127
495.18798185941046	495.478231292517	89	127
495.52467120181404	495.7684807256236	77	127
495.52467120181404	495.7684807256236	69	127
495.52467120181404	495.7684807256236	81	127
495.8033106575964	495.8961904761905	35	127
495.8961904761905	495.9890702947846	42	127
495.9890702947846	496.0703401360544	47	127
496.0819501133787	496.1632199546485	57	127
496.1632199546485	496.2677097505669	63	127
496.2677097505669	496.38380952380953	69	127
496.38380952380953	496.47668934240363	69	127
496.47668934240363	496.56956916099773	75	127
496.581179138322	496.66244897959183	81	127
496.66244897959183	496.75532879818593	91	127
496.75532879818593	496.84820861678	86	127
496.84820861678	496.9294784580499	79	127
496.9410884353741	497.05718820861676	79	127
497.05718820861676	497.15006802721086	74	127
497.15006802721086	497.24294784580496	67	127
497.24294784580496	497.3358276643991	67	127
497.34743764172333	497.4287074829932	62	127
497.4287074829932	497.55641723356007	55	127
497.55641723356007	497.6725170068027	35	127
497.6725170068027	497.7653968253968	42	127
497.7770068027211	497.8698866213152	47	127
497.8698866213152	497.9627664399093	57	127
497.9627664399093	498.05564625850343	63	127
498.05564625850343	498.13691609977326	69	127
498.14852607709753	498.22979591836736	69	127
498.22979591836736	498.32267573696146	75	127
498.32267573696146	498.4271655328798	81	127
498.4271655328798	498.50843537414966	91	127
498.5200453514739	498.60131519274375	86	127
498.60131519274375	498.72902494331066	79	127
498.72902494331066	498.82190476190476	79	127
498.82190476190476	498.92639455782313	74	127
498.92639455782313	499.00766439909296	67	127
499.01927437641723	499.10054421768706	67	127
499.10054421768706	499.23986394557824	62	127
499.23986394557824	499.3443537414966	55	127
499.3443537414966	499.4372335600907	55	127
499.448843537415	499.5301133786848	58	127
499.5301133786848	499.6229931972789	64	127
499.6229931972789	499.715873015873	76	127
499.715873015873	499.79714285714283	82	127
499.8087528344671	499.9016326530612	88	127
499.9016326530612	500.1338321995465	60	127
499.9016326530612	500.1338321995465	48	127
499.9016326530612	499.99451247165536	87	127
499.9016326530612	500.1338321995465	56	127
499.99451247165536	500.08739229024945	84	127
500.08739229024945	500.1686621315193	75	127
500.18027210884355	500.2963718820862	56	127
500.2963718820862	500.4356916099773	59	127
500.4356916099773	500.5285714285714	65	127
500.5285714285714	500.6214512471655	77	127
500.6214512471655	500.7143310657596	83	127
500.7143310657596	500.80721088435376	89	127
500.80721088435376	501.039410430839	57	127
500.80721088435376	500.90009070294786	88	127
500.80721088435376	501.039410430839	61	127
500.80721088435376	501.039410430839	49	127
500.90009070294786	500.99297052154196	85	127
500.99297052154196	501.08585034013606	76	127
501.09746031746033	501.19034013605443	57	127
501.19034013605443	501.31804988662134	60	127
501.31804988662134	501.41092970521544	66	127
501.4225396825397	501.5154195011338	78	127
501.5154195011338	501.6082993197279	84	127
501.6199092970522	501.7127891156463	90	127
501.7127891156463	501.96820861678003	58	127
501.7127891156463	501.96820861678003	62	127
501.7127891156463	501.96820861678003	50	127
501.7127891156463	501.81727891156464	89	127
501.81727891156464	501.91015873015874	86	127
501.921768707483	502.0146485260771	77	127
502.0262585034014	502.1191383219955	58	127
502.1191383219955	502.22362811791385	61	127
502.22362811791385	502.31650793650795	67	127
502.31650793650795	502.40938775510205	79	127
502.4209977324263	502.5138775510204	85	127
502.5138775510204	502.6183673469388	91	127
502.6183673469388	502.8970068027211	59	127
502.6183673469388	502.8970068027211	51	127
502.6183673469388	502.72285714285715	90	127
502.6183673469388	502.8970068027211	63	127
502.72285714285715	502.8389569160998	87	127
502.8389569160998	502.94344671201816	78	127
502.94344671201816	503.75614512471657	38	127
502.94344671201816	503.75614512471657	26	127
503.245306122449	503.3381859410431	67	127
503.34979591836736	503.44267573696146	74	127
503.44267573696146	503.53555555555556	79	127
503.54716553287983	503.64004535147393	79	127
503.64004535147393	503.73292517006803	74	127
503.73292517006803	503.8258049886621	67	127
503.8258049886621	504.3018140589569	50	127
503.8258049886621	504.3018140589569	38	127
504.1044444444444	504.17410430839004	60	127
504.1857142857143	504.2785941043084	67	127
504.2785941043084	504.3714739229025	72	127
504.3714739229025	504.615283446712	53	127
504.3714739229025	504.615283446712	41	127
504.3714739229025	504.4643537414966	69	127
504.4643537414966	504.568843537415	64	127
504.568843537415	504.6617233560091	60	127
504.67333333333335	505.17256235827665	54	127
504.67333333333335	505.17256235827665	42	127
504.9403628117914	505.04485260770974	62	127
505.04485260770974	505.13773242630384	71	127
505.13773242630384	505.2422222222222	74	127
505.2422222222222	505.4744217687075	50	127
505.2422222222222	505.4744217687075	38	127
505.2422222222222	505.32349206349204	74	127
505.3351020408163	505.4279818594104	71	127
505.4279818594104	505.5092517006803	62	127
505.5208616780045	506.3219501133787	38	127
505.5208616780045	506.3219501133787	26	127
505.81111111111113	505.9156009070295	67	127
505.9156009070295	506.0084807256236	74	127
506.02009070294787	506.11297052154197	79	127
506.11297052154197	506.20585034013607	79	127
506.21746031746034	506.29873015873017	74	127
506.29873015873017	506.40321995464853	67	127
506.40321995464853	506.9140589569161	38	127
506.40321995464853	506.9140589569161	50	127
506.68185941043083	506.77473922902493	60	127
506.77473922902493	506.8792290249433	67	127
506.89083900226757	506.9721088435374	72	127
506.9721088435374	507.21591836734694	41	127
506.9721088435374	507.0649886621315	69	127
506.9721088435374	507.21591836734694	53	127
507.0649886621315	507.1578684807256	64	127
507.1578684807256	507.26235827664397	60	127
507.26235827664397	507.7267573696145	54	127
507.26235827664397	507.7267573696145	42	127
507.5526077097506	507.6338775510204	62	127
507.6338775510204	507.71514739229025	71	127
507.71514739229025	507.7964172335601	74	127
507.7964172335601	508.0402267573696	50	127
507.7964172335601	508.0402267573696	38	127
507.7964172335601	507.90090702947845	74	127
507.90090702947845	507.9821768707483	71	127
507.99378684807255	508.08666666666664	62	127
508.08666666666664	508.632335600907	43	127
508.08666666666664	508.632335600907	31	127
508.40013605442175	508.5046258503401	59	127
508.5046258503401	508.6091156462585	67	127
508.6091156462585	508.7019954648526	71	127
508.71360544217686	508.80648526077096	71	127
508.71360544217686	508.96902494331067	47	127
508.71360544217686	508.96902494331067	35	127
508.80648526077096	508.89936507936505	67	127
508.9109750566893	509.0154648526077	59	127
509.0154648526077	509.4914739229025	50	127
509.0154648526077	509.4914739229025	38	127
509.30571428571426	509.3985941043084	59	127
509.3985941043084	509.47986394557824	66	127
509.47986394557824	509.5611337868481	71	127
509.57274376417234	509.8281632653061	47	127
509.57274376417234	509.6772335600907	71	127
509.57274376417234	509.8281632653061	35	127
509.6772335600907	509.7817233560091	66	127
509.7817233560091	509.8746031746032	59	127
509.8746031746032	510.38544217687075	31	127
509.8746031746032	510.38544217687075	43	127
510.176462585034	510.2693424036281	59	127
510.2809523809524	510.3622222222222	67	127
510.3622222222222	510.4667120181406	71	127
510.4667120181406	510.5595918367347	71	127
510.4667120181406	510.69891156462586	47	127
510.4667120181406	510.69891156462586	35	127
510.5595918367347	510.6524716553288	67	127
510.6524716553288	510.7453514739229	59	127
510.7453514739229	511.232970521542	38	127
510.7453514739229	511.232970521542	50	127
511.02399092970523	511.1284807256236	59	127
511.1284807256236	511.19814058956916	66	127
511.19814058956916	511.30263038548753	71	127
511.30263038548753	511.38390022675736	71	127
511.30263038548753	511.5	47	127
511.30263038548753	511.5	35	127
511.39551020408163	511.4535600907029	66	127
511.4535600907029	511.5464399092971	59	127
511.5580498866213	512.0921088435374	43	127
511.5580498866213	512.0921088435374	31	127
511.8482993197279	511.9643990929705	59	127
511.9643990929705	512.0572789115646	62	127
512.0688888888889	512.161768707483	71	127
512.161768707483	512.4055782312926	50	127
512.161768707483	512.4055782312926	38	127
512.161768707483	512.2546485260771	71	127
512.2662585034013	512.3475283446712	62	127
512.3475283446712	512.4520181405895	59	127
512.4520181405895	512.7074376417233	43	127
512.4520181405895	512.7074376417233	55	127
512.7654875283447	512.8583673469387	67	127
512.7654875283447	512.99768707483	50	127
512.7654875283447	512.99768707483	62	127
512.8583673469387	512.9512471655329	74	127
512.9628571428572	513.0325170068028	79	127
513.0325170068028	513.2763265306122	59	127
513.0325170068028	513.2763265306122	47	127
513.0325170068028	513.1253968253968	79	127
513.1253968253968	513.218276643991	74	127
513.218276643991	513.3227664399093	67	127
513.3227664399093	513.5433560090703	55	127
513.3227664399093	513.5433560090703	43	127
513.6014058956916	513.8219954648526	38	127
513.6014058956916	513.8219954648526	50	127
513.6014058956916	513.6826757369614	62	127
513.6826757369614	513.7871655328798	67	127
513.7871655328798	513.8219954648526	74	127
513.8219954648526	514.0773922902495	59	127
513.8219954648526	513.926485260771	74	127
513.8219954648526	514.0773922902495	47	127
513.926485260771	514.0193650793651	67	127
514.0193650793651	514.1238548752834	62	127
514.1238548752834	514.3560544217687	55	127
514.1238548752834	514.3560544217687	43	127
514.41410430839	514.6346938775511	50	127
514.41410430839	514.4953741496598	59	127
514.41410430839	514.6346938775511	38	127
514.4953741496598	514.588253968254	62	127
514.588253968254	514.6811111111111	71	127
514.6811111111111	514.7740136054422	71	127
514.6811111111111	514.9133333333333	47	127
514.6811111111111	514.9133333333333	35	127
514.7740136054422	514.8552834467121	62	127
514.8668934240363	514.9597732426304	59	127
514.9597732426304	515.1919727891157	31	127
514.9597732426304	515.1919727891157	43	127
515.8305215419501	516.0743310657597	79	127
515.8305215419501	516.0743310657597	50	127
515.8305215419501	516.0743310657597	74	127
515.8305215419501	516.0743310657597	71	127
515.8305215419501	516.0743310657597	67	127
515.8305215419501	516.0743310657597	59	127
515.8305215419501	516.0743310657597	55	127
515.8305215419501	516.0743310657597	43	127
516.6548299319728	516.9218367346939	43	127
516.6548299319728	516.9218367346939	79	127
516.6548299319728	516.9218367346939	31	127
516.6548299319728	516.9218367346939	91	127
516.6548299319728	516.9218367346939	86	127
516.6548299319728	516.9218367346939	83	127
