# onset,offset,note,velocity
0.2198185941043084	3.6563718820861677	62	127
0.2198185941043084	3.6563718820861677	54	127
0.2198185941043084	3.6563718820861677	57	127
0.2198185941043084	3.6563718820861677	42	127
0.2198185941043084	3.6563718820861677	38	127
0.2198185941043084	3.6563718820861677	50	127
0.2198185941043084	3.6563718820861677	45	127
3.8769614512471655	4.004671201814059	45	127
3.8769614512471655	4.004671201814059	57	127
4.004671201814059	4.120748299319728	50	127
4.004671201814059	4.120748299319728	62	127
4.120748299319728	4.294897959183674	54	127
4.120748299319728	4.294897959183674	66	127
4.689659863945578	4.817369614512471	50	127
4.689659863945578	4.817369614512471	62	127
4.817369614512471	4.921859410430839	66	127
4.817369614512471	4.921859410430839	54	127
4.921859410430839	5.0495691609977325	69	127
4.921859410430839	5.0495691609977325	57	127
5.38625850340136	5.490748299319728	69	127
5.38625850340136	5.490748299319728	57	127
5.490748299319728	5.606848072562358	66	127
5.490748299319728	5.606848072562358	54	127
5.606848072562358	5.815827664399093	62	127
5.606848072562358	5.815827664399093	50	127
6.7562358276643995	6.849115646258503	66	127
6.7562358276643995	6.849115646258503	54	127
6.849115646258503	6.930385487528345	50	127
6.849115646258503	6.930385487528345	62	127
6.930385487528345	7.069705215419501	45	127
6.930385487528345	7.069705215419501	57	127
7.452834467120182	7.580544217687075	62	127
7.452834467120182	7.580544217687075	50	127
7.580544217687075	7.696643990929705	57	127
7.580544217687075	7.696643990929705	45	127
7.696643990929705	7.847573696145124	54	127
7.696643990929705	7.847573696145124	42	127
8.195873015873016	8.323582766439909	57	127
8.195873015873016	8.323582766439909	45	127
8.323582766439909	8.43968253968254	54	127
8.323582766439909	8.43968253968254	42	127
8.43968253968254	9.948956916099773	38	127
8.43968253968254	8.613832199546485	50	127
8.43968253968254	9.948956916099773	45	127
8.660272108843538	8.846031746031747	54	127
8.846031746031747	9.066621315192744	57	127
9.066621315192744	9.252380952380953	55	127
9.252380952380953	9.461360544217687	54	127
9.461360544217687	9.647120181405896	52	127
9.647120181405896	9.844489795918367	50	127
9.844489795918367	9.995419501133787	49	127
10.030249433106576	11.678866213151927	50	127
10.030249433106576	11.678866213151927	42	127
10.030249433106576	11.678866213151927	45	127
10.216009070294785	10.424965986394557	52	127
10.424965986394557	10.587528344671203	54	127
10.587528344671203	10.819727891156463	55	127
10.819727891156463	11.04031746031746	57	127
11.04031746031746	11.22607709750567	59	127
11.22607709750567	11.45827664399093	61	127
11.45827664399093	11.678866213151927	62	127
11.678866213151927	11.876235827664399	57	127
11.678866213151927	13.222993197278912	40	127
11.678866213151927	13.222993197278912	45	127
11.678866213151927	13.222993197278912	49	127
11.876235827664399	12.061995464852608	61	127
12.061995464852608	12.236145124716554	64	127
12.236145124716554	12.421904761904761	62	127
12.421904761904761	12.630884353741497	61	127
12.630884353741497	12.851473922902494	59	127
12.851473922902494	13.048843537414966	57	127
13.048843537414966	13.222993197278912	56	127
13.222993197278912	13.44358276643991	57	127
13.222993197278912	14.801950113378684	52	127
13.222993197278912	14.801950113378684	45	127
13.222993197278912	14.801950113378684	43	127
13.44358276643991	13.606122448979592	59	127
13.606122448979592	13.815102040816326	61	127
13.815102040816326	14.012471655328799	62	127
14.012471655328799	14.198231292517006	64	127
14.198231292517006	14.372380952380952	66	127
14.372380952380952	14.569750566893424	67	127
14.569750566893424	14.801950113378684	64	127
14.801950113378684	14.97609977324263	62	127
14.801950113378684	16.334444444444443	42	127
14.801950113378684	16.334444444444443	45	127
14.801950113378684	16.334444444444443	50	127
14.97609977324263	15.196689342403628	66	127
15.196689342403628	15.370839002267573	69	127
15.370839002267573	15.568208616780046	67	127
15.568208616780046	15.77718820861678	66	127
15.77718820861678	15.986167800453515	64	127
15.986167800453515	16.12548752834467	62	127
16.12548752834467	16.334444444444443	61	127
16.334444444444443	17.8437641723356	50	127
16.334444444444443	16.53183673469388	62	127
16.334444444444443	17.8437641723356	48	127
16.334444444444443	17.8437641723356	57	127
16.53183673469388	16.682766439909297	64	127
16.682766439909297	16.868526077097506	66	127
16.868526077097506	17.054285714285715	67	127
17.054285714285715	17.27487528344671	69	127
17.27487528344671	17.518684807256236	71	127
17.518684807256236	17.704444444444444	72	127
17.704444444444444	17.8437641723356	73	127
17.8437641723356	18.61002267573696	55	127
17.8437641723356	18.61002267573696	50	127
17.8437641723356	18.02952380952381	74	127
17.8437641723356	18.61002267573696	47	127
18.02952380952381	18.192063492063493	76	127
18.192063492063493	18.401043083900227	78	127
18.401043083900227	18.61002267573696	79	127
18.61002267573696	18.853832199546485	80	127
18.61002267573696	19.48077097505669	52	127
18.61002267573696	19.48077097505669	43	127
18.61002267573696	19.48077097505669	50	127
18.853832199546485	19.051201814058956	81	127
19.051201814058956	19.271791383219956	82	127
19.271791383219956	19.434331065759636	83	127
19.48077097505669	19.67814058956916	83	127
19.48077097505669	20.351519274376418	54	127
19.48077097505669	20.351519274376418	50	127
19.48077097505669	20.351519274376418	45	127
19.67814058956916	19.89873015873016	81	127
19.89873015873016	20.119319727891156	79	127
20.119319727891156	20.305079365079365	78	127
20.351519274376418	21.024897959183672	55	127
20.351519274376418	21.024897959183672	52	127
20.351519274376418	21.024897959183672	45	127
20.351519274376418	20.44439909297052	78	127
20.44439909297052	20.595328798185943	76	127
20.595328798185943	20.792698412698414	74	127
20.792698412698414	20.978458049886623	73	127
21.024897959183672	21.361587301587303	74	127
21.024897959183672	22.627074829931974	54	127
21.024897959183672	22.627074829931974	50	127
21.69827664399093	21.81437641723356	69	127
21.81437641723356	22.73156462585034	81	127
22.627074829931974	24.10154195011338	54	127
22.627074829931974	24.10154195011338	57	127
22.73156462585034	22.859274376417233	78	127
22.859274376417233	22.9637641723356	74	127
22.9637641723356	23.06825396825397	69	127
23.06825396825397	23.161133786848072	66	127
23.161133786848072	23.288843537414966	62	127
23.288843537414966	23.474603174603175	62	127
23.69517006802721	23.985442176870748	62	127
23.985442176870748	24.0318820861678	61	127
24.0318820861678	24.06671201814059	62	127
24.06671201814059	24.10154195011338	64	127
24.10154195011338	25.657278911564624	57	127
24.10154195011338	25.657278911564624	52	127
24.10154195011338	24.391791383219953	62	127
24.461451247165535	24.635600907029477	61	127
24.79814058956916	24.856190476190477	69	127
24.856190476190477	25.773378684807255	79	127
25.657278911564624	27.16657596371882	57	127
25.657278911564624	27.16657596371882	55	127
25.773378684807255	25.90108843537415	76	127
25.90108843537415	26.028798185941042	73	127
26.028798185941042	26.144897959183673	69	127
26.144897959183673	26.307437641723357	64	127
26.307437641723357	26.388707482993198	61	127
26.388707482993198	26.551247165532878	61	127
26.771836734693878	27.16657596371882	61	127
27.16657596371882	28.65265306122449	54	127
27.16657596371882	27.46843537414966	64	127
27.16657596371882	28.65265306122449	57	127
27.46843537414966	27.630975056689344	62	127
27.7702947845805	27.874784580498865	74	127
27.874784580498865	28.76875283446712	86	127
28.65265306122449	30.161950113378683	60	127
28.65265306122449	30.161950113378683	62	127
28.76875283446712	28.908072562358278	81	127
28.908072562358278	29.00095238095238	78	127
29.00095238095238	29.07061224489796	74	127
29.07061224489796	29.22154195011338	69	127
29.22154195011338	29.349251700680274	66	127
29.349251700680274	29.558231292517007	66	127
29.79043083900227	29.976190476190474	66	127
30.161950113378683	30.672789115646257	67	127
30.161950113378683	31.67124716553288	59	127
30.161950113378683	31.67124716553288	62	127
30.672789115646257	30.7540589569161	69	127
30.7540589569161	30.82371882086168	67	127
30.82371882086168	30.881768707482994	66	127
30.893378684807256	30.997868480725625	67	127
30.997868480725625	31.090748299319728	69	127
31.090748299319728	31.195238095238096	71	127
31.195238095238096	31.311337868480727	72	127
31.311337868480727	31.36938775510204	74	127
31.36938775510204	31.48548752834467	76	127
31.48548752834467	31.58997732426304	78	127
31.58997732426304	31.67124716553288	79	127
31.67124716553288	31.78734693877551	81	127
31.67124716553288	33.06444444444445	62	127
31.67124716553288	33.06444444444445	58	127
31.78734693877551	31.86861678004535	80	127
31.86861678004535	31.93827664399093	81	127
31.93827664399093	31.98471655328798	80	127
31.98471655328798	32.03113378684807	81	127
32.03113378684807	32.10081632653061	80	127
32.10081632653061	32.15884353741497	81	127
32.15884353741497	32.182086167800456	80	127
32.182086167800456	32.24013605442177	81	127
32.24013605442177	32.28655328798186	80	127
32.28655328798186	32.34462585034014	81	127
32.34462585034014	32.414263038548754	80	127
32.414263038548754	32.47233560090703	81	127
32.47233560090703	32.553605442176874	80	127
32.553605442176874	32.58843537414966	81	127
32.58843537414966	32.63487528344671	80	127
32.63487528344671	32.65807256235828	81	127
32.65807256235828	32.69292517006803	80	127
32.69292517006803	32.72775510204082	81	127
32.72775510204082	32.774195011337866	80	127
32.774195011337866	32.82063492063492	81	127
32.82063492063492	32.90190476190476	80	127
32.90190476190476	32.983174603174604	78	127
32.983174603174604	33.04120181405896	80	127
33.06444444444445	33.42433106575964	81	127
33.06444444444445	33.13410430839002	45	127
33.13410430839002	33.25020408163265	57	127
33.25020408163265	33.35469387755102	56	127
33.35469387755102	33.42433106575964	57	127
33.42433106575964	33.54045351473923	59	127
33.54045351473923	33.63333333333333	57	127
33.63333333333333	33.72621315192744	56	127
33.72621315192744	33.84231292517007	57	127
33.84231292517007	34.26027210884354	45	127
34.26027210884354	34.364761904761906	79	127
34.364761904761906	34.43439909297052	88	127
34.43439909297052	34.515691609977324	85	127
34.515691609977324	34.59696145124717	79	127
34.59696145124717	34.68981859410431	76	127
34.68981859410431	34.78272108843537	85	127
34.78272108843537	34.91043083900227	79	127
34.91043083900227	34.98009070294785	76	127
34.98009070294785	35.04975056689342	73	127
35.04975056689342	35.16585034013605	79	127
35.16585034013605	35.281950113378684	76	127
35.281950113378684	35.36321995464853	73	127
35.36321995464853	35.45607709750567	67	127
35.45607709750567	35.53736961451247	76	127
35.53736961451247	35.63024943310658	73	127
35.63024943310658	35.71149659863946	67	127
35.71149659863946	35.827619047619045	64	127
35.827619047619045	35.90888888888889	73	127
35.90888888888889	36.01337868480726	67	127
36.01337868480726	36.12947845804989	64	127
36.12947845804989	36.52421768707483	66	127
36.12947845804989	36.52421768707483	74	127
36.12947845804989	36.24557823129252	33	127
36.24557823129252	36.36167800453515	45	127
36.36167800453515	36.45455782312925	44	127
36.45455782312925	36.52421768707483	45	127
36.52421768707483	36.64031746031746	47	127
36.64031746031746	36.75641723356009	45	127
36.75641723356009	36.884126984126986	44	127
36.884126984126986	36.988616780045355	45	127
36.988616780045355	37.40657596371882	33	127
37.40657596371882	37.52267573696145	78	127
37.52267573696145	37.54589569160998	86	127
37.54589569160998	37.66199546485261	81	127
37.66199546485261	37.754875283446715	78	127
37.754875283446715	37.82453514739229	74	127
37.82453514739229	37.92902494331066	81	127
37.92902494331066	38.0102947845805	78	127
38.0102947845805	38.1031746031746	74	127
38.1031746031746	38.21927437641723	69	127
38.21927437641723	38.31215419501134	78	127
38.31215419501134	38.39342403628118	74	127
38.39342403628118	38.451473922902494	69	127
38.451473922902494	38.55596371882086	66	127
38.55596371882086	38.62560090702948	74	127
38.62560090702948	38.74172335600907	69	127
38.74172335600907	38.881020408163266	66	127
38.881020408163266	38.96231292517007	62	127
38.96231292517007	39.055192743764174	69	127
39.055192743764174	39.171292517006805	66	127
39.171292517006805	39.287392290249436	62	127
39.287392290249436	39.65891156462585	64	127
39.287392290249436	39.36866213151927	45	127
39.287392290249436	39.65891156462585	61	127
39.287392290249436	39.65891156462585	67	127
39.36866213151927	39.46154195011338	57	127
39.46154195011338	39.554421768707485	56	127
39.554421768707485	39.65891156462585	57	127
39.65891156462585	39.78662131519275	59	127
39.78662131519275	39.90269841269841	57	127
39.90269841269841	39.97238095238095	56	127
39.97238095238095	40.07687074829932	57	127
40.07687074829932	40.50643990929705	45	127
40.50643990929705	40.62253968253968	83	127
40.62253968253968	40.73863945578231	82	127
40.73863945578231	40.85473922902494	83	127
40.85473922902494	40.94761904761905	82	127
40.970839002267574	42.665895691609975	33	127
40.970839002267574	41.05210884353742	83	127
40.970839002267574	42.665895691609975	45	127
41.05210884353742	41.14498866213152	85	127
41.14498866213152	41.23786848072562	83	127
41.23786848072562	41.36557823129252	82	127
41.36557823129252	41.48167800453515	83	127
41.48167800453515	41.59777777777778	81	127
41.59777777777778	41.71387755102041	79	127
41.71387755102041	41.82997732426304	78	127
41.82997732426304	41.91124716553288	76	127
41.91124716553288	42.02734693877551	74	127
42.02734693877551	42.13183673469388	73	127
42.13183673469388	42.236326530612246	71	127
42.236326530612246	42.35242630385488	69	127
42.35242630385488	42.44530612244898	67	127
42.44530612244898	42.549795918367344	66	127
42.549795918367344	42.64267573696145	64	127
42.665895691609975	42.886485260770975	62	127
42.665895691609975	42.886485260770975	38	127
42.665895691609975	42.886485260770975	50	127
42.886485260770975	43.1302947845805	66	127
42.886485260770975	43.1302947845805	54	127
43.1302947845805	43.29283446712018	69	127
43.1302947845805	43.29283446712018	57	127
43.29283446712018	43.490204081632655	55	127
43.29283446712018	43.490204081632655	67	127
43.490204081632655	43.710793650793654	54	127
43.490204081632655	43.710793650793654	66	127
43.710793650793654	43.94299319727891	52	127
43.710793650793654	43.94299319727891	64	127
43.94299319727891	44.12875283446712	62	127
43.94299319727891	44.12875283446712	50	127
44.12875283446712	44.31451247165533	61	127
44.12875283446712	44.31451247165533	49	127
44.31451247165533	44.53510204081633	50	127
44.31451247165533	44.53510204081633	62	127
44.53510204081633	44.77891156462585	64	127
44.53510204081633	44.77891156462585	52	127
44.77891156462585	44.906621315192744	66	127
44.77891156462585	44.906621315192744	54	127
44.906621315192744	45.138820861678006	55	127
44.906621315192744	45.138820861678006	67	127
45.138820861678006	45.30136054421769	57	127
45.138820861678006	45.30136054421769	69	127
45.30136054421769	45.510340136054424	71	127
45.30136054421769	45.510340136054424	59	127
45.510340136054424	45.70770975056689	61	127
45.510340136054424	45.70770975056689	73	127
45.70770975056689	45.90507936507937	74	127
45.70770975056689	45.90507936507937	62	127
45.90507936507937	46.07922902494331	71	127
45.90507936507937	46.07922902494331	59	127
46.07922902494331	46.29981859410431	62	127
46.07922902494331	46.29981859410431	74	127
46.29981859410431	46.508798185941046	66	127
46.29981859410431	46.508798185941046	78	127
46.508798185941046	46.717777777777776	64	127
46.508798185941046	46.717777777777776	76	127
46.717777777777776	46.94997732426304	74	127
46.717777777777776	46.94997732426304	62	127
46.94997732426304	47.124104308390024	73	127
46.94997732426304	47.124104308390024	61	127
47.124104308390024	47.29827664399093	59	127
47.124104308390024	47.29827664399093	71	127
47.29827664399093	47.51886621315193	70	127
47.29827664399093	47.51886621315193	58	127
47.51886621315193	47.751065759637186	71	127
47.51886621315193	47.751065759637186	59	127
47.751065759637186	47.96004535147392	73	127
47.751065759637186	47.96004535147392	61	127
47.96004535147392	48.11097505668934	74	127
47.96004535147392	48.11097505668934	62	127
48.11097505668934	48.33156462585034	76	127
48.11097505668934	48.33156462585034	64	127
48.33156462585034	48.55215419501134	78	127
48.33156462585034	48.55215419501134	66	127
48.55215419501134	48.76113378684807	80	127
48.55215419501134	48.76113378684807	68	127
48.76113378684807	48.97011337868481	82	127
48.76113378684807	48.97011337868481	70	127
48.97011337868481	49.0978231292517	71	127
48.97011337868481	49.0978231292517	83	127
49.121043083900226	49.35324263038549	80	127
49.121043083900226	49.35324263038549	68	127
49.35324263038549	49.57383219954649	83	127
49.35324263038549	49.57383219954649	71	127
49.57383219954649	49.73637188208617	86	127
49.57383219954649	49.73637188208617	74	127
49.73637188208617	49.92213151927437	73	127
49.73637188208617	49.92213151927437	85	127
49.92213151927437	50.107891156462586	83	127
49.92213151927437	50.107891156462586	71	127
50.107891156462586	50.28204081632653	81	127
50.107891156462586	50.28204081632653	69	127
50.28204081632653	50.537460317460315	80	127
50.28204081632653	50.537460317460315	68	127
50.537460317460315	50.78126984126984	78	127
50.537460317460315	50.78126984126984	66	127
50.78126984126984	51.00185941043084	76	127
50.78126984126984	51.00185941043084	64	127
51.00185941043084	51.094739229024945	75	127
51.00185941043084	51.094739229024945	63	127
51.094739229024945	51.28049886621315	74	127
51.094739229024945	51.28049886621315	62	127
51.28049886621315	51.50108843537415	73	127
51.28049886621315	51.50108843537415	61	127
51.50108843537415	51.73328798185941	59	127
51.50108843537415	51.73328798185941	71	127
51.73328798185941	51.860997732426306	57	127
51.73328798185941	51.860997732426306	69	127
51.860997732426306	52.09319727891157	56	127
51.860997732426306	52.09319727891157	68	127
52.09319727891157	52.27895691609977	54	127
52.09319727891157	52.27895691609977	66	127
52.3021768707483	52.36022675736962	40	127
52.3021768707483	52.464716553287985	64	127
52.464716553287985	52.68530612244898	52	127
52.68530612244898	53.40512471655329	64	127
52.68530612244898	52.87106575963719	51	127
52.68530612244898	53.40512471655329	56	127
52.68530612244898	53.40512471655329	59	127
52.87106575963719	53.056825396825396	52	127
53.10326530612245	53.19614512471655	50	127
53.28902494331066	53.40512471655329	52	127
53.40512471655329	54.10172335600907	59	127
53.40512471655329	54.10172335600907	64	127
53.40512471655329	53.590884353741494	51	127
53.40512471655329	54.10172335600907	56	127
53.590884353741494	53.74181405895692	52	127
53.78825396825397	53.881133786848075	47	127
53.985623582766436	54.10172335600907	52	127
54.10172335600907	54.92603174603175	62	127
54.10172335600907	54.92603174603175	64	127
54.10172335600907	54.34553287981859	51	127
54.10172335600907	54.92603174603175	59	127
54.34553287981859	54.49646258503402	52	127
54.54290249433107	54.63578231292517	44	127
54.740272108843534	54.92603174603175	52	127
54.92603174603175	55.076961451247165	62	127
54.92603174603175	55.076961451247165	59	127
54.92603174603175	55.076961451247165	64	127
54.92603174603175	55.08857142857143	51	127
55.08857142857143	55.27433106575964	52	127
55.30916099773243	55.529750566893426	57	127
55.30916099773243	55.529750566893426	45	127
55.30916099773243	55.529750566893426	61	127
55.30916099773243	55.529750566893426	64	127
55.529750566893426	55.71551020408163	52	127
55.71551020408163	56.26117913832199	81	127
55.71551020408163	55.91287981859411	49	127
55.91287981859411	56.110249433106574	52	127
56.110249433106574	56.26117913832199	45	127
56.26117913832199	56.47015873015873	52	127
56.26117913832199	56.37727891156462	80	127
56.37727891156462	56.47015873015873	78	127
56.47015873015873	56.58625850340136	76	127
56.47015873015873	56.69074829931973	49	127
56.58625850340136	56.69074829931973	74	127
56.69074829931973	56.772018140589566	73	127
56.69074829931973	56.8881179138322	52	127
56.772018140589566	56.8881179138322	71	127
56.8881179138322	57.08548752834467	42	127
56.8881179138322	56.96938775510204	69	127
57.08548752834467	57.259637188208615	52	127
57.08548752834467	57.17836734693878	68	127
57.17836734693878	57.259637188208615	66	127
57.259637188208615	57.4221768707483	45	127
57.259637188208615	57.329297052154196	64	127
57.329297052154196	57.4221768707483	63	127
57.4221768707483	57.61954648526077	52	127
57.4221768707483	57.53827664399093	61	127
57.53827664399093	57.61954648526077	59	127
57.61954648526077	57.78208616780045	57	127
57.61954648526077	57.82852607709751	42	127
57.82852607709751	58.00267573696145	52	127
58.00267573696145	58.1768253968254	57	127
58.00267573696145	58.1768253968254	45	127
58.1768253968254	58.35097505668934	52	127
58.35097505668934	58.44385487528345	40	127
58.35097505668934	58.57156462585034	56	127
58.57156462585034	58.75732426303855	52	127
58.75732426303855	59.54680272108843	56	127
58.75732426303855	58.98952380952381	51	127
58.75732426303855	59.54680272108843	59	127
58.75732426303855	59.54680272108843	64	127
58.98952380952381	59.175283446712015	52	127
59.22172335600907	59.30299319727891	50	127
59.40748299319728	59.54680272108843	52	127
59.54680272108843	59.74417233560091	51	127
59.54680272108843	60.266621315192744	56	127
59.54680272108843	60.266621315192744	59	127
59.54680272108843	60.266621315192744	64	127
59.74417233560091	59.8718820861678	52	127
59.91832199546485	60.03442176870748	47	127
60.10408163265306	60.266621315192744	52	127
60.266621315192744	61.09092970521542	59	127
60.266621315192744	60.47560090702948	51	127
60.266621315192744	61.09092970521542	62	127
60.266621315192744	61.09092970521542	64	127
60.47560090702948	60.649750566893424	52	127
60.69619047619047	60.812290249433104	44	127
60.928390022675735	61.09092970521542	52	127
61.09092970521542	61.28829931972789	59	127
61.09092970521542	61.28829931972789	62	127
61.09092970521542	61.28829931972789	64	127
61.09092970521542	61.28829931972789	51	127
61.28829931972789	61.369569160997735	52	127
61.416009070294784	61.636598639455784	61	127
61.416009070294784	61.636598639455784	57	127
61.416009070294784	61.636598639455784	64	127
61.416009070294784	61.636598639455784	45	127
61.636598639455784	61.845578231292514	52	127
61.845578231292514	62.39124716553288	81	127
61.845578231292514	62.04294784580499	49	127
62.04294784580499	62.24031746031746	52	127
62.24031746031746	62.39124716553288	45	127
62.39124716553288	62.60022675736961	52	127
62.39124716553288	62.48412698412698	80	127
62.48412698412698	62.60022675736961	78	127
62.60022675736961	62.70471655328798	76	127
62.60022675736961	62.797596371882086	49	127
62.70471655328798	62.797596371882086	74	127
62.797596371882086	62.902086167800455	73	127
62.797596371882086	62.98335600907029	52	127
62.902086167800455	62.98335600907029	71	127
62.98335600907029	63.18072562358277	42	127
62.98335600907029	63.04140589569161	69	127
63.18072562358277	63.2968253968254	68	127
63.18072562358277	63.41292517006803	52	127
63.2968253968254	63.41292517006803	66	127
63.41292517006803	63.552244897959184	45	127
63.41292517006803	63.505804988662135	64	127
63.505804988662135	63.552244897959184	63	127
63.552244897959184	63.598684807256234	61	127
63.552244897959184	63.714784580498865	52	127
63.598684807256234	63.714784580498865	59	127
63.714784580498865	63.877324263038545	57	127
63.714784580498865	63.9237641723356	42	127
63.9237641723356	64.1443537414966	52	127
64.1443537414966	64.37655328798186	45	127
64.1443537414966	64.3649433106576	57	127
64.37655328798186	64.57392290249433	52	127
64.57392290249433	64.82934240362812	56	127
64.57392290249433	64.82934240362812	40	127
65.51433106575963	65.60721088435375	52	127
65.51433106575963	65.60721088435375	40	127
65.60721088435375	65.71167800453514	54	127
65.60721088435375	65.71167800453514	42	127
65.71167800453514	65.82780045351474	56	127
65.71167800453514	65.82780045351474	44	127
65.82780045351474	65.92068027210884	59	127
65.82780045351474	65.92068027210884	47	127
65.92068027210884	66.01356009070295	61	127
65.92068027210884	66.01356009070295	49	127
66.01356009070295	66.10643990929705	63	127
66.01356009070295	66.10643990929705	51	127
66.10643990929705	66.1992970521542	64	127
66.10643990929705	66.1992970521542	52	127
66.29219954648526	66.35022675736961	54	127
66.29219954648526	66.35022675736961	66	127
66.35022675736961	66.45471655328798	68	127
66.35022675736961	66.45471655328798	56	127
66.45471655328798	66.54761904761905	69	127
66.45471655328798	66.54761904761905	57	127
66.54761904761905	66.66371882086167	71	127
66.54761904761905	66.66371882086167	59	127
66.66371882086167	66.77981859410431	73	127
66.66371882086167	66.77981859410431	61	127
66.77981859410431	66.88430839002268	75	127
66.77981859410431	66.88430839002268	63	127
66.88430839002268	66.94235827664399	76	127
66.88430839002268	66.94235827664399	64	127
67.07006802721088	67.18616780045352	78	127
67.07006802721088	67.18616780045352	66	127
67.18616780045352	67.30226757369614	80	127
67.18616780045352	67.30226757369614	68	127
67.30226757369614	67.40675736961451	81	127
67.30226757369614	67.40675736961451	69	127
67.40675736961451	67.5344671201814	71	127
67.40675736961451	67.5344671201814	83	127
67.5344671201814	67.65056689342404	73	127
67.5344671201814	67.65056689342404	85	127
67.65056689342404	67.74344671201814	87	127
67.65056689342404	67.74344671201814	75	127
67.74344671201814	68.0685260770975	76	127
67.74344671201814	68.5097052154195	88	127
68.57936507936508	68.79995464852608	85	127
68.79995464852608	69.00891156462585	88	127
69.00891156462585	69.22952380952381	86	127
69.22952380952381	69.42689342403628	85	127
69.42689342403628	69.5778231292517	83	127
69.62424036281179	69.76358276643991	86	127
69.76358276643991	69.97256235827665	85	127
69.97256235827665	70.15829931972789	83	127
70.15829931972789	70.32086167800453	81	127
70.36730158730158	70.59950113378684	85	127
70.59950113378684	70.79687074829933	83	127
70.79687074829933	70.98263038548752	81	127
70.98263038548752	71.12195011337869	80	127
71.18	71.33092970521542	83	127
71.33092970521542	71.52829931972789	81	127
71.52829931972789	71.91142857142857	73	127
71.52829931972789	71.72566893424036	80	127
71.72566893424036	71.91142857142857	78	127
71.91142857142857	72.12040816326531	77	127
71.91142857142857	72.32938775510205	74	127
72.12040816326531	72.32938775510205	78	127
72.32938775510205	72.7821768707483	70	127
72.32938775510205	72.56156462585034	80	127
72.56156462585034	72.74734693877551	78	127
72.7821768707483	73.15369614512471	71	127
72.7821768707483	73.65292517006803	76	127
73.65292517006803	74.09410430839003	74	127
75.10417233560091	76.05619047619048	42	127
75.10417233560091	76.05619047619048	47	127
75.10417233560091	76.05619047619048	50	127
75.10417233560091	76.05619047619048	54	127
75.10417233560091	76.05619047619048	59	127
75.10417233560091	76.05619047619048	62	127
75.10417233560091	76.05619047619048	66	127
75.10417233560091	76.05619047619048	38	127
79.0980045351474	79.26054421768707	52	127
79.0980045351474	79.26054421768707	56	127
79.0980045351474	79.26054421768707	62	127
79.0980045351474	79.26054421768707	40	127
79.43469387755103	79.64365079365079	52	127
79.43469387755103	79.64365079365079	56	127
79.43469387755103	79.64365079365079	62	127
79.43469387755103	79.64365079365079	40	127
79.86426303854876	80.02678004535147	52	127
79.86426303854876	80.02678004535147	56	127
79.86426303854876	80.02678004535147	62	127
79.86426303854876	80.02678004535147	40	127
80.30541950113378	81.21102040816326	56	127
80.30541950113378	81.21102040816326	62	127
80.30541950113378	81.5592970521542	52	127
80.30541950113378	81.5592970521542	45	127
80.30541950113378	81.5592970521542	33	127
81.21102040816326	81.5592970521542	61	127
81.21102040816326	81.5592970521542	57	127
81.66380952380952	81.74507936507936	76	127
81.74507936507936	81.89600907029478	81	127
81.89600907029478	82.01210884353742	85	127
82.01210884353742	82.54616780045352	88	127
82.54616780045352	82.74353741496599	85	127
82.74353741496599	82.87124716553288	88	127
82.87124716553288	83.01056689342404	86	127
83.01056689342404	83.17310657596371	85	127
83.17310657596371	83.3356462585034	83	127
83.3356462585034	83.45172335600907	82	127
83.45172335600907	83.57943310657596	83	127
83.57943310657596	83.68394557823129	86	127
83.68394557823129	83.83485260770975	85	127
83.83485260770975	83.95097505668934	83	127
83.95097505668934	84.09027210884354	81	127
84.09027210884354	84.25283446712018	80	127
84.25283446712018	84.38054421768707	81	127
84.38054421768707	84.49664399092971	85	127
84.49664399092971	84.58952380952381	83	127
84.58952380952381	84.7172335600907	81	127
84.7172335600907	84.8565306122449	80	127
84.8565306122449	84.99587301587302	79	127
84.99587301587302	85.08875283446712	80	127
85.08875283446712	85.20485260770975	83	127
85.20485260770975	85.32095238095238	81	127
85.32095238095238	85.44866213151927	80	127
85.44866213151927	85.54154195011338	78	127
85.56476190476191	85.71569160997733	76	127
85.71569160997733	85.83179138321995	80	127
85.83179138321995	85.97111111111111	78	127
85.97111111111111	86.08721088435374	76	127
86.08721088435374	86.1917006802721	80	127
86.1917006802721	86.33102040816327	78	127
86.33102040816327	86.48195011337869	76	127
86.48195011337869	86.56321995464853	80	127
86.56321995464853	86.6677097505669	78	127
86.70253968253968	87.52684807256236	76	127
87.52684807256236	87.84031746031746	74	127
88.81555555555556	89.19868480725624	59	127
88.81555555555556	89.19868480725624	71	127
89.19868480725624	89.37283446712019	68	127
89.19868480725624	89.37283446712019	56	127
89.66308390022675	90.04619047619047	57	127
89.66308390022675	90.04619047619047	69	127
90.04619047619047	90.17390022675737	66	127
90.04619047619047	90.17390022675737	54	127
90.39451247165533	90.78925170068027	68	127
90.39451247165533	90.78925170068027	56	127
90.78925170068027	90.91696145124716	53	127
90.78925170068027	90.91696145124716	65	127
91.19557823129252	91.5787074829932	66	127
91.19557823129252	91.5787074829932	54	127
91.5787074829932	91.69482993197279	62	127
91.5787074829932	91.69482993197279	50	127
92.31015873015873	92.48430839002268	64	127
92.31015873015873	92.48430839002268	52	127
93.08802721088435	93.23893424036281	69	127
93.08802721088435	93.23893424036281	57	127
93.23893424036281	93.32022675736961	61	127
93.23893424036281	93.32022675736961	73	127
93.32022675736961	93.47113378684807	76	127
93.32022675736961	93.47113378684807	64	127
93.47113378684807	93.62206349206349	68	127
93.47113378684807	93.62206349206349	56	127
93.62206349206349	93.73818594104308	73	127
93.62206349206349	93.73818594104308	61	127
93.73818594104308	93.86589569160998	76	127
93.73818594104308	93.86589569160998	64	127
93.86589569160998	93.93555555555555	69	127
93.86589569160998	93.93555555555555	57	127
93.93555555555555	94.04004535147392	73	127
93.93555555555555	94.04004535147392	61	127
94.04004535147392	94.19097505668934	76	127
94.19097505668934	94.3302947845805	52	127
94.3302947845805	94.46961451247165	73	127
94.3302947845805	94.46961451247165	61	127
94.46961451247165	94.60893424036281	76	127
94.46961451247165	94.60893424036281	64	127
94.60893424036281	94.73664399092971	67	127
94.60893424036281	94.73664399092971	55	127
94.73664399092971	94.84113378684808	73	127
94.73664399092971	94.84113378684808	61	127
94.84113378684808	94.94562358276644	64	127
94.84113378684808	94.94562358276644	76	127
94.94562358276644	95.09655328798186	66	127
94.94562358276644	95.09655328798186	54	127
95.09655328798186	95.21265306122449	73	127
95.09655328798186	95.21265306122449	61	127
95.21265306122449	95.35197278911565	76	127
95.21265306122449	95.35197278911565	64	127
95.35197278911565	95.4912925170068	67	127
95.35197278911565	95.4912925170068	55	127
95.4912925170068	95.64222222222222	73	127
95.4912925170068	95.64222222222222	61	127
95.64222222222222	95.78154195011338	76	127
95.78154195011338	95.94408163265307	52	127
95.94408163265307	96.06018140589569	73	127
95.94408163265307	96.06018140589569	61	127
96.06018140589569	96.18789115646258	76	127
96.06018140589569	96.18789115646258	64	127
96.22272108843538	96.338820861678	54	127
96.22272108843538	96.338820861678	66	127
96.338820861678	96.48975056689342	69	127
96.338820861678	96.48975056689342	57	127
96.48975056689342	96.64068027210884	74	127
96.48975056689342	96.64068027210884	62	127
96.64068027210884	96.80321995464853	53	127
96.64068027210884	96.80321995464853	65	127
96.80321995464853	96.94253968253969	57	127
96.80321995464853	96.94253968253969	69	127
96.94253968253969	97.04702947845804	62	127
96.94253968253969	97.04702947845804	74	127
97.04702947845804	97.15151927437641	54	127
97.04702947845804	97.15151927437641	66	127
97.15151927437641	97.24439909297053	57	127
97.15151927437641	97.24439909297053	69	127
97.24439909297053	97.39532879818594	74	127
97.39532879818594	97.54625850340136	50	127
97.54625850340136	97.67396825396825	69	127
97.54625850340136	97.67396825396825	57	127
97.67396825396825	97.80167800453515	62	127
97.67396825396825	97.80167800453515	74	127
97.80167800453515	97.92938775510204	52	127
97.80167800453515	97.92938775510204	64	127
97.92938775510204	98.09192743764173	67	127
97.92938775510204	98.09192743764173	55	127
98.09192743764173	98.1964172335601	69	127
98.09192743764173	98.1964172335601	57	127
98.1964172335601	98.32412698412699	63	127
98.1964172335601	98.32412698412699	51	127
98.32412698412699	98.46344671201814	67	127
98.32412698412699	98.46344671201814	55	127
98.46344671201814	98.62598639455783	69	127
98.46344671201814	98.62598639455783	57	127
98.62598639455783	98.77691609977325	64	127
98.62598639455783	98.77691609977325	52	127
98.77691609977325	98.88140589569161	67	127
98.77691609977325	98.88140589569161	55	127
98.88140589569161	99.02072562358276	69	127
98.88140589569161	99.02072562358276	57	127
99.02072562358276	99.16004535147393	61	127
99.02072562358276	99.16004535147393	49	127
99.16004535147393	99.31097505668934	67	127
99.16004535147393	99.31097505668934	55	127
99.31097505668934	99.41546485260771	57	127
99.31097505668934	99.41546485260771	69	127
99.45029478458049	99.53156462585034	50	127
99.45029478458049	99.53156462585034	62	127
99.53156462585034	99.62444444444445	54	127
99.53156462585034	99.62444444444445	66	127
99.62444444444445	99.7637641723356	69	127
99.62444444444445	99.7637641723356	57	127
99.7637641723356	99.89147392290249	49	127
99.7637641723356	99.89147392290249	61	127
99.89147392290249	100.03079365079365	66	127
99.89147392290249	100.03079365079365	54	127
100.03079365079365	100.12367346938775	69	127
100.03079365079365	100.12367346938775	57	127
100.12367346938775	100.27460317460317	62	127
100.12367346938775	100.27460317460317	50	127
100.27460317460317	100.41392290249433	54	127
100.27460317460317	100.41392290249433	66	127
100.41392290249433	100.5184126984127	69	127
100.5184126984127	100.63451247165533	45	127
100.63451247165533	100.78544217687075	66	127
100.63451247165533	100.78544217687075	54	127
100.78544217687075	100.88993197278911	69	127
100.78544217687075	100.88993197278911	57	127
100.92476190476191	101.06408163265306	61	127
100.92476190476191	101.06408163265306	49	127
101.06408163265306	101.21501133786848	64	127
101.06408163265306	101.21501133786848	52	127
101.21501133786848	101.34272108843537	69	127
101.21501133786848	101.34272108843537	57	127
101.34272108843537	101.47043083900226	60	127
101.34272108843537	101.47043083900226	48	127
101.47043083900226	101.6213605442177	64	127
101.47043083900226	101.6213605442177	52	127
101.6213605442177	101.74907029478459	69	127
101.6213605442177	101.74907029478459	57	127
101.74907029478459	101.9	61	127
101.74907029478459	101.9	49	127
101.9	102.03931972789115	64	127
101.9	102.03931972789115	52	127
102.03931972789115	102.19024943310657	69	127
102.19024943310657	102.34117913832199	45	127
102.34117913832199	102.48049886621315	64	127
102.34117913832199	102.48049886621315	52	127
102.48049886621315	102.57337868480725	69	127
102.48049886621315	102.57337868480725	57	127
102.57337868480725	102.71269841269842	59	127
102.57337868480725	102.71269841269842	47	127
102.71269841269842	102.79396825396826	50	127
102.71269841269842	102.79396825396826	62	127
102.79396825396826	102.94489795918368	52	127
102.79396825396826	102.94489795918368	64	127
102.94489795918368	103.07260770975057	58	127
102.94489795918368	103.07260770975057	46	127
103.07260770975057	103.22353741496599	62	127
103.07260770975057	103.22353741496599	50	127
103.22353741496599	103.38607709750566	52	127
103.22353741496599	103.38607709750566	64	127
103.38607709750566	103.52539682539683	47	127
103.38607709750566	103.52539682539683	59	127
103.52539682539683	103.5950566893424	62	127
103.52539682539683	103.5950566893424	50	127
103.5950566893424	103.73437641723356	64	127
103.5950566893424	103.73437641723356	52	127
103.73437641723356	103.87369614512471	56	127
103.73437641723356	103.87369614512471	44	127
103.87369614512471	103.98979591836735	62	127
103.87369614512471	104.02462585034013	50	127
104.02462585034013	104.10589569160997	64	127
104.02462585034013	104.14072562358277	52	127
104.10589569160997	104.17555555555556	64	127
104.17555555555556	105.22045351473923	76	127
104.17555555555556	104.32648526077098	45	127
104.32648526077098	104.4774149659864	49	127
104.4774149659864	104.61673469387755	52	127
104.61673469387755	104.75605442176871	44	127
104.75605442176871	104.86054421768708	49	127
104.86054421768708	104.93020408163265	52	127
104.93020408163265	105.06952380952382	45	127
105.06952380952382	105.17401360544218	49	127
105.17401360544218	105.31333333333333	52	127
105.31333333333333	105.42943310657597	74	127
105.31333333333333	105.46426303854875	40	127
105.42943310657597	105.53392290249433	73	127
105.46426303854875	105.61519274376417	49	127
105.53392290249433	105.65002267573696	71	127
105.61519274376417	105.75451247165533	52	127
105.65002267573696	105.75451247165533	69	127
105.75451247165533	105.89383219954648	47	127
105.75451247165533	105.92866213151927	64	127
105.89383219954648	106.02154195011337	50	127
106.02154195011337	106.11442176870749	52	127
106.11442176870749	106.2653514739229	46	127
106.2653514739229	106.3930612244898	50	127
106.3930612244898	106.54399092970522	52	127
106.54399092970522	106.69492063492063	47	127
106.69492063492063	106.75297052154195	50	127
106.75297052154195	106.82263038548753	52	127
106.82263038548753	106.98517006802722	44	127
106.98517006802722	107.12448979591836	50	127
107.12448979591836	107.26380952380953	52	127
107.15931972789116	107.26380952380953	76	127
107.26380952380953	108.48285714285714	88	127
107.26380952380953	107.40312925170068	45	127
107.40312925170068	107.5540589569161	48	127
107.5540589569161	107.69337868480726	52	127
107.69337868480726	107.79786848072563	44	127
107.79786848072563	107.92557823129252	48	127
107.92557823129252	108.08811791383219	52	127
108.08811791383219	108.21582766439909	45	127
108.21582766439909	108.33192743764172	48	127
108.33192743764172	108.48285714285714	52	127
108.48285714285714	108.56412698412699	86	127
108.48285714285714	108.58734693877551	40	127
108.56412698412699	108.6221768707483	84	127
108.58734693877551	108.70344671201813	48	127
108.6221768707483	108.73827664399093	83	127
108.70344671201813	108.85437641723357	52	127
108.73827664399093	108.85437641723357	81	127
108.85437641723357	109.00530612244899	43	127
108.85437641723357	109.04013605442177	82	127
109.00530612244899	109.16784580498866	46	127
109.16784580498866	109.30716553287982	48	127
109.30716553287982	109.42326530612245	42	127
109.42326530612245	109.57419501133786	46	127
109.57419501133786	109.72512471655328	48	127
109.72512471655328	109.86444444444444	43	127
109.86444444444444	109.96893424036281	46	127
109.96893424036281	110.07342403628118	48	127
110.07342403628118	110.2243537414966	40	127
110.2243537414966	110.34045351473922	46	127
110.34045351473922	110.49138321995464	48	127
110.37528344671202	110.49138321995464	72	127
110.49138321995464	111.65238095238095	84	127
110.49138321995464	110.61909297052154	41	127
110.61909297052154	110.7584126984127	45	127
110.7584126984127	110.89773242630386	48	127
110.89773242630386	111.03705215419501	40	127
111.03705215419501	111.14154195011338	45	127
111.14154195011338	111.2924716553288	48	127
111.2924716553288	111.37374149659864	41	127
111.37374149659864	111.50145124716553	45	127
111.50145124716553	111.65238095238095	48	127
111.65238095238095	111.75687074829932	82	127
111.65238095238095	111.80331065759637	33	127
111.75687074829932	111.87297052154194	81	127
111.80331065759637	111.94263038548753	45	127
111.87297052154194	111.97746031746031	79	127
111.94263038548753	112.09356009070295	48	127
111.97746031746031	112.09356009070295	77	127
112.09356009070295	112.2328798185941	43	127
112.09356009070295	112.25609977324262	72	127
112.2328798185941	112.38380952380952	46	127
112.30253968253969	112.51151927437641	84	127
112.38380952380952	112.51151927437641	48	127
112.51151927437641	112.65083900226757	42	127
112.51151927437641	112.68566893424037	84	127
112.65083900226757	112.75532879818594	46	127
112.68566893424037	112.90625850340136	84	127
112.75532879818594	112.90625850340136	48	127
112.90625850340136	113.05718820861678	43	127
112.90625850340136	113.13845804988662	84	127
113.05718820861678	113.17328798185942	46	127
113.13845804988662	113.28938775510204	84	127
113.17328798185942	113.28938775510204	48	127
113.28938775510204	113.49836734693878	84	127
113.28938775510204	113.4287074829932	40	127
113.4287074829932	113.57963718820862	46	127
113.49836734693878	113.68412698412699	84	127
113.57963718820862	113.66090702947845	48	127
113.68412698412699	113.77700680272109	84	127
113.68412698412699	114.0904761904762	45	127
113.68412698412699	114.0904761904762	48	127
113.68412698412699	114.0904761904762	53	127
113.68412698412699	114.0904761904762	41	127
113.86988662131519	113.97437641723356	84	127
114.0904761904762	114.19496598639456	82	127
114.31106575963719	114.41555555555556	81	127
114.48521541950113	114.85673469387756	79	127
114.85673469387756	115.17020408163265	77	127
114.85673469387756	115.26308390022676	53	127
115.26308390022676	115.4372335600907	46	127
115.48367346938775	115.59977324263039	77	127
115.69265306122449	115.80875283446711	76	127
115.91324263038548	115.99451247165533	74	127
116.11061224489796	116.47052154195012	72	127
116.47052154195012	116.80721088435374	70	127
116.47052154195012	116.88848072562358	46	127
116.88848072562358	117.07424036281179	48	127
117.12068027210884	117.23678004535148	70	127
117.34126984126983	117.43414965986395	69	127
117.46897959183673	117.52702947845805	67	127
117.64312925170069	118.04947845804989	65	127
118.04947845804989	118.40938775510205	64	127
118.04947845804989	118.47904761904762	46	127
118.47904761904762	118.57192743764172	65	127
118.47904761904762	118.64158730158731	45	127
118.67641723356009	118.79251700680273	69	127
118.8970068027211	118.9550566893424	62	127
118.8970068027211	119.03632653061224	46	127
119.03632653061224	119.15242630385488	67	127
119.24530612244898	119.32657596371882	60	127
119.24530612244898	119.44267573696145	48	127
119.44267573696145	119.54716553287982	65	127
119.61682539682539	119.68648526077098	58	127
119.61682539682539	119.8025850340136	48	127
119.8025850340136	119.91868480725624	64	127
120.04639455782313	120.2437641723356	57	127
120.04639455782313	120.2437641723356	41	127
121.33510204081632	121.70662131519275	57	127
121.33510204081632	121.70662131519275	53	127
121.70662131519275	121.88077097505669	65	127
121.70662131519275	121.88077097505669	50	127
122.94888888888889	123.3552380952381	65	127
122.94888888888889	123.3552380952381	50	127
123.3552380952381	123.48294784580499	62	127
123.3552380952381	123.48294784580499	47	127
124.43496598639456	124.89936507936508	62	127
124.43496598639456	124.89936507936508	59	127
124.89936507936508	125.3637641723356	62	127
124.89936507936508	125.3637641723356	59	127
125.1431746031746	125.25927437641724	74	127
125.3637641723356	125.4566439909297	72	127
125.5495238095238	125.65401360544217	71	127
125.74689342403629	126.15324263038549	69	127
126.15324263038549	126.48993197278912	68	127
126.15324263038549	126.57120181405895	59	127
126.15324263038549	126.57120181405895	62	127
126.57120181405895	126.9659410430839	62	127
126.57120181405895	126.9659410430839	59	127
126.78018140589569	126.9659410430839	74	127
126.9659410430839	127.15170068027211	73	127
127.15170068027211	127.3722902494331	71	127
127.3722902494331	127.5348299319728	69	127
127.5348299319728	127.76702947845806	68	127
127.76702947845806	127.95278911564625	78	127
127.76702947845806	128.17337868480726	47	127
127.76702947845806	128.17337868480726	50	127
127.76702947845806	128.17337868480726	56	127
127.95278911564625	128.13854875283448	76	127
128.17337868480726	128.2894784580499	49	127
128.17337868480726	128.2894784580499	52	127
128.17337868480726	128.2894784580499	58	127
128.32430839002268	128.53328798185942	76	127
128.53328798185942	128.76548752834466	74	127
128.76548752834466	128.9512471655329	73	127
128.9512471655329	129.1370068027211	71	127
129.1370068027211	129.34598639455783	70	127
129.34598639455783	129.75233560090703	52	127
129.34598639455783	129.75233560090703	58	127
129.34598639455783	129.55496598639456	79	127
129.34598639455783	129.75233560090703	49	127
129.55496598639456	129.70589569160998	78	127
129.75233560090703	129.91487528344672	50	127
129.75233560090703	129.91487528344672	54	127
129.75233560090703	129.91487528344672	59	127
129.926485260771	130.13544217687075	78	127
130.13544217687075	130.3328344671202	76	127
130.3328344671202	130.5185941043084	74	127
130.5185941043084	130.7043537414966	73	127
130.7043537414966	130.9249433106576	71	127
130.9249433106576	131.13392290249433	82	127
131.13392290249433	131.29646258503402	83	127
131.34290249433107	131.52866213151927	77	127
131.52866213151927	131.74925170068028	78	127
131.74925170068028	131.958231292517	85	127
131.958231292517	132.1439909297052	86	127
132.1439909297052	132.3065306122449	82	127
132.3065306122449	132.5387074829932	83	127
132.5387074829932	132.77092970521542	86	127
132.77092970521542	132.9334693877551	83	127
132.97990929705216	133.03795918367348	85	127
132.97990929705216	133.17727891156463	64	127
133.03795918367348	133.0960090702948	83	127
133.0960090702948	133.17727891156463	85	127
133.17727891156463	133.3746485260771	68	127
133.17727891156463	133.24693877551022	83	127
133.24693877551022	133.32820861678005	85	127
133.32820861678005	133.3746485260771	83	127
133.3746485260771	133.44430839002268	85	127
133.3746485260771	133.58362811791383	71	127
133.44430839002268	133.5255782312925	83	127
133.5255782312925	133.58362811791383	85	127
133.58362811791383	133.79260770975057	69	127
133.58362811791383	133.66487528344672	83	127
133.66487528344672	133.71131519274377	85	127
133.71131519274377	133.79260770975057	83	127
133.79260770975057	133.97836734693877	68	127
133.79260770975057	133.8506575963719	85	127
133.8506575963719	133.9202947845805	83	127
133.9202947845805	133.97836734693877	85	127
133.97836734693877	134.1292970521542	66	127
133.97836734693877	134.0015873015873	83	127
134.0015873015873	134.07122448979592	85	127
134.07122448979592	134.1292970521542	83	127
134.1292970521542	134.21056689342404	85	127
134.1292970521542	134.3266439909297	64	127
134.21056689342404	134.26861678004536	83	127
134.26861678004536	134.3266439909297	85	127
134.3266439909297	134.39632653061224	83	127
134.3266439909297	134.5008163265306	63	127
134.39632653061224	134.46598639455783	85	127
134.46598639455783	134.5008163265306	83	127
134.5008163265306	134.55886621315193	85	127
134.5008163265306	134.68655328798187	64	127
134.55886621315193	134.61691609977325	83	127
134.61691609977325	134.68655328798187	85	127
134.68655328798187	134.74462585034013	83	127
134.68655328798187	134.8839455782313	71	127
134.74462585034013	134.80267573696145	85	127
134.80267573696145	134.8839455782313	83	127
134.8839455782313	135.05809523809523	74	127
134.8839455782313	134.94197278911565	85	127
134.94197278911565	135.00004535147391	83	127
135.00004535147391	135.05809523809523	85	127
135.05809523809523	135.11614512471655	83	127
135.05809523809523	135.24385487528346	73	127
135.11614512471655	135.17419501133787	85	127
135.17419501133787	135.24385487528346	83	127
135.24385487528346	135.2902947845805	85	127
135.24385487528346	135.40639455782312	71	127
135.2902947845805	135.35995464852607	83	127
135.35995464852607	135.40639455782312	85	127
135.40639455782312	135.60374149659864	69	127
135.40639455782312	135.48766439909298	83	127
135.48766439909298	135.52249433106576	85	127
135.52249433106576	135.60374149659864	83	127
135.60374149659864	135.65020408163267	85	127
135.60374149659864	135.75469387755103	68	127
135.65020408163267	135.7314739229025	83	127
135.7314739229025	135.75469387755103	85	127
135.75469387755103	135.8243537414966	83	127
135.75469387755103	135.92884353741496	66	127
135.8243537414966	135.89401360544218	85	127
135.89401360544218	135.975283446712	83	127
135.975283446712	136.03333333333333	85	127
135.975283446712	136.14943310657597	64	127
136.03333333333333	136.07977324263038	83	127
136.07977324263038	136.14943310657597	85	127
136.14943310657597	136.2307029478458	83	127
136.14943310657597	136.31197278911566	63	127
136.2307029478458	136.27714285714285	85	127
136.27714285714285	136.34680272108844	83	127
136.34680272108844	136.40485260770976	85	127
136.34680272108844	136.43968253968254	62	127
136.40485260770976	136.46290249433108	83	127
136.46290249433108	136.5441723356009	85	127
136.5441723356009	136.60222222222222	83	127
136.5441723356009	136.637052154195	61	127
136.60222222222222	136.6718820861678	85	127
136.6718820861678	136.74154195011337	83	127
136.74154195011337	136.7995918367347	85	127
136.74154195011337	136.83439909297053	59	127
136.7995918367347	136.857641723356	83	127
136.857641723356	136.93891156462584	85	127
136.93891156462584	136.98532879818595	83	127
136.93891156462584	137.0201814058957	57	127
136.98532879818595	137.06662131519275	85	127
137.06662131519275	137.13625850340136	83	127
137.13625850340136	137.2059410430839	85	127
137.13625850340136	137.24074829931973	56	127
137.2059410430839	137.27560090702949	83	127
137.27560090702949	137.3336507936508	85	127
137.3336507936508	137.40331065759636	83	127
137.3336507936508	137.4265306122449	54	127
137.40331065759636	137.47297052154195	85	127
137.47297052154195	137.54263038548754	83	127
137.54263038548754	137.6006575963719	85	127
137.54263038548754	137.63551020408164	52	127
137.6006575963719	137.67034013605442	83	127
137.67034013605442	137.7515873015873	85	127
137.7515873015873	137.82126984126984	83	127
137.7515873015873	137.85607709750568	50	127
137.82126984126984	137.9025396825397	85	127
137.9025396825397	137.94897959183675	83	127
137.94897959183675	137.98380952380953	49	127
137.94897959183675	138.0070068027211	83	127
138.0070068027211	138.03024943310658	85	127
138.03024943310658	138.07668934240363	83	127
138.03024943310658	138.09990929705216	47	127
138.07668934240363	138.13473922902494	85	127
138.13473922902494	138.21600907029477	83	127
138.21600907029477	138.29727891156463	85	127
138.21600907029477	138.3321088435374	45	127
138.29727891156463	138.36691609977325	83	127
138.36691609977325	138.43659863945578	85	127
138.43659863945578	138.51784580498867	83	127
138.43659863945578	138.55269841269842	44	127
138.51784580498867	138.59913832199547	85	127
138.59913832199547	138.66879818594106	83	127
138.66879818594106	138.7500680272109	42	127
138.66879818594106	138.7152380952381	85	127
138.7152380952381	138.79650793650794	83	127
138.79650793650794	138.87775510204082	85	127
138.87775510204082	138.95904761904762	83	127
138.87775510204082	138.9938775510204	40	127
138.95904761904762	139.04031746031745	81	127
139.04031746031745	139.10997732426304	83	127
139.1215873015873	139.85301587301586	69	127
139.1215873015873	139.85301587301586	81	127
139.1215873015873	139.85301587301586	33	127
139.1215873015873	139.85301587301586	45	127
139.9691156462585	140.67732426303854	45	127
139.9691156462585	140.67732426303854	57	127
139.9691156462585	140.67732426303854	64	127
139.9691156462585	140.67732426303854	69	127
139.9691156462585	140.67732426303854	37	127
139.9691156462585	140.67732426303854	49	127
140.7818140589569	141.49002267573695	57	127
140.7818140589569	141.49002267573695	66	127
140.7818140589569	141.49002267573695	69	127
140.7818140589569	141.49002267573695	38	127
140.7818140589569	141.49002267573695	45	127
140.7818140589569	141.49002267573695	50	127
141.59451247165532	142.26789115646258	57	127
141.59451247165532	142.26789115646258	62	127
141.59451247165532	142.26789115646258	69	127
141.59451247165532	142.26789115646258	42	127
141.59451247165532	142.26789115646258	50	127
141.59451247165532	142.26789115646258	54	127
142.37238095238095	142.5465306122449	50	127
142.37238095238095	142.5465306122449	59	127
142.37238095238095	142.5465306122449	62	127
142.37238095238095	142.5465306122449	71	127
142.37238095238095	142.5465306122449	44	127
142.37238095238095	142.5465306122449	52	127
142.37238095238095	142.5465306122449	56	127
142.7671201814059	142.99931972789116	62	127
142.7671201814059	142.99931972789116	64	127
142.7671201814059	142.99931972789116	44	127
142.7671201814059	142.99931972789116	59	127
142.7671201814059	142.99931972789116	50	127
142.7671201814059	142.99931972789116	52	127
142.7671201814059	142.99931972789116	56	127
143.962947845805	144.183537414966	61	127
143.962947845805	144.183537414966	64	127
143.962947845805	144.183537414966	73	127
143.962947845805	144.183537414966	45	127
143.962947845805	144.183537414966	49	127
143.962947845805	144.183537414966	52	127
143.962947845805	144.183537414966	57	127
144.40412698412698	144.63632653061225	45	127
144.40412698412698	144.63632653061225	61	127
144.40412698412698	144.63632653061225	64	127
144.40412698412698	144.63632653061225	69	127
144.40412698412698	144.63632653061225	49	127
144.40412698412698	144.63632653061225	52	127
144.40412698412698	144.63632653061225	57	127
145.72764172335602	146.12240362811792	47	127
145.8437641723356	145.94825396825397	62	127
145.94825396825397	146.01791383219955	64	127
146.01791383219955	146.12240362811792	68	127
146.12240362811792	146.5635827664399	74	127
146.21528344671202	146.33138321995466	59	127
146.33138321995466	146.44748299319727	58	127
146.44748299319727	146.5635827664399	59	127
146.5635827664399	146.9467120181406	49	127
146.656462585034	146.7261224489796	64	127
146.7261224489796	146.84222222222223	69	127
146.84222222222223	146.9467120181406	64	127
146.9467120181406	147.34145124716554	76	127
147.02798185941043	147.1324716553288	61	127
147.1324716553288	147.24857142857144	60	127
147.24857142857144	147.34145124716554	61	127
147.34145124716554	147.67814058956915	50	127
147.43433106575964	147.50399092970522	66	127
147.50399092970522	147.57365079365078	69	127
147.57365079365078	147.67814058956915	66	127
147.67814058956915	148.08448979591836	78	127
147.7942403628118	147.8871201814059	62	127
147.8871201814059	147.98	61	127
147.98	148.08448979591836	62	127
148.08448979591836	148.45600907029478	52	127
148.09609977324263	148.200589569161	68	127
148.200589569161	148.3282993197279	74	127
148.3282993197279	148.45600907029478	68	127
148.45600907029478	148.87396825396826	80	127
148.6069387755102	148.72303854875284	64	127
148.72303854875284	148.87396825396826	63	127
148.87396825396826	148.93201814058958	74	127
148.87396825396826	149.0132879818594	64	127
148.93201814058958	148.96684807256236	80	127
148.96684807256236	149.0132879818594	83	127
149.0132879818594	150.56902494331067	64	127
149.0132879818594	149.52412698412698	86	127
149.0132879818594	150.56902494331067	52	127
149.0132879818594	150.56902494331067	59	127
149.0132879818594	150.56902494331067	62	127
149.52412698412698	149.5821768707483	85	127
149.5821768707483	149.68666666666667	83	127
149.68666666666667	149.79115646258504	81	127
149.79115646258504	149.88403628117914	80	127
149.88403628117914	149.9885260770975	81	127
149.9885260770975	150.0697732426304	83	127
150.0697732426304	150.17426303854876	81	127
150.17426303854876	150.25555555555556	80	127
150.25555555555556	150.36004535147393	78	127
150.36004535147393	150.4645351473923	76	127
150.4645351473923	150.54580498866213	74	127
150.56902494331067	151.02181405895692	64	127
150.56902494331067	150.7895918367347	73	127
150.56902494331067	151.02181405895692	57	127
150.56902494331067	151.02181405895692	61	127
152.0318820861678	152.06668934240363	62	127
152.06668934240363	152.1015419501134	71	127
152.1015419501134	153.83142857142857	47	127
152.1015419501134	152.658820861678	74	127
152.1015419501134	153.83142857142857	50	127
152.1015419501134	153.83142857142857	40	127
152.1015419501134	153.83142857142857	52	127
152.658820861678	152.74009070294784	73	127
152.74009070294784	152.85619047619048	71	127
152.85619047619048	152.96068027210885	69	127
152.96068027210885	153.07678004535148	68	127
153.07678004535148	153.18126984126985	69	127
153.18126984126985	153.29736961451246	71	127
153.29736961451246	153.40185941043083	69	127
153.40185941043083	153.494716553288	68	127
153.494716553288	153.61083900226757	66	127
153.61083900226757	153.71532879818594	64	127
153.71532879818594	153.83142857142857	62	127
153.83142857142857	153.99396825396826	52	127
153.83142857142857	153.9591156462585	57	127
153.83142857142857	153.99396825396826	45	127
153.83142857142857	153.99396825396826	49	127
155.24784580498866	155.28267573696147	52	127
155.28267573696147	155.31750566893425	56	127
155.31750566893425	155.3639455782313	59	127
155.3639455782313	155.8515419501134	62	127
155.3639455782313	156.9661224489796	40	127
155.8515419501134	155.96766439909297	61	127
155.96766439909297	156.0837641723356	59	127
156.0837641723356	156.18825396825397	57	127
156.18825396825397	156.3043537414966	56	127
156.3043537414966	156.408820861678	57	127
156.408820861678	156.51331065759638	56	127
156.51331065759638	156.60621315192745	54	127
156.60621315192745	156.72231292517006	52	127
156.72231292517006	156.8384126984127	50	127
156.8384126984127	156.89646258503402	49	127
156.89646258503402	156.94290249433107	47	127
156.9661224489796	157.07061224489797	45	127
156.9661224489796	157.07061224489797	33	127
157.07061224489797	157.16349206349207	47	127
157.07061224489797	157.16349206349207	35	127
157.16349206349207	157.26798185941044	49	127
157.16349206349207	157.26798185941044	37	127
157.26798185941044	157.3724716553288	50	127
157.26798185941044	157.3724716553288	38	127
157.3724716553288	157.47696145124718	52	127
157.3724716553288	157.47696145124718	40	127
157.47696145124718	157.58145124716555	54	127
157.47696145124718	157.58145124716555	42	127
157.58145124716555	157.68591836734694	56	127
157.58145124716555	157.68591836734694	44	127
157.68591836734694	157.778820861678	57	127
157.68591836734694	157.778820861678	45	127
157.778820861678	157.9065306122449	59	127
157.778820861678	157.9065306122449	47	127
157.9065306122449	157.97619047619048	61	127
157.9065306122449	157.97619047619048	49	127
157.97619047619048	158.06907029478458	62	127
157.97619047619048	158.06907029478458	50	127
158.06907029478458	158.18517006802722	64	127
158.06907029478458	158.18517006802722	52	127
158.18517006802722	158.30124716553289	66	127
158.18517006802722	158.30124716553289	54	127
158.30124716553289	158.39414965986396	68	127
158.30124716553289	158.39414965986396	56	127
158.39414965986396	158.48702947845806	69	127
158.39414965986396	158.48702947845806	57	127
158.48702947845806	158.57990929705215	71	127
158.48702947845806	158.57990929705215	59	127
158.57990929705215	158.67278911564625	73	127
158.57990929705215	158.67278911564625	61	127
158.67278911564625	158.76566893424035	74	127
158.67278911564625	158.76566893424035	62	127
158.76566893424035	158.85854875283448	76	127
158.76566893424035	158.85854875283448	64	127
158.85854875283448	158.9746485260771	78	127
158.85854875283448	158.9746485260771	66	127
158.9746485260771	159.09074829931973	80	127
158.9746485260771	159.09074829931973	68	127
159.09074829931973	159.1952380952381	81	127
159.09074829931973	159.1952380952381	69	127
159.1952380952381	159.29972789115646	83	127
159.1952380952381	159.29972789115646	71	127
159.29972789115646	159.35777777777778	85	127
159.29972789115646	159.35777777777778	73	127
159.35777777777778	159.48548752834466	86	127
159.35777777777778	159.48548752834466	74	127
159.764126984127	159.92666666666668	87	127
159.764126984127	159.92666666666668	75	127
160.12403628117914	160.62326530612245	88	127
160.12403628117914	160.62326530612245	76	127
161.13410430839002	161.51723356009072	59	127
161.13410430839002	161.51723356009072	62	127
161.13410430839002	161.51723356009072	64	127
161.13410430839002	161.51723356009072	68	127
161.13410430839002	161.51723356009072	40	127
161.13410430839002	161.51723356009072	52	127
162.00485260770975	162.74786848072563	57	127
162.00485260770975	162.74786848072563	61	127
162.00485260770975	162.74786848072563	64	127
162.00485260770975	162.74786848072563	69	127
162.00485260770975	162.74786848072563	33	127
162.00485260770975	162.74786848072563	45	127
163.86244897959185	165.0350566893424	54	127
163.86244897959185	165.0350566893424	57	127
163.86244897959185	165.0350566893424	62	127
163.86244897959185	165.0350566893424	38	127
163.86244897959185	165.0350566893424	42	127
163.86244897959185	165.0350566893424	45	127
163.86244897959185	165.0350566893424	50	127
165.20920634920634	165.3136961451247	57	127
165.20920634920634	165.3136961451247	45	127
165.3136961451247	165.42979591836735	62	127
165.3136961451247	165.42979591836735	50	127
165.42979591836735	165.5691156462585	66	127
165.42979591836735	165.5691156462585	54	127
166.0451247165533	166.1380045351474	62	127
166.0451247165533	166.1380045351474	50	127
166.1380045351474	166.24249433106576	66	127
166.1380045351474	166.24249433106576	54	127
166.24249433106576	166.4166439909297	69	127
166.24249433106576	166.4166439909297	57	127
166.91587301587302	167.03197278911566	69	127
166.91587301587302	167.03197278911566	57	127
167.03197278911566	167.13646258503402	66	127
167.03197278911566	167.13646258503402	54	127
167.13646258503402	167.34544217687076	62	127
167.13646258503402	167.34544217687076	50	127
168.34390022675737	168.44839002267574	66	127
168.34390022675737	168.44839002267574	54	127
168.44839002267574	168.5528798185941	62	127
168.44839002267574	168.5528798185941	50	127
168.5528798185941	168.7386394557823	57	127
168.5528798185941	168.7386394557823	45	127
169.2146485260771	169.34233560090703	62	127
169.2146485260771	169.34233560090703	50	127
169.34233560090703	169.45845804988662	57	127
169.34233560090703	169.45845804988662	45	127
169.45845804988662	169.63260770975057	54	127
169.45845804988662	169.63260770975057	42	127
170.05056689342405	170.13183673469388	57	127
170.05056689342405	170.13183673469388	45	127
170.13183673469388	170.24793650793652	54	127
170.13183673469388	170.24793650793652	42	127
170.24793650793652	170.4336961451247	50	127
170.24793650793652	171.83850340136055	38	127
170.24793650793652	171.83850340136055	45	127
170.46850340136055	170.65428571428572	54	127
170.65428571428572	170.86326530612246	57	127
170.86326530612246	171.0838321995465	55	127
171.0838321995465	171.3160544217687	54	127
171.3160544217687	171.53664399092972	52	127
171.53664399092972	171.69918367346938	50	127
171.69918367346938	171.8849433106576	49	127
171.93138321995465	173.48709750566894	42	127
171.93138321995465	173.48709750566894	50	127
171.93138321995465	173.48709750566894	45	127
172.1403628117914	172.3261224489796	52	127
172.3261224489796	172.53510204081633	54	127
172.53510204081633	172.697641723356	55	127
172.697641723356	172.89501133786848	57	127
172.89501133786848	173.09238095238095	59	127
173.09238095238095	173.2781179138322	61	127
173.2781179138322	173.48709750566894	62	127
173.48709750566894	173.7077097505669	57	127
173.48709750566894	175.10090702947846	40	127
173.48709750566894	175.10090702947846	45	127
173.48709750566894	175.10090702947846	49	127
173.7077097505669	173.89344671201815	61	127
173.89344671201815	174.06761904761905	64	127
174.06761904761905	174.27659863945578	62	127
174.27659863945578	174.5087755102041	61	127
174.5087755102041	174.71777777777777	59	127
174.71777777777777	174.9267573696145	57	127
174.9267573696145	175.10090702947846	56	127
175.10090702947846	175.27503401360545	57	127
175.10090702947846	176.76113378684806	43	127
175.10090702947846	176.76113378684806	45	127
175.10090702947846	176.76113378684806	52	127
175.27503401360545	175.4724263038549	59	127
175.4724263038549	175.70462585034014	61	127
175.70462585034014	175.92521541950114	62	127
175.92521541950114	176.08775510204083	64	127
176.08775510204083	176.3083446712018	66	127
176.3083446712018	176.54054421768708	67	127
176.54054421768708	176.76113378684806	64	127
176.76113378684806	178.37492063492064	42	127
176.76113378684806	176.98172335600907	62	127
176.76113378684806	178.37492063492064	50	127
176.76113378684806	178.37492063492064	45	127
176.98172335600907	177.16746031746032	66	127
177.16746031746032	177.3532426303855	69	127
177.3532426303855	177.5390022675737	67	127
177.5390022675737	177.74798185941043	66	127
177.74798185941043	177.96857142857144	64	127
177.96857142857144	178.1659410430839	62	127
178.1659410430839	178.37492063492064	61	127
178.37492063492064	178.56068027210884	62	127
178.37492063492064	180.023537414966	48	127
178.37492063492064	180.023537414966	50	127
178.37492063492064	180.023537414966	57	127
178.56068027210884	178.78126984126985	64	127
178.78126984126985	179.00183673469388	66	127
179.00183673469388	179.18761904761905	67	127
179.18761904761905	179.36174603174604	69	127
179.36174603174604	179.59396825396826	71	127
179.59396825396826	179.81455782312926	72	127
179.81455782312926	180.023537414966	73	127
180.023537414966	180.23249433106577	74	127
180.023537414966	180.81301587301587	47	127
180.023537414966	180.81301587301587	50	127
180.023537414966	180.81301587301587	55	127
180.23249433106577	180.36022675736962	76	127
180.36022675736962	180.59240362811792	78	127
180.59240362811792	180.81301587301587	79	127
180.81301587301587	181.0219954648526	80	127
180.81301587301587	181.66052154195012	43	127
180.81301587301587	181.66052154195012	50	127
180.81301587301587	181.66052154195012	52	127
181.0219954648526	181.2077551020408	81	127
181.2077551020408	181.41673469387754	82	127
181.41673469387754	181.61408163265307	83	127
181.66052154195012	181.86950113378686	83	127
181.66052154195012	182.54290249433106	54	127
181.66052154195012	182.54290249433106	50	127
181.66052154195012	182.54290249433106	45	127
181.86950113378686	182.0901133786848	81	127
182.0901133786848	182.32231292517008	79	127
182.32231292517008	182.496462585034	78	127
182.54290249433106	182.70544217687075	78	127
182.54290249433106	183.3207709750567	45	127
182.54290249433106	183.3207709750567	52	127
182.54290249433106	183.3207709750567	55	127
182.70544217687075	182.8447619047619	76	127
182.8447619047619	183.07696145124717	74	127
183.07696145124717	183.26272108843537	73	127
183.3207709750567	184.83004535147393	54	127
183.3207709750567	183.51814058956916	74	127
183.3207709750567	184.83004535147393	50	127
183.84321995464853	183.95931972789117	69	127
183.95931972789117	184.9345351473923	81	127
184.83004535147393	186.38580498866213	57	127
184.83004535147393	186.38580498866213	54	127
184.9345351473923	185.07387755102042	78	127
185.07387755102042	185.22480725623583	74	127
185.22480725623583	185.29444444444445	69	127
185.29444444444445	185.43378684807257	66	127
185.43378684807257	185.54986394557824	62	127
185.54986394557824	185.72403628117914	62	127
185.94462585034015	186.28131519274376	62	127
186.28131519274376	186.3161224489796	61	127
186.3161224489796	186.33936507936508	62	127
186.33936507936508	186.38580498866213	64	127
186.38580498866213	187.90671201814058	57	127
186.38580498866213	186.62961451247165	62	127
186.38580498866213	187.90671201814058	52	127
186.68766439909297	186.83859410430838	61	127
187.00113378684807	187.12884353741498	69	127
187.12884353741498	188.02281179138322	79	127
187.90671201814058	189.45083900226757	57	127
187.90671201814058	189.45083900226757	55	127
188.02281179138322	188.13891156462586	76	127
188.13891156462586	188.26662131519274	73	127
188.26662131519274	188.4059410430839	69	127
188.4059410430839	188.45238095238096	64	127
188.45238095238096	188.58009070294784	61	127
188.58009070294784	188.78907029478458	61	127
189.02124716553288	189.45083900226757	61	127
189.45083900226757	189.7294784580499	64	127
189.45083900226757	190.96013605442178	54	127
189.45083900226757	190.96013605442178	57	127
189.7294784580499	189.90362811791383	62	127
190.0661678004535	190.18226757369615	74	127
190.18226757369615	191.1110657596372	86	127
190.96013605442178	192.46943310657596	60	127
190.96013605442178	192.46943310657596	62	127
191.1110657596372	191.2271655328798	81	127
191.2271655328798	191.3897052154195	78	127
191.3897052154195	191.47097505668935	74	127
191.47097505668935	191.56385487528345	69	127
191.56385487528345	191.65673469387755	66	127
191.65673469387755	191.87732426303856	66	127
192.09791383219954	192.295283446712	66	127
192.46943310657596	194.07160997732427	62	127
192.46943310657596	194.07160997732427	59	127
192.46943310657596	193.03832199546486	67	127
193.03832199546486	193.10798185941044	69	127
193.10798185941044	193.18925170068027	67	127
193.18925170068027	193.2473015873016	66	127
193.2473015873016	193.37501133786847	67	127
193.37501133786847	193.47950113378684	69	127
193.47950113378684	193.5839909297052	71	127
193.5839909297052	193.70009070294785	72	127
193.70009070294785	193.81619047619049	74	127
193.81619047619049	193.8742403628118	76	127
193.8742403628118	193.9671201814059	78	127
193.9671201814059	194.07160997732427	79	127
194.07160997732427	194.14126984126983	81	127
194.07160997732427	195.46480725623582	62	127
194.07160997732427	195.46480725623582	58	127
194.14126984126983	194.19931972789115	80	127
194.19931972789115	194.25736961451247	81	127
194.25736961451247	194.29219954648525	80	127
194.29219954648525	194.36185941043084	81	127
194.36185941043084	194.44312925170067	80	127
194.44312925170067	194.501179138322	81	127
194.501179138322	194.58244897959185	80	127
194.58244897959185	194.6521088435374	81	127
194.6521088435374	194.71015873015872	80	127
194.71015873015872	194.7798185941043	81	127
194.7798185941043	194.83786848072563	80	127
194.83786848072563	194.89591836734695	81	127
194.89591836734695	194.9655782312925	80	127
194.9655782312925	195.00040816326532	81	127
195.00040816326532	195.04684807256237	80	127
195.04684807256237	195.07006802721088	81	127
195.07006802721088	195.1281179138322	80	127
195.1281179138322	195.15133786848074	81	127
195.15133786848074	195.18616780045352	80	127
195.18616780045352	195.24421768707484	81	127
195.24421768707484	195.32548752834467	80	127
195.32548752834467	195.38353741496599	78	127
195.38353741496599	195.45319727891157	80	127
195.46480725623582	195.7898866213152	81	127
195.46480725623582	195.52285714285713	45	127
195.52285714285713	195.61573696145123	57	127
195.61573696145123	195.7202267573696	56	127
195.7202267573696	195.7898866213152	57	127
195.7898866213152	195.90598639455783	59	127
195.90598639455783	196.0336961451247	57	127
196.0336961451247	196.17301587301588	56	127
196.17301587301588	196.26589569160998	57	127
196.26589569160998	196.6722448979592	45	127
196.6722448979592	196.77673469387756	79	127
196.77673469387756	196.83478458049888	88	127
196.83478458049888	196.93927437641725	85	127
196.93927437641725	197.0437641723356	79	127
197.0437641723356	197.14825396825398	76	127
197.14825396825398	197.25274376417232	85	127
197.25274376417232	197.3224036281179	79	127
197.3224036281179	197.3920634920635	76	127
197.3920634920635	197.47333333333333	73	127
197.47333333333333	197.5778231292517	79	127
197.5778231292517	197.7055328798186	76	127
197.7055328798186	197.7984126984127	73	127
197.7984126984127	197.86807256235826	67	127
197.86807256235826	197.9609523809524	76	127
197.9609523809524	198.06544217687076	73	127
198.06544217687076	198.16993197278913	67	127
198.16993197278913	198.27442176870747	64	127
198.27442176870747	198.3905215419501	73	127
198.3905215419501	198.4834013605442	67	127
198.4834013605442	198.58789115646258	64	127
198.58789115646258	198.7039909297052	33	127
198.58789115646258	199.04068027210883	66	127
198.58789115646258	199.04068027210883	74	127
198.7039909297052	198.82009070294785	45	127
198.82009070294785	198.91297052154195	44	127
198.91297052154195	199.04068027210883	45	127
199.04068027210883	199.15678004535147	47	127
199.15678004535147	199.22643990929706	45	127
199.22643990929706	199.3077097505669	44	127
199.3077097505669	199.42380952380952	45	127
199.42380952380952	199.78371882086168	33	127
199.78371882086168	199.841768707483	78	127
199.841768707483	199.94625850340137	86	127
199.94625850340137	200.0275283446712	81	127
200.0275283446712	200.14362811791383	78	127
200.14362811791383	200.25972789115647	74	127
200.25972789115647	200.38743764172335	81	127
200.38743764172335	200.503537414966	78	127
200.503537414966	200.5615873015873	74	127
200.5615873015873	200.67768707482992	69	127
200.67768707482992	200.7821768707483	78	127
200.7821768707483	200.88666666666666	74	127
200.88666666666666	200.95632653061224	69	127
200.95632653061224	201.07242630385488	66	127
201.07242630385488	201.21174603174603	74	127
201.21174603174603	201.32784580498867	69	127
201.32784580498867	201.43233560090704	66	127
201.43233560090704	201.4787755102041	62	127
201.4787755102041	201.56004535147392	69	127
201.56004535147392	201.67614512471656	66	127
201.67614512471656	201.78063492063492	62	127
201.78063492063492	202.2218140589569	67	127
201.78063492063492	201.87351473922902	45	127
201.78063492063492	202.2218140589569	64	127
201.78063492063492	202.2218140589569	61	127
201.87351473922902	201.96639455782312	57	127
201.96639455782312	202.1057142857143	56	127
202.1057142857143	202.2218140589569	57	127
202.2218140589569	202.314693877551	59	127
202.314693877551	202.41918367346938	57	127
202.41918367346938	202.52367346938775	56	127
202.52367346938775	202.6281632653061	57	127
202.6281632653061	203.0461224489796	45	127
203.0461224489796	203.15061224489796	83	127
203.15061224489796	203.2667120181406	82	127
203.2667120181406	203.3595918367347	83	127
203.3595918367347	203.4524716553288	82	127
203.47569160997733	205.19396825396825	33	127
203.47569160997733	203.5801814058957	83	127
203.47569160997733	205.19396825396825	45	127
203.5801814058957	203.68467120181407	85	127
203.68467120181407	203.78916099773244	83	127
203.78916099773244	203.8936507936508	82	127
203.8936507936508	203.99814058956918	83	127
203.99814058956918	204.11424036281178	81	127
204.11424036281178	204.20712018140588	79	127
204.20712018140588	204.3	78	127
204.3	204.3928798185941	76	127
204.3928798185941	204.50897959183675	74	127
204.50897959183675	204.6134693877551	73	127
204.6134693877551	204.72956916099773	71	127
204.72956916099773	204.85727891156463	69	127
204.85727891156463	204.97337868480724	67	127
204.97337868480724	205.0778684807256	66	127
205.0778684807256	205.17074829931974	64	127
205.19396825396825	205.39133786848072	62	127
205.19396825396825	205.39133786848072	38	127
205.19396825396825	205.39133786848072	50	127
205.39133786848072	205.60031746031746	54	127
205.39133786848072	205.60031746031746	66	127
205.60031746031746	205.75124716553287	57	127
205.60031746031746	205.75124716553287	69	127
205.75124716553287	205.9602267573696	55	127
205.75124716553287	205.9602267573696	67	127
205.9602267573696	206.1227664399093	66	127
205.9602267573696	206.1227664399093	54	127
206.1227664399093	206.32013605442177	64	127
206.1227664399093	206.32013605442177	52	127
206.32013605442177	206.50589569160996	62	127
206.32013605442177	206.50589569160996	50	127
206.50589569160996	206.73809523809524	61	127
206.50589569160996	206.73809523809524	49	127
206.73809523809524	206.9354648526077	62	127
206.73809523809524	206.9354648526077	50	127
206.9354648526077	207.15605442176872	64	127
206.9354648526077	207.15605442176872	52	127
207.15605442176872	207.3766439909297	54	127
207.15605442176872	207.3766439909297	66	127
207.3766439909297	207.55079365079365	67	127
207.3766439909297	207.55079365079365	55	127
207.55079365079365	207.73655328798185	69	127
207.55079365079365	207.73655328798185	57	127
207.73655328798185	207.92231292517008	59	127
207.73655328798185	207.92231292517008	71	127
207.92231292517008	208.096462585034	73	127
207.92231292517008	208.096462585034	61	127
208.096462585034	208.32866213151928	74	127
208.096462585034	208.32866213151928	62	127
208.32866213151928	208.53764172335602	71	127
208.32866213151928	208.53764172335602	59	127
208.53764172335602	208.71179138321995	74	127
208.53764172335602	208.71179138321995	62	127
208.71179138321995	208.93238095238095	66	127
208.71179138321995	208.93238095238095	78	127
208.93238095238095	209.11814058956915	76	127
208.93238095238095	209.11814058956915	64	127
209.11814058956915	209.33873015873016	74	127
209.11814058956915	209.33873015873016	62	127
209.33873015873016	209.52448979591836	73	127
209.33873015873016	209.52448979591836	61	127
209.52448979591836	209.71024943310658	71	127
209.52448979591836	209.71024943310658	59	127
209.71024943310658	209.94244897959183	70	127
209.71024943310658	209.94244897959183	58	127
209.94244897959183	210.1165986394558	71	127
209.94244897959183	210.1165986394558	59	127
210.1165986394558	210.3604081632653	61	127
210.1165986394558	210.3604081632653	73	127
210.3604081632653	210.53455782312926	62	127
210.3604081632653	210.53455782312926	74	127
210.53455782312926	210.68548752834468	64	127
210.53455782312926	210.68548752834468	76	127
210.68548752834468	210.91768707482993	78	127
210.68548752834468	210.91768707482993	66	127
210.91768707482993	211.1150566893424	80	127
210.91768707482993	211.1150566893424	68	127
211.1150566893424	211.30081632653062	82	127
211.1150566893424	211.30081632653062	70	127
211.30081632653062	211.47496598639455	71	127
211.30081632653062	211.47496598639455	83	127
211.5214058956916	211.75360544217688	80	127
211.5214058956916	211.75360544217688	68	127
211.75360544217688	211.9277551020408	83	127
211.75360544217688	211.9277551020408	71	127
211.9277551020408	212.0902947845805	86	127
211.9277551020408	212.0902947845805	74	127
212.0902947845805	212.26444444444445	85	127
212.0902947845805	212.26444444444445	73	127
212.26444444444445	212.48503401360543	83	127
212.26444444444445	212.48503401360543	71	127
212.48503401360543	212.64757369614512	81	127
212.48503401360543	212.64757369614512	69	127
212.64757369614512	212.8797732426304	80	127
212.64757369614512	212.8797732426304	68	127
212.8797732426304	213.14680272108845	78	127
212.8797732426304	213.14680272108845	66	127
213.14680272108845	213.34417233560092	76	127
213.14680272108845	213.34417233560092	64	127
213.34417233560092	213.48349206349206	75	127
213.34417233560092	213.48349206349206	63	127
213.48349206349206	213.6228117913832	74	127
213.48349206349206	213.6228117913832	62	127
213.6228117913832	213.84340136054422	73	127
213.6228117913832	213.84340136054422	61	127
213.84340136054422	214.06399092970523	71	127
213.84340136054422	214.06399092970523	59	127
214.06399092970523	214.21492063492065	69	127
214.06399092970523	214.21492063492065	57	127
214.21492063492065	214.4471201814059	68	127
214.21492063492065	214.4471201814059	56	127
214.4471201814059	214.62126984126985	66	127
214.4471201814059	214.62126984126985	54	127
214.65609977324263	214.73736961451246	40	127
214.65609977324263	214.84185941043083	64	127
214.84185941043083	214.99278911564625	52	127
214.99278911564625	215.77065759637188	64	127
214.99278911564625	215.77065759637188	59	127
214.99278911564625	215.22498866213152	51	127
214.99278911564625	215.77065759637188	56	127
215.22498866213152	215.3875283446712	52	127
215.43396825396826	215.5500680272109	50	127
215.642947845805	215.77065759637188	52	127
215.77065759637188	215.96802721088434	51	127
215.77065759637188	216.59496598639456	56	127
215.77065759637188	216.59496598639456	59	127
215.77065759637188	216.59496598639456	64	127
215.96802721088434	216.11895691609976	52	127
216.1653968253968	216.24666666666667	47	127
216.3627664399093	216.59496598639456	52	127
216.59496598639456	216.81555555555556	51	127
216.59496598639456	217.36122448979592	59	127
216.59496598639456	217.36122448979592	62	127
216.59496598639456	217.36122448979592	64	127
216.81555555555556	217.01292517006803	52	127
217.05936507936508	217.1174149659864	44	127
217.19868480725623	217.36122448979592	52	127
217.36122448979592	217.55859410430838	62	127
217.36122448979592	217.55859410430838	64	127
217.36122448979592	217.55859410430838	51	127
217.36122448979592	217.55859410430838	59	127
217.55859410430838	217.6863038548753	52	127
217.72113378684807	217.89528344671203	57	127
217.72113378684807	217.89528344671203	64	127
217.72113378684807	217.89528344671203	61	127
217.72113378684807	217.89528344671203	45	127
217.89528344671203	218.0926530612245	52	127
218.0926530612245	218.67315192743763	81	127
218.0926530612245	218.31324263038547	49	127
218.31324263038547	218.4990022675737	52	127
218.4990022675737	218.67315192743763	45	127
218.67315192743763	218.76603174603176	80	127
218.67315192743763	218.87052154195013	52	127
218.76603174603176	218.87052154195013	78	127
218.87052154195013	219.05628117913832	49	127
218.87052154195013	218.9750113378685	76	127
218.9750113378685	219.05628117913832	74	127
219.05628117913832	219.17238095238096	73	127
219.05628117913832	219.28848072562357	52	127
219.17238095238096	219.28848072562357	71	127
219.28848072562357	219.3813605442177	69	127
219.28848072562357	219.52068027210885	42	127
219.52068027210885	219.57873015873017	68	127
219.52068027210885	219.68321995464854	52	127
219.57873015873017	219.68321995464854	66	127
219.68321995464854	219.79931972789115	64	127
219.68321995464854	219.8457596371882	45	127
219.79931972789115	219.8457596371882	63	127
219.8457596371882	220.0663492063492	52	127
219.8457596371882	219.95024943310656	61	127
219.95024943310656	220.0663492063492	59	127
220.0663492063492	220.18244897959184	57	127
220.0663492063492	220.24049886621316	42	127
220.24049886621316	220.39142857142858	52	127
220.39142857142858	220.58879818594104	57	127
220.39142857142858	220.58879818594104	45	127
220.58879818594104	220.8209977324263	52	127
220.8209977324263	220.93709750566893	40	127
220.8209977324263	221.0415873015873	56	127
221.0415873015873	221.14607709750567	52	127
221.14607709750567	221.98199546485262	64	127
221.14607709750567	221.32022675736962	51	127
221.14607709750567	221.98199546485262	56	127
221.14607709750567	221.98199546485262	59	127
221.32022675736962	221.49437641723355	52	127
221.52920634920636	221.64530612244897	50	127
221.74979591836734	221.98199546485262	52	127
221.98199546485262	222.69020408163266	64	127
221.98199546485262	222.1445351473923	51	127
221.98199546485262	222.69020408163266	56	127
221.98199546485262	222.69020408163266	59	127
222.1445351473923	222.29546485260772	52	127
222.34190476190477	222.43478458049887	47	127
222.5160544217687	222.69020408163266	52	127
222.69020408163266	223.43324263038548	62	127
222.69020408163266	222.9224036281179	51	127
222.69020408163266	223.43324263038548	64	127
222.69020408163266	223.43324263038548	59	127
222.9224036281179	223.09655328798186	52	127
223.1429931972789	223.25909297052155	44	127
223.28231292517006	223.43324263038548	52	127
223.43324263038548	223.63061224489795	59	127
223.43324263038548	223.63061224489795	62	127
223.43324263038548	223.63061224489795	64	127
223.43324263038548	223.64222222222222	51	127
223.64222222222222	223.79315192743763	52	127
223.83959183673468	224.03696145124715	61	127
223.83959183673468	224.03696145124715	45	127
223.83959183673468	224.03696145124715	64	127
223.83959183673468	224.03696145124715	57	127
224.03696145124715	224.2459410430839	52	127
224.2459410430839	224.75678004535146	81	127
224.2459410430839	224.45492063492063	49	127
224.45492063492063	224.6522902494331	52	127
224.6522902494331	224.75678004535146	45	127
224.75678004535146	224.97736961451247	52	127
224.75678004535146	224.8728798185941	80	127
224.8728798185941	224.97736961451247	78	127
224.97736961451247	225.17473922902494	49	127
224.97736961451247	225.07024943310657	76	127
225.07024943310657	225.17473922902494	74	127
225.17473922902494	225.38371882086167	52	127
225.17473922902494	225.26761904761904	73	127
225.26761904761904	225.38371882086167	71	127
225.38371882086167	225.43015873015872	69	127
225.38371882086167	225.55786848072563	42	127
225.55786848072563	225.79006802721088	52	127
225.55786848072563	225.67396825396824	68	127
225.67396825396824	225.79006802721088	66	127
225.79006802721088	225.8481179138322	64	127
225.79006802721088	225.9409977324263	45	127
225.8481179138322	225.9409977324263	63	127
225.9409977324263	226.12675736961452	52	127
225.9409977324263	226.02226757369615	61	127
226.02226757369615	226.12675736961452	59	127
226.12675736961452	226.28929705215418	42	127
226.12675736961452	226.24285714285713	57	127
226.28929705215418	226.4750566893424	52	127
226.4750566893424	226.68403628117915	57	127
226.4750566893424	226.68403628117915	45	127
226.68403628117915	226.89301587301588	52	127
226.89301587301588	227.1600453514739	56	127
226.89301587301588	227.1600453514739	40	127
227.90308390022676	228.00757369614513	52	127
227.90308390022676	228.00757369614513	40	127
228.00757369614513	228.0424036281179	54	127
228.00757369614513	228.0424036281179	42	127
228.0424036281179	228.0772335600907	56	127
228.0424036281179	228.0772335600907	44	127
228.0772335600907	228.15850340136055	57	127
228.0772335600907	228.15850340136055	45	127
228.15850340136055	228.2746031746032	59	127
228.15850340136055	228.2746031746032	47	127
228.2746031746032	228.36748299319729	61	127
228.2746031746032	228.36748299319729	49	127
228.36748299319729	228.47197278911565	63	127
228.36748299319729	228.47197278911565	51	127
228.47197278911565	228.56485260770975	64	127
228.47197278911565	228.56485260770975	52	127
228.69256235827663	228.7738321995465	54	127
228.69256235827663	228.7738321995465	66	127
228.7738321995465	228.87832199546486	68	127
228.7738321995465	228.87832199546486	56	127
228.87832199546486	228.9247619047619	57	127
228.87832199546486	228.9247619047619	69	127
228.9247619047619	229.02925170068028	59	127
228.9247619047619	229.02925170068028	71	127
229.02925170068028	229.14535147392291	73	127
229.02925170068028	229.14535147392291	61	127
229.14535147392291	229.238231292517	75	127
229.14535147392291	229.238231292517	63	127
229.238231292517	229.30789115646257	76	127
229.238231292517	229.30789115646257	64	127
229.458820861678	229.57492063492063	78	127
229.458820861678	229.57492063492063	66	127
229.57492063492063	229.69102040816327	80	127
229.57492063492063	229.69102040816327	68	127
229.69102040816327	229.81873015873015	69	127
229.69102040816327	229.81873015873015	81	127
229.81873015873015	229.93482993197279	83	127
229.81873015873015	229.93482993197279	71	127
229.93482993197279	230.05092970521542	85	127
229.93482993197279	230.05092970521542	73	127
230.05092970521542	230.16702947845806	87	127
230.05092970521542	230.16702947845806	75	127
230.16702947845806	230.37600907029477	76	127
230.16702947845806	230.782358276644	88	127
230.85201814058956	230.9681179138322	85	127
230.9681179138322	231.20031746031745	88	127
231.20031746031745	231.444126984127	86	127
231.444126984127	231.6298866213152	85	127
231.6298866213152	231.80403628117915	83	127
231.8504761904762	232.07106575963718	86	127
232.07106575963718	232.2568253968254	85	127
232.2568253968254	232.38453514739228	83	127
232.38453514739228	232.58190476190475	81	127
232.61673469387756	232.77927437641722	85	127
232.77927437641722	232.95342403628118	83	127
232.95342403628118	233.15079365079364	81	127
233.15079365079364	233.3249433106576	80	127
233.37138321995465	233.5803628117914	83	127
233.5803628117914	233.75451247165532	81	127
233.75451247165532	234.12603174603174	73	127
233.75451247165532	233.96349206349205	80	127
233.96349206349205	234.12603174603174	78	127
234.12603174603174	234.34662131519275	77	127
234.12603174603174	234.5556009070295	74	127
234.34662131519275	234.5556009070295	78	127
234.5556009070295	234.799410430839	80	127
234.5556009070295	234.99678004535147	70	127
234.799410430839	234.95034013605442	78	127
234.99678004535147	235.37990929705217	71	127
234.99678004535147	235.9604081632653	76	127
235.9604081632653	236.3667573696145	74	127
237.22589569160996	238.34045351473924	59	127
237.22589569160996	238.34045351473924	54	127
237.22589569160996	238.34045351473924	62	127
237.22589569160996	238.34045351473924	66	127
237.22589569160996	238.34045351473924	38	127
237.22589569160996	238.34045351473924	42	127
237.22589569160996	238.34045351473924	47	127
237.22589569160996	238.34045351473924	50	127
241.2081179138322	241.41709750566892	52	127
241.2081179138322	241.41709750566892	56	127
241.2081179138322	241.41709750566892	62	127
241.2081179138322	241.41709750566892	40	127
241.5796371882086	241.73056689342403	52	127
241.5796371882086	241.73056689342403	56	127
241.5796371882086	241.73056689342403	62	127
241.5796371882086	241.73056689342403	40	127
241.92793650793652	242.10208616780045	56	127
241.92793650793652	242.10208616780045	62	127
241.92793650793652	242.10208616780045	52	127
241.92793650793652	242.10208616780045	40	127
242.35750566893424	243.55333333333334	52	127
242.35750566893424	243.18181405895692	56	127
242.35750566893424	243.18181405895692	62	127
242.35750566893424	243.55333333333334	33	127
242.35750566893424	243.55333333333334	45	127
243.18181405895692	243.55333333333334	61	127
243.18181405895692	243.55333333333334	57	127
243.64621315192744	243.77392290249432	76	127
243.77392290249432	243.89002267573696	81	127
243.89002267573696	243.99451247165533	85	127
244.01773242630387	244.5053514739229	88	127
244.5053514739229	244.71433106575964	85	127
244.71433106575964	244.86526077097506	88	127
244.86526077097506	245.01619047619047	86	127
245.01619047619047	245.1671201814059	85	127
245.1671201814059	245.32965986394558	83	127
245.32965986394558	245.480589569161	82	127
245.480589569161	245.61990929705215	83	127
245.61990929705215	245.78244897959183	86	127
245.78244897959183	245.91015873015874	85	127
245.91015873015874	246.03786848072562	83	127
246.03786848072562	246.16557823129253	81	127
246.16557823129253	246.25845804988663	80	127
246.25845804988663	246.362947845805	81	127
246.362947845805	246.50226757369614	85	127
246.50226757369614	246.62997732426305	83	127
246.62997732426305	246.78090702947847	81	127
246.78090702947847	246.88539682539684	80	127
246.88539682539684	246.98988662131518	79	127
246.98988662131518	247.14081632653063	80	127
247.14081632653063	247.23369614512472	83	127
247.23369614512472	247.3381859410431	81	127
247.3381859410431	247.4891156462585	80	127
247.4891156462585	247.5819954648526	78	127
247.59360544217688	247.7445351473923	76	127
247.7445351473923	247.88385487528345	80	127
247.88385487528345	247.98834467120182	78	127
247.98834467120182	248.0580045351474	76	127
248.0580045351474	248.16249433106577	80	127
248.16249433106577	248.29020408163265	78	127
248.29020408163265	248.44113378684807	76	127
248.44113378684807	248.58045351473922	80	127
248.58045351473922	248.69655328798186	78	127
248.73138321995464	249.57891156462586	76	127
249.57891156462586	249.938820861678	74	127
250.7631292517007	251.1694784580499	71	127
250.7631292517007	251.1694784580499	59	127
251.1694784580499	251.30879818594104	68	127
251.1694784580499	251.30879818594104	56	127
251.58743764172337	251.91251700680272	57	127
251.58743764172337	251.91251700680272	69	127
251.91251700680272	252.08666666666667	66	127
251.91251700680272	252.08666666666667	54	127
252.30725623582765	252.71360544217688	68	127
252.30725623582765	252.71360544217688	56	127
252.71360544217688	252.87614512471654	65	127
252.71360544217688	252.87614512471654	53	127
253.13156462585033	253.5263038548753	66	127
253.13156462585033	253.5263038548753	54	127
253.5263038548753	253.63079365079366	62	127
253.5263038548753	253.63079365079366	50	127
254.2461224489796	254.4551020408163	64	127
254.2461224489796	254.4551020408163	52	127
255.0007709750567	255.17492063492062	57	127
255.0007709750567	255.17492063492062	69	127
255.17492063492062	255.32585034013604	61	127
255.17492063492062	255.32585034013604	73	127
255.32585034013604	255.48839002267573	76	127
255.32585034013604	255.48839002267573	64	127
255.48839002267573	255.6277097505669	56	127
255.48839002267573	255.6277097505669	68	127
255.6277097505669	255.7554195011338	61	127
255.6277097505669	255.7554195011338	73	127
255.7554195011338	255.89473922902494	76	127
255.7554195011338	255.89473922902494	64	127
255.89473922902494	255.9992290249433	69	127
255.89473922902494	255.9992290249433	57	127
255.9992290249433	256.11532879818594	73	127
255.9992290249433	256.11532879818594	61	127
256.11532879818594	256.24303854875285	76	127
256.24303854875285	256.37072562358276	52	127
256.37072562358276	256.48684807256234	73	127
256.37072562358276	256.48684807256234	61	127
256.48684807256234	256.602947845805	76	127
256.48684807256234	256.602947845805	64	127
256.602947845805	256.6958276643991	67	127
256.602947845805	256.6958276643991	55	127
256.6958276643991	256.8467573696145	73	127
256.6958276643991	256.8467573696145	61	127
256.8467573696145	256.9512471655329	76	127
256.8467573696145	256.9512471655329	64	127
256.9512471655329	257.09054421768707	66	127
256.9512471655329	257.09054421768707	54	127
257.09054421768707	257.2298866213152	73	127
257.09054421768707	257.2298866213152	61	127
257.2298866213152	257.3575963718821	76	127
257.2298866213152	257.3575963718821	64	127
257.3575963718821	257.46208616780046	67	127
257.3575963718821	257.46208616780046	55	127
257.46208616780046	257.61301587301585	61	127
257.46208616780046	257.61301587301585	73	127
257.61301587301585	257.75233560090703	76	127
257.75233560090703	257.88004535147394	52	127
257.88004535147394	258.03097505668933	73	127
257.88004535147394	258.03097505668933	61	127
258.03097505668933	258.14707482993197	64	127
258.03097505668933	258.14707482993197	76	127
258.1702947845805	258.33283446712016	66	127
258.1702947845805	258.33283446712016	54	127
258.33283446712016	258.4489342403628	57	127
258.33283446712016	258.4489342403628	69	127
258.4489342403628	258.588253968254	74	127
258.4489342403628	258.588253968254	62	127
258.588253968254	258.7043537414966	65	127
258.588253968254	258.7043537414966	53	127
258.7043537414966	258.8668934240363	57	127
258.7043537414966	258.8668934240363	69	127
258.8668934240363	258.97138321995465	74	127
258.8668934240363	258.97138321995465	62	127
258.97138321995465	259.1223129251701	66	127
258.97138321995465	259.1223129251701	54	127
259.1223129251701	259.25002267573694	69	127
259.1223129251701	259.25002267573694	57	127
259.25002267573694	259.41256235827666	74	127
259.41256235827666	259.5286621315193	50	127
259.5286621315193	259.6679818594104	69	127
259.5286621315193	259.6679818594104	57	127
259.6679818594104	259.7724716553288	62	127
259.6679818594104	259.7724716553288	74	127
259.7724716553288	259.9350113378685	64	127
259.7724716553288	259.9350113378685	52	127
259.9350113378685	260.06272108843535	67	127
259.9350113378685	260.06272108843535	55	127
260.06272108843535	260.1555782312925	57	127
260.06272108843535	260.1555782312925	69	127
260.1555782312925	260.2717006802721	63	127
260.1555782312925	260.2717006802721	51	127
260.2717006802721	260.399410430839	55	127
260.2717006802721	260.399410430839	67	127
260.399410430839	260.5387301587302	69	127
260.399410430839	260.5387301587302	57	127
260.5387301587302	260.6780498866213	64	127
260.5387301587302	260.6780498866213	52	127
260.6780498866213	260.8057596371882	67	127
260.6780498866213	260.8057596371882	55	127
260.8057596371882	260.9682993197279	69	127
260.8057596371882	260.9682993197279	57	127
260.9682993197279	261.1308390022676	49	127
260.9682993197279	261.1308390022676	61	127
261.1308390022676	261.281746031746	55	127
261.1308390022676	261.281746031746	67	127
261.281746031746	261.4094784580499	69	127
261.281746031746	261.4094784580499	57	127
261.4326984126984	261.51396825396824	62	127
261.4326984126984	261.51396825396824	50	127
261.51396825396824	261.64167800453515	66	127
261.51396825396824	261.64167800453515	54	127
261.64167800453515	261.78099773242633	69	127
261.64167800453515	261.78099773242633	57	127
261.78099773242633	261.9087074829932	61	127
261.78099773242633	261.9087074829932	49	127
261.9087074829932	262.0596371882086	66	127
261.9087074829932	262.0596371882086	54	127
262.0596371882086	262.18734693877553	69	127
262.0596371882086	262.18734693877553	57	127
262.18734693877553	262.32666666666665	50	127
262.18734693877553	262.32666666666665	62	127
262.32666666666665	262.45437641723356	66	127
262.32666666666665	262.45437641723356	54	127
262.45437641723356	262.605306122449	69	127
262.605306122449	262.73301587301586	45	127
262.73301587301586	262.8839455782313	66	127
262.73301587301586	262.8839455782313	54	127
262.8839455782313	262.9768253968254	69	127
262.8839455782313	262.9768253968254	57	127
263.0116553287982	263.1625850340136	61	127
263.0116553287982	263.1625850340136	49	127
263.1625850340136	263.33673469387753	64	127
263.1625850340136	263.33673469387753	52	127
263.33673469387753	263.4412244897959	69	127
263.33673469387753	263.4412244897959	57	127
263.4412244897959	263.59215419501135	60	127
263.4412244897959	263.59215419501135	48	127
263.59215419501135	263.7430612244898	64	127
263.59215419501135	263.7430612244898	52	127
263.7430612244898	263.81274376417235	57	127
263.7430612244898	263.81274376417235	69	127
263.81274376417235	263.94043083900226	61	127
263.81274376417235	263.94043083900226	49	127
263.94043083900226	264.0797732426304	64	127
263.94043083900226	264.0797732426304	52	127
264.0797732426304	264.2422902494331	69	127
264.2422902494331	264.3816326530612	45	127
264.3816326530612	264.49773242630386	64	127
264.3816326530612	264.49773242630386	52	127
264.49773242630386	264.62544217687076	69	127
264.49773242630386	264.62544217687076	57	127
264.62544217687076	264.77637188208615	59	127
264.62544217687076	264.77637188208615	47	127
264.77637188208615	264.86925170068025	62	127
264.77637188208615	264.86925170068025	50	127
264.86925170068025	264.9737414965986	64	127
264.86925170068025	264.9737414965986	52	127
264.9737414965986	265.12467120181407	58	127
264.9737414965986	265.12467120181407	46	127
265.12467120181407	265.2407709750567	62	127
265.12467120181407	265.2407709750567	50	127
265.2407709750567	265.3917006802721	64	127
265.2407709750567	265.3917006802721	52	127
265.3917006802721	265.49619047619046	47	127
265.3917006802721	265.49619047619046	59	127
265.49619047619046	265.6122902494331	62	127
265.49619047619046	265.6122902494331	50	127
265.6122902494331	265.74	52	127
265.6122902494331	265.74	64	127
265.74	265.8792970521542	44	127
265.74	265.8792970521542	56	127
265.8792970521542	266.0302494331066	50	127
265.8792970521542	266.00702947845804	62	127
266.0302494331066	266.1115192743764	64	127
266.0302494331066	266.1579591836735	52	127
266.1115192743764	266.1927664399093	64	127
266.1927664399093	267.26090702947846	76	127
266.1927664399093	266.29725623582766	45	127
266.29725623582766	266.44820861678005	49	127
266.44820861678005	266.57591836734696	52	127
266.57591836734696	266.72684807256235	44	127
266.72684807256235	266.842947845805	49	127
266.842947845805	266.9358276643991	52	127
266.9358276643991	267.063537414966	45	127
267.063537414966	267.20285714285717	49	127
267.20285714285717	267.330566893424	52	127
267.330566893424	267.48149659863947	40	127
267.330566893424	267.44666666666666	74	127
267.44666666666666	267.57437641723357	73	127
267.48149659863947	267.6556462585034	49	127
267.57437641723357	267.7020861678005	71	127
267.6556462585034	267.8181859410431	52	127
267.7020861678005	267.8181859410431	69	127
267.8181859410431	267.95750566893423	47	127
267.8181859410431	267.98072562358277	64	127
267.95750566893423	268.0968253968254	50	127
268.0968253968254	268.2361224489796	52	127
268.2361224489796	268.3754648526077	46	127
268.3754648526077	268.4683446712018	50	127
268.4683446712018	268.58444444444444	52	127
268.58444444444444	268.7353741496599	47	127
268.7353741496599	268.8863038548753	50	127
268.8863038548753	269.0024036281179	52	127
269.0024036281179	269.15331065759636	44	127
269.15331065759636	269.26943310657595	50	127
269.26943310657595	269.4087528344671	52	127
269.30426303854875	269.4087528344671	76	127
269.4087528344671	269.55965986394557	45	127
269.4087528344671	270.56975056689345	88	127
269.55965986394557	269.6990022675737	48	127
269.6990022675737	269.7918820861678	52	127
269.7918820861678	269.93120181405897	44	127
269.93120181405897	270.03569160997733	48	127
270.03569160997733	270.16340136054424	52	127
270.16340136054424	270.31433106575963	45	127
270.31433106575963	270.44204081632654	48	127
270.44204081632654	270.56975056689345	52	127
270.56975056689345	270.6742403628118	86	127
270.56975056689345	270.70907029478457	40	127
270.6742403628118	270.7671201814059	84	127
270.70907029478457	270.8367800453515	48	127
270.7671201814059	270.88321995464855	83	127
270.8367800453515	270.9877097505669	52	127
270.88321995464855	270.9877097505669	81	127
270.9877097505669	271.1386394557823	82	127
270.9877097505669	271.1154195011338	43	127
271.1154195011338	271.2315192743764	46	127
271.2315192743764	271.3592290249433	48	127
271.3592290249433	271.51013605442176	42	127
271.51013605442176	271.66108843537415	46	127
271.66108843537415	271.80040816326533	48	127
271.80040816326533	271.88167800453516	43	127
271.88167800453516	272.00938775510207	46	127
272.00938775510207	272.11385487528344	48	127
272.11385487528344	272.2415873015873	40	127
272.2415873015873	272.39251700680273	46	127
272.39251700680273	272.5550566893424	48	127
272.43895691609976	272.5550566893424	72	127
272.5550566893424	273.66961451247164	84	127
272.5550566893424	272.69437641723357	41	127
272.69437641723357	272.84530612244896	45	127
272.84530612244896	272.94979591836733	48	127
272.94979591836733	273.11233560090704	40	127
273.11233560090704	273.20521541950114	45	127
273.20521541950114	273.3445124716553	48	127
273.3445124716553	273.48385487528344	41	127
273.48385487528344	273.6231746031746	45	127
273.6231746031746	273.66961451247164	48	127
273.66961451247164	273.77410430839	82	127
273.66961451247164	273.79732426303855	33	127
273.77410430839	273.8785941043084	81	127
273.79732426303855	273.948253968254	45	127
273.8785941043084	273.98308390022675	79	127
273.948253968254	274.0991836734694	48	127
273.98308390022675	274.0991836734694	77	127
274.0991836734694	274.2268934240363	43	127
274.0991836734694	274.25011337868483	72	127
274.2268934240363	274.36619047619047	46	127
274.29655328798185	274.4939229024943	84	127
274.36619047619047	274.4939229024943	48	127
274.4939229024943	274.7261224489796	84	127
274.4939229024943	274.64485260770977	42	127
274.64485260770977	274.7609523809524	46	127
274.7261224489796	274.88866213151925	84	127
274.7609523809524	274.88866213151925	48	127
274.88866213151925	275.05120181405897	43	127
274.88866213151925	275.12086167800453	84	127
275.05120181405897	275.19049886621315	46	127
275.12086167800453	275.34145124716554	84	127
275.19049886621315	275.34145124716554	48	127
275.34145124716554	275.492358276644	40	127
275.34145124716554	275.5736507936508	84	127
275.492358276644	275.65492063492064	46	127
275.5736507936508	275.84068027210884	84	127
275.65492063492064	275.7942176870748	48	127
275.84068027210884	276.18897959183676	48	127
275.84068027210884	275.93356009070294	84	127
275.84068027210884	276.18897959183676	41	127
275.84068027210884	276.18897959183676	45	127
275.84068027210884	276.18897959183676	53	127
276.00319727891156	276.0844897959184	84	127
276.18897959183676	276.28185941043085	82	127
276.3863492063492	276.46761904761905	81	127
276.5837188208617	276.96684807256236	79	127
276.96684807256236	277.29192743764173	77	127
276.96684807256236	277.38480725623583	53	127
277.38480725623583	277.55895691609976	46	127
277.59378684807257	277.64020408163265	77	127
277.7214965986395	277.8027664399093	76	127
277.91886621315194	278.0349659863946	74	127
278.1510430839002	278.54580498866216	72	127
278.54580498866216	278.89410430839	70	127
278.54580498866216	278.9869841269841	46	127
278.9869841269841	279.1263038548753	48	127
279.1495238095238	279.2540136054422	70	127
279.37011337868483	279.4861904761905	69	127
279.60231292517005	279.67197278911567	67	127
279.7880498866213	280.1247619047619	65	127
280.1247619047619	280.46145124716554	64	127
280.1247619047619	280.55433106575964	46	127
280.55433106575964	280.658820861678	65	127
280.55433106575964	280.72848072562357	45	127
280.7865306122449	280.8910204081633	69	127
281.0071201814059	281.1	62	127
281.0071201814059	281.1580498866213	46	127
281.1580498866213	281.2509297052154	67	127
281.3786394557823	281.49473922902496	60	127
281.3786394557823	281.5643990929705	48	127
281.5643990929705	281.6572789115646	65	127
281.761768707483	281.86625850340135	58	127
281.761768707483	281.982358276644	48	127
281.982358276644	282.0752380952381	64	127
282.19133786848073	282.41192743764174	57	127
282.19133786848073	282.41192743764174	41	127
283.41038548752834	283.85156462585036	57	127
283.41038548752834	283.85156462585036	53	127
283.85156462585036	284.0605442176871	65	127
283.85156462585036	284.0605442176871	50	127
285.0241723356009	285.45374149659864	65	127
285.0241723356009	285.45374149659864	50	127
285.45374149659864	285.62789115646257	62	127
285.45374149659864	285.62789115646257	47	127
286.6495691609977	287.12557823129254	59	127
286.6495691609977	287.12557823129254	62	127
287.12557823129254	287.543537414966	59	127
287.12557823129254	287.543537414966	62	127
287.3345578231293	287.43904761904764	74	127
287.543537414966	287.61319727891157	72	127
287.65961451247165	287.7292970521542	71	127
287.8570068027211	288.2981859410431	69	127
288.2981859410431	288.75097505668936	59	127
288.2981859410431	288.65809523809526	68	127
288.2981859410431	288.75097505668936	62	127
288.75097505668936	289.0992743764172	59	127
288.75097505668936	289.0992743764172	62	127
288.9599546485261	289.0992743764172	74	127
289.0992743764172	289.2734240362812	73	127
289.2734240362812	289.48240362811794	71	127
289.48240362811794	289.70297052154194	69	127
289.70297052154194	289.9119501133787	68	127
289.9119501133787	290.3299319727891	50	127
289.9119501133787	290.3299319727891	56	127
289.9119501133787	290.10931972789115	78	127
289.9119501133787	290.3299319727891	47	127
290.10931972789115	290.2834920634921	76	127
290.3299319727891	290.51569160997735	52	127
290.3299319727891	290.51569160997735	49	127
290.3299319727891	290.51569160997735	58	127
290.5505215419501	290.7478911564626	76	127
290.7478911564626	290.9568707482993	74	127
290.9568707482993	291.119410430839	73	127
291.119410430839	291.29356009070295	71	127
291.29356009070295	291.47931972789115	70	127
291.47931972789115	291.9437188208617	52	127
291.47931972789115	291.7115192743764	79	127
291.47931972789115	291.9437188208617	49	127
291.47931972789115	291.9437188208617	58	127
291.7115192743764	291.8972789115646	78	127
291.9437188208617	292.11786848072563	50	127
291.9437188208617	292.11786848072563	54	127
291.9437188208617	292.11786848072563	59	127
292.1642857142857	292.3732879818594	78	127
292.3732879818594	292.5474376417234	76	127
292.5474376417234	292.74480725623584	74	127
292.74480725623584	292.9189569160998	73	127
292.9189569160998	293.11632653061224	71	127
293.11632653061224	293.325306122449	82	127
293.325306122449	293.4762358276644	83	127
293.52267573696145	293.7316553287982	77	127
293.7316553287982	293.9174149659864	78	127
293.9174149659864	294.14961451247166	85	127
294.14961451247166	294.3237641723356	86	127
294.3237641723356	294.5443537414966	82	127
294.5443537414966	294.74172335600906	83	127
294.74172335600906	294.9855328798186	86	127
294.9855328798186	295.15968253968254	83	127
295.2061224489796	295.28739229024944	85	127
295.2061224489796	295.41510204081635	64	127
295.28739229024944	295.3338095238095	83	127
295.3338095238095	295.41510204081635	85	127
295.41510204081635	295.4963718820862	83	127
295.41510204081635	295.6705215419501	68	127
295.4963718820862	295.577641723356	85	127
295.577641723356	295.6705215419501	83	127
295.6705215419501	295.72857142857146	85	127
295.6705215419501	295.8562811791383	71	127
295.72857142857146	295.798231292517	83	127
295.798231292517	295.8562811791383	85	127
295.8562811791383	296.0304308390023	69	127
295.8562811791383	295.9259410430839	83	127
295.9259410430839	295.9607709750567	85	127
295.9607709750567	296.0304308390023	83	127
296.0304308390023	296.2161904761905	68	127
296.0304308390023	296.1117006802721	85	127
296.1117006802721	296.1697505668934	83	127
296.1697505668934	296.2161904761905	85	127
296.2161904761905	296.4251700680272	66	127
296.2161904761905	296.28585034013605	83	127
296.28585034013605	296.3671201814059	85	127
296.3671201814059	296.4251700680272	83	127
296.4251700680272	296.4948299319728	85	127
296.4251700680272	296.59931972789116	64	127
296.4948299319728	296.54126984126987	83	127
296.54126984126987	296.59931972789116	85	127
296.59931972789116	296.6573469387755	83	127
296.59931972789116	296.7966893424036	63	127
296.6573469387755	296.7154195011338	85	127
296.7154195011338	296.7966893424036	83	127
296.7966893424036	296.9824489795918	64	127
296.7966893424036	296.83151927437643	85	127
296.83151927437643	296.91278911564626	83	127
296.91278911564626	296.9824489795918	85	127
296.9824489795918	297.00566893424036	83	127
296.9824489795918	297.121768707483	71	127
297.00566893424036	297.05210884353744	85	127
297.05210884353744	297.121768707483	83	127
297.121768707483	297.20303854875283	85	127
297.121768707483	297.342358276644	74	127
297.20303854875283	297.2610884353742	83	127
297.2610884353742	297.342358276644	85	127
297.342358276644	297.50489795918367	73	127
297.342358276644	297.3771655328798	83	127
297.3771655328798	297.4468480725624	85	127
297.4468480725624	297.50489795918367	83	127
297.50489795918367	297.7138775510204	71	127
297.50489795918367	297.5861678004535	85	127
297.5861678004535	297.6326077097506	83	127
297.6326077097506	297.7138775510204	85	127
297.7138775510204	297.783514739229	83	127
297.7138775510204	297.91124716553287	69	127
297.783514739229	297.8415873015873	85	127
297.8415873015873	297.91124716553287	83	127
297.91124716553287	298.10861678004534	68	127
297.91124716553287	297.9925170068027	85	127
297.9925170068027	298.05056689342405	83	127
298.05056689342405	298.10861678004534	85	127
298.10861678004534	298.1550566893424	83	127
298.10861678004534	298.2479365079365	66	127
298.1550566893424	298.224716553288	85	127
298.224716553288	298.2943537414966	83	127
298.2943537414966	298.4801360544218	64	127
298.2943537414966	298.3524263038549	85	127
298.3524263038549	298.4336961451247	83	127
298.4336961451247	298.4801360544218	85	127
298.4801360544218	298.54979591836735	83	127
298.4801360544218	298.64267573696145	63	127
298.54979591836735	298.60784580498864	85	127
298.60784580498864	298.66589569161	83	127
298.66589569161	298.7239455782313	85	127
298.66589569161	298.7587755102041	62	127
298.7239455782313	298.7936054421769	83	127
298.7936054421769	298.86326530612246	85	127
298.86326530612246	298.932925170068	83	127
298.86326530612246	298.9677551020408	61	127
298.932925170068	299.00256235827663	85	127
299.00256235827663	299.0722448979592	83	127
299.0722448979592	299.14190476190475	85	127
299.0722448979592	299.17673469387756	59	127
299.14190476190475	299.18834467120183	83	127
299.18834467120183	299.2463945578231	85	127
299.2463945578231	299.3392743764172	83	127
299.2463945578231	299.37410430839003	57	127
299.3392743764172	299.40893424036284	85	127
299.40893424036284	299.4437641723356	83	127
299.4437641723356	299.5134013605442	85	127
299.4437641723356	299.5134013605442	56	127
299.5134013605442	299.54825396825396	83	127
299.54825396825396	299.59469387755104	85	127
299.59469387755104	299.6643537414966	83	127
299.59469387755104	299.7107936507937	54	127
299.6643537414966	299.7456235827664	85	127
299.7456235827664	299.8268707482993	83	127
299.8268707482993	299.9197732426304	52	127
299.8268707482993	299.8965532879819	85	127
299.8965532879819	299.9429931972789	83	127
299.9429931972789	300.0242403628118	85	127
300.0242403628118	300.09392290249434	83	127
300.0242403628118	300.14036281179136	50	127
300.09392290249434	300.17519274376417	85	127
300.17519274376417	300.256462585034	83	127
300.256462585034	300.2912925170068	85	127
300.256462585034	300.3029024943311	49	127
300.2912925170068	300.3493424036281	83	127
300.3493424036281	300.36095238095237	85	127
300.36095238095237	300.430612244898	83	127
300.36095238095237	300.45383219954647	47	127
300.430612244898	300.50027210884355	85	127
300.50027210884355	300.5699319727891	83	127
300.5699319727891	300.6395691609977	85	127
300.5699319727891	300.6628117913832	45	127
300.6395691609977	300.7092517006803	83	127
300.7092517006803	300.77891156462584	85	127
300.77891156462584	300.81374149659865	83	127
300.77891156462584	300.8601814058957	44	127
300.81374149659865	300.8950113378685	85	127
300.8950113378685	300.9762811791383	83	127
300.9762811791383	301.04594104308393	85	127
300.9762811791383	301.09238095238095	42	127
301.04594104308393	301.12721088435376	83	127
301.12721088435376	301.1968707482993	85	127
301.1968707482993	301.2665306122449	83	127
301.1968707482993	301.31297052154196	40	127
301.2665306122449	301.34780045351476	81	127
301.34780045351476	301.4174603174603	83	127
301.44068027210886	302.03278911564627	45	127
301.44068027210886	302.03278911564627	69	127
301.44068027210886	302.03278911564627	81	127
301.44068027210886	302.03278911564627	33	127
302.1488888888889	302.8454875283447	49	127
302.1488888888889	302.8454875283447	57	127
302.1488888888889	302.8454875283447	64	127
302.1488888888889	302.8454875283447	69	127
302.1488888888889	302.8454875283447	37	127
302.1488888888889	302.8454875283447	45	127
302.9963945578231	303.66979591836736	66	127
302.9963945578231	303.66979591836736	50	127
302.9963945578231	303.66979591836736	57	127
302.9963945578231	303.66979591836736	69	127
302.9963945578231	303.66979591836736	38	127
302.9963945578231	303.66979591836736	45	127
303.79750566893426	304.5173242630386	57	127
303.79750566893426	304.5173242630386	62	127
303.79750566893426	304.5173242630386	69	127
303.79750566893426	304.5173242630386	42	127
303.79750566893426	304.5173242630386	50	127
303.79750566893426	304.5173242630386	54	127
304.6450340136054	304.85401360544216	71	127
304.6450340136054	304.85401360544216	59	127
304.6450340136054	304.85401360544216	62	127
304.6450340136054	304.85401360544216	44	127
304.6450340136054	304.85401360544216	50	127
304.6450340136054	304.85401360544216	52	127
304.6450340136054	304.85401360544216	56	127
305.08621315192744	305.2951927437642	59	127
305.08621315192744	305.2951927437642	62	127
305.08621315192744	305.2951927437642	64	127
305.08621315192744	305.2951927437642	44	127
305.08621315192744	305.2951927437642	50	127
305.08621315192744	305.2951927437642	52	127
305.08621315192744	305.2951927437642	56	127
306.3865306122449	306.61873015873016	61	127
306.3865306122449	306.61873015873016	64	127
306.3865306122449	306.61873015873016	73	127
306.3865306122449	306.61873015873016	45	127
306.3865306122449	306.61873015873016	49	127
306.3865306122449	306.61873015873016	52	127
306.3865306122449	306.61873015873016	57	127
306.85092970521544	307.0831065759637	49	127
306.85092970521544	307.0831065759637	61	127
306.85092970521544	307.0831065759637	64	127
306.85092970521544	307.0831065759637	69	127
306.85092970521544	307.0831065759637	45	127
306.85092970521544	307.0831065759637	52	127
306.85092970521544	307.0831065759637	57	127
308.10478458049886	308.5227664399093	47	127
308.2092743764172	308.3137641723356	62	127
308.3137641723356	308.44149659863945	64	127
308.44149659863945	308.5227664399093	68	127
308.5227664399093	308.90589569161	74	127
308.61562358276643	308.7201133786848	59	127
308.7201133786848	308.8130158730159	58	127
308.8130158730159	308.90589569161	59	127
308.90589569161	309.34707482993196	49	127
309.02197278911564	309.1380952380952	64	127
309.1380952380952	309.2425850340136	69	127
309.2425850340136	309.34707482993196	64	127
309.34707482993196	309.7185941043084	76	127
309.4515646258503	309.5560544217687	61	127
309.5560544217687	309.6373015873016	60	127
309.6373015873016	309.7185941043084	61	127
309.7185941043084	310.15977324263037	50	127
309.83469387755105	309.9391836734694	66	127
309.9391836734694	310.06689342403627	69	127
310.06689342403627	310.15977324263037	66	127
310.15977324263037	310.496462585034	78	127
310.26426303854873	310.3803628117914	62	127
310.3803628117914	310.42680272108845	61	127
310.42680272108845	310.496462585034	62	127
310.496462585034	310.86795918367346	52	127
310.5660997732426	310.67061224489794	68	127
310.67061224489794	310.7751020408163	74	127
310.7751020408163	310.86795918367346	68	127
310.86795918367346	311.25111111111113	80	127
310.9956916099773	311.1234013605442	64	127
311.1234013605442	311.25111111111113	63	127
311.25111111111113	311.37879818594104	64	127
311.25111111111113	311.2859410430839	74	127
311.2859410430839	311.33238095238096	80	127
311.33238095238096	311.37879818594104	83	127
311.37879818594104	312.9577777777778	52	127
311.37879818594104	311.97092970521544	86	127
311.37879818594104	312.9577777777778	59	127
311.37879818594104	312.9577777777778	62	127
311.37879818594104	312.9577777777778	64	127
311.97092970521544	312.02897959183673	85	127
312.02897959183673	312.0870294784581	83	127
312.0870294784581	312.1682993197279	81	127
312.1682993197279	312.23795918367347	80	127
312.23795918367347	312.34244897959184	81	127
312.34244897959184	312.42371882086167	83	127
312.42371882086167	312.52820861678003	81	127
312.52820861678003	312.6443083900227	80	127
312.6443083900227	312.7720181405896	78	127
312.7720181405896	312.84167800453514	76	127
312.84167800453514	312.93455782312924	74	127
312.9577777777778	313.18997732426305	73	127
312.9577777777778	313.41056689342406	57	127
312.9577777777778	313.41056689342406	61	127
312.9577777777778	313.41056689342406	64	127
314.40902494331067	314.4554648526077	62	127
314.4554648526077	314.4902947845805	68	127
314.4902947845805	314.54832199546485	71	127
314.54832199546485	315.9995918367347	47	127
314.54832199546485	315.0243537414966	74	127
314.54832199546485	315.9995918367347	40	127
314.54832199546485	315.9995918367347	50	127
314.54832199546485	315.9995918367347	52	127
315.0243537414966	315.128843537415	73	127
315.128843537415	315.2565532879819	71	127
315.2565532879819	315.37265306122447	69	127
315.37265306122447	315.41909297052155	68	127
315.41909297052155	315.4887528344671	69	127
315.4887528344671	315.5584126984127	71	127
315.5584126984127	315.6280725623583	69	127
315.6280725623583	315.7093424036281	68	127
315.7093424036281	315.8138321995465	66	127
315.8138321995465	315.9067120181406	64	127
315.9067120181406	315.9995918367347	62	127
315.9995918367347	316.23179138321996	45	127
315.9995918367347	316.23179138321996	49	127
315.9995918367347	316.23179138321996	52	127
315.9995918367347	316.18532879818594	57	127
317.5785487528345	317.6133560090703	52	127
317.6133560090703	317.63659863945577	56	127
317.63659863945577	317.68303854875285	59	127
317.68303854875285	319.2968253968254	40	127
317.68303854875285	318.1938775510204	62	127
318.1938775510204	318.30997732426306	61	127
318.30997732426306	318.3912471655329	59	127
318.3912471655329	318.49573696145126	57	127
318.49573696145126	318.58861678004536	56	127
318.58861678004536	318.68149659863946	57	127
318.68149659863946	318.7859863945578	56	127
318.7859863945578	318.8904761904762	54	127
318.8904761904762	318.96013605442175	52	127
318.96013605442175	319.0762358276644	50	127
319.0762358276644	319.2039455782313	49	127
319.2039455782313	319.27360544217686	47	127
319.2968253968254	319.4361451247166	45	127
319.2968253968254	319.4361451247166	33	127
319.4361451247166	319.5522222222222	47	127
319.4361451247166	319.5522222222222	35	127
319.5522222222222	319.6451247165533	37	127
319.5522222222222	319.6451247165533	49	127
319.6451247165533	319.76120181405895	50	127
319.6451247165533	319.76120181405895	38	127
319.76120181405895	319.8656916099773	52	127
319.76120181405895	319.8656916099773	40	127
319.8656916099773	319.9353741496599	54	127
319.8656916099773	319.9353741496599	42	127
319.9353741496599	319.94698412698415	56	127
319.9353741496599	319.94698412698415	44	127
319.94698412698415	320.0630612244898	45	127
319.94698412698415	320.0630612244898	57	127
320.0630612244898	320.17918367346937	59	127
320.0630612244898	320.17918367346937	47	127
320.17918367346937	320.295283446712	49	127
320.17918367346937	320.295283446712	61	127
320.295283446712	320.35333333333335	62	127
320.295283446712	320.35333333333335	50	127
320.35333333333335	320.469433106576	64	127
320.35333333333335	320.469433106576	52	127
320.469433106576	320.58551020408163	66	127
320.469433106576	320.58551020408163	54	127
320.58551020408163	320.69002267573694	68	127
320.58551020408163	320.69002267573694	56	127
320.69002267573694	320.75968253968256	57	127
320.69002267573694	320.75968253968256	69	127
320.75968253968256	320.85256235827666	71	127
320.75968253968256	320.85256235827666	59	127
320.85256235827666	320.957052154195	73	127
320.85256235827666	320.957052154195	61	127
320.957052154195	321.03832199546486	62	127
320.957052154195	321.03832199546486	74	127
321.03832199546486	321.13120181405895	76	127
321.03832199546486	321.13120181405895	64	127
321.13120181405895	321.22408163265305	78	127
321.13120181405895	321.22408163265305	66	127
321.22408163265305	321.3401814058957	80	127
321.22408163265305	321.3401814058957	68	127
321.3401814058957	321.44467120181406	81	127
321.3401814058957	321.44467120181406	69	127
321.44467120181406	321.5607709750567	83	127
321.44467120181406	321.5607709750567	71	127
321.5607709750567	321.67687074829934	85	127
321.5607709750567	321.67687074829934	73	127
321.67687074829934	321.86263038548753	74	127
321.67687074829934	321.86263038548753	86	127
322.12965986394556	322.30380952380955	87	127
322.12965986394556	322.30380952380955	75	127
322.45473922902494	322.942358276644	88	127
322.45473922902494	322.942358276644	76	127
323.42997732426306	323.8827664399093	59	127
323.42997732426306	323.8827664399093	62	127
323.42997732426306	323.8827664399093	64	127
323.42997732426306	323.8827664399093	68	127
323.42997732426306	323.8827664399093	40	127
323.42997732426306	323.8827664399093	52	127
324.3355555555556	325.0205442176871	45	127
324.3355555555556	325.0205442176871	57	127
324.3355555555556	325.0205442176871	61	127
324.3355555555556	325.0205442176871	64	127
324.3355555555556	325.0205442176871	69	127
324.3355555555556	325.0205442176871	33	127
326.37891156462587	327.0871201814059	53	127
326.37891156462587	327.0871201814059	57	127
326.37891156462587	327.0871201814059	65	127
326.37891156462587	327.0871201814059	29	127
326.37891156462587	327.0871201814059	41	127
327.1916099773243	327.9462358276644	53	127
327.1916099773243	327.9462358276644	60	127
327.1916099773243	327.9462358276644	65	127
327.1916099773243	327.9462358276644	33	127
327.1916099773243	327.9462358276644	45	127
328.062358276644	328.9098866213152	53	127
328.062358276644	328.9098866213152	62	127
328.062358276644	328.9098866213152	65	127
328.062358276644	328.9098866213152	34	127
328.062358276644	328.9098866213152	46	127
329.01437641723356	329.74580498866214	53	127
329.01437641723356	329.74580498866214	58	127
329.01437641723356	329.74580498866214	65	127
329.01437641723356	329.74580498866214	38	127
329.01437641723356	329.74580498866214	50	127
329.8619047619048	330.09408163265306	55	127
329.8619047619048	330.09408163265306	58	127
329.8619047619048	330.09408163265306	64	127
329.8619047619048	330.09408163265306	36	127
329.8619047619048	330.09408163265306	48	127
330.3263038548753	330.535283446712	58	127
330.3263038548753	330.535283446712	64	127
330.3263038548753	330.535283446712	67	127
330.3263038548753	330.535283446712	70	127
330.3263038548753	330.535283446712	36	127
330.3263038548753	330.535283446712	48	127
331.6150113378685	331.83560090702946	67	127
331.6150113378685	331.83560090702946	70	127
331.6150113378685	331.83560090702946	76	127
331.6150113378685	331.83560090702946	48	127
331.6150113378685	331.83560090702946	60	127
332.10263038548754	332.38126984126984	60	127
332.10263038548754	332.38126984126984	70	127
332.10263038548754	332.38126984126984	76	127
332.10263038548754	332.38126984126984	79	127
332.10263038548754	332.38126984126984	82	127
332.10263038548754	332.38126984126984	48	127
334.3085260770975	334.5755555555556	53	127
334.3085260770975	334.5755555555556	41	127
334.5755555555556	334.7961224489796	57	127
334.5755555555556	334.7961224489796	45	127
334.7961224489796	334.9819047619048	60	127
334.7961224489796	334.9819047619048	48	127
334.9819047619048	335.21410430839	58	127
334.9819047619048	335.21410430839	46	127
335.21410430839	335.4114739229025	57	127
335.21410430839	335.4114739229025	45	127
335.4114739229025	335.6204535147392	43	127
335.4114739229025	335.6204535147392	55	127
335.6204535147392	335.80621315192747	41	127
335.6204535147392	335.80621315192747	53	127
335.80621315192747	336.0384126984127	40	127
335.80621315192747	336.0384126984127	52	127
336.0384126984127	336.2590022675737	53	127
336.0384126984127	336.2590022675737	41	127
336.2590022675737	336.4447619047619	57	127
336.2590022675737	336.4447619047619	45	127
336.4447619047619	336.6537414965986	60	127
336.4447619047619	336.6537414965986	48	127
336.6537414965986	336.86272108843536	58	127
336.6537414965986	336.86272108843536	46	127
336.86272108843536	337.04848072562356	45	127
336.86272108843536	337.04848072562356	57	127
337.04848072562356	337.2574603174603	43	127
337.04848072562356	337.2574603174603	55	127
337.2574603174603	337.42	53	127
337.2574603174603	337.42	41	127
337.42	337.6057596371882	40	127
337.42	337.6057596371882	52	127
337.6521768707483	337.8843990929705	41	127
337.6521768707483	338.081768707483	53	127
337.8843990929705	338.081768707483	45	127
338.081768707483	338.2443083900227	48	127
338.2443083900227	338.45328798185943	46	127
338.40684807256235	338.45328798185943	72	127
338.45328798185943	338.66226757369617	45	127
338.45328798185943	340.0554648526077	84	127
338.66226757369617	338.84802721088437	43	127
338.84802721088437	339.0570068027211	41	127
339.0570068027211	339.2543764172336	40	127
339.2543764172336	339.4749659863946	41	127
339.4749659863946	339.6607256235828	43	127
339.6607256235828	339.8813151927438	45	127
339.8813151927438	340.0554648526077	46	127
340.0554648526077	340.70562358276646	81	127
340.0554648526077	340.20637188208616	48	127
340.20637188208616	340.4153514739229	50	127
340.4153514739229	340.5895238095238	52	127
340.5895238095238	340.7520634920635	53	127
340.70562358276646	340.79850340136056	77	127
340.79850340136056	341.01909297052157	48	127
340.79850340136056	340.9610430839002	76	127
341.01909297052157	341.20485260770977	52	127
341.20485260770977	341.40222222222224	67	127
341.20485260770977	341.40222222222224	55	127
341.40222222222224	341.611201814059	53	127
341.40222222222224	341.611201814059	65	127
341.611201814059	341.79696145124717	52	127
341.611201814059	341.79696145124717	64	127
341.79696145124717	341.99433106575964	50	127
341.79696145124717	341.99433106575964	62	127
341.99433106575964	342.2033106575964	48	127
341.99433106575964	342.2033106575964	60	127
342.2033106575964	342.43551020408165	47	127
342.2033106575964	342.43551020408165	59	127
342.43551020408165	342.6096598639456	48	127
342.43551020408165	342.6096598639456	60	127
342.6096598639456	342.80702947845805	52	127
342.6096598639456	342.80702947845805	64	127
342.80702947845805	342.96954648526076	55	127
342.80702947845805	342.96954648526076	67	127
342.96954648526076	343.1785260770975	53	127
342.96954648526076	343.1785260770975	65	127
343.1785260770975	343.37589569160997	52	127
343.1785260770975	343.37589569160997	64	127
343.37589569160997	343.5965079365079	50	127
343.37589569160997	343.5965079365079	62	127
343.5965079365079	343.74743764172337	64	127
343.5965079365079	343.74743764172337	52	127
343.74743764172337	343.909977324263	60	127
343.74743764172337	343.909977324263	48	127
343.9564172335601	344.38598639455785	61	127
343.9564172335601	344.1770068027211	49	127
344.1770068027211	344.38598639455785	52	127
344.38598639455785	344.5949659863946	55	127
344.5949659863946	344.8155328798186	53	127
344.75750566893424	344.8155328798186	76	127
344.8155328798186	346.41773242630387	88	127
344.8155328798186	345.03614512471654	52	127
345.03614512471654	345.2102947845805	50	127
345.2102947845805	345.3960544217687	49	127
345.3960544217687	345.5818140589569	47	127
345.5818140589569	345.7675736961451	45	127
345.8140136054422	345.9881632653061	33	127
345.9881632653061	346.19714285714286	37	127
346.19714285714286	346.41773242630387	40	127
346.41773242630387	346.64990929705215	45	127
346.41773242630387	347.11433106575964	85	127
346.64990929705215	346.8124716553288	49	127
346.8124716553288	346.998231292517	52	127
346.998231292517	347.1607482993197	57	127
347.11433106575964	347.1956009070295	79	127
347.1956009070295	347.3465306122449	77	127
347.1956009070295	347.38136054421767	50	127
347.38136054421767	347.57873015873014	53	127
347.57873015873014	347.77607709750566	69	127
347.57873015873014	347.77607709750566	57	127
347.77607709750566	348.01990929705215	67	127
347.77607709750566	348.01990929705215	55	127
348.01990929705215	348.1940589569161	65	127
348.01990929705215	348.1940589569161	53	127
348.1940589569161	348.4146485260771	52	127
348.1940589569161	348.4146485260771	64	127
348.4146485260771	348.5307482993197	50	127
348.4146485260771	348.5307482993197	62	127
348.5307482993197	348.77455782312927	49	127
348.5307482993197	348.77455782312927	61	127
348.77455782312927	349.00673469387755	62	127
348.77455782312927	349.00673469387755	50	127
349.00673469387755	349.19251700680275	65	127
349.00673469387755	349.19251700680275	53	127
349.19251700680275	349.33183673469387	69	127
349.19251700680275	349.33183673469387	57	127
349.33183673469387	349.5524263038549	68	127
349.33183673469387	349.5524263038549	56	127
349.5524263038549	349.7614058956916	69	127
349.5524263038549	349.7614058956916	57	127
349.7614058956916	349.93555555555554	53	127
349.7614058956916	349.93555555555554	65	127
349.93555555555554	350.1445351473923	52	127
349.93555555555554	350.1445351473923	64	127
350.1445351473923	350.307074829932	62	127
350.1445351473923	350.307074829932	50	127
350.353514739229	350.5857142857143	51	127
350.353514739229	350.794693877551	63	127
350.5857142857143	350.794693877551	53	127
350.794693877551	350.9920634920635	55	127
350.9920634920635	351.20104308390023	53	127
351.14297052154194	351.20104308390023	77	127
351.20104308390023	351.42163265306124	51	127
351.20104308390023	352.7219501133787	89	127
351.42163265306124	351.630612244898	50	127
351.630612244898	351.78154195011336	48	127
351.78154195011336	351.897641723356	46	127
351.897641723356	352.118231292517	45	127
352.118231292517	352.32721088435375	46	127
352.32721088435375	352.4897505668934	48	127
352.4897505668934	352.7219501133787	46	127
352.7219501133787	353.3837188208617	87	127
352.7219501133787	352.8844671201814	45	127
352.8844671201814	353.08185941043087	41	127
353.08185941043087	353.2560090702948	43	127
353.2560090702948	353.45337868480726	45	127
353.3837188208617	353.49979591836734	84	127
353.49979591836734	353.662358276644	46	127
353.49979591836734	353.6275283446712	86	127
353.662358276644	353.882947845805	50	127
353.882947845805	354.103537414966	65	127
353.882947845805	354.103537414966	53	127
354.103537414966	354.2660770975057	63	127
354.103537414966	354.2660770975057	51	127
354.2660770975057	354.4750566893424	50	127
354.2660770975057	354.4750566893424	62	127
354.4750566893424	354.6956462585034	48	127
354.4750566893424	354.6956462585034	60	127
354.6956462585034	354.8814058956916	46	127
354.6956462585034	354.8814058956916	58	127
354.8814058956916	355.1136054421769	45	127
354.8814058956916	355.1136054421769	57	127
355.1136054421769	355.2877551020408	46	127
355.1136054421769	355.2877551020408	58	127
355.2877551020408	355.46190476190475	50	127
355.2877551020408	355.46190476190475	62	127
355.46190476190475	355.647641723356	55	127
355.46190476190475	355.647641723356	67	127
355.647641723356	355.84503401360547	62	127
355.647641723356	355.84503401360547	50	127
355.84503401360547	356.0772335600907	60	127
355.84503401360547	356.0772335600907	48	127
356.0772335600907	356.26297052154194	46	127
356.0772335600907	356.26297052154194	58	127
356.26297052154194	356.4255328798186	45	127
356.26297052154194	356.4255328798186	57	127
356.4255328798186	356.6112925170068	55	127
356.4255328798186	356.6112925170068	43	127
356.6461224489796	357.08730158730157	54	127
356.6461224489796	356.8667120181406	42	127
356.8667120181406	357.08730158730157	45	127
357.08730158730157	357.238231292517	48	127
357.238231292517	357.4704308390023	46	127
357.41238095238094	357.4704308390023	74	127
357.4704308390023	357.7026303854875	45	127
357.4704308390023	359.13065759637186	86	127
357.7026303854875	357.91160997732425	43	127
357.91160997732425	358.1438095238095	42	127
358.1438095238095	358.27151927437643	40	127
358.29473922902497	358.5036961451247	42	127
358.5036961451247	358.72430839002266	38	127
358.72430839002266	358.9100680272109	42	127
358.9100680272109	359.13065759637186	45	127
359.13065759637186	359.86208616780044	84	127
359.13065759637186	359.3396371882086	50	127
359.3396371882086	359.5369841269841	54	127
359.5369841269841	359.7575963718821	57	127
359.7575963718821	359.93174603174606	62	127
359.86208616780044	359.9781859410431	81	127
359.9781859410431	360.1407029478458	55	127
359.9781859410431	360.08267573696145	82	127
360.1407029478458	360.2568253968254	58	127
360.2568253968254	360.4658049886621	74	127
360.2568253968254	360.4658049886621	62	127
360.4658049886621	360.6399546485261	72	127
360.4658049886621	360.6399546485261	60	127
360.6399546485261	360.83732426303857	70	127
360.6399546485261	360.83732426303857	58	127
360.83732426303857	361.0463038548753	57	127
360.83732426303857	361.0463038548753	69	127
361.0463038548753	361.2668707482993	55	127
361.0463038548753	361.2668707482993	67	127
361.2668707482993	361.4178231292517	54	127
361.2668707482993	361.4178231292517	66	127
361.4178231292517	361.61519274376417	67	127
361.61519274376417	361.81256235827664	43	127
361.81256235827664	362.03315192743764	58	127
361.81256235827664	362.03315192743764	46	127
362.03315192743764	362.2305215419501	50	127
362.03315192743764	362.2305215419501	62	127
362.2305215419501	362.4278911564626	55	127
362.2305215419501	362.4278911564626	67	127
362.4278911564626	362.6484807256236	62	127
362.4278911564626	362.6484807256236	50	127
362.6484807256236	362.8574603174603	46	127
362.6484807256236	362.8574603174603	58	127
362.8574603174603	363.03160997732425	55	127
362.8574603174603	363.03160997732425	43	127
363.07804988662133	363.2638095238095	44	127
363.07804988662133	363.4263492063492	56	127
363.2638095238095	363.4263492063492	50	127
363.4263492063492	363.6353287981859	47	127
363.6353287981859	363.8210657596372	44	127
363.8210657596372	365.36519274376417	77	127
363.8210657596372	364.0532879818594	41	127
363.8210657596372	365.36519274376417	89	127
364.0532879818594	364.2738775510204	38	127
364.2738775510204	364.5060770975057	35	127
364.5060770975057	364.65700680272107	33	127
364.65700680272107	364.8775963718821	32	127
364.8775963718821	365.07496598639455	35	127
365.07496598639455	365.2607029478458	38	127
365.2607029478458	365.4697052154195	41	127
365.36519274376417	365.45807256235827	76	127
365.36519274376417	365.45807256235827	88	127
365.4697052154195	365.6902947845805	77	127
365.4697052154195	365.6902947845805	89	127
365.4697052154195	365.6902947845805	44	127
365.6902947845805	365.8992743764172	47	127
365.8992743764172	366.0734013605442	77	127
365.8992743764172	366.0734013605442	89	127
365.8992743764172	366.0734013605442	50	127
366.0734013605442	366.24757369614514	44	127
366.29401360544216	366.5378231292517	76	127
366.29401360544216	366.5378231292517	88	127
366.29401360544216	366.74680272108844	33	127
366.29401360544216	366.74680272108844	45	127
366.5378231292517	366.6423129251701	57	127
366.6423129251701	366.74680272108844	61	127
366.74680272108844	366.9441723356009	64	127
366.9790022675737	367.06027210884355	45	127
367.06027210884355	367.1647619047619	49	127
367.1647619047619	367.3273015873016	52	127
367.3621315192744	367.4434013605442	61	127
367.4434013605442	367.5478911564626	64	127
367.5478911564626	367.69882086167803	69	127
367.74526077097505	367.8613605442177	50	127
367.8613605442177	367.96585034013606	53	127
367.96585034013606	368.09356009070297	57	127
368.14	368.2212471655329	64	127
368.2212471655329	368.32573696145124	69	127
368.32573696145124	368.4882993197279	73	127
368.534716553288	368.6160090702948	53	127
368.6160090702948	368.73208616780045	57	127
368.73208616780045	368.87142857142857	62	127
368.91786848072564	368.9991383219955	69	127
368.9991383219955	369.10362811791384	73	127
369.10362811791384	369.28938775510204	76	127
369.3358276643991	369.45190476190476	57	127
369.45190476190476	369.5563945578231	62	127
369.5563945578231	369.6260770975057	64	127
369.6492743764172	369.7189569160998	73	127
369.7189569160998	369.78861678004534	76	127
369.78861678004534	369.97437641723354	81	127
370.0208163265306	370.13691609977326	61	127
370.13691609977326	370.28784580498865	64	127
370.28784580498865	370.4735827664399	69	127
370.5316553287982	370.63614512471656	76	127
370.63614512471656	370.7522448979592	81	127
370.7522448979592	370.92639455782313	85	127
370.9380045351474	370.9728344671202	64	127
370.9728344671202	371.05410430839004	69	127
371.05410430839004	371.14698412698414	73	127
371.18179138321995	371.2862811791383	81	127
371.2862811791383	371.3791836734694	85	127
371.3791836734694	371.5649433106576	88	127
371.61138321995463	371.6926303854875	69	127
371.6926303854875	371.7971201814059	73	127
371.7971201814059	371.9480725623583	76	127
371.99451247165536	372.08739229024945	81	127
372.08739229024945	372.157052154195	85	127
372.157052154195	372.2963718820862	88	127
372.5169387755102	372.9349206349206	45	127
372.5169387755102	372.9349206349206	33	127
372.73755102040815	372.83043083900225	57	127
372.83043083900225	372.9349206349206	62	127
372.9349206349206	373.09746031746033	65	127
373.14390022675735	373.26	45	127
373.26	373.37609977324263	50	127
373.37609977324263	373.5618594104308	53	127
373.58507936507937	373.68956916099773	62	127
373.68956916099773	373.78244897959183	65	127
373.78244897959183	373.9333786848073	69	127
373.94496598639455	374.0146485260771	50	127
374.0146485260771	374.13074829931975	53	127
374.13074829931975	374.28167800453514	57	127
374.3048979591837	374.40938775510205	65	127
374.40938775510205	374.5254875283447	69	127
374.5254875283447	374.66478458049886	74	127
374.7112471655329	374.81573696145125	53	127
374.81573696145125	374.9202267573696	57	127
374.9202267573696	375.0827664399093	62	127
375.12920634920636	375.245306122449	69	127
375.245306122449	375.36140589569163	74	127
375.36140589569163	375.53555555555556	77	127
375.58197278911564	375.686462585034	57	127
375.686462585034	375.76775510204084	62	127
375.76775510204084	375.89544217687074	65	127
375.90707482993196	376.0115646258503	74	127
376.0115646258503	376.12766439909296	77	127
376.12766439909296	376.2902040816327	81	127
376.3366439909297	376.45274376417234	57	127
376.45274376417234	376.568843537415	62	127
376.568843537415	376.70814058956915	65	127
376.73138321995464	376.80104308390025	77	127
376.80104308390025	376.9055328798186	81	127
376.9055328798186	377.0332426303855	86	127
377.0680725623583	377.1841723356009	57	127
377.1841723356009	377.3118820861678	63	127
377.3118820861678	377.48603174603176	66	127
377.5324716553288	377.63696145124715	78	127
377.63696145124715	377.7530612244898	81	127
377.7530612244898	377.90399092970523	87	127
377.9620408163265	378.0084807256236	57	127
378.0084807256236	378.1013605442177	63	127
378.1013605442177	378.2755102040816	66	127
378.3219501133787	378.4148299319728	78	127
378.4148299319728	378.5077097505669	81	127
378.5077097505669	378.53092970521544	87	127
378.821179138322	379.18108843537414	33	127
378.821179138322	379.18108843537414	45	127
379.0185487528345	379.06496598639455	61	127
379.06496598639455	379.18108843537414	64	127
379.18108843537414	379.34362811791385	67	127
379.3900680272109	379.47131519274376	45	127
379.47131519274376	379.5990476190476	52	127
379.5990476190476	379.74997732426306	55	127
379.7964172335601	379.90090702947845	64	127
379.90090702947845	379.98215419501133	67	127
379.98215419501133	380.1331065759637	73	127
380.16793650793653	380.28401360544217	52	127
380.28401360544217	380.38850340136054	55	127
380.38850340136054	380.56267573696147	61	127
380.58589569161	380.6903854875283	67	127
380.6903854875283	380.7716553287982	73	127
380.7716553287982	380.94580498866213	76	127
380.9922448979592	381.0967346938776	55	127
381.0967346938776	381.21283446712016	61	127
381.21283446712016	381.3289342403628	64	127
381.3637641723356	381.47986394557824	73	127
381.47986394557824	381.57274376417234	76	127
381.57274376417234	381.7468934240363	79	127
381.79333333333335	381.88621315192745	61	127
381.88621315192745	381.97909297052155	64	127
381.97909297052155	382.1416326530612	67	127
382.176462585034	382.2809523809524	76	127
382.2809523809524	382.3738321995465	79	127
382.3738321995465	382.53637188208614	85	127
382.5828117913832	382.6873015873016	64	127
382.6873015873016	382.7453514739229	67	127
382.7453514739229	382.93111111111114	73	127
382.9891609977324	383.10526077097506	79	127
383.10526077097506	383.1865306122449	85	127
383.1865306122449	383.34907029478455	88	127
383.39551020408163	383.5	45	127
383.5	383.60448979591837	52	127
383.60448979591837	383.767029478458	55	127
383.767029478458	383.8250793650794	64	127
383.8250793650794	383.9063492063492	67	127
383.9063492063492	384.0456689342404	73	127
384.1037188208617	384.2198185941043	33	127
384.2198185941043	384.33591836734695	40	127
384.33591836734695	384.48684807256234	43	127
384.5332879818594	384.6377777777778	52	127
384.6377777777778	384.77709750566896	55	127
384.77709750566896	384.98607709750564	61	127
385.14861678004536	386.3212244897959	54	127
385.14861678004536	386.3212244897959	57	127
385.14861678004536	386.3212244897959	62	127
385.14861678004536	386.3212244897959	38	127
385.14861678004536	386.3212244897959	42	127
385.14861678004536	386.3212244897959	45	127
385.14861678004536	386.3212244897959	50	127
386.53020408163263	386.64630385487527	57	127
386.53020408163263	386.64630385487527	45	127
386.64630385487527	386.7740136054422	62	127
386.64630385487527	386.7740136054422	50	127
386.7740136054422	386.9481632653061	66	127
386.7740136054422	386.9481632653061	54	127
387.3893424036281	387.4938321995465	62	127
387.3893424036281	387.4938321995465	50	127
387.4938321995465	387.6099319727891	66	127
387.4938321995465	387.6099319727891	54	127
387.6099319727891	387.7724716553288	57	127
387.6099319727891	387.7724716553288	69	127
388.1672108843537	388.28331065759636	69	127
388.1672108843537	388.28331065759636	57	127
388.28331065759636	388.42263038548754	66	127
388.28331065759636	388.42263038548754	54	127
388.42263038548754	388.68965986394556	62	127
388.42263038548754	388.68965986394556	50	127
389.6184580498866	389.722947845805	66	127
389.6184580498866	389.722947845805	54	127
389.722947845805	389.8390476190476	62	127
389.722947845805	389.8390476190476	50	127
389.8390476190476	390.01319727891155	57	127
389.8390476190476	390.01319727891155	45	127
390.37310657596373	390.46598639455783	62	127
390.37310657596373	390.46598639455783	50	127
390.46598639455783	390.5704761904762	45	127
390.46598639455783	390.5704761904762	57	127
390.5704761904762	390.7214058956916	54	127
390.5704761904762	390.7214058956916	42	127
391.15097505668933	391.27868480725624	57	127
391.15097505668933	391.27868480725624	45	127
391.27868480725624	391.37156462585034	54	127
391.27868480725624	391.37156462585034	42	127
391.37156462585034	393.0666213151927	45	127
391.37156462585034	391.5689342403628	50	127
391.37156462585034	393.0666213151927	38	127
391.6153741496599	391.8591836734694	54	127
391.8591836734694	392.0797732426304	57	127
392.0797732426304	392.27714285714285	55	127
392.27714285714285	392.5093424036281	54	127
392.5093424036281	392.72993197278913	52	127
392.72993197278913	392.95052154195014	50	127
392.95052154195014	393.1478911564626	49	127
393.1478911564626	394.79650793650796	50	127
393.1478911564626	394.79650793650796	42	127
393.1478911564626	394.79650793650796	45	127
393.3452607709751	393.5542403628118	52	127
393.5542403628118	393.77482993197276	54	127
393.77482993197276	393.9373696145125	55	127
393.9373696145125	394.1579591836735	57	127
394.1579591836735	394.3669387755102	59	127
394.3669387755102	394.57591836734696	61	127
394.57591836734696	394.79650793650796	62	127
394.79650793650796	396.35224489795917	40	127
394.79650793650796	394.9706575963719	57	127
394.79650793650796	396.35224489795917	49	127
394.79650793650796	396.35224489795917	45	127
394.9706575963719	395.16802721088436	61	127
395.16802721088436	395.3770068027211	64	127
395.3770068027211	395.5627664399093	62	127
395.5627664399093	395.7949659863946	61	127
395.7949659863946	396.0039455782313	59	127
396.0039455782313	396.2245351473923	57	127
396.2245351473923	396.35224489795917	56	127
396.35224489795917	398.0589115646259	45	127
396.35224489795917	396.5728344671202	57	127
396.35224489795917	398.0589115646259	52	127
396.35224489795917	398.0589115646259	43	127
396.5728344671202	396.77020408163264	59	127
396.77020408163264	396.9675736961451	61	127
396.9675736961451	397.21138321995466	62	127
397.21138321995466	397.4203628117914	64	127
397.4203628117914	397.6409523809524	66	127
397.6409523809524	397.8731519274376	67	127
397.8731519274376	398.0589115646259	64	127
398.0589115646259	398.2911111111111	62	127
398.0589115646259	399.5914285714286	50	127
398.0589115646259	399.5914285714286	45	127
398.0589115646259	399.5914285714286	42	127
398.2911111111111	398.4536507936508	66	127
398.4536507936508	398.61619047619047	69	127
398.61619047619047	398.8251700680272	67	127
398.8251700680272	399.0573696145125	66	127
399.0573696145125	399.2315192743764	64	127
399.2315192743764	399.4172789115646	62	127
399.4172789115646	399.5914285714286	61	127
399.5914285714286	401.25165532879817	57	127
399.5914285714286	399.8236281179138	62	127
399.5914285714286	401.25165532879817	48	127
399.5914285714286	401.25165532879817	50	127
399.8236281179138	400.0442176870748	64	127
400.0442176870748	400.2648072562358	66	127
400.2648072562358	400.47378684807256	67	127
400.47378684807256	400.69437641723357	69	127
400.69437641723357	400.9149659863946	71	127
400.9149659863946	401.0891156462585	72	127
401.0891156462585	401.25165532879817	73	127
401.25165532879817	402.05274376417236	50	127
401.25165532879817	401.4374149659864	74	127
401.25165532879817	402.05274376417236	55	127
401.25165532879817	402.05274376417236	47	127
401.4374149659864	401.5999546485261	76	127
401.5999546485261	401.8205442176871	78	127
401.8205442176871	402.05274376417236	79	127
402.05274376417236	402.98154195011335	43	127
402.05274376417236	402.98154195011335	52	127
402.05274376417236	402.25011337868483	80	127
402.05274376417236	402.98154195011335	50	127
402.25011337868483	402.51714285714286	81	127
402.51714285714286	402.73773242630386	82	127
402.73773242630386	402.92349206349206	83	127
402.98154195011335	403.8174603174603	54	127
402.98154195011335	403.8174603174603	45	127
402.98154195011335	403.1905215419501	83	127
402.98154195011335	403.8174603174603	50	127
403.1905215419501	403.4111111111111	81	127
403.4111111111111	403.62009070294783	79	127
403.62009070294783	403.79424036281176	78	127
403.8174603174603	404.56049886621315	45	127
403.8174603174603	404.56049886621315	55	127
403.8174603174603	403.98	78	127
403.8174603174603	404.56049886621315	52	127
403.98	404.15414965986395	76	127
404.15414965986395	404.3282993197279	74	127
404.3282993197279	404.5140589569161	73	127
404.56049886621315	406.1742857142857	50	127
404.56049886621315	404.9552380952381	74	127
404.56049886621315	406.1742857142857	54	127
405.2570975056689	405.33836734693875	69	127
405.33836734693875	406.2671655328798	81	127
406.1742857142857	407.74163265306123	54	127
406.1742857142857	407.74163265306123	57	127
406.2671655328798	406.41809523809525	78	127
406.41809523809525	406.5341950113379	74	127
406.5341950113379	406.6502947845805	69	127
406.6502947845805	406.7547845804989	66	127
406.7547845804989	406.89410430839	62	127
406.89410430839	407.04503401360546	62	127
407.26562358276647	407.6139229024943	62	127
407.6139229024943	407.6603628117914	61	127
407.6603628117914	407.7068027210884	62	127
407.7068027210884	407.74163265306123	64	127
407.74163265306123	409.2509297052154	52	127
407.74163265306123	409.2509297052154	57	127
407.74163265306123	408.0318820861678	62	127
408.1247619047619	408.27569160997734	61	127
408.39179138322	408.42662131519273	69	127
408.42662131519273	409.36702947845805	79	127
409.2509297052154	410.77183673469386	57	127
409.2509297052154	410.77183673469386	55	127
409.36702947845805	409.5295691609977	76	127
409.5295691609977	409.6224489795918	73	127
409.6224489795918	409.73854875283445	69	127
409.73854875283445	409.7849886621315	64	127
409.7849886621315	409.91269841269843	61	127
409.91269841269843	410.08684807256236	61	127
410.31904761904764	410.77183673469386	61	127
410.77183673469386	412.3856235827664	57	127
410.77183673469386	411.1085260770975	64	127
410.77183673469386	412.3856235827664	54	127
411.1085260770975	411.2942857142857	63	127
411.44521541950115	411.5613151927438	71	127
411.5613151927438	412.5249433106576	83	127
412.3856235827664	413.9413605442177	45	127
412.3856235827664	413.9413605442177	42	127
412.3856235827664	413.9413605442177	51	127
412.3856235827664	413.9413605442177	47	127
412.5249433106576	412.67587301587304	78	127
412.67587301587304	412.7919727891156	75	127
412.7919727891156	412.9196825396825	71	127
412.9196825396825	412.98934240362814	66	127
412.98934240362814	413.1054421768707	63	127
413.1054421768707	413.291201814059	63	127
413.5001814058957	413.7439909297052	63	127
413.9413605442177	415.4738775510204	47	127
413.9413605442177	415.4738775510204	52	127
413.9413605442177	414.08068027210885	64	127
413.9413605442177	415.4738775510204	43	127
414.08068027210885	414.2548299319728	66	127
414.2548299319728	414.4173696145125	67	127
414.4173696145125	414.6495691609977	69	127
414.6495691609977	414.85854875283445	71	127
414.85854875283445	415.102358276644	73	127
415.102358276644	415.322947845805	74	127
415.322947845805	415.45065759637185	75	127
415.4738775510204	415.6015873015873	76	127
415.4738775510204	416.9599546485261	44	127
415.4738775510204	416.9599546485261	47	127
415.4738775510204	416.9599546485261	50	127
415.4738775510204	416.9599546485261	52	127
415.6015873015873	415.7873469387755	77	127
415.7873469387755	416.0195464852608	78	127
416.0195464852608	416.1936961451247	76	127
416.2401360544218	416.40267573696144	76	127
416.40267573696144	416.57682539682537	74	127
416.57682539682537	416.7625850340136	73	127
416.7625850340136	416.913514739229	71	127
416.9599546485261	417.1805442176871	49	127
416.9599546485261	417.37791383219957	69	127
417.1805442176871	417.37791383219957	45	127
417.37791383219957	418.12095238095236	61	127
417.37791383219957	418.12095238095236	69	127
417.37791383219957	418.12095238095236	64	127
417.37791383219957	417.52884353741496	49	127
417.52884353741496	417.6913832199547	45	127
417.6913832199547	417.9003628117914	52	127
417.9003628117914	418.12095238095236	45	127
418.12095238095236	418.190612244898	52	127
418.12095238095236	418.7711111111111	61	127
418.12095238095236	418.7711111111111	64	127
418.12095238095236	418.7711111111111	69	127
418.190612244898	418.35315192743764	45	127
418.35315192743764	418.5505215419501	57	127
418.5505215419501	418.7711111111111	45	127
418.7711111111111	418.98009070294785	57	127
418.7711111111111	419.52575963718823	61	127
418.7711111111111	419.52575963718823	64	127
418.7711111111111	419.52575963718823	69	127
418.98009070294785	419.16585034013605	45	127
419.16585034013605	419.3748299319728	49	127
419.3748299319728	419.52575963718823	45	127
419.52575963718823	419.75795918367345	49	127
419.52575963718823	419.7231292517007	64	127
419.52575963718823	419.7231292517007	61	127
419.52575963718823	419.7231292517007	69	127
419.75795918367345	419.9437188208617	45	127
419.88566893424036	419.9437188208617	74	127
419.9437188208617	420.16430839002265	47	127
419.9437188208617	420.9537868480726	86	127
420.16430839002265	420.33845804988664	45	127
420.33845804988664	420.5474376417234	47	127
420.5474376417234	420.7564172335601	45	127
420.7564172335601	420.9537868480726	50	127
420.9537868480726	421.02344671201814	85	127
420.9537868480726	421.11632653061224	45	127
421.02344671201814	421.11632653061224	83	127
421.11632653061224	421.29047619047617	50	127
421.11632653061224	421.20920634920634	81	127
421.20920634920634	421.29047619047617	80	127
421.29047619047617	421.37174603174606	78	127
421.29047619047617	421.4530158730159	45	127
421.37174603174606	421.4530158730159	76	127
421.4530158730159	421.54589569161	74	127
421.4530158730159	421.6736054421769	52	127
421.6736054421769	421.7897052154195	73	127
421.6736054421769	421.87097505668936	45	127
421.7897052154195	421.87097505668936	71	127
421.87097505668936	421.9522448979592	69	127
421.87097505668936	422.0683446712018	52	127
421.9522448979592	422.0683446712018	68	127
422.0683446712018	422.14961451247166	45	127
422.0683446712018	422.1031746031746	66	127
422.1031746031746	422.14961451247166	64	127
422.14961451247166	422.3121541950113	62	127
422.14961451247166	422.3585941043084	56	127
422.3585941043084	422.52113378684805	45	127
422.52113378684805	422.7301133786848	62	127
422.52113378684805	422.7301133786848	56	127
422.7301133786848	422.96231292517007	45	127
422.96231292517007	423.74018140589567	73	127
422.96231292517007	423.136462585034	57	127
422.96231292517007	423.74018140589567	61	127
423.136462585034	423.310612244898	45	127
423.310612244898	423.5428117913832	57	127
423.5428117913832	423.74018140589567	45	127
423.74018140589567	424.46	76	127
423.74018140589567	423.9027210884354	52	127
423.74018140589567	424.46	64	127
423.9027210884354	424.13492063492066	45	127
424.13492063492066	424.2626303854875	52	127
424.2626303854875	424.46	45	127
424.46	424.680589569161	49	127
424.46	425.19142857142856	69	127
424.46	425.19142857142856	81	127
424.680589569161	424.91278911564626	45	127
424.91278911564626	425.04049886621317	49	127
425.04049886621317	425.19142857142856	45	127
425.19142857142856	426.01573696145124	85	127
425.19142857142856	425.41201814058957	52	127
425.19142857142856	426.01573696145124	73	127
425.41201814058957	425.6209977324263	45	127
425.6209977324263	425.8067573696145	52	127
425.8067573696145	426.01573696145124	45	127
426.01573696145124	426.7936054421769	46	127
426.01573696145124	426.20149659863944	74	127
426.01573696145124	426.20149659863944	86	127
426.01573696145124	426.7936054421769	34	127
426.3872562358277	427.1302947845805	77	127
426.3872562358277	427.1302947845805	89	127
426.7936054421769	427.5366439909297	50	127
426.7936054421769	427.5366439909297	38	127
427.1302947845805	427.23478458049885	89	127
427.23478458049885	427.3160544217687	88	127
427.3160544217687	427.4321541950113	86	127
427.4321541950113	427.5366439909297	85	127
427.5366439909297	427.7224036281179	86	127
427.5366439909297	428.3029024943311	53	127
427.5366439909297	428.3029024943311	41	127
427.90816326530614	427.989433106576	86	127
427.989433106576	428.09392290249434	84	127
428.09392290249434	428.1984126984127	82	127
428.1984126984127	428.3029024943311	81	127
428.3029024943311	429.0691609977324	58	127
428.3029024943311	428.5118820861678	68	127
428.3029024943311	428.5118820861678	80	127
428.3029024943311	429.0691609977324	46	127
428.68603174603174	428.8485714285714	80	127
428.68603174603174	428.8485714285714	68	127
429.0691609977324	429.4871201814059	69	127
429.0691609977324	429.4871201814059	57	127
429.0691609977324	429.4871201814059	45	127
429.0691609977324	429.4871201814059	81	127
430.03278911564627	430.13727891156464	45	127
430.03278911564627	430.13727891156464	33	127
430.13727891156464	430.2069387755102	47	127
430.13727891156464	430.2069387755102	35	127
430.2069387755102	430.28820861678	49	127
430.2069387755102	430.28820861678	37	127
430.28820861678	430.35786848072564	50	127
430.28820861678	430.35786848072564	38	127
430.35786848072564	430.4275283446712	52	127
430.35786848072564	430.4275283446712	40	127
430.4275283446712	430.53201814058957	54	127
430.4275283446712	430.53201814058957	42	127
430.53201814058957	430.63650793650794	44	127
430.53201814058957	430.63650793650794	56	127
430.63650793650794	430.7061678004535	45	127
430.63650793650794	430.7061678004535	57	127
430.78743764172333	430.8803174603175	59	127
430.78743764172333	430.8803174603175	47	127
430.8803174603175	430.99641723356007	61	127
430.8803174603175	430.99641723356007	49	127
430.99641723356007	431.10090702947844	50	127
430.99641723356007	431.10090702947844	62	127
431.10090702947844	431.17056689342405	64	127
431.10090702947844	431.17056689342405	52	127
431.17056689342405	431.2170068027211	66	127
431.17056689342405	431.2170068027211	54	127
431.2170068027211	431.32149659863944	68	127
431.2170068027211	431.32149659863944	56	127
431.32149659863944	431.41437641723354	69	127
431.32149659863944	431.41437641723354	57	127
431.5304761904762	431.611746031746	71	127
431.5304761904762	431.611746031746	59	127
431.611746031746	431.7046258503401	73	127
431.611746031746	431.7046258503401	61	127
431.7046258503401	431.78589569161	74	127
431.7046258503401	431.78589569161	62	127
431.78589569161	431.90199546485263	76	127
431.78589569161	431.90199546485263	64	127
431.90199546485263	432.0297052154195	78	127
431.90199546485263	432.0297052154195	66	127
432.0297052154195	432.18063492063493	80	127
432.0297052154195	432.18063492063493	68	127
432.18063492063493	432.4592743764172	69	127
432.18063492063493	433.2835827664399	81	127
433.376462585034	433.817641723356	78	127
433.817641723356	434.0614512471655	81	127
434.0614512471655	434.27043083900224	79	127
434.27043083900224	434.49102040816325	78	127
434.49102040816325	434.6419501133787	76	127
434.6883900226757	434.85092970521544	79	127
434.85092970521544	435.03668934240363	78	127
435.03668934240363	435.21083900226756	76	127
435.21083900226756	435.40820861678003	74	127
435.40820861678003	435.6055782312925	78	127
435.6055782312925	435.80294784580497	76	127
435.80294784580497	435.9654875283447	74	127
435.9654875283447	436.16285714285715	73	127
436.16285714285715	436.3602267573696	76	127
436.3602267573696	436.53437641723355	74	127
436.53437641723355	436.75496598639455	73	127
436.53437641723355	436.9639455782313	66	127
436.75496598639455	436.9639455782313	71	127
436.9639455782313	437.38190476190476	67	127
436.9639455782313	437.1845351473923	70	127
437.1845351473923	437.38190476190476	71	127
437.38190476190476	437.5560544217687	73	127
437.38190476190476	437.67215419501133	63	127
437.5560544217687	437.7766439909297	71	127
437.7766439909297	438.7286621315193	69	127
437.7766439909297	437.98562358276644	64	127
438.25265306122446	438.47324263038547	59	127
438.7286621315193	439.23950113378686	67	127
438.7286621315193	439.3439909297052	64	127
440.0870294784581	441.02743764172334	47	127
440.0870294784581	441.02743764172334	59	127
440.0870294784581	441.02743764172334	64	127
440.0870294784581	441.02743764172334	67	127
440.0870294784581	441.02743764172334	71	127
440.0870294784581	441.02743764172334	43	127
440.0870294784581	441.02743764172334	52	127
440.0870294784581	441.02743764172334	55	127
444.26662131519276	444.4291609977324	52	127
444.26662131519276	444.4291609977324	55	127
444.26662131519276	444.4291609977324	61	127
444.26662131519276	444.4291609977324	33	127
444.26662131519276	444.4291609977324	45	127
444.60331065759635	444.7542403628118	55	127
444.60331065759635	444.7542403628118	61	127
444.60331065759635	444.7542403628118	33	127
444.60331065759635	444.7542403628118	45	127
444.60331065759635	444.7542403628118	52	127
444.9980498866213	445.14897959183673	61	127
444.9980498866213	445.14897959183673	52	127
444.9980498866213	445.14897959183673	55	127
444.9980498866213	445.14897959183673	33	127
444.9980498866213	445.14897959183673	45	127
445.41600907029476	446.30997732426306	55	127
445.41600907029476	446.30997732426306	61	127
445.41600907029476	446.704716553288	50	127
445.41600907029476	446.704716553288	38	127
445.41600907029476	446.704716553288	57	127
446.30997732426306	446.704716553288	54	127
446.30997732426306	446.704716553288	62	127
446.72793650793653	446.8904761904762	69	127
446.8904761904762	446.99496598639456	74	127
446.99496598639456	447.0646258503401	78	127
447.09945578231293	447.77283446712016	81	127
447.77283446712016	447.9353741496599	78	127
447.9353741496599	448.074693877551	81	127
448.074693877551	448.17918367346937	79	127
448.17918367346937	448.3068934240363	78	127
448.3068934240363	448.41138321995464	76	127
448.41138321995464	448.5507029478458	75	127
448.5507029478458	448.6435827664399	76	127
448.6435827664399	448.7945124716553	79	127
448.7945124716553	448.957052154195	78	127
448.957052154195	449.07315192743766	76	127
449.07315192743766	449.2008616780045	74	127
449.2008616780045	449.3285714285714	73	127
449.3285714285714	449.47950113378687	74	127
449.47950113378687	449.6072108843537	78	127
449.6072108843537	449.7349206349206	76	127
449.7349206349206	449.839410430839	74	127
449.839410430839	449.99034013605444	73	127
449.99034013605444	450.14126984126983	72	127
450.14126984126983	450.2457596371882	73	127
450.2457596371882	450.3386394557823	76	127
450.3386394557823	450.44312925170067	74	127
450.44312925170067	450.54761904761904	73	127
450.54761904761904	450.61727891156465	71	127
450.64049886621314	450.7449886621315	70	127
450.7449886621315	450.8726984126984	73	127
450.8726984126984	451.02362811791386	71	127
451.02362811791386	451.11650793650796	70	127
451.11650793650796	451.26743764172335	73	127
451.26743764172335	451.4067573696145	71	127
451.4067573696145	451.5112471655329	70	127
451.5112471655329	451.650566893424	73	127
451.650566893424	451.7782766439909	71	127
451.81310657596373	452.6025850340136	69	127
452.6025850340136	452.93927437641725	67	127
453.856462585034	454.2628117913832	76	127
453.856462585034	454.2628117913832	64	127
454.2628117913832	454.43696145124716	73	127
454.2628117913832	454.43696145124716	61	127
454.70399092970524	455.12195011337866	74	127
454.70399092970524	455.12195011337866	62	127
455.12195011337866	455.29609977324264	59	127
455.12195011337866	455.29609977324264	71	127
455.5050793650794	455.85337868480724	73	127
455.5050793650794	455.85337868480724	61	127
455.85337868480724	455.98108843537415	70	127
455.85337868480724	455.98108843537415	58	127
456.23650793650796	456.6312471655329	71	127
456.23650793650796	456.6312471655329	59	127
456.6312471655329	456.79378684807256	67	127
456.6312471655329	456.79378684807256	55	127
457.3626757369615	457.7341950113379	69	127
457.3626757369615	457.7341950113379	57	127
458.1637641723356	458.314693877551	62	127
458.1637641723356	458.314693877551	50	127
458.314693877551	458.4424036281179	66	127
458.314693877551	458.4424036281179	54	127
458.4424036281179	458.5701133786848	69	127
458.4424036281179	458.5701133786848	57	127
458.5701133786848	458.70943310657594	61	127
458.5701133786848	458.70943310657594	49	127
458.70943310657594	458.8487528344671	66	127
458.70943310657594	458.8487528344671	54	127
458.8487528344671	458.976462585034	69	127
458.8487528344671	458.976462585034	57	127
458.976462585034	459.1041723356009	50	127
458.976462585034	459.1041723356009	62	127
459.1041723356009	459.2318820861678	54	127
459.1041723356009	459.2318820861678	66	127
459.2318820861678	459.3479818594104	69	127
459.3479818594104	459.4873015873016	45	127
459.4873015873016	459.6266213151927	54	127
459.4873015873016	459.6266213151927	66	127
459.6266213151927	459.7659410430839	69	127
459.6266213151927	459.7659410430839	57	127
459.7659410430839	459.88204081632654	60	127
459.7659410430839	459.88204081632654	48	127
459.88204081632654	459.9981405895692	66	127
459.88204081632654	459.9981405895692	54	127
459.9981405895692	460.14907029478456	69	127
459.9981405895692	460.14907029478456	57	127
460.14907029478456	460.28839002267574	59	127
460.14907029478456	460.28839002267574	47	127
460.28839002267574	460.4509297052154	66	127
460.28839002267574	460.4509297052154	54	127
460.4509297052154	460.5321995464853	69	127
460.4509297052154	460.5321995464853	57	127
460.5321995464853	460.65990929705214	60	127
460.5321995464853	460.65990929705214	48	127
460.65990929705214	460.8108390022676	66	127
460.65990929705214	460.8108390022676	54	127
460.8108390022676	460.9501587301587	69	127
460.9501587301587	461.10108843537415	45	127
461.10108843537415	461.25201814058954	54	127
461.10108843537415	461.25201814058954	66	127
461.25201814058954	461.3448979591837	69	127
461.25201814058954	461.3448979591837	57	127
461.3565079365079	461.47260770975055	59	127
461.3565079365079	461.47260770975055	47	127
461.47260770975055	461.60031746031746	50	127
461.47260770975055	461.60031746031746	62	127
461.60031746031746	461.7048072562358	55	127
461.60031746031746	461.7048072562358	67	127
461.7048072562358	461.85573696145127	46	127
461.7048072562358	461.85573696145127	58	127
461.85573696145127	461.9834467120181	50	127
461.85573696145127	461.9834467120181	62	127
461.9834467120181	462.1227664399093	67	127
461.9834467120181	462.1227664399093	55	127
462.1227664399093	462.2620861678005	59	127
462.1227664399093	462.2620861678005	47	127
462.2620861678005	462.41301587301587	62	127
462.2620861678005	462.41301587301587	50	127
462.41301587301587	462.50589569160996	67	127
462.50589569160996	462.6336054421769	43	127
462.6336054421769	462.77292517006805	50	127
462.6336054421769	462.77292517006805	62	127
462.77292517006805	462.92385487528344	55	127
462.77292517006805	462.92385487528344	67	127
462.92385487528344	463.0631746031746	57	127
462.92385487528344	463.0631746031746	45	127
463.0631746031746	463.20249433106574	60	127
463.0631746031746	463.20249433106574	48	127
463.20249433106574	463.3069841269841	50	127
463.20249433106574	463.3069841269841	62	127
463.3069841269841	463.3998639455782	56	127
463.3069841269841	463.3998639455782	44	127
463.3998639455782	463.5275736961451	60	127
463.3998639455782	463.5275736961451	48	127
463.5275736961451	463.6668934240363	62	127
463.5275736961451	463.6668934240363	50	127
463.6668934240363	463.80621315192747	57	127
463.6668934240363	463.80621315192747	45	127
463.80621315192747	463.9339229024943	60	127
463.80621315192747	463.9339229024943	48	127
463.9339229024943	464.0384126984127	62	127
463.9339229024943	464.0384126984127	50	127
464.0384126984127	464.1545124716553	42	127
464.0384126984127	464.1545124716553	54	127
464.1545124716553	464.23578231292515	48	127
464.1545124716553	464.23578231292515	60	127
464.23578231292515	464.3402721088435	62	127
464.23578231292515	464.3402721088435	50	127
464.37510204081633	464.5144217687075	55	127
464.37510204081633	464.5144217687075	43	127
464.5144217687075	464.6653514739229	47	127
464.5144217687075	464.6653514739229	59	127
464.6653514739229	464.8278911564626	50	127
464.6653514739229	464.8278911564626	62	127
464.8278911564626	464.978820861678	42	127
464.8278911564626	464.978820861678	54	127
464.978820861678	465.1065306122449	47	127
464.978820861678	465.1065306122449	59	127
465.1065306122449	465.14136054421766	62	127
465.1065306122449	465.14136054421766	50	127
465.14136054421766	465.3039002267574	55	127
465.14136054421766	465.3039002267574	43	127
465.3039002267574	465.45482993197277	47	127
465.3039002267574	465.45482993197277	59	127
465.45482993197277	465.5709297052154	62	127
465.5709297052154	465.72185941043085	38	127
465.72185941043085	465.87278911564624	59	127
465.72185941043085	465.87278911564624	47	127
465.87278911564624	466.0237188208617	62	127
465.87278911564624	466.0237188208617	50	127
466.0237188208617	466.1514285714286	54	127
466.0237188208617	466.1514285714286	42	127
466.1514285714286	466.2675283446712	57	127
466.1514285714286	466.2675283446712	45	127
466.2675283446712	466.36040816326533	50	127
466.2675283446712	466.36040816326533	62	127
466.36040816326533	466.49972789115645	41	127
466.36040816326533	466.49972789115645	53	127
466.49972789115645	466.6042176870748	57	127
466.49972789115645	466.6042176870748	45	127
466.6042176870748	466.72031746031746	50	127
466.6042176870748	466.72031746031746	62	127
466.72031746031746	466.85963718820864	54	127
466.72031746031746	466.85963718820864	42	127
466.85963718820864	466.99895691609976	57	127
466.85963718820864	466.99895691609976	45	127
466.99895691609976	467.12666666666667	62	127
467.12666666666667	467.26598639455784	38	127
467.26598639455784	467.40530612244896	45	127
467.26598639455784	467.40530612244896	57	127
467.40530612244896	467.5214058956916	50	127
467.40530612244896	467.5214058956916	62	127
467.5562358276644	467.6839455782313	52	127
467.5562358276644	467.6839455782313	40	127
467.6839455782313	467.846485260771	55	127
467.6839455782313	467.846485260771	43	127
467.846485260771	468.00902494331064	45	127
467.846485260771	468.00902494331064	57	127
468.00902494331064	468.1599546485261	51	127
468.00902494331064	468.1599546485261	39	127
468.1599546485261	468.29927437641726	43	127
468.1599546485261	468.29927437641726	55	127
468.29927437641726	468.35732426303855	57	127
468.29927437641726	468.35732426303855	45	127
468.35732426303855	468.508253968254	40	127
468.35732426303855	468.508253968254	52	127
468.508253968254	468.6127437641723	55	127
468.508253968254	468.6127437641723	43	127
468.6127437641723	468.7520634920635	45	127
468.6127437641723	468.7520634920635	57	127
468.7520634920635	468.8797732426304	37	127
468.8797732426304	468.98426303854876	43	127
468.98426303854876	469.07714285714286	45	127
469.01909297052157	469.07714285714286	69	127
469.07714285714286	469.22807256235825	38	127
469.07714285714286	470.34263038548755	81	127
469.22807256235825	469.35578231292516	42	127
469.35578231292516	469.49510204081633	45	127
469.49510204081633	469.6460317460317	37	127
469.6460317460317	469.7853514739229	42	127
469.7853514739229	469.9246712018141	45	127
469.9246712018141	470.0639909297052	38	127
470.0639909297052	470.2033106575964	42	127
470.2033106575964	470.34263038548755	45	127
470.34263038548755	470.45873015873013	79	127
470.34263038548755	470.4819501133787	33	127
470.45873015873013	470.5632199546485	78	127
470.4819501133787	470.6444897959184	42	127
470.5632199546485	470.67931972789114	76	127
470.6444897959184	470.7373696145125	45	127
470.67931972789114	470.74897959183676	74	127
470.77219954648524	470.9115192743764	40	127
470.77219954648524	470.981179138322	69	127
470.9115192743764	471.0508390022676	43	127
471.0508390022676	471.1901587301587	45	127
471.1901587301587	471.2365986394558	39	127
471.2365986394558	471.3643083900227	43	127
471.3643083900227	471.43396825396826	45	127
471.43396825396826	471.56167800453517	40	127
471.56167800453517	471.7009977324263	43	127
471.7009977324263	471.8170975056689	45	127
471.8170975056689	471.9680272108844	37	127
471.9680272108844	472.0957369614512	43	127
472.0957369614512	472.22344671201813	45	127
472.13056689342403	472.22344671201813	69	127
472.22344671201813	473.3263945578231	81	127
472.22344671201813	472.3743764172336	38	127
472.3743764172336	472.52530612244897	41	127
472.52530612244897	472.6878458049887	45	127
472.6878458049887	472.80394557823126	37	127
472.80394557823126	472.9200453514739	41	127
472.9200453514739	473.02453514739227	45	127
473.02453514739227	473.1406349206349	38	127
473.1406349206349	473.22190476190474	41	127
473.22190476190474	473.3263945578231	45	127
473.3263945578231	473.4192743764172	79	127
473.3263945578231	473.44249433106575	33	127
473.4192743764172	473.5237641723356	77	127
473.44249433106575	473.60503401360546	42	127
473.5237641723356	473.62825396825394	76	127
473.60503401360546	473.69791383219956	45	127
473.62825396825394	473.7327437641723	74	127
473.7327437641723	473.88367346938776	48	127
473.7327437641723	473.91850340136057	75	127
473.88367346938776	474.02299319727894	51	127
474.02299319727894	474.16231292517006	53	127
474.16231292517006	474.3132426303855	47	127
474.3132426303855	474.4641723356009	51	127
474.4641723356009	474.60349206349207	53	127
474.60349206349207	474.74281179138325	48	127
474.74281179138325	474.8240816326531	51	127
474.8240816326531	474.9401814058957	53	127
474.9401814058957	475.0562811791383	45	127
475.0562811791383	475.1839909297052	51	127
475.1839909297052	475.3465306122449	53	127
475.218820861678	475.3465306122449	77	127
475.3465306122449	476.51913832199546	89	127
475.3465306122449	475.5090702947846	46	127
475.5090702947846	475.66	50	127
475.66	475.7877097505669	53	127
475.7877097505669	475.9154195011338	45	127
475.9154195011338	476.01990929705215	50	127
476.01990929705215	476.1708390022676	53	127
476.1708390022676	476.321768707483	46	127
476.321768707483	476.4146485260771	50	127
476.4146485260771	476.51913832199546	53	127
476.51913832199546	476.588798185941	87	127
476.51913832199546	476.61201814058956	41	127
476.588798185941	476.6700680272109	86	127
476.61201814058956	476.7281179138322	50	127
476.6700680272109	476.762947845805	84	127
476.7281179138322	476.87904761904764	53	127
476.762947845805	476.87904761904764	82	127
476.87904761904764	477.05319727891157	77	127
476.87904761904764	477.01836734693876	48	127
477.01836734693876	477.15768707482994	51	127
477.15768707482994	477.3202267573696	53	127
477.3202267573696	477.47115646258504	47	127
477.47115646258504	477.6336961451247	51	127
477.6336961451247	477.7730158730159	53	127
477.7730158730159	477.92394557823127	48	127
477.92394557823127	478.086485260771	51	127
478.00521541950116	478.24902494331064	77	127
478.086485260771	478.24902494331064	53	127
478.24902494331064	478.41156462585036	45	127
478.24902494331064	478.4928344671202	89	127
478.41156462585036	478.56249433106575	51	127
478.4928344671202	478.7134240362812	89	127
478.56249433106575	478.6785941043084	53	127
478.7134240362812	479.10816326530613	34	127
478.7134240362812	478.82952380952383	89	127
478.7134240362812	479.10816326530613	46	127
478.9340136054422	479.01528344671203	89	127
479.10816326530613	479.1662131519274	87	127
479.23587301587304	479.3519727891156	86	127
479.41002267573697	479.68866213151927	84	127
479.68866213151927	480.0369614512472	58	127
479.68866213151927	479.95569160997735	82	127
480.0369614512472	480.18789115646257	51	127
480.2111111111111	480.28077097505667	82	127
480.3968707482993	480.5013605442177	81	127
480.6174603174603	480.73356009070295	79	127
480.8496598639456	481.23278911564626	77	127
481.23278911564626	481.58108843537417	75	127
481.23278911564626	481.65074829931973	51	127
481.65074829931973	481.8365079365079	53	127
481.882947845805	481.96421768707484	75	127
482.0803174603175	482.1731972789116	74	127
482.2660770975057	482.3821768707483	72	127
482.45183673469387	482.86979591836734	70	127
482.86979591836734	483.24131519274374	51	127
482.86979591836734	483.206485260771	69	127
483.24131519274374	483.3922448979592	50	127
483.24131519274374	483.3225850340136	70	127
483.4386848072562	483.53156462585036	74	127
483.6128344671202	483.69410430839	67	127
483.6128344671202	483.82181405895693	51	127
483.82181405895693	483.91469387755103	72	127
484.00757369614513	484.08884353741496	65	127
484.00757369614513	484.2049433106576	53	127
484.2049433106576	484.32104308390024	70	127
484.4255328798186	484.576462585034	63	127
484.4255328798186	484.69256235827663	41	127
484.69256235827663	484.85510204081635	69	127
484.99442176870747	485.22662131519274	62	127
484.99442176870747	485.22662131519274	70	127
484.99442176870747	485.22662131519274	46	127
486.0625396825397	486.561768707483	62	127
486.0625396825397	486.561768707483	58	127
486.561768707483	486.7475283446712	70	127
486.561768707483	486.7475283446712	55	127
487.62988662131517	488.11750566893426	70	127
487.62988662131517	488.11750566893426	55	127
488.11750566893426	488.3148752834467	67	127
488.11750566893426	488.3148752834467	52	127
489.30172335600906	489.7429024943311	52	127
489.30172335600906	489.7429024943311	55	127
489.7429024943311	490.09120181405893	52	127
489.7429024943311	490.09120181405893	55	127
489.8822222222222	489.97510204081635	79	127
490.09120181405893	490.21891156462584	77	127
490.3234013605442	490.40467120181404	76	127
490.53238095238095	490.93873015873015	74	127
490.93873015873015	491.4031292517007	61	127
490.93873015873015	491.3218594104308	73	127
490.93873015873015	491.4031292517007	52	127
490.93873015873015	491.4031292517007	55	127
491.4031292517007	491.87913832199547	52	127
491.4031292517007	491.87913832199547	55	127
491.4031292517007	491.87913832199547	61	127
491.6469387755102	491.87913832199547	79	127
491.87913832199547	492.07650793650794	78	127
492.07650793650794	492.29709750566894	76	127
492.29709750566894	492.48285714285714	74	127
492.48285714285714	492.6918367346939	73	127
492.6918367346939	493.0285260770975	61	127
492.6918367346939	492.8659863945578	83	127
492.6918367346939	493.0285260770975	52	127
492.6918367346939	493.0285260770975	55	127
492.8659863945578	492.98208616780045	81	127
493.0285260770975	493.1794557823129	57	127
493.0285260770975	493.1794557823129	54	127
493.0285260770975	493.1794557823129	63	127
493.22589569161	493.4580952380952	81	127
493.4580952380952	493.6322448979592	79	127
493.6322448979592	493.84122448979593	78	127
493.84122448979593	494.07342403628115	76	127
494.07342403628115	494.2824036281179	75	127
494.2824036281179	494.4913832199546	84	127
494.2824036281179	494.65392290249434	54	127
494.2824036281179	494.65392290249434	57	127
494.2824036281179	494.65392290249434	63	127
494.4913832199546	494.60748299319727	83	127
494.65392290249434	494.79324263038546	55	127
494.65392290249434	494.79324263038546	59	127
494.65392290249434	494.79324263038546	64	127
494.8512925170068	495.02544217687074	83	127
495.02544217687074	495.24603174603175	81	127
495.24603174603175	495.43179138321995	79	127
495.43179138321995	495.6407709750567	78	127
495.6407709750567	495.8497505668934	76	127
495.8497505668934	496.0471201814059	87	127
496.0471201814059	496.2212698412698	88	127
496.2677097505669	496.4418594104308	81	127
496.4418594104308	496.6392290249433	79	127
496.6392290249433	496.84820861678	78	127
496.84820861678	497.0455782312925	76	127
497.0455782312925	497.2197278911565	75	127
497.2197278911565	497.4287074829932	76	127
497.4287074829932	497.63768707482996	79	127
497.63768707482996	497.8350566893424	76	127
497.88149659863944	498.06725623582764	57	127
497.88149659863944	497.9395464852608	78	127
497.9395464852608	498.00920634920635	76	127
498.00920634920635	498.06725623582764	78	127
498.06725623582764	498.14852607709753	76	127
498.06725623582764	498.28784580498865	61	127
498.14852607709753	498.2065759637188	78	127
498.2065759637188	498.28784580498865	76	127
498.28784580498865	498.35750566893427	78	127
498.28784580498865	498.4968253968254	64	127
498.35750566893427	498.41555555555556	76	127
498.41555555555556	498.4968253968254	78	127
498.4968253968254	498.69419501133785	62	127
498.4968253968254	498.54326530612246	76	127
498.54326530612246	498.6245351473923	78	127
498.6245351473923	498.69419501133785	76	127
498.69419501133785	498.7522448979592	78	127
498.69419501133785	498.9031746031746	61	127
498.7522448979592	498.82190476190476	76	127
498.82190476190476	498.9031746031746	78	127
498.9031746031746	499.1121541950113	59	127
498.9031746031746	498.9728344671202	76	127
498.9728344671202	499.04249433106577	78	127
499.04249433106577	499.1121541950113	76	127
499.1121541950113	499.19342403628116	78	127
499.1121541950113	499.3559637188209	57	127
499.19342403628116	499.28630385487526	76	127
499.28630385487526	499.3559637188209	78	127
499.3559637188209	499.42562358276643	76	127
499.3559637188209	499.51850340136053	56	127
499.42562358276643	499.495283446712	78	127
499.495283446712	499.5649433106576	76	127
499.5649433106576	499.61138321995463	78	127
499.5649433106576	499.72748299319727	57	127
499.61138321995463	499.68104308390025	76	127
499.68104308390025	499.72748299319727	78	127
499.72748299319727	499.7507029478458	76	127
499.72748299319727	499.86680272108845	64	127
499.7507029478458	499.8087528344671	78	127
499.8087528344671	499.86680272108845	76	127
499.86680272108845	500.0757823129252	67	127
499.86680272108845	499.9480725623583	78	127
499.9480725623583	500.00612244897957	76	127
500.00612244897957	500.0757823129252	78	127
500.0757823129252	500.2847619047619	66	127
500.0757823129252	500.157052154195	76	127
500.157052154195	500.2151020408163	78	127
500.2151020408163	500.2847619047619	76	127
500.2847619047619	500.4356916099773	64	127
500.2847619047619	500.33120181405894	78	127
500.33120181405894	500.377641723356	76	127
500.377641723356	500.4356916099773	78	127
500.4356916099773	500.58662131519276	62	127
500.4356916099773	500.50535147392293	76	127
500.50535147392293	500.5401814058957	78	127
500.5401814058957	500.58662131519276	76	127
500.58662131519276	500.7491609977324	61	127
500.58662131519276	500.6098412698413	78	127
500.6098412698413	500.67950113378686	76	127
500.67950113378686	500.7491609977324	78	127
500.7491609977324	500.818820861678	76	127
500.7491609977324	500.91170068027213	59	127
500.818820861678	500.8884807256236	78	127
500.8884807256236	500.9349206349206	76	127
500.9349206349206	500.99297052154196	78	127
500.9349206349206	501.1322902494331	57	127
500.99297052154196	501.0742403628118	76	127
501.0742403628118	501.1322902494331	78	127
501.1322902494331	501.2019501133787	76	127
501.1322902494331	501.28321995464853	56	127
501.2019501133787	501.2483900226757	78	127
501.2483900226757	501.31804988662134	76	127
501.31804988662134	501.39931972789117	78	127
501.31804988662134	501.4341496598639	55	127
501.39931972789117	501.45736961451246	76	127
501.45736961451246	501.49219954648527	78	127
501.49219954648527	501.58507936507937	54	127
501.49219954648527	501.5734693877551	76	127
501.5734693877551	501.6082993197279	78	127
501.6082993197279	501.6663492063492	76	127
501.6663492063492	501.7360090702948	78	127
501.6663492063492	501.78244897959183	52	127
501.7360090702948	501.8056689342404	76	127
501.8056689342404	501.8869387755102	78	127
501.8869387755102	501.95659863945576	76	127
501.8869387755102	502.00303854875284	50	127
501.95659863945576	502.03786848072565	78	127
502.03786848072565	502.09591836734694	76	127
502.09591836734694	502.1075283446712	49	127
502.09591836734694	502.15396825396823	76	127
502.15396825396823	502.2120181405896	78	127
502.2120181405896	502.27006802721087	76	127
502.2120181405896	502.2932879818594	47	127
502.27006802721087	502.3281179138322	78	127
502.3281179138322	502.3977777777778	76	127
502.3977777777778	502.45582766439907	78	127
502.3977777777778	502.4906575963719	45	127
502.45582766439907	502.53709750566895	76	127
502.53709750566895	502.59514739229024	78	127
502.59514739229024	502.6764172335601	43	127
502.59514739229024	502.6764172335601	76	127
502.6764172335601	502.6996371882086	78	127
502.6996371882086	502.7460770975057	76	127
502.7460770975057	502.81573696145125	78	127
502.7460770975057	502.86217687074827	42	127
502.81573696145125	502.87378684807254	76	127
502.87378684807254	502.94344671201816	78	127
502.94344671201816	503.0131065759637	76	127
502.94344671201816	503.03632653061226	40	127
503.0131065759637	503.0595464852608	78	127
503.0595464852608	503.1408163265306	76	127
503.1408163265306	503.22208616780046	78	127
503.1408163265306	503.26852607709753	38	127
503.22208616780046	503.3033560090703	76	127
503.3033560090703	503.34979591836736	78	127
503.34979591836736	503.4194557823129	76	127
503.34979591836736	503.46589569161	37	127
503.4194557823129	503.4891156462585	78	127
503.4891156462585	503.54716553287983	76	127
503.54716553287983	503.64004535147393	78	127
503.54716553287983	503.68648526077095	35	127
503.64004535147393	503.72131519274376	76	127
503.72131519274376	503.8025850340136	78	127
503.8025850340136	503.8954648526077	76	127
503.8025850340136	503.9302947845805	33	127
503.8954648526077	503.9767346938776	74	127
503.9767346938776	504.04639455782313	76	127
504.04639455782313	504.4643537414966	62	127
504.04639455782313	504.4643537414966	74	127
504.04639455782313	504.4643537414966	38	127
504.04639455782313	504.4643537414966	50	127
504.58045351473925	505.3815419501134	54	127
504.58045351473925	505.3815419501134	62	127
504.58045351473925	505.3815419501134	69	127
504.58045351473925	505.3815419501134	74	127
504.58045351473925	505.3815419501134	42	127
504.58045351473925	505.3815419501134	50	127
505.48603174603176	506.17102040816326	50	127
505.48603174603176	506.17102040816326	62	127
505.48603174603176	506.17102040816326	71	127
505.48603174603176	506.17102040816326	74	127
505.48603174603176	506.17102040816326	43	127
505.48603174603176	506.17102040816326	55	127
506.29873015873017	507.03015873015875	55	127
506.29873015873017	507.03015873015875	62	127
506.29873015873017	507.03015873015875	67	127
506.29873015873017	507.03015873015875	74	127
506.29873015873017	507.03015873015875	47	127
506.29873015873017	507.03015873015875	59	127
507.16947845804987	507.40167800453514	57	127
507.16947845804987	507.40167800453514	64	127
507.16947845804987	507.40167800453514	67	127
507.16947845804987	507.40167800453514	76	127
507.16947845804987	507.40167800453514	49	127
507.16947845804987	507.40167800453514	55	127
507.16947845804987	507.40167800453514	61	127
507.5990476190476	507.7615873015873	57	127
507.5990476190476	507.7615873015873	64	127
507.5990476190476	507.7615873015873	67	127
507.5990476190476	507.7615873015873	69	127
507.5990476190476	507.7615873015873	49	127
507.5990476190476	507.7615873015873	55	127
507.5990476190476	507.7615873015873	61	127
508.80648526077096	509.02707482993196	54	127
508.80648526077096	509.02707482993196	66	127
508.80648526077096	509.02707482993196	69	127
508.80648526077096	509.02707482993196	78	127
508.80648526077096	509.02707482993196	50	127
508.80648526077096	509.02707482993196	57	127
508.80648526077096	509.02707482993196	62	127
509.21283446712016	509.47986394557824	62	127
509.21283446712016	509.47986394557824	66	127
509.21283446712016	509.47986394557824	69	127
509.21283446712016	509.47986394557824	74	127
509.21283446712016	509.47986394557824	50	127
509.21283446712016	509.47986394557824	54	127
509.21283446712016	509.47986394557824	57	127
510.4899319727891	510.82662131519277	52	127
510.5828117913832	510.6873015873016	67	127
510.6873015873016	510.7337414965986	69	127
510.7337414965986	510.82662131519277	73	127
510.82662131519277	511.279410430839	79	127
510.93111111111114	511.0472108843537	64	127
511.0472108843537	511.1749206349206	63	127
511.1749206349206	511.279410430839	64	127
511.279410430839	511.6393197278912	54	127
511.39551020408163	511.48839002267573	69	127
511.48839002267573	511.5348299319728	74	127
511.5348299319728	511.6393197278912	69	127
511.6393197278912	512.0572789115646	81	127
511.74380952380955	511.83668934240364	66	127
511.83668934240364	511.941179138322	65	127
511.941179138322	512.0572789115646	66	127
512.0572789115646	512.4055782312926	55	127
512.1501587301588	512.2430385487528	71	127
512.2430385487528	512.3010884353741	74	127
512.3010884353741	512.4055782312926	71	127
512.4055782312926	512.8351247165533	83	127
512.5216780045351	512.6145578231293	67	127
512.6145578231293	512.7074376417233	66	127
512.7074376417233	512.8351247165533	67	127
512.8351247165533	513.1718367346939	57	127
512.9396371882086	513.0557142857143	73	127
513.0557142857143	513.0789569160997	79	127
513.0789569160997	513.1718367346939	73	127
513.1718367346939	513.5549659863946	85	127
513.2879365079365	513.4272562358277	67	127
513.4272562358277	513.5549659863946	66	127
513.5549659863946	513.5897959183674	67	127
513.5897959183674	513.6362358276644	73	127
513.6362358276644	513.6826757369614	76	127
513.6826757369614	515.2848299319728	57	127
513.6826757369614	514.2515646258504	79	127
513.6826757369614	515.2848299319728	45	127
513.6826757369614	515.2848299319728	52	127
513.6826757369614	515.2848299319728	55	127
514.2515646258504	514.3328344671202	78	127
514.3328344671202	514.41410430839	76	127
514.41410430839	514.4837414965987	74	127
514.4837414965987	514.588253968254	73	127
514.588253968254	514.7043537414966	74	127
514.7043537414966	514.7740136054422	76	127
514.7740136054422	514.8668934240363	74	127
514.8668934240363	514.9365532879818	73	127
514.9365532879818	515.0410430839003	71	127
515.0410430839003	515.1571428571428	69	127
515.1571428571428	515.2848299319728	67	127
515.2848299319728	515.5751020408163	66	127
515.2848299319728	515.6215419501134	50	127
515.2848299319728	515.6215419501134	54	127
515.2848299319728	515.6215419501134	57	127
516.7941496598639	516.8289795918367	55	127
516.8289795918367	516.8754195011338	61	127
516.8754195011338	516.9102494331066	64	127
516.9102494331066	517.4094784580499	67	127
516.9102494331066	518.4775963718821	33	127
516.9102494331066	518.4775963718821	40	127
516.9102494331066	518.4775963718821	43	127
516.9102494331066	518.4775963718821	45	127
517.4094784580499	517.5139682539683	66	127
517.5139682539683	517.6300680272109	64	127
517.6300680272109	517.7113378684808	62	127
517.7113378684808	517.8274376417233	61	127
517.8274376417233	517.8622675736962	62	127
517.8622675736962	517.9551247165533	64	127
517.9551247165533	518.0596371882086	62	127
518.0596371882086	518.1409070294785	61	127
518.1409070294785	518.2453968253968	59	127
518.2453968253968	518.3498639455782	57	127
518.3498639455782	518.4775963718821	55	127
518.4775963718821	518.7097959183674	42	127
518.4775963718821	518.6633560090703	54	127
518.4775963718821	518.7097959183674	38	127
518.4775963718821	518.7097959183674	45	127
519.8707936507936	519.8940136054422	45	127
519.8940136054422	519.9404535147393	49	127
519.9404535147393	519.9752834467121	52	127
519.9752834467121	521.6354875283447	33	127
519.9752834467121	520.4977324263039	55	127
520.4977324263039	520.6254421768707	54	127
520.6254421768707	520.7531519274377	52	127
520.7531519274377	520.857641723356	50	127
520.857641723356	520.9621315192744	49	127
520.9621315192744	521.0434013605442	50	127
521.0434013605442	521.1595011337869	49	127
521.1595011337869	521.2639909297052	47	127
521.2639909297052	521.3800907029479	45	127
521.3800907029479	521.4729705215419	43	127
521.4729705215419	521.5310204081633	42	127
521.5310204081633	521.6122902494332	40	127
521.6354875283447	521.74	38	127
521.74	521.8560997732426	40	127
521.8560997732426	521.960589569161	42	127
521.960589569161	522.0650793650793	43	127
522.0650793650793	522.181179138322	45	127
522.181179138322	522.2740589569161	47	127
522.2740589569161	522.2972789115646	49	127
522.2972789115646	522.3901587301588	50	127
522.3901587301588	522.5062585034013	52	127
522.3901587301588	522.5062585034013	40	127
522.5062585034013	522.622358276644	54	127
522.5062585034013	522.622358276644	42	127
522.622358276644	522.7036281179138	55	127
522.622358276644	522.7036281179138	43	127
522.7036281179138	522.796507936508	57	127
522.7036281179138	522.796507936508	45	127
522.796507936508	522.9126077097505	59	127
522.796507936508	522.9126077097505	47	127
522.9126077097505	523.0287074829932	61	127
522.9126077097505	523.0287074829932	49	127
523.0287074829932	523.1331972789116	62	127
523.0287074829932	523.1331972789116	50	127
523.1331972789116	523.2260770975057	64	127
523.1331972789116	523.2260770975057	52	127
523.2260770975057	523.3421768707483	66	127
523.2260770975057	523.3421768707483	54	127
523.3421768707483	523.458276643991	55	127
523.3421768707483	523.458276643991	67	127
523.458276643991	523.551156462585	69	127
523.458276643991	523.551156462585	57	127
523.551156462585	523.5743764172336	71	127
523.551156462585	523.5743764172336	59	127
523.5743764172336	523.678843537415	73	127
523.5743764172336	523.678843537415	61	127
523.678843537415	523.7949659863946	74	127
523.678843537415	523.7949659863946	62	127
523.7949659863946	523.9226757369614	76	127
523.7949659863946	523.9226757369614	64	127
523.9226757369614	524.0387755102041	78	127
523.9226757369614	524.0387755102041	66	127
524.0387755102041	524.2361451247166	79	127
524.0387755102041	524.2361451247166	67	127
524.5031519274377	524.7585941043084	80	127
524.5031519274377	524.7585941043084	68	127
524.8746938775511	525.4203628117914	81	127
524.8746938775511	525.4203628117914	69	127
525.8731519274377	526.3375283446712	64	127
525.8731519274377	526.3375283446712	67	127
525.8731519274377	526.3375283446712	69	127
525.8731519274377	526.3375283446712	73	127
525.8731519274377	526.3375283446712	45	127
525.8731519274377	526.3375283446712	49	127
525.8731519274377	526.3375283446712	52	127
525.8731519274377	526.3375283446712	57	127
526.8135600907029	527.4869387755102	62	127
526.8135600907029	527.4869387755102	66	127
526.8135600907029	527.4869387755102	69	127
526.8135600907029	527.4869387755102	74	127
526.8135600907029	527.4869387755102	38	127
526.8135600907029	527.4869387755102	42	127
526.8135600907029	527.4869387755102	45	127
526.8135600907029	527.4869387755102	50	127
