# onset,offset,note,velocity
0.08049886621315193	0.2198185941043084	57	127
0.08049886621315193	3.5402721088435376	66	127
0.2198185941043084	3.5402721088435376	74	127
3.8769614512471655	4.004671201814059	69	127
4.004671201814059	4.120748299319728	74	127
4.120748299319728	4.294897959183674	78	127
4.689659863945578	4.817369614512471	74	127
4.817369614512471	4.921859410430839	78	127
4.921859410430839	5.0495691609977325	81	127
5.38625850340136	5.490748299319728	81	127
5.490748299319728	5.606848072562358	78	127
5.606848072562358	5.815827664399093	74	127
6.7562358276643995	6.849115646258503	78	127
6.849115646258503	6.930385487528345	74	127
6.930385487528345	7.069705215419501	69	127
7.452834467120182	7.580544217687075	74	127
7.580544217687075	7.696643990929705	69	127
7.696643990929705	7.847573696145124	66	127
8.195873015873016	8.323582766439909	69	127
8.323582766439909	8.43968253968254	66	127
8.43968253968254	8.613832199546485	62	127
9.147891156462585	9.252380952380953	69	127
9.252380952380953	10.819727891156463	81	127
10.819727891156463	11.562766439909296	78	127
11.562766439909296	11.678866213151927	74	127
11.678866213151927	11.829795918367347	73	127
12.329024943310658	12.421904761904761	69	127
12.421904761904761	14.012471655328799	79	127
14.012471655328799	14.685850340136055	76	127
14.685850340136055	14.801950113378684	73	127
14.801950113378684	14.941269841269841	74	127
15.568208616780046	17.054285714285715	74	127
17.054285714285715	17.785714285714285	74	127
17.8437641723356	19.051201814058956	74	127
19.051201814058956	19.271791383219956	73	127
19.271791383219956	19.434331065759636	71	127
19.48077097505669	19.67814058956916	71	127
19.67814058956916	19.89873015873016	69	127
19.89873015873016	20.119319727891156	67	127
20.119319727891156	20.305079365079365	66	127
20.351519274376418	20.44439909297052	66	127
20.44439909297052	20.595328798185943	64	127
20.595328798185943	20.792698412698414	62	127
20.792698412698414	20.978458049886623	61	127
21.024897959183672	21.19904761904762	62	127
21.19904761904762	21.361587301587303	66	127
21.361587301587303	21.59378684807256	69	127
21.59378684807256	21.81437641723356	67	127
21.81437641723356	22.023356009070294	66	127
22.023356009070294	22.232312925170067	64	127
22.232312925170067	22.46453514739229	62	127
22.46453514739229	22.627074829931974	61	127
22.627074829931974	22.789614512471655	62	127
22.789614512471655	22.9637641723356	64	127
22.9637641723356	23.091473922902495	66	127
23.091473922902495	23.288843537414966	67	127
23.288843537414966	23.474603174603175	69	127
23.474603174603175	23.69517006802721	71	127
23.69517006802721	23.892562358276646	73	127
23.892562358276646	24.055102040816326	74	127
24.10154195011338	24.26408163265306	69	127
24.26408163265306	24.461451247165535	73	127
24.461451247165535	24.68204081632653	76	127
24.68204081632653	24.856190476190477	74	127
24.856190476190477	25.06517006802721	73	127
25.06517006802721	25.297369614512473	71	127
25.297369614512473	25.506349206349206	69	127
25.506349206349206	25.657278911564624	68	127
25.657278911564624	25.843038548752833	69	127
25.843038548752833	26.028798185941042	71	127
26.028798185941042	26.23777777777778	73	127
26.23777777777778	26.388707482993198	74	127
26.388707482993198	26.551247165532878	76	127
26.551247165532878	26.771836734693878	78	127
26.771836734693878	26.98081632653061	79	127
26.98081632653061	27.120136054421767	76	127
27.16657596371882	27.317505668934242	74	127
27.317505668934242	27.46843537414966	78	127
27.46843537414966	27.66580498866213	81	127
27.66580498866213	27.874784580498865	79	127
27.874784580498865	28.04893424036281	78	127
28.04893424036281	28.23469387755102	76	127
28.23469387755102	28.455283446712016	74	127
28.455283446712016	28.65265306122449	73	127
28.65265306122449	28.8384126984127	74	127
28.8384126984127	29.00095238095238	76	127
29.00095238095238	29.140272108843536	78	127
29.140272108843536	29.349251700680274	79	127
29.349251700680274	29.558231292517007	81	127
29.558231292517007	29.79043083900227	83	127
29.79043083900227	29.976190476190474	84	127
29.976190476190474	30.13873015873016	85	127
30.161950113378683	30.243219954648527	86	127
30.33609977324263	30.45219954648526	86	127
30.45219954648526	30.672789115646257	85	127
30.672789115646257	30.893378684807256	86	127
30.893378684807256	31.090748299319728	85	127
31.090748299319728	31.311337868480727	86	127
31.311337868480727	31.48548752834467	88	127
31.48548752834467	31.624807256235826	86	127
31.67124716553288	31.93827664399093	85	127
31.93827664399093	32.10081632653061	86	127
32.10081632653061	32.24013605442177	88	127
32.24013605442177	32.414263038548754	86	127
32.414263038548754	32.58843537414966	85	127
32.58843537414966	32.69292517006803	86	127
32.69292517006803	32.82063492063492	88	127
32.82063492063492	33.01800453514739	86	127
33.06444444444445	33.42433106575964	85	127
33.84231292517007	33.92358276643991	57	127
33.92358276643991	34.03968253968254	67	127
34.03968253968254	34.144172335600906	66	127
34.144172335600906	34.26027210884354	67	127
34.26027210884354	34.364761904761906	69	127
34.364761904761906	34.43439909297052	67	127
34.43439909297052	34.515691609977324	66	127
34.515691609977324	34.585351473922906	67	127
34.59696145124717	34.98009070294785	79	127
36.988616780045355	37.093106575963716	66	127
37.093106575963716	37.17437641723356	74	127
37.17437641723356	37.29047619047619	73	127
37.29047619047619	37.40657596371882	74	127
37.40657596371882	37.52267573696145	76	127
37.52267573696145	37.54589569160998	74	127
37.54589569160998	37.66199546485261	73	127
37.66199546485261	37.74324263038549	74	127
37.754875283446715	38.1031746031746	78	127
40.07687074829932	40.19297052154195	57	127
40.19297052154195	40.27421768707483	67	127
40.27421768707483	40.37873015873016	66	127
40.37873015873016	40.50643990929705	67	127
40.50643990929705	40.62253968253968	69	127
40.62253968253968	40.73863945578231	67	127
40.73863945578231	40.85473922902494	66	127
40.85473922902494	40.94761904761905	67	127
40.970839002267574	41.48167800453515	79	127
41.48167800453515	41.59777777777778	78	127
41.59777777777778	41.71387755102041	76	127
41.71387755102041	41.82997732426304	74	127
41.82997732426304	41.91124716553288	73	127
41.91124716553288	42.02734693877551	71	127
42.02734693877551	42.13183673469388	69	127
42.13183673469388	42.236326530612246	67	127
42.236326530612246	42.35242630385488	66	127
42.35242630385488	42.44530612244898	64	127
42.44530612244898	42.549795918367344	62	127
42.549795918367344	42.665895691609975	61	127
42.665895691609975	44.22163265306123	62	127
44.22163265306123	44.31451247165533	62	127
44.22163265306123	44.31451247165533	69	127
44.31451247165533	45.30136054421769	78	127
45.30136054421769	45.405850340136055	77	127
45.405850340136055	45.510340136054424	78	127
45.510340136054424	45.603197278911566	79	127
45.603197278911566	45.70770975056689	78	127
45.70770975056689	45.800589569161	77	127
45.800589569161	45.88185941043084	78	127
45.90507936507937	46.29981859410431	86	127
47.51886621315193	48.55215419501134	86	127
48.55215419501134	48.66825396825397	85	127
48.66825396825397	48.76113378684807	86	127
48.76113378684807	48.85401360544218	88	127
48.85401360544218	48.97011337868481	86	127
48.97011337868481	49.05138321995465	85	127
49.05138321995465	49.0978231292517	86	127
49.121043083900226	49.57383219954649	76	127
50.78126984126984	51.28049886621315	76	127
51.28049886621315	51.50108843537415	78	127
51.50108843537415	51.73328798185941	80	127
51.73328798185941	51.860997732426306	81	127
51.860997732426306	52.09319727891157	83	127
52.09319727891157	52.27895691609977	85	127
52.3021768707483	53.28902494331066	86	127
53.28902494331066	53.323854875283445	85	127
53.323854875283445	53.40512471655329	83	127
53.40512471655329	53.498004535147395	81	127
53.498004535147395	53.590884353741494	80	127
53.590884353741494	53.69537414965986	78	127
53.69537414965986	53.765034013605444	76	127
53.78825396825397	53.881133786848075	74	127
53.985623582766436	54.043673469387755	73	127
54.043673469387755	54.10172335600907	71	127
54.10172335600907	54.2178231292517	69	127
54.2178231292517	54.34553287981859	68	127
54.34553287981859	54.4384126984127	66	127
54.4384126984127	54.51968253968254	64	127
54.54290249433107	54.740272108843534	62	127
54.92603174603175	55.076961451247165	62	127
55.30916099773243	55.529750566893426	61	127
55.71551020408163	55.91287981859411	73	127
56.47015873015873	56.8881179138322	73	127
56.8881179138322	57.050657596371884	75	127
57.259637188208615	57.41056689342403	75	127
58.00267573696145	58.35097505668934	75	127
58.35097505668934	58.525124716553286	76	127
58.75732426303855	59.40748299319728	86	127
59.40748299319728	59.465532879818596	85	127
59.465532879818596	59.54680272108843	83	127
59.54680272108843	59.62807256235828	81	127
59.62807256235828	59.74417233560091	80	127
59.74417233560091	59.848662131519276	78	127
59.848662131519276	59.895102040816326	76	127
59.91832199546485	60.03442176870748	74	127
60.10408163265306	60.19696145124716	73	127
60.19696145124716	60.266621315192744	71	127
60.266621315192744	60.35950113378685	69	127
60.35950113378685	60.47560090702948	68	127
60.47560090702948	60.58009070294784	66	127
60.58009070294784	60.67297052154195	64	127
60.69619047619047	60.928390022675735	62	127
61.09092970521542	61.28829931972789	62	127
61.416009070294784	62.98335600907029	61	127
62.98335600907029	64.57392290249433	63	127
64.57392290249433	64.70163265306122	64	127
64.82934240362812	64.95705215419501	66	127
64.95705215419501	65.07312925170068	68	127
65.07312925170068	65.177641723356	69	127
65.177641723356	65.29374149659864	71	127
65.29374149659864	65.37501133786849	73	127
65.37501133786849	65.43306122448979	75	127
65.43306122448979	65.51433106575963	76	127
65.60721088435375	65.71167800453514	78	127
65.71167800453514	65.82780045351474	80	127
65.82780045351474	65.92068027210884	83	127
65.92068027210884	66.01356009070295	85	127
66.01356009070295	66.08321995464853	87	127
66.10643990929705	66.45471655328798	88	127
74.51206349206349	75.10417233560091	62	127
75.10417233560091	75.82399092970522	78	127
75.82399092970522	76.00975056689343	74	127
76.05619047619048	76.47412698412698	78	127
76.47412698412698	76.72954648526077	76	127
76.72954648526077	76.97337868480726	74	127
76.97337868480726	77.17074829931973	73	127
77.21718820861678	77.42616780045351	76	127
77.42616780045351	77.54226757369615	74	127
77.54226757369615	77.70480725623582	73	127
77.70480725623582	77.89056689342404	71	127
77.91378684807256	78.1343537414966	74	127
78.1343537414966	78.27369614512472	73	127
78.27369614512472	78.48267573696145	71	127
78.48267573696145	78.66843537414967	69	127
78.71487528344672	78.88902494331066	73	127
78.88902494331066	79.0980045351474	71	127
79.0980045351474	79.26054421768707	69	127
79.26054421768707	79.43469387755103	68	127
79.43469387755103	79.65528344671202	66	127
79.65528344671202	79.86426303854876	64	127
79.86426303854876	80.08485260770975	66	127
80.08485260770975	80.25900226757369	68	127
80.30541950113378	81.21102040816326	71	127
81.21102040816326	81.5592970521542	69	127
82.3952380952381	82.74353741496599	81	127
82.74353741496599	82.90607709750567	78	127
83.17310657596371	83.57943310657596	80	127
83.57943310657596	83.71877551020408	77	127
83.95097505668934	84.38054421768707	78	127
84.38054421768707	84.51986394557824	75	127
84.7172335600907	85.08875283446712	76	127
85.08875283446712	85.27451247165533	73	127
85.56476190476191	86.33102040816327	74	127
86.33102040816327	86.50517006802721	70	127
86.70253968253968	86.88829931972789	71	127
87.10888888888888	87.34108843537415	66	127
87.52684807256236	87.7009977324263	59	127
87.93319727891156	88.09573696145125	66	127
88.09573696145125	88.2350566893424	71	127
88.2350566893424	88.3627664399093	74	127
88.39759637188209	89.00131519274376	78	127
89.00131519274376	89.19868480725624	74	127
89.19868480725624	89.33800453514739	78	127
89.33800453514739	89.46571428571428	76	127
89.48893424036281	89.58181405895692	74	127
89.66308390022675	89.69791383219955	73	127
89.75596371882087	89.81399092970521	72	127
89.88367346938776	89.9649433106576	73	127
90.04619047619047	90.1507029478458	76	127
90.1507029478458	90.23197278911564	74	127
90.25519274376417	90.33646258503401	73	127
90.39451247165533	90.44095238095238	71	127
90.4990022675737	90.55702947845805	70	127
90.63832199546485	90.70795918367347	71	127
90.78925170068027	90.89374149659864	74	127
90.89374149659864	91.00984126984127	73	127
91.04467120181405	91.11433106575964	71	127
91.19557823129252	91.25365079365079	69	127
91.33492063492064	91.40458049886621	68	127
91.48585034013605	91.5322902494331	69	127
91.5787074829932	91.66	73	127
91.66	91.78770975056689	71	127
91.81092970521541	91.880589569161	69	127
91.95024943310658	92.01990929705215	68	127
92.101179138322	92.15922902494331	66	127
92.1940589569161	92.24049886621316	64	127
92.31015873015873	92.39142857142858	62	127
92.46108843537415	92.48430839002268	66	127
92.56557823129252	92.61201814058957	64	127
92.6352380952381	92.70489795918367	62	127
92.78616780045351	92.85580498866213	61	127
92.93709750566893	93.00675736961452	59	127
93.08802721088435	93.47113378684807	57	127
95.35197278911565	96.09501133786848	69	127
96.09501133786848	96.22272108843538	69	127
96.22272108843538	98.12675736961451	81	127
98.12675736961451	98.13836734693878	83	127
98.13836734693878	98.1615873015873	80	127
98.1615873015873	98.18480725623583	81	127
98.1964172335601	98.2892970521542	83	127
98.39378684807257	98.50988662131519	81	127
98.62598639455783	98.7304761904762	81	127
98.8233560090703	98.9162358276644	79	127
99.02072562358276	99.12521541950113	78	127
99.2297052154195	99.34580498866214	79	127
99.45029478458049	100.12367346938775	77	127
100.12367346938775	100.44875283446711	78	127
101.74907029478459	102.49210884353741	76	127
102.49210884353741	102.51532879818595	76	127
102.57337868480725	103.73437641723356	88	127
103.73437641723356	103.82725623582766	88	127
103.82725623582766	103.9433560090703	86	127
103.9433560090703	104.05945578231292	85	127
104.05945578231292	104.15233560090702	83	127
104.17555555555556	104.39614512471655	85	127
105.65002267573696	105.75451247165533	76	127
105.75451247165533	106.82263038548753	88	127
106.82263038548753	106.93873015873015	88	127
106.93873015873015	107.04321995464852	86	127
107.04321995464852	107.15931972789116	84	127
107.15931972789116	107.240589569161	83	127
107.26380952380953	107.47278911564626	84	127
108.73827664399093	108.85437641723357	72	127
108.85437641723357	110.07342403628118	84	127
110.07342403628118	110.1895238095238	84	127
110.1895238095238	110.2591836734694	82	127
110.2591836734694	110.37528344671202	81	127
110.37528344671202	110.46816326530612	79	127
110.49138321995464	110.68875283446712	81	127
111.97746031746031	112.09356009070295	60	127
112.09356009070295	113.28938775510204	72	127
113.28938775510204	113.40548752834466	72	127
113.40548752834466	113.49836734693878	70	127
113.49836734693878	113.6144671201814	69	127
113.6144671201814	113.67251700680272	67	127
113.68412698412699	113.86988662131519	69	127
114.85673469387756	115.26308390022676	57	127
115.26308390022676	115.4372335600907	62	127
116.47052154195012	116.88848072562358	62	127
116.88848072562358	117.07424036281179	55	127
118.04947845804989	118.47904761904762	60	127
118.47904761904762	118.64158730158731	72	127
118.8970068027211	119.03632653061224	70	127
119.24530612244898	119.44267573696145	69	127
119.61682539682539	119.8025850340136	67	127
120.04639455782313	120.1508843537415	65	127
120.25537414965986	120.35986394557823	84	127
120.47596371882086	120.59206349206349	82	127
120.69655328798186	120.8126530612245	81	127
120.92875283446712	121.33510204081632	79	127
121.33510204081632	121.61374149659864	77	127
121.95043083900227	122.05492063492063	77	127
122.17102040816326	122.27551020408163	76	127
122.39160997732426	122.49609977324263	74	127
122.61219954648526	122.94888888888889	72	127
122.94888888888889	123.27396825396825	71	127
123.50616780045351	123.61065759637188	74	127
123.73836734693877	123.84285714285714	72	127
123.95895691609978	124.00539682539683	71	127
124.0750566893424	124.43496598639456	69	127
124.43496598639456	124.80648526077097	68	127
126.9659410430839	127.3722902494331	59	127
127.3722902494331	127.76702947845806	62	127
127.76702947845806	128.09208616780046	68	127
128.53328798185942	128.9512471655329	61	127
128.9512471655329	129.34598639455783	64	127
129.34598639455783	129.65945578231293	70	127
130.7043537414966	130.9249433106576	66	127
130.9249433106576	131.13392290249433	64	127
131.13392290249433	131.34290249433107	62	127
131.34290249433107	131.52866213151927	61	127
131.52866213151927	131.74925170068028	59	127
131.74925170068028	131.958231292517	70	127
131.958231292517	132.09755102040816	71	127
132.1439909297052	132.3065306122449	73	127
132.3065306122449	132.5387074829932	74	127
132.5387074829932	132.77092970521542	78	127
132.77092970521542	132.9334693877551	74	127
132.97990929705216	133.58362811791383	74	127
133.58362811791383	133.79260770975057	73	127
133.79260770975057	133.97836734693877	71	127
133.97836734693877	134.1292970521542	69	127
134.1292970521542	134.3266439909297	68	127
134.3266439909297	134.5008163265306	66	127
134.5008163265306	134.79106575963718	64	127
134.8839455782313	135.05809523809523	78	127
135.05809523809523	135.24385487528346	76	127
135.24385487528346	135.40639455782312	74	127
135.40639455782312	135.60374149659864	73	127
135.60374149659864	135.75469387755103	71	127
135.75469387755103	135.92884353741496	69	127
135.975283446712	136.14943310657597	68	127
136.34680272108844	136.40485260770976	81	127
136.40485260770976	136.46290249433108	80	127
136.46290249433108	136.5441723356009	81	127
136.5441723356009	136.60222222222222	80	127
136.60222222222222	136.6718820861678	81	127
136.6718820861678	136.74154195011337	80	127
136.74154195011337	136.7995918367347	81	127
136.7995918367347	136.857641723356	80	127
136.857641723356	136.93891156462584	81	127
136.93891156462584	136.98532879818595	80	127
136.98532879818595	137.06662131519275	81	127
137.06662131519275	137.13625850340136	80	127
137.13625850340136	137.2059410430839	81	127
137.2059410430839	137.27560090702949	80	127
137.27560090702949	137.3336507936508	81	127
137.3336507936508	137.40331065759636	80	127
137.40331065759636	137.47297052154195	81	127
137.47297052154195	137.54263038548754	80	127
137.54263038548754	137.6006575963719	81	127
137.6006575963719	137.67034013605442	80	127
137.67034013605442	137.7515873015873	81	127
137.7515873015873	137.82126984126984	80	127
137.82126984126984	137.9025396825397	81	127
137.9025396825397	137.94897959183675	80	127
137.94897959183675	138.0070068027211	80	127
138.0070068027211	138.03024943310658	81	127
138.03024943310658	138.07668934240363	80	127
138.07668934240363	138.13473922902494	81	127
138.13473922902494	138.21600907029477	80	127
138.21600907029477	138.29727891156463	81	127
138.29727891156463	138.36691609977325	80	127
138.36691609977325	138.43659863945578	81	127
138.43659863945578	138.51784580498867	80	127
138.51784580498867	138.59913832199547	81	127
138.59913832199547	138.66879818594106	80	127
138.66879818594106	138.7152380952381	81	127
138.7152380952381	138.79650793650794	80	127
138.79650793650794	138.87775510204082	81	127
138.87775510204082	138.95904761904762	80	127
138.95904761904762	139.04031746031745	78	127
139.04031746031745	139.10997732426304	80	127
139.1215873015873	139.85301587301586	69	127
139.1215873015873	139.85301587301586	81	127
139.9691156462585	140.67732426303854	76	127
140.7818140589569	141.49002267573695	78	127
141.59451247165532	142.26789115646258	74	127
143.1154195011338	143.2315192743764	56	127
143.1154195011338	143.33600907029478	64	127
143.2315192743764	143.33600907029478	71	127
143.59142857142857	143.75396825396825	64	127
144.76403628117913	144.89174603174604	57	127
144.76403628117913	145.01945578231292	64	127
144.89174603174604	145.01945578231292	73	127
145.29809523809524	145.50707482993198	69	127
146.12240362811792	146.5635827664399	74	127
146.9467120181406	147.34145124716554	69	127
146.9467120181406	147.34145124716554	76	127
147.57365079365078	148.0148299319728	69	127
147.57365079365078	147.67814058956915	62	127
147.67814058956915	148.0148299319728	78	127
148.3282993197279	148.45600907029478	64	127
148.3282993197279	148.9204081632653	74	127
148.45600907029478	148.9204081632653	80	127
150.56902494331067	151.1263038548753	81	127
151.1263038548753	151.23079365079366	80	127
151.23079365079366	151.34687074829932	78	127
151.34687074829932	151.4629931972789	76	127
151.4629931972789	151.50943310657595	75	127
151.50943310657595	151.6022902494331	76	127
151.6022902494331	151.6835827664399	78	127
151.6835827664399	151.76485260770974	76	127
151.76485260770974	151.88095238095238	74	127
151.88095238095238	151.9390022675737	73	127
151.9390022675737	152.0318820861678	71	127
152.0318820861678	152.07832199546485	69	127
152.1015419501134	152.33374149659863	68	127
153.83142857142857	154.3190476190476	69	127
154.3190476190476	154.42353741496598	68	127
154.42353741496598	154.53963718820862	66	127
154.53963718820862	154.65573696145125	64	127
154.65573696145125	154.73700680272108	63	127
154.73700680272108	154.7950566893424	64	127
154.7950566893424	154.84149659863945	66	127
154.84149659863945	154.9575963718821	64	127
154.9575963718821	155.0504761904762	62	127
155.0504761904762	155.1433560090703	61	127
155.1433560090703	155.24784580498866	59	127
155.24784580498866	155.32911564625851	57	127
155.3639455782313	155.5148752834467	56	127
155.73546485260772	156.3043537414966	74	127
156.3043537414966	156.408820861678	73	127
156.408820861678	156.51331065759638	71	127
156.51331065759638	156.60621315192745	69	127
156.60621315192745	156.72231292517006	68	127
156.72231292517006	156.8384126984127	66	127
156.8384126984127	156.89646258503402	64	127
156.89646258503402	156.94290249433107	62	127
156.9661224489796	157.07061224489797	61	127
157.07061224489797	157.16349206349207	62	127
157.16349206349207	157.26798185941044	64	127
157.26798185941044	157.3724716553288	66	127
157.3724716553288	157.47696145124718	68	127
157.47696145124718	157.58145124716555	69	127
157.58145124716555	157.68591836734694	71	127
157.68591836734694	157.778820861678	73	127
157.778820861678	157.9065306122449	74	127
157.9065306122449	157.97619047619048	76	127
157.97619047619048	158.06907029478458	78	127
158.06907029478458	158.18517006802722	80	127
158.18517006802722	158.30124716553289	81	127
158.30124716553289	158.39414965986396	83	127
158.39414965986396	158.48702947845806	85	127
158.48702947845806	158.55666666666667	86	127
158.57990929705215	158.76566893424035	88	127
158.9746485260771	159.1952380952381	89	127
159.35777777777778	159.53190476190477	90	127
159.764126984127	159.92666666666668	93	127
160.12403628117914	160.62326530612245	76	127
160.99478458049887	161.13410430839002	64	127
160.99478458049887	161.43596371882086	74	127
161.13410430839002	161.43596371882086	80	127
161.8655328798186	162.00485260770975	57	127
161.8655328798186	162.00485260770975	64	127
162.00485260770975	162.46925170068027	73	127
162.00485260770975	162.46925170068027	81	127
163.79278911564626	163.86244897959185	57	127
163.79278911564626	164.9421768707483	66	127
163.86244897959185	164.9421768707483	74	127
165.20920634920634	165.3136961451247	69	127
165.3136961451247	165.42979591836735	74	127
165.42979591836735	165.5691156462585	78	127
166.0451247165533	166.1380045351474	74	127
166.1380045351474	166.24249433106576	78	127
166.24249433106576	166.4166439909297	81	127
166.91587301587302	167.03197278911566	81	127
167.03197278911566	167.13646258503402	78	127
167.13646258503402	167.34544217687076	74	127
168.34390022675737	168.44839002267574	78	127
168.44839002267574	168.5528798185941	74	127
168.5528798185941	168.7386394557823	69	127
169.2146485260771	169.34233560090703	74	127
169.34233560090703	169.45845804988662	69	127
169.45845804988662	169.63260770975057	66	127
170.05056689342405	170.13183673469388	69	127
170.13183673469388	170.24793650793652	66	127
170.24793650793652	170.4336961451247	62	127
170.95614512471656	171.0838321995465	69	127
171.0838321995465	172.697641723356	81	127
172.697641723356	173.37102040816328	78	127
173.37102040816328	173.48709750566894	74	127
173.48709750566894	173.66126984126984	73	127
174.16049886621315	174.27659863945578	69	127
174.27659863945578	175.92521541950114	79	127
175.92521541950114	176.64503401360545	76	127
176.64503401360545	176.76113378684806	73	127
176.76113378684806	176.93528344671202	74	127
177.5390022675737	179.18761904761905	74	127
179.18761904761905	179.90743764172336	74	127
180.023537414966	181.2077551020408	74	127
181.2077551020408	181.41673469387754	73	127
181.41673469387754	181.61408163265307	71	127
181.66052154195012	181.86950113378686	71	127
181.86950113378686	182.0901133786848	69	127
182.0901133786848	182.32231292517008	67	127
182.32231292517008	182.496462585034	66	127
182.54290249433106	182.70544217687075	66	127
182.70544217687075	182.8447619047619	64	127
182.8447619047619	183.07696145124717	62	127
183.07696145124717	183.26272108843537	61	127
183.3207709750567	183.4717006802721	62	127
183.4717006802721	183.51814058956916	66	127
183.51814058956916	183.7271201814059	69	127
183.7271201814059	183.95931972789117	67	127
183.95931972789117	184.17990929705215	66	127
184.17990929705215	184.38888888888889	64	127
184.38888888888889	184.59786848072562	62	127
184.59786848072562	184.83004535147393	61	127
184.83004535147393	185.00421768707483	62	127
185.00421768707483	185.22480725623583	64	127
185.22480725623583	185.36412698412698	66	127
185.36412698412698	185.54986394557824	67	127
185.54986394557824	185.72403628117914	69	127
185.72403628117914	185.94462585034015	71	127
185.94462585034015	186.16521541950112	73	127
186.16521541950112	186.33936507936508	74	127
186.38580498866213	186.5599546485261	69	127
186.5599546485261	186.68766439909297	73	127
186.68766439909297	186.88503401360543	76	127
186.88503401360543	187.12884353741498	74	127
187.12884353741498	187.34943310657596	73	127
187.34943310657596	187.58163265306123	71	127
187.58163265306123	187.74414965986395	69	127
187.74414965986395	187.90671201814058	68	127
187.90671201814058	188.0924716553288	69	127
188.0924716553288	188.26662131519274	71	127
188.26662131519274	188.45238095238096	73	127
188.45238095238096	188.58009070294784	74	127
188.58009070294784	188.78907029478458	76	127
188.78907029478458	189.02124716553288	78	127
189.02124716553288	189.24185941043083	79	127
189.24185941043083	189.40439909297052	76	127
189.45083900226757	189.55532879818594	74	127
189.55532879818594	189.7294784580499	78	127
189.7294784580499	189.95006802721088	81	127
189.95006802721088	190.18226757369615	79	127
190.18226757369615	190.4144671201814	78	127
190.4144671201814	190.5073469387755	76	127
190.5073469387755	190.7279365079365	74	127
190.7279365079365	190.96013605442178	73	127
190.96013605442178	191.15750566893425	74	127
191.15750566893425	191.3897052154195	76	127
191.3897052154195	191.49419501133787	78	127
191.49419501133787	191.65673469387755	79	127
191.65673469387755	191.87732426303856	81	127
191.87732426303856	192.09791383219954	83	127
192.09791383219954	192.295283446712	84	127
192.295283446712	192.4229931972789	85	127
192.46943310657596	192.57392290249433	86	127
192.63197278911565	192.81773242630385	86	127
192.81773242630385	193.03832199546486	85	127
193.03832199546486	193.2473015873016	86	127
193.2473015873016	193.47950113378684	85	127
193.47950113378684	193.70009070294785	86	127
193.70009070294785	193.8742403628118	88	127
193.8742403628118	194.02517006802722	86	127
194.07160997732427	194.25736961451247	85	127
194.25736961451247	194.44312925170067	86	127
194.44312925170067	194.6521088435374	88	127
194.6521088435374	194.83786848072563	86	127
194.83786848072563	195.00040816326532	85	127
195.00040816326532	195.1281179138322	86	127
195.1281179138322	195.24421768707484	88	127
195.24421768707484	195.41836734693877	86	127
195.46480725623582	195.7898866213152	85	127
196.26589569160998	196.3819954648526	57	127
196.3819954648526	196.48648526077096	67	127
196.48648526077096	196.5793650793651	66	127
196.5793650793651	196.6722448979592	67	127
196.6722448979592	196.77673469387756	69	127
196.77673469387756	196.83478458049888	67	127
196.83478458049888	196.93927437641725	66	127
196.93927437641725	197.02054421768707	67	127
197.0437641723356	197.3920634920635	79	127
199.42380952380952	199.48185941043084	66	127
199.48185941043084	199.5863492063492	74	127
199.5863492063492	199.69083900226758	73	127
199.69083900226758	199.78371882086168	74	127
199.78371882086168	199.841768707483	76	127
199.841768707483	199.94625850340137	74	127
199.94625850340137	200.0275283446712	73	127
200.0275283446712	200.1204081632653	74	127
200.14362811791383	200.5615873015873	78	127
202.6281632653061	202.73265306122448	57	127
202.73265306122448	202.83714285714285	67	127
202.83714285714285	202.93002267573695	66	127
202.93002267573695	203.0461224489796	67	127
203.0461224489796	203.15061224489796	69	127
203.15061224489796	203.2667120181406	67	127
203.2667120181406	203.3595918367347	66	127
203.3595918367347	203.4524716553288	67	127
203.47569160997733	203.99814058956918	79	127
203.99814058956918	204.11424036281178	78	127
204.11424036281178	204.20712018140588	76	127
204.20712018140588	204.3	74	127
204.3	204.3928798185941	73	127
204.3928798185941	204.50897959183675	71	127
204.50897959183675	204.6134693877551	69	127
204.6134693877551	204.72956916099773	67	127
204.72956916099773	204.85727891156463	66	127
204.85727891156463	204.97337868480724	64	127
204.97337868480724	205.0778684807256	62	127
205.0778684807256	205.19396825396825	61	127
205.19396825396825	206.6219954648526	62	127
206.6219954648526	206.73809523809524	62	127
206.6219954648526	206.73809523809524	69	127
206.73809523809524	207.73655328798185	78	127
207.73655328798185	207.82943310657598	77	127
207.82943310657598	207.92231292517008	78	127
207.92231292517008	207.99197278911564	79	127
207.99197278911564	208.096462585034	78	127
208.096462585034	208.21256235827664	77	127
208.21256235827664	208.30544217687074	78	127
208.32866213151928	208.71179138321995	86	127
209.94244897959183	210.91768707482993	86	127
210.91768707482993	211.0221768707483	85	127
211.0221768707483	211.1150566893424	86	127
211.1150566893424	211.23115646258503	88	127
211.23115646258503	211.30081632653062	86	127
211.30081632653062	211.405306122449	85	127
211.405306122449	211.4981859410431	86	127
211.5214058956916	211.9277551020408	76	127
213.14680272108845	213.6228117913832	76	127
213.6228117913832	213.84340136054422	78	127
213.84340136054422	214.06399092970523	80	127
214.06399092970523	214.21492063492065	81	127
214.21492063492065	214.4471201814059	83	127
214.4471201814059	214.62126984126985	85	127
214.65609977324263	215.642947845805	86	127
215.642947845805	215.65455782312924	85	127
215.65455782312924	215.77065759637188	83	127
215.77065759637188	215.86353741496598	81	127
215.86353741496598	215.96802721088434	80	127
215.96802721088434	216.06090702947847	78	127
216.06090702947847	216.1421768707483	76	127
216.1653968253968	216.24666666666667	74	127
216.3627664399093	216.47886621315192	73	127
216.47886621315192	216.59496598639456	71	127
216.59496598639456	216.69945578231292	69	127
216.69945578231292	216.81555555555556	68	127
216.81555555555556	216.9548752834467	66	127
216.9548752834467	217.03614512471654	64	127
217.05936507936508	217.19868480725623	62	127
217.36122448979592	217.55859410430838	62	127
217.72113378684807	217.89528344671203	61	127
218.0926530612245	218.31324263038547	73	127
218.87052154195013	219.28848072562357	73	127
219.28848072562357	219.4742403628118	75	127
219.68321995464854	219.8457596371882	75	127
220.39142857142858	220.8209977324263	75	127
220.8209977324263	221.00675736961452	76	127
221.14607709750567	221.74979591836734	86	127
221.74979591836734	221.86589569160998	85	127
221.86589569160998	221.98199546485262	83	127
221.98199546485262	222.08648526077098	81	127
222.08648526077098	222.1445351473923	80	127
222.1445351473923	222.22580498866213	78	127
222.22580498866213	222.31868480725623	76	127
222.34190476190477	222.43478458049887	74	127
222.5160544217687	222.6089342403628	73	127
222.6089342403628	222.69020408163266	71	127
222.69020408163266	222.79469387755103	69	127
222.79469387755103	222.9224036281179	68	127
222.9224036281179	223.02689342403627	66	127
223.02689342403627	223.11977324263037	64	127
223.1429931972789	223.28231292517006	62	127
223.43324263038548	223.63061224489795	62	127
223.83959183673468	225.38371882086167	61	127
225.38371882086167	226.89301587301588	63	127
226.89301587301588	227.02072562358276	64	127
227.1600453514739	227.28775510204082	66	127
227.28775510204082	227.4154648526077	68	127
227.4154648526077	227.53156462585034	69	127
227.53156462585034	227.6360544217687	71	127
227.6360544217687	227.74054421768707	73	127
227.74054421768707	227.78698412698412	75	127
227.7985941043084	227.90308390022676	76	127
228.00757369614513	228.0424036281179	78	127
228.0424036281179	228.0772335600907	80	127
228.0772335600907	228.15850340136055	81	127
228.15850340136055	228.2746031746032	83	127
228.2746031746032	228.36748299319729	85	127
228.36748299319729	228.44875283446711	87	127
228.47197278911565	228.87832199546486	88	127
236.78471655328798	237.22589569160996	62	127
237.22589569160996	238.0385941043084	78	127
238.0385941043084	238.28240362811792	74	127
238.34045351473924	238.60748299319727	78	127
238.60748299319727	238.8512925170068	76	127
238.8512925170068	239.0718820861678	74	127
239.0718820861678	239.2228117913832	73	127
239.2692517006803	239.48984126984126	76	127
239.48984126984126	239.71043083900227	74	127
239.71043083900227	239.80331065759637	73	127
239.80331065759637	239.97746031746033	71	127
240.02390022675738	240.20965986394557	74	127
240.20965986394557	240.37219954648526	73	127
240.37219954648526	240.54634920634922	71	127
240.54634920634922	240.75532879818593	69	127
240.82498866213152	241.01074829931972	73	127
241.01074829931972	241.2081179138322	71	127
241.2081179138322	241.41709750566892	69	127
241.41709750566892	241.5796371882086	68	127
241.5796371882086	241.73056689342403	66	127
241.73056689342403	241.92793650793652	64	127
241.92793650793652	242.11369614512472	66	127
242.11369614512472	242.3110657596372	68	127
242.35750566893424	243.18181405895692	71	127
243.18181405895692	243.55333333333334	69	127
244.38925170068026	244.71433106575964	81	127
244.71433106575964	244.8884807256236	78	127
245.1671201814059	245.61990929705215	80	127
245.61990929705215	245.80566893424037	77	127
246.03786848072562	246.362947845805	78	127
246.362947845805	246.53709750566892	75	127
246.78090702947847	247.14081632653063	76	127
247.14081632653063	247.29174603174604	73	127
247.59360544217688	248.29020408163265	74	127
248.29020408163265	248.51079365079366	70	127
248.73138321995464	248.9635827664399	71	127
249.17256235827665	249.35832199546485	66	127
249.57891156462586	249.76467120181405	59	127
250.0317006802721	250.1942403628118	66	127
250.1942403628118	250.33356009070295	71	127
250.33356009070295	250.44965986394558	74	127
250.48448979591836	250.98371882086167	78	127
250.98371882086167	251.1694784580499	74	127
251.1694784580499	251.29718820861677	78	127
251.29718820861677	251.40167800453514	76	127
251.43650793650792	251.5061678004535	74	127
251.58743764172337	251.65709750566893	73	127
251.71514739229025	251.7615873015873	72	127
251.81963718820862	251.86607709750567	73	127
251.91251700680272	252.06344671201813	76	127
252.06344671201813	252.17954648526077	74	127
252.21437641723355	252.2608163265306	73	127
252.30725623582765	252.35369614512473	71	127
252.4233560090703	252.4814058956916	70	127
252.56267573696144	252.63233560090703	71	127
252.71360544217688	252.84131519274376	74	127
252.84131519274376	252.96902494331067	73	127
252.99224489795918	253.06190476190477	71	127
253.13156462585033	253.2128344671202	69	127
253.28249433106575	253.34054421768707	68	127
253.3637641723356	253.44503401360544	69	127
253.5263038548753	253.63079365079366	73	127
253.63079365079366	253.7120634920635	71	127
253.73528344671203	253.8049433106576	69	127
253.87460317460318	253.9326530612245	68	127
254.01392290249433	254.08358276643992	66	127
254.13002267573697	254.17646258503402	64	127
254.2461224489796	254.32739229024943	62	127
254.40866213151926	254.4551020408163	66	127
254.5015419501134	254.54798185941044	64	127
254.57120181405895	254.64086167800454	62	127
254.72213151927437	254.80340136054423	61	127
254.8730612244898	254.9311111111111	59	127
255.0007709750567	255.48839002267573	57	127
257.3575963718821	258.0774149659864	69	127
258.0774149659864	258.1702947845805	69	127
258.1702947845805	260.06272108843535	81	127
260.06272108843535	260.0859410430839	83	127
260.0859410430839	260.10916099773243	81	127
260.10916099773243	260.14399092970524	80	127
260.14399092970524	260.1555782312925	81	127
260.1555782312925	260.23687074829934	83	127
260.31814058956917	260.4342403628118	81	127
260.5387301587302	260.64321995464854	81	127
260.7477097505669	260.8521995464853	79	127
260.9682993197279	261.08437641723356	78	127
261.2121088435374	261.3165986394558	79	127
261.4326984126984	262.18734693877553	77	127
262.18734693877553	262.5240362811791	78	127
263.81274376417235	264.53256235827666	76	127
264.53256235827666	264.5557596371882	76	127
264.62544217687076	265.74	88	127
265.74	265.8444897959184	88	127
265.8444897959184	265.960589569161	86	127
265.960589569161	266.07668934240365	85	127
266.07668934240365	266.16956916099775	83	127
266.1927664399093	266.3669387755102	85	127
267.7020861678005	267.8181859410431	76	127
267.8181859410431	269.0024036281179	88	127
269.0024036281179	269.11850340136056	88	127
269.11850340136056	269.2229931972789	86	127
269.2229931972789	269.30426303854875	84	127
269.30426303854875	269.3855328798186	83	127
269.4087528344671	269.62934240362813	84	127
270.88321995464855	270.9877097505669	72	127
270.9877097505669	272.11385487528344	84	127
272.11385487528344	272.20675736961454	84	127
272.20675736961454	272.3228344671202	82	127
272.3228344671202	272.43895691609976	81	127
272.43895691609976	272.5318140589569	79	127
272.5550566893424	272.76403628117913	81	127
273.98308390022675	274.0991836734694	60	127
274.0991836734694	275.34145124716554	72	127
275.34145124716554	275.4575510204082	72	127
275.4575510204082	275.5736507936508	70	127
275.5736507936508	275.7013378684807	69	127
275.7013378684807	275.7942176870748	67	127
275.84068027210884	276.00319727891156	69	127
276.96684807256236	277.38480725623583	57	127
277.38480725623583	277.55895691609976	62	127
278.54580498866216	278.9869841269841	62	127
278.9869841269841	279.1263038548753	55	127
280.1247619047619	280.55433106575964	60	127
280.55433106575964	280.72848072562357	72	127
281.0071201814059	281.1580498866213	70	127
281.3786394557823	281.5643990929705	69	127
281.761768707483	281.982358276644	67	127
282.19133786848073	282.30743764172337	65	127
282.41192743764174	282.5512244897959	84	127
282.6673469387755	282.81827664399094	82	127
282.9343764172336	283.0504761904762	81	127
283.1433560090703	283.41038548752834	79	127
283.41038548752834	283.75868480725626	77	127
284.1069841269841	284.2114739229025	77	127
284.3275736961451	284.44367346938776	76	127
284.5597732426304	284.66426303854877	74	127
284.6990702947846	285.0241723356009	72	127
285.0241723356009	285.3724716553288	71	127
285.67433106575965	285.7904308390023	74	127
285.9065306122449	286.02260770975056	72	127
286.1270975056689	286.1967800453515	71	127
286.2315873015873	286.6495691609977	69	127
286.6495691609977	287.03269841269844	68	127
289.0992743764172	289.48240362811794	59	127
289.48240362811794	289.9119501133787	62	127
289.9119501133787	290.237052154195	68	127
290.7478911564626	291.119410430839	61	127
291.119410430839	291.47931972789115	64	127
291.47931972789115	291.8508163265306	70	127
292.9189569160998	293.11632653061224	66	127
293.11632653061224	293.325306122449	64	127
293.325306122449	293.52267573696145	62	127
293.52267573696145	293.7316553287982	61	127
293.7316553287982	293.9174149659864	59	127
293.9174149659864	294.14961451247166	70	127
294.14961451247166	294.27732426303857	71	127
294.3237641723356	294.5443537414966	73	127
294.5443537414966	294.74172335600906	74	127
294.74172335600906	294.9855328798186	78	127
294.9855328798186	295.15968253968254	74	127
295.2061224489796	295.8562811791383	74	127
295.8562811791383	296.0304308390023	73	127
296.0304308390023	296.2161904761905	71	127
296.2161904761905	296.4251700680272	69	127
296.4251700680272	296.59931972789116	68	127
296.59931972789116	296.7966893424036	66	127
296.7966893424036	297.0288888888889	64	127
297.121768707483	297.342358276644	78	127
297.342358276644	297.50489795918367	76	127
297.50489795918367	297.7138775510204	74	127
297.7138775510204	297.91124716553287	73	127
297.91124716553287	298.10861678004534	71	127
298.10861678004534	298.2479365079365	69	127
298.2943537414966	298.4685260770975	68	127
298.66589569161	298.7239455782313	81	127
298.7239455782313	298.7936054421769	80	127
298.7936054421769	298.86326530612246	81	127
298.86326530612246	298.932925170068	80	127
298.932925170068	299.00256235827663	81	127
299.00256235827663	299.0722448979592	80	127
299.0722448979592	299.14190476190475	81	127
299.14190476190475	299.18834467120183	80	127
299.18834467120183	299.2463945578231	81	127
299.2463945578231	299.3392743764172	80	127
299.3392743764172	299.40893424036284	81	127
299.40893424036284	299.4437641723356	80	127
299.4437641723356	299.5134013605442	81	127
299.5134013605442	299.54825396825396	80	127
299.54825396825396	299.59469387755104	81	127
299.59469387755104	299.6643537414966	80	127
299.6643537414966	299.7456235827664	81	127
299.7456235827664	299.8268707482993	80	127
299.8268707482993	299.8965532879819	81	127
299.8965532879819	299.9429931972789	80	127
299.9429931972789	300.0242403628118	81	127
300.0242403628118	300.09392290249434	80	127
300.09392290249434	300.17519274376417	81	127
300.17519274376417	300.256462585034	80	127
300.256462585034	300.2912925170068	81	127
300.2912925170068	300.3493424036281	80	127
300.3493424036281	300.36095238095237	81	127
300.36095238095237	300.430612244898	80	127
300.430612244898	300.50027210884355	81	127
300.50027210884355	300.5699319727891	80	127
300.5699319727891	300.6395691609977	81	127
300.6395691609977	300.7092517006803	80	127
300.7092517006803	300.77891156462584	81	127
300.77891156462584	300.81374149659865	80	127
300.81374149659865	300.8950113378685	81	127
300.8950113378685	300.9762811791383	80	127
300.9762811791383	301.04594104308393	81	127
301.04594104308393	301.12721088435376	80	127
301.12721088435376	301.1968707482993	81	127
301.1968707482993	301.2665306122449	80	127
301.2665306122449	301.34780045351476	78	127
301.34780045351476	301.4174603174603	80	127
301.44068027210886	302.03278911564627	69	127
301.44068027210886	302.03278911564627	81	127
302.1488888888889	302.8454875283447	76	127
302.9963945578231	303.66979591836736	78	127
303.79750566893426	304.5173242630386	74	127
305.4229024943311	305.5157823129252	56	127
305.4229024943311	305.7015419501134	64	127
305.5157823129252	305.7015419501134	71	127
305.9569387755102	306.17755102040815	64	127
307.141179138322	307.4198185941043	64	127
307.141179138322	307.2340589569161	57	127
307.2340589569161	307.4198185941043	73	127
307.71006802721087	307.9190476190476	69	127
308.5227664399093	308.90589569161	74	127
309.34707482993196	309.7185941043084	69	127
309.34707482993196	309.7185941043084	76	127
310.06689342403627	310.450022675737	69	127
310.06689342403627	310.15977324263037	62	127
310.15977324263037	310.450022675737	78	127
310.7751020408163	310.86795918367346	64	127
310.7751020408163	311.27430839002267	74	127
310.86795918367346	311.27430839002267	80	127
312.9577777777778	313.5266439909297	81	127
313.5266439909297	313.63113378684807	80	127
313.63113378684807	313.74725623582765	78	127
313.74725623582765	313.82850340136054	76	127
313.82850340136054	313.92140589569163	76	127
313.92140589569163	314.0374829931973	78	127
314.0374829931973	314.1187755102041	76	127
314.1187755102041	314.20004535147393	74	127
314.20004535147393	314.28131519274376	73	127
314.28131519274376	314.40902494331067	71	127
314.40902494331067	314.5251247165533	69	127
314.54832199546485	314.7457142857143	68	127
315.9995918367347	316.55687074829933	69	127
316.55687074829933	316.67297052154197	68	127
316.67297052154197	316.7890702947846	66	127
316.7890702947846	316.893537414966	64	127
316.893537414966	316.95160997732427	63	127
316.95160997732427	317.0328798185941	64	127
317.0328798185941	317.14897959183673	66	127
317.14897959183673	317.24185941043083	64	127
317.24185941043083	317.3579591836735	62	127
317.3579591836735	317.46244897959184	61	127
317.46244897959184	317.5785487528345	59	127
317.5785487528345	317.6598185941043	57	127
317.68303854875285	317.8804081632653	56	127
318.08938775510205	318.58861678004536	74	127
318.58861678004536	318.68149659863946	73	127
318.68149659863946	318.7859863945578	71	127
318.7859863945578	318.8904761904762	69	127
318.8904761904762	318.96013605442175	68	127
318.96013605442175	319.0762358276644	66	127
319.0762358276644	319.2039455782313	64	127
319.2039455782313	319.27360544217686	62	127
319.2968253968254	319.4361451247166	61	127
319.4361451247166	319.5522222222222	62	127
319.5522222222222	319.6451247165533	64	127
319.6451247165533	319.76120181405895	66	127
319.76120181405895	319.8656916099773	68	127
319.8656916099773	319.9353741496599	69	127
319.9353741496599	319.94698412698415	71	127
319.94698412698415	320.0630612244898	73	127
320.0630612244898	320.17918367346937	74	127
320.17918367346937	320.295283446712	76	127
320.295283446712	320.35333333333335	78	127
320.35333333333335	320.469433106576	80	127
320.469433106576	320.58551020408163	81	127
320.58551020408163	320.69002267573694	83	127
320.69002267573694	320.75968253968256	85	127
320.75968253968256	320.8293424036281	86	127
320.85256235827666	321.03832199546486	88	127
321.22408163265305	321.44467120181406	89	127
321.67687074829934	321.89746031746034	90	127
322.12965986394556	322.30380952380955	93	127
322.45473922902494	322.942358276644	76	127
323.3138775510204	323.42997732426306	64	127
323.3138775510204	323.7898866213152	74	127
323.42997732426306	323.7898866213152	80	127
324.17301587301586	324.3355555555556	57	127
324.17301587301586	324.3355555555556	64	127
324.3355555555556	324.9160544217687	73	127
324.3355555555556	324.9160544217687	81	127
326.37891156462587	327.0871201814059	77	127
327.1916099773243	327.9462358276644	72	127
328.062358276644	328.9098866213152	74	127
329.01437641723356	329.74580498866214	70	127
330.6281632653061	330.7326530612245	55	127
330.6281632653061	330.93002267573695	64	127
330.7326530612245	330.93002267573695	70	127
331.2086394557823	331.38281179138323	64	127
332.65990929705214	332.9269387755102	82	127
332.65990929705214	332.9269387755102	70	127
333.2171882086168	333.6119274376417	76	127
335.1560544217687	335.21410430839	72	127
335.21410430839	336.86272108843536	84	127
336.86272108843536	337.53609977324265	81	127
337.53609977324265	337.6521768707483	77	127
337.6521768707483	337.9772789115646	72	127
339.2543764172336	340.79850340136056	69	127
339.2543764172336	341.11197278911567	60	127
340.79850340136056	341.11197278911567	70	127
341.611201814059	343.1785260770975	82	127
343.1785260770975	343.84031746031746	79	127
343.84031746031746	343.93319727891156	76	127
343.9564172335601	344.8155328798186	70	127
344.8155328798186	345.1406349206349	69	127
345.5818140589569	347.4974603174603	57	127
345.5818140589569	347.1956009070295	67	127
347.1956009070295	347.4974603174603	65	127
348.01990929705215	349.5524263038549	81	127
349.5524263038549	350.24902494331064	77	127
350.24902494331064	350.353514739229	74	127
350.353514739229	350.527664399093	69	127
351.897641723356	353.49979591836734	75	127
351.897641723356	353.7900680272109	65	127
353.49979591836734	353.7900680272109	74	127
354.2660770975057	355.84503401360547	74	127
355.84503401360547	356.54163265306124	70	127
356.54163265306124	356.6461224489796	67	127
356.6461224489796	356.82027210884354	62	127
358.29473922902497	360.1987755102041	62	127
358.29473922902497	359.9781859410431	60	127
359.9781859410431	360.1987755102041	58	127
360.6399546485261	362.2305215419501	74	127
362.2305215419501	362.9619501133787	70	127
362.9619501133787	363.0548299319728	67	127
363.07804988662133	363.25219954648526	65	127
363.8210657596372	365.36519274376417	74	127
365.36519274376417	365.45807256235827	73	127
365.4697052154195	365.6902947845805	74	127
365.8992743764172	366.0734013605442	74	127
366.29401360544216	366.4101133786848	72	127
366.5378231292517	366.74680272108844	72	127
366.74680272108844	366.9790022675737	76	127
366.9790022675737	367.1647619047619	74	127
367.1647619047619	367.3621315192744	72	127
367.3621315192744	367.5478911564626	71	127
367.5478911564626	367.74526077097505	69	127
367.74526077097505	367.91938775510204	68	127
367.96585034013606	368.0471201814059	69	127
368.14	368.32573696145124	61	127
368.32573696145124	368.534716553288	64	127
368.534716553288	368.73208616780045	62	127
368.73208616780045	368.91786848072564	61	127
368.91786848072564	369.10362811791384	59	127
369.10362811791384	369.3358276643991	57	127
369.3358276643991	369.5215873015873	56	127
369.5563945578231	369.6492743764172	57	127
369.6492743764172	369.78861678004534	64	127
369.78861678004534	370.0208163265306	61	127
370.0208163265306	370.28784580498865	69	127
370.28784580498865	370.5316553287982	64	127
370.5316553287982	370.7522448979592	73	127
370.7522448979592	370.9380045351474	69	127
370.9380045351474	371.01927437641723	76	127
371.05410430839004	371.18179138321995	73	127
371.18179138321995	371.3791836734694	81	127
371.3791836734694	371.61138321995463	76	127
371.61138321995463	371.7971201814059	73	127
371.7971201814059	371.99451247165536	69	127
371.99451247165536	372.157052154195	76	127
372.157052154195	372.3195918367347	73	127
372.3195918367347	372.45891156462585	69	127
372.5169387755102	372.62142857142857	74	127
372.73755102040815	372.9349206349206	77	127
372.9349206349206	373.14390022675735	81	127
373.14390022675735	373.37609977324263	79	127
373.37609977324263	373.58507936507937	77	127
373.58507936507937	373.78244897959183	76	127
373.78244897959183	373.94496598639455	74	127
373.94496598639455	374.08430839002267	73	127
374.13074829931975	374.2352380952381	74	127
374.3048979591837	374.5254875283447	65	127
374.5254875283447	374.7112471655329	69	127
374.7112471655329	374.9202267573696	67	127
374.9202267573696	375.12920634920636	65	127
375.12920634920636	375.36140589569163	64	127
375.36140589569163	375.58197278911564	62	127
375.58197278911564	375.7445351473923	61	127
375.76775510204084	375.90707482993196	62	127
375.90707482993196	376.12766439909296	69	127
376.12766439909296	376.3366439909297	65	127
376.3366439909297	376.568843537415	74	127
376.568843537415	376.73138321995464	69	127
376.73138321995464	376.9055328798186	77	127
376.9055328798186	377.0680725623583	74	127
377.0680725623583	377.2538321995465	81	127
377.3118820861678	377.4163718820862	81	127
377.5324716553288	377.7530612244898	81	127
377.7530612244898	377.9620408163265	78	127
377.9620408163265	378.0549206349206	75	127
378.1013605442177	378.21746031746034	69	127
378.3219501133787	378.5077097505669	69	127
378.5077097505669	378.57736961451246	66	127
378.57736961451246	378.77473922902493	63	127
378.821179138322	378.93727891156465	64	127
379.0185487528345	379.18108843537414	67	127
379.18108843537414	379.3900680272109	71	127
379.3900680272109	379.5990476190476	69	127
379.5990476190476	379.7964172335601	67	127
379.7964172335601	379.98215419501133	66	127
379.98215419501133	380.16793650793653	64	127
380.16793650793653	380.35369614512473	63	127
380.38850340136054	380.5046258503401	64	127
380.58589569161	380.7716553287982	76	127
380.7716553287982	380.9922448979592	79	127
380.9922448979592	381.21283446712016	78	127
381.21283446712016	381.3637641723356	76	127
381.3637641723356	381.57274376417234	75	127
381.57274376417234	381.79333333333335	76	127
381.79333333333335	381.94426303854874	78	127
381.97909297052155	382.07197278911565	79	127
382.176462585034	382.3738321995465	79	127
382.3738321995465	382.5828117913832	83	127
382.5828117913832	382.7453514739229	81	127
382.7453514739229	382.9891609977324	79	127
382.9891609977324	383.1865306122449	78	127
383.1865306122449	383.39551020408163	79	127
383.39551020408163	383.56965986394556	81	127
383.60448979591837	383.767029478458	82	127
383.767029478458	383.9063492063492	83	127
383.9063492063492	384.1037188208617	81	127
384.1037188208617	384.33591836734695	79	127
384.33591836734695	384.5332879818594	78	127
384.5332879818594	384.77709750566896	76	127
384.77709750566896	385.0325170068027	74	127
385.05573696145126	385.14861678004536	57	127
385.05573696145126	386.23995464852607	66	127
385.14861678004536	386.23995464852607	74	127
386.53020408163263	386.64630385487527	69	127
386.64630385487527	386.7740136054422	74	127
386.7740136054422	386.9481632653061	78	127
387.3893424036281	387.4938321995465	74	127
387.4938321995465	387.6099319727891	78	127
387.6099319727891	387.7724716553288	81	127
388.1672108843537	388.28331065759636	81	127
388.28331065759636	388.42263038548754	78	127
388.42263038548754	388.68965986394556	74	127
389.6184580498866	389.722947845805	78	127
389.722947845805	389.8390476190476	74	127
389.8390476190476	390.01319727891155	69	127
390.37310657596373	390.46598639455783	74	127
390.46598639455783	390.5704761904762	69	127
390.5704761904762	390.7214058956916	66	127
391.15097505668933	391.27868480725624	69	127
391.27868480725624	391.37156462585034	66	127
391.37156462585034	391.5689342403628	62	127
392.1726530612245	392.27714285714285	69	127
392.27714285714285	393.9373696145125	81	127
393.9373696145125	394.6804081632653	78	127
394.6804081632653	394.79650793650796	74	127
394.79650793650796	394.9242176870748	73	127
395.4582766439909	395.5627664399093	69	127
395.5627664399093	397.21138321995466	79	127
397.21138321995466	397.98925170068026	76	127
397.98925170068026	398.0589115646259	73	127
398.0589115646259	398.24467120181407	74	127
398.8251700680272	400.47378684807256	74	127
400.47378684807256	401.1355555555556	74	127
401.25165532879817	402.51714285714286	74	127
402.51714285714286	402.73773242630386	73	127
402.73773242630386	402.92349206349206	71	127
402.98154195011335	403.1905215419501	71	127
403.1905215419501	403.4111111111111	69	127
403.4111111111111	403.62009070294783	67	127
403.62009070294783	403.79424036281176	66	127
403.8174603174603	403.98	66	127
403.98	404.15414965986395	64	127
404.15414965986395	404.3282993197279	62	127
404.3282993197279	404.5140589569161	61	127
404.56049886621315	404.7926984126984	62	127
404.7926984126984	404.9552380952381	66	127
404.9552380952381	405.1642176870748	69	127
405.1642176870748	405.33836734693875	67	127
405.33836734693875	405.5357369614512	66	127
405.5357369614512	405.7679365079365	64	127
405.7679365079365	405.9420861678004	62	127
405.9420861678004	406.1742857142857	61	127
406.1742857142857	406.3484353741497	62	127
406.3484353741497	406.5341950113379	64	127
406.5341950113379	406.69673469387754	66	127
406.69673469387754	406.89410430839	67	127
406.89410430839	407.04503401360546	69	127
407.04503401360546	407.26562358276647	71	127
407.26562358276647	407.4978231292517	73	127
407.4978231292517	407.69519274376415	74	127
407.74163265306123	407.95061224489797	69	127
407.95061224489797	408.1247619047619	73	127
408.1247619047619	408.3105215419501	76	127
408.3105215419501	408.42662131519273	74	127
408.42662131519273	408.6239909297052	73	127
408.6239909297052	408.8561904761905	71	127
408.8561904761905	409.05356009070294	69	127
409.05356009070294	409.2509297052154	68	127
409.2509297052154	409.45990929705215	69	127
409.45990929705215	409.6224489795918	71	127
409.6224489795918	409.761768707483	73	127
409.761768707483	409.91269841269843	74	127
409.91269841269843	410.08684807256236	76	127
410.08684807256236	410.31904761904764	78	127
410.31904761904764	410.55124716553286	79	127
410.55124716553286	410.7370068027211	76	127
410.77183673469386	410.9343764172336	75	127
410.9343764172336	411.1085260770975	78	127
411.1085260770975	411.3407256235828	81	127
411.3407256235828	411.5613151927438	79	127
411.5613151927438	411.793514739229	78	127
411.793514739229	411.9908843537415	76	127
411.9908843537415	412.18825396825395	75	127
412.18825396825395	412.3856235827664	73	127
412.3856235827664	412.6062131519274	71	127
412.6062131519274	412.7919727891156	73	127
412.7919727891156	412.9661224489796	75	127
412.9661224489796	413.1054421768707	76	127
413.1054421768707	413.3028117913832	78	127
413.3028117913832	413.5001814058957	79	127
413.5001814058957	413.7439909297052	81	127
413.7439909297052	413.91814058956913	78	127
413.9413605442177	414.08068027210885	76	127
414.08068027210885	414.2548299319728	78	127
414.2548299319728	414.4173696145125	79	127
414.4173696145125	414.6495691609977	81	127
414.6495691609977	414.85854875283445	83	127
414.85854875283445	415.102358276644	85	127
415.102358276644	415.322947845805	86	127
415.322947845805	415.45065759637185	87	127
415.4738775510204	416.40267573696144	88	127
416.40267573696144	416.57682539682537	86	127
416.57682539682537	416.7625850340136	85	127
416.7625850340136	416.913514739229	83	127
416.9599546485261	417.9003628117914	81	127
417.9003628117914	418.016462585034	80	127
418.016462585034	418.12095238095236	78	127
418.12095238095236	418.190612244898	74	127
418.190612244898	418.2834920634921	73	127
418.2834920634921	418.34154195011337	71	127
418.35315192743764	418.44603174603174	69	127
418.5505215419501	418.6550113378685	68	127
418.6550113378685	418.7711111111111	66	127
418.7711111111111	418.8639909297052	64	127
418.8639909297052	418.98009070294785	62	127
418.98009070294785	419.0497505668934	61	127
419.0497505668934	419.13102040816324	59	127
419.16585034013605	419.3748299319728	57	127
419.52575963718823	419.75795918367345	57	127
419.9437188208617	421.4530158730159	56	127
421.4530158730159	422.96231292517007	67	127
422.96231292517007	423.136462585034	69	127
423.310612244898	423.9027210884354	81	127
423.9027210884354	424.018820861678	80	127
424.018820861678	424.13492063492066	78	127
424.13492063492066	424.22780045351476	76	127
424.22780045351476	424.2626303854875	74	127
424.2626303854875	424.3555102040816	73	127
424.3555102040816	424.4367800453515	71	127
424.46	424.5760997732426	69	127
424.680589569161	424.7966893424036	68	127
424.7966893424036	424.91278911564626	66	127
424.91278911564626	425.00566893424036	64	127
425.00566893424036	425.04049886621317	62	127
425.04049886621317	425.11015873015873	61	127
425.11015873015873	425.19142857142856	59	127
425.19142857142856	425.3539682539683	57	127
425.6209977324263	425.8067573696145	67	127
426.01573696145124	426.20149659863944	65	127
426.20149659863944	426.3872562358277	62	127
426.3872562358277	426.6194557823129	65	127
426.6194557823129	426.7936054421769	62	127
426.7936054421769	426.95614512471656	65	127
426.95614512471656	427.1302947845805	62	127
427.1302947845805	427.3160544217687	65	127
427.3160544217687	427.4785941043084	62	127
427.5366439909297	427.7224036281179	65	127
427.7224036281179	427.90816326530614	62	127
427.90816326530614	428.09392290249434	65	127
428.09392290249434	428.3029024943311	62	127
428.3029024943311	428.5118820861678	65	127
428.5118820861678	428.68603174603174	62	127
428.68603174603174	428.8485714285714	61	127
428.8485714285714	429.0111111111111	62	127
429.0691609977324	429.138820861678	61	127
429.138820861678	429.2433106575964	57	127
429.2433106575964	429.37102040816325	59	127
429.37102040816325	429.4871201814059	61	127
429.4871201814059	429.59160997732425	62	127
429.59160997732425	429.7077097505669	64	127
429.7077097505669	429.82380952380953	66	127
429.82380952380953	429.91668934240363	68	127
429.9282993197279	430.03278911564627	69	127
430.13727891156464	430.2069387755102	71	127
430.2069387755102	430.28820861678	73	127
430.28820861678	430.35786848072564	74	127
430.35786848072564	430.4275283446712	76	127
430.4275283446712	430.53201814058957	78	127
430.53201814058957	430.6132879818594	80	127
430.63650793650794	430.78743764172333	81	127
439.6342403628118	440.0870294784581	71	127
440.0870294784581	440.78362811791385	83	127
440.78362811791385	440.9809977324263	79	127
441.02743764172334	441.56149659863945	83	127
441.56149659863945	441.78208616780046	81	127
441.78208616780046	442.01428571428573	79	127
442.01428571428573	442.20004535147393	78	127
442.24648526077095	442.47868480725623	81	127
442.47868480725623	442.7108843537415	79	127
442.7108843537415	442.8618140589569	78	127
442.8618140589569	443.04757369614515	76	127
443.09401360544217	443.3378231292517	79	127
443.3378231292517	443.4887528344671	78	127
443.4887528344671	443.6280725623583	76	127
443.6280725623583	443.79061224489794	74	127
443.8022222222222	444.0344217687075	78	127
444.0344217687075	444.26662131519276	76	127
444.26662131519276	444.4291609977324	74	127
444.4291609977324	444.60331065759635	73	127
444.60331065759635	444.7542403628118	71	127
444.7542403628118	444.9980498866213	69	127
444.9980498866213	445.18380952380954	71	127
445.18380952380954	445.3579591836735	73	127
445.41600907029476	446.30997732426306	76	127
446.30997732426306	446.704716553288	74	127
447.5174149659864	447.9353741496599	74	127
447.9353741496599	448.08630385487527	71	127
448.3068934240363	448.6435827664399	73	127
448.6435827664399	448.81773242630385	70	127
449.07315192743766	449.47950113378687	71	127
449.47950113378687	449.63043083900226	68	127
449.839410430839	450.2457596371882	69	127
450.2457596371882	450.39668934240365	66	127
450.64049886621314	451.4067573696145	67	127
451.4067573696145	451.58090702947845	63	127
451.81310657596373	452.03369614512474	64	127
452.26589569160996	452.40521541950113	59	127
452.6025850340136	452.81156462585034	64	127
453.0437641723356	453.2063038548753	71	127
453.2063038548753	453.368843537415	76	127
453.368843537415	453.5081632653061	79	127
453.5429931972789	454.0538321995465	83	127
454.0538321995465	454.2628117913832	79	127
454.2628117913832	454.4137414965986	83	127
454.4137414965986	454.52984126984126	81	127
454.5530612244898	454.62272108843536	79	127
454.70399092970524	454.76204081632653	78	127
454.84331065759636	454.88975056689344	77	127
454.959410430839	455.02907029478456	78	127
455.12195011337866	455.26126984126984	81	127
455.26126984126984	455.38897959183674	79	127
455.4121995464853	455.44702947845803	78	127
455.5050793650794	455.5515192743764	76	127
455.5863492063492	455.63278911564623	75	127
455.70244897959185	455.76049886621314	76	127
455.85337868480724	455.9578684807256	79	127
455.9578684807256	456.07396825396825	78	127
456.10879818594105	456.16684807256235	76	127
456.23650793650796	456.29455782312925	74	127
456.34099773242633	456.3990476190476	73	127
456.48031746031745	456.549977324263	74	127
456.6312471655329	456.75895691609975	78	127
456.75895691609975	456.8750566893424	76	127
456.8982766439909	456.97954648526076	74	127
457.02598639455783	457.07242630385485	73	127
457.14208616780047	457.1885260770975	71	127
457.2233560090703	457.30462585034013	69	127
457.3626757369615	457.43233560090704	67	127
457.49038548752833	457.5484353741497	71	127
457.6297052154195	457.69936507936507	69	127
457.7341950113379	457.80385487528343	67	127
457.8619047619048	457.9431746031746	66	127
458.0128344671202	458.08249433106573	64	127
458.1637641723356	458.5701133786848	62	127
460.5321995464853	461.28684807256235	74	127
461.28684807256235	461.3565079365079	74	127
461.3565079365079	463.21410430839	86	127
463.21410430839	463.23732426303854	88	127
463.23732426303854	463.27215419501135	86	127
463.27215419501135	463.2837641723356	85	127
463.2837641723356	463.2953741496599	86	127
463.3069841269841	463.3534240362812	88	127
463.45791383219955	463.5624036281179	86	127
463.6668934240363	463.7829931972789	86	127
463.8874829931973	463.95714285714286	84	127
464.0384126984127	464.1312925170068	83	127
464.21256235827667	464.28222222222223	84	127
464.37510204081633	465.14136054421766	82	127
465.14136054421766	465.4780498866213	83	127
466.72031746031746	467.45174603174604	69	127
467.45174603174604	467.5562358276644	69	127
467.5562358276644	468.7520634920635	81	127
468.7520634920635	468.85655328798185	81	127
468.85655328798185	468.9610430839002	79	127
468.9610430839002	469.01909297052157	78	127
469.01909297052157	469.0539229024943	76	127
469.07714285714286	469.2861224489796	78	127
470.67931972789114	470.77219954648524	69	127
470.77219954648524	471.8170975056689	81	127
471.8170975056689	471.93319727891156	81	127
471.93319727891156	472.0144671201814	79	127
472.0144671201814	472.13056689342403	77	127
472.13056689342403	472.2002267573696	76	127
472.22344671201813	472.4556462585034	77	127
473.62825396825394	473.7327437641723	65	127
473.7327437641723	474.9401814058957	77	127
474.9401814058957	475.0330612244898	77	127
475.0330612244898	475.1027210884354	75	127
475.1027210884354	475.218820861678	74	127
475.218820861678	475.3233106575964	72	127
475.3465306122449	475.5903401360544	74	127
476.762947845805	476.87904761904764	65	127
476.87904761904764	478.24902494331064	77	127
478.24902494331064	478.3651247165533	77	127
478.3651247165533	478.4928344671202	75	127
478.4928344671202	478.6089342403628	74	127
478.6089342403628	478.69020408163266	72	127
478.7134240362812	478.9340136054422	74	127
479.68866213151927	480.0369614512472	62	127
480.0369614512472	480.18789115646257	67	127
481.23278911564626	481.65074829931973	67	127
481.65074829931973	481.8365079365079	60	127
482.86979591836734	483.4386848072562	65	127
483.6128344671202	483.82181405895693	63	127
484.00757369614513	484.2049433106576	62	127
484.4255328798186	484.69256235827663	60	127
484.99442176870747	485.1105215419501	62	127
485.22662131519274	485.3427210884354	77	127
485.458820861678	485.5633106575964	75	127
485.69102040816324	485.7955102040816	74	127
485.85356009070296	486.0625396825397	72	127
486.0625396825397	486.4688888888889	70	127
486.7939682539683	486.9100680272109	82	127
487.0261678004535	487.13065759637186	81	127
487.21192743764175	487.3164172335601	79	127
487.4325170068027	487.62988662131517	77	127
487.62988662131517	488.02462585034016	76	127
488.372925170068	488.5006349206349	79	127
488.61673469387756	488.70961451247166	77	127
488.83732426303857	488.94181405895694	76	127
489.0579138321996	489.30172335600906	74	127
489.30172335600906	489.66163265306125	73	127
491.6469387755102	491.87913832199547	55	127
491.87913832199547	492.07650793650794	61	127
492.07650793650794	492.29709750566894	64	127
492.29709750566894	492.5989569160998	67	127
493.22589569161	493.4580952380952	55	127
493.4580952380952	493.6322448979592	60	127
493.6322448979592	493.79478458049886	66	127
493.84122448979593	494.2824036281179	69	127
495.6407709750567	495.8497505668934	71	127
495.8497505668934	496.0471201814059	69	127
496.0471201814059	496.2212698412698	67	127
496.2677097505669	496.4418594104308	66	127
496.4418594104308	496.6392290249433	64	127
496.6392290249433	496.84820861678	69	127
496.84820861678	497.022358276644	67	127
497.0455782312925	497.2197278911565	66	127
497.2197278911565	497.4287074829932	67	127
497.4287074829932	497.63768707482996	71	127
497.63768707482996	497.8350566893424	67	127
497.88149659863944	498.4968253968254	67	127
498.4968253968254	498.69419501133785	66	127
498.69419501133785	498.9031746031746	64	127
498.9031746031746	499.1121541950113	62	127
499.1121541950113	499.3559637188209	61	127
499.3559637188209	499.51850340136053	59	127
499.5649433106576	499.86680272108845	57	127
499.86680272108845	500.0757823129252	83	127
500.0757823129252	500.2847619047619	81	127
500.2847619047619	500.4356916099773	79	127
500.4356916099773	500.58662131519276	78	127
500.58662131519276	500.7491609977324	76	127
500.7491609977324	500.91170068027213	74	127
500.9349206349206	501.31804988662134	73	127
501.31804988662134	501.39931972789117	86	127
501.39931972789117	501.45736961451246	85	127
501.45736961451246	501.49219954648527	86	127
501.49219954648527	501.5734693877551	85	127
501.5734693877551	501.6082993197279	86	127
501.6082993197279	501.6663492063492	85	127
501.6663492063492	501.7360090702948	86	127
501.7360090702948	501.8056689342404	85	127
501.8056689342404	501.8869387755102	86	127
501.8869387755102	501.95659863945576	85	127
501.95659863945576	502.03786848072565	86	127
502.03786848072565	502.09591836734694	85	127
502.09591836734694	502.15396825396823	85	127
502.15396825396823	502.2120181405896	86	127
502.2120181405896	502.27006802721087	85	127
502.27006802721087	502.3281179138322	86	127
502.3281179138322	502.3977777777778	85	127
502.3977777777778	502.45582766439907	86	127
502.45582766439907	502.53709750566895	85	127
502.53709750566895	502.59514739229024	86	127
502.59514739229024	502.6764172335601	85	127
502.6764172335601	502.6996371882086	86	127
502.6996371882086	502.7460770975057	85	127
502.7460770975057	502.81573696145125	86	127
502.81573696145125	502.87378684807254	85	127
502.87378684807254	502.94344671201816	86	127
502.94344671201816	503.0131065759637	85	127
503.0131065759637	503.0595464852608	86	127
503.0595464852608	503.1408163265306	85	127
503.1408163265306	503.22208616780046	86	127
503.22208616780046	503.3033560090703	85	127
503.3033560090703	503.34979591836736	86	127
503.34979591836736	503.4194557823129	85	127
503.4194557823129	503.4891156462585	86	127
503.4891156462585	503.54716553287983	85	127
503.54716553287983	503.64004535147393	86	127
503.64004535147393	503.72131519274376	85	127
503.72131519274376	503.8025850340136	86	127
503.8025850340136	503.8954648526077	85	127
503.8954648526077	503.9767346938776	83	127
503.9767346938776	504.04639455782313	85	127
504.04639455782313	504.4643537414966	86	127
504.58045351473925	505.3815419501134	81	127
505.48603174603176	506.17102040816326	83	127
506.29873015873017	507.03015873015875	79	127
507.8892970521542	508.0053968253968	61	127
507.8892970521542	508.0053968253968	64	127
508.0053968253968	508.16793650793653	76	127
508.0053968253968	508.16793650793653	69	127
508.44657596371883	508.6439455782313	69	127
509.5843537414966	509.688843537415	62	127
509.5843537414966	509.85138321995464	69	127
509.688843537415	509.85138321995464	78	127
510.10680272108846	510.3273922902494	74	127
510.7337414965986	510.82662131519277	64	127
510.7337414965986	511.19814058956916	73	127
510.82662131519277	511.19814058956916	79	127
511.5348299319728	511.6393197278912	66	127
511.5348299319728	511.6393197278912	74	127
511.6393197278912	511.9643990929705	81	127
511.6393197278912	511.9643990929705	74	127
512.3010884353741	512.7538775510204	74	127
512.3010884353741	512.4055782312926	67	127
512.4055782312926	512.7538775510204	83	127
513.1718367346939	513.6826757369614	69	127
513.1718367346939	513.6826757369614	85	127
515.2848299319728	515.9814512471655	86	127
515.9814512471655	516.0975510204082	85	127
516.0975510204082	516.2020408163265	83	127
516.2020408163265	516.2949206349207	81	127
516.2949206349207	516.3761904761905	80	127
516.3761904761905	516.4690702947846	81	127
516.4690702947846	516.5851700680272	79	127
516.5851700680272	516.6780498866214	78	127
516.6780498866214	516.7941496598639	76	127
516.7941496598639	516.8870294784581	74	127
516.9102494331066	517.3049886621316	73	127
518.4775963718821	518.9651927437642	74	127
518.9651927437642	519.0116553287982	73	127
519.0116553287982	519.092925170068	71	127
519.092925170068	519.1857823129252	69	127
519.1857823129252	519.3019047619048	68	127
519.3019047619048	519.4063945578231	69	127
519.4063945578231	519.4412244897959	71	127
519.4412244897959	519.5573242630386	69	127
519.5573242630386	519.6734240362812	67	127
519.6734240362812	519.7546938775511	66	127
519.7546938775511	519.8707936507936	64	127
519.8707936507936	519.9520634920635	62	127
519.9752834467121	520.3816326530613	61	127
520.3816326530613	520.9621315192744	79	127
520.9621315192744	521.0434013605442	78	127
521.0434013605442	521.1595011337869	76	127
521.1595011337869	521.2639909297052	74	127
521.2639909297052	521.3800907029479	73	127
521.3800907029479	521.4729705215419	71	127
521.4729705215419	521.5310204081633	69	127
521.5310204081633	521.6122902494332	67	127
521.6354875283447	521.74	66	127
521.74	521.8560997732426	67	127
521.8560997732426	521.960589569161	69	127
521.960589569161	522.0650793650793	71	127
522.0650793650793	522.181179138322	73	127
522.181179138322	522.2740589569161	74	127
522.2740589569161	522.2972789115646	76	127
522.2972789115646	522.3669387755102	78	127
522.3901587301588	522.622358276644	79	127
522.796507936508	523.0287074829932	80	127
523.2260770975057	523.458276643991	81	127
523.5743764172336	523.7949659863946	82	127
524.0387755102041	524.2941723356009	83	127
524.5031519274377	524.7585941043084	86	127
524.8746938775511	525.4203628117914	69	127
525.7454421768707	525.8731519274377	69	127
525.7454421768707	526.3375283446712	76	127
525.8731519274377	526.3375283446712	85	127
526.6510204081633	526.8135600907029	62	127
526.6510204081633	527.3940589569161	78	127
526.8135600907029	527.3940589569161	86	127
