# onset,offset,note,velocity
0.7306575963718821	0.8235374149659864	67	127
0.8235374149659864	0.9164172335600907	66	127
0.9164172335600907	1.009297052154195	64	127
1.009297052154195	1.1137868480725623	62	127
1.1137868480725623	1.2298866213151927	64	127
1.2298866213151927	1.322766439909297	66	127
1.322766439909297	1.4272562358276644	67	127
1.4272562358276644	1.5317460317460319	66	127
1.5317460317460319	1.6594557823129252	64	127
1.6594557823129252	1.7639455782312925	62	127
1.7639455782312925	1.856825396825397	64	127
1.856825396825397	1.9613151927437642	66	127
1.9613151927437642	2.112222222222222	67	127
2.170294784580499	2.2980045351473923	71	127
2.3444444444444446	2.495374149659864	74	127
2.5650340136054424	2.6927437641723357	79	127
2.750793650793651	2.9017233560090703	83	127
2.9713832199546486	3.122312925170068	86	127
3.180362811791383	3.6331519274376416	91	127
5.1656689342403626	5.246916099773243	85	127
5.246916099773243	5.606848072562358	86	127
5.606848072562358	5.711337868480726	62	127
5.711337868480726	5.815827664399093	64	127
5.839047619047619	5.943537414965986	66	127
5.943537414965986	6.048027210884354	67	127
6.048027210884354	6.129297052154195	66	127
6.129297052154195	6.245396825396825	64	127
6.245396825396825	6.361496598639456	62	127
6.361496598639456	6.4543764172335605	64	127
6.4543764172335605	6.547256235827664	66	127
6.547256235827664	6.6401360544217685	67	127
6.6401360544217685	6.733015873015873	66	127
6.733015873015873	6.837505668934241	64	127
6.837505668934241	6.930385487528345	62	127
6.930385487528345	7.034875283446712	64	127
7.034875283446712	7.13936507936508	66	127
7.13936507936508	7.290294784580499	67	127
7.359954648526077	7.499274376417233	71	127
7.557324263038549	7.708253968253969	74	127
7.754693877551021	7.90562358276644	79	127
7.952063492063492	8.102993197278911	83	127
8.149433106575964	8.28875283446712	86	127
8.335192743764173	8.846031746031747	91	127
10.494648526077098	10.564308390022676	90	127
10.564308390022676	11.214444444444444	91	127
16.102267573696146	16.253197278911564	67	127
16.299637188208617	16.485396825396826	67	127
16.566666666666666	16.7756462585034	67	127
16.7756462585034	16.9962358276644	69	127
16.9962358276644	17.26326530612245	71	127
17.26326530612245	18.168843537414965	72	127
18.168843537414965	18.389433106575964	71	127
18.389433106575964	18.598412698412698	76	127
18.598412698412698	19.585260770975058	74	127
19.585260770975058	19.817460317460316	72	127
19.817460317460316	20.072879818594103	71	127
20.08448979591837	20.293469387755103	71	127
20.293469387755103	20.5256462585034	68	127
20.5256462585034	20.74625850340136	69	127
20.74625850340136	21.024897959183672	69	127
21.024897959183672	21.280294784580498	71	127
21.280294784580498	21.489297052154196	72	127
21.489297052154196	21.709886621315192	71	127
21.709886621315192	21.872426303854876	67	127
21.942086167800454	22.093015873015872	74	127
22.151065759637188	22.371655328798187	74	127
22.371655328798187	22.487732426303854	76	127
22.487732426303854	22.58063492063492	74	127
22.58063492063492	22.68512471655329	72	127
22.68512471655329	22.789614512471655	71	127
22.801224489795917	23.056621315192743	71	127
23.056621315192743	23.277233560090703	68	127
23.277233560090703	23.474603174603175	69	127
23.474603174603175	23.706802721088437	69	127
23.706802721088437	23.91578231292517	71	127
23.91578231292517	24.171201814058957	72	127
24.171201814058957	24.38018140589569	71	127
24.38018140589569	24.531111111111112	67	127
24.577551020408162	24.75170068027211	74	127
24.821360544217686	25.018730158730158	74	127
25.030340136054424	25.111609977324264	76	127
25.111609977324264	25.21609977324263	74	127
25.21609977324263	25.320589569160997	72	127
25.320589569160997	25.413469387755104	71	127
25.413469387755104	25.71532879818594	71	127
25.71532879818594	25.86625850340136	68	127
25.924308390022677	26.086848072562358	69	127
26.13328798185941	26.342267573696144	71	127
26.342267573696144	26.50480725623583	68	127
26.562857142857144	26.737006802721087	69	127
26.795056689342402	27.65419501133787	69	127
27.677414965986394	27.909614512471656	69	127
27.909614512471656	28.11859410430839	81	127
28.11859410430839	29.07061224489796	81	127
29.07061224489796	29.18671201814059	79	127
29.18671201814059	29.279591836734692	78	127
29.279591836734692	29.38408163265306	76	127
29.38408163265306	29.430521541950114	74	127
29.430521541950114	29.476961451247167	76	127
29.476961451247167	29.6859410430839	74	127
29.6859410430839	30.347709750566892	73	127
30.347709750566892	30.545079365079363	73	127
30.545079365079363	30.7540589569161	81	127
30.765668934240363	31.624807256235826	81	127
31.636417233560092	31.729297052154195	81	127
31.729297052154195	31.845396825396826	79	127
31.845396825396826	31.93827664399093	78	127
31.93827664399093	31.996326530612244	76	127
31.996326530612244	32.0427664399093	78	127
32.0427664399093	32.26335600907029	76	127
32.26335600907029	32.936734693877554	74	127
32.936734693877554	33.145714285714284	74	127
33.145714285714284	33.34308390022676	84	127
33.34308390022676	34.22544217687075	84	127
34.22544217687075	34.32993197278912	83	127
34.32993197278912	34.43439909297052	81	127
34.43439909297052	34.52730158730159	79	127
34.52730158730159	34.585351473922906	78	127
34.585351473922906	34.64340136054422	79	127
34.64340136054422	34.86399092970522	78	127
34.86399092970522	35.04975056689342	76	127
35.09619047619048	35.25873015873016	76	127
35.560589569160996	35.74634920634921	76	127
35.74634920634921	35.89727891156463	76	127
35.89727891156463	35.943718820861676	78	127
35.943718820861676	36.15269841269841	76	127
36.15269841269841	36.29201814058957	74	127
36.36167800453515	36.489387755102044	74	127
36.72156462585034	36.9421768707483	74	127
36.9421768707483	37.151156462585035	74	127
37.1627664399093	37.267256235827666	73	127
37.267256235827666	37.44140589569161	76	127
37.4762358276644	37.54589569160998	74	127
37.5691156462585	37.65038548752835	73	127
37.685215419501134	37.754875283446715	71	127
37.7897052154195	37.87095238095238	69	127
37.89419501133787	37.97546485260771	68	127
38.0102947845805	38.079954648526076	66	127
38.114761904761906	38.19605442176871	64	127
38.21927437641723	38.31215419501134	62	127
38.346984126984125	38.41664399092971	61	127
38.43986394557823	38.53274376417234	59	127
38.567573696145125	38.96231292517007	57	127
39.39185941043084	39.53120181405896	68	127
39.58925170068027	39.65891156462585	68	127
39.65891156462585	39.716961451247165	69	127
39.716961451247165	39.78662131519275	68	127
39.78662131519275	39.89108843537415	69	127
39.89108843537415	39.96077097505669	76	127
39.983990929705215	40.13492063492063	74	127
40.158140589569165	40.22780045351474	73	127
40.27421768707483	40.34390022675737	71	127
40.367120181405895	40.436780045351476	69	127
40.47160997732426	40.541269841269845	68	127
40.57609977324263	40.645759637188206	66	127
40.66897959183674	40.76185941043084	64	127
40.79668934240363	40.87795918367347	62	127
40.90117913832199	40.95922902494331	61	127
40.9940589569161	41.06371882086168	59	127
41.12176870748299	41.56294784580499	57	127
41.98090702947846	42.14344671201814	80	127
42.22471655328798	42.282766439909295	80	127
42.282766439909295	42.35242630385488	81	127
42.35242630385488	42.42208616780045	80	127
42.42208616780045	42.53818594104308	81	127
42.53818594104308	42.619455782312926	88	127
42.64267573696145	42.71233560090703	86	127
42.75877551020408	42.840045351473925	85	127
42.86326530612245	42.94451247165533	83	127
42.97936507936508	43.049024943310656	81	127
43.08385487528345	43.153514739229024	80	127
43.17673469387755	43.24639455782313	78	127
43.28122448979592	43.36249433106576	76	127
43.385714285714286	43.46698412698413	74	127
43.490204081632655	43.55986394557823	73	127
43.59469387755102	43.6643537414966	71	127
43.68757369614512	43.79206349206349	69	127
43.79206349206349	43.919773242630384	68	127
43.919773242630384	44.035873015873015	66	127
44.035873015873015	44.140362811791384	64	127
44.140362811791384	44.23324263038549	66	127
44.23324263038549	44.360952380952384	68	127
44.360952380952384	44.46541950113379	69	127
44.46541950113379	44.569931972789114	68	127
44.569931972789114	44.686031746031745	66	127
44.686031746031745	44.77891156462585	64	127
44.77891156462585	44.88340136054422	66	127
44.88340136054422	44.98789115646259	68	127
44.98789115646259	45.510340136054424	69	127
48.36639455782313	49.33002267573696	73	127
49.341632653061225	49.504172335600906	70	127
49.58544217687075	49.78281179138322	66	127
54.264263038548755	55.30916099773243	78	127
55.32077097505669	55.47170068027211	75	127
55.529750566893426	55.92448979591837	71	127
57.213197278911565	58.908253968253966	79	127
58.908253968253966	59.62807256235828	80	127
59.62807256235828	59.86027210884354	81	127
59.86027210884354	60.115691609977326	84	127
60.12730158730159	60.37111111111111	81	127
60.382721088435375	60.603310657596374	78	127
60.603310657596374	60.83551020408163	74	127
60.83551020408163	61.07931972789115	78	127
61.07931972789115	61.61337868480726	79	127
61.61337868480726	61.81074829931973	78	127
61.81074829931973	62.49573696145125	77	127
62.50734693877551	62.739546485260774	78	127
62.739546485260774	63.006575963718824	81	127
63.006575963718824	63.20394557823129	78	127
63.215555555555554	63.505804988662135	75	127
63.5174149659864	63.76122448979592	71	127
63.76122448979592	64.01664399092971	75	127
64.01664399092971	64.51587301587301	76	127
64.52748299319728	64.72485260770975	74	127
64.72485260770975	65.40984126984127	73	127
65.40984126984127	65.49111111111111	76	127
65.49111111111111	65.68845804988662	74	127
65.70009070294785	65.99034013605443	73	127
65.99034013605443	66.21092970521542	74	127
66.21092970521542	67.15133786848072	76	127
67.15133786848072	67.37192743764173	79	127
67.37192743764173	67.5344671201814	76	127
67.5344671201814	67.59251700680272	78	127
67.59251700680272	67.87115646258503	76	127
67.87115646258503	68.0104761904762	74	127
68.08013605442177	68.25428571428571	74	127
68.32394557823129	68.40521541950113	74	127
68.40521541950113	68.48648526077098	76	127
68.48648526077098	68.56775510204082	74	127
68.56775510204082	68.71868480725624	76	127
68.77673469387756	68.93927437641723	73	127
69.05537414965987	69.18308390022676	74	127
69.19469387755102	69.28757369614513	57	127
69.19469387755102	69.28757369614513	65	127
69.28757369614513	69.39204081632653	57	127
69.28757369614513	69.39204081632653	65	127
69.39204081632653	69.4965306122449	57	127
69.39204081632653	69.4965306122449	65	127
69.50816326530612	69.61265306122449	57	127
69.50816326530612	69.61265306122449	65	127
69.61265306122449	69.70553287981859	57	127
69.61265306122449	69.70553287981859	65	127
69.71714285714286	69.81002267573696	57	127
69.71714285714286	69.81002267573696	65	127
69.81002267573696	69.9028798185941	57	127
69.81002267573696	69.9028798185941	65	127
69.9028798185941	70.00736961451247	57	127
69.9028798185941	70.00736961451247	65	127
70.0190022675737	70.1118820861678	57	127
70.0190022675737	70.1118820861678	65	127
70.1118820861678	70.22798185941043	57	127
70.1118820861678	70.22798185941043	65	127
70.23959183673469	70.34408163265306	57	127
70.23959183673469	70.34408163265306	65	127
70.34408163265306	70.4601814058957	57	127
70.34408163265306	70.4601814058957	67	127
70.4601814058957	70.5530612244898	57	127
70.4601814058957	70.5530612244898	67	127
70.58789115646259	70.69238095238096	57	127
70.58789115646259	70.69238095238096	67	127
70.69238095238096	70.82009070294785	57	127
70.69238095238096	70.82009070294785	67	127
70.82009070294785	70.92458049886622	57	127
70.82009070294785	70.92458049886622	67	127
70.92458049886622	71.01746031746032	57	127
70.92458049886622	71.01746031746032	67	127
71.01746031746032	71.11034013605442	57	127
71.01746031746032	71.11034013605442	67	127
71.12195011337869	71.21482993197279	57	127
71.12195011337869	71.21482993197279	67	127
71.21482993197279	71.33092970521542	57	127
71.21482993197279	71.33092970521542	67	127
71.33092970521542	71.42380952380952	57	127
71.33092970521542	71.42380952380952	67	127
71.4354195011338	71.52829931972789	57	127
71.4354195011338	71.52829931972789	67	127
71.52829931972789	71.62117913832199	57	127
71.52829931972789	71.62117913832199	67	127
71.63278911564626	71.72566893424036	57	127
71.63278911564626	71.72566893424036	64	127
71.72566893424036	71.81854875283447	57	127
71.72566893424036	71.81854875283447	64	127
71.81854875283447	71.91142857142857	57	127
71.81854875283447	71.91142857142857	64	127
71.92301587301587	72.07396825396826	57	127
71.92301587301587	72.07396825396826	64	127
72.07396825396826	72.16684807256236	61	127
72.17843537414966	72.30614512471655	61	127
72.30614512471655	72.39904761904762	57	127
72.30614512471655	72.39904761904762	64	127
72.39904761904762	72.49192743764172	57	127
72.39904761904762	72.49192743764172	64	127
72.50353741496599	72.60802721088436	57	127
72.50353741496599	72.60802721088436	64	127
72.60802721088436	72.70090702947846	57	127
72.60802721088436	72.70090702947846	64	127
72.70090702947846	72.80539682539683	61	127
72.80539682539683	72.92147392290249	61	127
72.92147392290249	73.02598639455782	57	127
73.02598639455782	73.11886621315193	62	127
73.11886621315193	73.2233560090703	65	127
73.2233560090703	73.3278231292517	69	127
73.3278231292517	73.42072562358277	74	127
73.42072562358277	73.53682539682539	77	127
73.53682539682539	73.68773242630385	81	127
73.74580498866213	73.89673469387755	81	127
73.94315192743764	74.10571428571428	81	127
74.19857142857143	74.98807256235828	81	127
74.98807256235828	75.12739229024943	77	127
75.18544217687075	75.33637188208617	74	127
75.33637188208617	75.39442176870749	76	127
75.39442176870749	75.66145124716553	74	127
75.66145124716553	76.33482993197279	73	127
76.34641723356009	76.50897959183673	73	127
76.55541950113378	76.69473922902495	74	127
76.741179138322	77.21718820861678	76	127
77.22879818594105	77.47260770975056	73	127
77.50743764172336	77.97183673469388	69	127
77.97183673469388	78.20403628117914	67	127
78.20403628117914	78.6219954648526	65	127
79.5159410430839	79.95714285714286	77	127
79.95714285714286	80.0732426303855	74	127
80.0732426303855	80.18934240362812	70	127
80.18934240362812	80.5724716553288	69	127
82.23269841269841	82.70868480725623	82	127
82.72031746031746	82.81319727891156	79	127
82.81319727891156	82.90607709750567	75	127
82.90607709750567	83.3704761904762	74	127
83.64911564625851	83.78843537414966	73	127
83.83485260770975	83.9974149659864	74	127
84.04385487528344	84.19478458049886	73	127
84.26444444444445	84.41537414965987	74	127
84.48503401360544	84.64757369614513	73	127
84.728820861678	84.86816326530612	74	127
84.91460317460317	85.08875283446712	73	127
85.14680272108843	85.2861224489796	74	127
85.3441723356009	85.51832199546486	73	127
85.58798185941043	85.77374149659865	74	127
85.8201814058957	85.99433106575964	73	127
86.04077097505669	86.21492063492063	74	127
86.27297052154195	86.93473922902494	73	127
86.93473922902494	87.6081179138322	77	127
87.61972789115646	88.24666666666667	76	127
88.24666666666667	88.96648526077098	85	127
88.96648526077098	89.2102947845805	85	127
89.2102947845805	89.39605442176871	86	127
89.45410430839003	89.6166439909297	86	127
89.69791383219955	89.89528344671201	86	127
89.89528344671201	90.04619047619047	83	127
90.13909297052155	90.2784126984127	83	127
90.30160997732426	90.34807256235828	85	127
90.34807256235828	90.55702947845805	83	127
90.55702947845805	90.74281179138322	81	127
90.78925170068027	90.96337868480725	81	127
90.97501133786848	91.02145124716553	85	127
91.02145124716553	91.21882086167801	83	127
91.21882086167801	91.39297052154195	81	127
91.4509977324263	91.66	81	127
91.71804988662132	91.82253968253968	81	127
91.82253968253968	91.92702947845805	74	127
95.10816326530612	95.60739229024944	78	127
95.60739229024944	95.76993197278911	76	127
95.85120181405895	96.00213151927437	74	127
96.06018140589569	96.39687074829932	73	127
96.39687074829932	96.58263038548753	74	127
96.62907029478458	96.80321995464853	71	127
96.86126984126984	97.05863945578231	69	127
97.05863945578231	97.20956916099773	71	127
97.26761904761905	97.45337868480726	67	127
97.53464852607709	97.7204081632653	66	127
97.7204081632653	97.96421768707484	69	127
98.02226757369614	98.1964172335601	62	127
100.71578231292517	101.1801814058957	78	127
101.19179138321995	101.33111111111111	76	127
101.41238095238096	101.57492063492063	74	127
101.6213605442177	101.87678004535148	73	127
101.87678004535148	102.03931972789115	74	127
102.09736961451247	102.23668934240362	71	127
102.29473922902494	102.55015873015873	69	127
102.55015873015873	102.73591836734694	71	127
102.78235827664399	102.93328798185941	67	127
102.99133786848073	103.13065759637188	66	127
103.1887074829932	103.33963718820861	62	127
103.39768707482993	103.95496598639455	78	127
103.96657596371882	104.10589569160997	76	127
104.17555555555556	104.31487528344671	74	127
104.37292517006803	104.65156462585034	73	127
104.65156462585034	104.82571428571428	74	127
104.87215419501133	105.04630385487529	71	127
105.1043537414966	105.33655328798186	69	127
105.33655328798186	105.5107029478458	71	127
105.58036281179139	105.75451247165533	67	127
105.8241723356009	105.99832199546485	66	127
106.05637188208617	106.20730158730159	62	127
106.2653514739229	106.71814058956916	66	127
106.71814058956916	106.86907029478458	64	127
106.9271201814059	107.06643990929705	62	127
107.12448979591836	107.32185941043083	61	127
107.32185941043083	107.461179138322	62	127
107.50761904761904	107.65854875283446	59	127
107.71659863945578	107.92557823129252	57	127
107.92557823129252	108.09972789115646	59	127
108.15777777777778	108.33192743764172	56	127
108.38997732426304	108.50607709750567	57	127
108.50607709750567	108.6221768707483	62	127
108.6221768707483	108.7150566893424	66	127
108.7150566893424	108.81954648526077	69	127
108.81954648526077	108.91242630385487	74	127
108.91242630385487	109.01691609977324	78	127
109.01691609977324	109.12140589569161	81	127
109.12140589569161	109.20267573696145	80	127
109.20267573696145	109.30716553287982	83	127
109.30716553287982	109.41165532879819	81	127
109.41165532879819	109.50453514739229	79	127
109.50453514739229	109.60902494331066	78	127
109.60902494331066	109.66707482993198	76	127
109.66707482993198	109.79478458049887	78	127
109.79478458049887	109.86444444444444	76	127
109.86444444444444	109.95732426303854	78	127
109.95732426303854	110.02698412698413	76	127
110.02698412698413	110.10825396825396	78	127
110.10825396825396	110.17791383219955	76	127
110.17791383219955	110.24757369614512	78	127
110.24757369614512	110.30562358276644	76	127
110.30562358276644	110.37528344671202	78	127
110.37528344671202	110.44494331065759	76	127
110.44494331065759	110.51460317460318	78	127
110.51460317460318	110.57265306122449	76	127
110.57265306122449	110.64231292517007	78	127
110.64231292517007	110.71197278911565	76	127
110.71197278911565	110.81646258503402	74	127
110.81646258503402	110.93256235827664	76	127
110.93256235827664	111.09510204081633	74	127
111.14154195011338	111.39696145124717	74	127
111.46662131519274	111.61755102040816	74	127
111.67560090702948	111.80331065759637	74	127
111.84975056689342	112.00068027210884	76	127
112.0471201814059	112.20965986394557	74	127
112.25609977324262	112.41863945578231	72	127
112.47668934240363	112.62761904761905	74	127
112.7088888888889	112.88303854875284	72	127
112.97591836734694	113.12684807256235	71	127
113.17328798185942	113.31260770975057	72	127
113.39387755102041	113.53319727891156	71	127
113.59124716553288	113.76539682539682	69	127
113.83505668934241	113.99759637188208	71	127
114.04403628117913	114.1833560090703	69	127
114.21818594104309	114.3691156462585	67	127
114.42716553287981	114.57809523809524	66	127
114.63614512471655	114.78707482993197	67	127
114.84512471655329	115.01927437641723	66	127
115.08893424036282	115.25147392290249	67	127
115.30952380952381	115.44884353741497	66	127
115.50689342403628	115.6578231292517	67	127
115.76231292517006	115.92485260770975	66	127
115.9712925170068	116.18027210884354	67	127
116.24993197278911	116.71433106575964	66	127
119.47750566893424	119.54716553287982	85	127
119.54716553287982	119.60521541950114	86	127
119.60521541950114	119.68648526077098	85	127
119.68648526077098	119.84902494331065	86	127
119.84902494331065	119.91868480725624	85	127
119.91868480725624	119.97673469387755	86	127
119.97673469387755	120.05800453514739	85	127
120.05800453514739	120.12766439909296	83	127
120.12766439909296	120.23215419501133	85	127
120.23215419501133	120.65011337868481	86	127
120.82426303854875	120.89392290249432	85	127
120.89392290249432	120.96358276643991	86	127
120.96358276643991	121.04485260770976	85	127
121.04485260770976	121.10290249433106	86	127
121.10290249433106	121.17256235827665	85	127
121.17256235827665	121.24222222222222	86	127
121.24222222222222	121.3467120181406	85	127
121.3467120181406	121.41637188208617	83	127
121.41637188208617	121.56730158730159	85	127
121.56730158730159	121.76467120181405	86	127
121.76467120181405	121.91560090702947	67	127
121.98526077097506	122.13619047619048	66	127
122.21746031746032	122.36839002267574	67	127
122.42643990929706	122.56575963718821	66	127
122.63541950113378	122.83278911564626	67	127
122.87922902494331	123.04176870748299	66	127
123.0998185941043	123.262358276644	67	127
123.32040816326531	123.45972789115646	66	127
123.52938775510204	123.703537414966	67	127
123.74997732426304	123.92412698412699	66	127
123.97056689342404	124.12149659863945	67	127
124.17954648526077	124.66716553287982	66	127
126.45510204081633	126.54798185941043	62	127
126.54798185941043	126.69891156462585	64	127
126.69891156462585	126.81501133786848	66	127
126.81501133786848	126.98916099773243	67	127
126.98916099773243	127.12848072562359	66	127
127.12848072562359	127.22136054421769	64	127
127.22136054421769	127.34907029478458	62	127
127.34907029478458	127.44195011337868	64	127
127.44195011337868	127.54643990929705	66	127
127.54643990929705	127.66253968253969	67	127
127.66253968253969	127.75541950113379	66	127
127.75541950113379	127.84829931972789	64	127
127.84829931972789	127.95278911564625	62	127
127.95278911564625	128.04566893424035	64	127
128.04566893424035	128.15015873015872	66	127
128.15015873015872	128.3126984126984	67	127
128.37074829931973	128.5448979591837	71	127
128.59133786848074	128.74226757369615	74	127
128.80031746031747	128.9512471655329	79	127
129.00927437641724	129.16022675736963	83	127
129.20666666666668	129.3691836734694	86	127
129.42725623582766	129.90326530612245	91	127
131.4241723356009	131.4938321995465	85	127
131.4938321995465	131.8305215419501	86	127
131.8305215419501	131.958231292517	62	127
131.958231292517	132.0511111111111	64	127
132.06272108843538	132.15560090702948	66	127
132.15560090702948	132.26009070294785	67	127
132.26009070294785	132.3761904761905	66	127
132.3761904761905	132.48068027210886	64	127
132.48068027210886	132.58517006802722	62	127
132.58517006802722	132.67804988662132	64	127
132.67804988662132	132.7825396825397	66	127
132.7825396825397	132.89861678004536	67	127
132.89861678004536	133.01473922902494	66	127
133.01473922902494	133.13083900226758	64	127
133.13083900226758	133.22371882086168	62	127
133.22371882086168	133.31659863945578	64	127
133.31659863945578	133.42108843537414	66	127
133.42108843537414	133.57201814058956	67	127
133.63006802721088	133.74616780045352	71	127
133.80421768707484	133.95514739229026	74	127
133.98997732426304	134.14090702947846	79	127
134.1873469387755	134.33827664399092	83	127
134.39632653061224	134.55886621315193	86	127
134.61691609977325	135.12775510204082	91	127
136.7995918367347	136.88083900226758	90	127
136.88083900226758	137.57746031746032	91	127
142.34916099773244	142.50009070294786	67	127
142.5813605442177	142.72068027210884	67	127
142.77873015873016	142.9877097505669	67	127
142.9877097505669	143.2198866213152	69	127
143.2198866213152	143.44049886621315	71	127
143.44049886621315	144.45054421768708	72	127
144.45054421768708	144.67115646258503	71	127
144.67115646258503	144.8685260770975	76	127
144.89174603174604	145.89020408163265	74	127
145.90181405895692	146.14562358276643	72	127
146.14562358276643	146.35460317460317	71	127
146.35460317460317	146.57519274376418	71	127
146.57519274376418	146.7841723356009	68	127
146.7841723356009	146.99315192743765	69	127
147.00473922902495	147.23696145124717	69	127
147.23696145124717	147.49238095238096	71	127
147.49238095238096	147.81746031746033	72	127
147.82907029478457	148.0380498866213	71	127
148.0380498866213	148.18897959183673	67	127
148.25863945578232	148.40956916099773	74	127
148.45600907029478	148.71142857142857	74	127
148.71142857142857	148.8275283446712	76	127
148.8275283446712	148.93201814058958	74	127
148.93201814058958	149.02489795918368	72	127
149.02489795918368	149.12938775510204	71	127
149.12938775510204	149.3964172335601	71	127
149.3964172335601	149.61700680272108	68	127
149.61700680272108	149.8143537414966	69	127
149.82598639455782	150.04657596371882	69	127
150.04657596371882	150.25555555555556	71	127
150.25555555555556	150.5574149659864	72	127
150.5574149659864	150.75478458049886	71	127
150.75478458049886	150.94052154195012	67	127
150.99859410430838	151.16113378684807	74	127
151.2191836734694	151.4397732426304	74	127
151.4397732426304	151.55585034013606	76	127
151.55585034013606	151.66036281179137	74	127
151.66036281179137	151.76485260770974	72	127
151.76485260770974	151.85773242630387	71	127
151.8693424036281	152.1015419501134	71	127
152.1015419501134	152.26408163265307	68	127
152.32210884353742	152.5078911564626	69	127
152.5659410430839	152.7865306122449	71	127
152.7865306122449	152.94907029478458	68	127
153.0071201814059	153.1580498866213	69	127
153.21609977324263	154.09845804988663	69	127
154.09845804988663	154.3190476190476	69	127
154.3190476190476	154.51639455782313	81	127
154.52802721088435	155.2942857142857	81	127
155.30589569160998	155.39877551020408	79	127
155.39877551020408	155.50326530612244	78	127
155.50326530612244	155.6774149659864	76	127
155.6774149659864	155.80512471655328	74	127
155.80512471655328	155.87478458049887	76	127
155.87478458049887	156.09537414965988	74	127
156.09537414965988	156.69909297052155	73	127
156.69909297052155	156.94290249433107	73	127
156.94290249433107	157.17507936507937	81	127
157.17507936507937	158.09229024943312	81	127
158.09229024943312	158.19675736961452	81	127
158.19675736961452	158.30124716553289	79	127
158.30124716553289	158.39414965986396	78	127
158.39414965986396	158.440589569161	76	127
158.440589569161	158.49863945578232	78	127
158.49863945578232	158.70761904761906	76	127
158.70761904761906	159.31133786848073	74	127
159.32292517006803	159.53190476190477	74	127
159.53190476190477	159.75251700680272	84	127
159.75251700680272	160.71614512471655	84	127
160.71614512471655	160.82063492063492	83	127
160.82063492063492	160.92512471655328	81	127
160.92512471655328	161.02961451247165	79	127
161.02961451247165	161.0760544217687	78	127
161.0760544217687	161.12249433106575	79	127
161.12249433106575	161.34308390022676	78	127
161.34308390022676	161.51723356009072	76	127
161.59850340136055	161.74943310657596	76	127
162.0280725623583	162.19061224489795	76	127
162.20222222222222	162.35315192743764	76	127
162.35315192743764	162.3995918367347	78	127
162.3995918367347	162.63179138321996	76	127
162.63179138321996	162.7711111111111	74	127
162.81755102040816	163.00328798185942	74	127
163.31678004535146	163.54897959183674	74	127
163.54897959183674	163.7463492063492	74	127
163.7463492063492	163.85083900226758	73	127
163.85083900226758	163.94371882086168	76	127
163.9785260770975	164.0598185941043	74	127
164.08303854875282	164.16430839002268	73	127
164.19913832199546	164.26879818594105	71	127
164.29201814058956	164.37328798185942	69	127
164.4081179138322	164.5009977324263	68	127
164.52421768707484	164.6402947845805	66	127
164.663537414966	164.74478458049887	64	127
164.77963718820862	164.84929705215418	62	127
164.87251700680272	164.9421768707483	61	127
164.9770068027211	165.05827664399092	59	127
165.09310657596373	165.52267573696145	57	127
165.91739229024944	166.06834467120183	68	127
166.12639455782312	166.17281179138322	68	127
166.17281179138322	166.24249433106576	69	127
166.24249433106576	166.31215419501135	68	127
166.31215419501135	166.40503401360544	69	127
166.40503401360544	166.48630385487527	76	127
166.5095238095238	166.59079365079364	74	127
166.62562358276645	166.75333333333333	73	127
166.77655328798187	166.84621315192743	71	127
166.88104308390024	166.9507029478458	69	127
166.9855328798186	167.05519274376417	68	127
167.0784126984127	167.15968253968254	66	127
167.19448979591837	167.2641723356009	64	127
167.28739229024944	167.36866213151927	62	127
167.3918820861678	167.46154195011337	61	127
167.50798185941042	167.60086167800455	59	127
167.62408163265306	168.12331065759636	57	127
168.52965986394557	168.68056689342404	80	127
168.7270068027211	168.79668934240362	80	127
168.79668934240362	168.87795918367348	81	127
168.87795918367348	168.94761904761904	80	127
168.94761904761904	169.07532879818595	81	127
169.07532879818595	169.1449886621315	88	127
169.17981859410432	169.27269841269842	86	127
169.29591836734693	169.3771882086168	85	127
169.4004081632653	169.47006802721089	83	127
169.50489795918367	169.57455782312925	81	127
169.59775510204082	169.66743764172335	80	127
169.7022448979592	169.77192743764172	78	127
169.81836734693877	169.88802721088436	76	127
169.91124716553287	170.004126984127	74	127
170.03895691609978	170.1085941043084	73	127
170.14344671201815	170.21308390022676	71	127
170.24793650793652	170.38725623582766	69	127
170.38725623582766	170.49174603174603	68	127
170.49174603174603	170.5962358276644	66	127
170.5962358276644	170.70072562358277	64	127
170.70072562358277	170.8168253968254	66	127
170.8168253968254	170.9445351473923	68	127
170.9445351473923	171.0374149659864	69	127
171.0374149659864	171.15351473922902	68	127
171.15351473922902	171.2580045351474	66	127
171.2580045351474	171.3508843537415	64	127
171.3508843537415	171.45537414965986	66	127
171.45537414965986	171.55986394557823	68	127
171.55986394557823	171.98943310657597	69	127
174.84548752834468	175.79750566893424	73	127
175.79750566893424	176.0645351473923	70	127
176.1225850340136	176.4012244897959	66	127
180.78979591836736	181.8114739229025	78	127
181.8114739229025	182.0668934240363	75	127
182.12492063492064	182.27585034013606	71	127
183.73873015873016	185.48022675736962	79	127
185.48022675736962	186.20004535147393	80	127
186.22326530612244	186.46705215419502	81	127
186.46705215419502	186.74571428571429	84	127
186.74571428571429	186.95469387755102	81	127
186.95469387755102	187.1520634920635	78	127
187.16367346938776	187.45392290249433	74	127
187.45392290249433	187.6861224489796	78	127
187.6861224489796	188.15052154195013	79	127
188.16213151927437	188.39433106575964	78	127
188.4059410430839	189.10253968253969	77	127
189.11414965986395	189.3463492063492	78	127
189.35795918367347	189.5669387755102	81	127
189.5669387755102	189.79913832199546	78	127
189.79913832199546	190.0081179138322	75	127
190.0081179138322	190.2983673469388	71	127
190.30997732426303	190.60022675736963	75	127
190.60022675736963	191.1110657596372	76	127
191.1110657596372	191.32004535147394	74	127
191.33165532879818	191.9585941043084	73	127
191.9585941043084	192.00503401360544	76	127
192.00503401360544	192.295283446712	74	127
192.295283446712	192.59714285714287	73	127
192.6087528344671	192.81773242630385	74	127
192.81773242630385	193.79297052154195	76	127
193.80458049886622	194.01356009070295	79	127
194.01356009070295	194.19931972789115	76	127
194.19931972789115	194.280589569161	78	127
194.280589569161	194.5360090702948	76	127
194.5360090702948	194.721768707483	74	127
194.7798185941043	194.95396825396824	74	127
195.00040816326532	195.07006802721088	74	127
195.07006802721088	195.13972789115647	76	127
195.13972789115647	195.20938775510203	74	127
195.20938775510203	195.38353741496599	76	127
195.4415873015873	195.604126984127	73	127
195.6970068027211	195.80149659863946	74	127
195.80149659863946	195.92920634920634	57	127
195.80149659863946	195.92920634920634	65	127
195.92920634920634	196.04530612244898	57	127
195.92920634920634	196.04530612244898	65	127
196.04530612244898	196.13818594104308	57	127
196.04530612244898	196.13818594104308	65	127
196.13818594104308	196.27750566893425	57	127
196.13818594104308	196.27750566893425	65	127
196.2891156462585	196.39360544217686	57	127
196.2891156462585	196.39360544217686	65	127
196.39360544217686	196.48648526077096	57	127
196.39360544217686	196.48648526077096	65	127
196.48648526077096	196.5793650793651	57	127
196.48648526077096	196.5793650793651	65	127
196.59097505668933	196.6954648526077	57	127
196.59097505668933	196.6954648526077	65	127
196.6954648526077	196.79995464852607	57	127
196.6954648526077	196.79995464852607	65	127
196.81156462585034	196.90444444444444	57	127
196.81156462585034	196.90444444444444	65	127
196.90444444444444	196.99732426303854	57	127
196.90444444444444	196.99732426303854	65	127
196.99732426303854	197.1018140589569	57	127
196.99732426303854	197.1018140589569	67	127
197.11342403628117	197.20630385487527	57	127
197.11342403628117	197.20630385487527	67	127
197.20630385487527	197.38045351473923	57	127
197.20630385487527	197.38045351473923	67	127
197.3920634920635	197.4849433106576	57	127
197.3920634920635	197.4849433106576	67	127
197.4849433106576	197.58943310657597	57	127
197.4849433106576	197.58943310657597	67	127
197.58943310657597	197.68231292517007	57	127
197.58943310657597	197.68231292517007	67	127
197.69392290249434	197.78680272108843	57	127
197.69392290249434	197.78680272108843	67	127
197.78680272108843	197.87968253968253	57	127
197.78680272108843	197.87968253968253	67	127
197.8912925170068	197.9841723356009	57	127
197.8912925170068	197.9841723356009	67	127
197.9841723356009	198.077052154195	57	127
197.9841723356009	198.077052154195	67	127
198.077052154195	198.19315192743764	57	127
198.077052154195	198.19315192743764	67	127
198.2047619047619	198.297641723356	57	127
198.2047619047619	198.297641723356	67	127
198.297641723356	198.3905215419501	57	127
198.297641723356	198.3905215419501	64	127
198.3905215419501	198.49501133786848	57	127
198.3905215419501	198.49501133786848	64	127
198.50662131519275	198.59950113378684	57	127
198.50662131519275	198.59950113378684	64	127
198.59950113378684	198.71560090702948	57	127
198.59950113378684	198.71560090702948	64	127
198.72721088435375	198.83170068027212	61	127
198.83170068027212	198.92458049886622	61	127
198.92458049886622	199.01746031746032	57	127
198.92458049886622	199.01746031746032	64	127
199.04068027210883	199.1451700680272	57	127
199.04068027210883	199.1451700680272	64	127
199.1451700680272	199.24965986394557	57	127
199.1451700680272	199.24965986394557	64	127
199.29609977324262	199.41219954648525	57	127
199.29609977324262	199.41219954648525	64	127
199.41219954648525	199.50507936507935	61	127
199.50507936507935	199.59795918367348	61	127
199.60956916099772	199.70244897959185	57	127
199.70244897959185	199.81854875283446	62	127
199.81854875283446	199.91142857142856	65	127
199.91142857142856	200.0043083900227	69	127
200.0043083900227	200.14362811791383	74	127
200.14362811791383	200.23650793650793	77	127
200.23650793650793	200.4106575963719	81	127
200.4687074829932	200.61963718820863	81	127
200.6892970521542	200.8402267573696	81	127
200.9098866213152	201.74580498866214	81	127
201.75741496598638	201.89673469387756	77	127
201.95478458049885	202.17537414965986	74	127
202.17537414965986	202.23342403628118	76	127
202.23342403628118	202.44240362811792	74	127
202.44240362811792	203.09256235827664	73	127
203.09256235827664	203.25510204081633	73	127
203.31315192743764	203.48730158730157	74	127
203.53374149659865	203.96331065759637	76	127
203.96331065759637	204.16068027210883	73	127
204.16068027210883	204.6482993197279	69	127
204.65990929705217	204.89210884353741	67	127
204.89210884353741	205.402947845805	65	127
206.23886621315194	206.70326530612246	77	127
206.7148752834467	206.80775510204083	74	127
206.80775510204083	206.90063492063493	70	127
206.90063492063493	207.3418140589569	69	127
209.01365079365078	209.44321995464853	82	127
209.44321995464853	209.5709297052154	79	127
209.5709297052154	209.67541950113377	75	127
209.67541950113377	210.05854875283447	74	127
210.40684807256235	210.56938775510204	73	127
210.63904761904763	210.78997732426305	74	127
210.84802721088437	210.98734693877552	73	127
211.03378684807257	211.23115646258503	74	127
211.27759637188208	211.4285260770975	73	127
211.48657596371882	211.63750566893424	74	127
211.69555555555556	211.86970521541951	73	127
211.9277551020408	212.11351473922903	74	127
212.15995464852608	212.34571428571428	73	127
212.4037641723356	212.55469387755102	74	127
212.64757369614512	212.7868934240363	73	127
212.84494331065758	213.00748299319727	74	127
213.08875283446713	213.77374149659863	73	127
213.7853514739229	214.47034013605443	77	127
214.47034013605443	215.0740589569161	76	127
215.0740589569161	215.86353741496598	85	127
215.87514739229024	216.08412698412698	85	127
216.08412698412698	216.2350566893424	86	127
216.304716553288	216.52530612244897	86	127
216.5833560090703	216.78072562358275	86	127
216.78072562358275	216.94326530612244	83	127
217.00131519274376	217.18707482993196	83	127
217.2102947845805	217.25673469387755	85	127
217.25673469387755	217.44249433106575	83	127
217.44249433106575	217.5934240362812	81	127
217.66308390022675	217.8372335600907	81	127
217.8372335600907	217.9301133786848	85	127
217.9301133786848	218.115873015873	83	127
218.115873015873	218.30163265306123	81	127
218.35968253968255	218.55705215419502	81	127
218.62671201814058	218.7544217687075	81	127
218.7544217687075	218.88213151927437	74	127
222.0168253968254	222.5508843537415	78	127
222.5508843537415	222.70181405895693	76	127
222.75986394557822	222.8991836734694	74	127
222.9572335600907	223.24748299319728	73	127
223.24748299319728	223.3984126984127	74	127
223.44485260770975	223.6190022675737	71	127
223.66544217687076	223.9324716553288	69	127
223.9324716553288	224.12984126984128	71	127
224.1878911564626	224.35043083900226	67	127
224.40848072562358	224.64068027210885	66	127
224.64068027210885	224.81482993197278	69	127
224.88448979591837	225.05863945578233	62	127
227.7637641723356	228.19333333333333	78	127
228.2049433106576	228.34426303854875	76	127
228.40231292517007	228.62290249433107	74	127
228.66934240362812	228.8667120181406	73	127
228.8667120181406	229.02925170068028	74	127
229.0873015873016	229.22662131519274	71	127
229.28467120181406	229.5168707482993	69	127
229.5168707482993	229.72585034013605	71	127
229.7722902494331	229.94643990929706	67	127
230.01609977324264	230.16702947845806	66	127
230.22507936507935	230.36439909297053	62	127
230.42244897959185	230.94489795918366	78	127
230.95650793650793	231.1306575963719	76	127
231.1887074829932	231.39768707482995	74	127
231.45573696145124	231.67632653061224	73	127
231.67632653061224	231.82725623582766	74	127
231.88530612244898	232.04784580498867	71	127
232.10589569161	232.31487528344672	69	127
232.31487528344672	232.46580498866214	71	127
232.5702947845805	232.76766439909298	67	127
232.81410430839003	232.97664399092972	66	127
233.034693877551	233.22045351473923	62	127
233.2901133786848	233.74290249433108	66	127
233.74290249433108	233.90544217687074	64	127
233.9518820861678	234.12603174603174	62	127
234.18408163265306	234.38145124716553	61	127
234.38145124716553	234.53238095238095	62	127
234.59043083900227	234.74136054421768	59	127
234.799410430839	235.00839002267574	57	127
235.00839002267574	235.17092970521543	59	127
235.22897959183675	235.3915192743764	56	127
235.44956916099773	235.56566893424036	57	127
235.56566893424036	235.681768707483	62	127
235.681768707483	235.7746485260771	66	127
235.7746485260771	235.87913832199547	69	127
235.87913832199547	235.9952380952381	74	127
235.9952380952381	236.09972789115648	78	127
236.09972789115648	236.20421768707482	81	127
236.20421768707482	236.29709750566894	80	127
236.29709750566894	236.4015873015873	83	127
236.4015873015873	236.50607709750568	81	127
236.50607709750568	236.64539682539683	79	127
236.64539682539683	236.7498866213152	78	127
236.7498866213152	236.80793650793652	76	127
236.80793650793652	236.90081632653062	78	127
236.90081632653062	236.99369614512472	76	127
236.99369614512472	237.0633560090703	78	127
237.0633560090703	237.12140589569162	76	127
237.12140589569162	237.19106575963718	78	127
237.19106575963718	237.26072562358277	76	127
237.26072562358277	237.33038548752833	78	127
237.33038548752833	237.38843537414965	76	127
237.38843537414965	237.45809523809524	78	127
237.45809523809524	237.52775510204083	76	127
237.52775510204083	237.6322448979592	78	127
237.6322448979592	237.6902947845805	76	127
237.6902947845805	237.77156462585035	78	127
237.77156462585035	237.85283446712018	76	127
237.85283446712018	237.9689342403628	74	127
237.9689342403628	238.07342403628118	76	127
238.07342403628118	238.27079365079365	74	127
238.3172335600907	238.49138321995466	74	127
238.5378231292517	238.68875283446712	74	127
238.7584126984127	238.89773242630386	74	127
238.95578231292518	239.11832199546484	76	127
239.16476190476192	239.32730158730158	74	127
239.39696145124717	239.57111111111112	72	127
239.6291609977324	239.7917006802721	74	127
239.84975056689342	240.00068027210884	72	127
240.05873015873016	240.1980498866213	71	127
240.24448979591835	240.40702947845804	72	127
240.47668934240363	240.62761904761905	71	127
240.70888888888888	240.87142857142857	69	127
240.92947845804989	241.11523809523808	71	127
241.16167800453513	241.3009977324263	69	127
241.34743764172336	241.49836734693878	67	127
241.5564172335601	241.69573696145125	66	127
241.76539682539683	241.91632653061225	67	127
241.97437641723357	242.13691609977323	66	127
242.19496598639455	242.34589569160997	67	127
242.4387755102041	242.57809523809524	66	127
242.65936507936507	242.8102947845805	67	127
242.8683446712018	243.0308843537415	66	127
243.14698412698414	243.29791383219955	67	127
243.36757369614512	243.80875283446713	66	127
246.68802721088434	246.7692970521542	85	127
246.7692970521542	246.83895691609976	86	127
246.83895691609976	246.90861678004535	85	127
246.90861678004535	246.98988662131518	86	127
246.98988662131518	247.05954648526077	85	127
247.05954648526077	247.1175963718821	86	127
247.1175963718821	247.18725623582768	85	127
247.18725623582768	247.25691609977324	83	127
247.25691609977324	247.32657596371882	85	127
247.32657596371882	247.7445351473923	86	127
247.95351473922904	248.03478458049887	85	127
248.03478458049887	248.10444444444445	86	127
248.10444444444445	248.17410430839	85	127
248.17410430839	248.2437641723356	86	127
248.2437641723356	248.3134240362812	85	127
248.3134240362812	248.48757369614512	86	127
248.48757369614512	248.54562358276644	85	127
248.54562358276644	248.61528344671203	83	127
248.61528344671203	248.6849433106576	85	127
248.6849433106576	248.8707029478458	86	127
248.8707029478458	249.0332426303855	67	127
249.07968253968255	249.26544217687075	66	127
249.32349206349207	249.46281179138322	67	127
249.54408163265308	249.68340136054422	66	127
249.74145124716554	249.91560090702947	67	127
249.98526077097506	250.13619047619048	66	127
250.1942403628118	250.33356009070295	67	127
250.39160997732426	250.55414965986395	66	127
250.63541950113378	250.7863492063492	67	127
250.84439909297052	251.0069387755102	66	127
251.06498866213153	251.2275283446712	67	127
251.29718820861677	251.71514739229025	66	127
253.20122448979592	253.25927437641724	65	127
253.25927437641724	253.3289342403628	67	127
253.3289342403628	253.3985941043084	65	127
253.3985941043084	253.4566439909297	67	127
253.46825396825398	253.5495238095238	65	127
253.5495238095238	253.6191836734694	67	127
253.6191836734694	253.68884353741495	65	127
253.68884353741495	253.75850340136054	64	127
253.7701133786848	253.82816326530613	65	127
253.82816326530613	254.23451247165534	64	127
255.1168707482993	255.1865306122449	76	127
255.1865306122449	255.25619047619048	77	127
255.25619047619048	255.3374603174603	76	127
255.3374603174603	255.4071201814059	77	127
255.4071201814059	255.46517006802722	76	127
255.46517006802722	255.53482993197278	77	127
255.53482993197278	255.60448979591837	76	127
255.60448979591837	255.6857596371882	75	127
255.6857596371882	255.7554195011338	76	127
256.52167800453515	256.5913378684807	76	127
256.5913378684807	256.6609977324263	77	127
256.6609977324263	256.7306575963719	76	127
256.7306575963719	256.80031746031744	77	127
256.80031746031744	256.86997732426306	76	127
256.86997732426306	256.9512471655329	77	127
256.9512471655329	257.02090702947845	76	127
257.02090702947845	257.1253968253968	75	127
257.1253968253968	257.20666666666665	76	127
258.4489342403628	258.5418140589569	67	127
258.5418140589569	258.6114739229025	69	127
258.6114739229025	258.6811337868481	67	127
258.6811337868481	258.75079365079364	69	127
258.75079365079364	258.8320408163265	67	127
258.8320408163265	258.9017233560091	69	127
258.9017233560091	258.9481632653061	67	127
258.9481632653061	259.0178231292517	66	127
259.0178231292517	259.0874829931973	67	127
259.0874829931973	259.4938321995465	66	127
260.3065306122449	260.37619047619046	78	127
260.37619047619046	260.45746031746035	79	127
260.45746031746035	260.51551020408164	78	127
260.51551020408164	260.5851700680272	79	127
260.5851700680272	260.6548299319728	78	127
260.6548299319728	260.7244897959184	79	127
260.7244897959184	260.78253968253966	78	127
260.78253968253966	260.8521995464853	77	127
260.8521995464853	260.92185941043084	78	127
261.59521541950113	261.6532879818594	78	127
261.6532879818594	261.73455782312925	79	127
261.73455782312925	261.9319274376417	78	127
261.9319274376417	261.98997732426307	79	127
261.98997732426307	262.0596371882086	78	127
262.0596371882086	262.1292970521542	79	127
262.1292970521542	262.18734693877553	78	127
262.18734693877553	262.23378684807255	77	127
262.23378684807255	262.30342403628117	78	127
263.54571428571427	263.6037641723356	69	127
263.6037641723356	263.6734240362812	71	127
263.6734240362812	263.7430612244898	69	127
263.7430612244898	263.81274376417235	71	127
263.81274376417235	263.87079365079364	69	127
263.87079365079364	263.94043083900226	71	127
263.94043083900226	264.0101133786848	69	127
264.0101133786848	264.0681632653061	68	127
264.0681632653061	264.13782312925173	69	127
264.13782312925173	264.59061224489795	68	127
265.41492063492063	265.472947845805	80	127
265.472947845805	265.5542403628118	81	127
265.5542403628118	265.6587301587302	80	127
265.6587301587302	265.72839002267574	81	127
265.72839002267574	265.7980498866213	80	127
265.7980498866213	265.8677097505669	81	127
265.8677097505669	265.9373696145125	80	127
265.9373696145125	266.00702947845804	79	127
266.00702947845804	266.0650793650794	80	127
266.6804081632653	266.7500680272109	80	127
266.7500680272109	266.80809523809523	81	127
266.80809523809523	266.8777777777778	80	127
266.8777777777778	266.94743764172335	81	127
266.94743764172335	267.0170975056689	80	127
267.0170975056689	267.07514739229026	81	127
267.07514739229026	267.1448072562358	80	127
267.1448072562358	267.21444444444444	79	127
267.21444444444444	267.284126984127	80	127
272.06743764172336	272.25319727891156	85	127
272.25319727891156	272.38090702947846	84	127
272.38090702947846	272.47378684807256	82	127
272.47378684807256	272.57827664399093	80	127
272.57827664399093	272.65954648526076	82	127
272.65954648526076	272.76403628117913	84	127
272.76403628117913	272.9033560090703	85	127
272.94979591836733	273.1007256235828	87	127
273.14714285714285	273.3213151927438	88	127
273.39097505668934	273.5302947845805	82	127
273.61156462585035	273.77410430839	83	127
273.8205442176871	274.11079365079365	85	127
274.15723356009073	274.33138321995466	78	127
274.4010430839002	274.5403628117914	80	127
274.5984126984127	274.73773242630386	82	127
274.8073922902494	275.21374149659863	83	127
277.40802721088437	277.4892970521542	83	127
277.4892970521542	277.59378684807257	82	127
277.59378684807257	277.6750566893424	80	127
277.6750566893424	277.7679365079365	78	127
277.7679365079365	277.88403628117914	80	127
277.88403628117914	277.9885260770975	82	127
277.9885260770975	278.1278458049887	83	127
278.16267573696143	278.3484353741497	85	127
278.406485260771	278.5922448979592	86	127
278.63868480725625	278.78961451247164	80	127
278.8360544217687	279.0218140589569	81	127
279.0914739229025	279.32367346938776	83	127
279.45138321995466	279.5907029478458	76	127
279.64875283446713	279.82290249433106	78	127
279.8809523809524	280.0318820861678	80	127
280.10154195011336	280.55433106575964	81	127
282.77183673469386	282.87632653061223	81	127
282.87632653061223	282.9575736961451	80	127
282.9575736961451	283.0620634920635	78	127
283.0620634920635	283.16655328798186	76	127
283.16655328798186	283.27106575963717	78	127
283.27106575963717	283.3407256235828	80	127
283.3407256235828	283.4800453514739	81	127
283.53809523809525	283.68902494331064	83	127
283.747074829932	283.9328344671202	84	127
284.0257142857143	284.25791383219956	78	127
284.31596371882085	284.4668934240363	79	127
284.5249433106576	284.66426303854877	81	127
284.7107029478458	284.8848526077098	62	127
284.9661224489796	285.12866213151926	64	127
285.20990929705215	285.3724716553288	66	127
285.44213151927437	285.54662131519274	67	127
285.54662131519274	285.6511111111111	66	127
285.6511111111111	285.76721088435374	64	127
285.76721088435374	285.86009070294784	62	127
285.86009070294784	285.9645804988662	64	127
285.9645804988662	286.08068027210885	66	127
286.08068027210885	286.17356009070295	67	127
286.17356009070295	286.2780498866213	66	127
286.2780498866213	286.3709297052154	64	127
286.3709297052154	286.48702947845806	62	127
286.48702947845806	286.6031292517007	64	127
286.6031292517007	286.70761904761906	66	127
286.70761904761906	286.85854875283445	67	127
286.92820861678007	287.07913832199546	71	127
287.1371882086168	287.2765079365079	74	127
287.3345578231293	287.49709750566893	79	127
287.543537414966	287.6944671201814	83	127
287.7409070294785	287.90344671201814	86	127
287.9614739229025	288.4491156462585	91	127
290.07451247165534	290.1441723356009	85	127
290.1441723356009	290.51569160997735	86	127
290.5272789115646	290.6434013605442	62	127
290.6434013605442	290.7478911564626	64	127
290.7478911564626	290.84077097505667	66	127
290.85238095238094	290.94526077097504	67	127
290.94526077097504	291.0497505668934	66	127
291.0497505668934	291.1426303854875	64	127
291.1426303854875	291.23548752834466	62	127
291.23548752834466	291.33997732426303	64	127
291.33997732426303	291.43287981859413	66	127
291.43287981859413	291.5373696145125	67	127
291.5373696145125	291.66507936507935	66	127
291.66507936507935	291.7695691609977	64	127
291.7695691609977	291.8740589569161	62	127
291.8740589569161	291.9669387755102	64	127
291.9669387755102	292.0946485260771	66	127
292.0946485260771	292.2571655328798	67	127
292.32684807256237	292.46614512471655	71	127
292.51260770975057	292.6867573696145	74	127
292.7564172335601	292.88412698412696	79	127
292.9421768707483	293.0931065759637	83	127
293.15115646258505	293.30208616780044	86	127
293.3833333333333	293.8593650793651	91	127
295.4963718820862	295.55442176870747	90	127
295.55442176870747	296.32068027210886	91	127
301.3013605442177	301.45229024943313	67	127
301.5219501133787	301.6728798185941	67	127
301.73092970521543	301.9282993197279	67	127
301.9282993197279	302.1953287981859	69	127
302.1953287981859	302.3926984126984	71	127
302.40430839002266	303.4259863945578	72	127
303.4375963718821	303.6465759637188	71	127
303.6465759637188	303.9368253968254	76	127
303.9368253968254	304.94689342403626	74	127
304.94689342403626	305.1326530612245	72	127
305.1326530612245	305.3532199546485	71	127
305.3532199546485	305.5622222222222	71	127
305.5622222222222	305.7944217687075	68	127
305.7944217687075	306.06142857142856	69	127
306.06142857142856	306.3168707482993	69	127
306.3168707482993	306.5955102040816	71	127
306.5955102040816	306.7928798185941	72	127
306.7928798185941	307.0018594104308	71	127
307.0018594104308	307.1875963718821	67	127
307.2340589569161	307.3965759637188	74	127
307.4546485260771	307.71006802721087	74	127
307.72167800453514	307.81455782312923	76	127
307.81455782312923	307.9538775510204	74	127
307.9538775510204	308.0583673469388	72	127
308.0583673469388	308.1744671201814	71	127
308.1744671201814	308.44149659863945	71	127
308.44149659863945	308.6504761904762	68	127
308.6504761904762	308.84784580498865	69	127
308.84784580498865	309.1380952380952	69	127
309.1380952380952	309.33544217687074	71	127
309.33544217687074	309.5328117913832	72	127
309.5444217687075	309.8230839002268	71	127
309.8230839002268	309.9624036281179	67	127
310.0320634920635	310.229433106576	74	127
310.275873015873	310.51968253968255	74	127
310.51968253968255	310.6357823129252	76	127
310.6357823129252	310.74027210884356	74	127
310.74027210884356	310.8215419501134	72	127
310.8215419501134	310.937641723356	71	127
310.937641723356	311.20467120181405	71	127
311.20467120181405	311.4136507936508	68	127
311.46009070294787	311.6226303854875	69	127
311.6806575963719	311.9012698412698	71	127
311.9012698412698	312.06380952380954	68	127
312.11024943310656	312.261179138322	69	127
312.307619047619	312.42371882086167	69	127
312.42371882086167	312.4933786848073	81	127
312.52820861678003	312.59786848072565	79	127
312.62108843537413	312.69074829931975	78	127
312.7255782312925	312.7952380952381	76	127
312.83006802721087	312.8997278911565	74	127
312.93455782312924	313.06226757369615	73	127
313.09709750566896	313.1667573696145	71	127
313.18997732426305	313.2712471655329	69	127
313.31766439909296	313.3873469387755	67	127
313.41056689342406	313.51505668934243	66	127
313.5382766439909	313.6195464852608	64	127
313.65437641723355	314.06072562358275	62	127
314.47868480725623	314.69927437641724	73	127
314.7108843537415	314.78054421768707	73	127
314.78054421768707	314.8385941043084	74	127
314.8385941043084	314.908253968254	73	127
314.908253968254	315.01274376417234	74	127
315.01274376417234	315.1636507936508	81	127
315.18689342403627	315.2565532879819	79	127
315.29138321995464	315.37265306122447	78	127
315.395873015873	315.47714285714284	76	127
315.5003628117914	315.60485260770974	74	127
315.63968253968255	315.7093424036281	73	127
315.73256235827665	315.8138321995465	71	127
315.8486621315193	315.91832199546485	69	127
315.95315192743766	316.0344217687075	67	127
316.057641723356	316.1273015873016	66	127
316.18532879818594	316.2550113378685	64	127
316.27823129251703	316.67297052154197	62	127
317.1025170068027	317.31149659863945	85	127
317.32312925170066	317.381179138322	85	127
317.381179138322	317.45083900226757	86	127
317.45083900226757	317.52049886621313	85	127
317.52049886621313	317.64820861678004	86	127
317.64820861678004	317.7643083900227	81	127
317.7991383219955	317.86879818594105	79	127
317.90362811791385	317.9848979591837	78	127
318.0081179138322	318.0777777777778	76	127
318.1126077097506	318.18226757369615	74	127
318.2054875283447	318.2867573696145	73	127
318.30997732426306	318.3796371882086	71	127
318.4492970521542	318.5189569160998	69	127
318.5421768707483	318.6118367346939	67	127
318.64666666666665	318.71632653061226	66	127
318.7395238095238	318.82081632653063	64	127
318.84401360544217	318.94850340136054	62	127
318.94850340136054	319.0646258503401	61	127
319.0646258503401	319.18072562358276	59	127
319.18072562358276	319.2852154195011	57	127
319.2852154195011	319.3897052154195	59	127
319.3897052154195	319.49419501133787	61	127
319.49419501133787	319.59868480725623	62	127
319.59868480725623	319.7031746031746	61	127
319.7031746031746	319.80766439909297	59	127
319.80766439909297	319.91215419501134	57	127
319.91215419501134	320.0166439909297	59	127
320.0166439909297	320.1095238095238	61	127
320.1095238095238	320.515873015873	62	127
323.39514739229026	324.3587528344671	78	127
324.3587528344671	324.5445351473923	75	127
324.6374149659864	324.8812244897959	71	127
329.42072562358277	330.4191836734694	83	127
330.43079365079365	330.5817233560091	80	127
330.6397732426304	330.8022902494331	76	127
332.2187301587302	333.87895691609975	84	127
333.87895691609975	334.6684353741497	85	127
334.6684353741497	334.947074829932	86	127
334.947074829932	335.167664399093	89	127
335.167664399093	335.36503401360545	86	127
335.3766439909297	335.5740136054422	83	127
335.6204535147392	335.86426303854876	79	127
335.86426303854876	336.11965986394557	83	127
336.11965986394557	336.58408163265307	84	127
336.59569160997734	336.8394784580499	83	127
336.8394784580499	337.5709297052154	82	127
337.5825396825397	337.7915192743764	83	127
337.8031292517007	338.081768707483	86	127
338.081768707483	338.31396825396826	83	127
338.31396825396826	338.5113378684807	80	127
338.522947845805	338.76675736961454	76	127
338.789977324263	339.04539682539684	80	127
339.04539682539684	339.4981632653061	81	127
339.4981632653061	339.73038548752834	79	127
339.7768253968254	340.45020408163265	78	127
340.45020408163265	340.4966439909297	81	127
340.4966439909297	340.7868934240363	79	127
340.79850340136056	341.03068027210884	78	127
341.04231292517005	341.2396825396825	79	127
341.2396825396825	342.16848072562357	81	127
342.16848072562357	342.4239002267574	84	127
342.4239002267574	342.6096598639456	81	127
342.6096598639456	342.6676870748299	83	127
342.6676870748299	342.8882993197279	81	127
342.89990929705215	343.06244897959186	79	127
343.12049886621315	343.2714058956916	79	127
343.37589569160997	343.43396825396826	79	127
343.43396825396826	343.5036281179138	81	127
343.5036281179138	343.5848752834467	79	127
343.5848752834467	343.74743764172337	81	127
343.80548752834466	343.9912244897959	78	127
344.0492970521542	344.1421768707483	79	127
344.15378684807257	344.25827664399094	62	127
344.15378684807257	344.25827664399094	70	127
344.25827664399094	344.35115646258504	62	127
344.25827664399094	344.35115646258504	70	127
344.3627664399093	344.47886621315195	62	127
344.3627664399093	344.47886621315195	70	127
344.47886621315195	344.5833560090703	70	127
344.47886621315195	344.5833560090703	62	127
344.5833560090703	344.6762358276644	62	127
344.5833560090703	344.6762358276644	70	127
344.6878458049887	344.7807256235828	62	127
344.6878458049887	344.7807256235828	70	127
344.7807256235828	344.8736054421769	62	127
344.7807256235828	344.8736054421769	70	127
344.88521541950115	344.9897052154195	62	127
344.88521541950115	344.9897052154195	70	127
344.9897052154195	345.1754648526077	62	127
344.9897052154195	345.1754648526077	70	127
345.1754648526077	345.29156462585036	70	127
345.1754648526077	345.29156462585036	62	127
345.3031746031746	345.407664399093	62	127
345.3031746031746	345.407664399093	70	127
345.407664399093	345.5005442176871	72	127
345.407664399093	345.5005442176871	62	127
345.51215419501136	345.60503401360546	62	127
345.51215419501136	345.60503401360546	72	127
345.60503401360546	345.7211337868481	62	127
345.60503401360546	345.7211337868481	72	127
345.7211337868481	345.8720634920635	72	127
345.7211337868481	345.8720634920635	62	127
345.88367346938776	345.97655328798186	62	127
345.88367346938776	345.97655328798186	72	127
345.97655328798186	346.06943310657596	62	127
345.97655328798186	346.06943310657596	72	127
346.06943310657596	346.1739229024943	62	127
346.06943310657596	346.1739229024943	72	127
346.1739229024943	346.25519274376416	62	127
346.1739229024943	346.25519274376416	72	127
346.25519274376416	346.3480498866213	62	127
346.25519274376416	346.3480498866213	72	127
346.3596825396825	346.4525623582766	62	127
346.3596825396825	346.4525623582766	72	127
346.4525623582766	346.58027210884353	72	127
346.4525623582766	346.58027210884353	62	127
346.58027210884353	346.67315192743763	72	127
346.58027210884353	346.67315192743763	62	127
346.6847619047619	346.777641723356	69	127
346.6847619047619	346.777641723356	62	127
346.777641723356	346.8705215419501	62	127
346.777641723356	346.8705215419501	69	127
346.88213151927437	346.97501133786847	62	127
346.88213151927437	346.97501133786847	69	127
346.97501133786847	347.07950113378683	62	127
346.97501133786847	347.07950113378683	69	127
347.07950113378683	347.20721088435374	66	127
347.218820861678	347.3233106575964	66	127
347.3233106575964	347.42780045351475	69	127
347.3233106575964	347.42780045351475	62	127
347.4510204081633	347.5439002267574	62	127
347.4510204081633	347.5439002267574	69	127
347.5439002267574	347.6367800453515	62	127
347.5439002267574	347.6367800453515	69	127
347.6367800453515	347.7296598639456	69	127
347.6367800453515	347.7296598639456	62	127
347.74126984126985	347.86897959183676	66	127
347.86897959183676	347.97344671201813	66	127
347.97344671201813	348.0779365079365	62	127
348.0779365079365	348.1708390022676	67	127
348.1708390022676	348.28691609977324	70	127
348.28691609977324	348.4030385487528	74	127
348.4030385487528	348.49589569161	79	127
348.49589569161	348.64684807256236	82	127
348.64684807256236	348.78616780045354	86	127
348.84421768707483	349.05319727891157	86	127
349.09961451247165	349.2737868480726	86	127
349.3202267573696	350.09809523809525	86	127
350.09809523809525	350.2606349206349	82	127
350.307074829932	350.46961451247165	79	127
350.4812244897959	350.527664399093	81	127
350.527664399093	350.7134240362812	79	127
350.73662131519274	351.3403628117914	78	127
351.3403628117914	351.5377324263039	78	127
351.5841723356009	351.897641723356	79	127
351.9092517006803	352.29238095238094	81	127
352.29238095238094	352.5710204081633	78	127
352.5710204081633	353.0586394557823	74	127
353.0586394557823	353.32566893424035	72	127
353.32566893424035	353.7900680272109	70	127
354.68403628117915	355.1019954648526	82	127
355.1019954648526	355.2412925170068	79	127
355.2412925170068	355.3574149659864	75	127
355.3574149659864	355.8334240362812	74	127
357.31950113378684	357.85356009070296	87	127
357.8651700680272	357.9580498866213	84	127
357.9580498866213	358.0973469387755	80	127
358.0973469387755	358.5269387755102	79	127
358.72430839002266	358.9332879818594	78	127
358.99133786848074	359.13065759637186	79	127
359.17709750566894	359.39768707482995	78	127
359.44412698412697	359.58344671201814	79	127
359.64149659863943	359.8156462585034	78	127
359.8736961451247	360.0594557823129	79	127
360.11750566893426	360.26843537414965	78	127
360.3148752834467	360.4658049886621	79	127
360.5122448979592	360.72122448979593	78	127
360.7792743764172	360.93020408163267	79	127
360.9998639455782	361.1391836734694	78	127
361.1856235827664	361.3829931972789	79	127
361.44104308390024	362.1028117913832	78	127
362.1144217687075	362.7645804988662	82	127
362.7645804988662	363.4031292517007	81	127
363.4031292517007	364.122947845805	90	127
364.1345351473923	364.38997732426304	90	127
364.38997732426304	364.5408843537415	91	127
364.5873469387755	364.8079365079365	91	127
364.8659863945578	365.07496598639455	91	127
365.07496598639455	365.22589569161	88	127
365.272335600907	365.4697052154195	88	127
365.4697052154195	365.5277551020408	90	127
365.5277551020408	365.74834467120183	88	127
365.74834467120183	365.8992743764172	86	127
365.9573242630386	366.15469387755104	86	127
366.15469387755104	366.20113378684806	90	127
366.20113378684806	366.4101133786848	88	127
366.4101133786848	366.549433106576	86	127
366.61909297052154	366.8629024943311	86	127
366.93256235827664	367.0486621315193	86	127
367.0486621315193	367.3505215419501	79	127
370.35750566893427	370.7522448979592	83	127
370.7522448979592	370.9031746031746	81	127
370.96122448979594	371.1934013605442	79	127
371.2514739229025	371.5301133786848	78	127
371.5301133786848	371.68104308390025	79	127
371.73909297052154	371.95968253968255	76	127
372.0060997732426	372.2034693877551	74	127
372.2034693877551	372.41244897959183	76	127
372.4821315192744	372.67950113378686	72	127
372.7491609977324	372.9813605442177	71	127
372.9813605442177	373.1555102040816	74	127
373.2019501133787	373.39931972789117	67	127
376.0115646258503	376.4991609977324	83	127
376.51079365079363	376.6501133786848	81	127
376.70814058956915	376.8474829931973	79	127
376.9055328798186	377.1841723356009	78	127
377.1841723356009	377.3351020408163	79	127
377.3815419501134	377.57891156462586	76	127
377.6950113378685	377.9156009070295	74	127
377.9156009070295	378.07814058956916	76	127
378.1361678004535	378.2871201814059	72	127
378.40321995464853	378.600589569161	71	127
378.6586394557823	378.80956916099774	67	127
378.86761904761903	379.262335600907	83	127
379.262335600907	379.4132879818594	81	127
379.4597278911565	379.6686848072562	79	127
379.7267573696145	380.0053968253968	78	127
380.0053968253968	380.144716553288	79	127
380.2724263038549	380.43496598639456	76	127
380.48140589569164	380.71360544217686	74	127
380.71360544217686	380.8761451247166	76	127
380.94580498866213	381.0967346938776	72	127
381.21283446712016	381.38698412698415	71	127
381.43342403628117	381.5843537414966	67	127
381.6424036281179	382.0603628117914	71	127
382.0603628117914	382.2112925170068	69	127
382.2693424036281	382.4318820861678	67	127
382.4899319727891	382.6873015873016	66	127
382.6873015873016	382.838231292517	67	127
382.8962811791383	383.0356009070295	64	127
383.0936507936508	383.29102040816326	62	127
383.29102040816326	383.4419501133787	64	127
383.5	383.6393197278912	61	127
383.69736961451247	383.8134693877551	62	127
383.8134693877551	383.9179591836735	66	127
383.9179591836735	384.02244897959184	67	127
384.02244897959184	384.11532879818594	69	127
384.11532879818594	384.20820861678004	71	127
384.20820861678004	384.30108843537414	72	127
384.30108843537414	384.42879818594105	74	127
384.42879818594105	384.5448979591837	73	127
384.5448979591837	384.64938775510205	76	127
384.64938775510205	384.7654875283447	74	127
384.7654875283447	384.86997732426306	72	127
384.86997732426306	384.9976870748299	71	127
384.9976870748299	385.1021768707483	69	127
385.1021768707483	385.1718367346939	71	127
385.1718367346939	385.2531065759637	69	127
385.2531065759637	385.33437641723356	71	127
385.33437641723356	385.42725623582766	69	127
385.42725623582766	385.4969160997732	71	127
385.4969160997732	385.55496598639456	69	127
385.55496598639456	385.6246258503401	71	127
385.6246258503401	385.69428571428574	69	127
385.69428571428574	385.75233560090703	71	127
385.75233560090703	385.8103854875283	69	127
385.8103854875283	385.88004535147394	71	127
385.88004535147394	385.96131519274377	69	127
385.96131519274377	386.03097505668933	71	127
386.03097505668933	386.11224489795916	69	127
386.11224489795916	386.25156462585034	67	127
386.25156462585034	386.3560544217687	69	127
386.367664399093	386.4953741496599	67	127
386.56503401360544	386.7043537414966	67	127
386.7624036281179	386.9017233560091	67	127
386.9481632653061	387.09909297052155	67	127
387.1455328798186	387.3080725623583	69	127
387.4009523809524	387.5402721088435	67	127
387.59832199546486	387.7956916099773	65	127
387.8653514739229	388.01628117913833	67	127
388.0743310657596	388.23687074829934	65	127
388.29492063492063	388.4458503401361	64	127
388.50390022675737	388.6548299319728	65	127
388.7128798185941	388.87541950113376	64	127
388.9334693877551	389.0843990929705	62	127
389.1308390022676	389.28176870748297	64	127
389.3514285714286	389.502358276644	62	127
389.5604081632653	389.7113378684807	60	127
389.76938775510206	389.9319274376417	59	127
389.98997732426307	390.14090702947846	60	127
390.23378684807255	390.37310657596373	59	127
390.4427664399093	390.605306122449	60	127
390.6633560090703	390.8142857142857	59	127
390.86072562358277	391.04648526077096	60	127
391.09292517006804	391.31351473922905	59	127
391.3947845804989	391.54571428571427	60	127
391.6153741496599	392.0217233560091	59	127
394.91260770975055	394.98226757369616	78	127
394.98226757369616	395.07514739229026	79	127
395.07514739229026	395.1564172335601	78	127
395.1564172335601	395.2144671201814	79	127
395.2144671201814	395.31895691609975	78	127
395.31895691609975	395.38861678004537	79	127
395.38861678004537	395.4698866213152	78	127
395.4698866213152	395.5279365079365	76	127
395.5279365079365	395.6092063492064	78	127
395.6092063492064	396.0155555555556	79	127
396.2245351473923	396.2825850340136	78	127
396.2825850340136	396.36385487528344	79	127
396.36385487528344	396.49156462585034	78	127
396.49156462585034	396.5728344671202	79	127
396.5728344671202	396.64249433106573	78	127
396.64249433106573	396.7237641723356	79	127
396.7237641723356	396.7934240362812	78	127
396.7934240362812	396.86308390022674	76	127
396.86308390022674	396.99079365079365	78	127
396.99079365079365	397.1417233560091	79	127
397.1997732426304	397.36231292517004	60	127
397.44358276643993	397.58290249433105	59	127
397.6641723356009	397.8151020408163	60	127
397.8615419501134	398.0124716553288	59	127
398.08213151927436	398.2330612244898	60	127
398.31433106575963	398.4536507936508	59	127
398.5117006802721	398.7439002267574	60	127
398.7903401360544	398.94126984126984	59	127
398.9877097505669	399.1502494331066	60	127
399.20829931972787	399.3592290249433	59	127
399.4172789115646	399.5449886621315	60	127
399.6030385487528	399.742358276644	59	127
399.78879818594106	399.962947845805	74	127
400.0209977324263	400.1719274376417	71	127
400.229977324263	400.3692970521542	74	127
400.4273469387755	400.57827664399093	71	127
400.65954648526076	400.8104761904762	74	127
400.8685260770975	401.01945578231295	71	127
401.07750566893424	401.2284353741497	86	127
401.286485260771	401.4374149659864	83	127
401.4954648526077	401.6347845804989	86	127
401.70444444444445	401.8437641723356	83	127
401.9018140589569	402.07596371882084	86	127
402.14562358276646	402.55197278911567	83	127
402.64485260770977	403.097641723356	74	127
402.64485260770977	403.097641723356	62	127
403.30662131519273	404.18897959183676	62	127
403.30662131519273	404.18897959183676	71	127
406.9289342403628	407.06825396825394	67	127
