# onset,offset,note,velocity
0.7306575963718821	0.8235374149659864	67	127
0.7306575963718821	0.8235374149659864	43	127
0.7306575963718821	0.8235374149659864	55	127
0.8235374149659864	0.9048072562358277	54	127
0.8235374149659864	0.9048072562358277	42	127
0.9164172335600907	1.009297052154195	52	127
0.9164172335600907	1.009297052154195	40	127
1.009297052154195	1.1137868480725623	50	127
1.009297052154195	1.1137868480725623	38	127
1.1137868480725623	1.2182539682539681	40	127
1.1137868480725623	1.2182539682539681	52	127
1.2298866213151927	1.322766439909297	54	127
1.2298866213151927	1.322766439909297	42	127
1.322766439909297	1.4272562358276644	55	127
1.322766439909297	1.4272562358276644	43	127
1.4272562358276644	1.5317460317460319	54	127
1.4272562358276644	1.5317460317460319	42	127
1.5317460317460319	1.6594557823129252	52	127
1.5317460317460319	1.6594557823129252	40	127
1.6594557823129252	1.7523356009070294	50	127
1.6594557823129252	1.7523356009070294	38	127
1.7639455782312925	1.856825396825397	52	127
1.7639455782312925	1.856825396825397	40	127
1.856825396825397	1.9613151927437642	54	127
1.856825396825397	1.9613151927437642	42	127
1.9613151927437642	2.170294784580499	55	127
1.9613151927437642	2.170294784580499	43	127
2.170294784580499	2.3444444444444446	59	127
2.170294784580499	2.3444444444444446	47	127
2.3444444444444446	2.553424036281179	62	127
2.3444444444444446	2.553424036281179	50	127
2.5650340136054424	2.739183673469388	67	127
2.5650340136054424	2.739183673469388	55	127
2.750793650793651	2.9597732426303853	71	127
2.750793650793651	2.9597732426303853	59	127
2.9713832199546486	3.180362811791383	74	127
2.9713832199546486	3.180362811791383	62	127
3.180362811791383	3.6331519274376416	67	127
3.180362811791383	3.6331519274376416	71	127
3.412562358276644	3.6331519274376416	79	127
3.6331519274376416	3.8537414965986394	83	127
3.8537414965986394	4.283310657596372	69	127
3.8537414965986394	4.283310657596372	62	127
4.062721088435374	4.283310657596372	78	127
4.062721088435374	4.283310657596372	81	127
4.283310657596372	4.515510204081632	86	127
4.515510204081632	4.724467120181406	74	127
4.515510204081632	4.724467120181406	79	127
4.515510204081632	4.724467120181406	83	127
4.515510204081632	4.724467120181406	55	127
4.515510204081632	4.724467120181406	67	127
4.73609977324263	4.968299319727891	74	127
4.73609977324263	4.968299319727891	78	127
4.73609977324263	4.968299319727891	81	127
4.73609977324263	4.968299319727891	50	127
4.73609977324263	4.968299319727891	62	127
5.606848072562358	5.711337868480726	50	127
5.606848072562358	5.711337868480726	38	127
5.711337868480726	5.815827664399093	52	127
5.711337868480726	5.815827664399093	40	127
5.839047619047619	5.943537414965986	54	127
5.839047619047619	5.943537414965986	42	127
5.943537414965986	6.0364172335600905	55	127
5.943537414965986	6.0364172335600905	43	127
6.048027210884354	6.129297052154195	54	127
6.048027210884354	6.129297052154195	42	127
6.129297052154195	6.245396825396825	52	127
6.129297052154195	6.245396825396825	40	127
6.245396825396825	6.349886621315193	50	127
6.245396825396825	6.349886621315193	38	127
6.361496598639456	6.4543764172335605	52	127
6.361496598639456	6.4543764172335605	40	127
6.4543764172335605	6.547256235827664	54	127
6.4543764172335605	6.547256235827664	42	127
6.547256235827664	6.628526077097506	55	127
6.547256235827664	6.628526077097506	43	127
6.6401360544217685	6.733015873015873	54	127
6.6401360544217685	6.733015873015873	42	127
6.733015873015873	6.825895691609977	52	127
6.733015873015873	6.825895691609977	40	127
6.837505668934241	6.930385487528345	50	127
6.837505668934241	6.930385487528345	38	127
6.930385487528345	7.034875283446712	52	127
6.930385487528345	7.034875283446712	40	127
7.034875283446712	7.127755102040816	54	127
7.034875283446712	7.127755102040816	42	127
7.13936507936508	7.348344671201814	55	127
7.13936507936508	7.348344671201814	43	127
7.359954648526077	7.557324263038549	47	127
7.359954648526077	7.557324263038549	59	127
7.557324263038549	7.754693877551021	62	127
7.557324263038549	7.754693877551021	50	127
7.754693877551021	7.952063492063492	67	127
7.754693877551021	7.952063492063492	55	127
7.952063492063492	8.1378231292517	71	127
7.952063492063492	8.1378231292517	59	127
8.149433106575964	8.335192743764173	74	127
8.149433106575964	8.335192743764173	62	127
8.335192743764173	8.846031746031747	67	127
8.335192743764173	8.846031746031747	71	127
8.637052154195011	8.846031746031747	79	127
8.846031746031747	9.089818594104308	83	127
9.101451247165533	9.565827664399093	62	127
9.101451247165533	9.565827664399093	69	127
9.322040816326531	9.565827664399093	78	127
9.322040816326531	9.565827664399093	81	127
9.577460317460318	9.77482993197279	86	127
9.77482993197279	10.018639455782314	74	127
9.77482993197279	10.018639455782314	83	127
9.77482993197279	10.018639455782314	55	127
9.77482993197279	10.018639455782314	67	127
10.018639455782314	10.285668934240363	71	127
10.018639455782314	10.285668934240363	79	127
10.018639455782314	10.285668934240363	55	127
10.018639455782314	10.285668934240363	67	127
11.017097505668934	11.12156462585034	67	127
11.12156462585034	11.214444444444444	72	127
11.22607709750567	12.538004535147392	72	127
11.22607709750567	12.538004535147392	64	127
11.22607709750567	13.014013605442177	67	127
12.549614512471654	12.770204081632652	71	127
12.549614512471654	12.770204081632652	62	127
12.781814058956916	13.014013605442177	76	127
12.781814058956916	13.014013605442177	60	127
13.014013605442177	14.035691609977324	74	127
13.014013605442177	14.035691609977324	59	127
13.014013605442177	14.47687074829932	67	127
14.035691609977324	14.256281179138321	72	127
14.035691609977324	14.256281179138321	57	127
14.256281179138321	14.47687074829932	71	127
14.256281179138321	14.47687074829932	55	127
14.47687074829932	14.685850340136055	71	127
14.47687074829932	15.196689342403628	67	127
14.47687074829932	15.196689342403628	64	127
14.47687074829932	15.196689342403628	60	127
14.697460317460317	14.97609977324263	68	127
14.987709750566893	15.196689342403628	69	127
15.196689342403628	15.417278911564626	69	127
15.196689342403628	15.881678004535148	66	127
15.196689342403628	15.881678004535148	62	127
15.417278911564626	15.649478458049886	71	127
15.66108843537415	15.881678004535148	72	127
15.89328798185941	16.102267573696146	71	127
15.89328798185941	16.102267573696146	43	127
16.102267573696146	16.299637188208617	67	127
16.102267573696146	16.299637188208617	55	127
16.299637188208617	16.566666666666666	55	127
16.566666666666666	16.764036281179138	55	127
16.7756462585034	16.9962358276644	54	127
16.9962358276644	17.26326530612245	53	127
17.26326530612245	18.168843537414965	52	127
17.518684807256236	17.750884353741498	55	127
17.76249433106576	17.94825396825397	67	127
17.95986394557823	18.598412698412698	67	127
18.168843537414965	18.389433106575964	50	127
18.389433106575964	18.598412698412698	48	127
18.598412698412698	19.585260770975058	47	127
18.865442176870747	19.10925170068027	55	127
19.10925170068027	19.32984126984127	67	127
19.32984126984127	20.072879818594103	67	127
19.585260770975058	19.805850340136054	45	127
19.817460317460316	20.072879818594103	43	127
20.08448979591837	20.5256462585034	48	127
20.293469387755103	20.5256462585034	55	127
20.293469387755103	20.5256462585034	57	127
20.5256462585034	20.74625850340136	64	127
20.5256462585034	20.74625850340136	49	127
20.74625850340136	21.280294784580498	50	127
21.024897959183672	21.280294784580498	54	127
21.024897959183672	21.280294784580498	57	127
21.280294784580498	21.489297052154196	62	127
21.280294784580498	21.489297052154196	38	127
21.489297052154196	21.930476190476192	31	127
21.709886621315192	21.930476190476192	59	127
21.709886621315192	21.930476190476192	43	127
21.942086167800454	22.139455782312925	59	127
21.942086167800454	22.139455782312925	43	127
22.151065759637188	22.371655328798187	59	127
22.151065759637188	22.371655328798187	43	127
22.371655328798187	22.476145124716552	60	127
22.371655328798187	22.476145124716552	42	127
22.487732426303854	22.58063492063492	59	127
22.487732426303854	22.58063492063492	43	127
22.58063492063492	22.68512471655329	57	127
22.58063492063492	22.68512471655329	45	127
22.68512471655329	22.789614512471655	55	127
22.68512471655329	22.789614512471655	47	127
22.801224489795917	23.277233560090703	48	127
23.056621315192743	23.277233560090703	55	127
23.056621315192743	23.277233560090703	57	127
23.277233560090703	23.474603174603175	64	127
23.277233560090703	23.474603174603175	49	127
23.474603174603175	23.904172335600908	50	127
23.706802721088437	23.904172335600908	54	127
23.706802721088437	23.904172335600908	57	127
23.91578231292517	24.171201814058957	62	127
23.91578231292517	24.171201814058957	38	127
24.171201814058957	24.577551020408162	31	127
24.38018140589569	24.577551020408162	59	127
24.38018140589569	24.577551020408162	43	127
24.577551020408162	24.809750566893424	59	127
24.577551020408162	24.809750566893424	43	127
24.821360544217686	25.018730158730158	59	127
24.821360544217686	25.018730158730158	43	127
25.030340136054424	25.111609977324264	60	127
25.030340136054424	25.111609977324264	42	127
25.111609977324264	25.21609977324263	59	127
25.111609977324264	25.21609977324263	43	127
25.21609977324263	25.308979591836735	57	127
25.21609977324263	25.308979591836735	45	127
25.320589569160997	25.413469387755104	55	127
25.320589569160997	25.413469387755104	47	127
25.413469387755104	25.71532879818594	36	127
25.71532879818594	25.91269841269841	55	127
25.71532879818594	25.91269841269841	57	127
25.71532879818594	25.91269841269841	48	127
25.924308390022677	26.13328798185941	64	127
25.924308390022677	26.13328798185941	48	127
26.13328798185941	26.342267573696144	36	127
26.342267573696144	26.551247165532878	55	127
26.342267573696144	26.551247165532878	57	127
26.342267573696144	26.551247165532878	48	127
26.562857142857144	26.795056689342402	64	127
26.562857142857144	26.795056689342402	48	127
26.795056689342402	27.027256235827664	38	127
26.89954648526077	27.143356009070295	57	127
27.038866213151927	27.259455782312926	62	127
27.038866213151927	27.259455782312926	54	127
27.038866213151927	27.259455782312926	50	127
27.143356009070295	27.35233560090703	57	127
27.259455782312926	27.456825396825398	66	127
27.259455782312926	27.456825396825398	50	127
27.259455782312926	27.456825396825398	54	127
27.36394557823129	27.561315192743763	62	127
27.456825396825398	27.65419501133787	69	127
27.456825396825398	27.65419501133787	57	127
27.456825396825398	27.65419501133787	54	127
27.456825396825398	27.65419501133787	50	127
27.561315192743763	27.7702947845805	66	127
27.677414965986394	27.898004535147393	74	127
27.677414965986394	27.898004535147393	57	127
27.677414965986394	27.898004535147393	54	127
27.677414965986394	27.898004535147393	50	127
27.7702947845805	28.014104308390024	69	127
27.909614512471656	28.11859410430839	78	127
27.909614512471656	28.11859410430839	57	127
27.909614512471656	28.11859410430839	54	127
27.909614512471656	28.11859410430839	50	127
28.014104308390024	28.11859410430839	74	127
28.11859410430839	28.397233560090704	50	127
28.11859410430839	28.397233560090704	54	127
28.11859410430839	28.397233560090704	57	127
28.11859410430839	28.594603174603176	81	127
28.397233560090704	28.594603174603176	50	127
28.397233560090704	28.594603174603176	54	127
28.397233560090704	28.594603174603176	57	127
28.594603174603176	28.80358276643991	50	127
28.594603174603176	28.80358276643991	54	127
28.594603174603176	28.80358276643991	57	127
28.81519274376417	29.07061224489796	50	127
28.81519274376417	29.07061224489796	54	127
28.81519274376417	29.07061224489796	57	127
29.07061224489796	29.279591836734692	50	127
29.07061224489796	29.279591836734692	54	127
29.07061224489796	29.279591836734692	57	127
29.279591836734692	29.476961451247167	50	127
29.279591836734692	29.476961451247167	54	127
29.279591836734692	29.476961451247167	57	127
29.476961451247167	29.674331065759638	40	127
29.581451247165532	29.778820861678003	57	127
29.6859410430839	29.87170068027211	61	127
29.6859410430839	29.87170068027211	52	127
29.6859410430839	29.87170068027211	55	127
29.6859410430839	29.87170068027211	57	127
29.778820861678003	29.964580498866212	57	127
29.883310657596372	30.127120181405896	64	127
29.883310657596372	30.127120181405896	52	127
29.883310657596372	30.127120181405896	55	127
29.883310657596372	30.127120181405896	57	127
29.964580498866212	30.243219954648527	61	127
30.127120181405896	30.347709750566892	67	127
30.127120181405896	30.347709750566892	52	127
30.127120181405896	30.347709750566892	55	127
30.127120181405896	30.347709750566892	57	127
30.25482993197279	30.45219954648526	64	127
30.347709750566892	30.545079365079363	73	127
30.347709750566892	30.545079365079363	52	127
30.347709750566892	30.545079365079363	55	127
30.347709750566892	30.545079365079363	57	127
30.45219954648526	30.649569160997732	67	127
30.545079365079363	30.7540589569161	76	127
30.545079365079363	30.7540589569161	52	127
30.545079365079363	30.7540589569161	55	127
30.545079365079363	30.7540589569161	57	127
30.649569160997732	30.7540589569161	73	127
30.765668934240363	30.997868480725625	52	127
30.765668934240363	30.997868480725625	55	127
30.765668934240363	30.997868480725625	57	127
30.765668934240363	31.195238095238096	79	127
30.997868480725625	31.195238095238096	52	127
30.997868480725625	31.195238095238096	55	127
30.997868480725625	31.195238095238096	57	127
31.195238095238096	31.392607709750568	52	127
31.195238095238096	31.392607709750568	55	127
31.195238095238096	31.392607709750568	57	127
31.392607709750568	31.624807256235826	52	127
31.392607709750568	31.624807256235826	55	127
31.392607709750568	31.624807256235826	57	127
31.636417233560092	31.833786848072563	52	127
31.636417233560092	31.833786848072563	55	127
31.636417233560092	31.833786848072563	57	127
31.845396825396826	32.0427664399093	52	127
31.845396825396826	32.0427664399093	55	127
31.845396825396826	32.0427664399093	57	127
32.0427664399093	32.26335600907029	42	127
32.15884353741497	32.379455782312924	62	127
32.26335600907029	32.50716553287982	66	127
32.26335600907029	32.50716553287982	54	127
32.26335600907029	32.50716553287982	57	127
32.26335600907029	32.50716553287982	60	127
32.379455782312924	32.611655328798186	62	127
32.51877551020408	32.72775510204082	69	127
32.51877551020408	32.72775510204082	54	127
32.51877551020408	32.72775510204082	57	127
32.51877551020408	32.72775510204082	60	127
32.611655328798186	32.832244897959185	66	127
32.73936507936508	32.936734693877554	72	127
32.73936507936508	32.936734693877554	54	127
32.73936507936508	32.936734693877554	57	127
32.73936507936508	32.936734693877554	60	127
32.832244897959185	33.04120181405896	69	127
32.936734693877554	33.145714285714284	74	127
32.936734693877554	33.145714285714284	54	127
32.936734693877554	33.145714285714284	57	127
32.936734693877554	33.145714285714284	60	127
33.05281179138322	33.23859410430839	72	127
33.145714285714284	33.34308390022676	78	127
33.145714285714284	33.34308390022676	54	127
33.145714285714284	33.34308390022676	57	127
33.145714285714284	33.34308390022676	60	127
33.25020408163265	33.34308390022676	74	127
33.34308390022676	33.58689342403628	54	127
33.34308390022676	33.58689342403628	57	127
33.34308390022676	33.58689342403628	60	127
33.34308390022676	33.819092970521545	81	127
33.598503401360546	33.819092970521545	54	127
33.598503401360546	33.819092970521545	57	127
33.598503401360546	33.819092970521545	60	127
33.819092970521545	34.028072562358275	54	127
33.819092970521545	34.028072562358275	57	127
33.819092970521545	34.028072562358275	60	127
34.028072562358275	34.22544217687075	54	127
34.028072562358275	34.22544217687075	57	127
34.028072562358275	34.22544217687075	60	127
34.22544217687075	34.42281179138322	54	127
34.22544217687075	34.42281179138322	57	127
34.22544217687075	34.42281179138322	60	127
34.43439909297052	34.631791383219955	62	127
34.43439909297052	34.631791383219955	54	127
34.43439909297052	34.631791383219955	57	127
34.43439909297052	34.631791383219955	60	127
34.64340136054422	34.86399092970522	64	127
34.64340136054422	34.86399092970522	43	127
34.86399092970522	35.09619047619048	71	127
34.86399092970522	35.09619047619048	55	127
34.86399092970522	35.09619047619048	59	127
35.00331065759637	35.20065759637188	76	127
35.09619047619048	35.30517006802721	79	127
35.09619047619048	35.30517006802721	55	127
35.09619047619048	35.30517006802721	59	127
35.21229024943311	35.45607709750567	83	127
35.30517006802721	35.54897959183673	55	127
35.30517006802721	35.54897959183673	59	127
35.30517006802721	35.74634920634921	71	127
35.560589569160996	35.74634920634921	55	127
35.560589569160996	35.74634920634921	59	127
35.74634920634921	35.943718820861676	55	127
35.74634920634921	35.943718820861676	59	127
35.943718820861676	36.15269841269841	44	127
36.15269841269841	36.35004535147392	76	127
36.15269841269841	36.35004535147392	56	127
36.15269841269841	36.35004535147392	59	127
36.15269841269841	36.35004535147392	64	127
36.24557823129252	36.44294784580499	80	127
36.36167800453515	36.52421768707483	83	127
36.36167800453515	36.52421768707483	56	127
36.36167800453515	36.52421768707483	59	127
36.36167800453515	36.52421768707483	64	127
36.44294784580499	36.61709750566894	88	127
36.53582766439909	36.72156462585034	56	127
36.53582766439909	36.72156462585034	59	127
36.53582766439909	36.72156462585034	64	127
36.53582766439909	36.9421768707483	76	127
36.72156462585034	36.9421768707483	56	127
36.72156462585034	36.9421768707483	59	127
36.72156462585034	36.9421768707483	64	127
36.9421768707483	37.151156462585035	56	127
36.9421768707483	37.151156462585035	59	127
36.9421768707483	37.151156462585035	64	127
37.1627664399093	37.464625850340134	45	127
37.4762358276644	37.685215419501134	57	127
37.4762358276644	37.685215419501134	61	127
37.4762358276644	37.685215419501134	64	127
37.685215419501134	37.89419501133787	57	127
37.685215419501134	37.89419501133787	61	127
37.685215419501134	37.89419501133787	64	127
37.89419501133787	38.114761904761906	57	127
37.89419501133787	38.114761904761906	62	127
37.89419501133787	38.114761904761906	64	127
38.114761904761906	38.33537414965986	80	127
38.114761904761906	38.33537414965986	57	127
38.114761904761906	38.33537414965986	62	127
38.114761904761906	38.33537414965986	64	127
38.346984126984125	38.48630385487528	80	127
38.346984126984125	38.567573696145125	57	127
38.346984126984125	38.567573696145125	62	127
38.346984126984125	38.567573696145125	64	127
38.405034013605444	38.567573696145125	81	127
38.48630385487528	38.567573696145125	80	127
38.567573696145125	38.66045351473923	81	127
38.567573696145125	38.7649433106576	57	127
38.567573696145125	38.7649433106576	61	127
38.567573696145125	38.7649433106576	64	127
38.66045351473923	38.7649433106576	88	127
38.7649433106576	38.8578231292517	86	127
38.7649433106576	38.96231292517007	57	127
38.7649433106576	38.96231292517007	61	127
38.7649433106576	38.96231292517007	64	127
38.86943310657596	38.96231292517007	85	127
38.96231292517007	39.066802721088436	83	127
38.96231292517007	39.15968253968254	57	127
38.96231292517007	39.15968253968254	61	127
38.96231292517007	39.15968253968254	64	127
39.066802721088436	39.15968253968254	81	127
39.171292517006805	39.27578231292517	80	127
39.171292517006805	39.380272108843535	57	127
39.171292517006805	39.380272108843535	62	127
39.171292517006805	39.380272108843535	64	127
39.27578231292517	39.380272108843535	78	127
39.39185941043084	39.4847619047619	76	127
39.39185941043084	39.58925170068027	57	127
39.39185941043084	39.58925170068027	62	127
39.39185941043084	39.58925170068027	64	127
39.4847619047619	39.58925170068027	74	127
39.58925170068027	39.68213151927438	73	127
39.58925170068027	39.78662131519275	57	127
39.58925170068027	39.78662131519275	62	127
39.58925170068027	39.78662131519275	64	127
39.69374149659864	39.78662131519275	71	127
39.78662131519275	39.983990929705215	45	127
39.78662131519275	40.262630385487526	69	127
39.983990929705215	40.262630385487526	57	127
39.983990929705215	40.262630385487526	61	127
39.983990929705215	40.262630385487526	64	127
40.27421768707483	40.47160997732426	57	127
40.27421768707483	40.47160997732426	61	127
40.27421768707483	40.47160997732426	64	127
40.47160997732426	40.66897959183674	57	127
40.47160997732426	40.66897959183674	62	127
40.47160997732426	40.66897959183674	64	127
40.66897959183674	40.90117913832199	80	127
40.66897959183674	40.90117913832199	57	127
40.66897959183674	40.90117913832199	62	127
40.66897959183674	40.90117913832199	64	127
40.90117913832199	41.017278911564624	80	127
40.90117913832199	41.09854875283447	57	127
40.90117913832199	41.09854875283447	62	127
40.90117913832199	41.09854875283447	64	127
40.95922902494331	41.09854875283447	81	127
41.028888888888886	41.09854875283447	80	127
41.12176870748299	41.22625850340136	81	127
41.12176870748299	41.33074829931973	57	127
41.12176870748299	41.33074829931973	61	127
41.12176870748299	41.33074829931973	64	127
41.22625850340136	41.33074829931973	88	127
41.34235827664399	41.4352380952381	86	127
41.34235827664399	41.56294784580499	57	127
41.34235827664399	41.56294784580499	61	127
41.34235827664399	41.56294784580499	64	127
41.4352380952381	41.56294784580499	85	127
41.56294784580499	41.67902494331066	83	127
41.56294784580499	41.783537414965984	57	127
41.56294784580499	41.783537414965984	61	127
41.56294784580499	41.783537414965984	64	127
41.690657596371885	41.783537414965984	81	127
41.783537414965984	41.88802721088435	80	127
41.783537414965984	41.98090702947846	57	127
41.783537414965984	41.98090702947846	62	127
41.783537414965984	41.98090702947846	64	127
41.88802721088435	41.98090702947846	78	127
41.98090702947846	42.08539682539683	76	127
41.98090702947846	42.21310657596372	57	127
41.98090702947846	42.21310657596372	62	127
41.98090702947846	42.21310657596372	64	127
42.08539682539683	42.21310657596372	74	127
42.22471655328798	42.31759637188209	73	127
42.22471655328798	42.42208616780045	57	127
42.22471655328798	42.42208616780045	62	127
42.22471655328798	42.42208616780045	64	127
42.31759637188209	42.42208616780045	71	127
42.42208616780045	42.52657596371882	69	127
42.42208616780045	42.52657596371882	57	127
42.53818594104308	42.64267573696145	76	127
42.53818594104308	42.64267573696145	64	127
42.64267573696145	42.74716553287982	74	127
42.64267573696145	42.74716553287982	62	127
42.75877551020408	42.86326530612245	73	127
42.75877551020408	42.86326530612245	61	127
42.86326530612245	42.97936507936508	71	127
42.86326530612245	42.97936507936508	59	127
42.97936507936508	43.07222222222222	69	127
42.97936507936508	43.07222222222222	57	127
43.08385487528345	43.17673469387755	68	127
43.08385487528345	43.17673469387755	56	127
43.17673469387755	43.269614512471655	66	127
43.17673469387755	43.269614512471655	54	127
43.28122448979592	43.385714285714286	64	127
43.28122448979592	43.385714285714286	52	127
43.385714285714286	43.490204081632655	62	127
43.385714285714286	43.490204081632655	50	127
43.490204081632655	43.583061224489796	61	127
43.490204081632655	43.583061224489796	49	127
43.59469387755102	43.68757369614512	59	127
43.59469387755102	43.68757369614512	47	127
43.68757369614512	43.79206349206349	57	127
43.68757369614512	43.79206349206349	45	127
43.79206349206349	43.90816326530612	56	127
43.79206349206349	43.90816326530612	44	127
43.919773242630384	44.035873015873015	54	127
43.919773242630384	44.035873015873015	42	127
44.035873015873015	44.12875283446712	52	127
44.035873015873015	44.12875283446712	40	127
44.140362811791384	44.23324263038549	54	127
44.140362811791384	44.23324263038549	42	127
44.23324263038549	44.360952380952384	56	127
44.23324263038549	44.360952380952384	44	127
44.360952380952384	44.45383219954648	57	127
44.360952380952384	44.45383219954648	45	127
44.46541950113379	44.569931972789114	56	127
44.46541950113379	44.569931972789114	44	127
44.569931972789114	44.67442176870748	54	127
44.569931972789114	44.67442176870748	42	127
44.686031746031745	44.77891156462585	52	127
44.686031746031745	44.77891156462585	40	127
44.77891156462585	44.88340136054422	54	127
44.77891156462585	44.88340136054422	42	127
44.88340136054422	44.97625850340136	56	127
44.88340136054422	44.97625850340136	44	127
44.98789115646259	45.510340136054424	57	127
44.98789115646259	45.510340136054424	45	127
46.84548752834467	47.588526077097505	49	127
46.84548752834467	47.588526077097505	54	127
46.84548752834467	47.588526077097505	58	127
46.84548752834467	47.588526077097505	42	127
47.588526077097505	48.354784580498865	50	127
47.588526077097505	48.354784580498865	54	127
47.588526077097505	48.354784580498865	59	127
47.588526077097505	48.354784580498865	35	127
48.36639455782313	49.004943310657595	54	127
48.36639455782313	49.004943310657595	58	127
48.36639455782313	49.004943310657595	61	127
48.36639455782313	49.004943310657595	30	127
48.36639455782313	49.004943310657595	42	127
50.00340136054422	50.13111111111111	62	127
50.00340136054422	50.13111111111111	50	127
50.13111111111111	50.22399092970522	61	127
50.13111111111111	50.22399092970522	49	127
50.22399092970522	50.30526077097505	59	127
50.22399092970522	50.30526077097505	47	127
50.30526077097505	50.40975056689342	57	127
50.30526077097505	50.40975056689342	45	127
50.40975056689342	50.50263038548753	59	127
50.40975056689342	50.50263038548753	47	127
50.51424036281179	50.63034013605442	61	127
50.51424036281179	50.63034013605442	49	127
50.63034013605442	50.711609977324265	62	127
50.63034013605442	50.711609977324265	50	127
50.72321995464853	50.816099773242634	61	127
50.72321995464853	50.816099773242634	49	127
50.816099773242634	50.920589569160995	59	127
50.816099773242634	50.920589569160995	47	127
50.920589569160995	51.00185941043084	57	127
50.920589569160995	51.00185941043084	45	127
51.0134693877551	51.094739229024945	59	127
51.0134693877551	51.094739229024945	47	127
51.094739229024945	51.16439909297052	61	127
51.094739229024945	51.16439909297052	49	127
51.16439909297052	51.33854875283447	62	127
51.16439909297052	51.33854875283447	50	127
52.88267573696145	53.602494331065756	54	127
52.88267573696145	53.602494331065756	59	127
52.88267573696145	53.602494331065756	63	127
52.88267573696145	53.602494331065756	47	127
53.614104308390026	54.264263038548755	55	127
53.614104308390026	54.264263038548755	59	127
53.614104308390026	54.264263038548755	64	127
53.614104308390026	54.264263038548755	40	127
54.264263038548755	54.72866213151927	59	127
54.264263038548755	54.72866213151927	63	127
54.264263038548755	54.72866213151927	66	127
54.264263038548755	54.72866213151927	35	127
54.264263038548755	54.72866213151927	47	127
55.98253968253968	56.07541950113379	67	127
55.98253968253968	56.07541950113379	55	127
56.07541950113379	56.179909297052156	66	127
56.07541950113379	56.179909297052156	54	127
56.179909297052156	56.26117913832199	64	127
56.179909297052156	56.26117913832199	52	127
56.27278911564626	56.3540589569161	62	127
56.27278911564626	56.3540589569161	50	127
56.3540589569161	56.45854875283447	64	127
56.3540589569161	56.45854875283447	52	127
56.47015873015873	56.58625850340136	66	127
56.47015873015873	56.58625850340136	54	127
56.58625850340136	56.69074829931973	67	127
56.58625850340136	56.69074829931973	55	127
56.69074829931973	56.7952380952381	66	127
56.69074829931973	56.7952380952381	54	127
56.80684807256236	56.89972789115646	64	127
56.80684807256236	56.89972789115646	52	127
56.89972789115646	56.992607709750565	62	127
56.89972789115646	56.992607709750565	50	127
57.00421768707483	57.097097505668934	64	127
57.00421768707483	57.097097505668934	52	127
57.097097505668934	57.213197278911565	66	127
57.097097505668934	57.213197278911565	54	127
57.213197278911565	57.77047619047619	67	127
57.213197278911565	57.77047619047619	55	127
58.57156462585034	59.16367346938775	65	127
58.908253968253966	59.62807256235828	52	127
59.175283446712015	59.38426303854875	64	127
59.38426303854875	59.62807256235828	62	127
59.62807256235828	59.86027210884354	45	127
59.62807256235828	60.115691609977326	60	127
59.86027210884354	60.115691609977326	47	127
60.12730158730159	60.37111111111111	48	127
60.12730158730159	60.603310657596374	64	127
60.382721088435375	61.07931972789115	50	127
60.603310657596374	60.83551020408163	62	127
60.83551020408163	61.07931972789115	60	127
61.07931972789115	61.311519274376415	43	127
61.07931972789115	61.61337868480726	59	127
61.32312925170068	61.61337868480726	45	127
61.61337868480726	61.81074829931973	47	127
61.61337868480726	62.06616780045351	62	127
61.81074829931973	62.49573696145125	49	127
62.06616780045351	62.298367346938775	61	127
62.30997732426304	62.49573696145125	59	127
62.50734693877551	62.739546485260774	42	127
62.50734693877551	63.006575963718824	57	127
62.739546485260774	63.006575963718824	43	127
63.006575963718824	63.20394557823129	45	127
63.006575963718824	63.505804988662135	60	127
63.215555555555554	64.01664399092971	47	127
63.5174149659864	63.76122448979592	59	127
63.76122448979592	64.01664399092971	57	127
64.01664399092971	64.30687074829932	40	127
64.01664399092971	64.51587301587301	55	127
64.30687074829932	64.51587301587301	42	127
64.52748299319728	64.72485260770975	43	127
64.52748299319728	65.01510204081633	59	127
64.72485260770975	65.47950113378685	45	127
65.01510204081633	65.25891156462585	57	127
65.25891156462585	65.47950113378685	55	127
65.49111111111111	65.68845804988662	54	127
65.49111111111111	66.21092970521542	38	127
65.70009070294785	65.99034013605443	52	127
65.99034013605443	66.21092970521542	50	127
66.21092970521542	66.44312925170068	47	127
66.21092970521542	67.15133786848072	31	127
66.44312925170068	66.69854875283447	52	127
66.71013605442177	66.95396825396826	55	127
66.95396825396826	67.15133786848072	59	127
67.15133786848072	67.37192743764173	64	127
67.15133786848072	67.37192743764173	47	127
67.37192743764173	67.58090702947845	67	127
67.37192743764173	67.58090702947845	43	127
67.59251700680272	68.08013605442177	45	127
67.87115646258503	68.08013605442177	66	127
68.08013605442177	68.32394557823129	69	127
68.32394557823129	68.77673469387756	57	127
68.32394557823129	68.77673469387756	45	127
68.56775510204082	68.77673469387756	67	127
68.77673469387756	69.05537414965987	69	127
68.89283446712018	69.05537414965987	81	127
69.05537414965987	69.28757369614513	38	127
69.05537414965987	69.9028798185941	81	127
69.28757369614513	69.4965306122449	50	127
69.50816326530612	69.70553287981859	50	127
69.71714285714286	69.9028798185941	50	127
69.9028798185941	70.1118820861678	77	127
69.9028798185941	70.1118820861678	50	127
70.1118820861678	70.34408163265306	74	127
70.1118820861678	70.34408163265306	50	127
70.28600907029478	70.41371882086167	76	127
70.34408163265306	70.5530612244898	74	127
70.34408163265306	70.5530612244898	40	127
70.58789115646259	70.82009070294785	52	127
70.58789115646259	71.21482993197279	73	127
70.82009070294785	71.01746031746032	52	127
71.01746031746032	71.21482993197279	52	127
71.21482993197279	71.42380952380952	73	127
71.21482993197279	71.42380952380952	52	127
71.4354195011338	71.62117913832199	74	127
71.4354195011338	71.62117913832199	52	127
71.63278911564626	71.81854875283447	37	127
71.63278911564626	72.07396825396826	76	127
71.81854875283447	72.07396825396826	49	127
72.07396825396826	72.30614512471655	73	127
72.07396825396826	72.30614512471655	45	127
72.30614512471655	72.49192743764172	49	127
72.30614512471655	72.70090702947846	69	127
72.50353741496599	72.70090702947846	49	127
72.70090702947846	72.92147392290249	67	127
72.70090702947846	72.92147392290249	45	127
72.92147392290249	73.11886621315193	65	127
72.92147392290249	73.11886621315193	38	127
73.02598639455782	73.2233560090703	57	127
73.11886621315193	73.3162358276644	65	127
73.11886621315193	73.3162358276644	50	127
73.2233560090703	73.42072562358277	57	127
73.3278231292517	73.52521541950114	65	127
73.3278231292517	73.52521541950114	50	127
73.42072562358277	73.64131519274376	57	127
73.53682539682539	73.74580498866213	65	127
73.53682539682539	73.74580498866213	50	127
73.64131519274376	73.83866213151927	57	127
73.74580498866213	73.94315192743764	67	127
73.74580498866213	73.94315192743764	52	127
73.8502947845805	74.05927437641724	57	127
73.94315192743764	74.19857142857143	64	127
73.94315192743764	74.19857142857143	49	127
74.07086167800453	74.30308390022675	57	127
74.19857142857143	74.39596371882087	65	127
74.19857142857143	74.39596371882087	38	127
74.30308390022675	74.50045351473923	57	127
74.40757369614512	74.59333333333333	65	127
74.40757369614512	74.59333333333333	50	127
74.50045351473923	74.6978231292517	57	127
74.59333333333333	74.7907029478458	65	127
74.59333333333333	74.7907029478458	50	127
74.6978231292517	74.88358276643991	57	127
74.7907029478458	74.98807256235828	65	127
74.7907029478458	74.98807256235828	50	127
74.89519274376417	75.08095238095238	57	127
74.98807256235828	75.17383219954648	65	127
74.98807256235828	75.17383219954648	50	127
75.08095238095238	75.28993197278912	57	127
75.18544217687075	75.38281179138322	65	127
75.18544217687075	75.38281179138322	50	127
75.28993197278912	75.5453514739229	57	127
75.39442176870749	75.66145124716553	67	127
75.39442176870749	75.66145124716553	40	127
75.5453514739229	75.75433106575964	57	127
75.66145124716553	75.85879818594104	67	127
75.66145124716553	75.85879818594104	52	127
75.7659410430839	75.95170068027211	57	127
75.85879818594104	76.079410430839	67	127
75.85879818594104	76.079410430839	52	127
75.97492063492064	76.2071201814059	57	127
76.079410430839	76.33482993197279	67	127
76.079410430839	76.33482993197279	52	127
76.2071201814059	76.46253968253968	57	127
76.34641723356009	76.54380952380953	67	127
76.34641723356009	76.54380952380953	52	127
76.46253968253968	76.6482993197279	57	127
76.55541950113378	76.741179138322	67	127
76.55541950113378	76.741179138322	52	127
76.6482993197279	76.85725623582766	57	127
76.741179138322	77.01981859410431	64	127
76.741179138322	77.01981859410431	37	127
76.89210884353741	77.12430839002268	57	127
77.01981859410431	77.21718820861678	64	127
77.01981859410431	77.21718820861678	49	127
77.12430839002268	77.35650793650794	57	127
77.22879818594105	77.47260770975056	61	127
77.22879818594105	77.47260770975056	45	127
77.35650793650794	77.62351473922902	57	127
77.50743764172336	77.73963718820862	64	127
77.50743764172336	77.73963718820862	49	127
77.62351473922902	77.84412698412699	57	127
77.73963718820862	77.97183673469388	64	127
77.73963718820862	77.97183673469388	49	127
77.85573696145124	78.09954648526077	57	127
77.97183673469388	78.20403628117914	69	127
77.97183673469388	78.20403628117914	45	127
78.11115646258503	78.20403628117914	81	127
78.20403628117914	78.42462585034014	50	127
78.20403628117914	78.6219954648526	81	127
78.30852607709751	78.5291156462585	57	127
78.4362358276644	78.6219954648526	53	127
78.5291156462585	78.7497052154195	57	127
78.6568253968254	78.84258503401361	77	127
78.6568253968254	78.84258503401361	53	127
78.7497052154195	78.93546485260771	74	127
78.7497052154195	78.93546485260771	57	127
78.84258503401361	79.0980045351474	52	127
78.84258503401361	79.30698412698413	72	127
78.94707482993198	79.20249433106576	55	127
79.0980045351474	79.30698412698413	52	127
79.20249433106576	79.41145124716553	55	127
79.30698412698413	79.5043537414966	52	127
79.41145124716553	79.6320634920635	55	127
79.5159410430839	79.74816326530612	50	127
79.6320634920635	79.84104308390023	53	127
79.74816326530612	79.95714285714286	50	127
79.85265306122449	80.06163265306122	53	127
79.95714285714286	80.18934240362812	50	127
80.0732426303855	80.28219954648526	53	127
80.18934240362812	80.37510204081633	48	127
80.28219954648526	80.4795918367347	52	127
80.38671201814059	80.5724716553288	48	127
80.4795918367347	80.67696145124717	52	127
80.58408163265307	80.76984126984127	48	127
80.67696145124717	80.85111111111111	52	127
80.76984126984127	80.99043083900227	46	127
80.76984126984127	81.36195011337868	86	127
80.86272108843538	81.08331065759637	50	127
80.99043083900227	81.36195011337868	46	127
81.08331065759637	81.44321995464853	50	127
81.36195011337868	81.53609977324263	82	127
81.36195011337868	81.53609977324263	46	127
81.44321995464853	81.640589569161	79	127
81.44321995464853	81.640589569161	50	127
81.5477097505669	81.73346938775511	45	127
81.5477097505669	81.9540589569161	77	127
81.640589569161	81.83795918367348	48	127
81.73346938775511	81.9540589569161	45	127
81.84956916099773	82.12820861678004	48	127
81.9540589569161	82.23269841269841	45	127
82.13981859410431	82.32555555555555	48	127
82.23269841269841	82.47650793650794	43	127
82.32555555555555	82.61582766439909	46	127
82.49972789115647	82.70868480725623	43	127
82.61582766439909	82.81319727891156	46	127
82.72031746031746	82.90607709750567	43	127
82.81319727891156	83.0221768707483	46	127
82.90607709750567	83.16149659863946	41	127
83.03378684807257	83.25437641723356	45	127
83.16149659863946	83.3704761904762	41	127
83.25437641723356	83.4749433106576	45	127
83.3704761904762	83.63750566893424	41	127
83.4749433106576	83.63750566893424	45	127
83.64911564625851	83.83485260770975	82	127
83.64911564625851	83.83485260770975	40	127
83.74199546485261	83.92775510204082	70	127
83.74199546485261	83.92775510204082	43	127
83.83485260770975	84.04385487528344	82	127
83.83485260770975	84.04385487528344	41	127
83.93936507936507	84.13673469387756	70	127
83.93936507936507	84.13673469387756	45	127
84.04385487528344	84.26444444444445	82	127
84.04385487528344	84.26444444444445	40	127
84.14834467120181	84.35732426303855	70	127
84.14834467120181	84.35732426303855	43	127
84.26444444444445	84.47340136054422	82	127
84.26444444444445	84.47340136054422	41	127
84.35732426303855	84.57791383219954	70	127
84.35732426303855	84.57791383219954	45	127
84.48503401360544	84.69401360544218	82	127
84.48503401360544	84.69401360544218	40	127
84.57791383219954	84.82172335600907	70	127
84.57791383219954	84.82172335600907	43	127
84.728820861678	84.91460317460317	82	127
84.728820861678	84.91460317460317	41	127
84.82172335600907	85.03070294784581	70	127
84.82172335600907	85.03070294784581	45	127
84.91460317460317	85.14680272108843	82	127
84.91460317460317	85.14680272108843	40	127
85.04231292517007	85.23965986394558	70	127
85.04231292517007	85.23965986394558	43	127
85.14680272108843	85.3441723356009	82	127
85.14680272108843	85.3441723356009	41	127
85.2512925170068	85.4718820861678	70	127
85.2512925170068	85.4718820861678	45	127
85.3441723356009	85.57637188208616	82	127
85.3441723356009	85.57637188208616	40	127
85.4718820861678	85.72730158730158	70	127
85.4718820861678	85.72730158730158	43	127
85.58798185941043	85.8201814058957	82	127
85.58798185941043	85.8201814058957	41	127
85.72730158730158	85.9130612244898	70	127
85.72730158730158	85.9130612244898	45	127
85.8201814058957	86.04077097505669	82	127
85.8201814058957	86.04077097505669	40	127
85.92467120181406	86.13362811791383	70	127
85.92467120181406	86.13362811791383	43	127
86.04077097505669	86.27297052154195	82	127
86.04077097505669	86.27297052154195	41	127
86.14526077097506	86.37746031746032	70	127
86.14526077097506	86.37746031746032	45	127
86.27297052154195	86.48195011337869	82	127
86.27297052154195	86.48195011337869	40	127
86.37746031746032	86.62124716553288	70	127
86.37746031746032	86.62124716553288	43	127
86.49353741496599	86.71414965986395	82	127
86.49353741496599	86.71414965986395	40	127
86.62124716553288	86.81863945578232	70	127
86.62124716553288	86.81863945578232	43	127
86.7257596371882	86.93473922902494	82	127
86.7257596371882	86.93473922902494	40	127
86.81863945578232	87.05083900226758	70	127
86.81863945578232	87.05083900226758	43	127
86.93473922902494	87.21337868480725	80	127
86.93473922902494	87.21337868480725	38	127
87.09727891156463	87.31786848072562	68	127
87.09727891156463	87.31786848072562	47	127
87.21337868480725	87.42235827664399	80	127
87.21337868480725	87.42235827664399	38	127
87.32947845804989	87.51521541950113	68	127
87.32947845804989	87.51521541950113	47	127
87.42235827664399	87.6081179138322	80	127
87.42235827664399	87.6081179138322	38	127
87.51521541950113	87.71260770975057	68	127
87.51521541950113	87.71260770975057	47	127
87.61972789115646	87.84031746031746	81	127
87.61972789115646	87.84031746031746	37	127
87.71260770975057	87.95641723356009	69	127
87.71260770975057	87.95641723356009	49	127
87.84031746031746	88.0492970521542	81	127
87.84031746031746	88.0492970521542	37	127
87.95641723356009	88.1421768707483	69	127
87.95641723356009	88.1421768707483	49	127
88.0492970521542	88.24666666666667	81	127
88.0492970521542	88.24666666666667	37	127
88.1537641723356	88.33954648526077	69	127
88.1537641723356	88.33954648526077	49	127
88.24666666666667	88.4556462585034	79	127
88.24666666666667	88.4556462585034	34	127
88.33954648526077	88.57174603174603	67	127
88.33954648526077	88.57174603174603	46	127
88.46725623582766	88.66460317460317	79	127
88.46725623582766	88.66460317460317	34	127
88.57174603174603	88.7691156462585	67	127
88.57174603174603	88.7691156462585	46	127
88.6762358276644	88.96648526077098	79	127
88.6762358276644	88.96648526077098	34	127
88.7691156462585	88.96648526077098	67	127
88.7691156462585	88.96648526077098	46	127
88.96648526077098	89.45410430839003	35	127
88.96648526077098	89.45410430839003	47	127
89.2102947845805	89.45410430839003	66	127
89.33800453514739	89.55857142857143	71	127
89.45410430839003	89.68628117913832	74	127
89.55857142857143	89.80240362811791	78	127
89.69791383219955	90.13909297052155	50	127
89.69791383219955	90.13909297052155	52	127
89.69791383219955	90.13909297052155	44	127
89.89528344671201	90.13909297052155	73	127
89.99977324263038	90.23197278911564	74	127
90.13909297052155	90.34807256235828	76	127
90.24358276643991	90.34807256235828	74	127
90.34807256235828	90.78925170068027	54	127
90.34807256235828	90.78925170068027	50	127
90.34807256235828	90.78925170068027	45	127
90.55702947845805	90.78925170068027	73	127
90.69637188208617	90.91696145124716	74	127
90.78925170068027	91.02145124716553	76	127
90.91696145124716	91.11433106575964	74	127
91.02145124716553	91.4509977324263	45	127
91.02145124716553	91.4509977324263	49	127
91.02145124716553	91.4509977324263	55	127
91.21882086167801	91.4509977324263	68	127
91.3465306122449	91.55551020408163	69	127
91.4509977324263	91.70641723356009	71	127
91.61356009070295	91.70641723356009	69	127
91.71804988662132	91.92702947845805	69	127
91.71804988662132	92.57718820861678	50	127
91.71804988662132	94.67859410430839	38	127
91.82253968253968	92.1940589569161	62	127
92.57718820861678	93.32022675736961	48	127
92.84421768707483	93.05319727891157	74	127
92.93709750566893	93.20412698412699	78	127
93.05319727891157	93.32022675736961	81	127
93.32022675736961	93.78462585034013	81	127
93.32022675736961	94.00519274376417	47	127
93.80784580498866	94.00519274376417	79	127
94.0168253968254	94.67859410430839	49	127
94.22580498866213	94.4231746031746	69	127
94.3302947845805	94.53927437641724	76	127
94.4231746031746	94.67859410430839	79	127
94.70181405895691	95.10816326530612	79	127
94.70181405895691	95.3984126984127	50	127
94.70181405895691	97.53464852607709	38	127
95.10816326530612	95.3984126984127	78	127
95.3984126984127	96.06018140589569	42	127
96.06018140589569	96.62907029478458	43	127
96.62907029478458	96.84965986394558	45	127
96.86126984126984	97.26761904761905	47	127
97.26761904761905	97.53464852607709	49	127
97.53464852607709	98.2544671201814	50	127
97.53464852607709	100.27460317460317	38	127
98.2544671201814	98.95106575963719	48	127
98.49827664399093	98.70725623582767	69	127
98.6027664399093	98.8233560090703	74	127
98.70725623582767	98.95106575963719	78	127
98.8233560090703	98.95106575963719	81	127
98.96267573696146	99.39224489795919	81	127
98.96267573696146	99.62444444444445	47	127
99.39224489795919	99.62444444444445	79	127
99.62444444444445	100.27460317460317	49	127
99.84503401360544	100.01918367346939	69	127
99.92630385487529	100.1701133786848	73	127
100.03079365079365	100.27460317460317	76	127
100.1701133786848	100.27460317460317	79	127
100.27460317460317	100.71578231292517	79	127
100.27460317460317	100.98281179138321	50	127
100.27460317460317	102.97972789115646	38	127
100.71578231292517	100.98281179138321	78	127
100.99442176870748	101.6213605442177	42	127
101.6213605442177	102.0857596371882	43	127
102.09736961451247	102.29473922902494	45	127
102.29473922902494	102.78235827664399	47	127
102.78235827664399	102.97972789115646	49	127
102.99133786848073	103.74598639455782	50	127
102.99133786848073	105.8241723356009	38	127
103.39768707482993	104.16394557823129	57	127
103.74598639455782	104.37292517006803	42	127
104.17555555555556	104.37292517006803	58	127
104.37292517006803	104.87215419501133	59	127
104.37292517006803	104.87215419501133	43	127
104.87215419501133	105.09274376417234	61	127
104.87215419501133	105.09274376417234	45	127
105.1043537414966	105.58036281179139	62	127
105.1043537414966	105.58036281179139	47	127
105.58036281179139	105.8241723356009	64	127
105.58036281179139	105.8241723356009	49	127
105.8241723356009	106.0447619047619	66	127
105.8241723356009	106.0447619047619	38	127
105.8241723356009	106.0447619047619	50	127
106.2653514739229	106.71814058956916	78	127
106.2653514739229	106.71814058956916	54	127
106.71814058956916	106.91551020408163	76	127
106.71814058956916	106.91551020408163	52	127
106.9271201814059	107.11287981859411	74	127
106.9271201814059	107.11287981859411	50	127
107.12448979591836	107.32185941043083	73	127
107.12448979591836	107.32185941043083	49	127
107.32185941043083	107.50761904761904	74	127
107.32185941043083	107.50761904761904	50	127
107.50761904761904	107.71659863945578	71	127
107.50761904761904	107.71659863945578	47	127
107.71659863945578	107.91396825396825	69	127
107.71659863945578	107.91396825396825	45	127
107.92557823129252	108.15777777777778	71	127
107.92557823129252	108.15777777777778	47	127
108.15777777777778	108.38997732426304	68	127
108.15777777777778	108.38997732426304	44	127
108.38997732426304	108.61056689342404	45	127
108.38997732426304	108.8079365079365	69	127
108.6221768707483	108.8079365079365	57	127
108.6221768707483	108.8079365079365	62	127
108.6221768707483	108.8079365079365	66	127
108.81954648526077	109.01691609977324	57	127
108.81954648526077	109.01691609977324	62	127
108.81954648526077	109.01691609977324	66	127
109.01691609977324	109.20267573696145	57	127
109.01691609977324	109.20267573696145	62	127
109.01691609977324	109.20267573696145	66	127
109.20267573696145	109.40004535147392	57	127
109.20267573696145	109.40004535147392	62	127
109.20267573696145	109.40004535147392	66	127
109.41165532879819	109.59741496598639	57	127
109.41165532879819	109.59741496598639	62	127
109.41165532879819	109.59741496598639	66	127
109.60902494331066	109.74834467120182	69	127
109.60902494331066	109.86444444444444	57	127
109.60902494331066	109.86444444444444	62	127
109.60902494331066	109.86444444444444	67	127
109.74834467120182	109.86444444444444	71	127
109.86444444444444	109.98054421768707	73	127
109.86444444444444	110.10825396825396	67	127
109.86444444444444	110.10825396825396	62	127
109.86444444444444	110.10825396825396	57	127
109.99215419501134	110.10825396825396	74	127
110.10825396825396	110.20113378684808	76	127
110.10825396825396	110.30562358276644	67	127
110.10825396825396	110.30562358276644	62	127
110.10825396825396	110.30562358276644	57	127
110.21274376417233	110.30562358276644	78	127
110.30562358276644	110.41011337868481	79	127
110.30562358276644	110.50299319727891	57	127
110.30562358276644	110.50299319727891	61	127
110.30562358276644	110.50299319727891	67	127
110.41011337868481	110.50299319727891	78	127
110.51460317460318	110.60748299319728	79	127
110.51460317460318	110.71197278911565	57	127
110.51460317460318	110.71197278911565	61	127
110.51460317460318	110.71197278911565	67	127
110.60748299319728	110.71197278911565	81	127
110.71197278911565	110.81646258503402	83	127
110.71197278911565	110.93256235827664	45	127
110.71197278911565	110.93256235827664	57	127
110.81646258503402	110.93256235827664	85	127
110.93256235827664	111.14154195011338	50	127
110.93256235827664	111.45501133786848	86	127
111.04866213151928	111.35052154195012	62	127
111.14154195011338	111.45501133786848	61	127
111.35052154195012	111.55950113378685	62	127
111.46662131519274	111.66399092970522	60	127
111.55950113378685	111.76848072562358	62	127
111.67560090702948	111.84975056689342	59	127
111.76848072562358	111.94263038548753	62	127
111.84975056689342	112.0471201814059	60	127
111.95424036281179	112.14	62	127
112.0471201814059	112.25609977324262	59	127
112.16321995464853	112.25609977324262	62	127
112.25609977324262	112.46507936507936	57	127
112.360589569161	112.56956916099773	62	127
112.47668934240363	112.7088888888889	59	127
112.56956916099773	112.83659863945579	62	127
112.7088888888889	112.97591836734694	57	127
112.84820861678004	113.06879818594105	62	127
112.97591836734694	113.17328798185942	55	127
113.0804081632653	113.26616780045352	62	127
113.17328798185942	113.38226757369614	57	127
113.26616780045352	113.48675736961451	62	127
113.39387755102041	113.57963718820862	55	127
113.48675736961451	113.57963718820862	62	127
113.59124716553288	113.83505668934241	54	127
113.69573696145125	113.93954648526078	62	127
113.83505668934241	114.04403628117913	55	127
113.95115646258503	114.1485260770975	62	127
114.04403628117913	114.21818594104309	54	127
114.1485260770975	114.32267573696146	62	127
114.21818594104309	114.35750566893424	85	127
114.21818594104309	114.41555555555556	52	127
114.28784580498866	114.41555555555556	86	127
114.32267573696146	114.53165532879818	62	127
114.35750566893424	114.48521541950113	85	127
114.42716553287981	114.56648526077097	86	127
114.42716553287981	114.63614512471655	50	127
114.48521541950113	114.63614512471655	85	127
114.53165532879818	114.74063492063492	62	127
114.56648526077097	114.69419501133787	86	127
114.63614512471655	114.77546485260771	85	127
114.63614512471655	114.84512471655329	52	127
114.70580498866214	114.84512471655329	83	127
114.75224489795919	114.84512471655329	62	127
114.77546485260771	114.84512471655329	85	127
114.84512471655329	115.08893424036282	50	127
114.84512471655329	115.29791383219954	86	127
114.96122448979592	115.20503401360544	62	127
115.08893424036282	115.29791383219954	52	127
115.20503401360544	115.40240362811791	62	127
115.30952380952381	115.49528344671202	50	127
115.40240362811791	115.61138321995465	62	127
115.50689342403628	115.64621315192744	85	127
115.50689342403628	115.76231292517006	52	127
115.58816326530612	115.76231292517006	86	127
115.61138321995465	115.86680272108843	62	127
115.64621315192744	115.82036281179138	85	127
115.76231292517006	115.90163265306123	86	127
115.76231292517006	115.9712925170068	50	127
115.83197278911565	115.9712925170068	85	127
115.8784126984127	116.11061224489796	62	127
115.91324263038548	116.07578231292517	86	127
115.9712925170068	116.13383219954649	85	127
115.9712925170068	116.23832199546486	52	127
116.07578231292517	116.23832199546486	83	127
116.11061224489796	116.23832199546486	62	127
116.16866213151927	116.23832199546486	85	127
116.24993197278911	116.48213151927438	86	127
116.24993197278911	116.48213151927438	38	127
116.36603174603175	116.59823129251701	50	127
116.49374149659864	116.71433106575964	74	127
116.49374149659864	116.71433106575964	62	127
116.49374149659864	116.71433106575964	49	127
116.59823129251701	116.80721088435374	50	127
116.71433106575964	116.9117006802721	74	127
116.71433106575964	116.9117006802721	62	127
116.71433106575964	116.9117006802721	48	127
116.818820861678	117.01619047619047	50	127
116.9117006802721	117.14390022675737	74	127
116.9117006802721	117.14390022675737	62	127
116.9117006802721	117.14390022675737	47	127
117.02780045351474	117.28321995464853	50	127
117.14390022675737	117.37609977324263	76	127
117.14390022675737	117.37609977324263	64	127
117.14390022675737	117.37609977324263	48	127
117.28321995464853	117.480589569161	50	127
117.3877097505669	117.58507936507937	74	127
117.3877097505669	117.58507936507937	62	127
117.3877097505669	117.58507936507937	47	127
117.480589569161	117.58507936507937	50	127
117.58507936507937	117.85210884353741	72	127
117.58507936507937	117.85210884353741	60	127
117.58507936507937	117.85210884353741	45	127
117.70117913832199	117.95659863945578	50	127
117.85210884353741	118.06108843537415	74	127
117.85210884353741	118.06108843537415	62	127
117.85210884353741	118.06108843537415	47	127
117.96820861678005	118.17718820861678	50	127
118.06108843537415	118.27006802721088	72	127
118.06108843537415	118.27006802721088	60	127
118.06108843537415	118.27006802721088	45	127
118.17718820861678	118.37455782312925	50	127
118.28167800453515	118.46743764172335	71	127
118.28167800453515	118.46743764172335	59	127
118.28167800453515	118.46743764172335	43	127
118.37455782312925	118.59514739229024	50	127
118.47904761904762	118.69963718820861	72	127
118.47904761904762	118.69963718820861	60	127
118.47904761904762	118.69963718820861	45	127
118.59514739229024	118.79251700680273	50	127
118.69963718820861	118.87378684807257	71	127
118.69963718820861	118.87378684807257	59	127
118.69963718820861	118.87378684807257	43	127
118.79251700680273	118.87378684807257	50	127
118.87378684807257	119.07115646258504	69	127
118.87378684807257	119.07115646258504	57	127
118.87378684807257	119.07115646258504	42	127
118.97827664399092	119.1756462585034	50	127
119.07115646258504	119.2685260770975	71	127
119.07115646258504	119.2685260770975	59	127
119.07115646258504	119.2685260770975	43	127
119.1756462585034	119.37301587301587	50	127
119.28013605442177	119.47750566893424	69	127
119.28013605442177	119.47750566893424	57	127
119.28013605442177	119.47750566893424	42	127
119.37301587301587	119.57038548752834	50	127
119.47750566893424	119.68648526077098	67	127
119.47750566893424	119.68648526077098	55	127
119.47750566893424	119.68648526077098	40	127
119.58199546485261	119.87224489795918	50	127
119.68648526077098	119.97673469387755	66	127
119.68648526077098	119.97673469387755	54	127
119.68648526077098	119.97673469387755	38	127
119.88385487528345	120.09283446712018	50	127
119.97673469387755	120.20893424036281	67	127
119.97673469387755	120.20893424036281	55	127
119.97673469387755	120.20893424036281	40	127
120.09283446712018	120.20893424036281	50	127
120.23215419501133	120.42952380952381	66	127
120.23215419501133	120.42952380952381	54	127
120.23215419501133	120.42952380952381	38	127
120.3366439909297	120.54562358276644	50	127
120.44113378684807	120.65011337868481	67	127
120.44113378684807	120.65011337868481	55	127
120.44113378684807	120.65011337868481	40	127
120.54562358276644	120.73138321995465	50	127
120.65011337868481	120.82426303854875	66	127
120.65011337868481	120.82426303854875	54	127
120.65011337868481	120.82426303854875	38	127
120.7429931972789	120.92875283446712	50	127
120.82426303854875	121.03324263038549	67	127
120.82426303854875	121.03324263038549	55	127
120.82426303854875	121.03324263038549	40	127
120.92875283446712	121.13773242630386	50	127
121.04485260770976	121.23061224489796	66	127
121.04485260770976	121.23061224489796	54	127
121.04485260770976	121.23061224489796	38	127
121.13773242630386	121.38154195011337	50	127
121.24222222222222	121.56730158730159	67	127
121.24222222222222	121.56730158730159	55	127
121.24222222222222	121.56730158730159	40	127
121.38154195011337	121.56730158730159	50	127
121.56730158730159	121.76467120181405	38	127
121.56730158730159	121.98526077097506	66	127
121.56730158730159	121.98526077097506	54	127
121.67179138321995	121.85755102040817	50	127
121.76467120181405	121.98526077097506	39	127
121.86916099773242	122.08975056689343	50	127
121.98526077097506	122.20585034013605	38	127
122.08975056689343	122.32195011337869	50	127
122.21746031746032	122.35678004535147	85	127
122.21746031746032	122.42643990929706	39	127
122.27551020408163	122.42643990929706	86	127
122.32195011337869	122.51931972789116	50	127
122.35678004535147	122.48448979591836	85	127
122.42643990929706	122.55414965986395	86	127
122.42643990929706	122.63541950113378	38	127
122.49609977324263	122.63541950113378	85	127
122.51931972789116	122.77473922902495	50	127
122.55414965986395	122.73990929705215	86	127
122.63541950113378	122.80956916099774	85	127
122.63541950113378	122.87922902494331	39	127
122.75151927437642	122.87922902494331	83	127
122.7863492063492	122.97210884353741	50	127
122.821179138322	122.87922902494331	85	127
122.87922902494331	123.08820861678005	38	127
122.87922902494331	123.30879818594104	86	127
122.97210884353741	123.19269841269842	50	127
123.0998185941043	123.30879818594104	39	127
123.19269841269842	123.41328798185941	50	127
123.32040816326531	123.52938775510204	38	127
123.41328798185941	123.62226757369615	50	127
123.52938775510204	123.65709750566893	85	127
123.52938775510204	123.74997732426304	39	127
123.59904761904762	123.74997732426304	86	127
123.6338775510204	123.85446712018141	50	127
123.65709750566893	123.83124716553289	85	127
123.74997732426304	123.88929705215419	86	127
123.74997732426304	123.97056689342404	38	127
123.83124716553289	123.97056689342404	85	127
123.86607709750567	124.0750566893424	50	127
123.91251700680272	124.04022675736961	86	127
123.97056689342404	124.1098866213152	85	127
123.97056689342404	124.1679365079365	39	127
124.04022675736961	124.1679365079365	83	127
124.0750566893424	124.31886621315192	50	127
124.1098866213152	124.1679365079365	85	127
124.17954648526077	124.42335600907029	86	127
124.17954648526077	124.42335600907029	38	127
124.31886621315192	124.52784580498866	62	127
124.31886621315192	124.52784580498866	50	127
124.42335600907029	124.66716553287982	61	127
124.42335600907029	124.66716553287982	49	127
124.53945578231293	124.78326530612244	62	127
124.53945578231293	124.78326530612244	50	127
124.66716553287982	124.88775510204081	61	127
124.66716553287982	124.88775510204081	49	127
124.79487528344671	125.02707482993198	62	127
124.79487528344671	125.02707482993198	50	127
124.88775510204081	125.11995464852608	60	127
124.88775510204081	125.11995464852608	48	127
125.02707482993198	125.22444444444444	62	127
125.02707482993198	125.22444444444444	50	127
125.13156462585034	125.30571428571429	60	127
125.13156462585034	125.30571428571429	48	127
125.22444444444444	125.39859410430839	62	127
125.22444444444444	125.39859410430839	50	127
125.32893424036281	125.52630385487528	60	127
125.32893424036281	125.52630385487528	48	127
125.39859410430839	125.59596371882085	62	127
125.39859410430839	125.59596371882085	50	127
125.52630385487528	125.70045351473922	59	127
125.52630385487528	125.70045351473922	47	127
125.60757369614512	125.81655328798186	62	127
125.60757369614512	125.81655328798186	50	127
125.70045351473922	125.8978231292517	59	127
125.70045351473922	125.8978231292517	47	127
125.81655328798186	125.9907029478458	62	127
125.81655328798186	125.9907029478458	50	127
125.8978231292517	126.1184126984127	59	127
125.8978231292517	126.1184126984127	47	127
125.9907029478458	126.22290249433107	62	127
125.9907029478458	126.22290249433107	50	127
126.13002267573697	126.33900226757369	57	127
126.13002267573697	126.33900226757369	45	127
126.22290249433107	126.44349206349206	62	127
126.22290249433107	126.44349206349206	50	127
126.33900226757369	126.54798185941043	57	127
126.33900226757369	126.54798185941043	45	127
126.45510204081633	126.68730158730159	62	127
126.45510204081633	126.68730158730159	50	127
126.54798185941043	126.81501133786848	57	127
126.54798185941043	126.81501133786848	45	127
126.69891156462585	126.81501133786848	62	127
126.69891156462585	126.81501133786848	50	127
126.81501133786848	126.98916099773243	55	127
126.81501133786848	126.98916099773243	43	127
126.98916099773243	127.11687074829932	54	127
126.98916099773243	127.11687074829932	42	127
127.12848072562359	127.22136054421769	52	127
127.12848072562359	127.22136054421769	40	127
127.22136054421769	127.32585034013606	50	127
127.22136054421769	127.32585034013606	38	127
127.34907029478458	127.44195011337868	52	127
127.34907029478458	127.44195011337868	40	127
127.44195011337868	127.54643990929705	54	127
127.44195011337868	127.54643990929705	42	127
127.54643990929705	127.65092970521542	55	127
127.54643990929705	127.65092970521542	43	127
127.66253968253969	127.75541950113379	54	127
127.66253968253969	127.75541950113379	42	127
127.75541950113379	127.84829931972789	52	127
127.75541950113379	127.84829931972789	40	127
127.84829931972789	127.941179138322	50	127
127.84829931972789	127.941179138322	38	127
127.95278911564625	128.04566893424035	52	127
127.95278911564625	128.04566893424035	40	127
128.04566893424035	128.13854875283448	54	127
128.04566893424035	128.13854875283448	42	127
128.15015873015872	128.37074829931973	55	127
128.15015873015872	128.37074829931973	43	127
128.37074829931973	128.59133786848074	59	127
128.37074829931973	128.59133786848074	47	127
128.59133786848074	128.80031746031747	62	127
128.59133786848074	128.80031746031747	50	127
128.80031746031747	128.99768707482994	67	127
128.80031746031747	128.99768707482994	55	127
129.00927437641724	129.20666666666668	71	127
129.00927437641724	129.20666666666668	59	127
129.20666666666668	129.42725623582766	74	127
129.20666666666668	129.42725623582766	62	127
129.42725623582766	129.90326530612245	67	127
129.42725623582766	129.90326530612245	71	127
129.64784580498866	129.90326530612245	79	127
129.90326530612245	130.1122448979592	83	127
130.1122448979592	130.55342403628117	62	127
130.1122448979592	130.55342403628117	69	127
130.39086167800454	130.55342403628117	78	127
130.39086167800454	130.55342403628117	81	127
130.55342403628117	130.77401360544218	86	127
130.78562358276645	131.00619047619048	74	127
130.78562358276645	131.00619047619048	79	127
130.78562358276645	131.00619047619048	83	127
130.78562358276645	131.00619047619048	55	127
130.78562358276645	131.00619047619048	67	127
131.00619047619048	131.2384126984127	74	127
131.00619047619048	131.2384126984127	78	127
131.00619047619048	131.2384126984127	81	127
131.00619047619048	131.2384126984127	50	127
131.00619047619048	131.2384126984127	62	127
131.8305215419501	131.958231292517	50	127
131.8305215419501	131.958231292517	38	127
131.958231292517	132.0511111111111	52	127
131.958231292517	132.0511111111111	40	127
132.06272108843538	132.15560090702948	54	127
132.06272108843538	132.15560090702948	42	127
132.15560090702948	132.24848072562358	55	127
132.15560090702948	132.24848072562358	43	127
132.26009070294785	132.3761904761905	54	127
132.26009070294785	132.3761904761905	42	127
132.3761904761905	132.48068027210886	52	127
132.3761904761905	132.48068027210886	40	127
132.48068027210886	132.57356009070295	50	127
132.48068027210886	132.57356009070295	38	127
132.58517006802722	132.67804988662132	52	127
132.58517006802722	132.67804988662132	40	127
132.67804988662132	132.7825396825397	54	127
132.67804988662132	132.7825396825397	42	127
132.7825396825397	132.89861678004536	55	127
132.7825396825397	132.89861678004536	43	127
132.89861678004536	133.01473922902494	54	127
132.89861678004536	133.01473922902494	42	127
133.01473922902494	133.1192290249433	52	127
133.01473922902494	133.1192290249433	40	127
133.13083900226758	133.22371882086168	50	127
133.13083900226758	133.22371882086168	38	127
133.22371882086168	133.31659863945578	52	127
133.22371882086168	133.31659863945578	40	127
133.31659863945578	133.40945578231293	54	127
133.31659863945578	133.40945578231293	42	127
133.42108843537414	133.6184580498866	55	127
133.42108843537414	133.6184580498866	43	127
133.63006802721088	133.80421768707484	59	127
133.63006802721088	133.80421768707484	47	127
133.80421768707484	133.98997732426304	62	127
133.80421768707484	133.98997732426304	50	127
133.98997732426304	134.1873469387755	67	127
133.98997732426304	134.1873469387755	55	127
134.1873469387755	134.39632653061224	71	127
134.1873469387755	134.39632653061224	59	127
134.39632653061224	134.60530612244898	74	127
134.39632653061224	134.60530612244898	62	127
134.61691609977325	135.12775510204082	67	127
134.61691609977325	135.12775510204082	71	127
134.90716553287982	135.12775510204082	79	127
135.1625850340136	135.37156462585034	83	127
135.37156462585034	135.81272108843538	62	127
135.37156462585034	135.81272108843538	69	127
135.61537414965986	135.81272108843538	78	127
135.61537414965986	135.81272108843538	81	127
135.81272108843538	136.09138321995465	86	127
136.09138321995465	136.32356009070295	74	127
136.09138321995465	136.32356009070295	83	127
136.09138321995465	136.32356009070295	55	127
136.09138321995465	136.32356009070295	67	127
136.33519274376417	136.5441723356009	71	127
136.33519274376417	136.5441723356009	79	127
136.33519274376417	136.5441723356009	55	127
136.33519274376417	136.5441723356009	67	127
137.38009070294785	137.47297052154195	67	127
137.47297052154195	137.57746031746032	72	127
137.57746031746032	138.79650793650794	72	127
137.57746031746032	138.79650793650794	64	127
137.57746031746032	139.26090702947846	67	127
138.79650793650794	139.01709750566894	71	127
138.79650793650794	139.01709750566894	62	127
139.01709750566894	139.26090702947846	76	127
139.01709750566894	139.26090702947846	60	127
139.26090702947846	140.25934240362812	74	127
139.26090702947846	140.25934240362812	59	127
139.26090702947846	140.71215419501135	67	127
140.25934240362812	140.5147619047619	72	127
140.25934240362812	140.5147619047619	57	127
140.52639455782312	140.71215419501135	71	127
140.52639455782312	140.71215419501135	55	127
140.71215419501135	140.88630385487528	71	127
140.71215419501135	141.4203628117914	67	127
140.71215419501135	141.4203628117914	64	127
140.71215419501135	141.4203628117914	60	127
140.88630385487528	141.1765306122449	68	127
141.1765306122449	141.4203628117914	69	127
141.4203628117914	141.64095238095237	69	127
141.4203628117914	142.09374149659865	66	127
141.4203628117914	142.09374149659865	62	127
141.65256235827664	141.86154195011338	71	127
141.86154195011338	142.09374149659865	72	127
142.09374149659865	142.34916099773244	71	127
142.09374149659865	142.34916099773244	43	127
142.34916099773244	142.56975056689342	67	127
142.34916099773244	142.56975056689342	55	127
142.5813605442177	142.7671201814059	55	127
142.77873015873016	142.9877097505669	55	127
142.9877097505669	143.2198866213152	54	127
143.2198866213152	143.44049886621315	53	127
143.44049886621315	144.45054421768708	52	127
143.7771882086168	144.04421768707482	55	127
144.04421768707482	144.25319727891156	67	127
144.25319727891156	144.8685260770975	67	127
144.45054421768708	144.65954648526076	50	127
144.67115646258503	144.8685260770975	48	127
144.89174603174604	145.89020408163265	47	127
145.0891156462585	145.39097505668934	55	127
145.39097505668934	145.69283446712018	67	127
145.69283446712018	146.35460317460317	67	127
145.90181405895692	146.14562358276643	45	127
146.14562358276643	146.35460317460317	43	127
146.35460317460317	146.77256235827664	48	127
146.57519274376418	146.77256235827664	55	127
146.57519274376418	146.77256235827664	57	127
146.7841723356009	146.99315192743765	64	127
146.7841723356009	146.99315192743765	49	127
147.00473922902495	147.49238095238096	50	127
147.23696145124717	147.49238095238096	54	127
147.23696145124717	147.49238095238096	57	127
147.49238095238096	147.81746031746033	62	127
147.49238095238096	147.81746031746033	38	127
147.82907029478457	148.25863945578232	31	127
148.0380498866213	148.25863945578232	59	127
148.0380498866213	148.25863945578232	43	127
148.25863945578232	148.45600907029478	59	127
148.25863945578232	148.45600907029478	43	127
148.45600907029478	148.71142857142857	59	127
148.45600907029478	148.71142857142857	43	127
148.71142857142857	148.8275283446712	60	127
148.71142857142857	148.8275283446712	42	127
148.8275283446712	148.9204081632653	59	127
148.8275283446712	148.9204081632653	43	127
148.93201814058958	149.02489795918368	57	127
148.93201814058958	149.02489795918368	45	127
149.02489795918368	149.12938775510204	55	127
149.02489795918368	149.12938775510204	47	127
149.12938775510204	149.61700680272108	48	127
149.3964172335601	149.61700680272108	55	127
149.3964172335601	149.61700680272108	57	127
149.61700680272108	149.8143537414966	64	127
149.61700680272108	149.8143537414966	49	127
149.82598639455782	150.25555555555556	50	127
150.04657596371882	150.25555555555556	54	127
150.04657596371882	150.25555555555556	57	127
150.25555555555556	150.5574149659864	62	127
150.25555555555556	150.5574149659864	38	127
150.5574149659864	150.98698412698414	31	127
150.75478458049886	150.98698412698414	59	127
150.75478458049886	150.98698412698414	43	127
150.99859410430838	151.2191836734694	59	127
150.99859410430838	151.2191836734694	43	127
151.2191836734694	151.4397732426304	59	127
151.2191836734694	151.4397732426304	43	127
151.4397732426304	151.54426303854876	60	127
151.4397732426304	151.54426303854876	42	127
151.55585034013606	151.66036281179137	59	127
151.55585034013606	151.66036281179137	43	127
151.66036281179137	151.76485260770974	57	127
151.66036281179137	151.76485260770974	45	127
151.76485260770974	151.85773242630387	55	127
151.76485260770974	151.85773242630387	47	127
151.8693424036281	152.1015419501134	36	127
152.1015419501134	152.32210884353742	55	127
152.1015419501134	152.32210884353742	57	127
152.1015419501134	152.32210884353742	48	127
152.32210884353742	152.55433106575964	64	127
152.32210884353742	152.55433106575964	48	127
152.5659410430839	152.7865306122449	36	127
152.7865306122449	152.99551020408163	55	127
152.7865306122449	152.99551020408163	57	127
152.7865306122449	152.99551020408163	48	127
153.0071201814059	153.21609977324263	64	127
153.0071201814059	153.21609977324263	48	127
153.21609977324263	153.42507936507937	38	127
153.33219954648527	153.541179138322	57	127
153.43668934240364	153.6688888888889	62	127
153.43668934240364	153.6688888888889	54	127
153.43668934240364	153.6688888888889	50	127
153.541179138322	153.77337868480726	57	127
153.68049886621316	153.87786848072562	66	127
153.68049886621316	153.87786848072562	50	127
153.68049886621316	153.87786848072562	54	127
153.77337868480726	153.982358276644	62	127
153.87786848072562	154.09845804988663	69	127
153.87786848072562	154.09845804988663	57	127
153.87786848072562	154.09845804988663	54	127
153.87786848072562	154.09845804988663	50	127
153.99396825396826	154.2145351473923	66	127
154.09845804988663	154.3190476190476	74	127
154.09845804988663	154.3190476190476	57	127
154.09845804988663	154.3190476190476	54	127
154.09845804988663	154.3190476190476	50	127
154.2261678004535	154.42353741496598	69	127
154.3190476190476	154.51639455782313	78	127
154.3190476190476	154.51639455782313	57	127
154.3190476190476	154.51639455782313	54	127
154.3190476190476	154.51639455782313	50	127
154.42353741496598	154.51639455782313	74	127
154.52802721088435	154.72537414965987	50	127
154.52802721088435	154.72537414965987	54	127
154.52802721088435	154.72537414965987	57	127
154.52802721088435	154.91115646258504	81	127
154.72537414965987	154.91115646258504	50	127
154.72537414965987	154.91115646258504	54	127
154.72537414965987	154.91115646258504	57	127
154.91115646258504	155.09691609977324	50	127
154.91115646258504	155.09691609977324	54	127
154.91115646258504	155.09691609977324	57	127
155.09691609977324	155.2942857142857	50	127
155.09691609977324	155.2942857142857	54	127
155.09691609977324	155.2942857142857	57	127
155.30589569160998	155.49163265306123	50	127
155.30589569160998	155.49163265306123	54	127
155.30589569160998	155.49163265306123	57	127
155.50326530612244	155.87478458049887	50	127
155.50326530612244	155.87478458049887	54	127
155.50326530612244	155.87478458049887	57	127
155.87478458049887	156.09537414965988	40	127
156.0024716553288	156.19986394557824	57	127
156.09537414965988	156.29274376417234	61	127
156.09537414965988	156.29274376417234	52	127
156.09537414965988	156.29274376417234	55	127
156.09537414965988	156.29274376417234	57	127
156.19986394557824	156.3972335600907	57	127
156.29274376417234	156.4901133786848	64	127
156.29274376417234	156.4901133786848	52	127
156.29274376417234	156.4901133786848	55	127
156.29274376417234	156.4901133786848	57	127
156.3972335600907	156.59460317460318	61	127
156.50172335600908	156.69909297052155	67	127
156.50172335600908	156.69909297052155	52	127
156.50172335600908	156.69909297052155	55	127
156.50172335600908	156.69909297052155	57	127
156.59460317460318	156.80358276643992	64	127
156.69909297052155	156.94290249433107	73	127
156.69909297052155	156.94290249433107	52	127
156.69909297052155	156.94290249433107	55	127
156.69909297052155	156.94290249433107	57	127
156.8151927437642	157.03578231292516	67	127
156.94290249433107	157.17507936507937	76	127
156.94290249433107	157.17507936507937	52	127
156.94290249433107	157.17507936507937	55	127
156.94290249433107	157.17507936507937	57	127
157.04739229024943	157.17507936507937	73	127
157.17507936507937	157.39569160997732	52	127
157.17507936507937	157.39569160997732	55	127
157.17507936507937	157.39569160997732	57	127
157.17507936507937	157.60467120181406	79	127
157.4073015873016	157.60467120181406	52	127
157.4073015873016	157.60467120181406	55	127
157.4073015873016	157.60467120181406	57	127
157.61628117913833	157.83687074829933	52	127
157.61628117913833	157.83687074829933	55	127
157.61628117913833	157.83687074829933	57	127
157.83687074829933	158.09229024943312	52	127
157.83687074829933	158.09229024943312	55	127
157.83687074829933	158.09229024943312	57	127
158.09229024943312	158.2896598639456	52	127
158.09229024943312	158.2896598639456	55	127
158.09229024943312	158.2896598639456	57	127
158.30124716553289	158.48702947845806	52	127
158.30124716553289	158.48702947845806	55	127
158.30124716553289	158.48702947845806	57	127
158.49863945578232	158.70761904761906	42	127
158.6031292517007	158.81208616780046	62	127
158.70761904761906	158.92820861678004	66	127
158.70761904761906	158.92820861678004	54	127
158.70761904761906	158.92820861678004	57	127
158.70761904761906	158.92820861678004	60	127
158.82371882086167	159.02108843537414	62	127
158.92820861678004	159.11396825396827	69	127
158.92820861678004	159.11396825396827	54	127
158.92820861678004	159.11396825396827	57	127
158.92820861678004	159.11396825396827	60	127
159.0326984126984	159.21845804988664	66	127
159.11396825396827	159.31133786848073	72	127
159.11396825396827	159.31133786848073	54	127
159.11396825396827	159.31133786848073	57	127
159.11396825396827	159.31133786848073	60	127
159.21845804988664	159.4158276643991	69	127
159.32292517006803	159.53190476190477	74	127
159.32292517006803	159.53190476190477	54	127
159.32292517006803	159.53190476190477	57	127
159.32292517006803	159.53190476190477	60	127
159.4158276643991	159.64802721088435	72	127
159.53190476190477	159.75251700680272	78	127
159.53190476190477	159.75251700680272	54	127
159.53190476190477	159.75251700680272	57	127
159.53190476190477	159.75251700680272	60	127
159.65963718820862	159.75251700680272	74	127
159.75251700680272	160.05437641723356	54	127
159.75251700680272	160.05437641723356	57	127
159.75251700680272	160.05437641723356	60	127
159.75251700680272	160.28657596371883	81	127
160.05437641723356	160.28657596371883	54	127
160.05437641723356	160.28657596371883	57	127
160.05437641723356	160.28657596371883	60	127
160.29816326530613	160.53038548752835	54	127
160.29816326530613	160.53038548752835	57	127
160.29816326530613	160.53038548752835	60	127
160.54199546485262	160.71614512471655	54	127
160.54199546485262	160.71614512471655	57	127
160.54199546485262	160.71614512471655	60	127
160.71614512471655	160.92512471655328	54	127
160.71614512471655	160.92512471655328	57	127
160.71614512471655	160.92512471655328	60	127
160.92512471655328	161.12249433106575	62	127
160.92512471655328	161.12249433106575	54	127
160.92512471655328	161.12249433106575	57	127
160.92512471655328	161.12249433106575	60	127
161.12249433106575	161.3314739229025	64	127
161.12249433106575	161.3314739229025	43	127
161.34308390022676	161.59850340136055	71	127
161.34308390022676	161.59850340136055	55	127
161.34308390022676	161.59850340136055	59	127
161.4591836734694	161.70299319727891	76	127
161.59850340136055	161.80748299319728	79	127
161.59850340136055	161.80748299319728	55	127
161.59850340136055	161.80748299319728	59	127
161.71460317460318	161.92358276643992	83	127
161.80748299319728	162.0280725623583	55	127
161.80748299319728	162.0280725623583	59	127
161.80748299319728	162.19061224489795	71	127
162.0280725623583	162.19061224489795	55	127
162.0280725623583	162.19061224489795	59	127
162.20222222222222	162.38798185941044	55	127
162.20222222222222	162.38798185941044	59	127
162.3995918367347	162.63179138321996	44	127
162.63179138321996	162.81755102040816	76	127
162.63179138321996	162.81755102040816	56	127
162.63179138321996	162.81755102040816	59	127
162.63179138321996	162.81755102040816	64	127
162.72467120181406	162.94526077097507	80	127
162.81755102040816	163.04975056689344	83	127
162.81755102040816	163.04975056689344	56	127
162.81755102040816	163.04975056689344	59	127
162.81755102040816	163.04975056689344	64	127
162.94526077097507	163.18907029478459	88	127
163.06136054421768	163.30517006802722	56	127
163.06136054421768	163.30517006802722	59	127
163.06136054421768	163.30517006802722	64	127
163.06136054421768	163.54897959183674	76	127
163.31678004535146	163.54897959183674	56	127
163.31678004535146	163.54897959183674	59	127
163.31678004535146	163.54897959183674	64	127
163.54897959183674	163.7463492063492	56	127
163.54897959183674	163.7463492063492	59	127
163.54897959183674	163.7463492063492	64	127
163.7463492063492	163.9785260770975	45	127
163.9785260770975	164.1875283446712	57	127
163.9785260770975	164.1875283446712	61	127
163.9785260770975	164.1875283446712	64	127
164.19913832199546	164.4081179138322	57	127
164.19913832199546	164.4081179138322	61	127
164.19913832199546	164.4081179138322	64	127
164.4081179138322	164.663537414966	57	127
164.4081179138322	164.663537414966	62	127
164.4081179138322	164.663537414966	64	127
164.663537414966	164.87251700680272	80	127
164.663537414966	164.87251700680272	57	127
164.663537414966	164.87251700680272	62	127
164.663537414966	164.87251700680272	64	127
164.87251700680272	165.00020408163266	80	127
164.87251700680272	165.08149659863946	57	127
164.87251700680272	165.08149659863946	62	127
164.87251700680272	165.08149659863946	64	127
164.9421768707483	165.08149659863946	81	127
165.01183673469387	165.08149659863946	80	127
165.09310657596373	165.20920634920634	81	127
165.09310657596373	165.3136961451247	57	127
165.09310657596373	165.3136961451247	61	127
165.09310657596373	165.3136961451247	64	127
165.20920634920634	165.3136961451247	88	127
165.32530612244898	165.41818594104308	86	127
165.32530612244898	165.52267573696145	57	127
165.32530612244898	165.52267573696145	61	127
165.32530612244898	165.52267573696145	64	127
165.41818594104308	165.52267573696145	85	127
165.52267573696145	165.61555555555555	83	127
165.52267573696145	165.7200453514739	57	127
165.52267573696145	165.7200453514739	61	127
165.52267573696145	165.7200453514739	64	127
165.62716553287981	165.7200453514739	81	127
165.7200453514739	165.81292517006804	80	127
165.7200453514739	165.91739229024944	57	127
165.7200453514739	165.91739229024944	62	127
165.7200453514739	165.91739229024944	64	127
165.82453514739228	165.91739229024944	78	127
165.91739229024944	166.0218820861678	76	127
165.91739229024944	166.11478458049888	57	127
165.91739229024944	166.11478458049888	62	127
165.91739229024944	166.11478458049888	64	127
166.0218820861678	166.11478458049888	74	127
166.12639455782312	166.20766439909298	73	127
166.12639455782312	166.31215419501135	57	127
166.12639455782312	166.31215419501135	62	127
166.12639455782312	166.31215419501135	64	127
166.20766439909298	166.31215419501135	71	127
166.31215419501135	166.5095238095238	45	127
166.31215419501135	166.77655328798187	69	127
166.5095238095238	166.77655328798187	57	127
166.5095238095238	166.77655328798187	61	127
166.5095238095238	166.77655328798187	64	127
166.77655328798187	166.97392290249434	57	127
166.77655328798187	166.97392290249434	61	127
166.77655328798187	166.97392290249434	64	127
166.9855328798186	167.18290249433107	57	127
166.9855328798186	167.18290249433107	62	127
166.9855328798186	167.18290249433107	64	127
167.19448979591837	167.3918820861678	80	127
167.19448979591837	167.3918820861678	57	127
167.19448979591837	167.3918820861678	62	127
167.19448979591837	167.3918820861678	64	127
167.3918820861678	167.53120181405896	80	127
167.3918820861678	167.62408163265306	57	127
167.3918820861678	167.62408163265306	62	127
167.3918820861678	167.62408163265306	64	127
167.46154195011337	167.62408163265306	81	127
167.54281179138323	167.62408163265306	80	127
167.62408163265306	167.75179138321997	81	127
167.62408163265306	167.87950113378685	57	127
167.62408163265306	167.87950113378685	61	127
167.62408163265306	167.87950113378685	64	127
167.75179138321997	167.87950113378685	88	127
167.89111111111112	168.00721088435375	86	127
167.89111111111112	168.12331065759636	57	127
167.89111111111112	168.12331065759636	61	127
167.89111111111112	168.12331065759636	64	127
168.00721088435375	168.12331065759636	85	127
168.13492063492063	168.22780045351473	83	127
168.13492063492063	168.34390022675737	57	127
168.13492063492063	168.34390022675737	61	127
168.13492063492063	168.34390022675737	64	127
168.22780045351473	168.34390022675737	81	127
168.34390022675737	168.42514739229026	80	127
168.34390022675737	168.52965986394557	57	127
168.34390022675737	168.52965986394557	62	127
168.34390022675737	168.52965986394557	64	127
168.43678004535147	168.52965986394557	78	127
168.52965986394557	168.6225396825397	76	127
168.52965986394557	168.7270068027211	57	127
168.52965986394557	168.7270068027211	62	127
168.52965986394557	168.7270068027211	64	127
168.63414965986394	168.7270068027211	74	127
168.7270068027211	168.84312925170067	73	127
168.7270068027211	168.93598639455783	57	127
168.7270068027211	168.93598639455783	62	127
168.7270068027211	168.93598639455783	64	127
168.84312925170067	168.93598639455783	71	127
168.94761904761904	169.07532879818595	69	127
168.94761904761904	169.07532879818595	57	127
169.07532879818595	169.17981859410432	76	127
169.07532879818595	169.17981859410432	64	127
169.17981859410432	169.29591836734693	74	127
169.17981859410432	169.29591836734693	62	127
169.29591836734693	169.4004081632653	73	127
169.29591836734693	169.4004081632653	61	127
169.4004081632653	169.49328798185942	71	127
169.4004081632653	169.49328798185942	59	127
169.50489795918367	169.59775510204082	69	127
169.50489795918367	169.59775510204082	57	127
169.59775510204082	169.7022448979592	68	127
169.59775510204082	169.7022448979592	56	127
169.7022448979592	169.79514739229026	66	127
169.7022448979592	169.79514739229026	54	127
169.81836734693877	169.91124716553287	64	127
169.81836734693877	169.91124716553287	52	127
169.91124716553287	170.0273469387755	62	127
169.91124716553287	170.0273469387755	50	127
170.03895691609978	170.14344671201815	61	127
170.03895691609978	170.14344671201815	49	127
170.14344671201815	170.24793650793652	59	127
170.14344671201815	170.24793650793652	47	127
170.24793650793652	170.3756462585034	57	127
170.24793650793652	170.3756462585034	45	127
170.38725623582766	170.49174603174603	56	127
170.38725623582766	170.49174603174603	44	127
170.49174603174603	170.58462585034013	54	127
170.49174603174603	170.58462585034013	42	127
170.5962358276644	170.70072562358277	52	127
170.5962358276644	170.70072562358277	40	127
170.70072562358277	170.8168253968254	54	127
170.70072562358277	170.8168253968254	42	127
170.8168253968254	170.93292517006802	56	127
170.8168253968254	170.93292517006802	44	127
170.9445351473923	171.0374149659864	57	127
170.9445351473923	171.0374149659864	45	127
171.0374149659864	171.15351473922902	56	127
171.0374149659864	171.15351473922902	44	127
171.15351473922902	171.24639455782312	54	127
171.15351473922902	171.24639455782312	42	127
171.2580045351474	171.3508843537415	52	127
171.2580045351474	171.3508843537415	40	127
171.3508843537415	171.4437641723356	54	127
171.3508843537415	171.4437641723356	42	127
171.45537414965986	171.55986394557823	56	127
171.45537414965986	171.55986394557823	44	127
171.55986394557823	171.98943310657597	57	127
171.55986394557823	171.98943310657597	45	127
173.28975056689342	174.17210884353742	49	127
173.28975056689342	174.17210884353742	54	127
173.28975056689342	174.17210884353742	58	127
173.28975056689342	174.17210884353742	42	127
174.17210884353742	174.84548752834468	50	127
174.17210884353742	174.84548752834468	54	127
174.17210884353742	174.84548752834468	59	127
174.17210884353742	174.84548752834468	35	127
174.84548752834468	175.50725623582767	54	127
174.84548752834468	175.50725623582767	58	127
174.84548752834468	175.50725623582767	61	127
174.84548752834468	175.50725623582767	30	127
174.84548752834468	175.50725623582767	42	127
176.45927437641723	176.5637641723356	62	127
176.45927437641723	176.5637641723356	50	127
176.57537414965986	176.66825396825396	61	127
176.57537414965986	176.66825396825396	49	127
176.66825396825396	176.77274376417233	59	127
176.66825396825396	176.77274376417233	47	127
176.77274376417233	176.86562358276643	57	127
176.77274376417233	176.86562358276643	45	127
176.8772335600907	176.9701133786848	59	127
176.8772335600907	176.9701133786848	47	127
176.9701133786848	177.07460317460317	61	127
176.9701133786848	177.07460317460317	49	127
177.07460317460317	177.1907029478458	62	127
177.07460317460317	177.1907029478458	50	127
177.1907029478458	177.29519274376418	61	127
177.1907029478458	177.29519274376418	49	127
177.29519274376418	177.38807256235827	59	127
177.29519274376418	177.38807256235827	47	127
177.39968253968254	177.49256235827664	57	127
177.39968253968254	177.49256235827664	45	127
177.49256235827664	177.58544217687074	59	127
177.49256235827664	177.58544217687074	47	127
177.58544217687074	177.65510204081633	61	127
177.58544217687074	177.65510204081633	49	127
177.6667120181406	177.99179138321995	62	127
177.6667120181406	177.99179138321995	50	127
179.3269387755102	180.10480725623583	54	127
179.3269387755102	180.10480725623583	59	127
179.3269387755102	180.10480725623583	63	127
179.3269387755102	180.10480725623583	47	127
180.10480725623583	180.7781859410431	55	127
180.10480725623583	180.7781859410431	59	127
180.10480725623583	180.7781859410431	64	127
180.10480725623583	180.7781859410431	40	127
180.78979591836736	181.19614512471657	59	127
180.78979591836736	181.19614512471657	63	127
180.78979591836736	181.19614512471657	66	127
180.78979591836736	181.19614512471657	35	127
180.78979591836736	181.19614512471657	47	127
182.46163265306123	182.5661224489796	67	127
182.46163265306123	182.5661224489796	55	127
182.5661224489796	182.68219954648526	66	127
182.5661224489796	182.68219954648526	54	127
182.69383219954648	182.78668934240363	64	127
182.69383219954648	182.78668934240363	52	127
182.78668934240363	182.891179138322	62	127
182.78668934240363	182.891179138322	50	127
182.90281179138321	183.00730158730158	64	127
182.90281179138321	183.00730158730158	52	127
183.00730158730158	183.10018140589568	66	127
183.00730158730158	183.10018140589568	54	127
183.10018140589568	183.18145124716554	67	127
183.10018140589568	183.18145124716554	55	127
183.1930612244898	183.2859410430839	66	127
183.1930612244898	183.2859410430839	54	127
183.2859410430839	183.39043083900228	64	127
183.2859410430839	183.39043083900228	52	127
183.39043083900228	183.48331065759638	62	127
183.39043083900228	183.48331065759638	50	127
183.49492063492065	183.59941043083901	64	127
183.49492063492065	183.59941043083901	52	127
183.59941043083901	183.7271201814059	66	127
183.59941043083901	183.7271201814059	54	127
183.73873015873016	184.28439909297052	67	127
183.73873015873016	184.28439909297052	55	127
185.17836734693878	185.70079365079366	65	127
185.48022675736962	186.20004535147393	52	127
185.70079365079366	185.97945578231293	64	127
185.9910657596372	186.20004535147393	62	127
186.22326530612244	186.46705215419502	45	127
186.22326530612244	186.74571428571429	60	127
186.46705215419502	186.74571428571429	47	127
186.74571428571429	186.95469387755102	48	127
186.74571428571429	187.1520634920635	64	127
186.95469387755102	187.6861224489796	50	127
187.16367346938776	187.45392290249433	62	127
187.45392290249433	187.6861224489796	60	127
187.6861224489796	187.91832199546485	43	127
187.6861224489796	188.15052154195013	59	127
187.91832199546485	188.15052154195013	45	127
188.16213151927437	188.39433106575964	47	127
188.16213151927437	188.64975056689343	62	127
188.4059410430839	189.10253968253969	49	127
188.64975056689343	188.88195011337868	61	127
188.88195011337868	189.10253968253969	59	127
189.11414965986395	189.3463492063492	42	127
189.11414965986395	189.5669387755102	57	127
189.35795918367347	189.5669387755102	43	127
189.5669387755102	189.79913832199546	45	127
189.5669387755102	190.0081179138322	60	127
189.79913832199546	190.60022675736963	47	127
190.0081179138322	190.2983673469388	59	127
190.30997732426303	190.60022675736963	57	127
190.60022675736963	190.8904761904762	40	127
190.60022675736963	191.1110657596372	55	127
190.8904761904762	191.1110657596372	42	127
191.1110657596372	191.32004535147394	43	127
191.1110657596372	191.58707482993196	59	127
191.33165532879818	192.00503401360544	45	127
191.59868480725623	191.81927437641724	57	127
191.81927437641724	192.00503401360544	55	127
192.00503401360544	192.295283446712	54	127
192.00503401360544	192.81773242630385	38	127
192.295283446712	192.59714285714287	52	127
192.6087528344671	192.81773242630385	50	127
192.81773242630385	193.07315192743764	47	127
192.81773242630385	193.79297052154195	31	127
193.07315192743764	193.31696145124715	52	127
193.31696145124715	193.5839909297052	55	127
193.59560090702948	193.79297052154195	59	127
193.80458049886622	194.01356009070295	64	127
193.80458049886622	194.01356009070295	47	127
194.01356009070295	194.280589569161	67	127
194.01356009070295	194.280589569161	43	127
194.280589569161	194.76820861678004	45	127
194.5360090702948	194.76820861678004	66	127
194.7798185941043	195.00040816326532	69	127
195.00040816326532	195.42997732426304	57	127
195.00040816326532	195.42997732426304	45	127
195.20938775510203	195.42997732426304	67	127
195.4415873015873	195.6970068027211	69	127
195.55768707482994	195.6970068027211	81	127
195.6970068027211	195.92920634920634	38	127
195.6970068027211	196.5793650793651	81	127
195.92920634920634	196.13818594104308	50	127
196.13818594104308	196.39360544217686	50	127
196.39360544217686	196.5793650793651	50	127
196.59097505668933	196.79995464852607	77	127
196.59097505668933	196.79995464852607	50	127
196.81156462585034	196.99732426303854	74	127
196.81156462585034	196.99732426303854	50	127
196.9508843537415	197.0437641723356	76	127
196.99732426303854	197.20630385487527	74	127
196.99732426303854	197.20630385487527	40	127
197.20630385487527	197.4849433106576	52	127
197.20630385487527	197.87968253968253	73	127
197.4849433106576	197.68231292517007	52	127
197.69392290249434	197.87968253968253	52	127
197.8912925170068	198.077052154195	73	127
197.8912925170068	198.077052154195	52	127
198.077052154195	198.297641723356	74	127
198.077052154195	198.297641723356	52	127
198.297641723356	198.49501133786848	37	127
198.297641723356	198.71560090702948	76	127
198.50662131519275	198.71560090702948	49	127
198.72721088435375	198.92458049886622	73	127
198.72721088435375	198.92458049886622	45	127
198.92458049886622	199.1451700680272	49	127
198.92458049886622	199.41219954648525	69	127
199.1451700680272	199.41219954648525	49	127
199.41219954648525	199.59795918367348	67	127
199.41219954648525	199.59795918367348	45	127
199.60956916099772	199.8069387755102	65	127
199.60956916099772	199.8069387755102	38	127
199.70244897959185	199.91142857142856	57	127
199.81854875283446	200.0043083900227	65	127
199.81854875283446	200.0043083900227	50	127
199.91142857142856	200.13201814058957	57	127
200.0043083900227	200.23650793650793	65	127
200.0043083900227	200.23650793650793	50	127
200.14362811791383	200.32938775510203	57	127
200.23650793650793	200.4687074829932	65	127
200.23650793650793	200.4687074829932	50	127
200.32938775510203	200.5615873015873	57	127
200.4687074829932	200.67768707482992	67	127
200.4687074829932	200.67768707482992	52	127
200.5615873015873	200.79378684807256	57	127
200.6892970521542	200.9098866213152	64	127
200.6892970521542	200.9098866213152	49	127
200.79378684807256	201.01437641723356	57	127
200.9098866213152	201.11886621315193	65	127
200.9098866213152	201.11886621315193	38	127
201.02598639455783	201.23496598639457	57	127
201.11886621315193	201.33945578231294	65	127
201.11886621315193	201.33945578231294	50	127
201.2465759637188	201.43233560090704	57	127
201.33945578231294	201.5368253968254	65	127
201.33945578231294	201.5368253968254	50	127
201.43233560090704	201.65292517006802	57	127
201.54843537414965	201.74580498866214	65	127
201.54843537414965	201.74580498866214	50	127
201.65292517006802	201.8502947845805	57	127
201.75741496598638	201.95478458049885	65	127
201.75741496598638	201.95478458049885	50	127
201.8502947845805	202.1057142857143	57	127
201.95478458049885	202.23342403628118	65	127
201.95478458049885	202.23342403628118	50	127
202.11732426303854	202.32630385487528	57	127
202.23342403628118	202.44240362811792	67	127
202.23342403628118	202.44240362811792	40	127
202.32630385487528	202.54689342403628	57	127
202.44240362811792	202.63977324263038	67	127
202.44240362811792	202.63977324263038	52	127
202.54689342403628	202.7674829931973	57	127
202.65138321995465	202.8835827664399	67	127
202.65138321995465	202.8835827664399	52	127
202.7674829931973	202.976462585034	57	127
202.8835827664399	203.09256235827664	67	127
202.8835827664399	203.09256235827664	52	127
202.99968253968254	203.20866213151928	57	127
203.09256235827664	203.31315192743764	67	127
203.09256235827664	203.31315192743764	52	127
203.22027210884355	203.42925170068028	57	127
203.31315192743764	203.52213151927438	67	127
203.31315192743764	203.52213151927438	52	127
203.42925170068028	203.63823129251702	57	127
203.53374149659865	203.7659410430839	64	127
203.53374149659865	203.7659410430839	37	127
203.63823129251702	203.87043083900227	57	127
203.77755102040817	203.96331065759637	64	127
203.77755102040817	203.96331065759637	49	127
203.87043083900227	204.05619047619047	57	127
203.96331065759637	204.16068027210883	61	127
203.96331065759637	204.16068027210883	45	127
204.06780045351474	204.3	57	127
204.16068027210883	204.45092970521543	64	127
204.16068027210883	204.45092970521543	49	127
204.3	204.5554195011338	57	127
204.45092970521543	204.6482993197279	64	127
204.45092970521543	204.6482993197279	49	127
204.5554195011338	204.76439909297054	57	127
204.65990929705217	204.89210884353741	69	127
204.65990929705217	204.89210884353741	45	127
204.76439909297054	204.89210884353741	81	127
204.89210884353741	205.1475283446712	50	127
204.89210884353741	205.402947845805	81	127
205.00820861678005	205.28684807256235	57	127
205.1475283446712	205.402947845805	53	127
205.29845804988662	205.48421768707482	57	127
205.402947845805	205.57709750566895	77	127
205.402947845805	205.57709750566895	53	127
205.48421768707482	205.72802721088436	74	127
205.48421768707482	205.72802721088436	57	127
205.5887074829932	205.83251700680273	52	127
205.5887074829932	206.0298866213152	72	127
205.72802721088436	205.9370068027211	55	127
205.84412698412697	206.0298866213152	52	127
205.9370068027211	206.1227664399093	55	127
206.0298866213152	206.23886621315194	52	127
206.13437641723357	206.36657596371882	55	127
206.23886621315194	206.47106575963718	50	127
206.37818594104309	206.58716553287982	53	127
206.47106575963718	206.70326530612246	50	127
206.58716553287982	206.80775510204083	53	127
206.7148752834467	206.90063492063493	50	127
206.80775510204083	207.0051247165533	53	127
206.90063492063493	207.13283446712018	48	127
207.0283446712018	207.23732426303854	52	127
207.13283446712018	207.3418140589569	48	127
207.24893424036281	207.434693877551	52	127
207.3418140589569	207.5740136054422	48	127
207.434693877551	207.7597732426304	52	127
207.58562358276643	207.87587301587303	46	127
207.58562358276643	208.14290249433105	86	127
207.7597732426304	208.05002267573695	50	127
207.88748299319727	208.14290249433105	46	127
208.05002267573695	208.23578231292518	50	127
208.14290249433105	208.34027210884355	82	127
208.14290249433105	208.34027210884355	46	127
208.24739229024942	208.46798185941043	79	127
208.24739229024942	208.46798185941043	50	127
208.34027210884355	208.56086167800453	45	127
208.34027210884355	208.76984126984127	77	127
208.4795918367347	208.65374149659863	48	127
208.56086167800453	208.76984126984127	45	127
208.65374149659863	208.87433106575963	48	127
208.78145124716553	209.01365079365078	45	127
208.87433106575963	209.1413605442177	48	127
209.01365079365078	209.2342403628118	43	127
209.1413605442177	209.33873015873016	46	127
209.2342403628118	209.44321995464853	43	127
209.35034013605443	209.5709297052154	46	127
209.44321995464853	209.66380952380953	43	127
209.5709297052154	209.7682993197279	46	127
209.67541950113377	209.861179138322	41	127
209.7682993197279	209.96566893424037	45	127
209.87278911564627	210.05854875283447	41	127
209.96566893424037	210.23269841269843	45	127
210.05854875283447	210.40684807256235	41	127
210.24430839002267	210.40684807256235	45	127
210.40684807256235	210.63904761904763	82	127
210.40684807256235	210.63904761904763	40	127
210.53455782312926	210.743537414966	70	127
210.53455782312926	210.743537414966	43	127
210.63904761904763	210.8364172335601	82	127
210.63904761904763	210.8364172335601	41	127
210.743537414966	210.94090702947847	70	127
210.743537414966	210.94090702947847	45	127
210.84802721088437	211.03378684807257	82	127
210.84802721088437	211.03378684807257	40	127
210.94090702947847	211.17310657596371	70	127
210.94090702947847	211.17310657596371	43	127
211.03378684807257	211.27759637188208	82	127
211.03378684807257	211.27759637188208	41	127
211.17310657596371	211.38208616780045	70	127
211.17310657596371	211.38208616780045	45	127
211.27759637188208	211.48657596371882	82	127
211.27759637188208	211.48657596371882	40	127
211.39369614512472	211.5910657596372	70	127
211.39369614512472	211.5910657596372	43	127
211.48657596371882	211.6839455782313	82	127
211.48657596371882	211.6839455782313	41	127
211.5910657596372	211.8116553287982	70	127
211.5910657596372	211.8116553287982	45	127
211.69555555555556	211.91614512471656	82	127
211.69555555555556	211.91614512471656	40	127
211.8116553287982	212.04385487528344	70	127
211.8116553287982	212.04385487528344	43	127
211.9277551020408	212.15995464852608	82	127
211.9277551020408	212.15995464852608	41	127
212.04385487528344	212.25283446712018	70	127
212.04385487528344	212.25283446712018	45	127
212.15995464852608	212.4037641723356	82	127
212.15995464852608	212.4037641723356	40	127
212.26444444444445	212.50825396825397	70	127
212.26444444444445	212.50825396825397	43	127
212.4037641723356	212.64757369614512	82	127
212.4037641723356	212.64757369614512	41	127
212.51986394557824	212.74045351473922	70	127
212.51986394557824	212.74045351473922	45	127
212.64757369614512	212.83333333333334	82	127
212.64757369614512	212.83333333333334	40	127
212.74045351473922	212.94943310657595	70	127
212.74045351473922	212.94943310657595	43	127
212.84494331065758	213.08875283446713	82	127
212.84494331065758	213.08875283446713	41	127
212.94943310657595	213.20485260770974	70	127
212.94943310657595	213.20485260770974	45	127
213.08875283446713	213.3093424036281	82	127
213.08875283446713	213.3093424036281	40	127
213.20485260770974	213.41383219954648	70	127
213.20485260770974	213.41383219954648	43	127
213.3093424036281	213.55315192743765	82	127
213.3093424036281	213.55315192743765	40	127
213.44866213151928	213.68086167800453	70	127
213.44866213151928	213.68086167800453	43	127
213.55315192743765	213.77374149659863	82	127
213.55315192743765	213.77374149659863	40	127
213.68086167800453	213.9130612244898	70	127
213.68086167800453	213.9130612244898	43	127
213.7853514739229	214.0059410430839	80	127
213.7853514739229	214.0059410430839	38	127
213.9130612244898	214.14526077097506	68	127
213.9130612244898	214.14526077097506	47	127
214.01755102040818	214.24975056689343	80	127
214.01755102040818	214.24975056689343	38	127
214.14526077097506	214.34263038548752	68	127
214.14526077097506	214.34263038548752	47	127
214.24975056689343	214.47034013605443	80	127
214.24975056689343	214.47034013605443	38	127
214.3542403628118	214.56321995464853	68	127
214.3542403628118	214.56321995464853	47	127
214.47034013605443	214.67931972789117	81	127
214.47034013605443	214.67931972789117	37	127
214.5748299319728	214.77219954648527	69	127
214.5748299319728	214.77219954648527	49	127
214.67931972789117	214.86507936507937	81	127
214.67931972789117	214.86507936507937	37	127
214.77219954648527	214.96956916099774	69	127
214.77219954648527	214.96956916099774	49	127
214.87668934240364	215.0740589569161	81	127
214.87668934240364	215.0740589569161	37	127
214.96956916099774	215.19015873015874	69	127
214.96956916099774	215.19015873015874	49	127
215.0740589569161	215.28303854875284	79	127
215.0740589569161	215.28303854875284	34	127
215.19015873015874	215.37591836734694	67	127
215.19015873015874	215.37591836734694	46	127
215.28303854875284	215.67777777777778	79	127
215.28303854875284	215.67777777777778	34	127
215.58489795918368	215.77065759637188	67	127
215.58489795918368	215.77065759637188	46	127
215.67777777777778	215.86353741496598	79	127
215.67777777777778	215.86353741496598	34	127
215.77065759637188	215.86353741496598	67	127
215.77065759637188	215.86353741496598	46	127
215.87514739229024	216.304716553288	35	127
215.87514739229024	216.304716553288	47	127
216.08412698412698	216.304716553288	66	127
216.18861678004535	216.46725623582768	71	127
216.304716553288	216.5833560090703	74	127
216.47886621315192	216.67623582766439	78	127
216.5833560090703	216.9897052154195	50	127
216.5833560090703	216.9897052154195	52	127
216.5833560090703	216.9897052154195	44	127
216.78072562358275	216.9897052154195	73	127
216.87360544217688	217.1406349206349	74	127
217.00131519274376	217.25673469387755	76	127
217.1406349206349	217.25673469387755	74	127
217.25673469387755	217.66308390022675	54	127
217.25673469387755	217.66308390022675	50	127
217.25673469387755	217.66308390022675	45	127
217.44249433106575	217.66308390022675	73	127
217.5469841269841	217.76757369614512	74	127
217.66308390022675	217.91850340136054	76	127
217.76757369614512	218.01138321995464	74	127
217.9301133786848	218.35968253968255	45	127
217.9301133786848	218.35968253968255	49	127
217.9301133786848	218.35968253968255	55	127
218.115873015873	218.35968253968255	68	127
218.23197278911564	218.47578231292516	69	127
218.35968253968255	218.62671201814058	71	127
218.47578231292516	218.62671201814058	69	127
218.62671201814058	218.88213151927437	69	127
218.62671201814058	219.54390022675736	50	127
218.62671201814058	221.59886621315192	38	127
218.7544217687075	219.04467120181405	62	127
219.54390022675736	220.26371882086167	48	127
219.77609977324263	220.01990929705215	74	127
219.880589569161	220.12439909297052	78	127
220.03151927437642	220.26371882086167	81	127
220.26371882086167	220.70489795918368	81	127
220.26371882086167	220.93709750566893	47	127
220.71650793650792	220.93709750566893	79	127
220.9487074829932	221.59886621315192	49	127
221.18090702947845	221.38988662131518	69	127
221.28539682539682	221.48276643990928	76	127
221.38988662131518	221.59886621315192	79	127
221.59886621315192	222.0168253968254	79	127
221.59886621315192	222.353514739229	50	127
221.59886621315192	224.40848072562358	38	127
222.0168253968254	222.353514739229	78	127
222.353514739229	222.94562358276644	42	127
222.9572335600907	223.44485260770975	43	127
223.44485260770975	223.66544217687076	45	127
223.66544217687076	224.1878911564626	47	127
224.1878911564626	224.40848072562358	49	127
224.40848072562358	225.10507936507938	50	127
224.40848072562358	227.24131519274377	38	127
225.11668934240362	225.89455782312925	48	127
225.39532879818594	225.6275283446712	69	127
225.5346485260771	225.7784580498866	74	127
225.6275283446712	225.89455782312925	78	127
225.7784580498866	225.89455782312925	81	127
225.90616780045352	226.3821768707483	81	127
225.90616780045352	226.57954648526078	47	127
226.3821768707483	226.57954648526078	79	127
226.57954648526078	227.24131519274377	49	127
226.78852607709752	226.99750566893425	69	127
226.89301587301588	227.12521541950113	73	127
227.0091156462585	227.24131519274377	76	127
227.12521541950113	227.24131519274377	79	127
227.24131519274377	227.7637641723356	79	127
227.24131519274377	227.9843537414966	50	127
227.24131519274377	230.00448979591837	38	127
227.7637641723356	227.9843537414966	78	127
227.99596371882086	228.66934240362812	42	127
228.66934240362812	229.07569160997733	43	127
229.0873015873016	229.28467120181406	45	127
229.28467120181406	229.7722902494331	47	127
229.7722902494331	230.00448979591837	49	127
230.01609977324264	230.7475283446712	50	127
230.01609977324264	232.81410430839003	38	127
230.42244897959185	231.17709750566894	57	127
230.7475283446712	231.45573696145124	42	127
231.1887074829932	231.45573696145124	58	127
231.45573696145124	231.88530612244898	59	127
231.45573696145124	231.88530612244898	43	127
231.88530612244898	232.09428571428572	61	127
231.88530612244898	232.09428571428572	45	127
232.10589569161	232.5702947845805	62	127
232.10589569161	232.5702947845805	47	127
232.5702947845805	232.81410430839003	64	127
232.5702947845805	232.81410430839003	49	127
232.81410430839003	233.02308390022677	66	127
232.81410430839003	233.02308390022677	38	127
232.81410430839003	233.02308390022677	50	127
233.2901133786848	233.74290249433108	54	127
233.2901133786848	233.74290249433108	78	127
233.74290249433108	233.9518820861678	76	127
233.74290249433108	233.9518820861678	52	127
233.9518820861678	234.1724716553288	74	127
233.9518820861678	234.1724716553288	50	127
234.18408163265306	234.38145124716553	73	127
234.18408163265306	234.38145124716553	49	127
234.38145124716553	234.59043083900227	74	127
234.38145124716553	234.59043083900227	50	127
234.59043083900227	234.78780045351473	71	127
234.59043083900227	234.78780045351473	47	127
234.799410430839	234.99678004535147	69	127
234.799410430839	234.99678004535147	45	127
235.00839002267574	235.22897959183675	71	127
235.00839002267574	235.22897959183675	47	127
235.22897959183675	235.44956916099773	68	127
235.22897959183675	235.44956916099773	44	127
235.44956916099773	235.67015873015873	45	127
235.44956916099773	235.8675283446712	69	127
235.681768707483	235.8675283446712	62	127
235.681768707483	235.8675283446712	57	127
235.681768707483	235.8675283446712	66	127
235.87913832199547	236.09972789115648	57	127
235.87913832199547	236.09972789115648	62	127
235.87913832199547	236.09972789115648	66	127
236.09972789115648	236.29709750566894	57	127
236.09972789115648	236.29709750566894	62	127
236.09972789115648	236.29709750566894	66	127
236.29709750566894	236.50607709750568	57	127
236.29709750566894	236.50607709750568	62	127
236.29709750566894	236.50607709750568	66	127
236.50607709750568	236.73827664399093	57	127
236.50607709750568	236.73827664399093	62	127
236.50607709750568	236.73827664399093	66	127
236.7498866213152	236.8427664399093	69	127
236.7498866213152	236.99369614512472	57	127
236.7498866213152	236.99369614512472	62	127
236.7498866213152	236.99369614512472	67	127
236.8427664399093	236.99369614512472	71	127
236.99369614512472	237.08657596371881	73	127
236.99369614512472	237.19106575963718	67	127
236.99369614512472	237.19106575963718	62	127
236.99369614512472	237.19106575963718	57	127
237.09818594104308	237.19106575963718	74	127
237.19106575963718	237.28394557823128	76	127
237.19106575963718	237.38843537414965	67	127
237.19106575963718	237.38843537414965	62	127
237.19106575963718	237.38843537414965	57	127
237.29555555555555	237.38843537414965	78	127
237.38843537414965	237.49292517006802	79	127
237.38843537414965	237.62063492063493	57	127
237.38843537414965	237.62063492063493	61	127
237.38843537414965	237.62063492063493	67	127
237.49292517006802	237.62063492063493	78	127
237.6322448979592	237.73673469387754	79	127
237.6322448979592	237.8412244897959	57	127
237.6322448979592	237.8412244897959	61	127
237.6322448979592	237.8412244897959	67	127
237.73673469387754	237.8412244897959	81	127
237.85283446712018	237.9689342403628	83	127
237.85283446712018	238.07342403628118	45	127
237.85283446712018	238.07342403628118	57	127
237.9689342403628	238.07342403628118	85	127
238.07342403628118	238.3172335600907	50	127
238.07342403628118	238.5378231292517	86	127
238.2243537414966	238.43333333333334	62	127
238.3172335600907	238.5378231292517	61	127
238.43333333333334	238.64231292517007	62	127
238.5378231292517	238.73519274376417	60	127
238.64231292517007	238.8512925170068	62	127
238.7584126984127	238.95578231292518	59	127
238.8512925170068	239.06027210884355	62	127
238.95578231292518	239.16476190476192	60	127
239.0718820861678	239.25764172335602	62	127
239.16476190476192	239.39696145124717	59	127
239.2692517006803	239.39696145124717	62	127
239.39696145124717	239.61755102040817	57	127
239.5130612244898	239.74526077097505	62	127
239.6291609977324	239.83814058956915	59	127
239.74526077097505	239.9542403628118	62	127
239.84975056689342	240.05873015873016	57	127
239.9542403628118	240.15160997732426	62	127
240.05873015873016	240.24448979591835	55	127
240.16321995464853	240.360589569161	62	127
240.24448979591835	240.46507936507936	57	127
240.360589569161	240.581179138322	62	127
240.47668934240363	240.68566893424037	55	127
240.581179138322	240.68566893424037	62	127
240.70888888888888	240.92947845804989	54	127
240.82498866213152	241.04557823129252	62	127
240.92947845804989	241.16167800453513	55	127
241.06879818594103	241.25455782312926	62	127
241.16167800453513	241.34743764172336	54	127
241.2661678004535	241.45192743764173	62	127
241.34743764172336	241.4867573696145	85	127
241.34743764172336	241.54480725623583	52	127
241.41709750566892	241.54480725623583	86	127
241.45192743764173	241.6492970521542	62	127
241.4867573696145	241.61446712018142	85	127
241.5564172335601	241.68412698412698	86	127
241.5564172335601	241.76539682539683	50	127
241.61446712018142	241.76539682539683	85	127
241.6492970521542	241.8698866213152	62	127
241.68412698412698	241.8350566893424	86	127
241.76539682539683	241.90471655328798	85	127
241.76539682539683	241.97437641723357	52	127
241.84666666666666	241.97437641723357	83	127
241.88149659863944	241.97437641723357	62	127
241.90471655328798	241.97437641723357	85	127
241.97437641723357	242.19496598639455	50	127
241.97437641723357	242.42716553287983	86	127
242.09047619047618	242.29945578231292	62	127
242.19496598639455	242.42716553287983	52	127
242.29945578231292	242.5316553287982	62	127
242.4387755102041	242.63614512471656	50	127
242.5316553287982	242.76385487528344	62	127
242.65936507936507	242.79868480725622	85	127
242.65936507936507	242.8683446712018	52	127
242.74063492063493	242.8683446712018	86	127
242.76385487528344	242.9612244897959	62	127
242.79868480725622	242.92639455782313	85	127
242.8683446712018	243.00766439909296	86	127
242.8683446712018	243.14698412698414	50	127
242.9380045351474	243.14698412698414	85	127
242.98444444444445	243.2514739229025	62	127
243.01927437641723	243.2166439909297	86	127
243.14698412698414	243.27469387755102	85	127
243.14698412698414	243.36757369614512	52	127
243.2166439909297	243.36757369614512	83	127
243.2514739229025	243.36757369614512	62	127
243.28630385487529	243.36757369614512	85	127
243.36757369614512	243.5997732426304	86	127
243.36757369614512	243.5997732426304	38	127
243.5068934240363	243.70426303854876	50	127
243.61138321995466	243.80875283446713	74	127
243.61138321995466	243.80875283446713	62	127
243.61138321995466	243.80875283446713	49	127
243.70426303854876	243.92485260770974	50	127
243.80875283446713	244.0293424036281	74	127
243.80875283446713	244.0293424036281	62	127
243.80875283446713	244.0293424036281	48	127
243.936462585034	244.14544217687074	50	127
244.0293424036281	244.2499319727891	74	127
244.0293424036281	244.2499319727891	62	127
244.0293424036281	244.2499319727891	47	127
244.15705215419501	244.35442176870748	50	127
244.2499319727891	244.44730158730158	76	127
244.2499319727891	244.44730158730158	64	127
244.2499319727891	244.44730158730158	48	127
244.35442176870748	244.55179138321995	50	127
244.45891156462585	244.65628117913832	74	127
244.45891156462585	244.65628117913832	62	127
244.45891156462585	244.65628117913832	47	127
244.55179138321995	244.65628117913832	50	127
244.6678911564626	244.92331065759637	72	127
244.6678911564626	244.92331065759637	60	127
244.6678911564626	244.92331065759637	45	127
244.7607709750567	245.01619047619047	50	127
244.92331065759637	245.10907029478457	74	127
244.92331065759637	245.10907029478457	62	127
244.92331065759637	245.10907029478457	47	127
245.02780045351474	245.21356009070294	50	127
245.10907029478457	245.34126984126985	72	127
245.10907029478457	245.34126984126985	60	127
245.10907029478457	245.34126984126985	45	127
245.21356009070294	245.480589569161	50	127
245.3877097505669	245.6082993197279	71	127
245.3877097505669	245.6082993197279	59	127
245.3877097505669	245.6082993197279	43	127
245.480589569161	245.71278911564625	50	127
245.63151927437642	245.82888888888888	72	127
245.63151927437642	245.82888888888888	60	127
245.63151927437642	245.82888888888888	45	127
245.71278911564625	245.92176870748298	50	127
245.82888888888888	246.03786848072562	71	127
245.82888888888888	246.03786848072562	59	127
245.82888888888888	246.03786848072562	43	127
245.93337868480725	246.03786848072562	50	127
246.03786848072562	246.2352380952381	69	127
246.03786848072562	246.2352380952381	57	127
246.03786848072562	246.2352380952381	42	127
246.142358276644	246.35133786848073	50	127
246.2352380952381	246.44421768707483	71	127
246.2352380952381	246.44421768707483	59	127
246.2352380952381	246.44421768707483	43	127
246.35133786848073	246.57192743764173	50	127
246.4558276643991	246.68802721088434	69	127
246.4558276643991	246.68802721088434	57	127
246.4558276643991	246.68802721088434	42	127
246.57192743764173	246.7925170068027	50	127
246.68802721088434	246.90861678004535	67	127
246.68802721088434	246.90861678004535	55	127
246.68802721088434	246.90861678004535	40	127
246.7925170068027	247.01310657596372	50	127
246.90861678004535	247.1175963718821	66	127
246.90861678004535	247.1175963718821	54	127
246.90861678004535	247.1175963718821	38	127
247.024716553288	247.22208616780046	50	127
247.1175963718821	247.31496598639455	67	127
247.1175963718821	247.31496598639455	55	127
247.1175963718821	247.31496598639455	40	127
247.22208616780046	247.31496598639455	50	127
247.32657596371882	247.5239455782313	66	127
247.32657596371882	247.5239455782313	54	127
247.32657596371882	247.5239455782313	38	127
247.4310657596372	247.64004535147393	50	127
247.53555555555556	247.7445351473923	67	127
247.53555555555556	247.7445351473923	55	127
247.53555555555556	247.7445351473923	40	127
247.64004535147393	247.8374149659864	50	127
247.7445351473923	247.95351473922904	66	127
247.7445351473923	247.95351473922904	54	127
247.7445351473923	247.95351473922904	38	127
247.84902494331067	248.0580045351474	50	127
247.95351473922904	248.17410430839	67	127
247.95351473922904	248.17410430839	55	127
247.95351473922904	248.17410430839	40	127
248.06961451247165	248.27859410430838	50	127
248.17410430839	248.47596371882085	66	127
248.17410430839	248.47596371882085	54	127
248.17410430839	248.47596371882085	38	127
248.27859410430838	248.58045351473922	50	127
248.48757369614512	248.6849433106576	67	127
248.48757369614512	248.6849433106576	55	127
248.48757369614512	248.6849433106576	40	127
248.58045351473922	248.6849433106576	50	127
248.6849433106576	248.8707029478458	38	127
248.6849433106576	249.07968253968255	66	127
248.6849433106576	249.07968253968255	54	127
248.77782312925171	248.97519274376418	50	127
248.8707029478458	249.07968253968255	39	127
248.98680272108842	249.2190022675737	50	127
249.07968253968255	249.3118820861678	38	127
249.2190022675737	249.41637188208617	50	127
249.32349206349207	249.45120181405895	85	127
249.32349206349207	249.50925170068027	39	127
249.3815419501134	249.50925170068027	86	127
249.41637188208617	249.63696145124717	50	127
249.45120181405895	249.60213151927437	85	127
249.54408163265308	249.67179138321995	86	127
249.54408163265308	249.74145124716554	38	127
249.61374149659864	249.74145124716554	85	127
249.63696145124717	249.83433106575964	50	127
249.67179138321995	249.79950113378686	86	127
249.74145124716554	249.86916099773242	85	127
249.74145124716554	249.98526077097506	39	127
249.8111111111111	249.98526077097506	83	127
249.8459410430839	250.08975056689343	50	127
249.9039909297052	249.98526077097506	85	127
249.98526077097506	250.18263038548753	38	127
249.98526077097506	250.38	86	127
250.08975056689343	250.2871201814059	50	127
250.1942403628118	250.38	39	127
250.2871201814059	250.49609977324263	50	127
250.39160997732426	250.63541950113378	38	127
250.49609977324263	250.72829931972788	50	127
250.63541950113378	250.7631292517007	85	127
250.63541950113378	250.84439909297052	39	127
250.70507936507937	250.84439909297052	86	127
250.73990929705215	250.9488888888889	50	127
250.7631292517007	250.92566893424035	85	127
250.84439909297052	250.98371882086167	86	127
250.84439909297052	251.06498866213153	38	127
250.92566893424035	251.06498866213153	85	127
250.96049886621316	251.18108843537414	50	127
250.99532879818594	251.14625850340136	86	127
251.06498866213153	251.21591836734694	85	127
251.06498866213153	251.2855782312925	39	127
251.14625850340136	251.2855782312925	83	127
251.18108843537414	251.39006802721087	50	127
251.21591836734694	251.2855782312925	85	127
251.29718820861677	251.5061678004535	86	127
251.29718820861677	251.5061678004535	38	127
251.39006802721087	251.61065759637188	62	127
251.39006802721087	251.61065759637188	50	127
251.5061678004535	251.71514739229025	61	127
251.5061678004535	251.71514739229025	49	127
251.61065759637188	251.84285714285716	62	127
251.61065759637188	251.84285714285716	50	127
251.71514739229025	251.97056689342404	61	127
251.71514739229025	251.97056689342404	49	127
251.86607709750567	252.09827664399094	62	127
251.86607709750567	252.09827664399094	50	127
251.97056689342404	252.19115646258504	60	127
251.97056689342404	252.19115646258504	48	127
252.09827664399094	252.28403628117914	62	127
252.09827664399094	252.28403628117914	50	127
252.2027664399093	252.37691609977324	60	127
252.2027664399093	252.37691609977324	48	127
252.28403628117914	252.49301587301588	62	127
252.28403628117914	252.49301587301588	50	127
252.3885260770975	252.63233560090703	60	127
252.3885260770975	252.63233560090703	48	127
252.49301587301588	252.71360544217688	62	127
252.49301587301588	252.71360544217688	50	127
252.63233560090703	252.84131519274376	59	127
252.63233560090703	252.84131519274376	47	127
252.72521541950113	252.9225850340136	62	127
252.72521541950113	252.9225850340136	50	127
252.84131519274376	253.00385487528345	59	127
252.84131519274376	253.00385487528345	47	127
252.93419501133786	253.10834467120182	62	127
252.93419501133786	253.10834467120182	50	127
253.00385487528345	253.18961451247165	59	127
253.00385487528345	253.18961451247165	47	127
253.10834467120182	253.29410430839002	62	127
253.10834467120182	253.29410430839002	50	127
253.20122448979592	253.3985941043084	57	127
253.20122448979592	253.3985941043084	45	127
253.29410430839002	253.4914739229025	62	127
253.29410430839002	253.4914739229025	50	127
253.3985941043084	253.6191836734694	56	127
253.3985941043084	253.6191836734694	44	127
253.5263038548753	253.72367346938776	62	127
253.5263038548753	253.72367346938776	50	127
253.6191836734694	253.82816326530613	57	127
253.6191836734694	253.82816326530613	45	127
253.73528344671203	253.82816326530613	62	127
253.73528344671203	253.82816326530613	50	127
253.82816326530613	254.03714285714287	44	127
253.82816326530613	254.23451247165534	56	127
253.9326530612245	254.14163265306124	50	127
254.0487528344671	254.23451247165534	45	127
254.14163265306124	254.36222222222221	50	127
254.2461224489796	254.46671201814058	44	127
254.36222222222221	254.58281179138322	50	127
254.46671201814058	254.617641723356	77	127
254.46671201814058	254.6524716553288	45	127
254.55959183673468	254.6524716553288	79	127
254.5944217687075	254.75696145124718	50	127
254.617641723356	254.72213151927437	77	127
254.6524716553288	254.79179138321996	79	127
254.6524716553288	254.86145124716552	44	127
254.72213151927437	254.86145124716552	77	127
254.75696145124718	254.95433106575965	50	127
254.80340136054423	254.91950113378684	79	127
254.86145124716552	255.03560090702948	77	127
254.86145124716552	255.0936507936508	45	127
254.91950113378684	255.0936507936508	76	127
254.95433106575965	255.22136054421767	50	127
255.03560090702948	255.0936507936508	77	127
255.1168707482993	255.3374603174603	44	127
255.1168707482993	255.53482993197278	76	127
255.22136054421767	255.4303401360544	50	127
255.3374603174603	255.53482993197278	45	127
255.44195011337868	255.6277097505669	50	127
255.53482993197278	255.7554195011338	44	127
255.63931972789115	255.91795918367347	50	127
255.7554195011338	255.95278911564625	77	127
255.7554195011338	256.02244897959184	45	127
255.8831292517007	256.02244897959184	79	127
255.91795918367347	256.1269387755102	50	127
255.95278911564625	256.0921088435374	77	127
256.0340589569161	256.161768707483	79	127
256.0340589569161	256.24303854875285	44	127
256.0921088435374	256.24303854875285	77	127
256.1269387755102	256.39396825396824	50	127
256.161768707483	256.3475283446712	79	127
256.2546485260771	256.42879818594105	77	127
256.2546485260771	256.52167800453515	45	127
256.3591383219955	256.52167800453515	76	127
256.39396825396824	256.52167800453515	50	127
256.42879818594105	256.52167800453515	77	127
256.52167800453515	256.7306575963719	76	127
256.52167800453515	256.7306575963719	44	127
256.6261678004535	256.83514739229025	64	127
256.6261678004535	256.83514739229025	52	127
256.7306575963719	256.9396371882086	63	127
256.7306575963719	256.9396371882086	51	127
256.83514739229025	257.06734693877553	64	127
256.83514739229025	257.06734693877553	52	127
256.9512471655329	257.18344671201817	63	127
256.9512471655329	257.18344671201817	51	127
257.06734693877553	257.2995238095238	64	127
257.06734693877553	257.2995238095238	52	127
257.20666666666665	257.4156462585034	62	127
257.20666666666665	257.4156462585034	50	127
257.2995238095238	257.4968934240363	64	127
257.2995238095238	257.4968934240363	52	127
257.4156462585034	257.60138321995464	62	127
257.4156462585034	257.60138321995464	50	127
257.5085260770975	257.705873015873	64	127
257.5085260770975	257.705873015873	52	127
257.60138321995464	257.7987755102041	62	127
257.60138321995464	257.7987755102041	50	127
257.7175056689342	257.91485260770975	64	127
257.7175056689342	257.91485260770975	52	127
257.7987755102041	258.00773242630385	60	127
257.7987755102041	258.00773242630385	48	127
257.91485260770975	258.1354648526077	64	127
257.91485260770975	258.1354648526077	52	127
258.01936507936506	258.2283446712018	60	127
258.01936507936506	258.2283446712018	48	127
258.1354648526077	258.32120181405895	64	127
258.1354648526077	258.32120181405895	52	127
258.2283446712018	258.4489342403628	60	127
258.2283446712018	258.4489342403628	48	127
258.32120181405895	258.56503401360544	64	127
258.32120181405895	258.56503401360544	52	127
258.4489342403628	258.6811337868481	59	127
258.4489342403628	258.6811337868481	47	127
258.5766439909297	258.7972335600907	64	127
258.5766439909297	258.7972335600907	52	127
258.6811337868481	258.8901133786848	58	127
258.6811337868481	258.8901133786848	46	127
258.7972335600907	258.9829931972789	64	127
258.7972335600907	258.9829931972789	52	127
258.9017233560091	259.075873015873	59	127
258.9017233560091	259.075873015873	47	127
258.9829931972789	259.075873015873	64	127
258.9829931972789	259.075873015873	52	127
259.0874829931973	259.28485260770975	46	127
259.0874829931973	259.4938321995465	58	127
259.1803628117914	259.3893424036281	52	127
259.28485260770975	259.4938321995465	47	127
259.4009523809524	259.5867120181406	52	127
259.4938321995465	259.69120181405896	46	127
259.59832199546486	259.81891156462586	52	127
259.69120181405896	259.8537188208617	79	127
259.69120181405896	259.91179138321996	47	127
259.7608616780045	259.91179138321996	81	127
259.81891156462586	259.9930612244898	52	127
259.8537188208617	259.95820861678004	79	127
259.91179138321996	260.0278911564626	81	127
259.91179138321996	260.10916099773243	46	127
259.95820861678004	260.10916099773243	79	127
259.9930612244898	260.20204081632653	52	127
260.0278911564626	260.1672108843537	81	127
260.10916099773243	260.23687074829934	79	127
260.10916099773243	260.3065306122449	47	127
260.178820861678	260.3065306122449	78	127
260.2136507936508	260.399410430839	52	127
260.23687074829934	260.3065306122449	79	127
260.3065306122449	260.51551020408164	46	127
260.3065306122449	260.7128798185941	78	127
260.41102040816327	260.62	52	127
260.51551020408164	260.7128798185941	47	127
260.62	260.8173696145125	52	127
260.7244897959184	260.91024943310657	46	127
260.8173696145125	261.01473922902494	52	127
260.92185941043084	261.04956916099775	79	127
260.92185941043084	261.1308390022676	47	127
260.9915192743764	261.1308390022676	81	127
261.01473922902494	261.2237188208617	52	127
261.04956916099775	261.18888888888887	79	127
261.1308390022676	261.2585487528345	81	127
261.1308390022676	261.32820861678005	46	127
261.20049886621314	261.32820861678005	79	127
261.23532879818595	261.4791383219955	52	127
261.27015873015876	261.42108843537414	81	127
261.32820861678005	261.502358276644	79	127
261.32820861678005	261.58360544217686	47	127
261.42108843537414	261.58360544217686	78	127
261.4791383219955	261.58360544217686	52	127
261.5255782312925	261.58360544217686	79	127
261.59521541950113	261.92031746031745	78	127
261.59521541950113	261.92031746031745	46	127
261.69972789115644	262.0248072562358	66	127
261.69972789115644	262.0248072562358	54	127
261.9319274376417	262.1292970521542	65	127
261.9319274376417	262.1292970521542	53	127
262.0248072562358	262.210566893424	66	127
262.0248072562358	262.210566893424	54	127
262.1292970521542	262.30342403628117	65	127
262.1292970521542	262.30342403628117	53	127
262.2221768707483	262.37310657596373	66	127
262.2221768707483	262.37310657596373	54	127
262.30342403628117	262.4775963718821	64	127
262.30342403628117	262.4775963718821	52	127
262.384716553288	262.58208616780047	66	127
262.384716553288	262.58208616780047	54	127
262.4775963718821	262.6633560090703	64	127
262.4775963718821	262.6633560090703	52	127
262.58208616780047	262.76784580498867	66	127
262.58208616780047	262.76784580498867	54	127
262.67496598639457	262.9187528344671	64	127
262.67496598639457	262.9187528344671	52	127
262.76784580498867	263.04648526077096	66	127
262.76784580498867	263.04648526077096	54	127
262.9187528344671	263.1625850340136	62	127
262.9187528344671	263.1625850340136	50	127
263.04648526077096	263.26707482993197	66	127
263.04648526077096	263.26707482993197	54	127
263.1625850340136	263.33673469387753	62	127
263.1625850340136	263.33673469387753	50	127
263.27868480725624	263.4412244897959	66	127
263.27868480725624	263.4412244897959	54	127
263.33673469387753	263.53408163265306	62	127
263.33673469387753	263.53408163265306	50	127
263.4412244897959	263.6385714285714	66	127
263.4412244897959	263.6385714285714	54	127
263.54571428571427	263.7314512471655	61	127
263.54571428571427	263.7314512471655	49	127
263.6385714285714	263.8359410430839	66	127
263.6385714285714	263.8359410430839	54	127
263.7430612244898	263.94043083900226	61	127
263.7430612244898	263.94043083900226	49	127
263.8359410430839	264.03333333333336	66	127
263.8359410430839	264.03333333333336	54	127
263.94043083900226	264.13782312925173	61	127
263.94043083900226	264.13782312925173	49	127
264.04492063492063	264.13782312925173	66	127
264.04492063492063	264.13782312925173	54	127
264.13782312925173	264.37002267573695	48	127
264.13782312925173	264.59061224489795	60	127
264.27714285714285	264.4861224489796	54	127
264.37002267573695	264.59061224489795	49	127
264.4861224489796	264.7067120181406	54	127
264.6022222222222	264.8344217687075	48	127
264.7067120181406	264.9273015873016	54	127
264.8344217687075	264.9621088435374	81	127
264.8344217687075	265.03179138321997	49	127
264.90408163265306	265.03179138321997	83	127
264.93891156462587	265.12467120181407	54	127
264.9621088435374	265.1130612244898	81	127
265.03179138321997	265.1595011337869	83	127
265.03179138321997	265.2059410430839	48	127
265.1130612244898	265.2059410430839	81	127
265.13628117913834	265.31043083900227	54	127
265.1595011337869	265.2755782312925	83	127
265.2059410430839	265.3336507936508	81	127
265.2059410430839	265.40331065759636	49	127
265.2755782312925	265.40331065759636	80	127
265.31043083900227	265.50780045351473	54	127
265.3452607709751	265.40331065759636	81	127
265.41492063492063	265.6471201814059	48	127
265.41492063492063	265.8677097505669	80	127
265.50780045351473	265.76321995464855	54	127
265.6587301587302	265.8677097505669	49	127
265.76321995464855	265.960589569161	54	127
265.8677097505669	266.0650793650794	48	127
265.9721995464853	266.1579591836735	54	127
266.0650793650794	266.26244897959185	49	127
266.0650793650794	266.181179138322	81	127
266.1231292517007	266.26244897959185	83	127
266.1579591836735	266.35532879818595	54	127
266.1927664399093	266.32049886621314	81	127
266.26244897959185	266.401768707483	83	127
266.26244897959185	266.4598185941043	48	127
266.32049886621314	266.4598185941043	81	127
266.35532879818595	266.57591836734696	54	127
266.401768707483	266.54108843537415	83	127
266.4714285714286	266.6804081632653	49	127
266.4714285714286	266.6107482993197	81	127
266.54108843537415	266.6804081632653	80	127
266.57591836734696	266.6804081632653	54	127
266.6107482993197	266.6804081632653	81	127
266.6804081632653	267.07514739229026	47	127
266.6804081632653	266.8777777777778	80	127
266.8777777777778	267.07514739229026	66	127
266.8777777777778	267.07514739229026	56	127
266.8777777777778	267.07514739229026	60	127
266.8777777777778	267.07514739229026	63	127
267.07514739229026	267.27251700680273	63	127
267.07514739229026	267.27251700680273	66	127
267.07514739229026	267.27251700680273	56	127
267.07514739229026	267.27251700680273	60	127
267.284126984127	267.48149659863947	60	127
267.284126984127	267.48149659863947	63	127
267.284126984127	267.48149659863947	66	127
267.284126984127	267.48149659863947	56	127
267.49310657596374	267.8181859410431	60	127
267.49310657596374	267.8181859410431	63	127
267.49310657596374	267.8181859410431	56	127
267.49310657596374	267.8181859410431	66	127
267.8181859410431	268.03877551020406	66	127
267.8181859410431	268.03877551020406	60	127
267.8181859410431	268.03877551020406	56	127
267.8181859410431	268.03877551020406	63	127
268.03877551020406	268.3290249433107	63	127
268.03877551020406	268.3290249433107	66	127
268.03877551020406	268.3290249433107	60	127
268.03877551020406	268.3290249433107	56	127
268.34061224489795	268.54961451247163	66	127
268.34061224489795	268.54961451247163	60	127
268.34061224489795	268.54961451247163	56	127
268.34061224489795	268.54961451247163	63	127
268.5612244897959	268.8863038548753	56	127
268.5612244897959	268.8863038548753	63	127
268.5612244897959	268.8863038548753	66	127
268.5612244897959	268.8863038548753	60	127
268.8863038548753	269.1301133786848	60	127
268.8863038548753	269.1301133786848	56	127
268.8863038548753	269.1301133786848	63	127
268.8863038548753	269.1301133786848	66	127
269.1301133786848	269.315873015873	66	127
269.1301133786848	269.315873015873	56	127
269.1301133786848	269.315873015873	60	127
269.1301133786848	269.315873015873	63	127
269.2229931972789	269.315873015873	32	127
269.315873015873	269.4203628117914	34	127
269.315873015873	269.5132426303855	63	127
269.315873015873	269.5132426303855	56	127
269.315873015873	269.5132426303855	60	127
269.315873015873	269.5132426303855	66	127
269.4203628117914	269.5132426303855	36	127
269.52485260770976	269.74544217687077	61	127
269.52485260770976	269.74544217687077	56	127
269.52485260770976	269.62934240362813	37	127
269.52485260770976	269.74544217687077	64	127
269.62934240362813	269.74544217687077	36	127
269.74544217687077	269.9660317460318	64	127
269.74544217687077	269.9660317460318	61	127
269.74544217687077	269.84993197278914	34	127
269.74544217687077	269.9660317460318	56	127
269.8615419501134	269.9660317460318	32	127
269.9660317460318	270.07049886621314	34	127
269.9660317460318	270.1866213151927	61	127
269.9660317460318	270.1866213151927	56	127
269.9660317460318	270.1866213151927	64	127
270.08213151927436	270.1866213151927	36	127
270.1866213151927	270.39560090702946	56	127
270.1866213151927	270.39560090702946	64	127
270.1866213151927	270.30272108843536	37	127
270.1866213151927	270.39560090702946	61	127
270.30272108843536	270.39560090702946	36	127
270.40721088435373	270.5813378684807	56	127
270.40721088435373	270.5813378684807	61	127
270.40721088435373	270.50009070294783	34	127
270.40721088435373	270.5813378684807	64	127
270.50009070294783	270.5813378684807	32	127
270.592947845805	270.80195011337867	64	127
270.592947845805	270.80195011337867	61	127
270.592947845805	270.6858276643991	34	127
270.592947845805	270.80195011337867	56	127
270.6858276643991	270.80195011337867	36	127
270.80195011337867	270.9877097505669	37	127
270.80195011337867	270.9877097505669	64	127
270.80195011337867	270.9877097505669	56	127
270.80195011337867	270.9877097505669	61	127
270.9877097505669	271.1850793650794	61	127
270.9877097505669	271.1850793650794	40	127
270.9877097505669	271.1850793650794	64	127
270.9877097505669	271.1850793650794	56	127
271.1850793650794	271.38244897959186	44	127
271.1850793650794	271.38244897959186	64	127
271.1850793650794	271.38244897959186	56	127
271.1850793650794	271.38244897959186	61	127
271.3940589569161	271.66108843537415	49	127
271.3940589569161	271.66108843537415	64	127
271.3940589569161	271.66108843537415	61	127
271.3940589569161	271.66108843537415	56	127
271.66108843537415	271.8584580498866	52	127
271.66108843537415	271.8584580498866	56	127
271.66108843537415	271.8584580498866	64	127
271.66108843537415	271.8584580498866	61	127
271.8584580498866	272.06743764172336	61	127
271.8584580498866	272.06743764172336	64	127
271.8584580498866	272.06743764172336	56	127
272.06743764172336	272.56666666666666	61	127
272.06743764172336	272.3692970521542	64	127
272.38090702947846	272.56666666666666	64	127
272.38090702947846	272.56666666666666	68	127
272.57827664399093	272.76403628117913	68	127
272.57827664399093	272.76403628117913	64	127
272.76403628117913	272.94979591836733	67	127
272.76403628117913	272.94979591836733	64	127
272.94979591836733	273.1355555555556	67	127
272.94979591836733	273.1355555555556	64	127
273.14714285714285	273.3793650793651	64	127
273.14714285714285	273.3793650793651	67	127
273.39097505668934	273.61156462585035	66	127
273.39097505668934	273.61156462585035	64	127
273.61156462585035	273.8205442176871	64	127
273.61156462585035	273.8205442176871	66	127
273.8205442176871	274.15723356009073	66	127
273.8205442176871	274.15723356009073	64	127
274.15723356009073	274.3778231292517	64	127
274.15723356009073	274.3778231292517	66	127
274.2849433106576	274.3778231292517	43	127
274.4010430839002	274.5984126984127	64	127
274.4010430839002	274.5984126984127	66	127
274.4010430839002	274.4939229024943	42	127
274.4939229024943	274.5984126984127	40	127
274.5984126984127	274.6912925170068	38	127
274.5984126984127	274.8073922902494	66	127
274.5984126984127	274.8073922902494	64	127
274.6912925170068	274.8073922902494	37	127
274.8073922902494	275.0047619047619	62	127
274.8073922902494	274.9002721088435	35	127
274.8073922902494	275.0047619047619	66	127
274.9118820861678	275.0047619047619	34	127
275.0047619047619	275.21374149659863	62	127
275.0047619047619	275.21374149659863	66	127
275.0047619047619	275.12086167800453	32	127
275.12086167800453	275.21374149659863	30	127
275.2253514739229	275.42272108843537	62	127
275.2253514739229	275.32984126984127	32	127
275.2253514739229	275.42272108843537	66	127
275.32984126984127	275.42272108843537	34	127
275.43433106575964	275.6317006802721	66	127
275.43433106575964	275.51560090702947	35	127
275.43433106575964	275.6317006802721	62	127
275.51560090702947	275.6317006802721	34	127
275.6317006802721	275.87551020408165	62	127
275.6317006802721	275.87551020408165	66	127
275.6317006802721	275.7710204081633	32	127
275.78263038548755	275.87551020408165	30	127
275.87551020408165	276.0728798185941	62	127
275.87551020408165	276.0728798185941	66	127
275.87551020408165	275.96839002267575	32	127
275.96839002267575	276.0728798185941	34	127
276.0728798185941	276.2586394557823	35	127
276.0728798185941	276.2586394557823	62	127
276.0728798185941	276.2586394557823	66	127
276.28185941043085	276.52566893424034	66	127
276.28185941043085	276.52566893424034	38	127
276.28185941043085	276.52566893424034	62	127
276.52566893424034	276.7926984126984	42	127
276.52566893424034	276.7926984126984	62	127
276.52566893424034	276.7926984126984	66	127
276.7926984126984	276.9900680272109	62	127
276.7926984126984	276.9900680272109	66	127
276.7926984126984	276.9900680272109	47	127
276.9900680272109	277.18743764172336	62	127
276.9900680272109	277.18743764172336	50	127
276.9900680272109	277.18743764172336	66	127
277.19904761904763	277.3964172335601	62	127
277.19904761904763	277.3964172335601	54	127
277.19904761904763	277.3964172335601	66	127
277.40802721088437	277.59378684807257	66	127
277.40802721088437	277.59378684807257	62	127
277.40802721088437	277.7679365079365	59	127
277.59378684807257	277.7679365079365	62	127
277.59378684807257	277.7679365079365	66	127
277.7679365079365	277.97691609977323	62	127
277.7679365079365	277.97691609977323	66	127
277.9885260770975	278.1510430839002	65	127
277.9885260770975	278.1510430839002	62	127
278.16267573696143	278.406485260771	65	127
278.16267573696143	278.406485260771	62	127
278.406485260771	278.63868480725625	62	127
278.406485260771	278.63868480725625	65	127
278.63868480725625	278.8360544217687	64	127
278.63868480725625	278.8360544217687	62	127
278.8360544217687	279.068231292517	64	127
278.8360544217687	279.068231292517	62	127
279.0914739229025	279.45138321995466	64	127
279.0914739229025	279.45138321995466	62	127
279.45138321995466	279.64875283446713	62	127
279.45138321995466	279.64875283446713	64	127
279.54426303854876	279.64875283446713	53	127
279.64875283446713	279.74163265306123	52	127
279.64875283446713	279.8809523809524	64	127
279.64875283446713	279.8809523809524	62	127
279.77646258503404	279.8809523809524	50	127
279.8809523809524	279.9854421768708	48	127
279.8809523809524	280.08990929705215	64	127
279.8809523809524	280.08990929705215	62	127
279.9854421768708	280.08990929705215	47	127
280.10154195011336	280.2873015873016	64	127
280.10154195011336	280.2873015873016	60	127
280.10154195011336	280.1943990929705	45	127
280.1943990929705	280.2873015873016	44	127
280.2988888888889	280.438231292517	42	127
280.2988888888889	280.55433106575964	64	127
280.2988888888889	280.55433106575964	72	127
280.438231292517	280.55433106575964	40	127
280.55433106575964	280.7517006802721	64	127
280.55433106575964	280.64721088435374	42	127
280.55433106575964	280.7517006802721	72	127
280.658820861678	280.7517006802721	44	127
280.7517006802721	280.96068027210885	64	127
280.7517006802721	280.96068027210885	72	127
280.7517006802721	280.8445804988662	45	127
280.8561904761905	280.96068027210885	44	127
280.96068027210885	281.18126984126985	64	127
280.96068027210885	281.18126984126985	72	127
280.96068027210885	281.0651700680272	42	127
281.0651700680272	281.18126984126985	40	127
281.1928798185941	281.2857596371882	42	127
281.1928798185941	281.40185941043086	64	127
281.1928798185941	281.40185941043086	72	127
281.2857596371882	281.40185941043086	44	127
281.40185941043086	281.62242630385487	72	127
281.40185941043086	281.62242630385487	45	127
281.40185941043086	281.62242630385487	64	127
281.62242630385487	281.86625850340135	48	127
281.62242630385487	281.86625850340135	64	127
281.62242630385487	281.86625850340135	72	127
281.86625850340135	282.0636281179138	64	127
281.86625850340135	282.0636281179138	52	127
281.86625850340135	282.0636281179138	72	127
282.0752380952381	282.27260770975056	57	127
282.0752380952381	282.27260770975056	72	127
282.0752380952381	282.27260770975056	64	127
282.28421768707483	282.5512244897959	72	127
282.28421768707483	282.5512244897959	60	127
282.28421768707483	282.5512244897959	64	127
282.5512244897959	282.77183673469386	64	127
282.5512244897959	282.77183673469386	72	127
282.77183673469386	283.1549433106576	69	127
282.77183673469386	282.9575736961451	72	127
282.9575736961451	283.1549433106576	64	127
282.9575736961451	283.1549433106576	72	127
283.16655328798186	283.3407256235828	64	127
283.16655328798186	283.3407256235828	72	127
283.3407256235828	283.53809523809525	63	127
283.3407256235828	283.53809523809525	72	127
283.53809523809525	283.747074829932	63	127
283.53809523809525	283.747074829932	72	127
283.747074829932	284.01410430839	63	127
283.747074829932	284.01410430839	72	127
284.0257142857143	284.2114739229025	72	127
284.0257142857143	284.2114739229025	62	127
284.2114739229025	284.3043537414966	71	127
284.31596371882085	284.4204535147392	69	127
284.4204535147392	284.5249433106576	67	127
284.5249433106576	284.6178231292517	66	127
284.62943310657596	284.7107029478458	64	127
284.7107029478458	284.8384126984127	62	127
284.7107029478458	284.8384126984127	50	127
284.8384126984127	284.95451247165533	49	127
284.8384126984127	284.95451247165533	61	127
284.9661224489796	285.070612244898	62	127
284.9661224489796	285.070612244898	50	127
285.070612244898	285.1983219954649	48	127
285.070612244898	285.1983219954649	60	127
285.20990929705215	285.3143990929705	59	127
285.20990929705215	285.3143990929705	47	127
285.3143990929705	285.44213151927437	57	127
285.3143990929705	285.44213151927437	45	127
285.44213151927437	285.53501133786847	55	127
285.44213151927437	285.53501133786847	43	127
285.54662131519274	285.6511111111111	42	127
285.54662131519274	285.6511111111111	54	127
285.6511111111111	285.7439909297052	52	127
285.6511111111111	285.7439909297052	40	127
285.76721088435374	285.86009070294784	50	127
285.76721088435374	285.86009070294784	38	127
285.86009070294784	285.9645804988662	52	127
285.86009070294784	285.9645804988662	40	127
285.9645804988662	286.0690702947846	54	127
285.9645804988662	286.0690702947846	42	127
286.08068027210885	286.17356009070295	55	127
286.08068027210885	286.17356009070295	43	127
286.17356009070295	286.2780498866213	54	127
286.17356009070295	286.2780498866213	42	127
286.2780498866213	286.3709297052154	52	127
286.2780498866213	286.3709297052154	40	127
286.3709297052154	286.48702947845806	50	127
286.3709297052154	286.48702947845806	38	127
286.48702947845806	286.5915192743764	40	127
286.48702947845806	286.5915192743764	52	127
286.6031292517007	286.70761904761906	42	127
286.6031292517007	286.70761904761906	54	127
286.70761904761906	286.9165986394558	55	127
286.70761904761906	286.9165986394558	43	127
286.92820861678007	287.12557823129254	47	127
286.92820861678007	287.12557823129254	59	127
287.1371882086168	287.3345578231293	62	127
287.1371882086168	287.3345578231293	50	127
287.3345578231293	287.543537414966	67	127
287.3345578231293	287.543537414966	55	127
287.543537414966	287.7409070294785	59	127
287.543537414966	287.7409070294785	71	127
287.7409070294785	287.9614739229025	74	127
287.7409070294785	287.9614739229025	62	127
287.9614739229025	288.4491156462585	71	127
287.9614739229025	288.4491156462585	67	127
288.1936961451247	288.4491156462585	79	127
288.4607256235828	288.71614512471655	83	127
288.71614512471655	289.15732426303856	69	127
288.71614512471655	289.15732426303856	62	127
288.9599546485261	289.15732426303856	81	127
288.9599546485261	289.15732426303856	78	127
289.15732426303856	289.3663038548753	86	127
289.37791383219957	289.6333333333333	79	127
289.37791383219957	289.6333333333333	55	127
289.37791383219957	289.6333333333333	74	127
289.37791383219957	289.6333333333333	83	127
289.37791383219957	289.6333333333333	67	127
289.6449433106576	289.87714285714287	74	127
289.6449433106576	289.87714285714287	62	127
289.6449433106576	289.87714285714287	78	127
289.6449433106576	289.87714285714287	50	127
289.6449433106576	289.87714285714287	81	127
290.5272789115646	290.6434013605442	50	127
290.5272789115646	290.6434013605442	38	127
290.6434013605442	290.7478911564626	52	127
290.6434013605442	290.7478911564626	40	127
290.7478911564626	290.84077097505667	42	127
290.7478911564626	290.84077097505667	54	127
290.85238095238094	290.94526077097504	55	127
290.85238095238094	290.94526077097504	43	127
290.94526077097504	291.0381179138322	54	127
290.94526077097504	291.0381179138322	42	127
291.0497505668934	291.1426303854875	52	127
291.0497505668934	291.1426303854875	40	127
291.1426303854875	291.23548752834466	38	127
291.1426303854875	291.23548752834466	50	127
291.23548752834466	291.32839002267576	40	127
291.23548752834466	291.32839002267576	52	127
291.33997732426303	291.43287981859413	54	127
291.33997732426303	291.43287981859413	42	127
291.43287981859413	291.52575963718823	55	127
291.43287981859413	291.52575963718823	43	127
291.5373696145125	291.66507936507935	54	127
291.5373696145125	291.66507936507935	42	127
291.66507936507935	291.7695691609977	52	127
291.66507936507935	291.7695691609977	40	127
291.7695691609977	291.8624489795918	50	127
291.7695691609977	291.8624489795918	38	127
291.8740589569161	291.9669387755102	40	127
291.8740589569161	291.9669387755102	52	127
291.9669387755102	292.0946485260771	42	127
291.9669387755102	292.0946485260771	54	127
292.0946485260771	292.32684807256237	55	127
292.0946485260771	292.32684807256237	43	127
292.32684807256237	292.51260770975057	47	127
292.32684807256237	292.51260770975057	59	127
292.51260770975057	292.74480725623584	62	127
292.51260770975057	292.74480725623584	50	127
292.7564172335601	292.93056689342404	55	127
292.7564172335601	292.93056689342404	67	127
292.9421768707483	293.1395464852608	59	127
292.9421768707483	293.1395464852608	71	127
293.15115646258505	293.3833333333333	74	127
293.15115646258505	293.3833333333333	62	127
293.3833333333333	293.8593650793651	71	127
293.3833333333333	293.8593650793651	67	127
293.61555555555555	293.8593650793651	79	127
293.8593650793651	294.0683446712018	83	127
294.0683446712018	294.4863038548753	69	127
294.0683446712018	294.4863038548753	62	127
294.28893424036283	294.4863038548753	81	127
294.28893424036283	294.4863038548753	78	127
294.4979138321996	294.7649433106576	86	127
294.77655328798187	295.090022675737	67	127
294.77655328798187	295.090022675737	83	127
294.77655328798187	295.090022675737	74	127
294.77655328798187	295.090022675737	55	127
295.10163265306124	295.3338095238095	79	127
295.10163265306124	295.3338095238095	71	127
295.10163265306124	295.3338095238095	55	127
295.10163265306124	295.3338095238095	67	127
296.1233106575964	296.2161904761905	67	127
296.22780045351476	296.32068027210886	72	127
296.32068027210886	297.67902494331065	72	127
296.32068027210886	297.67902494331065	64	127
296.32068027210886	298.10861678004534	67	127
297.67902494331065	297.91124716553287	62	127
297.67902494331065	297.91124716553287	71	127
297.91124716553287	298.10861678004534	76	127
297.91124716553287	298.10861678004534	60	127
298.1202267573696	299.17673469387756	59	127
298.1202267573696	299.17673469387756	74	127
298.1202267573696	299.73401360544216	67	127
299.18834467120183	299.4437641723356	57	127
299.18834467120183	299.4437641723356	72	127
299.45537414965986	299.73401360544216	55	127
299.45537414965986	299.73401360544216	71	127
299.73401360544216	300.3841723356009	67	127
299.73401360544216	299.9313605442177	71	127
299.73401360544216	300.3841723356009	64	127
299.73401360544216	300.3841723356009	60	127
299.9313605442177	300.14036281179136	68	127
300.15197278911563	300.3841723356009	69	127
300.3957823129252	301.0691609977324	62	127
300.3957823129252	300.6047619047619	69	127
300.3957823129252	301.0691609977324	66	127
300.6047619047619	300.81374149659865	71	127
300.81374149659865	301.0691609977324	72	127
301.0691609977324	301.2897505668934	71	127
301.0691609977324	301.2897505668934	43	127
301.3013605442177	301.5219501133787	55	127
301.3013605442177	301.5219501133787	67	127
301.5219501133787	301.73092970521543	55	127
301.73092970521543	301.9282993197279	55	127
301.9282993197279	302.1836961451247	54	127
302.1953287981859	302.3926984126984	53	127
302.40430839002266	303.4259863945578	52	127
302.7526077097506	303.0196371882086	55	127
303.0196371882086	303.2170068027211	67	127
303.2170068027211	303.9368253968254	67	127
303.4375963718821	303.6465759637188	50	127
303.6465759637188	303.9368253968254	48	127
303.9368253968254	304.94689342403626	47	127
304.2386848072562	304.4708843537415	55	127
304.48249433106577	304.66825396825396	67	127
304.6914739229025	305.3532199546485	67	127
304.94689342403626	305.1326530612245	45	127
305.1326530612245	305.3532199546485	43	127
305.3532199546485	305.7944217687075	48	127
305.5622222222222	305.7944217687075	55	127
305.5622222222222	305.7944217687075	57	127
305.7944217687075	306.06142857142856	64	127
305.7944217687075	306.06142857142856	49	127
306.06142857142856	306.58390022675735	50	127
306.3168707482993	306.58390022675735	54	127
306.3168707482993	306.58390022675735	57	127
306.5955102040816	306.7928798185941	38	127
306.5955102040816	306.7928798185941	62	127
306.7928798185941	307.2340589569161	31	127
307.0018594104308	307.2340589569161	43	127
307.0018594104308	307.2340589569161	59	127
307.2340589569161	307.44303854875284	59	127
307.2340589569161	307.44303854875284	43	127
307.4546485260771	307.71006802721087	59	127
307.4546485260771	307.71006802721087	43	127
307.72167800453514	307.81455782312923	42	127
307.72167800453514	307.81455782312923	60	127
307.81455782312923	307.9538775510204	43	127
307.81455782312923	307.9538775510204	59	127
307.9538775510204	308.0467573696145	57	127
307.9538775510204	308.0467573696145	45	127
308.0583673469388	308.1744671201814	55	127
308.0583673469388	308.1744671201814	47	127
308.1744671201814	308.6388662131519	48	127
308.44149659863945	308.6388662131519	57	127
308.44149659863945	308.6388662131519	55	127
308.6504761904762	308.84784580498865	49	127
308.6504761904762	308.84784580498865	64	127
308.84784580498865	309.33544217687074	50	127
309.1380952380952	309.33544217687074	54	127
309.1380952380952	309.33544217687074	57	127
309.33544217687074	309.5328117913832	62	127
309.33544217687074	309.5328117913832	38	127
309.5444217687075	310.0320634920635	31	127
309.8230839002268	310.0320634920635	59	127
309.8230839002268	310.0320634920635	43	127
310.0320634920635	310.275873015873	43	127
310.0320634920635	310.275873015873	59	127
310.275873015873	310.51968253968255	59	127
310.275873015873	310.51968253968255	43	127
310.51968253968255	310.6357823129252	60	127
310.51968253968255	310.6357823129252	42	127
310.6357823129252	310.7286621315193	43	127
310.6357823129252	310.7286621315193	59	127
310.74027210884356	310.8215419501134	57	127
310.74027210884356	310.8215419501134	45	127
310.8215419501134	310.937641723356	55	127
310.8215419501134	310.937641723356	47	127
310.937641723356	311.20467120181405	36	127
311.20467120181405	311.46009070294787	57	127
311.20467120181405	311.46009070294787	48	127
311.20467120181405	311.46009070294787	55	127
311.46009070294787	311.6690702947846	64	127
311.46009070294787	311.6690702947846	48	127
311.6806575963719	311.8896371882086	36	127
311.9012698412698	312.11024943310656	55	127
311.9012698412698	312.11024943310656	48	127
311.9012698412698	312.11024943310656	57	127
312.11024943310656	312.307619047619	48	127
312.11024943310656	312.307619047619	64	127
312.307619047619	312.51659863945576	57	127
312.307619047619	312.51659863945576	38	127
312.307619047619	312.51659863945576	54	127
312.52820861678003	312.7139455782313	54	127
312.52820861678003	312.7139455782313	50	127
312.52820861678003	312.7139455782313	57	127
312.7255782312925	312.93455782312924	54	127
312.7255782312925	312.93455782312924	50	127
312.7255782312925	312.93455782312924	57	127
312.93455782312924	313.18997732426305	57	127
312.93455782312924	313.18997732426305	55	127
312.93455782312924	313.18997732426305	50	127
313.18997732426305	313.41056689342406	73	127
313.18997732426305	313.41056689342406	50	127
313.18997732426305	313.41056689342406	55	127
313.18997732426305	313.41056689342406	57	127
313.41056689342406	313.6427664399093	50	127
313.41056689342406	313.6427664399093	55	127
313.41056689342406	313.6427664399093	57	127
313.41056689342406	313.5731065759637	73	127
313.50344671201816	313.6427664399093	74	127
313.5731065759637	313.6427664399093	73	127
313.65437641723355	313.8633560090703	50	127
313.65437641723355	313.8633560090703	54	127
313.65437641723355	313.7588662131519	74	127
313.65437641723355	313.8633560090703	57	127
313.7588662131519	313.8633560090703	81	127
313.8633560090703	314.06072562358275	54	127
313.8633560090703	313.9562358276644	79	127
313.8633560090703	314.06072562358275	50	127
313.8633560090703	314.06072562358275	57	127
313.9562358276644	314.06072562358275	78	127
314.06072562358275	314.2697052154195	54	127
314.06072562358275	314.15360544217685	76	127
314.06072562358275	314.2697052154195	57	127
314.06072562358275	314.2697052154195	50	127
314.1652154195011	314.2697052154195	74	127
314.2697052154195	314.46707482993196	55	127
314.2697052154195	314.46707482993196	50	127
314.2697052154195	314.46707482993196	57	127
314.2697052154195	314.37419501133786	73	127
314.37419501133786	314.46707482993196	71	127
314.47868480725623	314.69927437641724	50	127
314.47868480725623	314.69927437641724	57	127
314.47868480725623	314.69927437641724	55	127
314.47868480725623	314.60639455782314	69	127
314.60639455782314	314.69927437641724	67	127
314.7108843537415	314.908253968254	50	127
314.7108843537415	314.908253968254	55	127
314.7108843537415	314.908253968254	57	127
314.7108843537415	314.8037641723356	66	127
314.8037641723356	314.908253968254	64	127
314.908253968254	315.18689342403627	38	127
314.908253968254	315.395873015873	62	127
315.18689342403627	315.395873015873	54	127
315.18689342403627	315.395873015873	50	127
315.18689342403627	315.395873015873	57	127
315.395873015873	315.6280725623583	50	127
315.395873015873	315.6280725623583	57	127
315.395873015873	315.6280725623583	54	127
315.63968253968255	315.8486621315193	57	127
315.63968253968255	315.8486621315193	55	127
315.63968253968255	315.8486621315193	50	127
315.8486621315193	316.057641723356	57	127
315.8486621315193	316.057641723356	55	127
315.8486621315193	316.057641723356	73	127
315.8486621315193	316.057641723356	50	127
316.057641723356	316.2085714285714	73	127
316.057641723356	316.27823129251703	57	127
316.057641723356	316.27823129251703	50	127
316.057641723356	316.27823129251703	55	127
316.1273015873016	316.27823129251703	74	127
316.2201814058957	316.27823129251703	73	127
316.27823129251703	316.37111111111113	74	127
316.27823129251703	316.46399092970523	50	127
316.27823129251703	316.46399092970523	54	127
316.27823129251703	316.46399092970523	57	127
316.37111111111113	316.46399092970523	81	127
316.4756009070295	316.5684807256236	79	127
316.4756009070295	316.67297052154197	54	127
316.4756009070295	316.67297052154197	57	127
316.4756009070295	316.67297052154197	50	127
316.5684807256236	316.67297052154197	78	127
316.68458049886624	316.9283900226757	50	127
316.68458049886624	316.9283900226757	54	127
316.68458049886624	316.9283900226757	57	127
316.68458049886624	316.7890702947846	76	127
316.7890702947846	316.9283900226757	74	127
316.9283900226757	317.1025170068027	57	127
316.9283900226757	317.00965986394556	73	127
316.9283900226757	317.1025170068027	50	127
316.9283900226757	317.1025170068027	55	127
317.00965986394556	317.1025170068027	71	127
317.1025170068027	317.31149659863945	55	127
317.1025170068027	317.2186394557823	69	127
317.1025170068027	317.31149659863945	50	127
317.1025170068027	317.31149659863945	57	127
317.2186394557823	317.31149659863945	67	127
317.32312925170066	317.5088662131519	50	127
317.32312925170066	317.5088662131519	55	127
317.32312925170066	317.4159863945578	66	127
317.32312925170066	317.5088662131519	57	127
317.4159863945578	317.5088662131519	64	127
317.52049886621313	317.64820861678004	62	127
317.52049886621313	317.64820861678004	50	127
317.64820861678004	317.7991383219955	57	127
317.64820861678004	317.7991383219955	69	127
317.7991383219955	317.8920181405896	55	127
317.7991383219955	317.8920181405896	67	127
317.90362811791385	318.0081179138322	66	127
317.90362811791385	318.0081179138322	54	127
318.0081179138322	318.1009977324263	52	127
318.0081179138322	318.1009977324263	64	127
318.1126077097506	318.2054875283447	50	127
318.1126077097506	318.2054875283447	62	127
318.2054875283447	318.30997732426306	61	127
318.2054875283447	318.30997732426306	49	127
318.30997732426306	318.4144671201814	47	127
318.30997732426306	318.4144671201814	59	127
318.4492970521542	318.5421768707483	57	127
318.4492970521542	318.5421768707483	45	127
318.5421768707483	318.64666666666665	55	127
318.5421768707483	318.64666666666665	43	127
318.64666666666665	318.7395238095238	54	127
318.64666666666665	318.7395238095238	42	127
318.7395238095238	318.84401360544217	52	127
318.7395238095238	318.84401360544217	40	127
318.84401360544217	318.93691609977327	38	127
318.84401360544217	318.93691609977327	50	127
318.94850340136054	319.0646258503401	49	127
318.94850340136054	319.0646258503401	37	127
319.0646258503401	319.18072562358276	47	127
319.0646258503401	319.18072562358276	35	127
319.18072562358276	319.27360544217686	45	127
319.18072562358276	319.27360544217686	33	127
319.2852154195011	319.3897052154195	35	127
319.2852154195011	319.3897052154195	47	127
319.3897052154195	319.4825850340136	49	127
319.3897052154195	319.4825850340136	37	127
319.49419501133787	319.59868480725623	38	127
319.49419501133787	319.59868480725623	50	127
319.59868480725623	319.7031746031746	37	127
319.59868480725623	319.7031746031746	49	127
319.7031746031746	319.7960544217687	35	127
319.7031746031746	319.7960544217687	47	127
319.80766439909297	319.91215419501134	33	127
319.80766439909297	319.91215419501134	45	127
319.91215419501134	320.00503401360544	47	127
319.91215419501134	320.00503401360544	35	127
320.0166439909297	320.1095238095238	49	127
320.0166439909297	320.1095238095238	37	127
320.1095238095238	320.515873015873	50	127
320.1095238095238	320.515873015873	38	127
321.8858503401361	322.67532879818594	54	127
321.8858503401361	322.67532879818594	59	127
321.8858503401361	322.67532879818594	63	127
321.8858503401361	322.67532879818594	47	127
322.67532879818594	323.383537414966	59	127
322.67532879818594	323.383537414966	64	127
322.67532879818594	323.383537414966	55	127
322.67532879818594	323.383537414966	40	127
323.39514739229026	324.045306122449	66	127
323.39514739229026	324.045306122449	63	127
323.39514739229026	324.045306122449	59	127
323.39514739229026	324.045306122449	47	127
323.39514739229026	324.045306122449	35	127
324.9508843537415	325.0553741496599	67	127
324.9508843537415	325.0553741496599	55	127
325.0553741496599	325.15986394557825	66	127
325.0553741496599	325.15986394557825	54	127
325.1714739229025	325.2643537414966	64	127
325.1714739229025	325.2643537414966	52	127
325.2643537414966	325.34562358276645	50	127
325.2643537414966	325.34562358276645	62	127
325.3572335600907	325.4501133786848	52	127
325.3572335600907	325.4501133786848	64	127
325.4501133786848	325.5429931972789	66	127
325.4501133786848	325.5429931972789	54	127
325.5429931972789	325.6474829931973	55	127
325.5429931972789	325.6474829931973	67	127
325.65909297052156	325.75197278911565	66	127
325.65909297052156	325.75197278911565	54	127
325.75197278911565	325.84485260770975	64	127
325.75197278911565	325.84485260770975	52	127
325.856462585034	325.93773242630385	50	127
325.856462585034	325.93773242630385	62	127
325.93773242630385	326.0422222222222	64	127
325.93773242630385	326.0422222222222	52	127
326.0422222222222	326.1351020408163	66	127
326.0422222222222	326.1351020408163	54	127
326.1467120181406	326.4950113378685	67	127
326.1467120181406	326.4950113378685	55	127
327.85337868480724	328.6312471655329	52	127
327.85337868480724	328.6312471655329	68	127
327.85337868480724	328.6312471655329	59	127
327.85337868480724	328.6312471655329	64	127
328.6312471655329	329.4091156462585	45	127
328.6312471655329	329.4091156462585	64	127
328.6312471655329	329.4091156462585	69	127
328.6312471655329	329.4091156462585	60	127
329.42072562358277	330.0708843537415	64	127
329.42072562358277	330.0708843537415	40	127
329.42072562358277	330.0708843537415	71	127
329.42072562358277	330.0708843537415	52	127
329.42072562358277	330.0708843537415	68	127
330.9532426303855	331.05773242630386	72	127
330.9532426303855	331.05773242630386	60	127
331.05773242630386	331.1622222222222	59	127
331.05773242630386	331.1622222222222	71	127
331.1738321995465	331.2667120181406	57	127
331.1738321995465	331.2667120181406	69	127
331.2667120181406	331.38281179138323	55	127
331.2667120181406	331.38281179138323	67	127
331.38281179138323	331.47569160997733	57	127
331.38281179138323	331.47569160997733	69	127
331.4873015873016	331.5801814058957	59	127
331.4873015873016	331.5801814058957	71	127
331.5801814058957	331.6730612244898	60	127
331.5801814058957	331.6730612244898	72	127
331.68467120181407	331.78916099773244	59	127
331.68467120181407	331.78916099773244	71	127
331.78916099773244	331.8936507936508	69	127
331.78916099773244	331.8936507936508	57	127
331.8936507936508	331.9865306122449	55	127
331.8936507936508	331.9865306122449	67	127
331.9981405895692	332.1142403628118	69	127
331.9981405895692	332.1142403628118	57	127
332.1142403628118	332.2071201814059	59	127
332.1142403628118	332.2071201814059	71	127
332.2187301587302	332.72956916099776	60	127
332.2187301587302	332.72956916099776	72	127
333.5887074829932	334.2040362811791	70	127
333.87895691609975	334.6684353741497	57	127
334.2040362811791	334.42462585034014	69	127
334.4362358276644	334.6684353741497	67	127
334.6684353741497	335.167664399093	65	127
334.6684353741497	334.947074829932	50	127
334.947074829932	335.167664399093	52	127
335.167664399093	335.5740136054422	69	127
335.167664399093	335.36503401360545	53	127
335.3766439909297	336.11965986394557	55	127
335.6204535147392	335.86426303854876	67	127
335.86426303854876	336.11965986394557	65	127
336.11965986394557	336.3402721088435	48	127
336.11965986394557	336.58408163265307	64	127
336.3402721088435	336.58408163265307	50	127
336.59569160997734	337.1181405895692	67	127
336.59569160997734	336.8394784580499	52	127
336.8394784580499	337.5709297052154	54	127
337.1181405895692	337.35031746031746	66	127
337.35031746031746	337.5709297052154	64	127
337.5825396825397	338.081768707483	62	127
337.5825396825397	337.7915192743764	47	127
337.8031292517007	338.081768707483	48	127
338.081768707483	338.31396825396826	50	127
338.081768707483	338.5113378684807	65	127
338.31396825396826	339.04539682539684	52	127
338.522947845805	338.76675736961454	64	127
338.789977324263	339.04539682539684	62	127
339.04539682539684	339.2775963718821	45	127
339.04539682539684	339.4981632653061	60	127
339.2775963718821	339.4981632653061	47	127
339.4981632653061	339.73038548752834	48	127
339.4981632653061	340.04385487528344	64	127
339.7768253968254	340.4966439909297	50	127
340.04385487528344	340.2760544217687	62	127
340.2760544217687	340.4966439909297	60	127
340.4966439909297	341.2396825396825	43	127
340.4966439909297	340.7868934240363	59	127
340.79850340136056	341.03068027210884	57	127
341.04231292517005	341.2396825396825	55	127
341.2396825396825	342.16848072562357	36	127
341.2396825396825	341.43702947845804	52	127
341.43702947845804	341.76213151927436	57	127
341.76213151927436	341.95950113378683	60	127
341.9711111111111	342.16848072562357	64	127
342.16848072562357	342.4239002267574	69	127
342.16848072562357	342.4239002267574	52	127
342.4239002267574	342.6676870748299	72	127
342.4239002267574	342.6676870748299	48	127
342.6676870748299	343.1088888888889	38	127
342.6676870748299	343.1088888888889	50	127
342.89990929705215	343.1088888888889	71	127
343.12049886621315	343.3643083900227	74	127
343.37589569160997	343.79385487528344	50	127
343.37589569160997	343.79385487528344	38	127
343.5848752834467	343.79385487528344	72	127
343.80548752834466	344.0492970521542	74	127
343.93319727891156	344.0492970521542	86	127
344.0492970521542	344.8736054421769	86	127
344.0492970521542	344.25827664399094	43	127
344.25827664399094	344.47886621315195	55	127
344.47886621315195	344.6762358276644	55	127
344.6878458049887	344.8736054421769	55	127
344.88521541950115	345.1754648526077	82	127
344.88521541950115	345.1754648526077	55	127
345.1754648526077	345.407664399093	79	127
345.1754648526077	345.407664399093	55	127
345.34961451247165	345.45410430839	81	127
345.407664399093	345.60503401360546	79	127
345.407664399093	345.60503401360546	45	127
345.60503401360546	345.8720634920635	57	127
345.60503401360546	346.25519274376416	78	127
345.88367346938776	346.06943310657596	57	127
346.06943310657596	346.25519274376416	57	127
346.25519274376416	346.4525623582766	57	127
346.25519274376416	346.4525623582766	78	127
346.4525623582766	346.67315192743763	79	127
346.4525623582766	346.67315192743763	57	127
346.6847619047619	347.07950113378683	81	127
346.6847619047619	346.8705215419501	42	127
346.88213151927437	347.07950113378683	54	127
347.07950113378683	347.3233106575964	78	127
347.07950113378683	347.3233106575964	50	127
347.3233106575964	347.7296598639456	74	127
347.3233106575964	347.5439002267574	54	127
347.5439002267574	347.7296598639456	54	127
347.74126984126985	347.97344671201813	72	127
347.74126984126985	347.97344671201813	50	127
347.97344671201813	348.1708390022676	43	127
347.97344671201813	348.1708390022676	70	127
348.0779365079365	348.27532879818597	62	127
348.1708390022676	348.4030385487528	70	127
348.1708390022676	348.4030385487528	55	127
348.28691609977324	348.49589569161	62	127
348.4030385487528	348.6352380952381	55	127
348.4030385487528	348.6352380952381	70	127
348.49589569161	348.73972789115646	62	127
348.64684807256236	348.83260770975056	70	127
348.64684807256236	348.83260770975056	55	127
348.73972789115646	349.00673469387755	62	127
348.84421768707483	349.09961451247165	72	127
348.84421768707483	349.09961451247165	57	127
349.00673469387755	349.2157369614512	62	127
349.09961451247165	349.3202267573696	54	127
349.09961451247165	349.3202267573696	70	127
349.2273469387755	349.41308390022675	62	127
349.3202267573696	349.5175736961451	43	127
349.3202267573696	349.5175736961451	70	127
349.42471655328796	349.59886621315195	62	127
349.5175736961451	349.69174603174605	70	127
349.5175736961451	349.69174603174605	55	127
349.59886621315195	349.8078458049887	62	127
349.7033560090703	349.9007256235828	70	127
349.7033560090703	349.9007256235828	55	127
349.8078458049887	350.00521541950116	62	127
349.91233560090706	350.09809523809525	55	127
349.91233560090706	350.09809523809525	70	127
350.00521541950116	350.2025850340136	62	127
350.09809523809525	350.307074829932	55	127
350.09809523809525	350.307074829932	70	127
350.2141950113379	350.41156462585036	62	127
350.307074829932	350.51605442176873	55	127
350.307074829932	350.51605442176873	70	127
350.41156462585036	350.6205442176871	62	127
350.527664399093	350.7134240362812	72	127
350.527664399093	350.7134240362812	45	127
350.6205442176871	350.82952380952383	62	127
350.73662131519274	350.92240362811793	72	127
350.73662131519274	350.92240362811793	57	127
350.82952380952383	351.01528344671203	62	127
350.92240362811793	351.1197732426304	57	127
350.92240362811793	351.1197732426304	72	127
351.0268934240363	351.22426303854877	62	127
351.1197732426304	351.3403628117914	57	127
351.1197732426304	351.3403628117914	72	127
351.23587301587304	351.4332426303855	62	127
351.3403628117914	351.5377324263039	57	127
351.3403628117914	351.5377324263039	72	127
351.4332426303855	351.78154195011336	62	127
351.5841723356009	351.897641723356	72	127
351.5841723356009	351.897641723356	57	127
351.78154195011336	352.00213151927437	62	127
351.9092517006803	352.09501133786847	69	127
351.9092517006803	352.09501133786847	42	127
352.00213151927437	352.18789115646257	62	127
352.09501133786847	352.29238095238094	54	127
352.09501133786847	352.29238095238094	69	127
352.19950113378684	352.3968707482993	62	127
352.29238095238094	352.5710204081633	50	127
352.29238095238094	352.5710204081633	69	127
352.3968707482993	352.68709750566893	62	127
352.5710204081633	352.8032199546485	54	127
352.5710204081633	352.8032199546485	69	127
352.68709750566893	352.95414965986396	62	127
352.8148299319728	353.0586394557823	54	127
352.8148299319728	353.0586394557823	69	127
352.95414965986396	353.1515192743764	62	127
353.0586394557823	353.32566893424035	50	127
353.0586394557823	353.32566893424035	74	127
353.1631292517007	353.32566893424035	86	127
353.32566893424035	353.54625850340136	58	127
353.32566893424035	353.7900680272109	86	127
353.441768707483	353.6971882086168	62	127
353.54625850340136	353.7900680272109	58	127
353.6971882086168	353.8945578231293	62	127
353.8016553287982	353.99904761904764	58	127
353.8016553287982	353.99904761904764	82	127
353.8945578231293	354.14997732426303	79	127
353.8945578231293	354.14997732426303	62	127
354.0222675736961	354.4750566893424	77	127
354.0222675736961	354.2544671201814	57	127
354.14997732426303	354.37056689342404	60	127
354.2544671201814	354.4750566893424	57	127
354.3821768707483	354.5679365079365	60	127
354.4750566893424	354.68403628117915	57	127
354.5679365079365	354.68403628117915	60	127
354.68403628117915	354.90462585034015	55	127
354.8001360544218	355.0091156462585	58	127
354.9162358276644	355.1019954648526	55	127
355.0091156462585	355.22970521541953	58	127
355.1019954648526	355.3574149659864	55	127
355.2412925170068	355.4502947845805	58	127
355.3574149659864	355.5663945578231	53	127
355.46190476190475	355.7057142857143	57	127
355.5663945578231	355.8334240362812	53	127
355.7057142857143	355.96113378684805	57	127
355.84503401360547	356.0539909297052	53	127
355.96113378684805	356.0539909297052	57	127
356.0656235827664	356.49519274376416	79	127
356.0656235827664	356.2978231292517	51	127
356.2049433106576	356.3907029478458	55	127
356.2978231292517	356.49519274376416	51	127
356.40231292517007	356.58807256235826	55	127
356.49519274376416	356.71578231292517	51	127
356.49519274376416	356.71578231292517	75	127
356.58807256235826	356.80866213151927	72	127
356.58807256235826	356.80866213151927	55	127
356.71578231292517	356.90154195011337	50	127
356.71578231292517	357.1221315192744	70	127
356.80866213151927	357.017641723356	53	127
356.91315192743764	357.1221315192744	50	127
357.017641723356	357.2150113378685	53	127
357.1221315192744	357.31950113378684	50	127
357.22662131519274	357.31950113378684	53	127
357.31950113378684	357.5865079365079	48	127
357.49362811791383	357.7026303854875	51	127
357.5865079365079	357.85356009070296	48	127
357.7026303854875	357.9580498866213	51	127
357.8651700680272	358.08575963718823	48	127
357.9580498866213	358.1902494331066	51	127
358.0973469387755	358.2831292517007	46	127
358.1902494331066	358.4224489795918	50	127
358.2831292517007	358.5269387755102	46	127
358.4340589569161	358.6198185941043	50	127
358.5269387755102	358.72430839002266	46	127
358.63142857142856	358.72430839002266	50	127
358.72430839002266	358.9797278911565	45	127
358.72430839002266	358.9797278911565	87	127
358.8752380952381	359.08421768707484	75	127
358.8752380952381	359.08421768707484	48	127
358.99133786848074	359.17709750566894	87	127
358.99133786848074	359.17709750566894	46	127
359.08421768707484	359.3396371882086	75	127
359.08421768707484	359.3396371882086	50	127
359.17709750566894	359.44412698412697	45	127
359.17709750566894	359.44412698412697	87	127
359.35124716553287	359.5369841269841	48	127
359.35124716553287	359.5369841269841	75	127
359.44412698412697	359.64149659863943	46	127
359.44412698412697	359.64149659863943	87	127
359.54861678004534	359.7343537414966	75	127
359.54861678004534	359.7343537414966	50	127
359.64149659863943	359.86208616780044	87	127
359.64149659863943	359.86208616780044	45	127
359.7343537414966	359.98979591836735	75	127
359.7343537414966	359.98979591836735	48	127
359.8736961451247	360.10589569161	46	127
359.8736961451247	360.10589569161	87	127
359.98979591836735	360.2219954648526	50	127
359.98979591836735	360.2219954648526	75	127
360.11750566893426	360.3148752834467	45	127
360.11750566893426	360.3148752834467	87	127
360.2219954648526	360.4077551020408	75	127
360.2219954648526	360.4077551020408	48	127
360.3148752834467	360.5122448979592	87	127
360.3148752834467	360.5122448979592	46	127
360.4193650793651	360.65154195011337	50	127
360.4193650793651	360.65154195011337	75	127
360.5122448979592	360.7792743764172	45	127
360.5122448979592	360.7792743764172	87	127
360.67478458049885	360.8837641723356	48	127
360.67478458049885	360.8837641723356	75	127
360.7792743764172	360.98825396825396	87	127
360.7792743764172	360.98825396825396	46	127
360.8837641723356	361.0927437641723	50	127
360.8837641723356	361.0927437641723	75	127
360.9998639455782	361.1856235827664	87	127
360.9998639455782	361.1856235827664	45	127
361.0927437641723	361.31333333333333	48	127
361.0927437641723	361.31333333333333	75	127
361.1856235827664	361.44104308390024	46	127
361.1856235827664	361.44104308390024	87	127
361.31333333333333	361.5571428571429	50	127
361.31333333333333	361.5571428571429	75	127
361.44104308390024	361.6732199546485	45	127
361.44104308390024	361.6732199546485	87	127
361.56875283446715	361.7661224489796	75	127
361.56875283446715	361.7661224489796	48	127
361.6732199546485	361.870612244898	87	127
361.6732199546485	361.870612244898	45	127
361.7661224489796	361.9866893424036	75	127
361.7661224489796	361.9866893424036	48	127
361.88219954648525	362.1028117913832	45	127
361.88219954648525	362.1028117913832	87	127
361.9866893424036	362.21891156462584	48	127
361.9866893424036	362.21891156462584	75	127
362.1144217687075	362.31179138321994	43	127
362.1144217687075	362.31179138321994	85	127
362.21891156462584	362.43950113378685	52	127
362.21891156462584	362.43950113378685	73	127
362.31179138321994	362.5556009070295	43	127
362.31179138321994	362.5556009070295	85	127
362.4511111111111	362.6484807256236	73	127
362.4511111111111	362.6484807256236	52	127
362.5556009070295	362.7645804988662	85	127
362.5556009070295	362.7645804988662	43	127
362.66009070294785	362.8690702947846	73	127
362.66009070294785	362.8690702947846	52	127
362.7645804988662	362.9619501133787	42	127
362.7645804988662	362.9619501133787	86	127
362.8690702947846	363.07804988662133	54	127
362.8690702947846	363.07804988662133	74	127
362.97356009070296	363.19414965986397	86	127
362.97356009070296	363.19414965986397	42	127
363.07804988662133	363.29863945578234	74	127
363.07804988662133	363.29863945578234	54	127
363.19414965986397	363.4031292517007	86	127
363.19414965986397	363.4031292517007	42	127
363.29863945578234	363.5076190476191	54	127
363.29863945578234	363.5076190476191	74	127
363.4031292517007	363.6236961451247	84	127
363.4031292517007	363.6236961451247	39	127
363.53083900226756	363.7746485260771	51	127
363.53083900226756	363.7746485260771	72	127
363.6236961451247	363.87913832199547	84	127
363.6236961451247	363.87913832199547	39	127
363.7746485260771	364.0300453514739	51	127
363.7746485260771	364.0300453514739	72	127
363.89074829931974	364.122947845805	39	127
363.89074829931974	364.122947845805	84	127
364.0300453514739	364.122947845805	51	127
364.0300453514739	364.122947845805	72	127
364.1345351473923	364.5873469387755	40	127
364.1345351473923	364.5873469387755	52	127
364.38997732426304	364.5873469387755	71	127
364.4944671201814	364.76149659863944	76	127
364.5873469387755	364.8659863945578	79	127
364.7731065759637	364.9704761904762	83	127
364.8659863945578	365.272335600907	49	127
364.8659863945578	365.272335600907	55	127
364.8659863945578	365.272335600907	57	127
365.07496598639455	365.272335600907	78	127
365.1794557823129	365.38843537414965	79	127
365.272335600907	365.51614512471656	81	127
365.38843537414965	365.51614512471656	79	127
365.5277551020408	365.9573242630386	55	127
365.5277551020408	365.9573242630386	50	127
365.5277551020408	365.9573242630386	59	127
365.74834467120183	365.9573242630386	73	127
365.8644217687075	366.06181405895694	74	127
365.9573242630386	366.20113378684806	76	127
366.0734013605442	366.30562358276643	74	127
366.20113378684806	366.60748299319727	54	127
366.20113378684806	366.60748299319727	60	127
366.20113378684806	366.60748299319727	50	127
366.4101133786848	366.60748299319727	73	127
366.5029931972789	366.74680272108844	74	127
366.61909297052154	366.93256235827664	76	127
366.74680272108844	366.93256235827664	74	127
366.93256235827664	369.8698866213152	43	127
366.93256235827664	367.8033106575964	55	127
366.93256235827664	367.3505215419501	74	127
367.0486621315193	367.46662131519275	67	127
367.8033106575964	368.534716553288	54	127
368.00068027210887	368.2096598639456	67	127
368.1167573696145	368.4418594104308	71	127
368.2212471655329	368.534716553288	74	127
368.5463492063492	368.97591836734694	74	127
368.5463492063492	369.2081179138322	52	127
368.97591836734694	369.2081179138322	72	127
369.2197278911565	369.8698866213152	54	127
369.41709750566895	369.6260770975057	62	127
369.5331972789116	369.7653968253968	69	127
369.6260770975057	369.8698866213152	72	127
369.8698866213152	370.34589569161	72	127
369.8698866213152	372.7491609977324	43	127
369.8698866213152	370.55487528344673	55	127
370.35750566893427	370.55487528344673	71	127
370.55487528344673	371.23986394557824	47	127
371.2514739229025	371.73909297052154	48	127
371.73909297052154	372.0060997732426	50	127
372.0060997732426	372.45891156462585	52	127
372.4821315192744	372.7491609977324	54	127
372.7491609977324	373.4457596371882	55	127
372.7491609977324	375.59360544217685	43	127
373.45736961451246	374.2468480725624	53	127
373.67795918367347	373.9333786848073	62	127
373.8288888888889	374.0262585034014	67	127
373.9333786848073	374.2468480725624	71	127
374.03786848072565	374.2468480725624	74	127
374.2468480725624	374.9318367346939	52	127
374.2468480725624	374.68802721088434	74	127
374.6996371882086	374.9318367346939	72	127
374.9318367346939	375.59360544217685	54	127
375.1524263038549	375.36140589569163	62	127
375.26852607709753	375.4891156462585	66	127
375.36140589569163	375.59360544217685	69	127
375.4891156462585	375.59360544217685	72	127
375.6052154195011	376.30179138321995	55	127
375.6052154195011	376.0115646258503	72	127
375.6052154195011	378.40321995464853	43	127
376.0115646258503	376.30179138321995	71	127
376.30179138321995	376.9055328798186	47	127
376.9055328798186	377.3815419501134	48	127
377.3815419501134	377.6834013605442	50	127
377.6950113378685	378.1361678004535	52	127
378.1361678004535	378.40321995464853	54	127
378.40321995464853	379.06496598639455	55	127
378.40321995464853	381.43342403628117	43	127
378.86761904761903	379.4597278911565	62	127
379.06496598639455	379.71514739229025	47	127
379.4597278911565	379.71514739229025	63	127
379.7267573696145	380.2724263038549	48	127
379.7267573696145	380.2724263038549	64	127
380.2724263038549	380.48140589569164	50	127
380.2724263038549	380.48140589569164	66	127
380.48140589569164	380.93419501133786	52	127
380.48140589569164	380.93419501133786	67	127
380.94580498866213	381.21283446712016	69	127
380.94580498866213	381.21283446712016	54	127
381.21283446712016	381.43342403628117	55	127
381.21283446712016	381.43342403628117	71	127
381.6424036281179	382.0603628117914	83	127
381.6424036281179	382.0603628117914	47	127
382.0603628117914	382.2693424036281	45	127
382.0603628117914	382.2693424036281	81	127
382.2693424036281	382.4899319727891	79	127
382.2693424036281	382.4899319727891	43	127
382.4899319727891	382.6756916099773	42	127
382.4899319727891	382.6756916099773	78	127
382.6873015873016	382.8962811791383	43	127
382.6873015873016	382.8962811791383	79	127
382.8962811791383	383.0936507936508	40	127
382.8962811791383	383.0936507936508	76	127
383.0936507936508	383.29102040816326	74	127
383.0936507936508	383.29102040816326	38	127
383.29102040816326	383.48839002267573	40	127
383.29102040816326	383.48839002267573	76	127
383.5	383.6857596371882	73	127
383.5	383.6857596371882	37	127
383.69736961451247	384.11532879818594	74	127
383.69736961451247	383.9179591836735	38	127
383.9179591836735	384.11532879818594	59	127
383.9179591836735	384.11532879818594	50	127
383.9179591836735	384.11532879818594	55	127
384.11532879818594	384.30108843537414	59	127
384.11532879818594	384.30108843537414	55	127
384.11532879818594	384.30108843537414	50	127
384.30108843537414	384.5332879818594	50	127
384.30108843537414	384.5332879818594	55	127
384.30108843537414	384.5332879818594	59	127
384.5448979591837	384.7654875283447	55	127
384.5448979591837	384.7654875283447	59	127
384.5448979591837	384.7654875283447	50	127
384.7654875283447	384.9976870748299	55	127
384.7654875283447	384.9976870748299	59	127
384.7654875283447	384.9976870748299	50	127
384.9976870748299	385.2531065759637	55	127
384.9976870748299	385.2531065759637	50	127
384.9976870748299	385.2531065759637	60	127
384.9976870748299	385.1253968253968	74	127
385.1370068027211	385.2531065759637	75	127
385.2531065759637	385.485306122449	55	127
385.2531065759637	385.485306122449	50	127
385.2531065759637	385.39242630385485	76	127
385.2531065759637	385.485306122449	60	127
385.39242630385485	385.485306122449	77	127
385.4969160997732	385.68267573696147	60	127
385.4969160997732	385.68267573696147	55	127
385.4969160997732	385.5897959183674	78	127
385.4969160997732	385.68267573696147	50	127
385.5897959183674	385.68267573696147	79	127
385.69428571428574	385.88004535147394	54	127
385.69428571428574	385.88004535147394	50	127
385.69428571428574	385.88004535147394	60	127
385.69428571428574	385.77555555555557	80	127
385.77555555555557	385.88004535147394	81	127
385.88004535147394	386.11224489795916	54	127
385.88004535147394	386.11224489795916	60	127
385.88004535147394	385.9845351473923	82	127
385.88004535147394	386.11224489795916	50	127
385.9961451247166	386.11224489795916	83	127
386.11224489795916	386.3560544217687	50	127
386.11224489795916	386.28639455782314	84	127
386.11224489795916	386.3560544217687	60	127
386.11224489795916	386.3560544217687	54	127
386.2167346938775	386.3560544217687	85	127
386.2980045351474	386.3560544217687	86	127
386.367664399093	386.55342403628117	43	127
386.367664399093	386.7624036281179	79	127
386.4489342403628	386.65791383219954	55	127
386.56503401360544	386.7624036281179	54	127
386.65791383219954	386.84367346938774	55	127
386.7624036281179	386.9481632653061	53	127
386.855283446712	387.0410430839002	55	127
386.9481632653061	387.1455328798186	52	127
387.0526530612245	387.25002267573694	55	127
387.1455328798186	387.3893424036281	53	127
387.25002267573694	387.4938321995465	55	127
387.4009523809524	387.59832199546486	52	127
387.4938321995465	387.59832199546486	55	127
387.59832199546486	387.8653514739229	50	127
387.69120181405896	387.958231292517	55	127
387.8653514739229	388.0743310657596	52	127
387.96984126984125	388.19043083900226	55	127
388.0743310657596	388.28331065759636	50	127
388.19043083900226	388.3878004535147	55	127
388.29492063492063	388.4922902494331	48	127
388.3878004535147	388.60839002267574	55	127
388.50390022675737	388.7128798185941	50	127
388.60839002267574	388.8173696145125	55	127
388.7128798185941	388.9334693877551	48	127
388.82897959183674	388.9334693877551	55	127
388.9334693877551	389.1308390022676	47	127
389.0379591836735	389.23532879818595	55	127
389.1308390022676	389.3398185941043	48	127
389.23532879818595	389.45591836734695	55	127
389.3514285714286	389.5604081632653	47	127
389.45591836734695	389.6532879818594	55	127
389.5604081632653	389.76938775510206	45	127
389.5604081632653	389.6881179138322	78	127
389.6300680272109	389.76938775510206	79	127
389.6648979591837	389.8738775510204	55	127
389.6881179138322	389.8506575963719	78	127
389.76938775510206	389.98997732426307	43	127
389.76938775510206	389.9087074829932	79	127
389.8506575963719	389.98997732426307	78	127
389.8854875283447	390.0944671201814	55	127
389.92031746031745	390.0596371882086	79	127
389.98997732426307	390.2221768707483	45	127
389.98997732426307	390.1176870748299	78	127
390.0596371882086	390.2221768707483	76	127
390.0944671201814	390.2221768707483	55	127
390.1292970521542	390.2221768707483	78	127
390.23378684807255	390.431156462585	43	127
390.23378684807255	390.6633560090703	79	127
390.32666666666665	390.55886621315193	55	127
390.4427664399093	390.6633560090703	45	127
390.55886621315193	390.7562358276644	55	127
390.6633560090703	390.86072562358277	43	127
390.76784580498867	391.00004535147394	55	127
390.86072562358277	391.09292517006804	45	127
390.86072562358277	391.0232653061224	78	127
390.96521541950113	391.09292517006804	79	127
391.00004535147394	391.2554648526077	55	127
391.0348752834467	391.2090249433107	78	127
391.09292517006804	391.37156462585034	43	127
391.09292517006804	391.2902947845805	79	127
391.2090249433107	391.37156462585034	78	127
391.2554648526077	391.487664399093	55	127
391.2902947845805	391.45283446712017	79	127
391.3947845804989	391.53410430839	78	127
391.3947845804989	391.6153741496599	45	127
391.45283446712017	391.6153741496599	76	127
391.487664399093	391.6153741496599	55	127
391.53410430839	391.6153741496599	78	127
391.6153741496599	391.8243537414966	31	127
391.6153741496599	391.8243537414966	79	127
391.73147392290247	391.9172335600907	43	127
391.8243537414966	392.0217233560091	67	127
391.8243537414966	392.0217233560091	42	127
391.8243537414966	392.0217233560091	55	127
391.928843537415	392.1146031746032	43	127
392.0217233560091	392.21909297052156	67	127
392.0217233560091	392.21909297052156	55	127
392.0217233560091	392.21909297052156	41	127
392.1146031746032	392.3351927437642	43	127
392.2307029478458	392.4280725623583	40	127
392.2307029478458	392.4280725623583	67	127
392.2307029478458	392.4280725623583	55	127
392.3351927437642	392.53256235827666	43	127
392.43968253968256	392.63705215419503	69	127
392.43968253968256	392.63705215419503	41	127
392.43968253968256	392.63705215419503	57	127
392.53256235827666	392.77637188208615	43	127
392.63705215419503	392.90408163265306	40	127
392.63705215419503	392.90408163265306	55	127
392.63705215419503	392.90408163265306	67	127
392.7879818594104	392.90408163265306	43	127
392.90408163265306	393.08984126984126	38	127
392.90408163265306	393.08984126984126	65	127
392.90408163265306	393.08984126984126	53	127
393.00857142857143	393.2059410430839	43	127
393.1014512471655	393.32204081632653	55	127
393.1014512471655	393.32204081632653	67	127
393.1014512471655	393.32204081632653	40	127
393.2059410430839	393.4265306122449	43	127
393.3336507936508	393.519410430839	38	127
393.3336507936508	393.519410430839	65	127
393.3336507936508	393.519410430839	53	127
393.4265306122449	393.62390022675737	43	127
393.519410430839	393.76321995464855	36	127
393.519410430839	393.76321995464855	64	127
393.519410430839	393.76321995464855	52	127
393.63551020408164	393.85609977324265	43	127
393.76321995464855	393.9838095238095	53	127
393.76321995464855	393.9838095238095	65	127
393.76321995464855	393.9838095238095	38	127
393.8677097505669	394.09990929705214	43	127
393.9838095238095	394.26244897959185	36	127
393.9838095238095	394.26244897959185	64	127
393.9838095238095	394.26244897959185	52	127
394.09990929705214	394.26244897959185	43	127
394.2740589569161	394.5178684807256	50	127
394.2740589569161	394.5178684807256	62	127
394.2740589569161	394.5178684807256	35	127
394.3901587301587	394.6107482993197	43	127
394.5178684807256	394.7152380952381	36	127
394.5178684807256	394.7152380952381	64	127
394.5178684807256	394.7152380952381	52	127
394.622358276644	394.8081179138322	43	127
394.7152380952381	394.91260770975055	62	127
394.7152380952381	394.91260770975055	35	127
394.7152380952381	394.91260770975055	50	127
394.81972789115645	395.0287074829932	43	127
394.91260770975055	395.1448072562358	33	127
394.91260770975055	395.1448072562358	60	127
394.91260770975055	395.1448072562358	48	127
395.0287074829932	395.284126984127	43	127
395.1564172335601	395.3770068027211	31	127
395.1564172335601	395.3770068027211	59	127
395.1564172335601	395.3770068027211	47	127
395.284126984127	395.49310657596374	43	127
395.38861678004537	395.6092063492064	60	127
395.38861678004537	395.6092063492064	48	127
395.38861678004537	395.6092063492064	33	127
395.49310657596374	395.6092063492064	43	127
395.6092063492064	395.8181859410431	31	127
395.6092063492064	395.8181859410431	59	127
395.6092063492064	395.8181859410431	47	127
395.72530612244896	395.9226757369614	43	127
395.8181859410431	396.0155555555556	48	127
395.8181859410431	396.0155555555556	60	127
395.8181859410431	396.0155555555556	33	127
395.9226757369614	396.12004535147395	43	127
396.0155555555556	396.21292517006805	47	127
396.0155555555556	396.21292517006805	59	127
396.0155555555556	396.21292517006805	31	127
396.12004535147395	396.3174149659864	43	127
396.2245351473923	396.49156462585034	33	127
396.2245351473923	396.49156462585034	48	127
396.2245351473923	396.49156462585034	60	127
396.3174149659864	396.5960544217687	43	127
396.49156462585034	396.7237641723356	47	127
396.49156462585034	396.7237641723356	59	127
396.49156462585034	396.7237641723356	31	127
396.61927437641725	396.8166439909297	43	127
396.7237641723356	396.99079365079365	48	127
396.7237641723356	396.99079365079365	33	127
396.7237641723356	396.99079365079365	60	127
396.828253968254	396.99079365079365	43	127
396.99079365079365	397.1881632653061	31	127
396.99079365079365	397.4203628117914	47	127
396.99079365079365	397.4203628117914	59	127
397.095283446712	397.30426303854875	43	127
397.1997732426304	397.4203628117914	32	127
397.30426303854875	397.53646258503403	43	127
397.44358276643993	397.6641723356009	31	127
397.53646258503403	397.75705215419504	43	127
397.6641723356009	397.8615419501134	32	127
397.6641723356009	397.7918820861678	78	127
397.7338321995465	397.8615419501134	79	127
397.76866213151925	397.9660317460318	43	127
397.80349206349206	397.93120181405897	78	127
397.8615419501134	397.98925170068026	79	127
397.8615419501134	398.0705215419501	31	127
397.93120181405897	398.0705215419501	78	127
397.9660317460318	398.1866213151927	43	127
398.0008616780045	398.1401814058957	79	127
398.08213151927436	398.22145124716553	78	127
398.08213151927436	398.2911111111111	32	127
398.1401814058957	398.2911111111111	76	127
398.1866213151927	398.2911111111111	43	127
398.22145124716553	398.2911111111111	78	127
398.31433106575963	398.5117006802721	31	127
398.31433106575963	398.7903401360544	79	127
398.40721088435373	398.6510204081633	43	127
398.5117006802721	398.7903401360544	32	127
398.66263038548755	398.88321995464855	43	127
398.7903401360544	398.9877097505669	31	127
398.89482993197277	399.1038095238095	43	127
398.9877097505669	399.1386394557823	78	127
398.9877097505669	399.1966893424036	32	127
399.06897959183675	399.1966893424036	79	127
399.1038095238095	399.31278911564624	43	127
399.1386394557823	399.2779591836735	78	127
399.20829931972787	399.4172789115646	31	127
399.20829931972787	399.34761904761905	79	127
399.2779591836735	399.4172789115646	78	127
399.31278911564624	399.4985487528345	43	127
399.34761904761905	399.47532879818596	79	127
399.4172789115646	399.6030385487528	32	127
399.4172789115646	399.53337868480725	78	127
399.4869387755102	399.6030385487528	76	127
399.4985487528345	399.6030385487528	43	127
399.53337868480725	399.6030385487528	78	127
399.6030385487528	399.78879818594106	31	127
399.6030385487528	400.00938775510207	79	127
399.69591836734696	399.9165079365079	43	127
399.78879818594106	400.00938775510207	35	127
399.9165079365079	400.12548752834465	43	127
400.0209977324263	400.21836734693875	31	127
400.12548752834465	400.3228571428571	43	127
400.229977324263	400.4273469387755	35	127
400.3228571428571	400.52022675736964	43	127
400.4273469387755	400.65954648526076	31	127
400.53183673469385	400.76403628117913	43	127
400.65954648526076	400.8685260770975	35	127
400.76403628117913	400.9614058956916	43	127
400.8685260770975	401.06589569160997	31	127
400.97301587301587	401.17038548752834	43	127
401.07750566893424	401.286485260771	74	127
401.07750566893424	401.286485260771	35	127
401.1819954648526	401.39097505668934	43	127
401.1819954648526	401.39097505668934	62	127
401.286485260771	401.48385487528344	71	127
401.286485260771	401.48385487528344	31	127
401.39097505668934	401.5883446712018	43	127
401.39097505668934	401.5883446712018	62	127
401.4954648526077	401.6928344671202	74	127
401.4954648526077	401.6928344671202	35	127
401.5883446712018	401.79732426303855	62	127
401.5883446712018	401.79732426303855	43	127
401.70444444444445	401.9018140589569	31	127
401.70444444444445	401.9018140589569	71	127
401.79732426303855	402.01791383219955	43	127
401.79732426303855	402.01791383219955	62	127
401.9018140589569	402.14562358276646	35	127
401.9018140589569	402.14562358276646	74	127
402.01791383219955	402.14562358276646	43	127
402.01791383219955	402.14562358276646	62	127
402.14562358276646	402.55197278911567	31	127
402.14562358276646	402.55197278911567	71	127
402.64485260770977	403.097641723356	30	127
402.64485260770977	403.097641723356	50	127
402.64485260770977	403.097641723356	62	127
402.64485260770977	403.097641723356	59	127
402.64485260770977	403.097641723356	43	127
403.30662131519273	404.18897959183676	55	127
403.30662131519273	404.18897959183676	31	127
403.30662131519273	404.18897959183676	43	127
403.30662131519273	404.18897959183676	50	127
403.30662131519273	404.18897959183676	59	127
