# onset,offset,note,velocity
0.707437641723356	1.5201360544217688	67	127
1.5317460317460319	2.181904761904762	46	127
1.5317460317460319	2.739183673469388	68	127
2.193514739229025	2.9133333333333336	58	127
2.750793650793651	2.9133333333333336	65	127
2.9249433106575964	3.447392290249433	70	127
2.9249433106575964	3.6099319727891155	56	127
3.447392290249433	3.6099319727891155	62	127
3.6099319727891155	5.026349206349207	63	127
3.6099319727891155	4.271700680272109	55	127
4.283310657596372	5.026349206349207	51	127
5.037959183673469	5.363038548752835	65	127
5.037959183673469	5.688117913832199	50	127
5.363038548752835	5.513968253968254	68	127
5.525578231292517	5.688117913832199	67	127
5.699727891156463	6.384716553287982	51	127
5.699727891156463	7.104535147392291	67	127
6.396326530612245	7.104535147392291	49	127
7.104535147392291	7.52249433106576	48	127
7.104535147392291	7.325124716553288	68	127
7.2090249433106575	7.429614512471655	70	127
7.325124716553288	7.52249433106576	68	127
7.4412244897959186	7.615374149659864	70	127
7.534104308390023	7.719863945578231	72	127
7.534104308390023	7.90562358276644	44	127
7.731473922902494	7.90562358276644	70	127
7.917233560090703	9.368480725623582	70	127
7.917233560090703	8.637052154195011	51	127
8.648639455782313	9.368480725623582	55	127
9.380090702947847	10.12312925170068	51	127
9.380090702947847	9.577460317460318	75	127
9.577460317460318	9.751609977324263	74	127
9.751609977324263	9.937369614512471	72	127
9.948956916099773	10.12312925170068	70	127
10.134739229024943	11.469863945578231	70	127
10.134739229024943	10.750068027210885	50	127
10.750068027210885	11.469863945578231	46	127
11.481496598639456	12.14326530612245	47	127
11.481496598639456	11.620816326530612	70	127
11.57437641723356	11.818163265306122	68	127
11.818163265306122	12.003945578231292	67	127
12.003945578231292	12.14326530612245	68	127
12.154875283446712	12.828253968253968	48	127
12.154875283446712	12.294195011337868	67	127
12.236145124716554	12.387074829931972	68	127
12.305804988662132	12.468344671201814	70	127
12.398684807256236	12.828253968253968	68	127
12.839863945578232	13.571292517006803	36	127
12.839863945578232	13.571292517006803	67	127
13.582902494331066	13.699002267573697	65	127
13.582902494331066	14.302721088435375	44	127
13.582902494331066	14.302721088435375	53	127
13.640952380952381	13.757052154195012	67	127
13.699002267573697	13.815102040816326	65	127
13.768662131519275	13.931201814058957	64	127
13.849931972789115	14.012471655328799	65	127
13.94281179138322	14.105351473922903	68	127
14.116961451247166	14.302721088435375	72	127
14.302721088435375	14.952879818594104	54	127
14.302721088435375	14.952879818594104	45	127
14.302721088435375	14.685850340136055	72	127
14.685850340136055	15.289569160997733	63	127
14.952879818594104	15.637868480725624	46	127
14.952879818594104	15.637868480725624	55	127
15.289569160997733	15.475328798185942	65	127
15.382448979591837	15.54498866213152	63	127
15.475328798185942	15.637868480725624	62	127
15.54498866213152	15.730748299319728	63	127
15.649478458049886	16.20673469387755	67	127
15.649478458049886	16.39251700680272	46	127
15.649478458049886	16.39251700680272	62	127
15.649478458049886	16.39251700680272	34	127
16.218367346938777	16.39251700680272	65	127
16.404126984126986	17.089115646258502	63	127
16.404126984126986	17.089115646258502	39	127
17.100702947845804	17.971473922902494	51	127
18.772562358276645	19.41111111111111	34	127
19.004761904761907	19.236961451247165	53	127
19.248571428571427	19.41111111111111	58	127
19.422721088435374	20.08448979591837	46	127
19.67814058956916	19.86390022675737	53	127
19.67814058956916	19.86390022675737	50	127
19.86390022675737	20.08448979591837	58	127
20.09609977324263	20.792698412698414	44	127
20.32829931972789	20.537278911564627	50	127
20.32829931972789	20.537278911564627	53	127
20.54888888888889	20.792698412698414	58	127
20.792698412698414	21.41963718820862	43	127
21.001678004535147	21.222244897959182	55	127
21.001678004535147	21.222244897959182	51	127
21.222244897959182	21.41963718820862	58	127
21.43124716553288	21.988526077097507	39	127
21.675056689342405	21.907256235827663	55	127
21.675056689342405	21.907256235827663	51	127
21.918843537414965	21.988526077097507	58	127
22.00013605442177	22.73156462585034	38	127
22.232312925170067	22.46453514739229	56	127
22.232312925170067	22.46453514739229	53	127
22.476145124716552	22.73156462585034	58	127
22.74315192743764	23.45138321995465	39	127
23.010204081632654	23.242403628117913	58	127
23.010204081632654	23.242403628117913	55	127
23.242403628117913	23.45138321995465	63	127
23.462993197278912	23.79968253968254	51	127
23.69517006802721	23.892562358276646	58	127
23.69517006802721	23.892562358276646	55	127
23.79968253968254	24.10154195011338	49	127
23.892562358276646	24.10154195011338	63	127
24.10154195011338	24.461451247165535	48	127
24.345351473922904	24.5659410430839	60	127
24.345351473922904	24.5659410430839	56	127
24.473061224489797	24.809750566893424	44	127
24.5659410430839	24.809750566893424	63	127
24.821360544217686	25.541179138321997	39	127
24.821360544217686	25.541179138321997	51	127
25.05356009070295	25.28575963718821	58	127
25.05356009070295	25.28575963718821	55	127
25.297369614512473	25.541179138321997	63	127
25.55278911564626	26.191337868480726	43	127
25.55278911564626	26.191337868480726	55	127
25.784988662131518	26.01718820861678	58	127
26.028798185941042	26.191337868480726	63	127
26.20294784580499	26.922766439909296	39	127
26.20294784580499	26.922766439909296	51	127
26.458367346938775	26.67895691609977	55	127
26.67895691609977	26.922766439909296	58	127
26.934376417233562	27.65419501133787	38	127
26.934376417233562	27.65419501133787	50	127
27.178185941043083	27.38716553287982	53	127
27.398775510204082	27.65419501133787	58	127
27.65419501133787	28.35079365079365	46	127
27.65419501133787	28.35079365079365	34	127
27.88639455782313	28.13020408163265	53	127
28.13020408163265	28.35079365079365	62	127
28.362403628117914	28.977732426303856	47	127
28.362403628117914	28.977732426303856	35	127
28.571383219954647	28.757142857142856	56	127
28.571383219954647	28.757142857142856	53	127
28.76875283446712	28.977732426303856	62	127
28.989342403628118	29.6859410430839	36	127
28.989342403628118	29.6859410430839	48	127
29.209931972789114	29.442131519274376	53	127
29.209931972789114	29.442131519274376	56	127
29.45374149659864	29.6859410430839	62	127
29.697551020408163	30.382539682539683	36	127
29.941360544217687	30.13873015873016	55	127
29.941360544217687	30.13873015873016	51	127
30.13873015873016	30.382539682539683	63	127
30.394149659863945	31.12557823129252	32	127
30.394149659863945	31.12557823129252	44	127
30.626349206349207	30.87015873015873	51	127
30.626349206349207	30.87015873015873	53	127
30.881768707482994	31.12557823129252	60	127
31.12557823129252	31.89183673469388	45	127
31.12557823129252	31.89183673469388	33	127
31.392607709750568	31.648027210884354	54	127
31.392607709750568	31.648027210884354	51	127
31.648027210884354	31.89183673469388	60	127
31.90344671201814	32.64648526077097	34	127
31.90344671201814	32.64648526077097	46	127
32.14725623582766	32.391065759637186	51	127
32.14725623582766	32.391065759637186	55	127
32.40267573696145	32.64648526077097	58	127
32.65807256235828	33.41274376417233	34	127
32.92510204081633	33.16891156462585	50	127
32.92510204081633	33.16891156462585	56	127
33.180521541950114	33.41274376417233	58	127
33.42433106575964	34.22544217687075	39	127
33.42433106575964	34.22544217687075	51	127
33.42433106575964	34.22544217687075	55	127
34.23705215419501	35.119410430839004	51	127
35.131020408163266	35.90888888888889	67	127
35.90888888888889	37.302086167800454	62	127
35.90888888888889	37.302086167800454	59	127
35.90888888888889	37.302086167800454	67	127
37.313696145124716	37.81292517006803	68	127
37.313696145124716	37.81292517006803	63	127
37.313696145124716	37.81292517006803	60	127
37.313696145124716	37.95224489795918	67	127
37.82453514739229	37.95224489795918	71	127
37.82453514739229	37.95224489795918	65	127
37.82453514739229	37.95224489795918	62	127
37.963854875283445	39.39185941043084	63	127
37.963854875283445	39.39185941043084	72	127
37.963854875283445	39.39185941043084	67	127
39.39185941043084	39.97238095238095	65	127
39.39185941043084	39.97238095238095	62	127
39.39185941043084	40.158140589569165	67	127
39.39185941043084	39.97238095238095	70	127
39.983990929705215	40.158140589569165	69	127
39.983990929705215	40.158140589569165	60	127
39.983990929705215	40.158140589569165	63	127
40.158140589569165	41.4352380952381	67	127
40.158140589569165	40.71541950113379	62	127
40.158140589569165	40.71541950113379	58	127
40.72702947845805	41.4352380952381	58	127
40.72702947845805	41.4352380952381	50	127
41.36557823129252	41.516507936507935	70	127
41.44684807256236	42.20149659863946	66	127
41.44684807256236	42.20149659863946	60	127
41.44684807256236	41.99251700680272	69	127
41.44684807256236	42.20149659863946	50	127
42.004126984126984	42.20149659863946	67	127
42.21310657596372	42.56138321995465	67	127
42.21310657596372	42.93290249433107	58	127
42.21310657596372	42.93290249433107	55	127
42.573015873015876	42.93290249433107	79	127
42.93290249433107	43.24639455782313	79	127
43.24639455782313	43.55986394557823	79	127
43.55986394557823	44.198412698412696	59	127
43.55986394557823	44.198412698412696	62	127
43.55986394557823	43.80367346938775	79	127
43.815283446712016	44.198412698412696	79	127
44.198412698412696	45.521950113378686	62	127
44.198412698412696	45.521950113378686	59	127
44.198412698412696	44.5118820861678	79	127
44.523492063492064	44.8253514739229	79	127
44.836938775510205	45.19687074829932	79	127
45.19687074829932	45.521950113378686	79	127
45.53356009070295	45.835419501133785	79	127
45.53356009070295	45.99795918367347	60	127
45.53356009070295	45.99795918367347	63	127
45.84702947845805	46.19532879818594	79	127
46.009569160997735	46.19532879818594	62	127
46.009569160997735	46.19532879818594	65	127
46.19532879818594	47.4956462585034	63	127
46.19532879818594	47.4956462585034	67	127
46.19532879818594	46.61326530612245	79	127
46.61326530612245	46.938367346938776	79	127
46.94997732426304	47.24022675736961	79	127
47.25181405895692	47.4956462585034	79	127
47.4956462585034	47.809115646258505	79	127
47.4956462585034	47.99487528344671	62	127
47.4956462585034	47.99487528344671	65	127
47.82072562358277	48.134195011337866	79	127
48.00648526077097	48.134195011337866	60	127
48.00648526077097	48.134195011337866	63	127
48.14580498866213	48.80757369614513	62	127
48.14580498866213	48.470884353741496	79	127
48.14580498866213	48.80757369614513	58	127
48.470884353741496	48.80757369614513	79	127
48.81918367346939	49.504172335600906	58	127
48.81918367346939	49.504172335600906	50	127
49.179092970521545	49.504172335600906	79	127
49.504172335600906	50.17755102040816	50	127
49.504172335600906	50.17755102040816	60	127
49.81764172335601	50.17755102040816	78	127
50.17755102040816	50.827709750566896	79	127
50.17755102040816	50.827709750566896	55	127
50.17755102040816	50.827709750566896	58	127
50.73482993197279	50.920589569160995	82	127
50.827709750566896	51.37337868480726	81	127
50.827709750566896	51.53591836734694	62	127
50.827709750566896	51.53591836734694	72	127
51.38498866213152	51.53591836734694	79	127
51.53591836734694	52.10480725623583	79	127
51.53591836734694	52.10480725623583	67	127
51.53591836734694	52.10480725623583	70	127
52.10480725623583	52.80140589569161	62	127
52.10480725623583	52.80140589569161	50	127
52.47632653061225	52.80140589569161	72	127
52.47632653061225	52.80140589569161	78	127
52.47632653061225	52.80140589569161	74	127
52.81301587301587	53.45156462585034	43	127
52.81301587301587	53.45156462585034	55	127
53.10326530612245	53.45156462585034	74	127
53.10326530612245	53.45156462585034	79	127
53.10326530612245	53.45156462585034	70	127
53.3702947845805	53.544444444444444	82	127
53.4631746031746	53.93918367346939	81	127
53.4631746031746	54.11333333333334	72	127
53.4631746031746	54.11333333333334	62	127
53.95079365079365	54.11333333333334	79	127
54.11333333333334	54.6590022675737	79	127
54.11333333333334	54.6590022675737	67	127
54.11333333333334	54.6590022675737	70	127
54.67061224489796	55.30916099773243	50	127
54.67061224489796	55.30916099773243	62	127
54.99569160997732	55.30916099773243	78	127
54.99569160997732	55.30916099773243	72	127
54.99569160997732	55.30916099773243	74	127
55.30916099773243	55.92448979591837	55	127
55.30916099773243	55.92448979591837	43	127
55.61102040816326	55.92448979591837	74	127
55.61102040816326	55.92448979591837	70	127
55.61102040816326	55.92448979591837	79	127
55.92448979591837	56.58625850340136	38	127
55.92448979591837	56.58625850340136	50	127
56.23795918367347	56.58625850340136	72	127
56.23795918367347	56.58625850340136	74	127
56.23795918367347	56.58625850340136	78	127
56.59786848072562	57.143537414965984	43	127
56.59786848072562	57.143537414965984	55	127
56.86489795918367	57.143537414965984	79	127
56.86489795918367	57.143537414965984	74	127
56.86489795918367	57.143537414965984	70	127
57.155147392290246	57.85174603174603	50	127
57.155147392290246	57.85174603174603	38	127
57.5150566893424	57.85174603174603	74	127
57.5150566893424	57.85174603174603	78	127
57.5150566893424	57.85174603174603	72	127
57.85174603174603	58.200045351473925	70	127
57.85174603174603	58.467074829931974	43	127
57.85174603174603	58.200045351473925	74	127
57.85174603174603	58.467074829931974	55	127
57.85174603174603	58.200045351473925	79	127
58.200045351473925	58.76893424036281	67	127
58.78054421768707	59.98798185941043	67	127
59.999591836734695	60.89356009070295	67	127
60.89356009070295	61.07931972789115	66	127
61.07931972789115	61.32312925170068	67	127
61.32312925170068	61.50888888888889	66	127
61.50888888888889	61.71786848072562	67	127
61.71786848072562	61.89201814058957	66	127
61.89201814058957	62.05455782312925	67	127
62.05455782312925	62.228707482993194	66	127
62.228707482993194	62.36802721088436	67	127
62.36802721088436	62.5421768707483	66	127
62.5421768707483	62.80920634920635	67	127
62.82081632653061	63.447755102040816	46	127
62.82081632653061	63.981814058956914	68	127
63.45936507936508	64.17916099773242	58	127
63.993424036281176	64.17916099773242	65	127
64.17916099773242	64.81770975056689	56	127
64.17916099773242	64.6784126984127	70	127
64.6784126984127	64.81770975056689	62	127
64.81770975056689	66.24575963718821	63	127
64.81770975056689	65.50272108843538	55	127
65.51433106575963	66.24575963718821	51	127
66.25736961451247	66.95396825396826	50	127
66.25736961451247	66.6056462585034	65	127
66.6056462585034	66.76820861678004	68	127
66.77981859410431	66.95396825396826	67	127
66.95396825396826	67.61573696145125	51	127
66.95396825396826	68.30072562358276	67	127
67.61573696145125	68.30072562358276	49	127
68.31233560090703	68.48648526077098	68	127
68.31233560090703	68.68385487528344	48	127
68.40521541950113	68.57936507936508	70	127
68.49807256235827	68.68385487528344	68	127
68.59097505668935	68.77673469387756	70	127
68.68385487528344	68.86961451247166	72	127
68.68385487528344	69.05537414965987	44	127
68.86961451247166	69.05537414965987	70	127
69.06698412698412	69.77517006802721	51	127
69.06698412698412	70.49501133786848	70	127
69.78680272108843	70.49501133786848	55	127
70.50662131519275	70.68077097505669	75	127
70.50662131519275	71.2728798185941	51	127
70.69238095238096	70.87814058956916	74	127
70.88975056689343	71.07551020408164	72	127
71.0871201814059	71.2728798185941	70	127
71.2728798185941	72.64285714285714	70	127
71.2728798185941	71.91142857142857	50	127
71.92301587301587	72.64285714285714	46	127
72.64285714285714	73.25818594104308	47	127
72.64285714285714	72.82861678004535	70	127
72.74734693877551	73.0027664399093	68	127
73.01437641723356	73.15369614512471	67	127
73.16530612244898	73.25818594104308	68	127
73.26979591836735	73.4091156462585	67	127
73.26979591836735	73.95478458049887	48	127
73.36267573696145	73.49038548752834	68	127
73.4091156462585	73.58324263038548	70	127
73.49038548752834	73.95478458049887	68	127
73.96639455782314	74.68621315192743	36	127
73.96639455782314	74.68621315192743	67	127
74.68621315192743	74.7907029478458	65	127
74.68621315192743	75.4524716553288	53	127
74.68621315192743	75.4524716553288	44	127
74.74426303854875	74.84875283446712	67	127
74.80231292517007	74.90680272108844	65	127
74.84875283446712	75.04612244897959	64	127
74.96482993197279	75.15061224489796	65	127
75.05773242630386	75.25510204081633	68	127
75.2667120181406	75.4524716553288	72	127
75.46408163265306	75.84721088435374	72	127
75.46408163265306	76.19551020408163	54	127
75.46408163265306	76.19551020408163	45	127
75.84721088435374	76.47412698412698	63	127
76.19551020408163	76.84566893424036	55	127
76.19551020408163	76.84566893424036	46	127
76.48575963718821	76.65990929705215	65	127
76.57863945578231	76.7527664399093	63	127
76.67151927437642	76.84566893424036	62	127
76.76439909297052	76.95015873015873	63	127
76.85725623582766	77.64675736961452	46	127
76.85725623582766	77.64675736961452	62	127
76.85725623582766	77.44938775510204	67	127
76.85725623582766	77.64675736961452	34	127
77.4609977324263	77.64675736961452	65	127
77.65836734693877	78.35496598639456	39	127
77.65836734693877	78.35496598639456	63	127
78.36657596371882	79.20249433106576	51	127
79.21410430839002	79.99197278911565	62	127
79.21410430839002	79.99197278911565	59	127
80.0035827664399	81.33873015873016	59	127
80.0035827664399	81.33873015873016	62	127
80.0035827664399	80.37510204081633	43	127
80.37510204081633	80.68854875283446	55	127
80.70018140589569	80.99043083900227	55	127
81.00204081632653	81.33873015873016	55	127
81.33873015873016	81.69863945578231	55	127
81.33873015873016	81.87278911564626	60	127
81.33873015873016	81.87278911564626	63	127
81.71024943310658	82.0469387755102	55	127
81.88439909297053	82.0469387755102	65	127
81.88439909297053	82.0469387755102	62	127
82.05854875283447	82.44167800453515	55	127
82.05854875283447	83.41691609977325	63	127
82.05854875283447	83.41691609977325	67	127
82.44167800453515	82.77836734693878	55	127
82.77836734693878	83.10344671201814	55	127
83.11505668934241	83.41691609977325	55	127
83.4285260770975	83.93936507936507	65	127
83.4285260770975	83.7768253968254	55	127
83.4285260770975	83.93936507936507	62	127
83.7768253968254	84.11349206349206	55	127
83.95097505668934	84.11349206349206	66	127
83.95097505668934	84.11349206349206	60	127
84.12512471655329	84.45020408163265	58	127
84.12512471655329	84.45020408163265	62	127
84.12512471655329	84.45020408163265	67	127
84.12512471655329	84.77528344671202	43	127
84.46181405895692	84.77528344671202	62	127
84.46181405895692	84.77528344671202	58	127
84.77528344671202	85.44866213151927	50	127
85.11195011337868	85.44866213151927	62	127
85.11195011337868	85.44866213151927	58	127
85.44866213151927	86.20331065759638	38	127
85.8201814058957	86.20331065759638	62	127
85.8201814058957	86.20331065759638	60	127
85.8201814058957	86.20331065759638	66	127
86.21492063492063	86.7721768707483	67	127
86.21492063492063	86.7721768707483	58	127
86.21492063492063	86.7721768707483	62	127
86.21492063492063	86.7721768707483	43	127
87.51521541950113	88.22344671201814	67	127
87.51521541950113	88.22344671201814	59	127
87.51521541950113	88.22344671201814	62	127
88.22344671201814	89.55857142857143	59	127
88.22344671201814	89.55857142857143	67	127
88.22344671201814	89.55857142857143	62	127
89.57020408163265	90.04619047619047	63	127
89.57020408163265	90.04619047619047	60	127
89.57020408163265	90.04619047619047	68	127
90.0578231292517	90.22036281179139	71	127
90.0578231292517	90.22036281179139	65	127
90.0578231292517	90.22036281179139	62	127
90.22036281179139	91.60195011337869	67	127
90.22036281179139	91.60195011337869	72	127
90.22036281179139	91.60195011337869	63	127
91.60195011337869	92.13600907029479	65	127
91.60195011337869	92.13600907029479	70	127
91.60195011337869	92.13600907029479	62	127
92.13600907029479	92.29854875283446	69	127
92.13600907029479	92.29854875283446	63	127
92.13600907029479	92.29854875283446	60	127
92.31015873015873	93.00675736961452	58	127
92.31015873015873	93.00675736961452	62	127
92.31015873015873	93.62206349206349	67	127
93.00675736961452	93.62206349206349	58	127
93.00675736961452	93.62206349206349	50	127
93.54081632653062	93.71496598639456	70	127
93.62206349206349	94.37673469387755	50	127
93.62206349206349	94.37673469387755	60	127
93.71496598639456	94.28385487528345	69	127
94.20258503401361	94.37673469387755	67	127
94.38832199546485	95.01528344671202	67	127
94.38832199546485	95.01528344671202	58	127
94.38832199546485	95.01528344671202	55	127
95.01528344671202	95.61900226757369	50	127
95.01528344671202	95.61900226757369	38	127
95.25909297052154	95.61900226757369	66	127
95.25909297052154	95.61900226757369	62	127
95.25909297052154	95.61900226757369	60	127
95.63061224489796	96.2459410430839	43	127
95.63061224489796	96.2459410430839	55	127
95.97891156462585	96.2459410430839	58	127
95.97891156462585	96.2459410430839	62	127
95.97891156462585	96.2459410430839	67	127
96.17628117913833	96.31560090702948	70	127
96.2459410430839	96.94253968253969	50	127
96.2459410430839	96.75678004535148	69	127
96.2459410430839	96.57102040816326	60	127
96.58263038548753	96.94253968253969	62	127
96.76839002267573	96.94253968253969	67	127
96.94253968253969	97.23278911564626	58	127
96.94253968253969	97.55786848072562	55	127
96.94253968253969	97.55786848072562	67	127
97.23278911564626	97.55786848072562	62	127
97.56947845804989	98.14997732426303	50	127
97.56947845804989	98.14997732426303	38	127
97.77845804988662	98.14997732426303	60	127
97.77845804988662	98.14997732426303	62	127
97.77845804988662	98.14997732426303	66	127
98.14997732426303	98.8233560090703	43	127
98.14997732426303	98.8233560090703	55	127
98.52149659863946	98.8233560090703	62	127
98.52149659863946	98.8233560090703	67	127
98.52149659863946	98.8233560090703	58	127
98.75369614512472	98.85818594104309	70	127
98.83496598639456	99.40385487528344	50	127
98.83496598639456	99.1019954648526	60	127
98.83496598639456	99.21809523809524	69	127
99.1019954648526	99.40385487528344	62	127
99.21809523809524	99.40385487528344	67	127
99.41546485260771	99.75215419501134	58	127
99.41546485260771	100.06562358276643	55	127
99.41546485260771	100.06562358276643	67	127
99.7637641723356	100.06562358276643	62	127
99.9843537414966	100.13528344671202	70	127
100.06562358276643	100.33265306122449	60	127
100.06562358276643	100.50680272108843	69	127
100.06562358276643	100.65773242630385	50	127
100.33265306122449	100.65773242630385	62	127
100.50680272108843	100.65773242630385	67	127
100.66934240362812	101.22662131519274	55	127
100.66934240362812	101.22662131519274	67	127
100.66934240362812	100.95959183673469	58	127
100.97120181405896	101.22662131519274	62	127
101.16857142857143	101.33111111111111	70	127
101.238231292517	101.57492063492063	60	127
101.238231292517	101.73746031746032	69	127
101.238231292517	101.88839002267574	50	127
101.5865306122449	101.88839002267574	62	127
101.74907029478459	101.88839002267574	67	127
101.9	102.72430839002267	58	127
101.9	102.72430839002267	55	127
101.9	102.72430839002267	67	127
106.799410430839	107.54244897959184	34	127
106.97356009070295	107.35668934240363	50	127
107.17092970521541	107.54244897959184	53	127
107.35668934240363	107.72820861678005	58	127
107.5540589569161	108.29709750566893	46	127
107.7398185941043	108.09972789115646	50	127
107.92557823129252	108.29709750566893	53	127
108.11133786848073	108.49446712018141	58	127
108.3087074829932	109.06335600907029	44	127
108.49446712018141	108.87759637188209	50	127
108.69183673469388	109.06335600907029	53	127
108.88920634920635	109.06335600907029	58	127
109.07496598639456	109.73673469387755	43	127
109.2491156462585	109.53936507936508	51	127
109.3768253968254	109.73673469387755	55	127
109.53936507936508	109.89927437641724	58	127
109.73673469387755	110.42172335600907	39	127
109.89927437641724	110.23596371882086	51	127
110.08503401360544	110.42172335600907	55	127
110.24757369614512	110.60748299319728	58	127
110.43333333333334	111.15315192743765	38	127
110.61909297052154	110.97900226757369	53	127
110.79324263038549	111.15315192743765	56	127
110.97900226757369	111.15315192743765	58	127
111.1647619047619	111.89619047619047	39	127
111.35052154195012	111.71043083900227	55	127
111.53628117913833	111.89619047619047	58	127
111.72204081632653	112.07034013605443	63	127
111.90780045351474	112.19804988662132	51	127
112.07034013605443	112.39541950113379	55	127
112.19804988662132	112.581179138322	49	127
112.19804988662132	112.581179138322	58	127
112.40702947845806	112.75532879818594	63	127
112.59278911564626	112.94108843537416	48	127
112.7669387755102	113.13845804988662	56	127
112.95269841269841	113.32421768707484	60	127
112.95269841269841	113.32421768707484	44	127
113.13845804988662	113.32421768707484	63	127
113.32421768707484	114.07886621315193	51	127
113.50997732426303	113.89310657596371	55	127
113.70734693877552	114.07886621315193	58	127
113.90471655328798	114.25301587301587	63	127
114.0904761904762	114.79868480725624	39	127
114.26462585034014	114.63614512471655	55	127
114.45038548752835	114.79868480725624	58	127
114.63614512471655	114.98444444444445	63	127
114.81029478458049	115.50689342403628	39	127
114.81029478458049	115.50689342403628	51	127
114.9960544217687	115.3443537414966	55	127
115.18181405895692	115.50689342403628	58	127
115.35596371882086	115.50689342403628	55	127
115.51850340136055	116.16866213151927	38	127
115.51850340136055	116.16866213151927	50	127
115.68104308390022	116.02934240362812	53	127
115.85519274376418	116.16866213151927	58	127
116.04095238095238	116.34281179138323	53	127
116.18027210884354	116.90009070294785	34	127
116.18027210884354	116.90009070294785	46	127
116.35442176870748	116.71433106575964	53	127
116.5401814058957	116.90009070294785	62	127
116.71433106575964	117.08585034013605	53	127
116.90009070294785	117.61990929705216	47	127
116.90009070294785	117.61990929705216	35	127
117.08585034013605	117.4457596371882	53	127
117.27160997732426	117.61990929705216	56	127
117.45736961451247	117.61990929705216	62	127
117.63151927437642	118.33972789115646	48	127
117.63151927437642	118.33972789115646	36	127
117.80566893424036	118.15396825396826	53	127
117.99142857142857	118.33972789115646	56	127
118.15396825396826	118.53709750566894	62	127
118.35133786848073	119.04793650793651	36	127
118.5487074829932	118.87378684807257	51	127
118.71124716553288	119.04793650793651	55	127
118.88539682539682	119.23369614512471	60	127
119.05954648526077	119.79097505668935	32	127
119.05954648526077	119.79097505668935	44	127
119.23369614512471	119.59360544217687	51	127
119.3962358276644	119.79097505668935	53	127
119.60521541950114	119.79097505668935	60	127
119.8025850340136	120.54562358276644	45	127
119.8025850340136	120.54562358276644	33	127
119.98834467120182	120.35986394557823	51	127
120.17410430839003	120.54562358276644	54	127
120.35986394557823	120.69655328798186	60	127
120.54562358276644	121.25383219954648	34	127
120.54562358276644	121.25383219954648	46	127
120.69655328798186	121.06807256235828	55	127
120.69655328798186	121.06807256235828	51	127
120.89392290249432	121.25383219954648	58	127
121.07968253968254	121.47442176870749	55	127
121.07968253968254	121.47442176870749	51	127
121.26544217687075	122.05492063492063	34	127
121.48603174603174	121.85755102040817	56	127
121.67179138321995	122.05492063492063	50	127
121.86916099773242	122.05492063492063	56	127
122.0665306122449	122.68185941043085	55	127
122.0665306122449	122.68185941043085	39	127
122.0665306122449	122.68185941043085	51	127
122.6934693877551	123.47133786848073	51	127
124.44657596371881	125.20122448979592	39	127
124.69038548752835	124.92258503401361	55	127
124.69038548752835	124.92258503401361	58	127
124.93419501133786	125.20122448979592	55	127
124.93419501133786	125.20122448979592	58	127
125.21283446712017	125.85138321995466	34	127
125.4566439909297	125.70045351473922	55	127
125.4566439909297	125.70045351473922	58	127
125.71206349206349	125.85138321995466	55	127
125.71206349206349	125.85138321995466	58	127
125.86299319727891	126.50154195011338	39	127
126.06036281179138	126.25773242630386	55	127
126.06036281179138	126.25773242630386	58	127
126.25773242630386	126.50154195011338	55	127
126.25773242630386	126.50154195011338	58	127
126.51315192743765	127.16331065759637	34	127
126.72213151927437	126.90789115646258	58	127
126.72213151927437	126.90789115646258	56	127
126.91950113378685	127.16331065759637	56	127
126.91950113378685	127.16331065759637	58	127
127.16331065759637	127.77863945578231	41	127
127.39551020408163	127.54643990929705	56	127
127.39551020408163	127.54643990929705	58	127
127.54643990929705	127.77863945578231	56	127
127.54643990929705	127.77863945578231	58	127
127.79024943310658	128.46362811791383	34	127
127.96439909297052	128.20820861678004	58	127
127.96439909297052	128.20820861678004	56	127
128.2198185941043	128.46362811791383	56	127
128.2198185941043	128.46362811791383	58	127
128.4752380952381	129.1137641723356	44	127
128.7074149659864	128.90480725623584	53	127
128.7074149659864	128.90480725623584	58	127
128.7074149659864	128.90480725623584	50	127
128.91641723356008	129.1137641723356	58	127
128.91641723356008	129.1137641723356	53	127
128.91641723356008	129.1137641723356	50	127
129.12539682539682	129.82199546485262	34	127
129.3808163265306	129.62460317460318	58	127
129.3808163265306	129.62460317460318	50	127
129.3808163265306	129.62460317460318	53	127
129.62460317460318	129.82199546485262	58	127
129.62460317460318	129.82199546485262	53	127
129.62460317460318	129.82199546485262	50	127
129.83360544217686	130.4837641723356	44	127
130.05419501133787	130.22834467120182	58	127
130.05419501133787	130.22834467120182	53	127
130.05419501133787	130.22834467120182	50	127
130.23993197278912	130.4837641723356	58	127
130.23993197278912	130.4837641723356	53	127
130.23993197278912	130.4837641723356	50	127
130.4837641723356	131.1571201814059	34	127
130.72757369614513	130.95977324263038	58	127
130.72757369614513	130.95977324263038	55	127
130.72757369614513	130.95977324263038	51	127
130.95977324263038	131.1571201814059	51	127
130.95977324263038	131.1571201814059	58	127
130.95977324263038	131.1571201814059	55	127
131.1687528344671	131.88857142857142	43	127
131.4125396825397	131.66795918367347	51	127
131.4125396825397	131.66795918367347	58	127
131.4125396825397	131.66795918367347	55	127
131.6795918367347	131.88857142857142	58	127
131.6795918367347	131.88857142857142	51	127
131.6795918367347	131.88857142857142	55	127
131.9001814058957	132.50390022675737	34	127
132.09755102040816	132.26009070294785	58	127
132.09755102040816	132.26009070294785	51	127
132.09755102040816	132.26009070294785	55	127
132.27170068027212	132.50390022675737	58	127
132.27170068027212	132.50390022675737	55	127
132.27170068027212	132.50390022675737	51	127
132.51551020408164	133.15403628117915	39	127
132.73609977324264	132.91024943310657	58	127
132.73609977324264	132.91024943310657	55	127
132.91024943310657	133.15403628117915	58	127
132.91024943310657	133.15403628117915	55	127
133.16566893424036	133.72294784580498	34	127
133.32820861678005	133.49074829931973	58	127
133.32820861678005	133.49074829931973	55	127
133.502358276644	133.72294784580498	58	127
133.502358276644	133.72294784580498	55	127
133.72294784580498	134.45437641723356	39	127
133.97836734693877	134.21056689342404	55	127
133.97836734693877	134.21056689342404	58	127
134.21056689342404	134.45437641723356	55	127
134.21056689342404	134.45437641723356	58	127
134.46598639455783	135.11614512471655	34	127
134.70979591836735	134.87233560090704	58	127
134.70979591836735	134.87233560090704	56	127
134.8839455782313	135.11614512471655	56	127
134.8839455782313	135.11614512471655	58	127
135.12775510204082	135.708231292517	41	127
135.33673469387756	135.49927437641725	58	127
135.33673469387756	135.49927437641725	56	127
135.5108843537415	135.708231292517	56	127
135.5108843537415	135.708231292517	58	127
135.71986394557823	136.37	34	127
135.94045351473923	136.1378231292517	58	127
135.94045351473923	136.1378231292517	56	127
136.1378231292517	136.37	56	127
136.1378231292517	136.37	58	127
136.38163265306122	137.03179138321997	46	127
136.6138321995465	136.84603174603174	56	127
136.6138321995465	136.84603174603174	62	127
136.6138321995465	136.84603174603174	58	127
136.857641723356	137.03179138321997	62	127
136.857641723356	137.03179138321997	58	127
136.857641723356	137.03179138321997	56	127
137.03179138321997	137.6122902494331	34	127
137.25238095238095	137.38009070294785	62	127
137.25238095238095	137.38009070294785	58	127
137.25238095238095	137.38009070294785	56	127
137.38009070294785	137.6122902494331	62	127
137.38009070294785	137.6122902494331	58	127
137.38009070294785	137.6122902494331	56	127
137.62390022675737	138.3321088435374	46	127
137.85607709750568	138.09990929705216	58	127
137.85607709750568	138.09990929705216	56	127
137.85607709750568	138.09990929705216	62	127
138.11149659863946	138.3321088435374	62	127
138.11149659863946	138.3321088435374	56	127
138.11149659863946	138.3321088435374	58	127
138.34371882086168	138.64557823129252	39	127
138.6571882086168	138.9009977324263	51	127
138.91260770975057	139.1331746031746	55	127
139.14480725623582	139.3421768707483	58	127
139.35378684807256	139.55115646258503	63	127
139.55115646258503	139.7833560090703	67	127
139.7949433106576	139.99233560090704	70	127
140.00392290249434	140.23614512471656	69	127
140.24775510204083	140.45673469387756	68	127
140.4683446712018	141.1301133786848	67	127
140.4683446712018	141.1301133786848	51	127
140.67732426303854	140.92111111111112	55	127
140.92111111111112	141.1301133786848	58	127
141.1301133786848	142.11696145124716	70	127
141.1301133786848	141.81510204081633	46	127
141.37392290249434	141.6061224489796	55	127
141.61773242630386	141.81510204081633	58	127
141.81510204081633	142.46526077097505	51	127
142.00086167800453	142.2330612244898	55	127
142.12857142857143	142.46526077097505	75	127
142.24467120181407	142.46526077097505	58	127
142.47687074829932	143.17344671201815	75	127
142.47687074829932	143.17344671201815	46	127
142.70904761904762	142.94126984126984	56	127
142.9528798185941	143.17344671201815	58	127
143.18507936507936	144.22997732426305	74	127
143.18507936507936	143.85845804988662	53	127
143.40566893424037	143.6146485260771	56	127
143.62625850340137	143.85845804988662	58	127
143.85845804988662	144.6014739229025	46	127
144.1138775510204	144.35768707482993	56	127
144.24156462585034	144.6014739229025	75	127
144.35768707482993	144.6014739229025	58	127
144.6131065759637	145.85537414965987	77	127
144.75240362811792	144.94979591836736	58	127
144.96138321995466	145.17038548752834	56	127
145.17038548752834	145.85537414965987	46	127
145.37936507936507	145.61156462585035	56	127
145.62315192743765	145.85537414965987	58	127
145.86698412698414	146.34297052154196	74	127
146.08755102040817	146.2849433106576	58	127
146.29655328798185	146.52875283446713	56	127
146.35460317460317	146.52875283446713	70	127
146.52875283446713	147.21374149659863	70	127
146.52875283446713	147.21374149659863	46	127
146.74931972789116	146.95832199546484	55	127
146.9699319727891	147.21374149659863	58	127
147.21374149659863	147.58526077097505	75	127
147.46916099773242	147.7013605442177	58	127
147.7013605442177	147.8871201814059	55	127
147.89873015873016	148.63015873015874	46	127
147.89873015873016	148.43278911564627	70	127
148.13090702947846	148.36312925170068	55	127
148.37473922902495	148.63015873015874	58	127
148.43278911564627	148.63015873015874	68	127
148.63015873015874	149.24548752834468	51	127
148.63015873015874	149.1061678004535	67	127
148.83913832199548	149.04809523809524	55	127
149.05972789115646	149.24548752834468	58	127
149.11777777777777	149.24548752834468	68	127
149.25707482993198	149.72149659863945	70	127
149.25707482993198	149.87242630385487	46	127
149.4892970521542	149.66342403628119	55	127
149.6750566893424	149.87242630385487	58	127
149.73310657596372	149.87242630385487	72	127
149.88403628117914	150.5574149659864	51	127
149.88403628117914	150.3716553287982	74	127
150.10462585034014	150.31360544217688	55	127
150.32519274376418	150.5574149659864	58	127
150.38326530612244	150.5574149659864	75	127
150.5574149659864	151.20757369614512	75	127
150.5574149659864	151.20757369614512	46	127
150.7895918367347	150.97537414965987	56	127
150.97537414965987	151.20757369614512	58	127
151.2191836734694	151.90417233560092	53	127
151.2191836734694	152.2524716553288	74	127
151.4513605442177	151.69519274376418	56	127
151.70678004535148	151.90417233560092	58	127
151.90417233560092	152.62399092970523	46	127
152.1595918367347	152.38018140589568	56	127
152.26408163265307	152.62399092970523	75	127
152.39179138321995	152.62399092970523	58	127
152.63560090702947	152.7517006802721	76	127
152.7517006802721	152.90263038548753	77	127
152.79814058956916	153.0071201814059	58	127
152.90263038548753	153.07678004535148	76	127
153.01873015873016	153.2392970521542	56	127
153.08836734693878	153.2392970521542	77	127
153.2509297052154	153.40185941043083	76	127
153.2509297052154	153.9475283446712	46	127
153.4134693877551	153.55278911564625	77	127
153.47151927437642	153.68049886621316	53	127
153.56439909297052	153.75013605442177	79	127
153.69210884353743	153.9475283446712	56	127
153.761768707483	153.9475283446712	77	127
153.9475283446712	154.65573696145125	46	127
153.9475283446712	154.11004535147393	75	127
154.11004535147393	154.28421768707483	74	127
154.17972789115646	154.41192743764174	53	127
154.2958276643991	154.46995464852608	72	127
154.41192743764174	154.65573696145125	56	127
154.4815873015873	154.65573696145125	70	127
154.66734693877552	155.0272335600907	51	127
154.66734693877552	154.84149659863945	70	127
154.66734693877552	155.0272335600907	39	127
154.85310657596372	155.0272335600907	75	127
156.87321995464853	157.61628117913833	39	127
156.87321995464853	157.61628117913833	51	127
157.12863945578232	157.36086167800454	58	127
157.3724716553288	157.61628117913833	66	127
157.6278911564626	158.26643990929705	39	127
157.6278911564626	158.26643990929705	51	127
157.82526077097506	158.02263038548753	58	127
158.0342403628118	158.26643990929705	66	127
158.27804988662132	158.91657596371883	39	127
158.27804988662132	158.91657596371883	51	127
158.5334693877551	158.74244897959184	58	127
158.74244897959184	158.91657596371883	66	127
158.91657596371883	159.53190476190477	34	127
158.91657596371883	159.53190476190477	46	127
159.14879818594105	159.40421768707483	62	127
159.14879818594105	159.40421768707483	56	127
159.14879818594105	159.40421768707483	58	127
159.4158276643991	159.53190476190477	65	127
159.53190476190477	160.1704761904762	46	127
159.53190476190477	160.1704761904762	34	127
159.75251700680272	159.984716553288	56	127
159.75251700680272	159.984716553288	62	127
159.75251700680272	159.984716553288	58	127
159.984716553288	160.1704761904762	65	127
160.18208616780046	160.85544217687075	34	127
160.18208616780046	160.85544217687075	46	127
160.42589569160998	160.6697052154195	62	127
160.42589569160998	160.6697052154195	56	127
160.42589569160998	160.6697052154195	58	127
160.68131519274377	160.85544217687075	65	127
160.86707482993197	161.56367346938777	42	127
160.86707482993197	161.56367346938777	30	127
161.11086167800454	161.35469387755103	58	127
161.11086167800454	161.35469387755103	54	127
161.36628117913833	161.56367346938777	63	127
161.56367346938777	162.20222222222222	42	127
161.56367346938777	162.20222222222222	30	127
161.7726530612245	161.97002267573697	54	127
161.7726530612245	161.97002267573697	58	127
161.97002267573697	162.20222222222222	63	127
162.2138321995465	162.96848072562358	39	127
162.2138321995465	162.96848072562358	27	127
162.457641723356	162.7130612244898	58	127
162.457641723356	162.7130612244898	63	127
162.72467120181406	162.96848072562358	66	127
162.96848072562358	163.6882993197279	34	127
162.96848072562358	163.6882993197279	46	127
162.96848072562358	163.21226757369615	65	127
162.96848072562358	163.21226757369615	62	127
162.96848072562358	163.21226757369615	58	127
163.22390022675737	163.44448979591837	70	127
163.44448979591837	163.6882993197279	69	127
163.69990929705216	163.8392290249433	70	127
163.8392290249433	164.03659863945578	72	127
164.04820861678004	164.2455782312925	74	127
164.25718820861678	164.45455782312925	75	127
164.45455782312925	164.73319727891158	76	127
164.74478458049887	164.98861678004536	77	127
164.98861678004536	165.67360544217686	51	127
164.98861678004536	165.67360544217686	39	127
164.98861678004536	165.67360544217686	78	127
164.98861678004536	165.67360544217686	66	127
164.98861678004536	165.67360544217686	46	127
165.68521541950113	166.38179138321996	51	127
165.68521541950113	166.38179138321996	46	127
165.68521541950113	166.38179138321996	39	127
165.68521541950113	166.38179138321996	78	127
165.68521541950113	166.38179138321996	66	127
166.39342403628117	167.00875283446712	51	127
166.39342403628117	167.00875283446712	46	127
166.39342403628117	167.00875283446712	39	127
166.39342403628117	166.91587301587302	78	127
166.39342403628117	166.91587301587302	66	127
166.91587301587302	167.09002267573698	66	127
166.91587301587302	167.09002267573698	78	127
167.00875283446712	167.68213151927438	65	127
167.00875283446712	167.68213151927438	46	127
167.00875283446712	167.68213151927438	77	127
167.00875283446712	167.68213151927438	34	127
167.69374149659865	168.3671201814059	46	127
167.69374149659865	168.3671201814059	34	127
167.69374149659865	168.20458049886622	77	127
167.69374149659865	168.20458049886622	65	127
168.20458049886622	168.3671201814059	63	127
168.20458049886622	168.3671201814059	75	127
168.3671201814059	169.0521088435374	46	127
168.3671201814059	169.0521088435374	34	127
168.3671201814059	168.87795918367348	74	127
168.3671201814059	168.87795918367348	62	127
168.88956916099772	169.0521088435374	65	127
168.88956916099772	169.0521088435374	77	127
169.0521088435374	169.72548752834467	42	127
169.0521088435374	169.72548752834467	30	127
169.0521088435374	169.72548752834467	34	127
169.0521088435374	169.72548752834467	63	127
169.0521088435374	169.72548752834467	75	127
169.73709750566894	170.4104761904762	34	127
169.73709750566894	170.4104761904762	75	127
169.73709750566894	170.4104761904762	30	127
169.73709750566894	170.4104761904762	42	127
169.73709750566894	170.4104761904762	63	127
170.4104761904762	171.0838321995465	39	127
170.4104761904762	171.0838321995465	66	127
170.4104761904762	171.0838321995465	78	127
170.4104761904762	171.0838321995465	46	127
171.0954648526077	172.3261224489796	46	127
171.0954648526077	172.3261224489796	34	127
171.0954648526077	172.3261224489796	77	127
171.0954648526077	171.78045351473924	65	127
172.33773242630386	172.50027210884355	74	127
172.33773242630386	172.50027210884355	46	127
172.50027210884355	173.02269841269842	75	127
172.50027210884355	173.02269841269842	42	127
173.03433106575963	173.22009070294786	39	127
173.03433106575963	173.22009070294786	78	127
173.23167800453515	174.36947845804988	46	127
173.23167800453515	174.36947845804988	34	127
173.23167800453515	174.36947845804988	77	127
174.38108843537415	174.55521541950114	46	127
174.38108843537415	174.55521541950114	74	127
174.56684807256235	175.11251700680273	75	127
174.56684807256235	175.11251700680273	42	127
175.11251700680273	175.3098866213152	39	127
175.11251700680273	175.3098866213152	78	127
175.3098866213152	175.8091156462585	77	127
175.3098866213152	175.8091156462585	34	127
175.82072562358277	175.9948752834467	46	127
175.82072562358277	175.9948752834467	74	127
175.9948752834467	176.4708843537415	75	127
175.9948752834467	176.4708843537415	42	127
176.48249433106577	176.65662131519275	78	127
176.48249433106577	176.65662131519275	39	127
176.65662131519275	177.14426303854876	77	127
176.65662131519275	177.14426303854876	34	127
177.14426303854876	177.29519274376418	74	127
177.14426303854876	177.29519274376418	46	127
177.30680272108845	177.79442176870748	42	127
177.30680272108845	177.79442176870748	75	127
177.80603174603175	177.98015873015873	78	127
177.80603174603175	177.98015873015873	39	127
177.99179138321995	178.56068027210884	77	127
177.99179138321995	178.56068027210884	34	127
178.5722902494331	178.7580498866213	46	127
178.5722902494331	178.7580498866213	74	127
178.76965986394558	179.37337868480725	75	127
178.76965986394558	179.37337868480725	42	127
179.38498866213152	179.60557823129253	78	127
179.38498866213152	179.60557823129253	39	127
179.61716553287982	180.00031746031746	77	127
180.00031746031746	180.38342403628118	74	127
180.3950566893424	180.74333333333334	75	127
180.75496598639455	181.04521541950115	79	127
181.04521541950115	181.39351473922903	73	127
181.40510204081633	181.7534240362812	74	127
181.7650113378685	182.0320634920635	77	127
182.0320634920635	182.35714285714286	71	127
182.0320634920635	182.35714285714286	62	127
182.35714285714286	182.69383219954648	72	127
182.35714285714286	182.69383219954648	63	127
182.70544217687075	183.01891156462585	67	127
182.70544217687075	183.01891156462585	75	127
183.03052154195012	183.378820861678	69	127
183.03052154195012	183.378820861678	61	127
183.378820861678	183.6922902494331	70	127
183.378820861678	183.6922902494331	62	127
183.70390022675738	184.06378684807257	74	127
183.70390022675738	184.06378684807257	65	127
184.07541950113378	184.30761904761906	67	127
184.07541950113378	184.30761904761906	59	127
184.30761904761906	184.62108843537416	60	127
184.30761904761906	184.62108843537416	68	127
184.6326984126984	184.99260770975056	72	127
184.6326984126984	184.99260770975056	56	127
185.00421768707483	185.36412698412698	64	127
185.00421768707483	185.36412698412698	55	127
185.37573696145125	185.84013605442178	53	127
185.37573696145125	185.84013605442178	65	127
185.85172335600907	186.6760544217687	53	127
185.85172335600907	186.15360544217688	68	127
185.85172335600907	186.6760544217687	46	127
186.16521541950112	186.43224489795918	61	127
186.44385487528345	186.6760544217687	62	127
186.68766439909297	186.91986394557824	65	127
186.93145124716554	187.16367346938776	57	127
187.17528344671203	187.34943310657596	58	127
187.34943310657596	187.57002267573696	59	127
187.58163265306123	187.82544217687075	60	127
187.83705215419502	188.06925170068027	61	127
188.08086167800454	188.3594784580499	62	127
188.3711111111111	188.70780045351475	63	127
188.71938775510205	189.10253968253969	64	127
189.11414965986395	189.45083900226757	65	127
189.45083900226757	189.822358276644	66	127
189.83396825396827	190.35641723356008	67	127
190.36802721088435	191.08784580498866	46	127
190.36802721088435	191.65673469387755	68	127
191.09945578231293	191.8308843537415	58	127
191.65673469387755	191.8308843537415	65	127
191.8308843537415	192.3649433106576	70	127
191.8308843537415	192.53909297052155	56	127
192.37655328798186	192.53909297052155	62	127
192.5507029478458	193.9671201814059	63	127
192.5507029478458	193.22408163265305	55	127
193.23569160997732	193.9671201814059	51	127
193.97873015873017	194.71015873015872	50	127
193.97873015873017	194.3386394557823	65	127
194.3386394557823	194.52439909297053	68	127
194.5360090702948	194.71015873015872	67	127
194.721768707483	195.42997732426304	51	127
194.721768707483	196.16140589569162	67	127
195.42997732426304	196.16140589569162	49	127
196.17301587301588	196.56775510204082	48	127
196.17301587301588	196.35877551020408	68	127
196.26589569160998	196.47487528344672	70	127
196.37038548752835	196.56775510204082	68	127
196.47487528344672	196.66063492063492	70	127
196.56775510204082	196.74190476190475	72	127
196.56775510204082	196.92766439909298	44	127
196.74190476190475	196.92766439909298	70	127
196.92766439909298	198.40213151927438	70	127
196.92766439909298	197.6474829931973	51	127
197.65909297052156	198.40213151927438	55	127
198.41374149659865	198.58789115646258	75	127
198.41374149659865	199.18	51	127
198.59950113378684	198.7736507936508	74	127
198.78526077097504	198.98263038548754	72	127
198.98263038548754	199.18	70	127
199.18	200.60802721088436	70	127
199.18	199.85337868480727	50	127
199.8649886621315	200.60802721088436	46	127
200.61963718820863	200.80539682539683	70	127
200.61963718820863	201.25818594104308	47	127
200.71251700680273	200.95632653061224	68	127
200.9679365079365	201.11886621315193	67	127
201.1304761904762	201.25818594104308	68	127
201.26979591836735	202.01283446712017	48	127
201.26979591836735	201.44394557823128	67	127
201.35106575963718	201.5368253968254	68	127
201.44394557823128	201.64131519274378	70	127
201.5368253968254	202.01283446712017	68	127
202.02444444444444	202.74426303854875	36	127
202.02444444444444	202.74426303854875	67	127
202.74426303854875	203.5105215419501	53	127
202.74426303854875	203.5105215419501	44	127
202.74426303854875	202.8603628117914	65	127
202.81392290249434	202.93002267573695	67	127
202.87197278911566	202.976462585034	65	127
202.93002267573695	203.12739229024945	64	127
203.02290249433108	203.22027210884355	65	127
203.1390022675737	203.3247619047619	68	127
203.33637188208615	203.5105215419501	72	127
203.52213151927438	204.31160997732425	45	127
203.52213151927438	204.31160997732425	54	127
203.52213151927438	203.9284807256236	72	127
203.9284807256236	204.6715192743764	63	127
204.32321995464852	205.0546485260771	55	127
204.32321995464852	205.0546485260771	46	127
204.68312925170068	204.86888888888888	65	127
204.77600907029478	204.961768707483	63	127
204.88049886621314	205.0546485260771	62	127
204.97337868480724	205.15913832199547	63	127
205.06625850340137	205.84412698412697	46	127
205.06625850340137	205.84412698412697	34	127
205.06625850340137	205.84412698412697	62	127
205.06625850340137	205.6467573696145	67	127
205.65836734693877	205.84412698412697	65	127
205.84412698412697	206.61038548752833	39	127
205.84412698412697	206.61038548752833	63	127
206.6219954648526	207.39986394557823	51	127
208.24739229024942	208.9556009070295	34	127
208.5028117913832	208.73501133786849	53	127
208.73501133786849	208.9556009070295	58	127
208.96721088435373	209.6057596371882	46	127
209.21102040816328	209.3619501133787	53	127
209.21102040816328	209.3619501133787	50	127
209.37356009070294	209.6057596371882	58	127
209.6057596371882	210.302358276644	44	127
209.84956916099773	210.05854875283447	50	127
209.84956916099773	210.05854875283447	53	127
210.05854875283447	210.302358276644	58	127
210.31396825396826	210.96412698412698	43	127
210.5461678004535	210.77836734693878	51	127
210.5461678004535	210.77836734693878	55	127
210.78997732426305	210.96412698412698	58	127
210.97573696145125	211.60267573696146	39	127
211.2079365079365	211.41691609977323	51	127
211.2079365079365	211.41691609977323	55	127
211.4285260770975	211.60267573696146	58	127
211.61428571428573	212.3108843537415	38	127
211.84648526077098	212.0902947845805	56	127
211.84648526077098	212.0902947845805	53	127
212.0902947845805	212.3108843537415	58	127
212.32249433106577	213.05392290249432	39	127
212.5663038548753	212.82172335600907	55	127
212.5663038548753	212.82172335600907	58	127
212.83333333333334	213.05392290249432	63	127
213.05392290249432	213.34417233560092	51	127
213.26290249433106	213.46027210884353	55	127
213.26290249433106	213.46027210884353	58	127
213.35578231292516	213.68086167800453	49	127
213.46027210884353	213.68086167800453	63	127
213.6924716553288	214.0407709750567	48	127
213.92467120181405	214.1684807256236	60	127
213.92467120181405	214.1684807256236	56	127
214.0407709750567	214.42390022675738	44	127
214.18009070294784	214.42390022675738	63	127
214.43551020408162	215.08566893424037	39	127
214.43551020408162	215.08566893424037	51	127
214.6677097505669	214.86507936507937	58	127
214.6677097505669	214.86507936507937	55	127
214.87668934240364	215.08566893424037	63	127
215.09727891156462	215.77065759637188	43	127
215.09727891156462	215.77065759637188	55	127
215.34108843537416	215.5500680272109	58	127
215.5500680272109	215.77065759637188	63	127
215.78226757369615	216.52530612244897	51	127
215.78226757369615	216.52530612244897	39	127
216.02607709750566	216.26988662131518	55	127
216.28149659863945	216.52530612244897	58	127
216.52530612244897	217.17546485260772	38	127
216.52530612244897	217.17546485260772	50	127
216.74589569160997	216.94326530612244	53	127
216.94326530612244	217.17546485260772	58	127
217.18707482993196	217.91850340136054	34	127
217.18707482993196	217.91850340136054	46	127
217.40766439909297	217.65147392290248	53	127
217.66308390022675	217.91850340136054	62	127
217.9301133786848	218.61510204081634	35	127
217.9301133786848	218.61510204081634	47	127
218.17392290249433	218.41773242630384	53	127
218.17392290249433	218.41773242630384	56	127
218.4293424036281	218.61510204081634	62	127
218.62671201814058	219.3465306122449	48	127
218.62671201814058	219.3465306122449	36	127
218.87052154195013	219.10272108843537	53	127
218.87052154195013	219.10272108843537	56	127
219.10272108843537	219.3465306122449	62	127
219.35814058956916	219.95024943310656	36	127
219.54390022675736	219.71804988662132	51	127
219.54390022675736	219.71804988662132	55	127
219.72965986394559	219.95024943310656	63	127
219.95024943310656	220.67006802721087	32	127
219.95024943310656	220.67006802721087	44	127
220.1940589569161	220.42625850340136	51	127
220.1940589569161	220.42625850340136	53	127
220.42625850340136	220.67006802721087	60	127
220.68167800453514	221.424716553288	45	127
220.68167800453514	221.424716553288	33	127
220.92548752834466	221.1692970521542	54	127
220.92548752834466	221.1692970521542	51	127
221.18090702947845	221.424716553288	60	127
221.43632653061223	222.1097052154195	34	127
221.43632653061223	222.1097052154195	46	127
221.6685260770975	221.86589569160998	51	127
221.6685260770975	221.86589569160998	55	127
221.87750566893425	222.1097052154195	58	127
222.12131519274377	222.91079365079366	34	127
222.3999546485261	222.66698412698412	56	127
222.3999546485261	222.66698412698412	50	127
222.66698412698412	222.91079365079366	58	127
222.9224036281179	223.72349206349207	55	127
222.9224036281179	223.72349206349207	51	127
222.9224036281179	223.72349206349207	39	127
223.73510204081632	224.5942403628118	51	127
224.60585034013604	225.32566893424035	67	127
225.33727891156462	226.8233560090703	62	127
225.33727891156462	226.8233560090703	59	127
225.33727891156462	226.8233560090703	67	127
226.8233560090703	227.36902494331065	63	127
226.8233560090703	227.5431746031746	67	127
226.8233560090703	227.36902494331065	60	127
226.8233560090703	227.36902494331065	68	127
227.38063492063492	227.5431746031746	71	127
227.38063492063492	227.5431746031746	65	127
227.38063492063492	227.5431746031746	62	127
227.55478458049888	228.91315192743764	67	127
227.55478458049888	228.91315192743764	72	127
227.55478458049888	228.91315192743764	63	127
228.9247619047619	229.44721088435375	62	127
228.9247619047619	229.64458049886622	67	127
228.9247619047619	229.44721088435375	70	127
228.9247619047619	229.44721088435375	65	127
229.458820861678	229.64458049886622	69	127
229.458820861678	229.64458049886622	60	127
229.458820861678	229.64458049886622	63	127
229.6561904761905	230.36439909297053	58	127
229.6561904761905	231.08421768707484	67	127
229.6561904761905	230.36439909297053	62	127
230.36439909297053	231.08421768707484	50	127
230.36439909297053	231.08421768707484	58	127
231.00294784580498	231.17709750566894	70	127
231.09582766439908	231.65310657596373	69	127
231.09582766439908	231.8504761904762	50	127
231.09582766439908	231.8504761904762	66	127
231.09582766439908	231.8504761904762	60	127
231.65310657596373	231.8504761904762	67	127
231.8504761904762	232.14072562358277	67	127
231.8504761904762	232.46580498866214	55	127
231.8504761904762	232.46580498866214	58	127
232.15233560090704	232.46580498866214	79	127
232.47741496598638	232.81410430839003	79	127
232.81410430839003	233.15079365079364	79	127
233.16240362811791	233.78934240362813	59	127
233.16240362811791	233.42943310657597	79	127
233.16240362811791	233.78934240362813	62	127
233.44104308390024	233.78934240362813	79	127
233.78934240362813	233.8938321995465	79	127
233.78934240362813	235.0548299319728	59	127
233.78934240362813	235.0548299319728	62	127
233.84739229024945	233.96349206349205	80	127
233.8938321995465	234.05637188208615	79	127
233.97510204081632	234.14925170068028	80	127
234.06798185941042	234.21891156462584	79	127
234.16086167800452	234.3001814058957	80	127
234.2305215419501	234.3930612244898	79	127
234.31179138321994	234.45111111111112	80	127
234.40467120181407	234.52077097505668	79	127
234.4627210884354	234.6136507936508	80	127
234.53238095238095	234.72975056689341	79	127
234.62526077097505	234.82263038548754	80	127
234.72975056689341	234.8922902494331	79	127
234.82263038548754	234.97356009070296	80	127
234.8922902494331	235.0548299319728	79	127
234.97356009070296	235.13609977324262	80	127
235.0548299319728	235.63532879818595	63	127
235.0548299319728	235.22897959183675	79	127
235.0548299319728	235.63532879818595	60	127
235.1477097505669	235.32185941043085	80	127
235.240589569161	235.41473922902495	79	127
235.33346938775512	235.51922902494331	80	127
235.42634920634922	235.63532879818595	79	127
235.54244897959182	235.72820861678005	80	127
235.6469387755102	235.83269841269842	65	127
235.6469387755102	235.83269841269842	62	127
235.6469387755102	235.83269841269842	79	127
235.73981859410432	235.9371882086168	80	127
235.8443083900227	237.12140589569162	63	127
235.8443083900227	237.12140589569162	67	127
235.8443083900227	236.01845804988662	79	127
235.9371882086168	236.09972789115648	80	127
236.01845804988662	236.16938775510204	79	127
236.09972789115648	236.26226757369614	80	127
236.16938775510204	236.32031746031745	79	127
236.26226757369614	236.37836734693877	80	127
236.32031746031745	236.47124716553287	79	127
236.38997732426304	236.56412698412697	80	127
236.48285714285714	236.64539682539683	79	127
236.59895691609978	236.76149659863947	80	127
236.70344671201815	236.87759637188208	79	127
236.83115646258503	236.98208616780045	78	127
236.98208616780045	237.12140589569162	79	127
237.12140589569162	237.6322448979592	62	127
237.12140589569162	237.4697052154195	79	127
237.12140589569162	237.6322448979592	65	127
237.48131519274375	237.79478458049886	79	127
237.64385487528344	237.79478458049886	63	127
237.64385487528344	237.79478458049886	60	127
237.80639455782313	238.37528344671202	58	127
237.80639455782313	238.0385941043084	79	127
237.80639455782313	238.37528344671202	62	127
238.0385941043084	238.37528344671202	79	127
238.3868934240363	239.1067120181406	58	127
238.3868934240363	239.1067120181406	50	127
238.74680272108844	239.1067120181406	79	127
239.11832199546484	239.8265306122449	50	127
239.11832199546484	239.8265306122449	60	127
239.45501133786848	239.8265306122449	78	127
239.8265306122449	240.44185941043085	55	127
239.8265306122449	240.44185941043085	79	127
239.8265306122449	240.44185941043085	58	127
240.39541950113377	240.49990929705214	82	127
240.44185941043085	241.13845804988662	62	127
240.44185941043085	241.13845804988662	72	127
240.44185941043085	240.95269841269842	81	127
240.96430839002267	241.13845804988662	79	127
241.1500680272109	241.71895691609978	70	127
241.1500680272109	241.71895691609978	67	127
241.1500680272109	241.71895691609978	79	127
241.73056689342403	242.41555555555556	50	127
241.73056689342403	242.41555555555556	62	127
242.07886621315194	242.41555555555556	72	127
242.07886621315194	242.41555555555556	78	127
242.07886621315194	242.41555555555556	74	127
242.42716553287983	243.07732426303855	43	127
242.42716553287983	243.07732426303855	55	127
242.7174149659864	243.07732426303855	70	127
242.7174149659864	243.07732426303855	79	127
242.7174149659864	243.07732426303855	74	127
242.99605442176872	243.15859410430838	82	127
243.08893424036282	243.71587301587303	62	127
243.08893424036282	243.71587301587303	72	127
243.08893424036282	243.55333333333334	81	127
243.55333333333334	243.71587301587303	79	127
243.71587301587303	244.29637188208616	79	127
243.71587301587303	244.29637188208616	67	127
243.71587301587303	244.29637188208616	70	127
244.30798185941043	244.94653061224489	62	127
244.30798185941043	244.94653061224489	50	127
244.598231292517	244.94653061224489	74	127
244.598231292517	244.94653061224489	72	127
244.598231292517	244.94653061224489	78	127
244.95814058956915	245.49219954648527	43	127
244.95814058956915	245.49219954648527	55	127
245.21356009070294	245.49219954648527	74	127
245.21356009070294	245.49219954648527	79	127
245.21356009070294	245.49219954648527	70	127
245.50380952380954	246.142358276644	38	127
245.50380952380954	246.142358276644	50	127
245.80566893424037	246.142358276644	74	127
245.80566893424037	246.142358276644	78	127
245.80566893424037	246.142358276644	72	127
246.142358276644	246.7344671201814	43	127
246.142358276644	246.7344671201814	55	127
246.43260770975056	246.7344671201814	74	127
246.43260770975056	246.7344671201814	70	127
246.43260770975056	246.7344671201814	79	127
246.74607709750566	247.4542857142857	38	127
246.74607709750566	247.4542857142857	50	127
247.07115646258504	247.4542857142857	74	127
247.07115646258504	247.4542857142857	78	127
247.07115646258504	247.4542857142857	72	127
247.4542857142857	247.84902494331067	74	127
247.4542857142857	247.84902494331067	70	127
247.4542857142857	247.84902494331067	79	127
247.4542857142857	248.2437641723356	43	127
247.4542857142857	248.2437641723356	55	127
247.84902494331067	248.62689342403627	67	127
248.62689342403627	249.41637188208617	67	127
249.41637188208617	250.51931972789114	67	127
250.51931972789114	250.71668934240364	66	127
250.71668934240364	250.9140589569161	67	127
250.9140589569161	251.12303854875285	66	127
251.12303854875285	251.29718820861677	67	127
251.29718820861677	251.45972789115646	66	127
251.45972789115646	251.5758276643991	67	127
251.5758276643991	251.77319727891157	66	127
251.77319727891157	251.9821768707483	67	127
251.9821768707483	252.12149659863945	66	127
252.12149659863945	252.41174603174602	67	127
252.4233560090703	253.13156462585033	46	127
252.4233560090703	253.68884353741495	68	127
253.1431746031746	253.85138321995464	58	127
253.68884353741495	253.85138321995464	65	127
253.8629931972789	254.48993197278912	56	127
253.8629931972789	254.36222222222221	70	127
254.36222222222221	254.48993197278912	62	127
254.5015419501134	255.20975056689343	55	127
254.5015419501134	255.9760090702948	63	127
255.22136054421767	255.9760090702948	51	127
255.9760090702948	256.33591836734695	65	127
255.9760090702948	256.6609977324263	50	127
256.33591836734695	256.5100680272109	68	127
256.5100680272109	256.6609977324263	67	127
256.6726077097506	257.38081632653063	51	127
256.6726077097506	258.1122222222222	67	127
257.3924036281179	258.1122222222222	49	127
258.1238548752834	258.33283446712016	68	127
258.1238548752834	258.5185714285714	48	127
258.23995464852607	258.4256916099773	70	127
258.33283446712016	258.5185714285714	68	127
258.4256916099773	258.6114739229025	70	127
258.5185714285714	258.7043537414966	72	127
258.5185714285714	258.8901133786848	44	127
258.7159637188209	258.8901133786848	70	127
258.9017233560091	260.399410430839	70	127
258.9017233560091	259.64473922902494	51	127
259.64473922902494	260.399410430839	55	127
260.41102040816327	260.5851700680272	75	127
260.41102040816327	261.17725623582766	51	127
260.59678004535147	260.8057596371882	74	127
260.8057596371882	260.9915192743764	72	127
260.9915192743764	261.17725623582766	70	127
261.18888888888887	261.9087074829932	50	127
261.18888888888887	262.605306122449	70	127
261.92031746031745	262.605306122449	46	127
262.6168934240363	262.7562358276644	70	127
262.6168934240363	263.26707482993197	47	127
262.68657596371884	262.9303854875283	68	127
262.9303854875283	263.1045351473923	67	127
263.1045351473923	263.26707482993197	68	127
263.26707482993197	263.94043083900226	48	127
263.26707482993197	263.4295918367347	67	127
263.35995464852607	263.5108843537415	68	127
263.4412244897959	263.6037641723356	70	127
263.5224943310658	263.94043083900226	68	127
263.94043083900226	264.66024943310657	67	127
263.94043083900226	264.66024943310657	36	127
264.6718820861678	265.40331065759636	53	127
264.6718820861678	264.7879818594104	65	127
264.6718820861678	265.40331065759636	44	127
264.72993197278913	264.84603174603177	67	127
264.7879818594104	264.90408163265306	65	127
264.85761904761904	265.03179138321997	64	127
264.95052154195014	265.13628117913834	65	127
265.04340136054424	265.22916099773244	68	127
265.2407709750567	265.40331065759636	72	127
265.41492063492063	266.1463492063492	54	127
265.41492063492063	265.7864172335601	72	127
265.41492063492063	266.1463492063492	45	127
265.7864172335601	266.4598185941043	63	127
266.1579591836735	266.8313378684807	55	127
266.1579591836735	266.8313378684807	46	127
266.4714285714286	266.6571882086168	65	127
266.5643083900227	266.7500680272109	63	127
266.6571882086168	266.8313378684807	62	127
266.7500680272109	266.9242176870748	63	127
266.8313378684807	267.40022675736964	67	127
266.8313378684807	267.58598639455784	62	127
266.8313378684807	267.58598639455784	34	127
266.8313378684807	267.58598639455784	46	127
267.40022675736964	267.58598639455784	65	127
267.58598639455784	268.34061224489795	39	127
267.58598639455784	268.34061224489795	63	127
268.34061224489795	269.2229931972789	51	127
269.2229931972789	269.9660317460318	59	127
269.2229931972789	269.9660317460318	62	127
269.9660317460318	270.2330612244898	43	127
269.9660317460318	271.34761904761905	59	127
269.9660317460318	271.34761904761905	62	127
270.24467120181407	270.5813378684807	55	127
270.592947845805	270.9877097505669	55	127
270.9877097505669	271.34761904761905	55	127
271.3592290249433	271.88167800453516	63	127
271.3592290249433	271.88167800453516	60	127
271.3592290249433	271.69591836734696	55	127
271.70750566893423	272.06743764172336	55	127
271.89328798185943	272.06743764172336	62	127
271.89328798185943	272.06743764172336	65	127
272.06743764172336	273.4025850340136	63	127
272.06743764172336	273.4025850340136	67	127
272.06743764172336	272.38090702947846	55	127
272.38090702947846	272.7175963718821	55	127
272.7291836734694	273.06589569160997	55	127
273.07750566893424	273.4025850340136	55	127
273.4025850340136	273.73927437641726	55	127
273.4025850340136	273.89020408163265	62	127
273.4025850340136	273.89020408163265	65	127
273.7508616780045	274.06433106575963	55	127
273.9018140589569	274.06433106575963	60	127
273.9018140589569	274.06433106575963	66	127
274.07596371882084	274.42426303854876	62	127
274.07596371882084	274.79578231292516	43	127
274.07596371882084	274.42426303854876	67	127
274.07596371882084	274.42426303854876	58	127
274.42426303854876	274.79578231292516	62	127
274.42426303854876	274.79578231292516	58	127
274.8073922902494	275.318231292517	50	127
275.0395918367347	275.318231292517	58	127
275.0395918367347	275.318231292517	62	127
275.32984126984127	276.01482993197277	38	127
275.6781405895692	276.01482993197277	62	127
275.6781405895692	276.01482993197277	60	127
275.6781405895692	276.01482993197277	66	127
276.02643990929704	276.7578684807256	43	127
276.02643990929704	276.7578684807256	67	127
276.02643990929704	276.7578684807256	62	127
276.02643990929704	276.7578684807256	58	127
277.47768707482993	278.1742857142857	67	127
277.47768707482993	278.1742857142857	62	127
277.47768707482993	278.1742857142857	59	127
278.18589569160997	279.54426303854876	67	127
278.18589569160997	279.54426303854876	62	127
278.18589569160997	279.54426303854876	59	127
279.54426303854876	280.05510204081634	68	127
279.54426303854876	280.05510204081634	60	127
279.54426303854876	280.05510204081634	63	127
280.0667120181406	280.22925170068027	62	127
280.0667120181406	280.22925170068027	65	127
280.0667120181406	280.22925170068027	71	127
280.24086167800453	281.68049886621316	72	127
280.24086167800453	281.68049886621316	67	127
280.24086167800453	281.68049886621316	63	127
281.6921088435374	282.249387755102	65	127
281.6921088435374	282.249387755102	62	127
281.6921088435374	282.249387755102	70	127
282.249387755102	282.4351473922903	69	127
282.249387755102	282.4351473922903	63	127
282.249387755102	282.4351473922903	60	127
282.44673469387754	283.16655328798186	58	127
282.44673469387754	283.8399546485261	67	127
282.44673469387754	283.16655328798186	62	127
283.16655328798186	283.8399546485261	50	127
283.16655328798186	283.8399546485261	58	127
283.7702721088435	283.9328344671202	70	127
283.85156462585036	284.6062131519274	60	127
283.85156462585036	284.6062131519274	50	127
283.94444444444446	284.5133333333333	69	127
284.40884353741495	284.6062131519274	67	127
284.6062131519274	285.2795918367347	55	127
284.6062131519274	285.2795918367347	58	127
284.6062131519274	285.2795918367347	67	127
285.291201814059	285.9181179138322	38	127
285.291201814059	285.9181179138322	50	127
285.558231292517	285.9181179138322	62	127
285.558231292517	285.9181179138322	60	127
285.558231292517	285.9181179138322	66	127
285.9297505668934	286.6495691609977	55	127
285.9297505668934	286.6495691609977	43	127
286.30126984126986	286.6495691609977	62	127
286.30126984126986	286.6495691609977	67	127
286.30126984126986	286.6495691609977	58	127
286.57990929705215	286.6843990929705	70	127
286.6495691609977	287.2881179138322	50	127
286.6495691609977	287.102358276644	69	127
286.6495691609977	286.92820861678007	60	127
286.93979591836734	287.2881179138322	62	127
287.11396825396827	287.2881179138322	67	127
287.29972789115646	287.62480725623584	58	127
287.29972789115646	287.9266666666667	67	127
287.29972789115646	287.9266666666667	55	127
287.62480725623584	287.9266666666667	62	127
287.9266666666667	288.5536054421769	38	127
287.9266666666667	288.5536054421769	50	127
288.2285260770975	288.5536054421769	60	127
288.2285260770975	288.5536054421769	66	127
288.2285260770975	288.5536054421769	62	127
288.56521541950116	289.19213151927437	55	127
288.56521541950116	289.19213151927437	43	127
288.90190476190475	289.19213151927437	67	127
288.90190476190475	289.19213151927437	58	127
288.90190476190475	289.19213151927437	62	127
289.1108843537415	289.25020408163266	70	127
289.19213151927437	289.85392290249433	50	127
289.19213151927437	289.66816326530613	69	127
289.19213151927437	289.48240362811794	60	127
289.4939909297052	289.85392290249433	62	127
289.6797732426304	289.85392290249433	67	127
289.85392290249433	290.51569160997735	55	127
289.85392290249433	290.51569160997735	67	127
289.85392290249433	290.20222222222225	58	127
290.20222222222225	290.51569160997735	62	127
290.43442176870747	290.57374149659864	70	127
290.5272789115646	291.1542403628118	50	127
290.5272789115646	290.7827210884354	60	127
290.5272789115646	290.98009070294785	69	127
290.79433106575965	291.1542403628118	62	127
290.98009070294785	291.1542403628118	67	127
291.1542403628118	291.4677097505669	58	127
291.1542403628118	291.781179138322	67	127
291.1542403628118	291.781179138322	55	127
291.4677097505669	291.781179138322	62	127
291.69990929705216	291.88566893424036	70	127
291.79278911564626	292.5358276643991	50	127
291.79278911564626	292.3152380952381	69	127
291.79278911564626	292.15267573696144	60	127
292.15267573696144	292.5358276643991	62	127
292.32684807256237	292.5358276643991	67	127
292.5358276643991	293.2672562358277	67	127
292.5358276643991	293.2672562358277	55	127
292.5358276643991	293.2672562358277	58	127
297.33074829931974	298.10861678004534	34	127
297.5397278911565	297.91124716553287	50	127
297.7254875283447	298.10861678004534	53	127
297.92285714285714	298.3059863945578	58	127
298.1202267573696	298.86326530612246	46	127
298.3059863945578	298.67750566893426	50	127
298.49172335600906	298.86326530612246	53	127
298.67750566893426	299.04902494331066	58	127
298.8748752834467	299.6063038548753	44	127
299.0606349206349	299.40893424036284	50	127
299.2463945578231	299.6063038548753	53	127
299.4205215419501	299.6063038548753	58	127
299.6063038548753	300.3261224489796	43	127
299.78045351473924	300.14036281179136	51	127
299.96621315192743	300.3261224489796	55	127
300.15197278911563	300.4886621315193	58	127
300.3377097505669	300.99950113378685	39	127
300.50027210884355	300.8253514739229	51	127
300.65120181405894	300.99950113378685	55	127
300.8253514739229	301.18526077097505	58	127
300.99950113378685	301.73092970521543	38	127
301.18526077097505	301.54517006802723	53	127
301.37102040816325	301.73092970521543	56	127
301.5567800453515	301.73092970521543	58	127
301.7425396825397	302.4739682539683	39	127
301.91668934240363	302.28820861678	55	127
302.1024489795918	302.4739682539683	58	127
302.28820861678	302.63650793650794	63	127
302.48555555555555	302.81065759637187	51	127
302.6481179138322	302.98480725623585	55	127
302.82226757369614	303.17056689342405	49	127
302.82226757369614	303.17056689342405	58	127
302.9963945578231	303.35632653061225	63	127
303.17056689342405	303.54208616780045	48	127
303.35632653061225	303.71621315192743	56	127
303.5536961451247	303.9252154195011	60	127
303.5536961451247	303.9252154195011	44	127
303.72784580498865	303.9252154195011	63	127
303.9368253968254	304.6914739229025	51	127
304.13419501133785	304.49410430839004	55	127
304.3199319727891	304.6914739229025	58	127
304.49410430839004	304.88884353741497	63	127
304.6914739229025	305.4460997732426	39	127
304.90045351473924	305.27197278911564	55	127
305.0978231292517	305.4460997732426	58	127
305.2835827664399	305.6318820861678	63	127
305.45773242630383	306.1427210884354	39	127
305.45773242630383	306.1427210884354	51	127
305.6318820861678	305.9569387755102	55	127
305.817641723356	306.1427210884354	58	127
305.9569387755102	306.1427210884354	55	127
306.15433106575966	306.85092970521544	50	127
306.15433106575966	306.85092970521544	38	127
306.3284807256236	306.6767573696145	53	127
306.5026303854875	306.85092970521544	58	127
306.6883900226757	307.03668934240363	53	127
306.85092970521544	307.57074829931975	34	127
306.85092970521544	307.57074829931975	46	127
307.03668934240363	307.3733786848073	53	127
307.22244897959183	307.57074829931975	62	127
307.38496598639455	307.75650793650794	53	127
307.582358276644	308.3021768707483	47	127
307.582358276644	308.3021768707483	35	127
307.7681179138322	308.11641723356007	53	127
307.94226757369614	308.3021768707483	56	127
308.11641723356007	308.3021768707483	62	127
308.3021768707483	309.01038548752837	36	127
308.3021768707483	309.01038548752837	48	127
308.4879365079365	308.8362358276644	53	127
308.66208616780045	309.01038548752837	56	127
308.84784580498865	309.19614512471657	62	127
309.02197278911564	309.75342403628116	36	127
309.19614512471657	309.56766439909296	51	127
309.38190476190476	309.75342403628116	55	127
309.56766439909296	309.92757369614515	60	127
309.76503401360543	310.55448979591836	32	127
309.76503401360543	310.55448979591836	44	127
309.9391836734694	310.3223129251701	51	127
310.1249433106576	310.55448979591836	53	127
310.33392290249435	310.55448979591836	60	127
310.55448979591836	311.33238095238096	45	127
310.55448979591836	311.33238095238096	33	127
310.7518820861678	311.15823129251703	51	127
310.97244897959183	311.33238095238096	54	127
311.1698185941043	311.5297505668934	60	127
311.3439909297052	312.0870294784581	34	127
311.3439909297052	312.0870294784581	46	127
311.5413605442177	311.9128798185941	51	127
311.5413605442177	311.9128798185941	55	127
311.7271201814059	312.0870294784581	58	127
311.9128798185941	312.2959863945578	55	127
311.9128798185941	312.2959863945578	51	127
312.09861678004535	312.87650793650795	34	127
312.307619047619	312.7139455782313	56	127
312.51659863945576	312.87650793650795	50	127
312.7255782312925	312.87650793650795	56	127
312.8881179138322	313.50344671201816	51	127
312.8881179138322	313.50344671201816	55	127
312.8881179138322	313.50344671201816	39	127
313.50344671201816	314.3974149659864	51	127
315.38426303854874	316.10408163265305	39	127
315.6280725623583	315.86027210884356	55	127
315.6280725623583	315.86027210884356	58	127
315.87185941043083	316.10408163265305	55	127
315.87185941043083	316.10408163265305	58	127
316.1156916099773	316.82390022675736	34	127
316.3478911564626	316.60331065759635	58	127
316.3478911564626	316.60331065759635	55	127
316.6149206349206	316.82390022675736	55	127
316.6149206349206	316.82390022675736	58	127
316.83551020408163	317.5669387755102	39	127
317.0793197278912	317.32312925170066	58	127
317.0793197278912	317.32312925170066	55	127
317.32312925170066	317.5669387755102	55	127
317.32312925170066	317.5669387755102	58	127
317.5669387755102	318.2519274376417	34	127
317.81074829931976	318.05455782312924	56	127
317.81074829931976	318.05455782312924	58	127
318.0661678004535	318.2519274376417	56	127
318.0661678004535	318.2519274376417	58	127
318.2519274376417	318.86725623582765	41	127
318.484126984127	318.704716553288	58	127
318.484126984127	318.704716553288	56	127
318.704716553288	318.86725623582765	56	127
318.704716553288	318.86725623582765	58	127
318.8788662131519	319.58707482993196	34	127
319.1110657596372	319.35485260770974	56	127
319.1110657596372	319.35485260770974	58	127
319.36648526077096	319.58707482993196	58	127
319.36648526077096	319.58707482993196	56	127
319.58707482993196	320.2720408163265	44	127
319.8308843537415	320.07467120181406	58	127
319.8308843537415	320.07467120181406	53	127
319.8308843537415	320.07467120181406	50	127
320.07467120181406	320.2720408163265	50	127
320.07467120181406	320.2720408163265	53	127
320.07467120181406	320.2720408163265	58	127
320.28367346938774	321.0151020408163	34	127
320.53909297052155	320.7828798185941	53	127
320.53909297052155	320.7828798185941	50	127
320.53909297052155	320.7828798185941	58	127
320.7828798185941	321.0151020408163	53	127
320.7828798185941	321.0151020408163	50	127
320.7828798185941	321.0151020408163	58	127
321.0267120181406	321.67687074829934	44	127
321.27052154195013	321.4214512471655	58	127
321.27052154195013	321.4214512471655	53	127
321.27052154195013	321.4214512471655	50	127
321.4330612244898	321.67687074829934	58	127
321.4330612244898	321.67687074829934	53	127
321.4330612244898	321.67687074829934	50	127
321.67687074829934	322.280589569161	34	127
321.8742403628118	322.04839002267573	58	127
321.8742403628118	322.04839002267573	55	127
321.8742403628118	322.04839002267573	51	127
322.04839002267573	322.280589569161	55	127
322.04839002267573	322.280589569161	51	127
322.04839002267573	322.280589569161	58	127
322.2921995464853	323.02362811791386	43	127
322.52437641723355	322.76820861678004	55	127
322.52437641723355	322.76820861678004	51	127
322.52437641723355	322.76820861678004	58	127
322.7798185941043	323.02362811791386	51	127
322.7798185941043	323.02362811791386	58	127
322.7798185941043	323.02362811791386	55	127
323.0352154195011	323.75503401360544	34	127
323.2790476190476	323.5112471655329	51	127
323.2790476190476	323.5112471655329	55	127
323.2790476190476	323.5112471655329	58	127
323.52285714285716	323.75503401360544	51	127
323.52285714285716	323.75503401360544	55	127
323.52285714285716	323.75503401360544	58	127
323.76666666666665	324.4516553287982	39	127
324.02208616780047	324.25426303854874	55	127
324.02208616780047	324.25426303854874	58	127
324.25426303854874	324.4516553287982	58	127
324.25426303854874	324.4516553287982	55	127
324.4632426303855	325.09020408163263	34	127
324.6722222222222	324.89283446712017	58	127
324.6722222222222	324.89283446712017	55	127
324.89283446712017	325.09020408163263	58	127
324.89283446712017	325.09020408163263	55	127
325.09020408163263	325.71714285714285	39	127
325.2991836734694	325.53138321995465	55	127
325.2991836734694	325.53138321995465	58	127
325.53138321995465	325.71714285714285	55	127
325.53138321995465	325.71714285714285	58	127
325.7287528344671	326.39052154195014	34	127
325.9609523809524	326.1351020408163	56	127
325.9609523809524	326.1351020408163	58	127
326.1467120181406	326.39052154195014	58	127
326.1467120181406	326.39052154195014	56	127
326.4021088435374	327.0522902494331	41	127
326.6343310657596	326.85492063492063	56	127
326.6343310657596	326.85492063492063	58	127
326.8665306122449	327.0522902494331	56	127
326.8665306122449	327.0522902494331	58	127
327.06390022675737	327.7256689342404	34	127
327.3193197278912	327.53990929705213	58	127
327.3193197278912	327.53990929705213	56	127
327.53990929705213	327.7256689342404	58	127
327.53990929705213	327.7256689342404	56	127
327.73725623582766	328.4454875283447	46	127
327.98108843537415	328.2132879818594	56	127
327.98108843537415	328.2132879818594	62	127
327.98108843537415	328.2132879818594	58	127
328.2248979591837	328.4454875283447	62	127
328.2248979591837	328.4454875283447	58	127
328.2248979591837	328.4454875283447	56	127
328.4454875283447	329.0027664399093	34	127
328.6196371882086	328.7589342403628	62	127
328.6196371882086	328.7589342403628	56	127
328.6196371882086	328.7589342403628	58	127
328.7589342403628	329.0027664399093	58	127
328.7589342403628	329.0027664399093	56	127
328.7589342403628	329.0027664399093	62	127
329.01437641723356	329.7574149659864	46	127
329.2581859410431	329.5019954648526	58	127
329.2581859410431	329.5019954648526	56	127
329.2581859410431	329.5019954648526	62	127
329.51360544217687	329.7574149659864	56	127
329.51360544217687	329.7574149659864	62	127
329.51360544217687	329.7574149659864	58	127
329.7690249433107	330.0012244897959	39	127
330.0128344671202	330.2566439909297	51	127
330.268253968254	330.50043083900226	55	127
330.5120634920635	330.74426303854875	58	127
330.755873015873	330.9532426303855	63	127
330.9532426303855	331.18544217687077	67	127
331.19705215419503	331.41761904761904	70	127
331.42925170068025	331.64984126984126	69	127
331.64984126984126	331.91687074829935	68	127
331.91687074829935	332.6831292517007	51	127
331.91687074829935	332.6831292517007	67	127
332.1722902494331	332.4392970521542	55	127
332.4509297052154	332.6831292517007	58	127
332.69473922902495	333.2752380952381	46	127
332.69473922902495	333.64675736961453	70	127
332.8572789115646	333.0778684807256	55	127
333.0894784580499	333.2752380952381	58	127
333.2752380952381	333.9950566893424	51	127
333.5306575963719	333.77444444444444	55	127
333.6583673469388	333.9950566893424	75	127
333.77444444444444	333.9950566893424	58	127
334.00666666666666	334.6684353741497	46	127
334.00666666666666	334.6684353741497	75	127
334.22725623582767	334.4710657596372	56	127
334.4826530612245	334.6684353741497	58	127
334.6684353741497	335.6204535147392	74	127
334.6684353741497	335.27215419501135	53	127
334.8890022675737	335.10961451247164	56	127
335.10961451247164	335.27215419501135	58	127
335.2837641723356	335.9803628117914	46	127
335.50433106575963	335.73655328798185	56	127
335.6204535147392	335.9803628117914	75	127
335.7481632653061	335.9803628117914	58	127
335.99197278911566	337.2342403628118	77	127
336.18934240362813	336.40993197278914	58	127
336.4215192743764	336.64213151927436	56	127
336.64213151927436	337.2342403628118	46	127
336.8278911564626	337.0252607709751	56	127
337.0252607709751	337.2342403628118	58	127
337.2458276643991	337.7102494331066	74	127
337.46643990929704	337.6521768707483	58	127
337.6638095238095	337.87278911564624	56	127
337.7102494331066	337.87278911564624	70	127
337.87278911564624	338.59260770975055	46	127
337.87278911564624	338.59260770975055	70	127
338.1049886621315	338.3371882086168	55	127
338.3371882086168	338.59260770975055	58	127
338.6042176870748	338.964126984127	75	127
338.84802721088437	339.08020408163264	58	127
339.09183673469386	339.3356462585034	55	127
339.3356462585034	339.8697052154195	70	127
339.3356462585034	340.0554648526077	46	127
339.57945578231295	339.81165532879817	55	127
339.82326530612244	340.0554648526077	58	127
339.8813151927438	340.0554648526077	68	127
340.0554648526077	340.6591836734694	51	127
340.0554648526077	340.51984126984127	67	127
340.2412244897959	340.4618140589569	55	127
340.4618140589569	340.6591836734694	58	127
340.5314739229025	340.6591836734694	68	127
340.6591836734694	341.3441723356009	46	127
340.6591836734694	341.1584126984127	70	127
340.90299319727893	341.08875283446713	55	127
341.1003628117914	341.3441723356009	58	127
341.1584126984127	341.3441723356009	72	127
341.3441723356009	341.8201814058957	74	127
341.3441723356009	342.0059410430839	51	127
341.5995918367347	341.77374149659863	55	127
341.77374149659863	342.0059410430839	58	127
341.83179138322	342.0059410430839	75	127
342.0175510204082	344.16539682539684	75	127
342.0175510204082	344.8736054421769	48	127
342.0175510204082	344.8736054421769	51	127
342.0175510204082	344.8736054421769	57	127
344.1770068027211	344.33954648526077	74	127
344.35115646258504	344.52530612244897	75	127
344.52530612244897	344.6878458049887	77	127
344.6878458049887	344.8736054421769	75	127
344.8736054421769	345.53537414965984	48	127
344.8736054421769	345.0477551020408	74	127
344.8736054421769	345.53537414965984	51	127
344.8736054421769	345.53537414965984	57	127
345.0593650793651	345.2218820861678	75	127
345.233514739229	345.34961451247165	77	127
345.3612244897959	345.53537414965984	75	127
345.5469841269841	345.6863038548753	74	127
345.5469841269841	346.25519274376416	51	127
345.5469841269841	346.25519274376416	48	127
345.5469841269841	346.25519274376416	57	127
345.69791383219956	345.88367346938776	72	127
345.88367346938776	346.06943310657596	70	127
346.06943310657596	346.25519274376416	69	127
346.2668027210884	346.61510204081634	70	127
346.2668027210884	346.61510204081634	46	127
346.2668027210884	346.61510204081634	50	127
346.2668027210884	346.61510204081634	58	127
346.92857142857144	347.66	33	127
346.92857142857144	347.66	45	127
347.6715873015873	349.11124716553286	34	127
347.6715873015873	349.11124716553286	46	127
349.11124716553286	349.7614058956916	53	127
349.11124716553286	349.7614058956916	46	127
349.11124716553286	349.7614058956916	65	127
349.11124716553286	349.7614058956916	50	127
349.7730158730159	350.50444444444446	46	127
349.7730158730159	350.50444444444446	53	127
349.7730158730159	350.50444444444446	50	127
349.7730158730159	350.50444444444446	65	127
350.50444444444446	353.36049886621316	51	127
350.50444444444446	353.36049886621316	48	127
350.50444444444446	352.6174603174603	75	127
350.50444444444446	353.36049886621316	57	127
352.6290702947846	352.8032199546485	74	127
352.8148299319728	353.000589569161	75	127
353.000589569161	353.18634920634923	77	127
353.18634920634923	353.36049886621316	75	127
353.37210884353743	354.05709750566893	57	127
353.37210884353743	353.51142857142855	74	127
353.37210884353743	354.05709750566893	51	127
353.37210884353743	354.05709750566893	48	127
353.5230385487528	353.68557823129254	75	127
353.6971882086168	353.85972789115647	77	127
353.87133786848074	354.05709750566893	75	127
354.05709750566893	354.68403628117915	57	127
354.05709750566893	354.2080272108844	74	127
354.05709750566893	354.68403628117915	51	127
354.05709750566893	354.68403628117915	48	127
354.2080272108844	354.32410430839	72	127
354.32410430839	354.49827664399095	70	127
354.5098866213152	354.68403628117915	69	127
354.6956462585034	355.3341723356009	50	127
354.6956462585034	355.3341723356009	70	127
354.6956462585034	355.3341723356009	46	127
355.3341723356009	356.04240362811794	58	127
356.0539909297052	356.69256235827663	46	127
356.0539909297052	356.69256235827663	50	127
356.7041723356009	357.4007709750567	51	127
356.7041723356009	357.4007709750567	48	127
356.7041723356009	356.8782993197279	74	127
356.8899319727891	357.0524716553288	75	127
357.0640816326531	357.2150113378685	77	127
357.22662131519274	357.4007709750567	75	127
357.4007709750567	357.54009070294785	74	127
357.54009070294785	357.72585034013605	75	127
357.7374603174603	357.8767800453515	77	127
357.88839002267576	358.0509297052154	75	127
358.0625396825397	358.2134693877551	74	127
358.0625396825397	358.72430839002266	48	127
358.0625396825397	358.72430839002266	51	127
358.2134693877551	358.341179138322	72	127
358.35278911564626	358.53854875283446	70	127
358.53854875283446	358.72430839002266	69	127
358.72430839002266	359.36285714285714	46	127
358.72430839002266	359.36285714285714	50	127
358.72430839002266	359.36285714285714	70	127
359.3744671201814	360.0594557823129	58	127
360.0710657596372	360.7328344671202	50	127
360.0710657596372	360.7328344671202	46	127
360.7328344671202	361.39460317460316	51	127
360.7328344671202	361.39460317460316	48	127
360.7328344671202	360.8837641723356	74	127
360.8837641723356	361.06950113378684	75	127
361.08113378684806	361.25528344671204	77	127
361.2668707482993	361.39460317460316	75	127
361.39460317460316	361.5455328798186	74	127
361.5455328798186	361.70807256235827	75	127
361.71968253968254	361.88219954648525	77	127
361.88219954648525	362.06798185941045	75	127
362.06798185941045	362.2305215419501	74	127
362.06798185941045	362.75297052154195	51	127
362.06798185941045	362.75297052154195	48	127
362.2421315192744	362.3930385487528	72	127
362.40467120181404	362.578820861678	70	127
362.5904308390023	362.75297052154195	69	127
362.75297052154195	363.4031292517007	46	127
362.75297052154195	362.88068027210886	76	127
362.75297052154195	363.4031292517007	50	127
362.88068027210886	363.06643990929706	77	127
363.06643990929706	363.2289795918367	79	127
363.2289795918367	363.4031292517007	77	127
363.414716553288	363.5888888888889	76	127
363.6004988662132	363.7398185941043	77	127
363.75142857142856	363.902358276644	79	127
363.9139682539683	364.0997278911565	77	127
364.0997278911565	364.79632653061225	50	127
364.0997278911565	364.2738775510204	75	127
364.0997278911565	364.79632653061225	46	127
364.2738775510204	364.44802721088433	74	127
364.4596371882086	364.64537414965986	72	127
364.65700680272107	364.79632653061225	70	127
364.8079365079365	364.9704761904762	79	127
364.98208616780045	365.1330158730159	80	127
365.14462585034016	365.29555555555555	82	127
365.29555555555555	365.45807256235827	80	127
365.45807256235827	365.60902494331066	79	127
365.45807256235827	366.10825396825396	46	127
365.45807256235827	366.10825396825396	50	127
365.45807256235827	366.10825396825396	53	127
365.6206349206349	365.7715419501134	80	127
365.7831746031746	365.93410430839003	82	127
365.9457142857143	366.10825396825396	80	127
366.11986394557823	366.28238095238095	79	127
366.29401360544216	366.4449433106576	77	127
366.4449433106576	366.60748299319727	75	127
366.60748299319727	366.770022675737	74	127
366.78163265306125	366.93256235827664	83	127
366.78163265306125	367.43179138321995	46	127
366.78163265306125	367.43179138321995	53	127
366.78163265306125	367.43179138321995	56	127
366.9441723356009	367.0834920634921	84	127
367.09507936507936	367.2344217687075	86	127
367.24603174603175	367.43179138321995	84	127
367.43179138321995	367.61755102040814	83	127
367.61755102040814	367.79170068027213	84	127
367.8033106575964	367.9774603174603	86	127
367.9890702947846	368.14	84	127
368.15160997732426	368.32573696145124	82	127
368.15160997732426	368.8365759637188	56	127
368.15160997732426	368.8365759637188	53	127
368.15160997732426	368.8365759637188	46	127
368.33736961451245	368.47668934240363	80	127
368.4882993197279	368.6740589569161	79	127
368.6740589569161	368.8365759637188	77	127
368.8365759637188	369.01074829931974	76	127
369.01074829931974	369.15006802721086	77	127
369.15006802721086	369.32421768707485	79	127
369.3358276643991	369.4867573696145	80	127
369.4983673469388	369.6492743764172	79	127
369.6492743764172	369.8118367346939	77	127
369.8118367346939	369.9395464852608	75	127
369.9395464852608	370.0904761904762	74	127
370.10208616780045	370.26460317460317	73	127
370.2762358276644	370.46199546485263	74	127
370.4735827664399	370.63614512471656	75	127
370.64775510204083	370.78707482993195	77	127
370.78707482993195	370.9728344671202	75	127
370.9728344671202	371.13537414965987	74	127
371.13537414965987	371.3095238095238	72	127
371.32113378684807	371.49526077097505	70	127
371.49526077097505	371.669433106576	69	127
371.68104308390025	371.8551927437642	70	127
371.86680272108845	372.05256235827665	72	127
372.05256235827665	372.2267120181406	70	127
372.2267120181406	372.4705215419501	69	127
372.4821315192744	372.71430839002267	70	127
372.71430839002267	372.8884807256236	71	127
372.8884807256236	373.09746031746033	72	127
373.1090702947846	373.30643990929707	73	127
373.31804988662134	373.55024943310656	74	127
373.5618594104308	373.7475963718821	75	127
373.7475963718821	374.0146485260771	76	127
374.0262585034014	374.28167800453514	77	127
374.28167800453514	374.66478458049886	78	127
374.66478458049886	375.2801133786848	79	127
375.291746031746	376.04639455782313	58	127
375.291746031746	376.62689342403627	80	127
376.04639455782313	376.8126303854875	70	127
376.63850340136054	376.8126303854875	77	127
376.82426303854874	377.52083900226756	68	127
376.82426303854874	377.3234693877551	82	127
377.3234693877551	377.52083900226756	74	127
377.5324716553288	378.26390022675736	67	127
377.5324716553288	379.0069387755102	75	127
378.26390022675736	379.0069387755102	63	127
379.0185487528345	379.8312471655329	62	127
379.8312471655329	380.6091156462585	63	127
380.62072562358276	381.35215419501134	61	127
381.3637641723356	381.85138321995464	60	127
381.3637641723356	381.5495238095238	80	127
381.4566439909297	381.66562358276644	82	127
381.5611337868481	381.85138321995464	80	127
381.6772335600907	381.94426303854874	82	127
381.8629931972789	382.0951927437642	84	127
381.8629931972789	382.35061224489795	56	127
382.10680272108846	382.35061224489795	82	127
382.35061224489795	383.97600907029477	82	127
382.35061224489795	383.2213605442177	63	127
383.232970521542	383.97600907029477	55	127
383.97600907029477	384.7306575963719	67	127
383.97600907029477	384.7306575963719	63	127
384.74226757369615	385.4969160997732	62	127
384.74226757369615	385.4969160997732	65	127
385.5085260770975	386.23995464852607	58	127
385.5085260770975	386.23995464852607	62	127
386.23995464852607	386.9829931972789	59	127
386.23995464852607	386.9829931972789	62	127
386.9946031746032	388.4806802721088	60	127
386.9946031746032	388.4806802721088	63	127
388.4922902494331	389.4443083900227	56	127
388.4922902494331	389.4443083900227	65	127
388.4922902494331	389.4443083900227	60	127
388.4922902494331	388.6548299319728	77	127
388.55034013605444	388.7244897959184	79	127
388.6780498866213	388.79414965986393	77	127
388.73609977324264	389.0263492063492	76	127
388.840589569161	389.0263492063492	77	127
389.0263492063492	389.23532879818595	80	127
389.23532879818595	389.4443083900227	84	127
389.45591836734695	389.8506575963719	84	127
389.45591836734695	390.26861678004536	57	127
389.45591836734695	390.26861678004536	60	127
389.45591836734695	390.26861678004536	66	127
389.8738775510204	391.04648526077096	75	127
390.26861678004536	391.04648526077096	67	127
390.26861678004536	391.04648526077096	58	127
390.26861678004536	391.04648526077096	63	127
391.05809523809523	391.7895238095238	35	127
391.05809523809523	391.7895238095238	56	127
391.05809523809523	391.7895238095238	62	127
391.05809523809523	391.7895238095238	47	127
391.7895238095238	392.6602721088435	55	127
391.7895238095238	392.6602721088435	60	127
391.7895238095238	392.6602721088435	36	127
391.7895238095238	392.6602721088435	48	127
392.6718820861678	393.44975056689344	60	127
393.4613605442177	393.5542403628118	77	127
393.4613605442177	394.4249886621315	56	127
393.4613605442177	394.4249886621315	65	127
393.4613605442177	394.4249886621315	60	127
393.5658503401361	393.6471201814059	79	127
393.68195011337866	393.80965986394557	77	127
393.8444897959184	393.9257596371882	76	127
393.9373696145125	394.07668934240365	77	127
394.00702947845804	394.13473922902494	79	127
394.08829931972787	394.22761904761904	80	127
394.1463492063492	394.2856689342404	82	127
394.2972789115646	394.4249886621315	84	127
394.4249886621315	395.2144671201814	66	127
394.4249886621315	395.2144671201814	60	127
394.4249886621315	395.2144671201814	57	127
394.4249886621315	394.8313378684807	84	127
394.8313378684807	395.99233560090704	75	127
395.22607709750565	395.99233560090704	63	127
395.22607709750565	395.99233560090704	58	127
395.22607709750565	395.99233560090704	67	127
395.99233560090704	396.83986394557826	35	127
395.99233560090704	396.83986394557826	47	127
395.99233560090704	396.83986394557826	62	127
395.99233560090704	396.83986394557826	56	127
396.85147392290247	397.6061224489796	60	127
396.85147392290247	397.6061224489796	36	127
396.85147392290247	397.6061224489796	48	127
396.85147392290247	397.6061224489796	55	127
397.61773242630386	398.03569160997733	63	127
398.03569160997733	398.44204081632654	60	127
398.44204081632654	398.8251700680272	56	127
398.44204081632654	398.53492063492064	77	127
398.53492063492064	398.62780045351474	79	127
398.62780045351474	398.7322902494331	77	127
398.7322902494331	398.8251700680272	76	127
398.8251700680272	399.30117913832197	53	127
398.8251700680272	399.0225396825397	77	127
398.90643990929703	399.080589569161	79	127
399.0225396825397	399.1386394557823	80	127
399.09219954648523	399.1850793650794	82	127
399.21990929705214	399.30117913832197	84	127
399.31278911564624	399.6030385487528	84	127
399.31278911564624	400.0790476190476	58	127
399.7075283446712	400.47378684807256	82	127
400.0790476190476	400.85691609977323	55	127
400.48539682539683	401.2748752834467	82	127
400.85691609977323	401.70444444444445	51	127
401.286485260771	401.70444444444445	82	127
401.7160544217687	404.21219954648524	53	127
401.7160544217687	402.16884353741494	82	127
401.7160544217687	404.21219954648524	46	127
401.7160544217687	404.21219954648524	56	127
402.1804535147392	402.3778231292517	80	127
402.38943310657595	402.57519274376415	79	127
402.5868027210884	402.7725623582766	77	127
402.7841723356009	402.96993197278914	75	127
402.96993197278914	403.15569160997734	74	127
403.1673015873016	403.34145124716554	72	127
403.3530612244898	403.52721088435374	70	127
403.538820861678	403.7361904761905	68	127
403.74780045351474	403.98	67	127
403.98	404.21219954648524	65	127
404.2238095238095	404.83913832199545	63	127
404.2238095238095	404.83913832199545	51	127
404.2238095238095	404.83913832199545	55	127
405.82598639455784	406.627074829932	68	127
405.82598639455784	406.627074829932	58	127
405.82598639455784	406.627074829932	62	127
406.63868480725625	407.37011337868483	63	127
406.63868480725625	407.37011337868483	51	127
406.63868480725625	407.37011337868483	67	127
408.18281179138324	408.77492063492065	67	127
408.18281179138324	408.96068027210885	62	127
408.18281179138324	408.96068027210885	46	127
408.18281179138324	408.96068027210885	56	127
408.77492063492065	408.96068027210885	65	127
408.96068027210885	409.3902494331066	63	127
408.96068027210885	409.3902494331066	51	127
408.96068027210885	409.3902494331066	55	127
410.49319727891157	411.2478458049887	58	127
410.49319727891157	411.2478458049887	62	127
410.49319727891157	411.2478458049887	68	127
411.2594557823129	412.0489342403628	51	127
411.2594557823129	412.0489342403628	67	127
411.2594557823129	412.0489342403628	63	127
412.0605442176871	412.7919727891156	56	127
412.0605442176871	412.7919727891156	62	127
412.0605442176871	412.7919727891156	46	127
412.0605442176871	412.58299319727894	67	127
412.59460317460315	412.7919727891156	65	127
412.7919727891156	413.5234013605442	55	127
412.7919727891156	413.5234013605442	63	127
412.7919727891156	413.5234013605442	51	127
413.5234013605442	414.26643990929705	62	127
413.5234013605442	414.0574603174603	67	127
413.5234013605442	414.26643990929705	46	127
413.5234013605442	414.26643990929705	56	127
414.0690702947846	414.26643990929705	65	127
414.2780498866213	414.99786848072563	55	127
414.2780498866213	414.99786848072563	51	127
414.2780498866213	414.99786848072563	63	127
414.99786848072563	415.5087074829932	67	127
414.99786848072563	415.6944671201814	46	127
414.99786848072563	415.6944671201814	56	127
414.99786848072563	415.6944671201814	62	127
415.5203174603175	415.6944671201814	65	127
415.70607709750567	416.472335600907	55	127
415.70607709750567	416.472335600907	63	127
415.70607709750567	416.472335600907	51	127
416.48394557823127	417.21537414965985	51	127
416.48394557823127	417.21537414965985	55	127
416.48394557823127	417.21537414965985	58	127
417.2269841269841	418.48086167800454	51	127
417.2269841269841	418.48086167800454	55	127
417.2269841269841	418.48086167800454	58	127
417.2269841269841	417.35469387755103	82	127
417.30825396825395	417.43596371882086	84	127
417.3663038548753	417.5056235827664	82	127
417.4475736961451	417.5985034013605	84	127
417.5172335600907	417.6797732426304	82	127
417.6101133786848	417.74943310657596	84	127
417.6797732426304	417.8307029478458	82	127
417.76104308390023	417.88875283446714	84	127
417.8307029478458	417.97002267573697	82	127
417.9003628117914	418.06290249433107	81	127
418.07451247165534	418.48086167800454	82	127
418.4924716553288	418.6434013605442	87	127
418.4924716553288	418.6434013605442	51	127
418.4924716553288	418.6434013605442	58	127
418.4924716553288	418.6434013605442	55	127
