# onset,offset,note,velocity
0.034058956916099774	0.12693877551020408	67	127
0.719047619047619	0.8467573696145124	50	127
0.8467573696145124	0.9280272108843537	55	127
0.9280272108843537	1.0209070294784581	59	127
1.0209070294784581	1.1370068027210884	62	127
1.1370068027210884	1.914875283446712	43	127
1.1370068027210884	1.914875283446712	31	127
1.1370068027210884	1.2182539682539681	61	127
1.2182539682539681	1.311156462585034	62	127
1.311156462585034	1.4156462585034013	64	127
1.4156462585034013	1.5201360544217688	62	127
1.5201360544217688	1.613015873015873	59	127
1.613015873015873	1.7058956916099772	62	127
1.7058956916099772	1.8103854875283447	60	127
1.8103854875283447	1.914875283446712	57	127
1.914875283446712	2.0309750566893423	55	127
1.914875283446712	2.750793650793651	43	127
1.914875283446712	2.750793650793651	31	127
2.0309750566893423	2.135442176870748	59	127
2.135442176870748	2.228344671201814	50	127
2.228344671201814	2.3328344671201813	59	127
2.3328344671201813	2.460521541950113	50	127
2.460521541950113	2.553424036281179	55	127
2.553424036281179	2.6579138321995464	59	127
2.6579138321995464	2.750793650793651	62	127
2.750793650793651	3.6215419501133788	31	127
2.750793650793651	2.832063492063492	61	127
2.750793650793651	3.6215419501133788	43	127
2.8436734693877552	2.9481632653061225	62	127
2.9597732426303853	3.0526530612244898	64	127
3.064263038548753	3.157142857142857	62	127
3.1687528344671203	3.2616326530612243	59	127
3.2732426303854876	3.366122448979592	62	127
3.377732426303855	3.4938321995464854	60	127
3.505442176870748	3.6215419501133788	57	127
3.6331519274376416	4.50390022675737	43	127
3.6331519274376416	4.50390022675737	31	127
3.6331519274376416	4.074308390022676	55	127
4.0859410430839	4.1788208616780045	50	127
4.190430839002268	4.294897959183674	55	127
4.306530612244898	4.399410430839002	59	127
4.399410430839002	4.50390022675737	62	127
4.50390022675737	5.3165986394557825	31	127
4.50390022675737	4.585170068027211	61	127
4.50390022675737	5.3165986394557825	43	127
4.585170068027211	4.701269841269841	62	127
4.701269841269841	4.805759637188209	64	127
4.805759637188209	4.910249433106576	62	127
4.910249433106576	5.00312925170068	59	127
5.00312925170068	5.107619047619048	62	127
5.107619047619048	5.212108843537415	60	127
5.212108843537415	5.3165986394557825	57	127
5.3165986394557825	5.421065759637188	55	127
5.3165986394557825	6.198956916099773	43	127
5.3165986394557825	6.198956916099773	31	127
5.421065759637188	5.53718820861678	59	127
5.53718820861678	5.630068027210885	50	127
5.630068027210885	5.746167800453515	59	127
5.746167800453515	5.873877551020408	50	127
5.873877551020408	5.989977324263038	55	127
5.989977324263038	6.094467120181406	59	127
6.094467120181406	6.198956916099773	62	127
6.198956916099773	7.011655328798186	43	127
6.198956916099773	7.011655328798186	31	127
6.198956916099773	6.315056689342404	61	127
6.315056689342404	6.419546485260771	62	127
6.419546485260771	6.524036281179138	64	127
6.524036281179138	6.616916099773243	62	127
6.616916099773243	6.709795918367347	59	127
6.72140589569161	6.802675736961452	62	127
6.814285714285714	6.9071655328798185	60	127
6.918775510204082	7.011655328798186	57	127
7.023265306122449	7.4412244897959186	55	127
7.023265306122449	7.4412244897959186	31	127
7.023265306122449	7.4412244897959186	43	127
7.452834467120182	7.545714285714285	54	127
7.557324263038549	7.661814058956916	55	127
7.673424036281179	7.766303854875283	57	127
7.7779138321995465	7.870793650793651	59	127
7.882403628117914	8.741519274376417	50	127
7.882403628117914	7.975283446712018	60	127
7.998503401360544	8.091383219954649	59	127
8.102993197278911	8.195873015873016	57	127
8.195873015873016	8.300340136054421	55	127
8.300340136054421	8.43968253968254	54	127
8.43968253968254	8.532562358276644	55	127
8.532562358276644	8.637052154195011	57	127
8.637052154195011	8.741519274376417	59	127
8.741519274376417	8.846031746031747	60	127
8.741519274376417	9.58907029478458	50	127
8.846031746031747	8.97374149659864	59	127
8.97374149659864	9.078231292517007	57	127
9.078231292517007	9.182721088435374	55	127
9.136281179138322	9.217528344671202	73	127
9.182721088435374	9.368480725623582	74	127
9.182721088435374	9.275600907029478	54	127
9.275600907029478	9.368480725623582	55	127
9.322040816326531	9.414920634920636	73	127
9.368480725623582	9.58907029478458	74	127
9.368480725623582	9.484580498866213	57	127
9.484580498866213	9.58907029478458	59	127
9.542630385487529	9.647120181405896	73	127
9.58907029478458	9.809659863945578	74	127
9.58907029478458	10.030249433106576	50	127
9.58907029478458	9.705170068027211	60	127
9.705170068027211	9.809659863945578	59	127
9.763219954648527	9.856099773242631	73	127
9.82124716553288	9.902539682539683	57	127
9.82124716553288	10.030249433106576	74	127
9.914149659863945	10.030249433106576	55	127
9.960589569160998	10.076666666666666	73	127
10.030249433106576	10.239229024943311	50	127
10.030249433106576	10.12312925170068	54	127
10.030249433106576	10.239229024943311	74	127
10.134739229024943	10.239229024943311	55	127
10.181179138321996	10.30888888888889	73	127
10.239229024943311	10.378548752834467	54	127
10.239229024943311	10.50625850340136	74	127
10.239229024943311	10.50625850340136	50	127
10.378548752834467	10.50625850340136	55	127
10.436598639455783	10.587528344671203	73	127
10.517845804988662	10.982267573696145	54	127
10.517845804988662	10.982267573696145	50	127
10.517845804988662	10.982267573696145	74	127
10.993854875283446	11.202857142857143	74	127
11.214444444444444	11.411836734693878	74	127
11.42344671201814	11.620816326530612	47	127
11.42344671201814	11.620816326530612	50	127
11.42344671201814	11.620816326530612	74	127
11.527936507936507	11.748526077097505	43	127
11.620816326530612	11.864625850340136	47	127
11.620816326530612	11.864625850340136	50	127
11.620816326530612	11.702086167800454	74	127
11.6556462585034	11.748526077097505	76	127
11.702086167800454	11.794965986394558	74	127
11.748526077097505	11.864625850340136	73	127
11.748526077097505	11.969115646258503	43	127
11.818163265306122	11.922675736961452	74	127
11.864625850340136	12.07360544217687	50	127
11.864625850340136	12.07360544217687	76	127
11.864625850340136	12.07360544217687	47	127
11.969115646258503	12.189705215419501	43	127
12.07360544217687	12.282585034013605	48	127
12.07360544217687	12.282585034013605	78	127
12.07360544217687	12.282585034013605	50	127
12.189705215419501	12.282585034013605	43	127
12.282585034013605	12.49156462585034	50	127
12.282585034013605	12.49156462585034	47	127
12.282585034013605	12.49156462585034	79	127
12.387074829931972	12.60766439909297	43	127
12.49156462585034	12.712154195011339	50	127
12.49156462585034	12.712154195011339	47	127
12.49156462585034	12.60766439909297	83	127
12.60766439909297	12.816643990929705	43	127
12.712154195011339	12.932743764172336	47	127
12.712154195011339	12.932743764172336	50	127
12.712154195011339	12.932743764172336	74	127
12.816643990929705	13.037233560090703	43	127
12.932743764172336	13.14172335600907	50	127
12.932743764172336	13.14172335600907	47	127
12.932743764172336	13.14172335600907	74	127
13.037233560090703	13.14172335600907	43	127
13.14172335600907	13.350702947845805	50	127
13.14172335600907	13.350702947845805	47	127
13.14172335600907	13.350702947845805	74	127
13.246213151927437	13.455192743764172	43	127
13.350702947845805	13.420362811791383	74	127
13.350702947845805	13.536462585034014	47	127
13.350702947845805	13.536462585034014	50	127
13.385532879818594	13.455192743764172	76	127
13.420362811791383	13.490022675736961	74	127
13.455192743764172	13.640952380952381	43	127
13.455192743764172	13.536462585034014	73	127
13.501632653061224	13.582902494331066	74	127
13.536462585034014	13.745442176870748	76	127
13.536462585034014	13.745442176870748	50	127
13.536462585034014	13.745442176870748	47	127
13.640952380952381	13.873151927437641	43	127
13.745442176870748	13.966031746031746	78	127
13.745442176870748	13.966031746031746	50	127
13.745442176870748	13.966031746031746	48	127
13.873151927437641	13.966031746031746	43	127
13.966031746031746	14.175011337868481	47	127
13.966031746031746	14.383990929705215	79	127
13.966031746031746	14.175011337868481	50	127
14.070521541950113	14.279501133786848	43	127
14.186621315192744	14.383990929705215	47	127
14.186621315192744	14.383990929705215	50	127
14.29111111111111	14.47687074829932	43	127
14.395600907029479	14.581360544217688	50	127
14.395600907029479	14.581360544217688	47	127
14.395600907029479	14.47687074829932	74	127
14.488480725623583	14.685850340136055	43	127
14.488480725623583	14.581360544217688	79	127
14.59297052154195	14.790340136054422	47	127
14.59297052154195	14.790340136054422	50	127
14.59297052154195	14.685850340136055	83	127
14.697460317460317	14.790340136054422	86	127
14.697460317460317	14.790340136054422	43	127
14.801950113378684	14.906439909297053	85	127
14.801950113378684	15.01092970521542	47	127
14.801950113378684	15.01092970521542	50	127
14.906439909297053	15.022539682539682	86	127
14.906439909297053	15.115419501133786	43	127
15.022539682539682	15.196689342403628	47	127
15.022539682539682	15.196689342403628	50	127
15.022539682539682	15.115419501133786	88	127
15.115419501133786	15.20829931972789	86	127
15.115419501133786	15.301179138321995	43	127
15.20829931972789	15.31278911564626	83	127
15.20829931972789	15.417278911564626	47	127
15.20829931972789	15.417278911564626	50	127
15.31278911564626	15.521768707482993	43	127
15.31278911564626	15.417278911564626	86	127
15.417278911564626	15.62625850340136	50	127
15.417278911564626	15.62625850340136	54	127
15.417278911564626	15.521768707482993	84	127
15.521768707482993	15.62625850340136	81	127
15.521768707482993	15.62625850340136	43	127
15.62625850340136	15.870068027210884	55	127
15.62625850340136	15.870068027210884	50	127
15.62625850340136	15.74235827664399	79	127
15.74235827664399	15.97455782312925	43	127
15.74235827664399	15.870068027210884	83	127
15.870068027210884	16.079024943310657	50	127
15.870068027210884	16.079024943310657	47	127
15.870068027210884	15.97455782312925	74	127
15.97455782312925	16.079024943310657	83	127
15.97455782312925	16.171927437641724	43	127
16.079024943310657	16.171927437641724	74	127
16.079024943310657	16.241587301587302	47	127
16.079024943310657	16.241587301587302	50	127
16.171927437641724	16.241587301587302	79	127
16.171927437641724	16.322857142857142	43	127
16.241587301587302	16.42734693877551	50	127
16.241587301587302	16.42734693877551	47	127
16.241587301587302	16.322857142857142	83	127
16.322857142857142	16.42734693877551	43	127
16.322857142857142	16.42734693877551	86	127
16.42734693877551	16.53183673469388	85	127
16.42734693877551	16.636326530612244	50	127
16.42734693877551	16.636326530612244	47	127
16.53183673469388	16.752426303854875	43	127
16.53183673469388	16.647936507936507	86	127
16.647936507936507	16.752426303854875	88	127
16.647936507936507	16.856916099773244	50	127
16.647936507936507	16.856916099773244	47	127
16.752426303854875	16.949795918367347	43	127
16.752426303854875	16.856916099773244	86	127
16.856916099773244	16.949795918367347	83	127
16.856916099773244	17.054285714285715	50	127
16.856916099773244	17.054285714285715	47	127
16.949795918367347	17.054285714285715	86	127
16.949795918367347	17.170385487528346	43	127
17.054285714285715	17.29809523809524	54	127
17.054285714285715	17.170385487528346	84	127
17.054285714285715	17.29809523809524	50	127
17.170385487528346	17.29809523809524	43	127
17.170385487528346	17.29809523809524	81	127
17.29809523809524	17.76249433106576	55	127
17.29809523809524	17.76249433106576	79	127
17.29809523809524	17.76249433106576	43	127
17.29809523809524	17.76249433106576	50	127
17.774104308390022	17.983061224489795	59	127
17.774104308390022	17.983061224489795	47	127
17.87859410430839	18.099183673469387	62	127
17.994693877551022	18.22689342403628	43	127
17.994693877551022	18.22689342403628	67	127
18.11077097505669	18.22689342403628	62	127
18.23848072562358	18.737732426303854	50	127
18.23848072562358	18.737732426303854	66	127
18.749319727891155	18.969931972789116	55	127
18.749319727891155	18.969931972789116	74	127
18.969931972789116	19.19049886621315	59	127
18.969931972789116	19.19049886621315	71	127
19.19049886621315	19.71297052154195	69	127
19.19049886621315	19.71297052154195	62	127
19.71297052154195	19.933560090702947	47	127
19.71297052154195	19.817460317460316	59	127
19.817460317460316	19.933560090702947	62	127
19.933560090702947	20.04965986394558	59	127
19.933560090702947	20.154149659863947	43	127
20.04965986394558	20.154149659863947	67	127
20.154149659863947	20.595328798185943	66	127
20.154149659863947	20.595328798185943	50	127
20.54888888888889	20.653356009070293	76	127
20.595328798185943	20.7346485260771	74	127
20.595328798185943	20.85074829931973	55	127
20.7346485260771	20.85074829931973	73	127
20.85074829931973	21.071337868480725	59	127
20.85074829931973	20.955238095238094	74	127
20.955238095238094	21.071337868480725	71	127
21.071337868480725	21.558956916099774	62	127
21.071337868480725	21.558956916099774	69	127
21.570566893424036	21.77954648526077	64	127
21.675056689342405	21.88403628117914	67	127
21.79113378684807	21.988526077097507	62	127
21.8956462585034	22.104603174603174	66	127
22.00013605442177	22.209115646258503	60	127
22.1162358276644	22.313605442176872	64	127
22.220725623582766	22.406485260770975	59	127
22.325215419501134	22.510975056689343	62	127
22.418095238095237	22.615442176870747	57	127
22.522585034013606	22.719954648526077	60	127
22.627074829931974	22.812834467120183	62	127
22.73156462585034	22.917324263038548	60	127
22.824444444444445	23.021814058956917	59	127
22.92891156462585	23.137913832199548	57	127
23.021814058956917	23.26562358276644	55	127
23.137913832199548	23.381723356009072	53	127
23.26562358276644	23.486213151927437	84	127
23.26562358276644	23.486213151927437	52	127
23.381723356009072	23.590702947845806	55	127
23.381723356009072	23.590702947845806	86	127
23.486213151927437	23.68358276643991	50	127
23.486213151927437	23.68358276643991	83	127
23.590702947845806	23.788072562358277	54	127
23.590702947845806	23.788072562358277	84	127
23.68358276643991	23.892562358276646	81	127
23.68358276643991	23.892562358276646	48	127
23.788072562358277	23.985442176870748	52	127
23.788072562358277	23.985442176870748	83	127
23.892562358276646	24.089931972789117	47	127
23.892562358276646	24.089931972789117	79	127
23.985442176870748	24.194421768707482	81	127
23.985442176870748	24.194421768707482	50	127
24.089931972789117	24.322131519274375	78	127
24.089931972789117	24.322131519274375	45	127
24.194421768707482	24.44984126984127	50	127
24.33374149659864	24.554331065759637	48	127
24.33374149659864	24.473061224489797	78	127
24.41501133786848	24.554331065759637	79	127
24.48467120181406	24.554331065759637	78	127
24.554331065759637	24.98390022675737	79	127
24.554331065759637	24.76331065759637	43	127
24.658820861678006	24.86780045351474	47	127
24.76331065759637	24.98390022675737	50	127
24.879410430839002	24.98390022675737	48	127
25.018730158730158	25.25092970521542	67	127
25.018730158730158	25.25092970521542	47	127
25.25092970521542	25.471519274376416	71	127
25.25092970521542	25.471519274376416	43	127
25.471519274376416	25.93591836734694	69	127
25.471519274376416	25.93591836734694	50	127
25.93591836734694	26.168117913832198	55	127
25.93591836734694	26.168117913832198	71	127
26.063628117913833	26.272607709750567	62	127
26.168117913832198	26.411927437641722	59	127
26.168117913832198	26.411927437641722	67	127
26.272607709750567	26.411927437641722	62	127
26.411927437641722	26.911156462585033	66	127
26.411927437641722	26.911156462585033	62	127
26.853106575963718	26.98081632653061	69	127
26.911156462585033	27.178185941043083	47	127
26.911156462585033	27.178185941043083	67	127
27.038866213151927	27.294285714285714	66	127
27.178185941043083	27.398775510204082	43	127
27.178185941043083	27.398775510204082	67	127
27.294285714285714	27.398775510204082	71	127
27.398775510204082	27.898004535147393	69	127
27.398775510204082	27.898004535147393	50	127
27.909614512471656	28.106984126984127	71	127
27.909614512471656	28.106984126984127	55	127
28.014104308390024	28.223083900226758	62	127
28.11859410430839	28.35079365079365	59	127
28.11859410430839	28.35079365079365	67	127
28.23469387755102	28.35079365079365	62	127
28.362403628117914	28.81519274376417	66	127
28.362403628117914	28.81519274376417	62	127
28.826802721088434	29.047392290249434	64	127
28.826802721088434	29.047392290249434	72	127
28.91968253968254	29.1518820861678	67	127
28.91968253968254	29.1518820861678	74	127
29.059002267573696	29.256371882086167	71	127
29.059002267573696	29.256371882086167	62	127
29.163492063492065	29.3724716553288	66	127
29.163492063492065	29.3724716553288	72	127
29.279591836734692	29.4653514739229	69	127
29.279591836734692	29.4653514739229	60	127
29.3724716553288	29.56984126984127	64	127
29.3724716553288	29.56984126984127	71	127
29.4653514739229	29.674331065759638	59	127
29.4653514739229	29.674331065759638	67	127
29.56984126984127	29.76721088435374	62	127
29.56984126984127	29.76721088435374	69	127
29.674331065759638	29.87170068027211	66	127
29.674331065759638	29.87170068027211	57	127
29.76721088435374	29.964580498866212	60	127
29.87170068027211	29.999410430839003	66	127
29.87170068027211	30.06907029478458	62	127
29.929750566893425	30.06907029478458	67	127
29.964580498866212	30.18517006802721	60	127
29.999410430839003	30.06907029478458	66	127
30.06907029478458	30.301269841269843	67	127
30.06907029478458	30.301269841269843	59	127
30.18517006802721	30.394149659863945	57	127
30.301269841269843	30.48702947845805	55	127
30.301269841269843	30.394149659863945	74	127
30.394149659863945	30.591519274376417	53	127
30.48702947845805	30.707619047619048	52	127
30.48702947845805	30.707619047619048	72	127
30.591519274376417	30.82371882086168	74	127
30.591519274376417	30.82371882086168	55	127
30.707619047619048	30.928208616780044	71	127
30.707619047619048	30.928208616780044	50	127
30.82371882086168	31.032698412698412	72	127
30.82371882086168	31.032698412698412	54	127
30.928208616780044	31.13718820861678	69	127
30.928208616780044	31.13718820861678	48	127
31.032698412698412	31.241678004535146	52	127
31.032698412698412	31.241678004535146	71	127
31.13718820861678	31.346167800453514	47	127
31.13718820861678	31.346167800453514	67	127
31.241678004535146	31.43904761904762	50	127
31.241678004535146	31.43904761904762	69	127
31.346167800453514	31.543537414965986	66	127
31.346167800453514	31.543537414965986	45	127
31.43904761904762	31.659637188208617	50	127
31.543537414965986	31.775736961451248	48	127
31.543537414965986	31.694467120181407	66	127
31.624807256235826	31.775736961451248	67	127
31.659637188208617	31.775736961451248	45	127
31.694467120181407	31.775736961451248	66	127
31.78734693877551	31.90344671201814	67	127
31.78734693877551	32.03113378684807	43	127
31.90344671201814	32.03113378684807	62	127
32.03113378684807	32.1356462585034	59	127
32.1356462585034	32.25174603174603	55	127
32.25174603174603	32.34462585034014	50	127
32.34462585034014	32.449115646258505	55	127
32.46072562358277	32.553605442176874	59	127
32.565215419501136	32.65807256235828	62	127
32.66968253968254	33.55204081632653	31	127
32.66968253968254	33.55204081632653	43	127
32.66968253968254	32.762585034013604	61	127
32.774195011337866	32.86707482993197	62	127
32.878684807256235	32.97156462585034	64	127
32.983174603174604	33.07605442176871	62	127
33.08766439909297	33.145714285714284	59	127
33.15732426303855	33.28503401360544	62	127
33.296621315192745	33.42433106575964	60	127
33.435963718820865	33.55204081632653	57	127
33.56367346938776	33.65655328798186	55	127
33.56367346938776	34.34154195011338	43	127
33.56367346938776	34.34154195011338	31	127
33.66816326530612	33.761043083900226	59	127
33.77265306122449	33.83070294784581	50	127
33.83070294784581	33.93517006802721	59	127
33.93517006802721	34.028072562358275	50	127
34.028072562358275	34.132562358276644	55	127
34.132562358276644	34.248662131519275	59	127
34.248662131519275	34.34154195011338	62	127
34.34154195011338	35.22390022675737	31	127
34.34154195011338	35.22390022675737	43	127
34.34154195011338	34.446009070294785	61	127
34.446009070294785	34.55052154195011	62	127
34.55052154195011	34.65501133786848	64	127
34.65501133786848	34.747891156462586	62	127
34.747891156462586	34.84077097505669	59	127
34.84077097505669	34.95684807256236	62	127
34.95684807256236	35.09619047619048	60	127
35.09619047619048	35.22390022675737	57	127
35.22390022675737	36.083015873015874	31	127
35.22390022675737	36.083015873015874	43	127
35.22390022675737	35.665079365079364	55	127
35.665079365079364	35.781179138321995	50	127
35.781179138321995	35.885668934240364	55	127
35.885668934240364	35.99015873015873	59	127
35.99015873015873	36.083015873015874	62	127
36.083015873015874	36.884126984126986	43	127
36.083015873015874	36.884126984126986	31	127
36.083015873015874	36.19913832199546	61	127
36.19913832199546	36.28040816326531	62	127
36.29201814058957	36.384897959183675	64	127
36.39650793650794	36.489387755102044	62	127
36.489387755102044	36.58226757369614	59	127
36.59385487528345	36.67514739229025	62	127
36.68675736961451	36.77963718820862	60	127
36.79124716553288	36.884126984126986	57	127
36.89573696145125	36.988616780045355	55	127
36.89573696145125	37.76648526077098	43	127
36.89573696145125	37.76648526077098	31	127
37.00022675736962	37.093106575963716	59	127
37.10469387755102	37.232403628117915	50	127
37.24403628117914	37.33691609977324	59	127
37.3485260770975	37.44140589569161	50	127
37.45301587301587	37.54589569160998	55	127
37.55750566893424	37.66199546485261	59	127
37.66199546485261	37.76648526077098	62	127
37.76648526077098	38.60240362811791	31	127
37.76648526077098	37.87095238095238	61	127
37.76648526077098	38.60240362811791	43	127
37.87095238095238	37.97546485260771	62	127
37.97546485260771	38.079954648526076	64	127
38.079954648526076	38.184444444444445	62	127
38.184444444444445	38.300544217687076	59	127
38.300544217687076	38.39342403628118	62	127
38.39342403628118	38.497891156462586	60	127
38.497891156462586	38.60240362811791	57	127
38.60240362811791	39.02036281179139	55	127
38.60240362811791	39.02036281179139	31	127
38.60240362811791	39.02036281179139	43	127
39.02036281179139	39.12485260770975	54	127
39.12485260770975	39.24095238095238	55	127
39.24095238095238	39.34544217687075	57	127
39.34544217687075	39.46154195011338	59	127
39.46154195011338	40.262630385487526	50	127
39.46154195011338	39.56603174603175	60	127
39.56603174603175	39.670521541950116	59	127
39.670521541950116	39.77498866213152	57	127
39.77498866213152	39.86789115646258	55	127
39.86789115646258	39.983990929705215	54	127
39.983990929705215	40.07687074829932	55	127
40.08848072562358	40.16975056689343	57	127
40.18136054421769	40.262630385487526	59	127
40.27421768707483	41.14498866213152	50	127
40.27421768707483	40.367120181405895	60	127
40.37873015873016	40.47160997732426	59	127
40.483219954648526	40.59931972789116	57	127
40.62253968253968	40.72702947845805	55	127
40.66897959183674	40.785056689342404	73	127
40.73863945578231	40.93600907029479	74	127
40.73863945578231	40.83151927437642	54	127
40.84312925170068	40.93600907029479	55	127
40.88956916099773	40.9940589569161	73	127
40.94761904761905	41.14498866213152	74	127
40.94761904761905	41.04047619047619	57	127
41.05210884353742	41.14498866213152	59	127
41.09854875283447	41.203038548752836	73	127
41.15659863945578	41.249478458049886	60	127
41.15659863945578	41.36557823129252	74	127
41.15659863945578	41.5397052154195	50	127
41.26108843537415	41.36557823129252	59	127
41.307528344671205	41.37718820861678	73	127
41.36557823129252	41.4352380952381	57	127
41.36557823129252	41.5397052154195	74	127
41.4352380952381	41.5397052154195	55	127
41.49328798185941	41.59777777777778	73	127
41.5397052154195	41.76031746031746	50	127
41.5397052154195	41.65582766439909	54	127
41.5397052154195	41.76031746031746	74	127
41.65582766439909	41.76031746031746	55	127
41.71387755102041	41.81836734693878	73	127
41.76031746031746	41.9692970521542	50	127
41.76031746031746	41.9692970521542	74	127
41.76031746031746	41.86480725623583	54	127
41.86480725623583	41.9692970521542	55	127
41.92283446712018	42.02734693877551	73	127
41.9692970521542	42.503356009070295	50	127
41.9692970521542	42.503356009070295	54	127
41.9692970521542	42.503356009070295	74	127
42.503356009070295	42.75877551020408	74	127
42.75877551020408	42.990975056689344	74	127
42.990975056689344	43.21156462585034	47	127
42.990975056689344	43.21156462585034	74	127
42.990975056689344	43.21156462585034	50	127
43.107074829931975	43.32764172335601	43	127
43.21156462585034	43.29283446712018	74	127
43.21156462585034	43.46698412698413	47	127
43.21156462585034	43.46698412698413	50	127
43.25800453514739	43.32764172335601	76	127
43.29283446712018	43.36249433106576	74	127
43.32764172335601	43.54825396825397	43	127
43.32764172335601	43.46698412698413	73	127
43.374104308390024	43.51342403628118	74	127
43.46698412698413	43.652743764172335	76	127
43.46698412698413	43.652743764172335	47	127
43.46698412698413	43.652743764172335	50	127
43.55986394557823	43.757233560090704	43	127
43.6643537414966	43.83850340136055	50	127
43.6643537414966	43.83850340136055	78	127
43.6643537414966	43.83850340136055	48	127
43.757233560090704	43.83850340136055	43	127
43.85011337868481	44.08229024943311	50	127
43.85011337868481	44.08229024943311	79	127
43.85011337868481	44.08229024943311	47	127
43.954580498866214	44.18680272108843	43	127
44.093922902494334	44.18680272108843	83	127
44.093922902494334	44.2912925170068	47	127
44.093922902494334	44.2912925170068	50	127
44.198412698412696	44.39578231292517	43	127
44.302902494331065	44.50027210884354	47	127
44.302902494331065	44.50027210884354	50	127
44.302902494331065	44.50027210884354	74	127
44.40739229024943	44.60476190476191	43	127
44.5118820861678	44.720839002267574	74	127
44.5118820861678	44.720839002267574	50	127
44.5118820861678	44.720839002267574	47	127
44.62798185941043	44.720839002267574	43	127
44.7324716553288	44.89501133786848	50	127
44.7324716553288	44.89501133786848	74	127
44.7324716553288	44.89501133786848	47	127
44.8253514739229	44.99950113378685	43	127
44.906621315192744	45.103968253968254	50	127
44.906621315192744	45.103968253968254	47	127
44.906621315192744	44.9646485260771	74	127
44.92984126984127	44.99950113378685	76	127
44.9646485260771	45.03433106575964	74	127
44.99950113378685	45.243310657596375	43	127
44.99950113378685	45.103968253968254	73	127
45.05755102040816	45.17365079365079	74	127
45.103968253968254	45.34777777777778	50	127
45.103968253968254	45.34777777777778	47	127
45.103968253968254	45.34777777777778	76	127
45.243310657596375	45.452290249433105	43	127
45.34777777777778	45.55678004535147	78	127
45.34777777777778	45.55678004535147	48	127
45.34777777777778	45.55678004535147	50	127
45.452290249433105	45.55678004535147	43	127
45.55678004535147	45.77736961451247	50	127
45.55678004535147	45.97473922902494	79	127
45.55678004535147	45.77736961451247	47	127
45.672879818594105	45.88185941043084	43	127
45.77736961451247	45.97473922902494	47	127
45.77736961451247	45.97473922902494	50	127
45.88185941043084	46.07922902494331	43	127
45.97473922902494	46.18371882086168	50	127
45.97473922902494	46.18371882086168	47	127
45.97473922902494	46.07922902494331	74	127
46.07922902494331	46.28820861678005	43	127
46.07922902494331	46.18371882086168	79	127
46.18371882086168	46.38108843537415	50	127
46.18371882086168	46.38108843537415	47	127
46.18371882086168	46.28820861678005	83	127
46.28820861678005	46.38108843537415	86	127
46.28820861678005	46.38108843537415	43	127
46.38108843537415	46.57845804988662	47	127
46.38108843537415	46.48555555555556	85	127
46.38108843537415	46.57845804988662	50	127
46.48555555555556	46.68294784580499	43	127
46.48555555555556	46.57845804988662	86	127
46.57845804988662	46.68294784580499	88	127
46.57845804988662	46.81065759637188	47	127
46.57845804988662	46.81065759637188	50	127
46.68294784580499	46.81065759637188	86	127
46.68294784580499	46.91514739229025	43	127
46.81065759637188	46.91514739229025	83	127
46.81065759637188	47.042857142857144	47	127
46.81065759637188	47.042857142857144	50	127
46.91514739229025	47.042857142857144	86	127
46.91514739229025	47.14734693877551	43	127
47.042857142857144	47.263446712018144	54	127
47.042857142857144	47.14734693877551	84	127
47.042857142857144	47.263446712018144	50	127
47.14734693877551	47.263446712018144	43	127
47.14734693877551	47.263446712018144	81	127
47.263446712018144	47.46081632653061	50	127
47.263446712018144	47.367936507936506	79	127
47.263446712018144	47.46081632653061	55	127
47.367936507936506	47.472426303854874	83	127
47.367936507936506	47.56530612244898	43	127
47.472426303854874	47.65818594104309	47	127
47.472426303854874	47.65818594104309	50	127
47.472426303854874	47.57691609977324	74	127
47.57691609977324	47.66979591836735	83	127
47.57691609977324	47.76267573696145	43	127
47.66979591836735	47.77428571428572	74	127
47.66979591836735	47.86716553287982	50	127
47.66979591836735	47.86716553287982	47	127
47.77428571428572	47.87877551020408	79	127
47.77428571428572	47.94843537414966	43	127
47.87877551020408	48.029705215419504	47	127
47.87877551020408	48.029705215419504	50	127
47.87877551020408	47.96004535147392	83	127
47.96004535147392	48.029705215419504	43	127
47.96004535147392	48.029705215419504	86	127
48.029705215419504	48.14580498866213	85	127
48.029705215419504	48.20385487528345	47	127
48.029705215419504	48.20385487528345	50	127
48.14580498866213	48.21546485260771	86	127
48.14580498866213	48.308344671201816	43	127
48.21546485260771	48.31995464852608	88	127
48.21546485260771	48.401224489795915	47	127
48.21546485260771	48.401224489795915	50	127
48.31995464852608	48.412834467120184	86	127
48.31995464852608	48.505714285714284	43	127
48.412834467120184	48.621814058956915	47	127
48.412834467120184	48.517324263038546	83	127
48.412834467120184	48.621814058956915	50	127
48.517324263038546	48.621814058956915	86	127
48.517324263038546	48.77274376417233	43	127
48.621814058956915	48.784353741496595	84	127
48.621814058956915	48.888843537414964	50	127
48.621814058956915	48.888843537414964	54	127
48.784353741496595	48.888843537414964	81	127
48.784353741496595	48.888843537414964	43	127
48.888843537414964	49.15587301587301	43	127
48.888843537414964	49.15587301587301	50	127
48.888843537414964	49.15587301587301	55	127
48.888843537414964	49.388072562358275	79	127
49.004943310657595	49.271972789115644	59	127
49.16748299319728	49.388072562358275	55	127
49.271972789115644	49.49256235827664	52	127
49.39968253968254	49.59705215419501	47	127
49.504172335600906	49.70154195011338	54	127
49.608662131519274	49.80603174603175	59	127
49.71315192743764	49.80603174603175	63	127
49.81764172335601	50.02662131519274	52	127
49.93374149659864	50.13111111111111	55	127
50.038231292517004	50.23560090702948	59	127
50.14272108843537	50.35170068027211	64	127
50.24721088435374	50.45619047619048	47	127
50.36331065759637	50.56068027210885	59	127
50.46780045351474	50.66517006802721	63	127
50.57229024943311	50.66517006802721	66	127
50.67678004535147	50.88575963718821	40	127
50.78126984126984	51.0134693877551	59	127
50.88575963718821	51.11795918367347	64	127
51.0134693877551	51.22244897959184	67	127
51.11795918367347	51.31532879818594	47	127
51.22244897959184	51.419818594104306	54	127
51.31532879818594	51.53591836734694	59	127
51.419818594104306	51.53591836734694	63	127
51.53591836734694	51.75650793650794	52	127
51.65201814058957	51.860997732426306	55	127
51.75650793650794	51.965487528344674	59	127
51.860997732426306	52.069977324263036	64	127
51.965487528344674	52.174467120181404	47	127
52.069977324263036	52.27895691609977	59	127
52.174467120181404	52.38344671201814	63	127
52.27895691609977	52.38344671201814	66	127
52.38344671201814	52.59242630385488	40	127
52.48793650793651	52.69691609977324	59	127
52.59242630385488	52.789795918367346	64	127
52.69691609977324	52.894285714285715	67	127
52.789795918367346	52.998775510204084	54	127
52.789795918367346	52.998775510204084	71	127
52.998775510204084	53.18453514739229	51	127
52.998775510204084	53.18453514739229	71	127
53.19614512471655	53.323854875283445	71	127
53.19614512471655	53.393514739229026	52	127
53.26580498866213	53.393514739229026	72	127
53.33546485260771	53.4631746031746	71	127
53.40512471655329	53.63732426303855	47	127
53.40512471655329	53.63732426303855	73	127
53.50961451247166	53.765034013605444	75	127
53.64893424036281	53.9043537414966	76	127
53.64893424036281	53.9043537414966	40	127
53.91596371882086	54.1249433106576	78	127
53.91596371882086	54.1249433106576	35	127
54.13655328798186	54.33392290249433	40	127
54.13655328798186	54.33392290249433	79	127
54.34553287981859	54.4384126984127	76	127
54.55451247165533	54.72866213151927	54	127
54.55451247165533	54.72866213151927	71	127
54.72866213151927	54.960861678004534	71	127
54.72866213151927	54.960861678004534	51	127
54.960861678004534	55.16984126984127	52	127
54.960861678004534	55.10018140589569	71	127
55.030521541950115	55.16984126984127	72	127
55.10018140589569	55.21628117913832	71	127
55.16984126984127	55.355600907029476	73	127
55.16984126984127	55.355600907029476	47	127
55.25111111111111	55.460090702947845	75	127
55.355600907029476	55.576190476190476	76	127
55.355600907029476	55.576190476190476	40	127
55.576190476190476	55.78517006802721	78	127
55.576190476190476	55.78517006802721	35	127
55.78517006802721	56.005759637188206	79	127
55.78517006802721	56.005759637188206	40	127
56.21473922902494	56.67913832199547	74	127
56.21473922902494	56.67913832199547	69	127
56.21473922902494	56.67913832199547	50	127
56.21473922902494	56.67913832199547	38	127
56.21473922902494	56.67913832199547	81	127
56.21473922902494	56.67913832199547	78	127
56.67913832199547	57.143537414965984	81	127
56.67913832199547	57.143537414965984	38	127
56.67913832199547	57.143537414965984	50	127
56.67913832199547	57.143537414965984	78	127
56.67913832199547	57.143537414965984	74	127
56.67913832199547	57.143537414965984	69	127
57.143537414965984	57.57310657596372	78	127
57.143537414965984	57.57310657596372	50	127
57.143537414965984	57.57310657596372	69	127
57.143537414965984	57.57310657596372	74	127
57.143537414965984	57.57310657596372	81	127
57.143537414965984	57.57310657596372	38	127
57.58471655328798	59.848662131519276	74	127
57.58471655328798	59.848662131519276	78	127
57.58471655328798	59.848662131519276	81	127
57.58471655328798	57.78208616780045	38	127
57.58471655328798	59.848662131519276	69	127
57.68920634920635	57.89818594104308	50	127
57.79369614512472	58.01428571428571	45	127
57.89818594104308	58.13038548752834	42	127
58.025895691609975	58.23487528344671	38	127
58.13038548752834	58.33936507936508	42	127
58.246485260770974	58.44385487528345	45	127
58.33936507936508	58.44385487528345	42	127
58.45546485260771	58.65283446712018	38	127
58.54834467120181	58.76893424036281	42	127
58.66444444444444	58.86181405895692	45	127
58.76893424036281	58.86181405895692	42	127
58.87342403628118	59.09401360544218	38	127
58.97791383219955	59.25655328798186	42	127
59.10562358276644	59.37265306122449	45	127
59.25655328798186	59.37265306122449	42	127
59.38426303854875	59.59324263038549	38	127
59.48875283446712	59.70934240362812	42	127
59.60485260770975	59.848662131519276	45	127
59.70934240362812	59.848662131519276	42	127
59.86027210884354	60.06925170068027	38	127
59.86027210884354	60.06925170068027	50	127
59.96476190476191	60.20857142857143	42	127
59.96476190476191	60.20857142857143	54	127
60.08086167800454	60.31306122448979	57	127
60.08086167800454	60.31306122448979	45	127
60.20857142857143	60.31306122448979	42	127
60.20857142857143	60.31306122448979	54	127
60.324671201814056	60.53365079365079	38	127
60.324671201814056	60.53365079365079	50	127
60.429160997732424	60.63814058956916	42	127
60.429160997732424	60.63814058956916	54	127
60.545260770975055	60.75424036281179	57	127
60.545260770975055	60.75424036281179	45	127
60.63814058956916	60.75424036281179	42	127
60.63814058956916	60.75424036281179	54	127
60.77746031746032	60.96321995464853	50	127
60.77746031746032	60.96321995464853	38	127
60.881950113378686	61.06770975056689	42	127
60.881950113378686	61.06770975056689	54	127
60.96321995464853	61.18380952380952	57	127
60.96321995464853	61.18380952380952	45	127
61.06770975056689	61.18380952380952	54	127
61.06770975056689	61.18380952380952	42	127
61.195419501133784	61.601768707483	38	127
61.195419501133784	61.416009070294784	50	127
61.311519274376415	61.52049886621315	54	127
61.42761904761905	61.601768707483	57	127
61.52049886621315	61.601768707483	54	127
61.61337868480726	61.83396825396825	50	127
61.72947845804989	61.93845804988662	54	127
61.83396825396825	62.031337868480726	57	127
61.93845804988662	62.031337868480726	54	127
62.031337868480726	62.27514739229025	50	127
62.15904761904762	62.37963718820862	54	127
62.27514739229025	62.48412698412698	57	127
62.37963718820862	62.48412698412698	54	127
62.48412698412698	62.611836734693874	50	127
62.611836734693874	62.727936507936505	55	127
62.727936507936505	62.82081632653061	59	127
62.82081632653061	62.93691609977324	62	127
62.93691609977324	63.79605442176871	43	127
62.93691609977324	63.05301587301587	61	127
62.93691609977324	63.79605442176871	31	127
63.05301587301587	63.169115646258504	62	127
63.169115646258504	63.27360544217687	64	127
63.27360544217687	63.389705215419504	62	127
63.389705215419504	63.4825850340136	59	127
63.4825850340136	63.56385487528345	62	127
63.56385487528345	63.69156462585034	60	127
63.69156462585034	63.79605442176871	57	127
63.79605442176871	64.6784126984127	43	127
63.79605442176871	64.6784126984127	31	127
63.79605442176871	63.90054421768708	55	127
63.90054421768708	64.01664399092971	59	127
64.01664399092971	64.10952380952381	50	127
64.10952380952381	64.21401360544218	59	127
64.21401360544218	64.33011337868481	50	127
64.33011337868481	64.43458049886621	55	127
64.43458049886621	64.5507029478458	59	127
64.5507029478458	64.6784126984127	62	127
64.6784126984127	65.44467120181406	31	127
64.6784126984127	64.78290249433107	61	127
64.6784126984127	65.44467120181406	43	127
64.78290249433107	64.84095238095239	62	127
64.85256235827664	64.94541950113378	64	127
64.98027210884354	65.07312925170068	62	127
65.0847619047619	65.16603174603175	59	127
65.177641723356	65.23569160997732	62	127
65.24730158730159	65.34018140589569	60	127
65.35179138321996	65.44467120181406	57	127
65.45625850340136	66.35022675736961	31	127
65.45625850340136	65.89746031746031	55	127
65.45625850340136	66.35022675736961	43	127
65.90907029478458	66.02517006802721	50	127
66.04839002267573	66.14126984126985	55	127
66.1528798185941	66.24575963718821	59	127
66.24575963718821	66.35022675736961	62	127
66.35022675736961	66.4779365079365	61	127
66.35022675736961	67.25582766439909	31	127
66.35022675736961	67.25582766439909	43	127
66.4779365079365	66.58242630385487	62	127
66.58242630385487	66.6869387755102	64	127
66.6869387755102	66.79142857142857	62	127
66.79142857142857	66.89591836734694	59	127
66.89591836734694	67.0004081632653	62	127
67.0004081632653	67.1281179138322	60	127
67.1281179138322	67.25582766439909	57	127
67.25582766439909	68.12657596371882	43	127
67.25582766439909	67.36031746031746	55	127
67.25582766439909	68.12657596371882	31	127
67.36031746031746	67.46480725623583	59	127
67.46480725623583	67.58090702947845	50	127
67.58090702947845	67.68539682539682	59	127
67.68539682539682	67.80149659863946	50	127
67.80149659863946	67.90598639455783	55	127
67.90598639455783	68.0104761904762	59	127
68.0104761904762	68.12657596371882	62	127
68.12657596371882	68.9508843537415	31	127
68.12657596371882	68.9508843537415	43	127
68.12657596371882	68.23106575963719	61	127
68.23106575963719	68.33555555555556	62	127
68.33555555555556	68.44004535147393	64	127
68.44004535147393	68.5445351473923	62	127
68.5445351473923	68.64902494331066	59	127
68.64902494331066	68.74190476190476	62	127
68.75349206349206	68.84639455782313	60	127
68.85800453514739	68.9508843537415	57	127
68.96249433106576	69.41528344671202	55	127
68.96249433106576	69.41528344671202	31	127
68.96249433106576	69.41528344671202	43	127
69.42689342403628	69.51975056689342	54	127
69.53138321995465	69.68231292517007	55	127
69.69392290249434	69.78680272108843	57	127
69.7984126984127	69.87965986394558	59	127
69.87965986394558	70.76204081632653	50	127
69.87965986394558	69.97256235827665	60	127
69.9841723356009	70.08866213151927	59	127
70.10027210884354	70.18154195011338	57	127
70.18154195011338	70.28600907029478	55	127
70.28600907029478	70.40213151927438	54	127
70.40213151927438	70.50662131519275	55	127
70.50662131519275	70.61111111111111	57	127
70.61111111111111	70.76204081632653	59	127
70.76204081632653	71.62117913832199	50	127
70.76204081632653	70.87814058956916	60	127
70.87814058956916	70.98263038548752	59	127
70.98263038548752	71.0871201814059	57	127
71.0871201814059	71.18	55	127
71.13356009070294	71.22643990929706	73	127
71.18	71.2844671201814	54	127
71.18	71.38897959183673	74	127
71.2844671201814	71.38897959183673	55	127
71.34253968253968	71.4354195011338	73	127
71.38897959183673	71.50507936507937	57	127
71.38897959183673	71.62117913832199	74	127
71.50507936507937	71.62117913832199	59	127
71.57473922902494	71.66759637188208	73	127
71.62117913832199	72.03913832199547	50	127
71.62117913832199	71.83015873015873	74	127
71.62117913832199	71.72566893424036	60	127
71.72566893424036	71.83015873015873	59	127
71.78371882086168	71.87659863945578	73	127
71.841768707483	72.03913832199547	74	127
71.841768707483	71.92301587301587	57	127
71.9346485260771	72.03913832199547	55	127
71.98108843537415	72.08557823129252	73	127
72.03913832199547	72.28294784580498	50	127
72.03913832199547	72.14362811791383	54	127
72.03913832199547	72.28294784580498	74	127
72.15523809523809	72.28294784580498	55	127
72.22489795918368	72.3409977324263	73	127
72.28294784580498	72.41065759637188	54	127
72.28294784580498	72.52675736961451	74	127
72.28294784580498	72.52675736961451	50	127
72.41065759637188	72.52675736961451	55	127
72.4687074829932	72.59641723356009	73	127
72.52675736961451	73.02598639455782	50	127
72.52675736961451	73.02598639455782	74	127
72.52675736961451	73.02598639455782	54	127
73.03759637188209	73.25818594104308	74	127
73.2814058956916	73.46716553287982	74	127
73.47877551020409	73.66453514739229	47	127
73.47877551020409	73.66453514739229	50	127
73.47877551020409	73.66453514739229	74	127
73.57165532879819	73.76902494331065	43	127
73.67614512471656	73.86190476190477	47	127
73.67614512471656	73.86190476190477	50	127
73.67614512471656	73.73419501133787	74	127
73.69936507936508	73.76902494331065	76	127
73.73419501133787	73.80385487528345	74	127
73.76902494331065	73.98961451247166	43	127
73.76902494331065	73.86190476190477	73	127
73.81544217687075	73.93156462585034	74	127
73.86190476190477	74.10571428571428	50	127
73.86190476190477	74.10571428571428	47	127
73.86190476190477	74.10571428571428	76	127
73.98961451247166	74.21020408163265	43	127
74.10571428571428	74.30308390022675	50	127
74.10571428571428	74.30308390022675	48	127
74.10571428571428	74.30308390022675	78	127
74.21020408163265	74.30308390022675	43	127
74.30308390022675	74.54689342403628	79	127
74.30308390022675	74.54689342403628	47	127
74.30308390022675	74.54689342403628	50	127
74.40757369614512	74.65138321995465	43	127
74.54689342403628	74.65138321995465	83	127
74.54689342403628	74.75587301587302	47	127
74.54689342403628	74.75587301587302	50	127
74.65138321995465	74.84875283446712	43	127
74.75587301587302	74.95324263038549	50	127
74.75587301587302	74.95324263038549	47	127
74.75587301587302	74.95324263038549	74	127
74.84875283446712	75.06934240362811	43	127
74.95324263038549	75.20866213151928	74	127
74.95324263038549	75.20866213151928	50	127
74.95324263038549	75.20866213151928	47	127
75.06934240362811	75.20866213151928	43	127
75.20866213151928	75.41764172335601	74	127
75.20866213151928	75.41764172335601	50	127
75.20866213151928	75.41764172335601	47	127
75.31315192743764	75.52213151927438	43	127
75.41764172335601	75.638231292517	47	127
75.41764172335601	75.638231292517	50	127
75.41764172335601	75.48730158730159	74	127
75.4524716553288	75.52213151927438	76	127
75.48730158730159	75.55696145124716	74	127
75.52213151927438	75.638231292517	73	127
75.52213151927438	75.74272108843537	43	127
75.59179138321996	75.68467120181406	74	127
75.638231292517	75.84721088435374	50	127
75.638231292517	75.84721088435374	47	127
75.638231292517	75.84721088435374	76	127
75.74272108843537	75.96328798185941	43	127
75.84721088435374	76.06780045351474	78	127
75.84721088435374	76.06780045351474	48	127
75.84721088435374	76.06780045351474	50	127
75.96328798185941	76.06780045351474	43	127
76.06780045351474	76.45092970521542	79	127
76.06780045351474	76.24192743764172	47	127
76.06780045351474	76.24192743764172	50	127
76.1722902494331	76.34641723356009	43	127
76.25356009070295	76.45092970521542	50	127
76.25356009070295	76.45092970521542	47	127
76.35804988662132	76.56702947845805	43	127
76.46253968253968	76.67151927437642	47	127
76.46253968253968	76.67151927437642	50	127
76.46253968253968	76.56702947845805	74	127
76.57863945578231	76.67151927437642	79	127
76.57863945578231	76.76439909297052	43	127
76.68312925170068	76.86888888888889	50	127
76.68312925170068	76.86888888888889	47	127
76.68312925170068	76.76439909297052	83	127
76.77600907029479	76.86888888888889	43	127
76.77600907029479	76.86888888888889	86	127
76.88047619047619	77.08947845804988	50	127
76.88047619047619	77.08947845804988	47	127
76.88047619047619	76.98496598639456	85	127
76.98496598639456	77.10108843537415	86	127
76.98496598639456	77.20557823129252	43	127
77.10108843537415	77.29845804988662	47	127
77.10108843537415	77.21718820861678	88	127
77.10108843537415	77.29845804988662	50	127
77.21718820861678	77.40294784580499	43	127
77.21718820861678	77.31006802721089	86	127
77.31006802721089	77.49580498866213	47	127
77.31006802721089	77.49580498866213	50	127
77.31006802721089	77.41455782312926	83	127
77.41455782312926	77.60031746031746	43	127
77.41455782312926	77.50743764172336	86	127
77.50743764172336	77.70480725623582	54	127
77.50743764172336	77.70480725623582	50	127
77.50743764172336	77.60031746031746	84	127
77.60031746031746	77.70480725623582	81	127
77.60031746031746	77.70480725623582	43	127
77.70480725623582	77.92539682539683	55	127
77.70480725623582	77.92539682539683	50	127
77.70480725623582	77.82090702947846	79	127
77.82090702947846	78.04149659863945	43	127
77.82090702947846	77.92539682539683	83	127
77.92539682539683	78.04149659863945	74	127
77.92539682539683	78.14598639455782	50	127
77.92539682539683	78.14598639455782	47	127
78.04149659863945	78.14598639455782	83	127
78.04149659863945	78.25047619047619	43	127
78.14598639455782	78.25047619047619	74	127
78.14598639455782	78.35496598639456	47	127
78.14598639455782	78.35496598639456	50	127
78.25047619047619	78.35496598639456	79	127
78.25047619047619	78.45945578231293	43	127
78.35496598639456	78.5639455782313	50	127
78.35496598639456	78.5639455782313	47	127
78.35496598639456	78.45945578231293	83	127
78.45945578231293	78.5639455782313	86	127
78.45945578231293	78.5639455782313	43	127
78.5639455782313	78.77290249433106	50	127
78.5639455782313	78.77290249433106	47	127
78.5639455782313	78.6568253968254	85	127
78.6568253968254	78.86580498866213	43	127
78.6568253968254	78.77290249433106	86	127
78.77290249433106	78.86580498866213	88	127
78.77290249433106	78.9702947845805	47	127
78.77290249433106	78.9702947845805	50	127
78.86580498866213	79.07478458049887	43	127
78.86580498866213	78.9702947845805	86	127
78.9702947845805	79.07478458049887	83	127
78.9702947845805	79.17927437641724	47	127
78.9702947845805	79.17927437641724	50	127
79.07478458049887	79.1908843537415	86	127
79.07478458049887	79.29537414965986	43	127
79.1908843537415	79.43469387755103	54	127
79.1908843537415	79.43469387755103	50	127
79.1908843537415	79.29537414965986	84	127
79.29537414965986	79.43469387755103	81	127
79.29537414965986	79.43469387755103	43	127
79.43469387755103	79.89907029478458	55	127
79.43469387755103	79.89907029478458	50	127
79.43469387755103	79.89907029478458	43	127
79.43469387755103	79.89907029478458	79	127
79.67850340136054	79.89907029478458	45	127
79.79458049886621	79.99197278911565	47	127
79.89907029478458	79.99197278911565	48	127
79.99197278911565	80.09646258503402	47	127
80.09646258503402	80.22417233560091	45	127
80.22417233560091	80.31705215419501	43	127
80.31705215419501	80.4447619047619	42	127
80.31705215419501	81.24585034013606	54	127
80.31705215419501	81.24585034013606	57	127
80.31705215419501	81.24585034013606	62	127
80.31705215419501	81.24585034013606	60	127
80.4447619047619	80.53761904761905	43	127
80.53761904761905	80.64213151927437	45	127
80.64213151927437	80.75823129251701	47	127
80.75823129251701	80.86272108843538	48	127
80.86272108843538	80.99043083900227	47	127
80.99043083900227	81.12975056689342	45	127
81.12975056689342	81.24585034013606	43	127
81.24585034013606	81.37356009070295	42	127
81.24585034013606	82.12820861678004	54	127
81.24585034013606	82.12820861678004	57	127
81.24585034013606	82.12820861678004	60	127
81.24585034013606	82.12820861678004	62	127
81.37356009070295	81.47804988662132	43	127
81.47804988662132	81.57092970521542	45	127
81.57092970521542	81.66380952380952	47	127
81.67541950113379	81.79151927437641	48	127
81.80312925170068	81.89600907029478	47	127
81.90761904761905	82.00049886621315	45	127
82.01210884353742	82.12820861678004	43	127
82.12820861678004	82.18625850340136	42	127
82.12820861678004	82.27913832199546	60	127
82.12820861678004	82.27913832199546	54	127
82.12820861678004	82.27913832199546	57	127
82.12820861678004	82.27913832199546	62	127
82.18625850340136	82.27913832199546	43	127
82.29074829931973	82.51133786848072	54	127
82.29074829931973	82.51133786848072	62	127
82.29074829931973	82.51133786848072	57	127
82.29074829931973	82.40684807256235	45	127
82.41845804988662	82.51133786848072	47	127
82.53455782312925	82.76675736961451	54	127
82.53455782312925	82.66226757369614	48	127
82.53455782312925	82.76675736961451	62	127
82.53455782312925	82.76675736961451	57	127
82.67387755102041	82.76675736961451	47	127
82.77836734693878	82.87124716553288	48	127
82.77836734693878	82.99895691609977	54	127
82.77836734693878	82.99895691609977	57	127
82.77836734693878	82.99895691609977	62	127
82.88285714285715	82.99895691609977	47	127
83.01056689342404	83.44013605442177	57	127
83.01056689342404	83.44013605442177	54	127
83.01056689342404	83.44013605442177	62	127
83.01056689342404	83.44013605442177	48	127
83.44013605442177	83.54462585034014	50	127
83.54462585034014	83.63750566893424	48	127
83.63750566893424	83.74199546485261	47	127
83.74199546485261	83.85807256235827	45	127
83.85807256235827	83.96256235827664	44	127
83.85807256235827	84.06707482993197	56	127
83.85807256235827	84.06707482993197	59	127
83.85807256235827	84.06707482993197	62	127
83.85807256235827	84.06707482993197	64	127
83.96256235827664	84.06707482993197	45	127
84.06707482993197	84.2760544217687	56	127
84.06707482993197	84.2760544217687	59	127
84.06707482993197	84.2760544217687	62	127
84.06707482993197	84.2760544217687	64	127
84.06707482993197	84.17156462585034	47	127
84.17156462585034	84.2760544217687	48	127
84.2760544217687	84.39215419501134	50	127
84.2760544217687	84.49664399092971	64	127
84.2760544217687	84.49664399092971	62	127
84.2760544217687	84.49664399092971	59	127
84.2760544217687	84.49664399092971	56	127
84.39215419501134	84.49664399092971	49	127
84.49664399092971	84.70562358276644	56	127
84.49664399092971	84.70562358276644	62	127
84.49664399092971	84.70562358276644	59	127
84.49664399092971	84.60111111111111	50	127
84.49664399092971	84.70562358276644	64	127
84.60111111111111	84.70562358276644	49	127
84.70562358276644	85.22807256235828	50	127
84.70562358276644	85.22807256235828	56	127
84.70562358276644	85.22807256235828	59	127
84.70562358276644	85.22807256235828	64	127
85.22807256235828	85.33256235827665	53	127
85.33256235827665	85.44866213151927	52	127
85.44866213151927	85.56476190476191	50	127
85.56476190476191	85.65764172335601	48	127
85.66925170068028	86.54	67	127
85.66925170068028	86.54	59	127
85.66925170068028	86.54	62	127
85.66925170068028	85.76213151927438	47	127
85.66925170068028	86.54	65	127
85.77374149659865	85.86662131519275	48	127
85.87820861678004	85.98272108843537	50	127
85.99433106575964	86.08721088435374	52	127
86.098820861678	86.2265306122449	53	127
86.23814058956916	86.33102040816327	52	127
86.34263038548752	86.43551020408164	50	127
86.4471201814059	86.54	48	127
86.55160997732426	86.60965986394558	47	127
86.55160997732426	87.41072562358276	59	127
86.55160997732426	87.41072562358276	62	127
86.55160997732426	87.41072562358276	65	127
86.55160997732426	87.41072562358276	67	127
86.60965986394558	86.69092970521542	48	127
86.70253968253968	86.7954195011338	50	127
86.80702947845805	86.92312925170069	52	127
86.93473922902494	87.09727891156463	53	127
87.09727891156463	87.22498866213152	52	127
87.22498866213152	87.31786848072562	50	127
87.31786848072562	87.41072562358276	48	127
87.41072562358276	87.61972789115646	59	127
87.41072562358276	87.61972789115646	62	127
87.41072562358276	87.61972789115646	65	127
87.41072562358276	87.51521541950113	47	127
87.41072562358276	87.61972789115646	67	127
87.51521541950113	87.61972789115646	48	127
87.61972789115646	87.8287074829932	59	127
87.61972789115646	87.72421768707483	50	127
87.61972789115646	87.8287074829932	62	127
87.61972789115646	87.8287074829932	65	127
87.61972789115646	87.8287074829932	67	127
87.72421768707483	87.8287074829932	52	127
87.8287074829932	88.06090702947846	67	127
87.8287074829932	87.92158730158731	53	127
87.8287074829932	88.06090702947846	65	127
87.8287074829932	88.06090702947846	62	127
87.8287074829932	88.06090702947846	59	127
87.92158730158731	88.06090702947846	52	127
88.06090702947846	88.2350566893424	65	127
88.06090702947846	88.1421768707483	50	127
88.06090702947846	88.2350566893424	59	127
88.06090702947846	88.2350566893424	62	127
88.06090702947846	88.2350566893424	67	127
88.1421768707483	88.2350566893424	48	127
88.2350566893424	88.66460317460317	62	127
88.2350566893424	88.66460317460317	65	127
88.2350566893424	88.66460317460317	67	127
88.2350566893424	88.66460317460317	59	127
88.2350566893424	88.35115646258504	47	127
88.35115646258504	88.4556462585034	48	127
88.4556462585034	88.56013605442178	47	127
88.56013605442178	88.66460317460317	45	127
88.66460317460317	88.90843537414966	55	127
88.66460317460317	88.7691156462585	43	127
88.7691156462585	89.01292517006803	60	127
88.7691156462585	88.90843537414966	41	127
88.90843537414966	89.12902494331065	64	127
88.90843537414966	89.01292517006803	40	127
89.01292517006803	89.25673469387755	67	127
89.01292517006803	89.12902494331065	38	127
89.12902494331065	89.36122448979592	48	127
89.12902494331065	89.36122448979592	36	127
89.12902494331065	89.36122448979592	66	127
89.25673469387755	89.45410430839003	43	127
89.25673469387755	89.45410430839003	67	127
89.36122448979592	89.55857142857143	48	127
89.36122448979592	89.55857142857143	36	127
89.36122448979592	89.55857142857143	69	127
89.46571428571428	89.66308390022675	67	127
89.46571428571428	89.66308390022675	43	127
89.57020408163265	89.76757369614512	36	127
89.57020408163265	89.76757369614512	64	127
89.57020408163265	89.76757369614512	48	127
89.67469387755102	89.87206349206349	67	127
89.67469387755102	89.87206349206349	43	127
89.77918367346939	89.98816326530613	48	127
89.77918367346939	89.98816326530613	36	127
89.77918367346939	89.98816326530613	65	127
89.88367346938776	89.98816326530613	62	127
89.88367346938776	90.0926530612245	43	127
89.99977324263038	90.1971201814059	36	127
89.99977324263038	90.1971201814059	48	127
89.99977324263038	90.1971201814059	60	127
90.10426303854875	90.29002267573696	43	127
90.10426303854875	90.29002267573696	64	127
90.20875283446712	90.38290249433106	36	127
90.20875283446712	90.38290249433106	55	127
90.20875283446712	90.38290249433106	48	127
90.30160997732426	90.48739229024943	43	127
90.30160997732426	90.48739229024943	64	127
90.39451247165533	90.5918820861678	55	127
90.39451247165533	90.5918820861678	36	127
90.39451247165533	90.5918820861678	48	127
90.4990022675737	90.7195918367347	60	127
90.4990022675737	90.7195918367347	43	127
90.60349206349207	90.82408163265306	64	127
90.60349206349207	90.82408163265306	36	127
90.60349206349207	90.82408163265306	48	127
90.73120181405896	90.92857142857143	43	127
90.73120181405896	90.92857142857143	67	127
90.83566893424036	91.02145124716553	48	127
90.83566893424036	91.02145124716553	36	127
90.83566893424036	91.02145124716553	66	127
90.92857142857143	91.13755102040817	43	127
90.92857142857143	91.13755102040817	67	127
91.02145124716553	91.24204081632654	36	127
91.02145124716553	91.24204081632654	69	127
91.02145124716553	91.24204081632654	48	127
91.13755102040817	91.3465306122449	43	127
91.13755102040817	91.3465306122449	67	127
91.24204081632654	91.4509977324263	48	127
91.24204081632654	91.4509977324263	36	127
91.24204081632654	91.4509977324263	64	127
91.3465306122449	91.5671201814059	67	127
91.3465306122449	91.5671201814059	43	127
91.4509977324263	91.67160997732427	48	127
91.4509977324263	91.67160997732427	65	127
91.4509977324263	91.67160997732427	36	127
91.5671201814059	91.77609977324263	43	127
91.5671201814059	91.67160997732427	62	127
91.67160997732427	91.880589569161	48	127
91.67160997732427	91.880589569161	36	127
91.67160997732427	92.08954648526077	60	127
91.77609977324263	91.98507936507937	43	127
91.880589569161	92.08954648526077	48	127
91.880589569161	92.08954648526077	36	127
92.08954648526077	92.18244897959184	43	127
92.08954648526077	92.31015873015873	55	127
92.18244897959184	92.42625850340136	48	127
92.18244897959184	92.42625850340136	60	127
92.31015873015873	92.56557823129252	64	127
92.31015873015873	92.56557823129252	52	127
92.42625850340136	92.65845804988662	55	127
92.42625850340136	92.65845804988662	67	127
92.56557823129252	92.75133786848073	54	127
92.56557823129252	92.75133786848073	66	127
92.65845804988662	92.85580498866213	55	127
92.65845804988662	92.85580498866213	67	127
92.75133786848073	92.96031746031746	57	127
92.75133786848073	92.96031746031746	69	127
92.85580498866213	93.06480725623582	67	127
92.85580498866213	93.06480725623582	55	127
92.96031746031746	93.16929705215419	52	127
92.96031746031746	93.16929705215419	64	127
93.06480725623582	93.2621768707483	55	127
93.06480725623582	93.2621768707483	67	127
93.16929705215419	93.3666439909297	53	127
93.16929705215419	93.3666439909297	65	127
93.27378684807256	93.3666439909297	62	127
93.27378684807256	93.3666439909297	50	127
93.37827664399093	93.5756462585034	60	127
93.37827664399093	93.5756462585034	48	127
93.4827664399093	93.68013605442177	52	127
93.4827664399093	93.68013605442177	64	127
93.58725623582767	93.78462585034013	55	127
93.58725623582767	93.78462585034013	43	127
93.69174603174604	93.8891156462585	64	127
93.69174603174604	93.8891156462585	52	127
93.7962358276644	94.00519274376417	55	127
93.7962358276644	94.00519274376417	43	127
93.90072562358277	94.15614512471656	48	127
93.90072562358277	94.15614512471656	60	127
94.0168253968254	94.26061224489796	64	127
94.0168253968254	94.26061224489796	52	127
94.16775510204081	94.36510204081632	55	127
94.16775510204081	94.36510204081632	67	127
94.26061224489796	94.46961451247165	54	127
94.26061224489796	94.46961451247165	66	127
94.37673469387755	94.53927437641724	67	127
94.37673469387755	94.53927437641724	55	127
94.46961451247165	94.64376417233561	57	127
94.46961451247165	94.64376417233561	69	127
94.5508843537415	94.73664399092971	55	127
94.5508843537415	94.73664399092971	67	127
94.65537414965986	94.84113378684808	52	127
94.65537414965986	94.84113378684808	64	127
94.73664399092971	94.94562358276644	67	127
94.73664399092971	94.94562358276644	55	127
94.84113378684808	95.05011337868481	53	127
94.84113378684808	95.05011337868481	65	127
94.94562358276644	95.05011337868481	50	127
94.94562358276644	95.05011337868481	62	127
95.05011337868481	95.28231292517007	48	127
95.05011337868481	95.28231292517007	60	127
95.4912925170068	95.70027210884354	43	127
95.70027210884354	95.897641723356	43	127
95.897641723356	96.10662131519274	43	127
96.10662131519274	96.36204081632653	43	127
96.36204081632653	96.57102040816326	45	127
96.57102040816326	96.75678004535148	47	127
96.75678004535148	97.16312925170068	48	127
97.17473922902494	97.37210884353742	40	127
97.38371882086167	97.58108843537416	40	127
97.59269841269841	97.8132879818594	40	127
97.83650793650794	98.05709750566893	40	127
98.06870748299319	98.26607709750567	42	127
98.27768707482993	98.48666666666666	43	127
98.49827664399093	98.96267573696146	45	127
98.96267573696146	99.1948752834467	48	127
98.96267573696146	99.1948752834467	76	127
99.07877551020408	99.29936507936507	81	127
99.07877551020408	99.29936507936507	52	127
99.1948752834467	99.41546485260771	84	127
99.1948752834467	99.41546485260771	57	127
99.29936507936507	99.41546485260771	60	127
99.29936507936507	99.41546485260771	88	127
99.41546485260771	99.62444444444445	87	127
99.41546485260771	99.62444444444445	59	127
99.51995464852608	99.74054421768707	88	127
99.51995464852608	99.74054421768707	60	127
99.62444444444445	99.84503401360544	89	127
99.62444444444445	99.84503401360544	62	127
99.74054421768707	99.94952380952381	88	127
99.74054421768707	99.94952380952381	60	127
99.84503401360544	100.06562358276643	57	127
99.84503401360544	100.06562358276643	84	127
99.94952380952381	100.14689342403628	60	127
99.94952380952381	100.14689342403628	88	127
100.06562358276643	100.25138321995465	86	127
100.06562358276643	100.25138321995465	59	127
100.14689342403628	100.25138321995465	83	127
100.14689342403628	100.25138321995465	52	127
100.25138321995465	100.47197278911564	84	127
100.25138321995465	100.47197278911564	57	127
100.35587301587302	100.57646258503401	81	127
100.35587301587302	100.57646258503401	52	127
100.47197278911564	100.69256235827665	76	127
100.47197278911564	100.69256235827665	48	127
100.57646258503401	100.80866213151927	45	127
100.57646258503401	100.80866213151927	72	127
100.69256235827665	100.92476190476191	74	127
100.69256235827665	100.92476190476191	47	127
100.80866213151927	101.01764172335601	79	127
100.80866213151927	101.01764172335601	50	127
100.92476190476191	101.13374149659865	55	127
100.92476190476191	101.13374149659865	83	127
101.02925170068028	101.13374149659865	59	127
101.02925170068028	101.13374149659865	86	127
101.1453514739229	101.37755102040816	58	127
101.1453514739229	101.37755102040816	85	127
101.2730612244898	101.48204081632653	86	127
101.2730612244898	101.48204081632653	59	127
101.38916099773243	101.56331065759638	60	127
101.38916099773243	101.56331065759638	88	127
101.49365079365079	101.65619047619047	86	127
101.49365079365079	101.65619047619047	59	127
101.57492063492063	101.74907029478459	55	127
101.57492063492063	101.74907029478459	83	127
101.66780045351474	101.85356009070294	86	127
101.66780045351474	101.85356009070294	59	127
101.76068027210884	101.95804988662131	84	127
101.76068027210884	101.95804988662131	57	127
101.86517006802721	101.95804988662131	81	127
101.86517006802721	101.95804988662131	47	127
101.96965986394558	102.17863945578232	55	127
101.96965986394558	102.17863945578232	83	127
102.06253968253968	102.29473922902494	50	127
102.06253968253968	102.29473922902494	79	127
102.20185941043084	102.38761904761905	47	127
102.20185941043084	102.38761904761905	74	127
102.30634920634921	102.49210884353741	43	127
102.30634920634921	102.49210884353741	71	127
102.39922902494331	102.60820861678005	53	127
102.39922902494331	102.60820861678005	83	127
102.49210884353741	102.71269841269842	80	127
102.60820861678005	102.81718820861678	83	127
102.60820861678005	102.81718820861678	49	127
102.71269841269842	102.81718820861678	80	127
102.81718820861678	103.02616780045352	54	127
102.81718820861678	103.02616780045352	81	127
102.92167800453515	103.14226757369615	80	127
103.02616780045352	103.24675736961451	81	127
103.02616780045352	103.24675736961451	42	127
103.14226757369615	103.36285714285714	78	127
103.24675736961451	103.4673469387755	51	127
103.24675736961451	103.4673469387755	81	127
103.36285714285714	103.54861678004535	78	127
103.4673469387755	103.65310657596372	81	127
103.4673469387755	103.65310657596372	47	127
103.54861678004535	103.75759637188209	78	127
103.65310657596372	103.86208616780046	52	127
103.65310657596372	103.86208616780046	79	127
103.75759637188209	103.96657596371882	78	127
103.86208616780046	104.0710657596372	79	127
103.86208616780046	104.0710657596372	40	127
103.96657596371882	104.16394557823129	76	127
104.0710657596372	104.25682539682539	79	127
104.0710657596372	104.25682539682539	45	127
104.16394557823129	104.36131519274376	76	127
104.25682539682539	104.46580498866213	79	127
104.25682539682539	104.36131519274376	47	127
104.36131519274376	104.46580498866213	49	127
104.36131519274376	104.5702947845805	76	127
104.46580498866213	104.6631746031746	50	127
104.46580498866213	104.6631746031746	77	127
104.5702947845805	104.75605442176871	76	127
104.6631746031746	104.86054421768708	77	127
104.6631746031746	104.86054421768708	38	127
104.76766439909296	104.96503401360545	74	127
104.87215419501133	105.08113378684807	77	127
104.87215419501133	105.08113378684807	43	127
104.9766439909297	105.18562358276644	74	127
105.09274376417234	105.29011337868481	77	127
105.09274376417234	105.18562358276644	45	127
105.19723356009071	105.40621315192743	74	127
105.19723356009071	105.29011337868481	47	127
105.30172335600908	105.5107029478458	76	127
105.30172335600908	105.5107029478458	48	127
105.4178231292517	105.61519274376417	74	127
105.52231292517007	105.71968253968254	36	127
105.52231292517007	105.71968253968254	76	127
105.62680272108844	105.8241723356009	72	127
105.7312925170068	105.92866213151927	42	127
105.7312925170068	105.92866213151927	76	127
105.83578231292518	106.03315192743764	73	127
105.94027210884354	106.03315192743764	44	127
105.94027210884354	106.13764172335601	76	127
106.0447619047619	106.24213151927438	73	127
106.0447619047619	106.13764172335601	46	127
106.14925170068027	106.34662131519275	47	127
106.14925170068027	106.34662131519275	74	127
106.25374149659864	106.43950113378685	73	127
106.34662131519275	106.54399092970522	35	127
106.34662131519275	106.54399092970522	74	127
106.43950113378685	106.66009070294784	71	127
106.54399092970522	106.76458049886621	74	127
106.54399092970522	106.76458049886621	41	127
106.66009070294784	106.88068027210885	71	127
106.76458049886621	106.99678004535147	68	127
106.76458049886621	106.99678004535147	41	127
106.88068027210885	106.99678004535147	62	127
106.99678004535147	107.22897959183673	42	127
106.99678004535147	107.11287981859411	61	127
107.11287981859411	107.22897959183673	66	127
107.22897959183673	107.3334693877551	61	127
107.22897959183673	107.43795918367347	54	127
107.3334693877551	107.43795918367347	58	127
107.43795918367347	107.54244897959184	59	127
107.43795918367347	107.67015873015873	54	127
107.54244897959184	107.67015873015873	66	127
107.67015873015873	107.8675283446712	54	127
107.67015873015873	107.76303854875283	62	127
107.76303854875283	107.8675283446712	59	127
107.8675283446712	108.08811791383219	54	127
107.8675283446712	107.97201814058957	61	127
107.97201814058957	108.08811791383219	66	127
108.08811791383219	108.19260770975056	64	127
108.08811791383219	108.29709750566893	54	127
108.19260770975056	108.29709750566893	61	127
108.29709750566893	108.50607709750567	54	127
108.29709750566893	108.38997732426304	59	127
108.41319727891157	108.50607709750567	66	127
108.51768707482994	108.59895691609978	62	127
108.51768707482994	108.70344671201813	54	127
108.61056689342404	108.70344671201813	59	127
108.7150566893424	108.9356462585034	42	127
108.7150566893424	108.8079365079365	58	127
108.81954648526077	108.9356462585034	70	127
108.94725623582767	109.04013605442177	66	127
108.94725623582767	109.14462585034013	54	127
109.05174603174603	109.14462585034013	61	127
109.1562358276644	109.36521541950114	54	127
109.1562358276644	109.26072562358277	62	127
109.27233560090703	109.36521541950114	71	127
109.3768253968254	109.57419501133786	54	127
109.3768253968254	109.4697052154195	66	127
109.48131519274376	109.57419501133786	62	127
109.58580498866213	109.77156462585035	54	127
109.58580498866213	109.66707482993198	64	127
109.67868480725623	109.77156462585035	73	127
109.77156462585035	109.98054421768707	54	127
109.77156462585035	109.87605442176871	66	127
109.87605442176871	109.98054421768707	64	127
109.98054421768707	110.08503401360544	62	127
109.98054421768707	110.20113378684808	54	127
110.08503401360544	110.20113378684808	71	127
110.20113378684808	110.3172335600907	66	127
110.20113378684808	110.43333333333334	54	127
110.3172335600907	110.43333333333334	62	127
110.43333333333334	110.64231292517007	42	127
110.43333333333334	110.5378231292517	61	127
110.5378231292517	110.64231292517007	70	127
110.64231292517007	110.8512925170068	47	127
110.64231292517007	110.74680272108843	62	127
110.74680272108843	110.8512925170068	71	127
110.8512925170068	111.0718820861678	42	127
110.8512925170068	110.95578231292517	61	127
110.95578231292517	111.0718820861678	70	127
111.0718820861678	111.17637188208617	62	127
111.0718820861678	111.28086167800454	47	127
111.17637188208617	111.28086167800454	71	127
111.28086167800454	111.50145124716553	42	127
111.28086167800454	111.39696145124717	61	127
111.39696145124717	111.50145124716553	70	127
111.50145124716553	111.71043083900227	47	127
111.50145124716553	111.6059410430839	62	127
111.6059410430839	111.71043083900227	71	127
111.71043083900227	111.90780045351474	42	127
111.71043083900227	111.81492063492064	61	127
111.81492063492064	111.90780045351474	70	127
111.90780045351474	112.09356009070295	47	127
111.90780045351474	112.02390022675738	62	127
112.02390022675738	112.09356009070295	71	127
112.1051700680272	112.30253968253969	61	127
112.1051700680272	112.30253968253969	42	127
112.1051700680272	112.30253968253969	70	127
112.30253968253969	112.48829931972789	54	127
112.40702947845806	112.59278911564626	66	127
112.48829931972789	112.69727891156462	54	127
112.60439909297052	112.80176870748299	66	127
112.69727891156462	112.94108843537416	54	127
112.80176870748299	113.04557823129252	66	127
112.94108843537416	113.17328798185942	54	127
113.05718820861678	113.30099773242631	66	127
113.18489795918367	113.40548752834466	54	127
113.30099773242631	113.5215873015873	66	127
113.40548752834466	113.63768707482993	54	127
113.53319727891156	113.7421768707483	66	127
113.6492970521542	113.84666666666666	54	127
113.7421768707483	113.93954648526078	66	127
113.84666666666666	114.04403628117913	54	127
113.93954648526078	114.12530612244898	66	127
114.0556462585034	114.22979591836734	54	127
114.12530612244898	114.29945578231292	66	127
114.22979591836734	114.40394557823129	54	127
114.29945578231292	114.52004535147393	66	127
114.41555555555556	114.65936507936507	54	127
114.53165532879818	114.76385487528344	66	127
114.65936507936507	114.9031746031746	54	127
114.76385487528344	115.01927437641723	66	127
114.91478458049886	115.13537414965987	54	127
115.0308843537415	115.13537414965987	66	127
115.13537414965987	115.26308390022676	66	127
115.13537414965987	115.37918367346938	54	127
115.26308390022676	115.37918367346938	71	127
115.37918367346938	115.58816326530612	54	127
115.37918367346938	115.48367346938775	75	127
115.49528344671202	115.58816326530612	78	127
115.59977324263039	115.72748299319728	77	127
115.59977324263039	116.28476190476191	59	127
115.59977324263039	116.49374149659864	47	127
115.59977324263039	116.49374149659864	54	127
115.72748299319728	115.84358276643991	78	127
115.84358276643991	115.9712925170068	80	127
115.98290249433107	116.07578231292517	78	127
116.08739229024944	116.18027210884354	75	127
116.18027210884354	116.28476190476191	78	127
116.28476190476191	116.38925170068028	76	127
116.28476190476191	116.49374149659864	58	127
116.38925170068028	116.49374149659864	73	127
116.5053514739229	117.3877097505669	47	127
116.5053514739229	116.60984126984127	71	127
116.5053514739229	117.17873015873016	59	127
116.60984126984127	116.71433106575964	75	127
116.71433106575964	116.818820861678	66	127
116.818820861678	116.92331065759637	75	127
116.93492063492063	117.02780045351474	66	127
117.05102040816327	117.17873015873016	71	127
117.17873015873016	117.3877097505669	58	127
117.17873015873016	117.28321995464853	75	127
117.28321995464853	117.3877097505669	78	127
117.39931972789115	118.13074829931973	59	127
117.39931972789115	118.33972789115646	47	127
117.39931972789115	118.33972789115646	54	127
117.39931972789115	117.50380952380952	77	127
117.52702947845805	117.64312925170069	78	127
117.64312925170069	117.75922902494331	80	127
117.75922902494331	117.8869387755102	78	127
117.8869387755102	118.00303854875284	75	127
118.0146485260771	118.13074829931973	78	127
118.13074829931973	118.33972789115646	58	127
118.13074829931973	118.23523809523809	76	127
118.23523809523809	118.33972789115646	73	127
118.33972789115646	118.5487074829932	59	127
118.33972789115646	118.5487074829932	54	127
118.33972789115646	118.5487074829932	47	127
118.33972789115646	118.5487074829932	71	127
118.4558276643991	118.65319727891156	59	127
118.56031746031746	118.78090702947846	47	127
118.65319727891156	118.88539682539682	59	127
118.78090702947846	118.9898866213152	47	127
118.8970068027211	119.14081632653061	59	127
119.00149659863946	119.23369614512471	47	127
119.14081632653061	119.3614058956916	59	127
119.23369614512471	119.46589569160997	47	127
119.3614058956916	119.53555555555556	59	127
119.47750566893424	119.64004535147393	47	127
119.53555555555556	119.76775510204082	59	127
119.64004535147393	119.88385487528345	47	127
119.76775510204082	119.98834467120182	59	127
119.89546485260772	120.08122448979591	47	127
119.98834467120182	120.18571428571428	59	127
120.08122448979591	120.29020408163265	50	127
120.18571428571428	120.38308390022675	62	127
120.29020408163265	120.51079365079364	50	127
120.38308390022675	120.62689342403628	62	127
120.51079365079364	120.71977324263038	50	127
120.62689342403628	120.84748299319727	62	127
120.71977324263038	120.94036281179139	50	127
120.85909297052154	121.05646258503401	62	127
120.95197278911564	121.12612244897959	50	127
121.05646258503401	121.2190022675737	62	127
121.12612244897959	121.32349206349207	50	127
121.23061224489796	121.45120181405896	62	127
121.33510204081632	121.55569160997733	50	127
121.45120181405896	121.6253514739229	62	127
121.55569160997733	121.72984126984127	50	127
121.6253514739229	121.8459410430839	62	127
121.74145124716553	121.97365079365079	50	127
121.8459410430839	122.07814058956916	62	127
121.97365079365079	122.18263038548753	50	127
122.07814058956916	122.29873015873015	62	127
122.1942403628118	122.41482993197279	50	127
122.31034013605442	122.51931972789116	62	127
122.41482993197279	122.58897959183673	50	127
122.51931972789116	122.68185941043085	62	127
122.600589569161	122.821179138322	50	127
122.6934693877551	122.93727891156463	62	127
122.821179138322	123.04176870748299	50	127
122.93727891156463	123.14625850340136	62	127
123.04176870748299	123.27396825396825	50	127
123.16947845804988	123.39006802721089	62	127
123.28557823129252	123.48294784580499	50	127
123.39006802721089	123.59904761904762	62	127
123.48294784580499	123.703537414966	50	127
123.48294784580499	123.703537414966	43	127
123.59904761904762	123.81963718820862	62	127
123.71514739229025	123.91251700680272	50	127
123.71514739229025	123.91251700680272	43	127
123.81963718820862	124.01700680272108	62	127
123.91251700680272	124.13310657596372	43	127
123.91251700680272	124.13310657596372	52	127
124.01700680272108	124.24920634920635	64	127
124.14471655328798	124.33047619047619	54	127
124.14471655328798	124.33047619047619	43	127
124.24920634920635	124.43496598639456	66	127
124.33047619047619	124.53945578231293	43	127
124.33047619047619	124.53945578231293	55	127
124.43496598639456	124.6439455782313	67	127
124.55106575963718	124.7368253968254	43	127
124.55106575963718	124.7368253968254	50	127
124.65555555555555	124.84131519274376	62	127
124.7368253968254	124.94580498866213	50	127
124.7368253968254	124.94580498866213	43	127
124.84131519274376	125.0502947845805	62	127
124.95741496598639	125.13156462585034	43	127
124.95741496598639	125.13156462585034	50	127
125.06190476190476	125.22444444444444	62	127
125.13156462585034	125.32893424036281	43	127
125.13156462585034	125.32893424036281	50	127
125.22444444444444	125.43342403628118	62	127
125.32893424036281	125.5495238095238	43	127
125.32893424036281	125.5495238095238	50	127
125.44503401360544	125.64240362811792	62	127
125.5495238095238	125.77011337868481	43	127
125.5495238095238	125.77011337868481	52	127
125.64240362811792	125.87460317460318	64	127
125.77011337868481	125.9907029478458	43	127
125.77011337868481	125.9907029478458	54	127
125.88621315192744	126.13002267573697	66	127
126.00231292517007	126.23451247165534	55	127
126.00231292517007	126.23451247165534	43	127
126.13002267573697	126.37383219954648	67	127
126.23451247165534	126.48993197278912	55	127
126.23451247165534	126.48993197278912	43	127
126.37383219954648	126.48993197278912	67	127
126.50154195011338	126.64086167800454	50	127
126.50154195011338	126.74535147392291	31	127
126.64086167800454	126.84984126984126	43	127
126.64086167800454	126.74535147392291	55	127
126.74535147392291	126.84984126984126	59	127
126.74535147392291	126.94272108843538	31	127
126.84984126984126	126.94272108843538	62	127
126.84984126984126	127.04721088435375	43	127
126.95433106575963	127.04721088435375	61	127
126.95433106575963	127.15170068027211	31	127
127.058820861678	127.15170068027211	62	127
127.058820861678	127.24458049886621	43	127
127.15170068027211	127.33746031746031	31	127
127.15170068027211	127.24458049886621	64	127
127.24458049886621	127.44195011337868	43	127
127.24458049886621	127.33746031746031	62	127
127.34907029478458	127.55804988662132	31	127
127.34907029478458	127.44195011337868	59	127
127.45356009070295	127.65092970521542	43	127
127.45356009070295	127.55804988662132	62	127
127.55804988662132	127.76702947845806	31	127
127.55804988662132	127.65092970521542	60	127
127.65092970521542	127.87151927437641	43	127
127.65092970521542	127.76702947845806	57	127
127.76702947845806	127.87151927437641	55	127
127.76702947845806	127.9992290249433	31	127
127.88312925170068	127.9992290249433	59	127
127.88312925170068	128.11532879818594	43	127
127.9992290249433	128.11532879818594	50	127
127.9992290249433	128.20820861678004	31	127
128.11532879818594	128.3126984126984	43	127
128.11532879818594	128.20820861678004	59	127
128.20820861678004	128.41718820861678	31	127
128.20820861678004	128.3126984126984	50	127
128.32430839002268	128.5448979591837	43	127
128.32430839002268	128.41718820861678	55	127
128.42879818594105	128.5448979591837	59	127
128.42879818594105	128.64938775510205	31	127
128.5448979591837	128.64938775510205	62	127
128.5448979591837	128.75385487528345	43	127
128.64938775510205	128.84675736961452	31	127
128.64938775510205	128.75385487528345	61	127
128.75385487528345	128.9512471655329	43	127
128.75385487528345	128.84675736961452	62	127
128.85834467120182	128.9512471655329	64	127
128.85834467120182	129.044126984127	31	127
128.9512471655329	129.14861678004536	43	127
128.9512471655329	129.044126984127	62	127
129.044126984127	129.14861678004536	59	127
129.044126984127	129.24149659863946	31	127
129.14861678004536	129.34598639455783	43	127
129.14861678004536	129.24149659863946	62	127
129.24149659863946	129.34598639455783	60	127
129.24149659863946	129.43886621315193	31	127
129.34598639455783	129.43886621315193	57	127
129.34598639455783	129.55496598639456	43	127
129.43886621315193	129.65945578231293	31	127
129.43886621315193	129.88002267573697	55	127
129.55496598639456	129.7639455782313	43	127
129.6710657596372	129.88002267573697	31	127
129.7755328798186	129.98451247165534	43	127
129.88002267573697	129.98451247165534	54	127
129.98451247165534	130.08902494331065	55	127
130.08902494331065	130.20512471655329	57	127
130.21673469387756	130.30961451247165	59	127
130.30961451247165	130.41410430839002	60	127
130.30961451247165	131.1571201814059	50	127
130.41410430839002	130.50698412698412	59	127
130.50698412698412	130.6114739229025	57	127
130.62308390022676	130.71596371882086	55	127
130.72757369614513	130.8320634920635	54	127
130.8320634920635	130.93655328798187	55	127
130.93655328798187	131.04104308390023	57	127
131.0526530612245	131.1571201814059	59	127
131.1687528344671	131.98145124716552	50	127
131.1687528344671	131.27324263038548	60	127
131.27324263038548	131.37773242630385	59	127
131.37773242630385	131.47061224489795	57	127
131.47061224489795	131.57510204081632	55	127
131.52866213151927	131.63315192743764	73	127
131.5867120181406	131.79569160997733	74	127
131.5867120181406	131.69120181405896	54	127
131.69120181405896	131.79569160997733	55	127
131.74925170068028	131.81891156462586	73	127
131.79569160997733	131.98145124716552	74	127
131.79569160997733	131.8769387755102	57	127
131.8769387755102	131.98145124716552	59	127
131.93501133786847	132.03950113378684	73	127
131.9930612244898	132.41102040816327	50	127
131.9930612244898	132.20204081632653	74	127
131.9930612244898	132.09755102040816	60	127
132.09755102040816	132.20204081632653	59	127
132.15560090702948	132.26009070294785	73	127
132.2136507936508	132.41102040816327	74	127
132.2136507936508	132.31814058956917	57	127
132.31814058956917	132.41102040816327	55	127
132.36458049886622	132.4690702947846	73	127
132.42263038548754	132.65482993197278	50	127
132.42263038548754	132.65482993197278	74	127
132.42263038548754	132.5271201814059	54	127
132.5387074829932	132.65482993197278	55	127
132.60839002267574	132.74770975056688	73	127
132.65482993197278	132.9450566893424	74	127
132.65482993197278	132.9450566893424	50	127
132.65482993197278	132.8057596371882	54	127
132.81736961451247	132.9450566893424	55	127
132.88702947845806	133.0263492063492	73	127
132.9450566893424	133.43269841269841	50	127
132.9450566893424	133.43269841269841	74	127
132.9450566893424	133.43269841269841	54	127
133.43269841269841	133.64167800453515	74	127
133.64167800453515	133.8738775510204	74	127
133.8738775510204	134.07122448979592	74	127
133.8738775510204	134.07122448979592	47	127
133.8738775510204	134.07122448979592	50	127
133.97836734693877	134.1757142857143	43	127
134.08285714285714	134.29183673469387	50	127
134.08285714285714	134.29183673469387	47	127
134.08285714285714	134.14090702947846	74	127
134.11768707482995	134.1757142857143	76	127
134.15251700680273	134.22215419501134	74	127
134.1873469387755	134.4079365079365	43	127
134.1873469387755	134.29183673469387	73	127
134.24539682539682	134.3498866213152	74	127
134.30344671201814	134.51242630385488	50	127
134.30344671201814	134.51242630385488	47	127
134.30344671201814	134.51242630385488	76	127
134.41954648526078	134.62852607709752	43	127
134.52403628117915	134.7330158730159	50	127
134.52403628117915	134.7330158730159	78	127
134.52403628117915	134.7330158730159	48	127
134.64013605442176	134.7330158730159	43	127
134.74462585034013	134.95360544217687	50	127
134.74462585034013	134.95360544217687	47	127
134.74462585034013	134.95360544217687	79	127
134.86072562358277	135.05809523809523	43	127
134.96521541950113	135.05809523809523	83	127
134.96521541950113	135.1625850340136	47	127
134.96521541950113	135.1625850340136	50	127
135.0697052154195	135.26707482993197	43	127
135.17419501133787	135.37156462585034	50	127
135.17419501133787	135.37156462585034	47	127
135.17419501133787	135.37156462585034	74	127
135.27868480725624	135.46444444444444	43	127
135.3831746031746	135.5689342403628	74	127
135.3831746031746	135.5689342403628	47	127
135.3831746031746	135.5689342403628	50	127
135.46444444444444	135.5689342403628	43	127
135.5689342403628	135.7895238095238	74	127
135.5689342403628	135.7895238095238	47	127
135.5689342403628	135.7895238095238	50	127
135.67342403628118	135.89401360544218	43	127
135.7895238095238	136.01011337868482	50	127
135.7895238095238	135.85916099773243	74	127
135.7895238095238	136.01011337868482	47	127
135.8243537414966	135.89401360544218	76	127
135.85916099773243	135.94045351473923	74	127
135.89401360544218	136.01011337868482	73	127
135.89401360544218	136.10299319727892	43	127
135.9636507936508	136.05655328798187	74	127
136.01011337868482	136.2074829931973	50	127
136.01011337868482	136.2074829931973	47	127
136.01011337868482	136.2074829931973	76	127
136.10299319727892	136.31197278911566	43	127
136.2074829931973	136.41646258503403	78	127
136.2074829931973	136.41646258503403	48	127
136.2074829931973	136.41646258503403	50	127
136.31197278911566	136.41646258503403	43	127
136.41646258503403	136.6254195011338	47	127
136.41646258503403	136.6254195011338	50	127
136.41646258503403	136.83439909297053	79	127
136.53256235827664	136.72990929705216	43	127
136.6254195011338	136.83439909297053	47	127
136.6254195011338	136.83439909297053	50	127
136.72990929705216	136.93891156462584	43	127
136.83439909297053	136.93891156462584	74	127
136.83439909297053	137.0434013605442	47	127
136.83439909297053	137.0434013605442	50	127
136.93891156462584	137.14789115646258	43	127
136.93891156462584	137.0434013605442	79	127
137.0434013605442	137.14789115646258	83	127
137.0434013605442	137.25238095238095	50	127
137.0434013605442	137.25238095238095	47	127
137.14789115646258	137.25238095238095	86	127
137.14789115646258	137.25238095238095	43	127
137.25238095238095	137.43814058956917	50	127
137.25238095238095	137.43814058956917	47	127
137.25238095238095	137.36848072562358	85	127
137.36848072562358	137.53102040816327	43	127
137.36848072562358	137.43814058956917	86	127
137.43814058956917	137.53102040816327	88	127
137.43814058956917	137.63551020408164	47	127
137.43814058956917	137.63551020408164	50	127
137.53102040816327	137.7515873015873	43	127
137.53102040816327	137.63551020408164	86	127
137.63551020408164	137.85607709750568	50	127
137.63551020408164	137.76321995464852	83	127
137.63551020408164	137.85607709750568	47	127
137.76321995464852	137.8677097505669	86	127
137.76321995464852	137.960589569161	43	127
137.8677097505669	137.97219954648526	84	127
137.8677097505669	138.07668934240363	50	127
137.8677097505669	138.07668934240363	54	127
137.97219954648526	138.0882993197279	81	127
137.97219954648526	138.07668934240363	43	127
138.0882993197279	138.3088888888889	55	127
138.0882993197279	138.3088888888889	50	127
138.0882993197279	138.21600907029477	79	127
138.21600907029477	138.32049886621314	83	127
138.21600907029477	138.41337868480727	43	127
138.32049886621314	138.51784580498867	50	127
138.32049886621314	138.4249886621315	74	127
138.32049886621314	138.51784580498867	47	127
138.4249886621315	138.61074829931974	43	127
138.4249886621315	138.52947845804988	83	127
138.52947845804988	138.70362811791384	50	127
138.52947845804988	138.62233560090704	74	127
138.52947845804988	138.70362811791384	47	127
138.62233560090704	138.8081179138322	43	127
138.62233560090704	138.7152380952381	79	127
138.7152380952381	138.91260770975057	50	127
138.7152380952381	138.91260770975057	47	127
138.7152380952381	138.81972789115648	83	127
138.81972789115648	138.91260770975057	43	127
138.81972789115648	138.92421768707484	86	127
138.92421768707484	139.02868480725624	85	127
138.92421768707484	139.1215873015873	47	127
138.92421768707484	139.1215873015873	50	127
139.02868480725624	139.2492970521542	43	127
139.02868480725624	139.1215873015873	86	127
139.1215873015873	139.35378684807256	50	127
139.1215873015873	139.35378684807256	47	127
139.1215873015873	139.2492970521542	88	127
139.2492970521542	139.45827664399093	43	127
139.2492970521542	139.35378684807256	86	127
139.35378684807256	139.5627664399093	50	127
139.35378684807256	139.5627664399093	47	127
139.35378684807256	139.45827664399093	83	127
139.45827664399093	139.67886621315193	43	127
139.45827664399093	139.5627664399093	86	127
139.5627664399093	139.7833560090703	50	127
139.5627664399093	139.7833560090703	54	127
139.5627664399093	139.67886621315193	84	127
139.67886621315193	139.7833560090703	81	127
139.67886621315193	139.7833560090703	43	127
139.7833560090703	139.88784580498867	79	127
139.7833560090703	140.2245351473923	43	127
139.7833560090703	140.2245351473923	50	127
139.7833560090703	140.2245351473923	55	127
139.88784580498867	140.00392290249434	83	127
140.00392290249434	140.12004535147392	81	127
140.12004535147392	140.2245351473923	78	127
140.2245351473923	140.36385487528344	67	127
140.2245351473923	140.36385487528344	76	127
140.36385487528344	140.4451247165533	79	127
140.36385487528344	140.4451247165533	71	127
140.4451247165533	140.56120181405896	78	127
140.4451247165533	140.56120181405896	69	127
140.56120181405896	140.66569160997733	66	127
140.56120181405896	140.66569160997733	74	127
140.66569160997733	140.7818140589569	64	127
140.66569160997733	140.7818140589569	72	127
140.7818140589569	140.88630385487528	76	127
140.7818140589569	140.88630385487528	67	127
140.88630385487528	140.99079365079365	66	127
140.88630385487528	140.99079365079365	74	127
140.99079365079365	141.09528344671202	71	127
140.99079365079365	141.09528344671202	62	127
141.09528344671202	141.19977324263039	60	127
141.09528344671202	141.19977324263039	69	127
141.19977324263039	141.30426303854875	64	127
141.19977324263039	141.30426303854875	72	127
141.30426303854875	141.40875283446712	71	127
141.30426303854875	141.40875283446712	62	127
141.40875283446712	141.5132426303855	59	127
141.40875283446712	141.5132426303855	68	127
141.5132426303855	141.6061224489796	60	127
141.5132426303855	141.6061224489796	69	127
141.61773242630386	141.71061224489796	59	127
141.61773242630386	141.71061224489796	71	127
141.72222222222223	141.81510204081633	72	127
141.72222222222223	141.81510204081633	57	127
141.8267120181406	141.9195918367347	74	127
141.8267120181406	141.9195918367347	55	127
141.93120181405897	142.0124716553288	76	127
141.93120181405897	142.0124716553288	54	127
142.02408163265306	142.1053514739229	78	127
142.02408163265306	142.1053514739229	52	127
142.11696145124716	142.22145124716553	50	127
142.11696145124716	142.22145124716553	79	127
142.2330612244898	142.3259410430839	81	127
142.2330612244898	142.3259410430839	48	127
142.33755102040817	142.44204081632654	47	127
142.33755102040817	142.44204081632654	83	127
142.44204081632654	142.5465306122449	43	127
142.44204081632654	142.5465306122449	86	127
142.5465306122449	142.65102040816328	79	127
142.5465306122449	142.65102040816328	48	127
142.65102040816328	142.75551020408165	45	127
142.65102040816328	142.75551020408165	84	127
142.77873015873016	142.87160997732425	50	127
142.77873015873016	142.87160997732425	74	127
142.87160997732425	142.9644671201814	49	127
142.87160997732425	142.9644671201814	83	127
142.97609977324262	143.080589569161	50	127
142.97609977324262	143.080589569161	72	127
143.09219954648526	143.2082993197279	81	127
143.09219954648526	143.2082993197279	38	127
143.2082993197279	143.44049886621315	83	127
143.2082993197279	143.32437641723357	43	127
143.32437641723357	143.44049886621315	59	127
143.44049886621315	143.54498866213152	57	127
143.54498866213152	143.67269841269842	54	127
143.54498866213152	143.67269841269842	83	127
143.67269841269842	143.88167800453516	88	127
143.67269841269842	143.7771882086168	52	127
143.7771882086168	143.88167800453516	55	127
143.88167800453516	143.98614512471656	54	127
143.98614512471656	144.09063492063493	79	127
143.98614512471656	144.09063492063493	50	127
144.09063492063493	144.31124716553288	84	127
144.09063492063493	144.1951247165533	48	127
144.1951247165533	144.31124716553288	52	127
144.31124716553288	144.41573696145124	50	127
144.41573696145124	144.5202267573696	47	127
144.41573696145124	144.5202267573696	84	127
144.5202267573696	144.74081632653062	84	127
144.5202267573696	144.63632653061225	45	127
144.63632653061225	144.74081632653062	48	127
144.74081632653062	144.845306122449	47	127
144.845306122449	144.94979591836736	44	127
144.845306122449	144.94979591836736	84	127
144.94979591836736	145.89020408163265	84	127
144.94979591836736	145.05428571428573	45	127
145.05428571428573	145.1587755102041	47	127
145.1587755102041	145.26326530612246	48	127
145.26326530612246	145.36773242630386	47	127
145.36773242630386	145.46063492063493	45	127
145.47222222222223	145.5651247165533	43	127
145.5767120181406	145.66961451247167	42	127
145.6812244897959	145.77410430839004	40	127
145.78571428571428	146.3197732426304	38	127
145.90181405895692	145.99469387755101	86	127
146.00630385487528	146.09918367346938	88	127
146.12240362811792	146.21528344671202	86	127
146.2268934240363	146.3197732426304	84	127
146.33138321995466	146.42426303854876	83	127
146.33138321995466	146.42426303854876	40	127
146.43587301587303	146.52875283446713	42	127
146.43587301587303	146.52875283446713	81	127
146.5403628117914	146.6332426303855	43	127
146.5403628117914	146.6332426303855	79	127
146.6448299319728	147.17891156462585	78	127
146.6448299319728	146.74931972789116	45	127
146.76095238095238	146.85380952380953	47	127
146.86544217687074	146.95832199546484	48	127
146.95832199546484	147.0628117913832	47	127
147.0628117913832	147.17891156462585	45	127
147.17891156462585	147.2950113378685	79	127
147.17891156462585	147.2950113378685	43	127
147.2950113378685	147.39950113378686	81	127
147.2950113378685	147.39950113378686	42	127
147.39950113378686	147.50399092970522	83	127
147.39950113378686	147.50399092970522	40	127
147.50399092970522	147.6084807256236	84	127
147.50399092970522	148.06126984126985	38	127
147.6084807256236	147.73619047619047	86	127
147.73619047619047	147.84068027210884	88	127
147.84068027210884	147.95678004535148	86	127
147.95678004535148	148.06126984126985	84	127
148.06126984126985	148.16575963718822	83	127
148.06126984126985	148.16575963718822	40	127
148.16575963718822	148.27024943310659	42	127
148.16575963718822	148.27024943310659	81	127
148.27024943310659	148.37473922902495	43	127
148.27024943310659	148.37473922902495	79	127
148.37473922902495	148.88557823129253	78	127
148.37473922902495	148.47922902494332	45	127
148.47922902494332	148.5837188208617	47	127
148.5837188208617	148.6765986394558	48	127
148.6765986394558	148.78108843537416	47	127
148.78108843537416	148.88557823129253	45	127
148.88557823129253	149.0016553287982	79	127
148.88557823129253	149.0016553287982	43	127
149.0016553287982	149.1061678004535	42	127
149.0016553287982	149.1061678004535	81	127
149.1061678004535	149.21065759637187	40	127
149.1061678004535	149.21065759637187	83	127
149.21065759637187	149.30351473922903	84	127
149.21065759637187	149.30351473922903	38	127
149.31514739229024	149.4196371882086	40	127
149.31514739229024	149.4196371882086	83	127
149.43124716553288	149.52412698412698	42	127
149.43124716553288	149.52412698412698	81	127
149.53573696145125	149.62861678004535	43	127
149.53573696145125	149.62861678004535	79	127
149.64022675736962	149.73310657596372	78	127
149.64022675736962	149.73310657596372	45	127
149.744716553288	149.83759637188209	79	127
149.744716553288	149.83759637188209	43	127
149.84920634920636	149.94208616780045	42	127
149.84920634920636	149.94208616780045	81	127
149.95369614512472	150.04657596371882	83	127
149.95369614512472	150.04657596371882	40	127
150.0581859410431	150.16267573696146	38	127
150.0581859410431	150.16267573696146	84	127
150.16267573696146	150.26716553287983	40	127
150.16267573696146	150.26716553287983	83	127
150.26716553287983	150.3716553287982	42	127
150.26716553287983	150.3716553287982	81	127
150.3716553287982	150.47614512471657	43	127
150.3716553287982	150.47614512471657	79	127
150.4877551020408	150.59224489795918	78	127
150.4877551020408	150.59224489795918	45	127
150.59224489795918	150.66190476190476	79	127
150.59224489795918	150.66190476190476	43	127
150.67351473922903	150.76639455782313	81	127
150.67351473922903	150.76639455782313	42	127
150.76639455782313	150.85927437641723	83	127
150.76639455782313	150.85927437641723	40	127
150.8708843537415	150.97537414965987	84	127
150.8708843537415	150.97537414965987	38	127
150.97537414965987	151.09145124716554	83	127
150.97537414965987	151.09145124716554	40	127
151.09145124716554	151.20757369614512	38	127
151.09145124716554	151.20757369614512	84	127
151.20757369614512	151.3120634920635	40	127
151.20757369614512	151.3120634920635	83	127
151.3120634920635	151.42816326530613	38	127
151.3120634920635	151.42816326530613	84	127
151.42816326530613	151.54426303854876	40	127
151.42816326530613	151.54426303854876	83	127
151.54426303854876	151.67197278911564	38	127
151.54426303854876	151.67197278911564	84	127
151.67197278911564	151.78807256235828	40	127
151.67197278911564	151.78807256235828	83	127
151.78807256235828	152.0318820861678	84	127
151.78807256235828	152.0318820861678	38	127
152.28730158730158	156.01410430839002	72	127
152.28730158730158	156.01410430839002	66	127
152.28730158730158	156.01410430839002	50	127
152.28730158730158	156.01410430839002	57	127
156.51331065759638	156.79197278911565	39	127
156.79197278911565	157.02414965986395	58	127
156.79197278911565	157.02414965986395	55	127
156.79197278911565	157.02414965986395	51	127
157.03578231292516	157.2447619047619	39	127
157.2447619047619	157.51179138321996	51	127
157.2447619047619	157.51179138321996	58	127
157.2447619047619	157.51179138321996	55	127
157.51179138321996	157.73238095238096	39	127
157.7439909297052	157.92975056689343	51	127
157.7439909297052	157.92975056689343	55	127
157.7439909297052	157.92975056689343	58	127
157.94133786848073	158.18517006802722	39	127
158.18517006802722	158.37092970521542	58	127
158.18517006802722	158.37092970521542	51	127
158.18517006802722	158.37092970521542	55	127
158.37092970521542	158.57990929705215	39	127
158.59151927437642	158.81208616780046	51	127
158.59151927437642	158.81208616780046	58	127
158.59151927437642	158.81208616780046	55	127
158.81208616780046	159.0326984126984	39	127
159.0326984126984	159.27648526077098	51	127
159.0326984126984	159.27648526077098	58	127
159.0326984126984	159.27648526077098	55	127
159.2881179138322	159.6015873015873	39	127
159.61319727891157	159.8221768707483	51	127
159.61319727891157	159.8221768707483	58	127
159.61319727891157	159.8221768707483	55	127
159.8221768707483	160.04274376417234	39	127
160.04274376417234	160.25174603174602	51	127
160.04274376417234	160.25174603174602	55	127
160.04274376417234	160.25174603174602	58	127
160.2633560090703	160.47233560090703	39	127
160.47233560090703	160.72775510204082	51	127
160.47233560090703	160.72775510204082	56	127
160.47233560090703	160.72775510204082	58	127
160.47233560090703	160.72775510204082	65	127
160.47233560090703	160.72775510204082	68	127
160.47233560090703	160.72775510204082	74	127
160.72775510204082	160.94834467120182	74	127
160.72775510204082	160.94834467120182	65	127
160.72775510204082	160.94834467120182	68	127
160.72775510204082	160.94834467120182	51	127
160.72775510204082	160.94834467120182	56	127
160.72775510204082	160.94834467120182	58	127
160.94834467120182	161.15732426303856	51	127
160.94834467120182	161.15732426303856	74	127
160.94834467120182	161.15732426303856	68	127
160.94834467120182	161.15732426303856	65	127
160.94834467120182	161.15732426303856	58	127
160.94834467120182	161.15732426303856	56	127
161.1689342403628	161.36628117913833	39	127
161.36628117913833	161.57526077097506	63	127
161.36628117913833	161.57526077097506	67	127
161.36628117913833	161.57526077097506	75	127
161.36628117913833	161.57526077097506	51	127
161.36628117913833	161.57526077097506	55	127
161.36628117913833	161.57526077097506	58	127
161.57526077097506	161.72619047619048	51	127
161.57526077097506	161.72619047619048	75	127
161.57526077097506	161.72619047619048	67	127
161.57526077097506	161.72619047619048	63	127
161.57526077097506	161.72619047619048	55	127
161.57526077097506	161.72619047619048	58	127
161.7378231292517	161.9584126984127	75	127
161.7378231292517	161.9584126984127	63	127
161.7378231292517	161.9584126984127	58	127
161.7378231292517	161.9584126984127	55	127
161.7378231292517	161.9584126984127	51	127
161.7378231292517	161.9584126984127	67	127
161.97002267573697	162.16739229024944	39	127
162.16739229024944	162.38798185941044	65	127
162.16739229024944	162.38798185941044	68	127
162.16739229024944	162.38798185941044	56	127
162.16739229024944	162.38798185941044	51	127
162.16739229024944	162.38798185941044	74	127
162.16739229024944	162.38798185941044	58	127
162.38798185941044	162.5969387755102	51	127
162.38798185941044	162.5969387755102	56	127
162.38798185941044	162.5969387755102	65	127
162.38798185941044	162.5969387755102	68	127
162.38798185941044	162.5969387755102	58	127
162.38798185941044	162.5969387755102	74	127
162.60857142857142	162.8407709750567	74	127
162.60857142857142	162.8407709750567	58	127
162.60857142857142	162.8407709750567	56	127
162.60857142857142	162.8407709750567	51	127
162.60857142857142	162.8407709750567	68	127
162.60857142857142	162.8407709750567	65	127
162.8407709750567	163.06136054421768	39	127
163.06136054421768	163.28195011337868	58	127
163.06136054421768	163.17746031746032	63	127
163.06136054421768	163.28195011337868	55	127
163.06136054421768	163.28195011337868	51	127
163.18907029478459	163.28195011337868	67	127
163.29356009070295	163.42126984126983	70	127
163.29356009070295	163.5257596371882	51	127
163.29356009070295	163.5257596371882	55	127
163.29356009070295	163.5257596371882	58	127
163.42126984126983	163.5257596371882	75	127
163.53736961451247	163.64185941043084	79	127
163.53736961451247	163.7463492063492	58	127
163.53736961451247	163.7463492063492	51	127
163.53736961451247	163.7463492063492	55	127
163.64185941043084	163.7463492063492	82	127
163.7463492063492	163.85083900226758	81	127
163.7463492063492	163.96693877551022	39	127
163.86244897959185	163.96693877551022	82	127
163.96693877551022	164.07142857142858	84	127
163.96693877551022	164.17591836734695	51	127
163.96693877551022	164.17591836734695	56	127
163.96693877551022	164.17591836734695	58	127
164.07142857142858	164.17591836734695	82	127
164.1875283446712	164.38487528344672	58	127
164.1875283446712	164.38487528344672	56	127
164.1875283446712	164.38487528344672	51	127
164.1875283446712	164.28038548752835	80	127
164.28038548752835	164.38487528344672	79	127
164.39650793650793	164.60548752834467	56	127
164.39650793650793	164.60548752834467	58	127
164.39650793650793	164.60548752834467	51	127
164.39650793650793	164.4893650793651	80	127
164.5009977324263	164.60548752834467	77	127
164.60548752834467	164.7215873015873	75	127
164.60548752834467	164.83768707482994	39	127
164.73319727891158	164.83768707482994	79	127
164.83768707482994	165.05827664399092	55	127
164.83768707482994	165.05827664399092	51	127
164.83768707482994	165.05827664399092	58	127
164.83768707482994	164.95378684807255	70	127
164.95378684807255	165.05827664399092	79	127
165.0698866213152	165.1627664399093	70	127
165.0698866213152	165.27886621315193	51	127
165.0698866213152	165.27886621315193	58	127
165.0698866213152	165.27886621315193	55	127
165.1627664399093	165.27886621315193	75	127
165.27886621315193	165.37174603174603	79	127
165.27886621315193	165.48784580498867	58	127
165.27886621315193	165.48784580498867	55	127
165.27886621315193	165.48784580498867	51	127
165.3833560090703	165.48784580498867	82	127
165.48784580498867	165.59233560090703	81	127
165.48784580498867	165.6968253968254	39	127
165.59233560090703	165.6968253968254	82	127
165.70843537414967	165.81292517006804	84	127
165.70843537414967	165.94063492063492	51	127
165.70843537414967	165.94063492063492	56	127
165.70843537414967	165.94063492063492	58	127
165.81292517006804	165.94063492063492	82	127
165.9522448979592	166.16122448979593	58	127
165.9522448979592	166.06834467120183	80	127
165.9522448979592	166.16122448979593	51	127
165.9522448979592	166.16122448979593	56	127
166.06834467120183	166.16122448979593	79	127
166.16122448979593	166.25410430839003	80	127
166.16122448979593	166.37020408163266	51	127
166.16122448979593	166.37020408163266	56	127
166.16122448979593	166.37020408163266	58	127
166.2657142857143	166.37020408163266	77	127
166.37020408163266	166.59079365079364	51	127
166.37020408163266	166.59079365079364	75	127
166.37020408163266	166.59079365079364	58	127
166.37020408163266	166.59079365079364	55	127
166.6024036281179	167.04356009070295	70	127
166.6024036281179	167.04356009070295	67	127
166.81138321995465	167.04356009070295	46	127
167.04356009070295	167.47315192743764	70	127
167.04356009070295	167.25256235827663	46	127
167.04356009070295	167.47315192743764	67	127
167.25256235827663	167.47315192743764	46	127
167.4847619047619	167.91430839002268	68	127
167.4847619047619	167.91430839002268	67	127
167.4847619047619	167.69374149659865	46	127
167.69374149659865	167.91430839002268	48	127
167.9259410430839	168.15814058956917	50	127
167.9259410430839	168.39034013605442	65	127
167.9259410430839	168.39034013605442	68	127
168.15814058956917	168.63414965986394	51	127
168.4019501133787	168.84312925170067	67	127
168.4019501133787	168.84312925170067	65	127
168.63414965986394	168.84312925170067	43	127
168.85473922902494	169.07532879818595	43	127
168.85473922902494	169.29591836734693	63	127
168.85473922902494	169.29591836734693	67	127
169.07532879818595	169.29591836734693	43	127
169.29591836734693	169.7487074829932	65	127
169.29591836734693	169.7487074829932	63	127
169.29591836734693	169.51650793650794	43	127
169.51650793650794	169.7487074829932	45	127
169.7487074829932	170.20149659863947	62	127
169.7487074829932	169.95766439909298	65	127
169.7487074829932	169.95766439909298	47	127
169.9692970521542	170.4104761904762	48	127
169.9692970521542	170.4104761904762	63	127
170.20149659863947	170.4104761904762	60	127
170.42208616780044	170.64267573696145	66	127
170.42208616780044	170.64267573696145	74	127
170.42208616780044	170.64267573696145	50	127
170.42208616780044	170.64267573696145	48	127
170.64267573696145	170.84004535147392	66	127
170.64267573696145	170.84004535147392	74	127
170.64267573696145	170.84004535147392	48	127
170.64267573696145	170.84004535147392	50	127
170.8516553287982	171.06063492063493	66	127
170.8516553287982	171.06063492063493	74	127
170.8516553287982	171.06063492063493	50	127
170.8516553287982	171.06063492063493	48	127
171.06063492063493	171.28122448979593	74	127
171.06063492063493	171.28122448979593	66	127
171.06063492063493	171.28122448979593	48	127
171.06063492063493	171.28122448979593	50	127
171.29283446712017	171.53664399092972	50	127
171.29283446712017	171.53664399092972	46	127
171.29283446712017	171.53664399092972	76	127
171.29283446712017	171.53664399092972	67	127
171.53664399092972	171.7920634920635	78	127
171.53664399092972	171.7920634920635	45	127
171.53664399092972	171.7920634920635	50	127
171.53664399092972	171.7920634920635	69	127
171.80367346938775	172.2912925170068	79	127
171.80367346938775	172.2912925170068	70	127
171.80367346938775	172.2912925170068	43	127
171.80367346938775	172.2912925170068	55	127
171.80367346938775	172.2912925170068	50	127
172.2912925170068	172.52349206349206	73	127
172.2912925170068	172.52349206349206	51	127
172.2912925170068	172.52349206349206	55	127
172.52349206349206	172.76727891156463	55	127
172.52349206349206	172.60476190476192	73	127
172.52349206349206	172.76727891156463	51	127
172.55832199546487	172.66281179138323	74	127
172.60476190476192	172.697641723356	73	127
172.66281179138323	172.76727891156463	71	127
172.72086167800452	172.76727891156463	73	127
172.76727891156463	173.2084807256236	74	127
172.76727891156463	173.2084807256236	55	127
172.76727891156463	173.2084807256236	50	127
173.2084807256236	173.41746031746032	57	127
173.2084807256236	173.41746031746032	50	127
173.2084807256236	173.41746031746032	66	127
173.41746031746032	173.49873015873015	66	127
173.41746031746032	173.6728798185941	50	127
173.41746031746032	173.6728798185941	57	127
173.46390022675737	173.5451700680272	67	127
173.51034013605442	173.58	66	127
173.5451700680272	173.6728798185941	64	127
173.60321995464852	173.6728798185941	66	127
173.6728798185941	174.13727891156464	43	127
173.6728798185941	174.13727891156464	67	127
173.6728798185941	174.13727891156464	55	127
174.13727891156464	174.36947845804988	62	127
174.13727891156464	174.36947845804988	60	127
174.13727891156464	174.36947845804988	66	127
174.36947845804988	174.57845804988662	66	127
174.36947845804988	174.57845804988662	62	127
174.36947845804988	174.57845804988662	60	127
174.57845804988662	174.81063492063493	62	127
174.57845804988662	174.81063492063493	60	127
174.57845804988662	174.81063492063493	66	127
174.81063492063493	174.98480725623583	62	127
174.81063492063493	174.98480725623583	60	127
174.81063492063493	174.98480725623583	66	127
174.98480725623583	175.2170068027211	62	127
174.98480725623583	175.2170068027211	59	127
174.98480725623583	175.2170068027211	67	127
175.22861678004534	175.42596371882087	62	127
175.22861678004534	175.42596371882087	57	127
175.22861678004534	175.42596371882087	69	127
175.42596371882087	175.86716553287982	71	127
175.42596371882087	175.86716553287982	55	127
175.42596371882087	175.86716553287982	62	127
175.86716553287982	176.09936507936507	57	127
175.86716553287982	176.09936507936507	55	127
175.86716553287982	176.09936507936507	52	127
175.86716553287982	176.09936507936507	69	127
175.86716553287982	176.09936507936507	67	127
176.11097505668934	176.34317460317462	57	127
176.11097505668934	176.34317460317462	69	127
176.11097505668934	176.34317460317462	55	127
176.11097505668934	176.34317460317462	52	127
176.11097505668934	176.34317460317462	67	127
176.34317460317462	176.81918367346938	55	127
176.34317460317462	176.81918367346938	50	127
176.34317460317462	176.81918367346938	71	127
176.34317460317462	176.81918367346938	67	127
176.34317460317462	176.81918367346938	59	127
176.81918367346938	177.0397732426304	62	127
176.81918367346938	177.0397732426304	50	127
176.81918367346938	177.0397732426304	60	127
176.81918367346938	177.0397732426304	57	127
177.0397732426304	177.2835827664399	57	127
177.0397732426304	177.2835827664399	60	127
177.0397732426304	177.2835827664399	62	127
177.0397732426304	177.2835827664399	50	127
177.2835827664399	177.73637188208616	59	127
177.2835827664399	177.73637188208616	62	127
177.2835827664399	177.73637188208616	43	127
177.2835827664399	177.73637188208616	55	127
177.74798185941043	177.9453514739229	57	127
177.74798185941043	177.9453514739229	55	127
177.74798185941043	177.9453514739229	52	127
177.74798185941043	177.9453514739229	85	127
177.9453514739229	178.17755102040817	57	127
177.9453514739229	178.17755102040817	52	127
177.9453514739229	178.17755102040817	55	127
177.9453514739229	178.09628117913832	85	127
178.02662131519276	178.17755102040817	86	127
178.10789115646259	178.17755102040817	85	127
178.18913832199547	178.39814058956915	59	127
178.18913832199547	178.39814058956915	55	127
178.18913832199547	178.39814058956915	50	127
178.18913832199547	178.39814058956915	86	127
178.39814058956915	178.61873015873016	55	127
178.39814058956915	178.61873015873016	50	127
178.39814058956915	178.61873015873016	59	127
178.39814058956915	178.54907029478457	86	127
178.46780045351474	178.61873015873016	88	127
178.54907029478457	178.69997732426305	86	127
178.63034013605443	178.8277097505669	78	127
178.63034013605443	178.8277097505669	38	127
178.63034013605443	178.8277097505669	50	127
178.83931972789117	178.97863945578231	78	127
178.83931972789117	179.05990929705214	38	127
178.83931972789117	179.05990929705214	50	127
178.90897959183673	179.05990929705214	79	127
178.99024943310658	179.05990929705214	78	127
179.0715192743764	179.3037188208617	50	127
179.0715192743764	179.3037188208617	43	127
179.0715192743764	179.3037188208617	47	127
179.0715192743764	179.3037188208617	55	127
179.0715192743764	179.3037188208617	79	127
179.3037188208617	179.53591836734694	74	127
179.3037188208617	179.53591836734694	62	127
179.5475283446712	179.7332879818594	43	127
179.5475283446712	179.7332879818594	47	127
179.5475283446712	179.7332879818594	55	127
179.5475283446712	179.7332879818594	50	127
179.7332879818594	179.94226757369614	74	127
179.7332879818594	179.94226757369614	62	127
179.9538775510204	180.16285714285715	50	127
179.9538775510204	180.16285714285715	48	127
179.9538775510204	180.16285714285715	43	127
179.9538775510204	180.16285714285715	54	127
180.16285714285715	180.3950566893424	74	127
180.16285714285715	180.3950566893424	62	127
180.40666666666667	180.63884353741497	43	127
180.40666666666667	180.63884353741497	48	127
180.40666666666667	180.63884353741497	50	127
180.40666666666667	180.63884353741497	54	127
180.63884353741497	180.8478231292517	62	127
180.63884353741497	180.8478231292517	74	127
180.85945578231292	181.06843537414966	55	127
180.85945578231292	181.06843537414966	43	127
180.85945578231292	181.06843537414966	50	127
180.85945578231292	181.06843537414966	47	127
181.06843537414966	181.2774149659864	74	127
181.06843537414966	181.2774149659864	62	127
181.2774149659864	181.5095918367347	47	127
181.2774149659864	181.5095918367347	50	127
181.2774149659864	181.5095918367347	55	127
181.2774149659864	181.5095918367347	43	127
181.5095918367347	181.71859410430838	62	127
181.5095918367347	181.71859410430838	74	127
181.71859410430838	181.92757369614512	48	127
181.71859410430838	181.92757369614512	50	127
181.71859410430838	181.92757369614512	43	127
181.71859410430838	181.92757369614512	54	127
181.9391836734694	182.14816326530612	62	127
181.9391836734694	182.14816326530612	74	127
182.14816326530612	182.39197278911564	43	127
182.14816326530612	182.39197278911564	50	127
182.14816326530612	182.39197278911564	54	127
182.14816326530612	182.39197278911564	48	127
182.4035827664399	182.61256235827665	74	127
182.4035827664399	182.61256235827665	62	127
182.61256235827665	182.80993197278912	43	127
182.61256235827665	182.70544217687075	74	127
182.61256235827665	182.80993197278912	47	127
182.61256235827665	182.80993197278912	50	127
182.61256235827665	182.80993197278912	55	127
182.70544217687075	182.80993197278912	62	127
182.82154195011339	182.92603174603175	67	127
182.92603174603175	183.03052154195012	71	127
183.03052154195012	183.1350113378685	74	127
183.03052154195012	183.23950113378686	43	127
183.03052154195012	183.23950113378686	55	127
183.03052154195012	183.23950113378686	50	127
183.03052154195012	183.23950113378686	47	127
183.1350113378685	183.2511111111111	79	127
183.2511111111111	183.35560090702947	83	127
183.35560090702947	183.4717006802721	86	127
183.4717006802721	183.68068027210884	54	127
183.4717006802721	183.68068027210884	50	127
183.4717006802721	183.68068027210884	48	127
183.4717006802721	183.57619047619048	85	127
183.4717006802721	183.68068027210884	43	127
183.57619047619048	183.6922902494331	86	127
183.6922902494331	183.79678004535148	88	127
183.79678004535148	183.92448979591836	86	127
183.92448979591836	184.02897959183673	83	127
183.92448979591836	184.1334693877551	43	127
183.92448979591836	184.1334693877551	48	127
183.92448979591836	184.1334693877551	50	127
183.92448979591836	184.1334693877551	54	127
184.02897959183673	184.1334693877551	86	127
184.1334693877551	184.261179138322	84	127
184.261179138322	184.36566893424038	81	127
184.36566893424038	184.58625850340135	47	127
184.36566893424038	184.58625850340135	55	127
184.36566893424038	184.58625850340135	43	127
184.36566893424038	184.58625850340135	50	127
184.36566893424038	184.48176870748298	79	127
184.48176870748298	184.58625850340135	83	127
184.58625850340135	184.702358276644	74	127
184.702358276644	184.80684807256236	83	127
184.80684807256236	184.99260770975056	55	127
184.80684807256236	184.89972789115646	74	127
184.80684807256236	184.99260770975056	43	127
184.80684807256236	184.99260770975056	47	127
184.80684807256236	184.99260770975056	50	127
184.89972789115646	184.99260770975056	79	127
184.99260770975056	185.0854648526077	83	127
185.0854648526077	185.24802721088435	86	127
185.24802721088435	185.46861678004535	50	127
185.24802721088435	185.3525170068027	85	127
185.24802721088435	185.46861678004535	43	127
185.24802721088435	185.46861678004535	48	127
185.24802721088435	185.46861678004535	54	127
185.3525170068027	185.46861678004535	86	127
185.46861678004535	185.57310657596372	88	127
185.57310657596372	185.71242630385487	86	127
185.71242630385487	185.9214058956916	54	127
185.71242630385487	185.9214058956916	48	127
185.71242630385487	185.9214058956916	50	127
185.71242630385487	185.81691609977324	83	127
185.71242630385487	185.9214058956916	43	127
185.81691609977324	185.9214058956916	86	127
185.9214058956916	186.02589569160997	84	127
186.02589569160997	186.16521541950112	81	127
186.16521541950112	186.37419501133786	43	127
186.16521541950112	186.37419501133786	47	127
186.16521541950112	186.37419501133786	50	127
186.16521541950112	186.37419501133786	55	127
186.16521541950112	186.6180045351474	79	127
186.37419501133786	186.6180045351474	31	127
186.6180045351474	186.83859410430838	57	127
186.73410430839002	186.93145124716554	60	127
186.83859410430838	187.0243537414966	31	127
186.83859410430838	187.0243537414966	50	127
186.93145124716554	187.12884353741498	60	127
187.0243537414966	187.22172335600908	55	127
187.14045351473922	187.32621315192745	59	127
187.23331065759638	187.43070294784582	31	127
187.23331065759638	187.43070294784582	50	127
187.32621315192745	187.53519274376418	59	127
187.43070294784582	187.6512925170068	54	127
187.54680272108843	187.76739229024943	57	127
187.66290249433106	187.8718820861678	50	127
187.66290249433106	187.8718820861678	31	127
187.76739229024943	187.98798185941044	57	127
187.8718820861678	188.1040589569161	55	127
187.98798185941044	188.2201814058957	59	127
188.11569160997732	188.32467120181406	31	127
188.11569160997732	188.32467120181406	50	127
188.2201814058957	188.42916099773242	59	127
188.32467120181406	188.5336507936508	57	127
188.42916099773242	188.6265306122449	60	127
188.54526077097506	188.74263038548753	50	127
188.54526077097506	188.74263038548753	31	127
188.63814058956916	188.8471201814059	60	127
188.74263038548753	188.96321995464854	55	127
188.8471201814059	189.0677097505669	59	127
188.96321995464854	189.17219954648527	50	127
188.96321995464854	189.17219954648527	31	127
189.07931972789115	189.27666666666667	59	127
189.17219954648527	189.38115646258504	54	127
189.27666666666667	189.46244897959184	57	127
189.38115646258504	189.55532879818594	50	127
189.38115646258504	189.55532879818594	31	127
189.4740589569161	189.67142857142858	57	127
189.5669387755102	189.77591836734695	55	127
189.67142857142858	189.88040816326532	59	127
189.77591836734695	189.97328798185941	31	127
189.77591836734695	189.97328798185941	50	127
189.8919954648526	190.12421768707483	59	127
189.98489795918368	190.2287074829932	54	127
190.12421768707483	190.35641723356008	57	127
190.2287074829932	190.46090702947845	50	127
190.2287074829932	190.46090702947845	31	127
190.35641723356008	190.46090702947845	57	127
190.47251700680272	190.68149659863946	55	127
190.5770068027211	190.78598639455782	59	127
190.68149659863946	190.8904761904762	31	127
190.68149659863946	190.8904761904762	50	127
190.78598639455782	190.99496598639456	59	127
190.90208616780046	191.09945578231293	54	127
191.00657596371883	191.2039455782313	57	127
191.09945578231293	191.30843537414967	50	127
191.09945578231293	191.30843537414967	31	127
191.2039455782313	191.30843537414967	57	127
191.32004535147394	191.5174149659864	55	127
191.42453514739228	191.62190476190477	59	127
191.52902494331065	191.73800453514738	50	127
191.52902494331065	191.73800453514738	31	127
191.633514739229	191.84249433106575	59	127
191.73800453514738	191.98181405895693	54	127
191.84249433106575	192.0863038548753	57	127
191.98181405895693	192.2024036281179	31	127
191.98181405895693	192.2024036281179	50	127
192.0863038548753	192.2024036281179	57	127
192.2024036281179	192.39977324263037	55	127
192.295283446712	192.50426303854874	59	127
192.39977324263037	192.6087528344671	50	127
192.39977324263037	192.6087528344671	31	127
192.50426303854874	192.71324263038548	59	127
192.6087528344671	192.85256235827666	54	127
192.71324263038548	192.957052154195	57	127
192.85256235827666	193.03832199546486	50	127
192.85256235827666	193.03832199546486	31	127
192.957052154195	193.03832199546486	57	127
193.03832199546486	193.25891156462586	55	127
193.1544217687075	193.36340136054423	59	127
193.25891156462586	193.44467120181406	31	127
193.25891156462586	193.44467120181406	50	127
193.36340136054423	193.54916099773243	59	127
193.44467120181406	193.64204081632653	50	127
193.54916099773243	193.7465306122449	55	127
193.64204081632653	193.839410430839	47	127
193.64204081632653	193.839410430839	31	127
193.7465306122449	193.97873015873017	55	127
193.85102040816327	194.0832199546485	47	127
193.97873015873017	194.21092970521542	50	127
194.0832199546485	194.3154195011338	31	127
194.0832199546485	194.3154195011338	43	127
194.2225396825397	194.43151927437643	50	127
194.32702947845806	194.54761904761904	43	127
194.43151927437643	194.6521088435374	47	127
194.5592290249433	194.7798185941043	38	127
194.5592290249433	194.7798185941043	31	127
194.66371882086167	194.7798185941043	47	127
194.79142857142858	195.01201814058956	47	127
194.79142857142858	195.01201814058956	31	127
195.23260770975057	195.5112471655329	66	127
195.23260770975057	195.5112471655329	62	127
195.23260770975057	195.5112471655329	60	127
195.23260770975057	195.5112471655329	57	127
195.23260770975057	195.5112471655329	50	127
195.23260770975057	195.5112471655329	38	127
195.7898866213152	196.09174603174603	55	127
195.7898866213152	196.09174603174603	59	127
195.7898866213152	196.09174603174603	43	127
195.7898866213152	196.09174603174603	67	127
195.7898866213152	196.09174603174603	62	127
