# onset,offset,note,velocity
4.0859410430839	4.23687074829932	74	127
4.306530612244898	4.457460317460318	74	127
4.50390022675737	4.643219954648526	74	127
4.701269841269841	4.73609977324263	74	127
4.73609977324263	4.770907029478458	76	127
4.770907029478458	4.805759637188209	74	127
4.805759637188209	4.863809523809524	73	127
4.863809523809524	4.910249433106576	74	127
4.910249433106576	5.0495691609977325	76	127
5.107619047619048	5.258548752834467	78	127
5.3165986394557825	5.53718820861678	79	127
5.53718820861678	5.630068027210885	83	127
5.746167800453515	5.92031746031746	74	127
5.989977324263038	6.140907029478458	74	127
6.198956916099773	6.361496598639456	74	127
6.419546485260771	6.4543764172335605	74	127
6.4543764172335605	6.489206349206349	76	127
6.489206349206349	6.524036281179138	74	127
6.524036281179138	6.570476190476191	73	127
6.570476190476191	6.616916099773243	74	127
6.616916099773243	6.7562358276643995	76	127
6.814285714285714	6.965215419501134	78	127
7.023265306122449	7.4412244897959186	79	127
7.452834467120182	7.557324263038549	72	127
7.557324263038549	7.63859410430839	71	127
7.673424036281179	7.7430839002267575	69	127
7.7779138321995465	7.847573696145124	67	127
7.882403628117914	7.998503401360544	66	127
7.998503401360544	8.068163265306122	67	127
8.102993197278911	8.172630385487528	69	127
8.195873015873016	8.277142857142858	71	127
8.300340136054421	8.43968253968254	72	127
8.43968253968254	8.509342403628118	71	127
8.532562358276644	8.613832199546485	69	127
8.637052154195011	8.718321995464853	67	127
8.741519274376417	8.846031746031747	66	127
8.846031746031747	8.927301587301587	67	127
8.97374149659864	9.05501133786848	69	127
9.078231292517007	9.159501133786849	71	127
9.182721088435374	9.275600907029478	72	127
9.275600907029478	9.345238095238095	71	127
9.368480725623582	9.449750566893425	69	127
9.484580498866213	9.554240362811791	67	127
9.58907029478458	9.705170068027211	66	127
9.705170068027211	9.786439909297052	67	127
9.82124716553288	9.879319727891156	69	127
9.914149659863945	9.983809523809525	71	127
10.030249433106576	10.134739229024943	72	127
10.134739229024943	10.204399092970522	71	127
10.239229024943311	10.332108843537416	72	127
10.378548752834467	10.45981859410431	71	127
10.517845804988662	10.982267573696145	72	127
10.993854875283446	11.109977324263038	62	127
11.109977324263038	11.214444444444444	67	127
11.214444444444444	11.318956916099774	71	127
11.318956916099774	11.42344671201814	74	127
11.42344671201814	11.527936507936507	73	127
11.527936507936507	11.620816326530612	74	127
11.620816326530612	11.748526077097505	76	127
11.748526077097505	11.864625850340136	74	127
11.864625850340136	11.969115646258503	71	127
11.969115646258503	12.07360544217687	74	127
12.07360544217687	12.189705215419501	72	127
12.189705215419501	12.282585034013605	69	127
12.282585034013605	12.387074829931972	67	127
12.387074829931972	12.49156462585034	71	127
12.49156462585034	12.60766439909297	62	127
12.60766439909297	12.712154195011339	71	127
12.712154195011339	12.816643990929705	62	127
12.816643990929705	12.932743764172336	67	127
12.932743764172336	13.037233560090703	71	127
13.037233560090703	13.14172335600907	74	127
13.14172335600907	13.246213151927437	73	127
13.246213151927437	13.350702947845805	74	127
13.350702947845805	13.455192743764172	76	127
13.455192743764172	13.536462585034014	74	127
13.536462585034014	13.640952380952381	71	127
13.640952380952381	13.745442176870748	74	127
13.745442176870748	13.873151927437641	72	127
13.873151927437641	13.966031746031746	69	127
13.966031746031746	14.383990929705215	67	127
14.395600907029479	14.488480725623583	62	127
14.488480725623583	14.59297052154195	67	127
14.59297052154195	14.697460317460317	71	127
14.697460317460317	14.801950113378684	74	127
14.801950113378684	14.906439909297053	73	127
14.906439909297053	15.022539682539682	74	127
15.022539682539682	15.115419501133786	76	127
15.115419501133786	15.20829931972789	74	127
15.20829931972789	15.31278911564626	71	127
15.31278911564626	15.417278911564626	74	127
15.417278911564626	15.521768707482993	72	127
15.521768707482993	15.62625850340136	69	127
15.62625850340136	15.74235827664399	67	127
15.74235827664399	15.870068027210884	71	127
15.870068027210884	15.97455782312925	62	127
15.97455782312925	16.079024943310657	71	127
16.079024943310657	16.171927437641724	62	127
16.171927437641724	16.241587301587302	67	127
16.241587301587302	16.322857142857142	71	127
16.322857142857142	16.42734693877551	74	127
16.42734693877551	16.53183673469388	73	127
16.53183673469388	16.647936507936507	74	127
16.647936507936507	16.752426303854875	76	127
16.752426303854875	16.856916099773244	74	127
16.856916099773244	16.949795918367347	71	127
16.949795918367347	17.054285714285715	74	127
17.054285714285715	17.170385487528346	72	127
17.170385487528346	17.29809523809524	69	127
17.29809523809524	17.76249433106576	67	127
17.774104308390022	17.983061224489795	67	127
17.994693877551022	18.22689342403628	71	127
18.23848072562358	18.737732426303854	69	127
18.749319727891155	18.87702947845805	71	127
18.87702947845805	18.969931972789116	62	127
18.969931972789116	19.086031746031747	67	127
19.086031746031747	19.19049886621315	62	127
19.19049886621315	19.654920634920636	66	127
19.666530612244898	19.71297052154195	69	127
19.71297052154195	19.817460317460316	67	127
19.817460317460316	19.933560090702947	66	127
19.933560090702947	20.04965986394558	67	127
20.04965986394558	20.154149659863947	71	127
20.154149659863947	20.595328798185943	69	127
20.595328798185943	20.7346485260771	71	127
20.7346485260771	20.85074829931973	62	127
20.85074829931973	20.955238095238094	67	127
20.955238095238094	21.071337868480725	62	127
21.071337868480725	21.558956916099774	66	127
21.570566893424036	21.675056689342405	72	127
21.675056689342405	21.756326530612245	74	127
21.79113378684807	21.860816326530614	71	127
21.8956462585034	21.96530612244898	72	127
22.00013605442177	22.1162358276644	69	127
22.1162358276644	22.18589569160998	71	127
22.220725623582766	22.290385487528344	67	127
22.325215419501134	22.38326530612245	69	127
22.418095238095237	22.56902494331066	66	127
22.627074829931974	22.696734693877552	66	127
22.696734693877552	22.754784580498868	67	127
22.754784580498868	22.824444444444445	66	127
22.824444444444445	23.021814058956917	67	127
23.021814058956917	23.137913832199548	74	127
23.26562358276644	23.381723356009072	72	127
23.381723356009072	23.462993197278912	74	127
23.486213151927437	23.567460317460316	71	127
23.590702947845806	23.660362811791384	72	127
23.68358276643991	23.788072562358277	69	127
23.788072562358277	23.869342403628117	71	127
23.892562358276646	23.962222222222223	67	127
23.985442176870748	24.06671201814059	69	127
24.089931972789117	24.275691609977326	66	127
24.33374149659864	24.41501133786848	66	127
24.41501133786848	24.48467120181406	67	127
24.48467120181406	24.554331065759637	66	127
24.554331065759637	24.98390022675737	67	127
25.018730158730158	25.14643990929705	59	127
25.14643990929705	25.25092970521542	62	127
25.25092970521542	25.355419501133788	67	127
25.355419501133788	25.471519274376416	62	127
25.471519274376416	25.93591836734694	66	127
25.93591836734694	26.168117913832198	74	127
26.168117913832198	26.411927437641722	71	127
26.411927437641722	26.911156462585033	69	127
26.911156462585033	27.038866213151927	59	127
27.038866213151927	27.178185941043083	62	127
27.178185941043083	27.294285714285714	59	127
27.294285714285714	27.398775510204082	67	127
27.398775510204082	27.85156462585034	66	127
27.85156462585034	27.909614512471656	76	127
27.909614512471656	28.014104308390024	74	127
28.014104308390024	28.11859410430839	73	127
28.11859410430839	28.23469387755102	74	127
28.23469387755102	28.362403628117914	71	127
28.362403628117914	28.81519274376417	69	127
30.48702947845805	30.591519274376417	84	127
30.591519274376417	30.661179138321994	86	127
30.707619047619048	30.788888888888888	83	127
30.82371882086168	30.893378684807256	84	127
30.928208616780044	31.032698412698412	81	127
31.032698412698412	31.10235827664399	83	127
31.13718820861678	31.20684807256236	79	127
31.241678004535146	31.311337868480727	81	127
31.346167800453514	31.48548752834467	78	127
31.543537414965986	31.624807256235826	78	127
31.624807256235826	31.694467120181407	79	127
31.694467120181407	31.78734693877551	78	127
31.78734693877551	32.03113378684807	79	127
35.665079365079364	35.827619047619045	74	127
35.885668934240364	36.02498866213152	74	127
36.083015873015874	36.23396825396826	74	127
36.29201814058957	36.326848072562356	74	127
36.326848072562356	36.36167800453515	76	127
36.36167800453515	36.39650793650794	74	127
36.39650793650794	36.44294784580499	73	127
36.44294784580499	36.489387755102044	74	127
36.489387755102044	36.64031746031746	76	127
36.68675736961451	36.83768707482993	78	127
36.89573696145125	37.093106575963716	79	127
37.10469387755102	37.232403628117915	83	127
37.3485260770975	37.49945578231293	74	127
37.55750566893424	37.72004535147392	74	127
37.76648526077098	37.92902494331066	74	127
37.97546485260771	38.0102947845805	74	127
38.0102947845805	38.04512471655329	76	127
38.04512471655329	38.079954648526076	74	127
38.079954648526076	38.138004535147395	73	127
38.138004535147395	38.184444444444445	74	127
38.184444444444445	38.346984126984125	76	127
38.39342403628118	38.5443537414966	78	127
38.60240362811791	39.02036281179139	79	127
39.02036281179139	39.12485260770975	72	127
39.12485260770975	39.20612244897959	71	127
39.24095238095238	39.31061224489796	69	127
39.34544217687075	39.42671201814059	67	127
39.46154195011338	39.56603174603175	66	127
39.56603174603175	39.635668934240364	67	127
39.670521541950116	39.74018140589569	69	127
39.77498866213152	39.84467120181406	71	127
39.86789115646258	39.983990929705215	72	127
39.983990929705215	40.053650793650796	71	127
40.08848072562358	40.14650793650794	69	127
40.18136054421769	40.239410430839	67	127
40.27421768707483	40.37873015873016	66	127
40.37873015873016	40.44839002267574	67	127
40.483219954648526	40.57609977324263	69	127
40.62253968253968	40.703809523809525	71	127
40.73863945578231	40.84312925170068	72	127
40.84312925170068	40.9127664399093	71	127
40.94761904761905	41.017278911564624	69	127
41.05210884353742	41.12176870748299	67	127
41.15659863945578	41.26108843537415	66	127
41.26108843537415	41.33074829931973	67	127
41.36557823129252	41.41199546485261	69	127
41.4352380952381	41.516507936507935	71	127
41.5397052154195	41.65582766439909	72	127
41.65582766439909	41.737097505668935	71	127
41.76031746031746	41.8415873015873	72	127
41.86480725623583	41.94607709750567	71	127
41.9692970521542	42.503356009070295	72	127
42.503356009070295	42.63106575963719	62	127
42.63106575963719	42.75877551020408	67	127
42.75877551020408	42.886485260770975	71	127
42.886485260770975	42.990975056689344	74	127
42.990975056689344	43.107074829931975	73	127
43.107074829931975	43.21156462585034	74	127
43.21156462585034	43.32764172335601	76	127
43.32764172335601	43.46698412698413	74	127
43.46698412698413	43.55986394557823	71	127
43.55986394557823	43.6643537414966	74	127
43.6643537414966	43.757233560090704	72	127
43.757233560090704	43.85011337868481	69	127
43.85011337868481	43.954580498866214	67	127
43.954580498866214	44.093922902494334	71	127
44.093922902494334	44.198412698412696	62	127
44.198412698412696	44.302902494331065	71	127
44.302902494331065	44.40739229024943	62	127
44.40739229024943	44.5118820861678	67	127
44.5118820861678	44.62798185941043	71	127
44.62798185941043	44.7324716553288	74	127
44.7324716553288	44.8253514739229	73	127
44.8253514739229	44.906621315192744	74	127
44.906621315192744	44.99950113378685	76	127
44.99950113378685	45.103968253968254	74	127
45.103968253968254	45.243310657596375	71	127
45.243310657596375	45.34777777777778	74	127
45.34777777777778	45.452290249433105	72	127
45.452290249433105	45.55678004535147	69	127
45.55678004535147	45.97473922902494	67	127
45.97473922902494	46.07922902494331	62	127
46.07922902494331	46.18371882086168	67	127
46.18371882086168	46.28820861678005	71	127
46.28820861678005	46.38108843537415	74	127
46.38108843537415	46.48555555555556	73	127
46.48555555555556	46.57845804988662	74	127
46.57845804988662	46.68294784580499	76	127
46.68294784580499	46.81065759637188	74	127
46.81065759637188	46.91514739229025	71	127
46.91514739229025	47.042857142857144	74	127
47.042857142857144	47.14734693877551	72	127
47.14734693877551	47.263446712018144	69	127
47.263446712018144	47.367936507936506	67	127
47.367936507936506	47.472426303854874	71	127
47.472426303854874	47.57691609977324	62	127
47.57691609977324	47.66979591836735	71	127
47.66979591836735	47.77428571428572	62	127
47.77428571428572	47.87877551020408	67	127
47.87877551020408	47.96004535147392	71	127
47.96004535147392	48.029705215419504	74	127
48.029705215419504	48.14580498866213	73	127
48.14580498866213	48.21546485260771	74	127
48.21546485260771	48.31995464852608	76	127
48.31995464852608	48.412834467120184	74	127
48.412834467120184	48.517324263038546	71	127
48.517324263038546	48.621814058956915	74	127
48.621814058956915	48.784353741496595	72	127
48.784353741496595	48.888843537414964	69	127
48.888843537414964	49.388072562358275	67	127
49.39968253968254	49.55061224489796	71	127
49.608662131519274	49.75959183673469	71	127
49.81764172335601	50.038231292517004	71	127
50.038231292517004	50.14272108843537	73	127
50.14272108843537	50.24721088435374	75	127
50.24721088435374	50.40975056689342	76	127
50.46780045351474	50.61873015873016	78	127
50.67678004535147	50.88575963718821	79	127
50.88575963718821	51.0134693877551	76	127
51.11795918367347	51.26888888888889	71	127
51.31532879818594	51.46625850340136	71	127
51.53591836734694	51.75650793650794	71	127
51.75650793650794	51.860997732426306	73	127
51.860997732426306	51.965487528344674	75	127
51.965487528344674	52.11641723356009	76	127
52.174467120181404	52.32539682539682	78	127
52.38344671201814	52.789795918367346	79	127
52.789795918367346	52.894285714285715	69	127
52.894285714285715	52.998775510204084	59	127
52.998775510204084	53.10326530612245	66	127
53.10326530612245	53.18453514739229	59	127
53.19614512471655	53.28902494331066	67	127
53.30063492063492	53.393514739229026	59	127
53.40512471655329	53.498004535147395	60	127
53.50961451247166	53.63732426303855	59	127
53.64893424036281	53.765034013605444	55	127
53.776643990929706	53.9043537414966	59	127
53.91596371882086	54.02045351473923	63	127
54.03206349206349	54.1249433106576	59	127
54.13655328798186	54.24104308390023	64	127
54.25265306122449	54.33392290249433	59	127
54.34553287981859	54.4384126984127	67	127
54.45002267573696	54.54290249433107	59	127
54.55451247165533	54.62417233560091	69	127
54.63578231292517	54.72866213151927	59	127
54.72866213151927	54.83315192743764	66	127
54.83315192743764	54.960861678004534	59	127
54.960861678004534	55.0653514739229	67	127
55.0653514739229	55.16984126984127	59	127
55.16984126984127	55.25111111111111	57	127
55.25111111111111	55.355600907029476	59	127
55.355600907029476	55.460090702947845	55	127
55.460090702947845	55.576190476190476	59	127
55.576190476190476	55.680680272108845	63	127
55.680680272108845	55.78517006802721	59	127
55.78517006802721	55.88965986394558	64	127
55.88965986394558	56.005759637188206	59	127
56.005759637188206	56.110249433106574	64	127
56.110249433106574	56.21473922902494	59	127
56.21473922902494	56.330839002267574	66	127
56.330839002267574	56.446938775510205	62	127
56.446938775510205	56.563038548752836	57	127
56.563038548752836	56.67913832199547	62	127
56.67913832199547	56.7952380952381	66	127
56.7952380952381	56.92294784580499	62	127
56.92294784580499	57.01582766439909	57	127
57.02743764172335	57.143537414965984	62	127
57.143537414965984	57.24802721088435	66	127
57.24802721088435	57.375736961451246	62	127
57.38734693877551	57.480226757369614	57	127
57.480226757369614	57.57310657596372	62	127
57.58471655328798	57.89818594104308	66	127
58.025895691609975	58.33936507936508	62	127
58.025895691609975	58.33936507936508	69	127
58.025895691609975	58.33936507936508	78	127
58.45546485260771	58.76893424036281	69	127
58.45546485260771	58.76893424036281	62	127
58.45546485260771	58.76893424036281	78	127
58.87342403628118	59.25655328798186	62	127
58.87342403628118	59.25655328798186	78	127
58.87342403628118	59.25655328798186	69	127
59.38426303854875	59.70934240362812	78	127
59.38426303854875	59.70934240362812	69	127
59.38426303854875	59.70934240362812	62	127
59.86027210884354	59.96476190476191	62	127
59.96476190476191	60.06925170068027	66	127
60.08086167800454	60.20857142857143	69	127
60.20857142857143	60.31306122448979	66	127
60.324671201814056	60.429160997732424	62	127
60.429160997732424	60.53365079365079	66	127
60.545260770975055	60.63814058956916	69	127
60.63814058956916	60.75424036281179	66	127
60.77746031746032	60.881950113378686	62	127
60.881950113378686	60.96321995464853	66	127
60.96321995464853	61.06770975056689	69	127
61.06770975056689	61.18380952380952	66	127
61.195419501133784	61.601768707483	62	127
65.90907029478458	66.09480725623582	74	127
66.1528798185941	66.30380952380952	74	127
66.35022675736961	66.54761904761905	74	127
66.58242630385487	66.61727891156463	74	127
66.61727891156463	66.65210884353742	76	127
66.65210884353742	66.6869387755102	74	127
66.6869387755102	66.74498866213152	73	127
66.74498866213152	66.79142857142857	74	127
66.79142857142857	66.94235827664399	76	127
67.0004081632653	67.17455782312925	78	127
67.25582766439909	67.46480725623583	79	127
67.46480725623583	67.58090702947845	83	127
67.68539682539682	67.84793650793651	74	127
67.90598639455783	68.05691609977325	74	127
68.12657596371882	68.27750566893424	74	127
68.33555555555556	68.37036281179138	74	127
68.37036281179138	68.40521541950113	76	127
68.40521541950113	68.44004535147393	74	127
68.44004535147393	68.48648526077098	73	127
68.48648526077098	68.5445351473923	74	127
68.5445351473923	68.69546485260771	76	127
68.75349206349206	68.90444444444445	78	127
68.96249433106576	69.41528344671202	79	127
69.42689342403628	69.53138321995465	72	127
69.53138321995465	69.63587301587302	71	127
69.69392290249434	69.76358276643991	69	127
69.7984126984127	69.85646258503401	67	127
69.87965986394558	69.9841723356009	66	127
69.9841723356009	70.05383219954649	67	127
70.10027210884354	70.16993197278912	69	127
70.18154195011338	70.26278911564626	71	127
70.28600907029478	70.40213151927438	72	127
70.40213151927438	70.48340136054422	71	127
70.50662131519275	70.58789115646259	69	127
70.61111111111111	70.73882086167801	67	127
70.76204081632653	70.87814058956916	66	127
70.87814058956916	70.959410430839	67	127
70.98263038548752	71.06390022675737	69	127
71.0871201814059	71.15675736961451	71	127
71.18	71.2844671201814	72	127
71.2844671201814	71.3657596371882	71	127
71.38897959183673	71.48185941043084	69	127
71.50507936507937	71.59795918367347	67	127
71.62117913832199	71.72566893424036	66	127
71.72566893424036	71.8069387755102	67	127
71.841768707483	71.8998185941043	69	127
71.9346485260771	72.00430839002267	71	127
72.03913832199547	72.15523809523809	72	127
72.15523809523809	72.2481179138322	71	127
72.28294784580498	72.3758276643991	72	127
72.41065759637188	72.49192743764172	71	127
72.52675736961451	73.02598639455782	72	127
73.03759637188209	73.16530612244898	62	127
73.16530612244898	73.2814058956916	67	127
73.2814058956916	73.37428571428572	71	127
73.37428571428572	73.47877551020409	74	127
73.47877551020409	73.57165532879819	73	127
73.57165532879819	73.67614512471656	74	127
73.67614512471656	73.76902494331065	76	127
73.76902494331065	73.86190476190477	74	127
73.86190476190477	73.98961451247166	71	127
73.98961451247166	74.10571428571428	74	127
74.10571428571428	74.21020408163265	72	127
74.21020408163265	74.30308390022675	69	127
74.30308390022675	74.40757369614512	67	127
74.40757369614512	74.54689342403628	71	127
74.54689342403628	74.65138321995465	62	127
74.65138321995465	74.75587301587302	71	127
74.75587301587302	74.84875283446712	62	127
74.84875283446712	74.95324263038549	67	127
74.95324263038549	75.06934240362811	71	127
75.06934240362811	75.20866213151928	74	127
75.20866213151928	75.31315192743764	73	127
75.31315192743764	75.41764172335601	74	127
75.41764172335601	75.52213151927438	76	127
75.52213151927438	75.638231292517	74	127
75.638231292517	75.74272108843537	71	127
75.74272108843537	75.84721088435374	74	127
75.84721088435374	75.96328798185941	72	127
75.96328798185941	76.06780045351474	69	127
76.06780045351474	76.45092970521542	67	127
76.46253968253968	76.57863945578231	62	127
76.57863945578231	76.68312925170068	67	127
76.68312925170068	76.77600907029479	71	127
76.77600907029479	76.88047619047619	74	127
76.88047619047619	76.98496598639456	73	127
76.98496598639456	77.10108843537415	74	127
77.10108843537415	77.21718820861678	76	127
77.21718820861678	77.31006802721089	74	127
77.31006802721089	77.41455782312926	71	127
77.41455782312926	77.50743764172336	74	127
77.50743764172336	77.60031746031746	72	127
77.60031746031746	77.70480725623582	69	127
77.70480725623582	77.82090702947846	67	127
77.82090702947846	77.92539682539683	71	127
77.92539682539683	78.04149659863945	62	127
78.04149659863945	78.14598639455782	71	127
78.14598639455782	78.25047619047619	62	127
78.25047619047619	78.35496598639456	67	127
78.35496598639456	78.45945578231293	71	127
78.45945578231293	78.5639455782313	74	127
78.5639455782313	78.6568253968254	73	127
78.6568253968254	78.77290249433106	74	127
78.77290249433106	78.86580498866213	76	127
78.86580498866213	78.9702947845805	74	127
78.9702947845805	79.07478458049887	71	127
79.07478458049887	79.1908843537415	74	127
79.1908843537415	79.29537414965986	72	127
79.29537414965986	79.43469387755103	69	127
79.43469387755103	79.89907029478458	67	127
80.71179138321996	80.75823129251701	73	127
80.75823129251701	80.93238095238095	74	127
80.99043083900227	81.17616780045351	74	127
82.23269841269841	82.29074829931973	73	127
82.29074829931973	82.46489795918367	74	127
82.53455782312925	82.72031746031746	74	127
82.77836734693878	82.95251700680272	74	127
83.01056689342404	83.44013605442177	74	127
84.02063492063492	84.06707482993197	73	127
84.06707482993197	84.21798185941043	76	127
84.2760544217687	84.4385941043084	76	127
84.49664399092971	84.64757369614513	76	127
84.70562358276644	85.22807256235828	76	127
86.04077097505669	86.098820861678	78	127
86.098820861678	86.28458049886622	79	127
86.34263038548752	86.49353741496599	79	127
86.86507936507937	86.93473922902494	78	127
86.93473922902494	87.17854875283447	79	127
87.22498866213152	87.36430839002267	79	127
87.57328798185941	87.61972789115646	78	127
87.61972789115646	87.77063492063492	79	127
87.8287074829932	87.96802721088436	79	127
88.06090702947846	88.1770068027211	79	127
88.2350566893424	88.66460317460317	79	127
88.66460317460317	88.7691156462585	67	127
88.7691156462585	88.90843537414966	72	127
88.90843537414966	89.01292517006803	76	127
89.01292517006803	89.12902494331065	79	127
89.12902494331065	89.25673469387755	78	127
89.25673469387755	89.36122448979592	79	127
89.36122448979592	89.46571428571428	81	127
89.46571428571428	89.57020408163265	79	127
89.57020408163265	89.67469387755102	76	127
89.67469387755102	89.77918367346939	79	127
89.77918367346939	89.88367346938776	77	127
89.88367346938776	89.99977324263038	74	127
89.99977324263038	90.10426303854875	72	127
90.10426303854875	90.20875283446712	76	127
90.20875283446712	90.30160997732426	67	127
90.30160997732426	90.39451247165533	76	127
90.39451247165533	90.4990022675737	67	127
90.4990022675737	90.60349206349207	72	127
90.60349206349207	90.73120181405896	76	127
90.73120181405896	90.83566893424036	79	127
90.83566893424036	90.92857142857143	78	127
90.92857142857143	91.02145124716553	79	127
91.02145124716553	91.13755102040817	81	127
91.13755102040817	91.24204081632654	79	127
91.24204081632654	91.3465306122449	76	127
91.3465306122449	91.4509977324263	79	127
91.4509977324263	91.5671201814059	77	127
91.5671201814059	91.67160997732427	74	127
91.67160997732427	92.08954648526077	72	127
92.08954648526077	92.22888888888889	79	127
92.31015873015873	92.49591836734695	79	127
92.56557823129252	92.69328798185941	79	127
92.75133786848073	92.78616780045351	79	127
92.78616780045351	92.8209977324263	81	127
92.8209977324263	92.85580498866213	79	127
92.85580498866213	92.90226757369615	78	127
92.90226757369615	92.96031746031746	79	127
92.96031746031746	93.11122448979592	81	127
93.16929705215419	93.32022675736961	83	127
93.37827664399093	93.5756462585034	84	127
93.58725623582767	93.68013605442177	88	127
93.7962358276644	93.95877551020408	79	127
94.0168253968254	94.21419501133786	79	127
94.26061224489796	94.4231746031746	79	127
94.46961451247165	94.49281179138322	79	127
94.49281179138322	94.51603174603174	81	127
94.51603174603174	94.5508843537415	79	127
94.5508843537415	94.59732426303854	78	127
94.59732426303854	94.65537414965986	79	127
94.65537414965986	94.79469387755103	81	127
94.84113378684808	95.00365079365079	83	127
95.05011337868481	95.16621315192744	84	127
95.16621315192744	95.28231292517007	76	127
95.28231292517007	95.38680272108843	72	127
95.38680272108843	95.4912925170068	67	127
95.4912925170068	95.59578231292517	64	127
95.59578231292517	95.70027210884354	67	127
95.70027210884354	95.8047619047619	72	127
95.8047619047619	95.897641723356	76	127
95.897641723356	96.00213151927437	78	127
96.00213151927437	96.08340136054422	79	127
96.10662131519274	96.18789115646258	81	127
96.23433106575963	96.32721088435375	79	127
96.36204081632653	96.43170068027212	76	127
96.4665306122449	96.53619047619047	79	127
96.57102040816326	96.62907029478458	77	127
96.66390022675736	96.72195011337868	74	127
96.75678004535148	96.86126984126984	76	127
96.86126984126984	96.96575963718821	72	127
96.96575963718821	97.07024943310658	67	127
97.07024943310658	97.17473922902494	64	127
97.17473922902494	97.2792290249433	60	127
97.2792290249433	97.38371882086167	64	127
97.38371882086167	97.48820861678004	69	127
97.48820861678004	97.59269841269841	72	127
97.59269841269841	97.69718820861678	75	127
97.69718820861678	97.79006802721088	76	127
97.83650793650794	97.90616780045352	77	127
97.9409977324263	98.03387755102041	76	127
98.06870748299319	98.13836734693878	72	127
98.17319727891156	98.24285714285715	76	127
98.27768707482993	98.34734693877552	74	127
98.3821768707483	98.46344671201814	71	127
98.49827664399093	98.62598639455783	72	127
98.62598639455783	98.74208616780045	69	127
98.74208616780045	98.84657596371882	64	127
98.84657596371882	98.96267573696146	60	127
98.96267573696146	99.12521541950113	76	127
99.1948752834467	99.34580498866214	76	127
99.41546485260771	99.56639455782313	76	127
99.62444444444445	99.78698412698412	76	127
99.84503401360544	99.99596371882086	78	127
100.06562358276643	100.19333333333333	80	127
100.25138321995465	100.69256235827665	81	127
100.69256235827665	100.85510204081632	74	127
100.92476190476191	101.08730158730158	74	127
101.1453514739229	101.33111111111111	74	127
101.38916099773243	101.52848072562358	74	127
101.57492063492063	101.7142403628118	76	127
101.76068027210884	101.91160997732426	78	127
101.96965986394558	102.38761904761905	79	127
102.39922902494331	102.60820861678005	73	127
102.60820861678005	102.71269841269842	75	127
102.71269841269842	102.81718820861678	77	127
102.81718820861678	103.24675736961451	78	127
103.24675736961451	103.4673469387755	71	127
103.4673469387755	103.54861678004535	73	127
103.54861678004535	103.65310657596372	75	127
103.65310657596372	104.0710657596372	76	127
104.25682539682539	104.6631746031746	81	127
104.6631746031746	104.76766439909296	83	127
104.76766439909296	104.87215419501133	85	127
104.87215419501133	105.02308390022675	86	127
105.09274376417234	105.5107029478458	79	127
105.52231292517007	105.62680272108844	81	127
105.62680272108844	105.7312925170068	83	127
105.7312925170068	105.88222222222223	85	127
105.94027210884354	106.34662131519275	78	127
106.34662131519275	106.43950113378685	80	127
106.43950113378685	106.54399092970522	82	127
106.54399092970522	106.7065306122449	83	127
106.76458049886621	106.93873015873015	83	127
106.99678004535147	107.22897959183673	82	127
107.22897959183673	107.67015873015873	78	127
107.67015873015873	108.08811791383219	78	127
108.08811791383219	108.50607709750567	78	127
108.51768707482994	108.9356462585034	78	127
108.94725623582767	109.09818594104308	90	127
109.1562358276644	109.31877551020408	90	127
109.3768253968254	109.52775510204081	90	127
109.58580498866213	109.72512471655328	90	127
109.77156462585035	109.93410430839002	90	127
109.98054421768707	110.15469387755103	90	127
110.20113378684808	110.36367346938775	90	127
110.43333333333334	110.58426303854876	90	127
110.64231292517007	110.79324263038549	78	127
110.8512925170068	111.01383219954648	78	127
111.0718820861678	111.22281179138322	78	127
111.28086167800454	111.44340136054421	78	127
111.50145124716553	111.65238095238095	78	127
111.71043083900227	111.84975056689342	78	127
111.90780045351474	112.0471201814059	78	127
112.1051700680272	112.30253968253969	78	127
115.59977324263039	116.28476190476191	63	127
116.28476190476191	116.49374149659864	64	127
116.5053514739229	117.17873015873016	63	127
117.17873015873016	117.3877097505669	64	127
117.39931972789115	118.13074829931973	63	127
118.13074829931973	118.33972789115646	64	127
118.33972789115646	118.5487074829932	63	127
123.04176870748299	123.16947845804988	62	127
123.16947845804988	123.28557823129252	67	127
123.28557823129252	123.39006802721089	71	127
123.39006802721089	123.48294784580499	74	127
123.48294784580499	123.59904761904762	73	127
123.59904761904762	123.71514739229025	74	127
123.71514739229025	123.81963718820862	76	127
123.81963718820862	123.91251700680272	74	127
123.91251700680272	124.01700680272108	71	127
124.01700680272108	124.14471655328798	74	127
124.14471655328798	124.24920634920635	72	127
124.24920634920635	124.33047619047619	69	127
124.33047619047619	124.43496598639456	67	127
124.43496598639456	124.55106575963718	71	127
124.55106575963718	124.65555555555555	62	127
124.65555555555555	124.7368253968254	71	127
124.7368253968254	124.84131519274376	62	127
124.84131519274376	124.95741496598639	67	127
124.95741496598639	125.06190476190476	71	127
125.06190476190476	125.13156462585034	74	127
125.13156462585034	125.22444444444444	73	127
125.22444444444444	125.32893424036281	74	127
125.32893424036281	125.44503401360544	76	127
125.44503401360544	125.5495238095238	74	127
125.5495238095238	125.64240362811792	71	127
125.64240362811792	125.77011337868481	74	127
125.77011337868481	125.88621315192744	72	127
125.88621315192744	126.00231292517007	69	127
126.00231292517007	126.23451247165534	67	127
126.50154195011338	126.68730158730159	74	127
126.74535147392291	126.90789115646258	74	127
126.95433106575963	127.0936507936508	74	127
127.15170068027211	127.17492063492064	74	127
127.17492063492064	127.20975056689342	76	127
127.20975056689342	127.24458049886621	74	127
127.24458049886621	127.30263038548753	73	127
127.30263038548753	127.34907029478458	74	127
127.34907029478458	127.5	76	127
127.55804988662132	127.69736961451247	78	127
127.76702947845806	127.9992290249433	79	127
127.9992290249433	128.11532879818594	83	127
128.20820861678004	128.37074829931973	74	127
128.42879818594105	128.59133786848074	74	127
128.64938775510205	128.80031746031747	74	127
128.85834467120182	128.89319727891157	74	127
128.89319727891157	128.92802721088435	76	127
128.92802721088435	128.9512471655329	74	127
128.9512471655329	128.99768707482994	73	127
128.99768707482994	129.044126984127	74	127
129.044126984127	129.20666666666668	76	127
129.24149659863946	129.39242630385488	78	127
129.43886621315193	129.88002267573697	79	127
129.88002267573697	129.98451247165534	72	127
129.98451247165534	130.06580498866214	71	127
130.08902494331065	130.18190476190478	69	127
130.21673469387756	130.27478458049887	67	127
130.30961451247165	130.41410430839002	66	127
130.41410430839002	130.4837641723356	67	127
130.50698412698412	130.58825396825398	69	127
130.62308390022676	130.69274376417235	71	127
130.72757369614513	130.8320634920635	72	127
130.8320634920635	130.91333333333333	71	127
130.93655328798187	131.0178231292517	69	127
131.0526530612245	131.13392290249433	67	127
131.1687528344671	131.27324263038548	66	127
131.27324263038548	131.35451247165534	67	127
131.37773242630385	131.44739229024944	69	127
131.47061224489795	131.5518820861678	71	127
131.5867120181406	131.69120181405896	72	127
131.69120181405896	131.76086167800455	71	127
131.79569160997733	131.85374149659864	69	127
131.8769387755102	131.958231292517	67	127
131.9930612244898	132.09755102040816	66	127
132.09755102040816	132.17879818594105	67	127
132.2136507936508	132.28328798185942	69	127
132.31814058956917	132.38777777777779	71	127
132.42263038548754	132.5387074829932	72	127
132.5387074829932	132.63160997732427	71	127
132.65482993197278	132.7825396825397	72	127
132.81736961451247	132.91024943310657	71	127
132.9450566893424	133.43269841269841	72	127
133.43269841269841	133.53718820861678	62	127
133.53718820861678	133.64167800453515	67	127
133.64167800453515	133.7577777777778	71	127
133.7577777777778	133.8738775510204	74	127
133.8738775510204	133.97836734693877	73	127
133.97836734693877	134.08285714285714	74	127
134.08285714285714	134.1873469387755	76	127
134.1873469387755	134.30344671201814	74	127
134.30344671201814	134.41954648526078	71	127
134.41954648526078	134.52403628117915	74	127
134.52403628117915	134.64013605442176	72	127
134.64013605442176	134.74462585034013	69	127
134.74462585034013	134.86072562358277	67	127
134.86072562358277	134.96521541950113	71	127
134.96521541950113	135.0697052154195	62	127
135.0697052154195	135.17419501133787	71	127
135.17419501133787	135.27868480725624	62	127
135.27868480725624	135.3831746031746	67	127
135.3831746031746	135.46444444444444	71	127
135.46444444444444	135.5689342403628	74	127
135.5689342403628	135.67342403628118	73	127
135.67342403628118	135.7895238095238	74	127
135.7895238095238	135.89401360544218	76	127
135.89401360544218	136.01011337868482	74	127
136.01011337868482	136.10299319727892	71	127
136.10299319727892	136.2074829931973	74	127
136.2074829931973	136.31197278911566	72	127
136.31197278911566	136.41646258503403	69	127
136.41646258503403	136.83439909297053	67	127
136.83439909297053	136.93891156462584	62	127
136.93891156462584	137.0434013605442	67	127
137.0434013605442	137.14789115646258	71	127
137.14789115646258	137.25238095238095	74	127
137.25238095238095	137.36848072562358	73	127
137.36848072562358	137.43814058956917	74	127
137.43814058956917	137.53102040816327	76	127
137.53102040816327	137.63551020408164	74	127
137.63551020408164	137.76321995464852	71	127
137.76321995464852	137.8677097505669	74	127
137.8677097505669	137.97219954648526	72	127
137.97219954648526	138.0882993197279	69	127
138.0882993197279	138.21600907029477	67	127
138.21600907029477	138.32049886621314	71	127
138.32049886621314	138.4249886621315	62	127
138.4249886621315	138.52947845804988	71	127
138.52947845804988	138.62233560090704	62	127
138.62233560090704	138.7152380952381	67	127
138.7152380952381	138.81972789115648	71	127
138.81972789115648	138.92421768707484	74	127
138.92421768707484	139.02868480725624	73	127
139.02868480725624	139.1215873015873	74	127
139.1215873015873	139.2492970521542	76	127
139.2492970521542	139.35378684807256	74	127
139.35378684807256	139.45827664399093	71	127
139.45827664399093	139.5627664399093	74	127
139.5627664399093	139.67886621315193	72	127
139.67886621315193	139.7833560090703	69	127
139.7833560090703	140.00392290249434	67	127
140.66569160997733	140.7818140589569	67	127
140.7818140589569	140.88630385487528	71	127
140.88630385487528	140.99079365079365	69	127
140.99079365079365	141.09528344671202	66	127
141.09528344671202	141.19977324263039	64	127
141.19977324263039	141.30426303854875	67	127
141.30426303854875	141.40875283446712	65	127
141.40875283446712	141.5132426303855	62	127
141.5132426303855	141.61773242630386	64	127
141.61773242630386	141.72222222222223	67	127
141.72222222222223	141.8267120181406	69	127
141.8267120181406	141.93120181405897	71	127
141.93120181405897	142.02408163265306	72	127
142.02408163265306	142.11696145124716	74	127
142.11696145124716	142.2330612244898	76	127
142.2330612244898	142.33755102040817	78	127
142.33755102040817	142.44204081632654	79	127
142.44204081632654	142.5465306122449	77	127
142.5465306122449	142.65102040816328	76	127
142.65102040816328	142.77873015873016	81	127
142.77873015873016	142.87160997732425	71	127
142.87160997732425	142.97609977324262	79	127
142.97609977324262	143.09219954648526	69	127
143.09219954648526	143.2082993197279	78	127
143.2082993197279	143.32437641723357	71	127
143.32437641723357	143.44049886621315	86	127
143.44049886621315	143.54498866213152	84	127
143.54498866213152	143.67269841269842	81	127
143.67269841269842	143.7771882086168	79	127
143.7771882086168	143.88167800453516	83	127
143.88167800453516	143.98614512471656	81	127
143.98614512471656	144.09063492063493	78	127
144.09063492063493	144.1951247165533	76	127
144.1951247165533	144.31124716553288	79	127
144.31124716553288	144.41573696145124	78	127
144.41573696145124	144.5202267573696	74	127
144.5202267573696	144.63632653061225	72	127
144.63632653061225	144.74081632653062	76	127
144.74081632653062	144.845306122449	74	127
144.845306122449	144.94979591836736	71	127
144.94979591836736	145.05428571428573	72	127
145.05428571428573	145.1587755102041	74	127
145.1587755102041	145.26326530612246	76	127
145.26326530612246	145.36773242630386	74	127
145.36773242630386	145.47222222222223	72	127
145.47222222222223	145.5767120181406	71	127
145.5767120181406	145.6812244897959	69	127
145.6812244897959	145.78571428571428	67	127
145.78571428571428	146.33138321995466	66	127
146.33138321995466	146.43587301587303	67	127
146.43587301587303	146.5403628117914	69	127
146.5403628117914	146.6448299319728	71	127
146.6448299319728	146.76095238095238	72	127
146.76095238095238	146.86544217687074	74	127
146.86544217687074	146.95832199546484	76	127
146.95832199546484	147.0628117913832	74	127
147.0628117913832	147.17891156462585	72	127
147.17891156462585	147.2950113378685	71	127
147.2950113378685	147.39950113378686	69	127
147.39950113378686	147.50399092970522	67	127
147.50399092970522	148.06126984126985	66	127
148.06126984126985	148.16575963718822	67	127
148.16575963718822	148.27024943310659	69	127
148.27024943310659	148.37473922902495	71	127
148.37473922902495	148.47922902494332	72	127
148.47922902494332	148.5837188208617	74	127
148.5837188208617	148.6765986394558	76	127
148.6765986394558	148.78108843537416	74	127
148.78108843537416	148.88557823129253	72	127
148.88557823129253	149.0016553287982	71	127
149.0016553287982	149.1061678004535	69	127
149.1061678004535	149.21065759637187	67	127
149.21065759637187	149.31514739229024	66	127
149.31514739229024	149.43124716553288	67	127
149.43124716553288	149.53573696145125	69	127
149.53573696145125	149.64022675736962	71	127
149.64022675736962	149.744716553288	72	127
149.744716553288	149.84920634920636	71	127
149.84920634920636	149.95369614512472	69	127
149.95369614512472	150.0581859410431	67	127
150.0581859410431	150.16267573696146	66	127
150.16267573696146	150.26716553287983	67	127
150.26716553287983	150.3716553287982	69	127
150.3716553287982	150.4877551020408	71	127
150.4877551020408	150.59224489795918	72	127
150.59224489795918	150.67351473922903	71	127
150.67351473922903	150.76639455782313	69	127
150.76639455782313	150.8708843537415	67	127
150.8708843537415	150.97537414965987	66	127
150.97537414965987	151.09145124716554	67	127
151.09145124716554	151.20757369614512	66	127
151.20757369614512	151.3120634920635	67	127
151.3120634920635	151.42816326530613	66	127
151.42816326530613	151.54426303854876	67	127
151.54426303854876	151.67197278911564	66	127
151.67197278911564	151.78807256235828	67	127
151.78807256235828	152.0318820861678	66	127
152.28730158730158	152.5659410430839	78	127
152.8445804988662	156.01410430839002	84	127
159.8221768707483	159.90344671201814	70	127
159.93825396825397	160.0079365079365	75	127
160.04274376417234	160.12403628117914	79	127
160.14725623582765	160.2285260770975	82	127
160.2633560090703	160.36784580498866	81	127
160.36784580498866	160.44909297052155	82	127
160.47233560090703	160.55358276643992	84	127
160.58843537414967	160.69292517006804	82	127
160.72775510204082	160.8090022675737	80	127
160.84385487528345	160.91351473922902	79	127
160.94834467120182	161.02961451247165	80	127
161.0528344671202	161.13410430839002	77	127
161.1689342403628	161.22698412698412	75	127
161.26181405895693	161.34308390022676	79	127
161.36628117913833	161.44757369614513	70	127
161.4824036281179	161.5520634920635	79	127
161.57526077097506	161.59850340136055	70	127
161.6217006802721	161.70299319727891	75	127
161.7378231292517	161.80748299319728	79	127
161.84231292517006	161.93519274376416	82	127
161.97002267573697	162.06290249433107	81	127
162.06290249433107	162.1441723356009	82	127
162.16739229024944	162.24866213151927	84	127
162.28349206349208	162.35315192743764	82	127
162.38798185941044	162.46925170068027	80	127
162.49244897959184	162.57374149659864	79	127
162.60857142857142	162.678231292517	80	127
162.73628117913833	162.81755102040816	77	127
162.8407709750567	163.06136054421768	75	127
163.29356009070295	163.47931972789115	82	127
163.53736961451247	163.6882993197279	82	127
163.7463492063492	163.9088888888889	82	127
163.96693877551022	164.001768707483	82	127
164.001768707483	164.03659863945578	84	127
164.03659863945578	164.07142857142858	82	127
164.07142857142858	164.12945578231293	81	127
164.12945578231293	164.1875283446712	82	127
164.1875283446712	164.32684807256237	84	127
164.39650793650793	164.54743764172335	86	127
164.60548752834467	164.83768707482994	87	127
164.83768707482994	164.95378684807255	91	127
165.0698866213152	165.20920634920634	82	127
165.27886621315193	165.42979591836735	82	127
165.48784580498867	165.65038548752835	82	127
165.70843537414967	165.74326530612245	82	127
165.74326530612245	165.77809523809523	84	127
165.77809523809523	165.81292517006804	82	127
165.81292517006804	165.89419501133787	81	127
165.89419501133787	165.9522448979592	82	127
165.9522448979592	166.11478458049888	84	127
166.16122448979593	166.31215419501135	86	127
166.37020408163266	166.81138321995465	87	127
167.69374149659865	167.85628117913834	82	127
167.9259410430839	168.10009070294785	82	127
168.15814058956917	168.34390022675737	84	127
168.4019501133787	168.57607709750567	86	127
168.63414965986394	168.8082993197279	87	127
169.51650793650794	169.66743764172335	79	127
169.7487074829932	169.91124716553287	79	127
169.9692970521542	170.14344671201815	81	127
170.20149659863947	170.36401360544218	83	127
170.42208616780044	170.58462585034013	84	127
172.2912925170068	172.46544217687074	58	127
172.52349206349206	172.70925170068028	58	127
172.76727891156463	173.2084807256236	59	127
173.2084807256236	173.359410430839	60	127
173.41746031746032	173.60321995464852	60	127
173.6728798185941	173.78895691609978	59	127
173.78895691609978	173.87024943310658	62	127
173.90507936507936	173.98634920634922	67	127
174.00956916099773	174.1140589569161	71	127
174.13727891156464	174.31142857142856	74	127
174.36947845804988	174.5204081632653	74	127
174.57845804988662	174.7758276643991	74	127
174.81063492063493	174.9267573696145	74	127
174.98480725623583	175.17054421768708	76	127
175.22861678004534	175.36793650793652	78	127
175.42596371882087	175.86716553287982	79	127
175.86716553287982	176.05292517006802	72	127
176.11097505668934	176.14580498866212	72	127
176.14580498866212	176.20385487528344	74	127
176.20385487528344	176.23868480725625	72	127
176.23868480725625	176.2851247165533	71	127
176.2851247165533	176.34317460317462	72	127
176.34317460317462	176.81918367346938	74	127
176.81918367346938	176.9701133786848	66	127
177.0397732426304	177.08621315192744	66	127
177.08621315192744	177.12104308390022	67	127
177.12104308390022	177.15587301587303	66	127
177.15587301587303	177.21390022675737	64	127
177.21390022675737	177.2835827664399	66	127
177.2835827664399	177.39968253968254	67	127
177.39968253968254	177.5041723356009	71	127
177.5041723356009	177.64349206349206	74	127
177.64349206349206	177.74798185941043	79	127
177.74798185941043	177.8524716553288	78	127
177.8524716553288	177.93371882086169	79	127
177.9453514739229	178.038231292517	81	127
178.06145124716554	178.14272108843537	79	127
178.18913832199547	178.29365079365078	83	127
178.29365079365078	178.36331065759637	79	127
178.39814058956915	178.479410430839	74	127
178.50263038548752	178.59548752834468	71	127
178.63034013605443	178.7348299319728	72	127
178.7348299319728	178.80448979591836	69	127
178.83931972789117	178.920589569161	66	127
178.95539682539683	179.03668934240363	60	127
179.0715192743764	179.3037188208617	59	127
179.5475283446712	179.62879818594104	62	127
179.62879818594104	179.7332879818594	67	127
179.7332879818594	179.84938775510204	71	127
179.84938775510204	179.9538775510204	74	127
179.9538775510204	180.05836734693878	73	127
180.05836734693878	180.16285714285715	74	127
180.16285714285715	180.26734693877552	76	127
180.26734693877552	180.40666666666667	74	127
180.40666666666667	180.5227664399093	71	127
180.5227664399093	180.63884353741497	74	127
180.63884353741497	180.74333333333334	72	127
180.74333333333334	180.85945578231292	69	127
180.85945578231292	180.9639455782313	67	127
180.9639455782313	181.06843537414966	71	127
181.06843537414966	181.17292517006803	62	127
181.17292517006803	181.2774149659864	71	127
181.2774149659864	181.39351473922903	62	127
181.39351473922903	181.5095918367347	67	127
181.5095918367347	181.61408163265307	71	127
181.61408163265307	181.71859410430838	74	127
181.71859410430838	181.83469387755102	73	127
181.83469387755102	181.9391836734694	74	127
181.9391836734694	182.04367346938776	76	127
182.04367346938776	182.14816326530612	74	127
182.14816326530612	182.28748299319727	71	127
182.28748299319727	182.4035827664399	74	127
182.4035827664399	182.50807256235828	72	127
182.50807256235828	182.61256235827665	69	127
182.61256235827665	182.80993197278912	67	127
182.82154195011339	183.03052154195012	74	127
182.82154195011339	183.03052154195012	62	127
183.2511111111111	183.4717006802721	74	127
183.2511111111111	183.4717006802721	62	127
183.6922902494331	183.92448979591836	74	127
183.6922902494331	183.92448979591836	62	127
184.1334693877551	184.36566893424038	62	127
184.1334693877551	184.36566893424038	74	127
184.58625850340135	184.7952380952381	74	127
184.58625850340135	184.7952380952381	62	127
184.99260770975056	185.2364172335601	74	127
184.99260770975056	185.2364172335601	62	127
185.46861678004535	185.70079365079366	62	127
185.46861678004535	185.70079365079366	74	127
185.9214058956916	186.15360544217688	62	127
185.9214058956916	186.15360544217688	74	127
186.16521541950112	186.37419501133786	62	127
186.16521541950112	186.37419501133786	74	127
186.6180045351474	186.83859410430838	74	127
186.83859410430838	186.93145124716554	76	127
186.93145124716554	187.0243537414966	78	127
187.0243537414966	187.18687074829933	79	127
187.23331065759638	187.3726530612245	79	127
187.43070294784582	187.48873015873016	81	127
187.48873015873016	187.54680272108843	83	127
187.54680272108843	187.59321995464853	81	127
187.59321995464853	187.66290249433106	83	127
187.66290249433106	187.73256235827665	81	127
187.73256235827665	187.8022222222222	79	127
187.8022222222222	187.8718820861678	81	127
187.8718820861678	188.1040589569161	83	127
188.11569160997732	188.2201814058957	79	127
188.32467120181406	188.5336507936508	74	127
188.54526077097506	188.63814058956916	76	127
188.63814058956916	188.74263038548753	78	127
188.74263038548753	188.90517006802722	79	127
188.96321995464854	189.11414965986395	79	127
189.17219954648527	189.23022675736962	74	127
189.23022675736962	189.27666666666667	76	127
189.27666666666667	189.33473922902493	74	127
189.33473922902493	189.38115646258504	76	127
189.38115646258504	189.4392290249433	74	127
189.4392290249433	189.5088888888889	73	127
189.5088888888889	189.5669387755102	74	127
189.5669387755102	189.77591836734695	71	127
189.98489795918368	190.03133786848073	74	127
190.03133786848073	190.12421768707483	76	127
190.12421768707483	190.18226757369615	74	127
190.18226757369615	190.2287074829932	76	127
190.2287074829932	190.30997732426303	74	127
190.30997732426303	190.40285714285713	73	127
190.40285714285713	190.47251700680272	74	127
190.47251700680272	190.68149659863946	71	127
190.90208616780046	191.00657596371883	76	127
191.00657596371883	191.06462585034015	74	127
191.09945578231293	191.18072562358276	73	127
191.2039455782313	191.28521541950113	74	127
191.32004535147394	191.42453514739228	72	127
191.42453514739228	191.49419501133787	71	127
191.52902494331065	191.59868480725623	70	127
191.633514739229	191.7031746031746	71	127
191.73800453514738	191.84249433106575	76	127
191.84249433106575	191.93537414965985	74	127
191.98181405895693	192.06308390022676	73	127
192.0863038548753	192.1791836734694	74	127
192.2024036281179	192.295283446712	72	127
192.295283446712	192.37655328798186	71	127
192.39977324263037	192.48104308390023	70	127
192.50426303854874	192.5855328798186	71	127
192.6087528344671	192.71324263038548	76	127
192.71324263038548	192.82934240362812	74	127
192.85256235827666	192.92222222222222	73	127
192.957052154195	193.01510204081632	74	127
193.03832199546486	193.25891156462586	71	127
193.44467120181406	193.64204081632653	74	127
193.85102040816327	194.0832199546485	79	127
194.32702947845806	194.54761904761904	83	127
194.79142857142858	195.01201814058956	86	127
195.23260770975057	195.5112471655329	78	127
195.23260770975057	195.5112471655329	62	127
195.23260770975057	195.5112471655329	69	127
195.7898866213152	196.09174603174603	79	127
195.7898866213152	196.09174603174603	71	127
195.7898866213152	196.09174603174603	62	127
