# onset,offset,note,velocity
2.5998639455782313	3.2964625850340137	65	127
3.2964625850340137	4.027891156462585	62	127
4.039501133786848	5.548775510204082	58	127
5.560408163265306	6.257006802721088	55	127
6.268616780045352	7.708253968253969	58	127
7.731473922902494	8.451292517006802	63	127
8.451292517006802	8.846031746031747	63	127
8.846031746031747	9.031791383219955	68	127
9.031791383219955	9.229160997732427	67	127
9.240770975056689	9.983809523809525	67	127
9.995419501133787	10.668798185941043	63	127
10.680408163265307	11.435056689342403	67	127
11.45827664399093	12.22453514739229	65	127
12.22453514739229	12.967573696145125	62	127
12.979183673469388	14.140181405895692	65	127
14.140181405895692	14.534920634920635	62	127
14.534920634920635	15.3940589569161	63	127
15.405668934240364	16.868526077097506	63	127
15.405668934240364	16.868526077097506	60	127
16.88013605442177	17.716054421768707	60	127
17.716054421768707	18.168843537414965	58	127
18.18045351473923	18.71451247165533	56	127
18.72612244897959	19.155691609977325	58	127
19.167301587301587	20.003219954648525	55	127
21.024897959183672	21.686666666666667	67	127
21.69827664399093	22.95215419501134	68	127
22.95215419501134	23.12628117913832	65	127
23.12628117913832	23.660362811791384	70	127
23.660362811791384	23.88095238095238	62	127
23.88095238095238	25.33219954648526	63	127
25.343809523809522	25.726938775510202	65	127
25.73854875283447	25.91269841269841	68	127
25.91269841269841	26.075238095238095	67	127
26.086848072562358	27.561315192743763	67	127
27.561315192743763	27.630975056689344	68	127
27.630975056689344	27.689024943310656	70	127
27.689024943310656	27.74707482993197	68	127
27.74707482993197	27.863174603174603	67	127
27.863174603174603	27.96766439909297	68	127
27.96766439909297	28.176643990929705	72	127
28.176643990929705	28.35079365079365	70	127
28.362403628117914	29.813650793650794	70	127
29.825260770975056	30.022630385487528	75	127
30.022630385487528	30.208390022675736	74	127
30.208390022675736	30.405759637188208	72	127
30.405759637188208	30.591519274376417	70	127
30.60312925170068	32.12403628117914	70	127
32.1356462585034	32.274965986394555	70	127
32.274965986394555	32.565215419501136	68	127
32.565215419501136	32.78578231292517	67	127
32.78578231292517	33.07605442176871	68	127
33.08766439909297	33.15732426303855	67	127
33.15732426303855	33.22698412698413	68	127
33.22698412698413	33.296621315192745	70	127
33.296621315192745	33.85392290249433	68	127
33.85392290249433	34.72467120181406	67	127
34.736281179138324	34.8059410430839	65	127
34.8059410430839	34.87560090702948	67	127
34.87560090702948	34.95684807256236	65	127
34.95684807256236	35.061360544217685	64	127
35.061360544217685	35.2471201814059	65	127
35.2471201814059	35.4328798185941	68	127
35.4677097505669	35.71149659863946	72	127
35.71149659863946	36.117868480725626	72	127
36.14108843537415	37.232403628117915	63	127
37.232403628117915	37.36011337868481	65	127
37.36011337868481	37.4878231292517	63	127
37.4878231292517	37.60394557823129	62	127
37.60394557823129	37.70843537414966	63	127
37.70843537414966	38.346984126984125	67	127
38.346984126984125	38.5443537414966	65	127
38.55596371882086	39.42671201814059	63	127
49.0978231292517	49.829251700680274	67	127
49.829251700680274	51.187619047619044	67	127
51.199229024943314	51.82616780045351	68	127
51.82616780045351	52.023537414965986	71	127
52.023537414965986	53.602494331065756	72	127
53.602494331065756	54.2178231292517	70	127
54.2178231292517	54.426802721088436	69	127
54.4384126984127	55.70390022675737	67	127
55.70390022675737	55.796780045351476	70	127
55.796780045351476	56.30761904761905	69	127
56.30761904761905	56.50498866213152	67	127
56.50498866213152	57.22480725623583	67	127
58.513514739229024	58.583174603174605	70	127
58.583174603174605	59.059183673469384	69	127
59.070793650793654	59.2449433106576	67	127
59.25655328798186	60.03442176870748	67	127
61.29990929705215	61.39278911564626	70	127
61.39278911564626	61.92684807256236	69	127
61.92684807256236	62.1009977324263	67	127
62.1009977324263	62.611836734693874	67	127
62.69310657596372	62.77437641723356	70	127
62.77437641723356	63.2968253968254	69	127
63.30843537414966	63.47097505668934	67	127
63.4825850340136	63.94698412698413	67	127
64.05145124716553	64.13274376417233	70	127
64.13274376417233	64.73646258503402	69	127
64.74807256235827	64.94541950113378	67	127
64.95705215419501	65.79297052154195	67	127
70.14671201814059	70.8665306122449	65	127
70.87814058956916	71.56312925170069	62	127
71.56312925170069	73.04918367346939	58	127
73.06081632653061	73.80385487528345	55	127
73.81544217687075	75.3247619047619	58	127
75.3247619047619	76.06780045351474	63	127
76.079410430839	76.50897959183673	63	127
76.50897959183673	76.72954648526077	68	127
76.72954648526077	76.93854875283446	67	127
76.95015873015873	77.65836734693877	67	127
77.66997732426304	78.44784580498866	63	127
78.45945578231293	79.16766439909297	67	127
79.16766439909297	79.87587301587301	65	127
79.88748299319728	80.63052154195012	62	127
80.63052154195012	81.83795918367348	65	127
81.83795918367348	82.2675283446712	62	127
82.2675283446712	83.10344671201814	63	127
83.10344671201814	84.55469387755102	60	127
83.10344671201814	84.55469387755102	63	127
84.55469387755102	85.54154195011338	60	127
85.55315192743764	85.94789115646259	58	127
85.95950113378684	86.57482993197279	56	127
86.58643990929706	87.05083900226758	58	127
87.06244897959184	87.85192743764172	55	127
88.69945578231292	89.38444444444444	67	127
89.39605442176871	90.89374149659864	67	127
90.89374149659864	91.54390022675737	68	127
91.54390022675737	91.76448979591837	71	127
91.77609977324263	93.33183673469388	72	127
93.34342403628118	94.06326530612245	70	127
94.06326530612245	94.24902494331066	69	127
94.26061224489796	95.76993197278911	67	127
95.78154195011338	95.87442176870748	70	127
95.87442176870748	96.50136054421769	69	127
96.50136054421769	96.69873015873016	67	127
96.71034013605443	97.000589569161	67	127
97.0934693877551	97.3488888888889	79	127
97.45337868480726	97.55786848072562	79	127
97.55786848072562	97.79006802721088	79	127
97.90616780045352	98.14997732426303	79	127
98.27768707482993	98.55632653061224	79	127
98.66081632653061	98.92784580498866	79	127
99.04394557823129	99.31097505668934	79	127
99.40385487528344	99.65927437641723	79	127
99.65927437641723	99.82181405895692	79	127
99.92630385487529	100.2049433106576	79	127
100.30943310657597	100.62290249433107	79	127
100.76222222222222	101.08730158730158	79	127
101.1801814058957	101.43560090702948	79	127
101.50526077097506	101.76068027210884	79	127
101.86517006802721	102.07414965986395	79	127
102.120589569161	102.36439909297052	79	127
102.46888888888888	102.67786848072562	79	127
102.78235827664399	103.0609977324263	79	127
103.15387755102041	103.38607709750566	79	127
103.87369614512471	104.23360544217687	79	127
104.58190476190477	104.91859410430838	78	127
104.93020408163265	105.40621315192743	79	127
105.48748299319728	105.58036281179139	82	127
105.58036281179139	106.10281179138322	81	127
106.10281179138322	106.27696145124716	79	127
106.28857142857143	106.68331065759637	79	127
107.39151927437642	107.72820861678005	78	127
108.06489795918367	108.26226757369615	79	127
108.2738775510204	108.36675736961452	82	127
108.36675736961452	108.8427664399093	81	127
108.8427664399093	109.02852607709751	79	127
109.02852607709751	109.41165532879819	79	127
110.11986394557823	110.44494331065759	78	127
110.77002267573697	111.09510204081633	79	127
111.42018140589569	111.75687074829932	78	127
112.11678004535148	112.44185941043084	79	127
112.91786848072563	113.37065759637188	78	127
113.38226757369614	113.80022675736961	79	127
113.80022675736961	114.74063492063492	67	127
114.75224489795919	115.64621315192744	67	127
115.6578231292517	116.73755102040816	67	127
116.74916099773243	116.96975056689342	66	127
116.96975056689342	117.22517006802721	67	127
117.22517006802721	117.4457596371882	66	127
117.4457596371882	117.71278911564626	67	127
117.71278911564626	117.96820861678005	66	127
117.96820861678005	118.21201814058956	67	127
118.21201814058956	118.4558276643991	66	127
118.4558276643991	118.72285714285714	67	127
118.72285714285714	119.05954648526077	66	127
119.05954648526077	119.34979591836735	67	127
119.3614058956916	120.6849433106576	68	127
120.6849433106576	120.92875283446712	65	127
120.92875283446712	121.59052154195011	70	127
121.59052154195011	121.77628117913832	62	127
121.77628117913832	123.23913832199547	63	127
123.25074829931972	123.6338775510204	65	127
123.6338775510204	123.83124716553289	68	127
123.83124716553289	124.02861678004535	67	127
124.04022675736961	125.64240362811792	67	127
125.65401360544217	125.71206349206349	68	127
125.71206349206349	125.78172335600907	70	127
125.78172335600907	125.83977324263039	68	127
125.83977324263039	125.93265306122449	67	127
125.93265306122449	126.03714285714285	68	127
126.03714285714285	126.22290249433107	72	127
126.22290249433107	126.40866213151928	70	127
126.40866213151928	127.88312925170068	70	127
127.89473922902495	128.09208616780046	75	127
128.09208616780046	128.2894784580499	74	127
128.2894784580499	128.49843537414966	72	127
128.49843537414966	128.67260770975057	70	127
128.74226757369615	130.34444444444443	70	127
130.34444444444443	130.46054421768707	70	127
130.46054421768707	130.80884353741496	68	127
130.80884353741496	130.99460317460318	67	127
131.00619047619048	131.27324263038548	68	127
131.28485260770975	131.38934240362812	67	127
131.38934240362812	131.4938321995465	68	127
131.4938321995465	131.5518820861678	70	127
131.5518820861678	132.15560090702948	68	127
132.15560090702948	133.0263492063492	67	127
133.03795918367348	133.14244897959185	65	127
133.14244897959185	133.2004761904762	67	127
133.2004761904762	133.25854875283446	65	127
133.25854875283446	133.36303854875283	64	127
133.36303854875283	133.53718820861678	65	127
133.53718820861678	133.74616780045352	68	127
133.7577777777778	134.02480725623582	72	127
134.0364172335601	134.43113378684808	72	127
134.4427664399093	135.5573015873016	63	127
135.58054421768708	135.708231292517	65	127
135.708231292517	135.80113378684808	63	127
135.80113378684808	135.90562358276645	62	127
135.90562358276645	136.11458049886622	63	127
136.11458049886622	136.7995918367347	67	127
136.81120181405896	137.00857142857143	65	127
137.0201814058957	137.98380952380953	63	127
139.17963718820863	140.0387755102041	70	127
140.0503628117914	140.83986394557823	67	127
140.8514739229025	142.07052154195011	70	127
142.07052154195011	142.43043083900227	75	127
142.44204081632654	143.16185941043085	75	127
143.16185941043085	144.183537414966	74	127
144.183537414966	144.41573696145124	75	127
144.42734693877551	144.49698412698413	74	127
144.49698412698413	145.79732426303855	77	127
145.80893424036282	146.07596371882087	74	127
146.30816326530612	146.48231292517008	70	127
146.48231292517008	147.2253514739229	70	127
147.23696145124717	147.59687074829932	75	127
147.98	148.22380952380954	70	127
148.46761904761905	148.65337868480725	68	127
148.65337868480725	148.89716553287982	67	127
149.07133786848073	149.21065759637187	68	127
149.21065759637187	149.45446712018142	70	127
149.6518367346939	149.83759637188209	72	127
149.83759637188209	150.1162358276644	74	127
150.34843537414966	150.52258503401362	75	127
150.5341723356009	151.1843537414966	75	127
151.1959410430839	152.20603174603175	74	127
152.20603174603175	152.51950113378686	75	127
152.5311111111111	152.71687074829933	76	127
152.71687074829933	152.90263038548753	77	127
152.9142403628118	153.06517006802721	76	127
153.06517006802721	153.21609977324263	77	127
153.21609977324263	153.3902494331066	76	127
153.3902494331066	153.52956916099774	77	127
153.52956916099774	153.68049886621316	79	127
153.68049886621316	153.8198185941043	77	127
153.83142857142857	154.01718820861677	75	127
154.01718820861677	154.2145351473923	74	127
154.2145351473923	154.37709750566893	72	127
154.37709750566893	154.52802721088435	70	127
154.53963718820862	154.71378684807257	70	127
154.71378684807257	154.864716553288	75	127
156.79197278911565	163.49092970521542	58	127
156.79197278911565	158.68439909297052	67	127
158.6960090702948	160.7974149659864	68	127
160.8090022675737	162.1441723356009	62	127
162.15578231292517	162.82916099773243	65	127
162.8407709750567	163.49092970521542	67	127
164.84929705215418	169.65582766439908	58	127
164.84929705215418	166.93907029478459	67	127
166.93907029478459	168.9592290249433	68	127
168.97083900226758	169.65582766439908	65	127
169.66743764172335	170.34081632653061	56	127
169.66743764172335	170.34081632653061	62	127
170.34081632653061	171.13027210884354	62	127
170.34081632653061	171.13027210884354	56	127
171.14190476190475	171.69918367346938	55	127
171.14190476190475	171.69918367346938	63	127
171.69918367346938	172.09392290249434	62	127
172.12875283446712	172.37256235827664	63	127
172.4538321995465	172.65120181405896	66	127
172.74408163265306	172.90662131519275	63	127
172.99950113378685	173.1271882086168	70	127
173.16204081632654	173.31297052154196	66	127
173.3942403628118	173.5219501133787	75	127
173.59160997732425	173.800589569161	70	127
173.89344671201815	174.7409977324263	78	127
174.75260770975058	175.4724263038549	78	127
175.48403628117913	176.18063492063493	78	127
176.2967120181406	176.4012244897959	78	127
176.4012244897959	177.10943310657598	77	127
177.10943310657598	177.72473922902495	77	127
177.73637188208616	177.9221315192744	75	127
177.9453514739229	178.5142403628118	74	127
178.5142403628118	178.69997732426305	77	127
178.71160997732426	179.51269841269843	75	127
179.52430839002267	180.29056689342403	75	127
180.3021768707483	181.17292517006803	78	127
181.17292517006803	181.4283446712018	77	127
181.43995464852608	181.67215419501133	58	127
181.67215419501133	181.8463038548753	57	127
181.9391836734694	182.11333333333334	58	127
182.1829931972789	182.3455328798186	60	127
182.4384126984127	182.60095238095238	62	127
182.67061224489797	182.8447619047619	63	127
182.91442176870748	183.12340136054422	64	127
183.21628117913832	183.42526077097506	65	127
183.52975056689343	183.77356009070294	66	127
183.77356009070294	183.9477097505669	58	127
184.02897959183673	184.21473922902496	58	127
184.30761904761906	184.55142857142857	58	127
184.55142857142857	184.72557823129253	59	127
184.81845804988663	184.95777777777778	58	127
185.03902494331066	185.30607709750566	58	127
185.30607709750566	185.4918367346939	59	127
185.57310657596372	185.7356462585034	58	127
185.80528344671202	186.0491156462585	56	127
186.0491156462585	186.21163265306123	59	127
186.2697052154195	186.43224489795918	56	127
186.52512471655328	186.7224716553288	56	127
186.7224716553288	186.8966439909297	59	127
186.9778911564626	187.1520634920635	56	127
187.22172335600908	187.47714285714287	56	127
187.47714285714287	187.63968253968255	58	127
187.6977097505669	187.83705215419502	56	127
187.91832199546485	188.17374149659864	58	127
188.17374149659864	188.30145124716555	59	127
188.3711111111111	188.5104081632653	58	127
188.5917006802721	188.83551020408163	58	127
188.83551020408163	188.99804988662132	59	127
189.07931972789115	189.26507936507937	58	127
189.33473922902493	189.601768707483	58	127
189.601768707483	189.77591836734695	63	127
189.8455782312925	189.98489795918368	58	127
190.0661678004535	190.30997732426303	58	127
190.30997732426303	190.49573696145126	62	127
190.5770068027211	190.76276643990929	58	127
190.83242630385487	191.05301587301588	58	127
191.05301587301588	191.2039455782313	70	127
191.27360544217686	191.44775510204082	58	127
191.52902494331065	191.76122448979592	58	127
191.76122448979592	191.9237641723356	70	127
192.0166439909297	192.2024036281179	58	127
192.2720634920635	192.50426303854874	58	127
192.50426303854874	192.7016326530612	62	127
192.78290249433107	192.957052154195	58	127
193.06154195011337	193.32857142857142	58	127
193.32857142857142	193.51433106575965	70	127
193.5839909297052	193.75814058956917	58	127
193.839410430839	194.10643990929705	58	127
194.10643990929705	194.23414965986396	70	127
194.2457596371882	194.4082993197279	58	127
194.47795918367348	194.66371882086167	58	127
194.66371882086167	194.8146485260771	62	127
194.89591836734695	195.07006802721088	58	127
195.13972789115647	195.40675736961452	58	127
195.40675736961452	195.59251700680272	70	127
195.6621768707483	195.80149659863946	58	127
195.85954648526078	196.1033560090703	58	127
196.1033560090703	196.25428571428571	59	127
196.3239455782313	196.48648526077096	58	127
196.56775510204082	196.81156462585034	58	127
196.81156462585034	196.9857142857143	70	127
197.06698412698412	197.27596371882086	58	127
197.3224036281179	197.5546031746032	58	127
197.5546031746032	197.72875283446712	59	127
197.7984126984127	197.94934240362812	58	127
198.01900226757368	198.25120181405896	58	127
198.25120181405896	198.43696145124716	70	127
198.50662131519275	198.7039909297052	58	127
198.82009070294785	203.31315192743764	58	127
203.3247619047619	203.68467120181407	62	127
203.68467120181407	204.06780045351474	63	127
204.06780045351474	204.4857596371882	60	127
204.4857596371882	204.89210884353741	58	127
204.89210884353741	205.3681179138322	56	127
205.37972789115645	206.07632653061225	56	127
205.37972789115645	206.07632653061225	62	127
210.25591836734694	210.9989569160998	65	127
211.01056689342403	211.7419954648526	62	127
211.7419954648526	213.20485260770974	58	127
213.216462585034	213.98272108843537	55	127
213.99433106575964	215.59650793650795	58	127
215.59650793650795	216.35115646258504	63	127
216.3627664399093	216.7691156462585	63	127
216.7691156462585	216.9897052154195	68	127
216.9897052154195	217.18707482993196	67	127
217.19868480725623	217.94172335600908	67	127
217.95333333333335	218.6847619047619	63	127
218.69637188208617	219.46263038548753	67	127
219.46263038548753	220.11278911564625	65	127
220.12439909297052	220.80938775510205	62	127
220.8209977324263	221.95877551020408	65	127
221.95877551020408	222.37673469387755	62	127
222.37673469387755	223.20104308390023	63	127
223.20104308390023	224.93092970521542	60	127
223.20104308390023	224.93092970521542	63	127
224.93092970521542	225.67396825396824	60	127
225.6855782312925	226.0687074829932	58	127
226.08031746031747	226.6375963718821	56	127
226.64920634920634	227.07877551020408	58	127
227.09038548752835	227.81020408163266	55	127
228.65773242630385	229.44721088435375	67	127
229.458820861678	230.72430839002268	68	127
230.72430839002268	230.91006802721088	65	127
230.91006802721088	231.444126984127	70	127
231.444126984127	231.6298866213152	62	127
231.6298866213152	233.13918367346938	63	127
233.15079365079364	233.53392290249434	65	127
233.53392290249434	233.74290249433108	68	127
233.74290249433108	233.917052154195	67	127
233.92866213151927	235.44956916099773	67	127
235.461179138322	235.50761904761904	68	127
235.50761904761904	235.57727891156463	70	127
235.57727891156463	235.63532879818595	68	127
235.63532879818595	235.71659863945578	67	127
235.71659863945578	235.78625850340137	68	127
235.78625850340137	235.98362811791384	72	127
235.98362811791384	236.16938775510204	70	127
236.1809977324263	237.5974149659864	70	127
237.60902494331066	237.77156462585035	75	127
237.77156462585035	238.0037641723356	74	127
238.0037641723356	238.20113378684806	72	127
238.20113378684806	238.4101133786848	70	127
238.4101133786848	239.94263038548752	70	127
239.9542403628118	240.05873015873016	70	127
240.05873015873016	240.34897959183672	68	127
240.34897959183672	240.52312925170068	67	127
240.53473922902495	240.73210884353742	68	127
240.7437188208617	240.81337868480725	67	127
240.81337868480725	240.88303854875284	68	127
240.88303854875284	240.97591836734694	70	127
240.97591836734694	241.62607709750566	68	127
241.62607709750566	242.45038548752834	67	127
242.45038548752834	242.54326530612244	65	127
242.54326530612244	242.60131519274375	67	127
242.60131519274375	242.67097505668934	65	127
242.67097505668934	242.7754648526077	64	127
242.7754648526077	242.89156462585035	65	127
242.89156462585035	243.1005442176871	68	127
243.11215419501133	243.35596371882087	72	127
243.36757369614512	243.8784126984127	72	127
243.8784126984127	244.818820861678	63	127
244.83043083900228	244.96975056689342	65	127
244.96975056689342	245.0974603174603	63	127
245.0974603174603	245.20195011337867	62	127
245.20195011337867	245.2948299319728	63	127
245.2948299319728	245.8869387755102	67	127
245.89854875283447	246.1075283446712	65	127
246.11913832199548	246.94344671201813	63	127
256.74226757369615	257.485306122449	67	127
257.485306122449	258.9481632653061	67	127
258.9597732426304	259.63315192743767	68	127
259.63315192743767	259.81891156462586	71	127
259.83052154195013	261.281746031746	72	127
261.281746031746	261.8854875283447	70	127
261.8854875283447	262.0596371882086	69	127
262.0712471655329	263.3831746031746	67	127
263.3947845804989	263.487664399093	70	127
263.487664399093	264.05655328798184	69	127
264.05655328798184	264.18426303854875	67	127
264.18426303854875	264.86925170068025	67	127
266.2043990929705	266.3088888888889	70	127
266.3088888888889	266.81972789115645	69	127
266.8313378684807	266.99387755102043	67	127
267.0054648526077	267.7020861678005	67	127
269.0140136054422	269.1068934240363	70	127
269.1068934240363	269.6409523809524	69	127
269.6409523809524	269.7918820861678	67	127
269.80349206349206	270.33755102040817	67	127
270.418820861678	270.50009070294783	70	127
270.50009070294783	271.0573696145125	69	127
271.06897959183675	271.20829931972787	67	127
271.20829931972787	271.71913832199544	67	127
271.78879818594106	271.88167800453516	70	127
271.88167800453516	272.5086167800454	69	127
272.5086167800454	272.7175963718821	67	127
272.7175963718821	273.7857142857143	67	127
278.36002267573696	278.8012244897959	65	127
278.8128344671202	279.50943310657595	62	127
279.50943310657595	280.217641723356	62	127
280.22925170068027	281.0071201814059	58	127
281.0071201814059	281.3902494331066	58	127
281.40185941043086	281.77337868480726	55	127
281.7849886621315	282.5280272108844	58	127
282.53963718820864	283.2942857142857	58	127
283.2942857142857	284.0605442176871	63	127
284.07215419501136	284.8732426303855	63	127
284.8732426303855	285.0938321995465	68	127
285.0938321995465	285.291201814059	67	127
285.30278911564625	285.6859410430839	67	127
285.6975510204082	286.48702947845806	55	127
286.4986394557823	287.26489795918366	67	127
287.26489795918366	288.0079365079365	67	127
288.0195464852608	288.7393650793651	65	127
288.7393650793651	289.5520634920635	62	127
289.56367346938777	290.3995918367347	65	127
290.411201814059	291.23548752834466	65	127
291.23548752834466	292.21074829931973	63	127
292.222358276644	293.2208163265306	60	127
292.222358276644	293.2208163265306	63	127
293.2208163265306	294.05673469387756	60	127
294.0683446712018	294.47469387755103	58	127
294.47469387755103	294.7068934240363	56	127
294.7068934240363	294.93909297052153	58	127
294.93909297052153	295.14807256235827	56	127
295.14807256235827	295.3338095238095	58	127
295.3338095238095	296.1117006802721	55	127
297.11015873015873	297.8531972789116	67	127
297.8531972789116	299.40893424036284	67	127
299.4205215419501	299.989433106576	68	127
299.989433106576	300.1635827664399	71	127
300.17519274376417	301.71931972789116	72	127
301.71931972789116	302.31142857142856	70	127
302.31142857142856	302.50879818594103	69	127
302.5204081632653	303.9716553287982	67	127
303.98326530612246	304.07614512471656	70	127
304.07614512471656	304.7263038548753	69	127
304.7263038548753	304.90045351473924	67	127
304.9120634920635	305.1907029478458	67	127
305.2951927437642	305.5738321995465	79	127
305.6899319727891	305.8756916099773	79	127
305.8756916099773	306.06142857142856	79	127
306.21238095238095	306.52585034013606	79	127
306.6419501133787	306.7812471655329	79	127
306.8277097505669	306.9089795918367	79	127
306.9089795918367	306.97861678004534	80	127
306.97861678004534	307.0482993197279	79	127
307.0482993197279	307.11795918367346	80	127
307.11795918367346	307.1992290249433	79	127
307.1992290249433	307.2804988662132	80	127
307.2804988662132	307.35015873015874	79	127
307.35015873015874	307.40820861678003	80	127
307.40820861678003	307.4662585034014	79	127
307.4662585034014	307.53591836734694	80	127
307.53591836734694	307.5939455782313	79	127
307.5939455782313	307.66362811791385	80	127
307.66362811791385	307.72167800453514	79	127
307.72167800453514	307.7797278911565	80	127
307.7797278911565	307.84938775510204	79	127
307.84938775510204	307.9074149659864	80	127
307.9074149659864	307.97709750566895	79	127
307.97709750566895	308.03514739229024	80	127
308.03514739229024	308.0931972789116	79	127
308.0931972789116	308.16285714285715	80	127
308.16285714285715	308.22090702947844	80	127
308.22090702947844	308.29056689342406	79	127
308.29056689342406	308.34861678004535	80	127
308.34861678004535	308.41825396825396	79	127
308.41825396825396	308.47632653061225	80	127
308.47632653061225	308.53437641723355	79	127
308.53437641723355	308.60403628117916	80	127
308.60403628117916	308.66208616780045	79	127
308.66208616780045	308.731746031746	80	127
308.731746031746	308.78979591836736	79	127
308.78979591836736	308.84784580498865	80	127
308.84784580498865	308.91750566893427	79	127
308.91750566893427	308.97555555555556	80	127
308.97555555555556	309.0335827664399	79	127
309.0335827664399	309.126462585034	80	127
309.126462585034	309.20775510204084	79	127
309.20775510204084	309.2774149659864	80	127
309.2774149659864	309.34707482993196	79	127
309.34707482993196	309.4051247165533	80	127
309.4051247165533	309.47478458049886	79	127
309.47478458049886	309.5328117913832	80	127
309.5328117913832	309.5908843537415	79	127
309.5908843537415	309.6489342403628	80	127
309.6489342403628	309.70698412698414	79	127
309.70698412698414	309.7766439909297	80	127
309.7766439909297	309.83469387755105	79	127
309.83469387755105	309.89274376417234	80	127
309.89274376417234	309.9624036281179	79	127
309.9624036281179	310.008843537415	80	127
310.008843537415	310.07850340136054	79	127
310.07850340136054	310.17138321995463	80	127
310.17138321995463	310.26426303854873	79	127
310.26426303854873	310.4384126984127	78	127
310.4384126984127	310.6241723356009	79	127
310.6241723356009	310.89120181405895	79	127
310.98408163265304	311.2627210884354	79	127
311.3556009070295	311.5877777777778	79	127
311.65746031746033	311.92448979591836	79	127
312.3888888888889	312.7604081632653	79	127
313.1319274376417	313.42215419501133	78	127
313.42215419501133	313.90979591836737	79	127
313.9794557823129	314.072335600907	82	127
314.072335600907	314.59478458049887	81	127
314.59478458049887	314.78054421768707	79	127
314.78054421768707	315.1636507936508	79	127
315.8951020408163	316.19696145124715	78	127
316.5220408163265	316.77746031746034	79	127
316.77746031746034	316.87034013605444	82	127
316.87034013605444	317.33473922902493	81	127
317.33473922902493	317.5088662131519	79	127
317.52049886621313	317.8804081632653	79	127
318.62344671201816	318.90208616780046	78	127
319.22716553287984	319.5754648526077	79	127
319.9237641723356	320.248843537415	78	127
320.58551020408163	320.94544217687076	79	127
321.3401814058957	321.7349206349206	78	127
321.7349206349206	322.26897959183674	79	127
322.26897959183674	323.1861678004535	67	127
323.1861678004535	324.1033560090703	67	127
324.1033560090703	325.15986394557825	67	127
325.15986394557825	325.38043083900226	66	127
325.38043083900226	325.589410430839	67	127
325.589410430839	325.9957596371882	66	127
325.9957596371882	326.20473922902494	67	127
326.20473922902494	326.43696145124716	66	127
326.43696145124716	326.65755102040816	67	127
326.65755102040816	326.912947845805	66	127
326.912947845805	327.2148299319728	67	127
327.2148299319728	327.48185941043084	66	127
327.48185941043084	327.73725623582766	67	127
327.73725623582766	329.15369614512474	68	127
329.15369614512474	329.43233560090704	65	127
329.43233560090704	330.02444444444444	70	127
330.02444444444444	330.24503401360545	62	127
330.24503401360545	331.75433106575963	63	127
331.75433106575963	332.1722902494331	65	127
332.1839002267574	332.38126984126984	68	127
332.38126984126984	332.5902494331066	67	127
332.60185941043085	334.13437641723357	67	127
334.13437641723357	334.2040362811791	68	127
334.2040362811791	334.2620861678005	70	127
334.2620861678005	334.33174603174604	68	127
334.33174603174604	334.4478458049887	67	127
334.4478458049887	334.5639455782313	68	127
334.5639455782313	334.7613151927438	72	127
334.7613151927438	334.95868480725625	70	127
334.9702947845805	336.5144217687075	70	127
336.5260090702948	336.7001814058957	75	127
336.7001814058957	336.8859410430839	74	127
336.8859410430839	337.09492063492064	72	127
337.09492063492064	337.3039002267574	70	127
337.31551020408165	338.8944671201814	70	127
338.90607709750566	339.010566893424	70	127
339.010566893424	339.32403628117913	68	127
339.32403628117913	339.53301587301587	67	127
339.53301587301587	339.7768253968254	68	127
339.7768253968254	339.846485260771	67	127
339.846485260771	339.9277551020408	68	127
339.9277551020408	340.0206349206349	70	127
340.0206349206349	340.6824036281179	68	127
340.6824036281179	341.57637188208616	67	127
341.611201814059	341.77374149659863	65	127
341.77374149659863	341.83179138322	67	127
341.83179138322	341.9130612244898	65	127
341.9130612244898	342.0175510204082	64	127
342.0175510204082	342.1104308390023	65	127
342.1104308390023	342.2961904761905	68	127
342.30780045351474	342.5051700680272	72	127
342.5051700680272	343.06244897959186	72	127
343.07403628117913	344.06090702947847	63	127
344.07251700680274	344.1886167800454	65	127
344.1886167800454	344.3279365079365	63	127
344.3279365079365	344.44403628117914	62	127
344.44403628117914	344.5949659863946	63	127
344.5949659863946	345.2102947845805	67	127
345.2451247165533	345.44249433106575	65	127
345.45410430839	346.42934240362814	63	127
347.6251700680272	348.4378684807256	70	127
348.4494784580499	349.23895691609977	67	127
349.25056689342404	350.31868480725626	70	127
350.31868480725626	350.7134240362812	75	127
350.72503401360547	351.46807256235826	75	127
351.46807256235826	352.4897505668934	74	127
352.4897505668934	352.8148299319728	75	127
352.82643990929705	352.8960997732426	74	127
352.8960997732426	354.18480725623584	77	127
354.1964172335601	354.4402267573696	74	127
354.7072562358277	354.9162358276644	70	127
354.9162358276644	355.647641723356	70	127
355.6592743764172	356.00757369614513	75	127
356.3674603174603	356.63451247165534	70	127
356.8782993197279	357.0640816326531	68	127
357.0640816326531	357.3311111111111	67	127
357.5517006802721	357.7374603174603	68	127
357.7374603174603	357.9580498866213	70	127
358.22507936507935	358.38761904761907	72	127
358.38761904761907	358.6894784580499	74	127
358.9332879818594	359.08421768707484	75	127
359.0958276643991	359.76920634920634	75	127
359.7808163265306	360.83732426303857	74	127
360.83732426303857	361.1972335600907	75	127
361.20884353741496	361.39460317460316	76	127
361.39460317460316	361.56875283446715	77	127
361.5803401360544	361.71968253968254	76	127
361.71968253968254	361.89383219954647	77	127
361.89383219954647	362.0795918367347	76	127
362.0795918367347	362.2305215419501	77	127
362.2421315192744	362.40467120181404	79	127
362.40467120181404	362.53238095238095	77	127
362.5439909297052	362.71814058956915	75	127
362.71814058956915	362.89229024943313	74	127
362.89229024943313	363.07804988662133	72	127
363.07804988662133	363.2638095238095	70	127
363.2754195011338	363.47278911564626	70	127
363.47278911564626	363.6469387755102	75	127
365.5045351473923	372.5634013605442	58	127
365.5045351473923	367.65238095238095	67	127
367.6639909297052	369.78861678004534	68	127
369.8002267573696	371.08891156462585	62	127
371.10054421768706	371.8784126984127	65	127
371.8784126984127	372.5634013605442	67	127
374.03786848072565	376.1508843537415	58	127
374.03786848072565	376.9171201814059	67	127
376.9287528344671	377.71823129251703	66	127
377.71823129251703	379.1346485260771	65	127
379.30879818594104	379.80802721088435	65	127
379.98215419501133	380.5046258503401	65	127
380.7019954648526	382.838231292517	77	127
382.838231292517	383.0007709750567	76	127
383.0007709750567	383.1517006802721	77	127
383.1517006802721	383.25619047619045	79	127
383.25619047619045	383.3606802721088	77	127
383.3606802721088	383.51160997732427	76	127
383.51160997732427	383.69736961451247	77	127
383.69736961451247	383.83668934240364	79	127
383.83668934240364	384.02244897959184	77	127
384.02244897959184	384.1385487528345	75	127
384.1385487528345	384.28947845804987	74	127
384.28947845804987	384.47523809523807	72	127
384.47523809523807	384.6377777777778	70	127
384.6377777777778	385.4156462585034	69	127
385.42725623582766	386.2051247165533	66	127
386.2051247165533	387.4357823129252	65	127
387.63315192743767	388.0859410430839	65	127
388.2136507936508	388.7128798185941	65	127
388.91024943310657	389.061179138322	76	127
389.061179138322	389.2121088435374	77	127
389.2121088435374	389.3978684807256	79	127
389.3978684807256	389.5604081632653	77	127
389.5604081632653	389.7577777777778	76	127
389.7577777777778	389.8506575963719	77	127
389.8506575963719	390.0364172335601	79	127
390.0364172335601	390.17573696145126	77	127
390.17573696145126	390.2918367346939	75	127
390.2918367346939	390.4427664399093	74	127
390.4427664399093	390.6285260770975	72	127
390.6285260770975	390.82589569160996	70	127
390.82589569160996	391.3483446712018	69	127
391.4760544217687	392.0217233560091	57	127
392.77637188208615	392.96213151927435	76	127
392.96213151927435	393.1478911564626	77	127
393.1478911564626	393.298820861678	79	127
393.298820861678	393.4845804988662	77	127
393.4845804988662	393.67034013605445	76	127
393.67034013605445	393.82126984126984	77	127
393.82126984126984	393.85609977324265	77	127
393.85609977324265	393.9373696145125	75	127
393.9373696145125	394.1231292517007	74	127
394.1231292517007	394.3088888888889	72	127
394.3088888888889	394.49464852607707	70	127
394.49464852607707	394.9706575963719	69	127
395.13319727891155	395.7020861678005	57	127
396.387074829932	396.7818140589569	70	127
396.9791836734694	397.52485260770976	58	127
398.15179138322	398.7903401360544	65	127
398.15179138322	398.7903401360544	58	127
399.34761904761905	399.98616780045353	58	127
399.34761904761905	399.98616780045353	65	127
400.65954648526076	401.286485260771	68	127
400.65954648526076	401.286485260771	58	127
412.2114739229025	412.62943310657596	65	127
412.62943310657596	412.81519274376416	68	127
412.81519274376416	413.00095238095236	67	127
413.00095238095236	414.4986394557823	67	127
416.99478458049884	417.1921541950113	75	127
417.1921541950113	417.38952380952384	74	127
417.38952380952384	417.5985034013605	72	127
417.5985034013605	417.80748299319725	70	127
417.80748299319725	419.4096598639456	70	127
419.4096598639456	419.5373696145125	70	127
419.5373696145125	419.83922902494334	68	127
419.83922902494334	420.0830385487528	67	127
420.0830385487528	420.29201814058956	68	127
420.29201814058956	420.3616780045351	67	127
420.3616780045351	420.43133786848074	68	127
420.43133786848074	420.48938775510203	70	127
420.48938775510203	421.11632653061224	68	127
421.11632653061224	422.02190476190475	67	127
425.00566893424036	425.7487074829932	67	127
425.7487074829932	425.9692970521542	65	127
425.9692970521542	427.73401360544216	63	127
430.60167800453513	431.4608163265306	67	127
431.4608163265306	431.6465759637188	65	127
431.6465759637188	432.71469387755104	63	127
432.7263038548753	433.27197278911564	79	127
433.2835827664399	433.7363718820862	75	127
433.7363718820862	434.2239909297052	72	127
434.2239909297052	434.7232199546485	68	127
434.7348299319728	435.1992290249433	67	127
435.30371882086166	435.97709750566895	63	127
435.30371882086166	435.97709750566895	55	127
435.9887074829932	436.20929705215417	58	127
436.25573696145125	436.3950566893424	60	127
436.44149659863945	436.60403628117916	62	127
436.6504761904762	436.78979591836736	63	127
436.8594557823129	436.97555555555556	65	127
437.0916553287982	437.2309750566893	67	127
437.28902494331066	437.43995464852605	68	127
437.53283446712015	438.51968253968255	70	127
438.5312925170068	439.47170068027214	72	127
439.48331065759635	440.62108843537413	74	127
440.6326984126984	441.60793650793653	75	127
442.6180045351474	443.2681632653061	79	127
443.2681632653061	443.5351927437642	77	127
443.5351927437642	444.35950113378686	75	127
447.6451247165533	448.22562358276645	79	127
448.22562358276645	448.4346031746032	77	127
448.4346031746032	449.2356916099773	75	127
451.1977777777778	451.85954648526075	79	127
451.871156462585	452.1033560090703	77	127
452.12657596371884	453.09020408163263	75	127
453.09020408163263	453.90290249433104	79	127
453.9145124716553	454.1467120181406	77	127
454.15832199546486	455.12195011337866	75	127
456.1552380952381	456.23650793650796	70	127
456.23650793650796	456.3061678004535	72	127
456.3061678004535	456.38743764172335	70	127
456.38743764172335	456.4570975056689	72	127
456.4570975056689	456.52675736961453	70	127
456.52675736961453	456.60802721088436	72	127
456.60802721088436	456.66607709750565	70	127
456.66607709750565	456.73573696145127	72	127
456.73573696145127	456.8170068027211	70	127
456.8170068027211	457.0375963718821	69	127
457.0375963718821	457.43233560090704	70	127
457.43233560090704	459.4524716553288	67	127
