# onset,offset,note,velocity
0.06888888888888889	2.5882539682539685	67	127
2.5998639455782313	3.2964625850340137	46	127
2.5998639455782313	3.8189115646258505	68	127
3.2964625850340137	4.027891156462585	58	127
3.8189115646258505	4.027891156462585	65	127
4.039501133786848	4.608390022675737	70	127
4.039501133786848	4.759319727891157	56	127
4.608390022675737	4.759319727891157	62	127
4.759319727891157	6.257006802721088	63	127
4.759319727891157	5.548775510204082	55	127
5.560408163265306	6.257006802721088	51	127
6.268616780045352	6.6053061224489795	65	127
6.268616780045352	6.930385487528345	50	127
6.616916099773243	6.7562358276643995	68	127
6.767845804988662	6.930385487528345	67	127
6.941995464852607	7.708253968253969	51	127
6.941995464852607	8.451292517006802	67	127
7.731473922902494	8.451292517006802	49	127
8.451292517006802	8.834421768707482	48	127
8.451292517006802	8.625442176870749	68	127
8.532562358276644	8.718321995464853	70	127
8.625442176870749	8.834421768707482	68	127
8.741519274376417	8.927301587301587	70	127
8.846031746031747	9.020181405895691	72	127
8.846031746031747	9.229160997732427	44	127
9.031791383219955	9.229160997732427	70	127
9.240770975056689	10.668798185941043	70	127
9.240770975056689	9.983809523809525	51	127
9.995419501133787	10.668798185941043	55	127
10.680408163265307	11.435056689342403	51	127
10.680408163265307	10.866145124716553	75	127
10.866145124716553	11.07514739229025	74	127
11.07514739229025	11.260907029478458	72	127
11.27251700680272	11.435056689342403	70	127
11.45827664399093	12.967573696145125	70	127
11.45827664399093	12.22453514739229	50	127
12.22453514739229	12.967573696145125	46	127
12.979183673469388	13.733832199546486	47	127
12.979183673469388	13.188163265306123	70	127
13.072063492063492	13.37392290249433	68	127
13.37392290249433	13.548072562358277	67	127
13.548072562358277	13.733832199546486	68	127
13.745442176870748	14.523310657596372	48	127
13.745442176870748	13.896371882086168	67	127
13.82671201814059	13.989251700680272	68	127
13.90798185941043	14.116961451247166	70	127
14.000861678004535	14.523310657596372	68	127
14.534920634920635	15.3940589569161	36	127
14.534920634920635	15.3940589569161	67	127
15.405668934240364	15.637868480725624	65	127
15.405668934240364	16.438956916099773	44	127
15.405668934240364	16.438956916099773	53	127
15.498548752834466	15.730748299319728	67	127
15.637868480725624	15.800408163265306	65	127
15.74235827664399	15.997777777777777	64	127
15.846848072562358	16.11387755102041	65	127
16.00938775510204	16.22997732426304	68	127
16.241587301587302	16.438956916099773	72	127
16.438956916099773	17.26326530612245	54	127
16.438956916099773	17.26326530612245	45	127
16.438956916099773	16.868526077097506	72	127
16.88013605442177	17.716054421768707	63	127
17.27487528344671	18.168843537414965	46	127
17.27487528344671	18.168843537414965	55	127
17.716054421768707	17.901814058956916	65	127
17.808934240362813	18.017913832199547	63	127
17.901814058956916	18.168843537414965	62	127
18.017913832199547	18.273333333333333	63	127
18.18045351473923	18.958321995464853	67	127
18.18045351473923	19.155691609977325	46	127
18.18045351473923	19.155691609977325	62	127
18.18045351473923	19.155691609977325	34	127
18.969931972789116	19.155691609977325	65	127
19.167301587301587	20.003219954648525	63	127
19.167301587301587	20.003219954648525	39	127
20.014807256235827	21.01328798185941	51	127
21.69827664399093	22.452925170068028	34	127
21.942086167800454	22.19750566893424	53	127
22.209115646258503	22.452925170068028	58	127
22.46453514739229	23.11469387755102	46	127
22.696734693877552	22.88249433106576	53	127
22.696734693877552	22.88249433106576	50	127
22.88249433106576	23.11469387755102	58	127
23.12628117913832	23.88095238095238	44	127
23.381723356009072	23.602312925170068	50	127
23.381723356009072	23.602312925170068	53	127
23.61392290249433	23.88095238095238	58	127
23.88095238095238	24.623990929705215	43	127
24.159591836734695	24.41501133786848	55	127
24.159591836734695	24.41501133786848	51	127
24.41501133786848	24.623990929705215	58	127
24.635600907029477	25.33219954648526	39	127
24.879410430839002	25.076780045351473	55	127
24.879410430839002	25.076780045351473	51	127
25.088390022675735	25.33219954648526	58	127
25.343809523809522	26.075238095238095	38	127
25.610839002267575	25.854648526077096	56	127
25.610839002267575	25.854648526077096	53	127
25.86625850340136	26.075238095238095	58	127
26.086848072562358	26.78344671201814	39	127
26.330657596371882	26.609297052154194	58	127
26.330657596371882	26.609297052154194	55	127
26.609297052154194	26.78344671201814	63	127
26.795056689342402	27.178185941043083	51	127
27.027256235827664	27.305895691609976	58	127
27.027256235827664	27.305895691609976	55	127
27.18979591836735	27.561315192743763	49	127
27.340725623582767	27.561315192743763	63	127
27.561315192743763	27.95605442176871	48	127
27.828344671201815	28.106984126984127	60	127
27.828344671201815	28.106984126984127	56	127
27.96766439909297	28.35079365079365	44	127
28.106984126984127	28.35079365079365	63	127
28.362403628117914	29.11705215419501	39	127
28.362403628117914	29.11705215419501	51	127
28.594603174603176	28.850022675736962	58	127
28.594603174603176	28.850022675736962	55	127
28.861632653061225	29.11705215419501	63	127
29.128662131519274	29.813650793650794	43	127
29.128662131519274	29.813650793650794	55	127
29.349251700680274	29.581451247165532	58	127
29.593061224489794	29.813650793650794	63	127
29.825260770975056	30.591519274376417	39	127
29.825260770975056	30.591519274376417	51	127
30.092290249433105	30.33609977324263	55	127
30.33609977324263	30.591519274376417	58	127
30.60312925170068	31.380997732426305	38	127
30.60312925170068	31.380997732426305	50	127
30.893378684807256	31.13718820861678	53	127
31.148798185941043	31.380997732426305	58	127
31.380997732426305	32.12403628117914	46	127
31.380997732426305	32.12403628117914	34	127
31.636417233560092	31.880226757369613	53	127
31.880226757369613	32.12403628117914	62	127
32.1356462585034	33.07605442176871	47	127
32.1356462585034	33.07605442176871	35	127
32.43750566893424	32.69292517006803	56	127
32.43750566893424	32.69292517006803	53	127
32.70453514739229	33.07605442176871	62	127
33.08766439909297	33.84231292517007	36	127
33.08766439909297	33.84231292517007	48	127
33.34308390022676	33.598503401360546	53	127
33.34308390022676	33.598503401360546	56	127
33.598503401360546	33.84231292517007	62	127
33.85392290249433	34.72467120181406	36	127
34.10934240362812	34.42281179138322	55	127
34.10934240362812	34.42281179138322	51	127
34.42281179138322	34.72467120181406	63	127
34.736281179138324	35.71149659863946	32	127
34.736281179138324	35.71149659863946	44	127
35.014920634920635	35.37482993197279	51	127
35.014920634920635	35.37482993197279	53	127
35.38643990929705	35.71149659863946	60	127
35.71149659863946	36.651927437641724	45	127
35.71149659863946	36.651927437641724	33	127
35.97854875283447	36.30362811791383	54	127
35.97854875283447	36.30362811791383	51	127
36.30362811791383	36.651927437641724	60	127
36.66353741496599	37.685215419501134	34	127
36.66353741496599	37.685215419501134	46	127
37.035056689342404	37.40657596371882	51	127
37.035056689342404	37.40657596371882	55	127
37.418185941043085	37.685215419501134	58	127
37.70843537414966	38.5443537414966	34	127
37.998662131519275	38.26571428571429	50	127
37.998662131519275	38.26571428571429	56	127
38.27732426303855	38.5443537414966	58	127
38.55596371882086	39.42671201814059	39	127
38.55596371882086	39.42671201814059	51	127
38.55596371882086	39.42671201814059	55	127
39.438321995464854	40.28585034013606	51	127
40.29746031746032	41.086938775510205	67	127
41.086938775510205	42.53818594104308	62	127
41.086938775510205	42.53818594104308	59	127
41.086938775510205	42.53818594104308	67	127
42.573015873015876	43.09546485260771	68	127
42.573015873015876	43.09546485260771	63	127
42.573015873015876	43.09546485260771	60	127
42.573015873015876	43.39732426303855	67	127
43.11868480725624	43.39732426303855	71	127
43.11868480725624	43.39732426303855	65	127
43.11868480725624	43.39732426303855	62	127
43.40893424036281	44.9646485260771	63	127
43.40893424036281	44.9646485260771	72	127
43.40893424036281	44.9646485260771	67	127
44.9646485260771	45.521950113378686	65	127
44.9646485260771	45.521950113378686	62	127
44.9646485260771	45.68448979591837	67	127
44.9646485260771	45.521950113378686	70	127
45.53356009070295	45.68448979591837	69	127
45.53356009070295	45.68448979591837	60	127
45.53356009070295	45.68448979591837	63	127
45.69609977324263	47.13573696145125	67	127
45.69609977324263	46.38108843537415	62	127
45.69609977324263	46.38108843537415	58	127
46.392698412698415	47.13573696145125	58	127
46.392698412698415	47.13573696145125	50	127
47.05446712018141	47.24022675736961	70	127
47.14734693877551	47.78589569160998	66	127
47.14734693877551	47.78589569160998	60	127
47.14734693877551	47.634965986394555	69	127
47.14734693877551	47.78589569160998	50	127
47.634965986394555	47.78589569160998	67	127
47.79750566893424	48.1225850340136	67	127
47.79750566893424	48.44766439909297	58	127
47.79750566893424	48.44766439909297	55	127
48.134195011337866	48.44766439909297	79	127
48.459274376417234	48.795963718820865	79	127
48.80757369614513	49.08621315192744	79	127
49.0978231292517	49.829251700680274	59	127
49.0978231292517	49.829251700680274	62	127
49.0978231292517	49.48095238095238	79	127
49.49256235827664	49.829251700680274	79	127
49.829251700680274	51.187619047619044	62	127
49.829251700680274	51.187619047619044	59	127
49.829251700680274	50.212380952380954	79	127
50.22399092970522	50.58390022675737	79	127
50.595510204081634	50.920589569160995	79	127
50.920589569160995	51.187619047619044	79	127
51.199229024943314	51.60557823129252	79	127
51.199229024943314	51.80294784580499	60	127
51.199229024943314	51.80294784580499	63	127
51.61718820861678	52.023537414965986	79	127
51.82616780045351	52.023537414965986	62	127
51.82616780045351	52.023537414965986	65	127
52.023537414965986	53.602494331065756	63	127
52.023537414965986	53.602494331065756	67	127
52.023537414965986	52.511156462585035	79	127
52.5227664399093	52.88267573696145	79	127
52.894285714285715	53.230975056689346	79	127
53.24258503401361	53.602494331065756	79	127
53.602494331065756	54.00884353741497	79	127
53.602494331065756	54.206213151927436	62	127
53.602494331065756	54.206213151927436	65	127
54.02045351473923	54.426802721088436	79	127
54.2178231292517	54.426802721088436	60	127
54.2178231292517	54.426802721088436	63	127
54.4384126984127	55.10018140589569	62	127
54.4384126984127	54.78671201814059	79	127
54.4384126984127	55.10018140589569	58	127
54.78671201814059	55.10018140589569	79	127
55.11179138321995	55.796780045351476	58	127
55.11179138321995	55.796780045351476	50	127
55.460090702947845	55.796780045351476	79	127
55.796780045351476	56.50498866213152	50	127
55.796780045351476	56.50498866213152	60	127
56.1334693877551	56.50498866213152	78	127
56.50498866213152	57.22480725623583	79	127
56.50498866213152	57.22480725623583	55	127
56.50498866213152	57.22480725623583	58	127
57.143537414965984	57.317687074829934	82	127
57.22480725623583	57.758866213151926	81	127
57.22480725623583	57.88657596371882	62	127
57.22480725623583	57.88657596371882	72	127
57.77047619047619	57.88657596371882	79	127
57.89818594104308	58.583174603174605	79	127
57.89818594104308	58.583174603174605	67	127
57.89818594104308	58.583174603174605	70	127
58.583174603174605	59.2449433106576	62	127
58.583174603174605	59.2449433106576	50	127
58.908253968253966	59.2449433106576	72	127
58.908253968253966	59.2449433106576	78	127
58.908253968253966	59.2449433106576	74	127
59.25655328798186	60.03442176870748	43	127
59.25655328798186	60.03442176870748	55	127
59.6512925170068	60.03442176870748	74	127
59.6512925170068	60.03442176870748	79	127
59.6512925170068	60.03442176870748	70	127
59.953151927437645	60.115691609977326	82	127
60.046031746031744	60.56848072562358	81	127
60.046031746031744	60.707800453514736	72	127
60.046031746031744	60.707800453514736	62	127
60.58009070294784	60.707800453514736	79	127
60.707800453514736	61.381179138322	79	127
60.707800453514736	61.381179138322	67	127
60.707800453514736	61.381179138322	70	127
61.39278911564626	62.1009977324263	50	127
61.39278911564626	62.1009977324263	62	127
61.752698412698415	62.1009977324263	78	127
61.752698412698415	62.1009977324263	72	127
61.752698412698415	62.1009977324263	74	127
62.1009977324263	62.77437641723356	55	127
62.1009977324263	62.77437641723356	43	127
62.43768707482993	62.77437641723356	74	127
62.43768707482993	62.77437641723356	70	127
62.43768707482993	62.77437641723356	79	127
62.77437641723356	63.47097505668934	38	127
62.77437641723356	63.47097505668934	50	127
63.111065759637185	63.47097505668934	72	127
63.111065759637185	63.47097505668934	74	127
63.111065759637185	63.47097505668934	78	127
63.4825850340136	64.12113378684808	43	127
63.4825850340136	64.12113378684808	55	127
63.830884353741496	64.12113378684808	79	127
63.830884353741496	64.12113378684808	74	127
63.830884353741496	64.12113378684808	70	127
64.13274376417233	64.94541950113378	50	127
64.13274376417233	64.94541950113378	38	127
64.52748299319728	64.94541950113378	74	127
64.52748299319728	64.94541950113378	78	127
64.52748299319728	64.94541950113378	72	127
64.95705215419501	65.40984126984127	70	127
64.95705215419501	65.79297052154195	43	127
64.95705215419501	65.40984126984127	74	127
64.95705215419501	65.79297052154195	55	127
64.95705215419501	65.40984126984127	79	127
65.40984126984127	66.22251700680272	67	127
66.24575963718821	67.05845804988662	67	127
67.07006802721088	67.87115646258503	67	127
67.87115646258503	68.09174603174603	66	127
68.09174603174603	68.31233560090703	67	127
68.31233560090703	68.5097052154195	66	127
68.5097052154195	68.74190476190476	67	127
68.74190476190476	68.93927437641723	66	127
68.93927437641723	69.13662131519274	67	127
69.13662131519274	69.3572335600907	66	127
69.3572335600907	69.54299319727892	67	127
69.54299319727892	69.84485260770975	66	127
69.84485260770975	70.13507936507936	67	127
70.14671201814059	70.8665306122449	46	127
70.14671201814059	71.3657596371882	68	127
70.87814058956916	71.56312925170069	58	127
71.37736961451247	71.56312925170069	65	127
71.56312925170069	72.35260770975057	56	127
71.56312925170069	72.14362811791383	70	127
72.15523809523809	72.35260770975057	62	127
72.36421768707483	73.80385487528345	63	127
72.36421768707483	73.04918367346939	55	127
73.06081632653061	73.80385487528345	51	127
73.81544217687075	74.6049433106576	50	127
73.81544217687075	74.2566439909297	65	127
74.2566439909297	74.41918367346939	68	127
74.43079365079365	74.6049433106576	67	127
74.61655328798186	75.3247619047619	51	127
74.61655328798186	76.06780045351474	67	127
75.3247619047619	76.06780045351474	49	127
76.079410430839	76.25356009070295	68	127
76.079410430839	76.50897959183673	48	127
76.1722902494331	76.36963718820861	70	127
76.26517006802722	76.50897959183673	68	127
76.39287981859411	76.60183673469388	70	127
76.50897959183673	76.72954648526077	72	127
76.50897959183673	76.93854875283446	44	127
76.72954648526077	76.93854875283446	70	127
76.95015873015873	77.65836734693877	51	127
76.95015873015873	78.44784580498866	70	127
77.66997732426304	78.44784580498866	55	127
78.45945578231293	78.63360544217687	75	127
78.45945578231293	79.16766439909297	51	127
78.6568253968254	78.81936507936508	74	127
78.83097505668934	78.99351473922903	72	127
79.00512471655328	79.16766439909297	70	127
79.16766439909297	80.63052154195012	70	127
79.16766439909297	79.87587301587301	50	127
79.88748299319728	80.63052154195012	46	127
80.63052154195012	81.4548299319728	47	127
80.63052154195012	80.85111111111111	70	127
80.76984126984127	81.07170068027212	68	127
81.08331065759637	81.25746031746031	67	127
81.26907029478458	81.4548299319728	68	127
81.46643990929705	81.65219954648526	67	127
81.46643990929705	82.25591836734694	48	127
81.5592970521542	81.74507936507936	68	127
81.65219954648526	81.83795918367348	70	127
81.74507936507936	82.25591836734694	68	127
82.2675283446712	83.10344671201814	36	127
82.2675283446712	83.10344671201814	67	127
83.10344671201814	83.23115646258503	65	127
83.10344671201814	84.06707482993197	53	127
83.10344671201814	84.06707482993197	44	127
83.17310657596371	83.3472335600907	67	127
83.25437641723356	83.4633560090703	65	127
83.3472335600907	83.60265306122449	64	127
83.50979591836735	83.73036281179138	65	127
83.61428571428571	83.84648526077098	68	127
83.8697052154195	84.06707482993197	72	127
84.07868480725624	84.55469387755102	72	127
84.07868480725624	85.03070294784581	54	127
84.07868480725624	85.03070294784581	45	127
84.55469387755102	85.54154195011338	63	127
85.03070294784581	85.94789115646259	55	127
85.03070294784581	85.94789115646259	46	127
85.55315192743764	85.73891156462585	65	127
85.65764172335601	85.85501133786848	63	127
85.75049886621315	85.94789115646259	62	127
85.86662131519275	86.04077097505669	63	127
85.95950113378684	87.05083900226758	46	127
85.95950113378684	87.05083900226758	62	127
85.95950113378684	86.83024943310657	67	127
85.95950113378684	87.05083900226758	34	127
86.84185941043084	87.05083900226758	65	127
87.06244897959184	87.85192743764172	39	127
87.06244897959184	87.85192743764172	63	127
87.86353741496599	88.68784580498867	51	127
88.69945578231292	89.38444444444444	62	127
88.69945578231292	89.38444444444444	59	127
89.39605442176871	90.89374149659864	59	127
89.39605442176871	90.89374149659864	62	127
89.39605442176871	89.77918367346939	43	127
89.77918367346939	90.13909297052155	55	127
90.1507029478458	90.4990022675737	55	127
90.51061224489796	90.89374149659864	55	127
90.89374149659864	91.35814058956916	55	127
90.89374149659864	91.5322902494331	60	127
90.89374149659864	91.5322902494331	63	127
91.36975056689343	91.76448979591837	55	127
91.54390022675737	91.76448979591837	65	127
91.54390022675737	91.76448979591837	62	127
91.77609977324263	92.17083900226757	55	127
91.77609977324263	93.33183673469388	63	127
91.77609977324263	93.33183673469388	67	127
92.17083900226757	92.51913832199547	55	127
92.51913832199547	92.96031746031746	55	127
92.97192743764172	93.33183673469388	55	127
93.34342403628118	94.05165532879819	65	127
93.34342403628118	93.86589569160998	55	127
93.34342403628118	94.05165532879819	62	127
93.86589569160998	94.24902494331066	55	127
94.06326530612245	94.24902494331066	66	127
94.06326530612245	94.24902494331066	60	127
94.26061224489796	94.748231292517	58	127
94.26061224489796	94.748231292517	62	127
94.26061224489796	94.748231292517	67	127
94.26061224489796	95.13138321995464	43	127
94.75986394557823	95.13138321995464	62	127
94.75986394557823	95.13138321995464	58	127
95.13138321995464	95.86281179138322	50	127
95.50290249433107	95.86281179138322	62	127
95.50290249433107	95.86281179138322	58	127
95.87442176870748	96.69873015873016	38	127
96.30399092970522	96.69873015873016	62	127
96.30399092970522	96.69873015873016	60	127
96.30399092970522	96.69873015873016	66	127
96.71034013605443	97.45337868480726	67	127
96.71034013605443	97.45337868480726	58	127
96.71034013605443	97.45337868480726	62	127
96.71034013605443	97.45337868480726	43	127
97.90616780045352	98.66081632653061	67	127
97.90616780045352	98.66081632653061	59	127
97.90616780045352	98.66081632653061	62	127
98.66081632653061	99.91469387755102	59	127
98.66081632653061	99.91469387755102	67	127
98.66081632653061	99.91469387755102	62	127
99.92630385487529	100.47197278911564	63	127
99.92630385487529	100.47197278911564	60	127
99.92630385487529	100.47197278911564	68	127
100.48358276643991	100.76222222222222	71	127
100.48358276643991	100.76222222222222	65	127
100.48358276643991	100.76222222222222	62	127
100.76222222222222	102.120589569161	67	127
100.76222222222222	102.120589569161	72	127
100.76222222222222	102.120589569161	63	127
102.120589569161	102.60820861678005	65	127
102.120589569161	102.60820861678005	70	127
102.120589569161	102.60820861678005	62	127
102.60820861678005	102.77074829931973	69	127
102.60820861678005	102.77074829931973	63	127
102.60820861678005	102.77074829931973	60	127
102.78235827664399	103.4673469387755	58	127
102.78235827664399	103.4673469387755	62	127
102.78235827664399	104.23360544217687	67	127
103.47895691609978	104.23360544217687	58	127
103.47895691609978	104.23360544217687	50	127
104.14072562358277	104.31487528344671	70	127
104.23360544217687	104.91859410430838	50	127
104.23360544217687	104.91859410430838	60	127
104.31487528344671	104.86054421768708	69	127
104.77927437641723	104.91859410430838	67	127
104.93020408163265	105.58036281179139	67	127
104.93020408163265	105.58036281179139	58	127
104.93020408163265	105.58036281179139	55	127
105.58036281179139	106.27696145124716	50	127
105.58036281179139	106.27696145124716	38	127
105.92866213151927	106.27696145124716	66	127
105.92866213151927	106.27696145124716	62	127
105.92866213151927	106.27696145124716	60	127
106.28857142857143	107.03160997732427	43	127
106.28857142857143	107.03160997732427	55	127
106.68331065759637	107.03160997732427	58	127
106.68331065759637	107.03160997732427	62	127
106.68331065759637	107.03160997732427	67	127
106.97356009070295	107.11287981859411	70	127
107.04321995464852	107.72820861678005	50	127
107.04321995464852	107.56566893424036	69	127
107.04321995464852	107.37990929705215	60	127
107.39151927437642	107.72820861678005	62	127
107.57727891156462	107.72820861678005	67	127
107.72820861678005	108.06489795918367	58	127
107.72820861678005	108.35514739229025	55	127
107.72820861678005	108.35514739229025	67	127
108.06489795918367	108.35514739229025	62	127
108.36675736961452	109.02852607709751	50	127
108.36675736961452	109.02852607709751	38	127
108.65700680272109	109.02852607709751	60	127
108.65700680272109	109.02852607709751	62	127
108.65700680272109	109.02852607709751	66	127
109.02852607709751	109.74834467120182	43	127
109.02852607709751	109.74834467120182	55	127
109.42326530612245	109.74834467120182	62	127
109.42326530612245	109.74834467120182	67	127
109.42326530612245	109.74834467120182	58	127
109.66707482993198	109.84122448979592	70	127
109.75995464852608	110.44494331065759	50	127
109.75995464852608	110.11986394557823	60	127
109.75995464852608	110.30562358276644	69	127
110.11986394557823	110.44494331065759	62	127
110.30562358276644	110.44494331065759	67	127
110.45655328798186	110.7584126984127	58	127
110.45655328798186	111.09510204081633	55	127
110.45655328798186	111.09510204081633	67	127
110.77002267573697	111.09510204081633	62	127
111.00222222222222	111.1647619047619	70	127
111.09510204081633	111.42018140589569	60	127
111.09510204081633	111.58272108843538	69	127
111.09510204081633	111.75687074829932	50	127
111.42018140589569	111.75687074829932	62	127
111.59433106575963	111.75687074829932	67	127
111.76848072562358	112.44185941043084	55	127
111.76848072562358	112.44185941043084	67	127
111.76848072562358	112.1051700680272	58	127
112.11678004535148	112.44185941043084	62	127
112.34897959183674	112.5463492063492	70	127
112.4534693877551	112.90625850340136	60	127
112.4534693877551	113.1152380952381	69	127
112.4534693877551	113.37065759637188	50	127
112.91786848072563	113.37065759637188	62	127
113.12684807256235	113.37065759637188	67	127
113.38226757369614	114.25301587301587	58	127
113.38226757369614	114.25301587301587	55	127
113.38226757369614	114.25301587301587	67	127
119.3614058956916	120.10444444444444	34	127
119.55877551020409	119.89546485260772	50	127
119.72131519274376	120.10444444444444	53	127
119.89546485260772	120.29020408163265	58	127
120.11605442176871	120.91714285714286	46	127
120.30181405895692	120.67333333333333	50	127
120.49918367346939	120.91714285714286	53	127
120.6849433106576	121.16095238095238	58	127
120.92875283446712	121.76467120181405	44	127
121.16095238095238	121.57891156462586	50	127
121.39315192743764	121.76467120181405	53	127
121.59052154195011	121.76467120181405	58	127
121.77628117913832	122.53092970521541	43	127
121.96204081632654	122.33356009070295	51	127
122.13619047619048	122.53092970521541	55	127
122.33356009070295	122.7282993197279	58	127
122.53092970521541	123.23913832199547	39	127
122.7282993197279	123.06498866213153	51	127
122.90244897959184	123.23913832199547	55	127
123.07659863945578	123.42489795918367	58	127
123.25074829931972	124.02861678004535	38	127
123.43650793650794	123.83124716553289	53	127
123.6338775510204	124.02861678004535	56	127
123.83124716553289	124.02861678004535	58	127
124.04022675736961	124.89936507936508	39	127
124.30725623582767	124.71360544217687	55	127
124.5162358276644	124.89936507936508	58	127
124.72521541950114	125.09673469387755	63	127
124.91097505668934	125.25927437641724	51	127
125.09673469387755	125.44503401360544	55	127
125.25927437641724	125.64240362811792	49	127
125.25927437641724	125.64240362811792	58	127
125.4566439909297	125.82816326530612	63	127
125.65401360544217	126.0255328798186	48	127
125.83977324263039	126.22290249433107	56	127
126.03714285714285	126.40866213151928	60	127
126.03714285714285	126.40866213151928	44	127
126.22290249433107	126.40866213151928	63	127
126.40866213151928	127.19814058956916	51	127
126.6524716553288	127.01238095238095	55	127
126.84984126984126	127.19814058956916	58	127
127.02399092970522	127.39551020408163	63	127
127.20975056689342	127.88312925170068	39	127
127.4071201814059	127.70897959183674	55	127
127.56965986394557	127.88312925170068	58	127
127.70897959183674	128.08049886621316	63	127
127.89473922902495	128.67260770975057	39	127
127.89473922902495	128.67260770975057	51	127
128.09208616780046	128.48684807256237	55	127
128.2894784580499	128.67260770975057	58	127
128.49843537414966	128.67260770975057	55	127
128.74226757369615	129.49691609977324	38	127
128.74226757369615	129.49691609977324	50	127
128.9512471655329	129.31115646258505	53	127
129.14861678004536	129.49691609977324	58	127
129.3227664399093	129.68267573696144	53	127
129.5085260770975	130.34444444444443	34	127
129.5085260770975	130.34444444444443	46	127
129.6942857142857	130.10063492063492	53	127
129.88002267573697	130.34444444444443	62	127
130.10063492063492	130.5766439909297	53	127
130.34444444444443	131.27324263038548	47	127
130.34444444444443	131.27324263038548	35	127
130.5766439909297	130.99460317460318	53	127
130.80884353741496	131.27324263038548	56	127
131.00619047619048	131.27324263038548	62	127
131.28485260770975	132.1439909297052	48	127
131.28485260770975	132.1439909297052	36	127
131.5518820861678	131.958231292517	53	127
131.77244897959184	132.1439909297052	56	127
131.958231292517	132.34136054421768	62	127
132.15560090702948	133.0263492063492	36	127
132.35297052154195	132.81736961451247	51	127
132.58517006802722	133.0263492063492	55	127
132.82897959183674	133.25854875283446	60	127
133.03795918367348	134.02480725623582	32	127
133.03795918367348	134.02480725623582	44	127
133.25854875283446	133.74616780045352	51	127
133.53718820861678	134.02480725623582	53	127
133.7577777777778	134.02480725623582	60	127
134.0364172335601	135.08131519274377	45	127
134.0364172335601	135.08131519274377	33	127
134.24539682539682	134.87233560090704	51	127
134.4427664399093	135.08131519274377	54	127
134.87233560090704	135.26707482993197	60	127
135.08131519274377	136.09138321995465	34	127
135.08131519274377	136.09138321995465	46	127
135.26707482993197	135.7895238095238	55	127
135.26707482993197	135.7895238095238	51	127
135.58054421768708	136.09138321995465	58	127
135.80113378684808	136.33519274376417	55	127
135.80113378684808	136.33519274376417	51	127
136.11458049886622	137.00857142857143	34	127
136.34680272108844	136.7995918367347	56	127
136.60222222222222	137.00857142857143	50	127
136.81120181405896	137.00857142857143	56	127
137.0201814058957	137.98380952380953	55	127
137.0201814058957	137.98380952380953	39	127
137.0201814058957	137.98380952380953	51	127
138.0070068027211	139.16802721088436	51	127
140.0503628117914	140.83986394557823	39	127
140.3174149659864	140.58444444444444	55	127
140.3174149659864	140.58444444444444	58	127
140.5960544217687	140.83986394557823	55	127
140.5960544217687	140.83986394557823	58	127
140.8514739229025	141.65256235827664	34	127
141.11850340136056	141.40875283446712	55	127
141.11850340136056	141.40875283446712	58	127
141.4203628117914	141.65256235827664	55	127
141.4203628117914	141.65256235827664	58	127
141.6641723356009	142.43043083900227	39	127
141.9195918367347	142.19820861678005	55	127
141.9195918367347	142.19820861678005	58	127
142.19820861678005	142.43043083900227	55	127
142.19820861678005	142.43043083900227	58	127
142.44204081632654	143.16185941043085	34	127
142.6742403628118	142.91802721088436	58	127
142.6742403628118	142.91802721088436	56	127
142.92965986394557	143.16185941043085	56	127
142.92965986394557	143.16185941043085	58	127
143.16185941043085	143.83521541950114	41	127
143.42886621315193	143.63786848072561	56	127
143.42886621315193	143.63786848072561	58	127
143.63786848072561	143.83521541950114	56	127
143.63786848072561	143.83521541950114	58	127
143.84684807256235	144.48539682539683	34	127
144.06743764172336	144.28802721088437	58	127
144.06743764172336	144.28802721088437	56	127
144.2996371882086	144.48539682539683	56	127
144.2996371882086	144.48539682539683	58	127
144.49698412698413	145.07750566893424	44	127
144.70596371882087	144.92657596371882	53	127
144.70596371882087	144.92657596371882	58	127
144.70596371882087	144.92657596371882	50	127
144.92657596371882	145.07750566893424	58	127
144.92657596371882	145.07750566893424	53	127
144.92657596371882	145.07750566893424	50	127
145.0891156462585	145.79732426303855	34	127
145.33292517006802	145.55351473922903	58	127
145.33292517006802	145.55351473922903	50	127
145.33292517006802	145.55351473922903	53	127
145.55351473922903	145.79732426303855	58	127
145.55351473922903	145.79732426303855	53	127
145.55351473922903	145.79732426303855	50	127
145.80893424036282	146.48231292517008	44	127
146.05274376417233	146.2501133786848	58	127
146.05274376417233	146.2501133786848	53	127
146.05274376417233	146.2501133786848	50	127
146.26172335600907	146.48231292517008	58	127
146.26172335600907	146.48231292517008	53	127
146.26172335600907	146.48231292517008	50	127
146.48231292517008	147.2253514739229	34	127
146.77256235827664	147.00473922902495	58	127
146.77256235827664	147.00473922902495	55	127
146.77256235827664	147.00473922902495	51	127
147.00473922902495	147.2253514739229	51	127
147.00473922902495	147.2253514739229	58	127
147.00473922902495	147.2253514739229	55	127
147.23696145124717	147.96839002267575	43	127
147.46916099773242	147.7245804988662	51	127
147.46916099773242	147.7245804988662	58	127
147.46916099773242	147.7245804988662	55	127
147.73619047619047	147.96839002267575	58	127
147.73619047619047	147.96839002267575	51	127
147.73619047619047	147.96839002267575	55	127
147.98	148.64174603174604	34	127
148.21219954648527	148.40956916099773	58	127
148.21219954648527	148.40956916099773	51	127
148.21219954648527	148.40956916099773	55	127
148.421179138322	148.64174603174604	58	127
148.421179138322	148.64174603174604	55	127
148.421179138322	148.64174603174604	51	127
148.65337868480725	149.19904761904763	39	127
148.87396825396826	149.0016553287982	58	127
148.87396825396826	149.0016553287982	55	127
149.0016553287982	149.19904761904763	58	127
149.0016553287982	149.19904761904763	55	127
149.21065759637187	149.83759637188209	34	127
149.45446712018142	149.59378684807257	58	127
149.45446712018142	149.59378684807257	55	127
149.60539682539684	149.83759637188209	58	127
149.60539682539684	149.83759637188209	55	127
149.83759637188209	150.52258503401362	39	127
150.09301587301587	150.29038548752834	55	127
150.09301587301587	150.29038548752834	58	127
150.29038548752834	150.52258503401362	55	127
150.29038548752834	150.52258503401362	58	127
150.5341723356009	151.1843537414966	34	127
150.76639455782313	150.97537414965987	58	127
150.76639455782313	150.97537414965987	56	127
150.98698412698414	151.1843537414966	56	127
150.98698412698414	151.1843537414966	58	127
151.1959410430839	151.8693424036281	41	127
151.4397732426304	151.66036281179137	58	127
151.4397732426304	151.66036281179137	56	127
151.67197278911564	151.8693424036281	56	127
151.67197278911564	151.8693424036281	58	127
151.88095238095238	152.51950113378686	34	127
152.1015419501134	152.31052154195012	58	127
152.1015419501134	152.31052154195012	56	127
152.31052154195012	152.51950113378686	56	127
152.31052154195012	152.51950113378686	58	127
152.5311111111111	153.21609977324263	46	127
152.80975056689343	152.99551020408163	56	127
152.80975056689343	152.99551020408163	62	127
152.80975056689343	152.99551020408163	58	127
153.0071201814059	153.21609977324263	62	127
153.0071201814059	153.21609977324263	58	127
153.0071201814059	153.21609977324263	56	127
153.21609977324263	153.8198185941043	34	127
153.45990929705215	153.62244897959184	62	127
153.45990929705215	153.62244897959184	58	127
153.45990929705215	153.62244897959184	56	127
153.62244897959184	153.8198185941043	62	127
153.62244897959184	153.8198185941043	58	127
153.62244897959184	153.8198185941043	56	127
153.83142857142857	154.52802721088435	46	127
154.08684807256236	154.33065759637188	58	127
154.08684807256236	154.33065759637188	56	127
154.08684807256236	154.33065759637188	62	127
154.34226757369615	154.52802721088435	62	127
154.34226757369615	154.52802721088435	56	127
154.34226757369615	154.52802721088435	58	127
154.53963718820862	154.74861678004535	39	127
154.76022675736962	154.9575963718821	51	127
154.96920634920636	155.1781859410431	55	127
155.18979591836734	155.43360544217688	58	127
155.44521541950112	155.68902494331067	63	127
155.68902494331067	155.9328344671202	67	127
155.9328344671202	156.16503401360544	70	127
156.1766439909297	156.46689342403627	69	127
156.46689342403627	156.75714285714287	68	127
156.79197278911565	157.53498866213152	67	127
156.79197278911565	157.53498866213152	51	127
157.0590022675737	157.30281179138322	55	127
157.30281179138322	157.53498866213152	58	127
157.54662131519274	158.3825396825397	70	127
157.54662131519274	158.02263038548753	46	127
157.73238095238096	157.8136507936508	55	127
157.8136507936508	158.02263038548753	58	127
158.02263038548753	158.68439909297052	51	127
158.26643990929705	158.51024943310657	55	127
158.39414965986396	158.68439909297052	75	127
158.52185941043084	158.68439909297052	58	127
158.6960090702948	159.4158276643991	75	127
158.6960090702948	159.4158276643991	46	127
158.92820861678004	159.16040816326532	56	127
159.1719954648526	159.4158276643991	58	127
159.4274149659864	160.44909297052155	74	127
159.4274149659864	160.0891836734694	53	127
159.65963718820862	159.86861678004536	56	127
159.88022675736963	160.0891836734694	58	127
160.0891836734694	160.7974149659864	46	127
160.33301587301588	160.5768253968254	56	127
160.46072562358276	160.7974149659864	75	127
160.5768253968254	160.7974149659864	58	127
160.8090022675737	162.1441723356009	77	127
161.02961451247165	161.15732426303856	58	127
161.15732426303856	161.40113378684808	56	127
161.40113378684808	162.1441723356009	46	127
161.65655328798186	161.90036281179138	56	127
161.91197278911565	162.1441723356009	58	127
162.15578231292517	162.66662131519274	74	127
162.3647619047619	162.5969387755102	58	127
162.60857142857142	162.82916099773243	56	127
162.678231292517	162.82916099773243	70	127
162.8407709750567	163.49092970521542	70	127
162.8407709750567	163.49092970521542	46	127
163.03814058956917	163.28195011337868	55	127
163.29356009070295	163.49092970521542	58	127
163.49092970521542	163.80439909297053	75	127
163.69990929705216	163.9088888888889	58	127
163.9088888888889	164.14108843537414	55	127
164.14108843537414	164.84929705215418	46	127
164.14108843537414	164.68675736961453	70	127
164.37328798185942	164.60548752834467	55	127
164.61709750566894	164.84929705215418	58	127
164.68675736961453	164.84929705215418	68	127
164.84929705215418	165.4530158730159	51	127
164.84929705215418	165.3136961451247	67	127
165.0350566893424	165.25562358276645	55	127
165.26725623582766	165.4530158730159	58	127
165.32530612244898	165.4530158730159	68	127
165.46462585034013	165.9754648526077	70	127
165.46462585034013	166.16122448979593	46	127
165.7200453514739	165.90580498866214	55	127
165.91739229024944	166.16122448979593	58	127
165.98707482993197	166.16122448979593	72	127
166.17281179138322	166.93907029478459	51	127
166.17281179138322	166.74172335600906	74	127
166.428231292517	166.6836507936508	55	127
166.695283446712	166.93907029478459	58	127
166.75333333333333	166.93907029478459	75	127
166.93907029478459	167.60086167800455	75	127
166.93907029478459	167.60086167800455	46	127
167.19448979591837	167.3918820861678	56	127
167.3918820861678	167.60086167800455	58	127
167.6124716553288	168.26263038548754	53	127
167.6124716553288	168.63414965986394	74	127
167.8098185941043	168.04204081632653	56	127
168.0536507936508	168.26263038548754	58	127
168.26263038548754	168.9592290249433	46	127
168.51804988662133	168.75024943310657	56	127
168.6457596371882	168.9592290249433	75	127
168.76185941043084	168.9592290249433	58	127
168.97083900226758	169.121768707483	76	127
169.121768707483	169.3075283446712	77	127
169.19140589569162	169.41201814058957	58	127
169.3075283446712	169.47006802721089	76	127
169.41201814058957	169.65582766439908	56	127
169.48167800453515	169.65582766439908	77	127
169.66743764172335	169.80673469387756	76	127
169.66743764172335	170.34081632653061	46	127
169.81836734693877	169.99251700680273	77	127
169.8764172335601	170.0970068027211	53	127
170.004126984127	170.15505668934242	79	127
170.1085941043084	170.34081632653061	56	127
170.16666666666666	170.34081632653061	77	127
170.34081632653061	171.13027210884354	46	127
170.34081632653061	170.5033560090703	75	127
170.5033560090703	170.72392290249434	74	127
170.5962358276644	170.87485260770976	53	127
170.73555555555555	170.93292517006802	72	127
170.87485260770976	171.13027210884354	56	127
170.9445351473923	171.13027210884354	70	127
171.14190476190475	171.85009070294785	51	127
171.14190476190475	171.54825396825396	70	127
171.14190476190475	171.85009070294785	39	127
171.55986394557823	171.85009070294785	75	127
173.89344671201815	174.7409977324263	39	127
173.89344671201815	174.7409977324263	51	127
174.14886621315193	174.4275283446712	58	127
174.43913832199547	174.7409977324263	66	127
174.75260770975058	175.4724263038549	39	127
174.75260770975058	175.4724263038549	51	127
174.97319727891156	175.22861678004534	58	127
175.2402267573696	175.4724263038549	66	127
175.48403628117913	176.38961451247167	39	127
175.48403628117913	176.38961451247167	51	127
175.84394557823128	176.1225850340136	58	127
176.1225850340136	176.38961451247167	66	127
176.4012244897959	177.10943310657598	34	127
176.4012244897959	177.10943310657598	46	127
176.64503401360545	176.86562358276643	62	127
176.64503401360545	176.86562358276643	56	127
176.64503401360545	176.86562358276643	58	127
176.8772335600907	177.10943310657598	65	127
177.10943310657598	177.9221315192744	46	127
177.10943310657598	177.9221315192744	34	127
177.38807256235827	177.6667120181406	56	127
177.38807256235827	177.6667120181406	62	127
177.38807256235827	177.6667120181406	58	127
177.6667120181406	177.9221315192744	65	127
177.9453514739229	178.69997732426305	34	127
177.9453514739229	178.69997732426305	46	127
178.18913832199547	178.43297052154196	62	127
178.18913832199547	178.43297052154196	56	127
178.18913832199547	178.43297052154196	58	127
178.44455782312926	178.69997732426305	65	127
178.71160997732426	179.51269841269843	42	127
178.71160997732426	179.51269841269843	30	127
179.0134693877551	179.28049886621315	58	127
179.0134693877551	179.28049886621315	54	127
179.29210884353742	179.51269841269843	63	127
179.52430839002267	180.29056689342403	42	127
179.52430839002267	180.29056689342403	30	127
179.79133786848072	180.03514739229024	54	127
179.79133786848072	180.03514739229024	58	127
180.03514739229024	180.29056689342403	63	127
180.3021768707483	181.17292517006803	39	127
180.3021768707483	181.17292517006803	27	127
180.56920634920635	180.91750566893424	58	127
180.56920634920635	180.91750566893424	63	127
180.9291156462585	181.17292517006803	66	127
181.17292517006803	181.9159410430839	34	127
181.17292517006803	181.9159410430839	46	127
181.17292517006803	181.4283446712018	65	127
181.17292517006803	181.4283446712018	62	127
181.17292517006803	181.4283446712018	58	127
181.43995464852608	181.67215419501133	70	127
181.67215419501133	181.9159410430839	69	127
181.9391836734694	182.1829931972789	70	127
182.1829931972789	182.42678004535148	72	127
182.4384126984127	182.6590022675737	74	127
182.67061224489797	182.91442176870748	75	127
182.91442176870748	183.20467120181405	76	127
183.21628117913832	183.52975056689343	77	127
183.52975056689343	184.2960090702948	51	127
183.52975056689343	184.2960090702948	39	127
183.52975056689343	184.2960090702948	78	127
183.52975056689343	184.2960090702948	66	127
183.52975056689343	184.2960090702948	46	127
184.30761904761906	185.02743764172337	51	127
184.30761904761906	185.02743764172337	46	127
184.30761904761906	185.02743764172337	39	127
184.30761904761906	185.02743764172337	78	127
184.30761904761906	185.02743764172337	66	127
185.03902494331066	185.80528344671202	51	127
185.03902494331066	185.80528344671202	46	127
185.03902494331066	185.80528344671202	39	127
185.03902494331066	185.72403628117914	78	127
185.03902494331066	185.72403628117914	66	127
185.72403628117914	185.8981859410431	66	127
185.72403628117914	185.8981859410431	78	127
185.80528344671202	186.51351473922904	65	127
185.80528344671202	186.51351473922904	46	127
185.80528344671202	186.51351473922904	77	127
185.80528344671202	186.51351473922904	34	127
186.52512471655328	187.22172335600908	46	127
186.52512471655328	187.22172335600908	34	127
186.52512471655328	187.03596371882085	77	127
186.52512471655328	187.03596371882085	65	127
187.03596371882085	187.22172335600908	63	127
187.03596371882085	187.22172335600908	75	127
187.22172335600908	187.90671201814058	46	127
187.22172335600908	187.90671201814058	34	127
187.22172335600908	187.74414965986395	74	127
187.22172335600908	187.74414965986395	62	127
187.75578231292516	187.90671201814058	65	127
187.75578231292516	187.90671201814058	77	127
187.91832199546485	188.58009070294784	42	127
187.91832199546485	188.58009070294784	30	127
187.91832199546485	188.58009070294784	34	127
187.91832199546485	188.58009070294784	63	127
187.91832199546485	188.58009070294784	75	127
188.5917006802721	189.33473922902493	34	127
188.5917006802721	189.33473922902493	75	127
188.5917006802721	189.33473922902493	30	127
188.5917006802721	189.33473922902493	42	127
188.5917006802721	189.33473922902493	63	127
189.33473922902493	190.05455782312924	39	127
189.33473922902493	190.05455782312924	66	127
189.33473922902493	190.05455782312924	78	127
189.33473922902493	190.05455782312924	46	127
190.0661678004535	191.32004535147394	46	127
190.0661678004535	191.32004535147394	34	127
190.0661678004535	191.32004535147394	77	127
190.0661678004535	190.83242630385487	65	127
191.33165532879818	191.5174149659864	74	127
191.33165532879818	191.5174149659864	46	127
191.52902494331065	192.07469387755103	75	127
191.52902494331065	192.07469387755103	42	127
192.0863038548753	192.26045351473923	39	127
192.0863038548753	192.26045351473923	78	127
192.2720634920635	193.63043083900226	46	127
192.2720634920635	193.63043083900226	34	127
192.2720634920635	193.63043083900226	77	127
193.64204081632653	193.82780045351473	46	127
193.64204081632653	193.82780045351473	74	127
193.839410430839	194.30380952380952	75	127
193.839410430839	194.30380952380952	42	127
194.30380952380952	194.47795918367348	39	127
194.30380952380952	194.47795918367348	78	127
194.47795918367348	194.95396825396824	77	127
194.47795918367348	194.95396825396824	34	127
194.9655782312925	195.13972789115647	46	127
194.9655782312925	195.13972789115647	74	127
195.13972789115647	195.7202267573696	75	127
195.13972789115647	195.7202267573696	42	127
195.7550566893424	195.85954648526078	78	127
195.7550566893424	195.85954648526078	39	127
195.85954648526078	196.3819954648526	77	127
195.85954648526078	196.3819954648526	34	127
196.3819954648526	196.55614512471655	74	127
196.3819954648526	196.55614512471655	46	127
196.56775510204082	197.11342403628117	42	127
196.56775510204082	197.11342403628117	75	127
197.1366439909297	197.3224036281179	78	127
197.1366439909297	197.3224036281179	39	127
197.3224036281179	197.84485260770975	77	127
197.3224036281179	197.84485260770975	34	127
197.85646258503402	198.00739229024944	46	127
197.85646258503402	198.00739229024944	74	127
198.01900226757368	198.57628117913833	75	127
198.01900226757368	198.57628117913833	42	127
198.58789115646258	198.80848072562358	78	127
198.58789115646258	198.80848072562358	39	127
198.82009070294785	199.20321995464852	77	127
199.20321995464852	199.56312925170067	74	127
199.57473922902494	199.91142857142856	75	127
199.92303854875283	200.2481179138322	79	127
200.2481179138322	200.60802721088436	73	127
200.61963718820863	200.9331065759637	74	127
200.94471655328798	201.28140589569162	77	127
201.28140589569162	201.6297052154195	71	127
201.28140589569162	201.6297052154195	62	127
201.6297052154195	201.96639455782312	72	127
201.6297052154195	201.96639455782312	63	127
201.9780045351474	202.2914739229025	67	127
201.9780045351474	202.2914739229025	75	127
202.30308390022677	202.6281632653061	69	127
202.30308390022677	202.6281632653061	61	127
202.6281632653061	202.94163265306122	70	127
202.6281632653061	202.94163265306122	62	127
202.9532426303855	203.31315192743764	74	127
202.9532426303855	203.31315192743764	65	127
203.3247619047619	203.68467120181407	67	127
203.3247619047619	203.68467120181407	59	127
203.68467120181407	204.04458049886622	60	127
203.68467120181407	204.04458049886622	68	127
204.06780045351474	204.47414965986394	72	127
204.06780045351474	204.47414965986394	56	127
204.4857596371882	204.88049886621314	64	127
204.4857596371882	204.88049886621314	55	127
204.89210884353741	205.3681179138322	53	127
204.89210884353741	205.3681179138322	65	127
205.37972789115645	206.07632653061225	53	127
205.37972789115645	205.6467573696145	68	127
205.37972789115645	206.07632653061225	46	127
205.65836734693877	205.92539682539683	61	127
205.9370068027211	206.07632653061225	62	127
206.08793650793652	206.29691609977326	65	127
206.3085260770975	206.54072562358277	57	127
206.55233560090704	206.70326530612246	58	127
206.7148752834467	206.9354648526077	59	127
206.9354648526077	207.14444444444445	60	127
207.15605442176872	207.42308390022677	61	127
207.434693877551	207.7597732426304	62	127
207.77138321995466	208.20095238095237	63	127
208.21256235827664	208.63052154195012	64	127
208.6421315192744	209.11814058956915	65	127
209.1413605442177	209.6986394557823	66	127
209.71024943310658	210.24430839002267	67	127
210.25591836734694	210.9989569160998	46	127
210.25591836734694	211.56784580498865	68	127
211.01056689342403	211.7419954648526	58	127
211.56784580498865	211.7419954648526	65	127
211.7419954648526	212.3108843537415	70	127
211.7419954648526	212.45020408163265	56	127
212.3108843537415	212.45020408163265	62	127
212.46181405895692	213.98272108843537	63	127
212.46181405895692	213.20485260770974	55	127
213.216462585034	213.98272108843537	51	127
213.99433106575964	214.8534693877551	50	127
213.99433106575964	214.4122902494331	65	127
214.4122902494331	214.65609977324263	68	127
214.6677097505669	214.8534693877551	67	127
214.86507936507937	215.59650793650795	51	127
214.86507936507937	216.35115646258504	67	127
215.59650793650795	216.35115646258504	49	127
216.3627664399093	216.7691156462585	48	127
216.3627664399093	216.53691609977324	68	127
216.4556462585034	216.62979591836734	70	127
216.5485260770975	216.7691156462585	68	127
216.62979591836734	216.88521541950112	70	127
216.7691156462585	216.9897052154195	72	127
216.7691156462585	217.18707482993196	44	127
216.9897052154195	217.18707482993196	70	127
217.19868480725623	218.6847619047619	70	127
217.19868480725623	217.94172335600908	51	127
217.95333333333335	218.6847619047619	55	127
218.69637188208617	218.91696145124718	75	127
218.69637188208617	219.46263038548753	51	127
218.92857142857142	219.11433106575964	74	127
219.1259410430839	219.30009070294784	72	127
219.30009070294784	219.46263038548753	70	127
219.46263038548753	220.80938775510205	70	127
219.46263038548753	220.11278911564625	50	127
220.12439909297052	220.80938775510205	46	127
220.8209977324263	221.00675736961452	70	127
220.8209977324263	221.5408163265306	47	127
220.91387755102042	221.19251700680272	68	127
221.204126984127	221.3550566893424	67	127
221.36666666666667	221.5408163265306	68	127
221.5756462585034	222.36512471655328	48	127
221.5756462585034	221.77301587301588	67	127
221.68013605442178	221.86589569160998	68	127
221.77301587301588	221.95877551020408	70	127
221.86589569160998	222.36512471655328	68	127
222.37673469387755	223.20104308390023	36	127
222.37673469387755	223.20104308390023	67	127
223.20104308390023	224.38526077097507	53	127
223.20104308390023	224.38526077097507	44	127
223.20104308390023	223.44485260770975	65	127
223.3287528344671	223.57256235827666	67	127
223.45646258503402	223.65383219954649	65	127
223.57256235827666	223.82798185941044	64	127
223.73510204081632	224.00213151927437	65	127
223.85120181405895	224.10662131519274	68	127
224.14145124716552	224.38526077097507	72	127
224.3968707482993	225.26761904761904	45	127
224.3968707482993	225.26761904761904	54	127
224.3968707482993	224.93092970521542	72	127
224.93092970521542	225.67396825396824	63	127
225.2792290249433	226.0687074829932	55	127
225.2792290249433	226.0687074829932	46	127
225.6855782312925	225.85972789115647	65	127
225.7784580498866	225.96421768707484	63	127
225.87133786848074	226.0687074829932	62	127
225.9758276643991	226.1848072562358	63	127
226.08031746031747	227.07877551020408	46	127
226.08031746031747	227.07877551020408	34	127
226.08031746031747	227.07877551020408	62	127
226.08031746031747	226.86979591836734	67	127
226.8814058956916	227.07877551020408	65	127
227.09038548752835	227.81020408163266	39	127
227.09038548752835	227.81020408163266	63	127
227.8218140589569	228.63451247165534	51	127
229.458820861678	230.19024943310657	34	127
229.71424036281178	229.95804988662132	53	127
229.95804988662132	230.19024943310657	58	127
230.20185941043084	230.91006802721088	46	127
230.42244897959185	230.6546485260771	53	127
230.42244897959185	230.6546485260771	50	127
230.66625850340137	230.91006802721088	58	127
230.91006802721088	231.61827664399092	44	127
231.1538775510204	231.3744671201814	50	127
231.1538775510204	231.3744671201814	53	127
231.3744671201814	231.61827664399092	58	127
231.6298866213152	232.37292517006802	43	127
231.8736961451247	232.11750566893423	51	127
231.8736961451247	232.11750566893423	55	127
232.1291156462585	232.37292517006802	58	127
232.38453514739228	233.13918367346938	39	127
232.63995464852607	232.87215419501135	51	127
232.63995464852607	232.87215419501135	55	127
232.8837641723356	233.13918367346938	58	127
233.15079365079364	233.917052154195	38	127
233.40621315192743	233.6732426303855	56	127
233.40621315192743	233.6732426303855	53	127
233.6732426303855	233.917052154195	58	127
233.92866213151927	234.63687074829932	39	127
234.1724716553288	234.42789115646258	55	127
234.1724716553288	234.42789115646258	58	127
234.43950113378685	234.63687074829932	63	127
234.63687074829932	235.03160997732425	51	127
234.90390022675737	235.17092970521543	55	127
234.90390022675737	235.17092970521543	58	127
235.04321995464852	235.44956916099773	49	127
235.17092970521543	235.44956916099773	63	127
235.461179138322	235.78625850340137	48	127
235.69337868480724	235.91396825396825	60	127
235.69337868480724	235.91396825396825	56	127
235.78625850340137	236.16938775510204	44	127
235.92557823129252	236.16938775510204	63	127
236.1809977324263	236.90081632653062	39	127
236.1809977324263	236.90081632653062	51	127
236.42480725623582	236.66861678004534	58	127
236.42480725623582	236.66861678004534	55	127
236.6802267573696	236.90081632653062	63	127
236.9124263038549	237.5974149659864	43	127
236.9124263038549	237.5974149659864	55	127
237.14462585034013	237.40004535147392	58	127
237.40004535147392	237.5974149659864	63	127
237.60902494331066	238.4101133786848	51	127
237.60902494331066	238.4101133786848	39	127
237.82961451247166	238.1314739229025	55	127
238.14308390022677	238.4101133786848	58	127
238.4101133786848	239.18798185941043	38	127
238.4101133786848	239.18798185941043	50	127
238.68875283446712	238.96739229024942	53	127
238.96739229024942	239.18798185941043	58	127
239.1995918367347	239.94263038548752	34	127
239.1995918367347	239.94263038548752	46	127
239.44340136054421	239.68721088435373	53	127
239.698820861678	239.94263038548752	62	127
239.9542403628118	240.73210884353742	35	127
239.9542403628118	240.73210884353742	47	127
240.22126984126984	240.46507936507936	53	127
240.22126984126984	240.46507936507936	56	127
240.47668934240363	240.73210884353742	62	127
240.7437188208617	241.61446712018142	48	127
240.7437188208617	241.61446712018142	36	127
241.04557823129252	241.31260770975058	53	127
241.04557823129252	241.31260770975058	56	127
241.31260770975058	241.61446712018142	62	127
241.62607709750566	242.45038548752834	36	127
241.88149659863944	242.1485260770975	51	127
241.88149659863944	242.1485260770975	55	127
242.16013605442177	242.45038548752834	63	127
242.45038548752834	243.35596371882087	32	127
242.45038548752834	243.35596371882087	44	127
242.74063492063493	243.01927437641723	51	127
242.74063492063493	243.01927437641723	53	127
243.01927437641723	243.35596371882087	60	127
243.36757369614512	244.33120181405894	45	127
243.36757369614512	244.33120181405894	33	127
243.71587301587303	244.01773242630387	54	127
243.71587301587303	244.01773242630387	51	127
244.04095238095238	244.33120181405894	60	127
244.3428117913832	245.28321995464853	34	127
244.3428117913832	245.28321995464853	46	127
244.6330612244898	244.99297052154196	51	127
244.6330612244898	244.99297052154196	55	127
245.0045804988662	245.28321995464853	58	127
245.2948299319728	246.1075283446712	34	127
245.5734693877551	245.82888888888888	56	127
245.5734693877551	245.82888888888888	50	127
245.82888888888888	246.1075283446712	58	127
246.11913832199548	246.94344671201813	55	127
246.11913832199548	246.94344671201813	51	127
246.11913832199548	246.94344671201813	39	127
246.9550566893424	247.88385487528345	51	127
247.89546485260772	248.6501133786848	67	127
248.66172335600908	250.13619047619048	62	127
248.66172335600908	250.13619047619048	59	127
248.66172335600908	250.13619047619048	67	127
250.13619047619048	250.68185941043083	63	127
250.13619047619048	250.90244897959184	67	127
250.13619047619048	250.68185941043083	60	127
250.13619047619048	250.68185941043083	68	127
250.6934693877551	250.90244897959184	71	127
250.6934693877551	250.90244897959184	65	127
250.6934693877551	250.90244897959184	62	127
250.9140589569161	252.44657596371883	67	127
250.9140589569161	252.44657596371883	72	127
250.9140589569161	252.44657596371883	63	127
252.4581859410431	253.06190476190477	62	127
252.4581859410431	253.2708843537415	67	127
252.4581859410431	253.06190476190477	70	127
252.4581859410431	253.06190476190477	65	127
253.073514739229	253.2708843537415	69	127
253.073514739229	253.2708843537415	60	127
253.073514739229	253.2708843537415	63	127
253.28249433106575	254.03714285714287	58	127
253.28249433106575	254.66408163265305	67	127
253.28249433106575	254.03714285714287	62	127
254.03714285714287	254.66408163265305	50	127
254.03714285714287	254.66408163265305	58	127
254.58281179138322	254.73374149659864	70	127
254.67569160997732	255.14009070294784	69	127
254.67569160997732	255.32585034013604	50	127
254.67569160997732	255.32585034013604	66	127
254.67569160997732	255.32585034013604	60	127
255.14009070294784	255.32585034013604	67	127
255.32585034013604	255.69736961451247	67	127
255.32585034013604	256.1037188208617	55	127
255.32585034013604	256.1037188208617	58	127
255.70897959183674	256.1037188208617	79	127
256.11532879818594	256.3475283446712	79	127
256.3475283446712	256.7306575963719	79	127
256.74226757369615	257.485306122449	59	127
256.74226757369615	257.1021768707483	79	127
256.74226757369615	257.485306122449	62	127
257.11378684807255	257.485306122449	79	127
257.485306122449	257.6710657596372	79	127
257.485306122449	258.9481632653061	59	127
257.485306122449	258.9481632653061	62	127
257.5781859410431	257.7639455782313	80	127
257.6710657596372	257.8568253968254	79	127
257.77555555555557	257.96131519274377	80	127
257.86843537414967	258.0425850340136	79	127
257.97292517006804	258.1238548752834	80	127
258.05419501133787	258.2283446712018	79	127
258.1354648526077	258.32120181405895	80	127
258.23995464852607	258.4024943310658	79	127
258.32120181405895	258.4953741496599	80	127
258.41408163265305	258.59986394557825	79	127
258.50698412698415	258.69274376417235	80	127
258.59986394557825	258.7624036281179	79	127
258.69274376417235	258.855283446712	80	127
258.7624036281179	258.9481632653061	79	127
258.855283446712	259.0410430839002	80	127
258.9597732426304	259.6215419501134	63	127
258.9597732426304	259.19197278911565	79	127
258.9597732426304	259.6215419501134	60	127
259.0526530612245	259.28485260770975	80	127
259.2035827664399	259.41256235827666	79	127
259.31968253968256	259.50544217687076	80	127
259.42417233560093	259.6215419501134	79	127
259.5286621315193	259.7144217687075	80	127
259.63315192743767	259.81891156462586	65	127
259.63315192743767	259.81891156462586	62	127
259.63315192743767	259.81891156462586	79	127
259.72603174603177	259.9001814058957	80	127
259.83052154195013	261.281746031746	63	127
259.83052154195013	261.281746031746	67	127
259.83052154195013	259.9930612244898	79	127
259.9001814058957	260.0743310657596	80	127
259.9930612244898	260.1672108843537	79	127
260.0743310657596	260.2600680272109	80	127
260.1672108843537	260.352970521542	79	127
260.2717006802721	260.4458503401361	80	127
260.36455782312925	260.55034013605444	79	127
260.45746031746035	260.64321995464854	80	127
260.5619274376417	260.73609977324264	79	127
260.6780498866213	260.86380952380955	80	127
260.8057596371882	260.9798866213152	79	127
260.92185941043084	261.1192290249433	78	127
261.1192290249433	261.281746031746	79	127
261.281746031746	261.8738775510204	62	127
261.281746031746	261.6648979591837	79	127
261.281746031746	261.8738775510204	65	127
261.67650793650796	262.0596371882086	79	127
261.8854875283447	262.0596371882086	63	127
261.8854875283447	262.0596371882086	60	127
262.0712471655329	262.77945578231294	58	127
262.0712471655329	262.431156462585	79	127
262.0712471655329	262.77945578231294	62	127
262.431156462585	262.77945578231294	79	127
262.7910657596372	263.4760544217687	58	127
262.7910657596372	263.4760544217687	50	127
263.1741950113379	263.4760544217687	79	127
263.487664399093	264.18426303854875	50	127
263.487664399093	264.18426303854875	60	127
263.87079365079364	264.18426303854875	78	127
264.18426303854875	264.86925170068025	55	127
264.18426303854875	264.86925170068025	79	127
264.18426303854875	264.86925170068025	58	127
264.7879818594104	264.9621088435374	82	127
264.86925170068025	265.5658503401361	62	127
264.86925170068025	265.5658503401361	72	127
264.86925170068025	265.40331065759636	81	127
265.41492063492063	265.5658503401361	79	127
265.57743764172335	266.29725623582766	70	127
265.57743764172335	266.29725623582766	67	127
265.57743764172335	266.29725623582766	79	127
266.3088888888889	266.99387755102043	50	127
266.3088888888889	266.99387755102043	62	127
266.6571882086168	266.99387755102043	72	127
266.6571882086168	266.99387755102043	78	127
266.6571882086168	266.99387755102043	74	127
267.0054648526077	267.7020861678005	43	127
267.0054648526077	267.7020861678005	55	127
267.36539682539683	267.7020861678005	70	127
267.36539682539683	267.7020861678005	79	127
267.36539682539683	267.7020861678005	74	127
267.62079365079364	267.7949659863946	82	127
267.71369614512474	268.4219047619048	62	127
267.71369614512474	268.4219047619048	72	127
267.71369614512474	268.2361224489796	81	127
268.2361224489796	268.4219047619048	79	127
268.4219047619048	269.095283446712	79	127
268.4219047619048	269.095283446712	67	127
268.4219047619048	269.095283446712	70	127
269.1068934240363	269.7918820861678	62	127
269.1068934240363	269.7918820861678	50	127
269.46678004535147	269.7918820861678	74	127
269.46678004535147	269.7918820861678	72	127
269.46678004535147	269.7918820861678	78	127
269.80349206349206	270.4884580498866	43	127
269.80349206349206	270.4884580498866	55	127
270.16340136054424	270.4884580498866	74	127
270.16340136054424	270.4884580498866	79	127
270.16340136054424	270.4884580498866	70	127
270.50009070294783	271.20829931972787	38	127
270.50009070294783	271.20829931972787	50	127
270.8716099773243	271.20829931972787	74	127
270.8716099773243	271.20829931972787	78	127
270.8716099773243	271.20829931972787	72	127
271.20829931972787	271.8700680272109	43	127
271.20829931972787	271.8700680272109	55	127
271.5798185941043	271.8700680272109	74	127
271.5798185941043	271.8700680272109	70	127
271.5798185941043	271.8700680272109	79	127
271.88167800453516	272.7175963718821	38	127
271.88167800453516	272.7175963718821	50	127
272.3112471655329	272.7175963718821	74	127
272.3112471655329	272.7175963718821	78	127
272.3112471655329	272.7175963718821	72	127
272.7175963718821	273.3677551020408	74	127
272.7175963718821	273.3677551020408	70	127
272.7175963718821	273.3677551020408	79	127
272.7175963718821	273.7857142857143	43	127
272.7175963718821	273.7857142857143	55	127
273.3677551020408	274.1804535147392	67	127
274.1804535147392	275.12086167800453	67	127
275.12086167800453	276.15414965986395	67	127
276.15414965986395	276.3863492063492	66	127
276.3863492063492	276.56049886621315	67	127
276.56049886621315	276.7694784580499	66	127
276.7694784580499	276.96684807256236	67	127
276.96684807256236	277.1758276643991	66	127
277.1758276643991	277.41963718820864	67	127
277.41963718820864	277.59378684807257	66	127
277.59378684807257	277.77954648526077	67	127
277.77954648526077	278.0233560090703	66	127
278.0233560090703	278.36002267573696	67	127
278.36002267573696	279.17272108843537	46	127
278.36002267573696	279.69519274376415	68	127
279.1843537414966	279.86934240362814	58	127
279.69519274376415	279.86934240362814	65	127
279.8809523809524	280.58916099773245	56	127
279.8809523809524	280.39179138322	70	127
280.40337868480725	280.58916099773245	62	127
280.6007482993197	281.3902494331066	55	127
280.6007482993197	282.19133786848073	63	127
281.40185941043086	282.19133786848073	51	127
282.19133786848073	282.5280272108844	65	127
282.19133786848073	282.89954648526077	50	127
282.53963718820864	282.7021768707483	68	127
282.7137868480726	282.89954648526077	67	127
282.91115646258504	283.68902494331064	51	127
282.91115646258504	284.4668934240363	67	127
283.7006349206349	284.4668934240363	49	127
284.47850340136057	284.6990702947846	68	127
284.47850340136057	284.8732426303855	48	127
284.6062131519274	284.7919501133787	70	127
284.6990702947846	284.8732426303855	68	127
284.7919501133787	284.9661224489796	70	127
284.8732426303855	285.08222222222224	72	127
284.8732426303855	285.291201814059	44	127
285.0938321995465	285.291201814059	70	127
285.30278911564625	286.881768707483	70	127
285.30278911564625	286.0574603174603	51	127
286.0574603174603	286.881768707483	55	127
286.89337868480726	287.0675283446712	75	127
286.89337868480726	287.65961451247165	51	127
287.07913832199546	287.26489795918366	74	127
287.26489795918366	287.4738775510204	72	127
287.4738775510204	287.65961451247165	70	127
287.67124716553286	288.3562358276644	50	127
287.67124716553286	289.13410430839	70	127
288.3678458049887	289.13410430839	46	127
289.15732426303856	289.35469387755103	70	127
289.15732426303856	289.9932426303855	47	127
289.25020408163266	289.5520634920635	68	127
289.56367346938777	289.79587301587304	67	127
289.79587301587304	289.9932426303855	68	127
289.9932426303855	290.8059410430839	48	127
289.9932426303855	290.1790022675737	67	127
290.0861224489796	290.2718820861678	68	127
290.190612244898	290.3995918367347	70	127
290.29510204081635	290.8059410430839	68	127
290.8175510204082	291.7231292517007	67	127
290.8175510204082	291.7231292517007	36	127
291.74632653061224	292.69836734693877	53	127
291.74632653061224	291.93210884353743	65	127
291.74632653061224	292.69836734693877	44	127
291.82761904761907	292.001768707483	67	127
291.93210884353743	292.05979591836734	65	127
292.01337868480726	292.21074829931973	64	127
292.10625850340136	292.33845804988664	65	127
292.222358276644	292.47777777777776	68	127
292.51260770975057	292.69836734693877	72	127
292.70997732426304	293.61555555555555	54	127
292.70997732426304	293.2208163265306	72	127
292.70997732426304	293.61555555555555	45	127
293.2208163265306	294.05673469387756	63	127
293.6271655328798	294.47469387755103	55	127
293.6271655328798	294.47469387755103	46	127
294.0683446712018	294.27732426303857	65	127
294.1612244897959	294.38181405895693	63	127
294.27732426303857	294.47469387755103	62	127
294.38181405895693	294.56757369614513	63	127
294.47469387755103	295.14807256235827	67	127
294.47469387755103	295.3338095238095	62	127
294.47469387755103	295.3338095238095	34	127
294.47469387755103	295.3338095238095	46	127
295.14807256235827	295.3338095238095	65	127
295.3338095238095	296.1117006802721	39	127
295.3338095238095	296.1117006802721	63	127
296.1117006802721	297.11015873015873	51	127
297.11015873015873	297.8531972789116	59	127
297.11015873015873	297.8531972789116	62	127
297.8531972789116	298.23632653061225	43	127
297.8531972789116	299.40893424036284	59	127
297.8531972789116	299.40893424036284	62	127
298.2479365079365	298.6194557823129	55	127
298.6310657596372	299.0258049886621	55	127
299.0258049886621	299.40893424036284	55	127
299.4205215419501	299.9778231292517	63	127
299.4205215419501	299.9778231292517	60	127
299.4205215419501	299.78045351473924	55	127
299.7920634920635	300.1635827664399	55	127
299.989433106576	300.1635827664399	62	127
299.989433106576	300.1635827664399	65	127
300.17519274376417	301.71931972789116	63	127
300.17519274376417	301.71931972789116	67	127
300.17519274376417	300.55832199546484	55	127
300.55832199546484	300.94145124716556	55	127
300.95303854875283	301.3361904761905	55	127
301.34780045351476	301.71931972789116	55	127
301.71931972789116	302.1024489795918	55	127
301.71931972789116	302.2998185941043	62	127
301.71931972789116	302.2998185941043	65	127
302.1140589569161	302.50879818594103	55	127
302.31142857142856	302.50879818594103	60	127
302.31142857142856	302.50879818594103	66	127
302.5204081632653	302.9267573696145	62	127
302.5204081632653	303.3331065759637	43	127
302.5204081632653	302.9267573696145	67	127
302.5204081632653	302.9267573696145	58	127
302.9267573696145	303.3331065759637	62	127
302.9267573696145	303.3331065759637	58	127
303.344716553288	304.0645351473923	50	127
303.70460317460316	304.0645351473923	58	127
303.70460317460316	304.0645351473923	62	127
304.07614512471656	304.90045351473924	38	127
304.49410430839004	304.90045351473924	62	127
304.49410430839004	304.90045351473924	60	127
304.49410430839004	304.90045351473924	66	127
304.9120634920635	305.67832199546484	43	127
304.9120634920635	305.67832199546484	67	127
304.9120634920635	305.67832199546484	62	127
304.9120634920635	305.67832199546484	58	127
306.21238095238095	306.8160997732426	67	127
306.21238095238095	306.8160997732426	62	127
306.21238095238095	306.8160997732426	59	127
306.8277097505669	308.34861678004535	67	127
306.8277097505669	308.34861678004535	62	127
306.8277097505669	308.34861678004535	59	127
308.34861678004535	308.90589569161	68	127
308.34861678004535	308.90589569161	60	127
308.34861678004535	308.90589569161	63	127
308.91750566893427	309.11487528344674	62	127
308.91750566893427	309.11487528344674	65	127
308.91750566893427	309.11487528344674	71	127
309.126462585034	310.61256235827665	72	127
309.126462585034	310.61256235827665	67	127
309.126462585034	310.61256235827665	63	127
310.6241723356009	311.1698185941043	65	127
310.6241723356009	311.1698185941043	62	127
310.6241723356009	311.1698185941043	70	127
311.1698185941043	311.3439909297052	69	127
311.1698185941043	311.3439909297052	63	127
311.1698185941043	311.3439909297052	60	127
311.3556009070295	312.01736961451246	58	127
311.3556009070295	312.7604081632653	67	127
311.3556009070295	312.01736961451246	62	127
312.01736961451246	312.7604081632653	50	127
312.01736961451246	312.7604081632653	58	127
312.6791383219955	312.8648979591837	70	127
312.7720181405896	313.42215419501133	60	127
312.7720181405896	313.42215419501133	50	127
312.87650793650795	313.34090702947844	69	127
313.2944671201814	313.42215419501133	67	127
313.42215419501133	314.06072562358275	55	127
313.42215419501133	314.06072562358275	58	127
313.42215419501133	314.06072562358275	67	127
314.072335600907	314.78054421768707	38	127
314.072335600907	314.78054421768707	50	127
314.42063492063494	314.78054421768707	62	127
314.42063492063494	314.78054421768707	60	127
314.42063492063494	314.78054421768707	66	127
314.78054421768707	315.51197278911565	55	127
314.78054421768707	315.51197278911565	43	127
315.175283446712	315.51197278911565	62	127
315.175283446712	315.51197278911565	67	127
315.175283446712	315.51197278911565	58	127
315.4655102040816	315.6280725623583	70	127
315.51197278911565	316.19696145124715	50	127
315.51197278911565	316.0692517006803	69	127
315.51197278911565	315.8834693877551	60	127
315.8951020408163	316.19696145124715	62	127
316.08083900226757	316.19696145124715	67	127
316.2085714285714	316.51043083900225	58	127
316.2085714285714	316.87034013605444	67	127
316.2085714285714	316.87034013605444	55	127
316.5220408163265	316.87034013605444	62	127
316.87034013605444	317.5088662131519	38	127
316.87034013605444	317.5088662131519	50	127
317.14897959183673	317.5088662131519	60	127
317.14897959183673	317.5088662131519	66	127
317.14897959183673	317.5088662131519	62	127
317.52049886621313	318.27514739229025	55	127
317.52049886621313	318.27514739229025	43	127
317.8804081632653	318.27514739229025	67	127
317.8804081632653	318.27514739229025	58	127
317.8804081632653	318.27514739229025	62	127
318.1938775510204	318.3564172335601	70	127
318.2867573696145	318.90208616780046	50	127
318.2867573696145	318.7975963718821	69	127
318.2867573696145	318.6118367346939	60	127
318.62344671201816	318.90208616780046	62	127
318.80920634920636	318.90208616780046	67	127
318.90208616780046	319.5754648526077	55	127
318.90208616780046	319.5754648526077	67	127
318.90208616780046	319.21555555555557	58	127
319.22716553287984	319.5754648526077	62	127
319.49419501133787	319.6451247165533	70	127
319.58707482993196	320.248843537415	50	127
319.58707482993196	319.91215419501134	60	127
319.58707482993196	320.1095238095238	69	127
319.9237641723356	320.248843537415	62	127
320.1095238095238	320.248843537415	67	127
320.248843537415	320.57390022675736	58	127
320.248843537415	320.94544217687076	67	127
320.248843537415	320.94544217687076	55	127
320.58551020408163	320.94544217687076	62	127
320.8641723356009	321.0499319727891	70	127
320.957052154195	321.7349206349206	50	127
320.957052154195	321.5259410430839	69	127
320.957052154195	321.3401814058957	60	127
321.3401814058957	321.7349206349206	62	127
321.53755102040816	321.7349206349206	67	127
321.7349206349206	322.721746031746	67	127
321.7349206349206	322.721746031746	55	127
321.7349206349206	322.721746031746	58	127
327.73725623582766	328.54995464852607	34	127
327.9694784580499	328.32938775510206	50	127
328.1552380952381	328.54995464852607	53	127
328.34099773242633	328.7589342403628	58	127
328.5615873015873	329.42072562358277	46	127
328.7589342403628	329.15369614512474	50	127
328.96791383219954	329.42072562358277	53	127
329.15369614512474	329.60648526077097	58	127
329.43233560090704	330.24503401360545	44	127
329.6297052154195	330.0128344671202	50	127
329.83868480725624	330.24503401360545	53	127
330.02444444444444	330.24503401360545	58	127
330.24503401360545	330.9880725623583	43	127
330.4540136054422	330.8139229024943	51	127
330.6281632653061	330.9880725623583	55	127
330.8255328798186	331.18544217687077	58	127
330.99968253968257	331.75433106575963	39	127
331.19705215419503	331.56857142857143	51	127
331.38281179138323	331.75433106575963	55	127
331.56857142857143	331.97492063492064	58	127
331.75433106575963	332.5902494331066	38	127
331.9865306122449	332.36965986394557	53	127
332.1839002267574	332.5902494331066	56	127
332.38126984126984	332.5902494331066	58	127
332.60185941043085	333.3681179138322	39	127
332.7992290249433	333.1707482993197	55	127
332.9849886621315	333.3681179138322	58	127
333.1707482993197	333.55387755102043	63	127
333.37972789115645	333.7512471655329	51	127
333.5654648526077	333.9370068027211	55	127
333.7628344671202	334.13437641723357	49	127
333.7628344671202	334.13437641723357	58	127
333.94861678004537	334.33174603174604	63	127
334.13437641723357	334.55233560090704	48	127
334.33174603174604	334.7497052154195	56	127
334.5639455782313	334.95868480725625	60	127
334.5639455782313	334.95868480725625	44	127
334.7613151927438	334.95868480725625	63	127
334.9702947845805	335.7597732426304	51	127
335.167664399093	335.55079365079365	55	127
335.36503401360545	335.7597732426304	58	127
335.55079365079365	335.95714285714286	63	127
335.7597732426304	336.5144217687075	39	127
335.9687528344671	336.3286394557823	55	127
336.1545124716553	336.5144217687075	58	127
336.3402721088435	336.7001814058957	63	127
336.5260090702948	337.3039002267574	39	127
336.5260090702948	337.3039002267574	51	127
336.7001814058957	337.09492063492064	55	127
336.8859410430839	337.3039002267574	58	127
337.09492063492064	337.3039002267574	55	127
337.31551020408165	338.1165986394558	50	127
337.31551020408165	338.1165986394558	38	127
337.5244897959184	337.90761904761905	53	127
337.7102494331066	338.1165986394558	58	127
337.9192290249433	338.31396825396826	53	127
338.1165986394558	338.8944671201814	34	127
338.1165986394558	338.8944671201814	46	127
338.31396825396826	338.6970975056689	53	127
338.5113378684807	338.8944671201814	62	127
338.7087074829932	339.09183673469386	53	127
338.90607709750566	339.7768253968254	47	127
338.90607709750566	339.7768253968254	35	127
339.1034467120181	339.53301587301587	53	127
339.32403628117913	339.7768253968254	56	127
339.53301587301587	339.7768253968254	62	127
339.7768253968254	340.67079365079366	36	127
339.7768253968254	340.67079365079366	48	127
340.0206349206349	340.4153514739229	53	127
340.22961451247164	340.67079365079366	56	127
340.4269841269841	340.98426303854876	62	127
340.6824036281179	341.57637188208616	36	127
340.98426303854876	341.3673922902494	51	127
341.18163265306123	341.57637188208616	55	127
341.3673922902494	341.88984126984127	60	127
341.611201814059	342.5051700680272	32	127
341.611201814059	342.5051700680272	44	127
341.9130612244898	342.2961904761905	51	127
342.1104308390023	342.5051700680272	53	127
342.30780045351474	342.5051700680272	60	127
342.5051700680272	343.53845804988663	45	127
342.5051700680272	343.53845804988663	33	127
342.77219954648524	343.30625850340135	51	127
343.07403628117913	343.53845804988663	54	127
343.3178684807256	343.84031746031746	60	127
343.5500680272109	344.5833560090703	34	127
343.5500680272109	344.5833560090703	46	127
343.85192743764173	344.31632653061223	51	127
343.85192743764173	344.31632653061223	55	127
344.07251700680274	344.5833560090703	58	127
344.3279365079365	344.8039229024943	55	127
344.3279365079365	344.8039229024943	51	127
344.5949659863946	345.44249433106575	34	127
344.8155328798186	345.2102947845805	56	127
345.01290249433106	345.44249433106575	50	127
345.2451247165533	345.44249433106575	56	127
345.45410430839	346.42934240362814	51	127
345.45410430839	346.42934240362814	55	127
345.45410430839	346.42934240362814	39	127
346.42934240362814	347.61356009070295	51	127
348.4494784580499	349.23895691609977	39	127
348.6816780045352	348.93709750566893	55	127
348.6816780045352	348.93709750566893	58	127
348.9487074829932	349.23895691609977	55	127
348.9487074829932	349.23895691609977	58	127
349.25056689342404	349.93555555555554	34	127
349.4479365079365	349.69174603174605	58	127
349.4479365079365	349.69174603174605	55	127
349.7033560090703	349.93555555555554	55	127
349.7033560090703	349.93555555555554	58	127
349.9471655328798	350.7134240362812	39	127
350.2141950113379	350.46961451247165	58	127
350.2141950113379	350.46961451247165	55	127
350.46961451247165	350.7134240362812	55	127
350.46961451247165	350.7134240362812	58	127
350.72503401360547	351.46807256235826	34	127
350.96884353741495	351.22426303854877	56	127
350.96884353741495	351.22426303854877	58	127
351.23587301587304	351.46807256235826	56	127
351.23587301587304	351.46807256235826	58	127
351.46807256235826	352.09501133786847	41	127
351.7118820861678	351.92086167800454	58	127
351.7118820861678	351.92086167800454	56	127
351.92086167800454	352.09501133786847	56	127
351.92086167800454	352.09501133786847	58	127
352.10662131519274	352.8844671201814	34	127
352.36204081632656	352.6174603174603	56	127
352.36204081632656	352.6174603174603	58	127
352.6290702947846	352.8844671201814	58	127
352.6290702947846	352.8844671201814	56	127
352.8960997732426	353.54625850340136	44	127
353.10507936507935	353.3488888888889	58	127
353.10507936507935	353.3488888888889	53	127
353.10507936507935	353.3488888888889	50	127
353.36049886621316	353.54625850340136	50	127
353.36049886621316	353.54625850340136	53	127
353.36049886621316	353.54625850340136	58	127
353.55786848072563	354.18480725623584	34	127
353.7552380952381	353.96421768707484	53	127
353.7552380952381	353.96421768707484	50	127
353.7552380952381	353.96421768707484	58	127
353.96421768707484	354.18480725623584	53	127
353.96421768707484	354.18480725623584	50	127
353.96421768707484	354.18480725623584	58	127
354.1964172335601	354.9162358276644	44	127
354.4169841269841	354.63759637188207	58	127
354.4169841269841	354.63759637188207	53	127
354.4169841269841	354.63759637188207	50	127
354.64920634920634	354.9162358276644	58	127
354.64920634920634	354.9162358276644	53	127
354.64920634920634	354.9162358276644	50	127
354.9162358276644	355.647641723356	34	127
355.1600453514739	355.40385487528346	58	127
355.1600453514739	355.40385487528346	55	127
355.1600453514739	355.40385487528346	51	127
355.40385487528346	355.647641723356	55	127
355.40385487528346	355.647641723356	51	127
355.40385487528346	355.647641723356	58	127
355.6592743764172	356.35587301587304	43	127
355.8798639455782	356.1120634920635	55	127
355.8798639455782	356.1120634920635	51	127
355.8798639455782	356.1120634920635	58	127
356.12367346938777	356.35587301587304	51	127
356.12367346938777	356.35587301587304	58	127
356.12367346938777	356.35587301587304	55	127
356.3674603174603	357.0524716553288	34	127
356.6112925170068	356.80866213151927	51	127
356.6112925170068	356.80866213151927	55	127
356.6112925170068	356.80866213151927	58	127
356.82027210884354	357.0524716553288	51	127
356.82027210884354	357.0524716553288	55	127
356.82027210884354	357.0524716553288	58	127
357.0640816326531	357.72585034013605	39	127
357.3078911564626	357.48201814058956	55	127
357.3078911564626	357.48201814058956	58	127
357.48201814058956	357.72585034013605	58	127
357.48201814058956	357.72585034013605	55	127
357.7374603174603	358.38761904761907	34	127
357.9348299319728	358.1554195011338	58	127
357.9348299319728	358.1554195011338	55	127
358.16702947845806	358.38761904761907	58	127
358.16702947845806	358.38761904761907	55	127
358.38761904761907	359.08421768707484	39	127
358.66625850340137	358.86362811791383	55	127
358.66625850340137	358.86362811791383	58	127
358.86362811791383	359.08421768707484	55	127
358.86362811791383	359.08421768707484	58	127
359.0958276643991	359.76920634920634	34	127
359.3280045351474	359.5369841269841	56	127
359.3280045351474	359.5369841269841	58	127
359.54861678004534	359.76920634920634	58	127
359.54861678004534	359.76920634920634	56	127
359.7808163265306	360.4658049886621	41	127
360.0130158730159	360.24519274376416	56	127
360.0130158730159	360.24519274376416	58	127
360.2568253968254	360.4658049886621	56	127
360.2568253968254	360.4658049886621	58	127
360.4774149659864	361.1972335600907	34	127
360.74444444444447	360.9650113378685	58	127
360.74444444444447	360.9650113378685	56	127
360.9650113378685	361.1972335600907	58	127
360.9650113378685	361.1972335600907	56	127
361.20884353741496	361.89383219954647	46	127
361.4526530612245	361.66163265306125	56	127
361.4526530612245	361.66163265306125	62	127
361.4526530612245	361.66163265306125	58	127
361.6732199546485	361.89383219954647	62	127
361.6732199546485	361.89383219954647	58	127
361.6732199546485	361.89383219954647	56	127
361.89383219954647	362.53238095238095	34	127
362.137641723356	362.34662131519275	62	127
362.137641723356	362.34662131519275	56	127
362.137641723356	362.34662131519275	58	127
362.34662131519275	362.53238095238095	58	127
362.34662131519275	362.53238095238095	56	127
362.34662131519275	362.53238095238095	62	127
362.5439909297052	363.2638095238095	46	127
362.7645804988662	363.00836734693877	58	127
362.7645804988662	363.00836734693877	56	127
362.7645804988662	363.00836734693877	62	127
363.02	363.2638095238095	56	127
363.02	363.2638095238095	62	127
363.02	363.2638095238095	58	127
363.2754195011338	363.51920634920634	39	127
363.53083900226756	363.70498866213154	51	127
363.7165986394558	363.93718820861676	55	127
363.94879818594103	364.1809977324263	58	127
364.1926077097506	364.44802721088433	63	127
364.44802721088433	364.66861678004534	67	127
364.6802267573696	364.92403628117916	70	127
364.9356462585034	365.16784580498864	69	127
365.1794557823129	365.492925170068	68	127
365.5045351473923	366.2591836734694	51	127
365.5045351473923	366.2591836734694	67	127
365.7831746031746	366.0385941043084	55	127
366.05020408163267	366.2591836734694	58	127
366.2707936507937	366.9209523809524	46	127
366.2707936507937	367.2692517006803	70	127
366.4913832199546	366.70036281179136	55	127
366.71197278911563	366.9209523809524	58	127
366.9209523809524	367.65238095238095	51	127
367.15315192743765	367.40854875283446	55	127
367.28086167800456	367.65238095238095	75	127
367.40854875283446	367.65238095238095	58	127
367.6639909297052	368.38380952380953	46	127
367.6639909297052	368.38380952380953	75	127
367.90780045351477	368.1632199546485	56	127
368.1748299319728	368.38380952380953	58	127
368.38380952380953	369.4403174603175	74	127
368.38380952380953	369.0804081632653	53	127
368.59278911564627	368.8365759637188	56	127
368.8365759637188	369.0804081632653	58	127
369.0920181405896	369.78861678004534	46	127
369.32421768707485	369.54478458049886	56	127
369.4403174603175	369.78861678004534	75	127
369.5563945578231	369.78861678004534	58	127
369.8002267573696	371.08891156462585	77	127
369.9859863945578	370.19496598639455	58	127
370.2065759637188	370.4387755102041	56	127
370.4387755102041	371.08891156462585	46	127
370.63614512471656	370.86834467120184	56	127
370.86834467120184	371.08891156462585	58	127
371.10054421768706	371.68104308390025	74	127
371.3443537414966	371.61138321995463	58	127
371.6229931972789	371.8784126984127	56	127
371.68104308390025	371.8784126984127	70	127
371.8784126984127	372.5634013605442	46	127
371.8784126984127	372.5634013605442	70	127
372.1338321995465	372.3428117913832	55	127
372.3428117913832	372.5634013605442	58	127
372.5750113378685	372.95814058956915	75	127
372.8420408163265	373.0626303854875	58	127
373.0742403628118	373.27160997732426	55	127
373.28321995464853	373.86371882086166	70	127
373.28321995464853	374.03786848072565	46	127
373.55024943310656	373.8056689342404	55	127
373.81727891156464	374.03786848072565	58	127
373.87532879818593	374.03786848072565	68	127
374.03786848072565	374.6996371882086	51	127
374.03786848072565	374.5254875283447	67	127
374.2352380952381	374.46743764172334	55	127
374.46743764172334	374.6996371882086	58	127
374.53709750566895	374.6996371882086	68	127
374.6996371882086	375.4310657596372	46	127
374.6996371882086	375.2336961451247	70	127
374.9318367346939	375.16403628117916	55	127
375.17562358276643	375.4310657596372	58	127
375.2336961451247	375.4310657596372	72	127
375.4310657596372	375.95351473922904	74	127
375.4310657596372	376.1508843537415	51	127
375.6980952380952	375.90707482993196	55	127
375.90707482993196	376.1508843537415	58	127
375.9651247165533	376.1508843537415	75	127
376.1624943310658	378.57736961451246	75	127
376.1624943310658	379.30879818594104	48	127
376.1624943310658	379.30879818594104	51	127
376.1624943310658	379.30879818594104	57	127
378.58897959183673	378.75149659863945	74	127
378.76312925170066	378.93727891156465	75	127
378.9488888888889	379.1346485260771	77	127
379.1346485260771	379.30879818594104	75	127
379.30879818594104	379.97056689342406	48	127
379.30879818594104	379.482947845805	74	127
379.30879818594104	379.97056689342406	51	127
379.30879818594104	379.97056689342406	57	127
379.482947845805	379.62226757369615	75	127
379.6338775510204	379.80802721088435	77	127
379.8196371882086	379.97056689342406	75	127
379.98215419501133	380.15632653061226	74	127
379.98215419501133	380.6903854875283	51	127
379.98215419501133	380.6903854875283	48	127
379.98215419501133	380.6903854875283	57	127
380.16793650793653	380.34208616780046	72	127
380.34208616780046	380.5046258503401	70	127
380.5046258503401	380.6903854875283	69	127
380.7019954648526	381.0154648526077	70	127
380.7019954648526	381.0154648526077	46	127
380.7019954648526	381.0154648526077	50	127
380.7019954648526	381.0154648526077	58	127
381.3637641723356	382.1416326530612	33	127
381.3637641723356	382.1416326530612	45	127
382.1532426303855	383.34907029478455	34	127
382.1532426303855	383.34907029478455	46	127
383.3606802721088	384.0108390022676	53	127
383.3606802721088	384.0108390022676	46	127
383.3606802721088	384.0108390022676	65	127
383.3606802721088	384.0108390022676	50	127
384.02244897959184	384.6377777777778	46	127
384.02244897959184	384.6377777777778	53	127
384.02244897959184	384.6377777777778	50	127
384.02244897959184	384.6377777777778	65	127
384.6377777777778	387.6215419501134	51	127
384.6377777777778	387.6215419501134	48	127
384.6377777777778	386.93655328798184	75	127
384.6377777777778	387.6215419501134	57	127
386.9481632653061	387.1107029478458	74	127
387.1107029478458	387.296462585034	75	127
387.296462585034	387.4357823129252	77	127
387.4357823129252	387.6215419501134	75	127
387.63315192743767	388.2136507936508	57	127
387.63315192743767	387.8073015873016	74	127
387.63315192743767	388.2136507936508	51	127
387.63315192743767	388.2136507936508	48	127
387.81891156462586	387.9466213151928	75	127
387.958231292517	388.0859410430839	77	127
388.09755102040816	388.2136507936508	75	127
388.2136507936508	388.8986394557823	57	127
388.2136507936508	388.3878004535147	74	127
388.2136507936508	388.8986394557823	51	127
388.2136507936508	388.8986394557823	48	127
388.3878004535147	388.56195011337866	72	127
388.5735600907029	388.7128798185941	70	127
388.7244897959184	388.8986394557823	69	127
388.91024943310657	389.5604081632653	50	127
388.91024943310657	389.5604081632653	70	127
388.91024943310657	389.5604081632653	46	127
389.5604081632653	390.164126984127	58	127
390.17573696145126	390.8142857142857	46	127
390.17573696145126	390.8142857142857	50	127
390.82589569160996	391.4760544217687	51	127
390.82589569160996	391.4760544217687	48	127
390.82589569160996	391.00004535147394	74	127
391.0116553287982	391.1625850340136	75	127
391.1741950113379	391.3483446712018	77	127
391.35995464852607	391.4760544217687	75	127
391.4760544217687	391.6153741496599	74	127
391.6153741496599	391.73147392290247	75	127
391.73147392290247	391.83596371882084	77	127
391.8475736961451	392.0217233560091	75	127
392.03333333333336	392.195873015873	74	127
392.03333333333336	392.77637188208615	48	127
392.03333333333336	392.77637188208615	51	127
392.2074829931973	392.3816326530612	72	127
392.3932426303855	392.5790022675737	70	127
392.5790022675737	392.77637188208615	69	127
392.77637188208615	393.4729705215419	46	127
392.77637188208615	393.4729705215419	50	127
392.77637188208615	393.4729705215419	70	127
393.4845804988662	393.85609977324265	58	127
393.85609977324265	394.49464852607707	50	127
393.85609977324265	394.49464852607707	46	127
394.49464852607707	395.13319727891155	51	127
394.49464852607707	395.13319727891155	48	127
394.49464852607707	394.6804081632653	74	127
394.6804081632653	394.81972789115645	75	127
394.81972789115645	394.9706575963719	77	127
394.98226757369616	395.13319727891155	75	127
395.13319727891155	395.284126984127	74	127
395.29573696145127	395.4234467120181	75	127
395.4350566893424	395.5975963718821	77	127
395.5975963718821	395.7020861678005	75	127
395.7020861678005	395.89945578231294	74	127
395.7020861678005	396.3754648526077	51	127
395.7020861678005	396.3754648526077	48	127
395.9110657596372	396.07360544217687	72	127
396.07360544217687	396.21292517006805	70	127
396.21292517006805	396.3754648526077	69	127
396.387074829932	396.9675736961451	46	127
396.387074829932	396.54961451247163	76	127
396.387074829932	396.9675736961451	50	127
396.54961451247163	396.6308843537415	77	127
396.6308843537415	396.7818140589569	79	127
396.7818140589569	396.9675736961451	77	127
396.9791836734694	397.11850340136056	76	127
397.1301133786848	397.26943310657595	77	127
397.2810430839002	397.4087528344671	79	127
397.4203628117914	397.52485260770976	77	127
397.52485260770976	398.1401814058957	50	127
397.52485260770976	397.67578231292515	75	127
397.52485260770976	398.1401814058957	46	127
397.67578231292515	397.83832199546487	74	127
397.83832199546487	397.977641723356	72	127
397.98925170068026	398.1401814058957	70	127
398.15179138322	398.31433106575963	79	127
398.3259410430839	398.4652607709751	80	127
398.4652607709751	398.639410430839	82	127
398.639410430839	398.7903401360544	80	127
398.7903401360544	398.9644897959184	79	127
398.7903401360544	399.3360090702948	46	127
398.7903401360544	399.3360090702948	50	127
398.7903401360544	399.3360090702948	53	127
398.97609977324265	399.0573696145125	80	127
399.06897959183675	399.1966893424036	82	127
399.1966893424036	399.3360090702948	80	127
399.34761904761905	399.4869387755102	79	127
399.4985487528345	399.6726984126984	77	127
399.6726984126984	399.8584580498866	75	127
399.8584580498866	399.98616780045353	74	127
399.9977777777778	400.1719274376417	83	127
399.9977777777778	400.65954648526076	46	127
399.9977777777778	400.65954648526076	53	127
399.9977777777778	400.65954648526076	56	127
400.183537414966	400.3228571428571	84	127
400.3344671201814	400.4970068027211	86	127
400.4970068027211	400.65954648526076	84	127
400.65954648526076	400.79886621315194	83	127
400.79886621315194	400.94979591836733	84	127
400.9614058956916	401.1007256235828	86	127
401.11233560090704	401.286485260771	84	127
401.286485260771	401.34453514739226	82	127
401.286485260771	401.79732426303855	56	127
401.286485260771	401.79732426303855	53	127
401.286485260771	401.79732426303855	46	127
401.35614512471653	401.4954648526077	80	127
401.4954648526077	401.6347845804989	79	127
401.6347845804989	401.79732426303855	77	127
401.79732426303855	401.9714739229025	76	127
401.98308390022675	402.1224036281179	77	127
402.1340136054422	402.2849433106576	79	127
402.2849433106576	402.4474829931973	80	127
402.4474829931973	402.56358276643994	79	127
402.57519274376415	402.7261224489796	77	127
402.7261224489796	402.9002721088435	75	127
402.9002721088435	403.0047619047619	74	127
403.01637188208616	403.15569160997734	73	127
403.1673015873016	403.318231292517	74	127
403.32984126984127	403.4923809523809	75	127
403.5039909297052	403.6433106575964	77	127
403.6433106575964	403.80585034013603	75	127
403.80585034013603	403.92195011337867	74	127
403.92195011337867	404.0728798185941	72	127
404.0844897959184	404.24702947845805	70	127
404.2586394557823	404.43278911564624	69	127
404.4443990929705	404.59532879818596	70	127
404.60693877551023	404.78108843537416	72	127
404.78108843537416	404.9784580498866	70	127
404.9784580498866	405.24548752834465	69	127
405.2570975056689	405.47768707482993	70	127
405.47768707482993	405.73310657596375	71	127
405.74471655328796	406.0001360544218	72	127
406.0001360544218	406.18589569160997	73	127
406.18589569160997	406.406485260771	74	127
406.41809523809525	406.673514739229	75	127
406.6851247165533	406.9637641723356	76	127
406.97537414965984	407.23079365079366	77	127
407.23079365079366	407.86934240362814	78	127
407.86934240362814	408.49628117913835	79	127
408.50789115646256	409.30897959183676	58	127
408.50789115646256	409.91269841269843	80	127
409.30897959183676	410.1100680272109	70	127
409.9243083900227	410.1100680272109	77	127
410.12167800453517	410.8066666666667	68	127
410.12167800453517	410.6209070294785	82	127
410.6209070294785	410.8066666666667	74	127
410.81827664399094	411.5148752834467	67	127
410.81827664399094	412.1998639455782	75	127
411.5148752834467	412.1998639455782	63	127
412.2114739229025	413.00095238095236	62	127
413.00095238095236	413.76721088435374	63	127
413.778820861678	414.4986394557823	61	127
414.5102494331066	414.99786848072563	60	127
414.5102494331066	414.7308390022676	80	127
414.62634920634923	414.881768707483	82	127
414.7424489795918	414.99786848072563	80	127
414.90498866213153	415.102358276644	82	127
415.0094784580499	415.1952380952381	84	127
415.0094784580499	415.4622675736961	56	127
415.20684807256237	415.4622675736961	82	127
415.4622675736961	416.99478458049884	82	127
415.4622675736961	416.2633560090703	63	127
416.27496598639453	416.99478458049884	55	127
416.99478458049884	417.79587301587304	67	127
416.99478458049884	417.79587301587304	63	127
417.80748299319725	418.66662131519274	62	127
417.80748299319725	418.66662131519274	65	127
418.678231292517	419.4096598639456	58	127
418.678231292517	419.4096598639456	62	127
419.4096598639456	420.2804081632653	59	127
419.4096598639456	420.2804081632653	62	127
420.29201814058956	422.02190476190475	60	127
420.29201814058956	422.02190476190475	63	127
422.033514739229	423.10163265306124	56	127
422.033514739229	423.10163265306124	65	127
422.033514739229	423.10163265306124	60	127
422.033514739229	422.2657142857143	77	127
422.14961451247166	422.3237641723356	79	127
422.27732426303857	422.3934240362812	77	127
422.33537414965986	422.66045351473923	76	127
422.4398639455782	422.66045351473923	77	127
422.66045351473923	422.88104308390024	80	127
422.88104308390024	423.10163265306124	84	127
423.136462585034	423.65891156462584	84	127
423.136462585034	424.1117006802721	57	127
423.136462585034	424.1117006802721	60	127
423.136462585034	424.1117006802721	66	127
423.6705215419501	424.9940589569161	75	127
424.1117006802721	424.9940589569161	67	127
424.1117006802721	424.9940589569161	58	127
424.1117006802721	424.9940589569161	63	127
425.00566893424036	425.9692970521542	35	127
425.00566893424036	425.9692970521542	56	127
425.00566893424036	425.9692970521542	62	127
425.00566893424036	425.9692970521542	47	127
425.9692970521542	426.932925170068	55	127
425.9692970521542	426.932925170068	60	127
425.9692970521542	426.932925170068	36	127
425.9692970521542	426.932925170068	48	127
426.9445351473923	427.73401360544216	60	127
427.7456235827664	427.86172335600907	77	127
427.7456235827664	428.7556916099773	56	127
427.7456235827664	428.7556916099773	65	127
427.7456235827664	428.7556916099773	60	127
427.8849433106576	427.9778231292517	79	127
428.0126530612245	428.1171428571429	77	127
428.14036281179136	428.22163265306125	76	127
428.23324263038546	428.40739229024945	77	127
428.33773242630383	428.50027210884355	79	127
428.4190022675737	428.5815419501134	80	127
428.5118820861678	428.6047619047619	82	127
428.6163718820862	428.7556916099773	84	127
428.7556916099773	429.6960997732426	66	127
428.7556916099773	429.6960997732426	60	127
428.7556916099773	429.6960997732426	57	127
428.7556916099773	429.2665306122449	84	127
429.2665306122449	430.60167800453513	75	127
429.7077097505669	430.60167800453513	63	127
429.7077097505669	430.60167800453513	58	127
429.7077097505669	430.60167800453513	67	127
430.60167800453513	431.63496598639455	35	127
430.60167800453513	431.63496598639455	47	127
430.60167800453513	431.63496598639455	62	127
430.60167800453513	431.63496598639455	56	127
431.6465759637188	432.71469387755104	60	127
431.6465759637188	432.71469387755104	36	127
431.6465759637188	432.71469387755104	48	127
431.6465759637188	432.71469387755104	55	127
432.7263038548753	433.27197278911564	63	127
433.2835827664399	433.7363718820862	60	127
433.7363718820862	434.2239909297052	56	127
433.7363718820862	433.8292517006803	77	127
433.8292517006803	433.9801814058957	79	127
433.9801814058957	434.0962811791383	77	127
434.0962811791383	434.2239909297052	76	127
434.2239909297052	434.7232199546485	53	127
434.2239909297052	434.4097505668934	77	127
434.2936507936508	434.479410430839	79	127
434.4097505668934	434.56068027210887	80	127
434.49102040816325	434.63034013605443	82	127
434.6419501133787	434.7232199546485	84	127
434.7348299319728	435.1992290249433	84	127
434.7348299319728	435.7797278911565	58	127
435.30371882086166	436.244126984127	82	127
435.7797278911565	436.6504761904762	55	127
436.25573696145125	437.0219954648526	82	127
436.6504761904762	437.52122448979594	51	127
437.0916553287982	437.52122448979594	82	127
437.53283446712015	440.62108843537413	53	127
437.53283446712015	438.06689342403627	82	127
437.53283446712015	440.62108843537413	46	127
437.53283446712015	440.62108843537413	56	127
438.07850340136054	438.275873015873	80	127
438.29909297052154	438.51968253968255	79	127
438.5312925170068	438.7867120181406	77	127
438.79832199546485	439.0073015873016	75	127
439.01891156462585	439.23950113378686	74	127
439.2627210884354	439.47170068027214	72	127
439.48331065759635	439.773560090703	70	127
439.7851700680272	440.0754195011338	68	127
440.0870294784581	440.3192290249433	67	127
440.33083900226757	440.62108843537413	65	127
440.6326984126984	441.60793650793653	63	127
440.6326984126984	441.60793650793653	51	127
440.6326984126984	441.60793650793653	55	127
442.6180045351474	443.5235827664399	68	127
442.6180045351474	443.5235827664399	58	127
442.6180045351474	443.5235827664399	62	127
443.5351927437642	444.35950113378686	63	127
443.5351927437642	444.35950113378686	51	127
443.5351927437642	444.35950113378686	67	127
445.2882993197279	445.96167800453514	67	127
445.2882993197279	446.1242176870748	62	127
445.2882993197279	446.1242176870748	46	127
445.2882993197279	446.1242176870748	56	127
445.9732879818594	446.1242176870748	65	127
446.1242176870748	446.7975963718821	63	127
446.1242176870748	446.7975963718821	51	127
446.1242176870748	446.7975963718821	55	127
447.6451247165533	448.4229931972789	58	127
447.6451247165533	448.4229931972789	62	127
447.6451247165533	448.4229931972789	68	127
448.4346031746032	449.2356916099773	51	127
448.4346031746032	449.2356916099773	67	127
448.4346031746032	449.2356916099773	63	127
449.2473015873016	450.3850793650794	56	127
449.2473015873016	450.3850793650794	62	127
449.2473015873016	450.3850793650794	46	127
449.2473015873016	450.08321995464854	67	127
450.0948299319728	450.3850793650794	65	127
450.3850793650794	451.1977777777778	55	127
450.3850793650794	451.1977777777778	63	127
450.3850793650794	451.1977777777778	51	127
451.1977777777778	452.1033560090703	62	127
451.1977777777778	451.85954648526075	67	127
451.1977777777778	452.1033560090703	46	127
451.1977777777778	452.1033560090703	56	127
451.871156462585	452.1033560090703	65	127
452.12657596371884	453.09020408163263	55	127
452.12657596371884	453.09020408163263	51	127
452.12657596371884	453.09020408163263	63	127
453.09020408163263	453.90290249433104	67	127
453.09020408163263	454.1467120181406	46	127
453.09020408163263	454.1467120181406	56	127
453.09020408163263	454.1467120181406	62	127
453.9145124716553	454.1467120181406	65	127
454.15832199546486	455.12195011337866	55	127
454.15832199546486	455.12195011337866	63	127
454.15832199546486	455.12195011337866	51	127
455.13356009070293	456.1436281179138	51	127
455.13356009070293	456.1436281179138	55	127
455.13356009070293	456.1436281179138	58	127
456.1552380952381	457.43233560090704	51	127
456.1552380952381	457.43233560090704	55	127
456.1552380952381	457.43233560090704	58	127
456.1552380952381	456.29455782312925	82	127
456.23650793650796	456.3758276643991	84	127
456.3061678004535	456.4454875283447	82	127
456.38743764172335	456.51514739229026	84	127
456.4570975056689	456.60802721088436	82	127
456.52675736961453	456.6544671201814	84	127
456.60802721088436	456.73573696145127	82	127
456.66607709750565	456.8053968253968	84	127
456.73573696145127	456.88666666666666	82	127
456.8170068027211	457.02598639455783	81	127
457.0375963718821	457.43233560090704	82	127
457.43233560090704	459.4524716553288	87	127
457.43233560090704	459.4524716553288	51	127
457.43233560090704	459.4524716553288	58	127
457.43233560090704	459.4524716553288	55	127
