# onset,offset,note,velocity
0.06888888888888889	0.16174603174603175	67	127
1.8684353741496598	1.9729251700680273	50	127
1.9729251700680273	2.0541950113378684	55	127
2.0541950113378684	2.147074829931973	59	127
2.147074829931973	2.2631746031746034	62	127
2.2631746031746034	3.099092970521542	43	127
2.2631746031746034	3.099092970521542	31	127
2.2631746031746034	2.3792743764172335	61	127
2.3792743764172335	2.4837641723356008	62	127
2.4837641723356008	2.5882539682539685	64	127
2.5882539682539685	2.6811337868480725	62	127
2.6811337868480725	2.797233560090703	59	127
2.797233560090703	2.878503401360544	62	127
2.878503401360544	2.9829931972789114	60	127
2.9829931972789114	3.099092970521542	57	127
3.099092970521542	3.2151927437641725	55	127
3.099092970521542	3.9001814058956916	43	127
3.099092970521542	3.9001814058956916	31	127
3.2151927437641725	3.31968253968254	59	127
3.31968253968254	3.389342403628118	50	127
3.389342403628118	3.482222222222222	59	127
3.482222222222222	3.6099319727891155	50	127
3.6099319727891155	3.726031746031746	55	127
3.726031746031746	3.8305215419501133	59	127
3.8305215419501133	3.9001814058956916	62	127
3.9001814058956916	4.770907029478458	31	127
3.9001814058956916	3.993061224489796	61	127
3.9001814058956916	4.770907029478458	43	127
4.004671201814059	4.109160997732427	62	127
4.120748299319728	4.213650793650793	64	127
4.225260770975057	4.318140589569161	62	127
4.329750566893424	4.411020408163266	59	127
4.422607709750567	4.527120181405896	62	127
4.538730158730159	4.643219954648526	60	127
4.654829931972789	4.770907029478458	57	127
4.782539682539682	5.65328798185941	43	127
4.782539682539682	5.65328798185941	31	127
4.782539682539682	5.2004761904761905	55	127
5.223718820861678	5.328208616780046	50	127
5.351428571428571	5.444308390022676	55	127
5.455918367346939	5.53718820861678	59	127
5.53718820861678	5.65328798185941	62	127
5.65328798185941	6.4543764172335605	31	127
5.65328798185941	5.792607709750567	61	127
5.65328798185941	6.4543764172335605	43	127
5.792607709750567	5.8854875283446715	62	127
5.8854875283446715	5.989977324263038	64	127
5.989977324263038	6.059637188208617	62	127
6.059637188208617	6.140907029478458	59	127
6.140907029478458	6.257006802721088	62	127
6.257006802721088	6.361496598639456	60	127
6.361496598639456	6.4543764172335605	57	127
6.4543764172335605	6.558866213151927	55	127
6.4543764172335605	7.278684807256236	43	127
6.4543764172335605	7.278684807256236	31	127
6.558866213151927	6.663356009070295	59	127
6.663356009070295	6.7562358276643995	50	127
6.7562358276643995	6.8723356009070296	59	127
6.8723356009070296	6.976825396825397	50	127
6.976825396825397	7.081315192743764	55	127
7.081315192743764	7.185804988662132	59	127
7.185804988662132	7.278684807256236	62	127
7.278684807256236	8.068163265306122	43	127
7.278684807256236	8.068163265306122	31	127
7.278684807256236	7.383174603174603	61	127
7.383174603174603	7.487664399092971	62	127
7.487664399092971	7.592154195011338	64	127
7.592154195011338	7.696643990929705	62	127
7.696643990929705	7.766303854875283	59	127
7.7779138321995465	7.870793650793651	62	127
7.882403628117914	7.963673469387755	60	127
7.975283446712018	8.068163265306122	57	127
8.079773242630386	8.474512471655329	55	127
8.079773242630386	8.474512471655329	31	127
8.079773242630386	8.474512471655329	43	127
8.486122448979591	8.579002267573696	54	127
8.59061224489796	8.683492063492064	55	127
8.695102040816327	8.787981859410431	57	127
8.799591836734693	8.892471655328798	59	127
8.904081632653062	9.728390022675738	50	127
8.904081632653062	8.985351473922902	60	127
8.996938775510204	9.089818594104308	59	127
9.101451247165533	9.194331065759638	57	127
9.194331065759638	9.322040816326531	55	127
9.322040816326531	9.426530612244898	54	127
9.426530612244898	9.531020408163265	55	127
9.531020408163265	9.635510204081633	57	127
9.635510204081633	9.728390022675738	59	127
9.728390022675738	9.832879818594105	60	127
9.728390022675738	10.575918367346938	50	127
9.832879818594105	9.937369614512471	59	127
9.937369614512471	10.053469387755102	57	127
10.053469387755102	10.146349206349207	55	127
10.111519274376418	10.181179138321996	73	127
10.146349206349207	10.343718820861678	74	127
10.146349206349207	10.239229024943311	54	127
10.239229024943311	10.343718820861678	55	127
10.297256235827664	10.390136054421768	73	127
10.343718820861678	10.575918367346938	74	127
10.343718820861678	10.448208616780045	57	127
10.448208616780045	10.575918367346938	59	127
10.517845804988662	10.610748299319727	73	127
10.575918367346938	10.761678004535147	74	127
10.575918367346938	10.959047619047618	50	127
10.575918367346938	10.65718820861678	60	127
10.65718820861678	10.761678004535147	59	127
10.715238095238096	10.819727891156463	73	127
10.773265306122449	10.854557823129252	57	127
10.773265306122449	10.959047619047618	74	127
10.866145124716553	10.959047619047618	55	127
10.900975056689342	11.005487528344672	73	127
10.959047619047618	11.19124716553288	50	127
10.959047619047618	11.07514739229025	54	127
10.959047619047618	11.19124716553288	74	127
11.086757369614512	11.19124716553288	55	127
11.133197278911565	11.260907029478458	73	127
11.19124716553288	11.318956916099774	54	127
11.19124716553288	11.42344671201814	74	127
11.19124716553288	11.42344671201814	50	127
11.318956916099774	11.42344671201814	55	127
11.376984126984127	11.493106575963719	73	127
11.446666666666667	11.922675736961452	54	127
11.446666666666667	11.922675736961452	50	127
11.446666666666667	11.922675736961452	74	127
11.934285714285714	12.10843537414966	74	127
12.120045351473923	12.317414965986394	74	127
12.329024943310658	12.52639455782313	47	127
12.329024943310658	12.52639455782313	50	127
12.329024943310658	12.52639455782313	74	127
12.433514739229025	12.60766439909297	43	127
12.52639455782313	12.700544217687074	47	127
12.52639455782313	12.700544217687074	50	127
12.52639455782313	12.596054421768708	74	127
12.561224489795919	12.60766439909297	76	127
12.596054421768708	12.630884353741497	74	127
12.60766439909297	12.700544217687074	73	127
12.60766439909297	12.816643990929705	43	127
12.654104308390023	12.75859410430839	74	127
12.700544217687074	12.921133786848072	50	127
12.700544217687074	12.921133786848072	76	127
12.700544217687074	12.921133786848072	47	127
12.816643990929705	12.99079365079365	43	127
12.921133786848072	13.083673469387755	48	127
12.921133786848072	13.083673469387755	78	127
12.921133786848072	13.083673469387755	50	127
12.99079365079365	13.083673469387755	43	127
13.083673469387755	13.304263038548752	50	127
13.083673469387755	13.304263038548752	47	127
13.083673469387755	13.304263038548752	79	127
13.199773242630386	13.408752834467121	43	127
13.304263038548752	13.501632653061224	50	127
13.304263038548752	13.501632653061224	47	127
13.304263038548752	13.408752834467121	83	127
13.408752834467121	13.594512471655328	43	127
13.501632653061224	13.710612244897959	47	127
13.501632653061224	13.710612244897959	50	127
13.501632653061224	13.710612244897959	74	127
13.594512471655328	13.803492063492063	43	127
13.710612244897959	13.90798185941043	50	127
13.710612244897959	13.90798185941043	47	127
13.710612244897959	13.90798185941043	74	127
13.803492063492063	13.90798185941043	43	127
13.90798185941043	14.105351473922903	50	127
13.90798185941043	14.105351473922903	47	127
13.90798185941043	14.105351473922903	74	127
14.000861678004535	14.221451247165533	43	127
14.105351473922903	14.175011337868481	74	127
14.105351473922903	14.3259410430839	47	127
14.105351473922903	14.3259410430839	50	127
14.140181405895692	14.221451247165533	76	127
14.175011337868481	14.256281179138321	74	127
14.221451247165533	14.430430839002268	43	127
14.221451247165533	14.3259410430839	73	127
14.279501133786848	14.372380952380952	74	127
14.3259410430839	14.534920634920635	76	127
14.3259410430839	14.534920634920635	50	127
14.3259410430839	14.534920634920635	47	127
14.430430839002268	14.651020408163266	43	127
14.534920634920635	14.790340136054422	78	127
14.534920634920635	14.790340136054422	50	127
14.534920634920635	14.790340136054422	48	127
14.651020408163266	14.790340136054422	43	127
14.790340136054422	15.01092970521542	47	127
14.790340136054422	15.231519274376417	79	127
14.790340136054422	15.01092970521542	50	127
14.894829931972788	15.115419501133786	43	127
15.022539682539682	15.231519274376417	47	127
15.022539682539682	15.231519274376417	50	127
15.138639455782313	15.336009070294784	43	127
15.24312925170068	15.440498866213153	50	127
15.24312925170068	15.440498866213153	47	127
15.24312925170068	15.336009070294784	74	127
15.347619047619048	15.533378684807257	43	127
15.347619047619048	15.440498866213153	79	127
15.452108843537415	15.637868480725624	47	127
15.452108843537415	15.637868480725624	50	127
15.452108843537415	15.533378684807257	83	127
15.54498866213152	15.637868480725624	86	127
15.54498866213152	15.637868480725624	43	127
15.649478458049886	15.74235827664399	85	127
15.649478458049886	15.835238095238095	47	127
15.649478458049886	15.835238095238095	50	127
15.74235827664399	15.846848072562358	86	127
15.74235827664399	15.9281179138322	43	127
15.846848072562358	16.032607709750568	47	127
15.846848072562358	16.032607709750568	50	127
15.846848072562358	15.939727891156462	88	127
15.939727891156462	16.04421768707483	86	127
15.939727891156462	16.12548752834467	43	127
16.04421768707483	16.137097505668933	83	127
16.04421768707483	16.22997732426304	47	127
16.04421768707483	16.22997732426304	50	127
16.137097505668933	16.334444444444443	43	127
16.137097505668933	16.22997732426304	86	127
16.22997732426304	16.438956916099773	50	127
16.22997732426304	16.438956916099773	54	127
16.22997732426304	16.334444444444443	84	127
16.334444444444443	16.438956916099773	81	127
16.334444444444443	16.438956916099773	43	127
16.438956916099773	16.682766439909297	55	127
16.438956916099773	16.682766439909297	50	127
16.438956916099773	16.566666666666666	79	127
16.566666666666666	16.787256235827666	43	127
16.566666666666666	16.682766439909297	83	127
16.682766439909297	16.89174603174603	50	127
16.682766439909297	16.89174603174603	47	127
16.682766439909297	16.787256235827666	74	127
16.787256235827666	16.89174603174603	83	127
16.787256235827666	16.9962358276644	43	127
16.89174603174603	16.9962358276644	74	127
16.89174603174603	17.089115646258502	47	127
16.89174603174603	17.089115646258502	50	127
16.9962358276644	17.089115646258502	79	127
16.9962358276644	17.19360544217687	43	127
17.089115646258502	17.29809523809524	50	127
17.089115646258502	17.29809523809524	47	127
17.089115646258502	17.19360544217687	83	127
17.19360544217687	17.29809523809524	43	127
17.19360544217687	17.29809523809524	86	127
17.29809523809524	17.37936507936508	85	127
17.29809523809524	17.48385487528345	50	127
17.29809523809524	17.48385487528345	47	127
17.37936507936508	17.61156462585034	43	127
17.37936507936508	17.49546485260771	86	127
17.49546485260771	17.61156462585034	88	127
17.49546485260771	17.716054421768707	50	127
17.49546485260771	17.716054421768707	47	127
17.61156462585034	17.808934240362813	43	127
17.61156462585034	17.716054421768707	86	127
17.716054421768707	17.820544217687075	83	127
17.716054421768707	17.92501133786848	50	127
17.716054421768707	17.92501133786848	47	127
17.820544217687075	17.92501133786848	86	127
17.820544217687075	18.02952380952381	43	127
17.92501133786848	18.157233560090702	54	127
17.92501133786848	18.02952380952381	84	127
17.92501133786848	18.157233560090702	50	127
18.02952380952381	18.157233560090702	43	127
18.02952380952381	18.157233560090702	81	127
18.157233560090702	18.621609977324262	55	127
18.157233560090702	18.621609977324262	79	127
18.157233560090702	18.621609977324262	43	127
18.157233560090702	18.621609977324262	50	127
18.63324263038549	18.80736961451247	59	127
18.63324263038549	18.80736961451247	47	127
18.72612244897959	18.935079365079364	62	127
18.819002267573698	19.039591836734694	43	127
18.819002267573698	19.039591836734694	67	127
18.94671201814059	19.039591836734694	62	127
19.051201814058956	19.49238095238095	50	127
19.051201814058956	19.49238095238095	66	127
19.503968253968253	19.724580498866214	55	127
19.503968253968253	19.724580498866214	74	127
19.724580498866214	19.956780045351476	59	127
19.724580498866214	19.956780045351476	71	127
19.956780045351476	20.409569160997734	69	127
19.956780045351476	20.409569160997734	62	127
20.409569160997734	20.63015873015873	47	127
20.409569160997734	20.5256462585034	59	127
20.5256462585034	20.63015873015873	62	127
20.63015873015873	20.71140589569161	59	127
20.63015873015873	20.804308390022676	43	127
20.71140589569161	20.804308390022676	67	127
20.804308390022676	21.280294784580498	66	127
20.804308390022676	21.280294784580498	50	127
21.222244897959182	21.349954648526076	76	127
21.280294784580498	21.40800453514739	74	127
21.280294784580498	21.51251700680272	55	127
21.40800453514739	21.51251700680272	73	127
21.51251700680272	21.77954648526077	59	127
21.51251700680272	21.640226757369614	74	127
21.640226757369614	21.77954648526077	71	127
21.77954648526077	22.17426303854875	62	127
21.77954648526077	22.17426303854875	69	127
22.18589569160998	22.371655328798187	64	127
22.290385487528344	22.476145124716552	67	127
22.38326530612245	22.592244897959183	62	127
22.487732426303854	22.696734693877552	66	127
22.603854875283446	22.789614512471655	60	127
22.708344671201814	22.870861678004534	64	127
22.801224489795917	22.975374149659864	59	127
22.88249433106576	23.079863945578232	62	127
22.986984126984126	23.184331065759636	57	127
23.091473922902495	23.26562358276644	60	127
23.195963718820863	23.381723356009072	62	127
23.277233560090703	23.486213151927437	60	127
23.393333333333334	23.660362811791384	59	127
23.4978231292517	23.764852607709752	57	127
23.660362811791384	23.869342403628117	55	127
23.764852607709752	23.973832199546486	53	127
23.869342403628117	24.07832199546485	84	127
23.869342403628117	24.07832199546485	52	127
23.973832199546486	24.194421768707482	55	127
23.973832199546486	24.194421768707482	86	127
24.07832199546485	24.29891156462585	50	127
24.07832199546485	24.29891156462585	83	127
24.194421768707482	24.40340136054422	54	127
24.194421768707482	24.40340136054422	84	127
24.29891156462585	24.507891156462584	81	127
24.29891156462585	24.507891156462584	48	127
24.40340136054422	24.612380952380953	52	127
24.40340136054422	24.612380952380953	83	127
24.507891156462584	24.71687074829932	47	127
24.507891156462584	24.71687074829932	79	127
24.612380952380953	24.821360544217686	81	127
24.612380952380953	24.821360544217686	50	127
24.71687074829932	24.925850340136055	78	127
24.71687074829932	24.925850340136055	45	127
24.821360544217686	25.041950113378686	50	127
24.937460317460317	25.13482993197279	48	127
24.937460317460317	25.05356009070295	78	127
25.041950113378686	25.13482993197279	79	127
25.06517006802721	25.13482993197279	78	127
25.13482993197279	25.59922902494331	79	127
25.13482993197279	25.36702947845805	43	127
25.25092970521542	25.48312925170068	47	127
25.36702947845805	25.59922902494331	50	127
25.494739229024944	25.59922902494331	48	127
25.610839002267575	25.808208616780046	67	127
25.610839002267575	25.808208616780046	47	127
25.808208616780046	26.075238095238095	71	127
25.808208616780046	26.075238095238095	43	127
26.075238095238095	26.51641723356009	69	127
26.075238095238095	26.51641723356009	50	127
26.51641723356009	26.737006802721087	55	127
26.51641723356009	26.737006802721087	71	127
26.62090702947846	26.841496598639456	62	127
26.737006802721087	26.945986394557824	59	127
26.737006802721087	26.945986394557824	67	127
26.841496598639456	26.945986394557824	62	127
26.945986394557824	27.375555555555554	66	127
26.945986394557824	27.375555555555554	62	127
27.329115646258504	27.43360544217687	69	127
27.375555555555554	27.630975056689344	47	127
27.375555555555554	27.630975056689344	67	127
27.503265306122447	27.73546485260771	66	127
27.630975056689344	27.874784580498865	43	127
27.630975056689344	27.874784580498865	67	127
27.73546485260771	27.874784580498865	71	127
27.874784580498865	28.304353741496598	69	127
27.874784580498865	28.304353741496598	50	127
28.31596371882086	28.53655328798186	71	127
28.31596371882086	28.53655328798186	55	127
28.455283446712016	28.641043083900225	62	127
28.548163265306123	28.745532879818594	59	127
28.548163265306123	28.745532879818594	67	127
28.65265306122449	28.745532879818594	62	127
28.757142857142856	29.198321995464852	66	127
28.757142857142856	29.198321995464852	62	127
29.209931972789114	29.38408163265306	64	127
29.209931972789114	29.38408163265306	72	127
29.314421768707483	29.50018140589569	67	127
29.314421768707483	29.50018140589569	74	127
29.395691609977323	29.616281179138323	71	127
29.395691609977323	29.616281179138323	62	127
29.511791383219954	29.720770975056688	66	127
29.511791383219954	29.720770975056688	72	127
29.627891156462585	29.83687074829932	69	127
29.627891156462585	29.83687074829932	60	127
29.720770975056688	29.941360544217687	64	127
29.720770975056688	29.941360544217687	71	127
29.83687074829932	30.045850340136056	59	127
29.83687074829932	30.045850340136056	67	127
29.941360544217687	30.17356009070295	62	127
29.941360544217687	30.17356009070295	69	127
30.045850340136056	30.278049886621314	66	127
30.045850340136056	30.278049886621314	57	127
30.17356009070295	30.37092970521542	60	127
30.278049886621314	30.405759637188208	66	127
30.278049886621314	30.475419501133786	62	127
30.347709750566892	30.475419501133786	67	127
30.37092970521542	30.579909297052154	60	127
30.405759637188208	30.475419501133786	66	127
30.475419501133786	30.684399092970523	67	127
30.475419501133786	30.684399092970523	59	127
30.579909297052154	30.777278911564625	57	127
30.684399092970523	30.881768707482994	55	127
30.684399092970523	30.777278911564625	74	127
30.777278911564625	30.98625850340136	53	127
30.881768707482994	31.090748299319728	52	127
30.881768707482994	31.090748299319728	72	127
30.98625850340136	31.195238095238096	74	127
30.98625850340136	31.195238095238096	55	127
31.090748299319728	31.29972789115646	71	127
31.090748299319728	31.29972789115646	50	127
31.195238095238096	31.40421768707483	72	127
31.195238095238096	31.40421768707483	54	127
31.29972789115646	31.5087074829932	69	127
31.29972789115646	31.5087074829932	48	127
31.40421768707483	31.613197278911564	52	127
31.40421768707483	31.613197278911564	71	127
31.5087074829932	31.717687074829932	47	127
31.5087074829932	31.717687074829932	67	127
31.613197278911564	31.8221768707483	50	127
31.613197278911564	31.8221768707483	69	127
31.717687074829932	31.93827664399093	66	127
31.717687074829932	31.93827664399093	45	127
31.8221768707483	32.05437641723356	50	127
31.93827664399093	32.19369614512472	48	127
31.93827664399093	32.08920634920635	66	127
32.01954648526077	32.19369614512472	67	127
32.05437641723356	32.19369614512472	45	127
32.08920634920635	32.19369614512472	66	127
32.20530612244898	32.30979591836735	67	127
32.20530612244898	32.43750566893424	43	127
32.30979591836735	32.43750566893424	62	127
32.43750566893424	32.54197278911565	59	127
32.54197278911565	32.63487528344671	55	127
32.63487528344671	32.73936507936508	50	127
32.73936507936508	32.82063492063492	55	127
32.832244897959185	32.92510204081633	59	127
32.936734693877554	33.02961451247165	62	127
33.05281179138322	33.865532879818595	31	127
33.05281179138322	33.865532879818595	43	127
33.05281179138322	33.145714285714284	61	127
33.15732426303855	33.296621315192745	62	127
33.30825396825397	33.40113378684807	64	127
33.41274376417233	33.49401360544218	62	127
33.50562358276644	33.598503401360546	59	127
33.598503401360546	33.644943310657595	62	127
33.65655328798186	33.749433106575964	60	127
33.77265306122449	33.865532879818595	57	127
33.87714285714286	34.00485260770975	55	127
33.87714285714286	34.75950113378685	43	127
33.87714285714286	34.75950113378685	31	127
34.01646258503401	34.12095238095238	59	127
34.132562358276644	34.26027210884354	50	127
34.26027210884354	34.364761904761906	59	127
34.364761904761906	34.48086167800454	50	127
34.48086167800454	34.562108843537416	55	127
34.562108843537416	34.65501133786848	59	127
34.65501133786848	34.75950113378685	62	127
34.75950113378685	35.64185941043084	31	127
34.75950113378685	35.64185941043084	43	127
34.75950113378685	34.852380952380955	61	127
34.852380952380955	34.95684807256236	62	127
34.95684807256236	35.07294784580499	64	127
35.07294784580499	35.177460317460316	62	127
35.177460317460316	35.2471201814059	59	127
35.2471201814059	35.351609977324266	62	127
35.351609977324266	35.4677097505669	60	127
35.4677097505669	35.64185941043084	57	127
35.64185941043084	36.500997732426306	31	127
35.64185941043084	36.500997732426306	43	127
35.64185941043084	36.01337868480726	55	127
36.01337868480726	36.117868480725626	50	127
36.117868480725626	36.268798185941044	55	127
36.268798185941044	36.39650793650794	59	127
36.39650793650794	36.500997732426306	62	127
36.500997732426306	37.27886621315193	43	127
36.500997732426306	37.27886621315193	31	127
36.500997732426306	36.60546485260771	61	127
36.60546485260771	36.68675736961451	62	127
36.698367346938774	36.768027210884355	64	127
36.77963718820862	36.872517006802724	62	127
36.884126984126986	36.96539682539682	59	127
36.97698412698413	37.06988662131519	62	127
37.081496598639454	37.17437641723356	60	127
37.18598639455782	37.27886621315193	57	127
37.29047619047619	37.371746031746035	55	127
37.29047619047619	38.114761904761906	43	127
37.29047619047619	38.114761904761906	31	127
37.3833560090703	37.4762358276644	59	127
37.4878231292517	37.580725623582765	50	127
37.59233560090703	37.67360544217687	59	127
37.685215419501134	37.801315192743765	50	127
37.81292517006803	37.90580498866213	55	127
37.917414965986396	38.0102947845805	59	127
38.0102947845805	38.114761904761906	62	127
38.114761904761906	38.93909297052154	31	127
38.114761904761906	38.21927437641723	61	127
38.114761904761906	38.93909297052154	43	127
38.21927437641723	38.33537414965986	62	127
38.33537414965986	38.451473922902494	64	127
38.451473922902494	38.55596371882086	62	127
38.55596371882086	38.637233560090706	59	127
38.637233560090706	38.730113378684806	62	127
38.730113378684806	38.834603174603174	60	127
38.834603174603174	38.93909297052154	57	127
38.93909297052154	39.35705215419501	55	127
38.93909297052154	39.35705215419501	31	127
38.93909297052154	39.35705215419501	43	127
39.35705215419501	39.46154195011338	54	127
39.46154195011338	39.56603174603175	55	127
39.56603174603175	39.716961451247165	57	127
39.716961451247165	39.821451247165534	59	127
39.821451247165534	40.69219954648526	50	127
39.821451247165534	39.94916099773243	60	127
39.94916099773243	40.08848072562358	59	127
40.08848072562358	40.18136054421769	57	127
40.18136054421769	40.28585034013606	55	127
40.28585034013606	40.39034013605442	54	127
40.39034013605442	40.483219954648526	55	127
40.483219954648526	40.57609977324263	57	127
40.59931972789116	40.69219954648526	59	127
40.703809523809525	41.516507936507935	50	127
40.703809523809525	40.79668934240363	60	127
40.819909297052156	40.9127664399093	59	127
40.924399092970525	41.028888888888886	57	127
41.04047619047619	41.133378684807255	55	127
41.086938775510205	41.15659863945578	73	127
41.133378684807255	41.284285714285716	74	127
41.133378684807255	41.191428571428574	54	127
41.203038548752836	41.284285714285716	55	127
41.23786848072562	41.34235827664399	73	127
41.29589569160998	41.516507936507935	74	127
41.29589569160998	41.38879818594104	57	127
41.400408163265304	41.516507936507935	59	127
41.45845804988662	41.574557823129254	73	127
41.5281179138322	41.620997732426304	60	127
41.5281179138322	41.7487074829932	74	127
41.5281179138322	41.957687074829934	50	127
41.620997732426304	41.7487074829932	59	127
41.667414965986396	41.79512471655329	73	127
41.7487074829932	41.853197278911566	57	127
41.7487074829932	41.957687074829934	74	127
41.853197278911566	41.957687074829934	55	127
41.91124716553288	42.004126984126984	73	127
41.957687074829934	42.166666666666664	50	127
41.957687074829934	42.0621768707483	54	127
41.957687074829934	42.166666666666664	74	127
42.0621768707483	42.166666666666664	55	127
42.120226757369615	42.22471655328798	73	127
42.166666666666664	42.387256235827664	50	127
42.166666666666664	42.387256235827664	74	127
42.166666666666664	42.282766439909295	54	127
42.282766439909295	42.387256235827664	55	127
42.340816326530614	42.44530612244898	73	127
42.387256235827664	42.85165532879819	50	127
42.387256235827664	42.85165532879819	54	127
42.387256235827664	42.85165532879819	74	127
42.85165532879819	43.07222222222222	74	127
43.07222222222222	43.28122448979592	74	127
43.28122448979592	43.46698412698413	47	127
43.28122448979592	43.46698412698413	74	127
43.28122448979592	43.46698412698413	50	127
43.374104308390024	43.583061224489796	43	127
43.46698412698413	43.536643990929704	74	127
43.46698412698413	43.72240362811792	47	127
43.46698412698413	43.72240362811792	50	127
43.50181405895692	43.583061224489796	76	127
43.536643990929704	43.62952380952381	74	127
43.583061224489796	43.815283446712016	43	127
43.583061224489796	43.72240362811792	73	127
43.64113378684807	43.768843537414966	74	127
43.72240362811792	43.919773242630384	76	127
43.72240362811792	43.919773242630384	47	127
43.72240362811792	43.919773242630384	50	127
43.82687074829932	44.01265306122449	43	127
43.93138321995465	44.11714285714286	50	127
43.93138321995465	44.11714285714286	78	127
43.93138321995465	44.11714285714286	48	127
44.02426303854875	44.11714285714286	43	127
44.12875283446712	44.32612244897959	50	127
44.12875283446712	44.32612244897959	79	127
44.12875283446712	44.32612244897959	47	127
44.24485260770975	44.419002267573696	43	127
44.337709750566894	44.419002267573696	83	127
44.337709750566894	44.523492063492064	47	127
44.337709750566894	44.523492063492064	50	127
44.43061224489796	44.62798185941043	43	127
44.53510204081633	44.744081632653064	47	127
44.53510204081633	44.744081632653064	50	127
44.53510204081633	44.744081632653064	74	127
44.639591836734695	44.836938775510205	43	127
44.755691609977326	44.94145124716553	74	127
44.755691609977326	44.94145124716553	50	127
44.755691609977326	44.94145124716553	47	127
44.84854875283447	44.94145124716553	43	127
44.953061224489794	45.15043083900227	50	127
44.953061224489794	45.15043083900227	74	127
44.953061224489794	45.15043083900227	47	127
45.05755102040816	45.23167800453515	43	127
45.16204081632653	45.37102040816327	50	127
45.16204081632653	45.37102040816327	47	127
45.16204081632653	45.220068027210885	74	127
45.185260770975056	45.23167800453515	76	127
45.220068027210885	45.289750566893424	74	127
45.23167800453515	45.46390022675737	43	127
45.23167800453515	45.37102040816327	73	127
45.32458049886621	45.42907029478458	74	127
45.37102040816327	45.568390022675736	50	127
45.37102040816327	45.568390022675736	47	127
45.37102040816327	45.568390022675736	76	127
45.46390022675737	45.70770975056689	43	127
45.568390022675736	45.82380952380952	78	127
45.568390022675736	45.82380952380952	48	127
45.568390022675736	45.82380952380952	50	127
45.70770975056689	45.82380952380952	43	127
45.82380952380952	46.021179138322	50	127
45.82380952380952	46.218548752834465	79	127
45.82380952380952	46.021179138322	47	127
45.92829931972789	46.125668934240366	43	127
46.021179138322	46.218548752834465	47	127
46.021179138322	46.218548752834465	50	127
46.125668934240366	46.323038548752834	43	127
46.218548752834465	46.439138321995465	50	127
46.218548752834465	46.439138321995465	47	127
46.218548752834465	46.323038548752834	74	127
46.323038548752834	46.52040816326531	43	127
46.323038548752834	46.439138321995465	79	127
46.439138321995465	46.62487528344671	50	127
46.439138321995465	46.62487528344671	47	127
46.439138321995465	46.52040816326531	83	127
46.52040816326531	46.62487528344671	86	127
46.52040816326531	46.62487528344671	43	127
46.62487528344671	46.81065759637188	47	127
46.62487528344671	46.69455782312925	85	127
46.62487528344671	46.81065759637188	50	127
46.69455782312925	46.92675736961451	43	127
46.69455782312925	46.81065759637188	86	127
46.81065759637188	46.92675736961451	88	127
46.81065759637188	47.03124716553288	47	127
46.81065759637188	47.03124716553288	50	127
46.92675736961451	47.03124716553288	86	127
46.92675736961451	47.158956916099775	43	127
47.03124716553288	47.158956916099775	83	127
47.03124716553288	47.28666666666667	47	127
47.03124716553288	47.28666666666667	50	127
47.158956916099775	47.28666666666667	86	127
47.158956916099775	47.41437641723356	43	127
47.28666666666667	47.51886621315193	54	127
47.28666666666667	47.41437641723356	84	127
47.28666666666667	47.51886621315193	50	127
47.41437641723356	47.51886621315193	43	127
47.41437641723356	47.51886621315193	81	127
47.51886621315193	47.72784580498866	50	127
47.51886621315193	47.634965986394555	79	127
47.51886621315193	47.72784580498866	55	127
47.634965986394555	47.73945578231292	83	127
47.634965986394555	47.83233560090703	43	127
47.73945578231292	47.90199546485261	47	127
47.73945578231292	47.90199546485261	50	127
47.73945578231292	47.84394557823129	74	127
47.84394557823129	47.91360544217687	83	127
47.84394557823129	47.99487528344671	43	127
47.91360544217687	48.00648526077097	74	127
47.91360544217687	48.09936507936508	50	127
47.91360544217687	48.09936507936508	47	127
48.00648526077097	48.11097505668934	79	127
48.00648526077097	48.20385487528345	43	127
48.11097505668934	48.28512471655329	47	127
48.11097505668934	48.28512471655329	50	127
48.11097505668934	48.21546485260771	83	127
48.21546485260771	48.28512471655329	43	127
48.21546485260771	48.29673469387755	86	127
48.29673469387755	48.401224489795915	85	127
48.29673469387755	48.49410430839002	47	127
48.29673469387755	48.49410430839002	50	127
48.401224489795915	48.49410430839002	86	127
48.401224489795915	48.5637641723356	43	127
48.49410430839002	48.575374149659865	88	127
48.49410430839002	48.66825396825397	47	127
48.49410430839002	48.66825396825397	50	127
48.575374149659865	48.679863945578234	86	127
48.575374149659865	48.77274376417233	43	127
48.679863945578234	48.888843537414964	47	127
48.679863945578234	48.784353741496595	83	127
48.679863945578234	48.888843537414964	50	127
48.784353741496595	48.888843537414964	86	127
48.784353741496595	49.004943310657595	43	127
48.888843537414964	49.01655328798186	84	127
48.888843537414964	49.121043083900226	50	127
48.888843537414964	49.121043083900226	54	127
49.01655328798186	49.121043083900226	81	127
49.01655328798186	49.121043083900226	43	127
49.121043083900226	49.36485260770975	43	127
49.121043083900226	49.36485260770975	50	127
49.121043083900226	49.36485260770975	55	127
49.121043083900226	49.58544217687075	79	127
49.23714285714286	49.48095238095238	59	127
49.37646258503401	49.58544217687075	55	127
49.48095238095238	49.678321995464856	52	127
49.59705215419501	49.771201814058955	47	127
49.68993197278912	49.87569160997732	54	127
49.78281179138322	49.98018140589569	59	127
49.887301587301586	49.98018140589569	63	127
49.991791383219955	50.17755102040816	52	127
50.08467120181406	50.28204081632653	55	127
50.18916099773243	50.36331065759637	59	127
50.29365079365079	50.45619047619048	64	127
50.374920634920635	50.56068027210885	47	127
50.46780045351474	50.66517006802721	59	127
50.57229024943311	50.83931972789116	63	127
50.67678004535147	50.83931972789116	66	127
50.85092970521542	51.05990929705215	40	127
50.96702947845805	51.16439909297052	59	127
51.05990929705215	51.26888888888889	64	127
51.16439909297052	51.37337868480726	67	127
51.26888888888889	51.50108843537415	47	127
51.37337868480726	51.60557823129252	54	127
51.50108843537415	51.69845804988662	59	127
51.60557823129252	51.69845804988662	63	127
51.69845804988662	51.94226757369614	52	127
51.82616780045351	52.04675736961451	55	127
51.94226757369614	52.15124716553288	59	127
52.04675736961451	52.26734693877551	64	127
52.15124716553288	52.37183673469388	47	127
52.26734693877551	52.453106575963716	59	127
52.37183673469388	52.54598639455782	63	127
52.453106575963716	52.54598639455782	66	127
52.54598639455782	52.75496598639456	40	127
52.65047619047619	52.85945578231293	59	127
52.75496598639456	52.96394557823129	64	127
52.85945578231293	53.09165532879818	67	127
52.96394557823129	53.19614512471655	54	127
52.96394557823129	53.19614512471655	71	127
53.19614512471655	53.41673469387755	51	127
53.19614512471655	53.41673469387755	71	127
53.42834467120181	53.55605442176871	71	127
53.42834467120181	53.602494331065756	52	127
53.498004535147395	53.602494331065756	72	127
53.56766439909297	53.660544217687075	71	127
53.614104308390026	53.79986394557823	47	127
53.614104308390026	53.79986394557823	73	127
53.706984126984125	53.9043537414966	75	127
53.81147392290249	54.03206349206349	76	127
53.81147392290249	54.03206349206349	40	127
54.043673469387755	54.27587301587302	78	127
54.043673469387755	54.27587301587302	35	127
54.28748299319728	54.48485260770975	40	127
54.28748299319728	54.48485260770975	79	127
54.49646258503402	54.589342403628116	76	127
54.693832199546485	54.8795918367347	54	127
54.693832199546485	54.8795918367347	71	127
54.8795918367347	55.076961451247165	71	127
54.8795918367347	55.076961451247165	51	127
55.076961451247165	55.27433106575964	52	127
55.076961451247165	55.21628117913832	71	127
55.146621315192746	55.27433106575964	72	127
55.21628117913832	55.343990929705214	71	127
55.27433106575964	55.460090702947845	73	127
55.27433106575964	55.460090702947845	47	127
55.355600907029476	55.56458049886621	75	127
55.460090702947845	55.65746031746032	76	127
55.460090702947845	55.65746031746032	40	127
55.65746031746032	55.86643990929705	78	127
55.65746031746032	55.86643990929705	35	127
55.86643990929705	56.110249433106574	79	127
55.86643990929705	56.110249433106574	40	127
56.330839002267574	56.725578231292516	74	127
56.330839002267574	56.725578231292516	69	127
56.330839002267574	56.725578231292516	50	127
56.330839002267574	56.725578231292516	38	127
56.330839002267574	56.725578231292516	81	127
56.330839002267574	56.725578231292516	78	127
56.725578231292516	57.155147392290246	81	127
56.725578231292516	57.155147392290246	38	127
56.725578231292516	57.155147392290246	50	127
56.725578231292516	57.155147392290246	78	127
56.725578231292516	57.155147392290246	74	127
56.725578231292516	57.155147392290246	69	127
57.155147392290246	57.56149659863946	78	127
57.155147392290246	57.56149659863946	50	127
57.155147392290246	57.56149659863946	69	127
57.155147392290246	57.56149659863946	74	127
57.155147392290246	57.56149659863946	81	127
57.155147392290246	57.56149659863946	38	127
57.57310657596372	59.75578231292517	74	127
57.57310657596372	59.75578231292517	78	127
57.57310657596372	59.75578231292517	81	127
57.57310657596372	57.79369614512472	38	127
57.57310657596372	59.75578231292517	69	127
57.67759637188209	57.909795918367344	50	127
57.80530612244898	58.01428571428571	45	127
57.909795918367344	58.141995464852606	42	127
58.025895691609975	58.23487528344671	38	127
58.141995464852606	58.362585034013605	42	127
58.246485260770974	58.45546485260771	45	127
58.362585034013605	58.45546485260771	42	127
58.467074829931974	58.66444444444444	38	127
58.55995464852608	58.78054421768707	42	127
58.676054421768704	58.88503401360544	45	127
58.78054421768707	58.88503401360544	42	127
58.896643990929704	59.070793650793654	38	127
58.97791383219955	59.186893424036285	42	127
59.082403628117916	59.31460317460318	45	127
59.186893424036285	59.31460317460318	42	127
59.32621315192744	59.54680272108843	38	127
59.44231292517007	59.662902494331064	42	127
59.558412698412695	59.75578231292517	45	127
59.662902494331064	59.75578231292517	42	127
59.76739229024943	59.96476190476191	38	127
59.76739229024943	59.96476190476191	50	127
59.88349206349206	60.08086167800454	42	127
59.88349206349206	60.08086167800454	54	127
59.97637188208617	60.1853514739229	57	127
59.97637188208617	60.1853514739229	45	127
60.08086167800454	60.1853514739229	42	127
60.08086167800454	60.1853514739229	54	127
60.19696145124716	60.41755102040816	38	127
60.19696145124716	60.41755102040816	50	127
60.30145124716553	60.52204081632653	42	127
60.30145124716553	60.52204081632653	54	127
60.429160997732424	60.63814058956916	57	127
60.429160997732424	60.63814058956916	45	127
60.52204081632653	60.63814058956916	42	127
60.52204081632653	60.63814058956916	54	127
60.649750566893424	60.85873015873016	50	127
60.649750566893424	60.85873015873016	38	127
60.75424036281179	60.986439909297054	42	127
60.75424036281179	60.986439909297054	54	127
60.87034013605442	61.102539682539685	57	127
60.87034013605442	61.102539682539685	45	127
60.986439909297054	61.102539682539685	54	127
60.986439909297054	61.102539682539685	42	127
61.11414965986395	61.55532879818594	38	127
61.11414965986395	61.32312925170068	50	127
61.20702947845805	61.45083900226757	54	127
61.33473922902494	61.55532879818594	57	127
61.45083900226757	61.55532879818594	54	127
61.5669387755102	61.74108843537415	50	127
61.67142857142857	61.845578231292514	54	127
61.74108843537415	61.95006802721088	57	127
61.845578231292514	61.95006802721088	54	127
61.95006802721088	62.19387755102041	50	127
62.077777777777776	62.30997732426304	54	127
62.19387755102041	62.42607709750567	57	127
62.30997732426304	62.42607709750567	54	127
62.42607709750567	62.57700680272109	50	127
62.57700680272109	62.66988662131519	55	127
62.66988662131519	62.77437641723356	59	127
62.77437641723356	62.86725623582767	62	127
62.86725623582767	63.714784580498865	43	127
62.86725623582767	62.97174603174603	61	127
62.86725623582767	63.714784580498865	31	127
62.97174603174603	63.09945578231292	62	127
63.09945578231292	63.20394557823129	64	127
63.20394557823129	63.2968253968254	62	127
63.2968253968254	63.41292517006803	59	127
63.41292517006803	63.505804988662135	62	127
63.505804988662135	63.610294784580496	60	127
63.610294784580496	63.714784580498865	57	127
63.714784580498865	64.5507029478458	43	127
63.714784580498865	64.5507029478458	31	127
63.714784580498865	63.80766439909297	55	127
63.80766439909297	63.9237641723356	59	127
63.9237641723356	64.02825396825396	50	127
64.02825396825396	64.13274376417233	59	127
64.13274376417233	64.22562358276645	50	127
64.22562358276645	64.33011337868481	55	127
64.33011337868481	64.44621315192744	59	127
64.44621315192744	64.5507029478458	62	127
64.5507029478458	65.42145124716554	31	127
64.5507029478458	64.6784126984127	61	127
64.5507029478458	65.42145124716554	43	127
64.6784126984127	64.74807256235827	62	127
64.75968253968254	64.85256235827664	64	127
64.86417233560091	64.98027210884354	62	127
64.9918820861678	65.0847619047619	59	127
65.09637188208617	65.20083900226757	62	127
65.2124716553288	65.28213151927437	60	127
65.29374149659864	65.42145124716554	57	127
65.43306122448979	66.24575963718821	31	127
65.43306122448979	65.85102040816327	55	127
65.43306122448979	66.24575963718821	43	127
65.86263038548753	65.9438775510204	50	127
65.95551020408163	66.04839002267573	55	127
66.06	66.14126984126985	59	127
66.14126984126985	66.24575963718821	62	127
66.24575963718821	66.35022675736961	61	127
66.24575963718821	67.1281179138322	31	127
66.24575963718821	67.1281179138322	43	127
66.35022675736961	66.45471655328798	62	127
66.45471655328798	66.58242630385487	64	127
66.58242630385487	66.69854875283447	62	127
66.69854875283447	66.80303854875284	59	127
66.80303854875284	66.9075283446712	62	127
66.9075283446712	67.02362811791383	60	127
67.02362811791383	67.1281179138322	57	127
67.1281179138322	67.95242630385488	43	127
67.1281179138322	67.23260770975057	55	127
67.1281179138322	67.95242630385488	31	127
67.23260770975057	67.33709750566894	59	127
67.33709750566894	67.42997732426304	50	127
67.42997732426304	67.52285714285715	59	127
67.52285714285715	67.63895691609977	50	127
67.63895691609977	67.74344671201814	55	127
67.74344671201814	67.84793650793651	59	127
67.84793650793651	67.95242630385488	62	127
67.95242630385488	68.74190476190476	31	127
67.95242630385488	68.74190476190476	43	127
67.95242630385488	68.05691609977325	61	127
68.05691609977325	68.16140589569162	62	127
68.16140589569162	68.26589569160998	64	127
68.26589569160998	68.35877551020408	62	127
68.35877551020408	68.45165532879818	59	127
68.45165532879818	68.5445351473923	62	127
68.55614512471655	68.64902494331066	60	127
68.66063492063492	68.74190476190476	57	127
68.75349206349206	69.13662131519274	55	127
68.75349206349206	69.13662131519274	31	127
68.75349206349206	69.13662131519274	43	127
69.14825396825397	69.24111111111111	54	127
69.25274376417234	69.34562358276644	55	127
69.3572335600907	69.4501133786848	57	127
69.47333333333333	69.56621315192744	59	127
69.5778231292517	70.41371882086167	50	127
69.5778231292517	69.68231292517007	60	127
69.69392290249434	69.78680272108843	59	127
69.81002267573696	69.9028798185941	57	127
69.9028798185941	70.00736961451247	55	127
70.00736961451247	70.1118820861678	54	127
70.1118820861678	70.19315192743764	55	127
70.19315192743764	70.28600907029478	57	127
70.28600907029478	70.41371882086167	59	127
70.41371882086167	71.22643990929706	50	127
70.41371882086167	70.54145124716554	60	127
70.54145124716554	70.64591836734694	59	127
70.64591836734694	70.77362811791383	57	127
70.77362811791383	70.8665306122449	55	127
70.8317006802721	70.88975056689343	73	127
70.8665306122449	70.94780045351474	54	127
70.8665306122449	71.02904761904762	74	127
70.94780045351474	71.02904761904762	55	127
70.98263038548752	71.06390022675737	73	127
71.02904761904762	71.11034013605442	57	127
71.02904761904762	71.22643990929706	74	127
71.11034013605442	71.22643990929706	59	127
71.16839002267574	71.2844671201814	73	127
71.22643990929706	71.67922902494331	50	127
71.22643990929706	71.44702947845805	74	127
71.22643990929706	71.34253968253968	60	127
71.34253968253968	71.44702947845805	59	127
71.400589569161	71.52829931972789	73	127
71.45863945578232	71.67922902494331	74	127
71.45863945578232	71.57473922902494	57	127
71.58634920634921	71.67922902494331	55	127
71.62117913832199	71.72566893424036	73	127
71.67922902494331	71.88820861678005	50	127
71.67922902494331	71.79530612244898	54	127
71.67922902494331	71.88820861678005	74	127
71.8069387755102	71.88820861678005	55	127
71.841768707483	71.9346485260771	73	127
71.88820861678005	71.98108843537415	54	127
71.88820861678005	72.08557823129252	74	127
71.88820861678005	72.08557823129252	50	127
71.98108843537415	72.08557823129252	55	127
72.03913832199547	72.13201814058957	73	127
72.08557823129252	72.50353741496599	50	127
72.08557823129252	72.50353741496599	74	127
72.08557823129252	72.50353741496599	54	127
72.51514739229025	72.73573696145125	74	127
72.74734693877551	72.94469387755102	74	127
72.95632653061224	73.1885260770975	47	127
72.95632653061224	73.1885260770975	50	127
72.95632653061224	73.1885260770975	74	127
73.07240362811791	73.3162358276644	43	127
73.2001133786848	73.42072562358277	47	127
73.2001133786848	73.42072562358277	50	127
73.2001133786848	73.25818594104308	74	127
73.2233560090703	73.3162358276644	76	127
73.25818594104308	73.3510657596372	74	127
73.3162358276644	73.51360544217687	43	127
73.3162358276644	73.42072562358277	73	127
73.37428571428572	73.46716553287982	74	127
73.42072562358277	73.6297052154195	50	127
73.42072562358277	73.6297052154195	47	127
73.42072562358277	73.6297052154195	76	127
73.51360544217687	73.73419501133787	43	127
73.6297052154195	73.83866213151927	50	127
73.6297052154195	73.83866213151927	48	127
73.6297052154195	73.83866213151927	78	127
73.73419501133787	73.83866213151927	43	127
73.83866213151927	74.02444444444444	79	127
73.83866213151927	74.02444444444444	47	127
73.83866213151927	74.02444444444444	50	127
73.93156462585034	74.11732426303855	43	127
74.02444444444444	74.11732426303855	83	127
74.02444444444444	74.22181405895692	47	127
74.02444444444444	74.22181405895692	50	127
74.11732426303855	74.31469387755102	43	127
74.22181405895692	74.40757369614512	50	127
74.22181405895692	74.40757369614512	47	127
74.22181405895692	74.40757369614512	74	127
74.31469387755102	74.51206349206349	43	127
74.40757369614512	74.61655328798186	74	127
74.40757369614512	74.61655328798186	50	127
74.40757369614512	74.61655328798186	47	127
74.51206349206349	74.61655328798186	43	127
74.61655328798186	74.7907029478458	74	127
74.61655328798186	74.7907029478458	50	127
74.61655328798186	74.7907029478458	47	127
74.709410430839	74.88358276643991	43	127
74.7907029478458	74.99968253968254	47	127
74.7907029478458	74.99968253968254	50	127
74.7907029478458	74.84875283446712	74	127
74.81392290249433	74.88358276643991	76	127
74.84875283446712	74.9184126984127	74	127
74.88358276643991	74.99968253968254	73	127
74.88358276643991	75.12739229024943	43	127
74.94163265306122	75.06934240362811	74	127
74.99968253968254	75.2318820861678	50	127
74.99968253968254	75.2318820861678	47	127
74.99968253968254	75.2318820861678	76	127
75.12739229024943	75.3247619047619	43	127
75.2318820861678	75.42925170068027	78	127
75.2318820861678	75.42925170068027	48	127
75.2318820861678	75.42925170068027	50	127
75.3247619047619	75.42925170068027	43	127
75.42925170068027	75.83560090702947	79	127
75.42925170068027	75.62662131519275	47	127
75.42925170068027	75.62662131519275	50	127
75.5453514739229	75.73108843537415	43	127
75.638231292517	75.83560090702947	50	127
75.638231292517	75.83560090702947	47	127
75.74272108843537	75.96328798185941	43	127
75.84721088435374	76.06780045351474	47	127
75.84721088435374	76.06780045351474	50	127
75.84721088435374	75.96328798185941	74	127
75.97492063492064	76.06780045351474	79	127
75.97492063492064	76.19551020408163	43	127
76.0909977324263	76.3	50	127
76.0909977324263	76.3	47	127
76.0909977324263	76.19551020408163	83	127
76.2071201814059	76.3	43	127
76.2071201814059	76.3	86	127
76.31160997732427	76.50897959183673	50	127
76.31160997732427	76.50897959183673	47	127
76.31160997732427	76.41609977324264	85	127
76.41609977324264	76.520589569161	86	127
76.41609977324264	76.60183673469388	43	127
76.520589569161	76.7063492063492	47	127
76.520589569161	76.6134693877551	88	127
76.520589569161	76.7063492063492	50	127
76.6134693877551	76.82244897959184	43	127
76.6134693877551	76.71795918367347	86	127
76.71795918367347	76.92693877551021	47	127
76.71795918367347	76.92693877551021	50	127
76.71795918367347	76.8340589569161	83	127
76.8340589569161	77.01981859410431	43	127
76.8340589569161	76.93854875283446	86	127
76.93854875283446	77.12430839002268	54	127
76.93854875283446	77.12430839002268	50	127
76.93854875283446	77.01981859410431	84	127
77.01981859410431	77.12430839002268	81	127
77.01981859410431	77.12430839002268	43	127
77.12430839002268	77.34489795918367	55	127
77.12430839002268	77.34489795918367	50	127
77.12430839002268	77.22879818594105	79	127
77.22879818594105	77.44938775510204	43	127
77.22879818594105	77.34489795918367	83	127
77.34489795918367	77.44938775510204	74	127
77.34489795918367	77.5538775510204	50	127
77.34489795918367	77.5538775510204	47	127
77.44938775510204	77.5538775510204	83	127
77.44938775510204	77.64675736961452	43	127
77.5538775510204	77.64675736961452	74	127
77.5538775510204	77.75122448979592	47	127
77.5538775510204	77.75122448979592	50	127
77.64675736961452	77.75122448979592	79	127
77.64675736961452	77.85573696145124	43	127
77.75122448979592	77.91378684807256	50	127
77.75122448979592	77.91378684807256	47	127
77.75122448979592	77.85573696145124	83	127
77.85573696145124	77.91378684807256	86	127
77.85573696145124	77.91378684807256	43	127
77.91378684807256	78.1227664399093	50	127
77.91378684807256	78.1227664399093	47	127
77.91378684807256	78.01827664399093	85	127
78.01827664399093	78.2156462585034	43	127
78.01827664399093	78.1227664399093	86	127
78.1227664399093	78.2156462585034	88	127
78.1227664399093	78.30852607709751	47	127
78.1227664399093	78.30852607709751	50	127
78.2156462585034	78.41301587301588	43	127
78.2156462585034	78.30852607709751	86	127
78.30852607709751	78.41301587301588	83	127
78.30852607709751	78.51748299319728	47	127
78.30852607709751	78.51748299319728	50	127
78.41301587301588	78.5291156462585	86	127
78.41301587301588	78.63360544217687	43	127
78.5291156462585	78.7497052154195	54	127
78.5291156462585	78.7497052154195	50	127
78.5291156462585	78.63360544217687	84	127
78.63360544217687	78.7497052154195	81	127
78.63360544217687	78.7497052154195	43	127
78.7497052154195	79.23732426303854	55	127
78.7497052154195	79.23732426303854	50	127
78.7497052154195	79.23732426303854	43	127
78.7497052154195	79.23732426303854	79	127
78.98190476190476	79.23732426303854	45	127
79.13283446712018	79.36503401360544	47	127
79.23732426303854	79.36503401360544	48	127
79.36503401360544	79.4695238095238	47	127
79.4695238095238	79.62045351473922	45	127
79.62045351473922	79.71333333333334	43	127
79.71333333333334	79.87587301587301	42	127
79.71333333333334	80.59569160997732	54	127
79.71333333333334	80.59569160997732	57	127
79.71333333333334	80.59569160997732	62	127
79.71333333333334	80.59569160997732	60	127
79.87587301587301	79.99197278911565	43	127
79.99197278911565	80.09646258503402	45	127
80.09646258503402	80.18934240362812	47	127
80.18934240362812	80.29383219954649	48	127
80.29383219954649	80.38671201814059	47	127
80.38671201814059	80.49120181405895	45	127
80.49120181405895	80.59569160997732	43	127
80.59569160997732	80.70018140589569	42	127
80.59569160997732	81.38517006802721	54	127
80.59569160997732	81.38517006802721	57	127
80.59569160997732	81.38517006802721	60	127
80.59569160997732	81.38517006802721	62	127
80.70018140589569	80.80467120181406	43	127
80.80467120181406	80.89755102040816	45	127
80.89755102040816	80.978820861678	47	127
80.99043083900227	81.09492063492064	48	127
81.1065306122449	81.19941043083901	47	127
81.21102040816326	81.29229024943311	45	127
81.3038775510204	81.38517006802721	43	127
81.39678004535148	81.48965986394558	42	127
81.39678004535148	81.59414965986394	60	127
81.39678004535148	81.59414965986394	54	127
81.39678004535148	81.59414965986394	57	127
81.39678004535148	81.59414965986394	62	127
81.50126984126985	81.59414965986394	43	127
81.60575963718821	81.80312925170068	54	127
81.60575963718821	81.80312925170068	62	127
81.60575963718821	81.80312925170068	57	127
81.60575963718821	81.69863945578231	45	127
81.71024943310658	81.80312925170068	47	127
81.81471655328798	82.01210884353742	54	127
81.81471655328798	81.9192290249433	48	127
81.81471655328798	82.01210884353742	62	127
81.81471655328798	82.01210884353742	57	127
81.93083900226758	82.01210884353742	47	127
82.02371882086167	82.15142857142857	48	127
82.02371882086167	82.27913832199546	54	127
82.02371882086167	82.27913832199546	57	127
82.02371882086167	82.27913832199546	62	127
82.16303854875284	82.27913832199546	47	127
82.29074829931973	82.68548752834467	57	127
82.29074829931973	82.68548752834467	54	127
82.29074829931973	82.68548752834467	62	127
82.29074829931973	82.68548752834467	48	127
82.68548752834467	82.77836734693878	50	127
82.77836734693878	82.8944671201814	48	127
82.8944671201814	82.98734693877552	47	127
82.98734693877552	83.08022675736962	45	127
83.08022675736962	83.19630385487528	44	127
83.08022675736962	83.30081632653061	56	127
83.08022675736962	83.30081632653061	59	127
83.08022675736962	83.30081632653061	62	127
83.08022675736962	83.30081632653061	64	127
83.19630385487528	83.30081632653061	45	127
83.30081632653061	83.49818594104309	56	127
83.30081632653061	83.49818594104309	59	127
83.30081632653061	83.49818594104309	62	127
83.30081632653061	83.49818594104309	64	127
83.30081632653061	83.40530612244898	47	127
83.40530612244898	83.49818594104309	48	127
83.49818594104309	83.60265306122449	50	127
83.49818594104309	83.69555555555556	64	127
83.49818594104309	83.69555555555556	62	127
83.49818594104309	83.69555555555556	59	127
83.49818594104309	83.69555555555556	56	127
83.60265306122449	83.69555555555556	49	127
83.69555555555556	83.88131519274377	56	127
83.69555555555556	83.88131519274377	62	127
83.69555555555556	83.88131519274377	59	127
83.69555555555556	83.7768253968254	50	127
83.69555555555556	83.88131519274377	64	127
83.7768253968254	83.88131519274377	49	127
83.88131519274377	84.32249433106576	50	127
83.88131519274377	84.32249433106576	56	127
83.88131519274377	84.32249433106576	59	127
83.88131519274377	84.32249433106576	64	127
84.32249433106576	84.45020408163265	53	127
84.45020408163265	84.56630385487529	52	127
84.56630385487529	84.70562358276644	50	127
84.70562358276644	84.8101133786848	48	127
84.83333333333333	85.65764172335601	67	127
84.83333333333333	85.65764172335601	59	127
84.83333333333333	85.65764172335601	62	127
84.83333333333333	84.90299319727892	47	127
84.83333333333333	85.65764172335601	65	127
84.91460317460317	84.99587301587302	48	127
85.00748299319729	85.12358276643991	50	127
85.13519274376418	85.21646258503401	52	127
85.22807256235828	85.33256235827665	53	127
85.3441723356009	85.44866213151927	52	127
85.46027210884354	85.55315192743764	50	127
85.56476190476191	85.65764172335601	48	127
85.66925170068028	85.76213151927438	47	127
85.66925170068028	86.52839002267574	59	127
85.66925170068028	86.52839002267574	62	127
85.66925170068028	86.52839002267574	65	127
85.66925170068028	86.52839002267574	67	127
85.77374149659865	85.87820861678004	48	127
85.90145124716554	85.99433106575964	50	127
86.00591836734694	86.098820861678	52	127
86.11043083900226	86.20331065759638	53	127
86.20331065759638	86.319410430839	52	127
86.319410430839	86.42390022675737	50	127
86.42390022675737	86.52839002267574	48	127
86.52839002267574	86.70253968253968	59	127
86.52839002267574	86.70253968253968	62	127
86.52839002267574	86.70253968253968	65	127
86.52839002267574	86.60965986394558	47	127
86.52839002267574	86.70253968253968	67	127
86.60965986394558	86.70253968253968	48	127
86.70253968253968	86.92312925170069	59	127
86.70253968253968	86.80702947845805	50	127
86.70253968253968	86.92312925170069	62	127
86.70253968253968	86.92312925170069	65	127
86.70253968253968	86.92312925170069	67	127
86.80702947845805	86.92312925170069	52	127
86.92312925170069	87.12049886621315	67	127
86.92312925170069	87.01600907029479	53	127
86.92312925170069	87.12049886621315	65	127
86.92312925170069	87.12049886621315	62	127
86.92312925170069	87.12049886621315	59	127
87.01600907029479	87.12049886621315	52	127
87.12049886621315	87.38750566893424	65	127
87.12049886621315	87.25979591836735	50	127
87.12049886621315	87.38750566893424	59	127
87.12049886621315	87.38750566893424	62	127
87.12049886621315	87.38750566893424	67	127
87.25979591836735	87.38750566893424	48	127
87.38750566893424	87.85192743764172	62	127
87.38750566893424	87.85192743764172	65	127
87.38750566893424	87.85192743764172	67	127
87.38750566893424	87.85192743764172	59	127
87.38750566893424	87.49201814058956	47	127
87.49201814058956	87.61972789115646	48	127
87.61972789115646	87.72421768707483	47	127
87.72421768707483	87.85192743764172	45	127
87.85192743764172	88.06090702947846	55	127
87.85192743764172	87.95641723356009	43	127
87.95641723356009	88.18861678004535	60	127
87.95641723356009	88.06090702947846	41	127
88.06090702947846	88.29310657596372	64	127
88.06090702947846	88.18861678004535	40	127
88.18861678004535	88.39759637188209	67	127
88.18861678004535	88.29310657596372	38	127
88.29310657596372	88.51369614512471	48	127
88.29310657596372	88.51369614512471	36	127
88.29310657596372	88.51369614512471	66	127
88.39759637188209	88.6414058956916	43	127
88.39759637188209	88.6414058956916	67	127
88.51369614512471	88.74589569160997	48	127
88.51369614512471	88.74589569160997	36	127
88.51369614512471	88.74589569160997	69	127
88.65301587301587	88.85038548752834	67	127
88.65301587301587	88.85038548752834	43	127
88.75750566893424	88.94326530612246	36	127
88.75750566893424	88.94326530612246	64	127
88.75750566893424	88.94326530612246	48	127
88.86199546485261	89.02453514739229	67	127
88.86199546485261	89.02453514739229	43	127
88.95487528344671	89.10580498866213	48	127
88.95487528344671	89.10580498866213	36	127
88.95487528344671	89.10580498866213	65	127
89.03614512471655	89.10580498866213	62	127
89.03614512471655	89.2102947845805	43	127
89.1174149659864	89.30315192743764	36	127
89.1174149659864	89.30315192743764	48	127
89.1174149659864	89.30315192743764	60	127
89.2102947845805	89.38444444444444	43	127
89.2102947845805	89.38444444444444	64	127
89.31478458049887	89.54698412698413	36	127
89.31478458049887	89.54698412698413	55	127
89.31478458049887	89.54698412698413	48	127
89.39605442176871	89.6514739229025	43	127
89.39605442176871	89.6514739229025	64	127
89.55857142857143	89.75596371882087	55	127
89.55857142857143	89.75596371882087	36	127
89.55857142857143	89.75596371882087	48	127
89.66308390022675	89.87206349206349	60	127
89.66308390022675	89.87206349206349	43	127
89.76757369614512	89.97655328798186	64	127
89.76757369614512	89.97655328798186	36	127
89.76757369614512	89.97655328798186	48	127
89.88367346938776	90.08104308390023	43	127
89.88367346938776	90.08104308390023	67	127
89.98816326530613	90.1855328798186	48	127
89.98816326530613	90.1855328798186	36	127
89.98816326530613	90.1855328798186	66	127
90.08104308390023	90.2784126984127	43	127
90.08104308390023	90.2784126984127	67	127
90.1855328798186	90.38290249433106	36	127
90.1855328798186	90.38290249433106	69	127
90.1855328798186	90.38290249433106	48	127
90.2784126984127	90.4990022675737	43	127
90.2784126984127	90.4990022675737	67	127
90.38290249433106	90.60349206349207	48	127
90.38290249433106	90.60349206349207	36	127
90.38290249433106	90.60349206349207	64	127
90.4990022675737	90.70795918367347	67	127
90.4990022675737	90.70795918367347	43	127
90.60349206349207	90.78925170068027	48	127
90.60349206349207	90.78925170068027	65	127
90.60349206349207	90.78925170068027	36	127
90.70795918367347	90.89374149659864	43	127
90.70795918367347	90.78925170068027	62	127
90.78925170068027	90.97501133786848	48	127
90.78925170068027	90.97501133786848	36	127
90.78925170068027	91.18399092970522	60	127
90.89374149659864	91.07950113378685	43	127
90.97501133786848	91.18399092970522	48	127
90.97501133786848	91.18399092970522	36	127
91.18399092970522	91.28848072562359	43	127
91.18399092970522	91.42780045351473	55	127
91.28848072562359	91.5322902494331	48	127
91.28848072562359	91.5322902494331	60	127
91.42780045351473	91.63678004535147	64	127
91.42780045351473	91.63678004535147	52	127
91.5322902494331	91.74126984126984	55	127
91.5322902494331	91.74126984126984	67	127
91.63678004535147	91.84575963718821	54	127
91.63678004535147	91.84575963718821	66	127
91.74126984126984	91.95024943310658	55	127
91.74126984126984	91.95024943310658	67	127
91.84575963718821	92.05473922902495	57	127
91.84575963718821	92.05473922902495	69	127
91.95024943310658	92.15922902494331	67	127
91.95024943310658	92.15922902494331	55	127
92.05473922902495	92.26371882086168	52	127
92.05473922902495	92.26371882086168	64	127
92.15922902494331	92.35659863945578	55	127
92.15922902494331	92.35659863945578	67	127
92.26371882086168	92.47267573696145	53	127
92.26371882086168	92.47267573696145	65	127
92.36820861678005	92.47267573696145	62	127
92.36820861678005	92.47267573696145	50	127
92.48430839002268	92.71650793650794	60	127
92.48430839002268	92.71650793650794	48	127
92.60038548752834	92.8209977324263	52	127
92.60038548752834	92.8209977324263	64	127
92.72809523809524	92.92548752834468	55	127
92.72809523809524	92.92548752834468	43	127
92.83260770975056	93.01836734693877	64	127
92.83260770975056	93.01836734693877	52	127
92.93709750566893	93.12285714285714	55	127
92.93709750566893	93.12285714285714	43	127
93.02997732426304	93.23893424036281	48	127
93.02997732426304	93.23893424036281	60	127
93.13446712018141	93.34342403628118	64	127
93.13446712018141	93.34342403628118	52	127
93.25056689342404	93.4479365079365	55	127
93.25056689342404	93.4479365079365	67	127
93.3550566893424	93.55242630385487	54	127
93.3550566893424	93.55242630385487	66	127
93.45954648526077	93.65691609977324	67	127
93.45954648526077	93.65691609977324	55	127
93.56403628117914	93.74977324263038	57	127
93.56403628117914	93.74977324263038	69	127
93.65691609977324	93.85426303854875	55	127
93.65691609977324	93.85426303854875	67	127
93.76140589569161	93.95877551020408	52	127
93.76140589569161	93.95877551020408	64	127
93.85426303854875	94.05165532879819	67	127
93.85426303854875	94.05165532879819	55	127
93.95877551020408	94.15614512471656	53	127
93.95877551020408	94.15614512471656	65	127
94.05165532879819	94.15614512471656	50	127
94.05165532879819	94.15614512471656	62	127
94.15614512471656	94.36510204081632	48	127
94.15614512471656	94.36510204081632	60	127
94.57410430839002	94.78308390022676	43	127
94.78308390022676	94.9920634920635	43	127
94.9920634920635	95.20104308390023	43	127
95.20104308390023	95.4332426303855	43	127
95.4332426303855	95.63061224489796	45	127
95.63061224489796	95.81637188208617	47	127
95.81637188208617	96.19950113378685	48	127
96.21111111111111	96.40848072562358	40	127
96.42009070294785	96.61746031746031	40	127
96.62907029478458	96.8148299319728	40	127
96.82643990929705	97.01219954648526	40	127
97.03541950113379	97.23278911564626	42	127
97.24439909297053	97.44176870748299	43	127
97.45337868480726	97.90616780045352	45	127
97.90616780045352	98.12675736961451	48	127
97.90616780045352	98.12675736961451	76	127
98.02226757369614	98.21963718820862	81	127
98.02226757369614	98.21963718820862	52	127
98.12675736961451	98.32412698412699	84	127
98.12675736961451	98.32412698412699	57	127
98.21963718820862	98.32412698412699	60	127
98.21963718820862	98.32412698412699	88	127
98.32412698412699	98.54471655328798	87	127
98.32412698412699	98.54471655328798	59	127
98.44022675736962	98.63759637188208	88	127
98.44022675736962	98.63759637188208	60	127
98.54471655328798	98.75369614512472	89	127
98.54471655328798	98.75369614512472	62	127
98.63759637188208	98.85818594104309	88	127
98.63759637188208	98.85818594104309	60	127
98.75369614512472	98.96267573696146	57	127
98.75369614512472	98.96267573696146	84	127
98.85818594104309	99.06716553287981	60	127
98.85818594104309	99.06716553287981	88	127
98.96267573696146	99.18326530612245	86	127
98.96267573696146	99.18326530612245	59	127
99.06716553287981	99.18326530612245	83	127
99.06716553287981	99.18326530612245	52	127
99.18326530612245	99.39224489795919	84	127
99.18326530612245	99.39224489795919	57	127
99.28775510204082	99.49673469387756	81	127
99.28775510204082	99.49673469387756	52	127
99.39224489795919	99.60122448979592	76	127
99.39224489795919	99.60122448979592	48	127
99.49673469387756	99.70571428571428	45	127
99.49673469387756	99.70571428571428	72	127
99.60122448979592	99.81020408163265	74	127
99.60122448979592	99.81020408163265	47	127
99.70571428571428	99.90308390022676	79	127
99.70571428571428	99.90308390022676	50	127
99.81020408163265	100.00757369614513	55	127
99.81020408163265	100.00757369614513	83	127
99.91469387755102	100.00757369614513	59	127
99.91469387755102	100.00757369614513	86	127
100.01918367346939	100.21655328798185	58	127
100.01918367346939	100.21655328798185	85	127
100.12367346938775	100.30943310657597	86	127
100.12367346938775	100.30943310657597	59	127
100.21655328798185	100.40231292517007	60	127
100.21655328798185	100.40231292517007	88	127
100.30943310657597	100.5184126984127	86	127
100.30943310657597	100.5184126984127	59	127
100.41392290249433	100.62290249433107	55	127
100.41392290249433	100.62290249433107	83	127
100.53002267573696	100.72739229024943	86	127
100.53002267573696	100.72739229024943	59	127
100.63451247165533	100.84349206349206	84	127
100.63451247165533	100.84349206349206	57	127
100.7390022675737	100.84349206349206	81	127
100.7390022675737	100.84349206349206	47	127
100.85510204081632	101.08730158730158	55	127
100.85510204081632	101.08730158730158	83	127
100.97120181405896	101.20340136054422	50	127
100.97120181405896	101.20340136054422	79	127
101.09891156462585	101.30789115646259	47	127
101.09891156462585	101.30789115646259	74	127
101.21501133786848	101.41238095238096	43	127
101.21501133786848	101.41238095238096	71	127
101.31950113378684	101.51687074829933	53	127
101.31950113378684	101.51687074829933	83	127
101.41238095238096	101.64458049886622	80	127
101.51687074829933	101.74907029478459	83	127
101.51687074829933	101.74907029478459	49	127
101.64458049886622	101.74907029478459	80	127
101.74907029478459	101.96965986394558	54	127
101.74907029478459	101.96965986394558	81	127
101.85356009070294	102.0857596371882	80	127
101.96965986394558	102.19024943310657	81	127
101.96965986394558	102.19024943310657	42	127
102.0857596371882	102.28312925170069	78	127
102.19024943310657	102.38761904761905	51	127
102.19024943310657	102.38761904761905	81	127
102.28312925170069	102.49210884353741	78	127
102.38761904761905	102.58498866213152	81	127
102.38761904761905	102.58498866213152	47	127
102.49210884353741	102.68947845804989	78	127
102.58498866213152	102.77074829931973	52	127
102.58498866213152	102.77074829931973	79	127
102.68947845804989	102.87523809523809	78	127
102.77074829931973	102.97972789115646	79	127
102.77074829931973	102.97972789115646	40	127
102.87523809523809	103.08421768707483	76	127
102.97972789115646	103.1887074829932	79	127
102.97972789115646	103.1887074829932	45	127
103.08421768707483	103.29319727891156	76	127
103.1887074829932	103.39768707482993	79	127
103.1887074829932	103.29319727891156	47	127
103.29319727891156	103.39768707482993	49	127
103.29319727891156	103.5021768707483	76	127
103.39768707482993	103.58344671201814	50	127
103.39768707482993	103.58344671201814	77	127
103.5021768707483	103.67632653061224	76	127
103.58344671201814	103.78081632653061	77	127
103.58344671201814	103.78081632653061	38	127
103.68793650793651	103.88530612244898	74	127
103.79242630385488	103.98979591836735	77	127
103.79242630385488	103.98979591836735	43	127
103.89691609977324	104.10589569160997	74	127
104.0014058956916	104.22199546485261	77	127
104.0014058956916	104.10589569160997	45	127
104.1291156462585	104.33809523809524	74	127
104.1291156462585	104.22199546485261	47	127
104.23360544217687	104.4425850340136	76	127
104.23360544217687	104.4425850340136	48	127
104.3497052154195	104.55868480725624	74	127
104.45419501133787	104.67478458049887	36	127
104.45419501133787	104.67478458049887	76	127
104.5702947845805	104.77927437641723	72	127
104.68639455782314	104.8837641723356	42	127
104.68639455782314	104.8837641723356	76	127
104.79088435374149	104.98825396825397	73	127
104.89537414965986	104.98825396825397	44	127
104.89537414965986	105.09274376417234	76	127
104.99986394557823	105.20884353741496	73	127
104.99986394557823	105.09274376417234	46	127
105.11596371882086	105.3249433106576	47	127
105.11596371882086	105.3249433106576	74	127
105.22045351473923	105.4178231292517	73	127
105.3249433106576	105.48748299319728	35	127
105.3249433106576	105.48748299319728	74	127
105.4178231292517	105.60358276643991	71	127
105.48748299319728	105.69646258503401	74	127
105.48748299319728	105.69646258503401	41	127
105.60358276643991	105.81256235827665	71	127
105.69646258503401	105.917052154195	68	127
105.69646258503401	105.917052154195	41	127
105.81256235827665	105.917052154195	62	127
105.917052154195	106.13764172335601	42	127
105.917052154195	106.02154195011337	61	127
106.02154195011337	106.13764172335601	66	127
106.13764172335601	106.24213151927438	61	127
106.13764172335601	106.34662131519275	54	127
106.24213151927438	106.34662131519275	58	127
106.34662131519275	106.45111111111112	59	127
106.34662131519275	106.56721088435374	54	127
106.45111111111112	106.56721088435374	66	127
106.56721088435374	106.76458049886621	54	127
106.56721088435374	106.67170068027211	62	127
106.67170068027211	106.76458049886621	59	127
106.76458049886621	106.95034013605442	54	127
106.76458049886621	106.84585034013605	61	127
106.84585034013605	106.95034013605442	66	127
106.95034013605442	107.04321995464852	64	127
106.95034013605442	107.18253968253968	54	127
107.04321995464852	107.18253968253968	61	127
107.18253968253968	107.39151927437642	54	127
107.18253968253968	107.27541950113378	59	127
107.28702947845805	107.39151927437642	66	127
107.40312925170068	107.49600907029479	62	127
107.40312925170068	107.60049886621316	54	127
107.50761904761904	107.60049886621316	59	127
107.61210884353741	107.80947845804988	42	127
107.61210884353741	107.70498866213151	58	127
107.71659863945578	107.80947845804988	70	127
107.82108843537415	107.91396825396825	66	127
107.82108843537415	108.01845804988662	54	127
107.92557823129252	108.01845804988662	61	127
108.04167800453514	108.25065759637188	54	127
108.04167800453514	108.13455782312926	62	127
108.14616780045351	108.25065759637188	71	127
108.2738775510204	108.47124716553287	54	127
108.2738775510204	108.36675736961452	66	127
108.37836734693877	108.47124716553287	62	127
108.48285714285714	108.68022675736961	54	127
108.48285714285714	108.57573696145124	64	127
108.58734693877551	108.68022675736961	73	127
108.68022675736961	108.90081632653062	54	127
108.68022675736961	108.79632653061225	66	127
108.79632653061225	108.90081632653062	64	127
108.90081632653062	108.99369614512472	62	127
108.90081632653062	109.09818594104308	54	127
108.99369614512472	109.09818594104308	71	127
109.09818594104308	109.20267573696145	66	127
109.09818594104308	109.26072562358277	54	127
109.20267573696145	109.26072562358277	62	127
109.26072562358277	109.4697052154195	42	127
109.26072562358277	109.36521541950114	61	127
109.36521541950114	109.4697052154195	70	127
109.4697052154195	109.65546485260771	47	127
109.4697052154195	109.56258503401361	62	127
109.56258503401361	109.65546485260771	71	127
109.65546485260771	109.87605442176871	42	127
109.65546485260771	109.75995464852608	61	127
109.75995464852608	109.87605442176871	70	127
109.87605442176871	109.98054421768707	62	127
109.87605442176871	110.08503401360544	47	127
109.98054421768707	110.08503401360544	71	127
110.08503401360544	110.32884353741497	42	127
110.08503401360544	110.2243537414966	61	127
110.2243537414966	110.32884353741497	70	127
110.32884353741497	110.52621315192744	47	127
110.32884353741497	110.43333333333334	62	127
110.43333333333334	110.52621315192744	71	127
110.52621315192744	110.73519274376417	42	127
110.52621315192744	110.6307029478458	61	127
110.6307029478458	110.73519274376417	70	127
110.73519274376417	110.95578231292517	47	127
110.73519274376417	110.8512925170068	62	127
110.8512925170068	110.95578231292517	71	127
110.96739229024944	111.1995918367347	61	127
110.96739229024944	111.1995918367347	42	127
110.96739229024944	111.1995918367347	70	127
111.1995918367347	111.39696145124717	54	127
111.2924716553288	111.51306122448979	66	127
111.39696145124717	111.62916099773243	54	127
111.52467120181406	111.74526077097505	66	127
111.62916099773243	111.81492063492064	54	127
111.74526077097505	111.91941043083901	66	127
111.81492063492064	112.03551020408163	54	127
111.93102040816326	112.14	66	127
112.0471201814059	112.24448979591837	54	127
112.14	112.37219954648526	66	127
112.24448979591837	112.53473922902495	54	127
112.38380952380952	112.6392290249433	66	127
112.5463492063492	112.75532879818594	54	127
112.6392290249433	112.85981859410431	66	127
112.75532879818594	112.9875283446712	54	127
112.85981859410431	113.09201814058957	66	127
112.99913832199546	113.2081179138322	54	127
113.09201814058957	113.31260770975057	66	127
113.2081179138322	113.40548752834466	54	127
113.31260770975057	113.53319727891156	66	127
113.41709750566893	113.63768707482993	54	127
113.54480725623583	113.71895691609977	66	127
113.63768707482993	113.78861678004534	54	127
113.71895691609977	113.89310657596371	66	127
113.80022675736961	114.00920634920635	54	127
113.90471655328798	114.00920634920635	66	127
114.00920634920635	114.0904761904762	66	127
114.00920634920635	114.1833560090703	54	127
114.0904761904762	114.1833560090703	71	127
114.1833560090703	114.39233560090703	54	127
114.1833560090703	114.28784580498866	75	127
114.29945578231292	114.39233560090703	78	127
114.40394557823129	114.4968253968254	77	127
114.40394557823129	115.01927437641723	59	127
114.40394557823129	115.21664399092971	47	127
114.40394557823129	115.21664399092971	54	127
114.4968253968254	114.5897052154195	78	127
114.5897052154195	114.69419501133787	80	127
114.70580498866214	114.79868480725624	78	127
114.81029478458049	114.91478458049886	75	127
114.91478458049886	115.01927437641723	78	127
115.01927437641723	115.1237641723356	76	127
115.01927437641723	115.21664399092971	58	127
115.1237641723356	115.21664399092971	73	127
115.22825396825397	116.12222222222222	47	127
115.22825396825397	115.3443537414966	71	127
115.22825396825397	115.85519274376418	59	127
115.3443537414966	115.44884353741497	75	127
115.44884353741497	115.55333333333333	66	127
115.55333333333333	115.64621315192744	75	127
115.6578231292517	115.73909297052154	66	127
115.75070294784581	115.85519274376418	71	127
115.85519274376418	116.12222222222222	58	127
115.85519274376418	115.99451247165533	75	127
115.99451247165533	116.12222222222222	78	127
116.13383219954649	116.74916099773243	59	127
116.13383219954649	116.95814058956915	47	127
116.13383219954649	116.95814058956915	54	127
116.13383219954649	116.23832199546486	77	127
116.24993197278911	116.33120181405896	78	127
116.33120181405896	116.43569160997733	80	127
116.43569160997733	116.52857142857142	78	127
116.52857142857142	116.6330612244898	75	127
116.64467120181406	116.74916099773243	78	127
116.74916099773243	116.95814058956915	58	127
116.74916099773243	116.8536507936508	76	127
116.8536507936508	116.95814058956915	73	127
116.95814058956915	117.15551020408164	59	127
116.95814058956915	117.15551020408164	54	127
116.95814058956915	117.15551020408164	47	127
116.95814058956915	117.15551020408164	71	127
117.07424036281179	117.27160997732426	59	127
117.16712018140589	117.41092970521542	47	127
117.27160997732426	117.53863945578232	59	127
117.41092970521542	117.61990929705216	47	127
117.55024943310657	117.72439909297051	59	127
117.63151927437642	117.81727891156463	47	127
117.72439909297051	117.93337868480725	59	127
117.81727891156463	118.03786848072562	47	127
117.93337868480725	118.14235827664399	59	127
118.04947845804989	118.24684807256236	47	127
118.15396825396826	118.35133786848073	59	127
118.24684807256236	118.44421768707483	47	127
118.35133786848073	118.53709750566894	59	127
118.4558276643991	118.65319727891156	47	127
118.5487074829932	118.74607709750566	59	127
118.65319727891156	118.8970068027211	50	127
118.74607709750566	119.03632653061224	62	127
118.8970068027211	119.15242630385488	50	127
119.04793650793651	119.2685260770975	62	127
119.15242630385488	119.3614058956916	50	127
119.2685260770975	119.44267573696145	62	127
119.3614058956916	119.52394557823129	50	127
119.45428571428572	119.64004535147393	62	127
119.53555555555556	119.72131519274376	50	127
119.64004535147393	119.86063492063492	62	127
119.72131519274376	119.97673469387755	50	127
119.87224489795918	120.06961451247166	62	127
119.98834467120182	120.16249433106576	50	127
120.06961451247166	120.2785941043084	62	127
120.16249433106576	120.38308390022675	50	127
120.2785941043084	120.49918367346939	62	127
120.39469387755102	120.60367346938776	50	127
120.49918367346939	120.75460317460318	62	127
120.60367346938776	120.84748299319727	50	127
120.75460317460318	120.95197278911564	62	127
120.85909297052154	121.06807256235828	50	127
120.96358276643991	121.14934240362811	62	127
121.06807256235828	121.25383219954648	50	127
121.14934240362811	121.35832199546485	62	127
121.26544217687075	121.46281179138322	50	127
121.36993197278912	121.54408163265306	62	127
121.46281179138322	121.6253514739229	50	127
121.54408163265306	121.68340136054422	62	127
121.6253514739229	121.7530612244898	50	127
121.68340136054422	121.8459410430839	62	127
121.7530612244898	121.95043083900227	50	127
121.8459410430839	122.07814058956916	62	127
121.95043083900227	122.17102040816326	50	127
121.95043083900227	122.17102040816326	43	127
122.08975056689343	122.2871201814059	62	127
122.18263038548753	122.38	50	127
122.18263038548753	122.38	43	127
122.2871201814059	122.47287981859411	62	127
122.38	122.600589569161	43	127
122.38	122.600589569161	52	127
122.47287981859411	122.7282993197279	64	127
122.61219954648526	122.83278911564626	54	127
122.61219954648526	122.83278911564626	43	127
122.7282993197279	122.93727891156463	66	127
122.83278911564626	123.01854875283446	43	127
122.83278911564626	123.01854875283446	55	127
122.93727891156463	123.11142857142858	67	127
123.03015873015873	123.21591836734694	43	127
123.03015873015873	123.21591836734694	50	127
123.12303854875283	123.32040816326531	62	127
123.21591836734694	123.42489795918367	50	127
123.21591836734694	123.42489795918367	43	127
123.32040816326531	123.51777777777778	62	127
123.43650793650794	123.64548752834467	43	127
123.43650793650794	123.64548752834467	50	127
123.52938775510204	123.73836734693877	62	127
123.64548752834467	123.83124716553289	43	127
123.64548752834467	123.83124716553289	50	127
123.73836734693877	123.93573696145124	62	127
123.83124716553289	124.05183673469388	43	127
123.83124716553289	124.05183673469388	50	127
123.94734693877551	124.1679365079365	62	127
124.05183673469388	124.27242630385487	43	127
124.05183673469388	124.27242630385487	52	127
124.1679365079365	124.37691609977324	64	127
124.27242630385487	124.50462585034013	43	127
124.27242630385487	124.50462585034013	54	127
124.38852607709751	124.6091156462585	66	127
124.5162358276644	124.69038548752835	55	127
124.5162358276644	124.69038548752835	43	127
124.6091156462585	124.78326530612244	67	127
124.69038548752835	124.87614512471656	55	127
124.69038548752835	124.87614512471656	43	127
124.78326530612244	124.87614512471656	67	127
124.88775510204081	125.0154648526077	50	127
124.88775510204081	125.13156462585034	31	127
125.0154648526077	125.23605442176871	43	127
125.0154648526077	125.13156462585034	55	127
125.13156462585034	125.23605442176871	59	127
125.13156462585034	125.34054421768707	31	127
125.23605442176871	125.34054421768707	62	127
125.23605442176871	125.44503401360544	43	127
125.35215419501134	125.44503401360544	61	127
125.35215419501134	125.56113378684807	31	127
125.4566439909297	125.56113378684807	62	127
125.4566439909297	125.66562358276644	43	127
125.56113378684807	125.77011337868481	31	127
125.56113378684807	125.66562358276644	64	127
125.66562358276644	125.87460317460318	43	127
125.66562358276644	125.77011337868481	62	127
125.78172335600907	125.9907029478458	31	127
125.78172335600907	125.87460317460318	59	127
125.88621315192744	126.07197278911565	43	127
125.88621315192744	125.9907029478458	62	127
125.9907029478458	126.17646258503402	31	127
125.9907029478458	126.07197278911565	60	127
126.07197278911565	126.28095238095239	43	127
126.07197278911565	126.17646258503402	57	127
126.17646258503402	126.28095238095239	55	127
126.17646258503402	126.39705215419501	31	127
126.29256235827664	126.39705215419501	59	127
126.29256235827664	126.48993197278912	43	127
126.39705215419501	126.48993197278912	50	127
126.39705215419501	126.59442176870748	31	127
126.48993197278912	126.71052154195011	43	127
126.48993197278912	126.59442176870748	59	127
126.59442176870748	126.83823129251701	31	127
126.59442176870748	126.71052154195011	50	127
126.72213151927437	126.95433106575963	43	127
126.72213151927437	126.83823129251701	55	127
126.84984126984126	126.95433106575963	59	127
126.84984126984126	127.058820861678	31	127
126.95433106575963	127.058820861678	62	127
126.95433106575963	127.15170068027211	43	127
127.058820861678	127.24458049886621	31	127
127.058820861678	127.15170068027211	61	127
127.15170068027211	127.34907029478458	43	127
127.15170068027211	127.24458049886621	62	127
127.25619047619048	127.34907029478458	64	127
127.25619047619048	127.44195011337868	31	127
127.34907029478458	127.54643990929705	43	127
127.34907029478458	127.44195011337868	62	127
127.44195011337868	127.54643990929705	59	127
127.44195011337868	127.65092970521542	31	127
127.54643990929705	127.77863945578231	43	127
127.54643990929705	127.65092970521542	62	127
127.67414965986394	127.77863945578231	60	127
127.67414965986394	127.85990929705216	31	127
127.77863945578231	127.85990929705216	57	127
127.77863945578231	127.96439909297052	43	127
127.85990929705216	128.05727891156462	31	127
127.85990929705216	128.27786848072563	55	127
127.96439909297052	128.161768707483	43	127
128.0688888888889	128.27786848072563	31	127
128.17337868480726	128.382358276644	43	127
128.27786848072563	128.382358276644	54	127
128.382358276644	128.48684807256237	55	127
128.48684807256237	128.57972789115647	57	127
128.59133786848074	128.6958276643991	59	127
128.6958276643991	128.83514739229025	60	127
128.6958276643991	129.6014058956916	50	127
128.83514739229025	128.93963718820862	59	127
128.93963718820862	129.044126984127	57	127
129.05573696145126	129.1370068027211	55	127
129.1370068027211	129.24149659863946	54	127
129.24149659863946	129.3691836734694	55	127
129.3691836734694	129.48530612244897	57	127
129.49691609977324	129.6014058956916	59	127
129.61301587301588	130.4489342403628	50	127
129.61301587301588	129.71750566893425	60	127
129.71750566893425	129.84521541950113	59	127
129.84521541950113	129.96131519274377	57	127
129.96131519274377	130.05419501133787	55	127
130.00775510204082	130.10063492063492	73	127
130.05419501133787	130.23993197278912	74	127
130.05419501133787	130.14707482993197	54	127
130.14707482993197	130.23993197278912	55	127
130.20512471655329	130.28637188208617	73	127
130.23993197278912	130.4489342403628	74	127
130.23993197278912	130.34444444444443	57	127
130.34444444444443	130.4489342403628	59	127
130.40249433106575	130.50698412698412	73	127
130.46054421768707	130.9017006802721	50	127
130.46054421768707	130.6695238095238	74	127
130.46054421768707	130.56503401360544	60	127
130.56503401360544	130.6695238095238	59	127
130.62308390022676	130.72757369614513	73	127
130.68113378684808	130.9017006802721	74	127
130.68113378684808	130.78562358276645	57	127
130.78562358276645	130.9017006802721	55	127
130.855283446712	130.94816326530614	73	127
130.91333333333333	131.12231292517006	50	127
130.91333333333333	131.12231292517006	74	127
130.91333333333333	131.00619047619048	54	127
131.0178231292517	131.12231292517006	55	127
131.07587301587301	131.1687528344671	73	127
131.12231292517006	131.35451247165534	74	127
131.12231292517006	131.35451247165534	50	127
131.12231292517006	131.22680272108843	54	127
131.2384126984127	131.35451247165534	55	127
131.29646258503402	131.4009523809524	73	127
131.35451247165534	131.81891156462586	50	127
131.35451247165534	131.81891156462586	74	127
131.35451247165534	131.81891156462586	54	127
131.81891156462586	132.02786848072563	74	127
132.02786848072563	132.2136507936508	74	127
132.2136507936508	132.399410430839	74	127
132.2136507936508	132.399410430839	47	127
132.2136507936508	132.399410430839	50	127
132.31814058956917	132.51551020408164	43	127
132.41102040816327	132.62	50	127
132.41102040816327	132.62	47	127
132.41102040816327	132.48068027210886	74	127
132.4690702947846	132.51551020408164	76	127
132.4922902494331	132.55034013605442	74	127
132.5271201814059	132.73609977324264	43	127
132.5271201814059	132.62	73	127
132.57356009070295	132.68963718820862	74	127
132.63160997732427	132.85219954648525	50	127
132.63160997732427	132.85219954648525	47	127
132.63160997732427	132.85219954648525	76	127
132.74770975056688	132.9450566893424	43	127
132.86380952380952	133.04954648526078	50	127
132.86380952380952	133.04954648526078	78	127
132.86380952380952	133.04954648526078	48	127
132.95668934240362	133.04954648526078	43	127
133.061179138322	133.25854875283446	50	127
133.061179138322	133.25854875283446	47	127
133.061179138322	133.25854875283446	79	127
133.16566893424036	133.35142857142858	43	127
133.27015873015873	133.35142857142858	83	127
133.27015873015873	133.45589569160998	47	127
133.27015873015873	133.45589569160998	50	127
133.36303854875283	133.54879818594105	43	127
133.4675283446712	133.65328798185942	50	127
133.4675283446712	133.65328798185942	47	127
133.4675283446712	133.65328798185942	74	127
133.56038548752835	133.74616780045352	43	127
133.66487528344672	133.8506575963719	74	127
133.66487528344672	133.8506575963719	47	127
133.66487528344672	133.8506575963719	50	127
133.74616780045352	133.8506575963719	43	127
133.8506575963719	134.04802721088436	74	127
133.8506575963719	134.04802721088436	47	127
133.8506575963719	134.04802721088436	50	127
133.943537414966	134.15251700680273	43	127
134.04802721088436	134.2570068027211	50	127
134.04802721088436	134.11768707482995	74	127
134.04802721088436	134.2570068027211	47	127
134.08285714285714	134.15251700680273	76	127
134.11768707482995	134.1873469387755	74	127
134.15251700680273	134.2570068027211	73	127
134.15251700680273	134.37310657596373	43	127
134.21056689342404	134.3150566893424	74	127
134.2570068027211	134.5008163265306	50	127
134.2570068027211	134.5008163265306	47	127
134.2570068027211	134.5008163265306	76	127
134.37310657596373	134.60530612244898	43	127
134.5008163265306	134.70979591836735	78	127
134.5008163265306	134.70979591836735	48	127
134.5008163265306	134.70979591836735	50	127
134.60530612244898	134.70979591836735	43	127
134.70979591836735	134.94197278911565	47	127
134.70979591836735	134.94197278911565	50	127
134.70979591836735	135.15097505668933	79	127
134.83748299319728	135.04646258503402	43	127
134.94197278911565	135.15097505668933	47	127
134.94197278911565	135.15097505668933	50	127
135.04646258503402	135.2322448979592	43	127
135.15097505668933	135.2322448979592	74	127
135.15097505668933	135.33673469387756	47	127
135.15097505668933	135.33673469387756	50	127
135.2322448979592	135.45281179138323	43	127
135.2322448979592	135.33673469387756	79	127
135.33673469387756	135.45281179138323	83	127
135.33673469387756	135.5457142857143	50	127
135.33673469387756	135.5457142857143	47	127
135.45281179138323	135.5457142857143	86	127
135.45281179138323	135.5457142857143	43	127
135.5457142857143	135.77791383219954	50	127
135.5457142857143	135.77791383219954	47	127
135.5457142857143	135.65020408163267	85	127
135.65020408163267	135.87079365079364	43	127
135.65020408163267	135.77791383219954	86	127
135.77791383219954	135.87079365079364	88	127
135.77791383219954	135.975283446712	47	127
135.77791383219954	135.975283446712	50	127
135.87079365079364	136.07977324263038	43	127
135.87079365079364	135.975283446712	86	127
135.975283446712	136.18426303854875	50	127
135.975283446712	136.09138321995465	83	127
135.975283446712	136.18426303854875	47	127
136.09138321995465	136.2074829931973	86	127
136.09138321995465	136.3003628117914	43	127
136.2074829931973	136.31197278911566	84	127
136.2074829931973	136.43968253968254	50	127
136.2074829931973	136.43968253968254	54	127
136.31197278911566	136.46290249433108	81	127
136.31197278911566	136.43968253968254	43	127
136.46290249433108	136.6718820861678	55	127
136.46290249433108	136.6718820861678	50	127
136.46290249433108	136.57897959183674	79	127
136.57897959183674	136.68349206349205	83	127
136.57897959183674	136.78798185941042	43	127
136.68349206349205	136.88083900226758	50	127
136.68349206349205	136.7995918367347	74	127
136.68349206349205	136.88083900226758	47	127
136.7995918367347	136.98532879818595	43	127
136.7995918367347	136.8924716553288	83	127
136.8924716553288	137.08981859410432	50	127
136.8924716553288	136.99696145124716	74	127
136.8924716553288	137.08981859410432	47	127
136.99696145124716	137.19433106575963	43	127
136.99696145124716	137.1130612244898	79	127
137.1130612244898	137.298820861678	50	127
137.1130612244898	137.298820861678	47	127
137.1130612244898	137.2059410430839	83	127
137.2059410430839	137.298820861678	43	127
137.2059410430839	137.298820861678	86	127
137.298820861678	137.36848072562358	85	127
137.298820861678	137.4497505668934	47	127
137.298820861678	137.4497505668934	50	127
137.36848072562358	137.55424036281178	43	127
137.36848072562358	137.4497505668934	86	127
137.4497505668934	137.65873015873015	50	127
137.4497505668934	137.65873015873015	47	127
137.4497505668934	137.55424036281178	88	127
137.55424036281178	137.76321995464852	43	127
137.55424036281178	137.65873015873015	86	127
137.65873015873015	137.85607709750568	50	127
137.65873015873015	137.85607709750568	47	127
137.65873015873015	137.76321995464852	83	127
137.76321995464852	137.960589569161	43	127
137.76321995464852	137.85607709750568	86	127
137.85607709750568	138.06507936507936	50	127
137.85607709750568	138.06507936507936	54	127
137.85607709750568	137.960589569161	84	127
137.960589569161	138.06507936507936	81	127
137.960589569161	138.06507936507936	43	127
138.06507936507936	138.19278911564626	79	127
138.06507936507936	138.52947845804988	43	127
138.06507936507936	138.52947845804988	50	127
138.06507936507936	138.52947845804988	55	127
138.19278911564626	138.3088888888889	83	127
138.3088888888889	138.41337868480727	81	127
138.41337868480727	138.52947845804988	78	127
138.52947845804988	138.6804081632653	67	127
138.52947845804988	138.6804081632653	76	127
138.6804081632653	138.79650793650794	79	127
138.6804081632653	138.79650793650794	71	127
138.79650793650794	138.88938775510204	78	127
138.79650793650794	138.88938775510204	69	127
138.88938775510204	138.9938775510204	66	127
138.88938775510204	138.9938775510204	74	127
138.9938775510204	139.07514739229026	64	127
138.9938775510204	139.07514739229026	72	127
139.07514739229026	139.19124716553287	76	127
139.07514739229026	139.19124716553287	67	127
139.19124716553287	139.29573696145124	66	127
139.19124716553287	139.29573696145124	74	127
139.29573696145124	139.4002267573696	71	127
139.29573696145124	139.4002267573696	62	127
139.4002267573696	139.49308390022676	60	127
139.4002267573696	139.49308390022676	69	127
139.49308390022676	139.59759637188208	64	127
139.49308390022676	139.59759637188208	72	127
139.59759637188208	139.71369614512471	71	127
139.59759637188208	139.71369614512471	62	127
139.71369614512471	139.81818594104308	59	127
139.71369614512471	139.81818594104308	68	127
139.81818594104308	139.89943310657597	60	127
139.81818594104308	139.89943310657597	69	127
139.91106575963718	140.00392290249434	59	127
139.91106575963718	140.00392290249434	71	127
140.01555555555555	140.10843537414965	72	127
140.01555555555555	140.10843537414965	57	127
140.12004535147392	140.21292517006802	74	127
140.12004535147392	140.21292517006802	55	127
140.2245351473923	140.3174149659864	76	127
140.2245351473923	140.3174149659864	54	127
140.32902494331066	140.41027210884354	78	127
140.32902494331066	140.41027210884354	52	127
140.42190476190476	140.5147619047619	50	127
140.42190476190476	140.5147619047619	79	127
140.52639455782312	140.60766439909298	81	127
140.52639455782312	140.60766439909298	48	127
140.61927437641722	140.7237641723356	47	127
140.61927437641722	140.7237641723356	83	127
140.7237641723356	140.81662131519275	43	127
140.7237641723356	140.81662131519275	86	127
140.81662131519275	140.92111111111112	79	127
140.81662131519275	140.92111111111112	48	127
140.92111111111112	141.02560090702949	45	127
140.92111111111112	141.02560090702949	84	127
141.0372335600907	141.14172335600907	50	127
141.0372335600907	141.14172335600907	74	127
141.14172335600907	141.24621315192744	49	127
141.14172335600907	141.24621315192744	83	127
141.2578231292517	141.37392290249434	50	127
141.2578231292517	141.37392290249434	72	127
141.38553287981858	141.49002267573695	81	127
141.38553287981858	141.49002267573695	38	127
141.49002267573695	141.71061224489796	83	127
141.49002267573695	141.59451247165532	43	127
141.59451247165532	141.71061224489796	59	127
141.71061224489796	141.79185941043085	57	127
141.79185941043085	141.89637188208616	54	127
141.79185941043085	141.89637188208616	83	127
141.89637188208616	142.09374149659865	88	127
141.89637188208616	141.98925170068028	52	127
141.98925170068028	142.09374149659865	55	127
142.09374149659865	142.19820861678005	54	127
142.19820861678005	142.30269841269842	79	127
142.19820861678005	142.30269841269842	50	127
142.30269841269842	142.52331065759637	84	127
142.30269841269842	142.4071882086168	48	127
142.4071882086168	142.52331065759637	52	127
142.52331065759637	142.61619047619047	50	127
142.61619047619047	142.70904761904762	47	127
142.61619047619047	142.70904761904762	84	127
142.70904761904762	142.91802721088436	84	127
142.70904761904762	142.813537414966	45	127
142.813537414966	142.91802721088436	48	127
142.91802721088436	143.02253968253967	47	127
143.02253968253967	143.12702947845804	44	127
143.02253968253967	143.12702947845804	84	127
143.12702947845804	144.0558276643991	84	127
143.12702947845804	143.2315192743764	45	127
143.2315192743764	143.33600907029478	47	127
143.33600907029478	143.42886621315193	48	127
143.42886621315193	143.53337868480725	47	127
143.53337868480725	143.62625850340137	45	127
143.63786848072561	143.73072562358277	43	127
143.74235827664398	143.83521541950114	42	127
143.84684807256235	143.9397052154195	40	127
143.95133786848072	144.5202267573696	38	127
144.06743764172336	144.17192743764173	86	127
144.183537414966	144.28802721088437	88	127
144.2996371882086	144.41573696145124	86	127
144.42734693877551	144.5202267573696	84	127
144.53183673469388	144.62471655328798	83	127
144.53183673469388	144.62471655328798	40	127
144.63632653061225	144.74081632653062	42	127
144.63632653061225	144.74081632653062	81	127
144.75240362811792	144.845306122449	43	127
144.75240362811792	144.845306122449	79	127
144.8568934240363	145.39097505668934	78	127
144.8568934240363	144.92657596371882	45	127
144.9381859410431	145.0310657596372	47	127
145.04267573696146	145.13555555555556	48	127
145.13555555555556	145.26326530612246	47	127
145.26326530612246	145.39097505668934	45	127
145.39097505668934	145.4954648526077	79	127
145.39097505668934	145.4954648526077	43	127
145.4954648526077	145.61156462585035	81	127
145.4954648526077	145.61156462585035	42	127
145.61156462585035	145.71605442176872	83	127
145.61156462585035	145.71605442176872	40	127
145.71605442176872	145.8205442176871	84	127
145.71605442176872	146.21528344671202	38	127
145.8205442176871	145.92503401360545	86	127
145.92503401360545	146.00630385487528	88	127
146.00630385487528	146.11079365079365	86	127
146.11079365079365	146.21528344671202	84	127
146.21528344671202	146.3197732426304	83	127
146.21528344671202	146.3197732426304	40	127
146.3197732426304	146.4126530612245	42	127
146.3197732426304	146.4126530612245	81	127
146.4126530612245	146.51714285714286	43	127
146.4126530612245	146.51714285714286	79	127
146.51714285714286	147.0628117913832	78	127
146.51714285714286	146.6332426303855	45	127
146.6332426303855	146.74931972789116	47	127
146.74931972789116	146.85380952380953	48	127
146.85380952380953	146.95832199546484	47	127
146.95832199546484	147.0628117913832	45	127
147.0628117913832	147.16730158730158	79	127
147.0628117913832	147.16730158730158	43	127
147.16730158730158	147.27179138321995	42	127
147.16730158730158	147.27179138321995	81	127
147.27179138321995	147.37628117913832	40	127
147.27179138321995	147.37628117913832	83	127
147.37628117913832	147.46916099773242	84	127
147.37628117913832	147.46916099773242	38	127
147.48077097505669	147.57365079365078	40	127
147.48077097505669	147.57365079365078	83	127
147.57365079365078	147.66650793650794	42	127
147.57365079365078	147.66650793650794	81	127
147.67814058956915	147.78263038548752	43	127
147.67814058956915	147.78263038548752	79	127
147.7942403628118	147.8871201814059	78	127
147.7942403628118	147.8871201814059	45	127
147.89873015873016	147.99160997732426	79	127
147.89873015873016	147.99160997732426	43	127
148.00321995464853	148.09609977324263	42	127
148.00321995464853	148.09609977324263	81	127
148.1077097505669	148.200589569161	83	127
148.1077097505669	148.200589569161	40	127
148.21219954648527	148.31668934240363	38	127
148.21219954648527	148.31668934240363	84	127
148.31668934240363	148.421179138322	40	127
148.31668934240363	148.421179138322	83	127
148.421179138322	148.52566893424037	42	127
148.421179138322	148.52566893424037	81	127
148.52566893424037	148.63015873015874	43	127
148.52566893424037	148.63015873015874	79	127
148.64174603174604	148.74625850340135	78	127
148.64174603174604	148.74625850340135	45	127
148.74625850340135	148.83913832199548	79	127
148.74625850340135	148.83913832199548	43	127
148.85074829931972	148.9204081632653	81	127
148.85074829931972	148.9204081632653	42	127
148.9204081632653	149.02489795918368	83	127
148.9204081632653	149.02489795918368	40	127
149.03650793650795	149.1409977324263	84	127
149.03650793650795	149.1409977324263	38	127
149.1409977324263	149.25707482993198	83	127
149.1409977324263	149.25707482993198	40	127
149.25707482993198	149.34997732426305	38	127
149.25707482993198	149.34997732426305	84	127
149.34997732426305	149.45446712018142	40	127
149.34997732426305	149.45446712018142	83	127
149.46607709750566	149.57056689342403	38	127
149.46607709750566	149.57056689342403	84	127
149.57056689342403	149.68666666666667	40	127
149.57056689342403	149.68666666666667	83	127
149.68666666666667	149.79115646258504	38	127
149.68666666666667	149.79115646258504	84	127
149.79115646258504	149.90725623582767	40	127
149.79115646258504	149.90725623582767	83	127
149.91884353741497	150.12784580498865	84	127
149.91884353741497	150.12784580498865	38	127
150.3368253968254	153.7269387755102	72	127
150.3368253968254	153.7269387755102	66	127
150.3368253968254	153.7269387755102	50	127
150.3368253968254	153.7269387755102	57	127
154.23777777777778	154.52802721088435	39	127
154.52802721088435	154.74861678004535	58	127
154.52802721088435	154.74861678004535	55	127
154.52802721088435	154.74861678004535	51	127
154.76022675736962	154.9575963718821	39	127
154.9575963718821	155.15496598639456	51	127
154.9575963718821	155.15496598639456	58	127
154.9575963718821	155.15496598639456	55	127
155.15496598639456	155.37555555555556	39	127
155.38714285714286	155.59614512471654	51	127
155.38714285714286	155.59614512471654	55	127
155.38714285714286	155.59614512471654	58	127
155.6077551020408	155.82834467120182	39	127
155.82834467120182	156.0257142857143	58	127
155.82834467120182	156.0257142857143	51	127
155.82834467120182	156.0257142857143	55	127
156.0257142857143	156.22308390022675	39	127
156.23469387755102	156.408820861678	51	127
156.23469387755102	156.408820861678	58	127
156.23469387755102	156.408820861678	55	127
156.408820861678	156.61780045351475	39	127
156.61780045351475	156.8384126984127	51	127
156.61780045351475	156.8384126984127	58	127
156.61780045351475	156.8384126984127	55	127
156.85002267573697	157.11705215419502	39	127
157.12863945578232	157.30281179138322	51	127
157.12863945578232	157.30281179138322	58	127
157.12863945578232	157.30281179138322	55	127
157.30281179138322	157.558231292517	39	127
157.558231292517	157.76721088435374	51	127
157.558231292517	157.76721088435374	55	127
157.558231292517	157.76721088435374	58	127
157.778820861678	158.01102040816326	39	127
158.01102040816326	158.25482993197278	51	127
158.01102040816326	158.25482993197278	56	127
158.01102040816326	158.25482993197278	58	127
158.01102040816326	158.25482993197278	65	127
158.01102040816326	158.25482993197278	68	127
158.01102040816326	158.25482993197278	74	127
158.25482993197278	158.47541950113379	74	127
158.25482993197278	158.47541950113379	65	127
158.25482993197278	158.47541950113379	68	127
158.25482993197278	158.47541950113379	51	127
158.25482993197278	158.47541950113379	56	127
158.25482993197278	158.47541950113379	58	127
158.47541950113379	158.67278911564625	51	127
158.47541950113379	158.67278911564625	74	127
158.47541950113379	158.67278911564625	68	127
158.47541950113379	158.67278911564625	65	127
158.47541950113379	158.67278911564625	58	127
158.47541950113379	158.67278911564625	56	127
158.68439909297052	158.89337868480726	39	127
158.89337868480726	159.06750566893425	63	127
158.89337868480726	159.06750566893425	67	127
158.89337868480726	159.06750566893425	75	127
158.89337868480726	159.06750566893425	51	127
158.89337868480726	159.06750566893425	55	127
158.89337868480726	159.06750566893425	58	127
159.06750566893425	159.26489795918368	51	127
159.06750566893425	159.26489795918368	75	127
159.06750566893425	159.26489795918368	67	127
159.06750566893425	159.26489795918368	63	127
159.06750566893425	159.26489795918368	55	127
159.06750566893425	159.26489795918368	58	127
159.27648526077098	159.47387755102042	75	127
159.27648526077098	159.47387755102042	63	127
159.27648526077098	159.47387755102042	58	127
159.27648526077098	159.47387755102042	55	127
159.27648526077098	159.47387755102042	51	127
159.27648526077098	159.47387755102042	67	127
159.48548752834466	159.70607709750567	39	127
159.70607709750567	159.92666666666668	65	127
159.70607709750567	159.92666666666668	68	127
159.70607709750567	159.92666666666668	56	127
159.70607709750567	159.92666666666668	51	127
159.70607709750567	159.92666666666668	74	127
159.70607709750567	159.92666666666668	58	127
159.92666666666668	160.1356462585034	51	127
159.92666666666668	160.1356462585034	56	127
159.92666666666668	160.1356462585034	65	127
159.92666666666668	160.1356462585034	68	127
159.92666666666668	160.1356462585034	58	127
159.92666666666668	160.1356462585034	74	127
160.14725623582765	160.34460317460318	74	127
160.14725623582765	160.34460317460318	58	127
160.14725623582765	160.34460317460318	56	127
160.14725623582765	160.34460317460318	51	127
160.14725623582765	160.34460317460318	68	127
160.14725623582765	160.34460317460318	65	127
160.34460317460318	160.56521541950113	39	127
160.56521541950113	160.77419501133787	58	127
160.56521541950113	160.6697052154195	63	127
160.56521541950113	160.77419501133787	55	127
160.56521541950113	160.77419501133787	51	127
160.68131519274377	160.77419501133787	67	127
160.78580498866214	160.90190476190477	70	127
160.78580498866214	161.00639455782314	51	127
160.78580498866214	161.00639455782314	55	127
160.78580498866214	161.00639455782314	58	127
160.90190476190477	161.00639455782314	75	127
161.01800453514738	161.12249433106575	79	127
161.01800453514738	161.2153514739229	58	127
161.01800453514738	161.2153514739229	51	127
161.01800453514738	161.2153514739229	55	127
161.12249433106575	161.2153514739229	82	127
161.2153514739229	161.31984126984128	81	127
161.2153514739229	161.3895238095238	39	127
161.3314739229025	161.3895238095238	82	127
161.3895238095238	161.4824036281179	84	127
161.3895238095238	161.59850340136055	51	127
161.3895238095238	161.59850340136055	56	127
161.3895238095238	161.59850340136055	58	127
161.4824036281179	161.59850340136055	82	127
161.61011337868482	161.80748299319728	58	127
161.61011337868482	161.80748299319728	56	127
161.61011337868482	161.80748299319728	51	127
161.61011337868482	161.71460317460318	80	127
161.71460317460318	161.80748299319728	79	127
161.81909297052155	162.00485260770975	56	127
161.81909297052155	162.00485260770975	58	127
161.81909297052155	162.00485260770975	51	127
161.81909297052155	161.8887528344671	80	127
161.90036281179138	162.00485260770975	77	127
162.00485260770975	162.10934240362812	75	127
162.00485260770975	162.22544217687076	39	127
162.1209523809524	162.22544217687076	79	127
162.22544217687076	162.46925170068027	55	127
162.22544217687076	162.46925170068027	51	127
162.22544217687076	162.46925170068027	58	127
162.22544217687076	162.3647619047619	70	127
162.3647619047619	162.46925170068027	79	127
162.48086167800454	162.5853514739229	70	127
162.48086167800454	162.68984126984128	51	127
162.48086167800454	162.68984126984128	58	127
162.48086167800454	162.68984126984128	55	127
162.5853514739229	162.68984126984128	75	127
162.68984126984128	162.79433106575965	79	127
162.68984126984128	162.91043083900226	58	127
162.68984126984128	162.91043083900226	55	127
162.68984126984128	162.91043083900226	51	127
162.8059410430839	162.91043083900226	82	127
162.91043083900226	163.01492063492063	81	127
162.91043083900226	163.10777777777778	39	127
163.01492063492063	163.10777777777778	82	127
163.119410430839	163.22390022675737	84	127
163.119410430839	163.32839002267573	51	127
163.119410430839	163.32839002267573	56	127
163.119410430839	163.32839002267573	58	127
163.22390022675737	163.32839002267573	82	127
163.34	163.53736961451247	58	127
163.34	163.44448979591837	80	127
163.34	163.53736961451247	51	127
163.34	163.53736961451247	56	127
163.44448979591837	163.53736961451247	79	127
163.53736961451247	163.63024943310657	80	127
163.53736961451247	163.75795918367348	51	127
163.53736961451247	163.75795918367348	56	127
163.53736961451247	163.75795918367348	58	127
163.64185941043084	163.75795918367348	77	127
163.75795918367348	163.95532879818595	51	127
163.75795918367348	163.95532879818595	75	127
163.75795918367348	163.95532879818595	58	127
163.75795918367348	163.95532879818595	55	127
163.96693877551022	164.36167800453515	70	127
163.96693877551022	164.36167800453515	67	127
164.1526984126984	164.36167800453515	46	127
164.36167800453515	164.8144671201814	70	127
164.36167800453515	164.6287074829932	46	127
164.36167800453515	164.8144671201814	67	127
164.6287074829932	164.8144671201814	46	127
164.82607709750567	165.24403628117915	68	127
164.82607709750567	165.24403628117915	67	127
164.82607709750567	165.0466439909297	46	127
165.0466439909297	165.24403628117915	48	127
165.25562358276645	165.49945578231294	50	127
165.25562358276645	165.6968253968254	65	127
165.25562358276645	165.6968253968254	68	127
165.49945578231294	165.91739229024944	51	127
165.70843537414967	166.14961451247166	67	127
165.70843537414967	166.14961451247166	65	127
165.91739229024944	166.14961451247166	43	127
166.16122448979593	166.34698412698413	43	127
166.16122448979593	166.5443537414966	63	127
166.16122448979593	166.5443537414966	67	127
166.34698412698413	166.5443537414966	43	127
166.55596371882086	166.9507029478458	65	127
166.55596371882086	166.9507029478458	63	127
166.55596371882086	166.75333333333333	43	127
166.75333333333333	166.9507029478458	45	127
166.9507029478458	167.38027210884354	62	127
166.9507029478458	167.18290249433107	65	127
166.9507029478458	167.18290249433107	47	127
167.19448979591837	167.60086167800455	48	127
167.19448979591837	167.60086167800455	63	127
167.38027210884354	167.60086167800455	60	127
167.6124716553288	167.79823129251702	66	127
167.6124716553288	167.79823129251702	74	127
167.6124716553288	167.79823129251702	50	127
167.6124716553288	167.79823129251702	48	127
167.79823129251702	167.98399092970521	66	127
167.79823129251702	167.98399092970521	74	127
167.79823129251702	167.98399092970521	48	127
167.79823129251702	167.98399092970521	50	127
167.99560090702948	168.19297052154195	66	127
167.99560090702948	168.19297052154195	74	127
167.99560090702948	168.19297052154195	50	127
167.99560090702948	168.19297052154195	48	127
168.19297052154195	168.4948299319728	74	127
168.19297052154195	168.4948299319728	66	127
168.19297052154195	168.4948299319728	48	127
168.19297052154195	168.4948299319728	50	127
168.50643990929706	168.7270068027211	50	127
168.50643990929706	168.7270068027211	46	127
168.50643990929706	168.7270068027211	76	127
168.50643990929706	168.7270068027211	67	127
168.7270068027211	168.93598639455783	78	127
168.7270068027211	168.93598639455783	45	127
168.7270068027211	168.93598639455783	50	127
168.7270068027211	168.93598639455783	69	127
168.94761904761904	169.3771882086168	79	127
168.94761904761904	169.3771882086168	70	127
168.94761904761904	169.3771882086168	43	127
168.94761904761904	169.3771882086168	55	127
168.94761904761904	169.3771882086168	50	127
169.3771882086168	169.59775510204082	73	127
169.3771882086168	169.59775510204082	51	127
169.3771882086168	169.59775510204082	55	127
169.59775510204082	169.77192743764172	55	127
169.59775510204082	169.65582766439908	73	127
169.59775510204082	169.77192743764172	51	127
169.6209977324263	169.6906575963719	74	127
169.65582766439908	169.72548752834467	73	127
169.6906575963719	169.77192743764172	71	127
169.7487074829932	169.77192743764172	73	127
169.77192743764172	170.17827664399093	74	127
169.77192743764172	170.17827664399093	55	127
169.77192743764172	170.17827664399093	50	127
170.17827664399093	170.4104761904762	57	127
170.17827664399093	170.4104761904762	50	127
170.17827664399093	170.4104761904762	66	127
170.4104761904762	170.48013605442176	66	127
170.4104761904762	170.65428571428572	50	127
170.4104761904762	170.65428571428572	57	127
170.45691609977325	170.51496598639457	67	127
170.48013605442176	170.54979591836735	66	127
170.51496598639457	170.65428571428572	64	127
170.57299319727892	170.65428571428572	66	127
170.65428571428572	171.13027210884354	43	127
170.65428571428572	171.13027210884354	67	127
170.65428571428572	171.13027210884354	55	127
171.13027210884354	171.36249433106576	62	127
171.13027210884354	171.36249433106576	60	127
171.13027210884354	171.36249433106576	66	127
171.36249433106576	171.60630385487528	66	127
171.36249433106576	171.60630385487528	62	127
171.36249433106576	171.60630385487528	60	127
171.60630385487528	171.7920634920635	62	127
171.60630385487528	171.7920634920635	60	127
171.60630385487528	171.7920634920635	66	127
171.80367346938775	172.00102040816327	62	127
171.80367346938775	172.00102040816327	60	127
171.80367346938775	172.00102040816327	66	127
172.00102040816327	172.1984126984127	62	127
172.00102040816327	172.1984126984127	59	127
172.00102040816327	172.1984126984127	67	127
172.21002267573695	172.43061224489796	62	127
172.21002267573695	172.43061224489796	57	127
172.21002267573695	172.43061224489796	69	127
172.43061224489796	172.871768707483	71	127
172.43061224489796	172.871768707483	55	127
172.43061224489796	172.871768707483	62	127
172.871768707483	173.09238095238095	57	127
172.871768707483	173.09238095238095	55	127
172.871768707483	173.09238095238095	52	127
172.871768707483	173.09238095238095	69	127
172.871768707483	173.09238095238095	67	127
173.10399092970522	173.31297052154196	57	127
173.10399092970522	173.31297052154196	69	127
173.10399092970522	173.31297052154196	55	127
173.10399092970522	173.31297052154196	52	127
173.10399092970522	173.31297052154196	67	127
173.31297052154196	173.73092970521543	55	127
173.31297052154196	173.73092970521543	50	127
173.31297052154196	173.73092970521543	71	127
173.31297052154196	173.73092970521543	67	127
173.31297052154196	173.73092970521543	59	127
173.73092970521543	173.91668934240363	62	127
173.73092970521543	173.91668934240363	50	127
173.73092970521543	173.91668934240363	60	127
173.73092970521543	173.91668934240363	57	127
173.91668934240363	174.10244897959183	57	127
173.91668934240363	174.10244897959183	60	127
173.91668934240363	174.10244897959183	62	127
173.91668934240363	174.10244897959183	50	127
174.10244897959183	174.5204081632653	59	127
174.10244897959183	174.5204081632653	62	127
174.10244897959183	174.5204081632653	43	127
174.10244897959183	174.5204081632653	55	127
174.53201814058957	174.70616780045353	57	127
174.53201814058957	174.70616780045353	55	127
174.53201814058957	174.70616780045353	52	127
174.53201814058957	174.70616780045353	85	127
174.70616780045353	174.89192743764173	57	127
174.70616780045353	174.89192743764173	52	127
174.70616780045353	174.89192743764173	55	127
174.70616780045353	174.82226757369614	85	127
174.75260770975058	174.89192743764173	86	127
174.8338775510204	174.89192743764173	85	127
174.903537414966	175.10090702947846	59	127
174.903537414966	175.10090702947846	55	127
174.903537414966	175.10090702947846	50	127
174.903537414966	175.10090702947846	86	127
175.10090702947846	175.29827664399093	55	127
175.10090702947846	175.29827664399093	50	127
175.10090702947846	175.29827664399093	59	127
175.10090702947846	175.22861678004534	86	127
175.17054421768708	175.29827664399093	88	127
175.22861678004534	175.39115646258503	86	127
175.3098866213152	175.565306122449	78	127
175.3098866213152	175.565306122449	38	127
175.3098866213152	175.565306122449	50	127
175.57689342403629	175.7162358276644	78	127
175.57689342403629	175.79750566893424	38	127
175.57689342403629	175.79750566893424	50	127
175.64657596371882	175.79750566893424	79	127
175.72784580498868	175.79750566893424	78	127
175.8091156462585	176.0297052154195	50	127
175.8091156462585	176.0297052154195	43	127
175.8091156462585	176.0297052154195	47	127
175.8091156462585	176.0297052154195	55	127
175.8091156462585	176.0297052154195	79	127
176.0297052154195	176.2851247165533	74	127
176.0297052154195	176.2851247165533	62	127
176.2967120181406	176.4708843537415	43	127
176.2967120181406	176.4708843537415	47	127
176.2967120181406	176.4708843537415	55	127
176.2967120181406	176.4708843537415	50	127
176.4708843537415	176.66825396825396	74	127
176.4708843537415	176.66825396825396	62	127
176.67986394557823	176.8772335600907	50	127
176.67986394557823	176.8772335600907	48	127
176.67986394557823	176.8772335600907	43	127
176.67986394557823	176.8772335600907	54	127
176.8772335600907	177.05138321995466	74	127
176.8772335600907	177.05138321995466	62	127
177.06297052154196	177.27197278911564	43	127
177.06297052154196	177.27197278911564	48	127
177.06297052154196	177.27197278911564	50	127
177.06297052154196	177.27197278911564	54	127
177.27197278911564	177.48095238095237	62	127
177.27197278911564	177.48095238095237	74	127
177.49256235827664	177.6782993197279	55	127
177.49256235827664	177.6782993197279	43	127
177.49256235827664	177.6782993197279	50	127
177.49256235827664	177.6782993197279	47	127
177.6782993197279	177.88730158730158	74	127
177.6782993197279	177.88730158730158	62	127
177.88730158730158	178.10789115646259	47	127
177.88730158730158	178.10789115646259	50	127
177.88730158730158	178.10789115646259	55	127
177.88730158730158	178.10789115646259	43	127
178.10789115646259	178.31687074829932	62	127
178.10789115646259	178.31687074829932	74	127
178.31687074829932	178.53746031746033	48	127
178.31687074829932	178.53746031746033	50	127
178.31687074829932	178.53746031746033	43	127
178.31687074829932	178.53746031746033	54	127
178.54907029478457	178.7348299319728	62	127
178.54907029478457	178.7348299319728	74	127
178.7348299319728	178.93219954648526	43	127
178.7348299319728	178.93219954648526	50	127
178.7348299319728	178.93219954648526	54	127
178.7348299319728	178.93219954648526	48	127
178.94380952380953	179.1643990929705	74	127
178.94380952380953	179.1643990929705	62	127
179.1643990929705	179.38498866213152	43	127
179.1643990929705	179.28049886621315	74	127
179.1643990929705	179.38498866213152	47	127
179.1643990929705	179.38498866213152	50	127
179.1643990929705	179.38498866213152	55	127
179.28049886621315	179.38498866213152	62	127
179.3965986394558	179.50108843537416	67	127
179.50108843537416	179.60557823129253	71	127
179.60557823129253	179.68684807256236	74	127
179.60557823129253	179.79133786848072	43	127
179.60557823129253	179.79133786848072	55	127
179.60557823129253	179.79133786848072	50	127
179.60557823129253	179.79133786848072	47	127
179.68684807256236	179.802947845805	79	127
179.802947845805	179.8725850340136	83	127
179.8725850340136	179.9538775510204	86	127
179.9538775510204	180.1280045351474	54	127
179.9538775510204	180.1280045351474	50	127
179.9538775510204	180.1280045351474	48	127
179.9538775510204	180.05836734693878	85	127
179.9538775510204	180.1280045351474	43	127
180.05836734693878	180.1396371882086	86	127
180.1396371882086	180.24412698412698	88	127
180.24412698412698	180.34861678004535	86	127
180.34861678004535	180.44149659863945	83	127
180.34861678004535	180.54598639455781	43	127
180.34861678004535	180.54598639455781	48	127
180.34861678004535	180.54598639455781	50	127
180.34861678004535	180.54598639455781	54	127
180.44149659863945	180.54598639455781	86	127
180.54598639455781	180.67369614512472	84	127
180.67369614512472	180.7781859410431	81	127
180.7781859410431	180.9639455782313	47	127
180.7781859410431	180.9639455782313	55	127
180.7781859410431	180.9639455782313	43	127
180.7781859410431	180.9639455782313	50	127
180.7781859410431	180.85945578231292	79	127
180.85945578231292	180.9639455782313	83	127
180.9639455782313	181.08004535147393	74	127
181.08004535147393	181.19614512471657	83	127
181.19614512471657	181.40510204081633	55	127
181.19614512471657	181.30063492063493	74	127
181.19614512471657	181.40510204081633	43	127
181.19614512471657	181.40510204081633	47	127
181.19614512471657	181.40510204081633	50	127
181.30063492063493	181.40510204081633	79	127
181.40510204081633	181.4980045351474	83	127
181.4980045351474	181.60249433106577	86	127
181.60249433106577	181.79986394557824	50	127
181.60249433106577	181.69537414965987	85	127
181.60249433106577	181.79986394557824	43	127
181.60249433106577	181.79986394557824	48	127
181.60249433106577	181.79986394557824	54	127
181.69537414965987	181.79986394557824	86	127
181.79986394557824	181.9043537414966	88	127
181.9043537414966	182.0320634920635	86	127
182.0320634920635	182.22943310657595	54	127
182.0320634920635	182.22943310657595	48	127
182.0320634920635	182.22943310657595	50	127
182.0320634920635	182.13655328798185	83	127
182.0320634920635	182.22943310657595	43	127
182.13655328798185	182.22943310657595	86	127
182.22943310657595	182.33392290249432	84	127
182.33392290249432	182.45002267573696	81	127
182.45002267573696	182.63575963718822	43	127
182.45002267573696	182.63575963718822	47	127
182.45002267573696	182.63575963718822	50	127
182.45002267573696	182.63575963718822	55	127
182.45002267573696	182.86798185941043	79	127
182.63575963718822	182.86798185941043	31	127
182.86798185941043	183.05374149659863	57	127
182.94925170068026	183.158231292517	60	127
183.05374149659863	183.2511111111111	31	127
183.05374149659863	183.2511111111111	50	127
183.158231292517	183.30916099773242	60	127
183.2511111111111	183.4136507936508	55	127
183.3207709750567	183.52975056689343	59	127
183.42526077097506	183.6342403628118	31	127
183.42526077097506	183.6342403628118	50	127
183.52975056689343	183.73873015873016	59	127
183.6342403628118	183.84321995464853	54	127
183.75034013605443	183.93609977324263	57	127
183.8548299319728	184.02897959183673	50	127
183.8548299319728	184.02897959183673	31	127
183.93609977324263	184.12185941043083	57	127
184.02897959183673	184.2031292517007	55	127
184.12185941043083	184.31920634920635	59	127
184.21473922902496	184.41210884353742	31	127
184.21473922902496	184.41210884353742	50	127
184.31920634920635	184.5165986394558	59	127
184.41210884353742	184.6094784580499	57	127
184.5165986394558	184.71396825396826	60	127
184.62108843537416	184.83004535147393	50	127
184.62108843537416	184.83004535147393	31	127
184.72557823129253	184.9345351473923	60	127
184.83004535147393	185.03902494331066	55	127
184.9345351473923	185.13192743764174	59	127
185.03902494331066	185.16675736961452	50	127
185.03902494331066	185.16675736961452	31	127
185.13192743764174	185.28285714285715	59	127
185.16675736961452	185.39895691609976	54	127
185.28285714285715	185.4918367346939	57	127
185.39895691609976	185.5963038548753	50	127
185.39895691609976	185.5963038548753	31	127
185.50344671201813	185.71242630385487	57	127
185.6079365079365	185.8285260770975	55	127
185.71242630385487	185.93301587301588	59	127
185.8285260770975	186.0142857142857	31	127
185.8285260770975	186.0142857142857	50	127
185.94462585034015	186.11877551020407	59	127
186.02589569160997	186.21163265306123	54	127
186.11877551020407	186.3277551020408	57	127
186.21163265306123	186.43224489795918	50	127
186.21163265306123	186.43224489795918	31	127
186.3277551020408	186.43224489795918	57	127
186.44385487528345	186.64122448979592	55	127
186.53673469387755	186.7224716553288	59	127
186.64122448979592	186.82696145124717	31	127
186.64122448979592	186.82696145124717	50	127
186.7224716553288	186.93145124716554	59	127
186.83859410430838	187.0243537414966	54	127
186.94308390022675	187.1172335600907	57	127
187.0243537414966	187.22172335600908	50	127
187.0243537414966	187.22172335600908	31	127
187.1172335600907	187.22172335600908	57	127
187.23331065759638	187.43070294784582	55	127
187.33780045351475	187.53519274376418	59	127
187.4422902494331	187.6512925170068	50	127
187.4422902494331	187.6512925170068	31	127
187.54680272108843	187.76739229024943	59	127
187.6512925170068	187.8718820861678	54	127
187.76739229024943	187.98798185941044	57	127
187.8718820861678	188.08086167800454	31	127
187.8718820861678	188.08086167800454	50	127
187.98798185941044	188.08086167800454	57	127
188.08086167800454	188.278231292517	55	127
188.17374149659864	188.3711111111111	59	127
188.278231292517	188.47560090702947	50	127
188.278231292517	188.47560090702947	31	127
188.3711111111111	188.55687074829933	59	127
188.47560090702947	188.6613605442177	54	127
188.55687074829933	188.7542403628118	57	127
188.6613605442177	188.85873015873017	50	127
188.6613605442177	188.85873015873017	31	127
188.7542403628118	188.85873015873017	57	127
188.85873015873017	189.0328798185941	55	127
188.95160997732427	189.0328798185941	59	127
189.0328798185941	189.13736961451247	31	127
189.0328798185941	189.13736961451247	50	127
189.0328798185941	189.23022675736962	59	127
189.13736961451247	189.33473922902493	50	127
189.23022675736962	189.4392290249433	55	127
189.33473922902493	189.54371882086167	47	127
189.33473922902493	189.54371882086167	31	127
189.4392290249433	189.67142857142858	55	127
189.55532879818594	189.77591836734695	47	127
189.67142857142858	189.8919954648526	50	127
189.77591836734695	189.99648526077098	31	127
189.77591836734695	189.99648526077098	43	127
189.90362811791383	190.11260770975056	50	127
190.0081179138322	190.18226757369615	43	127
190.11260770975056	190.28675736961452	47	127
190.19387755102042	190.35641723356008	38	127
190.19387755102042	190.35641723356008	31	127
190.28675736961452	190.35641723356008	47	127
190.36802721088435	190.5770068027211	47	127
190.36802721088435	190.5770068027211	31	127
190.77437641723355	190.97174603174602	66	127
190.77437641723355	190.97174603174602	62	127
190.77437641723355	190.97174603174602	60	127
190.77437641723355	190.97174603174602	57	127
190.77437641723355	190.97174603174602	50	127
190.77437641723355	190.97174603174602	38	127
191.2271655328798	191.28521541950113	55	127
191.2271655328798	191.28521541950113	59	127
191.2271655328798	191.28521541950113	43	127
191.2271655328798	191.28521541950113	67	127
191.2271655328798	191.28521541950113	62	127
