# onset,offset,note,velocity
5.223718820861678	5.397868480725624	74	127
5.455918367346939	5.595215419501134	74	127
5.65328798185941	5.839047619047619	74	127
5.8854875283446715	5.92031746031746	74	127
5.92031746031746	5.955147392290249	76	127
5.955147392290249	5.989977324263038	74	127
5.989977324263038	6.0364172335600905	73	127
6.0364172335600905	6.059637188208617	74	127
6.059637188208617	6.1873469387755105	76	127
6.257006802721088	6.407936507936508	78	127
6.4543764172335605	6.663356009070295	79	127
6.663356009070295	6.7562358276643995	83	127
6.8723356009070296	7.023265306122449	74	127
7.081315192743764	7.2090249433106575	74	127
7.278684807256236	7.429614512471655	74	127
7.487664399092971	7.52249433106576	74	127
7.52249433106576	7.557324263038549	76	127
7.557324263038549	7.592154195011338	74	127
7.592154195011338	7.63859410430839	73	127
7.63859410430839	7.696643990929705	74	127
7.696643990929705	7.824353741496599	76	127
7.882403628117914	8.02172335600907	78	127
8.079773242630386	8.474512471655329	79	127
8.486122448979591	8.59061224489796	72	127
8.59061224489796	8.660272108843538	71	127
8.695102040816327	8.764761904761905	69	127
8.799591836734693	8.86922902494331	67	127
8.904081632653062	8.996938775510204	66	127
8.996938775510204	9.066621315192744	67	127
9.101451247165533	9.171111111111111	69	127
9.194331065759638	9.298820861678005	71	127
9.322040816326531	9.426530612244898	72	127
9.426530612244898	9.50780045351474	71	127
9.531020408163265	9.612290249433107	69	127
9.635510204081633	9.705170068027211	67	127
9.728390022675738	9.832879818594105	66	127
9.832879818594105	9.914149659863945	67	127
9.937369614512471	10.018639455782314	69	127
10.053469387755102	10.134739229024943	71	127
10.146349206349207	10.239229024943311	72	127
10.239229024943311	10.320498866213152	71	127
10.343718820861678	10.424965986394557	69	127
10.448208616780045	10.529478458049887	67	127
10.575918367346938	10.65718820861678	66	127
10.65718820861678	10.73845804988662	67	127
10.773265306122449	10.84294784580499	69	127
10.866145124716553	10.92421768707483	71	127
10.959047619047618	11.086757369614512	72	127
11.086757369614512	11.156417233560092	71	127
11.19124716553288	11.284126984126985	72	127
11.318956916099774	11.400226757369614	71	127
11.446666666666667	11.922675736961452	72	127
11.934285714285714	12.038775510204081	62	127
12.038775510204081	12.120045351473923	67	127
12.120045351473923	12.22453514739229	71	127
12.22453514739229	12.329024943310658	74	127
12.329024943310658	12.433514739229025	73	127
12.433514739229025	12.52639455782313	74	127
12.52639455782313	12.60766439909297	76	127
12.60766439909297	12.700544217687074	74	127
12.700544217687074	12.816643990929705	71	127
12.816643990929705	12.921133786848072	74	127
12.921133786848072	12.99079365079365	72	127
12.99079365079365	13.083673469387755	69	127
13.083673469387755	13.199773242630386	67	127
13.199773242630386	13.304263038548752	71	127
13.304263038548752	13.408752834467121	62	127
13.408752834467121	13.501632653061224	71	127
13.501632653061224	13.594512471655328	62	127
13.594512471655328	13.710612244897959	67	127
13.710612244897959	13.803492063492063	71	127
13.803492063492063	13.90798185941043	74	127
13.90798185941043	14.000861678004535	73	127
14.000861678004535	14.105351473922903	74	127
14.105351473922903	14.221451247165533	76	127
14.221451247165533	14.3259410430839	74	127
14.3259410430839	14.430430839002268	71	127
14.430430839002268	14.534920634920635	74	127
14.534920634920635	14.651020408163266	72	127
14.651020408163266	14.790340136054422	69	127
14.790340136054422	15.231519274376417	67	127
15.24312925170068	15.347619047619048	62	127
15.347619047619048	15.452108843537415	67	127
15.452108843537415	15.54498866213152	71	127
15.54498866213152	15.649478458049886	74	127
15.649478458049886	15.74235827664399	73	127
15.74235827664399	15.846848072562358	74	127
15.846848072562358	15.939727891156462	76	127
15.939727891156462	16.04421768707483	74	127
16.04421768707483	16.137097505668933	71	127
16.137097505668933	16.22997732426304	74	127
16.22997732426304	16.334444444444443	72	127
16.334444444444443	16.438956916099773	69	127
16.438956916099773	16.566666666666666	67	127
16.566666666666666	16.682766439909297	71	127
16.682766439909297	16.787256235827666	62	127
16.787256235827666	16.89174603174603	71	127
16.89174603174603	16.9962358276644	62	127
16.9962358276644	17.089115646258502	67	127
17.089115646258502	17.19360544217687	71	127
17.19360544217687	17.29809523809524	74	127
17.29809523809524	17.37936507936508	73	127
17.37936507936508	17.49546485260771	74	127
17.49546485260771	17.61156462585034	76	127
17.61156462585034	17.716054421768707	74	127
17.716054421768707	17.820544217687075	71	127
17.820544217687075	17.92501133786848	74	127
17.92501133786848	18.02952380952381	72	127
18.02952380952381	18.157233560090702	69	127
18.157233560090702	18.621609977324262	67	127
18.63324263038549	18.80736961451247	67	127
18.819002267573698	19.039591836734694	71	127
19.051201814058956	19.49238095238095	69	127
19.503968253968253	19.620090702947845	71	127
19.620090702947845	19.724580498866214	62	127
19.724580498866214	19.852290249433107	67	127
19.852290249433107	19.956780045351476	62	127
19.956780045351476	20.351519274376418	66	127
20.36312925170068	20.409569160997734	69	127
20.409569160997734	20.5256462585034	67	127
20.5256462585034	20.63015873015873	66	127
20.63015873015873	20.71140589569161	67	127
20.71140589569161	20.804308390022676	71	127
20.804308390022676	21.280294784580498	69	127
21.280294784580498	21.40800453514739	71	127
21.40800453514739	21.51251700680272	62	127
21.51251700680272	21.640226757369614	67	127
21.640226757369614	21.77954648526077	62	127
21.77954648526077	22.17426303854875	66	127
22.18589569160998	22.290385487528344	72	127
22.290385487528344	22.34843537414966	74	127
22.38326530612245	22.452925170068028	71	127
22.487732426303854	22.56902494331066	72	127
22.603854875283446	22.708344671201814	69	127
22.708344671201814	22.76639455782313	71	127
22.801224489795917	22.84766439909297	67	127
22.88249433106576	22.95215419501134	69	127
22.986984126984126	23.137913832199548	66	127
23.195963718820863	23.253990929705214	66	127
23.253990929705214	23.31204081632653	67	127
23.31204081632653	23.393333333333334	66	127
23.393333333333334	23.660362811791384	67	127
23.660362811791384	23.764852607709752	74	127
23.869342403628117	23.973832199546486	72	127
23.973832199546486	24.055102040816326	74	127
24.07832199546485	24.159591836734695	71	127
24.194421768707482	24.275691609977326	72	127
24.29891156462585	24.40340136054422	69	127
24.40340136054422	24.48467120181406	71	127
24.507891156462584	24.589160997732428	67	127
24.612380952380953	24.693650793650793	69	127
24.71687074829932	24.879410430839002	66	127
24.937460317460317	25.041950113378686	66	127
25.041950113378686	25.06517006802721	67	127
25.06517006802721	25.13482993197279	66	127
25.13482993197279	25.59922902494331	67	127
25.610839002267575	25.703718820861678	59	127
25.703718820861678	25.808208616780046	62	127
25.808208616780046	25.947528344671202	67	127
25.947528344671202	26.075238095238095	62	127
26.075238095238095	26.51641723356009	66	127
26.51641723356009	26.737006802721087	74	127
26.737006802721087	26.945986394557824	71	127
26.945986394557824	27.375555555555554	69	127
27.375555555555554	27.503265306122447	59	127
27.503265306122447	27.630975056689344	62	127
27.630975056689344	27.73546485260771	59	127
27.73546485260771	27.874784580498865	67	127
27.874784580498865	28.246303854875283	66	127
28.246303854875283	28.31596371882086	76	127
28.31596371882086	28.455283446712016	74	127
28.455283446712016	28.548163265306123	73	127
28.548163265306123	28.65265306122449	74	127
28.65265306122449	28.757142857142856	71	127
28.757142857142856	29.198321995464852	69	127
30.881768707482994	30.98625850340136	84	127
30.98625850340136	31.055918367346937	86	127
31.090748299319728	31.160408163265306	83	127
31.195238095238096	31.264897959183674	84	127
31.29972789115646	31.40421768707483	81	127
31.40421768707483	31.473877551020408	83	127
31.5087074829932	31.578367346938776	79	127
31.613197278911564	31.68285714285714	81	127
31.717687074829932	31.86861678004535	78	127
31.93827664399093	32.01954648526077	78	127
32.01954648526077	32.08920634920635	79	127
32.08920634920635	32.20530612244898	78	127
32.20530612244898	32.43750566893424	79	127
36.01337868480726	36.1875283446712	74	127
36.268798185941044	36.44294784580499	74	127
36.500997732426306	36.66353741496599	74	127
36.698367346938774	36.709977324263036	74	127
36.709977324263036	36.74480725623583	76	127
36.74480725623583	36.77963718820862	74	127
36.77963718820862	36.82607709750567	73	127
36.82607709750567	36.884126984126986	74	127
36.884126984126986	37.02344671201814	76	127
37.081496598639454	37.232403628117915	78	127
37.29047619047619	37.4762358276644	79	127
37.4878231292517	37.580725623582765	83	127
37.685215419501134	37.85934240362812	74	127
37.917414965986396	38.068344671201814	74	127
38.114761904761906	38.27732426303855	74	127
38.33537414965986	38.381791383219955	74	127
38.381791383219955	38.41664399092971	76	127
38.41664399092971	38.451473922902494	74	127
38.451473922902494	38.50952380952381	73	127
38.50952380952381	38.55596371882086	74	127
38.55596371882086	38.672063492063494	76	127
38.730113378684806	38.881020408163266	78	127
38.93909297052154	39.35705215419501	79	127
39.35705215419501	39.46154195011338	72	127
39.46154195011338	39.53120181405896	71	127
39.56603174603175	39.68213151927438	69	127
39.716961451247165	39.78662131519275	67	127
39.821451247165534	39.94916099773243	66	127
39.94916099773243	40.018798185941044	67	127
40.08848072562358	40.14650793650794	69	127
40.18136054421769	40.251020408163264	71	127
40.28585034013606	40.39034013605442	72	127
40.39034013605442	40.46	71	127
40.483219954648526	40.55287981859411	69	127
40.59931972789116	40.66897959183674	67	127
40.703809523809525	40.819909297052156	66	127
40.819909297052156	40.88956916099773	67	127
40.924399092970525	40.9940589569161	69	127
41.04047619047619	41.11015873015873	71	127
41.133378684807255	41.203038548752836	72	127
41.203038548752836	41.26108843537415	71	127
41.29589569160998	41.36557823129252	69	127
41.400408163265304	41.48167800453515	67	127
41.5281179138322	41.620997732426304	66	127
41.620997732426304	41.690657596371885	67	127
41.7487074829932	41.82997732426304	69	127
41.853197278911566	41.93446712018141	71	127
41.957687074829934	42.0621768707483	72	127
42.0621768707483	42.14344671201814	71	127
42.166666666666664	42.25954648526077	72	127
42.282766439909295	42.35242630385488	71	127
42.387256235827664	42.85165532879819	72	127
42.85165532879819	42.956145124716556	62	127
42.956145124716556	43.07222222222222	67	127
43.07222222222222	43.17673469387755	71	127
43.17673469387755	43.28122448979592	74	127
43.28122448979592	43.374104308390024	73	127
43.374104308390024	43.46698412698413	74	127
43.46698412698413	43.583061224489796	76	127
43.583061224489796	43.72240362811792	74	127
43.72240362811792	43.82687074829932	71	127
43.82687074829932	43.93138321995465	74	127
43.93138321995465	44.02426303854875	72	127
44.02426303854875	44.12875283446712	69	127
44.12875283446712	44.24485260770975	67	127
44.24485260770975	44.337709750566894	71	127
44.337709750566894	44.43061224489796	62	127
44.43061224489796	44.53510204081633	71	127
44.53510204081633	44.639591836734695	62	127
44.639591836734695	44.755691609977326	67	127
44.755691609977326	44.84854875283447	71	127
44.84854875283447	44.953061224489794	74	127
44.953061224489794	45.05755102040816	73	127
45.05755102040816	45.16204081632653	74	127
45.16204081632653	45.23167800453515	76	127
45.23167800453515	45.37102040816327	74	127
45.37102040816327	45.46390022675737	71	127
45.46390022675737	45.568390022675736	74	127
45.568390022675736	45.70770975056689	72	127
45.70770975056689	45.82380952380952	69	127
45.82380952380952	46.218548752834465	67	127
46.218548752834465	46.323038548752834	62	127
46.323038548752834	46.439138321995465	67	127
46.439138321995465	46.52040816326531	71	127
46.52040816326531	46.62487528344671	74	127
46.62487528344671	46.69455782312925	73	127
46.69455782312925	46.81065759637188	74	127
46.81065759637188	46.92675736961451	76	127
46.92675736961451	47.03124716553288	74	127
47.03124716553288	47.158956916099775	71	127
47.158956916099775	47.28666666666667	74	127
47.28666666666667	47.41437641723356	72	127
47.41437641723356	47.51886621315193	69	127
47.51886621315193	47.634965986394555	67	127
47.634965986394555	47.73945578231292	71	127
47.73945578231292	47.84394557823129	62	127
47.84394557823129	47.91360544217687	71	127
47.91360544217687	48.00648526077097	62	127
48.00648526077097	48.11097505668934	67	127
48.11097505668934	48.21546485260771	71	127
48.21546485260771	48.29673469387755	74	127
48.29673469387755	48.401224489795915	73	127
48.401224489795915	48.49410430839002	74	127
48.49410430839002	48.575374149659865	76	127
48.575374149659865	48.679863945578234	74	127
48.679863945578234	48.784353741496595	71	127
48.784353741496595	48.888843537414964	74	127
48.888843537414964	49.01655328798186	72	127
49.01655328798186	49.121043083900226	69	127
49.121043083900226	49.58544217687075	67	127
49.59705215419501	49.724761904761905	71	127
49.78281179138322	49.93374149659864	71	127
49.991791383219955	50.18916099773243	71	127
50.18916099773243	50.29365079365079	73	127
50.29365079365079	50.374920634920635	75	127
50.374920634920635	50.51424036281179	76	127
50.57229024943311	50.72321995464853	78	127
50.85092970521542	51.05990929705215	79	127
51.05990929705215	51.16439909297052	76	127
51.26888888888889	51.44303854875283	71	127
51.50108843537415	51.640408163265306	71	127
51.69845804988662	51.94226757369614	71	127
51.94226757369614	52.04675736961451	73	127
52.04675736961451	52.15124716553288	75	127
52.15124716553288	52.31378684807256	76	127
52.37183673469388	52.48793650793651	78	127
52.54598639455782	52.96394557823129	79	127
52.96394557823129	53.09165532879818	69	127
53.09165532879818	53.19614512471655	59	127
53.19614512471655	53.323854875283445	66	127
53.323854875283445	53.41673469387755	59	127
53.42834467120181	53.52122448979592	67	127
53.53283446712018	53.602494331065756	59	127
53.614104308390026	53.69537414965986	60	127
53.706984126984125	53.79986394557823	59	127
53.81147392290249	53.9043537414966	55	127
53.91596371882086	54.03206349206349	59	127
54.043673469387755	54.13655328798186	63	127
54.148163265306124	54.27587301587302	59	127
54.28748299319728	54.380362811791386	64	127
54.39197278911565	54.48485260770975	59	127
54.49646258503402	54.589342403628116	67	127
54.60095238095238	54.68222222222222	59	127
54.693832199546485	54.78671201814059	69	127
54.79832199546485	54.8795918367347	59	127
54.8795918367347	54.98408163265306	66	127
54.98408163265306	55.076961451247165	59	127
55.076961451247165	55.18145124716553	67	127
55.18145124716553	55.27433106575964	59	127
55.27433106575964	55.355600907029476	57	127
55.355600907029476	55.460090702947845	59	127
55.460090702947845	55.56458049886621	55	127
55.56458049886621	55.65746031746032	59	127
55.65746031746032	55.76195011337869	63	127
55.76195011337869	55.86643990929705	59	127
55.86643990929705	55.99414965986394	64	127
55.99414965986394	56.110249433106574	59	127
56.110249433106574	56.21473922902494	64	127
56.21473922902494	56.330839002267574	59	127
56.330839002267574	56.43532879818594	66	127
56.43532879818594	56.52820861678005	62	127
56.52820861678005	56.62108843537415	57	127
56.62108843537415	56.725578231292516	62	127
56.725578231292516	56.830068027210885	66	127
56.830068027210885	56.93455782312925	62	127
56.93455782312925	57.03904761904762	57	127
57.050657596371884	57.155147392290246	62	127
57.155147392290246	57.24802721088435	66	127
57.24802721088435	57.34090702947846	62	127
57.35251700680272	57.45700680272109	57	127
57.45700680272109	57.56149659863946	62	127
57.57310657596372	57.909795918367344	66	127
58.025895691609975	58.362585034013605	62	127
58.025895691609975	58.362585034013605	69	127
58.025895691609975	58.362585034013605	78	127
58.467074829931974	58.78054421768707	69	127
58.467074829931974	58.78054421768707	62	127
58.467074829931974	58.78054421768707	78	127
58.896643990929704	59.186893424036285	62	127
58.896643990929704	59.186893424036285	78	127
58.896643990929704	59.186893424036285	69	127
59.32621315192744	59.662902494331064	78	127
59.32621315192744	59.662902494331064	69	127
59.32621315192744	59.662902494331064	62	127
59.76739229024943	59.88349206349206	62	127
59.88349206349206	59.96476190476191	66	127
59.97637188208617	60.08086167800454	69	127
60.08086167800454	60.1853514739229	66	127
60.19696145124716	60.30145124716553	62	127
60.30145124716553	60.41755102040816	66	127
60.429160997732424	60.52204081632653	69	127
60.52204081632653	60.63814058956916	66	127
60.649750566893424	60.75424036281179	62	127
60.75424036281179	60.85873015873016	66	127
60.87034013605442	60.986439909297054	69	127
60.986439909297054	61.102539682539685	66	127
61.11414965986395	61.55532879818594	62	127
65.86263038548753	66.00195011337868	74	127
66.06	66.1992970521542	74	127
66.24575963718821	66.40829931972789	74	127
66.45471655328798	66.51278911564626	74	127
66.51278911564626	66.54761904761905	76	127
66.54761904761905	66.58242630385487	74	127
66.58242630385487	66.65210884353742	73	127
66.65210884353742	66.69854875283447	74	127
66.69854875283447	66.84947845804989	76	127
66.9075283446712	67.07006802721088	78	127
67.1281179138322	67.33709750566894	79	127
67.33709750566894	67.42997732426304	83	127
67.52285714285715	67.68539682539682	74	127
67.74344671201814	67.89437641723356	74	127
67.95242630385488	68.1033560090703	74	127
68.16140589569162	68.1962358276644	74	127
68.1962358276644	68.23106575963719	76	127
68.23106575963719	68.26589569160998	74	127
68.26589569160998	68.32394557823129	73	127
68.32394557823129	68.35877551020408	74	127
68.35877551020408	68.49807256235827	76	127
68.55614512471655	68.69546485260771	78	127
68.75349206349206	69.13662131519274	79	127
69.14825396825397	69.25274376417234	72	127
69.25274376417234	69.32240362811791	71	127
69.3572335600907	69.42689342403628	69	127
69.47333333333333	69.54299319727892	67	127
69.5778231292517	69.69392290249434	66	127
69.69392290249434	69.76358276643991	67	127
69.81002267573696	69.87965986394558	69	127
69.9028798185941	69.9841723356009	71	127
70.00736961451247	70.1118820861678	72	127
70.1118820861678	70.16993197278912	71	127
70.19315192743764	70.27442176870748	69	127
70.28600907029478	70.37891156462585	67	127
70.41371882086167	70.54145124716554	66	127
70.54145124716554	70.62272108843537	67	127
70.64591836734694	70.75043083900226	69	127
70.77362811791383	70.85492063492063	71	127
70.8665306122449	70.94780045351474	72	127
70.94780045351474	71.00585034013605	71	127
71.02904761904762	71.09873015873016	69	127
71.11034013605442	71.20321995464853	67	127
71.22643990929706	71.34253968253968	66	127
71.34253968253968	71.42380952380952	67	127
71.45863945578232	71.55151927437642	69	127
71.58634920634921	71.64439909297052	71	127
71.67922902494331	71.8069387755102	72	127
71.8069387755102	71.86498866213152	71	127
71.88820861678005	71.95786848072562	72	127
71.98108843537415	72.06235827664399	71	127
72.08557823129252	72.50353741496599	72	127
72.51514739229025	72.63124716553288	62	127
72.63124716553288	72.74734693877551	67	127
72.74734693877551	72.85183673469388	71	127
72.85183673469388	72.95632653061224	74	127
72.95632653061224	73.07240362811791	73	127
73.07240362811791	73.2001133786848	74	127
73.2001133786848	73.3162358276644	76	127
73.3162358276644	73.42072562358277	74	127
73.42072562358277	73.51360544217687	71	127
73.51360544217687	73.6297052154195	74	127
73.6297052154195	73.73419501133787	72	127
73.73419501133787	73.83866213151927	69	127
73.83866213151927	73.93156462585034	67	127
73.93156462585034	74.02444444444444	71	127
74.02444444444444	74.11732426303855	62	127
74.11732426303855	74.22181405895692	71	127
74.22181405895692	74.31469387755102	62	127
74.31469387755102	74.40757369614512	67	127
74.40757369614512	74.51206349206349	71	127
74.51206349206349	74.61655328798186	74	127
74.61655328798186	74.709410430839	73	127
74.709410430839	74.7907029478458	74	127
74.7907029478458	74.88358276643991	76	127
74.88358276643991	74.99968253968254	74	127
74.99968253968254	75.12739229024943	71	127
75.12739229024943	75.2318820861678	74	127
75.2318820861678	75.3247619047619	72	127
75.3247619047619	75.42925170068027	69	127
75.42925170068027	75.83560090702947	67	127
75.84721088435374	75.97492063492064	62	127
75.97492063492064	76.0909977324263	67	127
76.0909977324263	76.2071201814059	71	127
76.2071201814059	76.31160997732427	74	127
76.31160997732427	76.41609977324264	73	127
76.41609977324264	76.520589569161	74	127
76.520589569161	76.6134693877551	76	127
76.6134693877551	76.71795918367347	74	127
76.71795918367347	76.8340589569161	71	127
76.8340589569161	76.93854875283446	74	127
76.93854875283446	77.01981859410431	72	127
77.01981859410431	77.12430839002268	69	127
77.12430839002268	77.22879818594105	67	127
77.22879818594105	77.34489795918367	71	127
77.34489795918367	77.44938775510204	62	127
77.44938775510204	77.5538775510204	71	127
77.5538775510204	77.64675736961452	62	127
77.64675736961452	77.75122448979592	67	127
77.75122448979592	77.85573696145124	71	127
77.85573696145124	77.91378684807256	74	127
77.91378684807256	78.01827664399093	73	127
78.01827664399093	78.1227664399093	74	127
78.1227664399093	78.2156462585034	76	127
78.2156462585034	78.30852607709751	74	127
78.30852607709751	78.41301587301588	71	127
78.41301587301588	78.5291156462585	74	127
78.5291156462585	78.63360544217687	72	127
78.63360544217687	78.7497052154195	69	127
78.7497052154195	79.23732426303854	67	127
80.15448979591837	80.18934240362812	73	127
80.18934240362812	80.32866213151928	74	127
80.38671201814059	80.53761904761905	74	127
81.5477097505669	81.60575963718821	73	127
81.60575963718821	81.75668934240363	74	127
81.81471655328798	81.97727891156462	74	127
82.02371882086167	82.22108843537416	74	127
82.29074829931973	82.68548752834467	74	127
83.25437641723356	83.30081632653061	73	127
83.30081632653061	83.44013605442177	76	127
83.49818594104309	83.64911564625851	76	127
83.69555555555556	83.82326530612245	76	127
83.88131519274377	84.32249433106576	76	127
85.17002267573696	85.22807256235828	78	127
85.22807256235828	85.40222222222222	79	127
85.46027210884354	85.61120181405896	79	127
86.05238095238096	86.11043083900226	78	127
86.11043083900226	86.27297052154195	79	127
86.319410430839	86.48195011337869	79	127
86.65609977324263	86.70253968253968	78	127
86.70253968253968	86.8534693877551	79	127
86.92312925170069	87.06244897959184	79	127
87.12049886621315	87.31786848072562	79	127
87.38750566893424	87.85192743764172	79	127
87.85192743764172	87.95641723356009	67	127
87.95641723356009	88.06090702947846	72	127
88.06090702947846	88.18861678004535	76	127
88.18861678004535	88.29310657596372	79	127
88.29310657596372	88.39759637188209	78	127
88.39759637188209	88.51369614512471	79	127
88.51369614512471	88.65301587301587	81	127
88.65301587301587	88.75750566893424	79	127
88.75750566893424	88.86199546485261	76	127
88.86199546485261	88.95487528344671	79	127
88.95487528344671	89.03614512471655	77	127
89.03614512471655	89.1174149659864	74	127
89.1174149659864	89.2102947845805	72	127
89.2102947845805	89.31478458049887	76	127
89.31478458049887	89.39605442176871	67	127
89.39605442176871	89.55857142857143	76	127
89.55857142857143	89.66308390022675	67	127
89.66308390022675	89.76757369614512	72	127
89.76757369614512	89.88367346938776	76	127
89.88367346938776	89.98816326530613	79	127
89.98816326530613	90.08104308390023	78	127
90.08104308390023	90.1855328798186	79	127
90.1855328798186	90.2784126984127	81	127
90.2784126984127	90.38290249433106	79	127
90.38290249433106	90.4990022675737	76	127
90.4990022675737	90.60349206349207	79	127
90.60349206349207	90.70795918367347	77	127
90.70795918367347	90.78925170068027	74	127
90.78925170068027	91.18399092970522	72	127
91.18399092970522	91.35814058956916	79	127
91.42780045351473	91.5787074829932	79	127
91.63678004535147	91.78770975056689	79	127
91.84575963718821	91.880589569161	79	127
91.880589569161	91.91541950113378	81	127
91.91541950113378	91.95024943310658	79	127
91.95024943310658	91.99668934240363	78	127
91.99668934240363	92.05473922902495	79	127
92.05473922902495	92.1940589569161	81	127
92.26371882086168	92.4146485260771	83	127
92.48430839002268	92.71650793650794	84	127
92.72809523809524	92.8209977324263	88	127
92.93709750566893	93.0764172335601	79	127
93.13446712018141	93.29700680272109	79	127
93.3550566893424	93.50598639455782	79	127
93.56403628117914	93.59884353741496	79	127
93.59884353741496	93.63369614512472	81	127
93.63369614512472	93.65691609977324	79	127
93.65691609977324	93.70335600907029	78	127
93.70335600907029	93.76140589569161	79	127
93.76140589569161	93.91233560090703	81	127
93.95877551020408	94.10968253968254	83	127
94.15614512471656	94.26061224489796	84	127
94.26061224489796	94.36510204081632	76	127
94.36510204081632	94.46961451247165	72	127
94.46961451247165	94.57410430839002	67	127
94.57410430839002	94.67859410430839	64	127
94.67859410430839	94.78308390022676	67	127
94.78308390022676	94.88757369614513	72	127
94.88757369614513	94.9920634920635	76	127
94.9920634920635	95.09655328798186	78	127
95.09655328798186	95.1778231292517	79	127
95.20104308390023	95.28231292517007	81	127
95.31714285714285	95.3984126984127	79	127
95.4332426303855	95.50290249433107	76	127
95.53773242630386	95.59578231292517	79	127
95.63061224489796	95.70027210884354	77	127
95.73510204081633	95.79315192743765	74	127
95.81637188208617	95.90925170068027	76	127
95.90925170068027	96.01374149659864	72	127
96.01374149659864	96.10662131519274	67	127
96.10662131519274	96.21111111111111	64	127
96.21111111111111	96.31560090702948	60	127
96.31560090702948	96.42009070294785	64	127
96.42009070294785	96.52458049886621	69	127
96.52458049886621	96.62907029478458	72	127
96.62907029478458	96.72195011337868	75	127
96.72195011337868	96.79160997732426	76	127
96.82643990929705	96.89609977324263	77	127
96.91931972789115	96.98897959183674	76	127
97.03541950113379	97.10507936507936	72	127
97.13990929705216	97.20956916099773	76	127
97.24439909297053	97.3140589569161	74	127
97.3488888888889	97.41854875283447	71	127
97.45337868480726	97.54625850340136	72	127
97.54625850340136	97.65074829931973	69	127
97.65074829931973	97.79006802721088	64	127
97.79006802721088	97.90616780045352	60	127
97.90616780045352	98.06870748299319	76	127
98.12675736961451	98.26607709750567	76	127
98.32412698412699	98.48666666666666	76	127
98.54471655328798	98.68403628117913	76	127
98.75369614512472	98.90462585034014	78	127
98.96267573696146	99.12521541950113	80	127
99.18326530612245	99.60122448979592	81	127
99.60122448979592	99.75215419501134	74	127
99.81020408163265	99.96113378684807	74	127
100.01918367346939	100.1701133786848	74	127
100.21655328798185	100.35587301587302	74	127
100.41392290249433	100.57646258503401	76	127
100.63451247165533	100.78544217687075	78	127
100.85510204081632	101.30789115646259	79	127
101.31950113378684	101.51687074829933	73	127
101.51687074829933	101.64458049886622	75	127
101.64458049886622	101.74907029478459	77	127
101.74907029478459	102.19024943310657	78	127
102.19024943310657	102.38761904761905	71	127
102.38761904761905	102.49210884353741	73	127
102.49210884353741	102.58498866213152	75	127
102.58498866213152	102.97972789115646	76	127
103.1887074829932	103.58344671201814	81	127
103.58344671201814	103.68793650793651	83	127
103.68793650793651	103.79242630385488	85	127
103.79242630385488	103.9433560090703	86	127
104.0014058956916	104.4425850340136	79	127
104.45419501133787	104.5702947845805	81	127
104.5702947845805	104.68639455782314	83	127
104.68639455782314	104.83732426303855	85	127
104.89537414965986	105.3249433106576	78	127
105.3249433106576	105.4178231292517	80	127
105.4178231292517	105.48748299319728	82	127
105.48748299319728	105.6384126984127	83	127
105.69646258503401	105.87061224489796	83	127
105.917052154195	106.13764172335601	82	127
106.13764172335601	106.56721088435374	78	127
106.56721088435374	106.95034013605442	78	127
106.95034013605442	107.39151927437642	78	127
107.40312925170068	107.80947845804988	78	127
107.82108843537415	107.97201814058957	90	127
108.04167800453514	108.19260770975056	90	127
108.2738775510204	108.42480725623582	90	127
108.48285714285714	108.63378684807256	90	127
108.68022675736961	108.85437641723357	90	127
108.90081632653062	109.05174603174603	90	127
109.09818594104308	109.23750566893425	90	127
109.26072562358277	109.41165532879819	90	127
109.4697052154195	109.59741496598639	78	127
109.65546485260771	109.8180045351474	78	127
109.87605442176871	110.02698412698413	78	127
110.08503401360544	110.27079365079365	78	127
110.32884353741497	110.46816326530612	78	127
110.52621315192744	110.67714285714285	78	127
110.73519274376417	110.90934240362812	78	127
110.96739229024944	111.1995918367347	78	127
114.40394557823129	115.01927437641723	63	127
115.01927437641723	115.21664399092971	64	127
115.22825396825397	115.85519274376418	63	127
115.85519274376418	116.12222222222222	64	127
116.13383219954649	116.74916099773243	63	127
116.74916099773243	116.95814058956915	64	127
116.95814058956915	117.15551020408164	63	127
121.6253514739229	121.68340136054422	62	127
121.68340136054422	121.7530612244898	67	127
121.7530612244898	121.8459410430839	71	127
121.8459410430839	121.95043083900227	74	127
121.95043083900227	122.08975056689343	73	127
122.08975056689343	122.18263038548753	74	127
122.18263038548753	122.2871201814059	76	127
122.2871201814059	122.38	74	127
122.38	122.47287981859411	71	127
122.47287981859411	122.61219954648526	74	127
122.61219954648526	122.7282993197279	72	127
122.7282993197279	122.83278911564626	69	127
122.83278911564626	122.93727891156463	67	127
122.93727891156463	123.03015873015873	71	127
123.03015873015873	123.12303854875283	62	127
123.12303854875283	123.21591836734694	71	127
123.21591836734694	123.32040816326531	62	127
123.32040816326531	123.43650793650794	67	127
123.43650793650794	123.52938775510204	71	127
123.52938775510204	123.64548752834467	74	127
123.64548752834467	123.73836734693877	73	127
123.73836734693877	123.83124716553289	74	127
123.83124716553289	123.94734693877551	76	127
123.94734693877551	124.05183673469388	74	127
124.05183673469388	124.1679365079365	71	127
124.1679365079365	124.27242630385487	74	127
124.27242630385487	124.38852607709751	72	127
124.38852607709751	124.5162358276644	69	127
124.5162358276644	124.69038548752835	67	127
124.88775510204081	125.06190476190476	74	127
125.13156462585034	125.29410430839002	74	127
125.35215419501134	125.50308390022676	74	127
125.56113378684807	125.59596371882085	74	127
125.59596371882085	125.63079365079365	76	127
125.63079365079365	125.66562358276644	74	127
125.66562358276644	125.72367346938775	73	127
125.72367346938775	125.78172335600907	74	127
125.78172335600907	125.93265306122449	76	127
125.9907029478458	126.1184126984127	78	127
126.17646258503402	126.39705215419501	79	127
126.39705215419501	126.48993197278912	83	127
126.59442176870748	126.78018140589569	74	127
126.84984126984126	127.0007709750567	74	127
127.058820861678	127.19814058956916	74	127
127.25619047619048	127.29102040816326	74	127
127.29102040816326	127.31424036281179	76	127
127.31424036281179	127.34907029478458	74	127
127.34907029478458	127.39551020408163	73	127
127.39551020408163	127.44195011337868	74	127
127.44195011337868	127.60448979591837	76	127
127.67414965986394	127.8134693877551	78	127
127.85990929705216	128.27786848072563	79	127
128.27786848072563	128.382358276644	72	127
128.382358276644	128.46362811791383	71	127
128.48684807256237	128.55650793650793	69	127
128.59133786848074	128.6609977324263	67	127
128.6958276643991	128.83514739229025	66	127
128.83514739229025	128.91641723356008	67	127
128.93963718820862	129.02090702947845	69	127
129.05573696145126	129.1137641723356	71	127
129.1370068027211	129.24149659863946	72	127
129.24149659863946	129.3227664399093	71	127
129.3691836734694	129.4504761904762	69	127
129.49691609977324	129.57818594104307	67	127
129.61301587301588	129.71750566893425	66	127
129.71750566893425	129.79877551020408	67	127
129.84521541950113	129.926485260771	69	127
129.96131519274377	130.03095238095239	71	127
130.05419501133787	130.14707482993197	72	127
130.14707482993197	130.21673469387756	71	127
130.23993197278912	130.32122448979592	69	127
130.34444444444443	130.4257142857143	67	127
130.46054421768707	130.56503401360544	66	127
130.56503401360544	130.64628117913833	67	127
130.68113378684808	130.7507709750567	69	127
130.78562358276645	130.87850340136055	71	127
130.91333333333333	131.0178231292517	72	127
131.0178231292517	131.09909297052155	71	127
131.12231292517006	131.20358276643992	72	127
131.2384126984127	131.31968253968253	71	127
131.35451247165534	131.81891156462586	72	127
131.81891156462586	131.92337868480726	62	127
131.92337868480726	132.02786848072563	67	127
132.02786848072563	132.132358276644	71	127
132.132358276644	132.2136507936508	74	127
132.2136507936508	132.31814058956917	73	127
132.31814058956917	132.41102040816327	74	127
132.41102040816327	132.5271201814059	76	127
132.5271201814059	132.63160997732427	74	127
132.63160997732427	132.74770975056688	71	127
132.74770975056688	132.86380952380952	74	127
132.86380952380952	132.95668934240362	72	127
132.95668934240362	133.061179138322	69	127
133.061179138322	133.16566893424036	67	127
133.16566893424036	133.27015873015873	71	127
133.27015873015873	133.36303854875283	62	127
133.36303854875283	133.4675283446712	71	127
133.4675283446712	133.56038548752835	62	127
133.56038548752835	133.66487528344672	67	127
133.66487528344672	133.74616780045352	71	127
133.74616780045352	133.8506575963719	74	127
133.8506575963719	133.943537414966	73	127
133.943537414966	134.04802721088436	74	127
134.04802721088436	134.15251700680273	76	127
134.15251700680273	134.2570068027211	74	127
134.2570068027211	134.37310657596373	71	127
134.37310657596373	134.5008163265306	74	127
134.5008163265306	134.60530612244898	72	127
134.60530612244898	134.70979591836735	69	127
134.70979591836735	135.15097505668933	67	127
135.15097505668933	135.2322448979592	62	127
135.2322448979592	135.33673469387756	67	127
135.33673469387756	135.45281179138323	71	127
135.45281179138323	135.5457142857143	74	127
135.5457142857143	135.65020408163267	73	127
135.65020408163267	135.77791383219954	74	127
135.77791383219954	135.87079365079364	76	127
135.87079365079364	135.975283446712	74	127
135.975283446712	136.09138321995465	71	127
136.09138321995465	136.2074829931973	74	127
136.2074829931973	136.31197278911566	72	127
136.31197278911566	136.46290249433108	69	127
136.46290249433108	136.57897959183674	67	127
136.57897959183674	136.68349206349205	71	127
136.68349206349205	136.7995918367347	62	127
136.7995918367347	136.8924716553288	71	127
136.8924716553288	136.99696145124716	62	127
136.99696145124716	137.1130612244898	67	127
137.1130612244898	137.2059410430839	71	127
137.2059410430839	137.298820861678	74	127
137.298820861678	137.36848072562358	73	127
137.36848072562358	137.4497505668934	74	127
137.4497505668934	137.55424036281178	76	127
137.55424036281178	137.65873015873015	74	127
137.65873015873015	137.76321995464852	71	127
137.76321995464852	137.85607709750568	74	127
137.85607709750568	137.960589569161	72	127
137.960589569161	138.06507936507936	69	127
138.06507936507936	138.3088888888889	67	127
138.9938775510204	139.07514739229026	67	127
139.07514739229026	139.19124716553287	71	127
139.19124716553287	139.29573696145124	69	127
139.29573696145124	139.4002267573696	66	127
139.4002267573696	139.49308390022676	64	127
139.49308390022676	139.59759637188208	67	127
139.59759637188208	139.71369614512471	65	127
139.71369614512471	139.81818594104308	62	127
139.81818594104308	139.91106575963718	64	127
139.91106575963718	140.01555555555555	67	127
140.01555555555555	140.12004535147392	69	127
140.12004535147392	140.2245351473923	71	127
140.2245351473923	140.32902494331066	72	127
140.32902494331066	140.42190476190476	74	127
140.42190476190476	140.52639455782312	76	127
140.52639455782312	140.61927437641722	78	127
140.61927437641722	140.7237641723356	79	127
140.7237641723356	140.81662131519275	77	127
140.81662131519275	140.92111111111112	76	127
140.92111111111112	141.0372335600907	81	127
141.0372335600907	141.14172335600907	71	127
141.14172335600907	141.2578231292517	79	127
141.2578231292517	141.38553287981858	69	127
141.38553287981858	141.49002267573695	78	127
141.49002267573695	141.59451247165532	71	127
141.59451247165532	141.71061224489796	86	127
141.71061224489796	141.79185941043085	84	127
141.79185941043085	141.89637188208616	81	127
141.89637188208616	141.98925170068028	79	127
141.98925170068028	142.09374149659865	83	127
142.09374149659865	142.19820861678005	81	127
142.19820861678005	142.30269841269842	78	127
142.30269841269842	142.4071882086168	76	127
142.4071882086168	142.52331065759637	79	127
142.52331065759637	142.61619047619047	78	127
142.61619047619047	142.70904761904762	74	127
142.70904761904762	142.813537414966	72	127
142.813537414966	142.91802721088436	76	127
142.91802721088436	143.02253968253967	74	127
143.02253968253967	143.12702947845804	71	127
143.12702947845804	143.2315192743764	72	127
143.2315192743764	143.33600907029478	74	127
143.33600907029478	143.42886621315193	76	127
143.42886621315193	143.53337868480725	74	127
143.53337868480725	143.63786848072561	72	127
143.63786848072561	143.74235827664398	71	127
143.74235827664398	143.84684807256235	69	127
143.84684807256235	143.95133786848072	67	127
143.95133786848072	144.53183673469388	66	127
144.53183673469388	144.63632653061225	67	127
144.63632653061225	144.75240362811792	69	127
144.75240362811792	144.8568934240363	71	127
144.8568934240363	144.9381859410431	72	127
144.9381859410431	145.04267573696146	74	127
145.04267573696146	145.13555555555556	76	127
145.13555555555556	145.26326530612246	74	127
145.26326530612246	145.39097505668934	72	127
145.39097505668934	145.4954648526077	71	127
145.4954648526077	145.61156462585035	69	127
145.61156462585035	145.71605442176872	67	127
145.71605442176872	146.21528344671202	66	127
146.21528344671202	146.3197732426304	67	127
146.3197732426304	146.4126530612245	69	127
146.4126530612245	146.51714285714286	71	127
146.51714285714286	146.6332426303855	72	127
146.6332426303855	146.74931972789116	74	127
146.74931972789116	146.85380952380953	76	127
146.85380952380953	146.95832199546484	74	127
146.95832199546484	147.0628117913832	72	127
147.0628117913832	147.16730158730158	71	127
147.16730158730158	147.27179138321995	69	127
147.27179138321995	147.37628117913832	67	127
147.37628117913832	147.48077097505669	66	127
147.48077097505669	147.57365079365078	67	127
147.57365079365078	147.67814058956915	69	127
147.67814058956915	147.7942403628118	71	127
147.7942403628118	147.89873015873016	72	127
147.89873015873016	148.00321995464853	71	127
148.00321995464853	148.1077097505669	69	127
148.1077097505669	148.21219954648527	67	127
148.21219954648527	148.31668934240363	66	127
148.31668934240363	148.421179138322	67	127
148.421179138322	148.52566893424037	69	127
148.52566893424037	148.64174603174604	71	127
148.64174603174604	148.74625850340135	72	127
148.74625850340135	148.85074829931972	71	127
148.85074829931972	148.9204081632653	69	127
148.9204081632653	149.03650793650795	67	127
149.03650793650795	149.1409977324263	66	127
149.1409977324263	149.25707482993198	67	127
149.25707482993198	149.34997732426305	66	127
149.34997732426305	149.46607709750566	67	127
149.46607709750566	149.57056689342403	66	127
149.57056689342403	149.68666666666667	67	127
149.68666666666667	149.79115646258504	66	127
149.79115646258504	149.91884353741497	67	127
149.91884353741497	150.12784580498865	66	127
150.3368253968254	150.49936507936508	78	127
150.76639455782313	153.7269387755102	84	127
157.30281179138322	157.39569160997732	70	127
157.44213151927437	157.52340136054423	75	127
157.558231292517	157.6394784580499	79	127
157.66272108843538	157.7439909297052	82	127
157.778820861678	157.88331065759638	81	127
157.88331065759638	157.98780045351475	82	127
158.01102040816326	158.09229024943312	84	127
158.1271201814059	158.22	82	127
158.25482993197278	158.33609977324264	80	127
158.37092970521542	158.4521768707483	79	127
158.47541950113379	158.54507936507937	80	127
158.56829931972788	158.64956916099774	77	127
158.68439909297052	158.7540589569161	75	127
158.7888888888889	158.87015873015872	79	127
158.89337868480726	158.95142857142858	70	127
158.9746485260771	159.0326984126984	79	127
159.06750566893425	159.1255782312925	70	127
159.14879818594105	159.24167800453515	75	127
159.27648526077098	159.33455782312924	79	127
159.36938775510205	159.45065759637188	82	127
159.48548752834466	159.6015873015873	81	127
159.6015873015873	159.6828344671202	82	127
159.70607709750567	159.78732426303856	84	127
159.8221768707483	159.89183673469387	82	127
159.92666666666668	160.0079365079365	80	127
160.03115646258505	160.11242630385487	79	127
160.14725623582765	160.20530612244897	80	127
160.24013605442178	160.3214058956916	77	127
160.34460317460318	160.56521541950113	75	127
160.78580498866214	160.95993197278912	82	127
161.01800453514738	161.15732426303856	82	127
161.2153514739229	161.35469387755103	82	127
161.3895238095238	161.4243537414966	82	127
161.4243537414966	161.44757369614513	84	127
161.44757369614513	161.4824036281179	82	127
161.4824036281179	161.5520634920635	81	127
161.5520634920635	161.61011337868482	82	127
161.61011337868482	161.76104308390023	84	127
161.81909297052155	161.94680272108843	86	127
162.00485260770975	162.22544217687076	87	127
162.22544217687076	162.3647619047619	91	127
162.48086167800454	162.63179138321996	82	127
162.68984126984128	162.852358276644	82	127
162.91043083900226	163.06136054421768	82	127
163.119410430839	163.1542403628118	82	127
163.1542403628118	163.18907029478459	84	127
163.18907029478459	163.22390022675737	82	127
163.22390022675737	163.28195011337868	81	127
163.28195011337868	163.34	82	127
163.34	163.49092970521542	84	127
163.53736961451247	163.6882993197279	86	127
163.75795918367348	164.1526984126984	87	127
165.0466439909297	165.18598639455783	82	127
165.25562358276645	165.41818594104308	82	127
165.49945578231294	165.65038548752835	84	127
165.70843537414967	165.8593650793651	86	127
165.91739229024944	166.09156462585034	87	127
166.75333333333333	166.89263038548754	79	127
166.9507029478458	167.13646258503402	79	127
167.19448979591837	167.32222222222222	81	127
167.38027210884354	167.55439909297053	83	127
167.6124716553288	167.75179138321997	84	127
169.3771882086168	169.53972789115647	58	127
169.59775510204082	169.73709750566894	58	127
169.77192743764172	170.17827664399093	59	127
170.17827664399093	170.35242630385488	60	127
170.4104761904762	170.57299319727892	60	127
170.65428571428572	170.77038548752836	59	127
170.77038548752836	170.87485260770976	62	127
170.89809523809524	170.97934240362812	67	127
171.0025850340136	171.10707482993197	71	127
171.13027210884354	171.30444444444444	74	127
171.36249433106576	171.51342403628118	74	127
171.60630385487528	171.74560090702948	74	127
171.80367346938775	171.94299319727892	74	127
172.00102040816327	172.1519501133787	76	127
172.21002267573695	172.37256235827664	78	127
172.43061224489796	172.871768707483	79	127
172.871768707483	173.03433106575963	72	127
173.10399092970522	173.138820861678	72	127
173.138820861678	173.1736507936508	74	127
173.1736507936508	173.2084807256236	72	127
173.2084807256236	173.25492063492064	71	127
173.25492063492064	173.31297052154196	72	127
173.31297052154196	173.73092970521543	74	127
173.73092970521543	173.87024943310658	66	127
173.91668934240363	173.93990929705217	66	127
173.93990929705217	173.96312925170068	67	127
173.96312925170068	173.99793650793652	66	127
173.99793650793652	174.04437641723356	64	127
174.04437641723356	174.10244897959183	66	127
174.10244897959183	174.2069387755102	67	127
174.2069387755102	174.31142857142856	71	127
174.31142857142856	174.4275283446712	74	127
174.4275283446712	174.53201814058957	79	127
174.53201814058957	174.6132879818594	78	127
174.6132879818594	174.69455782312926	79	127
174.70616780045353	174.76419501133788	81	127
174.78743764172336	174.8687074829932	79	127
174.903537414966	174.9964172335601	83	127
174.9964172335601	175.0660544217687	79	127
175.10090702947846	175.1821768707483	74	127
175.19378684807256	175.27503401360545	71	127
175.3098866213152	175.42596371882087	72	127
175.42596371882087	175.54208616780045	69	127
175.57689342403629	175.6581859410431	66	127
175.69301587301587	175.77428571428572	60	127
175.8091156462585	176.0297052154195	59	127
176.2967120181406	176.3780045351474	62	127
176.3780045351474	176.4708843537415	67	127
176.4708843537415	176.57537414965986	71	127
176.57537414965986	176.67986394557823	74	127
176.67986394557823	176.77274376417233	73	127
176.77274376417233	176.8772335600907	74	127
176.8772335600907	176.9584807256236	76	127
176.9584807256236	177.06297052154196	74	127
177.06297052154196	177.15587301587303	71	127
177.15587301587303	177.27197278911564	74	127
177.27197278911564	177.376462585034	72	127
177.376462585034	177.49256235827664	69	127
177.49256235827664	177.57380952380953	67	127
177.57380952380953	177.6782993197279	71	127
177.6782993197279	177.77120181405897	62	127
177.77120181405897	177.88730158730158	71	127
177.88730158730158	178.00340136054422	62	127
178.00340136054422	178.10789115646259	67	127
178.10789115646259	178.21238095238095	71	127
178.21238095238095	178.31687074829932	74	127
178.31687074829932	178.4213605442177	73	127
178.4213605442177	178.54907029478457	74	127
178.54907029478457	178.6419501133787	76	127
178.6419501133787	178.7348299319728	74	127
178.7348299319728	178.83931972789117	71	127
178.83931972789117	178.94380952380953	74	127
178.94380952380953	179.0482993197279	72	127
179.0482993197279	179.1643990929705	69	127
179.1643990929705	179.38498866213152	67	127
179.3965986394558	179.60557823129253	74	127
179.3965986394558	179.60557823129253	62	127
179.802947845805	179.9538775510204	74	127
179.802947845805	179.9538775510204	62	127
180.1396371882086	180.34861678004535	74	127
180.1396371882086	180.34861678004535	62	127
180.54598639455781	180.7781859410431	62	127
180.54598639455781	180.7781859410431	74	127
180.9639455782313	181.1845351473923	74	127
180.9639455782313	181.1845351473923	62	127
181.40510204081633	181.5908843537415	74	127
181.40510204081633	181.5908843537415	62	127
181.79986394557824	182.02043083900227	62	127
181.79986394557824	182.02043083900227	74	127
182.22943310657595	182.4384126984127	62	127
182.22943310657595	182.4384126984127	74	127
182.45002267573696	182.63575963718822	62	127
182.45002267573696	182.63575963718822	74	127
182.86798185941043	183.05374149659863	74	127
183.05374149659863	183.158231292517	76	127
183.158231292517	183.2511111111111	78	127
183.2511111111111	183.36721088435374	79	127
183.42526077097506	183.57619047619048	79	127
183.6342403628118	183.6922902494331	81	127
183.6922902494331	183.75034013605443	83	127
183.75034013605443	183.79678004535148	81	127
183.79678004535148	183.8548299319728	83	127
183.8548299319728	183.91285714285715	81	127
183.91285714285715	183.9709297052154	79	127
183.9709297052154	184.02897959183673	81	127
184.02897959183673	184.2031292517007	83	127
184.21473922902496	184.31920634920635	79	127
184.41210884353742	184.6094784580499	74	127
184.62108843537416	184.72557823129253	76	127
184.72557823129253	184.83004535147393	78	127
184.83004535147393	184.98099773242632	79	127
185.03902494331066	185.13192743764174	79	127
185.16675736961452	185.2364172335601	74	127
185.2364172335601	185.28285714285715	76	127
185.28285714285715	185.3408843537415	74	127
185.3408843537415	185.39895691609976	76	127
185.39895691609976	185.46861678004535	74	127
185.46861678004535	185.53827664399094	73	127
185.53827664399094	185.6079365079365	74	127
185.6079365079365	185.8285260770975	71	127
186.02589569160997	186.0607029478458	74	127
186.0607029478458	186.11877551020407	76	127
186.11877551020407	186.1768253968254	74	127
186.1768253968254	186.21163265306123	76	127
186.21163265306123	186.28131519274376	74	127
186.28131519274376	186.37419501133786	73	127
186.37419501133786	186.44385487528345	74	127
186.44385487528345	186.64122448979592	71	127
186.83859410430838	186.94308390022675	76	127
186.94308390022675	186.9895238095238	74	127
187.0243537414966	187.10562358276644	73	127
187.1172335600907	187.19850340136054	74	127
187.23331065759638	187.33780045351475	72	127
187.33780045351475	187.40748299319728	71	127
187.4422902494331	187.51197278911565	70	127
187.54680272108843	187.61646258503401	71	127
187.6512925170068	187.76739229024943	76	127
187.76739229024943	187.83705215419502	74	127
187.8718820861678	187.9647619047619	73	127
187.98798185941044	188.06925170068027	74	127
188.08086167800454	188.17374149659864	72	127
188.17374149659864	188.25498866213152	71	127
188.278231292517	188.3478911564626	70	127
188.3711111111111	188.45238095238096	71	127
188.47560090702947	188.55687074829933	76	127
188.55687074829933	188.64975056689343	74	127
188.6613605442177	188.71938775510205	73	127
188.7542403628118	188.82390022675736	74	127
188.85873015873017	189.0328798185941	71	127
189.13736961451247	189.33473922902493	74	127
189.55532879818594	189.77591836734695	79	127
190.0081179138322	190.18226757369615	83	127
190.36802721088435	190.5770068027211	86	127
190.77437641723355	190.97174603174602	78	127
190.77437641723355	190.97174603174602	62	127
190.77437641723355	190.97174603174602	69	127
191.2271655328798	191.28521541950113	79	127
191.2271655328798	191.28521541950113	71	127
191.2271655328798	191.28521541950113	62	127
