# onset,offset,note,velocity
23.602312925170068	25.471519274376416	33	127
23.602312925170068	25.471519274376416	45	127
23.602312925170068	25.471519274376416	69	127
23.602312925170068	25.471519274376416	73	127
23.602312925170068	25.471519274376416	76	127
23.602312925170068	25.471519274376416	81	127
25.471519274376416	26.945986394557824	38	127
25.471519274376416	26.945986394557824	65	127
25.471519274376416	26.945986394557824	69	127
25.471519274376416	26.945986394557824	74	127
25.471519274376416	26.945986394557824	77	127
25.471519274376416	26.945986394557824	50	127
26.945986394557824	28.223083900226758	41	127
26.945986394557824	28.223083900226758	62	127
26.945986394557824	28.223083900226758	69	127
26.945986394557824	28.223083900226758	74	127
26.945986394557824	28.223083900226758	53	127
28.455283446712016	30.52185941043084	40	127
28.455283446712016	29.75560090702948	71	127
28.455283446712016	30.7540589569161	62	127
28.455283446712016	31.13718820861678	52	127
28.455283446712016	29.75560090702948	69	127
30.022630385487528	31.86861678004535	76	127
30.022630385487528	31.86861678004535	68	127
30.765668934240363	31.462267573696145	59	127
31.48548752834467	32.03113378684807	64	127
31.48548752834467	32.48394557823129	52	127
32.03113378684807	32.65807256235828	62	127
32.03113378684807	32.65807256235828	68	127
32.66968253968254	35.119410430839004	53	127
32.66968253968254	33.7378231292517	69	127
32.66968253968254	33.644943310657595	60	127
33.65655328798186	33.9584126984127	59	127
33.97002267573696	34.7130612244898	57	127
33.97002267573696	35.235510204081635	62	127
33.97002267573696	35.235510204081635	74	127
34.72467120181406	35.45607709750567	57	127
35.4677097505669	36.768027210884355	74	127
35.4677097505669	36.768027210884355	54	127
35.4677097505669	36.17591836734694	59	127
35.4677097505669	36.768027210884355	62	127
36.1875283446712	37.01183673469388	60	127
37.035056689342404	38.96231292517007	55	127
37.035056689342404	39.18290249433107	62	127
37.035056689342404	39.18290249433107	74	127
37.035056689342404	38.5443537414966	60	127
37.035056689342404	38.28893424036281	66	127
37.035056689342404	38.28893424036281	69	127
38.5443537414966	39.18290249433107	67	127
38.5443537414966	39.18290249433107	59	127
42.85165532879819	44.035873015873015	64	127
42.85165532879819	44.2912925170068	67	127
42.85165532879819	44.2912925170068	76	127
42.85165532879819	44.035873015873015	60	127
44.2912925170068	45.37102040816327	60	127
44.2912925170068	45.37102040816327	64	127
44.2912925170068	45.37102040816327	69	127
44.2912925170068	45.37102040816327	76	127
45.626439909297055	47.51886621315193	59	127
45.626439909297055	47.51886621315193	66	127
45.626439909297055	47.124104308390024	76	127
45.626439909297055	47.51886621315193	69	127
47.124104308390024	47.72784580498866	75	127
51.744897959183675	52.87106575963719	62	127
51.744897959183675	52.87106575963719	68	127
51.744897959183675	52.87106575963719	40	127
51.744897959183675	52.87106575963719	59	127
53.13809523809524	54.51968253968254	59	127
53.13809523809524	55.92448979591837	60	127
53.13809523809524	55.92448979591837	68	127
53.13809523809524	54.51968253968254	40	127
54.51968253968254	57.317687074829934	57	127
54.51968253968254	55.680680272108845	41	127
55.92448979591837	57.57310657596372	41	127
55.92448979591837	57.57310657596372	29	127
55.92448979591837	57.317687074829934	69	127
55.92448979591837	57.317687074829934	60	127
57.57310657596372	58.93147392290249	62	127
57.57310657596372	58.93147392290249	60	127
57.57310657596372	58.93147392290249	42	127
57.57310657596372	58.93147392290249	30	127
57.57310657596372	58.93147392290249	57	127
59.186893424036285	60.0924716553288	43	127
59.186893424036285	60.0924716553288	62	127
59.186893424036285	60.0924716553288	59	127
59.186893424036285	60.0924716553288	55	127
59.186893424036285	60.0924716553288	31	127
61.71786848072562	62.08938775510204	64	127
61.71786848072562	62.08938775510204	55	127
61.71786848072562	62.08938775510204	58	127
62.08938775510204	62.30997732426304	54	127
62.08938775510204	62.30997732426304	57	127
62.08938775510204	62.30997732426304	66	127
62.98335600907029	63.2968253968254	63	127
62.98335600907029	63.30843537414966	57	127
62.98335600907029	63.30843537414966	54	127
63.30843537414966	63.9237641723356	62	127
63.30843537414966	63.9237641723356	59	127
63.30843537414966	63.9237641723356	55	127
64.31850340136054	64.6784126984127	67	127
64.6784126984127	64.91061224489796	79	127
65.68845804988662	66.03678004535148	55	127
65.68845804988662	66.03678004535148	64	127
65.68845804988662	66.03678004535148	58	127
66.03678004535148	66.31541950113379	66	127
66.03678004535148	66.31541950113379	57	127
66.03678004535148	66.31541950113379	54	127
66.97718820861678	67.32548752834467	54	127
66.97718820861678	67.32548752834467	57	127
66.97718820861678	67.32548752834467	63	127
67.32548752834467	67.94081632653061	55	127
67.32548752834467	67.94081632653061	62	127
67.32548752834467	67.94081632653061	58	127
68.37036281179138	68.68385487528344	67	127
68.68385487528344	69.0437641723356	79	127
69.82163265306123	70.19315192743764	58	127
69.82163265306123	70.19315192743764	55	127
69.82163265306123	70.19315192743764	64	127
70.19315192743764	70.44857142857143	57	127
70.19315192743764	70.44857142857143	65	127
70.19315192743764	70.44857142857143	53	127
71.11034013605442	71.4354195011338	64	127
71.11034013605442	71.4354195011338	67	127
71.11034013605442	71.4354195011338	49	127
71.11034013605442	71.4354195011338	57	127
71.4354195011338	72.07396825396826	57	127
71.4354195011338	72.07396825396826	62	127
71.4354195011338	72.07396825396826	65	127
71.4354195011338	72.07396825396826	50	127
72.45709750566894	72.81698412698412	69	127
72.82861678004535	72.96793650793651	81	127
73.86190476190477	74.21020408163265	67	127
73.86190476190477	74.21020408163265	64	127
73.86190476190477	74.21020408163265	57	127
73.86190476190477	74.21020408163265	49	127
74.21020408163265	74.54689342403628	57	127
74.21020408163265	74.54689342403628	65	127
74.21020408163265	74.54689342403628	62	127
74.21020408163265	74.54689342403628	50	127
74.55850340136054	74.8371201814059	57	127
74.55850340136054	74.8371201814059	49	127
74.55850340136054	74.8371201814059	67	127
74.55850340136054	74.8371201814059	64	127
74.8371201814059	75.22024943310657	62	127
74.8371201814059	75.22024943310657	65	127
74.8371201814059	75.22024943310657	50	127
74.8371201814059	75.22024943310657	57	127
75.24349206349207	75.56857142857143	57	127
75.24349206349207	75.56857142857143	64	127
75.24349206349207	75.56857142857143	67	127
75.24349206349207	75.56857142857143	49	127
75.56857142857143	76.25356009070295	57	127
75.56857142857143	76.25356009070295	50	127
75.56857142857143	76.25356009070295	65	127
75.56857142857143	76.25356009070295	62	127
76.65990929705215	77.0546485260771	69	127
77.0546485260771	77.10108843537415	81	127
78.19242630385487	78.5639455782313	57	127
78.19242630385487	78.5639455782313	67	127
78.19242630385487	78.5639455782313	70	127
78.19242630385487	78.5639455782313	73	127
78.5639455782313	79.00512471655328	69	127
78.5639455782313	79.00512471655328	74	127
78.5639455782313	79.00512471655328	65	127
78.5639455782313	79.00512471655328	62	127
79.05156462585035	79.42308390022676	67	127
79.05156462585035	79.42308390022676	57	127
79.05156462585035	79.42308390022676	73	127
79.05156462585035	79.42308390022676	70	127
79.42308390022676	79.95714285714286	69	127
79.42308390022676	79.95714285714286	74	127
79.42308390022676	79.95714285714286	62	127
79.42308390022676	79.95714285714286	65	127
79.96875283446713	80.64213151927437	57	127
79.96875283446713	80.64213151927437	70	127
79.96875283446713	80.64213151927437	73	127
79.96875283446713	80.64213151927437	67	127
80.64213151927437	81.24585034013606	69	127
80.64213151927437	81.24585034013606	74	127
80.64213151927437	81.76829931972789	62	127
80.64213151927437	81.76829931972789	65	127
81.26907029478458	81.79151927437641	69	127
81.79151927437641	82.27913832199546	81	127
82.30235827664399	83.04539682539682	69	127
83.06859410430839	84.68240362811791	81	127
85.35578231292517	85.85501133786848	50	127
85.35578231292517	85.85501133786848	38	127
85.35578231292517	85.85501133786848	62	127
85.35578231292517	85.85501133786848	65	127
85.35578231292517	85.85501133786848	57	127
85.9130612244898	86.08721088435374	57	127
85.9130612244898	86.08721088435374	53	127
85.9130612244898	86.08721088435374	41	127
85.9130612244898	86.08721088435374	62	127
86.12204081632653	86.28458049886622	59	127
86.12204081632653	86.28458049886622	56	127
86.12204081632653	86.28458049886622	64	127
86.12204081632653	86.28458049886622	52	127
86.12204081632653	86.28458049886622	40	127
86.95795918367347	87.05083900226758	57	127
86.95795918367347	87.05083900226758	60	127
86.95795918367347	87.05083900226758	64	127
86.95795918367347	87.05083900226758	45	127
87.7358276643991	87.79387755102042	52	127
87.7358276643991	87.79387755102042	56	127
87.7358276643991	87.79387755102042	59	127
87.7358276643991	87.79387755102042	64	127
87.7358276643991	87.79387755102042	40	127
88.5485260770975	88.69945578231292	57	127
88.5485260770975	88.69945578231292	60	127
88.5485260770975	88.69945578231292	64	127
88.5485260770975	88.69945578231292	33	127
88.5485260770975	88.69945578231292	45	127
89.36122448979592	89.5237641723356	57	127
89.36122448979592	89.5237641723356	60	127
89.36122448979592	89.5237641723356	33	127
89.36122448979592	89.5237641723356	45	127
89.36122448979592	89.5237641723356	64	127
89.79077097505669	89.9417006802721	33	127
89.79077097505669	89.9417006802721	57	127
89.79077097505669	89.9417006802721	60	127
89.79077097505669	89.9417006802721	64	127
89.79077097505669	89.9417006802721	45	127
90.1855328798186	90.32482993197279	59	127
90.1855328798186	90.32482993197279	67	127
90.1855328798186	90.32482993197279	31	127
90.1855328798186	90.32482993197279	43	127
90.1855328798186	90.32482993197279	62	127
91.1259410430839	91.35814058956916	55	127
91.1259410430839	91.35814058956916	59	127
91.1259410430839	91.35814058956916	62	127
91.1259410430839	91.35814058956916	67	127
91.1259410430839	91.35814058956916	31	127
91.1259410430839	91.35814058956916	43	127
92.0663492063492	94.37673469387755	43	127
92.0663492063492	94.37673469387755	48	127
92.0663492063492	94.37673469387755	64	127
92.0663492063492	94.37673469387755	55	127
92.0663492063492	94.37673469387755	60	127
92.0663492063492	94.37673469387755	36	127
94.50444444444445	94.72503401360544	76	127
94.748231292517	95.3635827664399	50	127
94.748231292517	95.3635827664399	65	127
94.748231292517	95.3635827664399	62	127
94.748231292517	95.3635827664399	57	127
94.748231292517	95.3635827664399	77	127
95.42163265306122	95.59578231292517	53	127
95.42163265306122	95.46807256235827	69	127
95.42163265306122	95.46807256235827	62	127
95.42163265306122	95.59578231292517	57	127
95.63061224489796	95.67705215419501	64	127
95.63061224489796	95.67705215419501	68	127
95.63061224489796	95.76993197278911	52	127
95.63061224489796	95.76993197278911	59	127
95.81637188208617	95.86281179138322	64	127
96.00213151927437	96.06018140589569	64	127
96.21111111111111	96.2459410430839	68	127
96.45492063492064	96.59424036281179	48	127
96.45492063492064	96.59424036281179	57	127
96.45492063492064	96.59424036281179	52	127
96.45492063492064	96.48975056689342	69	127
96.45492063492064	96.59424036281179	45	127
96.62907029478458	96.6871201814059	64	127
96.82643990929705	96.84965986394558	64	127
97.01219954648526	97.07024943310658	69	127
97.24439909297053	97.29083900226757	71	127
97.24439909297053	97.36049886621315	40	127
97.24439909297053	97.36049886621315	44	127
97.24439909297053	97.36049886621315	47	127
97.24439909297053	97.36049886621315	52	127
97.39532879818594	97.45337868480726	64	127
97.6275283446712	97.68557823129251	64	127
97.82489795918367	97.88294784580499	71	127
98.02226757369614	98.06870748299319	72	127
98.02226757369614	98.18480725623583	33	127
98.02226757369614	98.18480725623583	36	127
98.02226757369614	98.18480725623583	40	127
98.02226757369614	98.18480725623583	45	127
98.21963718820862	98.27768707482993	69	127
98.39378684807257	98.45183673469388	69	127
98.59115646258503	98.64920634920635	72	127
98.81174603174603	98.85818594104309	72	127
98.81174603174603	98.97428571428571	45	127
98.81174603174603	98.97428571428571	33	127
99.00911564625851	99.05555555555556	69	127
99.24131519274377	99.39224489795919	33	127
99.24131519274377	99.27614512471655	69	127
99.24131519274377	99.39224489795919	45	127
99.43868480725624	99.48512471655329	72	127
99.65927437641723	99.84503401360544	43	127
99.65927437641723	100.5184126984127	74	127
99.65927437641723	99.84503401360544	31	127
100.57646258503401	101.50526077097506	67	127
100.57646258503401	101.50526077097506	43	127
100.57646258503401	101.50526077097506	71	127
100.57646258503401	101.50526077097506	74	127
100.57646258503401	101.50526077097506	79	127
100.57646258503401	101.50526077097506	55	127
100.57646258503401	101.50526077097506	50	127
100.57646258503401	101.50526077097506	47	127
101.56331065759638	101.84195011337869	36	127
101.84195011337869	101.96965986394558	48	127
101.96965986394558	102.05092970521542	52	127
102.05092970521542	102.15541950113379	55	127
102.16702947845805	102.23668934240362	60	127
102.24829931972789	102.34117913832199	64	127
102.34117913832199	102.42244897959183	67	127
102.42244897959183	102.51532879818595	72	127
102.51532879818595	102.58498866213152	76	127
102.58498866213152	102.6546485260771	79	127
102.66625850340137	102.7475283446712	84	127
102.7475283446712	102.87523809523809	88	127
102.87523809523809	103.02616780045352	84	127
103.02616780045352	103.10743764172335	79	127
103.10743764172335	103.17709750566894	76	127
103.1887074829932	103.25836734693877	72	127
103.26997732426304	103.35124716553288	67	127
103.35124716553288	103.44412698412698	76	127
103.44412698412698	103.5370068027211	72	127
103.5370068027211	103.61827664399092	67	127
103.61827664399092	103.69954648526077	64	127
103.71115646258504	103.79242630385488	60	127
103.80403628117914	103.92013605442177	55	127
103.92013605442177	104.0014058956916	64	127
104.0014058956916	104.10589569160997	60	127
104.10589569160997	104.21038548752834	55	127
104.21038548752834	104.28004535147392	52	127
104.29165532879819	104.40775510204081	55	127
104.40775510204081	104.51224489795918	60	127
104.51224489795918	104.61673469387755	64	127
104.61673469387755	104.74444444444444	67	127
104.74444444444444	104.82571428571428	72	127
104.83732426303855	104.93020408163265	76	127
104.94181405895692	105.05791383219955	79	127
105.05791383219955	105.20884353741496	84	127
105.20884353741496	105.77773242630386	88	127
105.30172335600908	105.70807256235828	36	127
107.37990929705215	107.48439909297052	60	127
107.37990929705215	107.5540589569161	33	127
107.48439909297052	107.58888888888889	63	127
107.58888888888889	107.69337868480726	65	127
107.58888888888889	107.76303854875283	45	127
107.70498866213151	107.79786848072563	63	127
107.79786848072563	107.97201814058957	45	127
107.79786848072563	107.902358276644	65	127
107.902358276644	107.9952380952381	63	127
107.9952380952381	108.16938775510204	45	127
107.9952380952381	108.08811791383219	65	127
108.09972789115646	108.20421768707483	63	127
108.20421768707483	108.3087074829932	58	127
108.20421768707483	108.36675736961452	34	127
108.3087074829932	108.4015873015873	62	127
108.4015873015873	108.48285714285714	65	127
108.4015873015873	108.51768707482994	46	127
108.48285714285714	108.54090702947846	62	127
108.55251700680272	108.65700680272109	65	127
108.55251700680272	108.7150566893424	46	127
108.65700680272109	108.7498866213152	62	127
108.7498866213152	108.92403628117914	46	127
108.7498866213152	108.85437641723357	65	127
108.85437641723357	108.95886621315192	62	127
108.97047619047619	109.13301587301588	34	127
108.97047619047619	109.06335600907029	58	127
109.06335600907029	109.16784580498866	63	127
109.16784580498866	109.26072562358277	66	127
109.16784580498866	109.33038548752835	46	127
109.26072562358277	109.36521541950114	63	127
109.36521541950114	109.45809523809524	66	127
109.36521541950114	109.51614512471656	46	127
109.45809523809524	109.53936507936508	63	127
109.53936507936508	109.63224489795918	66	127
109.53936507936508	109.67868480725623	46	127
109.63224489795918	109.71351473922903	63	127
109.71351473922903	109.79478458049887	58	127
109.71351473922903	109.86444444444444	34	127
109.80639455782313	109.88766439909297	64	127
109.88766439909297	109.99215419501134	67	127
109.88766439909297	110.05020408163266	46	127
109.99215419501134	110.08503401360544	64	127
110.08503401360544	110.2591836734694	46	127
110.08503401360544	110.17791383219955	67	127
110.1895238095238	110.28240362811792	64	127
110.28240362811792	110.38689342403629	67	127
110.28240362811792	110.45655328798186	46	127
110.38689342403629	110.49138321995464	64	127
110.49138321995464	110.6655328798186	35	127
110.49138321995464	110.59587301587301	62	127
110.59587301587301	110.68875283446712	65	127
110.70036281179138	110.80485260770975	68	127
110.70036281179138	110.87451247165532	47	127
110.80485260770975	110.90934240362812	65	127
110.90934240362812	110.99061224489796	68	127
110.90934240362812	111.0718820861678	47	127
110.99061224489796	111.09510204081633	65	127
111.10671201814058	111.21120181405895	47	127
111.10671201814058	111.1647619047619	68	127
111.1647619047619	111.24603174603175	65	127
111.24603174603175	111.35052154195012	57	127
111.24603174603175	111.42018140589569	36	127
111.35052154195012	111.45501133786848	64	127
111.46662131519274	111.52467120181406	69	127
111.46662131519274	111.58272108843538	48	127
111.52467120181406	111.61755102040816	64	127
111.61755102040816	111.78009070294785	41	127
111.61755102040816	111.72204081632653	57	127
111.72204081632653	111.81492063492064	62	127
111.81492063492064	111.98907029478458	53	127
111.81492063492064	111.91941043083901	69	127
111.93102040816326	112.00068027210884	62	127
112.00068027210884	112.1748299319728	40	127
112.00068027210884	112.1051700680272	60	127
112.1051700680272	112.20965986394557	64	127
112.20965986394557	112.360589569161	52	127
112.20965986394557	112.27931972789116	69	127
112.29092970521542	112.39541950113379	64	127
112.39541950113379	112.55795918367347	52	127
112.39541950113379	112.49990929705216	60	127
112.49990929705216	112.59278911564626	64	127
112.59278911564626	112.75532879818594	52	127
112.59278911564626	112.6740589569161	60	127
112.6740589569161	112.77854875283447	64	127
112.77854875283447	112.92947845804989	40	127
112.77854875283447	112.88303854875284	59	127
112.88303854875284	112.96430839002268	64	127
112.96430839002268	113.06879818594105	62	127
112.96430839002268	113.15006802721088	52	127
113.06879818594105	113.17328798185942	64	127
113.18489795918367	113.26616780045352	59	127
113.18489795918367	113.28938775510204	52	127
113.26616780045352	113.32421768707484	64	127
113.32421768707484	113.46353741496598	52	127
113.32421768707484	113.40548752834466	62	127
113.40548752834466	113.49836734693878	64	127
113.50997732426303	113.6144671201814	45	127
113.50997732426303	113.6492970521542	60	127
113.6144671201814	113.68412698412699	57	127
113.68412698412699	113.78861678004534	60	127
113.78861678004534	113.85827664399093	57	127
113.85827664399093	113.95115646258503	60	127
113.9627664399093	114.06725623582767	57	127
114.06725623582767	114.1833560090703	60	127
114.1833560090703	114.2762358276644	57	127
114.2762358276644	114.35750566893424	60	127
114.3691156462585	114.4619954648526	57	127
114.4619954648526	114.54326530612245	60	127
114.54326530612245	114.63614512471655	57	127
114.63614512471655	114.74063492063492	60	127
114.75224489795919	114.84512471655329	57	127
114.84512471655329	114.97283446712018	60	127
114.97283446712018	115.06571428571428	57	127
115.06571428571428	115.14698412698412	33	127
115.06571428571428	115.14698412698412	69	127
115.14698412698412	115.22825396825397	45	127
115.14698412698412	115.22825396825397	81	127
115.22825396825397	115.32113378684807	80	127
115.22825396825397	115.32113378684807	44	127
115.32113378684807	115.42562358276643	45	127
115.32113378684807	115.42562358276643	81	127
115.42562358276643	115.50689342403628	69	127
115.42562358276643	115.50689342403628	33	127
115.50689342403628	115.59977324263039	81	127
115.50689342403628	115.59977324263039	45	127
115.61138321995465	115.69265306122449	35	127
115.61138321995465	115.69265306122449	71	127
115.69265306122449	115.77392290249433	81	127
115.69265306122449	115.77392290249433	45	127
115.77392290249433	115.84358276643991	72	127
115.77392290249433	115.84358276643991	36	127
115.84358276643991	115.94807256235828	81	127
115.84358276643991	115.94807256235828	45	127
115.94807256235828	116.05256235827665	71	127
115.94807256235828	116.05256235827665	35	127
116.05256235827665	116.13383219954649	45	127
116.05256235827665	116.13383219954649	81	127
116.13383219954649	116.22671201814059	36	127
116.13383219954649	116.22671201814059	72	127
116.22671201814059	116.31959183673469	81	127
116.22671201814059	116.31959183673469	45	127
116.31959183673469	116.4124716553288	33	127
116.31959183673469	116.4124716553288	69	127
116.42408163265306	116.51696145124717	45	127
116.42408163265306	116.51696145124717	81	127
116.51696145124717	116.69111111111111	76	127
116.51696145124717	116.62145124716554	40	127
116.51696145124717	116.62145124716554	52	127
116.62145124716554	116.71433106575964	56	127
116.71433106575964	116.77238095238096	59	127
116.78399092970521	116.818820861678	56	127
116.818820861678	116.88848072562358	59	127
116.88848072562358	116.9813605442177	56	127
116.9813605442177	117.07424036281179	59	127
117.07424036281179	117.16712018140589	56	127
117.16712018140589	117.26	59	127
117.26	117.34126984126983	56	127
117.34126984126983	117.43414965986395	59	127
117.43414965986395	117.52702947845805	56	127
117.53863945578232	117.64312925170069	59	127
117.64312925170069	117.7940589569161	56	127
117.7940589569161	117.89854875283447	59	127
117.89854875283447	118.00303854875284	56	127
118.00303854875284	118.1075283446712	76	127
118.00303854875284	118.1075283446712	40	127
118.1075283446712	118.18879818594104	52	127
118.1075283446712	118.18879818594104	88	127
118.18879818594104	118.30489795918368	87	127
118.18879818594104	118.30489795918368	51	127
118.30489795918368	118.40938775510205	88	127
118.30489795918368	118.40938775510205	52	127
118.40938775510205	118.50226757369614	76	127
118.40938775510205	118.50226757369614	40	127
118.51387755102041	118.60675736961451	52	127
118.51387755102041	118.60675736961451	88	127
118.60675736961451	118.68802721088436	77	127
118.60675736961451	118.68802721088436	41	127
118.68802721088436	118.78090702947846	89	127
118.68802721088436	118.78090702947846	53	127
118.78090702947846	118.8621768707483	76	127
118.78090702947846	118.8621768707483	40	127
118.87378684807257	118.96666666666667	52	127
118.87378684807257	118.96666666666667	88	127
118.96666666666667	119.05954648526077	74	127
118.96666666666667	119.05954648526077	38	127
119.05954648526077	119.15242630385488	86	127
119.05954648526077	119.15242630385488	50	127
119.15242630385488	119.25691609977325	72	127
119.15242630385488	119.25691609977325	36	127
119.25691609977325	119.38462585034014	84	127
119.25691609977325	119.38462585034014	48	127
119.38462585034014	119.47750566893424	35	127
119.38462585034014	119.47750566893424	71	127
119.47750566893424	119.58199546485261	83	127
119.47750566893424	119.58199546485261	47	127
119.58199546485261	119.66326530612245	69	127
119.58199546485261	119.74453514739228	33	127
119.58199546485261	119.74453514739228	45	127
119.66326530612245	119.76775510204082	81	127
119.77936507936508	119.88385487528345	80	127
119.88385487528345	119.98834467120182	81	127
119.98834467120182	120.08122448979591	69	127
120.08122448979591	120.17410430839003	81	127
120.18571428571428	120.2785941043084	71	127
120.2785941043084	120.38308390022675	81	127
120.38308390022675	120.47596371882086	72	127
120.47596371882086	120.58045351473923	81	127
120.58045351473923	120.66172335600908	74	127
120.67333333333333	120.75460317460318	81	127
120.75460317460318	120.84748299319727	72	127
120.84748299319727	120.92875283446712	81	127
120.92875283446712	121.01002267573696	71	127
121.02163265306122	121.12612244897959	81	127
121.12612244897959	121.26544217687075	69	127
121.12612244897959	121.20739229024943	33	127
121.20739229024943	121.30027210884354	45	127
121.30027210884354	121.39315192743764	44	127
121.4047619047619	121.49764172335601	45	127
121.49764172335601	121.59052154195011	33	127
121.59052154195011	121.67179138321995	45	127
121.67179138321995	121.77628117913832	35	127
121.77628117913832	121.86916099773242	45	127
121.88077097505669	121.98526077097506	36	127
121.98526077097506	122.08975056689343	45	127
122.08975056689343	122.18263038548753	35	127
122.18263038548753	122.27551020408163	45	127
122.2871201814059	122.38	36	127
122.38	122.48448979591836	45	127
122.48448979591836	122.58897959183673	33	127
122.58897959183673	122.6934693877551	45	127
122.6934693877551	122.79795918367347	76	127
122.6934693877551	122.86761904761904	40	127
122.79795918367347	122.90244897959184	88	127
122.90244897959184	122.97210884353741	87	127
122.97210884353741	123.07659863945578	88	127
123.07659863945578	123.16947845804988	76	127
123.18108843537415	123.27396825396825	88	127
123.27396825396825	123.34362811791384	78	127
123.34362811791384	123.42489795918367	88	127
123.42489795918367	123.49455782312926	80	127
123.50616780045351	123.59904761904762	88	127
123.59904761904762	123.68031746031745	81	127
123.68031746031745	123.77319727891157	88	127
123.77319727891157	123.86607709750567	83	127
123.86607709750567	123.97056689342404	88	127
123.9821768707483	124.05183673469388	80	127
124.05183673469388	124.15632653061225	88	127
124.15632653061225	124.24920634920635	40	127
124.15632653061225	124.31886621315192	76	127
124.24920634920635	124.34208616780046	52	127
124.35369614512472	124.43496598639456	51	127
124.43496598639456	124.53945578231293	52	127
124.53945578231293	124.62072562358277	40	127
124.62072562358277	124.71360544217687	52	127
124.72521541950114	124.8297052154195	41	127
124.8297052154195	124.92258503401361	53	127
124.92258503401361	125.00385487528345	40	127
125.00385487528345	125.09673469387755	52	127
125.09673469387755	125.20122448979592	38	127
125.21283446712017	125.29410430839002	50	127
125.29410430839002	125.39859410430839	36	127
125.39859410430839	125.4914739229025	48	127
125.4914739229025	125.59596371882085	35	127
125.59596371882085	125.70045351473922	47	127
125.70045351473922	125.81655328798186	57	127
125.70045351473922	125.81655328798186	33	127
125.70045351473922	125.81655328798186	45	127
125.81655328798186	125.92104308390023	60	127
125.81655328798186	125.92104308390023	48	127
125.92104308390023	126.01392290249433	64	127
125.92104308390023	126.01392290249433	52	127
126.01392290249433	126.15324263038549	60	127
126.01392290249433	126.15324263038549	48	127
126.15324263038549	126.25773242630386	52	127
126.15324263038549	126.25773242630386	64	127
126.25773242630386	126.35061224489796	60	127
126.25773242630386	126.35061224489796	48	127
126.35061224489796	126.45510204081633	57	127
126.35061224489796	126.45510204081633	45	127
126.45510204081633	126.5595918367347	60	127
126.45510204081633	126.5595918367347	48	127
126.57120181405895	126.64086167800454	45	127
126.57120181405895	126.64086167800454	57	127
126.64086167800454	126.71052154195011	48	127
126.64086167800454	126.71052154195011	60	127
126.71052154195011	126.78018140589569	53	127
126.71052154195011	126.78018140589569	65	127
126.78018140589569	126.88467120181406	48	127
126.78018140589569	126.88467120181406	60	127
126.89628117913833	127.02399092970522	53	127
126.89628117913833	127.02399092970522	65	127
127.02399092970522	127.12848072562359	48	127
127.02399092970522	127.12848072562359	60	127
127.12848072562359	127.24458049886621	57	127
127.12848072562359	127.24458049886621	45	127
127.24458049886621	127.32585034013606	48	127
127.24458049886621	127.32585034013606	60	127
127.32585034013606	127.41873015873016	59	127
127.32585034013606	127.41873015873016	47	127
127.43034013605443	127.52321995464852	62	127
127.43034013605443	127.52321995464852	50	127
127.52321995464852	127.61609977324262	65	127
127.52321995464852	127.61609977324262	53	127
127.61609977324262	127.69736961451247	55	127
127.61609977324262	127.69736961451247	67	127
127.69736961451247	127.8134693877551	71	127
127.69736961451247	127.8134693877551	59	127
127.82507936507936	127.941179138322	74	127
127.82507936507936	127.941179138322	62	127
127.941179138322	128.04566893424035	65	127
127.941179138322	128.04566893424035	77	127
128.04566893424035	128.1269387755102	74	127
128.04566893424035	128.1269387755102	62	127
128.1269387755102	128.20820861678004	77	127
128.1269387755102	128.20820861678004	65	127
128.20820861678004	128.30108843537414	62	127
128.20820861678004	128.30108843537414	74	127
128.30108843537414	128.39396825396827	71	127
128.30108843537414	128.39396825396827	59	127
128.39396825396827	128.48684807256237	67	127
128.39396825396827	128.48684807256237	55	127
128.48684807256237	128.55650793650793	65	127
128.48684807256237	128.55650793650793	53	127
128.55650793650793	128.62616780045352	55	127
128.55650793650793	128.62616780045352	67	127
128.63777777777779	128.74226757369615	65	127
128.63777777777779	128.74226757369615	53	127
128.74226757369615	128.83514739229025	50	127
128.74226757369615	128.83514739229025	62	127
128.83514739229025	128.93963718820862	60	127
128.83514739229025	128.93963718820862	48	127
128.93963718820862	129.044126984127	52	127
128.93963718820862	129.044126984127	64	127
129.05573696145126	129.12539682539682	55	127
129.05573696145126	129.12539682539682	67	127
129.12539682539682	129.20666666666668	64	127
129.12539682539682	129.20666666666668	52	127
129.20666666666668	129.31115646258505	55	127
129.20666666666668	129.31115646258505	67	127
129.31115646258505	129.41564625850341	64	127
129.31115646258505	129.41564625850341	52	127
129.41564625850341	129.53174603174602	60	127
129.41564625850341	129.53174603174602	48	127
129.53174603174602	129.6362358276644	64	127
129.53174603174602	129.6362358276644	52	127
129.6362358276644	129.74072562358276	61	127
129.6362358276644	129.74072562358276	49	127
129.74072562358276	129.79877551020408	52	127
129.74072562358276	129.79877551020408	64	127
129.79877551020408	129.90326530612245	69	127
129.79877551020408	129.90326530612245	57	127
129.91487528344672	130.00775510204082	64	127
129.91487528344672	130.00775510204082	52	127
130.00775510204082	130.10063492063492	69	127
130.00775510204082	130.10063492063492	57	127
130.10063492063492	130.19351473922902	64	127
130.10063492063492	130.19351473922902	52	127
130.19351473922902	130.29800453514738	61	127
130.19351473922902	130.29800453514738	49	127
130.30961451247165	130.40249433106575	52	127
130.30961451247165	130.40249433106575	64	127
130.40249433106575	130.4953514739229	50	127
130.40249433106575	130.4953514739229	62	127
130.4953514739229	130.59986394557822	65	127
130.4953514739229	130.59986394557822	53	127
130.59986394557822	130.71596371882086	69	127
130.59986394557822	130.71596371882086	57	127
130.71596371882086	130.78562358276645	65	127
130.71596371882086	130.78562358276645	53	127
130.79721088435375	130.9017006802721	63	127
130.79721088435375	130.9017006802721	51	127
130.9017006802721	131.00619047619048	66	127
130.9017006802721	131.00619047619048	54	127
131.00619047619048	131.09909297052155	71	127
131.00619047619048	131.09909297052155	59	127
131.09909297052155	131.18036281179138	63	127
131.09909297052155	131.18036281179138	75	127
131.19197278911565	131.28485260770975	78	127
131.19197278911565	131.28485260770975	66	127
131.28485260770975	131.38934240362812	81	127
131.28485260770975	131.38934240362812	69	127
131.38934240362812	131.47061224489795	78	127
131.38934240362812	131.47061224489795	66	127
131.47061224489795	131.57510204081632	75	127
131.47061224489795	131.57510204081632	63	127
131.57510204081632	131.66795918367347	71	127
131.57510204081632	131.66795918367347	59	127
131.66795918367347	131.74925170068028	69	127
131.66795918367347	131.74925170068028	57	127
131.74925170068028	131.85374149659864	67	127
131.74925170068028	131.85374149659864	55	127
131.85374149659864	131.92337868480726	66	127
131.85374149659864	131.92337868480726	54	127
131.92337868480726	132.00467120181406	64	127
131.92337868480726	132.00467120181406	52	127
132.01628117913833	132.09755102040816	67	127
132.01628117913833	132.09755102040816	55	127
132.09755102040816	132.20204081632653	71	127
132.09755102040816	132.20204081632653	59	127
132.20204081632653	132.29492063492063	67	127
132.20204081632653	132.29492063492063	55	127
132.29492063492063	132.399410430839	71	127
132.29492063492063	132.399410430839	59	127
132.41102040816327	132.51551020408164	67	127
132.41102040816327	132.51551020408164	55	127
132.51551020408164	132.62	64	127
132.51551020408164	132.62	52	127
132.62	132.73609977324264	67	127
132.62	132.73609977324264	55	127
132.73609977324264	132.8057596371882	54	127
132.73609977324264	132.8057596371882	66	127
132.8057596371882	132.89861678004536	57	127
132.8057596371882	132.89861678004536	69	127
132.89861678004536	132.99151927437643	63	127
132.89861678004536	132.99151927437643	75	127
132.99151927437643	133.08439909297053	57	127
132.99151927437643	133.08439909297053	69	127
133.08439909297053	133.17727891156463	63	127
133.08439909297053	133.17727891156463	75	127
133.17727891156463	133.281768707483	57	127
133.17727891156463	133.281768707483	69	127
133.29337868480727	133.3746485260771	54	127
133.29337868480727	133.3746485260771	66	127
133.3746485260771	133.45589569160998	57	127
133.3746485260771	133.45589569160998	69	127
133.45589569160998	133.56038548752835	55	127
133.45589569160998	133.56038548752835	67	127
133.56038548752835	133.65328798185942	71	127
133.56038548752835	133.65328798185942	59	127
133.66487528344672	133.7577777777778	64	127
133.66487528344672	133.7577777777778	76	127
133.7577777777778	133.83904761904762	59	127
133.7577777777778	133.83904761904762	71	127
133.83904761904762	133.943537414966	69	127
133.83904761904762	133.943537414966	57	127
133.943537414966	134.0364172335601	72	127
133.943537414966	134.0364172335601	60	127
134.0364172335601	134.14090702947846	76	127
134.0364172335601	134.14090702947846	64	127
134.15251700680273	134.23378684807255	72	127
134.15251700680273	134.23378684807255	60	127
134.23378684807255	134.3266439909297	69	127
134.23378684807255	134.3266439909297	57	127
134.3266439909297	134.43113378684808	72	127
134.3266439909297	134.43113378684808	60	127
134.43113378684808	134.5356462585034	76	127
134.43113378684808	134.5356462585034	64	127
134.54725623582766	134.60530612244898	69	127
134.54725623582766	134.60530612244898	57	127
134.60530612244898	134.67496598639457	70	127
134.60530612244898	134.67496598639457	58	127
134.67496598639457	134.76784580498867	61	127
134.67496598639457	134.76784580498867	73	127
134.76784580498867	134.87233560090704	64	127
134.76784580498867	134.87233560090704	76	127
134.87233560090704	134.98843537414967	70	127
134.87233560090704	134.98843537414967	58	127
134.98843537414967	135.09290249433107	71	127
134.98843537414967	135.09290249433107	59	127
135.09290249433107	135.20902494331065	63	127
135.09290249433107	135.20902494331065	75	127
135.20902494331065	135.31351473922902	66	127
135.20902494331065	135.31351473922902	78	127
135.31351473922902	135.40639455782312	79	127
135.31351473922902	135.40639455782312	63	127
135.4180045351474	135.53410430839003	81	127
135.4180045351474	135.53410430839003	60	127
135.53410430839003	135.6385941043084	63	127
135.53410430839003	135.6385941043084	78	127
135.6385941043084	135.74308390022676	75	127
135.6385941043084	135.74308390022676	66	127
135.74308390022676	135.84757369614513	78	127
135.74308390022676	135.84757369614513	63	127
135.85916099773243	135.9636507936508	81	127
135.85916099773243	135.9636507936508	60	127
135.9636507936508	136.06814058956917	78	127
135.9636507936508	136.06814058956917	63	127
136.06814058956917	136.1378231292517	66	127
136.06814058956917	136.1378231292517	75	127
136.1378231292517	136.19587301587302	78	127
136.1378231292517	136.19587301587302	63	127
136.19587301587302	136.27714285714285	60	127
136.19587301587302	136.27714285714285	81	127
136.28875283446712	136.38163265306122	63	127
136.28875283446712	136.38163265306122	78	127
136.38163265306122	136.46290249433108	66	127
136.38163265306122	136.46290249433108	75	127
136.46290249433108	136.56739229024944	78	127
136.46290249433108	136.56739229024944	63	127
136.56739229024944	136.6718820861678	60	127
136.56739229024944	136.6718820861678	81	127
136.68349206349205	136.77637188208618	63	127
136.68349206349205	136.77637188208618	78	127
136.77637188208618	136.86925170068028	66	127
136.77637188208618	136.86925170068028	75	127
136.86925170068028	136.91569160997733	78	127
136.86925170068028	136.91569160997733	63	127
136.91569160997733	137.00857142857143	81	127
136.91569160997733	137.12467120181407	47	127
137.0201814058957	137.12467120181407	78	127
137.12467120181407	137.32204081632653	59	127
137.12467120181407	137.21755102040817	75	127
137.21755102040817	137.32204081632653	69	127
137.32204081632653	137.519410430839	52	127
137.32204081632653	137.41492063492063	79	127
137.41492063492063	137.50780045351473	76	127
137.519410430839	137.67034013605442	64	127
137.519410430839	137.57746031746032	71	127
137.57746031746032	137.67034013605442	76	127
137.67034013605442	137.76321995464852	79	127
137.67034013605442	137.85607709750568	46	127
137.76321995464852	137.84448979591838	76	127
137.85607709750568	138.03024943310658	58	127
137.85607709750568	137.960589569161	73	127
137.960589569161	138.06507936507936	67	127
138.06507936507936	138.15795918367348	47	127
138.06507936507936	138.22761904761904	66	127
138.15795918367348	138.2392290249433	51	127
138.2392290249433	138.34371882086168	54	127
138.34371882086168	138.44820861678005	51	127
138.44820861678005	138.55269841269842	69	127
138.44820861678005	138.55269841269842	48	127
138.55269841269842	138.6571882086168	66	127
138.55269841269842	138.6571882086168	51	127
138.6571882086168	138.76167800453516	63	127
138.6571882086168	138.76167800453516	54	127
138.77326530612245	138.87775510204082	51	127
138.77326530612245	138.87775510204082	66	127
138.87775510204082	138.9822448979592	69	127
138.87775510204082	138.9822448979592	48	127
138.9822448979592	139.05192743764172	66	127
138.9822448979592	139.05192743764172	51	127
139.05192743764172	139.14480725623582	63	127
139.05192743764172	139.14480725623582	54	127
139.1564172335601	139.26090702947846	66	127
139.1564172335601	139.26090702947846	51	127
139.26090702947846	139.36539682539683	48	127
139.26090702947846	139.36539682539683	69	127
139.36539682539683	139.43505668934242	51	127
139.36539682539683	139.43505668934242	66	127
139.43505668934242	139.5395238095238	63	127
139.43505668934242	139.5395238095238	54	127
139.5395238095238	139.63242630385488	66	127
139.5395238095238	139.63242630385488	51	127
139.64401360544218	139.74850340136055	48	127
139.64401360544218	139.74850340136055	69	127
139.74850340136055	139.7949433106576	51	127
139.74850340136055	139.7949433106576	66	127
139.7949433106576	139.86462585034013	63	127
139.7949433106576	139.86462585034013	54	127
139.86462585034013	139.9691156462585	66	127
139.86462585034013	139.9691156462585	51	127
139.98072562358277	140.1316553287982	35	127
139.98072562358277	140.0619954648526	69	127
140.0619954648526	140.16648526077097	66	127
140.16648526077097	140.30578231292517	47	127
140.16648526077097	140.25934240362812	63	127
140.25934240362812	140.34063492063493	57	127
140.3522448979592	140.4683446712018	67	127
140.3522448979592	140.5380045351474	40	127
140.4683446712018	140.54961451247166	64	127
140.54961451247166	140.6889342403628	52	127
140.54961451247166	140.61927437641722	59	127
140.61927437641722	140.7237641723356	64	127
140.7237641723356	140.8514739229025	34	127
140.7237641723356	140.79342403628118	67	127
140.80503401360545	140.88630385487528	64	127
140.88630385487528	140.96757369614514	61	127
140.88630385487528	141.0372335600907	46	127
140.96757369614514	141.07204081632653	55	127
141.07204081632653	141.21138321995466	54	127
141.07204081632653	141.15333333333334	35	127
141.1649433106576	141.24621315192744	42	127
141.24621315192744	141.3507029478458	47	127
141.3507029478458	141.45519274376417	42	127
141.45519274376417	141.54807256235827	46	127
141.54807256235827	141.6641723356009	49	127
141.6641723356009	141.757052154195	46	127
141.757052154195	141.86154195011338	42	127
141.86154195011338	141.95442176870748	35	127
141.95442176870748	142.02408163265306	42	127
142.03569160997733	142.1401814058957	47	127
142.1401814058957	142.18662131519275	42	127
142.18662131519275	142.27950113378685	46	127
142.27950113378685	142.38399092970522	49	127
142.3956009070295	142.46526077097505	46	127
142.46526077097505	142.56975056689342	42	127
142.56975056689342	142.6742403628118	35	127
142.6742403628118	142.7671201814059	42	127
142.7671201814059	142.84839002267574	47	127
142.86	142.94126984126984	42	127
142.94126984126984	143.0457596371882	46	127
143.0457596371882	143.12702947845804	49	127
143.12702947845804	143.2315192743764	46	127
143.24312925170068	143.34761904761905	42	127
143.34761904761905	143.45210884353742	35	127
143.45210884353742	143.54498866213152	42	127
143.54498866213152	143.62625850340137	47	127
143.63786848072561	143.74235827664398	42	127
143.74235827664398	143.84684807256235	46	127
143.84684807256235	143.95133786848072	49	127
143.95133786848072	143.99777777777777	46	127
143.99777777777777	144.07904761904763	42	127
144.09063492063493	144.1951247165533	35	127
144.1951247165533	144.28802721088437	42	127
144.28802721088437	144.39251700680273	47	127
144.39251700680273	144.4621768707483	42	127
144.47378684807256	144.56666666666666	35	127
144.56666666666666	144.64793650793652	39	127
144.64793650793652	144.74081632653062	42	127
144.74081632653062	144.83369614512472	47	127
144.83369614512472	144.92657596371882	35	127
144.92657596371882	145.0310657596372	39	127
145.0310657596372	145.1239455782313	42	127
145.1239455782313	145.20521541950114	47	127
145.20521541950114	145.29809523809524	35	127
145.29809523809524	145.37936507936507	39	127
145.37936507936507	145.48385487528344	42	127
145.48385487528344	145.5767120181406	47	127
145.5767120181406	145.6812244897959	35	127
145.69283446712018	145.78571428571428	39	127
145.78571428571428	145.89020408163265	42	127
145.89020408163265	145.9830612244898	47	127
145.9830612244898	146.08755102040817	83	127
145.9830612244898	146.08755102040817	35	127
146.08755102040817	146.18045351473924	78	127
146.08755102040817	146.18045351473924	39	127
146.19206349206348	146.2849433106576	76	127
146.19206349206348	146.2849433106576	42	127
146.2849433106576	146.4126530612245	47	127
146.2849433106576	146.4126530612245	75	127
146.4126530612245	146.5055328798186	83	127
146.4126530612245	146.5055328798186	35	127
146.5055328798186	146.61002267573696	78	127
146.5055328798186	146.61002267573696	39	127
146.62163265306123	146.70290249433106	42	127
146.62163265306123	146.70290249433106	76	127
146.70290249433106	146.85380952380953	47	127
146.70290249433106	146.85380952380953	75	127
146.85380952380953	146.99315192743765	35	127
146.85380952380953	146.99315192743765	83	127
146.99315192743765	147.10922902494332	78	127
146.99315192743765	147.10922902494332	39	127
147.12086167800453	147.23696145124717	76	127
147.12086167800453	147.23696145124717	42	127
147.23696145124717	147.34145124716554	47	127
147.23696145124717	147.34145124716554	75	127
147.34145124716554	148.7346485260771	35	127
147.34145124716554	147.538820861678	83	127
147.34145124716554	148.7346485260771	47	127
148.79267573696146	149.0016553287982	49	127
149.04809523809524	149.33836734693878	51	127
149.37319727891156	150.2439455782313	64	127
149.37319727891156	150.2439455782313	52	127
149.37319727891156	150.2439455782313	40	127
149.37319727891156	150.2439455782313	59	127
150.3019954648526	151.07986394557824	42	127
150.3019954648526	151.07986394557824	57	127
150.3019954648526	151.07986394557824	64	127
150.3019954648526	151.07986394557824	52	127
151.13791383219956	151.9390022675737	64	127
151.13791383219956	151.9390022675737	52	127
151.13791383219956	151.9390022675737	59	127
151.13791383219956	151.9390022675737	44	127
151.99705215419502	152.44984126984127	45	127
151.99705215419502	152.90263038548753	52	127
151.99705215419502	152.90263038548753	64	127
151.99705215419502	152.44984126984127	61	127
152.44984126984127	152.6936507936508	59	127
152.44984126984127	152.6936507936508	44	127
152.6936507936508	152.92585034013607	42	127
152.6936507936508	152.92585034013607	57	127
152.96068027210885	153.83142857142857	64	127
152.96068027210885	153.83142857142857	52	127
152.96068027210885	153.83142857142857	59	127
152.96068027210885	153.83142857142857	40	127
153.8894784580499	154.72537414965987	42	127
153.8894784580499	154.72537414965987	64	127
153.8894784580499	154.72537414965987	57	127
153.8894784580499	154.72537414965987	52	127
154.78344671201813	155.66580498866213	59	127
154.78344671201813	155.66580498866213	64	127
154.78344671201813	155.66580498866213	44	127
154.78344671201813	155.66580498866213	52	127
155.72385487528345	156.64104308390023	64	127
155.72385487528345	156.1766439909297	45	127
155.72385487528345	156.64104308390023	52	127
155.72385487528345	156.1766439909297	61	127
156.1766439909297	156.42045351473922	59	127
156.1766439909297	156.42045351473922	44	127
156.42045351473922	156.6526530612245	57	127
156.42045351473922	156.6526530612245	42	127
156.69909297052155	157.56984126984128	52	127
156.69909297052155	157.56984126984128	40	127
156.69909297052155	157.56984126984128	64	127
156.69909297052155	157.56984126984128	59	127
157.6394784580499	158.0458276643991	57	127
157.6394784580499	158.0458276643991	64	127
157.6394784580499	158.0458276643991	42	127
157.6394784580499	158.0458276643991	52	127
158.10390022675736	158.5334693877551	59	127
158.10390022675736	158.5334693877551	44	127
158.10390022675736	158.5334693877551	52	127
158.10390022675736	158.5334693877551	64	127
158.59151927437642	159.49709750566893	61	127
158.59151927437642	159.49709750566893	64	127
158.59151927437642	159.49709750566893	45	127
158.59151927437642	159.49709750566893	52	127
159.55514739229025	160.44909297052155	52	127
159.55514739229025	160.44909297052155	61	127
159.55514739229025	160.44909297052155	64	127
159.55514739229025	160.44909297052155	46	127
160.5071655328798	161.44757369614513	47	127
160.5071655328798	161.44757369614513	59	127
160.5071655328798	161.44757369614513	64	127
160.5071655328798	161.44757369614513	52	127
161.50562358276645	162.50408163265305	52	127
161.50562358276645	162.50408163265305	48	127
161.50562358276645	162.50408163265305	64	127
161.50562358276645	162.50408163265305	58	127
162.5969387755102	162.852358276644	54	127
162.5969387755102	162.852358276644	59	127
162.5969387755102	162.852358276644	63	127
162.5969387755102	162.852358276644	47	127
163.1542403628118	164.25718820861678	83	127
163.1542403628118	164.25718820861678	71	127
163.73473922902494	164.3384580498866	51	127
163.73473922902494	164.3384580498866	47	127
164.3384580498866	164.87251700680272	69	127
164.3384580498866	164.6287074829932	52	127
164.3384580498866	164.6287074829932	49	127
164.3384580498866	164.87251700680272	81	127
164.6287074829932	164.8957142857143	54	127
164.6287074829932	164.8957142857143	51	127
164.93056689342404	165.9522448979592	79	127
164.93056689342404	165.9522448979592	55	127
164.93056689342404	165.9522448979592	52	127
164.93056689342404	165.9522448979592	67	127
165.9522448979592	166.9507029478458	81	127
165.9522448979592	166.9507029478458	54	127
165.9522448979592	166.9507029478458	69	127
165.9522448979592	166.9507029478458	57	127
166.9507029478458	167.87950113378685	67	127
166.9507029478458	167.87950113378685	55	127
166.9507029478458	167.87950113378685	59	127
166.9507029478458	167.87950113378685	79	127
167.87950113378685	168.41356009070296	60	127
167.87950113378685	168.91278911564626	66	127
167.87950113378685	168.91278911564626	78	127
167.87950113378685	168.41356009070296	57	127
168.41356009070296	168.69219954648526	55	127
168.41356009070296	168.69219954648526	59	127
168.69219954648526	168.93598639455783	57	127
168.69219954648526	168.93598639455783	54	127
168.97083900226758	170.06215419501135	52	127
168.97083900226758	169.9692970521542	67	127
168.97083900226758	169.47006802721089	79	127
168.97083900226758	170.06215419501135	55	127
169.5281179138322	169.65582766439908	81	127
169.65582766439908	169.783537414966	79	127
169.783537414966	169.89963718820863	78	127
169.89963718820863	170.06215419501135	79	127
170.06215419501135	170.51496598639457	83	127
170.06215419501135	170.51496598639457	71	127
170.06215419501135	171.0374149659864	54	127
170.06215419501135	171.0374149659864	57	127
170.57299319727892	170.97934240362812	69	127
170.57299319727892	170.97934240362812	81	127
171.0374149659864	171.94299319727892	79	127
171.0374149659864	172.00102040816327	59	127
171.0374149659864	171.94299319727892	67	127
171.0374149659864	172.00102040816327	55	127
172.00102040816327	172.53510204081633	60	127
172.00102040816327	172.53510204081633	57	127
172.00102040816327	173.23167800453515	66	127
172.00102040816327	173.23167800453515	78	127
172.53510204081633	172.871768707483	59	127
172.53510204081633	172.871768707483	55	127
172.871768707483	173.24331065759637	57	127
172.871768707483	173.24331065759637	54	127
173.31297052154196	174.93836734693878	67	127
173.31297052154196	174.93836734693878	55	127
173.31297052154196	174.93836734693878	52	127
173.31297052154196	174.93836734693878	79	127
175.0892970521542	177.95696145124717	54	127
175.0892970521542	177.95696145124717	69	127
175.1821768707483	177.95696145124717	57	127
175.1821768707483	177.95696145124717	72	127
175.25183673469388	177.95696145124717	60	127
175.25183673469388	177.95696145124717	74	127
175.37954648526076	177.95696145124717	62	127
175.37954648526076	177.95696145124717	78	127
175.6233560090703	177.95696145124717	81	127
178.36331065759637	178.46780045351474	38	127
178.46780045351474	178.5722902494331	50	127
178.5722902494331	178.6651700680272	40	127
178.6651700680272	178.7464172335601	50	127
178.7464172335601	178.85090702947846	42	127
178.85090702947846	178.95539682539683	50	127
178.95539682539683	179.05990929705214	38	127
179.0715192743764	179.17600907029478	50	127
179.17600907029478	179.28049886621315	43	127
179.28049886621315	179.3965986394558	50	127
179.3965986394558	179.50108843537416	45	127
179.51269841269843	179.59396825396826	50	127
179.59396825396826	179.6752380952381	47	127
179.6752380952381	179.77972789115645	50	127
179.77972789115645	179.88421768707482	74	127
179.77972789115645	179.88421768707482	43	127
179.88421768707482	180.00031746031746	50	127
179.88421768707482	180.00031746031746	86	127
180.00031746031746	180.1164172335601	84	127
180.00031746031746	180.1164172335601	38	127
180.1164172335601	180.2092970521542	50	127
180.1164172335601	180.2092970521542	81	127
180.2092970521542	180.3021768707483	40	127
180.2092970521542	180.3021768707483	78	127
180.3021768707483	180.40666666666667	74	127
180.3021768707483	180.40666666666667	50	127
180.41827664399094	180.5227664399093	72	127
180.41827664399094	180.5227664399093	42	127
180.5227664399093	180.62725623582767	50	127
180.5227664399093	180.62725623582767	69	127
180.62725623582767	180.72013605442177	38	127
180.62725623582767	180.72013605442177	66	127
180.72013605442177	180.81301587301587	50	127
180.72013605442177	180.81301587301587	60	127
180.82462585034014	180.9291156462585	59	127
180.82462585034014	180.89426303854876	43	127
180.89426303854876	180.9639455782313	47	127
180.9639455782313	181.04521541950115	42	127
181.04521541950115	181.14968253968254	47	127
181.14968253968254	181.2077551020408	43	127
181.21936507936508	181.31224489795918	47	127
181.31224489795918	181.41673469387754	40	127
181.41673469387754	181.5212244897959	47	127
181.5212244897959	181.62571428571428	35	127
181.63732426303855	181.7534240362812	47	127
181.7534240362812	181.86950113378686	37	127
181.86950113378686	181.96240362811793	47	127
181.96240362811793	182.0668934240363	39	127
182.0668934240363	182.14816326530612	47	127
182.14816326530612	182.2526530612245	35	127
182.2526530612245	182.35714285714286	47	127
182.35714285714286	182.46163265306123	40	127
182.46163265306123	182.57773242630387	47	127
182.5893424036281	182.69383219954648	42	127
182.69383219954648	182.78668934240363	47	127
182.78668934240363	182.85637188208617	43	127
182.85637188208617	182.94925170068026	47	127
182.96086167800453	183.0653514739229	71	127
182.96086167800453	183.0653514739229	40	127
183.0653514739229	183.16984126984127	83	127
183.0653514739229	183.16984126984127	47	127
183.16984126984127	183.2511111111111	35	127
183.16984126984127	183.2511111111111	81	127
183.2511111111111	183.33238095238096	47	127
183.2511111111111	183.33238095238096	78	127
183.33238095238096	183.4484807256236	37	127
183.33238095238096	183.4484807256236	75	127
183.4484807256236	183.5413605442177	47	127
183.4484807256236	183.5413605442177	71	127
183.5413605442177	183.6342403628118	39	127
183.5413605442177	183.6342403628118	69	127
183.6342403628118	183.73873015873016	66	127
183.6342403628118	183.73873015873016	47	127
183.73873015873016	183.84321995464853	63	127
183.73873015873016	183.84321995464853	35	127
183.8548299319728	183.95931972789117	57	127
183.8548299319728	183.95931972789117	47	127
183.95931972789117	184.06378684807257	55	127
183.95931972789117	184.06378684807257	40	127
184.06378684807257	184.16827664399094	47	127
184.06378684807257	184.16827664399094	59	127
184.16827664399094	184.23795918367347	42	127
184.16827664399094	184.23795918367347	64	127
184.24956916099774	184.3540589569161	67	127
184.24956916099774	184.3540589569161	47	127
184.3540589569161	184.4469387755102	43	127
184.3540589569161	184.4469387755102	71	127
184.4469387755102	184.55142857142857	76	127
184.4469387755102	184.55142857142857	47	127
184.55142857142857	184.64430839002267	79	127
184.55142857142857	184.64430839002267	40	127
184.64430839002267	184.74879818594104	47	127
184.64430839002267	184.74879818594104	83	127
184.7604081632653	184.86489795918368	35	127
184.7604081632653	184.86489795918368	81	127
184.86489795918368	184.9461678004535	78	127
184.86489795918368	184.9461678004535	47	127
184.9461678004535	185.02743764172337	75	127
184.9461678004535	185.02743764172337	37	127
185.02743764172337	185.0854648526077	71	127
185.02743764172337	185.0854648526077	47	127
185.09709750566893	185.18995464852608	39	127
185.09709750566893	185.18995464852608	69	127
185.18995464852608	185.29444444444445	47	127
185.18995464852608	185.29444444444445	66	127
185.29444444444445	185.39895691609976	63	127
185.29444444444445	185.39895691609976	35	127
185.39895691609976	185.50344671201813	47	127
185.39895691609976	185.50344671201813	57	127
185.5150566893424	185.6079365079365	55	127
185.5150566893424	185.6079365079365	40	127
185.6079365079365	185.71242630385487	47	127
185.6079365079365	185.71242630385487	59	127
185.71242630385487	185.80528344671202	42	127
185.71242630385487	185.80528344671202	64	127
185.80528344671202	185.90979591836734	67	127
185.80528344671202	185.90979591836734	47	127
185.90979591836734	185.9910657596372	71	127
185.90979591836734	185.9910657596372	43	127
186.00267573696146	186.10714285714286	76	127
186.00267573696146	186.10714285714286	47	127
186.10714285714286	186.21163265306123	40	127
186.10714285714286	186.21163265306123	79	127
186.21163265306123	186.3161224489796	47	127
186.21163265306123	186.3161224489796	83	127
186.3161224489796	186.40902494331067	35	127
186.3161224489796	186.40902494331067	81	127
186.4206349206349	186.50190476190477	78	127
186.4206349206349	186.50190476190477	47	127
186.50190476190477	186.60639455782314	37	127
186.50190476190477	186.60639455782314	75	127
186.60639455782314	186.68766439909297	47	127
186.60639455782314	186.68766439909297	71	127
186.68766439909297	186.79215419501134	39	127
186.68766439909297	186.79215419501134	67	127
186.79215419501134	186.8966439909297	66	127
186.79215419501134	186.8966439909297	47	127
186.8966439909297	186.9778911564626	35	127
186.8966439909297	186.9778911564626	63	127
186.9778911564626	187.08238095238096	57	127
186.9778911564626	187.08238095238096	47	127
187.08238095238096	187.18687074829933	40	127
187.08238095238096	187.18687074829933	55	127
187.18687074829933	187.2797732426304	52	127
187.18687074829933	187.2797732426304	67	127
187.2797732426304	187.36104308390023	42	127
187.2797732426304	187.36104308390023	57	127
187.36104308390023	187.4655328798186	52	127
187.36104308390023	187.4655328798186	69	127
187.4655328798186	187.57002267573696	43	127
187.4655328798186	187.57002267573696	59	127
187.57002267573696	187.67451247165533	52	127
187.57002267573696	187.67451247165533	71	127
187.6861224489796	187.81383219954648	55	127
187.6861224489796	187.81383219954648	40	127
187.81383219954648	187.91832199546485	67	127
187.81383219954648	187.91832199546485	52	127
187.91832199546485	188.02281179138322	42	127
187.91832199546485	188.02281179138322	57	127
188.02281179138322	188.1273015873016	69	127
188.02281179138322	188.1273015873016	52	127
188.1273015873016	188.1853514739229	59	127
188.1273015873016	188.1853514739229	43	127
188.19696145124718	188.30145124716555	71	127
188.19696145124718	188.30145124716555	52	127
188.30145124716555	188.4059410430839	60	127
188.30145124716555	188.4059410430839	45	127
188.4059410430839	188.5104081632653	72	127
188.4059410430839	188.5104081632653	52	127
188.5104081632653	188.61489795918368	42	127
188.5104081632653	188.61489795918368	57	127
188.6265306122449	188.73102040816326	52	127
188.6265306122449	188.73102040816326	69	127
188.73102040816326	188.83551020408163	44	127
188.73102040816326	188.83551020408163	59	127
188.83551020408163	188.94	71	127
188.83551020408163	188.94	52	127
188.94	189.04448979591837	60	127
188.94	189.04448979591837	45	127
189.05609977324264	189.13736961451247	72	127
189.05609977324264	189.13736961451247	52	127
189.13736961451247	189.24185941043083	62	127
189.13736961451247	189.24185941043083	47	127
189.24185941043083	189.3463492063492	74	127
189.24185941043083	189.3463492063492	52	127
189.3463492063492	189.45083900226757	44	127
189.3463492063492	189.45083900226757	59	127
189.45083900226757	189.55532879818594	52	127
189.45083900226757	189.55532879818594	71	127
189.55532879818594	189.63657596371883	45	127
189.55532879818594	189.63657596371883	60	127
189.63657596371883	189.7410657596372	52	127
189.63657596371883	189.7410657596372	72	127
189.7410657596372	189.8455782312925	63	127
189.7410657596372	189.8455782312925	47	127
189.8455782312925	189.93845804988663	75	127
189.8455782312925	189.93845804988663	52	127
189.93845804988663	190.042947845805	48	127
189.93845804988663	190.042947845805	64	127
190.042947845805	190.1474149659864	76	127
190.042947845805	190.1474149659864	52	127
190.1474149659864	190.2519274376417	66	127
190.1474149659864	190.2519274376417	51	127
190.2519274376417	190.35641723356008	52	127
190.2519274376417	190.35641723356008	78	127
190.35641723356008	190.5421768707483	79	127
190.35641723356008	190.47251700680272	52	127
190.35641723356008	190.5421768707483	67	127
190.47251700680272	190.5770068027211	64	127
190.5770068027211	190.68149659863946	54	127
190.68149659863946	190.77437641723355	64	127
190.77437641723355	190.87886621315192	55	127
190.77437641723355	191.35487528344672	76	127
190.77437641723355	191.35487528344672	88	127
190.8904761904762	190.99496598639456	64	127
190.99496598639456	191.09945578231293	52	127
191.09945578231293	191.2039455782313	64	127
191.2039455782313	191.2968253968254	54	127
191.30843537414967	191.3897052154195	64	127
191.3897052154195	191.4825850340136	55	127
191.4825850340136	191.58707482993196	64	127
191.58707482993196	191.67995464852606	57	127
191.58707482993196	192.1791836734694	76	127
191.58707482993196	192.1791836734694	88	127
191.67995464852606	191.7728344671202	64	127
191.78444444444443	191.8889342403628	54	127
191.8889342403628	191.99342403628117	64	127
191.99342403628117	192.09791383219954	56	127
192.09791383219954	192.2024036281179	64	127
192.21401360544218	192.31850340136054	57	127
192.31850340136054	192.39977324263037	64	127
192.39977324263037	193.1544217687075	88	127
192.39977324263037	192.50426303854874	59	127
192.39977324263037	193.1544217687075	76	127
192.50426303854874	192.59714285714287	64	127
192.6087528344671	192.71324263038548	59	127
192.71324263038548	192.80612244897958	64	127
192.80612244897958	192.91061224489795	62	127
192.91061224489795	193.00349206349208	64	127
193.00349206349208	193.10798185941044	59	127
193.11959183673468	193.21247165532878	64	127
193.21247165532878	193.37501133786847	88	127
193.21247165532878	193.37501133786847	76	127
193.21247165532878	193.3053514739229	56	127
193.3053514739229	193.40984126984128	64	127
193.40984126984128	193.57238095238094	88	127
193.40984126984128	193.57238095238094	76	127
193.40984126984128	193.51433106575965	59	127
193.5259410430839	193.60721088435375	64	127
193.60721088435375	193.71170068027212	62	127
193.71170068027212	193.81619047619049	64	127
193.81619047619049	193.92068027210885	59	127
193.92068027210885	194.02517006802722	64	127
194.02517006802722	194.1296598639456	56	127
194.02517006802722	194.19931972789115	88	127
194.02517006802722	194.19931972789115	76	127
194.1296598639456	194.23414965986396	64	127
194.23414965986396	194.4082993197279	76	127
194.23414965986396	194.32702947845806	59	127
194.23414965986396	194.4082993197279	88	127
194.32702947845806	194.44312925170067	64	127
194.45473922902494	194.5592290249433	62	127
194.45473922902494	194.6288888888889	76	127
194.45473922902494	194.6288888888889	88	127
194.5592290249433	194.66371882086167	64	127
194.66371882086167	194.83786848072563	88	127
194.66371882086167	194.83786848072563	76	127
194.66371882086167	194.76820861678004	59	127
194.76820861678004	194.8726984126984	64	127
194.88430839002268	195.0352380952381	88	127
194.88430839002268	195.0352380952381	76	127
194.88430839002268	194.98879818594105	57	127
194.98879818594105	195.07006802721088	64	127
195.07006802721088	195.16294784580498	56	127
195.07006802721088	195.23260770975057	76	127
195.07006802721088	195.23260770975057	88	127
195.16294784580498	195.26743764172335	64	127
195.26743764172335	195.36031746031745	62	127
195.26743764172335	195.36031746031745	77	127
195.38353741496599	195.48802721088435	89	127
195.38353741496599	195.48802721088435	64	127
195.48802721088435	195.58090702947845	74	127
195.48802721088435	195.58090702947845	59	127
195.58090702947845	195.67378684807255	86	127
195.58090702947845	195.67378684807255	64	127
195.67378684807255	195.77827664399092	71	127
195.67378684807255	195.77827664399092	56	127
195.7898866213152	195.89437641723356	83	127
195.7898866213152	195.89437641723356	64	127
195.89437641723356	195.99886621315193	74	127
195.89437641723356	195.99886621315193	59	127
195.99886621315193	196.1033560090703	86	127
195.99886621315193	196.1033560090703	64	127
196.1033560090703	196.1962358276644	77	127
196.1033560090703	196.1962358276644	62	127
196.1962358276644	196.31233560090703	89	127
196.1962358276644	196.31233560090703	64	127
196.31233560090703	196.40521541950113	74	127
196.31233560090703	196.40521541950113	59	127
196.40521541950113	196.49809523809523	64	127
196.40521541950113	196.49809523809523	86	127
196.49809523809523	196.59097505668933	57	127
196.49809523809523	196.59097505668933	72	127
196.59097505668933	196.6954648526077	64	127
196.59097505668933	196.6954648526077	84	127
196.70707482993197	196.81156462585034	56	127
196.70707482993197	196.81156462585034	71	127
196.81156462585034	196.9160544217687	83	127
196.81156462585034	196.9160544217687	64	127
196.9160544217687	197.02054421768707	72	127
196.9160544217687	197.02054421768707	48	127
197.02054421768707	197.12503401360544	84	127
197.02054421768707	197.12503401360544	60	127
197.1366439909297	197.2295238095238	45	127
197.1366439909297	197.2295238095238	69	127
197.2295238095238	197.33401360544218	81	127
197.2295238095238	197.33401360544218	57	127
197.33401360544218	197.43850340136055	43	127
197.33401360544218	197.43850340136055	67	127
197.43850340136055	197.54299319727892	55	127
197.43850340136055	197.54299319727892	79	127
197.54299319727892	197.65909297052156	42	127
197.54299319727892	197.65909297052156	66	127
197.65909297052156	197.7635827664399	54	127
197.65909297052156	197.7635827664399	78	127
197.7635827664399	197.86807256235826	69	127
197.7635827664399	197.86807256235826	45	127
197.86807256235826	197.97256235827663	57	127
197.86807256235826	197.97256235827663	81	127
197.97256235827663	198.077052154195	66	127
197.97256235827663	198.077052154195	42	127
198.08866213151927	198.16993197278913	54	127
198.08866213151927	198.16993197278913	78	127
198.16993197278913	198.26281179138323	64	127
198.16993197278913	198.26281179138323	40	127
198.26281179138323	198.35569160997733	52	127
198.26281179138323	198.35569160997733	76	127
198.35569160997733	198.4601814058957	39	127
198.35569160997733	198.4601814058957	63	127
198.47179138321997	198.57628117913833	75	127
198.47179138321997	198.57628117913833	51	127
198.57628117913833	198.6807709750567	40	127
198.57628117913833	198.6807709750567	64	127
198.6807709750567	198.78526077097504	52	127
198.6807709750567	198.78526077097504	76	127
198.78526077097504	198.90136054421768	60	127
198.78526077097504	198.90136054421768	36	127
198.90136054421768	198.99424036281178	48	127
198.90136054421768	198.99424036281178	72	127
199.00585034013605	199.11034013605442	35	127
199.00585034013605	199.11034013605442	59	127
199.11034013605442	199.2148299319728	47	127
199.11034013605442	199.2148299319728	71	127
199.2148299319728	199.31931972789116	34	127
199.2148299319728	199.31931972789116	58	127
199.31931972789116	199.42380952380952	70	127
199.31931972789116	199.42380952380952	46	127
199.4354195011338	199.57473922902494	35	127
199.4354195011338	199.57473922902494	59	127
199.57473922902494	199.69083900226758	47	127
199.57473922902494	199.69083900226758	71	127
199.69083900226758	199.79532879818595	58	127
199.69083900226758	199.79532879818595	34	127
199.79532879818595	199.89981859410432	70	127
199.79532879818595	199.89981859410432	46	127
199.89981859410432	200.0275283446712	35	127
199.89981859410432	200.0275283446712	59	127
200.0275283446712	200.13201814058957	47	127
200.0275283446712	200.13201814058957	71	127
200.13201814058957	200.3177777777778	47	127
200.13201814058957	200.3177777777778	35	127
200.13201814058957	200.2481179138322	63	127
200.2481179138322	200.37582766439908	75	127
200.37582766439908	200.60802721088436	52	127
200.37582766439908	200.80539682539683	64	127
200.37582766439908	200.60802721088436	40	127
200.37582766439908	200.80539682539683	76	127
200.64285714285714	200.8170068027211	59	127
200.64285714285714	200.8170068027211	55	127
200.85183673469388	201.1536961451247	76	127
200.85183673469388	201.1536961451247	64	127
200.85183673469388	201.02598639455783	55	127
200.85183673469388	201.02598639455783	59	127
201.07242630385488	201.2465759637188	55	127
201.07242630385488	201.2465759637188	59	127
201.17691609977325	201.29301587301586	63	127
201.17691609977325	201.29301587301586	75	127
201.29301587301586	202.02444444444444	76	127
201.29301587301586	202.02444444444444	64	127
201.29301587301586	201.5019954648526	52	127
201.29301587301586	201.5019954648526	40	127
201.51360544217687	201.68775510204082	59	127
201.51360544217687	201.68775510204082	55	127
201.7225850340136	201.91995464852607	55	127
201.7225850340136	201.91995464852607	59	127
201.95478458049885	202.1289342403628	59	127
201.95478458049885	202.1289342403628	55	127
202.0708843537415	202.1637641723356	63	127
202.0708843537415	202.1637641723356	75	127
202.1637641723356	202.32630385487528	40	127
202.1637641723356	202.89519274376417	64	127
202.1637641723356	202.32630385487528	52	127
202.1637641723356	202.89519274376417	76	127
202.37274376417233	202.55850340136055	59	127
202.37274376417233	202.55850340136055	55	127
202.58172335600906	202.7674829931973	55	127
202.58172335600906	202.7674829931973	59	127
202.80231292517007	203.0112925170068	55	127
202.80231292517007	203.0112925170068	59	127
202.9184126984127	203.0461224489796	78	127
202.9184126984127	203.0461224489796	66	127
203.0461224489796	203.20866213151928	67	127
203.0461224489796	203.20866213151928	52	127
203.0461224489796	203.20866213151928	79	127
203.24349206349206	203.40603174603174	55	127
203.24349206349206	203.40603174603174	59	127
203.3595918367347	203.44086167800452	82	127
203.3595918367347	203.44086167800452	70	127
203.44086167800452	203.61501133786848	52	127
203.44086167800452	203.61501133786848	83	127
203.44086167800452	203.61501133786848	71	127
203.64984126984126	203.82399092970522	59	127
203.64984126984126	203.82399092970522	55	127
203.7427210884354	203.858820861678	75	127
203.7427210884354	203.858820861678	87	127
203.858820861678	203.90526077097505	52	127
203.858820861678	204.63668934240363	76	127
203.858820861678	204.63668934240363	88	127
204.06780045351474	204.2419501133787	67	127
204.06780045351474	204.2419501133787	64	127
204.2651700680272	204.43931972789116	59	127
204.47414965986394	204.6482993197279	67	127
204.47414965986394	204.6482993197279	64	127
204.70634920634922	204.90371882086168	86	127
204.70634920634922	204.90371882086168	74	127
204.70634920634922	204.86888888888888	45	127
204.90371882086168	204.961768707483	85	127
204.90371882086168	204.961768707483	73	127
204.90371882086168	205.0778684807256	64	127
204.90371882086168	205.0778684807256	67	127
205.11269841269842	205.17074829931974	83	127
205.11269841269842	205.29845804988662	57	127
205.11269841269842	205.17074829931974	71	127
205.3332879818594	205.39133786848072	85	127
205.3332879818594	205.39133786848072	73	127
205.3332879818594	205.51904761904763	64	127
205.3332879818594	205.51904761904763	67	127
205.5538775510204	205.94861678004534	86	127
205.5538775510204	205.61192743764173	50	127
205.5538775510204	205.94861678004534	74	127
205.78607709750568	205.9602267573696	62	127
205.78607709750568	205.9602267573696	65	127
205.9950566893424	206.35496598639455	81	127
205.9950566893424	206.16920634920635	57	127
205.9950566893424	206.35496598639455	69	127
206.20403628117913	206.37818594104309	62	127
206.20403628117913	206.37818594104309	65	127
206.42462585034014	206.5987755102041	43	127
206.42462585034014	206.5987755102041	83	127
206.6219954648526	206.79614512471656	65	127
206.6219954648526	206.79614512471656	62	127
206.6219954648526	206.6916553287982	84	127
206.6916553287982	206.76131519274375	83	127
206.76131519274375	206.83097505668934	84	127
206.83097505668934	206.9702947845805	55	127
206.83097505668934	206.88902494331066	83	127
206.88902494331066	206.9354648526077	84	127
206.9354648526077	207.01673469387754	83	127
207.0283446712018	207.20249433106576	65	127
207.0283446712018	207.20249433106576	62	127
207.0283446712018	207.13283446712018	81	127
207.13283446712018	207.22571428571428	83	127
207.22571428571428	207.9803628117914	84	127
207.22571428571428	207.9803628117914	72	127
207.22571428571428	207.2837641723356	48	127
207.39986394557823	207.58562358276643	60	127
207.39986394557823	207.58562358276643	64	127
207.62045351473924	207.79460317460317	55	127
207.82943310657598	208.0035827664399	64	127
207.82943310657598	208.0035827664399	60	127
208.03841269841269	208.24739229024942	71	127
208.03841269841269	208.24739229024942	83	127
208.03841269841269	208.21256235827664	48	127
208.24739229024942	208.43315192743765	60	127
208.24739229024942	208.30544217687074	69	127
208.24739229024942	208.30544217687074	81	127
208.24739229024942	208.43315192743765	64	127
208.46798185941043	208.6421315192744	57	127
208.46798185941043	208.51442176870748	68	127
208.46798185941043	208.51442176870748	80	127
208.67696145124717	208.73501133786849	69	127
208.67696145124717	208.73501133786849	81	127
208.67696145124717	208.86272108843536	60	127
208.67696145124717	208.86272108843536	64	127
208.89755102040817	209.0717006802721	47	127
208.89755102040817	209.26907029478457	71	127
208.89755102040817	209.26907029478457	76	127
208.89755102040817	209.26907029478457	83	127
209.1065306122449	209.2922902494331	59	127
209.3271201814059	209.6986394557823	76	127
209.3271201814059	209.50126984126985	55	127
209.3271201814059	209.6986394557823	64	127
209.53609977324263	209.71024943310658	52	127
209.75668934240363	210.08176870748298	78	127
209.75668934240363	209.90761904761905	47	127
209.75668934240363	210.08176870748298	66	127
209.94244897959183	210.09337868480725	45	127
210.12820861678006	210.49972789115645	71	127
210.12820861678006	210.49972789115645	59	127
210.12820861678006	210.29074829931972	43	127
210.32557823129252	210.51133786848072	42	127
210.5461678004535	210.743537414966	40	127
210.5461678004535	210.65065759637187	64	127
210.5461678004535	210.65065759637187	76	127
210.6738775510204	210.77836734693878	59	127
210.77836734693878	210.90607709750566	64	127
210.90607709750566	211.0221768707483	59	127
210.90607709750566	211.0221768707483	39	127
211.0221768707483	211.12666666666667	55	127
211.0221768707483	211.69555555555556	40	127
211.12666666666667	211.2427664399093	59	127
211.2427664399093	211.34725623582767	64	127
211.34725623582767	211.4285260770975	59	127
211.4285260770975	211.53301587301587	55	127
211.53301587301587	211.61428571428573	59	127
211.62589569160997	211.7419954648526	64	127
211.7419954648526	211.84648526077098	39	127
211.7419954648526	211.84648526077098	59	127
211.84648526077098	212.55469387755102	40	127
211.84648526077098	211.95097505668934	55	127
211.95097505668934	212.04385487528344	59	127
212.0554648526077	212.15995464852608	64	127
212.15995464852608	212.26444444444445	59	127
212.26444444444445	212.36893424036282	55	127
212.36893424036282	212.4734240362812	59	127
212.4734240362812	212.57791383219956	64	127
212.5895238095238	212.68240362811792	59	127
212.5895238095238	212.68240362811792	39	127
212.68240362811792	212.9378231292517	40	127
212.68240362811792	212.76367346938775	55	127
212.76367346938775	212.85655328798185	59	127
212.85655328798185	212.96104308390022	64	127
212.9726530612245	213.07714285714286	42	127
212.9726530612245	213.07714285714286	59	127
213.07714285714286	213.23968253968255	43	127
213.07714285714286	213.17002267573696	55	127
213.17002267573696	213.27451247165533	59	127
213.27451247165533	213.36739229024943	64	127
213.3790022675737	213.4718820861678	59	127
213.3790022675737	213.4718820861678	46	127
213.4718820861678	213.5647619047619	55	127
213.4718820861678	213.63442176870748	47	127
213.5647619047619	213.68086167800453	59	127
213.68086167800453	213.73891156462585	64	127
213.73891156462585	213.83179138321995	59	127
213.73891156462585	213.84340136054422	51	127
213.84340136054422	214.64448979591836	52	127
213.84340136054422	213.9478911564626	55	127
213.9478911564626	214.05238095238096	59	127
214.05238095238096	214.15687074829933	64	127
214.15687074829933	214.2613605442177	59	127
214.27297052154196	214.3774603174603	55	127
214.3774603174603	214.48195011337867	59	127
214.48195011337867	214.58643990929704	64	127
214.58643990929704	214.6909297052154	59	127
214.6909297052154	215.45718820861677	45	127
214.6909297052154	214.9231292517007	50	127
214.6909297052154	214.81863945578232	55	127
214.81863945578232	214.9231292517007	57	127
214.9231292517007	214.981179138322	48	127
214.9231292517007	215.02761904761905	64	127
215.02761904761905	215.12049886621315	57	127
215.12049886621315	215.21337868480725	55	127
215.12049886621315	215.17854875283447	47	127
215.22498866213152	215.3294784580499	57	127
215.3294784580499	215.39913832199545	64	127
215.3294784580499	215.37591836734694	48	127
215.39913832199545	215.50362811791382	57	127
215.50362811791382	215.6081179138322	53	127
215.50362811791382	215.67777777777778	38	127
215.50362811791382	215.86353741496598	50	127
215.6081179138322	215.71260770975056	57	127
215.71260770975056	215.81709750566893	62	127
215.81709750566893	215.90997732426302	55	127
215.90997732426302	216.0144671201814	53	127
215.90997732426302	216.26988662131518	45	127
216.0144671201814	216.11895691609976	62	127
216.13056689342403	216.2350566893424	57	127
216.2350566893424	216.31632653061226	62	127
216.31632653061226	216.33954648526077	31	127
216.31632653061226	216.4208163265306	53	127
216.33954648526077	216.52530612244897	47	127
216.4208163265306	216.52530612244897	55	127
216.53691609977324	216.59496598639456	48	127
216.53691609977324	216.62979591836734	62	127
216.59496598639456	216.66462585034014	47	127
216.62979591836734	216.7342857142857	55	127
216.66462585034014	216.7342857142857	48	127
216.7342857142857	216.8039455782313	47	127
216.7342857142857	216.83877551020407	53	127
216.8039455782313	216.88521541950112	48	127
216.83877551020407	216.9548752834467	55	127
216.88521541950112	216.9548752834467	47	127
216.96648526077098	217.07097505668935	45	127
216.96648526077098	217.07097505668935	62	127
217.07097505668935	217.17546485260772	47	127
217.07097505668935	217.17546485260772	55	127
217.17546485260772	217.90689342403627	48	127
217.17546485260772	217.90689342403627	36	127
217.17546485260772	217.29156462585033	52	127
217.29156462585033	217.38444444444445	55	127
217.38444444444445	217.47732426303855	60	127
217.48893424036282	217.58181405895692	55	127
217.58181405895692	217.6863038548753	52	127
217.6863038548753	217.75596371882085	55	127
217.75596371882085	217.86045351473922	60	127
217.8720634920635	217.9649433106576	64	127
217.9649433106576	218.06943310657596	54	127
217.9649433106576	218.17392290249433	35	127
217.9649433106576	218.17392290249433	47	127
218.06943310657596	218.17392290249433	60	127
218.17392290249433	218.23197278911564	33	127
218.17392290249433	218.23197278911564	45	127
218.17392290249433	218.2784126984127	64	127
218.2784126984127	218.4061224489796	60	127
218.4061224489796	218.45256235827665	31	127
218.4061224489796	218.51061224489797	54	127
218.4061224489796	218.45256235827665	43	127
218.51061224489797	218.61510204081634	60	127
218.61510204081634	218.67315192743763	45	127
218.61510204081634	218.67315192743763	33	127
218.61510204081634	218.7195918367347	64	127
218.7195918367347	218.82408163265305	60	127
218.83569160997732	219.19560090702947	47	127
218.83569160997732	219.19560090702947	35	127
218.83569160997732	218.9401814058957	54	127
218.9401814058957	219.03306122448978	59	127
219.03306122448978	219.13755102040815	63	127
219.13755102040815	219.24204081632652	59	127
219.2536507936508	219.5903401360544	40	127
219.2536507936508	219.35814058956916	55	127
219.35814058956916	219.45102040816326	59	127
219.45102040816326	219.55551020408163	64	127
219.55551020408163	219.6367800453515	59	127
219.6367800453515	219.74126984126985	57	127
219.6367800453515	220.00829931972788	42	127
219.7528798185941	219.8457596371882	59	127
219.8457596371882	219.95024943310656	64	127
219.95024943310656	220.05473922902493	59	127
220.05473922902493	220.1592290249433	54	127
220.05473922902493	220.24049886621316	35	127
220.17083900226757	220.27532879818594	59	127
220.27532879818594	220.3798185941043	63	127
220.27532879818594	220.43786848072563	33	127
220.3798185941043	220.4726984126984	59	127
220.4726984126984	220.64684807256236	31	127
220.4726984126984	220.5655782312925	55	127
220.57718820861678	220.68167800453514	59	127
220.68167800453514	220.79777777777778	64	127
220.68167800453514	220.86743764172334	43	127
220.79777777777778	220.90226757369615	67	127
220.90226757369615	221.06480725623584	43	127
220.90226757369615	220.99514739229025	59	127
220.99514739229025	221.07641723356008	64	127
221.07641723356008	221.1692970521542	67	127
221.07641723356008	221.23895691609977	43	127
221.1692970521542	221.2621768707483	71	127
221.2621768707483	221.3550566893424	57	127
221.2621768707483	221.424716553288	36	127
221.3550566893424	221.45954648526077	64	127
221.47115646258504	221.62208616780046	48	127
221.47115646258504	221.56403628117914	69	127
221.56403628117914	221.65691609977324	64	127
221.65691609977324	221.7614058956916	57	127
221.65691609977324	221.81945578231293	48	127
221.7614058956916	221.8542857142857	64	127
221.8542857142857	221.97038548752835	69	127
221.8542857142857	222.02843537414967	48	127
221.97038548752835	222.05165532879818	60	127
222.05165532879818	222.15614512471655	59	127
222.05165532879818	222.22580498866213	35	127
222.15614512471655	222.2606349206349	64	127
222.2606349206349	222.44639455782314	47	127
222.2606349206349	222.36512471655328	67	127
222.37673469387755	222.48122448979592	64	127
222.48122448979592	222.59732426303856	59	127
222.48122448979592	222.66698412698412	47	127
222.59732426303856	222.70181405895693	64	127
222.70181405895693	222.85274376417235	47	127
222.70181405895693	222.8063038548753	67	127
222.81791383219954	222.88757369614513	64	127
222.88757369614513	223.00367346938776	59	127
222.88757369614513	223.07333333333332	33	127
223.00367346938776	223.10816326530613	64	127
223.10816326530613	223.25909297052155	45	127
223.10816326530613	223.20104308390023	66	127
223.20104308390023	223.28231292517006	64	127
223.29392290249433	223.3984126984127	59	127
223.29392290249433	223.47968253968253	45	127
223.3984126984127	223.51451247165534	63	127
223.51451247165534	223.7118820861678	45	127
223.51451247165534	223.63061224489795	66	127
223.63061224489795	223.73510204081632	63	127
223.74671201814058	223.85120181405895	31	127
223.74671201814058	223.85120181405895	59	127
223.85120181405895	223.94408163265305	43	127
223.85120181405895	223.94408163265305	71	127
223.94408163265305	224.04857142857142	43	127
223.94408163265305	224.04857142857142	71	127
224.04857142857142	224.14145124716552	83	127
224.04857142857142	224.14145124716552	55	127
224.1530612244898	224.25755102040816	71	127
224.1530612244898	224.25755102040816	43	127
224.25755102040816	224.36204081632653	83	127
224.25755102040816	224.36204081632653	55	127
224.36204081632653	224.47814058956916	43	127
224.36204081632653	224.47814058956916	71	127
224.47814058956916	224.58263038548753	55	127
224.47814058956916	224.58263038548753	83	127
224.58263038548753	224.6871201814059	71	127
224.58263038548753	224.6871201814059	36	127
224.69873015873017	224.80321995464854	83	127
224.69873015873017	224.80321995464854	48	127
224.80321995464854	224.90770975056688	69	127
224.80321995464854	224.90770975056688	48	127
224.90770975056688	225.01219954648525	60	127
224.90770975056688	225.01219954648525	81	127
225.01219954648525	225.11668934240362	67	127
225.01219954648525	225.11668934240362	48	127
225.1282993197279	225.221179138322	79	127
225.1282993197279	225.221179138322	60	127
225.221179138322	225.32566893424035	48	127
225.221179138322	225.32566893424035	69	127
225.32566893424035	225.3721088435374	81	127
225.32566893424035	225.3721088435374	60	127
225.3721088435374	225.47659863945577	47	127
225.3721088435374	225.47659863945577	71	127
225.47659863945577	225.58108843537414	83	127
225.47659863945577	225.58108843537414	59	127
225.58108843537414	225.6855782312925	71	127
225.58108843537414	225.6855782312925	55	127
225.6855782312925	225.79006802721088	83	127
225.6855782312925	225.79006802721088	52	127
225.79006802721088	225.89455782312925	47	127
225.79006802721088	225.89455782312925	64	127
225.89455782312925	225.99904761904762	76	127
225.89455782312925	225.99904761904762	43	127
226.01065759637189	226.11514739229025	40	127
226.01065759637189	226.11514739229025	64	127
226.11514739229025	226.21963718820862	43	127
226.11514739229025	226.21963718820862	76	127
226.21963718820862	226.324126984127	66	127
226.21963718820862	226.324126984127	35	127
226.324126984127	226.40539682539682	78	127
226.324126984127	226.40539682539682	47	127
226.4170068027211	226.48666666666668	66	127
226.4170068027211	226.48666666666668	33	127
226.48666666666668	226.57954648526078	45	127
226.48666666666668	226.57954648526078	78	127
226.57954648526078	226.67242630385488	31	127
226.57954648526078	226.67242630385488	59	127
226.67242630385488	226.77691609977325	43	127
226.67242630385488	226.77691609977325	71	127
226.77691609977325	226.8814058956916	59	127
226.77691609977325	226.8814058956916	30	127
226.89301587301588	227.0091156462585	71	127
226.89301587301588	227.0091156462585	42	127
227.0091156462585	227.11360544217686	64	127
227.0091156462585	227.11360544217686	40	127
227.11360544217686	227.21809523809523	76	127
227.11360544217686	227.21809523809523	52	127
227.21809523809523	227.3225850340136	75	127
227.21809523809523	227.3225850340136	51	127
227.33419501133787	227.46190476190475	76	127
227.33419501133787	227.46190476190475	52	127
227.46190476190475	227.56639455782312	64	127
227.46190476190475	227.56639455782312	40	127
227.56639455782312	227.68249433106575	76	127
227.56639455782312	227.68249433106575	52	127
227.68249433106575	227.75215419501134	66	127
227.68249433106575	227.75215419501134	42	127
227.75215419501134	227.83342403628117	52	127
227.75215419501134	227.83342403628117	76	127
227.83342403628117	227.93791383219954	43	127
227.83342403628117	227.93791383219954	67	127
227.93791383219954	228.0191836734694	52	127
227.93791383219954	228.0191836734694	76	127
228.0191836734694	228.1120634920635	66	127
228.0191836734694	228.1120634920635	42	127
228.1120634920635	228.21655328798187	76	127
228.1120634920635	228.21655328798187	52	127
228.21655328798187	228.30943310657597	67	127
228.21655328798187	228.30943310657597	43	127
228.30943310657597	228.41392290249433	76	127
228.30943310657597	228.41392290249433	52	127
228.41392290249433	228.5184126984127	64	127
228.41392290249433	228.5184126984127	40	127
228.5184126984127	228.65773242630385	52	127
228.5184126984127	228.65773242630385	76	127
228.66934240362812	228.8667120181406	39	127
228.66934240362812	228.8667120181406	42	127
228.66934240362812	228.8667120181406	35	127
228.66934240362812	228.8667120181406	71	127
228.66934240362812	228.8667120181406	66	127
228.66934240362812	228.8667120181406	63	127
228.66934240362812	228.8667120181406	59	127
228.66934240362812	228.8667120181406	47	127
229.47043083900226	229.64458049886622	75	127
229.47043083900226	229.64458049886622	71	127
229.47043083900226	229.64458049886622	78	127
229.47043083900226	229.64458049886622	83	127
229.47043083900226	229.64458049886622	47	127
229.47043083900226	229.64458049886622	51	127
229.47043083900226	229.64458049886622	54	127
229.47043083900226	229.64458049886622	59	127
230.22507936507935	230.31795918367348	40	127
230.22507936507935	230.31795918367348	64	127
230.31795918367348	230.41083900226758	52	127
230.31795918367348	230.41083900226758	76	127
230.42244897959185	230.51532879818595	51	127
230.42244897959185	230.51532879818595	75	127
230.51532879818595	230.59659863945578	76	127
230.51532879818595	230.59659863945578	52	127
230.59659863945578	230.68947845804988	64	127
230.59659863945578	230.68947845804988	40	127
230.68947845804988	230.79396825396825	76	127
230.68947845804988	230.79396825396825	52	127
230.80557823129251	230.91006802721088	66	127
230.80557823129251	230.91006802721088	42	127
230.91006802721088	231.01455782312925	76	127
230.91006802721088	231.01455782312925	52	127
231.01455782312925	231.09582766439908	67	127
231.01455782312925	231.09582766439908	43	127
231.09582766439908	231.1887074829932	76	127
231.09582766439908	231.1887074829932	52	127
231.1887074829932	231.30480725623582	66	127
231.1887074829932	231.30480725623582	42	127
231.30480725623582	231.42090702947846	76	127
231.30480725623582	231.42090702947846	52	127
231.42090702947846	231.52539682539683	67	127
231.42090702947846	231.52539682539683	43	127
231.52539682539683	231.6298866213152	76	127
231.52539682539683	231.6298866213152	52	127
231.6298866213152	231.73437641723356	64	127
231.6298866213152	231.73437641723356	40	127
231.74598639455783	231.86208616780044	76	127
231.74598639455783	231.86208616780044	52	127
231.86208616780044	232.05945578231294	42	127
231.86208616780044	232.05945578231294	59	127
231.86208616780044	232.05945578231294	63	127
231.86208616780044	232.05945578231294	66	127
231.86208616780044	232.05945578231294	71	127
231.86208616780044	232.05945578231294	35	127
231.86208616780044	232.05945578231294	39	127
231.86208616780044	232.05945578231294	47	127
232.55868480725624	232.70961451247166	47	127
232.55868480725624	232.70961451247166	83	127
232.55868480725624	232.70961451247166	78	127
232.55868480725624	232.70961451247166	71	127
232.55868480725624	232.70961451247166	75	127
232.55868480725624	232.70961451247166	59	127
232.55868480725624	232.70961451247166	54	127
232.55868480725624	232.70961451247166	51	127
233.33655328798187	233.5107029478458	43	127
233.33655328798187	233.5107029478458	47	127
233.33655328798187	233.5107029478458	40	127
233.33655328798187	233.5107029478458	76	127
233.33655328798187	233.5107029478458	71	127
233.33655328798187	233.5107029478458	67	127
233.33655328798187	233.5107029478458	64	127
233.33655328798187	233.5107029478458	52	127
234.10281179138323	234.2653514739229	71	127
234.10281179138323	234.2653514739229	75	127
234.10281179138323	234.2653514739229	78	127
234.10281179138323	234.2653514739229	83	127
234.10281179138323	234.2653514739229	35	127
234.10281179138323	234.2653514739229	39	127
234.10281179138323	234.2653514739229	42	127
234.10281179138323	234.2653514739229	47	127
234.8690702947846	235.04321995464852	52	127
234.8690702947846	235.04321995464852	47	127
234.8690702947846	235.04321995464852	43	127
234.8690702947846	235.04321995464852	40	127
234.8690702947846	235.04321995464852	76	127
234.8690702947846	235.04321995464852	71	127
234.8690702947846	235.04321995464852	67	127
234.8690702947846	235.04321995464852	64	127
235.7049886621315	235.8675283446712	35	127
235.7049886621315	235.8675283446712	47	127
235.7049886621315	235.8675283446712	42	127
235.7049886621315	235.8675283446712	39	127
235.7049886621315	235.8675283446712	78	127
235.7049886621315	235.8675283446712	83	127
235.7049886621315	235.8675283446712	71	127
235.7049886621315	235.8675283446712	75	127
236.47124716553287	236.6570068027211	71	127
236.47124716553287	236.6570068027211	76	127
236.47124716553287	236.6570068027211	40	127
236.47124716553287	236.6570068027211	43	127
236.47124716553287	236.6570068027211	47	127
236.47124716553287	236.6570068027211	52	127
236.47124716553287	236.6570068027211	64	127
236.47124716553287	236.6570068027211	67	127
237.3187755102041	237.51614512471656	71	127
237.3187755102041	237.51614512471656	75	127
237.3187755102041	237.51614512471656	78	127
237.3187755102041	237.51614512471656	83	127
237.3187755102041	237.51614512471656	35	127
237.3187755102041	237.51614512471656	47	127
237.78317460317461	237.9689342403628	78	127
237.78317460317461	237.9689342403628	33	127
237.78317460317461	237.9689342403628	75	127
237.78317460317461	237.9689342403628	71	127
237.78317460317461	237.9689342403628	45	127
237.78317460317461	237.9689342403628	83	127
238.23596371882087	241.23133786848072	76	127
238.23596371882087	241.23133786848072	83	127
238.23596371882087	241.23133786848072	86	127
238.23596371882087	241.23133786848072	88	127
238.23596371882087	241.23133786848072	32	127
238.23596371882087	241.23133786848072	44	127
241.35904761904763	244.93492063492064	45	127
241.35904761904763	244.93492063492064	33	127
241.35904761904763	244.93492063492064	64	127
241.35904761904763	244.93492063492064	60	127
241.35904761904763	244.93492063492064	57	127
245.01619047619047	245.3180498866213	76	127
245.3180498866213	245.58507936507937	41	127
245.3180498866213	246.21201814058958	65	127
245.3180498866213	246.21201814058958	77	127
245.3180498866213	245.58507936507937	53	127
245.61990929705215	245.7940589569161	57	127
245.61990929705215	245.7940589569161	60	127
245.93337868480725	246.13074829931972	57	127
245.93337868480725	246.13074829931972	60	127
246.15396825396826	246.31650793650795	57	127
246.15396825396826	246.31650793650795	60	127
246.24684807256236	246.35133786848073	76	127
246.35133786848073	247.1175963718821	77	127
246.35133786848073	247.1175963718821	65	127
246.35133786848073	246.53709750566892	41	127
246.35133786848073	246.53709750566892	53	127
246.58353741496597	246.78090702947847	60	127
246.58353741496597	246.78090702947847	57	127
246.81573696145125	246.98988662131518	57	127
246.81573696145125	246.98988662131518	60	127
247.024716553288	247.24530612244897	60	127
247.024716553288	247.24530612244897	57	127
247.15242630385487	247.31496598639455	76	127
247.31496598639455	247.4891156462585	53	127
247.31496598639455	247.4891156462585	41	127
247.31496598639455	248.04639455782313	77	127
247.31496598639455	248.04639455782313	65	127
247.5239455782313	247.69809523809525	57	127
247.5239455782313	247.69809523809525	60	127
247.69809523809525	247.94190476190477	60	127
247.69809523809525	247.94190476190477	57	127
247.97673469387755	248.17410430839	57	127
247.97673469387755	248.17410430839	60	127
248.10444444444445	248.20893424036282	80	127
248.20893424036282	248.37147392290248	81	127
248.20893424036282	248.37147392290248	53	127
248.4063038548753	248.62689342403627	60	127
248.4063038548753	248.62689342403627	57	127
248.53401360544217	248.67333333333335	83	127
248.67333333333335	248.835873015873	53	127
248.67333333333335	248.835873015873	84	127
248.8707029478458	249.0332426303855	60	127
248.8707029478458	249.0332426303855	57	127
248.97519274376418	249.07968253968255	88	127
249.07968253968255	249.2886621315193	53	127
249.07968253968255	249.96204081632652	89	127
249.32349206349207	249.497641723356	60	127
249.32349206349207	249.497641723356	57	127
249.5324716553288	249.718231292517	60	127
249.5324716553288	249.718231292517	57	127
249.75306122448978	249.92721088435374	60	127
249.75306122448978	249.92721088435374	57	127
249.96204081632652	250.20585034013607	87	127
249.96204081632652	250.17102040816326	53	127
250.20585034013607	250.39160997732426	57	127
250.20585034013607	250.42643990929705	86	127
250.20585034013607	250.39160997732426	60	127
250.42643990929705	250.63541950113378	84	127
250.42643990929705	250.6238095238095	53	127
250.63541950113378	250.79795918367347	57	127
250.63541950113378	250.83278911564625	86	127
250.63541950113378	250.79795918367347	60	127
250.83278911564625	251.2855782312925	87	127
250.83278911564625	251.03015873015872	54	127
251.06498866213153	251.23913832199545	57	127
251.06498866213153	251.23913832199545	60	127
251.2855782312925	251.45972789115646	60	127
251.2855782312925	251.45972789115646	57	127
251.2855782312925	251.63387755102042	81	127
251.482947845805	251.65709750566893	60	127
251.482947845805	251.65709750566893	57	127
251.71514739229025	251.93573696145125	50	127
251.71514739229025	251.93573696145125	86	127
251.71514739229025	251.93573696145125	74	127
251.71514739229025	251.93573696145125	62	127
251.93573696145125	251.97056689342404	48	127
251.93573696145125	251.97056689342404	72	127
251.93573696145125	251.97056689342404	60	127
251.93573696145125	251.97056689342404	84	127
252.10988662131518	252.1679365079365	46	127
252.10988662131518	252.1679365079365	70	127
252.10988662131518	252.1679365079365	58	127
252.10988662131518	252.1679365079365	82	127
252.31886621315192	252.37691609977324	69	127
252.31886621315192	252.37691609977324	81	127
252.31886621315192	252.37691609977324	45	127
252.31886621315192	252.37691609977324	57	127
252.5510657596372	252.72521541950113	43	127
252.5510657596372	252.65555555555557	67	127
252.5510657596372	252.65555555555557	79	127
252.5510657596372	252.72521541950113	55	127
252.65555555555557	252.77165532879818	58	127
252.77165532879818	252.87614512471654	62	127
252.89936507936508	253.00385487528345	58	127
253.00385487528345	253.10834467120182	62	127
253.10834467120182	253.20122448979592	58	127
253.20122448979592	253.29410430839002	62	127
253.29410430839002	253.41020408163266	58	127
253.41020408163266	253.58435374149659	43	127
253.41020408163266	253.51469387755103	55	127
253.41020408163266	253.58435374149659	31	127
253.51469387755103	253.6191836734694	58	127
253.6191836734694	253.72367346938776	62	127
253.72367346938776	253.82816326530613	58	127
253.83977324263037	253.94426303854874	62	127
253.94426303854874	254.0487528344671	58	127
254.0487528344671	254.16485260770975	62	127
254.16485260770975	254.26934240362812	58	127
254.28095238095239	254.4551020408163	43	127
254.28095238095239	254.38544217687075	55	127
254.28095238095239	254.4551020408163	31	127
254.38544217687075	254.48993197278912	58	127
254.48993197278912	254.5944217687075	62	127
254.5944217687075	254.69891156462586	58	127
254.69891156462586	254.80340136054423	62	127
254.81501133786847	254.91950113378684	58	127
254.91950113378684	255.03560090702948	62	127
255.03560090702948	255.14009070294784	58	127
255.14009070294784	255.3374603174603	43	127
255.14009070294784	255.3374603174603	31	127
255.14009070294784	255.25619047619048	55	127
255.26780045351475	255.3722902494331	58	127
255.3722902494331	255.47678004535146	62	127
255.47678004535146	255.5928798185941	58	127
255.5928798185941	255.76702947845806	43	127
255.5928798185941	255.76702947845806	31	127
255.5928798185941	255.6857596371882	55	127
255.6857596371882	255.80185941043084	58	127
255.80185941043084	255.9063492063492	62	127
255.9063492063492	256.02244897959184	58	127
256.02244897959184	256.1269387755102	55	127
256.02244897959184	256.80031746031744	31	127
256.02244897959184	256.80031746031744	43	127
256.1269387755102	256.2314285714286	58	127
256.24303854875285	256.33591836734695	62	127
256.33591836734695	256.4404081632653	58	127
256.4404081632653	256.5448979591837	50	127
256.5448979591837	256.6377777777778	58	127
256.64938775510205	256.7538775510204	62	127
256.7538775510204	256.8583673469388	58	127
256.8583673469388	257.64784580498866	45	127
256.8583673469388	257.64784580498866	33	127
256.8583673469388	256.96285714285716	50	127
256.96285714285716	257.06734693877553	60	127
257.06734693877553	257.18344671201817	62	127
257.18344671201817	257.28793650793654	60	127
257.28793650793654	257.3924036281179	50	127
257.3924036281179	257.4968934240363	60	127
257.4968934240363	257.60138321995464	62	127
257.61301587301585	257.705873015873	60	127
257.705873015873	258.4489342403628	31	127
257.705873015873	258.4489342403628	43	127
257.705873015873	257.8103628117914	50	127
257.8103628117914	257.9032426303855	58	127
257.9032426303855	257.9961451247166	62	127
258.00773242630385	258.10063492063495	58	127
258.10063492063495	258.19351473922904	50	127
258.19351473922904	258.28639455782314	58	127
258.28639455782314	258.3908843537415	62	127
258.3908843537415	258.50698412698415	58	127
258.5185714285714	258.6230612244898	56	127
258.5185714285714	259.3080725623583	41	127
258.5185714285714	259.3080725623583	29	127
258.6230612244898	258.72755102040816	58	127
258.72755102040816	258.82045351473926	62	127
258.82045351473926	258.9249206349206	58	127
258.9365306122449	259.0410430839002	56	127
259.0410430839002	259.13390022675736	62	127
259.13390022675736	259.25002267573694	58	127
259.25002267573694	259.4009523809524	56	127
259.4009523809524	259.6099319727891	55	127
259.4009523809524	260.14399092970524	39	127
259.7492290249433	259.8537188208617	74	127
259.8537188208617	260.573537414966	75	127
259.8537188208617	260.573537414966	63	127
260.178820861678	260.29492063492063	38	127
260.29492063492063	260.9798866213152	39	127
260.60839002267574	260.68965986394556	74	127
260.68965986394556	261.4094784580499	63	127
260.68965986394556	261.4094784580499	75	127
261.01473922902494	261.1192290249433	38	127
261.1192290249433	261.82743764172335	39	127
261.4443083900227	261.54879818594105	74	127
261.54879818594105	261.82743764172335	75	127
261.54879818594105	261.82743764172335	63	127
261.86226757369616	261.9667573696145	78	127
261.86226757369616	261.9667573696145	42	127
261.9667573696145	262.09444444444443	67	127
261.9667573696145	262.09444444444443	79	127
261.9667573696145	262.09444444444443	43	127
262.2453968253968	262.3382766439909	45	127
262.2453968253968	262.3382766439909	81	127
262.3382766439909	262.50081632653064	82	127
262.3382766439909	262.50081632653064	46	127
262.3382766439909	262.50081632653064	70	127
262.65174603174603	262.7562358276644	86	127
262.65174603174603	262.7562358276644	50	127
262.7562358276644	262.9419954648526	87	127
262.7562358276644	262.9419954648526	75	127
262.7562358276644	263.53408163265306	51	127
262.7562358276644	263.53408163265306	39	127
263.59215419501135	263.8011337868481	38	127
263.59215419501135	263.8011337868481	50	127
263.8011337868481	263.8591836734694	49	127
263.8011337868481	263.8591836734694	37	127
264.05655328798184	264.416462585034	76	127
264.05655328798184	264.416462585034	88	127
264.05655328798184	264.1029931972789	47	127
264.05655328798184	264.1029931972789	35	127
264.2655328798186	264.3235827664399	37	127
264.2655328798186	264.3235827664399	49	127
264.45126984126983	265.2059410430839	77	127
264.45126984126983	265.2059410430839	89	127
264.45126984126983	264.77637188208615	50	127
264.45126984126983	264.77637188208615	38	127
264.82281179138323	265.2059410430839	33	127
264.82281179138323	265.2059410430839	45	127
265.252380952381	265.2872108843537	35	127
265.252380952381	265.49619047619046	87	127
265.252380952381	265.49619047619046	75	127
265.2872108843537	265.49619047619046	47	127
265.49619047619046	265.5658503401361	48	127
265.49619047619046	265.54263038548754	74	127
265.49619047619046	265.54263038548754	86	127
265.5658503401361	265.63551020408164	47	127
265.63551020408164	265.7051700680272	48	127
265.7051700680272	265.7748072562358	47	127
265.7051700680272	265.76321995464855	72	127
265.7051700680272	265.76321995464855	84	127
265.7748072562358	265.85609977324265	48	127
265.8677097505669	265.9257596371882	47	127
265.9373696145125	265.98378684807255	86	127
265.9373696145125	266.04185941043085	45	127
265.9373696145125	265.98378684807255	74	127
266.04185941043085	266.13473922902494	47	127
266.13473922902494	266.88938775510206	48	127
266.13473922902494	266.48303854875286	75	127
266.13473922902494	266.48303854875286	87	127
266.13473922902494	266.88938775510206	36	127
266.54108843537415	266.88938775510206	72	127
266.54108843537415	266.88938775510206	84	127
266.94743764172335	267.13319727891155	46	127
266.94743764172335	267.29573696145127	77	127
266.94743764172335	267.29573696145127	89	127
266.94743764172335	267.13319727891155	34	127
267.13319727891155	267.1912471655329	33	127
267.13319727891155	267.1912471655329	45	127
267.35378684807256	267.725283446712	84	127
267.35378684807256	267.40022675736964	31	127
267.35378684807256	267.40022675736964	43	127
267.35378684807256	267.725283446712	72	127
267.5627664399093	267.62079365079364	45	127
267.5627664399093	267.62079365079364	33	127
267.7833560090703	268.1316326530612	34	127
267.7833560090703	268.1316326530612	46	127
267.7833560090703	268.54961451247163	73	127
267.7833560090703	268.54961451247163	85	127
268.1897052154195	268.54961451247163	29	127
268.1897052154195	268.54961451247163	41	127
268.607664399093	268.7934240362812	84	127
268.607664399093	268.6308843537415	31	127
268.607664399093	268.7934240362812	72	127
268.6308843537415	268.7934240362812	43	127
268.7934240362812	268.8514512471655	70	127
268.7934240362812	268.86308390022674	44	127
268.7934240362812	268.8514512471655	82	127
268.86308390022674	268.93274376417236	43	127
268.93274376417236	269.0024036281179	44	127
269.0140136054422	269.0604535147392	68	127
269.0140136054422	269.0720634920635	43	127
269.0140136054422	269.0604535147392	80	127
269.08367346938775	269.15331065759636	44	127
269.15331065759636	269.2229931972789	43	127
269.2229931972789	269.3274829931973	41	127
269.2229931972789	269.2810430839002	68	127
269.2229931972789	269.2810430839002	80	127
269.3274829931973	269.44358276643993	43	127
269.44358276643993	270.24467120181407	44	127
269.44358276643993	269.8267120181406	84	127
269.44358276643993	270.24467120181407	32	127
269.44358276643993	269.8267120181406	72	127
269.8731292517007	270.24467120181407	80	127
269.8731292517007	270.24467120181407	68	127
270.2911111111111	270.66263038548755	85	127
270.2911111111111	270.66263038548755	73	127
270.2911111111111	270.50009070294783	43	127
270.2911111111111	270.50009070294783	31	127
270.50009070294783	270.5465306122449	29	127
270.50009070294783	270.5465306122449	41	127
270.70907029478457	271.0573696145125	68	127
270.70907029478457	271.0573696145125	80	127
270.70907029478457	270.75551020408165	28	127
270.70907029478457	270.75551020408165	40	127
270.90643990929703	270.9528798185941	29	127
270.90643990929703	270.9528798185941	41	127
271.1154195011338	271.2779591836735	31	127
271.1154195011338	271.2779591836735	43	127
271.1154195011338	271.4521088435374	82	127
271.1154195011338	271.4521088435374	70	127
271.51013605442176	271.8700680272109	72	127
271.51013605442176	271.8700680272109	84	127
271.51013605442176	271.5798185941043	40	127
271.5798185941043	271.6494784580499	41	127
271.6494784580499	271.70750566893423	40	127
271.70750566893423	271.7655782312925	41	127
271.7771882086168	271.8584580498866	38	127
271.8584580498866	271.9281179138322	40	127
271.9281179138322	272.28802721088437	80	127
271.9281179138322	272.10226757369617	29	127
271.9281179138322	272.10226757369617	41	127
271.9281179138322	272.28802721088437	68	127
272.34607709750566	272.4157369614513	47	127
272.34607709750566	272.69437641723357	89	127
272.34607709750566	272.69437641723357	77	127
272.4157369614513	272.47378684807256	48	127
272.47378684807256	272.5318140589569	47	127
272.5318140589569	272.60149659863947	48	127
272.60149659863947	272.67115646258503	45	127
272.6827664399093	272.75242630385486	47	127
272.75242630385486	272.9381632653061	48	127
272.75242630385486	272.9381632653061	76	127
272.75242630385486	272.9381632653061	88	127
272.75242630385486	272.9381632653061	36	127
272.97301587301587	273.06589569160997	68	127
273.06589569160997	273.17038548752834	65	127
273.1819954648526	273.286485260771	67	127
273.286485260771	273.35614512471653	64	127
273.35614512471653	273.4606349206349	65	127
273.4606349206349	273.55349206349206	62	127
273.56512471655327	273.66961451247164	64	127
273.66961451247164	273.77410430839	60	127
273.77410430839	273.8785941043084	68	127
273.8785941043084	273.9714739229025	65	127
273.9714739229025	274.07596371882084	67	127
274.07596371882084	274.1804535147392	64	127
274.1804535147392	274.2849433106576	65	127
274.2849433106576	274.38943310657595	62	127
274.38943310657595	274.45909297052157	64	127
274.47068027210884	274.5751700680272	60	127
274.5751700680272	274.6796598639456	68	127
274.6796598639456	274.78414965986394	65	127
274.78414965986394	274.8654421768708	67	127
274.8654421768708	274.96993197278914	64	127
274.96993197278914	275.0744217687075	65	127
275.0744217687075	275.1789115646259	62	127
275.1789115646259	275.28337868480725	67	127
275.28337868480725	275.37628117913835	60	127
275.3878684807256	275.4807709750567	61	127
275.4807709750567	275.5852607709751	58	127
275.5852607709751	275.6781405895692	60	127
275.6781405895692	275.759410430839	56	127
275.7710204081633	275.8522902494331	58	127
275.8522902494331	275.9451700680272	55	127
275.9451700680272	276.1309297052154	53	127
275.9451700680272	276.1309297052154	56	127
275.9451700680272	276.1309297052154	41	127
276.1773696145125	276.28185941043085	64	127
276.1773696145125	276.28185941043085	61	127
276.28185941043085	276.3631292517007	58	127
276.28185941043085	276.3631292517007	67	127
276.3631292517007	276.4560090702948	65	127
276.3631292517007	276.4560090702948	60	127
276.4560090702948	276.5372789115646	56	127
276.4560090702948	276.5372789115646	68	127
276.5372789115646	276.6301587301587	67	127
276.5372789115646	276.6301587301587	58	127
276.641768707483	276.7346485260771	70	127
276.641768707483	276.7346485260771	55	127
276.7346485260771	276.83913832199545	68	127
276.7346485260771	276.83913832199545	56	127
276.83913832199545	276.9552380952381	53	127
276.83913832199545	276.9552380952381	72	127
276.9552380952381	277.05972789115646	64	127
276.9552380952381	277.05972789115646	61	127
277.0713378684807	277.1409977324263	58	127
277.0713378684807	277.1409977324263	67	127
277.1409977324263	277.24548752834465	65	127
277.1409977324263	277.24548752834465	60	127
277.24548752834465	277.349977324263	56	127
277.24548752834465	277.349977324263	68	127
277.349977324263	277.4544671201814	58	127
277.349977324263	277.4544671201814	67	127
277.4544671201814	277.5473469387755	70	127
277.4544671201814	277.5473469387755	55	127
277.5473469387755	277.65183673469386	68	127
277.5473469387755	277.65183673469386	56	127
277.65183673469386	277.7563265306122	53	127
277.65183673469386	277.7563265306122	72	127
277.7563265306122	277.8491836734694	64	127
277.7563265306122	277.8491836734694	61	127
277.8491836734694	277.95367346938775	67	127
277.8491836734694	277.95367346938775	58	127
277.96530612244896	278.06979591836733	60	127
277.96530612244896	278.06979591836733	65	127
278.06979591836733	278.16267573696143	56	127
278.06979591836733	278.16267573696143	68	127
278.16267573696143	278.2555328798186	58	127
278.16267573696143	278.2555328798186	67	127
278.2555328798186	278.32521541950115	55	127
278.2555328798186	278.32521541950115	70	127
278.3368253968254	278.4297052154195	68	127
278.3368253968254	278.4297052154195	56	127
278.4297052154195	278.54580498866216	53	127
278.4297052154195	278.54580498866216	72	127
278.54580498866216	278.63868480725625	54	127
278.54580498866216	278.63868480725625	69	127
278.63868480725625	278.7431746031746	72	127
278.63868480725625	278.7431746031746	51	127
278.7431746031746	278.847664399093	70	127
278.7431746031746	278.847664399093	53	127
278.85927437641726	278.95215419501136	73	127
278.85927437641726	278.95215419501136	49	127
278.95215419501136	279.0334240362812	51	127
278.95215419501136	279.0334240362812	72	127
279.0334240362812	279.0798639455782	75	127
279.0334240362812	279.0798639455782	48	127
279.0798639455782	279.26562358276647	46	127
279.0798639455782	279.1843537414966	73	127
279.19596371882085	279.28884353741495	77	127
279.28884353741495	279.3933333333333	87	127
279.3933333333333	279.4978231292517	78	127
279.3933333333333	279.4978231292517	34	127
279.4978231292517	280.14798185941044	46	127
279.4978231292517	279.5907029478458	85	127
279.60231292517005	279.7068027210884	77	127
279.7068027210884	279.7880498866213	84	127
279.7880498866213	279.8925396825397	75	127
279.8925396825397	279.99702947845805	82	127
279.99702947845805	280.0783219954649	73	127
280.08990929705215	280.18281179138324	87	127
280.18281179138324	280.2873015873016	78	127
280.18281179138324	280.2873015873016	46	127
280.2873015873016	281.0071201814059	58	127
280.2873015873016	280.39179138322	85	127
280.39179138322	280.49628117913835	77	127
280.5078684807256	280.6007482993197	84	127
280.6007482993197	280.7052380952381	75	127
280.7052380952381	280.82136054421767	82	127
280.82136054421767	280.92585034013604	73	127
280.92585034013604	281.0419501133787	87	127
281.0419501133787	281.14643990929704	58	127
281.0419501133787	281.14643990929704	78	127
281.14643990929704	281.23931972789114	85	127
281.14643990929704	281.2857596371882	70	127
281.23931972789114	281.32056689342403	77	127
281.32056689342403	281.41346938775513	84	127
281.4250566893424	281.5179591836735	75	127
281.5179591836735	281.62242630385487	82	127
281.62242630385487	281.72691609977323	73	127
281.72691609977323	281.81981859410433	80	127
281.8314058956916	281.9243083900227	72	127
281.9243083900227	282.0171882086168	79	127
282.0171882086168	282.12167800453517	70	127
282.12167800453517	282.202947845805	77	127
282.202947845805	282.30743764172337	68	127
282.31904761904764	282.423537414966	75	127
282.31904761904764	282.49319727891157	39	127
282.31904761904764	282.49319727891157	51	127
282.423537414966	282.5280272108844	67	127
282.5280272108844	282.63251700680274	59	127
282.5280272108844	282.63251700680274	62	127
282.63251700680274	282.7370068027211	65	127
282.63251700680274	282.7370068027211	56	127
282.7485941043084	282.86471655328796	58	127
282.7485941043084	282.86471655328796	63	127
282.86471655328796	282.9575736961451	55	127
282.86471655328796	282.9575736961451	67	127
282.9575736961451	283.03886621315195	56	127
282.9575736961451	283.03886621315195	65	127
283.03886621315195	283.1433560090703	68	127
283.03886621315195	283.1433560090703	53	127
283.1549433106576	283.2362358276644	67	127
283.1549433106576	283.2362358276644	55	127
283.2362358276644	283.3407256235828	51	127
283.2362358276644	283.3407256235828	70	127
283.3407256235828	283.44521541950115	62	127
283.3407256235828	283.44521541950115	59	127
283.44521541950115	283.5497052154195	56	127
283.44521541950115	283.5497052154195	65	127
283.5497052154195	283.6541950113379	58	127
283.5497052154195	283.6541950113379	63	127
283.66580498866216	283.7702721088435	67	127
283.66580498866216	283.7702721088435	55	127
283.7702721088435	283.8863945578231	56	127
283.7702721088435	283.8863945578231	65	127
283.8863945578231	283.9908843537415	53	127
283.8863945578231	283.9908843537415	68	127
283.9908843537415	284.1069841269841	55	127
283.9908843537415	284.1069841269841	67	127
284.1185941043084	284.22308390022675	51	127
284.1185941043084	284.22308390022675	70	127
284.22308390022675	284.31596371882085	62	127
284.22308390022675	284.31596371882085	59	127
284.31596371882085	284.4204535147392	56	127
284.31596371882085	284.4204535147392	65	127
284.4204535147392	284.5249433106576	58	127
284.4204535147392	284.5249433106576	63	127
284.5249433106576	284.62943310657596	67	127
284.5249433106576	284.62943310657596	55	127
284.62943310657596	284.7339229024943	65	127
284.62943310657596	284.7339229024943	56	127
284.7339229024943	284.8384126984127	53	127
284.7339229024943	284.8384126984127	68	127
284.8384126984127	284.90807256235826	55	127
284.8384126984127	284.90807256235826	67	127
284.90807256235826	285.0241723356009	70	127
284.90807256235826	285.0241723356009	51	127
285.03578231292516	285.14027210884353	67	127
285.03578231292516	285.14027210884353	53	127
285.14027210884353	285.22154195011336	70	127
285.14027210884353	285.22154195011336	49	127
285.22154195011336	285.3143990929705	51	127
285.22154195011336	285.3143990929705	68	127
285.3143990929705	285.41891156462583	48	127
285.3143990929705	285.41891156462583	72	127
285.4305215419501	285.5234013605442	70	127
285.4305215419501	285.5234013605442	49	127
285.5234013605442	285.61625850340135	46	127
285.5234013605442	285.61625850340135	73	127
285.61625850340135	285.73238095238094	72	127
285.61625850340135	285.73238095238094	48	127
285.73238095238094	285.8368707482993	75	127
285.73238095238094	285.8368707482993	44	127
285.8368707482993	285.9297505668934	58	127
285.8368707482993	285.9297505668934	60	127
285.9413605442177	286.0342403628118	55	127
285.9413605442177	286.0342403628118	63	127
286.0342403628118	286.1270975056689	61	127
286.0342403628118	286.1270975056689	56	127
286.1270975056689	286.2315873015873	53	127
286.1270975056689	286.2315873015873	65	127
286.2315873015873	286.3244671201814	55	127
286.2315873015873	286.3244671201814	63	127
286.33607709750567	286.4173696145125	51	127
286.33607709750567	286.4173696145125	67	127
286.4173696145125	286.4986394557823	53	127
286.4173696145125	286.4986394557823	65	127
286.4986394557823	286.6031292517007	49	127
286.4986394557823	286.6031292517007	68	127
286.6031292517007	286.70761904761906	65	127
286.6031292517007	286.70761904761906	51	127
286.70761904761906	286.80049886621316	68	127
286.70761904761906	286.80049886621316	48	127
286.80049886621316	286.89337868480726	49	127
286.80049886621316	286.89337868480726	67	127
286.89337868480726	286.99786848072563	46	127
286.89337868480726	286.99786848072563	70	127
286.99786848072563	287.102358276644	68	127
286.99786848072563	287.102358276644	48	127
287.102358276644	287.20684807256237	72	127
287.102358276644	287.20684807256237	44	127
287.21845804988664	287.31133786848073	46	127
287.21845804988664	287.31133786848073	70	127
287.31133786848073	287.4158276643991	43	127
287.31133786848073	287.4158276643991	73	127
287.4158276643991	287.5087074829932	56	127
287.4158276643991	287.5087074829932	58	127
287.5087074829932	287.61319727891157	62	127
287.5087074829932	287.61319727891157	53	127
287.62480725623584	287.7292970521542	60	127
287.62480725623584	287.7292970521542	55	127
287.7292970521542	287.8337868480726	64	127
287.7292970521542	287.8337868480726	52	127
287.8337868480726	287.93827664399095	53	127
287.8337868480726	287.93827664399095	62	127
287.93827664399095	288.0195464852608	65	127
287.93827664399095	288.0195464852608	50	127
288.0195464852608	288.1356462585034	64	127
288.0195464852608	288.1356462585034	52	127
288.1356462585034	288.2285260770975	67	127
288.1356462585034	288.2285260770975	48	127
288.2285260770975	288.3214058956916	64	127
288.2285260770975	288.3214058956916	49	127
288.3214058956916	288.4142857142857	67	127
288.3214058956916	288.4142857142857	46	127
288.4142857142857	288.5071655328798	65	127
288.4142857142857	288.5071655328798	48	127
288.5187755102041	288.62326530612245	68	127
288.5187755102041	288.62326530612245	44	127
288.62326530612245	288.7277551020408	67	127
288.62326530612245	288.7277551020408	46	127
288.7277551020408	288.7974149659864	43	127
288.7277551020408	288.7974149659864	70	127
288.7974149659864	288.913514739229	44	127
288.7974149659864	288.913514739229	68	127
288.9251247165533	289.0180045351474	41	127
288.9251247165533	289.0180045351474	72	127
289.0180045351474	289.19213151927437	55	127
289.0180045351474	289.19213151927437	52	127
289.12249433106575	289.2269841269841	65	127
289.2269841269841	289.4127437641723	77	127
289.2269841269841	289.4127437641723	53	127
289.2269841269841	289.4127437641723	56	127
289.4475736961451	289.62172335600906	55	127
289.4475736961451	289.62172335600906	58	127
289.65655328798186	289.8307029478458	56	127
289.65655328798186	289.8307029478458	60	127
289.8655328798186	290.03968253968253	57	127
289.8655328798186	290.03968253968253	60	127
289.97002267573697	290.07451247165534	77	127
290.07451247165534	290.237052154195	89	127
290.07451247165534	290.237052154195	58	127
290.07451247165534	290.237052154195	61	127
290.2718820861678	290.44603174603174	63	127
290.2718820861678	290.44603174603174	60	127
290.4692517006803	290.6434013605442	61	127
290.4692517006803	290.6434013605442	65	127
290.678231292517	290.8059410430839	50	127
290.678231292517	290.8059410430839	53	127
290.7478911564626	290.84077097505667	63	127
290.84077097505667	291.01492063492066	75	127
290.84077097505667	291.01492063492066	51	127
290.84077097505667	291.01492063492066	55	127
291.0497505668934	291.23548752834466	52	127
291.0497505668934	291.23548752834466	50	127
291.2703401360544	291.4560997732426	58	127
291.2703401360544	291.4560997732426	55	127
291.4909297052154	291.6766893424036	58	127
291.4909297052154	291.6766893424036	55	127
291.5954195011338	291.7115192743764	75	127
291.7115192743764	291.8508163265306	56	127
291.7115192743764	291.8508163265306	87	127
291.7115192743764	291.8508163265306	60	127
291.8740589569161	292.0482086167801	58	127
291.8740589569161	292.0482086167801	61	127
292.0946485260771	292.268798185941	60	127
292.0946485260771	292.268798185941	63	127
292.30362811791383	292.4081179138322	82	127
292.30362811791383	292.4081179138322	32	127
292.4081179138322	292.48938775510203	44	127
292.4081179138322	292.48938775510203	73	127
292.5009977324263	292.60548752834467	80	127
292.5009977324263	292.60548752834467	34	127
292.60548752834467	292.70997732426304	72	127
292.60548752834467	292.70997732426304	46	127
292.70997732426304	292.80285714285714	36	127
292.70997732426304	292.80285714285714	79	127
292.80285714285714	292.89573696145123	48	127
292.80285714285714	292.89573696145123	70	127
292.89573696145123	293.0002267573696	37	127
292.89573696145123	293.0002267573696	77	127
293.0118367346939	293.0931065759637	68	127
293.0118367346939	293.0931065759637	49	127
293.0931065759637	293.19759637188207	75	127
293.0931065759637	293.19759637188207	37	127
293.19759637188207	293.2556462585034	49	127
293.19759637188207	293.2556462585034	67	127
293.2556462585034	293.3485260770975	73	127
293.2556462585034	293.3485260770975	39	127
293.3601360544218	293.46462585034016	51	127
293.3601360544218	293.46462585034016	65	127
293.46462585034016	293.55750566893425	72	127
293.46462585034016	293.55750566893425	41	127
293.55750566893425	293.6619954648526	53	127
293.55750566893425	293.6619954648526	63	127
293.6619954648526	293.766485260771	70	127
293.6619954648526	293.766485260771	43	127
293.766485260771	293.88258503401363	61	127
293.766485260771	293.88258503401363	55	127
293.88258503401363	293.987074829932	80	127
293.88258503401363	293.987074829932	31	127
293.987074829932	294.09156462585037	43	127
293.987074829932	294.09156462585037	72	127
294.09156462585037	294.207641723356	79	127
294.09156462585037	294.207641723356	32	127
294.207641723356	294.3005215419501	44	127
294.207641723356	294.3005215419501	70	127
294.3121541950113	294.4050113378685	34	127
294.3121541950113	294.4050113378685	77	127
294.4050113378685	294.50950113378684	46	127
294.4050113378685	294.50950113378684	68	127
294.50950113378684	294.60240362811794	76	127
294.50950113378684	294.60240362811794	36	127
294.60240362811794	294.68367346938777	67	127
294.60240362811794	294.68367346938777	48	127
294.69528344671204	294.7997732426304	73	127
294.69528344671204	294.7997732426304	36	127
294.7997732426304	294.9042630385488	64	127
294.7997732426304	294.9042630385488	48	127
294.9042630385488	295.00875283446715	38	127
294.9042630385488	295.00875283446715	72	127
295.00875283446715	295.090022675737	50	127
295.00875283446715	295.090022675737	65	127
295.090022675737	295.19451247165534	70	127
295.090022675737	295.19451247165534	40	127
295.19451247165534	295.28739229024944	67	127
295.19451247165534	295.28739229024944	52	127
295.28739229024944	295.38027210884354	41	127
295.28739229024944	295.4499319727891	68	127
295.38027210884354	295.4847619047619	53	127
295.4847619047619	295.5892517006803	89	127
295.4847619047619	295.5892517006803	29	127
295.60086167800455	295.7169614512472	80	127
295.60086167800455	295.7169614512472	41	127
295.7169614512472	295.8330385487528	85	127
295.7169614512472	295.8330385487528	29	127
295.8330385487528	295.9491609977324	77	127
295.8330385487528	295.9491609977324	41	127
295.9491609977324	296.0536507936508	84	127
295.9491609977324	296.0536507936508	29	127
296.06526077097504	296.1697505668934	41	127
296.06526077097504	296.1697505668934	75	127
296.1697505668934	296.2509977324263	29	127
296.1697505668934	296.2509977324263	82	127
296.2509977324263	296.33229024943313	41	127
296.2509977324263	296.33229024943313	73	127
296.33229024943313	296.4251700680272	80	127
296.33229024943313	296.4251700680272	29	127
296.4251700680272	296.54126984126987	41	127
296.4251700680272	296.54126984126987	72	127
296.55285714285714	296.64575963718823	29	127
296.55285714285714	296.64575963718823	78	127
296.64575963718823	296.7502494331066	70	127
296.64575963718823	296.7502494331066	41	127
296.7502494331066	296.854716553288	29	127
296.7502494331066	296.854716553288	77	127
296.854716553288	296.94761904761907	68	127
296.854716553288	296.94761904761907	41	127
296.95920634920634	297.0636961451247	30	127
296.95920634920634	297.0636961451247	75	127
297.0636961451247	297.13337868480727	66	127
297.0636961451247	297.13337868480727	42	127
297.13337868480727	297.23786848072564	73	127
297.13337868480727	297.23786848072564	30	127
297.23786848072564	297.342358276644	65	127
297.23786848072564	297.342358276644	42	127
297.342358276644	297.45845804988664	30	127
297.342358276644	297.45845804988664	72	127
297.45845804988664	297.5397278911565	42	127
297.45845804988664	297.5397278911565	63	127
297.5397278911565	297.64421768707484	30	127
297.5397278911565	297.64421768707484	70	127
297.64421768707484	297.7487074829932	42	127
297.64421768707484	297.7487074829932	61	127
297.7487074829932	297.8531972789116	68	127
297.7487074829932	297.8531972789116	32	127
297.8764172335601	297.9808843537415	60	127
297.8764172335601	297.9808843537415	44	127
297.9808843537415	298.0621768707483	66	127
297.9808843537415	298.0621768707483	32	127
298.0621768707483	298.1550566893424	58	127
298.0621768707483	298.1550566893424	44	127
298.1550566893424	298.2479365079365	32	127
298.1550566893424	298.2479365079365	65	127
298.2595464852608	298.39884353741496	44	127
298.2595464852608	298.39884353741496	56	127
298.39884353741496	298.5265759637188	32	127
298.39884353741496	298.5265759637188	63	127
298.5265759637188	298.66589569161	44	127
298.5265759637188	298.66589569161	54	127
298.66589569161	298.8516553287982	49	127
298.66589569161	298.8516553287982	37	127
298.66589569161	298.8516553287982	61	127
298.66589569161	298.8516553287982	53	127
298.89809523809527	299.1186848072562	53	127
298.89809523809527	299.1186848072562	56	127
298.89809523809527	299.1186848072562	61	127
298.89809523809527	299.1186848072562	65	127
299.153514739229	299.3508843537415	65	127
299.153514739229	299.3508843537415	53	127
299.153514739229	299.3508843537415	56	127
299.153514739229	299.3508843537415	61	127
299.3857142857143	299.5714739229025	53	127
299.3857142857143	299.5714739229025	61	127
299.3857142857143	299.5714739229025	56	127
299.3857142857143	299.5714739229025	65	127
299.6178911564626	299.81528344671204	37	127
299.6178911564626	299.81528344671204	49	127
299.86172335600907	300.03585034013605	56	127
299.86172335600907	300.03585034013605	53	127
299.86172335600907	300.03585034013605	65	127
299.86172335600907	300.03585034013605	61	127
300.0707029478458	300.26807256235827	65	127
300.0707029478458	300.26807256235827	56	127
300.0707029478458	300.26807256235827	53	127
300.0707029478458	300.26807256235827	61	127
300.3029024943311	300.50027210884355	61	127
300.3029024943311	300.50027210884355	65	127
300.3029024943311	300.50027210884355	53	127
300.3029024943311	300.50027210884355	56	127
300.53510204081635	300.7440589569161	49	127
300.53510204081635	300.7440589569161	37	127
300.77891156462584	300.94145124716556	61	127
300.77891156462584	300.94145124716556	56	127
300.77891156462584	300.94145124716556	53	127
300.77891156462584	300.94145124716556	65	127
300.9762811791383	301.1736507936508	65	127
300.9762811791383	301.1736507936508	56	127
300.9762811791383	301.1736507936508	53	127
300.9762811791383	301.1736507936508	61	127
301.2084807256236	301.3942403628118	61	127
301.2084807256236	301.3942403628118	53	127
301.2084807256236	301.3942403628118	65	127
301.2084807256236	301.3942403628118	56	127
301.44068027210886	301.62643990929706	37	127
301.44068027210886	301.62643990929706	49	127
301.6728798185941	301.85863945578234	53	127
301.6728798185941	301.85863945578234	61	127
301.6728798185941	301.85863945578234	56	127
301.6728798185941	301.85863945578234	65	127
301.90507936507936	302.1140589569161	37	127
301.90507936507936	302.1140589569161	49	127
302.1488888888889	302.35786848072564	61	127
302.1488888888889	302.35786848072564	65	127
302.1488888888889	302.35786848072564	56	127
302.1488888888889	302.35786848072564	53	127
302.3926984126984	303.26344671201815	37	127
302.3926984126984	303.26344671201815	49	127
302.63650793650794	302.8338775510204	65	127
302.63650793650794	302.8338775510204	53	127
302.63650793650794	302.8338775510204	56	127
302.63650793650794	302.8338775510204	61	127
302.8687074829932	303.0660770975057	61	127
302.8687074829932	303.0660770975057	53	127
302.8687074829932	303.0660770975057	56	127
302.8687074829932	303.0660770975057	65	127
303.0892970521542	303.2750566893424	65	127
303.0892970521542	303.2750566893424	61	127
303.0892970521542	303.2750566893424	56	127
303.0892970521542	303.2750566893424	53	127
303.32149659863944	304.18063492063493	37	127
303.32149659863944	304.18063492063493	49	127
303.5536961451247	303.7394557823129	65	127
303.5536961451247	303.7394557823129	58	127
303.5536961451247	303.7394557823129	53	127
303.78589569161	303.9716553287982	53	127
303.78589569161	303.9716553287982	65	127
303.78589569161	303.9716553287982	58	127
304.006485260771	304.20385487528347	65	127
304.006485260771	304.20385487528347	53	127
304.006485260771	304.20385487528347	58	127
304.2386848072562	305.17909297052154	36	127
304.2386848072562	305.17909297052154	48	127
304.5057142857143	304.7378911564626	53	127
304.5057142857143	304.7378911564626	65	127
304.5057142857143	304.7378911564626	60	127
304.5057142857143	304.7378911564626	56	127
304.77274376417233	305.43451247165535	72	127
305.2371428571429	306.2007709750567	46	127
305.2371428571429	306.2007709750567	67	127
305.2371428571429	306.2007709750567	52	127
305.4809523809524	305.67832199546484	70	127
305.7247619047619	305.9453514739229	68	127
305.99179138321995	306.2239909297052	70	127
306.25882086167803	306.7696598639456	53	127
306.25882086167803	306.7696598639456	72	127
306.25882086167803	306.7696598639456	44	127
306.25882086167803	306.7696598639456	68	127
306.7696598639456	307.1992290249433	65	127
306.7696598639456	307.5126984126984	48	127
306.7696598639456	307.5126984126984	36	127
307.25727891156464	307.7332879818594	67	127
307.25727891156464	307.7332879818594	64	127
307.5126984126984	307.7332879818594	46	127
307.5126984126984	307.7332879818594	34	127
307.7332879818594	307.9306575963719	44	127
307.7332879818594	307.9306575963719	32	127
307.7332879818594	308.10478458049886	60	127
307.9306575963719	308.12802721088434	34	127
307.9306575963719	308.12802721088434	46	127
308.16285714285715	308.66208616780045	48	127
308.16285714285715	308.66208616780045	36	127
308.16285714285715	309.30063492063493	65	127
308.66208616780045	309.06843537414966	56	127
308.66208616780045	309.06843537414966	41	127
308.66208616780045	309.06843537414966	29	127
309.126462585034	309.98562358276644	58	127
309.126462585034	309.57927437641723	31	127
309.126462585034	309.57927437641723	43	127
309.34707482993196	309.5328117913832	64	127
309.57927437641723	309.7766439909297	62	127
309.57927437641723	309.98562358276644	36	127
309.8114739229025	310.008843537415	64	127
310.05526077097505	310.11333333333334	29	127
310.05526077097505	310.15977324263037	56	127
310.05526077097505	310.11333333333334	41	127
310.15977324263037	310.26426303854873	65	127
310.26426303854873	310.3687528344671	58	127
310.26426303854873	310.3107029478458	43	127
310.3687528344671	310.46160997732426	65	127
310.46160997732426	310.51968253968255	44	127
310.46160997732426	310.5660997732426	60	127
310.5660997732426	310.67061224489794	65	127
310.6822222222222	310.7286621315193	41	127
310.6822222222222	310.79832199546485	58	127
310.79832199546485	310.9028117913832	65	127
310.9028117913832	310.9492517006803	36	127
310.9028117913832	310.9492517006803	48	127
310.9028117913832	310.9956916099773	64	127
310.9956916099773	311.0885714285714	72	127
311.1001814058957	311.1698185941043	65	127
311.1001814058957	311.14662131519276	50	127
311.1698185941043	311.27430839002267	72	127
311.27430839002267	311.33238095238096	52	127
311.27430839002267	311.39043083900225	67	127
311.39043083900225	311.4949206349206	72	127
311.5065306122449	311.55297052154197	48	127
311.5065306122449	311.61102040816326	64	127
311.61102040816326	311.7155102040816	72	127
311.7155102040816	311.773560090703	53	127
311.7155102040816	311.773560090703	41	127
311.7155102040816	311.82	68	127
311.82	311.93609977324263	77	127
311.93609977324263	311.994126984127	55	127
311.93609977324263	312.040589569161	70	127
312.05219954648527	312.1682993197279	77	127
312.1682993197279	312.21473922902493	56	127
312.1682993197279	312.2727891156463	72	127
312.2727891156463	312.3540589569161	77	127
312.3540589569161	312.4469387755102	68	127
312.3540589569161	312.4121088435374	53	127
312.4585487528345	312.56303854875284	77	127
312.56303854875284	312.6675283446712	76	127
312.56303854875284	312.6094557823129	60	127
312.56303854875284	312.6094557823129	48	127
312.6675283446712	312.7720181405896	84	127
312.7720181405896	312.83006802721087	62	127
312.7720181405896	312.87650793650795	77	127
312.87650793650795	312.9809977324263	84	127
312.9809977324263	313.02743764172334	64	127
312.9809977324263	313.0854875283447	79	127
313.0854875283447	313.18997732426305	84	127
313.18997732426305	313.2712471655329	76	127
313.18997732426305	313.24802721088435	60	127
313.2712471655329	313.37573696145125	84	127
313.3873469387755	313.43378684807254	65	127
313.3873469387755	313.56149659863945	80	127
313.3873469387755	313.43378684807254	53	127
313.59632653061226	313.65437641723355	75	127
313.81691609977327	313.8633560090703	86	127
313.81691609977327	313.8633560090703	74	127
314.02589569161	314.0839455782313	72	127
314.02589569161	314.0839455782313	87	127
314.23485260770974	314.29292517006803	89	127
314.23485260770974	314.29292517006803	71	127
314.46707482993196	314.5251247165533	72	127
314.68766439909297	314.7457142857143	83	127
314.68766439909297	314.7457142857143	71	127
314.908253968254	314.9430839002268	84	127
314.908253968254	314.9430839002268	68	127
315.10562358276644	315.1636507936508	67	127
315.10562358276644	315.1636507936508	86	127
315.3029931972789	315.3378231292517	68	127
315.5003628117914	315.5584126984127	67	127
315.5003628117914	315.5584126984127	79	127
315.69773242630384	315.7441723356009	65	127
315.69773242630384	315.7441723356009	79	127
315.91832199546485	315.9763492063492	63	127
315.91832199546485	315.9763492063492	79	127
316.1505215419501	316.19696145124715	79	127
316.1505215419501	316.19696145124715	62	127
316.35950113378686	316.4059410430839	60	127
316.35950113378686	316.4059410430839	79	127
316.54526077097506	316.60331065759635	59	127
316.54526077097506	316.60331065759635	79	127
316.8006575963719	316.85873015873017	36	127
316.8006575963719	316.893537414966	51	127
316.8006575963719	316.85873015873017	48	127
316.893537414966	316.96321995464854	60	127
316.96321995464854	317.0212698412698	50	127
316.96321995464854	317.0677097505669	53	127
317.0793197278912	317.18380952380954	60	127
317.18380952380954	317.2650793650794	55	127
317.18380952380954	317.2070068027211	51	127
317.2650793650794	317.381179138322	60	127
317.381179138322	317.4856689342404	51	127
317.381179138322	317.4392290249433	48	127
317.49727891156465	317.601768707483	60	127
317.601768707483	317.63659863945577	43	127
317.601768707483	317.6946485260771	59	127
317.601768707483	317.63659863945577	55	127
317.6946485260771	317.7875283446712	67	127
317.7875283446712	317.8920181405896	60	127
317.7875283446712	317.8455782312925	57	127
317.8920181405896	317.9848979591837	67	127
317.9848979591837	318.0777777777778	62	127
317.9848979591837	318.0313378684807	59	127
318.0777777777778	318.18226757369615	67	127
318.18226757369615	318.263537414966	59	127
318.18226757369615	318.24031746031744	55	127
318.263537414966	318.3331746031746	67	127
318.3448072562358	318.3912471655329	48	127
318.3448072562358	318.3912471655329	60	127
318.3448072562358	318.49573696145126	63	127
318.49573696145126	318.6002267573696	72	127
318.6002267573696	318.704716553288	65	127
318.6002267573696	318.6582766439909	62	127
318.704716553288	318.77437641723355	72	127
318.7859863945578	318.80920634920636	63	127
318.7859863945578	318.86725623582765	67	127
318.86725623582765	318.971746031746	72	127
318.971746031746	319.02979591836737	60	127
318.971746031746	319.0762358276644	63	127
319.0762358276644	319.1691156462585	72	127
319.1691156462585	319.22716553287984	55	127
319.1691156462585	319.22716553287984	67	127
319.1691156462585	319.2619954648526	71	127
319.27360544217686	319.4245351473923	79	127
319.4245351473923	319.5290249433107	72	127
319.4245351473923	319.4709750566893	69	127
319.5290249433107	319.6219047619048	79	127
319.6219047619048	319.72639455782314	74	127
319.6219047619048	319.67995464852606	71	127
319.7380045351474	319.8424943310658	79	127
319.8424943310658	319.9353741496599	71	127
319.8424943310658	319.8889342403628	67	127
319.9353741496599	320.03986394557825	79	127
320.03986394557825	320.22562358276645	75	127
320.03986394557825	320.09791383219954	72	127
320.03986394557825	320.09791383219954	60	127
320.26045351473925	320.3068934240363	70	127
320.4578231292517	320.48102040816326	84	127
320.4578231292517	320.48102040816326	69	127
320.63197278911565	320.6783900226757	67	127
320.63197278911565	320.6783900226757	86	127
320.8409523809524	320.8990022675737	87	127
320.8409523809524	320.8990022675737	66	127
321.0615419501134	321.1079818594104	67	127
321.2821315192744	321.3401814058957	81	127
321.2821315192744	321.3401814058957	66	127
321.49111111111114	321.54916099773243	63	127
321.49111111111114	321.54916099773243	82	127
321.7117006802721	321.7465306122449	62	127
321.7117006802721	321.7465306122449	84	127
321.8858503401361	321.9322902494331	63	127
322.0948299319728	322.12965986394556	62	127
322.0948299319728	322.12965986394556	78	127
322.30380952380955	322.36185941043084	81	127
322.30380952380955	322.36185941043084	60	127
322.52437641723355	322.5708390022676	74	127
322.52437641723355	322.5708390022676	58	127
322.7333560090703	322.7914285714286	86	127
322.7333560090703	322.7914285714286	57	127
322.942358276644	322.98879818594105	86	127
322.942358276644	322.98879818594105	55	127
323.1281179138322	323.1861678004535	54	127
323.1281179138322	323.1861678004535	86	127
323.36031746031745	323.4067573696145	43	127
323.36031746031745	323.4067573696145	55	127
323.36031746031745	323.4764172335601	58	127
323.4764172335601	323.58090702947845	67	127
323.58090702947845	323.62734693877553	57	127
323.58090702947845	323.67378684807255	60	127
323.67378684807255	323.7898866213152	67	127
323.7898866213152	323.84791383219954	58	127
323.7898866213152	323.90598639455783	62	127
323.90598639455783	324.0104761904762	67	127
324.0104761904762	324.045306122449	55	127
324.0104761904762	324.08013605442176	58	127
324.08013605442176	324.1846258503401	67	127
324.1846258503401	324.2426757369615	50	127
324.1846258503401	324.2426757369615	62	127
324.1846258503401	324.2775056689342	66	127
324.2891156462585	324.39360544217686	74	127
324.39360544217686	324.48648526077096	67	127
324.39360544217686	324.44004535147394	64	127
324.48648526077096	324.6025850340136	74	127
324.6025850340136	324.6374149659864	66	127
324.6025850340136	324.68385487528343	69	127
324.6954648526077	324.81156462585034	74	127
324.81156462585034	324.90444444444444	66	127
324.81156462585034	324.8580045351474	62	127
324.90444444444444	325.0089342403628	74	127
325.0089342403628	325.12503401360544	70	127
325.0089342403628	325.06698412698415	67	127
325.0089342403628	325.06698412698415	55	127
325.12503401360544	325.2295238095238	79	127
325.2411337868481	325.31079365079364	72	127
325.2411337868481	325.25274376417235	69	127
325.31079365079364	325.415283446712	79	127
325.415283446712	325.5197732426304	74	127
325.415283446712	325.47333333333336	70	127
325.5197732426304	325.62426303854875	79	127
325.635873015873	325.6823129251701	67	127
325.635873015873	325.7287528344671	70	127
325.7287528344671	325.8332426303855	79	127
325.8332426303855	325.93773242630385	73	127
325.8332426303855	325.89126984126983	69	127
325.93773242630385	326.0422222222222	79	127
326.0538321995465	326.1467120181406	70	127
326.0538321995465	326.0886621315193	67	127
326.1467120181406	326.2279818594104	73	127
326.2279818594104	326.3208616780045	69	127
326.2279818594104	326.28603174603177	65	127
326.3208616780045	326.43696145124716	73	127
326.43696145124716	326.4950113378685	64	127
326.43696145124716	326.5414512471655	67	127
326.5530612244898	326.65755102040816	73	127
326.65755102040816	326.70399092970524	50	127
326.65755102040816	326.76204081632653	53	127
326.65755102040816	326.70399092970524	38	127
326.76204081632653	326.8665306122449	62	127
326.8665306122449	326.959410430839	55	127
326.8665306122449	326.92455782312925	52	127
326.97102040816327	327.07551020408164	62	127
327.07551020408164	327.15678004535147	57	127
327.07551020408164	327.1219274376417	53	127
327.15678004535147	327.26126984126984	62	127
327.26126984126984	327.3193197278912	50	127
327.26126984126984	327.3657596371882	53	127
327.3657596371882	327.4934693877551	62	127
327.4934693877551	327.53990929705213	57	127
327.4934693877551	327.53990929705213	45	127
327.4934693877551	327.5979591836735	61	127
327.5979591836735	327.6792290249433	69	127
327.6792290249433	327.7721088435374	62	127
327.6792290249433	327.73725623582766	59	127
327.7721088435374	327.8765986394558	69	127
327.88820861678005	327.9114285714286	61	127
327.88820861678005	327.9694784580499	64	127
327.9694784580499	328.07396825396825	69	127
328.07396825396825	328.1204081632653	57	127
328.07396825396825	328.16684807256235	61	127
328.16684807256235	328.2713378684807	69	127
328.282947845805	328.34099773242633	50	127
328.282947845805	328.34099773242633	62	127
328.282947845805	328.3990476190476	65	127
328.3990476190476	328.51514739229026	74	127
328.51514739229026	328.5964172335601	67	127
328.51514739229026	328.5615873015873	64	127
328.5964172335601	328.6892970521542	74	127
328.6892970521542	328.79378684807256	69	127
328.6892970521542	328.74734693877554	65	127
328.8053968253968	328.9098866213152	74	127
328.9098866213152	328.9563265306123	62	127
328.9098866213152	328.991156462585	65	127
328.991156462585	329.0956462585034	74	127
329.0956462585034	329.15369614512474	64	127
329.0956462585034	329.21174603174603	68	127
329.2233560090703	329.33945578231294	74	127
329.33945578231294	329.38589569160996	62	127
329.33945578231294	329.4439455782313	65	127
329.4439455782313	329.5484353741497	68	127
329.5484353741497	329.60648526077097	60	127
329.5484353741497	329.65292517006804	64	127
329.6645351473923	329.7574149659864	68	127
329.7574149659864	329.80385487528343	59	127
329.7574149659864	329.83868480725624	62	127
329.83868480725624	329.9431746031746	68	127
329.9431746031746	330.047664399093	57	127
329.9431746031746	330.047664399093	33	127
330.047664399093	330.1405442176871	69	127
330.047664399093	330.1405442176871	45	127
330.15215419501135	330.2566439909297	59	127
330.15215419501135	330.2566439909297	35	127
330.2566439909297	330.3611337868481	47	127
330.2566439909297	330.3611337868481	71	127
330.3611337868481	330.46562358276645	60	127
330.3611337868481	330.46562358276645	36	127
330.46562358276645	330.5701133786848	48	127
330.46562358276645	330.5701133786848	72	127
330.5817233560091	330.6746031746032	57	127
330.5817233560091	330.6746031746032	33	127
330.6746031746032	330.77909297052156	45	127
330.6746031746032	330.77909297052156	69	127
330.77909297052156	330.88358276643993	64	127
330.77909297052156	330.88358276643993	40	127
330.88358276643993	330.99968253968257	52	127
330.88358276643993	330.99968253968257	76	127
330.99968253968257	331.1157596371882	42	127
330.99968253968257	331.1157596371882	66	127
331.1157596371882	331.18544217687077	78	127
331.1157596371882	331.18544217687077	54	127
331.18544217687077	331.28993197278913	68	127
331.18544217687077	331.28993197278913	44	127
331.28993197278913	331.3944217687075	56	127
331.28993197278913	331.3944217687075	80	127
331.3944217687075	331.4873015873016	64	127
331.3944217687075	331.4873015873016	40	127
331.49891156462587	331.60340136054424	52	127
331.49891156462587	331.60340136054424	76	127
331.60340136054424	331.69628117913834	45	127
331.60340136054424	331.69628117913834	69	127
331.69628117913834	331.8007709750567	81	127
331.69628117913834	331.8007709750567	57	127
331.8007709750567	331.9052607709751	47	127
331.8007709750567	331.9052607709751	71	127
331.91687074829935	332.00975056689344	59	127
331.91687074829935	332.00975056689344	83	127
332.00975056689344	332.10263038548754	48	127
332.00975056689344	332.10263038548754	72	127
332.10263038548754	332.19551020408164	84	127
332.10263038548754	332.19551020408164	60	127
332.19551020408164	332.3	69	127
332.19551020408164	332.3	45	127
332.3	332.4044897959184	81	127
332.3	332.4044897959184	57	127
332.41609977324265	332.50897959183675	76	127
332.41609977324265	332.50897959183675	52	127
332.50897959183675	332.6134693877551	64	127
332.50897959183675	332.6134693877551	88	127
332.6134693877551	332.7179591836735	50	127
332.6134693877551	332.7179591836735	74	127
332.7179591836735	332.82244897959185	62	127
332.7179591836735	332.82244897959185	86	127
332.8340589569161	332.9385487528345	72	127
332.8340589569161	332.9385487528345	48	127
332.9385487528345	333.04303854875286	84	127
332.9385487528345	333.04303854875286	60	127
333.04303854875286	333.14752834467123	47	127
333.04303854875286	333.14752834467123	71	127
333.14752834467123	333.2519954648526	83	127
333.14752834467123	333.2519954648526	59	127
333.2519954648526	333.3681179138322	45	127
333.2519954648526	333.3681179138322	69	127
333.3681179138322	333.46097505668934	57	127
333.3681179138322	333.46097505668934	81	127
333.46097505668934	333.55387755102043	43	127
333.46097505668934	333.55387755102043	67	127
333.55387755102043	333.6583673469388	79	127
333.55387755102043	333.6583673469388	55	127
333.6583673469388	333.7628344671202	41	127
333.6583673469388	333.7628344671202	65	127
333.77444444444444	333.86732426303854	53	127
333.77444444444444	333.86732426303854	77	127
333.86732426303854	333.9718140589569	40	127
333.86732426303854	333.9718140589569	64	127
333.9718140589569	334.064716553288	52	127
333.9718140589569	334.064716553288	76	127
334.064716553288	334.1692063492064	38	127
334.064716553288	334.1692063492064	62	127
334.18079365079365	334.285283446712	74	127
334.18079365079365	334.285283446712	50	127
334.285283446712	334.3781632653061	36	127
334.285283446712	334.3781632653061	60	127
334.3781632653061	334.4826530612245	72	127
334.3781632653061	334.4826530612245	48	127
334.4826530612245	334.58714285714285	35	127
334.4826530612245	334.58714285714285	59	127
334.58714285714285	334.70326530612243	47	127
334.58714285714285	334.70326530612243	71	127
334.70326530612243	334.8077551020408	33	127
334.70326530612243	334.8077551020408	57	127
334.8077551020408	334.91224489795917	45	127
334.8077551020408	334.91224489795917	69	127
334.91224489795917	335.08639455782316	40	127
335.01673469387754	335.1212244897959	52	127
335.1212244897959	335.21410430839	56	127
335.21410430839	335.3185941043084	59	127
335.3185941043084	335.4114739229025	64	127
335.4114739229025	335.5275736961451	59	127
335.5275736961451	335.655283446712	56	127
335.5275736961451	335.655283446712	47	127
335.655283446712	335.77138321995466	52	127
335.655283446712	335.77138321995466	44	127
335.77138321995466	335.9687528344671	40	127
335.8874829931973	336.00358276643993	52	127
336.00358276643993	336.11965986394557	56	127
336.11965986394557	336.22414965986394	59	127
336.22414965986394	336.3286394557823	64	127
336.3286394557823	336.4331292517007	59	127
336.4331292517007	336.5608616780045	48	127
336.4331292517007	336.5608616780045	56	127
336.5608616780045	336.67696145124717	52	127
336.5608616780045	336.67696145124717	45	127
336.67696145124717	336.8511111111111	40	127
336.78145124716553	336.8859410430839	52	127
336.8859410430839	336.9904308390023	56	127
336.9904308390023	337.1065306122449	59	127
337.1065306122449	337.22263038548755	64	127
337.22263038548755	337.36195011337867	59	127
337.36195011337867	337.46643990929704	56	127
337.36195011337867	337.46643990929704	47	127
337.46643990929704	337.5825396825397	52	127
337.46643990929704	337.59414965986394	44	127
337.59414965986394	337.75666666666666	40	127
337.6986394557823	337.7915192743764	52	127
337.7915192743764	337.8960090702948	57	127
337.8960090702948	338.03532879818596	60	127
338.03532879818596	338.16301587301587	64	127
338.16301587301587	338.26750566893423	60	127
338.26750566893423	338.3836281179138	57	127
338.26750566893423	338.3836281179138	48	127
338.3836281179138	338.49972789115645	52	127
338.3836281179138	338.49972789115645	45	127
338.49972789115645	338.7087074829932	40	127
338.6158276643991	338.743537414966	52	127
338.743537414966	338.85963718820864	56	127
338.85963718820864	338.99895691609976	59	127
338.99895691609976	339.1150566893424	64	127
339.12666666666667	339.2543764172336	68	127
339.2543764172336	339.3472562358277	71	127
339.3472562358277	339.44013605442177	52	127
339.3472562358277	339.44013605442177	76	127
339.44013605442177	339.62589569160997	40	127
339.5562358276644	339.67233560090705	54	127
339.67233560090705	339.7768253968254	57	127
339.7768253968254	339.8813151927438	60	127
339.8813151927438	339.98580498866215	66	127
339.98580498866215	340.067074829932	69	127
340.07868480725625	340.1831746031746	72	127
340.1831746031746	340.29927437641726	52	127
340.1831746031746	340.29927437641726	78	127
340.29927437641726	340.4734240362812	40	127
340.3805442176871	340.4966439909297	56	127
340.508253968254	340.61272108843536	59	127
340.61272108843536	340.71721088435373	62	127
340.71721088435373	340.8217006802721	68	127
340.8217006802721	340.9378231292517	71	127
340.9378231292517	341.0655328798186	74	127
341.0655328798186	341.17002267573696	80	127
341.0655328798186	341.17002267573696	52	127
341.17002267573696	341.35578231292516	40	127
341.2861224489796	341.39061224489797	57	127
341.39061224489797	341.5067120181406	60	127
341.5183219954649	341.62281179138324	64	127
341.62281179138324	341.7273015873016	69	127
341.7273015873016	341.83179138322	72	127
341.83179138322	341.93628117913835	76	127
341.9478684807256	342.0639909297052	52	127
341.9478684807256	342.0639909297052	81	127
342.0639909297052	342.3774603174603	40	127
342.0639909297052	342.2845804988662	86	127
342.2845804988662	342.4587074829932	89	127
342.4587074829932	342.5748299319728	86	127
342.5748299319728	342.67931972789114	84	127
342.67931972789114	342.7954195011338	83	127
342.7954195011338	342.9115192743764	86	127
342.9115192743764	343.02761904761905	83	127
343.02761904761905	343.1321088435374	81	127
343.1321088435374	343.2365986394558	80	127
343.2365986394558	343.35269841269843	83	127
343.35269841269843	343.48038548752834	77	127
343.48038548752834	343.57328798185944	76	127
343.57328798185944	343.66616780045354	74	127
343.66616780045354	343.7822448979592	77	127
343.7822448979592	343.89836734693876	74	127
343.89836734693876	344.0144671201814	72	127
344.0144671201814	344.13056689342403	71	127
344.13056689342403	344.2698866213152	74	127
344.2698866213152	344.38598639455785	71	127
344.38598639455785	344.52530612244897	69	127
344.52530612244897	344.6414058956916	68	127
344.52530612244897	345.01290249433106	52	127
344.52530612244897	345.01290249433106	62	127
344.52530612244897	345.01290249433106	59	127
344.6414058956916	344.7807256235828	77	127
344.7807256235828	344.9316553287982	74	127
344.94326530612244	345.0825850340136	72	127
345.0825850340136	345.5934240362812	59	127
345.0825850340136	345.5934240362812	52	127
345.0825850340136	345.5934240362812	62	127
345.0825850340136	345.2102947845805	71	127
345.2218820861678	345.3612244897959	74	127
345.3728344671202	345.51215419501136	71	127
345.52374149659863	345.6863038548753	69	127
345.6863038548753	346.24356009070294	62	127
345.6863038548753	345.83721088435374	68	127
345.6863038548753	346.24356009070294	59	127
345.6863038548753	346.24356009070294	52	127
345.83721088435374	345.9997732426304	74	127
345.9997732426304	346.16231292517006	71	127
346.16231292517006	346.3248526077098	69	127
346.3248526077098	349.3666666666667	59	127
346.3248526077098	349.3666666666667	62	127
346.3248526077098	349.3666666666667	68	127
346.3248526077098	349.3666666666667	52	127
349.4479365079365	349.7730158730159	80	127
349.4479365079365	349.7730158730159	68	127
349.7730158730159	350.15614512471655	81	127
349.7730158730159	349.9587755102041	33	127
349.7730158730159	350.15614512471655	69	127
350.2141950113379	351.10816326530613	69	127
350.2141950113379	351.10816326530613	57	127
350.56249433106575	350.6785941043084	45	127
350.6785941043084	350.8527437641723	33	127
351.10816326530613	351.4912925170068	56	127
351.10816326530613	351.4912925170068	68	127
351.4332426303855	351.5377324263039	45	127
351.5377324263039	351.897641723356	55	127
351.5377324263039	351.897641723356	67	127
351.5377324263039	351.70027210884354	33	127
351.9440816326531	352.8148299319728	67	127
351.9440816326531	352.8148299319728	79	127
352.2575510204082	352.36204081632656	45	127
352.36204081632656	352.559410430839	33	127
352.8148299319728	353.1979365079365	65	127
352.8148299319728	353.1979365079365	77	127
353.13990929705216	353.2560090702948	45	127
353.2560090702948	353.67396825396827	61	127
353.2560090702948	353.67396825396827	73	127
353.2560090702948	353.67396825396827	33	127
355.4851247165533	356.1933333333333	57	127
355.4851247165533	356.1933333333333	64	127
355.4851247165533	356.1933333333333	67	127
355.4851247165533	356.1933333333333	52	127
355.4851247165533	356.1933333333333	55	127
355.4851247165533	356.1933333333333	45	127
355.4851247165533	356.1933333333333	61	127
356.2513832199547	356.69256235827663	57	127
356.2513832199547	356.69256235827663	61	127
356.2513832199547	356.69256235827663	64	127
356.2513832199547	356.69256235827663	45	127
356.2513832199547	356.69256235827663	52	127
356.2513832199547	356.69256235827663	55	127
356.2513832199547	356.69256235827663	67	127
356.76222222222225	357.238231292517	57	127
356.76222222222225	357.238231292517	64	127
356.76222222222225	357.238231292517	67	127
356.76222222222225	357.238231292517	45	127
356.76222222222225	357.238231292517	52	127
356.76222222222225	357.238231292517	55	127
356.76222222222225	357.238231292517	61	127
357.3078911564626	360.93020408163267	61	127
357.3078911564626	360.93020408163267	67	127
357.3078911564626	360.93020408163267	45	127
357.3078911564626	360.93020408163267	52	127
357.3078911564626	360.93020408163267	57	127
357.3078911564626	360.93020408163267	55	127
357.3078911564626	360.93020408163267	64	127
361.0114739229025	361.650022675737	69	127
361.650022675737	364.5292970521542	31	127
361.650022675737	364.5292970521542	58	127
361.650022675737	364.5292970521542	62	127
361.650022675737	364.5292970521542	67	127
361.650022675737	364.5292970521542	70	127
361.650022675737	364.5292970521542	43	127
361.650022675737	364.5292970521542	38	127
364.5873469387755	365.45807256235827	69	127
365.45807256235827	366.1314739229025	58	127
365.45807256235827	366.1314739229025	50	127
365.45807256235827	366.1314739229025	43	127
365.45807256235827	366.1314739229025	70	127
365.45807256235827	366.1314739229025	62	127
365.45807256235827	366.1314739229025	55	127
366.2591836734694	366.51460317460317	50	127
366.2591836734694	366.51460317460317	46	127
366.2591836734694	366.51460317460317	62	127
366.2591836734694	366.51460317460317	55	127
366.51460317460317	366.7235827664399	57	127
366.51460317460317	366.7235827664399	45	127
366.51460317460317	366.7235827664399	61	127
366.51460317460317	366.7235827664399	52	127
366.7584126984127	366.8280725623583	57	127
366.990589569161	367.0486621315193	57	127
367.21120181405894	367.43179138321995	61	127
367.43179138321995	367.59433106575966	50	127
367.43179138321995	367.46662131519275	62	127
367.43179138321995	367.59433106575966	38	127
367.6291609977324	367.68721088435376	57	127
367.8613605442177	367.8961904761905	57	127
368.0703401360544	368.29092970521543	62	127
368.29092970521543	368.33736961451245	64	127
368.29092970521543	368.47668934240363	33	127
368.29092970521543	368.47668934240363	45	127
368.5231065759637	368.55795918367346	57	127
368.74371882086166	368.801768707483	57	127
368.9526984126984	369.1732879818594	64	127
369.1732879818594	369.37065759637187	50	127
369.1732879818594	369.23133786848075	65	127
369.1732879818594	369.37065759637187	38	127
369.4054875283447	369.46353741496597	62	127
369.6144671201814	369.6725170068027	62	127
369.8350566893424	369.8698866213152	65	127
370.0672335600907	370.2414058956916	50	127
370.0672335600907	370.2414058956916	38	127
370.0672335600907	370.125306122449	65	127
370.2762358276644	370.3342857142857	62	127
370.5200453514739	370.7174149659864	50	127
370.5200453514739	370.7174149659864	38	127
370.5200453514739	370.5780725623583	62	127
370.76385487528347	370.82190476190476	65	127
371.1702040816327	372.2267120181406	67	127
371.1702040816327	371.4024036281179	48	127
371.1702040816327	371.4024036281179	36	127
372.2847619047619	373.19034013605443	67	127
372.2847619047619	373.19034013605443	60	127
372.2847619047619	373.19034013605443	64	127
372.2847619047619	373.19034013605443	36	127
372.2847619047619	373.19034013605443	40	127
372.2847619047619	373.19034013605443	43	127
372.2847619047619	373.19034013605443	48	127
372.2847619047619	373.19034013605443	72	127
373.26	374.8970068027211	69	127
373.26	374.8970068027211	53	127
373.26	374.8970068027211	48	127
373.26	374.8970068027211	45	127
373.26	374.8970068027211	41	127
373.26	374.8970068027211	60	127
373.26	374.8970068027211	65	127
373.26	374.8970068027211	57	127
374.9550566893424	378.71668934240364	69	127
378.71668934240364	379.3900680272109	70	127
379.49455782312924	379.7848072562358	69	127
379.49455782312924	379.7848072562358	66	127
379.7848072562358	380.46979591836737	67	127
379.7848072562358	380.46979591836737	70	127
380.57428571428574	380.84131519274376	66	127
380.57428571428574	380.84131519274376	69	127
380.84131519274376	381.514693877551	67	127
380.84131519274376	381.514693877551	70	127
381.5843537414966	381.8629931972789	66	127
381.5843537414966	381.8629931972789	69	127
381.8629931972789	382.5828117913832	70	127
381.8629931972789	382.5828117913832	67	127
382.6408616780045	382.94272108843535	60	127
382.6408616780045	382.94272108843535	67	127
382.6408616780045	382.94272108843535	70	127
382.94272108843535	383.6393197278912	65	127
382.94272108843535	383.6393197278912	69	127
382.94272108843535	383.6393197278912	53	127
383.69736961451247	383.97600907029477	70	127
383.69736961451247	383.97600907029477	48	127
383.69736961451247	384.61455782312925	60	127
383.69736961451247	383.97600907029477	67	127
383.97600907029477	384.61455782312925	65	127
383.97600907029477	384.61455782312925	69	127
383.97600907029477	384.61455782312925	41	127
384.6726077097506	384.96285714285716	67	127
384.6726077097506	384.96285714285716	36	127
384.6726077097506	385.6014058956916	60	127
384.6726077097506	384.96285714285716	70	127
384.96285714285716	385.6014058956916	69	127
384.96285714285716	385.6014058956916	65	127
384.96285714285716	385.6014058956916	29	127
385.65945578231293	385.9032653061224	36	127
385.65945578231293	385.9032653061224	67	127
385.65945578231293	386.11224489795916	60	127
385.65945578231293	385.9032653061224	70	127
385.9032653061224	386.11224489795916	69	127
385.9032653061224	386.11224489795916	41	127
385.9032653061224	386.11224489795916	65	127
386.14707482993197	386.37927437641724	67	127
386.14707482993197	386.5766439909297	60	127
386.14707482993197	386.37927437641724	36	127
386.14707482993197	386.37927437641724	70	127
386.37927437641724	386.5766439909297	41	127
386.37927437641724	386.5766439909297	65	127
386.37927437641724	386.5766439909297	69	127
386.62308390022673	386.855283446712	57	127
386.62308390022673	386.855283446712	61	127
386.62308390022673	386.855283446712	69	127
386.62308390022673	386.855283446712	33	127
386.62308390022673	386.855283446712	45	127
386.62308390022673	386.855283446712	67	127
386.8901133786848	387.50544217687076	50	127
386.8901133786848	387.50544217687076	38	127
386.8901133786848	387.50544217687076	69	127
386.8901133786848	387.50544217687076	65	127
386.8901133786848	387.50544217687076	62	127
386.8901133786848	387.50544217687076	57	127
387.5751020408163	387.7608616780045	53	127
387.5751020408163	387.7608616780045	57	127
387.5751020408163	387.7608616780045	62	127
387.5751020408163	387.7608616780045	41	127
387.7608616780045	387.87696145124715	64	127
387.7608616780045	387.87696145124715	52	127
387.7608616780045	387.87696145124715	59	127
387.7608616780045	387.87696145124715	40	127
387.7608616780045	387.87696145124715	56	127
388.55034013605444	388.666439909297	64	127
388.55034013605444	388.666439909297	60	127
388.55034013605444	388.666439909297	57	127
388.55034013605444	388.666439909297	45	127
388.55034013605444	388.666439909297	33	127
389.32820861678005	389.4443083900227	64	127
389.32820861678005	389.4443083900227	59	127
389.32820861678005	389.4443083900227	40	127
389.32820861678005	389.4443083900227	52	127
389.32820861678005	389.4443083900227	56	127
390.10607709750565	390.2570068027211	64	127
390.10607709750565	390.2570068027211	33	127
390.10607709750565	390.2570068027211	45	127
390.10607709750565	390.2570068027211	57	127
390.10607709750565	390.2570068027211	60	127
390.90716553287984	391.04648526077096	57	127
390.90716553287984	391.04648526077096	33	127
390.90716553287984	391.04648526077096	45	127
390.90716553287984	391.04648526077096	64	127
390.90716553287984	391.04648526077096	60	127
391.26707482993197	391.46444444444444	60	127
391.26707482993197	391.46444444444444	64	127
391.26707482993197	391.46444444444444	33	127
391.26707482993197	391.46444444444444	45	127
391.26707482993197	391.46444444444444	57	127
391.71986394557825	391.9172335600907	67	127
391.71986394557825	391.9172335600907	59	127
391.71986394557825	391.9172335600907	31	127
391.71986394557825	391.9172335600907	43	127
391.71986394557825	391.9172335600907	62	127
392.68349206349205	392.90408163265306	55	127
392.68349206349205	392.90408163265306	62	127
392.68349206349205	392.90408163265306	67	127
392.68349206349205	392.90408163265306	31	127
392.68349206349205	392.90408163265306	43	127
392.68349206349205	392.90408163265306	59	127
393.7051700680272	395.9110657596372	64	127
393.7051700680272	395.9110657596372	36	127
393.7051700680272	395.9110657596372	43	127
393.7051700680272	395.9110657596372	48	127
393.7051700680272	395.9110657596372	55	127
393.7051700680272	395.9110657596372	60	127
395.95750566893423	397.095283446712	62	127
395.95750566893423	397.095283446712	67	127
395.95750566893423	397.095283446712	74	127
395.95750566893423	397.095283446712	47	127
395.95750566893423	397.095283446712	50	127
395.95750566893423	397.095283446712	55	127
395.95750566893423	397.095283446712	43	127
395.95750566893423	397.095283446712	71	127
397.11850340136056	397.93120181405897	43	127
397.11850340136056	397.93120181405897	38	127
397.11850340136056	397.93120181405897	35	127
397.11850340136056	397.93120181405897	31	127
397.11850340136056	397.93120181405897	79	127
397.11850340136056	397.93120181405897	74	127
397.11850340136056	397.93120181405897	71	127
397.11850340136056	397.93120181405897	67	127
397.98925170068026	398.20984126984126	48	127
397.98925170068026	398.20984126984126	43	127
397.98925170068026	398.20984126984126	64	127
397.98925170068026	398.20984126984126	67	127
397.98925170068026	398.20984126984126	72	127
397.98925170068026	398.20984126984126	36	127
397.98925170068026	398.20984126984126	40	127
397.98925170068026	398.20984126984126	76	127
399.4288888888889	399.81201814058954	57	127
399.4288888888889	399.81201814058954	76	127
399.4288888888889	399.81201814058954	45	127
399.4288888888889	399.81201814058954	49	127
399.4288888888889	399.81201814058954	69	127
399.4288888888889	399.81201814058954	73	127
399.4288888888889	399.81201814058954	52	127
399.4288888888889	399.81201814058954	64	127
399.8700680272109	400.67115646258503	62	127
399.8700680272109	400.67115646258503	65	127
399.8700680272109	400.67115646258503	69	127
399.8700680272109	400.67115646258503	74	127
399.8700680272109	400.67115646258503	77	127
399.8700680272109	400.67115646258503	50	127
399.8700680272109	400.67115646258503	53	127
399.8700680272109	400.67115646258503	57	127
400.7292063492063	401.51868480725625	53	127
400.7292063492063	401.51868480725625	50	127
400.7292063492063	401.51868480725625	45	127
400.7292063492063	401.51868480725625	81	127
400.7292063492063	401.51868480725625	86	127
400.7292063492063	401.51868480725625	74	127
400.7292063492063	401.51868480725625	41	127
401.57673469387754	401.7857142857143	80	127
401.57673469387754	401.7857142857143	52	127
401.57673469387754	401.7857142857143	47	127
401.57673469387754	401.7857142857143	44	127
401.57673469387754	401.7857142857143	40	127
401.57673469387754	401.7857142857143	83	127
401.57673469387754	401.7857142857143	74	127
402.7725623582766	403.20213151927436	40	127
402.7725623582766	403.20213151927436	52	127
402.7725623582766	403.20213151927436	80	127
402.7725623582766	403.20213151927436	68	127
402.7725623582766	403.20213151927436	74	127
403.20213151927436	403.38789115646256	69	127
403.20213151927436	403.38789115646256	72	127
403.20213151927436	403.38789115646256	53	127
403.20213151927436	403.38789115646256	81	127
403.20213151927436	403.38789115646256	41	127
403.42272108843537	403.5968707482993	53	127
403.6317006802721	404.1773696145125	72	127
403.6317006802721	403.79424036281176	53	127
403.6317006802721	404.1773696145125	60	127
403.8174603174603	403.96839002267575	53	127
404.0032199546485	404.1773696145125	41	127
404.0032199546485	404.1773696145125	53	127
404.21219954648524	404.421179138322	60	127
404.21219954648524	404.421179138322	72	127
404.21219954648524	404.3863492063492	53	127
404.421179138322	404.65337868480725	62	127
404.421179138322	404.65337868480725	74	127
404.421179138322	404.61854875283444	53	127
404.65337868480725	404.81591836734697	75	127
404.65337868480725	404.81591836734697	63	127
404.65337868480725	404.81591836734697	53	127
404.8507482993197	405.00167800453517	40	127
404.8507482993197	405.0365079365079	76	127
404.8507482993197	405.0365079365079	64	127
405.0365079365079	405.2222675736962	52	127
405.0365079365079	405.09455782312926	72	127
405.0365079365079	405.09455782312926	60	127
405.2570975056689	405.303537414966	57	127
405.2570975056689	405.40802721088437	52	127
405.2570975056689	405.303537414966	69	127
405.43124716553285	405.4892970521542	57	127
405.43124716553285	405.55895691609976	52	127
405.43124716553285	405.4892970521542	69	127
405.60539682539684	405.8027664399093	62	127
405.60539682539684	405.8027664399093	74	127
405.60539682539684	405.7679365079365	40	127
405.8027664399093	405.8492063492063	71	127
405.8027664399093	405.96530612244896	52	127
405.8027664399093	405.8492063492063	59	127
406.0001360544218	406.16267573696143	52	127
406.0001360544218	406.05818594104306	56	127
406.0001360544218	406.05818594104306	68	127
406.19750566893424	406.3600453514739	52	127
406.19750566893424	406.25555555555553	56	127
406.19750566893424	406.25555555555553	68	127
406.3948752834467	406.51097505668935	45	127
406.3948752834467	406.5922448979592	69	127
406.5225850340136	406.5922448979592	57	127
406.627074829932	406.7199546485261	60	127
406.7199546485261	406.82444444444445	57	127
406.82444444444445	406.8708843537415	60	127
406.8708843537415	406.9869841269841	57	127
406.9869841269841	407.0798639455782	60	127
407.0798639455782	407.1843537414966	57	127
407.1843537414966	407.26562358276647	60	127
407.26562358276647	407.38172335600905	57	127
407.3933333333333	407.4978231292517	60	127
407.4978231292517	407.5907029478458	57	127
407.5907029478458	407.6835827664399	60	127
407.6835827664399	407.76485260770977	57	127
407.77646258503404	407.86934240362814	60	127
407.86934240362814	407.95061224489797	57	127
407.95061224489797	408.05510204081634	33	127
407.95061224489797	408.05510204081634	69	127
408.05510204081634	408.1595918367347	45	127
408.05510204081634	408.1595918367347	81	127
408.1595918367347	408.2640816326531	44	127
408.1595918367347	408.2640816326531	80	127
408.27569160997734	408.3801814058957	81	127
408.27569160997734	408.3801814058957	45	127
408.3801814058957	408.4846712018141	69	127
408.3801814058957	408.4846712018141	33	127
408.4846712018141	408.55433106575964	81	127
408.4846712018141	408.55433106575964	45	127
408.55433106575964	408.64721088435374	35	127
408.55433106575964	408.64721088435374	71	127
408.658820861678	408.7633106575964	81	127
408.658820861678	408.7633106575964	45	127
408.7633106575964	408.8561904761905	72	127
408.7633106575964	408.8561904761905	36	127
408.8561904761905	408.96068027210885	45	127
408.8561904761905	408.96068027210885	81	127
408.96068027210885	409.0303401360544	71	127
408.96068027210885	409.0303401360544	35	127
409.0419501133787	409.1348299319728	81	127
409.0419501133787	409.1348299319728	45	127
409.1348299319728	409.2277097505669	72	127
409.1348299319728	409.2277097505669	36	127
409.2277097505669	409.33219954648524	45	127
409.2277097505669	409.33219954648524	81	127
409.33219954648524	409.40185941043086	33	127
409.33219954648524	409.40185941043086	69	127
409.40185941043086	409.49473922902496	81	127
409.40185941043086	409.49473922902496	45	127
409.5063492063492	409.5992290249433	40	127
409.5063492063492	409.6572789115646	76	127
409.5063492063492	409.5992290249433	52	127
409.5992290249433	409.6921088435374	56	127
409.6921088435374	409.73854875283445	59	127
409.73854875283445	409.7965986394558	56	127
409.7965986394558	409.8778684807256	59	127
409.8778684807256	409.95913832199545	56	127
409.95913832199545	410.0636281179138	59	127
410.0636281179138	410.1681179138322	56	127
410.1681179138322	410.28421768707483	59	127
410.28421768707483	410.3887074829932	56	127
410.3887074829932	410.49319727891157	59	127
410.49319727891157	410.59768707482993	56	127
410.59768707482993	410.7137868480726	59	127
410.7370068027211	410.8414965986395	56	127
410.8414965986395	410.91115646258504	59	127
410.91115646258504	411.00403628117914	56	127
411.00403628117914	411.1085260770975	76	127
411.00403628117914	411.1085260770975	40	127
411.1201360544218	411.2362358276644	52	127
411.1201360544218	411.2362358276644	88	127
411.2362358276644	411.3407256235828	87	127
411.2362358276644	411.3407256235828	51	127
411.3407256235828	411.44521541950115	88	127
411.3407256235828	411.44521541950115	52	127
411.44521541950115	411.53809523809525	76	127
411.44521541950115	411.53809523809525	40	127
411.53809523809525	411.63097505668935	52	127
411.53809523809525	411.63097505668935	88	127
411.6425850340136	411.7354648526077	77	127
411.6425850340136	411.7354648526077	41	127
411.7354648526077	411.81673469387755	53	127
411.7354648526077	411.81673469387755	89	127
411.81673469387755	411.8980045351474	40	127
411.81673469387755	411.8980045351474	76	127
411.8980045351474	412.00249433106575	88	127
411.8980045351474	412.00249433106575	52	127
412.01410430839	412.1069841269841	74	127
412.01410430839	412.1069841269841	38	127
412.1069841269841	412.2114739229025	50	127
412.1069841269841	412.2114739229025	86	127
412.2114739229025	412.31596371882085	72	127
412.2114739229025	412.31596371882085	36	127
412.31596371882085	412.40884353741495	84	127
412.31596371882085	412.40884353741495	48	127
412.4204535147392	412.5249433106576	35	127
412.4204535147392	412.5249433106576	71	127
412.5249433106576	412.64104308390023	47	127
412.5249433106576	412.64104308390023	83	127
412.64104308390023	412.7455328798186	69	127
412.64104308390023	412.8035827664399	33	127
412.64104308390023	412.8035827664399	45	127
412.7455328798186	412.8384126984127	81	127
412.8384126984127	412.9312925170068	80	127
412.94290249433107	413.04739229024943	81	127
413.04739229024943	413.1518820861678	69	127
413.1518820861678	413.25637188208617	81	127
413.25637188208617	413.32603174603173	71	127
413.337641723356	413.4305215419501	81	127
413.4305215419501	413.53501133786847	72	127
413.53501133786847	413.63950113378684	81	127
413.63950113378684	413.73238095238094	74	127
413.73238095238094	413.8484807256236	81	127
413.8484807256236	413.9297505668934	72	127
413.9297505668934	414.0342403628118	81	127
414.0342403628118	414.13873015873014	71	127
414.13873015873014	414.2432199546485	81	127
414.2432199546485	414.3360997732426	33	127
414.2432199546485	414.39414965986396	69	127
414.3360997732426	414.4173696145125	45	127
414.4173696145125	414.5102494331066	44	127
414.5102494331066	414.61473922902496	45	127
414.62634920634923	414.7308390022676	33	127
414.7308390022676	414.81210884353743	45	127
414.81210884353743	414.881768707483	35	127
414.881768707483	414.9746485260771	45	127
414.9746485260771	415.0559183673469	36	127
415.0675283446712	415.17201814058956	45	127
415.17201814058956	415.2532879818594	35	127
415.2532879818594	415.3345578231293	45	127
415.3345578231293	415.43904761904764	36	127
415.45065759637185	415.5551473922902	45	127
415.5551473922902	415.6596371882086	33	127
415.6596371882086	415.76412698412696	45	127
415.76412698412696	415.86861678004533	76	127
415.76412698412696	415.9731065759637	40	127
415.8802267573696	416.0079365079365	88	127
416.0079365079365	416.1124263038549	87	127
416.1124263038549	416.1936961451247	88	127
416.1936961451247	416.27496598639453	76	127
416.27496598639453	416.3794557823129	88	127
416.3910657596372	416.49555555555554	78	127
416.49555555555554	416.57682539682537	88	127
416.57682539682537	416.65809523809526	80	127
416.65809523809526	416.7625850340136	88	127
416.7741950113379	416.87868480725626	81	127
416.87868480725626	416.9599546485261	88	127
416.9599546485261	417.0528344671202	83	127
417.0528344671202	417.15732426303856	88	127
417.15732426303856	417.25020408163266	80	127
417.25020408163266	417.35469387755103	88	127
417.35469387755103	417.5172335600907	76	127
417.35469387755103	417.4591836734694	40	127
417.4591836734694	417.5520634920635	52	127
417.5520634920635	417.6449433106576	51	127
417.65655328798186	417.76104308390023	52	127
417.76104308390023	417.8190929705215	40	127
417.8190929705215	417.9235827664399	52	127
417.9235827664399	417.98163265306124	41	127
417.9932426303855	418.0977324263039	53	127
418.0977324263039	418.20222222222225	40	127
418.20222222222225	418.3067120181406	52	127
418.3067120181406	418.411201814059	38	127
418.411201814059	418.4924716553288	50	127
418.5040816326531	418.60857142857145	36	127
418.60857142857145	418.7130612244898	48	127
418.7130612244898	418.7827210884354	35	127
418.7827210884354	418.88721088435375	47	127
418.898820861678	418.9684807256236	33	127
418.898820861678	418.9684807256236	45	127
418.898820861678	418.9684807256236	57	127
418.9684807256236	419.0497505668934	48	127
418.9684807256236	419.0497505668934	60	127
419.0497505668934	419.1542403628118	52	127
419.0497505668934	419.1542403628118	64	127
419.1542403628118	419.2471201814059	48	127
419.1542403628118	419.2471201814059	60	127
419.25873015873015	419.38643990929705	64	127
419.25873015873015	419.38643990929705	52	127
419.38643990929705	419.4909297052154	60	127
419.38643990929705	419.4909297052154	48	127
419.4909297052154	419.6302494331066	57	127
419.4909297052154	419.6302494331066	45	127
419.6302494331066	419.7463492063492	48	127
419.6302494331066	419.7463492063492	60	127
419.7463492063492	419.85083900226755	45	127
419.7463492063492	419.85083900226755	57	127
419.8624489795918	419.9553287981859	48	127
419.8624489795918	419.9553287981859	60	127
419.9553287981859	420.0482086167801	53	127
419.9553287981859	420.0482086167801	65	127
420.0482086167801	420.1294784580499	48	127
420.0482086167801	420.1294784580499	60	127
420.1294784580499	420.19913832199546	53	127
420.1294784580499	420.19913832199546	65	127
420.21074829931973	420.33845804988664	60	127
420.21074829931973	420.33845804988664	48	127
420.33845804988664	420.442947845805	45	127
420.33845804988664	420.442947845805	57	127
420.442947845805	420.55904761904765	60	127
420.442947845805	420.55904761904765	48	127
420.55904761904765	420.66353741496596	59	127
420.55904761904765	420.66353741496596	47	127
420.66353741496596	420.7796371882086	62	127
420.66353741496596	420.7796371882086	50	127
420.7796371882086	420.88412698412696	65	127
420.7796371882086	420.88412698412696	53	127
420.88412698412696	421.0118367346939	55	127
420.88412698412696	421.0118367346939	67	127
421.0118367346939	421.11632653061224	59	127
421.0118367346939	421.11632653061224	71	127
421.11632653061224	421.2208163265306	62	127
421.11632653061224	421.2208163265306	74	127
421.2324263038549	421.325306122449	65	127
421.2324263038549	421.325306122449	77	127
421.325306122449	421.42979591836735	62	127
421.325306122449	421.42979591836735	74	127
421.42979591836735	421.5110657596372	77	127
421.42979591836735	421.5110657596372	65	127
421.5110657596372	421.592335600907	74	127
421.5110657596372	421.592335600907	62	127
421.592335600907	421.6736054421769	59	127
421.592335600907	421.6736054421769	71	127
421.6736054421769	421.766485260771	55	127
421.6736054421769	421.766485260771	67	127
421.766485260771	421.88258503401363	65	127
421.766485260771	421.88258503401363	53	127
421.88258503401363	421.96385487528346	67	127
421.88258503401363	421.96385487528346	55	127
421.96385487528346	422.0683446712018	53	127
421.96385487528346	422.0683446712018	65	127
422.0799546485261	422.18444444444447	62	127
422.0799546485261	422.18444444444447	50	127
422.18444444444447	422.2657142857143	60	127
422.18444444444447	422.2657142857143	48	127
422.2657142857143	422.37020408163266	52	127
422.2657142857143	422.37020408163266	64	127
422.37020408163266	422.47469387755103	55	127
422.37020408163266	422.47469387755103	67	127
422.4863038548753	422.59079365079367	64	127
422.4863038548753	422.59079365079367	52	127
422.59079365079367	422.7068934240363	55	127
422.59079365079367	422.7068934240363	67	127
422.7068934240363	422.8113832199546	52	127
422.7068934240363	422.8113832199546	64	127
422.8113832199546	422.915873015873	60	127
422.8113832199546	422.915873015873	48	127
422.92748299319726	422.97392290249434	64	127
422.92748299319726	422.97392290249434	52	127
422.97392290249434	423.0784126984127	61	127
422.97392290249434	423.0784126984127	49	127
423.0784126984127	423.15968253968254	52	127
423.0784126984127	423.15968253968254	64	127
423.15968253968254	423.24095238095236	57	127
423.15968253968254	423.24095238095236	69	127
423.24095238095236	423.34544217687073	64	127
423.24095238095236	423.34544217687073	52	127
423.357052154195	423.46154195011337	69	127
423.357052154195	423.46154195011337	57	127
423.46154195011337	423.56603174603174	52	127
423.46154195011337	423.56603174603174	64	127
423.56603174603174	423.64730158730157	61	127
423.56603174603174	423.64730158730157	49	127
423.64730158730157	423.72857142857146	52	127
423.64730158730157	423.72857142857146	64	127
423.74018140589567	423.84467120181404	50	127
423.74018140589567	423.84467120181404	62	127
423.84467120181404	423.9491609977324	65	127
423.84467120181404	423.9491609977324	53	127
423.9491609977324	424.0536507936508	57	127
423.9491609977324	424.0536507936508	69	127
424.0536507936508	424.13492063492066	65	127
424.0536507936508	424.13492063492066	53	127
424.13492063492066	424.25102040816324	63	127
424.13492063492066	424.25102040816324	51	127
424.25102040816324	424.34390022675734	54	127
424.25102040816324	424.34390022675734	66	127
424.34390022675734	424.4367800453515	59	127
424.34390022675734	424.4367800453515	71	127
424.4367800453515	424.54126984126987	54	127
424.4367800453515	424.54126984126987	66	127
424.54126984126987	424.64575963718823	52	127
424.54126984126987	424.64575963718823	64	127
424.65736961451245	424.7618594104308	67	127
424.65736961451245	424.7618594104308	55	127
424.7618594104308	424.8663492063492	59	127
424.7618594104308	424.8663492063492	71	127
424.8663492063492	424.97083900226755	67	127
424.8663492063492	424.97083900226755	55	127
424.97083900226755	425.0869387755102	71	127
424.97083900226755	425.0869387755102	52	127
425.09854875283446	425.20303854875283	67	127
425.09854875283446	425.20303854875283	55	127
425.20303854875283	425.3075283446712	60	127
425.20303854875283	425.3075283446712	64	127
425.3075283446712	425.37718820861676	67	127
425.3075283446712	425.37718820861676	55	127
425.37718820861676	425.4816780045351	65	127
425.37718820861676	425.4816780045351	53	127
425.4816780045351	425.5861678004535	57	127
425.4816780045351	425.5861678004535	69	127
425.59777777777776	425.7138775510204	60	127
425.59777777777776	425.7138775510204	72	127
425.7138775510204	425.79514739229023	57	127
425.7138775510204	425.79514739229023	69	127
425.79514739229023	425.88802721088433	66	127
425.79514739229023	425.88802721088433	54	127
425.88802721088433	425.9925170068027	57	127
425.88802721088433	425.9925170068027	69	127
426.00412698412697	426.10861678004534	62	127
426.00412698412697	426.10861678004534	74	127
426.10861678004534	426.2131065759637	69	127
426.10861678004534	426.2131065759637	57	127
426.2131065759637	426.3175963718821	55	127
426.2131065759637	426.3175963718821	67	127
426.3175963718821	426.4104761904762	71	127
426.3175963718821	426.4104761904762	59	127
426.42208616780044	426.51496598639454	62	127
426.42208616780044	426.51496598639454	74	127
426.51496598639454	426.5730158730159	59	127
426.51496598639454	426.5730158730159	71	127
426.5730158730159	426.67750566893426	68	127
426.5730158730159	426.67750566893426	56	127
426.67750566893426	426.7471655328798	71	127
426.67750566893426	426.7471655328798	59	127
426.7471655328798	426.8516553287982	64	127
426.7471655328798	426.8516553287982	74	127
426.86326530612246	426.9677551020408	59	127
426.86326530612246	426.9677551020408	71	127
426.9677551020408	427.0722448979592	57	127
426.9677551020408	427.0722448979592	69	127
427.0722448979592	427.153514739229	60	127
427.0722448979592	427.153514739229	72	127
427.153514739229	427.2580045351474	64	127
427.153514739229	427.2580045351474	76	127
427.26961451247166	427.3508843537415	60	127
427.26961451247166	427.3508843537415	72	127
427.3508843537415	427.45537414965986	59	127
427.3508843537415	427.45537414965986	71	127
427.45537414965986	427.5714739229025	74	127
427.45537414965986	427.5714739229025	62	127
427.5714739229025	427.67596371882087	80	127
427.5714739229025	427.67596371882087	68	127
427.67596371882087	427.7920634920635	62	127
427.67596371882087	427.7920634920635	74	127
427.7920634920635	427.8965532879819	72	127
427.7920634920635	427.8965532879819	60	127
427.8965532879819	427.96621315192743	76	127
427.8965532879819	427.96621315192743	64	127
427.96621315192743	428.04748299319726	69	127
427.96621315192743	428.04748299319726	81	127
428.04748299319726	428.14036281179136	64	127
428.04748299319726	428.14036281179136	76	127
428.15197278911563	428.23324263038546	75	127
428.15197278911563	428.23324263038546	63	127
428.23324263038546	428.33773242630383	66	127
428.23324263038546	428.33773242630383	78	127
428.33773242630383	428.4190022675737	69	127
428.33773242630383	428.4190022675737	81	127
428.4190022675737	428.5234920634921	63	127
428.4190022675737	428.5234920634921	75	127
428.53510204081635	428.62798185941045	64	127
428.53510204081635	428.62798185941045	76	127
428.62798185941045	428.7556916099773	68	127
428.62798185941045	428.7556916099773	80	127
428.7556916099773	428.8601814058957	71	127
428.7556916099773	428.8601814058957	83	127
428.8601814058957	428.96467120181404	84	127
428.8601814058957	428.96467120181404	68	127
428.96467120181404	429.0691609977324	65	127
428.96467120181404	429.0691609977324	86	127
429.0807709750567	429.1620408163265	83	127
429.0807709750567	429.1620408163265	68	127
429.1620408163265	429.2549206349206	71	127
429.1620408163265	429.2549206349206	80	127
429.2549206349206	429.359410430839	83	127
429.2549206349206	429.359410430839	68	127
429.359410430839	429.45229024943313	86	127
429.359410430839	429.45229024943313	65	127
429.46390022675735	429.5567800453515	68	127
429.46390022675735	429.5567800453515	83	127
429.5567800453515	429.63804988662133	71	127
429.5567800453515	429.63804988662133	80	127
429.63804988662133	429.7425396825397	68	127
429.63804988662133	429.7425396825397	83	127
429.7425396825397	429.8354195011338	65	127
429.7425396825397	429.8354195011338	86	127
429.8354195011338	429.95151927437644	68	127
429.8354195011338	429.95151927437644	83	127
429.95151927437644	430.0560090702948	80	127
429.95151927437644	430.0560090702948	71	127
430.0560090702948	430.13727891156464	68	127
430.0560090702948	430.13727891156464	83	127
430.13727891156464	430.18371882086166	65	127
430.13727891156464	430.18371882086166	86	127
430.18371882086166	430.28820861678	68	127
430.18371882086166	430.28820861678	83	127
430.2998185941043	430.3926984126984	80	127
430.2998185941043	430.3926984126984	71	127
430.3926984126984	430.4855782312925	83	127
430.3926984126984	430.4855782312925	68	127
430.4855782312925	430.63650793650794	52	127
430.4855782312925	430.57845804988665	86	127
430.57845804988665	430.67133786848075	83	127
430.68294784580496	430.85709750566895	64	127
430.68294784580496	430.76421768707485	80	127
430.76421768707485	430.85709750566895	74	127
430.85709750566895	430.9615873015873	84	127
430.85709750566895	431.0544671201814	57	127
430.9615873015873	431.0544671201814	81	127
431.0544671201814	431.2518367346939	69	127
431.0544671201814	431.1473469387755	76	127
431.1473469387755	431.2518367346939	81	127
431.2518367346939	431.4375963718821	51	127
431.2518367346939	431.344716553288	84	127
431.344716553288	431.4375963718821	81	127
431.4375963718821	431.6233560090703	63	127
431.4375963718821	431.54208616780045	78	127
431.5536961451247	431.6581859410431	72	127
431.6581859410431	431.832335600907	71	127
431.6581859410431	431.76267573696146	52	127
431.76267573696146	431.85555555555555	56	127
431.85555555555555	431.9716553287982	59	127
431.98326530612246	432.08775510204083	56	127
432.08775510204083	432.1922448979592	53	127
432.08775510204083	432.1922448979592	74	127
432.1922448979592	432.29673469387757	71	127
432.1922448979592	432.29673469387757	56	127
432.29673469387757	432.40122448979594	68	127
432.29673469387757	432.40122448979594	59	127
432.40122448979594	432.5057142857143	71	127
432.40122448979594	432.5057142857143	56	127
432.5173242630386	432.62181405895694	74	127
432.5173242630386	432.62181405895694	53	127
432.62181405895694	432.71469387755104	56	127
432.62181405895694	432.71469387755104	71	127
432.71469387755104	432.7959637188209	68	127
432.71469387755104	432.7959637188209	59	127
432.7959637188209	432.88884353741497	71	127
432.7959637188209	432.88884353741497	56	127
432.90045351473924	433.0049433106576	74	127
432.90045351473924	433.0049433106576	53	127
433.0049433106576	433.08621315192744	71	127
433.0049433106576	433.08621315192744	56	127
433.08621315192744	433.16748299319727	59	127
433.08621315192744	433.16748299319727	68	127
433.16748299319727	433.27197278911564	71	127
433.16748299319727	433.27197278911564	56	127
433.27197278911564	433.3880725623583	53	127
433.27197278911564	433.3880725623583	74	127
433.3880725623583	433.44612244897957	56	127
433.3880725623583	433.44612244897957	71	127
433.44612244897957	433.55061224489793	68	127
433.44612244897957	433.55061224489793	59	127
433.55061224489793	433.6551020408163	56	127
433.55061224489793	433.6551020408163	71	127
433.6551020408163	433.86408163265304	40	127
433.6551020408163	433.75959183673467	74	127
433.77120181405894	433.86408163265304	71	127
433.86408163265304	433.99179138321995	52	127
433.86408163265304	433.9221315192744	68	127
433.9221315192744	433.99179138321995	62	127
433.99179138321995	434.0962811791383	72	127
433.99179138321995	434.21238095238095	45	127
434.1078911564626	434.21238095238095	69	127
434.21238095238095	434.4097505668934	57	127
434.21238095238095	434.30526077097505	64	127
434.30526077097505	434.4097505668934	69	127
434.4097505668934	434.63034013605443	39	127
434.4097505668934	434.5142403628118	72	127
434.5142403628118	434.63034013605443	69	127
434.63034013605443	434.80448979591836	51	127
434.63034013605443	434.7348299319728	66	127
434.7348299319728	434.83931972789117	60	127
434.83931972789117	435.0134693877551	59	127
434.83931972789117	434.93219954648526	40	127
434.93219954648526	435.02507936507936	44	127
435.03668934240363	435.12956916099773	47	127
435.12956916099773	435.22244897959183	52	127
435.22244897959183	435.31532879818593	48	127
435.31532879818593	435.40820861678003	52	127
435.40820861678003	435.50108843537413	48	127
435.50108843537413	435.6055782312925	45	127
435.6055782312925	435.6984580498866	40	127
435.6984580498866	435.79133786848075	44	127
435.79133786848075	435.8958276643991	47	127
435.90743764172333	436.00031746031743	52	127
436.00031746031743	436.1048072562358	48	127
436.1048072562358	436.19768707482996	52	127
436.19768707482996	436.29056689342406	48	127
436.3021768707483	436.4066666666667	45	127
436.4066666666667	436.4995464852608	40	127
436.4995464852608	436.5924263038549	44	127
436.5924263038549	436.6736961451247	47	127
436.6736961451247	436.78979591836736	52	127
436.78979591836736	436.89428571428573	48	127
436.89428571428573	436.9987755102041	52	127
436.9987755102041	437.0916553287982	48	127
437.0916553287982	437.1845351473923	45	127
437.19614512471657	437.2774149659864	40	127
437.2774149659864	437.38190476190476	44	127
437.38190476190476	437.4515646258503	47	127
437.4515646258503	437.5560544217687	52	127
437.56766439909296	437.67215419501133	48	127
437.67215419501133	437.7766439909297	52	127
437.7766439909297	437.83469387755105	48	127
437.83469387755105	437.9391836734694	45	127
437.9391836734694	438.0436734693877	40	127
438.055283446712	438.15977324263037	44	127
438.15977324263037	438.24104308390025	47	127
438.24104308390025	438.3455328798186	52	127
438.3455328798186	438.4151927437642	40	127
438.42680272108845	438.51968253968255	44	127
438.51968253968255	438.6241723356009	47	127
438.6241723356009	438.717052154195	52	127
438.717052154195	438.79832199546485	40	127
438.8099319727891	438.89120181405895	44	127
438.89120181405895	438.98408163265304	47	127
438.98408163265304	439.0885714285714	52	127
439.0885714285714	439.1814512471655	40	127
439.1814512471655	439.2627210884354	44	127
439.2743310657596	439.36721088435377	47	127
439.36721088435377	439.47170068027214	52	127
439.47170068027214	439.5761904761905	40	127
439.5761904761905	439.6806802721088	44	127
439.6922902494331	439.7851700680272	47	127
439.7851700680272	439.88965986394555	52	127
439.88965986394555	439.9941496598639	88	127
439.88965986394555	439.9941496598639	40	127
439.9941496598639	440.0870294784581	80	127
439.9941496598639	440.0870294784581	44	127
440.0870294784581	440.1915192743764	78	127
440.0870294784581	440.1915192743764	47	127
440.1915192743764	440.29600907029476	52	127
440.1915192743764	440.29600907029476	76	127
440.29600907029476	440.4121088435374	40	127
440.29600907029476	440.4121088435374	88	127
440.4121088435374	440.51659863945576	80	127
440.4121088435374	440.51659863945576	44	127
440.51659863945576	440.60947845804986	47	127
440.51659863945576	440.60947845804986	78	127
440.62108843537413	440.70235827664396	76	127
440.62108843537413	440.70235827664396	52	127
440.70235827664396	440.78362811791385	88	127
440.70235827664396	440.78362811791385	40	127
440.78362811791385	440.8881179138322	44	127
440.78362811791385	440.8881179138322	80	127
440.8881179138322	440.96938775510205	78	127
440.8881179138322	440.96938775510205	47	127
440.9809977324263	441.09709750566896	52	127
440.9809977324263	441.09709750566896	76	127
441.09709750566896	443.2565532879819	52	127
441.09709750566896	441.3176870748299	88	127
441.09709750566896	442.7108843537415	40	127
442.7108843537415	442.97791383219953	42	127
442.97791383219953	443.2681632653061	44	127
443.3146031746032	444.23179138321996	33	127
443.3146031746032	444.23179138321996	45	127
443.3146031746032	444.23179138321996	61	127
443.3146031746032	444.23179138321996	52	127
443.3146031746032	444.23179138321996	57	127
444.27823129251703	445.0793197278912	35	127
444.27823129251703	445.0793197278912	50	127
444.27823129251703	445.0793197278912	45	127
444.27823129251703	445.0793197278912	62	127
444.27823129251703	445.0793197278912	57	127
445.13736961451247	445.8920181405896	52	127
445.13736961451247	445.8920181405896	57	127
445.13736961451247	445.8920181405896	61	127
445.13736961451247	445.8920181405896	37	127
445.13736961451247	445.8920181405896	45	127
445.9500680272109	446.8556462585034	59	127
445.9500680272109	446.8556462585034	45	127
445.9500680272109	446.8556462585034	57	127
445.9500680272109	446.46090702947845	54	127
445.9500680272109	446.46090702947845	38	127
446.46090702947845	446.704716553288	37	127
446.46090702947845	446.704716553288	52	127
446.704716553288	446.8788662131519	50	127
446.704716553288	446.8788662131519	35	127
446.925306122449	447.86571428571426	45	127
446.925306122449	447.86571428571426	61	127
446.925306122449	447.86571428571426	57	127
446.925306122449	447.86571428571426	33	127
446.925306122449	447.86571428571426	52	127
447.9353741496599	448.8409523809524	45	127
447.9353741496599	448.8409523809524	62	127
447.9353741496599	448.8409523809524	50	127
447.9353741496599	448.8409523809524	57	127
447.9353741496599	448.8409523809524	35	127
448.91061224489795	449.7117006802721	52	127
448.91061224489795	449.7117006802721	45	127
448.91061224489795	449.7117006802721	61	127
448.91061224489795	449.7117006802721	37	127
448.91061224489795	449.7117006802721	57	127
449.76975056689344	450.26897959183674	38	127
449.76975056689344	450.71015873015875	57	127
449.76975056689344	450.71015873015875	59	127
449.76975056689344	450.26897959183674	54	127
450.26897959183674	450.53600907029477	37	127
450.26897959183674	450.53600907029477	52	127
450.53600907029477	450.73337868480724	50	127
450.53600907029477	450.73337868480724	35	127
450.76820861678004	451.6389569160998	57	127
450.76820861678004	451.6389569160998	33	127
450.76820861678004	451.6389569160998	45	127
450.76820861678004	451.6389569160998	61	127
450.76820861678004	451.6389569160998	52	127
451.6970068027211	452.1614058956916	62	127
451.6970068027211	452.1614058956916	50	127
451.6970068027211	452.1614058956916	57	127
451.6970068027211	452.1614058956916	35	127
451.6970068027211	452.59097505668933	45	127
452.1614058956916	452.59097505668933	61	127
452.1614058956916	452.59097505668933	52	127
452.1614058956916	452.59097505668933	37	127
452.1614058956916	452.59097505668933	57	127
452.6490249433107	453.49655328798184	57	127
452.6490249433107	453.49655328798184	59	127
452.6490249433107	453.49655328798184	45	127
452.6490249433107	453.49655328798184	38	127
452.6490249433107	453.49655328798184	54	127
453.56621315192746	454.4485714285714	59	127
453.56621315192746	454.4485714285714	39	127
453.56621315192746	454.4485714285714	57	127
453.56621315192746	454.4485714285714	54	127
453.56621315192746	454.4485714285714	45	127
454.518231292517	455.38897959183674	40	127
454.518231292517	455.38897959183674	52	127
454.518231292517	455.38897959183674	57	127
454.518231292517	455.38897959183674	45	127
454.518231292517	455.38897959183674	59	127
455.4586394557823	456.43387755102043	59	127
455.4586394557823	456.43387755102043	51	127
455.4586394557823	456.43387755102043	45	127
455.4586394557823	456.43387755102043	57	127
455.4586394557823	456.43387755102043	41	127
456.4919274376417	456.6892970521542	47	127
456.4919274376417	456.6892970521542	40	127
456.4919274376417	456.6892970521542	59	127
456.4919274376417	456.6892970521542	56	127
456.4919274376417	456.6892970521542	52	127
457.0375963718821	458.1869841269841	88	127
457.0375963718821	458.1869841269841	76	127
457.6761451247165	458.24503401360545	52	127
457.6761451247165	458.24503401360545	56	127
458.24503401360545	458.5701133786848	57	127
458.24503401360545	458.7674829931973	74	127
458.24503401360545	458.5701133786848	54	127
458.24503401360545	458.7674829931973	86	127
458.5701133786848	458.79070294784583	59	127
458.5701133786848	458.79070294784583	56	127
458.8255328798186	459.8007709750567	84	127
458.8255328798186	459.8007709750567	60	127
458.8255328798186	459.8007709750567	72	127
458.8255328798186	459.8007709750567	57	127
459.8007709750567	460.69473922902495	74	127
459.8007709750567	460.69473922902495	86	127
459.8007709750567	460.69473922902495	62	127
459.8007709750567	460.69473922902495	59	127
460.69473922902495	461.669977324263	64	127
460.69473922902495	461.669977324263	84	127
460.69473922902495	461.669977324263	60	127
460.69473922902495	461.669977324263	72	127
461.669977324263	462.6336054421769	83	127
461.669977324263	462.6336054421769	71	127
461.669977324263	462.2040362811791	65	127
461.669977324263	462.2040362811791	62	127
462.2040362811791	462.4478458049887	64	127
462.2040362811791	462.4478458049887	60	127
462.4478458049887	462.68004535147395	59	127
462.4478458049887	462.68004535147395	62	127
462.7497052154195	463.80621315192747	60	127
462.7497052154195	463.80621315192747	57	127
462.7497052154195	463.27215419501135	84	127
463.27215419501135	463.3998639455782	86	127
463.3998639455782	463.51596371882084	84	127
463.51596371882084	463.6668934240363	83	127
463.6668934240363	463.80621315192747	84	127
463.80621315192747	464.7466213151927	62	127
463.80621315192747	464.7466213151927	59	127
463.80621315192747	464.30544217687077	88	127
463.80621315192747	464.30544217687077	76	127
464.30544217687077	464.7466213151927	74	127
464.30544217687077	464.7466213151927	86	127
464.7466213151927	465.7334693877551	84	127
464.7466213151927	465.7334693877551	64	127
464.7466213151927	465.7334693877551	72	127
464.7466213151927	465.7334693877551	60	127
465.7334693877551	466.2907482993197	65	127
465.7334693877551	466.95251700680274	71	127
465.7334693877551	466.95251700680274	83	127
465.7334693877551	466.2907482993197	62	127
466.2907482993197	466.63904761904763	60	127
466.2907482993197	466.63904761904763	64	127
466.63904761904763	467.0570068027211	59	127
466.63904761904763	467.0570068027211	62	127
467.1034467120181	469.0074829931973	72	127
467.1034467120181	469.0074829931973	60	127
467.1034467120181	469.0074829931973	84	127
467.1034467120181	469.0074829931973	57	127
469.1235827664399	471.52684807256236	74	127
469.1235827664399	471.52684807256236	60	127
469.21646258503404	471.52684807256236	62	127
469.21646258503404	471.52684807256236	77	127
469.2745124716553	471.52684807256236	79	127
469.2745124716553	471.52684807256236	65	127
469.3790022675737	471.52684807256236	67	127
469.3790022675737	471.52684807256236	83	127
469.48349206349206	471.52684807256236	86	127
472.69945578231295	472.81555555555553	31	127
472.81555555555553	472.9200453514739	43	127
472.9316553287982	473.03614512471654	33	127
473.03614512471654	473.1406349206349	43	127
473.1406349206349	473.2451247165533	35	127
473.2451247165533	473.34961451247165	43	127
473.3612244897959	473.45410430839	31	127
473.45410430839	473.5585941043084	43	127
473.5585941043084	473.66308390022675	36	127
473.66308390022675	473.7675736961451	43	127
473.7675736961451	473.8720634920635	38	127
473.88367346938776	474.01138321995467	43	127
474.01138321995467	474.10426303854877	40	127
474.10426303854877	474.20875283446713	43	127
474.20875283446713	474.2784126984127	88	127
474.20875283446713	474.2784126984127	36	127
474.29002267573696	474.39451247165533	91	127
474.29002267573696	474.39451247165533	43	127
474.39451247165533	474.48739229024943	31	127
474.39451247165533	474.48739229024943	89	127
474.48739229024943	474.5918820861678	43	127
474.48739229024943	474.5918820861678	86	127
474.5918820861678	474.69637188208617	33	127
474.5918820861678	474.69637188208617	83	127
474.69637188208617	474.8124716553288	43	127
474.69637188208617	474.8124716553288	79	127
474.8124716553288	474.88213151927437	77	127
474.8124716553288	474.88213151927437	35	127
474.88213151927437	474.98662131519274	74	127
474.88213151927437	474.98662131519274	43	127
474.98662131519274	475.07950113378683	31	127
474.98662131519274	475.07950113378683	71	127
475.07950113378683	475.1956009070295	43	127
475.07950113378683	475.1956009070295	65	127
475.20721088435374	475.3233106575964	36	127
475.20721088435374	475.39297052154194	64	127
475.3233106575964	475.42780045351475	43	127
475.42780045351475	475.5322902494331	38	127
475.5322902494331	475.6367800453515	43	127
475.64839002267576	475.74126984126985	40	127
475.74126984126985	475.83414965986395	43	127
475.83414965986395	475.9386394557823	36	127
475.9386394557823	476.0431292517007	43	127
476.0431292517007	476.1360090702948	40	127
476.14761904761906	476.2521088435374	52	127
476.2521088435374	476.3565986394558	42	127
476.3565986394558	476.4494784580499	52	127
476.4494784580499	476.542358276644	44	127
476.55396825396826	476.65845804988663	52	127
476.65845804988663	476.75133786848073	40	127
476.75133786848073	476.8558276643991	52	127
476.8558276643991	476.97192743764174	45	127
476.983537414966	477.0764172335601	52	127
477.0764172335601	477.1692970521542	47	127
477.1692970521542	477.2737868480726	52	127
477.2737868480726	477.3666666666667	48	127
477.3666666666667	477.47115646258504	52	127
477.4827664399093	477.5756462585034	45	127
477.4827664399093	477.5756462585034	84	127
477.5756462585034	477.6801360544218	88	127
477.5756462585034	477.6801360544218	52	127
477.6801360544218	477.7730158730159	40	127
477.6801360544218	477.7730158730159	86	127
477.7730158730159	477.86589569161	52	127
477.7730158730159	477.86589569161	83	127
477.87750566893425	477.9819954648526	80	127
477.87750566893425	477.9819954648526	42	127
477.9819954648526	478.0748752834467	76	127
477.9819954648526	478.0748752834467	52	127
478.0748752834467	478.1793650793651	44	127
478.0748752834467	478.1793650793651	74	127
478.1793650793651	478.2606349206349	52	127
478.1793650793651	478.2606349206349	71	127
478.2606349206349	478.3651247165533	68	127
478.2606349206349	478.3651247165533	40	127
478.3651247165533	478.46961451247165	62	127
478.3651247165533	478.46961451247165	52	127
478.46961451247165	478.6089342403628	45	127
478.46961451247165	478.6089342403628	60	127
478.6089342403628	478.7134240362812	64	127
478.6089342403628	478.7134240362812	52	127
478.7134240362812	478.794693877551	47	127
478.7134240362812	478.794693877551	69	127
478.8063038548753	478.8991836734694	52	127
478.8063038548753	478.8991836734694	72	127
478.8991836734694	478.9920634920635	48	127
478.8991836734694	478.9920634920635	76	127
478.9920634920635	479.0733333333333	52	127
478.9920634920635	479.0733333333333	81	127
479.0733333333333	479.1778231292517	45	127
479.0733333333333	479.1778231292517	84	127
479.18943310657596	479.28231292517006	52	127
479.18943310657596	479.28231292517006	88	127
479.28231292517006	479.38680272108843	86	127
479.28231292517006	479.38680272108843	40	127
479.38680272108843	479.4912925170068	52	127
479.38680272108843	479.4912925170068	83	127
479.4912925170068	479.59578231292517	42	127
479.4912925170068	479.59578231292517	80	127
479.59578231292517	479.70027210884354	76	127
479.59578231292517	479.70027210884354	52	127
479.70027210884354	479.8047619047619	74	127
479.70027210884354	479.8047619047619	44	127
479.8047619047619	479.897641723356	52	127
479.8047619047619	479.897641723356	71	127
479.897641723356	479.97891156462583	68	127
479.897641723356	479.97891156462583	40	127
479.97891156462583	480.07179138321993	52	127
479.97891156462583	480.07179138321993	62	127
480.0834013605442	480.18789115646257	45	127
480.0834013605442	480.18789115646257	60	127
480.18789115646257	480.3039909297052	64	127
480.18789115646257	480.3039909297052	52	127
480.3039909297052	480.4084807256236	47	127
480.3039909297052	480.4084807256236	69	127
480.4084807256236	480.5013605442177	52	127
480.4084807256236	480.5013605442177	72	127
480.51297052154194	480.6174603174603	48	127
480.51297052154194	480.6174603174603	76	127
480.6174603174603	480.69873015873014	81	127
480.6174603174603	480.69873015873014	52	127
480.69873015873014	480.79160997732424	45	127
480.69873015873014	480.79160997732424	84	127
480.79160997732424	480.87287981859413	52	127
480.79160997732424	480.87287981859413	88	127
480.87287981859413	480.9657596371882	86	127
480.87287981859413	480.9657596371882	40	127
480.9773696145125	481.0702494331066	83	127
480.9773696145125	481.0702494331066	52	127
481.0702494331066	481.1631292517007	42	127
481.0702494331066	481.1631292517007	80	127
481.1631292517007	481.26761904761906	52	127
481.1631292517007	481.26761904761906	76	127
481.26761904761906	481.37210884353743	72	127
481.26761904761906	481.37210884353743	44	127
481.3837188208617	481.4765986394558	71	127
481.3837188208617	481.4765986394558	52	127
481.4765986394558	481.55786848072563	40	127
481.4765986394558	481.55786848072563	68	127
481.55786848072563	481.67396825396827	52	127
481.55786848072563	481.67396825396827	62	127
481.67396825396827	481.77845804988664	60	127
481.67396825396827	481.77845804988664	45	127
481.77845804988664	481.91777777777776	72	127
481.77845804988664	481.91777777777776	57	127
481.91777777777776	482.0222675736961	47	127
481.91777777777776	482.0222675736961	62	127
482.0222675736961	482.1151473922902	57	127
482.0222675736961	482.1151473922902	74	127
482.1151473922902	482.2196371882086	64	127
482.1151473922902	482.2196371882086	48	127
482.2196371882086	482.32412698412696	57	127
482.2196371882086	482.32412698412696	76	127
482.33573696145123	482.4402267573696	60	127
482.33573696145123	482.4402267573696	45	127
482.4402267573696	482.54471655328797	57	127
482.4402267573696	482.54471655328797	72	127
482.54471655328797	482.6608163265306	47	127
482.54471655328797	482.6608163265306	62	127
482.6608163265306	482.765306122449	74	127
482.6608163265306	482.765306122449	57	127
482.77691609977325	482.86979591836734	48	127
482.77691609977325	482.86979591836734	64	127
482.86979591836734	482.96267573696144	57	127
482.86979591836734	482.96267573696144	76	127
482.96267573696144	483.0671655328798	65	127
482.96267573696144	483.0671655328798	50	127
483.0671655328798	483.1716553287982	57	127
483.0671655328798	483.1716553287982	77	127
483.1716553287982	483.27614512471655	62	127
483.1716553287982	483.27614512471655	47	127
483.2877551020408	483.3806349206349	74	127
483.2877551020408	483.3806349206349	57	127
483.3806349206349	483.4851247165533	64	127
483.3806349206349	483.4851247165533	49	127
483.4851247165533	483.58961451247166	76	127
483.4851247165533	483.58961451247166	57	127
483.58961451247166	483.69410430839	50	127
483.58961451247166	483.69410430839	65	127
483.7057142857143	483.7985941043084	77	127
483.7057142857143	483.7985941043084	57	127
483.7985941043084	483.90308390022676	52	127
483.7985941043084	483.90308390022676	67	127
483.90308390022676	483.99596371882086	57	127
483.90308390022676	483.99596371882086	79	127
483.99596371882086	484.08884353741496	64	127
483.99596371882086	484.08884353741496	49	127
484.10045351473923	484.2049433106576	76	127
484.10045351473923	484.2049433106576	57	127
484.2049433106576	484.30943310657597	65	127
484.2049433106576	484.30943310657597	50	127
484.30943310657597	484.41392290249433	57	127
484.30943310657597	484.41392290249433	77	127
484.41392290249433	484.5184126984127	52	127
484.41392290249433	484.5184126984127	68	127
484.5184126984127	484.6229024943311	57	127
484.5184126984127	484.6229024943311	80	127
484.63451247165534	484.7390022675737	69	127
484.63451247165534	484.7390022675737	53	127
484.7390022675737	484.8434920634921	57	127
484.7390022675737	484.8434920634921	81	127
484.8434920634921	484.9363718820862	56	127
484.8434920634921	484.9363718820862	71	127
484.9363718820862	485.04086167800455	57	127
484.9363718820862	485.04086167800455	83	127
485.0524716553288	485.22662131519274	84	127
485.0524716553288	485.16857142857145	57	127
485.0524716553288	485.22662131519274	72	127
485.16857142857145	485.26145124716555	69	127
485.26145124716555	485.3659410430839	59	127
485.3659410430839	485.4704308390023	69	127
485.4704308390023	486.0625396825397	81	127
485.4704308390023	485.6097505668934	60	127
485.6097505668934	485.72585034013605	69	127
485.72585034013605	485.7839002267574	57	127
485.7839002267574	485.8767800453515	69	127
485.8767800453515	485.98126984126986	59	127
485.9928798185941	486.09736961451244	69	127
486.09736961451244	486.2018594104308	60	127
486.2018594104308	486.29473922902497	69	127
486.29473922902497	486.8752380952381	81	127
486.29473922902497	486.39922902494334	62	127
486.41083900226755	486.5153287981859	69	127
486.5153287981859	486.5965986394558	59	127
486.5965986394558	486.7010884353742	69	127
486.7010884353742	486.7939682539683	61	127
486.7939682539683	486.8868480725624	69	127
486.8868480725624	486.99133786848074	62	127
486.99133786848074	487.1190476190476	69	127
487.1190476190476	487.22353741496596	64	127
487.1190476190476	487.8736961451247	81	127
487.22353741496596	487.32802721088433	69	127
487.3396371882086	487.44412698412697	64	127
487.44412698412697	487.5021768707483	69	127
487.5021768707483	487.6066666666667	67	127
487.6066666666667	487.71115646258505	69	127
487.7227664399093	487.8272562358277	64	127
487.8272562358277	487.93174603174606	69	127
487.93174603174606	488.0362358276644	61	127
487.93174603174606	488.10589569161	81	127
488.0362358276644	488.14072562358274	69	127
488.14072562358274	488.30326530612246	81	127
488.14072562358274	488.2336054421769	64	127
488.2336054421769	488.33809523809526	69	127
488.33809523809526	488.44258503401363	67	127
488.44258503401363	488.547074829932	69	127
488.547074829932	488.6515646258503	64	127
488.6631746031746	488.7328344671202	69	127
488.7328344671202	488.9069841269841	81	127
488.7328344671202	488.83732426303857	61	127
488.83732426303857	488.94181405895694	69	127
488.94181405895694	489.12757369614513	81	127
488.94181405895694	489.0463038548753	64	127
489.0463038548753	489.1624036281179	69	127
489.1624036281179	489.34816326530614	81	127
489.1624036281179	489.2785034013605	67	127
489.2785034013605	489.3829931972789	69	127
489.3829931972789	489.48748299319726	64	127
489.3829931972789	489.5571428571429	81	127
489.48748299319726	489.58036281179136	69	127
489.59197278911563	489.68485260770973	62	127
489.59197278911563	489.75451247165535	81	127
489.68485260770973	489.7893424036281	69	127
489.7893424036281	489.9518820861678	81	127
489.7893424036281	489.89383219954647	61	127
489.89383219954647	489.98671201814057	69	127
489.99832199546483	490.1028117913832	70	127
489.99832199546483	490.1028117913832	55	127
490.1028117913832	490.2073015873016	82	127
490.1028117913832	490.2073015873016	57	127
490.2073015873016	490.2885714285714	52	127
490.2073015873016	490.2885714285714	67	127
490.2885714285714	490.38145124716556	79	127
490.2885714285714	490.38145124716556	57	127
490.38145124716556	490.49755102040814	64	127
490.38145124716556	490.49755102040814	49	127
490.5091609977324	490.62526077097505	57	127
490.5091609977324	490.62526077097505	76	127
490.62526077097505	490.7297505668934	52	127
490.62526077097505	490.7297505668934	67	127
490.7297505668934	490.8226303854875	79	127
490.7297505668934	490.8226303854875	57	127
490.8226303854875	490.93873015873015	55	127
490.8226303854875	490.93873015873015	70	127
490.9503401360544	491.0548299319728	82	127
490.9503401360544	491.0548299319728	57	127
491.0548299319728	491.15931972789116	67	127
491.0548299319728	491.15931972789116	52	127
491.15931972789116	491.25219954648526	79	127
491.15931972789116	491.25219954648526	57	127
491.25219954648526	491.3566893424036	65	127
491.25219954648526	491.3566893424036	50	127
491.3682993197279	491.4495691609977	77	127
491.3682993197279	491.4495691609977	57	127
491.4495691609977	491.5540589569161	64	127
491.4495691609977	491.5540589569161	49	127
491.5540589569161	491.62371882086165	57	127
491.5540589569161	491.62371882086165	76	127
491.62371882086165	491.7165986394558	65	127
491.62371882086165	491.7165986394558	41	127
491.7165986394558	491.8210884353741	77	127
491.7165986394558	491.8210884353741	53	127
491.8326984126984	491.93718820861676	62	127
491.8326984126984	491.93718820861676	38	127
491.93718820861676	492.04167800453513	74	127
491.93718820861676	492.04167800453513	50	127
492.04167800453513	492.15777777777777	36	127
492.04167800453513	492.15777777777777	60	127
492.15777777777777	492.26226757369614	72	127
492.15777777777777	492.26226757369614	48	127
492.2738775510204	492.3667573696145	35	127
492.2738775510204	492.3667573696145	59	127
492.3667573696145	492.4712471655329	71	127
492.3667573696145	492.4712471655329	47	127
492.4712471655329	492.57573696145124	62	127
492.4712471655329	492.57573696145124	38	127
492.57573696145124	492.6802267573696	50	127
492.57573696145124	492.6802267573696	74	127
492.6802267573696	492.79632653061225	59	127
492.6802267573696	492.79632653061225	35	127
492.79632653061225	492.9008163265306	47	127
492.79632653061225	492.9008163265306	71	127
492.9008163265306	493.005306122449	57	127
492.9008163265306	493.005306122449	33	127
493.005306122449	493.10979591836735	45	127
493.005306122449	493.10979591836735	69	127
493.10979591836735	493.2142857142857	56	127
493.10979591836735	493.2142857142857	32	127
493.22589569161	493.3187755102041	44	127
493.22589569161	493.3187755102041	68	127
493.3187755102041	493.42326530612246	57	127
493.3187755102041	493.42326530612246	33	127
493.42326530612246	493.55097505668937	45	127
493.42326530612246	493.55097505668937	69	127
493.55097505668937	493.65546485260774	53	127
493.55097505668937	493.65546485260774	29	127
493.66707482993195	493.7715646258503	41	127
493.66707482993195	493.7715646258503	65	127
493.7715646258503	493.8760544217687	52	127
493.7715646258503	493.9573242630386	40	127
493.8760544217687	493.9921541950113	64	127
493.9921541950113	494.0966439909297	51	127
493.9921541950113	494.1663038548753	39	127
494.0966439909297	494.1895238095238	63	127
494.20113378684806	494.42172335600907	40	127
494.20113378684806	494.34045351473924	52	127
494.34045351473924	494.4565532879819	64	127
494.4565532879819	494.56104308390024	51	127
494.4565532879819	494.6423129251701	39	127
494.56104308390024	494.6655328798186	63	127
494.6771428571429	494.8512925170068	40	127
494.6771428571429	494.78163265306125	52	127
494.78163265306125	494.8861224489796	64	127
494.8861224489796	495.11832199546484	40	127
494.8861224489796	495.037052154195	56	127
495.037052154195	495.15315192743765	68	127
495.1647619047619	495.5362811791383	69	127
495.1647619047619	495.3969614512472	33	127
495.1647619047619	495.5362811791383	57	127
495.1647619047619	495.3969614512472	45	127
495.43179138321995	495.5478911564626	52	127
495.43179138321995	495.5478911564626	48	127
495.5827210884354	495.78009070294786	48	127
495.5827210884354	495.8845804988662	69	127
495.5827210884354	495.78009070294786	52	127
495.5827210884354	495.8845804988662	57	127
495.8149206349206	495.9890702947846	48	127
495.8149206349206	495.9890702947846	52	127
495.919410430839	496.02390022675735	68	127
495.919410430839	496.02390022675735	56	127
496.02390022675735	496.2328798185941	33	127
496.02390022675735	496.8133786848073	69	127
496.02390022675735	496.2328798185941	45	127
496.02390022675735	496.8133786848073	57	127
496.29092970521543	496.49990929705217	52	127
496.29092970521543	496.49990929705217	48	127
496.5347392290249	496.7204988662132	48	127
496.5347392290249	496.7204988662132	52	127
496.74371882086166	496.91786848072564	48	127
496.74371882086166	496.91786848072564	52	127
496.84820861678	496.9526984126984	68	127
496.84820861678	496.9526984126984	56	127
496.9526984126984	497.64929705215417	57	127
496.9526984126984	497.64929705215417	69	127
496.9526984126984	497.1384580498866	33	127
496.9526984126984	497.1384580498866	45	127
497.1732879818594	497.3358276643991	48	127
497.1732879818594	497.3358276643991	52	127
497.37065759637187	497.5448072562358	52	127
497.37065759637187	497.5448072562358	48	127
497.5912471655329	497.7421768707483	48	127
497.5912471655329	497.7421768707483	52	127
497.6725170068027	497.7770068027211	59	127
497.6725170068027	497.7770068027211	71	127
497.7770068027211	497.9395464852608	72	127
497.7770068027211	497.9395464852608	45	127
497.7770068027211	497.9395464852608	60	127
497.97437641723354	498.14852607709753	57	127
497.97437641723354	498.14852607709753	60	127
498.0788662131519	498.171746031746	63	127
498.0788662131519	498.171746031746	75	127
498.171746031746	498.3342857142857	64	127
498.171746031746	498.3342857142857	76	127
498.171746031746	498.3342857142857	45	127
498.3691156462585	498.55487528344673	60	127
498.3691156462585	498.55487528344673	57	127
498.47360544217685	498.566485260771	68	127
498.47360544217685	498.566485260771	80	127
498.566485260771	499.3559637188209	69	127
498.566485260771	499.3559637188209	81	127
498.566485260771	498.74063492063493	45	127
498.7754648526077	498.96122448979594	60	127
498.7754648526077	498.96122448979594	57	127
498.9960544217687	499.14698412698414	52	127
499.1818140589569	499.3791836734694	60	127
499.1818140589569	499.3791836734694	57	127
499.41401360544216	499.61138321995463	67	127
499.41401360544216	499.59977324263036	38	127
499.41401360544216	499.61138321995463	79	127
499.61138321995463	499.77392290249435	57	127
499.61138321995463	499.6578231292517	78	127
499.61138321995463	499.77392290249435	60	127
499.61138321995463	499.6578231292517	66	127
499.82036281179137	499.86680272108845	64	127
499.82036281179137	499.86680272108845	76	127
499.82036281179137	499.99451247165536	50	127
500.0293424036281	500.08739229024945	78	127
500.0293424036281	500.08739229024945	66	127
500.0293424036281	500.18027210884355	57	127
500.0293424036281	500.18027210884355	60	127
500.2151020408163	500.6098412698413	67	127
500.2151020408163	500.4124716553288	43	127
500.2151020408163	500.6098412698413	79	127
500.4473015873016	500.6214512471655	55	127
500.4473015873016	500.6214512471655	58	127
500.6562811791383	500.8536507936508	50	127
500.6562811791383	501.09746031746033	62	127
500.6562811791383	501.09746031746033	74	127
500.90009070294786	501.1090702947846	55	127
500.90009070294786	501.1090702947846	58	127
501.14390022675735	501.17873015873016	64	127
501.14390022675735	501.3528798185941	36	127
501.17873015873016	501.3877097505669	76	127
501.3877097505669	501.45736961451246	77	127
501.3877097505669	501.5386394557823	55	127
501.3877097505669	501.5386394557823	58	127
501.45736961451246	501.5154195011338	76	127
501.5154195011338	501.5734693877551	77	127
501.5734693877551	501.63151927437644	76	127
501.5734693877551	501.7360090702948	48	127
501.63151927437644	501.701179138322	77	127
501.7127891156463	501.7592290249433	76	127
501.77083900226756	501.95659863945576	55	127
501.77083900226756	501.8869387755102	74	127
501.77083900226756	501.95659863945576	58	127
501.8869387755102	502.00303854875284	76	127
502.00303854875284	502.81573696145125	65	127
502.00303854875284	502.81573696145125	77	127
502.00303854875284	502.2004081632653	41	127
502.2352380952381	502.4326077097506	53	127
502.2352380952381	502.4326077097506	57	127
502.46743764172334	502.62997732426305	48	127
502.6648072562358	502.8389569160998	53	127
502.6648072562358	502.8389569160998	57	127
502.87378684807254	503.0595464852608	76	127
502.87378684807254	503.024716553288	41	127
502.87378684807254	503.0595464852608	64	127
503.0595464852608	503.1175963718821	62	127
503.0595464852608	503.25691609977326	57	127
503.0595464852608	503.1175963718821	74	127
503.0595464852608	503.25691609977326	53	127
503.291746031746	503.3381859410431	60	127
503.291746031746	503.3381859410431	72	127
503.291746031746	503.46589569161	50	127
503.50072562358275	503.68648526077095	57	127
503.50072562358275	503.5587755102041	62	127
503.50072562358275	503.68648526077095	53	127
503.50072562358275	503.5587755102041	74	127
503.7445351473923	504.12766439909296	64	127
503.7445351473923	503.9302947845805	40	127
503.7445351473923	504.12766439909296	76	127
503.9883446712018	504.1508843537415	52	127
504.1857142857143	504.51079365079363	57	127
504.1857142857143	504.51079365079363	69	127
504.1857142857143	504.3366439909297	48	127
504.3714739229025	504.53401360544217	45	127
504.568843537415	504.71977324263037	52	127
504.568843537415	504.9287528344671	59	127
504.568843537415	504.9287528344671	71	127
504.568843537415	504.71977324263037	40	127
504.7546031746032	504.9403628117914	38	127
504.7546031746032	504.9403628117914	50	127
504.98680272108845	505.17256235827665	48	127
504.98680272108845	505.17256235827665	36	127
504.98680272108845	505.3815419501134	52	127
504.98680272108845	505.3815419501134	64	127
505.20739229024946	505.39315192743766	35	127
505.20739229024946	505.39315192743766	47	127
505.4279818594104	505.6485714285714	33	127
505.4279818594104	505.5556916099773	57	127
505.4279818594104	505.6485714285714	45	127
505.5673015873016	505.6834013605442	60	127
505.6834013605442	505.7878911564626	64	127
505.7878911564626	505.89238095238096	44	127
505.7878911564626	505.89238095238096	60	127
505.89238095238096	506.62380952380954	45	127
505.89238095238096	505.99687074829933	57	127
506.0084807256236	506.11297052154197	60	127
506.11297052154197	506.2290702947846	64	127
506.2290702947846	506.333560090703	60	127
506.333560090703	506.43804988662134	64	127
506.43804988662134	506.5541496598639	60	127
506.5541496598639	506.6586394557823	64	127
506.6586394557823	506.76312925170066	60	127
506.6586394557823	506.76312925170066	44	127
506.76312925170066	507.482947845805	45	127
506.76312925170066	506.86761904761903	64	127
506.86761904761903	506.96049886621313	60	127
506.9721088435374	507.07659863945577	64	127
507.07659863945577	507.18108843537414	60	127
507.18108843537414	507.2855782312925	57	127
507.2855782312925	507.40167800453514	60	127
507.4132879818594	507.5177777777778	64	127
507.5177777777778	507.62226757369615	44	127
507.5177777777778	507.62226757369615	60	127
507.62226757369615	507.90090702947845	45	127
507.62226757369615	507.71514739229025	57	127
507.71514739229025	507.8196371882086	60	127
507.8196371882086	507.924126984127	64	127
507.93573696145125	508.0402267573696	60	127
507.93573696145125	508.0402267573696	48	127
508.0402267573696	508.144716553288	57	127
508.0402267573696	508.21437641723355	48	127
508.144716553288	508.24920634920636	60	127
508.24920634920636	508.365306122449	64	127
508.37691609977327	508.48140589569164	60	127
508.37691609977327	508.48140589569164	51	127
508.48140589569164	508.6439455782313	52	127
508.48140589569164	508.57428571428574	57	127
508.57428571428574	508.6787755102041	60	127
508.6787755102041	508.7832653061225	64	127
508.7948752834467	508.9109750566893	56	127
508.7948752834467	508.9109750566893	60	127
508.9109750566893	509.0154648526077	60	127
508.9109750566893	509.688843537415	57	127
509.0154648526077	509.11995464852606	64	127
509.11995464852606	509.22444444444443	69	127
509.22444444444443	509.3289342403628	64	127
509.34054421768707	509.44503401360544	60	127
509.44503401360544	509.53791383219954	64	127
509.53791383219954	509.63079365079363	69	127
509.63079365079363	509.735283446712	64	127
509.7468934240363	510.5595918367347	50	127
509.7468934240363	509.955873015873	55	127
509.7468934240363	509.85138321995464	60	127
509.85138321995464	509.955873015873	62	127
509.955873015873	510.01392290249436	54	127
509.955873015873	510.0603628117914	69	127
510.0603628117914	510.16485260770975	62	127
510.16485260770975	510.22290249433104	52	127
510.16485260770975	510.2809523809524	60	127
510.2809523809524	510.397052154195	62	127
510.397052154195	510.4551020408163	54	127
510.397052154195	510.5015419501134	69	127
510.5015419501134	510.60603174603176	62	127
510.60603174603176	510.7685714285714	43	127
510.60603174603176	510.6873015873016	58	127
510.60603174603176	510.97755102040816	55	127
510.69891156462586	510.8034013605442	62	127
510.8034013605442	510.9078911564626	67	127
510.9078911564626	511.02399092970523	60	127
511.02399092970523	511.1284807256236	58	127
511.02399092970523	511.34907029478455	50	127
511.1284807256236	511.19814058956916	67	127
511.19814058956916	511.29102040816326	62	127
511.29102040816326	511.39551020408163	67	127
511.39551020408163	511.43034013605444	36	127
511.39551020408163	511.5	58	127
511.43034013605444	511.60448979591837	52	127
511.5	511.60448979591837	60	127
511.61609977324264	511.6857596371882	53	127
511.61609977324264	511.720589569161	67	127
511.6857596371882	511.7554195011338	52	127
511.720589569161	511.8250793650794	60	127
511.7554195011338	511.8250793650794	53	127
511.8250793650794	511.9063492063492	52	127
511.8250793650794	511.941179138322	58	127
511.9063492063492	511.97600907029477	53	127
511.941179138322	512.0456689342403	60	127
511.97600907029477	512.0456689342403	52	127
512.0572789115646	512.161768707483	50	127
512.0572789115646	512.161768707483	67	127
512.161768707483	512.2662585034013	60	127
512.161768707483	512.2662585034013	52	127
512.2662585034013	513.1137868480726	53	127
512.2662585034013	512.4403854875284	41	127
512.2662585034013	512.3707482993198	57	127
512.3707482993198	512.4752380952381	60	127
512.4868480725623	512.6145578231293	65	127
512.6145578231293	512.7538775510204	60	127
512.7538775510204	512.8583673469387	57	127
512.8583673469387	512.9628571428572	60	127
512.9628571428572	513.0557142857143	65	127
513.0673469387755	513.1718367346939	60	127
513.1718367346939	513.3924263038549	40	127
513.1718367346939	513.3924263038549	52	127
513.1718367346939	513.2763265306122	57	127
513.2763265306122	513.3924263038549	59	127
513.3924263038549	513.4504535147393	50	127
513.3924263038549	513.4504535147393	38	127
513.3924263038549	513.4969160997732	65	127
513.5085260770975	513.6130158730159	59	127
513.6130158730159	513.70589569161	57	127
513.6130158730159	513.659433106576	36	127
513.6130158730159	513.659433106576	48	127
513.70589569161	513.8103854875284	59	127
513.8103854875284	513.9032653061224	65	127
513.8103854875284	513.8684126984127	38	127
513.8103854875284	513.8684126984127	50	127
513.9032653061224	514.0193650793651	59	127
514.0193650793651	514.3908843537415	52	127
514.0193650793651	514.3908843537415	40	127
514.0193650793651	514.1238548752834	60	127
514.1238548752834	514.2283446712019	62	127
514.2283446712019	514.3328344671202	68	127
514.3328344671202	514.4373242630386	62	127
514.4489342403629	514.5534240362812	57	127
514.4489342403629	514.8204535147393	45	127
514.4489342403629	514.8204535147393	33	127
514.5534240362812	514.6579138321996	60	127
514.6579138321996	514.7624036281179	65	127
514.7624036281179	514.8668934240363	60	127
514.8784807256236	515.250022675737	35	127
514.8784807256236	515.250022675737	47	127
514.8784807256236	514.9829931972789	57	127
514.9829931972789	515.0874603174603	62	127
515.0874603174603	515.1919727891157	64	127
515.1919727891157	515.2964399092971	62	127
515.2964399092971	515.4473922902495	40	127
515.2964399092971	515.3893424036281	56	127
515.3893424036281	515.4822222222223	59	127
515.4822222222223	515.563492063492	64	127
515.4822222222223	515.6331519274377	38	127
515.563492063492	515.6679818594105	59	127
515.6679818594105	515.8189115646259	57	127
515.6679818594105	515.9001587301588	36	127
515.8305215419501	515.9350113378684	60	127
515.9350113378684	516.0278911564626	64	127
515.9350113378684	516.0975510204082	48	127
516.0278911564626	516.1323809523809	69	127
516.1323809523809	516.306507936508	48	127
516.1323809523809	516.2368707482993	57	127
516.2368707482993	516.3413605442177	60	127
516.3413605442177	516.5154875283447	48	127
516.3413605442177	516.4458503401361	64	127
516.4458503401361	516.5503401360544	69	127
516.5503401360544	516.6896598639456	41	127
516.5503401360544	516.6432199546485	57	127
516.6432199546485	516.7128798185942	69	127
516.7244671201814	516.8289795918367	59	127
516.7244671201814	516.8986394557824	53	127
516.8289795918367	516.9334467120182	69	127
516.9334467120182	517.0960090702948	53	127
516.9334467120182	517.0263492063492	57	127
517.0263492063492	517.1308163265306	69	127
517.1424263038549	517.2469387755102	59	127
517.1424263038549	517.3165986394558	53	127
517.2469387755102	517.3514058956916	69	127
517.3514058956916	517.5255782312926	40	127
517.3514058956916	517.455918367347	57	127
517.455918367347	517.5604081632653	69	127
517.5604081632653	517.676507936508	60	127
517.5604081632653	517.7461451247166	52	127
517.676507936508	517.7809977324263	69	127
517.7809977324263	517.943514739229	52	127
517.7809977324263	517.8854875283447	57	127
517.8854875283447	517.9783673469387	69	127
517.9783673469387	518.0828571428572	60	127
517.9783673469387	518.16410430839	52	127
518.0944671201814	518.1989569160997	69	127
518.1989569160997	518.3034467120182	56	127
518.1989569160997	518.3730839002268	40	127
518.3034467120182	518.4079365079365	68	127
518.4079365079365	518.5704535147393	52	127
518.4079365079365	518.4892063492064	62	127
518.5008163265306	518.605306122449	68	127
518.605306122449	518.779433106576	40	127
518.605306122449	518.7097959183674	56	127
518.7097959183674	518.8142857142857	64	127
518.8142857142857	519.0348752834467	52	127
518.8142857142857	518.9187755102041	59	127
518.9187755102041	519.0580952380952	64	127
519.0697052154195	519.1741723356009	64	127
519.0697052154195	519.1741723356009	36	127
519.1741723356009	519.2786848072562	76	127
519.1741723356009	519.2786848072562	48	127
519.2786848072562	519.3831519274377	76	127
519.2786848072562	519.3831519274377	48	127
519.3831519274377	519.487664399093	60	127
519.3831519274377	519.487664399093	88	127
519.4992743764172	519.6037641723356	48	127
519.4992743764172	519.6037641723356	76	127
519.6037641723356	519.7198639455783	60	127
519.6037641723356	519.7198639455783	88	127
519.7198639455783	519.8243537414966	76	127
519.7198639455783	519.8243537414966	48	127
519.8243537414966	519.928843537415	88	127
519.8243537414966	519.928843537415	60	127
519.9404535147393	520.0565532879818	76	127
519.9404535147393	520.0565532879818	41	127
520.0565532879818	520.1610430839003	88	127
520.0565532879818	520.1610430839003	53	127
520.1610430839003	520.2655328798186	74	127
520.1610430839003	520.2655328798186	53	127
520.2655328798186	520.3584126984127	86	127
520.2655328798186	520.3584126984127	65	127
520.3584126984127	520.462902494331	72	127
520.3584126984127	520.462902494331	53	127
520.4745124716553	520.5673922902495	84	127
520.4745124716553	520.5673922902495	65	127
520.5673922902495	520.6486621315192	74	127
520.5673922902495	520.6486621315192	53	127
520.6486621315192	520.7531519274377	86	127
520.6486621315192	520.7531519274377	65	127
520.7531519274377	520.857641723356	52	127
520.7531519274377	520.857641723356	76	127
520.8692517006803	520.9505215419501	64	127
520.8692517006803	520.9505215419501	88	127
520.9505215419501	521.0550113378685	76	127
520.9505215419501	521.0550113378685	60	127
521.0550113378685	521.1595011337869	57	127
521.0550113378685	521.1595011337869	88	127
521.1595011337869	521.2639909297052	52	127
521.1595011337869	521.2639909297052	69	127
521.2639909297052	521.3800907029479	81	127
521.2639909297052	521.3800907029479	48	127
521.3800907029479	521.4729705215419	69	127
521.3800907029479	521.4729705215419	45	127
521.4729705215419	521.5774603174603	48	127
521.4729705215419	521.5774603174603	81	127
521.5774603174603	521.6819501133787	71	127
521.5774603174603	521.6819501133787	40	127
521.6819501133787	521.7748299319728	52	127
521.6819501133787	521.7748299319728	83	127
521.7864399092971	521.8909297052154	71	127
521.7864399092971	521.8909297052154	38	127
521.8909297052154	521.9954195011338	83	127
521.8909297052154	521.9954195011338	50	127
521.9954195011338	522.0999092970521	36	127
521.9954195011338	522.0999092970521	64	127
522.0999092970521	522.1927891156463	48	127
522.0999092970521	522.1927891156463	76	127
522.2043990929706	522.3088888888889	35	127
522.2043990929706	522.3088888888889	64	127
522.3088888888889	522.4133786848073	47	127
522.3088888888889	522.4133786848073	76	127
522.4133786848073	522.5062585034013	69	127
522.4133786848073	522.5062585034013	33	127
522.5062585034013	522.5991383219955	81	127
522.5062585034013	522.5991383219955	45	127
522.5991383219955	522.7036281179138	44	127
522.5991383219955	522.7036281179138	80	127
522.7152380952381	522.8197278911565	81	127
522.7152380952381	522.8197278911565	45	127
522.8197278911565	522.9242176870748	33	127
522.8197278911565	522.9242176870748	69	127
522.9242176870748	523.0287074829932	81	127
522.9242176870748	523.0287074829932	45	127
523.0287074829932	523.1331972789116	71	127
523.0287074829932	523.1331972789116	35	127
523.1448072562358	523.2144671201814	45	127
523.1448072562358	523.2144671201814	81	127
523.2144671201814	523.3189569160998	72	127
523.2144671201814	523.3189569160998	36	127
523.3189569160998	523.4234467120182	45	127
523.3189569160998	523.4234467120182	81	127
523.4234467120182	523.5279365079365	71	127
523.4234467120182	523.5279365079365	35	127
523.5395464852608	523.6440362811792	81	127
523.5395464852608	523.6440362811792	45	127
523.6440362811792	523.7369160997732	72	127
523.6440362811792	523.7369160997732	36	127
523.7369160997732	523.8414058956917	81	127
523.7369160997732	523.8414058956917	45	127
523.8414058956917	523.9575056689342	69	127
523.8414058956917	523.9575056689342	33	127
523.9575056689342	524.0619954648527	81	127
523.9575056689342	524.0619954648527	45	127
524.0736054421769	524.2477551020409	44	127
524.0736054421769	524.2477551020409	52	127
524.0736054421769	524.2477551020409	64	127
524.0736054421769	524.2477551020409	68	127
524.0736054421769	524.2477551020409	71	127
524.0736054421769	524.2477551020409	47	127
524.0736054421769	524.2477551020409	76	127
524.0736054421769	524.2477551020409	40	127
524.8746938775511	525.0372335600907	64	127
524.8746938775511	525.0372335600907	83	127
524.8746938775511	525.0372335600907	80	127
524.8746938775511	525.0372335600907	56	127
524.8746938775511	525.0372335600907	59	127
524.8746938775511	525.0372335600907	88	127
524.8746938775511	525.0372335600907	76	127
524.8746938775511	525.0372335600907	52	127
525.6641723356009	525.7802721088435	33	127
525.6641723356009	525.7802721088435	69	127
525.7918820861678	525.884761904762	81	127
525.7918820861678	525.884761904762	45	127
525.884761904762	525.9892517006803	80	127
525.884761904762	525.9892517006803	44	127
525.9892517006803	526.0937414965987	81	127
525.9892517006803	526.0937414965987	45	127
526.0937414965987	526.198231292517	33	127
526.0937414965987	526.198231292517	69	127
526.198231292517	526.3027210884354	81	127
526.198231292517	526.3027210884354	45	127
526.3143310657597	526.3956009070295	35	127
526.3143310657597	526.3956009070295	71	127
526.3956009070295	526.4652607709751	45	127
526.3956009070295	526.4652607709751	81	127
526.4652607709751	526.5697505668934	36	127
526.4652607709751	526.5697505668934	72	127
526.5697505668934	526.6742403628118	81	127
526.5697505668934	526.6742403628118	45	127
526.6858503401361	526.7903401360544	35	127
526.6858503401361	526.7903401360544	71	127
526.7903401360544	526.8716099773243	81	127
526.7903401360544	526.8716099773243	45	127
526.8716099773243	526.9528571428572	72	127
526.8716099773243	526.9528571428572	36	127
526.9528571428572	527.0573696145125	81	127
526.9528571428572	527.0573696145125	45	127
527.0689795918368	527.1734693877551	69	127
527.0689795918368	527.1734693877551	33	127
527.1734693877551	527.2779591836735	45	127
527.1734693877551	527.2779591836735	81	127
527.2779591836735	527.4637188208617	52	127
527.2779591836735	527.4637188208617	71	127
527.2779591836735	527.4637188208617	47	127
527.2779591836735	527.4637188208617	44	127
527.2779591836735	527.4637188208617	40	127
527.2779591836735	527.4637188208617	76	127
527.2779591836735	527.4637188208617	64	127
527.2779591836735	527.4637188208617	68	127
528.137097505669	528.2764172335601	80	127
528.137097505669	528.2764172335601	59	127
528.137097505669	528.2764172335601	88	127
528.137097505669	528.2764172335601	83	127
528.137097505669	528.2764172335601	52	127
528.137097505669	528.2764172335601	56	127
528.137097505669	528.2764172335601	64	127
528.137097505669	528.2764172335601	76	127
528.9149659863946	529.0891156462585	48	127
528.9149659863946	529.0891156462585	69	127
528.9149659863946	529.0891156462585	45	127
528.9149659863946	529.0891156462585	81	127
528.9149659863946	529.0891156462585	52	127
528.9149659863946	529.0891156462585	72	127
528.9149659863946	529.0891156462585	76	127
528.9149659863946	529.0891156462585	57	127
529.727664399093	529.8785941043084	40	127
529.727664399093	529.8785941043084	44	127
529.727664399093	529.8785941043084	52	127
529.727664399093	529.8785941043084	76	127
529.727664399093	529.8785941043084	47	127
529.727664399093	529.8785941043084	83	127
529.727664399093	529.8785941043084	80	127
529.727664399093	529.8785941043084	88	127
530.5171428571429	530.6912925170068	76	127
530.5171428571429	530.6912925170068	69	127
530.5171428571429	530.6912925170068	45	127
530.5171428571429	530.6912925170068	81	127
530.5171428571429	530.6912925170068	57	127
530.5171428571429	530.6912925170068	72	127
530.5171428571429	530.6912925170068	48	127
530.5171428571429	530.6912925170068	52	127
531.3414512471655	531.5156009070295	80	127
531.3414512471655	531.5156009070295	76	127
531.3414512471655	531.5156009070295	88	127
531.3414512471655	531.5156009070295	40	127
531.3414512471655	531.5156009070295	83	127
531.3414512471655	531.5156009070295	44	127
531.3414512471655	531.5156009070295	52	127
531.3414512471655	531.5156009070295	47	127
532.154149659864	532.3282993197279	57	127
532.154149659864	532.3282993197279	81	127
532.154149659864	532.3282993197279	48	127
532.154149659864	532.3282993197279	45	127
532.154149659864	532.3282993197279	76	127
532.154149659864	532.3282993197279	52	127
532.154149659864	532.3282993197279	69	127
532.154149659864	532.3282993197279	72	127
532.9900680272109	533.1409977324263	79	127
532.9900680272109	533.1409977324263	55	127
532.9900680272109	533.1409977324263	48	127
532.9900680272109	533.1409977324263	60	127
532.9900680272109	533.1409977324263	52	127
532.9900680272109	533.1409977324263	84	127
532.9900680272109	533.1409977324263	76	127
532.9900680272109	533.1409977324263	88	127
532.9900680272109	533.1409977324263	82	127
533.7331065759637	533.8956235827665	84	127
533.7331065759637	533.8956235827665	89	127
533.7331065759637	533.8956235827665	48	127
533.7331065759637	533.8956235827665	77	127
533.7331065759637	533.8956235827665	53	127
533.7331065759637	533.8956235827665	81	127
533.7331065759637	533.8956235827665	41	127
533.7331065759637	533.8956235827665	45	127
534.5225623582767	534.6851247165533	81	127
534.5225623582767	534.6851247165533	52	127
534.5225623582767	534.6851247165533	57	127
534.5225623582767	534.6851247165533	76	127
534.5225623582767	534.6851247165533	73	127
534.5225623582767	534.6851247165533	79	127
534.5225623582767	534.6851247165533	49	127
534.5225623582767	534.6851247165533	45	127
534.5225623582767	534.6851247165533	85	127
535.3352607709751	535.4978231292517	81	127
535.3352607709751	535.4978231292517	77	127
535.3352607709751	535.4978231292517	45	127
535.3352607709751	535.4978231292517	74	127
535.3352607709751	535.4978231292517	38	127
535.3352607709751	535.4978231292517	50	127
535.3352607709751	535.4978231292517	41	127
535.3352607709751	535.4978231292517	86	127
536.1479591836735	536.3105215419502	77	127
536.1479591836735	536.3105215419502	48	127
536.1479591836735	536.3105215419502	53	127
536.1479591836735	536.3105215419502	41	127
536.1479591836735	536.3105215419502	72	127
536.1479591836735	536.3105215419502	69	127
536.1479591836735	536.3105215419502	81	127
536.1479591836735	536.3105215419502	45	127
536.1479591836735	536.3105215419502	75	127
536.5543083900227	536.6820408163265	84	127
536.5543083900227	536.6820408163265	87	127
536.5543083900227	536.6820408163265	89	127
536.5543083900227	536.6820408163265	29	127
536.5543083900227	536.6820408163265	77	127
536.5543083900227	536.6820408163265	81	127
536.5543083900227	536.6820408163265	41	127
536.9258503401361	537.0883900226758	77	127
536.9258503401361	537.0883900226758	29	127
536.9258503401361	537.0883900226758	84	127
536.9258503401361	537.0883900226758	89	127
536.9258503401361	537.0883900226758	41	127
536.9258503401361	537.0883900226758	81	127
536.9258503401361	537.0883900226758	87	127
537.3438095238096	537.5063492063492	77	127
537.3438095238096	537.5063492063492	89	127
537.3438095238096	537.5063492063492	41	127
537.3438095238096	537.5063492063492	81	127
537.3438095238096	537.5063492063492	29	127
537.3438095238096	537.5063492063492	84	127
537.3438095238096	537.5063492063492	87	127
537.7501587301588	537.9243083900227	89	127
537.7501587301588	537.9243083900227	81	127
537.7501587301588	537.9243083900227	87	127
537.7501587301588	537.9243083900227	29	127
537.7501587301588	537.9243083900227	84	127
537.7501587301588	537.9243083900227	77	127
537.7501587301588	537.9243083900227	41	127
538.1797278911565	538.3654875283447	29	127
538.1797278911565	538.3654875283447	41	127
538.1797278911565	538.3654875283447	77	127
538.1797278911565	538.3654875283447	87	127
538.1797278911565	538.3654875283447	89	127
538.1797278911565	538.3654875283447	81	127
538.1797278911565	538.3654875283447	84	127
538.690566893424	538.864716553288	70	127
538.690566893424	538.864716553288	77	127
538.690566893424	539.7238548752835	46	127
538.690566893424	538.864716553288	34	127
538.690566893424	538.864716553288	74	127
538.690566893424	538.864716553288	82	127
539.7935147392291	539.8980045351474	45	127
539.7935147392291	539.8980045351474	57	127
539.9096145124716	540.0141043083901	46	127
539.9096145124716	540.0141043083901	58	127
540.0141043083901	540.1069841269841	51	127
540.0141043083901	540.1069841269841	63	127
540.1069841269841	540.2114739229025	58	127
540.1069841269841	540.2114739229025	46	127
540.2114739229025	540.3159637188209	55	127
540.2114739229025	540.3159637188209	43	127
540.3275736961451	540.4436507936508	46	127
540.3275736961451	540.4436507936508	58	127
540.4436507936508	540.5481632653061	51	127
540.4436507936508	540.5481632653061	63	127
540.5481632653061	540.6410204081633	46	127
540.5481632653061	540.6410204081633	58	127
540.6410204081633	540.7455328798186	57	127
540.6410204081633	540.7455328798186	45	127
540.7455328798186	540.85	58	127
540.7455328798186	540.85	46	127
540.8616099773243	540.9777324263039	62	127
540.8616099773243	540.9777324263039	50	127
540.9777324263039	541.0822222222222	58	127
540.9777324263039	541.0822222222222	46	127
541.0822222222222	541.1634920634921	41	127
541.0822222222222	541.1634920634921	53	127
541.1634920634921	541.2679591836735	58	127
541.1634920634921	541.2679591836735	46	127
541.2795918367347	541.3840816326531	62	127
541.2795918367347	541.3840816326531	50	127
541.3840816326531	541.465328798186	58	127
541.3840816326531	541.465328798186	46	127
541.465328798186	541.5698412698413	45	127
541.465328798186	541.5698412698413	57	127
541.5698412698413	541.6743083900227	58	127
541.5698412698413	541.6743083900227	46	127
541.6743083900227	541.7904308390023	61	127
541.6743083900227	541.7904308390023	49	127
541.7904308390023	541.8832879818594	58	127
541.7904308390023	541.8832879818594	46	127
541.8832879818594	541.9878004535148	40	127
541.8832879818594	541.9878004535148	52	127
541.9878004535148	542.0922675736962	58	127
541.9878004535148	542.0922675736962	46	127
542.0922675736962	542.1851700680272	49	127
542.0922675736962	542.1851700680272	61	127
542.1967800453515	542.2896371882086	58	127
542.1967800453515	542.2896371882086	46	127
542.2896371882086	542.394149659864	57	127
542.2896371882086	542.394149659864	45	127
542.394149659864	542.4986167800454	46	127
542.394149659864	542.4986167800454	58	127
542.4986167800454	542.5915192743764	50	127
542.4986167800454	542.5915192743764	62	127
542.6031292517007	542.7075963718821	58	127
542.6031292517007	542.7075963718821	46	127
542.7075963718821	542.8121088435374	41	127
542.7075963718821	542.8121088435374	53	127
542.8121088435374	542.9165986394557	58	127
542.8121088435374	542.9165986394557	46	127
542.9165986394557	543.0210884353742	50	127
542.9165986394557	543.0210884353742	62	127
543.0210884353742	543.1255782312925	58	127
543.0210884353742	543.1255782312925	46	127
543.1371882086167	543.2416780045352	57	127
543.1371882086167	543.2416780045352	45	127
543.2416780045352	543.3461678004535	46	127
543.2416780045352	543.3461678004535	58	127
543.3461678004535	543.4506575963719	63	127
543.3461678004535	543.4506575963719	51	127
543.4506575963719	543.5551473922902	46	127
543.4506575963719	543.5551473922902	58	127
543.5667573696145	543.6712471655329	41	127
543.5667573696145	543.6712471655329	53	127
543.6712471655329	543.7757369614512	46	127
543.6712471655329	543.7757369614512	58	127
543.7757369614512	543.8802267573697	51	127
543.7757369614512	543.8802267573697	63	127
543.8802267573697	543.984716553288	58	127
543.8802267573697	543.984716553288	46	127
543.9963265306122	544.0892063492064	45	127
543.9963265306122	544.0892063492064	57	127
544.0892063492064	544.1472562358276	58	127
544.0892063492064	544.1472562358276	46	127
544.1472562358276	544.2285260770975	62	127
544.1472562358276	544.2285260770975	50	127
544.2285260770975	544.3213832199547	46	127
544.2285260770975	544.3213832199547	58	127
544.3213832199547	544.42589569161	41	127
544.3213832199547	544.42589569161	53	127
544.4375056689343	544.5419727891157	46	127
544.4375056689343	544.5419727891157	58	127
544.5419727891157	544.646485260771	62	127
544.5419727891157	544.646485260771	50	127
544.646485260771	544.7509523809524	46	127
544.646485260771	544.7509523809524	58	127
544.7509523809524	544.8554648526077	57	127
544.7509523809524	544.8554648526077	45	127
544.867074829932	544.9715646258503	58	127
544.867074829932	544.9715646258503	46	127
544.9715646258503	545.0760544217687	51	127
544.9715646258503	545.0760544217687	63	127
545.0760544217687	545.1573015873016	58	127
545.0760544217687	545.1573015873016	46	127
545.1573015873016	545.2618140589569	41	127
545.1573015873016	545.2618140589569	53	127
545.2618140589569	545.3779138321995	46	127
545.2618140589569	545.3779138321995	58	127
545.3779138321995	545.4475736961451	63	127
545.3779138321995	545.4475736961451	51	127
545.4475736961451	545.5520408163266	58	127
545.4475736961451	545.5520408163266	46	127
545.5520408163266	545.6449433106576	45	127
545.5520408163266	545.6449433106576	57	127
545.6449433106576	545.749410430839	58	127
545.6449433106576	545.749410430839	46	127
545.7610204081633	545.8655328798186	50	127
545.7610204081633	545.8655328798186	62	127
545.8655328798186	545.97	58	127
545.8655328798186	545.97	46	127
545.97	546.0629024943311	53	127
545.97	546.0629024943311	41	127
546.0629024943311	546.1673696145125	58	127
546.0629024943311	546.1673696145125	46	127
546.1789795918368	546.2834920634921	62	127
546.1789795918368	546.2834920634921	50	127
546.2834920634921	546.3879591836735	46	127
546.2834920634921	546.3879591836735	58	127
546.3879591836735	546.4924716553288	53	127
546.3879591836735	546.4924716553288	41	127
546.4924716553288	546.5969614512471	46	127
546.4924716553288	546.5969614512471	58	127
546.5969614512471	546.7014512471656	50	127
546.5969614512471	546.7014512471656	62	127
546.7130612244898	546.8175510204081	58	127
546.7130612244898	546.8175510204081	46	127
546.8175510204081	546.9104308390023	53	127
546.8175510204081	546.9104308390023	41	127
546.9104308390023	547.0033106575963	58	127
546.9104308390023	547.0033106575963	46	127
547.0033106575963	547.1078004535148	62	127
547.0033106575963	547.1078004535148	50	127
547.119410430839	547.2239002267573	58	127
547.119410430839	547.2239002267573	46	127
547.2239002267573	547.3283900226758	44	127
547.2239002267573	547.3283900226758	56	127
547.3283900226758	547.4328798185941	45	127
547.3283900226758	547.4328798185941	57	127
547.4328798185941	547.5373696145125	62	127
547.4328798185941	547.5373696145125	50	127
547.5489795918368	547.6418594104308	45	127
547.5489795918368	547.6418594104308	57	127
547.6418594104308	547.7115192743764	41	127
547.6418594104308	547.7115192743764	53	127
547.7115192743764	547.7927891156463	45	127
547.7115192743764	547.7927891156463	57	127
547.7927891156463	547.8972789115646	62	127
547.7927891156463	547.8972789115646	50	127
547.8972789115646	547.9901587301588	45	127
547.8972789115646	547.9901587301588	57	127
548.001746031746	548.1062585034014	41	127
548.001746031746	548.1062585034014	53	127
548.1062585034014	548.2107256235828	45	127
548.1062585034014	548.2107256235828	57	127
548.2107256235828	548.3152380952381	50	127
548.2107256235828	548.3152380952381	62	127
548.3152380952381	548.4197052154195	57	127
548.3152380952381	548.4197052154195	45	127
548.4313151927438	548.5358276643991	53	127
548.4313151927438	548.5358276643991	41	127
548.5358276643991	548.6403174603174	45	127
548.5358276643991	548.6403174603174	57	127
548.6403174603174	548.7448072562358	62	127
548.6403174603174	548.7448072562358	50	127
548.7448072562358	548.8260544217687	57	127
548.7448072562358	548.8260544217687	45	127
548.8260544217687	548.9537868480726	52	127
548.8260544217687	548.9537868480726	40	127
548.9537868480726	549.0582766439909	44	127
548.9537868480726	549.0582766439909	56	127
549.0582766439909	549.1627664399093	62	127
549.0582766439909	549.1627664399093	50	127
549.1627664399093	549.2672562358276	56	127
549.1627664399093	549.2672562358276	44	127
549.2672562358276	549.371746031746	53	127
549.2672562358276	549.371746031746	41	127
549.3833560090703	549.4762358276644	57	127
549.3833560090703	549.4762358276644	45	127
549.4762358276644	549.5575056689343	50	127
549.4762358276644	549.5575056689343	62	127
549.5575056689343	549.6503628117914	45	127
549.5575056689343	549.6503628117914	57	127
549.6503628117914	549.7548752834467	52	127
549.6503628117914	549.7548752834467	40	127
549.766485260771	549.8709750566893	56	127
549.766485260771	549.8709750566893	44	127
549.8709750566893	549.9754648526077	62	127
549.8709750566893	549.9754648526077	50	127
549.9754648526077	550.0683219954649	44	127
549.9754648526077	550.0683219954649	56	127
550.0683219954649	550.1612244897959	41	127
550.0683219954649	550.1612244897959	53	127
550.1612244897959	550.2540816326531	45	127
550.1612244897959	550.2540816326531	57	127
550.2656916099774	550.3585941043084	50	127
550.2656916099774	550.3585941043084	62	127
550.3585941043084	550.4630612244898	45	127
550.3585941043084	550.4630612244898	57	127
550.4630612244898	550.5675736961451	40	127
550.4630612244898	550.5675736961451	52	127
550.5675736961451	550.6720408163266	56	127
550.5675736961451	550.6720408163266	44	127
550.6836734693877	550.7881632653061	50	127
550.6836734693877	550.7881632653061	62	127
550.7881632653061	550.8926530612245	56	127
550.7881632653061	550.8926530612245	44	127
550.8926530612245	550.9739229024943	41	127
550.8926530612245	550.9739229024943	53	127
550.9739229024943	551.0783900226758	57	127
550.9739229024943	551.0783900226758	45	127
551.09	551.1945124716553	50	127
551.09	551.1945124716553	62	127
551.1945124716553	551.2990022675737	57	127
551.1945124716553	551.2990022675737	45	127
551.2990022675737	551.4034920634921	52	127
551.2990022675737	551.4034920634921	40	127
551.4034920634921	551.484739229025	54	127
551.4034920634921	551.484739229025	42	127
551.484739229025	551.577641723356	56	127
551.484739229025	551.577641723356	44	127
551.5892517006803	551.6937188208617	45	127
551.5892517006803	551.6937188208617	57	127
551.6937188208617	551.7517913832199	59	127
551.6937188208617	551.7517913832199	47	127
551.7517913832199	551.8446712018141	60	127
551.7517913832199	551.8446712018141	48	127
551.8446712018141	551.9375510204081	62	127
551.8446712018141	551.9375510204081	50	127
551.9491609977324	552.0536507936508	52	127
551.9491609977324	552.0536507936508	64	127
552.0536507936508	552.6573696145125	65	127
552.0536507936508	552.6573696145125	53	127
552.7037868480726	552.8663492063492	45	127
552.7037868480726	552.8663492063492	57	127
552.901179138322	552.947619047619	44	127
552.901179138322	552.947619047619	56	127
553.0869387755102	553.1449886621315	40	127
553.0869387755102	553.1449886621315	52	127
553.3075283446713	553.3539682539682	52	127
553.3075283446713	553.3539682539682	40	127
553.5048979591837	553.562947845805	56	127
553.5048979591837	553.562947845805	44	127
553.7022675736962	553.737074829932	33	127
553.7022675736962	553.737074829932	45	127
553.7022675736962	553.737074829932	57	127
553.8880272108844	553.9344444444445	52	127
553.8880272108844	553.9344444444445	40	127
554.0737868480726	554.1318367346939	52	127
554.0737868480726	554.1318367346939	40	127
554.2827664399093	554.3292063492064	45	127
554.2827664399093	554.3292063492064	57	127
554.4569160997733	554.4917460317461	47	127
554.4569160997733	554.4917460317461	59	127
554.4569160997733	554.4917460317461	35	127
554.6426757369615	554.6891156462585	40	127
554.6426757369615	554.6891156462585	52	127
554.8284353741496	554.886485260771	40	127
554.8284353741496	554.886485260771	52	127
555.0606349206349	555.107074829932	59	127
555.0606349206349	555.107074829932	47	127
555.2696145124717	555.327664399093	48	127
555.2696145124717	555.327664399093	60	127
555.2696145124717	555.327664399093	36	127
555.4669841269841	555.5134240362812	40	127
555.4669841269841	555.5134240362812	52	127
555.6411337868481	555.6991836734694	61	127
555.6411337868481	555.6991836734694	37	127
555.6411337868481	555.6991836734694	49	127
555.8501133786848	555.8849433106576	52	127
555.8501133786848	555.8849433106576	40	127
556.0474829931973	556.1171428571429	38	127
556.0474829931973	556.1171428571429	62	127
556.0474829931973	556.1171428571429	50	127
556.256462585034	556.3145124716553	40	127
556.256462585034	556.3145124716553	52	127
556.477052154195	556.5234920634921	51	127
556.477052154195	556.5234920634921	63	127
556.477052154195	556.5234920634921	39	127
556.6628117913832	556.7208616780046	40	127
556.6628117913832	556.7208616780046	52	127
556.8369614512471	556.8834013605442	52	127
556.8369614512471	556.8834013605442	64	127
557.0343310657596	557.092380952381	52	127
557.0343310657596	557.092380952381	40	127
557.2433106575963	557.2665306122449	41	127
557.2433106575963	557.2665306122449	53	127
557.4290476190477	557.4755102040816	65	127
557.4290476190477	557.4755102040816	53	127
557.6148072562358	557.6612698412698	54	127
557.6148072562358	557.6612698412698	66	127
557.8237868480726	557.8702494331066	42	127
557.8237868480726	557.8702494331066	54	127
557.9979591836735	558.0443990929705	43	127
557.9979591836735	558.0443990929705	55	127
558.1837188208617	558.2417460317461	67	127
558.1837188208617	558.2417460317461	31	127
558.4043083900227	558.4507256235828	56	127
558.4043083900227	558.4507256235828	32	127
558.6132879818595	558.6597278911564	68	127
558.6132879818595	558.6597278911564	44	127
558.8106575963719	558.857074829932	33	127
558.8106575963719	558.857074829932	57	127
559.0080272108844	559.0660544217687	69	127
559.0080272108844	559.0660544217687	45	127
559.2402267573697	559.2866666666666	34	127
559.2402267573697	559.2866666666666	58	127
559.4491836734694	559.4956462585034	46	127
559.4491836734694	559.4956462585034	70	127
559.6465759637189	559.6930158730158	35	127
559.6465759637189	559.6930158730158	59	127
559.8323356009071	559.8903854875283	71	127
559.8323356009071	559.8903854875283	47	127
560.0297052154195	560.0761224489796	36	127
560.0297052154195	560.0761224489796	60	127
560.227074829932	560.2734920634921	72	127
560.227074829932	560.2734920634921	48	127
560.4012244897959	560.447664399093	37	127
560.4012244897959	560.447664399093	61	127
560.5985941043084	560.6450340136055	73	127
560.5985941043084	560.6450340136055	49	127
560.8075736961451	560.8540136054422	62	127
560.8075736961451	560.8540136054422	38	127
561.0049433106576	561.0513832199547	50	127
561.0049433106576	561.0513832199547	74	127
561.2139229024943	561.2603628117914	39	127
561.2139229024943	561.2603628117914	63	127
561.4229024943311	561.4693424036282	51	127
561.4229024943311	561.4693424036282	75	127
561.5854421768707	561.6318820861678	40	127
561.5854421768707	561.6318820861678	64	127
561.7944217687075	561.8408616780046	52	127
561.7944217687075	561.8408616780046	76	127
562.0034013605442	562.0614512471656	65	127
562.0034013605442	562.0614512471656	41	127
562.1891609977324	562.2356009070295	77	127
562.1891609977324	562.2356009070295	53	127
562.3865306122449	562.4213605442177	62	127
562.3865306122449	562.4213605442177	38	127
562.5955102040816	562.653560090703	74	127
562.5955102040816	562.653560090703	50	127
562.8277097505669	562.874149659864	40	127
562.8277097505669	562.874149659864	64	127
563.0018594104308	563.0599092970522	52	127
563.0018594104308	563.0599092970522	76	127
563.2688888888889	564.1744444444445	43	127
563.2688888888889	564.1744444444445	60	127
563.2688888888889	564.1744444444445	52	127
563.2688888888889	564.1744444444445	48	127
563.2688888888889	563.7448752834467	76	127
563.7448752834467	564.0003174603174	74	127
564.0003174603174	564.1976870748299	72	127
564.2325170068027	565.0800453514739	59	127
564.2325170068027	565.0800453514739	48	127
564.2325170068027	565.0800453514739	47	127
564.2325170068027	564.7201360544218	74	127
564.2325170068027	565.0800453514739	52	127
564.2325170068027	565.0800453514739	41	127
564.7201360544218	564.8942857142857	72	127
564.8942857142857	565.1032653061225	71	127
565.1380952380953	565.5560544217687	60	127
565.1380952380953	565.5560544217687	72	127
565.1380952380953	565.4980045351474	57	127
565.1380952380953	565.4980045351474	45	127
565.1380952380953	565.4980045351474	52	127
565.5560544217687	566.3223129251701	52	127
565.5560544217687	566.3223129251701	40	127
565.5560544217687	565.7998412698413	59	127
565.5560544217687	565.7998412698413	71	127
565.7998412698413	565.962403628118	57	127
565.7998412698413	565.962403628118	69	127
565.9972108843538	566.3803628117914	71	127
565.9972108843538	566.3803628117914	59	127
566.3803628117914	566.6125396825397	57	127
566.3803628117914	567.0304988662132	40	127
566.3803628117914	566.6125396825397	69	127
566.3803628117914	567.0304988662132	52	127
566.6125396825397	566.7867120181406	56	127
566.6125396825397	566.7867120181406	68	127
566.8215192743764	567.2859410430839	69	127
566.8215192743764	567.2859410430839	57	127
567.0653514739229	567.2394784580499	52	127
567.0653514739229	567.2394784580499	40	127
567.2859410430839	567.4484580498867	56	127
567.2859410430839	567.4252380952381	50	127
567.2859410430839	567.4252380952381	38	127
567.2859410430839	567.4484580498867	68	127
567.4484580498867	567.6110204081633	48	127
567.4484580498867	567.6110204081633	69	127
567.4484580498867	567.6110204081633	36	127
567.4484580498867	567.6110204081633	57	127
567.6458276643991	567.8316099773243	47	127
567.6458276643991	567.8316099773243	35	127
567.6458276643991	567.8316099773243	71	127
567.6458276643991	567.8316099773243	59	127
567.8780498866213	568.0057596371882	53	127
567.8780498866213	568.0057596371882	41	127
568.0521768707483	568.2727891156462	68	127
568.0521768707483	568.2727891156462	40	127
568.0521768707483	568.2727891156462	52	127
568.0521768707483	568.2727891156462	56	127
568.307619047619	568.5165986394558	50	127
568.307619047619	568.5165986394558	38	127
568.5630385487528	569.3409070294784	88	127
568.5630385487528	569.3409070294784	36	127
568.5630385487528	569.3409070294784	48	127
568.5630385487528	569.3409070294784	76	127
568.5630385487528	569.3409070294784	40	127
569.3989569160998	570.1884353741497	35	127
569.3989569160998	570.1884353741497	76	127
569.3989569160998	570.1884353741497	88	127
569.3989569160998	570.1884353741497	40	127
569.3989569160998	570.1884353741497	47	127
570.246485260771	570.7224943310657	88	127
570.246485260771	570.6644444444445	45	127
570.246485260771	570.6644444444445	40	127
570.246485260771	570.7224943310657	76	127
570.246485260771	570.6644444444445	33	127
570.7224943310657	571.3494331065759	40	127
570.7224943310657	571.3494331065759	52	127
570.7224943310657	570.954693877551	74	127
570.7224943310657	570.954693877551	86	127
570.954693877551	571.1172108843538	72	127
570.954693877551	571.1172108843538	84	127
571.1636734693877	571.6048526077097	86	127
571.1636734693877	571.6048526077097	74	127
571.395873015873	571.5700226757369	41	127
571.395873015873	571.5700226757369	53	127
571.6048526077097	571.8486621315193	84	127
571.6048526077097	571.8022222222222	40	127
571.6048526077097	571.8486621315193	72	127
571.6048526077097	571.8022222222222	52	127
571.8486621315193	571.9763718820861	38	127
571.8486621315193	571.9763718820861	50	127
571.8486621315193	571.9763718820861	83	127
571.8486621315193	571.9763718820861	71	127
572.0228117913832	572.4175510204082	84	127
572.0228117913832	572.4175510204082	72	127
572.0228117913832	572.1853514739229	48	127
572.0228117913832	572.1853514739229	36	127
572.2085714285714	572.3711111111111	35	127
572.2085714285714	572.3711111111111	47	127
572.4175510204082	572.6381405895692	83	127
572.4175510204082	572.5917006802721	45	127
572.4175510204082	572.6381405895692	71	127
572.4175510204082	572.5917006802721	33	127
572.6381405895692	572.8122902494331	43	127
572.6381405895692	572.8122902494331	84	127
572.6381405895692	572.8122902494331	72	127
572.6381405895692	572.8122902494331	31	127
572.8471201814059	573.0444897959184	29	127
572.8471201814059	573.0444897959184	41	127
572.8471201814059	573.0444897959184	86	127
572.8471201814059	573.0444897959184	74	127
573.0793197278912	573.207029478458	38	127
573.2534693877551	573.4508390022676	71	127
573.2534693877551	573.4508390022676	40	127
573.2534693877551	573.4508390022676	83	127
573.4740589569161	573.6598185941043	52	127
573.7062585034014	573.8804081632653	81	127
573.7062585034014	573.8804081632653	69	127
573.7062585034014	573.8804081632653	45	127
573.7062585034014	573.8804081632653	33	127
574.1590476190477	574.391224489796	84	127
574.1590476190477	574.391224489796	72	127
574.6931065759637	574.8904761904762	76	127
574.6931065759637	574.8904761904762	88	127
575.14589569161	575.2968253968254	84	127
575.14589569161	575.2968253968254	72	127
575.5522448979592	575.7380045351474	69	127
575.5522448979592	575.7380045351474	45	127
575.5522448979592	575.7380045351474	81	127
575.5522448979592	575.7380045351474	33	127
576.0398639455782	576.1791836734694	36	127
576.0398639455782	576.1791836734694	48	127
576.4345804988662	576.6319501133787	52	127
576.4345804988662	576.6319501133787	40	127
576.8641723356009	577.0382993197279	48	127
576.8641723356009	577.0382993197279	36	127
577.2821315192743	577.4795011337868	45	127
577.2821315192743	577.6768707482993	69	127
577.2821315192743	577.6768707482993	81	127
577.2821315192743	577.4795011337868	33	127
577.7349206349206	578.106439909297	84	127
577.7349206349206	578.106439909297	72	127
578.1644897959184	578.5360090702948	76	127
578.1644897959184	578.5360090702948	88	127
578.5940589569161	578.9771882086168	72	127
578.5940589569161	578.9771882086168	84	127
579.0352380952381	579.2209977324263	81	127
579.0352380952381	579.2209977324263	69	127
579.0352380952381	579.4764172335601	45	127
579.0352380952381	579.4764172335601	33	127
579.4764172335601	579.8711564625851	36	127
579.4764172335601	579.8711564625851	48	127
579.8711564625851	580.3471655328798	40	127
579.8711564625851	580.3471655328798	52	127
580.3471655328798	580.8115646258503	36	127
580.3471655328798	580.8115646258503	48	127
580.8115646258503	581.2875736961452	45	127
580.8115646258503	581.2875736961452	33	127
581.2875736961452	581.7403401360544	48	127
581.2875736961452	581.7403401360544	36	127
581.2875736961452	581.6823129251701	72	127
581.2875736961452	581.6823129251701	84	127
581.7403401360544	582.1582993197279	76	127
581.7403401360544	582.2163718820862	52	127
581.7403401360544	582.1582993197279	88	127
581.7403401360544	582.2163718820862	40	127
582.2163718820862	582.5995011337868	84	127
582.2163718820862	582.6575510204082	48	127
582.2163718820862	582.5995011337868	72	127
582.2163718820862	582.6575510204082	36	127
582.6575510204082	583.0755102040816	33	127
582.6575510204082	583.0290702947846	69	127
582.6575510204082	583.0755102040816	45	127
582.6575510204082	583.0290702947846	81	127
583.0755102040816	583.4818594104308	72	127
583.0755102040816	583.5399092970522	48	127
583.0755102040816	583.5399092970522	36	127
583.0755102040816	583.4818594104308	84	127
583.5399092970522	583.9462585034014	52	127
583.5399092970522	583.88820861678	88	127
583.5399092970522	583.9462585034014	40	127
583.5399092970522	583.88820861678	76	127
583.9462585034014	584.3758276643991	72	127
583.9462585034014	584.3758276643991	36	127
583.9462585034014	584.3758276643991	84	127
583.9462585034014	584.3758276643991	48	127
584.4338775510204	584.5615873015873	81	127
584.4338775510204	584.5615873015873	69	127
584.4338775510204	584.5615873015873	33	127
584.4338775510204	584.5615873015873	45	127
584.5615873015873	584.6892970521542	45	127
584.5615873015873	584.6892970521542	57	127
584.6892970521542	584.8053741496599	48	127
584.6892970521542	584.8053741496599	60	127
584.8053741496599	584.9098866213152	45	127
584.8053741496599	584.9098866213152	57	127
584.9098866213152	585.0259637188209	48	127
584.9098866213152	585.0259637188209	60	127
585.0259637188209	585.165306122449	45	127
585.0259637188209	585.165306122449	57	127
585.165306122449	585.2814058956916	60	127
585.165306122449	585.2814058956916	48	127
585.2814058956916	585.4091156462586	45	127
585.2814058956916	585.4091156462586	57	127
585.4091156462586	585.5252154195011	60	127
585.4091156462586	585.5252154195011	48	127
585.5252154195011	585.6412925170068	57	127
585.5252154195011	585.6412925170068	45	127
585.652925170068	585.780634920635	48	127
585.652925170068	585.780634920635	60	127
585.780634920635	585.9431746031746	45	127
585.780634920635	585.9431746031746	57	127
585.9431746031746	586.09410430839	60	127
585.9431746031746	586.09410430839	48	127
586.1057142857143	586.221814058957	45	127
586.1057142857143	586.221814058957	57	127
586.221814058957	586.3379138321995	60	127
586.221814058957	586.3379138321995	48	127
586.3379138321995	586.4656235827664	57	127
586.3379138321995	586.4656235827664	45	127
586.4772335600907	586.5933333333334	60	127
586.4772335600907	586.5933333333334	48	127
586.5933333333334	586.709433106576	45	127
586.5933333333334	586.709433106576	57	127
586.709433106576	586.8255328798186	60	127
586.709433106576	586.8255328798186	48	127
586.8487301587302	586.9880725623583	57	127
586.8487301587302	586.9880725623583	45	127
586.9880725623583	587.1041723356009	60	127
586.9880725623583	587.1041723356009	48	127
587.1041723356009	587.2666893424037	45	127
587.1041723356009	587.2666893424037	57	127
587.2782993197279	587.4292517006803	48	127
587.2782993197279	587.4292517006803	60	127
587.4292517006803	587.5569614512472	45	127
587.4292517006803	587.5569614512472	57	127
587.5569614512472	587.6730385487529	60	127
587.5569614512472	587.6730385487529	48	127
587.6846485260771	587.8007709750567	57	127
587.6846485260771	587.8007709750567	45	127
587.8007709750567	587.9168707482993	60	127
587.8007709750567	587.9168707482993	48	127
587.9168707482993	588.032970521542	45	127
587.9168707482993	588.032970521542	57	127
588.0445804988663	588.1606802721088	60	127
588.0445804988663	588.1606802721088	48	127
588.1606802721088	588.2767800453515	45	127
588.1606802721088	588.2767800453515	57	127
588.2767800453515	588.5554195011338	48	127
588.2767800453515	588.5554195011338	60	127
588.567029478458	589.0546485260771	45	127
588.567029478458	589.0546485260771	57	127
589.0546485260771	593.907619047619	48	127
589.0546485260771	593.907619047619	41	127
589.0546485260771	593.907619047619	57	127
589.0546485260771	593.907619047619	53	127
589.0546485260771	593.907619047619	45	127
589.0546485260771	593.907619047619	60	127
594.0469387755102	598.272970521542	41	127
594.0469387755102	598.272970521542	46	127
594.0469387755102	598.272970521542	62	127
594.0469387755102	598.272970521542	58	127
594.0469387755102	598.272970521542	34	127
594.0469387755102	598.272970521542	53	127
594.0469387755102	598.272970521542	50	127
598.3542403628118	599.2830385487529	73	127
599.2830385487529	600.74589569161	74	127
599.2830385487529	600.74589569161	65	127
599.2830385487529	600.74589569161	69	127
599.2830385487529	600.74589569161	50	127
599.2830385487529	600.74589569161	38	127
599.2830385487529	600.74589569161	62	127
600.8736054421769	602.5454421768708	57	127
600.8736054421769	602.5454421768708	53	127
600.8736054421769	602.5454421768708	69	127
600.8736054421769	602.5454421768708	41	127
600.8736054421769	602.5454421768708	50	127
600.8736054421769	602.5454421768708	62	127
602.6731519274376	606.0516553287982	69	127
602.6731519274376	606.0516553287982	52	127
602.6731519274376	606.0516553287982	72	127
602.6731519274376	606.0516553287982	45	127
602.6731519274376	606.0516553287982	60	127
602.6731519274376	606.0516553287982	64	127
602.6731519274376	606.0516553287982	57	127
608.5245578231293	608.6639002267574	64	127
608.5245578231293	608.6639002267574	48	127
608.5245578231293	608.6639002267574	68	127
608.5245578231293	608.6639002267574	50	127
608.5245578231293	608.6639002267574	71	127
608.5245578231293	608.6639002267574	38	127
608.5245578231293	608.6639002267574	59	127
608.5245578231293	608.6639002267574	43	127
609.2792290249433	609.4301587301587	64	127
609.2792290249433	609.4301587301587	59	127
609.2792290249433	609.4301587301587	83	127
609.2792290249433	609.4301587301587	76	127
609.2792290249433	609.4301587301587	52	127
609.2792290249433	609.4301587301587	88	127
609.2792290249433	609.4301587301587	56	127
609.2792290249433	609.4301587301587	80	127
610.0338775510204	610.1383673469388	76	127
610.0338775510204	610.1383673469388	57	127
610.0338775510204	610.1383673469388	48	127
610.0338775510204	610.1383673469388	45	127
610.0338775510204	610.1383673469388	53	127
610.0338775510204	610.1383673469388	72	127
610.0338775510204	610.1383673469388	81	127
610.0338775510204	610.1383673469388	84	127
610.1383673469388	610.2544671201814	59	127
610.1383673469388	610.2544671201814	47	127
610.2544671201814	610.3705442176871	60	127
610.2544671201814	610.3705442176871	48	127
610.3705442176871	610.4750566893424	62	127
610.3705442176871	610.4750566893424	50	127
610.4750566893424	610.5331065759638	52	127
610.4750566893424	610.5331065759638	64	127
610.5331065759638	610.6375963718821	54	127
610.5331065759638	610.6375963718821	66	127
610.6375963718821	610.7304761904762	56	127
610.6375963718821	610.7304761904762	68	127
610.7420861678005	610.8233560090703	64	127
610.7420861678005	610.8233560090703	52	127
610.8233560090703	610.9046258503402	57	127
610.8233560090703	610.9046258503402	69	127
610.9046258503402	610.9974829931973	67	127
610.9046258503402	610.9974829931973	55	127
610.9974829931973	611.0787755102041	53	127
610.9974829931973	611.0787755102041	65	127
611.0787755102041	611.1716553287982	64	127
611.0787755102041	611.1716553287982	52	127
611.1832426303855	611.2645351473923	50	127
611.1832426303855	611.2645351473923	62	127
611.2645351473923	611.3574149659864	48	127
611.2645351473923	611.3574149659864	60	127
611.3574149659864	611.4502947845805	47	127
611.3574149659864	611.4502947845805	59	127
611.4502947845805	611.5547845804989	45	127
611.4502947845805	611.5547845804989	57	127
611.5547845804989	611.7173242630386	52	127
611.5547845804989	611.7173242630386	44	127
611.5547845804989	611.7173242630386	47	127
611.5547845804989	611.7173242630386	64	127
611.5547845804989	611.7173242630386	59	127
611.5547845804989	611.7173242630386	68	127
611.5547845804989	611.7173242630386	71	127
611.5547845804989	611.7173242630386	40	127
612.3326530612245	612.4835827664399	56	127
612.3326530612245	612.4835827664399	83	127
612.3326530612245	612.4835827664399	80	127
612.3326530612245	612.4835827664399	76	127
612.3326530612245	612.4835827664399	59	127
612.3326530612245	612.4835827664399	64	127
612.3326530612245	612.4835827664399	52	127
612.3326530612245	612.4835827664399	88	127
613.1105215419501	613.2034013605443	81	127
613.1105215419501	613.2034013605443	48	127
613.1105215419501	613.2034013605443	84	127
613.1105215419501	613.2034013605443	45	127
613.1105215419501	613.2034013605443	72	127
613.1105215419501	613.2034013605443	57	127
613.1105215419501	613.2034013605443	76	127
613.1105215419501	613.2034013605443	53	127
613.2034013605443	613.3078911564626	59	127
613.2034013605443	613.3078911564626	47	127
613.3078911564626	613.3891609977325	48	127
613.3078911564626	613.3891609977325	60	127
613.3891609977325	613.4820408163265	50	127
613.3891609977325	613.4820408163265	62	127
613.4820408163265	613.5749206349207	52	127
613.4820408163265	613.5749206349207	64	127
613.5749206349207	613.6561678004535	54	127
613.5749206349207	613.6561678004535	66	127
613.6561678004535	613.7374603174603	68	127
613.6561678004535	613.7374603174603	56	127
613.7374603174603	613.8419274376417	52	127
613.7374603174603	613.8419274376417	64	127
613.8419274376417	613.9348299319728	57	127
613.8419274376417	613.9348299319728	69	127
613.9348299319728	614.0393197278912	67	127
613.9348299319728	614.0393197278912	55	127
614.0393197278912	614.120589569161	65	127
614.0393197278912	614.120589569161	53	127
614.1321995464853	614.2250793650794	64	127
614.1321995464853	614.2250793650794	52	127
614.2250793650794	614.3295691609977	50	127
614.2250793650794	614.3295691609977	62	127
614.3295691609977	614.4224489795919	48	127
614.3295691609977	614.4224489795919	60	127
614.4224489795919	614.5269387755102	47	127
614.4224489795919	614.5269387755102	59	127
614.5269387755102	614.6082086167801	57	127
614.5269387755102	614.6082086167801	45	127
614.6198185941043	614.782358276644	59	127
614.6198185941043	614.782358276644	71	127
614.6198185941043	614.782358276644	64	127
614.6198185941043	614.782358276644	40	127
614.6198185941043	614.782358276644	47	127
614.6198185941043	614.782358276644	68	127
614.6198185941043	614.782358276644	52	127
614.6198185941043	614.782358276644	44	127
615.3860770975057	615.5486167800453	83	127
615.3860770975057	615.5486167800453	88	127
615.3860770975057	615.5486167800453	56	127
615.3860770975057	615.5486167800453	64	127
615.3860770975057	615.5486167800453	80	127
615.3860770975057	615.5486167800453	52	127
615.3860770975057	615.5486167800453	76	127
615.3860770975057	615.5486167800453	59	127
616.0826757369615	616.1987755102041	45	127
616.0826757369615	616.1987755102041	81	127
616.0826757369615	616.1987755102041	57	127
616.0826757369615	616.1987755102041	53	127
616.0826757369615	616.1987755102041	84	127
616.0826757369615	616.1987755102041	72	127
616.0826757369615	616.1987755102041	48	127
616.0826757369615	616.1987755102041	76	127
616.1987755102041	616.3497052154195	57	127
616.1987755102041	616.3497052154195	81	127
616.3497052154195	616.4774149659864	79	127
616.3497052154195	616.4774149659864	55	127
616.4774149659864	616.5702947845805	53	127
616.4774149659864	616.5702947845805	77	127
616.5702947845805	616.6515646258504	52	127
616.5702947845805	616.6515646258504	76	127
616.6631746031746	616.7328344671201	53	127
616.6631746031746	616.7328344671201	77	127
616.7328344671201	616.81410430839	52	127
616.7328344671201	616.81410430839	76	127
616.81410430839	616.9069614512472	74	127
616.81410430839	616.9069614512472	50	127
616.9069614512472	616.9998639455782	48	127
616.9069614512472	616.9998639455782	72	127
616.9998639455782	617.0927437641724	77	127
616.9998639455782	617.0927437641724	53	127
617.1043537414967	617.1972335600907	76	127
617.1043537414967	617.1972335600907	52	127
617.1972335600907	617.2901133786849	74	127
617.1972335600907	617.2901133786849	50	127
617.2901133786849	617.3829931972789	48	127
617.2901133786849	617.3829931972789	72	127
617.3829931972789	617.475873015873	74	127
617.3829931972789	617.475873015873	50	127
617.475873015873	617.5571428571428	72	127
617.475873015873	617.5571428571428	48	127
617.5687528344671	617.650022675737	71	127
617.5687528344671	617.650022675737	47	127
617.650022675737	617.7428798185941	45	127
617.650022675737	617.7428798185941	69	127
617.7428798185941	617.8357823129252	41	127
617.7428798185941	617.8357823129252	65	127
617.8473922902494	617.9170521541951	40	127
617.8473922902494	617.9170521541951	64	127
617.9170521541951	618.0099319727891	38	127
617.9170521541951	618.0099319727891	62	127
618.0099319727891	618.091201814059	36	127
618.0099319727891	618.091201814059	60	127
618.091201814059	618.184081632653	38	127
618.091201814059	618.184081632653	62	127
618.184081632653	618.2769614512472	36	127
618.184081632653	618.2769614512472	60	127
618.2885714285715	618.3698412698412	35	127
618.2885714285715	618.3698412698412	59	127
618.3698412698412	618.4743310657597	33	127
618.3698412698412	618.4743310657597	57	127
618.4743310657597	618.5671882086168	65	127
618.4743310657597	618.5671882086168	41	127
618.5671882086168	618.6600907029479	40	127
618.5671882086168	618.6600907029479	64	127
618.6600907029479	618.7297505668935	62	127
618.6600907029479	618.7297505668935	38	127
618.7413605442177	618.8342403628118	60	127
618.7413605442177	618.8342403628118	36	127
618.8342403628118	618.9387301587302	62	127
618.8342403628118	618.9387301587302	38	127
618.9387301587302	619.0432199546485	60	127
618.9387301587302	619.0432199546485	36	127
619.0432199546485	619.147709750567	59	127
619.0432199546485	619.147709750567	35	127
619.147709750567	619.3102494331066	33	127
619.147709750567	619.3102494331066	57	127
620.0532879818594	620.3551473922903	40	127
620.0532879818594	620.3551473922903	44	127
620.0532879818594	620.3551473922903	71	127
620.0532879818594	620.3551473922903	47	127
620.0532879818594	620.3551473922903	80	127
620.0532879818594	620.3551473922903	52	127
620.0532879818594	620.3551473922903	74	127
620.0532879818594	620.3551473922903	68	127
620.0532879818594	620.3551473922903	76	127
621.0401360544217	621.400045351474	76	127
621.0401360544217	621.400045351474	33	127
621.0401360544217	621.400045351474	40	127
621.0401360544217	621.400045351474	45	127
621.0401360544217	621.400045351474	72	127
621.0401360544217	621.400045351474	36	127
621.0401360544217	621.400045351474	81	127
621.0401360544217	621.400045351474	69	127
