# onset,offset,note,velocity
0.10371882086167801	4.4458503401360545	57	127
0.10371882086167801	5.92031746031746	64	127
4.4458503401360545	5.92031746031746	81	127
4.4458503401360545	5.92031746031746	69	127
5.92031746031746	8.044920634920635	78	127
5.92031746031746	8.044920634920635	74	127
8.044920634920635	9.391700680272109	74	127
8.044920634920635	9.391700680272109	71	127
9.577460317460318	10.84294784580499	68	127
9.577460317460318	10.84294784580499	71	127
10.84294784580499	12.828253968253968	64	127
10.84294784580499	12.828253968253968	76	127
12.828253968253968	13.757052154195012	62	127
12.828253968253968	13.757052154195012	68	127
13.768662131519275	14.82517006802721	69	127
13.768662131519275	14.82517006802721	61	127
15.150249433106575	16.57827664399093	66	127
15.150249433106575	15.428888888888888	59	127
15.428888888888888	16.57827664399093	74	127
16.58986394557823	18.134013605442178	68	127
16.58986394557823	16.949795918367347	59	127
16.949795918367347	18.134013605442178	74	127
18.157233560090702	20.09609977324263	64	127
18.157233560090702	18.63324263038549	57	127
18.63324263038549	20.09609977324263	74	127
20.09609977324263	20.81591836734694	73	127
38.5443537414966	39.53120181405896	77	127
39.670521541950116	39.97238095238095	55	127
39.670521541950116	41.04047619047619	62	127
39.97238095238095	41.04047619047619	71	127
39.97238095238095	41.04047619047619	77	127
41.04047619047619	41.400408163265304	60	127
41.04047619047619	42.85165532879819	67	127
41.400408163265304	42.85165532879819	72	127
41.400408163265304	42.85165532879819	77	127
42.85165532879819	43.52503401360544	76	127
47.124104308390024	48.134195011337866	81	127
48.3431746031746	48.6566439909297	59	127
48.3431746031746	49.73637188208617	66	127
48.6566439909297	49.73637188208617	75	127
48.6566439909297	49.73637188208617	81	127
49.74798185941043	51.744897959183675	71	127
49.74798185941043	50.28204081632653	64	127
50.28204081632653	51.744897959183675	81	127
51.744897959183675	55.92448979591837	80	127
55.92448979591837	58.38580498866213	81	127
58.38580498866213	59.16367346938775	72	127
59.186893424036285	60.0924716553288	71	127
61.71786848072562	62.08938775510204	73	127
62.08938775510204	62.30997732426304	74	127
62.98335600907029	63.30843537414966	72	127
63.30843537414966	63.9237641723356	71	127
65.68845804988662	66.03678004535148	73	127
66.03678004535148	66.31541950113379	74	127
66.97718820861678	67.32548752834467	72	127
67.32548752834467	67.94081632653061	70	127
69.82163265306123	70.19315192743764	73	127
70.19315192743764	70.44857142857143	74	127
71.11034013605442	71.4354195011338	76	127
71.4354195011338	72.07396825396826	77	127
73.86190476190477	74.21020408163265	76	127
74.21020408163265	74.54689342403628	77	127
74.55850340136054	74.8371201814059	76	127
74.8371201814059	75.22024943310657	77	127
75.24349206349207	75.56857142857143	76	127
75.56857142857143	76.25356009070295	77	127
78.19242630385487	78.5639455782313	76	127
78.5639455782313	79.00512471655328	77	127
79.05156462585035	79.42308390022676	76	127
79.42308390022676	79.95714285714286	77	127
79.96875283446713	80.64213151927437	76	127
80.64213151927437	84.51986394557824	77	127
85.01909297052154	85.35578231292517	76	127
85.35578231292517	85.85501133786848	77	127
85.9130612244898	85.95950113378684	69	127
86.12204081632653	86.16848072562358	68	127
86.29619047619047	86.34263038548752	64	127
86.50517006802721	86.56321995464853	64	127
86.760589569161	86.80702947845805	68	127
86.95795918367347	86.98117913832199	69	127
87.08566893424036	87.12049886621315	64	127
87.28301587301587	87.34108843537415	64	127
87.53843537414966	87.58489795918368	69	127
87.7358276643991	87.78226757369615	71	127
87.80548752834467	87.86353741496599	64	127
88.00285714285714	88.06090702947846	64	127
88.32793650793651	88.39759637188209	71	127
88.5485260770975	88.59496598639456	72	127
88.73428571428572	88.78072562358277	69	127
88.88521541950114	88.93165532879819	69	127
89.09419501133787	89.17544217687075	72	127
89.36122448979592	89.40766439909297	72	127
89.55857142857143	89.6166439909297	69	127
89.79077097505669	89.83723356009071	69	127
89.97655328798186	90.03460317460318	72	127
90.1855328798186	90.76603174603174	74	127
90.87052154195011	91.11433106575964	55	127
90.87052154195011	91.11433106575964	62	127
91.1259410430839	91.67160997732427	71	127
91.1259410430839	91.67160997732427	79	127
91.79931972789116	92.05473922902495	67	127
91.79931972789116	92.05473922902495	60	127
91.79931972789116	92.05473922902495	72	127
92.0663492063492	94.37673469387755	76	127
97.01219954648526	97.07024943310658	69	127
97.24439909297053	97.29083900226757	68	127
97.39532879818594	97.45337868480726	64	127
97.6275283446712	97.68557823129251	64	127
97.82489795918367	97.88294784580499	68	127
98.02226757369614	98.06870748299319	69	127
98.21963718820862	98.27768707482993	64	127
98.39378684807257	98.45183673469388	64	127
98.59115646258503	98.64920634920635	69	127
98.81174603174603	98.85818594104309	69	127
99.00911564625851	99.05555555555556	64	127
99.24131519274377	99.27614512471655	64	127
99.43868480725624	99.48512471655329	69	127
99.65927437641723	99.84503401360544	71	127
100.57646258503401	100.86671201814059	71	127
100.57646258503401	100.86671201814059	62	127
100.57646258503401	100.86671201814059	55	127
101.56331065759638	102.16702947845805	55	127
101.56331065759638	102.16702947845805	72	127
101.56331065759638	102.16702947845805	64	127
106.97356009070295	107.37990929705215	76	127
107.37990929705215	107.9952380952381	77	127
107.9952380952381	108.20421768707483	76	127
108.20421768707483	108.7498866213152	77	127
108.7498866213152	108.97047619047619	77	127
108.97047619047619	109.71351473922903	78	127
109.71351473922903	110.44494331065759	79	127
110.49138321995464	111.18798185941043	80	127
111.24603174603175	111.46662131519274	81	127
111.46662131519274	111.48984126984126	76	127
111.61755102040816	111.67560090702948	72	127
111.81492063492064	111.87297052154194	74	127
112.00068027210884	112.20965986394557	76	127
112.20965986394557	112.2328798185941	72	127
112.39541950113379	112.4534693877551	69	127
112.59278911564626	112.6392290249433	69	127
112.77854875283447	112.96430839002268	74	127
112.96430839002268	113.02235827664398	71	127
113.18489795918367	113.23133786848072	68	127
113.32421768707484	113.37065759637188	68	127
113.50997732426303	113.6144671201814	57	127
113.6144671201814	113.68412698412699	69	127
113.68412698412699	113.78861678004534	68	127
113.78861678004534	113.85827664399093	69	127
113.85827664399093	113.95115646258503	57	127
113.9627664399093	114.06725623582767	69	127
114.06725623582767	114.1833560090703	59	127
114.1833560090703	114.2762358276644	69	127
114.2762358276644	114.35750566893424	60	127
114.3691156462585	114.4619954648526	69	127
114.4619954648526	114.54326530612245	62	127
114.54326530612245	114.63614512471655	69	127
114.63614512471655	114.74063492063492	60	127
114.75224489795919	114.84512471655329	69	127
114.84512471655329	114.97283446712018	59	127
114.97283446712018	115.06571428571428	69	127
115.06571428571428	115.20503401360544	57	127
116.51696145124717	116.62145124716554	64	127
116.62145124716554	116.71433106575964	76	127
116.71433106575964	116.77238095238096	75	127
116.78399092970521	116.818820861678	76	127
116.818820861678	116.88848072562358	64	127
116.88848072562358	116.9813605442177	76	127
116.9813605442177	117.07424036281179	66	127
117.07424036281179	117.16712018140589	76	127
117.16712018140589	117.26	68	127
117.26	117.34126984126983	76	127
117.34126984126983	117.43414965986395	69	127
117.43414965986395	117.52702947845805	76	127
117.53863945578232	117.64312925170069	71	127
117.64312925170069	117.7940589569161	76	127
117.7940589569161	117.89854875283447	68	127
117.89854875283447	118.00303854875284	76	127
118.00303854875284	118.15396825396826	64	127
118.18879818594104	118.5487074829932	64	127
118.60675736961451	118.93183673469387	64	127
118.96666666666667	119.32657596371882	64	127
119.38462585034014	119.54716553287982	64	127
119.58199546485261	119.66326530612245	60	127
119.66326530612245	119.76775510204082	57	127
119.77936507936508	119.88385487528345	60	127
119.88385487528345	119.98834467120182	57	127
119.98834467120182	120.08122448979591	60	127
120.08122448979591	120.17410430839003	57	127
120.18571428571428	120.2785941043084	60	127
120.2785941043084	120.38308390022675	57	127
120.38308390022675	120.47596371882086	60	127
120.47596371882086	120.58045351473923	57	127
120.58045351473923	120.66172335600908	60	127
120.67333333333333	120.75460317460318	57	127
120.75460317460318	120.84748299319727	60	127
120.84748299319727	120.92875283446712	57	127
120.92875283446712	121.01002267573696	60	127
121.02163265306122	121.12612244897959	57	127
121.12612244897959	121.20739229024943	69	127
121.20739229024943	121.30027210884354	81	127
121.30027210884354	121.39315192743764	80	127
121.4047619047619	121.49764172335601	81	127
121.49764172335601	121.59052154195011	69	127
121.59052154195011	121.67179138321995	81	127
121.67179138321995	121.77628117913832	71	127
121.77628117913832	121.86916099773242	81	127
121.88077097505669	121.98526077097506	72	127
121.98526077097506	122.08975056689343	81	127
122.08975056689343	122.18263038548753	71	127
122.18263038548753	122.27551020408163	81	127
122.2871201814059	122.38	72	127
122.38	122.48448979591836	81	127
122.48448979591836	122.58897959183673	69	127
122.58897959183673	122.6934693877551	81	127
122.6934693877551	122.79795918367347	64	127
122.79795918367347	122.90244897959184	56	127
122.90244897959184	122.97210884353741	59	127
122.97210884353741	123.07659863945578	56	127
123.07659863945578	123.16947845804988	59	127
123.18108843537415	123.27396825396825	56	127
123.27396825396825	123.34362811791384	59	127
123.34362811791384	123.42489795918367	56	127
123.42489795918367	123.49455782312926	59	127
123.50616780045351	123.59904761904762	56	127
123.59904761904762	123.68031746031745	59	127
123.68031746031745	123.77319727891157	56	127
123.77319727891157	123.86607709750567	59	127
123.86607709750567	123.97056689342404	56	127
123.9821768707483	124.05183673469388	59	127
124.05183673469388	124.15632653061225	56	127
124.15632653061225	124.24920634920635	64	127
124.24920634920635	124.34208616780046	76	127
124.35369614512472	124.43496598639456	75	127
124.43496598639456	124.53945578231293	76	127
124.53945578231293	124.62072562358277	64	127
124.62072562358277	124.71360544217687	76	127
124.72521541950114	124.8297052154195	65	127
124.8297052154195	124.92258503401361	77	127
124.92258503401361	125.00385487528345	64	127
125.00385487528345	125.09673469387755	76	127
125.09673469387755	125.20122448979592	62	127
125.21283446712017	125.29410430839002	74	127
125.29410430839002	125.39859410430839	60	127
125.39859410430839	125.4914739229025	72	127
125.4914739229025	125.59596371882085	59	127
125.59596371882085	125.70045351473922	71	127
125.70045351473922	125.88621315192744	57	127
126.15324263038549	126.32739229024943	72	127
126.15324263038549	126.32739229024943	76	127
126.15324263038549	126.32739229024943	69	127
126.89628117913833	127.0936507936508	72	127
126.89628117913833	127.0936507936508	69	127
126.89628117913833	127.0936507936508	77	127
127.32585034013606	127.5	77	127
127.32585034013606	127.5	67	127
127.32585034013606	127.5	74	127
127.69736961451247	127.9063492063492	77	127
127.69736961451247	127.9063492063492	67	127
127.69736961451247	127.9063492063492	86	127
128.63777777777779	128.80031746031747	71	127
128.83514739229025	129.00927437641724	72	127
129.20666666666668	129.3808163265306	64	127
129.20666666666668	129.3808163265306	76	127
129.20666666666668	129.3808163265306	79	127
130.00775510204082	130.15868480725624	79	127
130.00775510204082	130.15868480725624	81	127
130.40249433106575	130.56503401360544	77	127
130.40249433106575	130.56503401360544	81	127
130.79721088435375	130.97138321995465	63	127
130.79721088435375	130.97138321995465	71	127
130.79721088435375	130.97138321995465	81	127
131.74925170068028	131.88857142857142	75	127
131.92337868480726	132.07433106575965	76	127
132.29492063492063	132.48068027210886	88	127
132.29492063492063	132.48068027210886	76	127
133.08439909297053	133.25854875283446	88	127
133.08439909297053	133.25854875283446	76	127
133.45589569160998	133.6184580498866	76	127
133.45589569160998	133.6184580498866	88	127
133.83904761904762	134.0015873015873	88	127
133.83904761904762	134.0015873015873	76	127
134.60530612244898	134.7330158730159	79	127
134.76784580498867	134.95360544217687	79	127
134.98843537414967	135.17419501133787	78	127
135.4180045351474	136.74154195011337	87	127
136.91569160997733	136.96213151927438	87	127
136.96213151927438	137.00857142857143	88	127
137.0201814058957	137.06662131519275	87	127
137.06662131519275	137.12467120181407	88	127
137.12467120181407	137.17111111111112	87	127
137.17111111111112	137.21755102040817	88	127
137.21755102040817	137.26399092970522	85	127
137.27560090702949	137.32204081632653	87	127
137.32204081632653	137.48458049886622	88	127
137.67034013605442	137.72839002267574	88	127
137.72839002267574	137.76321995464852	89	127
137.76321995464852	137.80965986394557	88	127
137.80965986394557	137.84448979591838	89	127
137.85607709750568	137.9025396825397	88	127
137.9025396825397	137.960589569161	89	127
137.960589569161	138.0070068027211	87	127
138.0070068027211	138.06507936507936	88	127
138.06507936507936	138.22761904761904	87	127
138.44820861678005	139.7833560090703	75	127
139.98072562358277	140.01555555555555	75	127
140.01555555555555	140.0619954648526	76	127
140.0619954648526	140.10843537414965	75	127
140.10843537414965	140.16648526077097	76	127
140.16648526077097	140.21292517006802	75	127
140.2245351473923	140.25934240362812	76	127
140.25934240362812	140.29419501133788	73	127
140.29419501133788	140.34063492063493	75	127
140.3522448979592	140.5380045351474	76	127
140.7237641723356	140.7701814058957	76	127
140.7701814058957	140.79342403628118	77	127
140.80503401360545	140.83986394557823	76	127
140.83986394557823	140.88630385487528	77	127
140.88630385487528	140.90952380952382	76	127
140.90952380952382	140.96757369614514	77	127
140.96757369614514	141.02560090702949	75	127
141.02560090702949	141.07204081632653	76	127
141.07204081632653	141.15333333333334	75	127
141.1649433106576	141.24621315192744	66	127
141.24621315192744	141.3507029478458	64	127
141.3507029478458	141.45519274376417	63	127
141.45519274376417	141.54807256235827	76	127
141.54807256235827	141.6641723356009	67	127
141.6641723356009	141.757052154195	66	127
141.757052154195	141.86154195011338	64	127
141.86154195011338	141.95442176870748	75	127
141.95442176870748	142.02408163265306	66	127
142.03569160997733	142.1401814058957	64	127
142.1401814058957	142.18662131519275	63	127
142.18662131519275	142.27950113378685	76	127
142.27950113378685	142.38399092970522	67	127
142.3956009070295	142.46526077097505	66	127
142.46526077097505	142.56975056689342	64	127
142.56975056689342	142.6742403628118	75	127
142.6742403628118	142.7671201814059	66	127
142.7671201814059	142.84839002267574	64	127
142.86	142.94126984126984	63	127
142.94126984126984	143.0457596371882	76	127
143.0457596371882	143.12702947845804	67	127
143.12702947845804	143.2315192743764	66	127
143.24312925170068	143.34761904761905	64	127
143.34761904761905	143.45210884353742	75	127
143.45210884353742	143.54498866213152	66	127
143.54498866213152	143.62625850340137	64	127
143.63786848072561	143.74235827664398	63	127
143.74235827664398	143.84684807256235	76	127
143.84684807256235	143.95133786848072	67	127
143.95133786848072	143.99777777777777	66	127
143.99777777777777	144.07904761904763	64	127
144.09063492063493	144.1951247165533	75	127
144.1951247165533	144.28802721088437	66	127
144.28802721088437	144.39251700680273	64	127
144.39251700680273	144.4621768707483	63	127
144.47378684807256	144.56666666666666	71	127
144.56666666666666	144.64793650793652	66	127
144.64793650793652	144.74081632653062	64	127
144.74081632653062	144.83369614512472	63	127
144.83369614512472	144.92657596371882	71	127
144.92657596371882	145.0310657596372	66	127
145.0310657596372	145.1239455782313	64	127
145.1239455782313	145.20521541950114	63	127
145.20521541950114	145.29809523809524	71	127
145.29809523809524	145.37936507936507	66	127
145.37936507936507	145.48385487528344	64	127
145.48385487528344	145.5767120181406	63	127
145.5767120181406	145.6812244897959	71	127
145.69283446712018	145.78571428571428	66	127
145.78571428571428	145.89020408163265	64	127
145.89020408163265	145.9830612244898	63	127
145.9830612244898	146.08755102040817	71	127
146.08755102040817	146.18045351473924	66	127
146.19206349206348	146.2849433106576	64	127
146.2849433106576	146.4126530612245	63	127
146.4126530612245	146.5055328798186	71	127
146.5055328798186	146.61002267573696	66	127
146.62163265306123	146.70290249433106	64	127
146.70290249433106	146.85380952380953	63	127
146.85380952380953	146.99315192743765	71	127
146.99315192743765	147.10922902494332	66	127
147.12086167800453	147.23696145124717	64	127
147.23696145124717	147.34145124716554	63	127
147.34145124716554	148.28183673469388	71	127
148.28183673469388	149.31514739229024	69	127
149.37319727891156	150.3019954648526	68	127
150.3019954648526	151.13791383219956	69	127
151.13791383219956	151.99705215419502	68	127
151.99705215419502	152.90263038548753	66	127
152.96068027210885	153.8894784580499	68	127
153.8894784580499	154.35387755102042	71	127
154.35387755102042	154.78344671201813	69	127
154.78344671201813	155.72385487528345	68	127
155.72385487528345	156.64104308390023	66	127
156.69909297052155	157.6394784580499	68	127
157.6394784580499	157.86009070294784	71	127
157.86009070294784	158.10390022675736	69	127
158.10390022675736	158.5334693877551	68	127
158.59151927437642	159.49709750566893	66	127
159.55514739229025	160.44909297052155	66	127
160.5071655328798	161.44757369614513	66	127
161.50562358276645	162.50408163265305	66	127
162.5969387755102	162.852358276644	66	127
164.93056689342404	167.34544217687076	76	127
167.4034693877551	167.8098185941043	76	127
167.87950113378685	168.16972789115647	88	127
168.41356009070296	168.65736961451248	88	127
168.97083900226758	169.5281179138322	88	127
169.5281179138322	171.4785941043084	76	127
171.53664399092972	171.94299319727892	76	127
172.00102040816327	172.25643990929706	88	127
172.53510204081633	172.83696145124716	88	127
173.31297052154196	175.0892970521542	88	127
175.0892970521542	177.95696145124717	86	127
178.10789115646259	178.36331065759637	62	127
178.36331065759637	178.95539682539683	74	127
178.95539682539683	179.141179138322	69	127
179.17600907029478	179.36174603174604	71	127
179.77972789115645	179.88421768707482	71	127
179.88421768707482	180.00031746031746	71	127
180.00031746031746	180.1164172335601	66	127
180.1164172335601	180.2092970521542	66	127
180.2092970521542	180.3021768707483	67	127
180.3021768707483	180.40666666666667	67	127
180.41827664399094	180.5227664399093	69	127
180.5227664399093	180.62725623582767	69	127
180.62725623582767	180.72013605442177	66	127
180.72013605442177	180.81301587301587	66	127
180.82462585034014	180.9291156462585	71	127
181.31224489795918	181.5212244897959	71	127
181.5212244897959	182.14816326530612	83	127
182.14816326530612	182.32231292517008	78	127
182.35714285714286	182.55451247165533	79	127
182.96086167800453	183.0653514739229	67	127
183.0653514739229	183.16984126984127	67	127
183.16984126984127	183.2511111111111	63	127
183.2511111111111	183.33238095238096	63	127
183.33238095238096	183.4484807256236	64	127
183.4484807256236	183.5413605442177	64	127
183.5413605442177	183.6342403628118	66	127
183.6342403628118	183.73873015873016	66	127
183.73873015873016	183.84321995464853	63	127
183.8548299319728	183.95931972789117	63	127
183.95931972789117	184.1334693877551	67	127
184.55142857142857	184.64430839002267	79	127
184.64430839002267	184.74879818594104	79	127
184.7604081632653	184.86489795918368	75	127
184.86489795918368	184.9461678004535	75	127
184.9461678004535	185.02743764172337	76	127
185.02743764172337	185.0854648526077	76	127
185.09709750566893	185.18995464852608	78	127
185.18995464852608	185.29444444444445	78	127
185.29444444444445	185.39895691609976	75	127
185.39895691609976	185.50344671201813	75	127
185.5150566893424	185.6079365079365	79	127
185.6079365079365	185.71242630385487	79	127
185.71242630385487	185.80528344671202	81	127
185.80528344671202	185.90979591836734	81	127
185.90979591836734	185.9910657596372	83	127
186.00267573696146	186.10714285714286	83	127
186.10714285714286	186.21163265306123	79	127
186.21163265306123	186.3161224489796	79	127
186.3161224489796	186.40902494331067	75	127
186.4206349206349	186.50190476190477	75	127
186.50190476190477	186.60639455782314	76	127
186.60639455782314	186.68766439909297	76	127
186.68766439909297	186.79215419501134	78	127
186.79215419501134	186.8966439909297	78	127
186.8966439909297	186.9778911564626	75	127
186.9778911564626	187.08238095238096	75	127
187.08238095238096	187.25655328798186	79	127
187.4655328798186	188.0924716553288	88	127
188.30145124716555	188.90517006802722	88	127
189.13736961451247	189.70625850340136	88	127
189.7410657596372	189.79913832199546	84	127
189.93845804988663	189.98489795918368	83	127
190.1474149659864	190.20548752834466	81	127
190.35641723356008	190.47251700680272	79	127
190.47251700680272	190.5770068027211	79	127
190.5770068027211	190.68149659863946	81	127
190.68149659863946	190.77437641723355	81	127
190.77437641723355	190.87886621315192	83	127
190.8904761904762	190.99496598639456	83	127
190.99496598639456	191.09945578231293	79	127
191.09945578231293	191.2039455782313	79	127
191.2039455782313	191.2968253968254	81	127
191.30843537414967	191.3897052154195	81	127
191.3897052154195	191.4825850340136	83	127
191.4825850340136	191.58707482993196	83	127
191.58707482993196	191.67995464852606	84	127
191.67995464852606	191.7728344671202	84	127
191.78444444444443	191.8889342403628	81	127
191.8889342403628	191.99342403628117	81	127
191.99342403628117	192.09791383219954	83	127
192.09791383219954	192.2024036281179	83	127
192.21401360544218	192.31850340136054	84	127
192.31850340136054	192.39977324263037	84	127
192.39977324263037	192.50426303854874	86	127
192.50426303854874	192.59714285714287	86	127
192.6087528344671	192.71324263038548	88	127
192.71324263038548	192.80612244897958	88	127
192.80612244897958	192.91061224489795	89	127
192.91061224489795	193.00349206349208	89	127
193.00349206349208	193.10798185941044	86	127
193.11959183673468	193.21247165532878	86	127
193.21247165532878	193.3053514739229	83	127
193.3053514739229	193.40984126984128	83	127
193.40984126984128	193.51433106575965	86	127
193.5259410430839	193.60721088435375	86	127
193.60721088435375	193.71170068027212	89	127
193.71170068027212	193.81619047619049	89	127
193.81619047619049	193.92068027210885	86	127
193.92068027210885	194.02517006802722	86	127
194.02517006802722	194.1296598639456	83	127
194.1296598639456	194.23414965986396	83	127
194.23414965986396	194.32702947845806	86	127
194.32702947845806	194.44312925170067	86	127
194.45473922902494	194.5592290249433	89	127
194.5592290249433	194.66371882086167	89	127
194.66371882086167	194.76820861678004	86	127
194.76820861678004	194.8726984126984	86	127
194.88430839002268	194.98879818594105	84	127
194.98879818594105	195.07006802721088	84	127
195.07006802721088	195.16294784580498	83	127
195.16294784580498	195.26743764172335	83	127
196.49809523809523	196.59097505668933	88	127
196.59097505668933	196.6954648526077	88	127
196.70707482993197	196.81156462585034	88	127
196.81156462585034	196.9160544217687	88	127
196.9160544217687	197.02054421768707	93	127
197.02054421768707	197.12503401360544	93	127
197.1366439909297	197.2295238095238	93	127
197.2295238095238	197.33401360544218	93	127
197.33401360544218	197.43850340136055	91	127
197.43850340136055	197.54299319727892	91	127
197.54299319727892	197.65909297052156	90	127
197.65909297052156	197.7635827664399	90	127
197.7635827664399	197.86807256235826	93	127
197.86807256235826	197.97256235827663	93	127
197.97256235827663	198.077052154195	90	127
198.08866213151927	198.16993197278913	90	127
198.16993197278913	198.26281179138323	88	127
198.26281179138323	198.35569160997733	88	127
198.35569160997733	198.4601814058957	87	127
198.47179138321997	198.57628117913833	87	127
198.57628117913833	198.6807709750567	88	127
198.6807709750567	198.78526077097504	88	127
198.78526077097504	198.90136054421768	84	127
198.90136054421768	198.99424036281178	84	127
199.00585034013605	199.11034013605442	83	127
199.11034013605442	199.2148299319728	83	127
199.2148299319728	199.31931972789116	82	127
199.31931972789116	199.42380952380952	82	127
199.4354195011338	199.57473922902494	83	127
199.57473922902494	199.69083900226758	83	127
199.69083900226758	199.79532879818595	82	127
199.79532879818595	199.89981859410432	82	127
199.89981859410432	200.0275283446712	83	127
200.0275283446712	200.13201814058957	83	127
200.13201814058957	200.2481179138322	83	127
200.2481179138322	200.37582766439908	83	127
200.37582766439908	200.60802721088436	76	127
210.4300680272109	210.5461678004535	75	127
210.5461678004535	211.31242630385486	76	127
211.34725623582767	211.4285260770975	75	127
211.4285260770975	212.1251247165533	76	127
212.15995464852608	212.26444444444445	75	127
212.26444444444445	212.9378231292517	76	127
212.9726530612245	213.07714285714286	78	127
213.07714285714286	213.23968253968255	79	127
213.3790022675737	213.4718820861678	82	127
213.4718820861678	213.63442176870748	83	127
213.73891156462585	213.84340136054422	87	127
213.84340136054422	214.64448979591836	88	127
214.6909297052154	214.9231292517007	86	127
214.9231292517007	214.981179138322	85	127
215.12049886621315	215.17854875283447	83	127
215.3294784580499	215.37591836734694	85	127
215.50362811791382	215.86353741496598	86	127
215.90997732426302	216.26988662131518	81	127
216.31632653061226	216.50208616780046	83	127
216.53691609977324	216.59496598639456	84	127
216.59496598639456	216.66462585034014	83	127
216.66462585034014	216.7342857142857	84	127
216.7342857142857	216.8039455782313	83	127
216.8039455782313	216.88521541950112	84	127
216.88521541950112	216.9548752834467	83	127
216.96648526077098	217.07097505668935	81	127
217.07097505668935	217.17546485260772	83	127
217.17546485260772	217.90689342403627	84	127
217.9649433106576	218.17392290249433	83	127
218.17392290249433	218.23197278911564	81	127
218.4061224489796	218.45256235827665	80	127
218.61510204081634	218.67315192743763	81	127
218.83569160997732	219.19560090702947	83	127
219.2536507936508	219.5903401360544	76	127
219.6367800453515	220.00829931972788	78	127
220.05473922902493	220.43786848072563	71	127
220.4726984126984	221.47115646258504	83	127
221.47115646258504	221.5175963718821	81	127
221.65691609977324	221.71496598639456	79	127
221.8542857142857	221.91233560090703	81	127
222.05165532879818	222.4231746031746	83	127
222.48122448979592	222.84113378684808	76	127
222.88757369614513	223.24748299319728	78	127
223.29392290249433	223.68866213151927	71	127
223.74671201814058	223.85120181405895	83	127
223.85120181405895	223.94408163265305	88	127
223.94408163265305	224.04857142857142	88	127
224.04857142857142	224.14145124716552	88	127
224.1530612244898	224.25755102040816	88	127
224.25755102040816	224.36204081632653	88	127
224.36204081632653	224.47814058956916	88	127
224.47814058956916	224.58263038548753	88	127
224.58263038548753	224.6871201814059	88	127
224.69873015873017	224.80321995464854	88	127
224.80321995464854	224.90770975056688	88	127
224.90770975056688	225.01219954648525	88	127
225.01219954648525	225.11668934240362	88	127
225.1282993197279	225.221179138322	88	127
225.221179138322	225.32566893424035	88	127
225.32566893424035	225.3721088435374	88	127
225.3721088435374	225.47659863945577	88	127
225.47659863945577	225.58108843537414	88	127
225.58108843537414	225.6855782312925	91	127
225.6855782312925	225.79006802721088	91	127
225.79006802721088	225.89455782312925	88	127
225.89455782312925	225.99904761904762	88	127
226.01065759637189	226.11514739229025	91	127
226.11514739229025	226.21963718820862	91	127
226.21963718820862	226.324126984127	87	127
226.324126984127	226.40539682539682	87	127
226.4170068027211	226.48666666666668	90	127
226.48666666666668	226.57954648526078	90	127
226.57954648526078	226.67242630385488	87	127
226.67242630385488	226.77691609977325	87	127
226.77691609977325	226.8814058956916	87	127
226.89301587301588	227.0091156462585	87	127
227.0091156462585	227.18326530612245	88	127
227.83342403628117	227.9843537414966	76	127
227.83342403628117	227.9843537414966	64	127
227.83342403628117	227.9843537414966	71	127
228.66934240362812	228.797052154195	69	127
228.797052154195	228.90154195011337	81	127
228.90154195011337	229.00603174603174	80	127
229.00603174603174	229.1105215419501	81	127
229.1105215419501	229.22662131519274	78	127
229.22662131519274	229.28467120181406	81	127
229.28467120181406	229.3659410430839	76	127
229.3659410430839	229.47043083900226	81	127
229.47043083900226	229.57492063492063	75	127
229.5865306122449	229.679410430839	81	127
229.679410430839	229.78390022675737	72	127
229.78390022675737	229.88839002267574	75	127
229.88839002267574	229.95804988662132	71	127
229.95804988662132	230.01609977324264	75	127
230.01609977324264	230.12058956916098	69	127
230.12058956916098	230.22507936507935	75	127
230.22507936507935	230.3992290249433	67	127
231.01455782312925	231.16548752834467	64	127
231.01455782312925	231.16548752834467	71	127
231.01455782312925	231.16548752834467	76	127
231.86208616780044	231.98979591836735	69	127
231.98979591836735	232.09428571428572	81	127
232.09428571428572	232.1987755102041	80	127
232.21038548752836	232.31487528344672	81	127
232.31487528344672	232.38453514739228	78	127
232.38453514739228	232.4425850340136	76	127
232.4425850340136	232.55868480725624	81	127
232.55868480725624	232.63995464852607	75	127
232.63995464852607	232.74444444444444	81	127
232.74444444444444	232.8489342403628	72	127
232.8489342403628	232.95342403628118	75	127
232.96503401360545	233.06952380952382	71	127
233.06952380952382	233.12757369614513	75	127
233.12757369614513	233.2320634920635	69	127
233.2320634920635	233.3249433106576	75	127
233.33655328798187	233.44104308390024	67	127
233.44104308390024	233.54553287981858	76	127
233.54553287981858	233.6384126984127	64	127
233.6384126984127	233.7312925170068	66	127
233.7312925170068	233.83578231292518	69	127
233.84739229024945	233.8938321995465	67	127
233.8938321995465	233.99832199546486	66	127
233.99832199546486	234.10281179138323	64	127
234.10281179138323	234.2073015873016	63	127
234.21891156462584	234.27696145124716	66	127
234.27696145124716	234.36984126984126	59	127
234.36984126984126	234.4627210884354	63	127
234.4627210884354	234.56721088435373	66	127
234.56721088435373	234.6717006802721	71	127
234.6717006802721	234.76458049886622	69	127
234.76458049886622	234.8690702947846	66	127
234.8690702947846	234.97356009070296	67	127
234.97356009070296	235.06643990929706	76	127
235.07804988662133	235.18253968253967	64	127
235.18253968253967	235.2754195011338	66	127
235.2754195011338	235.37990929705217	69	127
235.37990929705217	235.48439909297053	67	127
235.49600907029478	235.60049886621314	66	127
235.60049886621314	235.7049886621315	64	127
235.7049886621315	235.80947845804988	63	127
235.80947845804988	235.89074829931974	66	127
235.89074829931974	235.9604081632653	59	127
235.9604081632653	236.0532879818594	63	127
236.0532879818594	236.15777777777777	66	127
236.15777777777777	236.2506575963719	71	127
236.2506575963719	236.35514739229026	69	127
236.3667573696145	236.47124716553287	66	127
236.47124716553287	236.57573696145124	67	127
236.57573696145124	236.69183673469388	76	127
236.69183673469388	236.79632653061225	64	127
236.80793650793652	236.9124263038549	67	127
236.9124263038549	237.01691609977325	59	127
237.01691609977325	237.10979591836735	67	127
237.10979591836735	237.20267573696145	76	127
237.20267573696145	237.30716553287982	67	127
237.3187755102041	237.4348752834467	59	127
237.4348752834467	237.55097505668934	66	127
237.55097505668934	237.6554648526077	75	127
237.6554648526077	237.77156462585035	66	127
237.78317460317461	237.88766439909298	59	127
237.88766439909298	238.0037641723356	66	127
238.0037641723356	238.10825396825396	75	127
238.10825396825396	238.23596371882087	66	127
238.23596371882087	238.49138321995466	59	127
238.23596371882087	238.49138321995466	64	127
238.49138321995466	241.23133786848072	74	127
241.35904761904763	244.93492063492064	72	127
252.43496598639456	252.5510657596372	78	127
252.5510657596372	253.25927437641724	79	127
253.29410430839002	253.41020408163266	78	127
253.41020408163266	254.13002267573697	79	127
254.16485260770975	254.28095238095239	78	127
254.28095238095239	255.0007709750567	79	127
255.03560090702948	255.14009070294784	81	127
255.14009070294784	255.44195011337868	82	127
255.47678004535146	255.5928798185941	85	127
255.5928798185941	255.87151927437642	86	127
255.9063492063492	256.02244897959184	90	127
256.02244897959184	257.06734693877553	91	127
257.06734693877553	257.28793650793654	90	127
257.28793650793654	257.4968934240363	88	127
257.4968934240363	257.6710657596372	90	127
257.705873015873	258.10063492063495	91	127
258.10063492063495	258.4489342403628	86	127
258.5185714285714	258.72755102040816	87	127
258.72755102040816	258.9365306122449	86	127
258.9365306122449	259.13390022675736	84	127
259.13390022675736	259.31968253968256	86	127
259.4009523809524	259.54024943310657	87	127
259.54024943310657	259.64473922902494	70	127
259.64473922902494	259.7492290249433	79	127
259.7492290249433	259.8537188208617	70	127
259.8537188208617	259.96984126984125	79	127
259.9814512471655	260.0743310657596	70	127
260.0743310657596	260.178820861678	79	127
260.178820861678	260.29492063492063	70	127
260.29492063492063	260.399410430839	63	127
260.41102040816327	260.50390022675737	70	127
260.50390022675737	260.60839002267574	79	127
260.60839002267574	260.68965986394556	70	127
260.68965986394556	260.8057596371882	79	127
260.8057596371882	260.91024943310657	70	127
260.91024943310657	261.01473922902494	79	127
261.01473922902494	261.1192290249433	70	127
261.1192290249433	261.2237188208617	63	127
261.2237188208617	261.32820861678005	70	127
261.3398185941043	261.4443083900227	79	127
261.4443083900227	261.54879818594105	70	127
261.54879818594105	261.6532879818594	63	127
261.6532879818594	261.7577777777778	70	127
261.76938775510206	261.86226757369616	79	127
261.86226757369616	261.9667573696145	70	127
261.9667573696145	262.04802721088436	63	127
262.04802721088436	262.1292970521542	70	127
262.1292970521542	262.23378684807255	79	127
262.2453968253968	262.3382766439909	70	127
262.3382766439909	262.431156462585	63	127
262.431156462585	262.5356462585034	70	127
262.5356462585034	262.64013605442176	79	127
262.65174603174603	262.7562358276644	70	127
262.7562358276644	262.86072562358277	63	127
262.86072562358277	262.9768253968254	70	127
262.9768253968254	263.0697052154195	79	127
263.0697052154195	263.18580498866214	70	127
263.18580498866214	263.27868480725624	79	127
263.27868480725624	263.37156462585034	70	127
263.37156462585034	263.4760544217687	79	127
263.4760544217687	263.5805442176871	70	127
263.59215419501135	263.6966439909297	64	127
263.6966439909297	263.8011337868481	69	127
263.8011337868481	263.9172335600907	79	127
263.9172335600907	264.04492063492063	69	127
264.05655328798184	264.1610430839002	79	127
264.1610430839002	264.2655328798186	69	127
264.2655328798186	264.3584126984127	79	127
264.3584126984127	264.45126984126983	69	127
264.45126984126983	264.5557596371882	62	127
264.5557596371882	264.66024943310657	69	127
264.66024943310657	264.71832199546486	79	127
264.71832199546486	264.82281179138323	69	127
264.82281179138323	264.9273015873016	62	127
264.93891156462587	265.04340136054424	69	127
265.04340136054424	265.1478911564626	77	127
265.1478911564626	265.252380952381	69	127
265.252380952381	265.3684580498866	55	127
265.3917006802721	265.49619047619046	67	127
265.49619047619046	265.60068027210883	77	127
265.60068027210883	265.7051700680272	67	127
265.7051700680272	265.82126984126984	55	127
265.82126984126984	265.9257596371882	67	127
265.9373696145125	266.04185941043085	77	127
266.04185941043085	266.13473922902494	67	127
266.13473922902494	266.2392290249433	60	127
266.2392290249433	266.3437188208617	67	127
266.35532879818595	266.44820861678005	77	127
266.44820861678005	266.54108843537415	67	127
266.54108843537415	266.63396825396825	60	127
266.63396825396825	266.72684807256235	67	127
266.72684807256235	266.842947845805	75	127
266.842947845805	266.94743764172335	67	127
266.94743764172335	267.0170975056689	60	127
267.0170975056689	267.13319727891155	65	127
267.13319727891155	267.2376870748299	75	127
267.2492970521542	267.35378684807256	65	127
267.35378684807256	267.4582766439909	75	127
267.4582766439909	267.5627664399093	65	127
267.5627664399093	267.66725623582767	75	127
267.67886621315193	267.7833560090703	65	127
267.7833560090703	267.86462585034013	58	127
267.86462585034013	267.9691156462585	65	127
267.9691156462585	268.07360544217687	75	127
268.07360544217687	268.17809523809524	65	127
268.1897052154195	268.2941950113379	58	127
268.2941950113379	268.3754648526077	65	127
268.3754648526077	268.49156462585034	73	127
268.49156462585034	268.5960544217687	65	127
268.607664399093	268.7005442176871	58	127
268.7005442176871	268.7934240362812	63	127
268.7934240362812	268.89791383219955	73	127
268.89791383219955	269.0024036281179	63	127
269.0140136054422	269.11850340136056	58	127
269.11850340136056	269.2229931972789	63	127
269.2229931972789	269.3274829931973	73	127
269.3274829931973	269.44358276643993	63	127
269.44358276643993	269.5712925170068	56	127
269.58290249433105	269.67578231292515	63	127
269.67578231292515	269.7802721088435	73	127
269.7802721088435	269.8731292517007	63	127
269.8731292517007	269.9660317460318	56	127
269.97761904761904	270.08213151927436	63	127
270.08213151927436	270.1866213151927	72	127
270.1866213151927	270.2911111111111	63	127
270.2911111111111	270.39560090702946	56	127
270.39560090702946	270.50009070294783	68	127
270.50009070294783	270.6045804988662	72	127
270.6045804988662	270.70907029478457	68	127
270.70907029478457	270.80195011337867	72	127
270.80195011337867	270.90643990929703	68	127
270.90643990929703	271.0109297052154	72	127
271.0109297052154	271.1154195011338	68	127
271.1154195011338	271.21990929705214	61	127
271.21990929705214	271.301156462585	68	127
271.31278911564624	271.4056462585034	70	127
271.4056462585034	271.51013605442176	68	127
271.51013605442176	271.61462585034013	60	127
271.61462585034013	271.70750566893423	67	127
271.70750566893423	271.80040816326533	70	127
271.8119954648526	271.9281179138322	67	127
271.9281179138322	272.03260770975055	60	127
272.03260770975055	272.1254648526077	67	127
272.1254648526077	272.229977324263	68	127
272.2415873015873	272.34607709750566	65	127
272.34607709750566	272.43895691609976	68	127
272.43895691609976	272.5318140589569	65	127
272.5318140589569	272.6363038548753	61	127
272.6479365079365	272.75242630385486	56	127
272.75242630385486	272.9381632653061	55	127
273.06589569160997	273.1819954648526	59	127
273.1819954648526	273.8437641723356	60	127
273.8785941043084	273.9714739229025	71	127
273.9714739229025	274.64485260770977	72	127
274.6796598639456	274.78414965986394	83	127
274.78414965986394	274.93510204081633	84	127
276.28185941043085	276.3631292517007	64	127
276.3631292517007	277.0248752834467	65	127
277.0713378684807	277.1409977324263	76	127
277.1409977324263	277.8143764172336	77	127
277.8491836734694	277.96530612244896	88	127
277.96530612244896	278.1278458049887	89	127
279.28884353741495	279.3933333333333	57	127
279.3933333333333	279.4978231292517	60	127
279.4978231292517	279.60231292517005	58	127
279.60231292517005	279.7068027210884	61	127
279.7068027210884	279.7880498866213	60	127
279.7880498866213	279.8925396825397	63	127
279.8925396825397	279.99702947845805	61	127
279.99702947845805	280.08990929705215	65	127
280.08990929705215	280.18281179138324	57	127
280.18281179138324	280.2873015873016	60	127
280.2873015873016	280.39179138322	58	127
280.39179138322	280.5078684807256	61	127
280.5078684807256	280.6007482993197	60	127
280.6007482993197	280.7052380952381	63	127
280.7052380952381	280.82136054421767	61	127
280.82136054421767	280.92585034013604	65	127
280.92585034013604	281.0419501133787	57	127
281.0419501133787	281.14643990929704	60	127
281.14643990929704	281.23931972789114	58	127
281.23931972789114	281.32056689342403	61	127
281.32056689342403	281.4250566893424	60	127
281.4250566893424	281.5179591836735	63	127
281.5179591836735	281.62242630385487	61	127
281.62242630385487	281.72691609977323	65	127
281.72691609977323	281.8314058956916	62	127
281.8314058956916	281.9243083900227	65	127
281.9243083900227	282.0171882086168	63	127
282.0171882086168	282.12167800453517	67	127
282.12167800453517	282.202947845805	65	127
282.202947845805	282.30743764172337	68	127
282.31904761904764	282.423537414966	67	127
282.423537414966	282.5280272108844	70	127
282.63251700680274	282.7485941043084	62	127
282.7485941043084	283.41038548752834	63	127
283.44521541950115	283.5497052154195	74	127
283.5497052154195	284.2927437641723	75	127
284.31596371882085	284.4204535147392	86	127
284.4204535147392	284.6062131519274	87	127
285.9413605442177	286.0342403628118	55	127
286.0342403628118	286.1967800453515	56	127
286.70761904761906	286.80049886621316	76	127
286.80049886621316	286.9630385487528	77	127
287.5087074829932	287.62480725623584	81	127
287.62480725623584	287.79895691609977	82	127
288.3214058956916	288.4142857142857	76	127
288.4142857142857	288.58843537414964	88	127
288.7974149659864	288.9947619047619	89	127
289.0180045351474	289.12249433106575	85	127
289.12249433106575	289.2269841269841	82	127
289.2269841269841	289.3314739229025	84	127
289.3314739229025	289.4475736961451	80	127
289.4475736961451	289.5520634920635	82	127
289.5520634920635	289.65655328798186	79	127
289.65655328798186	289.74943310657596	80	127
289.74943310657596	289.8655328798186	77	127
289.8655328798186	289.97002267573697	78	127
289.97002267573697	290.07451247165534	75	127
290.07451247165534	290.16739229024944	77	127
290.16739229024944	290.2718820861678	73	127
290.2718820861678	290.38798185941044	75	127
290.38798185941044	290.4692517006803	72	127
290.4692517006803	290.57374149659864	73	127
290.57374149659864	290.678231292517	70	127
290.678231292517	290.7478911564626	84	127
290.7478911564626	290.84077097505667	80	127
290.84077097505667	290.94526077097504	82	127
290.94526077097504	291.0497505668934	79	127
291.0497505668934	291.16585034013605	80	127
291.16585034013605	291.2703401360544	77	127
291.2703401360544	291.38643990929705	79	127
291.38643990929705	291.4909297052154	75	127
291.4909297052154	291.5954195011338	77	127
291.5954195011338	291.7115192743764	73	127
291.7115192743764	291.781179138322	75	127
291.781179138322	291.8740589569161	72	127
291.8740589569161	291.9669387755102	73	127
291.9669387755102	292.0830385487528	70	127
292.0946485260771	292.19913832199546	72	127
292.19913832199546	292.30362811791383	68	127
293.19759637188207	293.2556462585034	84	127
293.2556462585034	294.09156462585037	85	127
294.09156462585037	294.27732426303857	82	127
294.7997732426304	294.9042630385488	83	127
294.9042630385488	295.4847619047619	84	127
295.4847619047619	295.6705215419501	80	127
296.7502494331066	296.92439909297053	65	127
296.95920634920634	297.121768707483	66	127
297.7487074829932	297.95768707482995	68	127
298.5265759637188	298.66589569161	72	127
298.66589569161	299.45537414965986	73	127
299.50181405895694	299.6178911564626	72	127
299.6178911564626	300.3841723356009	73	127
300.4190022675737	300.53510204081635	72	127
300.53510204081635	301.2897505668934	73	127
301.3245804988662	301.44068027210886	76	127
301.44068027210886	301.49873015873015	77	127
301.77736961451245	301.90507936507936	79	127
301.90507936507936	301.95151927437644	80	127
302.26498866213154	302.3926984126984	84	127
302.3926984126984	303.26344671201815	85	127
303.32149659863944	303.5536961451247	84	127
303.5536961451247	303.78589569161	82	127
303.78589569161	304.006485260771	80	127
304.006485260771	304.20385487528347	82	127
304.2386848072562	304.77274376417233	84	127
304.77274376417233	305.2371428571429	77	127
305.2371428571429	305.7247619047619	79	127
305.7247619047619	306.2007709750567	72	127
306.25882086167803	306.49102040816325	77	127
308.66208616780045	309.34707482993196	77	127
309.34707482993196	309.57927437641723	76	127
309.57927437641723	309.8114739229025	74	127
309.8114739229025	310.008843537415	76	127
310.05526077097505	310.229433106576	77	127
310.6822222222222	310.7286621315193	65	127
310.9028117913832	311.06535147392293	60	127
311.5065306122449	311.55297052154197	60	127
311.7155102040816	311.8896371882086	65	127
312.3540589569161	312.4121088435374	77	127
312.56303854875284	312.7371882086168	72	127
313.18997732426305	313.24802721088435	72	127
313.3873469387755	313.4918367346939	77	127
313.4918367346939	313.59632653061226	80	127
313.59632653061226	313.7008163265306	79	127
313.7008163265306	313.805306122449	80	127
313.81691609977327	313.92140589569163	77	127
313.92140589569163	314.02589569161	80	127
314.02589569161	314.1303854875284	75	127
314.1303854875284	314.23485260770974	80	127
314.23485260770974	314.3393424036281	74	127
314.3509750566893	314.46707482993196	77	127
314.46707482993196	314.5715646258503	75	127
314.5715646258503	314.68766439909297	77	127
314.68766439909297	314.79215419501134	74	127
314.8037641723356	314.908253968254	77	127
314.908253968254	314.9895238095238	72	127
314.9895238095238	315.10562358276644	77	127
315.10562358276644	315.19850340136054	71	127
315.2101133786848	315.3029931972789	74	127
315.3029931972789	315.395873015873	72	127
315.395873015873	315.5003628117914	74	127
315.5003628117914	315.5816326530612	71	127
315.5816326530612	315.6861224489796	74	127
315.69773242630384	315.8022222222222	68	127
315.8022222222222	315.91832199546485	71	127
315.91832199546485	316.0228117913832	67	127
316.0228117913832	316.13891156462586	71	127
316.1505215419501	316.2550113378685	65	127
316.2550113378685	316.35950113378686	71	127
316.35950113378686	316.4407709750567	63	127
316.4407709750567	316.54526077097506	72	127
316.54526077097506	316.67297052154197	62	127
316.67297052154197	316.8006575963719	74	127
316.8006575963719	316.95160997732427	75	127
317.381179138322	317.4392290249433	72	127
317.601768707483	317.7643083900227	67	127
318.18226757369615	318.24031746031744	67	127
318.3448072562358	318.5653968253968	72	127
318.971746031746	319.02979591836737	84	127
319.1691156462585	319.3432653061225	79	127
319.8424943310658	319.8889342403628	79	127
320.03986394557825	320.1443537414966	75	127
320.1443537414966	320.26045351473925	75	127
320.26045351473925	320.35333333333335	74	127
320.35333333333335	320.4578231292517	75	127
320.4578231292517	320.515873015873	72	127
320.515873015873	320.6203628117914	75	127
320.63197278911565	320.736462585034	70	127
320.736462585034	320.8409523809524	75	127
320.8409523809524	320.94544217687076	69	127
320.94544217687076	321.0499319727891	72	127
321.0615419501134	321.16603174603176	70	127
321.16603174603176	321.2821315192744	72	127
321.2821315192744	321.38662131519277	69	127
321.38662131519277	321.49111111111114	72	127
321.49111111111114	321.5956009070295	67	127
321.6071882086168	321.7117006802721	72	127
321.7117006802721	321.792970521542	66	127
321.792970521542	321.8858503401361	69	127
321.8858503401361	321.9787301587302	67	127
321.99034013605444	322.0948299319728	69	127
322.0948299319728	322.1993197278912	66	127
322.1993197278912	322.30380952380955	69	127
322.30380952380955	322.4082993197279	63	127
322.4198866213152	322.52437641723355	66	127
322.52437641723355	322.6288662131519	62	127
322.6288662131519	322.7333560090703	66	127
322.7333560090703	322.8378684807256	60	127
322.8378684807256	322.93072562358276	66	127
322.942358276644	323.04684807256234	58	127
323.04684807256234	323.1281179138322	67	127
323.1281179138322	323.2325850340136	57	127
323.2325850340136	323.3487074829932	69	127
323.36031746031745	323.5460544217687	70	127
324.0104761904762	324.045306122449	67	127
324.1846258503401	324.3587528344671	62	127
324.81156462585034	324.8580045351474	74	127
325.0089342403628	325.2063038548753	79	127
325.415283446712	326.0073922902494	91	127
326.0538321995465	326.0886621315193	88	127
326.2279818594104	326.28603174603177	89	127
326.43696145124716	326.4950113378685	91	127
326.65755102040816	326.8317006802721	93	127
327.26126984126984	327.3193197278912	74	127
327.4934693877551	327.6443990929705	69	127
328.07396825396825	328.1204081632653	81	127
328.282947845805	328.48031746031745	86	127
328.6892970521542	329.30462585034013	86	127
329.33945578231294	329.38589569160996	83	127
329.5484353741497	329.60648526077097	84	127
329.7574149659864	329.80385487528343	86	127
329.9431746031746	330.1289342403628	88	127
330.5817233560091	330.74426303854875	81	127
330.77909297052156	330.88358276643993	76	127
330.88358276643993	330.99968253968257	76	127
330.99968253968257	331.1157596371882	78	127
331.1157596371882	331.18544217687077	78	127
331.18544217687077	331.28993197278913	80	127
331.28993197278913	331.3944217687075	80	127
331.3944217687075	331.4873015873016	76	127
331.49891156462587	331.60340136054424	76	127
331.60340136054424	331.69628117913834	81	127
331.69628117913834	331.8007709750567	81	127
331.8007709750567	331.9052607709751	83	127
331.91687074829935	332.00975056689344	83	127
332.00975056689344	332.10263038548754	84	127
332.10263038548754	332.19551020408164	84	127
332.19551020408164	332.3	81	127
332.3	332.4044897959184	81	127
332.41609977324265	332.50897959183675	88	127
332.50897959183675	332.6134693877551	88	127
332.6134693877551	332.7179591836735	88	127
332.7179591836735	332.82244897959185	88	127
332.8340589569161	332.9385487528345	90	127
332.9385487528345	333.04303854875286	90	127
333.04303854875286	333.14752834467123	92	127
333.14752834467123	333.2519954648526	92	127
333.2519954648526	333.3681179138322	93	127
333.3681179138322	333.46097505668934	93	127
333.46097505668934	333.55387755102043	91	127
333.55387755102043	333.6583673469388	91	127
333.6583673469388	333.7628344671202	89	127
333.77444444444444	333.86732426303854	89	127
333.86732426303854	333.9718140589569	88	127
333.9718140589569	334.064716553288	88	127
334.064716553288	334.1692063492064	86	127
334.18079365079365	334.285283446712	86	127
334.285283446712	334.3781632653061	84	127
334.3781632653061	334.4826530612245	84	127
334.4826530612245	334.58714285714285	83	127
334.58714285714285	334.70326530612243	83	127
334.70326530612243	334.8077551020408	81	127
334.8077551020408	334.91224489795917	81	127
334.91224489795917	335.08639455782316	88	127
335.3185941043084	335.77138321995466	76	127
335.77138321995466	336.22414965986394	77	127
336.22414965986394	336.67696145124717	87	127
336.67696145124717	337.1065306122449	88	127
337.1065306122449	337.53609977324265	76	127
337.59414965986394	338.03532879818596	77	127
338.03532879818596	338.49972789115645	87	127
338.49972789115645	338.9176870748299	88	127
338.99895691609976	339.8813151927438	76	127
339.8813151927438	340.29927437641726	75	127
340.29927437641726	340.71721088435373	74	127
340.71721088435373	341.5647619047619	62	127
341.62281179138324	341.99433106575964	60	127
342.0639909297052	344.22344671201813	68	127
342.0639909297052	344.22344671201813	59	127
349.87750566893425	349.9936054421769	57	127
349.9936054421769	350.09809523809525	61	127
350.09809523809525	350.2025850340136	64	127
350.2141950113379	350.31868480725626	69	127
350.31868480725626	350.4347619047619	73	127
350.4347619047619	350.56249433106575	76	127
350.56249433106575	350.6669841269841	81	127
350.78308390022676	350.8875736961451	59	127
350.8875736961451	350.9920634920635	62	127
350.9920634920635	351.09655328798186	68	127
351.10816326530613	351.2126530612245	71	127
351.2126530612245	351.32875283446714	74	127
351.32875283446714	351.4332426303855	80	127
351.4332426303855	351.5377324263039	83	127
351.64222222222224	351.73510204081634	61	127
351.73510204081634	351.8395918367347	64	127
351.8395918367347	351.9440816326531	68	127
351.9440816326531	352.04857142857145	73	127
352.0601814058957	352.1646485260771	76	127
352.1646485260771	352.2575510204082	79	127
352.2575510204082	352.36204081632656	85	127
352.4665306122449	352.5942403628118	62	127
352.5942403628118	352.7103401360544	65	127
352.7103401360544	352.8148299319728	69	127
352.8148299319728	352.91931972789115	74	127
352.91931972789115	353.0238095238095	77	127
353.0354195011338	353.13990929705216	81	127
353.13990929705216	353.2560090702948	86	127
353.2560090702948	353.4069387755102	88	127
353.4069387755102	353.7087755102041	91	127
353.7204081632653	353.82489795918366	88	127
353.82489795918366	353.87133786848074	86	127
353.87133786848074	353.91777777777776	88	127
353.91777777777776	354.0222675736961	82	127
354.0338775510204	354.13836734693876	81	127
354.13836734693876	354.1964172335601	79	127
354.1964172335601	354.2892970521542	82	127
354.2892970521542	354.3821768707483	79	127
354.3937868480726	354.4866666666667	77	127
354.4866666666667	354.59115646258505	76	127
354.59115646258505	354.6956462585034	79	127
354.6956462585034	354.8001360544218	76	127
354.8001360544218	354.9162358276644	74	127
354.9162358276644	355.0091156462585	73	127
355.0091156462585	355.12521541950116	76	127
355.12521541950116	355.252925170068	70	127
355.252925170068	355.473514739229	69	127
355.4851247165533	355.7869841269841	67	127
355.7869841269841	356.0191836734694	85	127
356.0191836734694	356.13528344671204	79	127
356.13528344671204	356.2513832199547	77	127
356.2513832199547	356.3674603174603	76	127
356.3674603174603	356.50680272108843	79	127
356.50680272108843	356.6229024943311	76	127
356.63451247165534	356.750612244898	74	127
356.76222222222225	356.8899319727891	73	127
356.8899319727891	357.017641723356	79	127
357.0292517006803	357.1569614512472	76	127
357.16857142857145	357.3078911564626	74	127
357.3078911564626	360.93020408163267	73	127
368.0703401360544	368.29092970521543	62	127
368.29092970521543	368.33736961451245	61	127
368.5231065759637	368.55795918367346	57	127
368.74371882086166	368.801768707483	57	127
368.9526984126984	369.1732879818594	61	127
369.1732879818594	369.23133786848075	62	127
369.4054875283447	369.46353741496597	57	127
369.6144671201814	369.6725170068027	57	127
369.8350566893424	369.8698866213152	62	127
370.0672335600907	370.125306122449	62	127
370.2762358276644	370.3342857142857	57	127
370.5200453514739	370.5780725623583	57	127
370.76385487528347	370.82190476190476	62	127
371.1702040816327	371.4024036281179	64	127
372.2847619047619	372.49374149659866	64	127
372.2847619047619	372.49374149659866	55	127
373.26	373.45736961451246	57	127
373.26	373.45736961451246	65	127
380.57428571428574	380.84131519274376	74	127
380.84131519274376	381.514693877551	75	127
381.5843537414966	381.8629931972789	74	127
381.8629931972789	382.5828117913832	75	127
382.6408616780045	382.94272108843535	76	127
382.94272108843535	383.6393197278912	77	127
383.69736961451247	383.97600907029477	76	127
383.97600907029477	384.61455782312925	77	127
384.6726077097506	384.96285714285716	76	127
384.96285714285716	385.6014058956916	77	127
385.65945578231293	385.9032653061224	76	127
385.9032653061224	386.11224489795916	77	127
386.14707482993197	386.37927437641724	76	127
386.37927437641724	386.5766439909297	77	127
386.62308390022673	386.8901133786848	76	127
386.8901133786848	387.50544217687076	77	127
387.5751020408163	387.59832199546486	69	127
387.7608616780045	387.81891156462586	68	127
387.9001814058957	387.958231292517	64	127
388.09755102040816	388.14399092970524	64	127
388.3065306122449	388.3645804988662	68	127
388.55034013605444	388.5735600907029	69	127
388.70126984126983	388.7477097505669	64	127
388.91024943310657	388.9682993197279	64	127
389.1308390022676	389.1772789115646	69	127
389.32820861678005	389.3514285714286	71	127
389.4791383219955	389.5255782312925	64	127
389.6881179138322	389.7461678004535	64	127
389.9087074829932	389.9667573696145	71	127
390.10607709750565	390.1525170068027	72	127
390.2918367346939	390.3498866213152	69	127
390.48920634920637	390.54725623582766	69	127
390.7097959183673	390.7562358276644	72	127
390.90716553287984	390.95360544217687	72	127
391.0697052154195	391.1161451247166	69	127
391.26707482993197	391.32512471655326	69	127
391.49927437641725	391.55732426303854	72	127
391.71986394557825	392.4280725623583	74	127
392.4745124716553	392.68349206349205	62	127
392.4745124716553	392.68349206349205	55	127
392.68349206349205	393.4265306122449	79	127
392.68349206349205	393.4265306122449	71	127
393.4845804988662	393.69356009070293	60	127
393.4845804988662	393.69356009070293	67	127
393.7051700680272	395.9110657596372	76	127
393.7051700680272	394.7732879818594	72	127
397.98925170068026	398.70907029478457	76	127
398.7671201814059	398.9528798185941	64	127
398.7671201814059	398.9528798185941	57	127
398.9528798185941	399.81201814058954	81	127
398.9528798185941	399.81201814058954	73	127
399.8700680272109	400.0558276643991	62	127
399.8700680272109	400.0558276643991	69	127
399.8700680272109	400.0558276643991	77	127
401.57673469387754	402.3546031746032	83	127
402.4010430839002	403.14408163265307	88	127
402.4010430839002	403.14408163265307	76	127
403.20213151927436	403.38789115646256	84	127
403.6317006802721	404.3631292517007	93	127
404.421179138322	405.0365079365079	93	127
405.0365079365079	405.09455782312926	88	127
405.2570975056689	405.303537414966	84	127
405.43124716553285	405.4892970521542	84	127
405.60539682539684	405.8027664399093	88	127
405.8027664399093	405.8492063492063	86	127
406.0001360544218	406.05818594104306	83	127
406.19750566893424	406.25555555555553	83	127
406.3948752834467	406.51097505668935	81	127
406.5225850340136	406.627074829932	69	127
406.627074829932	406.7199546485261	68	127
406.7199546485261	406.82444444444445	69	127
406.82444444444445	406.8708843537415	57	127
406.8708843537415	406.9869841269841	69	127
406.9869841269841	407.0798639455782	59	127
407.0798639455782	407.1843537414966	69	127
407.1843537414966	407.26562358276647	60	127
407.26562358276647	407.38172335600905	69	127
407.3933333333333	407.4978231292517	62	127
407.4978231292517	407.5907029478458	69	127
407.5907029478458	407.6835827664399	60	127
407.6835827664399	407.76485260770977	69	127
407.77646258503404	407.86934240362814	59	127
407.86934240362814	407.95061224489797	69	127
407.95061224489797	408.1247619047619	57	127
409.5063492063492	409.5992290249433	64	127
409.5992290249433	409.6921088435374	76	127
409.6921088435374	409.73854875283445	75	127
409.73854875283445	409.7965986394558	76	127
409.7965986394558	409.8778684807256	64	127
409.8778684807256	409.95913832199545	76	127
409.95913832199545	410.0636281179138	66	127
410.0636281179138	410.1681179138322	76	127
410.1681179138322	410.28421768707483	68	127
410.28421768707483	410.3887074829932	76	127
410.3887074829932	410.49319727891157	69	127
410.49319727891157	410.59768707482993	76	127
410.59768707482993	410.7137868480726	71	127
410.7370068027211	410.8414965986395	76	127
410.8414965986395	410.91115646258504	68	127
410.91115646258504	411.00403628117914	76	127
411.00403628117914	411.2014058956916	64	127
411.2362358276644	411.59614512471654	64	127
411.6425850340136	411.9792743764172	64	127
412.01410430839	412.36240362811793	64	127
412.4204535147392	412.6062131519274	64	127
412.64104308390023	412.7455328798186	69	127
412.7455328798186	412.8384126984127	57	127
412.8384126984127	412.9312925170068	60	127
412.94290249433107	413.04739229024943	57	127
413.04739229024943	413.1518820861678	60	127
413.1518820861678	413.25637188208617	57	127
413.25637188208617	413.32603174603173	60	127
413.337641723356	413.4305215419501	57	127
413.4305215419501	413.53501133786847	60	127
413.53501133786847	413.63950113378684	57	127
413.63950113378684	413.73238095238094	60	127
413.73238095238094	413.8484807256236	57	127
413.8484807256236	413.9297505668934	60	127
413.9297505668934	414.0342403628118	57	127
414.0342403628118	414.13873015873014	60	127
414.13873015873014	414.2432199546485	57	127
414.2432199546485	414.3360997732426	69	127
414.3360997732426	414.4173696145125	81	127
414.4173696145125	414.5102494331066	80	127
414.5102494331066	414.61473922902496	81	127
414.62634920634923	414.7308390022676	69	127
414.7308390022676	414.81210884353743	81	127
414.81210884353743	414.881768707483	71	127
414.881768707483	414.9746485260771	81	127
414.9746485260771	415.0559183673469	72	127
415.0675283446712	415.17201814058956	81	127
415.17201814058956	415.2532879818594	71	127
415.2532879818594	415.3345578231293	81	127
415.3345578231293	415.43904761904764	72	127
415.45065759637185	415.5551473922902	81	127
415.5551473922902	415.6596371882086	69	127
415.6596371882086	415.76412698412696	81	127
415.76412698412696	415.86861678004533	64	127
415.8802267573696	416.0079365079365	56	127
416.0079365079365	416.1124263038549	59	127
416.1124263038549	416.1936961451247	56	127
416.1936961451247	416.27496598639453	59	127
416.27496598639453	416.3794557823129	56	127
416.3910657596372	416.49555555555554	59	127
416.49555555555554	416.57682539682537	56	127
416.57682539682537	416.65809523809526	59	127
416.65809523809526	416.7625850340136	56	127
416.7741950113379	416.87868480725626	59	127
416.87868480725626	416.9599546485261	56	127
416.9599546485261	417.0528344671202	59	127
417.0528344671202	417.15732426303856	56	127
417.15732426303856	417.25020408163266	59	127
417.25020408163266	417.35469387755103	56	127
417.35469387755103	417.4591836734694	64	127
417.4591836734694	417.5520634920635	76	127
417.5520634920635	417.6449433106576	75	127
417.65655328798186	417.76104308390023	76	127
417.76104308390023	417.8190929705215	64	127
417.8190929705215	417.9235827664399	76	127
417.9235827664399	417.98163265306124	65	127
417.9932426303855	418.0977324263039	77	127
418.0977324263039	418.20222222222225	64	127
418.20222222222225	418.3067120181406	76	127
418.3067120181406	418.411201814059	62	127
418.411201814059	418.4924716553288	74	127
418.5040816326531	418.60857142857145	60	127
418.60857142857145	418.7130612244898	72	127
418.7130612244898	418.7827210884354	59	127
418.7827210884354	418.88721088435375	71	127
418.898820861678	419.0265306122449	57	127
419.25873015873015	419.4560997732426	69	127
419.25873015873015	419.4560997732426	76	127
419.25873015873015	419.4560997732426	72	127
420.1294784580499	420.2804081632653	77	127
420.1294784580499	420.2804081632653	72	127
420.1294784580499	420.2804081632653	69	127
420.55904761904765	420.74480725623584	77	127
420.55904761904765	420.74480725623584	67	127
420.55904761904765	420.74480725623584	74	127
421.0118367346939	421.19759637188207	67	127
421.0118367346939	421.19759637188207	86	127
421.0118367346939	421.19759637188207	77	127
421.96385487528346	422.18444444444447	71	127
422.18444444444447	422.33537414965986	72	127
422.59079365079367	422.77655328798187	64	127
422.59079365079367	422.77655328798187	72	127
422.59079365079367	422.77655328798187	79	127
423.357052154195	423.53120181405893	69	127
423.357052154195	423.53120181405893	64	127
423.357052154195	423.53120181405893	79	127
423.74018140589567	423.91433106575965	62	127
423.74018140589567	423.91433106575965	69	127
423.74018140589567	423.91433106575965	77	127
424.13492063492066	424.32068027210886	71	127
424.13492063492066	424.32068027210886	81	127
424.13492063492066	424.32068027210886	63	127
424.54126984126987	424.72702947845806	79	127
424.54126984126987	424.72702947845806	64	127
424.54126984126987	424.72702947845806	71	127
424.97083900226755	425.16820861678	82	127
424.97083900226755	425.16820861678	64	127
424.97083900226755	425.16820861678	72	127
425.37718820861676	425.562947845805	72	127
425.37718820861676	425.562947845805	81	127
425.37718820861676	425.562947845805	65	127
425.79514739229023	425.9692970521542	66	127
425.79514739229023	425.9692970521542	84	127
425.79514739229023	425.9692970521542	74	127
426.2131065759637	426.3756462585034	83	127
426.2131065759637	426.3756462585034	74	127
426.2131065759637	426.3756462585034	67	127
426.5730158730159	426.6310657596372	88	127
426.5730158730159	426.6310657596372	76	127
426.7471655328798	426.8052154195011	76	127
426.7471655328798	426.8052154195011	88	127
426.9677551020408	427.01419501133785	76	127
426.9677551020408	427.01419501133785	88	127
427.153514739229	427.2115646258503	76	127
427.153514739229	427.2115646258503	88	127
427.3508843537415	427.39732426303857	76	127
427.3508843537415	427.39732426303857	88	127
427.5714739229025	427.6295238095238	76	127
427.5714739229025	427.6295238095238	88	127
427.7920634920635	427.96621315192743	88	127
427.7920634920635	427.96621315192743	76	127
427.96621315192743	428.04748299319726	86	127
428.04748299319726	428.14036281179136	84	127
428.15197278911563	428.18680272108844	83	127
428.33773242630383	428.37256235827664	81	127
428.53510204081635	428.72086167800455	80	127
428.96467120181404	430.26498866213154	92	127
430.4855782312925	430.53201814058957	92	127
430.53201814058957	430.57845804988665	93	127
430.57845804988665	430.62489795918367	92	127
430.62489795918367	430.67133786848075	93	127
430.68294784580496	430.71777777777777	92	127
430.71777777777777	430.76421768707485	93	127
430.76421768707485	430.81065759637187	90	127
430.81065759637187	430.85709750566895	92	127
430.85709750566895	431.0312471655329	93	127
431.2518367346939	431.2866666666667	93	127
431.2982766439909	431.344716553288	95	127
431.344716553288	431.40276643990927	93	127
431.40276643990927	431.4375963718821	95	127
431.4375963718821	431.4956462585034	93	127
431.4956462585034	431.54208616780045	95	127
431.5536961451247	431.6001360544218	92	127
431.6001360544218	431.6581859410431	93	127
431.6581859410431	431.832335600907	92	127
432.08775510204083	433.44612244897957	80	127
433.6551020408163	433.71315192743765	80	127
433.71315192743765	433.75959183673467	81	127
433.77120181405894	433.817641723356	80	127
433.817641723356	433.86408163265304	81	127
433.86408163265304	433.8756916099773	80	127
433.8756916099773	433.9221315192744	81	127
433.9221315192744	433.9453514739229	78	127
433.9453514739229	433.99179138321995	80	127
433.99179138321995	434.17755102040815	81	127
434.4097505668934	434.4678004535147	81	127
434.4678004535147	434.5142403628118	83	127
434.5142403628118	434.5722902494331	81	127
434.5722902494331	434.63034013605443	83	127
434.63034013605443	434.67678004535145	81	127
434.67678004535145	434.7348299319728	83	127
434.7348299319728	434.7812698412698	80	127
434.7928798185941	434.83931972789117	81	127
434.83931972789117	434.93219954648526	80	127
434.93219954648526	435.02507936507936	68	127
435.03668934240363	435.12956916099773	66	127
435.12956916099773	435.22244897959183	64	127
435.22244897959183	435.31532879818593	75	127
435.31532879818593	435.40820861678003	69	127
435.40820861678003	435.50108843537413	68	127
435.50108843537413	435.6055782312925	66	127
435.6055782312925	435.6984580498866	76	127
435.6984580498866	435.79133786848075	68	127
435.79133786848075	435.8958276643991	66	127
435.90743764172333	436.00031746031743	64	127
436.00031746031743	436.1048072562358	75	127
436.1048072562358	436.19768707482996	69	127
436.19768707482996	436.29056689342406	68	127
436.3021768707483	436.4066666666667	66	127
436.4066666666667	436.4995464852608	76	127
436.4995464852608	436.5924263038549	68	127
436.5924263038549	436.6736961451247	66	127
436.6736961451247	436.78979591836736	64	127
436.78979591836736	436.89428571428573	75	127
436.89428571428573	436.9987755102041	69	127
436.9987755102041	437.0916553287982	68	127
437.0916553287982	437.1845351473923	66	127
437.19614512471657	437.2774149659864	76	127
437.2774149659864	437.38190476190476	68	127
437.38190476190476	437.4515646258503	66	127
437.4515646258503	437.5560544217687	64	127
437.56766439909296	437.67215419501133	75	127
437.67215419501133	437.7766439909297	69	127
437.7766439909297	437.83469387755105	68	127
437.83469387755105	437.9391836734694	66	127
437.9391836734694	438.0436734693877	76	127
438.055283446712	438.15977324263037	68	127
438.15977324263037	438.24104308390025	66	127
438.24104308390025	438.3455328798186	64	127
438.3455328798186	438.4151927437642	76	127
438.42680272108845	438.51968253968255	68	127
438.51968253968255	438.6241723356009	66	127
438.6241723356009	438.717052154195	64	127
438.717052154195	438.79832199546485	76	127
438.8099319727891	438.89120181405895	68	127
438.89120181405895	438.98408163265304	66	127
438.98408163265304	439.0885714285714	64	127
439.0885714285714	439.1814512471655	76	127
439.1814512471655	439.2627210884354	68	127
439.2743310657596	439.36721088435377	66	127
439.36721088435377	439.47170068027214	64	127
439.47170068027214	439.5761904761905	76	127
439.5761904761905	439.6806802721088	68	127
439.6922902494331	439.7851700680272	66	127
439.7851700680272	439.88965986394555	64	127
439.88965986394555	439.9941496598639	76	127
439.9941496598639	440.0870294784581	68	127
440.0870294784581	440.1915192743764	66	127
440.1915192743764	440.29600907029476	64	127
440.29600907029476	440.4121088435374	76	127
440.4121088435374	440.51659863945576	68	127
440.51659863945576	440.60947845804986	66	127
440.62108843537413	440.70235827664396	64	127
440.70235827664396	440.78362811791385	76	127
440.78362811791385	440.8881179138322	68	127
440.8881179138322	440.96938775510205	66	127
440.9809977324263	441.09709750566896	64	127
441.09709750566896	442.09555555555556	76	127
442.09555555555556	443.2565532879819	74	127
443.3146031746032	444.27823129251703	73	127
444.27823129251703	445.13736961451247	74	127
445.13736961451247	445.9500680272109	73	127
445.9500680272109	446.8556462585034	71	127
446.925306122449	447.4245351473923	73	127
447.4245351473923	447.55224489795916	74	127
447.55224489795916	447.67995464852606	73	127
447.67995464852606	447.80766439909297	71	127
447.80766439909297	447.9353741496599	73	127
447.9353741496599	448.41138321995464	76	127
448.41138321995464	448.91061224489795	74	127
448.91061224489795	449.76975056689344	73	127
449.76975056689344	450.71015873015875	71	127
450.76820861678004	451.6970068027211	73	127
451.6970068027211	451.92920634920637	76	127
451.92920634920637	452.1614058956916	74	127
452.1614058956916	452.59097505668933	73	127
452.6490249433107	453.49655328798184	71	127
453.56621315192746	454.4485714285714	71	127
454.518231292517	455.38897959183674	71	127
455.4586394557823	456.43387755102043	71	127
456.4919274376417	456.6892970521542	71	127
458.8255328798186	461.1126984126984	69	127
461.1707482993197	461.669977324263	69	127
461.669977324263	461.9021768707483	81	127
462.2040362811791	462.41301587301587	81	127
462.7497052154195	463.27215419501135	81	127
463.27215419501135	465.18780045351474	69	127
465.24585034013603	465.6754195011338	69	127
465.7334693877551	466.00049886621315	81	127
466.2907482993197	466.5577777777778	81	127
467.1034467120181	469.1235827664399	81	127
469.1235827664399	471.52684807256236	79	127
471.65455782312927	472.69945578231295	67	127
472.69945578231295	473.3612244897959	79	127
473.3612244897959	473.5237641723356	74	127
473.5585941043084	473.7327437641723	76	127
474.20875283446713	474.2784126984127	64	127
474.29002267573696	474.39451247165533	64	127
474.39451247165533	474.48739229024943	59	127
474.48739229024943	474.5918820861678	59	127
474.5918820861678	474.69637188208617	60	127
474.69637188208617	474.8124716553288	60	127
474.8124716553288	474.88213151927437	62	127
474.88213151927437	474.98662131519274	62	127
474.98662131519274	475.07950113378683	59	127
475.07950113378683	475.1956009070295	59	127
475.20721088435374	475.39297052154194	64	127
475.83414965986395	476.0431292517007	64	127
476.0431292517007	476.65845804988663	76	127
476.65845804988663	476.8209977324263	71	127
476.8558276643991	477.0415873015873	72	127
477.4827664399093	477.5756462585034	60	127
477.5756462585034	477.6801360544218	60	127
477.6801360544218	477.7730158730159	56	127
477.7730158730159	477.86589569161	56	127
477.87750566893425	477.9819954648526	57	127
477.9819954648526	478.0748752834467	57	127
478.0748752834467	478.1793650793651	59	127
478.1793650793651	478.2606349206349	59	127
478.2606349206349	478.3651247165533	56	127
478.3651247165533	478.46961451247165	56	127
478.46961451247165	478.6785941043084	60	127
479.0733333333333	479.1778231292517	72	127
479.18943310657596	479.28231292517006	72	127
479.28231292517006	479.38680272108843	68	127
479.38680272108843	479.4912925170068	68	127
479.4912925170068	479.59578231292517	69	127
479.59578231292517	479.70027210884354	69	127
479.70027210884354	479.8047619047619	71	127
479.8047619047619	479.897641723356	71	127
479.897641723356	479.97891156462583	68	127
479.97891156462583	480.07179138321993	68	127
480.0834013605442	480.18789115646257	72	127
480.18789115646257	480.3039909297052	72	127
480.3039909297052	480.4084807256236	74	127
480.4084807256236	480.5013605442177	74	127
480.51297052154194	480.6174603174603	76	127
480.6174603174603	480.69873015873014	76	127
480.69873015873014	480.79160997732424	72	127
480.79160997732424	480.87287981859413	72	127
480.87287981859413	480.9657596371882	68	127
480.9773696145125	481.0702494331066	68	127
481.0702494331066	481.1631292517007	69	127
481.1631292517007	481.26761904761906	69	127
481.26761904761906	481.37210884353743	71	127
481.3837188208617	481.4765986394558	71	127
481.4765986394558	481.55786848072563	68	127
481.55786848072563	481.67396825396827	68	127
481.67396825396827	481.87133786848074	72	127
482.1151473922902	482.9162358276644	81	127
482.96267573696144	483.7405442176871	81	127
483.7985941043084	484.3790929705215	81	127
484.41392290249433	484.4719727891156	89	127
484.63451247165534	484.68095238095236	88	127
484.8434920634921	484.8899319727891	86	127
485.0524716553288	485.16857142857145	84	127
485.16857142857145	485.26145124716555	84	127
485.26145124716555	485.3659410430839	86	127
485.3659410430839	485.4704308390023	86	127
485.4704308390023	485.6097505668934	88	127
485.6097505668934	485.72585034013605	88	127
485.72585034013605	485.7839002267574	84	127
485.7839002267574	485.8767800453515	84	127
485.8767800453515	485.98126984126986	86	127
485.9928798185941	486.09736961451244	86	127
486.09736961451244	486.2018594104308	88	127
486.2018594104308	486.29473922902497	88	127
486.29473922902497	486.39922902494334	89	127
486.41083900226755	486.5153287981859	89	127
486.5153287981859	486.5965986394558	86	127
486.5965986394558	486.7010884353742	86	127
486.7010884353742	486.7939682539683	88	127
486.7939682539683	486.8868480725624	88	127
486.8868480725624	486.99133786848074	89	127
486.99133786848074	487.1190476190476	89	127
487.1190476190476	487.22353741496596	91	127
487.22353741496596	487.32802721088433	91	127
487.3396371882086	487.44412698412697	93	127
487.44412698412697	487.5021768707483	93	127
487.5021768707483	487.6066666666667	94	127
487.6066666666667	487.71115646258505	94	127
487.7227664399093	487.8272562358277	91	127
487.8272562358277	487.93174603174606	91	127
487.93174603174606	488.0362358276644	88	127
488.0362358276644	488.14072562358274	88	127
488.14072562358274	488.2336054421769	91	127
488.2336054421769	488.33809523809526	91	127
488.33809523809526	488.44258503401363	94	127
488.44258503401363	488.547074829932	94	127
488.547074829932	488.6515646258503	91	127
488.6631746031746	488.7328344671202	91	127
488.7328344671202	488.83732426303857	88	127
488.83732426303857	488.94181405895694	88	127
488.94181405895694	489.0463038548753	91	127
489.0463038548753	489.1624036281179	91	127
489.1624036281179	489.2785034013605	94	127
489.2785034013605	489.3829931972789	94	127
489.3829931972789	489.48748299319726	91	127
489.48748299319726	489.58036281179136	91	127
489.59197278911563	489.68485260770973	89	127
489.68485260770973	489.7893424036281	89	127
489.7893424036281	489.89383219954647	88	127
489.89383219954647	489.98671201814057	88	127
491.25219954648526	491.3566893424036	88	127
491.3682993197279	491.4495691609977	88	127
491.4495691609977	491.5540589569161	88	127
491.5540589569161	491.62371882086165	88	127
491.62371882086165	491.7165986394558	89	127
491.7165986394558	491.8210884353741	89	127
491.8326984126984	491.93718820861676	86	127
491.93718820861676	492.04167800453513	86	127
492.04167800453513	492.15777777777777	84	127
492.15777777777777	492.26226757369614	84	127
492.2738775510204	492.3667573696145	83	127
492.3667573696145	492.4712471655329	83	127
492.4712471655329	492.57573696145124	86	127
492.57573696145124	492.6802267573696	86	127
492.6802267573696	492.79632653061225	83	127
492.79632653061225	492.9008163265306	83	127
492.9008163265306	493.005306122449	81	127
493.005306122449	493.10979591836735	81	127
493.10979591836735	493.2142857142857	80	127
493.22589569161	493.3187755102041	80	127
493.3187755102041	493.42326530612246	81	127
493.42326530612246	493.55097505668937	81	127
493.55097505668937	493.65546485260774	77	127
493.66707482993195	493.7715646258503	77	127
493.7715646258503	493.8760544217687	76	127
493.8760544217687	493.9921541950113	76	127
493.9921541950113	494.0966439909297	75	127
494.0966439909297	494.1895238095238	75	127
494.20113378684806	494.34045351473924	76	127
494.34045351473924	494.4565532879819	76	127
494.4565532879819	494.56104308390024	75	127
494.56104308390024	494.6655328798186	75	127
494.6771428571429	494.78163265306125	76	127
494.78163265306125	494.8861224489796	76	127
494.8861224489796	495.037052154195	76	127
495.037052154195	495.15315192743765	76	127
495.1647619047619	495.3969614512472	69	127
505.3118820861678	505.4279818594104	80	127
505.4279818594104	506.1826303854875	81	127
506.2290702947846	506.333560090703	80	127
506.333560090703	507.041768707483	81	127
507.07659863945577	507.18108843537414	80	127
507.18108843537414	507.90090702947845	81	127
507.93573696145125	508.0402267573696	83	127
508.0402267573696	508.21437641723355	84	127
508.37691609977327	508.48140589569164	87	127
508.48140589569164	508.6439455782313	88	127
508.7948752834467	508.9109750566893	92	127
508.9109750566893	509.688843537415	93	127
509.7468934240363	509.955873015873	91	127
509.955873015873	510.01392290249436	90	127
510.16485260770975	510.22290249433104	88	127
510.397052154195	510.4551020408163	90	127
510.60603174603176	510.97755102040816	91	127
511.02399092970523	511.34907029478455	86	127
511.39551020408163	511.58126984126983	88	127
511.61609977324264	511.6857596371882	89	127
511.6857596371882	511.7554195011338	88	127
511.7554195011338	511.8250793650794	89	127
511.8250793650794	511.9063492063492	88	127
511.9063492063492	511.97600907029477	89	127
511.97600907029477	512.0456689342403	88	127
512.0572789115646	512.161768707483	86	127
512.161768707483	512.2662585034013	88	127
512.2662585034013	513.1137868480726	89	127
513.1718367346939	513.3924263038549	88	127
513.3924263038549	513.4504535147393	86	127
513.6130158730159	513.659433106576	84	127
513.8103854875284	513.8684126984127	86	127
514.0193650793651	514.3908843537415	88	127
514.4489342403629	514.8204535147393	81	127
514.8784807256236	515.250022675737	83	127
515.2964399092971	515.6215419501134	76	127
515.6679818594105	516.7244671201814	88	127
516.7244671201814	516.7709297052154	86	127
516.9334467120182	516.9915192743764	84	127
517.1424263038549	517.1888888888889	86	127
517.3514058956916	517.722947845805	88	127
517.7809977324263	518.1409070294785	81	127
518.1989569160997	518.5472562358277	83	127
518.605306122449	519.0116553287982	76	127
519.0697052154195	519.1741723356009	88	127
519.1741723356009	519.2786848072562	93	127
519.2786848072562	519.3831519274377	93	127
519.3831519274377	519.487664399093	93	127
519.4992743764172	519.6037641723356	93	127
519.6037641723356	519.7198639455783	93	127
519.7198639455783	519.8243537414966	93	127
519.8243537414966	519.928843537415	93	127
519.9404535147393	520.0565532879818	93	127
520.0565532879818	520.1610430839003	93	127
520.1610430839003	520.2655328798186	93	127
520.2655328798186	520.3584126984127	93	127
520.3584126984127	520.462902494331	93	127
520.4745124716553	520.5673922902495	93	127
520.5673922902495	520.6486621315192	93	127
520.6486621315192	520.7531519274377	93	127
520.7531519274377	520.857641723356	93	127
520.8692517006803	520.9505215419501	93	127
520.9505215419501	521.0550113378685	96	127
521.0550113378685	521.1595011337869	96	127
521.1595011337869	521.2639909297052	93	127
521.2639909297052	521.3800907029479	93	127
521.3800907029479	521.4729705215419	96	127
521.4729705215419	521.5774603174603	96	127
521.5774603174603	521.6819501133787	92	127
521.6819501133787	521.7748299319728	92	127
521.7864399092971	521.8909297052154	95	127
521.8909297052154	521.9954195011338	95	127
521.9954195011338	522.0999092970521	92	127
522.0999092970521	522.1927891156463	92	127
522.2043990929706	522.3088888888889	92	127
522.3088888888889	522.4133786848073	92	127
522.4133786848073	522.5643083900227	93	127
523.2144671201814	523.3886167800454	72	127
523.2144671201814	523.3886167800454	64	127
523.2144671201814	523.3886167800454	81	127
524.0736054421769	524.1780952380952	71	127
524.0736054421769	524.1780952380952	80	127
524.0736054421769	524.1780952380952	64	127
524.1780952380952	524.2825623582767	83	127
524.2825623582767	524.387074829932	82	127
524.387074829932	524.4915419501134	83	127
524.5031519274377	524.5844444444444	80	127
524.5844444444444	524.6773242630386	83	127
524.6773242630386	524.7702040816326	77	127
524.7702040816326	524.8746938775511	83	127
524.8746938775511	524.9907936507936	76	127
524.9907936507936	525.0604535147393	80	127
525.0604535147393	525.1649433106576	74	127
525.1649433106576	525.2578231292517	80	127
525.2578231292517	525.3507029478458	72	127
525.3507029478458	525.4435827664399	80	127
525.4435827664399	525.5480725623582	71	127
525.5480725623582	525.6641723356009	80	127
525.6641723356009	525.8499319727891	69	127
526.4652607709751	526.6510204081633	72	127
526.4652607709751	526.6510204081633	81	127
526.4652607709751	526.6510204081633	64	127
527.2779591836735	527.3824489795918	80	127
527.2779591836735	527.3824489795918	64	127
527.2779591836735	527.3824489795918	71	127
527.3824489795918	527.4985487528345	83	127
527.4985487528345	527.6030385487528	82	127
527.6146485260771	527.7191383219955	83	127
527.7191383219955	527.8236281179138	80	127
527.8236281179138	527.916507936508	83	127
527.916507936508	528.0209977324263	77	127
528.0326077097506	528.137097505669	80	127
528.137097505669	528.2415873015873	76	127
528.2415873015873	528.3112471655329	80	127
528.3112471655329	528.4157369614512	74	127
528.4157369614512	528.5202267573696	80	127
528.5202267573696	528.624716553288	72	127
528.624716553288	528.7175963718821	80	127
528.7175963718821	528.798843537415	71	127
528.798843537415	528.9033560090703	80	127
528.9149659863946	529.0194557823129	69	127
529.0194557823129	529.1239455782313	81	127
529.1239455782313	529.2168253968254	69	127
529.2168253968254	529.3097052154195	71	127
529.3213151927438	529.4141723356009	72	127
529.4141723356009	529.507074829932	71	127
529.507074829932	529.6115419501134	72	127
529.6115419501134	529.727664399093	69	127
529.727664399093	529.7973242630386	68	127
529.8089115646259	529.9134240362812	69	127
529.9134240362812	530.0178911564626	64	127
530.0178911564626	530.1224036281179	68	127
530.1224036281179	530.2036734693878	71	127
530.2152607709751	530.3197732426304	76	127
530.3197732426304	530.4126530612245	74	127
530.4126530612245	530.5171428571429	71	127
530.5171428571429	530.610022675737	69	127
530.6216099773243	530.7261224489796	81	127
530.7261224489796	530.830589569161	69	127
530.830589569161	530.9351020408163	71	127
530.9351020408163	531.0395691609978	72	127
531.0395691609978	531.1324716553288	71	127
531.1440816326531	531.2485487528345	72	127
531.2485487528345	531.3414512471655	69	127
531.3414512471655	531.445918367347	68	127
531.445918367347	531.5504308390023	69	127
531.5620408163265	531.666507936508	64	127
531.666507936508	531.7245804988662	68	127
531.7245804988662	531.8290702947846	71	127
531.8290702947846	531.9219501133787	76	127
531.9219501133787	532.0380498866214	74	127
532.0380498866214	532.154149659864	71	127
532.154149659864	532.2586167800454	69	127
532.2586167800454	532.3631292517007	81	127
532.3631292517007	532.4675963718821	69	127
532.4792063492064	532.5837188208617	71	127
532.5837188208617	532.6765759637188	72	127
532.6765759637188	532.7694784580499	71	127
532.7694784580499	532.8739455782313	72	127
532.8855555555556	532.9900680272109	69	127
532.9900680272109	533.0945351473923	70	127
533.0945351473923	533.1758276643991	67	127
533.1758276643991	533.2454875283447	64	127
533.2454875283447	533.349977324263	60	127
533.3615873015873	533.4312471655329	58	127
533.4312471655329	533.524126984127	55	127
533.524126984127	533.6286167800454	60	127
533.6286167800454	533.7214965986394	58	127
533.7331065759637	533.8375963718821	57	127
533.8375963718821	533.9188662131519	69	127
533.9188662131519	534.011746031746	65	127
534.011746031746	534.1162131519275	67	127
534.1162131519275	534.232335600907	69	127
534.232335600907	534.3368253968254	67	127
534.3368253968254	534.4180952380952	69	127
534.4180952380952	534.5225623582767	65	127
534.5225623582767	534.6154648526077	67	127
534.627074829932	534.7199319727891	64	127
534.7199319727891	534.8244444444445	61	127
534.8244444444445	534.9289115646259	57	127
534.9289115646259	535.0218140589569	67	127
535.0334240362812	535.1262811791383	64	127
535.1262811791383	535.2307936507937	69	127
535.2307936507937	535.3352607709751	67	127
535.3352607709751	535.4281632653061	65	127
535.4281632653061	535.5326303854876	77	127
535.5326303854876	535.6255328798186	74	127
535.6255328798186	535.730022675737	76	127
535.730022675737	535.8229024943311	77	127
535.8229024943311	535.9273922902495	76	127
535.9389795918368	536.0434920634921	77	127
536.0434920634921	536.1479591836735	74	127
536.1479591836735	536.2524716553288	75	127
536.2524716553288	536.345328798186	72	127
536.3569387755102	536.4614512471655	69	127
536.4614512471655	536.5543083900227	65	127
536.5543083900227	536.6239909297052	63	127
536.6239909297052	536.7168707482994	65	127
536.7168707482994	536.8097505668934	63	127
536.8213605442177	536.9258503401361	60	127
536.9258503401361	537.0187301587301	57	127
537.0187301587301	537.1232199546486	65	127
537.1232199546486	537.2277097505669	63	127
537.2393197278911	537.3438095238096	60	127
537.3438095238096	537.4366893424036	57	127
537.4366893424036	537.541179138322	65	127
537.541179138322	537.6340589569161	63	127
537.6340589569161	537.7501587301588	60	127
537.7501587301588	537.8546485260771	57	127
537.8546485260771	537.9591383219955	65	127
537.9591383219955	538.0636281179138	63	127
538.0636281179138	538.1681179138322	60	127
538.1797278911565	538.2958276643991	57	127
538.2958276643991	538.4002947845805	60	127
538.4002947845805	538.5164172335601	63	127
538.5164172335601	538.6789569160998	69	127
538.690566893424	542.6495691609978	70	127
542.7075963718821	545.97	82	127
545.97	547.5838095238096	86	127
547.6418594104308	549.2208163265307	74	127
549.2672562358276	550.0335147392291	86	127
550.0683219954649	550.8346031746032	74	127
550.8926530612245	551.4499319727892	74	127
551.484739229025	551.577641723356	68	127
551.5892517006803	551.6937188208617	69	127
551.6937188208617	551.7517913832199	71	127
551.7517913832199	551.8446712018141	72	127
551.8446712018141	551.9375510204081	74	127
551.9491609977324	552.0536507936508	76	127
552.0536507936508	552.6573696145125	77	127
552.7037868480726	552.8663492063492	69	127
552.901179138322	552.947619047619	68	127
553.0869387755102	553.1449886621315	64	127
553.3075283446713	553.3539682539682	64	127
553.5048979591837	553.562947845805	68	127
553.7022675736962	553.737074829932	69	127
553.8880272108844	553.9344444444445	64	127
554.0737868480726	554.1318367346939	64	127
554.2827664399093	554.3292063492064	69	127
554.4569160997733	554.4917460317461	71	127
554.6426757369615	554.6891156462585	64	127
554.8284353741496	554.886485260771	64	127
555.0606349206349	555.107074829932	71	127
555.2696145124717	555.327664399093	72	127
555.4669841269841	555.5134240362812	64	127
555.6411337868481	555.6991836734694	73	127
555.8501133786848	555.8849433106576	64	127
556.0474829931973	556.1171428571429	74	127
556.256462585034	556.3145124716553	64	127
556.477052154195	556.5234920634921	75	127
556.6628117913832	556.7208616780046	64	127
556.8369614512471	556.8834013605442	76	127
557.0343310657596	557.092380952381	64	127
557.2433106575963	557.2665306122449	65	127
557.4290476190477	557.4755102040816	77	127
557.6148072562358	557.6612698412698	78	127
557.8237868480726	557.8702494331066	66	127
557.9979591836735	558.0443990929705	67	127
558.1837188208617	558.2417460317461	79	127
558.4043083900227	558.4507256235828	80	127
558.6132879818595	558.6597278911564	68	127
558.8106575963719	558.857074829932	69	127
559.0080272108844	559.0660544217687	81	127
559.2402267573697	559.2866666666666	70	127
559.4491836734694	559.4956462585034	82	127
559.6465759637189	559.6930158730158	71	127
559.8323356009071	559.8903854875283	83	127
560.0297052154195	560.0761224489796	72	127
560.227074829932	560.2734920634921	84	127
560.4012244897959	560.447664399093	73	127
560.5985941043084	560.6450340136055	85	127
560.8075736961451	560.8540136054422	74	127
561.0049433106576	561.0513832199547	86	127
561.2139229024943	561.2603628117914	75	127
561.4229024943311	561.4693424036282	87	127
561.5854421768707	561.6318820861678	76	127
561.7944217687075	561.8408616780046	88	127
562.0034013605442	562.0614512471656	77	127
562.1891609977324	562.2356009070295	89	127
562.3865306122449	562.4213605442177	74	127
562.5955102040816	562.653560090703	86	127
562.8277097505669	562.874149659864	76	127
563.0018594104308	563.0599092970522	88	127
563.2688888888889	564.1744444444445	88	127
564.2325170068027	565.0800453514739	88	127
565.1380952380953	565.5560544217687	88	127
565.5560544217687	565.7998412698413	86	127
565.7998412698413	565.962403628118	84	127
565.9972108843538	566.3803628117914	86	127
566.3803628117914	566.6125396825397	84	127
566.6125396825397	566.7867120181406	83	127
566.8215192743764	567.2859410430839	84	127
567.2859410430839	567.4484580498867	83	127
567.4484580498867	567.6110204081633	84	127
567.6458276643991	567.8316099773243	86	127
568.0521768707483	568.2727891156462	83	127
568.5630385487528	569.0158276643991	76	127
568.5630385487528	569.3409070294784	64	127
569.0158276643991	569.1783673469388	74	127
569.1783673469388	569.364126984127	72	127
569.3989569160998	570.1884353741497	64	127
569.3989569160998	569.7936961451247	74	127
569.7936961451247	570.0142857142857	72	127
570.0142857142857	570.2116553287982	71	127
570.246485260771	571.1056009070295	64	127
570.246485260771	570.7224943310657	72	127
570.7224943310657	570.954693877551	71	127
570.954693877551	571.1172108843538	69	127
571.1636734693877	571.6048526077097	71	127
571.1636734693877	571.9531519274376	64	127
571.6048526077097	571.8486621315193	69	127
571.8486621315193	571.9763718820861	68	127
572.0228117913832	572.5800907029478	69	127
572.6381405895692	572.8122902494331	69	127
572.8471201814059	573.0444897959184	71	127
573.2534693877551	573.4508390022676	68	127
573.7062585034014	573.822358276644	69	127
573.822358276644	573.9152380952381	57	127
573.9268480725624	574.042947845805	60	127
574.042947845805	574.1590476190477	57	127
574.1590476190477	574.2983673469388	60	127
574.3099773242631	574.4376870748299	57	127
574.4376870748299	574.5537868480726	60	127
574.5537868480726	574.6814965986395	57	127
574.6931065759637	574.8091836734694	60	127
574.8091836734694	574.925306122449	57	127
574.925306122449	575.0414058956916	60	127
575.0530158730159	575.14589569161	57	127
575.14589569161	575.2503854875283	60	127
575.2503854875283	575.3316553287982	57	127
575.3432653061225	575.4477551020408	60	127
575.4477551020408	575.5522448979592	57	127
575.5522448979592	575.6567346938775	60	127
575.6683446712018	575.7960544217688	57	127
575.7960544217688	575.9121541950113	60	127
575.9121541950113	576.028231292517	57	127
576.0398639455782	576.1211337868481	60	127
576.1211337868481	576.202403628118	57	127
576.202403628118	576.3068934240363	60	127
576.3185034013605	576.4345804988662	57	127
576.4345804988662	576.5507029478458	60	127
576.5507029478458	576.6668027210884	57	127
576.6784126984127	576.7596825396826	60	127
576.7596825396826	576.8641723356009	57	127
576.8641723356009	576.9454421768708	60	127
576.957052154195	577.0731519274376	57	127
577.0731519274376	577.1660317460318	60	127
577.1660317460318	577.2705215419501	57	127
577.2821315192743	577.398231292517	60	127
577.398231292517	577.5143310657596	57	127
577.5143310657596	577.6072108843538	60	127
577.618820861678	577.7349206349206	57	127
577.7349206349206	577.8510204081633	60	127
577.8510204081633	577.9555102040816	57	127
577.9671201814059	578.0599773242631	60	127
578.0599773242631	578.1644897959184	57	127
578.1644897959184	578.2573696145125	60	127
578.2573696145125	578.3734693877551	57	127
578.3734693877551	578.4663265306123	60	127
578.4663265306123	578.5824489795918	57	127
578.5940589569161	578.7101587301587	60	127
578.7101587301587	578.8262585034014	57	127
578.8262585034014	578.9191383219954	60	127
578.9307482993197	579.0352380952381	57	127
579.0352380952381	579.1513378684807	60	127
579.1513378684807	579.2558276643991	57	127
579.2674376417234	579.383537414966	60	127
579.383537414966	579.4764172335601	57	127
579.4764172335601	579.5692970521542	60	127
579.5809070294785	579.6737868480726	57	127
579.6737868480726	579.7550566893424	60	127
579.7550566893424	579.8595464852608	57	127
579.8711564625851	579.9872562358277	60	127
579.9872562358277	580.1033333333334	57	127
580.1033333333334	580.2310657596372	60	127
580.2310657596372	580.3471655328798	57	127
580.3471655328798	580.4632653061225	60	127
580.4632653061225	580.5793650793651	57	127
580.5793650793651	580.6954648526078	60	127
580.6954648526078	580.8115646258503	57	127
580.8115646258503	580.9392517006803	60	127
580.9392517006803	581.0553741496599	57	127
581.0553741496599	581.1714739229025	60	127
581.1714739229025	581.2875736961452	57	127
581.2875736961452	581.4036734693877	60	127
581.4036734693877	581.5197732426304	57	127
581.5197732426304	581.635873015873	60	127
581.635873015873	581.7403401360544	57	127
581.7403401360544	581.856462585034	60	127
581.856462585034	581.9841723356009	57	127
581.9841723356009	582.1002721088436	60	127
582.1002721088436	582.2163718820862	57	127
582.2163718820862	582.3440816326531	60	127
582.3440816326531	582.4485714285714	57	127
582.4485714285714	582.5298412698413	60	127
582.5298412698413	582.6575510204082	57	127
582.6575510204082	582.7504308390023	60	127
582.7504308390023	582.8665306122449	57	127
582.8665306122449	582.9709977324263	60	127
582.9709977324263	583.0755102040816	57	127
583.0755102040816	583.1915873015873	60	127
583.1915873015873	583.3077097505669	57	127
583.3077097505669	583.4238095238095	60	127
583.4238095238095	583.5399092970522	57	127
583.5399092970522	583.6560090702948	60	127
583.6560090702948	583.7604988662132	57	127
583.7604988662132	583.8185487528344	60	127
583.8185487528344	583.9462585034014	57	127
583.9462585034014	584.0739682539682	60	127
584.0739682539682	584.1900680272109	57	127
584.1900680272109	584.3177777777778	60	127
584.3177777777778	584.4338775510204	57	127
584.4338775510204	584.6428571428571	60	127
584.6892970521542	584.8750566893424	72	127
584.9098866213152	585.1304761904762	76	127
585.165306122449	585.3626757369615	72	127
585.4091156462586	585.606485260771	69	127
588.2767800453515	589.0546485260771	76	127
589.0546485260771	591.2373242630385	77	127
591.2373242630385	594.0469387755102	72	127
594.0469387755102	598.272970521542	74	127
606.1677551020408	608.5245578231293	69	127
608.5245578231293	608.605850340136	68	127
608.605850340136	608.6871201814059	66	127
608.6987301587302	608.7916099773242	64	127
608.7916099773242	608.8844897959184	66	127
608.8844897959184	608.9773696145124	68	127
608.9773696145124	609.0818594104309	69	127
609.0818594104309	609.1863492063492	71	127
609.1863492063492	609.2792290249433	72	127
609.2792290249433	609.3837188208616	74	127
609.3837188208616	609.4533786848073	72	127
609.4649886621315	609.5578458049887	71	127
609.5578458049887	609.662358276644	77	127
609.662358276644	609.7436281179139	76	127
609.7436281179139	609.8365079365079	74	127
609.8365079365079	609.9293877551021	72	127
609.9293877551021	610.0338775510204	71	127
610.0338775510204	610.2080272108843	72	127
611.3574149659864	611.5547845804989	69	127
611.5547845804989	611.647664399093	68	127
611.6592743764172	611.7521541950114	66	127
611.7521541950114	611.8450340136054	64	127
611.8450340136054	611.9379138321996	66	127
611.9379138321996	612.0307936507936	68	127
612.0307936507936	612.135283446712	69	127
612.135283446712	612.2281405895692	71	127
612.2281405895692	612.3326530612245	72	127
612.3326530612245	612.4255102040817	74	127
612.4371428571428	612.5184126984127	72	127
612.5184126984127	612.5996825396826	71	127
612.5996825396826	612.6925623582766	77	127
612.6925623582766	612.7970521541951	76	127
612.7970521541951	612.9015419501134	74	127
612.9131519274376	613.0060317460318	72	127
613.0060317460318	613.1105215419501	71	127
613.1105215419501	613.2730612244898	72	127
614.4224489795919	614.6198185941043	69	127
614.6198185941043	614.7126984126984	68	127
614.7126984126984	614.8055782312925	66	127
614.8055782312925	614.8984580498866	64	127
614.9100680272109	614.9913378684807	66	127
614.9913378684807	615.0841950113379	68	127
615.0841950113379	615.1770975056689	69	127
615.1770975056689	615.2815646258504	71	127
615.2815646258504	615.3744671201814	72	127
615.3860770975057	615.4789342403628	74	127
615.4789342403628	615.5834467120181	72	127
615.5834467120181	615.6763265306123	71	127
615.6763265306123	615.7692063492063	77	127
615.7692063492063	615.8504761904762	76	127
615.8620861678005	615.931746031746	74	127
615.931746031746	615.9897959183673	72	127
615.9897959183673	616.0826757369615	71	127
616.0826757369615	616.1987755102041	72	127
616.1987755102041	616.3497052154195	69	127
616.3497052154195	616.4774149659864	67	127
616.4774149659864	616.5702947845805	65	127
616.5702947845805	616.6515646258504	64	127
616.6631746031746	616.7328344671201	65	127
616.7328344671201	616.81410430839	64	127
616.81410430839	616.9069614512472	62	127
616.9069614512472	616.9998639455782	60	127
616.9998639455782	617.0927437641724	65	127
617.1043537414967	617.1972335600907	64	127
617.1972335600907	617.2901133786849	62	127
617.2901133786849	617.3829931972789	60	127
617.3829931972789	617.475873015873	62	127
617.475873015873	617.5571428571428	60	127
617.5687528344671	617.650022675737	59	127
617.650022675737	617.8125623582766	57	127
618.3698412698412	618.5439682539683	81	127
618.3698412698412	618.5439682539683	64	127
618.3698412698412	618.5439682539683	72	127
618.7413605442177	618.9039002267574	81	127
618.7413605442177	618.9039002267574	64	127
618.7413605442177	618.9039002267574	72	127
619.147709750567	619.3102494331066	64	127
619.147709750567	619.3102494331066	81	127
619.147709750567	619.3102494331066	72	127
620.0532879818594	620.3551473922903	64	127
620.0532879818594	620.3551473922903	76	127
620.0532879818594	620.3551473922903	71	127
621.0401360544217	621.400045351474	69	127
621.0401360544217	621.400045351474	57	127
621.0401360544217	621.400045351474	64	127
