# onset,offset,note,velocity
29.98780045351474	30.91659863945578	77	127
30.91659863945578	31.473877551020408	76	127
31.78734693877551	32.75097505668934	76	127
32.97156462585034	33.63333333333333	74	127
33.63333333333333	34.17900226757369	72	127
34.57371882086168	35.81600907029478	72	127
35.81600907029478	36.489387755102044	74	127
36.500997732426306	37.093106575963716	76	127
37.10469387755102	37.801315192743765	74	127
37.81292517006803	38.451473922902494	76	127
38.47469387755102	39.15968253968254	77	127
39.171292517006805	40.61092970521542	78	127
40.61092970521542	41.50489795918367	79	127
41.50489795918367	42.25954648526077	80	127
42.27115646258503	44.48866213151928	81	127
44.48866213151928	45.19687074829932	77	127
45.19687074829932	45.97473922902494	74	127
45.986326530612246	47.472426303854874	82	127
47.472426303854874	47.84394557823129	81	127
47.84394557823129	48.1574149659864	79	127
48.16902494331066	48.505714285714284	77	127
48.505714285714284	48.83079365079365	76	127
48.86562358276644	49.58544217687075	76	127
49.59705215419501	49.68993197278912	76	127
49.68993197278912	49.78281179138322	77	127
49.78281179138322	49.8524716553288	76	127
49.8524716553288	49.93374149659864	77	127
49.93374149659864	50.00340136054422	76	127
50.00340136054422	50.1659410430839	77	127
50.1659410430839	50.24721088435374	76	127
50.24721088435374	50.31687074829932	77	127
50.31687074829932	50.63034013605442	84	127
50.63034013605442	51.036689342403626	76	127
51.04829931972789	52.56920634920635	79	127
52.56920634920635	53.25419501133787	77	127
86.23814058956916	88.13056689342403	72	127
88.1537641723356	89.34961451247166	72	127
89.60503401360545	91.09108843537415	72	127
91.10272108843537	92.43786848072563	72	127
92.43786848072563	93.27378684807256	74	127
93.30861678004536	93.98197278911564	76	127
93.98197278911564	94.67859410430839	74	127
94.67859410430839	95.37519274376417	76	127
95.37519274376417	96.08340136054422	77	127
96.09501133786848	97.44176870748299	78	127
97.44176870748299	98.20802721088435	79	127
98.20802721088435	99.12521541950113	80	127
99.14843537414966	101.42399092970521	81	127
101.42399092970521	102.15541950113379	77	127
102.15541950113379	102.94489795918368	74	127
102.95650793650793	104.41936507936508	82	127
104.41936507936508	104.82571428571428	81	127
104.82571428571428	105.16240362811791	79	127
105.17401360544218	105.47587301587302	77	127
105.47587301587302	105.67324263038549	76	127
105.81256235827665	106.55560090702947	76	127
106.56721088435374	106.64848072562359	76	127
106.64848072562359	106.71814058956916	77	127
106.71814058956916	106.799410430839	76	127
106.799410430839	106.86907029478458	77	127
106.86907029478458	106.98517006802722	76	127
106.98517006802722	107.05482993197279	77	127
107.05482993197279	107.240589569161	76	127
107.240589569161	107.3334693877551	77	127
107.3334693877551	107.68176870748299	84	127
107.68176870748299	108.07650793650794	76	127
108.08811791383219	109.6902947845805	79	127
109.6902947845805	110.5378231292517	77	127
110.56104308390023	111.28086167800454	69	127
111.28086167800454	112.02390022675738	67	127
112.02390022675738	112.74371882086167	72	127
112.74371882086167	113.37065759637188	69	127
113.37065759637188	114.11369614512472	65	127
114.12530612244898	114.84512471655329	67	127
114.84512471655329	115.55333333333333	72	127
115.55333333333333	116.29637188208616	69	127
116.29637188208616	116.9117006802721	77	127
116.92331065759637	117.78244897959183	71	127
117.81727891156463	119.04793650793651	79	127
119.24530612244898	119.94190476190477	77	127
119.95351473922902	120.62689342403628	76	127
120.63850340136054	121.3467120181406	74	127
121.35832199546485	122.02009070294784	72	127
122.03170068027211	122.7282993197279	74	127
122.73990929705215	124.13310657596372	76	127
124.13310657596372	125.08512471655328	77	127
125.08512471655328	125.52630385487528	74	127
125.56113378684807	126.31578231292517	72	127
126.32739229024943	127.058820861678	67	127
127.058820861678	127.73219954648526	69	127
127.73219954648526	128.45199546485262	71	127
128.45199546485262	129.18344671201814	72	127
129.18344671201814	129.89165532879818	74	127
129.89165532879818	130.59986394557822	76	127
130.59986394557822	131.2384126984127	77	127
131.2384126984127	131.4125396825397	74	127
131.43578231292517	132.132358276644	72	127
132.1439909297052	132.2136507936508	67	127
132.22526077097507	132.29492063492063	69	127
132.3065306122449	132.43421768707483	67	127
132.45746031746032	132.51551020408164	69	127
132.5271201814059	132.58517006802722	67	127
132.59678004535147	132.66643990929705	69	127
132.67804988662132	132.73609977324264	66	127
132.74770975056688	132.82897959183674	67	127
132.840589569161	132.89861678004536	69	127
132.91024943310657	132.97990929705216	71	127
132.99151927437643	133.08439909297053	69	127
133.0960090702948	133.16566893424036	71	127
133.17727891156463	133.23532879818595	69	127
133.24693877551022	133.31659863945578	71	127
133.32820861678005	133.38625850340136	68	127
133.39786848072563	133.45589569160998	69	127
133.47913832199546	133.53718820861678	71	127
133.54879818594105	133.60684807256237	72	127
133.6184580498866	133.74616780045352	71	127
133.7577777777778	133.81580498866214	72	127
133.82743764172335	133.89709750566894	71	127
133.9087074829932	133.96673469387756	72	127
133.97836734693877	134.04802721088436	69	127
134.05963718820863	134.11768707482995	71	127
134.1292970521542	134.19895691609977	72	127
134.21056689342404	134.26861678004536	74	127
134.2802267573696	134.33827664399092	72	127
134.36149659863946	134.41954648526078	74	127
134.43113378684808	134.48920634920634	72	127
134.5008163265306	134.60530612244898	74	127
134.61691609977325	134.67496598639457	71	127
134.68655328798187	134.7562358276644	72	127
134.76784580498867	134.82589569161	74	127
134.83748299319728	134.90716553287982	76	127
134.90716553287982	134.95360544217687	74	127
134.96521541950113	135.03487528344672	76	127
135.04646258503402	135.10453514739228	74	127
135.11614512471655	135.18580498866214	76	127
135.19739229024944	135.26707482993197	72	127
135.27868480725624	135.33673469387756	74	127
135.35995464852607	135.4180045351474	76	127
135.42961451247166	135.48766439909298	77	127
135.49927437641725	135.5689342403628	76	127
135.58054421768708	135.74308390022676	77	127
135.75469387755103	135.8243537414966	76	127
135.83596371882086	135.89401360544218	77	127
135.90562358276645	135.975283446712	74	127
135.98689342403628	136.0449433106576	76	127
136.05655328798187	136.6254195011338	77	127
136.6254195011338	136.7647619047619	74	127
136.77637188208618	136.83439909297053	72	127
136.84603174603174	136.91569160997733	74	127
136.9273015873016	136.98532879818595	72	127
136.99696145124716	137.06662131519275	74	127
137.07823129251702	137.13625850340136	72	127
137.14789115646258	137.3336507936508	74	127
137.3452380952381	137.40331065759636	71	127
137.41492063492063	137.48458049886622	72	127
137.49616780045352	137.97219954648526	77	127
137.97219954648526	138.11149659863946	74	127
138.12312925170068	138.181179138322	72	127
138.19278911564626	138.25083900226758	74	127
138.26242630385488	138.3321088435374	72	127
138.34371882086168	138.401768707483	74	127
138.41337868480727	138.47142857142856	72	127
138.4946485260771	138.55269841269842	74	127
138.5643083900227	138.63396825396825	71	127
138.8081179138322	138.88938775510204	72	127
138.92421768707484	139.50471655328798	77	127
139.50471655328798	139.64401360544218	74	127
139.6556462585034	140.56120181405896	72	127
140.56120181405896	141.36231292517007	82	127
141.36231292517007	142.09374149659865	81	127
142.09374149659865	142.813537414966	79	127
142.813537414966	143.15024943310658	77	127
143.16185941043085	143.34761904761905	77	127
143.34761904761905	143.64947845804988	76	127
143.8004081632653	145.14716553287982	76	127
145.14716553287982	145.77410430839004	74	127
145.78571428571428	145.9366439909297	74	127
145.9366439909297	146.2849433106576	72	127
146.43587301587303	147.73619047619047	72	127
147.73619047619047	148.3282993197279	74	127
148.33990929705215	148.45600907029478	77	127
148.45600907029478	149.0016553287982	76	127
149.0132879818594	149.62861678004535	74	127
149.64022675736962	150.29038548752834	76	127
150.3019954648526	150.95215419501133	77	127
150.97537414965987	152.3453514739229	78	127
152.3453514739229	153.07678004535148	79	127
153.07678004535148	153.9591156462585	80	127
153.97074829931972	156.03732426303856	81	127
156.03732426303856	156.78036281179138	77	127
156.78036281179138	157.5001814058957	74	127
157.51179138321996	158.96303854875285	82	127
158.96303854875285	159.2881179138322	81	127
159.2881179138322	159.6015873015873	79	127
159.61319727891157	159.9150566893424	77	127
159.9150566893424	160.12403628117914	76	127
160.33301587301588	160.95993197278912	76	127
160.97156462585033	161.04122448979592	76	127
161.04122448979592	161.12249433106575	77	127
161.12249433106575	161.2037641723356	76	127
161.2037641723356	161.28503401360544	77	127
161.28503401360544	161.35469387755103	76	127
161.35469387755103	161.4591836734694	77	127
161.4591836734694	161.52884353741496	76	127
161.52884353741496	161.6217006802721	77	127
161.6217006802721	161.98160997732427	84	127
161.98160997732427	162.4344217687075	76	127
162.44603174603174	164.0946485260771	79	127
164.0946485260771	165.3020634920635	77	127
166.63721088435375	166.75333333333333	84	127
166.82299319727892	166.96231292517007	84	127
167.03197278911566	167.13646258503402	84	127
167.19448979591837	167.7401814058957	84	127
168.8663492063492	168.98242630385488	84	127
169.0521088435374	169.15659863945578	84	127
169.2146485260771	169.34233560090703	84	127
169.41201814058957	169.99251700680273	84	127
171.1651247165533	171.29283446712017	84	127
171.3508843537415	171.46698412698413	84	127
171.53664399092972	171.65274376417233	84	127
172.25643990929706	172.37256235827664	84	127
172.44222222222223	172.5699319727891	84	127
172.6395918367347	172.77891156462584	84	127
173.41746031746032	173.533537414966	84	127
173.60321995464852	173.7077097505669	84	127
173.77736961451248	173.88185941043085	84	127
173.9515192743764	174.54362811791384	84	127
179.81455782312926	179.94226757369614	65	127
180.01192743764173	180.1396371882086	70	127
180.41827664399094	180.53437641723357	67	127
180.60403628117913	180.73174603174604	70	127
180.9639455782313	181.0568253968254	67	127
181.12648526077098	181.26580498866213	70	127
181.5212244897959	181.64893424036282	67	127
181.71859410430838	181.83469387755102	70	127
182.0901133786848	182.2178231292517	67	127
182.28748299319727	182.39197278911564	70	127
182.64739229024943	182.76349206349207	79	127
182.82154195011339	183.05374149659863	82	127
183.11179138321995	183.83160997732426	81	127
185.02743764172337	185.13192743764174	84	127
185.2015873015873	185.3292970521542	84	127
185.38734693877552	185.50344671201813	84	127
185.57310657596372	186.1419954648526	84	127
187.29138321995464	187.40748299319728	84	127
187.4655328798186	187.5584126984127	84	127
187.62807256235828	187.75578231292516	84	127
187.82544217687075	188.4059410430839	84	127
189.53208616780046	189.64820861678004	84	127
189.71786848072563	189.83396825396827	84	127
189.90362811791383	190.01972789115646	84	127
190.64666666666668	190.77437641723355	84	127
190.84403628117914	190.9485260770975	84	127
190.9833560090703	191.1110657596372	84	127
191.74961451247165	191.87732426303856	84	127
191.94698412698412	192.06308390022676	84	127
192.13274376417235	192.24884353741496	84	127
192.31850340136054	192.85256235827666	84	127
198.01900226757368	198.16993197278913	65	127
198.21637188208618	198.34408163265306	70	127
198.59950113378684	198.71560090702948	67	127
198.78526077097504	198.92458049886622	70	127
199.18	199.26126984126984	67	127
199.33092970521542	199.4586394557823	70	127
199.70244897959185	199.81854875283446	67	127
199.88820861678005	200.01591836734693	70	127
200.23650793650793	200.35260770975057	67	127
200.42226757369613	200.57319727891158	70	127
200.82861678004537	200.9331065759637	79	127
201.0027664399093	201.2233560090703	82	127
201.29301587301586	201.93156462585034	81	127
203.09256235827664	203.20866213151928	84	127
203.25510204081633	203.38281179138323	84	127
203.4524716553288	203.6034013605442	84	127
203.6730612244898	204.2419501133787	84	127
205.3681179138322	205.48421768707482	84	127
205.54226757369614	205.65836734693877	84	127
205.7164172335601	205.85573696145124	84	127
206.48267573696145	206.58716553287982	89	127
206.65682539682538	206.77292517006802	89	127
206.8425850340136	206.9702947845805	89	127
207.22571428571428	207.3185941043084	86	127
207.36503401360545	207.49274376417233	86	127
207.55079365079365	207.67850340136056	91	127
207.74816326530612	207.86426303854876	91	127
207.93392290249434	208.06163265306122	91	127
208.10807256235827	208.23578231292518	91	127
208.30544217687074	208.46798185941043	91	127
208.5028117913832	208.63052154195012	91	127
208.7001814058957	208.81628117913831	91	127
208.8859410430839	209.03687074829932	91	127
209.1065306122449	209.21102040816328	91	127
209.26907029478457	209.83795918367346	91	127
212.0902947845805	212.20639455782313	79	127
212.27605442176872	212.35732426303855	79	127
212.42698412698414	212.55469387755102	79	127
213.20485260770974	213.33256235827665	67	127
213.40222222222224	213.54154195011338	67	127
213.61120181405894	213.76213151927436	67	127
213.83179138321995	214.4471201814059	67	127
218.0578231292517	218.20875283446713	79	127
218.29002267573696	218.38290249433106	79	127
218.4293424036281	218.56866213151926	79	127
218.63832199546485	219.19560090702947	79	127
222.63215419501134	222.7714739229025	67	127
222.8295238095238	222.9572335600907	67	127
223.015283446712	223.1429931972789	67	127
223.8047619047619	223.9324716553288	67	127
224.00213151927437	224.14145124716552	67	127
224.1878911564626	224.3039909297052	67	127
224.90770975056688	225.07024943310657	67	127
225.15151927437643	225.2792290249433	67	127
225.3488888888889	225.41854875283445	67	127
225.72040816326532	225.8481179138322	72	127
225.9177777777778	226.04548752834467	72	127
226.31251700680272	226.42861678004536	72	127
226.49827664399092	226.62598639455783	72	127
226.89301587301588	227.0439455782313	72	127
227.11360544217686	227.24131519274377	72	127
227.49673469387756	227.64766439909297	84	127
227.74054421768707	227.8914739229025	84	127
228.6112925170068	228.7390022675737	84	127
228.80866213151927	228.9247619047619	84	127
228.97120181405896	229.09891156462584	84	127
229.16857142857143	229.7490702947846	84	127
230.97972789115647	231.09582766439908	84	127
231.14226757369613	231.23514739229026	84	127
231.30480725623582	231.444126984127	84	127
231.51378684807256	232.05945578231294	84	127
233.22045351473923	233.3481632653061	84	127
233.40621315192743	233.53392290249434	84	127
233.6035827664399	233.7312925170068	84	127
234.33501133786848	234.45111111111112	84	127
234.52077097505668	234.63687074829932	84	127
234.69492063492063	234.83424036281178	84	127
235.461179138322	235.60049886621314	84	127
235.7049886621315	235.80947845804988	84	127
235.8675283446712	235.94879818594103	84	127
236.01845804988662	236.5873469387755	84	127
241.81183673469388	241.95115646258503	70	127
241.81183673469388	241.95115646258503	67	127
242.03242630385486	242.16013605442177	70	127
242.03242630385486	242.16013605442177	67	127
242.41555555555556	242.54326530612244	70	127
242.41555555555556	242.54326530612244	67	127
242.61292517006802	242.7174149659864	70	127
242.61292517006802	242.7174149659864	67	127
242.9612244897959	243.05410430839	67	127
242.9612244897959	243.05410430839	70	127
243.1237641723356	243.2166439909297	70	127
243.1237641723356	243.2166439909297	67	127
243.46045351473924	243.57655328798185	70	127
243.46045351473924	243.57655328798185	67	127
243.64621315192744	243.77392290249432	70	127
243.64621315192744	243.77392290249432	67	127
244.04095238095238	244.13383219954648	67	127
244.04095238095238	244.13383219954648	70	127
244.20349206349206	244.33120181405894	70	127
244.20349206349206	244.33120181405894	67	127
244.6330612244898	244.77238095238096	82	127
244.84204081632652	244.9813605442177	82	127
245.05102040816325	245.68956916099773	81	127
246.81573696145125	246.94344671201813	84	127
247.01310657596372	247.12920634920636	84	127
247.19886621315192	247.32657596371882	84	127
247.3962358276644	247.96512471655328	84	127
249.056462585034	249.17256235827665	84	127
249.23061224489797	249.35832199546485	84	127
249.42798185941044	249.55569160997732	84	127
250.159410430839	250.2871201814059	89	127
250.35678004535148	250.46126984126985	89	127
250.51931972789114	250.63541950113378	89	127
250.90244897959184	251.0069387755102	86	127
251.0765986394558	251.18108843537414	86	127
251.23913832199545	251.36684807256236	91	127
251.43650793650792	251.55260770975056	91	127
251.62226757369615	251.7383673469388	91	127
251.80802721088435	251.93573696145125	91	127
252.00539682539682	252.12149659863945	91	127
252.19115646258504	252.31886621315192	91	127
252.3885260770975	252.5162358276644	91	127
252.58589569160998	252.70199546485262	91	127
252.76004535147393	252.8645351473923	91	127
252.93419501133786	253.47986394557824	91	127
255.74380952380952	255.85990929705216	79	127
255.94117913832198	256.05727891156465	79	127
256.1269387755102	256.2662585034014	79	127
256.88156462585033	256.9976870748299	67	127
257.06734693877553	257.20666666666665	67	127
257.28793650793654	257.4388662131519	67	127
257.5085260770975	258.1122222222222	67	127
261.6648979591837	261.8042176870748	79	127
261.86226757369616	261.9319274376417	79	127
262.00156462585034	262.164126984127	79	127
262.23378684807255	262.8375056689342	79	127
266.2392290249433	266.3669387755102	67	127
266.4365986394558	266.5643083900227	67	127
266.6107482993197	266.7500680272109	67	127
267.38861678004537	267.551156462585	67	127
267.62079365079364	267.7485260770975	67	127
267.8181859410431	267.94589569160996	67	127
268.52639455782315	268.65410430839	67	127
268.7353741496599	268.874693877551	67	127
268.9443310657596	269.08367346938775	67	127
269.33909297052156	269.46678004535147	72	127
269.53646258503403	269.66414965986394	72	127
269.9195918367347	270.0473015873016	72	127
270.11696145124716	270.24467120181407	72	127
270.5117006802721	270.639410430839	72	127
270.70907029478457	270.86	72	127
271.12702947845804	271.25473922902495	84	127
271.3243990929705	271.56820861678005	84	127
272.2415873015873	272.3692970521542	84	127
272.42732426303854	272.5434467120181	84	127
272.61310657596374	272.75242630385486	84	127
272.8220861678005	273.35614512471653	84	127
274.51714285714286	274.64485260770977	84	127
274.7145124716553	274.83061224489796	84	127
274.9002721088435	275.02798185941043	84	127
275.097641723356	275.6433106575964	84	127
276.7694784580499	276.8971882086168	84	127
276.96684807256236	277.0481179138322	84	127
277.1177777777778	277.24548752834465	84	127
277.8491836734694	277.96530612244896	84	127
278.0349659863946	278.1510430839002	84	127
278.2207256235828	278.3368253968254	84	127
278.9405442176871	279.10308390022675	84	127
279.17272108843537	279.3004535147392	84	127
279.35850340136057	279.4861904761905	84	127
279.55587301587303	280.1131519274376	84	127
285.41891156462583	285.5001814058957	70	127
285.41891156462583	285.5001814058957	67	127
285.5698412698413	285.6975510204082	70	127
285.5698412698413	285.6975510204082	67	127
285.9413605442177	286.0690702947846	67	127
285.9413605442177	286.0690702947846	70	127
286.13873015873014	286.26643990929705	70	127
286.13873015873014	286.26643990929705	67	127
286.53344671201813	286.61473922902496	67	127
286.53344671201813	286.61473922902496	70	127
286.6960090702948	286.83532879818597	70	127
286.6960090702948	286.83532879818597	67	127
287.0907482993197	287.20684807256237	67	127
287.0907482993197	287.20684807256237	70	127
287.2765079365079	287.369387755102	70	127
287.2765079365079	287.369387755102	67	127
287.65961451247165	287.7873469387755	67	127
287.65961451247165	287.7873469387755	70	127
287.8570068027211	287.98471655328797	70	127
287.8570068027211	287.98471655328797	67	127
288.2749433106576	288.40267573696144	82	127
288.47231292517006	288.6116553287982	82	127
288.6812925170068	290.15578231292517	81	127
290.16739229024944	290.29510204081635	72	127
290.29510204081635	290.457641723356	77	127
290.5040816326531	290.5853514739229	77	127
290.63179138321993	290.7827210884354	77	127
290.8175510204082	290.94526077097504	77	127
290.94526077097504	291.0265306122449	76	127
291.07297052154195	291.1542403628118	76	127
291.20068027210885	291.2819501133787	76	127
291.3167800453515	291.4444671201814	75	127
291.4444671201814	291.560589569161	76	127
291.60702947845806	291.66507936507935	76	127
291.7115192743764	291.79278911564626	76	127
291.82761904761907	291.955306122449	75	127
291.955306122449	292.0482086167801	76	127
292.0946485260771	292.1759183673469	76	127
292.222358276644	292.30362811791383	76	127
292.33845804988664	292.46614512471655	77	127
292.46614512471655	292.5474376417234	74	127
292.5938775510204	292.6751247165533	74	127
292.7680045351474	292.8492970521542	74	127
292.89573696145123	293.0118367346939	74	127
293.0118367346939	293.1279365079365	72	127
293.1627664399093	293.24403628117915	72	127
293.29047619047617	293.37174603174606	72	127
293.4181859410431	293.5342857142857	71	127
293.5342857142857	293.6387755102041	72	127
293.6736054421769	293.7548752834467	72	127
293.80131519274374	293.88258503401363	72	127
293.92902494331065	294.0451247165533	71	127
294.0451247165533	294.1728344671202	72	127
294.207641723356	294.27732426303857	72	127
294.3121541950113	294.38181405895693	72	127
294.42825396825396	294.55596371882086	73	127
294.55596371882086	294.6720634920635	74	127
294.7068934240363	294.78816326530614	74	127
294.83460317460316	294.91585034013605	74	127
294.96231292517007	295.090022675737	75	127
295.090022675737	295.1712925170068	76	127
295.2061224489796	295.2990022675737	76	127
295.3338095238095	295.41510204081635	76	127
295.46154195011337	295.5892517006803	73	127
295.5892517006803	295.6705215419501	74	127
295.7169614512472	295.8098412698413	74	127
295.8446485260771	295.9375283446712	74	127
295.9839909297052	296.1117006802721	75	127
296.1117006802721	296.19297052154195	76	127
296.22780045351476	296.33229024943313	76	127
296.37873015873015	296.46	76	127
296.5296598639456	296.6689795918367	76	127
296.6689795918367	296.7502494331066	77	127
296.7966893424036	296.86632653061224	77	127
296.901179138322	296.9940589569161	77	127
297.0288888888889	297.14498866213154	78	127
297.14498866213154	297.22625850340137	79	127
297.27267573696145	297.36557823129255	79	127
297.4004081632653	297.4932879818594	79	127
297.5281179138322	297.6674376417234	78	127
297.6674376417234	297.77192743764175	79	127
297.81836734693877	297.8880045351474	79	127
297.92285714285714	298.01573696145124	79	127
298.05056689342405	298.17827664399096	78	127
298.17827664399096	298.2827664399093	79	127
298.32920634920634	298.4104761904762	79	127
298.4685260770975	298.5614058956916	79	127
298.59621315192743	298.7239455782313	79	127
298.7239455782313	298.82843537414965	80	127
298.8748752834467	298.9677551020408	80	127
299.0141723356009	299.107052154195	80	127
299.14190476190475	299.26961451247166	80	127
299.26961451247166	299.3508843537415	81	127
299.39732426303857	299.4785941043084	81	127
299.5250113378685	299.6178911564626	81	127
299.6527437641723	299.7456235827664	81	127
299.78045351473924	299.86172335600907	81	127
299.90816326530614	299.989433106576	81	127
300.03585034013605	300.1171428571429	81	127
300.15197278911563	300.24485260770973	81	127
300.27968253968254	300.36095238095237	81	127
300.40739229024945	300.4886621315193	81	127
300.53510204081635	300.65120181405894	79	127
300.697641723356	300.81374149659865	79	127
300.81374149659865	300.90662131519275	77	127
300.94145124716556	301.03433106575966	77	127
301.09238095238095	301.1736507936508	76	127
301.22009070294786	301.3361904761905	73	127
301.3361904761905	301.4290702947846	74	127
301.4638775510204	301.54517006802723	82	127
301.59160997732425	301.6728798185941	82	127
301.71931972789116	301.800589569161	82	127
301.8354195011338	301.9282993197279	82	127
301.9631292517007	302.04439909297054	82	127
302.09083900226756	302.1953287981859	82	127
302.241768707483	302.32303854875283	82	127
302.3694784580499	302.45074829931974	82	127
302.48555555555555	302.5668480725624	82	127
302.6132879818594	302.7061678004535	81	127
302.7526077097506	302.8803174603175	81	127
302.8803174603175	303.0196371882086	79	127
303.0544671201814	303.1473469387755	79	127
303.1821768707483	303.26344671201815	77	127
303.3098866213152	303.4375963718821	77	127
303.4375963718821	303.5188662131519	76	127
303.5536961451247	303.6465759637188	77	127
303.6814058956916	303.76267573696146	79	127
303.80909297052153	303.89038548752836	81	127
303.9368253968254	304.01807256235827	82	127
304.052925170068	304.1458049886621	84	127
304.20385487528347	304.2851247165533	86	127
304.3315646258503	304.4128344671202	88	127
304.4592743764172	304.54054421768706	89	127
304.58698412698413	304.67986394557823	91	127
304.71469387755104	304.80757369614514	93	127
304.8424036281179	304.9701133786848	94	127
304.9701133786848	305.05138321995463	95	127
305.0978231292517	305.17909297052154	96	127
305.21392290249435	305.30680272108845	96	127
305.34160997732425	305.4229024943311	96	127
305.4693424036281	305.58544217687074	96	127
305.6318820861678	305.71315192743765	96	127
305.74798185941046	305.84086167800456	96	127
305.8756916099773	305.9569387755102	96	127
306.0034013605442	306.08467120181405	96	127
306.1311111111111	306.21238095238095	96	127
306.25882086167803	306.35170068027213	96	127
306.3865306122449	307.2804988662132	89	127
307.29208616780045	307.4198185941043	72	127
307.4198185941043	307.5939455782313	77	127
307.6404081632653	307.72167800453514	77	127
307.7681179138322	307.84938775510204	77	127
307.88421768707485	308.0119274376417	77	127
308.0119274376417	308.16285714285715	76	127
308.2092743764172	308.29056689342406	76	127
308.3370068027211	308.41825396825396	76	127
308.4531065759637	308.5808163265306	75	127
308.5808163265306	308.66208616780045	76	127
308.70852607709753	308.75496598639455	76	127
308.78979591836736	308.8710657596372	76	127
308.91750566893427	309.0335827664399	75	127
309.0335827664399	309.11487528344674	76	127
309.16131519274376	309.2309523809524	76	127
309.2774149659864	309.3586848072562	76	127
309.4051247165533	309.52122448979594	77	127
309.52122448979594	309.69537414965987	74	127
309.7302040816327	309.8114739229025	74	127
309.88113378684807	309.9624036281179	74	127
310.008843537415	310.1249433106576	74	127
310.1249433106576	310.2178231292517	72	127
310.2526303854875	310.33392290249435	72	127
310.3803628117914	310.47324263038547	72	127
310.51968253968255	310.6589795918367	71	127
310.6589795918367	310.74027210884356	72	127
310.7751020408163	310.8563718820862	72	127
310.9028117913832	310.9956916099773	72	127
311.0421315192744	311.1698185941043	71	127
311.1698185941043	311.25111111111113	72	127
311.2859410430839	311.37879818594104	72	127
311.4136507936508	311.4949206349206	72	127
311.5413605442177	311.6690702947846	73	127
311.6690702947846	311.75034013605443	74	127
311.8083900226757	311.92448979591836	74	127
311.95931972789117	312.040589569161	74	127
312.0870294784581	312.2263492063492	75	127
312.2263492063492	312.307619047619	76	127
312.34244897959184	312.43532879818594	76	127
312.47015873015874	312.5514285714286	76	127
312.59786848072565	312.7255782312925	73	127
312.7255782312925	312.8068253968254	74	127
312.8532879818594	312.93455782312924	74	127
312.96938775510205	313.06226757369615	74	127
313.1087074829932	313.2364172335601	75	127
313.2364172335601	313.31766439909296	76	127
313.364126984127	313.43378684807254	76	127
313.46861678004535	313.56149659863945	76	127
313.59632653061226	313.72401360544217	76	127
313.72401360544217	313.84013605442175	77	127
313.8981859410431	313.96784580498866	77	127
314.00267573696146	314.1652154195011	77	127
314.20004535147393	314.32775510204084	78	127
314.32775510204084	314.40902494331067	79	127
314.4554648526077	314.5251247165533	79	127
314.5831746031746	314.6760544217687	79	127
314.7108843537415	314.8501814058957	78	127
314.8501814058957	314.9314739229025	79	127
314.97791383219953	315.0591609977324	79	127
315.10562358276644	315.2101133786848	79	127
315.2449433106576	315.37265306122447	78	127
315.37265306122447	315.45392290249436	79	127
315.5003628117914	315.5816326530612	79	127
315.6280725623583	315.7093424036281	79	127
315.7441723356009	315.87185941043083	79	127
315.87185941043083	315.95315192743766	80	127
316.0228117913832	316.1156916099773	80	127
316.1621315192744	316.2898185941043	80	127
316.32467120181406	316.46399092970523	80	127
316.46399092970523	316.54526077097506	81	127
316.59167800453514	316.67297052154197	81	127
316.719410430839	316.8006575963719	81	127
316.8471201814059	316.9283900226757	81	127
316.95160997732427	317.0328798185941	81	127
317.0793197278912	317.160589569161	81	127
317.2070068027211	317.2999092970522	81	127
317.3463492063492	317.42761904761903	81	127
317.46244897959184	317.55532879818594	81	127
317.59015873015875	317.6714285714286	81	127
317.71784580498866	317.7991383219955	79	127
317.8455782312925	317.96167800453514	79	127
317.96167800453514	318.05455782312924	77	127
318.08938775510205	318.1706575963719	77	127
318.21709750566896	318.3564172335601	76	127
318.40285714285716	318.53054421768707	73	127
318.53054421768707	318.6118367346939	74	127
318.64666666666665	318.72793650793653	82	127
318.77437641723355	318.8788662131519	82	127
318.925306122449	318.9833560090703	82	127
318.9833560090703	319.0646258503401	82	127
319.09945578231293	319.19233560090703	82	127
319.22716553287984	319.35485260770974	82	127
319.40131519274377	319.4825850340136	82	127
319.5174149659864	319.59868480725623	82	127
319.63351473922904	319.72639455782314	82	127
319.76120181405895	319.8889342403628	81	127
319.9353741496599	320.0630612244898	81	127
320.0630612244898	320.1443537414966	79	127
320.17918367346937	320.2720408163265	79	127
320.3068934240363	320.3881632653061	77	127
320.4346031746032	320.5623129251701	77	127
320.5623129251701	320.6551927437642	76	127
320.7016326530612	320.7828798185941	77	127
320.81773242630385	320.8990022675737	79	127
320.94544217687076	321.0267120181406	81	127
321.07315192743766	321.1544217687075	82	127
321.2008616780045	321.2821315192744	84	127
321.31696145124715	321.4214512471655	86	127
321.45628117913833	321.53755102040816	88	127
321.6071882086168	321.6884807256236	89	127
321.7349206349206	321.80455782312924	91	127
321.839410430839	321.9322902494331	93	127
321.9671201814059	322.0948299319728	94	127
322.0948299319728	322.1877097505669	95	127
322.23414965986393	322.3153968253968	96	127
322.36185941043084	322.44312925170067	96	127
322.4779591836735	322.5592290249433	96	127
322.6056689342404	322.6869387755102	96	127
322.7449886621315	322.8262358276644	96	127
322.8726984126984	322.98879818594105	96	127
323.02362811791386	323.11650793650796	96	127
323.1513378684807	323.2325850340136	96	127
323.2790476190476	323.36031746031745	96	127
323.4067573696145	323.61573696145126	96	127
323.65054421768707	324.44004535147394	89	127
324.44004535147394	324.56773242630385	80	127
324.56773242630385	324.6490249433107	81	127
324.6954648526077	324.7767120181406	81	127
324.9160544217687	325.0089342403628	81	127
325.0553741496599	325.1714739229025	78	127
325.1714739229025	325.25274376417235	79	127
325.2991836734694	325.38043083900226	79	127
325.4268934240363	325.5081632653061	79	127
325.5546031746032	325.6707029478458	83	127
325.6707029478458	325.7635827664399	84	127
325.79839002267573	325.89126984126983	84	127
325.93773242630385	326.0538321995465	84	127
326.10024943310657	326.21637188208615	80	127
326.21637188208615	326.3092290249433	81	127
326.34408163265306	326.4253514739229	81	127
326.47179138321997	326.5530612244898	81	127
326.5995011337869	326.7272108843537	76	127
326.7272108843537	326.84331065759636	77	127
326.87814058956917	326.959410430839	77	127
327.0058503401361	327.0871201814059	77	127
327.13356009070293	327.26126984126984	78	127
327.26126984126984	327.34253968253967	79	127
327.3773696145125	327.4702494331066	79	127
327.5050793650794	327.5863492063492	79	127
327.6443990929705	327.7721088435374	83	127
327.7721088435374	327.85337868480724	84	127
327.88820861678005	327.98108843537415	84	127
328.01591836734696	328.0971882086168	84	127
328.14360544217686	328.2713378684807	80	127
328.2713378684807	328.3525850340136	81	127
328.38743764172335	328.4687074829932	81	127
328.503537414966	328.5848072562358	81	127
328.6312471655329	328.7589342403628	88	127
328.7589342403628	328.8750566893424	89	127
328.92149659863946	329.0027664399093	89	127
329.0375963718821	329.1304761904762	89	127
329.1769160997732	329.3162358276644	82	127
329.3162358276644	329.39750566893423	83	127
329.4439455782313	329.52521541950114	91	127
329.56004535147395	329.69936507936507	91	127
329.7341950113379	329.8619047619048	91	127
329.8619047619048	329.9431746031746	79	127
329.9895918367347	330.0708843537415	91	127
330.10571428571427	330.19859410430837	91	127
330.2334240362812	330.3495238095238	91	127
330.3495238095238	330.43079365079365	79	127
330.4772335600907	330.5468934240363	91	127
330.5817233560091	330.6629931972789	91	127
330.69780045351473	330.8255328798186	89	127
330.8255328798186	330.9184126984127	77	127
330.96485260770976	331.0461224489796	89	127
331.09256235827667	331.18544217687077	89	127
331.2202721088435	331.3479818594104	88	127
331.3479818594104	331.4408616780045	76	127
331.4873015873016	331.55696145124716	88	127
331.60340136054424	331.7194784580499	88	127
331.75433106575963	331.88204081632654	86	127
331.88204081632654	332.00975056689344	74	127
332.05619047619047	332.13743764172335	86	127
332.1839002267574	332.2651700680272	86	127
332.3	332.4277097505669	84	127
332.4277097505669	332.50897959183675	72	127
332.55541950113377	332.63668934240366	84	127
332.6831292517007	332.7643990929705	84	127
332.8108390022676	332.9037188208617	86	127
332.9037188208617	332.9849886621315	74	127
333.0314285714286	333.10108843537415	86	127
333.14752834467123	333.24040816326533	86	127
333.28684807256235	333.402947845805	88	127
333.402947845805	333.50743764172336	76	127
333.54226757369617	333.63514739229026	88	127
333.6815873015873	333.8092970521542	88	127
333.85573696145127	333.9718140589569	88	127
333.9718140589569	334.064716553288	76	127
334.09954648526076	334.18079365079365	88	127
334.23886621315194	334.3433560090703	88	127
334.3897959183673	334.4826530612245	89	127
334.5291156462585	334.6219954648526	77	127
334.6684353741497	334.7497052154195	83	127
334.7961224489796	334.8774149659864	86	127
334.92385487528344	335.00512471655327	89	127
335.05156462585035	335.1328344671202	86	127
335.2024716553288	335.3766439909297	89	127
335.4114739229025	335.49274376417236	86	127
335.5391836734694	335.6668934240363	83	127
335.6668934240363	335.7481632653061	84	127
335.7829931972789	335.875873015873	84	127
335.91068027210883	335.99197278911566	84	127
336.0384126984127	336.1661224489796	78	127
336.1661224489796	336.2473922902494	79	127
336.28222222222223	336.37510204081633	79	127
336.40993197278914	336.49120181405897	79	127
336.537641723356	336.67696145124717	80	127
336.67696145124717	336.758231292517	81	127
336.8046712018141	336.8859410430839	81	127
336.9207709750567	337.00204081632654	81	127
337.04848072562356	337.18780045351474	82	127
337.18780045351474	337.26907029478457	83	127
337.31551020408165	337.3967800453515	83	127
337.4316099773243	337.5244897959184	83	127
337.55931972789114	337.68702947845804	83	127
337.68702947845804	337.8031292517007	84	127
337.84956916099776	337.9308390022676	84	127
337.9656462585034	338.0585260770975	84	127
338.09337868480725	338.22108843537416	85	127
338.22108843537416	338.3371882086168	86	127
338.3836281179138	338.4648752834467	86	127
338.5113378684807	338.59260770975055	86	127
338.62743764172336	338.75514739229027	87	127
338.75514739229027	338.84802721088437	88	127
338.8944671201814	338.9757369614513	88	127
339.0221768707483	339.13827664399093	88	127
339.17310657596374	339.31242630385486	89	127
339.31242630385486	339.40530612244896	77	127
339.45174603174604	339.53301587301587	89	127
339.57945578231295	339.6607256235828	86	127
339.6955328798186	339.82326530612244	83	127
339.82326530612244	339.9393650793651	84	127
339.98580498866215	340.07868480725625	84	127
340.1251247165533	340.2412244897959	84	127
340.2760544217687	340.4037641723356	78	127
340.4037641723356	340.48503401360546	79	127
340.54308390022675	340.62433106575963	79	127
340.67079365079366	340.7520634920635	79	127
340.79850340136056	340.9146031746032	80	127
340.9146031746032	340.99587301587303	81	127
341.04231292517005	341.12356009070294	81	127
341.17002267573696	341.2745124716553	81	127
341.3209523809524	341.43702947845804	83	127
341.43702947845804	341.52993197278914	83	127
341.5647619047619	341.6460090702948	83	127
341.6924716553288	341.7853514739229	83	127
341.83179138322	341.9478684807256	83	127
341.9478684807256	342.052358276644	84	127
342.08721088435374	342.16848072562357	84	127
342.21492063492065	342.2961904761905	84	127
342.34263038548755	342.4703401360544	85	127
342.4703401360544	342.5980498866213	86	127
342.6328798185941	342.71414965986395	86	127
342.7954195011338	342.8766893424036	86	127
342.9231292517007	343.0508390022676	87	127
343.0508390022676	343.1321088435374	88	127
343.16693877551023	343.25981859410433	88	127
343.3294784580499	343.4107482993197	88	127
343.4571882086168	343.5848752834467	89	127
343.5848752834467	343.66616780045354	77	127
343.7009977324263	343.79385487528344	89	127
343.8287074829932	343.9215873015873	86	127
343.9680272108844	344.0492970521542	83	127
344.0957142857143	344.1770068027211	84	127
344.21183673469386	344.304693877551	84	127
344.33954648526077	344.44403628117914	84	127
344.4904761904762	344.5485260770975	89	127
344.5949659863946	344.6878458049887	77	127
344.7342857142857	344.8155328798186	89	127
344.85038548752834	344.94326530612244	86	127
345.0013151927438	345.0825850340136	83	127
345.12902494331064	345.2102947845805	84	127
345.25673469387755	345.3380045351474	84	127
345.3728344671202	345.5469841269841	84	127
345.5818140589569	345.628231292517	89	127
345.66308390022675	345.75596371882085	77	127
345.80240362811793	345.88367346938776	89	127
345.91850340136057	346.0578231292517	86	127
346.0926530612245	346.1739229024943	83	127
346.2203628117914	346.30163265306123	84	127
346.3480498866213	346.42934240362814	86	127
346.47578231292516	346.557052154195	84	127
346.5918820861678	346.6847619047619	81	127
346.731201814059	346.8588888888889	82	127
346.9053514739229	346.98662131519274	84	127
347.0330612244898	347.11433106575964	82	127
347.1607482993197	347.2536507936508	80	127
347.2884807256236	347.38136054421767	81	127
347.4161904761905	347.4974603174603	82	127
347.57873015873014	347.66	81	127
347.6948299319728	347.7877097505669	78	127
347.8225396825397	347.9038095238095	79	127
347.9502494331066	348.1360090702948	76	127
348.18242630385487	348.2637188208617	77	127
348.29854875283445	348.47269841269843	77	127
348.47269841269843	348.6004081632653	76	127
348.64684807256236	348.7281179138322	76	127
348.77455782312927	348.8558276643991	76	127
348.9022448979592	349.01836734693876	75	127
349.01836734693876	349.11124716553286	76	127
349.15768707482994	349.23895691609977	76	127
349.28539682539684	349.3666666666667	76	127
349.41308390022675	349.52920634920633	75	127
349.52920634920633	349.62208616780043	76	127
349.73818594104307	349.81943310657596	76	127
349.86589569161	349.9471655328798	76	127
349.9936054421769	350.1097052154195	77	127
350.1097052154195	350.22578231292516	74	127
350.2606349206349	350.34190476190474	74	127
350.3883446712018	350.46961451247165	74	127
350.51605442176873	350.64374149659864	74	127
350.64374149659864	350.74825396825395	72	127
350.78308390022676	350.8643537414966	72	127
350.91079365079366	350.9920634920635	72	127
351.0385034013606	351.1662131519274	71	127
351.1662131519274	351.2590929705215	72	127
351.29392290249433	351.38680272108843	72	127
351.42163265306124	351.50290249433107	72	127
351.54934240362815	351.677052154195	71	127
351.677052154195	351.7582993197279	72	127
351.79315192743763	351.88603174603173	72	127
351.92086167800454	352.00213151927437	72	127
352.04857142857145	352.17625850340136	73	127
352.17625850340136	352.3156009070295	74	127
352.3504308390023	352.45492063492065	74	127
352.4897505668934	352.6290702947846	74	127
352.67551020408166	352.8032199546485	75	127
352.8032199546485	352.8844671201814	76	127
352.9309297052154	352.98895691609977	76	127
353.0238095238095	353.10507936507935	76	127
353.1515192743764	353.27922902494333	73	127
353.27922902494333	353.36049886621316	74	127
353.441768707483	353.5230385487528	74	127
353.58108843537417	353.67396825396827	74	127
353.7087755102041	353.8365079365079	75	127
353.8365079365079	353.929387755102	76	127
353.9758276643991	354.0338775510204	76	127
354.0687074829932	354.1615873015873	76	127
354.1964172335601	354.32410430839	76	127
354.32410430839	354.40539682539685	77	127
354.46344671201814	354.54471655328797	77	127
354.59115646258505	354.7304535147392	77	127
354.765306122449	354.8930158730159	78	127
354.8930158730159	354.98589569161	79	127
355.03231292517006	355.1136054421769	79	127
355.1600453514739	355.252925170068	79	127
355.2877551020408	355.4154648526077	78	127
355.4154648526077	355.49673469387756	79	127
355.54315192743763	355.62444444444446	79	127
355.6708843537415	355.81020408163266	79	127
355.84503401360547	355.99596371882086	78	127
355.99596371882086	356.0772335600907	79	127
356.12367346938777	356.21655328798187	79	127
356.26297052154194	356.35587301587304	79	127
356.3907029478458	356.530022675737	79	127
356.530022675737	356.6112925170068	80	127
356.6577324263039	356.750612244898	80	127
356.85510204081635	356.9363718820862	80	127
356.9828117913832	357.1221315192744	80	127
357.1221315192744	357.2034013605442	81	127
357.2498412698413	357.3311111111111	81	127
357.3775510204082	357.458820861678	81	127
357.50526077097504	357.5865079365079	81	127
357.6097505668934	357.7026303854875	81	127
357.72585034013605	357.8071201814059	81	127
357.8419501133787	357.94643990929706	81	127
357.99285714285713	358.07414965986396	81	127
358.1089795918367	358.17863945578233	81	127
358.2134693877551	358.29473922902497	81	127
358.341179138322	358.5036961451247	79	127
358.5501587301587	358.66625850340137	79	127
358.66625850340137	358.7939682539683	77	127
358.828798185941	358.9100680272109	77	127
358.95650793650793	359.04938775510203	76	127
359.0958276643991	359.223514739229	76	127
359.223514739229	359.30480725623585	74	127
359.3396371882086	359.43249433106575	82	127
359.4673469387755	359.5602267573696	82	127
359.6066666666667	359.6879365079365	82	127
359.7343537414966	359.8156462585034	82	127
359.8504761904762	359.9433333333333	82	127
359.9781859410431	360.0710657596372	82	127
360.1291156462585	360.21038548752836	82	127
360.2568253968254	360.34968253968253	82	127
360.3845351473923	360.48902494331065	82	127
360.52385487528346	360.62834467120183	81	127
360.67478458049885	360.80249433106576	81	127
360.80249433106576	360.8837641723356	79	127
360.93020408163267	361.0114739229025	79	127
361.0463038548753	361.12757369614513	77	127
361.1739909297052	361.30172335600906	77	127
361.30172335600906	361.3829931972789	76	127
361.42943310657597	361.5107029478458	77	127
361.5455328798186	361.650022675737	79	127
361.6848299319728	361.7661224489796	81	127
361.81256235827664	361.90544217687074	82	127
361.9518820861678	362.03315192743764	84	127
362.06798185941045	362.1840589569161	86	127
362.21891156462584	362.30018140589567	88	127
362.34662131519275	362.4278911564626	89	127
362.47433106575966	362.5556009070295	91	127
362.5904308390023	362.7413605442177	93	127
362.7761904761905	362.8574603174603	94	127
362.9038775510204	362.98517006802723	96	127
363.03160997732425	363.11285714285714	98	127
363.15931972789116	363.2754195011338	100	127
363.3102267573696	363.4031292517007	100	127
363.43795918367346	363.53083900226756	100	127
363.57727891156463	363.681768707483	100	127
363.7281859410431	363.84430839002266	100	127
363.87913832199547	363.97201814058957	100	127
364.0068480725624	364.0881179138322	100	127
364.15777777777777	364.23902494331065	100	127
364.2854875283447	364.48285714285714	100	127
364.51768707482995	365.29555555555555	101	127
365.3071655328798	365.6206349206349	80	127
365.6206349206349	365.70190476190476	81	127
365.74834467120183	365.82961451247166	81	127
365.87603174603174	365.98054421768705	81	127
366.02698412698413	366.14308390022677	78	127
366.14308390022677	366.2707936507937	79	127
366.30562358276643	366.3868707482993	79	127
366.43333333333334	366.5378231292517	79	127
366.5842403628118	366.70036281179136	83	127
366.70036281179136	366.80485260770973	84	127
366.83968253968254	366.9209523809524	84	127
366.990589569161	367.0718820861678	84	127
367.11832199546484	367.2344217687075	80	127
367.2344217687075	367.3621315192744	81	127
367.3969614512472	367.478231292517	81	127
367.52467120181404	367.60591836734693	81	127
367.65238095238095	367.78009070294786	76	127
367.78009070294786	367.8613605442177	77	127
367.8961904761905	367.9890702947846	77	127
368.0238775510204	368.10517006802723	77	127
368.15160997732426	368.29092970521543	78	127
368.29092970521543	368.37219954648526	79	127
368.40702947845807	368.49990929705217	79	127
368.534716553288	368.6160090702948	79	127
368.66244897959183	368.79015873015874	83	127
368.79015873015874	368.88303854875284	84	127
368.91786848072564	369.01074829931974	84	127
369.04555555555555	369.16167800453513	84	127
369.2081179138322	369.3474149659864	80	127
369.3474149659864	369.4403174603175	81	127
369.4867573696145	369.56802721088434	81	127
369.60285714285715	369.684126984127	81	127
369.73056689342405	369.8466666666667	88	127
369.8466666666667	369.96274376417233	89	127
370.00920634920635	370.0904761904762	89	127
370.125306122449	370.22979591836736	89	127
370.26460317460317	370.41555555555556	82	127
370.41555555555556	370.4968253968254	83	127
370.54326530612246	370.6245351473923	91	127
370.6593650793651	370.7522448979592	91	127
370.77544217687074	370.9031746031746	91	127
370.9031746031746	371.00766439909296	79	127
371.05410430839004	371.13537414965987	91	127
371.1702040816327	371.2630839002268	91	127
371.32113378684807	371.4836734693878	91	127
371.4836734693878	371.5649433106576	79	127
371.61138321995463	371.6926303854875	91	127
371.73909297052154	371.82036281179137	91	127
371.8551927437642	371.9829024943311	89	127
371.9829024943311	372.0641723356009	77	127
372.110589569161	372.18027210884355	89	127
372.2267120181406	372.30795918367346	89	127
372.3428117913832	372.4705215419501	88	127
372.4705215419501	372.6098412698413	76	127
372.62142857142857	372.67950113378686	88	127
372.72591836734694	372.8768707482993	88	127
372.91170068027213	373.039410430839	86	127
373.039410430839	373.13226757369614	74	127
373.17873015873016	373.26	86	127
373.30643990929707	373.3877097505669	86	127
373.4457596371882	373.5618594104308	84	127
373.5618594104308	373.6431065759637	72	127
373.701179138322	373.7940589569161	84	127
373.8404761904762	373.9333786848073	84	127
373.9798185941043	374.1075283446712	86	127
374.1075283446712	374.22362811791385	74	127
374.25843537414966	374.3397278911565	86	127
374.3861678004535	374.46743764172334	86	127
374.5138775510204	374.6183673469388	88	127
374.6183673469388	374.7112471655329	76	127
374.7460770975057	374.8273469387755	88	127
374.8737641723356	374.9666439909297	88	127
375.0131065759637	375.12920634920636	88	127
375.12920634920636	375.22208616780046	76	127
375.25691609977326	375.3381859410431	88	127
375.38460317460317	375.47748299319727	88	127
375.5239455782313	375.6052154195011	89	127
375.66326530612247	375.75614512471657	77	127
375.7909523809524	375.8722448979592	83	127
375.9186848072562	376.0115646258503	86	127
376.0580045351474	376.12766439909296	89	127
376.17410430839004	376.2785941043084	86	127
376.34825396825397	376.44113378684807	89	127
376.4759637188209	376.5572335600907	86	127
376.6036507936508	376.73138321995464	83	127
376.73138321995464	376.8126303854875	84	127
376.8474829931973	376.9635827664399	84	127
376.9984126984127	377.20739229024946	84	127
377.2538321995465	377.4163718820862	78	127
377.4163718820862	377.497641723356	79	127
377.54408163265305	377.62532879818593	79	127
377.6601814058957	377.7414512471655	79	127
377.7878911564626	377.9156009070295	80	127
377.9156009070295	377.99687074829933	81	127
378.0432879818594	378.12458049886624	81	127
378.159410430839	378.2522902494331	81	127
378.2871201814059	378.4728798185941	82	127
378.4728798185941	378.554126984127	83	127
378.600589569161	378.68185941043083	83	127
378.71668934240364	378.80956916099774	83	127
378.84439909297055	378.9721088435374	83	127
378.9721088435374	379.08820861678004	84	127
379.1346485260771	379.21591836734694	84	127
379.25074829931975	379.34362811791385	84	127
379.3784580498866	379.5061678004535	85	127
379.5061678004535	379.62226757369615	86	127
379.6686848072562	379.74997732426306	86	127
379.7964172335601	379.924126984127	86	127
379.9589569160998	380.0866439909297	87	127
380.0866439909297	380.16793650793653	88	127
380.21437641723355	380.2956462585034	88	127
380.34208616780046	380.44657596371883	88	127
380.48140589569164	380.6091156462585	89	127
380.6091156462585	380.6903854875283	77	127
380.76004535147393	380.84131519274376	89	127
380.88775510204084	380.96902494331067	86	127
381.0038548752834	381.1431746031746	83	127
381.1431746031746	381.22444444444443	84	127
381.30571428571426	381.3985941043084	84	127
381.514693877551	381.5959637188209	84	127
381.6424036281179	381.75850340136054	78	127
381.75850340136054	381.8397732426304	79	127
381.88621315192745	381.9674829931973	79	127
382.01392290249436	382.0951927437642	79	127
382.1416326530612	382.25773242630385	80	127
382.25773242630385	382.35061224489795	81	127
382.38544217687075	382.4667120181406	81	127
382.51315192743766	382.60603174603176	81	127
382.6524716553288	382.7685714285714	83	127
382.7685714285714	382.8614512471655	83	127
382.8962811791383	382.97755102040816	83	127
383.02399092970523	383.1400907029479	83	127
383.1865306122449	383.30263038548753	83	127
383.30263038548753	383.39551020408163	84	127
383.43034013605444	383.51160997732427	84	127
383.56965986394556	383.69736961451247	84	127
383.74380952380955	383.8715192743764	85	127
383.8715192743764	383.9527891156463	86	127
383.98761904761903	384.06888888888886	86	127
384.11532879818594	384.1965986394558	86	127
384.24303854875285	384.3707482993197	87	127
384.3707482993197	384.46362811791386	88	127
384.4984580498866	384.5913378684807	88	127
384.6261678004535	384.70743764172335	88	127
384.7654875283447	384.89319727891154	89	127
384.89319727891154	384.98607709750564	77	127
385.02090702947845	385.11378684807255	89	127
385.14861678004536	385.28793650793654	86	127
385.33437641723356	385.4156462585034	83	127
385.46208616780046	385.5433560090703	84	127
385.5897959183674	385.6710657596372	84	127
385.70589569160995	385.78716553287984	84	127
385.84521541950113	385.92648526077096	89	127
385.97292517006804	386.05419501133787	77	127
386.11224489795916	386.19351473922904	89	127
386.23995464852607	386.33283446712016	86	127
386.367664399093	386.4489342403628	83	127
386.4953741496599	386.588253968254	84	127
386.634693877551	386.7275736961451	84	127
386.7624036281179	386.8668934240363	84	127
386.91333333333336	386.9946031746032	89	127
387.0410430839002	387.1339229024943	77	127
387.1803628117914	387.2616326530612	89	127
387.3080725623583	387.4009523809524	86	127
387.4357823129252	387.517052154195	83	127
387.56349206349205	387.65637188208615	84	127
387.7028117913832	387.78408163265306	86	127
387.83052154195013	387.9001814058957	84	127
387.9350113378685	388.01628117913833	81	127
388.06272108843535	388.15560090702945	82	127
388.20204081632653	388.29492063492063	84	127
388.3413605442177	388.4458503401361	82	127
388.4806802721088	388.5735600907029	80	127
388.60839002267574	388.70126984126983	81	127
388.7477097505669	388.82897959183674	82	127
388.87541950113376	388.95668934240365	81	127
388.9915192743764	389.14244897959185	78	127
389.1772789115646	389.2585487528345	79	127
389.3514285714286	389.4443083900227	76	127
389.4907482993197	389.5836281179138	77	127
389.6300680272109	389.76938775510206	77	127
389.76938775510206	389.98997732426307	76	127
390.0364172335601	390.1176870748299	76	127
390.164126984127	390.2453968253968	76	127
390.2918367346939	390.41954648526075	75	127
390.41954648526075	390.6169160997732	76	127
390.65174603174603	390.73301587301586	76	127
390.77945578231294	390.86072562358277	76	127
390.90716553287984	391.0232653061224	75	127
391.0232653061224	391.1277551020408	76	127
391.1625850340136	391.24385487528343	76	127
391.2902947845805	391.37156462585034	76	127
391.4180045351474	391.53410430839	77	127
391.53410430839	391.6966439909297	74	127
391.73147392290247	391.81274376417235	74	127
391.8591836734694	391.9520634920635	74	127
391.99850340136055	392.12621315192746	74	127
392.12621315192746	392.2074829931973	72	127
392.24231292517004	392.3235827664399	72	127
392.37002267573695	392.4512925170068	72	127
392.49773242630386	392.62544217687076	71	127
392.62544217687076	392.71832199546486	72	127
392.7531519274376	392.84603174603177	72	127
392.8808616780045	392.96213151927435	72	127
393.00857142857143	393.13628117913834	71	127
393.13628117913834	393.2872108843537	72	127
393.32204081632653	393.41492063492063	72	127
393.44975056689344	393.5310204081633	72	127
393.5774603174603	393.7051700680272	73	127
393.7051700680272	393.78643990929703	74	127
393.8444897959184	393.9257596371882	74	127
393.960589569161	394.04185941043085	74	127
394.08829931972787	394.2160090702948	75	127
394.2160090702948	394.3437188208617	76	127
394.3901587301587	394.4714285714286	76	127
394.50625850340134	394.59913832199544	76	127
394.63396825396825	394.76167800453516	73	127
394.76167800453516	394.842947845805	74	127
394.88938775510206	394.9706575963719	74	127
395.00548752834464	395.109977324263	74	127
395.1448072562358	395.27251700680273	75	127
395.27251700680273	395.35378684807256	76	127
395.41183673469385	395.49310657596374	76	127
395.5279365079365	395.6208163265306	76	127
395.6556462585034	395.7833560090703	76	127
395.7833560090703	395.89945578231294	77	127
395.94589569160996	396.0271655328798	77	127
396.07360544217687	396.17809523809524	77	127
396.21292517006805	396.3406349206349	78	127
396.3406349206349	396.433514739229	79	127
396.4799546485261	396.5612244897959	79	127
396.61927437641725	396.7005442176871	79	127
396.7353741496599	396.86308390022674	78	127
396.86308390022674	396.95596371882084	79	127
397.0024036281179	397.08367346938775	79	127
397.1301133786848	397.2229931972789	79	127
397.2926530612245	397.43197278911566	78	127
397.43197278911566	397.52485260770976	79	127
397.5712925170068	397.65256235827667	79	127
397.6990022675737	397.7802721088435	79	127
397.8267120181406	397.9544217687075	79	127
397.9544217687075	398.0705215419501	80	127
398.11696145124716	398.198231292517	80	127
398.24467120181407	398.33755102040817	80	127
398.3839909297052	398.50009070294783	80	127
398.50009070294783	398.59297052154193	81	127
398.6742403628118	398.75551020408165	81	127
398.80195011337867	398.9180498866213	81	127
398.9644897959184	399.0457596371882	81	127
399.080589569161	399.1734693877551	81	127
399.20829931972787	399.28956916099776	81	127
399.3360090702948	399.4172789115646	81	127
399.4637188208617	399.5449886621315	81	127
399.5798185941043	399.6726984126984	81	127
399.7075283446712	399.78879818594106	81	127
399.8352380952381	399.9165079365079	79	127
399.962947845805	400.0906575963719	79	127
400.0906575963719	400.1719274376417	77	127
400.20675736961454	400.3112471655329	77	127
400.3576870748299	400.43895691609976	76	127
400.4970068027211	400.62471655328795	76	127
400.62471655328795	400.7175963718821	74	127
400.75242630385486	400.84530612244896	82	127
400.88013605442177	400.97301587301587	82	127
401.01945578231295	401.0891156462585	82	127
401.1355555555556	401.2168253968254	82	127
401.25165532879817	401.34453514739226	82	127
401.3793650793651	401.507074829932	82	127
401.56512471655327	401.64639455782316	82	127
401.6928344671202	401.77410430839	82	127
401.8205442176871	401.9018140589569	82	127
401.9366439909297	402.01791383219955	81	127
402.0643537414966	402.1920634920635	81	127
402.1920634920635	402.2849433106576	79	127
402.33138321995466	402.4126530612245	79	127
402.4474829931973	402.5403628117914	77	127
402.57519274376415	402.70290249433106	77	127
402.70290249433106	402.79578231292516	76	127
402.84222222222223	402.92349206349206	77	127
402.95832199546487	403.05120181405897	79	127
403.0860317460317	403.20213151927436	81	127
403.24857142857144	403.32984126984127	82	127
403.3995011337868	403.4807709750567	84	127
403.51560090702947	403.62009070294783	86	127
403.65492063492064	403.7361904761905	88	127
403.79424036281176	403.87551020408165	89	127
403.92195011337867	404.0032199546485	91	127
404.0496598639456	404.1309297052154	93	127
404.1657596371882	404.24702947845805	94	127
404.2934693877551	404.3863492063492	96	127
404.43278911564624	404.5140589569161	98	127
404.56049886621315	404.6765986394558	100	127
404.7114285714286	404.8043083900227	100	127
404.83913832199545	404.9204081632653	100	127
404.96684807256236	405.0481179138322	100	127
405.09455782312926	405.2687074829932	100	127
405.303537414966	405.3964172335601	100	127
405.43124716553285	405.59378684807257	100	127
405.6402267573696	405.7214965986395	100	127
405.7679365079365	406.0814058956916	100	127
406.1278458049887	408.2060317460317	101	127
411.5148752834467	411.85156462585036	73	127
411.87478458049884	412.1998639455782	72	127
412.1998639455782	412.5597732426304	71	127
412.5597732426304	412.8268027210884	72	127
412.8268027210884	413.1867120181406	71	127
413.1867120181406	413.53501133786847	72	127
413.53501133786847	413.8717006802721	71	127
413.8717006802721	414.17356009070295	72	127
414.17356009070295	414.48702947845806	74	127
414.4986394557823	414.81210884353743	76	127
414.81210884353743	415.1371882086168	74	127
415.1371882086168	415.4274376417234	72	127
415.4274376417234	415.7409070294785	74	127
415.7409070294785	416.0659863945578	76	127
416.0659863945578	416.4491156462585	77	127
416.4491156462585	416.7858049886621	79	127
416.7858049886621	417.16893424036283	80	127
417.1805442176871	418.57374149659864	81	127
418.57374149659864	419.3167800453515	82	127
419.3167800453515	420.19913832199546	83	127
420.222358276644	421.0931065759637	84	127
421.104716553288	422.55596371882086	72	127
422.55596371882086	423.33383219954646	68	127
424.22780045351476	425.81836734693877	73	127
425.81836734693877	426.58462585034016	70	127
427.3160544217687	428.40739229024945	76	127
428.4190022675737	428.72086167800455	85	127
428.72086167800455	429.09238095238095	84	127
429.09238095238095	429.4755102040816	76	127
429.4871201814059	431.1589569160998	79	127
431.1589569160998	432.13419501133785	77	127
435.3733786848073	435.6984580498866	73	127
435.71006802721087	436.06997732426305	72	127
436.06997732426305	436.38344671201816	71	127
436.38344671201816	436.70852607709753	72	127
436.70852607709753	437.0452154195011	71	127
437.0452154195011	437.38190476190476	72	127
437.38190476190476	437.69537414965987	71	127
437.69537414965987	437.9391836734694	72	127
437.9391836734694	438.3107029478458	74	127
438.3223129251701	438.70544217687075	76	127
438.70544217687075	439.0305215419501	74	127
439.0305215419501	439.2743310657596	72	127
439.2743310657596	439.61102040816326	74	127
439.61102040816326	439.9477097505669	76	127
439.9477097505669	440.28439909297055	77	127
440.28439909297055	440.60947845804986	79	127
440.60947845804986	441.0506575963719	80	127
441.0738775510204	442.5483446712018	81	127
442.5483446712018	443.349433106576	82	127
443.349433106576	444.2434013605442	83	127
444.2550113378685	445.10253968253966	84	127
445.1257596371882	446.58861678004536	72	127
446.58861678004536	447.3897052154195	68	127
448.28367346938774	449.8858503401361	73	127
449.8858503401361	450.7565986394558	70	127
451.6389569160998	452.67224489795916	76	127
452.68385487528343	453.06698412698415	85	127
453.06698412698415	453.43850340136055	84	127
453.43850340136055	453.856462585034	76	127
453.8680725623583	455.5631292517007	79	127
455.5631292517007	456.42226757369616	77	127
459.0461224489796	459.38281179138323	77	127
459.3944217687075	459.7311111111111	79	127
459.75433106575963	460.10263038548754	80	127
460.1142403628118	460.84566893424034	79	127
461.92539682539683	462.2504761904762	89	127
462.2504761904762	462.61038548752833	86	127
462.61038548752833	462.9354648526077	84	127
462.947074829932	463.3185941043084	83	127
463.3418140589569	463.7133333333333	71	127
463.7133333333333	464.0268027210884	72	127
464.0268027210884	464.3867120181406	71	127
464.3867120181406	464.68857142857144	72	127
464.68857142857144	465.08331065759637	73	127
465.08331065759637	465.46643990929704	74	127
465.46643990929704	465.861179138322	71	127
465.8843990929705	466.2443083900227	67	127
466.2443083900227	466.5809977324263	74	127
466.5809977324263	466.9176870748299	72	127
466.9176870748299	467.26598639455784	65	127
467.26598639455784	467.6142857142857	63	127
467.6142857142857	467.9974149659864	65	127
467.9974149659864	468.287664399093	63	127
468.31088435374147	468.7404535147392	68	127
468.31088435374147	469.4718820861678	60	127
468.7404535147392	469.4718820861678	67	127
469.48349206349206	470.58643990929704	72	127
470.6096598639456	470.9695691609977	72	127
470.9695691609977	471.39913832199545	71	127
471.39913832199545	472.0144671201814	67	127
472.03768707482993	472.43242630385487	67	127
472.4556462585034	472.81555555555553	67	127
472.81555555555553	473.16385487528345	68	127
473.16385487528345	473.51215419501136	67	127
473.51215419501136	473.82562358276647	68	127
473.82562358276647	474.19714285714286	69	127
474.19714285714286	474.56866213151926	70	127
474.56866213151926	474.9401814058957	71	127
474.9517913832199	475.7180498866213	72	127
475.7180498866213	476.87904761904764	84	127
476.8906575963719	477.23895691609977	86	127
477.23895691609977	477.61047619047616	84	127
477.61047619047616	478.00521541950116	83	127
478.0168253968254	478.43478458049884	84	127
478.4580045351474	478.8527437641723	76	127
478.8527437641723	479.20104308390023	77	127
479.20104308390023	479.56095238095236	76	127
479.56095238095236	479.92086167800454	77	127
479.92086167800454	480.3039909297052	75	127
480.3039909297052	480.6522902494331	74	127
480.6522902494331	481.04702947845806	79	127
481.0702494331066	481.45337868480726	75	127
481.45337868480726	481.8481179138322	79	127
481.8481179138322	482.96267573696144	84	127
482.9742857142857	483.36902494331065	86	127
483.36902494331065	483.7637641723356	84	127
483.7637641723356	484.1468934240363	83	127
484.1585034013605	484.5648526077097	84	127
484.5648526077097	484.94798185941045	86	127
484.94798185941045	485.3775510204082	84	127
485.3775510204082	485.76068027210886	83	127
485.7722902494331	486.1554195011338	84	127
486.1554195011338	486.60820861678	86	127
486.60820861678	487.0145578231292	84	127
487.0145578231292	487.39768707482995	83	127
487.4209070294785	488.3497052154195	84	127
488.3497052154195	488.8257142857143	85	127
488.8257142857143	489.22045351473923	84	127
489.22045351473923	489.61519274376417	82	127
489.61519274376417	490.0099319727891	80	127
490.0099319727891	490.47433106575966	79	127
490.47433106575966	490.88068027210886	77	127
490.89229024943313	491.3566893424036	76	127
491.3566893424036	491.7746485260771	77	127
491.7746485260771	492.1345578231292	79	127
492.1345578231292	492.5060770975057	77	127
492.5060770975057	492.88920634920635	76	127
492.88920634920635	493.23750566893426	77	127
493.23750566893426	493.55097505668937	75	127
493.55097505668937	493.92249433106576	73	127
493.93410430839003	494.3172335600907	72	127
494.3172335600907	494.6771428571429	71	127
494.6771428571429	495.037052154195	72	127
495.037052154195	495.37374149659865	71	127
495.37374149659865	495.74526077097505	72	127
495.74526077097505	496.11678004535145	71	127
496.11678004535145	496.46507936507936	72	127
496.46507936507936	496.82498866213155	74	127
496.84820861678	497.2197278911565	76	127
497.2197278911565	497.5796371882086	74	127
497.5796371882086	497.9279365079365	72	127
497.9279365079365	498.2646258503401	74	127
498.2646258503401	498.612925170068	76	127
498.612925170068	498.9960544217687	77	127
498.9960544217687	499.41401360544216	79	127
499.41401360544216	499.8551927437642	80	127
499.86680272108845	501.3412698412698	81	127
501.3412698412698	502.2468480725624	82	127
502.2468480725624	503.245306122449	83	127
503.26852607709753	504.2553741496599	84	127
504.26698412698414	505.79950113378686	72	127
505.79950113378686	506.67024943310656	68	127
507.71514739229025	509.35215419501134	73	127
509.35215419501134	510.176462585034	70	127
511.058820861678	512.161768707483	76	127
512.1849886621316	512.556507936508	85	127
512.556507936508	512.9164172335601	84	127
512.9164172335601	513.3343764172336	76	127
513.3575963718821	515.0758730158731	79	127
515.0758730158731	515.7956916099773	77	127
518.9187755102041	519.2902947845805	77	127
519.3019047619048	519.6734240362812	79	127
519.6850340136054	520.0449433106576	80	127
520.0681632653061	520.7995918367347	79	127
521.9257596371882	522.3088888888889	89	127
522.3088888888889	522.6920181405895	86	127
522.6920181405895	523.0751247165533	84	127
523.0867573696145	523.4698639455783	83	127
523.4814739229025	523.8414058956917	71	127
523.8414058956917	524.1780952380952	72	127
524.1780952380952	524.5496145124716	71	127
524.5496145124716	524.921133786848	72	127
524.921133786848	525.3390929705215	73	127
525.3390929705215	525.7221995464853	74	127
525.7221995464853	526.0821315192744	71	127
526.0821315192744	526.4304308390023	67	127
526.4304308390023	526.7787301587301	74	127
526.7787301587301	527.1270294784581	72	127
527.1270294784581	527.5101587301588	65	127
527.5101587301588	527.9048979591837	63	127
527.9048979591837	528.2531972789116	65	127
528.2531972789116	528.6479365079365	63	127
528.6595464852608	529.1239455782313	68	127
528.6595464852608	529.9250340136055	60	127
529.1239455782313	529.9250340136055	67	127
529.9366439909297	531.097641723356	72	127
531.1092517006803	531.4575283446712	72	127
531.4575283446712	532.0728571428572	71	127
532.0728571428572	532.4908390022675	67	127
532.5024489795918	532.9784580498866	67	127
532.9900680272109	533.3848072562358	67	127
533.3848072562358	533.7679365079365	68	127
533.7679365079365	534.1394557823129	67	127
534.1394557823129	534.5109523809524	68	127
534.5109523809524	534.8824943310658	69	127
534.8824943310658	535.2424036281179	70	127
535.2424036281179	535.6371428571429	71	127
535.6603628117914	536.4846712018141	72	127
536.4846712018141	537.6572789115646	84	127
537.6688888888889	538.0636281179138	86	127
538.0636281179138	538.4351473922902	84	127
538.4351473922902	538.8995464852608	83	127
538.911156462585	539.4452154195011	84	127
539.4568253968254	539.8399319727891	76	127
539.8399319727891	540.2230839002268	77	127
540.2230839002268	540.6062131519275	76	127
540.6062131519275	540.9661224489796	77	127
540.9661224489796	541.3724716553288	75	127
541.3724716553288	541.7323809523809	74	127
541.7323809523809	542.0922675736962	79	127
542.1039002267573	542.5334693877551	75	127
542.5334693877551	542.9398185941043	79	127
542.9398185941043	544.1356235827665	84	127
544.1588662131519	544.5419727891157	86	127
544.5419727891157	544.9367120181406	84	127
544.9367120181406	545.3314739229025	83	127
545.3430612244898	545.7726303854876	84	127
545.7726303854876	546.1673696145125	86	127
546.1673696145125	546.5737188208617	84	127
546.5737188208617	546.9336507936508	83	127
546.9452607709751	547.4328798185941	84	127
547.4328798185941	547.8856689342404	86	127
547.8856689342404	548.2920181405896	84	127
548.2920181405896	548.7912471655329	83	127
548.8028571428572	549.8245351473923	84	127
549.8245351473923	550.2889342403628	85	127
550.2889342403628	550.695283446712	84	127
550.695283446712	551.1248526077097	82	127
551.1248526077097	551.5195918367347	80	127
551.5195918367347	551.972380952381	79	127
551.972380952381	552.413560090703	77	127
552.4367800453515	552.9127664399093	76	127
552.9127664399093	553.295918367347	77	127
553.295918367347	553.6906575963719	79	127
553.6906575963719	554.0853968253969	77	127
554.0853968253969	554.445306122449	76	127
554.445306122449	554.8052154195011	77	127
554.8052154195011	555.1883446712018	75	127
555.1883446712018	555.548253968254	73	127
555.5598639455783	555.9313832199547	72	127
555.9313832199547	556.3261224489796	71	127
556.3261224489796	556.7092517006803	72	127
556.7092517006803	557.0807709750567	71	127
557.0807709750567	557.4174376417234	72	127
557.4174376417234	557.8237868480726	71	127
557.8237868480726	558.195328798186	72	127
558.195328798186	558.5436281179138	74	127
558.5552380952381	558.9151473922902	76	127
558.9151473922902	559.2750566893424	74	127
559.2750566893424	559.5885260770975	72	127
559.5885260770975	559.9832653061225	74	127
559.9832653061225	560.3896145124717	76	127
560.3896145124717	560.7495238095238	77	127
560.7495238095238	561.1326530612245	79	127
561.1326530612245	561.6086621315193	80	127
561.6318820861678	563.2108390022676	81	127
563.2108390022676	564.0815873015873	82	127
564.0815873015873	565.1613151927438	83	127
565.1729251700681	566.1713832199547	84	127
566.1946031746032	567.7851700680272	72	127
567.7851700680272	568.8184580498867	68	127
569.8749659863946	571.5468027210884	73	127
571.5468027210884	572.6497505668934	70	127
573.6946485260771	574.9020861678005	76	127
574.9136961451247	575.3200453514739	85	127
575.3200453514739	575.7031746031746	84	127
575.7031746031746	576.2256009070295	76	127
576.2372108843538	578.4431292517007	79	127
578.4431292517007	579.5692970521542	77	127
602.9401814058957	603.4277777777778	72	127
603.4510204081632	603.613560090703	77	127
603.6251473922903	603.9966893424037	77	127
603.9966893424037	604.3449886621315	76	127
604.3565986394558	605.4131065759638	76	127
605.4363265306123	605.5059863945578	77	127
605.5175963718821	605.5872562358277	76	127
605.598866213152	605.6685034013606	74	127
605.6801133786848	605.7497959183673	76	127
605.7614058956916	606.2722448979592	77	127
606.2722448979592	606.4347845804989	74	127
606.4463945578232	606.5276643990929	74	127
606.5276643990929	606.6205442176871	76	127
606.6205442176871	606.7830839002268	74	127
606.7830839002268	607.1197732426303	72	127
607.1313832199546	608.3039909297053	72	127
608.5013605442177	608.5942403628118	74	127
608.6174603174603	608.7103401360545	76	127
608.7219501133787	608.8148299319728	74	127
608.8380498866213	608.9309297052155	73	127
608.9425170068027	609.0470294784581	74	127
609.0586394557823	609.1631292517006	84	127
609.1747392290249	609.2792290249433	76	127
609.2908390022676	609.3953287981859	77	127
609.4533786848073	609.5462358276644	76	127
609.5578458049887	609.6507482993197	75	127
609.6739682539683	609.7668253968254	76	127
609.7784580498866	609.8945578231293	84	127
609.9061678004535	609.9990476190476	74	127
610.0106575963719	610.1151473922903	76	127
610.1267573696146	610.2196371882086	74	127
610.2428571428571	610.3357369614513	73	127
610.3473469387756	610.4402267573696	74	127
610.4634467120181	610.5911337868481	84	127
610.6027664399093	610.7072562358277	76	127
610.718866213152	610.811746031746	77	127
610.8233560090703	610.9278458049887	76	127
610.939455782313	611.0555555555555	75	127
611.0787755102041	611.1716553287982	76	127
611.1832426303855	611.2761451247165	84	127
611.2993650793651	611.3922222222222	77	127
611.4038321995465	611.5083446712018	79	127
611.5199546485261	611.6128117913833	77	127
611.6244444444444	611.7289342403628	76	127
611.7405442176871	611.8334240362811	77	127
611.8566439909297	611.9611337868481	84	127
611.9727437641724	612.0656235827664	78	127
612.088843537415	612.1817233560091	79	127
612.1933333333334	612.2978231292517	78	127
612.309433106576	612.4371428571428	79	127
612.4487528344671	612.5648526077098	78	127
612.576462585034	612.6693424036281	79	127
612.6809523809524	612.750612244898	79	127
612.7738321995465	612.843492063492	81	127
612.8551020408163	612.9247619047619	79	127
612.9363718820862	613.0060317460318	81	127
613.0176417233561	613.0873015873016	79	127
613.0989115646258	613.1685714285715	81	127
613.19179138322	613.2614512471655	79	127
613.2730612244898	613.3543310657597	81	127
613.3659410430839	613.4355782312925	79	127
613.4471882086168	613.5168707482993	81	127
613.5284807256236	613.5981405895692	79	127
613.6097505668935	613.679410430839	81	127
613.7026303854875	613.7722902494331	79	127
613.7839002267574	613.853537414966	81	127
613.8651700680272	613.9348299319728	79	127
613.946439909297	614.0160997732427	81	127
614.0277097505669	614.0973696145124	80	127
614.120589569161	614.1786394557823	81	127
614.2018594104309	614.2831292517006	80	127
614.2947392290249	614.3876190476191	81	127
614.3992290249433	614.468866213152	80	127
614.4804988662131	614.5501587301587	81	127
614.561768707483	614.6314285714286	80	127
614.6546485260772	614.7243083900227	81	127
614.7359183673469	614.8055782312925	81	127
614.8171882086168	614.8868253968254	82	127
614.8984580498866	614.9681179138322	81	127
614.9797278911565	615.0493877551021	82	127
615.0609977324264	615.1306575963719	81	127
615.1538775510204	615.2351473922903	82	127
615.2467573696146	615.3164172335601	81	127
615.3280272108843	615.4092970521542	82	127
615.4209070294785	615.4905442176871	84	127
615.5021768707483	615.5950566893424	86	127
615.618276643991	615.6995238095238	84	127
615.7227664399093	615.8156462585034	86	127
615.8272562358277	615.8968934240363	84	127
615.9085034013606	615.9897959183673	86	127
616.0014058956916	616.0826757369615	84	127
616.0942630385488	616.1639455782313	86	127
616.1871655328798	616.2568253968254	84	127
616.2684353741497	616.3380952380952	86	127
616.3497052154195	616.4309750566894	84	127
616.4425850340136	616.5122222222222	86	127
616.5238548752834	616.593514739229	84	127
616.6051247165533	616.6747845804989	86	127
616.6980045351474	616.767664399093	84	127
616.7792743764172	616.8489342403628	86	127
616.8605442176871	616.9301814058957	84	127
616.9418140589569	617.0114739229025	86	127
617.0230839002268	617.0927437641724	84	127
617.1159410430839	617.2204535147392	82	127
617.2320634920635	617.3017233560091	81	127
617.3133333333334	617.3829931972789	79	127
617.3946031746032	617.4642630385488	77	127
617.475873015873	617.5455328798186	76	127
617.5571428571428	617.6268027210884	74	127
617.650022675737	617.7196825396826	76	127
617.7312698412699	617.8009523809524	74	127
617.8125623582766	617.8822222222223	76	127
617.8938321995465	617.963492063492	74	127
617.9751020408163	618.0563718820862	76	127
618.0795918367347	618.1376190476191	74	127
618.1608616780045	618.2305215419501	76	127
618.2421315192744	618.31179138322	86	127
618.3234013605443	618.3930612244898	88	127
618.404671201814	618.4743310657597	86	127
618.4859410430839	618.5555782312925	88	127
618.578820861678	618.6600907029479	86	127
618.6717006802721	618.7413605442177	88	127
618.752947845805	618.8226303854875	86	127
618.8342403628118	618.9039002267574	88	127
618.9155102040817	618.9967800453514	86	127
619.0083900226757	619.0896598639456	88	127
619.1128798185941	619.1825396825396	86	127
619.1941496598639	619.2638095238095	88	127
619.2754195011338	619.3450793650794	86	127
619.3566893424037	619.4263492063492	88	127
619.4379591836735	619.5076190476191	86	127
619.5308390022676	619.6353287981859	88	127
619.6469387755102	619.7398185941043	86	127
619.7514285714286	619.8675283446712	86	127
619.8791383219955	620.0068480725623	84	127
620.0184580498866	620.122947845805	82	127
620.1345578231293	620.2390476190476	81	127
620.2738775510204	620.3667573696146	79	127
620.3783673469388	620.4828571428571	77	127
620.4944671201814	620.5873242630386	76	127
620.5989342403628	620.7034467120181	79	127
620.7150566893424	620.8079138321996	77	127
620.8195464852607	620.9240362811792	81	127
620.9356462585034	621.051746031746	79	127
621.0749659863945	621.1678458049887	82	127
621.179455782313	621.2839455782313	81	127
621.2955555555556	621.400045351474	84	127
621.4116326530612	621.5161451247166	82	127
621.5277551020408	621.6090022675737	86	127
621.620612244898	621.7251247165533	84	127
621.7367346938776	621.7947845804989	88	127
621.8063945578232	621.9108843537415	86	127
621.9224943310658	621.9805442176871	89	127
622.0037641723357	622.0618140589569	88	127
622.0850340136054	622.154693877551	91	127
622.1663038548753	622.2475510204082	89	127
622.2591836734694	622.328843537415	93	127
622.3404535147392	622.4565532879818	91	127
622.4681632653061	622.7932426303855	94	127
622.9673922902494	623.1879818594105	88	127
623.1995918367347	624.801768707483	91	127
624.801768707483	625.6957369614513	89	127
627.1934240362812	627.4024036281179	84	127
627.4024036281179	627.5881632653061	83	127
627.5881632653061	627.7506802721089	84	127
627.7506802721089	627.9364625850341	79	127
627.9480498866213	628.6911111111111	81	127
630.2003854875284	630.3048979591837	84	127
630.3048979591837	630.4209750566894	86	127
630.4209750566894	630.5719274376418	84	127
630.5719274376418	630.6880272108843	83	127
630.6880272108843	630.7925170068028	84	127
630.7925170068028	630.9550566893424	79	127
630.9550566893424	631.7097052154195	81	127
631.732925170068	631.8490022675737	81	127
631.8490022675737	631.9651247165533	89	127
631.9651247165533	632.0928344671202	88	127
632.0928344671202	632.2553514739229	89	127
632.2553514739229	632.3714739229025	88	127
632.3714739229025	632.4875736961451	89	127
632.4991836734694	633.230612244898	83	127
664.3569387755102	666.1681179138322	84	127
666.1681179138322	666.3306575963719	82	127
666.3306575963719	666.5164172335601	81	127
666.5164172335601	667.2129931972789	79	127
667.2129931972789	667.9792743764173	77	127
667.9908843537415	668.7339229024943	75	127
668.7339229024943	669.070589569161	76	127
669.778820861678	670.4986167800454	67	127
670.4986167800454	670.835328798186	68	127
670.8469387755102	671.1952380952381	69	127
681.6790476190477	682.3059863945579	81	127
682.3059863945579	682.5497732426304	80	127
682.5497732426304	682.7123356009071	81	127
682.7123356009071	682.886485260771	77	127
682.9097052154195	683.6759637188209	79	127
685.1852607709751	685.2781405895691	81	127
685.2897505668934	685.4174376417234	82	127
685.4290476190477	685.5683900226758	81	127
685.5916099773243	685.6844897959184	80	127
685.6960997732426	685.7889795918368	81	127
685.8121995464853	685.9515192743764	77	127
685.9631292517007	686.7061678004535	79	127
689.597052154195	691.2108390022676	91	127
691.2108390022676	691.3037188208617	89	127
691.3037188208617	691.4546485260771	91	127
691.4546485260771	691.5591156462585	93	127
691.5591156462585	691.6752380952381	91	127
691.6752380952381	691.7913378684807	89	127
691.8145578231292	691.9074376417234	89	127
691.9190476190477	692.0351473922902	88	127
692.0467573696145	692.1396371882087	89	127
692.1512471655329	692.2557369614512	91	127
692.2673469387755	692.4182766439909	89	127
692.4298866213152	692.5343764172336	88	127
692.5459863945579	692.6388662131519	88	127
692.6736961451247	692.7665532879819	86	127
692.7781632653061	692.8826757369615	88	127
692.8942857142857	692.998775510204	89	127
693.0452154195011	693.1497052154195	88	127
693.1613151927438	693.2541950113379	86	127
693.2658049886621	693.3702947845806	86	127
693.3818820861678	693.4747845804989	84	127
693.4980045351474	693.6373242630385	86	127
693.6489342403628	693.7534240362812	88	127
693.7650340136055	693.8695238095238	86	127
693.8811337868481	693.9856235827665	84	127
694.0901133786848	694.2178004535148	86	127
694.2294331065759	694.3687528344672	85	127
694.3919727891157	694.4848526077097	86	127
694.496462585034	694.6009523809524	85	127
694.6125396825397	694.717052154195	86	127
694.7286621315193	694.7983219954649	88	127
694.8099092970522	694.891201814059	89	127
694.9144217687075	694.9840816326531	88	127
694.9956916099774	695.0653514739229	89	127
695.0769614512471	695.1466213151928	88	127
695.158231292517	695.3091609977324	89	127
695.3207709750567	695.3904308390023	88	127
695.4136507936508	695.5297505668934	89	127
695.5413605442177	695.6110204081633	88	127
695.6226303854876	695.6922902494331	89	127
695.7039002267574	695.8083900226758	88	127
695.82	695.8896598639456	89	127
695.9012698412698	695.9709297052154	88	127
695.994149659864	696.087029478458	89	127
696.0986394557823	696.1682993197279	88	127
696.1799092970522	696.2727891156462	89	127
696.2843990929705	696.3540589569161	89	127
696.3656689342404	696.4585260770975	91	127
696.481768707483	696.5514285714286	89	127
696.5630385487528	696.6326984126985	91	127
696.6443083900227	696.7139682539682	89	127
696.7255782312925	696.8881179138322	91	127
696.8997278911564	696.969387755102	89	127
696.9809977324263	697.0506575963719	91	127
697.0738548752835	697.143537414966	86	127
697.1551473922902	697.2248072562359	88	127
697.2364172335601	697.3060770975056	86	127
697.3176870748299	697.3873469387755	88	127
697.3989569160998	697.491814058957	86	127
697.5034467120181	697.6543764172336	88	127
697.6775736961451	697.7472562358276	86	127
697.7588662131519	697.8285260770975	88	127
697.8401360544218	698.1884353741497	84	127
698.2000453514739	698.467074829932	88	127
698.2000453514739	698.467074829932	79	127
699.0359637188209	699.302993197279	79	127
699.0359637188209	699.302993197279	88	127
699.7790022675737	700.0344217687075	77	127
699.7790022675737	700.0344217687075	88	127
700.5568480725624	700.8239002267574	77	127
700.5568480725624	700.8239002267574	86	127
701.2882993197279	701.64820861678	76	127
701.2882993197279	701.64820861678	84	127
702.042947845805	702.2054875283446	77	127
702.2170975056689	702.4028571428571	83	127
702.7511564625851	702.8904761904762	79	127
702.9136961451247	703.0878458049887	84	127
703.0994557823129	703.366485260771	81	127
703.4825850340136	703.7496145124717	83	127
703.8657142857143	704.0979138321995	84	127
704.1907936507937	704.4113832199547	76	127
704.4113832199547	704.6668027210884	91	127
705.0267120181406	705.2240816326531	76	127
705.2240816326531	705.398231292517	91	127
705.7813605442177	705.9787301587302	76	127
705.9787301587302	706.1644897959184	89	127
706.547619047619	706.721768707483	74	127
706.721768707483	706.9191383219954	89	127
707.2674376417234	707.4415873015873	72	127
707.4415873015873	707.6389569160998	88	127
707.9872562358277	708.1614058956916	77	127
708.1614058956916	708.3703854875283	86	127
708.7186621315193	708.8928344671202	79	127
708.8928344671202	709.0437641723356	84	127
709.0553741496599	709.3339909297052	81	127
709.4617233560091	709.7287528344672	83	127
710.251201814059	710.4253514739229	79	127
710.4253514739229	710.5762585034014	84	127
710.5878911564625	710.8433106575964	81	127
710.9826077097506	711.2612698412698	83	127
711.6792290249433	711.8533786848072	79	127
711.8533786848072	712.0275283446712	84	127
712.0391383219954	712.3177777777778	81	127
712.4803174603175	712.724126984127	83	127
712.9563265306123	713.0608163265306	84	127
713.0840362811791	713.1536961451247	86	127
713.1885260770975	713.258185941043	84	127
713.2697959183673	713.3510657596372	86	127
713.3626757369615	713.4323129251701	84	127
713.4671655328798	713.5252154195011	86	127
713.5484353741497	713.606485260771	84	127
713.6296825396826	713.6993650793651	86	127
713.7109750566893	713.8038548752835	84	127
713.827052154195	713.9083446712018	86	127
713.9199546485261	713.9780045351474	84	127
713.9896145124717	714.0708843537415	86	127
714.09410430839	714.1869841269842	84	127
714.1985941043084	714.2682539682539	86	127
714.2798639455782	714.3843537414966	84	127
714.3959637188209	714.4656235827664	86	127
714.4772335600907	714.5817233560091	84	127
714.5933333333334	714.662970521542	86	127
714.6862131519274	714.755873015873	84	127
714.7674829931973	714.8371428571429	86	127
714.8487301587302	714.9416326530612	84	127
714.9532426303855	715.0345124716554	86	127
715.0461224489796	715.1157823129251	84	127
715.1390022675737	715.2551020408164	86	127
715.2666893424037	715.3363718820862	84	127
715.371201814059	715.4640589569161	86	127
715.4756689342404	715.5453514739229	84	127
715.5801814058957	715.6730385487529	86	127
715.6846485260771	715.7891609977324	83	127
715.7891609977324	715.9749206349206	84	127
715.9749206349206	716.3696598639456	89	127
716.3812698412698	716.8572789115647	89	127
716.8572789115647	717.2636281179139	88	127
717.2868480725624	718.3781859410431	88	127
718.3781859410431	718.4942857142858	89	127
718.4942857142858	718.5871655328798	88	127
718.5871655328798	718.7032653061225	86	127
718.7032653061225	718.7845351473923	88	127
718.7845351473923	719.2024943310657	89	127
719.2024943310657	719.5507936507937	86	127
719.562380952381	719.9107029478458	86	127
719.9339229024944	720.3750793650794	84	127
720.3750793650794	721.5825396825397	84	127
721.8263265306123	721.8960090702948	86	127
721.907619047619	722.0353287981859	88	127
722.0469387755102	722.1282086167801	86	127
722.1514285714286	722.2675283446712	88	127
722.2791383219954	722.3487981859411	86	127
722.3604081632653	722.430045351474	88	127
722.4416780045351	722.5113378684807	86	127
722.522947845805	722.5926077097506	88	127
722.6158276643991	722.6738775510204	88	127
722.6970975056689	722.7667573696145	89	127
722.7783673469388	722.8712471655328	88	127
722.8828571428571	722.9757369614513	89	127
722.9873469387755	723.1034467120181	88	127
723.1150566893424	723.184716553288	89	127
723.2079365079366	723.3240362811791	88	127
723.3356462585034	723.405306122449	89	127
723.4169160997733	723.4865759637188	86	127
723.4981859410431	723.5910657596372	88	127
723.6026757369615	723.672335600907	86	127
723.6839455782313	723.7536054421769	88	127
723.7768253968254	723.846462585034	86	127
723.8580725623583	723.9393650793651	88	127
723.9509750566893	724.020634920635	86	127
724.0322448979592	724.1019047619047	88	127
724.113514739229	724.1831746031746	88	127
724.2063945578232	724.33410430839	89	127
724.3457142857143	724.4502040816327	88	127
724.46179138322	724.5430839002267	89	127
724.554693877551	724.6243537414966	88	127
724.6359637188209	724.7172335600907	89	127
724.728843537415	724.7985034013606	88	127
724.8217233560091	724.8913605442177	89	127
724.9029931972789	724.9726530612245	89	127
724.9842630385488	725.0655328798186	91	127
725.0771201814059	725.1468027210884	89	127
725.1584126984127	725.2396825396826	91	127
725.2512925170068	725.3209523809523	89	127
725.3441723356009	725.4138321995465	91	127
725.4254421768708	725.5879818594104	89	127
725.5995918367347	725.6692517006803	91	127
725.6808616780046	725.7505215419501	90	127
725.7621315192744	725.8434013605442	91	127
725.8666213151928	725.9711111111111	90	127
725.9827210884354	726.052380952381	91	127
726.0639909297053	726.1336507936508	90	127
726.145260770975	726.2149206349206	91	127
726.2265306122449	726.2961904761905	90	127
726.3077777777778	726.4355102040817	91	127
726.4587301587302	726.5283673469388	91	127
726.54	726.6212698412699	93	127
726.6328798185941	726.7025396825397	91	127
726.714126984127	726.7954195011338	93	127
726.807029478458	726.8766893424037	91	127
726.934716553288	726.9927891156462	93	127
727.0160090702948	727.0856689342404	91	127
727.0972789115647	727.2133786848073	93	127
727.2249886621315	727.2946485260771	91	127
727.3062585034014	727.3875283446712	93	127
727.3991383219955	727.4687981859411	91	127
727.4920181405896	727.5616780045351	93	127
727.5732879818594	727.6777777777778	91	127
727.6893877551021	727.7706575963718	93	127
727.7822675736961	727.8519274376417	91	127
727.863537414966	727.9912471655329	93	127
728.0028571428571	728.084126984127	92	127
728.1421541950114	728.2118367346939	93	127
728.2234467120181	728.304716553288	92	127
728.3163265306123	728.3859863945578	93	127
728.3975963718821	728.4672562358277	92	127
728.478866213152	728.5949659863945	93	127
728.6181859410431	728.7110657596372	92	127
728.7226757369615	728.7807256235827	93	127
728.7807256235827	730.8124489795919	93	127
731.0795011337868	731.6019501133787	91	127
731.613560090703	731.7877097505669	89	127
731.8109297052155	732.3914285714286	88	127
732.3914285714286	732.5539682539683	86	127
732.5655782312925	733.7962358276644	94	127
734.0516553287982	734.6205442176871	93	127
734.6205442176871	734.8063038548753	91	127
734.8179138321996	735.235873015873	89	127
735.235873015873	735.630612244898	88	127
735.6654421768708	736.7683900226757	88	127
736.78	736.8496598639456	89	127
736.8728798185941	737.000589569161	88	127
737.0121995464852	737.0818594104309	86	127
737.0934693877551	737.2327891156463	88	127
737.2560090702948	737.9758049886622	96	127
737.9990476190476	738.1615646258504	88	127
738.1731746031746	740.1120634920635	91	127
740.1120634920635	741.5284807256236	89	127
763.5526077097505	765.8978231292517	62	127
765.8978231292517	767.3606802721089	70	127
767.3606802721089	768.9164172335601	69	127
768.9164172335601	771.470612244898	67	127
771.470612244898	772.3413605442177	67	127
772.3413605442177	774.4892063492064	79	127
774.4892063492064	774.5588662131519	77	127
774.5704761904761	774.6401360544218	79	127
774.651746031746	774.7214058956916	77	127
774.7446258503402	774.8142857142857	79	127
774.82589569161	774.8955555555556	77	127
774.9071655328798	774.9768253968253	79	127
774.9884353741496	775.0813151927438	77	127
775.092925170068	775.1741950113378	79	127
775.1858049886621	775.4760544217687	77	127
775.4992743764172	775.580544217687	79	127
775.5921541950113	775.6618140589569	77	127
775.6734240362812	775.7430839002268	79	127
775.7546938775511	775.8359637188208	77	127
775.8475736961451	775.9172335600907	79	127
775.928843537415	775.9985034013605	77	127
776.021723356009	776.0913832199547	79	127
776.1029931972789	776.1726530612245	77	127
776.1842630385488	776.2539229024943	79	127
776.2655328798186	776.3351927437642	77	127
776.3468027210885	776.4280725623582	79	127
776.4512925170068	776.5209523809524	77	127
776.5325623582767	776.6022222222222	79	127
776.6138321995464	776.683492063492	77	127
776.6951020408163	776.7647619047619	79	127
776.7763718820862	776.8460317460317	77	127
776.857641723356	776.9273015873016	79	127
776.9505215419501	777.0201814058956	77	127
777.0317913832199	777.1014512471655	79	127
777.1130612244898	777.2639909297052	77	127
777.2756009070295	777.4265306122448	81	127
777.4497505668934	777.5426303854875	79	127
777.5542403628118	777.6587301587301	77	127
777.6703401360544	777.7632199546485	76	127
777.7748299319728	777.9257596371882	74	127
777.9373696145125	778.0534693877551	72	127
778.0766893424036	778.1695691609978	71	127
778.181179138322	778.6571882086167	77	127
778.8313378684808	779.2144671201814	71	127
779.23768707483	779.3073469387755	72	127
779.330566893424	779.4002267573696	74	127
779.4234467120182	779.4931065759637	72	127
779.6092063492064	779.6788662131519	74	127
779.7020861678004	779.7949659863946	72	127
779.8065759637188	779.8878458049886	74	127
779.8994557823129	780.0039455782313	72	127
780.0155555555556	780.0968253968254	74	127
780.1084353741496	780.2013151927438	72	127
780.212925170068	780.2941950113378	74	127
780.3058049886621	780.387074829932	72	127
780.3986848072562	780.4799546485261	74	127
780.4915646258503	780.5728344671202	72	127
780.5960544217687	780.6657142857143	74	127
780.6889342403628	780.7585941043084	72	127
780.7818140589569	780.8514739229025	74	127
780.8746938775511	780.9443537414966	72	127
780.9675736961451	781.048843537415	74	127
781.0604535147393	781.141723356009	72	127
781.1533333333333	781.2346031746032	74	127
781.2462131519275	781.2810430839003	72	127
781.2926530612245	781.3042630385487	74	127
781.315873015873	781.3971428571429	72	127
781.4087528344671	781.490022675737	74	127
781.5016326530613	781.582902494331	72	127
781.5945124716553	781.6641723356009	74	127
781.6641723356009	781.7222222222222	72	127
781.7454421768707	781.7686621315192	74	127
781.7802721088435	781.8383219954649	72	127
781.8615419501134	781.9195918367346	74	127
781.9428117913832	782.0124716553288	72	127
782.0240816326531	782.105351473923	74	127
782.1169614512472	782.1750113378685	72	127
782.1866213151927	782.2678911564626	74	127
782.2795011337869	782.3607709750567	72	127
782.3723809523809	782.4072108843537	74	127
782.4072108843537	782.4884807256236	72	127
782.5000907029479	782.5581405895691	74	127
782.5697505668934	782.6510204081633	72	127
782.6626303854875	782.7439002267573	74	127
782.7671201814059	782.8251700680272	72	127
782.8251700680272	782.8832199546486	74	127
782.9064399092971	782.9760997732426	72	127
782.9877097505669	783.0573696145125	74	127
783.080589569161	783.1270294784581	72	127
783.1386394557824	783.2199092970521	74	127
783.2315192743764	783.3127891156463	72	127
783.3243990929706	783.3940589569161	74	127
783.4056689342403	783.4288888888889	72	127
783.4288888888889	783.4637188208617	74	127
783.475328798186	783.5565986394557	72	127
783.56820861678	783.6262585034013	74	127
783.6378684807256	783.7075283446712	72	127
783.7307482993198	783.7655782312925	74	127
783.788798185941	783.8468480725624	72	127
783.8700680272109	783.9397278911565	74	127
783.9513378684808	783.9629478458049	72	127
783.9745578231292	784.0442176870748	74	127
784.0558276643991	784.137097505669	72	127
784.1487074829932	784.1951473922902	74	127
784.1951473922902	784.2764172335601	72	127
784.2880272108844	784.3692970521541	74	127
784.3809070294784	784.4621768707483	72	127
784.4737868480726	784.5434467120182	74	127
784.5550566893425	784.6014965986394	72	127
784.6131065759637	784.6479365079365	74	127
784.6595464852608	784.7408163265306	72	127
784.7640362811792	784.7872562358276	74	127
784.8104761904762	784.8801360544218	72	127
784.9033560090703	784.9730158730159	74	127
784.9962358276643	785.06589569161	72	127
785.0775056689342	785.1587755102041	74	127
785.1703854875284	785.2168253968254	72	127
785.2284353741496	785.2748752834467	74	127
785.286485260771	785.3677551020409	72	127
785.3793650793651	785.4606349206349	74	127
785.4722448979592	785.5535147392291	72	127
785.5651247165533	785.6115646258503	74	127
785.6231746031746	785.6696145124716	72	127
785.6812244897959	785.7624943310658	74	127
785.7857142857143	785.7973242630386	72	127
785.820544217687	785.8669841269841	74	127
785.8902040816326	785.9598639455783	72	127
785.9830839002268	786.0179138321995	74	127
786.041133786848	786.1224036281179	72	127
786.1340136054422	786.1920634920635	74	127
786.1920634920635	786.2733333333333	72	127
786.2849433106576	786.3662131519275	74	127
786.3778231292517	786.4010430839003	72	127
786.4126530612245	786.4590929705215	74	127
786.4707029478458	786.5519727891157	72	127
786.5635827664399	786.6332426303854	74	127
786.6448526077097	786.6680725623582	72	127
786.6796825396825	786.7493424036281	74	127
786.7725623582767	786.8422222222222	72	127
786.8654421768707	786.9234920634921	74	127
786.9467120181406	787.0163718820862	72	127
787.0395918367346	787.1208616780045	74	127
787.1324716553288	787.2137414965987	72	127
787.2137414965987	787.2717913832199	74	127
787.2717913832199	787.3530612244898	72	127
787.3646712018141	787.4227210884354	74	127
787.4343310657597	787.4691609977324	72	127
787.4807709750567	787.5620408163265	74	127
787.5736507936508	787.6200907029479	72	127
787.6317006802722	787.7129705215419	72	127
787.7478004535147	787.8174603174604	74	127
787.8406802721089	787.8987301587301	72	127
787.9219501133787	787.98	74	127
788.0032199546486	788.0612698412698	72	127
788.0728798185941	788.1425396825397	74	127
788.1425396825397	788.200589569161	84	127
788.2121995464853	788.2818594104308	86	127
788.2934693877551	788.374739229025	84	127
788.3863492063492	788.4327891156463	86	127
788.4443990929706	788.5024489795918	84	127
788.5140589569161	788.5721088435374	86	127
788.5721088435374	788.641768707483	84	127
788.6533786848073	788.7346485260771	86	127
788.7578684807256	788.8043083900227	84	127
788.815918367347	788.862358276644	86	127
788.8855782312925	788.9552380952381	84	127
788.9668480725624	789.0016780045352	86	127
789.0248979591837	789.1061678004535	84	127
789.1061678004535	789.1874376417234	86	127
789.1874376417234	789.2687074829932	84	127
789.2803174603174	789.3615873015873	86	127
789.3731972789116	789.4544671201814	84	127
789.4660770975057	789.5473469387755	86	127
789.5589569160998	789.6402267573696	84	127
789.6402267573696	789.6866666666666	86	127
789.6982766439909	789.7679365079365	84	127
789.7795464852608	789.8143764172336	86	127
789.8259863945578	789.8840362811792	84	127
789.9072562358276	789.9769160997732	86	127
790.0001360544218	790.0233560090703	84	127
790.0465759637189	790.1278458049886	86	127
790.1394557823129	790.1975056689342	84	127
790.1975056689342	790.2555555555556	86	127
790.2671655328799	790.4413151927438	82	127
790.4413151927438	790.6038548752834	81	127
790.6038548752834	791.3120634920635	79	127
791.3120634920635	792.0667120181406	80	127
792.0899319727891	794.1448979591837	81	127
794.1448979591837	794.8995464852608	77	127
794.911156462585	795.1433560090703	74	127
795.1549659863946	795.3871655328799	62	127
795.3987755102041	795.6309750566893	62	127
795.6541950113378	795.8863945578231	58	127
795.8980045351474	796.0721541950113	70	127
796.0837641723356	796.2927437641723	70	127
796.3043537414966	796.501723356009	58	127
796.5249433106576	796.7803628117914	70	127
796.7919727891157	797.024172335601	70	127
797.0473922902494	797.2331519274377	70	127
797.244761904762	797.4769614512471	72	127
797.5001814058957	797.7323809523809	74	127
797.7439909297052	798.2780498866213	67	127
798.6379591836735	799.8221768707483	76	127
799.8453968253968	799.9266666666666	77	127
799.9382766439909	800.0195464852608	76	127
800.031156462585	800.1124263038549	74	127
800.1240362811791	800.205306122449	76	127
800.2169160997732	800.7974149659864	84	127
800.8206349206349	801.1108843537415	76	127
801.1341043083901	801.92358276644	77	127
809.783537414966	810.5265759637189	82	127
810.5265759637189	811.3044444444445	79	127
811.3044444444445	812.035873015873	76	127
812.035873015873	812.7905215419502	72	127
812.7905215419502	813.5451700680272	70	127
813.5567800453515	813.7889795918368	69	127
813.8121995464853	814.0792290249433	57	127
814.0908390022676	814.3462585034014	60	127
814.6016780045352	814.7990476190477	60	127
814.8106575963719	815.0428571428571	65	127
815.3098866213152	815.5420861678004	65	127
815.565306122449	815.7975056689343	69	127
821.8927437641723	822.1365532879819	82	127
822.1481632653062	822.3803628117914	79	127
822.6473922902494	822.8331519274376	79	127
822.8563718820861	823.0769614512471	76	127
823.3207709750567	823.5297505668934	76	127
823.5413605442177	823.7619501133787	72	127
824.0289795918368	824.261179138322	72	127
824.2960090702948	824.5514285714286	70	127
824.8184580498867	825.0738775510204	70	127
825.0854875283446	825.3525170068027	67	127
825.364126984127	828.6381405895692	69	127
828.6381405895692	831.7263945578231	71	127
831.7263945578231	834.8843083900226	74	127
834.8843083900226	837.7055328798186	77	127
838.1351020408164	839.005850340136	77	127
839.0174603174603	840.3758276643991	72	127
840.6196371882086	841.1769160997733	74	127
841.2001360544218	841.3742857142857	70	127
841.38589569161	842.5120634920635	69	127
842.5120634920635	842.6049433106576	70	127
842.6049433106576	842.6629931972789	67	127
842.6746031746031	842.7674829931973	69	127
842.7674829931973	842.8603628117913	67	127
842.8603628117913	842.9532426303855	69	127
842.9532426303855	843.0461224489796	67	127
843.0461224489796	843.1390022675737	69	127
843.1390022675737	843.2434920634921	67	127
843.2434920634921	843.3363718820862	69	127
843.3363718820862	843.417641723356	67	127
843.417641723356	843.5105215419501	69	127
843.5105215419501	843.638231292517	67	127
843.638231292517	843.7311111111111	69	127
843.7311111111111	843.8704308390023	67	127
843.8704308390023	844.2883900226757	72	127
844.2883900226757	844.7063492063492	67	127
844.7179591836734	844.961768707483	69	127
845.0314285714286	845.2636281179139	60	127
845.2752380952381	845.5190476190476	65	127
845.5306575963718	845.7744671201814	69	127
845.7860770975057	846.0414965986395	65	127
846.0531065759637	846.3085260770976	60	127
846.3201360544218	846.552335600907	57	127
846.5639455782313	846.7961451247165	60	127
846.8193650793651	847.0515646258503	65	127
847.0631746031746	847.3069841269842	69	127
847.3302040816327	847.5740136054421	65	127
847.5856235827664	847.8874829931973	60	127
847.9107029478458	848.1545124716554	56	127
848.1661224489795	848.3867120181405	59	127
848.4099319727891	848.6073015873015	65	127
848.6073015873015	848.8162811791383	68	127
848.8395011337868	849.0717006802721	65	127
849.0833106575964	849.3387301587302	59	127
849.3503401360545	849.5709297052155	56	127
849.5825396825397	849.8263492063492	59	127
849.8379591836734	850.0469387755102	65	127
850.0585487528344	850.3139682539683	68	127
850.3255782312925	850.5577777777778	65	127
850.5809977324263	850.83641723356	59	127
850.8480272108843	851.0686167800453	56	127
851.0686167800453	851.2892063492063	62	127
851.3008163265306	851.5214058956916	65	127
851.5330158730159	851.7652154195011	68	127
851.7768253968254	851.9974149659864	65	127
852.020634920635	852.3108843537415	62	127
852.3224943310657	852.554693877551	56	127
852.5779138321996	852.7985034013606	62	127
852.8101133786848	853.0423129251701	65	127
853.0423129251701	853.2745124716554	68	127
853.2861224489795	853.5183219954648	65	127
853.5299319727891	853.7853514739229	62	127
853.7969614512472	854.0639909297053	59	127
854.0756009070295	854.319410430839	62	127
854.3426303854875	854.586439909297	65	127
854.5980498866213	854.8882993197279	71	127
854.9115192743765	855.1088888888889	65	127
855.1204988662131	855.3410884353741	62	127
855.3643083900226	855.642947845805	59	127
855.6545578231293	855.8867573696145	62	127
855.9099773242631	856.1653968253968	65	127
856.177006802721	856.4556462585034	71	127
856.478866213152	856.699455782313	65	127
856.7110657596372	856.9897052154195	62	127
857.0013151927437	857.2451247165533	60	127
857.2567346938775	857.5237641723356	65	127
857.5353741496599	857.8372335600907	72	127
857.848843537415	858.115873015873	60	127
858.1274829931973	858.3596825396826	65	127
858.3829024943311	858.6731519274376	69	127
858.6847619047619	858.9169614512472	58	127
858.9401814058957	859.2072108843537	62	127
859.218820861678	859.4742403628118	69	127
859.4974603174603	859.7528798185941	58	127
859.7644897959184	860.0199092970522	62	127
860.0431292517006	860.4030385487529	67	127
860.4262585034014	862.4928344671201	65	127
862.5160544217687	862.8875736961451	66	127
862.8991836734693	863.7002721088436	67	127
863.723492063492	863.8976417233561	64	127
863.9092517006802	863.9673015873016	64	127
863.9905215419501	864.07179138322	65	127
864.0950113378685	864.1762811791383	64	127
864.1878911564626	864.2691609977325	65	127
864.2807709750567	864.3968707482993	64	127
864.4084807256236	864.4897505668935	65	127
864.5013605442177	864.5826303854875	64	127
864.5942403628118	864.6987301587302	65	127
864.7103401360545	864.8032199546485	64	127
864.8148299319728	864.8960997732427	65	127
864.9077097505669	864.9889795918367	64	127
865.0354195011338	865.1050793650794	65	127
865.128299319728	865.1979591836734	64	127
865.221179138322	865.2908390022676	65	127
865.3140589569161	865.3837188208616	64	127
865.4069387755102	865.4882086167801	65	127
865.4998185941043	865.5810884353741	64	127
865.5926984126984	865.6739682539683	65	127
865.6855782312925	865.8016780045351	64	127
865.8132879818594	865.8945578231293	65	127
865.9061678004535	865.9990476190476	64	127
866.0106575963719	866.1383673469388	65	127
866.1499773242631	866.2660770975057	64	127
866.2776870748299	866.3589569160998	65	127
866.370566893424	866.4402267573696	64	127
866.4634467120181	866.5331065759638	65	127
866.5563265306123	866.6259863945578	64	127
866.6608163265306	866.7304761904762	65	127
866.7536961451248	866.8349659863945	64	127
866.8465759637188	866.9278458049887	65	127
866.939455782313	867.0207256235827	64	127
867.032335600907	867.1136054421769	65	127
867.1252154195012	867.2064852607709	76	127
867.2180952380952	867.3109750566894	77	127
867.3225850340136	867.4038548752834	76	127
867.4154648526077	867.4967346938776	77	127
867.5083446712018	867.5896145124716	76	127
867.5896145124716	867.6708843537415	77	127
867.69410430839	867.7637641723356	76	127
867.7869841269842	867.8566439909297	77	127
867.8798639455782	867.9611337868481	76	127
867.9843537414966	868.0772335600907	77	127
868.1004535147392	868.2049433106575	76	127
868.2629931972789	868.3442630385488	77	127
868.355873015873	868.4371428571428	76	127
868.4487528344671	868.5532426303855	77	127
868.5648526077098	868.6461224489796	76	127
868.6577324263038	868.7273922902494	77	127
868.7390022675737	868.8202721088435	76	127
868.8318820861678	869.0176417233561	77	127
869.0292517006802	869.1221315192744	76	127
869.1453514739229	869.2266213151927	77	127
869.2498412698412	869.3195011337868	76	127
869.3427210884354	869.412380952381	77	127
869.4356009070294	869.5284807256236	76	127
869.5517006802721	869.6213605442177	77	127
869.632970521542	869.7722902494331	76	127
869.7839002267574	869.8651700680272	77	127
869.8767800453514	869.9580498866213	76	127
869.9696598639456	870.0509297052154	77	127
870.0625396825396	870.1438095238095	76	127
870.1554195011338	870.2366893424037	77	127
870.2482993197278	870.3295691609977	76	127
870.341179138322	870.4340589569161	77	127
870.4456689342404	870.561768707483	76	127
870.5849886621315	870.6894784580498	77	127
870.7126984126984	870.782358276644	76	127
870.8055782312925	870.875238095238	77	127
870.8984580498866	870.9797278911565	76	127
870.9913378684807	871.0726077097505	77	127
871.0842176870748	871.1654875283447	76	127
871.1770975056689	871.2583673469388	77	127
871.269977324263	871.3512471655329	76	127
871.3628571428571	871.618276643991	77	127
871.6298866213152	871.7343764172335	76	127
871.7459863945578	871.8272562358277	77	127
871.838866213152	871.931746031746	76	127
871.9433560090703	872.0362358276644	77	127
872.059455782313	872.2336054421769	76	127
872.2568253968254	872.3380952380952	77	127
872.3613151927437	872.4658049886622	76	127
872.5006349206349	872.6863945578232	77	127
872.7096145124716	872.7908843537415	76	127
872.8024943310658	872.8953741496599	77	127
872.9069841269841	873.0579138321996	76	127
873.0695238095238	873.1507936507936	77	127
873.1624036281179	873.2668934240363	76	127
873.3365532879818	873.4410430839002	77	127
873.4526530612245	873.6268027210884	76	127
873.6384126984127	873.8590022675737	77	127
873.870612244898	874.0331519274376	76	127
874.0563718820862	874.137641723356	77	127
874.1608616780045	874.3234013605443	76	127
874.3466213151927	874.4395011337868	77	127
874.4627210884354	874.8806802721089	76	127
874.9155102040817	875.0083900226757	77	127
875.0316099773243	876.0416780045351	77	127
876.0532879818594	877.3768253968254	57	127
877.6438548752834	878.2011337868481	58	127
878.2127437641724	878.3868934240363	60	127
878.3985034013606	879.3969614512472	62	127
879.4085714285715	880.9991383219955	82	127
880.9991383219955	881.6609070294785	81	127
881.6609070294785	881.9279365079365	79	127
881.951156462585	882.4155555555556	77	127
882.4155555555556	882.7754648526077	76	127
886.804126984127	887.907074829932	64	127
887.9302947845805	888.0347845804989	65	127
888.0347845804989	888.127664399093	64	127
888.127664399093	888.2785941043084	62	127
888.2785941043084	888.4527437641723	64	127
888.4643537414966	889.1841723356009	72	127
889.1841723356009	889.5789115646259	64	127
889.5905215419501	890.5889795918367	65	127
892.6555555555556	893.2360544217687	72	127
893.2360544217687	893.6075736961451	64	127
893.6191836734694	894.8266213151927	65	127
896.0688888888889	896.3126984126984	71	127
896.3126984126984	896.5681179138322	72	127
896.5681179138322	896.8351473922902	71	127
896.8351473922902	897.1137868480726	72	127
897.1137868480726	897.3808163265306	71	127
897.3808163265306	897.6826757369614	72	127
897.6826757369614	897.9845351473923	64	127
898.0193650793651	898.3560544217687	65	127
898.3560544217687	898.6114739229025	60	127
898.6230839002268	898.8320634920635	57	127
898.9249433106576	899.1339229024943	60	127
899.250022675737	899.4357823129252	65	127
899.4938321995464	899.7144217687074	69	127
899.8305215419501	900.0162811791383	72	127
900.1439909297052	900.3878004535147	77	127
900.4922902494332	900.9450793650793	81	127
901.7809977324263	902.2918367346939	84	127
903.2206349206349	910.4304308390023	89	127
