# onset,offset,note,velocity
6.326666666666667	7.046485260770975	60	127
6.326666666666667	7.046485260770975	57	127
6.326666666666667	7.046485260770975	65	127
7.046485260770975	9.461360544217687	36	127
7.046485260770975	7.267074829931973	64	127
7.046485260770975	9.461360544217687	48	127
7.046485260770975	7.267074829931973	55	127
7.046485260770975	7.267074829931973	58	127
7.685034013605442	8.695102040816327	55	127
7.685034013605442	8.695102040816327	58	127
7.685034013605442	8.695102040816327	64	127
9.113061224489796	9.832879818594105	62	127
9.113061224489796	9.832879818594105	53	127
9.113061224489796	9.832879818594105	58	127
9.832879818594105	12.398684807256236	48	127
9.832879818594105	10.111519274376418	52	127
9.832879818594105	10.111519274376418	58	127
9.832879818594105	10.111519274376418	60	127
9.832879818594105	12.398684807256236	36	127
10.587528344671203	11.667256235827665	52	127
10.587528344671203	11.667256235827665	58	127
10.587528344671203	11.667256235827665	60	127
12.038775510204081	12.723764172335601	53	127
12.038775510204081	12.723764172335601	58	127
12.038775510204081	12.723764172335601	62	127
12.735374149659863	13.327482993197279	64	127
12.735374149659863	13.327482993197279	55	127
12.735374149659863	13.327482993197279	58	127
12.735374149659863	13.861541950113379	36	127
12.735374149659863	13.861541950113379	48	127
13.339092970521541	14.070521541950113	62	127
13.339092970521541	14.070521541950113	58	127
13.339092970521541	14.070521541950113	53	127
14.082131519274377	14.74390022675737	64	127
14.082131519274377	15.336009070294784	48	127
14.082131519274377	14.74390022675737	55	127
14.082131519274377	14.74390022675737	58	127
14.082131519274377	15.336009070294784	36	127
14.755510204081633	15.521768707482993	57	127
14.755510204081633	15.521768707482993	60	127
14.755510204081633	15.521768707482993	65	127
15.533378684807257	17.716054421768707	36	127
15.533378684807257	17.123945578231293	60	127
15.533378684807257	17.123945578231293	63	127
15.533378684807257	17.123945578231293	66	127
15.533378684807257	17.716054421768707	48	127
15.533378684807257	17.123945578231293	57	127
17.321315192743764	17.901814058956916	58	127
17.321315192743764	17.901814058956916	60	127
17.321315192743764	17.901814058956916	64	127
17.321315192743764	17.901814058956916	67	127
17.913424036281178	18.63324263038549	68	127
17.913424036281178	18.273333333333333	48	127
17.913424036281178	18.63324263038549	58	127
17.913424036281178	18.63324263038549	60	127
18.284943310657596	18.42426303854875	50	127
18.435873015873018	18.63324263038549	52	127
18.64485260770975	19.585260770975058	53	127
18.64485260770975	20.8275283446712	69	127
18.64485260770975	19.585260770975058	60	127
18.64485260770975	19.585260770975058	57	127
19.59687074829932	20.8275283446712	57	127
19.59687074829932	20.8275283446712	41	127
19.59687074829932	22.510975056689343	53	127
21.0481179138322	21.756326530612245	65	127
21.0481179138322	21.41963718820862	58	127
21.0481179138322	21.41963718820862	43	127
21.43124716553288	21.756326530612245	60	127
21.43124716553288	21.756326530612245	45	127
21.767936507936508	22.510975056689343	62	127
21.767936507936508	22.510975056689343	46	127
22.534195011337868	23.68358276643991	43	127
22.534195011337868	23.68358276643991	70	127
22.534195011337868	23.68358276643991	58	127
22.534195011337868	23.68358276643991	55	127
24.171201814058957	24.49628117913832	60	127
24.171201814058957	24.856190476190477	55	127
24.171201814058957	24.49628117913832	69	127
24.171201814058957	24.49628117913832	45	127
24.507891156462584	24.856190476190477	46	127
24.507891156462584	24.856190476190477	67	127
24.507891156462584	24.856190476190477	62	127
24.86780045351474	25.645668934240362	48	127
24.86780045351474	25.645668934240362	55	127
24.86780045351474	25.262539682539682	65	127
25.262539682539682	25.564399092970522	64	127
25.66888888888889	26.31904761904762	55	127
25.66888888888889	26.31904761904762	64	127
25.66888888888889	26.31904761904762	48	127
26.330657596371882	26.469977324263038	64	127
26.330657596371882	27.062086167800455	48	127
26.330657596371882	27.062086167800455	55	127
26.469977324263038	26.551247165532878	65	127
26.551247165532878	26.644126984126984	64	127
26.644126984126984	26.737006802721087	65	127
26.737006802721087	26.80666666666667	64	127
26.80666666666667	26.88793650793651	65	127
26.88793650793651	26.96920634920635	64	127
26.96920634920635	27.073696145124718	65	127
27.073696145124718	27.35233560090703	57	127
27.073696145124718	27.36394557823129	72	127
27.073696145124718	27.65419501133787	48	127
27.36394557823129	27.65419501133787	64	127
27.36394557823129	27.65419501133787	58	127
27.66580498866213	29.349251700680274	67	127
27.66580498866213	29.349251700680274	64	127
27.66580498866213	29.349251700680274	60	127
27.66580498866213	27.88639455782313	53	127
27.66580498866213	29.349251700680274	58	127
28.281133786848073	28.490113378684807	48	127
29.349251700680274	30.394149659863945	60	127
29.349251700680274	30.394149659863945	53	127
29.349251700680274	30.394149659863945	57	127
29.349251700680274	30.394149659863945	65	127
30.91659863945578	31.775736961451248	36	127
31.78734693877551	32.34462585034014	48	127
31.78734693877551	32.75097505668934	55	127
31.78734693877551	32.75097505668934	58	127
31.78734693877551	32.75097505668934	64	127
32.3562358276644	32.95995464852608	48	127
32.97156462585034	33.62172335600907	62	127
32.97156462585034	33.62172335600907	58	127
32.97156462585034	33.62172335600907	48	127
32.97156462585034	33.62172335600907	53	127
33.63333333333333	34.562108843537416	36	127
34.57371882086168	35.16585034013605	48	127
34.57371882086168	35.618639455782315	52	127
34.57371882086168	35.618639455782315	58	127
34.57371882086168	35.618639455782315	60	127
35.177460317460316	35.80439909297052	48	127
35.81600907029478	36.489387755102044	48	127
35.81600907029478	36.489387755102044	58	127
35.81600907029478	36.489387755102044	53	127
35.81600907029478	36.489387755102044	62	127
36.500997732426306	37.093106575963716	55	127
36.500997732426306	37.093106575963716	58	127
36.500997732426306	37.093106575963716	64	127
36.500997732426306	37.093106575963716	36	127
37.10469387755102	37.801315192743765	48	127
37.10469387755102	37.801315192743765	62	127
37.10469387755102	37.801315192743765	58	127
37.10469387755102	37.801315192743765	53	127
37.81292517006803	38.451473922902494	36	127
37.81292517006803	38.451473922902494	55	127
37.81292517006803	38.451473922902494	58	127
37.81292517006803	38.451473922902494	64	127
38.47469387755102	39.15968253968254	48	127
38.47469387755102	39.15968253968254	65	127
38.47469387755102	39.15968253968254	60	127
38.47469387755102	39.15968253968254	57	127
39.171292517006805	40.61092970521542	57	127
39.171292517006805	40.61092970521542	60	127
39.171292517006805	40.61092970521542	63	127
39.171292517006805	40.61092970521542	66	127
39.171292517006805	39.879501133786846	36	127
39.89108843537415	40.57609977324263	48	127
40.61092970521542	41.48167800453515	48	127
40.61092970521542	41.50489795918367	67	127
40.61092970521542	41.50489795918367	64	127
40.61092970521542	41.50489795918367	60	127
40.61092970521542	41.50489795918367	58	127
41.50489795918367	41.8415873015873	48	127
41.50489795918367	42.27115646258503	58	127
41.50489795918367	42.27115646258503	60	127
41.50489795918367	42.27115646258503	68	127
41.8415873015873	42.015736961451246	50	127
42.015736961451246	42.27115646258503	52	127
42.27115646258503	43.153514739229024	60	127
42.27115646258503	42.549795918367344	53	127
42.27115646258503	43.153514739229024	57	127
42.27115646258503	43.153514739229024	69	127
43.16512471655329	44.2912925170068	41	127
43.16512471655329	44.48866213151928	57	127
43.16512471655329	44.2912925170068	29	127
44.48866213151928	44.88340136054422	43	127
44.48866213151928	44.88340136054422	31	127
44.48866213151928	44.89501133786848	58	127
44.89501133786848	45.19687074829932	60	127
44.89501133786848	45.185260770975056	33	127
44.89501133786848	45.185260770975056	45	127
45.19687074829932	45.97473922902494	34	127
45.19687074829932	45.97473922902494	62	127
45.19687074829932	45.97473922902494	46	127
45.986326530612246	47.263446712018144	31	127
45.986326530612246	47.472426303854874	58	127
45.986326530612246	47.263446712018144	43	127
47.472426303854874	47.84394557823129	60	127
47.472426303854874	47.82072562358277	33	127
47.472426303854874	47.82072562358277	45	127
47.84394557823129	48.1574149659864	62	127
47.84394557823129	48.1574149659864	34	127
47.84394557823129	48.1574149659864	46	127
48.16902494331066	48.86562358276644	55	127
48.16902494331066	48.83079365079365	36	127
48.86562358276644	49.59705215419501	55	127
48.86562358276644	49.58544217687075	48	127
49.59705215419501	50.30526077097505	48	127
49.59705215419501	49.68993197278912	55	127
49.68993197278912	49.78281179138322	57	127
49.78281179138322	49.8524716553288	55	127
49.8524716553288	49.93374149659864	57	127
49.93374149659864	50.00340136054422	55	127
50.00340136054422	50.1659410430839	57	127
50.1659410430839	50.24721088435374	55	127
50.24721088435374	50.31687074829932	57	127
50.31687074829932	51.036689342403626	48	127
50.31687074829932	50.63034013605442	57	127
50.63034013605442	51.036689342403626	58	127
51.04829931972789	51.24566893424036	41	127
51.04829931972789	52.56920634920635	58	127
51.04829931972789	52.56920634920635	52	127
51.04829931972789	52.56920634920635	48	127
51.7681179138322	52.00031746031746	36	127
52.56920634920635	53.25419501133787	53	127
52.56920634920635	52.778185941043084	41	127
52.56920634920635	53.25419501133787	48	127
52.56920634920635	53.25419501133787	57	127
53.26580498866213	54.34553287981859	69	127
53.26580498866213	54.98408163265306	60	127
53.26580498866213	54.33392290249433	53	127
53.26580498866213	54.33392290249433	57	127
54.34553287981859	54.972471655328796	55	127
54.34553287981859	54.98408163265306	67	127
54.34553287981859	54.972471655328796	52	127
54.98408163265306	55.66907029478458	72	127
54.98408163265306	55.65746031746032	48	127
54.98408163265306	55.65746031746032	55	127
54.98408163265306	55.66907029478458	64	127
54.98408163265306	56.23795918367347	60	127
55.66907029478458	56.42371882086168	53	127
55.66907029478458	56.42371882086168	57	127
55.66907029478458	56.43532879818594	65	127
55.66907029478458	56.43532879818594	69	127
56.43532879818594	57.108707482993196	65	127
56.43532879818594	57.108707482993196	60	127
56.43532879818594	57.108707482993196	57	127
57.13192743764172	57.88657596371882	67	127
57.13192743764172	57.88657596371882	55	127
57.13192743764172	57.88657596371882	52	127
57.13192743764172	57.88657596371882	60	127
57.89818594104308	58.60639455782313	55	127
57.89818594104308	58.60639455782313	64	127
57.89818594104308	58.60639455782313	72	127
57.89818594104308	58.60639455782313	48	127
57.89818594104308	59.21011337868481	60	127
58.61800453514739	59.395873015873015	65	127
58.61800453514739	59.395873015873015	69	127
58.61800453514739	59.395873015873015	53	127
58.61800453514739	59.395873015873015	57	127
59.41909297052154	60.02281179138322	62	127
59.41909297052154	60.02281179138322	65	127
59.41909297052154	60.02281179138322	69	127
59.41909297052154	60.02281179138322	77	127
59.41909297052154	60.02281179138322	50	127
59.41909297052154	60.02281179138322	57	127
60.03442176870748	60.661360544217686	65	127
60.03442176870748	60.661360544217686	55	127
60.03442176870748	60.661360544217686	71	127
60.03442176870748	60.661360544217686	62	127
60.03442176870748	60.661360544217686	59	127
60.67297052154195	61.71786848072562	79	127
60.67297052154195	61.71786848072562	67	127
60.67297052154195	61.71786848072562	55	127
60.67297052154195	61.71786848072562	59	127
62.47251700680272	62.832426303854874	57	127
62.47251700680272	63.15750566893424	77	127
62.47251700680272	63.15750566893424	67	127
62.47251700680272	62.832426303854874	60	127
62.844036281179136	63.15750566893424	62	127
62.844036281179136	63.15750566893424	59	127
63.169115646258504	63.91215419501134	76	127
63.169115646258504	63.91215419501134	60	127
63.169115646258504	63.91215419501134	72	127
63.169115646258504	63.91215419501134	67	127
63.169115646258504	63.91215419501134	64	127
63.95859410430839	64.62036281179138	74	127
63.95859410430839	64.62036281179138	65	127
63.95859410430839	64.62036281179138	67	127
63.95859410430839	64.62036281179138	71	127
63.95859410430839	64.62036281179138	62	127
64.63197278911565	65.29374149659864	67	127
64.63197278911565	65.29374149659864	72	127
64.63197278911565	65.29374149659864	64	127
65.3053514739229	65.99034013605443	53	127
65.3053514739229	65.99034013605443	69	127
65.3053514739229	65.99034013605443	72	127
65.3053514739229	65.99034013605443	74	127
65.3053514739229	65.99034013605443	65	127
66.00195011337868	67.22097505668934	76	127
66.00195011337868	67.22097505668934	72	127
66.00195011337868	67.22097505668934	55	127
66.00195011337868	67.22097505668934	67	127
67.4415873015873	68.55614512471655	77	127
67.4415873015873	68.69546485260771	65	127
67.4415873015873	68.69546485260771	71	127
67.4415873015873	68.69546485260771	43	127
67.4415873015873	68.69546485260771	55	127
68.57936507936508	68.93927437641723	74	127
68.9508843537415	69.85646258503401	72	127
68.9508843537415	69.85646258503401	64	127
68.9508843537415	72.65446712018141	60	127
68.9508843537415	73.90834467120182	48	127
69.86807256235828	70.50662131519275	64	127
69.86807256235828	70.50662131519275	67	127
70.51820861678004	71.26126984126984	69	127
70.51820861678004	71.26126984126984	65	127
71.2728798185941	71.95786848072562	62	127
71.2728798185941	71.95786848072562	71	127
71.96947845804989	72.65446712018141	72	127
71.96947845804989	72.65446712018141	64	127
72.6660544217687	73.38589569160997	74	127
72.6660544217687	73.38589569160997	67	127
72.6660544217687	73.38589569160997	59	127
73.39750566893424	74.12893424036281	60	127
73.39750566893424	74.12893424036281	72	127
73.39750566893424	74.12893424036281	76	127
74.14054421768708	80.22417233560091	48	127
74.14054421768708	74.6978231292517	71	127
74.14054421768708	74.6978231292517	77	127
74.14054421768708	74.89519274376417	55	127
74.709410430839	74.89519274376417	65	127
74.709410430839	74.89519274376417	74	127
74.90680272108844	75.64984126984127	72	127
74.90680272108844	75.64984126984127	60	127
74.90680272108844	75.64984126984127	64	127
75.66145124716553	75.74272108843537	67	127
75.66145124716553	76.31160997732427	52	127
75.75433106575964	75.84721088435374	69	127
75.85879818594104	75.92848072562359	67	127
75.94009070294784	75.99814058956916	69	127
76.00975056689343	76.079410430839	67	127
76.0909977324263	76.14907029478458	69	127
76.16068027210885	76.25356009070295	66	127
76.26517006802722	76.31160997732427	67	127
76.32321995464852	76.39287981859411	69	127
76.32321995464852	76.90371882086168	53	127
76.40448979591837	76.46253968253968	71	127
76.46253968253968	76.520589569161	69	127
76.54380952380953	76.60183673469388	71	127
76.6134693877551	76.67151927437642	69	127
76.68312925170068	76.7527664399093	71	127
76.76439909297052	76.82244897959184	68	127
76.8340589569161	76.90371882086168	69	127
76.91532879818594	76.97337868480726	71	127
76.91532879818594	77.60031746031746	50	127
76.98496598639456	77.07786848072563	72	127
77.08947845804988	77.15913832199547	71	127
77.17074829931973	77.29845804988662	72	127
77.32167800453514	77.37972789115646	71	127
77.39133786848073	77.4609977324263	72	127
77.47260770975056	77.53065759637188	69	127
77.54226757369615	77.60031746031746	71	127
77.62351473922902	78.26206349206349	52	127
77.62351473922902	77.6815873015873	72	127
77.69319727891157	77.76285714285714	74	127
77.77446712018141	77.84412698412699	72	127
77.86734693877551	77.92539682539683	74	127
77.93700680272109	78.0066439909297	72	127
78.01827664399093	78.07632653061225	74	127
78.0879365079365	78.19242630385487	71	127
78.20403628117914	78.26206349206349	72	127
78.27369614512472	79.05156462585035	55	127
78.27369614512472	78.34335600907029	74	127
78.35496598639456	78.42462585034014	76	127
78.44784580498866	78.58716553287982	74	127
78.6219954648526	78.68004535147392	76	127
78.69165532879819	78.73809523809524	74	127
78.77290249433106	78.83097505668934	76	127
78.84258503401361	78.92385487528345	72	127
78.94707482993198	79.05156462585035	74	127
79.0631746031746	79.12122448979592	76	127
79.0631746031746	79.79458049886621	60	127
79.13283446712018	79.22571428571429	77	127
79.23732426303854	79.29537414965986	76	127
79.30698412698413	79.37664399092971	77	127
79.388231292517	79.45791383219955	76	127
79.4695238095238	79.56240362811792	77	127
79.57401360544218	79.66687074829932	74	127
79.71333333333334	79.79458049886621	76	127
79.8178231292517	80.37510204081633	71	127
79.8178231292517	80.53761904761905	55	127
79.8178231292517	80.53761904761905	43	127
79.8178231292517	80.37510204081633	77	127
80.38671201814059	80.52603174603175	65	127
80.38671201814059	80.52603174603175	74	127
80.53761904761905	81.35034013605443	55	127
80.53761904761905	80.60730158730159	72	127
80.53761904761905	81.35034013605443	64	127
80.53761904761905	81.35034013605443	48	127
80.61891156462585	80.67696145124717	74	127
80.68854875283446	80.75823129251701	72	127
80.78145124716553	80.83950113378685	74	127
80.8859410430839	80.94399092970522	72	127
80.978820861678	81.11814058956917	74	127
81.12975056689342	81.21102040816326	72	127
81.22263038548753	81.35034013605443	74	127
81.36195011337868	82.09337868480726	43	127
81.36195011337868	81.87278911564626	77	127
81.36195011337868	82.09337868480726	55	127
81.36195011337868	81.87278911564626	71	127
81.88439909297053	82.09337868480726	74	127
81.88439909297053	82.09337868480726	65	127
82.10498866213152	82.82480725623583	55	127
82.10498866213152	82.16303854875284	72	127
82.10498866213152	82.82480725623583	64	127
82.10498866213152	82.82480725623583	48	127
82.17464852607709	82.23269841269841	74	127
82.25591836734694	82.31396825396826	72	127
82.32555555555555	82.38362811791383	74	127
82.3952380952381	82.47650793650794	72	127
82.49972789115647	82.58097505668934	74	127
82.63904761904762	82.70868480725623	72	127
82.72031746031746	82.82480725623583	74	127
82.83639455782313	83.4749433106576	77	127
82.83639455782313	83.73036281179138	43	127
82.83639455782313	83.4749433106576	71	127
82.83639455782313	83.73036281179138	55	127
83.48657596371882	83.73036281179138	65	127
83.48657596371882	83.73036281179138	74	127
83.74199546485261	84.53147392290249	48	127
83.74199546485261	84.53147392290249	60	127
83.74199546485261	84.54308390022676	64	127
83.74199546485261	84.54308390022676	72	127
84.54308390022676	85.3790022675737	65	127
84.54308390022676	85.36736961451247	60	127
84.54308390022676	85.3790022675737	62	127
84.54308390022676	85.3790022675737	70	127
85.3790022675737	86.23814058956916	69	127
85.3790022675737	86.23814058956916	64	127
85.3790022675737	86.2265306122449	60	127
86.23814058956916	86.92312925170069	48	127
86.23814058956916	86.93473922902494	62	127
86.23814058956916	86.93473922902494	67	127
86.23814058956916	86.93473922902494	58	127
86.93473922902494	87.36430839002267	48	127
86.93473922902494	87.37591836734694	65	127
86.93473922902494	87.37591836734694	60	127
86.93473922902494	87.37591836734694	57	127
87.37591836734694	87.6081179138322	64	127
87.37591836734694	87.6081179138322	55	127
87.37591836734694	87.6081179138322	58	127
87.37591836734694	89.9649433106576	36	127
87.37591836734694	89.9649433106576	48	127
88.1537641723356	89.34961451247166	55	127
88.1537641723356	89.34961451247166	64	127
88.1537641723356	89.34961451247166	58	127
89.60503401360545	90.2784126984127	53	127
89.60503401360545	91.09108843537415	58	127
89.60503401360545	90.2784126984127	62	127
90.2784126984127	92.9138775510204	48	127
90.2784126984127	91.09108843537415	52	127
90.2784126984127	91.09108843537415	60	127
90.2784126984127	92.9138775510204	36	127
91.10272108843537	92.20566893424036	52	127
91.10272108843537	92.20566893424036	58	127
91.10272108843537	92.20566893424036	60	127
92.43786848072563	93.27378684807256	53	127
92.43786848072563	93.27378684807256	62	127
92.43786848072563	93.27378684807256	58	127
93.30861678004536	93.97038548752835	55	127
93.30861678004536	93.97038548752835	64	127
93.30861678004536	94.36510204081632	48	127
93.30861678004536	93.97038548752835	58	127
93.98197278911564	94.66698412698413	53	127
93.98197278911564	94.66698412698413	62	127
93.98197278911564	94.66698412698413	58	127
94.37673469387755	94.51603174603174	46	127
94.53927437641724	94.66698412698413	45	127
94.67859410430839	95.3635827664399	58	127
94.67859410430839	95.3635827664399	60	127
94.67859410430839	95.3635827664399	43	127
94.67859410430839	95.3635827664399	48	127
94.67859410430839	95.3635827664399	64	127
94.67859410430839	95.3635827664399	55	127
95.37519274376417	96.08340136054422	57	127
95.37519274376417	96.08340136054422	60	127
95.37519274376417	96.08340136054422	65	127
95.37519274376417	96.08340136054422	41	127
95.37519274376417	96.08340136054422	48	127
96.09501133786848	97.88294784580499	58	127
96.09501133786848	97.24439909297053	66	127
96.09501133786848	97.88294784580499	60	127
96.09501133786848	96.78	40	127
96.09501133786848	96.78	48	127
96.80321995464853	97.88294784580499	52	127
97.44176870748299	98.1964172335601	67	127
98.20802721088435	99.12521541950113	58	127
98.20802721088435	99.12521541950113	60	127
98.20802721088435	98.7885260770975	36	127
98.20802721088435	99.12521541950113	68	127
98.7885260770975	98.93945578231292	38	127
98.93945578231292	99.14843537414966	40	127
99.14843537414966	101.21501133786848	69	127
99.14843537414966	99.48512471655329	41	127
99.14843537414966	100.00757369614513	57	127
99.14843537414966	100.00757369614513	60	127
100.03079365079365	101.21501133786848	41	127
100.03079365079365	101.21501133786848	53	127
100.03079365079365	101.21501133786848	57	127
101.42399092970521	101.79551020408164	58	127
101.42399092970521	101.79551020408164	43	127
101.42399092970521	102.13219954648527	65	127
101.80712018140589	102.13219954648527	60	127
101.80712018140589	102.13219954648527	45	127
102.15541950113379	102.94489795918368	62	127
102.15541950113379	102.94489795918368	53	127
102.15541950113379	102.94489795918368	46	127
102.95650793650793	104.22199546485261	55	127
102.95650793650793	104.22199546485261	43	127
102.95650793650793	104.41936507936508	58	127
102.95650793650793	104.41936507936508	70	127
104.41936507936508	105.16240362811791	55	127
104.41936507936508	104.81410430839003	45	127
104.41936507936508	104.82571428571428	60	127
104.41936507936508	104.82571428571428	69	127
104.82571428571428	105.16240362811791	62	127
104.82571428571428	105.16240362811791	67	127
104.82571428571428	105.16240362811791	46	127
105.17401360544218	105.47587301587302	65	127
105.17401360544218	105.80095238095238	55	127
105.17401360544218	105.80095238095238	48	127
105.47587301587302	105.67324263038549	64	127
105.81256235827665	106.55560090702947	64	127
105.81256235827665	106.55560090702947	48	127
105.81256235827665	106.55560090702947	55	127
106.56721088435374	107.32185941043083	55	127
106.56721088435374	107.32185941043083	48	127
106.56721088435374	106.64848072562359	64	127
106.64848072562359	106.71814058956916	65	127
106.71814058956916	106.799410430839	64	127
106.799410430839	106.86907029478458	65	127
106.86907029478458	106.98517006802722	64	127
106.98517006802722	107.05482993197279	65	127
107.05482993197279	107.240589569161	64	127
107.240589569161	107.3334693877551	65	127
107.3334693877551	107.68176870748299	72	127
107.3334693877551	108.07650793650794	48	127
107.3334693877551	107.67015873015873	57	127
107.68176870748299	108.07650793650794	64	127
107.68176870748299	108.07650793650794	58	127
108.08811791383219	109.6902947845805	67	127
108.08811791383219	109.6902947845805	60	127
108.08811791383219	109.6902947845805	64	127
108.08811791383219	109.6902947845805	58	127
108.08811791383219	108.29709750566893	53	127
108.83115646258503	109.26072562358277	48	127
109.6902947845805	110.5378231292517	53	127
109.6902947845805	110.5378231292517	65	127
109.6902947845805	110.5378231292517	60	127
109.6902947845805	110.5378231292517	57	127
110.56104308390023	112.01229024943311	60	127
110.56104308390023	111.26925170068027	41	127
110.56104308390023	112.01229024943311	48	127
110.56104308390023	111.26925170068027	57	127
111.28086167800454	112.01229024943311	40	127
111.28086167800454	112.01229024943311	55	127
112.02390022675738	112.73210884353742	55	127
112.02390022675738	112.73210884353742	48	127
112.02390022675738	112.73210884353742	36	127
112.02390022675738	112.73210884353742	52	127
112.02390022675738	112.73210884353742	60	127
112.74371882086167	113.35904761904762	48	127
112.74371882086167	113.35904761904762	53	127
112.74371882086167	113.35904761904762	57	127
112.74371882086167	113.35904761904762	60	127
112.74371882086167	113.35904761904762	41	127
113.37065759637188	114.83351473922903	60	127
113.37065759637188	114.11369614512472	45	127
113.37065759637188	114.11369614512472	48	127
113.37065759637188	114.12530612244898	53	127
114.12530612244898	114.83351473922903	40	127
114.12530612244898	114.83351473922903	48	127
114.12530612244898	114.83351473922903	55	127
114.84512471655329	115.5301133786848	55	127
114.84512471655329	115.5301133786848	48	127
114.84512471655329	116.28476190476191	60	127
114.84512471655329	115.5301133786848	52	127
114.84512471655329	115.5301133786848	36	127
115.55333333333333	116.28476190476191	53	127
115.55333333333333	116.28476190476191	41	127
115.55333333333333	116.28476190476191	48	127
115.55333333333333	116.28476190476191	57	127
116.29637188208616	116.9117006802721	38	127
116.29637188208616	117.78244897959183	50	127
116.29637188208616	116.92331065759637	65	127
116.29637188208616	116.92331065759637	57	127
116.29637188208616	116.92331065759637	53	127
116.92331065759637	117.78244897959183	59	127
116.92331065759637	117.78244897959183	53	127
116.92331065759637	117.78244897959183	43	127
117.81727891156463	119.24530612244898	43	127
117.81727891156463	119.24530612244898	67	127
117.81727891156463	119.24530612244898	31	127
117.81727891156463	119.24530612244898	55	127
117.81727891156463	119.24530612244898	59	127
119.24530612244898	119.59360544217687	33	127
119.24530612244898	119.59360544217687	60	127
119.24530612244898	119.59360544217687	45	127
119.24530612244898	119.94190476190477	55	127
119.24530612244898	119.94190476190477	65	127
119.59360544217687	119.94190476190477	47	127
119.59360544217687	119.94190476190477	62	127
119.59360544217687	119.94190476190477	35	127
119.95351473922902	120.62689342403628	48	127
119.95351473922902	120.62689342403628	60	127
119.95351473922902	120.62689342403628	55	127
119.95351473922902	120.62689342403628	64	127
119.95351473922902	120.62689342403628	36	127
120.63850340136054	121.3467120181406	55	127
120.63850340136054	121.3467120181406	62	127
120.63850340136054	121.3467120181406	38	127
120.63850340136054	121.3467120181406	50	127
120.63850340136054	121.3467120181406	53	127
120.63850340136054	121.3467120181406	59	127
121.35832199546485	122.02009070294784	60	127
121.35832199546485	122.02009070294784	40	127
121.35832199546485	122.02009070294784	52	127
121.35832199546485	122.02009070294784	55	127
122.03170068027211	122.7282993197279	57	127
122.03170068027211	122.7282993197279	62	127
122.03170068027211	122.7282993197279	41	127
122.03170068027211	122.7282993197279	53	127
122.03170068027211	122.7282993197279	60	127
122.73990929705215	123.91251700680272	60	127
122.73990929705215	123.91251700680272	55	127
122.73990929705215	123.91251700680272	43	127
122.73990929705215	123.91251700680272	64	127
124.13310657596372	125.22444444444444	53	127
124.13310657596372	125.22444444444444	55	127
124.13310657596372	125.22444444444444	59	127
124.13310657596372	125.22444444444444	62	127
124.13310657596372	125.22444444444444	31	127
124.13310657596372	125.22444444444444	43	127
125.56113378684807	126.31578231292517	52	127
125.56113378684807	126.31578231292517	60	127
125.56113378684807	129.17183673469387	48	127
125.56113378684807	130.34444444444443	36	127
126.32739229024943	127.058820861678	55	127
126.32739229024943	127.058820861678	52	127
127.058820861678	127.73219954648526	57	127
127.058820861678	127.73219954648526	53	127
127.73219954648526	128.45199546485262	50	127
127.73219954648526	128.45199546485262	59	127
128.45199546485262	129.18344671201814	60	127
128.45199546485262	129.18344671201814	52	127
129.18344671201814	129.89165532879818	62	127
129.18344671201814	129.88002267573697	47	127
129.18344671201814	129.89165532879818	55	127
129.89165532879818	130.59986394557822	55	127
129.89165532879818	130.59986394557822	64	127
129.89165532879818	130.58825396825398	48	127
130.59986394557822	131.2384126984127	59	127
130.59986394557822	135.85916099773243	36	127
130.59986394557822	131.4125396825397	43	127
130.59986394557822	131.2384126984127	65	127
131.2384126984127	131.4125396825397	53	127
131.2384126984127	131.4125396825397	62	127
131.43578231292517	132.132358276644	52	127
131.43578231292517	132.132358276644	60	127
131.43578231292517	134.7562358276644	48	127
132.1439909297052	132.5271201814059	52	127
132.5271201814059	132.840589569161	55	127
132.840589569161	133.17727891156463	53	127
133.17727891156463	133.47913832199546	57	127
133.47913832199546	133.82743764172335	50	127
133.82743764172335	134.1292970521542	59	127
134.1292970521542	134.43113378684808	52	127
134.43113378684808	134.76784580498867	60	127
134.76784580498867	135.04646258503402	55	127
134.76784580498867	135.33673469387756	47	127
135.04646258503402	135.35995464852607	62	127
135.35995464852607	135.75469387755103	60	127
135.35995464852607	136.0449433106576	48	127
135.75469387755103	136.05655328798187	64	127
136.05655328798187	136.46290249433108	59	127
136.05655328798187	136.77637188208618	31	127
136.05655328798187	136.77637188208618	43	127
136.05655328798187	136.46290249433108	65	127
136.46290249433108	136.7647619047619	53	127
136.46290249433108	136.7647619047619	62	127
136.77637188208618	137.07823129251702	52	127
136.77637188208618	137.06662131519275	43	127
136.77637188208618	137.06662131519275	36	127
137.07823129251702	137.49616780045352	60	127
137.49616780045352	137.82126984126984	59	127
137.49616780045352	138.12312925170068	31	127
137.49616780045352	138.12312925170068	43	127
137.49616780045352	137.82126984126984	65	127
137.82126984126984	138.11149659863946	53	127
137.82126984126984	138.11149659863946	62	127
138.12312925170068	138.401768707483	36	127
138.12312925170068	138.401768707483	43	127
138.12312925170068	138.41337868480727	52	127
138.41337868480727	138.92421768707484	60	127
138.92421768707484	139.6556462585034	31	127
138.92421768707484	139.31895691609978	59	127
138.92421768707484	139.31895691609978	65	127
138.92421768707484	139.6556462585034	43	127
139.31895691609978	139.64401360544218	53	127
139.31895691609978	139.64401360544218	62	127
139.6556462585034	140.56120181405896	60	127
139.6556462585034	140.54961451247166	48	127
139.6556462585034	140.54961451247166	36	127
139.6556462585034	140.56120181405896	52	127
140.56120181405896	141.3507029478458	48	127
140.56120181405896	141.36231292517007	62	127
140.56120181405896	141.36231292517007	65	127
140.56120181405896	141.36231292517007	70	127
141.36231292517007	142.08213151927438	48	127
141.36231292517007	142.09374149659865	60	127
141.36231292517007	142.09374149659865	64	127
141.36231292517007	142.09374149659865	69	127
142.09374149659865	142.8019501133787	48	127
142.09374149659865	142.813537414966	58	127
142.09374149659865	142.813537414966	62	127
142.09374149659865	142.813537414966	67	127
142.813537414966	143.15024943310658	60	127
142.813537414966	143.15024943310658	65	127
142.813537414966	143.15024943310658	48	127
142.813537414966	143.15024943310658	57	127
143.16185941043085	143.78879818594103	55	127
143.16185941043085	143.78879818594103	64	127
143.16185941043085	145.46063492063493	48	127
143.16185941043085	145.46063492063493	36	127
143.16185941043085	143.78879818594103	58	127
143.8004081632653	144.92657596371882	64	127
143.8004081632653	144.92657596371882	55	127
143.8004081632653	144.92657596371882	58	127
145.14716553287982	145.78571428571428	58	127
145.14716553287982	145.78571428571428	62	127
145.14716553287982	145.78571428571428	53	127
145.78571428571428	146.42426303854876	52	127
145.78571428571428	146.42426303854876	58	127
145.78571428571428	146.42426303854876	60	127
145.78571428571428	148.0380498866213	36	127
145.78571428571428	148.0380498866213	48	127
146.43587301587303	147.52721088435374	52	127
146.43587301587303	147.52721088435374	58	127
146.43587301587303	147.52721088435374	60	127
147.73619047619047	148.33990929705215	53	127
147.73619047619047	148.33990929705215	62	127
147.73619047619047	148.33990929705215	58	127
148.33990929705215	149.0016553287982	55	127
148.33990929705215	149.0016553287982	64	127
148.33990929705215	148.53725623582767	36	127
148.33990929705215	149.0016553287982	58	127
148.53725623582767	149.31514739229024	48	127
149.0132879818594	149.62861678004535	62	127
149.0132879818594	149.62861678004535	58	127
149.0132879818594	149.62861678004535	53	127
149.3267573696145	149.47768707482993	46	127
149.4892970521542	149.62861678004535	45	127
149.64022675736962	150.29038548752834	60	127
149.64022675736962	150.29038548752834	64	127
149.64022675736962	150.29038548752834	43	127
149.64022675736962	150.29038548752834	48	127
149.64022675736962	150.29038548752834	55	127
149.64022675736962	150.29038548752834	58	127
150.3019954648526	150.95215419501133	57	127
150.3019954648526	150.95215419501133	48	127
150.3019954648526	150.95215419501133	41	127
150.3019954648526	150.95215419501133	65	127
150.3019954648526	150.95215419501133	60	127
150.97537414965987	152.8213605442177	58	127
150.97537414965987	152.3453514739229	66	127
150.97537414965987	152.8213605442177	60	127
150.97537414965987	151.61392290249432	40	127
150.97537414965987	151.61392290249432	48	127
151.61392290249432	152.8213605442177	52	127
152.3453514739229	153.07678004535148	67	127
153.07678004535148	153.9591156462585	60	127
153.07678004535148	153.9591156462585	68	127
153.07678004535148	153.51795918367347	36	127
153.07678004535148	153.9591156462585	58	127
153.51795918367347	153.70369614512472	38	127
153.70369614512472	153.97074829931972	40	127
153.97074829931972	154.1681179138322	41	127
153.97074829931972	154.7021768707483	57	127
153.97074829931972	154.7021768707483	60	127
153.97074829931972	154.7021768707483	69	127
154.71378684807257	155.8399546485261	29	127
154.71378684807257	156.03732426303856	57	127
154.71378684807257	155.8399546485261	41	127
156.03732426303856	156.42045351473922	58	127
156.03732426303856	156.42045351473922	31	127
156.03732426303856	156.42045351473922	43	127
156.42045351473922	156.78036281179138	45	127
156.42045351473922	156.78036281179138	60	127
156.42045351473922	156.78036281179138	33	127
156.78036281179138	157.5001814058957	62	127
156.78036281179138	157.5001814058957	46	127
156.78036281179138	157.5001814058957	34	127
157.51179138321996	158.96303854875285	58	127
157.51179138321996	158.96303854875285	70	127
157.51179138321996	158.96303854875285	31	127
157.51179138321996	158.96303854875285	43	127
158.96303854875285	159.2881179138322	60	127
158.96303854875285	159.2881179138322	69	127
158.96303854875285	159.2881179138322	33	127
158.96303854875285	159.2881179138322	45	127
159.2881179138322	159.6015873015873	67	127
159.2881179138322	159.61319727891157	34	127
159.2881179138322	159.61319727891157	46	127
159.2881179138322	159.6015873015873	62	127
159.61319727891157	159.9150566893424	65	127
159.61319727891157	160.3214058956916	36	127
159.61319727891157	160.3214058956916	48	127
159.9150566893424	160.12403628117914	64	127
160.33301587301588	160.95993197278912	55	127
160.33301587301588	160.95993197278912	36	127
160.33301587301588	160.95993197278912	48	127
160.33301587301588	160.95993197278912	64	127
160.97156462585033	161.61011337868482	36	127
160.97156462585033	161.6217006802721	55	127
160.97156462585033	161.61011337868482	64	127
160.97156462585033	161.61011337868482	48	127
161.6217006802721	162.4344217687075	64	127
161.6217006802721	162.4344217687075	36	127
161.6217006802721	162.4344217687075	48	127
161.6217006802721	161.98160997732427	57	127
161.98160997732427	162.4344217687075	58	127
162.44603174603174	164.0946485260771	64	127
162.44603174603174	164.0946485260771	60	127
162.44603174603174	162.678231292517	41	127
162.44603174603174	162.678231292517	53	127
162.44603174603174	164.0946485260771	67	127
162.44603174603174	164.0946485260771	58	127
163.27034013605441	163.47931972789115	48	127
163.27034013605441	163.47931972789115	36	127
164.0946485260771	165.3020634920635	53	127
164.0946485260771	165.3020634920635	57	127
164.0946485260771	165.3020634920635	60	127
164.0946485260771	165.3020634920635	65	127
164.0946485260771	165.3020634920635	41	127
165.3136961451247	165.49945578231294	53	127
165.3136961451247	165.44140589569162	77	127
165.44140589569162	165.51104308390023	79	127
165.51104308390023	165.59233560090703	77	127
165.5691156462585	165.68521541950113	57	127
165.59233560090703	165.66197278911565	79	127
165.66197278911565	165.73165532879818	77	127
165.73165532879818	165.80131519274377	79	127
165.75487528344672	165.8825850340136	60	127
165.80131519274377	165.8825850340136	77	127
165.8825850340136	165.9522448979592	79	127
165.9522448979592	166.62562358276645	76	127
165.9522448979592	166.11478458049888	55	127
166.18444444444444	166.32376417233561	58	127
166.4166439909297	166.5443537414966	60	127
166.63721088435375	166.75333333333333	55	127
166.63721088435375	167.56603174603174	88	127
166.63721088435375	168.12331065759636	48	127
166.63721088435375	167.56603174603174	76	127
166.82299319727892	166.96231292517007	58	127
167.03197278911566	167.13646258503402	60	127
167.19448979591837	167.32222222222222	55	127
167.3918820861678	167.50798185941042	58	127
167.56603174603174	167.68213151927438	60	127
167.75179138321997	167.8330612244898	74	127
167.75179138321997	167.87950113378685	53	127
167.8330612244898	167.90272108843538	76	127
167.90272108843538	167.97238095238095	74	127
167.93755102040816	168.0536507936508	57	127
167.97238095238095	168.018820861678	76	127
168.018820861678	168.08848072562358	74	127
168.08848072562358	168.15814058956917	76	127
168.12331065759636	168.239410430839	60	127
168.15814058956917	168.22780045351473	74	127
168.22780045351473	168.3090702947846	76	127
168.3090702947846	168.42514739229026	52	127
168.3090702947846	168.85473922902494	48	127
168.3090702947846	168.85473922902494	72	127
168.48321995464852	168.59931972789116	55	127
168.68056689342404	168.81990929705216	60	127
168.8663492063492	169.80673469387756	84	127
168.8663492063492	168.98242630385488	52	127
168.8663492063492	169.80673469387756	72	127
168.8663492063492	170.3756462585034	48	127
169.0521088435374	169.15659863945578	55	127
169.2146485260771	169.34233560090703	60	127
169.41201814058957	169.53972789115647	52	127
169.60938775510203	169.73709750566894	55	127
169.80673469387756	169.9344671201814	60	127
170.004126984127	170.13183673469388	53	127
170.004126984127	170.06215419501135	74	127
170.07378684807256	170.14344671201815	76	127
170.15505668934242	170.22471655328798	74	127
170.21308390022676	170.31757369614513	57	127
170.23632653061225	170.30598639455783	76	127
170.31757369614513	170.35242630385488	74	127
170.35242630385488	170.42208616780044	76	127
170.3756462585034	170.53818594104308	60	127
170.4336961451247	170.51496598639457	74	127
170.5265759637188	170.58462585034013	76	127
170.60784580498867	170.72392290249434	64	127
170.60784580498867	171.15351473922902	48	127
170.60784580498867	170.72392290249434	55	127
170.79360544217687	170.9097052154195	58	127
170.79360544217687	170.9097052154195	76	127
170.96775510204083	171.0954648526077	60	127
170.96775510204083	171.0954648526077	64	127
171.1651247165533	171.29283446712017	74	127
171.1651247165533	171.29283446712017	53	127
171.1651247165533	171.71079365079365	48	127
171.3508843537415	171.46698412698413	62	127
171.3508843537415	171.46698412698413	57	127
171.53664399092972	171.65274376417233	60	127
171.53664399092972	171.65274376417233	74	127
171.72240362811792	171.85009070294785	46	127
171.72240362811792	171.85009070294785	64	127
171.90816326530611	172.02426303854875	76	127
171.90816326530611	172.02426303854875	55	127
171.90816326530611	172.02426303854875	72	127
172.09392290249434	172.1984126984127	58	127
172.09392290249434	172.1984126984127	64	127
172.25643990929706	172.37256235827664	77	127
172.25643990929706	172.37256235827664	72	127
172.25643990929706	172.37256235827664	45	127
172.44222222222223	172.5699319727891	65	127
172.44222222222223	172.5699319727891	53	127
172.6395918367347	172.77891156462584	72	127
172.6395918367347	172.77891156462584	57	127
172.6395918367347	172.77891156462584	77	127
172.83696145124716	172.9530612244898	40	127
172.83696145124716	172.9530612244898	66	127
173.01111111111112	173.15043083900227	72	127
173.01111111111112	173.15043083900227	55	127
173.01111111111112	173.15043083900227	78	127
173.22009070294786	173.34780045351474	60	127
173.22009070294786	173.34780045351474	66	127
173.41746031746032	173.533537414966	79	127
173.41746031746032	173.533537414966	72	127
173.41746031746032	173.533537414966	52	127
173.60321995464852	173.7077097505669	67	127
173.60321995464852	173.7077097505669	55	127
173.77736961451248	173.88185941043085	79	127
173.77736961451248	173.88185941043085	72	127
173.77736961451248	173.88185941043085	60	127
173.9515192743764	174.0908390022676	67	127
173.9515192743764	174.0908390022676	52	127
174.16049886621315	174.31142857142856	79	127
174.16049886621315	174.31142857142856	72	127
174.16049886621315	174.31142857142856	55	127
174.38108843537415	174.48557823129252	67	127
174.38108843537415	174.48557823129252	60	127
174.55521541950114	174.69455782312926	40	127
174.55521541950114	174.69455782312926	72	127
174.55521541950114	174.69455782312926	80	127
174.7409977324263	174.84548752834468	68	127
174.7409977324263	174.84548752834468	56	127
174.903537414966	175.01961451247166	60	127
174.903537414966	175.01961451247166	80	127
174.903537414966	175.01961451247166	72	127
175.0892970521542	175.19378684807256	41	127
175.0892970521542	175.19378684807256	69	127
175.3098866213152	175.44920634920635	81	127
175.3098866213152	175.44920634920635	57	127
175.50725623582767	175.83231292517007	81	127
175.50725623582767	175.63496598639455	60	127
175.70462585034014	175.83231292517007	41	127
175.9019954648526	176.0297052154195	81	127
175.9019954648526	176.0297052154195	53	127
176.09936507936507	176.2154648526077	57	127
176.09936507936507	176.2154648526077	81	127
176.2851247165533	176.3780045351474	43	127
176.447641723356	176.49410430839004	81	127
176.447641723356	176.57537414965986	55	127
176.49410430839004	176.54054421768708	82	127
176.54054421768708	176.62181405895691	81	127
176.62181405895691	176.74952380952382	58	127
176.62181405895691	176.74952380952382	79	127
176.80755102040817	176.91204081632654	45	127
176.80755102040817	176.8540136054422	79	127
176.8540136054422	176.90045351473924	81	127
176.90045351473924	176.98172335600907	79	127
176.98172335600907	177.12104308390022	77	127
176.98172335600907	177.12104308390022	57	127
177.20231292517008	177.36485260770976	60	127
177.20231292517008	177.36485260770976	76	127
177.43451247165532	177.48095238095237	76	127
177.43451247165532	177.56222222222223	46	127
177.48095238095237	177.52739229024942	77	127
177.52739229024942	177.6318820861678	76	127
177.6318820861678	177.73637188208616	58	127
177.6318820861678	177.73637188208616	74	127
177.84086167800453	177.96857142857144	62	127
177.84086167800453	178.22399092970522	82	127
178.038231292517	178.1659410430839	43	127
178.22399092970522	178.31687074829932	82	127
178.22399092970522	178.31687074829932	55	127
178.3865306122449	178.50263038548752	82	127
178.3865306122449	178.50263038548752	58	127
178.5722902494331	178.63034013605443	45	127
178.69997732426305	178.7580498866213	82	127
178.69997732426305	178.83931972789117	57	127
178.7580498866213	178.80448979591836	84	127
178.80448979591836	178.89736961451248	82	127
178.89736961451248	179.00183673469388	81	127
178.89736961451248	179.00183673469388	60	127
179.0715192743764	179.18761904761905	46	127
179.0715192743764	179.11795918367346	81	127
179.11795918367346	179.15278911564627	82	127
179.15278911564627	179.25725623582767	81	127
179.25725623582767	179.37337868480725	58	127
179.25725623582767	179.37337868480725	79	127
179.44303854875284	179.57074829931972	77	127
179.44303854875284	179.57074829931972	62	127
179.6404081632653	179.74489795918367	55	127
179.6404081632653	179.69845804988663	77	127
179.6404081632653	179.74489795918367	48	127
179.69845804988663	179.7216553287982	79	127
179.7216553287982	179.81455782312926	77	127
179.81455782312926	179.94226757369614	58	127
179.81455782312926	179.94226757369614	76	127
180.01192743764173	180.1396371882086	60	127
180.01192743764173	180.1396371882086	84	127
180.2092970521542	180.25573696145125	77	127
180.2092970521542	180.34861678004535	36	127
180.25573696145125	180.32539682539684	79	127
180.32539682539684	180.41827664399094	77	127
180.41827664399094	180.53437641723357	76	127
180.41827664399094	180.53437641723357	58	127
180.60403628117913	180.73174603174604	60	127
180.60403628117913	180.73174603174604	85	127
180.8014058956916	180.8478231292517	77	127
180.8014058956916	180.90589569160997	55	127
180.8014058956916	180.90589569160997	48	127
180.8478231292517	180.88267573696146	79	127
180.88267573696146	180.9639455782313	77	127
180.9639455782313	181.0568253968254	76	127
180.9639455782313	181.0568253968254	58	127
181.12648526077098	181.26580498866213	60	127
181.12648526077098	181.26580498866213	86	127
181.32385487528344	181.38190476190476	77	127
181.32385487528344	181.45156462585035	55	127
181.32385487528344	181.45156462585035	48	127
181.38190476190476	181.4283446712018	79	127
181.4283446712018	181.5212244897959	77	127
181.5212244897959	181.64893424036282	76	127
181.5212244897959	181.64893424036282	58	127
181.71859410430838	181.83469387755102	60	127
181.71859410430838	181.83469387755102	84	127
181.9043537414966	182.02043083900227	55	127
181.9043537414966	181.9391836734694	77	127
181.9043537414966	182.02043083900227	53	127
181.9391836734694	181.9972335600907	79	127
181.9972335600907	182.0901133786848	77	127
182.0901133786848	182.2178231292517	58	127
182.0901133786848	182.2178231292517	76	127
182.28748299319727	182.39197278911564	84	127
182.28748299319727	182.39197278911564	60	127
182.46163265306123	182.51968253968255	65	127
182.46163265306123	182.5893424036281	48	127
182.46163265306123	182.5893424036281	55	127
182.51968253968255	182.55451247165533	67	127
182.55451247165533	182.64739229024943	65	127
182.64739229024943	182.76349206349207	64	127
182.64739229024943	182.76349206349207	58	127
182.82154195011339	183.05374149659863	60	127
182.82154195011339	183.05374149659863	72	127
183.11179138321995	183.83160997732426	57	127
183.11179138321995	183.83160997732426	65	127
183.11179138321995	183.83160997732426	53	127
183.84321995464853	183.92448979591836	77	127
183.84321995464853	183.9709297052154	53	127
183.92448979591836	183.99414965986395	79	127
183.99414965986395	184.07541950113378	77	127
184.040589569161	184.17990929705215	57	127
184.07541950113378	184.14507936507937	79	127
184.14507936507937	184.21473922902496	77	127
184.21473922902496	184.2960090702948	79	127
184.24956916099774	184.36566893424038	60	127
184.2960090702948	184.3540589569161	77	127
184.3540589569161	184.4469387755102	79	127
184.4469387755102	185.00421768707483	76	127
184.4469387755102	184.57462585034014	55	127
184.64430839002267	184.77201814058958	58	127
184.84167800453514	184.96938775510205	60	127
185.02743764172337	186.57154195011339	48	127
185.02743764172337	185.96784580498866	88	127
185.02743764172337	185.96784580498866	76	127
185.02743764172337	185.13192743764174	55	127
185.2015873015873	185.3292970521542	58	127
185.38734693877552	185.50344671201813	60	127
185.57310657596372	185.71242630385487	55	127
185.7704761904762	185.8981859410431	58	127
185.96784580498866	186.09555555555556	60	127
186.15360544217688	186.2697052154195	53	127
186.15360544217688	186.22326530612244	74	127
186.22326530612244	186.29292517006803	76	127
186.29292517006803	186.38580498866213	74	127
186.35097505668935	186.50190476190477	57	127
186.38580498866213	186.47868480725623	76	127
186.47868480725623	186.54834467120182	74	127
186.54834467120182	186.62961451247165	76	127
186.57154195011339	186.69927437641724	60	127
186.62961451247165	186.68766439909297	74	127
186.68766439909297	186.75732426303856	76	127
186.75732426303856	187.2797732426304	72	127
186.75732426303856	186.8734240362812	52	127
186.75732426303856	187.2797732426304	48	127
186.93145124716554	187.04757369614512	55	127
187.1172335600907	187.22172335600908	60	127
187.29138321995464	187.40748299319728	52	127
187.29138321995464	188.81229024943312	48	127
187.29138321995464	188.20854875283447	84	127
187.29138321995464	188.20854875283447	72	127
187.4655328798186	187.5584126984127	55	127
187.62807256235828	187.75578231292516	60	127
187.82544217687075	187.9415419501134	52	127
188.01120181405895	188.13891156462586	55	127
188.20854875283447	188.3478911564626	60	127
188.41755102040815	188.55687074829933	53	127
188.41755102040815	188.47560090702947	74	127
188.48721088435374	188.55687074829933	76	127
188.58009070294784	188.6265306122449	74	127
188.6265306122449	188.7542403628118	57	127
188.63814058956916	188.69619047619048	76	127
188.70780045351475	188.7774603174603	74	127
188.78907029478458	188.8471201814059	76	127
188.81229024943312	188.92839002267573	60	127
188.85873015873017	188.9167800453515	74	127
188.92839002267573	188.98643990929705	76	127
188.99804988662132	189.10253968253969	64	127
188.99804988662132	189.52049886621316	48	127
188.99804988662132	189.10253968253969	55	127
189.17219954648527	189.27666666666667	76	127
189.17219954648527	189.27666666666667	58	127
189.3463492063492	189.46244897959184	64	127
189.3463492063492	189.46244897959184	60	127
189.53208616780046	189.64820861678004	53	127
189.53208616780046	190.07777777777778	48	127
189.53208616780046	189.64820861678004	74	127
189.71786848072563	189.83396825396827	62	127
189.71786848072563	189.83396825396827	57	127
189.90362811791383	190.01972789115646	74	127
189.90362811791383	190.01972789115646	60	127
190.08938775510205	190.21709750566893	46	127
190.08938775510205	190.21709750566893	64	127
190.26353741496598	190.36802721088435	72	127
190.26353741496598	190.36802721088435	55	127
190.26353741496598	190.36802721088435	76	127
190.43768707482994	190.55378684807258	58	127
190.43768707482994	190.55378684807258	64	127
190.64666666666668	190.77437641723355	72	127
190.64666666666668	190.77437641723355	77	127
190.64666666666668	190.77437641723355	45	127
190.84403628117914	190.9485260770975	65	127
190.84403628117914	190.9485260770975	53	127
190.9833560090703	191.1110657596372	72	127
190.9833560090703	191.1110657596372	57	127
190.9833560090703	191.1110657596372	77	127
191.19233560090703	191.2968253968254	40	127
191.19233560090703	191.2968253968254	66	127
191.366485260771	191.5174149659864	72	127
191.366485260771	191.5174149659864	55	127
191.366485260771	191.5174149659864	78	127
191.57546485260772	191.67995464852606	60	127
191.57546485260772	191.67995464852606	66	127
191.74961451247165	191.87732426303856	79	127
191.74961451247165	191.87732426303856	72	127
191.74961451247165	191.87732426303856	52	127
191.94698412698412	192.06308390022676	67	127
191.94698412698412	192.06308390022676	55	127
192.13274376417235	192.24884353741496	79	127
192.13274376417235	192.24884353741496	72	127
192.13274376417235	192.24884353741496	60	127
192.31850340136054	192.44621315192742	67	127
192.31850340136054	192.44621315192742	52	127
192.50426303854874	192.6087528344671	55	127
192.50426303854874	192.6087528344671	72	127
192.50426303854874	192.6087528344671	79	127
192.6784126984127	192.79451247165534	60	127
192.6784126984127	192.79451247165534	67	127
192.8641723356009	193.01510204081632	80	127
192.8641723356009	193.01510204081632	40	127
192.8641723356009	193.01510204081632	72	127
193.0847619047619	193.21247165532878	56	127
193.0847619047619	193.21247165532878	68	127
193.2705215419501	193.398231292517	72	127
193.2705215419501	193.398231292517	60	127
193.2705215419501	193.398231292517	80	127
193.4678911564626	193.57238095238094	41	127
193.4678911564626	193.57238095238094	69	127
193.64204081632653	193.79297052154195	81	127
193.64204081632653	193.79297052154195	57	127
193.86263038548753	193.9903401360544	60	127
193.86263038548753	194.17609977324264	81	127
194.03678004535146	194.17609977324264	41	127
194.23414965986396	194.36185941043084	53	127
194.23414965986396	194.36185941043084	81	127
194.43151927437643	194.52439909297053	81	127
194.43151927437643	194.52439909297053	57	127
194.5940589569161	194.721768707483	43	127
194.79142857142858	194.89591836734695	55	127
194.79142857142858	194.84947845804987	81	127
194.84947845804987	194.8726984126984	82	127
194.8726984126984	194.95396825396824	81	127
194.95396825396824	195.0352380952381	79	127
194.95396825396824	195.0352380952381	58	127
195.10489795918366	195.2209977324263	45	127
195.10489795918366	195.13972789115647	79	127
195.13972789115647	195.18616780045352	81	127
195.18616780045352	195.27904761904762	79	127
195.27904761904762	195.40675736961452	57	127
195.27904761904762	195.40675736961452	77	127
195.46480725623582	195.6273469387755	76	127
195.46480725623582	195.6273469387755	60	127
195.67378684807255	195.82471655328797	46	127
195.67378684807255	195.73183673469387	76	127
195.73183673469387	195.77827664399092	77	127
195.77827664399092	195.89437641723356	76	127
195.89437641723356	195.99886621315193	74	127
195.89437641723356	195.99886621315193	58	127
196.08013605442176	196.20784580498866	62	127
196.08013605442176	196.42843537414967	82	127
196.26589569160998	196.37038548752835	43	127
196.4400453514739	196.56775510204082	82	127
196.4400453514739	196.56775510204082	55	127
196.63741496598638	196.7302947845805	58	127
196.63741496598638	196.7302947845805	82	127
196.77673469387756	196.84639455782312	45	127
196.9160544217687	197.0437641723356	57	127
196.9160544217687	196.96249433106576	82	127
196.96249433106576	197.02054421768707	84	127
197.02054421768707	197.09020408163266	82	127
197.09020408163266	197.2295238095238	60	127
197.09020408163266	197.2295238095238	81	127
197.28757369614513	197.42689342403628	46	127
197.28757369614513	197.34562358276645	81	127
197.34562358276645	197.3920634920635	82	127
197.3920634920635	197.4849433106576	81	127
197.4849433106576	197.61265306122448	79	127
197.4849433106576	197.61265306122448	58	127
197.68231292517007	197.78680272108843	62	127
197.68231292517007	197.78680272108843	77	127
197.85646258503402	197.94934240362812	48	127
197.85646258503402	197.94934240362812	55	127
197.85646258503402	197.8912925170068	77	127
197.8912925170068	197.91451247165534	79	127
197.91451247165534	198.01900226757368	77	127
198.01900226757368	198.16993197278913	76	127
198.01900226757368	198.16993197278913	58	127
198.21637188208618	198.34408163265306	60	127
198.21637188208618	198.34408163265306	84	127
198.41374149659865	198.54145124716553	36	127
198.41374149659865	198.4601814058957	77	127
198.4601814058957	198.50662131519275	79	127
198.50662131519275	198.59950113378684	77	127
198.59950113378684	198.71560090702948	76	127
198.59950113378684	198.71560090702948	58	127
198.78526077097504	198.92458049886622	60	127
198.78526077097504	198.92458049886622	85	127
198.99424036281178	199.11034013605442	55	127
198.99424036281178	199.04068027210883	77	127
198.99424036281178	199.11034013605442	48	127
199.04068027210883	199.07551020408164	79	127
199.07551020408164	199.18	77	127
199.18	199.26126984126984	76	127
199.18	199.26126984126984	58	127
199.33092970521542	199.4586394557823	86	127
199.33092970521542	199.4586394557823	60	127
199.5282993197279	199.57473922902494	77	127
199.5282993197279	199.64439909297053	55	127
199.5282993197279	199.64439909297053	48	127
199.57473922902494	199.621179138322	79	127
199.621179138322	199.70244897959185	77	127
199.70244897959185	199.81854875283446	76	127
199.70244897959185	199.81854875283446	58	127
199.88820861678005	200.01591836734693	60	127
199.88820861678005	200.01591836734693	84	127
200.07396825396825	200.19006802721088	55	127
200.07396825396825	200.10879818594105	77	127
200.07396825396825	200.19006802721088	53	127
200.10879818594105	200.1552380952381	79	127
200.1552380952381	200.23650793650793	77	127
200.23650793650793	200.35260770975057	58	127
200.23650793650793	200.35260770975057	76	127
200.42226757369613	200.57319727891158	60	127
200.42226757369613	200.57319727891158	84	127
200.64285714285714	200.77056689342405	55	127
200.64285714285714	200.6892970521542	65	127
200.64285714285714	200.77056689342405	48	127
200.6892970521542	200.73573696145124	67	127
200.73573696145124	200.82861678004537	65	127
200.82861678004537	200.9331065759637	58	127
200.82861678004537	200.9331065759637	64	127
201.0027664399093	201.2233560090703	60	127
201.0027664399093	201.2233560090703	72	127
201.29301587301586	201.93156462585034	57	127
201.29301587301586	201.93156462585034	65	127
201.29301587301586	201.93156462585034	53	127
201.9431746031746	202.0708843537415	41	127
201.9431746031746	202.0708843537415	69	127
202.14054421768708	202.3611337868481	57	127
202.14054421768708	202.3611337868481	48	127
202.3611337868481	202.54689342403628	60	127
202.3611337868481	202.54689342403628	53	127
202.55850340136055	202.7210430839002	40	127
202.55850340136055	202.66299319727892	67	127
202.73265306122448	202.8835827664399	48	127
202.73265306122448	202.89519274376417	55	127
202.89519274376417	203.08095238095237	60	127
202.89519274376417	203.08095238095237	52	127
203.09256235827664	203.20866213151928	72	127
203.09256235827664	203.25510204081633	36	127
203.25510204081633	203.4524716553288	64	127
203.25510204081633	203.44086167800452	48	127
203.4524716553288	203.66145124716553	67	127
203.4524716553288	203.66145124716553	52	127
203.6730612244898	203.82399092970522	69	127
203.6730612244898	203.88204081632654	41	127
203.88204081632654	204.03297052154196	48	127
203.88204081632654	204.04458049886622	57	127
204.04458049886622	204.2419501133787	60	127
204.04458049886622	204.2419501133787	53	127
204.25356009070296	204.36965986394557	65	127
204.25356009070296	204.4277097505669	45	127
204.43931972789116	204.62507936507936	57	127
204.43931972789116	204.6134693877551	48	127
204.62507936507936	204.79922902494332	60	127
204.62507936507936	204.79922902494332	53	127
204.81083900226758	204.97337868480724	40	127
204.81083900226758	204.9269387755102	67	127
204.99659863945578	205.15913832199547	48	127
204.99659863945578	205.17074829931974	55	127
205.17074829931974	205.35650793650794	60	127
205.17074829931974	205.35650793650794	52	127
205.3681179138322	205.48421768707482	72	127
205.3681179138322	205.5306575963719	36	127
205.54226757369614	205.7164172335601	64	127
205.54226757369614	205.70480725623582	48	127
205.7164172335601	205.92539682539683	52	127
205.7164172335601	205.92539682539683	67	127
205.9370068027211	206.04149659863947	69	127
205.9370068027211	206.09954648526076	41	127
206.11115646258503	206.29691609977326	60	127
206.11115646258503	206.285306122449	53	127
206.29691609977326	206.47106575963718	65	127
206.29691609977326	206.47106575963718	57	127
206.48267573696145	206.58716553287982	77	127
206.48267573696145	206.64521541950114	38	127
206.65682539682538	206.8425850340136	65	127
206.65682539682538	206.83097505668934	50	127
206.8425850340136	207.0283446712018	69	127
206.8425850340136	207.0283446712018	53	127
207.03995464852608	207.21410430839003	43	127
207.03995464852608	207.16766439909298	71	127
207.22571428571428	207.35342403628118	55	127
207.22571428571428	207.36503401360545	62	127
207.36503401360545	207.53918367346938	59	127
207.36503401360545	207.53918367346938	67	127
207.55079365079365	207.67850340136056	79	127
207.55079365079365	207.73655328798185	43	127
207.74816326530612	207.93392290249434	67	127
207.74816326530612	207.92231292517008	55	127
207.93392290249434	208.10807256235827	71	127
207.93392290249434	208.10807256235827	59	127
208.10807256235827	208.29383219954647	45	127
208.10807256235827	208.23578231292518	79	127
208.30544217687074	208.49120181405897	57	127
208.30544217687074	208.5028117913832	67	127
208.5028117913832	208.68857142857144	60	127
208.5028117913832	208.68857142857144	72	127
208.7001814058957	208.81628117913831	77	127
208.7001814058957	208.87433106575963	47	127
208.8859410430839	209.08331065759637	59	127
208.8859410430839	209.1065306122449	67	127
209.1065306122449	209.25746031746033	74	127
209.1065306122449	209.25746031746033	62	127
209.26907029478457	209.4548299319728	48	127
209.26907029478457	209.39678004535148	76	127
209.4548299319728	209.65219954648526	67	127
209.4548299319728	209.62897959183672	60	127
209.65219954648526	209.83795918367346	72	127
209.65219954648526	209.83795918367346	64	127
209.84956916099773	209.98888888888888	74	127
209.84956916099773	210.03532879818593	50	127
210.0469387755102	210.22108843537416	55	127
210.0469387755102	210.23269841269843	65	127
210.23269841269843	210.41845804988662	59	127
210.23269841269843	210.41845804988662	71	127
210.4300680272109	210.5809977324263	52	127
210.4300680272109	210.522947845805	72	127
210.59260770975058	210.72031746031746	67	127
210.59260770975058	210.7667573696145	60	127
210.77836734693878	210.89446712018142	72	127
210.77836734693878	210.96412698412698	52	127
210.97573696145125	211.13827664399093	60	127
210.97573696145125	211.09183673469389	69	127
211.1498866213152	211.27759637188208	74	127
211.1498866213152	211.3356462585034	53	127
211.34725623582767	211.48657596371882	69	127
211.34725623582767	211.53301587301587	60	127
211.54462585034014	211.70716553287983	55	127
211.54462585034014	211.6491156462585	76	127
211.71877551020407	211.86970521541951	60	127
211.71877551020407	211.88131519274376	67	127
211.88131519274376	212.07868480725622	72	127
211.88131519274376	212.07868480725622	64	127
212.0902947845805	212.20639455782313	76	127
212.0902947845805	212.26444444444445	55	127
212.27605442176872	212.42698412698414	67	127
212.27605442176872	212.41537414965987	61	127
212.42698412698414	212.61274376417234	73	127
212.42698412698414	212.61274376417234	64	127
212.6243537414966	212.75206349206348	77	127
212.6243537414966	212.83333333333334	55	127
212.84494331065758	212.995873015873	67	127
212.84494331065758	212.98426303854876	62	127
212.995873015873	213.18163265306123	71	127
212.995873015873	213.18163265306123	65	127
213.20485260770974	213.33256235827665	77	127
213.20485260770974	213.39061224489797	43	127
213.40222222222224	213.61120181405894	67	127
213.40222222222224	213.5995918367347	55	127
213.61120181405894	213.82018140589568	59	127
213.61120181405894	213.82018140589568	65	127
213.61120181405894	213.82018140589568	74	127
213.83179138321995	214.02916099773242	48	127
213.83179138321995	214.0407709750567	64	127
213.83179138321995	214.0407709750567	72	127
214.0407709750567	214.24975056689343	60	127
214.2613605442177	214.4471201814059	60	127
214.45873015873016	214.65609977324263	48	127
214.45873015873016	215.0740589569161	67	127
214.45873015873016	215.0740589569161	79	127
214.6677097505669	214.8534693877551	64	127
214.6677097505669	214.8534693877551	60	127
214.86507936507937	215.05083900226757	60	127
214.86507936507937	215.05083900226757	64	127
215.0740589569161	215.6661678004535	69	127
215.0740589569161	215.27142857142857	48	127
215.0740589569161	215.6661678004535	81	127
215.28303854875284	215.46879818594104	65	127
215.28303854875284	215.46879818594104	60	127
215.4804081632653	215.65455782312924	60	127
215.4804081632653	215.65455782312924	65	127
215.6661678004535	216.26988662131518	71	127
215.6661678004535	215.85192743764173	48	127
215.6661678004535	216.26988662131518	83	127
215.86353741496598	216.0725170068027	62	127
215.86353741496598	216.0725170068027	60	127
216.08412698412698	216.25827664399094	60	127
216.08412698412698	216.25827664399094	62	127
216.26988662131518	216.8619954648526	72	127
216.26988662131518	216.46725623582768	48	127
216.26988662131518	216.8619954648526	84	127
216.47886621315192	216.62979591836734	64	127
216.47886621315192	216.62979591836734	60	127
216.6414058956916	216.85038548752834	60	127
216.6414058956916	216.85038548752834	64	127
216.8619954648526	217.45410430839001	74	127
216.8619954648526	217.05936507936508	48	127
216.8619954648526	217.45410430839001	86	127
217.07097505668935	217.25673469387755	59	127
217.07097505668935	217.25673469387755	55	127
217.26834467120182	217.44249433106575	55	127
217.26834467120182	217.44249433106575	59	127
217.45410430839001	218.0578231292517	76	127
217.45410430839001	218.0578231292517	88	127
217.45410430839001	217.67469387755102	48	127
217.6863038548753	217.84884353741498	60	127
217.6863038548753	217.84884353741498	55	127
217.86045351473922	218.04621315192745	55	127
217.86045351473922	218.04621315192745	60	127
218.0578231292517	218.48739229024943	89	127
218.0578231292517	218.2784126984127	48	127
218.0578231292517	218.48739229024943	77	127
218.29002267573696	218.4293424036281	59	127
218.29002267573696	218.4293424036281	53	127
218.29002267573696	218.4293424036281	55	127
218.4293424036281	218.62671201814058	59	127
218.4293424036281	218.62671201814058	53	127
218.4293424036281	218.62671201814058	55	127
218.48739229024943	218.62671201814058	86	127
218.48739229024943	218.62671201814058	74	127
218.63832199546485	218.76603174603176	72	127
218.63832199546485	218.82408163265305	48	127
218.83569160997732	218.998231292517	52	127
218.83569160997732	218.998231292517	55	127
218.83569160997732	218.998231292517	60	127
218.83569160997732	218.9401814058957	84	127
219.00984126984127	219.19560090702947	55	127
219.00984126984127	219.13755102040815	72	127
219.00984126984127	219.19560090702947	60	127
219.00984126984127	219.19560090702947	52	127
219.20721088435374	219.35814058956916	79	127
219.20721088435374	219.4045804988662	48	127
219.42780045351475	219.60195011337868	60	127
219.42780045351475	219.60195011337868	64	127
219.42780045351475	219.54390022675736	67	127
219.61356009070295	219.79931972789115	64	127
219.61356009070295	219.74126984126985	79	127
219.61356009070295	219.79931972789115	60	127
219.81092970521541	219.99668934240364	48	127
219.81092970521541	219.93863945578232	69	127
220.00829931972788	220.1592290249433	81	127
220.00829931972788	220.1940589569161	60	127
220.00829931972788	220.1940589569161	65	127
220.20566893424035	220.31015873015872	69	127
220.20566893424035	220.36820861678004	65	127
220.20566893424035	220.36820861678004	60	127
220.36820861678004	220.55396825396826	48	127
220.36820861678004	220.49591836734695	83	127
220.5655782312925	220.75133786848073	60	127
220.5655782312925	220.6932879818594	71	127
220.5655782312925	220.75133786848073	62	127
220.762947845805	220.93709750566893	62	127
220.762947845805	220.89065759637188	83	127
220.762947845805	220.93709750566893	60	127
220.9487074829932	221.07641723356008	72	127
220.9487074829932	221.12285714285716	48	127
221.14607709750567	221.29700680272109	60	127
221.14607709750567	221.23895691609977	84	127
221.14607709750567	221.29700680272109	64	127
221.30861678004536	221.5175963718821	64	127
221.30861678004536	221.5175963718821	60	127
221.30861678004536	221.4479365079365	72	127
221.52920634920636	221.65691609977324	86	127
221.52920634920636	221.71496598639456	48	127
221.72657596371883	221.91233560090703	55	127
221.72657596371883	221.86589569160998	74	127
221.72657596371883	221.91233560090703	59	127
221.9239455782313	222.02843537414967	86	127
221.9239455782313	222.08648526077098	59	127
221.9239455782313	222.08648526077098	55	127
222.09809523809523	222.2374149659864	76	127
222.09809523809523	222.29546485260772	48	127
222.30707482993196	222.48122448979592	55	127
222.30707482993196	222.48122448979592	60	127
222.30707482993196	222.44639455782314	88	127
222.48122448979592	222.62054421768707	55	127
222.48122448979592	222.5857142857143	76	127
222.48122448979592	222.62054421768707	60	127
222.63215419501134	222.8295238095238	89	127
222.63215419501134	222.81791383219954	43	127
222.8295238095238	223.00367346938776	55	127
222.8295238095238	223.00367346938776	59	127
222.8295238095238	223.015283446712	77	127
222.8295238095238	223.00367346938776	53	127
223.015283446712	223.20104308390023	59	127
223.015283446712	223.20104308390023	55	127
223.015283446712	223.20104308390023	53	127
223.015283446712	223.20104308390023	86	127
223.2126530612245	223.38680272108843	48	127
223.2126530612245	223.3287528344671	76	127
223.3984126984127	223.5841723356009	55	127
223.3984126984127	223.5841723356009	60	127
223.3984126984127	223.53773242630385	84	127
223.3984126984127	223.5841723356009	52	127
223.60739229024944	223.79315192743763	52	127
223.60739229024944	223.73510204081632	76	127
223.60739229024944	223.79315192743763	55	127
223.60739229024944	223.79315192743763	60	127
223.8047619047619	223.9905215419501	43	127
223.8047619047619	224.00213151927437	89	127
224.00213151927437	224.1878911564626	77	127
224.00213151927437	224.1878911564626	53	127
224.00213151927437	224.1878911564626	55	127
224.00213151927437	224.1878911564626	59	127
224.1878911564626	224.35043083900226	59	127
224.1878911564626	224.35043083900226	55	127
224.1878911564626	224.35043083900226	53	127
224.1878911564626	224.35043083900226	86	127
224.36204081632653	224.53619047619048	48	127
224.36204081632653	224.47814058956916	76	127
224.54780045351475	224.73356009070295	55	127
224.54780045351475	224.73356009070295	60	127
224.54780045351475	224.66390022675736	84	127
224.54780045351475	224.73356009070295	52	127
224.74517006802722	224.89609977324264	55	127
224.74517006802722	224.8496598639456	76	127
224.74517006802722	224.89609977324264	52	127
224.74517006802722	224.89609977324264	60	127
224.90770975056688	225.13990929705216	43	127
224.90770975056688	225.15151927437643	89	127
225.15151927437643	225.32566893424035	59	127
225.15151927437643	225.3488888888889	77	127
225.15151927437643	225.32566893424035	53	127
225.15151927437643	225.32566893424035	55	127
225.3488888888889	225.48820861678004	55	127
225.3488888888889	225.48820861678004	59	127
225.3488888888889	225.48820861678004	86	127
225.3488888888889	225.48820861678004	53	127
225.4998185941043	225.70879818594105	48	127
225.4998185941043	225.72040816326532	86	127
225.72040816326532	225.8481179138322	84	127
225.72040816326532	225.90616780045352	60	127
225.72040816326532	225.90616780045352	64	127
225.9177777777778	226.09192743764171	60	127
225.9177777777778	226.09192743764171	64	127
225.9177777777778	226.04548752834467	84	127
226.10353741496598	226.30090702947845	48	127
226.31251700680272	226.48666666666668	74	127
226.31251700680272	226.48666666666668	82	127
226.31251700680272	226.48666666666668	62	127
226.31251700680272	226.48666666666668	65	127
226.31251700680272	226.48666666666668	77	127
226.49827664399092	226.68403628117915	77	127
226.49827664399092	226.68403628117915	62	127
226.49827664399092	226.68403628117915	65	127
226.49827664399092	226.68403628117915	82	127
226.49827664399092	226.68403628117915	74	127
226.6956462585034	226.8814058956916	48	127
226.89301587301588	227.10199546485262	72	127
226.89301587301588	227.10199546485262	81	127
226.89301587301588	227.10199546485262	60	127
226.89301587301588	227.10199546485262	64	127
226.89301587301588	227.10199546485262	76	127
227.11360544217686	227.2993650793651	72	127
227.11360544217686	227.2993650793651	64	127
227.11360544217686	227.2993650793651	60	127
227.11360544217686	227.2993650793651	81	127
227.11360544217686	227.2993650793651	76	127
227.31097505668933	227.4851247165533	48	127
227.49673469387756	227.7289342403628	74	127
227.49673469387756	227.7289342403628	79	127
227.49673469387756	227.7289342403628	58	127
227.49673469387756	227.7289342403628	62	127
227.49673469387756	227.7289342403628	70	127
227.74054421768707	227.99596371882086	69	127
227.74054421768707	227.99596371882086	60	127
227.74054421768707	227.99596371882086	57	127
227.74054421768707	227.99596371882086	77	127
227.74054421768707	227.99596371882086	72	127
228.0191836734694	228.23977324263038	76	127
228.0191836734694	228.15850340136055	55	127
228.0191836734694	228.23977324263038	67	127
228.0191836734694	228.23977324263038	70	127
228.0191836734694	228.23977324263038	72	127
228.0191836734694	228.97120181405896	48	127
228.23977324263038	228.36748299319729	58	127
228.43714285714285	228.5416326530612	60	127
228.6112925170068	229.59814058956917	72	127
228.6112925170068	228.7390022675737	55	127
228.6112925170068	229.59814058956917	76	127
228.6112925170068	229.59814058956917	67	127
228.6112925170068	229.59814058956917	70	127
228.80866213151927	228.9247619047619	58	127
228.97120181405896	229.09891156462584	60	127
229.16857142857143	229.29628117913833	55	127
229.38916099773243	229.52848072562358	58	127
229.59814058956917	229.71424036281178	60	127
229.7722902494331	229.87678004535147	53	127
229.7722902494331	230.37600907029477	69	127
229.7722902494331	230.37600907029477	48	127
229.7722902494331	229.81873015873015	74	127
229.7722902494331	230.37600907029477	65	127
229.83034013605442	229.87678004535147	76	127
229.88839002267574	229.95804988662132	74	127
229.94643990929706	230.0625396825397	57	127
229.96965986394557	230.01609977324264	76	127
230.02770975056688	230.09736961451247	74	127
230.10897959183674	230.1786394557823	76	127
230.13219954648525	230.29473922902494	60	127
230.2134693877551	230.28312925170067	74	127
230.29473922902494	230.37600907029477	76	127
230.38761904761904	230.5849886621315	67	127
230.38761904761904	231.30480725623582	48	127
230.38761904761904	230.5849886621315	64	127
230.38761904761904	230.5849886621315	72	127
230.38761904761904	230.52693877551022	52	127
230.5849886621315	230.73591836734693	55	127
230.80557823129251	230.91006802721088	60	127
230.97972789115647	231.8736961451247	64	127
230.97972789115647	231.8736961451247	72	127
230.97972789115647	231.09582766439908	52	127
230.97972789115647	231.8736961451247	67	127
231.14226757369613	231.23514739229026	55	127
231.30480725623582	231.444126984127	60	127
231.51378684807256	231.64149659863946	52	127
231.67632653061224	231.80403628117915	55	127
231.8736961451247	232.00140589569162	60	127
232.07106575963718	232.14072562358277	74	127
232.07106575963718	232.61673469387756	48	127
232.07106575963718	232.61673469387756	69	127
232.07106575963718	232.61673469387756	65	127
232.07106575963718	232.21038548752836	53	127
232.15233560090704	232.21038548752836	76	127
232.2219954648526	232.29165532879819	74	127
232.26843537414965	232.39614512471655	57	127
232.30326530612246	232.36131519274377	76	127
232.36131519274377	232.4193650793651	74	127
232.43097505668933	232.48902494331065	76	127
232.45419501133787	232.5702947845805	60	127
232.50063492063492	232.54707482993197	74	127
232.55868480725624	232.61673469387756	76	127
232.6283446712018	233.20884353741496	48	127
232.6283446712018	232.73283446712017	55	127
232.6283446712018	232.73283446712017	72	127
232.6283446712018	232.73283446712017	64	127
232.7908843537415	232.90698412698413	76	127
232.7908843537415	232.90698412698413	72	127
232.7908843537415	232.90698412698413	58	127
232.98825396825396	233.15079365079364	60	127
232.98825396825396	233.15079365079364	64	127
233.22045351473923	233.3481632653061	53	127
233.22045351473923	233.78934240362813	48	127
233.22045351473923	233.3481632653061	72	127
233.22045351473923	233.3481632653061	74	127
233.40621315192743	233.53392290249434	57	127
233.40621315192743	233.53392290249434	62	127
233.6035827664399	233.7312925170068	60	127
233.6035827664399	233.7312925170068	72	127
233.6035827664399	233.7312925170068	74	127
233.80095238095237	233.917052154195	64	127
233.80095238095237	233.9518820861678	46	127
233.96349206349205	234.0795918367347	72	127
233.96349206349205	234.137641723356	55	127
233.96349206349205	234.0795918367347	76	127
234.14925170068028	234.3234013605442	58	127
234.14925170068028	234.2653514739229	64	127
234.33501133786848	234.50916099773244	45	127
234.33501133786848	234.45111111111112	77	127
234.33501133786848	234.45111111111112	72	127
234.52077097505668	234.63687074829932	65	127
234.52077097505668	234.68331065759637	53	127
234.69492063492063	234.83424036281178	77	127
234.69492063492063	234.8922902494331	57	127
234.69492063492063	234.83424036281178	72	127
234.90390022675737	235.07804988662133	40	127
234.90390022675737	235.02	66	127
235.08965986394557	235.2754195011338	55	127
235.08965986394557	235.21736961451248	72	127
235.08965986394557	235.21736961451248	78	127
235.08965986394557	235.2754195011338	60	127
235.28702947845804	235.40312925170068	66	127
235.28702947845804	235.44956916099773	55	127
235.28702947845804	235.44956916099773	60	127
235.461179138322	235.6469387755102	52	127
235.461179138322	235.60049886621314	72	127
235.461179138322	235.60049886621314	79	127
235.7049886621315	235.80947845804988	67	127
235.7049886621315	235.8675283446712	55	127
235.7049886621315	235.8675283446712	60	127
235.8675283446712	236.00684807256235	55	127
235.8675283446712	235.94879818594103	72	127
235.8675283446712	235.94879818594103	79	127
235.8675283446712	236.00684807256235	60	127
236.01845804988662	236.2158276643991	52	127
236.01845804988662	236.14616780045353	67	127
236.22743764172336	236.3667573696145	72	127
236.22743764172336	236.41319727891155	60	127
236.22743764172336	236.41319727891155	55	127
236.22743764172336	236.3667573696145	79	127
236.42480725623582	236.5873469387755	55	127
236.42480725623582	236.5292970521542	67	127
236.42480725623582	236.5873469387755	60	127
236.59895691609978	236.72666666666666	72	127
236.59895691609978	236.78471655328798	40	127
236.59895691609978	236.72666666666666	80	127
236.78471655328798	236.98208616780045	60	127
236.78471655328798	236.92403628117913	68	127
236.78471655328798	236.98208616780045	56	127
236.99369614512472	237.1794557823129	60	127
236.99369614512472	237.10979591836735	72	127
236.99369614512472	237.10979591836735	80	127
236.99369614512472	237.1794557823129	56	127
237.19106575963718	237.33038548752833	69	127
237.19106575963718	237.40004535147392	41	127
237.42326530612246	237.5974149659864	57	127
237.42326530612246	237.5974149659864	60	127
237.42326530612246	237.52775510204083	81	127
237.60902494331066	237.78317460317461	60	127
237.60902494331066	237.78317460317461	57	127
237.60902494331066	237.92249433106576	81	127
237.79478458049886	237.98054421768708	41	127
237.99215419501132	238.16630385487528	57	127
237.99215419501132	238.11986394557823	81	127
237.99215419501132	238.16630385487528	53	127
238.17791383219955	238.32884353741497	53	127
238.17791383219955	238.27079365079365	81	127
238.17791383219955	238.32884353741497	57	127
238.34045351473924	238.49138321995466	43	127
238.50299319727893	238.5378231292517	81	127
238.50299319727893	238.66553287981858	58	127
238.50299319727893	238.66553287981858	55	127
238.5378231292517	238.58426303854876	82	127
238.58426303854876	238.66553287981858	81	127
238.66553287981858	238.83968253968254	55	127
238.66553287981858	238.77002267573695	79	127
238.66553287981858	238.83968253968254	58	127
238.8512925170068	239.06027210884355	45	127
238.8512925170068	238.90934240362813	79	127
238.90934240362813	238.96739229024942	81	127
238.96739229024942	239.0718820861678	79	127
239.0718820861678	239.23442176870748	60	127
239.0718820861678	239.23442176870748	57	127
239.0718820861678	239.18798185941043	77	127
239.24603174603175	239.40857142857143	60	127
239.24603174603175	239.35052154195012	76	127
239.24603174603175	239.40857142857143	57	127
239.40857142857143	239.478231292517	76	127
239.40857142857143	239.6059410430839	46	127
239.478231292517	239.5362811791383	77	127
239.5362811791383	239.61755102040817	76	127
239.61755102040817	239.80331065759637	62	127
239.61755102040817	239.75687074829932	74	127
239.61755102040817	239.80331065759637	58	127
239.8265306122449	239.98907029478457	58	127
239.8265306122449	239.98907029478457	62	127
239.8265306122449	240.1748299319728	82	127
240.00068027210884	240.1748299319728	43	127
240.18643990929706	240.360589569161	58	127
240.18643990929706	240.30253968253967	82	127
240.18643990929706	240.360589569161	55	127
240.37219954648526	240.54634920634922	55	127
240.37219954648526	240.49990929705214	82	127
240.37219954648526	240.54634920634922	58	127
240.55795918367346	240.70888888888888	45	127
240.72049886621315	240.7669387755102	82	127
240.72049886621315	240.8946485260771	60	127
240.72049886621315	240.8946485260771	57	127
240.7669387755102	240.801768707483	84	127
240.801768707483	240.8946485260771	82	127
240.8946485260771	241.04557823129252	60	127
240.8946485260771	240.9875283446712	81	127
240.8946485260771	241.04557823129252	57	127
241.0571882086168	241.10362811791384	81	127
241.0571882086168	241.242947845805	46	127
241.10362811791384	241.16167800453513	82	127
241.16167800453513	241.25455782312926	81	127
241.25455782312926	241.44031746031746	58	127
241.25455782312926	241.37065759637187	79	127
241.25455782312926	241.44031746031746	62	127
241.45192743764173	241.61446712018142	62	127
241.45192743764173	241.5564172335601	77	127
241.45192743764173	241.61446712018142	58	127
241.62607709750566	241.80022675736961	48	127
241.62607709750566	241.67251700680274	77	127
241.67251700680274	241.71895691609978	79	127
241.71895691609978	241.81183673469388	77	127
241.81183673469388	242.00920634920635	60	127
241.81183673469388	242.00920634920635	58	127
241.81183673469388	242.00920634920635	55	127
241.81183673469388	241.95115646258503	76	127
242.03242630385486	242.20657596371882	60	127
242.03242630385486	242.16013605442177	84	127
242.03242630385486	242.20657596371882	55	127
242.03242630385486	242.20657596371882	58	127
242.2181859410431	242.4039455782313	36	127
242.2181859410431	242.2762358276644	77	127
242.2762358276644	242.3110657596372	79	127
242.3110657596372	242.41555555555556	77	127
242.41555555555556	242.60131519274375	55	127
242.41555555555556	242.60131519274375	58	127
242.41555555555556	242.60131519274375	60	127
242.41555555555556	242.54326530612244	76	127
242.61292517006802	242.7754648526077	55	127
242.61292517006802	242.7754648526077	60	127
242.61292517006802	242.7754648526077	58	127
242.61292517006802	242.7174149659864	85	127
242.78707482993198	242.94961451247167	48	127
242.78707482993198	242.82190476190476	77	127
242.82190476190476	242.8683446712018	79	127
242.8683446712018	242.9612244897959	77	127
242.9612244897959	243.05410430839	76	127
242.9612244897959	243.11215419501133	60	127
242.9612244897959	243.11215419501133	58	127
242.9612244897959	243.11215419501133	55	127
243.1237641723356	243.26308390022675	60	127
243.1237641723356	243.2166439909297	86	127
243.1237641723356	243.26308390022675	55	127
243.1237641723356	243.26308390022675	58	127
243.27469387755102	243.44884353741497	48	127
243.27469387755102	243.3095238095238	77	127
243.3095238095238	243.35596371882087	79	127
243.35596371882087	243.46045351473924	77	127
243.46045351473924	243.63460317460317	60	127
243.46045351473924	243.63460317460317	58	127
243.46045351473924	243.63460317460317	55	127
243.46045351473924	243.57655328798185	76	127
243.64621315192744	243.82036281179137	60	127
243.64621315192744	243.77392290249432	84	127
243.64621315192744	243.82036281179137	55	127
243.64621315192744	243.82036281179137	58	127
243.83197278911564	244.0293424036281	53	127
243.83197278911564	243.8784126984127	77	127
243.8784126984127	243.936462585034	79	127
243.936462585034	244.04095238095238	77	127
244.04095238095238	244.1918820861678	55	127
244.04095238095238	244.13383219954648	76	127
244.04095238095238	244.1918820861678	58	127
244.04095238095238	244.1918820861678	60	127
244.20349206349206	244.38925170068026	60	127
244.20349206349206	244.33120181405894	84	127
244.20349206349206	244.38925170068026	55	127
244.20349206349206	244.38925170068026	58	127
244.4124716553288	244.62145124716554	48	127
244.4124716553288	244.47052154195012	65	127
244.47052154195012	244.51696145124717	67	127
244.51696145124717	244.6330612244898	65	127
244.6330612244898	244.83043083900228	55	127
244.6330612244898	244.83043083900228	58	127
244.6330612244898	244.83043083900228	60	127
244.6330612244898	244.77238095238096	64	127
244.84204081632652	245.039410430839	55	127
244.84204081632652	245.039410430839	58	127
244.84204081632652	245.039410430839	60	127
244.84204081632652	244.9813605442177	72	127
245.05102040816325	245.68956916099773	60	127
245.05102040816325	245.68956916099773	57	127
245.05102040816325	245.68956916099773	53	127
245.05102040816325	245.68956916099773	65	127
245.71278911564625	245.84049886621315	41	127
245.71278911564625	245.84049886621315	69	127
245.91015873015874	246.1075283446712	57	127
245.91015873015874	246.1075283446712	48	127
246.1075283446712	246.2932879818594	60	127
246.1075283446712	246.2932879818594	53	127
246.30489795918368	246.4558276643991	40	127
246.30489795918368	246.40938775510205	67	127
246.46743764172336	246.65319727891156	48	127
246.46743764172336	246.66480725623583	55	127
246.66480725623583	246.80412698412698	52	127
246.66480725623583	246.80412698412698	60	127
246.81573696145125	247.00149659863945	36	127
246.81573696145125	246.94344671201813	72	127
247.01310657596372	247.18725623582768	48	127
247.01310657596372	247.19886621315192	64	127
247.19886621315192	247.38462585034014	67	127
247.19886621315192	247.38462585034014	52	127
247.3962358276644	247.5239455782313	69	127
247.3962358276644	247.5819954648526	41	127
247.59360544217688	247.77936507936508	57	127
247.59360544217688	247.7677551020408	48	127
247.77936507936508	247.96512471655328	53	127
247.77936507936508	247.96512471655328	60	127
247.97673469387755	248.1160544217687	65	127
247.97673469387755	248.1508843537415	45	127
248.17410430839	248.32503401360543	48	127
248.17410430839	248.3366439909297	57	127
248.3366439909297	248.5224036281179	53	127
248.3366439909297	248.5224036281179	60	127
248.53401360544217	248.62689342403627	67	127
248.53401360544217	248.6849433106576	40	127
248.69655328798186	248.835873015873	48	127
248.69655328798186	248.84748299319727	55	127
248.84748299319727	249.04485260770974	60	127
248.84748299319727	249.04485260770974	52	127
249.056462585034	249.17256235827665	72	127
249.056462585034	249.2190022675737	36	127
249.23061224489797	249.41637188208617	48	127
249.23061224489797	249.42798185941044	64	127
249.42798185941044	249.61374149659864	52	127
249.42798185941044	249.61374149659864	67	127
249.6253514739229	249.8111111111111	41	127
249.6253514739229	249.76467120181405	69	127
249.83433106575964	249.99687074829933	53	127
249.83433106575964	250.00848072562357	60	127
250.00848072562357	250.14780045351475	65	127
250.00848072562357	250.14780045351475	57	127
250.159410430839	250.34517006802722	38	127
250.159410430839	250.2871201814059	77	127
250.35678004535148	250.5077097505669	50	127
250.35678004535148	250.51931972789114	65	127
250.51931972789114	250.6934693877551	53	127
250.51931972789114	250.6934693877551	69	127
250.70507936507937	250.83278911564625	71	127
250.70507936507937	250.89083900226757	43	127
250.90244897959184	251.06498866213153	55	127
250.90244897959184	251.0765986394558	62	127
251.0765986394558	251.2275283446712	67	127
251.0765986394558	251.2275283446712	59	127
251.23913832199545	251.42489795918368	43	127
251.23913832199545	251.36684807256236	79	127
251.43650793650792	251.61065759637188	55	127
251.43650793650792	251.62226757369615	67	127
251.62226757369615	251.79641723356008	59	127
251.62226757369615	251.79641723356008	71	127
251.80802721088435	251.93573696145125	79	127
251.80802721088435	251.99378684807257	45	127
252.00539682539682	252.19115646258504	67	127
252.00539682539682	252.1679365079365	57	127
252.19115646258504	252.37691609977324	60	127
252.19115646258504	252.37691609977324	72	127
252.3885260770975	252.5742857142857	47	127
252.3885260770975	252.5162358276644	77	127
252.58589569160998	252.76004535147393	67	127
252.58589569160998	252.76004535147393	59	127
252.76004535147393	252.9225850340136	74	127
252.76004535147393	252.9225850340136	62	127
252.93419501133786	253.1199546485261	48	127
252.93419501133786	253.06190476190477	76	127
253.13156462585033	253.29410430839002	60	127
253.13156462585033	253.3057142857143	67	127
253.3057142857143	253.47986394557824	64	127
253.3057142857143	253.47986394557824	72	127
253.4914739229025	253.66562358276644	50	127
253.4914739229025	253.6191836734694	74	127
253.66562358276644	253.85138321995464	55	127
253.66562358276644	253.87460317460318	65	127
253.87460317460318	254.06036281179138	71	127
253.87460317460318	254.06036281179138	59	127
254.07197278911565	254.23451247165534	52	127
254.07197278911565	254.17646258503402	72	127
254.23451247165534	254.36222222222221	67	127
254.23451247165534	254.42027210884353	60	127
254.4318820861678	254.55959183673468	72	127
254.4318820861678	254.5944217687075	52	127
254.60603174603173	254.80340136054423	60	127
254.60603174603173	254.7453514739229	69	127
254.81501133786847	254.9078911564626	74	127
254.81501133786847	254.9659410430839	53	127
254.97755102040816	255.0936507936508	69	127
254.97755102040816	255.16331065759638	60	127
255.17492063492062	255.34907029478458	55	127
255.17492063492062	255.29102040816326	76	127
255.34907029478458	255.53482993197278	60	127
255.34907029478458	255.54643990929705	67	127
255.54643990929705	255.73219954648525	72	127
255.54643990929705	255.73219954648525	64	127
255.74380952380952	255.85990929705216	76	127
255.74380952380952	255.92956916099774	55	127
255.94117913832198	256.1269387755102	67	127
255.94117913832198	256.11532879818594	61	127
256.1269387755102	256.30108843537414	64	127
256.1269387755102	256.30108843537414	73	127
256.3126984126984	256.4404081632653	77	127
256.3126984126984	256.4984580498866	55	127
256.5100680272109	256.6958276643991	67	127
256.5100680272109	256.68419501133786	62	127
256.6958276643991	256.86997732426306	71	127
256.6958276643991	256.86997732426306	65	127
256.88156462585033	256.9976870748299	77	127
256.88156462585033	257.05573696145126	43	127
257.06734693877553	257.28793650793654	67	127
257.06734693877553	257.27632653061227	55	127
257.28793650793654	257.4968934240363	59	127
257.28793650793654	257.4968934240363	74	127
257.28793650793654	257.4968934240363	65	127
257.5085260770975	257.7291156462585	48	127
257.5085260770975	257.74072562358276	64	127
257.5085260770975	257.74072562358276	72	127
257.74072562358276	257.91485260770975	60	127
257.92648526077096	258.1122222222222	60	127
258.1354648526077	258.73918367346937	79	127
258.1354648526077	258.73918367346937	67	127
258.1354648526077	258.33283446712016	48	127
258.34444444444443	258.50698412698415	64	127
258.34444444444443	258.50698412698415	60	127
258.5185714285714	258.72755102040816	60	127
258.5185714285714	258.72755102040816	64	127
258.73918367346937	259.3545124716553	69	127
258.73918367346937	259.3545124716553	81	127
258.73918367346937	258.91333333333336	48	127
258.91333333333336	259.1455328798186	65	127
258.91333333333336	259.1455328798186	60	127
259.15714285714284	259.3428798185941	65	127
259.15714285714284	259.3428798185941	60	127
259.3545124716553	259.92340136054423	71	127
259.3545124716553	259.5286621315193	48	127
259.3545124716553	259.92340136054423	83	127
259.54024943310657	259.72603174603177	60	127
259.54024943310657	259.72603174603177	62	127
259.73764172335603	259.9001814058957	60	127
259.73764172335603	259.9001814058957	62	127
259.92340136054423	260.51551020408164	84	127
259.92340136054423	260.10916099773243	48	127
259.92340136054423	260.51551020408164	72	127
260.1207709750567	260.3065306122449	64	127
260.1207709750567	260.3065306122449	60	127
260.31814058956917	260.50390022675737	60	127
260.31814058956917	260.50390022675737	64	127
260.51551020408164	261.0727664399093	74	127
260.51551020408164	260.70126984126983	48	127
260.51551020408164	261.0727664399093	86	127
260.70126984126983	260.86380952380955	59	127
260.70126984126983	260.86380952380955	55	127
260.8753968253968	261.061179138322	55	127
260.8753968253968	261.061179138322	59	127
261.0727664399093	261.6648979591837	88	127
261.0727664399093	261.281746031746	48	127
261.0727664399093	261.6648979591837	76	127
261.29337868480724	261.45591836734695	55	127
261.29337868480724	261.45591836734695	60	127
261.4675283446712	261.6532879818594	55	127
261.4675283446712	261.6532879818594	60	127
261.6648979591837	262.0712471655329	77	127
261.6648979591837	261.8506575963719	48	127
261.6648979591837	262.0712471655329	89	127
261.86226757369616	261.98997732426307	59	127
261.86226757369616	261.98997732426307	53	127
261.86226757369616	261.98997732426307	55	127
262.00156462585034	262.2221768707483	55	127
262.00156462585034	262.2221768707483	59	127
262.00156462585034	262.2221768707483	53	127
262.0712471655329	262.2221768707483	86	127
262.0712471655329	262.2221768707483	74	127
262.23378684807255	262.384716553288	72	127
262.23378684807255	262.431156462585	48	127
262.45437641723356	262.64013605442176	52	127
262.45437641723356	262.64013605442176	55	127
262.45437641723356	262.64013605442176	60	127
262.45437641723356	262.58208616780047	84	127
262.65174603174603	262.8375056689342	55	127
262.65174603174603	262.77945578231294	72	127
262.65174603174603	262.8375056689342	52	127
262.65174603174603	262.8375056689342	60	127
262.8491156462585	262.9768253968254	79	127
262.8491156462585	263.0348752834467	48	127
263.04648526077096	263.18580498866214	60	127
263.04648526077096	263.12773242630385	67	127
263.04648526077096	263.18580498866214	64	127
263.1974149659864	263.3251020408163	79	127
263.1974149659864	263.3831746031746	64	127
263.1974149659864	263.3831746031746	60	127
263.3947845804989	263.5689342403628	48	127
263.3947845804989	263.5108843537415	69	127
263.5805442176871	263.754693877551	65	127
263.5805442176871	263.6966439909297	81	127
263.5805442176871	263.754693877551	60	127
263.7663038548753	263.9520634920635	60	127
263.7663038548753	263.8824036281179	69	127
263.7663038548753	263.9520634920635	65	127
263.96367346938774	264.149410430839	48	127
263.96367346938774	264.1029931972789	83	127
264.1726530612245	264.3003628117914	71	127
264.1726530612245	264.34678004535147	60	127
264.1726530612245	264.34678004535147	62	127
264.3584126984127	264.4861224489796	83	127
264.3584126984127	264.54417233560093	62	127
264.3584126984127	264.54417233560093	60	127
264.5557596371882	264.6718820861678	72	127
264.5557596371882	264.72993197278913	48	127
264.7415419501134	264.91569160997733	60	127
264.7415419501134	264.86925170068025	84	127
264.7415419501134	264.91569160997733	64	127
264.9273015873016	265.0550113378685	72	127
264.9273015873016	265.1130612244898	64	127
264.9273015873016	265.1130612244898	60	127
265.12467120181407	265.31043083900227	48	127
265.12467120181407	265.252380952381	86	127
265.32204081632653	265.50780045351473	55	127
265.32204081632653	265.44975056689344	74	127
265.32204081632653	265.50780045351473	59	127
265.519410430839	265.69356009070293	59	127
265.519410430839	265.6471201814059	86	127
265.519410430839	265.69356009070293	55	127
265.69356009070293	265.7864172335601	76	127
265.69356009070293	265.8444897959184	48	127
265.85609977324265	266.04185941043085	55	127
265.85609977324265	266.04185941043085	60	127
265.85609977324265	265.98378684807255	88	127
266.04185941043085	266.22761904761904	55	127
266.04185941043085	266.16956916099775	76	127
266.04185941043085	266.22761904761904	60	127
266.2392290249433	266.4365986394558	89	127
266.2392290249433	266.4249886621315	43	127
266.4365986394558	266.6107482993197	55	127
266.4365986394558	266.6107482993197	53	127
266.4365986394558	266.6107482993197	59	127
266.4365986394558	266.6107482993197	77	127
266.6107482993197	266.80809523809523	86	127
266.6107482993197	266.80809523809523	59	127
266.6107482993197	266.80809523809523	55	127
266.6107482993197	266.80809523809523	53	127
266.81972789115645	267.0170975056689	48	127
266.81972789115645	266.94743764172335	76	127
267.0287074829932	267.21444444444444	55	127
267.0287074829932	267.21444444444444	60	127
267.0287074829932	267.1564172335601	84	127
267.0287074829932	267.21444444444444	52	127
267.21444444444444	267.3770068027211	55	127
267.21444444444444	267.3189342403628	76	127
267.21444444444444	267.3770068027211	52	127
267.21444444444444	267.3770068027211	60	127
267.38861678004537	267.62079365079364	89	127
267.38861678004537	267.6092063492064	43	127
267.62079365079364	267.80657596371884	55	127
267.62079365079364	267.80657596371884	59	127
267.62079365079364	267.8181859410431	77	127
267.62079365079364	267.80657596371884	53	127
267.8181859410431	267.99233560090704	53	127
267.8181859410431	267.99233560090704	59	127
267.8181859410431	267.99233560090704	86	127
267.8181859410431	267.99233560090704	55	127
268.0039455782313	268.07360544217687	76	127
268.0039455782313	268.1316326530612	48	127
268.14326530612243	268.2825850340136	84	127
268.14326530612243	268.3174149659864	60	127
268.14326530612243	268.3174149659864	55	127
268.14326530612243	268.3174149659864	52	127
268.34061224489795	268.45673469387754	76	127
268.34061224489795	268.5147845804989	55	127
268.34061224489795	268.5147845804989	52	127
268.34061224489795	268.5147845804989	60	127
268.52639455782315	268.7353741496599	43	127
268.52639455782315	268.7353741496599	89	127
268.7353741496599	268.93274376417236	53	127
268.7353741496599	268.93274376417236	55	127
268.7353741496599	268.93274376417236	59	127
268.7353741496599	268.9443310657596	77	127
268.9443310657596	269.11850340136056	59	127
268.9443310657596	269.11850340136056	55	127
268.9443310657596	269.11850340136056	53	127
268.9443310657596	269.11850340136056	86	127
269.1301133786848	269.33909297052156	86	127
269.1301133786848	269.3274829931973	48	127
269.33909297052156	269.52485260770976	60	127
269.33909297052156	269.46678004535147	84	127
269.33909297052156	269.52485260770976	64	127
269.53646258503403	269.72222222222223	60	127
269.53646258503403	269.72222222222223	64	127
269.53646258503403	269.66414965986394	84	127
269.7338321995465	269.9079818594104	48	127
269.9195918367347	270.0937414965986	74	127
269.9195918367347	270.0937414965986	82	127
269.9195918367347	270.0937414965986	62	127
269.9195918367347	270.0937414965986	65	127
269.9195918367347	270.0937414965986	77	127
270.11696145124716	270.30272108843536	74	127
270.11696145124716	270.30272108843536	65	127
270.11696145124716	270.30272108843536	62	127
270.11696145124716	270.30272108843536	82	127
270.11696145124716	270.30272108843536	77	127
270.31433106575963	270.50009070294783	48	127
270.5117006802721	270.6974603174603	76	127
270.5117006802721	270.6974603174603	81	127
270.5117006802721	270.6974603174603	60	127
270.5117006802721	270.6974603174603	64	127
270.5117006802721	270.6974603174603	72	127
270.70907029478457	270.90643990929703	76	127
270.70907029478457	270.90643990929703	64	127
270.70907029478457	270.90643990929703	60	127
270.70907029478457	270.90643990929703	81	127
270.70907029478457	270.90643990929703	72	127
270.9180498866213	271.1154195011338	48	127
271.12702947845804	271.31278911564624	79	127
271.12702947845804	271.31278911564624	70	127
271.12702947845804	271.31278911564624	74	127
271.12702947845804	271.31278911564624	58	127
271.12702947845804	271.31278911564624	62	127
271.3243990929705	271.62625850340135	72	127
271.3243990929705	271.62625850340135	77	127
271.3243990929705	271.62625850340135	57	127
271.3243990929705	271.62625850340135	60	127
271.3243990929705	271.62625850340135	69	127
271.6378684807256	271.8236281179138	72	127
271.6378684807256	272.61310657596374	48	127
271.6378684807256	271.8236281179138	70	127
271.6378684807256	271.8236281179138	76	127
271.6378684807256	271.75396825396825	55	127
271.6378684807256	271.8236281179138	67	127
271.8236281179138	271.962947845805	58	127
272.0442176870748	272.183537414966	60	127
272.2415873015873	272.3692970521542	55	127
272.2415873015873	273.1936054421769	70	127
272.2415873015873	273.1936054421769	72	127
272.2415873015873	273.1936054421769	76	127
272.2415873015873	273.1936054421769	67	127
272.42732426303854	272.5434467120181	58	127
272.61310657596374	272.75242630385486	60	127
272.8220861678005	272.92657596371885	55	127
272.9962358276644	273.1239455782313	58	127
273.1936054421769	273.3213151927438	60	127
273.3677551020408	273.9366439909297	65	127
273.3677551020408	273.9366439909297	69	127
273.3677551020408	273.9366439909297	48	127
273.3677551020408	273.4374149659864	74	127
273.3677551020408	273.507074829932	53	127
273.4490022675737	273.507074829932	76	127
273.51868480725625	273.5883446712018	74	127
273.56512471655327	273.6812244897959	57	127
273.5999546485261	273.6347845804989	76	127
273.64639455782316	273.70444444444445	74	127
273.7160544217687	273.7857142857143	76	127
273.7508616780045	273.8785941043084	60	127
273.79732426303855	273.8553514739229	74	127
273.8669841269841	273.9366439909297	76	127
273.948253968254	274.11079365079365	67	127
273.948253968254	274.9002721088435	48	127
273.948253968254	274.11079365079365	64	127
273.948253968254	274.11079365079365	72	127
273.948253968254	274.06433106575963	52	127
274.11079365079365	274.23850340136056	55	127
274.3081632653061	274.45909297052157	60	127
274.51714285714286	274.64485260770977	52	127
274.51714285714286	275.492358276644	64	127
274.51714285714286	275.492358276644	67	127
274.51714285714286	275.492358276644	72	127
274.7145124716553	274.83061224489796	55	127
274.9002721088435	275.02798185941043	60	127
275.097641723356	275.23696145124717	52	127
275.2949886621315	275.42272108843537	55	127
275.492358276644	275.5852607709751	60	127
275.65492063492064	275.71297052154193	74	127
275.65492063492064	276.1657596371882	48	127
275.65492063492064	276.1657596371882	69	127
275.65492063492064	276.1657596371882	65	127
275.65492063492064	275.78263038548755	53	127
275.7245804988662	275.78263038548755	76	127
275.7942176870748	275.8290702947846	74	127
275.8174603174603	275.92195011337867	57	127
275.84068027210884	275.8987074829932	76	127
275.9103401360544	275.9451700680272	74	127
275.9451700680272	276.01482993197277	76	127
275.96839002267575	276.1076870748299	60	127
276.02643990929704	276.0844897959184	74	127
276.09609977324266	276.1657596371882	76	127
276.1773696145125	276.7578684807256	48	127
276.1773696145125	276.31666666666666	55	127
276.1773696145125	276.31666666666666	72	127
276.1773696145125	276.31666666666666	64	127
276.3979591836735	276.52566893424034	76	127
276.3979591836735	276.52566893424034	72	127
276.3979591836735	276.52566893424034	58	127
276.5837188208617	276.69981859410433	64	127
276.5837188208617	276.69981859410433	60	127
276.7694784580499	276.8971882086168	53	127
276.7694784580499	276.8971882086168	72	127
276.7694784580499	277.303537414966	48	127
276.7694784580499	276.8971882086168	74	127
276.96684807256236	277.0481179138322	62	127
276.96684807256236	277.0481179138322	57	127
277.1177777777778	277.24548752834465	60	127
277.1177777777778	277.24548752834465	74	127
277.1177777777778	277.24548752834465	72	127
277.31514739229027	277.4312244897959	64	127
277.31514739229027	277.4892970521542	46	127
277.50090702947847	277.6170068027211	76	127
277.50090702947847	277.6170068027211	72	127
277.50090702947847	277.6750566893424	55	127
277.68666666666667	277.77954648526077	64	127
277.68666666666667	277.8375963718821	58	127
277.8491836734694	278.0233560090703	45	127
277.8491836734694	277.96530612244896	77	127
277.8491836734694	277.96530612244896	72	127
278.0349659863946	278.2091156462585	53	127
278.0349659863946	278.1510430839002	65	127
278.2207256235828	278.3948752834467	57	127
278.2207256235828	278.3368253968254	72	127
278.2207256235828	278.3368253968254	77	127
278.406485260771	278.56902494331064	40	127
278.406485260771	278.5225850340136	66	127
278.5922448979592	278.7547845804989	55	127
278.5922448979592	278.7547845804989	60	127
278.5922448979592	278.69673469387754	72	127
278.5922448979592	278.69673469387754	78	127
278.76637188208616	278.9289342403628	60	127
278.76637188208616	278.85927437641726	66	127
278.76637188208616	278.9289342403628	55	127
278.9405442176871	279.1611337868481	52	127
278.9405442176871	279.10308390022675	72	127
278.9405442176871	279.10308390022675	79	127
279.17272108843537	279.3468934240363	60	127
279.17272108843537	279.3004535147392	67	127
279.17272108843537	279.3468934240363	55	127
279.35850340136057	279.54426303854876	55	127
279.35850340136057	279.4861904761905	72	127
279.35850340136057	279.4861904761905	79	127
279.35850340136057	279.54426303854876	60	127
279.55587301587303	279.68356009070294	67	127
279.55587301587303	279.74163265306123	52	127
279.7532426303855	279.85773242630387	72	127
279.7532426303855	279.91578231292516	60	127
279.7532426303855	279.91578231292516	55	127
279.7532426303855	279.85773242630387	79	127
279.92739229024943	280.1131519274376	55	127
279.92739229024943	280.05510204081634	67	127
279.92739229024943	280.1131519274376	60	127
280.1131519274376	280.2988888888889	40	127
280.1131519274376	280.24086167800453	72	127
280.1131519274376	280.24086167800453	80	127
280.3105215419501	280.49628117913835	60	127
280.3105215419501	280.438231292517	68	127
280.3105215419501	280.49628117913835	56	127
280.5078684807256	280.6704308390023	60	127
280.5078684807256	280.61238095238093	72	127
280.5078684807256	280.61238095238093	80	127
280.5078684807256	280.6704308390023	56	127
280.7052380952381	280.83297052154194	69	127
280.7052380952381	280.8910204081633	41	127
280.90263038548756	281.1115873015873	57	127
280.90263038548756	281.0419501133787	81	127
280.90263038548756	281.1115873015873	60	127
281.12319727891156	281.33219954648524	57	127
281.12319727891156	281.33219954648524	60	127
281.12319727891156	281.4715192743764	81	127
281.3438095238095	281.52954648526077	41	127
281.541179138322	281.6572789115646	81	127
281.541179138322	281.71532879818596	53	127
281.541179138322	281.71532879818596	57	127
281.72691609977323	281.8778684807256	53	127
281.72691609977323	281.81981859410433	81	127
281.72691609977323	281.8778684807256	57	127
281.8894784580499	282.0752380952381	43	127
282.08684807256236	282.27260770975056	58	127
282.08684807256236	282.27260770975056	55	127
282.08684807256236	282.13326530612244	81	127
282.13326530612244	282.17972789115646	82	127
282.17972789115646	282.28421768707483	81	127
282.28421768707483	282.45836734693876	58	127
282.28421768707483	282.41192743764174	79	127
282.28421768707483	282.45836734693876	55	127
282.469977324263	282.5164172335601	79	127
282.469977324263	282.63251700680274	45	127
282.5164172335601	282.5628571428571	81	127
282.5628571428571	282.63251700680274	79	127
282.63251700680274	282.8066666666667	57	127
282.63251700680274	282.7602267573696	77	127
282.63251700680274	282.8066666666667	60	127
282.8298866213152	283.00403628117914	60	127
282.8298866213152	282.9227664399093	76	127
282.8298866213152	283.00403628117914	57	127
283.0156462585034	283.18979591836734	46	127
283.0156462585034	283.0504761904762	76	127
283.0504761904762	283.1085260770975	77	127
283.1085260770975	283.2014058956916	76	127
283.2014058956916	283.3871655328798	58	127
283.2014058956916	283.3871655328798	62	127
283.2014058956916	283.3291156462585	74	127
283.3871655328798	283.793514739229	82	127
283.3871655328798	283.5845351473923	58	127
283.3871655328798	283.5845351473923	62	127
283.59614512471654	283.793514739229	43	127
283.8051247165533	283.9908843537415	58	127
283.8051247165533	283.9328344671202	82	127
283.8051247165533	283.9908843537415	55	127
284.00249433106575	284.09537414965985	82	127
284.00249433106575	284.1418140589569	55	127
284.00249433106575	284.1418140589569	58	127
284.1534240362812	284.2927437641723	45	127
284.3043537414966	284.49009070294784	60	127
284.3043537414966	284.36240362811793	82	127
284.3043537414966	284.49009070294784	57	127
284.36240362811793	284.40884353741495	84	127
284.40884353741495	284.5133333333333	82	127
284.5133333333333	284.66426303854877	60	127
284.5133333333333	284.66426303854877	57	127
284.5133333333333	284.6178231292517	81	127
284.66426303854877	284.8268027210884	46	127
284.66426303854877	284.6990702947846	81	127
284.6990702947846	284.7339229024943	82	127
284.7339229024943	284.8384126984127	81	127
284.8384126984127	285.0125623582766	58	127
284.8384126984127	285.0125623582766	62	127
284.8384126984127	284.95451247165533	79	127
285.0241723356009	285.1983219954649	62	127
285.0241723356009	285.1634920634921	77	127
285.0241723356009	285.1983219954649	58	127
285.20990929705215	285.26798185941044	77	127
285.20990929705215	285.4072789115646	48	127
285.26798185941044	285.3143990929705	79	127
285.3143990929705	285.41891156462583	77	127
285.41891156462583	285.558231292517	60	127
285.41891156462583	285.558231292517	58	127
285.41891156462583	285.558231292517	55	127
285.41891156462583	285.5001814058957	76	127
285.5698412698413	285.7556009070295	60	127
285.5698412698413	285.6975510204082	84	127
285.5698412698413	285.7556009070295	58	127
285.5698412698413	285.7556009070295	55	127
285.76721088435374	285.9297505668934	36	127
285.76721088435374	285.80204081632655	77	127
285.80204081632655	285.8484807256236	79	127
285.8484807256236	285.9413605442177	77	127
285.9413605442177	286.1270975056689	55	127
285.9413605442177	286.0690702947846	76	127
285.9413605442177	286.1270975056689	58	127
285.9413605442177	286.1270975056689	60	127
286.13873015873014	286.3244671201814	58	127
286.13873015873014	286.26643990929705	85	127
286.13873015873014	286.3244671201814	55	127
286.13873015873014	286.3244671201814	60	127
286.33607709750567	286.39414965986396	77	127
286.33607709750567	286.52185941043086	48	127
286.39414965986396	286.440589569161	79	127
286.440589569161	286.53344671201813	77	127
286.53344671201813	286.67278911564625	60	127
286.53344671201813	286.67278911564625	58	127
286.53344671201813	286.67278911564625	55	127
286.53344671201813	286.61473922902496	76	127
286.6960090702948	286.881768707483	58	127
286.6960090702948	286.83532879818597	86	127
286.6960090702948	286.881768707483	55	127
286.6960090702948	286.881768707483	60	127
286.90498866213153	286.93979591836734	77	127
286.90498866213153	287.07913832199546	48	127
286.93979591836734	286.98625850340136	79	127
286.98625850340136	287.0907482993197	77	127
287.0907482993197	287.26489795918366	55	127
287.0907482993197	287.20684807256237	76	127
287.0907482993197	287.26489795918366	58	127
287.0907482993197	287.26489795918366	60	127
287.2765079365079	287.4274376417234	58	127
287.2765079365079	287.369387755102	84	127
287.2765079365079	287.4274376417234	55	127
287.2765079365079	287.4274376417234	60	127
287.43904761904764	287.48548752834466	77	127
287.43904761904764	287.6480272108844	53	127
287.48548752834466	287.543537414966	79	127
287.543537414966	287.65961451247165	77	127
287.65961451247165	287.84539682539685	60	127
287.65961451247165	287.84539682539685	58	127
287.65961451247165	287.84539682539685	55	127
287.65961451247165	287.7873469387755	76	127
287.8570068027211	288.0195464852608	58	127
287.8570068027211	287.98471655328797	84	127
287.8570068027211	288.0195464852608	55	127
287.8570068027211	288.0195464852608	60	127
288.03115646258505	288.2633560090703	48	127
288.03115646258505	288.07759637188207	65	127
288.07759637188207	288.12403628117914	67	127
288.12403628117914	288.2749433106576	65	127
288.2749433106576	288.4607256235828	55	127
288.2749433106576	288.4607256235828	58	127
288.2749433106576	288.4607256235828	60	127
288.2749433106576	288.40267573696144	64	127
288.47231292517006	288.6116553287982	72	127
288.47231292517006	288.65809523809526	55	127
288.47231292517006	288.65809523809526	58	127
288.47231292517006	288.65809523809526	60	127
288.6812925170068	290.15578231292517	60	127
288.6812925170068	290.15578231292517	65	127
288.6812925170068	290.15578231292517	53	127
288.6812925170068	290.15578231292517	57	127
290.16739229024944	290.42278911564625	48	127
290.5040816326531	290.8059410430839	60	127
290.5040816326531	290.8059410430839	57	127
290.5040816326531	290.8059410430839	65	127
290.8175510204082	290.9917006802721	36	127
290.8175510204082	290.9917006802721	48	127
291.07297052154195	291.3051700680272	55	127
291.07297052154195	291.3051700680272	64	127
291.07297052154195	291.3051700680272	58	127
291.3167800453515	291.4909297052154	48	127
291.60702947845806	291.82761904761907	55	127
291.60702947845806	291.82761904761907	64	127
291.60702947845806	291.82761904761907	58	127
291.82761904761907	292.01337868480726	48	127
292.0946485260771	292.33845804988664	55	127
292.0946485260771	292.33845804988664	64	127
292.0946485260771	292.33845804988664	58	127
292.33845804988664	292.51260770975057	48	127
292.5938775510204	292.88412698412696	53	127
292.5938775510204	292.88412698412696	58	127
292.5938775510204	292.88412698412696	62	127
292.89573696145123	293.05827664399095	36	127
292.89573696145123	293.05827664399095	48	127
293.1627664399093	293.4065759637188	52	127
293.1627664399093	293.4065759637188	60	127
293.1627664399093	293.4065759637188	58	127
293.4181859410431	293.5807256235828	48	127
293.6736054421769	293.9174149659864	52	127
293.6736054421769	293.9174149659864	60	127
293.6736054421769	293.9174149659864	58	127
293.92902494331065	294.09156462585037	48	127
294.207641723356	294.4166439909297	52	127
294.207641723356	294.4166439909297	60	127
294.207641723356	294.4166439909297	58	127
294.42825396825396	294.6256235827664	48	127
294.7068934240363	294.9507029478458	53	127
294.7068934240363	294.9507029478458	62	127
294.7068934240363	294.9507029478458	58	127
294.96231292517007	295.1248299319728	48	127
295.2061224489796	295.4499319727891	55	127
295.2061224489796	295.4499319727891	58	127
295.2061224489796	295.4499319727891	64	127
295.46154195011337	295.6240816326531	48	127
295.7169614512472	295.97238095238095	58	127
295.7169614512472	295.97238095238095	62	127
295.7169614512472	295.97238095238095	53	127
295.9839909297052	296.14650793650793	48	127
295.9839909297052	296.14650793650793	46	127
296.22780045351476	296.5180498866213	55	127
296.22780045351476	296.5180498866213	64	127
296.22780045351476	296.5180498866213	60	127
296.5296598639456	296.7038095238095	48	127
296.5296598639456	296.7038095238095	45	127
296.7966893424036	297.01727891156463	57	127
296.7966893424036	297.01727891156463	60	127
296.7966893424036	297.01727891156463	65	127
297.0288888888889	297.1798185941043	48	127
297.0288888888889	297.1798185941043	40	127
297.27267573696145	297.51650793650794	66	127
297.27267573696145	297.51650793650794	58	127
297.27267573696145	297.51650793650794	60	127
297.5281179138322	297.7138775510204	52	127
297.5281179138322	297.7138775510204	48	127
297.5281179138322	297.7138775510204	40	127
297.81836734693877	298.0389569160998	67	127
297.81836734693877	298.0389569160998	58	127
297.81836734693877	298.0389569160998	60	127
298.05056689342405	298.224716553288	40	127
298.05056689342405	298.224716553288	48	127
298.05056689342405	298.224716553288	52	127
298.32920634920634	298.58462585034016	67	127
298.32920634920634	298.58462585034016	58	127
298.32920634920634	298.58462585034016	60	127
298.59621315192743	298.7936054421769	40	127
298.59621315192743	298.7936054421769	52	127
298.59621315192743	298.7936054421769	48	127
298.8748752834467	299.1302947845805	58	127
298.8748752834467	299.1302947845805	68	127
298.8748752834467	299.1302947845805	60	127
299.14190476190475	299.3857142857143	53	127
299.14190476190475	299.3857142857143	41	127
299.14190476190475	299.3857142857143	48	127
299.39732426303857	299.6527437641723	69	127
299.39732426303857	299.6527437641723	57	127
299.39732426303857	299.6527437641723	60	127
299.6527437641723	299.8965532879819	53	127
299.6527437641723	299.8965532879819	41	127
299.90816326530614	300.15197278911563	57	127
299.90816326530614	300.15197278911563	69	127
300.15197278911563	300.3957823129252	43	127
300.15197278911563	300.3957823129252	55	127
300.40739229024945	300.68603174603174	58	127
300.40739229024945	300.68603174603174	70	127
300.697641723356	300.9298412698413	45	127
300.697641723356	300.9298412698413	57	127
300.94145124716556	301.2084807256236	60	127
300.94145124716556	301.2084807256236	72	127
301.22009070294786	301.45229024943313	46	127
301.22009070294786	301.45229024943313	58	127
301.4638775510204	301.7077097505669	62	127
301.4638775510204	301.7077097505669	74	127
301.71931972789116	301.95151927437644	55	127
301.71931972789116	301.95151927437644	43	127
301.9631292517007	302.23015873015873	58	127
301.9631292517007	302.23015873015873	70	127
302.241768707483	302.4739682539683	45	127
302.241768707483	302.4739682539683	57	127
302.48555555555555	302.7409977324263	60	127
302.48555555555555	302.7409977324263	72	127
302.7526077097506	303.04285714285714	46	127
302.7526077097506	303.04285714285714	58	127
303.0544671201814	303.29825396825396	62	127
303.0544671201814	303.29825396825396	74	127
303.3098866213152	303.5536961451247	48	127
303.3098866213152	303.5536961451247	60	127
303.5536961451247	303.79750566893426	67	127
303.5536961451247	303.79750566893426	70	127
303.80909297052153	304.052925170068	48	127
303.80909297052153	304.052925170068	60	127
304.052925170068	304.3199319727891	70	127
304.052925170068	304.3199319727891	67	127
304.3315646258503	304.57537414965986	48	127
304.58698412698413	304.8307709750567	67	127
304.58698412698413	304.8307709750567	58	127
304.58698412698413	304.8307709750567	64	127
304.8424036281179	305.08621315192744	36	127
304.8424036281179	305.08621315192744	48	127
305.0978231292517	305.330022675737	60	127
305.0978231292517	305.330022675737	55	127
305.0978231292517	305.330022675737	58	127
305.0978231292517	305.330022675737	64	127
305.34160997732425	305.62027210884355	41	127
305.34160997732425	305.62027210884355	53	127
305.6318820861678	305.8640589569161	60	127
305.6318820861678	305.8640589569161	55	127
305.6318820861678	305.8640589569161	58	127
305.6318820861678	305.8640589569161	64	127
305.8756916099773	306.11950113378686	29	127
305.8756916099773	306.11950113378686	41	127
306.1311111111111	306.37489795918367	55	127
306.1311111111111	306.37489795918367	58	127
306.1311111111111	306.37489795918367	60	127
306.1311111111111	306.37489795918367	64	127
306.3865306122449	307.2804988662132	65	127
306.3865306122449	307.2804988662132	57	127
306.3865306122449	307.2804988662132	60	127
306.3865306122449	307.2804988662132	29	127
306.3865306122449	307.2804988662132	41	127
307.29208616780045	307.4662585034014	48	127
307.6404081632653	307.88421768707485	60	127
307.6404081632653	307.88421768707485	57	127
307.6404081632653	307.88421768707485	65	127
307.88421768707485	308.0583673469388	36	127
307.88421768707485	308.0583673469388	48	127
308.2092743764172	308.4531065759637	55	127
308.2092743764172	308.4531065759637	64	127
308.2092743764172	308.4531065759637	58	127
308.4531065759637	308.62725623582764	48	127
308.70852607709753	308.90589569161	58	127
308.70852607709753	308.90589569161	55	127
308.70852607709753	308.90589569161	64	127
308.91750566893427	309.0800453514739	48	127
309.16131519274376	309.39351473922903	55	127
309.16131519274376	309.39351473922903	58	127
309.16131519274376	309.39351473922903	64	127
309.4051247165533	309.56766439909296	48	127
309.7302040816327	309.9972335600907	58	127
309.7302040816327	309.9972335600907	53	127
309.7302040816327	309.9972335600907	62	127
310.008843537415	310.17138321995463	36	127
310.008843537415	310.17138321995463	48	127
310.2526303854875	310.5080725623583	52	127
310.2526303854875	310.5080725623583	60	127
310.2526303854875	310.5080725623583	58	127
310.51968253968255	310.6938321995465	48	127
310.7751020408163	311.0305215419501	52	127
310.7751020408163	311.0305215419501	60	127
310.7751020408163	311.0305215419501	58	127
311.0421315192744	311.20467120181405	48	127
311.2859410430839	311.5297505668934	52	127
311.2859410430839	311.5297505668934	58	127
311.2859410430839	311.5297505668934	60	127
311.5413605442177	311.70390022675736	48	127
311.8083900226757	312.0754195011338	62	127
311.8083900226757	312.0754195011338	58	127
311.8083900226757	312.0754195011338	53	127
312.0870294784581	312.261179138322	48	127
312.34244897959184	312.5862585034014	55	127
312.34244897959184	312.5862585034014	64	127
312.34244897959184	312.5862585034014	58	127
312.59786848072565	312.7604081632653	48	127
312.8532879818594	313.09709750566896	53	127
312.8532879818594	313.09709750566896	58	127
312.8532879818594	313.09709750566896	62	127
313.1087074829932	313.2712471655329	46	127
313.1087074829932	313.2712471655329	48	127
313.364126984127	313.584716553288	64	127
313.364126984127	313.584716553288	55	127
313.364126984127	313.584716553288	60	127
313.59632653061226	313.7704761904762	45	127
313.59632653061226	313.7704761904762	48	127
313.8981859410431	314.18843537414966	57	127
313.8981859410431	314.18843537414966	60	127
313.8981859410431	314.18843537414966	65	127
314.20004535147393	314.37419501133786	48	127
314.20004535147393	314.37419501133786	40	127
314.4554648526077	314.69927437641724	66	127
314.4554648526077	314.69927437641724	58	127
314.4554648526077	314.69927437641724	60	127
314.7108843537415	314.8966439909297	40	127
314.7108843537415	314.8966439909297	48	127
314.7108843537415	314.8966439909297	52	127
314.97791383219953	315.23333333333335	58	127
314.97791383219953	315.23333333333335	60	127
314.97791383219953	315.23333333333335	67	127
315.2449433106576	315.41909297052155	48	127
315.2449433106576	315.41909297052155	52	127
315.2449433106576	315.41909297052155	40	127
315.5003628117914	315.7441723356009	58	127
315.5003628117914	315.7441723356009	60	127
315.5003628117914	315.7441723356009	67	127
315.7441723356009	315.91832199546485	52	127
315.7441723356009	315.91832199546485	48	127
315.7441723356009	315.91832199546485	40	127
316.0228117913832	316.32467120181406	68	127
316.0228117913832	316.32467120181406	58	127
316.0228117913832	316.32467120181406	60	127
316.32467120181406	316.58009070294787	41	127
316.32467120181406	316.58009070294787	48	127
316.32467120181406	316.58009070294787	53	127
316.59167800453514	316.83551020408163	69	127
316.59167800453514	316.83551020408163	60	127
316.59167800453514	316.83551020408163	57	127
316.8471201814059	317.0677097505669	53	127
316.8471201814059	317.0677097505669	41	127
317.0793197278912	317.33473922902493	69	127
317.0793197278912	317.33473922902493	57	127
317.3463492063492	317.5785487528345	55	127
317.3463492063492	317.5785487528345	43	127
317.59015873015875	317.83396825396824	70	127
317.59015873015875	317.83396825396824	58	127
317.8455782312925	318.0777777777778	45	127
317.8455782312925	318.0777777777778	57	127
318.08938775510205	318.3912471655329	60	127
318.08938775510205	318.3912471655329	72	127
318.40285714285716	318.63503401360543	46	127
318.40285714285716	318.63503401360543	58	127
318.64666666666665	318.91369614512473	62	127
318.64666666666665	318.91369614512473	74	127
318.925306122449	319.08784580498866	43	127
318.925306122449	319.08784580498866	55	127
319.09945578231293	319.3897052154195	70	127
319.09945578231293	319.3897052154195	58	127
319.40131519274377	319.63351473922904	57	127
319.40131519274377	319.63351473922904	45	127
319.63351473922904	319.9237641723356	72	127
319.63351473922904	319.9237641723356	60	127
319.9353741496599	320.17918367346937	58	127
319.9353741496599	320.17918367346937	46	127
320.17918367346937	320.4229931972789	74	127
320.17918367346937	320.4229931972789	62	127
320.4346031746032	320.69002267573694	60	127
320.4346031746032	320.69002267573694	48	127
320.7016326530612	320.9338321995465	70	127
320.7016326530612	320.9338321995465	67	127
320.94544217687076	321.1892290249433	48	127
320.94544217687076	321.1892290249433	60	127
321.2008616780045	321.44467120181406	70	127
321.2008616780045	321.44467120181406	67	127
321.45628117913833	321.72331065759636	48	127
321.7349206349206	321.95551020408163	67	127
321.7349206349206	321.95551020408163	58	127
321.7349206349206	321.95551020408163	64	127
321.9671201814059	322.22253968253966	36	127
321.9671201814059	322.22253968253966	48	127
322.23414965986393	322.4663492063492	64	127
322.23414965986393	322.4663492063492	55	127
322.23414965986393	322.4663492063492	58	127
322.23414965986393	322.4663492063492	60	127
322.4779591836735	322.7333560090703	41	127
322.4779591836735	322.7333560090703	53	127
322.7449886621315	323.0120181405896	55	127
322.7449886621315	323.0120181405896	64	127
322.7449886621315	323.0120181405896	60	127
322.7449886621315	323.0120181405896	58	127
323.02362811791386	323.26743764172335	41	127
323.02362811791386	323.26743764172335	29	127
323.2790476190476	323.65054421768707	60	127
323.2790476190476	323.65054421768707	64	127
323.2790476190476	323.65054421768707	58	127
323.2790476190476	323.65054421768707	55	127
323.65054421768707	324.44004535147394	60	127
323.65054421768707	324.44004535147394	57	127
323.65054421768707	324.44004535147394	65	127
323.65054421768707	324.44004535147394	29	127
323.65054421768707	324.44004535147394	41	127
324.44004535147394	324.68385487528343	53	127
324.6954648526077	325.0437641723356	69	127
324.6954648526077	325.0437641723356	60	127
325.0553741496599	325.28755102040816	52	127
325.2991836734694	325.5429931972789	60	127
325.2991836734694	325.5429931972789	67	127
325.5546031746032	325.78680272108846	48	127
325.79839002267573	326.0886621315193	64	127
325.79839002267573	326.0886621315193	72	127
326.10024943310657	326.3324716553288	53	127
326.34408163265306	326.5878911564626	60	127
326.34408163265306	326.5878911564626	69	127
326.5995011337869	326.8665306122449	57	127
326.87814058956917	327.1219274376417	60	127
326.87814058956917	327.1219274376417	65	127
327.13356009070293	327.3657596371882	52	127
327.3773696145125	327.6327664399093	60	127
327.3773696145125	327.6327664399093	67	127
327.6443990929705	327.88820861678005	48	127
327.88820861678005	328.1320181405896	64	127
327.88820861678005	328.1320181405896	72	127
328.14360544217686	328.38743764172335	53	127
328.38743764172335	328.6196371882086	69	127
328.38743764172335	328.6196371882086	60	127
328.6312471655329	328.9098866213152	50	127
328.92149659863946	329.165283446712	69	127
328.92149659863946	329.165283446712	65	127
328.92149659863946	329.165283446712	77	127
329.1769160997732	329.43233560090704	55	127
329.4439455782313	329.7225850340136	67	127
329.4439455782313	329.7225850340136	71	127
329.4439455782313	329.7225850340136	62	127
329.7341950113379	329.9780045351474	55	127
329.9895918367347	330.2218140589569	79	127
329.9895918367347	330.2218140589569	67	127
329.9895918367347	330.2218140589569	71	127
330.2334240362812	330.46562358276645	57	127
330.4772335600907	330.68621315192746	72	127
330.4772335600907	330.68621315192746	67	127
330.4772335600907	330.68621315192746	79	127
330.69780045351473	330.9532426303855	59	127
330.96485260770976	331.2086394557823	74	127
330.96485260770976	331.2086394557823	67	127
330.96485260770976	331.2086394557823	77	127
331.2202721088435	331.47569160997733	60	127
331.4873015873016	331.75433106575963	72	127
331.4873015873016	331.75433106575963	67	127
331.4873015873016	331.75433106575963	76	127
331.75433106575963	332.0445804988662	62	127
332.05619047619047	332.3	71	127
332.05619047619047	332.3	65	127
332.05619047619047	332.3	67	127
332.05619047619047	332.3	74	127
332.3	332.54378684807256	64	127
332.3	332.54378684807256	52	127
332.55541950113377	332.7992290249433	72	127
332.55541950113377	332.7992290249433	67	127
332.8108390022676	333.0198185941043	65	127
332.8108390022676	333.0198185941043	53	127
333.0314285714286	333.2752380952381	74	127
333.0314285714286	333.2752380952381	72	127
333.0314285714286	333.2752380952381	69	127
333.28684807256235	333.844126984127	67	127
333.28684807256235	333.844126984127	55	127
333.54226757369617	333.844126984127	72	127
333.54226757369617	333.844126984127	76	127
333.85573696145127	334.0879365079365	52	127
333.85573696145127	334.0879365079365	64	127
334.09954648526076	334.3781632653061	60	127
334.09954648526076	334.3781632653061	67	127
334.09954648526076	334.3781632653061	72	127
334.09954648526076	334.3781632653061	76	127
334.09954648526076	334.3781632653061	48	127
334.3897959183673	334.91224489795917	55	127
334.3897959183673	334.91224489795917	67	127
334.6684353741497	334.91224489795917	74	127
334.6684353741497	334.91224489795917	71	127
334.6684353741497	334.91224489795917	77	127
334.92385487528344	335.5275736961451	43	127
334.92385487528344	335.5275736961451	55	127
335.2024716553288	335.5275736961451	71	127
335.2024716553288	335.5275736961451	65	127
335.2024716553288	335.5275736961451	74	127
335.5391836734694	336.0268027210884	60	127
335.5391836734694	338.9757369614513	48	127
335.7829931972789	336.0268027210884	72	127
335.7829931972789	336.0268027210884	64	127
336.0384126984127	336.5260090702948	52	127
336.28222222222223	336.5260090702948	67	127
336.28222222222223	336.5260090702948	60	127
336.537641723356	337.03684807256235	53	127
336.8046712018141	337.03684807256235	69	127
336.8046712018141	337.03684807256235	60	127
337.04848072562356	337.5476870748299	50	127
337.31551020408165	337.5476870748299	65	127
337.31551020408165	337.5476870748299	71	127
337.55931972789114	338.081768707483	52	127
337.84956916099776	338.081768707483	72	127
337.84956916099776	338.081768707483	67	127
338.09337868480725	338.6158276643991	55	127
338.3836281179138	338.6158276643991	74	127
338.3836281179138	338.6158276643991	67	127
338.3836281179138	338.6158276643991	71	127
338.62743764172336	339.1614965986395	60	127
338.8944671201814	339.1614965986395	72	127
338.8944671201814	339.1614965986395	67	127
338.8944671201814	339.1614965986395	76	127
339.17310657596374	339.6955328798186	55	127
339.45174603174604	339.6955328798186	65	127
339.45174603174604	339.6955328798186	74	127
339.45174603174604	339.6955328798186	71	127
339.6955328798186	339.9741950113379	48	127
339.6955328798186	339.9741950113379	60	127
339.98580498866215	340.2760544217687	64	127
339.98580498866215	340.2760544217687	72	127
340.2760544217687	340.5314739229025	52	127
340.2760544217687	340.5314739229025	48	127
340.54308390022675	340.7868934240363	67	127
340.54308390022675	340.7868934240363	60	127
340.79850340136056	341.03068027210884	53	127
340.79850340136056	341.03068027210884	48	127
341.04231292517005	341.30934240362814	69	127
341.04231292517005	341.30934240362814	60	127
341.3209523809524	341.5531519274376	50	127
341.3209523809524	341.5531519274376	48	127
341.5647619047619	341.8201814058957	71	127
341.5647619047619	341.8201814058957	65	127
341.83179138322	342.07560090702947	52	127
341.83179138322	342.07560090702947	48	127
342.08721088435374	342.3310204081633	67	127
342.08721088435374	342.3310204081633	72	127
342.34263038548755	342.62126984126985	55	127
342.34263038548755	342.62126984126985	48	127
342.6328798185941	342.9115192743764	74	127
342.6328798185941	342.9115192743764	67	127
342.6328798185941	342.9115192743764	71	127
342.9231292517007	343.15532879818596	48	127
342.9231292517007	343.15532879818596	60	127
343.16693877551023	343.44557823129253	76	127
343.16693877551023	343.44557823129253	67	127
343.16693877551023	343.44557823129253	72	127
343.4571882086168	343.7009977324263	43	127
343.4571882086168	343.7009977324263	55	127
343.7009977324263	343.9564172335601	74	127
343.7009977324263	343.9564172335601	65	127
343.7009977324263	343.9564172335601	71	127
343.9680272108844	344.21183673469386	48	127
343.9680272108844	344.21183673469386	55	127
344.21183673469386	344.47886621315195	72	127
344.21183673469386	344.47886621315195	64	127
344.4904761904762	344.72267573696143	55	127
344.4904761904762	344.72267573696143	43	127
344.7342857142857	344.9897052154195	74	127
344.7342857142857	344.9897052154195	65	127
344.7342857142857	344.9897052154195	71	127
345.0013151927438	345.2451247165533	55	127
345.0013151927438	345.2451247165533	48	127
345.25673469387755	345.57020408163265	72	127
345.25673469387755	345.57020408163265	64	127
345.5818140589569	345.79079365079366	55	127
345.5818140589569	345.79079365079366	43	127
345.80240362811793	346.0810430839002	74	127
345.80240362811793	346.0810430839002	65	127
345.80240362811793	346.0810430839002	71	127
346.0926530612245	346.33646258503404	55	127
346.0926530612245	346.33646258503404	48	127
346.3480498866213	346.58027210884353	72	127
346.3480498866213	346.58027210884353	67	127
346.3480498866213	346.58027210884353	64	127
346.5918820861678	346.89374149659864	60	127
346.9053514739229	347.14916099773245	65	127
346.9053514739229	347.14916099773245	62	127
346.9053514739229	347.14916099773245	70	127
347.1607482993197	347.4045804988662	60	127
347.4161904761905	347.6948299319728	60	127
347.4161904761905	347.6948299319728	69	127
347.4161904761905	347.6948299319728	64	127
347.6948299319728	347.9386394557823	48	127
347.8225396825397	347.9386394557823	58	127
347.8225396825397	347.9386394557823	67	127
347.8225396825397	347.9386394557823	62	127
347.9502494331066	348.29854875283445	48	127
348.18242630385487	348.29854875283445	65	127
348.18242630385487	348.29854875283445	57	127
348.18242630385487	348.29854875283445	60	127
348.29854875283445	348.6352380952381	48	127
348.29854875283445	348.6352380952381	36	127
348.64684807256236	348.8906575963719	55	127
348.64684807256236	348.8906575963719	64	127
348.64684807256236	348.8906575963719	58	127
348.9022448979592	349.14607709750567	48	127
349.15768707482994	349.4014965986395	55	127
349.15768707482994	349.4014965986395	58	127
349.15768707482994	349.4014965986395	64	127
349.41308390022675	349.7265759637188	48	127
349.73818594104307	349.9819954648526	58	127
349.73818594104307	349.9819954648526	55	127
349.73818594104307	349.9819954648526	64	127
349.9936054421769	350.24902494331064	48	127
350.2606349206349	350.50444444444446	62	127
350.2606349206349	350.50444444444446	53	127
350.2606349206349	350.50444444444446	58	127
350.51605442176873	350.7714739229025	36	127
350.51605442176873	350.7714739229025	48	127
350.78308390022676	351.0268934240363	58	127
350.78308390022676	351.0268934240363	52	127
350.78308390022676	351.0268934240363	60	127
351.0385034013606	351.28231292517006	48	127
351.29392290249433	351.5377324263039	60	127
351.29392290249433	351.5377324263039	52	127
351.29392290249433	351.5377324263039	58	127
351.54934240362815	351.79315192743763	48	127
351.79315192743763	352.0369614512472	58	127
351.79315192743763	352.0369614512472	52	127
351.79315192743763	352.0369614512472	60	127
352.04857142857145	352.3504308390023	48	127
352.3504308390023	352.6639002267574	62	127
352.3504308390023	352.6639002267574	58	127
352.3504308390023	352.6639002267574	53	127
352.67551020408166	352.91931972789115	48	127
352.9309297052154	353.13990929705216	64	127
352.9309297052154	353.13990929705216	55	127
352.9309297052154	353.13990929705216	58	127
353.1515192743764	353.4301587301587	48	127
353.441768707483	353.6971882086168	62	127
353.441768707483	353.6971882086168	53	127
353.441768707483	353.6971882086168	58	127
353.7087755102041	353.96421768707484	46	127
353.7087755102041	353.96421768707484	48	127
353.9758276643991	354.18480725623584	55	127
353.9758276643991	354.18480725623584	60	127
353.9758276643991	354.18480725623584	64	127
354.1964172335601	354.45183673469387	48	127
354.1964172335601	354.45183673469387	45	127
354.46344671201814	354.7536961451247	65	127
354.46344671201814	354.7536961451247	57	127
354.46344671201814	354.7536961451247	60	127
354.765306122449	355.0207256235828	40	127
354.765306122449	355.0207256235828	48	127
355.03231292517006	355.27614512471655	58	127
355.03231292517006	355.27614512471655	60	127
355.03231292517006	355.27614512471655	66	127
355.2877551020408	355.53156462585036	40	127
355.2877551020408	355.53156462585036	48	127
355.2877551020408	355.53156462585036	52	127
355.54315192743763	355.84503401360547	67	127
355.54315192743763	355.84503401360547	60	127
355.54315192743763	355.84503401360547	58	127
355.84503401360547	356.1120634920635	52	127
355.84503401360547	356.1120634920635	40	127
355.84503401360547	356.1120634920635	48	127
356.12367346938777	356.3907029478458	58	127
356.12367346938777	356.3907029478458	60	127
356.12367346938777	356.3907029478458	67	127
356.3907029478458	356.6461224489796	40	127
356.3907029478458	356.6461224489796	48	127
356.3907029478458	356.6461224489796	52	127
356.6577324263039	356.971179138322	58	127
356.6577324263039	356.971179138322	60	127
356.6577324263039	356.971179138322	68	127
356.9828117913832	357.238231292517	41	127
356.9828117913832	357.238231292517	48	127
356.9828117913832	357.238231292517	53	127
357.2498412698413	357.49362811791383	69	127
357.2498412698413	357.49362811791383	60	127
357.2498412698413	357.49362811791383	57	127
357.50526077097504	357.7142403628118	41	127
357.50526077097504	357.7142403628118	53	127
357.72585034013605	357.98126984126986	57	127
357.72585034013605	357.98126984126986	69	127
357.99285714285713	358.20183673469387	43	127
357.99285714285713	358.20183673469387	55	127
358.2134693877551	358.53854875283446	70	127
358.2134693877551	358.53854875283446	58	127
358.5501587301587	358.8171655328798	45	127
358.5501587301587	358.8171655328798	57	127
358.828798185941	359.08421768707484	72	127
358.828798185941	359.08421768707484	60	127
359.0958276643991	359.3280045351474	58	127
359.0958276643991	359.3280045351474	46	127
359.3396371882086	359.5950566893424	74	127
359.3396371882086	359.5950566893424	62	127
359.6066666666667	359.83884353741496	55	127
359.6066666666667	359.83884353741496	43	127
359.8504761904762	360.11750566893426	70	127
359.8504761904762	360.11750566893426	58	127
360.1291156462585	360.3845351473923	57	127
360.1291156462585	360.3845351473923	45	127
360.3845351473923	360.66315192743764	72	127
360.3845351473923	360.66315192743764	60	127
360.67478458049885	360.9185941043084	58	127
360.67478458049885	360.9185941043084	46	127
360.93020408163267	361.16238095238094	74	127
360.93020408163267	361.16238095238094	62	127
361.1739909297052	361.4178231292517	60	127
361.1739909297052	361.4178231292517	48	127
361.42943310657597	361.6732199546485	70	127
361.42943310657597	361.6732199546485	67	127
361.6848299319728	361.94027210884354	60	127
361.6848299319728	361.94027210884354	48	127
361.9518820861678	362.2073015873016	67	127
361.9518820861678	362.2073015873016	70	127
361.9518820861678	362.2073015873016	76	127
362.21891156462584	362.4627210884354	60	127
362.21891156462584	362.4627210884354	48	127
362.47433106575966	362.7645804988662	79	127
362.47433106575966	362.7645804988662	70	127
362.47433106575966	362.7645804988662	76	127
362.7761904761905	363.02	48	127
362.7761904761905	363.02	60	127
363.03160997732425	363.29863945578234	79	127
363.03160997732425	363.29863945578234	82	127
363.3102267573696	363.56566893424036	53	127
363.3102267573696	363.56566893424036	65	127
363.57727891156463	363.8675283446712	72	127
363.57727891156463	363.8675283446712	79	127
363.57727891156463	363.8675283446712	82	127
363.87913832199547	364.1461678004535	48	127
363.87913832199547	364.1461678004535	60	127
364.15777777777777	364.51768707482995	72	127
364.15777777777777	364.51768707482995	79	127
364.15777777777777	364.51768707482995	82	127
364.51768707482995	365.29555555555555	72	127
364.51768707482995	365.29555555555555	65	127
364.51768707482995	365.29555555555555	53	127
364.51768707482995	365.29555555555555	81	127
364.51768707482995	365.29555555555555	77	127
365.3071655328798	365.73673469387757	53	127
365.74834467120183	366.01537414965986	60	127
365.74834467120183	366.01537414965986	69	127
366.02698412698413	366.29401360544216	52	127
366.30562358276643	366.5726530612245	60	127
366.30562358276643	366.5726530612245	67	127
366.5842403628118	366.8280725623583	48	127
366.83968253968254	367.10671201814057	72	127
366.83968253968254	367.10671201814057	64	127
367.11832199546484	367.3853514739229	53	127
367.3969614512472	367.6407709750567	60	127
367.3969614512472	367.6407709750567	69	127
367.65238095238095	367.8845804988662	57	127
367.8961904761905	368.14	60	127
367.8961904761905	368.14	65	127
368.15160997732426	368.3954195011338	52	127
368.40702947845807	368.65083900226756	60	127
368.40702947845807	368.65083900226756	67	127
368.66244897959183	368.91786848072564	48	127
368.91786848072564	369.19650793650794	64	127
368.91786848072564	369.19650793650794	72	127
369.2081179138322	369.47514739229024	53	127
369.4867573696145	369.7189569160998	60	127
369.4867573696145	369.7189569160998	69	127
369.73056689342405	369.9975963718821	50	127
370.00920634920635	370.2530158730159	77	127
370.00920634920635	370.2530158730159	65	127
370.00920634920635	370.2530158730159	69	127
370.26460317460317	370.5316553287982	55	127
370.54326530612246	370.76385487528347	67	127
370.54326530612246	370.76385487528347	62	127
370.54326530612246	370.76385487528347	71	127
370.77544217687074	371.04249433106577	55	127
371.05410430839004	371.3095238095238	71	127
371.05410430839004	371.3095238095238	67	127
371.05410430839004	371.3095238095238	79	127
371.32113378684807	371.5997505668934	57	127
371.61138321995463	371.8435827664399	72	127
371.61138321995463	371.8435827664399	67	127
371.61138321995463	371.8435827664399	79	127
371.8551927437642	372.0990022675737	59	127
372.110589569161	372.33120181405894	77	127
372.110589569161	372.33120181405894	67	127
372.110589569161	372.33120181405894	74	127
372.3428117913832	372.62142857142857	60	127
372.62142857142857	372.91170068027213	72	127
372.62142857142857	372.91170068027213	67	127
372.62142857142857	372.91170068027213	76	127
372.91170068027213	373.1671201814059	62	127
373.17873015873016	373.434126984127	71	127
373.17873015873016	373.434126984127	65	127
373.17873015873016	373.434126984127	67	127
373.17873015873016	373.434126984127	74	127
373.4457596371882	373.68956916099773	52	127
373.4457596371882	373.68956916099773	64	127
373.701179138322	373.96820861678003	72	127
373.701179138322	373.96820861678003	67	127
373.9798185941043	374.2468480725624	65	127
373.9798185941043	374.2468480725624	53	127
374.25843537414966	374.50226757369614	69	127
374.25843537414966	374.50226757369614	74	127
374.25843537414966	374.50226757369614	72	127
374.5138775510204	375.00149659863945	55	127
374.5138775510204	375.00149659863945	67	127
374.7460770975057	375.00149659863945	76	127
374.7460770975057	375.00149659863945	72	127
375.0131065759637	375.245306122449	64	127
375.0131065759637	375.245306122449	52	127
375.25691609977326	375.512335600907	76	127
375.25691609977326	375.512335600907	60	127
375.25691609977326	375.512335600907	48	127
375.25691609977326	375.512335600907	72	127
375.25691609977326	375.512335600907	67	127
375.5239455782313	376.04639455782313	55	127
375.5239455782313	376.04639455782313	67	127
375.7909523809524	376.04639455782313	77	127
375.7909523809524	376.04639455782313	71	127
375.7909523809524	376.04639455782313	74	127
376.0580045351474	376.5920634920635	43	127
376.0580045351474	376.5920634920635	55	127
376.34825396825397	376.5920634920635	65	127
376.34825396825397	376.5920634920635	71	127
376.34825396825397	376.5920634920635	74	127
376.6036507936508	377.2422222222222	60	127
376.6036507936508	380.2956462585034	48	127
376.8474829931973	377.2422222222222	72	127
376.8474829931973	377.2422222222222	64	127
377.2538321995465	377.7762811791383	52	127
377.54408163265305	377.7762811791383	67	127
377.54408163265305	377.7762811791383	60	127
377.7878911564626	378.2755102040816	53	127
378.0432879818594	378.2755102040816	69	127
378.0432879818594	378.2755102040816	60	127
378.2871201814059	378.8327891156463	50	127
378.600589569161	378.8327891156463	71	127
378.600589569161	378.8327891156463	65	127
378.84439909297055	379.3668253968254	52	127
379.1346485260771	379.3668253968254	72	127
379.1346485260771	379.3668253968254	67	127
379.3784580498866	379.9473469387755	55	127
379.6686848072562	379.9473469387755	74	127
379.6686848072562	379.9473469387755	67	127
379.6686848072562	379.9473469387755	71	127
379.9589569160998	380.46979591836737	60	127
380.21437641723355	380.46979591836737	72	127
380.21437641723355	380.46979591836737	67	127
380.21437641723355	380.46979591836737	76	127
380.48140589569164	381.0038548752834	55	127
380.76004535147393	381.0038548752834	71	127
380.76004535147393	381.0038548752834	74	127
380.76004535147393	381.0038548752834	65	127
381.0038548752834	381.29410430839005	60	127
381.0038548752834	381.29410430839005	48	127
381.30571428571426	381.63079365079363	72	127
381.30571428571426	381.63079365079363	64	127
381.6424036281179	381.8746031746032	52	127
381.6424036281179	381.8746031746032	48	127
381.88621315192745	382.13002267573694	67	127
381.88621315192745	382.13002267573694	60	127
382.1416326530612	382.3738321995465	48	127
382.1416326530612	382.3738321995465	53	127
382.38544217687075	382.6408616780045	60	127
382.38544217687075	382.6408616780045	69	127
382.6524716553288	382.88467120181406	50	127
382.6524716553288	382.88467120181406	48	127
382.8962811791383	383.1749206349206	71	127
382.8962811791383	383.1749206349206	65	127
383.1865306122449	383.41873015873017	52	127
383.1865306122449	383.41873015873017	48	127
383.43034013605444	383.7321995464853	72	127
383.43034013605444	383.7321995464853	67	127
383.74380952380955	383.97600907029477	55	127
383.74380952380955	383.97600907029477	48	127
383.98761904761903	384.2314285714286	74	127
383.98761904761903	384.2314285714286	67	127
383.98761904761903	384.2314285714286	71	127
384.24303854875285	384.48684807256234	60	127
384.24303854875285	384.48684807256234	48	127
384.4984580498866	384.7538775510204	72	127
384.4984580498866	384.7538775510204	67	127
384.4984580498866	384.7538775510204	76	127
384.7654875283447	385.02090702947845	55	127
384.7654875283447	385.02090702947845	43	127
385.02090702947845	385.3227664399093	74	127
385.02090702947845	385.3227664399093	65	127
385.02090702947845	385.3227664399093	71	127
385.33437641723356	385.5781859410431	48	127
385.33437641723356	385.5781859410431	55	127
385.5897959183674	385.83360544217686	72	127
385.5897959183674	385.83360544217686	64	127
385.84521541950113	386.10063492063495	55	127
385.84521541950113	386.10063492063495	43	127
386.11224489795916	386.3560544217687	74	127
386.11224489795916	386.3560544217687	71	127
386.11224489795916	386.3560544217687	65	127
386.367664399093	386.62308390022673	55	127
386.367664399093	386.62308390022673	48	127
386.634693877551	386.9017233560091	72	127
386.634693877551	386.9017233560091	64	127
386.91333333333336	387.1687528344671	43	127
386.91333333333336	387.1687528344671	55	127
387.1803628117914	387.42417233560093	74	127
387.1803628117914	387.42417233560093	65	127
387.1803628117914	387.42417233560093	71	127
387.4357823129252	387.69120181405896	55	127
387.4357823129252	387.69120181405896	48	127
387.7028117913832	387.92340136054423	67	127
387.7028117913832	387.92340136054423	64	127
387.7028117913832	387.92340136054423	72	127
387.9350113378685	388.19043083900226	60	127
388.20204081632653	388.46907029478456	65	127
388.20204081632653	388.46907029478456	62	127
388.20204081632653	388.46907029478456	70	127
388.4806802721088	388.73609977324264	60	127
388.7477097505669	388.9915192743764	60	127
388.7477097505669	388.9915192743764	69	127
388.7477097505669	388.9915192743764	64	127
388.9915192743764	389.3049886621315	48	127
389.1772789115646	389.3049886621315	62	127
389.1772789115646	389.3049886621315	58	127
389.1772789115646	389.3049886621315	67	127
389.3514285714286	389.6184580498866	48	127
389.4907482993197	389.6184580498866	65	127
389.4907482993197	389.6184580498866	57	127
389.4907482993197	389.6184580498866	60	127
389.6300680272109	390.0248072562358	48	127
389.6300680272109	390.0248072562358	36	127
390.0364172335601	390.28022675736963	58	127
390.0364172335601	390.28022675736963	55	127
390.0364172335601	390.28022675736963	64	127
390.2918367346939	390.64013605442176	48	127
390.65174603174603	390.8955555555556	58	127
390.65174603174603	390.8955555555556	55	127
390.65174603174603	390.8955555555556	64	127
390.90716553287984	391.15097505668933	48	127
391.1625850340136	391.40639455782315	58	127
391.1625850340136	391.40639455782315	55	127
391.1625850340136	391.40639455782315	64	127
391.4180045351474	391.71986394557825	48	127
391.73147392290247	391.9868934240363	62	127
391.73147392290247	391.9868934240363	53	127
391.73147392290247	391.9868934240363	58	127
391.99850340136055	392.2307029478458	48	127
391.99850340136055	392.2307029478458	36	127
392.24231292517004	392.4861224489796	58	127
392.24231292517004	392.4861224489796	52	127
392.24231292517004	392.4861224489796	60	127
392.49773242630386	392.7415419501134	48	127
392.7531519274376	392.99696145124716	60	127
392.7531519274376	392.99696145124716	58	127
392.7531519274376	392.99696145124716	52	127
393.00857142857143	393.32204081632653	48	127
393.32204081632653	393.5658503401361	60	127
393.32204081632653	393.5658503401361	52	127
393.32204081632653	393.5658503401361	58	127
393.5774603174603	393.8328798185941	48	127
393.8444897959184	394.07668934240365	58	127
393.8444897959184	394.07668934240365	53	127
393.8444897959184	394.07668934240365	62	127
394.08829931972787	394.3785487528345	48	127
394.3901587301587	394.622358276644	58	127
394.3901587301587	394.622358276644	55	127
394.3901587301587	394.622358276644	64	127
394.63396825396825	394.8777777777778	48	127
394.88938775510206	395.13319727891155	58	127
394.88938775510206	395.13319727891155	53	127
394.88938775510206	395.13319727891155	62	127
395.1448072562358	395.40022675736964	48	127
395.1448072562358	395.40022675736964	46	127
395.41183673469385	395.6440362811791	64	127
395.41183673469385	395.6440362811791	55	127
395.41183673469385	395.6440362811791	60	127
395.6556462585034	395.9342857142857	45	127
395.6556462585034	395.9342857142857	48	127
395.94589569160996	396.2013151927438	65	127
395.94589569160996	396.2013151927438	57	127
395.94589569160996	396.2013151927438	60	127
396.21292517006805	396.4683446712018	48	127
396.21292517006805	396.4683446712018	40	127
396.4799546485261	396.7237641723356	66	127
396.4799546485261	396.7237641723356	60	127
396.4799546485261	396.7237641723356	58	127
396.7353741496599	396.99079365079365	52	127
396.7353741496599	396.99079365079365	40	127
396.7353741496599	396.99079365079365	48	127
397.0024036281179	397.2926530612245	58	127
397.0024036281179	397.2926530612245	60	127
397.0024036281179	397.2926530612245	67	127
397.2926530612245	397.5596825396825	40	127
397.2926530612245	397.5596825396825	48	127
397.2926530612245	397.5596825396825	52	127
397.5712925170068	397.8151020408163	58	127
397.5712925170068	397.8151020408163	60	127
397.5712925170068	397.8151020408163	67	127
397.8267120181406	398.1053514739229	40	127
397.8267120181406	398.1053514739229	48	127
397.8267120181406	398.1053514739229	52	127
398.11696145124716	398.372380952381	58	127
398.11696145124716	398.372380952381	60	127
398.11696145124716	398.372380952381	68	127
398.3839909297052	398.66263038548755	41	127
398.3839909297052	398.66263038548755	48	127
398.3839909297052	398.66263038548755	53	127
398.6742403628118	398.9528798185941	57	127
398.6742403628118	398.9528798185941	60	127
398.6742403628118	398.9528798185941	69	127
398.9644897959184	399.1966893424036	53	127
398.9644897959184	399.1966893424036	41	127
399.20829931972787	399.4521088435374	57	127
399.20829931972787	399.4521088435374	69	127
399.4637188208617	399.69591836734696	43	127
399.4637188208617	399.69591836734696	55	127
399.7075283446712	399.9513378684807	70	127
399.7075283446712	399.9513378684807	58	127
399.962947845805	400.19514739229027	57	127
399.962947845805	400.19514739229027	45	127
400.20675736961454	400.48539682539683	72	127
400.20675736961454	400.48539682539683	60	127
400.4970068027211	400.7408163265306	58	127
400.4970068027211	400.7408163265306	46	127
400.75242630385486	401.0078458049887	74	127
400.75242630385486	401.0078458049887	62	127
401.01945578231295	401.25165532879817	55	127
401.01945578231295	401.25165532879817	43	127
401.25165532879817	401.553514739229	70	127
401.25165532879817	401.553514739229	58	127
401.56512471655327	401.8089342403628	45	127
401.56512471655327	401.8089342403628	57	127
401.8205442176871	402.05274376417236	60	127
401.8205442176871	402.05274376417236	72	127
402.0643537414966	402.3197732426304	58	127
402.0643537414966	402.3197732426304	46	127
402.33138321995466	402.56358276643994	74	127
402.33138321995466	402.56358276643994	62	127
402.57519274376415	402.83061224489796	60	127
402.57519274376415	402.83061224489796	48	127
402.84222222222223	403.0744217687075	67	127
402.84222222222223	403.0744217687075	70	127
403.0860317460317	403.38789115646256	60	127
403.0860317460317	403.38789115646256	48	127
403.3995011337868	403.6433106575964	76	127
403.3995011337868	403.6433106575964	67	127
403.3995011337868	403.6433106575964	70	127
403.65492063492064	403.9103401360544	60	127
403.65492063492064	403.9103401360544	48	127
403.92195011337867	404.15414965986395	79	127
403.92195011337867	404.15414965986395	76	127
403.92195011337867	404.15414965986395	70	127
404.1657596371882	404.421179138322	60	127
404.1657596371882	404.421179138322	48	127
404.43278911564624	404.69981859410433	82	127
404.43278911564624	404.69981859410433	79	127
404.7114285714286	404.9552380952381	65	127
404.7114285714286	404.9552380952381	53	127
404.96684807256236	405.303537414966	82	127
404.96684807256236	405.303537414966	72	127
404.96684807256236	405.303537414966	79	127
405.303537414966	405.6286167800454	60	127
405.303537414966	405.6286167800454	48	127
405.6402267573696	406.1162358276644	82	127
405.6402267573696	406.1162358276644	79	127
405.6402267573696	406.1162358276644	72	127
406.1278458049887	408.2060317460317	53	127
406.1278458049887	408.2060317460317	77	127
406.1278458049887	408.2060317460317	81	127
406.1278458049887	408.2060317460317	65	127
406.1278458049887	408.2060317460317	72	127
408.217641723356	408.7633106575964	60	127
408.217641723356	409.1696598639456	56	127
408.7633106575964	409.1696598639456	65	127
409.18126984126985	409.5179591836735	64	127
409.18126984126985	409.5063492063492	55	127
409.18126984126985	409.5179591836735	58	127
409.18126984126985	411.5148752834467	48	127
409.5179591836735	409.90108843537416	60	127
409.5179591836735	409.8778684807256	56	127
409.5179591836735	409.90108843537416	65	127
409.90108843537416	410.249387755102	67	127
409.90108843537416	410.23777777777775	58	127
409.90108843537416	410.249387755102	61	127
410.249387755102	410.5280272108844	56	127
410.249387755102	410.53963718820864	60	127
410.249387755102	410.53963718820864	65	127
410.53963718820864	410.87632653061223	64	127
410.53963718820864	410.8531065759637	55	127
410.53963718820864	410.87632653061223	58	127
410.87632653061223	411.17818594104307	56	127
410.87632653061223	411.18979591836734	60	127
410.87632653061223	411.18979591836734	65	127
411.18979591836734	411.5148752834467	63	127
411.18979591836734	411.50326530612244	55	127
411.18979591836734	411.5148752834467	58	127
411.5148752834467	411.85156462585036	53	127
411.5148752834467	411.87478458049884	61	127
411.5148752834467	411.87478458049884	56	127
411.87478458049884	412.18825396825395	52	127
411.87478458049884	412.1998639455782	55	127
411.87478458049884	412.1998639455782	60	127
411.87478458049884	414.17356009070295	48	127
412.1998639455782	412.54816326530613	50	127
412.1998639455782	412.5597732426304	53	127
412.1998639455782	412.5597732426304	59	127
412.5597732426304	412.8268027210884	55	127
412.5597732426304	412.8268027210884	60	127
412.5597732426304	412.81519274376416	52	127
412.8268027210884	413.1867120181406	53	127
412.8268027210884	413.1867120181406	50	127
412.8268027210884	413.1867120181406	59	127
413.1867120181406	413.5234013605442	52	127
413.1867120181406	413.53501133786847	55	127
413.1867120181406	413.53501133786847	60	127
413.53501133786847	413.86009070294784	50	127
413.53501133786847	413.8717006802721	59	127
413.53501133786847	413.8717006802721	53	127
413.8717006802721	414.17356009070295	60	127
413.8717006802721	414.1503401360544	52	127
413.8717006802721	414.17356009070295	55	127
414.17356009070295	414.48702947845806	53	127
414.17356009070295	414.4986394557823	62	127
414.17356009070295	414.4986394557823	56	127
414.4986394557823	414.80049886621316	55	127
414.4986394557823	414.81210884353743	58	127
414.4986394557823	414.81210884353743	64	127
414.4986394557823	416.1936961451247	48	127
414.81210884353743	415.11396825396827	53	127
414.81210884353743	415.1371882086168	56	127
414.81210884353743	415.1371882086168	62	127
415.1371882086168	415.4158276643991	52	127
415.1371882086168	415.4274376417234	55	127
415.1371882086168	415.4274376417234	60	127
415.4274376417234	415.7292970521542	53	127
415.4274376417234	415.7409070294785	56	127
415.4274376417234	415.7409070294785	62	127
415.7409070294785	416.0543764172336	55	127
415.7409070294785	416.0659863945578	64	127
415.7409070294785	416.0659863945578	58	127
416.0659863945578	416.4491156462585	60	127
416.0659863945578	416.42589569161	56	127
416.0659863945578	416.4491156462585	65	127
416.4491156462585	417.16893424036283	48	127
416.4491156462585	416.7741950113379	58	127
416.4491156462585	416.7858049886621	61	127
416.4491156462585	416.7858049886621	67	127
416.7858049886621	417.16893424036283	63	127
416.7858049886621	417.16893424036283	68	127
416.7858049886621	417.16893424036283	60	127
417.1805442176871	418.3183219954648	60	127
417.1805442176871	418.57374149659864	69	127
417.1805442176871	418.57374149659864	66	127
417.1805442176871	418.57374149659864	63	127
417.1805442176871	418.3183219954648	48	127
418.57374149659864	419.3051700680272	49	127
418.57374149659864	419.3051700680272	61	127
418.57374149659864	419.3167800453515	65	127
418.57374149659864	419.3167800453515	70	127
419.3167800453515	420.19913832199546	65	127
419.3167800453515	420.19913832199546	71	127
419.3167800453515	420.19913832199546	43	127
419.3167800453515	420.19913832199546	55	127
419.3167800453515	420.19913832199546	59	127
420.222358276644	420.7215873015873	65	127
420.222358276644	420.7215873015873	56	127
420.222358276644	420.7215873015873	44	127
420.222358276644	420.7215873015873	60	127
420.222358276644	420.7215873015873	72	127
420.7331972789116	421.104716553288	53	127
420.7331972789116	421.104716553288	56	127
420.7331972789116	421.104716553288	60	127
421.104716553288	421.5110657596372	48	127
421.104716553288	421.5110657596372	65	127
421.104716553288	421.5110657596372	60	127
421.5110657596372	421.8593650793651	44	127
421.5110657596372	421.8593650793651	65	127
421.5110657596372	421.8593650793651	68	127
421.8593650793651	422.18444444444447	68	127
421.8593650793651	422.18444444444447	72	127
421.8593650793651	422.18444444444447	41	127
422.18444444444447	422.55596371882086	72	127
422.18444444444447	422.55596371882086	36	127
422.18444444444447	422.55596371882086	77	127
422.55596371882086	422.96231292517007	80	127
422.55596371882086	422.96231292517007	32	127
422.55596371882086	422.96231292517007	77	127
422.96231292517007	423.33383219954646	80	127
422.96231292517007	423.33383219954646	84	127
422.96231292517007	423.33383219954646	29	127
423.34544217687073	423.83306122448977	34	127
423.84467120181404	424.22780045351476	85	127
423.84467120181404	424.22780045351476	49	127
423.84467120181404	424.22780045351476	46	127
423.84467120181404	424.22780045351476	82	127
424.22780045351476	424.64575963718823	54	127
424.22780045351476	424.64575963718823	78	127
424.22780045351476	424.64575963718823	49	127
424.22780045351476	424.64575963718823	82	127
424.64575963718823	425.0288888888889	54	127
424.64575963718823	425.0288888888889	73	127
424.64575963718823	425.0288888888889	58	127
424.64575963718823	425.0288888888889	78	127
425.0288888888889	425.4004081632653	70	127
425.0288888888889	425.4004081632653	61	127
425.0288888888889	425.4004081632653	58	127
425.0288888888889	425.4004081632653	73	127
425.4004081632653	425.81836734693877	73	127
425.4004081632653	425.81836734693877	58	127
425.4004081632653	425.81836734693877	78	127
425.4004081632653	425.81836734693877	54	127
425.81836734693877	426.18988662131517	82	127
425.81836734693877	426.18988662131517	54	127
425.81836734693877	426.18988662131517	49	127
425.81836734693877	426.18988662131517	78	127
426.18988662131517	426.58462585034016	46	127
426.18988662131517	426.58462585034016	82	127
426.18988662131517	426.58462585034016	85	127
426.18988662131517	426.58462585034016	49	127
426.60784580498864	427.30444444444447	48	127
427.0025850340136	427.3160544217687	79	127
427.0025850340136	427.3160544217687	82	127
427.3160544217687	427.67596371882087	76	127
427.3160544217687	427.67596371882087	79	127
427.67596371882087	428.0242630385487	76	127
427.67596371882087	428.0242630385487	70	127
428.04748299319726	428.7092517006803	36	127
428.04748299319726	428.7092517006803	48	127
428.4190022675737	428.72086167800455	70	127
428.4190022675737	428.72086167800455	76	127
428.72086167800455	429.09238095238095	67	127
428.72086167800455	429.09238095238095	70	127
429.09238095238095	429.4755102040816	64	127
429.09238095238095	429.4755102040816	67	127
429.4871201814059	430.2533786848073	53	127
429.4871201814059	430.2533786848073	41	127
429.6728798185941	429.8818594104308	67	127
429.6728798185941	429.8818594104308	70	127
429.8818594104308	430.0676190476191	67	127
429.8818594104308	430.0676190476191	64	127
430.0676190476191	430.2533786848073	64	127
430.0676190476191	430.2533786848073	58	127
430.27659863945576	431.1473469387755	48	127
430.27659863945576	431.1473469387755	36	127
430.4739682539683	430.68294784580496	64	127
430.4739682539683	430.68294784580496	67	127
430.68294784580496	430.9615873015873	60	127
430.68294784580496	430.9615873015873	64	127
430.9615873015873	431.1589569160998	58	127
430.9615873015873	431.1589569160998	60	127
431.1589569160998	432.13419501133785	60	127
431.1589569160998	432.13419501133785	53	127
431.1589569160998	432.13419501133785	56	127
431.1589569160998	432.13419501133785	41	127
432.1574149659864	432.5173242630386	60	127
432.1574149659864	432.95850340136053	56	127
432.5173242630386	432.95850340136053	65	127
432.9701133786848	433.330022675737	58	127
432.9701133786848	433.330022675737	64	127
432.9701133786848	435.3733786848073	48	127
432.9701133786848	433.330022675737	55	127
433.330022675737	433.6551020408163	65	127
433.330022675737	433.6434920634921	56	127
433.330022675737	433.6551020408163	60	127
433.6551020408163	434.0150113378685	61	127
433.6551020408163	434.0034013605442	58	127
433.6551020408163	434.0150113378685	67	127
434.0150113378685	434.39814058956915	60	127
434.0150113378685	434.39814058956915	65	127
434.0150113378685	434.36331065759634	56	127
434.39814058956915	434.75804988662134	55	127
434.39814058956915	434.75804988662134	58	127
434.39814058956915	434.75804988662134	64	127
434.75804988662134	435.0482993197279	56	127
434.75804988662134	435.0599092970522	65	127
434.75804988662134	435.0599092970522	60	127
435.0599092970522	435.3733786848073	63	127
435.0599092970522	435.361768707483	55	127
435.0599092970522	435.3733786848073	58	127
435.3733786848073	435.71006802721087	61	127
435.3733786848073	435.6984580498866	53	127
435.3733786848073	435.71006802721087	56	127
435.71006802721087	436.06997732426305	60	127
435.71006802721087	436.0583673469388	52	127
435.71006802721087	436.06997732426305	55	127
435.71006802721087	437.9391836734694	48	127
436.06997732426305	436.38344671201816	53	127
436.06997732426305	436.3718367346939	50	127
436.06997732426305	436.38344671201816	59	127
436.38344671201816	436.685306122449	52	127
436.38344671201816	436.70852607709753	55	127
436.38344671201816	436.70852607709753	60	127
436.70852607709753	437.0452154195011	53	127
436.70852607709753	437.03360544217685	50	127
436.70852607709753	437.0452154195011	59	127
437.0452154195011	437.38190476190476	60	127
437.0452154195011	437.38190476190476	52	127
437.0452154195011	437.38190476190476	55	127
437.38190476190476	437.6837641723356	50	127
437.38190476190476	437.69537414965987	59	127
437.38190476190476	437.69537414965987	53	127
437.69537414965987	437.9391836734694	55	127
437.69537414965987	437.92757369614515	52	127
437.69537414965987	437.9391836734694	60	127
437.9391836734694	438.3107029478458	53	127
437.9391836734694	438.3223129251701	56	127
437.9391836734694	438.3223129251701	62	127
438.3223129251701	438.6938321995465	55	127
438.3223129251701	440.040589569161	48	127
438.3223129251701	438.70544217687075	58	127
438.3223129251701	438.70544217687075	64	127
438.70544217687075	439.0305215419501	62	127
438.70544217687075	439.0305215419501	56	127
438.70544217687075	439.0305215419501	53	127
439.0305215419501	439.2627210884354	52	127
439.0305215419501	439.2743310657596	60	127
439.0305215419501	439.2743310657596	55	127
439.2743310657596	439.61102040816326	62	127
439.2743310657596	439.599410430839	53	127
439.2743310657596	439.61102040816326	56	127
439.61102040816326	439.92448979591836	55	127
439.61102040816326	439.9477097505669	64	127
439.61102040816326	439.9477097505669	58	127
439.9477097505669	440.2727891156463	56	127
439.9477097505669	440.28439909297055	60	127
439.9477097505669	440.28439909297055	65	127
440.28439909297055	440.60947845804986	67	127
440.28439909297055	441.0506575963719	48	127
440.28439909297055	440.60947845804986	61	127
440.28439909297055	440.59786848072565	58	127
440.60947845804986	441.0506575963719	68	127
440.60947845804986	441.0506575963719	60	127
440.60947845804986	441.0506575963719	63	127
441.0738775510204	442.5483446712018	63	127
441.0738775510204	442.5483446712018	69	127
441.0738775510204	442.29292517006803	60	127
441.0738775510204	442.29292517006803	48	127
441.0738775510204	442.5483446712018	66	127
442.5483446712018	443.3378231292517	61	127
442.5483446712018	443.349433106576	65	127
442.5483446712018	443.3378231292517	49	127
442.5483446712018	443.349433106576	70	127
443.349433106576	444.2434013605442	65	127
443.349433106576	444.2434013605442	55	127
443.349433106576	444.2434013605442	43	127
443.349433106576	444.2434013605442	71	127
443.349433106576	444.2434013605442	59	127
444.2550113378685	444.6613605442177	72	127
444.2550113378685	444.6613605442177	56	127
444.2550113378685	444.6613605442177	65	127
444.2550113378685	444.6613605442177	44	127
444.2550113378685	444.6613605442177	60	127
444.67297052154197	445.1257596371882	56	127
444.67297052154197	445.1257596371882	53	127
444.67297052154197	445.1257596371882	60	127
445.1257596371882	445.49727891156465	48	127
445.1257596371882	445.49727891156465	60	127
445.1257596371882	445.49727891156465	65	127
445.49727891156465	445.8571882086168	65	127
445.49727891156465	445.8571882086168	68	127
445.49727891156465	445.8571882086168	44	127
445.8571882086168	446.21709750566896	68	127
445.8571882086168	446.21709750566896	72	127
445.8571882086168	446.21709750566896	41	127
446.21709750566896	446.58861678004536	72	127
446.21709750566896	446.58861678004536	36	127
446.21709750566896	446.58861678004536	77	127
446.58861678004536	447.02979591836737	32	127
446.58861678004536	447.02979591836737	80	127
446.58861678004536	447.02979591836737	77	127
447.02979591836737	447.3897052154195	84	127
447.02979591836737	447.3897052154195	80	127
447.02979591836737	447.3897052154195	29	127
447.40131519274377	447.85410430839005	34	127
447.87732426303853	448.28367346938774	85	127
447.87732426303853	448.28367346938774	82	127
447.87732426303853	448.28367346938774	49	127
447.87732426303853	448.28367346938774	46	127
448.28367346938774	448.69002267573694	54	127
448.28367346938774	448.69002267573694	82	127
448.28367346938774	448.69002267573694	78	127
448.28367346938774	448.69002267573694	49	127
448.69002267573694	449.0615419501134	73	127
448.69002267573694	449.0615419501134	58	127
448.69002267573694	449.0615419501134	54	127
448.69002267573694	449.0615419501134	78	127
449.0615419501134	449.44467120181406	61	127
449.0615419501134	449.44467120181406	70	127
449.0615419501134	449.44467120181406	58	127
449.0615419501134	449.44467120181406	73	127
449.44467120181406	449.8858503401361	58	127
449.44467120181406	449.8858503401361	73	127
449.44467120181406	449.8858503401361	54	127
449.44467120181406	449.8858503401361	78	127
449.8858503401361	450.39668934240365	49	127
449.8858503401361	450.39668934240365	78	127
449.8858503401361	450.39668934240365	82	127
449.8858503401361	450.39668934240365	54	127
450.39668934240365	450.7565986394558	49	127
450.39668934240365	450.7565986394558	46	127
450.39668934240365	450.7565986394558	85	127
450.39668934240365	450.7565986394558	82	127
450.7798185941043	451.62734693877553	48	127
451.26743764172335	451.6389569160998	82	127
451.26743764172335	451.6389569160998	79	127
451.6389569160998	451.9756462585034	79	127
451.6389569160998	451.9756462585034	76	127
451.9756462585034	452.31233560090703	70	127
451.9756462585034	452.31233560090703	76	127
452.3239455782313	453.0437641723356	36	127
452.3239455782313	453.0437641723356	48	127
452.68385487528343	453.06698412698415	70	127
452.68385487528343	453.06698412698415	76	127
453.06698412698415	453.43850340136055	70	127
453.06698412698415	453.43850340136055	67	127
453.43850340136055	453.856462585034	67	127
453.43850340136055	453.856462585034	64	127
453.8680725623583	454.6111111111111	41	127
453.8680725623583	454.6111111111111	53	127
454.07705215419503	454.2628117913832	67	127
454.07705215419503	454.2628117913832	70	127
454.2628117913832	454.4485714285714	64	127
454.2628117913832	454.4485714285714	67	127
454.4485714285714	454.6111111111111	58	127
454.4485714285714	454.6111111111111	64	127
454.6343310657596	455.5515192743764	48	127
454.6343310657596	455.5515192743764	36	127
454.8200907029478	454.9942403628118	64	127
454.8200907029478	454.9942403628118	67	127
454.9942403628118	455.2148299319728	60	127
454.9942403628118	455.2148299319728	64	127
455.2148299319728	455.5631292517007	58	127
455.2148299319728	455.5631292517007	60	127
455.5631292517007	456.42226757369616	60	127
455.5631292517007	456.42226757369616	56	127
455.5631292517007	456.42226757369616	41	127
455.5631292517007	456.42226757369616	53	127
456.43387755102043	456.82861678004537	68	127
456.43387755102043	456.82861678004537	53	127
456.84022675736963	457.2233560090703	65	127
456.84022675736963	457.2233560090703	56	127
457.24657596371884	457.61809523809524	52	127
457.24657596371884	457.60648526077097	67	127
457.61809523809524	459.0345124716553	60	127
457.61809523809524	458.0128344671202	64	127
457.61809523809524	458.0128344671202	72	127
457.61809523809524	458.0128344671202	48	127
458.0128344671202	458.3495238095238	50	127
458.0128344671202	458.3495238095238	65	127
458.0128344671202	458.3495238095238	71	127
458.3495238095238	458.6978231292517	70	127
458.3495238095238	458.6978231292517	67	127
458.3495238095238	458.6978231292517	52	127
458.6978231292517	459.0461224489796	69	127
458.6978231292517	459.0345124716553	53	127
459.0461224489796	460.10263038548754	48	127
459.0461224489796	459.3944217687075	68	127
459.0461224489796	459.38281179138323	41	127
459.0461224489796	459.3944217687075	60	127
459.3944217687075	459.75433106575963	58	127
459.3944217687075	459.75433106575963	67	127
459.3944217687075	459.7311111111111	40	127
459.75433106575963	460.10263038548754	41	127
459.75433106575963	460.10263038548754	65	127
459.75433106575963	460.10263038548754	56	127
460.1142403628118	460.46253968253967	52	127
460.1142403628118	460.46253968253967	48	127
460.1142403628118	460.46253968253967	55	127
460.1142403628118	460.46253968253967	60	127
460.1142403628118	460.46253968253967	36	127
460.1142403628118	460.46253968253967	64	127
460.47414965986394	461.55387755102043	60	127
460.47414965986394	460.8572789115646	64	127
460.47414965986394	460.8572789115646	72	127
460.47414965986394	460.8572789115646	48	127
460.8572789115646	461.2055782312925	50	127
460.8572789115646	461.2055782312925	71	127
460.8572789115646	461.2055782312925	65	127
461.2055782312925	461.56548752834465	70	127
461.2055782312925	461.56548752834465	67	127
461.2055782312925	461.56548752834465	52	127
461.56548752834465	461.92539682539683	53	127
461.56548752834465	461.92539682539683	68	127
461.56548752834465	461.92539682539683	60	127
461.92539682539683	462.2504761904762	77	127
461.92539682539683	462.2504761904762	68	127
461.92539682539683	462.2504761904762	50	127
462.2504761904762	462.61038548752833	74	127
462.2504761904762	462.61038548752833	51	127
462.2504761904762	462.61038548752833	65	127
462.61038548752833	462.9354648526077	63	127
462.61038548752833	462.9354648526077	72	127
462.61038548752833	462.9354648526077	53	127
462.947074829932	463.3185941043084	62	127
462.947074829932	463.3185941043084	71	127
462.947074829932	463.3185941043084	55	127
463.3418140589569	464.01519274376415	67	127
463.3418140589569	463.7133333333333	55	127
463.3418140589569	464.01519274376415	79	127
463.7133333333333	464.0268027210884	56	127
464.0268027210884	464.6653514739229	79	127
464.0268027210884	464.6653514739229	67	127
464.0268027210884	464.3867120181406	55	127
464.3867120181406	464.68857142857144	56	127
464.68857142857144	465.45482993197277	79	127
464.68857142857144	465.08331065759637	57	127
464.68857142857144	465.45482993197277	67	127
465.08331065759637	465.46643990929704	59	127
465.46643990929704	465.861179138322	65	127
465.46643990929704	465.861179138322	77	127
465.46643990929704	465.861179138322	55	127
465.8843990929705	466.2443083900227	60	127
465.8843990929705	466.2326984126984	75	127
465.8843990929705	466.2443083900227	48	127
465.8843990929705	466.2326984126984	63	127
466.2443083900227	466.569387755102	65	127
466.2443083900227	466.569387755102	77	127
466.2443083900227	466.5809977324263	47	127
466.2443083900227	466.5809977324263	59	127
466.5809977324263	466.9176870748299	60	127
466.5809977324263	466.8944671201814	75	127
466.5809977324263	466.9176870748299	48	127
466.5809977324263	466.8944671201814	63	127
466.9176870748299	467.2543764172336	74	127
466.9176870748299	467.2543764172336	62	127
466.9176870748299	467.26598639455784	55	127
466.9176870748299	467.26598639455784	43	127
467.26598639455784	467.60267573696143	60	127
467.26598639455784	467.6142857142857	44	127
467.26598639455784	467.60267573696143	72	127
467.26598639455784	467.6142857142857	56	127
467.6142857142857	467.9741950113379	71	127
467.6142857142857	467.9741950113379	59	127
467.6142857142857	467.9974149659864	55	127
467.6142857142857	467.9974149659864	43	127
467.9974149659864	468.31088435374147	56	127
467.9974149659864	468.287664399093	72	127
467.9974149659864	468.287664399093	60	127
467.9974149659864	468.31088435374147	44	127
468.31088435374147	468.72884353741495	53	127
468.31088435374147	468.72884353741495	62	127
468.31088435374147	468.72884353741495	41	127
468.31088435374147	468.72884353741495	74	127
468.7404535147392	469.79696145124717	75	127
468.7404535147392	469.13519274376415	43	127
468.7404535147392	469.13519274376415	55	127
468.7404535147392	469.1235827664399	63	127
469.13519274376415	469.48349206349206	51	127
469.13519274376415	469.79696145124717	67	127
469.13519274376415	469.48349206349206	39	127
469.48349206349206	469.80857142857144	48	127
469.48349206349206	469.80857142857144	36	127
469.80857142857144	470.21492063492065	32	127
469.80857142857144	470.2033106575964	65	127
469.80857142857144	470.21492063492065	44	127
469.80857142857144	470.2033106575964	75	127
470.21492063492065	470.6096598639456	31	127
470.21492063492065	470.9579591836735	75	127
470.21492063492065	470.6096598639456	43	127
470.21492063492065	470.58643990929704	67	127
470.6096598639456	470.9579591836735	69	127
470.6096598639456	470.9695691609977	42	127
470.6096598639456	470.9695691609977	30	127
470.9695691609977	471.39913832199545	43	127
470.9695691609977	471.66616780045354	77	127
470.9695691609977	471.39913832199545	31	127
470.9695691609977	471.3875283446712	67	127
471.39913832199545	472.0144671201814	65	127
471.39913832199545	472.0144671201814	31	127
471.39913832199545	472.0144671201814	43	127
471.6777777777778	472.0144671201814	75	127
472.03768707482993	472.4556462585034	36	127
472.03768707482993	474.56866213151926	48	127
472.03768707482993	472.43242630385487	63	127
472.03768707482993	472.43242630385487	72	127
472.4556462585034	472.81555555555553	52	127
472.81555555555553	473.16385487528345	53	127
473.16385487528345	473.51215419501136	52	127
473.51215419501136	473.82562358276647	53	127
473.82562358276647	474.19714285714286	51	127
474.19714285714286	474.56866213151926	50	127
474.56866213151926	474.9401814058957	55	127
474.56866213151926	474.9401814058957	74	127
474.9517913832199	475.3233106575964	48	127
474.9517913832199	475.33492063492065	75	127
475.33492063492065	476.11278911564625	67	127
475.33492063492065	475.7180498866213	47	127
475.33492063492065	475.7180498866213	74	127
475.7180498866213	476.11278911564625	48	127
475.7180498866213	476.11278911564625	75	127
476.11278911564625	476.51913832199546	67	127
476.11278911564625	476.51913832199546	72	127
476.11278911564625	476.51913832199546	46	127
476.11278911564625	476.51913832199546	76	127
476.51913832199546	476.8906575963719	72	127
476.51913832199546	476.8906575963719	44	127
476.51913832199546	476.8906575963719	77	127
476.51913832199546	476.8906575963719	68	127
476.8906575963719	477.23895691609977	74	127
476.8906575963719	477.23895691609977	41	127
476.8906575963719	477.23895691609977	65	127
476.8906575963719	477.23895691609977	68	127
477.23895691609977	477.61047619047616	63	127
477.23895691609977	477.61047619047616	43	127
477.23895691609977	477.61047619047616	67	127
477.23895691609977	477.61047619047616	72	127
477.61047619047616	478.00521541950116	71	127
477.61047619047616	478.00521541950116	65	127
477.61047619047616	478.00521541950116	62	127
477.61047619047616	478.00521541950116	31	127
478.0168253968254	480.6522902494331	48	127
478.0168253968254	478.4580045351474	72	127
478.0168253968254	478.43478458049884	36	127
478.0168253968254	478.4580045351474	63	127
478.4580045351474	478.8527437641723	67	127
478.4580045351474	478.8527437641723	55	127
478.8527437641723	479.20104308390023	56	127
478.8527437641723	479.20104308390023	68	127
479.20104308390023	479.56095238095236	55	127
479.20104308390023	479.56095238095236	67	127
479.56095238095236	479.92086167800454	68	127
479.56095238095236	479.92086167800454	56	127
479.92086167800454	480.3039909297052	69	127
479.92086167800454	480.3039909297052	57	127
480.3039909297052	480.6522902494331	58	127
480.3039909297052	480.6522902494331	70	127
480.6522902494331	481.04702947845806	59	127
480.6522902494331	481.04702947845806	71	127
481.0702494331066	481.441768707483	48	127
481.0702494331066	481.441768707483	60	127
481.0702494331066	481.45337868480726	72	127
481.45337868480726	481.8481179138322	74	127
481.45337868480726	481.8481179138322	59	127
481.45337868480726	482.2080272108844	67	127
481.8481179138322	482.23124716553286	75	127
481.8481179138322	482.23124716553286	60	127
482.23124716553286	482.6143764172336	58	127
482.23124716553286	482.6027664399093	67	127
482.23124716553286	482.6143764172336	72	127
482.23124716553286	482.6143764172336	76	127
482.6143764172336	482.9742857142857	56	127
482.6143764172336	482.9742857142857	77	127
482.6143764172336	482.96267573696144	72	127
482.6143764172336	482.96267573696144	68	127
482.9742857142857	483.36902494331065	74	127
482.9742857142857	483.3458049886621	68	127
482.9742857142857	483.3458049886621	65	127
482.9742857142857	483.36902494331065	53	127
483.36902494331065	483.7637641723356	72	127
483.36902494331065	483.7637641723356	55	127
483.36902494331065	483.7405442176871	67	127
483.36902494331065	483.7405442176871	63	127
483.7637641723356	484.1468934240363	62	127
483.7637641723356	484.1468934240363	43	127
483.7637641723356	484.1468934240363	71	127
483.7637641723356	484.1468934240363	65	127
484.1585034013605	484.5648526077097	67	127
484.1585034013605	484.5532426303855	43	127
484.1585034013605	484.5648526077097	72	127
484.1585034013605	484.5648526077097	63	127
484.1585034013605	484.5532426303855	36	127
484.5648526077097	485.7722902494331	43	127
484.5648526077097	484.94798185941045	74	127
484.5648526077097	485.7722902494331	31	127
484.5648526077097	484.94798185941045	68	127
484.5648526077097	484.94798185941045	65	127
484.94798185941045	485.3775510204082	63	127
484.94798185941045	485.3775510204082	67	127
484.94798185941045	485.3775510204082	72	127
485.3775510204082	485.7722902494331	71	127
485.3775510204082	485.7722902494331	62	127
485.3775510204082	485.7722902494331	65	127
485.7722902494331	486.13219954648525	43	127
485.7722902494331	486.1554195011338	63	127
485.7722902494331	486.13219954648525	36	127
485.7722902494331	486.1554195011338	67	127
485.7722902494331	486.1554195011338	72	127
486.1554195011338	486.60820861678	68	127
486.1554195011338	486.60820861678	74	127
486.1554195011338	487.39768707482995	31	127
486.1554195011338	487.89691609977325	43	127
486.1554195011338	486.60820861678	65	127
486.60820861678	487.0145578231292	63	127
486.60820861678	487.0145578231292	67	127
486.60820861678	487.0145578231292	72	127
487.0145578231292	487.39768707482995	71	127
487.0145578231292	487.39768707482995	65	127
487.0145578231292	487.39768707482995	62	127
487.4209070294785	487.89691609977325	67	127
487.4209070294785	488.3497052154195	72	127
487.4209070294785	487.89691609977325	63	127
487.4209070294785	496.46507936507936	36	127
487.9201360544218	489.6035827664399	48	127
487.9201360544218	488.33809523809526	64	127
488.3497052154195	488.81410430839003	68	127
488.3497052154195	488.81410430839003	65	127
488.3497052154195	488.8257142857143	73	127
488.8257142857143	489.1972335600907	67	127
488.8257142857143	489.22045351473923	72	127
488.8257142857143	489.1972335600907	63	127
489.22045351473923	489.61519274376417	70	127
489.22045351473923	489.61519274376417	61	127
489.22045351473923	489.61519274376417	65	127
489.61519274376417	490.0099319727891	60	127
489.61519274376417	496.46507936507936	48	127
489.61519274376417	490.0099319727891	63	127
489.61519274376417	490.0099319727891	68	127
490.0099319727891	490.47433106575966	67	127
490.0099319727891	490.47433106575966	61	127
490.0099319727891	490.47433106575966	58	127
490.0099319727891	490.4511111111111	46	127
490.47433106575966	490.88068027210886	44	127
490.47433106575966	490.88068027210886	65	127
490.47433106575966	490.88068027210886	60	127
490.47433106575966	490.88068027210886	56	127
490.89229024943313	491.34507936507936	64	127
490.89229024943313	491.34507936507936	43	127
490.89229024943313	491.34507936507936	58	127
490.89229024943313	491.34507936507936	55	127
491.3566893424036	491.75142857142856	65	127
491.3566893424036	491.75142857142856	60	127
491.3566893424036	491.75142857142856	56	127
491.3566893424036	491.75142857142856	44	127
491.7746485260771	492.11133786848075	46	127
491.7746485260771	492.11133786848075	61	127
491.7746485260771	492.11133786848075	58	127
491.7746485260771	492.11133786848075	67	127
492.1345578231292	492.4944671201814	56	127
492.1345578231292	492.4944671201814	65	127
492.1345578231292	492.4944671201814	44	127
492.1345578231292	492.4944671201814	60	127
492.5060770975057	492.8775963718821	43	127
492.5060770975057	492.8775963718821	64	127
492.5060770975057	492.8775963718821	55	127
492.5060770975057	492.8775963718821	58	127
492.88920634920635	493.2142857142857	65	127
492.88920634920635	493.2142857142857	44	127
492.88920634920635	493.2142857142857	60	127
492.88920634920635	493.2142857142857	56	127
493.23750566893426	493.5393650793651	55	127
493.23750566893426	493.5393650793651	58	127
493.23750566893426	493.5393650793651	63	127
493.23750566893426	493.5393650793651	43	127
493.55097505668937	493.92249433106576	53	127
493.55097505668937	493.92249433106576	61	127
493.55097505668937	493.92249433106576	56	127
493.55097505668937	493.92249433106576	41	127
493.93410430839003	494.29401360544216	55	127
493.93410430839003	494.29401360544216	52	127
493.93410430839003	494.29401360544216	40	127
493.93410430839003	494.29401360544216	60	127
494.3172335600907	494.6655328798186	53	127
494.3172335600907	494.6655328798186	50	127
494.3172335600907	494.6655328798186	38	127
494.3172335600907	494.6655328798186	59	127
494.6771428571429	495.02544217687074	40	127
494.6771428571429	495.02544217687074	55	127
494.6771428571429	495.02544217687074	52	127
494.6771428571429	495.02544217687074	60	127
495.037052154195	495.3505215419501	38	127
495.037052154195	495.3505215419501	59	127
495.037052154195	495.3505215419501	53	127
495.037052154195	495.3505215419501	50	127
495.37374149659865	495.7220408163265	40	127
495.37374149659865	495.7220408163265	52	127
495.37374149659865	495.7220408163265	60	127
495.37374149659865	495.7220408163265	55	127
495.74526077097505	496.10517006802723	53	127
495.74526077097505	496.10517006802723	38	127
495.74526077097505	496.10517006802723	59	127
495.74526077097505	496.10517006802723	50	127
496.11678004535145	496.4534693877551	60	127
496.11678004535145	496.4534693877551	52	127
496.11678004535145	496.4534693877551	55	127
496.11678004535145	496.4534693877551	40	127
496.46507936507936	496.82498866213155	41	127
496.46507936507936	496.82498866213155	56	127
496.46507936507936	496.82498866213155	53	127
496.46507936507936	496.82498866213155	62	127
496.84820861678	497.2197278911565	55	127
496.84820861678	497.2197278911565	64	127
496.84820861678	497.2081179138322	43	127
496.84820861678	497.2197278911565	58	127
497.2197278911565	497.5796371882086	62	127
497.2197278911565	497.5796371882086	56	127
497.2197278911565	497.5796371882086	53	127
497.2197278911565	497.56802721088434	41	127
497.5796371882086	497.904716553288	40	127
497.5796371882086	497.9279365079365	52	127
497.5796371882086	497.9279365079365	55	127
497.5796371882086	497.9279365079365	60	127
497.9279365079365	498.2646258503401	62	127
497.9279365079365	498.2530158730159	41	127
497.9279365079365	498.2646258503401	53	127
497.9279365079365	498.2646258503401	56	127
498.2646258503401	498.612925170068	64	127
498.2646258503401	498.612925170068	58	127
498.2646258503401	498.60131519274375	43	127
498.2646258503401	498.612925170068	55	127
498.612925170068	498.9960544217687	60	127
498.612925170068	498.9960544217687	65	127
498.612925170068	498.9728344671202	44	127
498.612925170068	498.9960544217687	56	127
498.9960544217687	499.3907936507936	46	127
498.9960544217687	499.41401360544216	67	127
498.9960544217687	499.41401360544216	61	127
498.9960544217687	499.41401360544216	58	127
499.41401360544216	499.8551927437642	48	127
499.41401360544216	499.8551927437642	51	127
499.41401360544216	499.8551927437642	68	127
499.41401360544216	499.8551927437642	60	127
499.41401360544216	499.8551927437642	63	127
499.41401360544216	499.8551927437642	56	127
499.86680272108845	501.3412698412698	69	127
499.86680272108845	501.09746031746033	54	127
499.86680272108845	501.3412698412698	66	127
499.86680272108845	501.09746031746033	57	127
499.86680272108845	501.3412698412698	60	127
499.86680272108845	501.09746031746033	51	127
499.86680272108845	501.3412698412698	63	127
499.86680272108845	501.09746031746033	48	127
501.3412698412698	502.2468480725624	70	127
501.3412698412698	502.2468480725624	61	127
501.3412698412698	502.2468480725624	65	127
501.3412698412698	502.2352380952381	49	127
501.3412698412698	502.2352380952381	53	127
501.3412698412698	502.2352380952381	58	127
502.2468480725624	503.245306122449	43	127
502.2468480725624	503.245306122449	59	127
502.2468480725624	503.245306122449	31	127
502.2468480725624	503.245306122449	65	127
502.2468480725624	503.245306122449	71	127
503.26852607709753	503.76775510204084	72	127
503.26852607709753	503.76775510204084	32	127
503.26852607709753	503.76775510204084	44	127
503.26852607709753	503.76775510204084	60	127
503.26852607709753	503.76775510204084	65	127
503.8025850340136	504.26698412698414	56	127
503.8025850340136	504.26698412698414	60	127
503.8025850340136	504.26698412698414	53	127
504.26698412698414	504.6501133786848	68	127
504.26698412698414	504.6501133786848	48	127
504.26698412698414	504.6501133786848	60	127
504.26698412698414	504.6501133786848	65	127
504.6501133786848	505.01002267573693	65	127
504.6501133786848	505.01002267573693	68	127
504.6501133786848	505.0332426303855	44	127
505.0332426303855	505.4047619047619	41	127
505.0332426303855	505.4047619047619	72	127
505.0332426303855	505.4047619047619	68	127
505.4047619047619	505.79950113378686	36	127
505.4047619047619	505.79950113378686	72	127
505.4047619047619	505.79950113378686	77	127
505.79950113378686	506.29873015873017	32	127
505.79950113378686	506.29873015873017	80	127
505.79950113378686	506.29873015873017	77	127
506.29873015873017	506.67024943310656	80	127
506.29873015873017	506.67024943310656	84	127
506.29873015873017	506.67024943310656	29	127
506.68185941043083	507.27396825396823	34	127
507.2855782312925	507.71514739229025	82	127
507.2855782312925	507.71514739229025	46	127
507.2855782312925	507.71514739229025	85	127
507.2855782312925	507.71514739229025	49	127
507.71514739229025	508.1098866213152	82	127
507.71514739229025	508.1098866213152	49	127
507.71514739229025	508.1098866213152	54	127
507.71514739229025	508.1098866213152	78	127
508.1098866213152	508.49301587301585	54	127
508.1098866213152	508.49301587301585	78	127
508.1098866213152	508.49301587301585	58	127
508.1098866213152	508.49301587301585	73	127
508.49301587301585	508.9109750566893	58	127
508.49301587301585	508.9109750566893	61	127
508.49301587301585	508.9109750566893	73	127
508.49301587301585	508.9109750566893	70	127
508.9109750566893	509.35215419501134	78	127
508.9109750566893	509.35215419501134	54	127
508.9109750566893	509.35215419501134	58	127
508.9109750566893	509.35215419501134	73	127
509.35215419501134	509.7817233560091	49	127
509.35215419501134	509.7817233560091	54	127
509.35215419501134	509.7817233560091	78	127
509.35215419501134	509.7817233560091	82	127
509.7817233560091	510.176462585034	85	127
509.7817233560091	510.176462585034	46	127
509.7817233560091	510.176462585034	82	127
509.7817233560091	510.176462585034	49	127
510.1880725623583	511.0472108843537	48	127
510.69891156462586	511.058820861678	79	127
510.69891156462586	511.058820861678	82	127
511.058820861678	511.43034013605444	79	127
511.058820861678	511.43034013605444	76	127
511.43034013605444	511.7786394557823	76	127
511.43034013605444	511.7786394557823	70	127
511.80185941043084	512.5448979591837	48	127
511.80185941043084	512.5448979591837	36	127
512.1849886621316	512.556507936508	70	127
512.1849886621316	512.556507936508	76	127
512.556507936508	512.9164172335601	67	127
512.556507936508	512.9164172335601	70	127
512.9164172335601	513.3343764172336	64	127
512.9164172335601	513.3343764172336	67	127
513.3575963718821	514.1238548752834	41	127
513.3575963718821	514.1238548752834	53	127
513.5433560090703	513.7291156462585	67	127
513.5433560090703	513.7291156462585	70	127
513.7291156462585	513.9497052154195	64	127
513.7291156462585	513.9497052154195	67	127
513.9497052154195	514.1238548752834	58	127
513.9497052154195	514.1238548752834	64	127
514.1354648526077	515.0642630385488	48	127
514.1354648526077	515.0642630385488	36	127
514.3560544217687	514.5998639455782	67	127
514.3560544217687	514.5998639455782	64	127
514.5998639455782	514.7972335600907	60	127
514.5998639455782	514.7972335600907	64	127
514.7972335600907	515.0758730158731	58	127
514.7972335600907	515.0758730158731	60	127
515.0758730158731	515.7956916099773	56	127
515.0758730158731	515.7956916099773	53	127
515.0758730158731	515.7956916099773	60	127
515.0758730158731	515.7956916099773	41	127
515.8189115646259	516.5387301587301	68	127
515.8189115646259	516.5387301587301	53	127
516.5619501133787	517.0031292517007	56	127
516.5619501133787	517.0031292517007	65	127
517.0147392290249	517.3862585034013	67	127
517.0147392290249	517.3978684807256	52	127
517.3978684807256	517.7809977324263	48	127
517.3978684807256	518.8955555555556	60	127
517.3978684807256	517.7809977324263	72	127
517.3978684807256	517.7809977324263	64	127
517.7809977324263	518.16410430839	65	127
517.7809977324263	518.16410430839	50	127
517.7809977324263	518.16410430839	71	127
518.16410430839	518.5124263038549	70	127
518.16410430839	518.5124263038549	52	127
518.16410430839	518.5124263038549	67	127
518.5124263038549	518.8955555555556	53	127
518.5124263038549	518.9187755102041	69	127
518.9187755102041	519.3019047619048	60	127
518.9187755102041	519.2902947845805	41	127
518.9187755102041	520.0449433106576	48	127
518.9187755102041	519.3019047619048	68	127
519.3019047619048	519.6850340136054	58	127
519.3019047619048	519.6734240362812	40	127
519.3019047619048	519.6850340136054	67	127
519.6850340136054	520.0449433106576	56	127
519.6850340136054	520.0449433106576	65	127
519.6850340136054	520.0449433106576	41	127
520.0681632653061	520.4164399092971	60	127
520.0681632653061	520.4164399092971	36	127
520.0681632653061	520.4164399092971	52	127
520.0681632653061	520.4164399092971	55	127
520.0681632653061	520.4164399092971	48	127
520.0681632653061	520.4164399092971	64	127
520.4396825396825	520.811179138322	48	127
520.4396825396825	521.4961904761905	60	127
520.4396825396825	520.811179138322	64	127
520.4396825396825	520.811179138322	72	127
520.811179138322	521.1595011337869	50	127
520.811179138322	521.1595011337869	65	127
520.811179138322	521.1595011337869	71	127
521.1595011337869	521.519410430839	70	127
521.1595011337869	521.519410430839	52	127
521.1595011337869	521.519410430839	67	127
521.519410430839	521.9257596371882	53	127
521.519410430839	521.9257596371882	68	127
521.519410430839	521.9257596371882	60	127
521.9257596371882	522.3088888888889	68	127
521.9257596371882	522.3088888888889	77	127
521.9257596371882	522.3088888888889	50	127
522.3088888888889	522.6920181405895	65	127
522.3088888888889	522.6920181405895	74	127
522.3088888888889	522.6920181405895	51	127
522.6920181405895	523.0751247165533	63	127
522.6920181405895	523.0751247165533	72	127
522.6920181405895	523.0751247165533	53	127
523.0867573696145	523.4698639455783	62	127
523.0867573696145	523.4698639455783	71	127
523.0867573696145	523.4698639455783	55	127
523.4814739229025	523.8414058956917	55	127
523.4814739229025	524.1548752834467	67	127
523.4814739229025	524.1548752834467	79	127
523.8414058956917	524.1780952380952	56	127
524.1780952380952	524.9095011337869	67	127
524.1780952380952	524.9095011337869	79	127
524.1780952380952	524.5496145124716	55	127
524.5496145124716	524.921133786848	56	127
524.921133786848	525.710612244898	79	127
524.921133786848	525.3390929705215	57	127
524.921133786848	525.710612244898	67	127
525.3390929705215	525.7221995464853	59	127
525.7221995464853	526.0821315192744	65	127
525.7221995464853	526.0821315192744	77	127
525.7221995464853	526.0821315192744	55	127
526.0821315192744	526.4304308390023	48	127
526.0821315192744	526.4072108843537	75	127
526.0821315192744	526.4072108843537	63	127
526.0821315192744	526.4304308390023	60	127
526.4304308390023	526.7671201814059	77	127
526.4304308390023	526.7787301587301	47	127
526.4304308390023	526.7787301587301	59	127
526.4304308390023	526.7671201814059	65	127
526.7787301587301	527.1270294784581	48	127
526.7787301587301	527.1154195011338	63	127
526.7787301587301	527.1154195011338	75	127
526.7787301587301	527.1270294784581	60	127
527.1270294784581	527.4869387755102	74	127
527.1270294784581	527.5101587301588	43	127
527.1270294784581	527.4869387755102	62	127
527.1270294784581	527.5101587301588	55	127
527.5101587301588	527.9048979591837	56	127
527.5101587301588	527.8816780045352	72	127
527.5101587301588	527.9048979591837	44	127
527.5101587301588	527.8816780045352	60	127
527.9048979591837	528.2531972789116	43	127
527.9048979591837	528.2531972789116	55	127
527.9048979591837	528.2415873015873	71	127
527.9048979591837	528.2415873015873	59	127
528.2531972789116	528.6595464852608	56	127
528.2531972789116	528.6595464852608	44	127
528.2531972789116	528.6479365079365	60	127
528.2531972789116	528.6479365079365	72	127
528.6595464852608	529.06589569161	53	127
528.6595464852608	529.06589569161	62	127
528.6595464852608	529.06589569161	74	127
528.6595464852608	529.06589569161	41	127
529.1239455782313	530.3197732426304	75	127
529.1239455782313	529.5419047619048	55	127
529.1239455782313	529.5186848072562	63	127
529.1239455782313	529.5419047619048	43	127
529.5419047619048	529.9366439909297	39	127
529.5419047619048	529.9366439909297	51	127
529.5419047619048	530.3197732426304	67	127
529.9366439909297	530.3429931972789	36	127
529.9366439909297	530.3429931972789	48	127
530.3429931972789	530.7261224489796	32	127
530.3429931972789	530.7145124716553	65	127
530.3429931972789	530.7261224489796	44	127
530.3429931972789	530.7145124716553	75	127
530.7261224489796	531.097641723356	67	127
530.7261224489796	531.1092517006803	31	127
530.7261224489796	531.1092517006803	43	127
530.7261224489796	531.4343310657597	75	127
531.1092517006803	531.4575283446712	42	127
531.1092517006803	531.4575283446712	30	127
531.1092517006803	531.4343310657597	69	127
531.4575283446712	532.0728571428572	31	127
531.4575283446712	532.2702267573696	77	127
531.4575283446712	532.0728571428572	43	127
531.4575283446712	532.0496371882086	67	127
532.0728571428572	532.4908390022675	31	127
532.0728571428572	532.4908390022675	65	127
532.0728571428572	532.4908390022675	43	127
532.2818594104308	532.4908390022675	75	127
532.5024489795918	535.2424036281179	48	127
532.5024489795918	532.9900680272109	36	127
532.5024489795918	532.9784580498866	63	127
532.5024489795918	532.9784580498866	72	127
532.9900680272109	533.3848072562358	52	127
533.3848072562358	533.7679365079365	53	127
533.7679365079365	534.1394557823129	52	127
534.1394557823129	534.5109523809524	53	127
534.5109523809524	534.8824943310658	51	127
534.8824943310658	535.2424036281179	50	127
535.2424036281179	535.6371428571429	74	127
535.2424036281179	535.6371428571429	55	127
535.6603628117914	536.0899319727891	48	127
535.6603628117914	536.1131519274377	75	127
536.1131519274377	536.9026303854876	67	127
536.1131519274377	536.4846712018141	47	127
536.1131519274377	536.4846712018141	74	127
536.4846712018141	536.9026303854876	75	127
536.4846712018141	536.9026303854876	48	127
536.9026303854876	537.2625396825397	72	127
536.9026303854876	537.2625396825397	67	127
536.9026303854876	537.2625396825397	76	127
536.9026303854876	537.2625396825397	46	127
537.2625396825397	537.6688888888889	44	127
537.2625396825397	537.6688888888889	72	127
537.2625396825397	537.6688888888889	77	127
537.2625396825397	537.6688888888889	68	127
537.6688888888889	538.0636281179138	74	127
537.6688888888889	538.0636281179138	65	127
537.6688888888889	538.0636281179138	41	127
537.6688888888889	538.0636281179138	68	127
538.0636281179138	538.4351473922902	43	127
538.0636281179138	538.4351473922902	63	127
538.0636281179138	538.4351473922902	67	127
538.0636281179138	538.4351473922902	72	127
538.4351473922902	538.8995464852608	71	127
538.4351473922902	538.8995464852608	31	127
538.4351473922902	538.8995464852608	62	127
538.4351473922902	538.8995464852608	65	127
538.911156462585	541.7323809523809	48	127
538.911156462585	539.4568253968254	72	127
538.911156462585	539.4452154195011	36	127
538.911156462585	539.4568253968254	63	127
539.4568253968254	539.8399319727891	55	127
539.4568253968254	539.8399319727891	67	127
539.8399319727891	540.2230839002268	68	127
539.8399319727891	540.2230839002268	56	127
540.2230839002268	540.6062131519275	67	127
540.2230839002268	540.6062131519275	55	127
540.6062131519275	540.9661224489796	68	127
540.6062131519275	540.9661224489796	56	127
540.9661224489796	541.3724716553288	69	127
540.9661224489796	541.3724716553288	57	127
541.3724716553288	541.7323809523809	70	127
541.3724716553288	541.7323809523809	58	127
541.7323809523809	542.0922675736962	59	127
541.7323809523809	542.0922675736962	71	127
542.1039002267573	542.5102494331065	60	127
542.1039002267573	542.5334693877551	72	127
542.1039002267573	542.5102494331065	48	127
542.5334693877551	542.9398185941043	74	127
542.5334693877551	542.9398185941043	59	127
542.5334693877551	543.3345578231292	67	127
542.9398185941043	543.3461678004535	75	127
542.9398185941043	543.3461678004535	60	127
543.3461678004535	543.764126984127	76	127
543.3461678004535	543.7409070294784	67	127
543.3461678004535	543.764126984127	58	127
543.3461678004535	543.764126984127	72	127
543.764126984127	544.1356235827665	68	127
543.764126984127	544.1588662131519	77	127
543.764126984127	544.1356235827665	72	127
543.764126984127	544.1588662131519	56	127
544.1588662131519	544.5419727891157	53	127
544.1588662131519	544.5419727891157	74	127
544.1588662131519	544.5303628117914	65	127
544.1588662131519	544.5303628117914	68	127
544.5419727891157	544.9251247165533	63	127
544.5419727891157	544.9251247165533	67	127
544.5419727891157	544.9367120181406	55	127
544.5419727891157	544.9367120181406	72	127
544.9367120181406	545.3314739229025	65	127
544.9367120181406	545.3314739229025	62	127
544.9367120181406	545.3314739229025	71	127
544.9367120181406	545.3314739229025	43	127
545.3430612244898	545.7610204081633	43	127
545.3430612244898	545.7726303854876	63	127
545.3430612244898	545.7726303854876	72	127
545.3430612244898	545.7726303854876	67	127
545.3430612244898	545.7610204081633	36	127
545.7726303854876	546.9452607709751	43	127
545.7726303854876	546.1673696145125	74	127
545.7726303854876	546.1673696145125	65	127
545.7726303854876	546.9452607709751	31	127
545.7726303854876	546.1673696145125	68	127
546.1673696145125	546.5737188208617	72	127
546.1673696145125	546.5737188208617	63	127
546.1673696145125	546.5737188208617	67	127
546.5737188208617	546.9452607709751	65	127
546.5737188208617	546.9452607709751	62	127
546.5737188208617	546.9452607709751	71	127
546.9452607709751	547.4328798185941	63	127
546.9452607709751	547.4328798185941	67	127
546.9452607709751	547.4328798185941	72	127
546.9452607709751	547.4212698412698	36	127
546.9452607709751	547.4212698412698	43	127
547.4328798185941	548.7912471655329	31	127
547.4328798185941	549.2788662131519	43	127
547.4328798185941	547.8856689342404	74	127
547.4328798185941	547.8856689342404	68	127
547.4328798185941	547.8856689342404	65	127
547.8856689342404	548.2920181405896	67	127
547.8856689342404	548.2920181405896	63	127
547.8856689342404	548.2920181405896	72	127
548.2920181405896	548.7912471655329	62	127
548.2920181405896	548.7912471655329	65	127
548.2920181405896	548.7912471655329	71	127
548.8028571428572	549.8245351473923	72	127
548.8028571428572	549.2788662131519	63	127
548.8028571428572	549.2788662131519	67	127
548.8028571428572	558.195328798186	36	127
549.2904761904762	549.7897052154195	64	127
549.2904761904762	551.1016326530612	48	127
549.8245351473923	550.2773242630385	68	127
549.8245351473923	550.2889342403628	73	127
549.8245351473923	550.2773242630385	65	127
550.2889342403628	550.6836734693877	63	127
550.2889342403628	550.695283446712	72	127
550.2889342403628	550.6836734693877	67	127
550.695283446712	551.1248526077097	65	127
550.695283446712	551.1248526077097	70	127
550.695283446712	551.1248526077097	61	127
551.1248526077097	551.5195918367347	60	127
551.1248526077097	558.195328798186	48	127
551.1248526077097	551.5195918367347	68	127
551.1248526077097	551.5195918367347	63	127
551.5195918367347	551.972380952381	58	127
551.5195918367347	551.972380952381	61	127
551.5195918367347	551.9607709750567	46	127
551.5195918367347	551.972380952381	67	127
551.972380952381	552.413560090703	44	127
551.972380952381	552.413560090703	60	127
551.972380952381	552.413560090703	65	127
551.972380952381	552.413560090703	56	127
552.4367800453515	552.8895691609978	58	127
552.4367800453515	552.8895691609978	55	127
552.4367800453515	552.8895691609978	43	127
552.4367800453515	552.8895691609978	64	127
552.9127664399093	553.2843083900227	56	127
552.9127664399093	553.2843083900227	60	127
552.9127664399093	553.2843083900227	44	127
552.9127664399093	553.2843083900227	65	127
553.295918367347	553.6790476190477	61	127
553.295918367347	553.6790476190477	46	127
553.295918367347	553.6790476190477	58	127
553.295918367347	553.6790476190477	67	127
553.6906575963719	554.0621768707483	60	127
553.6906575963719	554.0621768707483	65	127
553.6906575963719	554.0621768707483	44	127
553.6906575963719	554.0621768707483	56	127
554.0853968253969	554.4336961451247	64	127
554.0853968253969	554.4336961451247	55	127
554.0853968253969	554.4336961451247	43	127
554.0853968253969	554.4336961451247	58	127
554.445306122449	554.7936054421768	65	127
554.445306122449	554.7936054421768	44	127
554.445306122449	554.7936054421768	56	127
554.445306122449	554.7936054421768	60	127
554.8052154195011	555.1651020408164	43	127
554.8052154195011	555.1651020408164	63	127
554.8052154195011	555.1651020408164	58	127
554.8052154195011	555.1651020408164	55	127
555.1883446712018	555.548253968254	56	127
555.1883446712018	555.548253968254	61	127
555.1883446712018	555.548253968254	53	127
555.1883446712018	555.548253968254	41	127
555.5598639455783	555.9197732426304	52	127
555.5598639455783	555.9197732426304	55	127
555.5598639455783	555.9197732426304	60	127
555.5598639455783	555.9197732426304	40	127
555.9313832199547	556.3145124716553	50	127
555.9313832199547	556.3145124716553	53	127
555.9313832199547	556.3145124716553	59	127
555.9313832199547	556.3145124716553	38	127
556.3261224489796	556.6860317460317	60	127
556.3261224489796	556.6860317460317	52	127
556.3261224489796	556.6860317460317	55	127
556.3261224489796	556.6860317460317	40	127
556.7092517006803	557.0691609977324	53	127
556.7092517006803	557.0691609977324	38	127
556.7092517006803	557.0691609977324	59	127
556.7092517006803	557.0691609977324	50	127
557.0807709750567	557.4058276643991	60	127
557.0807709750567	557.4058276643991	52	127
557.0807709750567	557.4058276643991	40	127
557.0807709750567	557.4058276643991	55	127
557.4174376417234	557.800589569161	53	127
557.4174376417234	557.800589569161	50	127
557.4174376417234	557.800589569161	59	127
557.4174376417234	557.800589569161	38	127
557.8237868480726	558.1837188208617	40	127
557.8237868480726	558.1837188208617	55	127
557.8237868480726	558.1837188208617	52	127
557.8237868480726	558.1837188208617	60	127
558.195328798186	558.5436281179138	56	127
558.195328798186	558.5436281179138	62	127
558.195328798186	558.5436281179138	53	127
558.195328798186	558.5436281179138	41	127
558.5552380952381	558.903537414966	43	127
558.5552380952381	558.9151473922902	55	127
558.5552380952381	558.9151473922902	58	127
558.5552380952381	558.9151473922902	64	127
558.9151473922902	559.2750566893424	56	127
558.9151473922902	559.2750566893424	41	127
558.9151473922902	559.2750566893424	62	127
558.9151473922902	559.2750566893424	53	127
559.2750566893424	559.5885260770975	52	127
559.2750566893424	559.5885260770975	55	127
559.2750566893424	559.5885260770975	60	127
559.2750566893424	559.5769160997733	40	127
559.5885260770975	559.9716553287982	41	127
559.5885260770975	559.9832653061225	62	127
559.5885260770975	559.9832653061225	56	127
559.5885260770975	559.9832653061225	53	127
559.9832653061225	560.3663945578231	43	127
559.9832653061225	560.3896145124717	58	127
559.9832653061225	560.3896145124717	55	127
559.9832653061225	560.3896145124717	64	127
560.3896145124717	560.7495238095238	65	127
560.3896145124717	560.7495238095238	60	127
560.3896145124717	560.7495238095238	56	127
560.3896145124717	560.7379138321995	44	127
560.7495238095238	561.1210430839002	46	127
560.7495238095238	561.1326530612245	58	127
560.7495238095238	561.1326530612245	67	127
560.7495238095238	561.1326530612245	61	127
561.1326530612245	561.6086621315193	60	127
561.1326530612245	561.6086621315193	56	127
561.1326530612245	561.6086621315193	51	127
561.1326530612245	561.6086621315193	68	127
561.1326530612245	561.6086621315193	63	127
561.1326530612245	561.6086621315193	48	127
561.6318820861678	563.2108390022676	69	127
561.6318820861678	563.2108390022676	66	127
561.6318820861678	562.9554195011337	57	127
561.6318820861678	563.2108390022676	63	127
561.6318820861678	563.2108390022676	60	127
561.6318820861678	562.9554195011337	48	127
561.6318820861678	562.9554195011337	54	127
561.6318820861678	562.9554195011337	51	127
563.2108390022676	564.0815873015873	70	127
563.2108390022676	564.0815873015873	65	127
563.2108390022676	564.069977324263	58	127
563.2108390022676	564.0815873015873	61	127
563.2108390022676	564.069977324263	53	127
563.2108390022676	564.069977324263	49	127
564.0815873015873	565.1613151927438	43	127
564.0815873015873	565.1613151927438	59	127
564.0815873015873	565.1613151927438	65	127
564.0815873015873	565.1613151927438	71	127
564.0815873015873	565.1613151927438	31	127
565.1729251700681	565.7650340136055	65	127
565.1729251700681	565.7650340136055	32	127
565.1729251700681	565.7650340136055	72	127
565.1729251700681	565.7650340136055	44	127
565.1729251700681	565.7650340136055	60	127
565.7766439909298	566.1946031746032	56	127
565.7766439909298	566.1946031746032	60	127
565.7766439909298	566.1946031746032	53	127
566.1946031746032	566.5893424036282	68	127
566.1946031746032	566.5893424036282	48	127
566.1946031746032	566.5893424036282	65	127
566.1946031746032	566.5893424036282	60	127
566.5893424036282	566.937641723356	68	127
566.5893424036282	566.937641723356	65	127
566.5893424036282	566.9492517006803	44	127
566.9492517006803	567.4020408163266	41	127
566.9492517006803	567.4020408163266	68	127
566.9492517006803	567.4020408163266	72	127
567.4020408163266	567.7851700680272	72	127
567.4020408163266	567.7851700680272	36	127
567.4020408163266	567.7851700680272	77	127
567.7851700680272	568.2611564625851	77	127
567.7851700680272	568.2611564625851	80	127
567.7851700680272	568.2611564625851	32	127
568.2611564625851	568.8184580498867	29	127
568.2611564625851	568.8184580498867	84	127
568.2611564625851	568.8184580498867	80	127
568.8300680272109	569.4453968253969	34	127
569.4802040816327	569.8749659863946	46	127
569.4802040816327	569.8749659863946	85	127
569.4802040816327	569.8749659863946	82	127
569.4802040816327	569.8749659863946	49	127
569.8749659863946	570.2813151927438	82	127
569.8749659863946	570.2813151927438	78	127
569.8749659863946	570.2813151927438	54	127
569.8749659863946	570.2813151927438	49	127
570.2813151927438	570.6644444444445	73	127
570.2813151927438	570.6644444444445	78	127
570.2813151927438	570.6644444444445	58	127
570.2813151927438	570.6644444444445	54	127
570.6644444444445	571.1056009070295	58	127
570.6644444444445	571.1056009070295	73	127
570.6644444444445	571.1056009070295	70	127
570.6644444444445	571.1056009070295	61	127
571.1056009070295	571.5468027210884	58	127
571.1056009070295	571.5468027210884	78	127
571.1056009070295	571.5468027210884	73	127
571.1056009070295	571.5468027210884	54	127
571.5468027210884	572.2666213151928	78	127
571.5468027210884	572.2666213151928	54	127
571.5468027210884	572.2666213151928	49	127
571.5468027210884	572.2666213151928	82	127
572.2666213151928	572.6497505668934	49	127
572.2666213151928	572.6497505668934	85	127
572.2666213151928	572.6497505668934	82	127
572.2666213151928	572.6497505668934	46	127
572.6613605442177	573.6830385487528	48	127
573.2999092970522	573.6946485260771	79	127
573.2999092970522	573.6946485260771	82	127
573.6946485260771	574.089387755102	79	127
573.6946485260771	574.089387755102	76	127
574.089387755102	574.484126984127	76	127
574.089387755102	574.484126984127	70	127
574.4957369614513	575.2968253968254	48	127
574.4957369614513	575.2968253968254	36	127
574.9136961451247	575.3200453514739	70	127
574.9136961451247	575.3200453514739	76	127
575.3200453514739	575.7031746031746	70	127
575.3200453514739	575.7031746031746	67	127
575.7031746031746	576.2256009070295	67	127
575.7031746031746	576.2256009070295	64	127
576.2372108843538	577.177641723356	53	127
576.2372108843538	577.177641723356	41	127
576.422970521542	576.7829024943311	70	127
576.422970521542	576.7829024943311	67	127
576.7829024943311	576.9686621315193	64	127
576.7829024943311	576.9686621315193	67	127
576.9686621315193	577.177641723356	58	127
576.9686621315193	577.177641723356	64	127
577.1892517006803	578.4315192743765	48	127
577.1892517006803	578.4315192743765	36	127
577.398231292517	577.6536281179139	67	127
577.398231292517	577.6536281179139	64	127
577.6536281179139	577.9439002267574	60	127
577.6536281179139	577.9439002267574	64	127
577.9439002267574	578.4431292517007	60	127
577.9439002267574	578.4431292517007	58	127
578.4431292517007	579.5692970521542	53	127
578.4431292517007	579.5692970521542	41	127
578.4431292517007	579.5692970521542	60	127
578.4431292517007	579.5692970521542	56	127
579.5809070294785	582.5066213151928	72	127
579.5809070294785	582.1466893424036	65	127
582.1582993197279	582.3324716553288	69	127
582.3440816326531	582.4950113378685	60	127
582.5066213151928	582.6343310657596	69	127
582.5066213151928	582.6343310657596	77	127
582.6575510204082	582.8200907029478	67	127
582.6575510204082	582.738820861678	77	127
582.738820861678	582.8317006802721	79	127
582.8317006802721	582.9709977324263	70	127
582.8317006802721	582.9826077097506	77	127
582.9826077097506	583.133560090703	60	127
582.9826077097506	583.3193197278912	76	127
583.1567800453515	583.3193197278912	70	127
583.3309297052155	583.4818594104308	67	127
583.3309297052155	584.2248979591836	76	127
583.4818594104308	583.621179138322	70	127
583.6443990929705	583.7721088435375	60	127
583.7836961451247	583.8998185941043	70	127
583.9114285714286	584.0507482993197	67	127
584.062358276644	584.2248979591836	70	127
584.2365079365079	584.3874376417234	60	127
584.2365079365079	584.2945578231293	77	127
584.3061678004535	584.3874376417234	76	127
584.3990249433107	584.4919274376417	74	127
584.3990249433107	584.5848072562359	70	127
584.5151473922903	584.5848072562359	76	127
584.5964172335601	584.7473469387755	65	127
584.5964172335601	585.0259637188209	77	127
584.7589569160998	584.8866666666667	69	127
584.8982766439909	585.0143537414966	60	127
585.0259637188209	585.1769160997733	69	127
585.0259637188209	585.1769160997733	74	127
585.1885260770975	585.258185941043	74	127
585.1885260770975	585.3278458049887	64	127
585.258185941043	585.3510657596372	76	127
585.3510657596372	585.5136054421769	74	127
585.3510657596372	585.5019954648526	67	127
585.5136054421769	585.8154648526078	72	127
585.5136054421769	585.6645351473923	60	127
585.6761451247165	585.8154648526078	67	127
585.8386621315193	586.9416326530612	72	127
585.8386621315193	585.9896145124717	64	127
586.0128344671202	586.1637641723356	67	127
586.1869841269842	586.314693877551	60	127
586.3379138321995	586.4888435374149	67	127
586.5004535147392	586.6746031746031	64	127
586.6862131519274	586.8255328798186	67	127
586.8371428571429	586.9648526077098	60	127
586.976462585034	587.1273922902494	67	127
587.1390022675737	587.2318820861678	74	127
587.1390022675737	587.2782993197279	65	127
587.2434920634921	587.3131519274376	76	127
587.2899319727891	587.417641723356	69	127
587.3363718820862	587.417641723356	74	127
587.4292517006803	587.4989115646258	73	127
587.4292517006803	587.5453514739229	60	127
587.5105215419501	587.6034013605442	74	127
587.5685714285714	587.7195011337868	69	127
587.6150113378685	587.7195011337868	84	127
587.7311111111111	587.8704308390023	67	127
587.7311111111111	587.8239909297052	76	127
587.8356009070295	587.9284807256236	77	127
587.8820181405896	588.0097505668934	70	127
587.9517006802721	588.0097505668934	76	127
588.032970521542	588.1026303854875	75	127
588.032970521542	588.125850340136	60	127
588.1142403628118	588.1839002267574	76	127
588.1374603174603	588.2883673469388	70	127
588.1955102040816	588.2883673469388	84	127
588.2999773242631	588.4044897959184	74	127
588.2999773242631	588.4509297052155	65	127
588.4160997732426	588.520589569161	76	127
588.474149659864	588.5902494331066	69	127
588.5321995464852	588.5902494331066	74	127
588.6018594104308	588.741179138322	60	127
588.6018594104308	588.6831292517007	73	127
588.7063265306123	588.7992290249433	74	127
588.7527891156462	588.9036961451247	69	127
588.8108390022676	588.9036961451247	84	127
588.915306122449	589.0430385487529	67	127
588.915306122449	588.9965986394558	76	127
589.00820861678	589.1010657596372	77	127
589.0546485260771	589.182358276644	70	127
589.1126757369615	589.182358276644	76	127
589.1939682539683	589.2984580498867	60	127
589.1939682539683	589.2404081632653	75	127
589.2520181405896	589.3448979591836	76	127
589.310045351474	589.4842176870749	70	127
589.3797278911564	589.4842176870749	84	127
589.4958276643991	589.6003174603175	77	127
589.4958276643991	589.6467573696145	69	127
589.6119274376417	589.7048072562359	79	127
589.6699773242631	589.8092970521542	72	127
589.7048072562359	589.8092970521542	77	127
589.8209070294785	589.9602267573696	60	127
589.8209070294785	589.9137868480726	76	127
589.9253741496599	589.9950566893424	77	127
589.9718367346939	590.0995464852608	72	127
590.0066666666667	590.0995464852608	84	127
590.1227437641724	590.2736961451247	70	127
590.1227437641724	590.2156462585034	78	127
590.2272562358277	590.3317233560091	79	127
590.285306122449	590.4362358276644	72	127
590.3433333333334	590.4362358276644	78	127
590.4478458049887	590.5175056689343	79	127
590.4478458049887	590.5871655328798	60	127
590.5407029478458	590.6336054421769	78	127
590.6103854875283	590.7496825396826	72	127
590.6452154195011	590.7496825396826	79	127
590.7613151927437	590.8309750566893	79	127
590.7613151927437	590.9122448979592	70	127
590.8425850340136	590.9122448979592	81	127
590.9238548752835	590.993514739229	79	127
590.9238548752835	591.0631746031746	72	127
591.0051247165533	591.0631746031746	81	127
591.0631746031746	591.2024943310657	60	127
591.0631746031746	591.1328344671202	79	127
591.1444217687075	591.2024943310657	81	127
591.21410430839	591.341814058957	72	127
591.21410430839	591.2721541950114	79	127
591.2837641723356	591.341814058957	81	127
591.3534013605442	591.4579138321996	79	127
591.3534013605442	591.5391836734694	70	127
591.4811337868481	591.5391836734694	81	127
591.5507936507937	591.6901133786848	72	127
591.5507936507937	591.6204535147392	79	127
591.6320634920635	591.6901133786848	81	127
591.7017233560091	591.8410430839002	62	127
591.7017233560091	591.7597505668934	79	127
591.7713605442177	591.8410430839002	81	127
591.8526530612245	591.9339229024944	79	127
591.8526530612245	592.0268027210884	72	127
591.9571428571429	592.0268027210884	81	127
592.0384126984127	592.1893197278912	70	127
592.0384126984127	592.1080725623583	80	127
592.1196825396826	592.1893197278912	81	127
592.2009523809523	592.3286621315193	72	127
592.2009523809523	592.270612244898	80	127
592.2822222222222	592.3286621315193	81	127
592.3286621315193	592.3750793650794	80	127
592.3286621315193	592.4447619047619	64	127
592.3750793650794	592.4447619047619	81	127
592.4563718820862	592.6305215419501	72	127
592.4563718820862	592.5492517006803	80	127
592.5608616780046	592.6305215419501	81	127
592.6421315192744	592.71179138322	81	127
592.6421315192744	592.7930385487529	65	127
592.7234013605442	592.7930385487529	82	127
592.8162811791383	592.9672108843538	77	127
592.8162811791383	592.8859410430839	81	127
592.8975510204082	592.9672108843538	82	127
592.9788208616781	593.152970521542	72	127
592.9788208616781	593.0484807256236	81	127
593.0600907029478	593.152970521542	82	127
593.1761904761905	593.2574603174603	80	127
593.1761904761905	593.3387301587302	69	127
593.2806802721088	593.3387301587302	81	127
593.3619501133787	593.5128798185941	65	127
593.3619501133787	593.4316099773242	89	127
593.4432199546485	593.5128798185941	88	127
593.5244897959184	593.594149659864	89	127
593.5244897959184	593.6754195011338	77	127
593.6057369614513	593.6754195011338	88	127
593.687029478458	593.861179138322	69	127
593.687029478458	593.7682993197279	89	127
593.7915192743765	593.861179138322	88	127
593.8727891156462	594.0236961451247	77	127
593.8727891156462	593.9424489795919	89	127
593.9540589569161	594.0236961451247	88	127
594.0353287981859	594.1862585034014	67	127
594.0353287981859	594.1049886621315	89	127
594.1165986394558	594.1862585034014	88	127
594.1978684807257	594.2675283446712	89	127
594.1978684807257	594.3604081632653	77	127
594.2907482993197	594.3604081632653	88	127
594.3720181405896	594.4416780045351	89	127
594.3720181405896	594.522947845805	70	127
594.4532879818594	594.522947845805	88	127
594.5345578231293	594.6042176870749	89	127
594.5345578231293	594.6854875283447	77	127
594.6158276643991	594.6854875283447	88	127
594.7087074829932	594.7667573696145	89	127
594.7087074829932	594.8480045351474	69	127
594.7783673469388	594.8480045351474	88	127
594.8596371882086	594.9292970521542	89	127
594.8596371882086	595.0221768707484	77	127
594.9409070294785	595.0221768707484	88	127
595.0337641723356	595.2079365079366	72	127
595.0337641723356	595.1034467120181	89	127
595.1266666666667	595.2079365079366	88	127
595.2311564625851	595.3008163265306	89	127
595.2311564625851	595.3820861678005	77	127
595.3124263038549	595.3820861678005	85	127
595.3936961451247	595.4633560090703	86	127
595.3936961451247	595.5446258503401	70	127
595.4749659863945	595.5446258503401	88	127
595.5562358276644	595.7187755102041	77	127
595.5562358276644	595.62589569161	86	127
595.6375056689343	595.7187755102041	88	127
595.7419954648526	595.892925170068	74	127
595.7419954648526	595.800045351474	86	127
595.8116553287982	595.892925170068	88	127
595.9045351473923	595.9741950113379	86	127
595.9045351473923	596.0554421768708	77	127
595.9858049886622	596.0554421768708	88	127
596.067052154195	596.241224489796	67	127
596.067052154195	596.1367346938775	86	127
596.1599546485261	596.241224489796	88	127
596.2528344671202	596.4153741496599	79	127
596.2528344671202	596.3224943310657	86	127
596.33410430839	596.4153741496599	88	127
596.4269841269842	596.4850340136054	86	127
596.4269841269842	596.5663038548753	70	127
596.4966439909297	596.5663038548753	88	127
596.5779138321996	596.728843537415	79	127
596.5779138321996	596.6359637188209	86	127
596.6591836734694	596.728843537415	88	127
596.7404535147392	596.8101133786848	86	127
596.7404535147392	596.9262131519274	69	127
596.8217233560091	596.9262131519274	88	127
596.9378231292517	597.0887301587302	79	127
596.9378231292517	597.0074829931973	86	127
597.0190929705216	597.0887301587302	88	127
597.1119727891156	597.2629024943311	72	127
597.1119727891156	597.170022675737	86	127
597.1932426303855	597.2629024943311	88	127
597.2745124716554	597.437052154195	79	127
597.2745124716554	597.3557823129252	86	127
597.3673922902494	597.437052154195	88	127
597.4486621315193	597.4950793650794	86	127
597.4486621315193	597.6344217687075	70	127
597.5066893424037	597.5647619047619	88	127
597.5763718820862	597.6924489795919	86	127
597.657641723356	597.8434013605442	74	127
597.7040589569161	597.8434013605442	84	127
597.8550113378685	598.0059410430839	67	127
597.8550113378685	597.9478911564626	82	127
597.9595011337868	598.0639909297053	81	127
598.0175510204082	598.1684807256236	74	127
598.0756009070295	598.1684807256236	79	127
598.1917006802721	598.3542403628118	60	127
598.1917006802721	598.2961904761905	77	127
598.3077777777778	598.4122902494331	76	127
598.365850340136	598.5167573696145	70	127
598.4239002267574	598.5167573696145	79	127
598.5283673469388	598.6328798185941	77	127
598.5283673469388	598.6909297052155	67	127
598.6444897959184	598.7257369614513	81	127
598.7025396825397	598.8418594104309	70	127
598.7373696145124	598.8418594104309	79	127
598.8418594104309	598.934716553288	82	127
598.8418594104309	598.9927891156462	60	127
598.9579591836734	599.0508390022676	81	127
599.0043990929705	599.1669387755102	70	127
599.0624489795919	599.1669387755102	84	127
599.1785487528344	599.2598185941043	82	127
599.1785487528344	599.3178684807257	67	127
599.2714285714286	599.3526984126984	86	127
599.329455782313	599.422358276644	70	127
599.3643083900226	599.422358276644	84	127
599.4339682539683	599.5384353741497	82	127
599.4339682539683	599.5965079365079	60	127
599.550045351474	599.642947845805	81	127
599.6081179138322	599.7590476190476	70	127
599.6661678004535	599.7590476190476	79	127
599.7706575963718	599.9331972789116	67	127
599.7706575963718	599.8867573696145	77	127
599.8983673469388	599.9912471655329	76	127
599.9563945578232	600.0957369614513	70	127
600.0028571428571	600.0957369614513	74	127
600.1073469387755	600.177006802721	72	127
600.1073469387755	600.2350566893424	60	127
600.1886167800453	600.2931065759637	71	127
600.2466666666667	600.3975963718821	70	127
600.304716553288	600.3975963718821	72	127
600.4208163265306	600.5485034013606	67	127
600.4208163265306	600.4904761904762	73	127
600.5020861678005	600.6065759637188	74	127
600.5601133786848	600.7110657596372	70	127
600.6181859410431	600.7110657596372	75	127
600.7226757369615	600.8619954648526	65	127
600.7226757369615	600.8155555555555	76	127
600.8271655328798	600.920045351474	77	127
600.8852154195012	601.0477551020408	70	127
600.9316553287982	601.0477551020408	78	127
601.0593650793651	601.187052154195	67	127
601.0593650793651	601.1290249433107	79	127
601.1522448979592	601.2451247165533	80	127
601.1986848072562	601.361224489796	70	127
601.2567346938775	601.361224489796	81	127
601.3728117913832	601.4657142857143	82	127
601.3728117913832	601.5237641723356	60	127
601.4773242630386	601.5934013605442	83	127
601.5353741496599	601.6979138321996	70	127
601.6050340136054	601.6979138321996	84	127
601.7095238095238	601.8720634920635	67	127
601.7095238095238	601.7791609977324	85	127
601.8024036281179	601.8720634920635	86	127
601.8836734693878	602.0462131519274	70	127
601.8836734693878	601.9649433106576	87	127
601.9765532879819	602.0462131519274	88	127
602.0578231292517	602.9169614512472	69	127
602.0578231292517	602.9169614512472	65	127
602.0578231292517	602.9169614512472	89	127
602.9401814058957	603.1607709750567	48	127
603.1027210884354	603.265260770975	72	127
603.1027210884354	603.265260770975	65	127
603.1027210884354	603.265260770975	69	127
603.2768707482993	603.5090702947846	60	127
603.4510204081632	603.613560090703	65	127
603.4510204081632	603.613560090703	72	127
603.4510204081632	603.613560090703	69	127
603.6251473922903	603.8457596371882	48	127
603.7877097505669	603.9850793650794	70	127
603.7877097505669	603.9850793650794	67	127
603.7877097505669	603.9850793650794	72	127
603.9966893424037	604.228866213152	60	127
604.1708390022676	604.3449886621315	72	127
604.1708390022676	604.3449886621315	70	127
604.1708390022676	604.3449886621315	67	127
604.3565986394558	604.5887981859411	48	127
604.5307482993197	604.6932879818594	72	127
604.5307482993197	604.6932879818594	70	127
604.5307482993197	604.6932879818594	67	127
604.7048979591837	604.9254875283447	60	127
604.8674149659864	605.0415873015874	70	127
604.8674149659864	605.0415873015874	67	127
604.8674149659864	605.0415873015874	72	127
605.0531746031746	605.3202267573696	48	127
605.2621541950114	605.4131065759638	70	127
605.2621541950114	605.4131065759638	72	127
605.2621541950114	605.4131065759638	67	127
605.4363265306123	605.6569160997733	60	127
605.598866213152	605.7497959183673	67	127
605.598866213152	605.7497959183673	72	127
605.598866213152	605.7497959183673	70	127
605.7614058956916	605.9936054421769	48	127
605.9471655328798	606.1097052154195	69	127
605.9471655328798	606.1097052154195	65	127
605.9471655328798	606.1097052154195	72	127
606.1213151927437	606.3302947845805	60	127
606.2722448979592	606.4347845804989	65	127
606.2722448979592	606.4347845804989	69	127
606.2722448979592	606.4347845804989	72	127
606.4463945578232	606.6785941043084	48	127
606.6205442176871	606.7714739229025	72	127
606.6205442176871	606.7714739229025	67	127
606.6205442176871	606.7714739229025	64	127
606.7830839002268	606.9920634920635	60	127
606.9456235827664	607.1197732426303	72	127
606.9456235827664	607.1197732426303	64	127
606.9456235827664	607.1197732426303	67	127
607.1313832199546	607.3751927437642	59	127
607.3055102040817	607.4796825396826	64	127
607.3055102040817	607.4796825396826	72	127
607.3055102040817	607.4796825396826	67	127
607.4912925170069	607.7351020408163	60	127
607.677052154195	607.8279818594104	67	127
607.677052154195	607.8279818594104	64	127
607.677052154195	607.8279818594104	72	127
607.851201814059	608.0834013605443	58	127
608.0253514739229	608.1762811791383	72	127
608.0253514739229	608.1762811791383	67	127
608.0253514739229	608.1762811791383	64	127
608.1878911564626	608.385260770975	60	127
608.3620408163265	608.4897505668935	72	127
608.3620408163265	608.4897505668935	67	127
608.3620408163265	608.4897505668935	64	127
608.5013605442177	608.7219501133787	57	127
608.6639002267574	608.8148299319728	65	127
608.6639002267574	608.8148299319728	72	127
608.8380498866213	609.0586394557823	60	127
609.000589569161	609.1631292517006	65	127
609.000589569161	609.1631292517006	72	127
609.1747392290249	609.4533786848073	55	127
609.3604761904762	609.5462358276644	72	127
609.3604761904762	609.5462358276644	70	127
609.5578458049887	609.7784580498866	60	127
609.7204081632653	609.8945578231293	72	127
609.7204081632653	609.8945578231293	70	127
609.9061678004535	610.1267573696146	53	127
610.0687074829932	610.2196371882086	72	127
610.0687074829932	610.2196371882086	69	127
610.2428571428571	610.4634467120181	60	127
610.4053968253968	610.5911337868481	69	127
610.4053968253968	610.5911337868481	72	127
610.6027664399093	610.8233560090703	52	127
610.7768934240363	610.9278458049887	67	127
610.7768934240363	610.9278458049887	72	127
610.7768934240363	610.9278458049887	70	127
610.939455782313	611.1832426303855	60	127
611.1252154195012	611.2761451247165	67	127
611.1252154195012	611.2761451247165	72	127
611.1252154195012	611.2761451247165	70	127
611.2993650793651	611.5199546485261	50	127
611.4619047619047	611.6128117913833	65	127
611.4619047619047	611.6128117913833	72	127
611.4619047619047	611.6128117913833	70	127
611.6244444444444	611.8566439909297	60	127
611.7985714285714	611.9611337868481	72	127
611.7985714285714	611.9611337868481	70	127
611.7985714285714	611.9611337868481	65	127
611.9727437641724	612.1933333333334	48	127
612.135283446712	612.2978231292517	64	127
612.135283446712	612.2978231292517	72	127
612.135283446712	612.2978231292517	70	127
612.309433106576	612.576462585034	60	127
612.5068027210884	612.6693424036281	72	127
612.5068027210884	612.6693424036281	70	127
612.5068027210884	612.6693424036281	64	127
612.6809523809524	612.9131519274376	48	127
612.8551020408163	613.0060317460318	64	127
612.8551020408163	613.0060317460318	70	127
612.8551020408163	613.0060317460318	72	127
613.0176417233561	613.2382086167801	60	127
613.19179138322	613.3543310657597	70	127
613.19179138322	613.3543310657597	72	127
613.3659410430839	613.5865306122449	50	127
613.5284807256236	613.679410430839	70	127
613.5284807256236	613.679410430839	72	127
613.7026303854875	613.9232199546485	62	127
613.8651700680272	614.0160997732427	72	127
613.8651700680272	614.0160997732427	70	127
614.0277097505669	614.248276643991	50	127
614.2018594104309	614.3876190476191	72	127
614.2018594104309	614.3876190476191	70	127
614.3992290249433	614.6198185941043	62	127
614.561768707483	614.7243083900227	70	127
614.561768707483	614.7243083900227	72	127
614.7359183673469	614.9565079365079	53	127
614.8984580498866	615.0493877551021	72	127
614.8984580498866	615.0493877551021	69	127
615.0609977324264	615.3048072562358	65	127
615.2467573696146	615.4092970521542	69	127
615.2467573696146	615.4092970521542	72	127
615.4209070294785	615.664716553288	53	127
615.618276643991	615.8156462585034	72	127
615.618276643991	615.8156462585034	77	127
615.618276643991	615.8156462585034	69	127
615.8272562358277	616.0710657596372	65	127
616.0014058956916	616.1639455782313	72	127
616.0014058956916	616.1639455782313	77	127
616.0014058956916	616.1639455782313	69	127
616.1871655328798	616.4193650793651	55	127
616.3497052154195	616.5122222222222	70	127
616.3497052154195	616.5122222222222	72	127
616.3497052154195	616.5122222222222	76	127
616.5238548752834	616.7444444444444	67	127
616.6980045351474	616.8489342403628	70	127
616.6980045351474	616.8489342403628	72	127
616.6980045351474	616.8489342403628	76	127
616.8605442176871	617.0811337868481	57	127
617.0230839002268	617.2204535147392	72	127
617.0230839002268	617.2204535147392	77	127
617.2320634920635	617.4526530612245	69	127
617.3946031746032	617.5455328798186	72	127
617.3946031746032	617.5455328798186	77	127
617.5571428571428	617.7893424036281	58	127
617.7312698412699	617.8822222222223	74	127
617.8938321995465	618.1260317460318	70	127
618.0795918367347	618.2305215419501	74	127
618.2421315192744	618.4627210884354	55	127
618.404671201814	618.5555782312925	74	127
618.404671201814	618.5555782312925	79	127
618.404671201814	618.5555782312925	70	127
618.578820861678	618.8110204081632	67	127
618.752947845805	618.9039002267574	79	127
618.752947845805	618.9039002267574	70	127
618.752947845805	618.9039002267574	74	127
618.9155102040817	619.1592970521542	57	127
619.1128798185941	619.2638095238095	74	127
619.1128798185941	619.2638095238095	72	127
619.1128798185941	619.2638095238095	78	127
619.2754195011338	619.4960090702948	69	127
619.4379591836735	619.6353287981859	78	127
619.4379591836735	619.6353287981859	72	127
619.4379591836735	619.6353287981859	74	127
619.6469387755102	619.7978684807256	58	127
619.8094784580499	620.0068480725623	79	127
619.8094784580499	620.0068480725623	70	127
619.8094784580499	620.0068480725623	74	127
620.0184580498866	620.1925850340136	55	127
620.2042176870748	620.3667573696146	79	127
620.2042176870748	620.3667573696146	67	127
620.2042176870748	620.3667573696146	70	127
620.3783673469388	620.5989342403628	60	127
620.5409070294785	620.7034467120181	82	127
620.5409070294785	620.7034467120181	79	127
620.7150566893424	620.9356462585034	72	127
620.8775963718821	621.051746031746	79	127
620.8775963718821	621.051746031746	82	127
621.0749659863945	621.2955555555556	60	127
621.2375056689342	621.400045351474	82	127
621.2375056689342	621.400045351474	79	127
621.4116326530612	621.620612244898	72	127
621.5741950113379	621.7251247165533	79	127
621.5741950113379	621.7251247165533	82	127
621.7367346938776	621.9689342403628	61	127
621.9224943310658	622.0618140589569	79	127
621.9224943310658	622.0618140589569	82	127
622.0850340136054	622.3172335600907	73	127
622.2591836734694	622.4565532879818	82	127
622.2591836734694	622.4565532879818	79	127
622.4681632653061	622.7003628117914	60	127
622.6422902494331	622.7932426303855	79	127
622.6422902494331	622.7932426303855	82	127
622.8048526077098	623.0254421768708	72	127
622.9673922902494	623.1879818594105	82	127
622.9673922902494	623.1879818594105	79	127
623.1995918367347	623.4549886621315	65	127
623.3969614512472	623.5827210884354	84	127
623.3969614512472	623.5827210884354	82	127
623.3969614512472	623.5827210884354	76	127
623.6059410430839	623.8265306122449	72	127
623.7684807256236	623.9658503401361	76	127
623.7684807256236	623.9658503401361	84	127
623.7684807256236	623.9658503401361	82	127
623.9774603174603	624.1980498866213	60	127
624.1516099773243	624.3257596371882	84	127
624.1516099773243	624.3257596371882	82	127
624.1516099773243	624.3257596371882	76	127
624.3373696145125	624.5927891156463	72	127
624.5347392290249	624.7785487528345	82	127
624.5347392290249	624.7785487528345	84	127
624.5347392290249	624.7785487528345	76	127
624.801768707483	625.6957369614513	81	127
624.801768707483	625.6957369614513	77	127
624.801768707483	625.6957369614513	84	127
624.801768707483	625.6957369614513	65	127
625.730566893424	625.8931065759638	81	127
625.730566893424	625.8814965986395	65	127
625.8931065759638	626.0904761904762	72	127
625.8931065759638	626.1020861678005	80	127
626.1020861678005	626.2646258503402	69	127
626.1020861678005	626.2762358276644	81	127
626.2762358276644	626.4503854875284	72	127
626.2762358276644	626.4503854875284	77	127
626.4736054421769	627.1818140589569	79	127
626.4736054421769	626.6245351473923	64	127
626.6361451247166	626.8219047619048	72	127
626.833514739229	626.9960544217687	67	127
627.0192743764172	627.1818140589569	72	127
627.1934240362812	627.3907936507936	60	127
627.4024036281179	627.5649433106576	72	127
627.5881632653061	627.7390929705216	64	127
627.7506802721089	627.9364625850341	72	127
627.9480498866213	628.1222222222223	65	127
628.1338321995465	628.3195918367347	72	127
628.331201814059	628.5169614512472	69	127
628.5285714285715	628.6911111111111	72	127
628.7027210884354	628.818820861678	81	127
628.7027210884354	628.8768707482993	65	127
628.8304308390022	628.9697278911565	82	127
628.9117006802721	629.0742403628118	72	127
628.9813378684808	629.0742403628118	81	127
629.0858503401361	629.2832199546485	69	127
629.0858503401361	629.2019501133786	80	127
629.2135600907029	629.3296598639456	81	127
629.2948299319728	629.4573696145125	72	127
629.3528798185941	629.4573696145125	77	127
629.480589569161	630.1771882086168	79	127
629.480589569161	629.6431292517007	64	127
629.6663492063492	629.8172789115646	72	127
629.8172789115646	629.9798185941044	67	127
629.9914285714286	630.1771882086168	72	127
630.2003854875284	630.3513378684808	60	127
630.362947845805	630.5603174603175	72	127
630.5719274376418	630.7228571428572	64	127
630.7460770975057	630.9434467120182	72	127
630.9550566893424	631.1059863945578	65	127
631.1175963718821	631.3033560090703	72	127
631.3149659863946	631.46589569161	69	127
631.4775056689342	631.7097052154195	72	127
631.732925170068	631.8954648526077	62	127
631.907074829932	632.0812244897959	74	127
632.0928344671202	632.2902040816326	69	127
632.3134240362812	632.4875736961451	74	127
632.4991836734694	632.7081632653061	67	127
632.7197732426304	632.88231292517	74	127
632.9171428571428	633.0680498866213	71	127
633.0796598639456	633.230612244898	74	127
633.2422222222223	633.3118820861678	89	127
633.2422222222223	633.3931519274377	67	127
633.323492063492	633.3931519274377	88	127
633.4163718820862	633.6137414965987	79	127
633.4163718820862	633.5324716553288	89	127
633.544081632653	633.6137414965987	88	127
633.6253514739229	633.7762811791383	71	127
633.6253514739229	633.6949886621315	89	127
633.7066213151927	633.7762811791383	88	127
633.7878911564626	633.8575510204082	89	127
633.7878911564626	633.9504308390023	79	127
633.8807482993197	633.9504308390023	88	127
633.9620408163265	634.0317006802721	89	127
633.9620408163265	634.1245804988662	69	127
634.0433106575964	634.1245804988662	88	127
634.1361904761904	634.2058503401361	89	127
634.1361904761904	634.287097505669	79	127
634.2174603174603	634.287097505669	88	127
634.2987074829932	634.4264399092971	72	127
634.2987074829932	634.3451700680272	89	127
634.3683900226757	634.4264399092971	88	127
634.4264399092971	634.4844897959184	89	127
634.4264399092971	634.5541496598639	79	127
634.4960770975057	634.5541496598639	88	127
634.5657596371882	634.6354195011338	89	127
634.5657596371882	634.7747392290249	71	127
634.6470294784581	634.7747392290249	88	127
634.7979591836735	634.9604988662131	74	127
634.7979591836735	634.8676190476191	86	127
634.8908390022676	634.9604988662131	84	127
634.9721088435374	635.1230158730159	67	127
634.9721088435374	635.041768707483	83	127
635.0533786848073	635.1230158730159	81	127
635.1346485260771	635.2043083900227	79	127
635.1346485260771	635.2971882086168	71	127
635.215918367347	635.2971882086168	77	127
635.3087755102041	635.4016780045351	77	127
635.3087755102041	635.4713378684808	60	127
635.4132879818594	635.5293650793651	76	127
635.482947845805	635.6222675736961	72	127
635.5409977324263	635.6222675736961	77	127
635.6338775510204	635.7731972789115	79	127
635.6338775510204	635.8312471655329	67	127
635.7848072562358	635.8892970521542	77	127
635.8544671201814	636.0053968253968	72	127
635.9009070294785	636.0053968253968	76	127
636.0170068027211	636.098276643991	76	127
636.0170068027211	636.1563265306122	62	127
636.1214965986395	636.2143764172336	74	127
636.1679365079365	636.3420634920635	71	127
636.2259863945578	636.3420634920635	76	127
636.3536734693878	636.4581859410431	77	127
636.3536734693878	636.539433106576	65	127
636.4697959183674	636.632335600907	76	127
636.5510430839003	636.7368253968255	71	127
636.6439455782313	636.7368253968255	74	127
636.7484126984127	636.852925170068	74	127
636.7484126984127	636.9109750566894	64	127
636.8645351473923	636.9457823129252	72	127
636.9109750566894	637.073514739229	67	127
636.9690022675737	637.073514739229	74	127
637.0967346938776	637.2012244897959	76	127
637.0967346938776	637.247664399093	64	127
637.2128344671202	637.3173242630386	74	127
637.2592743764172	637.4334240362812	67	127
637.3289342403629	637.4334240362812	72	127
637.4450340136054	637.5843537414966	65	127
637.5379138321996	637.6424036281179	74	127
637.5959637188208	637.7585034013606	69	127
637.6540136054422	637.7585034013606	73	127
637.7817006802721	637.8862131519274	74	127
637.7817006802721	637.9442630385488	66	127
637.8978231292517	637.9906802721089	73	127
637.9558730158731	638.130022675737	72	127
638.0139229024943	638.130022675737	74	127
638.1648526077098	638.3157823129252	67	127
638.3273922902495	638.4318820861678	72	127
638.443492063492	638.5479818594105	76	127
638.5595918367347	638.664081632653	76	127
638.6873015873016	638.7801814058957	79	127
638.791768707483	638.9078911564626	84	127
638.9311111111111	639.012358276644	67	127
639.0239909297052	639.1517006802721	72	127
639.1633106575964	639.2561904761905	76	127
639.2678004535147	639.3722902494331	79	127
639.3839002267574	639.4883900226757	84	127
639.5116099773243	639.6160770975057	88	127
639.62768707483	639.7554195011338	67	127
639.7902494331066	639.8831292517007	74	127
639.8947392290249	640.0224263038549	77	127
640.0340362811792	640.1269387755102	89	127
640.1385487528345	640.2546485260771	86	127
640.2662585034013	640.3707482993198	83	127
640.3939682539683	640.5216780045351	80	127
640.5332879818594	640.6609977324263	79	127
640.5332879818594	640.6609977324263	55	127
640.6842176870748	640.777097505669	56	127
640.6842176870748	640.777097505669	78	127
640.7887074829932	640.9280272108844	77	127
640.7887074829932	640.9280272108844	57	127
640.9396371882086	641.0325170068028	76	127
640.9396371882086	641.0325170068028	58	127
641.04410430839	641.2647165532879	59	127
641.04410430839	641.2647165532879	74	127
641.2763265306122	641.485306122449	48	127
641.2763265306122	641.6942857142857	72	127
641.531746031746	641.6942857142857	60	127
641.7175056689342	642.0657823129252	79	127
641.7175056689342	641.8916553287982	59	127
641.7175056689342	642.0657823129252	88	127
641.9032653061224	642.0657823129252	60	127
642.0773922902495	642.3212244897959	48	127
642.3328344671202	642.4837414965987	55	127
642.4953741496598	642.6579138321996	54	127
642.4953741496598	642.8552834467121	79	127
642.4953741496598	642.8552834467121	88	127
642.6811111111111	642.8552834467121	55	127
642.8668934240363	643.0642630385488	48	127
643.0758730158731	643.2848299319728	57	127
643.3080498866213	643.6447619047619	88	127
643.3080498866213	643.6447619047619	77	127
643.3080498866213	643.470612244898	56	127
643.4822222222223	643.6447619047619	57	127
643.6563718820862	643.8073015873016	48	127
643.8305215419501	643.9930612244898	59	127
644.0046712018141	644.3761904761905	86	127
644.0046712018141	644.1556009070295	58	127
644.0046712018141	644.3761904761905	77	127
644.1672108843537	644.3761904761905	59	127
644.399410430839	644.5619501133787	48	127
644.5735600907029	644.7709297052154	60	127
644.7941496598639	645.1192290249434	76	127
644.7941496598639	644.9566893424036	59	127
644.7941496598639	645.1192290249434	84	127
644.9682993197279	645.1192290249434	60	127
645.1308163265306	645.281768707483	48	127
645.2933786848073	645.455918367347	62	127
645.4675283446712	645.8158276643991	83	127
645.4675283446712	645.6532879818594	61	127
645.4675283446712	645.8158276643991	77	127
645.6648979591837	645.8158276643991	62	127
645.8390476190476	646.0131972789115	48	127
646.0248072562358	646.1757369614512	64	127
646.1873469387755	646.3614739229025	79	127
646.1873469387755	646.338276643991	63	127
646.3614739229025	646.5356462585034	84	127
646.3614739229025	646.5356462585034	64	127
646.5472562358277	646.8026757369614	72	127
646.5472562358277	646.7097959183674	48	127
646.5472562358277	646.8026757369614	81	127
646.7214058956916	646.9303854875284	65	127
646.9536054421769	647.1045351473923	48	127
646.9536054421769	647.1741723356009	83	127
646.9536054421769	647.1741723356009	77	127
647.1161451247166	647.2786848072562	62	127
647.2902947845805	647.4528344671202	48	127
647.2902947845805	647.4528344671202	76	127
647.2902947845805	647.4528344671202	84	127
647.4992743764172	647.5921315192744	88	127
647.4992743764172	647.6734240362812	60	127
647.6037641723356	647.6734240362812	87	127
647.708253968254	648.0565532879818	88	127
647.708253968254	648.0565532879818	79	127
647.708253968254	647.8591836734694	59	127
647.8824036281179	648.0565532879818	60	127
648.0681632653061	648.24231292517	48	127
648.2539229024943	648.4396825396825	55	127
648.2539229024943	648.3235827664399	88	127
648.3351927437642	648.4396825396825	87	127
648.4512925170068	648.7879818594105	88	127
648.4512925170068	648.6138095238096	54	127
648.4512925170068	648.7879818594105	79	127
648.6254421768707	648.7879818594105	55	127
648.7995918367347	648.9505215419501	48	127
648.9969614512472	649.1827210884354	57	127
648.9969614512472	649.0666213151927	88	127
649.078231292517	649.1827210884354	87	127
649.1943310657597	649.519410430839	88	127
649.1943310657597	649.519410430839	77	127
649.1943310657597	649.3568707482993	56	127
649.3684807256236	649.519410430839	57	127
649.5426303854875	649.6935600907029	48	127
649.7051700680272	649.8793197278911	59	127
649.7051700680272	649.7864399092971	86	127
649.7980498866214	649.8793197278911	85	127
649.8909297052154	650.2276190476191	86	127
649.8909297052154	650.0418367346939	58	127
649.8909297052154	650.2276190476191	77	127
650.0650793650793	650.2276190476191	59	127
650.2392063492064	650.401768707483	48	127
650.4133786848073	650.4830385487528	84	127
650.4133786848073	650.5991383219955	60	127
650.5062585034013	650.5991383219955	83	127
650.6107482993198	650.7732879818594	59	127
650.6107482993198	650.9474376417234	76	127
650.6107482993198	650.9474376417234	84	127
650.7848979591837	650.9474376417234	60	127
650.9590476190476	651.109977324263	48	127
651.1215873015873	651.1912471655329	83	127
651.1215873015873	651.2841269841269	62	127
651.2028571428572	651.2841269841269	82	127
651.2957369614512	651.4466666666667	61	127
651.2957369614512	651.6208163265306	83	127
651.2957369614512	651.6208163265306	77	127
651.458276643991	651.6208163265306	62	127
651.6324263038549	651.7833560090703	48	127
651.7949659863946	651.9575056689342	64	127
651.7949659863946	651.8762131519275	84	127
651.8878231292517	651.9575056689342	83	127
651.9807256235828	652.1316553287982	63	127
651.9807256235828	652.3522448979592	84	127
651.9807256235828	652.3522448979592	79	127
652.1432653061224	652.3522448979592	64	127
652.3638548752834	652.5031519274377	48	127
652.5263945578231	652.6889115646259	65	127
652.5263945578231	652.5960544217687	74	127
652.607664399093	652.6889115646259	81	127
652.7005215419501	652.8746938775511	48	127
652.8863038548753	652.9907936507936	77	127
652.8863038548753	653.0836734693878	62	127
653.0140136054422	653.0836734693878	83	127
653.0952834467121	653.2578231292517	48	127
653.269433106576	653.4203628117914	60	127
653.269433106576	653.3390929705215	84	127
653.3507029478458	653.4203628117914	83	127
653.4435827664399	653.7802721088435	84	127
653.4435827664399	653.7802721088435	76	127
653.4435827664399	653.6293424036281	59	127
653.6293424036281	653.7802721088435	60	127
653.7918820861678	653.9428117913832	48	127
653.9544217687074	654.1517913832199	65	127
653.9544217687074	654.0240816326531	72	127
654.0705215419501	654.1517913832199	81	127
654.1634013605442	654.3143310657597	48	127
654.325918367347	654.4072108843537	77	127
654.325918367347	654.4884807256236	62	127
654.418820861678	654.4884807256236	83	127
654.5117006802722	654.6858503401361	48	127
654.6974603174604	654.86	60	127
654.6974603174604	654.7671201814059	84	127
654.7787301587301	654.86	83	127
654.8716099773243	655.1850793650793	76	127
654.8716099773243	655.0109297052154	59	127
654.8716099773243	655.1850793650793	84	127
655.0341496598639	655.1850793650793	60	127
655.1966893424036	655.3708163265306	48	127
655.3824489795918	655.521768707483	72	127
655.3824489795918	655.6030385487528	65	127
655.5333786848073	655.6030385487528	81	127
655.6262585034013	655.7771655328798	48	127
655.788798185941	655.9977777777777	62	127
655.788798185941	655.8584580498866	77	127
655.8932879818594	655.9977777777777	83	127
656.009387755102	656.1719047619048	60	127
656.183514739229	656.2996371882086	84	127
656.183514739229	656.2996371882086	76	127
656.3228571428572	656.4157369614512	75	127
656.3228571428572	656.4157369614512	83	127
656.4273469387755	656.5202267573696	84	127
656.4273469387755	656.5202267573696	76	127
656.5434467120182	656.6479365079365	83	127
656.5434467120182	656.6479365079365	75	127
656.6595464852608	656.7640362811792	84	127
656.6595464852608	656.7640362811792	76	127
656.845306122449	656.9497959183674	60	127
656.9614058956917	657.0775056689342	74	127
656.9614058956917	657.0775056689342	82	127
657.0891156462585	657.1819954648527	81	127
657.0891156462585	657.1819954648527	73	127
657.2051927437642	657.2980952380952	74	127
657.2051927437642	657.2980952380952	82	127
657.3097052154195	657.4025623582767	73	127
657.3097052154195	657.4025623582767	81	127
657.4258049886621	657.5302947845805	74	127
657.4258049886621	657.5302947845805	82	127
657.5419047619048	657.6696145124716	61	127
657.6928344671202	657.7857142857143	81	127
657.6928344671202	657.7857142857143	72	127
657.7973242630386	657.8902040816326	71	127
657.7973242630386	657.8902040816326	80	127
657.9018140589569	658.0062811791383	81	127
657.9018140589569	658.0062811791383	72	127
658.0295011337869	658.1340136054422	80	127
658.0295011337869	658.1340136054422	71	127
658.1456235827665	658.2733333333333	72	127
658.1456235827665	658.2733333333333	81	127
658.3429931972789	658.4010430839003	58	127
658.4126530612245	658.48231292517	70	127
658.4939229024943	658.610022675737	74	127
658.610022675737	658.6796825396825	79	127
658.6912925170068	658.7609523809524	57	127
658.7957823129252	658.8886621315193	69	127
658.9002721088435	659.0279591836735	72	127
659.0279591836735	659.1673015873016	77	127
659.1789115646259	659.4343310657597	77	127
659.1789115646259	659.7129705215419	55	127
659.4343310657597	659.5156009070295	79	127
659.5156009070295	659.7245804988662	77	127
659.7245804988662	660.0844897959183	76	127
659.7245804988662	659.9219501133787	60	127
659.9335600907029	660.0844897959183	70	127
660.0960997732426	660.3166893424036	67	127
660.0960997732426	661.1874376417234	76	127
660.3282993197279	660.5140589569161	70	127
660.5256689342403	660.6765759637188	60	127
660.6998185941043	660.8391383219955	70	127
660.8507482993198	661.0132879818594	67	127
661.036507936508	661.1642176870748	70	127
661.1874376417234	661.3383673469388	77	127
661.1874376417234	661.3267573696145	60	127
661.3383673469388	661.5589569160998	76	127
661.3383673469388	661.5473469387755	70	127
661.5589569160998	661.7331065759637	79	127
661.5589569160998	661.7098639455783	65	127
661.7331065759637	661.8956235827665	77	127
661.7331065759637	661.8840362811792	69	127
661.8956235827665	662.0233560090703	60	127
661.8956235827665	662.0349659863946	76	127
662.0349659863946	662.2091156462585	74	127
662.0349659863946	662.2091156462585	69	127
662.2207256235828	662.3832653061224	64	127
662.2207256235828	662.3019727891157	74	127
662.3019727891157	662.3948752834467	76	127
662.3948752834467	662.5458049886621	67	127
662.3948752834467	662.4761451247166	74	127
662.4761451247166	662.5574149659864	76	127
662.5574149659864	662.847664399093	60	127
662.5574149659864	663.0450340136055	72	127
662.8592743764173	663.0450340136055	67	127
663.0566439909297	664.1712018140589	72	127
663.0566439909297	663.2075736961451	64	127
663.2191836734694	663.3585034013605	67	127
663.3701133786848	663.5210430839003	60	127
663.5326303854876	663.7068027210885	67	127
663.730022675737	663.8925623582767	64	127
663.904172335601	664.0551020408163	67	127
664.0667120181406	664.2060317460317	60	127
664.2292517006803	664.345328798186	67	127
664.3569387755102	664.4266213151927	74	127
664.3569387755102	664.5195011337869	65	127
664.4498412698413	664.5195011337869	76	127
664.5311111111112	664.6123809523809	74	127
664.5311111111112	664.7168707482994	69	127
664.6356009070295	664.7168707482994	76	127
664.7284807256236	664.9026303854876	60	127
664.7284807256236	664.7981405895691	74	127
664.8097505668934	664.9026303854876	76	127
664.9142403628118	664.9839002267573	74	127
664.9142403628118	665.0767800453515	69	127
664.9955102040816	665.0767800453515	76	127
665.0883900226758	665.1580498866214	76	127
665.0883900226758	665.2625396825397	67	127
665.1928798185941	665.2625396825397	77	127
665.274149659864	665.4482993197279	70	127
665.274149659864	665.3554195011338	76	127
665.3786167800454	665.4482993197279	77	127
665.4599092970521	665.541179138322	76	127
665.4599092970521	665.6340589569161	60	127
665.5527891156463	665.6340589569161	77	127
665.6572789115646	665.715328798186	76	127
665.6572789115646	665.80820861678	70	127
665.7385487528345	665.80820861678	77	127
665.8198185941043	665.982335600907	65	127
665.8198185941043	665.9010884353742	74	127
665.9126984126984	665.982335600907	76	127
665.9939455782313	666.0636281179138	74	127
665.9939455782313	666.1448979591837	69	127
666.0752380952381	666.1448979591837	76	127
666.1681179138322	666.3190476190476	60	127
666.1681179138322	666.2377777777778	74	127
666.249387755102	666.3190476190476	76	127
666.3306575963719	666.423537414966	74	127
666.3306575963719	666.5048072562358	69	127
666.4351473922902	666.5048072562358	76	127
666.5164172335601	666.5860770975057	76	127
666.5164172335601	666.6673469387755	67	127
666.597664399093	666.6673469387755	77	127
666.6789569160998	666.8298866213152	70	127
666.6789569160998	666.7486167800454	76	127
666.7602267573697	666.8298866213152	77	127
666.8531065759637	667.0040136054422	60	127
666.8531065759637	666.9227664399093	76	127
666.9343764172336	667.0040136054422	77	127
667.0156235827665	667.0969160997732	76	127
667.0156235827665	667.2014058956917	70	127
667.1201360544218	667.2014058956917	77	127
667.2129931972789	667.3987755102041	69	127
667.2129931972789	667.2826757369614	77	127
667.2942857142857	667.3987755102041	79	127
667.4103854875284	667.6077551020409	72	127
667.4103854875284	667.4916553287982	77	127
667.5380952380953	667.6077551020409	79	127
667.6193424036281	667.6890249433106	77	127
667.6193424036281	667.7819047619048	60	127
667.7122448979592	667.7819047619048	79	127
667.7935147392291	667.8980045351474	77	127
667.7935147392291	667.9792743764173	72	127
667.9096145124716	667.9792743764173	79	127
667.9908843537415	668.1766439909297	70	127
667.9908843537415	668.0953741496598	78	127
668.1069841269841	668.1766439909297	79	127
668.188253968254	668.3507936507937	72	127
668.188253968254	668.2579138321995	78	127
668.281133786848	668.3507936507937	79	127
668.3624036281179	668.5481632653061	60	127
668.3624036281179	668.4436507936508	78	127
668.4552607709751	668.5481632653061	79	127
668.5597732426304	668.629433106576	78	127
668.5597732426304	668.7107029478458	72	127
668.6410204081633	668.7107029478458	79	127
668.7339229024943	668.896462585034	70	127
668.7339229024943	668.8151927437642	79	127
668.8268027210885	668.896462585034	81	127
668.9080725623583	669.070589569161	72	127
668.9080725623583	668.9777324263039	79	127
669.0009523809524	669.070589569161	81	127
669.0822222222222	669.1518820861678	79	127
669.0822222222222	669.2331519274377	60	127
669.1634920634921	669.2331519274377	81	127
669.2563492063492	669.4073015873016	72	127
669.2563492063492	669.3260317460317	79	127
669.337641723356	669.4073015873016	81	127
669.4189115646259	669.5814512471655	70	127
669.4189115646259	669.4885714285714	79	127
669.5001814058957	669.5814512471655	81	127
669.5930612244898	669.7556009070295	72	127
669.5930612244898	669.6626984126984	79	127
669.685918367347	669.7556009070295	81	127
669.778820861678	669.9297505668934	62	127
669.778820861678	669.8484807256236	79	127
669.8600907029479	669.9297505668934	81	127
669.9413605442177	670.1271201814059	72	127
669.9413605442177	670.0342403628118	79	127
670.0458503401361	670.1271201814059	81	127
670.1387301587301	670.2083900226758	80	127
670.1387301587301	670.3012698412698	64	127
670.2316099773243	670.3012698412698	81	127
670.3128798185941	670.4057596371882	80	127
670.3128798185941	670.4870068027211	72	127
670.4173696145125	670.4870068027211	81	127
670.4986167800454	670.661179138322	70	127
670.4986167800454	670.5682993197279	80	127
670.5799092970522	670.661179138322	81	127
670.661179138322	670.835328798186	72	127
670.661179138322	670.7192290249433	80	127
670.7424489795918	670.835328798186	81	127
670.8469387755102	671.0326984126984	65	127
670.8469387755102	670.9165986394557	81	127
670.92820861678	671.0326984126984	82	127
671.0443083900227	671.1139455782313	81	127
671.0443083900227	671.1952380952381	77	127
671.1255782312925	671.1952380952381	82	127
671.2184580498866	671.4854875283447	72	127
671.2184580498866	671.2881179138323	81	127
671.2997052154195	671.4854875283447	82	127
671.497097505669	671.6480272108844	69	127
671.497097505669	671.5667573696145	81	127
671.5783673469388	671.6480272108844	82	127
671.6596371882086	671.7292743764173	89	127
671.6596371882086	671.8221768707483	65	127
671.7409070294784	671.8221768707483	88	127
671.8453968253968	671.984716553288	77	127
671.8453968253968	671.9034467120182	89	127
671.9150340136055	671.984716553288	88	127
671.9963265306122	672.1472562358276	69	127
671.9963265306122	672.0659863945579	89	127
672.0775963718821	672.1472562358276	88	127
672.1588662131519	672.2285260770975	89	127
672.1588662131519	672.3213832199547	77	127
672.2401360544218	672.3213832199547	88	127
672.3446258503401	672.4142857142857	89	127
672.3446258503401	672.4955555555556	67	127
672.42589569161	672.4955555555556	88	127
672.5071655328799	672.6116553287982	89	127
672.5071655328799	672.6929251700681	77	127
672.6232653061224	672.6929251700681	88	127
672.7045351473923	672.8554648526077	70	127
672.7045351473923	672.7509523809524	89	127
672.7741950113378	672.8554648526077	88	127
672.867074829932	672.9367120181406	89	127
672.867074829932	673.0180045351474	77	127
672.9483219954649	673.0180045351474	88	127
673.0296145124717	673.1224943310658	89	127
673.0296145124717	673.2037641723356	69	127
673.1341043083901	673.2037641723356	88	127
673.2153741496599	673.3895238095238	77	127
673.2153741496599	673.2850340136055	89	127
673.308253968254	673.3895238095238	88	127
673.401133786848	673.4707936507937	89	127
673.401133786848	673.5520408163266	72	127
673.4824036281179	673.5520408163266	88	127
673.5636507936508	673.6449433106576	89	127
673.5636507936508	673.7262131519275	77	127
673.6565532879819	673.7262131519275	85	127
673.749410430839	673.8074829931973	86	127
673.749410430839	673.92358276644	70	127
673.8307029478458	673.92358276644	88	127
673.9351927437642	674.016462585034	86	127
673.9351927437642	674.1209523809524	77	127
674.0512925170068	674.1209523809524	88	127
674.144172335601	674.2951020408163	74	127
674.144172335601	674.2138321995465	86	127
674.2138321995465	674.2951020408163	88	127
674.3183219954649	674.3879591836735	86	127
674.3183219954649	674.4692517006803	77	127
674.3995918367347	674.4692517006803	88	127
674.5040816326531	674.585328798186	86	127
674.5040816326531	674.678231292517	67	127
674.5969614512471	674.678231292517	88	127
674.6898412698413	674.8756009070295	79	127
674.6898412698413	674.7711111111112	86	127
674.7826984126984	674.8756009070295	88	127
674.898820861678	675.0497505668934	70	127
674.898820861678	674.9684807256236	86	127
674.9800680272109	675.0497505668934	88	127
675.0613605442177	675.2239002267573	79	127
675.0613605442177	675.1310204081633	86	127
675.1426303854876	675.2239002267573	88	127
675.2355102040816	675.4096371882086	69	127
675.2355102040816	675.3167800453515	86	127
675.34	675.4096371882086	88	127
675.4212698412698	675.514149659864	86	127
675.4212698412698	675.6186394557823	79	127
675.5373696145125	675.6186394557823	88	127
675.6302494331065	675.781179138322	72	127
675.6302494331065	675.6999092970522	86	127
675.7115192743764	675.781179138322	88	127
675.7927891156463	675.9785487528345	79	127
675.7927891156463	675.8856689342404	86	127
675.9088888888889	675.9785487528345	88	127
675.9901587301588	676.1526984126984	70	127
675.9901587301588	676.0249886621315	86	127
676.0598185941043	676.0946485260771	88	127
676.1062585034014	676.2571882086168	86	127
676.1643083900227	676.3732879818594	74	127
676.268798185941	676.3732879818594	84	127
676.3848979591837	676.5590476190476	67	127
676.3848979591837	676.5009977324263	82	127
676.5126077097506	676.6054875283447	81	127
676.5706575963719	676.7215873015873	74	127
676.6286848072563	676.7215873015873	79	127
676.7448072562358	676.9189569160998	60	127
676.7448072562358	676.8492970521542	77	127
676.8609070294784	676.9886167800454	76	127
676.9537868480726	677.1163265306122	70	127
677.0002267573697	677.1163265306122	79	127
677.1279365079365	677.2208163265307	77	127
677.1279365079365	677.2904761904762	67	127
677.2324036281179	677.3485260770975	81	127
677.3020861678004	677.4878458049886	70	127
677.3833560090703	677.4878458049886	79	127
677.5110657596372	677.6039455782313	82	127
677.5110657596372	677.6619954648526	60	127
677.6155555555556	677.7200453514739	81	127
677.6736054421768	677.8245351473923	70	127
677.7316553287982	677.8245351473923	84	127
677.8361451247166	678.0102947845805	67	127
677.8361451247166	677.9522448979592	82	127
677.9638548752835	678.0915646258503	86	127
678.0451020408163	678.2308843537415	70	127
678.1031746031746	678.2308843537415	84	127
678.2424943310658	678.4050340136055	60	127
678.2424943310658	678.3469841269841	82	127
678.3702040816327	678.4630612244898	81	127
678.4166439909297	678.6140136054422	70	127
678.4746712018141	678.6140136054422	79	127
678.6256235827665	678.7765532879819	67	127
678.6256235827665	678.7185034013605	77	127
678.7301133786848	678.8346031746032	76	127
678.7881632653061	678.9507029478458	70	127
678.8578231292518	678.9507029478458	74	127
678.9623129251701	679.1596825396825	60	127
678.9623129251701	679.0783900226758	72	127
679.1016326530612	679.2061224489796	71	127
679.1712925170068	679.3222222222222	70	127
679.2293424036282	679.3222222222222	72	127
679.3338321995465	679.4383219954649	73	127
679.3338321995465	679.484739229025	67	127
679.4499319727892	679.5428117913832	74	127
679.5079818594104	679.6937188208617	70	127
679.5544217687075	679.6937188208617	75	127
679.7053514739229	679.8562811791384	65	127
679.7053514739229	679.798231292517	76	127
679.8098412698413	679.9143310657596	77	127
679.8678911564626	680.0072108843538	70	127
679.9259410430839	680.0072108843538	78	127
680.0304308390023	680.1233106575963	79	127
680.0304308390023	680.1813605442177	67	127
680.1349206349206	680.239410430839	80	127
680.192970521542	680.3439002267573	70	127
680.2510204081633	680.3439002267573	81	127
680.3555102040816	680.4483900226758	82	127
680.3555102040816	680.4948299319728	60	127
680.46	680.5528798185941	83	127
680.5180272108844	680.6573696145125	70	127
680.5644897959183	680.6573696145125	84	127
680.6689795918368	680.8199092970522	67	127
680.6689795918368	680.7386394557823	85	127
680.7502494331065	680.8199092970522	86	127
680.8315192743764	680.901179138322	87	127
680.8315192743764	680.9940589569161	70	127
680.9243764172336	680.9940589569161	88	127
681.0056689342404	681.6674376417234	89	127
681.0056689342404	681.6674376417234	69	127
681.0056689342404	681.6674376417234	65	127
681.6790476190477	682.2827664399093	65	127
682.3059863945579	682.5381859410431	72	127
682.5497732426304	682.7007256235828	69	127
682.7123356009071	682.886485260771	72	127
682.9097052154195	683.0722448979592	64	127
683.0838548752835	683.2812244897959	72	127
683.2928344671202	683.4437641723356	67	127
683.4669841269841	683.6759637188209	72	127
683.6875736961451	683.8617233560091	60	127
683.6875736961451	683.8733333333333	84	127
683.8733333333333	684.0707029478458	83	127
683.8733333333333	684.0590929705215	72	127
684.0707029478458	684.2216326530612	64	127
684.0707029478458	684.2332426303855	84	127
684.2332426303855	684.4190022675737	72	127
684.2332426303855	684.4190022675737	79	127
684.4422222222222	685.1736507936508	81	127
684.4422222222222	684.6163718820861	65	127
684.6279818594104	684.8137188208617	72	127
684.8253514739229	684.9878911564626	69	127
684.9994784580499	685.1736507936508	72	127
685.1852607709751	685.3361904761905	65	127
685.3478004535148	685.5683900226758	72	127
685.5916099773243	685.7425396825397	69	127
685.754149659864	685.9515192743764	72	127
685.9631292517007	686.1140589569161	64	127
686.1372789115646	686.3346485260771	72	127
686.3462585034014	686.4971882086168	67	127
686.5204081632653	686.7061678004535	72	127
686.729387755102	686.8222675736962	84	127
686.729387755102	686.8919274376417	60	127
686.8454648526077	686.9615873015873	86	127
686.8919274376417	687.0544444444445	72	127
686.9731972789116	687.0544444444445	84	127
687.0776870748299	687.2866666666666	64	127
687.0776870748299	687.2053968253969	83	127
687.2170068027211	687.344716553288	84	127
687.2982766439909	687.4607936507937	72	127
687.3679365079365	687.4607936507937	79	127
687.472403628118	687.6349659863946	65	127
687.472403628118	688.1458049886621	81	127
687.6465759637189	687.8091156462585	72	127
687.8207256235828	687.9600453514739	69	127
687.9716553287982	688.1458049886621	72	127
688.1690249433107	688.2619047619048	81	127
688.1690249433107	688.3315646258503	62	127
688.2734920634921	688.3780045351474	89	127
688.3431746031746	688.5289342403628	74	127
688.4244444444445	688.5289342403628	88	127
688.540544217687	688.668253968254	69	127
688.540544217687	688.6218140589569	89	127
688.6334240362812	688.7379138321995	88	127
688.7030839002267	688.888820861678	74	127
688.7495238095238	688.888820861678	89	127
688.9120634920635	689.0746031746032	67	127
688.9120634920635	689.5854421768707	83	127
689.0861904761905	689.2487528344672	79	127
689.2719727891157	689.4112925170068	74	127
689.4229024943311	689.5854421768707	71	127
689.597052154195	689.99179138322	67	127
689.8292517006803	689.99179138322	83	127
690.0034013605442	690.3517006802721	79	127
690.1891609977324	690.3517006802721	83	127
690.3633106575963	690.7231972789116	69	127
690.5490702947845	690.7231972789116	84	127
690.7464172335601	691.0831292517007	81	127
690.9089795918368	691.0831292517007	84	127
691.094739229025	691.4430385487528	71	127
691.2572789115646	691.4430385487528	86	127
691.4546485260771	691.7913378684807	83	127
691.6171882086168	691.7913378684807	86	127
691.8145578231292	692.1396371882087	60	127
691.9887074829932	692.1396371882087	88	127
691.9887074829932	692.1396371882087	79	127
692.1512471655329	692.5343764172336	72	127
692.3834467120181	692.5343764172336	79	127
692.3834467120181	692.5343764172336	88	127
692.5459863945579	692.8826757369615	62	127
692.7201360544218	692.8826757369615	79	127
692.7201360544218	692.8826757369615	77	127
692.7201360544218	692.8826757369615	83	127
692.8942857142857	693.2541950113379	74	127
693.1032653061225	693.2541950113379	79	127
693.1032653061225	693.2541950113379	83	127
693.1032653061225	693.2541950113379	77	127
693.2658049886621	693.6373242630385	64	127
693.439954648526	693.6373242630385	84	127
693.439954648526	693.6373242630385	79	127
693.6489342403628	693.9856235827665	76	127
693.834693877551	693.9856235827665	84	127
693.834693877551	693.9856235827665	79	127
693.9856235827665	694.1597732426304	65	127
694.1713832199547	694.3687528344672	81	127
694.1713832199547	694.3687528344672	77	127
694.1713832199547	694.3687528344672	84	127
694.3919727891157	694.5429024943311	66	127
694.5545124716554	694.717052154195	84	127
694.5545124716554	694.717052154195	78	127
694.5545124716554	694.717052154195	81	127
694.7286621315193	695.0653514739229	67	127
694.9144217687075	695.0653514739229	76	127
694.9144217687075	695.0653514739229	84	127
695.0769614512471	695.5297505668934	79	127
695.3207709750567	695.5297505668934	76	127
695.3207709750567	695.5297505668934	84	127
695.5413605442177	695.8896598639456	55	127
695.7039002267574	695.8896598639456	72	127
695.7039002267574	695.8896598639456	76	127
695.9012698412698	696.2727891156462	67	127
696.0986394557823	696.2727891156462	76	127
696.0986394557823	696.2727891156462	72	127
696.2843990929705	696.6326984126985	55	127
696.481768707483	696.6326984126985	77	127
696.481768707483	696.6326984126985	71	127
696.6443083900227	697.0506575963719	67	127
696.8997278911564	697.0506575963719	68	127
696.8997278911564	697.0506575963719	71	127
697.0738548752835	697.3873469387755	55	127
697.2364172335601	697.3873469387755	67	127
697.2364172335601	697.3873469387755	71	127
697.3989569160998	697.8285260770975	67	127
697.6775736961451	697.8285260770975	71	127
697.6775736961451	697.8285260770975	65	127
697.8401360544218	698.1884353741497	48	127
698.02589569161	698.1884353741497	72	127
698.02589569161	698.1884353741497	64	127
698.2000453514739	698.687664399093	60	127
698.3974149659864	698.687664399093	72	127
698.6992517006803	699.0243537414966	48	127
698.8734240362812	699.0243537414966	67	127
699.0359637188209	699.4307029478458	55	127
699.2333333333333	699.4307029478458	67	127
699.4423129251701	699.7557823129251	48	127
699.6048526077097	699.7557823129251	69	127
699.7790022675737	700.2201814058957	57	127
699.9415192743764	700.2201814058957	69	127
700.23179138322	700.5452380952381	48	127
700.4059410430839	700.5452380952381	71	127
700.5568480725624	700.9283900226758	59	127
700.7542176870749	700.9283900226758	71	127
700.94	701.2766893424036	48	127
701.114149659864	701.2766893424036	72	127
701.2882993197279	701.64820861678	60	127
701.4972789115646	701.64820861678	72	127
701.6598185941043	702.0313378684807	48	127
701.8455782312925	702.0313378684807	74	127
702.042947845805	702.4028571428571	62	127
702.2170975056689	702.4028571428571	74	127
702.4260770975056	702.7395464852608	48	127
702.5770068027211	702.7395464852608	76	127
702.7511564625851	703.0878458049887	64	127
702.9136961451247	703.0878458049887	76	127
703.0994557823129	703.2503854875283	48	127
703.2619954648526	703.459365079365	77	127
703.2619954648526	703.459365079365	65	127
703.4825850340136	703.6799546485261	48	127
703.6915646258503	703.85410430839	62	127
703.6915646258503	703.85410430839	74	127
703.8657142857143	703.9702040816327	48	127
703.981814058957	704.074693877551	72	127
703.981814058957	704.074693877551	60	127
704.0979138321995	704.1791836734694	71	127
704.0979138321995	704.1791836734694	59	127
704.1907936507937	704.3417233560091	72	127
704.1907936507937	704.3417233560091	60	127
704.3649433106576	704.4578231292517	59	127
704.3649433106576	704.4578231292517	71	127
704.4694331065759	704.6668027210884	60	127
704.4694331065759	704.6668027210884	72	127
704.6900226757369	704.7945124716554	48	127
704.8061224489796	704.8990022675737	55	127
704.8061224489796	704.8990022675737	67	127
704.9222222222222	705.0034920634921	54	127
704.9222222222222	705.0034920634921	66	127
705.0267120181406	705.1544217687075	55	127
705.0267120181406	705.1544217687075	67	127
705.1660317460318	705.2588888888889	54	127
705.1660317460318	705.2588888888889	66	127
705.2821315192743	705.398231292517	67	127
705.2821315192743	705.398231292517	55	127
705.4214512471656	705.5375510204082	48	127
705.5491609977324	705.6420408163266	57	127
705.5491609977324	705.6420408163266	69	127
705.6536281179139	705.7697505668934	56	127
705.6536281179139	705.7697505668934	68	127
705.7813605442177	705.885850340136	57	127
705.7813605442177	705.885850340136	69	127
705.9206802721088	706.0251700680273	68	127
705.9206802721088	706.0251700680273	56	127
706.0367800453515	706.1644897959184	57	127
706.0367800453515	706.1644897959184	69	127
706.1877097505669	706.2805668934241	48	127
706.2921995464852	706.4082993197279	71	127
706.2921995464852	706.4082993197279	59	127
706.4431292517007	706.5360090702948	58	127
706.4431292517007	706.5360090702948	70	127
706.547619047619	706.6521088435375	71	127
706.547619047619	706.6521088435375	59	127
706.6637188208617	706.7565986394558	70	127
706.6637188208617	706.7565986394558	58	127
706.7798185941043	706.9191383219954	59	127
706.7798185941043	706.9191383219954	71	127
706.9307482993197	707.0236281179139	48	127
707.0468480725624	707.1397278911564	60	127
707.0468480725624	707.1397278911564	72	127
707.1513378684807	707.2558276643991	71	127
707.1513378684807	707.2558276643991	59	127
707.2674376417234	707.3603174603174	72	127
707.2674376417234	707.3603174603174	60	127
707.3719274376417	707.4996145124717	71	127
707.3719274376417	707.4996145124717	59	127
707.511224489796	707.6389569160998	72	127
707.511224489796	707.6389569160998	60	127
707.6505668934241	707.7550566893424	48	127
707.7666666666667	707.8595464852608	74	127
707.7666666666667	707.8595464852608	62	127
707.8827664399093	707.9756462585034	61	127
707.8827664399093	707.9756462585034	73	127
707.9872562358277	708.0917460317461	62	127
707.9872562358277	708.0917460317461	74	127
708.1033333333334	708.1962358276644	61	127
708.1033333333334	708.1962358276644	73	127
708.2426757369615	708.3703854875283	74	127
708.2426757369615	708.3703854875283	62	127
708.3819954648526	708.486485260771	48	127
708.4980952380953	708.5793650793651	64	127
708.4980952380953	708.5793650793651	76	127
708.5909750566893	708.6954648526078	75	127
708.5909750566893	708.6954648526078	63	127
708.7186621315193	708.8231746031746	64	127
708.7186621315193	708.8231746031746	76	127
708.8347845804989	708.9392517006803	75	127
708.8347845804989	708.9392517006803	63	127
708.9508843537415	709.0437641723356	64	127
708.9508843537415	709.0437641723356	76	127
709.0553741496599	709.2411337868481	48	127
709.2643537414966	709.4501133786848	65	127
709.2643537414966	709.4501133786848	77	127
709.4617233560091	709.6590929705216	48	127
709.6707029478458	709.8680725623583	74	127
709.6707029478458	709.8680725623583	62	127
709.8796825396826	709.9957823129251	48	127
710.0073922902494	710.1118820861678	60	127
710.0073922902494	710.1118820861678	72	127
710.1234920634921	710.2395918367347	59	127
710.1234920634921	710.2395918367347	71	127
710.251201814059	710.3556689342404	72	127
710.251201814059	710.3556689342404	60	127
710.3672789115647	710.4601814058957	59	127
710.3672789115647	710.4601814058957	71	127
710.4834013605442	710.5762585034014	72	127
710.4834013605442	710.5762585034014	60	127
710.5878911564625	710.7736281179139	48	127
710.7968707482993	710.9709977324263	77	127
710.7968707482993	710.9709977324263	65	127
710.9826077097506	711.1799773242631	48	127
711.1915873015873	711.3773469387755	62	127
711.1915873015873	711.3773469387755	74	127
711.400589569161	711.4934693877551	48	127
711.5050793650794	711.621179138322	72	127
711.5050793650794	711.621179138322	60	127
711.621179138322	711.667619047619	71	127
711.621179138322	711.667619047619	59	127
711.6792290249433	711.7836961451247	72	127
711.6792290249433	711.7836961451247	60	127
711.795306122449	711.88820861678	59	127
711.795306122449	711.88820861678	71	127
711.8998185941043	712.0275283446712	72	127
711.8998185941043	712.0275283446712	60	127
712.0391383219954	712.2481179138322	48	127
712.2597278911564	712.4687074829932	65	127
712.2597278911564	712.4687074829932	77	127
712.4803174603175	712.6544671201814	48	127
712.6660770975056	712.944716553288	62	127
712.6660770975056	712.944716553288	74	127
712.9563265306123	713.3510657596372	60	127
713.1072562358277	713.2233333333334	76	127
713.2465759637188	713.3510657596372	79	127
713.3626757369615	713.4903854875283	83	127
713.5019954648526	713.5832653061225	84	127
713.5948752834468	713.6993650793651	76	127
713.5948752834468	713.6993650793651	79	127
713.7109750566893	714.0708843537415	74	127
713.8619047619047	713.9547845804989	77	127
713.9663945578232	714.0708843537415	79	127
714.09410430839	714.2102040816327	81	127
714.221814058957	714.3611337868481	82	127
714.3727437641724	714.4656235827664	62	127
714.3727437641724	714.4656235827664	77	127
714.4772335600907	714.8371428571429	60	127
714.6281632653062	714.7210430839002	76	127
714.7326530612245	714.8371428571429	77	127
714.8487301587302	714.9648526077098	80	127
714.9880725623583	715.0925623582766	81	127
715.1041723356009	715.2551020408164	76	127
715.1041723356009	715.2551020408164	72	127
715.2666893424037	715.371201814059	58	127
715.371201814059	715.4640589569161	70	127
715.4756689342404	715.5453514739229	74	127
715.5801814058957	715.6730385487529	79	127
715.6846485260771	715.7891609977324	57	127
715.7891609977324	715.9633106575964	69	127
715.9749206349206	716.2071201814059	72	127
716.2187301587302	716.3696598639456	77	127
716.3812698412698	716.8456689342404	55	127
716.6366893424037	716.8456689342404	70	127
716.6366893424037	716.8456689342404	72	127
716.6366893424037	716.8456689342404	76	127
716.8572789115647	717.2636281179139	60	127
717.0430385487529	717.2636281179139	72	127
717.0430385487529	717.2636281179139	70	127
717.0430385487529	717.2636281179139	76	127
717.2868480725624	717.623537414966	67	127
717.4493877551021	717.623537414966	76	127
717.4493877551021	717.623537414966	72	127
717.4493877551021	717.623537414966	70	127
717.6351473922903	718.0066666666667	60	127
717.8325170068027	718.0066666666667	70	127
717.8325170068027	718.0066666666667	72	127
717.8325170068027	718.0066666666667	76	127
718.0182766439909	718.3549659863945	67	127
718.2040362811791	718.3549659863945	70	127
718.2040362811791	718.3549659863945	76	127
718.2040362811791	718.3549659863945	72	127
718.3781859410431	718.772925170068	60	127
718.5871655328798	718.772925170068	76	127
718.5871655328798	718.772925170068	70	127
718.5871655328798	718.772925170068	72	127
718.7845351473923	719.1908843537415	65	127
718.9586621315193	719.1908843537415	69	127
718.9586621315193	719.1908843537415	74	127
718.9586621315193	719.1908843537415	72	127
719.2024943310657	719.5507936507937	60	127
719.3650113378685	719.5507936507937	69	127
719.3650113378685	719.5507936507937	74	127
719.3650113378685	719.5507936507937	72	127
719.562380952381	719.9107029478458	64	127
719.7597505668934	719.9107029478458	67	127
719.7597505668934	719.9107029478458	72	127
719.9339229024944	720.3750793650794	60	127
720.1312925170068	720.3750793650794	67	127
720.1312925170068	720.3750793650794	72	127
720.3750793650794	720.7001814058957	64	127
720.5492517006803	720.7001814058957	72	127
720.5492517006803	720.7001814058957	67	127
720.71179138322	721.0833106575964	60	127
720.9207709750567	721.0833106575964	72	127
720.9207709750567	721.0833106575964	67	127
721.1065306122449	721.4432199546485	64	127
721.2690702947846	721.4432199546485	67	127
721.2690702947846	721.4432199546485	72	127
721.4548299319728	721.814716553288	60	127
721.640589569161	721.814716553288	72	127
721.640589569161	721.814716553288	67	127
721.8263265306123	722.2675283446712	66	127
722.0469387755102	722.2675283446712	74	127
722.0469387755102	722.2675283446712	69	127
722.0469387755102	722.2675283446712	72	127
722.2791383219954	722.5926077097506	60	127
722.4416780045351	722.5926077097506	72	127
722.4416780045351	722.5926077097506	69	127
722.4416780045351	722.5926077097506	74	127
722.6158276643991	722.9757369614513	67	127
722.7783673469388	722.9757369614513	72	127
722.7783673469388	722.9757369614513	76	127
722.7783673469388	722.9757369614513	70	127
722.9873469387755	723.405306122449	60	127
723.2079365079366	723.405306122449	70	127
723.2079365079366	723.405306122449	76	127
723.2079365079366	723.405306122449	72	127
723.4169160997733	723.7536054421769	66	127
723.6026757369615	723.7536054421769	74	127
723.6026757369615	723.7536054421769	69	127
723.6026757369615	723.7536054421769	72	127
723.7768253968254	724.1019047619047	60	127
723.9509750566893	724.1019047619047	69	127
723.9509750566893	724.1019047619047	74	127
723.9509750566893	724.1019047619047	72	127
724.113514739229	724.5430839002267	67	127
724.3457142857143	724.5430839002267	72	127
724.3457142857143	724.5430839002267	76	127
724.3457142857143	724.5430839002267	70	127
724.554693877551	724.8913605442177	60	127
724.728843537415	724.8913605442177	76	127
724.728843537415	724.8913605442177	72	127
724.728843537415	724.8913605442177	70	127
724.9029931972789	725.2396825396826	69	127
725.0771201814059	725.2396825396826	77	127
725.0771201814059	725.2396825396826	72	127
725.2512925170068	725.6692517006803	60	127
725.4254421768708	725.6692517006803	72	127
725.4254421768708	725.6692517006803	77	127
725.6808616780046	726.052380952381	70	127
725.8666213151928	726.052380952381	75	127
725.8666213151928	726.052380952381	72	127
725.8666213151928	726.052380952381	78	127
726.0639909297053	726.4355102040817	60	127
726.2265306122449	726.4355102040817	75	127
726.2265306122449	726.4355102040817	72	127
726.2265306122449	726.4355102040817	78	127
726.4587301587302	726.7954195011338	70	127
726.6328798185941	726.7954195011338	79	127
726.6328798185941	726.7954195011338	72	127
726.6328798185941	726.7954195011338	76	127
726.807029478458	727.2133786848073	60	127
727.0160090702948	727.2133786848073	76	127
727.0160090702948	727.2133786848073	72	127
727.0160090702948	727.2133786848073	79	127
727.2249886621315	727.5616780045351	62	127
727.3991383219955	727.5616780045351	79	127
727.3991383219955	727.5616780045351	72	127
727.5732879818594	727.9912471655329	70	127
727.7822675736961	727.9912471655329	79	127
727.7822675736961	727.9912471655329	72	127
728.0028571428571	728.3859863945578	64	127
728.2234467120181	728.3859863945578	80	127
728.2234467120181	728.3859863945578	72	127
728.3975963718821	728.7807256235827	70	127
728.6181859410431	728.7807256235827	72	127
728.6181859410431	728.7807256235827	80	127
728.7807256235827	729.2219047619047	65	127
729.0361451247165	729.2219047619047	81	127
729.0361451247165	729.2219047619047	72	127
729.2451247165533	729.58179138322	77	127
729.4192743764172	729.58179138322	81	127
729.5934013605442	729.9649433106576	65	127
729.7791609977324	729.9649433106576	81	127
729.9765532879819	730.3248526077098	77	127
730.1623129251701	730.3248526077098	81	127
730.336462585034	730.6847619047619	67	127
730.4990022675737	730.6847619047619	82	127
730.6963718820862	731.0678911564626	79	127
730.8821315192744	731.0678911564626	82	127
731.0795011337868	731.439410430839	69	127
731.2768707482993	731.439410430839	84	127
731.4510204081632	731.7877097505669	81	127
731.613560090703	731.7877097505669	84	127
731.8109297052155	732.1592290249433	70	127
731.9850793650794	732.1592290249433	86	127
732.1708390022676	732.5539682539683	82	127
732.3914285714286	732.5539682539683	86	127
732.5655782312925	732.8906575963719	67	127
732.7281179138322	732.8906575963719	82	127
732.9022675736961	733.2970068027211	79	127
733.0996371882086	733.2970068027211	82	127
733.3202267573696	733.6685034013606	69	127
733.5059863945578	733.6685034013606	84	127
733.6801133786848	734.040045351474	81	127
733.8542857142858	734.040045351474	84	127
734.0516553287982	734.4347845804989	70	127
734.2258049886622	734.4347845804989	86	127
734.4580045351474	734.8063038548753	82	127
734.6205442176871	734.8063038548753	86	127
734.8179138321996	735.0268934240363	60	127
735.0501133786848	735.2242630385488	72	127
735.0501133786848	735.2242630385488	82	127
735.0501133786848	735.2242630385488	79	127
735.235873015873	735.4332426303855	61	127
735.4448526077098	735.630612244898	79	127
735.4448526077098	735.630612244898	73	127
735.4448526077098	735.630612244898	82	127
735.6654421768708	735.8279818594104	60	127
735.8395918367347	736.0369614512472	79	127
735.8395918367347	736.0369614512472	82	127
735.8395918367347	736.0369614512472	72	127
736.0485714285714	736.2227210884354	61	127
736.2343310657596	736.4317006802721	82	127
736.2343310657596	736.4317006802721	73	127
736.2343310657596	736.4317006802721	79	127
736.4433106575964	736.7683900226757	60	127
736.605850340136	736.7683900226757	82	127
736.605850340136	736.7683900226757	79	127
736.78	737.2327891156463	72	127
737.0121995464852	737.2327891156463	79	127
737.0121995464852	737.2327891156463	82	127
737.2560090702948	737.6159183673469	60	127
737.4649886621315	737.6159183673469	79	127
737.4649886621315	737.6159183673469	82	127
737.6275283446712	738.1615646258504	72	127
737.9990476190476	738.1615646258504	79	127
737.9990476190476	738.1615646258504	82	127
738.1731746031746	738.6143764172335	65	127
738.4402267573696	738.6143764172335	76	127
738.4402267573696	738.6143764172335	84	127
738.4402267573696	738.6143764172335	82	127
738.6375963718821	739.0555555555555	72	127
738.8697959183673	739.0555555555555	82	127
738.8697959183673	739.0555555555555	76	127
738.8697959183673	739.0555555555555	84	127
739.0671655328798	739.4502947845805	60	127
739.2877551020408	739.4502947845805	82	127
739.2877551020408	739.4502947845805	84	127
739.2877551020408	739.4502947845805	76	127
739.4619047619047	740.1004535147392	72	127
739.9263038548753	740.1004535147392	76	127
739.9263038548753	740.1004535147392	84	127
739.9263038548753	740.1004535147392	82	127
740.1120634920635	740.7157823129252	77	127
740.1120634920635	741.5284807256236	65	127
740.1120634920635	740.7157823129252	84	127
740.1120634920635	740.7157823129252	81	127
740.7273922902494	741.0756916099773	60	127
741.0989115646258	741.3078911564626	62	127
741.3195011337868	741.5284807256236	60	127
741.5400907029479	741.6561678004535	59	127
741.6678004535147	741.9580498866213	60	127
741.9812698412699	742.1089795918367	62	127
742.120589569161	742.2250793650794	64	127
742.2366893424037	742.5153287981859	65	127
742.5269387755102	742.9216780045351	67	127
742.9681179138322	744.372925170068	53	127
742.9681179138322	744.372925170068	65	127
742.9681179138322	744.372925170068	57	127
742.9681179138322	745.4526530612245	60	127
742.9681179138322	744.372925170068	41	127
742.9681179138322	744.372925170068	69	127
742.9681179138322	745.4526530612245	48	127
744.372925170068	745.4526530612245	55	127
744.372925170068	745.4526530612245	64	127
744.372925170068	745.4526530612245	43	127
744.372925170068	745.4526530612245	67	127
744.372925170068	745.4526530612245	58	127
745.6732426303855	749.0749659863945	57	127
745.6732426303855	749.0749659863945	45	127
745.6732426303855	747.3334693877551	65	127
745.6732426303855	749.0749659863945	53	127
745.6732426303855	749.0749659863945	60	127
748.738276643991	749.4580952380952	64	127
749.4813151927438	750.5610430839002	58	127
749.4813151927438	750.5610430839002	46	127
749.4813151927438	750.5610430839002	62	127
749.4813151927438	750.5610430839002	55	127
750.5842630385488	754.4736054421769	74	127
752.1980498866213	754.2297959183674	38	127
754.2414058956916	755.2398639455782	57	127
754.2414058956916	755.2398639455782	60	127
754.2414058956916	755.2398639455782	66	127
754.4968253968254	754.740612244898	74	127
754.7522448979591	754.9844444444444	75	127
755.007664399093	755.2398639455782	74	127
755.2630839002268	755.9016326530613	77	127
755.9248526077098	756.55179138322	75	127
756.5633786848073	757.2019501133786	74	127
757.2251700680272	757.8521088435374	72	127
757.8753287981859	758.4674376417233	70	127
758.4906575963719	759.1059863945578	69	127
759.1292063492064	761.7298412698412	72	127
760.1160544217687	761.451201814059	62	127
761.4744217687074	761.9852607709751	66	127
761.7530612244898	763.5177777777777	43	127
761.7530612244898	763.5177777777777	58	127
761.8343310657597	763.5177777777777	62	127
761.8343310657597	763.5177777777777	50	127
761.9156009070294	763.5177777777777	67	127
761.9156009070294	763.5177777777777	55	127
761.9968707482993	763.5177777777777	70	127
765.8978231292517	767.1052607709751	58	127
765.8978231292517	767.1052607709751	31	127
765.8978231292517	767.1052607709751	62	127
765.8978231292517	767.1052607709751	43	127
765.8978231292517	767.1052607709751	55	127
767.3606802721089	768.602947845805	54	127
767.3606802721089	768.602947845805	60	127
767.3606802721089	768.602947845805	62	127
767.3606802721089	768.602947845805	45	127
767.3606802721089	768.602947845805	33	127
768.9164172335601	771.9698412698413	34	127
768.9164172335601	771.9698412698413	46	127
768.9164172335601	771.9698412698413	62	127
768.9164172335601	771.9698412698413	55	127
772.3413605442177	774.1525170068027	67	127
772.3413605442177	774.1525170068027	62	127
772.3413605442177	774.1525170068027	55	127
772.3413605442177	774.1525170068027	47	127
772.3413605442177	774.1525170068027	35	127
774.4892063492064	774.5588662131519	31	127
774.5704761904761	774.6401360544218	43	127
774.651746031746	774.7214058956916	47	127
774.7446258503402	774.8142857142857	50	127
774.82589569161	776.0913832199547	55	127
774.9071655328798	776.0913832199547	59	127
774.9884353741496	776.0913832199547	62	127
775.092925170068	776.0913832199547	65	127
779.23768707483	779.4698866213151	60	127
779.23768707483	779.4698866213151	64	127
779.23768707483	779.4698866213151	36	127
779.23768707483	779.4698866213151	55	127
779.23768707483	779.4698866213151	48	127
779.4814965986394	779.8181859410431	48	127
779.4814965986394	779.8181859410431	60	127
779.8414058956917	780.0968253968254	48	127
779.8414058956917	780.0968253968254	60	127
780.1084353741496	780.3754648526077	47	127
780.1084353741496	780.3754648526077	59	127
780.3754648526077	780.5380045351474	60	127
780.3754648526077	780.5380045351474	48	127
780.6192743764173	780.7818140589569	60	127
780.6192743764173	780.7818140589569	48	127
780.8746938775511	781.1185034013605	59	127
780.8746938775511	781.1185034013605	47	127
781.1185034013605	781.269433106576	48	127
781.1185034013605	781.269433106576	60	127
781.2926530612245	781.4203628117914	60	127
781.2926530612245	781.4203628117914	48	127
781.5016326530613	781.6641723356009	45	127
781.5016326530613	781.6641723356009	57	127
781.710612244898	781.8034920634921	48	127
781.710612244898	781.8034920634921	60	127
781.884761904762	782.0356916099773	65	127
781.884761904762	782.0356916099773	53	127
782.1169614512472	782.2562811791383	55	127
782.1169614512472	782.2562811791383	43	127
782.3375510204081	782.4536507936508	58	127
782.3375510204081	782.4536507936508	46	127
782.5117006802722	782.6742403628118	64	127
782.5117006802722	782.6742403628118	52	127
782.7671201814059	782.8832199546486	43	127
782.7671201814059	782.8832199546486	55	127
782.9644897959183	783.1154195011338	58	127
782.9644897959183	783.1154195011338	46	127
783.1734693877551	783.3360090702948	64	127
783.1734693877551	783.3360090702948	52	127
783.4056689342403	783.4521088435374	55	127
783.4056689342403	783.4521088435374	43	127
783.5449886621316	783.6726984126984	58	127
783.5449886621316	783.6726984126984	46	127
783.7307482993198	783.8700680272109	64	127
783.7307482993198	783.8700680272109	52	127
783.9513378684808	784.0326077097506	41	127
783.9513378684808	784.0326077097506	53	127
784.1138775510204	784.229977324263	58	127
784.1138775510204	784.229977324263	46	127
784.3228571428572	784.4853968253968	62	127
784.3228571428572	784.4853968253968	50	127
784.5550566893425	784.6479365079365	52	127
784.5550566893425	784.6479365079365	40	127
784.7292063492064	784.845306122449	46	127
784.7292063492064	784.845306122449	58	127
784.9265759637188	785.0891156462585	48	127
784.9265759637188	785.0891156462585	60	127
785.1703854875284	785.2632653061224	40	127
785.1703854875284	785.2632653061224	52	127
785.3445351473923	785.5186848072562	46	127
785.3445351473923	785.5186848072562	58	127
785.5651247165533	785.6928344671202	60	127
785.5651247165533	785.6928344671202	48	127
785.7857142857143	785.8669841269841	40	127
785.7857142857143	785.8669841269841	52	127
785.948253968254	786.0759637188208	46	127
785.948253968254	786.0759637188208	58	127
786.168843537415	786.2965532879819	60	127
786.168843537415	786.2965532879819	48	127
786.3778231292517	786.4474829931972	41	127
786.3778231292517	786.4474829931972	53	127
786.5403628117914	786.656462585034	46	127
786.5403628117914	786.656462585034	58	127
786.7145124716553	786.8654421768707	50	127
786.7145124716553	786.8654421768707	62	127
786.9467120181406	787.1092517006803	43	127
786.9467120181406	787.1092517006803	55	127
787.1905215419501	787.3066213151927	58	127
787.1905215419501	787.3066213151927	46	127
787.3878911564626	787.4923809523809	52	127
787.3878911564626	787.4923809523809	64	127
787.5736507936508	787.6200907029479	41	127
787.5736507936508	787.6200907029479	53	127
787.7013605442177	787.8639002267573	46	127
787.7013605442177	787.8639002267573	58	127
787.9335600907029	788.0844897959183	62	127
787.9335600907029	788.0844897959183	50	127
788.1425396825397	788.2702494331065	43	127
788.1425396825397	788.2702494331065	55	127
788.3515192743764	788.467619047619	46	127
788.3515192743764	788.467619047619	58	127
788.5488888888889	788.6649886621315	52	127
788.5488888888889	788.6649886621315	64	127
788.7578684807256	788.862358276644	45	127
788.7578684807256	788.862358276644	57	127
788.9436281179138	789.0597278911565	48	127
788.9436281179138	789.0597278911565	60	127
789.1409977324263	789.2919274376417	53	127
789.1409977324263	789.2919274376417	65	127
789.3731972789116	789.5357369614512	45	127
789.3731972789116	789.5357369614512	57	127
789.6286167800454	789.744716553288	63	127
789.6286167800454	789.744716553288	48	127
789.8143764172336	789.9072562358276	54	127
789.8143764172336	789.9072562358276	66	127
790.0001360544218	790.1162358276644	57	127
790.0001360544218	790.1162358276644	45	127
790.1742857142857	790.3019954648526	63	127
790.1742857142857	790.3019954648526	48	127
790.3948752834467	790.5225850340136	54	127
790.3948752834467	790.5225850340136	66	127
790.6038548752834	790.7547845804988	46	127
790.6038548752834	790.7547845804988	58	127
790.847664399093	790.9869841269841	64	127
790.847664399093	790.9869841269841	48	127
791.068253968254	791.2307936507937	66	127
791.068253968254	791.2307936507937	55	127
791.3120634920635	791.4629931972789	58	127
791.3120634920635	791.4629931972789	40	127
791.555873015873	791.730022675737	64	127
791.555873015873	791.730022675737	48	127
791.8112925170068	791.997052154195	68	127
791.8112925170068	791.997052154195	52	127
792.0899319727891	792.2524716553288	57	127
792.0899319727891	792.2524716553288	41	127
792.3453514739228	792.5078911564626	53	127
792.3453514739228	792.5078911564626	69	127
792.5775510204081	792.7284807256236	69	127
792.5775510204081	792.7284807256236	53	127
792.8097505668934	792.9722902494331	41	127
792.8097505668934	792.9722902494331	57	127
793.0651700680272	793.2160997732426	69	127
793.0651700680272	793.2160997732426	53	127
793.2857596371882	793.4018594104308	69	127
793.2857596371882	793.4018594104308	53	127
793.4831292517007	793.6340589569161	41	127
793.4831292517007	793.6340589569161	57	127
793.715328798186	793.8778684807256	53	127
793.715328798186	793.8778684807256	69	127
793.9707482993198	794.0868480725624	69	127
793.9707482993198	794.0868480725624	53	127
794.1448979591837	794.3074376417234	53	127
794.1448979591837	794.3074376417234	69	127
794.4003174603174	794.5512471655329	70	127
794.4003174603174	794.5512471655329	55	127
794.6325170068027	794.8298866213152	57	127
794.6325170068027	794.8298866213152	72	127
794.911156462585	795.6309750566893	74	127
794.911156462585	795.0736961451247	46	127
795.1549659863946	795.3175056689342	58	127
795.3987755102041	795.5613151927438	58	127
795.6541950113378	796.7919727891157	82	127
795.6541950113378	795.8167346938776	43	127
795.8980045351474	796.0024943310658	55	127
796.0837641723356	796.2230839002268	55	127
796.3043537414966	796.4320634920635	43	127
796.5249433106576	796.7107029478458	55	127
796.7919727891157	796.9545124716553	55	127
797.0473922902494	797.1634920634921	55	127
797.0473922902494	797.5466213151927	81	127
797.244761904762	797.4073015873016	57	127
797.5001814058957	797.6627210884353	58	127
797.558231292517	797.7323809523809	79	127
797.7439909297052	798.6263492063492	48	127
797.7439909297052	798.0226303854876	77	127
798.0342403628118	798.1387301587301	76	127
798.1619501133787	798.4057596371882	60	127
798.4173696145125	798.92820861678	58	127
798.4173696145125	798.92820861678	61	127
798.4173696145125	798.92820861678	67	127
798.6379591836735	799.4390476190476	48	127
798.9398185941043	799.2068480725624	67	127
798.9398185941043	799.2068480725624	61	127
798.9398185941043	799.2068480725624	58	127
799.2184580498866	799.7060770975056	58	127
799.2184580498866	799.7060770975056	67	127
799.2184580498866	799.7060770975056	61	127
799.4622675736962	800.205306122449	48	127
799.7176870748299	799.9498866213152	67	127
799.7176870748299	799.9498866213152	60	127
799.7176870748299	799.9498866213152	58	127
799.9731065759637	800.4607256235828	60	127
799.9731065759637	800.4607256235828	58	127
799.9731065759637	800.4607256235828	67	127
800.2169160997732	801.1108843537415	36	127
800.2169160997732	801.1108843537415	48	127
800.4839455782313	800.739365079365	64	127
800.4839455782313	800.739365079365	58	127
800.4839455782313	800.739365079365	55	127
800.4839455782313	800.739365079365	60	127
800.7509750566893	801.1108843537415	64	127
800.7509750566893	801.1108843537415	60	127
800.7509750566893	801.1108843537415	55	127
800.7509750566893	801.1108843537415	58	127
801.1341043083901	801.92358276644	65	127
801.1341043083901	801.308253968254	41	127
801.1341043083901	801.308253968254	29	127
801.1341043083901	801.92358276644	60	127
801.3198639455783	801.4940136054422	48	127
801.5056235827665	801.7029931972789	53	127
801.7146031746032	801.92358276644	57	127
801.9351927437642	802.1906122448979	60	127
802.2022222222222	802.4692517006803	57	127
802.4808616780045	802.7362811791384	53	127
802.7478911564626	802.9800907029478	48	127
802.9917006802721	803.2355102040816	53	127
803.2471201814059	803.560589569161	57	127
803.5838095238096	804.3848979591837	77	127
803.5838095238096	804.3848979591837	89	127
803.5838095238096	803.8740589569161	60	127
803.8856689342404	804.1294784580499	57	127
804.1526984126984	804.3848979591837	53	127
804.396507936508	804.6054875283447	48	127
804.396507936508	805.1163265306122	84	127
804.396507936508	805.1163265306122	72	127
804.6170975056689	804.8260770975056	53	127
804.8609070294784	805.1163265306122	57	127
805.1395464852608	805.859365079365	81	127
805.1395464852608	805.859365079365	69	127
805.1395464852608	805.3485260770975	60	127
805.3601360544218	805.6155555555556	57	127
805.638775510204	805.859365079365	53	127
805.8709750566893	806.6604535147392	77	127
805.8709750566893	806.1380045351474	48	127
805.8709750566893	806.6604535147392	65	127
806.1496145124717	806.4050340136055	53	127
806.4166439909297	806.6604535147392	57	127
806.6720634920634	807.4383219954649	60	127
806.6720634920634	806.9274829931973	48	127
806.6720634920634	807.4383219954649	72	127
806.9390929705215	807.1829024943311	53	127
807.1945124716553	807.4383219954649	57	127
807.4615419501134	807.6589115646259	41	127
807.4615419501134	807.6589115646259	29	127
807.4615419501134	808.2974603174603	58	127
807.4615419501134	808.2974603174603	70	127
807.6821315192743	807.8911111111111	48	127
807.9143310657596	808.1000907029478	52	127
808.1117006802721	808.2974603174603	55	127
808.3090702947845	808.5412698412698	58	127
808.5644897959183	808.8082993197279	55	127
808.8199092970522	809.0404988662132	52	127
809.0637188208617	809.2726984126984	48	127
809.2843083900227	809.516507936508	52	127
809.5397278911564	809.7719274376417	55	127
809.783537414966	810.004126984127	58	127
809.783537414966	810.5265759637189	64	127
810.0273469387755	810.2479365079365	55	127
810.2595464852608	810.5149659863946	52	127
810.5265759637189	810.758775510204	48	127
810.5265759637189	811.3044444444445	67	127
810.7703854875283	811.0374149659864	52	127
811.0490249433107	811.2812244897959	55	127
811.3044444444445	811.5366439909297	58	127
811.3044444444445	812.035873015873	70	127
811.548253968254	811.7688435374149	55	127
811.7920634920634	812.0242630385487	52	127
812.035873015873	812.7905215419502	76	127
812.035873015873	812.256462585034	48	127
812.2796825396825	812.5118820861678	55	127
812.5234920634921	812.7673015873016	58	127
812.7905215419502	813.0459410430839	48	127
812.7905215419502	813.5451700680272	79	127
813.0575510204081	813.2897505668934	55	127
813.312970521542	813.5451700680272	58	127
813.5567800453515	814.3462585034014	77	127
813.5567800453515	813.7309297052154	41	127
813.5567800453515	813.7309297052154	29	127
813.7425396825397	813.9282993197279	48	127
813.9515192743764	814.1372789115646	53	127
814.1604988662132	814.3462585034014	57	127
814.3578684807256	814.5900680272109	60	127
814.6016780045352	814.7990476190477	57	127
814.8106575963719	815.0428571428571	53	127
815.0660770975056	815.2982766439909	48	127
815.3098866213152	815.5420861678004	53	127
815.565306122449	815.7975056689343	57	127
815.8091156462585	816.0297052154195	60	127
816.0529251700681	816.2851247165532	57	127
816.0529251700681	816.2851247165532	89	127
816.2967346938775	816.5173242630385	84	127
816.2967346938775	816.5173242630385	53	127
816.5289342403628	816.7611337868481	48	127
816.7727437641723	816.9933333333333	84	127
816.7727437641723	816.9933333333333	53	127
817.0165532879819	817.2487528344672	81	127
817.0165532879819	817.2487528344672	57	127
817.2603628117914	817.4809523809524	60	127
817.4925623582767	817.6434920634921	57	127
817.4925623582767	817.6434920634921	81	127
817.6551020408164	817.8989115646259	53	127
817.6551020408164	817.8989115646259	77	127
817.9105215419501	818.1195011337868	48	127
818.1311111111111	818.3284807256235	77	127
818.1311111111111	818.3284807256235	53	127
818.3400907029478	818.5490702947845	72	127
818.3400907029478	818.5490702947845	57	127
818.5722902494331	818.8044897959184	48	127
818.8044897959184	819.0366893424036	53	127
818.8044897959184	819.0366893424036	72	127
819.0599092970522	819.3037188208617	69	127
819.0599092970522	819.3037188208617	57	127
819.315328798186	819.5010884353742	29	127
819.315328798186	820.1628571428571	70	127
819.315328798186	819.5010884353742	41	127
819.535918367347	819.7913378684807	48	127
819.802947845805	819.9770975056689	52	127
820.0003174603174	820.1628571428571	55	127
820.1860770975056	820.3950566893424	58	127
820.4066666666666	820.6388662131519	55	127
820.6620861678005	820.8942857142857	52	127
820.90589569161	821.126485260771	48	127
821.1497052154195	821.3819047619047	52	127
821.393514739229	821.6373242630385	55	127
821.6489342403628	821.8811337868481	58	127
821.8927437641723	822.1365532879819	55	127
821.8927437641723	822.1365532879819	64	127
822.1481632653062	822.3803628117914	52	127
822.1481632653062	822.3803628117914	67	127
822.4035827664399	822.6357823129251	48	127
822.6473922902494	822.8331519274376	52	127
822.6473922902494	822.8331519274376	67	127
822.8563718820861	823.0769614512471	55	127
822.8563718820861	823.0769614512471	70	127
823.0885714285714	823.2975510204082	58	127
823.3207709750567	823.5297505668934	55	127
823.3207709750567	823.5297505668934	70	127
823.5413605442177	823.7619501133787	52	127
823.5413605442177	823.7619501133787	76	127
823.7851700680272	824.0173696145125	48	127
824.0289795918368	824.261179138322	55	127
824.0289795918368	824.261179138322	76	127
824.2960090702948	824.5514285714286	79	127
824.2960090702948	824.5514285714286	58	127
824.5630385487528	824.7952380952381	48	127
824.8184580498867	825.0738775510204	79	127
824.8184580498867	825.0738775510204	55	127
825.0854875283446	825.3525170068027	82	127
825.0854875283446	825.3525170068027	58	127
825.364126984127	828.1969614512471	53	127
825.364126984127	825.5963265306123	81	127
825.364126984127	828.1969614512471	41	127
825.6079365079365	825.8517460317461	60	127
825.8633560090703	826.1768253968254	65	127
826.2000453514739	826.4554648526077	69	127
826.467074829932	826.7224943310657	65	127
826.7457142857143	826.9779138321995	60	127
826.9895238095238	827.2217233560091	57	127
827.2449433106576	827.4771428571429	60	127
827.4887528344672	827.7906122448979	65	127
827.8138321995465	828.0460317460318	69	127
828.057641723356	828.3014512471656	65	127
828.3246712018141	828.6265306122449	60	127
828.6381405895692	828.9167800453515	56	127
828.6381405895692	831.3432653061225	38	127
828.6381405895692	831.3432653061225	50	127
828.94	829.1721995464852	59	127
829.1838095238095	829.4392290249433	65	127
829.4508390022676	829.6714285714286	68	127
829.6830385487528	829.9268480725624	65	127
829.9384580498867	830.1706575963719	59	127
830.1938775510204	830.4260770975056	56	127
830.4376870748299	830.6698866213152	59	127
830.6931065759637	830.925306122449	65	127
830.9369160997733	831.1923356009071	68	127
831.2155555555555	831.459365079365	65	127
831.4709750566893	831.7031746031746	59	127
831.7263945578231	834.327029478458	35	127
831.7263945578231	831.981814058957	56	127
831.7263945578231	834.327029478458	47	127
831.9934240362812	832.2256235827664	62	127
832.2488435374149	832.4926530612245	65	127
832.5042630385487	832.7248526077097	68	127
832.7480725623583	832.9802721088436	65	127
832.9918820861678	833.2240816326531	62	127
833.2356916099774	833.4678911564625	56	127
833.4795011337868	833.7000907029478	62	127
833.7117006802721	833.9206802721088	65	127
833.9322902494331	834.1877097505669	68	127
834.1993197278912	834.4315192743765	65	127
834.454739229025	834.8726984126985	62	127
834.8843083900226	837.7055328798186	32	127
834.8843083900226	835.1397278911564	59	127
834.8843083900226	837.7055328798186	44	127
835.162947845805	835.3951473922903	62	127
835.4067573696145	835.6389569160998	65	127
835.6621768707483	835.9292063492063	71	127
835.9408163265306	836.1730158730159	65	127
836.1962358276644	836.4284353741497	62	127
836.4400453514739	836.6838548752835	59	127
836.707074829932	836.9392743764172	62	127
836.9508843537415	837.2179138321995	65	127
837.2295238095238	837.5662131519274	71	127
837.5778231292517	837.8216326530612	65	127
837.8332426303855	838.1234920634921	62	127
838.1351020408164	839.8533786848072	45	127
838.1351020408164	838.4601814058957	60	127
838.1351020408164	839.8533786848072	33	127
838.47179138322	838.7272108843538	65	127
838.7504308390023	839.005850340136	72	127
839.0174603174603	839.3193197278912	60	127
839.3425396825397	839.574739229025	65	127
839.5863492063492	839.8301587301587	69	127
839.8533786848072	841.1304761904762	34	127
839.8533786848072	841.1304761904762	46	127
839.8533786848072	840.0855782312925	58	127
840.0971882086168	840.3526077097506	62	127
840.3758276643991	840.6080272108843	69	127
840.6196371882086	840.8518367346938	58	127
840.8750566893424	841.1188662131519	62	127
841.1304761904762	841.3742857142857	67	127
841.38589569161	841.6413151927437	64	127
841.38589569161	843.2899319727891	48	127
841.38589569161	843.2899319727891	36	127
841.652925170068	842.0592743764172	65	127
842.0708843537415	842.3030839002267	60	127
842.314693877551	842.5585034013606	57	127
842.5701133786848	842.7790929705216	60	127
842.8023129251701	843.0345124716554	65	127
843.0461224489796	843.2899319727891	58	127
843.3131519274376	843.5337414965986	46	127
843.3131519274376	843.5337414965986	60	127
843.5453514739229	843.8356009070295	43	127
843.5453514739229	843.8356009070295	64	127
843.8704308390023	844.1374603174603	40	127
843.8704308390023	844.1374603174603	58	127
844.1490702947846	844.4277097505669	36	127
844.1490702947846	844.4277097505669	60	127
844.4625396825397	844.7063492063492	58	127
844.4625396825397	844.7063492063492	40	127
844.7179591836734	845.5190476190476	41	127
844.7179591836734	845.5190476190476	57	127
844.7179591836734	845.5190476190476	29	127
846.3201360544218	847.5856235827664	69	127
846.3201360544218	847.5856235827664	77	127
846.3201360544218	847.5856235827664	72	127
846.3201360544218	847.0515646258503	65	127
846.3201360544218	847.5856235827664	81	127
847.9107029478458	848.6073015873015	38	127
847.9107029478458	850.4532879818594	74	127
847.9107029478458	850.4532879818594	71	127
847.9107029478458	850.4532879818594	80	127
847.9107029478458	850.4532879818594	83	127
847.9107029478458	850.4532879818594	77	127
848.9672108843538	849.025260770975	50	127
849.025260770975	849.0833106575964	53	127
849.0833106575964	849.152970521542	56	127
849.152970521542	849.2110204081632	59	127
849.2110204081632	849.2922902494331	62	127
849.2922902494331	849.3503401360545	65	127
849.3503401360545	850.0469387755102	68	127
850.8480272108843	851.5214058956916	35	127
850.8480272108843	853.4022222222222	80	127
850.8480272108843	853.4022222222222	77	127
850.8480272108843	853.4022222222222	86	127
850.8480272108843	853.4022222222222	74	127
851.7187755102041	851.800045351474	47	127
851.8116553287982	851.8813151927437	50	127
851.892925170068	851.9393650793651	53	127
851.9509750566893	851.9974149659864	56	127
852.020634920635	852.0670748299319	59	127
852.0786848072562	852.1367346938775	62	127
852.1831746031746	852.2528344671202	65	127
852.2644444444444	852.3108843537415	68	127
852.3224943310657	853.0423129251701	71	127
853.7969614512472	854.586439909297	32	127
853.7969614512472	855.9099773242631	86	127
853.7969614512472	855.9099773242631	83	127
853.7969614512472	855.9099773242631	89	127
853.7969614512472	855.9099773242631	77	127
854.6909297052155	854.8302494331066	44	127
854.8418594104309	854.8882993197279	47	127
854.9115192743765	854.9579591836734	50	127
854.9695691609977	855.0043990929705	53	127
855.0160090702948	855.0624489795919	56	127
855.0856689342404	855.1088888888889	59	127
855.1204988662131	855.1669387755102	62	127
855.1901587301587	855.2365986394558	65	127
855.2482086167801	855.2830385487529	68	127
855.2946485260771	855.3410884353741	71	127
855.3643083900226	856.1653968253968	74	127
856.177006802721	856.9897052154195	77	127
856.177006802721	856.9897052154195	89	127
857.0013151927437	858.3829024943311	33	127
857.0013151927437	858.3829024943311	45	127
857.0013151927437	857.848843537415	77	127
857.0013151927437	857.848843537415	89	127
857.848843537415	859.4974603174603	84	127
857.848843537415	859.4974603174603	72	127
858.6847619047619	860.0431292517006	46	127
858.6847619047619	860.0431292517006	34	127
859.4974603174603	860.1243990929705	74	127
859.4974603174603	860.1243990929705	86	127
860.1243990929705	860.4030385487529	70	127
860.1243990929705	860.4030385487529	82	127
860.4262585034014	860.7513378684807	36	127
860.4262585034014	860.7513378684807	48	127
860.4262585034014	862.6437641723356	81	127
860.4262585034014	862.6437641723356	69	127
860.7861678004535	861.0183673469388	60	127
861.0299773242631	861.2737868480725	59	127
861.2853968253968	861.5175963718821	60	127
861.5292063492063	861.7962358276644	57	127
861.8078458049887	862.1097052154195	53	127
862.1213151927437	862.3767346938776	48	127
862.3883446712018	862.6205442176871	49	127
862.6437641723356	862.8875736961451	48	127
862.8991836734693	863.7002721088436	70	127
862.8991836734693	863.3868027210884	47	127
863.410022675737	863.6422222222222	48	127
863.6538321995465	863.8976417233561	48	127
863.723492063492	863.8976417233561	67	127
863.9092517006802	863.9673015873016	67	127
863.9092517006802	864.6987301587302	48	127
863.9905215419501	864.07179138322	69	127
864.0950113378685	864.1762811791383	67	127
864.1878911564626	864.2691609977325	69	127
864.2807709750567	864.3968707482993	67	127
864.4084807256236	864.4897505668935	69	127
864.5013605442177	864.5826303854875	67	127
864.5942403628118	864.6987301587302	69	127
864.7103401360545	864.8032199546485	67	127
864.8148299319728	864.8960997732427	69	127
864.9077097505669	864.9889795918367	67	127
865.0354195011338	865.1050793650794	69	127
865.128299319728	865.1979591836734	67	127
865.221179138322	865.2908390022676	69	127
865.3140589569161	865.3837188208616	67	127
865.4069387755102	865.4882086167801	69	127
865.4998185941043	865.5810884353741	67	127
865.5926984126984	865.6739682539683	69	127
865.6855782312925	865.8016780045351	67	127
865.8132879818594	865.8945578231293	69	127
865.9061678004535	865.9990476190476	67	127
866.0106575963719	866.1383673469388	69	127
866.1499773242631	866.2660770975057	67	127
866.2776870748299	866.3589569160998	48	127
866.2776870748299	866.3589569160998	69	127
866.370566893424	866.4402267573696	67	127
866.370566893424	866.4286167800453	50	127
866.4402267573696	866.4750566893424	52	127
866.4634467120181	866.5331065759638	69	127
866.4866666666667	866.5331065759638	53	127
866.5563265306123	866.6259863945578	67	127
866.5563265306123	866.6027664399093	55	127
866.6143764172335	866.6724263038549	57	127
866.6608163265306	866.7304761904762	69	127
866.6840362811791	866.7304761904762	58	127
866.7536961451248	866.8349659863945	67	127
866.7536961451248	866.8001360544217	60	127
866.811746031746	866.8581859410431	62	127
866.8465759637188	866.9278458049887	69	127
866.8814058956916	866.9278458049887	64	127
866.939455782313	866.9858956916099	65	127
866.9975056689342	867.0207256235827	67	127
867.0671655328798	867.1136054421769	69	127
867.1252154195012	867.2064852607709	79	127
867.1252154195012	867.8566439909297	70	127
867.2180952380952	867.3109750566894	81	127
867.3225850340136	867.4038548752834	79	127
867.4154648526077	867.4967346938776	81	127
867.5083446712018	867.5896145124716	79	127
867.5896145124716	867.6708843537415	81	127
867.69410430839	867.7637641723356	79	127
867.7869841269842	867.8566439909297	81	127
867.8798639455782	867.9611337868481	79	127
867.9843537414966	868.0772335600907	81	127
868.1004535147392	868.2049433106575	79	127
868.2629931972789	868.3442630385488	81	127
868.355873015873	868.4139229024943	60	127
868.355873015873	868.4371428571428	79	127
868.4139229024943	868.4835827664399	62	127
868.4487528344671	868.5532426303855	81	127
868.4835827664399	868.5648526077098	64	127
868.5648526077098	868.6345124716553	65	127
868.5648526077098	868.6461224489796	79	127
868.6345124716553	868.6925623582766	67	127
868.6577324263038	868.7273922902494	81	127
868.6925623582766	868.7390022675737	69	127
868.7390022675737	869.2266213151927	70	127
868.7390022675737	868.8202721088435	79	127
868.8318820861678	869.0176417233561	81	127
869.0292517006802	869.1221315192744	79	127
869.1453514739229	869.2266213151927	81	127
869.2498412698412	869.3078911564626	60	127
869.2498412698412	869.3195011337868	79	127
869.3078911564626	869.3659410430839	62	127
869.3427210884354	869.412380952381	81	127
869.3659410430839	869.4356009070294	64	127
869.4356009070294	869.5284807256236	79	127
869.4356009070294	869.5168707482993	65	127
869.5168707482993	869.5749206349207	67	127
869.5517006802721	869.6213605442177	81	127
869.5749206349207	869.632970521542	69	127
869.632970521542	869.7722902494331	79	127
869.632970521542	870.0509297052154	70	127
869.7839002267574	869.8651700680272	81	127
869.8767800453514	869.9580498866213	79	127
869.9696598639456	870.0509297052154	81	127
870.0625396825396	870.1438095238095	79	127
870.0625396825396	870.1321995464853	60	127
870.1321995464853	870.1902494331066	62	127
870.1554195011338	870.2366893424037	81	127
870.1902494331066	870.2482993197278	64	127
870.2482993197278	870.3179591836735	65	127
870.2482993197278	870.3295691609977	79	127
870.3179591836735	870.3876190476191	67	127
870.341179138322	870.4340589569161	81	127
870.3876190476191	870.4340589569161	69	127
870.4456689342404	874.1608616780045	70	127
870.4456689342404	874.1608616780045	60	127
870.4456689342404	870.561768707483	79	127
870.5849886621315	870.6894784580498	81	127
870.7126984126984	870.782358276644	79	127
870.8055782312925	870.875238095238	81	127
870.8984580498866	870.9797278911565	79	127
870.9913378684807	871.0726077097505	81	127
871.0842176870748	871.1654875283447	79	127
871.1770975056689	871.2583673469388	81	127
871.269977324263	871.3512471655329	79	127
871.3628571428571	871.618276643991	81	127
871.6298866213152	871.7343764172335	79	127
871.7459863945578	871.8272562358277	81	127
871.838866213152	871.931746031746	79	127
871.9433560090703	872.0362358276644	81	127
872.059455782313	872.2336054421769	79	127
872.2568253968254	872.3380952380952	81	127
872.3613151927437	872.4658049886622	80	127
872.5006349206349	872.6863945578232	81	127
872.7096145124716	872.7908843537415	80	127
872.8024943310658	872.8953741496599	81	127
872.9069841269841	873.0579138321996	80	127
873.0695238095238	873.1507936507936	81	127
873.1624036281179	873.2668934240363	80	127
873.3365532879818	873.4410430839002	81	127
873.4526530612245	873.6268027210884	80	127
873.6384126984127	873.8590022675737	81	127
873.870612244898	874.0331519274376	80	127
874.0563718820862	874.137641723356	81	127
874.1608616780045	874.3234013605443	80	127
874.3466213151927	874.4395011337868	81	127
874.4627210884354	874.8806802721089	80	127
874.9155102040817	875.0083900226757	81	127
875.0316099773243	877.6438548752834	81	127
876.0532879818594	877.3768253968254	53	127
877.6438548752834	878.2011337868481	55	127
877.6438548752834	878.3868934240363	77	127
878.2127437641724	878.3868934240363	57	127
878.3985034013606	879.3969614512472	74	127
878.3985034013606	879.3969614512472	58	127
879.4085714285715	880.9991383219955	31	127
879.4085714285715	880.9991383219955	43	127
879.4085714285715	880.9991383219955	58	127
880.9991383219955	881.6609070294785	45	127
880.9991383219955	881.6609070294785	33	127
880.9991383219955	881.6609070294785	60	127
881.6609070294785	881.9279365079365	34	127
881.6609070294785	881.9279365079365	46	127
881.6609070294785	881.9279365079365	62	127
881.951156462585	882.7754648526077	48	127
881.951156462585	882.7754648526077	55	127
881.951156462585	882.7754648526077	36	127
882.787074829932	884.377641723356	67	127
882.787074829932	884.377641723356	70	127
882.787074829932	884.377641723356	60	127
882.787074829932	884.1918820861678	76	127
884.1918820861678	884.3428117913833	77	127
884.3428117913833	884.5053514739229	76	127
884.5053514739229	884.7027210884354	74	127
884.7027210884354	884.8536507936508	76	127
884.8536507936508	885.7476190476191	67	127
884.8536507936508	885.7476190476191	70	127
884.8536507936508	885.5038095238095	84	127
884.8536507936508	885.7476190476191	60	127
885.5038095238095	885.7476190476191	76	127
885.7592290249434	886.7809070294785	77	127
885.7592290249434	886.7809070294785	65	127
885.7592290249434	886.7809070294785	69	127
886.804126984127	888.0580045351473	55	127
886.804126984127	888.0580045351473	58	127
886.804126984127	888.0580045351473	48	127
886.804126984127	888.0580045351473	36	127
888.4643537414966	889.5905215419501	55	127
888.4643537414966	889.5905215419501	48	127
888.4643537414966	889.5905215419501	36	127
888.4643537414966	889.5905215419501	58	127
889.5905215419501	890.5889795918367	41	127
889.5905215419501	890.5889795918367	48	127
889.5905215419501	890.5889795918367	57	127
889.5905215419501	890.5889795918367	53	127
890.600589569161	891.5758276643991	67	127
890.600589569161	891.5758276643991	60	127
890.600589569161	891.3900680272109	84	127
890.600589569161	891.5758276643991	70	127
891.3900680272109	891.5758276643991	76	127
891.5758276643991	892.6439455782313	65	127
891.5758276643991	892.6439455782313	69	127
891.5758276643991	892.6439455782313	77	127
892.6555555555556	893.6191836734694	58	127
892.6555555555556	893.6191836734694	36	127
892.6555555555556	893.6191836734694	55	127
892.6555555555556	893.6191836734694	48	127
893.6191836734694	894.8266213151927	53	127
893.6191836734694	894.8266213151927	41	127
893.6191836734694	894.8266213151927	48	127
893.6191836734694	894.8266213151927	57	127
894.838231292517	895.0472108843537	84	127
894.838231292517	894.965941043084	48	127
894.9775510204082	895.1052607709751	58	127
895.0472108843537	895.2678004535147	83	127
895.1284807256236	895.2561904761905	55	127
895.2678004535147	895.5232199546485	84	127
895.2678004535147	895.4187301587301	58	127
895.4303401360544	895.5812698412699	55	127
895.5232199546485	895.7670294784581	76	127
895.6044897959183	895.7554195011338	58	127
895.7670294784581	896.0688888888889	77	127
895.7670294784581	895.9179591836735	48	127
895.9527891156463	896.1501587301588	57	127
896.0688888888889	896.3126984126984	83	127
896.1733786848073	896.2894784580499	53	127
896.3126984126984	896.4636281179138	57	127
896.3126984126984	896.5681179138322	84	127
896.4752380952381	896.6377777777777	53	127
896.5681179138322	896.8351473922902	83	127
896.649387755102	896.8119274376418	57	127
896.8351473922902	897.1137868480726	84	127
896.8351473922902	896.9860770975057	48	127
897.0092970521542	897.1950566893424	58	127
897.1137868480726	897.3808163265306	83	127
897.218276643991	897.3575963718821	55	127
897.3808163265306	897.5433560090703	58	127
897.3808163265306	897.6826757369614	84	127
897.5781859410431	897.7755555555556	55	127
897.6826757369614	897.9845351473923	76	127
897.7987755102041	897.9845351473923	58	127
898.0193650793651	899.2151927437642	57	127
898.0193650793651	899.2151927437642	53	127
898.0193650793651	899.2151927437642	77	127
900.4922902494332	900.8173696145125	69	127
900.8173696145125	901.1656689342403	65	127
901.2004988662131	901.3978684807256	60	127
901.455918367347	901.6648979591837	57	127
901.7809977324263	902.0131972789115	53	127
902.1409070294785	902.4427664399093	57	127
902.1409070294785	902.4427664399093	41	127
902.5704761904761	902.7330158730159	53	127
902.5704761904761	902.7330158730159	36	127
902.8607256235828	903.092925170068	33	127
902.8607256235828	903.092925170068	48	127
903.2206349206349	910.4304308390023	29	127
903.2206349206349	910.4304308390023	45	127
