# onset,offset,note,velocity
0.034058956916099774	0.6377777777777778	64	127
0.405578231292517	1.1718367346938776	57	127
0.405578231292517	1.1718367346938776	61	127
0.6377777777777778	0.707437641723356	69	127
0.707437641723356	0.7887074829931973	73	127
0.9396371882086167	1.3692063492063493	73	127
1.1718367346938776	1.6478458049886622	62	127
1.1718367346938776	1.6478458049886622	66	127
1.3692063492063493	1.4969160997732427	71	127
1.6478458049886622	1.903265306122449	61	127
1.6478458049886622	1.903265306122449	64	127
1.6478458049886622	2.193514739229025	69	127
1.903265306122449	2.506984126984127	62	127
1.903265306122449	2.506984126984127	59	127
2.193514739229025	2.309614512471655	68	127
2.506984126984127	2.6230839002267574	69	127
2.506984126984127	2.750793650793651	57	127
2.506984126984127	2.750793650793651	61	127
2.750793650793651	2.878503401360544	52	127
2.750793650793651	2.878503401360544	56	127
2.750793650793651	2.878503401360544	59	127
2.750793650793651	2.9017233560090703	71	127
3.2848526077097504	3.691201814058957	66	127
3.2848526077097504	3.691201814058957	71	127
3.2848526077097504	3.691201814058957	62	127
3.691201814058957	3.946621315192744	64	127
3.691201814058957	3.946621315192744	70	127
3.691201814058957	3.946621315192744	73	127
3.691201814058957	3.946621315192744	61	127
3.946621315192744	4.4806802721088435	74	127
3.946621315192744	4.4806802721088435	66	127
3.946621315192744	4.4806802721088435	71	127
3.946621315192744	4.4806802721088435	59	127
4.4806802721088435	4.794149659863946	73	127
4.4806802721088435	4.794149659863946	76	127
4.4806802721088435	4.794149659863946	67	127
4.4806802721088435	4.794149659863946	52	127
4.794149659863946	5.246916099773243	66	127
4.794149659863946	5.246916099773243	71	127
4.794149659863946	5.246916099773243	74	127
4.794149659863946	5.246916099773243	54	127
5.246916099773243	5.53718820861678	64	127
5.246916099773243	5.53718820861678	70	127
5.246916099773243	5.53718820861678	73	127
5.246916099773243	5.53718820861678	42	127
5.53718820861678	5.664897959183674	71	127
5.53718820861678	5.664897959183674	62	127
5.53718820861678	5.664897959183674	66	127
5.53718820861678	5.664897959183674	47	127
6.210566893424036	7.023265306122449	50	127
6.210566893424036	7.023265306122449	57	127
6.210566893424036	7.023265306122449	62	127
6.210566893424036	7.023265306122449	66	127
6.210566893424036	7.023265306122449	54	127
7.023265306122449	7.394784580498866	55	127
7.023265306122449	7.394784580498866	59	127
7.023265306122449	7.394784580498866	64	127
7.394784580498866	7.650204081632653	62	127
7.394784580498866	7.650204081632653	57	127
7.394784580498866	7.650204081632653	54	127
7.650204081632653	8.079773242630386	57	127
7.650204081632653	8.079773242630386	61	127
7.650204081632653	8.079773242630386	52	127
7.650204081632653	8.079773242630386	55	127
8.079773242630386	8.370022675736962	62	127
8.079773242630386	8.370022675736962	57	127
8.079773242630386	8.370022675736962	50	127
8.079773242630386	8.370022675736962	54	127
8.370022675736962	8.486122448979591	57	127
8.370022675736962	8.486122448979591	64	127
8.370022675736962	8.486122448979591	49	127
8.370022675736962	8.486122448979591	52	127
8.962131519274376	9.35687074829932	64	127
8.962131519274376	9.577460317460318	57	127
8.962131519274376	9.577460317460318	49	127
9.35687074829932	9.577460317460318	65	127
9.577460317460318	9.647120181405896	66	127
9.577460317460318	9.647120181405896	57	127
9.577460317460318	10.041836734693877	50	127
10.041836734693877	10.320498866213152	51	127
10.320498866213152	10.88938775510204	57	127
10.320498866213152	10.88938775510204	52	127
10.320498866213152	10.88938775510204	61	127
10.88938775510204	11.179637188208616	56	127
10.88938775510204	11.179637188208616	62	127
10.88938775510204	11.179637188208616	40	127
11.179637188208616	11.295736961451247	57	127
11.179637188208616	11.295736961451247	61	127
11.179637188208616	11.295736961451247	45	127
11.57437641723356	11.99233560090703	76	127
11.829795918367347	12.387074829931972	69	127
11.99233560090703	12.061995464852608	81	127
12.061995464852608	12.154875283446712	85	127
12.259365079365079	12.654104308390023	85	127
12.387074829931972	12.90952380952381	74	127
12.654104308390023	12.735374149659863	83	127
12.90952380952381	13.176553287981859	73	127
12.90952380952381	13.490022675736961	81	127
13.176553287981859	13.699002267573697	71	127
13.490022675736961	13.582902494331066	80	127
13.699002267573697	14.012471655328799	69	127
13.699002267573697	13.838321995464852	81	127
14.012471655328799	14.140181405895692	68	127
14.012471655328799	14.140181405895692	64	127
14.012471655328799	14.163401360544217	83	127
14.569750566893424	14.999319727891157	71	127
14.569750566893424	14.999319727891157	83	127
14.569750566893424	14.999319727891157	62	127
14.999319727891157	15.150249433106575	70	127
14.999319727891157	15.150249433106575	85	127
14.999319727891157	15.150249433106575	61	127
15.150249433106575	15.521768707482993	71	127
15.150249433106575	15.521768707482993	86	127
15.150249433106575	15.521768707482993	59	127
15.521768707482993	15.823628117913833	88	127
15.521768707482993	15.823628117913833	64	127
15.521768707482993	15.823628117913833	71	127
15.823628117913833	16.42734693877551	86	127
15.823628117913833	16.42734693877551	66	127
15.823628117913833	16.42734693877551	71	127
16.42734693877551	16.705986394557822	70	127
16.42734693877551	16.473786848072564	86	127
16.42734693877551	16.705986394557822	66	127
16.473786848072564	16.555056689342404	85	127
16.555056689342404	16.636326530612244	83	127
16.636326530612244	16.705986394557822	85	127
16.705986394557822	16.833696145124716	83	127
16.705986394557822	16.833696145124716	59	127
16.705986394557822	16.833696145124716	71	127
17.332925170068027	18.017913832199547	54	127
17.332925170068027	18.017913832199547	50	127
17.425804988662133	17.518684807256236	57	127
17.518684807256236	17.669591836734693	62	127
17.669591836734693	17.797301587301586	66	127
17.797301587301586	17.890204081632653	69	127
17.890204081632653	17.994693877551022	74	127
18.017913832199547	18.168843537414965	71	127
18.017913832199547	18.44748299319728	59	127
18.017913832199547	18.44748299319728	55	127
18.168843537414965	18.192063492063493	70	127
18.192063492063493	18.308163265306124	73	127
18.308163265306124	18.44748299319728	71	127
18.44748299319728	18.540362811791383	69	127
18.44748299319728	18.679659863945577	54	127
18.44748299319728	18.679659863945577	57	127
18.540362811791383	18.64485260770975	71	127
18.679659863945577	19.086031746031747	55	127
18.679659863945577	18.772562358276645	67	127
18.679659863945577	19.086031746031747	52	127
18.772562358276645	18.923492063492063	66	127
18.923492063492063	19.02798185941043	69	127
19.02798185941043	19.086031746031747	67	127
19.086031746031747	19.21374149659864	50	127
19.086031746031747	19.167301587301587	66	127
19.086031746031747	19.21374149659864	54	127
19.167301587301587	19.202131519274378	67	127
19.21374149659864	19.37628117913832	64	127
19.21374149659864	19.341451247165534	49	127
19.21374149659864	19.341451247165534	52	127
19.37628117913832	19.527210884353742	69	127
19.527210884353742	19.67814058956916	68	127
19.67814058956916	19.724580498866214	69	127
19.724580498866214	19.840680272108845	64	127
19.840680272108845	19.89873015873016	61	127
19.921950113378685	20.560498866213152	49	127
19.921950113378685	20.06126984126984	57	127
19.921950113378685	20.560498866213152	37	127
20.06126984126984	20.223809523809525	59	127
20.223809523809525	20.374739229024943	57	127
20.374739229024943	20.44439909297052	69	127
20.44439909297052	20.46761904761905	68	127
20.46761904761905	20.54888888888889	69	127
20.560498866213152	20.699818594104308	69	127
20.560498866213152	21.036507936507938	50	127
20.560498866213152	21.036507936507938	38	127
20.699818594104308	20.81591836734694	71	127
20.81591836734694	20.920408163265307	69	127
20.920408163265307	21.036507936507938	81	127
21.036507936507938	21.222244897959182	51	127
21.036507936507938	21.09453514739229	80	127
21.036507936507938	21.222244897959182	39	127
21.09453514739229	21.187437641723356	81	127
21.222244897959182	21.373197278911565	73	127
21.222244897959182	21.709886621315192	52	127
21.222244897959182	21.709886621315192	40	127
21.373197278911565	21.524126984126983	69	127
21.524126984126983	21.686666666666667	64	127
21.686666666666667	21.709886621315192	61	127
21.709886621315192	21.88403628117914	40	127
21.709886621315192	21.73310657596372	62	127
21.73310657596372	21.88403628117914	68	127
21.88403628117914	22.058185941043085	33	127
21.88403628117914	22.023356009070294	61	127
21.88403628117914	22.023356009070294	69	127
21.88403628117914	22.058185941043085	45	127
22.452925170068028	22.534195011337868	64	127
22.534195011337868	22.638684807256237	69	127
22.638684807256237	22.696734693877552	73	127
22.696734693877552	22.754784580498868	76	127
22.754784580498868	22.84766439909297	81	127
22.84766439909297	22.95215419501134	85	127
22.95215419501134	23.021814058956917	88	127
23.172743764172335	23.33528344671202	88	127
23.33528344671202	23.521043083900228	86	127
23.579092970521543	23.7184126984127	64	127
23.579092970521543	23.7184126984127	83	127
23.579092970521543	23.7184126984127	56	127
23.579092970521543	23.7184126984127	59	127
23.579092970521543	23.7184126984127	62	127
23.83451247165533	24.055102040816326	84	127
24.055102040816326	24.206031746031748	85	127
24.275691609977326	24.40340136054422	64	127
24.275691609977326	24.40340136054422	81	127
24.275691609977326	24.40340136054422	57	127
24.275691609977326	24.40340136054422	61	127
24.542721088435375	24.693650793650793	82	127
24.693650793650793	24.856190476190477	83	127
24.925850340136055	25.076780045351473	56	127
24.925850340136055	25.076780045351473	59	127
24.925850340136055	25.076780045351473	64	127
24.925850340136055	25.076780045351473	76	127
24.925850340136055	25.076780045351473	52	127
25.854648526077096	25.93591836734694	32	127
25.854648526077096	25.93591836734694	44	127
25.93591836734694	26.028798185941042	52	127
26.028798185941042	26.12167800453515	59	127
26.12167800453515	26.226167800453513	62	127
26.226167800453513	26.342267573696144	64	127
26.469977324263038	26.760226757369615	33	127
26.469977324263038	26.760226757369615	45	127
26.760226757369615	26.841496598639456	52	127
26.841496598639456	26.853106575963718	57	127
26.853106575963718	26.957596371882087	61	127
26.957596371882087	27.062086167800455	64	127
27.20140589569161	27.491655328798185	40	127
27.491655328798185	27.561315192743763	52	127
27.561315192743763	27.65419501133787	56	127
27.65419501133787	27.758684807256238	59	127
27.758684807256238	27.839954648526078	64	127
27.909614512471656	27.990884353741496	59	127
27.909614512471656	27.990884353741496	47	127
27.990884353741496	28.04893424036281	64	127
27.990884353741496	28.04893424036281	52	127
28.04893424036281	28.106984126984127	68	127
28.04893424036281	28.106984126984127	56	127
28.106984126984127	28.188253968253967	71	127
28.106984126984127	28.188253968253967	59	127
28.188253968253967	28.23469387755102	76	127
28.188253968253967	28.23469387755102	64	127
28.23469387755102	28.281133786848073	68	127
28.23469387755102	28.281133786848073	80	127
28.281133786848073	28.362403628117914	83	127
28.281133786848073	28.362403628117914	71	127
28.455283446712016	28.73392290249433	83	127
28.455283446712016	28.73392290249433	71	127
28.73392290249433	28.91968253968254	69	127
28.73392290249433	28.91968253968254	81	127
28.942902494331065	29.03578231292517	78	127
28.942902494331065	29.03578231292517	66	127
29.059002267573696	29.314421768707483	79	127
29.059002267573696	29.314421768707483	67	127
29.314421768707483	29.56984126984127	80	127
29.314421768707483	29.56984126984127	68	127
29.639501133786847	29.79043083900227	76	127
29.639501133786847	29.79043083900227	64	127
29.813650793650794	30.045850340136056	77	127
29.813650793650794	30.045850340136056	65	127
30.045850340136056	30.243219954648527	78	127
30.045850340136056	30.243219954648527	66	127
30.266439909297052	30.37092970521542	59	127
30.266439909297052	30.37092970521542	71	127
31.253287981859412	31.555147392290248	51	127
31.253287981859412	31.555147392290248	39	127
31.555147392290248	31.58997732426304	59	127
31.58997732426304	31.613197278911564	66	127
31.613197278911564	31.68285714285714	69	127
31.764126984126985	32.0427664399093	40	127
31.764126984126985	32.0427664399093	52	127
32.0427664399093	32.14725623582766	59	127
32.14725623582766	32.228526077097506	64	127
32.228526077097506	32.333015873015874	68	127
32.333015873015874	32.43750566893424	71	127
32.47233560090703	32.75097505668934	35	127
32.47233560090703	32.75097505668934	47	127
32.75097505668934	32.797392290249434	59	127
32.797392290249434	32.85546485260771	63	127
32.85546485260771	32.90190476190476	66	127
32.90190476190476	33.00639455782313	71	127
33.1108843537415	33.34308390022676	66	127
33.1108843537415	33.34308390022676	54	127
33.34308390022676	33.55204081632653	67	127
33.34308390022676	33.55204081632653	55	127
33.61011337868481	33.679750566893425	64	127
33.61011337868481	33.679750566893425	52	127
33.71460317460318	33.83070294784581	65	127
33.71460317460318	33.83070294784581	53	127
33.83070294784581	33.981632653061226	66	127
33.83070294784581	33.981632653061226	54	127
34.01646258503401	34.07451247165533	47	127
34.01646258503401	34.07451247165533	59	127
34.22544217687075	34.4924716553288	52	127
34.22544217687075	34.4924716553288	40	127
34.4924716553288	34.59696145124717	59	127
34.59696145124717	34.678231292517005	64	127
34.678231292517005	34.78272108843537	67	127
34.78272108843537	34.91043083900227	71	127
35.061360544217685	35.36321995464853	35	127
35.061360544217685	35.36321995464853	47	127
35.36321995464853	35.444489795918365	59	127
35.444489795918365	35.54897959183673	63	127
35.54897959183673	35.665079365079364	66	127
35.665079365079364	35.75795918367347	71	127
35.76956916099773	36.05981859410431	66	127
36.05981859410431	36.23396825396826	67	127
36.30362811791383	36.466145124716554	67	127
36.60546485260771	37.313696145124716	67	127
36.60546485260771	36.73319727891157	52	127
36.73319727891157	36.872517006802724	55	127
36.872517006802724	36.96539682539682	59	127
36.96539682539682	37.035056689342404	55	127
37.035056689342404	37.18598639455782	52	127
37.18598639455782	37.313696145124716	55	127
37.313696145124716	37.88258503401361	69	127
37.313696145124716	37.3833560090703	48	127
37.3833560090703	37.51106575963719	57	127
37.51106575963719	37.638775510204084	52	127
37.638775510204084	37.74324263038549	48	127
37.74324263038549	37.88258503401361	52	127
37.88258503401361	38.03351473922903	50	127
37.88258503401361	38.59079365079365	62	127
38.03351473922903	38.16122448979592	54	127
38.16122448979592	38.28893424036281	57	127
38.28893424036281	38.41664399092971	54	127
38.41664399092971	38.5443537414966	50	127
38.5443537414966	38.637233560090706	54	127
38.59079365079365	38.637233560090706	69	127
38.637233560090706	38.84621315192744	67	127
38.637233560090706	38.7649433106576	47	127
38.7649433106576	38.881020408163266	50	127
38.881020408163266	38.97392290249433	66	127
38.881020408163266	38.904263038548756	55	127
38.904263038548756	39.03197278911565	50	127
39.03197278911565	39.15968253968254	47	127
39.03197278911565	39.15968253968254	67	127
39.15968253968254	39.25256235827664	50	127
39.25256235827664	39.94916099773243	69	127
39.25256235827664	39.36866213151927	48	127
39.36866213151927	39.4847619047619	52	127
39.4847619047619	39.57764172335601	57	127
39.57764172335601	39.69374149659864	52	127
39.69374149659864	39.833061224489796	48	127
39.833061224489796	39.94916099773243	52	127
39.94916099773243	40.03040816326531	50	127
39.94916099773243	40.18136054421769	74	127
40.03040816326531	40.12331065759637	54	127
40.12331065759637	40.18136054421769	60	127
40.18136054421769	40.19297052154195	43	127
40.18136054421769	40.19297052154195	71	127
40.19297052154195	40.27421768707483	55	127
40.27421768707483	40.425170068027214	54	127
40.425170068027214	40.56448979591837	55	127
40.56448979591837	40.65734693877551	54	127
40.65734693877551	40.79668934240363	55	127
40.79668934240363	40.94761904761905	54	127
40.79668934240363	41.09854875283447	75	127
40.94761904761905	41.09854875283447	55	127
41.09854875283447	41.203038548752836	54	127
41.09854875283447	41.29589569160998	76	127
41.203038548752836	41.36557823129252	55	127
41.36557823129252	41.5281179138322	54	127
41.36557823129252	41.5281179138322	76	127
41.5281179138322	41.667414965986396	55	127
41.667414965986396	42.433673469387756	76	127
41.667414965986396	41.783537414965984	48	127
41.783537414965984	41.93446712018141	52	127
41.93446712018141	42.08539682539683	55	127
42.08539682539683	42.21310657596372	52	127
42.21310657596372	42.340816326530614	48	127
42.340816326530614	42.433673469387756	52	127
42.433673469387756	42.93290249433107	78	127
42.433673469387756	42.573015873015876	45	127
42.573015873015876	42.63106575963719	48	127
42.63106575963719	42.65428571428571	48	127
42.65428571428571	42.79360544217687	45	127
42.79360544217687	42.93290249433107	48	127
42.93290249433107	43.67596371882086	71	127
42.93290249433107	43.07222222222222	47	127
43.07222222222222	43.21156462585034	51	127
43.21156462585034	43.33927437641724	54	127
43.33927437641724	43.44374149659864	51	127
43.44374149659864	43.583061224489796	47	127
43.583061224489796	43.710793650793654	51	127
43.67596371882086	43.710793650793654	78	127
43.710793650793654	43.78045351473923	44	127
43.710793650793654	43.82687074829932	76	127
43.78045351473923	43.873333333333335	47	127
43.873333333333335	43.96621315192744	52	127
43.873333333333335	44.035873015873015	75	127
43.96621315192744	44.08229024943311	47	127
44.08229024943311	44.16358276643991	44	127
44.08229024943311	44.16358276643991	76	127
44.16358276643991	44.256462585034015	47	127
44.256462585034015	44.372562358276646	45	127
44.256462585034015	44.81374149659864	78	127
44.372562358276646	44.45383219954648	49	127
44.45383219954648	44.523492063492064	54	127
44.523492063492064	44.581541950113376	49	127
44.581541950113376	44.686031746031745	45	127
44.686031746031745	44.81374149659864	49	127
44.81374149659864	45.19687074829932	83	127
44.81374149659864	44.860181405895695	45	127
44.860181405895695	44.88340136054422	54	127
44.88340136054422	44.98789115646259	51	127
44.98789115646259	45.069160997732425	45	127
45.069160997732425	45.19687074829932	51	127
45.19687074829932	45.986326530612246	88	127
45.19687074829932	45.34777777777778	44	127
45.34777777777778	45.49873015873016	52	127
45.49873015873016	45.64965986394558	47	127
45.64965986394558	45.800589569161	52	127
45.800589569161	45.951519274376416	44	127
45.951519274376416	45.986326530612246	52	127
45.986326530612246	46.218548752834465	87	127
45.986326530612246	46.102448979591834	45	127
46.102448979591834	46.218548752834465	52	127
46.218548752834465	46.40430839002268	88	127
46.218548752834465	46.35784580498866	49	127
46.35784580498866	46.439138321995465	52	127
46.439138321995465	46.555238095238096	45	127
46.439138321995465	46.555238095238096	85	127
46.555238095238096	46.659727891156464	52	127
46.659727891156464	46.8802947845805	82	127
46.659727891156464	46.81065759637188	47	127
46.81065759637188	46.8802947845805	56	127
46.8802947845805	46.984807256235825	52	127
46.8802947845805	47.01963718820862	83	127
46.984807256235825	47.03124716553288	56	127
47.03124716553288	47.11251700680272	56	127
47.11251700680272	47.29827664399093	80	127
47.11251700680272	47.22861678004535	47	127
47.22861678004535	47.29827664399093	57	127
47.29827664399093	47.472426303854874	81	127
47.29827664399093	47.44920634920635	54	127
47.44920634920635	47.51886621315193	57	127
47.51886621315193	47.68140589569161	47	127
47.51886621315193	47.68140589569161	75	127
47.68140589569161	47.82072562358277	57	127
47.82072562358277	48.09936507936508	52	127
47.82072562358277	47.91360544217687	64	127
47.82072562358277	48.09936507936508	56	127
47.91360544217687	47.99487528344671	68	127
47.99487528344671	48.09936507936508	71	127
48.09936507936508	48.18063492063492	76	127
48.18063492063492	48.26190476190476	80	127
48.26190476190476	48.308344671201816	83	127
48.308344671201816	48.42444444444445	88	127
48.44766439909297	48.86562358276644	88	127
48.86562358276644	48.958503401360545	88	127
49.0978231292517	49.457732426303856	88	127
49.0978231292517	49.179092970521545	33	127
49.179092970521545	49.26036281179138	45	127
49.26036281179138	49.36485260770975	49	127
49.36485260770975	49.457732426303856	52	127
49.457732426303856	49.57383219954649	85	127
49.457732426303856	49.57383219954649	57	127
49.724761904761905	49.945351473922905	85	127
49.724761904761905	49.945351473922905	59	127
49.945351473922905	50.09628117913832	83	127
50.154331065759635	50.258820861678004	75	127
50.154331065759635	50.258820861678004	47	127
50.39814058956916	50.61873015873016	40	127
50.39814058956916	50.46780045351474	64	127
50.39814058956916	50.61873015873016	52	127
50.46780045351474	50.51424036281179	68	127
50.51424036281179	50.61873015873016	71	127
50.61873015873016	50.67678004535147	76	127
50.67678004535147	50.78126984126984	80	127
50.78126984126984	50.83931972789116	83	127
50.83931972789116	50.93219954648526	88	127
50.95541950113379	51.477868480725625	88	127
51.477868480725625	51.628798185941044	88	127
51.791337868480724	52.32539682539682	88	127
51.791337868480724	51.88421768707483	33	127
51.88421768707483	51.97709750566894	37	127
51.97709750566894	52.0815873015873	40	127
52.0815873015873	52.174467120181404	45	127
52.174467120181404	52.26734693877551	49	127
52.26734693877551	52.32539682539682	52	127
52.32539682539682	52.44149659863945	85	127
52.32539682539682	52.44149659863945	57	127
52.940725623582765	53.26580498866213	76	127
53.26580498866213	53.381904761904764	73	127
54.22943310657596	54.70544217687075	64	127
54.70544217687075	54.809931972789116	61	127
55.54136054421769	55.947709750566894	64	127
55.77356009070295	56.47015873015873	61	127
55.77356009070295	56.47015873015873	57	127
55.947709750566894	55.99414965986394	69	127
55.99414965986394	56.110249433106574	73	127
56.27278911564626	56.67913832199547	73	127
56.47015873015873	56.91133786848073	62	127
56.47015873015873	56.91133786848073	66	127
56.67913832199547	56.7604081632653	71	127
56.91133786848073	57.12031746031746	64	127
56.91133786848073	57.12031746031746	61	127
56.91133786848073	57.375736961451246	69	127
57.12031746031746	57.60793650793651	59	127
57.12031746031746	57.60793650793651	62	127
57.375736961451246	57.44539682539683	68	127
57.60793650793651	57.88657596371882	61	127
57.60793650793651	57.74725623582766	69	127
57.60793650793651	57.88657596371882	57	127
57.88657596371882	58.025895691609975	59	127
57.88657596371882	58.025895691609975	52	127
57.88657596371882	58.025895691609975	56	127
57.88657596371882	58.04911564625851	71	127
58.54834467120181	58.94308390022676	62	127
58.54834467120181	58.94308390022676	66	127
58.54834467120181	58.94308390022676	71	127
58.94308390022676	59.15206349206349	61	127
58.94308390022676	59.15206349206349	64	127
58.94308390022676	59.15206349206349	70	127
58.94308390022676	59.15206349206349	73	127
59.15206349206349	59.58163265306123	74	127
59.15206349206349	59.58163265306123	66	127
59.15206349206349	59.58163265306123	71	127
59.15206349206349	59.58163265306123	59	127
59.58163265306123	59.895102040816326	52	127
59.58163265306123	59.895102040816326	67	127
59.58163265306123	59.895102040816326	73	127
59.58163265306123	59.895102040816326	76	127
59.895102040816326	60.46399092970522	54	127
59.895102040816326	60.46399092970522	66	127
59.895102040816326	60.46399092970522	71	127
59.895102040816326	60.46399092970522	74	127
60.46399092970522	60.74263038548753	42	127
60.46399092970522	60.74263038548753	64	127
60.46399092970522	60.74263038548753	70	127
60.46399092970522	60.74263038548753	73	127
60.74263038548753	60.85873015873016	47	127
60.74263038548753	60.85873015873016	62	127
60.74263038548753	60.85873015873016	66	127
60.74263038548753	60.85873015873016	71	127
61.532108843537415	62.19387755102041	54	127
61.532108843537415	62.19387755102041	62	127
61.532108843537415	62.19387755102041	66	127
61.532108843537415	62.19387755102041	50	127
61.532108843537415	62.19387755102041	57	127
62.19387755102041	62.797596371882086	64	127
62.19387755102041	62.797596371882086	55	127
62.19387755102041	62.797596371882086	59	127
62.797596371882086	62.96013605442177	57	127
62.797596371882086	62.96013605442177	62	127
62.797596371882086	62.96013605442177	54	127
62.96013605442177	63.2968253968254	55	127
62.96013605442177	63.2968253968254	57	127
62.96013605442177	63.2968253968254	61	127
62.96013605442177	63.2968253968254	52	127
63.2968253968254	63.5174149659864	50	127
63.2968253968254	63.5174149659864	57	127
63.2968253968254	63.5174149659864	62	127
63.2968253968254	63.5174149659864	54	127
63.5174149659864	63.64512471655329	52	127
63.5174149659864	63.64512471655329	57	127
63.5174149659864	63.64512471655329	64	127
63.5174149659864	63.64512471655329	49	127
64.17916099773242	64.59714285714286	64	127
64.17916099773242	64.75968253968254	57	127
64.17916099773242	64.75968253968254	49	127
64.59714285714286	64.75968253968254	65	127
64.75968253968254	64.85256235827664	66	127
64.75968253968254	64.85256235827664	57	127
64.75968253968254	65.22408163265307	50	127
65.22408163265307	65.43306122448979	51	127
65.43306122448979	65.9438775510204	61	127
65.43306122448979	65.9438775510204	57	127
65.43306122448979	65.9438775510204	52	127
65.9438775510204	66.25736961451247	62	127
65.9438775510204	66.25736961451247	40	127
65.9438775510204	66.25736961451247	56	127
66.25736961451247	66.36185941043084	57	127
66.25736961451247	66.36185941043084	61	127
66.25736961451247	66.36185941043084	45	127
66.67532879818594	67.1281179138322	76	127
66.94235827664399	67.55768707482993	69	127
67.1281179138322	67.19777777777777	81	127
67.19777777777777	67.23260770975057	85	127
67.39514739229026	67.82471655328798	85	127
67.55768707482993	68.04530612244898	74	127
67.82471655328798	67.92920634920635	83	127
68.04530612244898	68.25428571428571	73	127
68.04530612244898	68.49807256235827	81	127
68.25428571428571	68.69546485260771	71	127
68.49807256235827	68.57936507936508	80	127
68.69546485260771	68.81156462585034	81	127
68.69546485260771	68.9160544217687	69	127
68.9160544217687	69.0437641723356	68	127
68.9160544217687	69.0437641723356	64	127
68.9160544217687	69.05537414965987	83	127
69.60104308390022	70.13507936507936	83	127
69.60104308390022	70.13507936507936	62	127
69.60104308390022	70.13507936507936	71	127
70.13507936507936	70.30925170068028	85	127
70.13507936507936	70.30925170068028	61	127
70.13507936507936	70.30925170068028	70	127
70.30925170068028	70.87814058956916	59	127
70.30925170068028	70.87814058956916	71	127
70.30925170068028	70.87814058956916	86	127
70.87814058956916	71.04068027210884	71	127
70.87814058956916	71.04068027210884	88	127
70.87814058956916	71.04068027210884	64	127
71.04068027210884	71.4121768707483	66	127
71.04068027210884	71.4121768707483	71	127
71.04068027210884	71.4121768707483	86	127
71.4121768707483	71.48185941043084	86	127
71.4121768707483	71.70244897959184	66	127
71.4121768707483	71.70244897959184	70	127
71.48185941043084	71.55151927437642	85	127
71.55151927437642	71.62117913832199	83	127
71.62117913832199	71.70244897959184	85	127
71.70244897959184	71.83015873015873	83	127
71.70244897959184	71.83015873015873	59	127
71.70244897959184	71.83015873015873	71	127
72.29455782312925	72.96793650793651	54	127
72.29455782312925	72.96793650793651	50	127
72.41065759637188	72.52675736961451	57	127
72.52675736961451	72.57319727891156	62	127
72.57319727891156	72.72412698412698	66	127
72.72412698412698	72.85183673469388	69	127
72.85183673469388	72.95632653061224	74	127
72.96793650793651	73.13047619047619	71	127
72.96793650793651	73.37428571428572	55	127
72.96793650793651	73.37428571428572	59	127
73.13047619047619	73.23496598639456	70	127
73.23496598639456	73.37428571428572	71	127
73.37428571428572	73.53682539682539	69	127
73.37428571428572	73.65292517006803	54	127
73.37428571428572	73.65292517006803	57	127
73.53682539682539	73.61809523809524	71	127
73.65292517006803	74.00122448979592	52	127
73.65292517006803	73.76902494331065	67	127
73.65292517006803	74.00122448979592	55	127
73.76902494331065	73.86190476190477	66	127
73.86190476190477	73.88512471655329	69	127
73.88512471655329	74.00122448979592	67	127
74.00122448979592	74.21020408163265	50	127
74.00122448979592	74.10571428571428	66	127
74.00122448979592	74.21020408163265	54	127
74.10571428571428	74.17537414965986	67	127
74.21020408163265	74.2914739229025	49	127
74.21020408163265	74.2914739229025	52	127
74.21020408163265	74.32628117913832	64	127
74.32628117913832	74.41918367346939	69	127
74.41918367346939	74.51206349206349	68	127
74.51206349206349	74.66299319727891	69	127
74.66299319727891	74.77909297052155	64	127
74.77909297052155	74.88358276643991	61	127
74.9184126984127	75.638231292517	49	127
74.9184126984127	75.06934240362811	57	127
74.9184126984127	75.638231292517	37	127
75.06934240362811	75.20866213151928	59	127
75.20866213151928	75.31315192743764	57	127
75.31315192743764	75.44086167800454	69	127
75.44086167800454	75.58018140589569	68	127
75.58018140589569	75.60337868480725	69	127
75.638231292517	75.97492063492064	50	127
75.638231292517	75.64984126984127	69	127
75.638231292517	75.97492063492064	38	127
75.64984126984127	75.71950113378685	71	127
75.71950113378685	75.83560090702947	69	127
75.83560090702947	75.97492063492064	81	127
75.97492063492064	76.23034013605442	51	127
75.97492063492064	76.0909977324263	80	127
75.97492063492064	76.23034013605442	39	127
76.0909977324263	76.2071201814059	81	127
76.23034013605442	76.32321995464852	73	127
76.23034013605442	76.6250566893424	40	127
76.23034013605442	76.6250566893424	52	127
76.32321995464852	76.45092970521542	69	127
76.45092970521542	76.57863945578231	64	127
76.57863945578231	76.7063492063492	61	127
76.7063492063492	76.97337868480726	40	127
76.7063492063492	76.86888888888889	62	127
76.86888888888889	76.97337868480726	68	127
76.97337868480726	77.12430839002268	33	127
76.97337868480726	77.08947845804988	61	127
76.97337868480726	77.08947845804988	69	127
76.97337868480726	77.12430839002268	45	127
77.56548752834468	77.9021768707483	69	127
77.9021768707483	78.0298866213152	73	127
78.0298866213152	78.2156462585034	71	127
78.2156462585034	78.35496598639456	69	127
78.88902494331066	79.35342403628118	73	127
79.35342403628118	79.53916099773242	76	127
79.53916099773242	79.71333333333334	74	127
79.71333333333334	79.86426303854876	73	127
80.40990929705215	80.90916099773243	38	127
80.40990929705215	80.49120181405895	57	127
80.49120181405895	80.63052154195012	62	127
80.63052154195012	80.76984126984127	66	127
80.76984126984127	80.90916099773243	62	127
80.90916099773243	81.02526077097505	42	127
80.90916099773243	81.02526077097505	57	127
81.02526077097505	81.15297052154195	40	127
81.02526077097505	81.15297052154195	62	127
81.15297052154195	81.24585034013606	38	127
81.15297052154195	81.28068027210884	57	127
81.28068027210884	81.4315873015873	62	127
81.4315873015873	81.5477097505669	66	127
81.5477097505669	81.62897959183674	62	127
81.62897959183674	81.74507936507936	57	127
81.74507936507936	81.87278911564626	62	127
81.87278911564626	82.01210884353742	57	127
81.87278911564626	82.43006802721088	40	127
82.01210884353742	82.15142857142857	61	127
82.15142857142857	82.29074829931973	67	127
82.29074829931973	82.43006802721088	61	127
82.43006802721088	82.53455782312925	43	127
82.43006802721088	82.53455782312925	57	127
82.53455782312925	82.67387755102041	61	127
82.53455782312925	82.67387755102041	42	127
82.67387755102041	82.77836734693878	57	127
82.67387755102041	82.76675736961451	40	127
82.77836734693878	82.81319727891156	61	127
82.81319727891156	82.90607709750567	67	127
82.90607709750567	82.98734693877552	61	127
82.98734693877552	83.10344671201814	57	127
83.10344671201814	83.18471655328798	61	127
83.18471655328798	83.3356462585034	58	127
83.18471655328798	83.69555555555556	43	127
83.3356462585034	83.44013605442177	61	127
83.44013605442177	83.5562358276644	64	127
83.5562358276644	83.69555555555556	61	127
83.69555555555556	83.82326530612245	46	127
83.69555555555556	83.82326530612245	58	127
83.82326530612245	83.91614512471655	45	127
83.82326530612245	83.91614512471655	61	127
83.91614512471655	84.02063492063492	43	127
83.91614512471655	84.05546485260771	58	127
84.05546485260771	84.13673469387756	61	127
84.13673469387756	84.26444444444445	64	127
84.26444444444445	84.39215419501134	61	127
84.39215419501134	84.41537414965987	58	127
84.41537414965987	84.55469387755102	61	127
84.55469387755102	84.70562358276644	57	127
84.55469387755102	84.92621315192744	42	127
84.70562358276644	84.8449433106576	62	127
84.8449433106576	84.90299319727892	66	127
84.90299319727892	84.92621315192744	62	127
84.92621315192744	85.04231292517007	45	127
84.92621315192744	85.04231292517007	57	127
85.04231292517007	85.18163265306123	43	127
85.04231292517007	85.18163265306123	62	127
85.18163265306123	85.22807256235828	42	127
85.18163265306123	85.22807256235828	57	127
85.22807256235828	85.3441723356009	62	127
85.3441723356009	85.44866213151927	66	127
85.44866213151927	85.50671201814059	69	127
85.50671201814059	85.61120181405896	62	127
85.61120181405896	85.77374149659865	74	127
85.77374149659865	85.86662131519275	62	127
85.86662131519275	85.99433106575964	64	127
85.99433106575964	86.13362811791383	71	127
86.13362811791383	86.21492063492063	74	127
86.21492063492063	86.33102040816327	62	127
86.21492063492063	86.4471201814059	32	127
86.21492063492063	86.4471201814059	44	127
86.33102040816327	86.4471201814059	74	127
86.4471201814059	86.57482993197279	61	127
86.57482993197279	86.69092970521542	64	127
86.69092970521542	86.7954195011338	69	127
86.7954195011338	86.86507936507937	73	127
86.86507936507937	86.92312925170069	61	127
86.86507936507937	87.05083900226758	33	127
86.86507936507937	87.05083900226758	45	127
86.92312925170069	87.05083900226758	73	127
87.05083900226758	87.17854875283447	62	127
87.17854875283447	87.31786848072562	68	127
87.31786848072562	87.43396825396826	71	127
87.43396825396826	87.48040816326531	74	127
87.48040816326531	87.53843537414966	62	127
87.48040816326531	87.65455782312925	35	127
87.48040816326531	87.65455782312925	47	127
87.53843537414966	87.65455782312925	74	127
87.65455782312925	87.79387755102042	64	127
87.79387755102042	87.92158730158731	69	127
87.92158730158731	88.00285714285714	73	127
88.00285714285714	88.0492970521542	76	127
88.0492970521542	88.1770068027211	64	127
88.0492970521542	88.25827664399092	37	127
88.0492970521542	88.25827664399092	49	127
88.1770068027211	88.25827664399092	76	127
88.25827664399092	88.40918367346939	66	127
88.40918367346939	88.49047619047619	78	127
88.49047619047619	88.60657596371883	74	127
88.60657596371883	88.73428571428572	71	127
88.73428571428572	88.82716553287982	66	127
88.73428571428572	88.95487528344671	38	127
88.73428571428572	88.95487528344671	50	127
88.82716553287982	88.95487528344671	78	127
88.95487528344671	89.01292517006803	68	127
89.01292517006803	89.12902494331065	74	127
89.12902494331065	89.24512471655329	71	127
89.24512471655329	89.32639455782314	68	127
89.32639455782314	89.38444444444444	62	127
89.32639455782314	89.47732426303855	40	127
89.32639455782314	89.47732426303855	52	127
89.38444444444444	89.47732426303855	74	127
89.47732426303855	89.79077097505669	45	127
89.47732426303855	89.63986394557823	73	127
89.63986394557823	89.79077097505669	74	127
89.79077097505669	89.9417006802721	57	127
89.79077097505669	89.9417006802721	76	127
89.9417006802721	90.01138321995465	74	127
90.01138321995465	90.1507029478458	57	127
90.01138321995465	90.1507029478458	73	127
90.1507029478458	90.2784126984127	74	127
90.31324263038549	90.42931972789115	73	127
90.31324263038549	90.45253968253968	57	127
90.42931972789115	90.45253968253968	69	127
90.45253968253968	90.47578231292518	73	127
90.47578231292518	90.64993197278912	76	127
90.64993197278912	90.78925170068027	81	127
90.78925170068027	90.9053514739229	79	127
90.92857142857143	91.4742403628118	38	127
90.92857142857143	91.75287981859411	66	127
90.92857142857143	91.75287981859411	78	127
91.4742403628118	91.54390022675737	42	127
91.54390022675737	91.62517006802722	40	127
91.62517006802722	91.72965986394559	38	127
91.75287981859411	91.86897959183673	67	127
91.75287981859411	91.86897959183673	79	127
91.95024943310658	92.07795918367347	69	127
91.95024943310658	92.07795918367347	81	127
92.20566893424036	92.34496598639456	81	127
92.20566893424036	92.34496598639456	69	127
92.20566893424036	92.60038548752834	40	127
92.42625850340136	93.15768707482994	61	127
92.42625850340136	93.15768707482994	73	127
92.60038548752834	92.75133786848073	43	127
92.75133786848073	92.87904761904763	42	127
92.87904761904763	92.97192743764172	40	127
93.15768707482994	93.27378684807256	61	127
93.15768707482994	93.27378684807256	73	127
93.37827664399093	93.4827664399093	62	127
93.37827664399093	93.4827664399093	74	127
93.61047619047619	94.00519274376417	43	127
93.61047619047619	94.38832199546485	64	127
93.61047619047619	94.38832199546485	76	127
94.00519274376417	94.08648526077097	46	127
94.08648526077097	94.15614512471656	45	127
94.15614512471656	94.26061224489796	43	127
94.38832199546485	94.46961451247165	64	127
94.38832199546485	94.46961451247165	76	127
94.63215419501134	94.72503401360544	66	127
94.63215419501134	94.72503401360544	78	127
94.8759410430839	94.9920634920635	64	127
94.8759410430839	94.9920634920635	76	127
94.8759410430839	95.28231292517007	42	127
95.11977324263039	95.68866213151928	62	127
95.11977324263039	95.68866213151928	74	127
95.28231292517007	95.41002267573697	45	127
95.41002267573697	95.54934240362812	43	127
95.54934240362812	95.63061224489796	42	127
95.68866213151928	95.79315192743765	64	127
95.68866213151928	95.79315192743765	76	127
95.92086167800454	96.04857142857144	66	127
95.92086167800454	96.04857142857144	78	127
96.15306122448979	96.39687074829932	78	127
96.15306122448979	96.39687074829932	66	127
96.39687074829932	96.58263038548753	64	127
96.39687074829932	96.58263038548753	76	127
96.60585034013606	96.75678004535148	32	127
96.60585034013606	96.75678004535148	44	127
96.75678004535148	97.03541950113379	66	127
96.75678004535148	97.03541950113379	78	127
97.03541950113379	97.23278911564626	64	127
97.03541950113379	97.23278911564626	76	127
97.29083900226757	97.48820861678004	33	127
97.29083900226757	97.48820861678004	45	127
97.48820861678004	97.7204081632653	69	127
97.48820861678004	97.7204081632653	81	127
97.7204081632653	97.88294784580499	68	127
97.7204081632653	97.88294784580499	80	127
97.91777777777777	98.12675736961451	35	127
97.91777777777777	98.12675736961451	47	127
98.12675736961451	98.37056689342404	83	127
98.12675736961451	98.37056689342404	71	127
98.37056689342404	98.54471655328798	69	127
98.37056689342404	98.54471655328798	81	127
98.59115646258503	98.80013605442177	37	127
98.59115646258503	98.80013605442177	49	127
98.80013605442177	98.98589569160998	70	127
98.80013605442177	98.98589569160998	82	127
98.98589569160998	99.1368253968254	71	127
98.98589569160998	99.1368253968254	83	127
99.17165532879818	99.42707482993197	38	127
99.17165532879818	99.42707482993197	50	127
99.42707482993197	99.65927437641723	73	127
99.42707482993197	99.65927437641723	85	127
99.65927437641723	99.84503401360544	74	127
99.65927437641723	99.84503401360544	86	127
99.90308390022676	100.15850340136055	52	127
99.90308390022676	100.00757369614513	68	127
99.90308390022676	100.00757369614513	80	127
99.90308390022676	100.15850340136055	40	127
100.15850340136055	100.99442176870748	83	127
100.15850340136055	100.42553287981859	45	127
100.15850340136055	100.99442176870748	71	127
100.42553287981859	100.57646258503401	57	127
100.72739229024943	100.85510204081632	57	127
100.99442176870748	101.1105215419501	57	127
100.99442176870748	101.07569160997733	69	127
100.99442176870748	101.07569160997733	81	127
101.5865306122449	101.69102040816327	60	127
101.5865306122449	102.09736961451247	57	127
101.69102040816327	101.84195011337869	63	127
101.84195011337869	101.95804988662131	66	127
101.95804988662131	102.09736961451247	63	127
102.09736961451247	102.17863945578232	66	127
102.09736961451247	102.17863945578232	60	127
102.17863945578232	102.24829931972789	59	127
102.17863945578232	102.24829931972789	63	127
102.24829931972789	102.39922902494331	60	127
102.24829931972789	102.37600907029478	57	127
102.39922902494331	102.5269387755102	63	127
102.5269387755102	102.64303854875284	66	127
102.64303854875284	102.75913832199547	63	127
102.75913832199547	102.85201814058956	66	127
102.85201814058956	102.94489795918368	63	127
102.94489795918368	103.28158730158731	43	127
102.94489795918368	103.01455782312925	59	127
103.01455782312925	103.15387755102041	64	127
103.15387755102041	103.21192743764172	67	127
103.21192743764172	103.28158730158731	64	127
103.28158730158731	103.42090702947846	67	127
103.28158730158731	103.42090702947846	47	127
103.42090702947846	103.56022675736962	64	127
103.42090702947846	103.56022675736962	45	127
103.56022675736962	103.71115646258504	59	127
103.56022675736962	103.68793650793651	43	127
103.71115646258504	103.87369614512471	64	127
103.87369614512471	103.95496598639455	67	127
103.95496598639455	104.05945578231292	64	127
104.05945578231292	104.19877551020409	59	127
104.19877551020409	104.25682539682539	64	127
104.25682539682539	104.74444444444444	55	127
104.25682539682539	104.36131519274376	58	127
104.36131519274376	104.45419501133787	61	127
104.45419501133787	104.5702947845805	64	127
104.5702947845805	104.74444444444444	61	127
104.74444444444444	104.83732426303855	58	127
104.74444444444444	104.83732426303855	64	127
104.83732426303855	104.95342403628118	57	127
104.83732426303855	104.95342403628118	61	127
104.95342403628118	104.98825396825397	55	127
104.95342403628118	104.98825396825397	58	127
104.98825396825397	105.11596371882086	61	127
105.11596371882086	105.24367346938776	64	127
105.24367346938776	105.37138321995465	61	127
105.37138321995465	105.49909297052154	64	127
105.49909297052154	105.62680272108844	61	127
105.62680272108844	105.75451247165533	57	127
105.62680272108844	106.00993197278912	42	127
105.75451247165533	105.80095238095238	62	127
105.80095238095238	105.917052154195	66	127
105.917052154195	106.00993197278912	62	127
106.00993197278912	106.12603174603174	57	127
106.00993197278912	106.12603174603174	45	127
106.12603174603174	106.25374149659864	43	127
106.12603174603174	106.25374149659864	62	127
106.25374149659864	106.36984126984127	57	127
106.25374149659864	106.33501133786848	42	127
106.36984126984127	106.41628117913832	62	127
106.41628117913832	106.54399092970522	66	127
106.54399092970522	106.63687074829932	69	127
106.63687074829932	106.75297052154195	62	127
106.75297052154195	106.90390022675737	74	127
106.90390022675737	106.96195011337869	62	127
106.96195011337869	107.07804988662132	67	127
107.07804988662132	107.14770975056689	71	127
107.14770975056689	107.27541950113378	74	127
107.27541950113378	107.35668934240363	73	127
107.27541950113378	107.44956916099773	35	127
107.27541950113378	107.44956916099773	47	127
107.35668934240363	107.44956916099773	74	127
107.44956916099773	107.57727891156462	62	127
107.57727891156462	107.7398185941043	74	127
107.7398185941043	107.87913832199547	73	127
107.87913832199547	107.92557823129252	74	127
107.92557823129252	108.13455782312926	45	127
107.92557823129252	108.03006802721089	73	127
107.92557823129252	108.13455782312926	33	127
108.03006802721089	108.13455782312926	74	127
108.13455782312926	108.22743764172336	62	127
108.22743764172336	108.32031746031745	67	127
108.32031746031745	108.47124716553287	71	127
108.47124716553287	108.58734693877551	74	127
108.58734693877551	108.70344671201813	73	127
108.58734693877551	108.8079365079365	43	127
108.58734693877551	108.8079365079365	31	127
108.70344671201813	108.8079365079365	74	127
108.8079365079365	108.9356462585034	69	127
108.9356462585034	108.99369614512472	74	127
108.99369614512472	109.13301587301588	69	127
109.13301587301588	109.22589569160998	66	127
109.22589569160998	109.4697052154195	42	127
109.22589569160998	109.33038548752835	62	127
109.22589569160998	109.4697052154195	30	127
109.33038548752835	109.4697052154195	60	127
109.4697052154195	109.56258503401361	59	127
109.56258503401361	109.64385487528345	71	127
109.64385487528345	109.77156462585035	67	127
109.77156462585035	109.9108843537415	64	127
109.9108843537415	110.05020408163266	31	127
109.9108843537415	110.05020408163266	43	127
109.9108843537415	110.01537414965986	59	127
110.01537414965986	110.05020408163266	71	127
110.05020408163266	110.16630385487528	55	127
110.16630385487528	110.3172335600907	67	127
110.3172335600907	110.41011337868481	64	127
110.41011337868481	110.50299319727891	61	127
110.50299319727891	110.68875283446712	45	127
110.50299319727891	110.6307029478458	55	127
110.50299319727891	110.68875283446712	33	127
110.6307029478458	110.68875283446712	67	127
110.68875283446712	110.94417233560091	38	127
110.68875283446712	110.80485260770975	66	127
110.80485260770975	110.94417233560091	67	127
110.94417233560091	111.08349206349206	50	127
110.94417233560091	111.08349206349206	69	127
111.08349206349206	111.22281179138322	67	127
111.22281179138322	111.30408163265307	50	127
111.22281179138322	111.30408163265307	66	127
111.30408163265307	111.40857142857143	67	127
111.40857142857143	111.46662131519274	66	127
111.40857142857143	111.46662131519274	50	127
111.62916099773243	111.72204081632653	69	127
111.62916099773243	111.72204081632653	81	127
111.84975056689342	112.00068027210884	69	127
111.84975056689342	112.00068027210884	81	127
112.12839002267573	112.2328798185941	69	127
112.12839002267573	112.2328798185941	81	127
112.12839002267573	112.61600907029478	57	127
112.33736961451247	113.18489795918367	63	127
112.33736961451247	113.18489795918367	75	127
112.61600907029478	112.74371882086167	60	127
112.74371882086167	112.89464852607709	59	127
112.89464852607709	112.99913832199546	57	127
113.18489795918367	113.31260770975057	76	127
113.18489795918367	113.31260770975057	64	127
113.44031746031746	113.49836734693878	78	127
113.44031746031746	113.49836734693878	66	127
113.5215873015873	113.59124716553288	78	127
113.5215873015873	113.95115646258503	43	127
113.5215873015873	113.59124716553288	66	127
113.73056689342404	114.34589569160998	76	127
113.73056689342404	114.34589569160998	64	127
113.95115646258503	114.0556462585034	45	127
114.0556462585034	114.1833560090703	43	127
114.34589569160998	114.40394557823129	66	127
114.34589569160998	114.40394557823129	78	127
114.5548752834467	114.67097505668934	79	127
114.5548752834467	114.67097505668934	67	127
114.79868480725624	114.91478458049886	67	127
114.79868480725624	115.29791383219954	55	127
114.79868480725624	114.91478458049886	79	127
115.01927437641723	115.69265306122449	73	127
115.01927437641723	115.69265306122449	61	127
115.29791383219954	115.37918367346938	59	127
115.37918367346938	115.50689342403628	57	127
115.50689342403628	115.61138321995465	55	127
115.69265306122449	115.78553287981859	74	127
115.69265306122449	115.78553287981859	62	127
115.91324263038548	116.04095238095238	76	127
115.91324263038548	116.04095238095238	64	127
116.18027210884354	116.29637188208616	64	127
116.18027210884354	116.29637188208616	76	127
116.18027210884354	116.60984126984127	42	127
116.38925170068028	117.00458049886622	62	127
116.38925170068028	117.00458049886622	74	127
116.60984126984127	116.7259410430839	45	127
116.7259410430839	116.86526077097506	43	127
116.86526077097506	116.9465306122449	42	127
117.00458049886622	117.12068027210884	64	127
117.00458049886622	117.12068027210884	76	127
117.24839002267574	117.27160997732426	66	127
117.24839002267574	117.27160997732426	78	127
117.41092970521542	117.67795918367347	69	127
117.41092970521542	117.67795918367347	81	127
117.67795918367347	117.8869387755102	67	127
117.67795918367347	117.8869387755102	79	127
117.95659863945578	118.21201814058956	47	127
117.95659863945578	118.21201814058956	59	127
118.21201814058956	118.39777777777778	67	127
118.21201814058956	118.39777777777778	79	127
118.39777777777778	118.49065759637188	78	127
118.39777777777778	118.49065759637188	66	127
118.5487074829932	118.80412698412698	45	127
118.5487074829932	118.80412698412698	57	127
118.80412698412698	119.01310657596372	70	127
118.80412698412698	119.01310657596372	82	127
119.01310657596372	119.21047619047619	71	127
119.01310657596372	119.21047619047619	83	127
119.2685260770975	119.52394557823129	43	127
119.2685260770975	119.52394557823129	55	127
119.52394557823129	119.74453514739228	73	127
119.52394557823129	119.74453514739228	85	127
119.74453514739228	119.94190476190477	74	127
119.74453514739228	119.94190476190477	86	127
119.96512471655329	120.13927437641723	42	127
119.96512471655329	120.13927437641723	54	127
120.13927437641723	120.34825396825397	87	127
120.13927437641723	120.34825396825397	75	127
120.34825396825397	120.53401360544218	76	127
120.34825396825397	120.53401360544218	88	127
120.60367346938776	120.88231292517007	55	127
120.60367346938776	120.88231292517007	43	127
120.88231292517007	121.10290249433106	74	127
120.88231292517007	121.10290249433106	86	127
121.10290249433106	121.24222222222222	73	127
121.10290249433106	121.24222222222222	85	127
121.28866213151927	121.53247165532879	57	127
121.28866213151927	121.53247165532879	45	127
121.53247165532879	122.32195011337869	76	127
121.53247165532879	121.82272108843537	38	127
121.53247165532879	122.32195011337869	88	127
121.82272108843537	121.95043083900227	50	127
122.08975056689343	122.24068027210885	50	127
122.32195011337869	122.54253968253968	74	127
122.32195011337869	122.54253968253968	86	127
122.32195011337869	122.58897959183673	50	127
122.94888888888889	123.68031746031745	62	127
122.94888888888889	123.68031746031745	65	127
122.94888888888889	123.68031746031745	50	127
122.94888888888889	123.68031746031745	53	127
123.68031746031745	124.14471655328798	55	127
123.68031746031745	124.14471655328798	67	127
123.68031746031745	124.14471655328798	70	127
123.68031746031745	124.14471655328798	58	127
124.14471655328798	124.38852607709751	65	127
124.14471655328798	124.38852607709751	69	127
124.14471655328798	124.38852607709751	53	127
124.14471655328798	124.38852607709751	57	127
124.38852607709751	124.89936507936508	67	127
124.38852607709751	124.89936507936508	55	127
124.38852607709751	124.89936507936508	64	127
124.38852607709751	124.89936507936508	52	127
124.89936507936508	125.18961451247165	53	127
124.89936507936508	125.18961451247165	62	127
124.89936507936508	125.18961451247165	65	127
124.89936507936508	125.18961451247165	50	127
125.18961451247165	125.29410430839002	57	127
125.18961451247165	125.29410430839002	61	127
125.18961451247165	125.29410430839002	64	127
125.18961451247165	125.29410430839002	45	127
125.18961451247165	125.29410430839002	49	127
125.18961451247165	125.29410430839002	52	127
125.81655328798186	126.23451247165534	81	127
126.23451247165534	126.36222222222223	85	127
126.36222222222223	126.46671201814058	83	127
126.46671201814058	126.5247619047619	81	127
127.16331065759637	127.63931972789116	81	127
127.63931972789116	127.74380952380952	84	127
127.74380952380952	127.82507936507936	83	127
127.82507936507936	127.91795918367347	81	127
128.5448979591837	129.14861678004536	81	127
129.14861678004536	129.27632653061224	84	127
129.27632653061224	129.3227664399093	82	127
129.3227664399093	129.34598639455783	81	127
129.97292517006804	130.6695238095238	53	127
129.97292517006804	130.6695238095238	57	127
129.97292517006804	130.6695238095238	65	127
129.97292517006804	130.6695238095238	69	127
130.6695238095238	131.2384126984127	70	127
130.6695238095238	131.2384126984127	74	127
130.6695238095238	131.2384126984127	58	127
130.6695238095238	131.2384126984127	62	127
131.2384126984127	131.54027210884354	57	127
131.2384126984127	131.54027210884354	69	127
131.2384126984127	131.54027210884354	72	127
131.2384126984127	131.54027210884354	60	127
131.54027210884354	131.9930612244898	67	127
131.54027210884354	131.9930612244898	70	127
131.54027210884354	131.9930612244898	55	127
131.54027210884354	131.9930612244898	58	127
131.9930612244898	132.26009070294785	69	127
131.9930612244898	132.26009070294785	65	127
131.9930612244898	132.26009070294785	53	127
131.9930612244898	132.26009070294785	57	127
132.26009070294785	132.32975056689344	61	127
132.26009070294785	132.32975056689344	64	127
132.26009070294785	132.32975056689344	67	127
132.26009070294785	132.32975056689344	49	127
132.26009070294785	132.32975056689344	52	127
132.26009070294785	132.32975056689344	55	127
132.86380952380952	133.36303854875283	79	127
133.36303854875283	133.47913832199546	82	127
133.47913832199546	133.5255782312925	81	127
133.5255782312925	133.6184580498866	79	127
134.2570068027211	134.74462585034013	79	127
134.74462585034013	134.89555555555555	82	127
134.89555555555555	134.96521541950113	80	127
134.96521541950113	135.04646258503402	79	127
135.65020408163267	136.17265306122448	79	127
136.17265306122448	136.3003628117914	82	127
136.3003628117914	136.3584126984127	80	127
136.37	136.88083900226758	79	127
136.88083900226758	136.96213151927438	82	127
136.96213151927438	137.10145124716553	80	127
137.13625850340136	137.50780045351473	79	127
137.50780045351473	137.63551020408164	82	127
137.63551020408164	137.67034013605442	80	127
137.69356009070296	138.15795918367348	79	127
138.15795918367348	138.28566893424036	82	127
138.28566893424036	138.36691609977325	80	127
138.401768707483	139.19124716553287	79	127
138.401768707483	139.19124716553287	70	127
138.401768707483	138.95904761904762	64	127
138.95904761904762	139.063537414966	61	127
139.063537414966	139.1564172335601	63	127
139.19124716553287	139.59759637188208	64	127
139.19124716553287	139.70208616780045	70	127
139.19124716553287	139.70208616780045	79	127
139.59759637188208	139.66725623582767	63	127
139.70208616780045	140.16648526077097	64	127
139.70208616780045	140.34063492063493	70	127
139.70208616780045	140.34063492063493	79	127
140.16648526077097	140.29419501133788	61	127
140.29419501133788	140.30578231292517	63	127
140.34063492063493	140.64249433106576	64	127
140.34063492063493	141.0140136054422	70	127
140.34063492063493	141.0140136054422	79	127
140.64249433106576	140.81662131519275	61	127
140.874693877551	140.9443537414966	61	127
141.0140136054422	141.64095238095237	66	127
141.0140136054422	141.64095238095237	78	127
141.0140136054422	141.21138321995466	58	127
141.21138321995466	141.36231292517007	64	127
141.4203628117914	141.50163265306122	64	127
141.64095238095237	141.90798185941043	62	127
141.64095238095237	142.2330612244898	78	127
141.64095238095237	142.2330612244898	66	127
141.90798185941043	142.08213151927438	59	127
142.1401814058957	142.151768707483	59	127
142.2330612244898	142.47687074829932	56	127
142.2330612244898	143.02253968253967	64	127
142.2330612244898	143.02253968253967	76	127
142.47687074829932	142.72068027210884	62	127
142.79034013605443	142.90643990929706	62	127
143.02253968253967	143.080589569161	60	127
143.02253968253967	143.42886621315193	64	127
143.02253968253967	143.42886621315193	76	127
143.080589569161	143.26634920634922	57	127
143.31278911564627	143.35922902494332	57	127
143.42886621315193	143.59142857142857	53	127
143.42886621315193	143.962947845805	74	127
143.42886621315193	143.962947845805	62	127
143.59142857142857	143.67269841269842	57	127
143.7075283446712	143.85845804988662	57	127
143.962947845805	144.24156462585034	53	127
143.962947845805	144.53183673469388	63	127
143.962947845805	144.53183673469388	75	127
144.24156462585034	144.35768707482993	57	127
144.35768707482993	144.39251700680273	57	127
144.53183673469388	144.81047619047618	74	127
144.53183673469388	144.81047619047618	62	127
144.53183673469388	144.81047619047618	40	127
144.81047619047618	144.92657596371882	52	127
145.05428571428573	145.14716553287982	52	127
145.20521541950114	145.2516553287982	52	127
145.32131519274375	145.46063492063493	52	127
145.59995464852608	145.66961451247167	52	127
145.71605442176872	146.34297052154196	50	127
145.71605442176872	145.77410430839004	64	127
145.71605442176872	145.8205442176871	52	127
145.77410430839004	145.85537414965987	68	127
145.85537414965987	145.92503401360545	71	127
145.92503401360545	145.9830612244898	76	127
145.92503401360545	146.02952380952382	52	127
145.9830612244898	146.05274376417233	80	127
146.05274376417233	146.14562358276643	83	127
146.14562358276643	146.2268934240363	88	127
146.14562358276643	146.2501133786848	52	127
146.34297052154196	146.5635827664399	47	127
146.34297052154196	146.42426303854876	88	127
146.34297052154196	146.42426303854876	52	127
146.5635827664399	146.62163265306123	88	127
146.5635827664399	146.62163265306123	52	127
146.5635827664399	146.62163265306123	44	127
146.73773242630386	146.84222222222223	52	127
146.98154195011338	147.07442176870748	52	127
147.2253514739229	147.3530612244898	52	127
147.51557823129252	147.65492063492064	52	127
147.78263038548752	147.93356009070294	52	127
148.09609977324263	148.79267573696146	50	127
148.09609977324263	148.23541950113378	52	127
148.09609977324263	148.18897959183673	64	127
148.18897959183673	148.28183673469388	68	127
148.28183673469388	148.37473922902495	71	127
148.37473922902495	148.47922902494332	76	127
148.37473922902495	148.50244897959183	52	127
148.47922902494332	148.54888888888888	80	127
148.54888888888888	148.63015873015874	83	127
148.63015873015874	148.6765986394558	88	127
148.63015873015874	148.6998185941043	52	127
148.79267573696146	148.862358276644	88	127
148.79267573696146	149.34997732426305	47	127
148.79267573696146	148.862358276644	52	127
148.90879818594104	149.03650793650795	52	127
148.90879818594104	149.03650793650795	88	127
149.12938775510204	149.24548752834468	52	127
149.12938775510204	149.24548752834468	88	127
149.34997732426305	149.51249433106577	88	127
149.34997732426305	149.51249433106577	52	127
149.34997732426305	149.51249433106577	44	127
149.62861678004535	149.64022675736962	52	127
149.73310657596372	149.84920634920636	52	127
149.95369614512472	150.0581859410431	52	127
150.18589569160997	150.29038548752834	52	127
150.40648526077098	150.49936507936508	52	127
150.54580498866213	150.6502947845805	64	127
150.54580498866213	150.68510204081633	52	127
150.54580498866213	151.26562358276644	50	127
150.6502947845805	150.71995464852608	68	127
150.71995464852608	150.7780045351474	71	127
150.7780045351474	150.88249433106577	52	127
150.7780045351474	150.83603174603175	76	127
150.83603174603175	150.94052154195012	80	127
150.94052154195012	151.02181405895692	83	127
151.02181405895692	151.1495238095238	52	127
151.02181405895692	151.1263038548753	88	127
151.26562358276644	151.35850340136054	88	127
151.26562358276644	151.78807256235828	47	127
151.26562358276644	151.35850340136054	52	127
151.48621315192744	151.55585034013606	52	127
151.48621315192744	151.55585034013606	88	127
151.63714285714286	151.66036281179137	52	127
151.63714285714286	151.66036281179137	88	127
151.78807256235828	151.91578231292516	88	127
151.78807256235828	151.91578231292516	52	127
151.78807256235828	151.91578231292516	44	127
152.20603174603175	152.31052154195012	64	127
152.31052154195012	152.40340136054422	63	127
152.40340136054422	152.46145124716554	64	127
152.46145124716554	152.61238095238096	63	127
152.61238095238096	152.71687074829933	64	127
152.71687074829933	152.8445804988662	63	127
152.8445804988662	152.97229024943312	64	127
152.97229024943312	153.08836734693878	63	127
153.12321995464853	153.33219954648527	64	127
153.12321995464853	153.8894784580499	57	127
153.12321995464853	153.8894784580499	49	127
153.12321995464853	153.8894784580499	52	127
153.12321995464853	153.8894784580499	45	127
153.33219954648527	153.4134693877551	69	127
153.4134693877551	153.52956916099774	73	127
153.64566893424038	154.12167800453514	73	127
153.8894784580499	154.34226757369615	62	127
153.8894784580499	154.34226757369615	66	127
154.12167800453514	154.202947845805	71	127
154.34226757369615	154.49319727891157	64	127
154.34226757369615	154.49319727891157	61	127
154.34226757369615	154.77181405895692	69	127
154.49319727891157	155.0156462585034	59	127
154.49319727891157	155.0156462585034	62	127
154.77181405895692	154.85310657596372	68	127
155.0156462585034	155.16657596371883	69	127
155.0156462585034	155.31750566893425	57	127
155.0156462585034	155.31750566893425	61	127
155.31750566893425	155.4219954648526	52	127
155.31750566893425	155.4219954648526	56	127
155.31750566893425	155.4219954648526	59	127
155.31750566893425	155.4568253968254	71	127
155.92122448979592	156.44367346938776	66	127
155.92122448979592	156.44367346938776	71	127
155.92122448979592	156.44367346938776	62	127
156.44367346938776	156.61780045351475	61	127
156.44367346938776	156.61780045351475	64	127
156.44367346938776	156.61780045351475	70	127
156.44367346938776	156.61780045351475	73	127
156.61780045351475	157.12863945578232	66	127
156.61780045351475	157.12863945578232	71	127
156.61780045351475	157.12863945578232	74	127
156.61780045351475	157.12863945578232	59	127
157.12863945578232	157.4073015873016	67	127
157.12863945578232	157.4073015873016	73	127
157.12863945578232	157.4073015873016	76	127
157.12863945578232	157.4073015873016	52	127
157.4073015873016	157.7904081632653	66	127
157.4073015873016	157.7904081632653	71	127
157.4073015873016	157.7904081632653	74	127
157.4073015873016	157.7904081632653	54	127
157.7904081632653	158.0574603174603	64	127
157.7904081632653	158.0574603174603	70	127
157.7904081632653	158.0574603174603	73	127
157.7904081632653	158.0574603174603	42	127
158.0574603174603	158.16195011337868	62	127
158.0574603174603	158.16195011337868	66	127
158.0574603174603	158.16195011337868	71	127
158.0574603174603	158.16195011337868	47	127
158.76566893424035	159.40421768707483	50	127
158.76566893424035	159.40421768707483	57	127
158.76566893424035	159.40421768707483	62	127
158.76566893424035	159.40421768707483	66	127
158.76566893424035	159.40421768707483	54	127
159.40421768707483	159.8570068027211	55	127
159.40421768707483	159.8570068027211	59	127
159.40421768707483	159.8570068027211	64	127
159.8570068027211	160.06598639455783	62	127
159.8570068027211	160.06598639455783	57	127
159.8570068027211	160.06598639455783	54	127
160.06598639455783	160.46072562358276	55	127
160.06598639455783	160.46072562358276	57	127
160.06598639455783	160.46072562358276	61	127
160.06598639455783	160.46072562358276	52	127
160.46072562358276	160.77419501133787	57	127
160.46072562358276	160.77419501133787	62	127
160.46072562358276	160.77419501133787	50	127
160.46072562358276	160.77419501133787	54	127
160.77419501133787	160.8902947845805	49	127
160.77419501133787	160.8902947845805	52	127
160.77419501133787	160.8902947845805	64	127
160.77419501133787	160.8902947845805	57	127
161.36628117913833	162.07451247165534	57	127
161.36628117913833	161.85392290249433	64	127
161.36628117913833	162.07451247165534	49	127
161.85392290249433	162.07451247165534	65	127
162.07451247165534	162.1790022675737	57	127
162.07451247165534	162.5505215419501	50	127
162.07451247165534	162.1790022675737	66	127
162.5505215419501	162.74786848072563	51	127
162.74786848072563	163.29356009070295	52	127
162.74786848072563	163.29356009070295	57	127
162.74786848072563	163.29356009070295	61	127
163.29356009070295	163.58380952380952	56	127
163.29356009070295	163.58380952380952	62	127
163.29356009070295	163.58380952380952	40	127
163.58380952380952	163.6882993197279	57	127
163.58380952380952	163.6882993197279	61	127
163.58380952380952	163.6882993197279	45	127
164.02496598639456	164.3152380952381	76	127
164.1526984126984	164.68675736961453	69	127
164.3152380952381	164.38487528344672	81	127
164.38487528344672	164.44294784580498	85	127
164.54743764172335	164.9421768707483	85	127
164.68675736961453	165.26725623582766	74	127
164.9421768707483	165.05827664399092	83	127
165.26725623582766	165.68521541950113	81	127
165.26725623582766	165.48784580498867	73	127
165.48784580498867	165.89419501133787	71	127
165.68521541950113	165.76646258503402	80	127
165.89419501133787	166.1380045351474	69	127
165.89419501133787	166.0218820861678	81	127
166.1380045351474	166.2657142857143	64	127
166.1380045351474	166.2657142857143	68	127
166.1380045351474	166.2889342403628	83	127
166.7649433106576	167.3338321995465	83	127
166.7649433106576	167.3338321995465	62	127
166.7649433106576	167.3338321995465	71	127
167.3338321995465	167.58925170068028	85	127
167.3338321995465	167.58925170068028	61	127
167.3338321995465	167.58925170068028	70	127
167.58925170068028	167.86789115646258	71	127
167.58925170068028	167.86789115646258	86	127
167.58925170068028	167.86789115646258	59	127
167.86789115646258	168.10009070294785	64	127
167.86789115646258	168.10009070294785	88	127
167.86789115646258	168.10009070294785	71	127
168.10009070294785	168.63414965986394	86	127
168.10009070294785	168.63414965986394	66	127
168.10009070294785	168.63414965986394	71	127
168.63414965986394	168.93598639455783	70	127
168.63414965986394	168.68056689342404	86	127
168.63414965986394	168.93598639455783	66	127
168.68056689342404	168.7734693877551	85	127
168.7734693877551	168.85473922902494	83	127
168.85473922902494	168.93598639455783	85	127
168.93598639455783	169.08691609977325	83	127
168.93598639455783	169.08691609977325	59	127
168.93598639455783	169.08691609977325	71	127
169.53972789115647	170.17827664399093	54	127
169.53972789115647	170.17827664399093	50	127
169.59775510204082	169.7138775510204	57	127
169.7138775510204	169.8415873015873	62	127
169.8415873015873	169.9344671201814	66	127
169.9344671201814	170.03895691609978	69	127
170.03895691609978	170.14344671201815	74	127
170.17827664399093	170.63106575963718	59	127
170.17827664399093	170.32920634920634	71	127
170.17827664399093	170.63106575963718	55	127
170.32920634920634	170.39886621315193	70	127
170.39886621315193	170.51496598639457	73	127
170.51496598639457	170.63106575963718	71	127
170.63106575963718	170.74716553287982	69	127
170.63106575963718	170.86326530612246	54	127
170.63106575963718	170.86326530612246	57	127
170.74716553287982	170.8516553287982	71	127
170.86326530612246	171.24639455782312	52	127
170.86326530612246	170.96775510204083	67	127
170.86326530612246	171.24639455782312	55	127
170.96775510204083	171.0374149659864	66	127
171.0374149659864	171.14190476190475	69	127
171.14190476190475	171.24639455782312	67	127
171.24639455782312	171.37410430839003	66	127
171.24639455782312	171.52503401360545	50	127
171.24639455782312	171.52503401360545	54	127
171.37410430839003	171.4901814058957	67	127
171.52503401360545	171.60630385487528	64	127
171.52503401360545	171.58308390022677	49	127
171.52503401360545	171.58308390022677	52	127
171.60630385487528	171.71079365079365	69	127
171.71079365079365	171.80367346938775	68	127
171.80367346938775	171.85009070294785	69	127
171.85009070294785	172.01265306122448	64	127
172.01265306122448	172.11714285714285	61	127
172.1403628117914	172.27968253968254	57	127
172.1403628117914	172.75569160997733	37	127
172.1403628117914	172.75569160997733	49	127
172.27968253968254	172.4190022675737	59	127
172.4190022675737	172.55832199546487	57	127
172.55832199546487	172.68603174603174	69	127
172.68603174603174	172.72086167800452	68	127
172.72086167800452	172.7324716553288	69	127
172.75569160997733	173.32458049886623	50	127
172.75569160997733	172.90662131519275	69	127
172.75569160997733	173.32458049886623	38	127
172.90662131519275	173.0459410430839	71	127
173.0459410430839	173.1736507936508	69	127
173.1736507936508	173.32458049886623	81	127
173.32458049886623	173.4290702947846	80	127
173.32458049886623	173.5451700680272	39	127
173.32458049886623	173.5451700680272	51	127
173.4290702947846	173.51034013605442	81	127
173.5451700680272	174.06761904761905	52	127
173.5451700680272	173.69609977324262	73	127
173.5451700680272	174.06761904761905	40	127
173.69609977324262	173.8354195011338	69	127
173.8354195011338	173.99793650793652	64	127
173.99793650793652	174.16049886621315	61	127
174.16049886621315	174.4971882086168	40	127
174.16049886621315	174.32303854875283	62	127
174.32303854875283	174.4971882086168	68	127
174.4971882086168	174.62489795918367	69	127
174.4971882086168	174.62489795918367	61	127
174.4971882086168	174.6597052154195	33	127
174.4971882086168	174.6597052154195	45	127
175.15895691609978	175.19378684807256	64	127
175.19378684807256	175.22861678004534	85	127
175.22861678004534	175.43759637188208	88	127
175.43759637188208	175.6233560090703	86	127
175.68138321995465	175.78587301587302	83	127
175.68138321995465	175.78587301587302	56	127
175.68138321995465	175.78587301587302	59	127
175.68138321995465	175.78587301587302	62	127
175.68138321995465	175.78587301587302	64	127
175.8787755102041	176.08775510204083	84	127
176.08775510204083	176.27351473922903	85	127
176.33156462585035	176.4708843537415	81	127
176.33156462585035	176.4708843537415	57	127
176.33156462585035	176.4708843537415	61	127
176.33156462585035	176.4708843537415	64	127
176.61020408163265	176.77274376417233	82	127
176.77274376417233	176.92367346938775	83	127
176.98172335600907	177.12104308390022	76	127
176.98172335600907	177.12104308390022	52	127
176.98172335600907	177.12104308390022	56	127
176.98172335600907	177.12104308390022	59	127
176.98172335600907	177.12104308390022	64	127
177.81764172335602	178.11950113378686	32	127
177.81764172335602	178.11950113378686	44	127
178.11950113378686	178.21238095238095	52	127
178.21238095238095	178.22399092970522	59	127
178.22399092970522	178.28204081632654	62	127
178.28204081632654	178.37492063492064	64	127
178.4909977324263	178.71160997732426	33	127
178.4909977324263	178.71160997732426	45	127
178.71160997732426	178.79287981859412	52	127
178.79287981859412	178.86253968253968	57	127
178.86253968253968	178.96702947845804	61	127
178.96702947845804	179.05990929705214	64	127
179.12956916099773	179.33854875283447	40	127
179.33854875283447	179.44303854875284	52	127
179.44303854875284	179.5475283446712	56	127
179.5475283446712	179.6404081632653	59	127
179.6404081632653	179.69845804988663	64	127
179.84938775510204	179.91904761904763	64	127
179.84938775510204	179.91904761904763	52	127
179.91904761904763	179.94226757369614	69	127
179.91904761904763	179.94226757369614	57	127
179.94226757369614	180.03514739229024	72	127
179.94226757369614	180.03514739229024	60	127
180.03514739229024	180.10480725623583	76	127
180.03514739229024	180.10480725623583	64	127
180.10480725623583	180.19768707482993	81	127
180.10480725623583	180.19768707482993	69	127
180.19768707482993	180.2789569160998	84	127
180.19768707482993	180.2789569160998	72	127
180.2789569160998	180.36022675736962	88	127
180.2789569160998	180.36022675736962	76	127
180.5227664399093	180.81301587301587	88	127
180.5227664399093	180.81301587301587	76	127
180.81301587301587	180.89426303854876	86	127
180.81301587301587	180.89426303854876	74	127
180.9639455782313	181.06843537414966	83	127
180.9639455782313	181.06843537414966	71	127
181.1845351473923	181.43995464852608	83	127
181.1845351473923	181.43995464852608	71	127
181.43995464852608	181.56766439909296	84	127
181.43995464852608	181.56766439909296	72	127
181.60249433106577	181.71859410430838	81	127
181.60249433106577	181.71859410430838	69	127
181.85791383219956	182.07850340136054	82	127
181.85791383219956	182.07850340136054	70	127
182.07850340136054	182.24104308390022	83	127
182.07850340136054	182.24104308390022	71	127
182.29909297052154	182.41519274376418	76	127
182.29909297052154	182.41519274376418	64	127
183.10018140589568	183.378820861678	32	127
183.10018140589568	183.378820861678	44	127
183.378820861678	183.48331065759638	52	127
183.48331065759638	183.552947845805	59	127
183.552947845805	183.61102040816326	62	127
183.61102040816326	183.73873015873016	64	127
183.84321995464853	184.1102494331066	33	127
183.84321995464853	184.1102494331066	45	127
184.1102494331066	184.14507936507937	52	127
184.14507936507937	184.17990929705215	57	127
184.17990929705215	184.2727664399093	60	127
184.2727664399093	184.33083900226757	64	127
184.38888888888889	184.6094784580499	40	127
184.6094784580499	184.71396825396826	52	127
184.71396825396826	184.80684807256236	56	127
184.80684807256236	184.87650793650795	59	127
184.87650793650795	184.89972789115646	64	127
185.0854648526077	185.3292970521542	71	127
185.0854648526077	185.3292970521542	59	127
185.3292970521542	185.4918367346939	72	127
185.3292970521542	185.4918367346939	60	127
185.54986394557824	185.61954648526077	57	127
185.54986394557824	185.61954648526077	69	127
185.75886621315192	185.93301587301588	70	127
185.75886621315192	185.93301587301588	58	127
185.93301587301588	186.16521541950112	71	127
185.93301587301588	186.16521541950112	59	127
186.20004535147393	186.2697052154195	52	127
186.20004535147393	186.2697052154195	64	127
186.36258503401362	186.6528344671202	45	127
186.36258503401362	186.6528344671202	57	127
186.6528344671202	186.75732426303856	64	127
186.75732426303856	186.86181405895692	69	127
186.86181405895692	186.95469387755102	72	127
186.95469387755102	187.0591836734694	76	127
187.19850340136054	187.395873015873	40	127
187.19850340136054	187.395873015873	52	127
187.395873015873	187.50036281179138	64	127
187.50036281179138	187.57002267573696	68	127
187.57002267573696	187.66290249433106	71	127
187.66290249433106	187.6977097505669	76	127
187.75578231292516	188.08086167800454	71	127
188.08086167800454	188.32467120181406	72	127
188.4059410430839	188.55687074829933	72	127
188.73102040816326	189.39278911564625	72	127
188.73102040816326	188.87031746031747	57	127
188.87031746031747	188.96321995464854	60	127
188.96321995464854	189.04448979591837	64	127
189.04448979591837	189.17219954648527	60	127
189.17219954648527	189.2534693877551	57	127
189.2534693877551	189.39278911564625	60	127
189.39278911564625	189.53208616780046	53	127
189.39278911564625	190.0661678004535	74	127
189.53208616780046	189.6598185941043	57	127
189.6598185941043	189.70625850340136	62	127
189.70625850340136	189.822358276644	57	127
189.822358276644	189.9152380952381	53	127
189.9152380952381	190.0661678004535	57	127
190.0661678004535	190.6698866213152	67	127
190.0661678004535	190.18226757369615	55	127
190.18226757369615	190.3215873015873	59	127
190.3215873015873	190.47251700680272	62	127
190.47251700680272	190.49573696145126	59	127
190.49573696145126	190.61183673469387	55	127
190.61183673469387	190.75115646258504	59	127
190.71632653061224	190.75115646258504	74	127
190.75115646258504	190.99496598639456	72	127
190.75115646258504	190.84403628117914	52	127
190.84403628117914	190.99496598639456	55	127
190.99496598639456	191.08784580498866	60	127
190.99496598639456	191.1691156462585	71	127
191.08784580498866	191.23877551020408	55	127
191.23877551020408	191.34326530612245	72	127
191.23877551020408	191.34326530612245	52	127
191.34326530612245	191.43614512471655	55	127
191.43614512471655	191.52902494331065	53	127
191.43614512471655	192.02825396825398	74	127
191.52902494331065	191.57546485260772	57	127
191.57546485260772	191.69156462585033	62	127
191.69156462585033	191.74961451247165	57	127
191.74961451247165	191.91215419501134	53	127
191.91215419501134	192.02825396825398	57	127
192.02825396825398	192.66680272108843	79	127
192.02825396825398	192.1791836734694	55	127
192.1791836734694	192.295283446712	59	127
192.295283446712	192.3649433106576	65	127
192.3649433106576	192.4578231292517	59	127
192.4578231292517	192.57392290249433	55	127
192.57392290249433	192.66680272108843	59	127
192.66680272108843	192.6784126984127	76	127
192.66680272108843	192.7016326530612	48	127
192.7016326530612	192.82934240362812	60	127
192.82934240362812	192.9338321995465	59	127
192.9338321995465	193.01510204081632	60	127
193.01510204081632	193.1544217687075	59	127
193.1544217687075	193.3053514739229	60	127
193.3053514739229	193.31696145124715	59	127
193.3053514739229	193.45628117913833	80	127
193.31696145124715	193.45628117913833	60	127
193.45628117913833	193.59560090702948	59	127
193.45628117913833	193.66526077097507	81	127
193.59560090702948	193.71170068027212	60	127
193.71170068027212	193.82780045351473	81	127
193.71170068027212	193.82780045351473	59	127
193.82780045351473	193.94390022675736	60	127
193.94390022675736	194.07160997732427	53	127
193.94390022675736	194.5592290249433	81	127
194.07160997732427	194.2225396825397	57	127
194.2225396825397	194.36185941043084	60	127
194.36185941043084	194.47795918367348	57	127
194.47795918367348	194.48956916099775	53	127
194.48956916099775	194.5592290249433	57	127
194.5592290249433	194.71015873015872	50	127
194.5592290249433	195.17455782312925	83	127
194.71015873015872	194.76820861678004	53	127
194.76820861678004	194.89591836734695	59	127
194.89591836734695	194.98879818594105	53	127
194.98879818594105	195.0352380952381	50	127
195.0352380952381	195.17455782312925	53	127
195.17455782312925	195.2906575963719	52	127
195.17455782312925	195.70861678004536	76	127
195.2906575963719	195.38353741496599	56	127
195.38353741496599	195.52285714285713	59	127
195.52285714285713	195.63895691609977	56	127
195.63895691609977	195.6970068027211	52	127
195.6970068027211	195.80149659863946	56	127
195.76666666666668	195.80149659863946	83	127
195.80149659863946	195.9408163265306	49	127
195.80149659863946	195.99886621315193	81	127
195.9408163265306	196.04530612244898	52	127
196.04530612244898	196.16140589569162	57	127
196.04530612244898	196.16140589569162	80	127
196.16140589569162	196.20784580498866	52	127
196.20784580498866	196.31233560090703	81	127
196.20784580498866	196.31233560090703	49	127
196.31233560090703	196.4400453514739	52	127
196.4400453514739	196.97410430839003	83	127
196.4400453514739	196.56775510204082	50	127
196.56775510204082	196.63741496598638	54	127
196.63741496598638	196.75351473922902	59	127
196.75351473922902	196.86961451247166	54	127
196.86961451247166	196.97410430839003	54	127
196.97410430839003	197.90290249433107	88	127
196.97410430839003	197.12503401360544	50	127
197.12503401360544	197.25274376417232	56	127
197.25274376417232	197.31079365079364	59	127
197.31079365079364	197.43850340136055	56	127
197.43850340136055	197.53138321995465	50	127
197.53138321995465	197.68231292517007	56	127
197.68231292517007	197.82163265306122	49	127
197.82163265306122	197.90290249433107	57	127
197.90290249433107	197.9609523809524	88	127
197.90290249433107	197.9609523809524	56	127
197.9609523809524	198.03061224489795	57	127
198.03061224489795	198.1467120181406	49	127
198.03061224489795	198.4834013605442	88	127
198.1467120181406	198.25120181405896	58	127
198.25120181405896	198.37891156462584	50	127
198.37891156462584	198.4834013605442	59	127
198.4834013605442	198.5530612244898	58	127
198.4834013605442	198.58789115646258	86	127
198.5530612244898	198.62272108843538	59	127
198.62272108843538	198.6807709750567	83	127
198.62272108843538	198.6807709750567	50	127
198.6807709750567	198.80848072562358	59	127
198.80848072562358	198.9361904761905	52	127
198.80848072562358	199.01746031746032	80	127
198.9361904761905	199.01746031746032	61	127
199.01746031746032	199.09873015873015	57	127
199.01746031746032	199.19160997732428	81	127
199.09873015873015	199.24965986394557	61	127
199.24965986394557	199.35414965986394	76	127
199.24965986394557	199.3657596371882	52	127
199.3657596371882	199.42380952380952	61	127
199.42380952380952	199.4934693877551	52	127
199.42380952380952	199.60956916099772	73	127
199.4934693877551	199.60956916099772	62	127
199.60956916099772	199.73727891156463	56	127
199.60956916099772	199.83015873015873	74	127
199.73727891156463	199.89981859410432	62	127
199.89981859410432	200.0275283446712	71	127
199.89981859410432	200.0275283446712	52	127
200.0275283446712	200.13201814058957	62	127
200.13201814058957	200.20167800453515	57	127
200.13201814058957	200.37582766439908	45	127
200.20167800453515	200.29455782312925	61	127
200.29455782312925	200.37582766439908	64	127
200.37582766439908	200.42226757369613	69	127
200.42226757369613	200.48031746031745	73	127
200.48031746031745	200.57319727891158	76	127
200.57319727891158	200.6544671201814	81	127
200.77056689342405	201.1885260770975	81	127
201.1885260770975	201.26979591836735	81	127
201.32784580498867	201.43233560090704	38	127
201.32784580498867	201.74580498866214	81	127
201.43233560090704	201.52521541950114	42	127
201.52521541950114	201.61809523809524	45	127
201.61809523809524	201.69936507936507	50	127
201.69936507936507	201.7225850340136	54	127
201.7225850340136	201.74580498866214	57	127
201.74580498866214	201.83868480725624	78	127
201.74580498866214	201.83868480725624	62	127
201.98961451247166	202.14054421768708	64	127
201.98961451247166	202.23342403628118	78	127
202.23342403628118	202.3611337868481	76	127
202.43079365079365	202.52367346938775	62	127
202.43079365079365	202.52367346938775	68	127
202.43079365079365	202.52367346938775	52	127
202.67460317460316	202.7674829931973	57	127
202.67460317460316	202.7907029478458	45	127
202.7674829931973	202.84875283446712	61	127
202.84875283446712	202.93002267573695	64	127
202.93002267573695	202.96485260770976	69	127
202.96485260770976	203.0461224489796	73	127
203.0461224489796	203.12739229024945	76	127
203.12739229024945	203.2667120181406	81	127
203.4524716553288	203.6962811791383	81	127
203.6962811791383	203.78916099773244	81	127
203.88204081632654	203.97492063492064	38	127
203.88204081632654	204.4857596371882	81	127
203.97492063492064	204.079410430839	42	127
204.079410430839	204.18390022675737	45	127
204.18390022675737	204.27678004535147	50	127
204.27678004535147	204.38126984126984	54	127
204.38126984126984	204.4857596371882	57	127
204.4857596371882	204.62507936507936	78	127
204.4857596371882	204.62507936507936	62	127
205.3100680272109	205.63514739229024	81	127
205.63514739229024	205.75124716553287	78	127
206.5291156462585	206.86580498866212	69	127
206.86580498866212	206.99351473922903	66	127
207.7597732426304	208.2241723356009	69	127
208.01519274376417	208.72340136054422	62	127
208.01519274376417	208.72340136054422	66	127
208.2241723356009	208.28222222222223	74	127
208.28222222222223	208.317052154195	78	127
208.4795918367347	208.9556009070295	78	127
208.72340136054422	209.21102040816328	67	127
208.72340136054422	209.21102040816328	71	127
208.9556009070295	209.03687074829932	76	127
209.21102040816328	209.44321995464853	66	127
209.21102040816328	209.44321995464853	69	127
209.21102040816328	209.62897959183672	74	127
209.44321995464853	209.93083900226756	67	127
209.44321995464853	209.93083900226756	64	127
209.68702947845804	209.81473922902495	73	127
209.93083900226756	210.03532879818593	74	127
209.93083900226756	210.19786848072562	62	127
209.93083900226756	210.19786848072562	66	127
210.19786848072562	210.32557823129252	61	127
210.19786848072562	210.32557823129252	64	127
210.19786848072562	210.34879818594104	69	127
210.19786848072562	210.34879818594104	76	127
210.87124716553288	212.2412244897959	57	127
210.87124716553288	211.27759637188208	64	127
210.87124716553288	211.27759637188208	76	127
210.87124716553288	211.54462585034014	49	127
211.27759637188208	211.54462585034014	65	127
211.27759637188208	211.54462585034014	77	127
211.54462585034014	211.6491156462585	78	127
211.54462585034014	212.07868480725622	50	127
211.54462585034014	211.6491156462585	66	127
212.07868480725622	212.27605442176872	51	127
212.33410430839	213.3790022675737	57	127
212.33410430839	212.83333333333334	67	127
212.33410430839	212.83333333333334	79	127
212.33410430839	212.995873015873	52	127
212.83333333333334	212.995873015873	80	127
212.83333333333334	212.995873015873	68	127
212.995873015873	213.1932426303855	53	127
212.995873015873	213.05392290249432	69	127
212.995873015873	213.05392290249432	81	127
213.1932426303855	213.42544217687075	54	127
213.46027210884353	214.9231292517007	52	127
213.46027210884353	214.02916099773242	43	127
213.46027210884353	214.02916099773242	55	127
213.6228117913832	213.76213151927436	58	127
213.76213151927436	213.9130612244898	64	127
213.9130612244898	214.02916099773242	70	127
214.02916099773242	214.1336507936508	59	127
214.02916099773242	214.27297052154196	44	127
214.02916099773242	214.27297052154196	56	127
214.1336507936508	214.23814058956916	71	127
214.27297052154196	214.72575963718822	45	127
214.27297052154196	214.72575963718822	57	127
214.4122902494331	214.52839002267575	60	127
214.52839002267575	214.60965986394558	64	127
214.60965986394558	214.72575963718822	72	127
214.72575963718822	214.9231292517007	46	127
214.72575963718822	214.9231292517007	58	127
214.72575963718822	214.81863945578232	61	127
214.81863945578232	214.88829931972788	73	127
214.9231292517007	215.36430839002267	59	127
214.9231292517007	215.36430839002267	47	127
215.01600907029479	215.12049886621315	62	127
215.12049886621315	215.2598185941043	69	127
215.2598185941043	215.36430839002267	74	127
215.36430839002267	215.5152380952381	63	127
215.36430839002267	215.58489795918368	48	127
215.36430839002267	215.58489795918368	60	127
215.5152380952381	215.59650793650795	75	127
215.61972789115646	216.22344671201813	61	127
215.61972789115646	216.22344671201813	49	127
215.61972789115646	216.85038548752834	57	127
215.7590476190476	215.84031746031746	64	127
215.84031746031746	215.90997732426302	69	127
215.90997732426302	215.9796371882086	76	127
215.9796371882086	216.11895691609976	65	127
216.11895691609976	216.20022675736962	77	127
216.22344671201813	216.85038548752834	62	127
216.22344671201813	216.85038548752834	50	127
216.51369614512473	216.62979591836734	66	127
216.62979591836734	216.65301587301587	78	127
216.67623582766439	216.72267573696146	68	127
216.72267573696146	216.82716553287983	80	127
216.85038548752834	216.9897052154195	69	127
216.85038548752834	217.50054421768706	51	127
216.85038548752834	217.50054421768706	54	127
216.85038548752834	217.50054421768706	57	127
216.85038548752834	217.50054421768706	60	127
216.9897052154195	217.0477551020408	81	127
217.08258503401362	217.1406349206349	71	127
217.1406349206349	217.22190476190477	83	127
217.23351473922904	217.37283446712019	72	127
217.37283446712019	217.47732426303855	84	127
217.50054421768706	218.1855328798186	57	127
217.50054421768706	218.1855328798186	52	127
217.50054421768706	218.1855328798186	61	127
217.50054421768706	217.62825396825397	73	127
217.62825396825397	217.69791383219956	85	127
217.72113378684807	217.7791836734694	74	127
217.7791836734694	217.8720634920635	86	127
217.90689342403627	218.38290249433106	75	127
217.90689342403627	218.38290249433106	87	127
218.1855328798186	218.92857142857142	59	127
218.1855328798186	218.92857142857142	52	127
218.1855328798186	218.92857142857142	62	127
218.38290249433106	218.55705215419502	76	127
218.38290249433106	218.55705215419502	88	127
218.61510204081634	218.76603174603176	68	127
218.61510204081634	218.76603174603176	80	127
218.92857142857142	219.03306122448978	81	127
218.92857142857142	219.03306122448978	69	127
218.92857142857142	219.03306122448978	45	127
219.04467120181405	219.1259410430839	57	127
219.2536507936508	219.3813605442177	57	127
219.52068027210885	219.6367800453515	57	127
219.52068027210885	219.93863945578232	62	127
219.52068027210885	219.93863945578232	66	127
219.76448979591837	219.83414965986395	57	127
219.93863945578232	220.07795918367347	57	127
219.93863945578232	220.05473922902493	61	127
219.93863945578232	220.05473922902493	64	127
220.1592290249433	221.50598639455782	45	127
220.1592290249433	220.2288888888889	64	127
220.1592290249433	221.50598639455782	47	127
220.1592290249433	221.50598639455782	50	127
220.1592290249433	221.50598639455782	56	127
220.2288888888889	220.31015873015872	68	127
220.31015873015872	220.40303854875285	71	127
220.40303854875285	220.48430839002268	76	127
220.48430839002268	220.5655782312925	80	127
220.5655782312925	220.64684807256236	83	127
220.64684807256236	220.70489795918368	88	127
220.80938775510205	220.92548752834466	88	127
221.0183673469388	221.1344671201814	88	127
221.204126984127	221.34344671201814	88	127
221.50598639455782	221.6685260770975	52	127
221.50598639455782	221.6685260770975	49	127
221.50598639455782	221.6685260770975	88	127
221.50598639455782	221.6685260770975	45	127
221.50598639455782	221.6685260770975	57	127
221.78462585034015	221.93555555555557	57	127
221.98199546485262	222.09809523809523	57	127
222.21419501133786	222.3302947845805	57	127
222.21419501133786	222.5508843537415	62	127
222.21419501133786	222.5508843537415	66	127
222.38834467120182	222.45800453514738	57	127
222.5508843537415	222.66698412698412	57	127
222.5508843537415	222.6437641723356	61	127
222.5508843537415	222.6437641723356	64	127
222.79469387755103	224.22272108843538	56	127
222.79469387755103	222.8991836734694	64	127
222.79469387755103	224.22272108843538	45	127
222.79469387755103	224.22272108843538	47	127
222.79469387755103	224.22272108843538	50	127
222.8991836734694	222.98045351473922	68	127
222.98045351473922	223.06172335600908	71	127
223.06172335600908	223.15460317460318	76	127
223.15460317460318	223.235873015873	80	127
223.235873015873	223.31714285714287	83	127
223.31714285714287	223.35197278911565	88	127
223.4912925170068	223.5841723356009	88	127
223.73510204081632	223.82798185941044	88	127
223.92086167800454	224.08340136054423	88	127
224.22272108843538	224.33882086167802	45	127
224.22272108843538	224.33882086167802	49	127
224.22272108843538	224.33882086167802	52	127
224.22272108843538	224.33882086167802	57	127
224.22272108843538	224.33882086167802	88	127
224.47814058956916	224.6174603174603	57	127
224.67551020408163	224.78	57	127
224.8728798185941	225.0354195011338	57	127
224.8728798185941	225.2792290249433	74	127
224.8728798185941	225.2792290249433	78	127
225.11668934240362	225.15151927437643	57	127
225.2792290249433	225.4069387755102	73	127
225.2792290249433	225.4069387755102	76	127
225.2792290249433	225.43015873015872	57	127
225.5694784580499	226.80013605442176	56	127
225.5694784580499	226.80013605442176	50	127
225.5694784580499	225.662358276644	64	127
225.5694784580499	226.80013605442176	47	127
225.5694784580499	226.80013605442176	45	127
225.662358276644	225.74362811791383	68	127
225.74362811791383	225.83650793650793	71	127
225.83650793650793	225.95260770975057	76	127
225.95260770975057	226.0338775510204	80	127
226.0338775510204	226.12675736961452	83	127
226.12675736961452	226.20802721088435	88	127
226.39378684807255	226.54471655328797	88	127
226.57954648526078	226.64920634920634	88	127
226.80013605442176	226.89301587301588	52	127
226.80013605442176	226.86979591836734	76	127
226.80013605442176	226.89301587301588	45	127
226.80013605442176	226.89301587301588	49	127
226.80013605442176	226.89301587301588	57	127
226.86979591836734	226.9162358276644	81	127
226.9162358276644	227.02072562358276	85	127
227.02072562358276	227.11360544217686	88	127
227.2993650793651	227.38063492063492	73	127
227.38063492063492	227.40385487528346	76	127
227.40385487528346	227.47351473922902	81	127
227.47351473922902	227.58961451247166	85	127
227.7289342403628	227.77537414965985	69	127
227.77537414965985	227.84503401360544	73	127
227.84503401360544	227.91469387755103	76	127
227.91469387755103	228.0191836734694	81	127
228.135283446712	228.22816326530614	64	127
228.135283446712	228.22816326530614	52	127
228.22816326530614	228.2978231292517	69	127
228.22816326530614	228.2978231292517	57	127
228.2978231292517	228.36748299319729	73	127
228.2978231292517	228.36748299319729	61	127
228.36748299319729	228.44875283446711	76	127
228.36748299319729	228.44875283446711	64	127
228.62290249433107	228.69256235827663	61	127
228.62290249433107	228.69256235827663	49	127
228.69256235827663	228.75061224489795	64	127
228.69256235827663	228.75061224489795	52	127
228.75061224489795	228.8318820861678	69	127
228.75061224489795	228.8318820861678	57	127
228.8318820861678	228.93637188208618	73	127
228.8318820861678	228.93637188208618	61	127
229.06408163265306	229.15696145124716	57	127
229.06408163265306	229.15696145124716	45	127
229.15696145124716	229.22662131519274	61	127
229.15696145124716	229.22662131519274	49	127
229.22662131519274	229.30789115646257	64	127
229.22662131519274	229.30789115646257	52	127
229.30789115646257	229.34272108843538	69	127
229.30789115646257	229.34272108843538	57	127
229.44721088435375	229.52848072562358	52	127
229.44721088435375	229.52848072562358	40	127
229.52848072562358	229.62136054421768	57	127
229.52848072562358	229.62136054421768	45	127
229.62136054421768	229.69102040816327	61	127
229.62136054421768	229.69102040816327	49	127
229.69102040816327	229.71424036281178	64	127
229.69102040816327	229.71424036281178	52	127
229.8419501133787	229.92321995464852	49	127
229.8419501133787	229.92321995464852	37	127
229.92321995464852	229.9928798185941	52	127
229.92321995464852	229.9928798185941	40	127
229.9928798185941	230.09736961451247	57	127
229.9928798185941	230.09736961451247	45	127
230.09736961451247	230.1786394557823	61	127
230.09736961451247	230.1786394557823	49	127
230.341179138322	230.42244897959185	45	127
230.341179138322	230.42244897959185	33	127
230.42244897959185	230.51532879818595	49	127
230.42244897959185	230.51532879818595	37	127
230.51532879818595	230.55015873015873	52	127
230.51532879818595	230.55015873015873	40	127
230.55015873015873	230.66625850340137	57	127
230.55015873015873	230.66625850340137	45	127
230.81718820861678	231.02616780045352	38	127
230.81718820861678	231.02616780045352	42	127
230.81718820861678	231.02616780045352	47	127
230.81718820861678	231.02616780045352	50	127
231.02616780045352	231.07260770975057	54	127
231.07260770975057	231.1306575963719	59	127
231.1306575963719	231.1887074829932	62	127
231.1887074829932	231.26997732426304	66	127
231.43251700680273	231.7227664399093	40	127
231.43251700680273	231.7227664399093	47	127
231.43251700680273	231.7227664399093	50	127
231.43251700680273	231.7227664399093	52	127
231.7227664399093	231.7808163265306	68	127
231.7808163265306	231.89691609977325	71	127
231.89691609977325	232.00140589569162	74	127
232.00140589569162	232.09428571428572	80	127
232.36131519274377	232.7908843537415	33	127
232.36131519274377	232.7908843537415	37	127
232.36131519274377	232.7908843537415	40	127
232.36131519274377	232.7908843537415	45	127
232.7908843537415	232.9185941043084	76	127
232.9185941043084	233.09274376417233	81	127
233.09274376417233	233.30172335600906	85	127
233.30172335600906	233.5107029478458	88	127
234.0795918367347	234.50916099773244	81	127
235.3682993197279	235.47278911564626	81	127
