# onset,offset,note,velocity
0.034058956916099774	0.521655328798186	57	127
0.034058956916099774	0.35913832199546486	45	127
0.034058956916099774	0.35913832199546486	61	127
0.35913832199546486	0.521655328798186	62	127
0.35913832199546486	0.4868480725623583	47	127
2.3908843537414968	2.762380952380952	64	127
2.3908843537414968	2.762380952380952	49	127
2.3908843537414968	2.9365306122448978	57	127
2.762380952380952	2.9365306122448978	66	127
2.762380952380952	2.9017233560090703	50	127
3.96984126984127	4.271700680272109	57	127
3.96984126984127	4.271700680272109	64	127
3.96984126984127	4.271700680272109	49	127
4.271700680272109	4.399410430839002	56	127
4.271700680272109	4.399410430839002	62	127
4.271700680272109	4.399410430839002	47	127
5.38625850340136	5.676507936507937	61	127
5.38625850340136	5.676507936507937	52	127
5.38625850340136	5.676507936507937	57	127
5.38625850340136	5.676507936507937	45	127
6.558866213151927	6.733015873015873	59	127
6.558866213151927	6.733015873015873	40	127
6.558866213151927	6.733015873015873	52	127
6.558866213151927	6.733015873015873	56	127
8.358412698412698	8.648639455782313	45	127
8.358412698412698	8.811201814058958	57	127
8.358412698412698	8.648639455782313	61	127
8.648639455782313	8.776349206349206	47	127
8.648639455782313	8.811201814058958	62	127
9.74	10.111519274376418	64	127
9.74	10.111519274376418	49	127
9.74	10.30888888888889	57	127
10.111519274376418	10.30888888888889	66	127
10.111519274376418	10.262448979591836	50	127
11.19124716553288	11.527936507936507	66	127
11.19124716553288	11.527936507936507	69	127
11.19124716553288	11.527936507936507	60	127
11.19124716553288	11.527936507936507	51	127
11.527936507936507	11.644036281179138	68	127
11.527936507936507	11.644036281179138	59	127
11.527936507936507	11.644036281179138	64	127
11.527936507936507	11.644036281179138	52	127
12.34063492063492	12.468344671201814	63	127
12.34063492063492	12.468344671201814	57	127
12.34063492063492	12.468344671201814	47	127
13.06045351473923	13.211383219954648	56	127
13.06045351473923	13.211383219954648	64	127
13.06045351473923	13.211383219954648	40	127
14.198231292517006	14.59297052154195	61	127
14.198231292517006	14.59297052154195	57	127
14.59297052154195	14.732290249433106	62	127
14.59297052154195	14.732290249433106	59	127
15.01092970521542	15.35922902494331	68	127
15.35922902494331	15.66108843537415	69	127
15.74235827664399	16.090657596371884	61	127
15.74235827664399	16.090657596371884	64	127
16.090657596371884	16.19514739229025	62	127
16.090657596371884	16.19514739229025	66	127
16.404126984126986	16.740816326530613	80	127
16.740816326530613	17.042675736961453	81	127
17.123945578231293	17.48385487528345	61	127
17.123945578231293	17.48385487528345	64	127
17.48385487528345	17.61156462585034	62	127
17.48385487528345	17.61156462585034	59	127
17.820544217687075	18.006303854875284	76	127
18.18045351473923	18.34299319727891	61	127
18.18045351473923	18.34299319727891	57	127
18.52875283446712	18.702902494331067	76	127
18.87702947845805	19.062789115646257	52	127
18.87702947845805	19.062789115646257	56	127
18.87702947845805	19.062789115646257	59	127
19.236961451247165	19.36467120181406	76	127
19.910340136054423	20.351519274376418	57	127
19.910340136054423	20.351519274376418	61	127
20.351519274376418	20.46761904761905	62	127
20.351519274376418	20.46761904761905	59	127
20.688208616780045	21.024897959183672	68	127
21.024897959183672	21.326757369614512	69	127
21.39641723356009	21.721496598639455	64	127
21.39641723356009	21.721496598639455	61	127
21.721496598639455	21.860816326530614	62	127
21.721496598639455	21.860816326530614	66	127
22.1162358276644	22.441315192743765	80	127
22.441315192743765	22.73156462585034	81	127
22.801224489795917	23.195963718820863	72	127
22.801224489795917	23.195963718820863	63	127
23.195963718820863	23.34689342403628	71	127
23.195963718820863	23.34689342403628	64	127
23.579092970521543	23.741632653061224	80	127
23.91578231292517	24.10154195011338	59	127
23.91578231292517	24.10154195011338	69	127
24.275691609977326	24.438231292517006	75	127
24.658820861678006	24.83297052154195	68	127
24.658820861678006	24.83297052154195	64	127
25.030340136054424	25.227709750566895	76	127
25.81981859410431	26.446757369614513	52	127
25.81981859410431	26.179727891156464	57	127
25.81981859410431	26.179727891156464	64	127
25.81981859410431	26.179727891156464	49	127
26.179727891156464	26.446757369614513	56	127
26.179727891156464	26.446757369614513	62	127
26.179727891156464	26.446757369614513	47	127
27.259455782312926	27.61936507936508	61	127
27.259455782312926	27.88639455782313	52	127
27.259455782312926	27.61936507936508	57	127
27.259455782312926	27.61936507936508	45	127
27.61936507936508	27.88639455782313	40	127
27.61936507936508	27.88639455782313	56	127
27.61936507936508	27.88639455782313	59	127
28.710702947845807	29.08222222222222	59	127
28.710702947845807	29.38408163265306	54	127
28.710702947845807	29.08222222222222	50	127
28.710702947845807	29.08222222222222	66	127
29.08222222222222	29.38408163265306	58	127
29.08222222222222	29.38408163265306	64	127
29.08222222222222	29.38408163265306	49	127
30.092290249433105	30.440589569161	47	127
30.092290249433105	30.707619047619048	54	127
30.092290249433105	30.440589569161	59	127
30.092290249433105	30.440589569161	62	127
30.440589569161	30.707619047619048	42	127
30.440589569161	30.707619047619048	61	127
30.440589569161	30.707619047619048	58	127
31.40421768707483	31.98471655328798	57	127
31.40421768707483	31.694467120181407	71	127
31.40421768707483	31.694467120181407	55	127
31.40421768707483	31.694467120181407	61	127
31.694467120181407	31.98471655328798	62	127
31.694467120181407	31.98471655328798	54	127
31.694467120181407	31.98471655328798	69	127
32.797392290249434	33.13410430839002	64	127
32.797392290249434	33.13410430839002	67	127
32.797392290249434	33.13410430839002	49	127
32.797392290249434	33.40113378684807	57	127
33.13410430839002	33.40113378684807	62	127
33.13410430839002	33.40113378684807	50	127
33.13410430839002	33.40113378684807	66	127
34.26027210884354	34.631791383219955	69	127
34.26027210884354	34.631791383219955	54	127
34.26027210884354	34.631791383219955	59	127
34.26027210884354	34.631791383219955	51	127
34.631791383219955	35.351609977324266	61	127
34.631791383219955	35.351609977324266	57	127
34.631791383219955	35.351609977324266	52	127
35.351609977324266	35.99015873015873	40	127
35.351609977324266	35.90888888888889	62	127
35.351609977324266	35.90888888888889	47	127
35.351609977324266	35.99015873015873	56	127
35.90888888888889	36.048208616780045	59	127
35.90888888888889	36.048208616780045	50	127
36.09462585034014	36.57065759637188	45	127
36.09462585034014	36.57065759637188	49	127
36.09462585034014	36.57065759637188	57	127
37.371746031746035	37.77809523809524	64	127
37.371746031746035	37.77809523809524	61	127
37.77809523809524	38.05673469387755	62	127
37.77809523809524	38.05673469387755	59	127
38.12637188208617	38.50952380952381	75	127
38.50952380952381	38.788163265306125	76	127
38.904263038548756	39.287392290249436	57	127
38.904263038548756	39.287392290249436	61	127
39.287392290249436	39.58925170068027	56	127
39.287392290249436	39.58925170068027	52	127
39.287392290249436	39.58925170068027	59	127
39.65891156462585	40.042040816326534	78	127
40.042040816326534	40.33229024943311	76	127
40.401927437641724	40.79668934240363	62	127
40.401927437641724	40.79668934240363	66	127
40.79668934240363	41.06371882086168	61	127
40.79668934240363	41.06371882086168	64	127
41.133378684807255	41.44684807256236	77	127
41.44684807256236	41.79512471655329	78	127
41.87641723356009	42.25954648526077	62	127
41.87641723356009	42.25954648526077	59	127
42.25954648526077	42.52657596371882	54	127
42.25954648526077	42.52657596371882	61	127
42.25954648526077	42.52657596371882	58	127
42.5962358276644	43.01419501133787	79	127
43.01419501133787	43.30444444444444	78	127
43.36249433106576	43.67596371882086	67	127
43.36249433106576	43.67596371882086	71	127
43.67596371882086	43.90816326530612	69	127
43.67596371882086	43.90816326530612	66	127
43.989433106575966	44.40739229024943	80	127
44.40739229024943	44.70922902494331	81	127
44.81374149659864	45.47548752834467	69	127
44.81374149659864	45.16204081632653	61	127
44.81374149659864	45.16204081632653	64	127
45.16204081632653	45.47548752834467	62	127
45.16204081632653	45.47548752834467	66	127
45.55678004535147	45.90507936507937	83	127
45.90507936507937	46.24174603174603	81	127
46.29981859410431	46.717777777777776	63	127
46.29981859410431	46.717777777777776	71	127
46.29981859410431	46.717777777777776	66	127
46.717777777777776	47.542086167800456	64	127
46.717777777777776	47.542086167800456	69	127
47.158956916099775	47.542086167800456	88	127
47.542086167800456	48.38961451247165	64	127
47.542086167800456	48.21546485260771	71	127
48.00648526077097	48.49410430839002	88	127
48.21546485260771	48.459274376417234	68	127
48.49410430839002	48.97011337868481	69	127
48.49410430839002	48.97011337868481	57	127
48.97011337868481	49.36485260770975	81	127
49.724761904761905	50.04984126984127	52	127
50.04984126984127	50.816099773242634	64	127
50.816099773242634	50.920589569160995	64	127
50.920589569160995	51.04829931972789	62	127
51.04829931972789	51.22244897959184	64	127
51.22244897959184	51.31532879818594	62	127
51.31532879818594	51.408208616780044	64	127
51.408208616780044	51.477868480725625	62	127
51.477868480725625	51.582358276643994	61	127
51.582358276643994	51.65201814058957	62	127
51.67523809523809	52.244126984126986	61	127
52.244126984126986	52.31378684807256	64	127
52.31378684807256	52.38344671201814	61	127
52.41827664399093	52.6156462585034	57	127
52.80140589569161	52.97555555555556	57	127
53.18453514739229	53.67215419501134	59	127
53.67215419501134	53.75342403628118	62	127
53.75342403628118	53.86952380952381	59	127
53.86952380952381	54.00884353741497	56	127
54.22943310657596	54.380362811791386	56	127
54.62417233560091	54.68222222222222	59	127
54.68222222222222	54.740272108843534	57	127
54.86798185941043	54.94925170068027	56	127
55.04213151927438	55.123401360544214	57	127
55.20467120181406	55.2859410430839	61	127
55.39043083900227	55.44848072562358	59	127
55.54136054421769	55.63424036281179	57	127
55.73873015873016	55.83160997732426	56	127
55.92448979591837	56.040589569161	54	127
56.14507936507937	56.226349206349205	56	127
56.31922902494331	56.400498866213155	59	127
56.48176870748299	56.59786848072562	56	127
56.67913832199547	56.7604081632653	52	127
56.86489795918367	56.9809977324263	51	127
57.06226757369615	57.155147392290246	54	127
57.24802721088435	57.329297052154196	51	127
57.41056689342403	57.50344671201814	47	127
57.63115646258503	57.712426303854876	52	127
57.816916099773245	57.909795918367344	56	127
58.01428571428571	58.095555555555556	57	127
58.1768253968254	58.2697052154195	59	127
58.362585034013605	58.44385487528345	61	127
58.53673469387755	58.60639455782313	59	127
58.687664399092974	58.78054421768707	57	127
58.87342403628118	58.966303854875285	56	127
59.04757369614512	59.14045351473923	57	127
59.26816326530612	59.36104308390023	54	127
59.48875283446712	59.570022675736965	56	127
59.662902494331064	59.75578231292517	57	127
59.86027210884354	59.941541950113375	59	127
60.046031746031744	60.162131519274375	57	127
60.30145124716553	60.719410430839005	71	127
60.30145124716553	60.4059410430839	56	127
60.51043083900227	60.6265306122449	54	127
60.719410430839005	61.07931972789115	56	127
60.719410430839005	61.416009070294784	76	127
61.07931972789115	61.416009070294784	52	127
61.416009070294784	61.50888888888889	76	127
61.50888888888889	61.59015873015873	74	127
61.59015873015873	61.65981859410431	76	127
61.65981859410431	61.74108843537415	74	127
61.74108843537415	61.85718820861678	76	127
61.85718820861678	61.961678004535145	74	127
61.961678004535145	62.04294784580499	73	127
62.04294784580499	62.08938775510204	74	127
62.12421768707483	62.681496598639455	73	127
62.681496598639455	62.7627664399093	76	127
62.7627664399093	62.86725623582767	73	127
62.89047619047619	63.05301587301587	69	127
63.215555555555554	63.389705215419504	54	127
63.215555555555554	63.389705215419504	69	127
63.57546485260771	64.08630385487528	71	127
63.57546485260771	64.26045351473923	47	127
64.08630385487528	64.17916099773242	74	127
64.17916099773242	64.24884353741497	71	127
64.26045351473923	64.43458049886621	68	127
64.6435827664399	64.81770975056689	68	127
64.6435827664399	64.9918820861678	40	127
64.9918820861678	65.06154195011338	69	127
64.9918820861678	65.86263038548753	52	127
65.15442176870748	65.23569160997732	76	127
65.32854875283446	65.44467120181406	73	127
65.57238095238095	65.76975056689342	69	127
65.86263038548753	65.93229024943311	52	127
65.86263038548753	65.93229024943311	68	127
65.93229024943311	66.01356009070295	50	127
66.01356009070295	66.11804988662132	52	127
66.01356009070295	66.10643990929705	71	127
66.11804988662132	66.21092970521542	50	127
66.21092970521542	66.29219954648526	52	127
66.21092970521542	66.29219954648526	68	127
66.29219954648526	66.38507936507936	50	127
66.38507936507936	66.46634920634921	49	127
66.38507936507936	66.46634920634921	64	127
66.46634920634921	66.53600907029478	50	127
66.5592290249433	67.24421768707484	49	127
66.5592290249433	66.66371882086167	69	127
66.73335600907029	66.80303854875284	73	127
66.89591836734694	66.98879818594105	76	127
67.08167800453515	67.162947845805	81	127
67.24421768707484	67.33709750566894	80	127
67.24421768707484	67.33709750566894	49	127
67.33709750566894	67.41836734693878	47	127
67.41836734693878	67.48802721088435	49	127
67.41836734693878	67.47639455782313	83	127
67.48802721088435	67.60410430839002	47	127
67.60410430839002	67.70861678004535	80	127
67.60410430839002	67.70861678004535	49	127
67.70861678004535	67.80149659863946	47	127
67.80149659863946	67.90598639455783	45	127
67.80149659863946	67.90598639455783	76	127
67.90598639455783	67.9756462585034	47	127
67.99886621315193	68.33555555555556	45	127
67.99886621315193	68.08013605442177	81	127
68.17301587301587	68.25428571428571	83	127
68.33555555555556	68.74190476190476	44	127
68.33555555555556	68.4168253968254	85	127
68.52131519274377	68.66063492063492	83	127
68.74190476190476	69.09020408163265	42	127
68.74190476190476	68.8231746031746	81	127
68.92766439909298	68.99732426303855	80	127
69.09020408163265	69.26433106575963	44	127
69.09020408163265	69.18308390022676	78	127
69.26433106575963	69.38045351473923	76	127
69.26433106575963	69.43850340136055	46	127
69.4849433106576	69.68231292517007	75	127
69.4849433106576	72.38743764172335	47	127
69.68231292517007	69.84485260770975	73	127
69.84485260770975	70.030589569161	75	127
70.030589569161	70.20476190476191	76	127
70.20476190476191	70.39049886621315	78	127
70.39049886621315	70.56467120181406	75	127
70.56467120181406	70.93619047619048	45	127
70.56467120181406	70.75043083900226	76	127
70.75043083900226	70.90133786848072	78	127
70.93619047619048	71.14517006802721	80	127
70.93619047619048	71.38897959183673	44	127
71.14517006802721	71.38897959183673	81	127
71.38897959183673	71.59795918367347	83	127
71.38897959183673	71.77210884353741	42	127
71.59795918367347	71.73727891156463	81	127
71.77210884353741	71.95786848072562	85	127
71.77210884353741	72.13201814058957	40	127
71.95786848072562	72.09718820861679	83	127
72.13201814058957	72.21328798185941	81	127
72.13201814058957	72.29455782312925	44	127
72.29455782312925	72.39904761904762	80	127
72.29455782312925	72.44548752834467	46	127
72.48031746031747	72.6660544217687	78	127
72.48031746031747	75.46408163265306	47	127
72.6660544217687	72.85183673469388	76	127
72.85183673469388	73.03759637188209	75	127
73.03759637188209	73.2233560090703	76	127
73.2233560090703	73.38589569160997	78	127
73.38589569160997	73.57165532879819	75	127
73.57165532879819	73.7574149659864	76	127
73.57165532879819	73.91995464852607	45	127
73.7574149659864	73.88512471655329	78	127
73.91995464852607	74.36113378684807	44	127
73.91995464852607	74.14054421768708	80	127
74.14054421768708	74.36113378684807	81	127
74.36113378684807	74.54689342403628	83	127
74.36113378684807	74.74426303854875	42	127
74.54689342403628	74.68621315192743	81	127
74.74426303854875	75.06934240362811	40	127
74.74426303854875	74.90680272108844	85	127
74.90680272108844	75.03451247165533	83	127
75.06934240362811	75.17383219954648	81	127
75.06934240362811	75.27832199546485	44	127
75.27832199546485	75.37120181405896	80	127
75.27832199546485	75.46408163265306	46	127
75.46408163265306	75.56857142857143	78	127
75.46408163265306	75.73108843537415	47	127
75.62662131519275	75.70789115646258	83	127
75.8007709750567	75.91687074829932	78	127
76.00975056689343	76.10263038548753	75	127
76.1722902494331	76.27678004535147	71	127
76.1722902494331	76.27678004535147	47	127
76.36963718820861	76.48575963718821	71	127
76.36963718820861	76.48575963718821	59	127
76.56702947845805	76.67151927437642	66	127
76.56702947845805	76.67151927437642	54	127
76.76439909297052	76.85725623582766	63	127
76.76439909297052	76.85725623582766	51	127
76.95015873015873	77.32167800453514	59	127
76.95015873015873	77.32167800453514	47	127
78.07632653061225	78.1575963718821	71	127
78.1575963718821	78.23886621315192	70	127
78.23886621315192	78.30852607709751	71	127
78.30852607709751	78.36657596371882	70	127
78.38977324263038	78.55233560090703	71	127
78.38977324263038	78.55233560090703	64	127
78.38977324263038	78.55233560090703	68	127
78.72648526077097	78.90061224489796	71	127
78.72648526077097	78.90061224489796	64	127
78.72648526077097	78.90061224489796	68	127
79.7249433106576	79.82943310657596	71	127
79.82943310657596	79.89907029478458	70	127
79.89907029478458	79.98036281179138	71	127
79.98036281179138	80.0384126984127	70	127
80.06163265306122	80.21256235827664	71	127
80.06163265306122	80.21256235827664	63	127
80.06163265306122	80.21256235827664	66	127
80.06163265306122	80.21256235827664	69	127
80.38671201814059	80.56083900226757	71	127
80.38671201814059	80.56083900226757	63	127
80.38671201814059	80.56083900226757	66	127
80.38671201814059	80.56083900226757	69	127
81.3271201814059	81.68700680272109	71	127
81.68700680272109	81.77990929705216	73	127
81.77990929705216	81.96566893424037	59	127
81.77990929705216	81.96566893424037	63	127
81.77990929705216	81.96566893424037	66	127
81.77990929705216	82.081768707483	75	127
82.081768707483	82.15142857142857	76	127
82.15142857142857	82.32555555555555	63	127
82.15142857142857	82.32555555555555	59	127
82.15142857142857	82.32555555555555	66	127
82.15142857142857	82.46489795918367	78	127
82.46489795918367	82.60421768707484	80	127
82.60421768707484	82.76675736961451	59	127
82.60421768707484	82.76675736961451	63	127
82.60421768707484	82.76675736961451	66	127
82.60421768707484	82.87124716553288	81	127
82.87124716553288	82.97573696145125	78	127
82.97573696145125	83.16149659863946	66	127
82.97573696145125	83.16149659863946	59	127
82.97573696145125	83.16149659863946	63	127
82.97573696145125	83.28920634920635	83	127
83.28920634920635	83.3704761904762	81	127
83.39369614512472	83.80004535147393	80	127
83.39369614512472	83.80004535147393	64	127
83.39369614512472	83.80004535147393	68	127
83.80004535147393	84.09027210884354	83	127
84.92621315192744	85.11195011337868	52	127
84.92621315192744	85.11195011337868	56	127
85.2861224489796	85.36736961451247	71	127
85.2861224489796	85.44866213151927	52	127
85.2861224489796	85.44866213151927	56	127
85.36736961451247	85.44866213151927	70	127
85.44866213151927	85.51832199546486	71	127
85.51832199546486	85.57637188208616	70	127
85.58798185941043	86.05238095238096	71	127
86.59804988662131	86.80702947845805	51	127
86.59804988662131	86.80702947845805	54	127
86.59804988662131	86.80702947845805	57	127
86.98117913832199	87.06244897959184	71	127
86.98117913832199	87.15530612244898	51	127
86.98117913832199	87.15530612244898	54	127
86.98117913832199	87.15530612244898	57	127
87.06244897959184	87.15530612244898	70	127
87.15530612244898	87.22498866213152	71	127
87.22498866213152	87.2946485260771	70	127
87.2946485260771	87.63133786848073	71	127
88.1073469387755	88.28147392290249	51	127
88.1073469387755	88.28147392290249	47	127
88.1073469387755	88.28147392290249	54	127
88.5485260770975	88.72267573696145	47	127
88.5485260770975	88.72267573696145	51	127
88.5485260770975	88.72267573696145	54	127
88.90843537414966	89.0825850340136	47	127
88.90843537414966	89.0825850340136	51	127
88.90843537414966	89.0825850340136	54	127
89.32639455782314	89.51215419501133	47	127
89.32639455782314	89.51215419501133	51	127
89.32639455782314	89.51215419501133	54	127
89.7443537414966	90.17390022675737	52	127
89.7443537414966	90.17390022675737	56	127
90.64993197278912	90.92857142857143	83	127
90.64993197278912	91.4742403628118	61	127
90.64993197278912	91.4742403628118	65	127
90.64993197278912	91.4742403628118	68	127
90.92857142857143	91.02145124716553	80	127
91.02145124716553	91.3465306122449	85	127
91.3465306122449	91.46263038548753	83	127
91.4742403628118	91.84575963718821	66	127
91.4742403628118	91.84575963718821	69	127
91.4742403628118	91.92702947845805	81	127
91.92702947845805	92.25210884353741	78	127
92.33337868480726	93.27378684807256	57	127
92.33337868480726	93.27378684807256	47	127
92.33337868480726	93.27378684807256	54	127
92.83260770975056	93.27378684807256	75	127
93.27378684807256	93.63369614512472	56	127
93.27378684807256	93.63369614512472	52	127
93.27378684807256	93.70335600907029	76	127
93.70335600907029	94.06326530612245	80	127
94.13290249433106	94.96884353741497	68	127
94.13290249433106	94.43478458049887	83	127
94.13290249433106	94.96884353741497	61	127
94.13290249433106	94.96884353741497	65	127
94.43478458049887	94.5508843537415	80	127
94.5508843537415	94.88757369614513	85	127
94.88757369614513	94.94562358276644	83	127
94.96884353741497	95.23587301587301	69	127
94.96884353741497	95.23587301587301	66	127
94.96884353741497	95.31714285714285	81	127
95.31714285714285	95.72349206349206	78	127
95.79315192743765	96.66390022675736	57	127
95.79315192743765	96.66390022675736	47	127
95.79315192743765	96.66390022675736	54	127
96.29238095238095	96.66390022675736	75	127
96.66390022675736	96.80321995464853	76	127
96.66390022675736	96.80321995464853	52	127
96.66390022675736	96.80321995464853	56	127
97.19795918367348	97.58108843537416	75	127
97.19795918367348	97.58108843537416	47	127
97.19795918367348	97.58108843537416	54	127
97.19795918367348	97.58108843537416	57	127
97.58108843537416	97.77845804988662	76	127
97.58108843537416	97.77845804988662	52	127
97.58108843537416	97.77845804988662	56	127
98.09192743764173	98.52149659863946	75	127
98.09192743764173	98.52149659863946	47	127
98.09192743764173	98.52149659863946	54	127
98.09192743764173	98.52149659863946	57	127
98.52149659863946	98.68403628117913	52	127
98.52149659863946	98.68403628117913	56	127
98.52149659863946	98.68403628117913	76	127
98.95106575963719	99.84503401360544	52	127
98.95106575963719	99.84503401360544	56	127
98.95106575963719	99.2297052154195	80	127
99.2297052154195	99.36902494331066	78	127
99.36902494331066	99.71732426303855	76	127
99.71732426303855	99.84503401360544	75	127
99.84503401360544	100.1120634920635	73	127
99.84503401360544	100.1120634920635	54	127
99.84503401360544	100.1120634920635	57	127
100.1120634920635	100.19333333333333	56	127
100.1120634920635	100.19333333333333	71	127
100.1120634920635	100.19333333333333	59	127
100.26299319727892	100.47197278911564	57	127
100.26299319727892	100.47197278911564	69	127
100.26299319727892	100.47197278911564	61	127
100.75061224489797	100.91315192743764	69	127
101.20340136054422	101.38916099773243	59	127
101.20340136054422	101.38916099773243	47	127
101.5865306122449	101.74907029478459	66	127
102.05092970521542	102.37600907029478	83	127
102.05092970521542	103.33963718820861	40	127
102.05092970521542	103.33963718820861	52	127
102.37600907029478	102.45727891156463	81	127
102.45727891156463	102.77074829931973	80	127
102.77074829931973	102.87523809523809	78	127
102.87523809523809	103.23514739229024	76	127
103.23514739229024	103.33963718820861	75	127
103.33963718820861	103.60666666666667	54	127
103.33963718820861	103.60666666666667	73	127
103.33963718820861	103.60666666666667	42	127
103.60666666666667	103.69954648526077	56	127
103.60666666666667	103.69954648526077	71	127
103.60666666666667	103.69954648526077	44	127
103.7227664399093	103.87369614512471	69	127
103.7227664399093	103.87369614512471	45	127
103.7227664399093	103.87369614512471	57	127
104.04784580498867	104.25682539682539	61	127
104.04784580498867	104.25682539682539	66	127
104.04784580498867	104.25682539682539	69	127
104.70961451247166	104.87215419501133	35	127
104.70961451247166	104.87215419501133	47	127
105.17401360544218	105.35977324263038	57	127
105.17401360544218	105.35977324263038	63	127
105.17401360544218	105.35977324263038	66	127
105.5455328798186	105.9867120181406	56	127
105.5455328798186	105.9867120181406	64	127
105.5455328798186	105.9867120181406	40	127
105.5455328798186	105.9867120181406	52	127
106.71814058956916	106.88068027210885	64	127
107.41473922902495	107.50761904761904	63	127
107.63532879818594	107.82108843537415	64	127
107.63532879818594	107.82108843537415	61	127
108.3087074829932	108.41319727891157	64	127
108.3087074829932	108.41319727891157	59	127
108.56412698412699	108.90081632653062	64	127
108.56412698412699	108.90081632653062	57	127
109.31877551020408	109.40004535147392	56	127
109.31877551020408	109.40004535147392	64	127
109.49292517006803	111.04866213151928	54	127
110.00376417233561	111.04866213151928	59	127
110.00376417233561	111.04866213151928	69	127
111.04866213151928	111.42018140589569	52	127
111.04866213151928	111.42018140589569	59	127
111.04866213151928	111.42018140589569	68	127
111.51306122448979	111.78009070294785	45	127
111.97746031746031	112.19804988662132	61	127
111.97746031746031	112.19804988662132	66	127
112.40702947845806	112.581179138322	47	127
112.85981859410431	113.0804081632653	59	127
112.85981859410431	113.0804081632653	63	127
113.26616780045352	113.56802721088435	40	127
113.26616780045352	113.56802721088435	52	127
113.77700680272109	113.9627664399093	59	127
113.77700680272109	113.9627664399093	64	127
114.25301587301587	114.34589569160998	68	127
114.25301587301587	114.34589569160998	80	127
114.25301587301587	114.34589569160998	52	127
114.25301587301587	114.34589569160998	64	127
114.43877551020408	114.54326530612245	68	127
114.43877551020408	114.54326530612245	80	127
114.43877551020408	114.54326530612245	52	127
114.43877551020408	114.54326530612245	64	127
114.83351473922903	114.91478458049886	66	127
114.83351473922903	114.91478458049886	78	127
114.83351473922903	114.91478458049886	51	127
114.83351473922903	114.91478458049886	63	127
115.1237641723356	115.27469387755102	69	127
115.1237641723356	115.27469387755102	81	127
115.1237641723356	115.27469387755102	49	127
115.1237641723356	115.27469387755102	61	127
115.35596371882086	115.44884353741497	69	127
115.35596371882086	115.44884353741497	81	127
115.35596371882086	115.44884353741497	49	127
115.35596371882086	115.44884353741497	61	127
115.75070294784581	115.85519274376418	68	127
115.75070294784581	115.85519274376418	80	127
115.75070294784581	115.85519274376418	47	127
115.75070294784581	115.85519274376418	59	127
115.94807256235828	116.04095238095238	73	127
115.94807256235828	116.04095238095238	85	127
115.94807256235828	116.04095238095238	45	127
115.94807256235828	116.04095238095238	57	127
116.12222222222222	116.23832199546486	73	127
116.12222222222222	116.23832199546486	85	127
116.12222222222222	116.23832199546486	45	127
116.12222222222222	116.23832199546486	57	127
116.70272108843537	116.86526077097506	71	127
116.70272108843537	116.86526077097506	83	127
116.70272108843537	116.86526077097506	44	127
116.70272108843537	116.86526077097506	56	127
117.01619047619047	117.5734693877551	42	127
117.01619047619047	117.5734693877551	54	127
117.01619047619047	118.81573696145125	75	127
117.01619047619047	118.81573696145125	87	127
117.5734693877551	118.81573696145125	69	127
117.5734693877551	118.81573696145125	66	127
118.81573696145125	119.22208616780046	76	127
118.81573696145125	119.22208616780046	88	127
118.81573696145125	119.22208616780046	68	127
119.52394557823129	119.84902494331065	57	127
119.52394557823129	119.84902494331065	45	127
120.05800453514739	120.32503401360545	69	127
120.05800453514739	120.32503401360545	81	127
120.53401360544218	120.78943310657597	47	127
120.53401360544218	120.78943310657597	59	127
121.05646258503401	121.24222222222222	66	127
121.05646258503401	121.24222222222222	78	127
121.46281179138322	123.11142857142858	59	127
121.46281179138322	121.6253514739229	64	127
121.46281179138322	123.11142857142858	52	127
121.46281179138322	123.11142857142858	56	127
121.6253514739229	121.83433106575964	68	127
121.83433106575964	122.0665306122449	71	127
122.0665306122449	122.2522902494331	76	127
122.2522902494331	122.43804988662131	80	127
122.43804988662131	122.64702947845805	83	127
122.64702947845805	122.92566893424036	80	127
122.92566893424036	123.07659863945578	76	127
123.11142857142858	124.77165532879819	57	127
123.11142857142858	123.27396825396825	81	127
123.11142857142858	124.77165532879819	52	127
123.11142857142858	124.77165532879819	54	127
123.11142857142858	124.77165532879819	59	127
123.27396825396825	123.42489795918367	78	127
123.42489795918367	123.59904761904762	75	127
123.59904761904762	123.90090702947846	71	127
123.90090702947846	124.1098866213152	69	127
124.1098866213152	124.31886621315192	71	127
124.31886621315192	124.58589569160998	69	127
124.58589569160998	124.7368253968254	66	127
124.77165532879819	126.4318820861678	59	127
124.77165532879819	124.99224489795918	64	127
124.77165532879819	126.4318820861678	52	127
124.77165532879819	126.4318820861678	56	127
124.99224489795918	125.1780045351474	68	127
125.1780045351474	125.35215419501134	71	127
125.35215419501134	125.5495238095238	76	127
125.5495238095238	125.75850340136054	80	127
125.75850340136054	125.92104308390023	83	127
125.92104308390023	126.18807256235827	80	127
126.18807256235827	126.39705215419501	76	127
126.4318820861678	128.01083900226757	57	127
126.4318820861678	126.59442176870748	81	127
126.4318820861678	128.01083900226757	52	127
126.4318820861678	128.01083900226757	54	127
126.4318820861678	128.01083900226757	59	127
126.59442176870748	126.76857142857143	78	127
126.76857142857143	126.94272108843538	75	127
126.94272108843538	127.14009070294784	71	127
127.14009070294784	127.39551020408163	69	127
127.39551020408163	127.65092970521542	71	127
127.65092970521542	127.85990929705216	69	127
127.85990929705216	127.97600907029478	66	127
128.01083900226757	128.10371882086167	40	127
128.01083900226757	128.48684807256237	64	127
128.26625850340136	128.382358276644	44	127
128.48684807256237	128.57972789115647	47	127
128.6609977324263	128.76548752834466	52	127
128.85834467120182	128.9628344671202	56	127
129.044126984127	129.14861678004536	59	127
129.24149659863946	129.3227664399093	56	127
129.41564625850341	129.49691609977324	52	127
129.57818594104307	129.72909297052155	57	127
129.57818594104307	130.43732426303856	71	127
129.83360544217686	129.91487528344672	54	127
130.03095238095239	130.13544217687075	51	127
130.23993197278912	130.3328344671202	47	127
130.43732426303856	130.56503401360544	45	127
130.43732426303856	130.6695238095238	71	127
130.6695238095238	130.7507709750567	47	127
130.86689342403628	131.02943310657596	71	127
130.86689342403628	130.95977324263038	45	127
131.06426303854875	131.1455328798186	42	127
131.2384126984127	131.3080725623583	40	127
131.2384126984127	132.03950113378684	76	127
131.38934240362812	131.52866213151927	44	127
131.6447619047619	131.74925170068028	47	127
131.8305215419501	131.92337868480726	52	127
132.03950113378684	132.15560090702948	56	127
132.03950113378684	132.38777777777779	71	127
132.26009070294785	132.3761904761905	59	127
132.45746031746032	132.5387074829932	56	127
132.63160997732427	132.72448979591837	52	127
132.8057596371882	132.91024943310657	57	127
132.8057596371882	133.6184580498866	71	127
133.0263492063492	133.1192290249433	54	127
133.23532879818595	133.31659863945578	51	127
133.42108843537414	133.51396825396824	47	127
133.6184580498866	133.82743764172335	71	127
133.6184580498866	133.71131519274377	45	127
133.83904761904762	133.9202947845805	47	127
134.0015873015873	134.164126984127	71	127
134.0015873015873	134.11768707482995	45	127
134.19895691609977	134.30344671201814	42	127
134.39632653061224	134.46598639455783	40	127
134.39632653061224	134.83748299319728	68	127
134.62852607709752	134.74462585034013	47	127
134.83748299319728	134.91877551020409	44	127
135.03487528344672	135.11614512471655	40	127
135.1625850340136	135.19739229024944	70	127
135.19739229024944	135.27868480725624	39	127
135.19739229024944	135.52249433106576	71	127
135.37156462585034	135.46444444444444	42	127
135.59215419501135	135.67342403628118	35	127
135.80113378684808	135.89401360544218	39	127
135.975283446712	136.38163265306122	68	127
135.975283446712	136.05655328798187	40	127
136.17265306122448	136.25392290249434	47	127
136.38163265306122	136.4861224489796	44	127
136.60222222222222	136.7067120181406	40	127
136.75315192743764	136.7995918367347	82	127
136.7995918367347	136.88083900226758	39	127
136.7995918367347	137.08981859410432	83	127
136.97374149659865	137.06662131519275	42	127
137.15950113378685	137.26399092970522	35	127
137.38009070294785	137.46136054421768	39	127
137.56585034013605	137.64709750566894	40	127
137.56585034013605	137.9954195011338	80	127
137.78643990929706	137.87931972789116	52	127
137.9954195011338	138.0882993197279	56	127
138.19278911564626	138.3321088435374	52	127
138.44820861678005	138.6804081632653	80	127
138.44820861678005	138.6804081632653	88	127
138.44820861678005	138.52947845804988	47	127
138.69201814058957	138.79650793650794	52	127
138.9938775510204	139.10997732426304	44	127
138.9938775510204	139.23766439909298	80	127
138.9938775510204	139.23766439909298	88	127
139.23766439909298	139.36539682539683	47	127
139.55115646258503	140.0619954648526	80	127
139.55115646258503	140.0619954648526	88	127
139.55115646258503	140.0619954648526	40	127
141.14172335600907	141.50163265306122	45	127
141.14172335600907	141.50163265306122	61	127
141.14172335600907	141.6641723356009	57	127
141.50163265306122	141.6641723356009	62	127
141.50163265306122	141.64095238095237	47	127
142.68585034013606	143.19668934240363	57	127
142.68585034013606	143.03414965986394	64	127
142.68585034013606	143.03414965986394	49	127
143.03414965986394	143.16185941043085	50	127
143.03414965986394	143.19668934240363	66	127
144.1487074829932	144.48539682539683	64	127
144.1487074829932	144.48539682539683	49	127
144.1487074829932	144.48539682539683	57	127
144.48539682539683	144.6014739229025	56	127
144.48539682539683	144.6014739229025	62	127
144.48539682539683	144.6014739229025	47	127
145.2748752834467	145.37936507936507	57	127
145.2748752834467	145.37936507936507	61	127
145.2748752834467	145.37936507936507	45	127
145.2748752834467	145.37936507936507	52	127
146.00630385487528	146.18045351473924	40	127
146.00630385487528	146.18045351473924	56	127
146.00630385487528	146.18045351473924	59	127
146.00630385487528	146.18045351473924	52	127
147.15566893424037	147.48077097505669	61	127
147.15566893424037	147.48077097505669	45	127
147.15566893424037	147.6317006802721	57	127
147.48077097505669	147.6200680272109	47	127
147.48077097505669	147.6317006802721	62	127
148.6069387755102	149.0016553287982	64	127
148.6069387755102	149.0016553287982	49	127
148.6069387755102	149.1525850340136	57	127
149.0016553287982	149.1525850340136	66	127
149.0016553287982	149.11777777777777	50	127
150.0697732426304	150.44131519274376	51	127
150.0697732426304	150.44131519274376	60	127
150.0697732426304	150.44131519274376	66	127
150.0697732426304	150.44131519274376	69	127
150.44131519274376	150.54580498866213	59	127
150.44131519274376	150.54580498866213	64	127
150.44131519274376	150.54580498866213	68	127
150.44131519274376	150.54580498866213	52	127
151.1843537414966	151.35850340136054	57	127
151.1843537414966	151.35850340136054	63	127
151.1843537414966	151.35850340136054	47	127
151.92739229024943	152.11315192743766	56	127
151.92739229024943	152.11315192743766	64	127
151.92739229024943	152.11315192743766	40	127
153.06517006802721	153.47151927437642	57	127
153.06517006802721	153.47151927437642	61	127
153.47151927437642	153.59920634920636	59	127
153.47151927437642	153.59920634920636	62	127
153.84303854875284	154.2261678004535	68	127
154.2261678004535	154.51639455782313	69	127
154.5744671201814	154.98079365079366	61	127
154.5744671201814	154.98079365079366	64	127
154.98079365079366	155.1085260770975	62	127
154.98079365079366	155.1085260770975	66	127
155.34072562358276	155.68902494331067	80	127
155.68902494331067	155.96766439909297	81	127
156.09537414965988	156.4320634920635	61	127
156.09537414965988	156.4320634920635	64	127
156.4320634920635	156.54816326530613	59	127
156.4320634920635	156.54816326530613	62	127
156.76873015873016	156.97773242630385	76	127
157.1518820861678	157.3144217687075	57	127
157.1518820861678	157.3144217687075	61	127
157.5001814058957	157.6511111111111	76	127
157.83687074829933	158.02263038548753	52	127
157.83687074829933	158.02263038548753	56	127
157.83687074829933	158.02263038548753	59	127
158.20839002267573	158.3477097505669	76	127
158.95142857142858	159.31133786848073	57	127
158.95142857142858	159.31133786848073	61	127
159.31133786848073	159.45065759637188	59	127
159.31133786848073	159.45065759637188	62	127
159.70607709750567	160.03115646258505	68	127
160.03115646258505	160.3214058956916	69	127
160.3910657596372	160.7625850340136	61	127
160.3910657596372	160.7625850340136	64	127
160.7625850340136	160.8902947845805	62	127
160.7625850340136	160.8902947845805	66	127
161.12249433106575	161.4707709750567	80	127
161.4707709750567	161.76104308390023	81	127
161.83068027210885	162.2138321995465	72	127
161.83068027210885	162.2138321995465	63	127
162.2138321995465	162.37637188208618	64	127
162.2138321995465	162.37637188208618	71	127
162.64340136054423	162.81755102040816	80	127
163.00328798185942	163.1542403628118	59	127
163.00328798185942	163.1542403628118	69	127
163.32839002267573	163.5025396825397	75	127
163.6882993197279	163.89727891156463	64	127
163.6882993197279	163.89727891156463	68	127
164.0946485260771	164.25718820861678	76	127
164.9073469387755	165.27886621315193	57	127
164.9073469387755	165.27886621315193	64	127
164.9073469387755	165.27886621315193	49	127
164.9073469387755	165.55750566893425	52	127
165.27886621315193	165.55750566893425	62	127
165.27886621315193	165.55750566893425	47	127
165.27886621315193	165.55750566893425	56	127
166.40503401360544	166.75333333333333	57	127
166.40503401360544	166.75333333333333	61	127
166.40503401360544	167.0203628117914	52	127
166.40503401360544	166.75333333333333	45	127
166.75333333333333	167.0203628117914	56	127
166.75333333333333	167.0203628117914	59	127
166.75333333333333	167.0203628117914	40	127
167.8098185941043	168.20458049886622	59	127
167.8098185941043	168.54126984126984	54	127
167.8098185941043	168.20458049886622	66	127
167.8098185941043	168.20458049886622	50	127
168.20458049886622	168.54126984126984	58	127
168.20458049886622	168.54126984126984	64	127
168.20458049886622	168.54126984126984	49	127
169.22625850340137	169.6209977324263	62	127
169.22625850340137	169.6209977324263	59	127
169.22625850340137	169.6209977324263	47	127
169.22625850340137	169.9344671201814	54	127
169.6209977324263	169.9344671201814	61	127
169.6209977324263	169.9344671201814	42	127
169.6209977324263	169.9344671201814	58	127
170.67750566893423	171.01419501133788	61	127
170.67750566893423	171.01419501133788	71	127
170.67750566893423	171.01419501133788	55	127
170.67750566893423	171.3508843537415	57	127
171.01419501133788	171.3508843537415	54	127
171.01419501133788	171.3508843537415	62	127
171.01419501133788	171.3508843537415	69	127
172.11714285714285	172.4190022675737	64	127
172.11714285714285	172.697641723356	57	127
172.11714285714285	172.4190022675737	67	127
172.11714285714285	172.4190022675737	49	127
172.4190022675737	172.697641723356	62	127
172.4190022675737	172.697641723356	66	127
172.4190022675737	172.697641723356	50	127
173.59160997732425	173.99793650793652	51	127
173.59160997732425	173.99793650793652	59	127
173.59160997732425	173.99793650793652	69	127
173.59160997732425	173.99793650793652	54	127
173.99793650793652	174.70616780045353	57	127
173.99793650793652	174.70616780045353	61	127
173.99793650793652	174.70616780045353	52	127
174.70616780045353	175.3331065759637	47	127
174.70616780045353	175.3331065759637	62	127
174.70616780045353	175.41437641723357	56	127
174.70616780045353	175.41437641723357	40	127
175.3331065759637	175.48403628117913	59	127
175.3331065759637	175.48403628117913	50	127
175.53045351473924	175.91360544217687	45	127
175.53045351473924	175.91360544217687	57	127
175.53045351473924	175.91360544217687	49	127
176.7843537414966	177.21390022675737	61	127
176.7843537414966	177.21390022675737	64	127
177.21390022675737	177.51578231292518	59	127
177.21390022675737	177.51578231292518	62	127
177.58544217687074	177.9453514739229	75	127
177.9453514739229	178.23557823129252	76	127
178.30526077097505	178.71160997732426	57	127
178.30526077097505	178.71160997732426	61	127
178.71160997732426	178.97863945578231	52	127
178.71160997732426	178.97863945578231	56	127
178.71160997732426	178.97863945578231	59	127
179.05990929705214	179.4662358276644	78	127
179.4662358276644	179.74489795918367	76	127
179.81455782312926	180.19768707482993	62	127
179.81455782312926	180.19768707482993	66	127
180.19768707482993	180.46471655328799	61	127
180.19768707482993	180.46471655328799	64	127
180.53437641723357	180.95233560090702	77	127
180.95233560090702	181.26580498866213	78	127
181.32385487528344	181.71859410430838	59	127
181.32385487528344	181.71859410430838	62	127
181.71859410430838	181.9972335600907	54	127
181.71859410430838	181.9972335600907	58	127
181.71859410430838	181.9972335600907	61	127
182.0668934240363	182.41519274376418	79	127
182.41519274376418	182.71705215419502	78	127
182.78668934240363	183.18145124716554	67	127
182.78668934240363	183.18145124716554	71	127
183.18145124716554	183.42526077097506	66	127
183.18145124716554	183.42526077097506	69	127
183.49492063492065	183.91285714285715	80	127
183.91285714285715	184.2031292517007	81	127
184.33083900226757	184.6675283446712	61	127
184.33083900226757	184.6675283446712	64	127
184.33083900226757	184.98099773242632	69	127
184.6675283446712	184.98099773242632	62	127
184.6675283446712	184.98099773242632	66	127
185.1087074829932	185.45700680272108	83	127
185.45700680272108	185.7356462585034	81	127
185.84013605442178	186.29292517006803	63	127
185.84013605442178	186.29292517006803	66	127
185.84013605442178	186.29292517006803	71	127
186.29292517006803	187.12884353741498	64	127
186.29292517006803	187.12884353741498	69	127
186.7224716553288	187.12884353741498	88	127
187.12884353741498	187.8718820861678	71	127
187.12884353741498	187.97637188208617	64	127
187.61646258503401	188.11569160997732	88	127
187.8718820861678	188.06925170068027	68	127
188.11569160997732	188.5917006802721	57	127
188.11569160997732	188.5917006802721	69	127
188.5917006802721	188.97480725623583	81	127
189.39278911564625	189.7294784580499	52	127
189.7294784580499	190.5073469387755	64	127
190.5073469387755	190.6350566893424	64	127
190.6350566893424	190.73954648526077	62	127
190.73954648526077	190.8208163265306	64	127
190.8208163265306	190.9136961451247	62	127
190.9136961451247	191.05301587301588	64	127
191.05301587301588	191.2039455782313	62	127
191.2039455782313	191.2968253968254	61	127
191.2968253968254	191.37809523809523	62	127
191.3897052154195	192.00503401360544	61	127
192.00503401360544	192.07469387755103	64	127
192.07469387755103	192.1443537414966	61	127
192.16757369614513	192.38816326530613	57	127
192.5855328798186	192.79451247165534	57	127
193.00349206349208	193.5607709750567	59	127
193.5607709750567	193.64204081632653	62	127
193.64204081632653	193.7233106575964	59	127
193.7233106575964	193.86263038548753	56	127
194.0832199546485	194.2225396825397	56	127
194.41990929705216	194.48956916099775	59	127
194.48956916099775	194.57083900226758	57	127
194.71015873015872	194.79142857142858	56	127
194.88430839002268	194.9655782312925	57	127
195.04684807256237	195.1281179138322	61	127
195.24421768707484	195.32548752834467	59	127
195.39514739229026	195.5112471655329	57	127
195.604126984127	195.6970068027211	56	127
195.80149659863946	195.90598639455783	54	127
195.99886621315193	196.1265759637188	56	127
196.23106575963718	196.31233560090703	59	127
196.39360544217686	196.48648526077096	56	127
196.5793650793651	196.66063492063492	52	127
196.75351473922902	196.83478458049888	51	127
196.9160544217687	197.0089342403628	54	127
197.1018140589569	197.19469387755103	51	127
197.28757369614513	197.38045351473923	47	127
197.46172335600906	197.54299319727892	52	127
197.6474829931973	197.74036281179139	56	127
197.87968253968253	197.9609523809524	57	127
198.04222222222222	198.15832199546486	59	127
198.26281179138323	198.35569160997733	61	127
198.4834013605442	198.56467120181406	59	127
198.6459410430839	198.71560090702948	57	127
198.80848072562358	198.8897505668934	56	127
198.97102040816327	199.0522902494331	57	127
199.1451700680272	199.23804988662133	54	127
199.3657596371882	199.44702947845806	56	127
199.5282993197279	199.621179138322	57	127
199.72566893424036	199.8069387755102	59	127
199.89981859410432	199.98108843537415	57	127
200.14362811791383	200.23650793650793	56	127
200.14362811791383	200.5615873015873	71	127
200.36421768707484	200.45709750566894	54	127
200.5615873015873	201.29301587301586	76	127
200.5615873015873	200.94471655328798	56	127
200.94471655328798	201.29301587301586	52	127
201.29301587301586	201.39750566893423	76	127
201.39750566893423	201.4787755102041	74	127
201.4787755102041	201.58326530612246	76	127
201.58326530612246	201.65292517006802	74	127
201.65292517006802	201.74580498866214	76	127
201.74580498866214	201.8502947845805	74	127
201.8502947845805	201.9431746031746	73	127
201.9431746031746	202.01283446712017	74	127
202.02444444444444	202.63977324263038	73	127
202.63977324263038	202.73265306122448	76	127
202.73265306122448	202.81392290249434	73	127
202.87197278911566	203.0461224489796	69	127
203.2318820861678	203.39442176870747	69	127
203.2318820861678	203.39442176870747	54	127
203.5801814058957	204.06780045351474	71	127
203.5801814058957	204.23034013605442	47	127
204.06780045351474	204.1722902494331	74	127
204.1722902494331	204.21873015873015	71	127
204.23034013605442	204.40448979591838	68	127
204.6482993197279	204.82244897959183	68	127
204.6482993197279	205.08947845804988	40	127
205.08947845804988	205.17074829931974	69	127
205.08947845804988	205.82090702947846	52	127
205.25201814058957	205.3332879818594	76	127
205.41455782312926	205.50743764172336	73	127
205.60031746031746	205.7164172335601	69	127
205.82090702947846	205.9021768707483	68	127
205.82090702947846	205.9021768707483	52	127
205.9021768707483	205.98344671201815	50	127
205.98344671201815	206.06471655328798	71	127
205.98344671201815	206.07632653061225	52	127
206.07632653061225	206.15759637188208	50	127
206.15759637188208	206.23886621315194	68	127
206.15759637188208	206.23886621315194	52	127
206.23886621315194	206.33174603174604	50	127
206.33174603174604	206.41301587301587	64	127
206.33174603174604	206.41301587301587	49	127
206.41301587301587	206.48267573696145	50	127
206.5291156462585	207.33020408163264	49	127
206.5291156462585	206.6219954648526	69	127
206.72648526077097	206.83097505668934	73	127
206.9354648526077	207.01673469387754	76	127
207.14444444444445	207.22571428571428	81	127
207.33020408163264	207.4114739229025	80	127
207.33020408163264	207.4114739229025	49	127
207.4114739229025	207.5043537414966	47	127
207.5043537414966	207.5972335600907	83	127
207.5043537414966	207.5972335600907	49	127
207.5972335600907	207.67850340136056	47	127
207.67850340136056	207.80621315192744	80	127
207.67850340136056	207.80621315192744	49	127
207.80621315192744	207.87587301587303	47	127
207.87587301587303	207.9803628117914	76	127
207.87587301587303	207.9803628117914	45	127
207.9803628117914	208.05002267573695	47	127
208.08485260770976	208.17773242630386	81	127
208.08485260770976	208.43315192743765	45	127
208.24739229024942	208.32866213151928	83	127
208.43315192743765	208.52603174603175	85	127
208.43315192743765	208.82789115646258	44	127
208.61891156462585	208.74662131519275	83	127
208.82789115646258	208.9091609977324	81	127
208.82789115646258	209.18780045351474	42	127
209.01365079365078	209.09492063492064	80	127
209.18780045351474	209.26907029478457	78	127
209.18780045351474	209.3851700680272	44	127
209.3851700680272	209.48965986394558	76	127
209.3851700680272	209.55931972789116	46	127
209.59414965986394	212.60113378684807	47	127
209.59414965986394	209.75668934240363	75	127
209.75668934240363	209.94244897959183	73	127
209.94244897959183	210.12820861678006	75	127
210.12820861678006	210.32557823129252	76	127
210.32557823129252	210.4881179138322	78	127
210.4881179138322	210.743537414966	75	127
210.743537414966	210.91768707482993	76	127
210.743537414966	211.1498866213152	45	127
210.91768707482993	211.10344671201815	78	127
211.1498866213152	211.5562358276644	44	127
211.1498866213152	211.37047619047618	80	127
211.37047619047618	211.5562358276644	81	127
211.5562358276644	211.9045351473923	42	127
211.5562358276644	211.73038548752834	83	127
211.73038548752834	211.86970521541951	81	127
211.9045351473923	212.0902947845805	85	127
211.9045351473923	212.33410430839	40	127
212.0902947845805	212.29927437641723	83	127
212.33410430839	212.5314739229025	44	127
212.33410430839	212.43859410430838	81	127
212.5314739229025	212.61274376417234	80	127
212.5314739229025	212.67079365079366	46	127
212.7172335600907	212.9029931972789	78	127
212.7172335600907	215.77065759637188	47	127
212.9029931972789	213.07714285714286	76	127
213.07714285714286	213.2512925170068	75	127
213.2512925170068	213.44866213151928	76	127
213.44866213151928	213.66925170068026	78	127
213.66925170068026	213.84340136054422	75	127
213.84340136054422	214.02916099773242	76	127
213.84340136054422	214.1684807256236	45	127
214.02916099773242	214.1336507936508	78	127
214.1684807256236	214.42390022675738	80	127
214.1684807256236	214.64448979591836	44	127
214.42390022675738	214.64448979591836	81	127
214.64448979591836	215.03922902494332	42	127
214.64448979591836	214.84185941043083	83	127
214.84185941043083	215.00439909297052	81	127
215.03922902494332	215.37591836734694	40	127
215.03922902494332	215.21337868480725	85	127
215.21337868480725	215.34108843537416	83	127
215.37591836734694	215.4804081632653	81	127
215.37591836734694	215.58489795918368	44	127
215.58489795918368	215.6661678004535	80	127
215.58489795918368	215.77065759637188	46	127
215.77065759637188	216.08412698412698	47	127
215.77065759637188	215.86353741496598	78	127
215.9564172335601	216.06090702947847	83	127
216.15378684807257	216.2350566893424	78	127
216.33954648526077	216.4208163265306	75	127
216.50208616780046	216.5833560090703	71	127
216.50208616780046	216.5833560090703	47	127
216.68784580498865	216.75750566893424	71	127
216.68784580498865	216.75750566893424	59	127
216.87360544217688	216.97809523809525	66	127
216.87360544217688	216.97809523809525	54	127
217.09419501133786	217.17546485260772	63	127
217.09419501133786	217.17546485260772	51	127
217.3031746031746	217.67469387755102	59	127
217.3031746031746	217.67469387755102	47	127
218.51061224489797	218.5918820861678	71	127
218.5918820861678	218.69637188208617	70	127
218.69637188208617	218.80086167800454	71	127
218.80086167800454	218.85891156462586	70	127
218.87052154195013	219.04467120181405	71	127
218.87052154195013	219.04467120181405	64	127
218.87052154195013	219.04467120181405	68	127
219.27687074829933	219.42780045351475	71	127
219.27687074829933	219.42780045351475	64	127
219.27687074829933	219.42780045351475	68	127
220.14761904761906	220.24049886621316	71	127
220.24049886621316	220.31015873015872	70	127
220.31015873015872	220.40303854875285	71	127
220.40303854875285	220.4494784580499	70	127
220.4726984126984	220.64684807256236	71	127
220.4726984126984	220.64684807256236	63	127
220.4726984126984	220.64684807256236	66	127
220.4726984126984	220.64684807256236	69	127
220.8209977324263	220.98353741496598	63	127
220.8209977324263	220.98353741496598	71	127
220.8209977324263	220.98353741496598	66	127
220.8209977324263	220.98353741496598	69	127
221.73818594104307	222.06326530612245	71	127
222.06326530612245	222.19097505668935	73	127
222.19097505668935	222.36512471655328	59	127
222.19097505668935	222.36512471655328	63	127
222.19097505668935	222.36512471655328	66	127
222.19097505668935	222.46961451247165	75	127
222.46961451247165	222.56249433106575	76	127
222.56249433106575	222.74825396825398	59	127
222.56249433106575	222.74825396825398	63	127
222.56249433106575	222.74825396825398	66	127
222.56249433106575	222.8295238095238	78	127
222.8295238095238	222.9572335600907	80	127
222.9572335600907	223.13138321995464	59	127
222.9572335600907	223.13138321995464	63	127
222.9572335600907	223.13138321995464	66	127
222.9572335600907	223.235873015873	81	127
223.235873015873	223.35197278911565	78	127
223.35197278911565	223.54934240362812	59	127
223.35197278911565	223.54934240362812	63	127
223.35197278911565	223.54934240362812	66	127
223.35197278911565	223.67705215419502	83	127
223.67705215419502	223.76993197278912	81	127
223.79315192743763	224.25755102040816	80	127
223.79315192743763	224.25755102040816	64	127
223.79315192743763	224.25755102040816	68	127
224.25755102040816	224.559410430839	83	127
225.441768707483	225.61591836734695	52	127
225.441768707483	225.61591836734695	56	127
225.80167800453515	225.88294784580498	71	127
225.80167800453515	225.95260770975057	52	127
225.80167800453515	225.95260770975057	56	127
225.88294784580498	225.95260770975057	70	127
225.95260770975057	226.04548752834467	71	127
226.04548752834467	226.11514739229025	70	127
226.12675736961452	226.4170068027211	71	127
226.99750566893425	227.1600453514739	51	127
226.99750566893425	227.1600453514739	54	127
226.99750566893425	227.1600453514739	57	127
227.34580498866214	227.42707482993197	71	127
227.34580498866214	227.4851247165533	51	127
227.34580498866214	227.4851247165533	54	127
227.34580498866214	227.4851247165533	57	127
227.42707482993197	227.4851247165533	70	127
227.4851247165533	227.56639455782312	71	127
227.56639455782312	227.64766439909297	70	127
227.65927437641724	228.12367346938777	71	127
228.5416326530612	228.7041723356009	47	127
228.5416326530612	228.7041723356009	51	127
228.5416326530612	228.7041723356009	54	127
228.94798185941042	229.13374149659865	54	127
228.94798185941042	229.13374149659865	47	127
228.94798185941042	229.13374149659865	51	127
229.30789115646257	229.4936507936508	47	127
229.30789115646257	229.4936507936508	51	127
229.30789115646257	229.4936507936508	54	127
229.66780045351473	229.8651700680272	47	127
229.66780045351473	229.8651700680272	51	127
229.66780045351473	229.8651700680272	54	127
230.07414965986393	230.51532879818595	56	127
230.07414965986393	230.51532879818595	52	127
231.0377777777778	231.35124716553287	83	127
231.0377777777778	231.93174603174603	61	127
231.0377777777778	231.93174603174603	65	127
231.0377777777778	231.93174603174603	68	127
231.35124716553287	231.4673469387755	80	127
231.4673469387755	231.75759637188207	85	127
231.75759637188207	231.89691609977325	83	127
231.93174603174603	232.29165532879819	66	127
231.93174603174603	232.36131519274377	81	127
231.93174603174603	232.29165532879819	69	127
232.36131519274377	232.65156462585034	78	127
232.76766439909298	233.6035827664399	54	127
232.76766439909298	233.6035827664399	57	127
232.76766439909298	233.6035827664399	47	127
233.16240362811791	233.6035827664399	75	127
233.6035827664399	233.94027210884354	52	127
233.6035827664399	234.0795918367347	76	127
233.6035827664399	233.94027210884354	56	127
234.0795918367347	234.34662131519275	80	127
234.4162811791383	235.34507936507936	61	127
234.4162811791383	234.82263038548754	83	127
234.4162811791383	235.34507936507936	65	127
234.4162811791383	235.34507936507936	68	127
234.82263038548754	234.92712018140588	80	127
234.92712018140588	235.240589569161	85	127
235.240589569161	235.32185941043085	83	127
235.34507936507936	235.6469387755102	66	127
235.34507936507936	235.6469387755102	69	127
235.34507936507936	235.71659863945578	81	127
235.71659863945578	236.06489795918367	78	127
236.19260770975058	237.10979591836735	54	127
236.19260770975058	237.10979591836735	47	127
236.19260770975058	237.10979591836735	57	127
236.7150566893424	237.10979591836735	75	127
237.10979591836735	237.26072562358277	76	127
237.10979591836735	237.26072562358277	52	127
237.10979591836735	237.26072562358277	56	127
237.53936507936507	237.99215419501132	54	127
237.53936507936507	237.99215419501132	57	127
237.53936507936507	237.99215419501132	75	127
237.53936507936507	237.99215419501132	47	127
237.99215419501132	238.11986394557823	52	127
237.99215419501132	238.11986394557823	76	127
237.99215419501132	238.11986394557823	56	127
238.37528344671202	238.7932426303855	54	127
238.37528344671202	238.7932426303855	57	127
238.37528344671202	238.7932426303855	75	127
238.37528344671202	238.7932426303855	47	127
238.7932426303855	238.99061224489796	76	127
238.7932426303855	238.99061224489796	52	127
238.7932426303855	238.99061224489796	56	127
239.2692517006803	240.1748299319728	52	127
239.2692517006803	239.57111111111112	80	127
239.2692517006803	240.1748299319728	56	127
239.57111111111112	239.698820861678	78	127
239.698820861678	240.0819501133787	76	127
240.0819501133787	240.1748299319728	75	127
240.1748299319728	240.46507936507936	73	127
240.1748299319728	240.46507936507936	57	127
240.1748299319728	240.46507936507936	54	127
240.46507936507936	240.55795918367346	71	127
240.46507936507936	240.55795918367346	56	127
240.46507936507936	240.55795918367346	59	127
240.56956916099773	240.77854875283447	69	127
240.56956916099773	240.77854875283447	57	127
240.56956916099773	240.77854875283447	61	127
241.16167800453513	241.32421768707482	69	127
241.49836734693878	241.68412698412698	47	127
241.49836734693878	241.68412698412698	59	127
241.93954648526076	242.16013605442177	66	127
242.4039455782313	243.66943310657595	40	127
242.4039455782313	242.7174149659864	83	127
242.4039455782313	243.66943310657595	52	127
242.7174149659864	242.8451247165533	81	127
242.8451247165533	243.11215419501133	80	127
243.11215419501133	243.1934240362812	78	127
243.1934240362812	243.51850340136053	76	127
243.51850340136053	243.66943310657595	75	127
243.66943310657595	243.92485260770974	42	127
243.66943310657595	243.92485260770974	73	127
243.66943310657595	243.92485260770974	54	127
243.92485260770974	244.05256235827665	56	127
243.92485260770974	244.05256235827665	71	127
243.92485260770974	244.05256235827665	44	127
244.12222222222223	244.30798185941043	45	127
244.12222222222223	244.30798185941043	69	127
244.12222222222223	244.30798185941043	57	127
244.58662131519273	244.7607709750567	66	127
244.58662131519273	244.7607709750567	61	127
244.58662131519273	244.7607709750567	69	127
244.93492063492064	245.10907029478457	35	127
244.93492063492064	245.10907029478457	47	127
245.480589569161	245.6663492063492	63	127
245.480589569161	245.6663492063492	57	127
245.480589569161	245.6663492063492	66	127
245.94498866213152	246.3281179138322	40	127
245.94498866213152	246.3281179138322	56	127
245.94498866213152	246.3281179138322	64	127
245.94498866213152	246.3281179138322	52	127
247.18725623582768	247.37301587301587	64	127
247.72131519274376	247.8606349206349	63	127
247.96512471655328	248.23215419501133	61	127
247.96512471655328	248.23215419501133	64	127
248.63850340136054	248.7197732426304	64	127
248.63850340136054	248.7197732426304	59	127
248.80104308390023	249.02163265306123	57	127
248.80104308390023	249.02163265306123	64	127
249.52086167800454	249.61374149659864	64	127
249.52086167800454	249.61374149659864	56	127
249.6950113378685	251.262358276644	54	127
250.31034013605444	251.262358276644	59	127
250.31034013605444	251.262358276644	69	127
251.262358276644	251.78480725623584	52	127
251.262358276644	251.78480725623584	59	127
251.262358276644	251.78480725623584	68	127
251.8544671201814	252.02861678004535	45	127
252.30725623582765	252.50462585034015	61	127
252.30725623582765	252.50462585034015	66	127
252.71360544217688	252.91097505668935	47	127
253.18961451247165	253.3637641723356	59	127
253.18961451247165	253.3637641723356	63	127
253.53791383219954	253.7701133786848	52	127
253.53791383219954	253.7701133786848	40	127
254.10680272108843	254.31578231292517	59	127
254.10680272108843	254.31578231292517	64	127
254.55959183673468	254.66408163265305	52	127
254.55959183673468	254.66408163265305	68	127
254.55959183673468	254.66408163265305	80	127
254.55959183673468	254.66408163265305	64	127
254.80340136054423	254.89628117913833	52	127
254.80340136054423	254.89628117913833	68	127
254.80340136054423	254.89628117913833	80	127
254.80340136054423	254.89628117913833	64	127
255.22136054421767	255.30263038548753	51	127
255.22136054421767	255.30263038548753	66	127
255.22136054421767	255.30263038548753	78	127
255.22136054421767	255.30263038548753	63	127
255.46517006802722	255.5696598639456	61	127
255.46517006802722	255.5696598639456	69	127
255.46517006802722	255.5696598639456	81	127
255.46517006802722	255.5696598639456	49	127
255.67414965986396	255.77863945578233	61	127
255.67414965986396	255.77863945578233	69	127
255.67414965986396	255.77863945578233	81	127
255.67414965986396	255.77863945578233	49	127
256.0688662131519	256.20820861678004	47	127
256.0688662131519	256.20820861678004	68	127
256.0688662131519	256.20820861678004	80	127
256.0688662131519	256.20820861678004	59	127
256.28947845804987	256.39396825396824	45	127
256.28947845804987	256.39396825396824	73	127
256.28947845804987	256.39396825396824	85	127
256.28947845804987	256.39396825396824	57	127
256.4752154195011	256.6261678004535	45	127
256.4752154195011	256.6261678004535	73	127
256.4752154195011	256.6261678004535	85	127
256.4752154195011	256.6261678004535	57	127
257.0325170068027	257.1253968253968	71	127
257.0325170068027	257.1253968253968	83	127
257.0325170068027	257.1253968253968	44	127
257.0325170068027	257.1253968253968	56	127
257.27632653061227	258.9365306122449	75	127
257.27632653061227	258.9365306122449	87	127
257.27632653061227	257.8568253968254	42	127
257.27632653061227	257.8568253968254	54	127
257.8568253968254	258.9365306122449	66	127
257.8568253968254	258.9365306122449	69	127
258.9365306122449	259.4357823129252	76	127
258.9365306122449	259.4357823129252	88	127
258.9365306122449	259.4357823129252	68	127
259.8537188208617	260.13238095238097	57	127
259.8537188208617	260.13238095238097	45	127
260.32975056689344	260.5271201814059	69	127
260.32975056689344	260.5271201814059	81	127
260.77090702947845	261.0263492063492	59	127
260.77090702947845	261.0263492063492	47	127
261.3049886621315	261.49072562358276	78	127
261.3049886621315	261.49072562358276	66	127
261.722947845805	263.3831746031746	56	127
261.722947845805	261.8854875283447	64	127
261.722947845805	263.3831746031746	52	127
261.722947845805	263.3831746031746	59	127
261.8854875283447	262.1060544217687	68	127
262.1060544217687	262.39632653061227	71	127
262.39632653061227	262.58208616780047	76	127
262.58208616780047	262.76784580498867	80	127
262.76784580498867	262.96521541950113	83	127
262.96521541950113	263.1974149659864	80	127
263.1974149659864	263.35995464852607	76	127
263.3831746031746	265.03179138321997	57	127
263.3831746031746	263.5805442176871	81	127
263.3831746031746	265.03179138321997	52	127
263.3831746031746	265.03179138321997	54	127
263.3831746031746	265.03179138321997	59	127
263.5805442176871	263.77791383219954	78	127
263.77791383219954	263.975283446712	75	127
263.975283446712	264.2074829931973	71	127
264.2074829931973	264.4280725623583	69	127
264.4280725623583	264.6486621315193	71	127
264.6486621315193	264.84603174603177	69	127
264.84603174603177	264.99696145124716	66	127
265.03179138321997	266.6920181405896	59	127
265.03179138321997	266.6920181405896	52	127
265.03179138321997	265.21755102040817	64	127
265.03179138321997	266.6920181405896	56	127
265.21755102040817	265.40331065759636	68	127
265.40331065759636	265.58907029478456	71	127
265.58907029478456	265.7980498866213	76	127
265.7980498866213	266.00702947845804	80	127
266.00702947845804	266.181179138322	83	127
266.181179138322	266.4714285714286	80	127
266.4714285714286	266.622358276644	76	127
266.6920181405896	266.85455782312926	81	127
266.6920181405896	268.2941950113379	52	127
266.6920181405896	268.2941950113379	54	127
266.6920181405896	268.2941950113379	59	127
266.6920181405896	268.2941950113379	57	127
266.85455782312926	267.04031746031745	78	127
267.04031746031745	267.21444444444444	75	127
267.21444444444444	267.44666666666666	71	127
267.44666666666666	267.62079365079364	69	127
267.62079365079364	267.8414058956916	71	127
267.8414058956916	268.14326530612243	69	127
268.14326530612243	268.2477551020408	66	127
268.2941950113379	268.43349206349205	40	127
268.2941950113379	268.74696145124716	64	127
268.5612244897959	268.65410430839	44	127
268.74696145124716	268.83986394557826	47	127
268.93274376417236	269.02562358276646	52	127
269.11850340136056	269.1997732426304	56	127
269.2926530612245	269.3855328798186	59	127
269.4784126984127	269.5945124716553	56	127
269.67578231292515	269.75705215419504	52	127
269.8615419501134	269.97761904761904	57	127
269.8615419501134	270.7439002267574	71	127
270.07049886621314	270.1749886621315	54	127
270.2794784580499	270.3607709750567	51	127
270.5117006802721	270.6045804988662	47	127
270.7439002267574	270.8251700680272	45	127
270.7439002267574	270.9528798185941	71	127
270.9528798185941	271.03414965986394	47	127
271.1386394557823	271.25473922902495	45	127
271.1386394557823	271.3243990929705	71	127
271.3592290249433	271.44049886621315	42	127
271.521768707483	271.60301587301586	40	127
271.521768707483	272.3576870748299	76	127
271.7307482993197	271.84684807256235	44	127
271.93972789115645	272.02097505668934	47	127
272.11385487528344	272.2183446712018	52	127
272.3576870748299	272.450566893424	56	127
272.3576870748299	272.6363038548753	71	127
272.5318140589569	272.624693877551	59	127
272.7175963718821	272.79886621315194	56	127
272.89174603174604	272.98462585034014	52	127
273.0891156462585	273.2284353741497	57	127
273.0891156462585	273.9366439909297	71	127
273.3213151927438	273.4025850340136	54	127
273.507074829932	273.6231746031746	51	127
273.7160544217687	273.8437641723356	47	127
273.9366439909297	274.0295238095238	45	127
273.9366439909297	274.1340136054422	71	127
274.14562358276646	274.2268934240363	47	127
274.3197732426304	274.435873015873	45	127
274.3197732426304	274.4939229024943	71	127
274.5287528344671	274.6332426303855	42	127
274.7145124716553	274.8073922902494	40	127
274.7145124716553	275.1673015873016	68	127
274.93510204081633	275.0860090702948	47	127
275.1673015873016	275.27179138322	44	127
275.3995011337868	275.46916099773244	40	127
275.56204081632654	275.59684807256235	70	127
275.59684807256235	275.68975056689345	39	127
275.59684807256235	275.87551020408165	71	127
275.7710204081633	275.8522902494331	42	127
275.9451700680272	276.02643990929704	35	127
276.1309297052154	276.2238095238095	39	127
276.3515192743764	276.4443990929705	40	127
276.3515192743764	276.74625850340135	68	127
276.56049886621315	276.641768707483	47	127
276.74625850340135	276.83913832199545	44	127
276.92038548752834	277.01328798185943	40	127
277.0481179138322	277.09455782312926	82	127
277.09455782312926	277.41963718820864	83	127
277.09455782312926	277.1758276643991	39	127
277.29192743764173	277.3964172335601	42	127
277.4892970521542	277.60539682539684	35	127
277.69827664399094	277.8027664399093	39	127
277.9072562358277	277.9885260770975	40	127
277.9072562358277	278.32521541950115	80	127
278.10462585034014	278.2091156462585	52	127
278.32521541950115	278.41809523809525	56	127
278.5225850340136	278.6154648526077	52	127
278.7547845804989	278.9057142857143	47	127
278.7547845804989	278.9985941043084	80	127
278.7547845804989	278.9985941043084	88	127
278.9985941043084	279.10308390022675	52	127
279.23079365079366	279.37011337868483	44	127
279.23079365079366	279.4978231292517	80	127
279.23079365079366	279.4978231292517	88	127
279.4978231292517	279.6139229024943	47	127
279.83451247165533	280.36857142857144	80	127
279.83451247165533	280.36857142857144	88	127
279.83451247165533	280.36857142857144	40	127
281.6108390022676	282.27260770975056	61	127
281.6108390022676	282.00557823129253	53	127
281.6108390022676	282.27260770975056	49	127
281.6108390022676	282.00557823129253	37	127
282.00557823129253	282.27260770975056	39	127
282.00557823129253	282.27260770975056	54	127
283.3639229024943	283.7354648526077	56	127
283.3639229024943	283.7354648526077	41	127
283.3639229024943	284.1534240362812	61	127
283.3639229024943	284.1534240362812	49	127
283.7354648526077	284.1534240362812	57	127
283.7354648526077	284.1534240362812	42	127
285.0938321995465	285.44213151927437	59	127
285.0938321995465	285.44213151927437	61	127
285.0938321995465	285.44213151927437	44	127
285.0938321995465	285.7207482993197	49	127
285.44213151927437	285.7207482993197	61	127
285.44213151927437	285.7207482993197	45	127
286.4754195011338	286.6379365079365	66	127
286.4754195011338	286.6379365079365	57	127
286.4754195011338	286.6379365079365	61	127
286.4754195011338	286.6379365079365	42	127
286.4754195011338	286.6379365079365	49	127
287.5203174603175	287.6944671201814	56	127
287.5203174603175	287.6944671201814	61	127
287.5203174603175	287.6944671201814	65	127
287.5203174603175	287.6944671201814	37	127
287.5203174603175	287.6944671201814	49	127
288.98315192743763	289.3198639455782	49	127
289.3198639455782	290.26027210884354	61	127
290.26027210884354	290.34154195011337	61	127
290.34154195011337	290.43442176870747	59	127
290.43442176870747	290.5040816326531	61	127
290.5040816326531	290.60857142857145	59	127
290.60857142857145	290.98009070294785	61	127
290.7246485260771	290.8175510204082	59	127
290.8175510204082	290.9104308390023	57	127
290.9104308390023	290.9684807256236	59	127
290.98009070294785	291.8043990929705	73	127
290.98009070294785	291.8043990929705	57	127
291.8043990929705	291.92049886621317	73	127
291.8043990929705	291.92049886621317	57	127
291.92049886621317	292.02498866213153	71	127
291.92049886621317	292.02498866213153	56	127
292.02498866213153	292.19913832199546	73	127
292.02498866213153	292.19913832199546	57	127
292.19913832199546	292.3616553287982	71	127
292.19913832199546	292.3616553287982	56	127
292.3616553287982	292.48938775510203	57	127
292.3616553287982	292.48938775510203	73	127
292.48938775510203	292.5938775510204	56	127
292.48938775510203	292.5938775510204	71	127
292.5938775510204	292.74480725623584	54	127
292.5938775510204	292.74480725623584	69	127
292.74480725623584	292.8609070294785	56	127
292.74480725623584	292.8609070294785	71	127
292.87249433106575	293.27884353741496	54	127
292.87249433106575	293.27884353741496	69	127
293.27884353741496	293.812925170068	53	127
293.27884353741496	293.812925170068	68	127
293.812925170068	294.4514739229025	69	127
293.812925170068	294.4514739229025	54	127
294.4514739229025	295.14807256235827	71	127
294.4514739229025	295.14807256235827	66	127
294.4514739229025	295.14807256235827	50	127
295.41510204081635	298.09700680272107	68	127
295.41510204081635	298.09700680272107	73	127
295.41510204081635	298.09700680272107	49	127
299.1651247165533	299.6643537414966	38	127
299.6643537414966	300.430612244898	50	127
300.430612244898	300.5234920634921	50	127
300.5234920634921	300.62798185941045	48	127
300.62798185941045	300.72086167800455	50	127
300.72086167800455	300.8369614512472	48	127
300.8369614512472	300.95303854875283	50	127
300.95303854875283	301.1504081632653	48	127
301.1504081632653	301.25489795918367	47	127
301.25489795918367	301.3245804988662	48	127
301.3361904761905	302.09083900226756	47	127
302.09083900226756	302.1836961451247	47	127
302.1836961451247	302.26498866213154	45	127
302.26498866213154	302.35786848072564	47	127
302.35786848072564	302.4739682539683	45	127
302.4739682539683	302.57845804988665	47	127
302.4739682539683	302.89190476190475	62	127
302.57845804988665	302.6597278911565	45	127
302.6597278911565	302.7758276643991	43	127
302.7758276643991	302.8803174603175	45	127
302.89190476190475	303.2750566893424	43	127
302.89190476190475	304.13419501133785	74	127
303.2750566893424	303.6581859410431	42	127
303.6581859410431	304.13419501133785	43	127
304.13419501133785	304.4592743764172	79	127
304.13419501133785	304.4592743764172	39	127
304.5521541950113	304.94689342403626	78	127
304.5521541950113	305.7944217687075	38	127
304.94689342403626	305.39968253968254	76	127
305.39968253968254	305.7944217687075	78	127
305.7944217687075	306.1427210884354	80	127
305.7944217687075	306.25882086167803	35	127
305.7944217687075	306.25882086167803	47	127
306.25882086167803	306.63034013605443	33	127
306.25882086167803	306.63034013605443	45	127
306.25882086167803	307.4894557823129	81	127
306.63034013605443	307.07151927437644	44	127
307.07151927437644	307.4894557823129	45	127
307.4894557823129	307.8377777777778	41	127
307.4894557823129	307.9190476190476	81	127
307.9190476190476	308.3253968253968	80	127
307.9190476190476	309.126462585034	40	127
308.3253968253968	308.70852607709753	78	127
308.70852607709753	309.126462585034	80	127
309.126462585034	309.4980045351474	82	127
309.126462585034	309.60249433106577	37	127
309.126462585034	309.60249433106577	49	127
309.60249433106577	310.05526077097505	35	127
309.60249433106577	310.05526077097505	47	127
309.60249433106577	310.937641723356	83	127
310.05526077097505	310.51968253968255	46	127
310.51968253968255	310.937641723356	47	127
310.937641723356	311.3439909297052	43	127
310.937641723356	311.47170068027214	83	127
311.47170068027214	311.95931972789117	82	127
311.47170068027214	311.95931972789117	42	127
311.95931972789117	312.3192290249433	56	127
311.95931972789117	312.3192290249433	59	127
312.3192290249433	312.481768707483	58	127
312.3192290249433	312.481768707483	61	127
312.7720181405896	313.2131746031746	46	127
312.7720181405896	313.2131746031746	49	127
313.2131746031746	313.34090702947844	47	127
313.2131746031746	313.34090702947844	50	127
313.6775963718821	314.10716553287983	59	127
313.6775963718821	314.10716553287983	62	127
314.10716553287983	314.246462585034	61	127
314.10716553287983	314.246462585034	64	127
314.59478458049887	314.97791383219953	49	127
314.59478458049887	314.97791383219953	52	127
314.97791383219953	315.1520634920635	54	127
314.97791383219953	315.1520634920635	50	127
314.97791383219953	315.7441723356009	83	127
315.37265306122447	315.7441723356009	61	127
315.37265306122447	315.7441723356009	64	127
315.7441723356009	315.9067120181406	66	127
315.7441723356009	315.9067120181406	63	127
315.7441723356009	315.86027210884356	83	127
315.86027210884356	315.95315192743766	81	127
315.95315192743766	316.0924716553288	83	127
316.0924716553288	316.23179138321996	81	127
316.23179138321996	316.64975056689343	54	127
316.23179138321996	316.3130612244898	83	127
316.23179138321996	316.64975056689343	51	127
316.3130612244898	316.4291609977324	81	127
316.4291609977324	316.54526077097506	79	127
316.54526077097506	316.6265306122449	81	127
316.64975056689343	316.77746031746034	52	127
316.64975056689343	316.77746031746034	55	127
316.64975056689343	317.40437641723355	79	127
317.04448979591837	317.40437641723355	64	127
317.04448979591837	317.40437641723355	67	127
317.40437641723355	317.4856689342404	79	127
317.40437641723355	317.5321088435374	66	127
317.40437641723355	317.5321088435374	69	127
317.4856689342404	317.5669387755102	78	127
317.5669387755102	317.7526984126984	79	127
317.7526984126984	317.90362811791385	78	127
317.90362811791385	318.30997732426306	57	127
317.90362811791385	317.99650793650795	79	127
317.90362811791385	318.30997732426306	54	127
317.99650793650795	318.1009977324263	78	127
318.1009977324263	318.1938775510204	76	127
318.1938775510204	318.2867573696145	78	127
318.30997732426306	318.43766439909297	55	127
318.30997732426306	318.43766439909297	59	127
318.30997732426306	318.751156462585	76	127
318.751156462585	319.145873015873	57	127
318.751156462585	319.145873015873	54	127
319.145873015873	319.30843537414967	59	127
319.145873015873	319.30843537414967	56	127
319.5174149659864	319.9237641723356	44	127
319.5174149659864	319.9237641723356	47	127
319.9237641723356	320.0514739229025	48	127
319.9237641723356	320.0514739229025	45	127
320.26045351473925	320.7828798185941	57	127
320.26045351473925	320.7828798185941	60	127
320.7828798185941	320.9222222222222	62	127
320.7828798185941	320.9222222222222	59	127
321.2008616780045	321.58399092970524	47	127
321.2008616780045	321.58399092970524	50	127
321.58399092970524	321.72331065759636	48	127
321.58399092970524	321.72331065759636	52	127
321.58399092970524	322.4779591836735	81	127
322.06	322.4779591836735	59	127
322.06	322.4779591836735	62	127
322.4779591836735	322.61727891156465	64	127
322.4779591836735	322.5708390022676	81	127
322.4779591836735	322.61727891156465	61	127
322.5708390022676	322.6521088435374	79	127
322.6521088435374	322.7333560090703	81	127
322.7333560090703	322.8262358276644	79	127
322.8262358276644	323.17455782312925	52	127
322.8262358276644	322.9191383219955	81	127
322.8262358276644	323.17455782312925	49	127
322.9191383219955	323.0004081632653	79	127
323.0004081632653	323.0932879818594	77	127
323.0932879818594	323.162947845805	79	127
323.17455782312925	323.53446712018143	77	127
323.17455782312925	323.3138775510204	50	127
323.17455782312925	323.3138775510204	53	127
323.53446712018143	323.89437641723356	52	127
323.53446712018143	323.6389569160998	77	127
323.53446712018143	323.89437641723356	55	127
323.6389569160998	323.7318367346939	76	127
323.7318367346939	323.81310657596373	74	127
323.81310657596373	323.8827664399093	76	127
323.89437641723356	324.045306122449	53	127
323.89437641723356	324.045306122449	57	127
323.89437641723356	324.40521541950113	74	127
324.40521541950113	324.48648526077096	74	127
324.40521541950113	324.81156462585034	51	127
324.40521541950113	324.81156462585034	54	127
324.48648526077096	324.57936507936506	72	127
324.57936507936506	324.71868480725624	71	127
324.71868480725624	324.7883446712018	72	127
324.81156462585034	325.2643537414966	71	127
324.81156462585034	328.3525850340136	52	127
324.81156462585034	324.97408163265305	56	127
325.2643537414966	325.71714285714285	75	127
325.71714285714285	325.89126984126983	76	127
326.1815419501134	326.6459410430839	62	127
326.1815419501134	326.6459410430839	68	127
326.1815419501134	326.6459410430839	71	127
326.6459410430839	326.79687074829934	60	127
326.6459410430839	326.79687074829934	69	127
326.6459410430839	326.79687074829934	72	127
327.11034013605445	327.4934693877551	75	127
327.4934693877551	327.6443990929705	76	127
327.9694784580499	328.48031746031745	69	127
327.9694784580499	328.48031746031745	72	127
327.9694784580499	328.48031746031745	63	127
328.48031746031745	332.5321995464853	52	127
328.48031746031745	328.66607709750565	68	127
328.48031746031745	328.66607709750565	71	127
328.48031746031745	328.66607709750565	64	127
328.8982766439909	329.33945578231294	75	127
329.33945578231294	329.51360544217687	76	127
329.79224489795916	330.2334240362812	68	127
329.79224489795916	330.2334240362812	71	127
329.79224489795916	330.2334240362812	62	127
330.2334240362812	330.61655328798184	69	127
330.2334240362812	330.61655328798184	72	127
330.2334240362812	330.61655328798184	60	127
330.83714285714285	331.27832199546486	75	127
331.27832199546486	331.4408616780045	76	127
331.78916099773244	332.3928798185941	72	127
331.78916099773244	332.3928798185941	69	127
331.78916099773244	332.3928798185941	63	127
332.3928798185941	332.5321995464853	68	127
332.3928798185941	332.5321995464853	71	127
332.3928798185941	332.5321995464853	64	127
332.9385487528345	333.3448979591837	75	127
333.3448979591837	333.4958276643991	76	127
334.6568253968254	335.1560544217687	82	127
335.1560544217687	335.30696145124716	83	127
336.4447619047619	336.8859410430839	85	127
336.8859410430839	337.03684807256235	83	127
338.1978684807256	338.63904761904763	78	127
338.63904761904763	338.76675736961454	76	127
339.8813151927438	340.39215419501136	71	127
340.39215419501136	340.554693877551	69	127
341.611201814059	342.098820861678	64	127
342.098820861678	342.2381405895692	63	127
343.3875283446712	343.8170975056689	64	127
343.8170975056689	343.94480725623583	63	127
345.2683446712018	345.79079365079366	64	127
345.79079365079366	345.91850340136057	62	127
347.64839002267576	348.20566893424035	64	127
348.20566893424035	348.36820861678007	62	127
349.2273469387755	349.74979591836734	61	127
349.2273469387755	349.74979591836734	45	127
349.2273469387755	349.9587755102041	57	127
349.74979591836734	349.9587755102041	62	127
349.74979591836734	349.9587755102041	47	127
350.8991836734694	351.7467120181406	57	127
350.8991836734694	351.45643990929705	64	127
350.8991836734694	351.45643990929705	49	127
351.45643990929705	351.7467120181406	66	127
351.45643990929705	351.7467120181406	50	127
352.5361904761905	352.8380498866213	64	127
352.5361904761905	352.8380498866213	57	127
352.5361904761905	352.8380498866213	49	127
352.5361904761905	352.9657596371882	52	127
352.8380498866213	352.9657596371882	56	127
352.8380498866213	352.9657596371882	62	127
352.8380498866213	352.9657596371882	47	127
353.6971882086168	353.8365079365079	57	127
353.6971882086168	353.8365079365079	61	127
353.6971882086168	353.8365079365079	45	127
353.6971882086168	353.8365079365079	52	127
354.3937868480726	354.54471655328797	56	127
354.3937868480726	354.54471655328797	59	127
354.3937868480726	354.54471655328797	40	127
354.3937868480726	354.54471655328797	52	127
355.5199546485261	355.8914739229025	45	127
355.5199546485261	355.8914739229025	61	127
355.5199546485261	356.0772335600907	57	127
355.8914739229025	356.0772335600907	47	127
355.8914739229025	356.0772335600907	62	127
357.017641723356	357.7490702947846	57	127
357.017641723356	357.5865079365079	49	127
357.017641723356	357.5865079365079	64	127
357.5865079365079	357.7490702947846	50	127
357.5865079365079	357.7490702947846	66	127
358.57337868480727	358.94489795918366	51	127
358.57337868480727	358.94489795918366	60	127
358.57337868480727	358.94489795918366	66	127
358.57337868480727	358.94489795918366	69	127
358.94489795918366	359.07260770975057	59	127
358.94489795918366	359.07260770975057	64	127
358.94489795918366	359.07260770975057	68	127
358.94489795918366	359.07260770975057	52	127
359.7227664399093	359.86208616780044	57	127
359.7227664399093	359.86208616780044	63	127
359.7227664399093	359.86208616780044	47	127
360.3845351473923	360.547074829932	56	127
360.3845351473923	360.547074829932	64	127
360.3845351473923	360.547074829932	40	127
361.5107029478458	362.0447619047619	61	127
361.5107029478458	361.6035827664399	83	127
361.5107029478458	362.0447619047619	57	127
361.6035827664399	361.7312925170068	81	127
361.7312925170068	361.8241723356009	83	127
361.8241723356009	362.0447619047619	81	127
362.0447619047619	362.1492517006803	83	127
362.0447619047619	362.19566893424036	59	127
362.0447619047619	362.19566893424036	62	127
362.1492517006803	362.2421315192744	81	127
362.2421315192744	362.358231292517	83	127
362.358231292517	362.43950113378685	81	127
362.43950113378685	362.7645804988662	47	127
362.43950113378685	362.5091609977324	83	127
362.43950113378685	362.7645804988662	50	127
362.5091609977324	362.578820861678	81	127
362.578820861678	362.66009070294785	83	127
362.66009070294785	362.7645804988662	81	127
362.7645804988662	362.9503401360544	49	127
362.7645804988662	362.89229024943313	83	127
362.7645804988662	362.9503401360544	52	127
362.89229024943313	362.98517006802723	81	127
362.98517006802723	363.0896598639456	83	127
363.0896598639456	363.25219954648526	81	127
363.25219954648526	363.6004988662132	64	127
363.25219954648526	363.3334693877551	83	127
363.25219954648526	363.6004988662132	61	127
363.3334693877551	363.4263492063492	81	127
363.4263492063492	363.51920634920634	83	127
363.51920634920634	363.6004988662132	81	127
363.6004988662132	363.78625850340137	83	127
363.6004988662132	363.8326984126984	62	127
363.6004988662132	363.8326984126984	66	127
363.78625850340137	363.8675283446712	81	127
363.8675283446712	363.94879818594103	83	127
363.94879818594103	364.04167800453513	81	127
364.04167800453513	364.33190476190475	50	127
364.04167800453513	364.0881179138322	83	127
364.04167800453513	364.33190476190475	54	127
364.0881179138322	364.16938775510204	81	127
364.16938775510204	364.23902494331065	83	127
364.23902494331065	364.33190476190475	81	127
364.33190476190475	364.48285714285714	52	127
364.33190476190475	364.4131972789116	83	127
364.33190476190475	364.48285714285714	49	127
364.4131972789116	364.5408843537415	81	127
364.5408843537415	364.7150566893424	80	127
364.7150566893424	364.7731065759637	81	127
364.79632653061225	365.2839455782313	64	127
364.79632653061225	365.14462585034016	61	127
364.79632653061225	364.8659863945578	88	127
364.9472335600907	365.0401360544218	88	127
365.14462585034016	365.3535827664399	88	127
365.14462585034016	365.2839455782313	59	127
365.3535827664399	365.492925170068	87	127
365.51614512471656	365.5974149659864	88	127
365.51614512471656	365.6902947845805	47	127
365.6902947845805	365.7715419501134	88	127
365.8644217687075	366.06181405895694	57	127
365.8644217687075	366.06181405895694	64	127
365.8644217687075	366.06181405895694	88	127
366.06181405895694	366.2243537414966	87	127
366.2591836734694	366.3520634920635	88	127
366.2591836734694	366.4797505668934	45	127
366.4797505668934	366.56104308390024	88	127
366.65392290249434	366.83968253968254	64	127
366.65392290249434	366.74680272108844	88	127
366.65392290249434	366.83968253968254	56	127
366.65392290249434	366.83968253968254	59	127
366.83968253968254	366.93256235827664	83	127
367.01383219954647	367.09507936507936	80	127
367.01383219954647	367.1995691609977	40	127
367.1995691609977	367.28086167800456	76	127
367.37374149659865	367.4550113378685	71	127
367.55950113378685	367.6756009070295	64	127
367.7684807256236	368.18643990929706	61	127
367.7684807256236	367.8613605442177	83	127
367.7684807256236	368.18643990929706	57	127
367.8613605442177	367.96585034013606	81	127
367.96585034013606	368.10517006802723	83	127
368.10517006802723	368.18643990929706	81	127
368.18643990929706	368.27931972789116	83	127
368.18643990929706	368.32573696145124	59	127
368.18643990929706	368.32573696145124	62	127
368.27931972789116	368.360589569161	81	127
368.360589569161	368.4418594104308	83	127
368.4418594104308	368.56956916099773	81	127
368.56956916099773	368.97591836734694	50	127
368.56956916099773	368.6740589569161	83	127
368.56956916099773	368.97591836734694	47	127
368.6740589569161	368.801768707483	81	127
368.801768707483	368.9062585034014	83	127
368.9062585034014	368.97591836734694	81	127
368.97591836734694	369.0804081632653	49	127
368.97591836734694	369.04555555555555	83	127
368.97591836734694	369.0804081632653	52	127
369.04555555555555	369.1152380952381	81	127
369.1152380952381	369.19650793650794	83	127
369.19650793650794	369.28938775510204	81	127
369.28938775510204	369.6725170068027	64	127
369.28938775510204	369.3938775510204	83	127
369.28938775510204	369.6725170068027	61	127
369.3938775510204	369.47514739229024	81	127
369.47514739229024	369.5912471655329	83	127
369.5912471655329	369.6725170068027	81	127
369.6725170068027	369.8350566893424	66	127
369.6725170068027	369.7770068027211	83	127
369.6725170068027	369.8350566893424	62	127
369.7770068027211	369.96274376417233	81	127
369.96274376417233	370.05564625850343	83	127
370.05564625850343	370.1601133786848	81	127
370.1601133786848	370.60131519274375	54	127
370.1601133786848	370.2530158730159	83	127
370.1601133786848	370.60131519274375	50	127
370.2530158730159	370.41555555555556	81	127
370.41555555555556	370.5200453514739	83	127
370.5200453514739	370.60131519274375	81	127
370.60131519274375	370.6825850340136	83	127
370.60131519274375	370.72902494331066	49	127
370.60131519274375	370.72902494331066	52	127
370.6825850340136	370.76385487528347	81	127
370.76385487528347	370.8451247165533	80	127
370.8451247165533	370.92639455782313	81	127
370.9380045351474	371.2979138321995	63	127
370.9380045351474	371.01927437641723	84	127
370.9380045351474	371.2979138321995	66	127
371.1237641723356	371.2166439909297	84	127
371.2979138321995	371.50689342403626	83	127
371.2979138321995	371.448843537415	64	127
371.2979138321995	371.448843537415	68	127
371.50689342403626	371.669433106576	88	127
371.7042403628118	371.7855328798186	83	127
371.7042403628118	371.8551927437642	52	127
371.8551927437642	371.936462585034	80	127
372.0293424036281	372.110589569161	81	127
372.0293424036281	372.1918820861678	59	127
372.0293424036281	372.1918820861678	66	127
372.2034693877551	372.2847619047619	78	127
372.40086167800456	372.49374149659866	75	127
372.40086167800456	372.58662131519276	47	127
372.58662131519276	372.67950113378686	69	127
372.81879818594103	372.9813605442177	64	127
372.81879818594103	372.8884807256236	68	127
372.81879818594103	372.9813605442177	56	127
372.81879818594103	372.9813605442177	59	127
372.9813605442177	373.0626303854875	76	127
373.1555102040816	373.2483900226757	71	127
373.1555102040816	373.3412698412698	40	127
373.3528798185941	373.434126984127	68	127
373.5270294784581	373.68956916099773	64	127
374.09591836734694	374.5719274376417	64	127
374.09591836734694	374.5719274376417	57	127
374.09591836734694	374.5719274376417	49	127
374.09591836734694	374.7112471655329	52	127
374.5719274376417	374.7112471655329	62	127
374.5719274376417	374.7112471655329	47	127
374.5719274376417	374.7112471655329	56	127
375.73292517006803	376.13927437641723	57	127
375.73292517006803	376.26698412698414	52	127
375.73292517006803	376.13927437641723	61	127
375.73292517006803	376.13927437641723	45	127
376.13927437641723	376.26698412698414	59	127
376.13927437641723	376.26698412698414	56	127
376.13927437641723	376.26698412698414	40	127
377.30027210884356	377.90399092970523	54	127
377.30027210884356	377.67179138321995	59	127
377.30027210884356	377.67179138321995	66	127
377.30027210884356	377.67179138321995	50	127
377.67179138321995	377.90399092970523	49	127
377.67179138321995	377.90399092970523	58	127
377.67179138321995	377.90399092970523	64	127
378.8327891156463	379.2971882086168	54	127
378.8327891156463	379.1346485260771	59	127
378.8327891156463	379.1346485260771	62	127
378.8327891156463	379.1346485260771	47	127
379.1346485260771	379.2971882086168	42	127
379.1346485260771	379.2971882086168	61	127
379.1346485260771	379.2971882086168	58	127
380.38850340136054	380.7252154195011	71	127
380.38850340136054	380.7252154195011	61	127
380.38850340136054	380.7252154195011	55	127
380.38850340136054	380.84131519274376	57	127
380.7252154195011	380.84131519274376	69	127
380.7252154195011	380.84131519274376	54	127
380.7252154195011	380.84131519274376	62	127
381.81655328798183	382.19968253968256	67	127
381.81655328798183	382.3273922902494	57	127
381.81655328798183	382.19968253968256	49	127
381.81655328798183	382.19968253968256	64	127
382.19968253968256	382.3273922902494	50	127
382.19968253968256	382.3273922902494	62	127
382.19968253968256	382.3273922902494	66	127
383.39551020408163	383.7786394557823	59	127
383.39551020408163	383.7786394557823	69	127
383.39551020408163	383.7786394557823	51	127
383.39551020408163	383.7786394557823	54	127
383.7786394557823	384.42879818594105	61	127
383.7786394557823	384.42879818594105	57	127
383.7786394557823	384.42879818594105	52	127
384.42879818594105	384.97446712018143	62	127
384.42879818594105	384.97446712018143	47	127
384.42879818594105	385.044126984127	56	127
384.42879818594105	385.044126984127	40	127
384.97446712018143	385.1253968253968	59	127
384.97446712018143	385.1253968253968	50	127
385.1718367346939	385.56657596371883	45	127
385.1718367346939	385.56657596371883	57	127
385.1718367346939	385.56657596371883	49	127
386.4024943310658	386.83206349206347	61	127
386.4024943310658	386.83206349206347	64	127
386.83206349206347	386.9597732426304	59	127
386.83206349206347	386.9597732426304	62	127
387.02943310657594	387.1107029478458	39	127
387.2035827664399	387.296462585034	40	127
387.41256235827666	387.50544217687076	39	127
387.5867120181406	387.81891156462586	40	127
388.0278911564626	388.4342403628118	57	127
388.0278911564626	388.4342403628118	61	127
388.4342403628118	388.60839002267574	59	127
388.4342403628118	388.60839002267574	56	127
388.6548299319728	388.73609977324264	78	127
388.82897959183674	388.91024943310657	76	127
388.9915192743764	389.0843990929705	78	127
389.18888888888887	389.36303854875285	76	127
389.5836281179138	389.98997732426307	62	127
389.5836281179138	389.98997732426307	66	127
389.98997732426307	390.1525170068027	61	127
389.98997732426307	390.1525170068027	64	127
390.2221768707483	390.3150566893424	41	127
390.39632653061227	390.46598639455783	42	127
390.54725623582766	390.6285260770975	41	127
390.7097959183673	390.8955555555556	42	127
391.13936507936506	391.5108843537415	59	127
391.13936507936506	391.5108843537415	62	127
391.5108843537415	391.6734240362812	58	127
391.5108843537415	391.6734240362812	61	127
391.708253968254	391.7895238095238	79	127
391.8824036281179	391.9868934240363	78	127
392.1146031746032	392.195873015873	79	127
392.3003628117914	392.49773242630386	78	127
392.71832199546486	393.12467120181407	67	127
392.71832199546486	393.12467120181407	71	127
393.12467120181407	393.298820861678	66	127
393.12467120181407	393.298820861678	69	127
393.3336507936508	393.4265306122449	44	127
393.50780045351473	393.5774603174603	45	127
393.6587301587302	393.74	44	127
393.8328798185941	393.9257596371882	45	127
394.0534693877551	394.1463492063492	46	127
394.22761904761904	394.2972789115646	47	127
394.22761904761904	394.5875283446712	64	127
394.22761904761904	394.5875283446712	67	127
394.3901587301587	394.50625850340134	46	127
394.5875283446712	394.7732879818594	66	127
394.5875283446712	394.6804081632653	47	127
394.5875283446712	394.7732879818594	62	127
394.81972789115645	394.9009977324263	49	127
394.98226757369616	395.063537414966	50	127
395.17963718820863	395.27251700680273	49	127
395.36539682539683	395.4350566893424	50	127
395.5163265306122	395.5975963718821	51	127
395.7020861678005	395.7833560090703	52	127
395.7020861678005	396.21292517006805	61	127
395.7020861678005	396.21292517006805	69	127
395.9342857142857	396.08521541950114	51	127
396.21292517006805	396.4102947845805	57	127
396.21292517006805	396.4102947845805	61	127
396.21292517006805	396.5147845804989	52	127
396.52639455782315	396.61927437641725	87	127
396.7469841269841	396.828253968254	88	127
396.9095238095238	396.99079365079365	87	127
397.1417233560091	397.33909297052156	52	127
397.1417233560091	397.33909297052156	56	127
397.1417233560091	397.33909297052156	59	127
397.1417233560091	397.33909297052156	62	127
397.1417233560091	397.2346031746032	88	127
397.33909297052156	397.4203628117914	87	127
397.52485260770976	397.62934240362813	88	127
397.72222222222223	397.8151020408163	88	127
398.03569160997733	398.48848072562356	52	127
398.03569160997733	398.48848072562356	81	127
398.03569160997733	398.48848072562356	45	127
398.03569160997733	398.48848072562356	49	127
398.03569160997733	398.48848072562356	57	127
405.68666666666667	406.0814058956916	69	127
406.0814058956916	406.78961451247164	81	127
406.78961451247164	406.8708843537415	81	127
406.8708843537415	406.97537414965984	79	127
406.97537414965984	407.05664399092973	81	127
407.05664399092973	407.1263038548753	79	127
407.1263038548753	407.2075736961451	81	127
407.2075736961451	407.3468934240363	79	127
407.3468934240363	407.4281632653061	78	127
407.4281632653061	407.50943310657595	79	127
407.5326530612245	408.1131519274376	78	127
408.1131519274376	408.19442176870746	81	127
408.19442176870746	408.2640816326531	78	127
408.27569160997734	408.4498412698413	74	127
408.6936507936508	408.86780045351475	74	127
408.6936507936508	408.86780045351475	59	127
409.0651700680272	409.7849886621315	52	127
409.0651700680272	409.58761904761906	76	127
409.58761904761906	409.6921088435374	79	127
409.6921088435374	409.77337868480726	76	127
409.7849886621315	409.9359183673469	73	127
410.17972789115646	410.58607709750567	45	127
410.17972789115646	410.3770975056689	73	127
410.58607709750567	411.22462585034015	57	127
410.58607709750567	410.6557369614512	74	127
410.7486167800453	410.81827664399094	78	127
410.89954648526077	410.9808163265306	76	127
411.0736961451247	411.1433560090703	74	127
411.22462585034015	411.3407256235828	73	127
411.22462585034015	411.3407256235828	57	127
411.3407256235828	411.44521541950115	55	127
411.44521541950115	411.5613151927438	69	127
411.44521541950115	411.572925170068	57	127
411.572925170068	411.6541950113379	55	127
411.6541950113379	411.747074829932	57	127
411.6541950113379	411.747074829932	71	127
411.747074829932	411.8980045351474	55	127
411.8980045351474	411.9792743764172	54	127
411.8980045351474	411.9792743764172	73	127
411.9792743764172	412.0605442176871	55	127
412.0837641723356	412.7919727891156	54	127
412.0837641723356	412.17664399092973	74	127
412.25791383219956	412.35079365079366	86	127
412.44367346938776	412.5249433106576	85	127
412.6178231292517	412.6990929705215	83	127
412.7919727891156	412.8732426303855	54	127
412.7919727891156	412.8732426303855	82	127
412.8732426303855	412.9661224489796	52	127
412.9661224489796	413.08222222222224	54	127
412.9661224489796	413.070612244898	78	127
413.08222222222224	413.1634920634921	52	127
413.1634920634921	413.25637188208617	80	127
413.1634920634921	413.25637188208617	54	127
413.25637188208617	413.34925170068027	52	127
413.34925170068027	413.4305215419501	82	127
413.34925170068027	413.4305215419501	50	127
413.4305215419501	413.48857142857145	52	127
413.51179138321993	413.9297505668934	50	127
413.51179138321993	413.6162811791383	83	127
413.72077097505667	413.81365079365077	85	127
413.9297505668934	414.2780498866213	49	127
413.9297505668934	414.0226303854875	86	127
414.12712018140587	414.20839002267576	85	127
414.2780498866213	414.63795918367344	47	127
414.2780498866213	414.35931972789115	83	127
414.4638095238095	414.5334693877551	85	127
414.63795918367344	414.70761904761906	83	127
414.63795918367344	414.83532879818597	49	127
414.83532879818597	414.9165986394558	81	127
414.83532879818597	414.9746485260771	51	127
415.0094784580499	415.1836281179138	80	127
415.0094784580499	417.97002267573697	52	127
415.1836281179138	415.34616780045354	78	127
415.34616780045354	415.5551473922902	76	127
415.5551473922902	415.77573696145123	78	127
415.77573696145123	415.9614965986394	80	127
415.9614965986394	416.1472562358277	76	127
416.1472562358277	416.34462585034015	78	127
416.1472562358277	416.53038548752835	50	127
416.34462585034015	416.49555555555554	80	127
416.53038548752835	416.9483446712018	49	127
416.53038548752835	416.7045351473923	81	127
416.7045351473923	416.9483446712018	83	127
416.9483446712018	417.1108843537415	85	127
416.9483446712018	417.3314739229025	47	127
417.1108843537415	417.2966439909297	83	127
417.3314739229025	417.7029931972789	45	127
417.3314739229025	417.5056235827664	86	127
417.5056235827664	417.66816326530613	85	127
417.7029931972789	417.7726530612245	83	127
417.7029931972789	417.87714285714287	49	127
417.87714285714287	418.02807256235826	51	127
417.87714285714287	417.98163265306124	81	127
418.06290249433107	421.0002267573696	52	127
418.06290249433107	418.2834920634921	80	127
418.2834920634921	418.457641723356	78	127
418.457641723356	418.6434013605442	76	127
418.6434013605442	418.84077097505667	78	127
418.84077097505667	419.0265306122449	80	127
419.0265306122449	419.2122902494331	76	127
419.2122902494331	419.57219954648525	50	127
419.2122902494331	419.38643990929705	78	127
419.38643990929705	419.5373696145125	80	127
419.57219954648525	419.97854875283446	49	127
419.57219954648525	419.7231292517007	81	127
419.7231292517007	419.97854875283446	83	127
419.97854875283446	420.1759183673469	85	127
419.97854875283446	420.3732879818594	47	127
420.1759183673469	420.3152380952381	83	127
420.3732879818594	420.5474376417234	86	127
420.3732879818594	420.7215873015873	45	127
420.5474376417234	420.6751473922902	85	127
420.7215873015873	420.93056689342404	49	127
420.7215873015873	420.8260770975057	83	127
420.93056689342404	421.0931065759637	51	127
420.93056689342404	421.0350566893424	81	127
421.1279365079365	421.48784580498864	52	127
421.1279365079365	421.20920634920634	80	127
421.30208616780044	421.38335600907027	88	127
421.48784580498864	421.5691156462585	83	127
421.6619954648526	421.7897052154195	80	127
421.88258503401363	421.97546485260773	40	127
421.88258503401363	421.97546485260773	76	127
422.0683446712018	422.1612244897959	76	127
422.0683446712018	422.1612244897959	52	127
422.2657142857143	422.3469841269841	71	127
422.2657142857143	422.3469841269841	47	127
422.4398639455782	422.55596371882086	68	127
422.4398639455782	422.55596371882086	44	127
422.66045351473923	423.136462585034	64	127
422.66045351473923	423.136462585034	40	127
423.9259410430839	424.00721088435375	76	127
424.00721088435375	424.1117006802721	75	127
424.1117006802721	424.2161904761905	76	127
424.2161904761905	424.2742403628118	75	127
424.2974603174603	424.4483900226757	76	127
424.2974603174603	424.4483900226757	69	127
424.2974603174603	424.4483900226757	73	127
424.6225396825397	424.78507936507935	76	127
424.6225396825397	424.78507936507935	69	127
424.6225396825397	424.78507936507935	73	127
425.51650793650794	425.60938775510203	76	127
425.60938775510203	425.69065759637186	75	127
425.69065759637186	425.79514739229023	76	127
425.79514739229023	425.8531972789116	75	127
425.8764172335601	426.05056689342405	76	127
425.8764172335601	426.05056689342405	68	127
425.8764172335601	426.05056689342405	71	127
425.8764172335601	426.05056689342405	74	127
426.2131065759637	426.3872562358277	76	127
426.2131065759637	426.3872562358277	68	127
426.2131065759637	426.3872562358277	71	127
426.2131065759637	426.3872562358277	74	127
427.1651247165533	427.4785941043084	76	127
427.4785941043084	427.54825396825396	78	127
427.54825396825396	427.73401360544216	64	127
427.54825396825396	427.73401360544216	68	127
427.54825396825396	427.73401360544216	71	127
427.54825396825396	427.8385034013605	80	127
427.8385034013605	427.9778231292517	81	127
427.9778231292517	428.17519274376417	64	127
427.9778231292517	428.17519274376417	68	127
427.9778231292517	428.17519274376417	71	127
427.9778231292517	428.27968253968254	83	127
428.27968253968254	428.37256235827664	85	127
428.37256235827664	428.59315192743765	64	127
428.37256235827664	428.59315192743765	68	127
428.37256235827664	428.59315192743765	71	127
428.37256235827664	428.68603174603174	86	127
428.68603174603174	428.77891156462584	83	127
428.77891156462584	428.9878911564626	64	127
428.77891156462584	428.9878911564626	68	127
428.77891156462584	428.9878911564626	71	127
428.77891156462584	429.0691609977324	88	127
429.0691609977324	429.1620408163265	86	127
429.18526077097505	429.58	85	127
429.18526077097505	429.91668934240363	69	127
429.18526077097505	429.91668934240363	73	127
429.58	429.84702947845807	88	127
430.72938775510204	430.8919274376417	57	127
430.72938775510204	430.8919274376417	61	127
431.0660770975057	431.1473469387755	76	127
431.0660770975057	431.2402267573696	57	127
431.0660770975057	431.2402267573696	61	127
431.1473469387755	431.2402267573696	75	127
431.2402267573696	431.32149659863944	76	127
431.32149659863944	431.39115646258506	75	127
431.40276643990927	431.78589569161	76	127
432.3780045351474	432.5521541950113	56	127
432.3780045351474	432.5521541950113	59	127
432.3780045351474	432.5521541950113	62	127
432.7379138321995	432.8191836734694	76	127
432.7379138321995	432.90045351473924	56	127
432.7379138321995	432.90045351473924	59	127
432.7379138321995	432.90045351473924	62	127
432.8191836734694	432.90045351473924	75	127
432.90045351473924	432.98172335600907	76	127
432.98172335600907	433.0629931972789	75	127
433.07460317460317	433.45773242630383	76	127
433.95696145124714	434.11950113378686	52	127
433.95696145124714	434.11950113378686	56	127
433.95696145124714	434.11950113378686	59	127
434.2820408163265	434.4561904761905	52	127
434.2820408163265	434.4561904761905	56	127
434.2820408163265	434.4561904761905	59	127
434.6419501133787	434.8277097505669	52	127
434.6419501133787	434.8277097505669	56	127
434.6419501133787	434.8277097505669	59	127
435.08312925170065	435.25727891156464	52	127
435.08312925170065	435.25727891156464	56	127
435.08312925170065	435.25727891156464	59	127
435.44303854875284	436.3253968253968	57	127
435.44303854875284	436.3253968253968	61	127
436.3253968253968	437.60249433106577	66	127
436.3253968253968	437.20775510204084	54	127
436.3253968253968	437.20775510204084	61	127
436.7665759637188	437.20775510204084	82	127
437.20775510204084	437.60249433106577	62	127
437.20775510204084	437.60249433106577	59	127
437.20775510204084	437.67215419501133	83	127
437.67215419501133	437.98562358276644	86	127
438.055283446712	438.9724716553288	71	127
438.055283446712	438.4035827664399	86	127
438.055283446712	438.9724716553288	64	127
438.055283446712	438.9724716553288	68	127
438.4035827664399	438.5080725623583	83	127
438.5080725623583	438.79832199546485	88	127
438.79832199546485	438.9492517006803	86	127
438.9724716553288	439.29755102040815	73	127
438.9724716553288	439.29755102040815	69	127
438.9724716553288	439.36721088435377	85	127
439.36721088435377	439.6922902494331	88	127
439.7619501133787	440.6326984126984	54	127
439.7619501133787	440.6326984126984	61	127
439.7619501133787	440.8997278911565	66	127
440.20312925170066	440.6326984126984	82	127
440.6326984126984	440.8997278911565	62	127
440.6326984126984	441.0738775510204	83	127
440.6326984126984	440.8997278911565	59	127
441.0738775510204	441.43378684807254	86	127
441.5498866213152	441.84013605442175	86	127
441.5498866213152	442.3045351473923	64	127
441.5498866213152	442.3045351473923	68	127
441.84013605442175	441.93301587301585	83	127
441.93301587301585	442.2116553287982	88	127
442.2116553287982	442.29292517006803	86	127
442.3045351473923	442.73410430839004	85	127
442.3045351473923	442.4554648526077	69	127
442.73410430839004	442.82698412698414	81	127
442.82698412698414	443.2449433106576	64	127
442.82698412698414	443.10562358276644	88	127
442.82698412698414	443.2449433106576	68	127
443.10562358276644	443.175283446712	86	127
443.2449433106576	443.4307029478458	69	127
443.2449433106576	443.57002267573694	85	127
443.57002267573694	443.6629024943311	81	127
443.6629024943311	443.95315192743766	88	127
443.6629024943311	444.0808616780045	64	127
443.6629024943311	444.0808616780045	68	127
443.95315192743766	444.0692517006803	86	127
444.0808616780045	444.5220408163265	69	127
444.0808616780045	444.83551020408163	85	127
444.58009070294787	445.3579591836735	57	127
444.58009070294787	445.3579591836735	61	127
444.83551020408163	444.94	83	127
444.94	445.2650793650794	81	127
445.2650793650794	445.3579591836735	80	127
445.3579591836735	445.601768707483	59	127
445.3579591836735	445.601768707483	62	127
445.3579591836735	445.601768707483	78	127
445.601768707483	445.64820861678004	76	127
445.601768707483	445.64820861678004	61	127
445.601768707483	445.64820861678004	64	127
445.6714285714286	445.8455782312925	74	127
445.6714285714286	445.8455782312925	62	127
445.6714285714286	445.8455782312925	66	127
446.1009977324263	446.3796371882086	74	127
446.6698866213152	446.90208616780046	52	127
446.6698866213152	446.90208616780046	62	127
447.0762358276644	447.2968253968254	71	127
447.50580498866213	448.736462585034	45	127
447.50580498866213	447.81927437641724	88	127
447.50580498866213	448.736462585034	33	127
447.81927437641724	447.91215419501134	86	127
447.91215419501134	448.22562358276645	85	127
448.22562358276645	448.3068934240363	83	127
448.3068934240363	448.6435827664399	81	127
448.6435827664399	448.736462585034	80	127
448.736462585034	449.0151020408163	35	127
448.736462585034	449.0151020408163	78	127
448.736462585034	449.0151020408163	47	127
449.0151020408163	449.09637188208615	37	127
449.0151020408163	449.09637188208615	49	127
449.0151020408163	449.1079818594104	76	127
449.1079818594104	449.3053514739229	74	127
449.1079818594104	449.3053514739229	38	127
449.1079818594104	449.3053514739229	50	127
449.54916099773243	449.72331065759636	66	127
449.54916099773243	449.72331065759636	71	127
449.54916099773243	449.72331065759636	74	127
449.90907029478456	450.1180498866213	40	127
449.90907029478456	450.1180498866213	52	127
450.41990929705213	450.5940589569161	62	127
450.41990929705213	450.5940589569161	68	127
450.41990929705213	450.5940589569161	71	127
451.04684807256234	451.4183673469388	61	127
451.04684807256234	451.4183673469388	69	127
451.04684807256234	451.4183673469388	33	127
451.04684807256234	451.4183673469388	45	127
452.08013605442176	452.26589569160996	69	127
452.8696145124716	452.9508843537415	68	127
453.0437641723356	453.2759637188209	69	127
453.0437641723356	453.2759637188209	66	127
453.7403628117914	453.8216326530612	69	127
453.7403628117914	453.8216326530612	64	127
453.9493424036281	454.2047619047619	69	127
453.9493424036281	454.2047619047619	62	127
454.6111111111111	454.7272108843537	69	127
454.6111111111111	454.7272108843537	61	127
454.8084807256236	456.29455782312925	59	127
455.400589569161	456.29455782312925	74	127
455.400589569161	456.29455782312925	64	127
456.29455782312925	456.6312471655329	64	127
456.29455782312925	456.6312471655329	73	127
456.29455782312925	456.6312471655329	57	127
456.73573696145127	456.97954648526076	50	127
457.24657596371884	457.4091156462585	66	127
457.24657596371884	457.4091156462585	71	127
457.61809523809524	457.89673469387753	52	127
458.10571428571427	458.314693877551	64	127
458.10571428571427	458.314693877551	68	127
458.52367346938775	458.87197278911566	45	127
459.0693424036281	459.27832199546486	64	127
459.0693424036281	459.27832199546486	69	127
459.4524716553288	459.59179138321997	73	127
459.4524716553288	459.59179138321997	57	127
459.4524716553288	459.59179138321997	45	127
459.4524716553288	459.59179138321997	61	127
459.6730612244898	459.74272108843536	61	127
459.6730612244898	459.74272108843536	73	127
459.6730612244898	459.74272108843536	45	127
459.6730612244898	459.74272108843536	57	127
460.0329705215419	460.1142403628118	59	127
460.0329705215419	460.1142403628118	71	127
460.0329705215419	460.1142403628118	44	127
460.0329705215419	460.1142403628118	56	127
460.2303401360544	460.33482993197276	62	127
460.2303401360544	460.33482993197276	74	127
460.2303401360544	460.33482993197276	42	127
460.2303401360544	460.33482993197276	54	127
460.4973696145125	460.60185941043085	62	127
460.4973696145125	460.60185941043085	74	127
460.4973696145125	460.60185941043085	42	127
460.4973696145125	460.60185941043085	54	127
460.9501587301587	461.0778684807256	61	127
460.9501587301587	461.0778684807256	73	127
460.9501587301587	461.0778684807256	40	127
460.9501587301587	461.0778684807256	52	127
461.15913832199544	461.25201814058954	66	127
461.15913832199544	461.25201814058954	78	127
461.15913832199544	461.25201814058954	38	127
461.15913832199544	461.25201814058954	50	127
461.3565079365079	461.44938775510207	66	127
461.3565079365079	461.44938775510207	78	127
461.3565079365079	461.44938775510207	38	127
461.3565079365079	461.44938775510207	50	127
461.9021768707483	461.9950566893424	64	127
461.9021768707483	461.9950566893424	76	127
461.9021768707483	461.9950566893424	37	127
461.9021768707483	461.9950566893424	49	127
462.14598639455784	462.7148752834467	35	127
462.14598639455784	462.7148752834467	47	127
462.14598639455784	463.875873015873	68	127
462.14598639455784	463.875873015873	80	127
462.7148752834467	463.3069841269841	65	127
462.7148752834467	463.77138321995466	59	127
463.3069841269841	463.7946031746032	64	127
463.875873015873	464.68857142857144	64	127
463.875873015873	464.537641723356	69	127
463.875873015873	464.537641723356	81	127
463.875873015873	464.68857142857144	61	127
464.68857142857144	464.87433106575963	50	127
464.68857142857144	464.87433106575963	62	127
465.199410430839	465.40839002267575	74	127
465.199410430839	465.40839002267575	78	127
465.5825396825397	465.7450793650794	52	127
465.5825396825397	465.7450793650794	64	127
466.05854875283444	466.2907482993197	71	127
466.05854875283444	466.2907482993197	74	127
466.53455782312926	468.287664399093	57	127
466.53455782312926	466.75514739229027	69	127
466.53455782312926	468.287664399093	45	127
466.53455782312926	468.287664399093	49	127
466.53455782312926	468.287664399093	52	127
466.75514739229027	466.964126984127	73	127
466.964126984127	467.17310657596374	76	127
467.17310657596374	467.3356462585034	81	127
467.3356462585034	467.60267573696143	85	127
467.60267573696143	467.8000453514739	88	127
467.8000453514739	468.0206349206349	85	127
468.0206349206349	468.22961451247164	81	127
468.287664399093	469.9711111111111	52	127
468.287664399093	468.5198639455782	86	127
468.287664399093	469.9711111111111	45	127
468.287664399093	469.9711111111111	50	127
468.287664399093	469.9711111111111	56	127
468.5198639455782	468.6940136054422	83	127
468.6940136054422	468.90299319727893	80	127
468.90299319727893	469.11197278911567	76	127
469.11197278911567	469.3209523809524	74	127
469.3209523809524	469.49510204081633	76	127
469.49510204081633	469.80857142857144	74	127
469.80857142857144	469.93628117913835	71	127
469.9711111111111	471.56167800453517	52	127
469.9711111111111	470.16848072562357	69	127
469.9711111111111	471.56167800453517	57	127
469.9711111111111	471.56167800453517	45	127
469.9711111111111	471.56167800453517	49	127
470.16848072562357	470.3310204081633	73	127
470.3310204081633	470.5632199546485	76	127
470.5632199546485	470.74897959183676	81	127
470.74897959183676	470.93473922902496	85	127
470.93473922902496	471.1901587301587	88	127
471.1901587301587	471.3759183673469	85	127
471.3759183673469	471.5152380952381	81	127
471.56167800453517	471.7358276643991	86	127
471.56167800453517	473.1522448979592	45	127
471.56167800453517	473.1522448979592	56	127
471.56167800453517	473.1522448979592	50	127
471.56167800453517	473.1522448979592	52	127
471.7358276643991	471.9564172335601	83	127
471.9564172335601	472.15378684807257	80	127
472.15378684807257	472.35115646258504	76	127
472.35115646258504	472.52530612244897	74	127
472.52530612244897	472.72267573696143	76	127
472.72267573696143	472.97809523809525	74	127
472.97809523809525	473.11741496598637	71	127
473.1522448979592	473.2451247165533	45	127
473.1522448979592	473.51215419501136	69	127
473.34961451247165	473.4308843537415	49	127
473.51215419501136	473.5934240362812	52	127
473.69791383219956	473.7791836734694	57	127
473.9301133786848	474.03460317460315	61	127
474.1390929705215	474.2203628117914	64	127
474.3248526077098	474.39451247165533	61	127
474.4990022675737	474.58027210884353	57	127
474.66154195011336	475.52068027210885	76	127
474.66154195011336	474.80086167800454	62	127
474.9053514739229	475.0098412698413	59	127
475.0911111111111	475.1839909297052	56	127
475.30009070294784	475.39297052154194	52	127
475.52068027210885	475.67160997732424	50	127
475.52068027210885	475.7644897959184	76	127
475.7644897959184	475.8457596371882	52	127
475.92702947845805	476.0315192743764	50	127
475.92702947845805	476.11278911564625	76	127
476.14761904761906	476.24049886621316	47	127
476.39142857142855	477.15768707482994	81	127
476.39142857142855	476.48430839002265	45	127
476.56557823129253	476.6352380952381	49	127
476.75133786848073	476.83260770975056	52	127
476.9487074829932	477.06480725623584	57	127
477.15768707482994	477.42471655328796	76	127
477.15768707482994	477.2273469387755	61	127
477.3202267573696	477.4014965986395	64	127
477.52920634920633	477.62208616780043	61	127
477.71496598639453	477.83106575963717	57	127
477.92394557823127	478.72503401360547	76	127
477.92394557823127	478.00521541950116	62	127
478.1097052154195	478.2606349206349	59	127
478.37673469387755	478.4580045351474	56	127
478.5392743764172	478.6321541950113	52	127
478.72503401360547	478.81791383219957	50	127
478.72503401360547	478.9456235827664	76	127
478.9572335600907	479.0501133786848	52	127
479.13138321995467	479.22426303854877	50	127
479.13138321995467	479.2707029478458	76	127
479.31714285714287	479.3984126984127	47	127
479.4796825396825	479.56095238095236	45	127
479.4796825396825	479.9092517006803	73	127
479.68866213151927	479.78154195011336	52	127
479.9092517006803	480.0601814058957	49	127
480.14145124716555	480.23433106575965	45	127
480.29238095238094	480.3504308390023	75	127
480.3504308390023	480.4317006802721	44	127
480.3504308390023	480.6290702947846	76	127
480.5245804988662	480.60585034013604	47	127
480.69873015873014	480.78	40	127
480.87287981859413	480.95414965986396	44	127
481.04702947845806	481.13990929705216	45	127
481.04702947845806	481.46498866213153	73	127
481.27922902494333	481.36049886621316	52	127
481.46498866213153	481.54625850340136	49	127
481.68557823129254	481.7900680272109	45	127
481.8365079365079	481.882947845805	87	127
481.882947845805	482.18480725623584	88	127
481.882947845805	481.96421768707484	44	127
482.0687074829932	482.1615873015873	47	127
482.2660770975057	482.37056689342404	40	127
482.4866666666667	482.5679365079365	44	127
482.71886621315195	482.81174603174605	45	127
482.71886621315195	483.09038548752835	85	127
482.9162358276644	482.99750566893425	52	127
483.09038548752835	483.22970521541953	49	127
483.36902494331065	483.4851247165533	45	127
483.62444444444446	483.8914739229025	81	127
483.62444444444446	483.7405442176871	40	127
483.62444444444446	483.8914739229025	73	127
483.91469387755103	484.0656235827664	45	127
484.2049433106576	484.36748299319726	37	127
484.2049433106576	484.5532426303855	73	127
484.2049433106576	484.5532426303855	81	127
484.5648526077097	484.750612244898	40	127
485.08730158730157	485.9580498866213	73	127
485.08730158730157	485.9580498866213	81	127
485.08730158730157	485.9580498866213	33	127
