# onset,offset,note,velocity
14.198231292517006	14.59297052154195	73	127
14.59297052154195	14.732290249433106	74	127
15.74235827664399	16.090657596371884	76	127
16.090657596371884	16.19514739229025	78	127
17.123945578231293	17.48385487528345	76	127
17.48385487528345	17.61156462585034	74	127
18.18045351473923	18.34299319727891	73	127
18.87702947845805	19.062789115646257	71	127
19.910340136054423	20.351519274376418	73	127
20.351519274376418	20.46761904761905	74	127
21.39641723356009	21.721496598639455	76	127
21.721496598639455	21.860816326530614	78	127
22.801224489795917	23.195963718820863	81	127
23.195963718820863	23.34689342403628	80	127
23.91578231292517	24.10154195011338	75	127
24.658820861678006	24.83297052154195	76	127
26.51641723356009	26.86471655328798	75	127
26.86471655328798	27.18979591836735	76	127
27.96766439909297	28.374013605442176	78	127
28.374013605442176	28.641043083900225	76	127
29.45374149659864	29.79043083900227	77	127
29.79043083900227	30.03424036281179	78	127
30.788888888888888	31.12557823129252	79	127
31.12557823129252	31.346167800453514	78	127
32.0427664399093	32.46072562358277	80	127
32.46072562358277	32.72775510204082	81	127
33.47079365079365	33.79587301587301	83	127
33.79587301587301	34.144172335600906	81	127
34.98009070294785	35.351609977324266	76	127
35.69990929705215	36.09462585034014	76	127
36.57065759637188	36.96539682539682	69	127
37.371746031746035	37.77809523809524	76	127
37.77809523809524	38.05673469387755	74	127
38.904263038548756	39.287392290249436	73	127
39.287392290249436	39.58925170068027	71	127
40.401927437641724	40.79668934240363	78	127
40.79668934240363	41.06371882086168	76	127
41.87641723356009	42.25954648526077	74	127
42.25954648526077	42.52657596371882	73	127
43.36249433106576	43.67596371882086	83	127
43.67596371882086	43.90816326530612	81	127
44.81374149659864	45.16204081632653	79	127
45.16204081632653	45.47548752834467	78	127
46.29981859410431	46.717777777777776	81	127
46.717777777777776	47.43759637188209	73	127
47.542086167800456	48.21546485260771	74	127
48.21546485260771	48.459274376417234	71	127
48.49410430839002	48.97011337868481	69	127
55.73873015873016	56.14507936507937	59	127
56.14507936507937	56.86489795918367	71	127
56.86489795918367	56.9809977324263	71	127
56.9809977324263	57.06226757369615	69	127
57.06226757369615	57.155147392290246	71	127
57.155147392290246	57.24802721088435	69	127
57.24802721088435	57.329297052154196	71	127
57.329297052154196	57.41056689342403	69	127
57.41056689342403	57.50344671201814	68	127
57.50344671201814	57.61954648526077	69	127
57.63115646258503	58.1768253968254	68	127
58.1768253968254	58.28131519274376	71	127
58.28131519274376	58.33936507936508	68	127
58.362585034013605	58.53673469387755	64	127
58.687664399092974	58.87342403628118	64	127
59.04757369614512	59.662902494331064	66	127
59.662902494331064	59.75578231292517	69	127
59.75578231292517	59.837052154195014	66	127
59.86027210884354	60.046031746031744	63	127
60.30145124716553	60.498820861678006	63	127
60.719410430839005	60.83551020408163	64	127
60.90517006802721	60.986439909297054	68	127
61.07931972789115	61.160589569161	71	127
61.24185941043084	61.32312925170068	69	127
61.416009070294784	61.49727891156463	68	127
61.59015873015873	61.65981859410431	71	127
61.74108843537415	61.845578231292514	68	127
61.961678004535145	62.04294784580499	64	127
62.12421768707483	62.21709750566893	69	127
62.298367346938775	62.37963718820862	61	127
62.518956916099775	62.611836734693874	62	127
62.681496598639455	62.7627664399093	64	127
62.89047619047619	62.96013605442177	66	127
63.05301587301587	63.13428571428572	64	127
63.215555555555554	63.2968253968254	62	127
63.401315192743766	63.4825850340136	61	127
63.57546485260771	63.65673469387755	62	127
63.76122448979592	63.830884353741496	59	127
63.9237641723356	64.00503401360544	61	127
64.08630385487528	64.17916099773242	62	127
64.26045351473923	64.34172335600907	64	127
64.43458049886621	64.52748299319728	62	127
64.6435827664399	64.73646258503402	61	127
64.81770975056689	64.88739229024944	59	127
64.9918820861678	65.32854875283446	61	127
66.21092970521542	66.5592290249433	64	127
66.5592290249433	67.24421768707484	76	127
67.24421768707484	67.33709750566894	76	127
67.33709750566894	67.41836734693878	74	127
67.41836734693878	67.48802721088435	76	127
67.48802721088435	67.60410430839002	74	127
67.60410430839002	67.70861678004535	76	127
67.70861678004535	67.80149659863946	74	127
67.80149659863946	67.90598639455783	73	127
67.90598639455783	67.9756462585034	74	127
67.99886621315193	68.33555555555556	73	127
68.33555555555556	68.74190476190476	71	127
68.74190476190476	69.09020408163265	69	127
69.09020408163265	69.26433106575963	71	127
69.26433106575963	69.43850340136055	73	127
69.4849433106576	69.84485260770975	66	127
69.84485260770975	70.030589569161	71	127
70.030589569161	70.20476190476191	73	127
70.20476190476191	70.39049886621315	75	127
70.39049886621315	70.56467120181406	71	127
70.56467120181406	70.75043083900226	73	127
70.75043083900226	70.90133786848072	75	127
70.93619047619048	71.14517006802721	76	127
71.14517006802721	71.38897959183673	78	127
71.38897959183673	71.59795918367347	80	127
71.59795918367347	71.73727891156463	78	127
71.77210884353741	71.95786848072562	81	127
71.95786848072562	72.09718820861679	80	127
72.13201814058957	72.21328798185941	78	127
72.29455782312925	72.39904761904762	76	127
72.48031746031747	72.6660544217687	75	127
72.6660544217687	72.85183673469388	73	127
72.85183673469388	73.03759637188209	71	127
73.03759637188209	73.2233560090703	73	127
73.2233560090703	73.38589569160997	75	127
73.38589569160997	73.57165532879819	71	127
73.57165532879819	73.7574149659864	73	127
73.7574149659864	73.88512471655329	75	127
73.91995464852607	74.14054421768708	76	127
74.14054421768708	74.36113378684807	78	127
74.36113378684807	74.54689342403628	80	127
74.54689342403628	74.68621315192743	78	127
74.74426303854875	74.90680272108844	81	127
74.90680272108844	75.03451247165533	80	127
75.06934240362811	75.17383219954648	78	127
75.27832199546485	75.37120181405896	76	127
75.46408163265306	75.56857142857143	75	127
75.62662131519275	75.70789115646258	59	127
75.8007709750567	75.91687074829932	63	127
76.00975056689343	76.10263038548753	66	127
76.1722902494331	76.27678004535147	71	127
76.36963718820861	76.48575963718821	71	127
76.56702947845805	76.67151927437642	75	127
76.76439909297052	76.85725623582766	78	127
76.95015873015873	77.32167800453514	83	127
84.53147392290249	84.61274376417234	59	127
84.61274376417234	84.7172335600907	58	127
84.7172335600907	84.83333333333333	59	127
84.83333333333333	84.90299319727892	58	127
84.92621315192744	85.11195011337868	59	127
85.2861224489796	85.44866213151927	59	127
86.05238095238096	86.18009070294785	59	127
86.18009070294785	86.27297052154195	58	127
86.27297052154195	86.43551020408164	59	127
86.43551020408164	86.56321995464853	58	127
86.59804988662131	86.80702947845805	59	127
86.98117913832199	87.15530612244898	59	127
87.63133786848073	87.95641723356009	59	127
87.95641723356009	88.1073469387755	61	127
88.1073469387755	88.38598639455782	63	127
88.38598639455782	88.5485260770975	64	127
88.5485260770975	88.80394557823129	66	127
88.80394557823129	88.90843537414966	68	127
88.90843537414966	89.24512471655329	69	127
89.24512471655329	89.32639455782314	66	127
89.32639455782314	89.59342403628118	71	127
89.59342403628118	89.72113378684807	69	127
89.7443537414966	90.17390022675737	68	127
90.17390022675737	90.55702947845805	71	127
92.33337868480726	92.73972789115646	69	127
92.73972789115646	92.83260770975056	66	127
92.83260770975056	93.18090702947846	71	127
93.18090702947846	93.2621768707483	69	127
93.27378684807256	93.70335600907029	68	127
93.70335600907029	94.06326530612245	71	127
95.79315192743765	96.10662131519274	69	127
96.10662131519274	96.29238095238095	66	127
96.29238095238095	96.58263038548753	71	127
96.58263038548753	96.65229024943311	69	127
96.66390022675736	96.95414965986394	68	127
96.95414965986394	97.19795918367348	64	127
97.19795918367348	97.49981859410431	71	127
97.49981859410431	97.55786848072562	69	127
97.58108843537416	97.96421768707484	68	127
97.96421768707484	98.09192743764173	64	127
98.09192743764173	98.41700680272109	71	127
98.41700680272109	98.49827664399093	69	127
98.52149659863946	98.81174603174603	68	127
98.81174603174603	98.95106575963719	64	127
98.95106575963719	99.2297052154195	76	127
99.2297052154195	99.36902494331066	75	127
99.36902494331066	99.71732426303855	73	127
99.71732426303855	99.84503401360544	71	127
99.84503401360544	100.1120634920635	69	127
100.1120634920635	100.19333333333333	68	127
100.26299319727892	100.47197278911564	66	127
100.75061224489797	100.91315192743764	66	127
101.5865306122449	101.74907029478459	63	127
102.05092970521542	102.37600907029478	80	127
102.37600907029478	102.45727891156463	78	127
102.45727891156463	102.77074829931973	76	127
102.77074829931973	102.87523809523809	75	127
102.87523809523809	103.23514739229024	73	127
103.23514739229024	103.33963718820861	71	127
103.33963718820861	103.60666666666667	69	127
103.60666666666667	103.69954648526077	68	127
103.7227664399093	103.87369614512471	69	127
104.04784580498867	104.25682539682539	81	127
105.17401360544218	105.35977324263038	78	127
105.5455328798186	105.9867120181406	76	127
106.71814058956916	106.88068027210885	68	127
107.41473922902495	107.50761904761904	66	127
107.63532879818594	107.82108843537415	69	127
108.3087074829932	108.41319727891157	68	127
108.56412698412699	108.90081632653062	73	127
109.31877551020408	109.40004535147392	71	127
109.49292517006803	111.04866213151928	75	127
111.04866213151928	111.42018140589569	76	127
111.97746031746031	112.19804988662132	69	127
112.85981859410431	113.0804081632653	66	127
113.77700680272109	113.9627664399093	68	127
114.25301587301587	114.34589569160998	71	127
114.43877551020408	114.54326530612245	71	127
114.83351473922903	114.91478458049886	71	127
115.1237641723356	115.27469387755102	64	127
115.1237641723356	115.27469387755102	76	127
115.35596371882086	115.44884353741497	64	127
115.35596371882086	115.44884353741497	76	127
115.75070294784581	115.85519274376418	64	127
115.75070294784581	115.85519274376418	76	127
115.94807256235828	116.04095238095238	76	127
115.94807256235828	116.04095238095238	64	127
116.12222222222222	116.23832199546486	64	127
116.12222222222222	116.23832199546486	76	127
116.70272108843537	116.86526077097506	76	127
116.70272108843537	116.86526077097506	64	127
117.01619047619047	117.5734693877551	69	127
117.5734693877551	118.81573696145125	72	127
118.81573696145125	119.22208616780046	71	127
120.05800453514739	120.32503401360545	78	127
121.05646258503401	121.24222222222222	75	127
121.46281179138322	121.83433106575964	76	127
123.11142857142858	123.90090702947846	71	127
123.90090702947846	124.1098866213152	71	127
124.31886621315192	124.53945578231293	71	127
124.77165532879819	125.5495238095238	76	127
125.5495238095238	125.86299319727891	71	127
126.4318820861678	126.76857142857143	71	127
127.14009070294784	127.39551020408163	71	127
127.65092970521542	127.80185941043084	71	127
128.01083900226757	128.48684807256237	68	127
129.57818594104307	130.43732426303856	83	127
130.43732426303856	130.6695238095238	83	127
130.86689342403628	131.02943310657596	83	127
131.2384126984127	132.03950113378684	88	127
132.03950113378684	132.38777777777779	83	127
132.8057596371882	133.6184580498866	83	127
133.6184580498866	133.82743764172335	83	127
134.0015873015873	134.164126984127	83	127
134.39632653061224	134.83748299319728	80	127
135.1625850340136	135.19739229024944	82	127
135.19739229024944	135.52249433106576	83	127
135.975283446712	136.38163265306122	80	127
136.75315192743764	136.7995918367347	70	127
136.7995918367347	137.08981859410432	71	127
137.56585034013605	137.9954195011338	68	127
138.44820861678005	138.6804081632653	59	127
138.44820861678005	138.6804081632653	68	127
138.9938775510204	139.23766439909298	59	127
138.9938775510204	139.23766439909298	68	127
139.55115646258503	140.0619954648526	68	127
139.55115646258503	140.0619954648526	59	127
153.06517006802721	153.47151927437642	73	127
153.47151927437642	153.59920634920636	74	127
154.5744671201814	154.98079365079366	76	127
154.98079365079366	155.1085260770975	78	127
156.09537414965988	156.4320634920635	76	127
156.4320634920635	156.54816326530613	74	127
157.1518820861678	157.3144217687075	73	127
157.83687074829933	158.02263038548753	71	127
158.95142857142858	159.31133786848073	73	127
159.31133786848073	159.45065759637188	74	127
160.3910657596372	160.7625850340136	76	127
160.7625850340136	160.8902947845805	78	127
161.83068027210885	162.2138321995465	81	127
162.2138321995465	162.37637188208618	80	127
163.00328798185942	163.1542403628118	75	127
163.6882993197279	163.89727891156463	76	127
165.61555555555555	166.0218820861678	75	127
166.0218820861678	166.30054421768708	76	127
167.09002267573698	167.47315192743764	78	127
167.47315192743764	167.75179138321997	76	127
168.61092970521543	168.94761904761904	77	127
168.94761904761904	169.16820861678005	78	127
169.98090702947846	170.31757369614513	79	127
170.31757369614513	170.5962358276644	78	127
171.42054421768708	171.7572335600907	80	127
171.7572335600907	172.0474829931973	81	127
172.76727891156463	173.10399092970522	83	127
173.10399092970522	173.51034013605442	81	127
174.34625850340137	174.70616780045353	76	127
175.10090702947846	175.53045351473924	76	127
175.91360544217687	176.3083446712018	69	127
176.7843537414966	177.21390022675737	76	127
177.21390022675737	177.51578231292518	74	127
178.30526077097505	178.71160997732426	73	127
178.71160997732426	178.97863945578231	71	127
179.81455782312926	180.19768707482993	78	127
180.19768707482993	180.46471655328799	76	127
181.32385487528344	181.71859410430838	74	127
181.71859410430838	181.9972335600907	73	127
182.78668934240363	183.18145124716554	83	127
183.18145124716554	183.42526077097506	81	127
184.33083900226757	184.6675283446712	79	127
184.6675283446712	184.98099773242632	78	127
185.84013605442178	186.29292517006803	81	127
186.29292517006803	187.00113378684807	73	127
187.12884353741498	187.8718820861678	74	127
187.8718820861678	188.06925170068027	71	127
188.11569160997732	188.5917006802721	69	127
195.604126984127	195.99886621315193	59	127
195.99886621315193	196.75351473922902	71	127
196.75351473922902	196.83478458049888	71	127
196.83478458049888	196.9160544217687	69	127
196.9160544217687	197.0089342403628	71	127
197.0089342403628	197.1018140589569	69	127
197.1018140589569	197.19469387755103	71	127
197.19469387755103	197.28757369614513	69	127
197.28757369614513	197.38045351473923	68	127
197.38045351473923	197.45011337868482	69	127
197.46172335600906	198.04222222222222	68	127
198.04222222222222	198.18154195011337	71	127
198.18154195011337	198.2395918367347	68	127
198.26281179138323	198.4834013605442	64	127
198.6459410430839	198.80848072562358	64	127
198.97102040816327	199.5282993197279	66	127
199.5282993197279	199.621179138322	69	127
199.621179138322	199.70244897959185	66	127
199.72566893424036	199.89981859410432	63	127
200.14362811791383	200.35260770975057	63	127
200.5615873015873	200.64285714285714	64	127
200.7473469387755	200.82861678004537	68	127
200.94471655328798	201.03759637188207	71	127
201.1304761904762	201.21174603174603	69	127
201.29301587301586	201.38589569161	68	127
201.4787755102041	201.58326530612246	71	127
201.65292517006802	201.74580498866214	68	127
201.8502947845805	201.93156462585034	64	127
202.02444444444444	202.1057142857143	69	127
202.17537414965986	202.25664399092972	61	127
202.41918367346938	202.52367346938775	62	127
202.63977324263038	202.73265306122448	64	127
202.87197278911566	202.9532426303855	66	127
203.0461224489796	203.1390022675737	64	127
203.2318820861678	203.31315192743764	62	127
203.40603174603174	203.48730158730157	61	127
203.5801814058957	203.66145124716553	62	127
203.73111111111112	203.81238095238095	59	127
203.90526077097505	203.9865306122449	61	127
204.06780045351474	204.1722902494331	62	127
204.23034013605442	204.31160997732425	64	127
204.40448979591838	204.49736961451248	62	127
204.6482993197279	204.741179138322	61	127
204.82244897959183	204.9269387755102	59	127
205.08947845804988	205.41455782312926	61	127
206.15759637188208	206.5291156462585	64	127
206.5291156462585	207.33020408163264	76	127
207.33020408163264	207.4114739229025	76	127
207.4114739229025	207.5043537414966	74	127
207.5043537414966	207.5972335600907	76	127
207.5972335600907	207.67850340136056	74	127
207.67850340136056	207.80621315192744	76	127
207.80621315192744	207.87587301587303	74	127
207.87587301587303	207.9803628117914	73	127
207.9803628117914	208.05002267573695	74	127
208.08485260770976	208.43315192743765	73	127
208.43315192743765	208.82789115646258	71	127
208.82789115646258	209.18780045351474	69	127
209.18780045351474	209.3851700680272	71	127
209.3851700680272	209.55931972789116	73	127
209.59414965986394	209.94244897959183	66	127
209.94244897959183	210.12820861678006	71	127
210.12820861678006	210.32557823129252	73	127
210.32557823129252	210.4881179138322	75	127
210.4881179138322	210.743537414966	71	127
210.743537414966	210.91768707482993	73	127
210.91768707482993	211.10344671201815	75	127
211.1498866213152	211.37047619047618	76	127
211.37047619047618	211.5562358276644	78	127
211.5562358276644	211.73038548752834	80	127
211.73038548752834	211.86970521541951	78	127
211.9045351473923	212.0902947845805	81	127
212.0902947845805	212.29927437641723	80	127
212.33410430839	212.43859410430838	78	127
212.5314739229025	212.61274376417234	76	127
212.7172335600907	212.9029931972789	75	127
212.9029931972789	213.07714285714286	73	127
213.07714285714286	213.2512925170068	71	127
213.2512925170068	213.44866213151928	73	127
213.44866213151928	213.66925170068026	75	127
213.66925170068026	213.84340136054422	71	127
213.84340136054422	214.02916099773242	73	127
214.02916099773242	214.1336507936508	75	127
214.1684807256236	214.42390022675738	76	127
214.42390022675738	214.64448979591836	78	127
214.64448979591836	214.84185941043083	80	127
214.84185941043083	215.00439909297052	78	127
215.03922902494332	215.21337868480725	81	127
215.21337868480725	215.34108843537416	80	127
215.37591836734694	215.4804081632653	78	127
215.58489795918368	215.6661678004535	76	127
215.77065759637188	215.86353741496598	75	127
215.9564172335601	216.06090702947847	59	127
216.15378684807257	216.2350566893424	63	127
216.33954648526077	216.4208163265306	66	127
216.50208616780046	216.5833560090703	71	127
216.68784580498865	216.75750566893424	71	127
216.87360544217688	216.97809523809525	75	127
217.09419501133786	217.17546485260772	78	127
217.3031746031746	217.67469387755102	83	127
225.000589569161	225.08185941043084	59	127
225.08185941043084	225.19795918367348	58	127
225.19795918367348	225.33727891156462	59	127
225.33727891156462	225.41854875283445	58	127
225.441768707483	225.61591836734695	59	127
225.80167800453515	225.95260770975057	59	127
226.4170068027211	226.67242630385488	59	127
226.67242630385488	226.7536961451247	58	127
226.7536961451247	226.84657596371883	59	127
226.84657596371883	226.9742857142857	58	127
226.99750566893425	227.1600453514739	59	127
227.34580498866214	227.4851247165533	59	127
228.12367346938777	228.4255328798186	59	127
228.4255328798186	228.5416326530612	61	127
228.5416326530612	228.797052154195	63	127
228.797052154195	228.94798185941042	64	127
228.94798185941042	229.21501133786848	66	127
229.21501133786848	229.30789115646257	68	127
229.30789115646257	229.5865306122449	69	127
229.5865306122449	229.66780045351473	66	127
229.66780045351473	229.98126984126984	71	127
229.98126984126984	230.05092970521542	69	127
230.07414965986393	230.51532879818595	68	127
230.51532879818595	230.95650793650793	71	127
232.76766439909298	233.05791383219955	69	127
233.05791383219955	233.16240362811791	66	127
233.16240362811791	233.49909297052153	71	127
233.49909297052153	233.59197278911566	69	127
233.6035827664399	234.0795918367347	68	127
234.0795918367347	234.34662131519275	71	127
236.19260770975058	236.5873469387755	69	127
236.5873469387755	236.7150566893424	66	127
236.7150566893424	237.01691609977325	71	127
237.01691609977325	237.09818594104308	69	127
237.10979591836735	237.44648526077097	68	127
237.44648526077097	237.53936507936507	64	127
237.53936507936507	237.9108843537415	71	127
237.9108843537415	237.9689342403628	69	127
237.99215419501132	238.23596371882087	68	127
238.23596371882087	238.37528344671202	64	127
238.37528344671202	238.7003628117914	71	127
238.7003628117914	238.78163265306122	69	127
238.7932426303855	239.17637188208616	68	127
239.17637188208616	239.2692517006803	64	127
239.2692517006803	239.57111111111112	76	127
239.57111111111112	239.698820861678	75	127
239.698820861678	240.0819501133787	73	127
240.0819501133787	240.1748299319728	71	127
240.1748299319728	240.46507936507936	69	127
240.46507936507936	240.55795918367346	68	127
240.56956916099773	240.77854875283447	66	127
241.16167800453513	241.32421768707482	66	127
241.93954648526076	242.16013605442177	63	127
242.4039455782313	242.7174149659864	80	127
242.7174149659864	242.8451247165533	78	127
242.8451247165533	243.11215419501133	76	127
243.11215419501133	243.1934240362812	75	127
243.1934240362812	243.51850340136053	73	127
243.51850340136053	243.66943310657595	71	127
243.66943310657595	243.92485260770974	69	127
243.92485260770974	244.05256235827665	68	127
244.12222222222223	244.30798185941043	69	127
244.58662131519273	244.7607709750567	81	127
245.480589569161	245.6663492063492	78	127
245.94498866213152	246.3281179138322	76	127
247.18725623582768	247.37301587301587	68	127
247.72131519274376	247.8606349206349	66	127
247.96512471655328	248.23215419501133	69	127
248.63850340136054	248.7197732426304	68	127
248.80104308390023	249.02163265306123	73	127
249.52086167800454	249.61374149659864	71	127
249.6950113378685	251.262358276644	75	127
251.262358276644	251.78480725623584	76	127
252.30725623582765	252.50462585034015	69	127
253.18961451247165	253.3637641723356	66	127
254.10680272108843	254.31578231292517	68	127
254.55959183673468	254.66408163265305	71	127
254.80340136054423	254.89628117913833	71	127
255.22136054421767	255.30263038548753	71	127
255.46517006802722	255.5696598639456	64	127
255.46517006802722	255.5696598639456	76	127
255.67414965986396	255.77863945578233	64	127
255.67414965986396	255.77863945578233	76	127
256.0688662131519	256.20820861678004	64	127
256.0688662131519	256.20820861678004	76	127
256.28947845804987	256.39396825396824	64	127
256.28947845804987	256.39396825396824	76	127
256.4752154195011	256.6261678004535	64	127
256.4752154195011	256.6261678004535	76	127
257.0325170068027	257.1253968253968	76	127
257.0325170068027	257.1253968253968	64	127
257.27632653061227	257.8568253968254	69	127
257.8568253968254	258.9365306122449	72	127
258.9365306122449	259.4357823129252	71	127
260.32975056689344	260.5271201814059	78	127
261.3049886621315	261.49072562358276	75	127
261.722947845805	262.1060544217687	76	127
263.3831746031746	264.2074829931973	71	127
264.2074829931973	264.4280725623583	71	127
264.6486621315193	264.81120181405896	71	127
265.03179138321997	265.7980498866213	76	127
265.7980498866213	266.1231292517007	71	127
266.6920181405896	267.04031746031745	71	127
267.44666666666666	267.62079365079364	71	127
267.8414058956916	268.08521541950114	71	127
268.2941950113379	268.74696145124716	68	127
269.8615419501134	270.7439002267574	83	127
270.7439002267574	270.9528798185941	83	127
271.1386394557823	271.3243990929705	83	127
271.521768707483	272.3576870748299	88	127
272.3576870748299	272.6363038548753	83	127
273.0891156462585	273.9366439909297	83	127
273.9366439909297	274.1340136054422	83	127
274.3197732426304	274.4939229024943	83	127
274.7145124716553	275.1673015873016	80	127
275.56204081632654	275.59684807256235	82	127
275.59684807256235	275.87551020408165	83	127
276.3515192743764	276.74625850340135	80	127
277.0481179138322	277.09455782312926	70	127
277.09455782312926	277.41963718820864	71	127
277.9072562358277	278.32521541950115	68	127
278.7547845804989	278.9985941043084	59	127
278.7547845804989	278.9985941043084	68	127
279.23079365079366	279.4978231292517	59	127
279.23079365079366	279.4978231292517	68	127
279.83451247165533	280.36857142857144	59	127
279.83451247165533	280.36857142857144	68	127
281.6108390022676	282.00557823129253	73	127
282.00557823129253	282.27260770975056	73	127
283.3639229024943	283.7354648526077	73	127
283.7354648526077	284.1534240362812	73	127
285.0938321995465	285.44213151927437	73	127
285.44213151927437	285.7207482993197	73	127
286.4754195011338	286.6379365079365	73	127
287.5203174603175	287.6944671201814	73	127
292.3616553287982	292.87249433106575	61	127
292.87249433106575	294.4514739229025	73	127
294.4514739229025	295.14807256235827	78	127
295.41510204081635	298.09700680272107	77	127
300.8369614512472	301.3361904761905	62	127
301.3361904761905	302.09083900226756	74	127
302.09083900226756	302.1836961451247	74	127
302.1836961451247	302.26498866213154	72	127
302.26498866213154	302.35786848072564	74	127
302.35786848072564	302.4739682539683	72	127
302.4739682539683	302.57845804988665	74	127
302.57845804988665	302.6597278911565	72	127
302.6597278911565	302.7758276643991	71	127
302.7758276643991	302.8803174603175	72	127
302.89190476190475	303.2750566893424	71	127
303.2750566893424	303.6581859410431	69	127
303.6581859410431	304.13419501133785	71	127
304.13419501133785	304.4592743764172	73	127
304.5521541950113	305.7944217687075	74	127
305.7944217687075	306.25882086167803	74	127
306.25882086167803	306.63034013605443	72	127
306.63034013605443	307.07151927437644	71	127
307.07151927437644	307.4894557823129	72	127
307.4894557823129	307.8377777777778	75	127
307.9190476190476	309.126462585034	76	127
309.126462585034	309.60249433106577	76	127
309.60249433106577	310.05526077097505	74	127
310.05526077097505	310.51968253968255	73	127
310.51968253968255	310.937641723356	74	127
310.937641723356	311.3439909297052	77	127
311.47170068027214	312.3192290249433	78	127
312.3192290249433	312.42371882086167	78	127
312.42371882086167	312.5746485260771	76	127
312.5746485260771	312.6675283446712	78	127
312.6675283446712	312.7720181405896	76	127
312.7720181405896	312.8648979591837	78	127
312.8648979591837	313.02743764172334	76	127
313.02743764172334	313.1087074829932	74	127
313.1087074829932	313.18997732426305	76	127
313.2131746031746	314.10716553287983	74	127
314.10716553287983	314.18843537414966	74	127
314.18843537414966	314.29292517006803	73	127
314.29292517006803	314.3974149659864	74	127
314.3974149659864	314.59478458049887	73	127
314.59478458049887	314.68766439909297	74	127
314.68766439909297	314.78054421768707	73	127
314.78054421768707	314.8618140589569	71	127
314.8618140589569	314.9314739229025	73	127
314.97791383219953	315.37265306122447	71	127
318.30997732426306	319.145873015873	76	127
319.145873015873	319.2503628117914	76	127
319.2503628117914	319.35485260770974	74	127
319.35485260770974	319.4361451247166	76	127
319.4361451247166	319.5174149659864	74	127
319.5174149659864	319.6219047619048	76	127
319.6219047619048	319.72639455782314	74	127
319.72639455782314	319.80766439909297	72	127
319.80766439909297	319.8889342403628	74	127
319.9237641723356	320.7828798185941	72	127
320.7828798185941	320.8757823129252	72	127
320.8757823129252	320.957052154195	71	127
320.957052154195	321.03832199546486	72	127
321.03832199546486	321.2008616780045	71	127
321.2008616780045	321.29371882086167	72	127
321.29371882086167	321.3750113378685	71	127
321.3750113378685	321.4678911564626	69	127
321.4678911564626	321.5607709750567	71	127
321.58399092970524	322.06	69	127
322.8262358276644	323.17455782312925	70	127
323.17455782312925	323.4648072562358	69	127
323.53446712018143	323.89437641723356	61	127
323.89437641723356	324.21945578231293	62	127
324.40521541950113	324.81156462585034	57	127
324.81156462585034	325.194693877551	56	127
326.1815419501134	326.6459410430839	77	127
326.6459410430839	326.79687074829934	76	127
327.9694784580499	328.48031746031745	78	127
328.48031746031745	328.66607709750565	76	127
329.79224489795916	330.2334240362812	77	127
330.2334240362812	330.61655328798184	76	127
331.78916099773244	332.3928798185941	78	127
332.3928798185941	332.5321995464853	76	127
333.78607709750565	334.22725623582767	78	127
334.22725623582767	334.41301587301587	80	127
335.59723356009073	336.0616326530612	85	127
336.0616326530612	336.21256235827667	86	127
337.26907029478457	337.81473922902495	81	127
337.81473922902495	337.9656462585034	80	127
338.99895691609976	339.4285260770975	74	127
339.4285260770975	339.57945578231295	73	127
340.8217006802721	341.21646258503404	68	127
341.21646258503404	341.35578231292516	66	127
342.4703401360544	342.80702947845805	64	127
342.80702947845805	342.9579591836735	62	127
344.3627664399093	344.72267573696143	64	127
344.72267573696143	345.0013151927438	62	127
346.42934240362814	346.8588888888889	64	127
346.8588888888889	347.02145124716554	62	127
349.2273469387755	352.5361904761905	81	127
349.2273469387755	352.5361904761905	69	127
352.5361904761905	352.6174603174603	88	127
352.68709750566893	352.76839002267576	88	127
352.8380498866213	353.000589569161	88	127
353.000589569161	353.1282993197279	87	127
353.1631292517007	353.2443990929705	88	127
353.5230385487528	353.6159183673469	88	127
353.6971882086168	353.8481179138322	88	127
353.8481179138322	353.9758276643991	87	127
354.0106349206349	354.09192743764174	88	127
354.18480725623584	354.2660770975057	88	127
354.3937868480726	354.4866666666667	88	127
354.54471655328797	354.62596371882086	83	127
354.71886621315195	354.77691609977325	80	127
354.86979591836734	354.9510657596372	76	127
355.0439455782313	355.12521541950116	71	127
355.21809523809526	355.2993650793651	64	127
355.5199546485261	358.57337868480727	69	127
355.5199546485261	358.57337868480727	81	127
358.57337868480727	358.6546485260771	81	127
358.782358276644	358.86362811791383	81	127
358.94489795918366	359.1074376417234	80	127
359.1074376417234	359.2467573696145	83	127
359.2815873015873	359.36285714285714	80	127
359.4673469387755	359.54861678004534	76	127
359.7227664399093	359.7808163265306	75	127
359.86208616780044	359.95496598639454	71	127
360.0362358276644	360.11750566893426	69	127
360.21038548752836	360.2916553287982	66	127
360.3845351473923	360.4658049886621	64	127
360.547074829932	360.62834467120183	68	127
360.72122448979593	360.80249433106576	71	127
360.89537414965986	360.98825396825396	76	127
361.08113378684806	361.5107029478458	64	127
361.5107029478458	362.0447619047619	73	127
362.0447619047619	362.19566893424036	74	127
363.25219954648526	363.6004988662132	76	127
363.6004988662132	363.8326984126984	78	127
364.79632653061225	365.14462585034016	76	127
365.14462585034016	365.2839455782313	74	127
365.8644217687075	366.06181405895694	73	127
366.65392290249434	366.83968253968254	71	127
367.7684807256236	368.18643990929706	73	127
368.18643990929706	368.32573696145124	74	127
369.28938775510204	369.6725170068027	76	127
369.6725170068027	369.8350566893424	78	127
370.9380045351474	371.2979138321995	81	127
371.2979138321995	371.448843537415	80	127
372.0293424036281	372.1918820861678	75	127
372.81879818594103	372.9813605442177	76	127
374.75768707482996	374.8389569160998	75	127
374.9202267573696	375.0131065759637	76	127
375.16403628117916	375.31496598639455	75	127
375.40784580498865	375.57038548752837	76	127
376.31342403628116	376.4295238095238	78	127
376.51079365079363	376.615283446712	76	127
376.70814058956915	376.789433106576	78	127
376.9055328798186	377.07968253968255	76	127
377.93879818594104	378.1013605442177	77	127
378.20585034013607	378.29873015873017	78	127
378.38	378.4612698412698	77	127
378.554126984127	378.70507936507937	78	127
379.3668253968254	379.4481179138322	79	127
379.5758049886621	379.68031746031744	78	127
379.7848072562358	379.8892970521542	79	127
379.98215419501133	380.144716553288	78	127
380.8761451247166	380.98063492063494	80	127
381.07351473922904	381.24766439909297	81	127
381.3289342403628	381.4102040816326	80	127
381.4914739229025	381.5843537414966	81	127
382.38544217687075	382.61764172335603	83	127
382.69891156462586	382.79179138321996	81	127
382.8730612244898	382.9543310657596	83	127
383.0472108843537	383.11687074829933	81	127
383.20975056689343	383.279410430839	83	127
383.39551020408163	383.4651700680272	81	127
383.5580498866213	383.66253968253966	83	127
383.7786394557823	383.8599092970521	81	127
383.9527891156463	384.0456689342404	88	127
384.1269387755102	384.20820861678004	85	127
384.28947845804987	384.3591383219955	81	127
384.42879818594105	384.52167800453515	80	127
384.61455782312925	384.6958276643991	76	127
384.77709750566896	384.89319727891154	74	127
384.97446712018143	385.06734693877553	71	127
385.1718367346939	385.27632653061227	69	127
385.39242630385485	385.485306122449	64	127
385.56657596371883	385.65945578231293	61	127
385.75233560090703	385.84521541950113	64	127
385.93809523809523	386.1819047619048	57	127
386.4024943310658	386.83206349206347	76	127
386.83206349206347	386.9597732426304	74	127
388.0278911564626	388.4342403628118	73	127
388.4342403628118	388.60839002267574	71	127
389.5836281179138	389.98997732426307	78	127
389.98997732426307	390.1525170068027	76	127
391.13936507936506	391.5108843537415	74	127
391.5108843537415	391.6734240362812	73	127
392.71832199546486	393.12467120181407	83	127
393.12467120181407	393.298820861678	81	127
394.22761904761904	394.5875283446712	79	127
394.5875283446712	394.7732879818594	78	127
395.7020861678005	396.21292517006805	81	127
396.21292517006805	396.99079365079365	73	127
397.1417233560091	397.72222222222223	74	127
397.72222222222223	397.94281179138324	71	127
398.03569160997733	398.16340136054424	69	127
398.2795011337868	398.372380952381	64	127
398.48848072562356	398.56975056689345	66	127
398.6510204081633	398.7439002267574	68	127
398.90643990929703	399.080589569161	69	127
399.1850793650794	399.2663492063492	71	127
399.3592290249433	399.4521088435374	73	127
399.53337868480725	399.6378684807256	74	127
399.7307482993197	400.5434467120181	76	127
400.5434467120181	400.62471655328795	76	127
400.62471655328795	400.7292063492063	74	127
400.7292063492063	400.8220861678005	76	127
400.8220861678005	400.9149659863946	74	127
400.9149659863946	400.9962358276644	76	127
400.9962358276644	401.0891156462585	74	127
401.0891156462585	401.17038548752834	73	127
401.17038548752834	401.26326530612243	74	127
401.286485260771	401.9366439909297	73	127
401.9366439909297	402.0295238095238	76	127
402.0295238095238	402.0875736961451	73	127
402.1224036281179	402.3081632653061	69	127
402.5287528344671	402.7145124716553	69	127
402.9467120181406	403.5504308390023	71	127
403.5504308390023	403.62009070294783	74	127
403.62009070294783	403.6781405895692	71	127
403.70136054421766	403.8639002267574	68	127
404.0844897959184	404.3863492063492	68	127
404.59532879818596	404.6649886621315	69	127
404.7578684807256	404.8507482993197	73	127
404.93201814058955	405.01328798185943	76	127
405.1177777777778	405.19904761904763	74	127
405.303537414966	405.3964172335601	73	127
405.4892970521542	405.57056689342403	71	127
405.68666666666667	405.7679365079365	69	127
405.87242630385487	405.96530612244896	67	127
406.0814058956916	406.16267573696143	66	127
406.2439455782313	406.3136054421769	69	127
406.406485260771	406.4877551020408	66	127
406.5922448979592	406.7083446712018	62	127
406.78961451247164	406.8708843537415	61	127
406.97537414965984	407.05664399092973	64	127
407.1263038548753	407.2075736961451	61	127
407.3468934240363	407.4281632653061	57	127
407.5326530612245	407.6139229024943	62	127
407.69519274376415	407.76485260770977	66	127
407.85773242630387	407.9854421768708	67	127
408.1131519274376	408.19442176870746	69	127
408.27569160997734	408.36857142857144	71	127
408.46145124716554	408.58916099773245	69	127
408.6936507936508	408.7865306122449	67	127
408.86780045351475	408.96068027210885	66	127
409.0651700680272	409.1580498866213	67	127
409.23931972789114	409.33219954648524	64	127
409.41346938775513	409.4831292517007	66	127
409.58761904761906	409.6921088435374	67	127
409.7849886621315	409.86625850340135	69	127
409.9359183673469	410.08684807256236	67	127
410.17972789115646	410.27260770975056	66	127
410.3770975056689	410.469977324263	64	127
410.58607709750567	410.6557369614512	66	127
410.7486167800453	410.81827664399094	69	127
410.89954648526077	410.9808163265306	67	127
411.0736961451247	411.1433560090703	66	127
411.22462585034015	411.3407256235828	64	127
411.44521541950115	411.5613151927438	61	127
411.6541950113379	411.747074829932	62	127
411.8980045351474	411.9792743764172	64	127
412.0837641723356	412.17664399092973	66	127
412.25791383219956	412.35079365079366	78	127
412.44367346938776	412.5249433106576	76	127
412.6178231292517	412.6990929705215	74	127
412.7919727891156	412.8732426303855	73	127
412.9661224489796	413.070612244898	70	127
413.1634920634921	413.25637188208617	71	127
413.34925170068027	413.4305215419501	73	127
413.51179138321993	413.6162811791383	74	127
413.72077097505667	413.81365079365077	76	127
413.9297505668934	414.0226303854875	78	127
414.12712018140587	414.20839002267576	76	127
414.2780498866213	414.35931972789115	74	127
414.4638095238095	414.5334693877551	76	127
414.63795918367344	414.70761904761906	74	127
414.83532879818597	414.9165986394558	73	127
415.0094784580499	415.1836281179138	71	127
415.1836281179138	415.34616780045354	69	127
415.34616780045354	415.5551473922902	68	127
415.5551473922902	415.77573696145123	69	127
415.77573696145123	415.9614965986394	71	127
415.9614965986394	416.1472562358277	68	127
416.1472562358277	416.34462585034015	69	127
416.34462585034015	416.49555555555554	71	127
416.53038548752835	416.7045351473923	73	127
416.7045351473923	416.9483446712018	74	127
416.9483446712018	417.1108843537415	76	127
417.1108843537415	417.2966439909297	74	127
417.3314739229025	417.5056235827664	78	127
417.5056235827664	417.66816326530613	76	127
417.7029931972789	417.7726530612245	74	127
417.87714285714287	417.98163265306124	73	127
418.06290249433107	418.2834920634921	71	127
418.2834920634921	418.457641723356	69	127
418.457641723356	418.6434013605442	68	127
418.6434013605442	418.84077097505667	69	127
418.84077097505667	419.0265306122449	71	127
419.0265306122449	419.2122902494331	68	127
419.2122902494331	419.38643990929705	69	127
419.38643990929705	419.5373696145125	71	127
419.57219954648525	419.7231292517007	73	127
419.7231292517007	419.97854875283446	74	127
419.97854875283446	420.1759183673469	76	127
420.1759183673469	420.3152380952381	74	127
420.3732879818594	420.5474376417234	78	127
420.5474376417234	420.6751473922902	76	127
420.7215873015873	420.8260770975057	74	127
420.93056689342404	421.0350566893424	73	127
421.1279365079365	421.20920634920634	71	127
421.30208616780044	421.38335600907027	64	127
421.48784580498864	421.5691156462585	68	127
421.6619954648526	421.7897052154195	71	127
421.88258503401363	421.97546485260773	76	127
422.0683446712018	422.1612244897959	76	127
422.2657142857143	422.3469841269841	80	127
422.4398639455782	422.55596371882086	83	127
422.66045351473923	423.136462585034	88	127
430.2998185941043	430.3810884353741	64	127
430.3810884353741	430.4739682539683	63	127
430.4739682539683	430.6132879818594	64	127
430.6132879818594	430.7061678004535	63	127
430.72938775510204	430.8919274376417	64	127
431.0660770975057	431.2402267573696	64	127
431.78589569161	431.9252154195011	64	127
431.9252154195011	432.0297052154195	63	127
432.0297052154195	432.22707482993195	64	127
432.22707482993195	432.35478458049886	63	127
432.3780045351474	432.5521541950113	64	127
432.7379138321995	432.90045351473924	64	127
433.45773242630383	433.77120181405894	64	127
433.77120181405894	433.95696145124714	66	127
433.95696145124714	434.2007709750567	68	127
434.2007709750567	434.2820408163265	69	127
434.2820408163265	434.53746031746033	71	127
434.53746031746033	434.6419501133787	73	127
434.6419501133787	435.0018594104308	74	127
435.0018594104308	435.08312925170065	71	127
435.08312925170065	435.33854875283447	76	127
435.33854875283447	435.4198185941043	74	127
435.44303854875284	435.8726077097506	73	127
435.8726077097506	436.244126984127	76	127
436.3253968253968	436.62725623582764	76	127
436.62725623582764	436.7665759637188	73	127
436.7665759637188	437.11487528344674	78	127
437.11487528344674	437.19614512471657	76	127
437.20775510204084	437.67215419501133	74	127
437.67215419501133	437.98562358276644	71	127
439.7619501133787	440.12185941043083	76	127
440.12185941043083	440.20312925170066	73	127
440.20312925170066	440.5398185941043	78	127
440.5398185941043	440.60947845804986	76	127
440.6326984126984	441.0738775510204	74	127
441.0738775510204	441.43378684807254	71	127
441.5498866213152	442.3045351473923	71	127
442.3045351473923	442.4554648526077	73	127
442.82698412698414	443.2449433106576	71	127
443.2449433106576	443.4307029478458	73	127
443.6629024943311	444.0808616780045	71	127
444.0808616780045	444.41755102040815	73	127
444.51043083900225	444.58009070294787	69	127
444.58009070294787	444.83551020408163	81	127
444.83551020408163	444.94	80	127
444.94	445.2650793650794	78	127
445.2650793650794	445.3579591836735	76	127
445.3579591836735	445.601768707483	74	127
445.601768707483	445.64820861678004	73	127
445.6714285714286	445.8455782312925	71	127
446.1009977324263	446.3796371882086	71	127
447.0762358276644	447.2968253968254	68	127
447.50580498866213	447.81927437641724	85	127
447.81927437641724	447.91215419501134	83	127
447.91215419501134	448.22562358276645	81	127
448.22562358276645	448.3068934240363	80	127
448.3068934240363	448.6435827664399	78	127
448.6435827664399	448.736462585034	76	127
448.736462585034	449.0151020408163	74	127
449.0151020408163	449.09637188208615	73	127
449.1079818594104	449.3053514739229	71	127
449.54916099773243	449.72331065759636	86	127
450.41990929705213	450.5940589569161	83	127
451.04684807256234	451.4183673469388	81	127
452.08013605442176	452.26589569160996	73	127
452.8696145124716	452.9508843537415	71	127
453.0437641723356	453.2759637188209	74	127
453.7403628117914	453.8216326530612	73	127
453.9493424036281	454.2047619047619	78	127
454.6111111111111	454.7272108843537	76	127
454.8084807256236	456.29455782312925	80	127
456.29455782312925	456.6312471655329	81	127
457.24657596371884	457.4091156462585	74	127
458.10571428571427	458.314693877551	71	127
459.0693424036281	459.27832199546486	73	127
459.4524716553288	459.59179138321997	76	127
459.6730612244898	459.74272108843536	76	127
460.0329705215419	460.1142403628118	76	127
460.2303401360544	460.33482993197276	81	127
460.4973696145125	460.60185941043085	81	127
460.9501587301587	461.0778684807256	81	127
461.15913832199544	461.25201814058954	81	127
461.3565079365079	461.44938775510207	81	127
461.9021768707483	461.9950566893424	81	127
462.14598639455784	463.875873015873	86	127
463.875873015873	464.537641723356	85	127
465.199410430839	465.40839002267575	83	127
466.05854875283444	466.2907482993197	80	127
466.53455782312926	466.964126984127	81	127
468.287664399093	469.11197278911567	76	127
469.11197278911567	469.3209523809524	76	127
469.49510204081633	469.77374149659863	76	127
469.9711111111111	470.74897959183676	81	127
470.74897959183676	471.1088888888889	76	127
471.56167800453517	472.35115646258504	76	127
472.35115646258504	472.52530612244897	76	127
472.72267573696143	472.9316553287982	76	127
473.1522448979592	473.51215419501136	73	127
474.66154195011336	475.52068027210885	64	127
475.52068027210885	475.7644897959184	64	127
475.92702947845805	476.11278911564625	64	127
476.39142857142855	477.15768707482994	69	127
477.15768707482994	477.42471655328796	64	127
477.92394557823127	478.72503401360547	64	127
478.72503401360547	478.9456235827664	64	127
479.13138321995467	479.2707029478458	64	127
479.4796825396825	479.9092517006803	61	127
480.29238095238094	480.3504308390023	63	127
480.3504308390023	480.6290702947846	64	127
481.04702947845806	481.46498866213153	61	127
481.8365079365079	481.882947845805	75	127
481.882947845805	482.18480725623584	76	127
482.71886621315195	483.09038548752835	73	127
483.62444444444446	483.8914739229025	61	127
483.62444444444446	483.8914739229025	64	127
484.2049433106576	484.5532426303855	61	127
484.2049433106576	484.5532426303855	64	127
485.08730158730157	485.9580498866213	61	127
485.08730158730157	485.9580498866213	64	127
