# onset,offset,note,velocity
0.045668934240362814	1.7407256235827664	64	127
1.7407256235827664	1.9613151927437642	72	127
1.7407256235827664	1.9613151927437642	57	127
1.9613151927437642	2.193514739229025	71	127
1.9613151927437642	2.193514739229025	59	127
2.193514739229025	2.3792743764172335	69	127
2.193514739229025	2.3792743764172335	60	127
2.3792743764172335	2.5418140589569163	62	127
2.3792743764172335	2.5418140589569163	68	127
2.5418140589569163	2.739183673469388	69	127
2.5418140589569163	2.739183673469388	60	127
2.739183673469388	2.9713832199546486	71	127
2.739183673469388	2.9713832199546486	59	127
2.9713832199546486	3.2151927437641725	57	127
2.9713832199546486	3.2151927437641725	72	127
3.2151927437641725	3.366122448979592	69	127
3.2151927437641725	3.366122448979592	60	127
3.412562358276644	3.6215419501133788	59	127
3.412562358276644	3.6215419501133788	74	127
3.6215419501133788	3.8305215419501133	72	127
3.6215419501133788	3.8305215419501133	57	127
3.8305215419501133	4.027891156462585	71	127
3.8305215419501133	4.027891156462585	56	127
4.027891156462585	4.1788208616780045	54	127
4.027891156462585	4.1788208616780045	70	127
4.1788208616780045	4.399410430839002	71	127
4.1788208616780045	4.399410430839002	56	127
4.399410430839002	4.608390022675737	72	127
4.399410430839002	4.608390022675737	57	127
4.608390022675737	4.782539682539682	74	127
4.608390022675737	4.782539682539682	59	127
4.782539682539682	4.956689342403628	56	127
4.782539682539682	4.956689342403628	71	127
4.991519274376417	5.177278911564626	57	127
4.991519274376417	5.177278911564626	72	127
5.177278911564626	5.38625850340136	73	127
5.177278911564626	5.38625850340136	55	127
5.38625850340136	5.560408163265306	74	127
5.38625850340136	5.560408163265306	53	127
5.560408163265306	5.780997732426304	52	127
5.560408163265306	5.746167800453515	76	127
5.780997732426304	6.3034467120181406	77	127
5.780997732426304	5.989977324263038	50	127
5.989977324263038	6.222176870748299	49	127
6.222176870748299	6.407936507936508	50	127
6.3034467120181406	6.407936507936508	76	127
6.407936507936508	6.477596371882086	52	127
6.407936507936508	6.477596371882086	74	127
6.477596371882086	6.489206349206349	72	127
6.512426303854875	6.628526077097506	53	127
6.512426303854875	6.628526077097506	71	127
6.628526077097506	6.733015873015873	72	127
6.733015873015873	6.814285714285714	71	127
6.733015873015873	6.814285714285714	53	127
6.814285714285714	6.883945578231293	72	127
6.883945578231293	6.965215419501134	69	127
6.883945578231293	6.965215419501134	51	127
6.965215419501134	7.046485260770975	71	127
7.046485260770975	7.150975056689342	69	127
7.046485260770975	7.150975056689342	51	127
7.150975056689342	7.25546485260771	71	127
7.278684807256236	7.40639455782313	68	127
7.278684807256236	7.487664399092971	52	127
7.40639455782313	7.487664399092971	69	127
7.487664399092971	7.615374149659864	71	127
7.615374149659864	7.696643990929705	68	127
7.731473922902494	7.824353741496599	64	127
8.068163265306122	8.184263038548753	57	127
8.068163265306122	8.300340136054421	45	127
8.184263038548753	8.300340136054421	64	127
8.300340136054421	8.393219954648526	59	127
8.393219954648526	8.474512471655329	64	127
8.474512471655329	8.59061224489796	60	127
8.59061224489796	8.683492063492064	64	127
8.683492063492064	8.799591836734693	62	127
8.799591836734693	8.915691609977324	64	127
8.915691609977324	9.031791383219955	60	127
8.915691609977324	9.113061224489796	45	127
9.031791383219955	9.113061224489796	64	127
9.113061224489796	9.194331065759638	59	127
9.194331065759638	9.287210884353742	64	127
9.287210884353742	9.380090702947847	57	127
9.380090702947847	9.461360544217687	64	127
9.461360544217687	9.577460317460318	60	127
9.577460317460318	9.693537414965986	64	127
9.693537414965986	9.82124716553288	59	127
9.693537414965986	9.902539682539683	40	127
9.82124716553288	9.902539682539683	64	127
9.902539682539683	10.041836734693877	57	127
10.041836734693877	10.15795918367347	64	127
10.15795918367347	10.250839002267574	56	127
10.250839002267574	10.30888888888889	64	127
10.30888888888889	10.378548752834467	54	127
10.378548752834467	10.45981859410431	64	127
10.45981859410431	10.564308390022676	56	127
10.45981859410431	10.65718820861678	40	127
10.564308390022676	10.65718820861678	64	127
10.65718820861678	10.784897959183674	57	127
10.784897959183674	10.900975056689342	64	127
10.900975056689342	11.028707482993198	59	127
11.028707482993198	11.109977324263038	64	127
11.109977324263038	11.22607709750567	56	127
11.22607709750567	11.342154195011338	64	127
11.342154195011338	11.504716553287983	45	127
11.342154195011338	11.411836734693878	57	127
11.411836734693878	11.504716553287983	69	127
11.504716553287983	11.667256235827665	43	127
11.504716553287983	11.551156462585034	57	127
11.551156462585034	11.667256235827665	69	127
11.667256235827665	11.829795918367347	41	127
11.667256235827665	11.736916099773243	57	127
11.736916099773243	11.829795918367347	69	127
11.829795918367347	11.899455782312925	57	127
11.829795918367347	12.027165532879819	40	127
11.899455782312925	12.027165532879819	69	127
12.027165532879819	12.14326530612245	57	127
12.027165532879819	12.270975056689343	38	127
12.14326530612245	12.270975056689343	69	127
12.270975056689343	12.445124716553288	37	127
12.270975056689343	12.352244897959183	57	127
12.352244897959183	12.445124716553288	69	127
12.445124716553288	12.514784580498866	57	127
12.445124716553288	12.630884353741497	38	127
12.514784580498866	12.630884353741497	69	127
12.630884353741497	12.770204081632652	41	127
12.630884353741497	12.723764172335601	57	127
12.723764172335601	12.805034013605443	69	127
12.805034013605443	12.932743764172336	57	127
12.805034013605443	12.921133786848072	40	127
12.805034013605443	12.921133786848072	52	127
12.932743764172336	13.037233560090703	60	127
13.037233560090703	13.164943310657597	52	127
13.037233560090703	13.164943310657597	40	127
13.037233560090703	13.164943310657597	64	127
13.164943310657597	13.257823129251701	69	127
13.257823129251701	13.362312925170068	56	127
13.257823129251701	13.362312925170068	52	127
13.257823129251701	13.362312925170068	40	127
13.362312925170068	13.431972789115646	59	127
13.431972789115646	13.478412698412699	52	127
13.431972789115646	13.478412698412699	40	127
13.431972789115646	13.478412698412699	64	127
13.478412698412699	13.513242630385488	68	127
13.513242630385488	13.710612244897959	33	127
13.513242630385488	13.710612244897959	45	127
13.594512471655328	13.710612244897959	57	127
13.710612244897959	13.838321995464852	60	127
13.838321995464852	13.954421768707483	64	127
13.954421768707483	14.082131519274377	69	127
14.082131519274377	14.175011337868481	72	127
14.175011337868481	14.349160997732426	56	127
14.175011337868481	14.244671201814059	76	127
14.175011337868481	14.349160997732426	44	127
14.244671201814059	14.349160997732426	72	127
14.349160997732426	14.453650793650795	69	127
14.349160997732426	14.546530612244897	57	127
14.349160997732426	14.546530612244897	45	127
14.453650793650795	14.546530612244897	81	127
14.546530612244897	14.709070294784581	43	127
14.546530612244897	14.616190476190477	69	127
14.546530612244897	14.709070294784581	55	127
14.616190476190477	14.709070294784581	81	127
14.709070294784581	14.918049886621315	53	127
14.709070294784581	14.918049886621315	41	127
14.709070294784581	14.790340136054422	69	127
14.790340136054422	14.918049886621315	81	127
14.918049886621315	15.115419501133786	52	127
14.918049886621315	15.01092970521542	69	127
14.918049886621315	15.115419501133786	40	127
15.01092970521542	15.115419501133786	81	127
15.115419501133786	15.382448979591837	38	127
15.115419501133786	15.382448979591837	50	127
15.115419501133786	15.24312925170068	69	127
15.24312925170068	15.382448979591837	81	127
15.382448979591837	15.556598639455782	37	127
15.382448979591837	15.556598639455782	49	127
15.382448979591837	15.51015873015873	69	127
15.51015873015873	15.556598639455782	81	127
15.556598639455782	15.66108843537415	69	127
15.556598639455782	15.672698412698413	38	127
15.556598639455782	15.672698412698413	50	127
15.66108843537415	15.672698412698413	81	127
15.672698412698413	15.881678004535148	41	127
15.672698412698413	15.812018140589569	69	127
15.672698412698413	15.881678004535148	53	127
15.812018140589569	15.939727891156462	81	127
15.939727891156462	16.032607709750568	52	127
15.939727891156462	16.032607709750568	69	127
15.939727891156462	16.032607709750568	40	127
16.032607709750568	16.11387755102041	72	127
16.11387755102041	16.22997732426304	76	127
16.11387755102041	16.22997732426304	52	127
16.11387755102041	16.22997732426304	40	127
16.22997732426304	16.334444444444443	81	127
16.334444444444443	16.462154195011337	52	127
16.334444444444443	16.462154195011337	68	127
16.334444444444443	16.462154195011337	40	127
16.462154195011337	16.57827664399093	80	127
16.57827664399093	16.671156462585035	40	127
16.57827664399093	16.671156462585035	52	127
16.57827664399093	16.671156462585035	68	127
16.671156462585035	16.787256235827666	80	127
16.787256235827666	16.984625850340137	69	127
16.787256235827666	16.984625850340137	81	127
16.787256235827666	16.984625850340137	33	127
16.787256235827666	16.984625850340137	45	127
17.332925170068027	17.425804988662133	55	127
17.332925170068027	17.425804988662133	43	127
17.425804988662133	17.5418820861678	45	127
17.425804988662133	17.5418820861678	57	127
17.5418820861678	17.61156462585034	47	127
17.5418820861678	17.61156462585034	59	127
17.61156462585034	17.68122448979592	48	127
17.61156462585034	17.68122448979592	60	127
17.68122448979592	17.750884353741498	59	127
17.68122448979592	17.750884353741498	47	127
17.750884353741498	17.87859410430839	60	127
17.750884353741498	17.87859410430839	48	127
17.87859410430839	17.94825396825397	55	127
17.87859410430839	17.94825396825397	43	127
17.94825396825397	18.0643537414966	57	127
17.94825396825397	18.0643537414966	45	127
18.0643537414966	18.168843537414965	59	127
18.0643537414966	18.168843537414965	47	127
18.168843537414965	18.25011337868481	60	127
18.168843537414965	18.25011337868481	48	127
18.25011337868481	18.33138321995465	50	127
18.25011337868481	18.33138321995465	62	127
18.33138321995465	18.44748299319728	64	127
18.33138321995465	18.44748299319728	52	127
18.44748299319728	18.551972789115645	51	127
18.44748299319728	18.551972789115645	63	127
18.551972789115645	18.668072562358276	64	127
18.551972789115645	18.668072562358276	52	127
18.668072562358276	18.784172335600907	59	127
18.668072562358276	18.784172335600907	47	127
18.784172335600907	18.87702947845805	60	127
18.784172335600907	18.87702947845805	48	127
18.87702947845805	18.935079365079364	50	127
18.87702947845805	18.935079365079364	62	127
18.935079365079364	19.01637188208617	64	127
18.935079365079364	19.01637188208617	52	127
19.01637188208617	19.144081632653062	53	127
19.01637188208617	19.144081632653062	65	127
19.144081632653062	19.236961451247165	67	127
19.144081632653062	19.236961451247165	55	127
19.236961451247165	19.318208616780044	54	127
19.236961451247165	19.318208616780044	66	127
19.318208616780044	19.422721088435374	55	127
19.318208616780044	19.422721088435374	67	127
19.422721088435374	19.503968253968253	52	127
19.422721088435374	19.503968253968253	64	127
19.503968253968253	19.59687074829932	53	127
19.503968253968253	19.59687074829932	65	127
19.59687074829932	19.67814058956916	55	127
19.59687074829932	19.67814058956916	67	127
19.67814058956916	19.771020408163267	69	127
19.67814058956916	19.771020408163267	57	127
19.771020408163267	19.875510204081632	59	127
19.771020408163267	19.875510204081632	71	127
19.875510204081632	19.991609977324263	60	127
19.875510204081632	19.991609977324263	72	127
19.991609977324263	20.119319727891156	59	127
19.991609977324263	20.119319727891156	71	127
20.119319727891156	20.212199546485262	60	127
20.119319727891156	20.212199546485262	72	127
20.212199546485262	20.316689342403627	55	127
20.212199546485262	20.316689342403627	67	127
20.316689342403627	20.397936507936507	57	127
20.316689342403627	20.397936507936507	69	127
20.397936507936507	20.502448979591836	59	127
20.397936507936507	20.502448979591836	71	127
20.502448979591836	20.583696145124716	72	127
20.502448979591836	20.583696145124716	60	127
20.583696145124716	20.676598639455783	62	127
20.583696145124716	20.676598639455783	74	127
20.676598639455783	21.291927437641725	64	127
20.676598639455783	21.291927437641725	76	127
21.291927437641725	21.535714285714285	73	127
21.291927437641725	21.535714285714285	61	127
21.535714285714285	21.709886621315192	58	127
21.535714285714285	21.709886621315192	70	127
21.709886621315192	21.96530612244898	67	127
21.709886621315192	21.96530612244898	55	127
21.96530612244898	22.127845804988663	52	127
21.96530612244898	22.127845804988663	64	127
22.127845804988663	22.38326530612245	61	127
22.127845804988663	22.38326530612245	49	127
22.38326530612245	22.615442176870747	58	127
22.38326530612245	22.615442176870747	46	127
22.615442176870747	22.754784580498868	43	127
22.615442176870747	22.754784580498868	55	127
22.754784580498868	22.859274376417233	54	127
22.754784580498868	22.917324263038548	42	127
22.917324263038548	23.091473922902495	46	127
22.917324263038548	23.741632653061224	54	127
22.917324263038548	23.53265306122449	61	127
23.14952380952381	23.53265306122449	47	127
23.53265306122449	23.741632653061224	35	127
23.53265306122449	23.741632653061224	59	127
23.973832199546486	24.5659410430839	74	127
23.973832199546486	24.5659410430839	62	127
24.5659410430839	24.821360544217686	59	127
24.5659410430839	24.821360544217686	71	127
24.821360544217686	25.041950113378686	56	127
24.821360544217686	25.041950113378686	68	127
25.041950113378686	25.18126984126984	65	127
25.041950113378686	25.18126984126984	53	127
25.18126984126984	25.36702947845805	50	127
25.18126984126984	25.36702947845805	62	127
25.36702947845805	25.564399092970522	59	127
25.36702947845805	25.564399092970522	47	127
25.564399092970522	25.784988662131518	44	127
25.564399092970522	25.784988662131518	56	127
25.784988662131518	25.993968253968255	53	127
25.784988662131518	25.993968253968255	41	127
25.993968253968255	26.191337868480726	40	127
25.993968253968255	26.144897959183673	52	127
26.191337868480726	26.330657596371882	44	127
26.191337868480726	26.80666666666667	59	127
26.191337868480726	26.992426303854874	52	127
26.330657596371882	26.80666666666667	45	127
26.80666666666667	26.992426303854874	57	127
26.80666666666667	26.992426303854874	33	127
27.28267573696145	27.85156462585034	81	127
27.28267573696145	27.85156462585034	69	127
27.85156462585034	28.060544217687074	66	127
27.85156462585034	28.060544217687074	78	127
28.060544217687074	28.31596371882086	75	127
28.060544217687074	28.31596371882086	63	127
28.31596371882086	28.50172335600907	60	127
28.31596371882086	28.50172335600907	72	127
28.50172335600907	28.69909297052154	69	127
28.50172335600907	28.69909297052154	57	127
28.69909297052154	28.861632653061225	66	127
28.69909297052154	28.861632653061225	54	127
28.861632653061225	29.08222222222222	63	127
28.861632653061225	29.08222222222222	51	127
29.08222222222222	29.291201814058958	60	127
29.08222222222222	29.291201814058958	48	127
29.291201814058958	29.4653514739229	59	127
29.291201814058958	29.48857142857143	47	127
29.48857142857143	30.278049886621314	59	127
29.48857142857143	30.115510204081634	66	127
29.48857142857143	29.60467120181406	51	127
29.662721088435376	30.115510204081634	52	127
30.115510204081634	30.278049886621314	40	127
30.115510204081634	30.278049886621314	64	127
30.33609977324263	30.510249433106576	54	127
30.33609977324263	30.846938775510203	69	127
30.33609977324263	30.510249433106576	63	127
30.510249433106576	30.846938775510203	64	127
30.510249433106576	30.93981859410431	55	127
30.93981859410431	31.10235827664399	43	127
30.93981859410431	31.10235827664399	67	127
31.12557823129252	31.357777777777777	60	127
31.12557823129252	31.357777777777777	57	127
31.12557823129252	31.531927437641723	66	127
31.357777777777777	31.497097505668933	59	127
31.531927437641723	31.857006802721088	64	127
31.740907029478457	31.90344671201814	47	127
31.90344671201814	32.50716553287982	63	127
32.1356462585034	32.274965986394555	52	127
32.50716553287982	32.68131519274377	64	127
32.73936507936508	32.983174603174604	63	127
32.73936507936508	33.41274376417233	81	127
32.73936507936508	32.983174603174604	66	127
32.983174603174604	33.180521541950114	67	127
32.983174603174604	33.180521541950114	64	127
33.41274376417233	33.5172335600907	79	127
33.55204081632653	33.77265306122449	66	127
33.55204081632653	34.202222222222225	84	127
33.55204081632653	33.77265306122449	69	127
33.77265306122449	33.9584126984127	67	127
33.77265306122449	33.9584126984127	71	127
34.202222222222225	34.353151927437644	83	127
34.39959183673469	34.794331065759636	78	127
34.39959183673469	34.794331065759636	81	127
34.39959183673469	34.585351473922906	69	127
34.585351473922906	34.747891156462586	71	127
34.794331065759636	35.16585034013605	79	127
34.794331065759636	35.16585034013605	76	127
35.0265306122449	35.16585034013605	59	127
35.16585034013605	35.36321995464853	75	127
35.16585034013605	35.36321995464853	78	127
35.36321995464853	35.52575963718821	76	127
35.36321995464853	35.52575963718821	64	127
35.885668934240364	35.99015873015873	83	127
35.99015873015873	36.19913832199546	71	127
35.99015873015873	36.19913832199546	67	127
35.99015873015873	36.268798185941044	64	127
35.99015873015873	36.117868480725626	79	127
36.117868480725626	36.19913832199546	76	127
36.19913832199546	36.268798185941044	72	127
36.19913832199546	36.268798185941044	69	127
36.19913832199546	36.268798185941044	75	127
36.72156462585034	36.814467120181405	84	127
36.814467120181405	37.06988662131519	64	127
36.814467120181405	37.00022675736962	72	127
36.814467120181405	37.00022675736962	69	127
36.814467120181405	36.90734693877551	81	127
36.90734693877551	37.00022675736962	75	127
37.00022675736962	37.06988662131519	76	127
37.00022675736962	37.06988662131519	71	127
37.00022675736962	37.06988662131519	67	127
37.534285714285716	37.638775510204084	83	127
37.638775510204084	37.82453514739229	67	127
37.638775510204084	37.82453514739229	71	127
37.638775510204084	37.917414965986396	64	127
37.638775510204084	37.70843537414966	79	127
37.70843537414966	37.82453514739229	76	127
37.82453514739229	37.917414965986396	75	127
37.82453514739229	37.917414965986396	69	127
37.82453514739229	37.917414965986396	72	127
38.3237641723356	38.451473922902494	84	127
38.451473922902494	38.637233560090706	72	127
38.451473922902494	38.637233560090706	69	127
38.451473922902494	38.5443537414966	81	127
38.451473922902494	38.683673469387756	64	127
38.5443537414966	38.637233560090706	75	127
38.637233560090706	38.683673469387756	76	127
38.637233560090706	38.683673469387756	68	127
38.637233560090706	38.683673469387756	71	127
39.171292517006805	39.264149659863946	77	127
39.264149659863946	39.36866213151927	74	127
39.36866213151927	39.50795918367347	71	127
39.50795918367347	39.6124716553288	68	127
39.50795918367347	39.635668934240364	52	127
40.204580498866214	40.34390022675737	65	127
40.34390022675737	40.541269841269845	62	127
40.541269841269845	40.72702947845805	59	127
40.808299319727894	43.44374149659864	56	127
40.808299319727894	41.70226757369615	40	127
46.24174603174603	50.6071201814059	77	127
50.6071201814059	51.39659863945578	76	127
51.39659863945578	52.10480725623583	74	127
52.10480725623583	52.20929705215419	73	127
52.20929705215419	52.348616780045354	74	127
52.348616780045354	52.453106575963716	73	127
52.453106575963716	52.56920634920635	74	127
52.56920634920635	52.68530612244898	73	127
52.68530612244898	52.80140589569161	74	127
52.80140589569161	52.9291156462585	76	127
52.9291156462585	55.25111111111111	74	127
56.713968253968254	56.9809977324263	64	127
56.9809977324263	57.23641723356009	72	127
56.9809977324263	57.23641723356009	57	127
57.23641723356009	57.45700680272109	59	127
57.23641723356009	57.45700680272109	71	127
57.45700680272109	57.63115646258503	60	127
57.45700680272109	57.63115646258503	69	127
57.63115646258503	57.79369614512472	62	127
57.63115646258503	57.79369614512472	68	127
57.79369614512472	58.01428571428571	60	127
57.79369614512472	58.01428571428571	69	127
58.01428571428571	58.18843537414966	59	127
58.01428571428571	58.18843537414966	71	127
58.18843537414966	58.409024943310655	72	127
58.18843537414966	58.409024943310655	57	127
58.409024943310655	58.60639455782313	60	127
58.409024943310655	58.60639455782313	69	127
58.64122448979592	58.792154195011335	59	127
58.64122448979592	58.792154195011335	74	127
58.792154195011335	58.966303854875285	57	127
58.792154195011335	58.966303854875285	72	127
58.966303854875285	59.21011337868481	56	127
58.966303854875285	59.21011337868481	71	127
59.21011337868481	59.38426303854875	54	127
59.21011337868481	59.38426303854875	70	127
59.38426303854875	59.59324263038549	56	127
59.38426303854875	59.59324263038549	71	127
59.59324263038549	59.81383219954648	72	127
59.59324263038549	59.81383219954648	57	127
59.81383219954648	59.999591836734695	59	127
59.81383219954648	59.999591836734695	74	127
59.999591836734695	60.17374149659864	56	127
59.999591836734695	60.17374149659864	71	127
60.220181405895694	60.41755102040816	72	127
60.220181405895694	60.41755102040816	57	127
60.41755102040816	60.59170068027211	73	127
60.41755102040816	60.59170068027211	55	127
60.59170068027211	60.82390022675737	74	127
60.59170068027211	60.82390022675737	53	127
60.82390022675737	60.986439909297054	76	127
60.82390022675737	61.02126984126984	52	127
61.02126984126984	61.50888888888889	77	127
61.02126984126984	61.23024943310658	50	127
61.23024943310658	61.416009070294784	49	127
61.416009070294784	61.61337868480726	50	127
61.50888888888889	61.61337868480726	76	127
61.61337868480726	61.70625850340136	74	127
61.61337868480726	61.70625850340136	52	127
61.70625850340136	61.72947845804989	72	127
61.752698412698415	61.85718820861678	53	127
61.752698412698415	61.85718820861678	71	127
61.85718820861678	61.93845804988662	72	127
61.93845804988662	62.031337868480726	71	127
61.93845804988662	62.031337868480726	53	127
62.031337868480726	62.12421768707483	72	127
62.12421768707483	62.228707482993194	69	127
62.12421768707483	62.228707482993194	51	127
62.228707482993194	62.35641723356009	71	127
62.35641723356009	62.42607709750567	69	127
62.35641723356009	62.42607709750567	51	127
62.42607709750567	62.48412698412698	71	127
62.50734693877551	62.69310657596372	52	127
62.50734693877551	62.611836734693874	68	127
62.611836734693874	62.69310657596372	69	127
62.69310657596372	62.785986394557824	71	127
62.785986394557824	62.87886621315193	68	127
62.89047619047619	63.018185941043086	64	127
63.285215419501135	63.401315192743766	57	127
63.285215419501135	63.4825850340136	45	127
63.401315192743766	63.4825850340136	64	127
63.4825850340136	63.552244897959184	59	127
63.552244897959184	63.64512471655329	64	127
63.64512471655329	63.772834467120184	60	127
63.772834467120184	63.888934240362815	64	127
63.888934240362815	63.97020408163265	62	127
63.97020408163265	64.07469387755103	64	127
64.07469387755103	64.19079365079365	60	127
64.07469387755103	64.28367346938775	45	127
64.19079365079365	64.28367346938775	64	127
64.28367346938775	64.37655328798186	59	127
64.37655328798186	64.46943310657596	64	127
64.46943310657596	64.57392290249433	57	127
64.57392290249433	64.69	64	127
64.69	64.8061224489796	60	127
64.8061224489796	64.93383219954649	64	127
64.93383219954649	65.02671201814059	59	127
64.93383219954649	65.0847619047619	40	127
65.02671201814059	65.0847619047619	64	127
65.0847619047619	65.177641723356	57	127
65.177641723356	65.31696145124717	64	127
65.31696145124717	65.39823129251701	56	127
65.39823129251701	65.47950113378685	64	127
65.47950113378685	65.59560090702948	54	127
65.59560090702948	65.71167800453514	64	127
65.71167800453514	65.92068027210884	40	127
65.71167800453514	65.80458049886622	56	127
65.80458049886622	65.92068027210884	64	127
65.92068027210884	66.02517006802721	57	127
66.02517006802721	66.12965986394558	64	127
66.12965986394558	66.21092970521542	59	127
66.21092970521542	66.30380952380952	64	127
66.30380952380952	66.41990929705216	56	127
66.41990929705216	66.51278911564626	64	127
66.51278911564626	66.75659863945579	45	127
66.51278911564626	66.6056462585034	57	127
66.6056462585034	66.75659863945579	69	127
66.75659863945579	66.87269841269841	57	127
66.75659863945579	66.98879818594105	43	127
66.87269841269841	66.98879818594105	69	127
66.98879818594105	67.07006802721088	57	127
66.98879818594105	67.15133786848072	41	127
67.07006802721088	67.15133786848072	69	127
67.15133786848072	67.27904761904762	40	127
67.15133786848072	67.22097505668934	57	127
67.22097505668934	67.27904761904762	69	127
67.27904761904762	67.39514739229026	57	127
67.27904761904762	67.52285714285715	38	127
67.39514739229026	67.52285714285715	69	127
67.52285714285715	67.76666666666667	37	127
67.52285714285715	67.65056689342404	57	127
67.65056689342404	67.76666666666667	69	127
67.76666666666667	67.85952380952381	38	127
67.76666666666667	67.84793650793651	57	127
67.84793650793651	67.85952380952381	69	127
67.85952380952381	67.99886621315193	41	127
67.85952380952381	67.91759637188208	57	127
67.91759637188208	68.04530612244898	69	127
68.04530612244898	68.18462585034014	57	127
68.04530612244898	68.18462585034014	52	127
68.04530612244898	68.18462585034014	40	127
68.18462585034014	68.26589569160998	60	127
68.26589569160998	68.35877551020408	40	127
68.26589569160998	68.35877551020408	64	127
68.26589569160998	68.35877551020408	52	127
68.35877551020408	68.45165532879818	69	127
68.45165532879818	68.57936507936508	52	127
68.45165532879818	68.57936507936508	56	127
68.45165532879818	68.57936507936508	40	127
68.57936507936508	68.66063492063492	59	127
68.66063492063492	68.70707482993197	40	127
68.66063492063492	68.70707482993197	52	127
68.66063492063492	68.70707482993197	64	127
68.70707482993197	68.7302947845805	68	127
68.7302947845805	68.92766439909298	45	127
68.7302947845805	68.92766439909298	33	127
68.81156462585034	68.92766439909298	57	127
68.92766439909298	69.06698412698412	60	127
69.06698412698412	69.18308390022676	64	127
69.18308390022676	69.29918367346939	69	127
69.29918367346939	69.41528344671202	72	127
69.41528344671202	69.5778231292517	44	127
69.41528344671202	69.4849433106576	76	127
69.41528344671202	69.5778231292517	56	127
69.4849433106576	69.5778231292517	72	127
69.5778231292517	69.64746031746031	69	127
69.5778231292517	69.74036281179139	45	127
69.5778231292517	69.74036281179139	57	127
69.64746031746031	69.74036281179139	81	127
69.74036281179139	69.91451247165533	55	127
69.74036281179139	69.91451247165533	43	127
69.74036281179139	69.82163265306123	69	127
69.82163265306123	69.91451247165533	81	127
69.91451247165533	70.13507936507936	53	127
69.91451247165533	70.13507936507936	41	127
69.91451247165533	70.0190022675737	69	127
70.0190022675737	70.13507936507936	81	127
70.13507936507936	70.29764172335601	52	127
70.13507936507936	70.29764172335601	40	127
70.13507936507936	70.21637188208616	69	127
70.21637188208616	70.29764172335601	81	127
70.29764172335601	70.48340136054422	50	127
70.29764172335601	70.48340136054422	38	127
70.29764172335601	70.39049886621315	69	127
70.39049886621315	70.48340136054422	81	127
70.48340136054422	70.69238095238096	49	127
70.48340136054422	70.69238095238096	37	127
70.48340136054422	70.59950113378684	69	127
70.59950113378684	70.69238095238096	81	127
70.69238095238096	70.93619047619048	38	127
70.69238095238096	70.93619047619048	50	127
70.69238095238096	70.80848072562358	69	127
70.80848072562358	70.93619047619048	81	127
70.93619047619048	71.09873015873016	53	127
70.93619047619048	71.09873015873016	41	127
70.93619047619048	71.04068027210884	69	127
71.04068027210884	71.13356009070294	81	127
71.13356009070294	71.24965986394558	69	127
71.13356009070294	71.24965986394558	52	127
71.13356009070294	71.24965986394558	40	127
71.24965986394558	71.3657596371882	72	127
71.3657596371882	71.47024943310657	52	127
71.3657596371882	71.47024943310657	40	127
71.3657596371882	71.47024943310657	76	127
71.47024943310657	71.57473922902494	81	127
71.57473922902494	71.65600907029479	40	127
71.57473922902494	71.65600907029479	52	127
71.57473922902494	71.65600907029479	68	127
71.65600907029479	71.78371882086168	80	127
71.78371882086168	71.841768707483	68	127
71.78371882086168	71.841768707483	40	127
71.78371882086168	71.841768707483	52	127
71.841768707483	71.92301587301587	80	127
71.92301587301587	72.16684807256236	69	127
71.92301587301587	72.16684807256236	45	127
71.92301587301587	72.16684807256236	33	127
71.92301587301587	72.16684807256236	81	127
72.57319727891156	72.73573696145125	45	127
72.57319727891156	72.73573696145125	52	127
72.57319727891156	72.73573696145125	57	127
72.57319727891156	72.73573696145125	61	127
72.88666666666667	73.03759637188209	61	127
72.88666666666667	73.03759637188209	57	127
72.88666666666667	73.03759637188209	45	127
72.88666666666667	73.03759637188209	52	127
73.60648526077098	73.7225850340136	54	127
73.60648526077098	73.7225850340136	50	127
73.60648526077098	73.7225850340136	59	127
73.60648526077098	73.7225850340136	57	127
73.60648526077098	73.7225850340136	38	127
73.83866213151927	73.89673469387755	50	127
73.83866213151927	73.89673469387755	54	127
73.83866213151927	73.89673469387755	57	127
73.83866213151927	73.89673469387755	59	127
73.83866213151927	73.89673469387755	38	127
74.34952380952382	74.46562358276644	59	127
74.34952380952382	74.46562358276644	56	127
74.34952380952382	74.46562358276644	62	127
74.34952380952382	74.46562358276644	40	127
74.34952380952382	74.46562358276644	52	127
74.54689342403628	74.62816326530613	52	127
74.54689342403628	74.62816326530613	56	127
74.54689342403628	74.62816326530613	59	127
74.54689342403628	74.62816326530613	62	127
74.54689342403628	74.62816326530613	40	127
75.10417233560091	75.22024943310657	52	127
75.10417233560091	75.22024943310657	61	127
75.10417233560091	75.22024943310657	57	127
75.10417233560091	75.22024943310657	45	127
75.30154195011337	75.38281179138322	52	127
75.30154195011337	75.38281179138322	45	127
75.30154195011337	75.38281179138322	61	127
75.30154195011337	75.38281179138322	57	127
75.89365079365079	75.99814058956916	54	127
75.89365079365079	75.99814058956916	57	127
75.89365079365079	75.99814058956916	61	127
75.89365079365079	75.99814058956916	42	127
76.10263038548753	76.14907029478458	61	127
76.10263038548753	76.14907029478458	57	127
76.10263038548753	76.14907029478458	42	127
76.10263038548753	76.14907029478458	54	127
76.59024943310658	76.71795918367347	56	127
76.59024943310658	76.71795918367347	59	127
76.59024943310658	76.71795918367347	61	127
76.59024943310658	76.71795918367347	41	127
76.59024943310658	76.71795918367347	53	127
76.82244897959184	76.95015873015873	56	127
76.82244897959184	76.95015873015873	59	127
76.82244897959184	76.95015873015873	61	127
76.82244897959184	76.95015873015873	41	127
76.82244897959184	76.95015873015873	53	127
77.32167800453514	77.41455782312926	54	127
77.32167800453514	77.41455782312926	58	127
77.32167800453514	77.41455782312926	61	127
77.32167800453514	77.41455782312926	40	127
77.32167800453514	77.41455782312926	52	127
77.51904761904763	77.66997732426304	52	127
77.51904761904763	77.66997732426304	58	127
77.51904761904763	77.66997732426304	54	127
77.51904761904763	77.66997732426304	40	127
77.51904761904763	77.66997732426304	61	127
78.20403628117914	79.55079365079365	54	127
78.20403628117914	79.55079365079365	59	127
78.20403628117914	79.55079365079365	66	127
78.20403628117914	79.55079365079365	38	127
78.20403628117914	79.55079365079365	50	127
80.02678004535147	80.17770975056689	47	127
80.02678004535147	80.17770975056689	62	127
80.02678004535147	80.17770975056689	59	127
80.02678004535147	80.17770975056689	54	127
80.25900226757369	80.31705215419501	59	127
80.25900226757369	80.31705215419501	54	127
80.25900226757369	80.31705215419501	47	127
80.25900226757369	80.31705215419501	62	127
80.82789115646258	80.89755102040816	59	127
80.82789115646258	80.89755102040816	52	127
80.82789115646258	80.89755102040816	40	127
80.82789115646258	80.89755102040816	61	127
80.82789115646258	80.89755102040816	55	127
81.02526077097505	81.14136054421769	55	127
81.02526077097505	81.14136054421769	59	127
81.02526077097505	81.14136054421769	61	127
81.02526077097505	81.14136054421769	40	127
81.02526077097505	81.14136054421769	52	127
81.57092970521542	81.71024943310658	42	127
81.57092970521542	81.71024943310658	58	127
81.57092970521542	81.71024943310658	61	127
81.57092970521542	81.71024943310658	64	127
81.57092970521542	81.71024943310658	54	127
81.8263492063492	81.93083900226758	58	127
81.8263492063492	81.93083900226758	54	127
81.8263492063492	81.93083900226758	42	127
81.8263492063492	81.93083900226758	64	127
81.8263492063492	81.93083900226758	61	127
82.3604081632653	82.47650793650794	59	127
82.3604081632653	82.47650793650794	62	127
82.3604081632653	82.47650793650794	47	127
82.3604081632653	82.47650793650794	54	127
82.56938775510204	82.62743764172336	62	127
82.56938775510204	82.62743764172336	59	127
82.56938775510204	82.62743764172336	47	127
82.56938775510204	82.62743764172336	54	127
83.13827664399093	83.2427664399093	62	127
83.13827664399093	83.2427664399093	59	127
83.13827664399093	83.2427664399093	43	127
83.13827664399093	83.2427664399093	55	127
83.3356462585034	83.45172335600907	43	127
83.3356462585034	83.45172335600907	62	127
83.3356462585034	83.45172335600907	59	127
83.3356462585034	83.45172335600907	55	127
83.88131519274377	83.9974149659864	54	127
83.88131519274377	83.9974149659864	62	127
83.88131519274377	83.9974149659864	57	127
83.88131519274377	83.9974149659864	42	127
84.13673469387756	84.25283446712018	62	127
84.13673469387756	84.25283446712018	57	127
84.13673469387756	84.25283446712018	54	127
84.13673469387756	84.25283446712018	42	127
84.96104308390022	87.87514739229024	40	127
84.96104308390022	87.87514739229024	57	127
84.96104308390022	87.87514739229024	61	127
84.96104308390022	87.87514739229024	67	127
84.96104308390022	87.87514739229024	52	127
88.08412698412698	88.21183673469388	62	127
88.08412698412698	88.21183673469388	65	127
88.08412698412698	88.21183673469388	50	127
88.08412698412698	88.21183673469388	57	127
88.31632653061224	88.39759637188209	50	127
88.31632653061224	88.39759637188209	62	127
88.31632653061224	88.39759637188209	65	127
88.31632653061224	88.39759637188209	57	127
88.85038548752834	88.96648526077098	62	127
88.85038548752834	88.96648526077098	58	127
88.85038548752834	88.96648526077098	65	127
88.85038548752834	88.96648526077098	46	127
89.10580498866213	89.17544217687075	58	127
89.10580498866213	89.17544217687075	65	127
89.10580498866213	89.17544217687075	46	127
89.10580498866213	89.17544217687075	62	127
90.1507029478458	93.71496598639456	56	127
90.1507029478458	93.71496598639456	44	127
90.1507029478458	93.71496598639456	64	127
90.1507029478458	93.71496598639456	62	127
90.1507029478458	93.71496598639456	59	127
94.85274376417233	95.13138321995464	64	127
95.13138321995464	95.3635827664399	57	127
95.13138321995464	95.3635827664399	72	127
95.3635827664399	95.56095238095239	71	127
95.3635827664399	95.56095238095239	59	127
95.56095238095239	95.74671201814058	69	127
95.56095238095239	95.74671201814058	60	127
95.74671201814058	95.90925170068027	62	127
95.74671201814058	95.90925170068027	68	127
95.90925170068027	96.16467120181406	69	127
95.90925170068027	96.16467120181406	60	127
96.16467120181406	96.36204081632653	71	127
96.16467120181406	96.36204081632653	59	127
96.36204081632653	96.57102040816326	57	127
96.36204081632653	96.57102040816326	72	127
96.57102040816326	96.73356009070295	60	127
96.57102040816326	96.73356009070295	69	127
96.76839002267573	96.95414965986394	59	127
96.76839002267573	96.95414965986394	74	127
96.95414965986394	97.10507936507936	57	127
96.95414965986394	97.10507936507936	72	127
97.10507936507936	97.32566893424037	56	127
97.10507936507936	97.32566893424037	71	127
97.32566893424037	97.52303854875284	70	127
97.32566893424037	97.52303854875284	54	127
97.52303854875284	97.7204081632653	56	127
97.52303854875284	97.7204081632653	71	127
97.7204081632653	97.9409977324263	72	127
97.7204081632653	97.9409977324263	57	127
97.9409977324263	98.13836734693878	59	127
97.9409977324263	98.13836734693878	74	127
98.13836734693878	98.30090702947845	56	127
98.13836734693878	98.30090702947845	71	127
98.33573696145125	98.50988662131519	72	127
98.33573696145125	98.50988662131519	57	127
98.50988662131519	98.6956462585034	55	127
98.50988662131519	98.6956462585034	73	127
98.6956462585034	98.89301587301587	53	127
98.6956462585034	98.89301587301587	74	127
98.89301587301587	99.04394557823129	76	127
98.89301587301587	99.09038548752835	52	127
99.09038548752835	99.27614512471655	50	127
99.09038548752835	99.65927437641723	77	127
99.27614512471655	99.53156462585034	49	127
99.53156462585034	99.7637641723356	50	127
99.65927437641723	99.7637641723356	76	127
99.7637641723356	99.86825396825397	52	127
99.7637641723356	99.81020408163265	74	127
99.81020408163265	99.89147392290249	72	127
99.92630385487529	99.96113378684807	71	127
99.92630385487529	99.96113378684807	53	127
99.96113378684807	100.06562358276643	72	127
100.06562358276643	100.13528344671202	71	127
100.06562358276643	100.13528344671202	53	127
100.13528344671202	100.22816326530612	72	127
100.22816326530612	100.2978231292517	51	127
100.22816326530612	100.2978231292517	69	127
100.2978231292517	100.39070294784581	71	127
100.39070294784581	100.44875283446711	51	127
100.39070294784581	100.44875283446711	69	127
100.44875283446711	100.54163265306123	71	127
100.57646258503401	100.78544217687075	52	127
100.57646258503401	100.65773242630385	68	127
100.65773242630385	100.78544217687075	69	127
100.78544217687075	100.92476190476191	71	127
100.92476190476191	100.99442176870748	68	127
101.01764172335601	101.13374149659865	64	127
101.37755102040816	101.59814058956916	45	127
101.37755102040816	101.47043083900226	57	127
101.47043083900226	101.59814058956916	64	127
101.59814058956916	101.66780045351474	59	127
101.66780045351474	101.73746031746032	64	127
101.73746031746032	101.86517006802721	60	127
101.86517006802721	101.96965986394558	64	127
101.96965986394558	102.0857596371882	62	127
102.0857596371882	102.15541950113379	64	127
102.15541950113379	102.36439909297052	45	127
102.15541950113379	102.27151927437642	60	127
102.27151927437642	102.36439909297052	64	127
102.36439909297052	102.45727891156463	59	127
102.45727891156463	102.53854875283447	64	127
102.53854875283447	102.6198185941043	57	127
102.6198185941043	102.73591836734694	64	127
102.73591836734694	102.85201814058956	60	127
102.85201814058956	102.97972789115646	64	127
102.97972789115646	103.0958276643991	59	127
102.97972789115646	103.14226757369615	40	127
103.0958276643991	103.14226757369615	64	127
103.14226757369615	103.25836734693877	57	127
103.25836734693877	103.39768707482993	64	127
103.39768707482993	103.5021768707483	56	127
103.5021768707483	103.61827664399092	64	127
103.61827664399092	103.69954648526077	54	127
103.69954648526077	103.76920634920634	64	127
103.76920634920634	103.98979591836735	40	127
103.76920634920634	103.89691609977324	56	127
103.89691609977324	103.98979591836735	64	127
103.98979591836735	104.09428571428572	57	127
104.09428571428572	104.19877551020409	64	127
104.19877551020409	104.28004535147392	59	127
104.28004535147392	104.39614512471655	64	127
104.39614512471655	104.50063492063492	56	127
104.50063492063492	104.54707482993197	64	127
104.54707482993197	104.74444444444444	45	127
104.54707482993197	104.6631746031746	57	127
104.6631746031746	104.74444444444444	69	127
104.74444444444444	104.86054421768708	57	127
104.74444444444444	104.94181405895692	43	127
104.86054421768708	104.94181405895692	69	127
104.94181405895692	105.09274376417234	41	127
104.94181405895692	105.0114739229025	57	127
105.0114739229025	105.09274376417234	69	127
105.09274376417234	105.33655328798186	40	127
105.09274376417234	105.20884353741496	57	127
105.20884353741496	105.33655328798186	69	127
105.33655328798186	105.52231292517007	38	127
105.33655328798186	105.4178231292517	57	127
105.4178231292517	105.52231292517007	69	127
105.52231292517007	105.6384126984127	57	127
105.52231292517007	105.74290249433106	37	127
105.6384126984127	105.74290249433106	69	127
105.74290249433106	105.94027210884354	38	127
105.74290249433106	105.87061224489796	57	127
105.87061224489796	105.94027210884354	69	127
105.94027210884354	106.11442176870749	41	127
105.94027210884354	106.0447619047619	57	127
106.0447619047619	106.16086167800454	69	127
106.16086167800454	106.2653514739229	52	127
106.16086167800454	106.2653514739229	57	127
106.16086167800454	106.2653514739229	40	127
106.2653514739229	106.3930612244898	60	127
106.3930612244898	106.49755102040817	52	127
106.3930612244898	106.49755102040817	64	127
106.3930612244898	106.49755102040817	40	127
106.49755102040817	106.56721088435374	69	127
106.56721088435374	106.66009070294784	56	127
106.56721088435374	106.66009070294784	52	127
106.56721088435374	106.66009070294784	40	127
106.66009070294784	106.7065306122449	59	127
106.7065306122449	106.77619047619048	52	127
106.7065306122449	106.77619047619048	64	127
106.7065306122449	106.77619047619048	40	127
106.77619047619048	106.85746031746032	68	127
106.85746031746032	107.08965986394558	33	127
106.85746031746032	107.08965986394558	45	127
106.97356009070295	107.08965986394558	57	127
107.08965986394558	107.19414965986394	60	127
107.19414965986394	107.26380952380953	64	127
107.26380952380953	107.37990929705215	69	127
107.37990929705215	107.49600907029479	72	127
107.49600907029479	107.56566893424036	76	127
107.49600907029479	107.63532879818594	56	127
107.49600907029479	107.63532879818594	44	127
107.56566893424036	107.63532879818594	72	127
107.63532879818594	107.70498866213151	69	127
107.63532879818594	107.82108843537415	45	127
107.63532879818594	107.82108843537415	57	127
107.70498866213151	107.82108843537415	81	127
107.82108843537415	107.91396825396825	69	127
107.82108843537415	108.00684807256236	43	127
107.82108843537415	108.00684807256236	55	127
107.91396825396825	108.00684807256236	81	127
108.00684807256236	108.16938775510204	53	127
108.00684807256236	108.16938775510204	41	127
108.00684807256236	108.07650793650794	69	127
108.07650793650794	108.16938775510204	81	127
108.16938775510204	108.35514739229025	40	127
108.16938775510204	108.35514739229025	52	127
108.16938775510204	108.23904761904762	69	127
108.23904761904762	108.35514739229025	81	127
108.35514739229025	108.48285714285714	69	127
108.35514739229025	108.59895691609978	38	127
108.35514739229025	108.59895691609978	50	127
108.48285714285714	108.59895691609978	81	127
108.59895691609978	108.8079365079365	37	127
108.59895691609978	108.8079365079365	49	127
108.59895691609978	108.70344671201813	69	127
108.70344671201813	108.8079365079365	81	127
108.8079365079365	108.90081632653062	69	127
108.8079365079365	109.01691609977324	38	127
108.8079365079365	109.01691609977324	50	127
108.90081632653062	109.01691609977324	81	127
109.01691609977324	109.1562358276644	41	127
109.01691609977324	109.1562358276644	53	127
109.01691609977324	109.09818594104308	69	127
109.09818594104308	109.20267573696145	81	127
109.20267573696145	109.29555555555555	69	127
109.20267573696145	109.29555555555555	52	127
109.20267573696145	109.29555555555555	40	127
109.29555555555555	109.41165532879819	72	127
109.41165532879819	109.49292517006803	76	127
109.41165532879819	109.49292517006803	52	127
109.41165532879819	109.49292517006803	40	127
109.49292517006803	109.58580498866213	81	127
109.58580498866213	109.6902947845805	40	127
109.58580498866213	109.6902947845805	52	127
109.58580498866213	109.6902947845805	68	127
109.6902947845805	109.7831746031746	80	127
109.7831746031746	109.93410430839002	40	127
109.7831746031746	109.93410430839002	68	127
109.7831746031746	109.93410430839002	52	127
109.93410430839002	110.05020408163266	80	127
110.05020408163266	110.3520634920635	33	127
110.05020408163266	110.3520634920635	69	127
110.05020408163266	110.3520634920635	81	127
110.05020408163266	110.3520634920635	45	127
111.09510204081633	112.08195011337868	69	127
111.09510204081633	112.08195011337868	72	127
111.09510204081633	112.08195011337868	65	127
112.08195011337868	112.9875283446712	72	127
112.08195011337868	112.9875283446712	70	127
112.08195011337868	112.9875283446712	67	127
112.9875283446712	113.85827664399093	72	127
112.9875283446712	113.85827664399093	67	127
112.9875283446712	113.85827664399093	64	127
113.85827664399093	114.67097505668934	65	127
113.85827664399093	114.67097505668934	69	127
113.85827664399093	114.67097505668934	72	127
114.75224489795919	115.58816326530612	62	127
114.75224489795919	115.58816326530612	58	127
114.75224489795919	115.58816326530612	70	127
115.58816326530612	116.5053514739229	63	127
115.58816326530612	116.5053514739229	69	127
115.58816326530612	116.5053514739229	60	127
116.5053514739229	116.99297052154195	62	127
116.5053514739229	116.99297052154195	58	127
116.5053514739229	116.99297052154195	70	127
116.99297052154195	117.26	72	127
116.99297052154195	117.26	57	127
116.99297052154195	117.26	60	127
117.26	117.53863945578232	55	127
117.26	117.49219954648527	74	127
117.26	117.53863945578232	58	127
117.53863945578232	118.07269841269841	67	127
117.53863945578232	118.07269841269841	65	127
117.53863945578232	118.07269841269841	60	127
118.07269841269841	118.3281179138322	48	127
118.07269841269841	118.3281179138322	64	127
118.38616780045352	118.71124716553288	72	127
118.71124716553288	119.55877551020409	69	127
118.71124716553288	119.55877551020409	77	127
118.71124716553288	119.55877551020409	65	127
119.55877551020409	120.47596371882086	70	127
119.55877551020409	120.47596371882086	76	127
119.55877551020409	120.47596371882086	67	127
120.47596371882086	121.36993197278912	82	127
120.47596371882086	121.36993197278912	67	127
120.47596371882086	121.36993197278912	64	127
121.36993197278912	122.0665306122449	81	127
121.36993197278912	122.0665306122449	65	127
121.36993197278912	122.0665306122449	69	127
122.17102040816326	122.99532879818594	62	127
122.17102040816326	122.99532879818594	58	127
122.17102040816326	122.99532879818594	79	127
122.99532879818594	123.43650793650794	81	127
122.99532879818594	123.43650793650794	57	127
122.99532879818594	123.43650793650794	60	127
123.43650793650794	123.90090702947846	82	127
123.43650793650794	123.90090702947846	55	127
123.43650793650794	123.90090702947846	58	127
123.90090702947846	124.35369614512472	60	127
123.90090702947846	124.35369614512472	81	127
124.35369614512472	124.41174603174603	81	127
124.35369614512472	124.84131519274376	48	127
124.41174603174603	124.48140589569161	79	127
124.48140589569161	124.56267573696145	81	127
124.56267573696145	124.65555555555555	79	127
124.65555555555555	124.76004535147392	81	127
124.76004535147392	124.81809523809524	79	127
124.84131519274376	125.11995464852608	53	127
124.84131519274376	125.11995464852608	77	127
125.79333333333334	126.69891156462585	69	127
125.79333333333334	126.69891156462585	72	127
125.79333333333334	126.69891156462585	65	127
126.69891156462585	127.58126984126984	73	127
126.69891156462585	127.58126984126984	63	127
126.69891156462585	127.58126984126984	67	127
127.58126984126984	128.49843537414966	62	127
127.58126984126984	128.382358276644	74	127
127.58126984126984	128.49843537414966	66	127
128.49843537414966	129.31115646258505	74	127
128.49843537414966	129.31115646258505	67	127
128.49843537414966	129.31115646258505	70	127
129.31115646258505	130.21673469387756	72	127
129.31115646258505	130.3328344671202	64	127
129.31115646258505	130.3328344671202	70	127
130.3328344671202	131.27324263038548	65	127
130.3328344671202	131.27324263038548	72	127
130.3328344671202	131.27324263038548	69	127
131.27324263038548	131.76086167800455	62	127
131.27324263038548	131.76086167800455	65	127
131.27324263038548	131.76086167800455	74	127
131.76086167800455	132.27170068027212	79	127
131.76086167800455	132.27170068027212	58	127
131.76086167800455	132.27170068027212	62	127
132.27170068027212	132.34136054421768	64	127
132.27170068027212	132.34136054421768	60	127
132.27170068027212	132.34136054421768	76	127
133.03795918367348	133.31659863945578	72	127
133.31659863945578	134.23378684807255	84	127
133.31659863945578	134.23378684807255	69	127
133.31659863945578	134.23378684807255	65	127
134.23378684807255	135.11614512471655	81	127
134.23378684807255	135.11614512471655	63	127
134.23378684807255	135.11614512471655	67	127
135.11614512471655	135.92884353741496	62	127
135.11614512471655	135.92884353741496	86	127
135.11614512471655	135.92884353741496	66	127
135.92884353741496	136.83439909297053	70	127
135.92884353741496	136.83439909297053	67	127
135.92884353741496	136.83439909297053	82	127
136.83439909297053	137.26399092970522	64	127
136.83439909297053	137.67034013605442	79	127
136.83439909297053	137.26399092970522	67	127
137.26399092970522	137.67034013605442	60	127
137.26399092970522	137.67034013605442	64	127
137.67034013605442	138.0882993197279	69	127
137.67034013605442	138.0882993197279	81	127
137.67034013605442	138.0882993197279	65	127
138.0882993197279	138.54108843537415	58	127
138.0882993197279	138.54108843537415	82	127
138.54108843537415	138.92421768707484	81	127
138.54108843537415	138.92421768707484	60	127
138.92421768707484	139.01709750566894	81	127
138.92421768707484	139.41183673469388	48	127
139.01709750566894	139.07514739229026	79	127
139.07514739229026	139.1564172335601	81	127
139.1564172335601	139.2492970521542	79	127
139.2492970521542	139.3421768707483	77	127
139.3421768707483	139.3885941043084	79	127
139.41183673469388	139.60920634920635	53	127
139.41183673469388	139.49308390022676	77	127
139.57437641723357	139.77174603174603	65	127
139.77174603174603	139.94589569161	64	127
139.94589569161	140.08521541950114	62	127
140.08521541950114	140.27097505668934	60	127
140.27097505668934	140.39868480725625	58	127
140.4451247165533	141.37392290249434	48	127
140.4451247165533	140.60766439909298	57	127
140.4451247165533	141.37392290249434	41	127
140.60766439909298	140.7701814058957	60	127
140.7701814058957	140.93274376417233	65	127
140.93274376417233	141.08367346938775	69	127
141.08367346938775	141.2578231292517	67	127
141.2578231292517	141.33909297052153	65	127
141.37392290249434	142.29111111111112	43	127
141.37392290249434	142.29111111111112	48	127
141.37392290249434	141.52485260770976	70	127
141.52485260770976	141.68736961451248	67	127
141.68736961451248	141.83832199546487	64	127
141.83832199546487	141.98925170068028	58	127
141.98925170068028	142.1401814058957	55	127
142.1401814058957	142.2562811791383	53	127
142.29111111111112	143.16185941043085	48	127
142.29111111111112	142.46526077097505	52	127
142.29111111111112	143.16185941043085	36	127
142.46526077097505	142.5581179138322	55	127
142.5581179138322	142.70904761904762	59	127
142.70904761904762	142.86	60	127
142.86	142.99931972789116	62	127
142.99931972789116	143.12702947845804	64	127
143.16185941043085	144.07904761904763	50	127
143.16185941043085	144.07904761904763	38	127
143.16185941043085	143.33600907029478	65	127
143.33600907029478	143.51015873015874	67	127
143.51015873015874	143.67269841269842	69	127
143.67269841269842	143.78879818594103	70	127
143.78879818594103	143.95133786848072	72	127
143.95133786848072	144.0558276643991	73	127
144.07904761904763	144.97301587301587	46	127
144.07904761904763	144.1951247165533	62	127
144.07904761904763	144.97301587301587	34	127
144.1951247165533	144.3460544217687	74	127
144.3460544217687	144.50861678004534	73	127
144.50861678004534	144.65954648526076	74	127
144.65954648526076	144.82208616780045	73	127
144.82208616780045	144.9381859410431	74	127
144.97301587301587	145.85537414965987	45	127
144.97301587301587	145.85537414965987	33	127
144.97301587301587	145.11231292517007	63	127
145.11231292517007	145.24004535147392	75	127
145.24004535147392	145.39097505668934	74	127
145.39097505668934	145.5302947845805	75	127
145.5302947845805	145.6580045351474	74	127
145.6580045351474	145.8205442176871	75	127
145.85537414965987	146.33138321995466	46	127
145.85537414965987	145.99469387755101	62	127
145.85537414965987	146.33138321995466	34	127
145.99469387755101	146.16884353741497	74	127
146.16884353741497	146.33138321995466	72	127
146.33138321995466	146.85380952380953	43	127
146.33138321995466	146.85380952380953	31	127
146.33138321995466	146.5055328798186	70	127
146.5055328798186	146.66807256235828	69	127
146.66807256235828	146.8190022675737	67	127
146.85380952380953	147.01637188208616	36	127
146.85380952380953	147.37628117913832	65	127
147.01637188208616	147.21374149659863	48	127
147.21374149659863	147.37628117913832	47	127
147.37628117913832	147.56204081632654	48	127
147.37628117913832	147.59687074829932	64	127
147.56204081632654	147.74780045351474	46	127
147.65492063492064	147.9451700680272	72	127
147.74780045351474	147.91034013605443	43	127
147.9451700680272	148.1077097505669	41	127
147.9451700680272	148.88557823129253	77	127
147.9451700680272	148.88557823129253	65	127
148.1077097505669	148.22380952380954	45	127
148.22380952380954	148.39795918367346	48	127
148.39795918367346	148.54888888888888	53	127
148.54888888888888	148.72303854875284	55	127
148.72303854875284	148.85074829931972	57	127
148.88557823129253	149.8143537414966	64	127
148.88557823129253	149.04809523809524	55	127
148.88557823129253	149.8143537414966	76	127
149.04809523809524	149.18743764172336	52	127
149.18743764172336	149.33836734693878	48	127
149.33836734693878	149.50090702947847	43	127
149.50090702947847	149.6518367346939	40	127
149.6518367346939	149.77954648526077	38	127
149.8143537414966	150.73156462585035	82	127
149.8143537414966	149.965306122449	36	127
149.8143537414966	150.73156462585035	70	127
149.965306122449	150.1162358276644	40	127
150.1162358276644	150.25555555555556	43	127
150.25555555555556	150.40648526077098	48	127
150.40648526077098	150.5574149659864	50	127
150.5574149659864	150.69673469387754	52	127
150.73156462585035	151.52104308390022	81	127
150.73156462585035	151.52104308390022	69	127
150.73156462585035	150.8708843537415	53	127
150.8708843537415	150.99859410430838	48	127
150.99859410430838	151.13791383219956	45	127
151.13791383219956	151.3120634920635	48	127
151.3120634920635	151.47460317460317	45	127
151.47460317460317	151.5907029478458	41	127
151.61392290249432	151.776462585034	46	127
151.61392290249432	152.62399092970523	79	127
151.61392290249432	152.62399092970523	67	127
151.776462585034	151.9390022675737	50	127
151.9390022675737	152.1247619047619	55	127
152.1247619047619	152.31052154195012	46	127
152.31052154195012	152.46145124716554	50	127
152.46145124716554	152.58916099773242	55	127
152.62399092970523	152.7865306122449	45	127
152.62399092970523	153.01873015873016	81	127
152.62399092970523	153.01873015873016	69	127
152.7865306122449	152.87941043083902	48	127
152.87941043083902	153.01873015873016	50	127
153.01873015873016	153.45990929705215	70	127
153.01873015873016	153.18126984126985	43	127
153.01873015873016	153.45990929705215	82	127
153.18126984126985	153.30897959183673	46	127
153.30897959183673	153.42507936507937	50	127
153.45990929705215	153.93591836734694	69	127
153.45990929705215	153.6340589569161	36	127
153.45990929705215	153.93591836734694	81	127
153.6340589569161	153.80820861678004	48	127
153.80820861678004	153.93591836734694	47	127
153.93591836734694	154.08684807256236	48	127
153.93591836734694	154.00555555555556	81	127
154.00555555555556	154.08684807256236	79	127
154.08684807256236	154.26097505668935	50	127
154.08684807256236	154.17972789115646	81	127
154.17972789115646	154.26097505668935	79	127
154.26097505668935	154.3190476190476	77	127
154.26097505668935	154.37709750566893	52	127
154.3190476190476	154.41192743764174	79	127
154.41192743764174	154.65573696145125	53	127
154.41192743764174	154.6092970521542	77	127
155.41038548752834	155.57292517006803	57	127
155.41038548752834	156.37401360544217	41	127
155.41038548752834	156.37401360544217	53	127
155.57292517006803	155.73546485260772	60	127
155.73546485260772	155.90961451247165	65	127
155.90961451247165	156.07215419501134	69	127
156.07215419501134	156.22308390022675	70	127
156.22308390022675	156.3391836734694	69	127
156.37401360544217	157.2447619047619	51	127
156.37401360544217	156.50172335600908	67	127
156.37401360544217	157.2447619047619	39	127
156.50172335600908	156.6642403628118	66	127
156.6642403628118	156.8151927437642	67	127
156.8151927437642	156.9661224489796	70	127
156.9661224489796	157.11705215419502	69	127
157.11705215419502	157.23315192743763	67	127
157.2447619047619	158.17356009070295	50	127
157.2447619047619	158.17356009070295	38	127
157.2447619047619	157.3840589569161	66	127
157.3840589569161	157.53498866213152	67	127
157.53498866213152	157.69755102040816	69	127
157.69755102040816	157.86009070294784	62	127
157.86009070294784	158.02263038548753	64	127
158.02263038548753	158.13873015873017	66	127
158.17356009070295	158.67278911564625	55	127
158.17356009070295	158.3477097505669	67	127
158.17356009070295	158.67278911564625	43	127
158.3477097505669	158.49863945578232	66	127
158.49863945578232	158.67278911564625	67	127
158.67278911564625	159.06750566893425	41	127
158.67278911564625	159.06750566893425	53	127
158.67278911564625	158.81208616780046	69	127
158.81208616780046	158.9398185941043	70	127
158.9398185941043	159.0326984126984	71	127
159.06750566893425	159.53190476190477	52	127
159.06750566893425	159.53190476190477	40	127
159.06750566893425	159.20684807256237	72	127
159.20684807256237	159.36938775510205	71	127
159.36938775510205	159.53190476190477	74	127
159.53190476190477	159.984716553288	36	127
159.53190476190477	159.6944671201814	72	127
159.53190476190477	159.984716553288	48	127
159.6944671201814	159.8337641723356	64	127
159.8337641723356	159.9498866213152	70	127
159.984716553288	160.40267573696144	53	127
159.984716553288	160.40267573696144	41	127
159.984716553288	160.12403628117914	69	127
160.12403628117914	160.25174603174602	70	127
160.25174603174602	160.40267573696144	67	127
160.40267573696144	161.2966439909297	50	127
160.40267573696144	160.53038548752835	65	127
160.40267573696144	161.2966439909297	38	127
160.53038548752835	160.68131519274377	67	127
160.68131519274377	160.8090022675737	64	127
160.83224489795919	160.92512471655328	62	127
160.92512471655328	161.11086167800454	65	127
161.11086167800454	161.2966439909297	69	127
161.2966439909297	161.4591836734694	62	127
161.2966439909297	161.69138321995464	34	127
161.2966439909297	161.69138321995464	46	127
161.4591836734694	161.61011337868482	67	127
161.61011337868482	161.7378231292517	70	127
161.7726530612245	161.90036281179138	36	127
161.7726530612245	161.90036281179138	48	127
161.7726530612245	161.85392290249433	67	127
161.94680272108843	162.10934240362812	76	127
162.10934240362812	162.24866213151927	77	127
162.24866213151927	162.41120181405896	79	127
162.41120181405896	162.5505215419501	81	127
162.5505215419501	162.70142857142858	82	127
162.73628117913833	162.92204081632653	41	127
162.73628117913833	163.69990929705216	72	127
162.73628117913833	163.69990929705216	84	127
162.92204081632653	163.10777777777778	45	127
163.10777777777778	163.2471201814059	48	127
163.2471201814059	163.4096598639456	53	127
163.4096598639456	163.54897959183674	55	127
163.54897959183674	163.66507936507938	53	127
163.69990929705216	163.88566893424036	51	127
163.69990929705216	164.68675736961453	81	127
163.69990929705216	164.68675736961453	69	127
163.88566893424036	164.03659863945578	50	127
164.03659863945578	164.19913832199546	51	127
164.19913832199546	164.36167800453515	55	127
164.36167800453515	164.52421768707484	53	127
164.52421768707484	164.6402947845805	51	127
164.68675736961453	165.58072562358277	86	127
164.68675736961453	165.58072562358277	74	127
164.68675736961453	164.84929705215418	50	127
164.84929705215418	165.00020408163266	54	127
165.00020408163266	165.10471655328797	52	127
165.10471655328797	165.25562358276645	50	127
165.25562358276645	165.42979591836735	52	127
165.42979591836735	165.54589569160999	54	127
165.58072562358277	166.428231292517	82	127
165.58072562358277	165.75487528344672	55	127
165.58072562358277	166.428231292517	70	127
165.75487528344672	165.89419501133787	58	127
165.89419501133787	166.0451247165533	57	127
166.0451247165533	166.16122448979593	55	127
166.16122448979593	166.33537414965986	57	127
166.33537414965986	166.48630385487527	53	127
166.5095238095238	166.66045351473923	52	127
166.5095238095238	167.47315192743764	67	127
166.5095238095238	167.47315192743764	79	127
166.66045351473923	166.81138321995465	50	127
166.81138321995465	166.96231292517007	48	127
166.96231292517007	167.13646258503402	46	127
167.13646258503402	167.31061224489795	45	127
167.31061224489795	167.43832199546486	43	127
167.47315192743764	167.91430839002268	69	127
167.47315192743764	167.6124716553288	41	127
167.47315192743764	167.91430839002268	81	127
167.6124716553288	167.75179138321997	40	127
167.75179138321997	167.91430839002268	39	127
167.91430839002268	168.3206575963719	82	127
167.91430839002268	168.3206575963719	70	127
167.91430839002268	168.08848072562358	38	127
168.08848072562358	168.25102040816327	36	127
168.25102040816327	168.37873015873015	34	127
168.42514739229026	168.901179138322	81	127
168.42514739229026	168.901179138322	69	127
168.42514739229026	168.59931972789116	36	127
168.59931972789116	168.76185941043084	48	127
168.76185941043084	168.901179138322	47	127
168.901179138322	169.0288888888889	48	127
168.901179138322	168.97083900226758	81	127
168.97083900226758	169.0288888888889	79	127
169.0288888888889	169.121768707483	81	127
169.0288888888889	169.19140589569162	50	127
169.121768707483	169.19140589569162	79	127
169.19140589569162	169.3075283446712	52	127
169.19140589569162	169.27269841269842	77	127
169.27269841269842	169.33074829931974	79	127
169.35396825396825	169.51650793650794	53	127
169.35396825396825	169.6209977324263	65	127
169.35396825396825	169.6209977324263	77	127
169.51650793650794	169.7022448979592	50	127
169.7022448979592	169.8764172335601	48	127
169.8764172335601	170.0273469387755	46	127
170.0273469387755	170.21308390022676	45	127
170.21308390022676	170.34081632653061	43	127
170.38725623582766	171.2347619047619	41	127
170.54979591836735	170.70072562358277	57	127
170.70072562358277	170.79360544217687	56	127
170.79360544217687	170.92131519274378	57	127
170.92131519274378	171.0838321995465	58	127
171.0838321995465	171.19995464852607	59	127
171.2347619047619	172.08231292517007	40	127
171.2347619047619	171.67596371882087	62	127
171.67596371882087	171.82689342403629	60	127
172.08231292517007	172.92984126984126	46	127
172.92984126984126	173.7077097505669	45	127
173.81219954648526	174.67133786848072	33	127
173.81219954648526	174.67133786848072	45	127
173.9515192743764	174.0908390022676	60	127
174.0908390022676	174.21854875283447	59	127
174.21854875283447	174.39269841269842	60	127
174.39269841269842	174.53201814058957	62	127
174.53201814058957	174.6597052154195	63	127
174.67133786848072	175.1473469387755	65	127
174.67133786848072	175.53045351473924	32	127
174.67133786848072	175.53045351473924	44	127
175.1473469387755	175.26344671201815	64	127
175.53045351473924	176.38961451247167	50	127
175.53045351473924	176.38961451247167	38	127
176.38961451247167	177.3532426303855	48	127
176.38961451247167	177.3532426303855	36	127
177.4461224489796	178.18913832199547	53	127
177.4461224489796	178.18913832199547	41	127
177.597052154195	177.7595918367347	72	127
177.7595918367347	177.9453514739229	81	127
177.96857142857144	178.0730612244898	81	127
178.18913832199547	178.920589569161	40	127
178.18913832199547	178.920589569161	52	127
178.39814058956915	178.58390022675738	72	127
178.58390022675738	178.7464172335601	81	127
178.80448979591836	178.88575963718822	81	127
179.0134693877551	180.8014058956916	39	127
179.0134693877551	180.8014058956916	51	127
179.21081632653062	179.3965986394558	72	127
179.3965986394558	179.582358276644	81	127
179.60557823129253	180.08156462585035	81	127
180.08156462585035	180.53437641723357	81	127
180.53437641723357	180.66208616780045	81	127
180.8014058956916	182.5893424036281	52	127
180.8014058956916	182.5893424036281	40	127
180.8014058956916	181.66052154195012	81	127
181.66052154195012	182.0320634920635	80	127
182.12492063492064	182.1829931972789	76	127
182.1829931972789	182.24104308390022	75	127
182.24104308390022	182.32231292517008	76	127
182.32231292517008	182.4035827664399	75	127
182.4035827664399	182.48485260770974	73	127
182.48485260770974	182.5661224489796	75	127
182.5893424036281	183.57619047619048	78	127
183.57619047619048	183.75034013605443	76	127
184.05219954648527	184.14507936507937	80	127
184.14507936507937	184.19151927437642	78	127
184.19151927437642	184.24956916099774	80	127
184.24956916099774	184.31920634920635	78	127
184.31920634920635	184.41210884353742	76	127
184.41210884353742	184.47015873015874	78	127
184.48176870748298	185.38734693877552	81	127
185.38734693877552	185.5963038548753	80	127
185.88657596371883	185.97945578231293	83	127
185.97945578231293	186.0607029478458	81	127
186.0607029478458	186.15360544217688	83	127
186.15360544217688	186.20004535147393	81	127
186.20004535147393	186.24648526077098	80	127
186.24648526077098	186.3161224489796	81	127
186.33936507936508	187.23331065759638	84	127
187.23331065759638	187.33780045351475	83	127
187.67451247165533	187.7790022675737	85	127
188.11569160997732	188.24340136054423	86	127
189.36956916099774	189.5088888888889	87	127
190.21709750566893	190.35641723356008	89	127
191.18072562358276	194.91913832199546	83	127
195.41836734693877	195.67378684807255	64	127
195.67378684807255	195.90598639455783	72	127
195.67378684807255	195.90598639455783	57	127
195.90598639455783	196.11496598639457	59	127
195.90598639455783	196.11496598639457	71	127
196.11496598639457	196.35877551020408	69	127
196.11496598639457	196.35877551020408	60	127
196.35877551020408	196.54453514739228	68	127
196.35877551020408	196.54453514739228	62	127
196.54453514739228	196.75351473922902	69	127
196.54453514739228	196.75351473922902	60	127
196.75351473922902	196.9508843537415	71	127
196.75351473922902	196.9508843537415	59	127
196.9508843537415	197.18308390022676	57	127
196.9508843537415	197.18308390022676	72	127
197.18308390022676	197.3224036281179	60	127
197.18308390022676	197.3224036281179	69	127
197.34562358276645	197.5546031746032	59	127
197.34562358276645	197.5546031746032	74	127
197.5546031746032	197.75197278911565	57	127
197.5546031746032	197.75197278911565	72	127
197.75197278911565	197.94934240362812	71	127
197.75197278911565	197.94934240362812	56	127
197.94934240362812	198.13510204081632	54	127
197.94934240362812	198.13510204081632	70	127
198.13510204081632	198.3673015873016	56	127
198.13510204081632	198.3673015873016	71	127
198.3673015873016	198.59950113378684	72	127
198.3673015873016	198.59950113378684	57	127
198.59950113378684	198.7968707482993	74	127
198.59950113378684	198.7968707482993	59	127
198.7968707482993	198.8897505668934	56	127
198.7968707482993	198.8897505668934	71	127
198.91297052154195	199.1451700680272	72	127
198.91297052154195	199.1451700680272	57	127
199.1451700680272	199.33092970521542	73	127
199.1451700680272	199.33092970521542	55	127
199.33092970521542	199.53990929705216	74	127
199.33092970521542	199.53990929705216	53	127
199.53990929705216	199.76049886621314	52	127
199.53990929705216	199.70244897959185	76	127
199.76049886621314	200.23650793650793	77	127
199.76049886621314	199.9346485260771	50	127
199.9346485260771	200.1552380952381	49	127
200.1552380952381	200.35260770975057	50	127
200.23650793650793	200.35260770975057	76	127
200.35260770975057	200.4338775510204	52	127
200.35260770975057	200.4338775510204	74	127
200.4338775510204	200.44548752834467	72	127
200.4687074829932	200.57319727891158	53	127
200.4687074829932	200.57319727891158	71	127
200.57319727891158	200.66607709750568	72	127
200.66607709750568	200.724126984127	53	127
200.66607709750568	200.724126984127	71	127
200.724126984127	200.8170068027211	72	127
200.8170068027211	200.92149659863946	51	127
200.8170068027211	200.92149659863946	69	127
200.92149659863946	201.01437641723356	71	127
201.01437641723356	201.14208616780044	51	127
201.01437641723356	201.14208616780044	69	127
201.14208616780044	201.16530612244898	71	127
201.17691609977325	201.29301587301586	68	127
201.17691609977325	201.39750566893423	52	127
201.29301587301586	201.39750566893423	69	127
201.39750566893423	201.5368253968254	71	127
201.5368253968254	201.61809523809524	68	127
201.61809523809524	201.68775510204082	64	127
201.96639455782312	202.15215419501135	45	127
201.96639455782312	202.0360544217687	57	127
202.0360544217687	202.15215419501135	64	127
202.15215419501135	202.26825396825396	59	127
202.26825396825396	202.3611337868481	64	127
202.3611337868481	202.4772335600907	60	127
202.4772335600907	202.59333333333333	64	127
202.59333333333333	202.6978231292517	62	127
202.6978231292517	202.80231292517007	64	127
202.80231292517007	202.9184126984127	60	127
202.80231292517007	203.02290249433108	45	127
202.9184126984127	203.02290249433108	64	127
203.02290249433108	203.12739229024945	59	127
203.12739229024945	203.20866213151928	64	127
203.20866213151928	203.33637188208615	57	127
203.33637188208615	203.46408163265306	64	127
203.46408163265306	203.5105215419501	60	127
203.5105215419501	203.62662131519275	64	127
203.62662131519275	203.73111111111112	59	127
203.62662131519275	203.81238095238095	40	127
203.73111111111112	203.81238095238095	64	127
203.81238095238095	203.90526077097505	57	127
203.90526077097505	204.02136054421769	64	127
204.02136054421769	204.12585034013605	56	127
204.12585034013605	204.21873015873015	64	127
204.21873015873015	204.34643990929706	54	127
204.34643990929706	204.46253968253967	64	127
204.46253968253967	204.6715192743764	40	127
204.46253968253967	204.56702947845804	56	127
204.56702947845804	204.6715192743764	64	127
204.6715192743764	204.77600907029478	57	127
204.77600907029478	204.86888888888888	64	127
204.86888888888888	204.97337868480724	59	127
204.97337868480724	205.0546485260771	64	127
205.0546485260771	205.15913832199547	56	127
205.15913832199547	205.2404081632653	64	127
205.2404081632653	205.3332879818594	57	127
205.2404081632653	205.4609977324263	45	127
205.3332879818594	205.4609977324263	69	127
205.4609977324263	205.5306575963719	57	127
205.4609977324263	205.623537414966	43	127
205.5306575963719	205.623537414966	69	127
205.623537414966	205.70480725623582	57	127
205.623537414966	205.7744671201814	41	127
205.70480725623582	205.7744671201814	69	127
205.7744671201814	205.89056689342402	57	127
205.7744671201814	205.98344671201815	40	127
205.89056689342402	205.98344671201815	69	127
205.98344671201815	206.07632653061225	57	127
205.98344671201815	206.15759637188208	38	127
206.07632653061225	206.15759637188208	69	127
206.15759637188208	206.285306122449	57	127
206.15759637188208	206.37818594104309	37	127
206.285306122449	206.37818594104309	69	127
206.37818594104309	206.48267573696145	57	127
206.37818594104309	206.58716553287982	38	127
206.48267573696145	206.58716553287982	69	127
206.58716553287982	206.66843537414965	57	127
206.58716553287982	206.7497052154195	41	127
206.66843537414965	206.79614512471656	69	127
206.79614512471656	206.8774149659864	57	127
206.79614512471656	206.8774149659864	52	127
206.79614512471656	206.8774149659864	40	127
206.8774149659864	207.0051247165533	60	127
207.0051247165533	207.13283446712018	64	127
207.0051247165533	207.13283446712018	40	127
207.0051247165533	207.13283446712018	52	127
207.13283446712018	207.1908843537415	69	127
207.1908843537415	207.26054421768708	52	127
207.1908843537415	207.26054421768708	56	127
207.1908843537415	207.26054421768708	40	127
207.26054421768708	207.3418140589569	59	127
207.3418140589569	207.434693877551	40	127
207.3418140589569	207.434693877551	52	127
207.3418140589569	207.434693877551	64	127
207.434693877551	207.51596371882087	68	127
207.51596371882087	207.7249433106576	45	127
207.51596371882087	207.7249433106576	33	127
207.62045351473924	207.7249433106576	57	127
207.7249433106576	207.82943310657598	60	127
207.82943310657598	207.93392290249434	64	127
207.93392290249434	208.05002267573695	69	127
208.05002267573695	208.18934240362813	72	127
208.18934240362813	208.3518820861678	56	127
208.18934240362813	208.3518820861678	44	127
208.18934240362813	208.2241723356009	76	127
208.2241723356009	208.3518820861678	72	127
208.3518820861678	208.53764172335602	57	127
208.3518820861678	208.53764172335602	45	127
208.3518820861678	208.46798185941043	69	127
208.46798185941043	208.53764172335602	81	127
208.53764172335602	208.73501133786849	55	127
208.53764172335602	208.61891156462585	69	127
208.53764172335602	208.73501133786849	43	127
208.61891156462585	208.73501133786849	81	127
208.73501133786849	208.83950113378685	69	127
208.73501133786849	208.9556009070295	41	127
208.73501133786849	208.9556009070295	53	127
208.83950113378685	208.9556009070295	81	127
208.9556009070295	209.06009070294783	69	127
208.9556009070295	209.1645804988662	52	127
208.9556009070295	209.1645804988662	40	127
209.06009070294783	209.1645804988662	81	127
209.1645804988662	209.35034013605443	50	127
209.1645804988662	209.35034013605443	38	127
209.1645804988662	209.24585034013606	69	127
209.24585034013606	209.35034013605443	81	127
209.35034013605443	209.44321995464853	69	127
209.35034013605443	209.5477097505669	37	127
209.35034013605443	209.5477097505669	49	127
209.44321995464853	209.5477097505669	81	127
209.5477097505669	209.7682993197279	38	127
209.5477097505669	209.65219954648526	69	127
209.5477097505669	209.7682993197279	50	127
209.65219954648526	209.7682993197279	81	127
209.7682993197279	209.9540589569161	53	127
209.7682993197279	209.9540589569161	41	127
209.7682993197279	209.87278911564627	69	127
209.87278911564627	209.96566893424037	81	127
209.96566893424037	210.07015873015874	40	127
209.96566893424037	210.07015873015874	52	127
209.96566893424037	210.07015873015874	69	127
210.07015873015874	210.12820861678006	72	127
210.12820861678006	210.2094784580499	76	127
210.12820861678006	210.19786848072562	52	127
210.12820861678006	210.19786848072562	40	127
210.2094784580499	210.302358276644	81	127
210.302358276644	210.39523809523808	40	127
210.302358276644	210.39523809523808	52	127
210.302358276644	210.39523809523808	68	127
210.39523809523808	210.49972789115645	80	127
210.49972789115645	210.60421768707482	68	127
210.49972789115645	210.60421768707482	40	127
210.49972789115645	210.60421768707482	52	127
210.60421768707482	210.7087074829932	80	127
210.7087074829932	210.9525170068027	45	127
210.7087074829932	210.9525170068027	33	127
210.7087074829932	210.9525170068027	81	127
210.7087074829932	210.9525170068027	69	127
210.9525170068027	211.09183673469389	72	127
211.09183673469389	211.18471655328798	69	127
211.18471655328798	211.27759637188208	64	127
211.27759637188208	211.38208616780045	69	127
211.38208616780045	211.47496598639455	72	127
211.47496598639455	211.60267573696146	69	127
211.60267573696146	211.7419954648526	72	127
211.60267573696146	211.85809523809525	45	127
211.60267573696146	211.85809523809525	48	127
211.60267573696146	211.85809523809525	52	127
211.7419954648526	211.85809523809525	69	127
211.85809523809525	211.93936507936507	64	127
211.93936507936507	212.06707482993198	69	127
212.06707482993198	212.17156462585035	72	127
212.17156462585035	212.29927437641723	69	127
212.29927437641723	212.3805442176871	72	127
212.3805442176871	212.42698412698414	69	127
212.42698412698414	212.50825396825397	74	127
212.42698412698414	212.63596371882088	43	127
212.42698412698414	212.63596371882088	47	127
212.42698412698414	212.63596371882088	50	127
212.42698412698414	212.63596371882088	55	127
212.50825396825397	212.63596371882088	71	127
212.63596371882088	212.74045351473922	67	127
212.74045351473922	212.85655328798185	71	127
212.85655328798185	212.92621315192744	74	127
212.92621315192744	213.04231292517008	71	127
213.04231292517008	213.10036281179137	74	127
213.10036281179137	213.216462585034	71	127
213.216462585034	213.44866213151928	43	127
213.216462585034	213.44866213151928	55	127
213.216462585034	213.44866213151928	47	127
213.216462585034	213.33256235827665	74	127
213.216462585034	213.44866213151928	50	127
213.33256235827665	213.44866213151928	71	127
213.44866213151928	213.55315192743765	67	127
213.55315192743765	213.65764172335602	71	127
213.65764172335602	213.73891156462585	74	127
213.73891156462585	213.84340136054422	71	127
213.84340136054422	213.92467120181405	74	127
213.92467120181405	214.0407709750567	71	127
214.0407709750567	214.27297052154196	48	127
214.0407709750567	214.27297052154196	52	127
214.0407709750567	214.27297052154196	55	127
214.0407709750567	214.27297052154196	60	127
214.0407709750567	214.15687074829933	76	127
214.15687074829933	214.27297052154196	72	127
214.27297052154196	214.4122902494331	67	127
214.4122902494331	214.55160997732426	72	127
214.55160997732426	214.65609977324263	76	127
214.65609977324263	214.70253968253968	72	127
214.70253968253968	214.77219954648527	76	127
214.77219954648527	214.8302494331066	72	127
214.8302494331066	215.05083900226757	57	127
214.8302494331066	215.05083900226757	49	127
214.8302494331066	215.05083900226757	45	127
214.8302494331066	214.93473922902496	76	127
214.8302494331066	215.05083900226757	52	127
214.93473922902496	215.05083900226757	73	127
215.05083900226757	215.1669387755102	69	127
215.1669387755102	215.2946485260771	73	127
215.2946485260771	215.41074829931972	76	127
215.41074829931972	215.50362811791382	73	127
215.50362811791382	215.53845804988663	76	127
215.53845804988663	215.61972789115646	73	127
215.61972789115646	215.81709750566893	50	127
215.61972789115646	215.7358276643991	77	127
215.61972789115646	215.81709750566893	53	127
215.61972789115646	215.81709750566893	57	127
215.61972789115646	215.81709750566893	62	127
215.7358276643991	215.81709750566893	74	127
215.81709750566893	215.90997732426302	69	127
215.90997732426302	216.0144671201814	74	127
216.0144671201814	216.09573696145125	77	127
216.09573696145125	216.18861678004535	74	127
216.18861678004535	216.304716553288	77	127
216.304716553288	216.38598639455782	74	127
216.38598639455782	216.5485260770975	57	127
216.38598639455782	216.5485260770975	64	127
216.38598639455782	216.5485260770975	60	127
216.38598639455782	216.5485260770975	52	127
216.38598639455782	216.46725623582768	72	127
216.46725623582768	216.5485260770975	76	127
216.5485260770975	216.66462585034014	72	127
216.66462585034014	216.75750566893424	69	127
216.75750566893424	216.87360544217688	68	127
216.75750566893424	216.97809523809525	59	127
216.75750566893424	216.97809523809525	56	127
216.75750566893424	216.97809523809525	52	127
216.75750566893424	216.97809523809525	64	127
216.87360544217688	216.97809523809525	76	127
216.97809523809525	217.09419501133786	71	127
217.09419501133786	217.23351473922904	68	127
217.23351473922904	217.45410430839001	69	127
217.23351473922904	217.3380045351474	45	127
217.3380045351474	217.45410430839001	48	127
217.45410430839001	217.5237641723356	52	127
217.5237641723356	217.6166439909297	48	127
217.6166439909297	217.67469387755102	52	127
217.6166439909297	217.67469387755102	72	127
217.6166439909297	217.67469387755102	76	127
217.6166439909297	217.67469387755102	81	127
217.6166439909297	217.67469387755102	84	127
217.67469387755102	217.79079365079366	48	127
217.79079365079366	217.89528344671203	72	127
217.79079365079366	217.89528344671203	76	127
217.79079365079366	217.89528344671203	81	127
217.79079365079366	217.89528344671203	84	127
217.79079365079366	217.89528344671203	52	127
217.89528344671203	218.0229931972789	48	127
218.0229931972789	218.13909297052155	45	127
218.13909297052155	218.23197278911564	48	127
218.23197278911564	218.336462585034	52	127
218.336462585034	218.41773242630384	48	127
218.41773242630384	218.5222222222222	52	127
218.41773242630384	218.51061224489797	76	127
218.41773242630384	218.51061224489797	72	127
218.41773242630384	218.51061224489797	81	127
218.41773242630384	218.51061224489797	84	127
218.5222222222222	218.60349206349207	48	127
218.60349206349207	218.73120181405895	84	127
218.60349206349207	218.73120181405895	52	127
218.60349206349207	218.73120181405895	72	127
218.60349206349207	218.73120181405895	81	127
218.60349206349207	218.73120181405895	76	127
218.73120181405895	218.8124716553288	48	127
218.8124716553288	218.92857142857142	43	127
218.92857142857142	219.03306122448978	47	127
219.03306122448978	219.13755102040815	50	127
219.13755102040815	219.26526077097506	55	127
219.26526077097506	219.36975056689343	83	127
219.26526077097506	219.36975056689343	54	127
219.26526077097506	219.36975056689343	74	127
219.26526077097506	219.36975056689343	79	127
219.26526077097506	219.36975056689343	86	127
219.36975056689343	219.48585034013607	55	127
219.48585034013607	219.53229024943312	74	127
219.48585034013607	219.53229024943312	79	127
219.48585034013607	219.53229024943312	83	127
219.48585034013607	219.53229024943312	86	127
219.48585034013607	219.53229024943312	54	127
219.53229024943312	219.66	55	127
219.66	219.7528798185941	43	127
219.7528798185941	219.82253968253968	47	127
219.82253968253968	219.91541950113378	50	127
219.91541950113378	220.0431292517007	55	127
220.0431292517007	220.14761904761906	74	127
220.0431292517007	220.14761904761906	79	127
220.0431292517007	220.14761904761906	83	127
220.0431292517007	220.14761904761906	86	127
220.0431292517007	220.14761904761906	54	127
220.14761904761906	220.25210884353743	55	127
220.25210884353743	220.36820861678004	74	127
220.25210884353743	220.36820861678004	54	127
220.25210884353743	220.36820861678004	86	127
220.25210884353743	220.36820861678004	83	127
220.25210884353743	220.36820861678004	79	127
220.36820861678004	220.43786848072563	55	127
220.43786848072563	220.55396825396826	48	127
220.55396825396826	220.68167800453514	52	127
220.68167800453514	220.7861678004535	55	127
220.7861678004535	220.8790476190476	60	127
220.8790476190476	220.96031746031747	79	127
220.8790476190476	220.96031746031747	88	127
220.8790476190476	220.96031746031747	59	127
220.8790476190476	220.96031746031747	76	127
220.8790476190476	220.96031746031747	84	127
220.96031746031747	221.02997732426303	60	127
221.02997732426303	221.1344671201814	59	127
221.02997732426303	221.12285714285716	88	127
221.02997732426303	221.12285714285716	84	127
221.02997732426303	221.12285714285716	79	127
221.02997732426303	221.12285714285716	76	127
221.1344671201814	221.25056689342404	60	127
221.25056689342404	221.36666666666667	45	127
221.36666666666667	221.47115646258504	49	127
221.47115646258504	221.56403628117914	52	127
221.56403628117914	221.6685260770975	57	127
221.6685260770975	221.7962358276644	76	127
221.6685260770975	221.7962358276644	81	127
221.6685260770975	221.7962358276644	85	127
221.6685260770975	221.7962358276644	88	127
221.6685260770975	221.7962358276644	56	127
221.7962358276644	221.86589569160998	57	127
221.86589569160998	221.9239455782313	56	127
221.86589569160998	221.9239455782313	88	127
221.86589569160998	221.9239455782313	85	127
221.86589569160998	221.9239455782313	81	127
221.86589569160998	221.9239455782313	76	127
221.9239455782313	222.00521541950113	57	127
222.00521541950113	222.12131519274377	50	127
222.12131519274377	222.24902494331064	53	127
222.24902494331064	222.30707482993196	57	127
222.30707482993196	222.3999546485261	62	127
222.3999546485261	222.5160544217687	77	127
222.3999546485261	222.5160544217687	86	127
222.3999546485261	222.5160544217687	81	127
222.3999546485261	222.5160544217687	61	127
222.3999546485261	222.5160544217687	89	127
222.5160544217687	222.63215419501134	62	127
222.63215419501134	222.70181405895693	77	127
222.63215419501134	222.70181405895693	81	127
222.63215419501134	222.70181405895693	86	127
222.63215419501134	222.70181405895693	89	127
222.63215419501134	222.70181405895693	61	127
222.70181405895693	222.8295238095238	62	127
222.8295238095238	222.87596371882086	52	127
222.87596371882086	223.00367346938776	57	127
223.00367346938776	223.13138321995464	88	127
223.00367346938776	223.13138321995464	60	127
223.00367346938776	223.13138321995464	76	127
223.00367346938776	223.13138321995464	81	127
223.00367346938776	223.13138321995464	84	127
223.13138321995464	223.235873015873	64	127
223.235873015873	223.3287528344671	52	127
223.3287528344671	223.42163265306124	56	127
223.42163265306124	223.50290249433107	80	127
223.42163265306124	223.50290249433107	59	127
223.42163265306124	223.50290249433107	88	127
223.42163265306124	223.50290249433107	83	127
223.42163265306124	223.50290249433107	76	127
223.50290249433107	223.59578231292517	64	127
223.59578231292517	223.67705215419502	45	127
223.67705215419502	223.78154195011336	48	127
223.78154195011336	223.85120181405895	52	127
223.85120181405895	223.9673015873016	57	127
223.9673015873016	224.09501133786847	76	127
223.9673015873016	224.09501133786847	81	127
223.9673015873016	224.09501133786847	84	127
223.9673015873016	224.09501133786847	88	127
223.9673015873016	224.09501133786847	56	127
224.09501133786847	224.1878911564626	57	127
224.1878911564626	224.29238095238094	56	127
224.1878911564626	224.29238095238094	88	127
224.1878911564626	224.29238095238094	84	127
224.1878911564626	224.29238095238094	81	127
224.1878911564626	224.29238095238094	76	127
224.29238095238094	224.3968707482993	57	127
224.3968707482993	224.50136054421768	45	127
224.50136054421768	224.60585034013604	49	127
224.60585034013604	224.7103401360544	52	127
224.7103401360544	224.78	57	127
224.78	224.8728798185941	81	127
224.78	224.8728798185941	76	127
224.78	224.8728798185941	85	127
224.78	224.8728798185941	88	127
224.78	224.8728798185941	56	127
224.8728798185941	224.95414965986396	57	127
224.95414965986396	225.0354195011338	56	127
224.95414965986396	225.0354195011338	81	127
224.95414965986396	225.0354195011338	85	127
224.95414965986396	225.0354195011338	88	127
224.95414965986396	225.0354195011338	76	127
225.0354195011338	225.10507936507938	57	127
225.10507936507938	225.221179138322	50	127
225.221179138322	225.32566893424035	53	127
225.32566893424035	225.41854875283445	57	127
225.41854875283445	225.51142857142858	62	127
225.51142857142858	225.60430839002268	81	127
225.51142857142858	225.60430839002268	89	127
225.51142857142858	225.60430839002268	61	127
225.51142857142858	225.60430839002268	86	127
225.51142857142858	225.60430839002268	77	127
225.60430839002268	225.69718820861678	62	127
225.69718820861678	225.81328798185942	61	127
225.69718820861678	225.81328798185942	89	127
225.69718820861678	225.81328798185942	86	127
225.69718820861678	225.81328798185942	81	127
225.69718820861678	225.81328798185942	77	127
225.81328798185942	225.95260770975057	62	127
225.95260770975057	226.0338775510204	52	127
226.0338775510204	226.12675736961452	57	127
226.12675736961452	226.2312471655329	76	127
226.12675736961452	226.2312471655329	60	127
226.12675736961452	226.2312471655329	88	127
226.12675736961452	226.2312471655329	84	127
226.12675736961452	226.2312471655329	81	127
226.2312471655329	226.30090702947845	64	127
226.30090702947845	226.4170068027211	52	127
226.4170068027211	226.52149659863946	56	127
226.52149659863946	226.61437641723356	80	127
226.52149659863946	226.61437641723356	88	127
226.52149659863946	226.62598639455783	59	127
226.52149659863946	226.61437641723356	76	127
226.52149659863946	226.61437641723356	83	127
226.62598639455783	226.68403628117915	64	127
226.68403628117915	226.77691609977325	45	127
226.77691609977325	226.86979591836734	48	127
226.86979591836734	226.96267573696144	52	127
226.96267573696144	227.0671655328798	57	127
227.0671655328798	227.18326530612245	56	127
227.0671655328798	227.18326530612245	88	127
227.0671655328798	227.18326530612245	84	127
227.0671655328798	227.18326530612245	81	127
227.0671655328798	227.18326530612245	76	127
227.18326530612245	227.28775510204082	57	127
227.28775510204082	227.3574149659864	56	127
227.28775510204082	227.3574149659864	76	127
227.28775510204082	227.3574149659864	88	127
227.28775510204082	227.3574149659864	84	127
227.28775510204082	227.3574149659864	81	127
227.3574149659864	227.43868480725624	57	127
227.43868480725624	227.50834467120183	45	127
227.50834467120183	227.62444444444444	49	127
227.62444444444444	227.74054421768707	52	127
227.74054421768707	227.8566439909297	57	127
227.8566439909297	227.97274376417235	88	127
227.8566439909297	227.97274376417235	81	127
227.8566439909297	227.97274376417235	76	127
227.8566439909297	227.97274376417235	56	127
227.8566439909297	227.97274376417235	85	127
227.97274376417235	228.0424036281179	57	127
228.0424036281179	228.1120634920635	85	127
228.0424036281179	228.1120634920635	56	127
228.0424036281179	228.1120634920635	88	127
228.0424036281179	228.1120634920635	81	127
228.0424036281179	228.1120634920635	76	127
228.1120634920635	228.19333333333333	57	127
228.19333333333333	228.30943310657597	38	127
228.30943310657597	228.4255328798186	41	127
228.4255328798186	228.5184126984127	45	127
228.5184126984127	228.59968253968253	50	127
228.59968253968253	228.6809523809524	77	127
228.59968253968253	228.6809523809524	81	127
228.59968253968253	228.6809523809524	86	127
228.59968253968253	228.6809523809524	89	127
228.59968253968253	228.6809523809524	49	127
228.6809523809524	228.797052154195	50	127
228.797052154195	228.90154195011337	77	127
228.797052154195	228.90154195011337	86	127
228.797052154195	228.90154195011337	89	127
228.797052154195	228.90154195011337	49	127
228.797052154195	228.90154195011337	81	127
228.90154195011337	229.017641723356	50	127
229.017641723356	229.13374149659865	38	127
229.13374149659865	229.21501133786848	41	127
229.21501133786848	229.30789115646257	45	127
229.21501133786848	229.30789115646257	69	127
229.21501133786848	229.30789115646257	74	127
229.21501133786848	229.30789115646257	77	127
229.21501133786848	229.30789115646257	81	127
229.30789115646257	229.3311111111111	50	127
229.3311111111111	229.458820861678	38	127
229.458820861678	229.64458049886622	41	127
229.64458049886622	229.7722902494331	74	127
229.64458049886622	229.7722902494331	81	127
229.64458049886622	229.7722902494331	45	127
229.64458049886622	229.7722902494331	69	127
229.64458049886622	229.7722902494331	77	127
229.7722902494331	229.9	50	127
229.9	232.68639455782312	81	127
229.9	232.68639455782312	72	127
229.9	232.68639455782312	69	127
229.9	232.68639455782312	51	127
229.9	232.68639455782312	39	127
229.9	232.68639455782312	78	127
233.13918367346938	233.39460317460316	66	127
233.13918367346938	233.39460317460316	54	127
233.39460317460316	234.10281179138323	69	127
233.39460317460316	234.10281179138323	57	127
234.10281179138323	234.33501133786848	54	127
234.10281179138323	234.33501133786848	66	127
234.33501133786848	234.56721088435373	63	127
234.33501133786848	234.56721088435373	51	127
234.56721088435373	234.77619047619046	60	127
234.56721088435373	234.77619047619046	48	127
234.77619047619046	234.93873015873015	57	127
234.77619047619046	234.93873015873015	45	127
234.93873015873015	235.1477097505669	54	127
234.93873015873015	235.1477097505669	42	127
235.1477097505669	235.35668934240363	39	127
235.1477097505669	235.35668934240363	51	127
235.35668934240363	235.5540589569161	36	127
235.35668934240363	235.5540589569161	48	127
235.5540589569161	235.72820861678005	47	127
235.5540589569161	235.78625850340137	35	127
235.78625850340137	236.63378684807256	47	127
235.78625850340137	236.42480725623582	54	127
235.78625850340137	235.9604081632653	39	127
235.97201814058957	236.42480725623582	40	127
236.42480725623582	236.63378684807256	52	127
236.42480725623582	236.63378684807256	28	127
236.70344671201815	236.97047619047618	71	127
236.70344671201815	236.97047619047618	59	127
236.97047619047618	237.58580498866212	62	127
236.97047619047618	237.58580498866212	74	127
237.58580498866212	237.80639455782313	59	127
237.58580498866212	237.80639455782313	71	127
237.80639455782313	238.0385941043084	56	127
237.80639455782313	238.0385941043084	68	127
238.0385941043084	238.25918367346938	53	127
238.0385941043084	238.25918367346938	65	127
238.25918367346938	238.39850340136056	62	127
238.25918367346938	238.39850340136056	50	127
238.39850340136056	238.6307029478458	47	127
238.39850340136056	238.6307029478458	59	127
238.6307029478458	238.82807256235827	44	127
238.6307029478458	238.82807256235827	56	127
238.82807256235827	239.0138321995465	41	127
238.82807256235827	239.0138321995465	53	127
239.0138321995465	239.25764172335602	40	127
239.0138321995465	239.1995918367347	52	127
239.25764172335602	239.40857142857143	44	127
239.25764172335602	240.12839002267575	52	127
239.25764172335602	239.93102040816328	59	127
239.45501133786848	239.93102040816328	45	127
239.93102040816328	240.12839002267575	57	127
239.93102040816328	240.12839002267575	33	127
240.1980498866213	240.47668934240363	64	127
240.1980498866213	240.47668934240363	76	127
240.47668934240363	241.09201814058957	67	127
240.47668934240363	241.09201814058957	79	127
241.09201814058957	241.32421768707482	64	127
241.09201814058957	241.32421768707482	76	127
241.32421768707482	241.5564172335601	73	127
241.32421768707482	241.5564172335601	61	127
241.5564172335601	241.80022675736961	70	127
241.5564172335601	241.80022675736961	58	127
241.80022675736961	241.95115646258503	55	127
241.80022675736961	241.95115646258503	67	127
241.95115646258503	242.16013605442177	64	127
241.95115646258503	242.16013605442177	52	127
242.16013605442177	242.3691156462585	49	127
242.16013605442177	242.3691156462585	61	127
242.3691156462585	242.54326530612244	58	127
242.3691156462585	242.54326530612244	46	127
242.54326530612244	242.78707482993198	45	127
242.54326530612244	242.74063492063493	57	127
242.78707482993198	243.54172335600907	57	127
242.78707482993198	242.9380045351474	49	127
242.78707482993198	243.35596371882087	64	127
242.99605442176872	243.35596371882087	50	127
243.35596371882087	243.54172335600907	62	127
243.35596371882087	243.54172335600907	38	127
243.57655328798185	244.15705215419501	71	127
243.57655328798185	244.15705215419501	74	127
243.57655328798185	243.82036281179137	56	127
243.82036281179137	244.15705215419501	57	127
244.15705215419501	244.35442176870748	45	127
244.15705215419501	244.35442176870748	72	127
244.40086167800453	244.56340136054422	62	127
244.40086167800453	244.56340136054422	65	127
244.40086167800453	244.80721088435374	71	127
244.56340136054422	244.74916099773242	64	127
244.80721088435374	245.08585034013606	69	127
245.01619047619047	245.1671201814059	52	127
245.1671201814059	245.8172789115646	68	127
245.39931972789117	245.58507936507937	57	127
245.8172789115646	245.99142857142857	69	127
246.03786848072562	246.62997732426305	88	127
246.03786848072562	246.22362811791382	61	127
246.03786848072562	246.22362811791382	70	127
246.22362811791382	246.362947845805	69	127
246.22362811791382	246.362947845805	62	127
246.62997732426305	246.80412698412698	86	127
246.83895691609976	247.024716553288	71	127
246.83895691609976	247.44267573696146	86	127
246.83895691609976	247.024716553288	68	127
247.024716553288	247.19886621315192	69	127
247.024716553288	247.19886621315192	72	127
247.44267573696146	247.6168253968254	84	127
247.66326530612244	247.82580498866213	62	127
247.66326530612244	247.82580498866213	65	127
247.66326530612244	248.0580045351474	83	127
247.82580498866213	248.01156462585033	64	127
248.0580045351474	248.44113378684807	81	127
248.2437641723356	248.44113378684807	52	127
248.44113378684807	248.60367346938776	80	127
249.72984126984127	249.82272108843537	61	127
249.72984126984127	249.82272108843537	52	127
249.72984126984127	249.82272108843537	57	127
249.72984126984127	249.82272108843537	45	127
249.96204081632652	250.1013605442177	57	127
249.96204081632652	250.1013605442177	45	127
249.96204081632652	250.1013605442177	61	127
249.96204081632652	250.1013605442177	52	127
250.56575963718822	250.6934693877551	50	127
250.56575963718822	250.6934693877551	38	127
250.56575963718822	250.6934693877551	57	127
250.56575963718822	250.6934693877551	54	127
250.56575963718822	250.6934693877551	59	127
250.821179138322	250.9488888888889	57	127
250.821179138322	250.9488888888889	59	127
250.821179138322	250.9488888888889	54	127
250.821179138322	250.9488888888889	50	127
250.821179138322	250.9488888888889	38	127
251.40167800453514	251.5061678004535	59	127
251.40167800453514	251.5061678004535	62	127
251.40167800453514	251.5061678004535	40	127
251.40167800453514	251.5061678004535	52	127
251.40167800453514	251.5061678004535	56	127
251.5990476190476	251.63387755102042	59	127
251.5990476190476	251.63387755102042	56	127
251.5990476190476	251.63387755102042	52	127
251.5990476190476	251.63387755102042	40	127
251.5990476190476	251.63387755102042	62	127
252.19115646258504	252.27242630385487	61	127
252.19115646258504	252.27242630385487	57	127
252.19115646258504	252.27242630385487	45	127
252.19115646258504	252.27242630385487	52	127
252.37691609977324	252.46979591836734	52	127
252.37691609977324	252.46979591836734	45	127
252.37691609977324	252.46979591836734	61	127
252.37691609977324	252.46979591836734	57	127
252.9806349206349	253.08512471655328	61	127
252.9806349206349	253.08512471655328	45	127
252.9806349206349	253.08512471655328	57	127
252.9806349206349	253.08512471655328	64	127
253.1431746031746	253.25927437641724	61	127
253.1431746031746	253.25927437641724	45	127
253.1431746031746	253.25927437641724	57	127
253.1431746031746	253.25927437641724	64	127
253.82816326530613	253.96748299319728	45	127
253.82816326530613	253.96748299319728	57	127
253.82816326530613	253.96748299319728	62	127
253.82816326530613	253.96748299319728	65	127
254.14163265306124	254.19968253968253	45	127
254.14163265306124	254.19968253968253	65	127
254.14163265306124	254.19968253968253	62	127
254.14163265306124	254.19968253968253	57	127
255.14009070294784	257.8568253968254	60	127
255.14009070294784	257.8568253968254	63	127
255.14009070294784	257.8568253968254	65	127
255.14009070294784	257.8568253968254	57	127
255.14009070294784	257.8568253968254	45	127
258.6114739229025	259.6215419501134	58	127
258.6114739229025	259.6215419501134	62	127
258.6114739229025	259.6215419501134	65	127
259.6215419501134	260.4690476190476	63	127
259.6215419501134	260.4690476190476	60	127
259.6215419501134	260.4690476190476	65	127
260.4690476190476	261.3862358276644	65	127
260.4690476190476	261.3862358276644	57	127
260.4690476190476	261.3862358276644	60	127
261.3862358276644	262.18734693877553	58	127
261.3862358276644	262.18734693877553	65	127
261.3862358276644	262.18734693877553	62	127
262.2570068027211	263.22061224489795	55	127
262.2570068027211	263.22061224489795	51	127
262.2570068027211	263.22061224489795	63	127
263.22061224489795	264.12621315192746	62	127
263.22061224489795	264.12621315192746	56	127
263.22061224489795	264.12621315192746	53	127
264.12621315192746	264.6138321995465	55	127
264.12621315192746	264.6138321995465	63	127
264.12621315192746	264.6138321995465	51	127
264.6138321995465	264.8924716553288	65	127
264.6138321995465	264.8924716553288	50	127
264.6138321995465	264.8924716553288	53	127
264.8924716553288	265.13628117913834	51	127
264.8924716553288	265.13628117913834	67	127
264.8924716553288	265.13628117913834	48	127
265.1943310657596	265.9721995464853	53	127
265.1943310657596	265.7051700680272	58	127
265.7051700680272	265.91414965986394	57	127
265.9721995464853	266.2856689342404	41	127
266.2856689342404	267.1912471655329	46	127
266.2856689342404	267.1912471655329	34	127
267.1912471655329	268.07360544217687	45	127
267.1912471655329	268.07360544217687	33	127
267.4234240362812	267.63242630385486	65	127
267.63242630385486	267.8762358276644	63	127
267.8762358276644	268.02714285714285	60	127
268.07360544217687	268.93274376417236	51	127
268.07360544217687	268.93274376417236	39	127
268.93274376417236	269.71061224489796	50	127
268.93274376417236	269.71061224489796	38	127
269.1997732426304	269.4203628117914	65	127
269.4203628117914	269.5945124716553	62	127
269.5945124716553	269.75705215419504	58	127
269.80349206349206	270.72068027210884	33	127
269.80349206349206	270.72068027210884	45	127
270.72068027210884	271.53337868480725	44	127
270.72068027210884	271.53337868480725	32	127
270.9296598639456	271.1154195011338	64	127
271.1154195011338	271.28956916099776	62	127
271.28956916099776	271.4869387755102	59	127
271.53337868480725	272.38090702947846	50	127
271.53337868480725	272.38090702947846	38	127
272.38090702947846	273.17038548752834	48	127
272.38090702947846	273.17038548752834	36	127
272.6363038548753	272.83367346938775	64	127
272.83367346938775	273.0426530612245	60	127
273.0426530612245	273.1936054421769	57	127
273.2284353741497	274.0875736961451	53	127
273.2284353741497	274.0875736961451	41	127
274.0875736961451	274.9467120181406	51	127
274.0875736961451	274.9467120181406	39	127
274.29655328798185	274.5403628117914	69	127
274.5403628117914	274.73773242630386	66	127
274.73773242630386	274.9002721088435	60	127
274.9467120181406	275.71297052154193	40	127
274.9467120181406	275.71297052154193	52	127
275.8058276643991	276.6649886621315	40	127
276.01482993197277	276.2354195011338	68	127
276.2354195011338	276.4443990929705	62	127
276.4443990929705	276.6185260770975	59	127
276.6649886621315	278.38326530612244	52	127
277.51251700680274	278.38326530612244	40	127
277.7214965986395	277.8956462585034	71	127
277.8956462585034	278.13945578231295	68	127
278.13945578231295	278.3484353741497	62	127
278.38326530612244	280.14798185941044	52	127
279.2191836734694	280.14798185941044	40	127
279.4745804988662	279.69519274376415	74	127
279.69519274376415	279.91578231292516	71	127
279.91578231292516	280.08990929705215	68	127
280.14798185941044	281.95913832199545	52	127
281.0651700680272	281.95913832199545	40	127
281.2857596371882	281.45990929705215	77	127
281.45990929705215	281.72691609977323	74	127
281.72691609977323	281.95913832199545	71	127
281.95913832199545	282.5744671201814	40	127
281.95913832199545	282.17972789115646	68	127
281.95913832199545	282.5744671201814	52	127
282.17972789115646	282.423537414966	65	127
282.423537414966	282.5744671201814	64	127
282.5744671201814	282.77183673469386	51	127
282.5744671201814	282.77183673469386	63	127
282.77183673469386	283.00403628117914	62	127
282.77183673469386	283.00403628117914	50	127
283.00403628117914	283.2130158730159	48	127
283.00403628117914	283.2130158730159	60	127
283.2130158730159	283.3639229024943	59	127
283.2130158730159	283.3639229024943	47	127
283.3639229024943	283.5613151927438	52	127
283.3639229024943	283.5613151927438	64	127
283.6193650793651	283.8051247165533	48	127
283.6193650793651	283.7122448979592	64	127
283.7122448979592	283.8051247165533	76	127
283.8051247165533	283.9328344671202	64	127
283.8051247165533	284.03732426303856	47	127
283.9328344671202	284.03732426303856	76	127
284.03732426303856	284.16503401360546	64	127
284.03732426303856	284.25791383219956	45	127
284.16503401360546	284.25791383219956	76	127
284.25791383219956	284.35079365079366	64	127
284.25791383219956	284.47850340136057	44	127
284.35079365079366	284.47850340136057	76	127
284.47850340136057	284.57138321995467	64	127
284.47850340136057	284.6874829931973	45	127
284.57138321995467	284.6874829931973	76	127
284.6874829931973	284.81519274376416	47	127
284.6874829931973	284.7339229024943	64	127
284.7339229024943	284.81519274376416	76	127
284.81519274376416	284.89643990929704	64	127
284.81519274376416	284.9777324263039	48	127
284.89643990929704	284.9777324263039	76	127
284.9777324263039	285.1518820861678	45	127
284.9777324263039	285.1054195011338	64	127
285.1054195011338	285.1983219954649	76	127
285.1983219954649	285.3143990929705	64	127
285.1983219954649	285.4305215419501	50	127
285.3143990929705	285.4305215419501	76	127
285.4305215419501	285.558231292517	64	127
285.4305215419501	285.6511111111111	48	127
285.558231292517	285.6511111111111	76	127
285.6511111111111	285.778820861678	64	127
285.6511111111111	285.8717006802721	47	127
285.778820861678	285.8717006802721	76	127
285.8717006802721	285.98780045351475	64	127
285.8717006802721	286.0690702947846	46	127
285.98780045351475	286.0690702947846	76	127
286.0690702947846	286.2432199546485	47	127
286.0690702947846	286.1503401360544	64	127
286.1503401360544	286.2432199546485	76	127
286.2432199546485	286.39414965986396	48	127
286.2432199546485	286.26643990929705	64	127
286.26643990929705	286.39414965986396	76	127
286.39414965986396	286.6031292517007	50	127
286.39414965986396	286.4986394557823	64	127
286.4986394557823	286.6031292517007	76	127
286.6031292517007	286.71922902494333	64	127
286.6031292517007	286.7772789115646	47	127
286.71922902494333	286.80049886621316	76	127
286.80049886621316	286.90498866213153	64	127
286.80049886621316	287.02108843537417	48	127
286.90498866213153	287.02108843537417	76	127
287.02108843537417	287.2416780045352	49	127
287.02108843537417	287.1371882086168	69	127
287.1371882086168	287.2416780045352	81	127
287.2416780045352	287.4738775510204	50	127
287.2416780045352	287.3577551020408	69	127
287.3577551020408	287.4738775510204	81	127
287.4738775510204	287.61319727891157	52	127
287.4738775510204	287.5667573696145	69	127
287.5667573696145	287.65961451247165	81	127
287.65961451247165	288.21691609977324	53	127
287.65961451247165	287.7292970521542	69	127
287.7292970521542	287.84539682539685	81	127
287.84539682539685	287.9614739229025	69	127
287.9614739229025	288.08920634920634	81	127
288.08920634920634	288.21691609977324	69	127
288.21691609977324	288.30979591836734	52	127
288.21691609977324	288.30979591836734	81	127
288.30979591836734	288.4142857142857	69	127
288.30979591836734	288.4142857142857	50	127
288.4142857142857	288.5187755102041	81	127
288.4142857142857	288.49555555555554	48	127
288.5187755102041	288.62326530612245	47	127
288.5187755102041	288.62326530612245	74	127
288.62326530612245	288.7393650793651	86	127
288.62326530612245	288.7393650793651	48	127
288.7393650793651	288.8206349206349	47	127
288.7393650793651	288.8206349206349	74	127
288.8206349206349	288.90190476190475	86	127
288.8206349206349	288.90190476190475	48	127
288.90190476190475	288.97156462585036	45	127
288.90190476190475	288.97156462585036	75	127
288.97156462585036	289.087641723356	47	127
288.97156462585036	289.087641723356	87	127
289.087641723356	289.15732426303856	75	127
289.087641723356	289.15732426303856	45	127
289.15732426303856	289.2269841269841	47	127
289.15732426303856	289.25020408163266	87	127
289.25020408163266	289.3663038548753	44	127
289.25020408163266	289.4011111111111	76	127
289.25020408163266	289.4011111111111	88	127
289.3663038548753	289.4011111111111	45	127
289.4011111111111	289.52884353741496	47	127
289.52884353741496	289.6333333333333	44	127
289.65655328798186	289.7842630385488	40	127
289.9003628117914	290.0861224489796	76	127
289.9003628117914	290.0861224489796	64	127
290.0861224489796	290.3067120181406	72	127
290.0861224489796	290.3067120181406	84	127
290.0861224489796	290.3067120181406	33	127
290.0861224489796	290.3067120181406	45	127
290.3067120181406	290.5272789115646	83	127
290.3067120181406	290.5272789115646	71	127
290.5272789115646	290.7130612244898	81	127
290.5272789115646	290.7130612244898	69	127
290.7130612244898	290.92204081632656	68	127
290.7130612244898	290.92204081632656	80	127
290.92204081632656	291.16585034013605	69	127
290.92204081632656	291.16585034013605	81	127
290.92204081632656	291.16585034013605	45	127
290.92204081632656	291.16585034013605	57	127
291.16585034013605	291.35160997732424	83	127
291.16585034013605	291.35160997732424	71	127
291.35160997732424	291.57219954648525	84	127
291.35160997732424	291.57219954648525	72	127
291.57219954648525	291.73473922902497	69	127
291.57219954648525	291.73473922902497	81	127
291.781179138322	291.97854875283446	57	127
291.781179138322	291.97854875283446	45	127
291.781179138322	291.97854875283446	86	127
291.781179138322	291.97854875283446	74	127
291.97854875283446	292.19913832199546	84	127
291.97854875283446	292.19913832199546	72	127
292.19913832199546	292.39650793650793	71	127
292.19913832199546	292.39650793650793	83	127
292.39650793650793	292.5938775510204	70	127
292.39650793650793	292.5938775510204	82	127
292.5938775510204	292.8144671201814	64	127
292.5938775510204	292.8144671201814	71	127
292.5938775510204	292.8144671201814	83	127
292.5938775510204	292.8144671201814	52	127
292.8144671201814	293.02344671201814	84	127
292.8144671201814	293.02344671201814	72	127
293.02344671201814	293.24403628117915	74	127
293.02344671201814	293.24403628117915	86	127
293.24403628117915	293.4181859410431	83	127
293.24403628117915	293.4181859410431	71	127
293.46462585034016	293.68521541950116	72	127
293.46462585034016	293.68521541950116	45	127
293.46462585034016	293.68521541950116	57	127
293.46462585034016	293.68521541950116	84	127
293.68521541950116	293.88258503401363	85	127
293.68521541950116	293.88258503401363	73	127
293.88258503401363	294.0451247165533	74	127
293.88258503401363	294.0451247165533	86	127
294.0451247165533	294.207641723356	88	127
294.0451247165533	294.207641723356	76	127
294.25410430839	294.4398639455782	50	127
294.25410430839	294.84621315192743	77	127
294.25410430839	294.4398639455782	38	127
294.25410430839	294.84621315192743	89	127
294.84621315192743	294.97392290249434	88	127
294.84621315192743	294.97392290249434	76	127
294.97392290249434	295.06680272108844	86	127
294.97392290249434	295.06680272108844	74	127
295.10163265306124	295.19451247165534	52	127
295.10163265306124	295.19451247165534	40	127
295.10163265306124	295.19451247165534	84	127
295.10163265306124	295.19451247165534	72	127
295.2990022675737	295.4266893424036	52	127
295.2990022675737	295.4266893424036	72	127
295.2990022675737	295.4266893424036	64	127
295.2990022675737	295.4266893424036	84	127
295.50798185941045	295.6240816326531	83	127
295.50798185941045	295.6240816326531	71	127
295.50798185941045	295.6240816326531	52	127
295.50798185941045	295.6240816326531	64	127
295.7053514739229	295.798231292517	83	127
295.7053514739229	295.798231292517	71	127
295.7053514739229	295.798231292517	64	127
295.7053514739229	295.798231292517	52	127
295.8911111111111	295.9839909297052	86	127
295.8911111111111	296.0884807256236	45	127
295.8911111111111	296.0884807256236	57	127
295.9839909297052	296.0884807256236	84	127
296.0884807256236	296.2045804988662	83	127
296.2045804988662	296.28585034013605	84	127
296.3090702947846	296.4367800453515	69	127
296.3090702947846	296.4367800453515	81	127
296.4832199546485	296.59931972789116	83	127
296.4832199546485	296.59931972789116	71	127
296.6689795918367	296.9360090702948	84	127
296.6689795918367	296.9360090702948	45	127
296.6689795918367	296.9360090702948	57	127
296.6689795918367	296.9360090702948	72	127
296.9360090702948	297.121768707483	85	127
296.9360090702948	297.121768707483	73	127
297.121768707483	297.31913832199547	86	127
297.121768707483	297.31913832199547	74	127
297.31913832199547	297.4700453514739	88	127
297.31913832199547	297.4700453514739	76	127
297.50489795918367	297.73709750566894	38	127
297.50489795918367	297.73709750566894	50	127
297.50489795918367	298.14344671201815	77	127
297.50489795918367	298.14344671201815	89	127
298.14344671201815	298.2595464852608	88	127
298.14344671201815	298.2595464852608	76	127
298.2595464852608	298.32920634920634	86	127
298.2595464852608	298.32920634920634	74	127
298.3524263038549	298.4801360544218	72	127
298.3524263038549	298.4801360544218	84	127
298.3524263038549	298.4801360544218	40	127
298.3524263038549	298.4801360544218	52	127
298.5614058956916	298.66589569161	72	127
298.5614058956916	298.66589569161	84	127
298.5614058956916	298.66589569161	52	127
298.5614058956916	298.66589569161	64	127
298.80519274376417	298.8516553287982	83	127
298.80519274376417	298.8516553287982	71	127
298.80519274376417	298.8516553287982	52	127
298.80519274376417	298.8516553287982	64	127
298.9677551020408	299.08385487528346	71	127
298.9677551020408	299.08385487528346	83	127
298.9677551020408	299.08385487528346	52	127
298.9677551020408	299.08385487528346	64	127
299.18834467120183	299.36249433106576	57	127
299.18834467120183	299.36249433106576	45	127
299.18834467120183	299.36249433106576	81	127
299.18834467120183	299.36249433106576	69	127
299.67596371882087	299.78045351473924	88	127
299.78045351473924	299.8849433106576	84	127
299.8849433106576	299.95460317460316	81	127
299.95460317460316	300.04748299319726	64	127
299.95460317460316	300.04748299319726	71	127
299.95460317460316	300.04748299319726	74	127
299.95460317460316	300.03585034013605	80	127
300.4886621315193	300.59315192743765	88	127
300.59315192743765	300.6744217687075	83	127
300.6744217687075	300.7905215419501	80	127
300.7905215419501	300.8834013605442	81	127
300.7905215419501	300.8950113378685	72	127
300.7905215419501	300.8950113378685	69	127
301.3361904761905	301.4174603174603	76	127
301.4174603174603	301.5103401360544	72	127
301.5103401360544	301.62643990929706	69	127
301.62643990929706	301.71931972789116	68	127
301.62643990929706	301.75414965986397	52	127
301.62643990929706	301.75414965986397	59	127
301.62643990929706	301.75414965986397	62	127
302.17208616780044	302.23015873015873	76	127
302.23015873015873	302.3462585034014	71	127
302.3462585034014	302.4391383219955	68	127
302.4391383219955	302.54362811791384	57	127
302.4391383219955	302.54362811791384	60	127
302.4391383219955	302.5204081632653	69	127
302.9731972789116	303.04285714285714	64	127
303.04285714285714	303.1473469387755	60	127
303.1473469387755	303.20537414965986	57	127
303.20537414965986	303.26344671201815	50	127
303.20537414965986	303.26344671201815	47	127
303.20537414965986	303.26344671201815	40	127
303.20537414965986	303.22861678004534	56	127
303.7742857142857	303.85555555555555	64	127
303.85555555555555	303.9716553287982	59	127
303.9716553287982	304.0645351473923	56	127
304.0645351473923	304.18063492063493	48	127
304.0645351473923	304.1574149659864	57	127
304.0645351473923	304.18063492063493	45	127
304.7378911564626	304.90045351473924	69	127
304.7378911564626	304.90045351473924	57	127
304.90045351473924	305.0049433106576	64	127
304.90045351473924	305.0049433106576	52	127
305.0049433106576	305.1326530612245	60	127
305.0049433106576	305.1326530612245	48	127
305.1326530612245	305.376462585034	57	127
305.1326530612245	305.376462585034	45	127
305.9221315192744	306.11950113378686	57	127
305.9221315192744	306.11950113378686	45	127
306.11950113378686	306.30526077097505	40	127
306.11950113378686	306.30526077097505	52	127
306.30526077097505	306.479410430839	36	127
306.30526077097505	306.479410430839	48	127
306.52585034013606	308.685306122449	33	127
306.52585034013606	308.685306122449	45	127
