# onset,offset,note,velocity
1.7407256235827664	2.5418140589569163	64	127
2.5418140589569163	3.412562358276644	64	127
3.412562358276644	4.1788208616780045	64	127
4.1788208616780045	4.991519274376417	64	127
4.991519274376417	5.177278911564626	64	127
5.177278911564626	5.560408163265306	69	127
5.560408163265306	5.989977324263038	69	127
5.989977324263038	6.407936507936508	69	127
6.407936507936508	6.628526077097506	69	127
6.733015873015873	6.814285714285714	69	127
6.883945578231293	6.965215419501134	66	127
7.046485260770975	7.150975056689342	66	127
7.278684807256236	7.487664399092971	59	127
7.952063492063492	8.068163265306122	64	127
8.068163265306122	8.300340136054421	72	127
8.300340136054421	8.474512471655329	71	127
8.474512471655329	8.683492063492064	69	127
8.683492063492064	8.915691609977324	68	127
8.915691609977324	9.113061224489796	69	127
9.113061224489796	9.287210884353742	71	127
9.287210884353742	9.461360544217687	72	127
9.461360544217687	9.647120181405896	69	127
9.693537414965986	9.902539682539683	74	127
9.902539682539683	10.15795918367347	72	127
10.15795918367347	10.30888888888889	71	127
10.30888888888889	10.45981859410431	70	127
10.45981859410431	10.65718820861678	71	127
10.65718820861678	10.900975056689342	72	127
10.900975056689342	11.109977324263038	74	127
11.109977324263038	11.295736961451247	71	127
11.342154195011338	11.504716553287983	72	127
11.504716553287983	11.667256235827665	73	127
11.667256235827665	11.829795918367347	74	127
11.829795918367347	11.980725623582767	76	127
12.027165532879819	12.630884353741497	77	127
12.630884353741497	12.723764172335601	76	127
12.723764172335601	12.793424036281179	74	127
12.805034013605443	12.921133786848072	72	127
13.037233560090703	13.164943310657597	72	127
13.257823129251701	13.362312925170068	71	127
13.431972789115646	13.478412698412699	71	127
13.513242630385488	13.594512471655328	74	127
13.594512471655328	13.710612244897959	72	127
13.710612244897959	13.838321995464852	71	127
13.838321995464852	13.931201814058957	72	127
13.954421768707483	14.082131519274377	69	127
14.175011337868481	14.349160997732426	71	127
14.349160997732426	14.430430839002268	72	127
14.546530612244897	14.709070294784581	73	127
14.709070294784581	14.77873015873016	74	127
14.918049886621315	15.01092970521542	76	127
15.115419501133786	15.672698412698413	77	127
15.672698412698413	15.812018140589569	76	127
15.812018140589569	15.904897959183673	74	127
15.939727891156462	16.032607709750568	72	127
16.032607709750568	16.11387755102041	74	127
16.11387755102041	16.22997732426304	72	127
16.22997732426304	16.31124716553288	74	127
16.334444444444443	16.462154195011337	71	127
16.462154195011337	16.57827664399093	72	127
16.57827664399093	16.671156462585035	71	127
16.671156462585035	16.7756462585034	72	127
16.787256235827666	16.984625850340137	69	127
17.94825396825397	18.168843537414965	60	127
18.784172335600907	18.935079365079364	64	127
19.503968253968253	19.67814058956916	67	127
20.316689342403627	20.502448979591836	72	127
21.0481179138322	21.291927437641725	76	127
21.291927437641725	21.535714285714285	70	127
21.535714285714285	21.709886621315192	73	127
21.709886621315192	21.96530612244898	76	127
21.96530612244898	22.127845804988663	79	127
22.127845804988663	22.38326530612245	82	127
22.38326530612245	22.56902494331066	85	127
22.615442176870747	22.917324263038548	88	127
22.917324263038548	23.53265306122449	88	127
23.53265306122449	23.741632653061224	86	127
24.5659410430839	24.821360544217686	68	127
24.821360544217686	25.041950113378686	71	127
25.041950113378686	25.18126984126984	74	127
25.18126984126984	25.36702947845805	77	127
25.36702947845805	25.564399092970522	80	127
25.564399092970522	25.73854875283447	83	127
25.784988662131518	26.191337868480726	86	127
26.191337868480726	26.80666666666667	86	127
26.80666666666667	26.992426303854874	84	127
27.85156462585034	28.060544217687074	63	127
28.060544217687074	28.31596371882086	66	127
28.31596371882086	28.50172335600907	69	127
28.50172335600907	28.69909297052154	72	127
28.69909297052154	28.861632653061225	75	127
28.861632653061225	29.03578231292517	78	127
29.08222222222222	29.48857142857143	81	127
29.48857142857143	30.115510204081634	81	127
30.115510204081634	30.278049886621314	79	127
30.33609977324263	30.93981859410431	84	127
30.93981859410431	31.10235827664399	83	127
31.12557823129252	31.531927437641723	81	127
31.531927437641723	31.857006802721088	79	127
31.90344671201814	32.50716553287982	78	127
32.50716553287982	32.68131519274377	79	127
32.73936507936508	32.983174603174604	72	127
32.983174603174604	33.180521541950114	71	127
33.55204081632653	33.77265306122449	75	127
33.77265306122449	33.9584126984127	76	127
34.39959183673469	34.794331065759636	72	127
34.794331065759636	35.16585034013605	71	127
35.16585034013605	35.36321995464853	69	127
35.36321995464853	35.52575963718821	67	127
35.52575963718821	35.63024943310658	64	127
35.63024943310658	35.734739229024946	67	127
35.75795918367347	35.885668934240364	71	127
36.384897959183675	36.489387755102044	64	127
36.489387755102044	36.59385487528345	69	127
36.61709750566894	36.72156462585034	72	127
37.22081632653061	37.33691609977324	64	127
37.33691609977324	37.40657596371882	67	127
37.42979591836735	37.534285714285716	71	127
37.998662131519275	38.1031746031746	64	127
38.1031746031746	38.184444444444445	69	127
38.20766439909297	38.3237641723356	72	127
38.82299319727891	38.93909297052154	64	127
38.93909297052154	39.03197278911565	68	127
39.055192743764174	39.171292517006805	71	127
39.76337868480726	39.89108843537415	68	127
39.89108843537415	40.00721088435374	71	127
40.042040816326534	40.204580498866214	74	127
40.34390022675737	40.541269841269845	71	127
40.541269841269845	40.72702947845805	74	127
40.808299319727894	44.18680272108843	77	127
44.18680272108843	44.79052154195011	76	127
44.79052154195011	45.359410430839006	74	127
45.44068027210884	45.54517006802721	73	127
45.54517006802721	45.66126984126984	74	127
45.66126984126984	45.76575963718821	73	127
45.76575963718821	45.88185941043084	74	127
45.88185941043084	45.986326530612246	73	127
45.986326530612246	46.11403628117914	74	127
46.11403628117914	46.24174603174603	76	127
46.24174603174603	47.51886621315193	74	127
56.9809977324263	57.79369614512472	64	127
57.79369614512472	58.64122448979592	64	127
58.64122448979592	59.38426303854875	64	127
59.38426303854875	60.220181405895694	64	127
60.220181405895694	60.41755102040816	64	127
60.41755102040816	60.82390022675737	69	127
60.82390022675737	61.23024943310658	69	127
61.23024943310658	61.61337868480726	69	127
61.61337868480726	61.85718820861678	69	127
61.93845804988662	62.031337868480726	69	127
62.12421768707483	62.228707482993194	66	127
62.35641723356009	62.42607709750567	66	127
62.50734693877551	62.69310657596372	59	127
63.122675736961455	63.285215419501135	64	127
63.285215419501135	63.4825850340136	72	127
63.4825850340136	63.64512471655329	71	127
63.64512471655329	63.888934240362815	69	127
63.888934240362815	64.07469387755103	68	127
64.07469387755103	64.28367346938775	69	127
64.28367346938775	64.46943310657596	71	127
64.46943310657596	64.69	72	127
64.69	64.87578231292517	69	127
64.93383219954649	65.0847619047619	74	127
65.0847619047619	65.31696145124717	72	127
65.31696145124717	65.47950113378685	71	127
65.47950113378685	65.71167800453514	70	127
65.71167800453514	65.92068027210884	71	127
65.92068027210884	66.12965986394558	72	127
66.12965986394558	66.30380952380952	74	127
66.30380952380952	66.4779365079365	71	127
66.51278911564626	66.75659863945579	72	127
66.75659863945579	66.98879818594105	73	127
66.98879818594105	67.15133786848072	74	127
67.15133786848072	67.26743764172336	76	127
67.27904761904762	67.85952380952381	77	127
67.85952380952381	67.91759637188208	76	127
67.91759637188208	68.02208616780045	74	127
68.04530612244898	68.18462585034014	72	127
68.26589569160998	68.35877551020408	72	127
68.45165532879818	68.57936507936508	71	127
68.66063492063492	68.70707482993197	71	127
68.7302947845805	68.81156462585034	74	127
68.81156462585034	68.92766439909298	72	127
68.92766439909298	69.06698412698412	71	127
69.06698412698412	69.17147392290249	72	127
69.18308390022676	69.29918367346939	69	127
69.41528344671202	69.5778231292517	71	127
69.5778231292517	69.63587301587302	72	127
69.74036281179139	69.91451247165533	73	127
69.91451247165533	69.99578231292517	74	127
70.13507936507936	70.21637188208616	76	127
70.29764172335601	70.93619047619048	77	127
70.93619047619048	71.04068027210884	76	127
71.04068027210884	71.12195011337869	74	127
71.13356009070294	71.24965986394558	72	127
71.24965986394558	71.3657596371882	74	127
71.3657596371882	71.47024943310657	72	127
71.47024943310657	71.55151927437642	74	127
71.57473922902494	71.65600907029479	71	127
71.65600907029479	71.78371882086168	72	127
71.78371882086168	71.841768707483	71	127
71.841768707483	71.88820861678005	72	127
71.92301587301587	72.16684807256236	69	127
73.17689342403628	73.3278231292517	73	127
73.39750566893424	73.45553287981859	73	127
73.90834467120182	74.04766439909297	71	127
74.17537414965986	74.22181405895692	71	127
74.72104308390023	74.84875283446712	74	127
74.98807256235828	75.05773242630386	74	127
75.51052154195011	75.638231292517	73	127
75.75433106575964	75.7659410430839	73	127
76.27678004535147	76.36963718820861	73	127
76.43931972789116	76.50897959183673	73	127
77.06625850340136	77.182358276644	73	127
77.21718820861678	77.22879818594105	73	127
77.85573696145124	78.0066439909297	73	127
78.04149659863945	78.07632653061225	73	127
78.72648526077097	79.55079365079365	78	127
80.38671201814059	80.52603174603175	74	127
80.67696145124717	80.71179138321996	74	127
81.26907029478458	81.39678004535148	73	127
81.44321995464853	81.4548299319728	73	127
82.00049886621315	82.12820861678004	76	127
82.72031746031746	82.83639455782313	74	127
82.96410430839002	83.03378684807257	74	127
83.56784580498866	83.68394557823129	74	127
84.41537414965987	84.57791383219954	74	127
84.728820861678	84.79850340136055	74	127
85.49507936507936	87.87514739229024	79	127
88.51369614512471	88.62979591836735	77	127
89.29156462585034	89.45410430839003	77	127
89.67469387755102	89.84884353741496	77	127
90.88213151927438	93.71496598639456	76	127
95.13138321995464	95.90925170068027	64	127
95.90925170068027	96.76839002267573	64	127
96.76839002267573	97.52303854875284	64	127
97.52303854875284	98.33573696145125	64	127
98.33573696145125	98.50988662131519	64	127
98.50988662131519	98.89301587301587	69	127
98.89301587301587	99.27614512471655	69	127
99.27614512471655	99.7637641723356	69	127
99.7637641723356	99.96113378684807	69	127
100.06562358276643	100.13528344671202	69	127
100.22816326530612	100.2978231292517	66	127
100.39070294784581	100.44875283446711	66	127
100.57646258503401	100.78544217687075	59	127
101.24984126984127	101.37755102040816	64	127
101.37755102040816	101.59814058956916	72	127
101.59814058956916	101.73746031746032	71	127
101.73746031746032	101.96965986394558	69	127
101.96965986394558	102.15541950113379	68	127
102.15541950113379	102.36439909297052	69	127
102.36439909297052	102.53854875283447	71	127
102.53854875283447	102.73591836734694	72	127
102.73591836734694	102.92167800453515	69	127
102.97972789115646	103.14226757369615	74	127
103.14226757369615	103.39768707482993	72	127
103.39768707482993	103.61827664399092	71	127
103.61827664399092	103.76920634920634	70	127
103.76920634920634	103.98979591836735	71	127
103.98979591836735	104.19877551020409	72	127
104.19877551020409	104.39614512471655	74	127
104.39614512471655	104.5354648526077	71	127
104.54707482993197	104.74444444444444	72	127
104.74444444444444	104.94181405895692	73	127
104.94181405895692	105.09274376417234	74	127
105.09274376417234	105.27850340136054	76	127
105.33655328798186	105.94027210884354	77	127
105.94027210884354	106.0447619047619	76	127
106.0447619047619	106.13764172335601	74	127
106.16086167800454	106.2653514739229	72	127
106.3930612244898	106.49755102040817	72	127
106.56721088435374	106.66009070294784	71	127
106.7065306122449	106.77619047619048	71	127
106.85746031746032	106.97356009070295	74	127
106.97356009070295	107.08965986394558	72	127
107.08965986394558	107.19414965986394	71	127
107.19414965986394	107.240589569161	72	127
107.26380952380953	107.37990929705215	69	127
107.49600907029479	107.63532879818594	71	127
107.63532879818594	107.69337868480726	72	127
107.82108843537415	108.00684807256236	73	127
108.00684807256236	108.07650793650794	74	127
108.16938775510204	108.23904761904762	76	127
108.35514739229025	109.01691609977324	77	127
109.01691609977324	109.09818594104308	76	127
109.09818594104308	109.17945578231293	74	127
109.20267573696145	109.29555555555555	72	127
109.29555555555555	109.41165532879819	74	127
109.41165532879819	109.49292517006803	72	127
109.49292517006803	109.56258503401361	74	127
109.58580498866213	109.6902947845805	71	127
109.6902947845805	109.7831746031746	72	127
109.7831746031746	109.93410430839002	71	127
109.93410430839002	110.02698412698413	72	127
110.05020408163266	110.3520634920635	69	127
110.83968253968254	111.09510204081633	72	127
111.09510204081633	112.08195011337868	77	127
112.08195011337868	112.9875283446712	76	127
112.9875283446712	113.85827664399093	82	127
113.85827664399093	114.75224489795919	81	127
114.75224489795919	115.58816326530612	79	127
115.58816326530612	116.4124716553288	78	127
116.5053514739229	116.59823129251701	81	127
116.59823129251701	116.65628117913832	79	127
116.65628117913832	116.73755102040816	81	127
116.73755102040816	116.818820861678	79	127
116.818820861678	116.9117006802721	81	127
116.9117006802721	116.99297052154195	79	127
116.99297052154195	117.26	81	127
117.26	117.53863945578232	82	127
117.53863945578232	118.07269841269841	81	127
118.07269841269841	118.3281179138322	79	127
118.97827664399092	119.04793650793651	71	127
119.18725623582766	119.31496598639455	71	127
119.31496598639455	119.51233560090704	72	127
119.76775510204082	119.87224489795918	71	127
119.99995464852607	120.22054421768708	71	127
120.22054421768708	120.42952380952381	72	127
120.69655328798186	120.8126530612245	71	127
120.88231292517007	121.12612244897959	71	127
121.12612244897959	121.3118820861678	72	127
121.52086167800454	121.60213151927438	71	127
121.69501133786848	121.91560090702947	71	127
121.91560090702947	122.11297052154195	72	127
122.35678004535147	122.42643990929706	73	127
122.51931972789116	122.76312925170068	73	127
122.76312925170068	122.93727891156463	74	127
122.99532879818594	123.20430839002267	78	127
123.20430839002267	123.43650793650794	74	127
123.43650793650794	123.6687074829932	79	127
123.6687074829932	123.85446712018141	74	127
123.90090702947846	124.12149659863945	77	127
124.12149659863945	124.35369614512472	72	127
124.35369614512472	124.56267573696145	76	127
124.56267573696145	124.78326530612244	70	127
124.84131519274376	125.11995464852608	69	127
125.52630385487528	125.79333333333334	72	127
125.79333333333334	126.69891156462585	84	127
126.69891156462585	127.58126984126984	81	127
127.58126984126984	128.49843537414966	86	127
128.49843537414966	129.31115646258505	82	127
129.31115646258505	130.3328344671202	79	127
130.3328344671202	131.27324263038548	81	127
131.27324263038548	131.76086167800455	77	127
131.76086167800455	132.27170068027212	82	127
132.27170068027212	132.34136054421768	79	127
132.50390022675737	132.794126984127	74	127
132.794126984127	133.03795918367348	72	127
133.03795918367348	133.27015873015873	70	127
133.31659863945578	133.42108843537414	69	127
133.502358276644	133.6184580498866	71	127
133.74616780045352	134.01319727891158	72	127
134.01319727891158	134.19895691609977	74	127
134.39632653061224	134.5008163265306	72	127
134.61691609977325	134.86072562358277	72	127
134.86072562358277	135.0697052154195	73	127
135.27868480725624	135.3831746031746	73	127
135.48766439909298	135.69664399092972	73	127
135.69664399092972	135.90562358276645	74	127
136.1378231292517	136.2190702947846	73	127
136.34680272108844	136.57897959183674	73	127
136.57897959183674	136.78798185941042	74	127
137.07823129251702	137.14789115646258	71	127
137.26399092970522	137.46136054421768	71	127
137.46136054421768	137.62390022675737	72	127
137.67034013605442	137.85607709750568	72	127
137.85607709750568	138.0882993197279	77	127
138.0882993197279	138.29727891156463	74	127
138.29727891156463	138.54108843537415	79	127
138.54108843537415	138.7268253968254	77	127
138.7268253968254	138.92421768707484	72	127
138.92421768707484	139.1564172335601	76	127
139.1564172335601	139.35378684807256	70	127
139.41183673469388	139.67886621315193	69	127
140.17809523809524	140.4451247165533	72	127
140.4451247165533	141.37392290249434	77	127
141.37392290249434	142.29111111111112	76	127
142.29111111111112	143.16185941043085	82	127
143.16185941043085	144.07904761904763	81	127
144.07904761904763	144.97301587301587	79	127
144.97301587301587	145.73927437641723	78	127
145.85537414965987	145.92503401360545	81	127
145.92503401360545	145.99469387755101	79	127
145.99469387755101	146.08755102040817	81	127
146.08755102040817	146.16884353741497	79	127
146.16884353741497	146.2501133786848	78	127
146.2501133786848	146.33138321995466	79	127
146.33138321995466	146.57519274376418	81	127
146.57519274376418	146.85380952380953	82	127
146.85380952380953	147.37628117913832	81	127
147.37628117913832	147.59687074829932	79	127
147.9451700680272	148.1077097505669	69	127
148.1077097505669	148.22380952380954	72	127
148.22380952380954	148.39795918367346	77	127
148.39795918367346	148.54888888888888	81	127
148.54888888888888	148.72303854875284	79	127
148.72303854875284	148.85074829931972	77	127
148.88557823129253	149.04809523809524	82	127
149.04809523809524	149.18743764172336	79	127
149.18743764172336	149.33836734693878	76	127
149.33836734693878	149.50090702947847	70	127
149.50090702947847	149.6518367346939	67	127
149.6518367346939	149.77954648526077	65	127
149.8143537414966	149.965306122449	64	127
149.965306122449	150.1162358276644	67	127
150.1162358276644	150.25555555555556	70	127
150.25555555555556	150.40648526077098	76	127
150.40648526077098	150.5574149659864	77	127
150.5574149659864	150.69673469387754	79	127
150.73156462585035	150.8708843537415	81	127
150.8708843537415	150.99859410430838	77	127
150.99859410430838	151.13791383219956	72	127
151.13791383219956	151.3120634920635	77	127
151.3120634920635	151.47460317460317	72	127
151.47460317460317	151.5907029478458	69	127
151.61392290249432	151.776462585034	74	127
151.776462585034	151.9390022675737	70	127
151.9390022675737	152.1247619047619	67	127
152.1247619047619	152.31052154195012	70	127
152.31052154195012	152.46145124716554	67	127
152.46145124716554	152.58916099773242	62	127
152.62399092970523	152.7865306122449	60	127
152.7865306122449	152.87941043083902	62	127
152.87941043083902	153.01873015873016	66	127
153.01873015873016	153.18126984126985	58	127
153.18126984126985	153.30897959183673	62	127
153.30897959183673	153.42507936507937	67	127
153.45990929705215	153.6340589569161	65	127
153.6340589569161	153.80820861678004	69	127
153.80820861678004	153.93591836734694	65	127
153.93591836734694	154.08684807256236	64	127
154.08684807256236	154.26097505668935	60	127
154.26097505668935	154.37709750566893	58	127
154.41192743764174	154.5744671201814	57	127
154.5744671201814	154.7021768707483	65	127
154.7021768707483	154.8763038548753	69	127
154.8763038548753	155.0504761904762	72	127
155.0504761904762	155.22462585034015	77	127
155.22462585034015	155.3639455782313	81	127
155.41038548752834	156.37401360544217	84	127
156.37401360544217	157.2447619047619	81	127
157.2447619047619	158.17356009070295	86	127
158.17356009070295	159.06750566893425	82	127
159.06750566893425	159.984716553288	79	127
159.984716553288	160.83224489795919	81	127
160.83224489795919	161.2966439909297	77	127
161.2966439909297	161.69138321995464	82	127
161.7726530612245	161.90036281179138	79	127
162.73628117913833	162.92204081632653	57	127
162.92204081632653	163.10777777777778	60	127
163.10777777777778	163.2471201814059	65	127
163.2471201814059	163.4096598639456	69	127
163.4096598639456	163.54897959183674	70	127
163.54897959183674	163.66507936507938	69	127
163.69990929705216	163.88566893424036	67	127
163.88566893424036	164.03659863945578	66	127
164.03659863945578	164.19913832199546	67	127
164.19913832199546	164.36167800453515	70	127
164.36167800453515	164.52421768707484	69	127
164.52421768707484	164.6402947845805	67	127
164.68675736961453	164.84929705215418	66	127
164.84929705215418	165.00020408163266	69	127
165.00020408163266	165.10471655328797	67	127
165.10471655328797	165.25562358276645	66	127
165.25562358276645	165.42979591836735	67	127
165.42979591836735	165.54589569160999	69	127
165.58072562358277	165.75487528344672	70	127
165.75487528344672	165.89419501133787	74	127
165.89419501133787	166.0451247165533	72	127
166.0451247165533	166.16122448979593	70	127
166.16122448979593	166.33537414965986	72	127
166.33537414965986	166.48630385487527	69	127
166.5095238095238	166.66045351473923	67	127
166.66045351473923	166.81138321995465	65	127
166.81138321995465	166.96231292517007	64	127
166.96231292517007	167.13646258503402	62	127
167.13646258503402	167.31061224489795	60	127
167.31061224489795	167.43832199546486	58	127
167.47315192743764	167.6124716553288	57	127
167.6124716553288	167.75179138321997	60	127
167.75179138321997	168.08848072562358	65	127
168.08848072562358	168.25102040816327	62	127
168.25102040816327	168.37873015873015	67	127
168.42514739229026	168.59931972789116	65	127
168.59931972789116	168.76185941043084	60	127
168.76185941043084	168.901179138322	65	127
168.901179138322	169.0288888888889	64	127
169.0288888888889	169.19140589569162	60	127
169.19140589569162	169.3075283446712	58	127
169.35396825396825	169.6209977324263	57	127
172.17519274376417	172.27968253968254	72	127
172.27968253968254	172.44222222222223	71	127
172.44222222222223	172.60476190476192	72	127
172.60476190476192	172.76727891156463	74	127
172.76727891156463	172.89501133786848	76	127
172.92984126984126	173.359410430839	79	127
173.359410430839	173.533537414966	77	127
175.63496598639455	175.73945578231292	76	127
175.73945578231292	175.9019954648526	75	127
175.9019954648526	176.0645351473923	76	127
176.0645351473923	176.23868480725625	78	127
176.23868480725625	176.36639455782313	80	127
176.38961451247167	176.88884353741497	83	127
176.88884353741497	177.10943310657598	81	127
177.597052154195	177.7595918367347	69	127
177.7595918367347	177.9453514739229	72	127
177.96857142857144	178.0730612244898	72	127
178.39814058956915	178.58390022675738	69	127
178.58390022675738	178.7464172335601	72	127
178.80448979591836	178.88575963718822	72	127
179.21081632653062	179.3965986394558	69	127
179.3965986394558	179.582358276644	72	127
179.60557823129253	180.08156462585035	72	127
180.08156462585035	180.53437641723357	72	127
180.53437641723357	180.66208616780045	72	127
180.8014058956916	181.66052154195012	72	127
181.66052154195012	182.12492063492064	71	127
182.12492063492064	182.5893424036281	69	127
182.5893424036281	183.57619047619048	69	127
183.57619047619048	183.75034013605443	68	127
184.05219954648527	184.14507936507937	76	127
184.14507936507937	184.19151927437642	75	127
184.19151927437642	184.24956916099774	76	127
184.24956916099774	184.31920634920635	75	127
184.31920634920635	184.41210884353742	73	127
184.41210884353742	184.48176870748298	75	127
184.48176870748298	185.38734693877552	78	127
185.38734693877552	185.5963038548753	76	127
185.88657596371883	185.97945578231293	80	127
185.97945578231293	186.0607029478458	78	127
186.0607029478458	186.15360544217688	80	127
186.15360544217688	186.20004535147393	78	127
186.20004535147393	186.24648526077098	76	127
186.24648526077098	186.33936507936508	78	127
186.33936507936508	187.23331065759638	81	127
187.23331065759638	187.33780045351475	80	127
187.67451247165533	187.7790022675737	82	127
188.11569160997732	188.24340136054423	83	127
189.36956916099774	189.5088888888889	84	127
190.21709750566893	190.35641723356008	86	127
191.18072562358276	194.91913832199546	80	127
195.67378684807255	196.54453514739228	64	127
196.54453514739228	197.34562358276645	64	127
197.34562358276645	198.13510204081632	64	127
198.13510204081632	198.91297052154195	64	127
198.91297052154195	199.1451700680272	64	127
199.1451700680272	199.53990929705216	69	127
199.53990929705216	199.9346485260771	69	127
199.9346485260771	200.35260770975057	69	127
200.35260770975057	200.57319727891158	69	127
200.66607709750568	200.724126984127	69	127
200.8170068027211	200.92149659863946	66	127
201.01437641723356	201.14208616780044	66	127
201.17691609977325	201.39750566893423	59	127
201.82707482993197	201.96639455782312	64	127
201.96639455782312	202.15215419501135	72	127
202.15215419501135	202.3611337868481	71	127
202.3611337868481	202.59333333333333	69	127
202.59333333333333	202.80231292517007	68	127
202.80231292517007	203.02290249433108	69	127
203.02290249433108	203.20866213151928	71	127
203.20866213151928	203.46408163265306	72	127
203.46408163265306	203.5801814058957	69	127
203.62662131519275	203.81238095238095	74	127
203.81238095238095	204.02136054421769	72	127
204.02136054421769	204.21873015873015	71	127
204.21873015873015	204.46253968253967	70	127
204.46253968253967	204.6715192743764	71	127
204.6715192743764	204.86888888888888	72	127
204.86888888888888	205.0546485260771	74	127
205.0546485260771	205.19396825396825	71	127
205.2404081632653	205.4609977324263	72	127
205.4609977324263	205.623537414966	73	127
205.623537414966	205.7744671201814	74	127
205.7744671201814	205.94861678004534	76	127
205.98344671201815	206.58716553287982	77	127
206.58716553287982	206.66843537414965	76	127
206.66843537414965	206.77292517006802	74	127
206.79614512471656	206.8774149659864	72	127
207.0051247165533	207.13283446712018	72	127
207.1908843537415	207.26054421768708	71	127
207.3418140589569	207.434693877551	71	127
207.51596371882087	207.62045351473924	74	127
207.62045351473924	207.7249433106576	72	127
207.7249433106576	207.82943310657598	71	127
207.82943310657598	207.9107029478458	72	127
207.93392290249434	208.05002267573695	69	127
208.18934240362813	208.3518820861678	71	127
208.3518820861678	208.44476190476192	72	127
208.53764172335602	208.73501133786849	73	127
208.73501133786849	208.81628117913831	74	127
208.9556009070295	209.06009070294783	76	127
209.1645804988662	209.7682993197279	77	127
209.7682993197279	209.87278911564627	76	127
209.87278911564627	209.9540589569161	74	127
209.96566893424037	210.07015873015874	72	127
210.07015873015874	210.12820861678006	74	127
210.12820861678006	210.2094784580499	72	127
210.2094784580499	210.2675283446712	74	127
210.302358276644	210.39523809523808	71	127
210.39523809523808	210.49972789115645	72	127
210.49972789115645	210.60421768707482	71	127
210.60421768707482	210.68548752834468	72	127
210.7087074829932	210.9525170068027	69	127
211.16149659863945	211.18471655328798	57	127
211.16149659863945	211.32403628117913	64	127
211.18471655328798	211.32403628117913	72	127
212.00902494331066	212.06707482993198	57	127
212.00902494331066	212.22961451247164	64	127
212.06707482993198	212.22961451247164	72	127
212.79850340136053	212.98426303854876	67	127
212.79850340136053	212.85655328798185	59	127
212.85655328798185	212.98426303854876	74	127
213.5995918367347	213.65764172335602	59	127
213.5995918367347	213.80857142857144	67	127
213.65764172335602	213.80857142857144	74	127
214.47034013605443	214.55160997732426	60	127
214.47034013605443	214.70253968253968	67	127
214.55160997732426	214.70253968253968	76	127
215.22498866213152	215.2946485260771	64	127
215.22498866213152	215.2946485260771	61	127
215.2946485260771	215.4804081632653	76	127
215.2946485260771	215.4804081632653	69	127
215.9564172335601	216.1421768707483	69	127
215.9564172335601	216.0144671201814	62	127
216.0144671201814	216.1421768707483	77	127
216.50208616780046	216.62979591836734	72	127
216.50208616780046	216.5485260770975	64	127
216.5485260770975	216.62979591836734	81	127
216.93165532879817	216.97809523809525	64	127
216.93165532879817	217.03614512471654	71	127
216.97809523809525	217.03614512471654	80	127
217.16385487528345	217.31478458049887	72	127
217.16385487528345	217.23351473922904	64	127
217.23351473922904	217.31478458049887	81	127
217.45410430839001	217.48893424036282	64	127
217.5237641723356	217.55859410430838	69	127
217.6166439909297	217.63986394557824	72	127
217.67469387755102	217.73274376417234	69	127
217.79079365079366	217.84884353741498	72	127
217.89528344671203	217.95333333333335	69	127
218.0229931972789	218.08104308390023	72	127
218.13909297052155	218.17392290249433	69	127
218.23197278911564	218.29002267573696	64	127
218.336462585034	218.3712925170068	69	127
218.41773242630384	218.46417233560092	72	127
218.5222222222222	218.55705215419502	69	127
218.60349206349207	218.67315192743763	72	127
218.73120181405895	218.74281179138322	69	127
218.8124716553288	218.87052154195013	74	127
218.92857142857142	218.9750113378685	71	127
219.03306122448978	219.0911111111111	67	127
219.13755102040815	219.19560090702947	71	127
219.26526077097506	219.28848072562357	74	127
219.36975056689343	219.42780045351475	71	127
219.48585034013607	219.53229024943312	74	127
219.53229024943312	219.60195011337868	71	127
219.66	219.69482993197278	74	127
219.7528798185941	219.7877097505669	71	127
219.82253968253968	219.86897959183673	67	127
219.91541950113378	219.98507936507937	71	127
220.0431292517007	220.08956916099774	74	127
220.14761904761906	220.18244897959184	71	127
220.25210884353743	220.31015873015872	74	127
220.36820861678004	220.39142857142858	71	127
220.43786848072563	220.48430839002268	76	127
220.55396825396826	220.61201814058956	72	127
220.68167800453514	220.73972789115646	67	127
220.7861678004535	220.8209977324263	72	127
220.8790476190476	220.93709750566893	76	127
220.96031746031747	221.00675736961452	72	127
221.02997732426303	221.07641723356008	76	127
221.1344671201814	221.19251700680272	72	127
221.25056689342404	221.32022675736962	76	127
221.36666666666667	221.41310657596372	73	127
221.47115646258504	221.50598639455782	69	127
221.56403628117914	221.6104761904762	73	127
221.6685260770975	221.73818594104307	76	127
221.7962358276644	221.81945578231293	73	127
221.86589569160998	221.90072562358276	76	127
221.9239455782313	221.97038548752835	73	127
222.00521541950113	222.07487528344672	77	127
222.12131519274377	222.17936507936508	74	127
222.24902494331064	222.27224489795918	69	127
222.30707482993196	222.34190476190477	74	127
222.3999546485261	222.46961451247165	77	127
222.5160544217687	222.57410430839002	74	127
222.63215419501134	222.66698412698412	77	127
222.70181405895693	222.75986394557822	74	127
222.8295238095238	222.84113378684808	72	127
222.87596371882086	222.94562358276644	76	127
223.00367346938776	223.07333333333332	72	127
223.13138321995464	223.18943310657596	69	127
223.235873015873	223.29392290249433	68	127
223.3287528344671	223.36358276643992	76	127
223.42163265306124	223.4680725623583	71	127
223.50290249433107	223.5609523809524	68	127
223.59578231292517	223.63061224489795	76	127
223.67705215419502	223.72349206349207	72	127
223.78154195011336	223.82798185941044	69	127
223.85120181405895	223.90925170068027	72	127
223.9673015873016	224.03696145124715	76	127
224.09501133786847	224.14145124716552	72	127
224.1878911564626	224.23433106575965	76	127
224.29238095238094	224.33882086167802	72	127
224.3968707482993	224.4665306122449	76	127
224.50136054421768	224.54780045351475	73	127
224.60585034013604	224.66390022675736	69	127
224.7103401360544	224.74517006802722	73	127
224.78	224.83804988662132	76	127
224.8728798185941	224.91931972789115	73	127
224.95414965986396	224.9657596371882	76	127
225.0354195011338	225.05863945578233	73	127
225.10507936507938	225.16312925170067	77	127
225.221179138322	225.26761904761904	74	127
225.32566893424035	225.36049886621316	69	127
225.41854875283445	225.45337868480726	74	127
225.51142857142858	225.55786848072563	77	127
225.60430839002268	225.65074829931973	74	127
225.69718820861678	225.74362811791383	77	127
225.81328798185942	225.85972789115647	74	127
225.95260770975057	225.99904761904762	72	127
226.0338775510204	226.08031746031747	76	127
226.12675736961452	226.17319727891157	72	127
226.2312471655329	226.26607709750567	69	127
226.30090702947845	226.35895691609977	68	127
226.4170068027211	226.4750566893424	76	127
226.52149659863946	226.57954648526078	71	127
226.62598639455783	226.67242630385488	68	127
226.68403628117915	226.71886621315193	76	127
226.77691609977325	226.83496598639456	72	127
226.86979591836734	226.9162358276644	69	127
226.96267573696144	226.99750566893425	72	127
227.0671655328798	227.1368253968254	76	127
227.18326530612245	227.24131519274377	72	127
227.28775510204082	227.31097505668933	76	127
227.3574149659864	227.38063492063492	72	127
227.43868480725624	227.49673469387756	76	127
227.50834467120183	227.56639455782312	73	127
227.62444444444444	227.67088435374149	69	127
227.74054421768707	227.78698412698412	73	127
227.8566439909297	227.91469387755103	76	127
227.97274376417235	228.0191836734694	73	127
228.0424036281179	228.08884353741496	76	127
228.1120634920635	228.14689342403628	73	127
228.19333333333333	228.25138321995465	77	127
228.30943310657597	228.37909297052155	74	127
228.4255328798186	228.47197278911565	69	127
228.5184126984127	228.55324263038548	74	127
228.59968253968253	228.63451247165534	77	127
228.6809523809524	228.7390022675737	74	127
228.797052154195	228.84349206349205	77	127
228.90154195011337	228.94798185941042	74	127
229.017641723356	229.07569160997733	77	127
229.13374149659865	229.15696145124716	74	127
229.21501133786848	229.28467120181406	69	127
229.30789115646257	229.31950113378684	65	127
229.3311111111111	229.4007709750567	62	127
229.458820861678	229.54009070294785	69	127
229.64458049886622	229.70263038548754	65	127
229.7722902494331	229.79551020408164	62	127
229.9	232.68639455782312	60	127
234.10281179138323	234.33501133786848	63	127
234.33501133786848	234.56721088435373	66	127
234.56721088435373	234.77619047619046	69	127
234.77619047619046	234.93873015873015	72	127
234.93873015873015	235.1477097505669	75	127
235.1477097505669	235.33346938775512	78	127
235.35668934240363	235.78625850340137	81	127
235.78625850340137	236.42480725623582	81	127
236.42480725623582	236.63378684807256	80	127
237.58580498866212	237.80639455782313	68	127
237.80639455782313	238.0385941043084	71	127
238.0385941043084	238.25918367346938	74	127
238.25918367346938	238.39850340136056	77	127
238.39850340136056	238.6307029478458	80	127
238.6307029478458	238.7932426303855	83	127
238.82807256235827	239.25764172335602	86	127
239.25764172335602	239.93102040816328	86	127
239.93102040816328	240.12839002267575	84	127
241.09201814058957	241.32421768707482	75	127
241.32421768707482	241.5564172335601	76	127
241.5564172335601	241.80022675736961	79	127
241.80022675736961	241.95115646258503	82	127
241.95115646258503	242.16013605442177	85	127
242.16013605442177	242.34589569160997	88	127
242.3691156462585	242.78707482993198	91	127
242.78707482993198	243.35596371882087	91	127
243.35596371882087	243.54172335600907	89	127
243.57655328798185	244.15705215419501	89	127
244.15705215419501	244.35442176870748	88	127
244.40086167800453	244.80721088435374	86	127
244.80721088435374	245.08585034013606	84	127
245.1671201814059	245.8172789115646	83	127
245.8172789115646	245.99142857142857	84	127
246.03786848072562	246.62997732426305	79	127
246.62997732426305	246.80412698412698	77	127
246.83895691609976	247.44267573696146	77	127
247.44267573696146	247.6168253968254	76	127
247.66326530612244	248.0580045351474	74	127
248.0580045351474	248.44113378684807	72	127
248.44113378684807	248.60367346938776	71	127
250.25229024943312	250.39160997732426	73	127
250.96049886621316	251.0765986394558	71	127
251.20430839002267	251.29718820861677	71	127
251.70353741496598	251.80802721088435	74	127
251.93573696145125	252.06344671201813	74	127
252.56267573696144	252.67877551020408	73	127
252.80648526077098	252.8645351473923	73	127
253.37537414965988	253.5495238095238	76	127
253.68884353741495	253.79333333333332	76	127
254.36222222222221	254.57120181405895	77	127
254.7453514739229	254.95433106575965	77	127
255.720589569161	257.8568253968254	77	127
258.3560544217687	258.6114739229025	65	127
258.6114739229025	259.6215419501134	70	127
259.6215419501134	260.4690476190476	69	127
260.4690476190476	261.3862358276644	75	127
261.3862358276644	262.2570068027211	74	127
262.2570068027211	263.22061224489795	72	127
263.22061224489795	264.12621315192746	71	127
264.12621315192746	264.2074829931973	74	127
264.2074829931973	264.27714285714285	72	127
264.27714285714285	264.3584126984127	74	127
264.3584126984127	264.45126984126983	72	127
264.45126984126983	264.53256235827666	71	127
264.53256235827666	264.6138321995465	72	127
264.6138321995465	264.8924716553288	74	127
264.8924716553288	265.13628117913834	75	127
265.1943310657596	265.7051700680272	74	127
265.7051700680272	265.91414965986394	72	127
266.4946258503401	266.70360544217687	70	127
266.70360544217687	266.9242176870748	74	127
266.9242176870748	267.1448072562358	77	127
268.2941950113379	268.49156462585034	69	127
268.49156462585034	268.6889342403628	72	127
268.6889342403628	268.8863038548753	77	127
270.0124716553288	270.24467120181407	71	127
270.24467120181407	270.50009070294783	74	127
270.50009070294783	270.66263038548755	77	127
271.7655782312925	271.962947845805	68	127
271.962947845805	272.1370975056689	71	127
272.1370975056689	272.3344671201814	76	127
273.4374149659864	273.64639455782316	69	127
273.64639455782316	273.8669841269841	72	127
273.8669841269841	274.0411337868481	81	127
275.19049886621315	275.3530612244898	72	127
275.3530612244898	275.56204081632654	76	127
275.56204081632654	275.759410430839	81	127
276.83913832199545	277.082947845805	74	127
277.082947845805	277.2687074829932	80	127
277.2687074829932	277.46607709750566	83	127
278.5806349206349	278.7780045351474	80	127
278.7780045351474	278.9985941043084	83	127
278.9985941043084	279.1843537414966	86	127
280.36857142857144	280.63560090702947	83	127
280.63560090702947	280.82136054421767	86	127
280.82136054421767	281.0071201814059	89	127
283.3639229024943	283.6193650793651	76	127
283.6193650793651	283.8051247165533	81	127
283.8051247165533	284.03732426303856	83	127
284.03732426303856	284.25791383219956	84	127
284.25791383219956	284.47850340136057	86	127
284.47850340136057	284.6874829931973	84	127
284.6874829931973	284.81519274376416	83	127
284.81519274376416	284.9777324263039	81	127
284.9777324263039	285.1518820861678	84	127
285.1983219954649	285.4305215419501	83	127
285.4305215419501	285.6511111111111	84	127
285.6511111111111	285.8717006802721	86	127
285.8717006802721	286.0690702947846	88	127
286.0690702947846	286.2432199546485	86	127
286.2432199546485	286.39414965986396	84	127
286.39414965986396	286.6031292517007	83	127
286.6031292517007	286.7772789115646	80	127
286.80049886621316	287.02108843537417	81	127
287.02108843537417	287.2416780045352	79	127
287.2416780045352	287.4738775510204	77	127
287.4738775510204	287.65961451247165	76	127
287.65961451247165	287.84539682539685	74	127
287.84539682539685	288.08920634920634	73	127
288.08920634920634	288.30979591836734	74	127
288.30979591836734	288.4839229024943	76	127
288.5187755102041	288.62326530612245	77	127
288.7393650793651	288.8206349206349	77	127
288.90190476190475	288.97156462585036	78	127
289.087641723356	289.15732426303856	78	127
289.25020408163266	289.4011111111111	71	127
290.0861224489796	290.13256235827663	69	127
290.190612244898	290.26027210884354	76	127
290.3067120181406	290.35315192743764	71	127
290.3995918367347	290.457641723356	76	127
290.5272789115646	290.57374149659864	72	127
290.5969614512472	290.6550113378685	76	127
290.7130612244898	290.7711111111111	74	127
290.82913832199546	290.8756009070295	76	127
290.92204081632656	290.9917006802721	72	127
291.0497505668934	291.0845804988662	76	127
291.16585034013605	291.20068027210885	71	127
291.2471201814059	291.2819501133787	76	127
291.35160997732424	291.3980498866213	69	127
291.4444671201814	291.51414965986396	76	127
291.57219954648525	291.6302494331066	72	127
291.6766893424036	291.7231292517007	76	127
291.781179138322	291.82761904761907	71	127
291.8740589569161	291.92049886621317	76	127
291.97854875283446	292.02498866213153	69	127
292.0946485260771	292.1410884353742	76	127
292.19913832199546	292.2571655328798	68	127
292.29201814058956	292.3616553287982	76	127
292.39650793650793	292.442947845805	66	127
292.5009977324263	292.5474376417234	76	127
292.5938775510204	292.65192743764175	68	127
292.70997732426304	292.74480725623584	76	127
292.8144671201814	292.8609070294785	69	127
292.9189569160998	292.9769841269841	76	127
293.02344671201814	293.0698866213152	71	127
293.1279365079365	293.18596371882086	76	127
293.24403628117915	293.29047619047617	68	127
293.3485260770975	293.4065759637188	76	127
293.46462585034016	293.52267573696145	69	127
293.5807256235828	293.6271655328798	68	127
293.68521541950116	293.74326530612245	69	127
293.80131519274374	293.8477551020408	68	127
293.88258503401363	293.92902494331065	69	127
293.96385487528346	294.0102947845805	67	127
294.0451247165533	294.0683446712018	65	127
294.1263945578231	294.18444444444447	64	127
294.25410430839	294.3237641723356	62	127
294.37020408163266	294.3934240362812	61	127
294.4398639455782	294.50950113378684	62	127
294.56757369614513	294.60240362811794	64	127
294.6720634920635	294.69528344671204	65	127
294.7649433106576	294.7997732426304	62	127
294.84621315192743	294.91585034013605	60	127
294.97392290249434	295.0319727891156	59	127
295.10163265306124	295.15968253968254	57	127
295.19451247165534	295.24095238095236	60	127
295.2990022675737	295.357052154195	64	127
295.4266893424036	295.46154195011337	69	127
295.50798185941045	295.56603174603174	56	127
295.6240816326531	295.6705215419501	59	127
295.7053514739229	295.75179138321994	64	127
295.8098412698413	295.8330385487528	68	127
295.8911111111111	295.9607709750567	57	127
295.9839909297052	296.0304308390023	60	127
296.0884807256236	296.14650793650793	62	127
296.2045804988662	296.2509977324263	64	127
296.3090702947846	296.3671201814059	66	127
296.4367800453515	296.46	68	127
296.4832199546485	296.55285714285714	69	127
296.59931972789116	296.6109297052154	68	127
296.6689795918367	296.72702947845806	69	127
296.78507936507935	296.854716553288	68	127
296.9360090702948	296.9824489795918	69	127
297.00566893424036	297.0636961451247	68	127
297.121768707483	297.1681859410431	69	127
297.20303854875283	297.2610884353742	67	127
297.31913832199547	297.3771655328798	65	127
297.4468480725624	297.45845804988664	64	127
297.50489795918367	297.562947845805	62	127
297.59777777777776	297.6558276643991	61	127
297.73709750566894	297.77192743764175	62	127
297.81836734693877	297.8531972789116	64	127
297.91124716553287	297.9808843537415	65	127
298.0389569160998	298.08537414965986	62	127
298.14344671201815	298.20149659863944	60	127
298.2595464852608	298.2943537414966	59	127
298.3524263038549	298.42208616780044	57	127
298.4801360544218	298.54979591836735	60	127
298.5614058956916	298.6310657596372	64	127
298.66589569161	298.73555555555555	69	127
298.80519274376417	298.8516553287982	56	127
298.86326530612246	298.90968253968254	59	127
298.9677551020408	299.0258049886621	64	127
299.08385487528346	299.1186848072562	68	127
299.18834467120183	299.21154195011337	57	127
299.23478458049885	299.2928344671202	64	127
299.36249433106576	299.4205215419501	69	127
299.45537414965986	299.5134013605442	72	127
299.5714739229025	299.67596371882087	76	127
300.04748299319726	300.1055328798186	64	127
300.1635827664399	300.210022675737	71	127
300.26807256235827	300.3261224489796	74	127
300.37256235827664	300.59315192743765	76	127
300.8950113378685	300.96467120181404	64	127
301.03433106575966	301.09238095238095	69	127
301.1504081632653	301.1620408163265	72	127
301.2317006802721	301.4174603174603	76	127
301.75414965986397	301.81219954648526	64	127
301.8818594104308	301.95151927437644	71	127
302.021179138322	302.07920634920634	74	127
302.1488888888889	302.23015873015873	76	127
302.54362811791384	302.57845804988665	76	127
302.62489795918367	302.6945351473923	81	127
302.7409977324263	302.7990476190476	84	127
302.8687074829932	303.04285714285714	88	127
303.26344671201815	303.32149659863944	76	127
303.35632653061225	303.4259863945578	83	127
303.5072335600907	303.57691609977326	86	127
303.6465759637188	303.7742857142857	88	127
303.85555555555555	304.30834467120184	88	127
304.30834467120184	304.5985941043084	84	127
304.5985941043084	304.90045351473924	81	127
304.90045351473924	305.1326530612245	76	127
305.1326530612245	305.4460997732426	72	127
305.4460997732426	305.7363718820862	69	127
305.7363718820862	306.11950113378686	64	127
306.11950113378686	306.44458049886623	60	127
306.52585034013606	308.685306122449	57	127
309.126462585034	309.1845351473923	57	127
