# onset,offset,note,velocity
0.4984580498866213	1.4620861678004535	64	127
1.4620861678004535	2.3212244897959184	64	127
2.3212244897959184	2.9713832199546486	64	127
2.9713832199546486	3.691201814058957	64	127
3.691201814058957	3.8653514739229027	64	127
3.8653514739229027	4.23687074829932	69	127
4.23687074829932	4.631609977324263	69	127
4.631609977324263	5.061179138321996	69	127
5.061179138321996	5.351428571428571	69	127
5.409478458049887	5.502358276643991	69	127
5.5836281179138325	5.722925170068027	66	127
5.757777777777778	5.80421768707483	66	127
5.908707482993197	6.129297052154195	59	127
6.524036281179138	6.7562358276643995	64	127
6.7562358276643995	6.953605442176871	72	127
6.953605442176871	7.092925170068027	71	127
7.092925170068027	7.301904761904762	69	127
7.301904761904762	7.4412244897959186	68	127
7.4412244897959186	7.63859410430839	69	127
7.63859410430839	7.859183673469388	71	127
7.859183673469388	8.079773242630386	72	127
8.079773242630386	8.277142857142858	69	127
8.323582766439909	8.55578231292517	74	127
8.55578231292517	8.764761904761905	72	127
8.764761904761905	8.985351473922902	71	127
8.985351473922902	9.2059410430839	70	127
9.2059410430839	9.43814058956916	71	127
9.43814058956916	9.647120181405896	72	127
9.647120181405896	9.844489795918367	74	127
9.844489795918367	9.902539682539683	71	127
9.925759637188209	10.12312925170068	72	127
10.12312925170068	10.35532879818594	73	127
10.35532879818594	10.50625850340136	74	127
10.50625850340136	10.65718820861678	76	127
10.703628117913832	11.19124716553288	77	127
11.19124716553288	11.27251700680272	76	127
11.27251700680272	11.342154195011338	74	127
11.365396825396825	11.446666666666667	72	127
11.57437641723356	11.667256235827665	72	127
11.771746031746032	11.887845804988663	71	127
12.003945578231292	12.131655328798185	71	127
12.201315192743763	12.247755102040816	74	127
12.247755102040816	12.37546485260771	72	127
12.37546485260771	12.468344671201814	71	127
12.468344671201814	12.538004535147392	72	127
12.549614512471654	12.677324263038548	69	127
12.781814058956916	13.048843537414966	71	127
13.048843537414966	13.106893424036281	72	127
13.211383219954648	13.44358276643991	73	127
13.44358276643991	13.478412698412699	74	127
13.52485260770975	13.664172335600908	76	127
13.780272108843537	14.233061224489797	77	127
14.233061224489797	14.349160997732426	76	127
14.349160997732426	14.407210884353741	74	127
14.407210884353741	14.418820861678004	72	127
14.418820861678004	14.523310657596372	74	127
14.523310657596372	14.62780045351474	72	127
14.62780045351474	14.732290249433106	74	127
14.755510204081633	14.883219954648526	71	127
14.883219954648526	14.999319727891157	72	127
14.999319727891157	15.092199546485261	71	127
15.092199546485261	15.115419501133786	72	127
15.12702947845805	15.336009070294784	69	127
16.299637188208617	16.462154195011337	60	127
16.984625850340137	17.19360544217687	64	127
17.785714285714285	17.983061224489795	67	127
18.621609977324262	18.737732426303854	72	127
19.260181405895693	19.49238095238095	76	127
19.49238095238095	19.654920634920636	70	127
19.654920634920636	19.875510204081632	73	127
19.875510204081632	20.107709750566894	76	127
20.107709750566894	20.351519274376418	79	127
20.351519274376418	20.595328798185943	82	127
20.595328798185943	20.757868480725623	85	127
20.804308390022676	21.01328798185941	88	127
21.01328798185941	21.605396825396827	88	127
21.605396825396827	21.79113378684807	86	127
22.603854875283446	22.812834467120183	68	127
22.812834467120183	22.986984126984126	71	127
22.986984126984126	23.195963718820863	74	127
23.195963718820863	23.42816326530612	77	127
23.42816326530612	23.671972789115646	80	127
23.671972789115646	23.857732426303855	83	127
23.91578231292517	24.29891156462585	86	127
24.29891156462585	24.7865306122449	86	127
24.7865306122449	24.914240362811793	84	127
25.71532879818594	25.877868480725624	63	127
25.877868480725624	26.110068027210886	66	127
26.110068027210886	26.29582766439909	69	127
26.29582766439909	26.4815873015873	72	127
26.4815873015873	26.7021768707483	75	127
26.7021768707483	26.841496598639456	78	127
26.88793650793651	27.340725623582767	81	127
27.340725623582767	27.839954648526078	81	127
27.839954648526078	28.025714285714287	79	127
28.060544217687074	28.745532879818594	84	127
28.745532879818594	28.896462585034012	83	127
28.942902494331065	29.360861678004536	81	127
29.360861678004536	29.48857142857143	79	127
29.581451247165532	30.231609977324265	78	127
30.231609977324265	30.347709750566892	79	127
30.382539682539683	30.63795918367347	72	127
30.63795918367347	30.82371882086168	71	127
31.13718820861678	31.29972789115646	75	127
31.29972789115646	31.450657596371883	76	127
31.949886621315194	32.333015873015874	72	127
32.333015873015874	32.762585034013604	71	127
32.762585034013604	32.983174603174604	69	127
32.983174603174604	33.16891156462585	67	127
33.16891156462585	33.2037641723356	64	127
33.2037641723356	33.215374149659866	67	127
33.23859410430839	33.366303854875284	71	127
33.911972789115644	33.981632653061226	64	127
33.981632653061226	34.086122448979594	69	127
34.10934240362812	34.202222222222225	72	127
34.72467120181406	34.77111111111111	67	127
34.794331065759636	34.93365079365079	71	127
35.52575963718821	35.54897959183673	64	127
35.54897959183673	35.618639455782315	69	127
35.64185941043084	35.734739229024946	72	127
36.164308390022676	36.28040816326531	64	127
36.28040816326531	36.35004535147392	68	127
36.37328798185941	36.500997732426306	71	127
36.988616780045355	37.12793650793651	68	127
37.12793650793651	37.22081632653061	71	127
37.255646258503404	37.418185941043085	74	127
37.60394557823129	37.85934240362812	71	127
37.85934240362812	38.068344671201814	74	127
38.230884353741494	41.09854875283447	77	127
41.09854875283447	41.574557823129254	76	127
41.574557823129254	42.08539682539683	74	127
42.13183673469388	42.20149659863946	73	127
42.20149659863946	42.29437641723356	74	127
42.29437641723356	42.387256235827664	73	127
42.387256235827664	42.398866213151926	74	127
42.398866213151926	42.42208616780045	73	127
42.42208616780045	42.433673469387756	74	127
42.433673469387756	42.503356009070295	76	127
42.503356009070295	43.1302947845805	74	127
51.408208616780044	52.453106575963716	64	127
52.453106575963716	53.48639455782313	64	127
53.48639455782313	54.426802721088436	64	127
54.426802721088436	55.30916099773243	64	127
55.30916099773243	55.518140589569164	64	127
55.518140589569164	55.947709750566894	69	127
55.947709750566894	56.37727891156462	69	127
56.37727891156462	56.85328798185941	69	127
56.85328798185941	57.17836734693878	69	127
57.23641723356009	57.329297052154196	69	127
57.433786848072565	57.526666666666664	66	127
57.596326530612245	57.66598639455783	66	127
57.78208616780045	57.89818594104308	59	127
58.42063492063492	58.65283446712018	64	127
58.65283446712018	58.850204081632654	72	127
58.850204081632654	59.059183673469384	71	127
59.059183673469384	59.2449433106576	69	127
59.2449433106576	59.40748299319728	68	127
59.40748299319728	59.62807256235828	69	127
59.62807256235828	59.8718820861678	71	127
59.8718820861678	60.06925170068027	72	127
60.06925170068027	60.19696145124716	69	127
60.25501133786848	60.46399092970522	74	127
60.46399092970522	60.68458049886621	72	127
60.68458049886621	60.91678004535147	71	127
60.91678004535147	61.09092970521542	70	127
61.09092970521542	61.265079365079366	71	127
61.265079365079366	61.39278911564626	72	127
61.39278911564626	61.5669387755102	74	127
61.5669387755102	61.752698412698415	71	127
61.799138321995464	61.95006802721088	72	127
61.95006802721088	62.08938775510204	73	127
62.08938775510204	62.33319727891156	74	127
62.33319727891156	62.49573696145125	76	127
62.5421768707483	63.14589569160998	77	127
63.14589569160998	63.227165532879816	76	127
63.227165532879816	63.26199546485261	74	127
63.285215419501135	63.41292517006803	72	127
63.505804988662135	63.598684807256234	72	127
63.69156462585034	63.80766439909297	71	127
63.91215419501134	64.03986394557823	71	127
64.13274376417233	64.24884353741497	74	127
64.24884353741497	64.33011337868481	72	127
64.33011337868481	64.43458049886621	71	127
64.43458049886621	64.53909297052154	72	127
64.5622902494331	64.66680272108843	69	127
64.73646258503402	64.94541950113378	71	127
64.94541950113378	65.00349206349206	72	127
65.09637188208617	65.25891156462585	73	127
65.25891156462585	65.3053514739229	74	127
65.43306122448979	65.56074829931973	76	127
65.6536507936508	66.1992970521542	77	127
66.1992970521542	66.31541950113379	76	127
66.31541950113379	66.41990929705216	72	127
66.41990929705216	66.52439909297053	74	127
66.52439909297053	66.64049886621315	72	127
66.64049886621315	66.74498866213152	74	127
66.76820861678004	66.89591836734694	71	127
66.89591836734694	67.04684807256236	72	127
67.04684807256236	67.19777777777777	71	127
67.19777777777777	67.31387755102041	72	127
67.33709750566894	67.65056689342404	69	127
68.64902494331066	68.71868480725624	73	127
68.83478458049886	68.98571428571428	73	127
69.56621315192744	69.70553287981859	71	127
70.36730158730158	70.48340136054422	74	127
70.61111111111111	70.64591836734694	74	127
71.18	71.3077097505669	73	127
71.4354195011338	71.50507936507937	73	127
72.03913832199547	72.16684807256236	73	127
72.27133786848073	72.35260770975057	73	127
72.86344671201815	72.99115646258504	73	127
73.10725623582766	73.2233560090703	73	127
73.74580498866213	73.88512471655329	73	127
74.02444444444444	74.21020408163265	73	127
75.41764172335601	76.95015873015873	78	127
78.09954648526077	78.23886621315192	74	127
78.95868480725623	79.0980045351474	73	127
79.79458049886621	79.89907029478458	76	127
79.98036281179138	80.02678004535147	76	127
80.60730158730159	80.73501133786849	74	127
80.83950113378685	80.89755102040816	74	127
81.46643990929705	81.58253968253969	74	127
81.69863945578231	81.72185941043084	74	127
82.37201814058957	82.52294784580499	74	127
82.62743764172336	82.73192743764173	74	127
83.53301587301587	86.08721088435374	79	127
86.74895691609977	86.87666666666667	77	127
87.01600907029479	87.15530612244898	77	127
87.92158730158731	88.08412698412698	77	127
88.25827664399092	88.42081632653061	77	127
89.23351473922902	91.49746031746032	76	127
92.21725623582766	93.00675736961452	64	127
93.00675736961452	94.0168253968254	64	127
94.0168253968254	94.66698412698413	64	127
94.66698412698413	95.32875283446712	64	127
95.32875283446712	95.35197278911565	64	127
95.35197278911565	95.65383219954649	69	127
95.65383219954649	96.10662131519274	69	127
96.10662131519274	96.52458049886621	69	127
96.52458049886621	96.8728798185941	69	127
96.98897959183674	97.0934693877551	69	127
97.20956916099773	97.26761904761905	66	127
97.43015873015872	97.6275283446712	59	127
98.12675736961451	98.33573696145125	64	127
98.33573696145125	98.41700680272109	72	127
98.41700680272109	98.62598639455783	71	127
98.62598639455783	98.88140589569161	69	127
98.88140589569161	99.09038548752835	68	127
99.09038548752835	99.3225850340136	69	127
99.3225850340136	99.57800453514739	71	127
99.57800453514739	99.77537414965987	72	127
99.77537414965987	99.94952380952381	69	127
100.00757369614513	100.21655328798185	74	127
100.21655328798185	100.34426303854875	72	127
100.34426303854875	100.48358276643991	71	127
100.48358276643991	100.68095238095238	70	127
100.68095238095238	100.90154195011338	71	127
100.90154195011338	100.97120181405896	72	127
100.97120181405896	101.19179138321995	74	127
101.19179138321995	101.37755102040816	71	127
101.42399092970521	101.59814058956916	72	127
101.59814058956916	101.80712018140589	73	127
101.80712018140589	102.01609977324263	74	127
102.01609977324263	102.19024943310657	76	127
102.24829931972789	102.84040816326531	77	127
102.84040816326531	102.95650793650793	76	127
102.95650793650793	103.03777777777778	74	127
103.0609977324263	103.14226757369615	72	127
103.21192743764172	103.31641723356009	72	127
103.42090702947846	103.49056689342403	71	127
103.58344671201814	103.66471655328799	71	127
103.79242630385488	103.88530612244898	74	127
103.88530612244898	104.0014058956916	72	127
104.0014058956916	104.11750566893424	71	127
104.11750566893424	104.18716553287982	72	127
104.19877551020409	104.25682539682539	69	127
104.32648526077098	104.5702947845805	71	127
104.5702947845805	104.60512471655329	72	127
104.72122448979592	104.91859410430838	73	127
104.91859410430838	105.0114739229025	74	127
105.15079365079364	105.27850340136054	76	127
105.34816326530613	105.89383219954648	77	127
105.89383219954648	106.00993197278912	76	127
106.00993197278912	106.10281179138322	74	127
106.11442176870749	106.23052154195011	72	127
106.23052154195011	106.358231292517	74	127
106.358231292517	106.4859410430839	72	127
106.4859410430839	106.57882086167801	74	127
106.60204081632654	106.71814058956916	71	127
106.71814058956916	106.81102040816326	72	127
106.81102040816326	106.9271201814059	71	127
106.9271201814059	107.00839002267574	72	127
107.04321995464852	107.29863945578231	69	127
107.68176870748299	107.92557823129252	72	127
107.92557823129252	108.90081632653062	77	127
108.90081632653062	109.77156462585035	76	127
109.77156462585035	110.73519274376417	82	127
110.73519274376417	111.64077097505668	81	127
111.64077097505668	112.44185941043084	79	127
112.44185941043084	113.27777777777777	78	127
113.34743764172336	113.37065759637188	81	127
113.37065759637188	113.45192743764173	79	127
113.45192743764173	113.5215873015873	81	127
113.5215873015873	113.56802721088435	79	127
113.56802721088435	113.66090702947845	81	127
113.66090702947845	113.71895691609977	79	127
113.71895691609977	113.91632653061224	81	127
113.91632653061224	114.17174603174603	82	127
114.17174603174603	114.65936507936507	81	127
114.65936507936507	114.83351473922903	79	127
115.28630385487529	115.39079365079365	71	127
115.51850340136055	115.71587301587302	71	127
115.71587301587302	115.84358276643991	72	127
116.08739229024944	116.18027210884354	71	127
116.26154195011338	116.5053514739229	71	127
116.5053514739229	116.69111111111111	72	127
116.93492063492063	117.05102040816327	71	127
117.17873015873016	117.43414965986395	71	127
117.43414965986395	117.63151927437642	72	127
117.8869387755102	117.99142857142857	71	127
118.09591836734694	118.30489795918368	71	127
118.30489795918368	118.50226757369614	72	127
118.79251700680273	118.87378684807257	73	127
118.97827664399092	119.16403628117914	73	127
119.16403628117914	119.33818594104308	74	127
119.3962358276644	119.62843537414966	78	127
119.62843537414966	119.88385487528345	74	127
119.88385487528345	120.09283446712018	79	127
120.09283446712018	120.20893424036281	74	127
120.23215419501133	120.4643537414966	77	127
120.4643537414966	120.69655328798186	72	127
120.69655328798186	120.92875283446712	76	127
120.92875283446712	121.12612244897959	70	127
121.17256235827665	121.45120181405896	69	127
121.86916099773242	122.08975056689343	72	127
122.08975056689343	123.04176870748299	84	127
123.04176870748299	123.99378684807256	81	127
123.99378684807256	124.84131519274376	86	127
124.84131519274376	125.83977324263039	82	127
125.83977324263039	126.68730158730159	79	127
126.68730158730159	127.5928798185941	81	127
127.5928798185941	128.08049886621316	77	127
128.08049886621316	128.60292517006803	82	127
128.60292517006803	128.6958276643991	79	127
128.8815873015873	129.14861678004536	74	127
129.14861678004536	129.33437641723356	72	127
129.33437641723356	129.5433560090703	70	127
129.55496598639456	129.6362358276644	69	127
129.75233560090703	129.86843537414967	71	127
129.93809523809523	130.1702947845805	72	127
130.1702947845805	130.36766439909297	74	127
130.59986394557822	130.72757369614513	72	127
130.84367346938777	131.08748299319728	72	127
131.08748299319728	131.28485260770975	73	127
131.5518820861678	131.60993197278913	73	127
131.70281179138323	131.9001814058957	73	127
131.9001814058957	132.0859410430839	74	127
132.35297052154195	132.4690702947846	73	127
132.58517006802722	132.7825396825397	73	127
132.7825396825397	132.95668934240362	74	127
133.25854875283446	133.35142857142858	71	127
133.47913832199546	133.73455782312925	71	127
133.73455782312925	133.9087074829932	72	127
133.943537414966	134.164126984127	72	127
134.164126984127	134.4079365079365	77	127
134.4079365079365	134.65174603174603	74	127
134.65174603174603	134.8839455782313	79	127
134.8839455782313	135.09290249433107	77	127
135.09290249433107	135.33673469387756	72	127
135.33673469387756	135.59215419501135	76	127
135.59215419501135	135.80113378684808	70	127
135.8243537414966	136.0449433106576	69	127
136.56739229024944	136.83439909297053	72	127
136.83439909297053	137.62390022675737	77	127
137.62390022675737	138.41337868480727	76	127
138.41337868480727	139.31895691609978	82	127
139.31895691609978	140.29419501133788	81	127
140.29419501133788	141.19977324263039	79	127
141.19977324263039	141.96603174603175	78	127
142.07052154195011	142.151768707483	81	127
142.151768707483	142.22145124716553	79	127
142.22145124716553	142.31433106575963	81	127
142.31433106575963	142.37238095238095	79	127
142.37238095238095	142.44204081632654	78	127
142.44204081632654	142.50009070294786	79	127
142.50009070294786	142.56975056689342	81	127
142.56975056689342	142.86	82	127
142.86	143.32437641723357	81	127
143.32437641723357	143.53337868480725	79	127
143.85845804988662	143.97455782312926	69	127
143.97455782312926	144.13709750566895	72	127
144.13709750566895	144.2996371882086	77	127
144.2996371882086	144.42734693877551	81	127
144.42734693877551	144.57827664399093	79	127
144.57827664399093	144.63632653061225	77	127
144.67115646258503	144.82208616780045	82	127
144.82208616780045	144.9962358276644	79	127
144.9962358276644	145.1587755102041	76	127
145.1587755102041	145.32131519274375	70	127
145.32131519274375	145.54190476190476	67	127
145.54190476190476	145.66961451247167	65	127
145.70444444444445	145.83213151927438	64	127
145.83213151927438	146.00630385487528	67	127
146.00630385487528	146.16884353741497	70	127
146.16884353741497	146.33138321995466	76	127
146.33138321995466	146.45909297052154	77	127
146.45909297052154	146.61002267573696	79	127
146.6448299319728	146.7841723356009	81	127
146.7841723356009	146.86544217687074	77	127
146.86544217687074	147.00473922902495	72	127
147.00473922902495	147.16730158730158	77	127
147.16730158730158	147.318231292517	72	127
147.318231292517	147.42272108843537	69	127
147.45755102040818	147.6317006802721	74	127
147.6317006802721	147.759410430839	70	127
147.759410430839	147.86390022675738	67	127
147.86390022675738	148.0264172335601	70	127
148.0264172335601	148.15414965986395	67	127
148.15414965986395	148.28183673469388	62	127
148.31668934240363	148.4443990929705	60	127
148.4443990929705	148.5837188208617	62	127
148.5837188208617	148.79267573696146	66	127
148.79267573696146	148.9552380952381	58	127
148.9552380952381	149.11777777777777	62	127
149.11777777777777	149.2687074829932	67	127
149.30351473922903	149.45446712018142	65	127
149.45446712018142	149.59378684807257	69	127
149.59378684807257	149.75632653061226	65	127
149.75632653061226	149.91884353741497	64	127
149.91884353741497	150.10462585034014	60	127
150.10462585034014	150.26716553287983	58	127
150.3019954648526	150.47614512471657	57	127
150.47614512471657	150.61546485260772	65	127
150.61546485260772	150.75478458049886	69	127
150.75478458049886	150.88249433106577	72	127
150.88249433106577	150.90571428571428	77	127
150.90571428571428	151.0450113378685	81	127
151.09145124716554	151.9390022675737	84	127
151.9390022675737	152.7865306122449	81	127
152.7865306122449	153.62244897959184	86	127
153.62244897959184	154.51639455782313	82	127
154.51639455782313	155.37555555555556	79	127
155.37555555555556	156.2463038548753	81	127
156.2463038548753	156.5829931972789	77	127
156.5829931972789	156.98934240362811	82	127
157.0590022675737	157.16349206349207	79	127
158.0458276643991	158.20839002267573	57	127
158.20839002267573	158.35931972789115	60	127
158.35931972789115	158.51024943310657	65	127
158.51024943310657	158.61473922902493	69	127
158.61473922902493	158.7540589569161	70	127
158.7540589569161	158.83532879818594	69	127
158.87015873015872	158.99786848072563	67	127
158.99786848072563	159.14879818594105	66	127
159.14879818594105	159.2881179138322	67	127
159.2881179138322	159.4390476190476	70	127
159.4390476190476	159.6015873015873	69	127
159.6015873015873	159.74090702947845	67	127
159.77573696145126	159.9150566893424	66	127
159.9150566893424	160.0891836734694	69	127
160.0891836734694	160.21691609977324	67	127
160.21691609977324	160.34460317460318	66	127
160.34460317460318	160.51877551020408	67	127
160.51877551020408	160.62326530612245	69	127
160.62326530612245	160.7974149659864	70	127
160.7974149659864	160.93673469387755	74	127
160.93673469387755	161.0528344671202	72	127
161.0528344671202	161.2037641723356	70	127
161.2037641723356	161.2966439909297	72	127
161.2966439909297	161.41274376417235	69	127
161.44757369614513	161.59850340136055	67	127
161.59850340136055	161.7378231292517	65	127
161.7378231292517	161.8887528344671	64	127
161.8887528344671	162.0512925170068	62	127
162.0512925170068	162.24866213151927	60	127
162.24866213151927	162.3647619047619	58	127
162.3995918367347	162.5505215419501	57	127
162.5505215419501	162.64340136054423	60	127
162.64340136054423	162.89882086167802	65	127
162.89882086167802	163.03814058956917	62	127
163.03814058956917	163.14263038548754	67	127
163.17746031746032	163.35160997732427	65	127
163.35160997732427	163.5025396825397	60	127
163.5025396825397	163.6534693877551	65	127
163.6534693877551	163.7463492063492	64	127
163.7463492063492	163.9088888888889	60	127
163.9088888888889	164.02496598639456	58	127
164.0598185941043	164.14108843537414	57	127
166.81138321995465	166.97392290249434	72	127
166.97392290249434	167.13646258503402	71	127
167.13646258503402	167.27578231292517	72	127
167.27578231292517	167.43832199546486	74	127
167.43832199546486	167.56603174603174	76	127
167.58925170068028	168.0536507936508	79	127
168.0536507936508	168.22780045351473	77	127
170.2827664399093	170.39886621315193	76	127
170.39886621315193	170.54979591836735	75	127
170.54979591836735	170.65428571428572	76	127
170.65428571428572	170.79360544217687	78	127
170.79360544217687	170.92131519274378	80	127
170.95614512471656	171.4785941043084	83	127
171.4785941043084	171.67596371882087	81	127
172.12875283446712	172.30290249433108	69	127
172.30290249433108	172.50027210884355	72	127
172.53510204081633	172.62798185941043	72	127
172.99950113378685	173.19687074829932	69	127
173.19687074829932	173.3942403628118	72	127
173.4522902494331	173.55678004535147	72	127
173.97473922902495	174.241768707483	69	127
174.241768707483	174.4275283446712	72	127
174.48557823129252	174.98480725623583	72	127
174.98480725623583	175.4027664399093	72	127
175.4027664399093	175.54208616780045	72	127
175.66979591836736	176.5985941043084	72	127
176.5985941043084	177.07460317460317	71	127
177.07460317460317	177.5041723356009	69	127
177.5041723356009	178.54907029478457	69	127
178.54907029478457	178.72321995464853	68	127
178.99024943310658	179.05990929705214	76	127
179.05990929705214	179.141179138322	75	127
179.141179138322	179.2340589569161	76	127
179.2340589569161	179.31532879818593	75	127
179.31532879818593	179.38498866213152	73	127
179.38498866213152	179.4546485260771	75	127
179.4546485260771	180.29056689342403	78	127
180.29056689342403	180.48791383219955	76	127
180.78979591836736	180.88267573696146	80	127
180.88267573696146	180.9639455782313	78	127
180.9639455782313	181.0568253968254	80	127
181.0568253968254	181.13809523809525	78	127
181.13809523809525	181.2077551020408	76	127
181.2077551020408	181.30063492063493	78	127
181.30063492063493	182.29909297052154	81	127
182.29909297052154	182.41519274376418	80	127
182.79832199546485	182.96086167800453	82	127
183.3207709750567	183.4484807256236	83	127
184.09863945578232	184.23795918367347	84	127
185.1087074829932	185.25963718820861	85	127
185.72403628117914	185.9214058956916	86	127
187.2797732426304	189.85718820861678	80	127
190.69310657596372	191.55224489795918	64	127
191.55224489795918	192.3301133786848	64	127
192.3301133786848	193.09637188208617	64	127
193.09637188208617	193.85102040816327	64	127
193.85102040816327	194.03678004535146	64	127
194.03678004535146	194.3154195011338	69	127
194.3154195011338	194.74498866213153	69	127
194.74498866213153	195.17455782312925	69	127
195.17455782312925	195.46480725623582	69	127
195.58090702947845	195.6621768707483	69	127
195.73183673469387	195.82471655328797	66	127
195.9175963718821	196.02208616780047	66	127
196.09174603174603	196.3471655328798	59	127
196.74190476190475	196.97410430839003	64	127
196.97410430839003	197.18308390022676	72	127
197.18308390022676	197.40367346938777	71	127
197.40367346938777	197.58943310657597	69	127
197.58943310657597	197.75197278911565	68	127
197.75197278911565	197.9609523809524	69	127
197.9609523809524	198.18154195011337	71	127
198.18154195011337	198.3673015873016	72	127
198.3673015873016	198.50662131519275	69	127
198.56467120181406	198.7968707482993	74	127
198.7968707482993	199.04068027210883	72	127
199.04068027210883	199.22643990929706	71	127
199.22643990929706	199.3657596371882	70	127
199.3657596371882	199.51668934240362	71	127
199.51668934240362	199.66761904761904	72	127
199.66761904761904	199.89981859410432	74	127
199.89981859410432	200.0275283446712	71	127
200.07396825396825	200.30616780045352	72	127
200.30616780045352	200.49192743764172	73	127
200.49192743764172	200.6892970521542	74	127
200.6892970521542	200.82861678004537	76	127
200.86344671201815	201.39750566893423	77	127
201.39750566893423	201.5019954648526	76	127
201.5019954648526	201.59487528344673	74	127
201.61809523809524	201.74580498866214	72	127
201.82707482993197	201.93156462585034	72	127
202.0360544217687	202.1637641723356	71	127
202.2914739229025	202.41918367346938	71	127
202.52367346938775	202.59333333333333	74	127
202.59333333333333	202.7210430839002	72	127
202.7210430839002	202.80231292517007	71	127
202.80231292517007	202.89519274376417	72	127
202.9184126984127	202.99968253968254	69	127
203.0461224489796	203.2899319727891	71	127
203.2899319727891	203.39442176870747	72	127
203.49891156462584	203.64984126984126	73	127
203.64984126984126	203.73111111111112	74	127
203.84721088435373	203.9517006802721	76	127
204.05619047619047	204.68312925170068	77	127
204.68312925170068	204.78761904761905	76	127
204.78761904761905	204.82244897959183	74	127
204.82244897959183	204.9269387755102	72	127
204.9269387755102	205.01981859410432	74	127
205.01981859410432	205.10108843537415	72	127
205.10108843537415	205.18235827664398	74	127
205.2171882086168	205.32167800453516	71	127
205.32167800453516	205.44938775510204	72	127
205.44938775510204	205.57709750566895	71	127
205.57709750566895	205.69319727891155	72	127
205.70480725623582	205.87895691609978	69	127
206.04149659863947	206.07632653061225	57	127
206.04149659863947	206.26208616780045	64	127
206.07632653061225	206.26208616780045	72	127
206.88902494331066	206.94707482993198	57	127
206.88902494331066	207.15605442176872	64	127
206.94707482993198	207.15605442176872	72	127
207.74816326530612	207.93392290249434	67	127
207.74816326530612	207.80621315192744	59	127
207.80621315192744	207.93392290249434	74	127
208.49120181405897	208.54925170068026	59	127
208.49120181405897	208.72340136054422	67	127
208.54925170068026	208.72340136054422	74	127
209.25746031746033	209.31551020408162	60	127
209.25746031746033	209.50126984126985	67	127
209.31551020408162	209.50126984126985	76	127
210.12820861678006	210.19786848072562	64	127
210.12820861678006	210.19786848072562	61	127
210.19786848072562	210.38362811791384	76	127
210.19786848072562	210.38362811791384	69	127
210.87124716553288	211.10344671201815	69	127
210.87124716553288	210.9292970521542	62	127
210.9292970521542	211.10344671201815	77	127
211.47496598639455	211.61428571428573	72	127
211.47496598639455	211.5214058956916	64	127
211.5214058956916	211.61428571428573	81	127
211.88131519274376	211.93936507936507	64	127
211.88131519274376	212.02063492063493	71	127
211.93936507936507	212.02063492063493	80	127
212.07868480725622	212.20639455782313	72	127
212.07868480725622	212.13673469387754	64	127
212.13673469387754	212.20639455782313	81	127
212.33410430839	212.39215419501133	64	127
212.43859410430838	212.4966439909297	69	127
212.55469387755102	212.61274376417234	72	127
212.63596371882088	212.67079365079366	69	127
212.7172335600907	212.7868934240363	72	127
212.83333333333334	212.8797732426304	69	127
212.9378231292517	212.94943310657595	72	127
213.00748299319727	213.04231292517008	69	127
213.08875283446713	213.1584126984127	64	127
213.18163265306123	213.23968253968255	69	127
213.2861224489796	213.34417233560092	72	127
213.40222222222224	213.46027210884353	69	127
213.51832199546485	213.5647619047619	72	127
213.61120181405894	213.66925170068026	69	127
213.73891156462585	213.77374149659863	74	127
213.83179138321995	213.88984126984127	71	127
213.9478911564626	214.01755102040818	67	127
214.07560090702947	214.12204081632652	71	127
214.1684807256236	214.21492063492065	74	127
214.2845804988662	214.34263038548752	71	127
214.34263038548752	214.36585034013606	74	127
214.4122902494331	214.48195011337867	71	127
214.51678004535148	214.56321995464853	74	127
214.6328798185941	214.67931972789117	71	127
214.73736961451246	214.78380952380954	67	127
214.84185941043083	214.89990929705215	71	127
214.95795918367347	215.01600907029479	74	127
215.08566893424037	215.10888888888888	71	127
215.15532879818593	215.21337868480725	74	127
215.2598185941043	215.2946485260771	71	127
215.34108843537416	215.3875283446712	76	127
215.45718820861677	215.50362811791382	72	127
215.56167800453514	215.5732879818594	67	127
215.59650793650795	215.63133786848073	72	127
215.68938775510205	215.7358276643991	76	127
215.78226757369615	215.8287074829932	72	127
215.88675736961451	215.94480725623583	76	127
216.02607709750566	216.08412698412698	72	127
216.1421768707483	216.17700680272108	76	127
216.2118367346939	216.2350566893424	73	127
216.29310657596372	216.33954648526077	69	127
216.3975963718821	216.4556462585034	73	127
216.51369614512473	216.5833560090703	76	127
216.6181859410431	216.65301587301587	73	127
216.72267573696146	216.74589569160997	76	127
216.85038548752834	216.90843537414966	77	127
216.96648526077098	217.0245351473923	74	127
217.08258503401362	217.12902494331067	69	127
217.17546485260772	217.23351473922904	74	127
217.25673469387755	217.3031746031746	77	127
217.3380045351474	217.40766439909297	74	127
217.4308843537415	217.48893424036282	77	127
217.5469841269841	217.5934240362812	74	127
217.66308390022675	217.72113378684807	72	127
217.7791836734694	217.84884353741498	76	127
217.90689342403627	217.97655328798186	72	127
218.01138321995464	218.03460317460318	69	127
218.03460317460318	218.10426303854877	68	127
218.16231292517006	218.19714285714286	76	127
218.23197278911564	218.30163265306123	71	127
218.336462585034	218.38290249433106	68	127
218.41773242630384	218.48739229024943	76	127
218.5222222222222	218.53383219954648	72	127
218.60349206349207	218.64993197278912	69	127
218.6847619047619	218.74281179138322	72	127
218.80086167800454	218.87052154195013	76	127
218.92857142857142	218.98662131519274	72	127
219.03306122448978	219.07950113378683	76	127
219.10272108843537	219.1607709750567	72	127
219.19560090702947	219.26526077097506	76	127
219.32331065759638	219.33492063492062	73	127
219.4045804988662	219.46263038548753	69	127
219.50907029478458	219.5671201814059	73	127
219.61356009070295	219.67160997732427	76	127
219.70643990929705	219.76448979591837	73	127
219.81092970521541	219.86897959183673	76	127
219.92702947845805	219.96185941043083	73	127
219.98507936507937	220.0431292517007	77	127
220.10117913832198	220.1360090702948	74	127
220.1940589569161	220.21727891156462	69	127
220.26371882086167	220.31015873015872	74	127
220.34498866213153	220.39142857142858	77	127
220.42625850340136	220.48430839002268	74	127
220.51913832199546	220.542358276644	77	127
220.6004081632653	220.64684807256236	74	127
220.71650793650792	220.762947845805	72	127
220.8209977324263	220.8790476190476	76	127
220.93709750566893	221.00675736961452	72	127
221.06480725623584	221.09963718820862	69	127
221.15768707482994	221.21573696145126	68	127
221.2273469387755	221.25056689342404	72	127
221.30861678004536	221.34344671201814	76	127
221.40149659863945	221.4479365079365	72	127
221.49437641723355	221.55242630385487	76	127
221.5756462585034	221.62208616780046	73	127
221.68013605442178	221.73818594104307	69	127
221.7614058956916	221.7962358276644	73	127
221.8542857142857	221.90072562358276	76	127
221.95877551020408	221.99360544217686	73	127
222.05165532879818	222.09809523809523	76	127
222.16775510204081	222.21419501133786	73	127
222.2606349206349	222.31868480725623	77	127
222.37673469387755	222.4231746031746	74	127
222.44639455782314	222.50444444444443	69	127
222.56249433106575	222.62054421768707	74	127
222.6785941043084	222.72503401360544	77	127
222.78308390022676	222.85274376417235	74	127
222.91079365079366	222.96884353741495	77	127
223.03850340136054	223.09655328798186	74	127
223.15460317460318	223.2126530612245	77	127
223.25909297052155	223.31714285714287	74	127
223.37519274376416	223.44485260770975	69	127
223.50290249433107	223.5841723356009	65	127
223.65383219954649	223.7118820861678	62	127
223.79315192743763	223.88603174603173	69	127
223.95569160997732	224.01374149659864	65	127
224.22272108843538	226.42861678004536	60	127
227.64766439909297	227.8218140589569	63	127
227.8218140589569	228.0424036281179	66	127
228.0424036281179	228.28621315192743	69	127
228.28621315192743	228.50680272108843	72	127
228.50680272108843	228.64612244897958	75	127
228.64612244897958	228.85510204081632	78	127
228.90154195011337	229.29628117913833	81	127
229.29628117913833	229.92321995464852	81	127
229.92321995464852	230.10897959183674	80	127
230.94489795918366	231.1538775510204	68	127
231.1538775510204	231.33963718820863	71	127
231.33963718820863	231.5602267573696	74	127
231.5602267573696	231.75759637188207	77	127
231.75759637188207	231.98979591836735	80	127
231.98979591836735	232.18716553287982	83	127
232.23360544217687	232.72122448979593	86	127
232.72122448979593	233.255283446712	86	127
233.255283446712	233.44104308390024	84	127
234.33501133786848	234.59043083900227	75	127
234.59043083900227	234.77619047619046	76	127
234.77619047619046	234.99678004535147	79	127
234.99678004535147	235.2057596371882	82	127
235.2057596371882	235.44956916099773	85	127
235.44956916099773	235.54244897959182	88	127
235.57727891156463	235.98362811791384	91	127
235.98362811791384	236.5292970521542	91	127
236.5292970521542	236.7150566893424	89	127
236.76149659863947	237.33038548752833	89	127
237.33038548752833	237.51614512471656	88	127
237.5625850340136	238.05020408163264	86	127
238.05020408163264	238.39850340136056	84	127
238.46816326530612	239.1067120181406	83	127
239.1067120181406	239.31569160997734	84	127
239.36213151927439	239.89619047619047	79	127
239.89619047619047	240.00068027210884	77	127
240.05873015873016	240.6740589569161	77	127
240.6740589569161	240.82498866213152	76	127
240.87142857142857	241.27777777777777	74	127
241.27777777777777	241.7421768707483	72	127
241.7421768707483	241.9627664399093	71	127
243.13537414965987	243.27469387755102	73	127
243.37918367346938	243.4372335600907	73	127
244.05256235827665	244.1918820861678	71	127
244.2499319727891	244.29637188208616	71	127
244.86526077097506	244.95814058956915	74	127
245.05102040816325	245.1671201814059	74	127
245.71278911564625	245.84049886621315	73	127
245.9565986394558	245.96820861678003	73	127
246.5138775510204	246.6415873015873	76	127
246.7692970521542	246.90861678004535	76	127
247.50072562358275	247.6748752834467	77	127
247.81419501133786	247.91868480725623	77	127
248.95197278911564	251.95895691609977	77	127
252.0750566893424	252.28403628117914	65	127
252.28403628117914	253.24766439909297	70	127
253.24766439909297	254.26934240362812	69	127
254.26934240362812	255.25619047619048	75	127
255.25619047619048	256.1733560090703	74	127
256.1733560090703	257.11378684807255	72	127
257.11378684807255	258.0774149659864	71	127
258.0774149659864	258.1702947845805	74	127
258.1702947845805	258.2283446712018	72	127
258.2283446712018	258.3096145124717	74	127
258.3096145124717	258.3908843537415	72	127
258.3908843537415	258.47215419501134	71	127
258.47215419501134	258.55342403628117	72	127
258.55342403628117	258.84367346938774	74	127
258.84367346938774	259.0874829931973	75	127
259.13390022675736	259.6099319727891	74	127
259.6099319727891	259.78408163265306	72	127
260.32975056689344	260.573537414966	70	127
260.573537414966	260.8173696145125	74	127
260.8173696145125	261.01473922902494	77	127
262.18734693877553	262.41954648526075	69	127
262.41954648526075	262.6168934240363	72	127
262.6168934240363	262.7562358276644	77	127
263.9868934240363	264.195873015873	71	127
264.195873015873	264.45126984126983	74	127
264.45126984126983	264.6022222222222	77	127
265.7980498866213	266.0534693877551	68	127
266.0534693877551	266.2392290249433	71	127
266.2392290249433	266.4365986394558	76	127
267.5975963718821	267.7485260770975	69	127
267.7485260770975	267.98072562358277	72	127
267.98072562358277	268.17809523809524	81	127
269.2810430839002	269.52485260770976	72	127
269.52485260770976	269.74544217687077	76	127
269.74544217687077	269.93120181405897	81	127
271.080589569161	271.31278911564624	74	127
271.31278911564624	271.5565986394558	80	127
271.5565986394558	271.742358276644	83	127
272.9033560090703	273.0426530612245	80	127
273.0426530612245	273.286485260771	83	127
273.286485260771	273.507074829932	86	127
274.83061224489796	275.12086167800453	83	127
275.12086167800453	275.4111111111111	86	127
275.4111111111111	275.52721088435374	89	127
278.06979591836733	278.3368253968254	76	127
278.3368253968254	278.54580498866216	81	127
278.54580498866216	278.7547845804989	83	127
278.7547845804989	278.96374149659863	84	127
278.96374149659863	279.114693877551	86	127
279.114693877551	279.3120634920635	84	127
279.3120634920635	279.4978231292517	83	127
279.4978231292517	279.73002267573696	81	127
279.73002267573696	279.9041723356009	84	127
279.9390022675737	280.1247619047619	83	127
280.1247619047619	280.3801814058957	84	127
280.3801814058957	280.58916099773245	86	127
280.58916099773245	280.77492063492065	88	127
280.77492063492065	280.9722902494331	86	127
280.9722902494331	281.18126984126985	84	127
281.18126984126985	281.3786394557823	83	127
281.3786394557823	281.5760090702948	80	127
281.62242630385487	281.761768707483	81	127
281.761768707483	281.9707482993197	79	127
281.9707482993197	282.17972789115646	77	127
282.17972789115646	282.41192743764174	76	127
282.41192743764174	282.59768707482993	74	127
282.59768707482993	282.77183673469386	73	127
282.77183673469386	283.0156462585034	74	127
283.0156462585034	283.1549433106576	76	127
283.2014058956916	283.2942857142857	77	127
283.41038548752834	283.50326530612244	77	127
283.63097505668935	283.72385487528345	78	127
283.793514739229	283.8863945578231	78	127
283.97925170068027	284.2463038548753	71	127
284.8268027210884	284.8848526077098	69	127
284.94290249433107	285.0125623582766	76	127
285.070612244898	285.1054195011338	71	127
285.17510204081634	285.23315192743763	76	127
285.30278911564625	285.36086167800454	72	127
285.41891156462583	285.4769614512472	76	127
285.53501133786847	285.5930612244898	74	127
285.63950113378684	285.6627210884354	76	127
285.7207482993197	285.7904308390023	72	127
285.8484807256236	285.8833106575964	76	127
285.95297052154194	285.98780045351475	71	127
286.0342403628118	286.08068027210885	76	127
286.1503401360544	286.20839002267576	69	127
286.2315873015873	286.2548299319728	76	127
286.3128798185941	286.3709297052154	72	127
286.440589569161	286.4986394557823	76	127
286.54507936507935	286.6031292517007	71	127
286.6495691609977	286.70761904761906	76	127
286.76566893424035	286.83532879818597	69	127
286.89337868480726	286.93979591836734	76	127
286.99786848072563	287.0675283446712	68	127
287.12557823129254	287.1952380952381	76	127
287.25326530612244	287.2881179138322	66	127
287.34616780045354	287.3809977324263	76	127
287.4274376417234	287.4622675736961	68	127
287.49709750566893	287.53192743764174	76	127
287.6015873015873	287.6480272108844	69	127
287.6944671201814	287.7409070294785	76	127
287.77573696145123	287.8337868480726	71	127
287.8685941043084	287.89183673469387	76	127
287.9498866213152	288.0079365079365	68	127
288.0543764172336	288.1124263038549	76	127
288.205306122449	288.2633560090703	69	127
288.3214058956916	288.3678458049887	68	127
288.4142857142857	288.47231292517006	69	127
288.53038548752835	288.58843537414964	68	127
288.65809523809526	288.7045351473923	69	127
288.7393650793651	288.7625850340136	67	127
288.8322448979592	288.87868480725626	65	127
288.93673469387755	288.9599546485261	64	127
289.0063945578231	289.0528344671202	62	127
289.12249433106575	289.13410430839	61	127
289.19213151927437	289.25020408163266	62	127
289.28503401360547	289.29662131519274	64	127
289.35469387755103	289.4011111111111	65	127
289.47079365079367	289.52884353741496	62	127
289.57528344671204	289.6449433106576	60	127
289.6913832199547	289.74943310657596	59	127
289.8190929705215	289.85392290249433	57	127
289.97002267573697	289.9932426303855	64	127
290.07451247165534	290.13256235827663	69	127
290.20222222222225	290.26027210884354	56	127
290.3299319727891	290.3763718820862	59	127
290.43442176870747	290.4692517006803	64	127
290.5272789115646	290.53891156462583	68	127
290.5969614512472	290.6550113378685	57	127
290.7130612244898	290.7827210884354	60	127
290.85238095238094	290.898820861678	62	127
290.98009070294785	291.01492063492066	64	127
291.0613605442177	291.0961904761905	66	127
291.1542403628118	291.1774603174603	68	127
291.23548752834466	291.2471201814059	69	127
291.3051700680272	291.3748299319728	68	127
291.4444671201814	291.5025396825397	69	127
291.54895691609977	291.61863945578233	68	127
291.65344671201814	291.69990929705216	69	127
291.75795918367345	291.8160090702948	68	127
291.8624489795918	291.9088888888889	69	127
291.9669387755102	292.02498866213153	67	127
292.0830385487528	292.10625850340136	65	127
292.19913832199546	292.23396825396827	62	127
292.24557823129254	292.30362811791383	61	127
292.3500680272109	292.4081179138322	62	127
292.47777777777776	292.5358276643991	64	127
292.5938775510204	292.663514739229	65	127
292.7215873015873	292.7796371882086	62	127
292.8260770975057	292.87249433106575	60	127
292.9189569160998	292.9537868480726	59	127
293.0118367346939	293.0814739229025	60	127
293.1395464852608	293.18596371882086	64	127
293.2208163265306	293.29047619047617	69	127
293.3601360544218	293.42979591836735	56	127
293.46462585034016	293.5110657596372	59	127
293.5807256235828	293.6619954648526	64	127
293.7316553287982	293.7548752834467	68	127
293.8245351473923	293.88258503401363	57	127
293.9406349206349	293.96385487528346	64	127
294.033514739229	294.09156462585037	72	127
294.14961451247166	294.2657142857143	76	127
294.69528344671204	294.7184807256236	64	127
294.77655328798187	294.83460317460316	71	127
294.8926530612245	294.9507029478458	74	127
294.9855328798186	295.2061224489796	76	127
295.4963718820862	295.56603174603174	64	127
295.6124716553288	295.65891156462584	69	127
295.72857142857146	295.78662131519275	72	127
295.8330385487528	296.00721088435375	76	127
296.41356009070296	296.44836734693877	64	127
296.5180498866213	296.5877097505669	71	127
296.64575963718823	296.7038095238095	74	127
296.7038095238095	296.81990929705216	76	127
297.22625850340137	297.28430839002266	76	127
297.33074829931974	297.3771655328798	81	127
297.4468480725624	297.50489795918367	84	127
297.5281179138322	297.6558276643991	88	127
298.0273469387755	298.08537414965986	76	127
298.1550566893424	298.20149659863944	83	127
298.2827664399093	298.32920634920634	86	127
298.32920634920634	298.36403628117915	88	127
298.51496598639454	298.99097505668936	88	127
298.99097505668936	299.18834467120183	84	127
299.18834467120183	299.40893424036284	81	127
299.40893424036284	299.6178911564626	76	127
299.6178911564626	299.8501133786848	72	127
299.8501133786848	299.95460317460316	69	127
299.95460317460316	300.26807256235827	64	127
300.26807256235827	300.5815419501134	60	127
300.6047619047619	303.9716553287982	57	127
304.4708843537415	304.52891156462584	57	127
