# onset,offset,note,velocity
0.06888888888888889	0.4984580498866213	64	127
0.4984580498866213	0.7306575963718821	72	127
0.4984580498866213	0.7306575963718821	57	127
0.7306575963718821	0.9744671201814059	71	127
0.7306575963718821	0.9744671201814059	59	127
0.9744671201814059	1.2066666666666668	69	127
0.9744671201814059	1.2066666666666668	60	127
1.2066666666666668	1.4620861678004535	62	127
1.2066666666666668	1.4620861678004535	68	127
1.4620861678004535	1.6594557823129252	69	127
1.4620861678004535	1.6594557823129252	60	127
1.6594557823129252	1.856825396825397	71	127
1.6594557823129252	1.856825396825397	59	127
1.856825396825397	2.089024943310658	57	127
1.856825396825397	2.089024943310658	72	127
2.089024943310658	2.2631746031746034	69	127
2.089024943310658	2.2631746031746034	60	127
2.3212244897959184	2.553424036281179	59	127
2.3212244897959184	2.553424036281179	74	127
2.553424036281179	2.750793650793651	72	127
2.553424036281179	2.750793650793651	57	127
2.750793650793651	2.9365306122448978	71	127
2.750793650793651	2.9365306122448978	56	127
2.9365306122448978	2.9713832199546486	54	127
2.9365306122448978	2.9713832199546486	70	127
2.9713832199546486	3.0874829931972787	71	127
2.9713832199546486	3.0874829931972787	56	127
3.0874829931972787	3.31968253968254	72	127
3.0874829931972787	3.31968253968254	57	127
3.31968253968254	3.5518820861678004	74	127
3.31968253968254	3.5518820861678004	59	127
3.5518820861678004	3.691201814058957	56	127
3.5518820861678004	3.691201814058957	71	127
3.691201814058957	3.8653514739229027	57	127
3.691201814058957	3.8653514739229027	72	127
3.8653514739229027	4.039501133786848	73	127
3.8653514739229027	4.039501133786848	55	127
4.039501133786848	4.23687074829932	74	127
4.039501133786848	4.23687074829932	53	127
4.23687074829932	4.46907029478458	52	127
4.23687074829932	4.434240362811791	76	127
4.46907029478458	4.933469387755102	77	127
4.46907029478458	4.631609977324263	50	127
4.631609977324263	4.852199546485261	49	127
4.852199546485261	5.061179138321996	50	127
4.933469387755102	5.061179138321996	76	127
5.061179138321996	5.2004761904761905	52	127
5.061179138321996	5.177278911564626	74	127
5.177278911564626	5.212108843537415	72	127
5.235328798185941	5.351428571428571	53	127
5.235328798185941	5.351428571428571	71	127
5.351428571428571	5.409478458049887	72	127
5.409478458049887	5.502358276643991	71	127
5.409478458049887	5.502358276643991	53	127
5.502358276643991	5.5836281179138325	72	127
5.5836281179138325	5.722925170068027	69	127
5.5836281179138325	5.722925170068027	51	127
5.722925170068027	5.757777777777778	71	127
5.757777777777778	5.80421768707483	69	127
5.757777777777778	5.80421768707483	51	127
5.80421768707483	5.873877551020408	71	127
5.908707482993197	6.0364172335600905	68	127
5.908707482993197	6.129297052154195	52	127
6.0364172335600905	6.129297052154195	69	127
6.129297052154195	6.233786848072563	71	127
6.233786848072563	6.3034467120181406	68	127
6.3382766439909295	6.442766439909297	64	127
6.7562358276643995	6.883945578231293	57	127
6.7562358276643995	6.953605442176871	45	127
6.883945578231293	6.953605442176871	64	127
6.953605442176871	6.976825396825397	59	127
6.976825396825397	7.092925170068027	64	127
7.092925170068027	7.197414965986394	60	127
7.197414965986394	7.301904761904762	64	127
7.301904761904762	7.394784580498866	62	127
7.394784580498866	7.4412244897959186	64	127
7.4412244897959186	7.568934240362812	60	127
7.4412244897959186	7.63859410430839	45	127
7.568934240362812	7.63859410430839	64	127
7.63859410430839	7.7430839002267575	59	127
7.7430839002267575	7.859183673469388	64	127
7.859183673469388	7.975283446712018	57	127
7.975283446712018	8.079773242630386	64	127
8.079773242630386	8.20748299319728	60	127
8.20748299319728	8.323582766439909	64	127
8.323582766439909	8.43968253968254	59	127
8.323582766439909	8.55578231292517	40	127
8.43968253968254	8.55578231292517	64	127
8.55578231292517	8.6718820861678	57	127
8.6718820861678	8.764761904761905	64	127
8.764761904761905	8.880861678004536	56	127
8.880861678004536	8.985351473922902	64	127
8.985351473922902	9.113061224489796	54	127
9.113061224489796	9.2059410430839	64	127
9.2059410430839	9.310430839002267	56	127
9.2059410430839	9.43814058956916	40	127
9.310430839002267	9.43814058956916	64	127
9.43814058956916	9.542630385487529	57	127
9.542630385487529	9.647120181405896	64	127
9.647120181405896	9.763219954648527	59	127
9.763219954648527	9.844489795918367	64	127
9.844489795918367	9.902539682539683	56	127
9.902539682539683	9.925759637188209	64	127
9.925759637188209	10.12312925170068	45	127
9.925759637188209	10.030249433106576	57	127
10.030249433106576	10.12312925170068	69	127
10.12312925170068	10.35532879818594	43	127
10.12312925170068	10.239229024943311	57	127
10.239229024943311	10.35532879818594	69	127
10.35532879818594	10.50625850340136	41	127
10.35532879818594	10.436598639455783	57	127
10.436598639455783	10.50625850340136	69	127
10.50625850340136	10.599138321995465	57	127
10.50625850340136	10.703628117913832	40	127
10.599138321995465	10.703628117913832	69	127
10.703628117913832	10.819727891156463	57	127
10.703628117913832	10.900975056689342	38	127
10.819727891156463	10.900975056689342	69	127
10.900975056689342	11.086757369614512	37	127
10.900975056689342	11.005487528344672	57	127
11.005487528344672	11.086757369614512	69	127
11.086757369614512	11.19124716553288	57	127
11.086757369614512	11.19124716553288	38	127
11.19124716553288	11.318956916099774	41	127
11.19124716553288	11.27251700680272	57	127
11.27251700680272	11.365396825396825	69	127
11.365396825396825	11.45827664399093	57	127
11.365396825396825	11.446666666666667	40	127
11.365396825396825	11.446666666666667	52	127
11.45827664399093	11.57437641723356	60	127
11.57437641723356	11.667256235827665	52	127
11.57437641723356	11.667256235827665	40	127
11.57437641723356	11.667256235827665	64	127
11.667256235827665	11.771746031746032	69	127
11.771746031746032	11.887845804988663	56	127
11.771746031746032	11.887845804988663	52	127
11.771746031746032	11.887845804988663	40	127
11.887845804988663	12.003945578231292	59	127
12.003945578231292	12.131655328798185	52	127
12.003945578231292	12.131655328798185	40	127
12.003945578231292	12.131655328798185	64	127
12.131655328798185	12.201315192743763	68	127
12.201315192743763	12.37546485260771	33	127
12.201315192743763	12.37546485260771	45	127
12.247755102040816	12.37546485260771	57	127
12.37546485260771	12.468344671201814	60	127
12.468344671201814	12.549614512471654	64	127
12.549614512471654	12.677324263038548	69	127
12.677324263038548	12.781814058956916	72	127
12.781814058956916	13.048843537414966	56	127
12.781814058956916	12.921133786848072	76	127
12.781814058956916	13.048843537414966	44	127
12.921133786848072	13.048843537414966	72	127
13.048843537414966	13.130113378684808	69	127
13.048843537414966	13.211383219954648	57	127
13.048843537414966	13.211383219954648	45	127
13.130113378684808	13.211383219954648	81	127
13.211383219954648	13.44358276643991	43	127
13.211383219954648	13.327482993197279	69	127
13.211383219954648	13.44358276643991	55	127
13.327482993197279	13.44358276643991	81	127
13.44358276643991	13.52485260770975	53	127
13.44358276643991	13.52485260770975	41	127
13.44358276643991	13.478412698412699	69	127
13.478412698412699	13.52485260770975	81	127
13.52485260770975	13.780272108843537	52	127
13.52485260770975	13.664172335600908	69	127
13.52485260770975	13.780272108843537	40	127
13.664172335600908	13.780272108843537	81	127
13.780272108843537	13.989251700680272	38	127
13.780272108843537	13.989251700680272	50	127
13.780272108843537	13.884761904761906	69	127
13.884761904761906	13.989251700680272	81	127
13.989251700680272	14.116961451247166	37	127
13.989251700680272	14.116961451247166	49	127
13.989251700680272	14.05891156462585	69	127
14.05891156462585	14.116961451247166	81	127
14.116961451247166	14.20984126984127	69	127
14.116961451247166	14.233061224489797	38	127
14.116961451247166	14.233061224489797	50	127
14.20984126984127	14.233061224489797	81	127
14.233061224489797	14.407210884353741	41	127
14.233061224489797	14.349160997732426	69	127
14.233061224489797	14.407210884353741	53	127
14.349160997732426	14.407210884353741	81	127
14.407210884353741	14.418820861678004	52	127
14.407210884353741	14.418820861678004	69	127
14.407210884353741	14.418820861678004	40	127
14.418820861678004	14.523310657596372	72	127
14.523310657596372	14.62780045351474	76	127
14.523310657596372	14.62780045351474	52	127
14.523310657596372	14.62780045351474	40	127
14.62780045351474	14.755510204081633	81	127
14.755510204081633	14.883219954648526	52	127
14.755510204081633	14.883219954648526	68	127
14.755510204081633	14.883219954648526	40	127
14.883219954648526	14.999319727891157	80	127
14.999319727891157	15.092199546485261	40	127
14.999319727891157	15.092199546485261	52	127
14.999319727891157	15.092199546485261	68	127
15.092199546485261	15.12702947845805	80	127
15.12702947845805	15.336009070294784	69	127
15.12702947845805	15.336009070294784	81	127
15.12702947845805	15.336009070294784	33	127
15.12702947845805	15.336009070294784	45	127
15.69591836734694	15.800408163265306	55	127
15.69591836734694	15.800408163265306	43	127
15.800408163265306	15.870068027210884	45	127
15.800408163265306	15.870068027210884	57	127
15.870068027210884	15.97455782312925	47	127
15.870068027210884	15.97455782312925	59	127
15.97455782312925	16.067437641723355	48	127
15.97455782312925	16.067437641723355	60	127
16.067437641723355	16.12548752834467	59	127
16.067437641723355	16.12548752834467	47	127
16.12548752834467	16.22997732426304	60	127
16.12548752834467	16.22997732426304	48	127
16.22997732426304	16.299637188208617	55	127
16.22997732426304	16.299637188208617	43	127
16.299637188208617	16.369297052154195	57	127
16.299637188208617	16.369297052154195	45	127
16.369297052154195	16.462154195011337	59	127
16.369297052154195	16.462154195011337	47	127
16.462154195011337	16.54344671201814	60	127
16.462154195011337	16.54344671201814	48	127
16.54344671201814	16.57827664399093	50	127
16.54344671201814	16.57827664399093	62	127
16.57827664399093	16.682766439909297	64	127
16.57827664399093	16.682766439909297	52	127
16.682766439909297	16.787256235827666	51	127
16.682766439909297	16.787256235827666	63	127
16.787256235827666	16.88013605442177	64	127
16.787256235827666	16.88013605442177	52	127
16.88013605442177	16.984625850340137	59	127
16.88013605442177	16.984625850340137	47	127
16.984625850340137	17.065895691609978	60	127
16.984625850340137	17.065895691609978	48	127
17.065895691609978	17.19360544217687	50	127
17.065895691609978	17.19360544217687	62	127
17.19360544217687	17.309705215419502	64	127
17.19360544217687	17.309705215419502	52	127
17.309705215419502	17.390975056689342	53	127
17.309705215419502	17.390975056689342	65	127
17.390975056689342	17.49546485260771	67	127
17.390975056689342	17.49546485260771	55	127
17.49546485260771	17.56512471655329	54	127
17.49546485260771	17.56512471655329	66	127
17.56512471655329	17.68122448979592	55	127
17.56512471655329	17.68122448979592	67	127
17.68122448979592	17.785714285714285	52	127
17.68122448979592	17.785714285714285	64	127
17.785714285714285	17.890204081632653	53	127
17.785714285714285	17.890204081632653	65	127
17.890204081632653	17.983061224489795	55	127
17.890204081632653	17.983061224489795	67	127
17.983061224489795	18.0643537414966	69	127
17.983061224489795	18.0643537414966	57	127
18.0643537414966	18.18045351473923	59	127
18.0643537414966	18.18045351473923	71	127
18.18045351473923	18.284943310657596	60	127
18.18045351473923	18.284943310657596	72	127
18.284943310657596	18.389433106575964	59	127
18.284943310657596	18.389433106575964	71	127
18.389433106575964	18.505532879818595	60	127
18.389433106575964	18.505532879818595	72	127
18.505532879818595	18.621609977324262	55	127
18.505532879818595	18.621609977324262	67	127
18.621609977324262	18.737732426303854	57	127
18.621609977324262	18.737732426303854	69	127
18.737732426303854	18.760952380952382	72	127
18.737732426303854	18.760952380952382	60	127
18.760952380952382	18.853832199546485	62	127
18.760952380952382	18.853832199546485	74	127
18.853832199546485	19.49238095238095	64	127
18.853832199546485	19.49238095238095	76	127
19.49238095238095	19.654920634920636	73	127
19.49238095238095	19.654920634920636	61	127
19.654920634920636	19.875510204081632	58	127
19.654920634920636	19.875510204081632	70	127
19.875510204081632	20.107709750566894	67	127
19.875510204081632	20.107709750566894	55	127
20.107709750566894	20.351519274376418	52	127
20.107709750566894	20.351519274376418	64	127
20.351519274376418	20.595328798185943	61	127
20.351519274376418	20.595328798185943	49	127
20.595328798185943	20.804308390022676	58	127
20.595328798185943	20.804308390022676	46	127
20.804308390022676	20.978458049886623	43	127
20.804308390022676	20.978458049886623	55	127
20.978458049886623	21.01328798185941	42	127
21.01328798185941	21.16421768707483	46	127
21.01328798185941	21.79113378684807	54	127
21.01328798185941	21.605396825396827	61	127
21.222244897959182	21.605396825396827	47	127
21.605396825396827	21.79113378684807	35	127
21.605396825396827	21.79113378684807	59	127
22.104603174603174	22.603854875283446	74	127
22.104603174603174	22.603854875283446	62	127
22.603854875283446	22.812834467120183	59	127
22.603854875283446	22.812834467120183	71	127
22.812834467120183	22.986984126984126	56	127
22.812834467120183	22.986984126984126	68	127
22.986984126984126	23.195963718820863	65	127
22.986984126984126	23.195963718820863	53	127
23.195963718820863	23.42816326530612	50	127
23.195963718820863	23.42816326530612	62	127
23.42816326530612	23.671972789115646	59	127
23.42816326530612	23.671972789115646	47	127
23.671972789115646	23.91578231292517	44	127
23.671972789115646	23.91578231292517	56	127
23.91578231292517	24.11315192743764	53	127
23.91578231292517	24.11315192743764	41	127
24.11315192743764	24.29891156462585	40	127
24.11315192743764	24.252471655328797	52	127
24.29891156462585	24.48467120181406	44	127
24.29891156462585	24.7865306122449	59	127
24.29891156462585	24.914240362811793	52	127
24.531111111111112	24.7865306122449	45	127
24.7865306122449	24.914240362811793	57	127
24.7865306122449	24.914240362811793	33	127
25.18126984126984	25.71532879818594	81	127
25.18126984126984	25.71532879818594	69	127
25.71532879818594	25.877868480725624	66	127
25.71532879818594	25.877868480725624	78	127
25.877868480725624	26.110068027210886	75	127
25.877868480725624	26.110068027210886	63	127
26.110068027210886	26.29582766439909	60	127
26.110068027210886	26.29582766439909	72	127
26.29582766439909	26.4815873015873	69	127
26.29582766439909	26.4815873015873	57	127
26.4815873015873	26.7021768707483	66	127
26.4815873015873	26.7021768707483	54	127
26.7021768707483	26.88793650793651	63	127
26.7021768707483	26.88793650793651	51	127
26.88793650793651	27.120136054421767	60	127
26.88793650793651	27.120136054421767	48	127
27.120136054421767	27.305895691609976	59	127
27.120136054421767	27.340725623582767	47	127
27.340725623582767	28.025714285714287	59	127
27.340725623582767	27.839954648526078	66	127
27.340725623582767	27.491655328798185	51	127
27.491655328798185	27.839954648526078	52	127
27.839954648526078	28.025714285714287	40	127
27.839954648526078	28.025714285714287	64	127
28.060544217687074	28.304353741496598	54	127
28.060544217687074	28.68748299319728	69	127
28.060544217687074	28.304353741496598	63	127
28.304353741496598	28.68748299319728	64	127
28.304353741496598	28.745532879818594	55	127
28.745532879818594	28.896462585034012	43	127
28.745532879818594	28.896462585034012	67	127
28.942902494331065	29.1518820861678	60	127
28.942902494331065	29.1518820861678	57	127
28.942902494331065	29.360861678004536	66	127
29.1518820861678	29.337641723356008	59	127
29.360861678004536	29.48857142857143	64	127
29.40730158730159	29.581451247165532	47	127
29.581451247165532	30.231609977324265	63	127
29.825260770975056	30.022630385487528	52	127
30.231609977324265	30.347709750566892	64	127
30.382539682539683	30.63795918367347	63	127
30.382539682539683	30.98625850340136	81	127
30.382539682539683	30.63795918367347	66	127
30.63795918367347	30.82371882086168	67	127
30.63795918367347	30.82371882086168	64	127
30.98625850340136	31.090748299319728	79	127
31.13718820861678	31.29972789115646	66	127
31.13718820861678	31.729297052154195	84	127
31.13718820861678	31.29972789115646	69	127
31.29972789115646	31.450657596371883	67	127
31.29972789115646	31.450657596371883	71	127
31.729297052154195	31.90344671201814	83	127
31.949886621315194	32.333015873015874	78	127
31.949886621315194	32.333015873015874	81	127
31.949886621315194	32.170476190476194	69	127
32.170476190476194	32.30979591836735	71	127
32.333015873015874	32.762585034013604	79	127
32.333015873015874	32.762585034013604	76	127
32.50716553287982	32.762585034013604	59	127
32.762585034013604	32.983174603174604	75	127
32.762585034013604	32.983174603174604	78	127
32.983174603174604	33.16891156462585	76	127
32.983174603174604	33.16891156462585	64	127
33.366303854875284	33.47079365079365	83	127
33.47079365079365	33.72621315192744	71	127
33.47079365079365	33.72621315192744	67	127
33.47079365079365	33.80746031746032	64	127
33.47079365079365	33.598503401360546	79	127
33.598503401360546	33.72621315192744	76	127
33.72621315192744	33.80746031746032	72	127
33.72621315192744	33.80746031746032	69	127
33.72621315192744	33.80746031746032	75	127
34.202222222222225	34.26027210884354	84	127
34.26027210884354	34.57371882086168	64	127
34.26027210884354	34.48086167800454	72	127
34.26027210884354	34.48086167800454	69	127
34.26027210884354	34.364761904761906	81	127
34.364761904761906	34.48086167800454	75	127
34.48086167800454	34.57371882086168	76	127
34.48086167800454	34.57371882086168	71	127
34.48086167800454	34.57371882086168	67	127
34.93365079365079	35.07294784580499	83	127
35.07294784580499	35.31678004535147	67	127
35.07294784580499	35.31678004535147	71	127
35.07294784580499	35.40965986394558	64	127
35.07294784580499	35.20065759637188	79	127
35.20065759637188	35.31678004535147	76	127
35.31678004535147	35.40965986394558	75	127
35.31678004535147	35.40965986394558	69	127
35.31678004535147	35.40965986394558	72	127
35.734739229024946	35.76956916099773	84	127
35.76956916099773	35.95532879818594	72	127
35.76956916099773	35.95532879818594	69	127
35.76956916099773	35.85083900226758	81	127
35.76956916099773	36.02498866213152	64	127
35.85083900226758	35.95532879818594	75	127
35.95532879818594	36.02498866213152	76	127
35.95532879818594	36.02498866213152	68	127
35.95532879818594	36.02498866213152	71	127
36.500997732426306	36.547437641723356	77	127
36.547437641723356	36.66353741496599	74	127
36.66353741496599	36.79124716553288	71	127
36.79124716553288	36.82607709750567	68	127
36.79124716553288	36.849274376417235	52	127
37.418185941043085	37.60394557823129	65	127
37.60394557823129	37.85934240362812	62	127
37.85934240362812	38.068344671201814	59	127
38.230884353741494	41.09854875283447	56	127
38.230884353741494	39.13643990929705	40	127
42.503356009070295	45.939909297052154	77	127
45.939909297052154	46.63650793650794	76	127
46.63650793650794	47.34471655328798	74	127
47.34471655328798	47.43759637188209	73	127
47.43759637188209	47.55369614512472	74	127
47.55369614512472	47.65818594104309	73	127
47.65818594104309	47.77428571428572	74	127
47.77428571428572	47.855555555555554	73	127
47.855555555555554	47.90199546485261	74	127
47.90199546485261	47.99487528344671	76	127
47.99487528344671	50.444580498866216	74	127
51.10634920634921	51.408208616780044	64	127
51.408208616780044	51.66362811791383	72	127
51.408208616780044	51.66362811791383	57	127
51.66362811791383	51.907437641723355	59	127
51.66362811791383	51.907437641723355	71	127
51.907437641723355	52.16285714285714	60	127
51.907437641723355	52.16285714285714	69	127
52.16285714285714	52.453106575963716	62	127
52.16285714285714	52.453106575963716	68	127
52.453106575963716	52.7085260770975	60	127
52.453106575963716	52.7085260770975	69	127
52.7085260770975	52.98716553287982	59	127
52.7085260770975	52.98716553287982	71	127
52.98716553287982	53.230975056689346	72	127
52.98716553287982	53.230975056689346	57	127
53.230975056689346	53.439954648526076	60	127
53.230975056689346	53.439954648526076	69	127
53.48639455782313	53.69537414965986	59	127
53.48639455782313	53.69537414965986	74	127
53.69537414965986	53.93918367346939	57	127
53.69537414965986	53.93918367346939	72	127
53.93918367346939	54.18299319727891	56	127
53.93918367346939	54.18299319727891	71	127
54.18299319727891	54.426802721088436	54	127
54.18299319727891	54.426802721088436	70	127
54.426802721088436	54.647392290249435	56	127
54.426802721088436	54.647392290249435	71	127
54.647392290249435	54.90281179138322	72	127
54.647392290249435	54.90281179138322	57	127
54.90281179138322	55.135011337868484	59	127
54.90281179138322	55.135011337868484	74	127
55.135011337868484	55.2859410430839	56	127
55.135011337868484	55.2859410430839	71	127
55.30916099773243	55.518140589569164	72	127
55.30916099773243	55.518140589569164	57	127
55.518140589569164	55.73873015873016	73	127
55.518140589569164	55.73873015873016	55	127
55.73873015873016	55.947709750566894	74	127
55.73873015873016	55.947709750566894	53	127
55.947709750566894	56.08702947845805	76	127
55.947709750566894	56.1334693877551	52	127
56.1334693877551	56.725578231292516	77	127
56.1334693877551	56.37727891156462	50	127
56.37727891156462	56.609478458049885	49	127
56.609478458049885	56.85328798185941	50	127
56.725578231292516	56.85328798185941	76	127
56.85328798185941	56.9809977324263	74	127
56.85328798185941	57.03904761904762	52	127
56.9809977324263	57.06226757369615	72	127
57.08548752834467	57.17836734693878	53	127
57.08548752834467	57.17836734693878	71	127
57.17836734693878	57.23641723356009	72	127
57.23641723356009	57.329297052154196	71	127
57.23641723356009	57.329297052154196	53	127
57.329297052154196	57.433786848072565	72	127
57.433786848072565	57.526666666666664	69	127
57.433786848072565	57.526666666666664	51	127
57.526666666666664	57.596326530612245	71	127
57.596326530612245	57.66598639455783	69	127
57.596326530612245	57.66598639455783	51	127
57.66598639455783	57.758866213151926	71	127
57.78208616780045	57.89818594104308	52	127
57.78208616780045	57.79369614512472	68	127
57.79369614512472	57.89818594104308	69	127
57.89818594104308	58.03750566893424	71	127
58.03750566893424	58.141995464852606	68	127
58.16521541950113	58.292925170068024	64	127
58.65283446712018	58.75732426303855	57	127
58.65283446712018	58.850204081632654	45	127
58.75732426303855	58.850204081632654	64	127
58.850204081632654	58.94308390022676	59	127
58.94308390022676	59.059183673469384	64	127
59.059183673469384	59.175283446712015	60	127
59.175283446712015	59.2449433106576	64	127
59.2449433106576	59.30299319727891	62	127
59.30299319727891	59.40748299319728	64	127
59.40748299319728	59.53519274376417	60	127
59.40748299319728	59.62807256235828	45	127
59.53519274376417	59.62807256235828	64	127
59.62807256235828	59.76739229024943	59	127
59.76739229024943	59.8718820861678	64	127
59.8718820861678	59.98798185941043	57	127
59.98798185941043	60.06925170068027	64	127
60.06925170068027	60.12730158730159	60	127
60.12730158730159	60.25501133786848	64	127
60.25501133786848	60.34789115646259	59	127
60.25501133786848	60.46399092970522	40	127
60.34789115646259	60.46399092970522	64	127
60.46399092970522	60.56848072562358	57	127
60.56848072562358	60.68458049886621	64	127
60.68458049886621	60.80068027210884	56	127
60.80068027210884	60.91678004535147	64	127
60.91678004535147	60.986439909297054	54	127
60.986439909297054	61.09092970521542	64	127
61.09092970521542	61.265079365079366	40	127
61.09092970521542	61.17219954648526	56	127
61.17219954648526	61.265079365079366	64	127
61.265079365079366	61.33473922902494	57	127
61.33473922902494	61.39278911564626	64	127
61.39278911564626	61.49727891156463	59	127
61.49727891156463	61.5669387755102	64	127
61.5669387755102	61.694648526077096	56	127
61.694648526077096	61.799138321995464	64	127
61.799138321995464	61.95006802721088	45	127
61.799138321995464	61.89201814058957	57	127
61.89201814058957	61.95006802721088	69	127
61.95006802721088	62.04294784580499	57	127
61.95006802721088	62.08938775510204	43	127
62.04294784580499	62.08938775510204	69	127
62.08938775510204	62.182267573696144	57	127
62.08938775510204	62.33319727891156	41	127
62.182267573696144	62.33319727891156	69	127
62.33319727891156	62.5421768707483	40	127
62.33319727891156	62.43768707482993	57	127
62.43768707482993	62.5421768707483	69	127
62.5421768707483	62.65827664399093	57	127
62.5421768707483	62.797596371882086	38	127
62.65827664399093	62.797596371882086	69	127
62.797596371882086	63.04140589569161	37	127
62.797596371882086	62.92530612244898	57	127
62.92530612244898	63.04140589569161	69	127
63.04140589569161	63.14589569160998	38	127
63.04140589569161	63.122675736961455	57	127
63.122675736961455	63.14589569160998	69	127
63.14589569160998	63.23877551020408	41	127
63.14589569160998	63.227165532879816	57	127
63.227165532879816	63.285215419501135	69	127
63.285215419501135	63.41292517006803	57	127
63.285215419501135	63.41292517006803	52	127
63.285215419501135	63.41292517006803	40	127
63.41292517006803	63.505804988662135	60	127
63.505804988662135	63.598684807256234	40	127
63.505804988662135	63.598684807256234	64	127
63.505804988662135	63.598684807256234	52	127
63.598684807256234	63.69156462585034	69	127
63.69156462585034	63.80766439909297	52	127
63.69156462585034	63.80766439909297	56	127
63.69156462585034	63.80766439909297	40	127
63.80766439909297	63.91215419501134	59	127
63.91215419501134	64.03986394557823	40	127
63.91215419501134	64.03986394557823	52	127
63.91215419501134	64.03986394557823	64	127
64.03986394557823	64.13274376417233	68	127
64.13274376417233	64.33011337868481	45	127
64.13274376417233	64.33011337868481	33	127
64.24884353741497	64.33011337868481	57	127
64.33011337868481	64.43458049886621	60	127
64.43458049886621	64.5622902494331	64	127
64.5622902494331	64.66680272108843	69	127
64.66680272108843	64.73646258503402	72	127
64.73646258503402	64.94541950113378	44	127
64.73646258503402	64.82934240362812	76	127
64.73646258503402	64.94541950113378	56	127
64.82934240362812	64.94541950113378	72	127
64.94541950113378	65.02671201814059	69	127
64.94541950113378	65.09637188208617	45	127
64.94541950113378	65.09637188208617	57	127
65.02671201814059	65.09637188208617	81	127
65.09637188208617	65.25891156462585	55	127
65.09637188208617	65.25891156462585	43	127
65.09637188208617	65.18925170068027	69	127
65.18925170068027	65.25891156462585	81	127
65.25891156462585	65.43306122448979	53	127
65.25891156462585	65.43306122448979	41	127
65.25891156462585	65.32854875283446	69	127
65.32854875283446	65.43306122448979	81	127
65.43306122448979	65.6536507936508	52	127
65.43306122448979	65.6536507936508	40	127
65.43306122448979	65.56074829931973	69	127
65.56074829931973	65.6536507936508	81	127
65.6536507936508	65.78136054421769	50	127
65.6536507936508	65.78136054421769	38	127
65.6536507936508	65.71167800453514	69	127
65.71167800453514	65.78136054421769	81	127
65.78136054421769	65.99034013605443	49	127
65.78136054421769	65.99034013605443	37	127
65.78136054421769	65.89746031746031	69	127
65.89746031746031	65.99034013605443	81	127
65.99034013605443	66.1992970521542	38	127
65.99034013605443	66.1992970521542	50	127
65.99034013605443	66.09480725623582	69	127
66.09480725623582	66.1992970521542	81	127
66.1992970521542	66.31541950113379	53	127
66.1992970521542	66.31541950113379	41	127
66.1992970521542	66.31541950113379	69	127
66.31541950113379	66.41990929705216	69	127
66.31541950113379	66.41990929705216	52	127
66.31541950113379	66.41990929705216	40	127
66.41990929705216	66.52439909297053	72	127
66.52439909297053	66.64049886621315	52	127
66.52439909297053	66.64049886621315	40	127
66.52439909297053	66.64049886621315	76	127
66.64049886621315	66.76820861678004	81	127
66.76820861678004	66.89591836734694	40	127
66.76820861678004	66.89591836734694	52	127
66.76820861678004	66.89591836734694	68	127
66.89591836734694	67.04684807256236	80	127
67.04684807256236	67.19777777777777	68	127
67.04684807256236	67.19777777777777	40	127
67.04684807256236	67.19777777777777	52	127
67.19777777777777	67.33709750566894	80	127
67.33709750566894	67.65056689342404	69	127
67.33709750566894	67.65056689342404	45	127
67.33709750566894	67.65056689342404	33	127
67.33709750566894	67.65056689342404	81	127
68.0685260770975	68.20784580498866	45	127
68.0685260770975	68.20784580498866	52	127
68.0685260770975	68.20784580498866	57	127
68.0685260770975	68.20784580498866	61	127
68.35877551020408	68.49807256235827	61	127
68.35877551020408	68.49807256235827	57	127
68.35877551020408	68.49807256235827	45	127
68.35877551020408	68.49807256235827	52	127
69.05537414965987	69.19469387755102	54	127
69.05537414965987	69.19469387755102	50	127
69.05537414965987	69.19469387755102	59	127
69.05537414965987	69.19469387755102	57	127
69.05537414965987	69.19469387755102	38	127
69.32240362811791	69.4501133786848	50	127
69.32240362811791	69.4501133786848	54	127
69.32240362811791	69.4501133786848	57	127
69.32240362811791	69.4501133786848	59	127
69.32240362811791	69.4501133786848	38	127
69.86807256235828	69.99578231292517	59	127
69.86807256235828	69.99578231292517	56	127
69.86807256235828	69.99578231292517	62	127
69.86807256235828	69.99578231292517	40	127
69.86807256235828	69.99578231292517	52	127
70.1118820861678	70.22798185941043	52	127
70.1118820861678	70.22798185941043	56	127
70.1118820861678	70.22798185941043	59	127
70.1118820861678	70.22798185941043	62	127
70.1118820861678	70.22798185941043	40	127
70.75043083900226	70.87814058956916	52	127
70.75043083900226	70.87814058956916	61	127
70.75043083900226	70.87814058956916	57	127
70.75043083900226	70.87814058956916	45	127
70.9942403628118	71.09873015873016	52	127
70.9942403628118	71.09873015873016	45	127
70.9942403628118	71.09873015873016	61	127
70.9942403628118	71.09873015873016	57	127
71.56312925170069	71.67922902494331	54	127
71.56312925170069	71.67922902494331	57	127
71.56312925170069	71.67922902494331	61	127
71.56312925170069	71.67922902494331	42	127
71.79530612244898	71.91142857142857	61	127
71.79530612244898	71.91142857142857	57	127
71.79530612244898	71.91142857142857	42	127
71.79530612244898	71.91142857142857	54	127
72.39904761904762	72.52675736961451	56	127
72.39904761904762	72.52675736961451	59	127
72.39904761904762	72.52675736961451	61	127
72.39904761904762	72.52675736961451	41	127
72.39904761904762	72.52675736961451	53	127
72.61963718820861	72.74734693877551	56	127
72.61963718820861	72.74734693877551	59	127
72.61963718820861	72.74734693877551	61	127
72.61963718820861	72.74734693877551	41	127
72.61963718820861	72.74734693877551	53	127
73.26979591836735	73.4091156462585	54	127
73.26979591836735	73.4091156462585	58	127
73.26979591836735	73.4091156462585	61	127
73.26979591836735	73.4091156462585	40	127
73.26979591836735	73.4091156462585	52	127
73.46716553287982	73.59487528344671	52	127
73.46716553287982	73.59487528344671	58	127
73.46716553287982	73.59487528344671	54	127
73.46716553287982	73.59487528344671	40	127
73.46716553287982	73.59487528344671	61	127
74.39596371882087	76.95015873015873	54	127
74.39596371882087	76.95015873015873	59	127
74.39596371882087	76.95015873015873	66	127
74.39596371882087	76.95015873015873	38	127
74.39596371882087	76.95015873015873	50	127
77.49580498866213	77.63514739229025	47	127
77.49580498866213	77.63514739229025	62	127
77.49580498866213	77.63514739229025	59	127
77.49580498866213	77.63514739229025	54	127
77.78607709750567	77.93700680272109	59	127
77.78607709750567	77.93700680272109	54	127
77.78607709750567	77.93700680272109	47	127
77.78607709750567	77.93700680272109	62	127
78.38977324263038	78.51748299319728	59	127
78.38977324263038	78.51748299319728	52	127
78.38977324263038	78.51748299319728	40	127
78.38977324263038	78.51748299319728	61	127
78.38977324263038	78.51748299319728	55	127
78.66843537414967	78.80775510204082	55	127
78.66843537414967	78.80775510204082	59	127
78.66843537414967	78.80775510204082	61	127
78.66843537414967	78.80775510204082	40	127
78.66843537414967	78.80775510204082	52	127
79.33020408163266	79.44630385487528	42	127
79.33020408163266	79.44630385487528	58	127
79.33020408163266	79.44630385487528	61	127
79.33020408163266	79.44630385487528	64	127
79.33020408163266	79.44630385487528	54	127
79.56240362811792	79.66687074829932	58	127
79.56240362811792	79.66687074829932	54	127
79.56240362811792	79.66687074829932	42	127
79.56240362811792	79.66687074829932	64	127
79.56240362811792	79.66687074829932	61	127
80.1312925170068	80.23578231292517	59	127
80.1312925170068	80.23578231292517	62	127
80.1312925170068	80.23578231292517	47	127
80.1312925170068	80.23578231292517	54	127
80.37510204081633	80.49120181405895	62	127
80.37510204081633	80.49120181405895	59	127
80.37510204081633	80.49120181405895	47	127
80.37510204081633	80.49120181405895	54	127
81.0136507936508	81.11814058956917	62	127
81.0136507936508	81.11814058956917	59	127
81.0136507936508	81.11814058956917	43	127
81.0136507936508	81.11814058956917	55	127
81.21102040816326	81.33873015873016	43	127
81.21102040816326	81.33873015873016	62	127
81.21102040816326	81.33873015873016	59	127
81.21102040816326	81.33873015873016	55	127
81.81471655328798	81.96566893424037	54	127
81.81471655328798	81.96566893424037	62	127
81.81471655328798	81.96566893424037	57	127
81.81471655328798	81.96566893424037	42	127
82.11659863945579	82.25591836734694	62	127
82.11659863945579	82.25591836734694	57	127
82.11659863945579	82.25591836734694	54	127
82.11659863945579	82.25591836734694	42	127
82.88285714285715	86.08721088435374	40	127
82.88285714285715	86.08721088435374	57	127
82.88285714285715	86.08721088435374	61	127
82.88285714285715	86.08721088435374	67	127
82.88285714285715	86.08721088435374	52	127
86.28458049886622	86.41229024943311	62	127
86.28458049886622	86.41229024943311	65	127
86.28458049886622	86.41229024943311	50	127
86.28458049886622	86.41229024943311	57	127
86.54	86.65609977324263	50	127
86.54	86.65609977324263	62	127
86.54	86.65609977324263	65	127
86.54	86.65609977324263	57	127
87.2946485260771	87.44557823129252	62	127
87.2946485260771	87.44557823129252	58	127
87.2946485260771	87.44557823129252	65	127
87.2946485260771	87.44557823129252	46	127
87.59650793650793	87.7358276643991	58	127
87.59650793650793	87.7358276643991	65	127
87.59650793650793	87.7358276643991	46	127
87.59650793650793	87.7358276643991	62	127
88.60657596371883	91.49746031746032	56	127
88.60657596371883	91.49746031746032	44	127
88.60657596371883	91.49746031746032	64	127
88.60657596371883	91.49746031746032	62	127
88.60657596371883	91.49746031746032	59	127
91.98507936507937	92.21725623582766	64	127
92.21725623582766	92.44947845804988	57	127
92.21725623582766	92.44947845804988	72	127
92.44947845804988	92.64684807256236	71	127
92.44947845804988	92.64684807256236	59	127
92.64684807256236	92.86743764172336	69	127
92.64684807256236	92.86743764172336	60	127
92.86743764172336	93.00675736961452	62	127
92.86743764172336	93.00675736961452	68	127
93.00675736961452	93.27378684807256	69	127
93.00675736961452	93.27378684807256	60	127
93.27378684807256	93.51759637188209	71	127
93.27378684807256	93.51759637188209	59	127
93.51759637188209	93.78462585034013	57	127
93.51759637188209	93.78462585034013	72	127
93.78462585034013	93.97038548752835	60	127
93.78462585034013	93.97038548752835	69	127
94.0168253968254	94.19097505668934	59	127
94.0168253968254	94.19097505668934	74	127
94.19097505668934	94.38832199546485	57	127
94.19097505668934	94.38832199546485	72	127
94.38832199546485	94.50444444444445	56	127
94.38832199546485	94.50444444444445	71	127
94.50444444444445	94.66698412698413	70	127
94.50444444444445	94.66698412698413	54	127
94.66698412698413	94.84113378684808	56	127
94.66698412698413	94.84113378684808	71	127
94.84113378684808	94.94562358276644	72	127
94.84113378684808	94.94562358276644	57	127
94.94562358276644	95.11977324263039	59	127
94.94562358276644	95.11977324263039	74	127
95.11977324263039	95.3055328798186	56	127
95.11977324263039	95.3055328798186	71	127
95.32875283446712	95.35197278911565	72	127
95.32875283446712	95.35197278911565	57	127
95.35197278911565	95.54934240362812	55	127
95.35197278911565	95.54934240362812	73	127
95.54934240362812	95.65383219954649	53	127
95.54934240362812	95.65383219954649	74	127
95.65383219954649	95.8395918367347	76	127
95.65383219954649	95.88603174603175	52	127
95.88603174603175	96.10662131519274	50	127
95.88603174603175	96.43170068027212	77	127
96.10662131519274	96.30399092970522	49	127
96.30399092970522	96.52458049886621	50	127
96.43170068027212	96.52458049886621	76	127
96.52458049886621	96.6871201814059	52	127
96.52458049886621	96.64068027210884	74	127
96.64068027210884	96.71034013605443	72	127
96.7451700680272	96.8728798185941	71	127
96.7451700680272	96.8728798185941	53	127
96.8728798185941	96.98897959183674	72	127
96.98897959183674	97.0934693877551	71	127
96.98897959183674	97.0934693877551	53	127
97.0934693877551	97.20956916099773	72	127
97.20956916099773	97.26761904761905	51	127
97.20956916099773	97.26761904761905	69	127
97.26761904761905	97.32566893424037	71	127
97.32566893424037	97.4069387755102	71	127
97.43015873015872	97.6275283446712	52	127
97.43015873015872	97.52303854875284	68	127
97.52303854875284	97.6275283446712	69	127
97.6275283446712	97.76684807256235	71	127
97.76684807256235	97.88294784580499	68	127
97.90616780045352	98.02226757369614	64	127
98.33573696145125	98.41700680272109	45	127
98.33573696145125	98.40539682539682	57	127
98.40539682539682	98.41700680272109	64	127
98.41700680272109	98.52149659863946	59	127
98.52149659863946	98.62598639455783	64	127
98.62598639455783	98.75369614512472	60	127
98.75369614512472	98.88140589569161	64	127
98.88140589569161	98.98589569160998	62	127
98.98589569160998	99.09038548752835	64	127
99.09038548752835	99.3225850340136	45	127
99.09038548752835	99.21809523809524	60	127
99.21809523809524	99.3225850340136	64	127
99.3225850340136	99.45029478458049	59	127
99.45029478458049	99.57800453514739	64	127
99.57800453514739	99.68249433106575	57	127
99.68249433106575	99.77537414965987	64	127
99.77537414965987	99.87986394557824	60	127
99.87986394557824	100.00757369614513	64	127
100.00757369614513	100.1120634920635	59	127
100.00757369614513	100.21655328798185	40	127
100.1120634920635	100.21655328798185	64	127
100.21655328798185	100.33265306122449	57	127
100.33265306122449	100.34426303854875	64	127
100.34426303854875	100.39070294784581	56	127
100.39070294784581	100.48358276643991	64	127
100.48358276643991	100.57646258503401	54	127
100.57646258503401	100.68095238095238	64	127
100.68095238095238	100.90154195011338	40	127
100.68095238095238	100.79705215419501	56	127
100.79705215419501	100.90154195011338	64	127
100.90154195011338	100.97120181405896	64	127
100.97120181405896	101.07569160997733	59	127
101.07569160997733	101.19179138321995	64	127
101.19179138321995	101.30789115646259	56	127
101.30789115646259	101.42399092970521	64	127
101.42399092970521	101.59814058956916	45	127
101.42399092970521	101.51687074829933	57	127
101.51687074829933	101.59814058956916	69	127
101.59814058956916	101.70263038548752	57	127
101.59814058956916	101.80712018140589	43	127
101.70263038548752	101.80712018140589	69	127
101.80712018140589	102.01609977324263	41	127
101.80712018140589	101.9	57	127
101.9	102.01609977324263	69	127
102.01609977324263	102.24829931972789	40	127
102.01609977324263	102.120589569161	57	127
102.120589569161	102.24829931972789	69	127
102.24829931972789	102.50371882086168	38	127
102.24829931972789	102.38761904761905	57	127
102.38761904761905	102.50371882086168	69	127
102.50371882086168	102.6198185941043	57	127
102.50371882086168	102.73591836734694	37	127
102.6198185941043	102.73591836734694	69	127
102.73591836734694	102.84040816326531	38	127
102.73591836734694	102.75913832199547	57	127
102.75913832199547	102.84040816326531	69	127
102.84040816326531	103.01455782312925	41	127
102.84040816326531	102.95650793650793	57	127
102.95650793650793	103.0609977324263	69	127
103.0609977324263	103.14226757369615	52	127
103.0609977324263	103.14226757369615	57	127
103.0609977324263	103.14226757369615	40	127
103.14226757369615	103.21192743764172	60	127
103.21192743764172	103.31641723356009	52	127
103.21192743764172	103.31641723356009	64	127
103.21192743764172	103.31641723356009	40	127
103.31641723356009	103.42090702947846	69	127
103.42090702947846	103.49056689342403	56	127
103.42090702947846	103.49056689342403	52	127
103.42090702947846	103.49056689342403	40	127
103.49056689342403	103.58344671201814	59	127
103.58344671201814	103.66471655328799	52	127
103.58344671201814	103.66471655328799	64	127
103.58344671201814	103.66471655328799	40	127
103.66471655328799	103.79242630385488	68	127
103.79242630385488	104.0014058956916	33	127
103.79242630385488	104.0014058956916	45	127
103.88530612244898	104.0014058956916	57	127
104.0014058956916	104.11750566893424	60	127
104.11750566893424	104.19877551020409	64	127
104.19877551020409	104.25682539682539	69	127
104.25682539682539	104.32648526077098	72	127
104.32648526077098	104.45419501133787	76	127
104.32648526077098	104.5702947845805	56	127
104.32648526077098	104.5702947845805	44	127
104.45419501133787	104.5702947845805	72	127
104.5702947845805	104.62834467120182	69	127
104.5702947845805	104.72122448979592	45	127
104.5702947845805	104.72122448979592	57	127
104.62834467120182	104.72122448979592	81	127
104.72122448979592	104.79088435374149	69	127
104.72122448979592	104.91859410430838	43	127
104.72122448979592	104.91859410430838	55	127
104.79088435374149	104.91859410430838	81	127
104.91859410430838	105.15079365079364	53	127
104.91859410430838	105.15079365079364	41	127
104.91859410430838	105.04630385487529	69	127
105.04630385487529	105.15079365079364	81	127
105.15079365079364	105.34816326530613	40	127
105.15079365079364	105.34816326530613	52	127
105.15079365079364	105.27850340136054	69	127
105.27850340136054	105.34816326530613	81	127
105.34816326530613	105.35977324263038	69	127
105.34816326530613	105.47587301587302	38	127
105.34816326530613	105.47587301587302	50	127
105.35977324263038	105.47587301587302	81	127
105.47587301587302	105.70807256235828	37	127
105.47587301587302	105.70807256235828	49	127
105.47587301587302	105.60358276643991	69	127
105.60358276643991	105.70807256235828	81	127
105.70807256235828	105.8241723356009	69	127
105.70807256235828	105.89383219954648	38	127
105.70807256235828	105.89383219954648	50	127
105.8241723356009	105.89383219954648	81	127
105.89383219954648	106.07959183673469	41	127
105.89383219954648	106.07959183673469	53	127
105.89383219954648	106.00993197278912	69	127
106.00993197278912	106.11442176870749	81	127
106.11442176870749	106.23052154195011	69	127
106.11442176870749	106.23052154195011	52	127
106.11442176870749	106.23052154195011	40	127
106.23052154195011	106.358231292517	72	127
106.358231292517	106.4859410430839	76	127
106.358231292517	106.4859410430839	52	127
106.358231292517	106.4859410430839	40	127
106.4859410430839	106.60204081632654	81	127
106.60204081632654	106.71814058956916	40	127
106.60204081632654	106.71814058956916	52	127
106.60204081632654	106.71814058956916	68	127
106.71814058956916	106.81102040816326	80	127
106.81102040816326	106.9271201814059	40	127
106.81102040816326	106.9271201814059	68	127
106.81102040816326	106.9271201814059	52	127
106.9271201814059	107.04321995464852	80	127
107.04321995464852	107.29863945578231	33	127
107.04321995464852	107.29863945578231	69	127
107.04321995464852	107.29863945578231	81	127
107.04321995464852	107.29863945578231	45	127
107.92557823129252	108.90081632653062	69	127
107.92557823129252	108.90081632653062	72	127
107.92557823129252	108.90081632653062	65	127
108.90081632653062	109.77156462585035	72	127
108.90081632653062	109.77156462585035	70	127
108.90081632653062	109.77156462585035	67	127
109.77156462585035	110.73519274376417	72	127
109.77156462585035	110.73519274376417	67	127
109.77156462585035	110.73519274376417	64	127
110.73519274376417	111.55950113378685	65	127
110.73519274376417	111.55950113378685	69	127
110.73519274376417	111.55950113378685	72	127
111.64077097505668	112.44185941043084	62	127
111.64077097505668	112.44185941043084	58	127
111.64077097505668	112.44185941043084	70	127
112.44185941043084	113.34743764172336	63	127
112.44185941043084	113.34743764172336	69	127
112.44185941043084	113.34743764172336	60	127
113.34743764172336	113.71895691609977	62	127
113.34743764172336	113.71895691609977	58	127
113.34743764172336	113.71895691609977	70	127
113.71895691609977	113.91632653061224	72	127
113.71895691609977	113.91632653061224	57	127
113.71895691609977	113.91632653061224	60	127
113.91632653061224	114.17174603174603	55	127
113.91632653061224	114.13691609977325	74	127
113.91632653061224	114.17174603174603	58	127
114.17174603174603	114.65936507936507	67	127
114.17174603174603	114.65936507936507	65	127
114.17174603174603	114.65936507936507	60	127
114.65936507936507	114.83351473922903	48	127
114.65936507936507	114.83351473922903	64	127
114.89156462585034	115.08893424036282	72	127
115.08893424036282	115.89002267573696	69	127
115.08893424036282	115.89002267573696	77	127
115.08893424036282	115.89002267573696	65	127
115.89002267573696	116.73755102040816	70	127
115.89002267573696	116.73755102040816	76	127
115.89002267573696	116.73755102040816	67	127
116.73755102040816	117.67795918367347	82	127
116.73755102040816	117.67795918367347	67	127
116.73755102040816	117.67795918367347	64	127
117.67795918367347	118.4558276643991	81	127
117.67795918367347	118.4558276643991	65	127
117.67795918367347	118.4558276643991	69	127
118.56031746031746	119.3962358276644	62	127
118.56031746031746	119.3962358276644	58	127
118.56031746031746	119.3962358276644	79	127
119.3962358276644	119.88385487528345	81	127
119.3962358276644	119.88385487528345	57	127
119.3962358276644	119.88385487528345	60	127
119.88385487528345	120.23215419501133	82	127
119.88385487528345	120.23215419501133	55	127
119.88385487528345	120.23215419501133	58	127
120.23215419501133	120.69655328798186	60	127
120.23215419501133	120.69655328798186	81	127
120.69655328798186	120.7778231292517	81	127
120.69655328798186	121.17256235827665	48	127
120.7778231292517	120.84748299319727	79	127
120.84748299319727	120.92875283446712	81	127
120.92875283446712	121.01002267573696	79	127
121.01002267573696	121.0912925170068	81	127
121.0912925170068	121.16095238095238	79	127
121.17256235827665	121.45120181405896	53	127
121.17256235827665	121.45120181405896	77	127
122.08975056689343	123.04176870748299	69	127
122.08975056689343	123.04176870748299	72	127
122.08975056689343	123.04176870748299	65	127
123.04176870748299	123.99378684807256	73	127
123.04176870748299	123.99378684807256	63	127
123.04176870748299	123.99378684807256	67	127
123.99378684807256	124.84131519274376	62	127
123.99378684807256	124.79487528344671	74	127
123.99378684807256	124.84131519274376	66	127
124.84131519274376	125.83977324263039	74	127
124.84131519274376	125.83977324263039	67	127
124.84131519274376	125.83977324263039	70	127
125.83977324263039	126.58281179138322	72	127
125.83977324263039	126.68730158730159	64	127
125.83977324263039	126.68730158730159	70	127
126.68730158730159	127.5928798185941	65	127
126.68730158730159	127.5928798185941	72	127
126.68730158730159	127.5928798185941	69	127
127.5928798185941	128.08049886621316	62	127
127.5928798185941	128.08049886621316	65	127
127.5928798185941	128.08049886621316	74	127
128.08049886621316	128.60292517006803	79	127
128.08049886621316	128.60292517006803	58	127
128.08049886621316	128.60292517006803	62	127
128.60292517006803	128.6958276643991	64	127
128.60292517006803	128.6958276643991	60	127
128.60292517006803	128.6958276643991	76	127
129.33437641723356	129.55496598639456	72	127
129.55496598639456	130.41410430839002	84	127
129.55496598639456	130.41410430839002	69	127
129.55496598639456	130.41410430839002	65	127
130.41410430839002	131.34290249433107	81	127
130.41410430839002	131.34290249433107	63	127
130.41410430839002	131.34290249433107	67	127
131.34290249433107	132.1207709750567	62	127
131.34290249433107	132.1207709750567	86	127
131.34290249433107	132.1207709750567	66	127
132.1207709750567	133.00312925170067	70	127
132.1207709750567	133.00312925170067	67	127
132.1207709750567	133.00312925170067	82	127
133.00312925170067	133.47913832199546	64	127
133.00312925170067	133.943537414966	79	127
133.00312925170067	133.47913832199546	67	127
133.47913832199546	133.943537414966	60	127
133.47913832199546	133.943537414966	64	127
133.943537414966	134.4079365079365	69	127
133.943537414966	134.4079365079365	81	127
133.943537414966	134.4079365079365	65	127
134.4079365079365	134.8839455782313	58	127
134.4079365079365	134.8839455782313	82	127
134.8839455782313	135.33673469387756	81	127
134.8839455782313	135.33673469387756	60	127
135.33673469387756	135.42961451247166	81	127
135.33673469387756	135.8243537414966	48	127
135.42961451247166	135.5108843537415	79	127
135.5108843537415	135.59215419501135	81	127
135.59215419501135	135.68503401360545	79	127
135.68503401360545	135.76630385487528	77	127
135.76630385487528	135.81272108843538	79	127
135.8243537414966	135.99850340136055	53	127
135.8243537414966	135.8824036281179	77	127
135.9636507936508	136.12621315192743	65	127
136.12621315192743	136.3003628117914	64	127
136.3003628117914	136.47448979591837	62	127
136.47448979591837	136.66027210884354	60	127
136.66027210884354	136.7995918367347	58	127
136.83439909297053	137.62390022675737	48	127
136.83439909297053	136.9505215419501	57	127
136.83439909297053	137.62390022675737	41	127
136.9505215419501	137.08981859410432	60	127
137.08981859410432	137.24074829931973	65	127
137.24074829931973	137.3452380952381	69	127
137.3452380952381	137.48458049886622	67	127
137.48458049886622	137.6122902494331	65	127
137.62390022675737	138.41337868480727	43	127
137.62390022675737	138.41337868480727	48	127
137.62390022675737	137.76321995464852	70	127
137.76321995464852	137.9025396825397	67	127
137.9025396825397	138.03024943310658	64	127
138.03024943310658	138.15795918367348	58	127
138.15795918367348	138.26242630385488	55	127
138.26242630385488	138.37854875283446	53	127
138.41337868480727	139.31895691609978	48	127
138.41337868480727	138.57591836734693	52	127
138.41337868480727	139.31895691609978	36	127
138.57591836734693	138.7268253968254	55	127
138.7268253968254	138.88938775510204	59	127
138.88938775510204	139.063537414966	60	127
139.063537414966	139.22607709750568	62	127
139.22607709750568	139.3073469387755	64	127
139.31895691609978	140.29419501133788	50	127
139.31895691609978	140.29419501133788	38	127
139.31895691609978	139.49308390022676	65	127
139.49308390022676	139.66725623582767	67	127
139.66725623582767	139.84140589569162	69	127
139.84140589569162	139.99233560090704	70	127
139.99233560090704	140.14326530612246	72	127
140.14326530612246	140.25934240362812	73	127
140.29419501133788	141.19977324263039	46	127
140.29419501133788	140.42190476190476	62	127
140.29419501133788	141.19977324263039	34	127
140.42190476190476	140.57283446712017	74	127
140.57283446712017	140.7237641723356	73	127
140.7237641723356	140.88630385487528	74	127
140.88630385487528	141.06045351473924	73	127
141.06045351473924	141.1649433106576	74	127
141.19977324263039	142.07052154195011	45	127
141.19977324263039	142.07052154195011	33	127
141.19977324263039	141.37392290249434	63	127
141.37392290249434	141.52485260770976	75	127
141.52485260770976	141.67578231292518	74	127
141.67578231292518	141.80349206349206	75	127
141.80349206349206	141.94278911564626	74	127
141.94278911564626	142.03569160997733	75	127
142.07052154195011	142.50009070294786	46	127
142.07052154195011	142.22145124716553	62	127
142.07052154195011	142.50009070294786	34	127
142.22145124716553	142.37238095238095	74	127
142.37238095238095	142.50009070294786	72	127
142.50009070294786	142.86	43	127
142.50009070294786	142.86	31	127
142.50009070294786	142.53492063492064	70	127
142.53492063492064	142.66260770975057	69	127
142.66260770975057	142.813537414966	67	127
142.86	142.99931972789116	36	127
142.86	143.32437641723357	65	127
142.99931972789116	143.17344671201815	48	127
143.17344671201815	143.32437641723357	47	127
143.32437641723357	143.49854875283447	48	127
143.32437641723357	143.53337868480725	64	127
143.49854875283447	143.69591836734693	46	127
143.59142857142857	143.85845804988662	72	127
143.69591836734693	143.82362811791384	43	127
143.85845804988662	143.97455782312926	41	127
143.85845804988662	144.67115646258503	77	127
143.85845804988662	144.67115646258503	65	127
143.97455782312926	144.13709750566895	45	127
144.13709750566895	144.2996371882086	48	127
144.2996371882086	144.42734693877551	53	127
144.42734693877551	144.57827664399093	55	127
144.57827664399093	144.63632653061225	57	127
144.67115646258503	145.70444444444445	64	127
144.67115646258503	144.82208616780045	55	127
144.67115646258503	145.70444444444445	76	127
144.82208616780045	144.9962358276644	52	127
144.9962358276644	145.1587755102041	48	127
145.1587755102041	145.32131519274375	43	127
145.32131519274375	145.54190476190476	40	127
145.54190476190476	145.66961451247167	38	127
145.70444444444445	146.6448299319728	82	127
145.70444444444445	145.83213151927438	36	127
145.70444444444445	146.6448299319728	70	127
145.83213151927438	146.00630385487528	40	127
146.00630385487528	146.16884353741497	43	127
146.16884353741497	146.33138321995466	48	127
146.33138321995466	146.45909297052154	50	127
146.45909297052154	146.61002267573696	52	127
146.6448299319728	147.3530612244898	81	127
146.6448299319728	147.3530612244898	69	127
146.6448299319728	146.7841723356009	53	127
146.7841723356009	146.86544217687074	48	127
146.86544217687074	147.00473922902495	45	127
147.00473922902495	147.16730158730158	48	127
147.16730158730158	147.318231292517	45	127
147.318231292517	147.42272108843537	41	127
147.45755102040818	147.6317006802721	46	127
147.45755102040818	148.31668934240363	79	127
147.45755102040818	148.31668934240363	67	127
147.6317006802721	147.759410430839	50	127
147.759410430839	147.86390022675738	55	127
147.86390022675738	148.0264172335601	46	127
148.0264172335601	148.15414965986395	50	127
148.15414965986395	148.28183673469388	55	127
148.31668934240363	148.4443990929705	45	127
148.31668934240363	148.79267573696146	81	127
148.31668934240363	148.79267573696146	69	127
148.4443990929705	148.5837188208617	48	127
148.5837188208617	148.79267573696146	50	127
148.79267573696146	149.30351473922903	70	127
148.79267573696146	148.9552380952381	43	127
148.79267573696146	149.30351473922903	82	127
148.9552380952381	149.11777777777777	46	127
149.11777777777777	149.2687074829932	50	127
149.30351473922903	149.75632653061226	69	127
149.30351473922903	149.45446712018142	36	127
149.30351473922903	149.75632653061226	81	127
149.45446712018142	149.59378684807257	48	127
149.59378684807257	149.75632653061226	47	127
149.75632653061226	149.91884353741497	48	127
149.75632653061226	149.83759637188209	81	127
149.83759637188209	149.91884353741497	79	127
149.91884353741497	150.10462585034014	50	127
149.91884353741497	150.01174603174604	81	127
150.01174603174604	150.10462585034014	79	127
150.10462585034014	150.2091156462585	77	127
150.10462585034014	150.26716553287983	52	127
150.2091156462585	150.3019954648526	79	127
150.3019954648526	150.5574149659864	53	127
150.3019954648526	150.51097505668935	77	127
151.09145124716554	151.23079365079366	57	127
151.09145124716554	151.9390022675737	41	127
151.09145124716554	151.9390022675737	53	127
151.23079365079366	151.4049433106576	60	127
151.4049433106576	151.5326530612245	65	127
151.5326530612245	151.66036281179137	69	127
151.66036281179137	151.776462585034	70	127
151.776462585034	151.90417233560092	69	127
151.9390022675737	152.7865306122449	51	127
151.9390022675737	152.07832199546485	67	127
151.9390022675737	152.7865306122449	39	127
152.07832199546485	152.20603174603175	66	127
152.20603174603175	152.35696145124717	67	127
152.35696145124717	152.49628117913832	70	127
152.49628117913832	152.64721088435374	69	127
152.64721088435374	152.7517006802721	67	127
152.7865306122449	153.62244897959184	50	127
152.7865306122449	153.62244897959184	38	127
152.7865306122449	152.93743764172336	66	127
152.93743764172336	153.07678004535148	67	127
153.07678004535148	153.2277097505669	69	127
153.2277097505669	153.37863945578232	62	127
153.37863945578232	153.5063492063492	64	127
153.5063492063492	153.58761904761906	66	127
153.62244897959184	154.0752380952381	55	127
153.62244897959184	153.78498866213152	67	127
153.62244897959184	154.0752380952381	43	127
153.78498866213152	153.93591836734694	66	127
153.93591836734694	154.0752380952381	67	127
154.0752380952381	154.51639455782313	41	127
154.0752380952381	154.51639455782313	53	127
154.0752380952381	154.24938775510205	69	127
154.24938775510205	154.3887074829932	70	127
154.3887074829932	154.4815873015873	71	127
154.51639455782313	154.99242630385487	52	127
154.51639455782313	154.99242630385487	40	127
154.51639455782313	154.69056689342403	72	127
154.69056689342403	154.82988662131518	71	127
154.82988662131518	154.99242630385487	74	127
154.99242630385487	155.37555555555556	36	127
154.99242630385487	155.12013605442178	72	127
154.99242630385487	155.37555555555556	48	127
155.12013605442178	155.24784580498866	64	127
155.24784580498866	155.3639455782313	70	127
155.37555555555556	155.81673469387755	53	127
155.37555555555556	155.81673469387755	41	127
155.37555555555556	155.53809523809525	69	127
155.53809523809525	155.68902494331067	70	127
155.68902494331067	155.81673469387755	67	127
155.81673469387755	156.5829931972789	50	127
155.81673469387755	155.9560544217687	65	127
155.81673469387755	156.5829931972789	38	127
155.9560544217687	156.10696145124717	67	127
156.10696145124717	156.22308390022675	64	127
156.2463038548753	156.3391836734694	62	127
156.3391836734694	156.44367346938776	65	127
156.44367346938776	156.5829931972789	69	127
156.5829931972789	156.73392290249433	62	127
156.5829931972789	156.98934240362811	34	127
156.5829931972789	156.98934240362811	46	127
156.73392290249433	156.89646258503402	67	127
156.89646258503402	157.02414965986395	70	127
157.0590022675737	157.16349206349207	36	127
157.0590022675737	157.16349206349207	48	127
157.0590022675737	157.14027210884353	67	127
157.18671201814058	157.36086167800454	76	127
157.36086167800454	157.52340136054423	77	127
157.52340136054423	157.69755102040816	79	127
157.69755102040816	157.8717006802721	81	127
157.8717006802721	158.01102040816326	82	127
158.0458276643991	158.20839002267573	41	127
158.0458276643991	158.87015873015872	72	127
158.0458276643991	158.87015873015872	84	127
158.20839002267573	158.35931972789115	45	127
158.35931972789115	158.51024943310657	48	127
158.51024943310657	158.61473922902493	53	127
158.61473922902493	158.7540589569161	55	127
158.7540589569161	158.83532879818594	53	127
158.87015873015872	158.99786848072563	51	127
158.87015873015872	159.77573696145126	81	127
158.87015873015872	159.77573696145126	69	127
158.99786848072563	159.14879818594105	50	127
159.14879818594105	159.2881179138322	51	127
159.2881179138322	159.4390476190476	55	127
159.4390476190476	159.6015873015873	53	127
159.6015873015873	159.74090702947845	51	127
159.77573696145126	160.62326530612245	86	127
159.77573696145126	160.62326530612245	74	127
159.77573696145126	159.9150566893424	50	127
159.9150566893424	160.0891836734694	54	127
160.0891836734694	160.21691609977324	52	127
160.21691609977324	160.34460317460318	50	127
160.34460317460318	160.51877551020408	52	127
160.51877551020408	160.62326530612245	54	127
160.62326530612245	161.36628117913833	82	127
160.62326530612245	160.7974149659864	55	127
160.62326530612245	161.36628117913833	70	127
160.7974149659864	160.93673469387755	58	127
160.93673469387755	161.0528344671202	57	127
161.0528344671202	161.2037641723356	55	127
161.2037641723356	161.2966439909297	57	127
161.2966439909297	161.41274376417235	53	127
161.44757369614513	161.59850340136055	52	127
161.44757369614513	162.3995918367347	67	127
161.44757369614513	162.3995918367347	79	127
161.59850340136055	161.7378231292517	50	127
161.7378231292517	161.8887528344671	48	127
161.8887528344671	162.0512925170068	46	127
162.0512925170068	162.24866213151927	45	127
162.24866213151927	162.3647619047619	43	127
162.3995918367347	162.7711111111111	69	127
162.3995918367347	162.5505215419501	41	127
162.3995918367347	162.7711111111111	81	127
162.5505215419501	162.64340136054423	40	127
162.64340136054423	162.7711111111111	39	127
162.7711111111111	163.08458049886622	82	127
162.7711111111111	163.08458049886622	70	127
162.7711111111111	162.89882086167802	38	127
162.89882086167802	163.03814058956917	36	127
163.03814058956917	163.14263038548754	34	127
163.17746031746032	163.6534693877551	81	127
163.17746031746032	163.6534693877551	69	127
163.17746031746032	163.35160997732427	36	127
163.35160997732427	163.5025396825397	48	127
163.5025396825397	163.6534693877551	47	127
163.6534693877551	163.7463492063492	48	127
163.6534693877551	163.72310657596373	81	127
163.72310657596373	163.7463492063492	79	127
163.7463492063492	163.8392290249433	81	127
163.7463492063492	163.9088888888889	50	127
163.8392290249433	163.9088888888889	79	127
163.9088888888889	164.02496598639456	52	127
163.9088888888889	163.9785260770975	77	127
163.9785260770975	164.03659863945578	79	127
164.0598185941043	164.12945578231293	53	127
164.0598185941043	164.14108843537414	65	127
164.0598185941043	164.14108843537414	77	127
164.12945578231293	164.222358276644	50	127
164.222358276644	164.38487528344672	48	127
164.38487528344672	164.52421768707484	46	127
164.52421768707484	164.69836734693877	45	127
164.69836734693877	164.82607709750567	43	127
164.86090702947845	165.73165532879818	41	127
165.0466439909297	165.1627664399093	57	127
165.1627664399093	165.32530612244898	56	127
165.32530612244898	165.41818594104308	57	127
165.41818594104308	165.55750566893425	58	127
165.55750566893425	165.6968253968254	59	127
165.73165532879818	166.66045351473923	40	127
165.73165532879818	166.24249433106576	62	127
166.24249433106576	166.39342403628117	60	127
166.66045351473923	167.58925170068028	46	127
167.58925170068028	168.41356009070296	45	127
168.50643990929706	169.23786848072564	33	127
168.50643990929706	169.23786848072564	45	127
168.65736961451248	168.75024943310657	60	127
168.75024943310657	168.901179138322	59	127
168.901179138322	168.9940589569161	60	127
168.9940589569161	169.121768707483	62	127
169.121768707483	169.20303854875283	63	127
169.23786848072564	169.67904761904762	65	127
169.23786848072564	170.14344671201815	32	127
169.23786848072564	170.14344671201815	44	127
169.67904761904762	169.82997732426304	64	127
170.14344671201815	170.95614512471656	50	127
170.14344671201815	170.95614512471656	38	127
170.95614512471656	171.87333333333333	48	127
170.95614512471656	171.87333333333333	36	127
171.95460317460316	172.75569160997733	53	127
171.95460317460316	172.75569160997733	41	127
172.12875283446712	172.30290249433108	72	127
172.30290249433108	172.50027210884355	81	127
172.53510204081633	172.62798185941043	81	127
172.75569160997733	173.58	40	127
172.75569160997733	173.58	52	127
172.99950113378685	173.19687074829932	72	127
173.19687074829932	173.3942403628118	81	127
173.4522902494331	173.55678004535147	81	127
173.68448979591838	175.66979591836736	39	127
173.68448979591838	175.66979591836736	51	127
173.97473922902495	174.241768707483	72	127
174.241768707483	174.4275283446712	81	127
174.48557823129252	174.98480725623583	81	127
174.98480725623583	175.4027664399093	81	127
175.4027664399093	175.54208616780045	81	127
175.66979591836736	177.5041723356009	52	127
175.66979591836736	177.5041723356009	40	127
175.66979591836736	176.5985941043084	81	127
176.5985941043084	176.98172335600907	80	127
177.07460317460317	177.15587301587303	76	127
177.15587301587303	177.2255328798186	75	127
177.2255328798186	177.2603628117914	76	127
177.2603628117914	177.3532426303855	75	127
177.3532426303855	177.4112925170068	73	127
177.4112925170068	177.48095238095237	75	127
177.5041723356009	178.54907029478457	78	127
178.54907029478457	178.72321995464853	76	127
178.99024943310658	179.05990929705214	80	127
179.05990929705214	179.141179138322	78	127
179.141179138322	179.2340589569161	80	127
179.2340589569161	179.31532879818593	78	127
179.31532879818593	179.38498866213152	76	127
179.38498866213152	179.44303854875284	78	127
179.4546485260771	180.29056689342403	81	127
180.29056689342403	180.48791383219955	80	127
180.78979591836736	180.88267573696146	83	127
180.88267573696146	180.9639455782313	81	127
180.9639455782313	181.0568253968254	83	127
181.0568253968254	181.13809523809525	81	127
181.13809523809525	181.2077551020408	80	127
181.2077551020408	181.2774149659864	81	127
181.30063492063493	182.29909297052154	84	127
182.29909297052154	182.41519274376418	83	127
182.79832199546485	182.96086167800453	85	127
183.3207709750567	183.4484807256236	86	127
184.09863945578232	184.23795918367347	87	127
185.1087074829932	185.25963718820861	88	127
185.72403628117914	185.9214058956916	89	127
187.2797732426304	189.85718820861678	83	127
190.35641723356008	190.69310657596372	64	127
190.69310657596372	190.93691609977324	72	127
190.69310657596372	190.93691609977324	57	127
190.93691609977324	191.1691156462585	59	127
190.93691609977324	191.1691156462585	71	127
191.1691156462585	191.366485260771	69	127
191.1691156462585	191.366485260771	60	127
191.366485260771	191.55224489795918	68	127
191.366485260771	191.55224489795918	62	127
191.55224489795918	191.7728344671202	69	127
191.55224489795918	191.7728344671202	60	127
191.7728344671202	192.0166439909297	71	127
191.7728344671202	192.0166439909297	59	127
192.0166439909297	192.16757369614513	57	127
192.0166439909297	192.16757369614513	72	127
192.16757369614513	192.295283446712	60	127
192.16757369614513	192.295283446712	69	127
192.3301133786848	192.56231292517006	59	127
192.3301133786848	192.56231292517006	74	127
192.56231292517006	192.7480725623583	57	127
192.56231292517006	192.7480725623583	72	127
192.7480725623583	192.96866213151927	71	127
192.7480725623583	192.96866213151927	56	127
192.96866213151927	193.09637188208617	54	127
192.96866213151927	193.09637188208617	70	127
193.09637188208617	193.3053514739229	56	127
193.09637188208617	193.3053514739229	71	127
193.3053514739229	193.47950113378684	72	127
193.3053514739229	193.47950113378684	57	127
193.47950113378684	193.6536507936508	74	127
193.47950113378684	193.6536507936508	59	127
193.6536507936508	193.80458049886622	56	127
193.6536507936508	193.80458049886622	71	127
193.85102040816327	194.03678004535146	72	127
193.85102040816327	194.03678004535146	57	127
194.03678004535146	194.17609977324264	73	127
194.03678004535146	194.17609977324264	55	127
194.17609977324264	194.3154195011338	74	127
194.17609977324264	194.3154195011338	53	127
194.3154195011338	194.5360090702948	52	127
194.3154195011338	194.47795918367348	76	127
194.5360090702948	195.04684807256237	77	127
194.5360090702948	194.74498866213153	50	127
194.74498866213153	194.93074829931973	49	127
194.93074829931973	195.17455782312925	50	127
195.04684807256237	195.17455782312925	76	127
195.17455782312925	195.3138775510204	52	127
195.17455782312925	195.27904761904762	74	127
195.27904761904762	195.32548752834467	72	127
195.3487074829932	195.46480725623582	53	127
195.3487074829932	195.46480725623582	71	127
195.46480725623582	195.58090702947845	72	127
195.58090702947845	195.6621768707483	53	127
195.58090702947845	195.6621768707483	71	127
195.6621768707483	195.73183673469387	72	127
195.73183673469387	195.82471655328797	51	127
195.73183673469387	195.82471655328797	69	127
195.82471655328797	195.9175963718821	71	127
195.9175963718821	196.02208616780047	51	127
195.9175963718821	196.02208616780047	69	127
196.02208616780047	196.08013605442176	71	127
196.09174603174603	196.20784580498866	68	127
196.09174603174603	196.3471655328798	52	127
196.20784580498866	196.3471655328798	69	127
196.3471655328798	196.48648526077096	71	127
196.48648526077096	196.56775510204082	68	127
196.59097505668933	196.6954648526077	64	127
196.97410430839003	197.18308390022676	45	127
196.97410430839003	197.05537414965985	57	127
197.05537414965985	197.18308390022676	64	127
197.18308390022676	197.2991836734694	59	127
197.2991836734694	197.40367346938777	64	127
197.40367346938777	197.5081632653061	60	127
197.5081632653061	197.58943310657597	64	127
197.58943310657597	197.68231292517007	62	127
197.68231292517007	197.75197278911565	64	127
197.75197278911565	197.87968253968253	60	127
197.75197278911565	197.9609523809524	45	127
197.87968253968253	197.9609523809524	64	127
197.9609523809524	198.077052154195	59	127
198.077052154195	198.18154195011337	64	127
198.18154195011337	198.27442176870747	57	127
198.27442176870747	198.3673015873016	64	127
198.3673015873016	198.4601814058957	60	127
198.4601814058957	198.56467120181406	64	127
198.56467120181406	198.66916099773243	59	127
198.56467120181406	198.7968707482993	40	127
198.66916099773243	198.7968707482993	64	127
198.7968707482993	198.91297052154195	57	127
198.91297052154195	199.04068027210883	64	127
199.04068027210883	199.13356009070296	56	127
199.13356009070296	199.22643990929706	64	127
199.22643990929706	199.28448979591838	54	127
199.28448979591838	199.3657596371882	64	127
199.3657596371882	199.51668934240362	40	127
199.3657596371882	199.41219954648525	56	127
199.41219954648525	199.51668934240362	64	127
199.51668934240362	199.60956916099772	57	127
199.60956916099772	199.66761904761904	64	127
199.66761904761904	199.78371882086168	59	127
199.78371882086168	199.89981859410432	64	127
199.89981859410432	199.98108843537415	56	127
199.98108843537415	200.07396825396825	64	127
200.07396825396825	200.19006802721088	57	127
200.07396825396825	200.30616780045352	45	127
200.19006802721088	200.30616780045352	69	127
200.30616780045352	200.39904761904762	57	127
200.30616780045352	200.49192743764172	43	127
200.39904761904762	200.49192743764172	69	127
200.49192743764172	200.58480725623582	57	127
200.49192743764172	200.6892970521542	41	127
200.58480725623582	200.6892970521542	69	127
200.6892970521542	200.79378684807256	57	127
200.6892970521542	200.86344671201815	40	127
200.79378684807256	200.86344671201815	69	127
200.86344671201815	200.99115646258502	57	127
200.86344671201815	201.0608163265306	38	127
200.99115646258502	201.0608163265306	69	127
201.0608163265306	201.16530612244898	57	127
201.0608163265306	201.2465759637188	37	127
201.16530612244898	201.2465759637188	69	127
201.2465759637188	201.3162358276644	57	127
201.2465759637188	201.39750566893423	38	127
201.3162358276644	201.39750566893423	69	127
201.39750566893423	201.5019954648526	57	127
201.39750566893423	201.5716553287982	41	127
201.5019954648526	201.61809523809524	69	127
201.61809523809524	201.74580498866214	57	127
201.61809523809524	201.74580498866214	52	127
201.61809523809524	201.74580498866214	40	127
201.74580498866214	201.82707482993197	60	127
201.82707482993197	201.93156462585034	64	127
201.82707482993197	201.93156462585034	40	127
201.82707482993197	201.93156462585034	52	127
201.93156462585034	202.0360544217687	69	127
202.0360544217687	202.1637641723356	52	127
202.0360544217687	202.1637641723356	56	127
202.0360544217687	202.1637641723356	40	127
202.1637641723356	202.2914739229025	59	127
202.2914739229025	202.41918367346938	40	127
202.2914739229025	202.41918367346938	52	127
202.2914739229025	202.41918367346938	64	127
202.41918367346938	202.52367346938775	68	127
202.52367346938775	202.7210430839002	45	127
202.52367346938775	202.7210430839002	33	127
202.59333333333333	202.7210430839002	57	127
202.7210430839002	202.80231292517007	60	127
202.80231292517007	202.9184126984127	64	127
202.9184126984127	202.99968253968254	69	127
202.99968253968254	203.0461224489796	72	127
203.0461224489796	203.2899319727891	56	127
203.0461224489796	203.2899319727891	44	127
203.0461224489796	203.1738321995465	76	127
203.1738321995465	203.2899319727891	72	127
203.2899319727891	203.49891156462584	57	127
203.2899319727891	203.49891156462584	45	127
203.2899319727891	203.417641723356	69	127
203.417641723356	203.49891156462584	81	127
203.49891156462584	203.64984126984126	55	127
203.49891156462584	203.5453514739229	69	127
203.49891156462584	203.64984126984126	43	127
203.5453514739229	203.64984126984126	81	127
203.64984126984126	203.7427210884354	69	127
203.64984126984126	203.84721088435373	41	127
203.64984126984126	203.84721088435373	53	127
203.7427210884354	203.84721088435373	81	127
203.84721088435373	203.9517006802721	69	127
203.84721088435373	204.05619047619047	52	127
203.84721088435373	204.05619047619047	40	127
203.9517006802721	204.05619047619047	81	127
204.05619047619047	204.27678004535147	50	127
204.05619047619047	204.27678004535147	38	127
204.05619047619047	204.1722902494331	69	127
204.1722902494331	204.27678004535147	81	127
204.27678004535147	204.41609977324262	69	127
204.27678004535147	204.49736961451248	37	127
204.27678004535147	204.49736961451248	49	127
204.41609977324262	204.49736961451248	81	127
204.49736961451248	204.68312925170068	38	127
204.49736961451248	204.5786394557823	69	127
204.49736961451248	204.68312925170068	50	127
204.5786394557823	204.68312925170068	81	127
204.68312925170068	204.79922902494332	53	127
204.68312925170068	204.79922902494332	41	127
204.68312925170068	204.78761904761905	69	127
204.78761904761905	204.82244897959183	81	127
204.82244897959183	204.9269387755102	40	127
204.82244897959183	204.9269387755102	52	127
204.82244897959183	204.9269387755102	69	127
204.9269387755102	205.01981859410432	72	127
205.01981859410432	205.10108843537415	76	127
205.01981859410432	205.08947845804988	52	127
205.01981859410432	205.08947845804988	40	127
205.10108843537415	205.2171882086168	81	127
205.2171882086168	205.32167800453516	40	127
205.2171882086168	205.32167800453516	52	127
205.2171882086168	205.32167800453516	68	127
205.32167800453516	205.44938775510204	80	127
205.44938775510204	205.57709750566895	68	127
205.44938775510204	205.57709750566895	40	127
205.44938775510204	205.57709750566895	52	127
205.57709750566895	205.70480725623582	80	127
205.70480725623582	205.87895691609978	45	127
205.70480725623582	205.87895691609978	33	127
205.70480725623582	205.87895691609978	81	127
205.70480725623582	205.87895691609978	69	127
205.87895691609978	205.97183673469388	72	127
205.97183673469388	206.07632653061225	69	127
206.07632653061225	206.1924263038549	64	127
206.1924263038549	206.32013605442177	69	127
206.32013605442177	206.36657596371882	72	127
206.36657596371882	206.48267573696145	69	127
206.48267573696145	206.61038548752833	72	127
206.48267573696145	206.73809523809524	45	127
206.48267573696145	206.73809523809524	48	127
206.48267573696145	206.73809523809524	52	127
206.61038548752833	206.73809523809524	69	127
206.73809523809524	206.83097505668934	64	127
206.83097505668934	206.94707482993198	69	127
206.94707482993198	207.07478458049886	72	127
207.07478458049886	207.20249433106576	69	127
207.20249433106576	207.23732426303854	72	127
207.23732426303854	207.33020408163264	69	127
207.33020408163264	207.44630385487528	74	127
207.33020408163264	207.56240362811792	43	127
207.33020408163264	207.56240362811792	47	127
207.33020408163264	207.56240362811792	50	127
207.33020408163264	207.56240362811792	55	127
207.44630385487528	207.56240362811792	71	127
207.56240362811792	207.6901133786848	67	127
207.6901133786848	207.80621315192744	71	127
207.80621315192744	207.92231292517008	74	127
207.92231292517008	207.93392290249434	71	127
207.93392290249434	208.0035827664399	74	127
208.0035827664399	208.11968253968254	71	127
208.11968253968254	208.30544217687074	43	127
208.11968253968254	208.30544217687074	55	127
208.11968253968254	208.30544217687074	47	127
208.11968253968254	208.21256235827664	74	127
208.11968253968254	208.30544217687074	50	127
208.21256235827664	208.30544217687074	71	127
208.30544217687074	208.43315192743765	67	127
208.43315192743765	208.54925170068026	71	127
208.54925170068026	208.67696145124717	74	127
208.67696145124717	208.758231292517	71	127
208.758231292517	208.82789115646258	74	127
208.82789115646258	208.8859410430839	71	127
208.8859410430839	209.08331065759637	48	127
208.8859410430839	209.08331065759637	52	127
208.8859410430839	209.08331065759637	55	127
208.8859410430839	209.08331065759637	60	127
208.8859410430839	208.96721088435373	76	127
208.96721088435373	209.08331065759637	72	127
209.08331065759637	209.199410430839	67	127
209.199410430839	209.31551020408162	72	127
209.31551020408162	209.42	76	127
209.42	209.52448979591836	72	127
209.52448979591836	209.61736961451248	76	127
209.61736961451248	209.7334693877551	72	127
209.7334693877551	209.97727891156464	57	127
209.7334693877551	209.97727891156464	49	127
209.7334693877551	209.97727891156464	45	127
209.7334693877551	209.84956916099773	76	127
209.7334693877551	209.97727891156464	52	127
209.84956916099773	209.97727891156464	73	127
209.97727891156464	210.07015873015874	69	127
210.07015873015874	210.19786848072562	73	127
210.19786848072562	210.31396825396826	76	127
210.31396825396826	210.4300680272109	73	127
210.4300680272109	210.55777777777777	76	127
210.55777777777777	210.62743764172336	73	127
210.62743764172336	210.7667573696145	50	127
210.62743764172336	210.7087074829932	77	127
210.62743764172336	210.7667573696145	53	127
210.62743764172336	210.7667573696145	57	127
210.62743764172336	210.7667573696145	62	127
210.7087074829932	210.7667573696145	74	127
210.7667573696145	210.84802721088437	69	127
210.84802721088437	210.9292970521542	74	127
210.9292970521542	211.03378684807257	77	127
211.03378684807257	211.1498866213152	74	127
211.1498866213152	211.2659863945578	77	127
211.2659863945578	211.39369614512472	74	127
211.39369614512472	211.5214058956916	57	127
211.39369614512472	211.5214058956916	64	127
211.39369614512472	211.5214058956916	60	127
211.39369614512472	211.5214058956916	52	127
211.39369614512472	211.41691609977323	72	127
211.41691609977323	211.5214058956916	76	127
211.5214058956916	211.6491156462585	72	127
211.6491156462585	211.75360544217688	69	127
211.75360544217688	211.8348752834467	68	127
211.75360544217688	211.93936507936507	59	127
211.75360544217688	211.93936507936507	56	127
211.75360544217688	211.93936507936507	52	127
211.75360544217688	211.93936507936507	64	127
211.8348752834467	211.93936507936507	76	127
211.93936507936507	212.04385487528344	71	127
212.04385487528344	212.13673469387754	68	127
212.13673469387754	212.33410430839	69	127
212.13673469387754	212.22961451247164	45	127
212.22961451247164	212.33410430839	48	127
212.33410430839	212.43859410430838	52	127
212.43859410430838	212.55469387755102	48	127
212.55469387755102	212.63596371882088	52	127
212.55469387755102	212.63596371882088	72	127
212.55469387755102	212.63596371882088	76	127
212.55469387755102	212.63596371882088	81	127
212.55469387755102	212.63596371882088	84	127
212.63596371882088	212.7172335600907	48	127
212.7172335600907	212.83333333333334	72	127
212.7172335600907	212.83333333333334	76	127
212.7172335600907	212.83333333333334	81	127
212.7172335600907	212.83333333333334	84	127
212.7172335600907	212.83333333333334	52	127
212.83333333333334	212.9378231292517	48	127
212.9378231292517	213.00748299319727	45	127
213.00748299319727	213.08875283446713	48	127
213.08875283446713	213.18163265306123	52	127
213.18163265306123	213.2861224489796	48	127
213.2861224489796	213.40222222222224	52	127
213.2861224489796	213.39061224489797	76	127
213.2861224489796	213.39061224489797	72	127
213.2861224489796	213.39061224489797	81	127
213.2861224489796	213.39061224489797	84	127
213.40222222222224	213.51832199546485	48	127
213.51832199546485	213.61120181405894	84	127
213.51832199546485	213.61120181405894	52	127
213.51832199546485	213.61120181405894	72	127
213.51832199546485	213.61120181405894	81	127
213.51832199546485	213.61120181405894	76	127
213.61120181405894	213.73891156462585	48	127
213.73891156462585	213.83179138321995	43	127
213.83179138321995	213.9478911564626	47	127
213.9478911564626	214.07560090702947	50	127
214.07560090702947	214.1684807256236	55	127
214.1684807256236	214.2845804988662	83	127
214.1684807256236	214.2845804988662	54	127
214.1684807256236	214.2845804988662	74	127
214.1684807256236	214.2845804988662	79	127
214.1684807256236	214.2845804988662	86	127
214.2845804988662	214.34263038548752	55	127
214.34263038548752	214.4122902494331	74	127
214.34263038548752	214.4122902494331	79	127
214.34263038548752	214.4122902494331	83	127
214.34263038548752	214.4122902494331	86	127
214.34263038548752	214.4122902494331	54	127
214.4122902494331	214.51678004535148	55	127
214.51678004535148	214.6328798185941	43	127
214.6328798185941	214.73736961451246	47	127
214.73736961451246	214.84185941043083	50	127
214.84185941043083	214.95795918367347	55	127
214.95795918367347	215.08566893424037	74	127
214.95795918367347	215.08566893424037	79	127
214.95795918367347	215.08566893424037	83	127
214.95795918367347	215.08566893424037	86	127
214.95795918367347	215.08566893424037	54	127
215.08566893424037	215.15532879818593	55	127
215.15532879818593	215.2598185941043	74	127
215.15532879818593	215.2598185941043	54	127
215.15532879818593	215.2598185941043	86	127
215.15532879818593	215.2598185941043	83	127
215.15532879818593	215.2598185941043	79	127
215.2598185941043	215.34108843537416	55	127
215.34108843537416	215.45718820861677	48	127
215.45718820861677	215.56167800453514	52	127
215.56167800453514	215.59650793650795	55	127
215.59650793650795	215.68938775510205	60	127
215.68938775510205	215.78226757369615	79	127
215.68938775510205	215.78226757369615	88	127
215.68938775510205	215.78226757369615	59	127
215.68938775510205	215.78226757369615	76	127
215.68938775510205	215.78226757369615	84	127
215.78226757369615	215.88675736961451	60	127
215.88675736961451	216.02607709750566	59	127
215.88675736961451	216.0144671201814	88	127
215.88675736961451	216.0144671201814	84	127
215.88675736961451	216.0144671201814	79	127
215.88675736961451	216.0144671201814	76	127
216.02607709750566	216.1421768707483	60	127
216.1421768707483	216.2118367346939	45	127
216.2118367346939	216.29310657596372	49	127
216.29310657596372	216.3975963718821	52	127
216.3975963718821	216.51369614512473	57	127
216.51369614512473	216.6181859410431	76	127
216.51369614512473	216.6181859410431	81	127
216.51369614512473	216.6181859410431	85	127
216.51369614512473	216.6181859410431	88	127
216.51369614512473	216.6181859410431	56	127
216.6181859410431	216.72267573696146	57	127
216.72267573696146	216.81555555555556	56	127
216.72267573696146	216.81555555555556	88	127
216.72267573696146	216.81555555555556	85	127
216.72267573696146	216.81555555555556	81	127
216.72267573696146	216.81555555555556	76	127
216.81555555555556	216.85038548752834	57	127
216.85038548752834	216.96648526077098	50	127
216.96648526077098	217.08258503401362	53	127
217.08258503401362	217.17546485260772	57	127
217.17546485260772	217.25673469387755	62	127
217.25673469387755	217.3380045351474	77	127
217.25673469387755	217.3380045351474	86	127
217.25673469387755	217.3380045351474	81	127
217.25673469387755	217.3380045351474	61	127
217.25673469387755	217.3380045351474	89	127
217.3380045351474	217.4308843537415	62	127
217.4308843537415	217.5469841269841	77	127
217.4308843537415	217.5469841269841	81	127
217.4308843537415	217.5469841269841	86	127
217.4308843537415	217.5469841269841	89	127
217.4308843537415	217.5469841269841	61	127
217.5469841269841	217.66308390022675	62	127
217.66308390022675	217.7791836734694	52	127
217.7791836734694	217.90689342403627	57	127
217.90689342403627	218.01138321995464	88	127
217.90689342403627	218.01138321995464	60	127
217.90689342403627	218.01138321995464	76	127
217.90689342403627	218.01138321995464	81	127
217.90689342403627	218.01138321995464	84	127
218.01138321995464	218.03460317460318	64	127
218.03460317460318	218.16231292517006	52	127
218.16231292517006	218.23197278911564	56	127
218.23197278911564	218.336462585034	80	127
218.23197278911564	218.336462585034	59	127
218.23197278911564	218.336462585034	88	127
218.23197278911564	218.336462585034	83	127
218.23197278911564	218.336462585034	76	127
218.336462585034	218.41773242630384	64	127
218.41773242630384	218.5222222222222	45	127
218.5222222222222	218.60349206349207	48	127
218.60349206349207	218.6847619047619	52	127
218.6847619047619	218.80086167800454	57	127
218.80086167800454	218.92857142857142	76	127
218.80086167800454	218.92857142857142	81	127
218.80086167800454	218.92857142857142	84	127
218.80086167800454	218.92857142857142	88	127
218.80086167800454	218.92857142857142	56	127
218.92857142857142	219.03306122448978	57	127
219.03306122448978	219.10272108843537	56	127
219.03306122448978	219.10272108843537	88	127
219.03306122448978	219.10272108843537	84	127
219.03306122448978	219.10272108843537	81	127
219.03306122448978	219.10272108843537	76	127
219.10272108843537	219.19560090702947	57	127
219.19560090702947	219.32331065759638	45	127
219.32331065759638	219.4045804988662	49	127
219.4045804988662	219.50907029478458	52	127
219.50907029478458	219.61356009070295	57	127
219.61356009070295	219.70643990929705	81	127
219.61356009070295	219.70643990929705	76	127
219.61356009070295	219.70643990929705	85	127
219.61356009070295	219.70643990929705	88	127
219.61356009070295	219.70643990929705	56	127
219.70643990929705	219.81092970521541	57	127
219.81092970521541	219.92702947845805	56	127
219.81092970521541	219.92702947845805	81	127
219.81092970521541	219.92702947845805	85	127
219.81092970521541	219.92702947845805	88	127
219.81092970521541	219.92702947845805	76	127
219.92702947845805	219.98507936507937	57	127
219.98507936507937	220.10117913832198	50	127
220.10117913832198	220.1940589569161	53	127
220.1940589569161	220.26371882086167	57	127
220.26371882086167	220.34498866213153	62	127
220.34498866213153	220.42625850340136	81	127
220.34498866213153	220.42625850340136	89	127
220.34498866213153	220.42625850340136	61	127
220.34498866213153	220.42625850340136	86	127
220.34498866213153	220.42625850340136	77	127
220.42625850340136	220.51913832199546	62	127
220.51913832199546	220.6004081632653	61	127
220.51913832199546	220.6004081632653	89	127
220.51913832199546	220.6004081632653	86	127
220.51913832199546	220.6004081632653	81	127
220.51913832199546	220.6004081632653	77	127
220.6004081632653	220.71650793650792	62	127
220.71650793650792	220.8209977324263	52	127
220.8209977324263	220.93709750566893	57	127
220.93709750566893	221.06480725623584	76	127
220.93709750566893	221.06480725623584	60	127
220.93709750566893	221.06480725623584	88	127
220.93709750566893	221.06480725623584	84	127
220.93709750566893	221.06480725623584	81	127
221.06480725623584	221.15768707482994	64	127
221.15768707482994	221.2273469387755	52	127
221.2273469387755	221.30861678004536	57	127
221.30861678004536	221.40149659863945	56	127
221.30861678004536	221.40149659863945	76	127
221.30861678004536	221.40149659863945	88	127
221.30861678004536	221.40149659863945	84	127
221.30861678004536	221.40149659863945	81	127
221.40149659863945	221.49437641723355	57	127
221.49437641723355	221.5756462585034	45	127
221.5756462585034	221.68013605442178	49	127
221.68013605442178	221.7614058956916	52	127
221.7614058956916	221.8542857142857	57	127
221.8542857142857	221.95877551020408	88	127
221.8542857142857	221.95877551020408	81	127
221.8542857142857	221.95877551020408	76	127
221.8542857142857	221.95877551020408	56	127
221.8542857142857	221.95877551020408	85	127
221.95877551020408	222.05165532879818	57	127
222.05165532879818	222.16775510204081	85	127
222.05165532879818	222.16775510204081	56	127
222.05165532879818	222.16775510204081	88	127
222.05165532879818	222.16775510204081	81	127
222.05165532879818	222.16775510204081	76	127
222.16775510204081	222.2606349206349	57	127
222.2606349206349	222.37673469387755	38	127
222.37673469387755	222.44639455782314	41	127
222.44639455782314	222.56249433106575	45	127
222.56249433106575	222.6785941043084	50	127
222.6785941043084	222.78308390022676	77	127
222.6785941043084	222.78308390022676	81	127
222.6785941043084	222.78308390022676	86	127
222.6785941043084	222.78308390022676	89	127
222.6785941043084	222.78308390022676	49	127
222.78308390022676	222.91079365079366	50	127
222.91079365079366	223.03850340136054	77	127
222.91079365079366	223.03850340136054	86	127
222.91079365079366	223.03850340136054	89	127
222.91079365079366	223.03850340136054	49	127
222.91079365079366	223.03850340136054	81	127
223.03850340136054	223.15460317460318	50	127
223.15460317460318	223.25909297052155	38	127
223.25909297052155	223.37519274376416	41	127
223.37519274376416	223.50290249433107	45	127
223.37519274376416	223.50290249433107	69	127
223.37519274376416	223.50290249433107	74	127
223.37519274376416	223.50290249433107	77	127
223.37519274376416	223.50290249433107	81	127
223.50290249433107	223.65383219954649	50	127
223.65383219954649	223.79315192743763	38	127
223.79315192743763	223.95569160997732	41	127
223.95569160997732	224.12984126984128	74	127
223.95569160997732	224.12984126984128	81	127
223.95569160997732	224.12984126984128	45	127
223.95569160997732	224.12984126984128	69	127
223.95569160997732	224.12984126984128	77	127
224.12984126984128	224.22272108843538	50	127
224.22272108843538	226.42861678004536	81	127
224.22272108843538	226.42861678004536	72	127
224.22272108843538	226.42861678004536	69	127
224.22272108843538	226.42861678004536	51	127
224.22272108843538	226.42861678004536	39	127
224.22272108843538	226.42861678004536	78	127
226.81174603174603	227.05555555555554	66	127
226.81174603174603	227.05555555555554	54	127
227.05555555555554	227.64766439909297	69	127
227.05555555555554	227.64766439909297	57	127
227.64766439909297	227.8218140589569	54	127
227.64766439909297	227.8218140589569	66	127
227.8218140589569	228.0424036281179	63	127
227.8218140589569	228.0424036281179	51	127
228.0424036281179	228.28621315192743	60	127
228.0424036281179	228.28621315192743	48	127
228.28621315192743	228.50680272108843	57	127
228.28621315192743	228.50680272108843	45	127
228.50680272108843	228.64612244897958	54	127
228.50680272108843	228.64612244897958	42	127
228.64612244897958	228.90154195011337	39	127
228.64612244897958	228.90154195011337	51	127
228.90154195011337	229.07569160997733	36	127
228.90154195011337	229.07569160997733	48	127
229.07569160997733	229.24984126984128	47	127
229.07569160997733	229.29628117913833	35	127
229.29628117913833	230.10897959183674	47	127
229.29628117913833	229.92321995464852	54	127
229.29628117913833	229.458820861678	39	127
229.5168707482993	229.92321995464852	40	127
229.92321995464852	230.10897959183674	52	127
229.92321995464852	230.10897959183674	28	127
230.16702947845806	230.3992290249433	71	127
230.16702947845806	230.3992290249433	59	127
230.3992290249433	230.94489795918366	62	127
230.3992290249433	230.94489795918366	74	127
230.94489795918366	231.1538775510204	59	127
230.94489795918366	231.1538775510204	71	127
231.1538775510204	231.33963718820863	56	127
231.1538775510204	231.33963718820863	68	127
231.33963718820863	231.5602267573696	53	127
231.33963718820863	231.5602267573696	65	127
231.5602267573696	231.75759637188207	62	127
231.5602267573696	231.75759637188207	50	127
231.75759637188207	231.98979591836735	47	127
231.75759637188207	231.98979591836735	59	127
231.98979591836735	232.23360544217687	44	127
231.98979591836735	232.23360544217687	56	127
232.23360544217687	232.47741496598638	41	127
232.23360544217687	232.47741496598638	53	127
232.47741496598638	232.72122448979593	40	127
232.47741496598638	232.6631746031746	52	127
232.72122448979593	232.89537414965986	44	127
232.72122448979593	233.44104308390024	52	127
232.72122448979593	233.255283446712	59	127
232.95342403628118	233.255283446712	45	127
233.255283446712	233.44104308390024	57	127
233.255283446712	233.44104308390024	33	127
233.47587301587302	233.7312925170068	64	127
233.47587301587302	233.7312925170068	76	127
233.7312925170068	234.33501133786848	67	127
233.7312925170068	234.33501133786848	79	127
234.33501133786848	234.59043083900227	64	127
234.33501133786848	234.59043083900227	76	127
234.59043083900227	234.77619047619046	73	127
234.59043083900227	234.77619047619046	61	127
234.77619047619046	234.99678004535147	70	127
234.77619047619046	234.99678004535147	58	127
234.99678004535147	235.2057596371882	55	127
234.99678004535147	235.2057596371882	67	127
235.2057596371882	235.44956916099773	64	127
235.2057596371882	235.44956916099773	52	127
235.44956916099773	235.57727891156463	49	127
235.44956916099773	235.57727891156463	61	127
235.57727891156463	235.7978684807256	58	127
235.57727891156463	235.7978684807256	46	127
235.7978684807256	235.98362811791384	45	127
235.7978684807256	235.98362811791384	57	127
235.98362811791384	236.7150566893424	57	127
235.98362811791384	236.07650793650794	49	127
235.98362811791384	236.5292970521542	64	127
236.122947845805	236.5292970521542	50	127
236.5292970521542	236.7150566893424	62	127
236.5292970521542	236.7150566893424	38	127
236.76149659863947	237.33038548752833	71	127
236.76149659863947	237.33038548752833	74	127
236.76149659863947	237.01691609977325	56	127
237.01691609977325	237.33038548752833	57	127
237.33038548752833	237.51614512471656	45	127
237.33038548752833	237.51614512471656	72	127
237.5625850340136	237.79478458049886	62	127
237.5625850340136	237.79478458049886	65	127
237.5625850340136	238.05020408163264	71	127
237.79478458049886	237.99215419501132	64	127
238.05020408163264	238.39850340136056	69	127
238.23596371882087	238.46816326530612	52	127
238.46816326530612	239.1067120181406	68	127
238.68875283446712	238.93256235827664	57	127
239.1067120181406	239.31569160997734	69	127
239.36213151927439	239.89619047619047	88	127
239.36213151927439	239.55950113378685	61	127
239.36213151927439	239.55950113378685	70	127
239.55950113378685	239.698820861678	69	127
239.55950113378685	239.698820861678	62	127
239.89619047619047	240.00068027210884	86	127
240.05873015873016	240.2677097505669	71	127
240.05873015873016	240.6740589569161	86	127
240.05873015873016	240.2677097505669	68	127
240.2677097505669	240.43024943310658	69	127
240.2677097505669	240.43024943310658	72	127
240.6740589569161	240.82498866213152	84	127
240.87142857142857	241.0804081632653	62	127
240.87142857142857	241.0804081632653	65	127
240.87142857142857	241.27777777777777	83	127
241.0804081632653	241.23133786848072	64	127
241.27777777777777	241.7421768707483	81	127
241.47514739229024	241.7421768707483	52	127
241.7421768707483	241.9627664399093	80	127
242.6477551020408	242.69419501133788	61	127
242.6477551020408	242.69419501133788	52	127
242.6477551020408	242.69419501133788	57	127
242.6477551020408	242.69419501133788	45	127
242.8451247165533	243.00766439909296	57	127
242.8451247165533	243.00766439909296	45	127
242.8451247165533	243.00766439909296	61	127
242.8451247165533	243.00766439909296	52	127
243.55333333333334	243.68104308390022	50	127
243.55333333333334	243.68104308390022	38	127
243.55333333333334	243.68104308390022	57	127
243.55333333333334	243.68104308390022	54	127
243.55333333333334	243.68104308390022	59	127
243.83197278911564	243.936462585034	57	127
243.83197278911564	243.936462585034	59	127
243.83197278911564	243.936462585034	54	127
243.83197278911564	243.936462585034	50	127
243.83197278911564	243.936462585034	38	127
244.42408163265307	244.55179138321995	59	127
244.42408163265307	244.55179138321995	62	127
244.42408163265307	244.55179138321995	40	127
244.42408163265307	244.55179138321995	52	127
244.42408163265307	244.55179138321995	56	127
244.65628117913832	244.78399092970523	59	127
244.65628117913832	244.78399092970523	56	127
244.65628117913832	244.78399092970523	52	127
244.65628117913832	244.78399092970523	40	127
244.65628117913832	244.78399092970523	62	127
245.2948299319728	245.4109297052154	61	127
245.2948299319728	245.4109297052154	57	127
245.2948299319728	245.4109297052154	45	127
245.2948299319728	245.4109297052154	52	127
245.52702947845805	245.6082993197279	52	127
245.52702947845805	245.6082993197279	45	127
245.52702947845805	245.6082993197279	61	127
245.52702947845805	245.6082993197279	57	127
246.08430839002267	246.2004081632653	61	127
246.08430839002267	246.2004081632653	45	127
246.08430839002267	246.2004081632653	57	127
246.08430839002267	246.2004081632653	64	127
246.33972789115646	246.44421768707483	61	127
246.33972789115646	246.44421768707483	45	127
246.33972789115646	246.44421768707483	57	127
246.33972789115646	246.44421768707483	64	127
247.01310657596372	247.10598639455782	45	127
247.01310657596372	247.10598639455782	57	127
247.01310657596372	247.10598639455782	62	127
247.01310657596372	247.10598639455782	65	127
247.24530612244897	247.34979591836733	45	127
247.24530612244897	247.34979591836733	65	127
247.24530612244897	247.34979591836733	62	127
247.24530612244897	247.34979591836733	57	127
248.10444444444445	251.95895691609977	60	127
248.10444444444445	251.95895691609977	63	127
248.10444444444445	251.95895691609977	65	127
248.10444444444445	251.95895691609977	57	127
248.10444444444445	251.95895691609977	45	127
252.28403628117914	253.24766439909297	58	127
252.28403628117914	253.24766439909297	62	127
252.28403628117914	253.24766439909297	65	127
253.24766439909297	254.26934240362812	63	127
253.24766439909297	254.26934240362812	60	127
253.24766439909297	254.26934240362812	65	127
254.26934240362812	255.25619047619048	65	127
254.26934240362812	255.25619047619048	57	127
254.26934240362812	255.25619047619048	60	127
255.25619047619048	256.08049886621313	58	127
255.25619047619048	256.08049886621313	65	127
255.25619047619048	256.08049886621313	62	127
256.1733560090703	257.11378684807255	55	127
256.1733560090703	257.11378684807255	51	127
256.1733560090703	257.11378684807255	63	127
257.11378684807255	258.0774149659864	62	127
257.11378684807255	258.0774149659864	56	127
257.11378684807255	258.0774149659864	53	127
258.0774149659864	258.55342403628117	55	127
258.0774149659864	258.55342403628117	63	127
258.0774149659864	258.55342403628117	51	127
258.55342403628117	258.84367346938774	65	127
258.55342403628117	258.84367346938774	50	127
258.55342403628117	258.84367346938774	53	127
258.84367346938774	259.0874829931973	51	127
258.84367346938774	259.0874829931973	67	127
258.84367346938774	259.0874829931973	48	127
259.13390022675736	259.8421315192744	53	127
259.13390022675736	259.6099319727891	58	127
259.6099319727891	259.78408163265306	57	127
259.8421315192744	260.13238095238097	41	127
260.13238095238097	261.061179138322	46	127
260.13238095238097	261.061179138322	34	127
261.061179138322	261.9667573696145	45	127
261.061179138322	261.9667573696145	33	127
261.281746031746	261.51396825396824	65	127
261.51396825396824	261.7461678004535	63	127
261.7461678004535	261.92031746031745	60	127
261.9667573696145	262.8026757369615	51	127
261.9667573696145	262.8026757369615	39	127
262.8026757369615	263.65020408163264	50	127
262.8026757369615	263.65020408163264	38	127
263.0116553287982	263.23224489795916	65	127
263.23224489795916	263.53408163265306	62	127
263.53408163265306	263.708253968254	58	127
263.754693877551	264.6486621315193	33	127
263.754693877551	264.6486621315193	45	127
264.6486621315193	265.60068027210883	44	127
264.6486621315193	265.60068027210883	32	127
264.90408163265306	265.1595011337869	64	127
265.1595011337869	265.3917006802721	62	127
265.3917006802721	265.5658503401361	59	127
265.60068027210883	266.48303854875286	50	127
265.60068027210883	266.48303854875286	38	127
266.48303854875286	267.27251700680273	48	127
266.48303854875286	267.27251700680273	36	127
266.66879818594106	266.8777777777778	64	127
266.8777777777778	267.1215873015873	60	127
267.1215873015873	267.3189342403628	57	127
267.36539682539683	268.2361224489796	53	127
267.36539682539683	268.2361224489796	41	127
268.2361224489796	269.095283446712	51	127
268.2361224489796	269.095283446712	39	127
268.49156462585034	268.7237641723356	69	127
268.7237641723356	268.93274376417236	66	127
268.93274376417236	269.048820861678	60	127
269.095283446712	269.89637188208616	40	127
269.095283446712	269.89637188208616	52	127
269.97761904761904	270.84839002267574	40	127
270.1749886621315	270.372380952381	68	127
270.372380952381	270.592947845805	62	127
270.592947845805	270.80195011337867	59	127
270.84839002267574	272.69437641723357	52	127
271.78879818594106	272.69437641723357	40	127
271.98616780045353	272.2183446712018	71	127
272.2183446712018	272.450566893424	68	127
272.450566893424	272.6479365079365	62	127
272.69437641723357	274.6216326530612	52	127
273.55349206349206	274.6216326530612	40	127
273.8669841269841	274.06433106575963	74	127
274.06433106575963	274.3197732426304	71	127
274.3197732426304	274.55197278911567	68	127
274.6216326530612	276.5372789115646	52	127
275.5852607709751	276.5372789115646	40	127
275.87551020408165	276.0844897959184	77	127
276.0844897959184	276.2934693877551	74	127
276.2934693877551	276.5372789115646	71	127
276.5372789115646	277.1177777777778	40	127
276.5372789115646	276.68820861678006	68	127
276.5372789115646	277.1177777777778	52	127
276.68820861678006	276.862358276644	65	127
276.862358276644	277.1177777777778	64	127
277.1177777777778	277.349977324263	51	127
277.1177777777778	277.349977324263	63	127
277.349977324263	277.59378684807257	62	127
277.349977324263	277.59378684807257	50	127
277.59378684807257	277.8491836734694	48	127
277.59378684807257	277.8491836734694	60	127
277.8491836734694	278.06979591836733	59	127
277.8491836734694	278.06979591836733	47	127
278.06979591836733	278.2671655328798	52	127
278.06979591836733	278.2671655328798	64	127
278.3368253968254	278.54580498866216	48	127
278.3368253968254	278.4645124716553	64	127
278.4645124716553	278.54580498866216	76	127
278.54580498866216	278.63868480725625	64	127
278.54580498866216	278.7547845804989	47	127
278.63868480725625	278.7547845804989	76	127
278.7547845804989	278.88249433106574	64	127
278.7547845804989	278.96374149659863	45	127
278.88249433106574	278.96374149659863	76	127
278.96374149659863	279.0914739229025	64	127
278.96374149659863	279.114693877551	44	127
279.0914739229025	279.114693877551	76	127
279.114693877551	279.1843537414966	64	127
279.114693877551	279.3120634920635	45	127
279.1843537414966	279.3120634920635	76	127
279.3120634920635	279.4978231292517	47	127
279.3120634920635	279.3933333333333	64	127
279.3933333333333	279.4978231292517	76	127
279.4978231292517	279.6139229024943	64	127
279.4978231292517	279.73002267573696	48	127
279.6139229024943	279.73002267573696	76	127
279.73002267573696	279.9041723356009	45	127
279.73002267573696	279.8461224489796	64	127
279.8461224489796	279.9390022675737	76	127
279.9390022675737	280.05510204081634	64	127
279.9390022675737	280.1247619047619	50	127
280.05510204081634	280.1247619047619	76	127
280.1247619047619	280.2640816326531	64	127
280.1247619047619	280.3801814058957	48	127
280.2640816326531	280.3801814058957	76	127
280.3801814058957	280.5078684807256	64	127
280.3801814058957	280.58916099773245	47	127
280.5078684807256	280.58916099773245	76	127
280.58916099773245	280.7052380952381	64	127
280.58916099773245	280.77492063492065	46	127
280.7052380952381	280.77492063492065	76	127
280.77492063492065	280.9722902494331	47	127
280.77492063492065	280.86780045351475	64	127
280.86780045351475	280.9722902494331	76	127
280.9722902494331	281.18126984126985	48	127
280.9722902494331	281.0651700680272	64	127
281.0651700680272	281.18126984126985	76	127
281.18126984126985	281.3786394557823	50	127
281.18126984126985	281.2625396825397	64	127
281.2625396825397	281.3786394557823	76	127
281.3786394557823	281.49473922902496	64	127
281.3786394557823	281.5760090702948	47	127
281.49473922902496	281.62242630385487	76	127
281.62242630385487	281.7037188208617	64	127
281.62242630385487	281.761768707483	48	127
281.7037188208617	281.761768707483	76	127
281.761768707483	281.9707482993197	49	127
281.761768707483	281.86625850340135	69	127
281.86625850340135	281.9707482993197	81	127
281.9707482993197	282.17972789115646	50	127
281.9707482993197	282.12167800453517	69	127
282.12167800453517	282.17972789115646	81	127
282.17972789115646	282.36548752834466	52	127
282.17972789115646	282.2958276643991	69	127
282.2958276643991	282.41192743764174	81	127
282.41192743764174	282.89954648526077	53	127
282.41192743764174	282.5280272108844	69	127
282.5280272108844	282.59768707482993	81	127
282.59768707482993	282.69056689342403	69	127
282.69056689342403	282.77183673469386	81	127
282.77183673469386	282.89954648526077	69	127
282.89954648526077	283.0156462585034	52	127
282.89954648526077	283.0156462585034	81	127
283.0156462585034	283.1085260770975	69	127
283.0156462585034	283.1085260770975	50	127
283.1085260770975	283.2014058956916	81	127
283.1085260770975	283.17818594104307	48	127
283.2014058956916	283.2942857142857	47	127
283.2014058956916	283.2942857142857	74	127
283.2942857142857	283.41038548752834	86	127
283.2942857142857	283.41038548752834	48	127
283.41038548752834	283.50326530612244	47	127
283.41038548752834	283.50326530612244	74	127
283.50326530612244	283.63097505668935	86	127
283.50326530612244	283.63097505668935	48	127
283.63097505668935	283.72385487528345	45	127
283.63097505668935	283.72385487528345	75	127
283.72385487528345	283.793514739229	47	127
283.72385487528345	283.793514739229	87	127
283.793514739229	283.8863945578231	75	127
283.793514739229	283.8863945578231	45	127
283.8863945578231	283.9560544217687	47	127
283.8863945578231	283.97925170068027	87	127
283.97925170068027	284.13020408163266	44	127
283.97925170068027	284.2463038548753	76	127
283.97925170068027	284.2463038548753	88	127
284.13020408163266	284.2463038548753	45	127
284.2463038548753	284.38560090702947	47	127
284.38560090702947	284.4320634920635	44	127
284.44367346938776	284.53655328798186	40	127
284.67587301587304	284.8268027210884	76	127
284.67587301587304	284.8268027210884	64	127
284.8268027210884	285.070612244898	72	127
284.8268027210884	285.070612244898	84	127
284.8268027210884	285.070612244898	33	127
284.8268027210884	285.070612244898	45	127
285.070612244898	285.30278911564625	83	127
285.070612244898	285.30278911564625	71	127
285.30278911564625	285.53501133786847	81	127
285.30278911564625	285.53501133786847	69	127
285.53501133786847	285.7207482993197	68	127
285.53501133786847	285.7207482993197	80	127
285.7207482993197	285.95297052154194	69	127
285.7207482993197	285.95297052154194	81	127
285.7207482993197	285.95297052154194	45	127
285.7207482993197	285.95297052154194	57	127
285.95297052154194	286.1503401360544	83	127
285.95297052154194	286.1503401360544	71	127
286.1503401360544	286.3128798185941	84	127
286.1503401360544	286.3128798185941	72	127
286.3128798185941	286.4986394557823	69	127
286.3128798185941	286.4986394557823	81	127
286.54507936507935	286.76566893424035	57	127
286.54507936507935	286.76566893424035	45	127
286.54507936507935	286.76566893424035	86	127
286.54507936507935	286.76566893424035	74	127
286.76566893424035	286.99786848072563	84	127
286.76566893424035	286.99786848072563	72	127
286.99786848072563	287.25326530612244	71	127
286.99786848072563	287.25326530612244	83	127
287.25326530612244	287.4274376417234	70	127
287.25326530612244	287.4274376417234	82	127
287.4274376417234	287.6015873015873	64	127
287.4274376417234	287.6015873015873	71	127
287.4274376417234	287.6015873015873	83	127
287.4274376417234	287.6015873015873	52	127
287.6015873015873	287.77573696145123	84	127
287.6015873015873	287.77573696145123	72	127
287.77573696145123	287.9498866213152	74	127
287.77573696145123	287.9498866213152	86	127
287.9498866213152	288.12403628117914	83	127
287.9498866213152	288.12403628117914	71	127
288.205306122449	288.4142857142857	72	127
288.205306122449	288.4142857142857	45	127
288.205306122449	288.4142857142857	57	127
288.205306122449	288.4142857142857	84	127
288.4142857142857	288.65809523809526	85	127
288.4142857142857	288.65809523809526	73	127
288.65809523809526	288.8322448979592	74	127
288.65809523809526	288.8322448979592	86	127
288.8322448979592	288.9599546485261	88	127
288.8322448979592	288.9599546485261	76	127
289.0063945578231	289.19213151927437	50	127
289.0063945578231	289.57528344671204	77	127
289.0063945578231	289.19213151927437	38	127
289.0063945578231	289.57528344671204	89	127
289.57528344671204	289.6913832199547	88	127
289.57528344671204	289.6913832199547	76	127
289.6913832199547	289.7842630385488	86	127
289.6913832199547	289.7842630385488	74	127
289.8190929705215	289.9119501133787	52	127
289.8190929705215	289.9119501133787	40	127
289.8190929705215	289.9119501133787	84	127
289.8190929705215	289.9119501133787	72	127
289.97002267573697	290.07451247165534	52	127
289.97002267573697	290.07451247165534	72	127
289.97002267573697	290.07451247165534	64	127
289.97002267573697	290.07451247165534	84	127
290.20222222222225	290.3299319727891	83	127
290.20222222222225	290.3299319727891	71	127
290.20222222222225	290.3299319727891	52	127
290.20222222222225	290.3299319727891	64	127
290.43442176870747	290.5272789115646	83	127
290.43442176870747	290.5272789115646	71	127
290.43442176870747	290.5272789115646	64	127
290.43442176870747	290.5272789115646	52	127
290.5969614512472	290.7130612244898	86	127
290.5969614512472	290.85238095238094	45	127
290.5969614512472	290.85238095238094	57	127
290.7130612244898	290.85238095238094	84	127
290.85238095238094	290.98009070294785	83	127
290.98009070294785	291.0497505668934	84	127
291.0613605442177	291.1542403628118	69	127
291.0613605442177	291.1542403628118	81	127
291.23548752834466	291.3051700680272	83	127
291.23548752834466	291.3051700680272	71	127
291.4444671201814	291.65344671201814	84	127
291.4444671201814	291.65344671201814	45	127
291.4444671201814	291.65344671201814	57	127
291.4444671201814	291.65344671201814	72	127
291.65344671201814	291.8624489795918	85	127
291.65344671201814	291.8624489795918	73	127
291.8624489795918	292.0830385487528	86	127
291.8624489795918	292.0830385487528	74	127
292.0830385487528	292.15267573696144	88	127
292.0830385487528	292.15267573696144	76	127
292.19913832199546	292.3500680272109	38	127
292.19913832199546	292.3500680272109	50	127
292.19913832199546	292.8260770975057	77	127
292.19913832199546	292.8260770975057	89	127
292.8260770975057	292.9189569160998	88	127
292.8260770975057	292.9189569160998	76	127
292.9189569160998	292.9769841269841	86	127
292.9189569160998	292.9769841269841	74	127
292.98861678004533	293.0118367346939	72	127
292.98861678004533	293.0118367346939	84	127
292.98861678004533	293.0118367346939	40	127
292.98861678004533	293.0118367346939	52	127
293.1395464852608	293.2208163265306	72	127
293.1395464852608	293.2208163265306	84	127
293.1395464852608	293.2208163265306	52	127
293.1395464852608	293.2208163265306	64	127
293.3601360544218	293.4530158730159	83	127
293.3601360544218	293.4530158730159	71	127
293.3601360544218	293.4530158730159	52	127
293.3601360544218	293.4530158730159	64	127
293.5807256235828	293.7316553287982	71	127
293.5807256235828	293.7316553287982	83	127
293.5807256235828	293.7316553287982	52	127
293.5807256235828	293.7316553287982	64	127
293.8245351473923	293.99866213151927	57	127
293.8245351473923	293.99866213151927	45	127
293.8245351473923	293.99866213151927	81	127
293.8245351473923	293.99866213151927	69	127
294.2657142857143	294.38181405895693	88	127
294.38181405895693	294.4514739229025	84	127
294.4514739229025	294.5791836734694	81	127
294.5791836734694	294.69528344671204	64	127
294.5791836734694	294.69528344671204	71	127
294.5791836734694	294.69528344671204	74	127
294.5791836734694	294.6720634920635	80	127
295.10163265306124	295.2061224489796	88	127
295.2061224489796	295.32219954648525	83	127
295.32219954648525	295.41510204081635	80	127
295.41510204081635	295.4963718820862	81	127
295.41510204081635	295.4963718820862	72	127
295.41510204081635	295.4963718820862	69	127
295.9375283446712	296.00721088435375	76	127
296.00721088435375	296.1233106575964	72	127
296.1233106575964	296.28585034013605	69	127
296.28585034013605	296.37873015873015	68	127
296.28585034013605	296.41356009070296	52	127
296.28585034013605	296.41356009070296	59	127
296.28585034013605	296.41356009070296	62	127
296.73863945578233	296.81990929705216	76	127
296.81990929705216	296.94761904761907	71	127
296.94761904761907	297.0636961451247	68	127
297.0636961451247	297.22625850340137	57	127
297.0636961451247	297.22625850340137	60	127
297.0636961451247	297.19142857142856	69	127
297.562947845805	297.6558276643991	64	127
297.6558276643991	297.7603174603175	60	127
297.7603174603175	297.8996371882086	57	127
297.8996371882086	298.0273469387755	50	127
297.8996371882086	298.0273469387755	47	127
297.8996371882086	298.0273469387755	40	127
297.8996371882086	297.9925170068027	56	127
298.36403628117915	298.51496598639454	64	127
298.51496598639454	298.6310657596372	59	127
298.6310657596372	298.7471655328798	56	127
298.7471655328798	298.86326530612246	48	127
298.7471655328798	298.8400453514739	57	127
298.7471655328798	298.86326530612246	45	127
299.31603174603174	299.40893424036284	69	127
299.31603174603174	299.40893424036284	57	127
299.40893424036284	299.5366439909297	64	127
299.40893424036284	299.5366439909297	52	127
299.5366439909297	299.6178911564626	60	127
299.5366439909297	299.6178911564626	48	127
299.6178911564626	299.8385034013605	57	127
299.6178911564626	299.8385034013605	45	127
300.1171428571429	300.26807256235827	57	127
300.1171428571429	300.26807256235827	45	127
300.26807256235827	300.477052154195	40	127
300.26807256235827	300.477052154195	52	127
300.477052154195	300.5815419501134	36	127
300.477052154195	300.5815419501134	48	127
300.6047619047619	303.9716553287982	33	127
300.6047619047619	303.9716553287982	45	127
