# onset,offset,note,velocity
2.0425850340136056	2.2747845804988662	67	127
2.2747845804988662	4.0859410430839	79	127
3.2732426303854876	4.225260770975057	52	127
3.2732426303854876	4.225260770975057	48	127
3.2732426303854876	4.225260770975057	55	127
3.2732426303854876	4.225260770975057	60	127
4.225260770975057	6.059637188208617	76	127
5.1540589569161	6.059637188208617	48	127
5.1540589569161	6.059637188208617	52	127
5.1540589569161	6.059637188208617	55	127
5.1540589569161	6.059637188208617	60	127
6.059637188208617	7.801133786848072	72	127
7.034875283446712	7.90562358276644	48	127
7.034875283446712	7.90562358276644	52	127
7.034875283446712	7.90562358276644	55	127
7.034875283446712	7.90562358276644	60	127
7.90562358276644	9.391700680272109	71	127
8.985351473922902	9.856099773242631	50	127
8.985351473922902	9.856099773242631	53	127
8.985351473922902	9.856099773242631	55	127
8.985351473922902	9.856099773242631	59	127
9.391700680272109	9.635510204081633	74	127
9.635510204081633	9.856099773242631	72	127
9.856099773242631	11.678866213151927	71	127
10.866145124716553	11.76013605442177	55	127
10.866145124716553	11.76013605442177	50	127
10.866145124716553	11.76013605442177	53	127
10.866145124716553	11.76013605442177	59	127
11.76013605442177	13.164943310657597	67	127
12.712154195011339	13.629342403628119	59	127
12.712154195011339	13.629342403628119	50	127
12.712154195011339	13.629342403628119	53	127
12.712154195011339	13.629342403628119	55	127
13.164943310657597	13.269433106575963	69	127
13.269433106575963	13.37392290249433	67	127
13.37392290249433	13.52485260770975	66	127
13.52485260770975	13.594512471655328	67	127
13.629342403628119	15.185079365079366	72	127
14.523310657596372	15.417278911564626	60	127
14.523310657596372	15.417278911564626	52	127
14.523310657596372	15.417278911564626	55	127
15.185079365079366	15.417278911564626	67	127
15.417278911564626	16.926575963718822	74	127
16.288027210884355	17.170385487528346	47	127
16.288027210884355	17.170385487528346	50	127
16.288027210884355	17.170385487528346	55	127
16.288027210884355	17.170385487528346	59	127
16.926575963718822	17.170385487528346	67	127
17.170385487528346	18.63324263038549	76	127
17.971473922902494	18.865442176870747	55	127
17.971473922902494	18.865442176870747	60	127
17.971473922902494	18.865442176870747	48	127
17.971473922902494	18.865442176870747	52	127
18.63324263038549	18.865442176870747	67	127
18.865442176870747	20.5256462585034	79	127
19.875510204081632	20.293469387755103	43	127
19.875510204081632	20.293469387755103	47	127
19.875510204081632	20.293469387755103	50	127
19.875510204081632	20.293469387755103	55	127
20.5256462585034	20.78108843537415	77	127
20.78108843537415	21.257097505668934	43	127
20.78108843537415	21.257097505668934	47	127
20.78108843537415	21.257097505668934	50	127
20.78108843537415	23.195963718820863	74	127
20.78108843537415	21.257097505668934	55	127
21.686666666666667	22.325215419501134	43	127
21.686666666666667	22.325215419501134	47	127
21.686666666666667	22.325215419501134	50	127
21.686666666666667	22.325215419501134	55	127
22.754784580498868	23.184331065759636	47	127
22.754784580498868	23.184331065759636	41	127
22.754784580498868	23.184331065759636	50	127
22.754784580498868	23.184331065759636	53	127
23.195963718820863	23.31204081632653	76	127
23.31204081632653	23.42816326530612	74	127
23.42816326530612	23.521043083900228	73	127
23.521043083900228	23.63714285714286	74	127
23.63714285714286	24.055102040816326	41	127
23.63714285714286	24.055102040816326	47	127
23.63714285714286	24.055102040816326	50	127
23.63714285714286	24.055102040816326	53	127
23.63714285714286	24.055102040816326	76	127
24.159591836734695	24.356961451247166	77	127
24.60077097505669	26.028798185941042	79	127
25.390249433106575	26.307437641723357	43	127
25.390249433106575	26.307437641723357	40	127
25.390249433106575	26.307437641723357	52	127
25.390249433106575	26.307437641723357	48	127
26.028798185941042	26.307437641723357	76	127
26.307437641723357	27.874784580498865	84	127
27.24784580498866	28.083764172335602	55	127
27.24784580498866	28.083764172335602	60	127
27.24784580498866	28.083764172335602	52	127
27.874784580498865	28.083764172335602	79	127
28.083764172335602	29.430521541950114	88	127
29.012562358276643	29.883310657596372	55	127
29.012562358276643	29.883310657596372	52	127
29.012562358276643	29.883310657596372	60	127
29.430521541950114	29.662721088435376	86	127
29.662721088435376	29.83687074829932	84	127
29.883310657596372	31.543537414965986	83	127
30.812108843537416	31.276507936507937	53	127
30.812108843537416	31.276507936507937	57	127
30.812108843537416	31.276507936507937	60	127
30.812108843537416	31.276507936507937	62	127
31.543537414965986	31.70607709750567	81	127
31.775736961451248	32.21691609977324	62	127
31.775736961451248	32.21691609977324	53	127
31.775736961451248	32.21691609977324	57	127
31.775736961451248	32.21691609977324	60	127
31.775736961451248	33.981632653061226	81	127
32.62326530612245	33.099274376417235	53	127
32.62326530612245	33.099274376417235	57	127
32.62326530612245	33.099274376417235	60	127
32.62326530612245	33.099274376417235	62	127
33.55204081632653	33.981632653061226	54	127
33.55204081632653	33.981632653061226	57	127
33.55204081632653	33.981632653061226	60	127
33.55204081632653	33.981632653061226	62	127
33.981632653061226	34.0512925170068	83	127
34.0512925170068	34.132562358276644	81	127
34.132562358276644	34.202222222222225	83	127
34.202222222222225	34.30668934240363	81	127
34.30668934240363	34.43439909297052	80	127
34.43439909297052	34.515691609977324	81	127
34.515691609977324	35.0265306122449	62	127
34.515691609977324	35.0265306122449	54	127
34.515691609977324	35.0265306122449	57	127
34.515691609977324	35.0265306122449	60	127
34.515691609977324	35.0265306122449	83	127
35.131020408163266	35.38643990929705	84	127
35.63024943310658	36.77963718820862	84	127
36.35004535147392	37.267256235827666	64	127
36.35004535147392	37.267256235827666	55	127
36.35004535147392	37.267256235827666	60	127
36.77963718820862	37.04666666666667	83	127
37.04666666666667	37.22081632653061	81	127
37.267256235827666	38.69528344671202	79	127
38.2424716553288	39.14807256235828	52	127
38.2424716553288	39.14807256235828	48	127
38.2424716553288	39.14807256235828	55	127
38.2424716553288	39.14807256235828	43	127
38.69528344671202	38.93909297052154	77	127
38.93909297052154	39.10163265306122	76	127
39.14807256235828	40.62253968253968	74	127
40.158140589569165	41.06371882086168	55	127
40.158140589569165	41.06371882086168	43	127
40.158140589569165	41.06371882086168	50	127
40.158140589569165	41.06371882086168	53	127
40.62253968253968	40.84312925170068	77	127
40.84312925170068	41.017278911564624	71	127
41.06371882086168	43.24639455782313	74	127
42.14344671201814	44.140362811791384	55	127
42.14344671201814	43.24639455782313	53	127
42.14344671201814	44.140362811791384	48	127
43.24639455782313	44.140362811791384	72	127
43.24639455782313	44.140362811791384	52	127
46.78743764172336	48.48249433106576	60	127
46.78743764172336	48.48249433106576	55	127
46.78743764172336	48.48249433106576	64	127
47.425986394557825	47.4956462585034	36	127
47.4956462585034	47.56530612244898	40	127
47.56530612244898	47.646575963718824	43	127
47.646575963718824	47.78589569160998	48	127
48.05292517006803	48.26190476190476	48	127
48.48249433106576	50.20077097505669	55	127
48.48249433106576	50.20077097505669	60	127
48.48249433106576	50.20077097505669	64	127
49.13265306122449	49.19070294784581	36	127
49.19070294784581	49.26036281179138	40	127
49.26036281179138	49.33002267573696	43	127
49.33002267573696	49.55061224489796	48	127
49.79442176870748	49.991791383219955	48	127
50.20077097505669	51.9887074829932	64	127
50.20077097505669	51.9887074829932	55	127
50.20077097505669	51.9887074829932	60	127
50.874149659863946	50.93219954648526	36	127
50.93219954648526	51.0134693877551	40	127
51.0134693877551	51.11795918367347	43	127
51.11795918367347	51.26888888888889	48	127
51.5475283446712	51.791337868480724	48	127
51.9887074829932	53.67215419501134	59	127
51.9887074829932	53.67215419501134	55	127
51.9887074829932	53.67215419501134	65	127
52.60403628117914	52.673696145124715	38	127
52.673696145124715	52.7433560090703	43	127
52.7433560090703	52.80140589569161	47	127
52.80140589569161	52.97555555555556	50	127
53.24258503401361	53.45156462585034	50	127
53.67215419501134	55.378820861678	59	127
53.67215419501134	55.378820861678	55	127
53.67215419501134	55.378820861678	65	127
54.264263038548755	54.33392290249433	38	127
54.33392290249433	54.41519274376417	43	127
54.41519274376417	54.49646258503402	47	127
54.49646258503402	54.67061224489796	50	127
54.93764172335601	55.16984126984127	50	127
55.378820861678	57.108707482993196	59	127
55.378820861678	57.108707482993196	55	127
55.378820861678	57.108707482993196	62	127
56.05219954648526	56.12185941043084	41	127
56.12185941043084	56.20312925170068	47	127
56.20312925170068	56.30761904761905	50	127
56.30761904761905	56.446938775510205	53	127
56.713968253968254	56.91133786848073	53	127
57.108707482993196	58.792154195011335	67	127
57.108707482993196	58.792154195011335	55	127
57.108707482993196	58.792154195011335	60	127
57.758866213151926	57.816916099773245	40	127
57.816916099773245	57.87496598639456	43	127
57.87496598639456	57.933015873015876	48	127
57.933015873015876	58.07233560090703	52	127
58.35097505668934	58.55995464852608	52	127
58.792154195011335	60.59170068027211	62	127
58.792154195011335	60.59170068027211	67	127
58.792154195011335	60.59170068027211	55	127
59.41909297052154	59.465532879818596	35	127
59.465532879818596	59.53519274376417	38	127
59.53519274376417	59.616462585034014	43	127
59.616462585034014	59.79061224489796	47	127
60.0924716553288	60.34789115646259	47	127
60.59170068027211	62.414467120181406	60	127
60.59170068027211	62.414467120181406	67	127
60.59170068027211	62.414467120181406	55	127
60.59170068027211	62.414467120181406	64	127
61.23024943310658	61.28829931972789	36	127
61.28829931972789	61.39278911564626	40	127
61.39278911564626	61.4740589569161	43	127
61.4740589569161	61.636598639455784	48	127
61.89201814058957	62.12421768707483	48	127
62.414467120181406	64.08630385487528	67	127
62.414467120181406	64.08630385487528	55	127
62.414467120181406	64.08630385487528	62	127
62.414467120181406	64.08630385487528	65	127
63.02979591836735	63.08784580498866	31	127
63.08784580498866	63.169115646258504	35	127
63.169115646258504	63.23877551020408	38	127
63.23877551020408	63.389705215419504	43	127
63.668344671201815	63.888934240362815	43	127
64.08630385487528	65.87424036281179	67	127
64.08630385487528	65.87424036281179	55	127
64.08630385487528	65.87424036281179	59	127
64.08630385487528	65.87424036281179	62	127
64.72485260770975	64.78290249433107	31	127
64.78290249433107	64.86417233560091	35	127
64.86417233560091	64.93383219954649	38	127
64.93383219954649	65.09637188208617	43	127
65.36340136054422	65.59560090702948	43	127
65.87424036281179	67.6621768707483	62	127
65.87424036281179	67.6621768707483	55	127
65.87424036281179	67.6621768707483	67	127
65.87424036281179	67.6621768707483	59	127
66.501179138322	66.57083900226758	31	127
66.57083900226758	66.6288888888889	35	127
66.6288888888889	66.69854875283447	38	127
66.69854875283447	66.84947845804989	41	127
67.15133786848072	67.39514739229026	41	127
67.6621768707483	69.4501133786848	67	127
67.6621768707483	69.4501133786848	55	127
67.6621768707483	69.4501133786848	60	127
68.30072562358276	68.37036281179138	40	127
68.37036281179138	68.4748752834467	43	127
68.4748752834467	68.55614512471655	48	127
68.55614512471655	68.74190476190476	52	127
68.99732426303855	69.24111111111111	52	127
69.4501133786848	71.2844671201814	66	127
69.4501133786848	71.2844671201814	57	127
69.4501133786848	71.2844671201814	60	127
69.4501133786848	71.2844671201814	69	127
70.08866213151927	70.15829931972789	39	127
70.15829931972789	70.25120181405896	42	127
70.25120181405896	70.32086167800453	48	127
70.32086167800453	70.48340136054422	51	127
70.8317006802721	71.05229024943311	51	127
71.2844671201814	72.9098866213152	67	127
71.2844671201814	72.9098866213152	59	127
71.2844671201814	72.9098866213152	55	127
71.91142857142857	71.99269841269842	40	127
71.99269841269842	72.12040816326531	43	127
72.12040816326531	72.17843537414966	47	127
72.17843537414966	72.32938775510205	52	127
72.58480725623583	72.7821768707483	52	127
73.02598639455782	74.87197278911565	60	127
73.02598639455782	74.87197278911565	64	127
73.02598639455782	74.87197278911565	69	127
73.7225850340136	73.78063492063492	36	127
73.78063492063492	73.87351473922902	40	127
73.87351473922902	73.95478458049887	45	127
73.95478458049887	74.10571428571428	48	127
74.37274376417234	74.59333333333333	48	127
74.87197278911565	76.6482993197279	67	127
74.87197278911565	76.6482993197279	71	127
74.87197278911565	76.6482993197279	62	127
75.48730158730159	75.5453514739229	38	127
75.5453514739229	75.62662131519275	43	127
75.62662131519275	75.73108843537415	47	127
75.73108843537415	75.88204081632654	50	127
76.18390022675737	76.43931972789116	50	127
76.6482993197279	78.4362358276644	66	127
76.6482993197279	78.4362358276644	57	127
76.6482993197279	78.4362358276644	60	127
76.6482993197279	78.4362358276644	62	127
77.29845804988662	77.36809523809524	38	127
77.36809523809524	77.42616780045351	45	127
77.42616780045351	77.49580498866213	48	127
77.49580498866213	77.65836734693877	50	127
77.92539682539683	78.1575963718821	50	127
78.4362358276644	80.08485260770975	62	127
78.4362358276644	78.86580498866213	43	127
78.4362358276644	80.08485260770975	59	127
78.4362358276644	80.08485260770975	67	127
78.86580498866213	79.08639455782313	55	127
79.31859410430839	79.5043537414966	55	127
79.69011337868481	79.87587301587301	55	127
80.08485260770975	80.28219954648526	55	127
80.52603174603175	80.70018140589569	55	127
80.90916099773243	81.09492063492064	55	127
81.3271201814059	81.5128798185941	55	127
81.52448979591837	81.74507936507936	79	127
81.74507936507936	83.2427664399093	80	127
81.74507936507936	81.9540589569161	55	127
82.13981859410431	82.34879818594105	55	127
82.63904761904762	82.87124716553288	55	127
83.05700680272109	83.2427664399093	55	127
83.2427664399093	83.44013605442177	78	127
83.48657596371882	84.29927437641723	79	127
83.48657596371882	83.88131519274377	43	127
83.88131519274377	84.09027210884354	55	127
84.29927437641723	84.50825396825397	55	127
84.69401360544218	84.8449433106576	55	127
85.07714285714286	85.27451247165533	55	127
85.48349206349206	85.66925170068028	55	127
85.87820861678004	86.08721088435374	55	127
86.319410430839	86.50517006802721	55	127
86.50517006802721	86.70253968253968	67	127
86.50517006802721	86.70253968253968	79	127
86.70253968253968	88.16539682539683	80	127
86.70253968253968	86.91151927437642	55	127
86.70253968253968	88.16539682539683	68	127
87.10888888888888	87.30625850340137	55	127
87.53843537414966	87.71260770975057	55	127
87.94480725623583	88.16539682539683	55	127
88.16539682539683	88.32793650793651	78	127
88.16539682539683	88.32793650793651	66	127
88.38598639455782	89.17544217687075	43	127
88.38598639455782	88.75750566893424	67	127
88.38598639455782	88.75750566893424	79	127
88.38598639455782	89.17544217687075	55	127
88.75750566893424	89.17544217687075	79	127
89.17544217687075	89.38444444444444	79	127
89.6166439909297	89.79077097505669	79	127
90.08104308390023	90.53383219954648	79	127
90.53383219954648	90.88213151927438	80	127
90.95179138321996	91.14916099773242	80	127
91.35814058956916	91.52068027210885	80	127
91.77609977324263	92.1940589569161	80	127
92.1940589569161	92.51913832199547	81	127
92.60038548752834	92.80938775510204	81	127
93.0764172335601	93.2621768707483	81	127
93.4943537414966	93.9239455782313	81	127
93.9239455782313	94.28385487528345	76	127
94.36510204081632	94.57410430839002	76	127
94.78308390022676	94.93401360544217	76	127
95.22426303854876	95.63061224489796	76	127
95.63061224489796	95.94408163265307	77	127
96.0253514739229	96.26916099773243	77	127
96.50136054421769	96.67551020408163	77	127
96.95414965986394	97.36049886621315	77	127
97.36049886621315	97.73201814058957	78	127
97.8481179138322	98.13836734693878	78	127
98.40539682539682	98.54471655328798	78	127
98.89301587301587	99.02072562358276	67	127
99.02072562358276	100.90154195011338	79	127
99.6360544217687	99.83342403628117	48	127
99.6360544217687	99.83342403628117	52	127
99.6360544217687	99.83342403628117	55	127
99.6360544217687	99.83342403628117	60	127
100.13528344671202	100.34426303854875	48	127
100.13528344671202	100.34426303854875	52	127
100.13528344671202	100.34426303854875	55	127
100.13528344671202	100.34426303854875	60	127
100.54163265306123	100.72739229024943	52	127
100.54163265306123	100.72739229024943	55	127
100.54163265306123	100.72739229024943	60	127
100.54163265306123	100.72739229024943	48	127
101.00603174603175	102.84040816326531	76	127
101.43560090702948	101.63297052154195	48	127
101.43560090702948	101.63297052154195	52	127
101.43560090702948	101.63297052154195	55	127
101.43560090702948	101.63297052154195	60	127
101.85356009070294	102.07414965986395	48	127
101.85356009070294	102.07414965986395	52	127
101.85356009070294	102.07414965986395	55	127
101.85356009070294	102.07414965986395	60	127
102.30634920634921	102.46888888888888	48	127
102.30634920634921	102.46888888888888	52	127
102.30634920634921	102.46888888888888	55	127
102.30634920634921	102.46888888888888	60	127
102.84040816326531	104.50063492063492	72	127
103.23514739229024	103.42090702947846	46	127
103.23514739229024	103.42090702947846	55	127
103.23514739229024	103.42090702947846	58	127
103.23514739229024	103.42090702947846	52	127
103.71115646258504	103.89691609977324	46	127
103.71115646258504	103.89691609977324	52	127
103.71115646258504	103.89691609977324	55	127
103.71115646258504	103.89691609977324	58	127
104.1291156462585	104.3497052154195	58	127
104.1291156462585	104.3497052154195	55	127
104.1291156462585	104.3497052154195	52	127
104.1291156462585	104.3497052154195	46	127
104.62834467120182	105.90544217687075	77	127
105.04630385487529	105.26689342403628	57	127
105.04630385487529	105.26689342403628	45	127
105.04630385487529	105.26689342403628	48	127
105.04630385487529	105.26689342403628	53	127
105.46426303854875	105.67324263038549	45	127
105.46426303854875	105.67324263038549	48	127
105.46426303854875	105.67324263038549	53	127
105.46426303854875	105.67324263038549	57	127
105.90544217687075	106.05637188208617	57	127
105.90544217687075	106.0447619047619	81	127
105.90544217687075	106.05637188208617	45	127
105.90544217687075	106.05637188208617	48	127
105.90544217687075	106.05637188208617	53	127
106.0447619047619	106.25374149659864	79	127
106.25374149659864	106.358231292517	77	127
106.3930612244898	108.32031746031745	89	127
106.8922902494331	107.13609977324263	50	127
106.8922902494331	107.13609977324263	47	127
106.8922902494331	107.13609977324263	53	127
106.8922902494331	107.13609977324263	55	127
107.37990929705215	107.63532879818594	50	127
107.37990929705215	107.63532879818594	47	127
107.37990929705215	107.63532879818594	53	127
107.37990929705215	107.63532879818594	55	127
107.84430839002268	108.05328798185941	50	127
107.84430839002268	108.05328798185941	47	127
107.84430839002268	108.05328798185941	53	127
107.84430839002268	108.05328798185941	55	127
108.32031746031745	109.98054421768707	88	127
108.68022675736961	108.92403628117914	48	127
108.68022675736961	108.92403628117914	52	127
108.68022675736961	108.92403628117914	55	127
109.14462585034013	109.38843537414967	48	127
109.14462585034013	109.38843537414967	52	127
109.14462585034013	109.38843537414967	55	127
109.64385487528345	109.80639455782313	48	127
109.64385487528345	109.80639455782313	52	127
109.64385487528345	109.80639455782313	55	127
110.08503401360544	110.15469387755103	88	127
110.15469387755103	110.21274376417233	86	127
110.21274376417233	110.27079365079365	88	127
110.27079365079365	110.30562358276644	86	127
110.30562358276644	110.37528344671202	88	127
110.37528344671202	110.43333333333334	86	127
110.43333333333334	110.60748299319728	53	127
110.43333333333334	110.60748299319728	41	127
110.43333333333334	110.60748299319728	50	127
110.43333333333334	110.60748299319728	45	127
110.43333333333334	110.50299319727891	88	127
110.50299319727891	110.54943310657596	86	127
110.54943310657596	110.60748299319728	88	127
110.60748299319728	110.65392290249433	86	127
110.65392290249433	110.71197278911565	88	127
110.71197278911565	110.78163265306122	86	127
110.78163265306122	111.02544217687075	53	127
110.78163265306122	110.8512925170068	88	127
110.78163265306122	111.02544217687075	50	127
110.78163265306122	111.02544217687075	41	127
110.78163265306122	111.02544217687075	45	127
110.8512925170068	110.93256235827664	86	127
110.93256235827664	111.03705215419501	88	127
111.03705215419501	111.10671201814058	86	127
111.10671201814058	111.1995918367347	85	127
111.1995918367347	111.28086167800454	86	127
111.28086167800454	111.54789115646258	89	127
111.28086167800454	111.46662131519274	41	127
111.28086167800454	111.46662131519274	45	127
111.28086167800454	111.46662131519274	50	127
111.28086167800454	111.46662131519274	53	127
111.54789115646258	111.78009070294785	81	127
111.8265306122449	113.5215873015873	84	127
112.2677097505669	112.52312925170068	43	127
112.2677097505669	112.52312925170068	48	127
112.2677097505669	112.52312925170068	52	127
112.2677097505669	112.52312925170068	55	127
112.80176870748299	113.05718820861678	43	127
112.80176870748299	113.05718820861678	48	127
112.80176870748299	113.05718820861678	52	127
112.80176870748299	113.05718820861678	55	127
113.30099773242631	113.46353741496598	43	127
113.30099773242631	113.46353741496598	48	127
113.30099773242631	113.46353741496598	52	127
113.30099773242631	113.46353741496598	55	127
113.5215873015873	113.63768707482993	86	127
113.63768707482993	113.75378684807256	84	127
113.77700680272109	114.0208163265306	83	127
114.0208163265306	114.19496598639456	84	127
114.19496598639456	114.40394557823129	85	127
114.19496598639456	114.40394557823129	43	127
114.19496598639456	114.40394557823129	50	127
114.19496598639456	114.40394557823129	53	127
114.19496598639456	114.40394557823129	55	127
114.40394557823129	114.6245351473923	86	127
114.6245351473923	114.84512471655329	43	127
114.6245351473923	114.84512471655329	50	127
114.6245351473923	114.84512471655329	53	127
114.6245351473923	114.84512471655329	55	127
114.6245351473923	114.84512471655329	87	127
114.84512471655329	114.9960544217687	88	127
114.9960544217687	115.11215419501134	55	127
114.9960544217687	115.11215419501134	43	127
114.9960544217687	115.11215419501134	50	127
114.9960544217687	115.11215419501134	53	127
114.9960544217687	115.18181405895692	89	127
115.18181405895692	115.41401360544218	83	127
115.48367346938775	117.12068027210884	86	127
115.90163265306123	116.13383219954649	48	127
115.90163265306123	116.13383219954649	53	127
115.90163265306123	116.13383219954649	55	127
116.38925170068028	116.6330612244898	48	127
116.38925170068028	116.6330612244898	53	127
116.38925170068028	116.6330612244898	55	127
116.86526077097506	117.12068027210884	48	127
116.86526077097506	117.12068027210884	53	127
116.86526077097506	117.12068027210884	55	127
117.12068027210884	117.26	88	127
117.26	117.42253968253968	86	127
117.42253968253968	117.85210884353741	52	127
117.42253968253968	117.85210884353741	84	127
117.42253968253968	117.85210884353741	48	127
117.42253968253968	117.85210884353741	55	127
117.921768707483	118.33972789115646	60	127
117.921768707483	118.33972789115646	48	127
118.33972789115646	118.79251700680273	47	127
118.33972789115646	118.79251700680273	59	127
118.79251700680273	119.22208616780046	60	127
118.79251700680273	119.22208616780046	48	127
119.22208616780046	119.7097052154195	59	127
119.22208616780046	119.7097052154195	47	127
119.7097052154195	120.16249433106576	60	127
119.7097052154195	120.16249433106576	48	127
120.16249433106576	120.66172335600908	55	127
120.16249433106576	120.66172335600908	43	127
120.66172335600908	121.05646258503401	52	127
120.66172335600908	121.05646258503401	40	127
121.14934240362811	122.821179138322	46	127
121.14934240362811	122.821179138322	34	127
121.36993197278912	121.57891156462586	48	127
121.57891156462586	121.78789115646258	52	127
121.78789115646258	121.98526077097506	55	127
121.98526077097506	122.1942403628118	60	127
122.1942403628118	122.39160997732426	48	127
122.39160997732426	122.61219954648526	52	127
122.61219954648526	122.821179138322	55	127
122.821179138322	124.40013605442176	40	127
123.01854875283446	123.2275283446712	48	127
123.2275283446712	123.43650793650794	55	127
123.43650793650794	123.6338775510204	58	127
123.6338775510204	123.81963718820862	60	127
123.81963718820862	124.00539682539683	48	127
124.00539682539683	124.2027664399093	55	127
124.2027664399093	124.40013605442176	58	127
124.40013605442176	126.03714285714285	34	127
124.40013605442176	126.03714285714285	46	127
124.6091156462585	124.81809523809524	48	127
124.81809523809524	125.02707482993198	52	127
125.02707482993198	125.23605442176871	55	127
125.23605442176871	125.44503401360544	60	127
125.44503401360544	125.68884353741497	48	127
125.68884353741497	125.90943310657596	52	127
125.90943310657596	126.13002267573697	55	127
126.13002267573697	127.75541950113379	32	127
126.13002267573697	127.75541950113379	44	127
126.35061224489796	126.5247619047619	48	127
126.5247619047619	126.74535147392291	53	127
126.74535147392291	126.9659410430839	56	127
126.9659410430839	127.16331065759637	60	127
127.16331065759637	127.34907029478458	48	127
127.34907029478458	127.54643990929705	53	127
127.54643990929705	127.70897959183674	56	127
127.75541950113379	129.3808163265306	36	127
127.97600907029478	128.19657596371883	48	127
128.19657596371883	128.4055782312925	53	127
128.4055782312925	128.61455782312925	56	127
128.61455782312925	128.80031746031747	60	127
128.80031746031747	128.9744671201814	48	127
128.9744671201814	129.18344671201814	53	127
129.18344671201814	129.33437641723356	56	127
129.3808163265306	131.08748299319728	41	127
129.3808163265306	131.08748299319728	29	127
129.61301587301588	129.82199546485262	48	127
129.82199546485262	130.0425850340136	53	127
130.0425850340136	130.25156462585034	56	127
130.25156462585034	130.4489342403628	60	127
130.4489342403628	130.71596371882086	48	127
130.71596371882086	130.94816326530614	53	127
130.94816326530614	131.13392290249433	56	127
131.19197278911565	132.7128798185941	46	127
131.19197278911565	132.7128798185941	34	127
131.37773242630385	131.57510204081632	49	127
131.57510204081632	131.79569160997733	53	127
131.79569160997733	131.98145124716552	55	127
131.98145124716552	132.1439909297052	61	127
132.1439909297052	132.35297052154195	49	127
132.35297052154195	132.55034013605442	53	127
132.55034013605442	132.66643990929705	55	127
132.7128798185941	134.45437641723356	37	127
132.9334693877551	133.16566893424036	46	127
133.16566893424036	133.3746485260771	53	127
133.3746485260771	133.6184580498866	55	127
133.6184580498866	133.82743764172335	58	127
133.82743764172335	134.01319727891158	46	127
134.01319727891158	134.22215419501134	53	127
134.22215419501134	134.4079365079365	55	127
134.45437641723356	136.11458049886622	36	127
134.67496598639457	134.91877551020409	48	127
134.91877551020409	135.12775510204082	52	127
135.12775510204082	135.34832199546486	55	127
135.34832199546486	135.53410430839003	60	127
135.53410430839003	135.74308390022676	48	127
135.74308390022676	135.975283446712	52	127
135.975283446712	136.16104308390024	55	127
136.2074829931973	141.2578231292517	29	127
136.4512925170068	136.64866213151927	48	127
136.64866213151927	136.83439909297053	53	127
136.83439909297053	137.03179138321997	56	127
137.03179138321997	137.2059410430839	60	127
137.2059410430839	137.4265306122449	48	127
137.4265306122449	137.62390022675737	53	127
137.62390022675737	137.79804988662133	56	127
137.84448979591838	139.45827664399093	41	127
138.06507936507936	138.25083900226758	48	127
138.25083900226758	138.48303854875283	53	127
138.48303854875283	138.70362811791384	56	127
138.70362811791384	138.91260770975057	60	127
138.91260770975057	139.09836734693877	48	127
139.09836734693877	139.2492970521542	53	127
139.2492970521542	139.4002267573696	56	127
139.45827664399093	141.2578231292517	41	127
139.6904761904762	139.91106575963718	48	127
139.91106575963718	140.10843537414965	53	127
140.10843537414965	140.32902494331066	56	127
140.32902494331066	140.57283446712017	60	127
140.57283446712017	140.79342403628118	48	127
140.79342403628118	141.0140136054422	53	127
141.0140136054422	141.21138321995466	56	127
141.2578231292517	142.8251700680272	30	127
141.2578231292517	142.8251700680272	42	127
141.4784126984127	141.67578231292518	48	127
141.67578231292518	141.88476190476192	51	127
141.88476190476192	142.02408163265306	56	127
142.02408163265306	142.2330612244898	60	127
142.2330612244898	142.418820861678	48	127
142.418820861678	142.62780045351474	51	127
142.62780045351474	142.77873015873016	56	127
142.8251700680272	146.09918367346938	30	127
143.03414965986394	143.25473922902495	48	127
143.25473922902495	143.4637188208617	51	127
143.4637188208617	143.67269841269842	54	127
143.67269841269842	143.88167800453516	56	127
143.67269841269842	144.5550566893424	36	127
143.88167800453516	144.13709750566895	51	127
144.13709750566895	144.3460544217687	54	127
144.3460544217687	144.49698412698413	56	127
144.5550566893424	145.4025850340136	39	127
144.7756462585034	144.98462585034014	48	127
144.98462585034014	145.20521541950114	55	127
145.20521541950114	145.4025850340136	56	127
145.4025850340136	145.61156462585035	60	127
145.4025850340136	146.09918367346938	42	127
145.61156462585035	145.79732426303855	48	127
145.79732426303855	145.9714739229025	56	127
145.9714739229025	146.14562358276643	60	127
146.16884353741497	147.73619047619047	41	127
146.16884353741497	147.73619047619047	29	127
146.33138321995466	146.55197278911564	49	127
146.55197278911564	146.74931972789116	53	127
146.74931972789116	146.98154195011338	56	127
146.98154195011338	147.16730158730158	61	127
147.16730158730158	147.3646485260771	49	127
147.3646485260771	147.56204081632654	53	127
147.56204081632654	147.71297052154196	56	127
147.73619047619047	149.3964172335601	44	127
147.73619047619047	149.3964172335601	32	127
147.92192743764173	148.13090702947846	49	127
148.13090702947846	148.35151927437641	53	127
148.35151927437641	148.56049886621315	56	127
148.56049886621315	148.79267573696146	61	127
148.79267573696146	148.9900680272109	49	127
148.9900680272109	149.18743764172336	53	127
149.18743764172336	149.34997732426305	56	127
149.3964172335601	150.97537414965987	37	127
149.59378684807257	149.75632653061226	49	127
149.75632653061226	149.94208616780045	53	127
149.94208616780045	150.12784580498865	56	127
150.12784580498865	150.3368253968254	61	127
150.3368253968254	150.56902494331067	49	127
150.56902494331067	150.82444444444445	53	127
150.82444444444445	151.02181405895692	56	127
151.07986394557824	152.72845804988663	30	127
151.07986394557824	152.72845804988663	42	127
151.28884353741498	151.50943310657595	49	127
151.50943310657595	151.7184126984127	51	127
151.7184126984127	151.90417233560092	58	127
151.90417233560092	152.1015419501134	61	127
152.1015419501134	152.33374149659863	49	127
152.33374149659863	152.54272108843537	51	127
152.54272108843537	152.68201814058958	58	127
152.72845804988663	154.24938775510205	34	127
152.72845804988663	154.24938775510205	46	127
152.9142403628118	153.1	49	127
153.1	153.26253968253968	51	127
153.26253968253968	153.42507936507937	54	127
153.42507936507937	153.62244897959184	61	127
153.62244897959184	153.83142857142857	49	127
153.83142857142857	154.0404081632653	51	127
154.0404081632653	154.19133786848073	54	127
154.24938775510205	155.96766439909297	32	127
154.24938775510205	155.96766439909297	44	127
154.4583673469388	154.69056689342403	48	127
154.69056689342403	154.91115646258504	51	127
154.91115646258504	155.16657596371883	54	127
155.16657596371883	155.43360544217688	60	127
155.43360544217688	155.6077551020408	48	127
155.6077551020408	155.82834467120182	51	127
155.82834467120182	156.0024716553288	54	127
156.06054421768707	160.97156462585033	37	127
156.2463038548753	156.3972335600907	49	127
156.3972335600907	156.5829931972789	53	127
156.5829931972789	156.82680272108843	56	127
156.82680272108843	157.03578231292516	61	127
157.03578231292516	157.20993197278912	49	127
157.20993197278912	157.43049886621316	53	127
157.43049886621316	157.54662131519274	56	127
157.5930612244898	159.34616780045351	49	127
157.7904081632653	157.999410430839	53	127
157.999410430839	158.25482993197278	56	127
158.25482993197278	158.51024943310657	61	127
158.51024943310657	158.74244897959184	65	127
158.74244897959184	158.96303854875285	56	127
158.96303854875285	159.1719954648526	61	127
159.1719954648526	159.31133786848073	65	127
159.34616780045351	160.97156462585033	49	127
159.52031746031747	159.7292970521542	53	127
159.7292970521542	159.9498866213152	56	127
159.9498866213152	160.14725623582765	61	127
160.14725623582765	160.34460317460318	65	127
160.34460317460318	160.54199546485262	53	127
160.54199546485262	160.7625850340136	56	127
160.7625850340136	160.91351473922902	65	127
160.97156462585033	162.60857142857142	51	127
160.97156462585033	162.60857142857142	39	127
161.40113378684808	161.6217006802721	54	127
161.6217006802721	161.81909297052155	56	127
161.81909297052155	162.0280725623583	66	127
162.0280725623583	162.20222222222222	54	127
162.20222222222222	162.38798185941044	56	127
162.38798185941044	162.56213151927437	66	127
162.60857142857142	164.19913832199546	36	127
162.60857142857142	164.19913832199546	48	127
162.98009070294785	163.1542403628118	51	127
163.1542403628118	163.34	56	127
163.34	163.560589569161	63	127
163.560589569161	163.76954648526078	51	127
163.76954648526078	164.001768707483	56	127
164.001768707483	164.16430839002268	63	127
164.19913832199546	165.67360544217686	42	127
164.19913832199546	165.67360544217686	30	127
164.5938775510204	164.77963718820862	48	127
164.77963718820862	164.96539682539682	56	127
164.96539682539682	165.1627664399093	60	127
165.1627664399093	165.37174603174603	48	127
165.37174603174603	165.5691156462585	56	127
165.5691156462585	165.73165532879818	60	127
165.77809523809523	167.36866213151927	29	127
165.77809523809523	167.36866213151927	41	127
166.1960544217687	166.39342403628117	56	127
166.39342403628117	166.62562358276645	61	127
166.62562358276645	166.8346031746032	68	127
166.8346031746032	167.0203628117914	56	127
167.0203628117914	167.21773242630385	61	127
167.21773242630385	167.32222222222222	68	127
167.36866213151927	168.92439909297053	44	127
167.36866213151927	168.92439909297053	32	127
167.71696145124716	167.9259410430839	56	127
167.9259410430839	168.13492063492063	61	127
168.13492063492063	168.3322902494331	65	127
168.3322902494331	168.51804988662133	56	127
168.51804988662133	168.7386394557823	61	127
168.7386394557823	168.87795918367348	65	127
168.92439909297053	170.5265759637188	49	127
168.92439909297053	170.5265759637188	37	127
169.38879818594106	169.56294784580498	53	127
169.56294784580498	169.77192743764172	56	127
169.77192743764172	169.98090702947846	65	127
169.98090702947846	170.1898866213152	53	127
170.1898866213152	170.39886621315193	56	127
170.39886621315193	170.57299319727892	65	127
170.61943310657597	172.25643990929706	39	127
170.61943310657597	172.25643990929706	51	127
171.0722448979592	171.26961451247166	54	127
171.26961451247166	171.4901814058957	56	127
171.4901814058957	171.64111111111112	66	127
171.64111111111112	171.83850340136055	54	127
171.83850340136055	172.05909297052153	56	127
172.05909297052153	172.21002267573695	66	127
172.25643990929706	173.81219954648526	36	127
172.25643990929706	173.81219954648526	48	127
172.6163492063492	172.8253514739229	51	127
172.8253514739229	173.03433106575963	56	127
173.03433106575963	173.23167800453515	63	127
173.23167800453515	173.41746031746032	51	127
173.41746031746032	173.6148299319728	56	127
173.6148299319728	173.7657596371882	63	127
173.81219954648526	175.37954648526076	42	127
173.81219954648526	175.37954648526076	30	127
174.241768707483	174.46235827664398	48	127
174.46235827664398	174.682947845805	56	127
174.682947845805	174.88031746031746	60	127
174.88031746031746	175.0660544217687	48	127
175.0660544217687	175.26344671201815	56	127
175.26344671201815	175.41437641723357	60	127
175.44920634920635	176.2851247165533	29	127
175.44920634920635	176.2851247165533	41	127
175.8787755102041	176.0645351473923	49	127
176.0645351473923	176.2851247165533	56	127
176.2851247165533	176.49410430839004	61	127
176.49410430839004	176.6914739229025	49	127
176.6914739229025	176.86562358276643	56	127
176.86562358276643	177.01655328798185	61	127
177.06297052154196	178.6651700680272	41	127
177.06297052154196	178.6651700680272	29	127
177.45773242630386	177.6667120181406	50	127
177.6667120181406	177.87569160997734	56	127
177.87569160997734	178.0846485260771	62	127
178.0846485260771	178.28204081632654	50	127
178.28204081632654	178.479410430839	56	127
178.479410430839	178.61873015873016	62	127
178.6651700680272	180.49954648526077	44	127
178.6651700680272	180.49954648526077	32	127
179.141179138322	179.36174603174604	50	127
179.36174603174604	179.57074829931972	58	127
179.57074829931972	179.7681179138322	62	127
179.7681179138322	180.01192743764173	50	127
180.01192743764173	180.24412698412698	58	127
180.24412698412698	180.4298866213152	62	127
180.49954648526077	182.07850340136054	42	127
180.49954648526077	182.07850340136054	30	127
180.9639455782313	181.14968253968254	51	127
181.14968253968254	181.28902494331066	58	127
181.28902494331066	181.5095918367347	63	127
181.5095918367347	181.6837641723356	51	127
181.6837641723356	181.89274376417234	58	127
181.89274376417234	182.04367346938776	63	127
182.07850340136054	183.68068027210884	43	127
182.07850340136054	183.68068027210884	31	127
182.48485260770974	182.67061224489797	52	127
182.67061224489797	182.86798185941043	58	127
182.86798185941043	183.07696145124717	64	127
183.07696145124717	183.26272108843537	52	127
183.26272108843537	183.48331065759638	58	127
183.48331065759638	183.64585034013606	64	127
183.68068027210884	185.39895691609976	34	127
183.68068027210884	185.39895691609976	46	127
184.07541950113378	184.2727664399093	52	127
184.2727664399093	184.48176870748298	60	127
184.48176870748298	184.73718820861677	64	127
184.73718820861677	184.9345351473923	52	127
184.9345351473923	185.15514739229025	60	127
185.15514739229025	185.3525170068027	64	127
185.39895691609976	187.10562358276644	44	127
185.39895691609976	187.10562358276644	32	127
185.8285260770975	186.07233560090702	53	127
186.07233560090702	186.28131519274376	60	127
186.28131519274376	186.4902947845805	65	127
186.4902947845805	186.6760544217687	53	127
186.6760544217687	186.8734240362812	60	127
186.8734240362812	187.07079365079366	65	127
187.10562358276644	188.6845804988662	32	127
187.10562358276644	188.6845804988662	44	127
187.52358276643992	187.7093424036281	53	127
187.7093424036281	187.91832199546485	60	127
187.91832199546485	188.1040589569161	65	127
188.1040589569161	188.278231292517	53	127
188.278231292517	188.47560090702947	60	127
188.47560090702947	188.63814058956916	65	127
188.6845804988662	190.42607709750567	44	127
188.6845804988662	190.42607709750567	32	127
189.09092970521542	189.31151927437642	54	127
189.31151927437642	189.53208616780046	60	127
189.53208616780046	189.7410657596372	66	127
189.7410657596372	189.96167800453514	54	127
189.96167800453514	190.18226757369615	60	127
190.18226757369615	190.37963718820862	66	127
190.42607709750567	192.1791836734694	43	127
190.42607709750567	195.02362811791383	31	127
190.86725623582765	191.09945578231293	59	127
191.09945578231293	191.33165532879818	62	127
191.33165532879818	191.54063492063491	67	127
191.54063492063491	191.72639455782314	59	127
191.72639455782314	191.94698412698412	62	127
191.94698412698412	192.1095238095238	67	127
192.1791836734694	193.5839909297052	43	127
192.56231292517006	192.7016326530612	62	127
192.7016326530612	192.88739229024944	67	127
192.88739229024944	193.07315192743764	71	127
193.07315192743764	193.2473015873016	62	127
193.2473015873016	193.40984126984128	67	127
193.40984126984128	193.53755102040816	71	127
193.5839909297052	195.02362811791383	43	127
193.92068027210885	194.11804988662132	67	127
194.11804988662132	194.32702947845806	71	127
194.32702947845806	194.47795918367348	74	127
194.47795918367348	194.66371882086167	67	127
194.66371882086167	194.86108843537414	71	127
194.86108843537414	194.98879818594105	74	127
195.02362811791383	196.62580498866214	43	127
195.02362811791383	200.05074829931974	31	127
195.46480725623582	195.63895691609977	62	127
195.63895691609977	195.81310657596373	65	127
195.81310657596373	196.0104761904762	71	127
196.0104761904762	196.21945578231293	62	127
196.21945578231293	196.4168253968254	65	127
196.4168253968254	196.5793650793651	71	127
196.62580498866214	198.22798185941042	43	127
197.0089342403628	197.19469387755103	65	127
197.19469387755103	197.3920634920635	71	127
197.3920634920635	197.56621315192743	74	127
197.56621315192743	197.7984126984127	65	127
197.7984126984127	198.01900226757368	71	127
198.01900226757368	198.18154195011337	74	127
198.22798185941042	200.05074829931974	43	127
198.63433106575962	198.82009070294785	71	127
198.82009070294785	199.01746031746032	74	127
199.01746031746032	199.26126984126984	77	127
199.26126984126984	199.53990929705216	71	127
199.53990929705216	199.7721088435374	74	127
199.7721088435374	199.92303854875283	77	127
199.98108843537415	200.05074829931974	67	127
200.05074829931974	201.75741496598638	79	127
200.05074829931974	200.97954648526078	36	127
200.97954648526078	201.86190476190475	52	127
200.97954648526078	201.86190476190475	48	127
200.97954648526078	201.86190476190475	55	127
200.97954648526078	201.86190476190475	60	127
201.86190476190475	203.49891156462584	76	127
201.86190476190475	202.66299319727892	36	127
202.66299319727892	203.49891156462584	60	127
202.66299319727892	203.49891156462584	48	127
202.66299319727892	203.49891156462584	52	127
202.66299319727892	203.49891156462584	55	127
203.49891156462584	204.3348299319728	36	127
203.49891156462584	205.0778684807256	72	127
204.3348299319728	205.17074829931974	52	127
204.3348299319728	205.17074829931974	60	127
204.3348299319728	205.17074829931974	55	127
204.3348299319728	205.17074829931974	48	127
205.17074829931974	205.9602267573696	35	127
205.17074829931974	206.37818594104309	71	127
205.9602267573696	206.7845351473923	55	127
205.9602267573696	206.7845351473923	53	127
205.9602267573696	206.7845351473923	50	127
205.9602267573696	206.7845351473923	59	127
206.37818594104309	206.58716553287982	74	127
206.58716553287982	206.72648526077097	72	127
206.7845351473923	208.37510204081633	71	127
206.7845351473923	207.58562358276643	38	127
207.58562358276643	208.37510204081633	59	127
207.58562358276643	208.37510204081633	53	127
207.58562358276643	208.37510204081633	55	127
207.58562358276643	208.37510204081633	50	127
208.37510204081633	209.58253968253968	67	127
208.37510204081633	209.18780045351474	38	127
209.18780045351474	210.03532879818593	62	127
209.18780045351474	210.03532879818593	59	127
209.18780045351474	210.03532879818593	53	127
209.18780045351474	210.03532879818593	55	127
209.58253968253968	209.67541950113377	69	127
209.67541950113377	209.7915192743764	67	127
209.7915192743764	209.94244897959183	66	127
209.94244897959183	210.01210884353742	67	127
210.03532879818593	211.38208616780045	72	127
210.03532879818593	210.82480725623583	36	127
210.82480725623583	211.66072562358278	55	127
210.82480725623583	211.66072562358278	52	127
210.82480725623583	211.66072562358278	60	127
211.38208616780045	211.66072562358278	67	127
211.66072562358278	212.48503401360543	47	127
211.66072562358278	213.10036281179137	74	127
212.48503401360543	213.32095238095238	55	127
212.48503401360543	213.32095238095238	59	127
212.48503401360543	213.32095238095238	62	127
213.10036281179137	213.32095238095238	67	127
213.32095238095238	214.098820861678	48	127
213.32095238095238	214.74897959183673	76	127
214.098820861678	215.0740589569161	60	127
214.098820861678	215.0740589569161	55	127
214.098820861678	215.0740589569161	64	127
214.74897959183673	215.0740589569161	67	127
215.0740589569161	216.46725623582768	79	127
215.0740589569161	215.90997732426302	43	127
215.90997732426302	216.65301587301587	59	127
215.90997732426302	216.65301587301587	55	127
215.90997732426302	216.65301587301587	62	127
216.46725623582768	216.62979591836734	77	127
216.65301587301587	218.777641723356	74	127
216.65301587301587	217.48893424036282	43	127
217.48893424036282	218.336462585034	62	127
217.48893424036282	218.336462585034	55	127
217.48893424036282	218.336462585034	59	127
218.336462585034	219.17238095238096	43	127
218.777641723356	218.85891156462586	76	127
218.85891156462586	218.9401814058957	74	127
218.9401814058957	219.05628117913832	73	127
219.05628117913832	219.17238095238096	74	127
219.17238095238096	220.11278911564625	55	127
219.17238095238096	220.11278911564625	62	127
219.17238095238096	219.5671201814059	76	127
219.17238095238096	220.11278911564625	53	127
219.17238095238096	220.11278911564625	59	127
219.66	219.880589569161	77	127
220.11278911564625	220.8558276643991	40	127
220.11278911564625	221.52920634920636	79	127
220.8558276643991	221.7614058956916	52	127
220.8558276643991	221.7614058956916	60	127
220.8558276643991	221.7614058956916	55	127
221.52920634920636	221.7614058956916	76	127
221.7614058956916	223.1778231292517	84	127
221.7614058956916	222.5508843537415	40	127
222.5508843537415	223.42163265306124	55	127
222.5508843537415	223.42163265306124	60	127
222.5508843537415	223.42163265306124	52	127
223.1778231292517	223.42163265306124	79	127
223.42163265306124	224.47814058956916	88	127
223.42163265306124	224.2459410430839	40	127
224.2459410430839	225.20956916099775	55	127
224.2459410430839	225.20956916099775	52	127
224.2459410430839	225.20956916099775	60	127
224.47814058956916	224.58263038548753	87	127
224.58263038548753	224.69873015873017	88	127
224.69873015873017	224.80321995464854	89	127
224.80321995464854	224.90770975056688	88	127
224.90770975056688	225.0354195011338	86	127
225.0354195011338	225.17473922902494	84	127
225.20956916099775	226.01065759637189	41	127
225.20956916099775	225.81328798185942	83	127
225.81328798185942	225.96421768707484	81	127
226.01065759637189	226.76530612244898	53	127
226.01065759637189	226.76530612244898	57	127
226.01065759637189	226.76530612244898	60	127
226.01065759637189	226.76530612244898	62	127
226.01065759637189	227.1600453514739	81	127
226.76530612244898	227.6128344671202	41	127
227.1600453514739	228.0424036281179	81	127
227.6128344671202	228.4255328798186	53	127
227.6128344671202	228.4255328798186	60	127
227.6128344671202	228.4255328798186	57	127
227.6128344671202	228.4255328798186	62	127
228.0424036281179	228.75061224489795	81	127
228.4255328798186	229.238231292517	42	127
228.75061224489795	228.8318820861678	83	127
228.8318820861678	228.88993197278913	81	127
228.88993197278913	228.9595918367347	83	127
228.9595918367347	229.02925170068028	81	127
229.02925170068028	229.15696145124716	80	127
229.15696145124716	229.21501133786848	81	127
229.238231292517	230.13219954648525	57	127
229.238231292517	229.43560090702948	83	127
229.238231292517	230.13219954648525	60	127
229.238231292517	230.13219954648525	62	127
229.238231292517	230.13219954648525	54	127
229.679410430839	229.87678004535147	84	127
230.0625396825397	230.13219954648525	83	127
230.13219954648525	230.9681179138322	43	127
230.13219954648525	230.19024943310657	86	127
230.20185941043084	230.2482993197279	84	127
230.2482993197279	230.31795918367348	86	127
230.31795918367348	230.38761904761904	84	127
230.38761904761904	230.45727891156463	86	127
230.45727891156463	230.53854875283446	84	127
230.53854875283446	230.61981859410432	86	127
230.61981859410432	230.67786848072564	84	127
230.67786848072564	230.7475283446712	86	127
230.7475283446712	230.81718820861678	84	127
230.81718820861678	230.8752380952381	86	127
230.8752380952381	230.9681179138322	84	127
230.9681179138322	231.7808163265306	60	127
230.9681179138322	231.7808163265306	64	127
230.9681179138322	231.02616780045352	86	127
230.9681179138322	231.7808163265306	55	127
231.02616780045352	231.10743764172335	84	127
231.10743764172335	231.16548752834467	86	127
231.16548752834467	231.23514739229026	84	127
231.23514739229026	231.29319727891158	86	127
231.29319727891158	231.36285714285714	84	127
231.36285714285714	231.58344671201814	83	127
231.58344671201814	231.71115646258502	81	127
231.7227664399093	231.7808163265306	78	127
231.7808163265306	232.47741496598638	43	127
231.7808163265306	231.82725623582766	81	127
231.83886621315193	231.89691609977325	79	127
231.89691609977325	231.9433560090703	81	127
231.9433560090703	232.00140589569162	79	127
232.00140589569162	232.02462585034013	81	127
232.02462585034013	232.09428571428572	79	127
232.09428571428572	232.14072562358277	81	127
232.14072562358277	232.1987755102041	79	127
232.1987755102041	232.2568253968254	81	127
232.2568253968254	232.32648526077097	79	127
232.32648526077097	232.4193650793651	81	127
232.4193650793651	232.47741496598638	79	127
232.47741496598638	233.30172335600906	64	127
232.47741496598638	232.52385487528343	81	127
232.47741496598638	233.30172335600906	60	127
232.47741496598638	233.30172335600906	55	127
232.52385487528343	232.58190476190475	79	127
232.58190476190475	232.63995464852607	81	127
232.63995464852607	232.72122448979593	79	127
232.72122448979593	232.76766439909298	81	127
232.76766439909298	232.83732426303854	79	127
232.83732426303854	233.08113378684808	77	127
233.08113378684808	233.20884353741496	76	127
233.24367346938774	233.30172335600906	73	127
233.30172335600906	233.33655328798187	76	127
233.30172335600906	234.05637188208615	43	127
233.35977324263038	233.42943310657597	74	127
233.42943310657597	233.49909297052153	76	127
233.49909297052153	233.55714285714285	74	127
233.55714285714285	233.62680272108844	76	127
233.62680272108844	233.68485260770976	74	127
233.68485260770976	233.70807256235827	76	127
233.70807256235827	233.7661224489796	74	127
233.7661224489796	233.81256235827664	76	127
233.81256235827664	233.8938321995465	74	127
233.8938321995465	233.9867120181406	76	127
233.9867120181406	234.05637188208615	74	127
234.05637188208615	235.02	62	127
234.05637188208615	234.11442176870747	76	127
234.05637188208615	235.02	55	127
234.05637188208615	235.02	65	127
234.11442176870747	234.19569160997733	74	127
234.19569160997733	234.27696145124716	76	127
234.27696145124716	234.35823129251702	74	127
234.35823129251702	234.43950113378685	73	127
234.43950113378685	234.52077097505668	74	127
234.52077097505668	234.77619047619046	77	127
234.77619047619046	234.9619501133787	71	127
235.02	236.59895691609978	55	127
235.02	236.59895691609978	60	127
235.02	236.59895691609978	72	127
235.02	236.59895691609978	48	127
235.02	236.59895691609978	52	127
238.0037641723356	238.16630385487528	67	127
238.0037641723356	238.16630385487528	55	127
238.16630385487528	239.55950113378685	76	127
238.16630385487528	239.55950113378685	64	127
238.16630385487528	239.55950113378685	72	127
238.16630385487528	239.55950113378685	60	127
239.55950113378685	239.75687074829932	62	127
239.55950113378685	239.75687074829932	71	127
239.55950113378685	239.75687074829932	74	127
239.55950113378685	239.75687074829932	59	127
239.80331065759637	240.92947845804989	62	127
239.80331065759637	240.92947845804989	65	127
239.80331065759637	240.92947845804989	74	127
239.80331065759637	240.92947845804989	77	127
242.5316553287982	242.72902494331066	67	127
242.5316553287982	242.72902494331066	55	127
242.72902494331066	244.0293424036281	62	127
242.72902494331066	244.0293424036281	65	127
242.72902494331066	244.0293424036281	74	127
242.72902494331066	244.0293424036281	77	127
244.0293424036281	244.16866213151928	60	127
244.0293424036281	244.16866213151928	72	127
244.0293424036281	244.16866213151928	76	127
244.0293424036281	244.16866213151928	64	127
244.21510204081633	245.14390022675738	64	127
244.21510204081633	245.14390022675738	76	127
244.21510204081633	245.14390022675738	79	127
244.21510204081633	245.14390022675738	67	127
245.14390022675738	245.59668934240364	79	127
245.99142857142857	246.43260770975056	79	127
246.7692970521542	246.87378684807257	79	127
247.12920634920636	247.22208616780046	81	127
247.22208616780046	247.32657596371882	79	127
247.32657596371882	247.3962358276644	78	127
247.3962358276644	247.47750566893424	79	127
247.50072562358275	248.5572335600907	88	127
248.5572335600907	248.7197732426304	86	127
248.75460317460318	248.94036281179137	84	127
249.1261224489796	249.32349206349207	83	127
249.5324716553288	249.718231292517	81	127
249.9039909297052	250.07814058956916	79	127
250.22907029478458	250.39160997732426	77	127
250.57736961451246	250.7631292517007	76	127
250.92566893424035	251.0998185941043	74	127
251.2275283446712	251.40167800453514	72	127
251.5758276643991	251.74997732426303	71	127
252.00539682539682	252.10988662131518	69	127
252.2956462585034	252.4814058956916	67	127
252.70199546485262	252.8645351473923	66	127
253.01546485260772	253.44503401360544	35	127
253.01546485260772	253.44503401360544	55	127
253.01546485260772	253.44503401360544	65	127
253.01546485260772	253.44503401360544	47	127
253.82816326530613	254.25773242630385	55	127
253.82816326530613	254.25773242630385	65	127
253.82816326530613	254.25773242630385	35	127
253.82816326530613	254.25773242630385	47	127
254.72213151927437	255.23297052154194	55	127
254.72213151927437	255.23297052154194	65	127
254.72213151927437	255.23297052154194	35	127
254.72213151927437	255.23297052154194	47	127
257.4388662131519	257.8103628117914	48	127
257.4388662131519	257.8103628117914	36	127
257.4388662131519	257.8103628117914	55	127
257.4388662131519	257.8103628117914	60	127
257.4388662131519	257.8103628117914	64	127
258.23995464852607	258.634693877551	36	127
258.23995464852607	258.634693877551	55	127
258.23995464852607	258.634693877551	60	127
258.23995464852607	258.634693877551	64	127
258.23995464852607	258.634693877551	48	127
259.0874829931973	259.64473922902494	36	127
259.0874829931973	259.64473922902494	55	127
259.0874829931973	259.64473922902494	60	127
259.0874829931973	259.64473922902494	64	127
259.0874829931973	259.64473922902494	48	127
261.7577777777778	263.3251020408163	62	127
261.7577777777778	263.3251020408163	42	127
261.7577777777778	263.3251020408163	57	127
261.7577777777778	263.3251020408163	60	127
261.7577777777778	263.3251020408163	30	127
263.3251020408163	264.82281179138323	60	127
263.3251020408163	264.82281179138323	55	127
263.3251020408163	264.82281179138323	64	127
263.3251020408163	266.2508390022676	31	127
263.3251020408163	266.2508390022676	43	127
264.82281179138323	266.2508390022676	62	127
264.82281179138323	266.2508390022676	55	127
264.82281179138323	266.2508390022676	59	127
264.82281179138323	266.2508390022676	65	127
266.3437188208617	268.71215419501135	36	127
266.3437188208617	267.8762358276644	59	127
266.3437188208617	267.8762358276644	63	127
266.3437188208617	268.61927437641725	55	127
266.3437188208617	268.71215419501135	48	127
267.8762358276644	268.61927437641725	60	127
267.8762358276644	268.61927437641725	64	127
268.71215419501135	269.08367346938775	67	127
268.71215419501135	269.08367346938775	79	127
269.30426303854875	269.46678004535147	55	127
269.46678004535147	269.93120181405897	79	127
269.46678004535147	270.86	60	127
269.46678004535147	269.93120181405897	67	127
269.46678004535147	270.86	64	127
270.2911111111111	270.62780045351474	67	127
270.2911111111111	270.62780045351474	79	127
270.86	271.0225396825397	59	127
270.86	271.0225396825397	62	127
271.06897959183675	271.4869387755102	67	127
271.06897959183675	271.4869387755102	79	127
271.06897959183675	271.88167800453516	62	127
271.06897959183675	271.88167800453516	65	127
271.88167800453516	272.25319727891156	79	127
271.88167800453516	272.25319727891156	67	127
272.65954648526076	272.97301587301587	67	127
272.65954648526076	272.97301587301587	79	127
273.4025850340136	273.73927437641726	67	127
273.4025850340136	273.73927437641726	79	127
273.9714739229025	274.1804535147392	55	127
274.1804535147392	275.51560090702947	62	127
274.1804535147392	274.5868027210884	67	127
274.1804535147392	274.5868027210884	79	127
274.1804535147392	275.51560090702947	65	127
274.9815192743764	275.19049886621315	67	127
274.9815192743764	275.19049886621315	79	127
275.51560090702947	275.71297052154193	60	127
275.51560090702947	275.71297052154193	64	127
275.759410430839	276.200589569161	79	127
275.759410430839	276.7694784580499	64	127
275.759410430839	276.7694784580499	67	127
276.200589569161	276.52566893424034	78	127
276.52566893424034	276.7694784580499	79	127
276.7694784580499	276.9900680272109	78	127
276.9900680272109	277.1409977324263	79	127
277.1409977324263	277.2570975056689	78	127
277.2570975056689	277.29192743764173	79	127
277.29192743764173	277.37319727891156	78	127
277.37319727891156	277.46607709750566	79	127
277.46607709750566	277.5357142857143	78	127
277.5357142857143	277.64020408163265	79	127
277.64020408163265	277.744693877551	78	127
277.744693877551	277.79115646258504	79	127
277.79115646258504	277.8375963718821	78	127
277.8375963718821	277.9420634920635	79	127
277.9420634920635	278.0233560090703	78	127
278.0233560090703	278.0814058956916	79	127
278.0814058956916	278.1510430839002	78	127
278.1510430839002	278.2439455782313	79	127
278.2439455782313	278.3019954648526	81	127
278.3019954648526	278.3948752834467	79	127
278.3948752834467	278.51097505668935	78	127
278.51097505668935	278.5922448979592	79	127
278.6154648526077	279.96222222222224	88	127
279.27721088435374	279.4861904761905	67	127
279.27721088435374	279.4861904761905	64	127
279.4861904761905	280.0667120181406	72	127
279.4861904761905	280.0667120181406	76	127
279.96222222222224	280.13637188208617	86	127
280.0667120181406	280.14798185941044	71	127
280.0667120181406	280.14798185941044	74	127
280.171201814059	280.3569614512472	69	127
280.171201814059	280.3569614512472	72	127
280.36857142857144	280.46145124716554	84	127
280.5775510204082	280.6704308390023	83	127
280.74009070294784	280.80972789115646	67	127
280.74009070294784	280.80972789115646	71	127
280.8910204081633	281.0303401360544	65	127
280.8910204081633	281.0303401360544	69	127
281.0419501133787	281.1115873015873	81	127
281.21607709750566	281.30897959183676	79	127
281.40185941043086	281.5063492063492	64	127
281.40185941043086	281.5063492063492	67	127
281.64566893424035	281.7965986394558	62	127
281.64566893424035	281.7965986394558	65	127
281.80820861678006	281.8778684807256	77	127
281.9707482993197	282.0636281179138	76	127
282.1681179138322	282.2609977324263	60	127
282.1681179138322	282.2609977324263	64	127
282.3538775510204	282.53963718820864	62	127
282.3538775510204	282.53963718820864	59	127
282.53963718820864	282.6209070294785	74	127
282.7021768707483	282.78344671201813	72	127
282.8879365079365	282.94598639455785	57	127
282.8879365079365	282.94598639455785	60	127
283.0504761904762	283.2362358276644	55	127
283.0504761904762	283.2362358276644	59	127
283.2362358276644	283.3291156462585	71	127
283.4219954648526	283.50326530612244	69	127
283.6077551020408	283.7006349206349	53	127
283.6077551020408	283.7006349206349	57	127
283.81673469387755	283.9908843537415	52	127
283.81673469387755	283.9908843537415	55	127
283.9908843537415	284.0489342403628	67	127
284.1534240362812	284.22308390022675	66	127
284.35079365079366	284.45528344671203	51	127
284.35079365079366	284.45528344671203	54	127
284.5597732426304	284.94290249433107	44	127
284.5597732426304	284.94290249433107	50	127
284.5597732426304	284.94290249433107	53	127
284.5597732426304	285.26798185941044	65	127
285.26798185941044	285.67433106575965	53	127
285.26798185941044	285.67433106575965	44	127
285.26798185941044	285.67433106575965	50	127
286.11551020408166	286.57990929705215	56	127
286.11551020408166	286.57990929705215	59	127
286.11551020408166	286.57990929705215	62	127
286.11551020408166	286.57990929705215	65	127
286.11551020408166	286.57990929705215	44	127
286.11551020408166	286.57990929705215	50	127
286.11551020408166	286.57990929705215	53	127
286.98625850340136	287.4506349206349	56	127
286.98625850340136	287.4506349206349	65	127
286.98625850340136	287.4506349206349	62	127
286.98625850340136	287.4506349206349	59	127
287.8570068027211	288.30979591836734	65	127
287.8570068027211	288.30979591836734	56	127
287.8570068027211	288.30979591836734	59	127
287.8570068027211	288.30979591836734	62	127
289.4591836734694	289.8655328798186	45	127
289.4591836734694	289.8655328798186	48	127
289.4591836734694	289.8655328798186	52	127
290.3067120181406	290.7362811791383	45	127
290.3067120181406	290.7362811791383	48	127
290.3067120181406	290.7362811791383	52	127
291.1774603174603	291.6766893424036	60	127
291.1774603174603	291.6766893424036	57	127
291.1774603174603	291.6766893424036	64	127
291.1774603174603	291.6766893424036	45	127
291.1774603174603	291.6766893424036	48	127
291.1774603174603	291.6766893424036	52	127
292.0365986394558	292.52421768707484	57	127
292.0365986394558	292.52421768707484	60	127
292.0365986394558	292.52421768707484	64	127
292.9073469387755	293.4181859410431	57	127
292.9073469387755	293.4181859410431	60	127
292.9073469387755	293.4181859410431	64	127
294.5327437641723	294.9507029478458	30	127
294.5327437641723	294.9507029478458	42	127
295.310612244898	295.7053514739229	30	127
295.310612244898	295.7053514739229	42	127
296.13492063492066	296.5760997732426	54	127
296.13492063492066	296.5760997732426	60	127
296.13492063492066	296.5760997732426	63	127
296.13492063492066	296.5760997732426	66	127
296.13492063492066	296.5760997732426	69	127
296.13492063492066	296.5760997732426	72	127
296.13492063492066	296.5760997732426	42	127
296.13492063492066	296.5760997732426	45	127
296.13492063492066	296.5760997732426	48	127
296.13492063492066	296.5760997732426	51	127
297.04049886621317	297.36557823129255	60	127
297.04049886621317	297.36557823129255	63	127
297.04049886621317	297.36557823129255	66	127
297.04049886621317	297.36557823129255	69	127
297.04049886621317	297.36557823129255	72	127
297.04049886621317	297.36557823129255	42	127
297.04049886621317	297.36557823129255	45	127
297.04049886621317	297.36557823129255	48	127
297.04049886621317	297.36557823129255	54	127
297.04049886621317	297.36557823129255	51	127
297.8415873015873	298.6310657596372	54	127
297.8415873015873	298.6310657596372	60	127
297.8415873015873	298.6310657596372	63	127
297.8415873015873	298.6310657596372	66	127
297.8415873015873	298.6310657596372	69	127
297.8415873015873	298.6310657596372	72	127
297.8415873015873	298.6310657596372	42	127
297.8415873015873	298.6310657596372	45	127
297.8415873015873	298.6310657596372	48	127
297.8415873015873	298.6310657596372	51	127
299.6527437641723	304.66825396825396	31	127
299.6527437641723	304.66825396825396	43	127
300.59315192743765	300.84854875283446	55	127
300.84854875283446	301.0575283446712	60	127
301.0575283446712	301.31297052154196	64	127
301.31297052154196	301.4755102040816	62	127
301.4755102040816	301.66124716553287	60	127
301.66124716553287	301.85863945578234	64	127
301.85863945578234	302.04439909297054	67	127
302.04439909297054	302.23015873015873	65	127
302.23015873015873	302.41591836734693	64	127
302.41591836734693	302.63650793650794	72	127
302.63650793650794	302.81065759637187	76	127
302.81065759637187	303.0196371882086	74	127
303.0196371882086	303.1821768707483	72	127
303.1821768707483	303.39115646258506	76	127
303.39115646258506	303.63496598639455	79	127
303.63496598639455	303.8671655328798	77	127
303.8671655328798	304.04131519274375	76	127
304.04131519274375	304.26190476190476	84	127
304.26190476190476	304.44766439909296	88	127
304.44766439909296	304.6334013605442	86	127
304.66825396825396	309.78825396825397	43	127
304.66825396825396	304.8307709750567	84	127
304.66825396825396	309.78825396825397	31	127
304.8307709750567	305.0165532879819	85	127
305.0165532879819	305.1907029478458	86	127
305.1907029478458	305.4112925170068	88	127
305.4112925170068	305.597052154195	89	127
305.597052154195	305.7944217687075	85	127
305.7944217687075	306.038231292517	86	127
306.038231292517	306.2704081632653	88	127
306.2704081632653	306.43297052154196	89	127
306.43297052154196	306.6767573696145	85	127
306.6767573696145	306.88573696145124	86	127
306.88573696145124	307.12956916099773	88	127
307.12956916099773	307.33854875283447	89	127
307.33854875283447	307.53591836734694	88	127
307.53591836734694	307.72167800453514	89	127
307.72167800453514	307.88421768707485	86	127
307.88421768707485	308.0815873015873	88	127
308.0815873015873	308.2789569160998	87	127
308.2789569160998	308.53437641723355	88	127
308.53437641723355	308.731746031746	84	127
308.731746031746	308.91750566893427	89	127
308.91750566893427	309.16131519274376	88	127
309.16131519274376	309.4399319727891	89	127
309.4399319727891	309.6373015873016	86	127
309.6837641723356	309.78825396825397	85	127
309.78825396825397	310.55448979591836	31	127
309.78825396825397	309.8462811791383	88	127
309.78825396825397	310.55448979591836	43	127
309.85791383219953	309.9159637188209	86	127
309.9159637188209	309.9972335600907	88	127
309.9972335600907	310.05526077097505	86	127
310.05526077097505	310.1365532879819	88	127
310.1365532879819	310.1946031746032	86	127
310.1946031746032	310.26426303854873	88	127
310.26426303854873	310.3107029478458	86	127
310.3107029478458	310.3571201814059	88	127
310.3571201814059	310.4151927437642	86	127
310.4151927437642	310.48485260770974	88	127
310.48485260770974	310.55448979591836	86	127
310.55448979591836	310.6357823129252	88	127
310.55448979591836	310.9956916099773	55	127
310.55448979591836	310.9956916099773	59	127
310.55448979591836	310.9956916099773	65	127
310.6357823129252	310.717052154195	86	127
310.717052154195	310.7867120181406	88	127
310.7867120181406	310.8563718820862	86	127
310.8563718820862	310.937641723356	88	127
310.937641723356	311.0073015873016	86	127
311.0073015873016	311.0769387755102	88	127
311.0769387755102	311.1001814058957	86	127
311.1001814058957	311.1698185941043	88	127
311.1698185941043	311.23950113378686	86	127
311.23950113378686	311.29755102040815	88	127
311.29755102040815	311.36721088435377	86	127
311.36721088435377	311.78514739229024	65	127
311.36721088435377	311.4368707482993	88	127
311.36721088435377	311.78514739229024	55	127
311.36721088435377	311.78514739229024	59	127
311.4368707482993	311.5065306122449	86	127
311.5065306122449	311.5761904761905	88	127
311.5761904761905	311.64585034013606	86	127
311.64585034013606	311.7155102040816	88	127
311.7155102040816	311.79678004535145	86	127
311.79678004535145	311.8548299319728	88	127
311.8548299319728	311.93609977324263	86	127
311.93609977324263	312.0057596371882	88	127
312.0057596371882	312.0754195011338	86	127
312.0754195011338	312.1334693877551	88	127
312.1334693877551	312.21473922902493	86	127
312.21473922902493	312.6326984126984	55	127
312.21473922902493	312.2727891156463	88	127
312.21473922902493	312.6326984126984	59	127
312.21473922902493	312.6326984126984	65	127
312.2727891156463	312.3540589569161	86	127
312.3540589569161	312.42371882086167	88	127
312.42371882086167	312.4933786848073	86	127
312.4933786848073	312.56303854875284	88	127
312.56303854875284	312.6443083900227	86	127
312.6443083900227	312.702335600907	88	127
312.702335600907	312.78362811791385	86	127
312.78362811791385	312.8532879818594	88	127
312.8532879818594	312.92294784580497	86	127
312.92294784580497	312.9926077097506	88	127
312.9926077097506	313.06226757369615	86	127
313.06226757369615	313.143537414966	88	127
313.06226757369615	313.51505668934243	55	127
313.06226757369615	313.51505668934243	65	127
313.06226757369615	313.51505668934243	59	127
313.143537414966	313.22478458049886	86	127
313.22478458049886	313.2944671201814	88	127
313.2944671201814	313.37573696145125	86	127
313.37573696145125	313.4453968253968	88	127
313.4453968253968	313.5266439909297	86	127
313.5266439909297	313.59632653061226	88	127
313.59632653061226	313.6659863945578	86	127
313.6659863945578	313.74725623582765	88	127
313.74725623582765	313.81691609977327	86	127
313.81691609977327	313.8981859410431	88	127
313.8981859410431	313.96784580498866	86	127
313.96784580498866	314.42063492063494	55	127
313.96784580498866	314.02589569161	88	127
313.96784580498866	314.42063492063494	65	127
313.96784580498866	314.42063492063494	59	127
314.02589569161	314.10716553287983	86	127
314.10716553287983	314.1768253968254	88	127
314.1768253968254	314.246462585034	86	127
314.246462585034	314.32775510204084	88	127
314.32775510204084	314.42063492063494	86	127
314.42063492063494	314.50190476190477	88	127
314.50190476190477	314.5831746031746	86	127
314.5831746031746	314.6760544217687	88	127
314.6760544217687	314.7457142857143	86	127
314.7457142857143	314.79215419501134	88	127
314.79215419501134	314.8501814058957	86	127
314.8501814058957	315.01274376417234	87	127
314.9430839002268	315.37265306122447	59	127
314.9430839002268	315.37265306122447	56	127
314.9430839002268	315.37265306122447	65	127
315.01274376417234	315.0824036281179	86	127
315.0824036281179	315.1636507936508	87	127
315.1636507936508	315.23333333333335	86	127
315.23333333333335	315.3029931972789	87	127
315.3029931972789	315.38426303854874	86	127
315.38426303854874	315.4423129251701	87	127
315.4423129251701	315.5003628117914	86	127
315.5003628117914	315.57	87	127
315.57	315.6512925170068	86	127
315.6512925170068	315.7209523809524	87	127
315.7209523809524	315.8022222222222	86	127
315.8022222222222	316.23179138321996	65	127
315.8022222222222	315.8486621315193	87	127
315.8022222222222	316.23179138321996	56	127
315.8022222222222	316.23179138321996	59	127
315.8486621315193	315.9299319727891	86	127
315.9299319727891	316.0228117913832	87	127
316.0228117913832	316.0924716553288	86	127
316.0924716553288	316.1505215419501	87	127
316.1505215419501	316.2434013605442	86	127
316.2434013605442	316.3014512471655	87	127
316.3014512471655	316.3943083900227	86	127
316.3943083900227	316.46399092970523	87	127
316.46399092970523	316.5336507936508	86	127
316.5336507936508	316.60331065759635	87	127
316.60331065759635	316.68458049886624	86	127
316.68458049886624	316.7542403628118	87	127
316.68458049886624	317.1257596371882	58	127
316.68458049886624	317.1257596371882	56	127
316.68458049886624	317.1257596371882	65	127
316.7542403628118	316.83551020408163	86	127
316.83551020408163	316.90514739229025	87	127
316.90514739229025	316.9748299319728	86	127
316.9748299319728	317.04448979591837	87	127
317.04448979591837	317.1257596371882	86	127
317.1257596371882	317.2070068027211	87	127
317.2070068027211	317.2999092970522	86	127
317.2999092970522	317.381179138322	87	127
317.381179138322	317.45083900226757	86	127
317.45083900226757	317.52049886621313	87	127
317.52049886621313	317.601768707483	86	127
317.601768707483	318.042947845805	58	127
317.601768707483	318.042947845805	56	127
317.601768707483	317.68303854875285	87	127
317.601768707483	318.042947845805	65	127
317.68303854875285	317.7643083900227	86	127
317.7643083900227	317.83396825396824	87	127
317.83396825396824	317.90362811791385	86	127
317.90362811791385	317.9732879818594	87	127
317.9732879818594	318.042947845805	86	127
318.042947845805	318.1126077097506	87	127
318.1126077097506	318.18226757369615	86	127
318.18226757369615	318.263537414966	87	127
318.263537414966	318.3331746031746	86	127
318.3331746031746	318.3912471655329	87	127
318.3912471655329	318.46090702947845	86	127
318.46090702947845	318.53054421768707	87	127
318.46090702947845	318.8904761904762	65	127
318.46090702947845	318.8904761904762	58	127
318.46090702947845	318.8904761904762	56	127
318.53054421768707	318.6002267573696	86	127
318.6002267573696	318.68149659863946	87	127
318.68149659863946	318.751156462585	86	127
318.751156462585	318.82081632653063	87	127
318.82081632653063	318.90208616780046	86	127
318.90208616780046	318.971746031746	87	127
318.971746031746	319.0529931972789	86	127
319.0529931972789	319.12267573696147	87	127
319.12267573696147	319.2039455782313	86	127
319.2039455782313	319.27360544217686	87	127
319.27360544217686	319.35485260770974	86	127
319.35485260770974	319.8424943310658	58	127
319.35485260770974	319.4245351473923	87	127
319.35485260770974	319.8424943310658	56	127
319.35485260770974	319.8424943310658	65	127
319.4245351473923	319.50580498866213	86	127
319.50580498866213	319.59868480725623	87	127
319.59868480725623	319.67995464852606	86	127
319.67995464852606	319.76120181405895	87	127
319.76120181405895	319.85410430839005	86	127
319.85410430839005	319.9353741496599	87	127
319.9353741496599	320.0166439909297	86	127
320.0166439909297	320.1211337868481	87	127
320.1211337868481	320.2140136054422	86	127
320.2140136054422	320.3301133786848	84	127
320.3301133786848	320.41138321995464	86	127
320.4229931972789	320.8641723356009	58	127
320.4229931972789	320.8641723356009	55	127
320.4229931972789	322.1528798185941	87	127
320.4229931972789	320.8641723356009	63	127
321.38662131519277	321.8858503401361	63	127
321.38662131519277	321.8858503401361	55	127
321.38662131519277	321.8858503401361	58	127
322.1528798185941	322.6521088435374	58	127
322.1528798185941	322.6521088435374	55	127
322.1528798185941	322.6521088435374	63	127
322.9771882086168	323.44156462585033	58	127
322.9771882086168	323.44156462585033	55	127
322.9771882086168	323.44156462585033	63	127
323.8827664399093	324.3239455782313	55	127
323.8827664399093	324.3239455782313	58	127
323.8827664399093	324.3239455782313	63	127
324.70707482993197	325.1714739229025	58	127
324.70707482993197	325.1714739229025	63	127
324.70707482993197	325.1714739229025	55	127
325.5778231292517	326.07705215419503	53	127
325.5778231292517	326.07705215419503	56	127
325.5778231292517	326.07705215419503	59	127
325.5778231292517	326.07705215419503	62	127
325.5778231292517	327.4586394557823	80	127
325.5778231292517	327.4586394557823	68	127
326.61108843537414	327.02907029478456	56	127
326.61108843537414	327.02907029478456	53	127
326.61108843537414	327.02907029478456	59	127
326.61108843537414	327.02907029478456	62	127
327.4586394557823	327.88820861678005	53	127
327.4586394557823	327.88820861678005	56	127
327.4586394557823	327.88820861678005	59	127
327.4586394557823	327.88820861678005	62	127
327.4586394557823	329.30462585034013	65	127
327.4586394557823	329.30462585034013	77	127
328.4454875283447	328.8982766439909	59	127
328.4454875283447	328.8982766439909	62	127
328.4454875283447	328.8982766439909	53	127
328.4454875283447	328.8982766439909	56	127
329.30462585034013	329.7225850340136	56	127
329.30462585034013	329.7225850340136	53	127
329.30462585034013	329.7225850340136	59	127
329.30462585034013	330.99968253968257	62	127
329.30462585034013	330.99968253968257	74	127
330.09408163265306	330.65138321995465	59	127
330.09408163265306	330.65138321995465	53	127
330.09408163265306	330.65138321995465	56	127
331.09256235827667	331.5337414965986	54	127
331.09256235827667	331.5337414965986	57	127
331.09256235827667	331.5337414965986	51	127
331.5337414965986	331.75433106575963	60	127
331.75433106575963	331.91687074829935	66	127
331.91687074829935	332.3928798185941	51	127
331.91687074829935	332.3928798185941	54	127
331.91687074829935	332.3928798185941	57	127
331.91687074829935	332.19551020408164	72	127
332.19551020408164	332.3928798185941	60	127
332.3928798185941	332.60185941043085	66	127
332.60185941043085	332.7643990929705	72	127
332.7992290249433	333.28684807256235	48	127
332.7992290249433	333.28684807256235	51	127
332.7992290249433	333.28684807256235	54	127
333.28684807256235	333.4958276643991	57	127
333.4958276643991	333.6699546485261	63	127
333.6699546485261	333.85573696145127	69	127
333.6699546485261	334.05310657596374	51	127
333.6699546485261	334.05310657596374	54	127
333.6699546485261	334.05310657596374	48	127
333.85573696145127	334.064716553288	57	127
334.064716553288	334.27367346938775	63	127
334.27367346938775	334.4478458049887	69	127
334.4942857142857	334.99349206349206	45	127
334.4942857142857	334.99349206349206	48	127
335.00512471655327	335.2257142857143	54	127
335.2257142857143	335.4463038548753	60	127
335.4463038548753	335.7481632653061	66	127
335.4463038548753	336.00358276643993	48	127
335.4463038548753	336.00358276643993	45	127
335.7481632653061	336.0151700680272	54	127
336.0151700680272	336.22414965986394	60	127
336.22414965986394	336.3867120181406	66	127
336.4331292517007	336.87433106575963	44	127
336.4331292517007	336.87433106575963	48	127
336.8859410430839	337.09492063492064	53	127
337.09492063492064	337.3039002267574	60	127
337.3039002267574	337.6986394557823	44	127
337.3039002267574	337.6986394557823	48	127
337.3039002267574	337.50126984126985	65	127
337.50126984126985	337.7102494331066	53	127
337.7102494331066	337.9308390022676	60	127
337.9308390022676	338.081768707483	65	127
338.1165986394558	338.5577777777778	31	127
338.1165986394558	338.5577777777778	43	127
338.56936507936507	338.76675736961454	53	127
338.76675736961454	338.98732426303854	59	127
338.98732426303854	339.40530612244896	31	127
338.98732426303854	339.40530612244896	43	127
338.98732426303854	339.1963265306122	62	127
339.1963265306122	339.40530612244896	53	127
339.40530612244896	339.62589569160997	59	127
339.62589569160997	339.80002267573695	62	127
339.846485260771	340.32249433106574	31	127
339.846485260771	340.32249433106574	43	127
340.33410430839	340.5663038548753	50	127
340.5663038548753	340.79850340136056	53	127
340.79850340136056	341.0539229024943	59	127
340.79850340136056	341.26290249433106	31	127
340.79850340136056	341.26290249433106	43	127
341.0539229024943	341.2745124716553	50	127
341.2745124716553	341.5183219954649	53	127
341.5183219954649	341.7040816326531	59	127
341.76213151927436	343.43396825396826	52	127
341.76213151927436	343.43396825396826	60	127
341.76213151927436	347.52068027210885	36	127
342.54	342.96954648526076	48	127
343.43396825396826	343.93319727891156	48	127
344.6414058956916	345.1754648526077	64	127
344.6414058956916	345.1754648526077	67	127
344.6414058956916	345.1754648526077	48	127
344.6414058956916	345.1754648526077	55	127
345.674693877551	346.1390702947846	59	127
345.674693877551	346.1390702947846	62	127
345.674693877551	346.1390702947846	65	127
345.674693877551	346.1390702947846	48	127
345.674693877551	346.1390702947846	55	127
346.5454195011338	347.07950113378683	48	127
346.5454195011338	346.98662131519274	62	127
346.5454195011338	346.98662131519274	65	127
346.5454195011338	346.98662131519274	59	127
346.5454195011338	346.98662131519274	55	127
347.52068027210885	349.2273469387755	60	127
347.52068027210885	349.2273469387755	64	127
347.52068027210885	349.2273469387755	55	127
347.96185941043086	348.36820861678007	48	127
348.36820861678007	348.78616780045354	47	127
348.78616780045354	349.2273469387755	48	127
349.2273469387755	349.7265759637188	47	127
349.7265759637188	350.1793650793651	48	127
350.1793650793651	350.6205442176871	55	127
350.1793650793651	350.6205442176871	64	127
350.1793650793651	350.6205442176871	67	127
350.1793650793651	350.6205442176871	47	127
350.6205442176871	351.5261224489796	48	127
351.0849433106576	351.5261224489796	36	127
351.0849433106576	351.5261224489796	65	127
351.0849433106576	351.5261224489796	55	127
351.0849433106576	351.5261224489796	59	127
351.0849433106576	351.5261224489796	62	127
352.0369614512472	352.4317006802721	55	127
352.0369614512472	352.4317006802721	59	127
352.0369614512472	352.4317006802721	62	127
352.0369614512472	352.4317006802721	65	127
352.0369614512472	352.5361904761905	36	127
352.0369614512472	352.5361904761905	48	127
353.04702947845806	353.54625850340136	60	127
353.04702947845806	353.54625850340136	64	127
353.04702947845806	353.54625850340136	55	127
353.04702947845806	353.54625850340136	48	127
353.04702947845806	353.54625850340136	36	127
353.54625850340136	353.9874376417234	67	127
353.54625850340136	353.9874376417234	76	127
353.9874376417234	354.4402267573696	75	127
353.9874376417234	354.4402267573696	66	127
354.4402267573696	354.8814058956916	76	127
354.4402267573696	354.8814058956916	67	127
354.8814058956916	355.12521541950116	75	127
354.8814058956916	355.12521541950116	66	127
355.12521541950116	355.3225850340136	76	127
355.12521541950116	355.3225850340136	67	127
355.3225850340136	355.49673469387756	66	127
355.3225850340136	355.49673469387756	75	127
355.49673469387756	355.72893424036283	67	127
355.49673469387756	355.72893424036283	76	127
355.72893424036283	355.91469387755103	75	127
355.72893424036283	355.91469387755103	66	127
355.91469387755103	356.2049433106576	76	127
355.91469387755103	356.2049433106576	67	127
356.2049433106576	356.4603401360544	77	127
356.2049433106576	356.4603401360544	69	127
356.4603401360544	356.6461224489796	76	127
356.4603401360544	356.6461224489796	67	127
356.68095238095236	357.38913832199546	55	127
356.68095238095236	357.4007709750567	67	127
356.68095238095236	357.4007709750567	76	127
357.4007709750567	357.9580498866213	65	127
357.4007709750567	357.9580498866213	74	127
357.9580498866213	358.71267573696144	64	127
357.9580498866213	358.4340589569161	43	127
357.9580498866213	358.71267573696144	73	127
358.71267573696144	359.3860770975057	74	127
358.71267573696144	359.3860770975057	65	127
359.49056689342405	361.97510204081635	43	127
359.49056689342405	361.97510204081635	62	127
359.49056689342405	361.97510204081635	65	127
359.49056689342405	361.97510204081635	74	127
359.49056689342405	363.43795918367346	36	127
361.97510204081635	363.43795918367346	64	127
361.97510204081635	363.43795918367346	72	127
361.97510204081635	363.43795918367346	60	127
361.97510204081635	363.43795918367346	48	127
