# onset,offset,note,velocity
0.045668934240362814	0.6609977324263039	58	127
0.8003174603174603	1.009297052154195	58	127
1.1370068027210884	1.5665759637188208	55	127
1.1370068027210884	1.5665759637188208	39	127
1.1370068027210884	1.5665759637188208	63	127
1.1370068027210884	1.5665759637188208	51	127
1.1370068027210884	1.5665759637188208	58	127
1.5665759637188208	1.7058956916099772	58	127
1.8219954648526078	1.938095238095238	58	127
2.089024943310658	2.6463038548752835	58	127
2.089024943310658	2.6463038548752835	62	127
2.089024943310658	2.6463038548752835	46	127
2.089024943310658	2.6463038548752835	34	127
2.089024943310658	2.6463038548752835	65	127
2.6463038548752835	2.750793650793651	58	127
2.8436734693877552	2.9365306122448978	58	127
3.0294331065759637	3.157142857142857	51	127
3.0294331065759637	3.157142857142857	58	127
3.0294331065759637	3.157142857142857	63	127
3.0294331065759637	3.157142857142857	67	127
3.2616326530612243	3.377732426303855	63	127
3.2616326530612243	3.377732426303855	51	127
3.2616326530612243	3.377732426303855	58	127
3.2616326530612243	3.377732426303855	67	127
3.4706122448979593	3.5867120181405894	48	127
3.4706122448979593	3.679591836734694	67	127
3.4706122448979593	3.5867120181405894	60	127
3.4706122448979593	3.5867120181405894	63	127
3.679591836734694	3.7956916099773244	44	127
3.679591836734694	3.7956916099773244	70	127
3.679591836734694	3.7724716553287982	60	127
3.679591836734694	3.7724716553287982	65	127
3.7956916099773244	3.8421315192743766	68	127
3.8653514739229027	4.074308390022676	63	127
3.8653514739229027	4.074308390022676	67	127
3.8653514739229027	4.190430839002268	58	127
3.8653514739229027	4.271700680272109	46	127
4.074308390022676	4.225260770975057	62	127
4.074308390022676	4.225260770975057	65	127
4.271700680272109	4.387800453514739	70	127
4.4806802721088435	4.608390022675737	70	127
4.759319727891157	5.2004761904761905	46	127
4.759319727891157	5.2004761904761905	75	127
4.759319727891157	5.2004761904761905	43	127
4.759319727891157	5.2004761904761905	55	127
4.759319727891157	5.2004761904761905	51	127
4.759319727891157	5.2004761904761905	67	127
4.759319727891157	5.2004761904761905	70	127
4.759319727891157	5.2004761904761905	63	127
5.2004761904761905	5.304988662131519	67	127
5.421065759637188	5.560408163265306	67	127
5.676507936507937	6.164126984126984	48	127
5.676507936507937	6.164126984126984	60	127
5.676507936507937	6.164126984126984	65	127
5.676507936507937	6.164126984126984	68	127
5.676507936507937	6.164126984126984	72	127
5.676507936507937	6.164126984126984	44	127
5.676507936507937	6.164126984126984	53	127
5.676507936507937	6.164126984126984	56	127
6.164126984126984	6.233786848072563	65	127
6.3382766439909295	6.4543764172335605	65	127
6.570476190476191	7.046485260770975	51	127
6.570476190476191	7.046485260770975	46	127
6.570476190476191	6.802675736961452	70	127
6.570476190476191	7.046485260770975	55	127
6.802675736961452	6.930385487528345	67	127
6.930385487528345	7.023265306122449	63	127
7.046485260770975	7.487664399092971	56	127
7.046485260770975	7.278684807256236	68	127
7.046485260770975	7.487664399092971	46	127
7.046485260770975	7.487664399092971	53	127
7.278684807256236	7.383174603174603	65	127
7.383174603174603	7.4760544217687075	62	127
7.487664399092971	7.963673469387755	51	127
7.487664399092971	7.963673469387755	55	127
7.487664399092971	7.963673469387755	63	127
7.487664399092971	7.963673469387755	39	127
8.381632653061224	8.486122448979591	39	127
8.381632653061224	8.486122448979591	55	127
8.486122448979591	8.59061224489796	58	127
8.59061224489796	8.718321995464853	51	127
8.59061224489796	8.718321995464853	63	127
8.718321995464853	8.857641723356009	58	127
8.857641723356009	8.97374149659864	55	127
8.97374149659864	9.078231292517007	58	127
9.078231292517007	9.171111111111111	55	127
9.078231292517007	9.171111111111111	51	127
9.171111111111111	9.275600907029478	58	127
9.275600907029478	9.368480725623582	50	127
9.275600907029478	9.380090702947847	56	127
9.380090702947847	9.484580498866213	58	127
9.484580498866213	9.58907029478458	56	127
9.484580498866213	9.58907029478458	48	127
9.58907029478458	9.705170068027211	58	127
9.705170068027211	9.856099773242631	56	127
9.705170068027211	9.856099773242631	46	127
9.856099773242631	9.948956916099773	58	127
9.948956916099773	10.041836734693877	44	127
9.948956916099773	10.041836734693877	62	127
10.041836734693877	10.146349206349207	58	127
10.146349206349207	10.262448979591836	63	127
10.146349206349207	10.262448979591836	43	127
10.262448979591836	10.378548752834467	58	127
10.378548752834467	10.494648526077098	63	127
10.378548752834467	10.494648526077098	41	127
10.494648526077098	10.575918367346938	58	127
10.575918367346938	10.668798185941043	39	127
10.575918367346938	10.668798185941043	63	127
10.668798185941043	10.784897959183674	58	127
10.784897959183674	10.900975056689342	44	127
10.784897959183674	10.900975056689342	65	127
10.900975056689342	10.982267573696145	60	127
10.982267573696145	11.098367346938776	63	127
10.982267573696145	11.214444444444444	46	127
11.098367346938776	11.214444444444444	58	127
11.214444444444444	11.365396825396825	34	127
11.214444444444444	11.30734693877551	62	127
11.30734693877551	11.400226757369614	58	127
11.400226757369614	11.504716553287983	46	127
11.400226757369614	11.504716553287983	62	127
11.504716553287983	11.597573696145124	58	127
11.597573696145124	11.702086167800454	44	127
11.597573696145124	11.713696145124716	62	127
11.713696145124716	11.84140589569161	58	127
11.84140589569161	11.945895691609977	43	127
11.84140589569161	11.95750566893424	63	127
11.95750566893424	12.050385487528345	58	127
12.050385487528345	12.166485260770974	55	127
12.050385487528345	12.166485260770974	39	127
12.166485260770974	12.282585034013605	58	127
12.282585034013605	12.398684807256236	34	127
12.282585034013605	12.398684807256236	63	127
12.398684807256236	12.503174603174603	58	127
12.503174603174603	12.619274376417234	31	127
12.503174603174603	12.619274376417234	63	127
12.619274376417234	12.735374149659863	58	127
12.735374149659863	12.851473922902494	32	127
12.735374149659863	12.851473922902494	63	127
12.851473922902494	12.979183673469388	60	127
12.979183673469388	13.095283446712019	36	127
12.979183673469388	13.095283446712019	63	127
13.095283446712019	13.199773242630386	60	127
13.199773242630386	13.315873015873017	41	127
13.199773242630386	13.315873015873017	63	127
13.315873015873017	13.431972789115646	60	127
13.431972789115646	13.52485260770975	44	127
13.431972789115646	13.52485260770975	63	127
13.52485260770975	13.640952380952381	60	127
13.640952380952381	13.745442176870748	63	127
13.640952380952381	13.733832199546486	34	127
13.745442176870748	13.861541950113379	55	127
13.861541950113379	13.954421768707483	58	127
13.861541950113379	13.954421768707483	46	127
13.954421768707483	14.047301587301588	55	127
14.047301587301588	14.140181405895692	62	127
14.047301587301588	14.140181405895692	34	127
14.140181405895692	14.256281179138321	56	127
14.256281179138321	14.372380952380952	58	127
14.256281179138321	14.372380952380952	46	127
14.372380952380952	14.488480725623583	56	127
14.488480725623583	14.97609977324263	58	127
14.488480725623583	14.97609977324263	55	127
14.488480725623583	14.97609977324263	63	127
14.488480725623583	14.97609977324263	39	127
14.488480725623583	14.97609977324263	51	127
14.97609977324263	15.092199546485261	82	127
15.092199546485261	15.185079365079366	80	127
15.20829931972789	15.301179138321995	79	127
15.301179138321995	15.3940589569161	77	127
15.417278911564626	15.51015873015873	75	127
15.51015873015873	15.579818594104308	74	127
15.59142857142857	15.69591836734694	72	127
15.69591836734694	15.788798185941044	70	127
15.812018140589569	15.89328798185941	58	127
15.812018140589569	15.89328798185941	65	127
15.812018140589569	15.89328798185941	70	127
15.812018140589569	15.89328798185941	56	127
15.812018140589569	15.89328798185941	62	127
15.962947845804988	16.067437641723355	58	127
15.962947845804988	16.067437641723355	65	127
15.962947845804988	16.067437641723355	70	127
15.962947845804988	16.067437641723355	56	127
15.962947845804988	16.067437641723355	62	127
16.183537414965986	16.69437641723356	63	127
16.183537414965986	16.241587301587302	72	127
16.183537414965986	16.69437641723356	55	127
16.183537414965986	16.69437641723356	58	127
16.241587301587302	16.299637188208617	70	127
16.299637188208617	16.380907029478458	69	127
16.380907029478458	16.438956916099773	70	127
16.438956916099773	16.647936507936507	75	127
16.69437641723356	16.81047619047619	70	127
16.9962358276644	17.123945578231293	70	127
17.240045351473924	17.49546485260771	56	127
17.240045351473924	17.49546485260771	70	127
17.240045351473924	17.49546485260771	53	127
17.240045351473924	17.49546485260771	58	127
17.240045351473924	17.49546485260771	62	127
17.49546485260771	17.65800453514739	77	127
17.704444444444444	17.913424036281178	58	127
17.704444444444444	17.913424036281178	70	127
17.704444444444444	17.913424036281178	51	127
17.704444444444444	17.913424036281178	55	127
17.913424036281178	18.087573696145125	79	127
18.134013605442178	18.401043083900227	53	127
18.134013605442178	18.401043083900227	59	127
18.134013605442178	18.401043083900227	71	127
18.134013605442178	18.401043083900227	50	127
18.134013605442178	18.401043083900227	56	127
18.401043083900227	18.61002267573696	80	127
19.1324716553288	19.538820861678005	41	127
19.1324716553288	19.538820861678005	53	127
19.341451247165534	19.434331065759636	55	127
19.341451247165534	19.434331065759636	59	127
19.341451247165534	19.434331065759636	62	127
19.341451247165534	19.434331065759636	67	127
19.538820861678005	19.608480725623583	55	127
19.538820861678005	19.608480725623583	59	127
19.538820861678005	19.608480725623583	67	127
19.538820861678005	19.608480725623583	62	127
19.724580498866214	19.817460317460316	55	127
19.724580498866214	19.817460317460316	59	127
19.724580498866214	19.817460317460316	62	127
19.724580498866214	19.817460317460316	67	127
19.921950113378685	20.36312925170068	39	127
19.921950113378685	20.36312925170068	51	127
20.154149659863947	20.36312925170068	55	127
20.154149659863947	20.36312925170068	60	127
20.154149659863947	20.36312925170068	67	127
20.36312925170068	20.839115646258502	38	127
20.36312925170068	20.839115646258502	50	127
20.595328798185943	20.839115646258502	55	127
20.595328798185943	20.839115646258502	59	127
20.595328798185943	20.839115646258502	62	127
20.595328798185943	20.839115646258502	67	127
20.839115646258502	21.31514739229025	36	127
20.839115646258502	21.31514739229025	48	127
21.082947845804988	21.31514739229025	67	127
21.082947845804988	21.31514739229025	63	127
21.082947845804988	21.31514739229025	55	127
21.31514739229025	21.79113378684807	29	127
21.31514739229025	21.79113378684807	41	127
21.524126984126983	21.79113378684807	69	127
21.524126984126983	21.79113378684807	63	127
21.524126984126983	21.79113378684807	57	127
21.79113378684807	21.918843537414965	46	127
21.918843537414965	22.034965986394557	53	127
22.034965986394557	22.151065759637188	50	127
22.034965986394557	22.151065759637188	77	127
22.151065759637188	22.255555555555556	53	127
22.255555555555556	22.371655328798187	46	127
22.255555555555556	22.84766439909297	89	127
22.371655328798187	22.452925170068028	53	127
22.452925170068028	22.557414965986396	50	127
22.557414965986396	22.673514739229024	53	127
22.673514739229024	22.84766439909297	51	127
22.84766439909297	22.975374149659864	53	127
22.84766439909297	22.975374149659864	87	127
22.975374149659864	23.11469387755102	84	127
22.975374149659864	23.11469387755102	45	127
23.11469387755102	23.207573696145126	81	127
23.11469387755102	23.207573696145126	53	127
23.207573696145126	23.31204081632653	77	127
23.207573696145126	23.31204081632653	48	127
23.31204081632653	23.42816326530612	75	127
23.31204081632653	23.42816326530612	53	127
23.42816326530612	23.544263038548753	72	127
23.42816326530612	23.544263038548753	51	127
23.544263038548753	23.625532879818593	69	127
23.544263038548753	23.64875283446712	53	127
23.64875283446712	23.753242630385486	50	127
23.64875283446712	23.857732426303855	70	127
23.753242630385486	23.857732426303855	53	127
23.857732426303855	23.973832199546486	46	127
23.973832199546486	24.07832199546485	53	127
24.07832199546485	24.194421768707482	50	127
24.194421768707482	24.33374149659864	53	127
24.33374149659864	24.44984126984127	46	127
24.44984126984127	24.5659410430839	53	127
24.5659410430839	24.68204081632653	41	127
24.68204081632653	24.809750566893424	53	127
24.809750566893424	24.914240362811793	45	127
24.914240362811793	25.007120181405895	53	127
25.007120181405895	25.1	48	127
25.1	25.192879818594104	53	127
25.192879818594104	25.308979591836735	51	127
25.308979591836735	25.425079365079366	53	127
25.425079365079366	25.55278911564626	50	127
25.55278911564626	25.657278911564624	53	127
25.657278911564624	25.761768707482993	77	127
25.657278911564624	25.761768707482993	46	127
25.761768707482993	25.877868480725624	53	127
25.877868480725624	26.005578231292517	50	127
25.877868480725624	26.411927437641722	89	127
26.005578231292517	26.12167800453515	53	127
26.12167800453515	26.20294784580499	46	127
26.20294784580499	26.29582766439909	53	127
26.29582766439909	26.411927437641722	51	127
26.411927437641722	26.539637188208616	87	127
26.411927437641722	26.539637188208616	53	127
26.539637188208616	26.7021768707483	45	127
26.539637188208616	26.7021768707483	84	127
26.7021768707483	26.81827664399093	81	127
26.7021768707483	26.81827664399093	53	127
26.81827664399093	26.934376417233562	77	127
26.81827664399093	26.934376417233562	48	127
26.934376417233562	27.05047619047619	75	127
26.934376417233562	27.05047619047619	53	127
27.05047619047619	27.178185941043083	72	127
27.05047619047619	27.178185941043083	51	127
27.178185941043083	27.27106575963719	69	127
27.178185941043083	27.294285714285714	53	127
27.294285714285714	27.38716553287982	50	127
27.294285714285714	27.480045351473922	70	127
27.38716553287982	27.480045351473922	53	127
27.480045351473922	27.561315192743763	46	127
27.561315192743763	27.65419501133787	53	127
27.65419501133787	27.781904761904762	50	127
27.781904761904762	27.898004535147393	53	127
27.898004535147393	28.014104308390024	46	127
28.014104308390024	28.13020408163265	53	127
28.13020408163265	28.246303854875283	50	127
28.246303854875283	28.362403628117914	53	127
28.362403628117914	28.50172335600907	46	127
28.50172335600907	28.6178231292517	50	127
28.6178231292517	28.757142857142856	70	127
28.6178231292517	28.757142857142856	48	127
28.757142857142856	28.850022675736962	51	127
28.850022675736962	28.942902494331065	70	127
28.850022675736962	28.942902494331065	50	127
28.942902494331065	29.07061224489796	53	127
29.07061224489796	29.18671201814059	51	127
29.07061224489796	29.48857142857143	75	127
29.18671201814059	29.30281179138322	55	127
29.30281179138322	29.38408163265306	58	127
29.38408163265306	29.48857142857143	56	127
29.48857142857143	29.60467120181406	70	127
29.48857142857143	29.60467120181406	55	127
29.60467120181406	29.743990929705216	54	127
29.743990929705216	29.87170068027211	70	127
29.743990929705216	29.87170068027211	55	127
29.87170068027211	29.999410430839003	51	127
29.999410430839003	30.127120181405896	50	127
29.999410430839003	30.475419501133786	77	127
30.127120181405896	30.25482993197279	51	127
30.25482993197279	30.37092970521542	53	127
30.37092970521542	30.475419501133786	51	127
30.475419501133786	30.60312925170068	70	127
30.475419501133786	30.614739229024945	50	127
30.614739229024945	30.71922902494331	48	127
30.71922902494331	30.83532879818594	70	127
30.71922902494331	30.83532879818594	46	127
30.83532879818594	30.963038548752834	44	127
30.963038548752834	31.055918367346937	79	127
30.963038548752834	31.055918367346937	43	127
31.055918367346937	31.172018140589568	41	127
31.172018140589568	31.2881179138322	79	127
31.172018140589568	31.2881179138322	39	127
31.2881179138322	31.40421768707483	38	127
31.40421768707483	31.52031746031746	36	127
31.40421768707483	31.624807256235826	79	127
31.52031746031746	31.624807256235826	35	127
31.624807256235826	31.740907029478457	82	127
31.624807256235826	31.740907029478457	36	127
31.740907029478457	31.833786848072563	80	127
31.740907029478457	31.857006802721088	32	127
31.857006802721088	31.97310657596372	34	127
31.857006802721088	32.07759637188209	79	127
31.97310657596372	32.07759637188209	38	127
32.07759637188209	32.19369614512472	41	127
32.07759637188209	32.24013605442177	77	127
32.19369614512472	32.28655328798186	46	127
32.28655328798186	32.379455782312924	82	127
32.28655328798186	32.379455782312924	45	127
32.379455782312924	32.50716553287982	46	127
32.50716553287982	32.60004535147392	82	127
32.50716553287982	32.60004535147392	44	127
32.60004535147392	32.716145124716554	46	127
32.716145124716554	32.832244897959185	43	127
32.716145124716554	33.19215419501134	87	127
32.832244897959185	32.948344671201816	51	127
32.948344671201816	33.06444444444445	46	127
33.06444444444445	33.19215419501134	43	127
33.19215419501134	33.28503401360544	79	127
33.19215419501134	33.296621315192745	39	127
33.296621315192745	33.38952380952381	46	127
33.38952380952381	33.5172335600907	79	127
33.38952380952381	33.5172335600907	43	127
33.5172335600907	33.65655328798186	39	127
33.65655328798186	33.79587301587301	44	127
33.65655328798186	34.144172335600906	84	127
33.79587301587301	33.911972789115644	51	127
33.911972789115644	34.028072562358275	43	127
34.028072562358275	34.144172335600906	51	127
34.144172335600906	34.26027210884354	77	127
34.144172335600906	34.26027210884354	44	127
34.26027210884354	34.37637188208617	51	127
34.37637188208617	34.48086167800454	77	127
34.37637188208617	34.48086167800454	45	127
34.48086167800454	34.59696145124717	51	127
34.59696145124717	34.7130612244898	46	127
34.59696145124717	34.8175283446712	82	127
34.7130612244898	34.8175283446712	51	127
34.8175283446712	34.92204081632653	79	127
34.8175283446712	34.92204081632653	55	127
34.92204081632653	35.014920634920635	75	127
34.92204081632653	35.03814058956916	58	127
35.03814058956916	35.15424036281179	46	127
35.03814058956916	35.27034013605442	80	127
35.15424036281179	35.27034013605442	53	127
35.27034013605442	35.398049886621315	77	127
35.27034013605442	35.398049886621315	56	127
35.398049886621315	35.47931972789116	74	127
35.398049886621315	35.502539682539684	58	127
35.502539682539684	35.8740589569161	75	127
35.502539682539684	35.8740589569161	51	127
35.502539682539684	35.8740589569161	55	127
35.99015873015873	36.083015873015874	55	127
35.99015873015873	36.083015873015874	31	127
35.99015873015873	36.083015873015874	43	127
36.21072562358277	36.30362811791383	55	127
36.21072562358277	36.30362811791383	31	127
36.21072562358277	36.30362811791383	43	127
36.4081179138322	37.3485260770975	56	127
36.4081179138322	37.3485260770975	32	127
36.4081179138322	37.3485260770975	44	127
37.3485260770975	37.52267573696145	55	127
37.3485260770975	37.52267573696145	31	127
37.3485260770975	37.52267573696145	43	127
37.60394557823129	37.74324263038549	71	127
37.74324263038549	37.87095238095238	83	127
37.87095238095238	37.963854875283445	72	127
37.963854875283445	38.079954648526076	84	127
38.079954648526076	38.17283446712018	74	127
38.17283446712018	38.28893424036281	86	127
38.28893424036281	38.381791383219955	75	127
38.28893424036281	38.48630385487528	43	127
38.28893424036281	38.48630385487528	55	127
38.381791383219955	38.48630385487528	87	127
38.48630385487528	38.60240362811791	77	127
38.60240362811791	38.71850340136054	89	127
38.71850340136054	38.81138321995465	75	127
38.71850340136054	38.881020408163266	43	127
38.71850340136054	38.881020408163266	55	127
38.81138321995465	38.881020408163266	87	127
38.881020408163266	38.997142857142855	74	127
38.997142857142855	39.09002267573696	86	127
39.09002267573696	39.19451247165533	48	127
39.09002267573696	39.19451247165533	60	127
39.09002267573696	39.20612244897959	75	127
39.20612244897959	39.32222222222222	87	127
39.32222222222222	39.41510204081633	72	127
39.41510204081633	39.51956916099773	84	127
39.51956916099773	39.62408163265306	55	127
39.51956916099773	39.62408163265306	31	127
39.51956916099773	39.62408163265306	43	127
39.77498866213152	39.89108843537415	55	127
39.77498866213152	39.89108843537415	31	127
39.77498866213152	39.89108843537415	43	127
40.018798185941044	40.93600907029479	57	127
40.018798185941044	40.93600907029479	33	127
40.018798185941044	40.93600907029479	45	127
40.93600907029479	41.133378684807255	58	127
40.93600907029479	41.133378684807255	34	127
40.93600907029479	41.133378684807255	46	127
41.17981859410431	41.31913832199547	69	127
41.31913832199547	41.42360544217687	81	127
41.42360544217687	41.5281179138322	70	127
41.5281179138322	41.64421768707483	82	127
41.64421768707483	41.72548752834467	72	127
41.72548752834467	41.8415873015873	84	127
41.8415873015873	41.94607709750567	74	127
41.8415873015873	42.0621768707483	41	127
41.8415873015873	42.0621768707483	53	127
41.94607709750567	42.0621768707483	86	127
42.0621768707483	42.189886621315196	75	127
42.189886621315196	42.29437641723356	87	127
42.29437641723356	42.387256235827664	74	127
42.29437641723356	42.49174603174603	41	127
42.29437641723356	42.49174603174603	53	127
42.387256235827664	42.49174603174603	86	127
42.49174603174603	42.5962358276644	72	127
42.5962358276644	42.74716553287982	84	127
42.74716553287982	42.85165532879819	46	127
42.74716553287982	42.85165532879819	58	127
42.74716553287982	42.85165532879819	74	127
42.85165532879819	42.97936507936508	86	127
42.97936507936508	43.09546485260771	70	127
43.09546485260771	43.21156462585034	82	127
43.21156462585034	43.32764172335601	57	127
43.21156462585034	43.32764172335601	33	127
43.21156462585034	43.32764172335601	45	127
43.42054421768707	43.51342403628118	57	127
43.42054421768707	43.51342403628118	33	127
43.42054421768707	43.51342403628118	45	127
43.61791383219955	44.08229024943311	58	127
43.61791383219955	44.08229024943311	34	127
43.61791383219955	44.08229024943311	46	127
44.08229024943311	44.18680272108843	59	127
44.08229024943311	44.18680272108843	35	127
44.08229024943311	44.18680272108843	47	127
44.302902494331065	44.39578231292517	59	127
44.302902494331065	44.39578231292517	35	127
44.302902494331065	44.39578231292517	47	127
44.5118820861678	44.92984126984127	60	127
44.5118820861678	44.92984126984127	36	127
44.5118820861678	44.92984126984127	48	127
44.92984126984127	45.03433106575964	61	127
44.92984126984127	45.03433106575964	37	127
44.92984126984127	45.03433106575964	49	127
45.103968253968254	45.220068027210885	61	127
45.103968253968254	45.220068027210885	37	127
45.103968253968254	45.220068027210885	49	127
45.336190476190474	45.452290249433105	62	127
45.336190476190474	45.452290249433105	38	127
45.336190476190474	45.452290249433105	50	127
45.568390022675736	45.70770975056689	38	127
45.568390022675736	45.70770975056689	50	127
45.568390022675736	45.70770975056689	62	127
45.84702947845805	45.96312925170068	64	127
45.84702947845805	45.96312925170068	40	127
45.84702947845805	45.96312925170068	52	127
46.07922902494331	46.2069387755102	64	127
46.07922902494331	46.2069387755102	40	127
46.07922902494331	46.2069387755102	52	127
46.334648526077096	46.72938775510204	65	127
46.334648526077096	46.72938775510204	41	127
46.334648526077096	46.72938775510204	53	127
47.33310657596372	47.43759637188209	53	127
47.33310657596372	47.53047619047619	34	127
47.33310657596372	47.53047619047619	46	127
47.43759637188209	47.53047619047619	62	127
47.53047619047619	47.646575963718824	58	127
47.646575963718824	47.76267573696145	62	127
47.76267573696145	47.96004535147392	46	127
47.76267573696145	47.855555555555554	53	127
47.76267573696145	47.96004535147392	34	127
47.855555555555554	47.96004535147392	62	127
47.96004535147392	48.04131519274377	58	127
48.04131519274377	48.16902494331066	62	127
48.16902494331066	48.33156462585034	29	127
48.16902494331066	48.2502947845805	57	127
48.16902494331066	48.33156462585034	41	127
48.2502947845805	48.3431746031746	65	127
48.3431746031746	48.459274376417234	60	127
48.459274376417234	48.58698412698413	65	127
48.58698412698413	48.842403628117914	29	127
48.58698412698413	48.72630385487528	57	127
48.58698412698413	48.842403628117914	41	127
48.72630385487528	48.842403628117914	65	127
48.842403628117914	48.97011337868481	60	127
48.97011337868481	49.074603174603176	65	127
49.074603174603176	49.19070294784581	55	127
49.074603174603176	49.283582766439906	36	127
49.074603174603176	49.283582766439906	48	127
49.19070294784581	49.295192743764176	63	127
49.295192743764176	49.39968253968254	60	127
49.39968253968254	49.504172335600906	63	127
49.504172335600906	49.70154195011338	36	127
49.504172335600906	49.70154195011338	48	127
49.504172335600906	49.59705215419501	55	127
49.59705215419501	49.70154195011338	63	127
49.70154195011338	49.81764172335601	60	127
49.81764172335601	49.96857142857143	63	127
49.96857142857143	50.08467120181406	58	127
49.96857142857143	50.90897959183673	43	127
49.96857142857143	50.90897959183673	31	127
50.08467120181406	50.20077097505669	67	127
50.20077097505669	50.328480725623585	62	127
50.328480725623585	50.444580498866216	67	127
50.444580498866216	50.56068027210885	58	127
50.56068027210885	50.653560090702946	67	127
50.653560090702946	50.78126984126984	62	127
50.78126984126984	50.90897959183673	67	127
50.90897959183673	51.0134693877551	58	127
50.90897959183673	51.10634920634921	39	127
50.90897959183673	51.10634920634921	51	127
51.0134693877551	51.11795918367347	67	127
51.11795918367347	51.2340589569161	63	127
51.2340589569161	51.33854875283447	67	127
51.33854875283447	51.51269841269841	51	127
51.33854875283447	51.39659863945578	58	127
51.33854875283447	51.51269841269841	39	127
51.39659863945578	51.51269841269841	67	127
51.51269841269841	51.66362811791383	63	127
51.66362811791383	51.77972789115646	67	127
51.77972789115646	51.97709750566894	34	127
51.77972789115646	51.88421768707483	62	127
51.77972789115646	51.97709750566894	46	127
51.88421768707483	51.97709750566894	70	127
51.97709750566894	52.0815873015873	65	127
52.0815873015873	52.19768707482993	70	127
52.19768707482993	52.44149659863945	34	127
52.19768707482993	52.31378684807256	62	127
52.19768707482993	52.44149659863945	46	127
52.31378684807256	52.44149659863945	70	127
52.44149659863945	52.557596371882084	65	127
52.557596371882084	52.66208616780045	62	127
52.66208616780045	52.778185941043084	60	127
52.66208616780045	52.87106575963719	33	127
52.66208616780045	52.87106575963719	45	127
52.778185941043084	52.87106575963719	65	127
52.87106575963719	52.98716553287982	63	127
52.98716553287982	53.10326530612245	60	127
53.10326530612245	53.34707482993197	34	127
53.10326530612245	53.34707482993197	46	127
53.10326530612245	53.219365079365076	58	127
53.219365079365076	53.34707482993197	65	127
53.34707482993197	53.41673469387755	62	127
53.41673469387755	53.52122448979592	58	127
53.52122448979592	53.74181405895692	57	127
53.52122448979592	53.74181405895692	29	127
53.52122448979592	53.74181405895692	41	127
53.96240362811791	54.06689342403628	65	127
54.194603174603174	54.29909297052154	65	127
54.41519274376417	54.55451247165533	46	127
54.41519274376417	54.79832199546485	74	127
54.68222222222222	54.79832199546485	53	127
54.79832199546485	54.856371882086165	75	127
54.856371882086165	54.90281179138322	74	127
54.914421768707484	55.00730158730159	70	127
54.914421768707484	55.00730158730159	50	127
55.10018140589569	55.21628117913832	74	127
55.10018140589569	55.21628117913832	46	127
55.30916099773243	55.42526077097506	77	127
55.30916099773243	55.42526077097506	45	127
55.58780045351474	55.70390022675737	77	127
55.58780045351474	55.70390022675737	41	127
55.82	55.901269841269844	79	127
55.82	55.92448979591837	45	127
55.901269841269844	55.959319727891156	77	127
55.959319727891156	56.02897959183674	79	127
56.02897959183674	56.09863945578231	77	127
56.02897959183674	56.12185941043084	41	127
56.09863945578231	56.16829931972789	76	127
56.16829931972789	56.226349206349205	77	127
56.23795918367347	56.52820861678005	75	127
56.23795918367347	56.330839002267574	48	127
56.42371882086168	56.52820861678005	55	127
56.52820861678005	56.58625850340136	77	127
56.58625850340136	56.62108843537415	75	127
56.63269841269841	56.7604081632653	72	127
56.63269841269841	56.7604081632653	51	127
56.8881179138322	56.992607709750565	75	127
56.8881179138322	56.992607709750565	48	127
57.108707482993196	58.03750566893424	74	127
57.108707482993196	58.03750566893424	67	127
57.108707482993196	57.22480725623583	46	127
57.108707482993196	58.03750566893424	70	127
57.108707482993196	58.03750566893424	79	127
57.35251700680272	57.480226757369614	43	127
57.596326530612245	57.700816326530614	46	127
57.80530612244898	57.92140589569161	43	127
58.03750566893424	58.13038548752834	51	127
58.03750566893424	58.362585034013605	79	127
58.246485260770974	58.362585034013605	58	127
58.362585034013605	58.42063492063492	81	127
58.42063492063492	58.467074829931974	79	127
58.478684807256236	58.55995464852608	75	127
58.478684807256236	58.55995464852608	55	127
58.66444444444444	58.745714285714286	79	127
58.66444444444444	58.745714285714286	51	127
58.86181405895692	58.97791383219955	82	127
58.86181405895692	58.97791383219955	50	127
59.082403628117916	59.19850340136055	82	127
59.082403628117916	59.19850340136055	46	127
59.30299319727891	59.37265306122449	84	127
59.30299319727891	59.40748299319728	50	127
59.37265306122449	59.453922902494334	82	127
59.453922902494334	59.53519274376417	84	127
59.53519274376417	59.60485260770975	82	127
59.53519274376417	59.62807256235828	46	127
59.60485260770975	59.674512471655326	81	127
59.674512471655326	59.732562358276645	82	127
59.75578231292517	59.86027210884354	87	127
59.75578231292517	59.86027210884354	39	127
59.97637188208617	60.10408163265306	87	127
59.97637188208617	60.10408163265306	51	127
60.220181405895694	60.30145124716553	86	127
60.220181405895694	60.34789115646259	41	127
60.30145124716553	60.39433106575964	84	127
60.39433106575964	60.47560090702948	86	127
60.47560090702948	60.55687074829932	84	127
60.47560090702948	60.59170068027211	53	127
60.55687074829932	60.6265306122449	82	127
60.6265306122449	60.69619047619047	84	127
60.707800453514736	61.17219954648526	46	127
60.707800453514736	60.82390022675737	82	127
60.707800453514736	61.17219954648526	34	127
60.95160997732426	61.05609977324263	82	127
61.05609977324263	61.17219954648526	86	127
61.17219954648526	61.265079365079366	77	127
61.265079365079366	61.35795918367347	82	127
61.35795918367347	61.4740589569161	74	127
61.4740589569161	61.578548752834465	77	127
61.578548752834465	61.694648526077096	75	127
61.694648526077096	61.77591836734694	79	127
61.77591836734694	61.868798185941046	72	127
61.868798185941046	61.961678004535145	75	127
61.961678004535145	62.05455782312925	69	127
62.05455782312925	62.182267573696144	72	127
62.182267573696144	62.30997732426304	65	127
62.30997732426304	62.414467120181406	69	127
62.414467120181406	62.53056689342404	70	127
62.65827664399093	62.785986394557824	65	127
62.902086167800455	62.99496598639456	62	127
63.0762358276644	63.15750566893424	58	127
63.27360544217687	63.389705215419504	57	127
63.505804988662135	63.58707482993197	60	127
63.7031746031746	63.80766439909297	65	127
63.91215419501134	64.02825396825396	63	127
64.15596371882086	64.2720634920635	62	127
64.38816326530612	64.50426303854876	58	127
64.50426303854876	64.60875283446713	62	127
64.60875283446713	64.70163265306122	53	127
64.70163265306122	64.8061224489796	58	127
64.8061224489796	64.92222222222222	50	127
64.8061224489796	64.92222222222222	84	127
64.92222222222222	65.04993197278911	82	127
64.92222222222222	65.04993197278911	53	127
65.04993197278911	65.15442176870748	51	127
65.04993197278911	65.20083900226757	81	127
65.15442176870748	65.24730158730159	55	127
65.24730158730159	65.35179138321996	48	127
65.35179138321996	65.49111111111111	51	127
65.49111111111111	65.59560090702948	45	127
65.59560090702948	65.67687074829932	48	127
65.67687074829932	65.80458049886622	89	127
65.67687074829932	65.80458049886622	41	127
65.80458049886622	65.93229024943311	87	127
65.80458049886622	65.93229024943311	45	127
65.93229024943311	66.04839002267573	46	127
65.93229024943311	66.11804988662132	86	127
66.04839002267573	66.16448979591837	50	127
66.16448979591837	66.280589569161	48	127
66.280589569161	66.36185941043084	51	127
66.38507936507936	66.48956916099773	45	127
66.48956916099773	66.6056462585034	48	127
66.6056462585034	66.71013605442177	89	127
66.6056462585034	66.71013605442177	41	127
66.71013605442177	66.80303854875284	45	127
66.71013605442177	66.82625850340136	87	127
66.82625850340136	66.91913832199546	46	127
66.82625850340136	67.0004081632653	86	127
66.91913832199546	67.04684807256236	50	127
67.04684807256236	67.17455782312925	48	127
67.17455782312925	67.27904761904762	51	127
67.30226757369614	67.38353741496599	45	127
67.38353741496599	67.48802721088435	48	127
67.48802721088435	67.61573696145125	89	127
67.48802721088435	67.61573696145125	41	127
67.61573696145125	67.72022675736962	45	127
67.61573696145125	67.77827664399094	87	127
67.77827664399094	67.87115646258503	86	127
67.77827664399094	68.23106575963719	46	127
67.89437641723356	68.0104761904762	89	127
68.0104761904762	68.1149433106576	82	127
68.1149433106576	68.23106575963719	86	127
68.23106575963719	68.31233560090703	80	127
68.31233560090703	68.4168253968254	82	127
68.4168253968254	68.53292517006803	77	127
68.53292517006803	68.62578231292517	80	127
68.62578231292517	68.75349206349206	74	127
68.75349206349206	68.86961451247166	77	127
68.86961451247166	68.96249433106576	70	127
68.96249433106576	69.05537414965987	74	127
69.05537414965987	69.15986394557824	68	127
69.15986394557824	69.28757369614513	70	127
69.28757369614513	69.39204081632653	65	127
69.39204081632653	69.53138321995465	68	127
69.53138321995465	69.63587301587302	62	127
69.63587301587302	69.75195011337868	65	127
69.75195011337868	69.85646258503401	58	127
69.85646258503401	69.94934240362812	62	127
69.94934240362812	70.06544217687075	57	127
70.06544217687075	70.18154195011338	58	127
70.18154195011338	70.25120181405896	56	127
70.25120181405896	70.36730158730158	58	127
70.36730158730158	70.4601814058957	55	127
70.4601814058957	70.5530612244898	58	127
70.5530612244898	70.68077097505669	56	127
70.68077097505669	70.78526077097506	58	127
70.78526077097506	70.91297052154195	55	127
70.91297052154195	71.07551020408164	58	127
71.07551020408164	71.19160997732426	53	127
71.19160997732426	71.33092970521542	58	127
71.33092970521542	71.44702947845805	39	127
71.33092970521542	71.44702947845805	55	127
71.44702947845805	71.56312925170069	58	127
71.56312925170069	71.67922902494331	63	127
71.56312925170069	71.66759637188208	51	127
71.67922902494331	71.77210884353741	58	127
71.77210884353741	71.88820861678005	55	127
71.88820861678005	71.98108843537415	58	127
71.98108843537415	72.09718820861679	51	127
71.98108843537415	72.09718820861679	55	127
72.09718820861679	72.22489795918368	58	127
72.22489795918368	72.3409977324263	50	127
72.22489795918368	72.3409977324263	56	127
72.3409977324263	72.43385487528344	58	127
72.43385487528344	72.54997732426304	48	127
72.43385487528344	72.54997732426304	56	127
72.54997732426304	72.64285714285714	58	127
72.64285714285714	72.73573696145125	46	127
72.64285714285714	72.73573696145125	56	127
72.73573696145125	72.84022675736962	58	127
72.84022675736962	72.93310657596372	44	127
72.84022675736962	72.93310657596372	62	127
72.93310657596372	73.02598639455782	58	127
73.02598639455782	73.14208616780046	43	127
73.02598639455782	73.14208616780046	63	127
73.14208616780046	73.25818594104308	58	127
73.25818594104308	73.3510657596372	41	127
73.25818594104308	73.36267573696145	63	127
73.36267573696145	73.47877551020409	58	127
73.47877551020409	73.58324263038548	39	127
73.47877551020409	73.59487528344671	63	127
73.59487528344671	73.73419501133787	58	127
73.73419501133787	73.86190476190477	44	127
73.73419501133787	73.86190476190477	65	127
73.86190476190477	73.97800453514739	60	127
73.97800453514739	74.09410430839003	63	127
73.97800453514739	74.21020408163265	46	127
74.09410430839003	74.21020408163265	58	127
74.21020408163265	74.2914739229025	62	127
74.21020408163265	74.36113378684807	34	127
74.2914739229025	74.3843537414966	58	127
74.3843537414966	74.51206349206349	46	127
74.3843537414966	74.51206349206349	62	127
74.51206349206349	74.66299319727891	58	127
74.66299319727891	74.76748299319728	44	127
74.66299319727891	74.76748299319728	62	127
74.76748299319728	74.88358276643991	58	127
74.88358276643991	75.10417233560091	43	127
74.88358276643991	74.98807256235828	63	127
74.98807256235828	75.10417233560091	58	127
75.10417233560091	75.3247619047619	41	127
75.10417233560091	75.22024943310657	56	127
75.22024943310657	75.3247619047619	63	127
75.3247619047619	75.47566893424036	43	127
75.3247619047619	75.39442176870749	58	127
75.39442176870749	75.47566893424036	63	127
75.47566893424036	75.59179138321996	55	127
75.47566893424036	75.70789115646258	39	127
75.59179138321996	75.70789115646258	63	127
75.70789115646258	75.83560090702947	60	127
75.70789115646258	76.02136054421769	44	127
75.83560090702947	76.02136054421769	63	127
76.02136054421769	76.13746031746032	58	127
76.02136054421769	76.24192743764172	46	127
76.13746031746032	76.24192743764172	63	127
76.24192743764172	76.32321995464852	56	127
76.24192743764172	76.41609977324264	48	127
76.32321995464852	76.41609977324264	63	127
76.41609977324264	76.53219954648526	57	127
76.41609977324264	76.60183673469388	47	127
76.53219954648526	76.6482993197279	63	127
76.6482993197279	76.76439909297052	46	127
76.6482993197279	76.76439909297052	58	127
76.76439909297052	76.86888888888889	63	127
76.86888888888889	76.97337868480726	58	127
76.86888888888889	76.97337868480726	55	127
76.97337868480726	77.08947845804988	63	127
77.08947845804988	77.19396825396825	46	127
77.08947845804988	77.20557823129252	58	127
77.20557823129252	77.33328798185941	62	127
77.33328798185941	77.4609977324263	56	127
77.33328798185941	77.4609977324263	58	127
77.4609977324263	77.5887074829932	62	127
77.5887074829932	78.01827664399093	51	127
77.5887074829932	78.01827664399093	55	127
77.70480725623582	77.8092970521542	63	127
77.8092970521542	77.91378684807256	65	127
77.91378684807256	78.01827664399093	67	127
78.01827664399093	78.1343537414966	68	127
78.1343537414966	78.23886621315192	70	127
78.23886621315192	78.36657596371882	72	127
78.36657596371882	78.49428571428571	74	127
78.49428571428571	78.61038548752835	39	127
78.49428571428571	78.95868480725623	75	127
78.71487528344672	78.84258503401361	51	127
78.95868480725623	79.0631746031746	70	127
79.17927437641724	79.29537414965986	51	127
79.17927437641724	79.29537414965986	70	127
79.41145124716553	79.55079365079365	50	127
79.41145124716553	79.80621315192744	77	127
79.64365079365079	79.70172335600907	46	127
79.80621315192744	79.9107029478458	70	127
80.05	80.16612244897959	50	127
80.05	80.16612244897959	70	127
80.29383219954649	80.4447619047619	79	127
80.29383219954649	80.4447619047619	51	127
80.53761904761905	80.65374149659864	39	127
80.53761904761905	80.65374149659864	79	127
80.75823129251701	80.87433106575963	48	127
80.75823129251701	80.99043083900227	79	127
80.99043083900227	81.1065306122449	44	127
80.99043083900227	81.1065306122449	82	127
81.1065306122449	81.18780045351474	80	127
81.19941043083901	81.31551020408163	46	127
81.19941043083901	81.4315873015873	79	127
81.4315873015873	81.52448979591837	34	127
81.4315873015873	81.59414965986394	77	127
81.640589569161	81.75668934240363	82	127
81.640589569161	81.75668934240363	46	127
81.89600907029478	82.00049886621315	82	127
81.89600907029478	82.00049886621315	44	127
82.09337868480726	82.20947845804989	43	127
82.09337868480726	82.56938775510204	87	127
82.32555555555555	82.43006802721088	39	127
82.56938775510204	82.67387755102041	79	127
82.56938775510204	82.67387755102041	34	127
82.84802721088435	82.95251700680272	79	127
82.84802721088435	82.95251700680272	31	127
83.08022675736962	83.19630385487528	32	127
83.08022675736962	83.50979591836735	84	127
83.27759637188208	83.39369614512472	36	127
83.50979591836735	83.62589569160998	77	127
83.50979591836735	83.62589569160998	41	127
83.71877551020408	83.83485260770975	44	127
83.71877551020408	83.83485260770975	77	127
83.95097505668934	84.07868480725624	34	127
83.95097505668934	84.19478458049886	82	127
84.19478458049886	84.29927437641723	79	127
84.19478458049886	84.29927437641723	46	127
84.29927437641723	84.36893424036282	75	127
84.36893424036282	84.48503401360544	34	127
84.36893424036282	84.61274376417234	80	127
84.61274376417234	84.728820861678	46	127
84.61274376417234	84.728820861678	77	127
84.728820861678	84.82172335600907	74	127
84.8449433106576	85.36736961451247	75	127
84.8449433106576	85.36736961451247	39	127
84.8449433106576	85.36736961451247	51	127
85.36736961451247	85.4718820861678	70	127
85.61120181405896	85.70408163265306	70	127
85.85501133786848	86.08721088435374	63	127
85.85501133786848	86.08721088435374	66	127
85.85501133786848	86.08721088435374	78	127
85.85501133786848	86.08721088435374	51	127
86.08721088435374	86.27297052154195	80	127
86.08721088435374	86.27297052154195	68	127
86.08721088435374	86.27297052154195	46	127
86.08721088435374	86.27297052154195	58	127
86.319410430839	86.45873015873016	63	127
86.319410430839	86.45873015873016	66	127
86.319410430839	86.45873015873016	78	127
86.319410430839	86.45873015873016	51	127
86.56321995464853	86.65609977324263	49	127
86.56321995464853	86.65609977324263	65	127
86.56321995464853	86.65609977324263	77	127
86.56321995464853	86.65609977324263	61	127
86.760589569161	86.99278911564626	63	127
86.760589569161	86.99278911564626	75	127
86.760589569161	86.99278911564626	47	127
86.760589569161	86.99278911564626	59	127
86.99278911564626	87.1669387755102	65	127
86.99278911564626	87.1669387755102	77	127
86.99278911564626	87.1669387755102	42	127
86.99278911564626	87.1669387755102	54	127
87.21337868480725	87.32947845804989	63	127
87.21337868480725	87.32947845804989	75	127
87.21337868480725	87.32947845804989	47	127
87.21337868480725	87.32947845804989	59	127
87.44557823129252	87.56167800453515	61	127
87.44557823129252	87.56167800453515	73	127
87.44557823129252	87.56167800453515	46	127
87.44557823129252	87.56167800453515	58	127
87.66614512471655	87.84031746031746	44	127
87.66614512471655	87.84031746031746	59	127
87.66614512471655	87.84031746031746	71	127
87.66614512471655	87.84031746031746	56	127
87.84031746031746	88.0260544217687	61	127
87.84031746031746	88.0260544217687	73	127
87.84031746031746	88.0260544217687	39	127
87.84031746031746	88.0260544217687	51	127
88.07251700680273	88.18861678004535	56	127
88.07251700680273	88.18861678004535	59	127
88.07251700680273	88.18861678004535	71	127
88.07251700680273	88.18861678004535	44	127
88.30471655328799	88.40918367346939	42	127
88.30471655328799	88.40918367346939	58	127
88.30471655328799	88.40918367346939	70	127
88.30471655328799	88.40918367346939	54	127
88.53689342403628	88.65301587301587	41	127
88.53689342403628	88.65301587301587	68	127
88.53689342403628	88.65301587301587	53	127
88.7691156462585	88.88521541950114	70	127
88.88521541950114	89.01292517006803	71	127
89.01292517006803	89.12902494331065	73	127
89.12902494331065	89.26834467120182	75	127
89.26834467120182	89.37283446712019	77	127
89.37283446712019	89.46571428571428	78	127
89.48893424036281	89.70952380952382	53	127
89.48893424036281	89.70952380952382	68	127
89.48893424036281	89.70952380952382	80	127
89.48893424036281	89.70952380952382	65	127
89.70952380952382	89.87206349206349	82	127
89.70952380952382	89.87206349206349	64	127
89.70952380952382	89.87206349206349	70	127
89.70952380952382	89.87206349206349	52	127
89.91848072562358	90.03460317460318	80	127
89.91848072562358	90.03460317460318	68	127
89.91848072562358	90.03460317460318	53	127
89.91848072562358	90.03460317460318	65	127
90.1855328798186	90.29002267573696	66	127
90.1855328798186	90.29002267573696	78	127
90.1855328798186	90.29002267573696	51	127
90.1855328798186	90.29002267573696	63	127
90.41773242630386	90.66154195011337	61	127
90.41773242630386	90.66154195011337	65	127
90.41773242630386	90.66154195011337	77	127
90.41773242630386	90.66154195011337	49	127
90.66154195011337	90.84730158730159	78	127
90.66154195011337	90.84730158730159	66	127
90.66154195011337	90.84730158730159	48	127
90.66154195011337	90.84730158730159	60	127
90.89374149659864	91.00984126984127	65	127
90.89374149659864	91.00984126984127	77	127
90.89374149659864	91.00984126984127	49	127
90.89374149659864	91.00984126984127	61	127
91.1259410430839	91.21882086167801	63	127
91.1259410430839	91.21882086167801	75	127
91.1259410430839	91.21882086167801	47	127
91.1259410430839	91.21882086167801	59	127
91.33492063492064	91.55551020408163	46	127
91.33492063492064	91.55551020408163	61	127
91.33492063492064	91.55551020408163	73	127
91.33492063492064	91.55551020408163	58	127
91.55551020408163	91.68321995464852	47	127
91.55551020408163	91.68321995464852	63	127
91.55551020408163	91.68321995464852	75	127
91.55551020408163	91.68321995464852	59	127
91.72965986394559	91.83412698412698	61	127
91.72965986394559	91.83412698412698	73	127
91.72965986394559	91.83412698412698	46	127
91.72965986394559	91.83412698412698	58	127
91.96183673469388	92.101179138322	56	127
91.96183673469388	92.101179138322	59	127
91.96183673469388	92.101179138322	71	127
91.96183673469388	92.101179138322	44	127
92.20566893424036	92.32176870748299	54	127
92.20566893424036	92.32176870748299	70	127
92.20566893424036	92.32176870748299	42	127
92.44947845804988	92.61201814058957	71	127
92.61201814058957	92.70489795918367	73	127
92.70489795918367	92.80938775510204	75	127
92.80938775510204	92.9138775510204	77	127
92.9138775510204	92.99514739229025	78	127
92.99514739229025	93.08802721088435	80	127
93.09963718820862	93.29700680272109	54	127
93.09963718820862	93.29700680272109	70	127
93.09963718820862	93.29700680272109	82	127
93.09963718820862	93.29700680272109	66	127
93.29700680272109	93.47113378684807	49	127
93.29700680272109	93.47113378684807	71	127
93.29700680272109	93.47113378684807	83	127
93.29700680272109	93.47113378684807	61	127
93.50598639455782	93.63369614512472	66	127
93.50598639455782	93.63369614512472	54	127
93.50598639455782	93.63369614512472	70	127
93.50598639455782	93.63369614512472	82	127
93.76140589569161	93.85426303854875	68	127
93.76140589569161	93.85426303854875	80	127
93.76140589569161	93.85426303854875	53	127
93.76140589569161	93.85426303854875	65	127
93.98197278911564	94.21419501133786	66	127
93.98197278911564	94.21419501133786	78	127
93.98197278911564	94.21419501133786	51	127
93.98197278911564	94.21419501133786	63	127
94.21419501133786	94.39995464852608	68	127
94.21419501133786	94.39995464852608	80	127
94.21419501133786	94.39995464852608	46	127
94.21419501133786	94.39995464852608	58	127
94.44639455782313	94.5508843537415	66	127
94.44639455782313	94.5508843537415	78	127
94.44639455782313	94.5508843537415	51	127
94.44639455782313	94.5508843537415	63	127
94.67859410430839	94.79469387755103	65	127
94.67859410430839	94.79469387755103	77	127
94.67859410430839	94.79469387755103	49	127
94.67859410430839	94.79469387755103	61	127
94.93401360544217	95.16621315192744	47	127
94.93401360544217	95.16621315192744	63	127
94.93401360544217	95.16621315192744	75	127
94.93401360544217	95.16621315192744	59	127
95.16621315192744	95.35197278911565	49	127
95.16621315192744	95.35197278911565	65	127
95.16621315192744	95.35197278911565	77	127
95.16621315192744	95.35197278911565	61	127
95.3984126984127	95.50290249433107	47	127
95.3984126984127	95.50290249433107	63	127
95.3984126984127	95.50290249433107	75	127
95.3984126984127	95.50290249433107	59	127
95.61900226757369	95.73510204081633	58	127
95.61900226757369	95.73510204081633	61	127
95.61900226757369	95.73510204081633	73	127
95.61900226757369	95.73510204081633	46	127
95.8395918367347	95.90925170068027	44	127
95.8395918367347	95.90925170068027	59	127
95.8395918367347	95.90925170068027	71	127
95.8395918367347	95.90925170068027	56	127
96.0253514739229	96.15306122448979	41	127
96.0253514739229	96.15306122448979	61	127
96.0253514739229	96.15306122448979	73	127
96.0253514739229	96.15306122448979	53	127
96.25755102040816	96.36204081632653	42	127
96.25755102040816	96.36204081632653	58	127
96.25755102040816	96.36204081632653	70	127
96.25755102040816	96.36204081632653	54	127
96.4665306122449	96.58263038548753	39	127
96.4665306122449	96.58263038548753	59	127
96.4665306122449	96.58263038548753	71	127
96.4665306122449	96.58263038548753	51	127
96.69873015873016	96.79160997732426	53	127
96.69873015873016	96.79160997732426	56	127
96.69873015873016	96.79160997732426	68	127
96.69873015873016	96.79160997732426	41	127
96.91931972789115	96.98897959183674	58	127
96.91931972789115	96.98897959183674	70	127
96.91931972789115	96.98897959183674	37	127
96.91931972789115	96.98897959183674	49	127
97.10507936507936	97.19795918367348	51	127
97.10507936507936	97.19795918367348	54	127
97.10507936507936	97.19795918367348	66	127
97.10507936507936	97.19795918367348	39	127
97.33727891156462	97.45337868480726	35	127
97.33727891156462	97.45337868480726	56	127
97.33727891156462	97.45337868480726	68	127
97.33727891156462	97.45337868480726	47	127
97.56947845804989	97.7204081632653	37	127
97.56947845804989	97.7204081632653	61	127
97.56947845804989	97.7204081632653	49	127
98.08031746031746	98.1615873015873	37	127
98.08031746031746	98.1615873015873	56	127
98.08031746031746	98.1615873015873	59	127
98.08031746031746	98.1615873015873	61	127
98.08031746031746	98.1615873015873	65	127
98.08031746031746	98.1615873015873	49	127
98.52149659863946	98.64920634920635	66	127
98.52149659863946	98.64920634920635	54	127
98.52149659863946	98.64920634920635	58	127
98.64920634920635	98.77691609977325	68	127
98.77691609977325	98.86979591836734	70	127
98.77691609977325	98.86979591836734	54	127
98.77691609977325	98.86979591836734	58	127
98.86979591836734	98.97428571428571	71	127
98.97428571428571	99.05555555555556	54	127
98.97428571428571	99.05555555555556	58	127
98.97428571428571	99.05555555555556	73	127
99.05555555555556	99.17165532879818	75	127
99.17165532879818	99.28775510204082	77	127
99.17165532879818	99.27614512471655	54	127
99.17165532879818	99.27614512471655	58	127
99.28775510204082	99.40385487528344	78	127
99.40385487528344	99.51995464852608	77	127
99.40385487528344	99.50834467120181	56	127
99.40385487528344	99.50834467120181	59	127
99.51995464852608	99.64766439909297	78	127
99.64766439909297	99.7637641723356	80	127
99.64766439909297	99.7637641723356	56	127
99.64766439909297	99.7637641723356	59	127
99.7637641723356	99.90308390022676	82	127
99.90308390022676	100.01918367346939	83	127
99.90308390022676	100.01918367346939	56	127
99.90308390022676	100.01918367346939	59	127
100.01918367346939	100.13528344671202	84	127
100.13528344671202	100.25138321995465	56	127
100.13528344671202	100.25138321995465	59	127
100.13528344671202	100.25138321995465	85	127
100.25138321995465	100.37909297052154	84	127
100.37909297052154	100.50680272108843	58	127
100.37909297052154	100.50680272108843	61	127
100.37909297052154	100.50680272108843	85	127
100.50680272108843	100.57646258503401	84	127
100.57646258503401	100.68095238095238	58	127
100.57646258503401	100.68095238095238	61	127
100.57646258503401	100.68095238095238	87	127
100.68095238095238	100.82027210884354	85	127
100.82027210884354	100.93637188208616	83	127
100.82027210884354	100.93637188208616	58	127
100.82027210884354	100.93637188208616	61	127
100.93637188208616	101.0524716553288	82	127
101.0524716553288	101.16857142857143	80	127
101.0524716553288	101.16857142857143	58	127
101.0524716553288	101.16857142857143	61	127
101.16857142857143	101.2730612244898	78	127
101.2730612244898	101.40077097505669	77	127
101.2730612244898	101.38916099773243	56	127
101.2730612244898	101.38916099773243	59	127
101.40077097505669	101.52848072562358	75	127
101.52848072562358	101.64458049886622	73	127
101.52848072562358	101.63297052154195	56	127
101.52848072562358	101.63297052154195	59	127
101.64458049886622	101.74907029478459	71	127
101.74907029478459	101.84195011337869	56	127
101.74907029478459	101.84195011337869	59	127
101.74907029478459	101.85356009070294	70	127
101.85356009070294	101.95804988662131	68	127
101.95804988662131	102.05092970521542	56	127
101.95804988662131	102.05092970521542	59	127
101.95804988662131	102.05092970521542	66	127
102.05092970521542	102.120589569161	65	127
102.14380952380952	102.25990929705216	66	127
102.14380952380952	102.25990929705216	54	127
102.14380952380952	102.25990929705216	58	127
102.25990929705216	102.34117913832199	68	127
102.34117913832199	102.45727891156463	70	127
102.34117913832199	102.45727891156463	54	127
102.34117913832199	102.45727891156463	58	127
102.45727891156463	102.57337868480725	71	127
102.57337868480725	102.68947845804989	73	127
102.57337868480725	102.68947845804989	54	127
102.57337868480725	102.68947845804989	58	127
102.68947845804989	102.79396825396826	75	127
102.79396825396826	102.89845804988663	58	127
102.79396825396826	102.89845804988663	54	127
102.79396825396826	102.91006802721088	77	127
102.91006802721088	103.02616780045352	78	127
103.02616780045352	103.14226757369615	80	127
103.02616780045352	103.13065759637188	53	127
103.02616780045352	103.13065759637188	56	127
103.14226757369615	103.25836734693877	81	127
103.25836734693877	103.37446712018141	53	127
103.25836734693877	103.37446712018141	56	127
103.25836734693877	103.37446712018141	82	127
103.37446712018141	103.4673469387755	81	127
103.4673469387755	103.58344671201814	82	127
103.4673469387755	103.58344671201814	53	127
103.4673469387755	103.58344671201814	56	127
103.58344671201814	103.68793650793651	81	127
103.68793650793651	103.79242630385488	83	127
103.68793650793651	103.79242630385488	53	127
103.68793650793651	103.79242630385488	56	127
103.79242630385488	103.9433560090703	82	127
103.9433560090703	104.05945578231292	81	127
103.9433560090703	104.05945578231292	51	127
103.9433560090703	104.05945578231292	54	127
104.05945578231292	104.16394557823129	82	127
104.16394557823129	104.28004535147392	83	127
104.16394557823129	104.28004535147392	51	127
104.16394557823129	104.28004535147392	54	127
104.28004535147392	104.39614512471655	82	127
104.39614512471655	104.4774149659864	80	127
104.39614512471655	104.4774149659864	51	127
104.39614512471655	104.4774149659864	54	127
104.4774149659864	104.59351473922902	78	127
104.59351473922902	104.70961451247166	51	127
104.59351473922902	104.70961451247166	54	127
104.59351473922902	104.70961451247166	77	127
104.70961451247166	104.83732426303855	75	127
104.83732426303855	104.95342403628118	74	127
104.83732426303855	104.94181405895692	46	127
104.83732426303855	104.94181405895692	53	127
104.83732426303855	104.94181405895692	56	127
104.95342403628118	105.06952380952382	71	127
105.06952380952382	105.18562358276644	70	127
105.06952380952382	105.17401360544218	46	127
105.06952380952382	105.17401360544218	53	127
105.06952380952382	105.17401360544218	56	127
105.18562358276644	105.29011337868481	69	127
105.29011337868481	105.39460317460318	46	127
105.29011337868481	105.39460317460318	53	127
105.29011337868481	105.39460317460318	56	127
105.29011337868481	105.39460317460318	70	127
105.39460317460318	105.5107029478458	68	127
105.5107029478458	105.62680272108844	46	127
105.5107029478458	105.62680272108844	53	127
105.5107029478458	105.62680272108844	56	127
105.5107029478458	105.62680272108844	66	127
105.62680272108844	105.70807256235828	65	127
105.7312925170068	105.92866213151927	51	127
105.7312925170068	105.92866213151927	63	127
105.92866213151927	106.0447619047619	58	127
106.17247165532879	106.30018140589569	63	127
106.17247165532879	106.30018140589569	51	127
106.42789115646258	106.52077097505669	61	127
106.42789115646258	106.52077097505669	49	127
106.63687074829932	106.8922902494331	59	127
106.63687074829932	107.78625850340136	78	127
106.63687074829932	106.8922902494331	47	127
106.63687074829932	107.78625850340136	66	127
106.8922902494331	107.08965986394558	54	127
106.8922902494331	107.08965986394558	42	127
107.10126984126984	107.21736961451248	47	127
107.10126984126984	107.21736961451248	59	127
107.34507936507937	107.43795918367347	46	127
107.34507936507937	107.43795918367347	58	127
107.56566893424036	107.78625850340136	56	127
107.56566893424036	107.78625850340136	44	127
107.78625850340136	107.94879818594104	67	127
107.78625850340136	107.94879818594104	79	127
107.78625850340136	107.94879818594104	39	127
107.78625850340136	107.94879818594104	51	127
107.9952380952381	108.09972789115646	68	127
107.9952380952381	108.09972789115646	80	127
107.9952380952381	108.09972789115646	44	127
107.9952380952381	108.09972789115646	56	127
108.21582766439909	108.33192743764172	70	127
108.21582766439909	108.33192743764172	82	127
108.21582766439909	108.33192743764172	42	127
108.21582766439909	108.33192743764172	54	127
108.47124716553287	108.58734693877551	71	127
108.47124716553287	108.58734693877551	83	127
108.47124716553287	108.58734693877551	41	127
108.47124716553287	108.58734693877551	53	127
109.3419954648526	109.57419501133786	53	127
109.3419954648526	109.57419501133786	65	127
109.57419501133786	109.74834467120182	52	127
109.57419501133786	109.74834467120182	64	127
109.79478458049887	109.9108843537415	53	127
109.79478458049887	109.9108843537415	65	127
110.00376417233561	110.0966439909297	51	127
110.00376417233561	110.0966439909297	63	127
110.21274376417233	111.37374149659864	68	127
110.21274376417233	111.37374149659864	80	127
110.21274376417233	110.45655328798186	61	127
110.21274376417233	110.45655328798186	49	127
110.45655328798186	110.6307029478458	60	127
110.45655328798186	110.6307029478458	48	127
110.67714285714285	110.79324263038549	61	127
110.67714285714285	110.79324263038549	49	127
110.90934240362812	111.01383219954648	47	127
110.90934240362812	111.01383219954648	59	127
111.14154195011338	111.257641723356	58	127
111.14154195011338	111.257641723356	46	127
111.37374149659864	111.48984126984126	68	127
111.37374149659864	111.48984126984126	80	127
111.37374149659864	111.48984126984126	47	127
111.37374149659864	111.48984126984126	59	127
111.6059410430839	111.68721088435375	70	127
111.6059410430839	111.68721088435375	82	127
111.6059410430839	111.68721088435375	46	127
111.6059410430839	111.68721088435375	58	127
111.79170068027211	111.90780045351474	83	127
111.79170068027211	111.90780045351474	71	127
111.79170068027211	111.90780045351474	44	127
111.79170068027211	111.90780045351474	56	127
112.0471201814059	112.09356009070295	85	127
112.0471201814059	112.15160997732427	42	127
112.0471201814059	112.15160997732427	54	127
112.15160997732427	112.25609977324262	73	127
112.25609977324262	112.37219954648526	75	127
112.37219954648526	112.46507936507936	77	127
112.46507936507936	112.56956916099773	78	127
112.56956916099773	112.65083900226757	80	127
112.65083900226757	112.75532879818594	82	127
112.75532879818594	112.87142857142857	84	127
112.89464852607709	113.15006802721088	73	127
112.89464852607709	113.15006802721088	85	127
112.89464852607709	113.15006802721088	58	127
112.89464852607709	113.15006802721088	70	127
113.15006802721088	113.32421768707484	75	127
113.15006802721088	113.32421768707484	87	127
113.15006802721088	113.32421768707484	53	127
113.15006802721088	113.32421768707484	65	127
113.37065759637188	113.45192743764173	73	127
113.37065759637188	113.45192743764173	85	127
113.37065759637188	113.45192743764173	58	127
113.37065759637188	113.45192743764173	70	127
113.56802721088435	113.68412698412699	72	127
113.56802721088435	113.68412698412699	84	127
113.56802721088435	113.68412698412699	56	127
113.56802721088435	113.68412698412699	68	127
113.78861678004534	114.00920634920635	70	127
113.78861678004534	114.00920634920635	82	127
113.78861678004534	114.00920634920635	54	127
113.78861678004534	114.00920634920635	66	127
114.00920634920635	114.19496598639456	84	127
114.00920634920635	114.19496598639456	56	127
114.00920634920635	114.19496598639456	68	127
114.00920634920635	114.19496598639456	72	127
114.24140589569161	114.35750566893424	66	127
114.24140589569161	114.35750566893424	54	127
114.24140589569161	114.35750566893424	70	127
114.24140589569161	114.35750566893424	82	127
114.47360544217688	114.57809523809524	65	127
114.47360544217688	114.57809523809524	68	127
114.47360544217688	114.57809523809524	80	127
114.47360544217688	114.57809523809524	53	127
114.69419501133787	114.86834467120181	63	127
114.69419501133787	114.86834467120181	66	127
114.69419501133787	114.86834467120181	78	127
114.69419501133787	114.86834467120181	51	127
114.86834467120181	115.04249433106575	68	127
114.86834467120181	115.04249433106575	80	127
114.86834467120181	115.04249433106575	46	127
114.86834467120181	115.04249433106575	58	127
115.08893424036282	115.20503401360544	66	127
115.08893424036282	115.20503401360544	78	127
115.08893424036282	115.20503401360544	51	127
115.08893424036282	115.20503401360544	63	127
115.35596371882086	115.4720634920635	65	127
115.35596371882086	115.4720634920635	77	127
115.35596371882086	115.4720634920635	49	127
115.35596371882086	115.4720634920635	61	127
115.58816326530612	115.6578231292517	75	127
115.58816326530612	115.6578231292517	63	127
115.58816326530612	115.6578231292517	48	127
115.58816326530612	115.6578231292517	60	127
115.76231292517006	115.8784126984127	65	127
115.76231292517006	115.8784126984127	77	127
115.76231292517006	115.8784126984127	45	127
115.76231292517006	115.8784126984127	57	127
116.0061224489796	116.12222222222222	61	127
116.0061224489796	116.12222222222222	73	127
116.0061224489796	116.12222222222222	46	127
116.0061224489796	116.12222222222222	58	127
116.23832199546486	116.33120181405896	63	127
116.23832199546486	116.33120181405896	75	127
116.23832199546486	116.33120181405896	42	127
116.23832199546486	116.33120181405896	54	127
116.43569160997733	116.51696145124717	60	127
116.43569160997733	116.51696145124717	72	127
116.43569160997733	116.51696145124717	44	127
116.43569160997733	116.51696145124717	56	127
116.60984126984127	116.73755102040816	61	127
116.60984126984127	116.73755102040816	73	127
116.60984126984127	116.73755102040816	41	127
116.60984126984127	116.73755102040816	53	127
116.84204081632653	116.93492063492063	58	127
116.84204081632653	116.93492063492063	70	127
116.84204081632653	116.93492063492063	42	127
116.84204081632653	116.93492063492063	54	127
117.06263038548752	117.15551020408164	72	127
117.06263038548752	117.15551020408164	60	127
117.06263038548752	117.15551020408164	39	127
117.06263038548752	117.15551020408164	51	127
117.30643990929705	117.46897959183673	65	127
117.30643990929705	117.46897959183673	41	127
117.30643990929705	117.46897959183673	53	127
117.80566893424036	117.93337868480725	60	127
117.80566893424036	117.93337868480725	63	127
117.80566893424036	117.93337868480725	69	127
117.80566893424036	117.93337868480725	29	127
117.80566893424036	117.93337868480725	41	127
118.29328798185941	118.39777777777778	34	127
118.29328798185941	118.39777777777778	46	127
118.29328798185941	118.39777777777778	70	127
118.39777777777778	118.51387755102041	72	127
118.51387755102041	118.62997732426304	58	127
118.51387755102041	118.62997732426304	61	127
118.51387755102041	118.62997732426304	73	127
118.62997732426304	118.72285714285714	75	127
118.72285714285714	118.81573696145125	58	127
118.72285714285714	118.81573696145125	61	127
118.72285714285714	118.81573696145125	77	127
118.81573696145125	118.93183673469387	78	127
118.93183673469387	119.01310657596372	58	127
118.93183673469387	119.01310657596372	61	127
118.93183673469387	119.02471655328799	80	127
119.02471655328799	119.12920634920636	82	127
119.12920634920636	119.25691609977325	60	127
119.12920634920636	119.25691609977325	63	127
119.12920634920636	119.25691609977325	81	127
119.25691609977325	119.37301587301587	82	127
119.37301587301587	119.47750566893424	60	127
119.37301587301587	119.47750566893424	63	127
119.37301587301587	119.47750566893424	84	127
119.47750566893424	119.58199546485261	85	127
119.58199546485261	119.69809523809523	60	127
119.58199546485261	119.69809523809523	63	127
119.58199546485261	119.69809523809523	87	127
119.69809523809523	119.81419501133787	88	127
119.81419501133787	119.91868480725624	60	127
119.81419501133787	119.91868480725624	63	127
119.81419501133787	119.91868480725624	89	127
119.91868480725624	120.04639455782313	88	127
120.04639455782313	120.16249433106576	61	127
120.04639455782313	120.16249433106576	65	127
120.04639455782313	120.16249433106576	89	127
120.16249433106576	120.25537414965986	87	127
120.25537414965986	120.34825396825397	61	127
120.25537414965986	120.34825396825397	65	127
120.25537414965986	120.34825396825397	85	127
120.34825396825397	120.47596371882086	84	127
120.47596371882086	120.59206349206349	61	127
120.47596371882086	120.59206349206349	65	127
120.47596371882086	120.59206349206349	82	127
120.59206349206349	120.73138321995465	80	127
120.73138321995465	120.82426303854875	61	127
120.73138321995465	120.82426303854875	65	127
120.73138321995465	120.83587301587302	78	127
120.83587301587302	120.92875283446712	77	127
120.92875283446712	121.03324263038549	53	127
120.92875283446712	121.03324263038549	60	127
120.92875283446712	121.03324263038549	63	127
120.92875283446712	121.03324263038549	75	127
121.03324263038549	121.16095238095238	73	127
121.16095238095238	121.3118820861678	53	127
121.16095238095238	121.3118820861678	60	127
121.16095238095238	121.3118820861678	63	127
121.16095238095238	121.3118820861678	72	127
121.3118820861678	121.39315192743764	70	127
121.39315192743764	121.48603174603174	53	127
121.39315192743764	121.48603174603174	60	127
121.39315192743764	121.48603174603174	63	127
121.39315192743764	121.48603174603174	69	127
121.48603174603174	121.57891156462586	75	127
121.57891156462586	121.67179138321995	53	127
121.57891156462586	121.67179138321995	60	127
121.57891156462586	121.67179138321995	63	127
121.57891156462586	121.67179138321995	72	127
121.67179138321995	121.82272108843537	69	127
121.82272108843537	121.93882086167801	58	127
121.82272108843537	121.93882086167801	61	127
121.82272108843537	121.93882086167801	70	127
121.93882086167801	122.05492063492063	72	127
122.05492063492063	122.159410430839	61	127
122.05492063492063	122.159410430839	58	127
122.05492063492063	122.159410430839	73	127
122.159410430839	122.2871201814059	75	127
122.2871201814059	122.41482993197279	58	127
122.2871201814059	122.41482993197279	61	127
122.2871201814059	122.41482993197279	77	127
122.41482993197279	122.51931972789116	78	127
122.51931972789116	122.600589569161	58	127
122.51931972789116	122.600589569161	61	127
122.51931972789116	122.61219954648526	80	127
122.61219954648526	122.7282993197279	82	127
122.7282993197279	122.83278911564626	60	127
122.7282993197279	122.83278911564626	63	127
122.7282993197279	122.83278911564626	81	127
122.83278911564626	122.97210884353741	82	127
122.97210884353741	123.0998185941043	60	127
122.97210884353741	123.0998185941043	63	127
122.97210884353741	123.0998185941043	84	127
123.0998185941043	123.20430839002267	85	127
123.20430839002267	123.29718820861677	60	127
123.20430839002267	123.29718820861677	63	127
123.20430839002267	123.29718820861677	87	127
123.29718820861677	123.41328798185941	88	127
123.41328798185941	123.52938775510204	60	127
123.41328798185941	123.52938775510204	63	127
123.41328798185941	123.52938775510204	89	127
123.52938775510204	123.64548752834467	88	127
123.64548752834467	123.74997732426304	61	127
123.64548752834467	123.74997732426304	65	127
123.64548752834467	123.74997732426304	89	127
123.74997732426304	123.83124716553289	87	127
123.83124716553289	123.94734693877551	61	127
123.83124716553289	123.94734693877551	65	127
123.83124716553289	123.94734693877551	85	127
123.94734693877551	124.06344671201813	84	127
124.06344671201813	124.1679365079365	61	127
124.06344671201813	124.1679365079365	65	127
124.06344671201813	124.1679365079365	82	127
124.1679365079365	124.28403628117914	81	127
124.28403628117914	124.41174603174603	82	127
124.28403628117914	124.40013605442176	61	127
124.28403628117914	124.40013605442176	65	127
124.41174603174603	124.50462585034013	81	127
124.50462585034013	124.62072562358277	58	127
124.50462585034013	124.62072562358277	62	127
124.50462585034013	124.62072562358277	65	127
124.50462585034013	124.62072562358277	82	127
124.62072562358277	124.74843537414966	81	127
124.74843537414966	124.86453514739229	58	127
124.74843537414966	124.86453514739229	62	127
124.74843537414966	124.86453514739229	65	127
124.74843537414966	124.86453514739229	82	127
124.86453514739229	124.99224489795918	83	127
124.99224489795918	125.09673469387755	65	127
124.99224489795918	125.09673469387755	58	127
124.99224489795918	125.09673469387755	62	127
124.99224489795918	125.09673469387755	82	127
125.09673469387755	125.22444444444444	80	127
125.22444444444444	125.31732426303854	58	127
125.22444444444444	125.31732426303854	62	127
125.22444444444444	125.31732426303854	65	127
125.22444444444444	125.31732426303854	78	127
125.31732426303854	125.42181405895691	77	127
125.44503401360544	125.5495238095238	78	127
125.44503401360544	125.66562358276644	51	127
125.44503401360544	125.66562358276644	63	127
125.5495238095238	125.66562358276644	80	127
125.66562358276644	125.79333333333334	82	127
125.79333333333334	125.8978231292517	80	127
125.8978231292517	126.00231292517007	78	127
126.00231292517007	126.1184126984127	80	127
126.1184126984127	126.23451247165534	78	127
126.23451247165534	126.31578231292517	77	127
126.33900226757369	126.45510204081633	75	127
126.45510204081633	126.58281179138322	77	127
126.58281179138322	126.68730158730159	78	127
126.68730158730159	126.81501133786848	77	127
126.81501133786848	126.91950113378685	75	127
126.91950113378685	127.03560090702948	77	127
127.03560090702948	127.15170068027211	75	127
127.15170068027211	127.23297052154194	73	127
127.25619047619048	127.36068027210884	71	127
127.36068027210884	127.4651700680272	73	127
127.4651700680272	127.61609977324262	75	127
127.61609977324262	127.70897959183674	73	127
127.70897959183674	127.82507936507936	71	127
127.82507936507936	127.91795918367347	73	127
127.91795918367347	128.02244897959184	71	127
128.02244897959184	128.10371882086167	70	127
128.1269387755102	128.23142857142858	68	127
128.23142857142858	128.34750566893425	70	127
128.34750566893425	128.4752380952381	71	127
128.4752380952381	128.61455782312925	72	127
128.61455782312925	128.7074149659864	73	127
128.7074149659864	128.82353741496598	75	127
128.82353741496598	128.91641723356008	77	127
128.91641723356008	129.00927437641724	78	127
129.03251700680272	129.14861678004536	80	127
129.14861678004536	129.27632653061224	82	127
129.27632653061224	129.39242630385488	83	127
129.39242630385488	129.49691609977324	82	127
129.49691609977324	129.61301587301588	80	127
129.61301587301588	129.71750566893425	82	127
129.71750566893425	129.84521541950113	80	127
129.84521541950113	129.926485260771	78	127
129.9497052154195	130.0774149659864	77	127
130.0774149659864	130.18190476190478	78	127
130.18190476190478	130.27478458049887	80	127
130.27478458049887	130.39086167800454	78	127
130.39086167800454	130.53020408163266	77	127
130.53020408163266	130.6695238095238	78	127
130.6695238095238	130.78562358276645	77	127
130.78562358276645	130.87850340136055	75	127
130.9017006802721	131.02943310657596	73	127
131.02943310657596	131.1571201814059	75	127
131.1571201814059	131.27324263038548	77	127
131.27324263038548	131.37773242630385	75	127
131.37773242630385	131.48222222222222	73	127
131.48222222222222	131.5867120181406	75	127
131.5867120181406	131.69120181405896	73	127
131.69120181405896	131.77244897959184	71	127
131.79569160997733	131.91179138321996	70	127
131.91179138321996	132.02786848072563	71	127
132.02786848072563	132.132358276644	73	127
132.132358276644	132.27170068027212	74	127
132.27170068027212	132.38777777777779	75	127
132.38777777777779	132.50390022675737	77	127
132.50390022675737	132.62	78	127
132.62	132.73609977324264	80	127
132.75931972789115	132.95668934240362	82	127
132.75931972789115	132.97990929705216	54	127
132.75931972789115	132.97990929705216	66	127
132.95668934240362	133.03795918367348	83	127
132.97990929705216	133.16566893424036	56	127
132.97990929705216	133.16566893424036	68	127
133.03795918367348	133.0960090702948	82	127
133.0960090702948	133.15403628117915	81	127
133.15403628117915	133.1888888888889	82	127
133.2004761904762	133.31659863945578	54	127
133.2004761904762	133.31659863945578	75	127
133.2004761904762	133.31659863945578	87	127
133.2004761904762	133.31659863945578	66	127
133.42108843537414	133.53718820861678	73	127
133.42108843537414	133.53718820861678	85	127
133.42108843537414	133.53718820861678	53	127
133.42108843537414	133.53718820861678	65	127
133.66487528344672	133.93192743764172	71	127
133.66487528344672	133.93192743764172	83	127
133.66487528344672	133.93192743764172	51	127
133.66487528344672	133.93192743764172	63	127
133.93192743764172	134.10607709750568	78	127
133.93192743764172	134.10607709750568	53	127
133.93192743764172	134.10607709750568	65	127
134.15251700680273	134.26861678004536	71	127
134.15251700680273	134.26861678004536	83	127
134.15251700680273	134.26861678004536	51	127
134.15251700680273	134.26861678004536	63	127
134.38471655328797	134.4775963718821	70	127
134.38471655328797	134.4775963718821	82	127
134.38471655328797	134.4775963718821	49	127
134.38471655328797	134.4775963718821	61	127
134.5936961451247	134.80267573696145	68	127
134.5936961451247	134.80267573696145	80	127
134.5936961451247	134.80267573696145	47	127
134.5936961451247	134.80267573696145	59	127
134.80267573696145	134.95360544217687	75	127
134.80267573696145	134.95360544217687	49	127
134.80267573696145	134.95360544217687	61	127
135.00004535147391	135.11614512471655	68	127
135.00004535147391	135.11614512471655	80	127
135.00004535147391	135.11614512471655	47	127
135.00004535147391	135.11614512471655	59	127
135.24385487528346	135.35995464852607	66	127
135.24385487528346	135.35995464852607	78	127
135.24385487528346	135.35995464852607	46	127
135.24385487528346	135.35995464852607	58	127
135.52249433106576	135.7314739229025	65	127
135.52249433106576	135.7314739229025	77	127
135.52249433106576	135.7314739229025	44	127
135.52249433106576	135.7314739229025	56	127
135.7314739229025	135.9520634920635	71	127
135.7314739229025	135.9520634920635	46	127
135.7314739229025	135.9520634920635	58	127
135.99850340136055	136.12621315192743	56	127
135.99850340136055	136.12621315192743	65	127
135.99850340136055	136.12621315192743	77	127
135.99850340136055	136.12621315192743	44	127
136.24231292517007	136.34680272108844	63	127
136.24231292517007	136.34680272108844	75	127
136.24231292517007	136.34680272108844	42	127
136.24231292517007	136.34680272108844	54	127
136.46290249433108	136.60222222222222	62	127
136.46290249433108	136.60222222222222	74	127
136.46290249433108	136.60222222222222	41	127
136.46290249433108	136.60222222222222	53	127
136.7067120181406	136.81120181405896	75	127
136.7067120181406	136.81120181405896	63	127
136.7067120181406	136.81120181405896	42	127
136.7067120181406	136.81120181405896	54	127
136.9273015873016	137.0434013605442	65	127
136.9273015873016	137.0434013605442	77	127
136.9273015873016	137.0434013605442	38	127
136.9273015873016	137.0434013605442	50	127
137.15950113378685	137.25238095238095	66	127
137.15950113378685	137.25238095238095	78	127
137.15950113378685	137.25238095238095	39	127
137.15950113378685	137.25238095238095	51	127
137.38009070294785	137.47297052154195	68	127
137.38009070294785	137.47297052154195	80	127
137.38009070294785	137.47297052154195	32	127
137.38009070294785	137.47297052154195	44	127
137.8677097505669	137.9954195011338	65	127
137.8677097505669	137.9954195011338	68	127
137.8677097505669	137.9954195011338	74	127
137.8677097505669	137.9954195011338	77	127
137.8677097505669	137.9954195011338	34	127
137.8677097505669	137.9954195011338	46	127
138.41337868480727	138.50625850340137	78	127
138.50625850340137	138.62233560090704	80	127
138.62233560090704	138.73845804988662	82	127
138.73845804988662	138.86616780045352	80	127
138.86616780045352	138.9706575963719	78	127
138.9706575963719	139.063537414966	80	127
139.063537414966	139.17963718820863	78	127
139.17963718820863	139.27251700680273	77	127
139.29573696145124	139.4002267573696	75	127
139.4002267573696	139.51632653061225	77	127
139.51632653061225	139.62081632653062	78	127
139.62081632653062	139.73691609977325	77	127
139.73691609977325	139.85301587301586	75	127
139.85301587301586	139.9691156462585	77	127
139.9691156462585	140.0968253968254	75	127
140.0968253968254	140.17809523809524	73	127
140.1897052154195	140.30578231292517	71	127
140.30578231292517	140.43351473922903	73	127
140.43351473922903	140.54961451247166	75	127
140.54961451247166	140.66569160997733	73	127
140.66569160997733	140.79342403628118	71	127
140.79342403628118	140.89791383219955	73	127
140.89791383219955	141.0140136054422	71	127
141.0140136054422	141.09528344671202	70	127
141.11850340136056	141.26943310657597	68	127
141.26943310657597	141.39714285714285	70	127
141.39714285714285	141.54807256235827	68	127
141.54807256235827	141.6641723356009	67	127
141.6641723356009	141.78027210884355	68	127
141.78027210884355	141.89637188208616	70	127
141.89637188208616	142.02408163265306	68	127
142.02408163265306	142.1053514739229	67	127
142.12857142857143	142.86	50	127
142.12857142857143	142.2562811791383	68	127
142.12857142857143	143.97455782312926	47	127
142.2562811791383	142.3956009070295	70	127
142.3956009070295	142.52331065759637	68	127
142.52331065759637	142.639410430839	67	127
142.639410430839	142.74390022675738	68	127
142.74390022675738	142.86	70	127
142.86	142.97609977324262	68	127
142.86	143.080589569161	51	127
142.97609977324262	143.10380952380953	67	127
143.12702947845804	143.24312925170068	68	127
143.12702947845804	143.83521541950114	53	127
143.24312925170068	143.35922902494332	70	127
143.35922902494332	143.47530612244898	68	127
143.47530612244898	143.60303854875283	67	127
143.60303854875283	143.73072562358277	68	127
143.73072562358277	143.83521541950114	70	127
143.83521541950114	144.00938775510204	51	127
143.83521541950114	143.95133786848072	68	127
143.95133786848072	144.03260770975058	67	127
144.0558276643991	144.16031746031746	68	127
144.0558276643991	145.91342403628119	46	127
144.0558276643991	144.82208616780045	50	127
144.16031746031746	144.28802721088437	70	127
144.28802721088437	144.43895691609978	68	127
144.43895691609978	144.53183673469388	67	127
144.53183673469388	144.67115646258503	68	127
144.67115646258503	144.82208616780045	70	127
144.82208616780045	145.00784580498868	51	127
144.82208616780045	144.9381859410431	68	127
144.9381859410431	145.0310657596372	67	127
145.05428571428573	145.77410430839004	53	127
145.05428571428573	145.17038548752834	68	127
145.17038548752834	145.26326530612246	70	127
145.26326530612246	145.37936507936507	68	127
145.37936507936507	145.4954648526077	67	127
145.4954648526077	145.64639455782313	68	127
145.64639455782313	145.77410430839004	70	127
145.77410430839004	145.90181405895692	68	127
145.77410430839004	145.99469387755101	51	127
145.90181405895692	146.01791383219955	67	127
146.04113378684806	146.1572335600907	68	127
146.04113378684806	148.25863945578232	34	127
146.04113378684806	148.25863945578232	46	127
146.1572335600907	146.2849433106576	69	127
146.2849433106576	146.40104308390022	70	127
146.40104308390022	146.52875283446713	71	127
146.52875283446713	146.66807256235828	72	127
146.66807256235828	146.80739229024942	73	127
146.80739229024942	146.9699319727891	74	127
146.9699319727891	147.09764172335602	75	127
147.09764172335602	147.23696145124717	76	127
147.23696145124717	147.3530612244898	77	127
147.3530612244898	147.46916099773242	78	127
147.46916099773242	147.59687074829932	79	127
147.59687074829932	147.7709977324263	82	127
147.7709977324263	147.91034013605443	80	127
147.91034013605443	148.08448979591836	77	127
148.08448979591836	148.23541950113378	74	127
148.25863945578232	148.39795918367346	39	127
148.25863945578232	148.79267573696146	75	127
148.5140589569161	148.64174603174604	51	127
148.79267573696146	149.0016553287982	70	127
149.04809523809524	149.1409977324263	51	127
149.04809523809524	149.1409977324263	70	127
149.22226757369614	149.33836734693878	50	127
149.22226757369614	149.6750566893424	77	127
149.44285714285715	149.55893424036282	46	127
149.6750566893424	149.83759637188209	70	127
149.8956462585034	150.01174603174604	70	127
149.8956462585034	150.01174603174604	50	127
150.13945578231292	150.26716553287983	79	127
150.13945578231292	150.26716553287983	51	127
150.3716553287982	150.47614512471657	79	127
150.3716553287982	150.47614512471657	39	127
150.59224489795918	150.68510204081633	48	127
150.59224489795918	150.82444444444445	79	127
150.82444444444445	150.92893424036282	82	127
150.82444444444445	150.92893424036282	44	127
150.92893424036282	151.01020408163265	80	127
151.0334240362812	151.2772335600907	79	127
151.0334240362812	151.1495238095238	46	127
151.2772335600907	151.4397732426304	77	127
151.2772335600907	151.3701133786848	34	127
151.48621315192744	151.6022902494331	82	127
151.48621315192744	151.6022902494331	46	127
151.74163265306123	151.8461224489796	82	127
151.74163265306123	151.8461224489796	44	127
151.96219954648527	152.40340136054422	87	127
151.96219954648527	152.08993197278912	43	127
152.20603174603175	152.28730158730158	39	127
152.40340136054422	152.5078911564626	79	127
152.40340136054422	152.5078911564626	34	127
152.62399092970523	152.7517006802721	79	127
152.62399092970523	152.7517006802721	31	127
152.86780045351475	153.29736961451246	84	127
152.86780045351475	152.97229024943312	32	127
153.07678004535148	153.16965986394558	36	127
153.29736961451246	153.40185941043083	77	127
153.29736961451246	153.40185941043083	41	127
153.55278911564625	153.6688888888889	77	127
153.55278911564625	153.6688888888889	44	127
153.78498866213152	153.90108843537416	34	127
153.78498866213152	154.02879818594104	82	127
154.02879818594104	154.14489795918368	79	127
154.02879818594104	154.14489795918368	46	127
154.14489795918368	154.24938775510205	75	127
154.27260770975056	154.3887074829932	34	127
154.27260770975056	154.49319727891157	80	127
154.49319727891157	154.6092970521542	77	127
154.49319727891157	154.59768707482993	46	127
154.6092970521542	154.71378684807257	74	127
154.72537414965987	154.81827664399094	75	127
154.72537414965987	154.81827664399094	39	127
154.93437641723355	155.21301587301588	53	127
155.21301587301588	155.35233560090703	55	127
155.21301587301588	155.50326530612244	51	127
155.35233560090703	155.50326530612244	58	127
155.50326530612244	155.59614512471654	63	127
155.50326530612244	155.64256235827665	49	127
155.59614512471654	155.65419501133786	67	127
155.65419501133786	155.75868480725623	56	127
155.65419501133786	155.8631746031746	48	127
155.75868480725623	155.8631746031746	60	127
155.8631746031746	156.06054421768707	44	127
155.8631746031746	155.94444444444446	63	127
155.94444444444446	156.06054421768707	68	127
156.06054421768707	156.2695238095238	39	127
156.06054421768707	156.1766439909297	56	127
156.1766439909297	156.2695238095238	60	127
156.2695238095238	156.37401360544217	63	127
156.2695238095238	156.4901133786848	36	127
156.37401360544217	156.46689342403627	68	127
156.4901133786848	156.59460317460318	56	127
156.4901133786848	156.71070294784582	37	127
156.59460317460318	156.71070294784582	58	127
156.71070294784582	156.8384126984127	65	127
156.71070294784582	156.95451247165533	41	127
156.8384126984127	156.95451247165533	68	127
156.95451247165533	157.17507936507937	46	127
156.95451247165533	157.0590022675737	56	127
157.0590022675737	157.17507936507937	58	127
157.17507936507937	157.30281179138322	65	127
157.17507936507937	157.41891156462586	49	127
157.30281179138322	157.39569160997732	68	127
157.41891156462586	157.6511111111111	39	127
157.41891156462586	157.53498866213152	60	127
157.53498866213152	157.6511111111111	63	127
157.6511111111111	157.76721088435374	56	127
157.6511111111111	157.84848072562357	51	127
157.76721088435374	157.84848072562357	60	127
157.84848072562357	157.95297052154194	58	127
157.84848072562357	158.09229024943312	39	127
157.95297052154194	158.09229024943312	61	127
158.09229024943312	158.3128798185941	51	127
158.09229024943312	158.18517006802722	63	127
158.18517006802722	158.2896598639456	61	127
158.3128798185941	158.85854875283448	44	127
158.3128798185941	158.85854875283448	60	127
158.85854875283448	158.96303854875285	87	127
158.96303854875285	159.04430839002268	85	127
159.06750566893425	159.18362811791383	84	127
159.18362811791383	159.27648526077098	82	127
159.29972789115646	159.40421768707483	80	127
159.40421768707483	159.46226757369615	79	127
159.5087074829932	159.61319727891157	77	127
159.61319727891157	159.70607709750567	75	127
159.7292970521542	159.8337641723356	75	127
159.7292970521542	159.8337641723356	61	127
159.7292970521542	159.8337641723356	63	127
159.7292970521542	159.8337641723356	67	127
159.984716553288	160.1008163265306	75	127
159.984716553288	160.1008163265306	61	127
159.984716553288	160.1008163265306	63	127
159.984716553288	160.1008163265306	67	127
160.20530612244897	160.27496598639456	77	127
160.20530612244897	160.65809523809523	60	127
160.20530612244897	160.65809523809523	63	127
160.20530612244897	160.65809523809523	68	127
160.27496598639456	160.3214058956916	75	127
160.3214058956916	160.36784580498866	74	127
160.36784580498866	160.4142857142857	75	127
160.4142857142857	160.61165532879818	80	127
160.65809523809523	160.7974149659864	75	127
160.91351473922902	161.01800453514738	75	127
161.13410430839002	161.34308390022676	58	127
161.13410430839002	161.34308390022676	61	127
161.13410430839002	161.34308390022676	67	127
161.13410430839002	161.34308390022676	63	127
161.13410430839002	161.34308390022676	75	127
161.34308390022676	161.54045351473923	82	127
161.58689342403628	161.84231292517006	56	127
161.58689342403628	161.84231292517006	75	127
161.58689342403628	161.84231292517006	60	127
161.58689342403628	161.84231292517006	63	127
161.84231292517006	162.0280725623583	84	127
162.07451247165534	162.28349206349208	58	127
162.07451247165534	162.28349206349208	61	127
162.07451247165534	162.28349206349208	55	127
162.07451247165534	162.28349206349208	64	127
162.07451247165534	162.28349206349208	76	127
162.28349206349208	162.49244897959184	85	127
163.00328798185942	163.44448979591837	46	127
163.00328798185942	163.44448979591837	58	127
163.23551020408163	163.35160997732427	60	127
163.23551020408163	163.35160997732427	64	127
163.23551020408163	163.35160997732427	67	127
163.23551020408163	163.35160997732427	72	127
163.44448979591837	163.57219954648525	60	127
163.44448979591837	163.57219954648525	64	127
163.44448979591837	163.57219954648525	67	127
163.44448979591837	163.57219954648525	72	127
163.71151927437643	163.8160090702948	64	127
163.71151927437643	163.8160090702948	60	127
163.71151927437643	163.8160090702948	67	127
163.71151927437643	163.8160090702948	72	127
163.9321088435374	164.41972789115647	56	127
163.9321088435374	164.41972789115647	44	127
164.1875283446712	164.30362811791383	60	127
164.1875283446712	164.30362811791383	65	127
164.1875283446712	164.30362811791383	72	127
164.41972789115647	164.51260770975057	72	127
164.41972789115647	164.51260770975057	60	127
164.41972789115647	164.51260770975057	65	127
164.61709750566894	164.68675736961453	60	127
164.61709750566894	164.68675736961453	65	127
164.61709750566894	164.68675736961453	72	127
164.80285714285714	165.2208163265306	55	127
164.80285714285714	165.2208163265306	43	127
165.00020408163266	165.11632653061224	67	127
165.00020408163266	165.11632653061224	72	127
165.00020408163266	165.11632653061224	60	127
165.00020408163266	165.11632653061224	64	127
165.2208163265306	165.6968253968254	53	127
165.2208163265306	165.6968253968254	41	127
165.4530158730159	165.58072562358277	68	127
165.4530158730159	165.58072562358277	72	127
165.4530158730159	165.58072562358277	65	127
165.4530158730159	165.58072562358277	60	127
165.6968253968254	165.94063492063492	40	127
165.6968253968254	165.94063492063492	52	127
165.94063492063492	166.1031746031746	60	127
165.94063492063492	166.1031746031746	67	127
165.94063492063492	166.1031746031746	70	127
165.94063492063492	166.1031746031746	72	127
166.2308843537415	166.34698412698413	60	127
166.2308843537415	166.34698412698413	36	127
166.2308843537415	166.34698412698413	48	127
166.46308390022676	166.5791836734694	60	127
166.46308390022676	166.5791836734694	36	127
166.46308390022676	166.5791836734694	48	127
166.70689342403628	167.63569160997733	61	127
166.70689342403628	167.63569160997733	37	127
166.70689342403628	167.63569160997733	49	127
167.63569160997733	167.8330612244898	60	127
167.63569160997733	167.8330612244898	36	127
167.63569160997733	167.8330612244898	48	127
167.89111111111112	167.99560090702948	64	127
167.99560090702948	168.11170068027212	76	127
168.11170068027212	168.22780045351473	65	127
168.22780045351473	168.3322902494331	77	127
168.3322902494331	168.44839002267574	67	127
168.44839002267574	168.52965986394557	79	127
168.52965986394557	168.6225396825397	68	127
168.52965986394557	168.7270068027211	48	127
168.52965986394557	168.7270068027211	60	127
168.6225396825397	168.7270068027211	80	127
168.7270068027211	168.84312925170067	70	127
168.84312925170067	168.98242630385488	82	127
168.98242630385488	169.08691609977325	68	127
168.98242630385488	169.16820861678005	48	127
168.98242630385488	169.16820861678005	60	127
169.08691609977325	169.16820861678005	80	127
169.16820861678005	169.2843083900227	67	127
169.2843083900227	169.42362811791384	79	127
169.42362811791384	169.51650793650794	53	127
169.42362811791384	169.51650793650794	65	127
169.42362811791384	169.5281179138322	68	127
169.5281179138322	169.7022448979592	80	127
169.7022448979592	169.82997732426304	65	127
169.82997732426304	169.94607709750568	77	127
169.94607709750568	170.05056689342405	60	127
169.94607709750568	170.05056689342405	36	127
169.94607709750568	170.05056689342405	48	127
170.16666666666666	170.23632653061225	60	127
170.16666666666666	170.23632653061225	36	127
170.16666666666666	170.23632653061225	48	127
170.31757369614513	171.26961451247166	62	127
170.31757369614513	171.26961451247166	38	127
170.31757369614513	171.26961451247166	50	127
171.26961451247166	171.45537414965986	63	127
171.26961451247166	171.45537414965986	39	127
171.26961451247166	171.45537414965986	51	127
171.5018140589569	171.61791383219955	62	127
171.61791383219955	171.71079365079365	74	127
171.71079365079365	171.83850340136055	63	127
171.83850340136055	171.95460317460316	75	127
171.95460317460316	172.0707029478458	65	127
172.0707029478458	172.1635827664399	77	127
172.1635827664399	172.27968253968254	67	127
172.1635827664399	172.39578231292518	46	127
172.1635827664399	172.39578231292518	58	127
172.27968253968254	172.39578231292518	79	127
172.39578231292518	172.52349206349206	68	127
172.52349206349206	172.62798185941043	80	127
172.62798185941043	172.74408163265306	67	127
172.62798185941043	172.84857142857143	46	127
172.62798185941043	172.84857142857143	58	127
172.74408163265306	172.84857142857143	79	127
172.84857142857143	172.96467120181407	65	127
172.96467120181407	173.09238095238095	77	127
173.09238095238095	173.19687074829932	51	127
173.09238095238095	173.19687074829932	63	127
173.09238095238095	173.19687074829932	67	127
173.19687074829932	173.32458049886623	79	127
173.32458049886623	173.4522902494331	63	127
173.4522902494331	173.5451700680272	75	127
173.5451700680272	173.63802721088436	62	127
173.5451700680272	173.63802721088436	38	127
173.5451700680272	173.63802721088436	50	127
173.74251700680273	173.8586394557823	62	127
173.74251700680273	173.8586394557823	38	127
173.74251700680273	173.8586394557823	50	127
173.97473922902495	174.47396825396825	63	127
173.97473922902495	174.47396825396825	39	127
173.97473922902495	174.47396825396825	51	127
174.47396825396825	174.62489795918367	64	127
174.47396825396825	174.62489795918367	40	127
174.47396825396825	174.62489795918367	52	127
174.71777777777777	174.84548752834468	64	127
174.71777777777777	174.84548752834468	40	127
174.71777777777777	174.84548752834468	52	127
174.96158730158731	175.41437641723357	65	127
174.96158730158731	175.41437641723357	41	127
174.96158730158731	175.41437641723357	53	127
175.41437641723357	175.51886621315194	54	127
175.41437641723357	175.51886621315194	66	127
175.41437641723357	175.51886621315194	42	127
175.6233560090703	175.75106575963719	66	127
175.6233560090703	175.75106575963719	42	127
175.6233560090703	175.75106575963719	54	127
175.83231292517007	175.92521541950114	67	127
175.83231292517007	175.92521541950114	43	127
175.83231292517007	175.92521541950114	55	127
176.0297052154195	176.14580498866212	67	127
176.0297052154195	176.14580498866212	43	127
176.0297052154195	176.14580498866212	55	127
176.26190476190476	176.36639455782313	57	127
176.26190476190476	176.36639455782313	69	127
176.26190476190476	176.36639455782313	45	127
176.45927437641723	176.57537414965986	69	127
176.45927437641723	176.57537414965986	45	127
176.45927437641723	176.57537414965986	57	127
176.74952380952382	177.23714285714286	58	127
176.74952380952382	177.23714285714286	70	127
176.74952380952382	177.23714285714286	46	127
177.8524716553288	178.04984126984127	51	127
177.8524716553288	178.04984126984127	39	127
177.8524716553288	177.96857142857144	58	127
177.96857142857144	178.04984126984127	67	127
178.04984126984127	178.15433106575964	63	127
178.15433106575964	178.28204081632654	67	127
178.28204081632654	178.53746031746033	51	127
178.28204081632654	178.40975056689342	58	127
178.28204081632654	178.53746031746033	39	127
178.40975056689342	178.53746031746033	67	127
178.53746031746033	178.65356009070294	63	127
178.65356009070294	178.76965986394558	67	127
178.76965986394558	178.87414965986395	62	127
178.76965986394558	178.96702947845804	34	127
178.76965986394558	178.96702947845804	46	127
178.87414965986395	178.96702947845804	70	127
178.96702947845804	179.0715192743764	65	127
179.0715192743764	179.19922902494332	70	127
179.19922902494332	179.4198185941043	34	127
179.19922902494332	179.4198185941043	46	127
179.19922902494332	179.3037188208617	62	127
179.3037188208617	179.4198185941043	70	127
179.4198185941043	179.51269841269843	65	127
179.51269841269843	179.62879818594104	70	127
179.62879818594104	179.7332879818594	60	127
179.62879818594104	179.84938775510204	41	127
179.62879818594104	179.84938775510204	53	127
179.7332879818594	179.8609977324263	68	127
179.8609977324263	179.96548752834468	65	127
179.96548752834468	180.0467573696145	68	127
180.0467573696145	180.15124716553288	60	127
180.0467573696145	180.2789569160998	41	127
180.0467573696145	180.2789569160998	53	127
180.15124716553288	180.2789569160998	68	127
180.2789569160998	180.3950566893424	65	127
180.3950566893424	180.51115646258503	68	127
180.51115646258503	181.4631746031746	36	127
180.51115646258503	180.60403628117913	63	127
180.51115646258503	181.4631746031746	48	127
180.60403628117913	180.74333333333334	72	127
180.74333333333334	180.85945578231292	67	127
180.85945578231292	180.97555555555556	72	127
180.97555555555556	181.1032426303855	63	127
181.1032426303855	181.21936507936508	72	127
181.21936507936508	181.34707482993198	67	127
181.34707482993198	181.4631746031746	72	127
181.4631746031746	181.55605442176872	63	127
181.4631746031746	181.67215419501133	44	127
181.4631746031746	181.67215419501133	56	127
181.55605442176872	181.67215419501133	72	127
181.67215419501133	181.79986394557824	68	127
181.79986394557824	181.9159410430839	72	127
181.9159410430839	182.00884353741498	63	127
181.9159410430839	182.12492063492064	44	127
181.9159410430839	182.12492063492064	56	127
182.00884353741498	182.12492063492064	72	127
182.12492063492064	182.19460317460317	68	127
182.19460317460317	182.29909297052154	72	127
182.29909297052154	182.38034013605443	67	127
182.29909297052154	182.496462585034	39	127
182.29909297052154	182.496462585034	51	127
182.38034013605443	182.496462585034	75	127
182.496462585034	182.60095238095238	70	127
182.60095238095238	182.71705215419502	75	127
182.71705215419502	182.93764172335602	51	127
182.71705215419502	182.82154195011339	67	127
182.71705215419502	182.93764172335602	39	127
182.82154195011339	182.93764172335602	70	127
182.93764172335602	183.0653514739229	63	127
183.0653514739229	183.1930612244898	67	127
183.1930612244898	183.2975283446712	65	127
183.1930612244898	183.42526077097506	38	127
183.1930612244898	183.42526077097506	50	127
183.2975283446712	183.43687074829933	70	127
183.43687074829933	183.552947845805	68	127
183.552947845805	183.61102040816326	65	127
183.61102040816326	183.7271201814059	63	127
183.61102040816326	183.83160997732426	39	127
183.61102040816326	183.83160997732426	51	127
183.7271201814059	183.83160997732426	70	127
183.83160997732426	183.93609977324263	67	127
183.93609977324263	184.02897959183673	63	127
184.02897959183673	184.23795918367347	34	127
184.02897959183673	184.23795918367347	62	127
184.02897959183673	184.23795918367347	46	127
184.42369614512472	184.5281859410431	70	127
184.64430839002267	184.77201814058958	70	127
184.9461678004535	185.03902494331066	51	127
184.9461678004535	185.22480725623583	79	127
185.14353741496598	185.22480725623583	58	127
185.22480725623583	185.30607709750566	80	127
185.30607709750566	185.3525170068027	79	127
185.36412698412698	185.45700680272108	75	127
185.36412698412698	185.45700680272108	55	127
185.5963038548753	185.70079365079366	79	127
185.5963038548753	185.70079365079366	51	127
185.80528344671202	185.9214058956916	82	127
185.80528344671202	185.9214058956916	50	127
186.03750566893424	186.15360544217688	82	127
186.03750566893424	186.15360544217688	46	127
186.2697052154195	186.35097505668935	84	127
186.2697052154195	186.38580498866213	50	127
186.35097505668935	186.4206349206349	82	127
186.4206349206349	186.53673469387755	84	127
186.53673469387755	186.60639455782314	82	127
186.53673469387755	186.64122448979592	46	127
186.60639455782314	186.68766439909297	81	127
186.68766439909297	186.74571428571429	82	127
186.75732426303856	187.07079365079366	80	127
186.75732426303856	186.8734240362812	53	127
186.9778911564626	187.07079365079366	60	127
187.07079365079366	187.14045351473922	82	127
187.14045351473922	187.18687074829933	80	127
187.19850340136054	187.31460317460318	77	127
187.19850340136054	187.31460317460318	56	127
187.4422902494331	187.5584126984127	80	127
187.4422902494331	187.5584126984127	53	127
187.6861224489796	188.5336507936508	79	127
187.6861224489796	188.5336507936508	72	127
187.6861224489796	187.7790022675737	51	127
187.6861224489796	188.5336507936508	84	127
187.6861224489796	188.5336507936508	75	127
187.89510204081634	188.02281179138322	48	127
188.1040589569161	188.19696145124718	51	127
188.3130612244898	188.4059410430839	48	127
188.5336507936508	188.63814058956916	56	127
188.5336507936508	188.89356009070295	84	127
188.7774603174603	188.89356009070295	63	127
188.89356009070295	188.95160997732427	86	127
188.95160997732427	188.99804988662132	84	127
189.0096598639456	189.11414965986395	80	127
189.0096598639456	189.11414965986395	60	127
189.23022675736962	189.33473922902493	84	127
189.23022675736962	189.33473922902493	56	127
189.46244897959184	189.5669387755102	87	127
189.46244897959184	189.5669387755102	55	127
189.68303854875285	189.77591836734695	87	127
189.68303854875285	189.77591836734695	51	127
189.8919954648526	189.96167800453514	89	127
189.8919954648526	189.99648526077098	55	127
189.96167800453514	190.042947845805	87	127
190.042947845805	190.11260770975056	89	127
190.11260770975056	190.18226757369615	87	127
190.11260770975056	190.21709750566893	51	127
190.18226757369615	190.26353741496598	86	127
190.26353741496598	190.30997732426303	87	127
190.33319727891157	190.43768707482994	89	127
190.33319727891157	190.43768707482994	44	127
190.55378684807258	190.64666666666668	89	127
190.55378684807258	190.64666666666668	56	127
190.78598639455782	190.83242630385487	87	127
190.78598639455782	190.87886621315192	46	127
190.83242630385487	190.9136961451247	86	127
190.9136961451247	191.00657596371883	87	127
191.00657596371883	191.0762358276644	86	127
191.00657596371883	191.1342857142857	58	127
191.0762358276644	191.18072562358276	84	127
191.18072562358276	191.27360544217686	86	127
191.28521541950113	191.72639455782314	51	127
191.28521541950113	191.41292517006804	87	127
191.28521541950113	191.72639455782314	39	127
191.54063492063491	191.64512471655328	82	127
191.64512471655328	191.72639455782314	87	127
191.72639455782314	191.81927437641724	79	127
191.81927437641724	191.94698412698412	82	127
191.94698412698412	192.0514739229025	75	127
192.0514739229025	192.15596371882086	79	127
192.15596371882086	192.295283446712	80	127
192.295283446712	192.4229931972789	84	127
192.4229931972789	192.48104308390023	77	127
192.48104308390023	192.5855328798186	80	127
192.5855328798186	192.6784126984127	74	127
192.6784126984127	192.78290249433107	77	127
192.78290249433107	192.91061224489795	70	127
192.91061224489795	193.04993197278912	74	127
193.04993197278912	193.16603174603173	75	127
193.28213151927437	193.40984126984128	70	127
193.51433106575965	193.60721088435375	67	127
193.68848072562358	193.76975056689344	63	127
193.8742403628118	193.9903401360544	62	127
194.11804988662132	194.2225396825397	65	127
194.35024943310657	194.45473922902494	70	127
194.5940589569161	194.69854875283445	68	127
194.83786848072563	194.95396825396824	67	127
195.0584580498866	195.17455782312925	63	127
195.17455782312925	195.3138775510204	67	127
195.3138775510204	195.4415873015873	58	127
195.4415873015873	195.5344671201814	63	127
195.5344671201814	195.6621768707483	77	127
195.5344671201814	195.6621768707483	55	127
195.6621768707483	195.7898866213152	75	127
195.6621768707483	195.7898866213152	58	127
195.7898866213152	195.96403628117915	74	127
195.7898866213152	195.89437641723356	56	127
195.89437641723356	196.02208616780047	60	127
196.02208616780047	196.14979591836735	53	127
196.14979591836735	196.25428571428571	56	127
196.25428571428571	196.37038548752835	50	127
196.37038548752835	196.48648526077096	53	127
196.48648526077096	196.61419501133787	82	127
196.48648526077096	196.61419501133787	46	127
196.61419501133787	196.74190476190475	80	127
196.61419501133787	196.74190476190475	50	127
196.74190476190475	196.86961451247166	51	127
196.74190476190475	196.93927437641725	79	127
196.86961451247166	196.99732426303854	55	127
196.99732426303854	197.11342403628117	46	127
197.11342403628117	197.2295238095238	51	127
197.2295238095238	197.33401360544218	43	127
197.33401360544218	197.43850340136055	46	127
197.43850340136055	197.54299319727892	39	127
197.43850340136055	197.54299319727892	77	127
197.54299319727892	197.65909297052156	75	127
197.54299319727892	197.65909297052156	43	127
197.65909297052156	197.82163265306122	74	127
197.65909297052156	197.75197278911565	44	127
197.75197278911565	197.86807256235826	48	127
197.86807256235826	197.9841723356009	41	127
197.9841723356009	198.1467120181406	44	127
198.1467120181406	198.2395918367347	38	127
198.2395918367347	198.37891156462584	41	127
198.37891156462584	198.49501133786848	82	127
198.37891156462584	198.49501133786848	34	127
198.49501133786848	198.61111111111111	80	127
198.49501133786848	198.61111111111111	38	127
198.61111111111111	199.07551020408164	39	127
198.61111111111111	198.7039909297052	79	127
198.72721088435375	198.84331065759636	82	127
198.84331065759636	198.959410430839	79	127
198.959410430839	199.07551020408164	75	127
199.07551020408164	199.18	73	127
199.18	199.28448979591838	70	127
199.28448979591838	199.40058956916099	39	127
199.28448979591838	199.40058956916099	67	127
199.40058956916099	199.5282993197279	63	127
199.5282993197279	200.23650793650793	43	127
199.5282993197279	199.65600907029477	61	127
199.5282993197279	200.23650793650793	31	127
199.65600907029477	199.7721088435374	63	127
199.7721088435374	199.85337868480727	58	127
199.85337868480727	199.96947845804988	63	127
199.96947845804988	200.10879818594105	51	127
200.10879818594105	200.23650793650793	63	127
200.23650793650793	200.35260770975057	43	127
200.23650793650793	200.35260770975057	61	127
200.23650793650793	200.35260770975057	31	127
200.35260770975057	200.4687074829932	63	127
200.4687074829932	200.58480725623582	51	127
200.4687074829932	201.10725623582766	44	127
200.4687074829932	201.10725623582766	32	127
200.58480725623582	200.6892970521542	63	127
200.6892970521542	200.7821768707483	60	127
200.7821768707483	200.88666666666666	63	127
200.88666666666666	200.99115646258502	51	127
200.99115646258502	201.10725623582766	63	127
201.10725623582766	201.23496598639457	32	127
201.10725623582766	201.23496598639457	44	127
201.10725623582766	201.23496598639457	60	127
201.23496598639457	201.36267573696145	63	127
201.36267573696145	202.01283446712017	31	127
201.36267573696145	201.4787755102041	52	127
201.36267573696145	202.01283446712017	43	127
201.4787755102041	201.59487528344673	64	127
201.59487528344673	201.7225850340136	58	127
201.7225850340136	201.83868480725624	64	127
201.83868480725624	201.9431746031746	52	127
201.9431746031746	202.01283446712017	64	127
202.01283446712017	202.1057142857143	58	127
202.01283446712017	202.1057142857143	31	127
202.01283446712017	202.1057142857143	43	127
202.1057142857143	202.2218140589569	64	127
202.2218140589569	202.3611337868481	29	127
202.2218140589569	202.3611337868481	41	127
202.2218140589569	202.3611337868481	53	127
202.3611337868481	202.48884353741497	65	127
202.48884353741497	202.6049433106576	41	127
202.48884353741497	202.6049433106576	53	127
202.48884353741497	202.6049433106576	56	127
202.6049433106576	202.68621315192743	65	127
202.68621315192743	202.7907029478458	55	127
202.7907029478458	202.90680272108844	67	127
202.90680272108844	203.0112925170068	39	127
202.90680272108844	203.0112925170068	51	127
202.90680272108844	203.0112925170068	60	127
203.0112925170068	203.12739229024945	67	127
203.12739229024945	203.2318820861678	56	127
203.2318820861678	203.33637188208615	68	127
203.33637188208615	203.4524716553288	65	127
203.33637188208615	203.4524716553288	38	127
203.33637188208615	203.4524716553288	50	127
203.4524716553288	203.5453514739229	68	127
203.5453514739229	203.64984126984126	57	127
203.64984126984126	203.7659410430839	69	127
203.7659410430839	203.8936507936508	36	127
203.7659410430839	203.8936507936508	48	127
203.7659410430839	203.8936507936508	63	127
203.8936507936508	204.03297052154196	69	127
204.03297052154196	204.1490702947846	58	127
204.03297052154196	204.4857596371882	34	127
204.03297052154196	204.4857596371882	46	127
204.1490702947846	204.2651700680272	70	127
204.2651700680272	204.36965986394557	62	127
204.36965986394557	204.4857596371882	70	127
204.4857596371882	204.6482993197279	60	127
204.6482993197279	204.76439909297054	72	127
204.76439909297054	204.86888888888888	63	127
204.86888888888888	204.97337868480724	72	127
204.97337868480724	205.0778684807256	61	127
205.0778684807256	205.1475283446712	73	127
205.1475283446712	205.28684807256235	64	127
205.28684807256235	205.37972789115645	73	127
205.37972789115645	205.4958276643991	62	127
205.4958276643991	205.623537414966	74	127
205.623537414966	205.66997732426304	65	127
205.66997732426304	205.79768707482992	74	127
205.79768707482992	206.32013605442177	75	127
206.32013605442177	206.41301587301587	67	127
206.57555555555555	206.6916553287982	67	127
206.7845351473923	207.23732426303854	72	127
207.23732426303854	207.33020408163264	65	127
207.45791383219955	207.55079365079365	65	127
207.71333333333334	207.7829931972789	70	127
207.89909297052154	208.03841269841269	70	127
208.15451247165532	208.24739229024942	70	127
208.24739229024942	208.34027210884355	72	127
208.34027210884355	208.44476190476192	70	127
208.44476190476192	208.56086167800453	68	127
208.58408163265307	208.7001814058957	67	127
208.7001814058957	208.81628117913831	68	127
208.81628117913831	208.93238095238095	67	127
208.93238095238095	209.0484807256236	65	127
209.0484807256236	209.1413605442177	63	127
209.1413605442177	209.26907029478457	67	127
209.26907029478457	209.37356009070294	65	127
209.37356009070294	209.4548299319728	63	127
209.4780498866213	209.58253968253968	62	127
209.58253968253968	209.6986394557823	63	127
209.6986394557823	209.81473922902495	46	127
209.6986394557823	209.81473922902495	62	127
209.81473922902495	209.90761904761905	60	127
209.81473922902495	209.93083900226756	48	127
209.93083900226756	210.0237188208617	50	127
209.93083900226756	210.0469387755102	58	127
210.0469387755102	210.15142857142857	65	127
210.15142857142857	210.25591836734694	62	127
210.25591836734694	210.33718820861677	65	127
210.33718820861677	210.44167800453513	58	127
210.44167800453513	210.55777777777777	67	127
210.55777777777777	210.6738775510204	39	127
210.55777777777777	210.6738775510204	60	127
210.6738775510204	210.82480725623583	41	127
210.6738775510204	210.82480725623583	67	127
210.82480725623583	210.9292970521542	43	127
210.82480725623583	210.96412698412698	58	127
210.96412698412698	211.06861678004535	64	127
211.06861678004535	211.16149659863945	60	127
211.16149659863945	211.2659863945578	64	127
211.2659863945578	211.38208616780045	57	127
211.38208616780045	211.4981859410431	65	127
211.4981859410431	211.56784580498865	60	127
211.4981859410431	211.56784580498865	41	127
211.56784580498865	211.69555555555556	65	127
211.56784580498865	211.69555555555556	43	127
211.69555555555556	211.7768253968254	45	127
211.69555555555556	211.80004535147393	60	127
211.80004535147393	211.91614512471656	65	127
211.91614512471656	212.00902494331066	63	127
211.91614512471656	212.00902494331066	43	127
212.00902494331066	212.10190476190476	65	127
212.00902494331066	212.10190476190476	45	127
212.10190476190476	212.19478458049886	46	127
212.10190476190476	212.2180045351474	58	127
212.2180045351474	212.35732426303855	65	127
212.35732426303855	212.4734240362812	62	127
212.35732426303855	212.4734240362812	46	127
212.4734240362812	212.5895238095238	65	127
212.4734240362812	212.5895238095238	48	127
212.5895238095238	212.68240362811792	50	127
212.5895238095238	212.68240362811792	56	127
212.68240362811792	212.79850340136053	65	127
212.79850340136053	212.9029931972789	58	127
212.79850340136053	212.9029931972789	48	127
212.9029931972789	212.995873015873	50	127
212.9029931972789	213.01909297052154	65	127
213.01909297052154	213.4718820861678	39	127
213.01909297052154	213.4718820861678	51	127
213.01909297052154	213.20485260770974	58	127
213.01909297052154	213.20485260770974	63	127
213.01909297052154	213.20485260770974	55	127
213.20485260770974	213.33256235827665	79	127
213.33256235827665	213.4718820861678	80	127
213.4718820861678	213.58798185941043	82	127
213.4718820861678	213.61120181405894	31	127
213.4718820861678	213.61120181405894	43	127
213.77374149659863	213.878231292517	43	127
213.77374149659863	213.878231292517	31	127
213.9711111111111	214.4122902494331	36	127
213.9711111111111	214.4122902494331	48	127
214.18009070294784	214.2845804988662	80	127
214.2845804988662	214.4122902494331	82	127
214.4122902494331	214.51678004535148	84	127
214.4122902494331	214.54	29	127
214.4122902494331	214.54	41	127
214.6677097505669	214.78380952380954	29	127
214.6677097505669	214.78380952380954	41	127
214.9231292517007	215.01600907029479	34	127
214.9231292517007	215.01600907029479	46	127
215.13210884353742	215.22498866213152	46	127
215.13210884353742	215.22498866213152	74	127
215.22498866213152	215.34108843537416	75	127
215.34108843537416	215.44557823129253	77	127
215.34108843537416	215.44557823129253	46	127
215.44557823129253	215.53845804988663	70	127
215.44557823129253	215.53845804988663	48	127
215.53845804988663	215.67777777777778	72	127
215.53845804988663	215.67777777777778	46	127
215.67777777777778	215.78226757369615	74	127
215.67777777777778	215.78226757369615	44	127
215.81709750566893	215.93319727891156	75	127
215.81709750566893	215.93319727891156	43	127
215.93319727891156	216.06090702947847	42	127
216.06090702947847	216.1653968253968	87	127
216.06090702947847	216.1653968253968	43	127
216.1653968253968	216.25827664399094	39	127
216.28149659863945	216.3975963718821	84	127
216.28149659863945	216.3975963718821	44	127
216.3975963718821	216.47886621315192	46	127
216.47886621315192	216.59496598639456	87	127
216.47886621315192	216.59496598639456	44	127
216.59496598639456	216.68784580498865	43	127
216.7110657596372	216.82716553287983	86	127
216.7110657596372	216.82716553287983	41	127
216.82716553287983	216.94326530612244	40	127
216.94326530612244	217.03614512471654	89	127
216.94326530612244	217.03614512471654	41	127
217.03614512471654	217.12902494331067	38	127
217.15224489795918	217.2799546485261	83	127
217.15224489795918	217.2799546485261	43	127
217.2799546485261	217.3960544217687	44	127
217.3960544217687	217.48893424036282	86	127
217.3960544217687	217.48893424036282	43	127
217.48893424036282	217.58181405895692	41	127
217.60503401360543	217.6863038548753	39	127
217.60503401360543	217.6863038548753	84	127
217.6863038548753	217.7791836734694	38	127
217.7791836734694	217.9301133786848	87	127
217.7791836734694	217.9301133786848	39	127
217.9301133786848	218.03460317460318	36	127
218.0578231292517	218.4990022675737	53	127
218.0578231292517	218.17392290249433	81	127
218.0578231292517	218.4990022675737	41	127
218.26680272108842	218.38290249433106	84	127
218.4990022675737	218.9401814058957	46	127
218.4990022675737	218.5918820861678	82	127
218.4990022675737	218.9401814058957	34	127
218.70798185941044	218.82408163265305	85	127
218.9401814058957	219.04467120181405	79	127
218.9401814058957	219.42780045351475	39	127
218.9401814058957	219.42780045351475	51	127
219.1607709750567	219.30009070294784	82	127
219.42780045351475	219.89219954648527	44	127
219.42780045351475	219.53229024943312	80	127
219.42780045351475	219.89219954648527	32	127
219.66	219.77609977324263	82	127
219.77609977324263	219.89219954648527	84	127
219.89219954648527	220.00829931972788	41	127
219.89219954648527	220.00829931972788	53	127
219.89219954648527	220.00829931972788	85	127
220.00829931972788	220.1360090702948	87	127
220.1360090702948	220.2288888888889	56	127
220.1360090702948	220.2288888888889	44	127
220.1360090702948	220.2288888888889	85	127
220.2288888888889	220.321768707483	84	127
220.34498866213153	220.4494784580499	82	127
220.34498866213153	220.4494784580499	43	127
220.34498866213153	220.4494784580499	55	127
220.4494784580499	220.5655782312925	81	127
220.5655782312925	220.68167800453514	46	127
220.5655782312925	220.68167800453514	58	127
220.5655782312925	220.68167800453514	82	127
220.68167800453514	220.79777777777778	79	127
220.8209977324263	220.93709750566893	40	127
220.8209977324263	220.93709750566893	52	127
220.8209977324263	220.93709750566893	84	127
220.93709750566893	221.05319727891157	85	127
221.05319727891157	221.15768707482994	43	127
221.05319727891157	221.15768707482994	55	127
221.05319727891157	221.1692970521542	84	127
221.1692970521542	221.2621768707483	82	127
221.28539682539682	221.38988662131518	41	127
221.28539682539682	221.38988662131518	53	127
221.28539682539682	221.38988662131518	80	127
221.38988662131518	221.50598639455782	79	127
221.50598639455782	221.58725623582765	44	127
221.50598639455782	221.58725623582765	56	127
221.50598639455782	221.58725623582765	80	127
221.58725623582765	221.65691609977324	77	127
221.68013605442178	221.7962358276644	38	127
221.68013605442178	221.7962358276644	50	127
221.68013605442178	221.7962358276644	82	127
221.7962358276644	221.9471655328798	84	127
221.9471655328798	222.07487528344672	41	127
221.9471655328798	222.07487528344672	53	127
221.9471655328798	222.07487528344672	82	127
222.07487528344672	222.15614512471655	80	127
222.17936507936508	222.28385487528345	39	127
222.17936507936508	222.28385487528345	51	127
222.17936507936508	222.28385487528345	79	127
222.28385487528345	222.3999546485261	77	127
222.3999546485261	222.50444444444443	43	127
222.3999546485261	222.50444444444443	55	127
222.3999546485261	222.50444444444443	75	127
222.50444444444443	222.5857142857143	74	127
222.5857142857143	222.70181405895693	48	127
222.5857142857143	222.70181405895693	36	127
222.5857142857143	222.70181405895693	75	127
222.70181405895693	222.8295238095238	77	127
222.8295238095238	222.94562358276644	79	127
222.8295238095238	222.94562358276644	39	127
222.8295238095238	222.94562358276644	51	127
222.94562358276644	223.03850340136054	81	127
223.06172335600908	223.51451247165534	82	127
223.06172335600908	223.20104308390023	34	127
223.20104308390023	223.3055328798186	46	127
223.3055328798186	223.3984126984127	34	127
223.3984126984127	223.51451247165534	46	127
223.51451247165534	223.60739229024944	34	127
223.60739229024944	223.72349206349207	46	127
223.72349206349207	223.83959183673468	34	127
223.83959183673468	223.9673015873016	46	127
223.9673015873016	224.10662131519274	58	127
223.9673015873016	224.10662131519274	70	127
223.9673015873016	224.10662131519274	34	127
224.10662131519274	224.22272108843538	46	127
224.22272108843538	224.32721088435375	58	127
224.22272108843538	224.32721088435375	70	127
224.22272108843538	224.33882086167802	34	127
224.33882086167802	224.45492063492063	46	127
224.45492063492063	224.54780045351475	34	127
224.45492063492063	224.90770975056688	63	127
224.45492063492063	224.90770975056688	75	127
224.54780045351475	224.66390022675736	46	127
224.66390022675736	224.78	34	127
224.78	224.90770975056688	46	127
224.90770975056688	225.0354195011338	56	127
224.90770975056688	225.0354195011338	68	127
224.90770975056688	225.0354195011338	34	127
225.0354195011338	225.15151927437643	46	127
225.15151927437643	225.24439909297053	56	127
225.15151927437643	225.24439909297053	68	127
225.15151927437643	225.24439909297053	34	127
225.24439909297053	225.3488888888889	46	127
225.3488888888889	225.79006802721088	74	127
225.3488888888889	225.46498866213153	34	127
225.3488888888889	225.79006802721088	62	127
225.46498866213153	225.58108843537414	46	127
225.58108843537414	225.6855782312925	34	127
225.6855782312925	225.79006802721088	46	127
225.79006802721088	225.90616780045352	55	127
225.79006802721088	225.90616780045352	67	127
225.79006802721088	225.90616780045352	34	127
225.90616780045352	226.02226757369615	46	127
226.02226757369615	226.14997732426303	55	127
226.02226757369615	226.14997732426303	67	127
226.02226757369615	226.14997732426303	34	127
226.14997732426303	226.2544671201814	46	127
226.2544671201814	226.324126984127	34	127
226.2544671201814	226.6956462585034	60	127
226.2544671201814	226.6956462585034	72	127
226.324126984127	226.4402267573696	46	127
226.4402267573696	226.5679365079365	34	127
226.5679365079365	226.6956462585034	46	127
226.6956462585034	226.8233560090703	34	127
226.6956462585034	226.8233560090703	53	127
226.6956462585034	226.8233560090703	65	127
226.8233560090703	226.93945578231293	46	127
226.93945578231293	227.0439455782313	53	127
226.93945578231293	227.0439455782313	65	127
226.93945578231293	227.05555555555554	34	127
227.05555555555554	227.1600453514739	46	127
227.1600453514739	227.26453514739228	34	127
227.1600453514739	227.26453514739228	62	127
227.1600453514739	227.26453514739228	74	127
227.26453514739228	227.40385487528346	46	127
227.40385487528346	227.51995464852607	62	127
227.40385487528346	227.51995464852607	74	127
227.40385487528346	227.51995464852607	34	127
227.51995464852607	227.6360544217687	46	127
227.6360544217687	227.75215419501134	63	127
227.6360544217687	227.75215419501134	75	127
227.6360544217687	227.75215419501134	34	127
227.75215419501134	227.86825396825398	46	127
227.86825396825398	227.97274376417235	60	127
227.86825396825398	227.97274376417235	72	127
227.86825396825398	227.97274376417235	34	127
227.97274376417235	228.0772335600907	46	127
228.0772335600907	228.19333333333333	62	127
228.0772335600907	228.19333333333333	74	127
228.0772335600907	228.19333333333333	34	127
228.19333333333333	228.2978231292517	46	127
228.2978231292517	228.41392290249433	59	127
228.2978231292517	228.41392290249433	71	127
228.2978231292517	228.41392290249433	34	127
228.41392290249433	228.5184126984127	46	127
228.5184126984127	228.6112925170068	60	127
228.5184126984127	228.6112925170068	72	127
228.5184126984127	228.6112925170068	34	127
228.6112925170068	228.75061224489795	46	127
228.75061224489795	228.85510204081632	57	127
228.75061224489795	228.85510204081632	69	127
228.75061224489795	228.8667120181406	34	127
228.8667120181406	228.98281179138323	46	127
228.98281179138323	229.09891156462584	58	127
228.98281179138323	229.09891156462584	70	127
228.98281179138323	229.09891156462584	34	127
229.09891156462584	229.238231292517	46	127
229.238231292517	229.34272108843538	55	127
229.238231292517	229.34272108843538	67	127
229.238231292517	229.34272108843538	34	127
229.34272108843538	229.44721088435375	46	127
229.44721088435375	229.56331065759636	56	127
229.44721088435375	229.56331065759636	68	127
229.44721088435375	229.56331065759636	34	127
229.56331065759636	229.679410430839	46	127
229.679410430839	229.79551020408164	53	127
229.679410430839	229.79551020408164	65	127
229.679410430839	229.79551020408164	34	127
229.79551020408164	229.92321995464852	46	127
229.92321995464852	230.02770975056688	55	127
229.92321995464852	230.02770975056688	67	127
229.92321995464852	230.02770975056688	34	127
230.02770975056688	230.14380952380952	46	127
230.14380952380952	230.22507936507935	52	127
230.14380952380952	230.22507936507935	64	127
230.14380952380952	230.23668934240362	34	127
230.23668934240362	230.341179138322	46	127
230.341179138322	230.44566893424036	53	127
230.341179138322	230.44566893424036	65	127
230.341179138322	230.44566893424036	34	127
230.44566893424036	230.5849886621315	46	127
230.5849886621315	230.70108843537415	50	127
230.5849886621315	230.70108843537415	62	127
230.5849886621315	230.70108843537415	34	127
230.70108843537415	230.81718820861678	46	127
230.81718820861678	230.92167800453515	51	127
230.81718820861678	230.92167800453515	63	127
230.81718820861678	230.92167800453515	34	127
230.92167800453515	231.0377777777778	46	127
231.0377777777778	231.14226757369613	51	127
231.0377777777778	231.14226757369613	63	127
231.0377777777778	231.14226757369613	34	127
231.14226757369613	231.2467573696145	46	127
231.2467573696145	231.33963718820863	48	127
231.2467573696145	231.33963718820863	45	127
231.33963718820863	231.45573696145124	34	127
231.33963718820863	231.43251700680273	60	127
231.45573696145124	231.57183673469387	51	127
231.45573696145124	231.57183673469387	45	127
231.57183673469387	231.69954648526078	63	127
231.57183673469387	231.73437641723356	34	127
231.73437641723356	231.8504761904762	57	127
231.73437641723356	231.8504761904762	45	127
231.8504761904762	231.9433560090703	69	127
231.8504761904762	231.9665759637188	34	127
231.9665759637188	232.08267573696145	60	127
231.9665759637188	232.08267573696145	45	127
232.08267573696145	232.1639455782313	72	127
232.08267573696145	232.18716553287982	34	127
232.18716553287982	232.29165532879819	63	127
232.18716553287982	232.29165532879819	45	127
232.29165532879819	232.38453514739228	75	127
232.29165532879819	232.40775510204082	34	127
232.40775510204082	232.46580498866214	69	127
232.40775510204082	232.46580498866214	45	127
232.46580498866214	232.54707482993197	81	127
232.46580498866214	232.5702947845805	34	127
232.5702947845805	232.68639455782312	72	127
232.5702947845805	232.68639455782312	45	127
232.68639455782312	232.77927437641722	84	127
232.68639455782312	232.80249433106576	34	127
232.80249433106576	232.9185941043084	75	127
232.80249433106576	232.9185941043084	45	127
232.9185941043084	232.99986394557823	87	127
232.9185941043084	233.02308390022677	34	127
233.02308390022677	233.13918367346938	50	127
233.02308390022677	233.13918367346938	44	127
233.13918367346938	233.2320634920635	62	127
233.13918367346938	233.255283446712	34	127
233.255283446712	233.37138321995465	53	127
233.255283446712	233.37138321995465	44	127
233.37138321995465	233.46426303854875	65	127
233.37138321995465	233.4874829931973	34	127
233.4874829931973	233.59197278911566	58	127
233.4874829931973	233.59197278911566	44	127
233.59197278911566	233.68485260770976	70	127
233.59197278911566	233.71968253968254	34	127
233.71968253968254	233.8241723356009	62	127
233.71968253968254	233.8241723356009	44	127
233.8241723356009	233.9518820861678	34	127
233.8241723356009	233.92866213151927	74	127
233.9518820861678	234.06798185941042	65	127
233.9518820861678	234.06798185941042	44	127
234.06798185941042	234.137641723356	77	127
234.06798185941042	234.1724716553288	34	127
234.1724716553288	234.27696145124716	70	127
234.1724716553288	234.27696145124716	44	127
234.27696145124716	234.38145124716553	82	127
234.27696145124716	234.40467120181407	34	127
234.40467120181407	234.53238095238095	74	127
234.40467120181407	234.53238095238095	44	127
234.53238095238095	234.6136507936508	86	127
234.53238095238095	234.62526077097505	34	127
234.62526077097505	234.76458049886622	77	127
234.62526077097505	234.76458049886622	44	127
234.76458049886622	234.8690702947846	89	127
234.76458049886622	234.88068027210883	34	127
234.88068027210883	235.3682993197279	51	127
234.88068027210883	235.3682993197279	39	127
235.02	235.13609977324262	87	127
235.13609977324262	235.25219954648526	82	127
235.25219954648526	235.3682993197279	79	127
235.3682993197279	235.47278911564626	75	127
235.3682993197279	235.461179138322	39	127
235.47278911564626	235.60049886621314	70	127
235.60049886621314	235.75142857142856	39	127
235.60049886621314	235.75142857142856	67	127
235.75142857142856	235.8443083900227	63	127
235.8675283446712	236.00684807256235	58	127
235.8675283446712	236.2738775510204	49	127
236.00684807256235	236.09972789115648	67	127
236.09972789115648	236.20421768707482	63	127
236.20421768707482	236.2738775510204	58	127
236.2738775510204	236.35514739229026	39	127
236.2738775510204	236.37836734693877	55	127
236.37836734693877	236.4944671201814	67	127
236.4944671201814	236.61056689342405	39	127
236.4944671201814	236.61056689342405	63	127
236.61056689342405	236.73827664399093	58	127
236.76149659863947	236.87759637188208	56	127
236.76149659863947	237.23750566893423	48	127
236.87759637188208	237.00530612244899	68	127
237.00530612244899	237.12140589569162	63	127
237.12140589569162	237.23750566893423	60	127
237.23750566893423	237.3187755102041	39	127
237.23750566893423	237.3419954648526	56	127
237.3419954648526	237.4348752834467	68	127
237.4348752834467	237.55097505668934	39	127
237.4348752834467	237.55097505668934	63	127
237.55097505668934	237.64385487528344	60	127
237.66707482993198	237.77156462585035	56	127
237.66707482993198	238.07342403628118	50	127
237.77156462585035	237.88766439909298	68	127
237.88766439909298	237.9689342403628	65	127
237.9689342403628	238.07342403628118	58	127
238.07342403628118	238.16630385487528	39	127
238.07342403628118	238.18952380952382	56	127
238.18952380952382	238.3172335600907	68	127
238.3172335600907	238.43333333333334	65	127
238.3172335600907	238.43333333333334	39	127
238.43333333333334	238.52621315192744	58	127
238.54943310657598	239.06027210884355	51	127
238.66553287981858	238.7932426303855	87	127
238.7932426303855	238.93256235827664	82	127
238.93256235827664	239.06027210884355	79	127
239.06027210884355	239.14154195011338	39	127
239.06027210884355	239.16476190476192	75	127
239.16476190476192	239.31569160997734	70	127
239.31569160997734	239.39696145124717	39	127
239.31569160997734	239.40857142857143	67	127
239.40857142857143	239.48984126984126	63	127
239.50145124716553	239.59433106575963	58	127
239.50145124716553	239.89619047619047	49	127
239.59433106575963	239.68721088435373	67	127
239.68721088435373	239.7917006802721	63	127
239.7917006802721	239.89619047619047	58	127
239.89619047619047	239.96585034013606	39	127
239.89619047619047	239.98907029478457	55	127
239.98907029478457	240.11678004535148	67	127
240.11678004535148	240.24448979591835	39	127
240.11678004535148	240.24448979591835	63	127
240.24448979591835	240.33736961451248	58	127
240.360589569161	240.801768707483	48	127
240.360589569161	240.47668934240363	56	127
240.47668934240363	240.581179138322	68	127
240.581179138322	240.68566893424037	63	127
240.68566893424037	240.801768707483	60	127
240.801768707483	240.8946485260771	39	127
240.801768707483	240.91786848072562	56	127
240.91786848072562	241.04557823129252	68	127
241.04557823129252	241.13845804988662	39	127
241.04557823129252	241.13845804988662	63	127
241.13845804988662	241.23133786848072	60	127
241.25455782312926	241.3938775510204	56	127
241.25455782312926	241.69573696145125	50	127
241.3938775510204	241.50997732426305	68	127
241.50997732426305	241.59124716553288	65	127
241.59124716553288	241.69573696145125	58	127
241.69573696145125	241.78861678004534	39	127
241.69573696145125	241.81183673469388	56	127
241.81183673469388	241.92793650793652	68	127
241.92793650793652	242.04403628117913	65	127
241.92793650793652	242.04403628117913	39	127
242.04403628117913	242.13691609977323	58	127
242.1485260770975	243.00766439909296	51	127
242.1485260770975	242.2414058956916	55	127
242.2414058956916	242.34589569160997	63	127
242.34589569160997	242.4619954648526	58	127
242.4619954648526	242.57809523809524	67	127
242.57809523809524	242.69419501133788	39	127
242.57809523809524	242.69419501133788	55	127
242.69419501133788	242.79868480725622	63	127
242.79868480725622	242.89156462585035	39	127
242.79868480725622	242.89156462585035	58	127
242.89156462585035	243.00766439909296	67	127
243.00766439909296	243.1237641723356	56	127
243.00766439909296	243.97129251700682	46	127
243.1237641723356	243.23986394557824	65	127
243.23986394557824	243.37918367346938	62	127
243.37918367346938	243.49528344671202	68	127
243.49528344671202	243.61138321995466	39	127
243.49528344671202	243.61138321995466	65	127
243.61138321995466	243.73909297052154	70	127
243.73909297052154	243.85519274376418	68	127
243.73909297052154	243.85519274376418	39	127
243.85519274376418	243.97129251700682	74	127
243.97129251700682	244.86526077097506	51	127
243.97129251700682	244.08739229024943	67	127
244.08739229024943	244.20349206349206	75	127
244.20349206349206	244.30798185941043	70	127
244.30798185941043	244.42408163265307	79	127
244.42408163265307	244.5053514739229	39	127
244.42408163265307	244.5053514739229	67	127
244.5053514739229	244.64467120181405	75	127
244.64467120181405	244.74916099773242	39	127
244.64467120181405	244.7607709750567	70	127
244.7607709750567	244.86526077097506	79	127
244.86526077097506	244.9813605442177	68	127
244.86526077097506	245.7940589569161	46	127
244.9813605442177	245.10907029478457	77	127
245.10907029478457	245.24839002267575	74	127
245.24839002267575	245.34126984126985	80	127
245.34126984126985	245.44575963718822	74	127
245.34126984126985	245.44575963718822	39	127
245.44575963718822	245.5502494331066	80	127
245.5502494331066	245.6663492063492	39	127
245.5502494331066	245.6663492063492	77	127
245.6663492063492	245.7940589569161	86	127
245.7940589569161	245.91015873015874	75	127
245.7940589569161	246.71124716553288	51	127
245.91015873015874	246.03786848072562	82	127
246.03786848072562	246.15396825396826	79	127
246.15396825396826	246.25845804988663	87	127
246.25845804988663	246.362947845805	39	127
246.25845804988663	246.362947845805	70	127
246.362947845805	246.4790476190476	79	127
246.4790476190476	246.59514739229024	39	127
246.4790476190476	246.59514739229024	75	127
246.59514739229024	246.71124716553288	82	127
246.71124716553288	246.80412698412698	68	127
246.71124716553288	247.64004535147393	46	127
246.80412698412698	246.92022675736962	77	127
246.92022675736962	247.0479365079365	74	127
247.0479365079365	247.16403628117914	80	127
247.16403628117914	247.28013605442177	39	127
247.16403628117914	247.28013605442177	65	127
247.28013605442177	247.3962358276644	74	127
247.3962358276644	247.5239455782313	68	127
247.3962358276644	247.5239455782313	39	127
247.5239455782313	247.64004535147393	77	127
247.64004535147393	248.4991836734694	51	127
247.64004535147393	247.75614512471654	67	127
247.75614512471654	247.8606349206349	75	127
247.8606349206349	247.95351473922904	70	127
247.95351473922904	248.06961451247165	79	127
248.06961451247165	248.17410430839	39	127
248.06961451247165	248.17410430839	67	127
248.17410430839	248.29020408163265	75	127
248.29020408163265	248.38308390022675	39	127
248.29020408163265	248.39469387755102	70	127
248.39469387755102	248.4991836734694	79	127
248.4991836734694	249.42798185941044	46	127
248.4991836734694	248.61528344671203	68	127
248.61528344671203	248.73138321995464	77	127
248.73138321995464	248.84748299319727	74	127
248.84748299319727	248.97519274376418	80	127
248.97519274376418	249.0912925170068	74	127
248.97519274376418	249.0912925170068	39	127
249.0912925170068	249.19578231292516	80	127
249.19578231292516	249.30027210884353	77	127
249.19578231292516	249.30027210884353	39	127
249.30027210884353	249.42798185941044	86	127
249.42798185941044	249.85755102040815	87	127
249.42798185941044	249.85755102040815	75	127
249.42798185941044	249.85755102040815	39	127
249.42798185941044	249.85755102040815	51	127
250.79795918367347	250.92566893424035	70	127
251.05337868480726	251.18108843537414	70	127
251.30879818594104	251.61065759637188	75	127
251.7383673469388	251.8544671201814	58	127
251.7383673469388	251.8544671201814	70	127
251.8544671201814	251.99378684807257	68	127
251.99378684807257	252.09827664399094	58	127
251.99378684807257	252.09827664399094	67	127
252.09827664399094	252.21437641723355	68	127
252.2375963718821	253.41020408163266	67	127
252.2375963718821	253.41020408163266	63	127
262.6285260770975	262.77945578231294	74	127
262.6285260770975	262.77945578231294	77	127
262.6285260770975	262.77945578231294	80	127
262.6285260770975	262.77945578231294	82	127
262.6285260770975	262.77945578231294	86	127
262.6285260770975	262.77945578231294	34	127
262.6285260770975	262.77945578231294	46	127
262.9768253968254	263.15097505668933	74	127
262.9768253968254	263.15097505668933	77	127
262.9768253968254	263.15097505668933	80	127
262.9768253968254	263.15097505668933	82	127
262.9768253968254	263.15097505668933	86	127
262.9768253968254	263.15097505668933	34	127
262.9768253968254	263.15097505668933	46	127
263.46444444444444	264.3235827664399	75	127
263.46444444444444	264.3235827664399	79	127
263.46444444444444	264.3235827664399	82	127
263.46444444444444	264.3235827664399	87	127
263.46444444444444	264.3235827664399	39	127
263.46444444444444	264.3235827664399	51	127
