# onset,offset,note,velocity
0.034058956916099774	1.1718367346938776	45	127
1.1834467120181407	2.205124716553288	52	127
2.228344671201814	3.5983219954648527	54	127
3.6099319727891155	4.027891156462585	49	127
4.039501133786848	4.46907029478458	52	127
4.4806802721088435	4.968299319727891	50	127
4.979909297052155	5.432698412698413	49	127
5.444308390022676	5.688117913832199	50	127
5.699727891156463	5.908707482993197	47	127
5.92031746031746	6.849115646258503	45	127
6.860725623582766	7.418004535147392	44	127
7.418004535147392	7.882403628117914	40	127
7.894013605442177	8.358412698412698	45	127
8.370022675736962	8.799591836734693	42	127
8.811201814058958	9.333650793650794	37	127
9.333650793650794	9.82124716553288	39	127
9.844489795918367	19.02798185941043	40	127
19.039591836734694	19.48077097505669	40	127
19.503968253968253	19.933560090702947	40	127
19.94517006802721	20.43278911564626	40	127
20.44439909297052	21.001678004535147	40	127
21.024897959183672	21.5821768707483	40	127
21.59378684807256	23.950612244897957	40	127
36.698367346938774	37.151156462585035	52	127
37.1627664399093	37.615532879818595	57	127
37.62716553287982	38.079954648526076	54	127
38.09156462585034	38.53274376417234	49	127
38.5443537414966	38.997142857142855	51	127
39.00873015873016	40.49482993197279	52	127
40.49482993197279	40.9127664399093	56	127
40.9127664399093	41.37718820861678	57	127
41.37718820861678	41.86480725623583	56	127
41.86480725623583	42.32920634920635	57	127
42.32920634920635	42.770385487528344	61	127
42.770385487528344	44.0707029478458	64	127
44.0707029478458	44.31451247165533	62	127
44.31451247165533	44.53510204081633	59	127
44.53510204081633	44.953061224489794	57	127
44.953061224489794	45.38263038548753	56	127
45.38263038548753	45.84702947845805	57	127
45.84702947845805	46.34625850340136	61	127
46.34625850340136	47.65818594104309	64	127
47.66979591836735	47.99487528344671	62	127
47.99487528344671	48.1225850340136	61	127
48.1225850340136	48.16902494331066	59	127
48.16902494331066	48.22707482993197	61	127
48.22707482993197	48.28512471655329	59	127
48.28512471655329	48.33156462585034	61	127
48.33156462585034	48.401224489795915	59	127
48.401224489795915	48.44766439909297	61	127
48.44766439909297	48.517324263038546	59	127
48.517324263038546	48.575374149659865	61	127
48.575374149659865	48.86562358276644	62	127
48.86562358276644	48.98172335600907	61	127
48.98172335600907	49.03977324263039	59	127
49.03977324263039	49.10943310657596	61	127
49.10943310657596	49.16748299319728	59	127
49.16748299319728	49.21392290249433	61	127
49.21392290249433	49.283582766439906	59	127
49.283582766439906	49.341632653061225	61	127
49.341632653061225	49.39968253968254	59	127
49.39968253968254	49.48095238095238	61	127
49.48095238095238	49.87569160997732	62	127
49.87569160997732	50.18916099773243	61	127
50.18916099773243	52.5227664399093	59	127
52.53437641723356	52.87106575963719	61	127
52.87106575963719	53.161315192743764	63	127
53.161315192743764	53.34707482993197	64	127
53.34707482993197	53.56766439909297	66	127
53.56766439909297	53.84630385487528	68	127
53.84630385487528	54.25265306122449	69	127
54.25265306122449	54.46163265306122	71	127
54.46163265306122	54.763492063492066	69	127
54.763492063492066	54.99569160997732	68	127
54.99569160997732	55.297551020408164	69	127
55.297551020408164	55.65746031746032	66	127
55.65746031746032	55.947709750566894	63	127
55.947709750566894	57.56149659863946	66	127
57.56149659863946	59.16367346938775	64	127
59.999591836734695	61.29990929705215	45	127
61.311519274376415	61.72947845804989	38	127
61.74108843537415	62.17065759637188	45	127
62.182267573696144	62.60022675736961	38	127
62.60022675736961	63.018185941043086	40	127
63.018185941043086	63.401315192743766	40	127
63.41292517006803	64.21401360544218	57	127
64.22562358276645	64.52748299319728	64	127
64.52748299319728	64.60875283446713	62	127
64.60875283446713	64.69	64	127
64.69	65.09637188208617	65	127
65.10798185941043	65.38662131519274	64	127
65.38662131519274	65.45625850340136	59	127
65.45625850340136	65.53755102040816	60	127
65.53755102040816	65.96709750566893	62	127
65.97873015873016	66.36185941043084	60	127
66.36185941043084	66.84947845804989	59	127
66.84947845804989	70.22798185941043	59	127
70.22798185941043	70.50662131519275	59	127
70.62272108843537	71.02904761904762	63	127
71.04068027210884	71.3657596371882	64	127
71.47024943310657	71.91142857142857	58	127
71.92301587301587	72.22489795918368	59	127
72.3409977324263	72.74734693877551	51	127
72.77056689342403	73.09564625850341	52	127
73.21174603174603	73.59487528344671	46	127
73.59487528344671	73.82707482993197	47	127
73.94315192743764	74.09410430839003	63	127
74.09410430839003	74.23342403628118	63	127
74.23342403628118	74.39596371882087	63	127
74.39596371882087	74.709410430839	64	127
74.8255328798186	74.95324263038549	55	127
74.96482993197279	75.10417233560091	55	127
75.12739229024943	75.25510204081633	55	127
75.2667120181406	75.53374149659864	59	127
75.64984126984127	75.77755102040817	51	127
75.78916099773242	75.91687074829932	51	127
75.92848072562359	76.05619047619048	51	127
76.06780045351474	76.33482993197279	52	127
76.43931972789116	76.56702947845805	40	127
76.57863945578231	76.7063492063492	40	127
76.71795918367347	76.84566893424036	40	127
76.85725623582766	77.17074829931973	47	127
78.50589569160998	78.68004535147392	47	127
78.68004535147392	78.80775510204082	48	127
78.80775510204082	78.93546485260771	47	127
78.93546485260771	79.05156462585035	46	127
79.05156462585035	79.1908843537415	47	127
79.1908843537415	79.37664399092971	46	127
79.37664399092971	79.56240362811792	47	127
79.56240362811792	79.71333333333334	48	127
79.71333333333334	79.86426303854876	47	127
79.86426303854876	80.02678004535147	46	127
80.02678004535147	80.20095238095239	47	127
80.20095238095239	80.36349206349206	46	127
80.36349206349206	81.69863945578231	47	127
81.71024943310658	81.94242630385487	45	127
81.94242630385487	82.17464852607709	42	127
82.17464852607709	82.47650793650794	40	127
82.47650793650794	82.72031746031746	42	127
82.72031746031746	82.95251700680272	44	127
82.95251700680272	83.20793650793651	45	127
83.20793650793651	83.41691609977325	47	127
83.41691609977325	83.66072562358276	49	127
83.66072562358276	83.85807256235827	51	127
83.85807256235827	84.07868480725624	52	127
84.07868480725624	84.29927437641723	54	127
84.29927437641723	84.53147392290249	56	127
84.53147392290249	84.74045351473923	57	127
84.74045351473923	84.94943310657597	59	127
84.94943310657597	85.1584126984127	61	127
85.1584126984127	85.36736961451247	63	127
85.36736961451247	85.59959183673469	64	127
85.59959183673469	85.8201814058957	66	127
85.8201814058957	86.05238095238096	68	127
86.05238095238096	86.23814058956916	69	127
86.23814058956916	86.42390022675737	70	127
86.42390022675737	86.6444671201814	71	127
86.6444671201814	86.86507936507937	70	127
86.86507936507937	87.08566893424036	71	127
87.08566893424036	87.31786848072562	68	127
87.31786848072562	87.38750566893424	64	127
87.38750566893424	87.44557823129252	63	127
87.44557823129252	87.50362811791383	64	127
87.50362811791383	87.57328798185941	66	127
87.57328798185941	88.50208616780046	64	127
88.51369614512471	88.96648526077098	63	127
89.48893424036281	89.68628117913832	47	127
89.68628117913832	89.88367346938776	49	127
89.88367346938776	90.08104308390023	51	127
90.08104308390023	90.31324263038549	52	127
90.31324263038549	90.53383219954648	54	127
90.53383219954648	90.74281179138322	56	127
90.74281179138322	90.95179138321996	57	127
90.95179138321996	91.19557823129252	59	127
91.19557823129252	91.42780045351473	61	127
91.42780045351473	91.64839002267574	63	127
91.64839002267574	91.85736961451248	64	127
91.85736961451248	92.11278911564627	66	127
92.11278911564627	92.33337868480726	68	127
92.33337868480726	92.53074829931973	69	127
92.53074829931973	92.71650793650794	70	127
92.71650793650794	92.93709750566893	71	127
92.93709750566893	93.14607709750567	72	127
93.14607709750567	93.3666439909297	73	127
93.3666439909297	93.5756462585034	72	127
93.5756462585034	93.81945578231293	73	127
93.81945578231293	94.05165532879819	75	127
94.05165532879819	94.34190476190476	73	127
94.34190476190476	94.56249433106576	71	127
94.56249433106576	94.60893424036281	69	127
94.60893424036281	94.69020408163266	68	127
94.69020408163266	94.75986394557823	69	127
94.75986394557823	94.80630385487528	71	127
94.80630385487528	95.72349206349206	69	127
95.73510204081633	95.897641723356	68	127
95.96730158730159	96.18789115646258	71	127
96.18789115646258	96.40848072562358	76	127
96.40848072562358	96.62907029478458	75	127
96.62907029478458	97.49981859410431	73	127
97.51142857142857	97.66235827664399	71	127
97.70879818594105	97.95260770975057	71	127
97.95260770975057	98.17319727891156	76	127
98.17319727891156	98.41700680272109	75	127
98.41700680272109	99.3225850340136	73	127
99.3225850340136	99.55478458049886	71	127
99.62444444444445	99.85664399092971	71	127
99.85664399092971	100.0772335600907	76	127
100.0772335600907	100.48358276643991	75	127
100.49519274376418	100.88993197278911	73	127
100.90154195011338	101.34272108843537	71	127
101.34272108843537	101.74907029478459	69	127
101.76068027210884	102.44566893424036	68	127
102.45727891156463	103.42090702947846	66	127
103.43251700680273	103.95496598639455	66	127
103.96657596371882	104.4425850340136	66	127
104.4425850340136	104.69800453514739	64	127
104.70961451247166	104.93020408163265	63	127
104.94181405895692	105.20884353741496	61	127
105.22045351473923	105.4178231292517	59	127
105.48748299319728	105.67324263038549	59	127
105.75451247165533	105.96349206349207	59	127
106.12603174603174	107.05482993197279	59	127
107.07804988662132	108.01845804988662	56	127
108.01845804988662	109.41165532879819	52	127
109.42326530612245	110.32884353741497	47	127
110.34045351473922	110.8512925170068	47	127
110.86290249433107	111.31569160997732	44	127
111.32730158730159	111.52467120181406	40	127
111.53628117913833	111.80331065759637	44	127
111.8265306122449	113.15006802721088	47	127
113.6492970521542	114.6245351473923	69	127
114.63614512471655	115.54172335600907	66	127
115.55333333333333	115.9712925170068	63	127
115.98290249433107	116.38925170068028	59	127
116.40086167800453	116.8536507936508	57	127
116.87687074829932	117.34126984126983	54	127
117.3528798185941	117.78244897959183	51	127
117.80566893424036	118.7692970521542	47	127
118.78090702947846	119.25691609977325	47	127
119.25691609977325	120.19732426303855	47	127
120.20893424036281	120.45274376417234	52	127
120.4643537414966	120.6849433106576	64	127
120.6849433106576	120.8707029478458	66	127
120.8707029478458	121.11451247165533	68	127
121.11451247165533	121.32349206349207	69	127
121.32349206349207	121.55569160997733	64	127
121.55569160997733	121.81111111111112	69	127
121.81111111111112	122.11297052154195	67	127
122.11297052154195	122.26390022675737	68	127
122.33356009070295	122.54253968253968	64	127
122.54253968253968	122.76312925170068	66	127
122.76312925170068	123.0069387755102	68	127
123.0069387755102	123.262358276644	69	127
123.262358276644	123.49455782312926	64	127
123.49455782312926	123.71514739229025	69	127
123.71514739229025	123.93573696145124	67	127
123.93573696145124	124.08666666666667	68	127
124.14471655328798	124.38852607709751	64	127
124.38852607709751	124.6091156462585	66	127
124.6091156462585	124.8297052154195	68	127
124.8297052154195	125.35215419501134	69	127
126.09519274376417	126.30417233560091	66	127
126.30417233560091	126.53637188208617	69	127
126.53637188208617	126.74535147392291	68	127
126.74535147392291	126.97755102040816	66	127
127.92956916099773	128.13854875283448	59	127
128.13854875283448	128.37074829931973	63	127
128.37074829931973	128.59133786848074	61	127
128.59133786848074	128.7887074829932	59	127
128.7887074829932	129.00927437641724	56	127
129.00927437641724	129.21825396825398	59	127
129.21825396825398	129.4504761904762	57	127
129.4504761904762	129.65945578231293	56	127
129.65945578231293	129.90326530612245	52	127
129.90326530612245	130.14707482993197	57	127
130.14707482993197	130.3560544217687	54	127
130.36766439909297	130.86689342403628	54	127
130.86689342403628	131.69120181405896	52	127
131.70281179138323	131.74925170068028	54	127
131.74925170068028	131.8073015873016	52	127
131.8073015873016	131.8653514739229	51	127
131.8653514739229	131.91179138321996	52	127
131.91179138321996	132.1439909297052	56	127
132.15560090702948	132.399410430839	54	127
132.41102040816327	132.9334693877551	52	127
143.4637188208617	143.84684807256235	40	127
143.84684807256235	144.88013605442177	40	127
144.88013605442177	144.9381859410431	42	127
144.9381859410431	144.97301587301587	44	127
144.97301587301587	145.0310657596372	42	127
145.0310657596372	145.07750566893424	44	127
145.07750566893424	145.1587755102041	42	127
145.1587755102041	145.22843537414965	40	127
145.22843537414965	145.29809523809524	42	127
145.29809523809524	145.7508843537415	44	127
145.7508843537415	146.66807256235828	40	127
146.67968253968255	146.7261224489796	42	127
146.7261224489796	146.80739229024942	44	127
146.80739229024942	146.877052154195	42	127
146.877052154195	146.93510204081633	44	127
146.93510204081633	147.00473922902495	42	127
147.00473922902495	147.07442176870748	40	127
147.07442176870748	147.14408163265307	42	127
147.14408163265307	147.58526077097505	44	127
147.58526077097505	147.95678004535148	40	127
147.95678004535148	148.04965986394558	39	127
148.04965986394558	148.5140589569161	37	127
148.5140589569161	148.862358276644	45	127
148.862358276644	148.96684807256236	44	127
148.96684807256236	149.37319727891156	43	127
149.37319727891156	149.6750566893424	51	127
149.6750566893424	149.79115646258504	49	127
149.79115646258504	150.2439455782313	48	127
150.2439455782313	150.6502947845805	49	127
150.6502947845805	151.10308390022675	47	127
151.10308390022675	151.54426303854876	46	127
151.54426303854876	151.776462585034	49	127
151.776462585034	151.97383219954648	47	127
151.97383219954648	152.20603174603175	45	127
152.20603174603175	152.4150113378685	44	127
152.4150113378685	152.85619047619048	47	127
152.85619047619048	153.30897959183673	45	127
153.30897959183673	153.73854875283448	42	127
153.73854875283448	154.15650793650795	40	127
154.1681179138322	156.38562358276644	39	127
156.38562358276644	156.82680272108843	39	127
156.82680272108843	157.3144217687075	39	127
157.32603174603176	157.8136507936508	39	127
157.82526077097506	158.2896598639456	39	127
159.61319727891157	159.77573696145126	59	127
159.77573696145126	159.9150566893424	61	127
159.9150566893424	160.05437641723356	63	127
160.05437641723356	160.20530612244897	64	127
160.20530612244897	160.36784580498866	66	127
160.36784580498866	160.54199546485262	68	127
160.54199546485262	160.60002267573697	71	127
160.60002267573697	160.72775510204082	69	127
160.72775510204082	160.8902947845805	68	127
160.8902947845805	161.02961451247165	69	127
161.02961451247165	161.18054421768707	73	127
161.18054421768707	161.37791383219954	71	127
161.37791383219954	161.54045351473923	69	127
161.54045351473923	162.07451247165534	68	127
163.46768707482994	163.61861678004536	52	127
163.61861678004536	163.75795918367348	54	127
163.75795918367348	163.89727891156463	56	127
163.89727891156463	164.03659863945578	57	127
164.03659863945578	164.1875283446712	59	127
164.1875283446712	164.3152380952381	61	127
164.3152380952381	164.43133786848074	62	127
164.43133786848074	164.58226757369616	64	127
164.58226757369616	164.73319727891158	66	127
164.73319727891158	164.9421768707483	68	127
164.9421768707483	165.17437641723356	69	127
165.17437641723356	165.36013605442176	71	127
165.36013605442176	167.19448979591837	73	127
167.19448979591837	169.11015873015873	46	127
169.121768707483	171.36249433106576	47	127
169.121768707483	171.36249433106576	56	127
171.36249433106576	171.58308390022677	59	127
171.65274376417233	171.82689342403629	64	127
171.90816326530611	172.0707029478458	68	127
172.12875283446712	172.27968253968254	71	127
172.33773242630386	172.50027210884355	68	127
172.55832199546487	172.74408163265306	68	127
172.81374149659865	173.01111111111112	68	127
173.09238095238095	173.56839002267574	69	127
176.9701133786848	177.81764172335602	51	127
177.82922902494332	178.85090702947846	59	127
178.85090702947846	179.28049886621315	58	127
179.28049886621315	179.74489795918367	59	127
179.75650793650794	180.26734693877552	61	127
180.2789569160998	180.72013605442177	59	127
180.73174603174604	181.73020408163265	51	127
181.74181405895692	182.7286621315193	59	127
182.74027210884353	183.18145124716554	58	127
183.1930612244898	183.64585034013606	59	127
183.65743764172336	184.1334693877551	61	127
184.1334693877551	184.6675283446712	59	127
184.6675283446712	185.14353741496598	59	127
185.15514739229025	185.6079365079365	57	127
185.61954648526077	186.0839455782313	56	127
186.09555555555556	186.52512471655328	54	127
186.53673469387755	187.04757369614512	52	127
187.0591836734694	187.4655328798186	50	127
187.47714285714287	187.98798185941044	49	127
187.99956916099774	188.58009070294784	47	127
188.5917006802721	189.53208616780046	45	127
189.53208616780046	190.5073469387755	52	127
190.53056689342404	191.85410430839002	54	127
191.85410430839002	192.3301133786848	49	127
192.34172335600908	192.8409523809524	52	127
192.85256235827666	193.36340136054423	50	127
193.36340136054423	193.86263038548753	49	127
193.89746031746031	194.11804988662132	50	127
194.1296598639456	194.32702947845806	47	127
194.3386394557823	195.1977777777778	45	127
195.20938775510203	195.70861678004536	44	127
195.70861678004536	196.27750566893425	40	127
196.2891156462585	196.77673469387756	45	127
196.77673469387756	197.18308390022676	42	127
197.18308390022676	197.62426303854875	37	127
197.63587301587302	198.16993197278913	39	127
198.18154195011337	207.2837641723356	40	127
207.29537414965986	207.77138321995466	40	127
207.7829931972789	208.24739229024942	40	127
208.2590022675737	208.72340136054422	40	127
208.74662131519275	209.24585034013606	40	127
209.25746031746033	209.89600907029478	40	127
209.90761904761905	212.28766439909296	40	127
224.9425396825397	225.4069387755102	52	127
225.41854875283445	225.79006802721088	57	127
225.79006802721088	226.27768707482994	54	127
226.28929705215418	226.6956462585034	49	127
226.70725623582766	227.17165532879818	51	127
227.18326530612245	228.50680272108843	52	127
228.5184126984127	228.94798185941042	56	127
228.9595918367347	229.4007709750567	57	127
229.41238095238094	229.85356009070296	56	127
229.8651700680272	230.341179138322	57	127
230.35278911564626	230.88684807256234	61	127
230.8984580498866	232.23360544217687	64	127
232.24521541950114	232.40775510204082	62	127
232.40775510204082	232.63995464852607	59	127
232.63995464852607	233.12757369614513	57	127
233.12757369614513	233.5107029478458	56	127
233.5107029478458	233.99832199546486	57	127
233.99832199546486	234.43950113378685	61	127
234.43950113378685	235.76303854875283	64	127
235.7746485260771	236.11133786848072	62	127
236.11133786848072	236.22743764172336	61	127
236.22743764172336	236.26226757369614	59	127
236.26226757369614	236.30870748299319	61	127
236.30870748299319	236.35514739229026	59	127
236.35514739229026	236.41319727891155	61	127
236.41319727891155	236.4596371882086	59	127
236.4596371882086	236.50607709750568	61	127
236.50607709750568	236.56412698412697	59	127
236.56412698412697	236.6221768707483	61	127
236.6221768707483	236.98208616780045	62	127
236.98208616780045	237.09818594104308	61	127
237.09818594104308	237.16784580498867	59	127
237.16784580498867	237.23750566893423	61	127
237.23750566893423	237.29555555555555	59	127
237.29555555555555	237.35360544217687	61	127
237.35360544217687	237.4116553287982	59	127
237.4116553287982	237.45809523809524	61	127
237.45809523809524	237.52775510204083	59	127
237.52775510204083	237.58580498866212	61	127
237.58580498866212	238.0385941043084	62	127
238.0385941043084	238.35206349206348	61	127
238.35206349206348	240.801768707483	59	127
240.82498866213152	241.0571882086168	61	127
241.0571882086168	241.3009977324263	63	127
241.3009977324263	241.463537414966	64	127
241.463537414966	241.69573696145125	66	127
241.69573696145125	241.92793650793652	68	127
241.92793650793652	242.29945578231292	69	127
242.29945578231292	242.67097505668934	71	127
242.67097505668934	242.94961451247167	69	127
242.94961451247167	243.2166439909297	68	127
243.2166439909297	243.48367346938775	69	127
243.48367346938775	243.76231292517008	66	127
243.76231292517008	244.14544217687074	63	127
244.14544217687074	245.75922902494332	66	127
245.75922902494332	247.0479365079365	64	127
247.8374149659864	249.17256235827665	45	127
249.18417233560092	249.54408163265308	38	127
249.55569160997732	249.98526077097506	45	127
249.99687074829933	250.42643990929705	38	127
250.43804988662131	250.89083900226757	40	127
250.90244897959184	251.34362811791382	40	127
251.3552380952381	252.17954648526077	57	127
252.17954648526077	252.46979591836734	64	127
252.46979591836734	252.53945578231293	62	127
252.53945578231293	252.62072562358276	64	127
252.62072562358276	253.073514739229	65	127
253.08512471655328	253.37537414965988	64	127
253.37537414965988	253.44503401360544	59	127
253.44503401360544	253.5263038548753	60	127
253.5263038548753	253.99070294784582	62	127
254.00231292517006	254.44349206349207	60	127
254.4551020408163	254.82662131519274	59	127
254.838231292517	258.33283446712016	59	127
258.34444444444443	258.6811337868481	59	127
258.82045351473926	259.2616326530612	63	127
259.2732426303855	259.6099319727891	64	127
259.7144217687075	260.13238095238097	58	127
260.13238095238097	260.4458503401361	59	127
260.5619274376417	260.9682993197279	51	127
260.9798866213152	261.3514285714286	52	127
261.4675283446712	261.82743764172335	46	127
261.8390476190476	262.1176870748299	47	127
262.2453968253968	262.37310657596373	63	127
262.384716553288	262.5240362811791	63	127
262.5356462585034	262.6633560090703	63	127
262.67496598639457	263.00004535147394	64	127
263.1161451247166	263.24385487528343	55	127
263.24385487528343	263.3831746031746	55	127
263.3831746031746	263.49927437641725	55	127
263.49927437641725	263.8243537414966	59	127
263.928843537415	264.05655328798184	51	127
264.0681632653061	264.18426303854875	51	127
264.195873015873	264.3235827664399	51	127
264.3351927437642	264.62544217687076	52	127
264.7415419501134	264.85761904761904	40	127
264.86925170068025	264.99696145124716	40	127
265.00857142857143	265.1595011337869	40	127
265.17108843537414	265.472947845805	47	127
266.8313378684807	266.98226757369616	47	127
266.98226757369616	267.1215873015873	48	127
267.1215873015873	267.30734693877554	47	127
267.30734693877554	267.4234240362812	46	127
267.4234240362812	267.5627664399093	47	127
267.5627664399093	267.7020861678005	46	127
267.7020861678005	267.86462585034013	47	127
267.86462585034013	268.03877551020406	48	127
268.03877551020406	268.17809523809524	47	127
268.17809523809524	268.3290249433107	46	127
268.3290249433107	268.45673469387754	47	127
268.45673469387754	268.6308843537415	46	127
268.6308843537415	270.1053514739229	47	127
270.1053514739229	270.3607709750567	45	127
270.3607709750567	270.66263038548755	42	127
270.66263038548755	270.9644897959184	40	127
270.9644897959184	271.1734693877551	42	127
271.1734693877551	271.3940589569161	44	127
271.3940589569161	271.6378684807256	45	127
271.6378684807256	271.88167800453516	47	127
271.88167800453516	272.0790476190476	49	127
272.0790476190476	272.2764172335601	51	127
272.2764172335601	272.4621768707483	52	127
272.4621768707483	272.65954648526076	54	127
272.65954648526076	272.84530612244896	56	127
272.84530612244896	273.06589569160997	57	127
273.06589569160997	273.33292517006805	59	127
273.33292517006805	273.5419047619048	61	127
273.5419047619048	273.76249433106574	63	127
273.76249433106574	273.95984126984126	64	127
273.95984126984126	274.168820861678	66	127
274.168820861678	274.36619047619047	68	127
274.36619047619047	274.5868027210884	69	127
274.5868027210884	274.79578231292516	70	127
274.79578231292516	275.0047619047619	71	127
275.0047619047619	275.24857142857144	70	127
275.24857142857144	275.492358276644	71	127
275.492358276644	275.7245804988662	68	127
275.7245804988662	275.7942176870748	64	127
275.7942176870748	275.84068027210884	63	127
275.84068027210884	275.8987074829932	64	127
275.8987074829932	275.9451700680272	66	127
275.9451700680272	276.8971882086168	64	127
276.90879818594107	277.37319727891156	63	127
277.88403628117914	278.10462585034014	47	127
278.10462585034014	278.36002267573696	49	127
278.36002267573696	278.5922448979592	51	127
278.5922448979592	278.8012244897959	52	127
278.8012244897959	278.9985941043084	54	127
278.9985941043084	279.2075736961451	56	127
279.2075736961451	279.45138321995466	57	127
279.45138321995466	279.68356009070294	59	127
279.68356009070294	279.8925396825397	61	127
279.8925396825397	280.10154195011336	63	127
280.10154195011336	280.32213151927436	64	127
280.32213151927436	280.5311111111111	66	127
280.5311111111111	280.7633106575964	68	127
280.7633106575964	281.0071201814059	69	127
281.0071201814059	281.2044897959184	70	127
281.2044897959184	281.41346938775513	71	127
281.41346938775513	281.6108390022676	72	127
281.6108390022676	281.81981859410433	73	127
281.81981859410433	282.02879818594107	72	127
282.02879818594107	282.249387755102	73	127
282.249387755102	282.45836734693876	75	127
282.45836734693876	282.67895691609976	73	127
282.67895691609976	282.87632653061223	71	127
282.87632653061223	282.9343764172336	69	127
282.9343764172336	283.0272562358277	68	127
283.0272562358277	283.08530612244897	69	127
283.08530612244897	283.2014058956916	71	127
283.2014058956916	284.1069841269841	69	127
284.1185941043084	284.3275736961451	68	127
284.3972335600907	284.6062131519274	71	127
284.6062131519274	284.8384126984127	76	127
284.8384126984127	285.04739229024943	75	127
285.04739229024943	285.9761904761905	73	127
285.98780045351475	286.17356009070295	71	127
286.2432199546485	286.4638095238095	71	127
286.4638095238095	286.70761904761906	76	127
286.70761904761906	286.9165986394558	75	127
286.9165986394558	287.8221768707483	73	127
287.8337868480726	288.03115646258505	71	127
288.08920634920634	288.30979591836734	71	127
288.30979591836734	288.5071655328798	76	127
288.5071655328798	288.9251247165533	75	127
288.93673469387755	289.3198639455782	73	127
289.3314739229025	289.7842630385488	71	127
289.79587301587304	290.22544217687073	69	127
290.237052154195	290.88721088435375	68	127
290.898820861678	291.8508163265306	66	127
291.8624489795918	292.33845804988664	66	127
292.3500680272109	292.8492970521542	66	127
292.8609070294785	293.0931065759637	64	127
293.104716553288	293.325306122449	63	127
293.33691609977325	293.61555555555555	61	127
293.6271655328798	293.92902494331065	59	127
293.99866213151927	294.19605442176874	59	127
294.2657142857143	294.4863038548753	59	127
294.56757369614513	295.5892517006803	59	127
295.60086167800455	296.5760997732426	56	127
296.5877097505669	297.8764172335601	52	127
297.8880045351474	298.7471655328798	47	127
298.7587755102041	299.21154195011337	47	127
299.21154195011337	299.68757369614514	44	127
299.68757369614514	299.9429931972789	40	127
299.95460317460316	300.256462585034	44	127
300.256462585034	301.76573696145124	47	127
302.1604988662132	303.1008843537415	69	127
303.1125170068027	304.07614512471656	66	127
304.08775510204083	304.4592743764172	63	127
304.4708843537415	304.8772335600907	59	127
304.8772335600907	305.330022675737	57	127
305.330022675737	305.7595691609977	54	127
305.77120181405894	306.16591836734693	51	127
306.17755102040815	307.12956916099773	47	127
307.141179138322	307.6055782312925	47	127
307.6404081632653	308.5808163265306	47	127
308.5924263038549	308.7781859410431	52	127
308.78979591836736	309.01038548752837	64	127
309.01038548752837	309.2193650793651	66	127
309.2193650793651	309.50961451247167	68	127
309.50961451247167	309.78825396825397	69	127
309.78825396825397	310.008843537415	64	127
310.008843537415	310.2526303854875	69	127
310.2526303854875	310.496462585034	67	127
310.496462585034	310.64739229024946	68	127
310.717052154195	310.92603174603175	64	127
310.92603174603175	311.1698185941043	66	127
311.1698185941043	311.39043083900225	68	127
311.39043083900225	311.6226303854875	69	127
311.6226303854875	311.83160997732426	64	127
311.83160997732426	312.0754195011338	69	127
312.0754195011338	312.307619047619	67	127
312.307619047619	312.4585487528345	68	127
312.52820861678003	312.7604081632653	64	127
312.7604081632653	312.96938775510205	66	127
312.96938775510205	313.22478458049886	68	127
313.22478458049886	313.73562358276644	69	127
314.42063492063494	314.60639455782314	66	127
314.60639455782314	314.8153741496599	69	127
314.8153741496599	315.0591609977324	68	127
315.0591609977324	315.3378231292517	66	127
316.2085714285714	316.41755102040815	59	127
316.41755102040815	316.6613605442177	63	127
316.6613605442177	316.893537414966	61	127
316.893537414966	317.1141496598639	59	127
317.1141496598639	317.32312925170066	56	127
317.32312925170066	317.55532879818594	59	127
317.55532879818594	317.7526984126984	57	127
317.7526984126984	318.0081179138322	56	127
318.0081179138322	318.2519274376417	52	127
318.2519274376417	318.46090702947845	57	127
318.46090702947845	318.6698866213152	54	127
318.68149659863946	319.12267573696147	54	127
319.13428571428574	319.87732426303853	52	127
319.8889342403628	319.9353741496599	54	127
319.9353741496599	319.99342403628117	52	127
319.99342403628117	320.07467120181406	51	127
320.07467120181406	320.13274376417235	52	127
320.13274376417235	320.3997732426304	56	127
320.41138321995464	320.6551927437642	54	127
320.69002267573694	321.2124716553288	52	127
331.7659410430839	332.2071201814059	40	127
332.2187301587302	333.06625850340134	40	127
333.06625850340134	333.1243083900227	42	127
333.1243083900227	333.2055782312925	44	127
333.2055782312925	333.26360544217687	42	127
333.26360544217687	333.3100680272109	44	127
333.3100680272109	333.37972789115645	42	127
333.37972789115645	333.47260770975055	40	127
333.47260770975055	333.5887074829932	42	127
333.5887074829932	334.05310657596374	44	127
334.05310657596374	334.9819047619048	40	127
334.99349206349206	335.0399546485261	42	127
335.0399546485261	335.0979818594104	44	127
335.0979818594104	335.14444444444445	42	127
335.14444444444445	335.2024716553288	44	127
335.2024716553288	335.2605442176871	42	127
335.2605442176871	335.33020408163264	40	127
335.33020408163264	335.4114739229025	42	127
335.4114739229025	335.7946031746032	44	127
335.7946031746032	336.09646258503403	40	127
336.09646258503403	336.21256235827667	39	127
336.21256235827667	336.72340136054424	37	127
336.72340136054424	337.08331065759637	45	127
337.08331065759637	337.2110204081633	44	127
337.2110204081633	337.62897959183675	43	127
337.62897959183675	337.9192290249433	51	127
337.9192290249433	338.0237188208617	49	127
338.0237188208617	338.522947845805	48	127
338.522947845805	338.9757369614513	49	127
338.9757369614513	339.44013605442177	47	127
339.44013605442177	339.8348752834467	46	127
339.8348752834467	340.0322448979592	49	127
340.0322448979592	340.2412244897959	47	127
340.2412244897959	340.4618140589569	45	127
340.4618140589569	340.6940136054422	44	127
340.6940136054422	341.12356009070294	47	127
341.12356009070294	341.5647619047619	45	127
341.5647619047619	341.9478684807256	42	127
341.9478684807256	342.3542176870748	40	127
342.36585034013603	344.5949659863946	39	127
344.5949659863946	345.0477551020408	39	127
345.0477551020408	345.53537414965984	39	127
345.53537414965984	346.0462131519274	39	127
346.0578231292517	346.56866213151926	39	127
347.89219954648524	348.05473922902496	59	127
348.05473922902496	348.18242630385487	61	127
348.18242630385487	348.321768707483	63	127
348.321768707483	348.46108843537417	64	127
348.46108843537417	348.6236281179138	66	127
348.6236281179138	348.78616780045354	68	127
348.78616780045354	348.84421768707483	71	127
348.84421768707483	348.93709750566893	69	127
348.93709750566893	349.0880272108844	68	127
349.0880272108844	349.2157369614512	69	127
349.2157369614512	349.42471655328796	73	127
349.42471655328796	349.6104535147392	71	127
349.6104535147392	349.7730158730159	69	127
349.7730158730159	350.3651247165533	68	127
351.82798185941044	351.9324716553288	52	127
351.9324716553288	352.04857142857145	54	127
352.04857142857145	352.18789115646257	56	127
352.18789115646257	352.32721088435375	57	127
352.32721088435375	352.4665306122449	59	127
352.4665306122449	352.6522902494331	61	127
352.6522902494331	352.8148299319728	62	127
352.8148299319728	353.000589569161	64	127
353.000589569161	353.1515192743764	66	127
353.1515192743764	353.3024489795918	68	127
353.3024489795918	353.49979591836734	69	127
353.49979591836734	353.662358276644	71	127
353.662358276644	355.53156462585036	73	127
355.53156462585036	357.4704308390023	46	127
357.49362811791383	359.5950566893424	47	127
357.49362811791383	359.5950566893424	56	127
359.5950566893424	359.7459863945578	59	127
359.8156462585034	360.0478231292517	64	127
360.11750566893426	360.26843537414965	68	127
360.326485260771	360.5006349206349	71	127
360.5702947845805	360.7328344671202	68	127
360.81410430839003	361.0114739229025	68	127
361.1043537414966	361.34816326530614	68	127
361.44104308390024	361.917052154195	69	127
365.4116553287982	366.3636734693878	51	127
366.37528344671205	367.3040589569161	59	127
367.3156916099773	367.79170068027213	58	127
367.8033106575964	368.2096598639456	59	127
368.2212471655329	368.69727891156464	61	127
368.7088888888889	369.1268480725624	59	127
369.13843537414965	370.19496598639455	51	127
370.19496598639455	371.14698412698414	59	127
371.1585941043084	371.5765532879819	58	127
371.58816326530615	372.01773242630384	59	127
372.0293424036281	372.5285714285714	61	127
372.5401814058957	373.00458049886623	59	127
373.0161904761905	373.4689795918367	59	127
373.480589569161	373.9333786848073	57	127
373.94496598639455	374.35131519274375	56	127
374.362925170068	374.8389569160998	54	127
374.8621541950113	375.38460317460317	52	127
375.3962358276644	375.8258049886621	50	127
375.84902494331067	376.34825396825397	49	127
376.35986394557824	376.8707029478458	50	127
376.8823129251701	379.62226757369615	49	127
379.6338775510204	380.52784580498866	56	127
380.5394557823129	381.5030839002268	57	127
381.5030839002268	382.4551020408163	53	127
382.4667120181406	383.3142403628118	54	127
383.32585034013607	384.161768707483	48	127
384.17337868480723	385.5085260770975	49	127
385.5085260770975	385.93809523809523	48	127
385.93809523809523	386.3096145124717	49	127
386.3212244897959	386.7275736961451	48	127
386.73918367346937	387.1803628117914	49	127
387.19197278911565	387.6215419501134	48	127
387.63315192743767	388.0743310657596	49	127
388.95668934240365	389.29337868480724	64	127
389.29337868480724	389.4094784580499	62	127
389.4094784580499	389.4675283446712	61	127
389.4675283446712	389.51396825396824	62	127
389.51396825396824	389.5720181405896	61	127
389.5720181405896	389.6300680272109	62	127
389.6300680272109	389.7113378684807	61	127
389.7113378684807	389.78099773242633	60	127
389.78099773242633	389.8506575963719	61	127
389.8506575963719	390.1292970521542	64	127
390.1292970521542	390.23378684807255	62	127
390.23378684807255	390.2918367346939	61	127
390.2918367346939	390.3498866213152	62	127
390.3498866213152	390.4079365079365	61	127
390.4079365079365	390.46598639455783	62	127
390.46598639455783	390.54725623582766	61	127
390.54725623582766	390.6285260770975	60	127
390.6285260770975	390.7097959183673	61	127
390.7097959183673	391.1277551020408	64	127
391.1277551020408	391.26707482993197	62	127
391.26707482993197	391.77791383219954	61	127
394.622358276644	395.6440362811791	67	127
395.6556462585034	396.1084353741497	66	127
396.12004535147395	396.58444444444444	64	127
396.5960544217687	397.0372335600907	62	127
397.04884353741494	397.52485260770976	61	127
397.53646258503403	398.03569160997733	57	127
398.0473015873016	398.5581405895692	56	127
398.5581405895692	399.0573696145125	61	127
399.0573696145125	402.95832199546487	54	127
402.96993197278914	404.4095691609977	59	127
404.4095691609977	404.9552380952381	62	127
404.9552380952381	405.41963718820864	61	127
405.41963718820864	405.8956462585034	59	127
405.8956462585034	405.9420861678004	57	127
405.9420861678004	406.0001360544218	59	127
406.0001360544218	406.0930158730159	57	127
406.0930158730159	406.15106575963716	59	127
406.15106575963716	406.23233560090705	57	127
406.23233560090705	406.3019954648526	56	127
406.3019954648526	406.37165532879817	57	127
406.37165532879817	406.6154648526077	59	127
406.6154648526077	406.9289342403628	56	127
406.9289342403628	407.4862131519274	59	127
407.4978231292517	408.82136054421767	57	127
410.69056689342403	410.86471655328796	54	127
410.86471655328796	411.0156462585034	56	127
411.0156462585034	411.1665759637188	54	127
411.1665759637188	411.30589569161	53	127
411.30589569161	411.4568253968254	54	127
411.4568253968254	411.6193650793651	56	127
411.6193650793651	411.8283446712018	57	127
411.8283446712018	411.967664399093	59	127
411.967664399093	412.1418140589569	57	127
412.1418140589569	412.28113378684805	56	127
412.28113378684805	412.40884353741495	57	127
412.40884353741495	412.53655328798186	59	127
412.53655328798186	412.67587301587304	60	127
412.67587301587304	412.8268027210884	59	127
412.8268027210884	412.9777324263039	62	127
412.9777324263039	413.12866213151926	60	127
413.12866213151926	413.2795918367347	59	127
413.2795918367347	413.51179138321993	57	127
413.51179138321993	413.6627210884354	55	127
413.6627210884354	413.82526077097504	59	127
413.82526077097504	413.9761904761905	57	127
413.9761904761905	414.12712018140587	55	127
414.12712018140587	414.2896598639456	57	127
414.2896598639456	414.5102494331066	54	127
414.5102494331066	414.6843990929705	40	127
414.6843990929705	414.8701587301587	47	127
414.8701587301587	414.9746485260771	55	127
414.9746485260771	415.0675283446712	47	127
415.0675283446712	415.17201814058956	55	127
415.17201814058956	415.29972789115646	47	127
415.29972789115646	415.40421768707483	55	127
415.40421768707483	415.5203174603175	47	127
415.5203174603175	415.62480725623584	40	127
415.62480725623584	415.7409070294785	47	127
415.7409070294785	415.84539682539685	55	127
415.84539682539685	415.9731065759637	47	127
415.9731065759637	416.07759637188207	55	127
416.07759637188207	416.18208616780043	47	127
416.18208616780043	416.2865759637188	55	127
416.2865759637188	416.40267573696144	47	127
416.40267573696144	416.5071655328798	40	127
416.5071655328798	416.6348752834467	47	127
416.6348752834467	416.7393650793651	55	127
416.7393650793651	416.867074829932	47	127
416.867074829932	416.9831746031746	55	127
416.9831746031746	417.08766439909294	47	127
417.08766439909294	417.1921541950113	55	127
417.1921541950113	417.30825396825395	47	127
417.30825396825395	417.4127437641723	40	127
417.4127437641723	417.5172335600907	47	127
417.5172335600907	417.62172335600906	55	127
417.62172335600906	417.7262131519274	47	127
417.7262131519274	417.8307029478458	55	127
417.8307029478458	417.9235827664399	47	127
417.9235827664399	418.03968253968253	55	127
418.03968253968253	418.1441723356009	47	127
418.1441723356009	418.22544217687073	40	127
418.22544217687073	418.3299319727891	47	127
418.3299319727891	418.44603174603174	57	127
418.44603174603174	418.5505215419501	47	127
418.5505215419501	418.6550113378685	39	127
418.6550113378685	418.75950113378684	47	127
418.75950113378684	418.8756009070295	57	127
418.8756009070295	418.98009070294785	47	127
418.98009070294785	419.0845804988662	39	127
419.0845804988662	419.20068027210885	47	127
419.20068027210885	419.3051700680272	57	127
419.3051700680272	419.4096598639456	47	127
419.4096598639456	419.560589569161	39	127
419.560589569161	419.6766893424036	47	127
419.6766893424036	419.781179138322	57	127
419.781179138322	419.9088888888889	47	127
419.9088888888889	420.01337868480726	39	127
420.01337868480726	420.11786848072563	47	127
420.11786848072563	420.222358276644	57	127
420.222358276644	420.32684807256237	47	127
420.32684807256237	420.4545578231293	39	127
420.4545578231293	420.58226757369613	47	127
420.58226757369613	420.7215873015873	54	127
420.7215873015873	420.83768707482994	47	127
420.83768707482994	420.9421768707483	39	127
420.9421768707483	421.0466666666667	47	127
421.0466666666667	421.15115646258505	54	127
421.15115646258505	421.2556462585034	47	127
421.2556462585034	421.39496598639454	39	127
421.39496598639454	421.4994557823129	47	127
421.4994557823129	421.6039455782313	54	127
421.6039455782313	421.7200453514739	47	127
421.7200453514739	421.8245351473923	40	127
421.8245351473923	421.9058049886621	47	127
421.9058049886621	421.987074829932	55	127
421.987074829932	422.09156462585037	47	127
422.09156462585037	422.18444444444447	55	127
422.18444444444447	422.3121541950113	47	127
422.3121541950113	422.4166439909297	55	127
422.4166439909297	422.52113378684805	47	127
422.52113378684805	422.64884353741496	40	127
422.64884353741496	422.77655328798187	47	127
422.77655328798187	422.9042630385488	55	127
422.9042630385488	423.00875283446715	47	127
423.00875283446715	423.136462585034	40	127
423.136462585034	423.24095238095236	49	127
423.24095238095236	423.34544217687073	55	127
423.34544217687073	423.47315192743764	49	127
423.47315192743764	423.577641723356	42	127
423.577641723356	423.69374149659865	48	127
423.69374149659865	423.798231292517	57	127
423.798231292517	423.91433106575965	48	127
423.91433106575965	424.0304308390023	42	127
424.0304308390023	424.13492063492066	50	127
424.13492063492066	424.25102040816324	57	127
424.25102040816324	424.3671201814059	50	127
424.3671201814059	424.47160997732425	42	127
424.47160997732425	424.5760997732426	50	127
424.5760997732426	424.69219954648526	57	127
424.69219954648526	424.7966893424036	50	127
424.7966893424036	424.9360090702948	42	127
424.9360090702948	425.05210884353744	50	127
425.05210884353744	425.1565986394558	57	127
425.1565986394558	425.28430839002266	50	127
425.28430839002266	425.388798185941	43	127
425.388798185941	425.4932879818594	50	127
425.4932879818594	425.60938775510203	57	127
425.60938775510203	425.7254875283447	50	127
425.7254875283447	425.8531972789116	57	127
425.8531972789116	425.9460770975057	50	127
425.9460770975057	426.05056689342405	57	127
426.05056689342405	426.1550566893424	50	127
426.1550566893424	426.2479365079365	43	127
426.2479365079365	426.3524263038549	52	127
426.3524263038549	426.45691609977325	59	127
426.45691609977325	426.5730158730159	52	127
426.5730158730159	426.68911564625853	43	127
426.68911564625853	426.8052154195011	52	127
426.8052154195011	426.9097052154195	59	127
426.9097052154195	427.01419501133785	52	127
427.01419501133785	427.1186848072562	46	127
427.1186848072562	427.23478458049885	52	127
427.23478458049885	427.32766439909295	61	127
427.32766439909295	427.4321541950113	52	127
427.4321541950113	427.5366439909297	46	127
427.5366439909297	427.6295238095238	52	127
427.6295238095238	427.7456235827664	61	127
427.7456235827664	427.8849433106576	52	127
427.8849433106576	427.989433106576	46	127
427.989433106576	428.09392290249434	52	127
428.09392290249434	428.210022675737	61	127
428.210022675737	428.31451247165535	52	127
428.31451247165535	428.4190022675737	46	127
428.4190022675737	428.5234920634921	54	127
428.5234920634921	428.62798185941045	61	127
428.62798185941045	428.7324716553288	54	127
428.7324716553288	428.8369614512472	47	127
428.8369614512472	428.9762811791383	54	127
428.9762811791383	429.0807709750567	62	127
429.0807709750567	429.1736507936508	54	127
429.1736507936508	429.27814058956915	62	127
429.27814058956915	429.40585034013606	54	127
429.40585034013606	429.5219501133787	62	127
429.5219501133787	429.62643990929706	54	127
429.62643990929706	429.75414965986397	49	127
429.75414965986397	429.84702947845807	53	127
429.84702947845807	429.95151927437644	56	127
429.95151927437644	430.09083900226756	53	127
430.09083900226756	430.1953287981859	56	127
430.1953287981859	430.2998185941043	53	127
430.2998185941043	430.40430839002266	56	127
430.40430839002266	430.5204081632653	53	127
430.5204081632653	430.62489795918367	49	127
430.62489795918367	430.72938775510204	54	127
430.72938775510204	430.8338775510204	57	127
430.8338775510204	430.9383673469388	54	127
430.9383673469388	431.04285714285714	57	127
431.04285714285714	431.1473469387755	54	127
431.1473469387755	431.2750566893424	57	127
431.2750566893424	431.3795464852608	54	127
431.3795464852608	431.48403628117916	49	127
431.48403628117916	431.611746031746	56	127
431.611746031746	431.7162358276644	59	127
431.7162358276644	431.8439455782313	56	127
431.8439455782313	431.9716553287982	59	127
431.9716553287982	432.08775510204083	56	127
432.08775510204083	432.1922448979592	59	127
432.1922448979592	432.29673469387757	56	127
432.29673469387757	432.7495238095238	49	127
432.29673469387757	432.7495238095238	57	127
432.29673469387757	432.7495238095238	42	127
433.1907029478458	437.4167346938776	68	127
437.42834467120184	437.83469387755105	68	127
437.84630385487526	438.2874829931973	66	127
438.2874829931973	438.717052154195	64	127
438.717052154195	439.20467120181405	63	127
439.2162811791383	439.48331065759635	64	127
439.4949206349206	439.70390022675736	61	127
439.7155102040816	440.261179138322	61	127
440.28439909297055	441.7588662131519	60	127
443.23333333333335	443.6745124716553	60	127
443.6861224489796	443.8718820861678	61	127
443.8718820861678	444.0228117913832	63	127
444.0228117913832	444.17374149659867	61	127
444.17374149659867	444.28984126984125	60	127
444.28984126984125	444.4291609977324	61	127
444.4291609977324	444.58009070294787	63	127
444.58009070294787	444.719410430839	64	127
444.719410430839	444.85873015873017	66	127
444.85873015873017	445.0328798185941	64	127
445.0328798185941	445.1721995464853	63	127
445.1721995464853	445.32312925170066	64	127
445.32312925170066	445.4740589569161	66	127
445.4740589569161	446.0081179138322	68	127
446.0081179138322	446.2519274376417	69	127
446.2519274376417	446.46090702947845	68	127
446.46090702947845	446.6931065759637	66	127
446.6931065759637	446.925306122449	64	127
446.925306122449	447.14589569160995	63	127
447.14589569160995	447.40131519274377	61	127
447.40131519274377	448.7132426303855	69	127
448.72485260770975	448.9222222222222	67	127
448.9338321995465	449.0499319727891	66	127
449.0615419501134	449.17764172335603	64	127
449.18925170068024	449.27052154195013	62	127
449.2821315192744	450.31541950113376	61	127
450.32702947845803	451.26743764172335	60	127
451.26743764172335	453.18308390022673	61	127
453.194693877551	455.06390022675737	40	127
455.06390022675737	456.8634467120181	42	127
456.88666666666666	456.9563265306123	59	127
456.9563265306123	457.0956462585034	57	127
457.0956462585034	457.33945578231294	56	127
457.3510657596372	457.43233560090704	59	127
457.43233560090704	457.5832653061224	57	127
457.5832653061224	457.827074829932	56	127
457.83868480725624	457.9083446712018	59	127
457.9083446712018	458.09410430839	57	127
458.09410430839	458.3263038548753	56	127
458.33791383219955	458.43079365079365	59	127
458.43079365079365	458.5817233560091	57	127
458.5817233560091	458.80231292517004	56	127
458.8139229024943	459.2551020408163	57	127
460.84566893424034	461.83251700680273	42	127
461.844126984127	462.8077551020408	49	127
462.81936507936507	463.7481632653061	50	127
463.7597732426304	464.7930612244898	49	127
464.8046712018141	465.77990929705214	47	127
465.7915192743764	466.8364172335601	45	127
466.8364172335601	467.81165532879817	44	127
467.82326530612244	468.7172335600907	42	127
468.72884353741495	469.79696145124717	38	127
469.80857142857144	470.8302494331066	45	127
470.84185941043086	471.8751473922903	47	127
471.8867573696145	472.88521541950115	45	127
472.8968253968254	473.9068934240363	43	127
473.9068934240363	474.88213151927437	42	127
474.9053514739229	475.9734693877551	40	127
475.98507936507934	477.0764172335601	38	127
477.0880272108844	479.29392290249433	37	127
479.3055328798186	481.55786848072563	38	127
481.5694784580499	483.8334240362812	40	127
483.84503401360547	486.0160997732426	40	127
486.0277097505669	487.0145578231292	45	127
487.0261678004535	487.9665759637188	52	127
487.9665759637188	489.31333333333333	54	127
489.3249433106576	489.7429024943311	49	127
489.75451247165535	490.34662131519275	52	127
490.358231292517	490.799410430839	50	127
490.81102040816324	491.2754195011338	49	127
491.28702947845807	491.48439909297053	50	127
491.4960090702948	491.72820861678	47	127
491.7398185941043	492.65700680272107	45	127
492.65700680272107	493.16784580498864	44	127
493.16784580498864	493.5974149659864	40	127
493.5974149659864	494.0385941043084	45	127
494.05020408163267	494.4913832199546	42	127
494.5029931972789	495.02544217687074	37	127
495.037052154195	495.5130612244898	39	127
495.52467120181404	496.87142857142857	40	127
496.88303854875284	497.3358276643991	56	127
497.34743764172333	497.82344671201815	57	127
497.82344671201815	498.2530158730159	56	127
498.2530158730159	498.7058049886621	57	127
498.7058049886621	499.14698412698414	61	127
499.14698412698414	500.49374149659866	64	127
500.50535147392293	501.0161904761905	68	127
501.0278004535147	501.45736961451246	69	127
501.50380952380954	501.91015873015874	68	127
501.921768707483	502.3861678004535	69	127
502.3977777777778	502.81573696145125	73	127
502.8273469387755	504.3366439909297	76	127
504.3366439909297	504.63850340136054	74	127
504.63850340136054	504.73138321995464	73	127
504.73138321995464	504.789433106576	71	127
504.789433106576	504.85909297052154	73	127
504.85909297052154	504.95197278911564	71	127
504.95197278911564	505.01002267573693	73	127
505.01002267573693	505.0680725623583	71	127
505.0680725623583	505.1261224489796	73	127
505.1261224489796	505.1841723356009	71	127
505.1841723356009	505.23061224489794	73	127
505.23061224489794	505.5673015873016	74	127
505.5673015873016	505.67179138321995	73	127
505.67179138321995	505.72984126984124	71	127
505.72984126984124	505.7878911564626	73	127
505.7878911564626	505.8459410430839	71	127
505.8459410430839	505.9156009070295	73	127
505.9156009070295	505.98526077097506	71	127
505.98526077097506	506.04331065759635	73	127
506.04331065759635	506.1013605442177	71	127
506.1013605442177	506.159410430839	73	127
506.159410430839	506.57736961451246	74	127
506.57736961451246	506.821179138322	73	127
506.821179138322	509.4102040816326	71	127
509.4218140589569	509.60757369614515	73	127
509.60757369614515	509.8049433106576	75	127
509.81655328798183	510.01392290249436	76	127
510.02553287981857	510.2461224489796	75	127
510.2461224489796	510.38544217687075	73	127
510.397052154195	510.60603174603176	71	127
510.60603174603176	510.8034013605442	69	127
510.8150113378685	510.94272108843535	68	127
510.94272108843535	511.10526077097506	71	127
511.11687074829933	511.29102040816326	69	127
511.30263038548753	511.5580498866213	68	127
511.56965986394556	511.8250793650794	69	127
511.83668934240364	512.1269387755102	66	127
512.1501587301588	512.6261451247166	63	127
512.6377551020408	513.752335600907	66	127
513.7639455782313	515.9234013605442	64	127
519.2438548752834	519.6618140589569	65	127
519.6734240362812	520.1029931972789	64	127
520.1146031746032	520.5209523809524	52	127
520.5325623582767	521.3220408163265	57	127
521.3220408163265	521.6122902494332	64	127
521.6122902494332	521.6703401360544	62	127
521.6703401360544	521.74	64	127
521.74	522.1579591836735	65	127
522.1695691609978	522.4481859410431	64	127
522.4481859410431	522.5178684807256	59	127
522.5178684807256	522.5991383219955	60	127
522.5991383219955	523.0054875283447	62	127
523.017097505669	523.4350566893424	60	127
523.4698639455783	523.9110657596372	64	127
523.9226757369614	527.1850793650793	64	127
527.1966893424036	527.6146485260771	64	127
527.6262585034013	527.7539682539683	56	127
527.7655555555556	527.8932879818594	56	127
527.9048979591837	528.0326077097506	56	127
528.0442176870748	528.3228571428572	57	127
528.450566893424	528.6014965986394	48	127
528.6014965986394	528.7408163265306	48	127
528.7408163265306	528.8685260770975	48	127
528.8685260770975	529.1007256235828	52	127
529.2051927437642	529.3445351473923	44	127
529.3561451247166	529.4838548752834	44	127
529.4954648526077	529.6115419501134	44	127
529.6231746031746	529.9830839002268	45	127
530.0759637188208	530.2036734693878	48	127
530.2152607709751	530.3546031746032	47	127
530.3662131519275	530.48231292517	45	127
530.4939229024943	530.9118820861678	52	127
532.200589569161	532.3399092970521	52	127
532.3399092970521	532.4792063492064	53	127
532.4792063492064	532.641768707483	52	127
532.641768707483	532.7810884353742	51	127
532.7810884353742	532.9204081632653	52	127
532.9204081632653	533.0713378684808	51	127
533.0713378684808	533.2454875283447	52	127
533.2454875283447	533.4080272108844	53	127
533.4080272108844	533.5357369614512	52	127
533.5357369614512	533.6866439909297	51	127
533.6866439909297	533.8143764172336	52	127
533.8143764172336	533.965306122449	51	127
533.965306122449	535.3468707482994	52	127
535.3585034013605	535.6139229024943	50	127
535.6139229024943	535.8693424036281	47	127
535.8693424036281	536.1015419501134	45	127
536.1015419501134	536.3337414965987	47	127
536.3337414965987	536.5775510204081	49	127
536.5775510204081	536.8213605442177	50	127
536.8213605442177	537.0187301587301	52	127
537.0187301587301	537.2277097505669	54	127
537.2277097505669	537.4250793650793	56	127
537.4250793650793	537.6921088435374	57	127
537.6921088435374	537.935918367347	59	127
537.935918367347	538.1681179138322	61	127
538.1681179138322	538.4002947845805	62	127
538.4002947845805	538.6092743764173	64	127
538.6092743764173	538.8414965986394	66	127
538.8414965986394	539.0736961451247	68	127
539.0736961451247	539.352335600907	69	127
539.352335600907	539.6193424036281	71	127
539.6193424036281	539.8283219954649	73	127
539.8283219954649	540.060544217687	74	127
540.060544217687	540.281133786848	75	127
540.281133786848	540.4901133786848	76	127
540.4901133786848	540.6990929705215	75	127
540.6990929705215	540.9545124716553	76	127
540.9545124716553	541.1751020408163	73	127
541.1751020408163	541.2331519274377	69	127
541.2331519274377	541.2912018140589	68	127
541.2912018140589	541.3492517006803	69	127
541.3492517006803	541.4073015873016	71	127
541.4073015873016	542.3709297052154	69	127
542.3709297052154	542.8585487528345	68	127
543.3809977324263	543.5667573696145	40	127
543.5667573696145	543.7757369614512	42	127
543.7757369614512	543.9614965986394	44	127
543.9614965986394	544.1820861678004	45	127
544.1820861678004	544.3678458049886	47	127
544.3678458049886	544.5768253968254	49	127
544.5768253968254	544.7741950113378	50	127
544.7741950113378	545.0180045351474	52	127
545.0180045351474	545.2966439909297	54	127
545.2966439909297	545.5172335600907	56	127
545.5172335600907	545.7378231292518	57	127
545.7378231292518	545.9932426303855	59	127
545.9932426303855	546.237052154195	61	127
546.237052154195	546.457641723356	62	127
546.457641723356	546.6550113378685	63	127
546.6550113378685	546.8523809523809	64	127
546.8523809523809	547.072970521542	65	127
547.072970521542	547.2819501133787	66	127
547.2819501133787	547.4909297052154	65	127
547.4909297052154	547.7231292517007	66	127
547.7231292517007	547.9437188208617	68	127
547.9437188208617	548.2455782312925	66	127
548.2455782312925	548.4545578231292	64	127
548.4545578231292	548.5126077097506	62	127
548.5126077097506	548.5938775510205	61	127
548.5938775510205	548.663537414966	62	127
548.663537414966	548.7331972789116	64	127
548.7331972789116	549.7432653061225	62	127
549.7548752834467	549.9174149659864	61	127
549.9754648526077	550.207664399093	64	127
550.207664399093	550.4166439909297	69	127
550.4166439909297	550.6372335600907	68	127
550.6372335600907	551.4963492063492	66	127
551.5079818594104	551.7053514739229	64	127
551.7750113378685	551.9956009070295	64	127
551.9956009070295	552.2161904761905	69	127
552.2161904761905	552.4483900226758	68	127
552.4483900226758	553.3539682539682	66	127
553.3655782312925	553.5397052154195	64	127
553.5861678004535	553.829977324263	64	127
553.829977324263	554.0621768707483	69	127
554.0621768707483	554.5033560090703	68	127
554.5149659863946	554.9213151927438	66	127
554.9329251700681	555.3508843537415	64	127
555.3624716553288	555.8036734693877	62	127
555.815283446712	556.5351020408164	61	127
556.5351020408164	557.5451700680272	59	127
557.5567800453515	557.9631292517007	59	127
557.974739229025	558.3694784580499	59	127
558.3694784580499	558.5668480725624	57	127
558.5668480725624	558.7874376417234	56	127
558.7874376417234	559.0428344671202	54	127
559.0428344671202	559.2402267573697	52	127
559.3563265306123	559.6117460317461	64	127
559.6930158730158	559.9252154195011	64	127
560.0529251700681	560.935283446712	64	127
560.9468934240363	561.8756916099774	61	127
561.8873015873016	563.1760090702948	57	127
563.1760090702948	564.0815873015873	52	127
564.0815873015873	564.5343764172336	52	127
564.5343764172336	564.9871428571429	49	127
564.9871428571429	565.2309750566893	45	127
565.2309750566893	565.5096145124717	49	127
565.5096145124717	567.11179138322	52	127
567.5413605442177	568.435328798186	62	127
568.4469160997733	569.3176870748299	59	127
569.3176870748299	569.7356462585034	56	127
569.7472562358276	570.1419954648526	52	127
570.1536054421769	570.5715646258503	52	127
570.5831746031746	571.0591836734694	47	127
571.0707936507937	571.5119727891157	44	127
571.523560090703	571.9763718820861	40	127
571.9995918367347	572.4175510204082	52	127
572.4291609977324	572.893560090703	52	127
572.9051700680272	573.7991383219954	52	127
573.7991383219954	574.0661678004535	45	127
574.1009977324263	574.3448072562359	57	127
574.3448072562359	574.5537868480726	59	127
574.5770068027211	574.8440362811791	61	127
574.8440362811791	575.0530158730159	62	127
575.0530158730159	575.238775510204	57	127
575.238775510204	575.4825850340136	62	127
575.4825850340136	575.7263945578231	60	127
575.7263945578231	575.9005442176871	61	127
575.9702040816327	576.2488435374149	57	127
576.2488435374149	576.4694331065759	59	127
576.4694331065759	576.6784126984127	61	127
576.6784126984127	576.8873922902494	62	127
576.8873922902494	577.1079818594104	57	127
577.1079818594104	577.3053514739229	62	127
577.3053514739229	577.5143310657596	60	127
577.5143310657596	577.6652380952381	61	127
577.7233106575964	577.9555102040816	57	127
577.9555102040816	578.1993197278912	59	127
578.1993197278912	578.454739229025	61	127
578.454739229025	578.9307482993197	62	127
579.6273469387755	579.8363265306123	59	127
579.8363265306123	580.0801360544218	62	127
580.0801360544218	580.3123129251701	61	127
580.3123129251701	580.5445351473923	59	127
581.415283446712	581.6126530612245	64	127
581.6126530612245	581.8680725623583	68	127
581.8680725623583	582.1234920634921	66	127
582.1234920634921	582.3672789115647	64	127
582.3672789115647	582.5995011337868	61	127
582.5995011337868	582.8433106575964	64	127
582.8433106575964	583.0639002267574	62	127
583.0639002267574	583.3077097505669	61	127
583.3077097505669	583.5282993197279	57	127
583.5282993197279	583.7488888888889	62	127
583.7488888888889	583.9694784580499	59	127
583.9810884353742	584.4338775510204	59	127
584.4338775510204	585.1769160997733	57	127
585.1769160997733	585.2349433106576	59	127
585.2349433106576	585.2930158730159	57	127
585.2930158730159	585.3510657596372	56	127
585.3510657596372	585.4207029478458	57	127
585.4207029478458	585.6645351473923	61	127
585.6645351473923	586.0128344671202	59	127
586.0128344671202	586.5004535147392	57	127
596.8565532879819	597.2048526077098	45	127
597.3093424036281	598.2033106575964	45	127
598.2149206349206	598.272970521542	47	127
598.272970521542	598.3193877551021	49	127
598.3193877551021	598.3774603174603	47	127
598.3774603174603	598.4239002267574	49	127
598.4239002267574	598.4819501133787	47	127
598.4819501133787	598.5632199546485	45	127
598.5632199546485	598.6444897959184	47	127
598.6444897959184	599.0856689342404	49	127
599.1088888888889	599.9447845804989	45	127
599.9563945578232	600.0028571428571	47	127
600.0028571428571	600.0725170068027	49	127
600.0725170068027	600.1189569160998	47	127
600.1189569160998	600.177006802721	49	127
600.177006802721	600.2466666666667	47	127
600.2466666666667	600.3163265306123	45	127
600.3163265306123	600.3859863945578	47	127
600.3859863945578	600.792335600907	49	127
600.8039455782313	601.140634920635	45	127
601.140634920635	601.2451247165533	44	127
601.2451247165533	601.6863038548753	42	127
601.6863038548753	602.0229931972789	50	127
602.0229931972789	602.1274829931973	49	127
602.1274829931973	602.557052154195	48	127
602.5686621315193	602.9285714285714	56	127
602.9285714285714	603.0330612244898	54	127
603.0330612244898	603.4974603174603	53	127
603.5090702947846	603.9386394557823	54	127
603.9502494331066	604.4146485260771	52	127
604.4378458049887	604.8441950113379	51	127
604.8558049886622	605.0647845804989	54	127
605.07641723356	605.2157369614513	52	127
605.2389569160998	605.3898866213152	50	127
605.4479365079366	605.6220861678005	49	127
605.6801133786848	606.0980952380952	52	127
606.132925170068	606.5624943310657	50	127
606.57410430839	607.0268934240363	47	127
607.0385034013606	607.4796825396826	45	127
607.4912925170069	609.6507482993197	44	127
609.6507482993197	610.1267573696146	44	127
610.1383673469388	610.544716553288	44	127
610.5563265306123	611.1019954648526	44	127
611.1136054421769	611.5663945578232	44	127
612.9247619047619	613.0756916099773	52	127
613.0756916099773	613.2265986394558	54	127
613.2265986394558	613.3659410430839	56	127
613.3659410430839	613.5284807256236	57	127
613.5284807256236	613.6910204081632	59	127
613.6910204081632	613.8419274376417	61	127
613.8419274376417	613.9	64	127
613.9	614.0160997732427	62	127
614.0160997732427	614.1902494331066	61	127
614.1902494331066	614.341179138322	62	127
614.341179138322	614.5385487528345	66	127
614.5385487528345	614.7359183673469	64	127
614.7359183673469	614.8984580498866	62	127
614.8984580498866	615.3628571428571	61	127
616.767664399093	616.9069614512472	45	127
616.9069614512472	617.1043537414967	47	127
617.1043537414967	617.2320634920635	49	127
617.2320634920635	617.4178231292517	50	127
617.4178231292517	617.5571428571428	52	127
617.5571428571428	617.696462585034	54	127
617.696462585034	617.8473922902494	55	127
617.8473922902494	618.0099319727891	57	127
618.0099319727891	618.2073015873016	59	127
618.2073015873016	618.3582086167801	61	127
618.3582086167801	618.5555782312925	62	127
618.5555782312925	618.7181405895692	64	127
618.7181405895692	620.7266666666667	66	127
620.738276643991	622.6539002267574	51	127
622.6655328798186	624.7204988662131	52	127
622.6655328798186	624.7204988662131	61	127
624.7321088435374	624.8714285714286	52	127
624.9410884353741	625.0804081632654	57	127
625.1616780045351	625.3125850340136	61	127
625.3822675736961	625.5448072562358	64	127
625.6144671201814	625.8002267573696	61	127
625.8814965986395	626.0556462585034	61	127
626.1136734693878	626.3342630385488	61	127
626.4155555555556	626.8683446712018	62	127
630.6415873015873	631.5355555555556	56	127
631.5819954648526	632.5107936507936	64	127
632.5224036281179	633.1145124716553	63	127
633.1261224489796	633.544081632653	64	127
633.5556916099773	633.9968707482993	66	127
634.0084807256236	634.4496598639456	64	127
634.4612698412699	635.5293650793651	56	127
635.5409977324263	636.5626757369614	64	127
636.5742857142857	637.1896145124716	63	127
637.2012244897959	637.6772335600907	64	127
637.688843537415	638.1764399092971	66	127
638.1880498866213	638.6408616780045	64	127
638.6524716553288	639.1168707482993	64	127
639.1284807256236	639.5812698412699	62	127
639.5928798185942	640.0456689342403	61	127
640.0572789115646	640.4868480725623	59	127
640.4984580498866	640.9512471655329	57	127
640.9628571428572	641.3692063492064	55	127
641.3808163265306	641.8916553287982	54	127
641.8916553287982	642.5185941043084	52	127
642.5185941043084	643.5054195011338	50	127
643.5054195011338	644.5039002267574	57	127
644.5039002267574	645.8854875283447	59	127
645.8854875283447	646.3266666666667	54	127
646.3266666666667	646.779433106576	57	127
646.779433106576	647.2786848072562	55	127
647.2786848072562	647.7895011337869	54	127
647.7895011337869	647.9984807256236	55	127
648.0100907029479	648.2887528344671	52	127
648.3235827664399	649.2639909297052	50	127
649.2756009070295	649.7283900226757	49	127
651.678843537415	651.7369160997732	57	127
651.7369160997732	651.7949659863946	59	127
651.7949659863946	651.8530158730159	57	127
651.8530158730159	651.8994557823129	59	127
651.8994557823129	651.9691156462585	57	127
651.9691156462585	652.0155555555556	59	127
652.0155555555556	652.0736054421769	57	127
652.0736054421769	652.1200453514739	59	127
652.1200453514739	652.5960544217687	60	127
652.607664399093	653.0720634920635	59	127
653.0720634920635	653.6177324263039	57	127
653.6293424036281	653.8731519274377	59	127
653.884761904762	654.1517913832199	54	127
654.1634013605442	655.080589569161	57	127
655.0921995464853	655.5798185941043	56	127
655.5914285714285	656.0442176870748	55	127
656.0558276643991	656.4853968253968	58	127
656.4853968253968	656.9149659863946	57	127
656.9265759637188	657.4490249433106	55	127
657.4606349206349	657.6580045351474	57	127
657.6696145124716	657.9134240362812	52	127
657.948253968254	659.8638775510204	53	127
659.8638775510204	661.7214965986394	52	127
661.7331065759637	663.4397732426304	50	127
663.4513832199547	665.2857596371882	48	127
665.2973696145125	667.1433560090703	53	127
667.1433560090703	668.896462585034	52	127
668.9080725623583	670.6959863945578	50	127
670.7075963718821	672.5187755102041	48	127
672.5303628117914	673.4591836734694	47	127
673.4707936507937	674.2951020408163	45	127
674.3067120181406	675.293560090703	44	127
675.293560090703	676.1526984126984	43	127
676.1643083900227	677.0234240362812	42	127
677.0350340136055	678.0335147392291	42	127
678.0451020408163	678.207664399093	40	127
678.207664399093	678.3469841269841	42	127
678.3469841269841	678.5095238095238	44	127
678.5095238095238	678.6720408163266	45	127
678.6720408163266	678.822993197279	47	127
678.822993197279	678.9623129251701	49	127
678.9623129251701	679.0667800453515	50	127
679.0667800453515	679.1480725623583	52	127
679.1480725623583	679.2525623582767	54	127
679.2525623582767	679.3686621315193	56	127
679.3686621315193	679.4731519274377	57	127
679.4731519274377	679.577641723356	59	127
679.577641723356	679.6821088435374	61	127
679.6821088435374	679.7866213151927	62	127
679.7866213151927	680.2510204081633	64	127
680.7618594104308	681.2610884353742	40	127
681.8183673469388	682.7819954648526	57	127
682.7936054421768	683.7340136054422	64	127
683.768820861678	685.1504308390023	66	127
685.1504308390023	685.6496598639455	61	127
685.6496598639455	686.0327664399093	64	127
686.0327664399093	686.5900680272109	62	127
686.5900680272109	687.0544444444445	61	127
687.0544444444445	687.2750566893424	62	127
687.2750566893424	687.5188662131519	59	127
687.5188662131519	688.447664399093	57	127
688.4592743764173	688.9004308390023	56	127
688.9004308390023	689.3880725623583	52	127
689.3880725623583	689.7944217687075	57	127
689.7944217687075	690.2472108843538	54	127
690.2472108843538	690.7580498866213	49	127
690.7580498866213	691.2456689342404	51	127
691.2456689342404	692.5807936507937	52	127
692.5924263038548	693.0684353741497	61	127
693.0684353741497	693.5328344671202	62	127
693.5328344671202	693.9856235827665	59	127
693.9856235827665	694.4848526077097	54	127
694.496462585034	694.9724716553288	56	127
694.9840816326531	696.4469160997733	57	127
700.3130612244898	700.7890702947846	49	127
700.8006802721088	701.1954195011338	50	127
701.207029478458	701.7178684807257	47	127
701.7294784580499	702.1474376417234	42	127
702.1590476190477	702.6466666666666	44	127
702.6582766439909	704.0166213151928	45	127
704.028231292517	704.4461904761905	49	127
704.4461904761905	704.910612244898	50	127
704.910612244898	705.3401814058957	47	127
705.3401814058957	705.7581405895692	42	127
705.7697505668934	706.2225396825397	44	127
706.234149659864	707.1861678004535	45	127
707.1977777777778	708.138185941043	44	127
708.1497959183673	709.101814058957	45	127
709.101814058957	710.030612244898	44	127
710.0422222222222	710.5066213151928	45	127
710.518231292517	710.9361904761905	44	127
710.9478004535148	711.3889569160998	45	127
711.400589569161	711.8765986394558	44	127
711.88820861678	712.3642176870749	45	127
712.3758276643991	712.7821768707483	44	127
712.7821768707483	713.2117460317461	45	127
713.2117460317461	713.6645351473923	44	127
713.6761451247165	714.6165532879819	45	127
714.6165532879819	715.5337414965986	52	127
715.5453514739229	716.4509297052155	54	127
716.4625396825397	717.3797278911564	49	127
717.3913378684807	718.3201360544218	50	127
718.3317233560091	719.2373242630385	45	127
719.2489342403628	721.0949206349206	40	127
721.1065306122449	721.1877777777778	45	127
721.1877777777778	721.2690702947846	47	127
721.2690702947846	721.4083673469388	45	127
721.4083673469388	721.5012698412698	47	127
721.5012698412698	721.5709297052155	45	127
721.5709297052155	721.6638095238095	47	127
721.6638095238095	721.7915192743765	45	127
721.7915192743765	721.8727891156462	47	127
721.8727891156462	722.0004988662132	45	127
722.0004988662132	722.0701587301587	47	127
722.0701587301587	722.1398185941043	45	127
722.1398185941043	722.2443083900226	47	127
722.2443083900226	722.3139682539683	45	127
722.3139682539683	722.3836281179139	47	127
722.3836281179139	722.4648979591836	45	127
722.4648979591836	722.5461678004535	47	127
722.5461678004535	722.6158276643991	45	127
722.6158276643991	722.6854875283447	47	127
722.6854875283447	722.7667573696145	45	127
722.7667573696145	722.8480045351474	47	127
722.8480045351474	722.9176870748299	45	127
722.9176870748299	723.0453741496599	44	127
723.0453741496599	723.1382766439909	45	127
723.1382766439909	725.0887301587302	40	127
725.1003628117913	725.2048526077098	45	127
725.2048526077098	725.2745124716554	47	127
725.2745124716554	725.3557823129252	45	127
725.3557823129252	725.4254421768708	47	127
725.4254421768708	725.5183219954648	45	127
725.5183219954648	725.6228117913832	47	127
725.6228117913832	725.7156916099773	45	127
725.7156916099773	725.7853514739229	47	127
725.7853514739229	725.8550113378685	45	127
725.8550113378685	725.9478911564626	47	127
725.9478911564626	726.0407709750567	45	127
726.0407709750567	726.1104081632653	47	127
726.1104081632653	726.2033106575964	45	127
726.2033106575964	726.2845804988663	47	127
726.2845804988663	726.3542403628118	45	127
726.3542403628118	726.4355102040817	47	127
726.4355102040817	726.5051473922903	45	127
726.5051473922903	726.5980498866213	47	127
726.5980498866213	726.6909297052155	45	127
726.6909297052155	726.7721995464852	47	127
726.7721995464852	726.8418594104309	45	127
726.8418594104309	726.9463492063492	44	127
726.9463492063492	727.027619047619	45	127
727.027619047619	729.0361451247165	52	127
729.5469841269842	729.7327437641724	50	127
730.0113832199546	730.2087301587302	52	127
730.4641723356009	730.731201814059	40	127
731.0214285714286	731.5206802721088	45	127
732.0199092970522	734.5508843537415	40	127
746.2653514739229	746.9967800453514	45	127
