# onset,offset,note,velocity
11.388616780045352	11.736916099773243	59	127
11.388616780045352	11.945895691609977	68	127
11.748526077097505	11.945895691609977	62	127
11.95750566893424	12.166485260770974	61	127
11.95750566893424	12.398684807256236	69	127
12.178095238095239	12.398684807256236	64	127
12.410294784580499	12.828253968253968	68	127
12.410294784580499	12.642494331065759	59	127
12.642494331065759	12.828253968253968	62	127
12.839863945578232	13.095283446712019	61	127
12.839863945578232	13.29265306122449	69	127
13.106893424036281	13.29265306122449	64	127
13.29265306122449	13.780272108843537	73	127
13.29265306122449	13.536462585034014	57	127
13.548072562358277	13.780272108843537	64	127
13.791882086167801	15.16185941043084	76	127
13.791882086167801	13.989251700680272	52	127
14.000861678004535	14.267891156462586	56	127
14.279501133786848	14.465260770975057	59	127
14.465260770975057	14.67424036281179	64	127
14.685850340136055	14.894829931972788	68	127
14.894829931972788	15.16185941043084	71	127
15.185079365079366	15.649478458049886	80	127
15.185079365079366	15.428888888888888	76	127
15.440498866213153	15.649478458049886	74	127
15.672698412698413	15.881678004535148	73	127
15.672698412698413	16.11387755102041	81	127
15.89328798185941	16.11387755102041	76	127
16.12548752834467	16.380907029478458	71	127
16.12548752834467	16.647936507936507	80	127
16.42734693877551	16.647936507936507	74	127
16.659546485260773	17.11233560090703	81	127
16.659546485260773	16.88013605442177	73	127
16.89174603174603	17.11233560090703	76	127
17.123945578231293	17.553514739229026	85	127
17.123945578231293	17.34453514739229	69	127
17.356145124716555	17.553514739229026	73	127
17.56512471655329	19.02798185941043	88	127
17.56512471655329	17.785714285714285	68	127
17.797301587301586	18.017913832199547	71	127
18.02952380952381	18.354603174603174	64	127
18.366190476190475	18.551972789115645	71	127
18.56358276643991	18.772562358276645	68	127
18.784172335600907	19.02798185941043	71	127
19.039591836734694	19.248571428571427	69	127
19.039591836734694	19.36467120181406	86	127
19.039591836734694	19.248571428571427	64	127
19.260181405895693	19.48077097505669	73	127
19.37628117913832	19.48077097505669	85	127
19.503968253968253	19.71297052154195	64	127
19.503968253968253	19.608480725623583	83	127
19.503968253968253	19.71297052154195	68	127
19.56204081632653	19.666530612244898	85	127
19.620090702947845	19.71297052154195	83	127
19.666530612244898	19.771020408163267	85	127
19.724580498866214	19.829070294784582	83	127
19.724580498866214	19.933560090702947	71	127
19.78263038548753	19.86390022675737	85	127
19.840680272108845	19.933560090702947	83	127
19.86390022675737	19.991609977324263	85	127
19.94517006802721	20.200589569160996	69	127
19.94517006802721	20.316689342403627	86	127
19.94517006802721	20.200589569160996	64	127
20.200589569160996	20.43278911564626	73	127
20.316689342403627	20.43278911564626	85	127
20.44439909297052	20.537278911564627	83	127
20.44439909297052	20.66498866213152	64	127
20.44439909297052	20.66498866213152	68	127
20.502448979591836	20.606938775510205	85	127
20.54888888888889	20.66498866213152	83	127
20.618548752834467	20.74625850340136	85	127
20.676598639455783	21.001678004535147	71	127
20.676598639455783	20.804308390022676	83	127
20.757868480725623	20.873968253968254	85	127
20.81591836734694	21.001678004535147	83	127
20.885578231292516	21.09453514739229	85	127
21.024897959183672	21.43124716553288	86	127
21.024897959183672	21.326757369614512	64	127
21.024897959183672	21.326757369614512	69	127
21.338367346938774	21.5821768707483	73	127
21.442857142857143	21.5821768707483	85	127
21.59378684807256	23.950612244897957	71	127
21.59378684807256	21.744716553287983	83	127
21.59378684807256	23.950612244897957	64	127
21.59378684807256	23.950612244897957	68	127
21.663424036281178	21.837596371882086	85	127
21.756326530612245	21.907256235827663	83	127
21.849206349206348	21.97691609977324	85	127
21.918843537414965	22.046553287981858	83	127
21.988526077097507	22.1162358276644	85	127
22.058185941043085	22.19750566893424	83	127
22.139455782312925	22.26716553287982	85	127
22.209115646258503	22.34843537414966	83	127
22.27877551020408	22.441315192743765	85	127
22.371655328798187	22.522585034013606	83	127
22.452925170068028	22.592244897959183	85	127
22.534195011337868	22.6502947845805	83	127
22.603854875283446	22.719954648526077	85	127
22.66190476190476	22.789614512471655	83	127
22.73156462585034	22.859274376417233	85	127
22.801224489795917	22.92891156462585	83	127
22.870861678004534	22.998571428571427	85	127
22.940544217687076	23.06825396825397	83	127
23.010204081632654	23.137913832199548	85	127
23.079863945578232	23.207573696145126	83	127
23.14952380952381	23.277233560090703	85	127
23.219183673469388	23.34689342403628	83	127
23.288843537414966	23.41655328798186	85	127
23.358503401360544	23.486213151927437	83	127
23.42816326530612	23.555873015873015	85	127
23.4978231292517	23.625532879818593	83	127
23.567460317460316	23.69517006802721	85	127
23.63714285714286	23.764852607709752	83	127
23.706802721088437	23.857732426303855	85	127
23.79968253968254	23.950612244897957	83	127
23.869342403628117	24.043492063492064	85	127
23.962222222222223	24.252471655328797	82	127
24.194421768707482	24.322131519274375	83	127
24.26408163265306	24.391791383219953	85	127
24.33374149659864	24.48467120181406	87	127
24.41501133786848	24.5659410430839	88	127
24.49628117913832	24.728480725623584	87	127
24.577551020408162	24.79814058956916	85	127
24.740090702947846	24.902630385487527	83	127
24.809750566893424	24.98390022675737	81	127
24.914240362811793	25.05356009070295	80	127
24.995510204081633	25.13482993197279	78	127
25.076780045351473	25.192879818594104	76	127
25.14643990929705	25.308979591836735	75	127
25.204489795918366	25.401859410430838	73	127
25.320589569160997	25.471519274376416	71	127
25.425079365079366	25.541179138321997	69	127
25.48312925170068	25.610839002267575	68	127
25.55278911564626	25.692108843537415	66	127
25.622448979591837	25.796598639455784	64	127
25.703718820861678	25.86625850340136	63	127
25.808208616780046	25.970748299319727	61	127
25.877868480725624	26.040408163265305	59	127
25.982358276643993	26.12167800453515	57	127
26.05201814058957	26.191337868480726	56	127
26.13328798185941	26.272607709750567	54	127
26.20294784580499	26.377097505668935	52	127
26.28421768707483	26.469977324263038	51	127
26.388707482993198	26.539637188208616	49	127
26.4815873015873	26.62090702947846	47	127
26.551247165532878	26.690566893424037	45	127
26.632517006802722	26.760226757369615	44	127
26.7021768707483	26.81827664399093	42	127
26.771836734693878	28.455283446712016	40	127
29.22154195011338	30.289659863945577	69	127
29.22154195011338	30.289659863945577	45	127
29.22154195011338	30.289659863945577	33	127
29.22154195011338	30.289659863945577	57	127
30.289659863945577	31.29972789115646	76	127
30.289659863945577	31.29972789115646	52	127
30.289659863945577	31.29972789115646	40	127
30.289659863945577	31.29972789115646	64	127
31.29972789115646	32.797392290249434	78	127
31.29972789115646	32.797392290249434	54	127
31.29972789115646	32.797392290249434	42	127
31.29972789115646	32.797392290249434	66	127
32.797392290249434	33.30825396825397	73	127
32.797392290249434	33.30825396825397	37	127
32.797392290249434	33.30825396825397	49	127
32.797392290249434	33.30825396825397	61	127
33.30825396825397	33.761043083900226	40	127
33.30825396825397	33.761043083900226	76	127
33.30825396825397	33.761043083900226	64	127
33.30825396825397	33.761043083900226	52	127
33.761043083900226	34.202222222222225	62	127
33.761043083900226	34.202222222222225	50	127
33.761043083900226	34.202222222222225	38	127
33.761043083900226	34.202222222222225	74	127
34.202222222222225	34.68981859410431	73	127
34.202222222222225	34.68981859410431	49	127
34.202222222222225	34.68981859410431	37	127
34.202222222222225	34.68981859410431	61	127
34.68981859410431	34.898820861678004	74	127
34.68981859410431	34.898820861678004	50	127
34.68981859410431	34.898820861678004	38	127
34.68981859410431	34.898820861678004	62	127
34.898820861678004	35.15424036281179	71	127
34.898820861678004	35.15424036281179	47	127
34.898820861678004	35.15424036281179	35	127
34.898820861678004	35.15424036281179	59	127
35.15424036281179	36.164308390022676	69	127
35.15424036281179	36.164308390022676	45	127
35.15424036281179	36.164308390022676	33	127
35.15424036281179	36.164308390022676	57	127
36.164308390022676	36.68675736961451	68	127
36.164308390022676	36.68675736961451	44	127
36.164308390022676	36.68675736961451	32	127
36.164308390022676	36.68675736961451	56	127
36.698367346938774	37.151156462585035	64	127
36.698367346938774	37.151156462585035	52	127
36.698367346938774	37.151156462585035	40	127
37.1627664399093	37.615532879818595	57	127
37.1627664399093	37.615532879818595	45	127
37.1627664399093	37.615532879818595	69	127
37.62716553287982	38.079954648526076	66	127
37.62716553287982	38.079954648526076	54	127
37.62716553287982	38.079954648526076	42	127
38.09156462585034	38.53274376417234	61	127
38.09156462585034	38.53274376417234	49	127
38.09156462585034	38.53274376417234	37	127
38.5443537414966	38.997142857142855	39	127
38.5443537414966	38.997142857142855	51	127
38.5443537414966	38.997142857142855	63	127
39.00873015873016	39.333832199546485	52	127
39.00873015873016	39.62408163265306	40	127
39.20612244897959	39.50795918367347	64	127
39.35705215419501	39.62408163265306	52	127
39.51956916099773	39.74018140589569	64	127
39.635668934240364	39.89108843537415	52	127
39.75179138321995	39.983990929705215	64	127
39.90269841269841	40.100090702947846	52	127
39.99560090702948	40.18136054421769	64	127
40.100090702947846	40.29746031746032	52	127
40.19297052154195	40.37873015873016	64	127
40.29746031746032	40.49482993197279	52	127
40.39034013605442	40.59931972789116	64	127
40.49482993197279	40.71541950113379	50	127
40.49482993197279	40.71541950113379	52	127
40.61092970521542	40.808299319727894	64	127
40.71541950113379	40.9127664399093	52	127
40.808299319727894	41.04047619047619	64	127
40.9127664399093	41.168185941043085	52	127
40.9127664399093	41.168185941043085	49	127
41.05210884353742	41.26108843537415	64	127
41.168185941043085	41.37718820861678	52	127
41.27269841269841	41.48167800453515	64	127
41.37718820861678	41.59777777777778	52	127
41.37718820861678	41.59777777777778	50	127
41.49328798185941	41.7487074829932	64	127
41.59777777777778	41.86480725623583	52	127
41.76031746031746	41.9692970521542	64	127
41.86480725623583	42.08539682539683	52	127
41.86480725623583	42.08539682539683	49	127
41.98090702947846	42.21310657596372	64	127
42.08539682539683	42.32920634920635	52	127
42.22471655328798	42.433673469387756	64	127
42.32920634920635	42.549795918367344	45	127
42.32920634920635	42.549795918367344	52	127
42.44530612244898	42.65428571428571	64	127
42.549795918367344	42.770385487528344	52	127
42.665895691609975	42.886485260770975	64	127
42.770385487528344	43.01419501133787	52	127
42.770385487528344	43.30444444444444	40	127
42.89809523809524	43.01419501133787	64	127
43.01419501133787	43.30444444444444	64	127
43.188321995464854	43.40893424036281	76	127
43.30444444444444	43.51342403628118	64	127
43.42054421768707	43.61791383219955	76	127
43.51342403628118	43.710793650793654	64	127
43.62952380952381	43.78045351473923	76	127
43.710793650793654	43.8849433106576	64	127
43.79206349206349	43.96621315192744	76	127
43.8849433106576	44.0707029478458	64	127
43.9778231292517	44.198412698412696	76	127
44.0707029478458	44.31451247165533	52	127
44.0707029478458	44.31451247165533	62	127
44.0707029478458	44.31451247165533	64	127
44.0707029478458	44.31451247165533	59	127
44.21	44.419002267573696	76	127
44.31451247165533	44.53510204081633	64	127
44.43061224489796	44.639591836734695	76	127
44.53510204081633	44.744081632653064	64	127
44.53510204081633	44.744081632653064	57	127
44.53510204081633	44.744081632653064	61	127
44.65120181405896	44.84854875283447	76	127
44.755691609977326	44.953061224489794	64	127
44.860181405895695	45.069160997732425	76	127
44.953061224489794	45.138820861678006	59	127
44.953061224489794	45.138820861678006	52	127
44.953061224489794	45.138820861678006	64	127
45.069160997732425	45.243310657596375	76	127
45.15043083900227	45.37102040816327	64	127
45.25492063492064	45.49873015873016	76	127
45.38263038548753	45.603197278911566	64	127
45.38263038548753	45.603197278911566	57	127
45.38263038548753	45.603197278911566	49	127
45.49873015873016	45.70770975056689	76	127
45.61482993197279	45.835419501133785	64	127
45.719319727891154	45.986326530612246	76	127
45.84702947845805	46.09083900226757	49	127
45.84702947845805	46.09083900226757	57	127
45.84702947845805	46.09083900226757	64	127
45.84702947845805	46.09083900226757	45	127
45.84702947845805	46.09083900226757	52	127
45.986326530612246	46.2069387755102	76	127
46.102448979591834	46.323038548752834	64	127
46.218548752834465	46.323038548752834	76	127
46.34625850340136	46.59006802721088	76	127
46.34625850340136	46.59006802721088	47	127
46.34625850340136	46.59006802721088	44	127
46.34625850340136	46.59006802721088	40	127
46.34625850340136	46.59006802721088	52	127
46.48555555555556	46.69455782312925	88	127
46.601678004535145	46.79904761904762	76	127
46.706167800453514	46.91514739229025	88	127
46.81065759637188	47.042857142857144	64	127
46.81065759637188	47.042857142857144	59	127
46.81065759637188	47.042857142857144	76	127
46.81065759637188	47.042857142857144	52	127
46.81065759637188	47.042857142857144	56	127
46.92675736961451	47.14734693877551	88	127
47.042857142857144	47.25181405895692	76	127
47.158956916099775	47.367936507936506	88	127
47.263446712018144	47.48403628117914	69	127
47.263446712018144	47.48403628117914	64	127
47.263446712018144	47.48403628117914	76	127
47.263446712018144	47.48403628117914	57	127
47.263446712018144	47.48403628117914	61	127
47.37952380952381	47.57691609977324	88	127
47.48403628117914	47.65818594104309	76	127
47.588526077097505	47.76267573696145	88	127
47.66979591836735	47.87877551020408	49	127
47.66979591836735	47.87877551020408	57	127
47.66979591836735	47.87877551020408	76	127
47.66979591836735	47.87877551020408	45	127
47.66979591836735	47.87877551020408	52	127
47.78589569160998	47.99487528344671	88	127
47.89038548752834	48.11097505668934	76	127
47.99487528344671	48.21546485260771	88	127
48.1225850340136	48.31995464852608	47	127
48.1225850340136	48.31995464852608	76	127
48.1225850340136	48.31995464852608	40	127
48.1225850340136	48.31995464852608	44	127
48.1225850340136	48.31995464852608	52	127
48.22707482993197	48.44766439909297	88	127
48.33156462585034	48.5637641723356	76	127
48.44766439909297	48.6566439909297	88	127
48.575374149659865	48.74952380952381	57	127
48.575374149659865	48.74952380952381	52	127
48.575374149659865	48.74952380952381	76	127
48.575374149659865	48.74952380952381	45	127
48.575374149659865	48.74952380952381	49	127
48.6566439909297	48.85401360544218	88	127
48.74952380952381	48.97011337868481	76	127
48.86562358276644	49.0978231292517	88	127
48.98172335600907	49.20231292517007	52	127
48.98172335600907	49.20231292517007	76	127
48.98172335600907	49.20231292517007	40	127
48.98172335600907	49.20231292517007	44	127
48.98172335600907	49.20231292517007	47	127
49.10943310657596	49.33002267573696	88	127
49.21392290249433	49.46934240362812	76	127
49.341632653061225	49.608662131519274	88	127
49.48095238095238	49.724761904761905	45	127
49.48095238095238	49.724761904761905	49	127
49.48095238095238	49.724761904761905	52	127
49.48095238095238	49.724761904761905	57	127
49.48095238095238	49.724761904761905	76	127
49.62027210884354	49.86408163265306	88	127
49.73637188208617	50.00340136054422	76	127
49.87569160997732	50.18916099773243	88	127
50.18916099773243	50.99024943310658	88	127
50.18916099773243	50.99024943310658	76	127
50.18916099773243	50.99024943310658	40	127
50.18916099773243	50.99024943310658	44	127
50.18916099773243	50.99024943310658	47	127
50.18916099773243	50.99024943310658	52	127
59.999591836734695	60.82390022675737	69	127
59.999591836734695	60.266621315192744	57	127
60.13891156462585	60.39433106575964	60	127
60.266621315192744	60.545260770975055	64	127
60.4059410430839	60.69619047619047	57	127
60.55687074829932	60.82390022675737	60	127
60.707800453514736	60.99804988662132	64	127
60.83551020408163	61.160589569161	57	127
60.83551020408163	61.09092970521542	76	127
61.02126984126984	61.29990929705215	60	127
61.102539682539685	61.29990929705215	74	127
61.17219954648526	61.45083900226757	64	127
61.20702947845805	61.416009070294784	76	127
61.311519274376415	61.72947845804989	77	127
61.311519274376415	61.59015873015873	57	127
61.462448979591834	61.72947845804989	62	127
61.601768707483	61.868798185941046	65	127
61.74108843537415	62.031337868480726	57	127
61.74108843537415	61.93845804988662	76	127
61.88040816326531	62.17065759637188	60	127
61.95006802721088	62.17065759637188	71	127
62.04294784580499	62.30997732426304	64	127
62.077777777777776	62.27514739229025	72	127
62.182267573696144	62.44929705215419	50	127
62.182267573696144	62.60022675736961	74	127
62.3215873015873	62.60022675736961	59	127
62.44929705215419	62.75115646258504	62	127
62.60022675736961	62.89047619047619	52	127
62.60022675736961	62.82081632653061	72	127
62.75115646258504	63.018185941043086	57	127
62.82081632653061	63.018185941043086	68	127
62.89047619047619	63.15750566893424	60	127
62.92530612244898	63.122675736961455	69	127
63.018185941043086	63.401315192743766	71	127
63.018185941043086	63.27360544217687	52	127
63.15750566893424	63.401315192743766	56	127
63.27360544217687	63.401315192743766	59	127
63.41292517006803	64.6784126984127	45	127
63.41292517006803	63.67995464852608	57	127
63.552244897959184	63.80766439909297	60	127
63.69156462585034	63.95859410430839	64	127
63.81927437641723	64.08630385487528	57	127
63.97020408163265	64.21401360544218	60	127
64.09791383219955	64.3649433106576	64	127
64.22562358276645	64.51587301587301	57	127
64.37655328798186	64.6784126984127	60	127
64.52748299319728	64.81770975056689	64	127
64.69	65.09637188208617	38	127
64.69	64.94541950113378	57	127
64.81770975056689	65.09637188208617	62	127
64.95705215419501	65.23569160997732	65	127
65.10798185941043	65.37501133786849	57	127
65.10798185941043	65.5259410430839	45	127
65.24730158730159	65.5259410430839	60	127
65.38662131519274	65.70009070294785	64	127
65.53755102040816	65.82780045351474	56	127
65.53755102040816	65.96709750566893	40	127
65.71167800453514	65.96709750566893	59	127
65.83938775510204	66.10643990929705	64	127
65.97873015873016	66.36185941043084	33	127
65.97873015873016	66.21092970521542	57	127
66.11804988662132	66.36185941043084	60	127
66.21092970521542	66.51278911564626	64	127
66.36185941043084	66.84947845804989	40	127
66.36185941043084	66.67532879818594	55	127
66.51278911564626	66.84947845804989	59	127
66.67532879818594	66.84947845804989	64	127
66.84947845804989	67.65056689342404	35	127
66.84947845804989	67.1281179138322	54	127
66.97718820861678	67.25582766439909	59	127
67.1281179138322	67.38353741496599	63	127
67.26743764172336	67.51124716553288	54	127
67.38353741496599	67.65056689342404	59	127
67.52285714285715	67.78988662131519	63	127
67.6621768707483	67.92920634920635	55	127
67.6621768707483	68.48648526077098	40	127
67.80149659863946	68.0685260770975	59	127
67.94081632653061	68.20784580498866	64	127
68.08013605442177	68.34716553287981	55	127
68.21945578231292	68.48648526077098	59	127
68.35877551020408	68.62578231292517	64	127
68.49807256235827	69.41528344671202	47	127
68.49807256235827	69.41528344671202	35	127
68.49807256235827	68.78834467120181	59	127
68.6374149659864	68.93927437641723	63	127
68.81156462585034	69.0785941043084	66	127
68.9508843537415	69.21791383219954	59	127
69.09020408163265	69.41528344671202	63	127
69.27596371882086	69.55460317460317	66	127
69.42689342403628	70.22798185941043	52	127
69.42689342403628	70.22798185941043	40	127
69.42689342403628	69.69392290249434	59	127
69.56621315192744	69.82163265306123	64	127
69.70553287981859	69.9261224489796	67	127
69.83324263038548	70.04222222222222	59	127
69.93773242630385	70.22798185941043	64	127
70.04222222222222	70.22798185941043	67	127
70.22798185941043	70.62272108843537	47	127
70.22798185941043	70.47179138321995	63	127
70.22798185941043	70.62272108843537	35	127
70.35569160997733	70.62272108843537	66	127
70.47179138321995	70.76204081632653	69	127
70.62272108843537	70.90133786848072	72	127
70.76204081632653	71.02904761904762	71	127
70.90133786848072	71.18	69	127
71.04068027210884	71.33092970521542	67	127
71.04068027210884	71.45863945578232	35	127
71.04068027210884	71.45863945578232	47	127
71.19160997732426	71.45863945578232	71	127
71.34253968253968	71.59795918367347	76	127
71.47024943310657	71.74888888888889	79	127
71.60956916099774	71.91142857142857	78	127
71.78371882086168	71.91142857142857	76	127
71.92301587301587	72.20167800453515	75	127
71.92301587301587	72.32938775510205	35	127
71.92301587301587	72.32938775510205	47	127
72.06235827664399	72.32938775510205	78	127
72.21328798185941	72.4687074829932	81	127
72.3409977324263	72.60802721088436	84	127
72.48031746031747	72.74734693877551	83	127
72.61963718820861	72.89827664399093	81	127
72.77056689342403	73.06081632653061	79	127
72.77056689342403	73.2001133786848	47	127
72.77056689342403	73.2001133786848	35	127
72.9098866213152	73.2001133786848	83	127
73.07240362811791	73.33945578231292	88	127
73.21174603174603	73.46716553287982	91	127
73.3510657596372	73.59487528344671	90	127
73.47877551020409	73.59487528344671	88	127
73.59487528344671	73.94315192743764	35	127
73.59487528344671	73.80385487528345	87	127
73.59487528344671	73.94315192743764	47	127
73.7225850340136	73.94315192743764	90	127
73.80385487528345	74.09410430839003	83	127
73.94315192743764	74.23342403628118	84	127
73.94315192743764	74.23342403628118	72	127
74.09410430839003	74.39596371882087	83	127
74.09410430839003	74.39596371882087	71	127
74.23342403628118	74.54689342403628	81	127
74.23342403628118	74.54689342403628	69	127
74.39596371882087	74.67460317460318	67	127
74.39596371882087	74.67460317460318	79	127
74.54689342403628	74.81392290249433	81	127
74.54689342403628	74.81392290249433	69	127
74.68621315192743	74.95324263038549	76	127
74.68621315192743	74.95324263038549	64	127
74.8255328798186	75.10417233560091	79	127
74.8255328798186	75.10417233560091	67	127
74.96482993197279	75.25510204081633	66	127
74.96482993197279	75.25510204081633	78	127
75.12739229024943	75.25510204081633	76	127
75.12739229024943	75.25510204081633	64	127
75.2667120181406	75.51052154195011	63	127
75.2667120181406	75.51052154195011	75	127
75.39442176870749	75.638231292517	78	127
75.39442176870749	75.638231292517	66	127
75.52213151927438	75.77755102040817	71	127
75.52213151927438	75.77755102040817	59	127
75.64984126984127	75.91687074829932	60	127
75.64984126984127	75.91687074829932	72	127
75.78916099773242	76.05619047619048	71	127
75.78916099773242	76.05619047619048	59	127
75.92848072562359	76.18390022675737	69	127
75.92848072562359	76.18390022675737	57	127
76.06780045351474	76.3	67	127
76.06780045351474	76.3	55	127
76.19551020408163	76.42770975056689	69	127
76.19551020408163	76.42770975056689	57	127
76.31160997732427	76.56702947845805	52	127
76.31160997732427	76.56702947845805	64	127
76.43931972789116	76.7063492063492	55	127
76.43931972789116	76.7063492063492	67	127
76.57863945578231	76.84566893424036	54	127
76.57863945578231	76.84566893424036	66	127
76.71795918367347	76.84566893424036	64	127
76.71795918367347	76.84566893424036	52	127
76.85725623582766	77.13589569160997	47	127
76.85725623582766	77.13589569160997	59	127
76.98496598639456	77.2752380952381	60	127
76.98496598639456	77.2752380952381	48	127
77.1475283446712	77.41455782312926	47	127
77.1475283446712	77.41455782312926	59	127
77.28684807256236	77.54226757369615	58	127
77.28684807256236	77.54226757369615	46	127
77.41455782312926	77.6815873015873	59	127
77.41455782312926	77.6815873015873	47	127
77.54226757369615	77.83251700680272	46	127
77.54226757369615	77.83251700680272	58	127
77.6815873015873	77.96022675736961	47	127
77.6815873015873	77.96022675736961	59	127
77.83251700680272	78.07632653061225	60	127
77.83251700680272	78.07632653061225	48	127
77.96022675736961	78.2156462585034	59	127
77.96022675736961	78.2156462585034	47	127
78.07632653061225	78.37818594104309	46	127
78.07632653061225	78.37818594104309	58	127
78.2156462585034	78.49428571428571	59	127
78.2156462585034	78.49428571428571	47	127
78.38977324263038	78.49428571428571	46	127
78.38977324263038	78.49428571428571	58	127
78.50589569160998	78.92385487528345	47	127
78.50589569160998	78.92385487528345	59	127
80.83950113378685	81.26907029478458	71	127
81.28068027210884	81.69863945578231	71	127
81.71024943310658	82.16303854875284	71	127
82.17464852607709	83.19630385487528	71	127
83.20793650793651	84.06707482993197	68	127
84.07868480725624	85.36736961451247	64	127
84.07868480725624	84.94943310657597	83	127
84.94943310657597	85.80857142857143	80	127
85.36736961451247	85.80857142857143	59	127
85.8201814058957	86.2265306122449	56	127
85.8201814058957	86.2265306122449	76	127
86.23814058956916	86.6328798185941	56	127
86.23814058956916	86.6328798185941	71	127
86.6444671201814	87.0740589569161	68	127
86.6444671201814	87.0740589569161	52	127
87.08566893424036	87.56167800453515	71	127
87.08566893424036	87.56167800453515	56	127
87.57328798185941	88.96648526077098	69	127
87.57328798185941	88.96648526077098	66	127
87.57328798185941	88.0260544217687	59	127
88.03768707482993	88.50208616780046	47	127
88.51369614512471	88.96648526077098	59	127
89.48893424036281	90.30160997732426	69	127
90.31324263038549	91.18399092970522	66	127
91.19557823129252	91.63678004535147	63	127
91.64839002267574	92.101179138322	59	127
92.11278911564627	92.51913832199547	57	127
92.11278911564627	93.3550566893424	78	127
92.53074829931973	92.92548752834468	54	127
92.93709750566893	93.3550566893424	51	127
93.3666439909297	93.81945578231293	51	127
93.3666439909297	93.81945578231293	66	127
93.81945578231293	94.34190476190476	47	127
93.81945578231293	94.34190476190476	63	127
94.34190476190476	94.79469387755103	51	127
94.34190476190476	94.79469387755103	66	127
94.80630385487528	95.95569160997732	59	127
94.80630385487528	95.72349206349206	66	127
94.80630385487528	95.24748299319728	52	127
95.25909297052154	95.72349206349206	47	127
95.73510204081633	96.17628117913833	52	127
95.73510204081633	95.95569160997732	64	127
95.96730158730159	96.17628117913833	64	127
96.18789115646258	96.40848072562358	66	127
96.40848072562358	96.61746031746031	68	127
96.62907029478458	97.49981859410431	57	127
96.62907029478458	96.83804988662132	69	127
96.83804988662132	97.04702947845804	64	127
97.05863945578231	97.2792290249433	69	127
97.2792290249433	97.49981859410431	67	127
97.51142857142857	97.70879818594105	68	127
97.51142857142857	98.40539682539682	52	127
97.70879818594105	97.9409977324263	64	127
97.95260770975057	98.1615873015873	66	127
98.17319727891156	98.40539682539682	68	127
98.41700680272109	99.3225850340136	57	127
98.41700680272109	98.61437641723356	69	127
98.62598639455783	98.88140589569161	64	127
98.88140589569161	99.1019954648526	69	127
99.11360544217688	99.3225850340136	67	127
99.3225850340136	99.61283446712018	68	127
99.3225850340136	100.27460317460317	52	127
99.62444444444445	99.85664399092971	64	127
99.85664399092971	100.06562358276643	66	127
100.0772335600907	100.27460317460317	68	127
100.28621315192744	100.48358276643991	69	127
100.28621315192744	100.66934240362812	57	127
100.49519274376418	100.66934240362812	64	127
100.66934240362812	101.12213151927438	52	127
100.66934240362812	100.88993197278911	68	127
100.90154195011338	101.12213151927438	64	127
101.13374149659865	101.5517006802721	51	127
101.13374149659865	101.34272108843537	66	127
101.34272108843537	101.5517006802721	59	127
101.56331065759638	101.74907029478459	64	127
101.56331065759638	101.9928798185941	52	127
101.76068027210884	101.9928798185941	59	127
102.00448979591837	102.92167800453515	47	127
102.00448979591837	102.2134693877551	63	127
102.22507936507937	102.44566893424036	59	127
102.45727891156463	102.68947845804989	63	127
102.68947845804989	102.92167800453515	59	127
102.93328798185941	103.95496598639455	42	127
102.93328798185941	103.1887074829932	64	127
102.93328798185941	103.1887074829932	61	127
103.20031746031746	103.42090702947846	58	127
103.43251700680273	103.68793650793651	64	127
103.43251700680273	103.68793650793651	61	127
103.69954648526077	103.95496598639455	58	127
103.96657596371882	104.4425850340136	35	127
103.96657596371882	104.4425850340136	59	127
103.96657596371882	104.4425850340136	63	127
106.12603174603174	106.3930612244898	52	127
106.40467120181405	106.60204081632654	54	127
106.61365079365079	106.82263038548753	56	127
106.61365079365079	106.82263038548753	40	127
106.8342403628118	107.05482993197279	42	127
106.8342403628118	107.05482993197279	57	127
107.07804988662132	107.27541950113378	44	127
107.07804988662132	107.27541950113378	59	127
107.28702947845805	107.51922902494331	45	127
107.28702947845805	107.51922902494331	61	127
107.51922902494331	107.76303854875283	47	127
107.51922902494331	107.76303854875283	63	127
107.7746485260771	108.01845804988662	49	127
107.7746485260771	108.01845804988662	64	127
108.01845804988662	108.23904761904762	51	127
108.01845804988662	108.23904761904762	66	127
108.25065759637188	108.43641723356009	68	127
108.25065759637188	108.43641723356009	52	127
108.43641723356009	108.70344671201813	69	127
108.43641723356009	108.70344671201813	54	127
108.7150566893424	108.94725623582767	56	127
108.7150566893424	108.94725623582767	71	127
108.95886621315192	109.19106575963718	57	127
108.95886621315192	109.19106575963718	73	127
109.20267573696145	109.41165532879819	59	127
109.20267573696145	109.41165532879819	75	127
109.42326530612245	109.64385487528345	61	127
109.42326530612245	109.64385487528345	76	127
109.65546485260771	109.86444444444444	63	127
109.65546485260771	109.86444444444444	78	127
109.87605442176871	110.11986394557823	64	127
109.87605442176871	110.11986394557823	80	127
110.11986394557823	110.32884353741497	66	127
110.11986394557823	110.32884353741497	81	127
110.34045351473922	110.61909297052154	82	127
110.34045351473922	110.61909297052154	67	127
110.61909297052154	110.8512925170068	68	127
110.61909297052154	110.8512925170068	83	127
110.86290249433107	111.10671201814058	82	127
110.86290249433107	111.10671201814058	67	127
111.10671201814058	111.31569160997732	83	127
111.10671201814058	111.31569160997732	68	127
111.32730158730159	111.52467120181406	80	127
111.32730158730159	111.52467120181406	71	127
111.53628117913833	111.698820861678	76	127
111.53628117913833	111.80331065759637	68	127
111.6059410430839	111.74526077097505	75	127
111.698820861678	111.80331065759637	76	127
111.75687074829932	111.86136054421769	78	127
111.8265306122449	113.15006802721088	66	127
111.8265306122449	112.6740589569161	76	127
111.8265306122449	113.15006802721088	69	127
112.6740589569161	113.15006802721088	75	127
113.6492970521542	113.9627664399093	59	127
113.97437641723356	114.16013605442177	61	127
114.17174603174603	114.38072562358276	63	127
114.17174603174603	114.38072562358276	35	127
114.17174603174603	114.38072562358276	51	127
114.39233560090703	114.6245351473923	52	127
114.39233560090703	114.6245351473923	37	127
114.39233560090703	114.6245351473923	64	127
114.63614512471655	114.83351473922903	66	127
114.63614512471655	114.83351473922903	39	127
114.63614512471655	114.83351473922903	54	127
114.84512471655329	115.05410430839002	56	127
114.84512471655329	115.05410430839002	40	127
114.84512471655329	115.05410430839002	68	127
115.06571428571428	115.28630385487529	69	127
115.06571428571428	115.28630385487529	42	127
115.06571428571428	115.28630385487529	57	127
115.29791383219954	115.54172335600907	44	127
115.29791383219954	115.54172335600907	71	127
115.29791383219954	115.54172335600907	59	127
115.55333333333333	115.76231292517006	45	127
115.55333333333333	115.76231292517006	73	127
115.55333333333333	115.76231292517006	61	127
115.76231292517006	115.9712925170068	47	127
115.76231292517006	115.9712925170068	63	127
115.76231292517006	115.9712925170068	75	127
115.98290249433107	116.18027210884354	76	127
115.98290249433107	116.18027210884354	49	127
115.98290249433107	116.18027210884354	64	127
116.18027210884354	116.38925170068028	51	127
116.18027210884354	116.38925170068028	78	127
116.18027210884354	116.38925170068028	66	127
116.40086167800453	116.60984126984127	80	127
116.40086167800453	116.60984126984127	52	127
116.40086167800453	116.60984126984127	68	127
116.62145124716554	116.8536507936508	69	127
116.62145124716554	116.8536507936508	54	127
116.62145124716554	116.8536507936508	81	127
116.87687074829932	117.09746031746032	71	127
116.87687074829932	117.09746031746032	83	127
116.87687074829932	117.09746031746032	56	127
117.10907029478459	117.34126984126983	57	127
117.10907029478459	117.34126984126983	73	127
117.10907029478459	117.34126984126983	85	127
117.3528798185941	117.55024943310657	75	127
117.3528798185941	117.55024943310657	59	127
117.3528798185941	117.55024943310657	87	127
117.56185941043084	117.78244897959183	88	127
117.56185941043084	117.78244897959183	61	127
117.56185941043084	117.78244897959183	76	127
117.80566893424036	118.02625850340137	90	127
117.80566893424036	118.02625850340137	78	127
117.80566893424036	118.02625850340137	63	127
118.03786848072562	118.28167800453515	64	127
118.03786848072562	118.28167800453515	92	127
118.03786848072562	118.28167800453515	80	127
118.28167800453515	118.52548752834467	81	127
118.28167800453515	118.52548752834467	93	127
118.28167800453515	118.52548752834467	66	127
118.53709750566894	118.7692970521542	68	127
118.53709750566894	118.7692970521542	90	127
118.78090702947846	119.02471655328799	69	127
118.78090702947846	119.02471655328799	87	127
119.04793650793651	119.25691609977325	71	127
119.04793650793651	119.25691609977325	83	127
119.25691609977325	120.19732426303855	81	127
119.25691609977325	119.7097052154195	73	127
119.7097052154195	120.19732426303855	75	127
120.20893424036281	120.6849433106576	76	127
120.20893424036281	120.45274376417234	80	127
120.4643537414966	120.6849433106576	83	127
120.6849433106576	120.85909297052154	88	127
120.8707029478458	121.10290249433106	87	127
121.11451247165533	122.10136054421768	57	127
121.11451247165533	122.10136054421768	85	127
121.11451247165533	122.10136054421768	64	127
122.11297052154195	122.32195011337869	83	127
122.11297052154195	122.99532879818594	52	127
122.11297052154195	122.99532879818594	64	127
122.33356009070295	122.53092970521541	83	127
122.54253968253968	122.75151927437642	88	127
122.76312925170068	122.99532879818594	87	127
123.0069387755102	123.92412698412699	57	127
123.0069387755102	123.92412698412699	85	127
123.0069387755102	123.92412698412699	64	127
123.93573696145124	124.13310657596372	83	127
123.93573696145124	124.81809523809524	52	127
123.93573696145124	124.81809523809524	64	127
124.14471655328798	124.37691609977324	83	127
124.38852607709751	124.59750566893425	88	127
124.6091156462585	124.81809523809524	87	127
124.8297052154195	125.02707482993198	85	127
124.8297052154195	125.35215419501134	69	127
125.03868480725623	125.35215419501134	81	127
125.3637641723356	125.82816326530612	64	127
125.3637641723356	125.59596371882085	85	127
125.60757369614512	125.82816326530612	83	127
125.82816326530612	126.30417233560091	66	127
125.82816326530612	126.0835827664399	81	127
126.30417233560091	126.74535147392291	61	127
126.74535147392291	127.19814058956916	63	127
126.97755102040816	127.19814058956916	75	127
127.20975056689342	127.67414965986394	58	127
127.20975056689342	127.41873015873016	78	127
127.44195011337868	127.67414965986394	76	127
127.70897959183674	127.91795918367347	75	127
127.70897959183674	128.1269387755102	59	127
128.13854875283448	128.57972789115647	55	127
128.59133786848074	128.99768707482994	56	127
128.7887074829932	128.99768707482994	68	127
129.00927437641724	129.43886621315193	51	127
129.00927437641724	129.21825396825398	71	127
129.21825396825398	129.43886621315193	69	127
129.4504761904762	129.64784580498866	68	127
129.4504761904762	129.89165532879818	52	127
129.65945578231293	129.89165532879818	64	127
129.90326530612245	130.13544217687075	69	127
129.90326530612245	130.3560544217687	45	127
130.14707482993197	130.3560544217687	66	127
130.36766439909297	130.86689342403628	47	127
130.86689342403628	131.44739229024944	64	127
130.86689342403628	131.44739229024944	59	127
130.86689342403628	131.44739229024944	56	127
131.44739229024944	131.91179138321996	47	127
131.44739229024944	131.91179138321996	35	127
131.91179138321996	132.399410430839	63	127
131.91179138321996	132.399410430839	57	127
131.91179138321996	132.399410430839	59	127
132.41102040816327	132.8057596371882	40	127
132.41102040816327	132.9334693877551	64	127
132.41102040816327	132.9334693877551	56	127
132.41102040816327	132.9334693877551	59	127
132.62	132.9334693877551	44	127
132.81736961451247	133.07278911564626	47	127
132.9450566893424	133.86226757369616	64	127
132.9450566893424	133.27015873015873	52	127
133.10761904761904	133.40945578231293	56	127
133.281768707483	133.56038548752835	59	127
133.42108843537414	133.71131519274377	52	127
133.57201814058956	133.86226757369616	56	127
133.72294784580498	134.01319727891158	59	127
133.8738775510204	134.14090702947846	51	127
133.8738775510204	133.97836734693877	66	127
133.9087074829932	134.0364172335601	68	127
133.98997732426304	134.08285714285714	66	127
134.02480725623582	134.2570068027211	57	127
134.0364172335601	134.1292970521542	68	127
134.0944671201814	134.19895691609977	66	127
134.14090702947846	134.2570068027211	64	127
134.14090702947846	134.2570068027211	59	127
134.19895691609977	134.33827664399092	66	127
134.26861678004536	134.62852607709752	52	127
134.26861678004536	134.77945578231294	68	127
134.46598639455783	134.77945578231294	56	127
134.64013605442176	134.91877551020409	59	127
134.79106575963718	135.68503401360545	64	127
134.79106575963718	135.08131519274377	52	127
134.93038548752835	135.2322448979592	56	127
135.10453514739228	135.37156462585034	59	127
135.24385487528346	135.53410430839003	52	127
135.40639455782312	135.68503401360545	56	127
135.5457142857143	135.83596371882086	59	127
135.69664399092972	136.0449433106576	51	127
135.69664399092972	135.80113378684808	66	127
135.75469387755103	135.85916099773243	68	127
135.80113378684808	135.975283446712	66	127
135.83596371882086	136.17265306122448	57	127
135.90562358276645	136.02172335600906	68	127
135.975283446712	136.10299319727892	66	127
136.0449433106576	136.17265306122448	59	127
136.0449433106576	136.17265306122448	64	127
136.10299319727892	136.24231292517007	66	127
136.17265306122448	136.46290249433108	52	127
136.17265306122448	136.6138321995465	68	127
136.32356009070295	136.6138321995465	56	127
136.46290249433108	136.75315192743764	59	127
136.6138321995465	136.9273015873016	52	127
136.6138321995465	136.96213151927438	64	127
136.7647619047619	137.05501133786848	56	127
136.93891156462584	137.22916099773244	59	127
136.96213151927438	137.05501133786848	63	127
137.06662131519275	137.36848072562358	52	127
137.06662131519275	137.54263038548754	61	127
137.24074829931973	137.54263038548754	57	127
137.38009070294785	137.6819501133787	61	127
137.55424036281178	137.8677097505669	69	127
137.55424036281178	137.8328798185941	52	127
137.69356009070296	138.03024943310658	57	127
137.84448979591838	138.03024943310658	61	127
137.87931972789116	138.03024943310658	68	127
138.04185941043085	138.3321088435374	55	127
138.04185941043085	138.47142857142856	67	127
138.19278911564626	138.47142857142856	58	127
138.34371882086168	138.62233560090704	63	127
138.48303854875283	138.7500680272109	55	127
138.48303854875283	138.78489795918367	75	127
138.63396825396825	138.88938775510204	58	127
138.76167800453516	139.02868480725624	63	127
138.79650793650794	138.88938775510204	73	127
138.9009977324263	139.35378684807256	72	127
138.9009977324263	139.19124716553287	54	127
139.04031746031745	139.35378684807256	56	127
139.20285714285714	139.50471655328798	63	127
139.36539682539683	139.6556462585034	53	127
139.36539682539683	139.8065759637188	73	127
139.51632653061225	139.8065759637188	56	127
139.66725623582767	139.8065759637188	61	127
139.81818594104308	140.32902494331066	71	127
139.81818594104308	140.17809523809524	52	127
140.01555555555555	140.32902494331066	54	127
140.17809523809524	140.47995464852607	61	127
140.32902494331066	140.61927437641722	52	127
140.32902494331066	140.74698412698413	70	127
140.47995464852607	140.74698412698413	54	127
140.61927437641722	140.874693877551	61	127
140.74698412698413	140.9443537414966	73	127
140.74698412698413	141.02560090702949	52	127
140.88630385487528	141.1765306122449	56	127
140.95596371882087	141.1765306122449	71	127
141.0372335600907	141.32746031746032	59	127
141.18816326530612	141.39714285714285	69	127
141.18816326530612	141.46680272108844	52	127
141.33909297052153	141.62934240362813	56	127
141.40875283446712	141.62934240362813	68	127
141.4784126984127	141.62934240362813	61	127
141.64095238095237	142.12857142857143	71	127
141.64095238095237	141.97764172335602	54	127
141.8499319727891	142.12857142857143	57	127
141.98925170068028	142.26789115646258	61	127
142.1401814058957	142.4071882086168	54	127
142.1401814058957	142.9528798185941	69	127
142.27950113378685	142.5465306122449	57	127
142.418820861678	142.6742403628118	61	127
142.5581179138322	142.813537414966	51	127
142.68585034013606	142.9528798185941	54	127
142.8251700680272	143.10380952380953	59	127
142.9644671201814	143.28956916099773	51	127
142.9644671201814	143.45210884353742	66	127
143.1154195011338	143.45210884353742	54	127
143.31278911564627	143.45210884353742	59	127
143.4637188208617	143.62625850340137	64	127
143.4637188208617	143.62625850340137	52	127
143.63786848072561	143.84684807256235	76	127
143.63786848072561	143.84684807256235	64	127
143.74235827664398	143.97455782312926	63	127
143.74235827664398	143.97455782312926	75	127
143.84684807256235	144.10226757369614	76	127
143.84684807256235	144.10226757369614	64	127
143.97455782312926	144.21836734693878	71	127
143.97455782312926	144.21836734693878	59	127
144.10226757369614	144.38090702947846	56	127
144.10226757369614	144.38090702947846	68	127
144.21836734693878	144.50861678004534	71	127
144.21836734693878	144.50861678004534	59	127
144.38090702947846	144.64793650793652	68	127
144.38090702947846	144.64793650793652	56	127
144.50861678004534	144.7756462585034	71	127
144.50861678004534	144.7756462585034	59	127
144.64793650793652	144.88013605442177	64	127
144.64793650793652	144.88013605442177	76	127
144.7756462585034	144.97301587301587	59	127
144.7756462585034	144.97301587301587	71	127
144.88013605442177	145.06589569160997	57	127
144.88013605442177	145.06589569160997	69	127
144.97301587301587	145.1819954648526	59	127
144.97301587301587	145.1819954648526	71	127
145.07750566893424	145.28648526077097	75	127
145.07750566893424	145.28648526077097	63	127
145.19360544217687	145.28648526077097	59	127
145.19360544217687	145.28648526077097	71	127
145.29809523809524	145.54190476190476	68	127
145.29809523809524	145.54190476190476	56	127
145.42580498866212	145.64639455782313	71	127
145.42580498866212	145.64639455782313	59	127
145.55351473922903	145.73927437641723	64	127
145.55351473922903	145.73927437641723	76	127
145.6580045351474	145.85537414965987	63	127
145.6580045351474	145.85537414965987	75	127
145.7508843537415	145.9714739229025	64	127
145.7508843537415	145.9714739229025	76	127
145.86698412698414	146.12240362811792	71	127
145.86698412698414	146.12240362811792	59	127
145.9830612244898	146.2268934240363	56	127
145.9830612244898	146.2268934240363	68	127
146.13399092970522	146.33138321995466	71	127
146.13399092970522	146.33138321995466	59	127
146.2384807256236	146.43587301587303	68	127
146.2384807256236	146.43587301587303	56	127
146.34297052154196	146.5635827664399	59	127
146.34297052154196	146.5635827664399	71	127
146.44748299319727	146.66807256235828	64	127
146.44748299319727	146.66807256235828	76	127
146.57519274376418	146.7841723356009	71	127
146.57519274376418	146.7841723356009	59	127
146.67968253968255	146.92349206349206	57	127
146.67968253968255	146.92349206349206	69	127
146.80739229024942	147.02798185941043	71	127
146.80739229024942	147.02798185941043	59	127
146.93510204081633	147.1324716553288	63	127
146.93510204081633	147.1324716553288	75	127
147.0395918367347	147.1324716553288	59	127
147.0395918367347	147.1324716553288	71	127
147.14408163265307	147.37628117913832	68	127
147.14408163265307	147.37628117913832	56	127
147.26015873015874	147.48077097505669	59	127
147.26015873015874	147.48077097505669	71	127
147.3878911564626	147.57365079365078	76	127
147.3878911564626	147.57365079365078	64	127
147.49238095238096	147.71297052154196	71	127
147.49238095238096	147.71297052154196	59	127
147.58526077097505	147.84068027210884	68	127
147.58526077097505	147.84068027210884	56	127
147.7245804988662	147.9451700680272	59	127
147.7245804988662	147.9451700680272	71	127
147.8522902494331	148.04965986394558	76	127
147.8522902494331	148.04965986394558	64	127
147.95678004535148	148.15414965986395	59	127
147.95678004535148	148.15414965986395	71	127
148.04965986394558	148.27024943310659	69	127
148.04965986394558	148.27024943310659	57	127
148.15414965986395	148.38632653061225	73	127
148.15414965986395	148.38632653061225	61	127
148.27024943310659	148.5140589569161	76	127
148.27024943310659	148.5140589569161	64	127
148.38632653061225	148.5140589569161	73	127
148.38632653061225	148.5140589569161	61	127
148.5140589569161	148.74625850340135	61	127
148.5140589569161	148.74625850340135	73	127
148.61854875283447	148.862358276644	64	127
148.61854875283447	148.862358276644	76	127
148.74625850340135	148.96684807256236	69	127
148.74625850340135	148.96684807256236	81	127
148.862358276644	148.96684807256236	64	127
148.862358276644	148.96684807256236	76	127
148.96684807256236	149.1525850340136	73	127
148.96684807256236	149.1525850340136	61	127
149.07133786848073	149.25707482993198	63	127
149.07133786848073	149.25707482993198	75	127
149.16421768707482	149.3615873015873	70	127
149.16421768707482	149.3615873015873	82	127
149.2687074829932	149.4892970521542	75	127
149.2687074829932	149.4892970521542	63	127
149.37319727891156	149.5821768707483	58	127
149.37319727891156	149.5821768707483	70	127
149.50090702947847	149.66342403628119	63	127
149.50090702947847	149.66342403628119	75	127
149.59378684807257	149.77954648526077	79	127
149.59378684807257	149.77954648526077	67	127
149.6750566893424	149.88403628117914	63	127
149.6750566893424	149.88403628117914	75	127
149.79115646258504	149.9885260770975	56	127
149.79115646258504	149.9885260770975	68	127
149.8956462585034	150.10462585034014	75	127
149.8956462585034	150.10462585034014	63	127
150.00013605442177	150.23233560090702	80	127
150.00013605442177	150.23233560090702	68	127
150.1162358276644	150.34843537414966	63	127
150.1162358276644	150.34843537414966	75	127
150.2439455782313	150.44131519274376	68	127
150.2439455782313	150.44131519274376	56	127
150.36004535147393	150.54580498866213	73	127
150.36004535147393	150.54580498866213	61	127
150.45292517006803	150.63868480725623	77	127
150.45292517006803	150.63868480725623	65	127
150.5574149659864	150.63868480725623	73	127
150.5574149659864	150.63868480725623	61	127
150.6502947845805	150.8708843537415	56	127
150.6502947845805	150.8708843537415	68	127
150.7780045351474	150.98698412698414	73	127
150.7780045351474	150.98698412698414	61	127
150.88249433106577	151.09145124716554	77	127
150.88249433106577	151.09145124716554	65	127
150.99859410430838	151.20757369614512	73	127
150.99859410430838	151.20757369614512	61	127
151.10308390022675	151.32367346938776	66	127
151.10308390022675	151.32367346938776	54	127
151.2191836734694	151.42816326530613	73	127
151.2191836734694	151.42816326530613	61	127
151.33528344671203	151.5326530612245	66	127
151.33528344671203	151.5326530612245	78	127
151.4397732426304	151.66036281179137	61	127
151.4397732426304	151.66036281179137	73	127
151.54426303854876	151.76485260770974	66	127
151.54426303854876	151.76485260770974	54	127
151.67197278911564	151.8693424036281	59	127
151.67197278911564	151.8693424036281	71	127
151.776462585034	151.97383219954648	63	127
151.776462585034	151.97383219954648	75	127
151.88095238095238	152.07832199546485	59	127
151.88095238095238	152.07832199546485	71	127
151.97383219954648	152.20603174603175	56	127
151.97383219954648	152.20603174603175	68	127
152.07832199546485	152.31052154195012	71	127
152.07832199546485	152.31052154195012	59	127
152.20603174603175	152.4150113378685	76	127
152.20603174603175	152.4150113378685	64	127
152.31052154195012	152.4150113378685	59	127
152.31052154195012	152.4150113378685	71	127
152.4150113378685	152.62399092970523	57	127
152.4150113378685	152.62399092970523	69	127
152.5078911564626	152.7517006802721	72	127
152.5078911564626	152.7517006802721	60	127
152.62399092970523	152.85619047619048	76	127
152.62399092970523	152.85619047619048	64	127
152.7517006802721	152.94907029478458	60	127
152.7517006802721	152.85619047619048	72	127
152.85619047619048	153.07678004535148	72	127
152.85619047619048	153.07678004535148	57	127
152.96068027210885	153.18126984126985	76	127
152.96068027210885	153.18126984126985	60	127
153.08836734693878	153.29736961451246	57	127
153.08836734693878	153.29736961451246	81	127
153.19285714285715	153.40185941043083	76	127
153.19285714285715	153.40185941043083	60	127
153.30897959183673	153.51795918367347	72	127
153.30897959183673	153.51795918367347	54	127
153.4134693877551	153.62244897959184	78	127
153.4134693877551	153.62244897959184	57	127
153.52956916099774	153.7269387755102	81	127
153.52956916099774	153.7269387755102	54	127
153.6340589569161	153.86625850340135	57	127
153.6340589569161	153.7269387755102	78	127
153.73854875283448	153.97074829931972	78	127
153.73854875283448	153.97074829931972	52	127
153.87786848072562	154.0752380952381	54	127
153.87786848072562	154.0752380952381	81	127
153.982358276644	154.15650793650795	84	127
153.982358276644	154.15650793650795	57	127
154.08684807256236	154.15650793650795	54	127
154.08684807256236	154.15650793650795	81	127
154.1681179138322	154.37709750566893	51	127
154.1681179138322	154.37709750566893	84	127
154.27260770975056	154.50480725623584	54	127
154.27260770975056	154.50480725623584	81	127
154.3887074829932	154.63251700680271	78	127
154.3887074829932	154.63251700680271	57	127
154.53963718820862	154.74861678004535	54	127
154.53963718820862	154.74861678004535	81	127
154.64412698412698	154.85310657596372	51	127
154.64412698412698	154.85310657596372	84	127
154.76022675736962	154.96920634920636	81	127
154.76022675736962	154.96920634920636	54	127
154.864716553288	155.08530612244897	57	127
154.864716553288	155.08530612244897	78	127
154.99242630385487	155.2014058956916	81	127
154.99242630385487	155.2014058956916	54	127
155.09691609977324	155.30589569160998	51	127
155.09691609977324	155.30589569160998	84	127
155.21301587301588	155.41038548752834	81	127
155.21301587301588	155.41038548752834	54	127
155.31750566893425	155.5148752834467	57	127
155.31750566893425	155.5148752834467	78	127
155.4219954648526	155.61936507936508	81	127
155.4219954648526	155.61936507936508	54	127
155.52648526077098	155.72385487528345	84	127
155.52648526077098	155.72385487528345	51	127
155.63097505668935	155.82834467120182	81	127
155.63097505668935	155.82834467120182	54	127
155.73546485260772	155.9328344671202	57	127
155.73546485260772	155.9328344671202	78	127
155.8399546485261	156.04893424036283	81	127
155.8399546485261	156.04893424036283	54	127
155.9328344671202	156.15340136054422	84	127
155.9328344671202	156.15340136054422	51	127
156.04893424036283	156.28113378684807	54	127
156.04893424036283	156.28113378684807	81	127
156.15340136054422	156.38562358276644	78	127
156.15340136054422	156.38562358276644	57	127
156.28113378684807	156.4901133786848	81	127
156.28113378684807	156.4901133786848	54	127
156.38562358276644	156.60621315192745	83	127
156.38562358276644	156.60621315192745	51	127
156.4901133786848	156.71070294784582	54	127
156.4901133786848	156.71070294784582	81	127
156.60621315192745	156.82680272108843	78	127
156.60621315192745	156.82680272108843	57	127
156.71070294784582	156.94290249433107	54	127
156.71070294784582	156.94290249433107	81	127
156.82680272108843	157.04739229024943	83	127
156.82680272108843	157.04739229024943	51	127
156.95451247165533	157.20993197278912	81	127
156.95451247165533	157.20993197278912	54	127
157.0822222222222	157.3144217687075	57	127
157.0822222222222	157.3144217687075	78	127
157.2215419501134	157.43049886621316	81	127
157.2215419501134	157.43049886621316	54	127
157.32603174603176	157.54662131519274	83	127
157.32603174603176	157.54662131519274	51	127
157.44213151927437	157.70916099773243	54	127
157.44213151927437	157.70916099773243	81	127
157.558231292517	157.8136507936508	57	127
157.558231292517	157.8136507936508	78	127
157.7207709750567	157.8136507936508	54	127
157.7207709750567	157.8136507936508	81	127
157.82526077097506	158.1271201814059	51	127
157.82526077097506	158.1271201814059	83	127
157.98780045351475	158.2896598639456	81	127
157.98780045351475	158.2896598639456	54	127
158.13873015873017	158.4521768707483	80	127
158.13873015873017	158.4521768707483	57	127
158.30124716553289	158.59151927437642	51	127
158.30124716553289	158.59151927437642	78	127
158.46380952380952	158.73083900226757	54	127
158.46380952380952	158.73083900226757	76	127
158.6031292517007	158.85854875283448	75	127
158.6031292517007	158.85854875283448	57	127
158.74244897959184	159.0094784580499	73	127
158.74244897959184	159.0094784580499	51	127
158.87015873015872	159.14879818594105	71	127
158.87015873015872	159.14879818594105	54	127
159.02108843537414	159.29972789115646	57	127
159.02108843537414	159.29972789115646	69	127
159.16040816326532	159.3809977324263	68	127
159.16040816326532	159.45065759637188	51	127
159.27648526077098	159.48548752834466	66	127
159.31133786848073	159.6015873015873	54	127
159.39260770975056	159.6015873015873	64	127
159.46226757369615	159.764126984127	57	127
159.49709750566893	159.71768707482994	63	127
159.61319727891157	159.90344671201814	51	127
159.61319727891157	160.05437641723356	61	127
159.77573696145126	160.05437641723356	54	127
159.9150566893424	160.20530612244897	57	127
160.05437641723356	161.52884353741496	59	127
160.05437641723356	160.36784580498866	51	127
160.20530612244897	160.54199546485262	54	127
160.36784580498866	160.72775510204082	57	127
160.54199546485262	160.8902947845805	51	127
160.72775510204082	161.02961451247165	54	127
160.8902947845805	161.18054421768707	57	127
161.02961451247165	161.36628117913833	51	127
161.18054421768707	161.52884353741496	54	127
161.37791383219954	161.52884353741496	57	127
161.54045351473923	161.83068027210885	88	127
161.54045351473923	161.83068027210885	50	127
161.69138321995464	162.07451247165534	52	127
161.69138321995464	162.07451247165534	86	127
161.83068027210885	162.20222222222222	85	127
161.83068027210885	162.20222222222222	56	127
162.07451247165534	162.34151927437642	83	127
162.07451247165534	162.34151927437642	50	127
162.2138321995465	162.46925170068027	52	127
162.2138321995465	162.46925170068027	81	127
162.34151927437642	162.64340136054423	56	127
162.34151927437642	162.64340136054423	80	127
162.48086167800454	162.79433106575965	50	127
162.48086167800454	162.79433106575965	78	127
162.65501133786847	162.94526077097507	52	127
162.65501133786847	162.94526077097507	76	127
162.8059410430839	163.10777777777778	74	127
162.8059410430839	163.10777777777778	56	127
162.95684807256237	163.27034013605441	50	127
162.95684807256237	163.17746031746032	73	127
163.06136054421768	163.31678004535146	71	127
163.119410430839	163.45609977324264	52	127
163.20068027210885	163.45609977324264	69	127
163.28195011337868	163.45609977324264	56	127
163.32839002267573	163.57219954648525	68	127
163.46768707482994	163.88566893424036	66	127
163.46768707482994	163.7463492063492	47	127
163.46768707482994	163.7463492063492	44	127
163.61861678004536	163.88566893424036	50	127
163.75795918367348	164.02496598639456	52	127
163.89727891156463	165.34852607709752	64	127
163.89727891156463	164.17591836734695	47	127
163.89727891156463	164.17591836734695	44	127
164.03659863945578	164.30362811791383	50	127
164.1875283446712	164.41972789115647	52	127
164.3152380952381	164.5706575963719	44	127
164.3152380952381	164.5706575963719	47	127
164.43133786848074	164.7215873015873	50	127
164.58226757369616	164.9073469387755	52	127
164.73319727891158	165.13954648526078	44	127
164.73319727891158	165.13954648526078	47	127
164.9421768707483	165.34852607709752	50	127
165.17437641723356	165.34852607709752	52	127
165.36013605442176	165.84775510204082	76	127
165.36013605442176	165.84775510204082	85	127
165.36013605442176	165.68521541950113	33	127
165.36013605442176	165.84775510204082	73	127
165.36013605442176	165.84775510204082	81	127
165.54589569160999	165.84775510204082	35	127
165.7200453514739	166.03351473922902	37	127
165.8825850340136	166.1031746031746	38	127
165.99868480725624	166.20766439909298	40	127
166.11478458049888	166.31215419501135	42	127
166.21927437641725	166.428231292517	44	127
166.31215419501135	166.5443537414966	45	127
166.428231292517	166.66045351473923	47	127
166.5443537414966	166.7649433106576	49	127
166.66045351473923	166.86943310657597	50	127
166.7649433106576	166.97392290249434	52	127
166.97392290249434	167.19448979591837	33	127
167.19448979591837	167.82145124716553	34	127
167.19448979591837	167.43832199546486	58	127
167.46154195011337	167.62408163265306	59	127
167.6588888888889	167.82145124716553	61	127
167.8330612244898	168.018820861678	63	127
167.9259410430839	168.10009070294785	64	127
168.03043083900226	168.20458049886622	66	127
168.11170068027212	168.3322902494331	68	127
168.21616780045352	168.43678004535147	70	127
168.34390022675737	168.56448979591838	71	127
168.44839002267574	168.69219954648526	73	127
168.57607709750567	168.8082993197279	75	127
168.7154195011338	168.91278911564626	76	127
168.92439909297053	169.11015873015873	58	127
169.121768707483	169.35396825396825	47	127
169.23786848072564	169.45845804988662	59	127
169.36557823129252	169.59775510204082	61	127
169.36557823129252	169.59775510204082	57	127
169.47006802721089	169.77192743764172	63	127
169.47006802721089	169.77192743764172	56	127
169.60938775510203	169.89963718820863	64	127
169.60938775510203	169.89963718820863	54	127
169.783537414966	170.03895691609978	52	127
169.783537414966	170.03895691609978	66	127
169.92285714285714	170.17827664399093	51	127
169.92285714285714	170.17827664399093	68	127
170.06215419501135	170.30598639455783	69	127
170.06215419501135	170.30598639455783	49	127
170.1898866213152	170.34081632653061	71	127
170.1898866213152	170.34081632653061	47	127
170.36401360544218	170.51496598639457	45	127
170.36401360544218	170.51496598639457	73	127
170.54979591836735	170.67750566893423	75	127
170.54979591836735	170.67750566893423	44	127
170.67750566893423	170.9097052154195	76	127
170.67750566893423	170.9097052154195	42	127
170.80521541950114	171.02580498866214	78	127
170.80521541950114	171.02580498866214	40	127
170.9097052154195	171.14190476190475	39	127
170.9097052154195	171.14190476190475	80	127
171.02580498866214	171.14190476190475	81	127
171.02580498866214	171.14190476190475	37	127
171.14190476190475	171.36249433106576	83	127
171.14190476190475	171.36249433106576	35	127
171.36249433106576	171.65274376417233	76	127
171.36249433106576	171.65274376417233	52	127
171.36249433106576	171.65274376417233	56	127
171.36249433106576	171.65274376417233	47	127
171.65274376417233	171.8849433106576	80	127
171.65274376417233	171.8849433106576	56	127
171.65274376417233	171.8849433106576	47	127
171.65274376417233	171.8849433106576	52	127
171.90816326530611	172.11714285714285	83	127
171.90816326530611	172.11714285714285	47	127
171.90816326530611	172.11714285714285	52	127
171.90816326530611	172.11714285714285	56	127
172.12875283446712	172.3261224489796	47	127
172.12875283446712	172.3261224489796	52	127
172.12875283446712	172.3261224489796	56	127
172.12875283446712	172.3261224489796	88	127
172.33773242630386	172.5467120181406	92	127
172.33773242630386	172.5467120181406	52	127
172.33773242630386	172.5467120181406	56	127
172.33773242630386	172.5467120181406	47	127
172.55832199546487	172.80213151927438	95	127
172.55832199546487	172.80213151927438	52	127
172.55832199546487	172.80213151927438	56	127
172.55832199546487	172.80213151927438	47	127
172.81374149659865	173.08077097505668	64	127
172.81374149659865	173.08077097505668	52	127
172.81374149659865	173.08077097505668	56	127
172.81374149659865	173.08077097505668	47	127
173.09238095238095	173.56839002267574	57	127
173.09238095238095	173.56839002267574	51	127
173.09238095238095	173.23167800453515	66	127
173.09238095238095	173.56839002267574	47	127
173.1736507936508	173.32458049886623	68	127
173.24331065759637	173.3942403628118	66	127
173.32458049886623	173.47551020408164	68	127
173.40585034013606	173.56839002267574	66	127
173.48709750566894	173.6728798185941	68	127
173.58	173.77736961451248	66	127
173.68448979591838	173.87024943310658	68	127
173.78895691609978	173.97473922902495	66	127
173.89344671201815	174.06761904761905	68	127
173.98634920634922	174.13727891156464	66	127
174.07922902494332	174.21854875283447	68	127
174.13727891156464	174.31142857142856	66	127
174.23015873015873	174.40428571428572	68	127
174.32303854875283	174.53201814058957	66	127
174.41591836734693	174.62489795918367	68	127
174.55521541950114	174.67133786848072	66	127
174.63650793650794	174.7409977324263	68	127
174.682947845805	174.82226757369614	66	127
174.7409977324263	174.903537414966	68	127
174.8338775510204	174.98480725623583	66	127
174.9151247165533	175.15895691609978	65	127
175.03124716553287	175.15895691609978	66	127
175.17054421768708	175.34471655328798	73	127
175.26344671201815	175.4027664399093	75	127
175.34471655328798	175.48403628117913	73	127
175.41437641723357	175.565306122449	75	127
175.4956462585034	175.6233560090703	73	127
175.57689342403629	175.72784580498868	75	127
175.63496598639455	175.79750566893424	73	127
175.73945578231292	175.86716553287982	75	127
175.8091156462585	175.91360544217687	73	127
175.8787755102041	175.9716553287982	75	127
175.91360544217687	176.05292517006802	73	127
175.98326530612246	176.11097505668934	75	127
176.05292517006802	176.16902494331066	73	127
176.1225850340136	176.23868480725625	75	127
176.16902494331066	176.31995464852608	73	127
176.2502947845805	176.38961451247167	75	127
176.31995464852608	176.48249433106577	73	127
176.4012244897959	176.55213151927438	75	127
176.49410430839004	176.62181405895691	73	127
176.55213151927438	176.7030612244898	75	127
176.63342403628118	176.76113378684806	73	127
176.7030612244898	176.9584807256236	72	127
176.80755102040817	176.9584807256236	73	127
176.9701133786848	177.81764172335602	66	127
176.9701133786848	177.81764172335602	69	127
176.9701133786848	178.85090702947846	47	127
176.9701133786848	177.376462585034	75	127
177.38807256235827	177.81764172335602	73	127
177.82922902494332	178.85090702947846	66	127
177.82922902494332	178.3400680272109	71	127
177.82922902494332	178.85090702947846	63	127
178.3400680272109	178.85090702947846	69	127
178.85090702947846	180.72013605442177	68	127
178.85090702947846	179.74489795918367	40	127
178.85090702947846	180.72013605442177	64	127
179.75650793650794	180.72013605442177	47	127
180.73174603174604	182.7286621315193	47	127
180.73174603174604	181.73020408163265	66	127
180.8362358276644	181.73020408163265	69	127
180.88267573696146	181.28902494331066	75	127
181.30063492063493	181.73020408163265	73	127
181.74181405895692	182.7286621315193	63	127
181.82308390022675	182.78668934240363	66	127
181.9043537414966	182.24104308390022	71	127
182.2526530612245	182.7286621315193	69	127
182.74027210884353	184.6675283446712	64	127
182.74027210884353	183.64585034013606	40	127
182.74027210884353	184.6675283446712	68	127
183.65743764172336	184.6675283446712	47	127
184.6675283446712	186.52512471655328	59	127
184.6675283446712	185.14353741496598	47	127
184.6675283446712	186.52512471655328	54	127
184.6675283446712	186.52512471655328	57	127
184.6675283446712	186.52512471655328	63	127
185.15514739229025	185.6079365079365	45	127
185.61954648526077	186.0839455782313	44	127
186.09555555555556	186.52512471655328	42	127
186.53673469387755	187.04757369614512	64	127
186.53673469387755	187.04757369614512	40	127
186.53673469387755	187.04757369614512	56	127
186.53673469387755	187.04757369614512	59	127
187.0591836734694	187.4655328798186	38	127
187.0591836734694	187.4655328798186	62	127
187.47714285714287	187.98798185941044	37	127
187.47714285714287	187.98798185941044	61	127
187.99956916099774	188.58009070294784	35	127
187.99956916099774	188.58009070294784	59	127
188.5917006802721	189.02124716553288	57	127
188.5917006802721	189.02124716553288	33	127
199.76049886621314	200.23650793650793	68	127
199.76049886621314	199.98108843537415	59	127
199.99269841269842	200.23650793650793	62	127
200.2481179138322	200.79378684807256	69	127
200.2481179138322	200.503537414966	61	127
200.51514739229026	200.79378684807256	64	127
200.79378684807256	201.07242630385488	59	127
200.79378684807256	201.3162358276644	68	127
201.07242630385488	201.3162358276644	62	127
201.32784580498867	201.52521541950114	61	127
201.32784580498867	201.73419501133787	69	127
201.5368253968254	201.73419501133787	64	127
201.74580498866214	202.01283446712017	57	127
201.74580498866214	202.1985941043084	73	127
202.01283446712017	202.1985941043084	64	127
202.21020408163264	203.53374149659865	76	127
202.21020408163264	202.39596371882087	52	127
202.39596371882087	202.59333333333333	56	127
202.61655328798187	202.87197278911566	59	127
202.8835827664399	203.1041723356009	64	127
203.11578231292518	203.3247619047619	68	127
203.33637188208615	203.53374149659865	71	127
203.53374149659865	203.75433106575963	76	127
203.53374149659865	203.99814058956918	80	127
203.7659410430839	203.99814058956918	74	127
204.00975056689342	204.23034013605442	73	127
204.00975056689342	204.47414965986394	81	127
204.2419501133787	204.47414965986394	76	127
204.4857596371882	204.9269387755102	80	127
204.4857596371882	204.70634920634922	71	127
204.71795918367346	204.9269387755102	74	127
204.93854875283446	205.41455782312926	81	127
204.93854875283446	205.18235827664398	73	127
205.19396825396825	205.41455782312926	76	127
205.42616780045353	205.65836734693877	69	127
205.42616780045353	205.9021768707483	85	127
205.66997732426304	205.9021768707483	73	127
205.91378684807256	207.2837641723356	88	127
205.91378684807256	206.06471655328798	68	127
206.07632653061225	206.285306122449	71	127
206.32013605442177	206.5291156462585	64	127
206.54072562358277	206.81936507936507	71	127
206.83097505668934	207.06317460317462	68	127
207.07478458049886	207.2837641723356	71	127
207.29537414965986	207.5043537414966	64	127
207.29537414965986	207.60884353741497	86	127
207.29537414965986	207.5043537414966	69	127
207.51596371882087	207.77138321995466	73	127
207.62045351473924	207.77138321995466	85	127
207.7829931972789	207.9803628117914	64	127
207.7829931972789	207.86426303854876	83	127
207.7829931972789	207.9803628117914	68	127
207.8178231292517	207.92231292517008	85	127
207.87587301587303	207.9803628117914	83	127
207.93392290249434	208.02680272108844	85	127
207.99197278911564	208.24739229024942	71	127
207.99197278911564	208.08485260770976	83	127
208.03841269841269	208.1661224489796	85	127
208.096462585034	208.24739229024942	83	127
208.17773242630386	208.29383219954647	85	127
208.2590022675737	208.4795918367347	69	127
208.2590022675737	208.60730158730158	86	127
208.2590022675737	208.4795918367347	64	127
208.49120181405897	208.72340136054422	73	127
208.61891156462585	208.72340136054422	85	127
208.74662131519275	208.86272108843536	83	127
208.74662131519275	209.00204081632654	64	127
208.74662131519275	209.00204081632654	68	127
208.80467120181405	208.93238095238095	85	127
208.87433106575963	209.00204081632654	83	127
208.94399092970522	209.0717006802721	85	127
209.00204081632654	209.11814058956915	83	127
209.00204081632654	209.24585034013606	71	127
209.08331065759637	209.17619047619047	85	127
209.11814058956915	209.24585034013606	83	127
209.18780045351474	209.31551020408162	85	127
209.25746031746033	209.58253968253968	64	127
209.25746031746033	209.7334693877551	86	127
209.25746031746033	209.58253968253968	69	127
209.59414965986394	209.89600907029478	73	127
209.74507936507936	209.89600907029478	85	127
209.90761904761905	212.28766439909296	71	127
209.90761904761905	210.0469387755102	83	127
209.90761904761905	212.28766439909296	68	127
209.90761904761905	212.28766439909296	64	127
209.98888888888888	210.12820861678006	85	127
210.07015873015874	210.18625850340135	83	127
210.1398185941043	210.25591836734694	85	127
210.19786848072562	210.33718820861677	83	127
210.2675283446712	210.40684807256235	85	127
210.34879818594104	210.47650793650794	83	127
210.41845804988662	210.55777777777777	85	127
210.4881179138322	210.66226757369614	83	127
210.56938775510204	210.75514739229024	85	127
210.69709750566892	210.82480725623583	83	127
210.7667573696145	210.89446712018142	85	127
210.8364172335601	210.9525170068027	83	127
210.90607709750566	211.0221768707483	85	127
210.96412698412698	211.09183673469389	83	127
211.03378684807257	211.1498866213152	85	127
211.10344671201815	211.21954648526076	83	127
211.16149659863945	211.28920634920635	85	127
211.23115646258503	211.35886621315194	83	127
211.30081632653062	211.4285260770975	85	127
211.37047619047618	211.4981859410431	83	127
211.44013605442177	211.56784580498865	85	127
211.50979591836736	211.62589569160997	83	127
211.57945578231292	211.69555555555556	85	127
211.63750566893424	211.7768253968254	83	127
211.71877551020407	211.84648526077098	85	127
211.78843537414966	211.9625850340136	83	127
211.85809523809525	212.04385487528344	85	127
211.98580498866212	212.11351473922903	83	127
212.0554648526077	212.19478458049886	85	127
212.13673469387754	212.28766439909296	83	127
212.20639455782313	212.42698412698414	85	127
212.29927437641723	212.4966439909297	82	127
212.43859410430838	212.55469387755102	83	127
212.50825396825397	212.6243537414966	85	127
212.5663038548753	212.69401360544217	87	127
212.63596371882088	212.76367346938775	88	127
212.70562358276644	212.9029931972789	87	127
212.77528344671202	213.20485260770974	85	127
212.91460317460317	213.2861224489796	83	127
213.22807256235828	213.40222222222224	81	127
213.29773242630387	213.4718820861678	80	127
213.41383219954648	213.54154195011338	78	127
213.48349206349206	213.6228117913832	76	127
213.55315192743765	213.77374149659863	75	127
213.63442176870748	213.8550113378685	73	127
213.7853514739229	213.92467120181405	71	127
213.86662131519273	214.02916099773242	69	127
213.93628117913832	214.098820861678	68	127
214.0407709750567	214.1917006802721	66	127
214.11043083900228	214.2845804988662	64	127
214.20331065759638	214.3542403628118	63	127
214.29619047619047	214.4471201814059	61	127
214.36585034013606	214.52839002267575	59	127
214.47034013605443	214.60965986394558	57	127
214.54	214.6909297052154	56	127
214.6328798185941	214.760589569161	54	127
214.70253968253968	214.8302494331066	52	127
214.77219954648527	214.89990929705215	51	127
214.84185941043083	214.99278911564625	49	127
214.91151927437642	215.06244897959184	47	127
215.00439909297052	215.13210884353742	45	127
215.0740589569161	215.21337868480725	44	127
215.14371882086166	215.2598185941043	42	127
215.22498866213152	216.88521541950112	40	127
217.75596371882085	218.78925170068027	57	127
217.75596371882085	218.78925170068027	33	127
217.75596371882085	218.78925170068027	69	127
217.75596371882085	218.78925170068027	45	127
218.80086167800454	219.68321995464854	64	127
218.80086167800454	219.68321995464854	76	127
218.80086167800454	219.68321995464854	52	127
218.80086167800454	219.68321995464854	40	127
219.68321995464854	221.12285714285716	54	127
219.68321995464854	221.12285714285716	42	127
219.68321995464854	221.12285714285716	78	127
219.68321995464854	221.12285714285716	66	127
221.1344671201814	221.6104761904762	61	127
221.1344671201814	221.6104761904762	37	127
221.1344671201814	221.6104761904762	73	127
221.1344671201814	221.6104761904762	49	127
221.62208616780046	222.07487528344672	52	127
221.62208616780046	222.07487528344672	64	127
221.62208616780046	222.07487528344672	40	127
221.62208616780046	222.07487528344672	76	127
222.08648526077098	222.50444444444443	62	127
222.08648526077098	222.50444444444443	38	127
222.08648526077098	222.50444444444443	74	127
222.08648526077098	222.50444444444443	50	127
222.5160544217687	223.0501133786848	61	127
222.5160544217687	223.0501133786848	37	127
222.5160544217687	223.0501133786848	73	127
222.5160544217687	223.0501133786848	49	127
223.0501133786848	223.2707029478458	62	127
223.0501133786848	223.2707029478458	38	127
223.0501133786848	223.2707029478458	74	127
223.0501133786848	223.2707029478458	50	127
223.3055328798186	223.54934240362812	35	127
223.3055328798186	223.54934240362812	59	127
223.3055328798186	223.54934240362812	47	127
223.3055328798186	223.54934240362812	71	127
223.57256235827666	224.47814058956916	45	127
223.57256235827666	224.47814058956916	69	127
223.57256235827666	224.47814058956916	57	127
223.57256235827666	224.47814058956916	33	127
224.48975056689343	224.93092970521542	44	127
224.48975056689343	224.93092970521542	32	127
224.48975056689343	224.93092970521542	68	127
224.48975056689343	224.93092970521542	56	127
224.9425396825397	225.4069387755102	64	127
224.9425396825397	225.4069387755102	40	127
224.9425396825397	225.4069387755102	52	127
225.41854875283445	225.79006802721088	69	127
225.41854875283445	225.79006802721088	45	127
225.41854875283445	225.79006802721088	57	127
225.79006802721088	226.27768707482994	66	127
225.79006802721088	226.27768707482994	42	127
225.79006802721088	226.27768707482994	54	127
226.28929705215418	226.6956462585034	61	127
226.28929705215418	226.6956462585034	37	127
226.28929705215418	226.6956462585034	49	127
226.70725623582766	227.17165532879818	63	127
226.70725623582766	227.17165532879818	39	127
226.70725623582766	227.17165532879818	51	127
227.18326530612245	227.4502947845805	52	127
227.18326530612245	227.69410430839002	40	127
227.3225850340136	227.58961451247166	64	127
227.46190476190475	227.69410430839002	52	127
227.60122448979592	227.81020408163266	64	127
227.7057142857143	227.93791383219954	52	127
227.8218140589569	228.0191836734694	64	127
227.9495238095238	228.10045351473923	52	127
228.0191836734694	228.17011337868482	64	127
228.10045351473923	228.2746031746032	52	127
228.18172335600906	228.41392290249433	64	127
228.2978231292517	228.50680272108843	52	127
228.41392290249433	228.62290249433107	64	127
228.5184126984127	228.72739229024944	50	127
228.5184126984127	228.72739229024944	52	127
228.62290249433107	228.8318820861678	64	127
228.7390022675737	228.94798185941042	52	127
228.84349206349205	229.0524716553288	64	127
228.9595918367347	229.2034013605442	52	127
228.9595918367347	229.2034013605442	49	127
229.06408163265306	229.31950113378684	64	127
229.21501133786848	229.4007709750567	52	127
229.31950113378684	229.50526077097507	64	127
229.41238095238094	229.63297052154195	52	127
229.41238095238094	229.63297052154195	50	127
229.5168707482993	229.73746031746032	64	127
229.64458049886622	229.85356009070296	52	127
229.7490702947846	229.96965986394557	64	127
229.8651700680272	230.10897959183674	52	127
229.8651700680272	230.10897959183674	49	127
229.98126984126984	230.22507936507935	64	127
230.12058956916098	230.341179138322	52	127
230.23668934240362	230.4921088435374	64	127
230.35278911564626	230.63142857142856	52	127
230.35278911564626	230.63142857142856	45	127
230.50371882086168	230.75913832199547	64	127
230.64303854875283	230.88684807256234	52	127
230.77074829931973	231.0377777777778	64	127
230.8984580498866	231.20031746031745	52	127
230.8984580498866	231.4092970521542	40	127
231.08421768707484	231.20031746031745	64	127
231.21192743764172	231.4092970521542	64	127
231.3164172335601	231.52539682539683	76	127
231.42090702947846	231.61827664399092	64	127
231.5370068027211	231.7227664399093	76	127
231.6298866213152	231.82725623582766	64	127
231.73437641723356	231.93174603174603	76	127
231.83886621315193	232.04784580498867	64	127
231.9433560090703	232.1291156462585	76	127
232.05945578231294	232.23360544217687	64	127
232.14072562358277	232.29165532879819	76	127
232.24521541950114	232.39614512471655	64	127
232.24521541950114	232.39614512471655	52	127
232.24521541950114	232.39614512471655	59	127
232.24521541950114	232.39614512471655	62	127
232.30326530612246	232.5122448979592	76	127
232.40775510204082	232.6283446712018	64	127
232.52385487528343	232.76766439909298	76	127
232.63995464852607	232.89537414965986	64	127
232.63995464852607	232.89537414965986	57	127
232.63995464852607	232.89537414965986	61	127
232.77927437641722	232.99986394557823	76	127
232.90698412698413	233.11596371882086	64	127
233.0114739229025	233.20884353741496	76	127
233.12757369614513	233.30172335600906	64	127
233.12757369614513	233.30172335600906	52	127
233.12757369614513	233.30172335600906	59	127
233.22045351473923	233.38299319727892	76	127
233.31333333333333	233.49909297052153	64	127
233.39460317460316	233.6384126984127	76	127
233.5107029478458	233.7661224489796	64	127
233.5107029478458	233.7661224489796	49	127
233.5107029478458	233.7661224489796	57	127
233.65002267573695	233.87061224489796	76	127
233.77773242630386	233.9867120181406	64	127
233.88222222222223	234.09120181405896	76	127
233.99832199546486	234.21891156462584	64	127
233.99832199546486	234.21891156462584	45	127
233.99832199546486	234.21891156462584	49	127
233.99832199546486	234.21891156462584	52	127
233.99832199546486	234.21891156462584	57	127
234.10281179138323	234.3234013605442	76	127
234.2305215419501	234.42789115646258	64	127
234.33501133786848	234.42789115646258	76	127
234.43950113378685	234.66009070294785	40	127
234.43950113378685	234.66009070294785	44	127
234.43950113378685	234.66009070294785	47	127
234.43950113378685	234.66009070294785	52	127
234.43950113378685	234.66009070294785	76	127
234.54399092970522	234.78780045351473	88	127
234.6717006802721	234.90390022675737	76	127
234.799410430839	234.99678004535147	88	127
234.91551020408164	235.1128798185941	64	127
234.91551020408164	235.1128798185941	76	127
234.91551020408164	235.1128798185941	52	127
234.91551020408164	235.1128798185941	56	127
234.91551020408164	235.1128798185941	59	127
235.00839002267574	235.2057596371882	88	127
235.12448979591838	235.31024943310658	76	127
235.21736961451248	235.40312925170068	88	127
235.32185941043085	235.51922902494331	69	127
235.32185941043085	235.51922902494331	76	127
235.32185941043085	235.51922902494331	57	127
235.32185941043085	235.51922902494331	61	127
235.32185941043085	235.51922902494331	64	127
235.41473922902495	235.6469387755102	88	127
235.53083900226758	235.76303854875283	76	127
235.65854875283446	235.8675283446712	88	127
235.7746485260771	235.9952380952381	45	127
235.7746485260771	235.9952380952381	49	127
235.7746485260771	235.9952380952381	52	127
235.7746485260771	235.9952380952381	57	127
235.7746485260771	235.9952380952381	76	127
235.87913832199547	236.09972789115648	88	127
236.00684807256235	236.2158276643991	76	127
236.11133786848072	236.30870748299319	88	127
236.22743764172336	236.4015873015873	40	127
236.22743764172336	236.4015873015873	47	127
236.22743764172336	236.4015873015873	52	127
236.22743764172336	236.4015873015873	44	127
236.22743764172336	236.4015873015873	76	127
236.30870748299319	236.4944671201814	88	127
236.41319727891155	236.61056689342405	76	127
236.50607709750568	236.72666666666666	88	127
236.6221768707483	236.8427664399093	76	127
236.6221768707483	236.8427664399093	45	127
236.6221768707483	236.8427664399093	49	127
236.6221768707483	236.8427664399093	52	127
236.6221768707483	236.8427664399093	57	127
236.73827664399093	236.97047619047618	88	127
236.85437641723357	237.08657596371881	76	127
236.98208616780045	237.22589569160996	88	127
237.09818594104308	237.35360544217687	40	127
237.09818594104308	237.35360544217687	47	127
237.09818594104308	237.35360544217687	52	127
237.09818594104308	237.35360544217687	44	127
237.09818594104308	237.35360544217687	76	127
237.23750566893423	237.44648526077097	88	127
237.35360544217687	237.57419501133788	76	127
237.45809523809524	237.7251247165533	88	127
237.58580498866212	237.86444444444444	76	127
237.58580498866212	237.86444444444444	45	127
237.58580498866212	237.86444444444444	49	127
237.58580498866212	237.86444444444444	52	127
237.58580498866212	237.86444444444444	57	127
237.73673469387754	238.02698412698413	88	127
237.8760544217687	238.17791383219955	76	127
238.0385941043084	238.34045351473924	88	127
238.35206349206348	239.037052154195	47	127
238.35206349206348	239.037052154195	52	127
238.35206349206348	239.037052154195	76	127
238.35206349206348	239.037052154195	88	127
238.35206349206348	239.037052154195	40	127
238.35206349206348	239.037052154195	44	127
247.8374149659864	248.12766439909296	57	127
247.8374149659864	248.7197732426304	69	127
247.97673469387755	248.25537414965987	60	127
248.12766439909296	248.4063038548753	64	127
248.25537414965987	248.58045351473922	57	127
248.4063038548753	248.7197732426304	60	127
248.5920634920635	248.85909297052154	64	127
248.73138321995464	248.95197278911564	76	127
248.73138321995464	249.02163265306123	57	127
248.88231292517005	249.17256235827665	60	127
248.9635827664399	249.17256235827665	74	127
249.0332426303855	249.3118820861678	64	127
249.06807256235828	249.27705215419502	76	127
249.18417233560092	249.42798185941044	57	127
249.18417233560092	249.54408163265308	77	127
249.32349206349207	249.54408163265308	62	127
249.4395918367347	249.68340136054422	65	127
249.55569160997732	249.8459410430839	57	127
249.55569160997732	249.75306122448978	76	127
249.6950113378685	249.98526077097506	60	127
249.76467120181405	249.98526077097506	71	127
249.85755102040815	250.1245804988662	64	127
249.9039909297052	250.08975056689343	72	127
249.99687074829933	250.27551020408163	50	127
249.99687074829933	250.42643990929705	74	127
250.13619047619048	250.42643990929705	59	127
250.29873015873017	250.57736961451246	62	127
250.43804988662131	250.64702947845805	72	127
250.43804988662131	250.71668934240364	52	127
250.58897959183673	250.89083900226757	57	127
250.65863945578232	250.89083900226757	68	127
250.72829931972788	251.08820861678004	60	127
250.77473922902493	251.05337868480726	69	127
250.90244897959184	251.20430839002267	52	127
250.90244897959184	251.34362811791382	71	127
251.0998185941043	251.34362811791382	56	127
251.21591836734694	251.34362811791382	59	127
251.3552380952381	252.60911564625852	45	127
251.3552380952381	251.62226757369615	57	127
251.482947845805	251.7615873015873	60	127
251.62226757369615	251.8892970521542	64	127
251.7615873015873	252.02861678004535	57	127
251.8892970521542	252.17954648526077	60	127
252.02861678004535	252.3304761904762	64	127
252.17954648526077	252.4581859410431	57	127
252.3304761904762	252.60911564625852	60	127
252.46979591836734	252.79487528344671	64	127
252.62072562358276	252.93419501133786	57	127
252.62072562358276	253.073514739229	38	127
252.80648526077098	253.073514739229	62	127
252.94580498866213	253.2128344671202	65	127
253.08512471655328	253.3637641723356	57	127
253.08512471655328	253.51469387755103	45	127
253.22444444444446	253.51469387755103	60	127
253.37537414965988	253.7120634920635	64	127
253.5263038548753	253.99070294784582	40	127
253.5263038548753	253.85138321995464	56	127
253.72367346938776	253.99070294784582	59	127
253.8629931972789	254.15324263038548	64	127
254.00231292517006	254.44349206349207	33	127
254.00231292517006	254.3041723356009	57	127
254.16485260770975	254.44349206349207	60	127
254.3041723356009	254.57120181405895	64	127
254.4551020408163	254.82662131519274	40	127
254.4551020408163	254.69891156462586	55	127
254.58281179138322	254.82662131519274	59	127
254.7105215419501	254.82662131519274	64	127
254.838231292517	255.1168707482993	54	127
254.838231292517	255.74380952380952	35	127
254.98916099773243	255.3142403628118	59	127
255.12848072562358	255.46517006802722	63	127
255.32585034013604	255.61609977324264	54	127
255.46517006802722	255.74380952380952	59	127
255.61609977324264	255.87151927437642	63	127
255.74380952380952	256.6377777777778	40	127
255.74380952380952	256.0340589569161	55	127
255.87151927437642	256.1733560090703	59	127
256.0340589569161	256.3475283446712	64	127
256.1733560090703	256.4984580498866	55	127
256.3475283446712	256.6377777777778	59	127
256.5100680272109	256.77709750566896	64	127
256.64938775510205	257.4968934240363	35	127
256.64938775510205	256.9164172335601	59	127
256.64938775510205	257.4968934240363	47	127
256.78868480725623	257.09054421768707	63	127
256.92802721088435	257.1718367346939	66	127
257.1021768707483	257.3227664399093	59	127
257.18344671201817	257.4968934240363	63	127
257.33437641723356	257.64784580498866	66	127
257.531746031746	258.33283446712016	40	127
257.531746031746	257.7639455782313	59	127
257.531746031746	258.33283446712016	52	127
257.64784580498866	257.92648526077096	64	127
257.77555555555557	258.0425850340136	67	127
257.93809523809523	258.2051247165533	59	127
258.05419501133787	258.33283446712016	64	127
258.2167120181406	258.33283446712016	67	127
258.34444444444443	258.64630385487527	63	127
258.34444444444443	258.808843537415	47	127
258.34444444444443	258.808843537415	35	127
258.4837641723356	258.808843537415	66	127
258.65791383219954	258.9481632653061	69	127
258.82045351473926	259.1223129251701	72	127
258.9597732426304	259.2616326530612	71	127
259.13390022675736	259.4357823129252	69	127
259.2732426303855	259.7144217687075	35	127
259.2732426303855	259.5751020408163	67	127
259.2732426303855	259.7144217687075	47	127
259.4357823129252	259.7144217687075	71	127
259.5751020408163	259.83052154195013	76	127
259.7144217687075	259.96984126984125	79	127
259.83052154195013	260.13238095238097	78	127
259.96984126984125	260.13238095238097	76	127
260.13238095238097	260.55034013605444	35	127
260.13238095238097	260.399410430839	75	127
260.13238095238097	260.55034013605444	47	127
260.2717006802721	260.55034013605444	78	127
260.42263038548754	260.68965986394556	81	127
260.5619274376417	260.82897959183674	84	127
260.70126984126983	260.9682993197279	83	127
260.840589569161	261.14244897959185	81	127
260.9798866213152	261.45591836734695	35	127
260.9798866213152	261.3165986394558	79	127
260.9798866213152	261.45591836734695	47	127
261.1540589569161	261.45591836734695	83	127
261.32820861678005	261.59521541950113	88	127
261.4675283446712	261.722947845805	91	127
261.60684807256234	261.82743764172335	90	127
261.73455782312925	261.82743764172335	88	127
261.8390476190476	262.08285714285716	87	127
261.8390476190476	262.23378684807255	47	127
261.8390476190476	262.23378684807255	35	127
261.9319274376417	262.23378684807255	90	127
262.09444444444443	262.37310657596373	83	127
262.2453968253968	262.5240362811791	84	127
262.2453968253968	262.5240362811791	72	127
262.384716553288	262.6633560090703	71	127
262.384716553288	262.6633560090703	83	127
262.5356462585034	262.81426303854875	69	127
262.5356462585034	262.81426303854875	81	127
262.67496598639457	262.96521541950113	79	127
262.67496598639457	262.96521541950113	67	127
262.82589569160996	263.1045351473923	69	127
262.82589569160996	263.1045351473923	81	127
262.9768253968254	263.24385487528343	64	127
262.9768253968254	263.24385487528343	76	127
263.1161451247166	263.3831746031746	79	127
263.1161451247166	263.3831746031746	67	127
263.24385487528343	263.49927437641725	66	127
263.24385487528343	263.49927437641725	78	127
263.3831746031746	263.49927437641725	76	127
263.3831746031746	263.49927437641725	64	127
263.49927437641725	263.7895238095238	63	127
263.49927437641725	263.7895238095238	75	127
263.6385714285714	263.928843537415	78	127
263.6385714285714	263.928843537415	66	127
263.7895238095238	264.05655328798184	71	127
263.7895238095238	264.05655328798184	59	127
263.928843537415	264.18426303854875	72	127
263.928843537415	264.18426303854875	60	127
264.0681632653061	264.3235827664399	59	127
264.0681632653061	264.3235827664399	71	127
264.195873015873	264.46290249433105	57	127
264.195873015873	264.46290249433105	69	127
264.3351927437642	264.6022222222222	55	127
264.3351927437642	264.6022222222222	67	127
264.4745124716553	264.72993197278913	69	127
264.4745124716553	264.72993197278913	57	127
264.6022222222222	264.85761904761904	52	127
264.6022222222222	264.85761904761904	64	127
264.7415419501134	264.99696145124716	55	127
264.7415419501134	264.99696145124716	67	127
264.86925170068025	265.1595011337869	66	127
264.86925170068025	265.1595011337869	54	127
265.00857142857143	265.1595011337869	52	127
265.00857142857143	265.1595011337869	64	127
265.17108843537414	265.4381405895692	59	127
265.17108843537414	265.4381405895692	47	127
265.31043083900227	265.58907029478456	60	127
265.31043083900227	265.58907029478456	48	127
265.44975056689344	265.7516099773243	47	127
265.44975056689344	265.7516099773243	59	127
265.58907029478456	265.8792970521542	58	127
265.58907029478456	265.8792970521542	46	127
265.76321995464855	266.0186394557823	47	127
265.76321995464855	266.0186394557823	59	127
265.8909297052154	266.1231292517007	58	127
265.8909297052154	266.1231292517007	46	127
266.0302494331066	266.2392290249433	59	127
266.0302494331066	266.2392290249433	47	127
266.13473922902494	266.3785487528345	48	127
266.13473922902494	266.3785487528345	60	127
266.2508390022676	266.54108843537415	59	127
266.2508390022676	266.54108843537415	47	127
266.39013605442176	266.6804081632653	58	127
266.39013605442176	266.6804081632653	46	127
266.5526984126984	266.81972789115645	47	127
266.5526984126984	266.81972789115645	59	127
266.6920181405896	266.81972789115645	58	127
266.6920181405896	266.81972789115645	46	127
266.8313378684807	267.30734693877554	59	127
266.8313378684807	267.30734693877554	47	127
269.1068934240363	269.55965986394557	71	127
269.5712925170068	270.1053514739229	71	127
270.1053514739229	270.66263038548755	71	127
270.66263038548755	271.62625850340135	71	127
271.6378684807256	272.450566893424	68	127
272.4621768707483	273.7508616780045	64	127
272.4621768707483	273.3213151927438	83	127
273.33292517006805	274.15723356009073	80	127
273.76249433106574	274.15723356009073	59	127
274.168820861678	274.5751700680272	76	127
274.168820861678	274.5751700680272	56	127
274.5868027210884	274.9931519274376	56	127
274.5868027210884	274.9931519274376	71	127
275.0047619047619	275.492358276644	52	127
275.0047619047619	275.492358276644	68	127
275.492358276644	275.9451700680272	56	127
275.492358276644	275.9451700680272	71	127
275.9451700680272	277.37319727891156	69	127
275.9451700680272	276.421179138322	59	127
275.9451700680272	277.37319727891156	66	127
276.43278911564624	276.8971882086168	47	127
276.90879818594107	277.37319727891156	59	127
277.88403628117914	278.78961451247164	69	127
278.8012244897959	279.68356009070294	66	127
279.68356009070294	280.51950113378683	81	127
279.68356009070294	280.10154195011336	63	127
280.10154195011336	280.51950113378683	59	127
280.5311111111111	281.80820861678006	78	127
280.5311111111111	280.99551020408165	57	127
281.0071201814059	281.40185941043086	54	127
281.41346938775513	281.80820861678006	51	127
281.81981859410433	282.2377551020408	51	127
281.81981859410433	282.2377551020408	66	127
282.249387755102	282.6673469387755	63	127
282.249387755102	282.6673469387755	47	127
282.67895691609976	283.18979591836734	66	127
282.67895691609976	283.18979591836734	51	127
283.2014058956916	284.1069841269841	66	127
283.2014058956916	283.67739229024943	52	127
283.2014058956916	284.38560090702947	59	127
283.68902494331064	284.1069841269841	47	127
284.1185941043084	284.38560090702947	64	127
284.1185941043084	284.6062131519274	52	127
284.3972335600907	284.6062131519274	64	127
284.6062131519274	284.8268027210884	66	127
284.8384126984127	285.04739229024943	68	127
285.04739229024943	285.2447619047619	69	127
285.04739229024943	285.9761904761905	57	127
285.30278911564625	285.511768707483	64	127
285.5234013605442	285.76721088435374	69	127
285.778820861678	285.9761904761905	67	127
285.98780045351475	286.90498866213153	52	127
285.98780045351475	286.2315873015873	68	127
286.2432199546485	286.440589569161	64	127
286.4638095238095	286.6960090702948	66	127
286.70761904761906	286.90498866213153	68	127
286.9165986394558	287.8221768707483	57	127
286.9165986394558	287.1487755102041	69	127
287.1487755102041	287.39260770975056	64	127
287.40421768707483	287.6015873015873	69	127
287.6015873015873	287.8221768707483	67	127
287.8337868480726	288.71614512471655	52	127
287.8337868480726	288.08920634920634	68	127
288.08920634920634	288.2981859410431	64	127
288.30979591836734	288.49555555555554	66	127
288.5071655328798	288.71614512471655	68	127
288.7277551020408	288.9251247165533	69	127
288.7277551020408	289.12249433106575	57	127
288.93673469387755	289.12249433106575	64	127
289.13410430839	289.3198639455782	68	127
289.13410430839	289.56367346938777	52	127
289.3314739229025	289.56367346938777	64	127
289.56367346938777	290.02807256235826	51	127
289.56367346938777	289.7842630385488	66	127
289.79587301587304	290.02807256235826	59	127
290.02807256235826	290.22544217687073	64	127
290.02807256235826	290.44603174603174	52	127
290.237052154195	290.44603174603174	59	127
290.44603174603174	291.38643990929705	47	127
290.44603174603174	290.678231292517	63	127
290.6898412698413	290.88721088435375	59	127
290.898820861678	291.1426303854875	63	127
291.1542403628118	291.38643990929705	59	127
291.3980498866213	292.33845804988664	42	127
291.3980498866213	291.60702947845806	61	127
291.3980498866213	291.60702947845806	64	127
291.61863945578233	291.8508163265306	58	127
291.8624489795918	292.10625850340136	61	127
291.8624489795918	292.10625850340136	64	127
292.11786848072563	292.33845804988664	58	127
292.3500680272109	292.8492970521542	59	127
292.3500680272109	292.8492970521542	63	127
292.3500680272109	292.8492970521542	35	127
294.56757369614513	294.93909297052153	52	127
294.9507029478458	295.15968253968254	54	127
295.1712925170068	295.3918820861678	56	127
295.1712925170068	295.3918820861678	40	127
295.4034920634921	295.5892517006803	57	127
295.4034920634921	295.5892517006803	42	127
295.60086167800455	295.8330385487528	59	127
295.60086167800455	295.8330385487528	44	127
295.8446485260771	296.1233106575964	61	127
295.8446485260771	296.1233106575964	45	127
296.13492063492066	296.3671201814059	63	127
296.13492063492066	296.3671201814059	47	127
296.37873015873015	296.5760997732426	64	127
296.37873015873015	296.5760997732426	49	127
296.5877097505669	296.78507936507935	66	127
296.5877097505669	296.78507936507935	51	127
296.78507936507935	296.9824489795918	52	127
296.78507936507935	296.9824489795918	68	127
296.9940589569161	297.23786848072564	54	127
296.9940589569161	297.23786848072564	69	127
297.23786848072564	297.4468480725624	71	127
297.23786848072564	297.4468480725624	56	127
297.45845804988664	297.64421768707484	73	127
297.45845804988664	297.64421768707484	57	127
297.6558276643991	297.8764172335601	59	127
297.6558276643991	297.8764172335601	75	127
297.8880045351474	298.0621768707483	76	127
297.8880045351474	298.0621768707483	61	127
298.0737868480726	298.2595464852608	78	127
298.0737868480726	298.2595464852608	63	127
298.27115646258505	298.50333333333333	80	127
298.27115646258505	298.50333333333333	64	127
298.51496598639454	298.7471655328798	81	127
298.51496598639454	298.7471655328798	66	127
298.7587755102041	298.9793650793651	67	127
298.7587755102041	298.9793650793651	82	127
298.99097505668936	299.21154195011337	83	127
298.99097505668936	299.21154195011337	68	127
299.21154195011337	299.45537414965986	67	127
299.21154195011337	299.45537414965986	82	127
299.4785941043084	299.68757369614514	83	127
299.4785941043084	299.68757369614514	68	127
299.68757369614514	299.9429931972789	80	127
299.68757369614514	299.9429931972789	71	127
299.95460317460316	300.1055328798186	76	127
299.95460317460316	300.256462585034	68	127
300.04748299319726	300.18680272108844	75	127
300.1171428571429	300.256462585034	76	127
300.1984126984127	300.3029024943311	78	127
300.256462585034	301.76573696145124	69	127
300.256462585034	301.3245804988662	76	127
300.256462585034	301.76573696145124	66	127
301.3361904761905	301.76573696145124	75	127
302.1604988662132	302.4275283446712	59	127
302.4275283446712	302.6481179138322	61	127
302.67133786848075	302.8803174603175	63	127
302.67133786848075	302.8803174603175	51	127
302.67133786848075	302.8803174603175	35	127
302.8803174603175	303.1008843537415	52	127
302.8803174603175	303.1008843537415	64	127
302.8803174603175	303.1008843537415	37	127
303.1125170068027	303.3098866213152	66	127
303.1125170068027	303.3098866213152	54	127
303.1125170068027	303.3098866213152	39	127
303.3331065759637	303.5536961451247	68	127
303.3331065759637	303.5536961451247	56	127
303.3331065759637	303.5536961451247	40	127
303.565306122449	303.78589569161	69	127
303.565306122449	303.78589569161	57	127
303.565306122449	303.78589569161	42	127
303.8671655328798	304.07614512471656	44	127
303.8671655328798	304.07614512471656	71	127
303.8671655328798	304.07614512471656	59	127
304.08775510204083	304.26190476190476	73	127
304.08775510204083	304.26190476190476	61	127
304.08775510204083	304.26190476190476	45	127
304.27351473922903	304.4592743764172	63	127
304.27351473922903	304.4592743764172	75	127
304.27351473922903	304.4592743764172	47	127
304.4708843537415	304.6566439909297	49	127
304.4708843537415	304.6566439909297	76	127
304.4708843537415	304.6566439909297	64	127
304.66825396825396	304.8772335600907	66	127
304.66825396825396	304.8772335600907	78	127
304.66825396825396	304.8772335600907	51	127
304.8772335600907	305.109433106576	52	127
304.8772335600907	305.109433106576	80	127
304.8772335600907	305.109433106576	68	127
305.12104308390025	305.330022675737	69	127
305.12104308390025	305.330022675737	81	127
305.12104308390025	305.330022675737	54	127
305.330022675737	305.550589569161	71	127
305.330022675737	305.550589569161	83	127
305.330022675737	305.550589569161	56	127
305.5622222222222	305.7595691609977	57	127
305.5622222222222	305.7595691609977	85	127
305.5622222222222	305.7595691609977	73	127
305.77120181405894	306.0034013605442	87	127
305.77120181405894	306.0034013605442	75	127
305.77120181405894	306.0034013605442	59	127
306.0150113378685	306.16591836734693	76	127
306.0150113378685	306.16591836734693	88	127
306.0150113378685	306.16591836734693	61	127
306.17755102040815	306.44458049886623	90	127
306.17755102040815	306.44458049886623	78	127
306.17755102040815	306.44458049886623	63	127
306.4561904761905	306.6883900226757	92	127
306.4561904761905	306.6883900226757	80	127
306.4561904761905	306.6883900226757	64	127
306.7	306.920589569161	93	127
306.7	306.920589569161	81	127
306.7	306.920589569161	66	127
306.93219954648526	307.12956916099773	90	127
306.93219954648526	307.12956916099773	68	127
307.141179138322	307.38496598639455	87	127
307.141179138322	307.38496598639455	69	127
307.38496598639455	307.6055782312925	71	127
307.38496598639455	307.6055782312925	83	127
307.6404081632653	308.1396371882086	73	127
307.6404081632653	308.5808163265306	81	127
308.1512471655329	308.5808163265306	75	127
308.5924263038549	308.9987755102041	76	127
308.5924263038549	308.7781859410431	80	127
308.78979591836736	308.9987755102041	83	127
309.01038548752837	309.20775510204084	88	127
309.2193650793651	309.4980045351474	87	127
309.50961451247167	310.496462585034	64	127
309.50961451247167	310.496462585034	85	127
309.50961451247167	310.496462585034	57	127
310.496462585034	310.70544217687075	83	127
310.496462585034	311.37879818594104	64	127
310.496462585034	311.37879818594104	52	127
310.717052154195	310.92603174603175	83	127
310.92603174603175	311.15823129251703	88	127
311.1698185941043	311.37879818594104	87	127
311.39043083900225	312.2959863945578	57	127
311.39043083900225	312.2959863945578	85	127
311.39043083900225	312.2959863945578	64	127
312.307619047619	312.51659863945576	83	127
312.307619047619	313.2015873015873	64	127
312.307619047619	313.2015873015873	52	127
312.52820861678003	312.74879818594104	83	127
312.7604081632653	312.96938775510205	88	127
312.96938775510205	313.2015873015873	87	127
313.22478458049886	313.73562358276644	69	127
313.22478458049886	313.46861678004535	85	127
313.46861678004535	313.73562358276644	81	127
313.74725623582765	314.1768253968254	64	127
313.74725623582765	313.9562358276644	85	127
313.96784580498866	314.1768253968254	83	127
314.18843537414966	314.59478458049887	66	127
314.18843537414966	314.40902494331067	81	127
314.60639455782314	315.04757369614515	61	127
315.0591609977324	315.60485260770974	63	127
315.3378231292517	315.60485260770974	75	127
315.60485260770974	315.96476190476193	58	127
315.60485260770974	315.76739229024946	78	127
315.77897959183673	315.96476190476193	76	127
315.96476190476193	316.41755102040815	59	127
315.96476190476193	316.19696145124715	75	127
316.41755102040815	316.8819501133787	55	127
316.893537414966	317.31149659863945	56	127
317.1141496598639	317.31149659863945	68	127
317.32312925170066	317.74108843537414	51	127
317.32312925170066	317.54371882086167	71	127
317.55532879818594	317.74108843537414	69	127
317.7526984126984	318.24031746031744	52	127
317.7526984126984	318.0081179138322	68	127
318.0081179138322	318.24031746031744	64	127
318.2519274376417	318.46090702947845	69	127
318.2519274376417	318.6698866213152	45	127
318.46090702947845	318.6698866213152	66	127
318.68149659863946	319.12267573696147	47	127
319.13428571428574	319.5290249433107	64	127
319.13428571428574	319.5290249433107	56	127
319.13428571428574	319.5290249433107	59	127
319.54063492063494	320.1211337868481	35	127
319.54063492063494	320.1211337868481	47	127
320.13274376417235	320.6551927437642	59	127
320.13274376417235	320.6551927437642	57	127
320.13274376417235	320.6551927437642	63	127
320.69002267573694	321.2124716553288	64	127
320.69002267573694	321.00349206349205	40	127
320.69002267573694	321.2124716553288	56	127
320.69002267573694	321.2124716553288	59	127
320.85256235827666	321.2124716553288	44	127
321.0151020408163	321.3401814058957	47	127
321.22408163265305	321.49111111111114	52	127
321.22408163265305	322.0948299319728	64	127
321.3401814058957	321.618820861678	56	127
321.49111111111114	321.792970521542	59	127
321.66526077097507	321.95551020408163	52	127
321.80455782312924	322.0948299319728	56	127
321.9671201814059	322.2457596371882	59	127
322.1064399092971	322.21090702947845	66	127
322.1064399092971	322.4198866213152	51	127
322.17609977324264	322.30380952380955	68	127
322.22253968253966	322.35024943310657	66	127
322.280589569161	322.53600907029477	57	127
322.3153968253968	322.4082993197279	68	127
322.36185941043084	322.4779591836735	66	127
322.4315192743764	322.53600907029477	59	127
322.4315192743764	322.53600907029477	64	127
322.4779591836735	322.6056689342404	66	127
322.54761904761904	322.89591836734695	52	127
322.54761904761904	323.04684807256234	68	127
322.71015873015875	323.04684807256234	56	127
322.9075283446712	323.2209977324263	59	127
323.0584580498866	323.92920634920637	64	127
323.0584580498866	323.33707482993196	52	127
323.2325850340136	323.4648072562358	56	127
323.3487074829932	323.62734693877553	59	127
323.4764172335601	323.76666666666665	52	127
323.6389569160998	323.92920634920637	56	127
323.7782766439909	324.0685260770975	59	127
323.94081632653064	324.03369614512474	66	127
323.94081632653064	324.20784580498866	51	127
323.98725623582766	324.08013605442176	68	127
324.045306122449	324.1381859410431	66	127
324.08013605442176	324.3355555555556	57	127
324.091746031746	324.1846258503401	68	127
324.1497959183674	324.265873015873	66	127
324.21945578231293	324.3355555555556	59	127
324.21945578231293	324.3355555555556	64	127
324.2775056689342	324.44004535147394	66	127
324.34716553287984	324.6954648526077	52	127
324.34716553287984	324.84639455782315	68	127
324.5445351473923	324.84639455782315	56	127
324.6954648526077	324.9624943310658	59	127
324.84639455782315	325.1018140589569	52	127
324.84639455782315	325.1366439909297	64	127
324.9624943310658	325.25274376417235	56	127
325.1018140589569	325.415283446712	59	127
325.1366439909297	325.25274376417235	63	127
325.25274376417235	325.5429931972789	52	127
325.25274376417235	325.7287528344671	61	127
325.415283446712	325.7287528344671	57	127
325.589410430839	325.87968253968256	61	127
325.7403628117914	326.12349206349205	69	127
325.7403628117914	326.0886621315193	52	127
325.89126984126983	326.2279818594104	57	127
326.10024943310657	326.2279818594104	61	127
326.1351020408163	326.2279818594104	68	127
326.25120181405896	326.5878911564626	55	127
326.25120181405896	326.7272108843537	67	127
326.4601814058957	326.7272108843537	58	127
326.5995011337869	326.87814058956917	63	127
326.738820861678	327.04068027210883	75	127
326.738820861678	327.01743764172335	55	127
326.88975056689344	327.1451700680272	58	127
327.02907029478456	327.29609977324264	63	127
327.0522902494331	327.1451700680272	73	127
327.15678004535147	327.60956916099775	72	127
327.15678004535147	327.44702947845803	54	127
327.3077097505669	327.60956916099775	56	127
327.4586394557823	327.74888888888887	63	127
327.621179138322	327.9114285714286	53	127
327.621179138322	328.07396825396825	73	127
327.76049886621314	328.07396825396825	56	127
327.92303854875286	328.07396825396825	61	127
328.0855782312925	328.52675736961453	71	127
328.0855782312925	328.3758276643991	52	127
328.23650793650796	328.52675736961453	54	127
328.38743764172335	328.66607709750565	61	127
328.5383673469388	328.8053968253968	52	127
328.5383673469388	328.991156462585	70	127
328.66607709750565	328.991156462585	54	127
328.8053968253968	329.1304761904762	61	127
328.991156462585	329.32784580498867	52	127
328.991156462585	329.23496598639457	73	127
329.1304761904762	329.46716553287985	56	127
329.23496598639457	329.46716553287985	71	127
329.32784580498867	329.6297052154195	59	127
329.46716553287985	329.69936507936507	69	127
329.46716553287985	329.80385487528343	52	127
329.6413151927438	329.9431746031746	56	127
329.71097505668934	329.9431746031746	68	127
329.8154648526077	329.9431746031746	61	127
329.9547845804989	330.2218140589569	54	127
329.9547845804989	330.3843537414966	71	127
330.09408163265306	330.3843537414966	57	127
330.2334240362812	330.5468934240363	61	127
330.3959410430839	331.3131292517007	69	127
330.3959410430839	330.7326530612245	54	127
330.55850340136055	330.88358276643993	57	127
330.74426303854875	331.0345124716553	61	127
330.8951927437642	331.15061224489796	51	127
331.0461224489796	331.3131292517007	54	127
331.1622222222222	331.46408163265306	59	127
331.3247619047619	331.59179138321997	51	127
331.3247619047619	331.75433106575963	66	127
331.47569160997733	331.75433106575963	54	127
331.60340136054424	331.75433106575963	59	127
331.7659410430839	331.97492063492064	52	127
331.7659410430839	331.97492063492064	64	127
331.9865306122449	332.2071201814059	76	127
331.9865306122449	332.2071201814059	64	127
332.1142403628118	332.32321995464855	75	127
332.1142403628118	332.32321995464855	63	127
332.2187301587302	332.4277097505669	76	127
332.2187301587302	332.4277097505669	64	127
332.3348072562358	332.56702947845804	71	127
332.3348072562358	332.56702947845804	59	127
332.4392970521542	332.6831292517007	68	127
332.4392970521542	332.6831292517007	56	127
332.5786394557823	332.7760090702948	71	127
332.5786394557823	332.7760090702948	59	127
332.69473922902495	332.8572789115646	68	127
332.69473922902495	332.8572789115646	56	127
332.7760090702948	332.9849886621315	71	127
332.7760090702948	332.9849886621315	59	127
332.8572789115646	333.06625850340134	76	127
332.8572789115646	333.06625850340134	64	127
332.9849886621315	333.2055782312925	71	127
332.9849886621315	333.2055782312925	59	127
333.06625850340134	333.3100680272109	69	127
333.06625850340134	333.3100680272109	57	127
333.2055782312925	333.4261678004535	71	127
333.2055782312925	333.4261678004535	59	127
333.3100680272109	333.5887074829932	75	127
333.3100680272109	333.5887074829932	63	127
333.4261678004535	333.5887074829932	71	127
333.4261678004535	333.5887074829932	59	127
333.5887074829932	333.8092970521542	68	127
333.5887074829932	333.8092970521542	56	127
333.7048072562358	333.92539682539683	71	127
333.7048072562358	333.92539682539683	59	127
333.83251700680273	334.04149659863947	76	127
333.83251700680273	334.04149659863947	64	127
333.9370068027211	334.2156462585034	75	127
333.9370068027211	334.2156462585034	63	127
334.05310657596374	334.3433560090703	76	127
334.05310657596374	334.3433560090703	64	127
334.22725623582767	334.4478458049887	71	127
334.22725623582767	334.4478458049887	59	127
334.3549659863946	334.5407256235828	68	127
334.3549659863946	334.5407256235828	56	127
334.45945578231294	334.6568253968254	71	127
334.45945578231294	334.6568253968254	59	127
334.55233560090704	334.7613151927438	68	127
334.55233560090704	334.7613151927438	56	127
334.6684353741497	334.86580498866215	71	127
334.6684353741497	334.86580498866215	59	127
334.77292517006805	334.9819047619048	64	127
334.77292517006805	334.9819047619048	76	127
334.8774149659864	335.08639455782316	59	127
334.8774149659864	335.08639455782316	71	127
334.99349206349206	335.1908843537415	69	127
334.99349206349206	335.1908843537415	57	127
335.0979818594104	335.2837641723356	59	127
335.0979818594104	335.2837641723356	71	127
335.2024716553288	335.39984126984126	63	127
335.2024716553288	335.39984126984126	75	127
335.2953741496599	335.39984126984126	59	127
335.2953741496599	335.39984126984126	71	127
335.4114739229025	335.59723356009073	68	127
335.4114739229025	335.59723356009073	56	127
335.51596371882084	335.6901133786848	71	127
335.51596371882084	335.6901133786848	59	127
335.608820861678	335.7829931972789	76	127
335.608820861678	335.7829931972789	64	127
335.7017233560091	335.8874829931973	71	127
335.7017233560091	335.8874829931973	59	127
335.7946031746032	335.99197278911566	68	127
335.7946031746032	335.99197278911566	56	127
335.89909297052156	336.08485260770976	71	127
335.89909297052156	336.08485260770976	59	127
335.99197278911566	336.2009523809524	64	127
335.99197278911566	336.2009523809524	76	127
336.09646258503403	336.30544217687077	59	127
336.09646258503403	336.30544217687077	71	127
336.21256235827667	336.46798185941043	69	127
336.21256235827667	336.46798185941043	57	127
336.31705215419504	336.5724716553288	73	127
336.31705215419504	336.5724716553288	61	127
336.4795918367347	336.71179138322	76	127
336.4795918367347	336.71179138322	64	127
336.58408163265307	336.71179138322	61	127
336.58408163265307	336.71179138322	73	127
336.72340136054424	336.94396825396825	73	127
336.72340136054424	336.94396825396825	61	127
336.8278911564626	337.08331065759637	76	127
336.8278911564626	337.08331065759637	64	127
336.94396825396825	337.2110204081633	69	127
336.94396825396825	337.2110204081633	81	127
337.08331065759637	337.2110204081633	64	127
337.08331065759637	337.2110204081633	76	127
337.2110204081633	337.42	61	127
337.2110204081633	337.42	73	127
337.31551020408165	337.5128798185941	63	127
337.31551020408165	337.5128798185941	75	127
337.42	337.62897959183675	70	127
337.42	337.62897959183675	82	127
337.5128798185941	337.7334693877551	75	127
337.5128798185941	337.7334693877551	63	127
337.62897959183675	337.8031292517007	58	127
337.62897959183675	337.8031292517007	70	127
337.7334693877551	337.90761904761905	75	127
337.7334693877551	337.90761904761905	63	127
337.8031292517007	338.00049886621315	79	127
337.8031292517007	338.00049886621315	67	127
337.9192290249433	338.1398185941043	75	127
337.9192290249433	338.1398185941043	63	127
338.0237188208617	338.27913832199545	68	127
338.0237188208617	338.27913832199545	56	127
338.16301587301587	338.3952380952381	75	127
338.16301587301587	338.3952380952381	63	127
338.2907482993197	338.5113378684807	80	127
338.2907482993197	338.5113378684807	68	127
338.40684807256235	338.6158276643991	75	127
338.40684807256235	338.6158276643991	63	127
338.522947845805	338.743537414966	68	127
338.522947845805	338.743537414966	56	127
338.62743764172336	338.8712471655329	73	127
338.62743764172336	338.8712471655329	61	127
338.75514739229027	338.964126984127	77	127
338.75514739229027	338.964126984127	65	127
338.8828344671202	338.964126984127	61	127
338.8828344671202	338.964126984127	73	127
338.9757369614513	339.184693877551	56	127
338.9757369614513	339.184693877551	68	127
339.09183673469386	339.31242630385486	73	127
339.09183673469386	339.31242630385486	61	127
339.1963265306122	339.4285260770975	77	127
339.1963265306122	339.4285260770975	65	127
339.32403628117913	339.5214058956916	73	127
339.32403628117913	339.5214058956916	61	127
339.44013605442177	339.62589569160997	66	127
339.44013605442177	339.62589569160997	54	127
339.53301587301587	339.73038548752834	73	127
339.53301587301587	339.73038548752834	61	127
339.63750566893424	339.82326530612244	78	127
339.63750566893424	339.82326530612244	66	127
339.7419954648526	339.9393650793651	73	127
339.7419954648526	339.9393650793651	61	127
339.8348752834467	340.0206349206349	66	127
339.8348752834467	340.0206349206349	54	127
339.95097505668934	340.1251247165533	71	127
339.95097505668934	340.1251247165533	59	127
340.0322448979592	340.22961451247164	63	127
340.0322448979592	340.22961451247164	75	127
340.13673469387754	340.3457142857143	59	127
340.13673469387754	340.3457142857143	71	127
340.2412244897959	340.45020408163265	68	127
340.2412244897959	340.45020408163265	56	127
340.35732426303855	340.5663038548753	59	127
340.35732426303855	340.5663038548753	71	127
340.4618140589569	340.6940136054422	76	127
340.4618140589569	340.6940136054422	64	127
340.57791383219956	340.6940136054422	59	127
340.57791383219956	340.6940136054422	71	127
340.6940136054422	340.9146031746032	69	127
340.6940136054422	340.9146031746032	57	127
340.8217006802721	341.01909297052157	72	127
340.8217006802721	341.01909297052157	60	127
340.9146031746032	341.12356009070294	76	127
340.9146031746032	341.12356009070294	64	127
341.01909297052157	341.2396825396825	60	127
341.01909297052157	341.12356009070294	72	127
341.12356009070294	341.35578231292516	57	127
341.12356009070294	341.35578231292516	72	127
341.2396825396825	341.4602721088435	76	127
341.2396825396825	341.4602721088435	60	127
341.35578231292516	341.5647619047619	57	127
341.35578231292516	341.5647619047619	81	127
341.4602721088435	341.657641723356	76	127
341.4602721088435	341.657641723356	60	127
341.5647619047619	341.76213151927436	72	127
341.5647619047619	341.76213151927436	54	127
341.66925170068026	341.85501133786846	78	127
341.66925170068026	341.85501133786846	57	127
341.77374149659863	341.93628117913835	81	127
341.77374149659863	341.93628117913835	54	127
341.86662131519273	341.93628117913835	78	127
341.86662131519273	342.02916099773245	57	127
341.9478684807256	342.1452607709751	78	127
341.9478684807256	342.1452607709751	52	127
342.0407709750567	342.24972789115645	81	127
342.0407709750567	342.24972789115645	54	127
342.15684807256235	342.3542176870748	57	127
342.15684807256235	342.3542176870748	84	127
342.26136054421767	342.3542176870748	81	127
342.26136054421767	342.3542176870748	54	127
342.36585034013603	342.56319727891156	84	127
342.36585034013603	342.56319727891156	51	127
342.4819501133787	342.6676870748299	81	127
342.4819501133787	342.6676870748299	54	127
342.5748299319728	342.7954195011338	78	127
342.5748299319728	342.7954195011338	57	127
342.67931972789114	342.9231292517007	54	127
342.67931972789114	342.9231292517007	81	127
342.8302494331066	343.0392290249433	51	127
342.8302494331066	343.0392290249433	84	127
342.93473922902496	343.1437188208617	81	127
342.93473922902496	343.1437188208617	54	127
343.0508390022676	343.25981859410433	78	127
343.0508390022676	343.25981859410433	57	127
343.15532879818596	343.3643083900227	81	127
343.15532879818596	343.3643083900227	54	127
343.2714058956916	343.5036281179138	84	127
343.2714058956916	343.5036281179138	51	127
343.37589569160997	343.61972789115646	81	127
343.37589569160997	343.61972789115646	54	127
343.5152380952381	343.7242176870748	78	127
343.5152380952381	343.7242176870748	57	127
343.6313378684807	343.8287074829932	81	127
343.6313378684807	343.8287074829932	54	127
343.7358276643991	343.93319727891156	84	127
343.7358276643991	343.93319727891156	51	127
343.84031746031746	344.03768707482993	81	127
343.84031746031746	344.03768707482993	54	127
343.94480725623583	344.1421768707483	78	127
343.94480725623583	344.1421768707483	57	127
344.0492970521542	344.24666666666667	81	127
344.0492970521542	344.24666666666667	54	127
344.15378684807257	344.3627664399093	84	127
344.15378684807257	344.3627664399093	51	127
344.2698866213152	344.4672562358277	54	127
344.2698866213152	344.4672562358277	81	127
344.3743764172336	344.5949659863946	78	127
344.3743764172336	344.5949659863946	57	127
344.4904761904762	344.69945578231295	54	127
344.4904761904762	344.69945578231295	81	127
344.5949659863946	344.8039229024943	83	127
344.5949659863946	344.8039229024943	51	127
344.69945578231295	344.9316553287982	81	127
344.69945578231295	344.9316553287982	54	127
344.8039229024943	345.0477551020408	78	127
344.8039229024943	345.0477551020408	57	127
344.9316553287982	345.1522448979592	81	127
344.9316553287982	345.1522448979592	54	127
345.0477551020408	345.2683446712018	83	127
345.0477551020408	345.2683446712018	51	127
345.16385487528345	345.3728344671202	81	127
345.16385487528345	345.3728344671202	54	127
345.2683446712018	345.53537414965984	78	127
345.2683446712018	345.53537414965984	57	127
345.38444444444445	345.674693877551	81	127
345.38444444444445	345.674693877551	54	127
345.53537414965984	345.80240362811793	83	127
345.53537414965984	345.80240362811793	51	127
345.674693877551	345.93009070294784	81	127
345.674693877551	345.93009070294784	54	127
345.8140136054422	346.0462131519274	78	127
345.8140136054422	346.0462131519274	57	127
345.94172335600905	346.0462131519274	54	127
345.94172335600905	346.0462131519274	81	127
346.0578231292517	346.3596825396825	83	127
346.0578231292517	346.3596825396825	51	127
346.19714285714286	346.56866213151926	54	127
346.19714285714286	346.56866213151926	81	127
346.3712925170068	346.7195918367347	80	127
346.3712925170068	346.7195918367347	57	127
346.58027210884353	346.8705215419501	78	127
346.58027210884353	346.8705215419501	51	127
346.74281179138325	347.0098412698413	54	127
346.74281179138325	347.0098412698413	76	127
346.88213151927437	347.14916099773245	75	127
346.88213151927437	347.14916099773245	57	127
347.02145124716554	347.30009070294784	73	127
347.02145124716554	347.30009070294784	51	127
347.1607482993197	347.439410430839	54	127
347.1607482993197	347.439410430839	71	127
347.3117006802721	347.57873015873014	69	127
347.3117006802721	347.57873015873014	57	127
347.4510204081633	347.7180498866213	51	127
347.4510204081633	347.64839002267576	68	127
347.55551020408166	347.7528798185941	66	127
347.5903401360544	347.88056689342403	54	127
347.66	347.88056689342403	64	127
347.7296598639456	348.0431292517007	57	127
347.7644897959184	348.0082993197279	63	127
347.89219954648524	348.321768707483	61	127
347.89219954648524	348.18242630385487	51	127
348.05473922902496	348.321768707483	54	127
348.18242630385487	348.46108843537417	57	127
348.321768707483	349.7614058956916	59	127
348.321768707483	348.6236281179138	51	127
348.46108843537417	348.78616780045354	54	127
348.6236281179138	348.92548752834466	57	127
348.78616780045354	349.0764172335601	51	127
348.93709750566893	349.2157369614512	54	127
349.0880272108844	349.3898866213152	57	127
349.2157369614512	349.59886621315195	51	127
349.42471655328796	349.7614058956916	54	127
349.6104535147392	349.7614058956916	57	127
349.7730158730159	350.1677551020408	88	127
349.7730158730159	350.1677551020408	50	127
349.97038548752835	350.3651247165533	86	127
349.97038548752835	350.3651247165533	52	127
350.19097505668935	350.51605442176873	85	127
350.19097505668935	350.51605442176873	56	127
350.37673469387755	350.65537414965985	50	127
350.37673469387755	350.65537414965985	83	127
350.51605442176873	350.794693877551	81	127
350.51605442176873	350.794693877551	52	127
350.65537414965985	350.9456009070295	56	127
350.65537414965985	350.9456009070295	80	127
350.794693877551	351.1197732426304	78	127
350.794693877551	351.1197732426304	50	127
350.9456009070295	351.2707029478458	52	127
350.9456009070295	351.2707029478458	76	127
351.1197732426304	351.4912925170068	74	127
351.1197732426304	351.4912925170068	56	127
351.2707029478458	351.5609297052154	73	127
351.2707029478458	351.6190022675737	50	127
351.42163265306124	351.677052154195	71	127
351.4912925170068	351.8163718820862	52	127
351.5609297052154	351.8163718820862	69	127
351.64222222222224	351.8163718820862	56	127
351.68866213151927	351.88603174603173	68	127
351.82798185941044	352.0369614512472	44	127
351.82798185941044	352.0369614512472	47	127
351.82798185941044	352.17625850340136	66	127
351.9324716553288	352.17625850340136	50	127
352.04857142857145	352.3156009070295	52	127
352.18789115646257	352.45492063492065	44	127
352.18789115646257	353.65074829931973	64	127
352.18789115646257	352.45492063492065	47	127
352.32721088435375	352.64068027210885	50	127
352.4665306122449	352.8032199546485	52	127
352.6522902494331	352.98895691609977	44	127
352.6522902494331	352.98895691609977	47	127
352.8148299319728	353.13990929705216	50	127
353.000589569161	353.2908163265306	52	127
353.1515192743764	353.48820861678007	44	127
353.1515192743764	353.48820861678007	47	127
353.3024489795918	353.65074829931973	50	127
353.49979591836734	353.65074829931973	52	127
353.662358276644	353.95260770975057	33	127
353.662358276644	354.1267573696145	73	127
353.662358276644	354.1267573696145	76	127
353.662358276644	354.1267573696145	81	127
353.662358276644	354.1267573696145	85	127
353.81326530612245	354.1267573696145	35	127
353.9874376417234	354.31249433106575	37	127
354.13836734693876	354.3821768707483	38	127
354.2892970521542	354.4866666666667	40	127
354.3937868480726	354.59115646258505	42	127
354.49827664399095	354.68403628117915	44	127
354.6027664399093	354.7885260770975	45	127
354.6956462585034	354.9278231292517	47	127
354.7885260770975	355.03231292517006	49	127
354.9278231292517	355.13680272108843	50	127
355.03231292517006	355.2412925170068	52	127
355.2412925170068	355.53156462585036	33	127
355.53156462585036	356.00757369614513	34	127
355.53156462585036	355.7057142857143	58	127
355.7057142857143	355.85662131519274	59	127
355.86825396825395	356.00757369614513	61	127
356.0191836734694	356.22816326530614	63	127
356.13528344671204	356.3674603174603	64	127
356.2397732426304	356.49519274376416	66	127
356.3790929705215	356.59968253968253	68	127
356.50680272108843	356.7390022675737	70	127
356.6112925170068	356.8434920634921	71	127
356.750612244898	356.94798185941045	73	127
356.85510204081635	357.07566893424035	75	127
356.971179138322	357.2150113378685	76	127
357.238231292517	357.4704308390023	58	127
357.49362811791383	357.6909977324263	47	127
357.59814058956914	357.8419501133787	59	127
357.7026303854875	357.9696598639456	61	127
357.7026303854875	357.9696598639456	57	127
357.85356009070296	358.07414965986396	63	127
357.85356009070296	358.07414965986396	56	127
357.98126984126986	358.17863945578233	64	127
357.98126984126986	358.17863945578233	54	127
358.08575963718823	358.2831292517007	52	127
358.08575963718823	358.2831292517007	66	127
358.1902494331066	358.4340589569161	68	127
358.1902494331066	358.4340589569161	51	127
358.29473922902497	358.53854875283446	69	127
358.29473922902497	358.53854875283446	49	127
358.44566893424036	358.5965986394558	71	127
358.44566893424036	358.5965986394558	47	127
358.6081859410431	358.72430839002266	73	127
358.6081859410431	358.72430839002266	45	127
358.7359183673469	358.86362811791383	75	127
358.7359183673469	358.86362811791383	44	127
358.8752380952381	359.14226757369613	76	127
358.8752380952381	359.14226757369613	42	127
359.02614512471655	359.2467573696145	78	127
359.02614512471655	359.2467573696145	40	127
359.14226757369613	359.39768707482995	80	127
359.14226757369613	359.39768707482995	39	127
359.2467573696145	359.39768707482995	81	127
359.2467573696145	359.39768707482995	37	127
359.39768707482995	359.5950566893424	35	127
359.39768707482995	359.5950566893424	83	127
359.5950566893424	359.8156462585034	47	127
359.5950566893424	359.8156462585034	52	127
359.5950566893424	359.8156462585034	76	127
359.5950566893424	359.8156462585034	56	127
359.8156462585034	360.10589569161	47	127
359.8156462585034	360.10589569161	56	127
359.8156462585034	360.10589569161	80	127
359.8156462585034	360.10589569161	52	127
360.11750566893426	360.3148752834467	47	127
360.11750566893426	360.3148752834467	56	127
360.11750566893426	360.3148752834467	83	127
360.11750566893426	360.3148752834467	52	127
360.326485260771	360.55866213151927	47	127
360.326485260771	360.55866213151927	56	127
360.326485260771	360.55866213151927	88	127
360.326485260771	360.55866213151927	52	127
360.5702947845805	360.81410430839003	52	127
360.5702947845805	360.81410430839003	92	127
360.5702947845805	360.81410430839003	47	127
360.5702947845805	360.81410430839003	56	127
360.81410430839003	361.0927437641723	52	127
360.81410430839003	361.0927437641723	56	127
360.81410430839003	361.0927437641723	95	127
360.81410430839003	361.0927437641723	47	127
361.1043537414966	361.42943310657597	47	127
361.1043537414966	361.42943310657597	56	127
361.1043537414966	361.42943310657597	64	127
361.1043537414966	361.42943310657597	52	127
361.44104308390024	361.917052154195	51	127
361.44104308390024	361.6035827664399	66	127
361.44104308390024	361.917052154195	47	127
361.44104308390024	361.917052154195	57	127
361.53392290249434	361.6848299319728	68	127
361.61519274376417	361.7777097505669	66	127
361.696462585034	361.84739229024945	68	127
361.7777097505669	361.917052154195	66	127
361.8590022675737	361.9866893424036	68	127
361.9286621315193	362.06798185941045	66	127
361.99832199546483	362.12603174603174	68	127
362.0795918367347	362.2305215419501	66	127
362.137641723356	362.31179138321994	68	127
362.2305215419501	362.40467120181404	66	127
362.3234013605442	362.4859410430839	68	127
362.4162811791383	362.5556009070295	66	127
362.4975283446712	362.62526077097505	68	127
362.56721088435376	362.69489795918366	66	127
362.6368707482993	362.7761904761905	68	127
362.70650793650793	362.8574603174603	66	127
362.78780045351476	362.9503401360544	68	127
362.8690702947846	363.0548299319728	66	127
362.9619501133787	363.15931972789116	68	127
363.06643990929706	363.25219954648526	66	127
363.15931972789116	363.4263492063492	65	127
363.29863945578234	363.4263492063492	66	127
363.43795918367346	363.5888888888889	73	127
363.51920634920634	363.681768707483	75	127
363.6004988662132	363.76303854875283	73	127
363.69337868480727	363.84430839002266	75	127
363.7746485260771	363.9139682539683	73	127
363.85591836734693	363.9952380952381	75	127
363.92555555555555	364.07650793650794	73	127
364.0068480725624	364.16938775510204	75	127
364.07650793650794	364.25065759637187	73	127
364.1809977324263	364.3203174603175	75	127
364.26226757369614	364.3667573696145	73	127
364.33190476190475	364.4363945578231	75	127
364.3783673469388	364.5292970521542	73	127
364.44802721088433	364.5873469387755	75	127
364.5292970521542	364.66861678004534	73	127
364.5989569160998	364.7498639455782	75	127
364.6802267573696	364.8543537414966	73	127
364.7731065759637	364.9704761904762	75	127
364.8659863945578	365.07496598639455	73	127
364.98208616780045	365.16784580498864	75	127
365.0981859410431	365.24911564625853	73	127
365.1794557823129	365.4000453514739	72	127
365.2839455782313	365.4000453514739	73	127
365.4116553287982	366.3636734693878	69	127
365.4116553287982	367.3040589569161	47	127
365.4116553287982	365.93410430839003	75	127
365.4116553287982	366.3636734693878	66	127
365.9457142857143	366.3636734693878	73	127
366.37528344671205	367.3040589569161	66	127
366.37528344671205	366.816462585034	71	127
366.37528344671205	367.3040589569161	63	127
366.8280725623583	367.3040589569161	69	127
367.3156916099773	369.1268480725624	64	127
367.3156916099773	368.2096598639456	40	127
367.3156916099773	369.1268480725624	68	127
368.2212471655329	369.1268480725624	47	127
369.13843537414965	371.14698412698414	47	127
369.13843537414965	370.19496598639455	66	127
369.2081179138322	370.19496598639455	69	127
369.38226757369614	369.7653968253968	75	127
369.7653968253968	370.19496598639455	73	127
370.19496598639455	371.14698412698414	63	127
370.26460317460317	371.2166439909297	66	127
370.32267573696146	370.6709523809524	71	127
370.6709523809524	371.14698412698414	69	127
371.1585941043084	373.00458049886623	64	127
371.1585941043084	372.01773242630384	40	127
371.1585941043084	373.00458049886623	68	127
372.0293424036281	373.00458049886623	47	127
373.0161904761905	374.8389569160998	63	127
373.0161904761905	374.8389569160998	59	127
373.0161904761905	373.4689795918367	47	127
373.0161904761905	374.8389569160998	54	127
373.0161904761905	374.8389569160998	57	127
373.480589569161	373.9333786848073	45	127
373.94496598639455	374.35131519274375	44	127
374.362925170068	374.8389569160998	42	127
374.8621541950113	375.38460317460317	56	127
374.8621541950113	375.38460317460317	59	127
374.8621541950113	375.38460317460317	64	127
374.8621541950113	375.38460317460317	40	127
375.3962358276644	375.8258049886621	62	127
375.3962358276644	375.8258049886621	38	127
375.84902494331067	376.34825396825397	37	127
375.84902494331067	376.34825396825397	61	127
376.35986394557824	376.8707029478458	62	127
376.35986394557824	376.8707029478458	38	127
376.8823129251701	377.1609523809524	37	127
376.8823129251701	377.89238095238096	61	127
377.17256235827665	377.4163718820862	49	127
377.4163718820862	377.6601814058957	37	127
377.6601814058957	377.89238095238096	49	127
377.89238095238096	378.7399092970522	68	127
377.89238095238096	378.1013605442177	37	127
378.11297052154197	378.333560090703	49	127
378.34514739229024	378.5425170068027	37	127
378.554126984127	378.7399092970522	49	127
378.75149659863945	378.9721088435374	37	127
378.75149659863945	379.62226757369615	69	127
378.98371882086167	379.1926984126984	49	127
379.2043083900227	379.4132879818594	37	127
379.4248979591837	379.62226757369615	49	127
379.6338775510204	380.52784580498866	77	127
379.6338775510204	379.8544671201814	37	127
379.8660770975057	380.07505668934243	49	127
380.1098866213152	380.3188662131519	37	127
380.3304761904762	380.52784580498866	49	127
380.5394557823129	380.76004535147393	37	127
380.5394557823129	381.5030839002268	78	127
380.7716553287982	380.96902494331067	49	127
380.98063492063494	381.22444444444443	37	127
381.22444444444443	381.5030839002268	49	127
381.5030839002268	381.79333333333335	37	127
381.5030839002268	382.4551020408163	80	127
381.79333333333335	382.0487528344671	49	127
382.0487528344671	382.2461224489796	37	127
382.25773242630385	382.4551020408163	49	127
382.4667120181406	382.6873015873016	37	127
382.4667120181406	383.3142403628118	81	127
382.69891156462586	382.8962811791383	49	127
382.9078911564626	383.0936507936508	37	127
383.10526077097506	383.3142403628118	49	127
383.32585034013607	384.161768707483	90	127
383.32585034013607	384.161768707483	81	127
383.32585034013607	383.52321995464854	36	127
383.5348299319728	383.7321995464853	48	127
383.74380952380955	383.9527891156463	36	127
383.9643990929705	384.161768707483	48	127
384.17337868480723	385.5085260770975	89	127
384.17337868480723	384.38235827664397	37	127
384.17337868480723	385.5085260770975	80	127
384.39396825396824	384.5913378684807	49	127
384.602947845805	384.8467573696145	37	127
384.86997732426306	385.0789569160998	49	127
385.090566893424	385.28793650793654	37	127
385.28793650793654	385.5085260770975	49	127
385.5085260770975	385.93809523809523	90	127
385.5085260770975	385.7291156462585	36	127
385.5085260770975	385.93809523809523	81	127
385.7291156462585	385.93809523809523	48	127
385.93809523809523	386.3096145124717	89	127
385.93809523809523	386.1238548752834	37	127
385.93809523809523	386.3096145124717	80	127
386.1354648526077	386.3096145124717	49	127
386.3212244897959	386.53020408163263	36	127
386.3212244897959	386.7275736961451	81	127
386.3212244897959	386.7275736961451	90	127
386.5418140589569	386.7275736961451	48	127
386.73918367346937	387.1803628117914	89	127
386.73918367346937	386.9481632653061	37	127
386.73918367346937	387.1803628117914	80	127
386.9597732426304	387.1803628117914	49	127
387.19197278911565	387.6215419501134	81	127
387.19197278911565	387.6215419501134	90	127
387.19197278911565	387.41256235827666	36	127
387.41256235827666	387.6215419501134	48	127
387.63315192743767	388.0743310657596	89	127
387.63315192743767	388.0743310657596	49	127
387.63315192743767	388.0743310657596	80	127
387.63315192743767	388.0743310657596	37	127
388.95668934240365	389.3978684807256	57	127
388.95668934240365	389.3978684807256	54	127
389.4094784580499	389.8390476190476	56	127
389.4094784580499	389.8390476190476	53	127
389.8506575963719	390.2221768707483	54	127
389.8506575963719	390.2221768707483	57	127
390.23378684807255	390.6981859410431	53	127
390.23378684807255	390.6981859410431	56	127
390.7097959183673	391.2554648526077	57	127
390.7097959183673	391.2554648526077	54	127
391.26707482993197	391.77791383219954	53	127
391.26707482993197	391.77791383219954	56	127
392.7415419501134	393.08984126984126	81	127
392.7415419501134	393.2059410430839	62	127
392.7415419501134	393.2059410430839	59	127
393.1014512471655	393.2059410430839	79	127
393.2059410430839	393.68195011337866	61	127
393.2059410430839	393.298820861678	78	127
393.2059410430839	393.68195011337866	58	127
393.2639909297052	393.35687074829934	79	127
393.31043083900227	393.41492063492063	78	127
393.36848072562356	393.4729705215419	79	127
393.4265306122449	393.5658503401361	78	127
393.49619047619046	393.68195011337866	77	127
393.5774603174603	393.7516099773243	78	127
393.68195011337866	394.08829931972787	59	127
393.68195011337866	394.08829931972787	62	127
393.68195011337866	393.9721995464853	81	127
393.9838095238095	394.08829931972787	79	127
394.09990929705214	394.6107482993197	58	127
394.09990929705214	394.2043990929705	78	127
394.09990929705214	394.6107482993197	61	127
394.1579591836735	394.2972789115646	79	127
394.2160090702948	394.3785487528345	78	127
394.3088888888889	394.4365986394558	79	127
394.3785487528345	394.5294784580499	78	127
394.4598185941043	394.6107482993197	77	127
394.54108843537415	394.7152380952381	78	127
394.622358276644	395.1448072562358	59	127
394.622358276644	395.0170975056689	81	127
394.622358276644	395.1448072562358	62	127
395.0287074829932	395.1448072562358	79	127
395.1564172335601	396.1084353741497	78	127
395.1564172335601	395.6440362811791	61	127
395.1564172335601	395.6440362811791	58	127
396.12004535147395	396.58444444444444	59	127
396.12004535147395	396.58444444444444	62	127
396.12004535147395	397.0372335600907	67	127
396.12004535147395	397.0372335600907	79	127
397.04884353741494	398.03569160997733	78	127
397.04884353741494	397.52485260770976	49	127
397.04884353741494	397.52485260770976	54	127
397.04884353741494	397.52485260770976	57	127
397.04884353741494	398.03569160997733	66	127
398.0473015873016	398.5581405895692	49	127
398.0473015873016	399.0573696145125	65	127
398.0473015873016	398.5581405895692	59	127
398.0473015873016	398.5581405895692	56	127
398.0473015873016	399.0573696145125	77	127
399.0573696145125	399.3940589569161	42	127
399.0573696145125	400.60149659863947	66	127
399.0573696145125	400.60149659863947	78	127
399.2431292517007	399.5565986394558	49	127
399.40566893424034	399.7075283446712	54	127
399.56820861678005	399.8584580498866	57	127
399.71913832199544	400.03260770975055	54	127
399.88167800453516	400.1719274376417	49	127
400.0442176870748	400.38090702947846	42	127
400.183537414966	400.60149659863947	49	127
400.39251700680273	400.78725623582767	54	127
400.62471655328795	401.1007256235828	85	127
400.62471655328795	400.93818594104306	57	127
400.79886621315194	401.1007256235828	54	127
400.94979591836733	401.286485260771	49	127
401.1471655328798	401.56512471655327	83	127
401.1471655328798	401.42580498866215	42	127
401.29809523809524	401.56512471655327	49	127
401.4374149659864	401.70444444444445	54	127
401.57673469387754	401.8437641723356	57	127
401.57673469387754	401.994693877551	81	127
401.70444444444445	401.994693877551	54	127
401.8437641723356	402.1804535147392	49	127
401.994693877551	402.3546031746032	42	127
401.994693877551	402.1340136054422	80	127
402.05274376417236	402.1920634920635	81	127
402.1340136054422	402.2733333333333	80	127
402.1804535147392	402.4939229024943	49	127
402.2268934240363	402.33138321995466	81	127
402.2733333333333	402.42426303854876	80	127
402.3546031746032	402.64485260770977	54	127
402.3546031746032	402.4939229024943	78	127
402.42426303854876	402.56358276643994	80	127
402.4939229024943	402.7145124716553	81	127
402.4939229024943	402.7725623582766	57	127
402.64485260770977	402.95832199546487	54	127
402.7145124716553	402.95832199546487	78	127
402.7841723356009	402.95832199546487	49	127
402.96993197278914	403.4111111111111	78	127
402.96993197278914	403.27179138322	37	127
403.14408163265307	403.4111111111111	49	127
403.2834013605442	403.56204081632654	56	127
403.42272108843537	404.9436281179138	77	127
403.42272108843537	403.759410430839	59	127
403.5736507936508	403.9451700680272	56	127
403.80585034013603	404.10770975056687	49	127
403.9916099773243	404.2354195011338	37	127
404.11931972789114	404.37473922902495	49	127
404.24702947845805	404.641768707483	56	127
404.4095691609977	404.7926984126984	59	127
404.65337868480725	404.9436281179138	56	127
404.8043083900227	404.9436281179138	49	127
404.9552380952381	405.2687074829932	37	127
405.09455782312926	405.40802721088437	49	127
405.28031746031746	405.60539682539684	56	127
405.41963718820864	405.74471655328796	59	127
405.6170068027211	405.88403628117914	56	127
405.7563265306122	406.06979591836733	49	127
405.8956462585034	406.23233560090705	37	127
406.06979591836733	406.37165532879817	49	127
406.23233560090705	406.54580498866216	56	127
406.37165532879817	406.69673469387754	59	127
406.54580498866216	406.9289342403628	56	127
406.69673469387754	406.9289342403628	49	127
406.9289342403628	407.3468934240363	42	127
406.9289342403628	407.1843537414966	78	127
407.1843537414966	407.4862131519274	49	127
407.1843537414966	407.3468934240363	80	127
407.35850340136057	407.6255328798186	54	127
407.35850340136057	407.4862131519274	78	127
407.4978231292517	407.78807256235825	57	127
407.4978231292517	407.6255328798186	77	127
407.63714285714286	407.78807256235825	78	127
407.63714285714286	407.92739229024943	54	127
407.7996825396825	407.92739229024943	80	127
407.7996825396825	408.1131519274376	49	127
407.9390022675737	408.2640816326531	42	127
407.9390022675737	408.1131519274376	81	127
408.1247619047619	408.4034013605442	49	127
408.1247619047619	408.2640816326531	83	127
408.27569160997734	408.4034013605442	81	127
408.27569160997734	408.54272108843537	54	127
408.41501133786846	408.68204081632655	57	127
408.41501133786846	408.54272108843537	80	127
408.55433106575964	408.68204081632655	81	127
408.55433106575964	408.82136054421767	54	127
408.6936507936508	408.82136054421767	83	127
408.6936507936508	408.96068027210885	49	127
408.83297052154194	408.96068027210885	85	127
408.83297052154194	409.11160997732424	42	127
408.9722902494331	409.11160997732424	86	127
408.9722902494331	409.2509297052154	49	127
409.1232199546485	409.4366893424036	54	127
409.1232199546485	409.2509297052154	85	127
409.2625396825397	409.4366893424036	83	127
409.2625396825397	409.5992290249433	57	127
409.4482993197279	409.7501587301587	54	127
409.4482993197279	409.5992290249433	81	127
409.6108390022676	409.7501587301587	80	127
409.6108390022676	409.90108843537416	49	127
409.761768707483	410.05201814058955	42	127
409.761768707483	409.90108843537416	83	127
409.91269841269843	410.05201814058955	81	127
409.91269841269843	410.1681179138322	49	127
410.0636281179138	410.1681179138322	80	127
410.0636281179138	410.3422675736961	54	127
410.17972789115646	410.3422675736961	83	127
410.17972789115646	410.49319727891157	57	127
410.3422675736961	410.49319727891157	81	127
410.3422675736961	410.69056689342403	54	127
410.49319727891157	410.69056689342403	80	127
410.49319727891157	410.69056689342403	49	127
410.69056689342403	411.1665759637188	76	127
410.69056689342403	411.0156462585034	35	127
410.86471655328796	411.1665759637188	47	127
411.0156462585034	411.30589569161	54	127
411.1665759637188	411.44521541950115	57	127
411.1665759637188	412.5249433106576	75	127
411.30589569161	411.6077551020408	54	127
411.4568253968254	411.747074829932	47	127
411.6193650793651	411.9560544217687	35	127
411.8283446712018	412.1185941043084	47	127
411.967664399093	412.26952380952383	54	127
412.1418140589569	412.3972335600907	57	127
412.28113378684805	412.5249433106576	54	127
412.40884353741495	412.66426303854877	47	127
412.53655328798186	412.81519274376416	35	127
412.67587301587304	412.9661224489796	47	127
412.8268027210884	413.117052154195	54	127
412.9777324263039	413.26798185941044	57	127
413.12866213151926	413.5001814058957	54	127
413.2795918367347	413.6511111111111	47	127
413.51179138321993	413.81365079365077	35	127
413.6627210884354	413.9645804988662	47	127
413.82526077097504	414.11551020408166	54	127
413.9761904761905	414.2780498866213	57	127
414.12712018140587	414.4986394557823	54	127
414.2896598639456	414.4986394557823	47	127
414.5102494331066	415.9614965986394	40	127
414.5102494331066	415.0559183673469	71	127
414.5102494331066	415.0559183673469	76	127
414.5102494331066	415.0559183673469	79	127
414.5102494331066	415.9614965986394	52	127
414.5102494331066	415.0559183673469	67	127
415.9731065759637	416.3910657596372	35	127
415.9731065759637	416.3910657596372	47	127
416.40267573696144	416.8554648526077	33	127
416.40267573696144	416.8554648526077	45	127
416.867074829932	417.2966439909297	43	127
416.867074829932	417.2966439909297	31	127
417.30825396825395	417.71460317460316	42	127
417.30825396825395	417.71460317460316	30	127
417.7262131519274	417.9235827664399	31	127
417.7262131519274	417.9235827664399	43	127
417.9235827664399	418.1441723356009	28	127
417.9235827664399	418.1441723356009	40	127
418.1441723356009	418.5505215419501	40	127
418.1441723356009	418.3299319727891	66	127
418.1441723356009	418.5505215419501	28	127
418.22544217687073	418.44603174603174	78	127
418.3299319727891	418.5505215419501	66	127
418.44603174603174	418.6550113378685	78	127
418.5505215419501	419.8972789115646	27	127
418.5505215419501	418.75950113378684	66	127
418.5505215419501	419.8972789115646	39	127
418.6550113378685	418.8639909297052	78	127
418.75950113378684	418.9684807256236	66	127
418.8756009070295	419.07297052154195	78	127
418.98009070294785	419.1890702947846	66	127
419.0845804988662	419.29356009070295	78	127
419.20068027210885	419.3980498866213	66	127
419.3051700680272	419.5489795918367	78	127
419.4096598639456	419.66507936507935	72	127
419.560589569161	419.7695691609977	84	127
419.6766893424036	419.8972789115646	72	127
419.781179138322	420.001768707483	84	127
419.9088888888889	420.10625850340136	71	127
420.01337868480726	420.21074829931973	83	127
420.11786848072563	420.3152380952381	71	127
420.222358276644	420.442947845805	83	127
420.32684807256237	420.55904761904765	69	127
420.4545578231293	420.70997732426304	81	127
420.58226757369613	420.8260770975057	69	127
420.7215873015873	420.93056689342404	81	127
420.83768707482994	421.0350566893424	67	127
420.9421768707483	421.1395464852608	79	127
421.0466666666667	421.24403628117915	67	127
421.15115646258505	421.3601360544218	79	127
421.2556462585034	421.70843537414964	47	127
421.2556462585034	421.48784580498864	69	127
421.2556462585034	421.70843537414964	35	127
421.39496598639454	421.592335600907	81	127
421.4994557823129	421.70843537414964	66	127
421.6039455782313	421.70843537414964	78	127
421.7200453514739	422.09156462585037	45	127
421.7200453514739	422.09156462585037	33	127
421.7200453514739	421.9058049886621	67	127
421.8245351473923	421.987074829932	79	127
421.9058049886621	422.09156462585037	67	127
421.987074829932	422.18444444444447	79	127
422.09156462585037	422.52113378684805	31	127
422.09156462585037	422.3121541950113	67	127
422.09156462585037	422.52113378684805	43	127
422.18444444444447	422.4166439909297	79	127
422.3121541950113	422.52113378684805	67	127
422.4166439909297	422.64884353741496	79	127
422.52113378684805	422.9971428571429	30	127
422.52113378684805	422.77655328798187	67	127
422.52113378684805	422.9971428571429	42	127
422.64884353741496	422.8926530612245	79	127
422.77655328798187	422.9971428571429	67	127
422.9042630385488	423.1248526077097	79	127
423.00875283446715	423.2293424036281	43	127
423.00875283446715	423.2293424036281	31	127
423.00875283446715	423.2293424036281	72	127
423.136462585034	423.33383219954646	84	127
423.24095238095236	423.46154195011337	28	127
423.24095238095236	423.46154195011337	72	127
423.24095238095236	423.46154195011337	40	127
423.34544217687073	423.56603174603174	84	127
423.47315192743764	424.78507936507935	26	127
423.47315192743764	424.78507936507935	38	127
423.47315192743764	423.6821315192744	71	127
423.577641723356	423.78662131519275	83	127
423.69374149659865	423.9027210884354	71	127
423.798231292517	424.018820861678	83	127
423.91433106575965	424.1233106575964	69	127
424.0304308390023	424.23941043083903	81	127
424.13492063492066	424.3555102040816	69	127
424.25102040816324	424.46	81	127
424.3671201814059	424.56448979591835	67	127
424.47160997732425	424.680589569161	79	127
424.5760997732426	424.78507936507935	67	127
424.69219954648526	424.92439909297053	79	127
424.7966893424036	425.2726984126984	38	127
424.7966893424036	425.04049886621317	69	127
424.7966893424036	425.2726984126984	50	127
424.9360090702948	425.14498866213154	81	127
425.05210884353744	425.2726984126984	66	127
425.1565986394558	425.37718820861676	78	127
425.28430839002266	425.7138775510204	48	127
425.28430839002266	425.7138775510204	36	127
425.28430839002266	425.4816780045351	71	127
425.388798185941	425.5861678004535	83	127
425.4932879818594	425.7138775510204	71	127
425.60938775510203	425.8415873015873	83	127
425.7254875283447	426.1550566893424	35	127
425.7254875283447	425.9460770975057	71	127
425.7254875283447	426.1550566893424	47	127
425.8531972789116	426.05056689342405	83	127
425.9460770975057	426.1550566893424	71	127
426.05056689342405	426.2479365079365	83	127
426.1550566893424	426.3524263038549	71	127
426.1550566893424	426.5730158730159	45	127
426.1550566893424	426.5730158730159	33	127
426.2479365079365	426.45691609977325	83	127
426.3524263038549	426.5730158730159	71	127
426.45691609977325	426.68911564625853	83	127
426.5730158730159	426.8052154195011	76	127
426.5730158730159	426.8052154195011	35	127
426.5730158730159	426.8052154195011	47	127
426.68911564625853	426.89809523809527	88	127
426.8052154195011	427.0025850340136	43	127
426.8052154195011	427.0025850340136	31	127
426.8052154195011	427.0025850340136	76	127
426.9097052154195	427.10707482993195	88	127
427.01419501133785	428.72086167800455	42	127
427.01419501133785	428.72086167800455	30	127
427.01419501133785	427.2231746031746	74	127
427.1186848072562	427.3160544217687	86	127
427.23478458049885	427.42054421768705	74	127
427.32766439909295	427.5250340136054	86	127
427.4321541950113	427.6179138321995	73	127
427.5366439909297	427.7224036281179	85	127
427.6295238095238	427.87333333333333	73	127
427.7456235827664	427.9778231292517	85	127
427.8849433106576	428.0823129251701	71	127
427.989433106576	428.18680272108844	83	127
428.09392290249434	428.3029024943311	71	127
428.210022675737	428.40739229024945	83	127
428.31451247165535	428.5118820861678	73	127
428.4190022675737	428.6163718820862	85	127
428.5234920634921	428.72086167800455	70	127
428.62798185941045	428.72086167800455	82	127
428.7324716553288	429.1620408163265	35	127
428.7324716553288	429.1620408163265	47	127
428.7324716553288	428.8253514739229	86	127
428.7324716553288	428.8253514739229	74	127
428.8369614512472	428.96467120181404	76	127
428.9762811791383	429.0691609977324	74	127
429.0807709750567	429.1620408163265	73	127
429.62643990929706	430.09083900226756	47	127
429.62643990929706	430.09083900226756	35	127
429.75414965986397	429.84702947845807	78	127
429.84702947845807	429.95151927437644	76	127
429.95151927437644	430.09083900226756	75	127
430.09083900226756	430.1953287981859	77	127
430.1953287981859	430.2998185941043	73	127
430.2998185941043	430.40430839002266	74	127
430.40430839002266	430.5204081632653	73	127
430.5204081632653	430.9267573696145	33	127
430.5204081632653	430.9267573696145	45	127
430.62489795918367	430.72938775510204	80	127
430.72938775510204	430.82226757369614	78	127
430.8338775510204	430.9267573696145	77	127
430.9383673469388	431.0312471655329	78	127
431.04285714285714	431.13573696145124	73	127
431.1473469387755	431.26344671201815	74	127
431.2750566893424	431.3679365079365	73	127
431.3795464852608	431.832335600907	32	127
431.3795464852608	431.832335600907	44	127
431.48403628117916	431.6001360544218	81	127
431.611746031746	431.7046258503401	80	127
431.7162358276644	431.832335600907	78	127
431.8439455782313	431.9600453514739	80	127
431.9716553287982	432.07614512471656	73	127
432.08775510204083	432.18063492063493	74	127
432.1922448979592	432.2851247165533	73	127
432.29673469387757	432.7495238095238	30	127
432.29673469387757	432.7495238095238	42	127
432.40122448979594	432.5057142857143	83	127
432.5173242630386	432.63342403628116	81	127
432.6450340136054	432.7495238095238	80	127
432.76113378684806	432.85401360544216	81	127
432.86562358276643	432.95850340136053	78	127
432.9701133786848	433.0629931972789	80	127
433.07460317460317	433.16748299319727	78	127
433.1907029478458	433.6318820861678	68	127
433.1907029478458	433.6318820861678	66	127
433.330022675737	433.4229024943311	85	127
433.43451247165535	433.52739229024945	83	127
433.5390022675737	433.6318820861678	82	127
433.6434920634921	433.7363718820862	84	127
433.74798185941046	433.84086167800456	80	127
433.84086167800456	433.95696145124714	82	127
433.95696145124714	434.0614512471655	80	127
434.0614512471655	434.49102040816325	68	127
434.0614512471655	434.49102040816325	64	127
434.1659410430839	434.25882086167803	87	127
434.25882086167803	434.36331065759634	85	127
434.36331065759634	434.49102040816325	84	127
434.49102040816325	434.5955102040816	85	127
434.5955102040816	434.7	80	127
434.7	434.80448979591836	81	127
434.8160997732426	434.920589569161	80	127
434.93219954648526	435.4198185941043	63	127
434.93219954648526	435.4198185941043	66	127
434.93219954648526	435.4198185941043	68	127
435.08312925170065	435.187619047619	88	127
435.1992290249433	435.2921088435374	87	127
435.30371882086166	435.4198185941043	85	127
435.43142857142857	435.53591836734694	87	127
435.5475283446712	435.6520181405896	80	127
435.66362811791385	435.84938775510204	81	127
435.8609977324263	435.9538775510204	80	127
435.9654875283447	436.25573696145125	49	127
435.9654875283447	436.4066666666667	88	127
436.1048072562358	436.4066666666667	56	127
436.2673469387755	436.5808163265306	61	127
436.4182766439909	436.731746031746	64	127
436.5924263038549	436.90589569161	61	127
436.7433560090703	437.0800453514739	56	127
436.91750566893427	437.25419501133786	49	127
437.0916553287982	437.4167346938776	56	127
437.2658049886621	437.56766439909296	61	127
437.42834467120184	437.70698412698414	64	127
437.57927437641723	437.83469387755105	61	127
437.7185941043084	437.97401360544217	56	127
437.84630385487526	438.1017233560091	49	127
437.97401360544217	438.2874829931973	56	127
438.1017233560091	438.4384126984127	61	127
438.2874829931973	438.57773242630384	64	127
438.4384126984127	438.717052154195	61	127
438.57773242630384	438.8679818594104	56	127
438.717052154195	439.0073015873016	49	127
438.8679818594104	439.20467120181405	56	127
439.0421315192744	439.4136507936508	61	127
439.2162811791383	439.55297052154197	64	127
439.42526077097506	439.70390022675736	61	127
439.56458049886623	439.70390022675736	56	127
439.7155102040816	440.01736961451246	44	127
439.7155102040816	441.34090702947844	90	127
439.86643990929707	440.261179138322	56	127
440.02897959183673	440.51659863945576	63	127
440.28439909297055	440.6675283446712	66	127
440.52820861678003	440.8648979591837	63	127
440.7255782312925	441.0738775510204	56	127
440.87650793650795	441.21319727891154	44	127
441.0854875283447	441.34090702947844	56	127
441.2248072562358	441.46861678004535	63	127
441.3525170068027	441.60793650793653	66	127
441.3525170068027	441.7588662131519	93	127
441.4802267573696	441.7588662131519	63	127
441.6195464852608	441.8981859410431	56	127
441.7704761904762	442.0375056689342	44	127
441.7704761904762	442.22326530612247	92	127
441.90979591836737	442.22326530612247	56	127
442.0491156462585	442.3974149659864	63	127
442.2348752834467	442.60639455782314	66	127
442.2348752834467	442.7689342403628	90	127
442.3974149659864	442.7689342403628	63	127
442.60639455782314	442.9314739229025	56	127
442.7689342403628	443.0824036281179	44	127
442.7689342403628	443.23333333333335	88	127
442.9314739229025	443.23333333333335	56	127
443.0824036281179	443.38426303854874	63	127
443.23333333333335	443.45392290249436	90	127
443.23333333333335	443.51197278911565	66	127
443.38426303854874	443.6745124716553	63	127
443.45392290249436	443.6745124716553	87	127
443.5235827664399	443.6745124716553	56	127
443.6861224489796	444.1621315192744	90	127
443.6861224489796	444.01120181405895	49	127
443.8718820861678	444.1621315192744	56	127
444.0228117913832	444.27823129251703	61	127
444.17374149659867	445.46244897959184	88	127
444.17374149659867	444.41755102040815	64	127
444.28984126984125	444.5684807256236	61	127
444.4291609977324	444.7078004535147	56	127
444.58009070294787	444.8471201814059	49	127
444.719410430839	445.0212698412698	56	127
444.85873015873017	445.160589569161	61	127
445.0328798185941	445.3115192743764	64	127
445.1721995464853	445.46244897959184	61	127
445.32312925170066	445.7178684807256	56	127
445.4740589569161	445.8571882086168	49	127
445.4740589569161	445.7178684807256	85	127
445.72947845804987	445.8571882086168	87	127
445.72947845804987	445.99650793650795	56	127
445.86879818594105	446.1590476190476	61	127
445.86879818594105	445.99650793650795	85	127
446.0081179138322	446.30997732426306	64	127
446.0081179138322	446.1590476190476	84	127
446.1706575963719	446.30997732426306	85	127
446.1706575963719	446.4492970521542	61	127
446.32158730158733	446.4492970521542	87	127
446.32158730158733	446.6002267573696	56	127
446.46090702947845	446.55378684807255	88	127
446.46090702947845	446.77437641723355	49	127
446.5653968253968	446.6931065759637	90	127
446.6002267573696	446.925306122449	56	127
446.6931065759637	446.82081632653063	88	127
446.77437641723355	447.0646258503401	61	127
446.82081632653063	446.925306122449	87	127
446.925306122449	447.0646258503401	88	127
446.925306122449	447.21555555555557	64	127
447.0646258503401	447.21555555555557	90	127
447.0646258503401	447.40131519274377	61	127
447.21555555555557	447.40131519274377	92	127
447.21555555555557	447.40131519274377	56	127
447.40131519274377	447.54063492063494	86	127
447.40131519274377	447.6567346938775	54	127
447.54063492063494	447.6567346938775	88	127
447.54063492063494	447.81927437641724	57	127
447.6683446712018	447.97020408163263	62	127
447.6683446712018	447.81927437641724	86	127
447.8308843537415	448.1095238095238	54	127
447.8308843537415	447.97020408163263	85	127
447.9818140589569	448.26045351473925	57	127
447.9818140589569	448.1095238095238	86	127
448.13274376417235	448.4229931972789	62	127
448.13274376417235	448.26045351473925	88	127
448.27206349206347	448.5739229024943	54	127
448.27206349206347	448.37655328798184	90	127
448.3881632653061	448.4926530612245	91	127
448.4346031746032	448.7132426303855	57	127
448.515873015873	448.6087528344671	90	127
448.5855328798186	448.957052154195	62	127
448.6203628117914	448.7132426303855	88	127
448.72485260770975	449.1428117913832	54	127
448.72485260770975	448.957052154195	86	127
448.9686621315193	449.27052154195013	57	127
448.9686621315193	449.1428117913832	88	127
449.1544217687075	449.27052154195013	90	127
449.1544217687075	449.40984126984125	62	127
449.2821315192744	449.6072108843537	56	127
449.4214512471655	449.75814058956917	61	127
449.618820861678	449.9787301587302	64	127
449.76975056689344	450.1528798185941	56	127
449.76975056689344	449.9787301587302	88	127
450.0135600907029	450.1528798185941	91	127
450.0135600907029	450.31541950113376	61	127
450.16448979591837	450.4663492063492	64	127
450.16448979591837	450.31541950113376	92	127
450.32702947845803	450.6056689342404	54	127
450.48956916099775	450.76820861678004	56	127
450.61727891156465	450.942358276644	63	127
450.7798185941043	450.942358276644	87	127
450.7798185941043	451.1281179138322	54	127
450.942358276644	451.26743764172335	56	127
450.942358276644	451.1281179138322	91	127
451.1281179138322	451.26743764172335	92	127
451.1281179138322	451.4067573696145	63	127
451.26743764172335	451.604126984127	52	127
451.26743764172335	451.4067573696145	73	127
451.4067573696145	451.824716553288	56	127
451.4067573696145	451.604126984127	75	127
451.604126984127	451.98725623582766	61	127
451.604126984127	451.824716553288	73	127
451.824716553288	452.1033560090703	52	127
451.824716553288	451.98725623582766	72	127
451.98725623582766	452.26589569160996	56	127
451.98725623582766	452.1033560090703	73	127
452.11496598639457	452.4168253968254	61	127
452.11496598639457	452.26589569160996	75	127
452.2775056689342	452.4168253968254	76	127
452.2775056689342	452.57936507936506	52	127
452.4284353741497	452.7302947845805	56	127
452.4284353741497	452.57936507936506	78	127
452.59097505668933	452.7302947845805	76	127
452.59097505668933	452.89283446712017	61	127
452.7419047619048	452.89283446712017	75	127
452.7419047619048	453.0437641723356	52	127
452.90444444444444	453.0437641723356	76	127
452.90444444444444	453.18308390022673	56	127
453.0553741496599	453.34562358276645	61	127
453.0553741496599	453.18308390022673	78	127
453.194693877551	453.49655328798184	52	127
453.194693877551	453.34562358276645	80	127
453.3572335600907	453.635873015873	56	127
453.3572335600907	453.49655328798184	81	127
453.5081632653061	453.635873015873	80	127
453.5081632653061	453.81002267573695	61	127
453.65909297052156	453.98417233560093	52	127
453.65909297052156	453.81002267573695	79	127
453.8216326530612	453.98417233560093	80	127
453.8216326530612	454.1467120181406	56	127
454.0190022675737	454.3324716553288	61	127
454.0190022675737	454.1467120181406	81	127
454.15832199546486	454.3324716553288	82	127
454.15832199546486	454.5066213151927	52	127
454.34408163265306	454.5066213151927	83	127
454.34408163265306	454.6459410430839	56	127
454.518231292517	454.78526077097507	61	127
454.518231292517	454.6459410430839	84	127
454.65755102040816	454.75043083900226	85	127
454.65755102040816	454.9129705215419	52	127
454.76204081632653	454.85492063492063	84	127
454.79687074829934	455.06390022675737	56	127
454.8665306122449	454.94780045351473	85	127
454.9245804988662	455.1916099773243	61	127
454.959410430839	455.06390022675737	80	127
455.06390022675737	455.34253968253967	54	127
455.06390022675737	455.2728798185941	83	127
455.13356009070293	455.2728798185941	81	127
455.1916099773243	455.4934693877551	57	127
455.2728798185941	455.4934693877551	80	127
455.34253968253967	455.6908390022676	61	127
455.4934693877551	455.85337868480724	54	127
455.4934693877551	455.76049886621314	83	127
455.57473922902494	455.76049886621314	81	127
455.6908390022676	456.0043083900227	57	127
455.76049886621314	456.0043083900227	80	127
455.85337868480724	456.1784580498866	61	127
456.0043083900227	456.2481179138322	83	127
456.0043083900227	456.3061678004535	54	127
456.10879818594105	456.2481179138322	81	127
456.1784580498866	456.4454875283447	57	127
456.2481179138322	456.4454875283447	80	127
456.3177777777778	456.5848072562358	61	127
456.4570975056689	456.6544671201814	83	127
456.4570975056689	456.724126984127	54	127
456.52675736961453	456.6544671201814	81	127
456.5964172335601	456.8634467120181	57	127
456.66607709750565	456.8634467120181	80	127
456.73573696145127	456.8634467120181	61	127
456.88666666666666	457.33945578231294	81	127
456.88666666666666	457.33945578231294	61	127
456.88666666666666	457.33945578231294	57	127
456.88666666666666	457.33945578231294	69	127
456.88666666666666	457.33945578231294	78	127
456.88666666666666	457.33945578231294	54	127
456.88666666666666	457.33945578231294	73	127
458.8139229024943	459.0345124716553	71	127
458.9184126984127	459.0345124716553	69	127
459.0461224489796	459.2551020408163	68	127
459.2667120181406	459.47569160997733	71	127
459.3479818594104	459.47569160997733	69	127
459.4873015873016	459.7659410430839	68	127
459.77755102040817	460.0910204081633	71	127
459.8936507936508	460.0910204081633	69	127
460.0910204081633	460.32321995464855	68	127
460.33482993197276	460.56702947845804	71	127
460.41609977324265	460.56702947845804	69	127
460.5786394557823	460.8340589569161	68	127
460.84566893424034	461.3565079365079	69	127
462.81936507936507	463.7481632653061	54	127
463.7597732426304	464.7930612244898	61	127
464.8046712018141	465.77990929705214	59	127
464.8046712018141	465.77990929705214	66	127
464.8046712018141	465.77990929705214	62	127
464.8046712018141	465.77990929705214	78	127
465.7915192743764	466.8364172335601	57	127
465.7915192743764	466.8364172335601	85	127
465.7915192743764	466.8364172335601	73	127
465.7915192743764	466.8364172335601	49	127
465.7915192743764	466.8364172335601	61	127
466.8364172335601	467.81165532879817	49	127
466.8364172335601	467.81165532879817	89	127
466.8364172335601	467.81165532879817	59	127
466.8364172335601	467.81165532879817	56	127
466.8364172335601	467.81165532879817	77	127
467.82326530612244	468.7172335600907	78	127
467.82326530612244	468.7172335600907	49	127
467.82326530612244	468.7172335600907	54	127
467.82326530612244	468.7172335600907	57	127
467.82326530612244	468.7172335600907	90	127
470.84185941043086	471.8751473922903	50	127
471.8867573696145	472.88521541950115	57	127
472.8968253968254	473.9068934240363	62	127
472.8968253968254	473.9068934240363	74	127
472.8968253968254	473.9068934240363	59	127
472.8968253968254	473.9068934240363	55	127
473.9068934240363	474.88213151927437	57	127
473.9068934240363	474.88213151927437	81	127
473.9068934240363	474.88213151927437	54	127
473.9068934240363	474.88213151927437	69	127
474.9053514739229	475.9734693877551	85	127
474.9053514739229	475.9734693877551	73	127
474.9053514739229	475.9734693877551	52	127
474.9053514739229	475.9734693877551	55	127
474.9053514739229	475.9734693877551	45	127
475.98507936507934	477.0764172335601	50	127
475.98507936507934	477.0764172335601	86	127
475.98507936507934	477.0764172335601	74	127
475.98507936507934	477.0764172335601	54	127
475.98507936507934	477.0764172335601	45	127
477.0880272108844	479.29392290249433	45	127
477.0880272108844	479.29392290249433	52	127
477.0880272108844	479.29392290249433	88	127
477.0880272108844	479.29392290249433	76	127
477.0880272108844	479.29392290249433	49	127
479.3055328798186	481.55786848072563	50	127
479.3055328798186	481.55786848072563	90	127
479.3055328798186	481.55786848072563	78	127
479.3055328798186	481.55786848072563	42	127
479.3055328798186	481.55786848072563	47	127
481.5694784580499	483.8334240362812	85	127
481.5694784580499	483.8334240362812	40	127
481.5694784580499	483.8334240362812	49	127
481.5694784580499	483.8334240362812	45	127
481.5694784580499	483.8334240362812	73	127
483.84503401360547	486.0160997732426	40	127
483.84503401360547	483.96113378684805	88	127
483.84503401360547	486.0160997732426	44	127
483.84503401360547	486.0160997732426	47	127
483.9727437641723	484.05401360544215	87	127
484.0656235827664	484.1585034013605	88	127
484.1701133786848	484.35587301587304	87	127
484.36748299319726	484.46036281179136	88	127
484.46036281179136	484.5648526077097	87	127
484.576462585034	484.7041723356009	88	127
484.71578231292517	484.8434920634921	87	127
484.85510204081635	484.97120181405893	88	127
484.9828117913832	485.1105215419501	86	127
485.1105215419501	485.2498412698413	88	127
485.26145124716555	485.4356009070295	86	127
485.44721088435375	485.57492063492066	88	127
485.58653061224487	485.7026303854875	86	127
485.7142403628118	485.8651700680272	88	127
485.8767800453515	486.0160997732426	86	127
486.0277097505669	486.5153287981859	33	127
486.0277097505669	486.17863945578233	85	127
486.0277097505669	486.5153287981859	45	127
486.17863945578233	486.31795918367345	88	127
486.31795918367345	486.5153287981859	86	127
486.5269387755102	486.66625850340137	85	127
486.7010884353742	486.86362811791383	83	127
486.8752380952381	487.0145578231292	81	127
487.0261678004535	487.16548752834467	80	127
487.1887074829932	487.3396371882086	78	127
487.35124716553287	487.49056689342405	76	127
487.49056689342405	487.6531065759637	74	127
487.664716553288	487.8156462585034	73	127
487.8272562358277	487.9665759637188	71	127
487.9665759637188	488.11750566893426	69	127
488.1291156462585	488.2568253968254	68	127
488.26843537414965	488.4077551020408	69	127
488.4193650793651	488.5586848072562	70	127
488.5702947845805	488.70961451247166	71	127
488.72122448979593	488.84893424036284	72	127
488.86054421768705	489.0114739229025	73	127
489.0114739229025	489.1507936507937	74	127
489.1856235827664	489.31333333333333	75	127
489.3249433106576	489.4642630385488	76	127
489.4642630385488	489.6035827664399	73	127
489.61519274376417	489.7429024943311	71	127
489.75451247165535	489.9518820861678	70	127
489.9518820861678	490.09120181405893	79	127
490.1028117913832	490.34662131519275	78	127
490.358231292517	490.4859410430839	71	127
490.49755102040814	490.62526077097505	79	127
490.6368707482993	490.799410430839	78	127
490.81102040816324	490.9619501133787	73	127
490.9967800453515	491.1360997732426	79	127
491.1360997732426	491.2754195011338	78	127
491.28702947845807	491.4147392290249	77	127
491.4263492063492	491.56566893424036	78	127
491.56566893424036	491.72820861678	86	127
491.7398185941043	491.8675283446712	75	127
491.87913832199547	492.01845804988665	84	127
492.03006802721086	492.16938775510204	83	127
492.1809977324263	492.35514739229023	84	127
492.3667573696145	492.4944671201814	74	127
492.51768707482995	492.65700680272107	78	127
492.65700680272107	492.784716553288	76	127
492.8079365079365	493.005306122449	83	127
493.01691609977325	493.16784580498864	80	127
493.16784580498864	493.5974149659864	52	127
493.16784580498864	493.29555555555555	74	127
493.3071655328798	493.42326530612246	80	127
493.43487528344673	493.5974149659864	74	127
493.5974149659864	494.0385941043084	57	127
493.5974149659864	493.7599546485261	73	127
493.7715646258503	493.8992743764172	83	127
493.9108843537415	494.0385941043084	81	127
494.05020408163267	494.4913832199546	54	127
494.05020408163267	494.21274376417233	80	127
494.2243537414966	494.3636734693878	83	127
494.37528344671205	494.4913832199546	81	127
494.5029931972789	495.02544217687074	49	127
494.5029931972789	494.6771428571429	80	127
494.6771428571429	494.8861224489796	83	127
494.89773242630383	495.02544217687074	81	127
495.037052154195	495.1647619047619	80	127
495.037052154195	495.5130612244898	51	127
495.1647619047619	495.33891156462585	83	127
495.3505215419501	495.5130612244898	81	127
495.52467120181404	495.7568707482993	52	127
495.52467120181404	495.68721088435376	80	127
495.68721088435376	495.8033106575964	83	127
495.8149206349206	495.93102040816325	80	127
495.9426303854875	496.0819501133787	76	127
496.09356009070297	496.2560997732426	80	127
496.2560997732426	496.40702947845807	76	127
496.41863945578234	496.55795918367346	75	127
496.56956916099773	496.7088888888889	76	127
496.7088888888889	496.87142857142857	75	127
496.88303854875284	497.01074829931974	74	127
496.88303854875284	497.01074829931974	62	127
497.022358276644	497.19650793650794	64	127
497.022358276644	497.19650793650794	76	127
497.19650793650794	497.3358276643991	62	127
497.19650793650794	497.3358276643991	74	127
497.34743764172333	497.64929705215417	73	127
497.34743764172333	497.64929705215417	61	127
497.4983673469388	497.82344671201815	76	127
497.4983673469388	497.82344671201815	64	127
497.66090702947844	497.9627664399093	73	127
497.66090702947844	497.9627664399093	61	127
497.82344671201815	498.10208616780045	62	127
497.82344671201815	498.10208616780045	74	127
497.97437641723354	498.2530158730159	76	127
497.97437641723354	498.2530158730159	64	127
498.125306122449	498.392335600907	74	127
498.125306122449	498.392335600907	62	127
498.2530158730159	498.55487528344673	61	127
498.2530158730159	498.55487528344673	73	127
498.392335600907	498.7058049886621	76	127
498.392335600907	498.7058049886621	64	127
498.566485260771	498.85673469387757	73	127
498.566485260771	498.85673469387757	61	127
498.7058049886621	499.00766439909296	57	127
498.7058049886621	499.00766439909296	69	127
498.86834467120184	499.14698412698414	64	127
498.86834467120184	499.14698412698414	76	127
499.01927437641723	499.28630385487526	69	127
499.01927437641723	499.28630385487526	57	127
499.14698412698414	499.448843537415	56	127
499.14698412698414	499.448843537415	68	127
499.2979138321995	499.58816326530615	59	127
499.2979138321995	499.58816326530615	71	127
499.46045351473924	499.73909297052154	68	127
499.46045351473924	499.73909297052154	56	127
499.59977324263036	499.8784126984127	64	127
499.59977324263036	499.8784126984127	52	127
499.73909297052154	500.0293424036281	68	127
499.73909297052154	500.0293424036281	56	127
499.890022675737	500.20349206349204	64	127
499.890022675737	500.20349206349204	52	127
500.05256235827665	500.3544217687075	51	127
500.05256235827665	500.3544217687075	63	127
500.20349206349204	500.49374149659866	64	127
500.20349206349204	500.49374149659866	52	127
500.36603174603175	500.6330612244898	51	127
500.36603174603175	500.6330612244898	63	127
500.50535147392293	500.8768707482993	62	127
500.50535147392293	500.8768707482993	50	127
500.6330612244898	501.0161904761905	64	127
500.6330612244898	501.0161904761905	52	127
500.8884807256236	501.1671201814059	50	127
500.8884807256236	501.1671201814059	62	127
501.0278004535147	501.31804988662134	61	127
501.0278004535147	501.31804988662134	49	127
501.17873015873016	501.45736961451246	52	127
501.17873015873016	501.45736961451246	64	127
501.32965986394555	501.63151927437644	61	127
501.32965986394555	501.63151927437644	49	127
501.50380952380954	501.77083900226756	50	127
501.50380952380954	501.77083900226756	62	127
501.64312925170066	501.91015873015874	64	127
501.64312925170066	501.91015873015874	52	127
501.77083900226756	502.0726984126984	62	127
501.77083900226756	502.0726984126984	50	127
501.921768707483	502.2468480725624	61	127
501.921768707483	502.2468480725624	49	127
502.08430839002267	502.3861678004535	64	127
502.08430839002267	502.3861678004535	52	127
502.2468480725624	502.5254875283447	61	127
502.2468480725624	502.5254875283447	49	127
502.3977777777778	502.6764172335601	45	127
502.3977777777778	502.6764172335601	57	127
502.53709750566895	502.81573696145125	61	127
502.53709750566895	502.81573696145125	49	127
502.6764172335601	502.9550566893424	52	127
502.6764172335601	502.9550566893424	64	127
502.8273469387755	503.1175963718821	56	127
502.96666666666664	503.34979591836736	47	127
502.96666666666664	503.34979591836736	59	127
503.12920634920636	503.4891156462585	52	127
503.12920634920636	503.4891156462585	64	127
503.36140589569163	503.68648526077095	49	127
503.36140589569163	503.68648526077095	61	127
503.50072562358275	503.8374149659864	64	127
503.50072562358275	503.8374149659864	52	127
503.6980952380952	504.03478458049887	57	127
503.6980952380952	504.03478458049887	69	127
503.8374149659864	504.17410430839004	56	127
503.8374149659864	504.17410430839004	68	127
504.04639455782313	504.3366439909297	61	127
504.04639455782313	504.3366439909297	73	127
504.1857142857143	504.45274376417234	64	127
504.1857142857143	504.45274376417234	76	127
504.3366439909297	504.5920634920635	73	127
504.3366439909297	504.5920634920635	61	127
504.4643537414966	504.71977324263037	64	127
504.4643537414966	504.71977324263037	76	127
504.60367346938773	504.9287528344671	69	127
504.60367346938773	504.9287528344671	81	127
504.73138321995464	505.07968253968255	80	127
504.73138321995464	505.07968253968255	68	127
504.9403628117914	505.21900226757367	83	127
504.9403628117914	505.21900226757367	71	127
505.0912925170068	505.3815419501134	76	127
505.0912925170068	505.3815419501134	88	127
505.23061224489794	505.5208616780045	81	127
505.23061224489794	505.5208616780045	69	127
505.3815419501134	505.6601814058957	73	127
505.3815419501134	505.6601814058957	85	127
505.5324716553288	505.81111111111113	76	127
505.5324716553288	505.81111111111113	88	127
505.67179138321995	505.98526077097506	68	127
505.67179138321995	505.98526077097506	80	127
505.8227210884354	506.1478004535147	71	127
505.8227210884354	506.1478004535147	83	127
505.99687074829933	506.3451700680272	88	127
505.99687074829933	506.3451700680272	76	127
506.159410430839	506.5193197278912	69	127
506.159410430839	506.5193197278912	81	127
506.35678004535146	506.68185941043083	73	127
506.35678004535146	506.68185941043083	85	127
506.53092970521544	506.80956916099774	76	127
506.53092970521544	506.80956916099774	88	127
506.821179138322	507.93573696145125	64	127
506.821179138322	507.93573696145125	68	127
506.821179138322	507.93573696145125	83	127
506.821179138322	507.93573696145125	80	127
506.821179138322	507.93573696145125	71	127
506.821179138322	507.93573696145125	76	127
506.821179138322	507.93573696145125	88	127
517.2004988662131	517.4907482993198	57	127
517.2004988662131	518.0480272108844	69	127
517.3514058956916	517.6532879818594	60	127
517.4907482993198	517.769387755102	64	127
517.6532879818594	517.9087074829932	57	127
517.769387755102	518.0480272108844	60	127
517.9087074829932	518.1757369614512	64	127
518.0480272108844	518.3150566893424	57	127
518.0480272108844	518.2453968253968	76	127
518.1873469387755	518.4892063492064	60	127
518.2570068027211	518.4892063492064	74	127
518.3266666666667	518.6285260770975	64	127
518.3614739229025	518.5936961451247	76	127
518.5008163265306	518.8955555555556	77	127
518.5008163265306	518.7562358276645	57	127
518.6401360544218	518.8955555555556	62	127
518.7678231292517	519.0348752834467	65	127
518.9071655328798	519.1045351473923	76	127
518.9071655328798	519.1393650793651	57	127
519.046485260771	519.2322448979592	60	127
519.1045351473923	519.2322448979592	71	127
519.1509750566894	519.3715646258504	64	127
519.1625850340137	519.3367346938776	72	127
519.2438548752834	519.5108843537415	50	127
519.2438548752834	519.6618140589569	74	127
519.3831519274377	519.6618140589569	53	127
519.5224943310658	519.8243537414966	59	127
519.6734240362812	519.8940136054422	72	127
519.6734240362812	519.9636734693878	52	127
519.8359637188208	520.1029931972789	57	127
519.9056235827665	520.1029931972789	68	127
519.9752834467121	520.2307029478458	60	127
520.0100907029479	520.1958503401361	69	127
520.1146031746032	520.5209523809524	71	127
520.1146031746032	520.370022675737	52	127
520.24231292517	520.5209523809524	56	127
520.3816326530613	520.5209523809524	59	127
520.5325623582767	520.7531519274377	57	127
520.5325623582767	521.74	45	127
520.6602721088435	520.8924716553288	60	127
520.7647619047619	521.0201587301588	64	127
520.8924716553288	521.1478911564626	57	127
521.0201587301588	521.3220408163265	60	127
521.1478911564626	521.4613605442177	64	127
521.3220408163265	521.6122902494332	57	127
521.4613605442177	521.74	60	127
521.6122902494332	521.8677097505669	64	127
521.74	522.0186394557824	57	127
521.74	522.1579591836735	38	127
521.8793197278911	522.1579591836735	62	127
522.0302494331066	522.2856689342403	65	127
522.1695691609978	522.4365986394558	57	127
522.1695691609978	522.5875283446712	45	127
522.2972789115646	522.5875283446712	60	127
522.4481859410431	522.7500680272109	64	127
522.5991383219955	523.0054875283447	40	127
522.5991383219955	522.8661451247166	56	127
522.7616780045352	523.0054875283447	59	127
522.8777777777777	523.1448072562358	64	127
523.017097505669	523.2724943310658	57	127
523.017097505669	523.4350566893424	45	127
523.1564172335601	523.4350566893424	60	127
523.2841269841269	523.6208163265306	64	127
523.4698639455783	523.771746031746	52	127
523.4698639455783	523.9110657596372	41	127
523.6324263038549	523.9110657596372	57	127
523.7833560090703	523.9110657596372	64	127
523.9226757369614	524.1780952380952	56	127
523.9226757369614	524.3057823129252	40	127
524.0619954648527	524.3057823129252	59	127
524.1897052154195	524.4451247165533	62	127
524.3174149659864	524.5728344671202	65	127
524.4567346938776	524.7121315192744	64	127
524.5844444444444	524.8398639455783	62	127
524.7121315192744	525.1301133786848	52	127
524.7121315192744	524.9791836734694	60	127
524.7121315192744	525.1301133786848	40	127
524.8398639455783	525.1301133786848	64	127
524.9791836734694	525.2810430839003	69	127
525.1301133786848	525.4203628117914	72	127
525.2810430839003	525.5596825396825	71	127
525.4203628117914	525.5596825396825	69	127
525.5596825396825	526.0124716553288	40	127
525.5596825396825	525.8615419501134	68	127
525.5596825396825	526.0124716553288	52	127
525.7338095238096	526.0124716553288	71	127
525.8731519274377	526.1401587301588	74	127
526.0240816326531	526.2795011337869	77	127
526.1517913832199	526.3839909297052	76	127
526.2911111111111	526.5348979591837	74	127
526.3956009070295	526.8019501133787	40	127
526.3956009070295	526.6626303854875	72	127
526.3956009070295	526.8019501133787	52	127
526.546507936508	526.8019501133787	76	127
526.6742403628118	526.9180498866214	81	127
526.8135600907029	527.0457596371882	84	127
526.9296598639456	527.1850793650793	83	127
527.0573696145125	527.1850793650793	81	127
527.1966893424036	527.6146485260771	40	127
527.1966893424036	527.6146485260771	52	127
527.1966893424036	527.4637188208617	80	127
527.3360090702948	527.6146485260771	83	127
527.475328798186	527.7539682539683	74	127
527.6262585034013	527.8932879818594	65	127
527.6262585034013	527.8932879818594	77	127
527.7655555555556	528.0326077097506	76	127
527.7655555555556	528.0326077097506	64	127
527.9048979591837	528.1603174603175	62	127
527.9048979591837	528.1603174603175	74	127
528.0442176870748	528.2880272108844	60	127
528.0442176870748	528.2880272108844	72	127
528.1719047619048	528.450566893424	76	127
528.1719047619048	528.450566893424	64	127
528.2996371882086	528.6014965986394	69	127
528.2996371882086	528.6014965986394	57	127
528.450566893424	528.7408163265306	72	127
528.450566893424	528.7408163265306	60	127
528.6014965986394	528.8685260770975	59	127
528.6014965986394	528.8685260770975	71	127
528.7408163265306	528.8685260770975	57	127
528.7408163265306	528.8685260770975	69	127
528.8685260770975	529.0891156462585	56	127
528.8685260770975	529.0891156462585	68	127
528.9962131519275	529.2051927437642	71	127
528.9962131519275	529.2051927437642	59	127
529.0891156462585	529.3445351473923	50	127
529.0891156462585	529.3445351473923	62	127
529.2051927437642	529.4838548752834	65	127
529.2051927437642	529.4838548752834	53	127
529.3561451247166	529.6115419501134	64	127
529.3561451247166	529.6115419501134	52	127
529.4954648526077	529.7741043083901	62	127
529.4954648526077	529.7741043083901	50	127
529.6231746031746	529.948253968254	48	127
529.6231746031746	529.948253968254	60	127
529.7857142857143	530.0643537414966	52	127
529.7857142857143	530.0643537414966	64	127
529.9598639455783	530.2036734693878	57	127
529.9598639455783	530.2036734693878	45	127
530.0759637188208	530.3546031746032	48	127
530.0759637188208	530.3546031746032	60	127
530.2152607709751	530.48231292517	47	127
530.2152607709751	530.48231292517	59	127
530.3662131519275	530.48231292517	57	127
530.3662131519275	530.48231292517	45	127
530.4939229024943	530.610022675737	52	127
530.4939229024943	530.610022675737	40	127
530.6216099773243	530.7493424036281	53	127
530.6216099773243	530.7493424036281	41	127
530.7609523809524	530.9118820861678	52	127
530.7609523809524	530.9118820861678	40	127
530.9234920634921	531.051179138322	51	127
530.9234920634921	531.051179138322	39	127
531.0628117913832	531.2021315192744	40	127
531.0628117913832	531.2021315192744	52	127
531.2137414965987	531.3298412698413	51	127
531.2137414965987	531.3298412698413	39	127
531.3414512471655	531.4807709750567	40	127
531.3414512471655	531.4807709750567	52	127
531.4923809523809	531.6200907029479	41	127
531.4923809523809	531.6200907029479	53	127
531.6317006802722	531.7478004535147	40	127
531.6317006802722	531.7478004535147	52	127
531.759410430839	531.8755102040816	39	127
531.759410430839	531.8755102040816	51	127
531.8871201814059	532.0264399092971	40	127
531.8871201814059	532.0264399092971	52	127
532.0380498866214	532.200589569161	39	127
532.0380498866214	532.200589569161	51	127
532.200589569161	532.641768707483	52	127
532.200589569161	532.641768707483	40	127
534.3832653061224	534.847664399093	76	127
534.847664399093	535.3468707482994	76	127
535.3585034013605	535.8577324263039	76	127
535.8693424036281	536.8213605442177	76	127
536.8213605442177	537.6804988662132	73	127
537.6921088435374	539.0620861678004	69	127
537.6921088435374	538.597664399093	88	127
538.6092743764173	539.6077551020409	85	127
539.0736961451247	539.6077551020409	64	127
539.6193424036281	540.0489115646259	81	127
539.6193424036281	540.0489115646259	61	127
540.060544217687	540.4785034013605	76	127
540.060544217687	540.4785034013605	61	127
540.4901133786848	540.9312925170068	73	127
540.4901133786848	540.9312925170068	57	127
540.9545124716553	541.3956916099773	61	127
540.9545124716553	541.3956916099773	76	127
541.4073015873016	542.8585487528345	74	127
541.4073015873016	541.8949206349206	64	127
541.4073015873016	542.8585487528345	71	127
541.8949206349206	542.3709297052154	52	127
542.3709297052154	542.8585487528345	64	127
543.3809977324263	544.1704761904762	74	127
544.1820861678004	545.0180045351474	71	127
545.0180045351474	545.9932426303855	86	127
545.0180045351474	545.5172335600907	68	127
545.5172335600907	545.9932426303855	64	127
545.9932426303855	547.2703401360544	83	127
545.9932426303855	546.4460317460317	62	127
546.457641723356	546.8407709750567	59	127
546.8523809523809	547.2703401360544	56	127
547.2819501133787	547.7115192743764	71	127
547.2819501133787	547.7115192743764	56	127
547.7231292517007	548.2339682539682	68	127
547.7231292517007	548.2339682539682	52	127
548.2455782312925	548.7215873015873	71	127
548.2455782312925	548.7215873015873	56	127
548.7331972789116	549.7432653061225	71	127
548.7331972789116	549.7432653061225	64	127
548.7331972789116	549.2092063492064	57	127
549.2208163265307	549.7432653061225	52	127
549.7548752834467	550.1960544217687	57	127
549.7548752834467	549.9638548752835	64	127
549.7548752834467	549.9638548752835	69	127
549.9754648526077	550.1960544217687	69	127
550.207664399093	550.4050340136055	71	127
550.4166439909297	550.6372335600907	73	127
550.6372335600907	550.8578231292518	74	127
550.6372335600907	551.4963492063492	62	127
550.869410430839	551.0667800453515	69	127
551.0667800453515	551.2757596371882	74	127
551.2873696145125	551.4963492063492	72	127
551.5079818594104	551.7634013605442	73	127
551.5079818594104	552.4367800453515	57	127
551.7750113378685	551.9839909297052	69	127
551.9956009070295	552.2045804988662	71	127
552.2161904761905	552.4367800453515	73	127
552.4483900226758	553.3539682539682	62	127
552.4483900226758	552.680589569161	74	127
552.6921995464853	552.901179138322	69	127
552.9127664399093	553.1333560090703	74	127
553.1333560090703	553.3539682539682	72	127
553.3655782312925	553.5861678004535	73	127
553.3655782312925	554.2827664399093	57	127
553.5861678004535	553.8183673469388	69	127
553.829977324263	554.0621768707483	71	127
554.0621768707483	554.2827664399093	73	127
554.2943764172336	554.5033560090703	74	127
554.2943764172336	554.7239455782313	62	127
554.5149659863946	554.7239455782313	69	127
554.7355555555556	555.1419047619048	57	127
554.7355555555556	554.9213151927438	73	127
554.9329251700681	555.1419047619048	69	127
555.1535147392291	555.3508843537415	71	127
555.1535147392291	555.5830612244898	56	127
555.3624716553288	555.5830612244898	64	127
555.5830612244898	555.8036734693877	69	127
555.5830612244898	556.0590929705215	57	127
555.815283446712	556.0590929705215	64	127
556.0590929705215	556.3029024943311	68	127
556.0590929705215	556.9994784580499	52	127
556.3145124716553	556.5351020408164	64	127
556.5351020408164	556.7440816326531	68	127
556.7556916099774	556.9994784580499	64	127
557.0343310657596	557.2665306122449	66	127
557.0343310657596	557.9631292517007	47	127
557.0343310657596	557.2665306122449	69	127
557.3013605442177	557.5451700680272	63	127
557.5567800453515	557.7889795918368	69	127
557.5567800453515	557.7889795918368	66	127
557.800589569161	557.9631292517007	63	127
557.974739229025	558.3578684807256	40	127
557.974739229025	558.3578684807256	64	127
557.974739229025	558.3578684807256	68	127
560.0529251700681	560.2967346938775	57	127
560.3083446712018	560.4824716553288	59	127
560.4940816326531	560.714693877551	45	127
560.4940816326531	560.714693877551	61	127
560.714693877551	560.935283446712	62	127
560.714693877551	560.935283446712	47	127
560.9468934240363	561.1674829931973	49	127
560.9468934240363	561.1674829931973	64	127
561.1674829931973	561.4693424036282	50	127
561.1674829931973	561.4693424036282	66	127
561.4809523809524	561.6783219954649	52	127
561.4809523809524	561.6783219954649	68	127
561.6899319727892	561.8756916099774	54	127
561.6899319727892	561.8756916099774	69	127
561.8873015873016	562.0846712018141	56	127
561.8873015873016	562.0846712018141	71	127
562.0962811791384	562.3168480725624	73	127
562.0962811791384	562.3168480725624	57	127
562.3284580498866	562.5258276643991	74	127
562.3284580498866	562.5258276643991	59	127
562.5374376417234	562.7348072562359	76	127
562.5374376417234	562.7348072562359	61	127
562.7464172335601	562.9437868480726	78	127
562.7464172335601	562.9437868480726	62	127
562.9554195011337	563.1760090702948	80	127
562.9554195011337	563.1760090702948	64	127
563.1760090702948	563.3733786848072	66	127
563.1760090702948	563.3733786848072	81	127
563.3965986394558	563.628798185941	68	127
563.3965986394558	563.628798185941	83	127
563.628798185941	563.8377777777778	85	127
563.628798185941	563.8377777777778	69	127
563.849387755102	564.0815873015873	86	127
563.849387755102	564.0815873015873	71	127
564.0815873015873	564.2789569160998	87	127
564.0815873015873	564.2789569160998	72	127
564.290566893424	564.5227664399093	88	127
564.290566893424	564.5227664399093	73	127
564.5343764172336	564.7897732426304	72	127
564.5343764172336	564.7897732426304	87	127
564.8014058956916	564.9755328798186	88	127
564.8014058956916	564.9755328798186	73	127
564.9871428571429	565.219365079365	85	127
564.9871428571429	565.219365079365	76	127
565.2309750566893	565.3934920634921	81	127
565.2309750566893	565.4980045351474	73	127
565.2774149659864	565.4515646258503	80	127
565.4051247165532	565.4980045351474	81	127
565.4515646258503	565.6257142857143	83	127
565.5096145124717	567.11179138322	71	127
565.5096145124717	567.11179138322	74	127
565.5096145124717	566.5661224489796	81	127
566.5777324263039	567.11179138322	80	127
567.5413605442177	567.7503401360544	52	127
567.5413605442177	567.7503401360544	64	127
567.7619501133787	567.9709297052154	54	127
567.7619501133787	567.9709297052154	66	127
567.9825396825397	568.2031292517007	40	127
567.9825396825397	568.2031292517007	56	127
567.9825396825397	568.2031292517007	68	127
568.214739229025	568.435328798186	42	127
568.214739229025	568.435328798186	69	127
568.214739229025	568.435328798186	57	127
568.4469160997733	568.6326984126985	71	127
568.4469160997733	568.6326984126985	44	127
568.4469160997733	568.6326984126985	59	127
568.6443083900227	568.876485260771	73	127
568.6443083900227	568.876485260771	61	127
568.6443083900227	568.876485260771	45	127
568.876485260771	569.0854875283446	62	127
568.876485260771	569.0854875283446	74	127
568.876485260771	569.0854875283446	47	127
569.0970975056689	569.3176870748299	49	127
569.0970975056689	569.3176870748299	76	127
569.0970975056689	569.3176870748299	64	127
569.3176870748299	569.5266666666666	50	127
569.3176870748299	569.5266666666666	66	127
569.3176870748299	569.5266666666666	78	127
569.5382766439909	569.7356462585034	68	127
569.5382766439909	569.7356462585034	52	127
569.5382766439909	569.7356462585034	80	127
569.7472562358276	569.9330158730158	81	127
569.7472562358276	569.9330158730158	54	127
569.7472562358276	569.9330158730158	69	127
569.9446258503401	570.1419954648526	56	127
569.9446258503401	570.1419954648526	71	127
569.9446258503401	570.1419954648526	83	127
570.1536054421769	570.3625850340136	73	127
570.1536054421769	570.3625850340136	57	127
570.1536054421769	570.3625850340136	85	127
570.3741950113379	570.5715646258503	86	127
570.3741950113379	570.5715646258503	74	127
570.3741950113379	570.5715646258503	59	127
570.5831746031746	570.7921541950113	76	127
570.5831746031746	570.7921541950113	88	127
570.5831746031746	570.7921541950113	61	127
570.8037641723356	571.0591836734694	90	127
570.8037641723356	571.0591836734694	78	127
570.8037641723356	571.0591836734694	62	127
571.0707936507937	571.2913832199547	64	127
571.0707936507937	571.2913832199547	92	127
571.0707936507937	571.2913832199547	80	127
571.2913832199547	571.5119727891157	93	127
571.2913832199547	571.5119727891157	81	127
571.2913832199547	571.5119727891157	66	127
571.523560090703	571.7441723356009	83	127
571.523560090703	571.7441723356009	68	127
571.7441723356009	571.9763718820861	69	127
571.7441723356009	571.9763718820861	85	127
571.9995918367347	572.1969614512471	71	127
571.9995918367347	572.1969614512471	86	127
572.1969614512471	572.4175510204082	73	127
572.1969614512471	572.4175510204082	83	127
572.4291609977324	572.6265306122449	80	127
572.4291609977324	572.6265306122449	74	127
572.6381405895692	572.7658276643991	76	127
572.6381405895692	572.893560090703	68	127
572.719410430839	572.8239002267574	73	127
572.7658276643991	572.893560090703	74	127
572.8355102040816	572.9631972789116	76	127
572.9051700680272	573.381179138322	71	127
572.9051700680272	573.7991383219954	74	127
573.3927891156462	573.7991383219954	68	127
573.7991383219954	574.3448072562359	69	127
573.7991383219954	574.0661678004535	73	127
574.1009977324263	574.3448072562359	76	127
574.3448072562359	574.5537868480726	81	127
574.5770068027211	574.8440362811791	80	127
574.8440362811791	575.7147845804989	78	127
574.8440362811791	575.7147845804989	50	127
574.8440362811791	575.7147845804989	57	127
575.7263945578231	576.6668027210884	45	127
575.7263945578231	576.6668027210884	57	127
575.7263945578231	575.9585941043084	76	127
575.9702040816327	576.0979138321995	76	127
576.0514739229025	576.1791836734694	78	127
576.1095238095238	576.2372108843538	76	127
576.1791836734694	576.295283446712	78	127
576.2488435374149	576.4578231292517	81	127
576.4694331065759	576.6668027210884	80	127
576.6784126984127	577.5027210884354	78	127
576.6784126984127	577.5027210884354	57	127
576.6784126984127	577.5027210884354	50	127
577.5143310657596	578.4431292517007	57	127
577.5143310657596	578.4431292517007	45	127
577.5143310657596	577.7117006802721	76	127
577.7233106575964	577.839410430839	76	127
577.792970521542	577.885850340136	78	127
577.839410430839	577.9439002267574	76	127
577.8974603174603	578.0019501133787	78	127
577.9555102040816	578.1877097505669	81	127
578.1993197278912	578.4431292517007	80	127
578.454739229025	578.9307482993197	62	127
578.454739229025	578.7101587301587	78	127
578.721768707483	578.9307482993197	74	127
578.942358276644	579.1165079365079	78	127
578.942358276644	579.3603174603174	58	127
579.1281179138322	579.3603174603174	76	127
579.3603174603174	579.8363265306123	59	127
579.3603174603174	579.6157369614513	74	127
579.8363265306123	580.3123129251701	54	127
580.3123129251701	580.7883446712018	56	127
580.5445351473923	580.7883446712018	68	127
580.7999546485261	581.1830839002267	51	127
580.7999546485261	581.0089342403628	71	127
581.0205442176871	581.1830839002267	69	127
581.194693877551	581.6010430839002	52	127
581.194693877551	581.4036734693877	68	127
581.6126530612245	582.1002721088436	48	127
582.1234920634921	582.5878911564625	49	127
582.3672789115647	582.5878911564625	73	127
582.5995011337868	583.0522902494331	44	127
582.5995011337868	582.8433106575964	76	127
582.8433106575964	583.0522902494331	74	127
583.0639002267574	583.2960997732426	73	127
583.0639002267574	583.5166893424037	45	127
583.3077097505669	583.5166893424037	69	127
583.5282993197279	583.9694784580499	38	127
583.5282993197279	583.7372789115647	74	127
583.7488888888889	583.9694784580499	71	127
583.9810884353742	584.4222675736961	40	127
584.4338775510204	584.8866666666667	64	127
584.4338775510204	584.8866666666667	69	127
584.4338775510204	584.8866666666667	61	127
584.8866666666667	585.3975056689343	40	127
584.8866666666667	585.3975056689343	52	127
585.4207029478458	586.001224489796	64	127
585.4207029478458	586.001224489796	62	127
585.4207029478458	586.001224489796	68	127
586.0128344671202	586.5004535147392	61	127
586.0128344671202	586.5004535147392	69	127
586.0128344671202	586.5004535147392	64	127
586.0128344671202	586.3030839002267	33	127
586.1637641723356	586.5004535147392	37	127
586.314693877551	586.709433106576	40	127
586.5120634920635	586.7790929705216	45	127
586.5120634920635	587.4060317460318	69	127
586.6513605442177	586.8951927437641	49	127
586.7907029478458	586.9880725623583	52	127
586.9068027210884	587.1041723356009	57	127
586.9996825396826	587.2666893424037	49	127
587.150612244898	587.4060317460318	52	127
587.2782993197279	587.5453514739229	57	127
587.417641723356	587.5105215419501	71	127
587.417641723356	587.6962811791383	52	127
587.4640589569161	587.5685714285714	73	127
587.5221315192744	587.6150113378685	71	127
587.5569614512472	587.8820181405896	56	127
587.5685714285714	587.6846485260771	73	127
587.6266213151928	587.7891609977324	71	127
587.7195011337868	587.8820181405896	69	127
587.8007709750567	587.9400907029478	71	127
587.8936281179139	588.1722902494331	52	127
587.8936281179139	588.3116099773242	73	127
588.0213605442177	588.3116099773242	57	127
588.1839002267574	588.4277097505669	61	127
588.3232199546485	588.5786394557823	49	127
588.3232199546485	589.2171882086168	69	127
588.4393197278912	588.7527891156462	52	127
588.5902494331066	588.8921088435375	57	127
588.7643990929705	589.0546485260771	49	127
588.9036961451247	589.2171882086168	52	127
589.0662585034014	589.3797278911564	57	127
589.2171882086168	589.3448979591836	71	127
589.2171882086168	589.5190249433107	52	127
589.2752380952381	589.3913378684807	73	127
589.3448979591836	589.4493877551021	71	127
589.3797278911564	589.6699773242631	56	127
589.402947845805	589.4958276643991	73	127
589.4493877551021	589.6003174603175	71	127
589.5190249433107	589.6699773242631	69	127
589.6003174603175	589.7280045351474	71	127
589.6699773242631	589.9369841269842	52	127
589.6699773242631	590.0879365079365	73	127
589.7860770975057	590.0879365079365	57	127
589.9369841269842	590.2156462585034	61	127
590.0879365079365	590.4014058956916	69	127
590.0879365079365	590.3549659863945	52	127
590.2272562358277	590.5290929705216	57	127
590.3665759637188	590.6684353741497	61	127
590.4130158730159	590.5290929705216	68	127
590.5407029478458	590.7961451247165	54	127
590.5407029478458	591.0167346938775	66	127
590.680045351474	591.0167346938775	57	127
590.8425850340136	591.167641723356	62	127
591.0283446712018	591.2837641723356	54	127
591.0283446712018	591.3185941043084	74	127
591.1792743764172	591.4230839002267	57	127
591.2953741496599	591.5856235827664	62	127
591.3302040816327	591.4230839002267	73	127
591.434693877551	591.7713605442177	51	127
591.434693877551	591.9455328798186	72	127
591.5972335600907	591.9455328798186	56	127
591.7829931972789	592.1429024943311	60	127
591.9571428571429	592.2822222222222	51	127
591.9571428571429	592.317052154195	68	127
591.9571428571429	592.317052154195	80	127
592.1545124716554	592.3983219954648	56	127
592.2938321995465	592.537641723356	60	127
592.3286621315193	592.3983219954648	66	127
592.3286621315193	592.3983219954648	78	127
592.4099319727891	592.8162811791383	77	127
592.4099319727891	592.6537414965986	49	127
592.4099319727891	592.8162811791383	65	127
592.5492517006803	592.8162811791383	56	127
592.6653514739229	592.9788208616781	59	127
592.8278911564626	593.2806802721088	66	127
592.8278911564626	593.1297505668934	49	127
592.8278911564626	593.2806802721088	78	127
592.9904081632653	593.2806802721088	54	127
593.1413605442177	593.2806802721088	58	127
593.2806802721088	593.594149659864	47	127
593.2806802721088	593.7334693877551	76	127
593.2806802721088	593.7334693877551	64	127
593.42	593.7334693877551	54	127
593.594149659864	593.8843990929705	57	127
593.7334693877551	594.0236961451247	47	127
593.7334693877551	594.1514285714286	63	127
593.7334693877551	594.1514285714286	75	127
593.8843990929705	594.1514285714286	54	127
594.0236961451247	594.2907482993197	57	127
594.1630385487529	594.3720181405896	66	127
594.1630385487529	594.3720181405896	78	127
594.1630385487529	594.4416780045351	49	127
594.302358276644	594.5809977324263	52	127
594.3836281179139	594.5809977324263	76	127
594.3836281179139	594.5809977324263	64	127
594.4532879818594	594.7203174603175	57	127
594.5926077097506	594.8596371882086	49	127
594.5926077097506	594.7899773242631	74	127
594.5926077097506	594.7899773242631	62	127
594.7319274376417	595.0105668934241	52	127
594.8015873015873	595.0105668934241	73	127
594.8015873015873	595.0105668934241	61	127
594.8596371882086	595.184716553288	57	127
595.0221768707484	595.3588662131519	50	127
595.0221768707484	595.5446258503401	76	127
595.0221768707484	595.5446258503401	64	127
595.1963265306123	595.5446258503401	54	127
595.3704761904762	595.6839455782313	59	127
595.5562358276644	596.33410430839	74	127
595.5562358276644	596.33410430839	62	127
595.5562358276644	595.8232653061225	50	127
595.6955555555555	595.9625850340136	54	127
595.8348752834468	596.1019047619047	59	127
595.9741950113379	596.1947845804989	50	127
596.113514739229	596.33410430839	52	127
596.2063945578232	596.4850340136054	56	127
596.3457142857143	596.6707709750567	50	127
596.3457142857143	596.8449433106576	59	127
596.3457142857143	596.8449433106576	71	127
596.4966439909297	596.8449433106576	52	127
596.682380952381	597.0307029478458	56	127
596.8565532879819	597.1003628117913	57	127
596.8565532879819	597.1003628117913	52	127
596.8565532879819	597.1003628117913	69	127
596.8565532879819	597.1003628117913	49	127
597.1119727891156	597.3093424036281	69	127
597.1119727891156	597.3093424036281	81	127
597.2048526077098	597.4138321995465	68	127
597.2048526077098	597.4138321995465	80	127
597.3093424036281	597.5183219954648	81	127
597.3093424036281	597.5183219954648	69	127
597.4138321995465	597.6228117913832	76	127
597.4138321995465	597.6228117913832	64	127
597.5183219954648	597.7389115646258	61	127
597.5183219954648	597.7389115646258	73	127
597.6228117913832	597.8666213151928	76	127
597.6228117913832	597.8666213151928	64	127
597.7389115646258	597.9827210884354	61	127
597.7389115646258	597.9827210884354	73	127
597.8666213151928	598.1104081632653	76	127
597.8666213151928	598.1104081632653	64	127
597.9827210884354	598.2033106575964	69	127
597.9827210884354	598.2033106575964	81	127
598.1104081632653	598.3077777777778	64	127
598.1104081632653	598.3077777777778	76	127
598.2149206349206	598.4122902494331	62	127
598.2149206349206	598.4122902494331	74	127
598.3193877551021	598.5051473922903	76	127
598.3193877551021	598.5051473922903	64	127
598.4239002267574	598.6328798185941	80	127
598.4239002267574	598.6328798185941	68	127
598.5283673469388	598.6328798185941	76	127
598.5283673469388	598.6328798185941	64	127
598.6444897959184	598.8650793650794	73	127
598.6444897959184	598.8650793650794	61	127
598.7489795918367	598.981179138322	76	127
598.7489795918367	598.981179138322	64	127
598.8766893424037	599.0856689342404	69	127
598.8766893424037	599.0856689342404	81	127
598.9927891156462	599.2133786848073	80	127
598.9927891156462	599.2133786848073	68	127
599.1088888888889	599.3062585034014	81	127
599.1088888888889	599.3062585034014	69	127
599.2249886621315	599.4107482993197	64	127
599.2249886621315	599.4107482993197	76	127
599.3178684807257	599.5268253968254	61	127
599.3178684807257	599.5268253968254	73	127
599.422358276644	599.6313378684807	76	127
599.422358276644	599.6313378684807	64	127
599.5384353741497	599.7358049886622	61	127
599.5384353741497	599.7358049886622	73	127
599.642947845805	599.8403174603175	76	127
599.642947845805	599.8403174603175	64	127
599.7474149659864	599.9447845804989	69	127
599.7474149659864	599.9447845804989	81	127
599.8519274376417	600.0609070294785	64	127
599.8519274376417	600.0609070294785	76	127
599.9563945578232	600.1653968253968	74	127
599.9563945578232	600.1653968253968	62	127
600.0725170068027	600.2698866213152	76	127
600.0725170068027	600.2698866213152	64	127
600.177006802721	600.3743764172335	80	127
600.177006802721	600.3743764172335	68	127
600.2814965986395	600.3743764172335	64	127
600.2814965986395	600.3743764172335	76	127
600.3859863945578	600.5833560090703	61	127
600.3859863945578	600.5833560090703	73	127
600.4904761904762	600.6878458049887	64	127
600.4904761904762	600.6878458049887	76	127
600.5949659863945	600.792335600907	69	127
600.5949659863945	600.792335600907	81	127
600.699455782313	600.9316553287982	76	127
600.699455782313	600.9316553287982	64	127
600.8039455782313	601.0361451247165	73	127
600.8039455782313	601.0361451247165	61	127
600.9432653061225	601.140634920635	64	127
600.9432653061225	601.140634920635	76	127
601.0477551020408	601.2451247165533	81	127
601.0477551020408	601.2451247165533	69	127
601.140634920635	601.3496145124717	64	127
601.140634920635	601.3496145124717	76	127
601.2451247165533	601.45410430839	62	127
601.2451247165533	601.45410430839	74	127
601.3496145124717	601.58179138322	66	127
601.3496145124717	601.58179138322	78	127
601.45410430839	601.6863038548753	69	127
601.45410430839	601.6863038548753	81	127
601.58179138322	601.8024036281179	66	127
601.58179138322	601.8024036281179	78	127
601.6863038548753	601.9185034013606	74	127
601.6863038548753	601.9185034013606	62	127
601.8024036281179	602.0229931972789	78	127
601.8024036281179	602.0229931972789	66	127
601.9185034013606	602.115873015873	69	127
601.9185034013606	602.115873015873	81	127
602.0229931972789	602.115873015873	64	127
602.0229931972789	602.115873015873	76	127
602.1274829931973	602.336462585034	75	127
602.1274829931973	602.336462585034	63	127
602.2551927437642	602.4409523809524	78	127
602.2551927437642	602.4409523809524	66	127
602.3480725623583	602.557052154195	80	127
602.3480725623583	602.557052154195	68	127
602.4525623582766	602.6615419501134	66	127
602.4525623582766	602.6615419501134	78	127
602.5686621315193	602.777641723356	63	127
602.5686621315193	602.777641723356	75	127
602.6731519274376	602.9169614512472	68	127
602.6731519274376	602.9169614512472	80	127
602.7892517006803	603.0214285714286	72	127
602.7892517006803	603.0214285714286	84	127
602.9285714285714	603.1259410430839	68	127
602.9285714285714	603.1259410430839	80	127
603.0330612244898	603.2420408163265	61	127
603.0330612244898	603.2420408163265	73	127
603.1375510204082	603.3813605442177	68	127
603.1375510204082	603.3813605442177	80	127
603.2884807256236	603.4974603174603	71	127
603.2884807256236	603.4974603174603	83	127
603.392970521542	603.6019501133787	68	127
603.392970521542	603.6019501133787	80	127
603.5090702947846	603.706439909297	73	127
603.5090702947846	603.706439909297	61	127
603.613560090703	603.8225170068027	66	127
603.613560090703	603.8225170068027	78	127
603.7296598639456	603.9386394557823	70	127
603.7296598639456	603.9386394557823	82	127
603.834126984127	603.9386394557823	78	127
603.834126984127	603.9386394557823	66	127
603.9502494331066	604.1824489795919	61	127
603.9502494331066	604.1824489795919	73	127
604.0895691609977	604.3101587301587	66	127
604.0895691609977	604.3101587301587	78	127
604.1940589569161	604.4146485260771	69	127
604.1940589569161	604.4146485260771	81	127
604.321768707483	604.5307482993197	66	127
604.321768707483	604.5307482993197	78	127
604.4378458049887	604.6468253968254	71	127
604.4378458049887	604.6468253968254	59	127
604.542358276644	604.7513378684807	66	127
604.542358276644	604.7513378684807	78	127
604.6584353741497	604.8441950113379	81	127
604.6584353741497	604.8441950113379	69	127
604.762947845805	604.9603174603175	66	127
604.762947845805	604.9603174603175	78	127
604.8558049886622	605.0647845804989	71	127
604.8558049886622	605.0647845804989	59	127
604.9719274376417	605.1692970521542	76	127
604.9719274376417	605.1692970521542	64	127
605.07641723356	605.2389569160998	68	127
605.07641723356	605.2389569160998	80	127
605.1692970521542	605.3318367346939	76	127
605.1692970521542	605.3318367346939	64	127
605.2389569160998	605.4479365079366	61	127
605.2389569160998	605.4479365079366	73	127
605.3318367346939	605.5640362811791	64	127
605.3318367346939	605.5640362811791	76	127
605.4479365079366	605.6801133786848	69	127
605.4479365079366	605.6801133786848	81	127
605.5640362811791	605.6801133786848	76	127
605.5640362811791	605.6801133786848	64	127
605.6801133786848	605.9007256235827	62	127
605.6801133786848	605.9007256235827	74	127
605.8078458049887	606.0052154195012	65	127
605.8078458049887	606.0052154195012	77	127
605.9007256235827	606.0980952380952	81	127
605.9007256235827	606.0980952380952	69	127
606.0052154195012	606.0980952380952	65	127
606.0052154195012	606.0980952380952	77	127
606.132925170068	606.3302947845805	62	127
606.132925170068	606.3302947845805	77	127
606.2374149659864	606.4580045351474	81	127
606.2374149659864	606.4580045351474	65	127
606.3419047619047	606.5624943310657	86	127
606.3419047619047	606.5624943310657	62	127
606.4696145124717	606.6785941043084	65	127
606.4696145124717	606.6785941043084	81	127
606.57410430839	606.7830839002268	77	127
606.57410430839	606.7830839002268	59	127
606.6901814058957	606.8991609977325	62	127
606.6901814058957	606.8991609977325	83	127
606.794693877551	607.0268934240363	86	127
606.794693877551	607.0268934240363	65	127
606.9224036281179	607.0268934240363	83	127
606.9224036281179	607.1429931972789	62	127
607.0385034013606	607.2474829931973	83	127
607.0385034013606	607.2474829931973	57	127
607.1546031746032	607.3635827664399	59	127
607.1546031746032	607.3635827664399	86	127
607.2590929705216	607.4796825396826	62	127
607.2590929705216	607.4796825396826	89	127
607.3751927437642	607.4796825396826	86	127
607.3751927437642	607.4796825396826	59	127
607.4912925170069	607.7002721088436	89	127
607.4912925170069	607.7002721088436	56	127
607.5957823129252	607.8395918367347	86	127
607.5957823129252	607.8395918367347	59	127
607.7351020408163	607.944081632653	62	127
607.7351020408163	607.944081632653	83	127
607.851201814059	608.0369614512472	59	127
607.851201814059	608.0369614512472	86	127
607.9556916099773	608.1298185941043	56	127
607.9556916099773	608.1298185941043	89	127
608.0369614512472	608.2691609977325	59	127
608.0369614512472	608.2691609977325	86	127
608.1414512471655	608.3736507936508	62	127
608.1414512471655	608.3736507936508	83	127
608.2807709750567	608.4781405895692	59	127
608.2807709750567	608.4781405895692	86	127
608.385260770975	608.5826303854875	89	127
608.385260770975	608.5826303854875	56	127
608.4897505668935	608.6871201814059	59	127
608.4897505668935	608.6871201814059	86	127
608.5942403628118	608.78	83	127
608.5942403628118	608.78	62	127
608.6987301587302	608.8844897959184	59	127
608.6987301587302	608.8844897959184	86	127
608.7916099773242	609.0238095238095	89	127
608.7916099773242	609.0238095238095	56	127
608.9077097505669	609.128299319728	86	127
608.9077097505669	609.128299319728	59	127
609.0354195011338	609.221179138322	83	127
609.0354195011338	609.221179138322	62	127
609.128299319728	609.3140589569161	86	127
609.128299319728	609.3140589569161	59	127
609.221179138322	609.4301587301587	56	127
609.221179138322	609.4301587301587	89	127
609.3140589569161	609.5462358276644	59	127
609.3140589569161	609.5462358276644	86	127
609.4301587301587	609.6507482993197	62	127
609.4301587301587	609.6507482993197	83	127
609.5462358276644	609.8016780045351	59	127
609.5462358276644	609.8016780045351	86	127
609.6507482993197	609.9293877551021	56	127
609.6507482993197	609.9293877551021	88	127
609.8016780045351	610.0454875283447	59	127
609.8016780045351	610.0454875283447	86	127
609.9293877551021	610.1267573696146	83	127
609.9293877551021	610.1267573696146	62	127
610.0454875283447	610.2544671201814	86	127
610.0454875283447	610.2544671201814	59	127
610.1383673469388	610.3357369614513	88	127
610.1383673469388	610.3357369614513	56	127
610.2660770975057	610.4402267573696	59	127
610.2660770975057	610.4402267573696	86	127
610.3473469387756	610.544716553288	83	127
610.3473469387756	610.544716553288	62	127
610.4518367346939	610.718866213152	59	127
610.4518367346939	610.718866213152	86	127
610.5563265306123	610.8581859410431	88	127
610.5563265306123	610.8581859410431	56	127
610.7304761904762	610.985873015873	86	127
610.7304761904762	610.985873015873	59	127
610.8581859410431	611.1019954648526	83	127
610.8581859410431	611.1019954648526	62	127
610.9974829931973	611.1019954648526	86	127
610.9974829931973	611.1019954648526	59	127
611.1136054421769	611.2645351473923	88	127
611.1136054421769	611.4154648526077	56	127
611.2761451247165	611.4154648526077	86	127
611.2761451247165	611.5663945578232	59	127
611.4270748299319	611.5663945578232	85	127
611.4270748299319	611.7057142857143	62	127
611.5780045351474	611.7057142857143	83	127
611.5780045351474	611.8450340136054	56	127
611.7173242630386	611.8450340136054	81	127
611.7173242630386	612.0075510204082	59	127
611.8798639455782	612.0075510204082	80	127
611.8798639455782	612.1468934240363	62	127
612.0191609977325	612.1468934240363	78	127
612.0191609977325	612.2862131519274	56	127
612.1585034013606	612.4487528344671	59	127
612.1585034013606	612.2862131519274	76	127
612.309433106576	612.4487528344671	74	127
612.309433106576	612.6112925170069	62	127
612.4603628117914	612.7738321995465	56	127
612.4603628117914	612.6925623582766	73	127
612.576462585034	612.8086621315193	71	127
612.6112925170069	612.9247619047619	59	127
612.6925623582766	612.9247619047619	69	127
612.7738321995465	613.0756916099773	62	127
612.8086621315193	612.9247619047619	68	127
612.9247619047619	613.2265986394558	56	127
612.9247619047619	613.3659410430839	66	127
613.0756916099773	613.3659410430839	59	127
613.2265986394558	613.5284807256236	62	127
613.3659410430839	614.8868253968254	64	127
613.3659410430839	613.679410430839	56	127
613.5284807256236	613.8303401360545	59	127
613.6910204081632	614.0044897959184	62	127
613.8419274376417	614.1786394557823	56	127
614.0160997732427	614.3295691609977	59	127
614.1902494331066	614.5269387755102	62	127
614.341179138322	614.7010884353741	56	127
614.5385487528345	614.8868253968254	59	127
614.7359183673469	614.8868253968254	62	127
614.8984580498866	615.1887074829932	55	127
614.8984580498866	615.0261678004535	83	127
615.0377777777778	615.1887074829932	81	127
615.0377777777778	615.3628571428571	57	127
615.2003174603175	615.5021768707483	61	127
615.2003174603175	615.3628571428571	79	127
615.3744671201814	615.5021768707483	78	127
615.3744671201814	615.6414965986395	55	127
615.5137868480725	615.7808163265306	57	127
615.5137868480725	615.6414965986395	76	127
615.6531065759638	615.7808163265306	74	127
615.6531065759638	615.931746031746	61	127
615.7924263038549	616.0130158730159	73	127
615.7924263038549	616.0710657596372	55	127
615.8968934240363	616.105873015873	71	127
615.9433560090703	616.2568253968254	57	127
616.0246258503402	616.2568253968254	69	127
616.0826757369615	616.4425850340136	61	127
616.1175056689342	616.3961451247166	67	127
616.2684353741497	616.6051247165533	55	127
616.2684353741497	616.5354648526077	66	127
616.4077551020408	616.6399546485261	64	127
616.4541950113379	616.7560544217687	57	127
616.547074829932	616.7560544217687	62	127
616.6167346938776	616.7560544217687	61	127
616.6515646258504	616.7560544217687	61	127
616.767664399093	617.1043537414967	49	127
616.767664399093	617.2320634920635	59	127
616.9069614512472	617.2320634920635	52	127
617.1043537414967	617.4178231292517	55	127
617.2320634920635	618.7065306122449	57	127
617.2320634920635	617.5571428571428	49	127
617.4178231292517	617.696462585034	52	127
617.5571428571428	617.8473922902494	55	127
617.696462585034	617.9983219954648	49	127
617.8473922902494	618.1956916099773	52	127
618.0099319727891	618.3465986394558	55	127
618.2073015873016	618.5439682539683	49	127
618.3582086167801	618.7065306122449	52	127
618.5555782312925	618.7065306122449	55	127
618.7181405895692	619.2057596371882	74	127
618.7181405895692	619.2057596371882	69	127
618.7181405895692	618.8922902494331	38	127
618.7181405895692	619.2057596371882	78	127
618.7181405895692	619.2057596371882	66	127
618.9039002267574	619.0432199546485	40	127
619.0548299319728	619.2057596371882	42	127
619.2173696145124	619.3334693877551	43	127
619.368276643991	619.4843990929705	45	127
619.4960090702948	619.588866213152	47	127
619.6004988662131	619.6933786848073	49	127
619.7049886621315	619.8326984126984	50	127
619.8443083900227	619.9836054421769	52	127
619.9952154195012	620.0881179138322	54	127
620.0997278911565	620.2042176870748	55	127
620.2274376417233	620.4248072562358	57	127
620.4364172335601	620.7266666666667	38	127
620.738276643991	620.8775963718821	63	127
620.738276643991	621.2491156462585	39	127
620.8892063492063	621.1097959183674	64	127
621.1214058956916	621.2491156462585	66	127
621.2607256235827	621.3652154195012	68	127
621.3652154195012	621.4813151927438	69	127
621.4813151927438	621.5858049886622	71	127
621.5858049886622	621.713514739229	73	127
621.713514739229	621.8063945578232	75	127
621.8063945578232	621.9108843537415	76	127
621.9108843537415	622.0153741496599	78	127
622.0153741496599	622.1779138321996	80	127
622.1779138321996	622.4101133786849	81	127
622.4217233560091	622.6539002267574	63	127
622.6655328798186	622.7816326530613	52	127
622.7932426303855	622.8861224489796	64	127
622.8977324263038	623.0370521541951	66	127
622.8977324263038	623.0370521541951	62	127
623.0486394557823	623.1415419501134	68	127
623.0486394557823	623.1415419501134	61	127
623.1531519274376	623.2460090702948	69	127
623.1531519274376	623.2460090702948	59	127
623.2576190476191	623.3505215419501	71	127
623.2576190476191	623.3505215419501	57	127
623.3853514739229	623.478231292517	56	127
623.3853514739229	623.478231292517	73	127
623.4898412698412	623.5827210884354	74	127
623.4898412698412	623.5827210884354	54	127
623.5943310657597	623.7220408163265	52	127
623.5943310657597	623.7220408163265	76	127
623.745260770975	623.8961904761904	50	127
623.745260770975	623.8961904761904	78	127
623.9078004535147	624.047120181406	80	127
623.9078004535147	624.047120181406	49	127
624.0587301587302	624.1864399092971	47	127
624.0587301587302	624.1864399092971	81	127
624.1980498866213	624.2909070294785	83	127
624.1980498866213	624.2909070294785	45	127
624.3025396825396	624.4070294784581	44	127
624.3025396825396	624.4070294784581	85	127
624.4186394557823	624.5231292517007	42	127
624.4186394557823	624.5231292517007	86	127
624.5347392290249	624.7204988662131	88	127
624.5347392290249	624.7204988662131	40	127
624.7321088435374	624.9294784580499	57	127
624.7321088435374	624.9294784580499	52	127
624.7321088435374	624.9294784580499	61	127
624.7321088435374	624.9294784580499	73	127
624.9410884353741	625.1500680272109	76	127
624.9410884353741	625.1500680272109	61	127
624.9410884353741	625.1500680272109	52	127
624.9410884353741	625.1500680272109	57	127
625.1616780045351	625.3706575963719	81	127
625.1616780045351	625.3706575963719	61	127
625.1616780045351	625.3706575963719	52	127
625.1616780045351	625.3706575963719	57	127
625.3822675736961	625.6028571428571	52	127
625.3822675736961	625.6028571428571	85	127
625.3822675736961	625.6028571428571	57	127
625.3822675736961	625.6028571428571	61	127
625.6144671201814	625.858276643991	52	127
625.6144671201814	625.858276643991	88	127
625.6144671201814	625.858276643991	61	127
625.6144671201814	625.858276643991	57	127
625.8814965986395	626.1020861678005	61	127
625.8814965986395	626.1020861678005	57	127
625.8814965986395	626.1020861678005	93	127
625.8814965986395	626.1020861678005	52	127
626.1136734693878	626.4039455782313	69	127
626.1136734693878	626.4039455782313	52	127
626.1136734693878	626.4039455782313	57	127
626.1136734693878	626.4039455782313	61	127
626.4155555555556	626.8683446712018	62	127
626.4155555555556	626.8683446712018	52	127
626.4155555555556	626.566485260771	71	127
626.4155555555556	626.8683446712018	56	127
626.4968253968254	626.6477551020408	73	127
626.5780952380952	626.7290022675737	71	127
626.6593650793651	626.7986848072562	73	127
626.7290022675737	626.8683446712018	71	127
626.8102947845805	627.228253968254	73	127
626.8799546485261	627.2979138321996	71	127
627.228253968254	627.3675736961451	73	127
627.3095238095239	627.448843537415	71	127
627.3791836734694	627.5417006802721	73	127
627.448843537415	627.6346031746032	71	127
627.5649433106576	627.7158730158731	73	127
627.6462131519274	627.7971428571428	71	127
627.7158730158731	627.8668027210884	73	127
627.8087528344671	627.9596598639456	71	127
627.8784126984127	628.0293424036281	73	127
627.9596598639456	628.0990022675737	71	127
628.0409523809524	628.1802721088435	73	127
628.110612244898	628.2499319727891	71	127
628.1802721088435	628.3195918367347	73	127
628.2615419501134	628.4356916099773	71	127
628.331201814059	628.6562811791383	70	127
628.4937414965987	628.6562811791383	71	127
628.6678911564626	628.8304308390022	78	127
628.7375510204082	628.9581405895692	80	127
628.8420408163265	629.0510204081633	78	127
628.9697278911565	629.1555102040817	80	127
629.0510204081633	629.2251700680272	78	127
629.167120181406	629.2948299319728	80	127
629.2367800453515	629.3528798185941	78	127
629.2948299319728	629.4689795918367	80	127
629.3644897959184	629.5850566893424	78	127
629.480589569161	629.6431292517007	80	127
629.5850566893424	629.7243990929705	78	127
629.6547392290249	629.7940362811792	80	127
629.7360090702948	629.8521088435374	78	127
629.7940362811792	629.921768707483	80	127
629.8637188208617	629.9798185941044	78	127
629.9333786848073	630.0726984126984	80	127
629.9798185941044	630.1191383219955	78	127
630.0843083900227	630.1771882086168	80	127
630.1191383219955	630.2468480725623	78	127
630.1771882086168	630.3048979591837	80	127
630.2468480725623	630.4093650793651	78	127
630.3397278911565	630.6067346938776	77	127
630.4558276643991	630.6067346938776	78	127
630.6415873015873	632.5107936507936	52	127
630.6415873015873	631.0943764172335	80	127
630.6415873015873	631.5355555555556	74	127
630.6415873015873	632.5107936507936	40	127
630.6415873015873	631.5355555555556	71	127
631.1059863945578	631.5355555555556	78	127
631.5819954648526	632.0231746031747	76	127
631.5819954648526	632.5107936507936	68	127
631.5819954648526	632.5107936507936	71	127
632.0347845804989	632.5107936507936	74	127
632.5224036281179	634.4496598639456	69	127
632.5224036281179	634.4496598639456	73	127
632.5224036281179	633.544081632653	45	127
633.5556916099773	634.4496598639456	52	127
634.4612698412699	636.5626757369614	40	127
634.4612698412699	636.5626757369614	52	127
634.4612698412699	635.5293650793651	71	127
634.5425396825397	635.5293650793651	74	127
634.6121995464853	634.9140362811792	80	127
634.9256689342403	635.5293650793651	78	127
635.5409977324263	636.5626757369614	68	127
635.6106575963719	636.5626757369614	71	127
635.6919274376418	636.0866666666667	76	127
636.098276643991	636.5626757369614	74	127
636.5742857142857	638.6408616780045	69	127
636.5742857142857	638.6408616780045	73	127
636.5742857142857	637.6772335600907	45	127
637.688843537415	638.6408616780045	52	127
638.6524716553288	640.4868480725623	64	127
638.6524716553288	639.1168707482993	52	127
638.6524716553288	640.4868480725623	59	127
638.6524716553288	640.4868480725623	68	127
638.6524716553288	640.4868480725623	62	127
639.1284807256236	639.5812698412699	50	127
639.5928798185942	640.0456689342403	49	127
640.0572789115646	640.4868480725623	47	127
640.4984580498866	640.9512471655329	64	127
640.4984580498866	640.9512471655329	61	127
640.4984580498866	640.9512471655329	45	127
640.4984580498866	640.9512471655329	69	127
640.9628571428572	641.3692063492064	67	127
640.9628571428572	641.3692063492064	43	127
641.3808163265306	641.8916553287982	66	127
641.3808163265306	641.8916553287982	42	127
641.8916553287982	642.5185941043084	40	127
641.8916553287982	642.5185941043084	64	127
642.5185941043084	643.5054195011338	38	127
642.5185941043084	643.5054195011338	62	127
643.5054195011338	644.5039002267574	45	127
643.5054195011338	644.5039002267574	69	127
644.5039002267574	645.8854875283447	71	127
644.5039002267574	645.8854875283447	47	127
645.8854875283447	646.3266666666667	42	127
645.8854875283447	646.3266666666667	66	127
646.3266666666667	646.779433106576	45	127
646.3266666666667	646.779433106576	69	127
646.779433106576	647.2786848072562	67	127
646.779433106576	647.2786848072562	43	127
647.2786848072562	647.7895011337869	42	127
647.2786848072562	647.7895011337869	66	127
647.7895011337869	647.9984807256236	43	127
647.7895011337869	647.9984807256236	67	127
648.0100907029479	648.2887528344671	40	127
648.0100907029479	648.2887528344671	64	127
648.3235827664399	649.2639909297052	62	127
648.3235827664399	649.2639909297052	38	127
649.2756009070295	649.7283900226757	37	127
649.2756009070295	649.7283900226757	61	127
649.74	649.8444671201814	67	127
649.7980498866214	649.9025396825397	69	127
649.8560997732426	649.960589569161	67	127
649.9141496598639	650.0418367346939	69	127
649.9721995464853	650.0999092970521	67	127
650.0534467120182	650.1695691609978	69	127
650.1231292517007	650.2160090702948	67	127
650.181179138322	650.2856689342403	69	127
650.2160090702948	650.7500680272109	33	127
650.2160090702948	650.7500680272109	71	127
650.2160090702948	650.7500680272109	45	127
650.7616780045352	651.2028571428572	69	127
651.2144671201814	651.6672335600907	67	127
651.678843537415	651.8994557823129	69	127
651.8994557823129	652.1084353741496	66	127
652.1200453514739	653.0720634920635	64	127
652.1200453514739	652.5960544217687	47	127
652.1200453514739	652.5960544217687	35	127
653.0720634920635	653.6177324263039	63	127
653.6293424036281	653.7454421768707	74	127
653.6990022675737	653.8151020408163	76	127
653.7686621315192	653.8731519274377	74	127
653.8267120181406	653.9428117913832	76	127
653.884761904762	654.0008616780045	74	127
653.9544217687074	654.0821315192744	76	127
654.0240816326531	654.1517913832199	74	127
654.0937414965987	654.2098412698413	76	127
654.1634013605442	654.6278004535147	52	127
654.1634013605442	654.6278004535147	40	127
654.1634013605442	654.6278004535147	77	127
654.639410430839	655.080589569161	76	127
655.0921995464853	655.5798185941043	74	127
655.5914285714285	655.8236281179138	76	127
655.8352380952381	656.0442176870748	71	127
656.0558276643991	656.4853968253968	45	127
656.0558276643991	656.4853968253968	57	127
656.0558276643991	656.9149659863946	74	127
656.9265759637188	657.4490249433106	73	127
657.4606349206349	657.5651247165533	79	127
657.4606349206349	657.9134240362812	61	127
657.5186848072562	657.6231746031746	81	127
657.5767346938776	657.6580045351474	79	127
657.6231746031746	657.7392743764173	81	127
657.6696145124716	657.7973242630386	79	127
657.7508843537415	657.8553741496598	81	127
657.8089115646259	657.9134240362812	79	127
657.8669841269841	658.0295011337869	81	127
657.948253968254	658.2733333333333	61	127
657.948253968254	658.4939229024943	82	127
658.2733333333333	658.4939229024943	57	127
658.5055328798186	658.7377324263039	62	127
658.5055328798186	658.9583219954649	81	127
658.7493424036281	658.9583219954649	57	127
658.9699319727891	659.4343310657597	80	127
658.9699319727891	659.2137414965987	62	127
659.225351473923	659.4343310657597	57	127
659.4343310657597	659.6432879818594	62	127
659.4343310657597	659.6432879818594	81	127
659.6548979591837	659.8638775510204	57	127
659.6548979591837	659.8638775510204	74	127
659.8638775510204	660.2702267573696	83	127
659.8638775510204	660.0844897959183	59	127
660.0960997732426	660.2702267573696	57	127
660.2818594104308	660.7114285714285	81	127
660.2818594104308	660.5372789115646	60	127
660.5372789115646	660.7114285714285	57	127
660.7230385487528	661.257097505669	80	127
660.7230385487528	661.0132879818594	60	127
661.0248979591837	661.257097505669	57	127
661.2687074829932	661.4892743764173	81	127
661.2687074829932	661.4892743764173	60	127
661.4892743764173	661.7214965986394	72	127
661.4892743764173	661.7214965986394	57	127
661.7331065759637	661.9420861678004	64	127
661.7331065759637	662.1278458049886	83	127
661.9536961451247	662.1278458049886	57	127
662.1394557823129	662.3484353741496	65	127
662.1394557823129	662.5574149659864	81	127
662.3600453514739	662.5574149659864	57	127
662.5690249433106	662.7431746031746	65	127
662.5690249433106	662.9637641723356	80	127
662.7547845804988	662.9637641723356	57	127
662.9753741496598	663.1959637188208	81	127
662.9753741496598	663.1959637188208	65	127
663.2075736961451	663.4397732426304	57	127
663.2075736961451	663.4397732426304	77	127
663.4513832199547	663.8345124716553	83	127
663.4513832199547	663.6371428571429	63	127
663.6371428571429	663.8345124716553	57	127
663.8461224489796	664.3105215419502	81	127
663.8461224489796	664.0783219954649	64	127
664.0899319727891	664.3105215419502	57	127
664.3221315192744	664.8213605442177	80	127
664.3221315192744	664.5891609977324	64	127
664.5891609977324	664.8213605442177	57	127
664.8329705215419	665.053560090703	64	127
664.8329705215419	665.053560090703	81	127
665.0767800453515	665.2857596371882	57	127
665.0767800453515	665.2857596371882	76	127
665.2973696145125	665.541179138322	61	127
665.2973696145125	665.4715192743764	83	127
665.4831292517007	665.6224489795918	81	127
665.5527891156463	665.7849659863946	57	127
665.6340589569161	665.7849659863946	80	127
665.7965759637189	666.0055782312925	62	127
665.7965759637189	666.0055782312925	81	127
666.0171882086167	666.2726077097506	74	127
666.0171882086167	666.2726077097506	57	127
666.2726077097506	666.4815873015873	61	127
666.2726077097506	666.4119047619048	83	127
666.423537414966	666.5628571428572	81	127
666.4931972789116	666.7021768707483	57	127
666.5628571428572	666.7021768707483	80	127
666.7137868480726	666.9227664399093	81	127
666.7137868480726	666.9227664399093	62	127
666.9343764172336	667.1433560090703	57	127
666.9343764172336	667.1433560090703	74	127
667.1433560090703	667.3291156462585	59	127
667.1433560090703	667.2710657596372	83	127
667.2826757369614	667.3987755102041	81	127
667.3407256235828	667.5380952380953	57	127
667.4103854875284	667.5380952380953	80	127
667.5497052154195	667.7354648526077	60	127
667.5497052154195	667.7354648526077	81	127
667.747074829932	667.967664399093	72	127
667.747074829932	667.967664399093	57	127
667.9908843537415	668.2114739229025	59	127
667.9908843537415	668.1418140589569	83	127
668.1418140589569	668.281133786848	81	127
668.2230839002268	668.4204535147393	57	127
668.2927437641723	668.4204535147393	80	127
668.4320634920635	668.6410204081633	60	127
668.4320634920635	668.6410204081633	81	127
668.6526303854876	668.896462585034	57	127
668.6526303854876	668.896462585034	72	127
668.9080725623583	669.1286621315193	64	127
668.9080725623583	669.0589795918368	83	127
669.070589569161	669.1983219954649	81	127
669.1402721088435	669.3608616780045	57	127
669.2099319727891	669.3608616780045	80	127
669.3608616780045	669.5930612244898	81	127
669.3608616780045	669.5930612244898	65	127
669.6046712018141	669.8136507936508	77	127
669.6046712018141	669.8136507936508	57	127
669.8252607709751	669.9413605442177	83	127
669.8252607709751	670.0110204081633	64	127
669.9529705215419	670.0806575963719	81	127
670.0226303854876	670.2548299319728	57	127
670.0922675736962	670.2548299319728	80	127
670.2896371882086	670.5102494331065	65	127
670.2896371882086	670.5102494331065	81	127
670.5102494331065	670.6959863945578	57	127
670.5102494331065	670.6959863945578	77	127
670.7075963718821	670.8585487528345	83	127
670.7075963718821	670.92820861678	63	127
670.8701587301588	670.9978684807256	81	127
670.9398185941043	671.2068480725624	57	127
670.9978684807256	671.2068480725624	80	127
671.2068480725624	671.4390476190476	64	127
671.2068480725624	671.4390476190476	81	127
671.4390476190476	671.6944671201815	76	127
671.4390476190476	671.6944671201815	57	127
671.6944671201815	671.8453968253968	83	127
671.6944671201815	671.9034467120182	63	127
671.8453968253968	671.9963265306122	81	127
671.9034467120182	672.1240136054422	57	127
671.9963265306122	672.1240136054422	80	127
672.1356235827665	672.3446258503401	64	127
672.1356235827665	672.3446258503401	81	127
672.3562358276644	672.5187755102041	76	127
672.3562358276644	672.5187755102041	57	127
672.5303628117914	672.6697052154195	81	127
672.5303628117914	672.7625850340136	62	127
672.6929251700681	672.8322448979592	80	127
672.7741950113378	672.9831746031746	59	127
672.8438548752835	672.9831746031746	78	127
672.9947845804988	673.2037641723356	80	127
672.9947845804988	673.2037641723356	64	127
673.2153741496599	673.4591836734694	76	127
673.2153741496599	673.4591836734694	62	127
673.4707936507937	673.7029931972789	60	127
673.4707936507937	673.621723356009	83	127
673.6449433106576	673.7726303854876	81	127
673.7146031746032	673.8887528344671	57	127
673.7842630385487	673.8887528344671	80	127
673.9003628117914	674.0861224489796	81	127
673.9003628117914	674.0861224489796	62	127
674.0977324263039	674.2951020408163	60	127
674.0977324263039	674.2951020408163	76	127
674.3067120181406	674.585328798186	59	127
674.3067120181406	674.4808616780045	84	127
674.5040816326531	674.678231292517	83	127
674.6201814058957	674.8291609977324	56	127
674.6898412698413	674.8291609977324	82	127
674.8407709750567	675.0613605442177	83	127
674.8407709750567	675.0613605442177	60	127
675.072970521542	675.293560090703	76	127
675.072970521542	675.293560090703	59	127
675.293560090703	675.514149659864	57	127
675.293560090703	675.4444897959183	86	127
675.4444897959183	675.6070068027211	85	127
675.514149659864	675.7463492063492	52	127
675.6070068027211	675.7463492063492	84	127
675.7463492063492	675.955328798186	85	127
675.7463492063492	675.955328798186	61	127
675.955328798186	676.1526984126984	57	127
675.955328798186	676.1526984126984	81	127
676.1643083900227	676.3732879818594	54	127
676.1643083900227	676.3036281179138	88	127
676.1643083900227	676.3732879818594	57	127
676.3152380952381	676.442947845805	86	127
676.3848979591837	676.5822675736962	62	127
676.4545578231292	676.5822675736962	85	127
676.5938775510205	676.8028571428572	54	127
676.5938775510205	676.8028571428572	86	127
676.5938775510205	676.8028571428572	57	127
676.8144671201815	677.0234240362812	62	127
676.8144671201815	677.0234240362812	81	127
677.0350340136055	677.2440136054422	53	127
677.0350340136055	677.1627664399093	88	127
677.0350340136055	677.2440136054422	57	127
677.1743764172336	677.325306122449	87	127
677.2556462585034	677.4762358276644	60	127
677.3369160997732	677.4762358276644	86	127
677.4878458049886	677.7200453514739	87	127
677.4878458049886	677.7200453514739	53	127
677.4878458049886	677.7200453514739	57	127
677.7316553287982	678.0335147392291	81	127
677.7316553287982	678.0335147392291	60	127
678.0451020408163	678.3353741496599	88	127
678.0451020408163	678.3353741496599	52	127
678.207664399093	678.4863038548752	86	127
678.207664399093	678.4863038548752	57	127
678.3469841269841	678.6604308390023	61	127
678.3469841269841	678.6604308390023	85	127
678.5095238095238	678.8113832199547	40	127
678.5095238095238	678.8113832199547	83	127
678.6720408163266	678.9507029478458	45	127
678.6720408163266	678.9507029478458	81	127
678.822993197279	679.09	49	127
678.822993197279	679.09	80	127
678.9623129251701	679.2061224489796	40	127
678.9623129251701	679.2061224489796	78	127
679.1016326530612	679.357052154195	76	127
679.1016326530612	679.357052154195	45	127
679.2177324263039	679.4963492063492	74	127
679.2177324263039	679.4963492063492	49	127
679.3686621315193	679.5079818594104	73	127
679.3686621315193	679.6356916099774	40	127
679.4499319727892	679.5892517006803	71	127
679.5079818594104	679.7750113378685	45	127
679.5195918367347	679.6589115646259	69	127
679.6008616780045	679.7285714285714	68	127
679.6473015873016	679.7750113378685	49	127
679.6821088435374	679.7866213151927	66	127
679.7866213151927	680.2510204081633	64	127
679.7866213151927	680.0652607709751	40	127
679.9259410430839	680.2510204081633	47	127
680.0768707482994	680.4251700680272	50	127
680.2626303854876	680.5760997732426	40	127
680.4367800453515	680.7502494331065	47	127
680.5877097505669	680.9243764172336	50	127
680.7618594104308	681.0869387755102	40	127
680.7618594104308	681.2610884353742	74	127
680.7618594104308	681.2610884353742	80	127
680.7618594104308	681.2610884353742	71	127
680.7618594104308	681.2610884353742	76	127
680.7618594104308	681.2610884353742	68	127
680.9360090702947	681.2610884353742	47	127
681.1101587301588	681.4120181405896	50	127
681.2726984126984	681.6674376417234	40	127
681.4120181405896	681.8183673469388	47	127
681.6674376417234	681.8183673469388	50	127
681.8183673469388	682.7819954648526	81	127
681.8183673469388	682.7819954648526	33	127
681.8183673469388	682.7819954648526	45	127
681.8183673469388	682.7819954648526	69	127
682.7936054421768	683.7340136054422	88	127
682.7936054421768	683.7340136054422	76	127
682.7936054421768	683.7340136054422	40	127
682.7936054421768	683.7340136054422	52	127
683.768820861678	685.1504308390023	78	127
683.768820861678	685.1504308390023	90	127
683.768820861678	685.1504308390023	54	127
683.768820861678	685.1504308390023	42	127
685.1504308390023	685.6496598639455	37	127
685.1504308390023	685.6496598639455	85	127
685.1504308390023	685.6496598639455	73	127
685.1504308390023	685.6496598639455	49	127
685.6496598639455	686.0327664399093	52	127
685.6496598639455	686.0327664399093	40	127
685.6496598639455	686.0327664399093	88	127
685.6496598639455	686.0327664399093	76	127
686.0327664399093	686.5900680272109	38	127
686.0327664399093	686.5900680272109	86	127
686.0327664399093	686.5900680272109	50	127
686.0327664399093	686.5900680272109	74	127
686.5900680272109	687.0544444444445	73	127
686.5900680272109	687.0544444444445	37	127
686.5900680272109	687.0544444444445	85	127
686.5900680272109	687.0544444444445	49	127
687.0544444444445	687.2750566893424	50	127
687.0544444444445	687.2750566893424	86	127
687.0544444444445	687.2750566893424	38	127
687.0544444444445	687.2750566893424	74	127
687.2750566893424	687.5188662131519	83	127
687.2750566893424	687.5188662131519	71	127
687.2750566893424	687.5188662131519	47	127
687.2750566893424	687.5188662131519	35	127
687.5188662131519	688.447664399093	33	127
687.5188662131519	688.447664399093	81	127
687.5188662131519	688.447664399093	45	127
687.5188662131519	688.447664399093	69	127
688.4592743764173	688.9004308390023	44	127
688.4592743764173	688.9004308390023	80	127
688.4592743764173	688.9004308390023	32	127
688.4592743764173	688.9004308390023	68	127
688.9004308390023	689.3880725623583	76	127
688.9004308390023	689.3880725623583	64	127
688.9004308390023	689.3880725623583	40	127
689.3880725623583	689.7944217687075	45	127
689.3880725623583	689.7944217687075	81	127
689.3880725623583	689.7944217687075	69	127
689.7944217687075	690.2472108843538	78	127
689.7944217687075	690.2472108843538	42	127
689.7944217687075	690.2472108843538	66	127
690.2472108843538	690.7580498866213	37	127
690.2472108843538	690.7580498866213	61	127
690.2472108843538	690.7580498866213	73	127
690.7580498866213	691.2456689342404	75	127
690.7580498866213	691.2456689342404	39	127
690.7580498866213	691.2456689342404	63	127
691.2456689342404	692.5807936507937	76	127
691.2456689342404	692.5807936507937	64	127
691.2456689342404	692.5807936507937	40	127
693.0684353741497	694.9724716553288	40	127
693.0684353741497	694.9724716553288	59	127
693.0684353741497	694.9724716553288	62	127
693.0684353741497	694.9724716553288	52	127
693.0684353741497	694.9724716553288	64	127
694.9840816326531	696.4469160997733	57	127
694.9840816326531	696.4469160997733	45	127
694.9840816326531	696.4469160997733	61	127
694.9840816326531	696.4469160997733	64	127
694.9840816326531	696.4469160997733	52	127
696.4585260770975	697.0042176870749	68	127
696.4585260770975	697.0042176870749	56	127
697.0158276643991	697.491814058957	69	127
697.0158276643991	697.491814058957	57	127
697.491814058957	697.9446258503401	54	127
697.491814058957	697.9446258503401	66	127
697.9678458049887	698.4438548752835	61	127
697.9678458049887	698.4438548752835	49	127
698.4554648526077	698.9430839002267	51	127
698.4554648526077	698.9430839002267	63	127
698.954693877551	700.7890702947846	64	127
698.954693877551	700.7890702947846	52	127
700.8006802721088	701.0328798185941	64	127
700.8006802721088	702.6466666666666	40	127
700.9051700680272	701.1257596371883	76	127
701.0444897959184	701.1954195011338	66	127
701.1257596371883	701.3115192743765	76	127
701.207029478458	701.4160090702948	68	127
701.3115192743765	701.555328798186	76	127
701.4392290249433	701.7178684807257	69	127
701.5669160997733	701.8339682539682	76	127
701.7294784580499	701.9732653061225	71	127
701.8455782312925	702.089387755102	76	127
701.9732653061225	702.1474376417234	73	127
702.1009977324263	702.263537414966	76	127
702.1590476190477	702.391224489796	74	127
702.2751473922903	702.5305668934241	76	127
702.391224489796	702.6466666666666	75	127
702.5421768707483	702.6466666666666	76	127
702.6582766439909	704.4461904761905	45	127
702.6582766439909	702.8672562358277	73	127
702.7627664399093	702.9601360544218	85	127
702.8672562358277	703.0646258503401	74	127
702.9717460317461	703.1691156462585	85	127
703.0762358276644	703.2736054421769	76	127
703.1807256235828	703.4477551020408	85	127
703.2852154195011	703.5522448979592	78	127
703.4477551020408	703.7147845804989	85	127
703.5638548752835	703.8192517006803	80	127
703.7263945578231	703.9353741496599	85	127
703.8308616780046	704.0166213151928	81	127
703.9353741496599	704.1211337868481	85	127
704.028231292517	704.2256009070295	83	127
704.1327437641723	704.3301133786848	85	127
704.2372108843538	704.4461904761905	84	127
704.3417233560091	704.4461904761905	85	127
704.4461904761905	706.2225396825397	40	127
704.4461904761905	704.6900226757369	76	127
704.5855328798186	704.8061224489796	88	127
704.6900226757369	704.910612244898	78	127
704.8061224489796	705.0151020408164	88	127
704.910612244898	705.1195918367347	80	127
705.0151020408164	705.2240816326531	88	127
705.1195918367347	705.3401814058957	81	127
705.2240816326531	705.4330612244898	88	127
705.3401814058957	705.5143310657596	83	127
705.4446485260771	705.6420408163266	88	127
705.5259410430839	705.7581405895692	85	127
705.6536281179139	705.8626077097506	88	127
705.7697505668934	706.0019501133787	86	127
705.8742176870749	706.1412698412698	88	127
706.013560090703	706.2225396825397	87	127
706.1528798185941	706.2225396825397	88	127
706.234149659864	706.4315192743765	85	127
706.234149659864	706.721768707483	33	127
706.234149659864	706.4315192743765	81	127
706.3386394557823	706.5824489795918	88	127
706.4431292517007	706.721768707483	90	127
706.5940589569161	706.8262585034014	88	127
706.7333786848072	706.942358276644	85	127
706.7333786848072	706.942358276644	81	127
706.8378684807257	707.0700680272109	88	127
706.9771882086168	707.1861678004535	90	127
707.0816553287982	707.3022448979592	88	127
707.1977777777778	707.4531972789116	86	127
707.1977777777778	707.7085941043084	33	127
707.1977777777778	707.4531972789116	83	127
707.3138775510204	707.5809070294785	88	127
707.4648072562359	707.7085941043084	90	127
707.5925170068027	707.8131065759637	88	127
707.7202267573696	707.9175736961452	86	127
707.7202267573696	707.9175736961452	83	127
707.824716553288	708.0336961451247	88	127
707.9292063492063	708.138185941043	90	127
708.045306122449	708.26589569161	88	127
708.1497959183673	708.3936054421769	81	127
708.1497959183673	708.3936054421769	85	127
708.1497959183673	708.6374149659864	33	127
708.2775056689343	708.4980952380953	88	127
708.4052154195011	708.6374149659864	90	127
708.5096825396826	708.7419047619047	88	127
708.6374149659864	708.8463945578231	81	127
708.6374149659864	708.8463945578231	85	127
708.7419047619047	708.9508843537415	88	127
708.8463945578231	709.101814058957	90	127
708.9508843537415	709.2295238095238	88	127
709.101814058957	709.322403628118	83	127
709.101814058957	709.322403628118	86	127
709.101814058957	709.5545804988662	33	127
709.2295238095238	709.4385034013605	88	127
709.322403628118	709.5545804988662	90	127
709.4385034013605	709.7403401360544	88	127
709.5545804988662	709.8332426303855	83	127
709.5545804988662	709.8332426303855	86	127
709.7519501133787	709.9261224489796	88	127
709.8332426303855	710.030612244898	90	127
709.9377324263039	710.030612244898	88	127
710.0422222222222	710.5066213151928	33	127
710.0422222222222	710.1699092970522	85	127
710.0422222222222	710.1699092970522	81	127
710.1815419501133	710.3092517006803	90	127
710.3324716553288	710.5066213151928	88	127
710.518231292517	710.9361904761905	33	127
710.518231292517	710.6459410430839	81	127
710.518231292517	710.6459410430839	85	127
710.6575510204082	710.785260770975	90	127
710.7968707482993	710.9361904761905	88	127
710.9478004535148	711.1103401360544	81	127
710.9478004535148	711.1103401360544	85	127
710.9478004535148	711.3889569160998	33	127
711.1219501133787	711.2496598639456	90	127
711.2612698412698	711.3889569160998	88	127
711.400589569161	711.5282993197279	81	127
711.400589569161	711.5282993197279	85	127
711.400589569161	711.8765986394558	33	127
711.5515192743765	711.7024489795918	90	127
711.7140589569161	711.8765986394558	88	127
711.88820861678	712.0275283446712	81	127
711.88820861678	712.0275283446712	85	127
711.88820861678	712.3642176870749	33	127
712.0391383219954	712.2132653061225	90	127
712.2248979591836	712.3642176870749	88	127
712.3758276643991	712.7821768707483	33	127
712.3758276643991	712.5151473922903	85	127
712.3758276643991	712.5151473922903	81	127
712.5267573696145	712.6776870748299	90	127
712.6776870748299	712.7821768707483	88	127
712.7821768707483	712.9331065759637	81	127
712.7821768707483	712.9331065759637	85	127
712.7821768707483	713.2117460317461	33	127
712.944716553288	713.0724263038549	90	127
713.0840362811791	713.2117460317461	88	127
713.2117460317461	713.3510657596372	81	127
713.2117460317461	713.6645351473923	33	127
713.2117460317461	713.3510657596372	85	127
713.3626757369615	713.5136054421769	90	127
713.5136054421769	713.6645351473923	88	127
713.6761451247165	714.1637641723356	33	127
713.6761451247165	713.8154648526078	85	127
713.6761451247165	713.8154648526078	81	127
713.827052154195	713.9663945578232	90	127
714.001224489796	714.1637641723356	88	127
714.1753741496599	714.2682539682539	86	127
714.2798639455782	714.3727437641724	85	127
714.3843537414966	714.5004535147392	83	127
714.5120634920635	714.6165532879819	81	127
714.6165532879819	714.7674829931973	80	127
714.7790929705216	714.9648526077098	78	127
714.976462585034	715.1041723356009	76	127
715.1041723356009	715.2551020408164	74	127
715.2666893424037	715.4060317460318	73	127
715.417641723356	715.5337414965986	71	127
715.5453514739229	716.4509297052155	57	127
715.5453514739229	715.6846485260771	69	127
715.6846485260771	715.7891609977324	71	127
715.8007709750567	715.8936281179139	69	127
715.905260770975	715.9981405895692	68	127
716.0097505668934	716.1374603174603	69	127
716.1374603174603	716.253560090703	71	127
716.2651700680273	716.346439909297	73	127
716.3580498866213	716.4509297052155	74	127
716.4625396825397	716.5554195011338	76	127
716.4625396825397	717.3797278911564	64	127
716.5554195011338	716.6599092970522	78	127
716.6715192743765	716.7992290249433	79	127
716.8108390022676	716.9036961451247	80	127
716.915306122449	717.0198185941043	81	127
717.0314285714286	717.1475283446712	80	127
717.1475283446712	717.2520181405896	81	127
717.2636281179139	717.3797278911564	80	127
717.3913378684807	718.3201360544218	66	127
717.3913378684807	717.4958276643991	81	127
717.5074149659864	717.623537414966	83	127
717.623537414966	717.7280045351474	81	127
717.7396371882086	717.8557369614513	80	127
717.8673469387755	717.9602267573696	81	127
717.9950566893424	718.0995464852608	83	127
718.0995464852608	718.2040362811791	85	127
718.2156462585034	718.3201360544218	86	127
718.3317233560091	718.4362358276644	87	127
718.3317233560091	719.2373242630385	61	127
718.4478458049887	718.5755555555555	88	127
718.5871655328798	718.6916553287982	87	127
718.6916553287982	718.8077551020408	88	127
718.8309750566893	718.9238548752835	87	127
718.9354648526078	719.0167346938775	88	127
719.0167346938775	719.1328344671202	90	127
719.1328344671202	719.2373242630385	88	127
719.2489342403628	719.3766439909297	86	127
719.2489342403628	721.0949206349206	68	127
719.2489342403628	721.0949206349206	64	127
719.2489342403628	721.0949206349206	59	127
719.3302040816327	719.434693877551	88	127
719.3882539682539	719.4927437641724	86	127
719.4463038548753	719.5739909297052	88	127
719.5043537414966	719.6436734693877	86	127
719.5739909297052	719.7133333333334	88	127
719.6436734693877	719.8062131519274	86	127
719.7249433106576	719.875873015873	88	127
719.8178231292517	719.9455328798186	86	127
719.8874829931973	720.0151927437641	88	127
719.9571428571429	720.1312925170068	86	127
720.0268027210884	720.1893197278912	88	127
720.1312925170068	720.2473922902494	86	127
720.2009523809523	720.317052154195	88	127
720.2590022675737	720.3866893424037	86	127
720.3286621315193	720.4563718820862	88	127
720.3983219954648	720.5608616780046	86	127
720.4679818594104	720.6305215419501	88	127
720.5608616780046	720.7466213151928	86	127
720.6305215419501	720.8162811791383	88	127
720.758231292517	720.9091609977324	86	127
720.8395011337868	721.025260770975	85	127
720.9439909297053	721.0949206349206	88	127
721.0368707482993	721.0949206349206	86	127
721.1065306122449	721.6289795918367	85	127
721.1065306122449	721.6289795918367	69	127
721.1065306122449	721.6289795918367	61	127
721.1065306122449	721.6289795918367	64	127
723.1382766439909	725.0887301587302	59	127
723.1382766439909	723.2543537414966	74	127
723.1382766439909	725.0887301587302	64	127
723.1382766439909	725.0887301587302	56	127
723.2079365079366	723.3240362811791	76	127
723.2543537414966	723.405306122449	74	127
723.3240362811791	723.4517233560091	76	127
723.405306122449	723.5097959183673	74	127
723.4633560090703	723.579455782313	76	127
723.5214058956916	723.6839455782313	74	127
723.6142857142858	723.7536054421769	76	127
723.6955555555555	723.846462585034	74	127
723.7652154195011	723.9161451247165	76	127
723.846462585034	723.9974149659864	74	127
723.9277551020408	724.0554421768708	76	127
724.0090249433107	724.1367346938775	74	127
724.067052154195	724.2180045351474	76	127
724.1599546485261	724.3108843537415	74	127
724.2296145124717	724.3805442176871	76	127
724.3108843537415	724.46179138322	74	127
724.3805442176871	724.5314739229025	76	127
724.4734013605442	724.6011337868481	74	127
724.5430839002267	724.6707709750567	76	127
724.6127437641724	724.7636734693878	74	127
724.682380952381	724.9262131519274	73	127
724.8101133786848	725.0887301587302	76	127
724.9262131519274	725.0887301587302	74	127
725.1003628117913	725.6228117913832	57	127
725.1003628117913	725.6228117913832	73	127
725.1003628117913	725.6228117913832	61	127
725.1003628117913	725.6228117913832	64	127
727.027619047619	729.0361451247165	62	127
727.027619047619	729.0361451247165	59	127
727.027619047619	727.1669387755102	68	127
727.027619047619	729.0361451247165	52	127
727.0972789115647	727.2714285714286	69	127
727.1785487528344	727.3410657596372	68	127
727.2830385487529	727.422358276644	69	127
727.3526984126984	727.5848979591836	68	127
727.4339682539683	727.6661678004535	69	127
727.6081179138322	727.7358049886622	68	127
727.6777777777778	727.8170975056689	69	127
727.7358049886622	727.8983673469388	68	127
727.8287074829932	728.0609070294785	66	127
728.0725170068027	728.2931065759637	68	127
728.1653968253968	728.3975963718821	69	127
728.2931065759637	728.5136961451248	71	127
728.4092063492063	728.6530158730159	73	127
728.5369160997733	728.8503854875283	74	127
728.6646258503401	728.9316553287982	76	127
728.8503854875283	729.0361451247165	78	127
728.9432653061225	729.0361451247165	80	127
729.0477551020408	729.2683446712018	57	127
729.0477551020408	729.2683446712018	61	127
729.0477551020408	729.361224489796	81	127
729.1986848072562	729.5353741496599	83	127
729.361224489796	729.6514739229025	85	127
729.5469841269842	729.8140136054421	86	127
729.5469841269842	729.7327437641724	62	127
729.5469841269842	729.7327437641724	50	127
729.5469841269842	729.7327437641724	57	127
729.6630839002268	729.9997505668935	88	127
729.8140136054421	730.1274829931973	90	127
730.0113832199546	730.2087301587302	88	127
730.0113832199546	730.2087301587302	52	127
730.0113832199546	730.2087301587302	57	127
730.0113832199546	730.2087301587302	61	127
730.4641723356009	730.731201814059	86	127
730.4641723356009	730.731201814059	92	127
730.4641723356009	730.731201814059	52	127
730.4641723356009	730.731201814059	40	127
730.4641723356009	730.731201814059	83	127
731.0214285714286	731.5206802721088	45	127
731.0214285714286	731.5206802721088	93	127
731.0214285714286	731.5206802721088	85	127
731.0214285714286	731.5206802721088	81	127
731.0214285714286	731.5206802721088	57	127
732.0199092970522	734.5508843537415	68	127
732.0199092970522	734.5508843537415	40	127
732.0199092970522	734.5508843537415	62	127
732.0199092970522	734.5508843537415	59	127
732.0199092970522	734.5508843537415	64	127
732.0199092970522	734.5508843537415	52	127
746.2653514739229	746.9967800453514	61	127
746.2653514739229	746.9967800453514	45	127
746.2653514739229	746.9967800453514	57	127
746.2653514739229	746.9967800453514	64	127
746.2653514739229	746.9967800453514	69	127
746.2653514739229	746.9967800453514	33	127
