# onset,offset,note,velocity
7.835963718820862	8.381632653061224	52	127
8.59061224489796	9.020181405895691	57	127
9.252380952380953	9.670340136054422	59	127
9.670340136054422	9.728390022675738	60	127
9.728390022675738	9.77482993197279	59	127
9.77482993197279	9.867709750566894	57	127
9.867709750566894	10.15795918367347	59	127
10.15795918367347	10.45981859410431	60	127
10.796507936507936	11.330566893424036	62	127
11.516326530612245	11.945895691609977	64	127
12.154875283446712	12.294195011337868	62	127
12.352244897959183	12.398684807256236	62	127
12.398684807256236	12.538004535147392	60	127
12.538004535147392	12.712154195011339	59	127
12.75859410430839	12.944353741496599	57	127
13.014013605442177	13.072063492063492	60	127
13.072063492063492	13.211383219954648	59	127
13.211383219954648	13.408752834467121	57	127
14.883219954648526	15.277959183673469	64	127
15.277959183673469	15.428888888888888	62	127
15.475328798185942	15.62625850340136	60	127
15.707528344671202	15.753968253968255	64	127
15.753968253968255	15.916507936507937	62	127
15.916507936507937	16.11387755102041	60	127
17.5418820861678	17.95986394557823	60	127
17.971473922902494	18.11077097505669	59	127
18.168843537414965	18.34299319727891	57	127
18.389433106575964	18.435873015873018	60	127
18.435873015873018	18.586802721088436	59	127
18.586802721088436	18.842222222222222	57	127
19.09764172335601	19.271791383219956	65	127
19.666530612244898	19.921950113378685	65	127
20.46761904761905	20.688208616780045	64	127
21.140997732426303	21.349954648526076	67	127
21.872426303854876	22.1162358276644	67	127
22.627074829931974	22.824444444444445	71	127
23.091473922902495	23.31204081632653	71	127
23.323673469387757	24.0318820861678	71	127
24.043492063492064	24.64721088435374	63	127
24.670430839002268	24.879410430839002	64	127
25.982358276643993	26.609297052154194	71	127
26.62090702947846	27.340725623582767	63	127
27.35233560090703	27.93283446712018	64	127
27.944444444444443	28.606213151927438	62	127
28.6178231292517	28.80358276643991	60	127
30.045850340136056	30.63795918367347	64	127
30.649569160997732	31.241678004535146	56	127
31.311337868480727	31.926666666666666	57	127
31.926666666666666	33.296621315192745	64	127
33.296621315192745	34.631791383219955	57	127
34.631791383219955	35.97854875283447	62	127
35.97854875283447	36.930566893424036	67	127
36.930566893424036	37.081496598639454	67	127
37.12793650793651	37.267256235827666	64	127
37.32530612244898	37.5691156462585	69	127
37.5691156462585	37.731632653061226	65	127
37.77809523809524	37.92902494331066	62	127
37.98705215419501	38.2424716553288	67	127
38.2424716553288	38.39342403628118	64	127
38.43986394557823	38.60240362811791	60	127
39.31061224489796	39.51956916099773	67	127
39.51956916099773	39.670521541950116	62	127
39.716961451247165	40.053650793650796	59	127
43.39732426303855	43.583061224489796	62	127
43.64113378684807	43.82687074829932	62	127
43.82687074829932	43.8849433106576	64	127
43.8849433106576	43.94299319727891	62	127
43.94299319727891	44.0707029478458	60	127
44.0707029478458	44.34934240362812	62	127
44.34934240362812	44.53510204081633	64	127
46.19532879818594	46.369455782312926	59	127
46.4275283446712	46.659727891156464	59	127
46.659727891156464	46.72938775510204	60	127
46.72938775510204	46.79904761904762	59	127
46.79904761904762	46.984807256235825	57	127
46.984807256235825	47.205396825396825	59	127
47.205396825396825	47.41437641723356	60	127
47.634965986394555	48.018095238095235	64	127
48.238684807256234	48.76113378684807	64	127
49.03977324263039	49.457732426303856	69	127
49.68993197278912	49.92213151927437	69	127
49.92213151927437	50.14272108843537	68	127
50.39814058956916	50.85092970521542	64	127
51.12956916099773	51.5475283446712	64	127
51.7681179138322	52.04675736961451	64	127
52.04675736961451	52.23251700680272	69	127
52.47632653061225	52.76657596371882	69	127
52.76657596371882	52.96394557823129	68	127
53.230975056689346	53.498004535147395	64	127
53.498004535147395	53.69537414965986	57	127
53.91596371882086	54.206213151927436	57	127
54.206213151927436	54.40358276643991	52	127
54.589342403628116	54.83315192743764	52	127
54.83315192743764	55.076961451247165	45	127
55.378820861678	55.599410430839	45	127
55.599410430839	55.91287981859411	40	127
56.1334693877551	56.59786848072562	64	127
56.830068027210885	57.29446712018141	64	127
57.526666666666664	57.99106575963719	64	127
58.22326530612245	58.687664399092974	64	127
58.908253968253966	59.36104308390023	69	127
59.558412698412695	59.941541950113375	71	127
59.941541950113375	59.999591836734695	72	127
59.999591836734695	60.0924716553288	71	127
60.0924716553288	60.19696145124716	69	127
60.19696145124716	60.44077097505669	71	127
60.44077097505669	60.649750566893424	72	127
60.91678004535147	61.33473922902494	74	127
61.578548752834465	62.0081179138322	76	127
62.20548752834467	62.55378684807256	74	127
62.55378684807256	62.611836734693874	76	127
62.611836734693874	62.70471655328798	74	127
62.70471655328798	62.80920634920635	72	127
62.80920634920635	63.05301587301587	74	127
63.05301587301587	63.2968253968254	76	127
63.552244897959184	63.95859410430839	71	127
64.19079365079365	64.63197278911565	72	127
64.86417233560091	65.34018140589569	71	127
65.34018140589569	65.38662131519274	72	127
65.38662131519274	65.43306122448979	71	127
65.43306122448979	65.5259410430839	69	127
65.5259410430839	65.78136054421769	71	127
65.78136054421769	66.02517006802721	69	127
66.22251700680272	66.6869387755102	69	127
66.88430839002268	67.08167800453515	68	127
67.08167800453515	67.26743764172336	69	127
67.62734693877552	68.09174603174603	69	127
68.30072562358276	68.53292517006803	68	127
68.53292517006803	68.77673469387756	69	127
68.96249433106576	69.15986394557824	68	127
69.15986394557824	69.368820861678	69	127
69.58943310657597	69.86807256235828	68	127
69.86807256235828	70.1118820861678	69	127
70.29764172335601	70.50662131519275	68	127
70.50662131519275	70.70399092970521	69	127
70.97102040816327	71.19160997732426	68	127
71.19160997732426	74.24503401360545	69	127
77.75122448979592	78.42462585034014	52	127
77.75122448979592	78.42462585034014	61	127
78.47106575963718	79.0980045351474	50	127
78.47106575963718	79.0980045351474	59	127
79.0980045351474	79.6320634920635	54	127
79.0980045351474	79.6320634920635	62	127
79.6320634920635	79.93392290249433	52	127
79.6320634920635	79.93392290249433	61	127
79.93392290249433	80.60730158730159	52	127
79.93392290249433	80.60730158730159	61	127
80.61891156462585	81.37356009070295	64	127
81.37356009070295	82.03532879818594	62	127
82.03532879818594	82.56938775510204	66	127
82.03532879818594	82.56938775510204	62	127
82.56938775510204	82.87124716553288	64	127
82.56938775510204	82.87124716553288	61	127
82.88285714285715	83.11505668934241	57	127
82.88285714285715	83.11505668934241	61	127
85.99433106575964	86.21492063492063	52	127
86.21492063492063	86.41229024943311	59	127
86.41229024943311	86.58643990929706	61	127
86.6328798185941	86.83024943310657	61	127
86.86507936507937	87.09727891156463	59	127
87.09727891156463	87.23659863945578	59	127
87.2946485260771	87.49201814058956	59	127
87.49201814058956	87.7009977324263	61	127
87.7009977324263	87.87514739229024	62	127
87.94480725623583	88.21183673469388	62	127
88.21183673469388	88.40918367346939	61	127
88.40918367346939	88.65301587301587	57	127
89.16385487528345	89.86045351473923	52	127
89.16385487528345	89.86045351473923	61	127
89.86045351473923	90.47578231292518	50	127
89.86045351473923	90.47578231292518	59	127
90.47578231292518	90.92857142857143	54	127
90.47578231292518	90.92857142857143	62	127
90.94015873015873	91.1259410430839	52	127
90.94015873015873	91.1259410430839	61	127
91.1259410430839	91.79931972789116	52	127
91.1259410430839	91.79931972789116	61	127
91.79931972789116	92.72809523809524	64	127
92.72809523809524	93.45954648526077	62	127
93.45954648526077	93.93555555555555	66	127
93.45954648526077	93.93555555555555	62	127
93.93555555555555	94.13290249433106	64	127
93.93555555555555	94.13290249433106	61	127
94.16775510204081	94.4580045351474	57	127
94.16775510204081	94.4580045351474	61	127
97.23278911564626	97.48820861678004	52	127
97.48820861678004	97.69718820861678	59	127
97.69718820861678	97.87133786848072	61	127
97.91777777777777	98.11514739229025	61	127
98.11514739229025	98.37056689342404	59	127
98.3821768707483	98.54471655328798	59	127
98.6027664399093	98.83496598639456	59	127
98.83496598639456	99.1019954648526	61	127
99.1019954648526	99.25292517006802	62	127
99.31097505668934	99.53156462585034	62	127
99.53156462585034	99.77537414965987	61	127
99.77537414965987	100.04240362811791	57	127
100.26299319727892	100.48358276643991	61	127
100.48358276643991	100.7041723356009	59	127
100.97120181405896	101.16857142857143	61	127
101.16857142857143	101.41238095238096	59	127
101.63297052154195	101.93482993197279	61	127
101.93482993197279	102.15541950113379	59	127
102.38761904761905	102.63142857142857	61	127
102.63142857142857	102.82879818594104	59	127
103.08421768707483	103.31641723356009	61	127
103.31641723356009	103.60666666666667	59	127
103.83886621315193	104.11750566893424	61	127
104.11750566893424	104.38453514739228	59	127
104.61673469387755	104.83732426303855	61	127
104.83732426303855	105.08113378684807	59	127
105.37138321995465	105.83578231292518	61	127
105.84739229024943	105.97510204081632	59	127
105.97510204081632	106.09120181405896	61	127
106.09120181405896	106.19569160997733	59	127
106.19569160997733	106.30018140589569	61	127
106.30018140589569	106.40467120181405	59	127
106.40467120181405	106.50916099773242	61	127
106.50916099773242	106.63687074829932	59	127
106.63687074829932	106.74136054421768	61	127
106.74136054421768	106.8342403628118	59	127
106.8342403628118	106.95034013605442	61	127
106.95034013605442	107.05482993197279	59	127
107.05482993197279	107.14770975056689	61	127
107.14770975056689	107.26380952380953	59	127
107.26380952380953	107.37990929705215	61	127
107.37990929705215	107.49600907029479	59	127
107.49600907029479	107.60049886621316	61	127
107.60049886621316	107.75142857142858	59	127
107.75142857142858	107.89074829931972	61	127
107.89074829931972	107.9952380952381	59	127
107.9952380952381	108.08811791383219	61	127
108.08811791383219	108.19260770975056	59	127
108.19260770975056	108.28548752834467	61	127
108.28548752834467	108.38997732426304	59	127
108.38997732426304	108.52929705215419	61	127
108.52929705215419	108.65700680272109	59	127
108.65700680272109	108.76149659863945	61	127
108.76149659863945	108.94725623582767	59	127
108.94725623582767	109.07496598639456	61	127
109.07496598639456	109.17945578231293	59	127
109.17945578231293	109.2839455782313	61	127
109.2839455782313	109.40004535147392	62	127
109.40004535147392	109.49292517006803	61	127
109.49292517006803	109.58580498866213	62	127
109.58580498866213	109.6902947845805	61	127
109.6902947845805	109.80639455782313	62	127
109.80639455782313	109.94571428571429	61	127
109.94571428571429	110.14308390022676	59	127
110.14308390022676	110.23596371882086	57	127
110.23596371882086	110.34045351473922	59	127
110.34045351473922	110.44494331065759	57	127
110.44494331065759	110.56104308390023	59	127
110.56104308390023	110.6655328798186	57	127
110.6655328798186	110.7584126984127	56	127
110.7584126984127	110.89773242630386	54	127
110.89773242630386	111.01383219954648	56	127
111.01383219954648	111.12993197278911	54	127
111.12993197278911	111.23442176870748	56	127
111.23442176870748	111.32730158730159	54	127
111.32730158730159	111.43179138321996	52	127
111.43179138321996	111.53628117913833	54	127
111.53628117913833	111.65238095238095	52	127
111.65238095238095	111.78009070294785	54	127
111.78009070294785	111.91941043083901	52	127
111.91941043083901	112.0471201814059	54	127
112.0471201814059	112.15160997732427	50	127
112.15160997732427	112.24448979591837	52	127
112.24448979591837	112.39541950113379	50	127
112.39541950113379	112.51151927437641	52	127
112.51151927437641	112.73210884353742	50	127
112.73210884353742	112.90625850340136	52	127
112.90625850340136	113.01074829931973	49	127
113.01074829931973	113.12684807256235	50	127
113.12684807256235	113.24294784580499	49	127
113.24294784580499	113.33582766439909	50	127
113.33582766439909	113.50997732426303	49	127
113.50997732426303	113.6144671201814	50	127
113.6144671201814	113.73056689342404	47	127
113.73056689342404	113.83505668934241	49	127
113.83505668934241	113.93954648526078	47	127
113.93954648526078	114.04403628117913	49	127
114.04403628117913	114.17174603174603	47	127
114.17174603174603	114.26462585034014	49	127
114.26462585034014	114.38072562358276	45	127
114.38072562358276	114.48521541950113	47	127
114.48521541950113	114.5897052154195	45	127
114.5897052154195	114.69419501133787	47	127
114.69419501133787	114.82190476190476	45	127
114.82190476190476	114.94961451247165	47	127
114.94961451247165	115.07732426303855	45	127
115.07732426303855	115.19342403628117	47	127
115.19342403628117	115.36757369614513	45	127
115.36757369614513	115.46045351473923	47	127
115.46045351473923	115.64621315192744	45	127
115.64621315192744	115.89002267573696	47	127
115.89002267573696	116.02934240362812	45	127
116.02934240362812	116.13383219954649	47	127
116.13383219954649	116.26154195011338	45	127
116.26154195011338	116.40086167800453	47	127
116.40086167800453	116.51696145124717	45	127
116.51696145124717	116.6330612244898	47	127
116.6330612244898	116.74916099773243	45	127
116.74916099773243	116.83043083900226	47	127
116.83043083900226	116.93492063492063	45	127
116.93492063492063	117.05102040816327	47	127
117.05102040816327	117.27160997732426	45	127
117.27160997732426	117.46897959183673	47	127
117.46897959183673	117.56185941043084	45	127
117.56185941043084	117.71278911564626	47	127
117.71278911564626	117.84049886621315	45	127
117.84049886621315	117.96820861678005	47	127
117.96820861678005	118.07269841269841	45	127
118.07269841269841	118.21201814058956	47	127
118.21201814058956	118.36294784580498	45	127
118.36294784580498	118.47904761904762	47	127
118.47904761904762	118.59514739229024	45	127
118.59514739229024	118.71124716553288	47	127
118.71124716553288	118.8273469387755	45	127
118.8273469387755	118.93183673469387	47	127
118.93183673469387	119.14081632653061	45	127
119.14081632653061	119.24530612244898	47	127
119.24530612244898	119.38462585034014	45	127
119.38462585034014	119.4891156462585	47	127
119.4891156462585	119.59360544217687	45	127
119.59360544217687	119.69809523809523	47	127
119.69809523809523	119.8374149659864	45	127
119.8374149659864	120.01156462585034	47	127
120.01156462585034	120.11605442176871	45	127
120.11605442176871	120.25537414965986	47	127
120.25537414965986	120.35986394557823	45	127
120.35986394557823	120.4643537414966	47	127
120.4643537414966	120.59206349206349	45	127
120.59206349206349	120.76621315192743	47	127
120.76621315192743	120.85909297052154	45	127
120.85909297052154	120.98680272108844	47	127
120.98680272108844	121.13773242630386	45	127
121.13773242630386	121.24222222222222	47	127
121.24222222222222	121.3467120181406	45	127
121.3467120181406	121.43959183673469	47	127
121.43959183673469	121.59052154195011	45	127
121.59052154195011	121.7530612244898	47	127
121.7530612244898	121.86916099773242	45	127
121.86916099773242	121.97365079365079	47	127
121.97365079365079	122.08975056689343	45	127
122.08975056689343	122.24068027210885	47	127
122.24068027210885	122.34517006802722	45	127
122.34517006802722	122.43804988662131	47	127
122.43804988662131	122.55414965986395	45	127
122.55414965986395	122.67024943310658	47	127
122.67024943310658	122.79795918367347	45	127
122.79795918367347	122.92566893424036	47	127
122.92566893424036	123.01854875283446	45	127
123.01854875283446	123.14625850340136	47	127
123.14625850340136	123.27396825396825	45	127
123.27396825396825	123.37845804988662	47	127
123.37845804988662	123.50616780045351	45	127
123.50616780045351	123.61065759637188	47	127
123.61065759637188	123.703537414966	45	127
123.703537414966	123.85446712018141	47	127
123.85446712018141	123.95895691609978	45	127
123.95895691609978	124.0750566893424	47	127
124.0750566893424	124.23759637188209	45	127
124.23759637188209	124.33047619047619	47	127
124.33047619047619	124.44657596371881	45	127
124.44657596371881	124.55106575963718	47	127
124.55106575963718	124.76004535147392	45	127
124.76004535147392	124.87614512471656	47	127
124.87614512471656	124.96902494331066	45	127
124.96902494331066	125.07351473922903	47	127
125.07351473922903	125.16639455782312	45	127
125.16639455782312	125.2708843537415	47	127
125.2708843537415	125.39859410430839	45	127
125.39859410430839	125.47986394557823	47	127
125.47986394557823	125.63079365079365	45	127
125.63079365079365	125.79333333333334	47	127
125.79333333333334	125.8978231292517	45	127
125.8978231292517	126.01392290249433	47	127
126.01392290249433	126.1184126984127	45	127
126.1184126984127	126.26934240362812	47	127
126.26934240362812	126.37383219954648	45	127
126.37383219954648	126.51315192743765	47	127
126.51315192743765	126.68730158730159	45	127
126.68730158730159	126.78018140589569	47	127
126.78018140589569	126.88467120181406	45	127
126.88467120181406	126.98916099773243	47	127
126.98916099773243	127.08204081632653	45	127
127.08204081632653	127.19814058956916	47	127
127.19814058956916	127.33746031746031	45	127
127.33746031746031	127.44195011337868	47	127
127.44195011337868	127.54643990929705	45	127
127.54643990929705	127.6277097505669	47	127
127.6277097505669	127.74380952380952	45	127
127.74380952380952	127.89473922902495	47	127
127.89473922902495	127.97600907029478	45	127
127.97600907029478	128.11532879818594	47	127
128.11532879818594	128.3126984126984	45	127
128.3126984126984	128.41718820861678	47	127
128.41718820861678	128.52167800453515	45	127
128.52167800453515	128.61455782312925	47	127
128.61455782312925	128.76548752834466	45	127
128.76548752834466	128.90480725623584	47	127
128.90480725623584	129.00927437641724	45	127
129.00927437641724	129.1137641723356	47	127
129.1137641723356	129.31115646258505	45	127
129.5433560090703	129.7755328798186	47	127
129.7755328798186	130.06580498866214	45	127
130.3328344671202	130.56503401360544	47	127
130.56503401360544	130.77401360544218	45	127
131.00619047619048	131.22680272108843	47	127
131.22680272108843	131.43578231292517	45	127
131.66795918367347	131.958231292517	47	127
131.958231292517	135.04646258503402	45	127
135.94045351473923	136.16104308390024	47	127
136.16104308390024	136.38163265306122	45	127
137.26399092970522	137.54263038548754	47	127
137.54263038548754	137.76321995464852	45	127
145.66961451247167	146.09918367346938	52	127
146.30816326530612	146.80739229024942	57	127
147.02798185941043	147.48077097505669	59	127
147.48077097505669	147.538820861678	60	127
147.538820861678	147.58526077097505	59	127
147.58526077097505	147.67814058956915	57	127
147.67814058956915	147.92192743764173	59	127
147.92192743764173	148.1077097505669	60	127
148.3282993197279	148.80430839002267	62	127
149.04809523809524	149.47768707482993	64	127
149.66342403628119	149.82598639455782	62	127
149.88403628117914	149.93047619047618	62	127
149.93047619047618	150.0697732426304	60	127
150.0697732426304	150.26716553287983	59	127
150.31360544217688	150.4645351473923	57	127
150.5341723356009	150.60385487528345	60	127
150.60385487528345	150.76639455782313	59	127
150.76639455782313	151.02181405895692	57	127
152.36857142857144	152.72845804988663	64	127
152.72845804988663	152.93743764172336	62	127
152.9838775510204	153.1348299319728	60	127
153.20448979591836	153.2509297052154	64	127
153.2509297052154	153.3902494331066	62	127
153.3902494331066	153.6340589569161	60	127
155.0504761904762	155.43360544217688	60	127
155.43360544217688	155.57292517006803	59	127
155.61936507936508	155.78190476190477	57	127
155.8399546485261	155.88639455782314	60	127
155.88639455782314	156.04893424036283	59	127
156.04893424036283	156.35079365079366	57	127
156.57138321995464	156.75714285714287	65	127
157.25637188208617	157.44213151927437	65	127
157.95297052154194	158.1271201814059	64	127
158.6031292517007	158.7888888888889	67	127
159.35777777777778	159.6015873015873	67	127
160.03115646258505	160.24013605442178	71	127
160.53038548752835	160.75097505668936	71	127
160.75097505668936	161.3314739229025	71	127
161.3314739229025	161.98160997732427	63	127
161.99324263038548	162.20222222222222	64	127
163.4328798185941	164.04820861678004	71	127
164.0598185941043	164.6287074829932	63	127
164.65192743764172	165.3833560090703	64	127
165.39496598639457	166.07995464852607	62	127
166.09156462585034	166.32376417233561	60	127
167.4034693877551	168.018820861678	64	127
168.0536507936508	168.7154195011338	56	127
168.7270068027211	169.41201814058957	57	127
169.42362811791384	170.74716553287982	64	127
170.7587755102041	172.12875283446712	57	127
172.12875283446712	173.49873015873015	62	127
173.49873015873015	174.34625850340137	67	127
174.34625850340137	174.48557823129252	67	127
174.53201814058957	174.67133786848072	64	127
174.76419501133788	175.03124716553287	69	127
175.03124716553287	175.2402267573696	65	127
175.28666666666666	175.44920634920635	62	127
175.50725623582767	175.70462585034014	67	127
175.70462585034014	175.85555555555555	64	127
175.9019954648526	176.0645351473923	60	127
176.81918367346938	177.05138321995466	67	127
177.05138321995466	177.20231292517008	62	127
177.29519274376418	177.51578231292518	59	127
180.82462585034014	180.95233560090702	62	127
181.03360544217688	181.2077551020408	62	127
181.2077551020408	181.26580498866213	64	127
181.26580498866213	181.3354648526077	62	127
181.3354648526077	181.45156462585035	60	127
181.45156462585035	181.6837641723356	62	127
181.6837641723356	181.88113378684807	64	127
183.5645804988662	183.7271201814059	59	127
183.7851700680272	183.99414965986395	59	127
184.00575963718822	184.05219954648527	60	127
184.05219954648527	184.09863945578232	59	127
184.09863945578232	184.21473922902496	57	127
184.21473922902496	184.40049886621316	59	127
184.40049886621316	184.6791156462585	60	127
184.91133786848073	185.38734693877552	64	127
185.6079365079365	186.10714285714286	64	127
186.35097505668935	186.78054421768707	69	127
186.9778911564626	187.17528344671203	69	127
187.17528344671203	187.34943310657596	68	127
187.5584126984127	188.13891156462586	64	127
188.3478911564626	188.78907029478458	64	127
189.05609977324264	189.31151927437642	64	127
189.31151927437642	189.49727891156462	69	127
189.7526984126984	189.95006802721088	69	127
189.95006802721088	190.1358276643991	68	127
190.4144671201814	190.62344671201814	64	127
190.62344671201814	190.84403628117914	57	127
191.05301587301588	191.26199546485262	57	127
191.26199546485262	191.4825850340136	52	127
191.73800453514738	191.9585941043084	52	127
191.9585941043084	192.19079365079364	45	127
192.4229931972789	192.69002267573697	45	127
192.69002267573697	192.9918820861678	40	127
193.18925170068027	193.59560090702948	64	127
193.78136054421768	194.19931972789115	64	127
194.3734693877551	194.93074829931973	64	127
195.17455782312925	195.61573696145123	64	127
195.80149659863946	196.23106575963718	69	127
196.45165532879818	196.86961451247166	71	127
196.86961451247166	196.92766439909298	72	127
196.92766439909298	197.03215419501134	71	127
197.03215419501134	197.11342403628117	69	127
197.11342403628117	197.3224036281179	71	127
197.3224036281179	197.58943310657597	72	127
197.82163265306122	198.2395918367347	74	127
198.44857142857143	198.83170068027212	76	127
199.09873015873015	199.47024943310657	74	127
199.47024943310657	199.5282993197279	76	127
199.5282993197279	199.64439909297053	74	127
199.64439909297053	199.73727891156463	72	127
199.73727891156463	199.96947845804988	74	127
199.96947845804988	200.1552380952381	76	127
200.36421768707484	200.77056689342405	71	127
201.0608163265306	201.49038548752836	72	127
201.73419501133787	202.15215419501135	71	127
202.15215419501135	202.2218140589569	72	127
202.2218140589569	202.314693877551	71	127
202.314693877551	202.41918367346938	69	127
202.41918367346938	202.63977324263038	71	127
202.63977324263038	202.82553287981858	69	127
203.1041723356009	203.55696145124716	69	127
203.7427210884354	203.9517006802721	68	127
203.9517006802721	204.21873015873015	69	127
204.4277097505669	204.90371882086168	69	127
205.18235827664398	205.37972789115645	68	127
205.37972789115645	205.63514739229024	69	127
205.8673469387755	206.07632653061225	68	127
206.07632653061225	206.26208616780045	69	127
206.47106575963718	206.70326530612246	68	127
206.70326530612246	206.91224489795917	69	127
207.16766439909298	207.4114739229025	68	127
207.4114739229025	207.63206349206348	69	127
207.88748299319727	208.096462585034	68	127
208.096462585034	211.0221768707483	69	127
214.40068027210884	215.12049886621315	52	127
214.40068027210884	215.12049886621315	61	127
215.12049886621315	215.7590476190476	50	127
215.12049886621315	215.7590476190476	59	127
215.7590476190476	216.20022675736962	54	127
215.7590476190476	216.20022675736962	62	127
216.2118367346939	216.4556462585034	52	127
216.2118367346939	216.4556462585034	61	127
216.4556462585034	217.1174149659864	52	127
216.4556462585034	217.1174149659864	61	127
217.12902494331067	217.97655328798186	64	127
217.97655328798186	218.62671201814058	62	127
218.62671201814058	219.0678911564626	66	127
218.62671201814058	219.0678911564626	62	127
219.0678911564626	219.27687074829933	64	127
219.0678911564626	219.27687074829933	61	127
219.3117006802721	219.55551020408163	57	127
219.3117006802721	219.55551020408163	61	127
222.3999546485261	222.6089342403628	52	127
222.6089342403628	222.81791383219954	59	127
222.81791383219954	222.9920634920635	61	127
223.09655328798186	223.31714285714287	61	127
223.31714285714287	223.52612244897958	59	127
223.53773242630385	223.67705215419502	59	127
223.74671201814058	223.95569160997732	59	127
223.95569160997732	224.2111111111111	61	127
224.2111111111111	224.38526077097507	62	127
224.47814058956916	224.6871201814059	62	127
224.6871201814059	224.88448979591837	61	127
224.88448979591837	225.15151927437643	57	127
225.61591836734695	226.27768707482994	52	127
225.61591836734695	226.27768707482994	61	127
226.27768707482994	227.03233560090703	50	127
226.27768707482994	227.03233560090703	59	127
227.03233560090703	227.49673469387756	54	127
227.03233560090703	227.49673469387756	62	127
227.49673469387756	227.7289342403628	52	127
227.49673469387756	227.7289342403628	61	127
227.7289342403628	228.41392290249433	52	127
227.7289342403628	228.41392290249433	61	127
228.41392290249433	229.13374149659865	64	127
229.13374149659865	229.83034013605442	62	127
229.83034013605442	230.25990929705216	66	127
229.83034013605442	230.25990929705216	62	127
230.25990929705216	230.4921088435374	64	127
230.25990929705216	230.4921088435374	61	127
230.4921088435374	230.68947845804988	57	127
230.4921088435374	230.68947845804988	61	127
233.55714285714285	233.74290249433108	52	127
233.75451247165532	233.99832199546486	59	127
233.99832199546486	234.14925170068028	61	127
234.19569160997733	234.42789115646258	61	127
234.42789115646258	234.64848072562359	59	127
234.66009070294785	234.82263038548754	59	127
234.88068027210883	235.07804988662133	59	127
235.07804988662133	235.32185941043085	61	127
235.32185941043085	235.48439909297053	62	127
235.53083900226758	235.73981859410432	62	127
235.75142857142856	235.97201814058957	61	127
235.97201814058957	236.16938775510204	57	127
236.4364172335601	236.64539682539683	61	127
236.6570068027211	236.87759637188208	59	127
237.10979591836735	237.3187755102041	61	127
237.3187755102041	237.58580498866212	59	127
237.8760544217687	238.1314739229025	61	127
238.1314739229025	238.36367346938775	59	127
238.58426303854876	238.82807256235827	61	127
238.83968253968254	239.08349206349206	59	127
239.36213151927439	239.58272108843536	61	127
239.58272108843536	239.84975056689342	59	127
240.11678004535148	240.31414965986394	61	127
240.31414965986394	240.52312925170068	59	127
240.82498866213152	241.03396825396825	61	127
241.0571882086168	241.2661678004535	59	127
241.4867573696145	241.84666666666666	61	127
241.84666666666666	241.95115646258503	59	127
241.95115646258503	242.06725623582767	61	127
242.06725623582767	242.1833560090703	59	127
242.1833560090703	242.28784580498865	61	127
242.28784580498865	242.38072562358278	59	127
242.38072562358278	242.50843537414966	61	127
242.50843537414966	242.63614512471656	59	127
242.63614512471656	242.72902494331066	61	127
242.72902494331066	242.83351473922903	59	127
242.83351473922903	242.92639455782313	61	127
242.92639455782313	243.08893424036282	59	127
243.08893424036282	243.1934240362812	61	127
243.1934240362812	243.32113378684807	59	127
243.32113378684807	243.46045351473924	61	127
243.46045351473924	243.57655328798185	59	127
243.57655328798185	243.66943310657595	61	127
243.66943310657595	243.77392290249432	59	127
243.77392290249432	243.86680272108845	61	127
243.86680272108845	243.98290249433106	59	127
243.98290249433106	244.11061224489796	61	127
244.11061224489796	244.21510204081633	59	127
244.21510204081633	244.35442176870748	61	127
244.35442176870748	244.44730158730158	59	127
244.44730158730158	244.58662131519273	61	127
244.58662131519273	244.71433106575964	59	127
244.71433106575964	244.80721088435374	61	127
244.80721088435374	244.9117006802721	59	127
244.9117006802721	245.0045804988662	61	127
245.0045804988662	245.10907029478457	59	127
245.10907029478457	245.2251700680272	61	127
245.2251700680272	245.39931972789117	62	127
245.39931972789117	245.53863945578232	61	127
245.53863945578232	245.64312925170069	62	127
245.64312925170069	245.80566893424037	61	127
245.80566893424037	245.89854875283447	62	127
245.89854875283447	245.99142857142857	61	127
245.99142857142857	246.11913832199548	59	127
246.11913832199548	246.2352380952381	57	127
246.2352380952381	246.33972789115646	59	127
246.33972789115646	246.4790476190476	57	127
246.4790476190476	246.57192743764173	59	127
246.57192743764173	246.6764172335601	57	127
246.6764172335601	246.78090702947847	56	127
246.78090702947847	246.92022675736962	54	127
246.92022675736962	247.024716553288	56	127
247.024716553288	247.1175963718821	54	127
247.1175963718821	247.2104761904762	56	127
247.2104761904762	247.31496598639455	54	127
247.31496598639455	247.41945578231292	52	127
247.41945578231292	247.53555555555556	54	127
247.53555555555556	247.6516553287982	52	127
247.6516553287982	247.7677551020408	54	127
247.7677551020408	247.91868480725623	52	127
247.91868480725623	248.0580045351474	54	127
248.0580045351474	248.19732426303855	50	127
248.19732426303855	248.30181405895692	52	127
248.30181405895692	248.4295238095238	50	127
248.4295238095238	248.53401360544217	52	127
248.53401360544217	248.66172335600908	50	127
248.66172335600908	248.84748299319727	52	127
248.84748299319727	248.97519274376418	49	127
248.97519274376418	249.07968253968255	50	127
249.07968253968255	249.17256235827665	49	127
249.17256235827665	249.27705215419502	50	127
249.27705215419502	249.3815419501134	49	127
249.3815419501134	249.50925170068027	50	127
249.50925170068027	249.60213151927437	47	127
249.60213151927437	249.74145124716554	49	127
249.74145124716554	249.8459410430839	47	127
249.8459410430839	249.9736507936508	49	127
249.9736507936508	250.11297052154194	47	127
250.11297052154194	250.2174603174603	49	127
250.2174603174603	250.33356009070295	45	127
250.33356009070295	250.43804988662131	47	127
250.43804988662131	250.5309297052154	45	127
250.5309297052154	250.63541950113378	47	127
250.63541950113378	250.77473922902493	45	127
250.77473922902493	250.89083900226757	47	127
250.89083900226757	251.0069387755102	45	127
251.0069387755102	251.08820861678004	47	127
251.08820861678004	251.20430839002267	45	127
251.20430839002267	251.3204081632653	47	127
251.3204081632653	251.45972789115646	45	127
251.45972789115646	251.62226757369615	47	127
251.62226757369615	251.71514739229025	45	127
251.71514739229025	251.8544671201814	47	127
251.8544671201814	251.95895691609977	45	127
251.95895691609977	252.0750566893424	47	127
252.0750566893424	252.21437641723355	45	127
252.21437641723355	252.31886621315192	47	127
252.31886621315192	252.4233560090703	45	127
252.4233560090703	252.5510657596372	47	127
252.5510657596372	252.6671655328798	45	127
252.6671655328798	252.85292517006803	47	127
252.85292517006803	253.0502947845805	45	127
253.0502947845805	253.15478458049887	47	127
253.15478458049887	253.25927437641724	45	127
253.25927437641724	253.3637641723356	47	127
253.3637641723356	253.46825396825398	45	127
253.46825396825398	253.63079365079366	47	127
253.63079365079366	253.72367346938776	45	127
253.72367346938776	253.8629931972789	47	127
253.8629931972789	253.97909297052155	45	127
253.97909297052155	254.10680272108843	47	127
254.10680272108843	254.22290249433107	45	127
254.22290249433107	254.36222222222221	47	127
254.36222222222221	254.48993197278912	45	127
254.48993197278912	254.60603174603173	47	127
254.60603174603173	254.69891156462586	45	127
254.69891156462586	254.88467120181406	47	127
254.88467120181406	254.97755102040816	45	127
254.97755102040816	255.08204081632653	47	127
255.08204081632653	255.23297052154194	45	127
255.23297052154194	255.32585034013604	47	127
255.32585034013604	255.46517006802722	45	127
255.46517006802722	255.6625396825397	47	127
255.6625396825397	255.76702947845806	45	127
255.76702947845806	255.91795918367347	47	127
255.91795918367347	256.05727891156465	45	127
256.05727891156465	256.20820861678004	47	127
256.20820861678004	256.3475283446712	45	127
256.3475283446712	256.4404081632653	47	127
256.4404081632653	256.5797052154195	45	127
256.5797052154195	256.6726077097506	47	127
256.6726077097506	256.8583673469388	45	127
256.8583673469388	256.9976870748299	47	127
256.9976870748299	257.09054421768707	45	127
257.09054421768707	257.19503401360544	47	127
257.19503401360544	257.311156462585	45	127
257.311156462585	257.4156462585034	47	127
257.4156462585034	257.52013605442176	45	127
257.52013605442176	257.6362358276644	47	127
257.6362358276644	257.78716553287984	45	127
257.78716553287984	257.88004535147394	47	127
257.88004535147394	257.97292517006804	45	127
257.97292517006804	258.06580498866214	47	127
258.06580498866214	258.15868480725624	45	127
258.15868480725624	258.2631746031746	47	127
258.2631746031746	258.367664399093	45	127
258.367664399093	258.4605442176871	47	127
258.4605442176871	258.59986394557825	45	127
258.59986394557825	258.7159637188209	47	127
258.7159637188209	258.855283446712	45	127
258.855283446712	259.00621315192745	47	127
259.00621315192745	259.1223129251701	45	127
259.1223129251701	259.2732426303855	47	127
259.2732426303855	259.3661224489796	45	127
259.3661224489796	259.47061224489795	47	127
259.47061224489795	259.5751020408163	45	127
259.5751020408163	259.69120181405896	47	127
259.69120181405896	259.8073015873016	45	127
259.8073015873016	259.92340136054423	47	127
259.92340136054423	260.10916099773243	45	127
260.10916099773243	260.22526077097507	47	127
260.22526077097507	260.31814058956917	45	127
260.31814058956917	260.45746031746035	47	127
260.45746031746035	260.5619274376417	45	127
260.5619274376417	260.6780498866213	47	127
260.6780498866213	260.78253968253966	45	127
260.78253968253966	260.92185941043084	47	127
260.92185941043084	261.0379591836735	45	127
261.0379591836735	261.1540589569161	47	127
261.1540589569161	261.281746031746	45	127
261.281746031746	261.3862358276644	47	127
261.3862358276644	261.4791383219955	45	127
261.4791383219955	261.5720181405896	47	127
261.5720181405896	261.7113378684807	45	127
261.7113378684807	261.82743764172335	47	127
261.82743764172335	261.95514739229026	45	127
261.95514739229026	262.08285714285716	47	127
262.08285714285716	262.18734693877553	45	127
262.18734693877553	262.32666666666665	47	127
262.32666666666665	262.431156462585	45	127
262.431156462585	262.54725623582766	47	127
262.54725623582766	262.6981859410431	45	127
262.6981859410431	262.8026757369615	47	127
262.8026757369615	262.9187528344671	45	127
262.9187528344671	263.0116553287982	47	127
263.0116553287982	263.12773242630385	45	127
263.12773242630385	263.22061224489795	47	127
263.22061224489795	263.31351473922905	45	127
263.31351473922905	263.4180045351474	47	127
263.4180045351474	263.55732426303854	45	127
263.55732426303854	263.68503401360545	47	127
263.68503401360545	263.7895238095238	45	127
263.7895238095238	263.8824036281179	47	127
263.8824036281179	263.9868934240363	45	127
263.9868934240363	264.1610430839002	47	127
264.1610430839002	264.2887528344671	45	127
264.2887528344671	264.40485260770976	47	127
264.40485260770976	264.59061224489795	45	127
264.59061224489795	264.6951020408163	47	127
264.6951020408163	264.8924716553288	45	127
265.1595011337869	265.3452607709751	47	127
265.3452607709751	265.6122902494331	45	127
265.82126984126984	266.0302494331066	47	127
266.0302494331066	266.3321088435374	45	127
266.6107482993197	266.80809523809523	47	127
266.80809523809523	267.04031746031745	45	127
267.27251700680273	267.4698866213152	47	127
267.4698866213152	270.66263038548755	45	127
271.4985487528345	271.78879818594106	47	127
271.78879818594106	272.0558276643991	45	127
272.92657596371885	273.1355555555556	47	127
273.1355555555556	273.3677551020408	45	127
281.2044897959184	281.62242630385487	52	127
281.80820861678006	282.36548752834466	57	127
282.6092970521542	283.00403628117914	59	127
283.0156462585034	283.08530612244897	60	127
283.08530612244897	283.13174603174605	59	127
283.13174603174605	283.2362358276644	57	127
283.2362358276644	283.44521541950115	59	127
283.44521541950115	283.78190476190474	60	127
284.0257142857143	284.45528344671203	62	127
284.62943310657596	285.0125623582766	64	127
285.2795918367347	285.4305215419501	62	127
285.48857142857145	285.53501133786847	62	127
285.53501133786847	285.6859410430839	60	127
285.6859410430839	285.8833106575964	59	127
285.9413605442177	286.1039002267574	57	127
286.1619501133787	286.2315873015873	60	127
286.2315873015873	286.3825396825397	59	127
286.3825396825397	286.61473922902496	57	127
287.9614739229025	288.3562358276644	64	127
288.3562358276644	288.49555555555554	62	127
288.5419954648526	288.7045351473923	60	127
288.75097505668936	288.7974149659864	64	127
288.7974149659864	289.0412244897959	62	127
289.0412244897959	289.25020408163266	60	127
290.63179138321993	291.0497505668934	60	127
291.0497505668934	291.1774603174603	59	127
291.23548752834466	291.42126984126986	57	127
291.4677097505669	291.51414965986396	60	127
291.51414965986396	291.69990929705216	59	127
291.69990929705216	291.9437188208617	57	127
292.19913832199546	292.38489795918366	65	127
292.87249433106575	293.0698866213152	65	127
293.5807256235828	293.812925170068	64	127
294.27732426303857	294.50950113378684	67	127
294.93909297052153	295.136462585034	67	127
295.64730158730157	295.8678911564626	71	127
296.1117006802721	296.3090702947846	71	127
296.3090702947846	296.9824489795918	71	127
296.9824489795918	297.60938775510203	63	127
297.60938775510203	297.86480725623585	64	127
299.08385487528346	299.72238095238095	71	127
299.72238095238095	300.36095238095237	63	127
300.36095238095237	301.0111111111111	64	127
301.0111111111111	301.7077097505669	62	127
301.7077097505669	301.93990929705217	60	127
303.0660770975057	303.80909297052153	64	127
303.82072562358275	304.4592743764172	56	127
304.4592743764172	305.16748299319727	57	127
305.16748299319727	306.479410430839	64	127
306.479410430839	307.8261678004535	57	127
307.8261678004535	309.1380952380952	62	127
309.1380952380952	310.0320634920635	67	127
310.0436507936508	310.1829931972789	67	127
310.2526303854875	310.4035827664399	64	127
310.46160997732426	310.67061224489794	69	127
310.6822222222222	310.83315192743765	65	127
310.8795918367347	311.0305215419501	62	127
311.0769387755102	311.37879818594104	67	127
311.37879818594104	311.51814058956916	64	127
311.56458049886623	311.70390022675736	60	127
312.52820861678003	312.69074829931975	67	127
312.69074829931975	312.84167800453514	62	127
312.8997278911565	313.0854875283447	59	127
316.498820861678	316.719410430839	62	127
316.76585034013607	316.96321995464854	62	127
316.96321995464854	317.05609977324264	64	127
317.05609977324264	317.1025170068027	62	127
317.1025170068027	317.2186394557823	60	127
317.2186394557823	317.4159863945578	62	127
317.4159863945578	317.68303854875285	64	127
319.2619954648526	319.44775510204084	59	127
319.5638321995465	319.76120181405895	59	127
319.76120181405895	319.80766439909297	60	127
319.80766439909297	319.8656916099773	59	127
319.8656916099773	319.94698412698415	57	127
319.94698412698415	320.1559637188209	59	127
320.16755102040815	320.4229931972789	60	127
320.6435827664399	321.07315192743766	64	127
321.35179138321996	321.7117006802721	64	127
321.9671201814059	322.45473922902494	69	127
322.67532879818594	322.86108843537414	69	127
322.86108843537414	323.08167800453515	68	127
323.30226757369616	323.74342403628117	64	127
324.0104761904762	324.48648526077096	64	127
324.7883446712018	324.99732426303854	64	127
325.0089342403628	325.1830612244898	69	127
325.4501133786848	325.6823129251701	69	127
325.6823129251701	325.9028798185941	68	127
326.0886621315193	326.39052154195014	64	127
326.39052154195014	326.56467120181406	57	127
326.78526077097507	327.01743764172335	57	127
327.01743764172335	327.24965986394557	52	127
327.48185941043084	327.70244897959185	52	127
327.70244897959185	327.9694784580499	45	127
328.20167800453515	328.43387755102043	45	127
328.43387755102043	328.65444444444444	40	127
328.9563265306123	329.39750566893423	64	127
329.6413151927438	330.09408163265306	64	127
330.3495238095238	330.755873015873	64	127
330.96485260770976	331.38281179138323	64	127
331.59179138321997	332.00975056689344	69	127
332.34643990929703	332.69473922902495	71	127
332.69473922902495	332.741156462585	72	127
332.741156462585	332.8456462585034	71	127
332.8456462585034	332.9385487528345	69	127
332.9385487528345	333.1707482993197	71	127
333.1707482993197	333.44938775510207	72	127
333.64675736961453	334.01827664399093	74	127
334.2504761904762	334.6684353741497	76	127
334.8774149659864	335.21410430839	74	127
335.21410430839	335.2605442176871	76	127
335.2605442176871	335.36503401360545	74	127
335.36503401360545	335.4695238095238	72	127
335.4695238095238	335.73655328798185	74	127
335.73655328798185	335.9687528344671	76	127
336.23578231292515	336.6073015873016	71	127
336.8278911564626	337.2458276643991	72	127
337.44319727891155	337.86115646258503	71	127
337.86115646258503	337.9308390022676	72	127
337.9308390022676	338.0237188208617	71	127
338.0237188208617	338.1165986394558	69	127
338.1165986394558	338.40684807256235	71	127
338.40684807256235	338.6158276643991	69	127
338.85963718820864	339.3820861678005	69	127
339.60267573696143	339.82326530612244	68	127
339.82326530612244	339.9974149659864	69	127
340.2412244897959	340.6011337868481	69	127
340.9378231292517	341.1351700680272	68	127
341.1351700680272	341.3790022675737	69	127
341.58798185941043	341.80857142857144	68	127
341.80857142857144	342.0059410430839	69	127
342.2265306122449	342.43551020408165	68	127
342.43551020408165	342.6444897959184	69	127
342.9463492063492	343.16693877551023	68	127
343.16693877551023	343.3875283446712	69	127
343.642947845805	343.8751473922903	68	127
343.8751473922903	346.80086167800454	69	127
347.7877097505669	347.9966893424036	47	127
347.9966893424036	348.2288888888889	45	127
349.23895691609977	349.4479365079365	47	127
349.4479365079365	349.69174603174605	45	127
358.38761904761907	358.7475283446712	52	127
359.664716553288	360.0130158730159	52	127
360.24519274376416	360.70961451247166	52	127
360.9998639455782	361.44104308390024	52	127
361.7661224489796	362.19566893424036	52	127
362.19566893424036	362.4975283446712	45	127
